{"metadata": {"schema_version": "0.2", "title": "None", "source_filename": "093.mid", "source_format": "midi"}, "resolution": 12, "tempos": [{"time": 0, "qpm": 81.70001388900236}, {"time": 456, "qpm": 82.00014760026568}, {"time": 540, "qpm": 82.4999690625116}, {"time": 756, "qpm": 82.00014760026568}, {"time": 972, "qpm": 80.99997165000993}, {"time": 1020, "qpm": 82.00014760026568}], "time_signatures": [{"time": 0, "numerator": 1, "denominator": 4}], "tracks": [{"program": 4, "is_drum": false, "name": "MELODY", "notes": [{"time": 400, "pitch": 73, "duration": 3, "velocity": 107}, {"time": 406, "pitch": 73, "duration": 5, "velocity": 122}, {"time": 412, "pitch": 71, "duration": 4, "velocity": 64}, {"time": 418, "pitch": 71, "duration": 5, "velocity": 85}, {"time": 424, "pitch": 66, "duration": 19, "velocity": 100}, {"time": 442, "pitch": 73, "duration": 5, "velocity": 112}, {"time": 448, "pitch": 75, "duration": 6, "velocity": 112}, {"time": 460, "pitch": 75, "duration": 27, "velocity": 117}, {"time": 496, "pitch": 73, "duration": 2, "velocity": 122}, {"time": 502, "pitch": 73, "duration": 5, "velocity": 112}, {"time": 508, "pitch": 71, "duration": 4, "velocity": 83}, {"time": 514, "pitch": 68, "duration": 4, "velocity": 96}, {"time": 520, "pitch": 75, "duration": 16, "velocity": 107}, {"time": 538, "pitch": 73, "duration": 5, "velocity": 112}, {"time": 544, "pitch": 71, "duration": 7, "velocity": 92}, {"time": 556, "pitch": 68, "duration": 26, "velocity": 102}, {"time": 592, "pitch": 73, "duration": 3, "velocity": 122}, {"time": 598, "pitch": 73, "duration": 6, "velocity": 117}, {"time": 604, "pitch": 71, "duration": 2, "velocity": 90}, {"time": 610, "pitch": 71, "duration": 2, "velocity": 93}, {"time": 616, "pitch": 68, "duration": 17, "velocity": 102}, {"time": 634, "pitch": 73, "duration": 2, "velocity": 117}, {"time": 640, "pitch": 75, "duration": 5, "velocity": 112}, {"time": 652, "pitch": 73, "duration": 27, "velocity": 112}, {"time": 688, "pitch": 73, "duration": 4, "velocity": 117}, {"time": 694, "pitch": 73, "duration": 4, "velocity": 117}, {"time": 700, "pitch": 71, "duration": 4, "velocity": 89}, {"time": 706, "pitch": 75, "duration": 4, "velocity": 102}, {"time": 712, "pitch": 73, "duration": 10, "velocity": 122}, {"time": 724, "pitch": 73, "duration": 4, "velocity": 95}, {"time": 730, "pitch": 78, "duration": 6, "velocity": 112}, {"time": 736, "pitch": 75, "duration": 6, "velocity": 102}, {"time": 748, "pitch": 73, "duration": 23, "velocity": 100}, {"time": 784, "pitch": 73, "duration": 4, "velocity": 100}, {"time": 790, "pitch": 73, "duration": 4, "velocity": 102}, {"time": 796, "pitch": 73, "duration": 3, "velocity": 100}, {"time": 802, "pitch": 73, "duration": 4, "velocity": 107}, {"time": 808, "pitch": 66, "duration": 16, "velocity": 107}, {"time": 826, "pitch": 73, "duration": 4, "velocity": 122}, {"time": 832, "pitch": 75, "duration": 3, "velocity": 122}, {"time": 844, "pitch": 75, "duration": 24, "velocity": 112}, {"time": 880, "pitch": 73, "duration": 4, "velocity": 122}, {"time": 886, "pitch": 73, "duration": 3, "velocity": 127}, {"time": 892, "pitch": 73, "duration": 2, "velocity": 117}, {"time": 898, "pitch": 73, "duration": 2, "velocity": 122}, {"time": 904, "pitch": 71, "duration": 15, "velocity": 102}, {"time": 922, "pitch": 73, "duration": 4, "velocity": 117}, {"time": 928, "pitch": 75, "duration": 7, "velocity": 122}, {"time": 940, "pitch": 71, "duration": 28, "velocity": 112}, {"time": 976, "pitch": 73, "duration": 3, "velocity": 112}, {"time": 982, "pitch": 73, "duration": 3, "velocity": 107}, {"time": 988, "pitch": 71, "duration": 2, "velocity": 90}, {"time": 994, "pitch": 71, "duration": 3, "velocity": 95}, {"time": 1000, "pitch": 68, "duration": 14, "velocity": 102}, {"time": 1018, "pitch": 73, "duration": 3, "velocity": 117}, {"time": 1024, "pitch": 75, "duration": 7, "velocity": 117}, {"time": 1036, "pitch": 73, "duration": 23, "velocity": 112}, {"time": 1072, "pitch": 73, "duration": 3, "velocity": 122}, {"time": 1078, "pitch": 73, "duration": 3, "velocity": 117}, {"time": 1084, "pitch": 71, "duration": 2, "velocity": 93}, {"time": 1090, "pitch": 75, "duration": 2, "velocity": 112}, {"time": 1096, "pitch": 73, "duration": 8, "velocity": 122}, {"time": 1108, "pitch": 73, "duration": 3, "velocity": 97}, {"time": 1114, "pitch": 78, "duration": 5, "velocity": 127}, {"time": 1120, "pitch": 80, "duration": 8, "velocity": 102}, {"time": 1132, "pitch": 78, "duration": 18, "velocity": 127}, {"time": 1156, "pitch": 66, "duration": 4, "velocity": 112}, {"time": 1162, "pitch": 75, "duration": 6, "velocity": 107}, {"time": 1168, "pitch": 78, "duration": 8, "velocity": 127}, {"time": 1180, "pitch": 78, "duration": 10, "velocity": 127}, {"time": 1192, "pitch": 78, "duration": 4, "velocity": 112}, {"time": 1198, "pitch": 78, "duration": 3, "velocity": 127}, {"time": 1204, "pitch": 75, "duration": 3, "velocity": 112}, {"time": 1210, "pitch": 75, "duration": 4, "velocity": 112}, {"time": 1216, "pitch": 82, "duration": 5, "velocity": 112}, {"time": 1222, "pitch": 82, "duration": 4, "velocity": 127}, {"time": 1228, "pitch": 83, "duration": 9, "velocity": 122}, {"time": 1240, "pitch": 82, "duration": 11, "velocity": 122}, {"time": 1252, "pitch": 80, "duration": 2, "velocity": 117}, {"time": 1255, "pitch": 82, "duration": 2, "velocity": 100}, {"time": 1258, "pitch": 83, "duration": 7, "velocity": 117}, {"time": 1264, "pitch": 82, "duration": 4, "velocity": 127}, {"time": 1270, "pitch": 80, "duration": 2, "velocity": 112}, {"time": 1276, "pitch": 80, "duration": 11, "velocity": 127}, {"time": 1288, "pitch": 78, "duration": 7, "velocity": 122}, {"time": 1300, "pitch": 75, "duration": 6, "velocity": 117}, {"time": 1312, "pitch": 73, "duration": 7, "velocity": 117}, {"time": 1324, "pitch": 71, "duration": 17, "velocity": 100}, {"time": 1348, "pitch": 71, "duration": 2, "velocity": 89}, {"time": 1351, "pitch": 73, "duration": 2, "velocity": 100}, {"time": 1354, "pitch": 75, "duration": 5, "velocity": 122}, {"time": 1360, "pitch": 73, "duration": 7, "velocity": 102}, {"time": 1372, "pitch": 71, "duration": 12, "velocity": 102}, {"time": 1390, "pitch": 71, "duration": 3, "velocity": 100}, {"time": 1396, "pitch": 80, "duration": 2, "velocity": 107}, {"time": 1402, "pitch": 80, "duration": 4, "velocity": 127}, {"time": 1408, "pitch": 78, "duration": 5, "velocity": 117}, {"time": 1420, "pitch": 75, "duration": 11, "velocity": 117}, {"time": 1432, "pitch": 75, "duration": 3, "velocity": 122}, {"time": 1438, "pitch": 73, "duration": 2, "velocity": 127}, {"time": 1444, "pitch": 71, "duration": 4, "velocity": 95}, {"time": 1450, "pitch": 73, "duration": 5, "velocity": 112}, {"time": 1456, "pitch": 73, "duration": 2, "velocity": 127}, {"time": 1462, "pitch": 73, "duration": 3, "velocity": 127}, {"time": 1468, "pitch": 73, "duration": 2, "velocity": 127}, {"time": 1471, "pitch": 71, "duration": 2, "velocity": 92}, {"time": 1474, "pitch": 71, "duration": 4, "velocity": 102}, {"time": 1480, "pitch": 68, "duration": 5, "velocity": 112}, {"time": 1492, "pitch": 80, "duration": 8, "velocity": 127}, {"time": 1504, "pitch": 78, "duration": 4, "velocity": 122}, {"time": 1510, "pitch": 78, "duration": 4, "velocity": 112}, {"time": 1516, "pitch": 73, "duration": 14, "velocity": 117}, {"time": 1540, "pitch": 71, "duration": 2, "velocity": 97}, {"time": 1543, "pitch": 73, "duration": 2, "velocity": 107}, {"time": 1546, "pitch": 75, "duration": 5, "velocity": 122}, {"time": 1552, "pitch": 78, "duration": 7, "velocity": 127}, {"time": 1564, "pitch": 78, "duration": 7, "velocity": 127}, {"time": 1576, "pitch": 78, "duration": 3, "velocity": 122}, {"time": 1582, "pitch": 78, "duration": 4, "velocity": 127}, {"time": 1588, "pitch": 75, "duration": 3, "velocity": 127}, {"time": 1594, "pitch": 75, "duration": 3, "velocity": 122}, {"time": 1600, "pitch": 82, "duration": 4, "velocity": 127}, {"time": 1606, "pitch": 82, "duration": 3, "velocity": 127}, {"time": 1612, "pitch": 83, "duration": 9, "velocity": 127}, {"time": 1624, "pitch": 82, "duration": 7, "velocity": 127}, {"time": 1642, "pitch": 83, "duration": 5, "velocity": 122}, {"time": 1648, "pitch": 82, "duration": 4, "velocity": 127}, {"time": 1654, "pitch": 82, "duration": 4, "velocity": 122}, {"time": 1660, "pitch": 80, "duration": 3, "velocity": 112}, {"time": 1666, "pitch": 80, "duration": 3, "velocity": 117}, {"time": 1672, "pitch": 82, "duration": 6, "velocity": 127}, {"time": 1684, "pitch": 83, "duration": 9, "velocity": 127}, {"time": 1696, "pitch": 82, "duration": 4, "velocity": 127}, {"time": 1702, "pitch": 82, "duration": 3, "velocity": 122}, {"time": 1708, "pitch": 80, "duration": 16, "velocity": 122}, {"time": 1732, "pitch": 80, "duration": 2, "velocity": 122}, {"time": 1735, "pitch": 82, "duration": 2, "velocity": 112}, {"time": 1738, "pitch": 83, "duration": 5, "velocity": 112}, {"time": 1744, "pitch": 82, "duration": 9, "velocity": 127}, {"time": 1756, "pitch": 80, "duration": 14, "velocity": 122}, {"time": 1774, "pitch": 80, "duration": 5, "velocity": 127}, {"time": 1780, "pitch": 78, "duration": 3, "velocity": 100}, {"time": 1786, "pitch": 78, "duration": 4, "velocity": 117}, {"time": 1792, "pitch": 80, "duration": 5, "velocity": 117}, {"time": 1804, "pitch": 75, "duration": 12, "velocity": 122}, {"time": 1816, "pitch": 75, "duration": 5, "velocity": 122}, {"time": 1822, "pitch": 73, "duration": 4, "velocity": 112}, {"time": 1828, "pitch": 71, "duration": 6, "velocity": 102}, {"time": 1834, "pitch": 73, "duration": 4, "velocity": 122}, {"time": 1840, "pitch": 73, "duration": 3, "velocity": 117}, {"time": 1846, "pitch": 73, "duration": 4, "velocity": 122}, {"time": 1852, "pitch": 80, "duration": 8, "velocity": 127}, {"time": 1864, "pitch": 78, "duration": 12, "velocity": 127}, {"time": 1876, "pitch": 80, "duration": 7, "velocity": 122}, {"time": 1888, "pitch": 73, "duration": 27, "velocity": 127}, {"time": 1924, "pitch": 73, "duration": 3, "velocity": 127}, {"time": 1927, "pitch": 75, "duration": 3, "velocity": 100}, {"time": 1930, "pitch": 73, "duration": 4, "velocity": 127}, {"time": 1936, "pitch": 71, "duration": 5, "velocity": 122}, {"time": 1948, "pitch": 71, "duration": 38, "velocity": 107}, {"time": 1996, "pitch": 75, "duration": 8, "velocity": 117}, {"time": 2008, "pitch": 78, "duration": 9, "velocity": 127}, {"time": 2020, "pitch": 80, "duration": 39, "velocity": 127}, {"time": 2092, "pitch": 78, "duration": 6, "velocity": 122}, {"time": 2104, "pitch": 75, "duration": 8, "velocity": 127}, {"time": 2116, "pitch": 73, "duration": 8, "velocity": 127}, {"time": 2128, "pitch": 71, "duration": 49, "velocity": 117}, {"time": 2512, "pitch": 73, "duration": 4, "velocity": 100}, {"time": 2518, "pitch": 73, "duration": 4, "velocity": 102}, {"time": 2524, "pitch": 73, "duration": 3, "velocity": 100}, {"time": 2530, "pitch": 73, "duration": 4, "velocity": 107}, {"time": 2536, "pitch": 66, "duration": 16, "velocity": 107}, {"time": 2554, "pitch": 73, "duration": 4, "velocity": 122}, {"time": 2560, "pitch": 75, "duration": 3, "velocity": 122}, {"time": 2572, "pitch": 75, "duration": 24, "velocity": 112}, {"time": 2608, "pitch": 73, "duration": 4, "velocity": 122}, {"time": 2614, "pitch": 73, "duration": 3, "velocity": 127}, {"time": 2620, "pitch": 73, "duration": 2, "velocity": 117}, {"time": 2626, "pitch": 73, "duration": 2, "velocity": 122}, {"time": 2632, "pitch": 71, "duration": 15, "velocity": 102}, {"time": 2650, "pitch": 73, "duration": 4, "velocity": 117}, {"time": 2656, "pitch": 75, "duration": 7, "velocity": 122}, {"time": 2668, "pitch": 71, "duration": 28, "velocity": 112}, {"time": 2704, "pitch": 73, "duration": 3, "velocity": 112}, {"time": 2710, "pitch": 73, "duration": 3, "velocity": 107}, {"time": 2716, "pitch": 71, "duration": 2, "velocity": 90}, {"time": 2722, "pitch": 71, "duration": 3, "velocity": 95}, {"time": 2728, "pitch": 68, "duration": 14, "velocity": 102}, {"time": 2746, "pitch": 73, "duration": 3, "velocity": 117}, {"time": 2752, "pitch": 75, "duration": 7, "velocity": 117}, {"time": 2764, "pitch": 73, "duration": 23, "velocity": 112}, {"time": 2800, "pitch": 73, "duration": 3, "velocity": 122}, {"time": 2806, "pitch": 73, "duration": 3, "velocity": 117}, {"time": 2812, "pitch": 71, "duration": 2, "velocity": 93}, {"time": 2818, "pitch": 75, "duration": 2, "velocity": 112}, {"time": 2824, "pitch": 73, "duration": 8, "velocity": 122}, {"time": 2836, "pitch": 73, "duration": 3, "velocity": 97}, {"time": 2842, "pitch": 78, "duration": 5, "velocity": 127}, {"time": 2848, "pitch": 80, "duration": 8, "velocity": 102}, {"time": 2860, "pitch": 78, "duration": 18, "velocity": 127}, {"time": 2884, "pitch": 66, "duration": 4, "velocity": 112}, {"time": 2890, "pitch": 75, "duration": 6, "velocity": 107}, {"time": 2896, "pitch": 78, "duration": 8, "velocity": 127}, {"time": 2908, "pitch": 78, "duration": 10, "velocity": 127}, {"time": 2920, "pitch": 78, "duration": 4, "velocity": 112}, {"time": 2926, "pitch": 78, "duration": 3, "velocity": 127}, {"time": 2932, "pitch": 75, "duration": 3, "velocity": 112}, {"time": 2938, "pitch": 75, "duration": 4, "velocity": 112}, {"time": 2944, "pitch": 82, "duration": 5, "velocity": 112}, {"time": 2950, "pitch": 82, "duration": 4, "velocity": 127}, {"time": 2956, "pitch": 83, "duration": 9, "velocity": 122}, {"time": 2968, "pitch": 82, "duration": 11, "velocity": 122}, {"time": 2980, "pitch": 80, "duration": 2, "velocity": 117}, {"time": 2983, "pitch": 82, "duration": 2, "velocity": 100}, {"time": 2986, "pitch": 83, "duration": 7, "velocity": 117}, {"time": 2992, "pitch": 82, "duration": 4, "velocity": 127}, {"time": 2998, "pitch": 80, "duration": 2, "velocity": 112}, {"time": 3004, "pitch": 80, "duration": 11, "velocity": 127}, {"time": 3016, "pitch": 78, "duration": 7, "velocity": 122}, {"time": 3028, "pitch": 75, "duration": 6, "velocity": 117}, {"time": 3040, "pitch": 73, "duration": 7, "velocity": 117}, {"time": 3052, "pitch": 71, "duration": 17, "velocity": 100}, {"time": 3076, "pitch": 71, "duration": 2, "velocity": 89}, {"time": 3079, "pitch": 73, "duration": 2, "velocity": 100}, {"time": 3082, "pitch": 75, "duration": 5, "velocity": 122}, {"time": 3088, "pitch": 73, "duration": 7, "velocity": 102}, {"time": 3100, "pitch": 71, "duration": 12, "velocity": 102}, {"time": 3118, "pitch": 71, "duration": 3, "velocity": 100}, {"time": 3124, "pitch": 80, "duration": 2, "velocity": 107}, {"time": 3130, "pitch": 80, "duration": 4, "velocity": 127}, {"time": 3136, "pitch": 78, "duration": 5, "velocity": 117}, {"time": 3148, "pitch": 75, "duration": 11, "velocity": 117}, {"time": 3160, "pitch": 75, "duration": 3, "velocity": 122}, {"time": 3166, "pitch": 73, "duration": 2, "velocity": 127}, {"time": 3172, "pitch": 71, "duration": 4, "velocity": 95}, {"time": 3178, "pitch": 73, "duration": 5, "velocity": 112}, {"time": 3184, "pitch": 73, "duration": 2, "velocity": 127}, {"time": 3190, "pitch": 73, "duration": 3, "velocity": 127}, {"time": 3196, "pitch": 73, "duration": 2, "velocity": 127}, {"time": 3199, "pitch": 71, "duration": 2, "velocity": 92}, {"time": 3202, "pitch": 71, "duration": 4, "velocity": 102}, {"time": 3208, "pitch": 68, "duration": 5, "velocity": 112}, {"time": 3220, "pitch": 80, "duration": 8, "velocity": 127}, {"time": 3232, "pitch": 78, "duration": 4, "velocity": 122}, {"time": 3238, "pitch": 78, "duration": 4, "velocity": 112}, {"time": 3244, "pitch": 73, "duration": 14, "velocity": 117}, {"time": 3268, "pitch": 71, "duration": 2, "velocity": 97}, {"time": 3271, "pitch": 73, "duration": 2, "velocity": 107}, {"time": 3274, "pitch": 75, "duration": 5, "velocity": 122}, {"time": 3280, "pitch": 78, "duration": 7, "velocity": 127}, {"time": 3292, "pitch": 78, "duration": 7, "velocity": 127}, {"time": 3304, "pitch": 78, "duration": 3, "velocity": 122}, {"time": 3310, "pitch": 78, "duration": 4, "velocity": 127}, {"time": 3316, "pitch": 75, "duration": 3, "velocity": 127}, {"time": 3322, "pitch": 75, "duration": 3, "velocity": 122}, {"time": 3328, "pitch": 82, "duration": 4, "velocity": 127}, {"time": 3334, "pitch": 82, "duration": 3, "velocity": 127}, {"time": 3340, "pitch": 83, "duration": 9, "velocity": 127}, {"time": 3352, "pitch": 82, "duration": 7, "velocity": 127}, {"time": 3370, "pitch": 83, "duration": 5, "velocity": 122}, {"time": 3376, "pitch": 82, "duration": 4, "velocity": 127}, {"time": 3382, "pitch": 82, "duration": 4, "velocity": 122}, {"time": 3388, "pitch": 80, "duration": 3, "velocity": 112}, {"time": 3394, "pitch": 80, "duration": 3, "velocity": 117}, {"time": 3400, "pitch": 82, "duration": 6, "velocity": 127}, {"time": 3412, "pitch": 83, "duration": 9, "velocity": 127}, {"time": 3424, "pitch": 82, "duration": 4, "velocity": 127}, {"time": 3430, "pitch": 82, "duration": 3, "velocity": 122}, {"time": 3436, "pitch": 80, "duration": 16, "velocity": 122}, {"time": 3460, "pitch": 80, "duration": 2, "velocity": 122}, {"time": 3463, "pitch": 82, "duration": 2, "velocity": 112}, {"time": 3466, "pitch": 83, "duration": 5, "velocity": 112}, {"time": 3472, "pitch": 82, "duration": 9, "velocity": 127}, {"time": 3484, "pitch": 80, "duration": 14, "velocity": 122}, {"time": 3502, "pitch": 80, "duration": 5, "velocity": 127}, {"time": 3508, "pitch": 78, "duration": 3, "velocity": 100}, {"time": 3514, "pitch": 78, "duration": 4, "velocity": 117}, {"time": 3520, "pitch": 80, "duration": 5, "velocity": 117}, {"time": 3532, "pitch": 75, "duration": 12, "velocity": 122}, {"time": 3544, "pitch": 75, "duration": 5, "velocity": 122}, {"time": 3550, "pitch": 73, "duration": 4, "velocity": 112}, {"time": 3556, "pitch": 71, "duration": 6, "velocity": 102}, {"time": 3562, "pitch": 73, "duration": 4, "velocity": 122}, {"time": 3568, "pitch": 73, "duration": 3, "velocity": 117}, {"time": 3574, "pitch": 73, "duration": 4, "velocity": 122}, {"time": 3580, "pitch": 80, "duration": 8, "velocity": 127}, {"time": 3592, "pitch": 78, "duration": 12, "velocity": 127}, {"time": 3604, "pitch": 80, "duration": 7, "velocity": 122}, {"time": 3616, "pitch": 73, "duration": 27, "velocity": 127}, {"time": 3652, "pitch": 73, "duration": 3, "velocity": 127}, {"time": 3655, "pitch": 75, "duration": 3, "velocity": 100}, {"time": 3658, "pitch": 73, "duration": 4, "velocity": 127}, {"time": 3664, "pitch": 71, "duration": 5, "velocity": 122}, {"time": 3676, "pitch": 71, "duration": 38, "velocity": 107}, {"time": 3724, "pitch": 75, "duration": 8, "velocity": 117}, {"time": 3736, "pitch": 78, "duration": 9, "velocity": 127}, {"time": 3748, "pitch": 80, "duration": 39, "velocity": 127}, {"time": 3820, "pitch": 78, "duration": 6, "velocity": 122}, {"time": 3832, "pitch": 75, "duration": 8, "velocity": 127}, {"time": 3844, "pitch": 73, "duration": 8, "velocity": 127}, {"time": 3856, "pitch": 71, "duration": 49, "velocity": 117}]}, {"program": 0, "is_drum": false, "name": "PIANO", "notes": [{"time": 10, "pitch": 52, "duration": 43, "velocity": 76}, {"time": 16, "pitch": 54, "duration": 41, "velocity": 89}, {"time": 22, "pitch": 59, "duration": 8, "velocity": 83}, {"time": 28, "pitch": 66, "duration": 35, "velocity": 112}, {"time": 58, "pitch": 52, "duration": 35, "velocity": 85}, {"time": 64, "pitch": 54, "duration": 31, "velocity": 86}, {"time": 70, "pitch": 59, "duration": 6, "velocity": 97}, {"time": 76, "pitch": 66, "duration": 30, "velocity": 117}, {"time": 106, "pitch": 51, "duration": 39, "velocity": 102}, {"time": 112, "pitch": 54, "duration": 36, "velocity": 92}, {"time": 118, "pitch": 61, "duration": 7, "velocity": 112}, {"time": 124, "pitch": 66, "duration": 36, "velocity": 117}, {"time": 154, "pitch": 51, "duration": 48, "velocity": 99}, {"time": 160, "pitch": 54, "duration": 42, "velocity": 86}, {"time": 166, "pitch": 61, "duration": 6, "velocity": 112}, {"time": 172, "pitch": 66, "duration": 29, "velocity": 122}, {"time": 202, "pitch": 49, "duration": 46, "velocity": 99}, {"time": 208, "pitch": 54, "duration": 41, "velocity": 102}, {"time": 214, "pitch": 61, "duration": 8, "velocity": 102}, {"time": 220, "pitch": 66, "duration": 37, "velocity": 112}, {"time": 250, "pitch": 49, "duration": 49, "velocity": 100}, {"time": 256, "pitch": 54, "duration": 43, "velocity": 92}, {"time": 262, "pitch": 61, "duration": 6, "velocity": 100}, {"time": 268, "pitch": 66, "duration": 31, "velocity": 117}, {"time": 298, "pitch": 42, "duration": 45, "velocity": 86}, {"time": 304, "pitch": 49, "duration": 39, "velocity": 100}, {"time": 310, "pitch": 54, "duration": 34, "velocity": 97}, {"time": 316, "pitch": 64, "duration": 24, "velocity": 102}, {"time": 346, "pitch": 42, "duration": 36, "velocity": 62}, {"time": 346, "pitch": 49, "duration": 36, "velocity": 55}, {"time": 346, "pitch": 54, "duration": 36, "velocity": 66}, {"time": 346, "pitch": 58, "duration": 36, "velocity": 97}, {"time": 346, "pitch": 61, "duration": 36, "velocity": 112}, {"time": 394, "pitch": 47, "duration": 47, "velocity": 85}, {"time": 400, "pitch": 54, "duration": 44, "velocity": 61}, {"time": 406, "pitch": 59, "duration": 14, "velocity": 86}, {"time": 412, "pitch": 78, "duration": 43, "velocity": 112}, {"time": 418, "pitch": 75, "duration": 37, "velocity": 122}, {"time": 424, "pitch": 59, "duration": 20, "velocity": 82}, {"time": 430, "pitch": 73, "duration": 28, "velocity": 85}, {"time": 436, "pitch": 71, "duration": 20, "velocity": 61}, {"time": 442, "pitch": 47, "duration": 48, "velocity": 83}, {"time": 448, "pitch": 54, "duration": 42, "velocity": 66}, {"time": 454, "pitch": 59, "duration": 15, "velocity": 95}, {"time": 460, "pitch": 78, "duration": 31, "velocity": 107}, {"time": 466, "pitch": 75, "duration": 24, "velocity": 122}, {"time": 472, "pitch": 59, "duration": 16, "velocity": 61}, {"time": 478, "pitch": 73, "duration": 12, "velocity": 97}, {"time": 484, "pitch": 71, "duration": 8, "velocity": 76}, {"time": 490, "pitch": 44, "duration": 46, "velocity": 89}, {"time": 496, "pitch": 51, "duration": 42, "velocity": 68}, {"time": 502, "pitch": 56, "duration": 15, "velocity": 96}, {"time": 508, "pitch": 75, "duration": 7, "velocity": 97}, {"time": 514, "pitch": 71, "duration": 6, "velocity": 86}, {"time": 520, "pitch": 56, "duration": 21, "velocity": 77}, {"time": 523, "pitch": 71, "duration": 3, "velocity": 24}, {"time": 526, "pitch": 70, "duration": 7, "velocity": 96}, {"time": 532, "pitch": 71, "duration": 8, "velocity": 65}, {"time": 538, "pitch": 44, "duration": 45, "velocity": 77}, {"time": 544, "pitch": 51, "duration": 38, "velocity": 71}, {"time": 550, "pitch": 56, "duration": 13, "velocity": 62}, {"time": 556, "pitch": 71, "duration": 16, "velocity": 81}, {"time": 568, "pitch": 56, "duration": 12, "velocity": 92}, {"time": 574, "pitch": 70, "duration": 6, "velocity": 112}, {"time": 580, "pitch": 71, "duration": 7, "velocity": 92}, {"time": 586, "pitch": 40, "duration": 45, "velocity": 86}, {"time": 592, "pitch": 47, "duration": 43, "velocity": 55}, {"time": 598, "pitch": 52, "duration": 15, "velocity": 78}, {"time": 604, "pitch": 64, "duration": 9, "velocity": 82}, {"time": 610, "pitch": 71, "duration": 42, "velocity": 99}, {"time": 616, "pitch": 52, "duration": 5, "velocity": 55}, {"time": 622, "pitch": 68, "duration": 21, "velocity": 96}, {"time": 628, "pitch": 66, "duration": 22, "velocity": 73}, {"time": 634, "pitch": 40, "duration": 41, "velocity": 79}, {"time": 640, "pitch": 47, "duration": 38, "velocity": 48}, {"time": 646, "pitch": 52, "duration": 16, "velocity": 81}, {"time": 652, "pitch": 64, "duration": 13, "velocity": 76}, {"time": 658, "pitch": 71, "duration": 26, "velocity": 107}, {"time": 664, "pitch": 52, "duration": 14, "velocity": 56}, {"time": 670, "pitch": 66, "duration": 7, "velocity": 88}, {"time": 676, "pitch": 68, "duration": 9, "velocity": 89}, {"time": 682, "pitch": 42, "duration": 46, "velocity": 93}, {"time": 688, "pitch": 54, "duration": 21, "velocity": 89}, {"time": 694, "pitch": 61, "duration": 18, "velocity": 85}, {"time": 700, "pitch": 66, "duration": 7, "velocity": 97}, {"time": 706, "pitch": 70, "duration": 43, "velocity": 99}, {"time": 712, "pitch": 49, "duration": 18, "velocity": 27}, {"time": 712, "pitch": 54, "duration": 26, "velocity": 55}, {"time": 718, "pitch": 66, "duration": 31, "velocity": 88}, {"time": 724, "pitch": 61, "duration": 23, "velocity": 49}, {"time": 730, "pitch": 42, "duration": 38, "velocity": 81}, {"time": 736, "pitch": 49, "duration": 31, "velocity": 42}, {"time": 742, "pitch": 54, "duration": 15, "velocity": 78}, {"time": 748, "pitch": 61, "duration": 15, "velocity": 53}, {"time": 754, "pitch": 70, "duration": 14, "velocity": 100}, {"time": 760, "pitch": 54, "duration": 9, "velocity": 72}, {"time": 766, "pitch": 68, "duration": 14, "velocity": 72}, {"time": 772, "pitch": 66, "duration": 2, "velocity": 63}, {"time": 778, "pitch": 47, "duration": 45, "velocity": 79}, {"time": 784, "pitch": 54, "duration": 20, "velocity": 53}, {"time": 790, "pitch": 59, "duration": 8, "velocity": 78}, {"time": 796, "pitch": 63, "duration": 7, "velocity": 96}, {"time": 802, "pitch": 66, "duration": 13, "velocity": 117}, {"time": 808, "pitch": 54, "duration": 18, "velocity": 68}, {"time": 814, "pitch": 63, "duration": 10, "velocity": 79}, {"time": 820, "pitch": 66, "duration": 5, "velocity": 56}, {"time": 826, "pitch": 47, "duration": 39, "velocity": 71}, {"time": 832, "pitch": 54, "duration": 32, "velocity": 58}, {"time": 838, "pitch": 59, "duration": 14, "velocity": 82}, {"time": 844, "pitch": 78, "duration": 33, "velocity": 117}, {"time": 850, "pitch": 75, "duration": 13, "velocity": 122}, {"time": 856, "pitch": 59, "duration": 7, "velocity": 90}, {"time": 862, "pitch": 73, "duration": 8, "velocity": 127}, {"time": 868, "pitch": 75, "duration": 9, "velocity": 92}, {"time": 874, "pitch": 44, "duration": 46, "velocity": 95}, {"time": 874, "pitch": 71, "duration": 4, "velocity": 74}, {"time": 880, "pitch": 56, "duration": 22, "velocity": 92}, {"time": 886, "pitch": 59, "duration": 22, "velocity": 75}, {"time": 892, "pitch": 63, "duration": 7, "velocity": 122}, {"time": 898, "pitch": 68, "duration": 29, "velocity": 112}, {"time": 904, "pitch": 56, "duration": 19, "velocity": 64}, {"time": 910, "pitch": 63, "duration": 16, "velocity": 107}, {"time": 916, "pitch": 59, "duration": 10, "velocity": 75}, {"time": 922, "pitch": 44, "duration": 38, "velocity": 86}, {"time": 928, "pitch": 56, "duration": 21, "velocity": 100}, {"time": 934, "pitch": 59, "duration": 21, "velocity": 82}, {"time": 940, "pitch": 63, "duration": 7, "velocity": 112}, {"time": 946, "pitch": 68, "duration": 25, "velocity": 102}, {"time": 952, "pitch": 56, "duration": 3, "velocity": 96}, {"time": 958, "pitch": 63, "duration": 13, "velocity": 127}, {"time": 964, "pitch": 59, "duration": 7, "velocity": 92}, {"time": 970, "pitch": 40, "duration": 45, "velocity": 82}, {"time": 976, "pitch": 47, "duration": 43, "velocity": 72}, {"time": 982, "pitch": 52, "duration": 15, "velocity": 99}, {"time": 988, "pitch": 59, "duration": 19, "velocity": 85}, {"time": 994, "pitch": 68, "duration": 40, "velocity": 117}, {"time": 1000, "pitch": 52, "duration": 6, "velocity": 73}, {"time": 1006, "pitch": 64, "duration": 31, "velocity": 97}, {"time": 1012, "pitch": 59, "duration": 20, "velocity": 89}, {"time": 1018, "pitch": 40, "duration": 35, "velocity": 88}, {"time": 1024, "pitch": 47, "duration": 30, "velocity": 63}, {"time": 1030, "pitch": 52, "duration": 15, "velocity": 85}, {"time": 1036, "pitch": 59, "duration": 17, "velocity": 70}, {"time": 1042, "pitch": 68, "duration": 24, "velocity": 117}, {"time": 1048, "pitch": 52, "duration": 5, "velocity": 69}, {"time": 1054, "pitch": 64, "duration": 11, "velocity": 97}, {"time": 1060, "pitch": 59, "duration": 6, "velocity": 79}, {"time": 1066, "pitch": 42, "duration": 46, "velocity": 85}, {"time": 1072, "pitch": 49, "duration": 42, "velocity": 72}, {"time": 1078, "pitch": 54, "duration": 14, "velocity": 97}, {"time": 1084, "pitch": 61, "duration": 7, "velocity": 96}, {"time": 1090, "pitch": 66, "duration": 26, "velocity": 122}, {"time": 1096, "pitch": 54, "duration": 26, "velocity": 66}, {"time": 1102, "pitch": 61, "duration": 13, "velocity": 100}, {"time": 1108, "pitch": 58, "duration": 6, "velocity": 79}, {"time": 1114, "pitch": 42, "duration": 37, "velocity": 78}, {"time": 1120, "pitch": 49, "duration": 29, "velocity": 30}, {"time": 1126, "pitch": 54, "duration": 25, "velocity": 63}, {"time": 1132, "pitch": 73, "duration": 19, "velocity": 93}, {"time": 1162, "pitch": 47, "duration": 39, "velocity": 89}, {"time": 1162, "pitch": 59, "duration": 5, "velocity": 90}, {"time": 1162, "pitch": 63, "duration": 5, "velocity": 112}, {"time": 1162, "pitch": 66, "duration": 5, "velocity": 107}, {"time": 1168, "pitch": 54, "duration": 22, "velocity": 85}, {"time": 1174, "pitch": 71, "duration": 2, "velocity": 72}, {"time": 1174, "pitch": 75, "duration": 2, "velocity": 112}, {"time": 1174, "pitch": 78, "duration": 2, "velocity": 97}, {"time": 1180, "pitch": 59, "duration": 8, "velocity": 63}, {"time": 1186, "pitch": 63, "duration": 10, "velocity": 127}, {"time": 1186, "pitch": 66, "duration": 10, "velocity": 112}, {"time": 1195, "pitch": 54, "duration": 5, "velocity": 44}, {"time": 1198, "pitch": 63, "duration": 5, "velocity": 127}, {"time": 1198, "pitch": 66, "duration": 6, "velocity": 117}, {"time": 1204, "pitch": 59, "duration": 1, "velocity": 74}, {"time": 1210, "pitch": 51, "duration": 35, "velocity": 78}, {"time": 1210, "pitch": 63, "duration": 9, "velocity": 112}, {"time": 1210, "pitch": 67, "duration": 5, "velocity": 100}, {"time": 1210, "pitch": 70, "duration": 7, "velocity": 102}, {"time": 1216, "pitch": 55, "duration": 28, "velocity": 30}, {"time": 1222, "pitch": 63, "duration": 10, "velocity": 97}, {"time": 1222, "pitch": 67, "duration": 7, "velocity": 102}, {"time": 1222, "pitch": 70, "duration": 8, "velocity": 107}, {"time": 1228, "pitch": 58, "duration": 8, "velocity": 33}, {"time": 1234, "pitch": 63, "duration": 8, "velocity": 63}, {"time": 1234, "pitch": 67, "duration": 7, "velocity": 66}, {"time": 1234, "pitch": 70, "duration": 7, "velocity": 69}, {"time": 1240, "pitch": 58, "duration": 5, "velocity": 55}, {"time": 1246, "pitch": 67, "duration": 5, "velocity": 112}, {"time": 1246, "pitch": 70, "duration": 5, "velocity": 122}, {"time": 1258, "pitch": 44, "duration": 16, "velocity": 112}, {"time": 1258, "pitch": 59, "duration": 9, "velocity": 93}, {"time": 1258, "pitch": 63, "duration": 9, "velocity": 99}, {"time": 1264, "pitch": 56, "duration": 6, "velocity": 74}, {"time": 1270, "pitch": 63, "duration": 5, "velocity": 127}, {"time": 1276, "pitch": 59, "duration": 3, "velocity": 89}, {"time": 1282, "pitch": 42, "duration": 15, "velocity": 100}, {"time": 1282, "pitch": 58, "duration": 9, "velocity": 112}, {"time": 1282, "pitch": 61, "duration": 8, "velocity": 117}, {"time": 1288, "pitch": 54, "duration": 4, "velocity": 90}, {"time": 1294, "pitch": 58, "duration": 4, "velocity": 112}, {"time": 1294, "pitch": 61, "duration": 4, "velocity": 112}, {"time": 1306, "pitch": 41, "duration": 37, "velocity": 76}, {"time": 1306, "pitch": 53, "duration": 13, "velocity": 96}, {"time": 1306, "pitch": 56, "duration": 10, "velocity": 117}, {"time": 1306, "pitch": 59, "duration": 10, "velocity": 99}, {"time": 1312, "pitch": 48, "duration": 9, "velocity": 62}, {"time": 1318, "pitch": 56, "duration": 11, "velocity": 89}, {"time": 1318, "pitch": 59, "duration": 11, "velocity": 79}, {"time": 1324, "pitch": 48, "duration": 19, "velocity": 56}, {"time": 1330, "pitch": 53, "duration": 14, "velocity": 73}, {"time": 1330, "pitch": 56, "duration": 15, "velocity": 72}, {"time": 1330, "pitch": 59, "duration": 15, "velocity": 69}, {"time": 1354, "pitch": 40, "duration": 37, "velocity": 82}, {"time": 1354, "pitch": 52, "duration": 2, "velocity": 86}, {"time": 1354, "pitch": 56, "duration": 2, "velocity": 93}, {"time": 1354, "pitch": 59, "duration": 2, "velocity": 92}, {"time": 1363, "pitch": 47, "duration": 29, "velocity": 23}, {"time": 1366, "pitch": 59, "duration": 10, "velocity": 93}, {"time": 1366, "pitch": 64, "duration": 8, "velocity": 97}, {"time": 1366, "pitch": 68, "duration": 7, "velocity": 96}, {"time": 1372, "pitch": 52, "duration": 10, "velocity": 72}, {"time": 1378, "pitch": 59, "duration": 9, "velocity": 54}, {"time": 1378, "pitch": 64, "duration": 9, "velocity": 66}, {"time": 1378, "pitch": 68, "duration": 9, "velocity": 59}, {"time": 1384, "pitch": 52, "duration": 6, "velocity": 59}, {"time": 1390, "pitch": 59, "duration": 3, "velocity": 92}, {"time": 1390, "pitch": 64, "duration": 2, "velocity": 95}, {"time": 1390, "pitch": 68, "duration": 2, "velocity": 97}, {"time": 1402, "pitch": 39, "duration": 38, "velocity": 92}, {"time": 1402, "pitch": 58, "duration": 9, "velocity": 89}, {"time": 1402, "pitch": 63, "duration": 6, "velocity": 88}, {"time": 1402, "pitch": 66, "duration": 6, "velocity": 92}, {"time": 1408, "pitch": 51, "duration": 22, "velocity": 85}, {"time": 1414, "pitch": 58, "duration": 10, "velocity": 93}, {"time": 1414, "pitch": 63, "duration": 10, "velocity": 97}, {"time": 1414, "pitch": 66, "duration": 7, "velocity": 96}, {"time": 1420, "pitch": 46, "duration": 19, "velocity": 33}, {"time": 1426, "pitch": 58, "duration": 8, "velocity": 73}, {"time": 1426, "pitch": 63, "duration": 10, "velocity": 99}, {"time": 1426, "pitch": 66, "duration": 8, "velocity": 95}, {"time": 1432, "pitch": 51, "duration": 6, "velocity": 70}, {"time": 1438, "pitch": 63, "duration": 5, "velocity": 112}, {"time": 1438, "pitch": 66, "duration": 5, "velocity": 102}, {"time": 1444, "pitch": 58, "duration": 1, "velocity": 93}, {"time": 1450, "pitch": 37, "duration": 20, "velocity": 96}, {"time": 1450, "pitch": 61, "duration": 9, "velocity": 99}, {"time": 1450, "pitch": 64, "duration": 6, "velocity": 90}, {"time": 1450, "pitch": 68, "duration": 7, "velocity": 93}, {"time": 1456, "pitch": 49, "duration": 9, "velocity": 70}, {"time": 1462, "pitch": 61, "duration": 9, "velocity": 96}, {"time": 1462, "pitch": 64, "duration": 7, "velocity": 88}, {"time": 1462, "pitch": 68, "duration": 7, "velocity": 89}, {"time": 1468, "pitch": 49, "duration": 3, "velocity": 55}, {"time": 1474, "pitch": 37, "duration": 14, "velocity": 79}, {"time": 1474, "pitch": 49, "duration": 14, "velocity": 90}, {"time": 1474, "pitch": 61, "duration": 9, "velocity": 99}, {"time": 1474, "pitch": 64, "duration": 3, "velocity": 95}, {"time": 1474, "pitch": 68, "duration": 7, "velocity": 99}, {"time": 1480, "pitch": 64, "duration": 1, "velocity": 1}, {"time": 1486, "pitch": 64, "duration": 5, "velocity": 107}, {"time": 1486, "pitch": 68, "duration": 6, "velocity": 117}, {"time": 1492, "pitch": 61, "duration": 1, "velocity": 65}, {"time": 1498, "pitch": 42, "duration": 15, "velocity": 112}, {"time": 1498, "pitch": 58, "duration": 10, "velocity": 127}, {"time": 1498, "pitch": 61, "duration": 7, "velocity": 122}, {"time": 1504, "pitch": 54, "duration": 8, "velocity": 67}, {"time": 1510, "pitch": 58, "duration": 4, "velocity": 102}, {"time": 1510, "pitch": 61, "duration": 4, "velocity": 95}, {"time": 1516, "pitch": 42, "duration": 4, "velocity": 88}, {"time": 1516, "pitch": 54, "duration": 3, "velocity": 92}, {"time": 1516, "pitch": 58, "duration": 3, "velocity": 82}, {"time": 1516, "pitch": 61, "duration": 3, "velocity": 77}, {"time": 1522, "pitch": 42, "duration": 11, "velocity": 117}, {"time": 1522, "pitch": 54, "duration": 9, "velocity": 117}, {"time": 1522, "pitch": 58, "duration": 7, "velocity": 127}, {"time": 1522, "pitch": 61, "duration": 9, "velocity": 117}, {"time": 1534, "pitch": 49, "duration": 1, "velocity": 93}, {"time": 1534, "pitch": 58, "duration": 1, "velocity": 127}, {"time": 1534, "pitch": 61, "duration": 2, "velocity": 107}, {"time": 1546, "pitch": 47, "duration": 35, "velocity": 86}, {"time": 1546, "pitch": 59, "duration": 9, "velocity": 92}, {"time": 1546, "pitch": 63, "duration": 9, "velocity": 112}, {"time": 1546, "pitch": 66, "duration": 8, "velocity": 99}, {"time": 1552, "pitch": 54, "duration": 10, "velocity": 56}, {"time": 1558, "pitch": 59, "duration": 9, "velocity": 88}, {"time": 1558, "pitch": 63, "duration": 9, "velocity": 97}, {"time": 1558, "pitch": 66, "duration": 9, "velocity": 92}, {"time": 1564, "pitch": 54, "duration": 9, "velocity": 42}, {"time": 1570, "pitch": 59, "duration": 9, "velocity": 73}, {"time": 1570, "pitch": 63, "duration": 9, "velocity": 69}, {"time": 1570, "pitch": 66, "duration": 9, "velocity": 73}, {"time": 1576, "pitch": 54, "duration": 5, "velocity": 97}, {"time": 1582, "pitch": 63, "duration": 5, "velocity": 127}, {"time": 1582, "pitch": 66, "duration": 6, "velocity": 117}, {"time": 1588, "pitch": 59, "duration": 1, "velocity": 90}, {"time": 1594, "pitch": 39, "duration": 24, "velocity": 96}, {"time": 1594, "pitch": 51, "duration": 2, "velocity": 58}, {"time": 1594, "pitch": 63, "duration": 9, "velocity": 100}, {"time": 1594, "pitch": 67, "duration": 7, "velocity": 92}, {"time": 1594, "pitch": 70, "duration": 6, "velocity": 93}, {"time": 1606, "pitch": 63, "duration": 10, "velocity": 97}, {"time": 1606, "pitch": 67, "duration": 6, "velocity": 99}, {"time": 1606, "pitch": 70, "duration": 6, "velocity": 95}, {"time": 1612, "pitch": 51, "duration": 7, "velocity": 55}, {"time": 1618, "pitch": 63, "duration": 5, "velocity": 95}, {"time": 1618, "pitch": 67, "duration": 8, "velocity": 99}, {"time": 1618, "pitch": 70, "duration": 8, "velocity": 97}, {"time": 1630, "pitch": 51, "duration": 1, "velocity": 59}, {"time": 1630, "pitch": 58, "duration": 2, "velocity": 100}, {"time": 1630, "pitch": 63, "duration": 3, "velocity": 102}, {"time": 1630, "pitch": 67, "duration": 1, "velocity": 107}, {"time": 1630, "pitch": 70, "duration": 2, "velocity": 107}, {"time": 1642, "pitch": 44, "duration": 15, "velocity": 117}, {"time": 1642, "pitch": 56, "duration": 9, "velocity": 112}, {"time": 1642, "pitch": 59, "duration": 9, "velocity": 100}, {"time": 1642, "pitch": 63, "duration": 5, "velocity": 96}, {"time": 1654, "pitch": 56, "duration": 2, "velocity": 97}, {"time": 1654, "pitch": 59, "duration": 1, "velocity": 99}, {"time": 1654, "pitch": 63, "duration": 2, "velocity": 96}, {"time": 1660, "pitch": 44, "duration": 6, "velocity": 85}, {"time": 1666, "pitch": 42, "duration": 14, "velocity": 117}, {"time": 1666, "pitch": 54, "duration": 3, "velocity": 100}, {"time": 1666, "pitch": 58, "duration": 3, "velocity": 96}, {"time": 1666, "pitch": 61, "duration": 3, "velocity": 88}, {"time": 1678, "pitch": 54, "duration": 2, "velocity": 69}, {"time": 1678, "pitch": 61, "duration": 2, "velocity": 96}, {"time": 1678, "pitch": 66, "duration": 2, "velocity": 100}, {"time": 1678, "pitch": 70, "duration": 2, "velocity": 96}, {"time": 1690, "pitch": 41, "duration": 37, "velocity": 75}, {"time": 1690, "pitch": 65, "duration": 10, "velocity": 90}, {"time": 1690, "pitch": 68, "duration": 10, "velocity": 107}, {"time": 1690, "pitch": 71, "duration": 10, "velocity": 96}, {"time": 1696, "pitch": 48, "duration": 30, "velocity": 57}, {"time": 1702, "pitch": 65, "duration": 2, "velocity": 88}, {"time": 1702, "pitch": 68, "duration": 2, "velocity": 102}, {"time": 1702, "pitch": 71, "duration": 1, "velocity": 85}, {"time": 1708, "pitch": 53, "duration": 3, "velocity": 66}, {"time": 1714, "pitch": 53, "duration": 14, "velocity": 93}, {"time": 1714, "pitch": 56, "duration": 15, "velocity": 99}, {"time": 1714, "pitch": 59, "duration": 15, "velocity": 90}, {"time": 1738, "pitch": 40, "duration": 38, "velocity": 78}, {"time": 1738, "pitch": 52, "duration": 2, "velocity": 89}, {"time": 1738, "pitch": 56, "duration": 2, "velocity": 97}, {"time": 1738, "pitch": 59, "duration": 2, "velocity": 95}, {"time": 1744, "pitch": 47, "duration": 32, "velocity": 60}, {"time": 1750, "pitch": 59, "duration": 11, "velocity": 95}, {"time": 1750, "pitch": 64, "duration": 11, "velocity": 99}, {"time": 1750, "pitch": 68, "duration": 10, "velocity": 102}, {"time": 1756, "pitch": 52, "duration": 10, "velocity": 68}, {"time": 1762, "pitch": 59, "duration": 9, "velocity": 69}, {"time": 1762, "pitch": 64, "duration": 9, "velocity": 66}, {"time": 1762, "pitch": 68, "duration": 9, "velocity": 66}, {"time": 1768, "pitch": 52, "duration": 7, "velocity": 61}, {"time": 1774, "pitch": 59, "duration": 2, "velocity": 95}, {"time": 1774, "pitch": 64, "duration": 2, "velocity": 97}, {"time": 1774, "pitch": 68, "duration": 2, "velocity": 102}, {"time": 1786, "pitch": 39, "duration": 38, "velocity": 112}, {"time": 1786, "pitch": 63, "duration": 9, "velocity": 97}, {"time": 1786, "pitch": 66, "duration": 9, "velocity": 112}, {"time": 1786, "pitch": 70, "duration": 6, "velocity": 93}, {"time": 1792, "pitch": 51, "duration": 8, "velocity": 64}, {"time": 1798, "pitch": 66, "duration": 18, "velocity": 127}, {"time": 1798, "pitch": 70, "duration": 9, "velocity": 117}, {"time": 1804, "pitch": 51, "duration": 9, "velocity": 76}, {"time": 1810, "pitch": 63, "duration": 10, "velocity": 102}, {"time": 1816, "pitch": 51, "duration": 4, "velocity": 92}, {"time": 1822, "pitch": 66, "duration": 5, "velocity": 127}, {"time": 1822, "pitch": 70, "duration": 5, "velocity": 107}, {"time": 1828, "pitch": 63, "duration": 2, "velocity": 72}, {"time": 1834, "pitch": 37, "duration": 22, "velocity": 97}, {"time": 1834, "pitch": 61, "duration": 8, "velocity": 100}, {"time": 1834, "pitch": 64, "duration": 2, "velocity": 93}, {"time": 1834, "pitch": 68, "duration": 6, "velocity": 99}, {"time": 1840, "pitch": 49, "duration": 9, "velocity": 71}, {"time": 1846, "pitch": 64, "duration": 9, "velocity": 95}, {"time": 1846, "pitch": 68, "duration": 9, "velocity": 97}, {"time": 1852, "pitch": 49, "duration": 5, "velocity": 68}, {"time": 1858, "pitch": 37, "duration": 14, "velocity": 78}, {"time": 1858, "pitch": 49, "duration": 16, "velocity": 88}, {"time": 1858, "pitch": 61, "duration": 9, "velocity": 97}, {"time": 1858, "pitch": 64, "duration": 3, "velocity": 93}, {"time": 1858, "pitch": 68, "duration": 6, "velocity": 97}, {"time": 1870, "pitch": 64, "duration": 2, "velocity": 102}, {"time": 1870, "pitch": 68, "duration": 3, "velocity": 112}, {"time": 1882, "pitch": 42, "duration": 22, "velocity": 100}, {"time": 1882, "pitch": 58, "duration": 8, "velocity": 117}, {"time": 1882, "pitch": 61, "duration": 12, "velocity": 102}, {"time": 1888, "pitch": 54, "duration": 16, "velocity": 93}, {"time": 1894, "pitch": 58, "duration": 6, "velocity": 102}, {"time": 1900, "pitch": 61, "duration": 1, "velocity": 88}, {"time": 1906, "pitch": 42, "duration": 15, "velocity": 75}, {"time": 1906, "pitch": 54, "duration": 12, "velocity": 83}, {"time": 1906, "pitch": 61, "duration": 12, "velocity": 90}, {"time": 1906, "pitch": 66, "duration": 13, "velocity": 96}, {"time": 1906, "pitch": 70, "duration": 13, "velocity": 93}, {"time": 1930, "pitch": 40, "duration": 40, "velocity": 76}, {"time": 1930, "pitch": 64, "duration": 5, "velocity": 82}, {"time": 1930, "pitch": 68, "duration": 4, "velocity": 90}, {"time": 1930, "pitch": 71, "duration": 4, "velocity": 81}, {"time": 1936, "pitch": 47, "duration": 35, "velocity": 64}, {"time": 1942, "pitch": 52, "duration": 28, "velocity": 76}, {"time": 1948, "pitch": 56, "duration": 1, "velocity": 95}, {"time": 1954, "pitch": 59, "duration": 22, "velocity": 66}, {"time": 1960, "pitch": 64, "duration": 18, "velocity": 63}, {"time": 1966, "pitch": 68, "duration": 12, "velocity": 71}, {"time": 1978, "pitch": 39, "duration": 36, "velocity": 93}, {"time": 1984, "pitch": 51, "duration": 23, "velocity": 68}, {"time": 1990, "pitch": 63, "duration": 7, "velocity": 90}, {"time": 1996, "pitch": 66, "duration": 7, "velocity": 88}, {"time": 2002, "pitch": 70, "duration": 14, "velocity": 112}, {"time": 2008, "pitch": 51, "duration": 4, "velocity": 39}, {"time": 2014, "pitch": 66, "duration": 2, "velocity": 112}, {"time": 2026, "pitch": 37, "duration": 1, "velocity": 93}, {"time": 2026, "pitch": 61, "duration": 26, "velocity": 90}, {"time": 2032, "pitch": 49, "duration": 31, "velocity": 72}, {"time": 2038, "pitch": 52, "duration": 23, "velocity": 38}, {"time": 2044, "pitch": 56, "duration": 10, "velocity": 67}, {"time": 2050, "pitch": 68, "duration": 13, "velocity": 89}, {"time": 2056, "pitch": 56, "duration": 5, "velocity": 54}, {"time": 2062, "pitch": 64, "duration": 2, "velocity": 58}, {"time": 2074, "pitch": 42, "duration": 32, "velocity": 72}, {"time": 2074, "pitch": 54, "duration": 26, "velocity": 92}, {"time": 2074, "pitch": 58, "duration": 26, "velocity": 72}, {"time": 2074, "pitch": 61, "duration": 27, "velocity": 57}, {"time": 2074, "pitch": 64, "duration": 26, "velocity": 57}, {"time": 2122, "pitch": 47, "duration": 46, "velocity": 72}, {"time": 2122, "pitch": 59, "duration": 8, "velocity": 78}, {"time": 2122, "pitch": 63, "duration": 14, "velocity": 95}, {"time": 2122, "pitch": 66, "duration": 15, "velocity": 89}, {"time": 2122, "pitch": 70, "duration": 13, "velocity": 82}, {"time": 2128, "pitch": 54, "duration": 22, "velocity": 82}, {"time": 2134, "pitch": 59, "duration": 4, "velocity": 59}, {"time": 2140, "pitch": 59, "duration": 15, "velocity": 86}, {"time": 2140, "pitch": 63, "duration": 14, "velocity": 102}, {"time": 2140, "pitch": 66, "duration": 15, "velocity": 96}, {"time": 2140, "pitch": 70, "duration": 13, "velocity": 88}, {"time": 2152, "pitch": 54, "duration": 18, "velocity": 67}, {"time": 2158, "pitch": 63, "duration": 10, "velocity": 127}, {"time": 2158, "pitch": 66, "duration": 10, "velocity": 107}, {"time": 2158, "pitch": 70, "duration": 8, "velocity": 107}, {"time": 2164, "pitch": 59, "duration": 4, "velocity": 62}, {"time": 2170, "pitch": 47, "duration": 37, "velocity": 82}, {"time": 2170, "pitch": 59, "duration": 6, "velocity": 89}, {"time": 2170, "pitch": 63, "duration": 10, "velocity": 107}, {"time": 2170, "pitch": 66, "duration": 15, "velocity": 93}, {"time": 2170, "pitch": 70, "duration": 6, "velocity": 88}, {"time": 2176, "pitch": 54, "duration": 20, "velocity": 99}, {"time": 2182, "pitch": 59, "duration": 3, "velocity": 82}, {"time": 2188, "pitch": 59, "duration": 16, "velocity": 97}, {"time": 2188, "pitch": 63, "duration": 15, "velocity": 117}, {"time": 2188, "pitch": 66, "duration": 15, "velocity": 107}, {"time": 2188, "pitch": 70, "duration": 15, "velocity": 93}, {"time": 2200, "pitch": 54, "duration": 6, "velocity": 75}, {"time": 2206, "pitch": 63, "duration": 4, "velocity": 122}, {"time": 2206, "pitch": 66, "duration": 4, "velocity": 107}, {"time": 2206, "pitch": 70, "duration": 4, "velocity": 89}, {"time": 2218, "pitch": 39, "duration": 45, "velocity": 92}, {"time": 2218, "pitch": 58, "duration": 7, "velocity": 107}, {"time": 2218, "pitch": 63, "duration": 7, "velocity": 102}, {"time": 2218, "pitch": 66, "duration": 7, "velocity": 97}, {"time": 2224, "pitch": 51, "duration": 10, "velocity": 51}, {"time": 2230, "pitch": 58, "duration": 4, "velocity": 82}, {"time": 2233, "pitch": 46, "duration": 32, "velocity": 21}, {"time": 2236, "pitch": 51, "duration": 9, "velocity": 63}, {"time": 2236, "pitch": 58, "duration": 16, "velocity": 96}, {"time": 2236, "pitch": 63, "duration": 11, "velocity": 117}, {"time": 2236, "pitch": 66, "duration": 15, "velocity": 102}, {"time": 2248, "pitch": 51, "duration": 9, "velocity": 59}, {"time": 2254, "pitch": 63, "duration": 10, "velocity": 112}, {"time": 2254, "pitch": 66, "duration": 9, "velocity": 112}, {"time": 2260, "pitch": 51, "duration": 5, "velocity": 36}, {"time": 2260, "pitch": 58, "duration": 5, "velocity": 66}, {"time": 2266, "pitch": 39, "duration": 36, "velocity": 76}, {"time": 2266, "pitch": 51, "duration": 25, "velocity": 92}, {"time": 2266, "pitch": 58, "duration": 14, "velocity": 102}, {"time": 2266, "pitch": 63, "duration": 14, "velocity": 99}, {"time": 2266, "pitch": 66, "duration": 13, "velocity": 96}, {"time": 2275, "pitch": 46, "duration": 25, "velocity": 22}, {"time": 2284, "pitch": 58, "duration": 14, "velocity": 99}, {"time": 2284, "pitch": 63, "duration": 14, "velocity": 107}, {"time": 2284, "pitch": 66, "duration": 13, "velocity": 99}, {"time": 2296, "pitch": 51, "duration": 6, "velocity": 72}, {"time": 2302, "pitch": 63, "duration": 2, "velocity": 127}, {"time": 2302, "pitch": 66, "duration": 2, "velocity": 122}, {"time": 2314, "pitch": 37, "duration": 45, "velocity": 90}, {"time": 2314, "pitch": 61, "duration": 13, "velocity": 100}, {"time": 2314, "pitch": 64, "duration": 2, "velocity": 97}, {"time": 2314, "pitch": 68, "duration": 13, "velocity": 107}, {"time": 2320, "pitch": 64, "duration": 7, "velocity": 16}, {"time": 2326, "pitch": 49, "duration": 17, "velocity": 90}, {"time": 2332, "pitch": 61, "duration": 14, "velocity": 102}, {"time": 2332, "pitch": 64, "duration": 2, "velocity": 83}, {"time": 2332, "pitch": 68, "duration": 13, "velocity": 102}, {"time": 2344, "pitch": 49, "duration": 14, "velocity": 71}, {"time": 2350, "pitch": 64, "duration": 4, "velocity": 112}, {"time": 2350, "pitch": 68, "duration": 9, "velocity": 127}, {"time": 2356, "pitch": 61, "duration": 15, "velocity": 78}, {"time": 2362, "pitch": 37, "duration": 33, "velocity": 89}, {"time": 2362, "pitch": 49, "duration": 27, "velocity": 100}, {"time": 2374, "pitch": 61, "duration": 3, "velocity": 69}, {"time": 2380, "pitch": 61, "duration": 14, "velocity": 112}, {"time": 2380, "pitch": 64, "duration": 2, "velocity": 99}, {"time": 2380, "pitch": 68, "duration": 14, "velocity": 117}, {"time": 2386, "pitch": 64, "duration": 7, "velocity": 19}, {"time": 2392, "pitch": 49, "duration": 5, "velocity": 72}, {"time": 2398, "pitch": 61, "duration": 2, "velocity": 117}, {"time": 2398, "pitch": 68, "duration": 1, "velocity": 42}, {"time": 2410, "pitch": 42, "duration": 28, "velocity": 112}, {"time": 2410, "pitch": 54, "duration": 13, "velocity": 99}, {"time": 2410, "pitch": 58, "duration": 2, "velocity": 112}, {"time": 2410, "pitch": 61, "duration": 9, "velocity": 99}, {"time": 2413, "pitch": 58, "duration": 7, "velocity": 23}, {"time": 2422, "pitch": 58, "duration": 2, "velocity": 27}, {"time": 2422, "pitch": 61, "duration": 3, "velocity": 59}, {"time": 2428, "pitch": 54, "duration": 15, "velocity": 99}, {"time": 2428, "pitch": 58, "duration": 14, "velocity": 107}, {"time": 2428, "pitch": 61, "duration": 11, "velocity": 96}, {"time": 2440, "pitch": 42, "duration": 10, "velocity": 74}, {"time": 2446, "pitch": 58, "duration": 6, "velocity": 122}, {"time": 2446, "pitch": 61, "duration": 7, "velocity": 107}, {"time": 2452, "pitch": 42, "duration": 5, "velocity": 93}, {"time": 2458, "pitch": 42, "duration": 48, "velocity": 90}, {"time": 2458, "pitch": 54, "duration": 48, "velocity": 97}, {"time": 2458, "pitch": 58, "duration": 47, "velocity": 107}, {"time": 2458, "pitch": 61, "duration": 48, "velocity": 95}, {"time": 2458, "pitch": 66, "duration": 48, "velocity": 93}, {"time": 2506, "pitch": 47, "duration": 45, "velocity": 79}, {"time": 2512, "pitch": 54, "duration": 20, "velocity": 53}, {"time": 2518, "pitch": 59, "duration": 8, "velocity": 78}, {"time": 2524, "pitch": 63, "duration": 7, "velocity": 96}, {"time": 2530, "pitch": 66, "duration": 13, "velocity": 117}, {"time": 2536, "pitch": 54, "duration": 18, "velocity": 68}, {"time": 2542, "pitch": 63, "duration": 10, "velocity": 79}, {"time": 2548, "pitch": 66, "duration": 5, "velocity": 56}, {"time": 2554, "pitch": 47, "duration": 39, "velocity": 71}, {"time": 2560, "pitch": 54, "duration": 32, "velocity": 58}, {"time": 2566, "pitch": 59, "duration": 14, "velocity": 82}, {"time": 2572, "pitch": 78, "duration": 33, "velocity": 117}, {"time": 2578, "pitch": 75, "duration": 13, "velocity": 122}, {"time": 2584, "pitch": 59, "duration": 7, "velocity": 90}, {"time": 2590, "pitch": 73, "duration": 8, "velocity": 127}, {"time": 2596, "pitch": 75, "duration": 9, "velocity": 92}, {"time": 2602, "pitch": 44, "duration": 46, "velocity": 95}, {"time": 2602, "pitch": 71, "duration": 4, "velocity": 74}, {"time": 2608, "pitch": 56, "duration": 22, "velocity": 92}, {"time": 2614, "pitch": 59, "duration": 22, "velocity": 75}, {"time": 2620, "pitch": 63, "duration": 7, "velocity": 122}, {"time": 2626, "pitch": 68, "duration": 29, "velocity": 112}, {"time": 2632, "pitch": 56, "duration": 19, "velocity": 64}, {"time": 2638, "pitch": 63, "duration": 16, "velocity": 107}, {"time": 2644, "pitch": 59, "duration": 10, "velocity": 75}, {"time": 2650, "pitch": 44, "duration": 38, "velocity": 86}, {"time": 2656, "pitch": 56, "duration": 21, "velocity": 100}, {"time": 2662, "pitch": 59, "duration": 21, "velocity": 82}, {"time": 2668, "pitch": 63, "duration": 7, "velocity": 112}, {"time": 2674, "pitch": 68, "duration": 25, "velocity": 102}, {"time": 2680, "pitch": 56, "duration": 3, "velocity": 96}, {"time": 2686, "pitch": 63, "duration": 13, "velocity": 127}, {"time": 2692, "pitch": 59, "duration": 7, "velocity": 92}, {"time": 2698, "pitch": 40, "duration": 45, "velocity": 82}, {"time": 2704, "pitch": 47, "duration": 43, "velocity": 72}, {"time": 2710, "pitch": 52, "duration": 15, "velocity": 99}, {"time": 2716, "pitch": 59, "duration": 19, "velocity": 85}, {"time": 2722, "pitch": 68, "duration": 40, "velocity": 117}, {"time": 2728, "pitch": 52, "duration": 6, "velocity": 73}, {"time": 2734, "pitch": 64, "duration": 31, "velocity": 97}, {"time": 2740, "pitch": 59, "duration": 20, "velocity": 89}, {"time": 2746, "pitch": 40, "duration": 35, "velocity": 88}, {"time": 2752, "pitch": 47, "duration": 30, "velocity": 63}, {"time": 2758, "pitch": 52, "duration": 15, "velocity": 85}, {"time": 2764, "pitch": 59, "duration": 17, "velocity": 70}, {"time": 2770, "pitch": 68, "duration": 24, "velocity": 117}, {"time": 2776, "pitch": 52, "duration": 5, "velocity": 69}, {"time": 2782, "pitch": 64, "duration": 11, "velocity": 97}, {"time": 2788, "pitch": 59, "duration": 6, "velocity": 79}, {"time": 2794, "pitch": 42, "duration": 46, "velocity": 85}, {"time": 2800, "pitch": 49, "duration": 42, "velocity": 72}, {"time": 2806, "pitch": 54, "duration": 14, "velocity": 97}, {"time": 2812, "pitch": 61, "duration": 7, "velocity": 96}, {"time": 2818, "pitch": 66, "duration": 26, "velocity": 122}, {"time": 2824, "pitch": 54, "duration": 26, "velocity": 66}, {"time": 2830, "pitch": 61, "duration": 13, "velocity": 100}, {"time": 2836, "pitch": 58, "duration": 6, "velocity": 79}, {"time": 2842, "pitch": 42, "duration": 37, "velocity": 78}, {"time": 2848, "pitch": 49, "duration": 29, "velocity": 30}, {"time": 2854, "pitch": 54, "duration": 25, "velocity": 63}, {"time": 2860, "pitch": 73, "duration": 19, "velocity": 93}, {"time": 2890, "pitch": 47, "duration": 39, "velocity": 89}, {"time": 2890, "pitch": 59, "duration": 5, "velocity": 90}, {"time": 2890, "pitch": 63, "duration": 5, "velocity": 112}, {"time": 2890, "pitch": 66, "duration": 5, "velocity": 107}, {"time": 2896, "pitch": 54, "duration": 22, "velocity": 85}, {"time": 2902, "pitch": 71, "duration": 2, "velocity": 72}, {"time": 2902, "pitch": 75, "duration": 2, "velocity": 112}, {"time": 2902, "pitch": 78, "duration": 2, "velocity": 97}, {"time": 2908, "pitch": 59, "duration": 8, "velocity": 63}, {"time": 2914, "pitch": 63, "duration": 10, "velocity": 127}, {"time": 2914, "pitch": 66, "duration": 10, "velocity": 112}, {"time": 2923, "pitch": 54, "duration": 5, "velocity": 44}, {"time": 2926, "pitch": 63, "duration": 5, "velocity": 127}, {"time": 2926, "pitch": 66, "duration": 6, "velocity": 117}, {"time": 2932, "pitch": 59, "duration": 1, "velocity": 74}, {"time": 2938, "pitch": 51, "duration": 35, "velocity": 78}, {"time": 2938, "pitch": 63, "duration": 9, "velocity": 112}, {"time": 2938, "pitch": 67, "duration": 5, "velocity": 100}, {"time": 2938, "pitch": 70, "duration": 7, "velocity": 102}, {"time": 2944, "pitch": 55, "duration": 28, "velocity": 30}, {"time": 2950, "pitch": 63, "duration": 10, "velocity": 97}, {"time": 2950, "pitch": 67, "duration": 7, "velocity": 102}, {"time": 2950, "pitch": 70, "duration": 8, "velocity": 107}, {"time": 2956, "pitch": 58, "duration": 8, "velocity": 33}, {"time": 2962, "pitch": 63, "duration": 8, "velocity": 63}, {"time": 2962, "pitch": 67, "duration": 7, "velocity": 66}, {"time": 2962, "pitch": 70, "duration": 7, "velocity": 69}, {"time": 2968, "pitch": 58, "duration": 5, "velocity": 55}, {"time": 2974, "pitch": 67, "duration": 5, "velocity": 112}, {"time": 2974, "pitch": 70, "duration": 5, "velocity": 122}, {"time": 2986, "pitch": 44, "duration": 16, "velocity": 112}, {"time": 2986, "pitch": 59, "duration": 9, "velocity": 93}, {"time": 2986, "pitch": 63, "duration": 9, "velocity": 99}, {"time": 2992, "pitch": 56, "duration": 6, "velocity": 74}, {"time": 2998, "pitch": 63, "duration": 5, "velocity": 127}, {"time": 3004, "pitch": 59, "duration": 3, "velocity": 89}, {"time": 3010, "pitch": 42, "duration": 15, "velocity": 100}, {"time": 3010, "pitch": 58, "duration": 9, "velocity": 112}, {"time": 3010, "pitch": 61, "duration": 8, "velocity": 117}, {"time": 3016, "pitch": 54, "duration": 4, "velocity": 90}, {"time": 3022, "pitch": 58, "duration": 4, "velocity": 112}, {"time": 3022, "pitch": 61, "duration": 4, "velocity": 112}, {"time": 3034, "pitch": 41, "duration": 37, "velocity": 76}, {"time": 3034, "pitch": 53, "duration": 13, "velocity": 96}, {"time": 3034, "pitch": 56, "duration": 10, "velocity": 117}, {"time": 3034, "pitch": 59, "duration": 10, "velocity": 99}, {"time": 3040, "pitch": 48, "duration": 9, "velocity": 62}, {"time": 3046, "pitch": 56, "duration": 11, "velocity": 89}, {"time": 3046, "pitch": 59, "duration": 11, "velocity": 79}, {"time": 3052, "pitch": 48, "duration": 19, "velocity": 56}, {"time": 3058, "pitch": 53, "duration": 14, "velocity": 73}, {"time": 3058, "pitch": 56, "duration": 15, "velocity": 72}, {"time": 3058, "pitch": 59, "duration": 15, "velocity": 69}, {"time": 3082, "pitch": 40, "duration": 37, "velocity": 82}, {"time": 3082, "pitch": 52, "duration": 2, "velocity": 86}, {"time": 3082, "pitch": 56, "duration": 2, "velocity": 93}, {"time": 3082, "pitch": 59, "duration": 2, "velocity": 92}, {"time": 3091, "pitch": 47, "duration": 29, "velocity": 23}, {"time": 3094, "pitch": 59, "duration": 10, "velocity": 93}, {"time": 3094, "pitch": 64, "duration": 8, "velocity": 97}, {"time": 3094, "pitch": 68, "duration": 7, "velocity": 96}, {"time": 3100, "pitch": 52, "duration": 10, "velocity": 72}, {"time": 3106, "pitch": 59, "duration": 9, "velocity": 54}, {"time": 3106, "pitch": 64, "duration": 9, "velocity": 66}, {"time": 3106, "pitch": 68, "duration": 9, "velocity": 59}, {"time": 3112, "pitch": 52, "duration": 6, "velocity": 59}, {"time": 3118, "pitch": 59, "duration": 3, "velocity": 92}, {"time": 3118, "pitch": 64, "duration": 2, "velocity": 95}, {"time": 3118, "pitch": 68, "duration": 2, "velocity": 97}, {"time": 3130, "pitch": 39, "duration": 38, "velocity": 92}, {"time": 3130, "pitch": 58, "duration": 9, "velocity": 89}, {"time": 3130, "pitch": 63, "duration": 6, "velocity": 88}, {"time": 3130, "pitch": 66, "duration": 6, "velocity": 92}, {"time": 3136, "pitch": 51, "duration": 22, "velocity": 85}, {"time": 3142, "pitch": 58, "duration": 10, "velocity": 93}, {"time": 3142, "pitch": 63, "duration": 10, "velocity": 97}, {"time": 3142, "pitch": 66, "duration": 7, "velocity": 96}, {"time": 3148, "pitch": 46, "duration": 19, "velocity": 33}, {"time": 3154, "pitch": 58, "duration": 8, "velocity": 73}, {"time": 3154, "pitch": 63, "duration": 10, "velocity": 99}, {"time": 3154, "pitch": 66, "duration": 8, "velocity": 95}, {"time": 3160, "pitch": 51, "duration": 6, "velocity": 70}, {"time": 3166, "pitch": 63, "duration": 5, "velocity": 112}, {"time": 3166, "pitch": 66, "duration": 5, "velocity": 102}, {"time": 3172, "pitch": 58, "duration": 1, "velocity": 93}, {"time": 3178, "pitch": 37, "duration": 20, "velocity": 96}, {"time": 3178, "pitch": 61, "duration": 9, "velocity": 99}, {"time": 3178, "pitch": 64, "duration": 6, "velocity": 90}, {"time": 3178, "pitch": 68, "duration": 7, "velocity": 93}, {"time": 3184, "pitch": 49, "duration": 9, "velocity": 70}, {"time": 3190, "pitch": 61, "duration": 9, "velocity": 96}, {"time": 3190, "pitch": 64, "duration": 7, "velocity": 88}, {"time": 3190, "pitch": 68, "duration": 7, "velocity": 89}, {"time": 3196, "pitch": 49, "duration": 3, "velocity": 55}, {"time": 3202, "pitch": 37, "duration": 14, "velocity": 79}, {"time": 3202, "pitch": 49, "duration": 14, "velocity": 90}, {"time": 3202, "pitch": 61, "duration": 9, "velocity": 99}, {"time": 3202, "pitch": 64, "duration": 3, "velocity": 95}, {"time": 3202, "pitch": 68, "duration": 7, "velocity": 99}, {"time": 3208, "pitch": 64, "duration": 1, "velocity": 1}, {"time": 3214, "pitch": 64, "duration": 5, "velocity": 107}, {"time": 3214, "pitch": 68, "duration": 6, "velocity": 117}, {"time": 3220, "pitch": 61, "duration": 1, "velocity": 65}, {"time": 3226, "pitch": 42, "duration": 15, "velocity": 112}, {"time": 3226, "pitch": 58, "duration": 10, "velocity": 127}, {"time": 3226, "pitch": 61, "duration": 7, "velocity": 122}, {"time": 3232, "pitch": 54, "duration": 8, "velocity": 67}, {"time": 3238, "pitch": 58, "duration": 4, "velocity": 102}, {"time": 3238, "pitch": 61, "duration": 4, "velocity": 95}, {"time": 3244, "pitch": 42, "duration": 4, "velocity": 88}, {"time": 3244, "pitch": 54, "duration": 3, "velocity": 92}, {"time": 3244, "pitch": 58, "duration": 3, "velocity": 82}, {"time": 3244, "pitch": 61, "duration": 3, "velocity": 77}, {"time": 3250, "pitch": 42, "duration": 11, "velocity": 117}, {"time": 3250, "pitch": 54, "duration": 9, "velocity": 117}, {"time": 3250, "pitch": 58, "duration": 7, "velocity": 127}, {"time": 3250, "pitch": 61, "duration": 9, "velocity": 117}, {"time": 3262, "pitch": 49, "duration": 1, "velocity": 93}, {"time": 3262, "pitch": 58, "duration": 1, "velocity": 127}, {"time": 3262, "pitch": 61, "duration": 2, "velocity": 107}, {"time": 3274, "pitch": 47, "duration": 35, "velocity": 86}, {"time": 3274, "pitch": 59, "duration": 9, "velocity": 92}, {"time": 3274, "pitch": 63, "duration": 9, "velocity": 112}, {"time": 3274, "pitch": 66, "duration": 8, "velocity": 99}, {"time": 3280, "pitch": 54, "duration": 10, "velocity": 56}, {"time": 3286, "pitch": 59, "duration": 9, "velocity": 88}, {"time": 3286, "pitch": 63, "duration": 9, "velocity": 97}, {"time": 3286, "pitch": 66, "duration": 9, "velocity": 92}, {"time": 3292, "pitch": 54, "duration": 9, "velocity": 42}, {"time": 3298, "pitch": 59, "duration": 9, "velocity": 73}, {"time": 3298, "pitch": 63, "duration": 9, "velocity": 69}, {"time": 3298, "pitch": 66, "duration": 9, "velocity": 73}, {"time": 3304, "pitch": 54, "duration": 5, "velocity": 97}, {"time": 3310, "pitch": 63, "duration": 5, "velocity": 127}, {"time": 3310, "pitch": 66, "duration": 6, "velocity": 117}, {"time": 3316, "pitch": 59, "duration": 1, "velocity": 90}, {"time": 3322, "pitch": 39, "duration": 24, "velocity": 96}, {"time": 3322, "pitch": 51, "duration": 2, "velocity": 58}, {"time": 3322, "pitch": 63, "duration": 9, "velocity": 100}, {"time": 3322, "pitch": 67, "duration": 7, "velocity": 92}, {"time": 3322, "pitch": 70, "duration": 6, "velocity": 93}, {"time": 3334, "pitch": 63, "duration": 10, "velocity": 97}, {"time": 3334, "pitch": 67, "duration": 6, "velocity": 99}, {"time": 3334, "pitch": 70, "duration": 6, "velocity": 95}, {"time": 3340, "pitch": 51, "duration": 7, "velocity": 55}, {"time": 3346, "pitch": 63, "duration": 5, "velocity": 95}, {"time": 3346, "pitch": 67, "duration": 8, "velocity": 99}, {"time": 3346, "pitch": 70, "duration": 8, "velocity": 97}, {"time": 3358, "pitch": 51, "duration": 1, "velocity": 59}, {"time": 3358, "pitch": 58, "duration": 2, "velocity": 100}, {"time": 3358, "pitch": 63, "duration": 3, "velocity": 102}, {"time": 3358, "pitch": 67, "duration": 1, "velocity": 107}, {"time": 3358, "pitch": 70, "duration": 2, "velocity": 107}, {"time": 3370, "pitch": 44, "duration": 15, "velocity": 117}, {"time": 3370, "pitch": 56, "duration": 9, "velocity": 112}, {"time": 3370, "pitch": 59, "duration": 9, "velocity": 100}, {"time": 3370, "pitch": 63, "duration": 5, "velocity": 96}, {"time": 3382, "pitch": 56, "duration": 2, "velocity": 97}, {"time": 3382, "pitch": 59, "duration": 1, "velocity": 99}, {"time": 3382, "pitch": 63, "duration": 2, "velocity": 96}, {"time": 3388, "pitch": 44, "duration": 6, "velocity": 85}, {"time": 3394, "pitch": 42, "duration": 14, "velocity": 117}, {"time": 3394, "pitch": 54, "duration": 3, "velocity": 100}, {"time": 3394, "pitch": 58, "duration": 3, "velocity": 96}, {"time": 3394, "pitch": 61, "duration": 3, "velocity": 88}, {"time": 3406, "pitch": 54, "duration": 2, "velocity": 69}, {"time": 3406, "pitch": 61, "duration": 2, "velocity": 96}, {"time": 3406, "pitch": 66, "duration": 2, "velocity": 100}, {"time": 3406, "pitch": 70, "duration": 2, "velocity": 96}, {"time": 3418, "pitch": 41, "duration": 37, "velocity": 75}, {"time": 3418, "pitch": 65, "duration": 10, "velocity": 90}, {"time": 3418, "pitch": 68, "duration": 10, "velocity": 107}, {"time": 3418, "pitch": 71, "duration": 10, "velocity": 96}, {"time": 3424, "pitch": 48, "duration": 30, "velocity": 57}, {"time": 3430, "pitch": 65, "duration": 2, "velocity": 88}, {"time": 3430, "pitch": 68, "duration": 2, "velocity": 102}, {"time": 3430, "pitch": 71, "duration": 1, "velocity": 85}, {"time": 3436, "pitch": 53, "duration": 3, "velocity": 66}, {"time": 3442, "pitch": 53, "duration": 14, "velocity": 93}, {"time": 3442, "pitch": 56, "duration": 15, "velocity": 99}, {"time": 3442, "pitch": 59, "duration": 15, "velocity": 90}, {"time": 3466, "pitch": 40, "duration": 38, "velocity": 78}, {"time": 3466, "pitch": 52, "duration": 2, "velocity": 89}, {"time": 3466, "pitch": 56, "duration": 2, "velocity": 97}, {"time": 3466, "pitch": 59, "duration": 2, "velocity": 95}, {"time": 3472, "pitch": 47, "duration": 32, "velocity": 60}, {"time": 3478, "pitch": 59, "duration": 11, "velocity": 95}, {"time": 3478, "pitch": 64, "duration": 11, "velocity": 99}, {"time": 3478, "pitch": 68, "duration": 10, "velocity": 102}, {"time": 3484, "pitch": 52, "duration": 10, "velocity": 68}, {"time": 3490, "pitch": 59, "duration": 9, "velocity": 69}, {"time": 3490, "pitch": 64, "duration": 9, "velocity": 66}, {"time": 3490, "pitch": 68, "duration": 9, "velocity": 66}, {"time": 3496, "pitch": 52, "duration": 7, "velocity": 61}, {"time": 3502, "pitch": 59, "duration": 2, "velocity": 95}, {"time": 3502, "pitch": 64, "duration": 2, "velocity": 97}, {"time": 3502, "pitch": 68, "duration": 2, "velocity": 102}, {"time": 3514, "pitch": 39, "duration": 38, "velocity": 112}, {"time": 3514, "pitch": 63, "duration": 9, "velocity": 97}, {"time": 3514, "pitch": 66, "duration": 9, "velocity": 112}, {"time": 3514, "pitch": 70, "duration": 6, "velocity": 93}, {"time": 3520, "pitch": 51, "duration": 8, "velocity": 64}, {"time": 3526, "pitch": 66, "duration": 18, "velocity": 127}, {"time": 3526, "pitch": 70, "duration": 9, "velocity": 117}, {"time": 3532, "pitch": 51, "duration": 9, "velocity": 76}, {"time": 3538, "pitch": 63, "duration": 10, "velocity": 102}, {"time": 3544, "pitch": 51, "duration": 4, "velocity": 92}, {"time": 3550, "pitch": 66, "duration": 5, "velocity": 127}, {"time": 3550, "pitch": 70, "duration": 5, "velocity": 107}, {"time": 3556, "pitch": 63, "duration": 2, "velocity": 72}, {"time": 3562, "pitch": 37, "duration": 22, "velocity": 97}, {"time": 3562, "pitch": 61, "duration": 8, "velocity": 100}, {"time": 3562, "pitch": 64, "duration": 2, "velocity": 93}, {"time": 3562, "pitch": 68, "duration": 6, "velocity": 99}, {"time": 3568, "pitch": 49, "duration": 9, "velocity": 71}, {"time": 3574, "pitch": 64, "duration": 9, "velocity": 95}, {"time": 3574, "pitch": 68, "duration": 9, "velocity": 97}, {"time": 3580, "pitch": 49, "duration": 5, "velocity": 68}, {"time": 3586, "pitch": 37, "duration": 14, "velocity": 78}, {"time": 3586, "pitch": 49, "duration": 16, "velocity": 88}, {"time": 3586, "pitch": 61, "duration": 9, "velocity": 97}, {"time": 3586, "pitch": 64, "duration": 3, "velocity": 93}, {"time": 3586, "pitch": 68, "duration": 6, "velocity": 97}, {"time": 3598, "pitch": 64, "duration": 2, "velocity": 102}, {"time": 3598, "pitch": 68, "duration": 3, "velocity": 112}, {"time": 3610, "pitch": 42, "duration": 22, "velocity": 100}, {"time": 3610, "pitch": 58, "duration": 8, "velocity": 117}, {"time": 3610, "pitch": 61, "duration": 12, "velocity": 102}, {"time": 3616, "pitch": 54, "duration": 16, "velocity": 93}, {"time": 3622, "pitch": 58, "duration": 6, "velocity": 102}, {"time": 3628, "pitch": 61, "duration": 1, "velocity": 88}, {"time": 3634, "pitch": 42, "duration": 15, "velocity": 75}, {"time": 3634, "pitch": 54, "duration": 12, "velocity": 83}, {"time": 3634, "pitch": 61, "duration": 12, "velocity": 90}, {"time": 3634, "pitch": 66, "duration": 13, "velocity": 96}, {"time": 3634, "pitch": 70, "duration": 13, "velocity": 93}, {"time": 3658, "pitch": 40, "duration": 40, "velocity": 76}, {"time": 3658, "pitch": 64, "duration": 5, "velocity": 82}, {"time": 3658, "pitch": 68, "duration": 4, "velocity": 90}, {"time": 3658, "pitch": 71, "duration": 4, "velocity": 81}, {"time": 3664, "pitch": 47, "duration": 35, "velocity": 64}, {"time": 3670, "pitch": 52, "duration": 28, "velocity": 76}, {"time": 3676, "pitch": 56, "duration": 1, "velocity": 95}, {"time": 3682, "pitch": 59, "duration": 22, "velocity": 66}, {"time": 3688, "pitch": 64, "duration": 18, "velocity": 63}, {"time": 3694, "pitch": 68, "duration": 12, "velocity": 71}, {"time": 3706, "pitch": 39, "duration": 36, "velocity": 93}, {"time": 3712, "pitch": 51, "duration": 23, "velocity": 68}, {"time": 3718, "pitch": 63, "duration": 7, "velocity": 90}, {"time": 3724, "pitch": 66, "duration": 7, "velocity": 88}, {"time": 3730, "pitch": 70, "duration": 14, "velocity": 112}, {"time": 3736, "pitch": 51, "duration": 4, "velocity": 39}, {"time": 3742, "pitch": 66, "duration": 2, "velocity": 112}, {"time": 3754, "pitch": 37, "duration": 1, "velocity": 93}, {"time": 3754, "pitch": 61, "duration": 26, "velocity": 90}, {"time": 3760, "pitch": 49, "duration": 31, "velocity": 72}, {"time": 3766, "pitch": 52, "duration": 23, "velocity": 38}, {"time": 3772, "pitch": 56, "duration": 10, "velocity": 67}, {"time": 3778, "pitch": 68, "duration": 13, "velocity": 89}, {"time": 3784, "pitch": 56, "duration": 5, "velocity": 54}, {"time": 3790, "pitch": 64, "duration": 2, "velocity": 58}, {"time": 3802, "pitch": 42, "duration": 26, "velocity": 90}, {"time": 3802, "pitch": 54, "duration": 32, "velocity": 73}, {"time": 3802, "pitch": 61, "duration": 27, "velocity": 82}, {"time": 3802, "pitch": 66, "duration": 26, "velocity": 97}, {"time": 3802, "pitch": 70, "duration": 26, "velocity": 107}, {"time": 3850, "pitch": 51, "duration": 40, "velocity": 89}, {"time": 3850, "pitch": 59, "duration": 8, "velocity": 86}, {"time": 3850, "pitch": 63, "duration": 14, "velocity": 117}, {"time": 3850, "pitch": 66, "duration": 15, "velocity": 99}, {"time": 3850, "pitch": 70, "duration": 14, "velocity": 74}, {"time": 3862, "pitch": 59, "duration": 8, "velocity": 52}, {"time": 3868, "pitch": 63, "duration": 25, "velocity": 95}, {"time": 3868, "pitch": 66, "duration": 26, "velocity": 97}, {"time": 3868, "pitch": 70, "duration": 25, "velocity": 99}, {"time": 3871, "pitch": 59, "duration": 3, "velocity": 36}, {"time": 3892, "pitch": 59, "duration": 7, "velocity": 45}, {"time": 3898, "pitch": 51, "duration": 35, "velocity": 92}, {"time": 3898, "pitch": 63, "duration": 14, "velocity": 89}, {"time": 3898, "pitch": 66, "duration": 14, "velocity": 93}, {"time": 3898, "pitch": 70, "duration": 13, "velocity": 92}, {"time": 3907, "pitch": 59, "duration": 9, "velocity": 50}, {"time": 3916, "pitch": 63, "duration": 20, "velocity": 92}, {"time": 3916, "pitch": 66, "duration": 20, "velocity": 96}, {"time": 3916, "pitch": 70, "duration": 18, "velocity": 90}, {"time": 3934, "pitch": 59, "duration": 1, "velocity": 90}, {"time": 3946, "pitch": 49, "duration": 39, "velocity": 112}, {"time": 3946, "pitch": 61, "duration": 17, "velocity": 102}, {"time": 3946, "pitch": 64, "duration": 15, "velocity": 93}, {"time": 3946, "pitch": 68, "duration": 15, "velocity": 99}, {"time": 3958, "pitch": 56, "duration": 25, "velocity": 57}, {"time": 3964, "pitch": 61, "duration": 22, "velocity": 61}, {"time": 3964, "pitch": 64, "duration": 20, "velocity": 79}, {"time": 3964, "pitch": 68, "duration": 18, "velocity": 95}, {"time": 3994, "pitch": 70, "duration": 35, "velocity": 83}, {"time": 3994, "pitch": 58, "duration": 35, "velocity": 92}, {"time": 3994, "pitch": 61, "duration": 35, "velocity": 112}, {"time": 3994, "pitch": 66, "duration": 35, "velocity": 83}, {"time": 3994, "pitch": 49, "duration": 35, "velocity": 81}, {"time": 3994, "pitch": 42, "duration": 35, "velocity": 50}, {"time": 3994, "pitch": 54, "duration": 35, "velocity": 86}, {"time": 4060, "pitch": 47, "duration": 138, "velocity": 84}, {"time": 4064, "pitch": 54, "duration": 132, "velocity": 88}, {"time": 4066, "pitch": 59, "duration": 132, "velocity": 94}, {"time": 4067, "pitch": 63, "duration": 131, "velocity": 96}, {"time": 4069, "pitch": 66, "duration": 129, "velocity": 108}, {"time": 4071, "pitch": 70, "duration": 128, "velocity": 116}], "annotations": [{"time": 47, "annotation": {"number": 64, "value": 127}, "group": "control_change"}, {"time": 55, "annotation": {"number": 64, "value": 0}, "group": "control_change"}, {"time": 71, "annotation": {"number": 64, "value": 127}, "group": "control_change"}, {"time": 103, "annotation": {"number": 64, "value": 0}, "group": "control_change"}, {"time": 130, "annotation": {"number": 64, "value": 127}, "group": "control_change"}, {"time": 151, "annotation": {"number": 64, "value": 0}, "group": "control_change"}, {"time": 160, "annotation": {"number": 64, "value": 127}, "group": "control_change"}, {"time": 160, "annotation": {"number": 64, "value": 0}, "group": "control_change"}, {"time": 201, "annotation": {"number": 64, "value": 0}, "group": "control_change"}, {"time": 255, "annotation": {"number": 64, "value": 127}, "group": "control_change"}, {"time": 297, "annotation": {"number": 64, "value": 0}, "group": "control_change"}, {"time": 393, "annotation": {"number": 64, "value": 127}, "group": "control_change"}, {"time": 439, "annotation": {"number": 64, "value": 0}, "group": "control_change"}, {"time": 443, "annotation": {"number": 64, "value": 127}, "group": "control_change"}, {"time": 487, "annotation": {"number": 64, "value": 0}, "group": "control_change"}, {"time": 491, "annotation": {"number": 64, "value": 127}, "group": "control_change"}, {"time": 536, "annotation": {"number": 64, "value": 0}, "group": "control_change"}, {"time": 539, "annotation": {"number": 64, "value": 127}, "group": "control_change"}, {"time": 585, "annotation": {"number": 64, "value": 0}, "group": "control_change"}, {"time": 592, "annotation": {"number": 64, "value": 127}, "group": "control_change"}, {"time": 630, "annotation": {"number": 64, "value": 0}, "group": "control_change"}, {"time": 635, "annotation": {"number": 64, "value": 127}, "group": "control_change"}, {"time": 679, "annotation": {"number": 64, "value": 0}, "group": "control_change"}, {"time": 683, "annotation": {"number": 64, "value": 127}, "group": "control_change"}, {"time": 726, "annotation": {"number": 64, "value": 0}, "group": "control_change"}, {"time": 733, "annotation": {"number": 64, "value": 127}, "group": "control_change"}, {"time": 776, "annotation": {"number": 64, "value": 0}, "group": "control_change"}, {"time": 782, "annotation": {"number": 64, "value": 127}, "group": "control_change"}, {"time": 871, "annotation": {"number": 64, "value": 0}, "group": "control_change"}, {"time": 874, "annotation": {"number": 64, "value": 127}, "group": "control_change"}, {"time": 968, "annotation": {"number": 64, "value": 0}, "group": "control_change"}, {"time": 972, "annotation": {"number": 64, "value": 127}, "group": "control_change"}, {"time": 1015, "annotation": {"number": 64, "value": 0}, "group": "control_change"}, {"time": 1019, "annotation": {"number": 64, "value": 127}, "group": "control_change"}, {"time": 1063, "annotation": {"number": 64, "value": 0}, "group": "control_change"}, {"time": 1067, "annotation": {"number": 64, "value": 127}, "group": "control_change"}, {"time": 1111, "annotation": {"number": 64, "value": 0}, "group": "control_change"}, {"time": 1114, "annotation": {"number": 64, "value": 127}, "group": "control_change"}, {"time": 1160, "annotation": {"number": 64, "value": 0}, "group": "control_change"}, {"time": 1163, "annotation": {"number": 64, "value": 127}, "group": "control_change"}, {"time": 1209, "annotation": {"number": 64, "value": 0}, "group": "control_change"}, {"time": 1211, "annotation": {"number": 64, "value": 127}, "group": "control_change"}, {"time": 1258, "annotation": {"number": 64, "value": 0}, "group": "control_change"}, {"time": 1260, "annotation": {"number": 64, "value": 127}, "group": "control_change"}, {"time": 1280, "annotation": {"number": 64, "value": 0}, "group": "control_change"}, {"time": 1283, "annotation": {"number": 64, "value": 127}, "group": "control_change"}, {"time": 1304, "annotation": {"number": 64, "value": 0}, "group": "control_change"}, {"time": 1307, "annotation": {"number": 64, "value": 127}, "group": "control_change"}, {"time": 1351, "annotation": {"number": 64, "value": 0}, "group": "control_change"}, {"time": 1354, "annotation": {"number": 64, "value": 127}, "group": "control_change"}, {"time": 1400, "annotation": {"number": 64, "value": 0}, "group": "control_change"}, {"time": 1402, "annotation": {"number": 64, "value": 127}, "group": "control_change"}, {"time": 1448, "annotation": {"number": 64, "value": 0}, "group": "control_change"}, {"time": 1450, "annotation": {"number": 64, "value": 127}, "group": "control_change"}, {"time": 1496, "annotation": {"number": 64, "value": 0}, "group": "control_change"}, {"time": 1499, "annotation": {"number": 64, "value": 127}, "group": "control_change"}, {"time": 1544, "annotation": {"number": 64, "value": 0}, "group": "control_change"}, {"time": 1547, "annotation": {"number": 64, "value": 127}, "group": "control_change"}, {"time": 1615, "annotation": {"number": 64, "value": 0}, "group": "control_change"}, {"time": 1618, "annotation": {"number": 64, "value": 127}, "group": "control_change"}, {"time": 1629, "annotation": {"number": 64, "value": 0}, "group": "control_change"}, {"time": 1631, "annotation": {"number": 64, "value": 127}, "group": "control_change"}, {"time": 1639, "annotation": {"number": 64, "value": 0}, "group": "control_change"}, {"time": 1642, "annotation": {"number": 64, "value": 127}, "group": "control_change"}, {"time": 1664, "annotation": {"number": 64, "value": 0}, "group": "control_change"}, {"time": 1666, "annotation": {"number": 64, "value": 127}, "group": "control_change"}, {"time": 1688, "annotation": {"number": 64, "value": 0}, "group": "control_change"}, {"time": 1691, "annotation": {"number": 64, "value": 127}, "group": "control_change"}, {"time": 1735, "annotation": {"number": 64, "value": 0}, "group": "control_change"}, {"time": 1738, "annotation": {"number": 64, "value": 127}, "group": "control_change"}, {"time": 1783, "annotation": {"number": 64, "value": 0}, "group": "control_change"}, {"time": 1785, "annotation": {"number": 64, "value": 127}, "group": "control_change"}, {"time": 1832, "annotation": {"number": 64, "value": 0}, "group": "control_change"}, {"time": 1834, "annotation": {"number": 64, "value": 127}, "group": "control_change"}, {"time": 1879, "annotation": {"number": 64, "value": 0}, "group": "control_change"}, {"time": 1882, "annotation": {"number": 64, "value": 0}, "group": "control_change"}, {"time": 1882, "annotation": {"number": 64, "value": 127}, "group": "control_change"}, {"time": 1927, "annotation": {"number": 64, "value": 0}, "group": "control_change"}, {"time": 1930, "annotation": {"number": 64, "value": 127}, "group": "control_change"}, {"time": 1976, "annotation": {"number": 64, "value": 0}, "group": "control_change"}, {"time": 1980, "annotation": {"number": 64, "value": 127}, "group": "control_change"}, {"time": 2023, "annotation": {"number": 64, "value": 0}, "group": "control_change"}, {"time": 2025, "annotation": {"number": 64, "value": 127}, "group": "control_change"}, {"time": 2072, "annotation": {"number": 64, "value": 0}, "group": "control_change"}, {"time": 2074, "annotation": {"number": 64, "value": 127}, "group": "control_change"}, {"time": 2120, "annotation": {"number": 64, "value": 0}, "group": "control_change"}, {"time": 2122, "annotation": {"number": 64, "value": 127}, "group": "control_change"}, {"time": 2169, "annotation": {"number": 64, "value": 0}, "group": "control_change"}, {"time": 2170, "annotation": {"number": 64, "value": 127}, "group": "control_change"}, {"time": 2192, "annotation": {"number": 64, "value": 0}, "group": "control_change"}, {"time": 2194, "annotation": {"number": 64, "value": 127}, "group": "control_change"}, {"time": 2216, "annotation": {"number": 64, "value": 0}, "group": "control_change"}, {"time": 2219, "annotation": {"number": 64, "value": 127}, "group": "control_change"}, {"time": 2311, "annotation": {"number": 64, "value": 0}, "group": "control_change"}, {"time": 2314, "annotation": {"number": 64, "value": 127}, "group": "control_change"}, {"time": 2407, "annotation": {"number": 64, "value": 0}, "group": "control_change"}, {"time": 2410, "annotation": {"number": 64, "value": 127}, "group": "control_change"}, {"time": 2455, "annotation": {"number": 64, "value": 0}, "group": "control_change"}, {"time": 2510, "annotation": {"number": 64, "value": 127}, "group": "control_change"}, {"time": 2599, "annotation": {"number": 64, "value": 0}, "group": "control_change"}, {"time": 2602, "annotation": {"number": 64, "value": 127}, "group": "control_change"}, {"time": 2696, "annotation": {"number": 64, "value": 0}, "group": "control_change"}, {"time": 2700, "annotation": {"number": 64, "value": 127}, "group": "control_change"}, {"time": 2743, "annotation": {"number": 64, "value": 0}, "group": "control_change"}, {"time": 2747, "annotation": {"number": 64, "value": 127}, "group": "control_change"}, {"time": 2791, "annotation": {"number": 64, "value": 0}, "group": "control_change"}, {"time": 2795, "annotation": {"number": 64, "value": 127}, "group": "control_change"}, {"time": 2839, "annotation": {"number": 64, "value": 0}, "group": "control_change"}, {"time": 2842, "annotation": {"number": 64, "value": 127}, "group": "control_change"}, {"time": 2888, "annotation": {"number": 64, "value": 0}, "group": "control_change"}, {"time": 2891, "annotation": {"number": 64, "value": 127}, "group": "control_change"}, {"time": 2937, "annotation": {"number": 64, "value": 0}, "group": "control_change"}, {"time": 2939, "annotation": {"number": 64, "value": 127}, "group": "control_change"}, {"time": 2986, "annotation": {"number": 64, "value": 0}, "group": "control_change"}, {"time": 2988, "annotation": {"number": 64, "value": 127}, "group": "control_change"}, {"time": 3008, "annotation": {"number": 64, "value": 0}, "group": "control_change"}, {"time": 3011, "annotation": {"number": 64, "value": 127}, "group": "control_change"}, {"time": 3032, "annotation": {"number": 64, "value": 0}, "group": "control_change"}, {"time": 3035, "annotation": {"number": 64, "value": 127}, "group": "control_change"}, {"time": 3079, "annotation": {"number": 64, "value": 0}, "group": "control_change"}, {"time": 3082, "annotation": {"number": 64, "value": 127}, "group": "control_change"}, {"time": 3128, "annotation": {"number": 64, "value": 0}, "group": "control_change"}, {"time": 3130, "annotation": {"number": 64, "value": 127}, "group": "control_change"}, {"time": 3176, "annotation": {"number": 64, "value": 0}, "group": "control_change"}, {"time": 3178, "annotation": {"number": 64, "value": 127}, "group": "control_change"}, {"time": 3224, "annotation": {"number": 64, "value": 0}, "group": "control_change"}, {"time": 3227, "annotation": {"number": 64, "value": 127}, "group": "control_change"}, {"time": 3272, "annotation": {"number": 64, "value": 0}, "group": "control_change"}, {"time": 3275, "annotation": {"number": 64, "value": 127}, "group": "control_change"}, {"time": 3343, "annotation": {"number": 64, "value": 0}, "group": "control_change"}, {"time": 3346, "annotation": {"number": 64, "value": 127}, "group": "control_change"}, {"time": 3357, "annotation": {"number": 64, "value": 0}, "group": "control_change"}, {"time": 3359, "annotation": {"number": 64, "value": 127}, "group": "control_change"}, {"time": 3367, "annotation": {"number": 64, "value": 0}, "group": "control_change"}, {"time": 3370, "annotation": {"number": 64, "value": 127}, "group": "control_change"}, {"time": 3392, "annotation": {"number": 64, "value": 0}, "group": "control_change"}, {"time": 3394, "annotation": {"number": 64, "value": 127}, "group": "control_change"}, {"time": 3416, "annotation": {"number": 64, "value": 0}, "group": "control_change"}, {"time": 3419, "annotation": {"number": 64, "value": 127}, "group": "control_change"}, {"time": 3463, "annotation": {"number": 64, "value": 0}, "group": "control_change"}, {"time": 3466, "annotation": {"number": 64, "value": 127}, "group": "control_change"}, {"time": 3511, "annotation": {"number": 64, "value": 0}, "group": "control_change"}, {"time": 3513, "annotation": {"number": 64, "value": 127}, "group": "control_change"}, {"time": 3560, "annotation": {"number": 64, "value": 0}, "group": "control_change"}, {"time": 3562, "annotation": {"number": 64, "value": 127}, "group": "control_change"}, {"time": 3607, "annotation": {"number": 64, "value": 0}, "group": "control_change"}, {"time": 3610, "annotation": {"number": 64, "value": 0}, "group": "control_change"}, {"time": 3610, "annotation": {"number": 64, "value": 127}, "group": "control_change"}, {"time": 3655, "annotation": {"number": 64, "value": 0}, "group": "control_change"}, {"time": 3658, "annotation": {"number": 64, "value": 127}, "group": "control_change"}, {"time": 3704, "annotation": {"number": 64, "value": 0}, "group": "control_change"}, {"time": 3708, "annotation": {"number": 64, "value": 127}, "group": "control_change"}, {"time": 3751, "annotation": {"number": 64, "value": 0}, "group": "control_change"}, {"time": 3753, "annotation": {"number": 64, "value": 127}, "group": "control_change"}, {"time": 3800, "annotation": {"number": 64, "value": 0}, "group": "control_change"}, {"time": 3802, "annotation": {"number": 64, "value": 127}, "group": "control_change"}, {"time": 3848, "annotation": {"number": 64, "value": 0}, "group": "control_change"}, {"time": 3851, "annotation": {"number": 64, "value": 127}, "group": "control_change"}, {"time": 3895, "annotation": {"number": 64, "value": 0}, "group": "control_change"}, {"time": 3898, "annotation": {"number": 64, "value": 127}, "group": "control_change"}, {"time": 3943, "annotation": {"number": 64, "value": 0}, "group": "control_change"}, {"time": 3946, "annotation": {"number": 64, "value": 127}, "group": "control_change"}, {"time": 3992, "annotation": {"number": 64, "value": 0}, "group": "control_change"}, {"time": 3998, "annotation": {"number": 64, "value": 127}, "group": "control_change"}, {"time": 4195, "annotation": {"number": 64, "value": 0}, "group": "control_change"}]}]}