{"metadata": {"schema_version": "0.2", "title": "None", "source_filename": "094.mid", "source_format": "midi"}, "resolution": 12, "tempos": [{"time": 0, "qpm": 61.99999586666694}, {"time": 96, "qpm": 62.99999685000016}, {"time": 264, "qpm": 61.99999586666694}, {"time": 372, "qpm": 62.99999685000016}, {"time": 396, "qpm": 55.99997760000896}, {"time": 408, "qpm": 68.0000725334107}, {"time": 420, "qpm": 55.99997760000896}, {"time": 432, "qpm": 62.99999685000016}, {"time": 480, "qpm": 61.99999586666694}, {"time": 600, "qpm": 62.99999685000016}, {"time": 624, "qpm": 61.99999586666694}, {"time": 816, "qpm": 62.99999685000016}, {"time": 936, "qpm": 61.99999586666694}, {"time": 1080, "qpm": 62.99999685000016}, {"time": 1104, "qpm": 61.99999586666694}, {"time": 1188, "qpm": 62.99999685000016}, {"time": 1272, "qpm": 61.99999586666694}, {"time": 1488, "qpm": 62.40002995201438}, {"time": 1896, "qpm": 61.99999586666694}, {"time": 2088, "qpm": 62.5}, {"time": 2316, "qpm": 61.99999586666694}, {"time": 2436, "qpm": 62.99999685000016}, {"time": 2484, "qpm": 61.99999586666694}, {"time": 2532, "qpm": 62.99999685000016}, {"time": 2568, "qpm": 61.99999586666694}, {"time": 2736, "qpm": 62.99999685000016}, {"time": 2796, "qpm": 61.99999586666694}, {"time": 2952, "qpm": 62.99999685000016}, {"time": 3000, "qpm": 61.99999586666694}], "time_signatures": [{"time": 0, "numerator": 1, "denominator": 4}], "tracks": [{"program": 4, "is_drum": false, "name": "MELODY", "notes": [{"time": 425, "pitch": 72, "duration": 9, "velocity": 112}, {"time": 434, "pitch": 72, "duration": 1, "velocity": 88}, {"time": 437, "pitch": 72, "duration": 2, "velocity": 92}, {"time": 440, "pitch": 70, "duration": 8, "velocity": 100}, {"time": 449, "pitch": 68, "duration": 13, "velocity": 95}, {"time": 473, "pitch": 72, "duration": 6, "velocity": 102}, {"time": 482, "pitch": 72, "duration": 1, "velocity": 85}, {"time": 485, "pitch": 72, "duration": 2, "velocity": 93}, {"time": 488, "pitch": 70, "duration": 3, "velocity": 96}, {"time": 491, "pitch": 68, "duration": 1, "velocity": 107}, {"time": 494, "pitch": 75, "duration": 5, "velocity": 88}, {"time": 515, "pitch": 72, "duration": 3, "velocity": 95}, {"time": 518, "pitch": 75, "duration": 3, "velocity": 107}, {"time": 521, "pitch": 80, "duration": 4, "velocity": 102}, {"time": 524, "pitch": 80, "duration": 1, "velocity": 122}, {"time": 530, "pitch": 80, "duration": 1, "velocity": 102}, {"time": 533, "pitch": 80, "duration": 3, "velocity": 102}, {"time": 539, "pitch": 80, "duration": 2, "velocity": 102}, {"time": 542, "pitch": 79, "duration": 3, "velocity": 97}, {"time": 548, "pitch": 77, "duration": 8, "velocity": 96}, {"time": 560, "pitch": 77, "duration": 2, "velocity": 93}, {"time": 563, "pitch": 75, "duration": 2, "velocity": 96}, {"time": 566, "pitch": 77, "duration": 1, "velocity": 100}, {"time": 569, "pitch": 79, "duration": 1, "velocity": 117}, {"time": 572, "pitch": 79, "duration": 1, "velocity": 95}, {"time": 575, "pitch": 79, "duration": 1, "velocity": 95}, {"time": 578, "pitch": 79, "duration": 3, "velocity": 112}, {"time": 587, "pitch": 70, "duration": 2, "velocity": 107}, {"time": 590, "pitch": 72, "duration": 13, "velocity": 93}, {"time": 617, "pitch": 72, "duration": 6, "velocity": 97}, {"time": 626, "pitch": 72, "duration": 1, "velocity": 90}, {"time": 629, "pitch": 72, "duration": 2, "velocity": 92}, {"time": 632, "pitch": 70, "duration": 5, "velocity": 96}, {"time": 638, "pitch": 68, "duration": 15, "velocity": 112}, {"time": 665, "pitch": 72, "duration": 6, "velocity": 102}, {"time": 674, "pitch": 72, "duration": 1, "velocity": 85}, {"time": 677, "pitch": 72, "duration": 2, "velocity": 93}, {"time": 680, "pitch": 70, "duration": 3, "velocity": 96}, {"time": 683, "pitch": 68, "duration": 1, "velocity": 107}, {"time": 686, "pitch": 75, "duration": 5, "velocity": 88}, {"time": 707, "pitch": 72, "duration": 3, "velocity": 95}, {"time": 710, "pitch": 75, "duration": 3, "velocity": 107}, {"time": 713, "pitch": 80, "duration": 4, "velocity": 102}, {"time": 716, "pitch": 80, "duration": 1, "velocity": 122}, {"time": 722, "pitch": 80, "duration": 1, "velocity": 102}, {"time": 725, "pitch": 80, "duration": 3, "velocity": 102}, {"time": 731, "pitch": 80, "duration": 2, "velocity": 102}, {"time": 734, "pitch": 79, "duration": 3, "velocity": 97}, {"time": 740, "pitch": 77, "duration": 8, "velocity": 96}, {"time": 758, "pitch": 77, "duration": 2, "velocity": 93}, {"time": 761, "pitch": 75, "duration": 1, "velocity": 96}, {"time": 764, "pitch": 75, "duration": 1, "velocity": 100}, {"time": 767, "pitch": 75, "duration": 1, "velocity": 112}, {"time": 770, "pitch": 77, "duration": 1, "velocity": 99}, {"time": 773, "pitch": 79, "duration": 3, "velocity": 117}, {"time": 779, "pitch": 70, "duration": 1, "velocity": 107}, {"time": 782, "pitch": 72, "duration": 15, "velocity": 96}, {"time": 809, "pitch": 72, "duration": 9, "velocity": 112}, {"time": 818, "pitch": 72, "duration": 1, "velocity": 88}, {"time": 821, "pitch": 72, "duration": 2, "velocity": 92}, {"time": 824, "pitch": 70, "duration": 8, "velocity": 100}, {"time": 833, "pitch": 68, "duration": 13, "velocity": 95}, {"time": 857, "pitch": 72, "duration": 6, "velocity": 102}, {"time": 866, "pitch": 72, "duration": 1, "velocity": 85}, {"time": 869, "pitch": 72, "duration": 2, "velocity": 93}, {"time": 872, "pitch": 70, "duration": 3, "velocity": 96}, {"time": 875, "pitch": 68, "duration": 1, "velocity": 107}, {"time": 878, "pitch": 75, "duration": 12, "velocity": 88}, {"time": 899, "pitch": 72, "duration": 3, "velocity": 95}, {"time": 902, "pitch": 75, "duration": 3, "velocity": 107}, {"time": 905, "pitch": 80, "duration": 4, "velocity": 102}, {"time": 908, "pitch": 80, "duration": 1, "velocity": 122}, {"time": 914, "pitch": 80, "duration": 1, "velocity": 102}, {"time": 917, "pitch": 80, "duration": 3, "velocity": 102}, {"time": 923, "pitch": 80, "duration": 2, "velocity": 102}, {"time": 926, "pitch": 79, "duration": 3, "velocity": 97}, {"time": 932, "pitch": 77, "duration": 8, "velocity": 96}, {"time": 944, "pitch": 77, "duration": 2, "velocity": 93}, {"time": 947, "pitch": 75, "duration": 2, "velocity": 96}, {"time": 950, "pitch": 77, "duration": 1, "velocity": 100}, {"time": 953, "pitch": 79, "duration": 4, "velocity": 117}, {"time": 959, "pitch": 79, "duration": 6, "velocity": 95}, {"time": 974, "pitch": 79, "duration": 1, "velocity": 95}, {"time": 977, "pitch": 79, "duration": 3, "velocity": 117}, {"time": 983, "pitch": 79, "duration": 3, "velocity": 112}, {"time": 989, "pitch": 80, "duration": 2, "velocity": 107}, {"time": 992, "pitch": 79, "duration": 8, "velocity": 97}, {"time": 1001, "pitch": 77, "duration": 17, "velocity": 112}, {"time": 1046, "pitch": 84, "duration": 2, "velocity": 122}, {"time": 1049, "pitch": 85, "duration": 4, "velocity": 127}, {"time": 1055, "pitch": 85, "duration": 3, "velocity": 127}, {"time": 1061, "pitch": 85, "duration": 1, "velocity": 127}, {"time": 1064, "pitch": 84, "duration": 7, "velocity": 127}, {"time": 1073, "pitch": 82, "duration": 12, "velocity": 127}, {"time": 1088, "pitch": 75, "duration": 1, "velocity": 117}, {"time": 1091, "pitch": 75, "duration": 1, "velocity": 102}, {"time": 1094, "pitch": 75, "duration": 1, "velocity": 122}, {"time": 1097, "pitch": 84, "duration": 1, "velocity": 107}, {"time": 1100, "pitch": 84, "duration": 1, "velocity": 102}, {"time": 1103, "pitch": 84, "duration": 1, "velocity": 112}, {"time": 1106, "pitch": 84, "duration": 1, "velocity": 112}, {"time": 1109, "pitch": 84, "duration": 1, "velocity": 100}, {"time": 1115, "pitch": 82, "duration": 3, "velocity": 127}, {"time": 1121, "pitch": 80, "duration": 17, "velocity": 117}, {"time": 1145, "pitch": 82, "duration": 1, "velocity": 127}, {"time": 1148, "pitch": 82, "duration": 1, "velocity": 102}, {"time": 1151, "pitch": 82, "duration": 1, "velocity": 112}, {"time": 1154, "pitch": 82, "duration": 1, "velocity": 112}, {"time": 1157, "pitch": 82, "duration": 1, "velocity": 127}, {"time": 1160, "pitch": 82, "duration": 3, "velocity": 122}, {"time": 1166, "pitch": 80, "duration": 1, "velocity": 127}, {"time": 1169, "pitch": 79, "duration": 6, "velocity": 127}, {"time": 1175, "pitch": 79, "duration": 5, "velocity": 127}, {"time": 1190, "pitch": 79, "duration": 1, "velocity": 92}, {"time": 1193, "pitch": 80, "duration": 1, "velocity": 122}, {"time": 1196, "pitch": 79, "duration": 1, "velocity": 90}, {"time": 1199, "pitch": 80, "duration": 1, "velocity": 127}, {"time": 1202, "pitch": 79, "duration": 1, "velocity": 89}, {"time": 1205, "pitch": 80, "duration": 1, "velocity": 127}, {"time": 1208, "pitch": 82, "duration": 3, "velocity": 112}, {"time": 1214, "pitch": 84, "duration": 15, "velocity": 112}, {"time": 1241, "pitch": 85, "duration": 4, "velocity": 127}, {"time": 1247, "pitch": 85, "duration": 3, "velocity": 127}, {"time": 1253, "pitch": 85, "duration": 1, "velocity": 127}, {"time": 1256, "pitch": 84, "duration": 7, "velocity": 127}, {"time": 1265, "pitch": 82, "duration": 12, "velocity": 127}, {"time": 1283, "pitch": 75, "duration": 1, "velocity": 102}, {"time": 1286, "pitch": 75, "duration": 1, "velocity": 122}, {"time": 1289, "pitch": 84, "duration": 1, "velocity": 107}, {"time": 1295, "pitch": 84, "duration": 1, "velocity": 112}, {"time": 1301, "pitch": 84, "duration": 1, "velocity": 100}, {"time": 1304, "pitch": 84, "duration": 1, "velocity": 122}, {"time": 1307, "pitch": 82, "duration": 3, "velocity": 127}, {"time": 1313, "pitch": 80, "duration": 17, "velocity": 117}, {"time": 1334, "pitch": 80, "duration": 2, "velocity": 127}, {"time": 1337, "pitch": 82, "duration": 1, "velocity": 127}, {"time": 1343, "pitch": 82, "duration": 1, "velocity": 112}, {"time": 1346, "pitch": 82, "duration": 1, "velocity": 112}, {"time": 1349, "pitch": 82, "duration": 6, "velocity": 127}, {"time": 1355, "pitch": 80, "duration": 3, "velocity": 127}, {"time": 1365, "pitch": 79, "duration": 7, "velocity": 127}, {"time": 1388, "pitch": 79, "duration": 1, "velocity": 97}, {"time": 1391, "pitch": 79, "duration": 1, "velocity": 88}, {"time": 1394, "pitch": 79, "duration": 1, "velocity": 92}, {"time": 1397, "pitch": 80, "duration": 2, "velocity": 112}, {"time": 1400, "pitch": 79, "duration": 6, "velocity": 100}, {"time": 1409, "pitch": 77, "duration": 3, "velocity": 96}, {"time": 1415, "pitch": 77, "duration": 34, "velocity": 112}, {"time": 1913, "pitch": 72, "duration": 6, "velocity": 97}, {"time": 1922, "pitch": 72, "duration": 1, "velocity": 90}, {"time": 1925, "pitch": 72, "duration": 2, "velocity": 92}, {"time": 1928, "pitch": 70, "duration": 5, "velocity": 96}, {"time": 1934, "pitch": 68, "duration": 15, "velocity": 112}, {"time": 1961, "pitch": 72, "duration": 6, "velocity": 102}, {"time": 1970, "pitch": 72, "duration": 1, "velocity": 85}, {"time": 1973, "pitch": 72, "duration": 2, "velocity": 93}, {"time": 1976, "pitch": 70, "duration": 3, "velocity": 96}, {"time": 1979, "pitch": 68, "duration": 1, "velocity": 107}, {"time": 1982, "pitch": 75, "duration": 5, "velocity": 88}, {"time": 2003, "pitch": 72, "duration": 3, "velocity": 95}, {"time": 2006, "pitch": 75, "duration": 3, "velocity": 107}, {"time": 2009, "pitch": 80, "duration": 4, "velocity": 102}, {"time": 2012, "pitch": 80, "duration": 1, "velocity": 122}, {"time": 2018, "pitch": 80, "duration": 1, "velocity": 102}, {"time": 2021, "pitch": 80, "duration": 3, "velocity": 102}, {"time": 2027, "pitch": 80, "duration": 2, "velocity": 102}, {"time": 2030, "pitch": 79, "duration": 3, "velocity": 97}, {"time": 2036, "pitch": 77, "duration": 8, "velocity": 96}, {"time": 2054, "pitch": 77, "duration": 2, "velocity": 93}, {"time": 2057, "pitch": 75, "duration": 1, "velocity": 96}, {"time": 2060, "pitch": 75, "duration": 1, "velocity": 100}, {"time": 2063, "pitch": 75, "duration": 1, "velocity": 112}, {"time": 2066, "pitch": 77, "duration": 1, "velocity": 99}, {"time": 2069, "pitch": 79, "duration": 3, "velocity": 117}, {"time": 2075, "pitch": 70, "duration": 1, "velocity": 107}, {"time": 2078, "pitch": 72, "duration": 15, "velocity": 96}, {"time": 2105, "pitch": 72, "duration": 9, "velocity": 112}, {"time": 2114, "pitch": 72, "duration": 1, "velocity": 88}, {"time": 2117, "pitch": 72, "duration": 2, "velocity": 92}, {"time": 2120, "pitch": 70, "duration": 8, "velocity": 100}, {"time": 2129, "pitch": 68, "duration": 13, "velocity": 95}, {"time": 2153, "pitch": 72, "duration": 6, "velocity": 102}, {"time": 2162, "pitch": 72, "duration": 1, "velocity": 85}, {"time": 2165, "pitch": 72, "duration": 2, "velocity": 93}, {"time": 2168, "pitch": 70, "duration": 3, "velocity": 96}, {"time": 2171, "pitch": 68, "duration": 1, "velocity": 107}, {"time": 2174, "pitch": 75, "duration": 12, "velocity": 88}, {"time": 2195, "pitch": 72, "duration": 3, "velocity": 95}, {"time": 2198, "pitch": 75, "duration": 3, "velocity": 107}, {"time": 2201, "pitch": 80, "duration": 4, "velocity": 102}, {"time": 2204, "pitch": 80, "duration": 1, "velocity": 122}, {"time": 2210, "pitch": 80, "duration": 1, "velocity": 102}, {"time": 2213, "pitch": 80, "duration": 3, "velocity": 102}, {"time": 2219, "pitch": 80, "duration": 2, "velocity": 102}, {"time": 2222, "pitch": 79, "duration": 3, "velocity": 97}, {"time": 2228, "pitch": 77, "duration": 8, "velocity": 96}, {"time": 2240, "pitch": 77, "duration": 2, "velocity": 93}, {"time": 2243, "pitch": 75, "duration": 2, "velocity": 96}, {"time": 2246, "pitch": 77, "duration": 1, "velocity": 100}, {"time": 2249, "pitch": 79, "duration": 4, "velocity": 117}, {"time": 2255, "pitch": 79, "duration": 6, "velocity": 95}, {"time": 2270, "pitch": 79, "duration": 1, "velocity": 95}, {"time": 2273, "pitch": 79, "duration": 3, "velocity": 117}, {"time": 2279, "pitch": 79, "duration": 3, "velocity": 112}, {"time": 2285, "pitch": 80, "duration": 2, "velocity": 107}, {"time": 2288, "pitch": 79, "duration": 8, "velocity": 97}, {"time": 2297, "pitch": 77, "duration": 38, "velocity": 112}, {"time": 2342, "pitch": 84, "duration": 2, "velocity": 122}, {"time": 2345, "pitch": 85, "duration": 4, "velocity": 127}, {"time": 2351, "pitch": 85, "duration": 3, "velocity": 127}, {"time": 2357, "pitch": 85, "duration": 1, "velocity": 127}, {"time": 2360, "pitch": 84, "duration": 7, "velocity": 127}, {"time": 2369, "pitch": 82, "duration": 12, "velocity": 127}, {"time": 2384, "pitch": 75, "duration": 1, "velocity": 117}, {"time": 2387, "pitch": 75, "duration": 1, "velocity": 102}, {"time": 2390, "pitch": 75, "duration": 1, "velocity": 122}, {"time": 2393, "pitch": 84, "duration": 1, "velocity": 107}, {"time": 2396, "pitch": 84, "duration": 1, "velocity": 102}, {"time": 2399, "pitch": 84, "duration": 1, "velocity": 112}, {"time": 2402, "pitch": 84, "duration": 1, "velocity": 112}, {"time": 2405, "pitch": 84, "duration": 1, "velocity": 100}, {"time": 2411, "pitch": 82, "duration": 3, "velocity": 127}, {"time": 2417, "pitch": 80, "duration": 17, "velocity": 117}, {"time": 2441, "pitch": 82, "duration": 1, "velocity": 127}, {"time": 2444, "pitch": 82, "duration": 1, "velocity": 102}, {"time": 2447, "pitch": 82, "duration": 1, "velocity": 112}, {"time": 2450, "pitch": 82, "duration": 1, "velocity": 112}, {"time": 2453, "pitch": 82, "duration": 1, "velocity": 127}, {"time": 2456, "pitch": 82, "duration": 3, "velocity": 122}, {"time": 2462, "pitch": 80, "duration": 1, "velocity": 127}, {"time": 2465, "pitch": 79, "duration": 6, "velocity": 127}, {"time": 2471, "pitch": 79, "duration": 5, "velocity": 127}, {"time": 2486, "pitch": 79, "duration": 1, "velocity": 92}, {"time": 2489, "pitch": 80, "duration": 1, "velocity": 122}, {"time": 2492, "pitch": 79, "duration": 1, "velocity": 90}, {"time": 2495, "pitch": 80, "duration": 1, "velocity": 127}, {"time": 2498, "pitch": 79, "duration": 1, "velocity": 89}, {"time": 2501, "pitch": 80, "duration": 1, "velocity": 127}, {"time": 2504, "pitch": 82, "duration": 3, "velocity": 112}, {"time": 2510, "pitch": 84, "duration": 15, "velocity": 112}, {"time": 2537, "pitch": 85, "duration": 4, "velocity": 127}, {"time": 2543, "pitch": 85, "duration": 3, "velocity": 127}, {"time": 2549, "pitch": 85, "duration": 1, "velocity": 127}, {"time": 2552, "pitch": 84, "duration": 7, "velocity": 127}, {"time": 2561, "pitch": 82, "duration": 12, "velocity": 127}, {"time": 2579, "pitch": 75, "duration": 1, "velocity": 102}, {"time": 2582, "pitch": 75, "duration": 1, "velocity": 122}, {"time": 2585, "pitch": 84, "duration": 1, "velocity": 107}, {"time": 2591, "pitch": 84, "duration": 1, "velocity": 112}, {"time": 2597, "pitch": 84, "duration": 1, "velocity": 100}, {"time": 2600, "pitch": 84, "duration": 1, "velocity": 122}, {"time": 2603, "pitch": 82, "duration": 3, "velocity": 127}, {"time": 2609, "pitch": 80, "duration": 17, "velocity": 117}, {"time": 2630, "pitch": 80, "duration": 2, "velocity": 127}, {"time": 2633, "pitch": 82, "duration": 1, "velocity": 127}, {"time": 2639, "pitch": 82, "duration": 1, "velocity": 112}, {"time": 2642, "pitch": 82, "duration": 1, "velocity": 112}, {"time": 2645, "pitch": 82, "duration": 6, "velocity": 127}, {"time": 2651, "pitch": 80, "duration": 3, "velocity": 127}, {"time": 2659, "pitch": 79, "duration": 9, "velocity": 127}, {"time": 2684, "pitch": 79, "duration": 1, "velocity": 97}, {"time": 2687, "pitch": 79, "duration": 1, "velocity": 88}, {"time": 2690, "pitch": 79, "duration": 1, "velocity": 92}, {"time": 2693, "pitch": 80, "duration": 2, "velocity": 112}, {"time": 2696, "pitch": 79, "duration": 6, "velocity": 100}, {"time": 2705, "pitch": 77, "duration": 3, "velocity": 96}, {"time": 2711, "pitch": 77, "duration": 14, "velocity": 112}, {"time": 2729, "pitch": 79, "duration": 21, "velocity": 122}, {"time": 2753, "pitch": 80, "duration": 13, "velocity": 122}, {"time": 2768, "pitch": 80, "duration": 3, "velocity": 127}, {"time": 2774, "pitch": 80, "duration": 2, "velocity": 122}, {"time": 2777, "pitch": 79, "duration": 10, "velocity": 127}, {"time": 2801, "pitch": 77, "duration": 24, "velocity": 107}, {"time": 2825, "pitch": 79, "duration": 21, "velocity": 117}, {"time": 2849, "pitch": 80, "duration": 15, "velocity": 127}, {"time": 2864, "pitch": 80, "duration": 3, "velocity": 127}, {"time": 2870, "pitch": 80, "duration": 2, "velocity": 112}, {"time": 2873, "pitch": 79, "duration": 15, "velocity": 127}, {"time": 2888, "pitch": 79, "duration": 3, "velocity": 102}, {"time": 2894, "pitch": 79, "duration": 2, "velocity": 102}, {"time": 2897, "pitch": 77, "duration": 37, "velocity": 127}]}, {"program": 0, "is_drum": false, "name": "PIANO", "notes": [{"time": 17, "pitch": 41, "duration": 52, "velocity": 75}, {"time": 23, "pitch": 48, "duration": 44, "velocity": 41}, {"time": 29, "pitch": 53, "duration": 38, "velocity": 44}, {"time": 29, "pitch": 67, "duration": 7, "velocity": 89}, {"time": 35, "pitch": 65, "duration": 32, "velocity": 88}, {"time": 65, "pitch": 49, "duration": 37, "velocity": 67}, {"time": 65, "pitch": 61, "duration": 7, "velocity": 81}, {"time": 65, "pitch": 65, "duration": 2, "velocity": 79}, {"time": 65, "pitch": 68, "duration": 7, "velocity": 96}, {"time": 71, "pitch": 53, "duration": 31, "velocity": 52}, {"time": 77, "pitch": 65, "duration": 20, "velocity": 75}, {"time": 77, "pitch": 68, "duration": 20, "velocity": 88}, {"time": 83, "pitch": 56, "duration": 10, "velocity": 40}, {"time": 83, "pitch": 61, "duration": 16, "velocity": 83}, {"time": 95, "pitch": 56, "duration": 7, "velocity": 56}, {"time": 101, "pitch": 65, "duration": 4, "velocity": 81}, {"time": 101, "pitch": 68, "duration": 4, "velocity": 88}, {"time": 113, "pitch": 46, "duration": 18, "velocity": 97}, {"time": 113, "pitch": 58, "duration": 2, "velocity": 64}, {"time": 113, "pitch": 61, "duration": 2, "velocity": 81}, {"time": 119, "pitch": 58, "duration": 12, "velocity": 49}, {"time": 125, "pitch": 61, "duration": 8, "velocity": 89}, {"time": 125, "pitch": 65, "duration": 9, "velocity": 92}, {"time": 137, "pitch": 48, "duration": 15, "velocity": 76}, {"time": 143, "pitch": 55, "duration": 8, "velocity": 59}, {"time": 149, "pitch": 60, "duration": 13, "velocity": 71}, {"time": 149, "pitch": 63, "duration": 13, "velocity": 83}, {"time": 149, "pitch": 67, "duration": 12, "velocity": 78}, {"time": 161, "pitch": 41, "duration": 43, "velocity": 78}, {"time": 167, "pitch": 48, "duration": 21, "velocity": 67}, {"time": 173, "pitch": 56, "duration": 22, "velocity": 93}, {"time": 173, "pitch": 60, "duration": 22, "velocity": 82}, {"time": 179, "pitch": 53, "duration": 18, "velocity": 85}, {"time": 191, "pitch": 48, "duration": 17, "velocity": 37}, {"time": 197, "pitch": 56, "duration": 10, "velocity": 66}, {"time": 197, "pitch": 60, "duration": 11, "velocity": 85}, {"time": 209, "pitch": 41, "duration": 40, "velocity": 89}, {"time": 215, "pitch": 48, "duration": 33, "velocity": 48}, {"time": 221, "pitch": 53, "duration": 11, "velocity": 57}, {"time": 221, "pitch": 67, "duration": 7, "velocity": 96}, {"time": 227, "pitch": 65, "duration": 7, "velocity": 96}, {"time": 239, "pitch": 53, "duration": 6, "velocity": 49}, {"time": 245, "pitch": 56, "duration": 6, "velocity": 102}, {"time": 245, "pitch": 60, "duration": 6, "velocity": 88}, {"time": 251, "pitch": 53, "duration": 5, "velocity": 46}, {"time": 257, "pitch": 46, "duration": 36, "velocity": 102}, {"time": 263, "pitch": 58, "duration": 7, "velocity": 83}, {"time": 269, "pitch": 61, "duration": 18, "velocity": 102}, {"time": 269, "pitch": 65, "duration": 17, "velocity": 90}, {"time": 275, "pitch": 58, "duration": 19, "velocity": 85}, {"time": 293, "pitch": 65, "duration": 4, "velocity": 68}, {"time": 305, "pitch": 37, "duration": 14, "velocity": 82}, {"time": 305, "pitch": 53, "duration": 14, "velocity": 69}, {"time": 305, "pitch": 56, "duration": 24, "velocity": 99}, {"time": 311, "pitch": 49, "duration": 11, "velocity": 58}, {"time": 317, "pitch": 61, "duration": 12, "velocity": 90}, {"time": 329, "pitch": 39, "duration": 22, "velocity": 86}, {"time": 335, "pitch": 51, "duration": 18, "velocity": 83}, {"time": 341, "pitch": 58, "duration": 25, "velocity": 100}, {"time": 353, "pitch": 39, "duration": 72, "velocity": 89}, {"time": 359, "pitch": 51, "duration": 65, "velocity": 47}, {"time": 365, "pitch": 55, "duration": 59, "velocity": 63}, {"time": 371, "pitch": 58, "duration": 53, "velocity": 56}, {"time": 377, "pitch": 63, "duration": 47, "velocity": 77}, {"time": 425, "pitch": 44, "duration": 17, "velocity": 93}, {"time": 425, "pitch": 63, "duration": 7, "velocity": 93}, {"time": 425, "pitch": 68, "duration": 7, "velocity": 93}, {"time": 425, "pitch": 72, "duration": 6, "velocity": 69}, {"time": 431, "pitch": 56, "duration": 8, "velocity": 72}, {"time": 437, "pitch": 63, "duration": 3, "velocity": 90}, {"time": 437, "pitch": 68, "duration": 11, "velocity": 99}, {"time": 437, "pitch": 72, "duration": 4, "velocity": 69}, {"time": 449, "pitch": 41, "duration": 16, "velocity": 76}, {"time": 449, "pitch": 65, "duration": 4, "velocity": 82}, {"time": 449, "pitch": 68, "duration": 1, "velocity": 60}, {"time": 455, "pitch": 48, "duration": 11, "velocity": 55}, {"time": 461, "pitch": 53, "duration": 5, "velocity": 47}, {"time": 461, "pitch": 65, "duration": 6, "velocity": 76}, {"time": 461, "pitch": 68, "duration": 7, "velocity": 88}, {"time": 467, "pitch": 60, "duration": 1, "velocity": 37}, {"time": 473, "pitch": 44, "duration": 15, "velocity": 92}, {"time": 473, "pitch": 68, "duration": 5, "velocity": 88}, {"time": 473, "pitch": 72, "duration": 5, "velocity": 76}, {"time": 479, "pitch": 56, "duration": 11, "velocity": 62}, {"time": 485, "pitch": 68, "duration": 3, "velocity": 73}, {"time": 485, "pitch": 72, "duration": 3, "velocity": 65}, {"time": 497, "pitch": 48, "duration": 16, "velocity": 72}, {"time": 497, "pitch": 60, "duration": 9, "velocity": 74}, {"time": 497, "pitch": 63, "duration": 10, "velocity": 81}, {"time": 497, "pitch": 67, "duration": 9, "velocity": 75}, {"time": 506, "pitch": 55, "duration": 4, "velocity": 58}, {"time": 509, "pitch": 67, "duration": 7, "velocity": 107}, {"time": 512, "pitch": 55, "duration": 1, "velocity": 57}, {"time": 515, "pitch": 63, "duration": 2, "velocity": 86}, {"time": 521, "pitch": 41, "duration": 14, "velocity": 69}, {"time": 521, "pitch": 60, "duration": 7, "velocity": 81}, {"time": 521, "pitch": 65, "duration": 8, "velocity": 81}, {"time": 521, "pitch": 68, "duration": 10, "velocity": 97}, {"time": 527, "pitch": 48, "duration": 8, "velocity": 40}, {"time": 533, "pitch": 53, "duration": 3, "velocity": 61}, {"time": 533, "pitch": 65, "duration": 2, "velocity": 89}, {"time": 533, "pitch": 68, "duration": 2, "velocity": 96}, {"time": 545, "pitch": 46, "duration": 14, "velocity": 97}, {"time": 545, "pitch": 58, "duration": 9, "velocity": 92}, {"time": 545, "pitch": 62, "duration": 9, "velocity": 68}, {"time": 545, "pitch": 65, "duration": 9, "velocity": 82}, {"time": 557, "pitch": 58, "duration": 2, "velocity": 96}, {"time": 557, "pitch": 62, "duration": 2, "velocity": 82}, {"time": 557, "pitch": 65, "duration": 3, "velocity": 73}, {"time": 569, "pitch": 51, "duration": 17, "velocity": 78}, {"time": 569, "pitch": 63, "duration": 10, "velocity": 86}, {"time": 569, "pitch": 67, "duration": 9, "velocity": 85}, {"time": 569, "pitch": 70, "duration": 9, "velocity": 88}, {"time": 575, "pitch": 55, "duration": 8, "velocity": 27}, {"time": 581, "pitch": 58, "duration": 4, "velocity": 70}, {"time": 581, "pitch": 67, "duration": 11, "velocity": 60}, {"time": 581, "pitch": 70, "duration": 13, "velocity": 64}, {"time": 587, "pitch": 63, "duration": 5, "velocity": 33}, {"time": 593, "pitch": 44, "duration": 17, "velocity": 85}, {"time": 599, "pitch": 56, "duration": 7, "velocity": 66}, {"time": 602, "pitch": 63, "duration": 4, "velocity": 55}, {"time": 605, "pitch": 72, "duration": 12, "velocity": 86}, {"time": 608, "pitch": 56, "duration": 2, "velocity": 95}, {"time": 611, "pitch": 68, "duration": 4, "velocity": 56}, {"time": 614, "pitch": 63, "duration": 3, "velocity": 58}, {"time": 617, "pitch": 44, "duration": 18, "velocity": 93}, {"time": 617, "pitch": 63, "duration": 8, "velocity": 93}, {"time": 617, "pitch": 68, "duration": 7, "velocity": 93}, {"time": 617, "pitch": 72, "duration": 6, "velocity": 69}, {"time": 623, "pitch": 56, "duration": 9, "velocity": 72}, {"time": 629, "pitch": 63, "duration": 4, "velocity": 90}, {"time": 629, "pitch": 68, "duration": 11, "velocity": 99}, {"time": 629, "pitch": 72, "duration": 5, "velocity": 69}, {"time": 641, "pitch": 41, "duration": 17, "velocity": 76}, {"time": 641, "pitch": 65, "duration": 4, "velocity": 82}, {"time": 641, "pitch": 68, "duration": 1, "velocity": 60}, {"time": 647, "pitch": 48, "duration": 11, "velocity": 55}, {"time": 653, "pitch": 53, "duration": 5, "velocity": 47}, {"time": 653, "pitch": 65, "duration": 7, "velocity": 76}, {"time": 653, "pitch": 68, "duration": 7, "velocity": 88}, {"time": 659, "pitch": 60, "duration": 1, "velocity": 37}, {"time": 665, "pitch": 44, "duration": 15, "velocity": 92}, {"time": 665, "pitch": 68, "duration": 6, "velocity": 88}, {"time": 665, "pitch": 72, "duration": 5, "velocity": 76}, {"time": 671, "pitch": 56, "duration": 11, "velocity": 62}, {"time": 677, "pitch": 68, "duration": 4, "velocity": 73}, {"time": 677, "pitch": 72, "duration": 4, "velocity": 65}, {"time": 689, "pitch": 48, "duration": 16, "velocity": 72}, {"time": 689, "pitch": 60, "duration": 10, "velocity": 74}, {"time": 689, "pitch": 63, "duration": 10, "velocity": 81}, {"time": 689, "pitch": 67, "duration": 10, "velocity": 75}, {"time": 698, "pitch": 55, "duration": 4, "velocity": 58}, {"time": 701, "pitch": 67, "duration": 8, "velocity": 107}, {"time": 704, "pitch": 55, "duration": 1, "velocity": 57}, {"time": 707, "pitch": 63, "duration": 2, "velocity": 86}, {"time": 713, "pitch": 41, "duration": 14, "velocity": 69}, {"time": 713, "pitch": 60, "duration": 7, "velocity": 81}, {"time": 713, "pitch": 65, "duration": 8, "velocity": 81}, {"time": 713, "pitch": 68, "duration": 10, "velocity": 97}, {"time": 719, "pitch": 48, "duration": 9, "velocity": 40}, {"time": 725, "pitch": 53, "duration": 4, "velocity": 61}, {"time": 725, "pitch": 65, "duration": 2, "velocity": 89}, {"time": 725, "pitch": 68, "duration": 2, "velocity": 96}, {"time": 737, "pitch": 46, "duration": 15, "velocity": 97}, {"time": 737, "pitch": 58, "duration": 10, "velocity": 92}, {"time": 737, "pitch": 62, "duration": 9, "velocity": 68}, {"time": 737, "pitch": 65, "duration": 9, "velocity": 82}, {"time": 749, "pitch": 58, "duration": 2, "velocity": 96}, {"time": 749, "pitch": 62, "duration": 3, "velocity": 82}, {"time": 749, "pitch": 65, "duration": 4, "velocity": 73}, {"time": 761, "pitch": 51, "duration": 17, "velocity": 78}, {"time": 761, "pitch": 63, "duration": 11, "velocity": 86}, {"time": 761, "pitch": 67, "duration": 9, "velocity": 85}, {"time": 761, "pitch": 70, "duration": 10, "velocity": 88}, {"time": 767, "pitch": 55, "duration": 9, "velocity": 27}, {"time": 773, "pitch": 58, "duration": 4, "velocity": 70}, {"time": 773, "pitch": 67, "duration": 12, "velocity": 60}, {"time": 773, "pitch": 70, "duration": 13, "velocity": 64}, {"time": 779, "pitch": 63, "duration": 5, "velocity": 33}, {"time": 785, "pitch": 44, "duration": 18, "velocity": 85}, {"time": 791, "pitch": 56, "duration": 8, "velocity": 66}, {"time": 794, "pitch": 63, "duration": 5, "velocity": 55}, {"time": 797, "pitch": 72, "duration": 12, "velocity": 86}, {"time": 800, "pitch": 56, "duration": 2, "velocity": 95}, {"time": 803, "pitch": 68, "duration": 5, "velocity": 56}, {"time": 806, "pitch": 63, "duration": 4, "velocity": 58}, {"time": 809, "pitch": 44, "duration": 18, "velocity": 93}, {"time": 809, "pitch": 63, "duration": 1, "velocity": 93}, {"time": 809, "pitch": 68, "duration": 7, "velocity": 93}, {"time": 809, "pitch": 72, "duration": 6, "velocity": 69}, {"time": 815, "pitch": 56, "duration": 9, "velocity": 72}, {"time": 821, "pitch": 63, "duration": 4, "velocity": 90}, {"time": 821, "pitch": 68, "duration": 11, "velocity": 99}, {"time": 821, "pitch": 72, "duration": 5, "velocity": 69}, {"time": 833, "pitch": 41, "duration": 17, "velocity": 76}, {"time": 833, "pitch": 65, "duration": 4, "velocity": 82}, {"time": 833, "pitch": 68, "duration": 1, "velocity": 60}, {"time": 839, "pitch": 48, "duration": 11, "velocity": 55}, {"time": 845, "pitch": 53, "duration": 5, "velocity": 47}, {"time": 845, "pitch": 65, "duration": 7, "velocity": 76}, {"time": 845, "pitch": 68, "duration": 7, "velocity": 88}, {"time": 851, "pitch": 60, "duration": 1, "velocity": 37}, {"time": 857, "pitch": 44, "duration": 15, "velocity": 92}, {"time": 857, "pitch": 68, "duration": 6, "velocity": 88}, {"time": 857, "pitch": 72, "duration": 5, "velocity": 76}, {"time": 863, "pitch": 56, "duration": 11, "velocity": 62}, {"time": 869, "pitch": 68, "duration": 4, "velocity": 73}, {"time": 869, "pitch": 72, "duration": 4, "velocity": 65}, {"time": 881, "pitch": 48, "duration": 16, "velocity": 72}, {"time": 881, "pitch": 60, "duration": 10, "velocity": 74}, {"time": 881, "pitch": 63, "duration": 10, "velocity": 81}, {"time": 881, "pitch": 67, "duration": 10, "velocity": 75}, {"time": 890, "pitch": 55, "duration": 4, "velocity": 58}, {"time": 893, "pitch": 67, "duration": 8, "velocity": 107}, {"time": 896, "pitch": 55, "duration": 1, "velocity": 57}, {"time": 899, "pitch": 63, "duration": 2, "velocity": 86}, {"time": 905, "pitch": 41, "duration": 14, "velocity": 69}, {"time": 905, "pitch": 60, "duration": 7, "velocity": 81}, {"time": 905, "pitch": 65, "duration": 8, "velocity": 81}, {"time": 905, "pitch": 68, "duration": 10, "velocity": 97}, {"time": 911, "pitch": 48, "duration": 9, "velocity": 40}, {"time": 917, "pitch": 53, "duration": 4, "velocity": 61}, {"time": 917, "pitch": 65, "duration": 2, "velocity": 89}, {"time": 917, "pitch": 68, "duration": 2, "velocity": 96}, {"time": 929, "pitch": 46, "duration": 15, "velocity": 97}, {"time": 929, "pitch": 58, "duration": 10, "velocity": 92}, {"time": 929, "pitch": 62, "duration": 9, "velocity": 68}, {"time": 929, "pitch": 65, "duration": 9, "velocity": 82}, {"time": 941, "pitch": 58, "duration": 2, "velocity": 96}, {"time": 941, "pitch": 62, "duration": 3, "velocity": 82}, {"time": 941, "pitch": 65, "duration": 4, "velocity": 73}, {"time": 953, "pitch": 39, "duration": 36, "velocity": 74}, {"time": 953, "pitch": 63, "duration": 9, "velocity": 92}, {"time": 953, "pitch": 67, "duration": 6, "velocity": 82}, {"time": 953, "pitch": 70, "duration": 7, "velocity": 83}, {"time": 959, "pitch": 51, "duration": 8, "velocity": 59}, {"time": 965, "pitch": 63, "duration": 7, "velocity": 88}, {"time": 965, "pitch": 67, "duration": 6, "velocity": 99}, {"time": 965, "pitch": 70, "duration": 6, "velocity": 92}, {"time": 971, "pitch": 51, "duration": 9, "velocity": 37}, {"time": 977, "pitch": 63, "duration": 6, "velocity": 96}, {"time": 977, "pitch": 67, "duration": 5, "velocity": 99}, {"time": 977, "pitch": 70, "duration": 6, "velocity": 92}, {"time": 983, "pitch": 51, "duration": 5, "velocity": 42}, {"time": 989, "pitch": 67, "duration": 3, "velocity": 96}, {"time": 989, "pitch": 70, "duration": 4, "velocity": 100}, {"time": 1001, "pitch": 41, "duration": 34, "velocity": 79}, {"time": 1001, "pitch": 60, "duration": 9, "velocity": 100}, {"time": 1001, "pitch": 65, "duration": 9, "velocity": 95}, {"time": 1001, "pitch": 68, "duration": 10, "velocity": 99}, {"time": 1007, "pitch": 48, "duration": 28, "velocity": 35}, {"time": 1013, "pitch": 60, "duration": 7, "velocity": 89}, {"time": 1013, "pitch": 65, "duration": 10, "velocity": 95}, {"time": 1013, "pitch": 68, "duration": 10, "velocity": 96}, {"time": 1019, "pitch": 53, "duration": 10, "velocity": 36}, {"time": 1025, "pitch": 60, "duration": 9, "velocity": 90}, {"time": 1025, "pitch": 65, "duration": 9, "velocity": 97}, {"time": 1025, "pitch": 68, "duration": 5, "velocity": 102}, {"time": 1031, "pitch": 53, "duration": 4, "velocity": 37}, {"time": 1037, "pitch": 41, "duration": 12, "velocity": 78}, {"time": 1037, "pitch": 48, "duration": 1, "velocity": 66}, {"time": 1037, "pitch": 53, "duration": 12, "velocity": 102}, {"time": 1037, "pitch": 60, "duration": 12, "velocity": 99}, {"time": 1037, "pitch": 63, "duration": 12, "velocity": 127}, {"time": 1037, "pitch": 65, "duration": 12, "velocity": 107}, {"time": 1037, "pitch": 69, "duration": 12, "velocity": 117}, {"time": 1049, "pitch": 46, "duration": 16, "velocity": 117}, {"time": 1049, "pitch": 65, "duration": 1, "velocity": 93}, {"time": 1049, "pitch": 70, "duration": 9, "velocity": 112}, {"time": 1049, "pitch": 73, "duration": 7, "velocity": 107}, {"time": 1055, "pitch": 58, "duration": 7, "velocity": 92}, {"time": 1061, "pitch": 65, "duration": 3, "velocity": 95}, {"time": 1061, "pitch": 70, "duration": 6, "velocity": 127}, {"time": 1061, "pitch": 73, "duration": 6, "velocity": 127}, {"time": 1064, "pitch": 58, "duration": 1, "velocity": 85}, {"time": 1067, "pitch": 65, "duration": 2, "velocity": 107}, {"time": 1073, "pitch": 39, "duration": 1, "velocity": 107}, {"time": 1073, "pitch": 63, "duration": 10, "velocity": 99}, {"time": 1073, "pitch": 67, "duration": 7, "velocity": 97}, {"time": 1073, "pitch": 70, "duration": 7, "velocity": 100}, {"time": 1085, "pitch": 63, "duration": 3, "velocity": 96}, {"time": 1085, "pitch": 67, "duration": 5, "velocity": 122}, {"time": 1085, "pitch": 70, "duration": 5, "velocity": 122}, {"time": 1088, "pitch": 58, "duration": 1, "velocity": 107}, {"time": 1091, "pitch": 63, "duration": 2, "velocity": 112}, {"time": 1097, "pitch": 44, "duration": 15, "velocity": 100}, {"time": 1097, "pitch": 63, "duration": 6, "velocity": 107}, {"time": 1097, "pitch": 68, "duration": 6, "velocity": 107}, {"time": 1097, "pitch": 72, "duration": 5, "velocity": 93}, {"time": 1103, "pitch": 56, "duration": 7, "velocity": 85}, {"time": 1109, "pitch": 63, "duration": 3, "velocity": 102}, {"time": 1109, "pitch": 68, "duration": 5, "velocity": 122}, {"time": 1109, "pitch": 72, "duration": 6, "velocity": 97}, {"time": 1112, "pitch": 56, "duration": 2, "velocity": 100}, {"time": 1115, "pitch": 63, "duration": 1, "velocity": 102}, {"time": 1121, "pitch": 49, "duration": 16, "velocity": 73}, {"time": 1121, "pitch": 56, "duration": 12, "velocity": 102}, {"time": 1121, "pitch": 61, "duration": 6, "velocity": 112}, {"time": 1121, "pitch": 65, "duration": 6, "velocity": 99}, {"time": 1121, "pitch": 68, "duration": 6, "velocity": 102}, {"time": 1130, "pitch": 53, "duration": 6, "velocity": 33}, {"time": 1133, "pitch": 61, "duration": 2, "velocity": 93}, {"time": 1133, "pitch": 65, "duration": 5, "velocity": 122}, {"time": 1133, "pitch": 68, "duration": 5, "velocity": 122}, {"time": 1136, "pitch": 56, "duration": 1, "velocity": 100}, {"time": 1139, "pitch": 61, "duration": 1, "velocity": 102}, {"time": 1145, "pitch": 43, "duration": 15, "velocity": 85}, {"time": 1145, "pitch": 55, "duration": 9, "velocity": 107}, {"time": 1145, "pitch": 58, "duration": 10, "velocity": 117}, {"time": 1145, "pitch": 61, "duration": 9, "velocity": 112}, {"time": 1151, "pitch": 50, "duration": 6, "velocity": 56}, {"time": 1157, "pitch": 50, "duration": 1, "velocity": 66}, {"time": 1157, "pitch": 58, "duration": 6, "velocity": 127}, {"time": 1157, "pitch": 61, "duration": 6, "velocity": 117}, {"time": 1163, "pitch": 55, "duration": 1, "velocity": 89}, {"time": 1169, "pitch": 48, "duration": 16, "velocity": 83}, {"time": 1169, "pitch": 60, "duration": 8, "velocity": 100}, {"time": 1169, "pitch": 64, "duration": 10, "velocity": 96}, {"time": 1169, "pitch": 67, "duration": 10, "velocity": 96}, {"time": 1175, "pitch": 55, "duration": 7, "velocity": 38}, {"time": 1181, "pitch": 64, "duration": 6, "velocity": 122}, {"time": 1181, "pitch": 67, "duration": 6, "velocity": 112}, {"time": 1184, "pitch": 55, "duration": 1, "velocity": 82}, {"time": 1187, "pitch": 60, "duration": 4, "velocity": 97}, {"time": 1193, "pitch": 41, "duration": 22, "velocity": 93}, {"time": 1193, "pitch": 60, "duration": 10, "velocity": 102}, {"time": 1193, "pitch": 65, "duration": 10, "velocity": 112}, {"time": 1193, "pitch": 68, "duration": 10, "velocity": 127}, {"time": 1199, "pitch": 48, "duration": 17, "velocity": 36}, {"time": 1202, "pitch": 53, "duration": 4, "velocity": 75}, {"time": 1205, "pitch": 60, "duration": 4, "velocity": 97}, {"time": 1205, "pitch": 65, "duration": 8, "velocity": 117}, {"time": 1205, "pitch": 68, "duration": 6, "velocity": 127}, {"time": 1208, "pitch": 53, "duration": 2, "velocity": 83}, {"time": 1211, "pitch": 60, "duration": 4, "velocity": 86}, {"time": 1214, "pitch": 65, "duration": 1, "velocity": 37}, {"time": 1217, "pitch": 41, "duration": 17, "velocity": 89}, {"time": 1217, "pitch": 60, "duration": 10, "velocity": 107}, {"time": 1217, "pitch": 63, "duration": 10, "velocity": 127}, {"time": 1217, "pitch": 65, "duration": 10, "velocity": 117}, {"time": 1217, "pitch": 69, "duration": 10, "velocity": 107}, {"time": 1223, "pitch": 48, "duration": 11, "velocity": 42}, {"time": 1229, "pitch": 60, "duration": 3, "velocity": 102}, {"time": 1229, "pitch": 63, "duration": 6, "velocity": 127}, {"time": 1229, "pitch": 65, "duration": 6, "velocity": 122}, {"time": 1229, "pitch": 69, "duration": 6, "velocity": 117}, {"time": 1232, "pitch": 53, "duration": 3, "velocity": 90}, {"time": 1235, "pitch": 60, "duration": 1, "velocity": 82}, {"time": 1241, "pitch": 46, "duration": 16, "velocity": 112}, {"time": 1241, "pitch": 65, "duration": 9, "velocity": 93}, {"time": 1241, "pitch": 70, "duration": 9, "velocity": 122}, {"time": 1241, "pitch": 73, "duration": 7, "velocity": 117}, {"time": 1247, "pitch": 58, "duration": 6, "velocity": 88}, {"time": 1253, "pitch": 65, "duration": 1, "velocity": 73}, {"time": 1253, "pitch": 70, "duration": 6, "velocity": 127}, {"time": 1253, "pitch": 73, "duration": 5, "velocity": 127}, {"time": 1256, "pitch": 58, "duration": 2, "velocity": 102}, {"time": 1259, "pitch": 65, "duration": 2, "velocity": 107}, {"time": 1265, "pitch": 51, "duration": 16, "velocity": 93}, {"time": 1265, "pitch": 63, "duration": 9, "velocity": 97}, {"time": 1265, "pitch": 67, "duration": 9, "velocity": 96}, {"time": 1265, "pitch": 70, "duration": 9, "velocity": 93}, {"time": 1271, "pitch": 55, "duration": 10, "velocity": 59}, {"time": 1274, "pitch": 58, "duration": 3, "velocity": 83}, {"time": 1277, "pitch": 67, "duration": 5, "velocity": 122}, {"time": 1277, "pitch": 70, "duration": 6, "velocity": 122}, {"time": 1280, "pitch": 58, "duration": 1, "velocity": 96}, {"time": 1283, "pitch": 63, "duration": 1, "velocity": 100}, {"time": 1289, "pitch": 44, "duration": 16, "velocity": 97}, {"time": 1289, "pitch": 60, "duration": 7, "velocity": 89}, {"time": 1289, "pitch": 63, "duration": 8, "velocity": 99}, {"time": 1295, "pitch": 56, "duration": 6, "velocity": 92}, {"time": 1298, "pitch": 60, "duration": 2, "velocity": 72}, {"time": 1301, "pitch": 63, "duration": 5, "velocity": 107}, {"time": 1301, "pitch": 68, "duration": 6, "velocity": 127}, {"time": 1304, "pitch": 56, "duration": 2, "velocity": 95}, {"time": 1307, "pitch": 60, "duration": 1, "velocity": 93}, {"time": 1313, "pitch": 49, "duration": 17, "velocity": 82}, {"time": 1313, "pitch": 61, "duration": 9, "velocity": 100}, {"time": 1313, "pitch": 65, "duration": 8, "velocity": 95}, {"time": 1313, "pitch": 68, "duration": 9, "velocity": 97}, {"time": 1319, "pitch": 53, "duration": 10, "velocity": 40}, {"time": 1322, "pitch": 56, "duration": 4, "velocity": 65}, {"time": 1325, "pitch": 61, "duration": 3, "velocity": 93}, {"time": 1325, "pitch": 65, "duration": 5, "velocity": 117}, {"time": 1325, "pitch": 68, "duration": 5, "velocity": 117}, {"time": 1328, "pitch": 56, "duration": 2, "velocity": 63}, {"time": 1331, "pitch": 61, "duration": 1, "velocity": 92}, {"time": 1337, "pitch": 46, "duration": 15, "velocity": 89}, {"time": 1337, "pitch": 58, "duration": 10, "velocity": 122}, {"time": 1337, "pitch": 61, "duration": 10, "velocity": 112}, {"time": 1349, "pitch": 58, "duration": 5, "velocity": 127}, {"time": 1349, "pitch": 61, "duration": 5, "velocity": 117}, {"time": 1349, "pitch": 65, "duration": 6, "velocity": 96}, {"time": 1355, "pitch": 46, "duration": 1, "velocity": 89}, {"time": 1361, "pitch": 48, "duration": 13, "velocity": 74}, {"time": 1361, "pitch": 60, "duration": 9, "velocity": 99}, {"time": 1361, "pitch": 64, "duration": 10, "velocity": 93}, {"time": 1361, "pitch": 67, "duration": 10, "velocity": 93}, {"time": 1367, "pitch": 55, "duration": 6, "velocity": 38}, {"time": 1373, "pitch": 64, "duration": 28, "velocity": 92}, {"time": 1373, "pitch": 67, "duration": 26, "velocity": 86}, {"time": 1385, "pitch": 60, "duration": 15, "velocity": 42}, {"time": 1409, "pitch": 41, "duration": 17, "velocity": 73}, {"time": 1409, "pitch": 60, "duration": 15, "velocity": 79}, {"time": 1409, "pitch": 65, "duration": 17, "velocity": 81}, {"time": 1409, "pitch": 68, "duration": 18, "velocity": 88}, {"time": 1415, "pitch": 48, "duration": 11, "velocity": 42}, {"time": 1421, "pitch": 53, "duration": 6, "velocity": 75}, {"time": 1427, "pitch": 60, "duration": 1, "velocity": 78}, {"time": 1433, "pitch": 51, "duration": 15, "velocity": 97}, {"time": 1433, "pitch": 63, "duration": 13, "velocity": 95}, {"time": 1433, "pitch": 67, "duration": 10, "velocity": 93}, {"time": 1433, "pitch": 70, "duration": 8, "velocity": 95}, {"time": 1442, "pitch": 55, "duration": 6, "velocity": 31}, {"time": 1445, "pitch": 70, "duration": 6, "velocity": 96}, {"time": 1451, "pitch": 63, "duration": 2, "velocity": 83}, {"time": 1457, "pitch": 49, "duration": 16, "velocity": 83}, {"time": 1457, "pitch": 61, "duration": 15, "velocity": 96}, {"time": 1457, "pitch": 65, "duration": 17, "velocity": 97}, {"time": 1457, "pitch": 68, "duration": 19, "velocity": 100}, {"time": 1463, "pitch": 53, "duration": 9, "velocity": 52}, {"time": 1469, "pitch": 56, "duration": 3, "velocity": 85}, {"time": 1475, "pitch": 61, "duration": 1, "velocity": 70}, {"time": 1481, "pitch": 48, "duration": 22, "velocity": 70}, {"time": 1481, "pitch": 60, "duration": 11, "velocity": 93}, {"time": 1481, "pitch": 64, "duration": 11, "velocity": 85}, {"time": 1481, "pitch": 67, "duration": 11, "velocity": 83}, {"time": 1493, "pitch": 64, "duration": 10, "velocity": 85}, {"time": 1493, "pitch": 67, "duration": 10, "velocity": 85}, {"time": 1496, "pitch": 55, "duration": 6, "velocity": 52}, {"time": 1499, "pitch": 60, "duration": 5, "velocity": 90}, {"time": 1505, "pitch": 41, "duration": 40, "velocity": 88}, {"time": 1505, "pitch": 60, "duration": 10, "velocity": 93}, {"time": 1505, "pitch": 65, "duration": 11, "velocity": 93}, {"time": 1505, "pitch": 68, "duration": 11, "velocity": 102}, {"time": 1511, "pitch": 48, "duration": 34, "velocity": 55}, {"time": 1517, "pitch": 60, "duration": 10, "velocity": 95}, {"time": 1517, "pitch": 65, "duration": 10, "velocity": 96}, {"time": 1517, "pitch": 68, "duration": 10, "velocity": 97}, {"time": 1523, "pitch": 53, "duration": 7, "velocity": 56}, {"time": 1529, "pitch": 60, "duration": 7, "velocity": 85}, {"time": 1529, "pitch": 65, "duration": 7, "velocity": 82}, {"time": 1529, "pitch": 68, "duration": 7, "velocity": 82}, {"time": 1535, "pitch": 53, "duration": 7, "velocity": 44}, {"time": 1538, "pitch": 65, "duration": 2, "velocity": 78}, {"time": 1538, "pitch": 68, "duration": 2, "velocity": 90}, {"time": 1541, "pitch": 65, "duration": 5, "velocity": 100}, {"time": 1541, "pitch": 68, "duration": 6, "velocity": 127}, {"time": 1544, "pitch": 53, "duration": 2, "velocity": 89}, {"time": 1547, "pitch": 60, "duration": 1, "velocity": 92}, {"time": 1553, "pitch": 49, "duration": 40, "velocity": 89}, {"time": 1553, "pitch": 56, "duration": 10, "velocity": 95}, {"time": 1553, "pitch": 61, "duration": 10, "velocity": 90}, {"time": 1553, "pitch": 65, "duration": 6, "velocity": 82}, {"time": 1553, "pitch": 68, "duration": 7, "velocity": 88}, {"time": 1562, "pitch": 53, "duration": 30, "velocity": 33}, {"time": 1565, "pitch": 65, "duration": 4, "velocity": 97}, {"time": 1565, "pitch": 68, "duration": 5, "velocity": 102}, {"time": 1568, "pitch": 56, "duration": 8, "velocity": 93}, {"time": 1571, "pitch": 61, "duration": 15, "velocity": 100}, {"time": 1574, "pitch": 65, "duration": 12, "velocity": 82}, {"time": 1574, "pitch": 68, "duration": 12, "velocity": 107}, {"time": 1583, "pitch": 56, "duration": 6, "velocity": 59}, {"time": 1589, "pitch": 61, "duration": 2, "velocity": 86}, {"time": 1589, "pitch": 65, "duration": 5, "velocity": 96}, {"time": 1589, "pitch": 68, "duration": 6, "velocity": 99}, {"time": 1592, "pitch": 56, "duration": 2, "velocity": 97}, {"time": 1595, "pitch": 61, "duration": 1, "velocity": 89}, {"time": 1601, "pitch": 46, "duration": 13, "velocity": 95}, {"time": 1601, "pitch": 58, "duration": 10, "velocity": 93}, {"time": 1601, "pitch": 61, "duration": 10, "velocity": 95}, {"time": 1601, "pitch": 65, "duration": 5, "velocity": 65}, {"time": 1613, "pitch": 61, "duration": 6, "velocity": 102}, {"time": 1613, "pitch": 65, "duration": 5, "velocity": 60}, {"time": 1616, "pitch": 46, "duration": 1, "velocity": 85}, {"time": 1619, "pitch": 58, "duration": 1, "velocity": 66}, {"time": 1625, "pitch": 48, "duration": 16, "velocity": 81}, {"time": 1625, "pitch": 60, "duration": 9, "velocity": 93}, {"time": 1625, "pitch": 63, "duration": 10, "velocity": 96}, {"time": 1625, "pitch": 67, "duration": 7, "velocity": 85}, {"time": 1631, "pitch": 55, "duration": 7, "velocity": 53}, {"time": 1637, "pitch": 63, "duration": 7, "velocity": 112}, {"time": 1637, "pitch": 67, "duration": 6, "velocity": 93}, {"time": 1640, "pitch": 55, "duration": 1, "velocity": 60}, {"time": 1643, "pitch": 60, "duration": 4, "velocity": 89}, {"time": 1649, "pitch": 41, "duration": 22, "velocity": 86}, {"time": 1649, "pitch": 60, "duration": 5, "velocity": 62}, {"time": 1649, "pitch": 65, "duration": 4, "velocity": 96}, {"time": 1649, "pitch": 68, "duration": 4, "velocity": 112}, {"time": 1655, "pitch": 48, "duration": 19, "velocity": 39}, {"time": 1661, "pitch": 56, "duration": 18, "velocity": 112}, {"time": 1661, "pitch": 60, "duration": 1, "velocity": 69}, {"time": 1664, "pitch": 53, "duration": 3, "velocity": 49}, {"time": 1667, "pitch": 55, "duration": 6, "velocity": 53}, {"time": 1673, "pitch": 41, "duration": 19, "velocity": 73}, {"time": 1673, "pitch": 60, "duration": 2, "velocity": 33}, {"time": 1676, "pitch": 48, "duration": 11, "velocity": 71}, {"time": 1679, "pitch": 53, "duration": 7, "velocity": 82}, {"time": 1682, "pitch": 60, "duration": 9, "velocity": 96}, {"time": 1688, "pitch": 48, "duration": 9, "velocity": 61}, {"time": 1691, "pitch": 56, "duration": 1, "velocity": 63}, {"time": 1697, "pitch": 41, "duration": 22, "velocity": 79}, {"time": 1697, "pitch": 60, "duration": 10, "velocity": 90}, {"time": 1697, "pitch": 65, "duration": 11, "velocity": 97}, {"time": 1697, "pitch": 68, "duration": 11, "velocity": 100}, {"time": 1703, "pitch": 48, "duration": 18, "velocity": 43}, {"time": 1706, "pitch": 53, "duration": 4, "velocity": 63}, {"time": 1709, "pitch": 65, "duration": 7, "velocity": 96}, {"time": 1709, "pitch": 68, "duration": 7, "velocity": 107}, {"time": 1712, "pitch": 53, "duration": 4, "velocity": 60}, {"time": 1715, "pitch": 60, "duration": 14, "velocity": 72}, {"time": 1718, "pitch": 65, "duration": 12, "velocity": 70}, {"time": 1718, "pitch": 68, "duration": 13, "velocity": 69}, {"time": 1721, "pitch": 41, "duration": 16, "velocity": 85}, {"time": 1727, "pitch": 48, "duration": 10, "velocity": 36}, {"time": 1733, "pitch": 65, "duration": 4, "velocity": 107}, {"time": 1733, "pitch": 68, "duration": 5, "velocity": 127}, {"time": 1736, "pitch": 53, "duration": 2, "velocity": 89}, {"time": 1739, "pitch": 60, "duration": 4, "velocity": 74}, {"time": 1745, "pitch": 46, "duration": 22, "velocity": 122}, {"time": 1745, "pitch": 58, "duration": 3, "velocity": 97}, {"time": 1745, "pitch": 61, "duration": 3, "velocity": 93}, {"time": 1751, "pitch": 58, "duration": 8, "velocity": 79}, {"time": 1754, "pitch": 61, "duration": 8, "velocity": 107}, {"time": 1754, "pitch": 65, "duration": 8, "velocity": 96}, {"time": 1760, "pitch": 58, "duration": 2, "velocity": 59}, {"time": 1766, "pitch": 58, "duration": 13, "velocity": 82}, {"time": 1766, "pitch": 61, "duration": 13, "velocity": 96}, {"time": 1766, "pitch": 65, "duration": 10, "velocity": 76}, {"time": 1769, "pitch": 46, "duration": 14, "velocity": 81}, {"time": 1781, "pitch": 58, "duration": 3, "velocity": 92}, {"time": 1781, "pitch": 61, "duration": 6, "velocity": 117}, {"time": 1781, "pitch": 65, "duration": 5, "velocity": 76}, {"time": 1784, "pitch": 46, "duration": 1, "velocity": 86}, {"time": 1787, "pitch": 58, "duration": 1, "velocity": 92}, {"time": 1793, "pitch": 49, "duration": 16, "velocity": 90}, {"time": 1793, "pitch": 61, "duration": 10, "velocity": 97}, {"time": 1793, "pitch": 65, "duration": 6, "velocity": 97}, {"time": 1793, "pitch": 68, "duration": 9, "velocity": 99}, {"time": 1799, "pitch": 56, "duration": 7, "velocity": 59}, {"time": 1805, "pitch": 61, "duration": 3, "velocity": 90}, {"time": 1805, "pitch": 65, "duration": 5, "velocity": 102}, {"time": 1805, "pitch": 68, "duration": 6, "velocity": 112}, {"time": 1808, "pitch": 56, "duration": 1, "velocity": 83}, {"time": 1811, "pitch": 61, "duration": 1, "velocity": 92}, {"time": 1817, "pitch": 37, "duration": 15, "velocity": 66}, {"time": 1817, "pitch": 61, "duration": 10, "velocity": 88}, {"time": 1817, "pitch": 65, "duration": 6, "velocity": 89}, {"time": 1817, "pitch": 68, "duration": 6, "velocity": 89}, {"time": 1823, "pitch": 49, "duration": 8, "velocity": 56}, {"time": 1829, "pitch": 61, "duration": 4, "velocity": 95}, {"time": 1829, "pitch": 65, "duration": 3, "velocity": 96}, {"time": 1829, "pitch": 68, "duration": 4, "velocity": 89}, {"time": 1841, "pitch": 39, "duration": 49, "velocity": 89}, {"time": 1841, "pitch": 63, "duration": 3, "velocity": 86}, {"time": 1841, "pitch": 67, "duration": 3, "velocity": 93}, {"time": 1841, "pitch": 70, "duration": 3, "velocity": 92}, {"time": 1847, "pitch": 51, "duration": 8, "velocity": 79}, {"time": 1853, "pitch": 55, "duration": 60, "velocity": 75}, {"time": 1853, "pitch": 58, "duration": 11, "velocity": 96}, {"time": 1859, "pitch": 51, "duration": 54, "velocity": 40}, {"time": 1865, "pitch": 58, "duration": 48, "velocity": 67}, {"time": 1865, "pitch": 63, "duration": 48, "velocity": 77}, {"time": 1913, "pitch": 44, "duration": 18, "velocity": 93}, {"time": 1913, "pitch": 63, "duration": 1, "velocity": 93}, {"time": 1913, "pitch": 68, "duration": 7, "velocity": 93}, {"time": 1913, "pitch": 72, "duration": 6, "velocity": 69}, {"time": 1919, "pitch": 56, "duration": 9, "velocity": 72}, {"time": 1925, "pitch": 63, "duration": 4, "velocity": 90}, {"time": 1925, "pitch": 68, "duration": 11, "velocity": 99}, {"time": 1925, "pitch": 72, "duration": 5, "velocity": 69}, {"time": 1937, "pitch": 41, "duration": 17, "velocity": 76}, {"time": 1937, "pitch": 65, "duration": 4, "velocity": 82}, {"time": 1937, "pitch": 68, "duration": 1, "velocity": 60}, {"time": 1943, "pitch": 48, "duration": 11, "velocity": 55}, {"time": 1949, "pitch": 53, "duration": 5, "velocity": 47}, {"time": 1949, "pitch": 65, "duration": 7, "velocity": 76}, {"time": 1949, "pitch": 68, "duration": 7, "velocity": 88}, {"time": 1955, "pitch": 60, "duration": 1, "velocity": 37}, {"time": 1961, "pitch": 44, "duration": 15, "velocity": 92}, {"time": 1961, "pitch": 68, "duration": 6, "velocity": 88}, {"time": 1961, "pitch": 72, "duration": 5, "velocity": 76}, {"time": 1967, "pitch": 56, "duration": 11, "velocity": 62}, {"time": 1973, "pitch": 68, "duration": 4, "velocity": 73}, {"time": 1973, "pitch": 72, "duration": 4, "velocity": 65}, {"time": 1985, "pitch": 48, "duration": 16, "velocity": 72}, {"time": 1985, "pitch": 60, "duration": 10, "velocity": 74}, {"time": 1985, "pitch": 63, "duration": 10, "velocity": 81}, {"time": 1985, "pitch": 67, "duration": 10, "velocity": 75}, {"time": 1994, "pitch": 55, "duration": 4, "velocity": 58}, {"time": 1997, "pitch": 67, "duration": 8, "velocity": 107}, {"time": 2000, "pitch": 55, "duration": 1, "velocity": 57}, {"time": 2003, "pitch": 63, "duration": 2, "velocity": 86}, {"time": 2009, "pitch": 41, "duration": 14, "velocity": 69}, {"time": 2009, "pitch": 60, "duration": 7, "velocity": 81}, {"time": 2009, "pitch": 65, "duration": 8, "velocity": 81}, {"time": 2009, "pitch": 68, "duration": 10, "velocity": 97}, {"time": 2015, "pitch": 48, "duration": 9, "velocity": 40}, {"time": 2021, "pitch": 53, "duration": 4, "velocity": 61}, {"time": 2021, "pitch": 65, "duration": 2, "velocity": 89}, {"time": 2021, "pitch": 68, "duration": 2, "velocity": 96}, {"time": 2033, "pitch": 46, "duration": 15, "velocity": 97}, {"time": 2033, "pitch": 58, "duration": 10, "velocity": 92}, {"time": 2033, "pitch": 62, "duration": 9, "velocity": 68}, {"time": 2033, "pitch": 65, "duration": 9, "velocity": 82}, {"time": 2045, "pitch": 58, "duration": 2, "velocity": 96}, {"time": 2045, "pitch": 62, "duration": 3, "velocity": 82}, {"time": 2045, "pitch": 65, "duration": 4, "velocity": 73}, {"time": 2057, "pitch": 51, "duration": 17, "velocity": 78}, {"time": 2057, "pitch": 63, "duration": 11, "velocity": 86}, {"time": 2057, "pitch": 67, "duration": 9, "velocity": 85}, {"time": 2057, "pitch": 70, "duration": 10, "velocity": 88}, {"time": 2063, "pitch": 55, "duration": 9, "velocity": 27}, {"time": 2069, "pitch": 58, "duration": 4, "velocity": 70}, {"time": 2069, "pitch": 67, "duration": 12, "velocity": 60}, {"time": 2069, "pitch": 70, "duration": 13, "velocity": 64}, {"time": 2075, "pitch": 63, "duration": 5, "velocity": 33}, {"time": 2081, "pitch": 44, "duration": 18, "velocity": 85}, {"time": 2087, "pitch": 56, "duration": 8, "velocity": 66}, {"time": 2090, "pitch": 63, "duration": 5, "velocity": 55}, {"time": 2093, "pitch": 72, "duration": 12, "velocity": 86}, {"time": 2096, "pitch": 56, "duration": 2, "velocity": 95}, {"time": 2099, "pitch": 68, "duration": 5, "velocity": 56}, {"time": 2102, "pitch": 63, "duration": 4, "velocity": 58}, {"time": 2105, "pitch": 44, "duration": 18, "velocity": 93}, {"time": 2105, "pitch": 63, "duration": 1, "velocity": 93}, {"time": 2105, "pitch": 68, "duration": 7, "velocity": 93}, {"time": 2105, "pitch": 72, "duration": 6, "velocity": 69}, {"time": 2111, "pitch": 56, "duration": 9, "velocity": 72}, {"time": 2117, "pitch": 63, "duration": 4, "velocity": 90}, {"time": 2117, "pitch": 68, "duration": 11, "velocity": 99}, {"time": 2117, "pitch": 72, "duration": 5, "velocity": 69}, {"time": 2129, "pitch": 41, "duration": 17, "velocity": 76}, {"time": 2129, "pitch": 65, "duration": 4, "velocity": 82}, {"time": 2129, "pitch": 68, "duration": 1, "velocity": 60}, {"time": 2135, "pitch": 48, "duration": 11, "velocity": 55}, {"time": 2141, "pitch": 53, "duration": 5, "velocity": 47}, {"time": 2141, "pitch": 65, "duration": 7, "velocity": 76}, {"time": 2141, "pitch": 68, "duration": 7, "velocity": 88}, {"time": 2147, "pitch": 60, "duration": 1, "velocity": 37}, {"time": 2153, "pitch": 44, "duration": 15, "velocity": 92}, {"time": 2153, "pitch": 68, "duration": 6, "velocity": 88}, {"time": 2153, "pitch": 72, "duration": 5, "velocity": 76}, {"time": 2159, "pitch": 56, "duration": 11, "velocity": 62}, {"time": 2165, "pitch": 68, "duration": 4, "velocity": 73}, {"time": 2165, "pitch": 72, "duration": 4, "velocity": 65}, {"time": 2177, "pitch": 48, "duration": 16, "velocity": 72}, {"time": 2177, "pitch": 60, "duration": 10, "velocity": 74}, {"time": 2177, "pitch": 63, "duration": 10, "velocity": 81}, {"time": 2177, "pitch": 67, "duration": 10, "velocity": 75}, {"time": 2186, "pitch": 55, "duration": 4, "velocity": 58}, {"time": 2189, "pitch": 67, "duration": 8, "velocity": 107}, {"time": 2192, "pitch": 55, "duration": 1, "velocity": 57}, {"time": 2195, "pitch": 63, "duration": 2, "velocity": 86}, {"time": 2201, "pitch": 41, "duration": 14, "velocity": 69}, {"time": 2201, "pitch": 60, "duration": 7, "velocity": 81}, {"time": 2201, "pitch": 65, "duration": 8, "velocity": 81}, {"time": 2201, "pitch": 68, "duration": 10, "velocity": 97}, {"time": 2207, "pitch": 48, "duration": 9, "velocity": 40}, {"time": 2213, "pitch": 53, "duration": 4, "velocity": 61}, {"time": 2213, "pitch": 65, "duration": 2, "velocity": 89}, {"time": 2213, "pitch": 68, "duration": 2, "velocity": 96}, {"time": 2225, "pitch": 46, "duration": 15, "velocity": 97}, {"time": 2225, "pitch": 58, "duration": 10, "velocity": 92}, {"time": 2225, "pitch": 62, "duration": 9, "velocity": 68}, {"time": 2225, "pitch": 65, "duration": 9, "velocity": 82}, {"time": 2237, "pitch": 58, "duration": 2, "velocity": 96}, {"time": 2237, "pitch": 62, "duration": 3, "velocity": 82}, {"time": 2237, "pitch": 65, "duration": 4, "velocity": 73}, {"time": 2249, "pitch": 39, "duration": 36, "velocity": 74}, {"time": 2249, "pitch": 63, "duration": 9, "velocity": 92}, {"time": 2249, "pitch": 67, "duration": 6, "velocity": 82}, {"time": 2249, "pitch": 70, "duration": 7, "velocity": 83}, {"time": 2255, "pitch": 51, "duration": 8, "velocity": 59}, {"time": 2261, "pitch": 63, "duration": 7, "velocity": 88}, {"time": 2261, "pitch": 67, "duration": 6, "velocity": 99}, {"time": 2261, "pitch": 70, "duration": 6, "velocity": 92}, {"time": 2267, "pitch": 51, "duration": 9, "velocity": 37}, {"time": 2273, "pitch": 63, "duration": 6, "velocity": 96}, {"time": 2273, "pitch": 67, "duration": 5, "velocity": 99}, {"time": 2273, "pitch": 70, "duration": 6, "velocity": 92}, {"time": 2279, "pitch": 51, "duration": 5, "velocity": 42}, {"time": 2285, "pitch": 67, "duration": 3, "velocity": 96}, {"time": 2285, "pitch": 70, "duration": 4, "velocity": 100}, {"time": 2297, "pitch": 41, "duration": 34, "velocity": 79}, {"time": 2297, "pitch": 60, "duration": 9, "velocity": 100}, {"time": 2297, "pitch": 65, "duration": 9, "velocity": 95}, {"time": 2297, "pitch": 68, "duration": 10, "velocity": 99}, {"time": 2303, "pitch": 48, "duration": 28, "velocity": 35}, {"time": 2309, "pitch": 60, "duration": 7, "velocity": 89}, {"time": 2309, "pitch": 65, "duration": 10, "velocity": 95}, {"time": 2309, "pitch": 68, "duration": 10, "velocity": 96}, {"time": 2315, "pitch": 53, "duration": 10, "velocity": 36}, {"time": 2321, "pitch": 60, "duration": 9, "velocity": 90}, {"time": 2321, "pitch": 65, "duration": 9, "velocity": 97}, {"time": 2321, "pitch": 68, "duration": 5, "velocity": 102}, {"time": 2327, "pitch": 53, "duration": 4, "velocity": 37}, {"time": 2333, "pitch": 41, "duration": 12, "velocity": 78}, {"time": 2333, "pitch": 48, "duration": 1, "velocity": 66}, {"time": 2333, "pitch": 53, "duration": 12, "velocity": 102}, {"time": 2333, "pitch": 60, "duration": 12, "velocity": 99}, {"time": 2333, "pitch": 63, "duration": 12, "velocity": 127}, {"time": 2333, "pitch": 65, "duration": 12, "velocity": 107}, {"time": 2333, "pitch": 69, "duration": 12, "velocity": 117}, {"time": 2345, "pitch": 46, "duration": 16, "velocity": 117}, {"time": 2345, "pitch": 65, "duration": 1, "velocity": 93}, {"time": 2345, "pitch": 70, "duration": 9, "velocity": 112}, {"time": 2345, "pitch": 73, "duration": 7, "velocity": 107}, {"time": 2351, "pitch": 58, "duration": 7, "velocity": 92}, {"time": 2357, "pitch": 65, "duration": 3, "velocity": 95}, {"time": 2357, "pitch": 70, "duration": 6, "velocity": 127}, {"time": 2357, "pitch": 73, "duration": 6, "velocity": 127}, {"time": 2360, "pitch": 58, "duration": 1, "velocity": 85}, {"time": 2363, "pitch": 65, "duration": 2, "velocity": 107}, {"time": 2369, "pitch": 39, "duration": 1, "velocity": 107}, {"time": 2369, "pitch": 63, "duration": 10, "velocity": 99}, {"time": 2369, "pitch": 67, "duration": 7, "velocity": 97}, {"time": 2369, "pitch": 70, "duration": 7, "velocity": 100}, {"time": 2381, "pitch": 63, "duration": 3, "velocity": 96}, {"time": 2381, "pitch": 67, "duration": 5, "velocity": 122}, {"time": 2381, "pitch": 70, "duration": 5, "velocity": 122}, {"time": 2384, "pitch": 58, "duration": 1, "velocity": 107}, {"time": 2387, "pitch": 63, "duration": 2, "velocity": 112}, {"time": 2393, "pitch": 44, "duration": 15, "velocity": 100}, {"time": 2393, "pitch": 63, "duration": 6, "velocity": 107}, {"time": 2393, "pitch": 68, "duration": 6, "velocity": 107}, {"time": 2393, "pitch": 72, "duration": 5, "velocity": 93}, {"time": 2399, "pitch": 56, "duration": 7, "velocity": 85}, {"time": 2405, "pitch": 63, "duration": 3, "velocity": 102}, {"time": 2405, "pitch": 68, "duration": 5, "velocity": 122}, {"time": 2405, "pitch": 72, "duration": 6, "velocity": 97}, {"time": 2408, "pitch": 56, "duration": 2, "velocity": 100}, {"time": 2411, "pitch": 63, "duration": 1, "velocity": 102}, {"time": 2417, "pitch": 49, "duration": 16, "velocity": 73}, {"time": 2417, "pitch": 56, "duration": 12, "velocity": 102}, {"time": 2417, "pitch": 61, "duration": 6, "velocity": 112}, {"time": 2417, "pitch": 65, "duration": 6, "velocity": 99}, {"time": 2417, "pitch": 68, "duration": 6, "velocity": 102}, {"time": 2426, "pitch": 53, "duration": 6, "velocity": 33}, {"time": 2429, "pitch": 61, "duration": 2, "velocity": 93}, {"time": 2429, "pitch": 65, "duration": 5, "velocity": 122}, {"time": 2429, "pitch": 68, "duration": 5, "velocity": 122}, {"time": 2432, "pitch": 56, "duration": 1, "velocity": 100}, {"time": 2435, "pitch": 61, "duration": 1, "velocity": 102}, {"time": 2441, "pitch": 43, "duration": 15, "velocity": 85}, {"time": 2441, "pitch": 55, "duration": 9, "velocity": 107}, {"time": 2441, "pitch": 58, "duration": 10, "velocity": 117}, {"time": 2441, "pitch": 61, "duration": 9, "velocity": 112}, {"time": 2447, "pitch": 50, "duration": 6, "velocity": 56}, {"time": 2453, "pitch": 50, "duration": 1, "velocity": 66}, {"time": 2453, "pitch": 58, "duration": 6, "velocity": 127}, {"time": 2453, "pitch": 61, "duration": 6, "velocity": 117}, {"time": 2459, "pitch": 55, "duration": 1, "velocity": 89}, {"time": 2465, "pitch": 48, "duration": 16, "velocity": 83}, {"time": 2465, "pitch": 60, "duration": 8, "velocity": 100}, {"time": 2465, "pitch": 64, "duration": 10, "velocity": 96}, {"time": 2465, "pitch": 67, "duration": 10, "velocity": 96}, {"time": 2471, "pitch": 55, "duration": 7, "velocity": 38}, {"time": 2477, "pitch": 64, "duration": 6, "velocity": 122}, {"time": 2477, "pitch": 67, "duration": 6, "velocity": 112}, {"time": 2480, "pitch": 55, "duration": 1, "velocity": 82}, {"time": 2483, "pitch": 60, "duration": 4, "velocity": 97}, {"time": 2489, "pitch": 41, "duration": 22, "velocity": 93}, {"time": 2489, "pitch": 60, "duration": 10, "velocity": 102}, {"time": 2489, "pitch": 65, "duration": 10, "velocity": 112}, {"time": 2489, "pitch": 68, "duration": 10, "velocity": 127}, {"time": 2495, "pitch": 48, "duration": 17, "velocity": 36}, {"time": 2498, "pitch": 53, "duration": 4, "velocity": 75}, {"time": 2501, "pitch": 60, "duration": 4, "velocity": 97}, {"time": 2501, "pitch": 65, "duration": 8, "velocity": 117}, {"time": 2501, "pitch": 68, "duration": 6, "velocity": 127}, {"time": 2504, "pitch": 53, "duration": 2, "velocity": 83}, {"time": 2507, "pitch": 60, "duration": 4, "velocity": 86}, {"time": 2510, "pitch": 65, "duration": 1, "velocity": 37}, {"time": 2513, "pitch": 41, "duration": 17, "velocity": 89}, {"time": 2513, "pitch": 60, "duration": 10, "velocity": 107}, {"time": 2513, "pitch": 63, "duration": 10, "velocity": 127}, {"time": 2513, "pitch": 65, "duration": 10, "velocity": 117}, {"time": 2519, "pitch": 48, "duration": 11, "velocity": 42}, {"time": 2525, "pitch": 60, "duration": 3, "velocity": 102}, {"time": 2525, "pitch": 63, "duration": 6, "velocity": 127}, {"time": 2525, "pitch": 65, "duration": 6, "velocity": 122}, {"time": 2525, "pitch": 69, "duration": 6, "velocity": 117}, {"time": 2528, "pitch": 53, "duration": 3, "velocity": 90}, {"time": 2531, "pitch": 60, "duration": 1, "velocity": 82}, {"time": 2537, "pitch": 46, "duration": 16, "velocity": 112}, {"time": 2537, "pitch": 65, "duration": 9, "velocity": 93}, {"time": 2537, "pitch": 70, "duration": 9, "velocity": 122}, {"time": 2537, "pitch": 73, "duration": 7, "velocity": 117}, {"time": 2543, "pitch": 58, "duration": 6, "velocity": 88}, {"time": 2549, "pitch": 65, "duration": 1, "velocity": 73}, {"time": 2549, "pitch": 70, "duration": 6, "velocity": 127}, {"time": 2549, "pitch": 73, "duration": 5, "velocity": 127}, {"time": 2552, "pitch": 58, "duration": 2, "velocity": 102}, {"time": 2555, "pitch": 65, "duration": 2, "velocity": 107}, {"time": 2561, "pitch": 51, "duration": 16, "velocity": 93}, {"time": 2561, "pitch": 63, "duration": 9, "velocity": 97}, {"time": 2561, "pitch": 67, "duration": 9, "velocity": 96}, {"time": 2561, "pitch": 70, "duration": 9, "velocity": 93}, {"time": 2567, "pitch": 55, "duration": 10, "velocity": 59}, {"time": 2570, "pitch": 58, "duration": 3, "velocity": 83}, {"time": 2573, "pitch": 67, "duration": 5, "velocity": 122}, {"time": 2573, "pitch": 70, "duration": 6, "velocity": 122}, {"time": 2576, "pitch": 58, "duration": 1, "velocity": 96}, {"time": 2579, "pitch": 63, "duration": 1, "velocity": 100}, {"time": 2585, "pitch": 44, "duration": 16, "velocity": 97}, {"time": 2585, "pitch": 60, "duration": 7, "velocity": 89}, {"time": 2585, "pitch": 63, "duration": 8, "velocity": 99}, {"time": 2591, "pitch": 56, "duration": 6, "velocity": 92}, {"time": 2594, "pitch": 60, "duration": 2, "velocity": 72}, {"time": 2597, "pitch": 63, "duration": 5, "velocity": 107}, {"time": 2597, "pitch": 68, "duration": 6, "velocity": 127}, {"time": 2600, "pitch": 56, "duration": 2, "velocity": 95}, {"time": 2603, "pitch": 60, "duration": 1, "velocity": 93}, {"time": 2609, "pitch": 49, "duration": 17, "velocity": 82}, {"time": 2609, "pitch": 61, "duration": 9, "velocity": 100}, {"time": 2609, "pitch": 65, "duration": 8, "velocity": 95}, {"time": 2609, "pitch": 68, "duration": 9, "velocity": 97}, {"time": 2615, "pitch": 53, "duration": 10, "velocity": 40}, {"time": 2618, "pitch": 56, "duration": 4, "velocity": 65}, {"time": 2621, "pitch": 61, "duration": 3, "velocity": 93}, {"time": 2621, "pitch": 65, "duration": 5, "velocity": 117}, {"time": 2621, "pitch": 68, "duration": 5, "velocity": 117}, {"time": 2624, "pitch": 56, "duration": 2, "velocity": 63}, {"time": 2627, "pitch": 61, "duration": 1, "velocity": 92}, {"time": 2633, "pitch": 46, "duration": 15, "velocity": 89}, {"time": 2633, "pitch": 58, "duration": 10, "velocity": 122}, {"time": 2633, "pitch": 61, "duration": 10, "velocity": 112}, {"time": 2645, "pitch": 58, "duration": 5, "velocity": 127}, {"time": 2645, "pitch": 61, "duration": 5, "velocity": 117}, {"time": 2645, "pitch": 65, "duration": 6, "velocity": 96}, {"time": 2651, "pitch": 46, "duration": 1, "velocity": 89}, {"time": 2657, "pitch": 48, "duration": 50, "velocity": 78}, {"time": 2657, "pitch": 60, "duration": 49, "velocity": 89}, {"time": 2657, "pitch": 64, "duration": 49, "velocity": 90}, {"time": 2657, "pitch": 67, "duration": 50, "velocity": 89}, {"time": 2669, "pitch": 55, "duration": 38, "velocity": 37}, {"time": 2705, "pitch": 41, "duration": 18, "velocity": 78}, {"time": 2705, "pitch": 60, "duration": 1, "velocity": 89}, {"time": 2705, "pitch": 65, "duration": 9, "velocity": 93}, {"time": 2705, "pitch": 68, "duration": 9, "velocity": 95}, {"time": 2711, "pitch": 48, "duration": 8, "velocity": 52}, {"time": 2717, "pitch": 60, "duration": 6, "velocity": 77}, {"time": 2717, "pitch": 65, "duration": 5, "velocity": 95}, {"time": 2717, "pitch": 68, "duration": 6, "velocity": 99}, {"time": 2729, "pitch": 51, "duration": 15, "velocity": 92}, {"time": 2729, "pitch": 63, "duration": 9, "velocity": 95}, {"time": 2729, "pitch": 67, "duration": 9, "velocity": 97}, {"time": 2729, "pitch": 70, "duration": 7, "velocity": 95}, {"time": 2741, "pitch": 63, "duration": 8, "velocity": 97}, {"time": 2741, "pitch": 67, "duration": 6, "velocity": 117}, {"time": 2741, "pitch": 70, "duration": 7, "velocity": 99}, {"time": 2747, "pitch": 51, "duration": 5, "velocity": 66}, {"time": 2753, "pitch": 49, "duration": 15, "velocity": 90}, {"time": 2753, "pitch": 61, "duration": 9, "velocity": 100}, {"time": 2753, "pitch": 65, "duration": 7, "velocity": 117}, {"time": 2753, "pitch": 68, "duration": 7, "velocity": 102}, {"time": 2765, "pitch": 61, "duration": 6, "velocity": 100}, {"time": 2765, "pitch": 65, "duration": 5, "velocity": 122}, {"time": 2765, "pitch": 68, "duration": 6, "velocity": 107}, {"time": 2771, "pitch": 49, "duration": 4, "velocity": 56}, {"time": 2777, "pitch": 39, "duration": 23, "velocity": 93}, {"time": 2777, "pitch": 63, "duration": 7, "velocity": 112}, {"time": 2777, "pitch": 67, "duration": 7, "velocity": 88}, {"time": 2777, "pitch": 70, "duration": 6, "velocity": 96}, {"time": 2783, "pitch": 51, "duration": 7, "velocity": 49}, {"time": 2789, "pitch": 63, "duration": 11, "velocity": 122}, {"time": 2789, "pitch": 67, "duration": 11, "velocity": 92}, {"time": 2789, "pitch": 70, "duration": 11, "velocity": 88}, {"time": 2795, "pitch": 51, "duration": 6, "velocity": 77}, {"time": 2801, "pitch": 48, "duration": 19, "velocity": 78}, {"time": 2801, "pitch": 65, "duration": 6, "velocity": 96}, {"time": 2801, "pitch": 68, "duration": 6, "velocity": 122}, {"time": 2801, "pitch": 72, "duration": 6, "velocity": 96}, {"time": 2807, "pitch": 55, "duration": 7, "velocity": 64}, {"time": 2813, "pitch": 68, "duration": 6, "velocity": 127}, {"time": 2813, "pitch": 72, "duration": 6, "velocity": 97}, {"time": 2819, "pitch": 55, "duration": 1, "velocity": 75}, {"time": 2825, "pitch": 51, "duration": 18, "velocity": 96}, {"time": 2825, "pitch": 63, "duration": 7, "velocity": 92}, {"time": 2825, "pitch": 67, "duration": 6, "velocity": 85}, {"time": 2825, "pitch": 70, "duration": 6, "velocity": 93}, {"time": 2831, "pitch": 55, "duration": 16, "velocity": 31}, {"time": 2837, "pitch": 63, "duration": 7, "velocity": 97}, {"time": 2837, "pitch": 67, "duration": 5, "velocity": 112}, {"time": 2837, "pitch": 70, "duration": 6, "velocity": 99}, {"time": 2843, "pitch": 58, "duration": 5, "velocity": 78}, {"time": 2849, "pitch": 49, "duration": 15, "velocity": 88}, {"time": 2849, "pitch": 61, "duration": 8, "velocity": 92}, {"time": 2849, "pitch": 65, "duration": 8, "velocity": 89}, {"time": 2849, "pitch": 68, "duration": 7, "velocity": 88}, {"time": 2861, "pitch": 61, "duration": 7, "velocity": 96}, {"time": 2861, "pitch": 65, "duration": 11, "velocity": 100}, {"time": 2861, "pitch": 68, "duration": 11, "velocity": 100}, {"time": 2867, "pitch": 49, "duration": 5, "velocity": 95}, {"time": 2873, "pitch": 48, "duration": 23, "velocity": 79}, {"time": 2873, "pitch": 60, "duration": 8, "velocity": 100}, {"time": 2873, "pitch": 64, "duration": 7, "velocity": 93}, {"time": 2873, "pitch": 67, "duration": 7, "velocity": 90}, {"time": 2879, "pitch": 55, "duration": 8, "velocity": 50}, {"time": 2885, "pitch": 64, "duration": 11, "velocity": 95}, {"time": 2885, "pitch": 67, "duration": 11, "velocity": 90}, {"time": 2891, "pitch": 60, "duration": 5, "velocity": 100}, {"time": 2897, "pitch": 41, "duration": 18, "velocity": 73}, {"time": 2897, "pitch": 60, "duration": 7, "velocity": 88}, {"time": 2897, "pitch": 65, "duration": 6, "velocity": 95}, {"time": 2897, "pitch": 68, "duration": 6, "velocity": 95}, {"time": 2903, "pitch": 53, "duration": 9, "velocity": 62}, {"time": 2909, "pitch": 65, "duration": 5, "velocity": 99}, {"time": 2909, "pitch": 68, "duration": 7, "velocity": 117}, {"time": 2915, "pitch": 53, "duration": 2, "velocity": 56}, {"time": 2921, "pitch": 49, "duration": 15, "velocity": 89}, {"time": 2921, "pitch": 61, "duration": 7, "velocity": 93}, {"time": 2921, "pitch": 65, "duration": 7, "velocity": 93}, {"time": 2921, "pitch": 68, "duration": 7, "velocity": 93}, {"time": 2933, "pitch": 61, "duration": 7, "velocity": 97}, {"time": 2933, "pitch": 65, "duration": 10, "velocity": 112}, {"time": 2933, "pitch": 68, "duration": 10, "velocity": 97}, {"time": 2939, "pitch": 49, "duration": 4, "velocity": 89}, {"time": 2945, "pitch": 46, "duration": 15, "velocity": 88}, {"time": 2945, "pitch": 58, "duration": 10, "velocity": 107}, {"time": 2945, "pitch": 61, "duration": 10, "velocity": 97}, {"time": 2945, "pitch": 65, "duration": 7, "velocity": 79}, {"time": 2957, "pitch": 58, "duration": 7, "velocity": 107}, {"time": 2957, "pitch": 61, "duration": 9, "velocity": 96}, {"time": 2957, "pitch": 65, "duration": 8, "velocity": 77}, {"time": 2963, "pitch": 46, "duration": 5, "velocity": 92}, {"time": 2969, "pitch": 48, "duration": 23, "velocity": 88}, {"time": 2969, "pitch": 60, "duration": 8, "velocity": 93}, {"time": 2969, "pitch": 64, "duration": 10, "velocity": 92}, {"time": 2969, "pitch": 67, "duration": 10, "velocity": 85}, {"time": 2975, "pitch": 55, "duration": 17, "velocity": 52}, {"time": 2981, "pitch": 64, "duration": 11, "velocity": 99}, {"time": 2981, "pitch": 67, "duration": 11, "velocity": 95}, {"time": 2987, "pitch": 60, "duration": 5, "velocity": 93}, {"time": 2993, "pitch": 41, "duration": 18, "velocity": 71}, {"time": 2993, "pitch": 60, "duration": 7, "velocity": 93}, {"time": 2993, "pitch": 65, "duration": 6, "velocity": 95}, {"time": 2993, "pitch": 68, "duration": 6, "velocity": 96}, {"time": 2999, "pitch": 53, "duration": 8, "velocity": 73}, {"time": 3005, "pitch": 60, "duration": 7, "velocity": 92}, {"time": 3005, "pitch": 65, "duration": 5, "velocity": 95}, {"time": 3005, "pitch": 68, "duration": 7, "velocity": 97}, {"time": 3011, "pitch": 53, "duration": 5, "velocity": 66}, {"time": 3017, "pitch": 49, "duration": 16, "velocity": 78}, {"time": 3017, "pitch": 61, "duration": 9, "velocity": 97}, {"time": 3017, "pitch": 65, "duration": 7, "velocity": 97}, {"time": 3017, "pitch": 68, "duration": 7, "velocity": 97}, {"time": 3029, "pitch": 61, "duration": 8, "velocity": 96}, {"time": 3029, "pitch": 65, "duration": 7, "velocity": 112}, {"time": 3029, "pitch": 68, "duration": 8, "velocity": 102}, {"time": 3035, "pitch": 49, "duration": 5, "velocity": 57}, {"time": 3041, "pitch": 46, "duration": 15, "velocity": 97}, {"time": 3041, "pitch": 58, "duration": 9, "velocity": 100}, {"time": 3041, "pitch": 61, "duration": 9, "velocity": 99}, {"time": 3041, "pitch": 65, "duration": 6, "velocity": 82}, {"time": 3053, "pitch": 58, "duration": 11, "velocity": 117}, {"time": 3053, "pitch": 61, "duration": 11, "velocity": 97}, {"time": 3053, "pitch": 65, "duration": 11, "velocity": 77}, {"time": 3059, "pitch": 46, "duration": 5, "velocity": 95}, {"time": 3065, "pitch": 64, "duration": 37, "velocity": 90}, {"time": 3065, "pitch": 60, "duration": 37, "velocity": 93}, {"time": 3065, "pitch": 48, "duration": 34, "velocity": 73}, {"time": 3065, "pitch": 67, "duration": 37, "velocity": 85}, {"time": 3065, "pitch": 36, "duration": 34, "velocity": 58}, {"time": 3155, "pitch": 41, "duration": 65, "velocity": 85}, {"time": 3155, "pitch": 65, "duration": 14, "velocity": 77}, {"time": 3155, "pitch": 60, "duration": 15, "velocity": 82}, {"time": 3155, "pitch": 68, "duration": 14, "velocity": 83}, {"time": 3167, "pitch": 48, "duration": 53, "velocity": 40}, {"time": 3172, "pitch": 53, "duration": 48, "velocity": 50}, {"time": 3177, "pitch": 56, "duration": 6, "velocity": 60}, {"time": 3183, "pitch": 60, "duration": 1, "velocity": 57}, {"time": 3189, "pitch": 65, "duration": 1, "velocity": 86}, {"time": 3196, "pitch": 68, "duration": 1, "velocity": 102}, {"time": 3202, "pitch": 72, "duration": 1, "velocity": 70}, {"time": 3210, "pitch": 77, "duration": 2, "velocity": 122}], "annotations": [{"time": 16, "annotation": {"number": 64, "value": 127}, "group": "control_change"}, {"time": 20, "annotation": {"number": 64, "value": 0}, "group": "control_change"}, {"time": 28, "annotation": {"number": 64, "value": 127}, "group": "control_change"}, {"time": 52, "annotation": {"number": 64, "value": 127}, "group": "control_change"}, {"time": 58, "annotation": {"number": 64, "value": 0}, "group": "control_change"}, {"time": 64, "annotation": {"number": 64, "value": 0}, "group": "control_change"}, {"time": 65, "annotation": {"number": 64, "value": 127}, "group": "control_change"}, {"time": 112, "annotation": {"number": 64, "value": 0}, "group": "control_change"}, {"time": 113, "annotation": {"number": 64, "value": 127}, "group": "control_change"}, {"time": 135, "annotation": {"number": 64, "value": 0}, "group": "control_change"}, {"time": 137, "annotation": {"number": 64, "value": 127}, "group": "control_change"}, {"time": 159, "annotation": {"number": 64, "value": 0}, "group": "control_change"}, {"time": 161, "annotation": {"number": 64, "value": 127}, "group": "control_change"}, {"time": 207, "annotation": {"number": 64, "value": 0}, "group": "control_change"}, {"time": 209, "annotation": {"number": 64, "value": 127}, "group": "control_change"}, {"time": 255, "annotation": {"number": 64, "value": 0}, "group": "control_change"}, {"time": 257, "annotation": {"number": 64, "value": 127}, "group": "control_change"}, {"time": 304, "annotation": {"number": 64, "value": 0}, "group": "control_change"}, {"time": 307, "annotation": {"number": 64, "value": 127}, "group": "control_change"}, {"time": 327, "annotation": {"number": 64, "value": 0}, "group": "control_change"}, {"time": 330, "annotation": {"number": 64, "value": 127}, "group": "control_change"}, {"time": 398, "annotation": {"number": 64, "value": 0}, "group": "control_change"}, {"time": 424, "annotation": {"number": 64, "value": 127}, "group": "control_change"}, {"time": 448, "annotation": {"number": 64, "value": 0}, "group": "control_change"}, {"time": 450, "annotation": {"number": 64, "value": 127}, "group": "control_change"}, {"time": 471, "annotation": {"number": 64, "value": 0}, "group": "control_change"}, {"time": 473, "annotation": {"number": 64, "value": 127}, "group": "control_change"}, {"time": 495, "annotation": {"number": 64, "value": 0}, "group": "control_change"}, {"time": 497, "annotation": {"number": 64, "value": 127}, "group": "control_change"}, {"time": 519, "annotation": {"number": 64, "value": 0}, "group": "control_change"}, {"time": 521, "annotation": {"number": 64, "value": 127}, "group": "control_change"}, {"time": 543, "annotation": {"number": 64, "value": 0}, "group": "control_change"}, {"time": 545, "annotation": {"number": 64, "value": 127}, "group": "control_change"}, {"time": 568, "annotation": {"number": 64, "value": 0}, "group": "control_change"}, {"time": 573, "annotation": {"number": 64, "value": 127}, "group": "control_change"}, {"time": 591, "annotation": {"number": 64, "value": 0}, "group": "control_change"}, {"time": 594, "annotation": {"number": 64, "value": 127}, "group": "control_change"}, {"time": 615, "annotation": {"number": 64, "value": 0}, "group": "control_change"}, {"time": 617, "annotation": {"number": 64, "value": 127}, "group": "control_change"}, {"time": 640, "annotation": {"number": 64, "value": 0}, "group": "control_change"}, {"time": 642, "annotation": {"number": 64, "value": 127}, "group": "control_change"}, {"time": 664, "annotation": {"number": 64, "value": 0}, "group": "control_change"}, {"time": 666, "annotation": {"number": 64, "value": 127}, "group": "control_change"}, {"time": 688, "annotation": {"number": 64, "value": 0}, "group": "control_change"}, {"time": 690, "annotation": {"number": 64, "value": 127}, "group": "control_change"}, {"time": 711, "annotation": {"number": 64, "value": 0}, "group": "control_change"}, {"time": 713, "annotation": {"number": 64, "value": 127}, "group": "control_change"}, {"time": 735, "annotation": {"number": 64, "value": 0}, "group": "control_change"}, {"time": 737, "annotation": {"number": 64, "value": 127}, "group": "control_change"}, {"time": 761, "annotation": {"number": 64, "value": 0}, "group": "control_change"}, {"time": 766, "annotation": {"number": 64, "value": 127}, "group": "control_change"}, {"time": 784, "annotation": {"number": 64, "value": 0}, "group": "control_change"}, {"time": 786, "annotation": {"number": 64, "value": 127}, "group": "control_change"}, {"time": 807, "annotation": {"number": 64, "value": 0}, "group": "control_change"}, {"time": 809, "annotation": {"number": 64, "value": 127}, "group": "control_change"}, {"time": 832, "annotation": {"number": 64, "value": 0}, "group": "control_change"}, {"time": 834, "annotation": {"number": 64, "value": 127}, "group": "control_change"}, {"time": 856, "annotation": {"number": 64, "value": 0}, "group": "control_change"}, {"time": 858, "annotation": {"number": 64, "value": 127}, "group": "control_change"}, {"time": 880, "annotation": {"number": 64, "value": 0}, "group": "control_change"}, {"time": 882, "annotation": {"number": 64, "value": 127}, "group": "control_change"}, {"time": 903, "annotation": {"number": 64, "value": 0}, "group": "control_change"}, {"time": 905, "annotation": {"number": 64, "value": 127}, "group": "control_change"}, {"time": 927, "annotation": {"number": 64, "value": 0}, "group": "control_change"}, {"time": 929, "annotation": {"number": 64, "value": 127}, "group": "control_change"}, {"time": 952, "annotation": {"number": 64, "value": 127}, "group": "control_change"}, {"time": 953, "annotation": {"number": 64, "value": 0}, "group": "control_change"}, {"time": 999, "annotation": {"number": 64, "value": 0}, "group": "control_change"}, {"time": 1001, "annotation": {"number": 64, "value": 127}, "group": "control_change"}, {"time": 1035, "annotation": {"number": 64, "value": 0}, "group": "control_change"}, {"time": 1048, "annotation": {"number": 64, "value": 127}, "group": "control_change"}, {"time": 1096, "annotation": {"number": 64, "value": 0}, "group": "control_change"}, {"time": 1098, "annotation": {"number": 64, "value": 127}, "group": "control_change"}, {"time": 1120, "annotation": {"number": 64, "value": 0}, "group": "control_change"}, {"time": 1121, "annotation": {"number": 64, "value": 127}, "group": "control_change"}, {"time": 1143, "annotation": {"number": 64, "value": 0}, "group": "control_change"}, {"time": 1145, "annotation": {"number": 64, "value": 127}, "group": "control_change"}, {"time": 1167, "annotation": {"number": 64, "value": 0}, "group": "control_change"}, {"time": 1169, "annotation": {"number": 64, "value": 127}, "group": "control_change"}, {"time": 1190, "annotation": {"number": 64, "value": 0}, "group": "control_change"}, {"time": 1193, "annotation": {"number": 64, "value": 127}, "group": "control_change"}, {"time": 1214, "annotation": {"number": 64, "value": 0}, "group": "control_change"}, {"time": 1217, "annotation": {"number": 64, "value": 127}, "group": "control_change"}, {"time": 1239, "annotation": {"number": 64, "value": 0}, "group": "control_change"}, {"time": 1241, "annotation": {"number": 64, "value": 127}, "group": "control_change"}, {"time": 1263, "annotation": {"number": 64, "value": 0}, "group": "control_change"}, {"time": 1265, "annotation": {"number": 64, "value": 127}, "group": "control_change"}, {"time": 1287, "annotation": {"number": 64, "value": 0}, "group": "control_change"}, {"time": 1289, "annotation": {"number": 64, "value": 127}, "group": "control_change"}, {"time": 1311, "annotation": {"number": 64, "value": 0}, "group": "control_change"}, {"time": 1313, "annotation": {"number": 64, "value": 127}, "group": "control_change"}, {"time": 1335, "annotation": {"number": 64, "value": 0}, "group": "control_change"}, {"time": 1337, "annotation": {"number": 64, "value": 127}, "group": "control_change"}, {"time": 1359, "annotation": {"number": 64, "value": 0}, "group": "control_change"}, {"time": 1361, "annotation": {"number": 64, "value": 127}, "group": "control_change"}, {"time": 1407, "annotation": {"number": 64, "value": 0}, "group": "control_change"}, {"time": 1409, "annotation": {"number": 64, "value": 127}, "group": "control_change"}, {"time": 1432, "annotation": {"number": 64, "value": 0}, "group": "control_change"}, {"time": 1435, "annotation": {"number": 64, "value": 127}, "group": "control_change"}, {"time": 1455, "annotation": {"number": 64, "value": 0}, "group": "control_change"}, {"time": 1457, "annotation": {"number": 64, "value": 127}, "group": "control_change"}, {"time": 1480, "annotation": {"number": 64, "value": 0}, "group": "control_change"}, {"time": 1506, "annotation": {"number": 64, "value": 127}, "group": "control_change"}, {"time": 1599, "annotation": {"number": 64, "value": 0}, "group": "control_change"}, {"time": 1599, "annotation": {"number": 64, "value": 127}, "group": "control_change"}, {"time": 1624, "annotation": {"number": 64, "value": 0}, "group": "control_change"}, {"time": 1628, "annotation": {"number": 64, "value": 127}, "group": "control_change"}, {"time": 1646, "annotation": {"number": 64, "value": 0}, "group": "control_change"}, {"time": 1649, "annotation": {"number": 64, "value": 127}, "group": "control_change"}, {"time": 1671, "annotation": {"number": 64, "value": 0}, "group": "control_change"}, {"time": 1673, "annotation": {"number": 64, "value": 127}, "group": "control_change"}, {"time": 1695, "annotation": {"number": 64, "value": 0}, "group": "control_change"}, {"time": 1697, "annotation": {"number": 64, "value": 127}, "group": "control_change"}, {"time": 1743, "annotation": {"number": 64, "value": 0}, "group": "control_change"}, {"time": 1744, "annotation": {"number": 64, "value": 127}, "group": "control_change"}, {"time": 1790, "annotation": {"number": 64, "value": 0}, "group": "control_change"}, {"time": 1793, "annotation": {"number": 64, "value": 127}, "group": "control_change"}, {"time": 1814, "annotation": {"number": 64, "value": 0}, "group": "control_change"}, {"time": 1817, "annotation": {"number": 64, "value": 127}, "group": "control_change"}, {"time": 1839, "annotation": {"number": 64, "value": 0}, "group": "control_change"}, {"time": 1841, "annotation": {"number": 64, "value": 127}, "group": "control_change"}, {"time": 1868, "annotation": {"number": 64, "value": 0}, "group": "control_change"}, {"time": 1913, "annotation": {"number": 64, "value": 127}, "group": "control_change"}, {"time": 1936, "annotation": {"number": 64, "value": 0}, "group": "control_change"}, {"time": 1938, "annotation": {"number": 64, "value": 127}, "group": "control_change"}, {"time": 1960, "annotation": {"number": 64, "value": 0}, "group": "control_change"}, {"time": 1962, "annotation": {"number": 64, "value": 127}, "group": "control_change"}, {"time": 1984, "annotation": {"number": 64, "value": 0}, "group": "control_change"}, {"time": 1986, "annotation": {"number": 64, "value": 127}, "group": "control_change"}, {"time": 2007, "annotation": {"number": 64, "value": 0}, "group": "control_change"}, {"time": 2009, "annotation": {"number": 64, "value": 127}, "group": "control_change"}, {"time": 2031, "annotation": {"number": 64, "value": 0}, "group": "control_change"}, {"time": 2033, "annotation": {"number": 64, "value": 127}, "group": "control_change"}, {"time": 2057, "annotation": {"number": 64, "value": 0}, "group": "control_change"}, {"time": 2062, "annotation": {"number": 64, "value": 127}, "group": "control_change"}, {"time": 2080, "annotation": {"number": 64, "value": 0}, "group": "control_change"}, {"time": 2082, "annotation": {"number": 64, "value": 127}, "group": "control_change"}, {"time": 2103, "annotation": {"number": 64, "value": 0}, "group": "control_change"}, {"time": 2105, "annotation": {"number": 64, "value": 127}, "group": "control_change"}, {"time": 2128, "annotation": {"number": 64, "value": 0}, "group": "control_change"}, {"time": 2130, "annotation": {"number": 64, "value": 127}, "group": "control_change"}, {"time": 2152, "annotation": {"number": 64, "value": 0}, "group": "control_change"}, {"time": 2154, "annotation": {"number": 64, "value": 127}, "group": "control_change"}, {"time": 2176, "annotation": {"number": 64, "value": 0}, "group": "control_change"}, {"time": 2178, "annotation": {"number": 64, "value": 127}, "group": "control_change"}, {"time": 2199, "annotation": {"number": 64, "value": 0}, "group": "control_change"}, {"time": 2201, "annotation": {"number": 64, "value": 127}, "group": "control_change"}, {"time": 2223, "annotation": {"number": 64, "value": 0}, "group": "control_change"}, {"time": 2225, "annotation": {"number": 64, "value": 127}, "group": "control_change"}, {"time": 2248, "annotation": {"number": 64, "value": 127}, "group": "control_change"}, {"time": 2249, "annotation": {"number": 64, "value": 0}, "group": "control_change"}, {"time": 2295, "annotation": {"number": 64, "value": 0}, "group": "control_change"}, {"time": 2297, "annotation": {"number": 64, "value": 127}, "group": "control_change"}, {"time": 2331, "annotation": {"number": 64, "value": 0}, "group": "control_change"}, {"time": 2344, "annotation": {"number": 64, "value": 127}, "group": "control_change"}, {"time": 2392, "annotation": {"number": 64, "value": 0}, "group": "control_change"}, {"time": 2394, "annotation": {"number": 64, "value": 127}, "group": "control_change"}, {"time": 2416, "annotation": {"number": 64, "value": 0}, "group": "control_change"}, {"time": 2417, "annotation": {"number": 64, "value": 127}, "group": "control_change"}, {"time": 2439, "annotation": {"number": 64, "value": 0}, "group": "control_change"}, {"time": 2441, "annotation": {"number": 64, "value": 127}, "group": "control_change"}, {"time": 2463, "annotation": {"number": 64, "value": 0}, "group": "control_change"}, {"time": 2465, "annotation": {"number": 64, "value": 127}, "group": "control_change"}, {"time": 2486, "annotation": {"number": 64, "value": 0}, "group": "control_change"}, {"time": 2489, "annotation": {"number": 64, "value": 127}, "group": "control_change"}, {"time": 2510, "annotation": {"number": 64, "value": 0}, "group": "control_change"}, {"time": 2513, "annotation": {"number": 64, "value": 127}, "group": "control_change"}, {"time": 2535, "annotation": {"number": 64, "value": 0}, "group": "control_change"}, {"time": 2537, "annotation": {"number": 64, "value": 127}, "group": "control_change"}, {"time": 2559, "annotation": {"number": 64, "value": 0}, "group": "control_change"}, {"time": 2561, "annotation": {"number": 64, "value": 127}, "group": "control_change"}, {"time": 2583, "annotation": {"number": 64, "value": 0}, "group": "control_change"}, {"time": 2585, "annotation": {"number": 64, "value": 127}, "group": "control_change"}, {"time": 2607, "annotation": {"number": 64, "value": 0}, "group": "control_change"}, {"time": 2609, "annotation": {"number": 64, "value": 127}, "group": "control_change"}, {"time": 2631, "annotation": {"number": 64, "value": 0}, "group": "control_change"}, {"time": 2633, "annotation": {"number": 64, "value": 127}, "group": "control_change"}, {"time": 2655, "annotation": {"number": 64, "value": 0}, "group": "control_change"}, {"time": 2657, "annotation": {"number": 64, "value": 127}, "group": "control_change"}, {"time": 2704, "annotation": {"number": 64, "value": 0}, "group": "control_change"}, {"time": 2705, "annotation": {"number": 64, "value": 127}, "group": "control_change"}, {"time": 2727, "annotation": {"number": 64, "value": 0}, "group": "control_change"}, {"time": 2729, "annotation": {"number": 64, "value": 127}, "group": "control_change"}, {"time": 2750, "annotation": {"number": 64, "value": 0}, "group": "control_change"}, {"time": 2754, "annotation": {"number": 64, "value": 127}, "group": "control_change"}, {"time": 2774, "annotation": {"number": 64, "value": 0}, "group": "control_change"}, {"time": 2776, "annotation": {"number": 64, "value": 127}, "group": "control_change"}, {"time": 2799, "annotation": {"number": 64, "value": 0}, "group": "control_change"}, {"time": 2801, "annotation": {"number": 64, "value": 127}, "group": "control_change"}, {"time": 2823, "annotation": {"number": 64, "value": 0}, "group": "control_change"}, {"time": 2825, "annotation": {"number": 64, "value": 127}, "group": "control_change"}, {"time": 2847, "annotation": {"number": 64, "value": 0}, "group": "control_change"}, {"time": 2850, "annotation": {"number": 64, "value": 127}, "group": "control_change"}, {"time": 2871, "annotation": {"number": 64, "value": 0}, "group": "control_change"}, {"time": 2873, "annotation": {"number": 64, "value": 127}, "group": "control_change"}, {"time": 2894, "annotation": {"number": 64, "value": 0}, "group": "control_change"}, {"time": 2896, "annotation": {"number": 64, "value": 127}, "group": "control_change"}, {"time": 2918, "annotation": {"number": 64, "value": 0}, "group": "control_change"}, {"time": 2921, "annotation": {"number": 64, "value": 127}, "group": "control_change"}, {"time": 2943, "annotation": {"number": 64, "value": 0}, "group": "control_change"}, {"time": 2949, "annotation": {"number": 64, "value": 127}, "group": "control_change"}, {"time": 2967, "annotation": {"number": 64, "value": 0}, "group": "control_change"}, {"time": 2969, "annotation": {"number": 64, "value": 127}, "group": "control_change"}, {"time": 2990, "annotation": {"number": 64, "value": 0}, "group": "control_change"}, {"time": 2993, "annotation": {"number": 64, "value": 127}, "group": "control_change"}, {"time": 3014, "annotation": {"number": 64, "value": 0}, "group": "control_change"}, {"time": 3017, "annotation": {"number": 64, "value": 127}, "group": "control_change"}, {"time": 3038, "annotation": {"number": 64, "value": 0}, "group": "control_change"}, {"time": 3041, "annotation": {"number": 64, "value": 127}, "group": "control_change"}, {"time": 3061, "annotation": {"number": 64, "value": 0}, "group": "control_change"}, {"time": 3064, "annotation": {"number": 64, "value": 127}, "group": "control_change"}, {"time": 3158, "annotation": {"number": 64, "value": 0}, "group": "control_change"}, {"time": 3159, "annotation": {"number": 64, "value": 127}, "group": "control_change"}]}]}