{"metadata": {"schema_version": "0.2", "title": "None", "source_filename": "095.mid", "source_format": "midi"}, "resolution": 12, "tempos": [{"time": 0, "qpm": 68.0000725334107}], "time_signatures": [{"time": 0, "numerator": 1, "denominator": 4}], "tracks": [{"program": 0, "is_drum": false, "name": "MELODY", "notes": [{"time": 248, "pitch": 65, "duration": 1, "velocity": 83}, {"time": 251, "pitch": 70, "duration": 4, "velocity": 100}, {"time": 257, "pitch": 69, "duration": 3, "velocity": 100}, {"time": 263, "pitch": 70, "duration": 3, "velocity": 117}, {"time": 269, "pitch": 72, "duration": 1, "velocity": 97}, {"time": 272, "pitch": 72, "duration": 14, "velocity": 107}, {"time": 296, "pitch": 69, "duration": 1, "velocity": 90}, {"time": 299, "pitch": 70, "duration": 5, "velocity": 112}, {"time": 305, "pitch": 69, "duration": 2, "velocity": 99}, {"time": 311, "pitch": 67, "duration": 4, "velocity": 112}, {"time": 317, "pitch": 65, "duration": 1, "velocity": 92}, {"time": 320, "pitch": 65, "duration": 15, "velocity": 99}, {"time": 347, "pitch": 67, "duration": 4, "velocity": 99}, {"time": 353, "pitch": 69, "duration": 1, "velocity": 93}, {"time": 356, "pitch": 70, "duration": 6, "velocity": 99}, {"time": 365, "pitch": 72, "duration": 3, "velocity": 97}, {"time": 368, "pitch": 65, "duration": 6, "velocity": 97}, {"time": 377, "pitch": 70, "duration": 1, "velocity": 112}, {"time": 380, "pitch": 70, "duration": 7, "velocity": 117}, {"time": 392, "pitch": 65, "duration": 2, "velocity": 93}, {"time": 395, "pitch": 75, "duration": 5, "velocity": 96}, {"time": 401, "pitch": 74, "duration": 3, "velocity": 99}, {"time": 407, "pitch": 72, "duration": 3, "velocity": 96}, {"time": 413, "pitch": 70, "duration": 1, "velocity": 102}, {"time": 416, "pitch": 72, "duration": 20, "velocity": 100}, {"time": 440, "pitch": 65, "duration": 1, "velocity": 86}, {"time": 443, "pitch": 70, "duration": 4, "velocity": 117}, {"time": 449, "pitch": 69, "duration": 3, "velocity": 93}, {"time": 455, "pitch": 70, "duration": 4, "velocity": 112}, {"time": 461, "pitch": 72, "duration": 1, "velocity": 93}, {"time": 464, "pitch": 72, "duration": 17, "velocity": 100}, {"time": 488, "pitch": 69, "duration": 1, "velocity": 90}, {"time": 491, "pitch": 70, "duration": 4, "velocity": 112}, {"time": 497, "pitch": 69, "duration": 4, "velocity": 79}, {"time": 503, "pitch": 70, "duration": 4, "velocity": 102}, {"time": 509, "pitch": 79, "duration": 4, "velocity": 100}, {"time": 515, "pitch": 79, "duration": 4, "velocity": 122}, {"time": 521, "pitch": 77, "duration": 1, "velocity": 100}, {"time": 524, "pitch": 77, "duration": 7, "velocity": 102}, {"time": 536, "pitch": 74, "duration": 4, "velocity": 100}, {"time": 542, "pitch": 75, "duration": 17, "velocity": 112}, {"time": 560, "pitch": 67, "duration": 2, "velocity": 97}, {"time": 563, "pitch": 75, "duration": 5, "velocity": 97}, {"time": 569, "pitch": 74, "duration": 4, "velocity": 107}, {"time": 575, "pitch": 67, "duration": 4, "velocity": 99}, {"time": 581, "pitch": 69, "duration": 1, "velocity": 95}, {"time": 584, "pitch": 70, "duration": 27, "velocity": 102}, {"time": 626, "pitch": 70, "duration": 2, "velocity": 97}, {"time": 629, "pitch": 75, "duration": 3, "velocity": 100}, {"time": 632, "pitch": 77, "duration": 3, "velocity": 95}, {"time": 635, "pitch": 79, "duration": 6, "velocity": 102}, {"time": 647, "pitch": 79, "duration": 3, "velocity": 122}, {"time": 653, "pitch": 79, "duration": 1, "velocity": 99}, {"time": 656, "pitch": 79, "duration": 3, "velocity": 117}, {"time": 665, "pitch": 77, "duration": 1, "velocity": 112}, {"time": 668, "pitch": 72, "duration": 6, "velocity": 100}, {"time": 677, "pitch": 72, "duration": 5, "velocity": 100}, {"time": 683, "pitch": 74, "duration": 5, "velocity": 127}, {"time": 689, "pitch": 77, "duration": 3, "velocity": 99}, {"time": 695, "pitch": 72, "duration": 5, "velocity": 96}, {"time": 701, "pitch": 77, "duration": 3, "velocity": 99}, {"time": 707, "pitch": 70, "duration": 14, "velocity": 107}, {"time": 722, "pitch": 70, "duration": 1, "velocity": 107}, {"time": 725, "pitch": 75, "duration": 1, "velocity": 127}, {"time": 728, "pitch": 77, "duration": 1, "velocity": 93}, {"time": 731, "pitch": 79, "duration": 9, "velocity": 107}, {"time": 743, "pitch": 79, "duration": 3, "velocity": 122}, {"time": 749, "pitch": 79, "duration": 1, "velocity": 107}, {"time": 752, "pitch": 79, "duration": 3, "velocity": 127}, {"time": 761, "pitch": 77, "duration": 3, "velocity": 112}, {"time": 767, "pitch": 72, "duration": 3, "velocity": 102}, {"time": 773, "pitch": 77, "duration": 2, "velocity": 117}, {"time": 779, "pitch": 74, "duration": 17, "velocity": 122}, {"time": 818, "pitch": 70, "duration": 3, "velocity": 92}, {"time": 821, "pitch": 75, "duration": 2, "velocity": 117}, {"time": 824, "pitch": 77, "duration": 4, "velocity": 86}, {"time": 827, "pitch": 79, "duration": 10, "velocity": 102}, {"time": 839, "pitch": 78, "duration": 3, "velocity": 127}, {"time": 845, "pitch": 79, "duration": 1, "velocity": 99}, {"time": 848, "pitch": 81, "duration": 6, "velocity": 122}, {"time": 857, "pitch": 74, "duration": 3, "velocity": 100}, {"time": 863, "pitch": 74, "duration": 3, "velocity": 107}, {"time": 869, "pitch": 81, "duration": 3, "velocity": 112}, {"time": 875, "pitch": 82, "duration": 10, "velocity": 127}, {"time": 887, "pitch": 81, "duration": 9, "velocity": 127}, {"time": 899, "pitch": 79, "duration": 13, "velocity": 112}, {"time": 920, "pitch": 79, "duration": 2, "velocity": 112}, {"time": 923, "pitch": 77, "duration": 3, "velocity": 102}, {"time": 929, "pitch": 70, "duration": 1, "velocity": 107}, {"time": 932, "pitch": 70, "duration": 5, "velocity": 102}, {"time": 944, "pitch": 79, "duration": 3, "velocity": 122}, {"time": 947, "pitch": 77, "duration": 6, "velocity": 95}, {"time": 953, "pitch": 74, "duration": 6, "velocity": 97}, {"time": 959, "pitch": 72, "duration": 4, "velocity": 97}, {"time": 965, "pitch": 70, "duration": 4, "velocity": 112}, {"time": 971, "pitch": 72, "duration": 31, "velocity": 117}, {"time": 1007, "pitch": 70, "duration": 2, "velocity": 122}, {"time": 1013, "pitch": 72, "duration": 2, "velocity": 97}, {"time": 1019, "pitch": 74, "duration": 5, "velocity": 117}, {"time": 1028, "pitch": 74, "duration": 1, "velocity": 100}, {"time": 1031, "pitch": 74, "duration": 1, "velocity": 92}, {"time": 1034, "pitch": 75, "duration": 1, "velocity": 117}, {"time": 1037, "pitch": 74, "duration": 1, "velocity": 99}, {"time": 1040, "pitch": 72, "duration": 8, "velocity": 107}, {"time": 1049, "pitch": 77, "duration": 1, "velocity": 100}, {"time": 1052, "pitch": 77, "duration": 9, "velocity": 117}, {"time": 1067, "pitch": 82, "duration": 5, "velocity": 127}, {"time": 1076, "pitch": 82, "duration": 1, "velocity": 117}, {"time": 1079, "pitch": 82, "duration": 1, "velocity": 112}, {"time": 1082, "pitch": 84, "duration": 2, "velocity": 96}, {"time": 1085, "pitch": 82, "duration": 1, "velocity": 112}, {"time": 1088, "pitch": 81, "duration": 3, "velocity": 127}, {"time": 1097, "pitch": 77, "duration": 1, "velocity": 102}, {"time": 1100, "pitch": 77, "duration": 4, "velocity": 117}, {"time": 1115, "pitch": 79, "duration": 5, "velocity": 122}, {"time": 1124, "pitch": 79, "duration": 1, "velocity": 112}, {"time": 1127, "pitch": 79, "duration": 1, "velocity": 122}, {"time": 1130, "pitch": 81, "duration": 2, "velocity": 112}, {"time": 1133, "pitch": 79, "duration": 1, "velocity": 99}, {"time": 1136, "pitch": 77, "duration": 4, "velocity": 107}, {"time": 1145, "pitch": 70, "duration": 1, "velocity": 112}, {"time": 1148, "pitch": 70, "duration": 3, "velocity": 127}, {"time": 1160, "pitch": 67, "duration": 2, "velocity": 86}, {"time": 1163, "pitch": 75, "duration": 4, "velocity": 107}, {"time": 1172, "pitch": 75, "duration": 1, "velocity": 122}, {"time": 1175, "pitch": 75, "duration": 1, "velocity": 112}, {"time": 1178, "pitch": 77, "duration": 1, "velocity": 93}, {"time": 1181, "pitch": 74, "duration": 4, "velocity": 117}, {"time": 1187, "pitch": 72, "duration": 6, "velocity": 122}, {"time": 1199, "pitch": 70, "duration": 4, "velocity": 127}, {"time": 1205, "pitch": 72, "duration": 3, "velocity": 100}, {"time": 1211, "pitch": 74, "duration": 6, "velocity": 127}, {"time": 1220, "pitch": 74, "duration": 1, "velocity": 102}, {"time": 1223, "pitch": 74, "duration": 1, "velocity": 97}, {"time": 1226, "pitch": 75, "duration": 1, "velocity": 102}, {"time": 1229, "pitch": 74, "duration": 1, "velocity": 107}, {"time": 1232, "pitch": 72, "duration": 8, "velocity": 100}, {"time": 1241, "pitch": 77, "duration": 1, "velocity": 99}, {"time": 1244, "pitch": 77, "duration": 8, "velocity": 127}, {"time": 1259, "pitch": 82, "duration": 8, "velocity": 127}, {"time": 1268, "pitch": 82, "duration": 1, "velocity": 117}, {"time": 1271, "pitch": 84, "duration": 3, "velocity": 107}, {"time": 1277, "pitch": 82, "duration": 1, "velocity": 127}, {"time": 1280, "pitch": 81, "duration": 7, "velocity": 127}, {"time": 1289, "pitch": 77, "duration": 1, "velocity": 99}, {"time": 1292, "pitch": 77, "duration": 7, "velocity": 122}, {"time": 1304, "pitch": 70, "duration": 3, "velocity": 107}, {"time": 1310, "pitch": 79, "duration": 10, "velocity": 100}, {"time": 1328, "pitch": 70, "duration": 1, "velocity": 117}, {"time": 1331, "pitch": 77, "duration": 16, "velocity": 122}, {"time": 1352, "pitch": 74, "duration": 1, "velocity": 96}, {"time": 1355, "pitch": 75, "duration": 3, "velocity": 127}, {"time": 1361, "pitch": 74, "duration": 4, "velocity": 112}, {"time": 1367, "pitch": 72, "duration": 3, "velocity": 102}, {"time": 1373, "pitch": 70, "duration": 3, "velocity": 117}, {"time": 1379, "pitch": 67, "duration": 4, "velocity": 100}, {"time": 1391, "pitch": 70, "duration": 6, "velocity": 127}, {"time": 1400, "pitch": 70, "duration": 1, "velocity": 112}, {"time": 1403, "pitch": 70, "duration": 28, "velocity": 127}, {"time": 1592, "pitch": 65, "duration": 1, "velocity": 83}, {"time": 1595, "pitch": 70, "duration": 4, "velocity": 100}, {"time": 1601, "pitch": 69, "duration": 3, "velocity": 100}, {"time": 1607, "pitch": 70, "duration": 3, "velocity": 117}, {"time": 1613, "pitch": 72, "duration": 1, "velocity": 97}, {"time": 1616, "pitch": 72, "duration": 14, "velocity": 107}, {"time": 1640, "pitch": 69, "duration": 1, "velocity": 90}, {"time": 1643, "pitch": 70, "duration": 5, "velocity": 112}, {"time": 1649, "pitch": 69, "duration": 2, "velocity": 99}, {"time": 1655, "pitch": 67, "duration": 4, "velocity": 112}, {"time": 1661, "pitch": 65, "duration": 1, "velocity": 92}, {"time": 1664, "pitch": 65, "duration": 15, "velocity": 99}, {"time": 1691, "pitch": 67, "duration": 4, "velocity": 99}, {"time": 1697, "pitch": 69, "duration": 1, "velocity": 93}, {"time": 1700, "pitch": 70, "duration": 6, "velocity": 99}, {"time": 1709, "pitch": 72, "duration": 3, "velocity": 97}, {"time": 1712, "pitch": 65, "duration": 6, "velocity": 97}, {"time": 1721, "pitch": 70, "duration": 1, "velocity": 112}, {"time": 1724, "pitch": 70, "duration": 7, "velocity": 117}, {"time": 1736, "pitch": 65, "duration": 2, "velocity": 93}, {"time": 1739, "pitch": 75, "duration": 5, "velocity": 96}, {"time": 1745, "pitch": 74, "duration": 3, "velocity": 99}, {"time": 1751, "pitch": 72, "duration": 3, "velocity": 96}, {"time": 1757, "pitch": 70, "duration": 1, "velocity": 102}, {"time": 1760, "pitch": 72, "duration": 20, "velocity": 100}, {"time": 1784, "pitch": 65, "duration": 1, "velocity": 86}, {"time": 1787, "pitch": 70, "duration": 4, "velocity": 117}, {"time": 1793, "pitch": 69, "duration": 3, "velocity": 93}, {"time": 1799, "pitch": 70, "duration": 4, "velocity": 112}, {"time": 1805, "pitch": 72, "duration": 1, "velocity": 93}, {"time": 1808, "pitch": 72, "duration": 17, "velocity": 100}, {"time": 1832, "pitch": 69, "duration": 1, "velocity": 90}, {"time": 1835, "pitch": 70, "duration": 4, "velocity": 112}, {"time": 1841, "pitch": 69, "duration": 4, "velocity": 79}, {"time": 1847, "pitch": 70, "duration": 4, "velocity": 102}, {"time": 1853, "pitch": 79, "duration": 4, "velocity": 100}, {"time": 1859, "pitch": 79, "duration": 4, "velocity": 122}, {"time": 1865, "pitch": 77, "duration": 1, "velocity": 100}, {"time": 1868, "pitch": 77, "duration": 7, "velocity": 102}, {"time": 1880, "pitch": 74, "duration": 4, "velocity": 100}, {"time": 1886, "pitch": 75, "duration": 17, "velocity": 112}, {"time": 1904, "pitch": 67, "duration": 2, "velocity": 97}, {"time": 1907, "pitch": 75, "duration": 5, "velocity": 97}, {"time": 1913, "pitch": 74, "duration": 4, "velocity": 107}, {"time": 1919, "pitch": 67, "duration": 4, "velocity": 99}, {"time": 1925, "pitch": 69, "duration": 1, "velocity": 95}, {"time": 1928, "pitch": 70, "duration": 27, "velocity": 102}, {"time": 1970, "pitch": 70, "duration": 2, "velocity": 97}, {"time": 1973, "pitch": 75, "duration": 3, "velocity": 100}, {"time": 1976, "pitch": 77, "duration": 3, "velocity": 95}, {"time": 1979, "pitch": 79, "duration": 6, "velocity": 102}, {"time": 1991, "pitch": 79, "duration": 3, "velocity": 122}, {"time": 1997, "pitch": 79, "duration": 1, "velocity": 99}, {"time": 2000, "pitch": 79, "duration": 3, "velocity": 117}, {"time": 2009, "pitch": 77, "duration": 1, "velocity": 112}, {"time": 2012, "pitch": 72, "duration": 6, "velocity": 100}, {"time": 2021, "pitch": 72, "duration": 5, "velocity": 100}, {"time": 2027, "pitch": 74, "duration": 5, "velocity": 127}, {"time": 2033, "pitch": 77, "duration": 3, "velocity": 99}, {"time": 2039, "pitch": 72, "duration": 5, "velocity": 96}, {"time": 2045, "pitch": 77, "duration": 3, "velocity": 99}, {"time": 2051, "pitch": 70, "duration": 14, "velocity": 107}, {"time": 2066, "pitch": 70, "duration": 1, "velocity": 107}, {"time": 2069, "pitch": 75, "duration": 1, "velocity": 127}, {"time": 2072, "pitch": 77, "duration": 1, "velocity": 93}, {"time": 2075, "pitch": 79, "duration": 9, "velocity": 107}, {"time": 2087, "pitch": 79, "duration": 3, "velocity": 122}, {"time": 2093, "pitch": 79, "duration": 1, "velocity": 107}, {"time": 2096, "pitch": 79, "duration": 3, "velocity": 127}, {"time": 2105, "pitch": 77, "duration": 3, "velocity": 112}, {"time": 2111, "pitch": 72, "duration": 3, "velocity": 102}, {"time": 2117, "pitch": 77, "duration": 2, "velocity": 117}, {"time": 2123, "pitch": 74, "duration": 17, "velocity": 122}, {"time": 2162, "pitch": 70, "duration": 3, "velocity": 92}, {"time": 2165, "pitch": 75, "duration": 2, "velocity": 117}, {"time": 2168, "pitch": 77, "duration": 4, "velocity": 86}, {"time": 2171, "pitch": 79, "duration": 10, "velocity": 102}, {"time": 2183, "pitch": 78, "duration": 3, "velocity": 127}, {"time": 2189, "pitch": 79, "duration": 1, "velocity": 99}, {"time": 2192, "pitch": 81, "duration": 6, "velocity": 122}, {"time": 2201, "pitch": 74, "duration": 3, "velocity": 100}, {"time": 2207, "pitch": 74, "duration": 3, "velocity": 107}, {"time": 2213, "pitch": 81, "duration": 3, "velocity": 112}, {"time": 2219, "pitch": 82, "duration": 10, "velocity": 127}, {"time": 2231, "pitch": 81, "duration": 9, "velocity": 127}, {"time": 2243, "pitch": 79, "duration": 13, "velocity": 112}, {"time": 2264, "pitch": 79, "duration": 2, "velocity": 112}, {"time": 2267, "pitch": 77, "duration": 3, "velocity": 102}, {"time": 2273, "pitch": 70, "duration": 1, "velocity": 107}, {"time": 2276, "pitch": 70, "duration": 5, "velocity": 102}, {"time": 2288, "pitch": 79, "duration": 3, "velocity": 122}, {"time": 2291, "pitch": 77, "duration": 6, "velocity": 95}, {"time": 2297, "pitch": 74, "duration": 6, "velocity": 97}, {"time": 2303, "pitch": 72, "duration": 4, "velocity": 97}, {"time": 2309, "pitch": 70, "duration": 4, "velocity": 112}, {"time": 2315, "pitch": 72, "duration": 31, "velocity": 117}, {"time": 2351, "pitch": 70, "duration": 2, "velocity": 122}, {"time": 2357, "pitch": 72, "duration": 2, "velocity": 97}, {"time": 2363, "pitch": 74, "duration": 5, "velocity": 117}, {"time": 2372, "pitch": 74, "duration": 1, "velocity": 100}, {"time": 2375, "pitch": 74, "duration": 1, "velocity": 92}, {"time": 2378, "pitch": 75, "duration": 1, "velocity": 117}, {"time": 2381, "pitch": 74, "duration": 1, "velocity": 99}, {"time": 2384, "pitch": 72, "duration": 8, "velocity": 107}, {"time": 2393, "pitch": 77, "duration": 1, "velocity": 100}, {"time": 2396, "pitch": 77, "duration": 9, "velocity": 117}, {"time": 2411, "pitch": 82, "duration": 5, "velocity": 127}, {"time": 2420, "pitch": 82, "duration": 1, "velocity": 117}, {"time": 2423, "pitch": 82, "duration": 1, "velocity": 112}, {"time": 2426, "pitch": 84, "duration": 2, "velocity": 96}, {"time": 2429, "pitch": 82, "duration": 1, "velocity": 112}, {"time": 2432, "pitch": 81, "duration": 3, "velocity": 127}, {"time": 2441, "pitch": 77, "duration": 1, "velocity": 102}, {"time": 2444, "pitch": 77, "duration": 4, "velocity": 117}, {"time": 2459, "pitch": 79, "duration": 5, "velocity": 122}, {"time": 2468, "pitch": 79, "duration": 1, "velocity": 112}, {"time": 2471, "pitch": 79, "duration": 1, "velocity": 122}, {"time": 2474, "pitch": 81, "duration": 2, "velocity": 112}, {"time": 2477, "pitch": 79, "duration": 1, "velocity": 99}, {"time": 2480, "pitch": 77, "duration": 4, "velocity": 107}, {"time": 2489, "pitch": 70, "duration": 1, "velocity": 112}, {"time": 2492, "pitch": 70, "duration": 3, "velocity": 127}, {"time": 2504, "pitch": 67, "duration": 2, "velocity": 86}, {"time": 2507, "pitch": 75, "duration": 4, "velocity": 107}, {"time": 2516, "pitch": 75, "duration": 1, "velocity": 122}, {"time": 2519, "pitch": 75, "duration": 1, "velocity": 112}, {"time": 2522, "pitch": 77, "duration": 1, "velocity": 93}, {"time": 2525, "pitch": 74, "duration": 4, "velocity": 117}, {"time": 2531, "pitch": 72, "duration": 6, "velocity": 122}, {"time": 2543, "pitch": 70, "duration": 4, "velocity": 127}, {"time": 2549, "pitch": 72, "duration": 3, "velocity": 100}, {"time": 2555, "pitch": 74, "duration": 6, "velocity": 127}, {"time": 2564, "pitch": 74, "duration": 1, "velocity": 102}, {"time": 2567, "pitch": 74, "duration": 1, "velocity": 97}, {"time": 2570, "pitch": 75, "duration": 1, "velocity": 102}, {"time": 2573, "pitch": 74, "duration": 1, "velocity": 107}, {"time": 2576, "pitch": 72, "duration": 8, "velocity": 100}, {"time": 2585, "pitch": 77, "duration": 1, "velocity": 99}, {"time": 2588, "pitch": 77, "duration": 8, "velocity": 127}, {"time": 2603, "pitch": 82, "duration": 8, "velocity": 127}, {"time": 2612, "pitch": 82, "duration": 1, "velocity": 117}, {"time": 2615, "pitch": 84, "duration": 3, "velocity": 107}, {"time": 2621, "pitch": 82, "duration": 1, "velocity": 127}, {"time": 2624, "pitch": 81, "duration": 7, "velocity": 127}, {"time": 2633, "pitch": 77, "duration": 1, "velocity": 99}, {"time": 2636, "pitch": 77, "duration": 7, "velocity": 122}, {"time": 2648, "pitch": 70, "duration": 3, "velocity": 107}, {"time": 2654, "pitch": 79, "duration": 10, "velocity": 100}, {"time": 2672, "pitch": 70, "duration": 1, "velocity": 117}, {"time": 2675, "pitch": 77, "duration": 16, "velocity": 122}, {"time": 2696, "pitch": 74, "duration": 1, "velocity": 96}, {"time": 2699, "pitch": 75, "duration": 3, "velocity": 127}, {"time": 2705, "pitch": 74, "duration": 4, "velocity": 112}, {"time": 2711, "pitch": 72, "duration": 3, "velocity": 102}, {"time": 2717, "pitch": 70, "duration": 3, "velocity": 117}, {"time": 2723, "pitch": 67, "duration": 4, "velocity": 100}, {"time": 2735, "pitch": 70, "duration": 6, "velocity": 127}, {"time": 2744, "pitch": 70, "duration": 1, "velocity": 112}, {"time": 3119, "pitch": 70, "duration": 2, "velocity": 122}, {"time": 3125, "pitch": 72, "duration": 2, "velocity": 97}, {"time": 3131, "pitch": 74, "duration": 5, "velocity": 117}, {"time": 3140, "pitch": 74, "duration": 1, "velocity": 100}, {"time": 3143, "pitch": 74, "duration": 1, "velocity": 92}, {"time": 3146, "pitch": 75, "duration": 1, "velocity": 117}, {"time": 3149, "pitch": 74, "duration": 1, "velocity": 99}, {"time": 3152, "pitch": 72, "duration": 8, "velocity": 107}, {"time": 3161, "pitch": 77, "duration": 1, "velocity": 100}, {"time": 3164, "pitch": 77, "duration": 9, "velocity": 117}, {"time": 3179, "pitch": 82, "duration": 5, "velocity": 127}, {"time": 3188, "pitch": 82, "duration": 1, "velocity": 117}, {"time": 3191, "pitch": 82, "duration": 1, "velocity": 112}, {"time": 3194, "pitch": 84, "duration": 2, "velocity": 96}, {"time": 3197, "pitch": 82, "duration": 1, "velocity": 112}, {"time": 3200, "pitch": 81, "duration": 3, "velocity": 127}, {"time": 3209, "pitch": 77, "duration": 1, "velocity": 102}, {"time": 3212, "pitch": 77, "duration": 4, "velocity": 117}, {"time": 3227, "pitch": 79, "duration": 5, "velocity": 122}, {"time": 3236, "pitch": 79, "duration": 1, "velocity": 112}, {"time": 3239, "pitch": 79, "duration": 1, "velocity": 122}, {"time": 3242, "pitch": 81, "duration": 2, "velocity": 112}, {"time": 3245, "pitch": 79, "duration": 1, "velocity": 99}, {"time": 3248, "pitch": 77, "duration": 4, "velocity": 107}, {"time": 3257, "pitch": 70, "duration": 1, "velocity": 112}, {"time": 3260, "pitch": 70, "duration": 3, "velocity": 127}, {"time": 3272, "pitch": 67, "duration": 2, "velocity": 86}, {"time": 3275, "pitch": 75, "duration": 4, "velocity": 107}, {"time": 3284, "pitch": 75, "duration": 1, "velocity": 122}, {"time": 3287, "pitch": 75, "duration": 1, "velocity": 112}, {"time": 3290, "pitch": 77, "duration": 1, "velocity": 93}, {"time": 3293, "pitch": 74, "duration": 4, "velocity": 117}, {"time": 3299, "pitch": 72, "duration": 6, "velocity": 122}, {"time": 3311, "pitch": 71, "duration": 4, "velocity": 127}, {"time": 3317, "pitch": 73, "duration": 3, "velocity": 100}, {"time": 3323, "pitch": 75, "duration": 6, "velocity": 127}, {"time": 3332, "pitch": 75, "duration": 1, "velocity": 102}, {"time": 3335, "pitch": 75, "duration": 1, "velocity": 97}, {"time": 3338, "pitch": 76, "duration": 1, "velocity": 102}, {"time": 3341, "pitch": 75, "duration": 1, "velocity": 107}, {"time": 3344, "pitch": 73, "duration": 8, "velocity": 100}, {"time": 3353, "pitch": 78, "duration": 1, "velocity": 99}, {"time": 3356, "pitch": 78, "duration": 8, "velocity": 127}, {"time": 3371, "pitch": 83, "duration": 8, "velocity": 127}, {"time": 3380, "pitch": 83, "duration": 1, "velocity": 117}, {"time": 3383, "pitch": 85, "duration": 3, "velocity": 107}, {"time": 3389, "pitch": 83, "duration": 1, "velocity": 127}, {"time": 3392, "pitch": 82, "duration": 7, "velocity": 127}, {"time": 3401, "pitch": 78, "duration": 1, "velocity": 99}, {"time": 3404, "pitch": 78, "duration": 7, "velocity": 122}, {"time": 3416, "pitch": 71, "duration": 3, "velocity": 107}, {"time": 3422, "pitch": 80, "duration": 10, "velocity": 100}, {"time": 3440, "pitch": 71, "duration": 1, "velocity": 117}, {"time": 3443, "pitch": 78, "duration": 16, "velocity": 122}, {"time": 3464, "pitch": 75, "duration": 1, "velocity": 96}, {"time": 3467, "pitch": 76, "duration": 3, "velocity": 127}, {"time": 3473, "pitch": 75, "duration": 4, "velocity": 112}, {"time": 3479, "pitch": 73, "duration": 3, "velocity": 102}, {"time": 3485, "pitch": 71, "duration": 3, "velocity": 117}, {"time": 3491, "pitch": 68, "duration": 4, "velocity": 100}, {"time": 3503, "pitch": 70, "duration": 2, "velocity": 122}, {"time": 3509, "pitch": 72, "duration": 2, "velocity": 97}, {"time": 3515, "pitch": 75, "duration": 5, "velocity": 117}, {"time": 3524, "pitch": 75, "duration": 1, "velocity": 100}, {"time": 3527, "pitch": 75, "duration": 1, "velocity": 92}, {"time": 3530, "pitch": 76, "duration": 1, "velocity": 117}, {"time": 3533, "pitch": 75, "duration": 1, "velocity": 99}, {"time": 3536, "pitch": 73, "duration": 8, "velocity": 107}, {"time": 3545, "pitch": 78, "duration": 1, "velocity": 100}, {"time": 3548, "pitch": 78, "duration": 9, "velocity": 117}, {"time": 3563, "pitch": 83, "duration": 5, "velocity": 127}, {"time": 3572, "pitch": 83, "duration": 1, "velocity": 117}, {"time": 3575, "pitch": 83, "duration": 1, "velocity": 112}, {"time": 3578, "pitch": 85, "duration": 2, "velocity": 96}, {"time": 3581, "pitch": 83, "duration": 1, "velocity": 112}, {"time": 3584, "pitch": 82, "duration": 3, "velocity": 127}, {"time": 3593, "pitch": 78, "duration": 1, "velocity": 102}, {"time": 3596, "pitch": 78, "duration": 4, "velocity": 117}, {"time": 3611, "pitch": 80, "duration": 5, "velocity": 122}, {"time": 3620, "pitch": 80, "duration": 1, "velocity": 112}, {"time": 3623, "pitch": 80, "duration": 1, "velocity": 122}, {"time": 3626, "pitch": 82, "duration": 2, "velocity": 112}, {"time": 3629, "pitch": 80, "duration": 1, "velocity": 99}, {"time": 3632, "pitch": 78, "duration": 4, "velocity": 107}, {"time": 3641, "pitch": 71, "duration": 1, "velocity": 112}, {"time": 3644, "pitch": 71, "duration": 3, "velocity": 127}, {"time": 3656, "pitch": 68, "duration": 2, "velocity": 86}, {"time": 3659, "pitch": 76, "duration": 4, "velocity": 107}, {"time": 3668, "pitch": 76, "duration": 1, "velocity": 122}, {"time": 3671, "pitch": 76, "duration": 1, "velocity": 112}, {"time": 3674, "pitch": 78, "duration": 1, "velocity": 93}, {"time": 3677, "pitch": 75, "duration": 4, "velocity": 117}, {"time": 3683, "pitch": 73, "duration": 6, "velocity": 122}, {"time": 3695, "pitch": 71, "duration": 4, "velocity": 127}, {"time": 3701, "pitch": 73, "duration": 3, "velocity": 100}, {"time": 3707, "pitch": 75, "duration": 6, "velocity": 127}, {"time": 3716, "pitch": 75, "duration": 1, "velocity": 102}, {"time": 3719, "pitch": 75, "duration": 1, "velocity": 97}, {"time": 3722, "pitch": 76, "duration": 1, "velocity": 102}, {"time": 3725, "pitch": 75, "duration": 1, "velocity": 107}, {"time": 3728, "pitch": 73, "duration": 8, "velocity": 100}, {"time": 3737, "pitch": 78, "duration": 1, "velocity": 99}, {"time": 3740, "pitch": 78, "duration": 8, "velocity": 127}, {"time": 3755, "pitch": 83, "duration": 8, "velocity": 127}, {"time": 3764, "pitch": 83, "duration": 1, "velocity": 117}, {"time": 3767, "pitch": 85, "duration": 3, "velocity": 107}, {"time": 3773, "pitch": 83, "duration": 1, "velocity": 127}, {"time": 3776, "pitch": 82, "duration": 7, "velocity": 127}, {"time": 3785, "pitch": 78, "duration": 1, "velocity": 99}, {"time": 3788, "pitch": 78, "duration": 7, "velocity": 122}, {"time": 3800, "pitch": 71, "duration": 3, "velocity": 107}, {"time": 3806, "pitch": 80, "duration": 10, "velocity": 100}, {"time": 3824, "pitch": 71, "duration": 1, "velocity": 117}, {"time": 3827, "pitch": 78, "duration": 16, "velocity": 122}, {"time": 3848, "pitch": 75, "duration": 1, "velocity": 96}, {"time": 3851, "pitch": 76, "duration": 3, "velocity": 127}, {"time": 3857, "pitch": 75, "duration": 4, "velocity": 112}, {"time": 3863, "pitch": 73, "duration": 3, "velocity": 102}, {"time": 3869, "pitch": 71, "duration": 3, "velocity": 117}, {"time": 3875, "pitch": 68, "duration": 4, "velocity": 100}, {"time": 3887, "pitch": 71, "duration": 5, "velocity": 127}, {"time": 3899, "pitch": 71, "duration": 4, "velocity": 112}, {"time": 3905, "pitch": 71, "duration": 50, "velocity": 117}, {"time": 3992, "pitch": 75, "duration": 2, "velocity": 122}, {"time": 3995, "pitch": 76, "duration": 6, "velocity": 100}, {"time": 4001, "pitch": 75, "duration": 7, "velocity": 100}, {"time": 4007, "pitch": 73, "duration": 7, "velocity": 122}, {"time": 4013, "pitch": 71, "duration": 5, "velocity": 100}, {"time": 4018, "pitch": 68, "duration": 31, "velocity": 122}, {"time": 4062, "pitch": 71, "duration": 10, "velocity": 102}, {"time": 4074, "pitch": 71, "duration": 4, "velocity": 112}, {"time": 4081, "pitch": 71, "duration": 74, "velocity": 127}]}, {"program": 0, "is_drum": false, "name": "BRIDGE", "notes": [{"time": 11, "pitch": 72, "duration": 13, "velocity": 100}, {"time": 23, "pitch": 65, "duration": 8, "velocity": 112}, {"time": 23, "pitch": 72, "duration": 1, "velocity": 107}, {"time": 32, "pitch": 74, "duration": 22, "velocity": 127}, {"time": 53, "pitch": 62, "duration": 4, "velocity": 99}, {"time": 53, "pitch": 65, "duration": 6, "velocity": 100}, {"time": 59, "pitch": 63, "duration": 14, "velocity": 107}, {"time": 59, "pitch": 67, "duration": 17, "velocity": 100}, {"time": 71, "pitch": 65, "duration": 6, "velocity": 102}, {"time": 77, "pitch": 63, "duration": 2, "velocity": 89}, {"time": 80, "pitch": 62, "duration": 14, "velocity": 97}, {"time": 104, "pitch": 70, "duration": 2, "velocity": 95}, {"time": 105, "pitch": 69, "duration": 2, "velocity": 69}, {"time": 107, "pitch": 67, "duration": 6, "velocity": 90}, {"time": 113, "pitch": 72, "duration": 1, "velocity": 100}, {"time": 116, "pitch": 72, "duration": 12, "velocity": 122}, {"time": 125, "pitch": 67, "duration": 5, "velocity": 100}, {"time": 131, "pitch": 65, "duration": 11, "velocity": 100}, {"time": 137, "pitch": 70, "duration": 1, "velocity": 122}, {"time": 140, "pitch": 70, "duration": 9, "velocity": 112}, {"time": 146, "pitch": 70, "duration": 3, "velocity": 95}, {"time": 149, "pitch": 72, "duration": 3, "velocity": 92}, {"time": 152, "pitch": 74, "duration": 2, "velocity": 95}, {"time": 155, "pitch": 75, "duration": 8, "velocity": 127}, {"time": 167, "pitch": 74, "duration": 11, "velocity": 102}, {"time": 179, "pitch": 72, "duration": 12, "velocity": 107}, {"time": 191, "pitch": 70, "duration": 5, "velocity": 117}, {"time": 197, "pitch": 67, "duration": 16, "velocity": 96}, {"time": 209, "pitch": 87, "duration": 5, "velocity": 112}, {"time": 215, "pitch": 82, "duration": 5, "velocity": 99}, {"time": 221, "pitch": 79, "duration": 9, "velocity": 93}, {"time": 233, "pitch": 77, "duration": 19, "velocity": 93}, {"time": 425, "pitch": 65, "duration": 3, "velocity": 77}, {"time": 428, "pitch": 70, "duration": 3, "velocity": 96}, {"time": 431, "pitch": 69, "duration": 6, "velocity": 86}, {"time": 437, "pitch": 67, "duration": 5, "velocity": 85}, {"time": 443, "pitch": 65, "duration": 18, "velocity": 93}, {"time": 587, "pitch": 74, "duration": 6, "velocity": 99}, {"time": 593, "pitch": 72, "duration": 6, "velocity": 88}, {"time": 599, "pitch": 75, "duration": 6, "velocity": 107}, {"time": 605, "pitch": 74, "duration": 18, "velocity": 102}, {"time": 617, "pitch": 70, "duration": 5, "velocity": 102}, {"time": 623, "pitch": 68, "duration": 15, "velocity": 107}, {"time": 785, "pitch": 70, "duration": 3, "velocity": 117}, {"time": 791, "pitch": 70, "duration": 3, "velocity": 97}, {"time": 794, "pitch": 72, "duration": 4, "velocity": 89}, {"time": 797, "pitch": 74, "duration": 5, "velocity": 97}, {"time": 803, "pitch": 75, "duration": 10, "velocity": 122}, {"time": 815, "pitch": 77, "duration": 11, "velocity": 99}, {"time": 982, "pitch": 50, "duration": 1, "velocity": 31}, {"time": 983, "pitch": 52, "duration": 1, "velocity": 38}, {"time": 983, "pitch": 54, "duration": 1, "velocity": 51}, {"time": 984, "pitch": 55, "duration": 1, "velocity": 38}, {"time": 984, "pitch": 57, "duration": 1, "velocity": 37}, {"time": 984, "pitch": 59, "duration": 1, "velocity": 38}, {"time": 985, "pitch": 61, "duration": 1, "velocity": 43}, {"time": 985, "pitch": 62, "duration": 1, "velocity": 53}, {"time": 986, "pitch": 64, "duration": 1, "velocity": 39}, {"time": 986, "pitch": 66, "duration": 1, "velocity": 42}, {"time": 986, "pitch": 67, "duration": 1, "velocity": 43}, {"time": 987, "pitch": 69, "duration": 1, "velocity": 40}, {"time": 987, "pitch": 71, "duration": 1, "velocity": 40}, {"time": 987, "pitch": 73, "duration": 1, "velocity": 41}, {"time": 987, "pitch": 74, "duration": 1, "velocity": 43}, {"time": 988, "pitch": 76, "duration": 1, "velocity": 47}, {"time": 988, "pitch": 78, "duration": 1, "velocity": 61}, {"time": 988, "pitch": 79, "duration": 1, "velocity": 68}, {"time": 989, "pitch": 81, "duration": 1, "velocity": 70}, {"time": 989, "pitch": 83, "duration": 1, "velocity": 82}, {"time": 989, "pitch": 85, "duration": 1, "velocity": 77}, {"time": 990, "pitch": 86, "duration": 1, "velocity": 72}, {"time": 990, "pitch": 88, "duration": 1, "velocity": 66}, {"time": 990, "pitch": 83, "duration": 1, "velocity": 72}, {"time": 990, "pitch": 90, "duration": 1, "velocity": 65}, {"time": 990, "pitch": 91, "duration": 1, "velocity": 63}, {"time": 991, "pitch": 93, "duration": 1, "velocity": 96}, {"time": 991, "pitch": 81, "duration": 1, "velocity": 29}, {"time": 991, "pitch": 95, "duration": 1, "velocity": 95}, {"time": 991, "pitch": 79, "duration": 1, "velocity": 58}, {"time": 991, "pitch": 97, "duration": 1, "velocity": 81}, {"time": 991, "pitch": 78, "duration": 1, "velocity": 64}, {"time": 992, "pitch": 76, "duration": 1, "velocity": 66}, {"time": 992, "pitch": 77, "duration": 1, "velocity": 127}, {"time": 992, "pitch": 74, "duration": 1, "velocity": 73}, {"time": 992, "pitch": 73, "duration": 1, "velocity": 72}, {"time": 993, "pitch": 72, "duration": 1, "velocity": 55}, {"time": 993, "pitch": 71, "duration": 1, "velocity": 68}, {"time": 993, "pitch": 69, "duration": 1, "velocity": 66}, {"time": 993, "pitch": 70, "duration": 1, "velocity": 58}, {"time": 993, "pitch": 67, "duration": 1, "velocity": 58}, {"time": 994, "pitch": 66, "duration": 1, "velocity": 60}, {"time": 994, "pitch": 64, "duration": 1, "velocity": 59}, {"time": 994, "pitch": 62, "duration": 1, "velocity": 66}, {"time": 994, "pitch": 61, "duration": 1, "velocity": 72}, {"time": 995, "pitch": 59, "duration": 1, "velocity": 69}, {"time": 995, "pitch": 57, "duration": 1, "velocity": 68}, {"time": 995, "pitch": 55, "duration": 1, "velocity": 81}, {"time": 996, "pitch": 54, "duration": 1, "velocity": 65}, {"time": 1006, "pitch": 40, "duration": 1, "velocity": 76}, {"time": 1007, "pitch": 41, "duration": 1, "velocity": 70}, {"time": 1007, "pitch": 42, "duration": 1, "velocity": 41}, {"time": 1007, "pitch": 44, "duration": 1, "velocity": 127}, {"time": 1007, "pitch": 43, "duration": 1, "velocity": 72}, {"time": 1008, "pitch": 45, "duration": 1, "velocity": 68}, {"time": 1008, "pitch": 46, "duration": 1, "velocity": 79}, {"time": 1008, "pitch": 47, "duration": 1, "velocity": 70}, {"time": 1008, "pitch": 49, "duration": 1, "velocity": 70}, {"time": 1008, "pitch": 50, "duration": 1, "velocity": 71}, {"time": 1009, "pitch": 52, "duration": 1, "velocity": 59}, {"time": 1009, "pitch": 54, "duration": 1, "velocity": 55}, {"time": 1009, "pitch": 55, "duration": 1, "velocity": 56}, {"time": 1010, "pitch": 57, "duration": 1, "velocity": 52}, {"time": 1010, "pitch": 59, "duration": 1, "velocity": 54}, {"time": 1010, "pitch": 61, "duration": 1, "velocity": 56}, {"time": 1011, "pitch": 62, "duration": 1, "velocity": 56}, {"time": 1011, "pitch": 64, "duration": 1, "velocity": 55}, {"time": 1011, "pitch": 66, "duration": 1, "velocity": 56}, {"time": 1012, "pitch": 67, "duration": 1, "velocity": 55}, {"time": 1012, "pitch": 69, "duration": 1, "velocity": 62}, {"time": 1012, "pitch": 71, "duration": 1, "velocity": 59}, {"time": 1013, "pitch": 73, "duration": 1, "velocity": 61}, {"time": 1013, "pitch": 74, "duration": 1, "velocity": 65}, {"time": 1013, "pitch": 76, "duration": 1, "velocity": 69}, {"time": 1014, "pitch": 78, "duration": 1, "velocity": 72}, {"time": 1014, "pitch": 79, "duration": 1, "velocity": 82}, {"time": 1014, "pitch": 81, "duration": 1, "velocity": 72}, {"time": 1015, "pitch": 83, "duration": 1, "velocity": 59}, {"time": 1015, "pitch": 85, "duration": 1, "velocity": 59}, {"time": 1016, "pitch": 86, "duration": 1, "velocity": 58}, {"time": 1016, "pitch": 88, "duration": 1, "velocity": 53}, {"time": 1016, "pitch": 90, "duration": 1, "velocity": 49}, {"time": 1017, "pitch": 91, "duration": 1, "velocity": 49}, {"time": 1017, "pitch": 93, "duration": 1, "velocity": 56}, {"time": 1018, "pitch": 95, "duration": 1, "velocity": 59}, {"time": 1018, "pitch": 97, "duration": 1, "velocity": 79}, {"time": 1018, "pitch": 98, "duration": 1, "velocity": 81}, {"time": 1403, "pitch": 74, "duration": 8, "velocity": 102}, {"time": 1412, "pitch": 65, "duration": 8, "velocity": 96}, {"time": 1421, "pitch": 74, "duration": 6, "velocity": 107}, {"time": 1427, "pitch": 72, "duration": 12, "velocity": 100}, {"time": 1439, "pitch": 77, "duration": 11, "velocity": 102}, {"time": 1451, "pitch": 72, "duration": 5, "velocity": 99}, {"time": 1457, "pitch": 65, "duration": 1, "velocity": 89}, {"time": 1460, "pitch": 65, "duration": 9, "velocity": 88}, {"time": 1469, "pitch": 77, "duration": 5, "velocity": 107}, {"time": 1475, "pitch": 70, "duration": 11, "velocity": 107}, {"time": 1481, "pitch": 75, "duration": 3, "velocity": 112}, {"time": 1484, "pitch": 74, "duration": 6, "velocity": 93}, {"time": 1490, "pitch": 41, "duration": 2, "velocity": 97}, {"time": 1490, "pitch": 70, "duration": 8, "velocity": 95}, {"time": 1493, "pitch": 46, "duration": 3, "velocity": 112}, {"time": 1496, "pitch": 53, "duration": 3, "velocity": 95}, {"time": 1499, "pitch": 54, "duration": 4, "velocity": 99}, {"time": 1499, "pitch": 54, "duration": 4, "velocity": 102}, {"time": 1505, "pitch": 46, "duration": 8, "velocity": 95}, {"time": 1514, "pitch": 42, "duration": 2, "velocity": 122}, {"time": 1517, "pitch": 41, "duration": 3, "velocity": 85}, {"time": 1517, "pitch": 70, "duration": 3, "velocity": 102}, {"time": 1520, "pitch": 39, "duration": 2, "velocity": 97}, {"time": 1520, "pitch": 72, "duration": 3, "velocity": 93}, {"time": 1523, "pitch": 38, "duration": 14, "velocity": 97}, {"time": 1523, "pitch": 75, "duration": 9, "velocity": 112}, {"time": 1529, "pitch": 74, "duration": 7, "velocity": 112}, {"time": 1535, "pitch": 70, "duration": 6, "velocity": 93}, {"time": 1541, "pitch": 34, "duration": 3, "velocity": 102}, {"time": 1541, "pitch": 65, "duration": 6, "velocity": 83}, {"time": 1544, "pitch": 35, "duration": 3, "velocity": 81}, {"time": 1547, "pitch": 36, "duration": 17, "velocity": 95}, {"time": 1547, "pitch": 67, "duration": 6, "velocity": 100}, {"time": 1565, "pitch": 31, "duration": 5, "velocity": 92}, {"time": 1565, "pitch": 69, "duration": 3, "velocity": 99}, {"time": 1568, "pitch": 70, "duration": 2, "velocity": 93}, {"time": 1571, "pitch": 29, "duration": 10, "velocity": 95}, {"time": 1571, "pitch": 67, "duration": 14, "velocity": 96}, {"time": 1583, "pitch": 29, "duration": 15, "velocity": 100}, {"time": 1583, "pitch": 65, "duration": 13, "velocity": 99}, {"time": 1769, "pitch": 65, "duration": 3, "velocity": 77}, {"time": 1772, "pitch": 70, "duration": 3, "velocity": 96}, {"time": 1775, "pitch": 69, "duration": 6, "velocity": 86}, {"time": 1781, "pitch": 67, "duration": 5, "velocity": 85}, {"time": 1787, "pitch": 65, "duration": 18, "velocity": 93}, {"time": 1931, "pitch": 74, "duration": 6, "velocity": 99}, {"time": 1937, "pitch": 72, "duration": 6, "velocity": 88}, {"time": 1943, "pitch": 75, "duration": 6, "velocity": 107}, {"time": 1949, "pitch": 74, "duration": 18, "velocity": 102}, {"time": 1961, "pitch": 70, "duration": 5, "velocity": 102}, {"time": 1967, "pitch": 68, "duration": 15, "velocity": 107}, {"time": 2129, "pitch": 70, "duration": 3, "velocity": 117}, {"time": 2135, "pitch": 70, "duration": 3, "velocity": 97}, {"time": 2138, "pitch": 72, "duration": 4, "velocity": 89}, {"time": 2141, "pitch": 74, "duration": 5, "velocity": 97}, {"time": 2147, "pitch": 75, "duration": 10, "velocity": 122}, {"time": 2159, "pitch": 77, "duration": 11, "velocity": 99}, {"time": 2321, "pitch": 63, "duration": 3, "velocity": 99}, {"time": 2321, "pitch": 75, "duration": 3, "velocity": 95}, {"time": 2327, "pitch": 63, "duration": 3, "velocity": 102}, {"time": 2327, "pitch": 75, "duration": 3, "velocity": 95}, {"time": 2333, "pitch": 63, "duration": 3, "velocity": 102}, {"time": 2333, "pitch": 75, "duration": 3, "velocity": 96}, {"time": 2339, "pitch": 65, "duration": 3, "velocity": 117}, {"time": 2339, "pitch": 77, "duration": 3, "velocity": 102}, {"time": 2744, "pitch": 74, "duration": 3, "velocity": 97}, {"time": 2747, "pitch": 79, "duration": 6, "velocity": 112}, {"time": 2753, "pitch": 67, "duration": 2, "velocity": 99}, {"time": 2756, "pitch": 74, "duration": 11, "velocity": 102}, {"time": 2762, "pitch": 82, "duration": 6, "velocity": 127}, {"time": 2768, "pitch": 81, "duration": 2, "velocity": 85}, {"time": 2769, "pitch": 79, "duration": 2, "velocity": 95}, {"time": 2771, "pitch": 77, "duration": 7, "velocity": 92}, {"time": 2777, "pitch": 67, "duration": 3, "velocity": 83}, {"time": 2780, "pitch": 72, "duration": 7, "velocity": 90}, {"time": 2789, "pitch": 77, "duration": 5, "velocity": 97}, {"time": 2795, "pitch": 75, "duration": 10, "velocity": 112}, {"time": 2804, "pitch": 75, "duration": 1, "velocity": 112}, {"time": 2813, "pitch": 77, "duration": 3, "velocity": 90}, {"time": 2816, "pitch": 75, "duration": 3, "velocity": 95}, {"time": 2819, "pitch": 74, "duration": 12, "velocity": 102}, {"time": 2831, "pitch": 72, "duration": 2, "velocity": 117}, {"time": 2834, "pitch": 70, "duration": 6, "velocity": 122}, {"time": 2840, "pitch": 69, "duration": 3, "velocity": 76}, {"time": 2843, "pitch": 67, "duration": 5, "velocity": 90}, {"time": 2849, "pitch": 63, "duration": 3, "velocity": 83}, {"time": 2852, "pitch": 67, "duration": 6, "velocity": 99}, {"time": 2858, "pitch": 70, "duration": 2, "velocity": 100}, {"time": 2861, "pitch": 75, "duration": 3, "velocity": 93}, {"time": 2864, "pitch": 74, "duration": 3, "velocity": 93}, {"time": 2867, "pitch": 72, "duration": 7, "velocity": 127}, {"time": 2873, "pitch": 72, "duration": 1, "velocity": 67}, {"time": 2873, "pitch": 77, "duration": 2, "velocity": 67}, {"time": 2876, "pitch": 72, "duration": 12, "velocity": 97}, {"time": 2876, "pitch": 77, "duration": 12, "velocity": 92}, {"time": 2885, "pitch": 81, "duration": 6, "velocity": 112}, {"time": 2891, "pitch": 83, "duration": 10, "velocity": 112}, {"time": 2909, "pitch": 67, "duration": 3, "velocity": 97}, {"time": 2912, "pitch": 69, "duration": 3, "velocity": 99}, {"time": 2915, "pitch": 71, "duration": 7, "velocity": 100}, {"time": 2924, "pitch": 72, "duration": 8, "velocity": 102}, {"time": 2933, "pitch": 74, "duration": 6, "velocity": 102}, {"time": 2939, "pitch": 75, "duration": 9, "velocity": 107}, {"time": 2948, "pitch": 72, "duration": 4, "velocity": 112}, {"time": 2954, "pitch": 68, "duration": 3, "velocity": 117}, {"time": 2960, "pitch": 63, "duration": 1, "velocity": 122}, {"time": 2963, "pitch": 63, "duration": 7, "velocity": 112}, {"time": 2969, "pitch": 65, "duration": 3, "velocity": 88}, {"time": 2972, "pitch": 63, "duration": 2, "velocity": 89}, {"time": 2975, "pitch": 62, "duration": 3, "velocity": 95}, {"time": 2978, "pitch": 63, "duration": 2, "velocity": 127}, {"time": 2981, "pitch": 65, "duration": 5, "velocity": 99}, {"time": 2987, "pitch": 67, "duration": 11, "velocity": 127}, {"time": 2993, "pitch": 70, "duration": 1, "velocity": 86}, {"time": 2993, "pitch": 82, "duration": 1, "velocity": 69}, {"time": 2996, "pitch": 70, "duration": 7, "velocity": 117}, {"time": 2996, "pitch": 82, "duration": 6, "velocity": 92}, {"time": 3002, "pitch": 67, "duration": 6, "velocity": 97}, {"time": 3002, "pitch": 79, "duration": 5, "velocity": 86}, {"time": 3008, "pitch": 62, "duration": 3, "velocity": 100}, {"time": 3008, "pitch": 74, "duration": 3, "velocity": 107}, {"time": 3011, "pitch": 60, "duration": 12, "velocity": 85}, {"time": 3011, "pitch": 72, "duration": 12, "velocity": 112}, {"time": 3023, "pitch": 58, "duration": 2, "velocity": 122}, {"time": 3026, "pitch": 60, "duration": 4, "velocity": 92}, {"time": 3029, "pitch": 62, "duration": 2, "velocity": 97}, {"time": 3032, "pitch": 65, "duration": 4, "velocity": 97}, {"time": 3035, "pitch": 63, "duration": 7, "velocity": 112}, {"time": 3044, "pitch": 62, "duration": 9, "velocity": 102}, {"time": 3053, "pitch": 63, "duration": 5, "velocity": 112}, {"time": 3059, "pitch": 65, "duration": 9, "velocity": 99}, {"time": 3068, "pitch": 70, "duration": 5, "velocity": 122}, {"time": 3077, "pitch": 77, "duration": 5, "velocity": 127}, {"time": 3083, "pitch": 79, "duration": 8, "velocity": 122}, {"time": 3092, "pitch": 75, "duration": 4, "velocity": 117}, {"time": 3098, "pitch": 77, "duration": 2, "velocity": 107}, {"time": 3101, "pitch": 79, "duration": 3, "velocity": 112}, {"time": 3107, "pitch": 77, "duration": 9, "velocity": 127}, {"time": 3116, "pitch": 79, "duration": 6, "velocity": 112}, {"time": 3125, "pitch": 81, "duration": 5, "velocity": 127}, {"time": 3131, "pitch": 82, "duration": 17, "velocity": 122}, {"time": 3916, "pitch": 75, "duration": 3, "velocity": 95}, {"time": 3919, "pitch": 80, "duration": 3, "velocity": 102}, {"time": 3922, "pitch": 83, "duration": 9, "velocity": 90}, {"time": 3931, "pitch": 82, "duration": 12, "velocity": 99}, {"time": 3940, "pitch": 80, "duration": 6, "velocity": 122}, {"time": 3947, "pitch": 76, "duration": 18, "velocity": 97}, {"time": 3953, "pitch": 66, "duration": 6, "velocity": 90}, {"time": 3959, "pitch": 64, "duration": 3, "velocity": 89}, {"time": 3962, "pitch": 66, "duration": 8, "velocity": 69}, {"time": 3964, "pitch": 71, "duration": 4, "velocity": 86}, {"time": 3967, "pitch": 75, "duration": 3, "velocity": 99}, {"time": 3970, "pitch": 73, "duration": 17, "velocity": 107}, {"time": 4093, "pitch": 73, "duration": 3, "velocity": 55}, {"time": 4094, "pitch": 75, "duration": 2, "velocity": 36}, {"time": 4096, "pitch": 78, "duration": 12, "velocity": 65}, {"time": 4109, "pitch": 73, "duration": 9, "velocity": 102}, {"time": 4118, "pitch": 75, "duration": 22, "velocity": 112}, {"time": 4138, "pitch": 70, "duration": 5, "velocity": 112}, {"time": 4144, "pitch": 68, "duration": 15, "velocity": 99}, {"time": 4156, "pitch": 66, "duration": 6, "velocity": 99}, {"time": 4156, "pitch": 70, "duration": 6, "velocity": 96}, {"time": 4161, "pitch": 64, "duration": 4, "velocity": 92}, {"time": 4164, "pitch": 63, "duration": 20, "velocity": 85}, {"time": 4168, "pitch": 68, "duration": 12, "velocity": 117}, {"time": 4180, "pitch": 66, "duration": 12, "velocity": 102}, {"time": 4191, "pitch": 64, "duration": 25, "velocity": 95}, {"time": 4211, "pitch": 68, "duration": 5, "velocity": 112}, {"time": 4216, "pitch": 66, "duration": 16, "velocity": 95}, {"time": 4230, "pitch": 71, "duration": 5, "velocity": 89}, {"time": 4237, "pitch": 71, "duration": 9, "velocity": 99}, {"time": 4247, "pitch": 70, "duration": 15, "velocity": 92}, {"time": 4262, "pitch": 71, "duration": 61, "velocity": 100}]}, {"program": 0, "is_drum": false, "name": "PIANO", "notes": [{"time": 11, "pitch": 46, "duration": 11, "velocity": 95}, {"time": 11, "pitch": 58, "duration": 12, "velocity": 89}, {"time": 11, "pitch": 62, "duration": 11, "velocity": 66}, {"time": 11, "pitch": 65, "duration": 9, "velocity": 44}, {"time": 23, "pitch": 45, "duration": 9, "velocity": 75}, {"time": 23, "pitch": 57, "duration": 9, "velocity": 78}, {"time": 32, "pitch": 46, "duration": 20, "velocity": 72}, {"time": 32, "pitch": 58, "duration": 20, "velocity": 79}, {"time": 32, "pitch": 62, "duration": 20, "velocity": 65}, {"time": 32, "pitch": 65, "duration": 20, "velocity": 74}, {"time": 53, "pitch": 50, "duration": 5, "velocity": 96}, {"time": 53, "pitch": 62, "duration": 6, "velocity": 86}, {"time": 53, "pitch": 65, "duration": 4, "velocity": 92}, {"time": 59, "pitch": 51, "duration": 12, "velocity": 93}, {"time": 59, "pitch": 63, "duration": 12, "velocity": 93}, {"time": 59, "pitch": 67, "duration": 12, "velocity": 77}, {"time": 71, "pitch": 45, "duration": 11, "velocity": 92}, {"time": 71, "pitch": 57, "duration": 10, "velocity": 90}, {"time": 71, "pitch": 60, "duration": 10, "velocity": 90}, {"time": 71, "pitch": 65, "duration": 12, "velocity": 88}, {"time": 83, "pitch": 43, "duration": 12, "velocity": 77}, {"time": 83, "pitch": 55, "duration": 11, "velocity": 82}, {"time": 83, "pitch": 58, "duration": 11, "velocity": 96}, {"time": 83, "pitch": 62, "duration": 11, "velocity": 81}, {"time": 95, "pitch": 41, "duration": 12, "velocity": 85}, {"time": 95, "pitch": 53, "duration": 11, "velocity": 89}, {"time": 95, "pitch": 57, "duration": 11, "velocity": 88}, {"time": 95, "pitch": 60, "duration": 11, "velocity": 81}, {"time": 107, "pitch": 39, "duration": 23, "velocity": 99}, {"time": 107, "pitch": 55, "duration": 9, "velocity": 67}, {"time": 107, "pitch": 58, "duration": 5, "velocity": 82}, {"time": 113, "pitch": 51, "duration": 7, "velocity": 85}, {"time": 116, "pitch": 58, "duration": 15, "velocity": 99}, {"time": 122, "pitch": 51, "duration": 8, "velocity": 61}, {"time": 125, "pitch": 55, "duration": 6, "velocity": 85}, {"time": 131, "pitch": 38, "duration": 24, "velocity": 83}, {"time": 131, "pitch": 53, "duration": 7, "velocity": 86}, {"time": 131, "pitch": 57, "duration": 4, "velocity": 86}, {"time": 137, "pitch": 50, "duration": 7, "velocity": 63}, {"time": 140, "pitch": 53, "duration": 15, "velocity": 89}, {"time": 140, "pitch": 57, "duration": 15, "velocity": 83}, {"time": 149, "pitch": 50, "duration": 5, "velocity": 68}, {"time": 155, "pitch": 36, "duration": 9, "velocity": 56}, {"time": 155, "pitch": 43, "duration": 11, "velocity": 71}, {"time": 155, "pitch": 48, "duration": 10, "velocity": 82}, {"time": 155, "pitch": 55, "duration": 7, "velocity": 92}, {"time": 155, "pitch": 60, "duration": 6, "velocity": 89}, {"time": 155, "pitch": 63, "duration": 7, "velocity": 90}, {"time": 167, "pitch": 38, "duration": 12, "velocity": 83}, {"time": 167, "pitch": 57, "duration": 12, "velocity": 92}, {"time": 167, "pitch": 62, "duration": 6, "velocity": 92}, {"time": 167, "pitch": 65, "duration": 7, "velocity": 89}, {"time": 179, "pitch": 39, "duration": 12, "velocity": 95}, {"time": 179, "pitch": 63, "duration": 12, "velocity": 100}, {"time": 179, "pitch": 67, "duration": 12, "velocity": 90}, {"time": 191, "pitch": 41, "duration": 60, "velocity": 59}, {"time": 191, "pitch": 48, "duration": 59, "velocity": 74}, {"time": 191, "pitch": 53, "duration": 59, "velocity": 85}, {"time": 191, "pitch": 60, "duration": 59, "velocity": 93}, {"time": 191, "pitch": 65, "duration": 59, "velocity": 89}, {"time": 251, "pitch": 46, "duration": 16, "velocity": 79}, {"time": 251, "pitch": 58, "duration": 7, "velocity": 71}, {"time": 251, "pitch": 62, "duration": 10, "velocity": 64}, {"time": 251, "pitch": 65, "duration": 11, "velocity": 74}, {"time": 257, "pitch": 50, "duration": 9, "velocity": 41}, {"time": 263, "pitch": 58, "duration": 7, "velocity": 90}, {"time": 269, "pitch": 62, "duration": 20, "velocity": 56}, {"time": 269, "pitch": 65, "duration": 14, "velocity": 29}, {"time": 275, "pitch": 45, "duration": 15, "velocity": 64}, {"time": 275, "pitch": 57, "duration": 14, "velocity": 73}, {"time": 287, "pitch": 65, "duration": 12, "velocity": 76}, {"time": 290, "pitch": 62, "duration": 12, "velocity": 72}, {"time": 293, "pitch": 57, "duration": 7, "velocity": 60}, {"time": 299, "pitch": 43, "duration": 15, "velocity": 72}, {"time": 305, "pitch": 50, "duration": 8, "velocity": 60}, {"time": 311, "pitch": 58, "duration": 12, "velocity": 78}, {"time": 311, "pitch": 62, "duration": 13, "velocity": 72}, {"time": 323, "pitch": 41, "duration": 18, "velocity": 76}, {"time": 326, "pitch": 48, "duration": 14, "velocity": 56}, {"time": 329, "pitch": 53, "duration": 7, "velocity": 61}, {"time": 332, "pitch": 57, "duration": 3, "velocity": 59}, {"time": 335, "pitch": 60, "duration": 6, "velocity": 95}, {"time": 338, "pitch": 53, "duration": 1, "velocity": 72}, {"time": 341, "pitch": 57, "duration": 6, "velocity": 66}, {"time": 347, "pitch": 39, "duration": 15, "velocity": 99}, {"time": 347, "pitch": 58, "duration": 11, "velocity": 86}, {"time": 347, "pitch": 63, "duration": 10, "velocity": 83}, {"time": 353, "pitch": 51, "duration": 7, "velocity": 58}, {"time": 359, "pitch": 58, "duration": 1, "velocity": 70}, {"time": 359, "pitch": 63, "duration": 2, "velocity": 74}, {"time": 371, "pitch": 38, "duration": 1, "velocity": 68}, {"time": 371, "pitch": 62, "duration": 11, "velocity": 79}, {"time": 371, "pitch": 65, "duration": 14, "velocity": 72}, {"time": 371, "pitch": 69, "duration": 13, "velocity": 72}, {"time": 377, "pitch": 50, "duration": 7, "velocity": 40}, {"time": 380, "pitch": 53, "duration": 4, "velocity": 62}, {"time": 383, "pitch": 57, "duration": 1, "velocity": 100}, {"time": 386, "pitch": 62, "duration": 4, "velocity": 90}, {"time": 386, "pitch": 69, "duration": 2, "velocity": 37}, {"time": 389, "pitch": 65, "duration": 3, "velocity": 82}, {"time": 392, "pitch": 62, "duration": 1, "velocity": 34}, {"time": 395, "pitch": 48, "duration": 13, "velocity": 77}, {"time": 401, "pitch": 55, "duration": 7, "velocity": 52}, {"time": 407, "pitch": 63, "duration": 8, "velocity": 95}, {"time": 407, "pitch": 67, "duration": 6, "velocity": 69}, {"time": 413, "pitch": 60, "duration": 7, "velocity": 61}, {"time": 419, "pitch": 41, "duration": 18, "velocity": 81}, {"time": 419, "pitch": 65, "duration": 1, "velocity": 66}, {"time": 419, "pitch": 69, "duration": 1, "velocity": 38}, {"time": 422, "pitch": 48, "duration": 16, "velocity": 63}, {"time": 425, "pitch": 53, "duration": 7, "velocity": 82}, {"time": 428, "pitch": 55, "duration": 2, "velocity": 72}, {"time": 431, "pitch": 60, "duration": 7, "velocity": 96}, {"time": 434, "pitch": 53, "duration": 5, "velocity": 61}, {"time": 437, "pitch": 57, "duration": 5, "velocity": 66}, {"time": 443, "pitch": 46, "duration": 19, "velocity": 96}, {"time": 443, "pitch": 58, "duration": 11, "velocity": 95}, {"time": 443, "pitch": 62, "duration": 11, "velocity": 86}, {"time": 449, "pitch": 50, "duration": 17, "velocity": 35}, {"time": 455, "pitch": 58, "duration": 9, "velocity": 57}, {"time": 455, "pitch": 62, "duration": 10, "velocity": 61}, {"time": 455, "pitch": 65, "duration": 10, "velocity": 63}, {"time": 467, "pitch": 45, "duration": 22, "velocity": 71}, {"time": 467, "pitch": 57, "duration": 13, "velocity": 69}, {"time": 467, "pitch": 59, "duration": 1, "velocity": 65}, {"time": 467, "pitch": 62, "duration": 10, "velocity": 69}, {"time": 467, "pitch": 65, "duration": 9, "velocity": 63}, {"time": 479, "pitch": 65, "duration": 11, "velocity": 95}, {"time": 482, "pitch": 62, "duration": 10, "velocity": 75}, {"time": 485, "pitch": 57, "duration": 6, "velocity": 86}, {"time": 491, "pitch": 43, "duration": 14, "velocity": 88}, {"time": 497, "pitch": 50, "duration": 7, "velocity": 42}, {"time": 503, "pitch": 62, "duration": 12, "velocity": 90}, {"time": 506, "pitch": 58, "duration": 9, "velocity": 69}, {"time": 509, "pitch": 55, "duration": 6, "velocity": 56}, {"time": 515, "pitch": 38, "duration": 17, "velocity": 97}, {"time": 518, "pitch": 45, "duration": 11, "velocity": 43}, {"time": 521, "pitch": 50, "duration": 6, "velocity": 75}, {"time": 524, "pitch": 53, "duration": 3, "velocity": 66}, {"time": 527, "pitch": 57, "duration": 11, "velocity": 95}, {"time": 530, "pitch": 45, "duration": 2, "velocity": 34}, {"time": 533, "pitch": 53, "duration": 5, "velocity": 63}, {"time": 539, "pitch": 39, "duration": 14, "velocity": 97}, {"time": 545, "pitch": 51, "duration": 9, "velocity": 35}, {"time": 551, "pitch": 58, "duration": 10, "velocity": 97}, {"time": 551, "pitch": 63, "duration": 9, "velocity": 96}, {"time": 563, "pitch": 41, "duration": 17, "velocity": 85}, {"time": 563, "pitch": 57, "duration": 3, "velocity": 79}, {"time": 563, "pitch": 60, "duration": 3, "velocity": 89}, {"time": 569, "pitch": 48, "duration": 11, "velocity": 54}, {"time": 575, "pitch": 53, "duration": 9, "velocity": 82}, {"time": 575, "pitch": 65, "duration": 10, "velocity": 89}, {"time": 575, "pitch": 69, "duration": 10, "velocity": 85}, {"time": 587, "pitch": 46, "duration": 34, "velocity": 112}, {"time": 593, "pitch": 53, "duration": 6, "velocity": 79}, {"time": 599, "pitch": 58, "duration": 19, "velocity": 88}, {"time": 599, "pitch": 62, "duration": 18, "velocity": 93}, {"time": 599, "pitch": 65, "duration": 19, "velocity": 88}, {"time": 605, "pitch": 53, "duration": 9, "velocity": 86}, {"time": 617, "pitch": 53, "duration": 5, "velocity": 89}, {"time": 623, "pitch": 46, "duration": 7, "velocity": 92}, {"time": 623, "pitch": 56, "duration": 12, "velocity": 102}, {"time": 623, "pitch": 58, "duration": 12, "velocity": 117}, {"time": 635, "pitch": 39, "duration": 16, "velocity": 117}, {"time": 641, "pitch": 51, "duration": 10, "velocity": 78}, {"time": 647, "pitch": 58, "duration": 12, "velocity": 99}, {"time": 647, "pitch": 63, "duration": 12, "velocity": 99}, {"time": 653, "pitch": 55, "duration": 7, "velocity": 69}, {"time": 659, "pitch": 41, "duration": 14, "velocity": 75}, {"time": 665, "pitch": 48, "duration": 8, "velocity": 73}, {"time": 671, "pitch": 57, "duration": 6, "velocity": 92}, {"time": 671, "pitch": 60, "duration": 6, "velocity": 93}, {"time": 683, "pitch": 46, "duration": 10, "velocity": 69}, {"time": 683, "pitch": 50, "duration": 10, "velocity": 60}, {"time": 683, "pitch": 53, "duration": 9, "velocity": 49}, {"time": 683, "pitch": 58, "duration": 5, "velocity": 100}, {"time": 683, "pitch": 62, "duration": 5, "velocity": 86}, {"time": 683, "pitch": 65, "duration": 6, "velocity": 82}, {"time": 695, "pitch": 50, "duration": 5, "velocity": 70}, {"time": 695, "pitch": 57, "duration": 8, "velocity": 88}, {"time": 695, "pitch": 62, "duration": 6, "velocity": 88}, {"time": 695, "pitch": 65, "duration": 6, "velocity": 82}, {"time": 707, "pitch": 43, "duration": 5, "velocity": 68}, {"time": 707, "pitch": 55, "duration": 9, "velocity": 102}, {"time": 707, "pitch": 58, "duration": 7, "velocity": 99}, {"time": 707, "pitch": 62, "duration": 7, "velocity": 90}, {"time": 719, "pitch": 41, "duration": 5, "velocity": 69}, {"time": 719, "pitch": 53, "duration": 8, "velocity": 95}, {"time": 719, "pitch": 57, "duration": 5, "velocity": 85}, {"time": 719, "pitch": 60, "duration": 5, "velocity": 85}, {"time": 731, "pitch": 39, "duration": 14, "velocity": 99}, {"time": 731, "pitch": 55, "duration": 8, "velocity": 90}, {"time": 731, "pitch": 58, "duration": 10, "velocity": 99}, {"time": 731, "pitch": 63, "duration": 9, "velocity": 90}, {"time": 737, "pitch": 51, "duration": 9, "velocity": 38}, {"time": 743, "pitch": 58, "duration": 6, "velocity": 102}, {"time": 743, "pitch": 63, "duration": 6, "velocity": 102}, {"time": 749, "pitch": 55, "duration": 4, "velocity": 82}, {"time": 755, "pitch": 41, "duration": 15, "velocity": 76}, {"time": 755, "pitch": 57, "duration": 10, "velocity": 93}, {"time": 755, "pitch": 60, "duration": 10, "velocity": 95}, {"time": 761, "pitch": 48, "duration": 11, "velocity": 61}, {"time": 767, "pitch": 57, "duration": 5, "velocity": 99}, {"time": 767, "pitch": 60, "duration": 6, "velocity": 99}, {"time": 773, "pitch": 53, "duration": 1, "velocity": 40}, {"time": 779, "pitch": 46, "duration": 20, "velocity": 97}, {"time": 779, "pitch": 58, "duration": 10, "velocity": 122}, {"time": 779, "pitch": 62, "duration": 10, "velocity": 97}, {"time": 779, "pitch": 65, "duration": 7, "velocity": 83}, {"time": 785, "pitch": 50, "duration": 16, "velocity": 36}, {"time": 785, "pitch": 53, "duration": 7, "velocity": 35}, {"time": 791, "pitch": 58, "duration": 5, "velocity": 99}, {"time": 791, "pitch": 62, "duration": 5, "velocity": 89}, {"time": 791, "pitch": 65, "duration": 6, "velocity": 77}, {"time": 797, "pitch": 53, "duration": 2, "velocity": 49}, {"time": 803, "pitch": 48, "duration": 11, "velocity": 81}, {"time": 803, "pitch": 60, "duration": 11, "velocity": 100}, {"time": 803, "pitch": 63, "duration": 11, "velocity": 117}, {"time": 803, "pitch": 67, "duration": 9, "velocity": 92}, {"time": 815, "pitch": 53, "duration": 5, "velocity": 100}, {"time": 815, "pitch": 60, "duration": 8, "velocity": 82}, {"time": 815, "pitch": 65, "duration": 6, "velocity": 100}, {"time": 815, "pitch": 69, "duration": 5, "velocity": 107}, {"time": 827, "pitch": 39, "duration": 18, "velocity": 122}, {"time": 827, "pitch": 63, "duration": 9, "velocity": 100}, {"time": 827, "pitch": 67, "duration": 6, "velocity": 100}, {"time": 827, "pitch": 70, "duration": 7, "velocity": 97}, {"time": 833, "pitch": 51, "duration": 8, "velocity": 40}, {"time": 839, "pitch": 63, "duration": 7, "velocity": 97}, {"time": 839, "pitch": 67, "duration": 6, "velocity": 112}, {"time": 839, "pitch": 70, "duration": 7, "velocity": 107}, {"time": 845, "pitch": 51, "duration": 2, "velocity": 59}, {"time": 851, "pitch": 38, "duration": 13, "velocity": 83}, {"time": 851, "pitch": 62, "duration": 10, "velocity": 107}, {"time": 851, "pitch": 66, "duration": 10, "velocity": 122}, {"time": 851, "pitch": 69, "duration": 10, "velocity": 102}, {"time": 857, "pitch": 45, "duration": 6, "velocity": 50}, {"time": 863, "pitch": 66, "duration": 9, "velocity": 127}, {"time": 863, "pitch": 69, "duration": 7, "velocity": 96}, {"time": 863, "pitch": 72, "duration": 6, "velocity": 97}, {"time": 869, "pitch": 62, "duration": 4, "velocity": 86}, {"time": 875, "pitch": 43, "duration": 11, "velocity": 69}, {"time": 875, "pitch": 62, "duration": 9, "velocity": 90}, {"time": 875, "pitch": 67, "duration": 10, "velocity": 100}, {"time": 875, "pitch": 70, "duration": 6, "velocity": 117}, {"time": 887, "pitch": 41, "duration": 6, "velocity": 60}, {"time": 887, "pitch": 60, "duration": 6, "velocity": 90}, {"time": 887, "pitch": 65, "duration": 9, "velocity": 92}, {"time": 887, "pitch": 69, "duration": 5, "velocity": 92}, {"time": 899, "pitch": 40, "duration": 14, "velocity": 76}, {"time": 899, "pitch": 64, "duration": 16, "velocity": 93}, {"time": 899, "pitch": 67, "duration": 16, "velocity": 97}, {"time": 899, "pitch": 70, "duration": 15, "velocity": 117}, {"time": 923, "pitch": 48, "duration": 14, "velocity": 73}, {"time": 923, "pitch": 60, "duration": 9, "velocity": 89}, {"time": 923, "pitch": 63, "duration": 10, "velocity": 93}, {"time": 923, "pitch": 67, "duration": 8, "velocity": 79}, {"time": 929, "pitch": 55, "duration": 6, "velocity": 56}, {"time": 935, "pitch": 63, "duration": 10, "velocity": 112}, {"time": 935, "pitch": 67, "duration": 9, "velocity": 86}, {"time": 941, "pitch": 60, "duration": 15, "velocity": 63}, {"time": 947, "pitch": 48, "duration": 14, "velocity": 64}, {"time": 947, "pitch": 63, "duration": 10, "velocity": 82}, {"time": 947, "pitch": 67, "duration": 9, "velocity": 81}, {"time": 959, "pitch": 55, "duration": 1, "velocity": 20}, {"time": 959, "pitch": 63, "duration": 7, "velocity": 117}, {"time": 959, "pitch": 67, "duration": 6, "velocity": 88}, {"time": 965, "pitch": 60, "duration": 5, "velocity": 71}, {"time": 971, "pitch": 41, "duration": 22, "velocity": 92}, {"time": 971, "pitch": 60, "duration": 5, "velocity": 55}, {"time": 971, "pitch": 65, "duration": 4, "velocity": 107}, {"time": 971, "pitch": 69, "duration": 3, "velocity": 97}, {"time": 977, "pitch": 48, "duration": 7, "velocity": 52}, {"time": 983, "pitch": 57, "duration": 10, "velocity": 107}, {"time": 983, "pitch": 60, "duration": 10, "velocity": 100}, {"time": 989, "pitch": 48, "duration": 6, "velocity": 48}, {"time": 995, "pitch": 41, "duration": 13, "velocity": 107}, {"time": 995, "pitch": 53, "duration": 11, "velocity": 102}, {"time": 995, "pitch": 57, "duration": 11, "velocity": 100}, {"time": 995, "pitch": 60, "duration": 11, "velocity": 100}, {"time": 1019, "pitch": 46, "duration": 17, "velocity": 122}, {"time": 1019, "pitch": 58, "duration": 3, "velocity": 127}, {"time": 1019, "pitch": 62, "duration": 3, "velocity": 99}, {"time": 1019, "pitch": 65, "duration": 4, "velocity": 92}, {"time": 1031, "pitch": 50, "duration": 2, "velocity": 39}, {"time": 1031, "pitch": 53, "duration": 6, "velocity": 86}, {"time": 1031, "pitch": 65, "duration": 1, "velocity": 96}, {"time": 1031, "pitch": 70, "duration": 7, "velocity": 127}, {"time": 1031, "pitch": 74, "duration": 7, "velocity": 100}, {"time": 1037, "pitch": 50, "duration": 1, "velocity": 30}, {"time": 1037, "pitch": 65, "duration": 3, "velocity": 79}, {"time": 1040, "pitch": 69, "duration": 1, "velocity": 40}, {"time": 1043, "pitch": 41, "duration": 20, "velocity": 92}, {"time": 1043, "pitch": 65, "duration": 8, "velocity": 102}, {"time": 1043, "pitch": 69, "duration": 7, "velocity": 112}, {"time": 1043, "pitch": 72, "duration": 9, "velocity": 102}, {"time": 1049, "pitch": 48, "duration": 7, "velocity": 53}, {"time": 1055, "pitch": 53, "duration": 6, "velocity": 88}, {"time": 1055, "pitch": 69, "duration": 6, "velocity": 122}, {"time": 1055, "pitch": 72, "duration": 7, "velocity": 112}, {"time": 1061, "pitch": 48, "duration": 7, "velocity": 37}, {"time": 1067, "pitch": 43, "duration": 19, "velocity": 89}, {"time": 1067, "pitch": 67, "duration": 9, "velocity": 96}, {"time": 1067, "pitch": 70, "duration": 10, "velocity": 122}, {"time": 1067, "pitch": 74, "duration": 8, "velocity": 95}, {"time": 1073, "pitch": 50, "duration": 7, "velocity": 56}, {"time": 1079, "pitch": 55, "duration": 6, "velocity": 93}, {"time": 1079, "pitch": 70, "duration": 5, "velocity": 127}, {"time": 1079, "pitch": 74, "duration": 5, "velocity": 100}, {"time": 1085, "pitch": 50, "duration": 2, "velocity": 63}, {"time": 1091, "pitch": 38, "duration": 18, "velocity": 85}, {"time": 1091, "pitch": 62, "duration": 9, "velocity": 107}, {"time": 1091, "pitch": 65, "duration": 10, "velocity": 100}, {"time": 1091, "pitch": 69, "duration": 9, "velocity": 97}, {"time": 1097, "pitch": 45, "duration": 7, "velocity": 48}, {"time": 1103, "pitch": 50, "duration": 7, "velocity": 96}, {"time": 1103, "pitch": 62, "duration": 7, "velocity": 92}, {"time": 1103, "pitch": 65, "duration": 5, "velocity": 112}, {"time": 1103, "pitch": 69, "duration": 5, "velocity": 112}, {"time": 1109, "pitch": 45, "duration": 1, "velocity": 89}, {"time": 1115, "pitch": 39, "duration": 18, "velocity": 127}, {"time": 1115, "pitch": 63, "duration": 9, "velocity": 122}, {"time": 1115, "pitch": 67, "duration": 9, "velocity": 97}, {"time": 1115, "pitch": 70, "duration": 2, "velocity": 99}, {"time": 1121, "pitch": 51, "duration": 8, "velocity": 86}, {"time": 1127, "pitch": 63, "duration": 9, "velocity": 122}, {"time": 1127, "pitch": 67, "duration": 7, "velocity": 96}, {"time": 1127, "pitch": 70, "duration": 6, "velocity": 97}, {"time": 1133, "pitch": 51, "duration": 1, "velocity": 100}, {"time": 1136, "pitch": 62, "duration": 13, "velocity": 41}, {"time": 1139, "pitch": 38, "duration": 19, "velocity": 70}, {"time": 1139, "pitch": 65, "duration": 10, "velocity": 102}, {"time": 1139, "pitch": 69, "duration": 7, "velocity": 112}, {"time": 1145, "pitch": 45, "duration": 12, "velocity": 66}, {"time": 1151, "pitch": 62, "duration": 8, "velocity": 100}, {"time": 1151, "pitch": 65, "duration": 6, "velocity": 127}, {"time": 1151, "pitch": 69, "duration": 5, "velocity": 117}, {"time": 1157, "pitch": 50, "duration": 1, "velocity": 83}, {"time": 1163, "pitch": 36, "duration": 17, "velocity": 96}, {"time": 1163, "pitch": 60, "duration": 9, "velocity": 107}, {"time": 1163, "pitch": 63, "duration": 9, "velocity": 127}, {"time": 1163, "pitch": 67, "duration": 9, "velocity": 99}, {"time": 1169, "pitch": 43, "duration": 11, "velocity": 53}, {"time": 1175, "pitch": 60, "duration": 3, "velocity": 102}, {"time": 1175, "pitch": 63, "duration": 3, "velocity": 127}, {"time": 1175, "pitch": 67, "duration": 3, "velocity": 112}, {"time": 1181, "pitch": 48, "duration": 4, "velocity": 59}, {"time": 1184, "pitch": 65, "duration": 1, "velocity": 85}, {"time": 1184, "pitch": 77, "duration": 1, "velocity": 76}, {"time": 1187, "pitch": 41, "duration": 19, "velocity": 99}, {"time": 1187, "pitch": 65, "duration": 5, "velocity": 112}, {"time": 1187, "pitch": 77, "duration": 4, "velocity": 100}, {"time": 1193, "pitch": 48, "duration": 8, "velocity": 82}, {"time": 1196, "pitch": 67, "duration": 1, "velocity": 90}, {"time": 1196, "pitch": 79, "duration": 1, "velocity": 85}, {"time": 1199, "pitch": 53, "duration": 9, "velocity": 112}, {"time": 1199, "pitch": 67, "duration": 2, "velocity": 122}, {"time": 1199, "pitch": 79, "duration": 2, "velocity": 102}, {"time": 1205, "pitch": 48, "duration": 1, "velocity": 39}, {"time": 1205, "pitch": 69, "duration": 1, "velocity": 96}, {"time": 1205, "pitch": 81, "duration": 1, "velocity": 53}, {"time": 1211, "pitch": 46, "duration": 17, "velocity": 122}, {"time": 1211, "pitch": 65, "duration": 9, "velocity": 96}, {"time": 1211, "pitch": 70, "duration": 7, "velocity": 112}, {"time": 1211, "pitch": 74, "duration": 9, "velocity": 97}, {"time": 1217, "pitch": 50, "duration": 7, "velocity": 53}, {"time": 1220, "pitch": 70, "duration": 1, "velocity": 25}, {"time": 1223, "pitch": 53, "duration": 6, "velocity": 107}, {"time": 1223, "pitch": 70, "duration": 7, "velocity": 127}, {"time": 1223, "pitch": 74, "duration": 8, "velocity": 112}, {"time": 1226, "pitch": 50, "duration": 1, "velocity": 55}, {"time": 1232, "pitch": 65, "duration": 1, "velocity": 41}, {"time": 1235, "pitch": 41, "duration": 18, "velocity": 74}, {"time": 1235, "pitch": 65, "duration": 2, "velocity": 75}, {"time": 1235, "pitch": 69, "duration": 2, "velocity": 99}, {"time": 1235, "pitch": 72, "duration": 2, "velocity": 102}, {"time": 1238, "pitch": 48, "duration": 14, "velocity": 81}, {"time": 1241, "pitch": 53, "duration": 7, "velocity": 100}, {"time": 1244, "pitch": 57, "duration": 2, "velocity": 99}, {"time": 1247, "pitch": 60, "duration": 5, "velocity": 122}, {"time": 1250, "pitch": 53, "duration": 1, "velocity": 100}, {"time": 1253, "pitch": 57, "duration": 1, "velocity": 90}, {"time": 1259, "pitch": 43, "duration": 18, "velocity": 97}, {"time": 1259, "pitch": 62, "duration": 9, "velocity": 95}, {"time": 1259, "pitch": 67, "duration": 9, "velocity": 96}, {"time": 1259, "pitch": 70, "duration": 9, "velocity": 112}, {"time": 1265, "pitch": 50, "duration": 12, "velocity": 56}, {"time": 1268, "pitch": 55, "duration": 4, "velocity": 86}, {"time": 1271, "pitch": 67, "duration": 7, "velocity": 122}, {"time": 1271, "pitch": 70, "duration": 6, "velocity": 127}, {"time": 1274, "pitch": 55, "duration": 2, "velocity": 81}, {"time": 1277, "pitch": 62, "duration": 4, "velocity": 99}, {"time": 1283, "pitch": 38, "duration": 1, "velocity": 90}, {"time": 1283, "pitch": 62, "duration": 9, "velocity": 100}, {"time": 1283, "pitch": 65, "duration": 9, "velocity": 102}, {"time": 1283, "pitch": 69, "duration": 9, "velocity": 100}, {"time": 1289, "pitch": 50, "duration": 11, "velocity": 86}, {"time": 1292, "pitch": 57, "duration": 3, "velocity": 47}, {"time": 1295, "pitch": 65, "duration": 6, "velocity": 112}, {"time": 1295, "pitch": 69, "duration": 6, "velocity": 112}, {"time": 1298, "pitch": 57, "duration": 1, "velocity": 112}, {"time": 1301, "pitch": 62, "duration": 4, "velocity": 100}, {"time": 1307, "pitch": 39, "duration": 1, "velocity": 117}, {"time": 1307, "pitch": 62, "duration": 1, "velocity": 70}, {"time": 1307, "pitch": 63, "duration": 9, "velocity": 122}, {"time": 1307, "pitch": 67, "duration": 9, "velocity": 95}, {"time": 1307, "pitch": 70, "duration": 9, "velocity": 95}, {"time": 1313, "pitch": 51, "duration": 5, "velocity": 59}, {"time": 1319, "pitch": 51, "duration": 5, "velocity": 56}, {"time": 1319, "pitch": 58, "duration": 6, "velocity": 99}, {"time": 1319, "pitch": 63, "duration": 11, "velocity": 127}, {"time": 1319, "pitch": 67, "duration": 11, "velocity": 96}, {"time": 1319, "pitch": 70, "duration": 10, "velocity": 99}, {"time": 1331, "pitch": 50, "duration": 17, "velocity": 74}, {"time": 1331, "pitch": 62, "duration": 8, "velocity": 107}, {"time": 1331, "pitch": 65, "duration": 9, "velocity": 100}, {"time": 1331, "pitch": 69, "duration": 8, "velocity": 97}, {"time": 1337, "pitch": 57, "duration": 7, "velocity": 90}, {"time": 1343, "pitch": 65, "duration": 5, "velocity": 112}, {"time": 1343, "pitch": 69, "duration": 6, "velocity": 107}, {"time": 1346, "pitch": 57, "duration": 2, "velocity": 92}, {"time": 1349, "pitch": 62, "duration": 3, "velocity": 100}, {"time": 1355, "pitch": 48, "duration": 11, "velocity": 82}, {"time": 1355, "pitch": 60, "duration": 7, "velocity": 100}, {"time": 1355, "pitch": 63, "duration": 6, "velocity": 127}, {"time": 1355, "pitch": 67, "duration": 6, "velocity": 97}, {"time": 1367, "pitch": 50, "duration": 4, "velocity": 81}, {"time": 1367, "pitch": 57, "duration": 4, "velocity": 102}, {"time": 1367, "pitch": 62, "duration": 4, "velocity": 96}, {"time": 1367, "pitch": 65, "duration": 5, "velocity": 95}, {"time": 1379, "pitch": 39, "duration": 4, "velocity": 102}, {"time": 1379, "pitch": 63, "duration": 5, "velocity": 112}, {"time": 1379, "pitch": 67, "duration": 4, "velocity": 107}, {"time": 1379, "pitch": 70, "duration": 5, "velocity": 127}, {"time": 1391, "pitch": 41, "duration": 4, "velocity": 93}, {"time": 1391, "pitch": 60, "duration": 5, "velocity": 107}, {"time": 1391, "pitch": 65, "duration": 4, "velocity": 102}, {"time": 1391, "pitch": 69, "duration": 4, "velocity": 96}, {"time": 1403, "pitch": 46, "duration": 19, "velocity": 99}, {"time": 1403, "pitch": 58, "duration": 10, "velocity": 127}, {"time": 1403, "pitch": 62, "duration": 10, "velocity": 97}, {"time": 1403, "pitch": 65, "duration": 10, "velocity": 88}, {"time": 1415, "pitch": 58, "duration": 11, "velocity": 83}, {"time": 1415, "pitch": 62, "duration": 16, "velocity": 79}, {"time": 1415, "pitch": 65, "duration": 17, "velocity": 83}, {"time": 1427, "pitch": 45, "duration": 14, "velocity": 71}, {"time": 1427, "pitch": 57, "duration": 13, "velocity": 83}, {"time": 1439, "pitch": 65, "duration": 7, "velocity": 95}, {"time": 1442, "pitch": 62, "duration": 3, "velocity": 58}, {"time": 1445, "pitch": 57, "duration": 5, "velocity": 71}, {"time": 1451, "pitch": 44, "duration": 19, "velocity": 77}, {"time": 1451, "pitch": 56, "duration": 14, "velocity": 67}, {"time": 1451, "pitch": 60, "duration": 16, "velocity": 73}, {"time": 1451, "pitch": 63, "duration": 15, "velocity": 72}, {"time": 1466, "pitch": 56, "duration": 3, "velocity": 75}, {"time": 1469, "pitch": 63, "duration": 3, "velocity": 97}, {"time": 1472, "pitch": 60, "duration": 1, "velocity": 69}, {"time": 1475, "pitch": 43, "duration": 17, "velocity": 76}, {"time": 1475, "pitch": 62, "duration": 8, "velocity": 81}, {"time": 1481, "pitch": 50, "duration": 7, "velocity": 64}, {"time": 1484, "pitch": 55, "duration": 4, "velocity": 69}, {"time": 1487, "pitch": 62, "duration": 7, "velocity": 100}, {"time": 1490, "pitch": 50, "duration": 2, "velocity": 54}, {"time": 1490, "pitch": 58, "duration": 4, "velocity": 89}, {"time": 1493, "pitch": 55, "duration": 4, "velocity": 69}, {"time": 1499, "pitch": 39, "duration": 17, "velocity": 85}, {"time": 1499, "pitch": 58, "duration": 3, "velocity": 95}, {"time": 1499, "pitch": 63, "duration": 6, "velocity": 95}, {"time": 1499, "pitch": 66, "duration": 5, "velocity": 92}, {"time": 1502, "pitch": 51, "duration": 9, "velocity": 89}, {"time": 1505, "pitch": 58, "duration": 3, "velocity": 75}, {"time": 1508, "pitch": 63, "duration": 9, "velocity": 96}, {"time": 1508, "pitch": 66, "duration": 9, "velocity": 99}, {"time": 1514, "pitch": 51, "duration": 2, "velocity": 64}, {"time": 1517, "pitch": 58, "duration": 1, "velocity": 72}, {"time": 1523, "pitch": 38, "duration": 18, "velocity": 83}, {"time": 1523, "pitch": 53, "duration": 1, "velocity": 90}, {"time": 1523, "pitch": 57, "duration": 2, "velocity": 85}, {"time": 1526, "pitch": 45, "duration": 15, "velocity": 79}, {"time": 1529, "pitch": 50, "duration": 13, "velocity": 93}, {"time": 1532, "pitch": 62, "duration": 9, "velocity": 100}, {"time": 1532, "pitch": 65, "duration": 9, "velocity": 96}, {"time": 1541, "pitch": 57, "duration": 1, "velocity": 85}, {"time": 1547, "pitch": 48, "duration": 19, "velocity": 76}, {"time": 1547, "pitch": 60, "duration": 11, "velocity": 99}, {"time": 1547, "pitch": 63, "duration": 11, "velocity": 112}, {"time": 1547, "pitch": 67, "duration": 11, "velocity": 90}, {"time": 1556, "pitch": 55, "duration": 8, "velocity": 40}, {"time": 1559, "pitch": 63, "duration": 10, "velocity": 76}, {"time": 1559, "pitch": 67, "duration": 9, "velocity": 74}, {"time": 1565, "pitch": 60, "duration": 4, "velocity": 62}, {"time": 1571, "pitch": 41, "duration": 24, "velocity": 75}, {"time": 1571, "pitch": 60, "duration": 24, "velocity": 82}, {"time": 1571, "pitch": 65, "duration": 24, "velocity": 96}, {"time": 1571, "pitch": 69, "duration": 24, "velocity": 96}, {"time": 1583, "pitch": 48, "duration": 12, "velocity": 59}, {"time": 1595, "pitch": 46, "duration": 16, "velocity": 79}, {"time": 1595, "pitch": 58, "duration": 7, "velocity": 71}, {"time": 1595, "pitch": 62, "duration": 10, "velocity": 64}, {"time": 1595, "pitch": 65, "duration": 1, "velocity": 74}, {"time": 1601, "pitch": 50, "duration": 9, "velocity": 41}, {"time": 1607, "pitch": 58, "duration": 7, "velocity": 90}, {"time": 1613, "pitch": 62, "duration": 20, "velocity": 56}, {"time": 1613, "pitch": 65, "duration": 14, "velocity": 29}, {"time": 1619, "pitch": 45, "duration": 15, "velocity": 64}, {"time": 1619, "pitch": 57, "duration": 14, "velocity": 73}, {"time": 1631, "pitch": 65, "duration": 12, "velocity": 76}, {"time": 1634, "pitch": 62, "duration": 12, "velocity": 72}, {"time": 1637, "pitch": 57, "duration": 7, "velocity": 60}, {"time": 1643, "pitch": 43, "duration": 15, "velocity": 72}, {"time": 1649, "pitch": 50, "duration": 8, "velocity": 60}, {"time": 1655, "pitch": 58, "duration": 12, "velocity": 78}, {"time": 1655, "pitch": 62, "duration": 13, "velocity": 72}, {"time": 1667, "pitch": 41, "duration": 18, "velocity": 76}, {"time": 1670, "pitch": 48, "duration": 14, "velocity": 56}, {"time": 1673, "pitch": 53, "duration": 7, "velocity": 61}, {"time": 1676, "pitch": 57, "duration": 3, "velocity": 59}, {"time": 1679, "pitch": 60, "duration": 6, "velocity": 95}, {"time": 1682, "pitch": 53, "duration": 1, "velocity": 72}, {"time": 1685, "pitch": 57, "duration": 6, "velocity": 66}, {"time": 1691, "pitch": 39, "duration": 15, "velocity": 99}, {"time": 1691, "pitch": 58, "duration": 11, "velocity": 86}, {"time": 1691, "pitch": 63, "duration": 10, "velocity": 83}, {"time": 1697, "pitch": 51, "duration": 7, "velocity": 58}, {"time": 1703, "pitch": 58, "duration": 1, "velocity": 70}, {"time": 1703, "pitch": 63, "duration": 2, "velocity": 74}, {"time": 1715, "pitch": 38, "duration": 1, "velocity": 68}, {"time": 1715, "pitch": 62, "duration": 11, "velocity": 79}, {"time": 1715, "pitch": 65, "duration": 14, "velocity": 72}, {"time": 1715, "pitch": 69, "duration": 13, "velocity": 72}, {"time": 1721, "pitch": 50, "duration": 7, "velocity": 40}, {"time": 1724, "pitch": 53, "duration": 4, "velocity": 62}, {"time": 1727, "pitch": 57, "duration": 1, "velocity": 100}, {"time": 1730, "pitch": 62, "duration": 4, "velocity": 90}, {"time": 1730, "pitch": 69, "duration": 2, "velocity": 37}, {"time": 1733, "pitch": 65, "duration": 3, "velocity": 82}, {"time": 1736, "pitch": 62, "duration": 1, "velocity": 34}, {"time": 1739, "pitch": 48, "duration": 13, "velocity": 77}, {"time": 1745, "pitch": 55, "duration": 7, "velocity": 52}, {"time": 1751, "pitch": 63, "duration": 8, "velocity": 95}, {"time": 1751, "pitch": 67, "duration": 6, "velocity": 69}, {"time": 1757, "pitch": 60, "duration": 7, "velocity": 61}, {"time": 1763, "pitch": 41, "duration": 18, "velocity": 81}, {"time": 1763, "pitch": 65, "duration": 1, "velocity": 66}, {"time": 1763, "pitch": 69, "duration": 1, "velocity": 38}, {"time": 1766, "pitch": 48, "duration": 16, "velocity": 63}, {"time": 1769, "pitch": 53, "duration": 7, "velocity": 82}, {"time": 1772, "pitch": 55, "duration": 2, "velocity": 72}, {"time": 1775, "pitch": 60, "duration": 7, "velocity": 96}, {"time": 1778, "pitch": 53, "duration": 5, "velocity": 61}, {"time": 1781, "pitch": 57, "duration": 5, "velocity": 66}, {"time": 1787, "pitch": 46, "duration": 19, "velocity": 96}, {"time": 1787, "pitch": 58, "duration": 11, "velocity": 95}, {"time": 1787, "pitch": 62, "duration": 11, "velocity": 86}, {"time": 1793, "pitch": 50, "duration": 17, "velocity": 35}, {"time": 1799, "pitch": 58, "duration": 9, "velocity": 57}, {"time": 1799, "pitch": 62, "duration": 10, "velocity": 61}, {"time": 1799, "pitch": 65, "duration": 10, "velocity": 63}, {"time": 1811, "pitch": 45, "duration": 22, "velocity": 71}, {"time": 1811, "pitch": 57, "duration": 13, "velocity": 69}, {"time": 1811, "pitch": 59, "duration": 1, "velocity": 65}, {"time": 1811, "pitch": 62, "duration": 10, "velocity": 69}, {"time": 1811, "pitch": 65, "duration": 9, "velocity": 63}, {"time": 1823, "pitch": 65, "duration": 11, "velocity": 95}, {"time": 1826, "pitch": 62, "duration": 10, "velocity": 75}, {"time": 1829, "pitch": 57, "duration": 6, "velocity": 86}, {"time": 1835, "pitch": 43, "duration": 14, "velocity": 88}, {"time": 1841, "pitch": 50, "duration": 7, "velocity": 42}, {"time": 1847, "pitch": 62, "duration": 12, "velocity": 90}, {"time": 1850, "pitch": 58, "duration": 9, "velocity": 69}, {"time": 1853, "pitch": 55, "duration": 6, "velocity": 56}, {"time": 1859, "pitch": 38, "duration": 17, "velocity": 97}, {"time": 1862, "pitch": 45, "duration": 11, "velocity": 43}, {"time": 1865, "pitch": 50, "duration": 6, "velocity": 75}, {"time": 1868, "pitch": 53, "duration": 3, "velocity": 66}, {"time": 1871, "pitch": 57, "duration": 11, "velocity": 95}, {"time": 1874, "pitch": 45, "duration": 2, "velocity": 34}, {"time": 1877, "pitch": 53, "duration": 5, "velocity": 63}, {"time": 1883, "pitch": 39, "duration": 14, "velocity": 97}, {"time": 1889, "pitch": 51, "duration": 9, "velocity": 35}, {"time": 1895, "pitch": 58, "duration": 10, "velocity": 97}, {"time": 1895, "pitch": 63, "duration": 9, "velocity": 96}, {"time": 1907, "pitch": 41, "duration": 17, "velocity": 85}, {"time": 1907, "pitch": 57, "duration": 3, "velocity": 79}, {"time": 1907, "pitch": 60, "duration": 3, "velocity": 89}, {"time": 1913, "pitch": 48, "duration": 11, "velocity": 54}, {"time": 1919, "pitch": 53, "duration": 9, "velocity": 82}, {"time": 1919, "pitch": 65, "duration": 10, "velocity": 89}, {"time": 1919, "pitch": 69, "duration": 10, "velocity": 85}, {"time": 1931, "pitch": 46, "duration": 34, "velocity": 112}, {"time": 1937, "pitch": 53, "duration": 6, "velocity": 79}, {"time": 1943, "pitch": 58, "duration": 19, "velocity": 88}, {"time": 1943, "pitch": 62, "duration": 18, "velocity": 93}, {"time": 1943, "pitch": 65, "duration": 19, "velocity": 88}, {"time": 1949, "pitch": 53, "duration": 9, "velocity": 86}, {"time": 1961, "pitch": 53, "duration": 5, "velocity": 89}, {"time": 1967, "pitch": 46, "duration": 7, "velocity": 92}, {"time": 1967, "pitch": 56, "duration": 12, "velocity": 102}, {"time": 1967, "pitch": 58, "duration": 12, "velocity": 117}, {"time": 1979, "pitch": 39, "duration": 16, "velocity": 117}, {"time": 1985, "pitch": 51, "duration": 10, "velocity": 78}, {"time": 1991, "pitch": 58, "duration": 12, "velocity": 99}, {"time": 1991, "pitch": 63, "duration": 12, "velocity": 99}, {"time": 1997, "pitch": 55, "duration": 7, "velocity": 69}, {"time": 2003, "pitch": 41, "duration": 14, "velocity": 75}, {"time": 2009, "pitch": 48, "duration": 8, "velocity": 73}, {"time": 2015, "pitch": 57, "duration": 6, "velocity": 92}, {"time": 2015, "pitch": 60, "duration": 6, "velocity": 93}, {"time": 2027, "pitch": 46, "duration": 10, "velocity": 69}, {"time": 2027, "pitch": 50, "duration": 10, "velocity": 60}, {"time": 2027, "pitch": 53, "duration": 9, "velocity": 49}, {"time": 2027, "pitch": 58, "duration": 5, "velocity": 100}, {"time": 2027, "pitch": 62, "duration": 5, "velocity": 86}, {"time": 2027, "pitch": 65, "duration": 6, "velocity": 82}, {"time": 2039, "pitch": 50, "duration": 5, "velocity": 70}, {"time": 2039, "pitch": 57, "duration": 8, "velocity": 88}, {"time": 2039, "pitch": 62, "duration": 6, "velocity": 88}, {"time": 2039, "pitch": 65, "duration": 6, "velocity": 82}, {"time": 2051, "pitch": 43, "duration": 5, "velocity": 68}, {"time": 2051, "pitch": 55, "duration": 9, "velocity": 102}, {"time": 2051, "pitch": 58, "duration": 7, "velocity": 99}, {"time": 2051, "pitch": 62, "duration": 7, "velocity": 90}, {"time": 2063, "pitch": 41, "duration": 5, "velocity": 69}, {"time": 2063, "pitch": 53, "duration": 8, "velocity": 95}, {"time": 2063, "pitch": 57, "duration": 5, "velocity": 85}, {"time": 2063, "pitch": 60, "duration": 5, "velocity": 85}, {"time": 2075, "pitch": 39, "duration": 14, "velocity": 99}, {"time": 2075, "pitch": 55, "duration": 8, "velocity": 90}, {"time": 2075, "pitch": 58, "duration": 10, "velocity": 99}, {"time": 2075, "pitch": 63, "duration": 9, "velocity": 90}, {"time": 2081, "pitch": 51, "duration": 9, "velocity": 38}, {"time": 2087, "pitch": 58, "duration": 6, "velocity": 102}, {"time": 2087, "pitch": 63, "duration": 6, "velocity": 102}, {"time": 2093, "pitch": 55, "duration": 4, "velocity": 82}, {"time": 2099, "pitch": 41, "duration": 15, "velocity": 76}, {"time": 2099, "pitch": 57, "duration": 10, "velocity": 93}, {"time": 2099, "pitch": 60, "duration": 10, "velocity": 95}, {"time": 2105, "pitch": 48, "duration": 11, "velocity": 61}, {"time": 2111, "pitch": 57, "duration": 5, "velocity": 99}, {"time": 2111, "pitch": 60, "duration": 6, "velocity": 99}, {"time": 2117, "pitch": 53, "duration": 1, "velocity": 40}, {"time": 2123, "pitch": 46, "duration": 20, "velocity": 97}, {"time": 2123, "pitch": 58, "duration": 10, "velocity": 122}, {"time": 2123, "pitch": 62, "duration": 10, "velocity": 97}, {"time": 2123, "pitch": 65, "duration": 7, "velocity": 83}, {"time": 2129, "pitch": 50, "duration": 16, "velocity": 36}, {"time": 2129, "pitch": 53, "duration": 7, "velocity": 35}, {"time": 2135, "pitch": 58, "duration": 5, "velocity": 99}, {"time": 2135, "pitch": 62, "duration": 5, "velocity": 89}, {"time": 2135, "pitch": 65, "duration": 6, "velocity": 77}, {"time": 2141, "pitch": 53, "duration": 2, "velocity": 49}, {"time": 2147, "pitch": 48, "duration": 11, "velocity": 81}, {"time": 2147, "pitch": 60, "duration": 11, "velocity": 100}, {"time": 2147, "pitch": 63, "duration": 11, "velocity": 117}, {"time": 2147, "pitch": 67, "duration": 9, "velocity": 92}, {"time": 2159, "pitch": 53, "duration": 5, "velocity": 100}, {"time": 2159, "pitch": 60, "duration": 8, "velocity": 82}, {"time": 2159, "pitch": 65, "duration": 6, "velocity": 100}, {"time": 2159, "pitch": 69, "duration": 5, "velocity": 107}, {"time": 2171, "pitch": 39, "duration": 18, "velocity": 122}, {"time": 2171, "pitch": 63, "duration": 9, "velocity": 100}, {"time": 2171, "pitch": 67, "duration": 6, "velocity": 100}, {"time": 2171, "pitch": 70, "duration": 7, "velocity": 97}, {"time": 2177, "pitch": 51, "duration": 8, "velocity": 40}, {"time": 2183, "pitch": 63, "duration": 7, "velocity": 97}, {"time": 2183, "pitch": 67, "duration": 6, "velocity": 112}, {"time": 2183, "pitch": 70, "duration": 7, "velocity": 107}, {"time": 2189, "pitch": 51, "duration": 2, "velocity": 59}, {"time": 2195, "pitch": 38, "duration": 13, "velocity": 83}, {"time": 2195, "pitch": 62, "duration": 10, "velocity": 107}, {"time": 2195, "pitch": 66, "duration": 10, "velocity": 122}, {"time": 2195, "pitch": 69, "duration": 10, "velocity": 102}, {"time": 2201, "pitch": 45, "duration": 6, "velocity": 50}, {"time": 2207, "pitch": 66, "duration": 9, "velocity": 127}, {"time": 2207, "pitch": 69, "duration": 7, "velocity": 96}, {"time": 2207, "pitch": 72, "duration": 6, "velocity": 97}, {"time": 2213, "pitch": 62, "duration": 4, "velocity": 86}, {"time": 2219, "pitch": 43, "duration": 11, "velocity": 69}, {"time": 2219, "pitch": 62, "duration": 9, "velocity": 90}, {"time": 2219, "pitch": 67, "duration": 10, "velocity": 100}, {"time": 2219, "pitch": 70, "duration": 6, "velocity": 117}, {"time": 2231, "pitch": 41, "duration": 6, "velocity": 60}, {"time": 2231, "pitch": 60, "duration": 6, "velocity": 90}, {"time": 2231, "pitch": 65, "duration": 9, "velocity": 92}, {"time": 2231, "pitch": 69, "duration": 5, "velocity": 92}, {"time": 2243, "pitch": 40, "duration": 14, "velocity": 76}, {"time": 2243, "pitch": 64, "duration": 16, "velocity": 93}, {"time": 2243, "pitch": 67, "duration": 16, "velocity": 97}, {"time": 2243, "pitch": 70, "duration": 15, "velocity": 117}, {"time": 2267, "pitch": 48, "duration": 14, "velocity": 73}, {"time": 2267, "pitch": 60, "duration": 9, "velocity": 89}, {"time": 2267, "pitch": 63, "duration": 10, "velocity": 93}, {"time": 2267, "pitch": 67, "duration": 8, "velocity": 79}, {"time": 2273, "pitch": 55, "duration": 6, "velocity": 56}, {"time": 2279, "pitch": 63, "duration": 10, "velocity": 112}, {"time": 2279, "pitch": 67, "duration": 9, "velocity": 86}, {"time": 2285, "pitch": 60, "duration": 15, "velocity": 63}, {"time": 2291, "pitch": 48, "duration": 14, "velocity": 64}, {"time": 2291, "pitch": 63, "duration": 10, "velocity": 82}, {"time": 2291, "pitch": 67, "duration": 9, "velocity": 81}, {"time": 2303, "pitch": 55, "duration": 1, "velocity": 20}, {"time": 2303, "pitch": 63, "duration": 7, "velocity": 117}, {"time": 2303, "pitch": 67, "duration": 6, "velocity": 88}, {"time": 2309, "pitch": 60, "duration": 5, "velocity": 71}, {"time": 2315, "pitch": 41, "duration": 22, "velocity": 92}, {"time": 2315, "pitch": 60, "duration": 5, "velocity": 55}, {"time": 2315, "pitch": 65, "duration": 4, "velocity": 107}, {"time": 2315, "pitch": 69, "duration": 3, "velocity": 97}, {"time": 2321, "pitch": 48, "duration": 7, "velocity": 52}, {"time": 2327, "pitch": 57, "duration": 10, "velocity": 107}, {"time": 2327, "pitch": 60, "duration": 10, "velocity": 100}, {"time": 2333, "pitch": 48, "duration": 6, "velocity": 48}, {"time": 2339, "pitch": 41, "duration": 10, "velocity": 107}, {"time": 2339, "pitch": 53, "duration": 11, "velocity": 102}, {"time": 2339, "pitch": 57, "duration": 11, "velocity": 100}, {"time": 2339, "pitch": 60, "duration": 11, "velocity": 100}, {"time": 2351, "pitch": 53, "duration": 3, "velocity": 106}, {"time": 2351, "pitch": 41, "duration": 5, "velocity": 106}, {"time": 2353, "pitch": 57, "duration": 4, "velocity": 106}, {"time": 2356, "pitch": 43, "duration": 3, "velocity": 106}, {"time": 2356, "pitch": 60, "duration": 3, "velocity": 106}, {"time": 2359, "pitch": 65, "duration": 3, "velocity": 106}, {"time": 2359, "pitch": 45, "duration": 3, "velocity": 106}, {"time": 2363, "pitch": 58, "duration": 3, "velocity": 106}, {"time": 2363, "pitch": 62, "duration": 3, "velocity": 106}, {"time": 2363, "pitch": 65, "duration": 4, "velocity": 106}, {"time": 2363, "pitch": 46, "duration": 17, "velocity": 106}, {"time": 2375, "pitch": 50, "duration": 2, "velocity": 39}, {"time": 2375, "pitch": 53, "duration": 6, "velocity": 86}, {"time": 2375, "pitch": 65, "duration": 1, "velocity": 96}, {"time": 2375, "pitch": 70, "duration": 7, "velocity": 127}, {"time": 2375, "pitch": 74, "duration": 7, "velocity": 100}, {"time": 2381, "pitch": 50, "duration": 1, "velocity": 30}, {"time": 2381, "pitch": 65, "duration": 3, "velocity": 79}, {"time": 2384, "pitch": 69, "duration": 1, "velocity": 40}, {"time": 2387, "pitch": 41, "duration": 20, "velocity": 92}, {"time": 2387, "pitch": 65, "duration": 8, "velocity": 102}, {"time": 2387, "pitch": 69, "duration": 7, "velocity": 112}, {"time": 2387, "pitch": 72, "duration": 9, "velocity": 102}, {"time": 2393, "pitch": 48, "duration": 7, "velocity": 53}, {"time": 2399, "pitch": 53, "duration": 6, "velocity": 88}, {"time": 2399, "pitch": 69, "duration": 6, "velocity": 122}, {"time": 2399, "pitch": 72, "duration": 7, "velocity": 112}, {"time": 2405, "pitch": 48, "duration": 7, "velocity": 37}, {"time": 2411, "pitch": 43, "duration": 19, "velocity": 89}, {"time": 2411, "pitch": 67, "duration": 9, "velocity": 96}, {"time": 2411, "pitch": 70, "duration": 10, "velocity": 122}, {"time": 2411, "pitch": 74, "duration": 8, "velocity": 95}, {"time": 2417, "pitch": 50, "duration": 7, "velocity": 56}, {"time": 2423, "pitch": 55, "duration": 6, "velocity": 93}, {"time": 2423, "pitch": 70, "duration": 5, "velocity": 127}, {"time": 2423, "pitch": 74, "duration": 5, "velocity": 100}, {"time": 2429, "pitch": 50, "duration": 2, "velocity": 63}, {"time": 2435, "pitch": 38, "duration": 18, "velocity": 85}, {"time": 2435, "pitch": 62, "duration": 9, "velocity": 107}, {"time": 2435, "pitch": 65, "duration": 10, "velocity": 100}, {"time": 2435, "pitch": 69, "duration": 9, "velocity": 97}, {"time": 2441, "pitch": 45, "duration": 7, "velocity": 48}, {"time": 2447, "pitch": 50, "duration": 7, "velocity": 96}, {"time": 2447, "pitch": 62, "duration": 7, "velocity": 92}, {"time": 2447, "pitch": 65, "duration": 5, "velocity": 112}, {"time": 2447, "pitch": 69, "duration": 5, "velocity": 112}, {"time": 2453, "pitch": 45, "duration": 1, "velocity": 89}, {"time": 2459, "pitch": 39, "duration": 18, "velocity": 127}, {"time": 2459, "pitch": 63, "duration": 9, "velocity": 122}, {"time": 2459, "pitch": 67, "duration": 9, "velocity": 97}, {"time": 2459, "pitch": 70, "duration": 2, "velocity": 99}, {"time": 2465, "pitch": 51, "duration": 8, "velocity": 86}, {"time": 2471, "pitch": 63, "duration": 9, "velocity": 122}, {"time": 2471, "pitch": 67, "duration": 7, "velocity": 96}, {"time": 2471, "pitch": 70, "duration": 6, "velocity": 97}, {"time": 2477, "pitch": 51, "duration": 1, "velocity": 100}, {"time": 2480, "pitch": 62, "duration": 13, "velocity": 41}, {"time": 2483, "pitch": 38, "duration": 19, "velocity": 70}, {"time": 2483, "pitch": 65, "duration": 10, "velocity": 102}, {"time": 2483, "pitch": 69, "duration": 7, "velocity": 112}, {"time": 2489, "pitch": 45, "duration": 12, "velocity": 66}, {"time": 2495, "pitch": 62, "duration": 8, "velocity": 100}, {"time": 2495, "pitch": 65, "duration": 6, "velocity": 127}, {"time": 2495, "pitch": 69, "duration": 5, "velocity": 117}, {"time": 2501, "pitch": 50, "duration": 1, "velocity": 83}, {"time": 2507, "pitch": 36, "duration": 17, "velocity": 96}, {"time": 2507, "pitch": 60, "duration": 9, "velocity": 107}, {"time": 2507, "pitch": 63, "duration": 9, "velocity": 127}, {"time": 2507, "pitch": 67, "duration": 9, "velocity": 99}, {"time": 2513, "pitch": 43, "duration": 11, "velocity": 53}, {"time": 2519, "pitch": 60, "duration": 3, "velocity": 102}, {"time": 2519, "pitch": 63, "duration": 3, "velocity": 127}, {"time": 2519, "pitch": 67, "duration": 3, "velocity": 112}, {"time": 2525, "pitch": 48, "duration": 4, "velocity": 59}, {"time": 2528, "pitch": 65, "duration": 1, "velocity": 85}, {"time": 2528, "pitch": 77, "duration": 1, "velocity": 76}, {"time": 2531, "pitch": 41, "duration": 19, "velocity": 99}, {"time": 2531, "pitch": 65, "duration": 5, "velocity": 112}, {"time": 2531, "pitch": 77, "duration": 4, "velocity": 100}, {"time": 2537, "pitch": 48, "duration": 8, "velocity": 82}, {"time": 2540, "pitch": 67, "duration": 1, "velocity": 90}, {"time": 2540, "pitch": 79, "duration": 1, "velocity": 85}, {"time": 2543, "pitch": 53, "duration": 9, "velocity": 112}, {"time": 2543, "pitch": 67, "duration": 2, "velocity": 122}, {"time": 2543, "pitch": 79, "duration": 2, "velocity": 102}, {"time": 2549, "pitch": 48, "duration": 1, "velocity": 39}, {"time": 2549, "pitch": 69, "duration": 1, "velocity": 96}, {"time": 2549, "pitch": 81, "duration": 1, "velocity": 53}, {"time": 2555, "pitch": 46, "duration": 17, "velocity": 122}, {"time": 2555, "pitch": 65, "duration": 9, "velocity": 96}, {"time": 2555, "pitch": 70, "duration": 7, "velocity": 112}, {"time": 2555, "pitch": 74, "duration": 9, "velocity": 97}, {"time": 2561, "pitch": 50, "duration": 7, "velocity": 53}, {"time": 2564, "pitch": 70, "duration": 1, "velocity": 25}, {"time": 2567, "pitch": 53, "duration": 6, "velocity": 107}, {"time": 2567, "pitch": 70, "duration": 7, "velocity": 127}, {"time": 2567, "pitch": 74, "duration": 8, "velocity": 112}, {"time": 2570, "pitch": 50, "duration": 1, "velocity": 55}, {"time": 2576, "pitch": 65, "duration": 1, "velocity": 41}, {"time": 2579, "pitch": 41, "duration": 18, "velocity": 74}, {"time": 2579, "pitch": 65, "duration": 2, "velocity": 75}, {"time": 2579, "pitch": 69, "duration": 2, "velocity": 99}, {"time": 2579, "pitch": 72, "duration": 2, "velocity": 102}, {"time": 2582, "pitch": 48, "duration": 14, "velocity": 81}, {"time": 2585, "pitch": 53, "duration": 7, "velocity": 100}, {"time": 2588, "pitch": 57, "duration": 2, "velocity": 99}, {"time": 2591, "pitch": 60, "duration": 5, "velocity": 122}, {"time": 2594, "pitch": 53, "duration": 1, "velocity": 100}, {"time": 2597, "pitch": 57, "duration": 1, "velocity": 90}, {"time": 2603, "pitch": 43, "duration": 18, "velocity": 97}, {"time": 2603, "pitch": 62, "duration": 9, "velocity": 95}, {"time": 2603, "pitch": 67, "duration": 9, "velocity": 96}, {"time": 2603, "pitch": 70, "duration": 9, "velocity": 112}, {"time": 2609, "pitch": 50, "duration": 12, "velocity": 56}, {"time": 2612, "pitch": 55, "duration": 4, "velocity": 86}, {"time": 2615, "pitch": 67, "duration": 7, "velocity": 122}, {"time": 2615, "pitch": 70, "duration": 6, "velocity": 127}, {"time": 2618, "pitch": 55, "duration": 2, "velocity": 81}, {"time": 2621, "pitch": 62, "duration": 4, "velocity": 99}, {"time": 2627, "pitch": 38, "duration": 1, "velocity": 90}, {"time": 2627, "pitch": 62, "duration": 9, "velocity": 100}, {"time": 2627, "pitch": 65, "duration": 9, "velocity": 102}, {"time": 2627, "pitch": 69, "duration": 9, "velocity": 100}, {"time": 2633, "pitch": 50, "duration": 11, "velocity": 86}, {"time": 2636, "pitch": 57, "duration": 3, "velocity": 47}, {"time": 2639, "pitch": 65, "duration": 6, "velocity": 112}, {"time": 2639, "pitch": 69, "duration": 6, "velocity": 112}, {"time": 2642, "pitch": 57, "duration": 1, "velocity": 112}, {"time": 2645, "pitch": 62, "duration": 4, "velocity": 100}, {"time": 2651, "pitch": 39, "duration": 1, "velocity": 117}, {"time": 2651, "pitch": 62, "duration": 1, "velocity": 70}, {"time": 2651, "pitch": 63, "duration": 9, "velocity": 122}, {"time": 2651, "pitch": 67, "duration": 9, "velocity": 95}, {"time": 2651, "pitch": 70, "duration": 9, "velocity": 95}, {"time": 2657, "pitch": 51, "duration": 5, "velocity": 59}, {"time": 2663, "pitch": 51, "duration": 5, "velocity": 56}, {"time": 2663, "pitch": 58, "duration": 6, "velocity": 99}, {"time": 2663, "pitch": 63, "duration": 11, "velocity": 127}, {"time": 2663, "pitch": 67, "duration": 11, "velocity": 96}, {"time": 2663, "pitch": 70, "duration": 10, "velocity": 99}, {"time": 2675, "pitch": 50, "duration": 17, "velocity": 74}, {"time": 2675, "pitch": 62, "duration": 8, "velocity": 107}, {"time": 2675, "pitch": 65, "duration": 9, "velocity": 100}, {"time": 2675, "pitch": 69, "duration": 8, "velocity": 97}, {"time": 2681, "pitch": 57, "duration": 7, "velocity": 90}, {"time": 2687, "pitch": 65, "duration": 5, "velocity": 112}, {"time": 2687, "pitch": 69, "duration": 6, "velocity": 107}, {"time": 2690, "pitch": 57, "duration": 2, "velocity": 92}, {"time": 2693, "pitch": 62, "duration": 3, "velocity": 100}, {"time": 2699, "pitch": 48, "duration": 11, "velocity": 82}, {"time": 2699, "pitch": 60, "duration": 7, "velocity": 100}, {"time": 2699, "pitch": 63, "duration": 6, "velocity": 127}, {"time": 2699, "pitch": 67, "duration": 6, "velocity": 97}, {"time": 2711, "pitch": 50, "duration": 4, "velocity": 81}, {"time": 2711, "pitch": 57, "duration": 4, "velocity": 102}, {"time": 2711, "pitch": 62, "duration": 4, "velocity": 96}, {"time": 2711, "pitch": 65, "duration": 5, "velocity": 95}, {"time": 2723, "pitch": 39, "duration": 4, "velocity": 102}, {"time": 2723, "pitch": 63, "duration": 5, "velocity": 112}, {"time": 2723, "pitch": 67, "duration": 4, "velocity": 107}, {"time": 2723, "pitch": 70, "duration": 5, "velocity": 127}, {"time": 2735, "pitch": 41, "duration": 4, "velocity": 93}, {"time": 2735, "pitch": 60, "duration": 5, "velocity": 107}, {"time": 2735, "pitch": 65, "duration": 4, "velocity": 102}, {"time": 2735, "pitch": 69, "duration": 4, "velocity": 96}, {"time": 2747, "pitch": 43, "duration": 16, "velocity": 78}, {"time": 2747, "pitch": 55, "duration": 6, "velocity": 107}, {"time": 2747, "pitch": 58, "duration": 7, "velocity": 127}, {"time": 2747, "pitch": 62, "duration": 7, "velocity": 96}, {"time": 2753, "pitch": 50, "duration": 6, "velocity": 51}, {"time": 2756, "pitch": 58, "duration": 9, "velocity": 122}, {"time": 2756, "pitch": 62, "duration": 9, "velocity": 95}, {"time": 2762, "pitch": 50, "duration": 1, "velocity": 51}, {"time": 2765, "pitch": 55, "duration": 2, "velocity": 89}, {"time": 2771, "pitch": 41, "duration": 16, "velocity": 79}, {"time": 2771, "pitch": 53, "duration": 6, "velocity": 99}, {"time": 2771, "pitch": 57, "duration": 7, "velocity": 93}, {"time": 2771, "pitch": 60, "duration": 7, "velocity": 93}, {"time": 2777, "pitch": 48, "duration": 5, "velocity": 58}, {"time": 2780, "pitch": 57, "duration": 9, "velocity": 107}, {"time": 2780, "pitch": 60, "duration": 9, "velocity": 96}, {"time": 2786, "pitch": 48, "duration": 1, "velocity": 59}, {"time": 2789, "pitch": 53, "duration": 2, "velocity": 88}, {"time": 2795, "pitch": 46, "duration": 19, "velocity": 99}, {"time": 2795, "pitch": 53, "duration": 7, "velocity": 95}, {"time": 2795, "pitch": 58, "duration": 7, "velocity": 117}, {"time": 2795, "pitch": 62, "duration": 7, "velocity": 95}, {"time": 2804, "pitch": 58, "duration": 9, "velocity": 107}, {"time": 2804, "pitch": 62, "duration": 10, "velocity": 95}, {"time": 2813, "pitch": 53, "duration": 7, "velocity": 66}, {"time": 2816, "pitch": 58, "duration": 2, "velocity": 25}, {"time": 2819, "pitch": 46, "duration": 14, "velocity": 60}, {"time": 2825, "pitch": 53, "duration": 4, "velocity": 58}, {"time": 2828, "pitch": 58, "duration": 9, "velocity": 102}, {"time": 2828, "pitch": 62, "duration": 9, "velocity": 95}, {"time": 2834, "pitch": 46, "duration": 1, "velocity": 64}, {"time": 2837, "pitch": 53, "duration": 1, "velocity": 95}, {"time": 2843, "pitch": 39, "duration": 17, "velocity": 107}, {"time": 2843, "pitch": 55, "duration": 6, "velocity": 96}, {"time": 2843, "pitch": 58, "duration": 7, "velocity": 107}, {"time": 2843, "pitch": 63, "duration": 7, "velocity": 96}, {"time": 2849, "pitch": 51, "duration": 6, "velocity": 85}, {"time": 2852, "pitch": 58, "duration": 9, "velocity": 107}, {"time": 2852, "pitch": 63, "duration": 9, "velocity": 99}, {"time": 2858, "pitch": 51, "duration": 2, "velocity": 89}, {"time": 2861, "pitch": 55, "duration": 2, "velocity": 97}, {"time": 2867, "pitch": 41, "duration": 16, "velocity": 76}, {"time": 2867, "pitch": 53, "duration": 6, "velocity": 107}, {"time": 2867, "pitch": 57, "duration": 7, "velocity": 93}, {"time": 2867, "pitch": 60, "duration": 7, "velocity": 90}, {"time": 2873, "pitch": 48, "duration": 5, "velocity": 54}, {"time": 2876, "pitch": 53, "duration": 7, "velocity": 97}, {"time": 2876, "pitch": 57, "duration": 8, "velocity": 97}, {"time": 2876, "pitch": 60, "duration": 9, "velocity": 92}, {"time": 2882, "pitch": 48, "duration": 4, "velocity": 75}, {"time": 2885, "pitch": 53, "duration": 4, "velocity": 92}, {"time": 2891, "pitch": 43, "duration": 19, "velocity": 72}, {"time": 2891, "pitch": 55, "duration": 7, "velocity": 102}, {"time": 2891, "pitch": 59, "duration": 7, "velocity": 90}, {"time": 2891, "pitch": 62, "duration": 7, "velocity": 89}, {"time": 2897, "pitch": 50, "duration": 5, "velocity": 48}, {"time": 2900, "pitch": 55, "duration": 6, "velocity": 95}, {"time": 2900, "pitch": 59, "duration": 7, "velocity": 96}, {"time": 2900, "pitch": 62, "duration": 7, "velocity": 96}, {"time": 2906, "pitch": 50, "duration": 3, "velocity": 92}, {"time": 2909, "pitch": 59, "duration": 5, "velocity": 93}, {"time": 2909, "pitch": 62, "duration": 5, "velocity": 100}, {"time": 2915, "pitch": 43, "duration": 8, "velocity": 100}, {"time": 2915, "pitch": 55, "duration": 8, "velocity": 117}, {"time": 2924, "pitch": 45, "duration": 8, "velocity": 112}, {"time": 2924, "pitch": 57, "duration": 9, "velocity": 127}, {"time": 2933, "pitch": 47, "duration": 6, "velocity": 117}, {"time": 2933, "pitch": 59, "duration": 3, "velocity": 112}, {"time": 2939, "pitch": 48, "duration": 13, "velocity": 112}, {"time": 2939, "pitch": 55, "duration": 7, "velocity": 97}, {"time": 2939, "pitch": 60, "duration": 7, "velocity": 102}, {"time": 2939, "pitch": 63, "duration": 7, "velocity": 112}, {"time": 2948, "pitch": 60, "duration": 7, "velocity": 122}, {"time": 2948, "pitch": 63, "duration": 7, "velocity": 127}, {"time": 2954, "pitch": 48, "duration": 5, "velocity": 66}, {"time": 2957, "pitch": 55, "duration": 3, "velocity": 75}, {"time": 2957, "pitch": 60, "duration": 2, "velocity": 107}, {"time": 2957, "pitch": 63, "duration": 1, "velocity": 117}, {"time": 2963, "pitch": 46, "duration": 15, "velocity": 88}, {"time": 2963, "pitch": 58, "duration": 7, "velocity": 107}, {"time": 2963, "pitch": 63, "duration": 7, "velocity": 122}, {"time": 2963, "pitch": 65, "duration": 7, "velocity": 93}, {"time": 2972, "pitch": 58, "duration": 9, "velocity": 117}, {"time": 2972, "pitch": 63, "duration": 8, "velocity": 122}, {"time": 2972, "pitch": 65, "duration": 8, "velocity": 100}, {"time": 2981, "pitch": 46, "duration": 4, "velocity": 88}, {"time": 2987, "pitch": 43, "duration": 12, "velocity": 72}, {"time": 2987, "pitch": 55, "duration": 7, "velocity": 100}, {"time": 2987, "pitch": 58, "duration": 8, "velocity": 122}, {"time": 2987, "pitch": 62, "duration": 7, "velocity": 95}, {"time": 2996, "pitch": 55, "duration": 7, "velocity": 93}, {"time": 2996, "pitch": 58, "duration": 7, "velocity": 122}, {"time": 2996, "pitch": 62, "duration": 7, "velocity": 100}, {"time": 3005, "pitch": 55, "duration": 1, "velocity": 69}, {"time": 3005, "pitch": 58, "duration": 1, "velocity": 127}, {"time": 3005, "pitch": 62, "duration": 1, "velocity": 100}, {"time": 3011, "pitch": 48, "duration": 13, "velocity": 76}, {"time": 3011, "pitch": 60, "duration": 7, "velocity": 112}, {"time": 3011, "pitch": 65, "duration": 8, "velocity": 107}, {"time": 3011, "pitch": 67, "duration": 8, "velocity": 97}, {"time": 3020, "pitch": 60, "duration": 6, "velocity": 85}, {"time": 3020, "pitch": 65, "duration": 7, "velocity": 102}, {"time": 3020, "pitch": 67, "duration": 7, "velocity": 100}, {"time": 3026, "pitch": 48, "duration": 2, "velocity": 56}, {"time": 3029, "pitch": 60, "duration": 4, "velocity": 82}, {"time": 3029, "pitch": 65, "duration": 2, "velocity": 99}, {"time": 3029, "pitch": 67, "duration": 2, "velocity": 95}, {"time": 3035, "pitch": 48, "duration": 13, "velocity": 97}, {"time": 3035, "pitch": 60, "duration": 7, "velocity": 112}, {"time": 3035, "pitch": 63, "duration": 7, "velocity": 127}, {"time": 3035, "pitch": 67, "duration": 7, "velocity": 107}, {"time": 3044, "pitch": 60, "duration": 6, "velocity": 112}, {"time": 3044, "pitch": 63, "duration": 8, "velocity": 122}, {"time": 3044, "pitch": 67, "duration": 9, "velocity": 96}, {"time": 3050, "pitch": 48, "duration": 1, "velocity": 77}, {"time": 3053, "pitch": 60, "duration": 1, "velocity": 112}, {"time": 3059, "pitch": 38, "duration": 15, "velocity": 72}, {"time": 3059, "pitch": 50, "duration": 12, "velocity": 93}, {"time": 3059, "pitch": 57, "duration": 7, "velocity": 117}, {"time": 3059, "pitch": 62, "duration": 7, "velocity": 107}, {"time": 3059, "pitch": 65, "duration": 7, "velocity": 96}, {"time": 3068, "pitch": 57, "duration": 6, "velocity": 127}, {"time": 3068, "pitch": 62, "duration": 8, "velocity": 122}, {"time": 3068, "pitch": 65, "duration": 9, "velocity": 102}, {"time": 3071, "pitch": 50, "duration": 1, "velocity": 86}, {"time": 3077, "pitch": 57, "duration": 1, "velocity": 117}, {"time": 3083, "pitch": 39, "duration": 17, "velocity": 117}, {"time": 3083, "pitch": 55, "duration": 7, "velocity": 117}, {"time": 3083, "pitch": 58, "duration": 7, "velocity": 127}, {"time": 3083, "pitch": 63, "duration": 7, "velocity": 122}, {"time": 3089, "pitch": 51, "duration": 6, "velocity": 85}, {"time": 3092, "pitch": 55, "duration": 6, "velocity": 100}, {"time": 3092, "pitch": 58, "duration": 6, "velocity": 127}, {"time": 3092, "pitch": 63, "duration": 7, "velocity": 127}, {"time": 3098, "pitch": 51, "duration": 2, "velocity": 122}, {"time": 3101, "pitch": 58, "duration": 1, "velocity": 127}, {"time": 3101, "pitch": 63, "duration": 1, "velocity": 127}, {"time": 3104, "pitch": 60, "duration": 1, "velocity": 47}, {"time": 3107, "pitch": 41, "duration": 7, "velocity": 96}, {"time": 3107, "pitch": 53, "duration": 8, "velocity": 127}, {"time": 3107, "pitch": 57, "duration": 8, "velocity": 127}, {"time": 3116, "pitch": 43, "duration": 8, "velocity": 100}, {"time": 3116, "pitch": 55, "duration": 9, "velocity": 127}, {"time": 3116, "pitch": 58, "duration": 9, "velocity": 122}, {"time": 3125, "pitch": 45, "duration": 6, "velocity": 122}, {"time": 3125, "pitch": 57, "duration": 6, "velocity": 127}, {"time": 3125, "pitch": 60, "duration": 6, "velocity": 112}, {"time": 3131, "pitch": 46, "duration": 17, "velocity": 122}, {"time": 3131, "pitch": 58, "duration": 3, "velocity": 127}, {"time": 3131, "pitch": 62, "duration": 3, "velocity": 99}, {"time": 3131, "pitch": 65, "duration": 4, "velocity": 92}, {"time": 3143, "pitch": 50, "duration": 2, "velocity": 39}, {"time": 3143, "pitch": 53, "duration": 6, "velocity": 86}, {"time": 3143, "pitch": 65, "duration": 1, "velocity": 96}, {"time": 3143, "pitch": 70, "duration": 7, "velocity": 127}, {"time": 3143, "pitch": 74, "duration": 7, "velocity": 100}, {"time": 3149, "pitch": 50, "duration": 1, "velocity": 30}, {"time": 3149, "pitch": 65, "duration": 3, "velocity": 79}, {"time": 3152, "pitch": 69, "duration": 1, "velocity": 40}, {"time": 3155, "pitch": 41, "duration": 20, "velocity": 92}, {"time": 3155, "pitch": 65, "duration": 8, "velocity": 102}, {"time": 3155, "pitch": 69, "duration": 7, "velocity": 112}, {"time": 3155, "pitch": 72, "duration": 9, "velocity": 102}, {"time": 3161, "pitch": 48, "duration": 7, "velocity": 53}, {"time": 3167, "pitch": 53, "duration": 6, "velocity": 88}, {"time": 3167, "pitch": 69, "duration": 6, "velocity": 122}, {"time": 3167, "pitch": 72, "duration": 7, "velocity": 112}, {"time": 3173, "pitch": 48, "duration": 7, "velocity": 37}, {"time": 3179, "pitch": 43, "duration": 19, "velocity": 89}, {"time": 3179, "pitch": 67, "duration": 9, "velocity": 96}, {"time": 3179, "pitch": 70, "duration": 10, "velocity": 122}, {"time": 3179, "pitch": 74, "duration": 8, "velocity": 95}, {"time": 3185, "pitch": 50, "duration": 7, "velocity": 56}, {"time": 3191, "pitch": 55, "duration": 6, "velocity": 93}, {"time": 3191, "pitch": 70, "duration": 5, "velocity": 127}, {"time": 3191, "pitch": 74, "duration": 5, "velocity": 100}, {"time": 3197, "pitch": 50, "duration": 2, "velocity": 63}, {"time": 3203, "pitch": 38, "duration": 18, "velocity": 85}, {"time": 3203, "pitch": 62, "duration": 9, "velocity": 107}, {"time": 3203, "pitch": 65, "duration": 10, "velocity": 100}, {"time": 3203, "pitch": 69, "duration": 9, "velocity": 97}, {"time": 3209, "pitch": 45, "duration": 7, "velocity": 48}, {"time": 3215, "pitch": 50, "duration": 7, "velocity": 96}, {"time": 3215, "pitch": 62, "duration": 7, "velocity": 92}, {"time": 3215, "pitch": 65, "duration": 5, "velocity": 112}, {"time": 3215, "pitch": 69, "duration": 5, "velocity": 112}, {"time": 3221, "pitch": 45, "duration": 1, "velocity": 89}, {"time": 3227, "pitch": 39, "duration": 18, "velocity": 127}, {"time": 3227, "pitch": 63, "duration": 9, "velocity": 122}, {"time": 3227, "pitch": 67, "duration": 9, "velocity": 97}, {"time": 3227, "pitch": 70, "duration": 2, "velocity": 99}, {"time": 3233, "pitch": 51, "duration": 8, "velocity": 86}, {"time": 3239, "pitch": 63, "duration": 9, "velocity": 122}, {"time": 3239, "pitch": 67, "duration": 7, "velocity": 96}, {"time": 3239, "pitch": 70, "duration": 6, "velocity": 97}, {"time": 3245, "pitch": 51, "duration": 1, "velocity": 100}, {"time": 3248, "pitch": 62, "duration": 13, "velocity": 41}, {"time": 3251, "pitch": 38, "duration": 19, "velocity": 70}, {"time": 3251, "pitch": 65, "duration": 10, "velocity": 102}, {"time": 3251, "pitch": 69, "duration": 7, "velocity": 112}, {"time": 3257, "pitch": 45, "duration": 12, "velocity": 66}, {"time": 3263, "pitch": 62, "duration": 8, "velocity": 100}, {"time": 3263, "pitch": 65, "duration": 6, "velocity": 127}, {"time": 3263, "pitch": 69, "duration": 5, "velocity": 117}, {"time": 3269, "pitch": 50, "duration": 1, "velocity": 83}, {"time": 3275, "pitch": 36, "duration": 17, "velocity": 96}, {"time": 3275, "pitch": 60, "duration": 9, "velocity": 107}, {"time": 3275, "pitch": 63, "duration": 9, "velocity": 127}, {"time": 3275, "pitch": 67, "duration": 9, "velocity": 99}, {"time": 3281, "pitch": 43, "duration": 11, "velocity": 53}, {"time": 3287, "pitch": 60, "duration": 3, "velocity": 102}, {"time": 3287, "pitch": 63, "duration": 3, "velocity": 127}, {"time": 3287, "pitch": 67, "duration": 3, "velocity": 112}, {"time": 3293, "pitch": 48, "duration": 4, "velocity": 59}, {"time": 3296, "pitch": 65, "duration": 1, "velocity": 85}, {"time": 3296, "pitch": 77, "duration": 1, "velocity": 76}, {"time": 3299, "pitch": 41, "duration": 8, "velocity": 92}, {"time": 3299, "pitch": 65, "duration": 7, "velocity": 102}, {"time": 3299, "pitch": 69, "duration": 6, "velocity": 112}, {"time": 3299, "pitch": 72, "duration": 6, "velocity": 97}, {"time": 3311, "pitch": 42, "duration": 8, "velocity": 102}, {"time": 3311, "pitch": 61, "duration": 9, "velocity": 100}, {"time": 3311, "pitch": 66, "duration": 9, "velocity": 102}, {"time": 3317, "pitch": 73, "duration": 4, "velocity": 117}, {"time": 3323, "pitch": 47, "duration": 17, "velocity": 122}, {"time": 3323, "pitch": 66, "duration": 9, "velocity": 96}, {"time": 3323, "pitch": 71, "duration": 7, "velocity": 112}, {"time": 3323, "pitch": 75, "duration": 9, "velocity": 97}, {"time": 3329, "pitch": 51, "duration": 7, "velocity": 53}, {"time": 3332, "pitch": 71, "duration": 1, "velocity": 25}, {"time": 3335, "pitch": 54, "duration": 6, "velocity": 107}, {"time": 3335, "pitch": 71, "duration": 7, "velocity": 127}, {"time": 3335, "pitch": 75, "duration": 8, "velocity": 112}, {"time": 3338, "pitch": 51, "duration": 1, "velocity": 55}, {"time": 3344, "pitch": 66, "duration": 1, "velocity": 41}, {"time": 3347, "pitch": 42, "duration": 18, "velocity": 74}, {"time": 3347, "pitch": 66, "duration": 2, "velocity": 75}, {"time": 3347, "pitch": 70, "duration": 2, "velocity": 99}, {"time": 3347, "pitch": 73, "duration": 2, "velocity": 102}, {"time": 3350, "pitch": 49, "duration": 14, "velocity": 81}, {"time": 3353, "pitch": 54, "duration": 7, "velocity": 100}, {"time": 3356, "pitch": 58, "duration": 2, "velocity": 99}, {"time": 3359, "pitch": 61, "duration": 5, "velocity": 122}, {"time": 3362, "pitch": 54, "duration": 1, "velocity": 100}, {"time": 3365, "pitch": 58, "duration": 1, "velocity": 90}, {"time": 3371, "pitch": 44, "duration": 18, "velocity": 97}, {"time": 3371, "pitch": 63, "duration": 9, "velocity": 95}, {"time": 3371, "pitch": 68, "duration": 9, "velocity": 96}, {"time": 3371, "pitch": 71, "duration": 9, "velocity": 112}, {"time": 3377, "pitch": 51, "duration": 12, "velocity": 56}, {"time": 3380, "pitch": 56, "duration": 4, "velocity": 86}, {"time": 3383, "pitch": 68, "duration": 7, "velocity": 122}, {"time": 3383, "pitch": 71, "duration": 6, "velocity": 127}, {"time": 3386, "pitch": 56, "duration": 2, "velocity": 81}, {"time": 3389, "pitch": 63, "duration": 4, "velocity": 99}, {"time": 3395, "pitch": 39, "duration": 1, "velocity": 90}, {"time": 3395, "pitch": 63, "duration": 9, "velocity": 100}, {"time": 3395, "pitch": 66, "duration": 9, "velocity": 102}, {"time": 3395, "pitch": 70, "duration": 9, "velocity": 100}, {"time": 3401, "pitch": 51, "duration": 11, "velocity": 86}, {"time": 3404, "pitch": 58, "duration": 3, "velocity": 47}, {"time": 3407, "pitch": 66, "duration": 6, "velocity": 112}, {"time": 3407, "pitch": 70, "duration": 6, "velocity": 112}, {"time": 3410, "pitch": 58, "duration": 1, "velocity": 112}, {"time": 3413, "pitch": 63, "duration": 4, "velocity": 100}, {"time": 3419, "pitch": 40, "duration": 1, "velocity": 117}, {"time": 3419, "pitch": 63, "duration": 1, "velocity": 70}, {"time": 3419, "pitch": 64, "duration": 9, "velocity": 122}, {"time": 3419, "pitch": 68, "duration": 9, "velocity": 95}, {"time": 3419, "pitch": 71, "duration": 9, "velocity": 95}, {"time": 3425, "pitch": 52, "duration": 5, "velocity": 59}, {"time": 3431, "pitch": 52, "duration": 5, "velocity": 56}, {"time": 3431, "pitch": 59, "duration": 6, "velocity": 99}, {"time": 3431, "pitch": 64, "duration": 11, "velocity": 127}, {"time": 3431, "pitch": 68, "duration": 11, "velocity": 96}, {"time": 3431, "pitch": 71, "duration": 10, "velocity": 99}, {"time": 3443, "pitch": 51, "duration": 17, "velocity": 74}, {"time": 3443, "pitch": 63, "duration": 8, "velocity": 107}, {"time": 3443, "pitch": 66, "duration": 9, "velocity": 100}, {"time": 3443, "pitch": 70, "duration": 8, "velocity": 97}, {"time": 3449, "pitch": 58, "duration": 7, "velocity": 90}, {"time": 3455, "pitch": 66, "duration": 5, "velocity": 112}, {"time": 3455, "pitch": 70, "duration": 6, "velocity": 107}, {"time": 3458, "pitch": 58, "duration": 2, "velocity": 92}, {"time": 3461, "pitch": 63, "duration": 3, "velocity": 100}, {"time": 3467, "pitch": 49, "duration": 11, "velocity": 82}, {"time": 3467, "pitch": 61, "duration": 7, "velocity": 100}, {"time": 3467, "pitch": 64, "duration": 6, "velocity": 127}, {"time": 3467, "pitch": 68, "duration": 6, "velocity": 97}, {"time": 3479, "pitch": 51, "duration": 4, "velocity": 81}, {"time": 3479, "pitch": 58, "duration": 4, "velocity": 102}, {"time": 3479, "pitch": 63, "duration": 4, "velocity": 96}, {"time": 3479, "pitch": 66, "duration": 5, "velocity": 95}, {"time": 3491, "pitch": 40, "duration": 4, "velocity": 102}, {"time": 3491, "pitch": 64, "duration": 5, "velocity": 112}, {"time": 3491, "pitch": 68, "duration": 4, "velocity": 107}, {"time": 3491, "pitch": 71, "duration": 5, "velocity": 127}, {"time": 3503, "pitch": 42, "duration": 10, "velocity": 102}, {"time": 3503, "pitch": 66, "duration": 7, "velocity": 102}, {"time": 3503, "pitch": 70, "duration": 7, "velocity": 112}, {"time": 3503, "pitch": 54, "duration": 7, "velocity": 127}, {"time": 3503, "pitch": 73, "duration": 7, "velocity": 99}, {"time": 3515, "pitch": 47, "duration": 17, "velocity": 122}, {"time": 3515, "pitch": 59, "duration": 3, "velocity": 127}, {"time": 3515, "pitch": 63, "duration": 3, "velocity": 99}, {"time": 3515, "pitch": 66, "duration": 4, "velocity": 92}, {"time": 3527, "pitch": 51, "duration": 2, "velocity": 39}, {"time": 3527, "pitch": 54, "duration": 6, "velocity": 86}, {"time": 3527, "pitch": 66, "duration": 1, "velocity": 96}, {"time": 3527, "pitch": 71, "duration": 7, "velocity": 127}, {"time": 3527, "pitch": 75, "duration": 7, "velocity": 100}, {"time": 3533, "pitch": 51, "duration": 1, "velocity": 30}, {"time": 3533, "pitch": 66, "duration": 3, "velocity": 79}, {"time": 3536, "pitch": 70, "duration": 1, "velocity": 40}, {"time": 3539, "pitch": 42, "duration": 20, "velocity": 92}, {"time": 3539, "pitch": 66, "duration": 8, "velocity": 102}, {"time": 3539, "pitch": 70, "duration": 7, "velocity": 112}, {"time": 3539, "pitch": 73, "duration": 9, "velocity": 102}, {"time": 3545, "pitch": 49, "duration": 7, "velocity": 53}, {"time": 3551, "pitch": 54, "duration": 6, "velocity": 88}, {"time": 3551, "pitch": 70, "duration": 6, "velocity": 122}, {"time": 3551, "pitch": 73, "duration": 7, "velocity": 112}, {"time": 3557, "pitch": 49, "duration": 7, "velocity": 37}, {"time": 3563, "pitch": 44, "duration": 19, "velocity": 89}, {"time": 3563, "pitch": 68, "duration": 9, "velocity": 96}, {"time": 3563, "pitch": 71, "duration": 10, "velocity": 122}, {"time": 3563, "pitch": 75, "duration": 8, "velocity": 95}, {"time": 3569, "pitch": 51, "duration": 7, "velocity": 56}, {"time": 3575, "pitch": 56, "duration": 6, "velocity": 93}, {"time": 3575, "pitch": 71, "duration": 5, "velocity": 127}, {"time": 3575, "pitch": 75, "duration": 5, "velocity": 100}, {"time": 3581, "pitch": 51, "duration": 2, "velocity": 63}, {"time": 3587, "pitch": 39, "duration": 18, "velocity": 85}, {"time": 3587, "pitch": 63, "duration": 9, "velocity": 107}, {"time": 3587, "pitch": 66, "duration": 10, "velocity": 100}, {"time": 3587, "pitch": 70, "duration": 9, "velocity": 97}, {"time": 3593, "pitch": 46, "duration": 7, "velocity": 48}, {"time": 3599, "pitch": 51, "duration": 7, "velocity": 96}, {"time": 3599, "pitch": 63, "duration": 7, "velocity": 92}, {"time": 3599, "pitch": 66, "duration": 5, "velocity": 112}, {"time": 3599, "pitch": 70, "duration": 5, "velocity": 112}, {"time": 3605, "pitch": 46, "duration": 1, "velocity": 89}, {"time": 3611, "pitch": 40, "duration": 18, "velocity": 127}, {"time": 3611, "pitch": 64, "duration": 9, "velocity": 122}, {"time": 3611, "pitch": 68, "duration": 9, "velocity": 97}, {"time": 3611, "pitch": 71, "duration": 2, "velocity": 99}, {"time": 3617, "pitch": 52, "duration": 8, "velocity": 86}, {"time": 3623, "pitch": 64, "duration": 9, "velocity": 122}, {"time": 3623, "pitch": 68, "duration": 7, "velocity": 96}, {"time": 3623, "pitch": 71, "duration": 6, "velocity": 97}, {"time": 3629, "pitch": 52, "duration": 1, "velocity": 100}, {"time": 3632, "pitch": 63, "duration": 13, "velocity": 41}, {"time": 3635, "pitch": 39, "duration": 19, "velocity": 70}, {"time": 3635, "pitch": 66, "duration": 10, "velocity": 102}, {"time": 3635, "pitch": 70, "duration": 7, "velocity": 112}, {"time": 3641, "pitch": 46, "duration": 12, "velocity": 66}, {"time": 3647, "pitch": 63, "duration": 8, "velocity": 100}, {"time": 3647, "pitch": 66, "duration": 6, "velocity": 127}, {"time": 3647, "pitch": 70, "duration": 5, "velocity": 117}, {"time": 3653, "pitch": 51, "duration": 1, "velocity": 83}, {"time": 3659, "pitch": 37, "duration": 17, "velocity": 96}, {"time": 3659, "pitch": 61, "duration": 9, "velocity": 107}, {"time": 3659, "pitch": 64, "duration": 9, "velocity": 127}, {"time": 3659, "pitch": 68, "duration": 9, "velocity": 99}, {"time": 3665, "pitch": 44, "duration": 11, "velocity": 53}, {"time": 3671, "pitch": 61, "duration": 3, "velocity": 102}, {"time": 3671, "pitch": 64, "duration": 3, "velocity": 127}, {"time": 3671, "pitch": 68, "duration": 3, "velocity": 112}, {"time": 3677, "pitch": 49, "duration": 4, "velocity": 59}, {"time": 3680, "pitch": 66, "duration": 1, "velocity": 85}, {"time": 3680, "pitch": 78, "duration": 1, "velocity": 76}, {"time": 3683, "pitch": 42, "duration": 19, "velocity": 99}, {"time": 3683, "pitch": 66, "duration": 5, "velocity": 112}, {"time": 3683, "pitch": 78, "duration": 4, "velocity": 100}, {"time": 3689, "pitch": 49, "duration": 8, "velocity": 82}, {"time": 3692, "pitch": 68, "duration": 1, "velocity": 90}, {"time": 3692, "pitch": 80, "duration": 1, "velocity": 85}, {"time": 3695, "pitch": 54, "duration": 9, "velocity": 112}, {"time": 3695, "pitch": 68, "duration": 2, "velocity": 122}, {"time": 3695, "pitch": 80, "duration": 2, "velocity": 102}, {"time": 3701, "pitch": 49, "duration": 1, "velocity": 39}, {"time": 3701, "pitch": 70, "duration": 1, "velocity": 96}, {"time": 3701, "pitch": 82, "duration": 1, "velocity": 53}, {"time": 3707, "pitch": 47, "duration": 17, "velocity": 122}, {"time": 3707, "pitch": 66, "duration": 9, "velocity": 96}, {"time": 3707, "pitch": 71, "duration": 7, "velocity": 112}, {"time": 3707, "pitch": 75, "duration": 9, "velocity": 97}, {"time": 3713, "pitch": 51, "duration": 7, "velocity": 53}, {"time": 3716, "pitch": 71, "duration": 1, "velocity": 25}, {"time": 3719, "pitch": 54, "duration": 6, "velocity": 107}, {"time": 3719, "pitch": 71, "duration": 7, "velocity": 127}, {"time": 3719, "pitch": 75, "duration": 8, "velocity": 112}, {"time": 3722, "pitch": 51, "duration": 1, "velocity": 55}, {"time": 3728, "pitch": 66, "duration": 1, "velocity": 41}, {"time": 3731, "pitch": 42, "duration": 18, "velocity": 74}, {"time": 3731, "pitch": 66, "duration": 2, "velocity": 75}, {"time": 3731, "pitch": 70, "duration": 2, "velocity": 99}, {"time": 3731, "pitch": 73, "duration": 2, "velocity": 102}, {"time": 3734, "pitch": 49, "duration": 14, "velocity": 81}, {"time": 3737, "pitch": 54, "duration": 7, "velocity": 100}, {"time": 3740, "pitch": 58, "duration": 2, "velocity": 99}, {"time": 3743, "pitch": 61, "duration": 5, "velocity": 122}, {"time": 3746, "pitch": 54, "duration": 1, "velocity": 100}, {"time": 3749, "pitch": 58, "duration": 1, "velocity": 90}, {"time": 3755, "pitch": 44, "duration": 6, "velocity": 122}, {"time": 3755, "pitch": 68, "duration": 6, "velocity": 102}, {"time": 3755, "pitch": 71, "duration": 2, "velocity": 99}, {"time": 3755, "pitch": 75, "duration": 4, "velocity": 107}, {"time": 3755, "pitch": 56, "duration": 5, "velocity": 95}, {"time": 3764, "pitch": 39, "duration": 8, "velocity": 122}, {"time": 3764, "pitch": 70, "duration": 4, "velocity": 100}, {"time": 3764, "pitch": 63, "duration": 4, "velocity": 112}, {"time": 3773, "pitch": 68, "duration": 10, "velocity": 127}, {"time": 3773, "pitch": 71, "duration": 10, "velocity": 100}, {"time": 3773, "pitch": 75, "duration": 11, "velocity": 112}, {"time": 3773, "pitch": 44, "duration": 10, "velocity": 100}, {"time": 3779, "pitch": 66, "duration": 26, "velocity": 127}, {"time": 3779, "pitch": 63, "duration": 26, "velocity": 107}, {"time": 3779, "pitch": 70, "duration": 26, "velocity": 97}, {"time": 3779, "pitch": 39, "duration": 27, "velocity": 97}, {"time": 3779, "pitch": 51, "duration": 26, "velocity": 93}, {"time": 3803, "pitch": 40, "duration": 18, "velocity": 76}, {"time": 3803, "pitch": 64, "duration": 9, "velocity": 76}, {"time": 3803, "pitch": 68, "duration": 8, "velocity": 78}, {"time": 3809, "pitch": 52, "duration": 7, "velocity": 69}, {"time": 3812, "pitch": 59, "duration": 3, "velocity": 58}, {"time": 3815, "pitch": 64, "duration": 6, "velocity": 82}, {"time": 3815, "pitch": 68, "duration": 8, "velocity": 99}, {"time": 3818, "pitch": 52, "duration": 2, "velocity": 71}, {"time": 3821, "pitch": 59, "duration": 5, "velocity": 72}, {"time": 3827, "pitch": 39, "duration": 17, "velocity": 88}, {"time": 3827, "pitch": 63, "duration": 8, "velocity": 72}, {"time": 3833, "pitch": 51, "duration": 7, "velocity": 39}, {"time": 3836, "pitch": 63, "duration": 4, "velocity": 86}, {"time": 3839, "pitch": 70, "duration": 5, "velocity": 97}, {"time": 3842, "pitch": 51, "duration": 2, "velocity": 65}, {"time": 3845, "pitch": 63, "duration": 2, "velocity": 82}, {"time": 3851, "pitch": 37, "duration": 6, "velocity": 88}, {"time": 3851, "pitch": 61, "duration": 5, "velocity": 88}, {"time": 3851, "pitch": 64, "duration": 5, "velocity": 76}, {"time": 3851, "pitch": 68, "duration": 5, "velocity": 85}, {"time": 3863, "pitch": 39, "duration": 5, "velocity": 75}, {"time": 3863, "pitch": 63, "duration": 7, "velocity": 95}, {"time": 3863, "pitch": 66, "duration": 5, "velocity": 93}, {"time": 3875, "pitch": 40, "duration": 3, "velocity": 74}, {"time": 3875, "pitch": 59, "duration": 3, "velocity": 85}, {"time": 3875, "pitch": 64, "duration": 3, "velocity": 85}, {"time": 3875, "pitch": 68, "duration": 4, "velocity": 85}, {"time": 3887, "pitch": 42, "duration": 11, "velocity": 73}, {"time": 3887, "pitch": 54, "duration": 11, "velocity": 76}, {"time": 3887, "pitch": 61, "duration": 10, "velocity": 86}, {"time": 3887, "pitch": 66, "duration": 10, "velocity": 90}, {"time": 3887, "pitch": 70, "duration": 11, "velocity": 86}, {"time": 3899, "pitch": 44, "duration": 41, "velocity": 112}, {"time": 3899, "pitch": 68, "duration": 3, "velocity": 82}, {"time": 3899, "pitch": 71, "duration": 3, "velocity": 72}, {"time": 3899, "pitch": 75, "duration": 3, "velocity": 79}, {"time": 3905, "pitch": 56, "duration": 7, "velocity": 63}, {"time": 3908, "pitch": 59, "duration": 2, "velocity": 62}, {"time": 3911, "pitch": 63, "duration": 7, "velocity": 93}, {"time": 3914, "pitch": 56, "duration": 6, "velocity": 59}, {"time": 3917, "pitch": 59, "duration": 22, "velocity": 72}, {"time": 3920, "pitch": 63, "duration": 13, "velocity": 63}, {"time": 3923, "pitch": 56, "duration": 12, "velocity": 57}, {"time": 3923, "pitch": 68, "duration": 9, "velocity": 81}, {"time": 3935, "pitch": 68, "duration": 7, "velocity": 107}, {"time": 3938, "pitch": 56, "duration": 2, "velocity": 68}, {"time": 3941, "pitch": 63, "duration": 1, "velocity": 89}, {"time": 3947, "pitch": 49, "duration": 23, "velocity": 100}, {"time": 3947, "pitch": 61, "duration": 11, "velocity": 86}, {"time": 3947, "pitch": 64, "duration": 11, "velocity": 83}, {"time": 3947, "pitch": 68, "duration": 10, "velocity": 72}, {"time": 3959, "pitch": 61, "duration": 9, "velocity": 56}, {"time": 3959, "pitch": 64, "duration": 7, "velocity": 68}, {"time": 3959, "pitch": 68, "duration": 9, "velocity": 56}, {"time": 3971, "pitch": 53, "duration": 17, "velocity": 54}, {"time": 3971, "pitch": 61, "duration": 18, "velocity": 74}, {"time": 3971, "pitch": 65, "duration": 17, "velocity": 78}, {"time": 3971, "pitch": 68, "duration": 18, "velocity": 82}, {"time": 3995, "pitch": 49, "duration": 18, "velocity": 72}, {"time": 3995, "pitch": 61, "duration": 19, "velocity": 81}, {"time": 3995, "pitch": 64, "duration": 18, "velocity": 69}, {"time": 3995, "pitch": 68, "duration": 19, "velocity": 83}, {"time": 4019, "pitch": 40, "duration": 45, "velocity": 66}, {"time": 4019, "pitch": 59, "duration": 7, "velocity": 58}, {"time": 4019, "pitch": 64, "duration": 7, "velocity": 71}, {"time": 4019, "pitch": 68, "duration": 7, "velocity": 77}, {"time": 4025, "pitch": 47, "duration": 37, "velocity": 52}, {"time": 4031, "pitch": 52, "duration": 32, "velocity": 49}, {"time": 4037, "pitch": 56, "duration": 24, "velocity": 61}, {"time": 4043, "pitch": 59, "duration": 19, "velocity": 43}, {"time": 4097, "pitch": 51, "duration": 9, "velocity": 52}, {"time": 4097, "pitch": 63, "duration": 6, "velocity": 88}, {"time": 4097, "pitch": 66, "duration": 5, "velocity": 90}, {"time": 4097, "pitch": 70, "duration": 5, "velocity": 72}, {"time": 4109, "pitch": 46, "duration": 8, "velocity": 90}, {"time": 4109, "pitch": 58, "duration": 4, "velocity": 85}, {"time": 4109, "pitch": 61, "duration": 5, "velocity": 85}, {"time": 4109, "pitch": 66, "duration": 4, "velocity": 63}, {"time": 4118, "pitch": 47, "duration": 21, "velocity": 66}, {"time": 4118, "pitch": 59, "duration": 20, "velocity": 86}, {"time": 4118, "pitch": 63, "duration": 21, "velocity": 96}, {"time": 4118, "pitch": 66, "duration": 21, "velocity": 93}, {"time": 4139, "pitch": 51, "duration": 5, "velocity": 93}, {"time": 4139, "pitch": 63, "duration": 1, "velocity": 85}, {"time": 4139, "pitch": 66, "duration": 1, "velocity": 100}, {"time": 4139, "pitch": 70, "duration": 2, "velocity": 65}, {"time": 4145, "pitch": 52, "duration": 11, "velocity": 66}, {"time": 4145, "pitch": 64, "duration": 10, "velocity": 81}, {"time": 4145, "pitch": 68, "duration": 11, "velocity": 86}, {"time": 4145, "pitch": 71, "duration": 10, "velocity": 66}, {"time": 4157, "pitch": 46, "duration": 10, "velocity": 90}, {"time": 4157, "pitch": 58, "duration": 8, "velocity": 99}, {"time": 4157, "pitch": 61, "duration": 7, "velocity": 107}, {"time": 4169, "pitch": 44, "duration": 16, "velocity": 78}, {"time": 4169, "pitch": 56, "duration": 16, "velocity": 93}, {"time": 4169, "pitch": 59, "duration": 16, "velocity": 79}, {"time": 4169, "pitch": 63, "duration": 16, "velocity": 71}, {"time": 4179, "pitch": 54, "duration": 12, "velocity": 89}, {"time": 4179, "pitch": 58, "duration": 11, "velocity": 86}, {"time": 4179, "pitch": 61, "duration": 11, "velocity": 79}, {"time": 4191, "pitch": 52, "duration": 17, "velocity": 83}, {"time": 4191, "pitch": 56, "duration": 18, "velocity": 88}, {"time": 4191, "pitch": 59, "duration": 18, "velocity": 83}, {"time": 4193, "pitch": 40, "duration": 15, "velocity": 85}, {"time": 4208, "pitch": 56, "duration": 1, "velocity": 85}, {"time": 4216, "pitch": 42, "duration": 27, "velocity": 107}, {"time": 4223, "pitch": 54, "duration": 15, "velocity": 76}, {"time": 4232, "pitch": 61, "duration": 24, "velocity": 107}, {"time": 4242, "pitch": 58, "duration": 16, "velocity": 89}, {"time": 4259, "pitch": 61, "duration": 3, "velocity": 57}, {"time": 4261, "pitch": 58, "duration": 1, "velocity": 33}, {"time": 4262, "pitch": 35, "duration": 56, "velocity": 82}, {"time": 4269, "pitch": 42, "duration": 50, "velocity": 58}, {"time": 4273, "pitch": 47, "duration": 44, "velocity": 68}, {"time": 4276, "pitch": 51, "duration": 4, "velocity": 55}, {"time": 4279, "pitch": 54, "duration": 1, "velocity": 64}, {"time": 4284, "pitch": 59, "duration": 10, "velocity": 64}, {"time": 4288, "pitch": 63, "duration": 6, "velocity": 62}, {"time": 4293, "pitch": 66, "duration": 2, "velocity": 59}, {"time": 4300, "pitch": 71, "duration": 15, "velocity": 44}, {"time": 4306, "pitch": 75, "duration": 9, "velocity": 57}, {"time": 4313, "pitch": 78, "duration": 3, "velocity": 53}, {"time": 4325, "pitch": 54, "duration": 20, "velocity": 59}, {"time": 4327, "pitch": 51, "duration": 18, "velocity": 58}, {"time": 4328, "pitch": 47, "duration": 17, "velocity": 39}, {"time": 4329, "pitch": 35, "duration": 17, "velocity": 40}], "annotations": [{"time": 250, "annotation": {"number": 64, "value": 127}, "group": "control_change"}, {"time": 273, "annotation": {"number": 64, "value": 0}, "group": "control_change"}, {"time": 276, "annotation": {"number": 64, "value": 127}, "group": "control_change"}, {"time": 296, "annotation": {"number": 64, "value": 0}, "group": "control_change"}, {"time": 299, "annotation": {"number": 64, "value": 127}, "group": "control_change"}, {"time": 320, "annotation": {"number": 64, "value": 0}, "group": "control_change"}, {"time": 324, "annotation": {"number": 64, "value": 127}, "group": "control_change"}, {"time": 344, "annotation": {"number": 64, "value": 0}, "group": "control_change"}, {"time": 347, "annotation": {"number": 64, "value": 127}, "group": "control_change"}, {"time": 392, "annotation": {"number": 64, "value": 0}, "group": "control_change"}, {"time": 395, "annotation": {"number": 64, "value": 127}, "group": "control_change"}, {"time": 416, "annotation": {"number": 64, "value": 0}, "group": "control_change"}, {"time": 419, "annotation": {"number": 64, "value": 127}, "group": "control_change"}, {"time": 441, "annotation": {"number": 64, "value": 0}, "group": "control_change"}, {"time": 444, "annotation": {"number": 64, "value": 127}, "group": "control_change"}, {"time": 464, "annotation": {"number": 64, "value": 0}, "group": "control_change"}, {"time": 468, "annotation": {"number": 64, "value": 127}, "group": "control_change"}, {"time": 487, "annotation": {"number": 64, "value": 0}, "group": "control_change"}, {"time": 491, "annotation": {"number": 64, "value": 127}, "group": "control_change"}, {"time": 512, "annotation": {"number": 64, "value": 0}, "group": "control_change"}, {"time": 515, "annotation": {"number": 64, "value": 127}, "group": "control_change"}, {"time": 537, "annotation": {"number": 64, "value": 0}, "group": "control_change"}, {"time": 540, "annotation": {"number": 64, "value": 127}, "group": "control_change"}, {"time": 561, "annotation": {"number": 64, "value": 0}, "group": "control_change"}, {"time": 563, "annotation": {"number": 64, "value": 127}, "group": "control_change"}, {"time": 584, "annotation": {"number": 64, "value": 0}, "group": "control_change"}, {"time": 587, "annotation": {"number": 64, "value": 127}, "group": "control_change"}, {"time": 623, "annotation": {"number": 64, "value": 0}, "group": "control_change"}, {"time": 634, "annotation": {"number": 64, "value": 127}, "group": "control_change"}, {"time": 656, "annotation": {"number": 64, "value": 0}, "group": "control_change"}, {"time": 659, "annotation": {"number": 64, "value": 127}, "group": "control_change"}, {"time": 681, "annotation": {"number": 64, "value": 0}, "group": "control_change"}, {"time": 682, "annotation": {"number": 64, "value": 127}, "group": "control_change"}, {"time": 693, "annotation": {"number": 64, "value": 0}, "group": "control_change"}, {"time": 697, "annotation": {"number": 64, "value": 127}, "group": "control_change"}, {"time": 704, "annotation": {"number": 64, "value": 0}, "group": "control_change"}, {"time": 708, "annotation": {"number": 64, "value": 127}, "group": "control_change"}, {"time": 717, "annotation": {"number": 64, "value": 0}, "group": "control_change"}, {"time": 722, "annotation": {"number": 64, "value": 127}, "group": "control_change"}, {"time": 728, "annotation": {"number": 64, "value": 0}, "group": "control_change"}, {"time": 732, "annotation": {"number": 64, "value": 127}, "group": "control_change"}, {"time": 752, "annotation": {"number": 64, "value": 0}, "group": "control_change"}, {"time": 755, "annotation": {"number": 64, "value": 127}, "group": "control_change"}, {"time": 775, "annotation": {"number": 64, "value": 0}, "group": "control_change"}, {"time": 779, "annotation": {"number": 64, "value": 127}, "group": "control_change"}, {"time": 802, "annotation": {"number": 64, "value": 0}, "group": "control_change"}, {"time": 814, "annotation": {"number": 64, "value": 127}, "group": "control_change"}, {"time": 825, "annotation": {"number": 64, "value": 0}, "group": "control_change"}, {"time": 827, "annotation": {"number": 64, "value": 127}, "group": "control_change"}, {"time": 849, "annotation": {"number": 64, "value": 0}, "group": "control_change"}, {"time": 852, "annotation": {"number": 64, "value": 127}, "group": "control_change"}, {"time": 873, "annotation": {"number": 64, "value": 0}, "group": "control_change"}, {"time": 875, "annotation": {"number": 64, "value": 127}, "group": "control_change"}, {"time": 884, "annotation": {"number": 64, "value": 0}, "group": "control_change"}, {"time": 887, "annotation": {"number": 64, "value": 127}, "group": "control_change"}, {"time": 897, "annotation": {"number": 64, "value": 0}, "group": "control_change"}, {"time": 900, "annotation": {"number": 64, "value": 127}, "group": "control_change"}, {"time": 920, "annotation": {"number": 64, "value": 0}, "group": "control_change"}, {"time": 923, "annotation": {"number": 64, "value": 127}, "group": "control_change"}, {"time": 944, "annotation": {"number": 64, "value": 0}, "group": "control_change"}, {"time": 947, "annotation": {"number": 64, "value": 127}, "group": "control_change"}, {"time": 968, "annotation": {"number": 64, "value": 0}, "group": "control_change"}, {"time": 971, "annotation": {"number": 64, "value": 127}, "group": "control_change"}, {"time": 993, "annotation": {"number": 64, "value": 0}, "group": "control_change"}, {"time": 1018, "annotation": {"number": 64, "value": 127}, "group": "control_change"}, {"time": 1040, "annotation": {"number": 64, "value": 0}, "group": "control_change"}, {"time": 1043, "annotation": {"number": 64, "value": 127}, "group": "control_change"}, {"time": 1064, "annotation": {"number": 64, "value": 0}, "group": "control_change"}, {"time": 1067, "annotation": {"number": 64, "value": 127}, "group": "control_change"}, {"time": 1089, "annotation": {"number": 64, "value": 0}, "group": "control_change"}, {"time": 1091, "annotation": {"number": 64, "value": 127}, "group": "control_change"}, {"time": 1112, "annotation": {"number": 64, "value": 0}, "group": "control_change"}, {"time": 1115, "annotation": {"number": 64, "value": 127}, "group": "control_change"}, {"time": 1135, "annotation": {"number": 64, "value": 0}, "group": "control_change"}, {"time": 1139, "annotation": {"number": 64, "value": 127}, "group": "control_change"}, {"time": 1159, "annotation": {"number": 64, "value": 0}, "group": "control_change"}, {"time": 1162, "annotation": {"number": 64, "value": 127}, "group": "control_change"}, {"time": 1184, "annotation": {"number": 64, "value": 0}, "group": "control_change"}, {"time": 1187, "annotation": {"number": 64, "value": 127}, "group": "control_change"}, {"time": 1208, "annotation": {"number": 64, "value": 0}, "group": "control_change"}, {"time": 1210, "annotation": {"number": 64, "value": 127}, "group": "control_change"}, {"time": 1232, "annotation": {"number": 64, "value": 0}, "group": "control_change"}, {"time": 1235, "annotation": {"number": 64, "value": 127}, "group": "control_change"}, {"time": 1258, "annotation": {"number": 64, "value": 0}, "group": "control_change"}, {"time": 1260, "annotation": {"number": 64, "value": 127}, "group": "control_change"}, {"time": 1280, "annotation": {"number": 64, "value": 0}, "group": "control_change"}, {"time": 1283, "annotation": {"number": 64, "value": 127}, "group": "control_change"}, {"time": 1304, "annotation": {"number": 64, "value": 0}, "group": "control_change"}, {"time": 1306, "annotation": {"number": 64, "value": 127}, "group": "control_change"}, {"time": 1329, "annotation": {"number": 64, "value": 0}, "group": "control_change"}, {"time": 1330, "annotation": {"number": 64, "value": 127}, "group": "control_change"}, {"time": 1352, "annotation": {"number": 64, "value": 0}, "group": "control_change"}, {"time": 1354, "annotation": {"number": 64, "value": 127}, "group": "control_change"}, {"time": 1363, "annotation": {"number": 64, "value": 0}, "group": "control_change"}, {"time": 1366, "annotation": {"number": 64, "value": 127}, "group": "control_change"}, {"time": 1376, "annotation": {"number": 64, "value": 0}, "group": "control_change"}, {"time": 1378, "annotation": {"number": 64, "value": 127}, "group": "control_change"}, {"time": 1389, "annotation": {"number": 64, "value": 0}, "group": "control_change"}, {"time": 1391, "annotation": {"number": 64, "value": 127}, "group": "control_change"}, {"time": 1400, "annotation": {"number": 64, "value": 0}, "group": "control_change"}, {"time": 1403, "annotation": {"number": 64, "value": 127}, "group": "control_change"}, {"time": 1424, "annotation": {"number": 64, "value": 0}, "group": "control_change"}, {"time": 1428, "annotation": {"number": 64, "value": 127}, "group": "control_change"}, {"time": 1449, "annotation": {"number": 64, "value": 0}, "group": "control_change"}, {"time": 1462, "annotation": {"number": 64, "value": 127}, "group": "control_change"}, {"time": 1473, "annotation": {"number": 64, "value": 0}, "group": "control_change"}, {"time": 1475, "annotation": {"number": 64, "value": 127}, "group": "control_change"}, {"time": 1496, "annotation": {"number": 64, "value": 0}, "group": "control_change"}, {"time": 1499, "annotation": {"number": 64, "value": 127}, "group": "control_change"}, {"time": 1521, "annotation": {"number": 64, "value": 0}, "group": "control_change"}, {"time": 1523, "annotation": {"number": 64, "value": 127}, "group": "control_change"}, {"time": 1545, "annotation": {"number": 64, "value": 0}, "group": "control_change"}, {"time": 1558, "annotation": {"number": 64, "value": 127}, "group": "control_change"}, {"time": 1568, "annotation": {"number": 64, "value": 0}, "group": "control_change"}, {"time": 1617, "annotation": {"number": 64, "value": 0}, "group": "control_change"}, {"time": 1620, "annotation": {"number": 64, "value": 127}, "group": "control_change"}, {"time": 1640, "annotation": {"number": 64, "value": 0}, "group": "control_change"}, {"time": 1643, "annotation": {"number": 64, "value": 127}, "group": "control_change"}, {"time": 1664, "annotation": {"number": 64, "value": 0}, "group": "control_change"}, {"time": 1668, "annotation": {"number": 64, "value": 127}, "group": "control_change"}, {"time": 1688, "annotation": {"number": 64, "value": 0}, "group": "control_change"}, {"time": 1691, "annotation": {"number": 64, "value": 127}, "group": "control_change"}, {"time": 1736, "annotation": {"number": 64, "value": 0}, "group": "control_change"}, {"time": 1739, "annotation": {"number": 64, "value": 127}, "group": "control_change"}, {"time": 1760, "annotation": {"number": 64, "value": 0}, "group": "control_change"}, {"time": 1763, "annotation": {"number": 64, "value": 127}, "group": "control_change"}, {"time": 1785, "annotation": {"number": 64, "value": 0}, "group": "control_change"}, {"time": 1788, "annotation": {"number": 64, "value": 127}, "group": "control_change"}, {"time": 1808, "annotation": {"number": 64, "value": 0}, "group": "control_change"}, {"time": 1812, "annotation": {"number": 64, "value": 127}, "group": "control_change"}, {"time": 1831, "annotation": {"number": 64, "value": 0}, "group": "control_change"}, {"time": 1835, "annotation": {"number": 64, "value": 127}, "group": "control_change"}, {"time": 1856, "annotation": {"number": 64, "value": 0}, "group": "control_change"}, {"time": 1859, "annotation": {"number": 64, "value": 127}, "group": "control_change"}, {"time": 1881, "annotation": {"number": 64, "value": 0}, "group": "control_change"}, {"time": 1884, "annotation": {"number": 64, "value": 127}, "group": "control_change"}, {"time": 1905, "annotation": {"number": 64, "value": 0}, "group": "control_change"}, {"time": 1907, "annotation": {"number": 64, "value": 127}, "group": "control_change"}, {"time": 1928, "annotation": {"number": 64, "value": 0}, "group": "control_change"}, {"time": 1931, "annotation": {"number": 64, "value": 127}, "group": "control_change"}, {"time": 1967, "annotation": {"number": 64, "value": 0}, "group": "control_change"}, {"time": 1978, "annotation": {"number": 64, "value": 127}, "group": "control_change"}, {"time": 2000, "annotation": {"number": 64, "value": 0}, "group": "control_change"}, {"time": 2003, "annotation": {"number": 64, "value": 127}, "group": "control_change"}, {"time": 2025, "annotation": {"number": 64, "value": 0}, "group": "control_change"}, {"time": 2026, "annotation": {"number": 64, "value": 127}, "group": "control_change"}, {"time": 2037, "annotation": {"number": 64, "value": 0}, "group": "control_change"}, {"time": 2041, "annotation": {"number": 64, "value": 127}, "group": "control_change"}, {"time": 2048, "annotation": {"number": 64, "value": 0}, "group": "control_change"}, {"time": 2052, "annotation": {"number": 64, "value": 127}, "group": "control_change"}, {"time": 2061, "annotation": {"number": 64, "value": 0}, "group": "control_change"}, {"time": 2066, "annotation": {"number": 64, "value": 127}, "group": "control_change"}, {"time": 2072, "annotation": {"number": 64, "value": 0}, "group": "control_change"}, {"time": 2076, "annotation": {"number": 64, "value": 127}, "group": "control_change"}, {"time": 2096, "annotation": {"number": 64, "value": 0}, "group": "control_change"}, {"time": 2099, "annotation": {"number": 64, "value": 127}, "group": "control_change"}, {"time": 2119, "annotation": {"number": 64, "value": 0}, "group": "control_change"}, {"time": 2123, "annotation": {"number": 64, "value": 127}, "group": "control_change"}, {"time": 2146, "annotation": {"number": 64, "value": 0}, "group": "control_change"}, {"time": 2158, "annotation": {"number": 64, "value": 127}, "group": "control_change"}, {"time": 2169, "annotation": {"number": 64, "value": 0}, "group": "control_change"}, {"time": 2171, "annotation": {"number": 64, "value": 127}, "group": "control_change"}, {"time": 2193, "annotation": {"number": 64, "value": 0}, "group": "control_change"}, {"time": 2196, "annotation": {"number": 64, "value": 127}, "group": "control_change"}, {"time": 2217, "annotation": {"number": 64, "value": 0}, "group": "control_change"}, {"time": 2219, "annotation": {"number": 64, "value": 127}, "group": "control_change"}, {"time": 2228, "annotation": {"number": 64, "value": 0}, "group": "control_change"}, {"time": 2231, "annotation": {"number": 64, "value": 127}, "group": "control_change"}, {"time": 2241, "annotation": {"number": 64, "value": 0}, "group": "control_change"}, {"time": 2244, "annotation": {"number": 64, "value": 127}, "group": "control_change"}, {"time": 2264, "annotation": {"number": 64, "value": 0}, "group": "control_change"}, {"time": 2267, "annotation": {"number": 64, "value": 127}, "group": "control_change"}, {"time": 2288, "annotation": {"number": 64, "value": 0}, "group": "control_change"}, {"time": 2291, "annotation": {"number": 64, "value": 127}, "group": "control_change"}, {"time": 2312, "annotation": {"number": 64, "value": 0}, "group": "control_change"}, {"time": 2315, "annotation": {"number": 64, "value": 127}, "group": "control_change"}, {"time": 2337, "annotation": {"number": 64, "value": 0}, "group": "control_change"}, {"time": 2362, "annotation": {"number": 64, "value": 127}, "group": "control_change"}, {"time": 2384, "annotation": {"number": 64, "value": 0}, "group": "control_change"}, {"time": 2387, "annotation": {"number": 64, "value": 127}, "group": "control_change"}, {"time": 2408, "annotation": {"number": 64, "value": 0}, "group": "control_change"}, {"time": 2411, "annotation": {"number": 64, "value": 127}, "group": "control_change"}, {"time": 2433, "annotation": {"number": 64, "value": 0}, "group": "control_change"}, {"time": 2435, "annotation": {"number": 64, "value": 127}, "group": "control_change"}, {"time": 2456, "annotation": {"number": 64, "value": 0}, "group": "control_change"}, {"time": 2459, "annotation": {"number": 64, "value": 127}, "group": "control_change"}, {"time": 2479, "annotation": {"number": 64, "value": 0}, "group": "control_change"}, {"time": 2483, "annotation": {"number": 64, "value": 127}, "group": "control_change"}, {"time": 2503, "annotation": {"number": 64, "value": 0}, "group": "control_change"}, {"time": 2506, "annotation": {"number": 64, "value": 127}, "group": "control_change"}, {"time": 2528, "annotation": {"number": 64, "value": 0}, "group": "control_change"}, {"time": 2531, "annotation": {"number": 64, "value": 127}, "group": "control_change"}, {"time": 2552, "annotation": {"number": 64, "value": 0}, "group": "control_change"}, {"time": 2554, "annotation": {"number": 64, "value": 127}, "group": "control_change"}, {"time": 2576, "annotation": {"number": 64, "value": 0}, "group": "control_change"}, {"time": 2579, "annotation": {"number": 64, "value": 127}, "group": "control_change"}, {"time": 2602, "annotation": {"number": 64, "value": 0}, "group": "control_change"}, {"time": 2604, "annotation": {"number": 64, "value": 127}, "group": "control_change"}, {"time": 2624, "annotation": {"number": 64, "value": 0}, "group": "control_change"}, {"time": 2627, "annotation": {"number": 64, "value": 127}, "group": "control_change"}, {"time": 2648, "annotation": {"number": 64, "value": 0}, "group": "control_change"}, {"time": 2650, "annotation": {"number": 64, "value": 127}, "group": "control_change"}, {"time": 2673, "annotation": {"number": 64, "value": 0}, "group": "control_change"}, {"time": 2674, "annotation": {"number": 64, "value": 127}, "group": "control_change"}, {"time": 2696, "annotation": {"number": 64, "value": 0}, "group": "control_change"}, {"time": 2698, "annotation": {"number": 64, "value": 127}, "group": "control_change"}, {"time": 2707, "annotation": {"number": 64, "value": 0}, "group": "control_change"}, {"time": 2710, "annotation": {"number": 64, "value": 127}, "group": "control_change"}, {"time": 2720, "annotation": {"number": 64, "value": 0}, "group": "control_change"}, {"time": 2722, "annotation": {"number": 64, "value": 127}, "group": "control_change"}, {"time": 2733, "annotation": {"number": 64, "value": 0}, "group": "control_change"}, {"time": 2735, "annotation": {"number": 64, "value": 127}, "group": "control_change"}, {"time": 2744, "annotation": {"number": 64, "value": 0}, "group": "control_change"}, {"time": 2746, "annotation": {"number": 64, "value": 127}, "group": "control_change"}, {"time": 2769, "annotation": {"number": 64, "value": 0}, "group": "control_change"}, {"time": 2770, "annotation": {"number": 64, "value": 127}, "group": "control_change"}, {"time": 2793, "annotation": {"number": 64, "value": 0}, "group": "control_change"}, {"time": 2794, "annotation": {"number": 64, "value": 127}, "group": "control_change"}, {"time": 2841, "annotation": {"number": 64, "value": 0}, "group": "control_change"}, {"time": 2842, "annotation": {"number": 64, "value": 127}, "group": "control_change"}, {"time": 2865, "annotation": {"number": 64, "value": 0}, "group": "control_change"}, {"time": 2866, "annotation": {"number": 64, "value": 127}, "group": "control_change"}, {"time": 2889, "annotation": {"number": 64, "value": 0}, "group": "control_change"}, {"time": 2890, "annotation": {"number": 64, "value": 127}, "group": "control_change"}, {"time": 2913, "annotation": {"number": 64, "value": 0}, "group": "control_change"}, {"time": 2939, "annotation": {"number": 64, "value": 127}, "group": "control_change"}, {"time": 2961, "annotation": {"number": 64, "value": 0}, "group": "control_change"}, {"time": 2962, "annotation": {"number": 64, "value": 127}, "group": "control_change"}, {"time": 2963, "annotation": {"number": 64, "value": 127}, "group": "control_change"}, {"time": 2984, "annotation": {"number": 64, "value": 0}, "group": "control_change"}, {"time": 2986, "annotation": {"number": 64, "value": 127}, "group": "control_change"}, {"time": 3009, "annotation": {"number": 64, "value": 0}, "group": "control_change"}, {"time": 3010, "annotation": {"number": 64, "value": 127}, "group": "control_change"}, {"time": 3032, "annotation": {"number": 64, "value": 0}, "group": "control_change"}, {"time": 3034, "annotation": {"number": 64, "value": 127}, "group": "control_change"}, {"time": 3056, "annotation": {"number": 64, "value": 0}, "group": "control_change"}, {"time": 3058, "annotation": {"number": 64, "value": 127}, "group": "control_change"}, {"time": 3080, "annotation": {"number": 64, "value": 0}, "group": "control_change"}, {"time": 3082, "annotation": {"number": 64, "value": 127}, "group": "control_change"}, {"time": 3104, "annotation": {"number": 64, "value": 0}, "group": "control_change"}, {"time": 3107, "annotation": {"number": 64, "value": 127}, "group": "control_change"}, {"time": 3112, "annotation": {"number": 64, "value": 0}, "group": "control_change"}, {"time": 3115, "annotation": {"number": 64, "value": 127}, "group": "control_change"}, {"time": 3122, "annotation": {"number": 64, "value": 0}, "group": "control_change"}, {"time": 3152, "annotation": {"number": 64, "value": 0}, "group": "control_change"}, {"time": 3155, "annotation": {"number": 64, "value": 127}, "group": "control_change"}, {"time": 3176, "annotation": {"number": 64, "value": 0}, "group": "control_change"}, {"time": 3179, "annotation": {"number": 64, "value": 127}, "group": "control_change"}, {"time": 3201, "annotation": {"number": 64, "value": 0}, "group": "control_change"}, {"time": 3203, "annotation": {"number": 64, "value": 127}, "group": "control_change"}, {"time": 3224, "annotation": {"number": 64, "value": 0}, "group": "control_change"}, {"time": 3227, "annotation": {"number": 64, "value": 127}, "group": "control_change"}, {"time": 3247, "annotation": {"number": 64, "value": 0}, "group": "control_change"}, {"time": 3251, "annotation": {"number": 64, "value": 127}, "group": "control_change"}, {"time": 3271, "annotation": {"number": 64, "value": 0}, "group": "control_change"}, {"time": 3274, "annotation": {"number": 64, "value": 127}, "group": "control_change"}, {"time": 3296, "annotation": {"number": 64, "value": 0}, "group": "control_change"}, {"time": 3299, "annotation": {"number": 64, "value": 127}, "group": "control_change"}, {"time": 3311, "annotation": {"number": 64, "value": 0}, "group": "control_change"}, {"time": 3312, "annotation": {"number": 64, "value": 127}, "group": "control_change"}, {"time": 3323, "annotation": {"number": 64, "value": 0}, "group": "control_change"}, {"time": 3325, "annotation": {"number": 64, "value": 127}, "group": "control_change"}, {"time": 3344, "annotation": {"number": 64, "value": 0}, "group": "control_change"}, {"time": 3347, "annotation": {"number": 64, "value": 127}, "group": "control_change"}, {"time": 3370, "annotation": {"number": 64, "value": 0}, "group": "control_change"}, {"time": 3372, "annotation": {"number": 64, "value": 127}, "group": "control_change"}, {"time": 3392, "annotation": {"number": 64, "value": 0}, "group": "control_change"}, {"time": 3395, "annotation": {"number": 64, "value": 127}, "group": "control_change"}, {"time": 3416, "annotation": {"number": 64, "value": 0}, "group": "control_change"}, {"time": 3418, "annotation": {"number": 64, "value": 127}, "group": "control_change"}, {"time": 3441, "annotation": {"number": 64, "value": 0}, "group": "control_change"}, {"time": 3442, "annotation": {"number": 64, "value": 127}, "group": "control_change"}, {"time": 3464, "annotation": {"number": 64, "value": 0}, "group": "control_change"}, {"time": 3466, "annotation": {"number": 64, "value": 127}, "group": "control_change"}, {"time": 3475, "annotation": {"number": 64, "value": 0}, "group": "control_change"}, {"time": 3478, "annotation": {"number": 64, "value": 127}, "group": "control_change"}, {"time": 3488, "annotation": {"number": 64, "value": 0}, "group": "control_change"}, {"time": 3490, "annotation": {"number": 64, "value": 127}, "group": "control_change"}, {"time": 3501, "annotation": {"number": 64, "value": 0}, "group": "control_change"}, {"time": 3503, "annotation": {"number": 64, "value": 127}, "group": "control_change"}, {"time": 3536, "annotation": {"number": 64, "value": 0}, "group": "control_change"}, {"time": 3539, "annotation": {"number": 64, "value": 127}, "group": "control_change"}, {"time": 3560, "annotation": {"number": 64, "value": 0}, "group": "control_change"}, {"time": 3563, "annotation": {"number": 64, "value": 127}, "group": "control_change"}, {"time": 3585, "annotation": {"number": 64, "value": 0}, "group": "control_change"}, {"time": 3587, "annotation": {"number": 64, "value": 127}, "group": "control_change"}, {"time": 3608, "annotation": {"number": 64, "value": 0}, "group": "control_change"}, {"time": 3611, "annotation": {"number": 64, "value": 127}, "group": "control_change"}, {"time": 3631, "annotation": {"number": 64, "value": 0}, "group": "control_change"}, {"time": 3635, "annotation": {"number": 64, "value": 127}, "group": "control_change"}, {"time": 3655, "annotation": {"number": 64, "value": 0}, "group": "control_change"}, {"time": 3658, "annotation": {"number": 64, "value": 127}, "group": "control_change"}, {"time": 3680, "annotation": {"number": 64, "value": 0}, "group": "control_change"}, {"time": 3683, "annotation": {"number": 64, "value": 127}, "group": "control_change"}, {"time": 3704, "annotation": {"number": 64, "value": 0}, "group": "control_change"}, {"time": 3706, "annotation": {"number": 64, "value": 127}, "group": "control_change"}, {"time": 3728, "annotation": {"number": 64, "value": 0}, "group": "control_change"}, {"time": 3731, "annotation": {"number": 64, "value": 127}, "group": "control_change"}, {"time": 3754, "annotation": {"number": 64, "value": 0}, "group": "control_change"}, {"time": 3802, "annotation": {"number": 64, "value": 127}, "group": "control_change"}, {"time": 3825, "annotation": {"number": 64, "value": 0}, "group": "control_change"}, {"time": 3827, "annotation": {"number": 64, "value": 127}, "group": "control_change"}, {"time": 3849, "annotation": {"number": 64, "value": 0}, "group": "control_change"}, {"time": 3850, "annotation": {"number": 64, "value": 127}, "group": "control_change"}, {"time": 3861, "annotation": {"number": 64, "value": 0}, "group": "control_change"}, {"time": 3863, "annotation": {"number": 64, "value": 127}, "group": "control_change"}, {"time": 3873, "annotation": {"number": 64, "value": 0}, "group": "control_change"}, {"time": 3875, "annotation": {"number": 64, "value": 127}, "group": "control_change"}, {"time": 3886, "annotation": {"number": 64, "value": 0}, "group": "control_change"}, {"time": 3898, "annotation": {"number": 64, "value": 127}, "group": "control_change"}, {"time": 3946, "annotation": {"number": 64, "value": 0}, "group": "control_change"}, {"time": 3951, "annotation": {"number": 64, "value": 127}, "group": "control_change"}, {"time": 3970, "annotation": {"number": 64, "value": 0}, "group": "control_change"}, {"time": 3978, "annotation": {"number": 64, "value": 127}, "group": "control_change"}, {"time": 3994, "annotation": {"number": 64, "value": 0}, "group": "control_change"}, {"time": 3997, "annotation": {"number": 64, "value": 127}, "group": "control_change"}, {"time": 4019, "annotation": {"number": 64, "value": 0}, "group": "control_change"}, {"time": 4024, "annotation": {"number": 64, "value": 127}, "group": "control_change"}, {"time": 4106, "annotation": {"number": 64, "value": 0}, "group": "control_change"}, {"time": 4222, "annotation": {"number": 64, "value": 127}, "group": "control_change"}, {"time": 4261, "annotation": {"number": 64, "value": 0}, "group": "control_change"}, {"time": 4264, "annotation": {"number": 64, "value": 127}, "group": "control_change"}, {"time": 4329, "annotation": {"number": 64, "value": 0}, "group": "control_change"}, {"time": 4339, "annotation": {"number": 64, "value": 127}, "group": "control_change"}, {"time": 4370, "annotation": {"number": 64, "value": 0}, "group": "control_change"}]}]}