{"metadata": {"schema_version": "0.2", "title": "None", "source_filename": "096.mid", "source_format": "midi"}, "resolution": 12, "tempos": [{"time": 0, "qpm": 116.52046584882247}], "time_signatures": [{"time": 0, "numerator": 1, "denominator": 4}], "tracks": [{"program": 0, "is_drum": false, "name": "MELODY", "notes": [{"time": 513, "pitch": 65, "duration": 5, "velocity": 99}, {"time": 519, "pitch": 68, "duration": 6, "velocity": 102}, {"time": 531, "pitch": 65, "duration": 3, "velocity": 92}, {"time": 537, "pitch": 70, "duration": 17, "velocity": 127}, {"time": 561, "pitch": 73, "duration": 5, "velocity": 127}, {"time": 567, "pitch": 72, "duration": 7, "velocity": 83}, {"time": 579, "pitch": 68, "duration": 6, "velocity": 93}, {"time": 585, "pitch": 70, "duration": 16, "velocity": 93}, {"time": 609, "pitch": 77, "duration": 3, "velocity": 107}, {"time": 615, "pitch": 77, "duration": 2, "velocity": 107}, {"time": 621, "pitch": 77, "duration": 4, "velocity": 107}, {"time": 627, "pitch": 75, "duration": 4, "velocity": 102}, {"time": 633, "pitch": 73, "duration": 7, "velocity": 100}, {"time": 645, "pitch": 70, "duration": 11, "velocity": 100}, {"time": 657, "pitch": 75, "duration": 32, "velocity": 102}, {"time": 705, "pitch": 78, "duration": 2, "velocity": 127}, {"time": 711, "pitch": 78, "duration": 6, "velocity": 117}, {"time": 723, "pitch": 77, "duration": 3, "velocity": 100}, {"time": 729, "pitch": 78, "duration": 8, "velocity": 127}, {"time": 741, "pitch": 70, "duration": 3, "velocity": 99}, {"time": 747, "pitch": 70, "duration": 3, "velocity": 107}, {"time": 753, "pitch": 75, "duration": 14, "velocity": 117}, {"time": 771, "pitch": 73, "duration": 3, "velocity": 112}, {"time": 777, "pitch": 77, "duration": 19, "velocity": 102}, {"time": 801, "pitch": 72, "duration": 2, "velocity": 117}, {"time": 807, "pitch": 72, "duration": 2, "velocity": 95}, {"time": 813, "pitch": 72, "duration": 3, "velocity": 97}, {"time": 819, "pitch": 73, "duration": 3, "velocity": 122}, {"time": 825, "pitch": 72, "duration": 8, "velocity": 117}, {"time": 837, "pitch": 70, "duration": 9, "velocity": 117}, {"time": 849, "pitch": 77, "duration": 37, "velocity": 112}, {"time": 897, "pitch": 65, "duration": 3, "velocity": 102}, {"time": 903, "pitch": 68, "duration": 6, "velocity": 117}, {"time": 915, "pitch": 65, "duration": 4, "velocity": 96}, {"time": 921, "pitch": 70, "duration": 19, "velocity": 127}, {"time": 945, "pitch": 73, "duration": 4, "velocity": 127}, {"time": 951, "pitch": 72, "duration": 6, "velocity": 112}, {"time": 963, "pitch": 68, "duration": 4, "velocity": 122}, {"time": 969, "pitch": 70, "duration": 20, "velocity": 127}, {"time": 993, "pitch": 77, "duration": 3, "velocity": 117}, {"time": 999, "pitch": 77, "duration": 2, "velocity": 97}, {"time": 1005, "pitch": 77, "duration": 3, "velocity": 95}, {"time": 1011, "pitch": 75, "duration": 2, "velocity": 117}, {"time": 1017, "pitch": 73, "duration": 8, "velocity": 127}, {"time": 1029, "pitch": 70, "duration": 8, "velocity": 122}, {"time": 1041, "pitch": 75, "duration": 36, "velocity": 127}, {"time": 1089, "pitch": 78, "duration": 2, "velocity": 127}, {"time": 1095, "pitch": 78, "duration": 6, "velocity": 117}, {"time": 1107, "pitch": 77, "duration": 3, "velocity": 100}, {"time": 1113, "pitch": 78, "duration": 8, "velocity": 127}, {"time": 1125, "pitch": 70, "duration": 3, "velocity": 99}, {"time": 1131, "pitch": 70, "duration": 3, "velocity": 107}, {"time": 1137, "pitch": 75, "duration": 5, "velocity": 117}, {"time": 1143, "pitch": 75, "duration": 9, "velocity": 127}, {"time": 1155, "pitch": 73, "duration": 3, "velocity": 112}, {"time": 1161, "pitch": 77, "duration": 19, "velocity": 102}, {"time": 1185, "pitch": 72, "duration": 2, "velocity": 117}, {"time": 1191, "pitch": 72, "duration": 2, "velocity": 95}, {"time": 1197, "pitch": 72, "duration": 3, "velocity": 97}, {"time": 1203, "pitch": 70, "duration": 3, "velocity": 127}, {"time": 1209, "pitch": 68, "duration": 10, "velocity": 112}, {"time": 1221, "pitch": 72, "duration": 11, "velocity": 99}, {"time": 1233, "pitch": 70, "duration": 33, "velocity": 112}, {"time": 1281, "pitch": 82, "duration": 12, "velocity": 127}, {"time": 1299, "pitch": 77, "duration": 5, "velocity": 102}, {"time": 1305, "pitch": 82, "duration": 14, "velocity": 122}, {"time": 1323, "pitch": 84, "duration": 4, "velocity": 107}, {"time": 1329, "pitch": 85, "duration": 9, "velocity": 122}, {"time": 1341, "pitch": 84, "duration": 10, "velocity": 107}, {"time": 1353, "pitch": 82, "duration": 13, "velocity": 122}, {"time": 1377, "pitch": 82, "duration": 3, "velocity": 127}, {"time": 1383, "pitch": 82, "duration": 3, "velocity": 127}, {"time": 1389, "pitch": 80, "duration": 3, "velocity": 127}, {"time": 1395, "pitch": 82, "duration": 3, "velocity": 122}, {"time": 1401, "pitch": 78, "duration": 9, "velocity": 127}, {"time": 1413, "pitch": 78, "duration": 6, "velocity": 122}, {"time": 1419, "pitch": 80, "duration": 6, "velocity": 112}, {"time": 1425, "pitch": 75, "duration": 37, "velocity": 117}, {"time": 1473, "pitch": 75, "duration": 2, "velocity": 127}, {"time": 1479, "pitch": 75, "duration": 2, "velocity": 112}, {"time": 1485, "pitch": 75, "duration": 2, "velocity": 122}, {"time": 1491, "pitch": 77, "duration": 3, "velocity": 112}, {"time": 1497, "pitch": 75, "duration": 6, "velocity": 127}, {"time": 1509, "pitch": 70, "duration": 9, "velocity": 122}, {"time": 1521, "pitch": 73, "duration": 14, "velocity": 127}, {"time": 1539, "pitch": 75, "duration": 3, "velocity": 122}, {"time": 1545, "pitch": 77, "duration": 19, "velocity": 127}, {"time": 1569, "pitch": 80, "duration": 2, "velocity": 127}, {"time": 1575, "pitch": 80, "duration": 2, "velocity": 112}, {"time": 1581, "pitch": 80, "duration": 3, "velocity": 127}, {"time": 1587, "pitch": 77, "duration": 3, "velocity": 112}, {"time": 1593, "pitch": 75, "duration": 9, "velocity": 122}, {"time": 1605, "pitch": 80, "duration": 9, "velocity": 127}, {"time": 1617, "pitch": 77, "duration": 12, "velocity": 127}, {"time": 1665, "pitch": 78, "duration": 2, "velocity": 127}, {"time": 1671, "pitch": 78, "duration": 2, "velocity": 102}, {"time": 1677, "pitch": 78, "duration": 2, "velocity": 127}, {"time": 1683, "pitch": 77, "duration": 3, "velocity": 93}, {"time": 1689, "pitch": 78, "duration": 7, "velocity": 122}, {"time": 1701, "pitch": 82, "duration": 9, "velocity": 127}, {"time": 1713, "pitch": 75, "duration": 2, "velocity": 127}, {"time": 1719, "pitch": 75, "duration": 7, "velocity": 122}, {"time": 1731, "pitch": 73, "duration": 3, "velocity": 127}, {"time": 1737, "pitch": 77, "duration": 15, "velocity": 117}, {"time": 1761, "pitch": 68, "duration": 2, "velocity": 127}, {"time": 1767, "pitch": 68, "duration": 2, "velocity": 107}, {"time": 1773, "pitch": 68, "duration": 2, "velocity": 117}, {"time": 1779, "pitch": 65, "duration": 3, "velocity": 89}, {"time": 1785, "pitch": 68, "duration": 10, "velocity": 127}, {"time": 1797, "pitch": 72, "duration": 9, "velocity": 122}, {"time": 1809, "pitch": 70, "duration": 29, "velocity": 122}, {"time": 1857, "pitch": 78, "duration": 2, "velocity": 127}, {"time": 1863, "pitch": 78, "duration": 6, "velocity": 102}, {"time": 1875, "pitch": 77, "duration": 3, "velocity": 93}, {"time": 1881, "pitch": 78, "duration": 7, "velocity": 122}, {"time": 1893, "pitch": 82, "duration": 9, "velocity": 127}, {"time": 1905, "pitch": 75, "duration": 2, "velocity": 127}, {"time": 1911, "pitch": 75, "duration": 7, "velocity": 122}, {"time": 1923, "pitch": 73, "duration": 3, "velocity": 127}, {"time": 1929, "pitch": 77, "duration": 15, "velocity": 117}, {"time": 1953, "pitch": 68, "duration": 2, "velocity": 127}, {"time": 1959, "pitch": 68, "duration": 2, "velocity": 107}, {"time": 1965, "pitch": 68, "duration": 2, "velocity": 117}, {"time": 1971, "pitch": 65, "duration": 3, "velocity": 89}, {"time": 1977, "pitch": 68, "duration": 10, "velocity": 127}, {"time": 1989, "pitch": 72, "duration": 9, "velocity": 122}, {"time": 2001, "pitch": 70, "duration": 29, "velocity": 122}, {"time": 2049, "pitch": 80, "duration": 2, "velocity": 127}, {"time": 2055, "pitch": 80, "duration": 2, "velocity": 112}, {"time": 2061, "pitch": 80, "duration": 2, "velocity": 122}, {"time": 2067, "pitch": 77, "duration": 3, "velocity": 93}, {"time": 2073, "pitch": 80, "duration": 6, "velocity": 127}, {"time": 2085, "pitch": 84, "duration": 9, "velocity": 127}, {"time": 2097, "pitch": 82, "duration": 32, "velocity": 127}, {"time": 2673, "pitch": 65, "duration": 5, "velocity": 99}, {"time": 2679, "pitch": 68, "duration": 6, "velocity": 102}, {"time": 2691, "pitch": 65, "duration": 3, "velocity": 92}, {"time": 2697, "pitch": 70, "duration": 17, "velocity": 127}, {"time": 2721, "pitch": 73, "duration": 5, "velocity": 127}, {"time": 2727, "pitch": 72, "duration": 7, "velocity": 83}, {"time": 2739, "pitch": 68, "duration": 6, "velocity": 93}, {"time": 2745, "pitch": 70, "duration": 16, "velocity": 93}, {"time": 2769, "pitch": 77, "duration": 3, "velocity": 107}, {"time": 2775, "pitch": 77, "duration": 2, "velocity": 107}, {"time": 2781, "pitch": 77, "duration": 4, "velocity": 107}, {"time": 2787, "pitch": 75, "duration": 4, "velocity": 102}, {"time": 2793, "pitch": 73, "duration": 7, "velocity": 100}, {"time": 2805, "pitch": 70, "duration": 11, "velocity": 100}, {"time": 2817, "pitch": 75, "duration": 32, "velocity": 102}, {"time": 2865, "pitch": 78, "duration": 2, "velocity": 127}, {"time": 2871, "pitch": 78, "duration": 6, "velocity": 117}, {"time": 2883, "pitch": 77, "duration": 3, "velocity": 100}, {"time": 2889, "pitch": 78, "duration": 8, "velocity": 127}, {"time": 2901, "pitch": 70, "duration": 3, "velocity": 99}, {"time": 2907, "pitch": 70, "duration": 3, "velocity": 107}, {"time": 2913, "pitch": 75, "duration": 14, "velocity": 117}, {"time": 2931, "pitch": 73, "duration": 3, "velocity": 112}, {"time": 2937, "pitch": 77, "duration": 19, "velocity": 102}, {"time": 2961, "pitch": 72, "duration": 2, "velocity": 117}, {"time": 2967, "pitch": 72, "duration": 2, "velocity": 95}, {"time": 2973, "pitch": 72, "duration": 3, "velocity": 97}, {"time": 2979, "pitch": 73, "duration": 3, "velocity": 122}, {"time": 2985, "pitch": 72, "duration": 8, "velocity": 117}, {"time": 2997, "pitch": 70, "duration": 9, "velocity": 117}, {"time": 3009, "pitch": 77, "duration": 37, "velocity": 112}, {"time": 3057, "pitch": 65, "duration": 3, "velocity": 102}, {"time": 3063, "pitch": 68, "duration": 6, "velocity": 117}, {"time": 3075, "pitch": 65, "duration": 4, "velocity": 96}, {"time": 3081, "pitch": 70, "duration": 19, "velocity": 127}, {"time": 3105, "pitch": 73, "duration": 4, "velocity": 127}, {"time": 3111, "pitch": 72, "duration": 6, "velocity": 112}, {"time": 3123, "pitch": 68, "duration": 4, "velocity": 122}, {"time": 3129, "pitch": 70, "duration": 20, "velocity": 127}, {"time": 3153, "pitch": 77, "duration": 3, "velocity": 117}, {"time": 3159, "pitch": 77, "duration": 2, "velocity": 97}, {"time": 3165, "pitch": 77, "duration": 3, "velocity": 95}, {"time": 3171, "pitch": 75, "duration": 2, "velocity": 117}, {"time": 3177, "pitch": 73, "duration": 8, "velocity": 127}, {"time": 3189, "pitch": 70, "duration": 8, "velocity": 122}, {"time": 3201, "pitch": 75, "duration": 36, "velocity": 127}, {"time": 3249, "pitch": 78, "duration": 2, "velocity": 127}, {"time": 3255, "pitch": 78, "duration": 6, "velocity": 117}, {"time": 3267, "pitch": 77, "duration": 3, "velocity": 100}, {"time": 3273, "pitch": 78, "duration": 8, "velocity": 127}, {"time": 3285, "pitch": 70, "duration": 3, "velocity": 99}, {"time": 3291, "pitch": 70, "duration": 3, "velocity": 107}, {"time": 3297, "pitch": 75, "duration": 5, "velocity": 117}, {"time": 3303, "pitch": 75, "duration": 9, "velocity": 127}, {"time": 3315, "pitch": 73, "duration": 3, "velocity": 112}, {"time": 3321, "pitch": 77, "duration": 19, "velocity": 102}, {"time": 3345, "pitch": 72, "duration": 2, "velocity": 117}, {"time": 3351, "pitch": 72, "duration": 2, "velocity": 95}, {"time": 3357, "pitch": 72, "duration": 3, "velocity": 97}, {"time": 3363, "pitch": 70, "duration": 3, "velocity": 127}, {"time": 3369, "pitch": 68, "duration": 10, "velocity": 112}, {"time": 3381, "pitch": 72, "duration": 11, "velocity": 99}, {"time": 3393, "pitch": 70, "duration": 33, "velocity": 112}, {"time": 3441, "pitch": 82, "duration": 12, "velocity": 127}, {"time": 3459, "pitch": 77, "duration": 5, "velocity": 102}, {"time": 3465, "pitch": 82, "duration": 14, "velocity": 122}, {"time": 3483, "pitch": 84, "duration": 4, "velocity": 107}, {"time": 3489, "pitch": 85, "duration": 9, "velocity": 122}, {"time": 3501, "pitch": 84, "duration": 10, "velocity": 107}, {"time": 3513, "pitch": 82, "duration": 13, "velocity": 122}, {"time": 3537, "pitch": 82, "duration": 3, "velocity": 127}, {"time": 3543, "pitch": 82, "duration": 3, "velocity": 127}, {"time": 3549, "pitch": 80, "duration": 3, "velocity": 127}, {"time": 3555, "pitch": 82, "duration": 3, "velocity": 122}, {"time": 3561, "pitch": 78, "duration": 9, "velocity": 127}, {"time": 3573, "pitch": 78, "duration": 6, "velocity": 122}, {"time": 3579, "pitch": 80, "duration": 6, "velocity": 112}, {"time": 3585, "pitch": 75, "duration": 37, "velocity": 117}, {"time": 3633, "pitch": 75, "duration": 2, "velocity": 127}, {"time": 3639, "pitch": 75, "duration": 2, "velocity": 112}, {"time": 3645, "pitch": 75, "duration": 2, "velocity": 122}, {"time": 3651, "pitch": 77, "duration": 3, "velocity": 112}, {"time": 3657, "pitch": 75, "duration": 6, "velocity": 127}, {"time": 3669, "pitch": 70, "duration": 9, "velocity": 122}, {"time": 3681, "pitch": 73, "duration": 14, "velocity": 127}, {"time": 3699, "pitch": 75, "duration": 3, "velocity": 122}, {"time": 3705, "pitch": 77, "duration": 19, "velocity": 127}, {"time": 3729, "pitch": 80, "duration": 2, "velocity": 127}, {"time": 3735, "pitch": 80, "duration": 2, "velocity": 112}, {"time": 3741, "pitch": 80, "duration": 3, "velocity": 127}, {"time": 3747, "pitch": 77, "duration": 3, "velocity": 112}, {"time": 3753, "pitch": 75, "duration": 9, "velocity": 122}, {"time": 3765, "pitch": 80, "duration": 9, "velocity": 127}, {"time": 3777, "pitch": 77, "duration": 12, "velocity": 127}, {"time": 3825, "pitch": 78, "duration": 2, "velocity": 127}, {"time": 3831, "pitch": 78, "duration": 2, "velocity": 102}, {"time": 3837, "pitch": 78, "duration": 2, "velocity": 127}, {"time": 3843, "pitch": 77, "duration": 3, "velocity": 93}, {"time": 3849, "pitch": 78, "duration": 7, "velocity": 122}, {"time": 3861, "pitch": 82, "duration": 9, "velocity": 127}, {"time": 3873, "pitch": 75, "duration": 2, "velocity": 127}, {"time": 3879, "pitch": 75, "duration": 7, "velocity": 122}, {"time": 3891, "pitch": 73, "duration": 3, "velocity": 127}, {"time": 3897, "pitch": 77, "duration": 15, "velocity": 117}, {"time": 3921, "pitch": 68, "duration": 2, "velocity": 127}, {"time": 3927, "pitch": 68, "duration": 2, "velocity": 107}, {"time": 3933, "pitch": 68, "duration": 2, "velocity": 117}, {"time": 3939, "pitch": 65, "duration": 3, "velocity": 89}, {"time": 3945, "pitch": 68, "duration": 10, "velocity": 127}, {"time": 3957, "pitch": 72, "duration": 9, "velocity": 122}, {"time": 3969, "pitch": 70, "duration": 29, "velocity": 122}, {"time": 4017, "pitch": 78, "duration": 2, "velocity": 127}, {"time": 4023, "pitch": 78, "duration": 6, "velocity": 102}, {"time": 4035, "pitch": 77, "duration": 3, "velocity": 93}, {"time": 4041, "pitch": 78, "duration": 7, "velocity": 122}, {"time": 4053, "pitch": 82, "duration": 9, "velocity": 127}, {"time": 4065, "pitch": 75, "duration": 2, "velocity": 127}, {"time": 4071, "pitch": 75, "duration": 7, "velocity": 122}, {"time": 4083, "pitch": 73, "duration": 3, "velocity": 127}, {"time": 4089, "pitch": 77, "duration": 15, "velocity": 117}, {"time": 4113, "pitch": 68, "duration": 2, "velocity": 127}, {"time": 4119, "pitch": 68, "duration": 2, "velocity": 107}, {"time": 4125, "pitch": 68, "duration": 2, "velocity": 117}, {"time": 4131, "pitch": 65, "duration": 3, "velocity": 89}, {"time": 4137, "pitch": 68, "duration": 10, "velocity": 127}, {"time": 4149, "pitch": 72, "duration": 9, "velocity": 122}, {"time": 4161, "pitch": 70, "duration": 29, "velocity": 122}, {"time": 4209, "pitch": 80, "duration": 2, "velocity": 127}, {"time": 4215, "pitch": 80, "duration": 2, "velocity": 112}, {"time": 4221, "pitch": 80, "duration": 2, "velocity": 122}, {"time": 4227, "pitch": 77, "duration": 3, "velocity": 93}, {"time": 4233, "pitch": 80, "duration": 6, "velocity": 127}, {"time": 4257, "pitch": 82, "duration": 12, "velocity": 127}, {"time": 4269, "pitch": 84, "duration": 11, "velocity": 100}, {"time": 4281, "pitch": 82, "duration": 73, "velocity": 127}]}, {"program": 0, "is_drum": false, "name": "PIANO", "notes": [{"time": 33, "pitch": 46, "duration": 9, "velocity": 99}, {"time": 33, "pitch": 58, "duration": 8, "velocity": 102}, {"time": 33, "pitch": 61, "duration": 9, "velocity": 97}, {"time": 37, "pitch": 65, "duration": 5, "velocity": 15}, {"time": 45, "pitch": 46, "duration": 2, "velocity": 99}, {"time": 45, "pitch": 58, "duration": 2, "velocity": 97}, {"time": 45, "pitch": 61, "duration": 2, "velocity": 96}, {"time": 49, "pitch": 46, "duration": 2, "velocity": 82}, {"time": 49, "pitch": 58, "duration": 2, "velocity": 81}, {"time": 49, "pitch": 61, "duration": 2, "velocity": 73}, {"time": 53, "pitch": 46, "duration": 2, "velocity": 93}, {"time": 53, "pitch": 58, "duration": 2, "velocity": 90}, {"time": 53, "pitch": 61, "duration": 2, "velocity": 79}, {"time": 53, "pitch": 65, "duration": 2, "velocity": 70}, {"time": 57, "pitch": 46, "duration": 20, "velocity": 102}, {"time": 57, "pitch": 58, "duration": 18, "velocity": 102}, {"time": 57, "pitch": 61, "duration": 18, "velocity": 95}, {"time": 57, "pitch": 65, "duration": 14, "velocity": 85}, {"time": 81, "pitch": 44, "duration": 9, "velocity": 102}, {"time": 81, "pitch": 56, "duration": 5, "velocity": 88}, {"time": 81, "pitch": 60, "duration": 8, "velocity": 90}, {"time": 81, "pitch": 63, "duration": 8, "velocity": 92}, {"time": 93, "pitch": 44, "duration": 2, "velocity": 96}, {"time": 93, "pitch": 56, "duration": 2, "velocity": 95}, {"time": 93, "pitch": 60, "duration": 1, "velocity": 99}, {"time": 93, "pitch": 63, "duration": 2, "velocity": 93}, {"time": 97, "pitch": 44, "duration": 2, "velocity": 78}, {"time": 97, "pitch": 56, "duration": 2, "velocity": 63}, {"time": 97, "pitch": 60, "duration": 1, "velocity": 79}, {"time": 97, "pitch": 63, "duration": 2, "velocity": 76}, {"time": 101, "pitch": 44, "duration": 2, "velocity": 102}, {"time": 101, "pitch": 56, "duration": 2, "velocity": 82}, {"time": 101, "pitch": 60, "duration": 1, "velocity": 88}, {"time": 101, "pitch": 63, "duration": 2, "velocity": 79}, {"time": 105, "pitch": 44, "duration": 21, "velocity": 95}, {"time": 105, "pitch": 56, "duration": 20, "velocity": 93}, {"time": 105, "pitch": 60, "duration": 14, "velocity": 102}, {"time": 105, "pitch": 63, "duration": 16, "velocity": 97}, {"time": 129, "pitch": 42, "duration": 8, "velocity": 100}, {"time": 129, "pitch": 54, "duration": 8, "velocity": 93}, {"time": 129, "pitch": 58, "duration": 8, "velocity": 99}, {"time": 129, "pitch": 61, "duration": 8, "velocity": 89}, {"time": 141, "pitch": 42, "duration": 2, "velocity": 78}, {"time": 141, "pitch": 54, "duration": 2, "velocity": 82}, {"time": 141, "pitch": 58, "duration": 1, "velocity": 95}, {"time": 141, "pitch": 61, "duration": 1, "velocity": 83}, {"time": 145, "pitch": 42, "duration": 2, "velocity": 75}, {"time": 145, "pitch": 54, "duration": 2, "velocity": 68}, {"time": 145, "pitch": 58, "duration": 1, "velocity": 74}, {"time": 145, "pitch": 61, "duration": 1, "velocity": 70}, {"time": 149, "pitch": 42, "duration": 2, "velocity": 78}, {"time": 149, "pitch": 54, "duration": 2, "velocity": 81}, {"time": 149, "pitch": 58, "duration": 1, "velocity": 96}, {"time": 149, "pitch": 61, "duration": 1, "velocity": 89}, {"time": 153, "pitch": 42, "duration": 17, "velocity": 97}, {"time": 153, "pitch": 54, "duration": 15, "velocity": 97}, {"time": 153, "pitch": 58, "duration": 15, "velocity": 127}, {"time": 153, "pitch": 61, "duration": 15, "velocity": 102}, {"time": 177, "pitch": 41, "duration": 7, "velocity": 71}, {"time": 177, "pitch": 53, "duration": 8, "velocity": 95}, {"time": 177, "pitch": 57, "duration": 8, "velocity": 97}, {"time": 177, "pitch": 60, "duration": 8, "velocity": 102}, {"time": 189, "pitch": 41, "duration": 2, "velocity": 79}, {"time": 189, "pitch": 53, "duration": 2, "velocity": 86}, {"time": 189, "pitch": 57, "duration": 1, "velocity": 88}, {"time": 189, "pitch": 60, "duration": 2, "velocity": 79}, {"time": 193, "pitch": 41, "duration": 2, "velocity": 73}, {"time": 193, "pitch": 53, "duration": 2, "velocity": 61}, {"time": 193, "pitch": 57, "duration": 1, "velocity": 77}, {"time": 193, "pitch": 60, "duration": 2, "velocity": 72}, {"time": 197, "pitch": 41, "duration": 2, "velocity": 79}, {"time": 197, "pitch": 53, "duration": 2, "velocity": 73}, {"time": 197, "pitch": 57, "duration": 2, "velocity": 92}, {"time": 197, "pitch": 60, "duration": 2, "velocity": 78}, {"time": 201, "pitch": 41, "duration": 15, "velocity": 102}, {"time": 201, "pitch": 53, "duration": 15, "velocity": 93}, {"time": 201, "pitch": 57, "duration": 16, "velocity": 99}, {"time": 201, "pitch": 60, "duration": 16, "velocity": 93}, {"time": 225, "pitch": 46, "duration": 9, "velocity": 99}, {"time": 231, "pitch": 58, "duration": 3, "velocity": 100}, {"time": 231, "pitch": 61, "duration": 3, "velocity": 86}, {"time": 231, "pitch": 65, "duration": 3, "velocity": 73}, {"time": 237, "pitch": 53, "duration": 9, "velocity": 66}, {"time": 243, "pitch": 58, "duration": 2, "velocity": 107}, {"time": 243, "pitch": 61, "duration": 3, "velocity": 96}, {"time": 243, "pitch": 65, "duration": 3, "velocity": 76}, {"time": 249, "pitch": 46, "duration": 11, "velocity": 96}, {"time": 255, "pitch": 58, "duration": 9, "velocity": 107}, {"time": 255, "pitch": 61, "duration": 9, "velocity": 95}, {"time": 255, "pitch": 65, "duration": 9, "velocity": 78}, {"time": 261, "pitch": 53, "duration": 10, "velocity": 56}, {"time": 267, "pitch": 58, "duration": 2, "velocity": 100}, {"time": 267, "pitch": 61, "duration": 3, "velocity": 100}, {"time": 273, "pitch": 44, "duration": 10, "velocity": 52}, {"time": 279, "pitch": 56, "duration": 7, "velocity": 92}, {"time": 279, "pitch": 60, "duration": 6, "velocity": 99}, {"time": 279, "pitch": 63, "duration": 6, "velocity": 97}, {"time": 285, "pitch": 51, "duration": 12, "velocity": 82}, {"time": 291, "pitch": 56, "duration": 2, "velocity": 96}, {"time": 291, "pitch": 60, "duration": 1, "velocity": 100}, {"time": 291, "pitch": 63, "duration": 2, "velocity": 96}, {"time": 297, "pitch": 44, "duration": 11, "velocity": 40}, {"time": 303, "pitch": 56, "duration": 8, "velocity": 93}, {"time": 303, "pitch": 60, "duration": 8, "velocity": 112}, {"time": 303, "pitch": 63, "duration": 8, "velocity": 95}, {"time": 309, "pitch": 51, "duration": 10, "velocity": 88}, {"time": 315, "pitch": 56, "duration": 3, "velocity": 96}, {"time": 315, "pitch": 60, "duration": 1, "velocity": 93}, {"time": 315, "pitch": 63, "duration": 2, "velocity": 85}, {"time": 321, "pitch": 42, "duration": 12, "velocity": 79}, {"time": 327, "pitch": 58, "duration": 8, "velocity": 100}, {"time": 327, "pitch": 61, "duration": 8, "velocity": 97}, {"time": 333, "pitch": 54, "duration": 9, "velocity": 61}, {"time": 339, "pitch": 58, "duration": 2, "velocity": 112}, {"time": 339, "pitch": 61, "duration": 2, "velocity": 107}, {"time": 339, "pitch": 66, "duration": 2, "velocity": 95}, {"time": 345, "pitch": 42, "duration": 10, "velocity": 71}, {"time": 351, "pitch": 58, "duration": 9, "velocity": 112}, {"time": 351, "pitch": 61, "duration": 9, "velocity": 97}, {"time": 351, "pitch": 66, "duration": 9, "velocity": 81}, {"time": 357, "pitch": 42, "duration": 9, "velocity": 56}, {"time": 363, "pitch": 58, "duration": 2, "velocity": 122}, {"time": 363, "pitch": 61, "duration": 2, "velocity": 102}, {"time": 363, "pitch": 66, "duration": 1, "velocity": 78}, {"time": 369, "pitch": 41, "duration": 11, "velocity": 71}, {"time": 375, "pitch": 53, "duration": 8, "velocity": 90}, {"time": 375, "pitch": 57, "duration": 8, "velocity": 97}, {"time": 375, "pitch": 60, "duration": 8, "velocity": 93}, {"time": 381, "pitch": 48, "duration": 9, "velocity": 69}, {"time": 387, "pitch": 53, "duration": 2, "velocity": 90}, {"time": 387, "pitch": 57, "duration": 2, "velocity": 92}, {"time": 387, "pitch": 60, "duration": 2, "velocity": 89}, {"time": 393, "pitch": 41, "duration": 10, "velocity": 78}, {"time": 399, "pitch": 53, "duration": 9, "velocity": 88}, {"time": 399, "pitch": 57, "duration": 9, "velocity": 92}, {"time": 399, "pitch": 60, "duration": 9, "velocity": 88}, {"time": 405, "pitch": 48, "duration": 10, "velocity": 76}, {"time": 411, "pitch": 53, "duration": 2, "velocity": 90}, {"time": 411, "pitch": 57, "duration": 1, "velocity": 83}, {"time": 411, "pitch": 60, "duration": 1, "velocity": 76}, {"time": 417, "pitch": 46, "duration": 13, "velocity": 86}, {"time": 423, "pitch": 58, "duration": 7, "velocity": 93}, {"time": 423, "pitch": 61, "duration": 7, "velocity": 93}, {"time": 423, "pitch": 65, "duration": 7, "velocity": 85}, {"time": 429, "pitch": 53, "duration": 8, "velocity": 88}, {"time": 435, "pitch": 58, "duration": 2, "velocity": 112}, {"time": 435, "pitch": 61, "duration": 2, "velocity": 96}, {"time": 435, "pitch": 65, "duration": 2, "velocity": 54}, {"time": 441, "pitch": 46, "duration": 12, "velocity": 92}, {"time": 447, "pitch": 58, "duration": 8, "velocity": 107}, {"time": 447, "pitch": 61, "duration": 8, "velocity": 99}, {"time": 447, "pitch": 65, "duration": 8, "velocity": 85}, {"time": 453, "pitch": 53, "duration": 9, "velocity": 72}, {"time": 459, "pitch": 58, "duration": 2, "velocity": 107}, {"time": 459, "pitch": 61, "duration": 3, "velocity": 100}, {"time": 459, "pitch": 65, "duration": 2, "velocity": 73}, {"time": 465, "pitch": 46, "duration": 11, "velocity": 92}, {"time": 471, "pitch": 58, "duration": 7, "velocity": 102}, {"time": 471, "pitch": 61, "duration": 8, "velocity": 92}, {"time": 471, "pitch": 65, "duration": 8, "velocity": 90}, {"time": 477, "pitch": 53, "duration": 9, "velocity": 68}, {"time": 483, "pitch": 58, "duration": 2, "velocity": 112}, {"time": 483, "pitch": 61, "duration": 3, "velocity": 107}, {"time": 483, "pitch": 65, "duration": 2, "velocity": 93}, {"time": 489, "pitch": 46, "duration": 12, "velocity": 77}, {"time": 495, "pitch": 58, "duration": 8, "velocity": 122}, {"time": 495, "pitch": 61, "duration": 8, "velocity": 102}, {"time": 495, "pitch": 65, "duration": 8, "velocity": 95}, {"time": 501, "pitch": 53, "duration": 7, "velocity": 71}, {"time": 507, "pitch": 58, "duration": 2, "velocity": 112}, {"time": 507, "pitch": 61, "duration": 2, "velocity": 112}, {"time": 507, "pitch": 65, "duration": 1, "velocity": 74}, {"time": 513, "pitch": 46, "duration": 10, "velocity": 90}, {"time": 519, "pitch": 58, "duration": 3, "velocity": 97}, {"time": 519, "pitch": 61, "duration": 4, "velocity": 90}, {"time": 519, "pitch": 65, "duration": 3, "velocity": 78}, {"time": 525, "pitch": 53, "duration": 9, "velocity": 71}, {"time": 531, "pitch": 58, "duration": 2, "velocity": 102}, {"time": 531, "pitch": 61, "duration": 2, "velocity": 99}, {"time": 531, "pitch": 65, "duration": 1, "velocity": 69}, {"time": 537, "pitch": 46, "duration": 12, "velocity": 81}, {"time": 543, "pitch": 58, "duration": 7, "velocity": 97}, {"time": 543, "pitch": 61, "duration": 8, "velocity": 85}, {"time": 543, "pitch": 65, "duration": 7, "velocity": 63}, {"time": 549, "pitch": 53, "duration": 9, "velocity": 71}, {"time": 555, "pitch": 58, "duration": 2, "velocity": 100}, {"time": 555, "pitch": 61, "duration": 2, "velocity": 90}, {"time": 555, "pitch": 65, "duration": 2, "velocity": 71}, {"time": 561, "pitch": 46, "duration": 13, "velocity": 77}, {"time": 567, "pitch": 58, "duration": 7, "velocity": 97}, {"time": 567, "pitch": 61, "duration": 7, "velocity": 82}, {"time": 567, "pitch": 65, "duration": 7, "velocity": 81}, {"time": 573, "pitch": 53, "duration": 9, "velocity": 70}, {"time": 579, "pitch": 58, "duration": 2, "velocity": 99}, {"time": 579, "pitch": 61, "duration": 2, "velocity": 95}, {"time": 579, "pitch": 65, "duration": 1, "velocity": 63}, {"time": 585, "pitch": 46, "duration": 14, "velocity": 78}, {"time": 591, "pitch": 58, "duration": 8, "velocity": 92}, {"time": 591, "pitch": 61, "duration": 8, "velocity": 83}, {"time": 591, "pitch": 65, "duration": 8, "velocity": 73}, {"time": 597, "pitch": 53, "duration": 7, "velocity": 76}, {"time": 603, "pitch": 58, "duration": 2, "velocity": 99}, {"time": 603, "pitch": 61, "duration": 2, "velocity": 89}, {"time": 603, "pitch": 65, "duration": 2, "velocity": 66}, {"time": 609, "pitch": 46, "duration": 11, "velocity": 73}, {"time": 615, "pitch": 58, "duration": 7, "velocity": 89}, {"time": 615, "pitch": 61, "duration": 7, "velocity": 85}, {"time": 615, "pitch": 65, "duration": 7, "velocity": 76}, {"time": 621, "pitch": 53, "duration": 9, "velocity": 67}, {"time": 627, "pitch": 58, "duration": 2, "velocity": 100}, {"time": 627, "pitch": 61, "duration": 2, "velocity": 90}, {"time": 627, "pitch": 65, "duration": 2, "velocity": 78}, {"time": 633, "pitch": 46, "duration": 16, "velocity": 88}, {"time": 639, "pitch": 58, "duration": 8, "velocity": 97}, {"time": 639, "pitch": 61, "duration": 9, "velocity": 86}, {"time": 639, "pitch": 65, "duration": 8, "velocity": 74}, {"time": 645, "pitch": 53, "duration": 9, "velocity": 69}, {"time": 651, "pitch": 58, "duration": 2, "velocity": 107}, {"time": 651, "pitch": 61, "duration": 2, "velocity": 88}, {"time": 657, "pitch": 39, "duration": 11, "velocity": 85}, {"time": 663, "pitch": 54, "duration": 7, "velocity": 93}, {"time": 663, "pitch": 58, "duration": 7, "velocity": 97}, {"time": 663, "pitch": 63, "duration": 7, "velocity": 92}, {"time": 669, "pitch": 46, "duration": 8, "velocity": 69}, {"time": 675, "pitch": 54, "duration": 2, "velocity": 96}, {"time": 675, "pitch": 58, "duration": 1, "velocity": 107}, {"time": 675, "pitch": 63, "duration": 1, "velocity": 96}, {"time": 681, "pitch": 39, "duration": 10, "velocity": 75}, {"time": 687, "pitch": 54, "duration": 8, "velocity": 95}, {"time": 687, "pitch": 58, "duration": 8, "velocity": 102}, {"time": 687, "pitch": 63, "duration": 8, "velocity": 93}, {"time": 693, "pitch": 46, "duration": 9, "velocity": 81}, {"time": 699, "pitch": 54, "duration": 2, "velocity": 90}, {"time": 699, "pitch": 58, "duration": 2, "velocity": 99}, {"time": 699, "pitch": 63, "duration": 1, "velocity": 86}, {"time": 705, "pitch": 39, "duration": 11, "velocity": 89}, {"time": 711, "pitch": 54, "duration": 7, "velocity": 90}, {"time": 711, "pitch": 58, "duration": 7, "velocity": 95}, {"time": 711, "pitch": 63, "duration": 7, "velocity": 92}, {"time": 717, "pitch": 46, "duration": 8, "velocity": 93}, {"time": 723, "pitch": 54, "duration": 2, "velocity": 92}, {"time": 723, "pitch": 58, "duration": 1, "velocity": 93}, {"time": 723, "pitch": 63, "duration": 1, "velocity": 78}, {"time": 729, "pitch": 39, "duration": 16, "velocity": 86}, {"time": 735, "pitch": 54, "duration": 8, "velocity": 93}, {"time": 735, "pitch": 58, "duration": 8, "velocity": 95}, {"time": 735, "pitch": 63, "duration": 7, "velocity": 79}, {"time": 741, "pitch": 46, "duration": 8, "velocity": 93}, {"time": 747, "pitch": 54, "duration": 2, "velocity": 97}, {"time": 747, "pitch": 58, "duration": 1, "velocity": 92}, {"time": 747, "pitch": 63, "duration": 1, "velocity": 82}, {"time": 753, "pitch": 44, "duration": 11, "velocity": 73}, {"time": 759, "pitch": 56, "duration": 8, "velocity": 88}, {"time": 759, "pitch": 60, "duration": 7, "velocity": 93}, {"time": 759, "pitch": 63, "duration": 7, "velocity": 93}, {"time": 765, "pitch": 51, "duration": 8, "velocity": 75}, {"time": 771, "pitch": 56, "duration": 2, "velocity": 92}, {"time": 771, "pitch": 60, "duration": 1, "velocity": 93}, {"time": 771, "pitch": 63, "duration": 2, "velocity": 85}, {"time": 777, "pitch": 46, "duration": 11, "velocity": 96}, {"time": 783, "pitch": 58, "duration": 7, "velocity": 100}, {"time": 783, "pitch": 61, "duration": 6, "velocity": 97}, {"time": 789, "pitch": 53, "duration": 9, "velocity": 69}, {"time": 795, "pitch": 58, "duration": 3, "velocity": 99}, {"time": 795, "pitch": 61, "duration": 3, "velocity": 100}, {"time": 795, "pitch": 65, "duration": 2, "velocity": 74}, {"time": 801, "pitch": 48, "duration": 9, "velocity": 95}, {"time": 807, "pitch": 60, "duration": 2, "velocity": 82}, {"time": 807, "pitch": 63, "duration": 2, "velocity": 107}, {"time": 807, "pitch": 66, "duration": 3, "velocity": 100}, {"time": 819, "pitch": 60, "duration": 2, "velocity": 83}, {"time": 819, "pitch": 63, "duration": 2, "velocity": 102}, {"time": 819, "pitch": 66, "duration": 2, "velocity": 102}, {"time": 825, "pitch": 48, "duration": 12, "velocity": 78}, {"time": 831, "pitch": 60, "duration": 8, "velocity": 81}, {"time": 831, "pitch": 63, "duration": 8, "velocity": 102}, {"time": 831, "pitch": 66, "duration": 8, "velocity": 97}, {"time": 843, "pitch": 60, "duration": 2, "velocity": 83}, {"time": 843, "pitch": 63, "duration": 1, "velocity": 107}, {"time": 843, "pitch": 66, "duration": 2, "velocity": 97}, {"time": 849, "pitch": 41, "duration": 2, "velocity": 62}, {"time": 849, "pitch": 53, "duration": 2, "velocity": 85}, {"time": 849, "pitch": 60, "duration": 2, "velocity": 90}, {"time": 849, "pitch": 65, "duration": 2, "velocity": 96}, {"time": 849, "pitch": 69, "duration": 2, "velocity": 92}, {"time": 855, "pitch": 41, "duration": 2, "velocity": 60}, {"time": 855, "pitch": 53, "duration": 2, "velocity": 89}, {"time": 855, "pitch": 60, "duration": 2, "velocity": 82}, {"time": 855, "pitch": 65, "duration": 1, "velocity": 90}, {"time": 855, "pitch": 69, "duration": 1, "velocity": 83}, {"time": 861, "pitch": 41, "duration": 2, "velocity": 64}, {"time": 861, "pitch": 53, "duration": 2, "velocity": 97}, {"time": 861, "pitch": 60, "duration": 2, "velocity": 97}, {"time": 861, "pitch": 65, "duration": 1, "velocity": 96}, {"time": 861, "pitch": 69, "duration": 2, "velocity": 89}, {"time": 867, "pitch": 41, "duration": 2, "velocity": 66}, {"time": 867, "pitch": 53, "duration": 1, "velocity": 99}, {"time": 867, "pitch": 60, "duration": 1, "velocity": 96}, {"time": 867, "pitch": 65, "duration": 1, "velocity": 93}, {"time": 867, "pitch": 69, "duration": 1, "velocity": 95}, {"time": 870, "pitch": 41, "duration": 2, "velocity": 67}, {"time": 870, "pitch": 53, "duration": 1, "velocity": 82}, {"time": 870, "pitch": 60, "duration": 1, "velocity": 92}, {"time": 870, "pitch": 65, "duration": 1, "velocity": 95}, {"time": 870, "pitch": 69, "duration": 1, "velocity": 82}, {"time": 873, "pitch": 41, "duration": 2, "velocity": 79}, {"time": 873, "pitch": 53, "duration": 2, "velocity": 112}, {"time": 873, "pitch": 60, "duration": 2, "velocity": 100}, {"time": 873, "pitch": 65, "duration": 2, "velocity": 100}, {"time": 873, "pitch": 69, "duration": 3, "velocity": 90}, {"time": 897, "pitch": 46, "duration": 10, "velocity": 90}, {"time": 903, "pitch": 58, "duration": 3, "velocity": 97}, {"time": 903, "pitch": 61, "duration": 4, "velocity": 90}, {"time": 903, "pitch": 65, "duration": 3, "velocity": 78}, {"time": 909, "pitch": 53, "duration": 9, "velocity": 71}, {"time": 915, "pitch": 58, "duration": 2, "velocity": 102}, {"time": 915, "pitch": 61, "duration": 2, "velocity": 99}, {"time": 915, "pitch": 65, "duration": 1, "velocity": 69}, {"time": 921, "pitch": 46, "duration": 12, "velocity": 81}, {"time": 927, "pitch": 58, "duration": 7, "velocity": 97}, {"time": 927, "pitch": 61, "duration": 8, "velocity": 85}, {"time": 927, "pitch": 65, "duration": 7, "velocity": 63}, {"time": 933, "pitch": 53, "duration": 9, "velocity": 71}, {"time": 939, "pitch": 58, "duration": 2, "velocity": 100}, {"time": 939, "pitch": 61, "duration": 2, "velocity": 90}, {"time": 939, "pitch": 65, "duration": 2, "velocity": 71}, {"time": 945, "pitch": 46, "duration": 13, "velocity": 77}, {"time": 951, "pitch": 58, "duration": 7, "velocity": 97}, {"time": 951, "pitch": 61, "duration": 7, "velocity": 82}, {"time": 951, "pitch": 65, "duration": 7, "velocity": 81}, {"time": 957, "pitch": 53, "duration": 9, "velocity": 70}, {"time": 963, "pitch": 58, "duration": 2, "velocity": 99}, {"time": 963, "pitch": 61, "duration": 2, "velocity": 95}, {"time": 963, "pitch": 65, "duration": 1, "velocity": 63}, {"time": 969, "pitch": 46, "duration": 14, "velocity": 78}, {"time": 975, "pitch": 58, "duration": 8, "velocity": 92}, {"time": 975, "pitch": 61, "duration": 8, "velocity": 83}, {"time": 975, "pitch": 65, "duration": 8, "velocity": 73}, {"time": 981, "pitch": 53, "duration": 7, "velocity": 76}, {"time": 987, "pitch": 58, "duration": 2, "velocity": 99}, {"time": 987, "pitch": 61, "duration": 2, "velocity": 89}, {"time": 987, "pitch": 65, "duration": 2, "velocity": 66}, {"time": 993, "pitch": 46, "duration": 11, "velocity": 73}, {"time": 999, "pitch": 58, "duration": 7, "velocity": 89}, {"time": 999, "pitch": 61, "duration": 7, "velocity": 85}, {"time": 999, "pitch": 65, "duration": 7, "velocity": 76}, {"time": 1005, "pitch": 53, "duration": 9, "velocity": 67}, {"time": 1011, "pitch": 58, "duration": 2, "velocity": 100}, {"time": 1011, "pitch": 61, "duration": 2, "velocity": 90}, {"time": 1011, "pitch": 65, "duration": 2, "velocity": 78}, {"time": 1017, "pitch": 46, "duration": 16, "velocity": 88}, {"time": 1023, "pitch": 58, "duration": 8, "velocity": 97}, {"time": 1023, "pitch": 61, "duration": 9, "velocity": 86}, {"time": 1023, "pitch": 65, "duration": 8, "velocity": 74}, {"time": 1029, "pitch": 53, "duration": 9, "velocity": 69}, {"time": 1035, "pitch": 58, "duration": 2, "velocity": 107}, {"time": 1035, "pitch": 61, "duration": 2, "velocity": 88}, {"time": 1041, "pitch": 39, "duration": 11, "velocity": 85}, {"time": 1047, "pitch": 54, "duration": 7, "velocity": 93}, {"time": 1047, "pitch": 58, "duration": 7, "velocity": 97}, {"time": 1047, "pitch": 63, "duration": 7, "velocity": 92}, {"time": 1053, "pitch": 46, "duration": 8, "velocity": 69}, {"time": 1059, "pitch": 54, "duration": 2, "velocity": 96}, {"time": 1059, "pitch": 58, "duration": 1, "velocity": 107}, {"time": 1059, "pitch": 63, "duration": 1, "velocity": 96}, {"time": 1065, "pitch": 39, "duration": 10, "velocity": 75}, {"time": 1071, "pitch": 54, "duration": 8, "velocity": 95}, {"time": 1071, "pitch": 58, "duration": 8, "velocity": 102}, {"time": 1071, "pitch": 63, "duration": 8, "velocity": 93}, {"time": 1077, "pitch": 46, "duration": 9, "velocity": 81}, {"time": 1083, "pitch": 54, "duration": 2, "velocity": 90}, {"time": 1083, "pitch": 58, "duration": 2, "velocity": 99}, {"time": 1083, "pitch": 63, "duration": 1, "velocity": 86}, {"time": 1089, "pitch": 39, "duration": 11, "velocity": 89}, {"time": 1095, "pitch": 54, "duration": 7, "velocity": 90}, {"time": 1095, "pitch": 58, "duration": 7, "velocity": 95}, {"time": 1095, "pitch": 63, "duration": 7, "velocity": 92}, {"time": 1101, "pitch": 46, "duration": 8, "velocity": 93}, {"time": 1107, "pitch": 54, "duration": 2, "velocity": 92}, {"time": 1107, "pitch": 58, "duration": 1, "velocity": 93}, {"time": 1107, "pitch": 63, "duration": 1, "velocity": 78}, {"time": 1113, "pitch": 39, "duration": 16, "velocity": 86}, {"time": 1119, "pitch": 54, "duration": 8, "velocity": 93}, {"time": 1119, "pitch": 58, "duration": 8, "velocity": 95}, {"time": 1119, "pitch": 63, "duration": 7, "velocity": 79}, {"time": 1125, "pitch": 46, "duration": 8, "velocity": 93}, {"time": 1131, "pitch": 54, "duration": 2, "velocity": 97}, {"time": 1131, "pitch": 58, "duration": 1, "velocity": 92}, {"time": 1131, "pitch": 63, "duration": 1, "velocity": 82}, {"time": 1137, "pitch": 44, "duration": 11, "velocity": 73}, {"time": 1143, "pitch": 56, "duration": 8, "velocity": 88}, {"time": 1143, "pitch": 60, "duration": 7, "velocity": 93}, {"time": 1143, "pitch": 63, "duration": 7, "velocity": 93}, {"time": 1149, "pitch": 51, "duration": 8, "velocity": 75}, {"time": 1155, "pitch": 56, "duration": 2, "velocity": 92}, {"time": 1155, "pitch": 60, "duration": 1, "velocity": 93}, {"time": 1155, "pitch": 63, "duration": 2, "velocity": 85}, {"time": 1161, "pitch": 46, "duration": 11, "velocity": 96}, {"time": 1167, "pitch": 58, "duration": 7, "velocity": 100}, {"time": 1167, "pitch": 61, "duration": 6, "velocity": 97}, {"time": 1173, "pitch": 53, "duration": 9, "velocity": 69}, {"time": 1179, "pitch": 58, "duration": 3, "velocity": 99}, {"time": 1179, "pitch": 61, "duration": 3, "velocity": 100}, {"time": 1179, "pitch": 65, "duration": 2, "velocity": 74}, {"time": 1185, "pitch": 48, "duration": 8, "velocity": 88}, {"time": 1191, "pitch": 60, "duration": 2, "velocity": 86}, {"time": 1191, "pitch": 63, "duration": 2, "velocity": 102}, {"time": 1191, "pitch": 66, "duration": 2, "velocity": 100}, {"time": 1203, "pitch": 60, "duration": 2, "velocity": 86}, {"time": 1203, "pitch": 63, "duration": 2, "velocity": 100}, {"time": 1203, "pitch": 66, "duration": 3, "velocity": 97}, {"time": 1209, "pitch": 41, "duration": 8, "velocity": 90}, {"time": 1215, "pitch": 60, "duration": 2, "velocity": 88}, {"time": 1215, "pitch": 65, "duration": 2, "velocity": 95}, {"time": 1215, "pitch": 68, "duration": 2, "velocity": 100}, {"time": 1221, "pitch": 48, "duration": 8, "velocity": 79}, {"time": 1227, "pitch": 60, "duration": 2, "velocity": 96}, {"time": 1227, "pitch": 65, "duration": 3, "velocity": 99}, {"time": 1227, "pitch": 68, "duration": 2, "velocity": 102}, {"time": 1233, "pitch": 46, "duration": 8, "velocity": 122}, {"time": 1239, "pitch": 58, "duration": 2, "velocity": 97}, {"time": 1239, "pitch": 61, "duration": 2, "velocity": 95}, {"time": 1239, "pitch": 65, "duration": 1, "velocity": 61}, {"time": 1245, "pitch": 53, "duration": 10, "velocity": 69}, {"time": 1251, "pitch": 58, "duration": 2, "velocity": 99}, {"time": 1251, "pitch": 61, "duration": 2, "velocity": 112}, {"time": 1251, "pitch": 65, "duration": 1, "velocity": 73}, {"time": 1257, "pitch": 46, "duration": 11, "velocity": 76}, {"time": 1263, "pitch": 58, "duration": 9, "velocity": 99}, {"time": 1263, "pitch": 61, "duration": 9, "velocity": 112}, {"time": 1263, "pitch": 65, "duration": 8, "velocity": 70}, {"time": 1269, "pitch": 53, "duration": 9, "velocity": 75}, {"time": 1275, "pitch": 58, "duration": 3, "velocity": 97}, {"time": 1275, "pitch": 61, "duration": 2, "velocity": 117}, {"time": 1275, "pitch": 65, "duration": 1, "velocity": 78}, {"time": 1281, "pitch": 46, "duration": 10, "velocity": 102}, {"time": 1281, "pitch": 34, "duration": 10, "velocity": 102}, {"time": 1287, "pitch": 58, "duration": 7, "velocity": 100}, {"time": 1287, "pitch": 61, "duration": 7, "velocity": 117}, {"time": 1287, "pitch": 65, "duration": 6, "velocity": 82}, {"time": 1293, "pitch": 41, "duration": 8, "velocity": 73}, {"time": 1293, "pitch": 53, "duration": 8, "velocity": 73}, {"time": 1299, "pitch": 58, "duration": 2, "velocity": 100}, {"time": 1299, "pitch": 61, "duration": 2, "velocity": 112}, {"time": 1305, "pitch": 46, "duration": 10, "velocity": 99}, {"time": 1305, "pitch": 34, "duration": 10, "velocity": 99}, {"time": 1311, "pitch": 58, "duration": 8, "velocity": 112}, {"time": 1311, "pitch": 61, "duration": 8, "velocity": 127}, {"time": 1311, "pitch": 65, "duration": 7, "velocity": 81}, {"time": 1317, "pitch": 41, "duration": 7, "velocity": 89}, {"time": 1317, "pitch": 53, "duration": 7, "velocity": 89}, {"time": 1323, "pitch": 58, "duration": 2, "velocity": 112}, {"time": 1323, "pitch": 61, "duration": 1, "velocity": 127}, {"time": 1323, "pitch": 65, "duration": 1, "velocity": 68}, {"time": 1329, "pitch": 46, "duration": 8, "velocity": 107}, {"time": 1329, "pitch": 34, "duration": 8, "velocity": 107}, {"time": 1335, "pitch": 58, "duration": 1, "velocity": 127}, {"time": 1335, "pitch": 61, "duration": 1, "velocity": 127}, {"time": 1335, "pitch": 65, "duration": 1, "velocity": 77}, {"time": 1338, "pitch": 58, "duration": 2, "velocity": 60}, {"time": 1338, "pitch": 61, "duration": 2, "velocity": 69}, {"time": 1338, "pitch": 65, "duration": 1, "velocity": 51}, {"time": 1341, "pitch": 41, "duration": 8, "velocity": 89}, {"time": 1341, "pitch": 53, "duration": 8, "velocity": 89}, {"time": 1347, "pitch": 58, "duration": 2, "velocity": 122}, {"time": 1347, "pitch": 61, "duration": 1, "velocity": 122}, {"time": 1347, "pitch": 65, "duration": 1, "velocity": 47}, {"time": 1353, "pitch": 46, "duration": 11, "velocity": 86}, {"time": 1353, "pitch": 34, "duration": 11, "velocity": 86}, {"time": 1359, "pitch": 58, "duration": 8, "velocity": 117}, {"time": 1359, "pitch": 61, "duration": 8, "velocity": 127}, {"time": 1359, "pitch": 65, "duration": 7, "velocity": 93}, {"time": 1365, "pitch": 41, "duration": 7, "velocity": 81}, {"time": 1365, "pitch": 53, "duration": 7, "velocity": 81}, {"time": 1371, "pitch": 58, "duration": 2, "velocity": 122}, {"time": 1371, "pitch": 61, "duration": 1, "velocity": 127}, {"time": 1371, "pitch": 65, "duration": 1, "velocity": 88}, {"time": 1377, "pitch": 51, "duration": 9, "velocity": 117}, {"time": 1377, "pitch": 39, "duration": 9, "velocity": 117}, {"time": 1383, "pitch": 63, "duration": 8, "velocity": 127}, {"time": 1383, "pitch": 66, "duration": 8, "velocity": 127}, {"time": 1383, "pitch": 70, "duration": 8, "velocity": 127}, {"time": 1389, "pitch": 39, "duration": 8, "velocity": 97}, {"time": 1389, "pitch": 51, "duration": 8, "velocity": 97}, {"time": 1395, "pitch": 63, "duration": 3, "velocity": 112}, {"time": 1395, "pitch": 66, "duration": 1, "velocity": 127}, {"time": 1395, "pitch": 70, "duration": 3, "velocity": 107}, {"time": 1401, "pitch": 47, "duration": 8, "velocity": 78}, {"time": 1401, "pitch": 35, "duration": 8, "velocity": 78}, {"time": 1407, "pitch": 59, "duration": 2, "velocity": 97}, {"time": 1407, "pitch": 63, "duration": 1, "velocity": 122}, {"time": 1407, "pitch": 66, "duration": 1, "velocity": 117}, {"time": 1410, "pitch": 59, "duration": 3, "velocity": 76}, {"time": 1410, "pitch": 63, "duration": 4, "velocity": 92}, {"time": 1410, "pitch": 66, "duration": 4, "velocity": 92}, {"time": 1413, "pitch": 54, "duration": 5, "velocity": 85}, {"time": 1413, "pitch": 42, "duration": 4, "velocity": 85}, {"time": 1419, "pitch": 59, "duration": 2, "velocity": 112}, {"time": 1419, "pitch": 63, "duration": 1, "velocity": 127}, {"time": 1419, "pitch": 66, "duration": 2, "velocity": 127}, {"time": 1425, "pitch": 44, "duration": 7, "velocity": 90}, {"time": 1425, "pitch": 60, "duration": 2, "velocity": 40}, {"time": 1425, "pitch": 32, "duration": 7, "velocity": 90}, {"time": 1431, "pitch": 56, "duration": 6, "velocity": 112}, {"time": 1431, "pitch": 60, "duration": 2, "velocity": 117}, {"time": 1431, "pitch": 63, "duration": 2, "velocity": 122}, {"time": 1434, "pitch": 60, "duration": 3, "velocity": 76}, {"time": 1434, "pitch": 63, "duration": 3, "velocity": 71}, {"time": 1437, "pitch": 39, "duration": 9, "velocity": 92}, {"time": 1437, "pitch": 51, "duration": 10, "velocity": 92}, {"time": 1443, "pitch": 56, "duration": 2, "velocity": 102}, {"time": 1443, "pitch": 60, "duration": 2, "velocity": 99}, {"time": 1443, "pitch": 63, "duration": 2, "velocity": 100}, {"time": 1449, "pitch": 44, "duration": 9, "velocity": 83}, {"time": 1449, "pitch": 32, "duration": 9, "velocity": 83}, {"time": 1455, "pitch": 56, "duration": 3, "velocity": 112}, {"time": 1455, "pitch": 60, "duration": 2, "velocity": 127}, {"time": 1455, "pitch": 63, "duration": 3, "velocity": 122}, {"time": 1461, "pitch": 39, "duration": 4, "velocity": 99}, {"time": 1461, "pitch": 51, "duration": 4, "velocity": 99}, {"time": 1461, "pitch": 56, "duration": 3, "velocity": 112}, {"time": 1461, "pitch": 60, "duration": 2, "velocity": 117}, {"time": 1461, "pitch": 63, "duration": 3, "velocity": 117}, {"time": 1467, "pitch": 56, "duration": 2, "velocity": 117}, {"time": 1467, "pitch": 60, "duration": 2, "velocity": 127}, {"time": 1467, "pitch": 63, "duration": 3, "velocity": 127}, {"time": 1473, "pitch": 51, "duration": 7, "velocity": 112}, {"time": 1473, "pitch": 39, "duration": 7, "velocity": 112}, {"time": 1479, "pitch": 63, "duration": 2, "velocity": 112}, {"time": 1479, "pitch": 66, "duration": 1, "velocity": 127}, {"time": 1479, "pitch": 70, "duration": 1, "velocity": 112}, {"time": 1482, "pitch": 63, "duration": 3, "velocity": 64}, {"time": 1482, "pitch": 66, "duration": 3, "velocity": 71}, {"time": 1482, "pitch": 70, "duration": 3, "velocity": 41}, {"time": 1485, "pitch": 58, "duration": 11, "velocity": 82}, {"time": 1491, "pitch": 63, "duration": 2, "velocity": 112}, {"time": 1491, "pitch": 66, "duration": 1, "velocity": 127}, {"time": 1491, "pitch": 70, "duration": 2, "velocity": 107}, {"time": 1497, "pitch": 39, "duration": 10, "velocity": 82}, {"time": 1497, "pitch": 51, "duration": 10, "velocity": 82}, {"time": 1503, "pitch": 63, "duration": 2, "velocity": 117}, {"time": 1503, "pitch": 66, "duration": 1, "velocity": 127}, {"time": 1503, "pitch": 70, "duration": 2, "velocity": 117}, {"time": 1509, "pitch": 42, "duration": 6, "velocity": 59}, {"time": 1509, "pitch": 54, "duration": 6, "velocity": 59}, {"time": 1509, "pitch": 58, "duration": 6, "velocity": 99}, {"time": 1509, "pitch": 63, "duration": 2, "velocity": 102}, {"time": 1509, "pitch": 66, "duration": 2, "velocity": 127}, {"time": 1509, "pitch": 70, "duration": 3, "velocity": 107}, {"time": 1515, "pitch": 63, "duration": 3, "velocity": 122}, {"time": 1515, "pitch": 66, "duration": 2, "velocity": 127}, {"time": 1515, "pitch": 70, "duration": 2, "velocity": 107}, {"time": 1521, "pitch": 34, "duration": 11, "velocity": 78}, {"time": 1521, "pitch": 46, "duration": 11, "velocity": 78}, {"time": 1527, "pitch": 58, "duration": 8, "velocity": 112}, {"time": 1527, "pitch": 61, "duration": 7, "velocity": 127}, {"time": 1527, "pitch": 65, "duration": 8, "velocity": 99}, {"time": 1533, "pitch": 41, "duration": 9, "velocity": 64}, {"time": 1533, "pitch": 53, "duration": 9, "velocity": 64}, {"time": 1539, "pitch": 58, "duration": 2, "velocity": 107}, {"time": 1539, "pitch": 61, "duration": 2, "velocity": 127}, {"time": 1539, "pitch": 65, "duration": 2, "velocity": 96}, {"time": 1545, "pitch": 34, "duration": 11, "velocity": 107}, {"time": 1545, "pitch": 46, "duration": 11, "velocity": 107}, {"time": 1551, "pitch": 58, "duration": 1, "velocity": 99}, {"time": 1551, "pitch": 61, "duration": 3, "velocity": 117}, {"time": 1551, "pitch": 65, "duration": 2, "velocity": 76}, {"time": 1551, "pitch": 66, "duration": 1, "velocity": 55}, {"time": 1557, "pitch": 41, "duration": 9, "velocity": 75}, {"time": 1557, "pitch": 53, "duration": 9, "velocity": 75}, {"time": 1557, "pitch": 58, "duration": 3, "velocity": 102}, {"time": 1557, "pitch": 61, "duration": 2, "velocity": 117}, {"time": 1557, "pitch": 65, "duration": 2, "velocity": 75}, {"time": 1563, "pitch": 58, "duration": 4, "velocity": 112}, {"time": 1563, "pitch": 61, "duration": 2, "velocity": 127}, {"time": 1563, "pitch": 65, "duration": 1, "velocity": 71}, {"time": 1569, "pitch": 32, "duration": 8, "velocity": 97}, {"time": 1569, "pitch": 44, "duration": 8, "velocity": 97}, {"time": 1575, "pitch": 56, "duration": 7, "velocity": 102}, {"time": 1575, "pitch": 60, "duration": 7, "velocity": 122}, {"time": 1575, "pitch": 63, "duration": 7, "velocity": 97}, {"time": 1581, "pitch": 39, "duration": 9, "velocity": 100}, {"time": 1581, "pitch": 51, "duration": 9, "velocity": 100}, {"time": 1587, "pitch": 56, "duration": 2, "velocity": 100}, {"time": 1587, "pitch": 60, "duration": 1, "velocity": 117}, {"time": 1587, "pitch": 63, "duration": 2, "velocity": 100}, {"time": 1593, "pitch": 32, "duration": 9, "velocity": 88}, {"time": 1593, "pitch": 44, "duration": 9, "velocity": 88}, {"time": 1599, "pitch": 56, "duration": 2, "velocity": 102}, {"time": 1599, "pitch": 60, "duration": 2, "velocity": 117}, {"time": 1599, "pitch": 63, "duration": 3, "velocity": 122}, {"time": 1605, "pitch": 56, "duration": 3, "velocity": 99}, {"time": 1605, "pitch": 60, "duration": 2, "velocity": 122}, {"time": 1605, "pitch": 63, "duration": 3, "velocity": 96}, {"time": 1605, "pitch": 39, "duration": 9, "velocity": 97}, {"time": 1605, "pitch": 51, "duration": 9, "velocity": 97}, {"time": 1611, "pitch": 56, "duration": 2, "velocity": 107}, {"time": 1611, "pitch": 60, "duration": 2, "velocity": 127}, {"time": 1611, "pitch": 63, "duration": 3, "velocity": 112}, {"time": 1617, "pitch": 37, "duration": 10, "velocity": 90}, {"time": 1617, "pitch": 49, "duration": 10, "velocity": 90}, {"time": 1623, "pitch": 61, "duration": 7, "velocity": 102}, {"time": 1623, "pitch": 65, "duration": 6, "velocity": 122}, {"time": 1623, "pitch": 68, "duration": 7, "velocity": 117}, {"time": 1629, "pitch": 44, "duration": 4, "velocity": 85}, {"time": 1629, "pitch": 56, "duration": 4, "velocity": 85}, {"time": 1635, "pitch": 61, "duration": 3, "velocity": 102}, {"time": 1635, "pitch": 65, "duration": 2, "velocity": 122}, {"time": 1635, "pitch": 68, "duration": 3, "velocity": 112}, {"time": 1641, "pitch": 34, "duration": 9, "velocity": 96}, {"time": 1641, "pitch": 46, "duration": 9, "velocity": 96}, {"time": 1647, "pitch": 58, "duration": 9, "velocity": 127}, {"time": 1647, "pitch": 62, "duration": 8, "velocity": 100}, {"time": 1647, "pitch": 65, "duration": 9, "velocity": 102}, {"time": 1653, "pitch": 41, "duration": 7, "velocity": 78}, {"time": 1653, "pitch": 53, "duration": 7, "velocity": 78}, {"time": 1659, "pitch": 58, "duration": 2, "velocity": 127}, {"time": 1659, "pitch": 62, "duration": 1, "velocity": 102}, {"time": 1659, "pitch": 65, "duration": 1, "velocity": 82}, {"time": 1665, "pitch": 39, "duration": 5, "velocity": 96}, {"time": 1665, "pitch": 51, "duration": 5, "velocity": 96}, {"time": 1671, "pitch": 63, "duration": 7, "velocity": 102}, {"time": 1671, "pitch": 66, "duration": 1, "velocity": 127}, {"time": 1671, "pitch": 70, "duration": 8, "velocity": 100}, {"time": 1674, "pitch": 66, "duration": 5, "velocity": 68}, {"time": 1677, "pitch": 46, "duration": 9, "velocity": 90}, {"time": 1677, "pitch": 58, "duration": 9, "velocity": 90}, {"time": 1683, "pitch": 63, "duration": 2, "velocity": 107}, {"time": 1683, "pitch": 66, "duration": 1, "velocity": 127}, {"time": 1683, "pitch": 70, "duration": 1, "velocity": 122}, {"time": 1689, "pitch": 39, "duration": 8, "velocity": 93}, {"time": 1689, "pitch": 51, "duration": 8, "velocity": 93}, {"time": 1689, "pitch": 63, "duration": 1, "velocity": 68}, {"time": 1695, "pitch": 63, "duration": 1, "velocity": 117}, {"time": 1695, "pitch": 66, "duration": 1, "velocity": 127}, {"time": 1695, "pitch": 70, "duration": 1, "velocity": 122}, {"time": 1701, "pitch": 46, "duration": 5, "velocity": 112}, {"time": 1701, "pitch": 58, "duration": 5, "velocity": 112}, {"time": 1701, "pitch": 63, "duration": 2, "velocity": 100}, {"time": 1701, "pitch": 66, "duration": 2, "velocity": 127}, {"time": 1701, "pitch": 70, "duration": 2, "velocity": 96}, {"time": 1707, "pitch": 63, "duration": 2, "velocity": 107}, {"time": 1707, "pitch": 66, "duration": 1, "velocity": 127}, {"time": 1707, "pitch": 70, "duration": 1, "velocity": 117}, {"time": 1713, "pitch": 35, "duration": 6, "velocity": 96}, {"time": 1713, "pitch": 47, "duration": 6, "velocity": 96}, {"time": 1719, "pitch": 59, "duration": 8, "velocity": 96}, {"time": 1719, "pitch": 63, "duration": 8, "velocity": 122}, {"time": 1719, "pitch": 66, "duration": 8, "velocity": 112}, {"time": 1725, "pitch": 42, "duration": 6, "velocity": 92}, {"time": 1725, "pitch": 54, "duration": 6, "velocity": 92}, {"time": 1731, "pitch": 59, "duration": 2, "velocity": 95}, {"time": 1731, "pitch": 63, "duration": 2, "velocity": 112}, {"time": 1731, "pitch": 66, "duration": 2, "velocity": 99}, {"time": 1737, "pitch": 34, "duration": 10, "velocity": 93}, {"time": 1737, "pitch": 46, "duration": 10, "velocity": 93}, {"time": 1743, "pitch": 58, "duration": 2, "velocity": 127}, {"time": 1743, "pitch": 61, "duration": 3, "velocity": 107}, {"time": 1749, "pitch": 41, "duration": 8, "velocity": 56}, {"time": 1749, "pitch": 53, "duration": 8, "velocity": 56}, {"time": 1749, "pitch": 58, "duration": 3, "velocity": 107}, {"time": 1749, "pitch": 61, "duration": 3, "velocity": 96}, {"time": 1755, "pitch": 58, "duration": 3, "velocity": 107}, {"time": 1755, "pitch": 61, "duration": 3, "velocity": 102}, {"time": 1755, "pitch": 65, "duration": 3, "velocity": 96}, {"time": 1761, "pitch": 29, "duration": 12, "velocity": 80}, {"time": 1761, "pitch": 41, "duration": 12, "velocity": 80}, {"time": 1767, "pitch": 53, "duration": 8, "velocity": 92}, {"time": 1767, "pitch": 56, "duration": 8, "velocity": 107}, {"time": 1767, "pitch": 60, "duration": 8, "velocity": 96}, {"time": 1773, "pitch": 36, "duration": 9, "velocity": 67}, {"time": 1773, "pitch": 48, "duration": 9, "velocity": 67}, {"time": 1779, "pitch": 53, "duration": 2, "velocity": 90}, {"time": 1779, "pitch": 56, "duration": 2, "velocity": 99}, {"time": 1779, "pitch": 60, "duration": 2, "velocity": 92}, {"time": 1785, "pitch": 29, "duration": 13, "velocity": 61}, {"time": 1785, "pitch": 41, "duration": 13, "velocity": 61}, {"time": 1791, "pitch": 53, "duration": 8, "velocity": 97}, {"time": 1791, "pitch": 56, "duration": 8, "velocity": 127}, {"time": 1791, "pitch": 60, "duration": 8, "velocity": 102}, {"time": 1797, "pitch": 36, "duration": 8, "velocity": 89}, {"time": 1797, "pitch": 48, "duration": 8, "velocity": 89}, {"time": 1803, "pitch": 53, "duration": 2, "velocity": 100}, {"time": 1803, "pitch": 56, "duration": 2, "velocity": 112}, {"time": 1803, "pitch": 60, "duration": 1, "velocity": 88}, {"time": 1809, "pitch": 34, "duration": 9, "velocity": 97}, {"time": 1809, "pitch": 46, "duration": 9, "velocity": 97}, {"time": 1809, "pitch": 61, "duration": 1, "velocity": 36}, {"time": 1815, "pitch": 58, "duration": 8, "velocity": 127}, {"time": 1815, "pitch": 61, "duration": 8, "velocity": 107}, {"time": 1821, "pitch": 41, "duration": 8, "velocity": 59}, {"time": 1821, "pitch": 53, "duration": 8, "velocity": 59}, {"time": 1827, "pitch": 58, "duration": 2, "velocity": 117}, {"time": 1827, "pitch": 61, "duration": 3, "velocity": 112}, {"time": 1827, "pitch": 65, "duration": 2, "velocity": 96}, {"time": 1833, "pitch": 34, "duration": 9, "velocity": 96}, {"time": 1833, "pitch": 46, "duration": 9, "velocity": 96}, {"time": 1839, "pitch": 58, "duration": 2, "velocity": 127}, {"time": 1839, "pitch": 61, "duration": 2, "velocity": 112}, {"time": 1839, "pitch": 65, "duration": 2, "velocity": 90}, {"time": 1845, "pitch": 41, "duration": 6, "velocity": 86}, {"time": 1845, "pitch": 53, "duration": 6, "velocity": 86}, {"time": 1845, "pitch": 58, "duration": 2, "velocity": 102}, {"time": 1845, "pitch": 61, "duration": 2, "velocity": 95}, {"time": 1845, "pitch": 65, "duration": 2, "velocity": 89}, {"time": 1851, "pitch": 58, "duration": 1, "velocity": 127}, {"time": 1851, "pitch": 61, "duration": 2, "velocity": 117}, {"time": 1851, "pitch": 65, "duration": 1, "velocity": 81}, {"time": 1857, "pitch": 39, "duration": 9, "velocity": 102}, {"time": 1857, "pitch": 51, "duration": 9, "velocity": 102}, {"time": 1863, "pitch": 63, "duration": 8, "velocity": 100}, {"time": 1863, "pitch": 66, "duration": 8, "velocity": 127}, {"time": 1863, "pitch": 70, "duration": 8, "velocity": 112}, {"time": 1869, "pitch": 46, "duration": 8, "velocity": 86}, {"time": 1869, "pitch": 58, "duration": 8, "velocity": 86}, {"time": 1875, "pitch": 63, "duration": 2, "velocity": 107}, {"time": 1875, "pitch": 66, "duration": 1, "velocity": 127}, {"time": 1875, "pitch": 70, "duration": 1, "velocity": 117}, {"time": 1881, "pitch": 39, "duration": 7, "velocity": 72}, {"time": 1881, "pitch": 51, "duration": 7, "velocity": 72}, {"time": 1887, "pitch": 63, "duration": 1, "velocity": 112}, {"time": 1887, "pitch": 66, "duration": 1, "velocity": 127}, {"time": 1887, "pitch": 70, "duration": 1, "velocity": 107}, {"time": 1893, "pitch": 46, "duration": 7, "velocity": 90}, {"time": 1893, "pitch": 58, "duration": 7, "velocity": 90}, {"time": 1893, "pitch": 63, "duration": 2, "velocity": 96}, {"time": 1893, "pitch": 66, "duration": 1, "velocity": 117}, {"time": 1893, "pitch": 70, "duration": 1, "velocity": 93}, {"time": 1899, "pitch": 63, "duration": 2, "velocity": 127}, {"time": 1899, "pitch": 66, "duration": 1, "velocity": 127}, {"time": 1899, "pitch": 70, "duration": 1, "velocity": 107}, {"time": 1905, "pitch": 35, "duration": 9, "velocity": 74}, {"time": 1905, "pitch": 47, "duration": 9, "velocity": 74}, {"time": 1911, "pitch": 59, "duration": 8, "velocity": 100}, {"time": 1911, "pitch": 63, "duration": 8, "velocity": 127}, {"time": 1911, "pitch": 66, "duration": 8, "velocity": 127}, {"time": 1917, "pitch": 54, "duration": 7, "velocity": 83}, {"time": 1917, "pitch": 42, "duration": 7, "velocity": 83}, {"time": 1923, "pitch": 59, "duration": 2, "velocity": 97}, {"time": 1923, "pitch": 63, "duration": 2, "velocity": 127}, {"time": 1923, "pitch": 66, "duration": 1, "velocity": 88}, {"time": 1929, "pitch": 61, "duration": 2, "velocity": 35}, {"time": 1929, "pitch": 34, "duration": 10, "velocity": 95}, {"time": 1929, "pitch": 46, "duration": 10, "velocity": 95}, {"time": 1935, "pitch": 58, "duration": 3, "velocity": 122}, {"time": 1935, "pitch": 61, "duration": 3, "velocity": 112}, {"time": 1935, "pitch": 65, "duration": 3, "velocity": 90}, {"time": 1941, "pitch": 53, "duration": 9, "velocity": 71}, {"time": 1941, "pitch": 58, "duration": 2, "velocity": 96}, {"time": 1941, "pitch": 61, "duration": 2, "velocity": 96}, {"time": 1941, "pitch": 65, "duration": 3, "velocity": 96}, {"time": 1941, "pitch": 41, "duration": 9, "velocity": 71}, {"time": 1947, "pitch": 58, "duration": 2, "velocity": 117}, {"time": 1947, "pitch": 61, "duration": 2, "velocity": 102}, {"time": 1947, "pitch": 65, "duration": 3, "velocity": 92}, {"time": 1953, "pitch": 29, "duration": 12, "velocity": 83}, {"time": 1953, "pitch": 41, "duration": 12, "velocity": 83}, {"time": 1959, "pitch": 60, "duration": 7, "velocity": 100}, {"time": 1959, "pitch": 65, "duration": 8, "velocity": 117}, {"time": 1959, "pitch": 68, "duration": 7, "velocity": 117}, {"time": 1965, "pitch": 36, "duration": 9, "velocity": 63}, {"time": 1965, "pitch": 48, "duration": 9, "velocity": 63}, {"time": 1971, "pitch": 60, "duration": 2, "velocity": 97}, {"time": 1971, "pitch": 65, "duration": 2, "velocity": 102}, {"time": 1971, "pitch": 68, "duration": 1, "velocity": 112}, {"time": 1977, "pitch": 29, "duration": 10, "velocity": 67}, {"time": 1977, "pitch": 41, "duration": 10, "velocity": 67}, {"time": 1983, "pitch": 60, "duration": 2, "velocity": 96}, {"time": 1983, "pitch": 65, "duration": 2, "velocity": 100}, {"time": 1983, "pitch": 68, "duration": 2, "velocity": 100}, {"time": 1989, "pitch": 36, "duration": 7, "velocity": 73}, {"time": 1989, "pitch": 48, "duration": 7, "velocity": 73}, {"time": 1989, "pitch": 60, "duration": 2, "velocity": 96}, {"time": 1989, "pitch": 65, "duration": 2, "velocity": 96}, {"time": 1989, "pitch": 68, "duration": 2, "velocity": 96}, {"time": 1995, "pitch": 60, "duration": 2, "velocity": 100}, {"time": 1995, "pitch": 65, "duration": 2, "velocity": 99}, {"time": 1995, "pitch": 68, "duration": 1, "velocity": 99}, {"time": 2001, "pitch": 34, "duration": 10, "velocity": 100}, {"time": 2001, "pitch": 46, "duration": 10, "velocity": 100}, {"time": 2007, "pitch": 58, "duration": 6, "velocity": 122}, {"time": 2007, "pitch": 61, "duration": 7, "velocity": 117}, {"time": 2007, "pitch": 65, "duration": 6, "velocity": 92}, {"time": 2013, "pitch": 41, "duration": 8, "velocity": 67}, {"time": 2013, "pitch": 53, "duration": 8, "velocity": 67}, {"time": 2019, "pitch": 58, "duration": 2, "velocity": 117}, {"time": 2019, "pitch": 61, "duration": 2, "velocity": 107}, {"time": 2019, "pitch": 65, "duration": 2, "velocity": 90}, {"time": 2025, "pitch": 34, "duration": 10, "velocity": 99}, {"time": 2025, "pitch": 46, "duration": 10, "velocity": 99}, {"time": 2025, "pitch": 61, "duration": 1, "velocity": 37}, {"time": 2031, "pitch": 58, "duration": 2, "velocity": 117}, {"time": 2031, "pitch": 61, "duration": 2, "velocity": 112}, {"time": 2031, "pitch": 65, "duration": 1, "velocity": 83}, {"time": 2037, "pitch": 41, "duration": 6, "velocity": 71}, {"time": 2037, "pitch": 53, "duration": 6, "velocity": 71}, {"time": 2037, "pitch": 58, "duration": 2, "velocity": 117}, {"time": 2037, "pitch": 61, "duration": 2, "velocity": 97}, {"time": 2037, "pitch": 65, "duration": 2, "velocity": 76}, {"time": 2043, "pitch": 58, "duration": 2, "velocity": 122}, {"time": 2043, "pitch": 61, "duration": 2, "velocity": 112}, {"time": 2043, "pitch": 65, "duration": 3, "velocity": 83}, {"time": 2049, "pitch": 32, "duration": 3, "velocity": 85}, {"time": 2049, "pitch": 44, "duration": 3, "velocity": 85}, {"time": 2049, "pitch": 56, "duration": 2, "velocity": 99}, {"time": 2049, "pitch": 60, "duration": 2, "velocity": 107}, {"time": 2049, "pitch": 63, "duration": 1, "velocity": 102}, {"time": 2055, "pitch": 32, "duration": 3, "velocity": 99}, {"time": 2055, "pitch": 44, "duration": 3, "velocity": 99}, {"time": 2055, "pitch": 56, "duration": 2, "velocity": 72}, {"time": 2055, "pitch": 60, "duration": 2, "velocity": 86}, {"time": 2055, "pitch": 63, "duration": 2, "velocity": 67}, {"time": 2061, "pitch": 32, "duration": 2, "velocity": 93}, {"time": 2061, "pitch": 44, "duration": 2, "velocity": 93}, {"time": 2061, "pitch": 56, "duration": 2, "velocity": 97}, {"time": 2061, "pitch": 60, "duration": 1, "velocity": 112}, {"time": 2061, "pitch": 63, "duration": 1, "velocity": 93}, {"time": 2067, "pitch": 32, "duration": 3, "velocity": 102}, {"time": 2067, "pitch": 44, "duration": 3, "velocity": 102}, {"time": 2067, "pitch": 56, "duration": 2, "velocity": 102}, {"time": 2067, "pitch": 60, "duration": 1, "velocity": 88}, {"time": 2067, "pitch": 63, "duration": 1, "velocity": 36}, {"time": 2073, "pitch": 29, "duration": 8, "velocity": 89}, {"time": 2073, "pitch": 41, "duration": 8, "velocity": 89}, {"time": 2073, "pitch": 53, "duration": 7, "velocity": 102}, {"time": 2073, "pitch": 56, "duration": 7, "velocity": 127}, {"time": 2073, "pitch": 60, "duration": 7, "velocity": 107}, {"time": 2097, "pitch": 34, "duration": 8, "velocity": 100}, {"time": 2097, "pitch": 46, "duration": 8, "velocity": 100}, {"time": 2103, "pitch": 58, "duration": 2, "velocity": 122}, {"time": 2103, "pitch": 61, "duration": 2, "velocity": 107}, {"time": 2103, "pitch": 65, "duration": 2, "velocity": 88}, {"time": 2109, "pitch": 53, "duration": 9, "velocity": 55}, {"time": 2109, "pitch": 41, "duration": 9, "velocity": 55}, {"time": 2115, "pitch": 58, "duration": 2, "velocity": 122}, {"time": 2115, "pitch": 61, "duration": 2, "velocity": 97}, {"time": 2115, "pitch": 65, "duration": 2, "velocity": 90}, {"time": 2121, "pitch": 34, "duration": 10, "velocity": 93}, {"time": 2121, "pitch": 46, "duration": 10, "velocity": 93}, {"time": 2127, "pitch": 58, "duration": 2, "velocity": 127}, {"time": 2127, "pitch": 61, "duration": 2, "velocity": 102}, {"time": 2127, "pitch": 65, "duration": 2, "velocity": 76}, {"time": 2133, "pitch": 53, "duration": 8, "velocity": 82}, {"time": 2133, "pitch": 58, "duration": 2, "velocity": 107}, {"time": 2133, "pitch": 61, "duration": 2, "velocity": 93}, {"time": 2133, "pitch": 65, "duration": 1, "velocity": 79}, {"time": 2133, "pitch": 41, "duration": 9, "velocity": 82}, {"time": 2139, "pitch": 58, "duration": 2, "velocity": 122}, {"time": 2139, "pitch": 61, "duration": 2, "velocity": 102}, {"time": 2139, "pitch": 65, "duration": 2, "velocity": 85}, {"time": 2145, "pitch": 34, "duration": 10, "velocity": 86}, {"time": 2145, "pitch": 46, "duration": 10, "velocity": 86}, {"time": 2151, "pitch": 58, "duration": 2, "velocity": 112}, {"time": 2151, "pitch": 61, "duration": 3, "velocity": 102}, {"time": 2151, "pitch": 65, "duration": 3, "velocity": 85}, {"time": 2157, "pitch": 53, "duration": 9, "velocity": 71}, {"time": 2157, "pitch": 41, "duration": 9, "velocity": 71}, {"time": 2163, "pitch": 58, "duration": 2, "velocity": 117}, {"time": 2163, "pitch": 61, "duration": 3, "velocity": 102}, {"time": 2163, "pitch": 65, "duration": 2, "velocity": 72}, {"time": 2169, "pitch": 34, "duration": 9, "velocity": 97}, {"time": 2169, "pitch": 46, "duration": 9, "velocity": 97}, {"time": 2175, "pitch": 58, "duration": 2, "velocity": 122}, {"time": 2175, "pitch": 61, "duration": 2, "velocity": 99}, {"time": 2175, "pitch": 65, "duration": 1, "velocity": 72}, {"time": 2181, "pitch": 53, "duration": 8, "velocity": 73}, {"time": 2181, "pitch": 58, "duration": 2, "velocity": 107}, {"time": 2181, "pitch": 61, "duration": 2, "velocity": 92}, {"time": 2181, "pitch": 65, "duration": 1, "velocity": 68}, {"time": 2181, "pitch": 41, "duration": 9, "velocity": 73}, {"time": 2187, "pitch": 58, "duration": 3, "velocity": 117}, {"time": 2187, "pitch": 61, "duration": 3, "velocity": 99}, {"time": 2187, "pitch": 65, "duration": 3, "velocity": 85}, {"time": 2193, "pitch": 37, "duration": 44, "velocity": 96}, {"time": 2193, "pitch": 49, "duration": 44, "velocity": 96}, {"time": 2193, "pitch": 53, "duration": 42, "velocity": 65}, {"time": 2193, "pitch": 56, "duration": 43, "velocity": 96}, {"time": 2193, "pitch": 61, "duration": 40, "velocity": 102}, {"time": 2193, "pitch": 65, "duration": 38, "velocity": 100}, {"time": 2193, "pitch": 68, "duration": 40, "velocity": 102}, {"time": 2241, "pitch": 51, "duration": 2, "velocity": 97}, {"time": 2241, "pitch": 58, "duration": 1, "velocity": 99}, {"time": 2241, "pitch": 63, "duration": 1, "velocity": 112}, {"time": 2241, "pitch": 66, "duration": 1, "velocity": 99}, {"time": 2241, "pitch": 39, "duration": 2, "velocity": 97}, {"time": 2245, "pitch": 51, "duration": 2, "velocity": 92}, {"time": 2245, "pitch": 58, "duration": 2, "velocity": 90}, {"time": 2245, "pitch": 63, "duration": 1, "velocity": 96}, {"time": 2245, "pitch": 66, "duration": 1, "velocity": 89}, {"time": 2245, "pitch": 39, "duration": 2, "velocity": 92}, {"time": 2249, "pitch": 51, "duration": 2, "velocity": 100}, {"time": 2249, "pitch": 58, "duration": 2, "velocity": 89}, {"time": 2249, "pitch": 63, "duration": 1, "velocity": 93}, {"time": 2249, "pitch": 66, "duration": 1, "velocity": 85}, {"time": 2249, "pitch": 39, "duration": 2, "velocity": 100}, {"time": 2253, "pitch": 51, "duration": 2, "velocity": 107}, {"time": 2253, "pitch": 58, "duration": 2, "velocity": 95}, {"time": 2253, "pitch": 63, "duration": 1, "velocity": 99}, {"time": 2253, "pitch": 66, "duration": 1, "velocity": 93}, {"time": 2253, "pitch": 39, "duration": 2, "velocity": 107}, {"time": 2257, "pitch": 51, "duration": 2, "velocity": 97}, {"time": 2257, "pitch": 58, "duration": 2, "velocity": 83}, {"time": 2257, "pitch": 63, "duration": 1, "velocity": 89}, {"time": 2257, "pitch": 66, "duration": 1, "velocity": 82}, {"time": 2257, "pitch": 39, "duration": 2, "velocity": 97}, {"time": 2261, "pitch": 51, "duration": 2, "velocity": 102}, {"time": 2261, "pitch": 58, "duration": 2, "velocity": 86}, {"time": 2261, "pitch": 63, "duration": 1, "velocity": 95}, {"time": 2261, "pitch": 66, "duration": 1, "velocity": 97}, {"time": 2261, "pitch": 39, "duration": 2, "velocity": 102}, {"time": 2265, "pitch": 51, "duration": 19, "velocity": 127}, {"time": 2265, "pitch": 58, "duration": 16, "velocity": 99}, {"time": 2265, "pitch": 63, "duration": 13, "velocity": 117}, {"time": 2265, "pitch": 66, "duration": 13, "velocity": 102}, {"time": 2265, "pitch": 39, "duration": 19, "velocity": 127}, {"time": 2289, "pitch": 44, "duration": 41, "velocity": 100}, {"time": 2289, "pitch": 56, "duration": 36, "velocity": 97}, {"time": 2289, "pitch": 60, "duration": 35, "velocity": 107}, {"time": 2289, "pitch": 63, "duration": 35, "velocity": 102}, {"time": 2337, "pitch": 34, "duration": 2, "velocity": 102}, {"time": 2337, "pitch": 46, "duration": 2, "velocity": 102}, {"time": 2337, "pitch": 58, "duration": 2, "velocity": 127}, {"time": 2337, "pitch": 61, "duration": 2, "velocity": 117}, {"time": 2337, "pitch": 65, "duration": 2, "velocity": 75}, {"time": 2341, "pitch": 34, "duration": 2, "velocity": 86}, {"time": 2341, "pitch": 46, "duration": 2, "velocity": 86}, {"time": 2341, "pitch": 58, "duration": 2, "velocity": 76}, {"time": 2341, "pitch": 61, "duration": 2, "velocity": 76}, {"time": 2345, "pitch": 34, "duration": 2, "velocity": 78}, {"time": 2345, "pitch": 46, "duration": 2, "velocity": 78}, {"time": 2345, "pitch": 58, "duration": 2, "velocity": 88}, {"time": 2345, "pitch": 61, "duration": 2, "velocity": 76}, {"time": 2345, "pitch": 65, "duration": 2, "velocity": 70}, {"time": 2349, "pitch": 34, "duration": 2, "velocity": 86}, {"time": 2349, "pitch": 46, "duration": 2, "velocity": 86}, {"time": 2349, "pitch": 58, "duration": 2, "velocity": 97}, {"time": 2349, "pitch": 61, "duration": 2, "velocity": 89}, {"time": 2349, "pitch": 65, "duration": 2, "velocity": 85}, {"time": 2353, "pitch": 34, "duration": 2, "velocity": 88}, {"time": 2353, "pitch": 46, "duration": 2, "velocity": 88}, {"time": 2353, "pitch": 58, "duration": 2, "velocity": 97}, {"time": 2353, "pitch": 61, "duration": 2, "velocity": 90}, {"time": 2353, "pitch": 65, "duration": 1, "velocity": 76}, {"time": 2357, "pitch": 34, "duration": 2, "velocity": 89}, {"time": 2357, "pitch": 46, "duration": 2, "velocity": 89}, {"time": 2357, "pitch": 58, "duration": 2, "velocity": 96}, {"time": 2357, "pitch": 61, "duration": 2, "velocity": 93}, {"time": 2357, "pitch": 65, "duration": 1, "velocity": 83}, {"time": 2361, "pitch": 34, "duration": 21, "velocity": 117}, {"time": 2361, "pitch": 46, "duration": 21, "velocity": 117}, {"time": 2361, "pitch": 58, "duration": 21, "velocity": 122}, {"time": 2361, "pitch": 61, "duration": 21, "velocity": 107}, {"time": 2361, "pitch": 65, "duration": 22, "velocity": 107}, {"time": 2385, "pitch": 46, "duration": 9, "velocity": 99}, {"time": 2391, "pitch": 58, "duration": 3, "velocity": 100}, {"time": 2391, "pitch": 61, "duration": 3, "velocity": 86}, {"time": 2391, "pitch": 65, "duration": 3, "velocity": 73}, {"time": 2397, "pitch": 53, "duration": 9, "velocity": 66}, {"time": 2403, "pitch": 58, "duration": 2, "velocity": 107}, {"time": 2403, "pitch": 61, "duration": 3, "velocity": 96}, {"time": 2403, "pitch": 65, "duration": 3, "velocity": 76}, {"time": 2409, "pitch": 46, "duration": 11, "velocity": 96}, {"time": 2415, "pitch": 58, "duration": 9, "velocity": 107}, {"time": 2415, "pitch": 61, "duration": 9, "velocity": 95}, {"time": 2415, "pitch": 65, "duration": 9, "velocity": 78}, {"time": 2421, "pitch": 53, "duration": 10, "velocity": 56}, {"time": 2427, "pitch": 58, "duration": 2, "velocity": 100}, {"time": 2427, "pitch": 61, "duration": 3, "velocity": 100}, {"time": 2433, "pitch": 44, "duration": 10, "velocity": 52}, {"time": 2439, "pitch": 56, "duration": 7, "velocity": 92}, {"time": 2439, "pitch": 60, "duration": 6, "velocity": 99}, {"time": 2439, "pitch": 63, "duration": 6, "velocity": 97}, {"time": 2445, "pitch": 51, "duration": 12, "velocity": 82}, {"time": 2451, "pitch": 56, "duration": 2, "velocity": 96}, {"time": 2451, "pitch": 60, "duration": 1, "velocity": 100}, {"time": 2451, "pitch": 63, "duration": 2, "velocity": 96}, {"time": 2457, "pitch": 44, "duration": 11, "velocity": 40}, {"time": 2463, "pitch": 56, "duration": 8, "velocity": 93}, {"time": 2463, "pitch": 60, "duration": 8, "velocity": 112}, {"time": 2463, "pitch": 63, "duration": 8, "velocity": 95}, {"time": 2469, "pitch": 51, "duration": 10, "velocity": 88}, {"time": 2475, "pitch": 56, "duration": 3, "velocity": 96}, {"time": 2475, "pitch": 60, "duration": 1, "velocity": 93}, {"time": 2475, "pitch": 63, "duration": 2, "velocity": 85}, {"time": 2481, "pitch": 42, "duration": 12, "velocity": 79}, {"time": 2487, "pitch": 58, "duration": 8, "velocity": 100}, {"time": 2487, "pitch": 61, "duration": 8, "velocity": 97}, {"time": 2493, "pitch": 54, "duration": 9, "velocity": 61}, {"time": 2499, "pitch": 58, "duration": 2, "velocity": 112}, {"time": 2499, "pitch": 61, "duration": 2, "velocity": 107}, {"time": 2499, "pitch": 66, "duration": 2, "velocity": 95}, {"time": 2505, "pitch": 42, "duration": 10, "velocity": 71}, {"time": 2511, "pitch": 58, "duration": 9, "velocity": 112}, {"time": 2511, "pitch": 61, "duration": 9, "velocity": 97}, {"time": 2511, "pitch": 66, "duration": 9, "velocity": 81}, {"time": 2517, "pitch": 42, "duration": 9, "velocity": 56}, {"time": 2523, "pitch": 58, "duration": 2, "velocity": 122}, {"time": 2523, "pitch": 61, "duration": 2, "velocity": 102}, {"time": 2523, "pitch": 66, "duration": 1, "velocity": 78}, {"time": 2529, "pitch": 41, "duration": 11, "velocity": 71}, {"time": 2535, "pitch": 53, "duration": 8, "velocity": 90}, {"time": 2535, "pitch": 57, "duration": 8, "velocity": 97}, {"time": 2535, "pitch": 60, "duration": 8, "velocity": 93}, {"time": 2541, "pitch": 48, "duration": 9, "velocity": 69}, {"time": 2547, "pitch": 53, "duration": 2, "velocity": 90}, {"time": 2547, "pitch": 57, "duration": 2, "velocity": 92}, {"time": 2547, "pitch": 60, "duration": 2, "velocity": 89}, {"time": 2553, "pitch": 41, "duration": 10, "velocity": 78}, {"time": 2559, "pitch": 53, "duration": 9, "velocity": 88}, {"time": 2559, "pitch": 57, "duration": 9, "velocity": 92}, {"time": 2559, "pitch": 60, "duration": 9, "velocity": 88}, {"time": 2565, "pitch": 48, "duration": 10, "velocity": 76}, {"time": 2571, "pitch": 53, "duration": 2, "velocity": 90}, {"time": 2571, "pitch": 57, "duration": 1, "velocity": 83}, {"time": 2571, "pitch": 60, "duration": 1, "velocity": 76}, {"time": 2577, "pitch": 46, "duration": 13, "velocity": 86}, {"time": 2583, "pitch": 58, "duration": 7, "velocity": 93}, {"time": 2583, "pitch": 61, "duration": 7, "velocity": 93}, {"time": 2583, "pitch": 65, "duration": 7, "velocity": 85}, {"time": 2589, "pitch": 53, "duration": 8, "velocity": 88}, {"time": 2595, "pitch": 58, "duration": 2, "velocity": 112}, {"time": 2595, "pitch": 61, "duration": 2, "velocity": 96}, {"time": 2595, "pitch": 65, "duration": 2, "velocity": 54}, {"time": 2601, "pitch": 46, "duration": 12, "velocity": 92}, {"time": 2607, "pitch": 58, "duration": 8, "velocity": 107}, {"time": 2607, "pitch": 61, "duration": 8, "velocity": 99}, {"time": 2607, "pitch": 65, "duration": 8, "velocity": 85}, {"time": 2613, "pitch": 53, "duration": 9, "velocity": 72}, {"time": 2619, "pitch": 58, "duration": 2, "velocity": 107}, {"time": 2619, "pitch": 61, "duration": 3, "velocity": 100}, {"time": 2619, "pitch": 65, "duration": 2, "velocity": 73}, {"time": 2625, "pitch": 46, "duration": 11, "velocity": 92}, {"time": 2631, "pitch": 58, "duration": 7, "velocity": 102}, {"time": 2631, "pitch": 61, "duration": 8, "velocity": 92}, {"time": 2631, "pitch": 65, "duration": 8, "velocity": 90}, {"time": 2637, "pitch": 53, "duration": 9, "velocity": 68}, {"time": 2643, "pitch": 58, "duration": 2, "velocity": 112}, {"time": 2643, "pitch": 61, "duration": 3, "velocity": 107}, {"time": 2643, "pitch": 65, "duration": 2, "velocity": 93}, {"time": 2649, "pitch": 46, "duration": 12, "velocity": 77}, {"time": 2655, "pitch": 58, "duration": 8, "velocity": 122}, {"time": 2655, "pitch": 61, "duration": 8, "velocity": 102}, {"time": 2655, "pitch": 65, "duration": 8, "velocity": 95}, {"time": 2661, "pitch": 53, "duration": 7, "velocity": 71}, {"time": 2667, "pitch": 58, "duration": 2, "velocity": 112}, {"time": 2667, "pitch": 61, "duration": 2, "velocity": 112}, {"time": 2667, "pitch": 65, "duration": 1, "velocity": 74}, {"time": 2673, "pitch": 46, "duration": 10, "velocity": 90}, {"time": 2679, "pitch": 58, "duration": 3, "velocity": 97}, {"time": 2679, "pitch": 61, "duration": 4, "velocity": 90}, {"time": 2679, "pitch": 65, "duration": 3, "velocity": 78}, {"time": 2685, "pitch": 53, "duration": 9, "velocity": 71}, {"time": 2691, "pitch": 58, "duration": 2, "velocity": 102}, {"time": 2691, "pitch": 61, "duration": 2, "velocity": 99}, {"time": 2691, "pitch": 65, "duration": 1, "velocity": 69}, {"time": 2697, "pitch": 46, "duration": 12, "velocity": 81}, {"time": 2703, "pitch": 58, "duration": 7, "velocity": 97}, {"time": 2703, "pitch": 61, "duration": 8, "velocity": 85}, {"time": 2703, "pitch": 65, "duration": 7, "velocity": 63}, {"time": 2709, "pitch": 53, "duration": 9, "velocity": 71}, {"time": 2715, "pitch": 58, "duration": 2, "velocity": 100}, {"time": 2715, "pitch": 61, "duration": 2, "velocity": 90}, {"time": 2715, "pitch": 65, "duration": 2, "velocity": 71}, {"time": 2721, "pitch": 46, "duration": 13, "velocity": 77}, {"time": 2727, "pitch": 58, "duration": 7, "velocity": 97}, {"time": 2727, "pitch": 61, "duration": 7, "velocity": 82}, {"time": 2727, "pitch": 65, "duration": 7, "velocity": 81}, {"time": 2733, "pitch": 53, "duration": 9, "velocity": 70}, {"time": 2739, "pitch": 58, "duration": 2, "velocity": 99}, {"time": 2739, "pitch": 61, "duration": 2, "velocity": 95}, {"time": 2739, "pitch": 65, "duration": 1, "velocity": 63}, {"time": 2745, "pitch": 46, "duration": 14, "velocity": 78}, {"time": 2751, "pitch": 58, "duration": 8, "velocity": 92}, {"time": 2751, "pitch": 61, "duration": 8, "velocity": 83}, {"time": 2751, "pitch": 65, "duration": 8, "velocity": 73}, {"time": 2757, "pitch": 53, "duration": 7, "velocity": 76}, {"time": 2763, "pitch": 58, "duration": 2, "velocity": 99}, {"time": 2763, "pitch": 61, "duration": 2, "velocity": 89}, {"time": 2763, "pitch": 65, "duration": 2, "velocity": 66}, {"time": 2769, "pitch": 46, "duration": 11, "velocity": 73}, {"time": 2775, "pitch": 58, "duration": 7, "velocity": 89}, {"time": 2775, "pitch": 61, "duration": 7, "velocity": 85}, {"time": 2775, "pitch": 65, "duration": 7, "velocity": 76}, {"time": 2781, "pitch": 53, "duration": 9, "velocity": 67}, {"time": 2787, "pitch": 58, "duration": 2, "velocity": 100}, {"time": 2787, "pitch": 61, "duration": 2, "velocity": 90}, {"time": 2787, "pitch": 65, "duration": 2, "velocity": 78}, {"time": 2793, "pitch": 46, "duration": 16, "velocity": 88}, {"time": 2799, "pitch": 58, "duration": 8, "velocity": 97}, {"time": 2799, "pitch": 61, "duration": 9, "velocity": 86}, {"time": 2799, "pitch": 65, "duration": 8, "velocity": 74}, {"time": 2805, "pitch": 53, "duration": 9, "velocity": 69}, {"time": 2811, "pitch": 58, "duration": 2, "velocity": 107}, {"time": 2811, "pitch": 61, "duration": 2, "velocity": 88}, {"time": 2817, "pitch": 39, "duration": 11, "velocity": 85}, {"time": 2823, "pitch": 54, "duration": 7, "velocity": 93}, {"time": 2823, "pitch": 58, "duration": 7, "velocity": 97}, {"time": 2823, "pitch": 63, "duration": 7, "velocity": 92}, {"time": 2829, "pitch": 46, "duration": 8, "velocity": 69}, {"time": 2835, "pitch": 54, "duration": 2, "velocity": 96}, {"time": 2835, "pitch": 58, "duration": 1, "velocity": 107}, {"time": 2835, "pitch": 63, "duration": 1, "velocity": 96}, {"time": 2841, "pitch": 39, "duration": 10, "velocity": 75}, {"time": 2847, "pitch": 54, "duration": 8, "velocity": 95}, {"time": 2847, "pitch": 58, "duration": 8, "velocity": 102}, {"time": 2847, "pitch": 63, "duration": 8, "velocity": 93}, {"time": 2853, "pitch": 46, "duration": 9, "velocity": 81}, {"time": 2859, "pitch": 54, "duration": 2, "velocity": 90}, {"time": 2859, "pitch": 58, "duration": 2, "velocity": 99}, {"time": 2859, "pitch": 63, "duration": 1, "velocity": 86}, {"time": 2865, "pitch": 39, "duration": 11, "velocity": 89}, {"time": 2871, "pitch": 54, "duration": 7, "velocity": 90}, {"time": 2871, "pitch": 58, "duration": 7, "velocity": 95}, {"time": 2871, "pitch": 63, "duration": 7, "velocity": 92}, {"time": 2877, "pitch": 46, "duration": 8, "velocity": 93}, {"time": 2883, "pitch": 54, "duration": 2, "velocity": 92}, {"time": 2883, "pitch": 58, "duration": 1, "velocity": 93}, {"time": 2883, "pitch": 63, "duration": 1, "velocity": 78}, {"time": 2889, "pitch": 39, "duration": 16, "velocity": 86}, {"time": 2895, "pitch": 54, "duration": 8, "velocity": 93}, {"time": 2895, "pitch": 58, "duration": 8, "velocity": 95}, {"time": 2895, "pitch": 63, "duration": 7, "velocity": 79}, {"time": 2901, "pitch": 46, "duration": 8, "velocity": 93}, {"time": 2907, "pitch": 54, "duration": 2, "velocity": 97}, {"time": 2907, "pitch": 58, "duration": 1, "velocity": 92}, {"time": 2907, "pitch": 63, "duration": 1, "velocity": 82}, {"time": 2913, "pitch": 44, "duration": 11, "velocity": 73}, {"time": 2919, "pitch": 56, "duration": 8, "velocity": 88}, {"time": 2919, "pitch": 60, "duration": 7, "velocity": 93}, {"time": 2919, "pitch": 63, "duration": 7, "velocity": 93}, {"time": 2925, "pitch": 51, "duration": 8, "velocity": 75}, {"time": 2931, "pitch": 56, "duration": 2, "velocity": 92}, {"time": 2931, "pitch": 60, "duration": 1, "velocity": 93}, {"time": 2931, "pitch": 63, "duration": 2, "velocity": 85}, {"time": 2937, "pitch": 46, "duration": 11, "velocity": 96}, {"time": 2943, "pitch": 58, "duration": 7, "velocity": 100}, {"time": 2943, "pitch": 61, "duration": 6, "velocity": 97}, {"time": 2949, "pitch": 53, "duration": 9, "velocity": 69}, {"time": 2955, "pitch": 58, "duration": 3, "velocity": 99}, {"time": 2955, "pitch": 61, "duration": 3, "velocity": 100}, {"time": 2955, "pitch": 65, "duration": 2, "velocity": 74}, {"time": 2961, "pitch": 48, "duration": 9, "velocity": 95}, {"time": 2967, "pitch": 60, "duration": 2, "velocity": 82}, {"time": 2967, "pitch": 63, "duration": 2, "velocity": 107}, {"time": 2967, "pitch": 66, "duration": 3, "velocity": 100}, {"time": 2979, "pitch": 60, "duration": 2, "velocity": 83}, {"time": 2979, "pitch": 63, "duration": 2, "velocity": 102}, {"time": 2979, "pitch": 66, "duration": 2, "velocity": 102}, {"time": 2985, "pitch": 48, "duration": 12, "velocity": 78}, {"time": 2991, "pitch": 60, "duration": 8, "velocity": 81}, {"time": 2991, "pitch": 63, "duration": 8, "velocity": 102}, {"time": 2991, "pitch": 66, "duration": 8, "velocity": 97}, {"time": 3003, "pitch": 60, "duration": 2, "velocity": 83}, {"time": 3003, "pitch": 63, "duration": 1, "velocity": 107}, {"time": 3003, "pitch": 66, "duration": 2, "velocity": 97}, {"time": 3009, "pitch": 41, "duration": 2, "velocity": 62}, {"time": 3009, "pitch": 53, "duration": 2, "velocity": 85}, {"time": 3009, "pitch": 60, "duration": 2, "velocity": 90}, {"time": 3009, "pitch": 65, "duration": 2, "velocity": 96}, {"time": 3009, "pitch": 69, "duration": 2, "velocity": 92}, {"time": 3015, "pitch": 41, "duration": 2, "velocity": 60}, {"time": 3015, "pitch": 53, "duration": 2, "velocity": 89}, {"time": 3015, "pitch": 60, "duration": 2, "velocity": 82}, {"time": 3015, "pitch": 65, "duration": 1, "velocity": 90}, {"time": 3015, "pitch": 69, "duration": 1, "velocity": 83}, {"time": 3021, "pitch": 41, "duration": 2, "velocity": 64}, {"time": 3021, "pitch": 53, "duration": 2, "velocity": 97}, {"time": 3021, "pitch": 60, "duration": 2, "velocity": 97}, {"time": 3021, "pitch": 65, "duration": 1, "velocity": 96}, {"time": 3021, "pitch": 69, "duration": 2, "velocity": 89}, {"time": 3027, "pitch": 41, "duration": 2, "velocity": 66}, {"time": 3027, "pitch": 53, "duration": 1, "velocity": 99}, {"time": 3027, "pitch": 60, "duration": 1, "velocity": 96}, {"time": 3027, "pitch": 65, "duration": 1, "velocity": 93}, {"time": 3027, "pitch": 69, "duration": 1, "velocity": 95}, {"time": 3030, "pitch": 41, "duration": 2, "velocity": 67}, {"time": 3030, "pitch": 53, "duration": 1, "velocity": 82}, {"time": 3030, "pitch": 60, "duration": 1, "velocity": 92}, {"time": 3030, "pitch": 65, "duration": 1, "velocity": 95}, {"time": 3030, "pitch": 69, "duration": 1, "velocity": 82}, {"time": 3033, "pitch": 41, "duration": 2, "velocity": 79}, {"time": 3033, "pitch": 53, "duration": 2, "velocity": 112}, {"time": 3033, "pitch": 60, "duration": 2, "velocity": 100}, {"time": 3033, "pitch": 65, "duration": 2, "velocity": 100}, {"time": 3033, "pitch": 69, "duration": 3, "velocity": 90}, {"time": 3057, "pitch": 46, "duration": 10, "velocity": 90}, {"time": 3063, "pitch": 58, "duration": 3, "velocity": 97}, {"time": 3063, "pitch": 61, "duration": 4, "velocity": 90}, {"time": 3063, "pitch": 65, "duration": 3, "velocity": 78}, {"time": 3069, "pitch": 53, "duration": 9, "velocity": 71}, {"time": 3075, "pitch": 58, "duration": 2, "velocity": 102}, {"time": 3075, "pitch": 61, "duration": 2, "velocity": 99}, {"time": 3075, "pitch": 65, "duration": 1, "velocity": 69}, {"time": 3081, "pitch": 46, "duration": 12, "velocity": 81}, {"time": 3087, "pitch": 58, "duration": 7, "velocity": 97}, {"time": 3087, "pitch": 61, "duration": 8, "velocity": 85}, {"time": 3087, "pitch": 65, "duration": 7, "velocity": 63}, {"time": 3093, "pitch": 53, "duration": 9, "velocity": 71}, {"time": 3099, "pitch": 58, "duration": 2, "velocity": 100}, {"time": 3099, "pitch": 61, "duration": 2, "velocity": 90}, {"time": 3099, "pitch": 65, "duration": 2, "velocity": 71}, {"time": 3105, "pitch": 46, "duration": 13, "velocity": 77}, {"time": 3111, "pitch": 58, "duration": 7, "velocity": 97}, {"time": 3111, "pitch": 61, "duration": 7, "velocity": 82}, {"time": 3111, "pitch": 65, "duration": 7, "velocity": 81}, {"time": 3117, "pitch": 53, "duration": 9, "velocity": 70}, {"time": 3123, "pitch": 58, "duration": 2, "velocity": 99}, {"time": 3123, "pitch": 61, "duration": 2, "velocity": 95}, {"time": 3123, "pitch": 65, "duration": 1, "velocity": 63}, {"time": 3129, "pitch": 46, "duration": 14, "velocity": 78}, {"time": 3135, "pitch": 58, "duration": 8, "velocity": 92}, {"time": 3135, "pitch": 61, "duration": 8, "velocity": 83}, {"time": 3135, "pitch": 65, "duration": 8, "velocity": 73}, {"time": 3141, "pitch": 53, "duration": 7, "velocity": 76}, {"time": 3147, "pitch": 58, "duration": 2, "velocity": 99}, {"time": 3147, "pitch": 61, "duration": 2, "velocity": 89}, {"time": 3147, "pitch": 65, "duration": 2, "velocity": 66}, {"time": 3153, "pitch": 46, "duration": 11, "velocity": 73}, {"time": 3159, "pitch": 58, "duration": 7, "velocity": 89}, {"time": 3159, "pitch": 61, "duration": 7, "velocity": 85}, {"time": 3159, "pitch": 65, "duration": 7, "velocity": 76}, {"time": 3165, "pitch": 53, "duration": 9, "velocity": 67}, {"time": 3171, "pitch": 58, "duration": 2, "velocity": 100}, {"time": 3171, "pitch": 61, "duration": 2, "velocity": 90}, {"time": 3171, "pitch": 65, "duration": 2, "velocity": 78}, {"time": 3177, "pitch": 46, "duration": 16, "velocity": 88}, {"time": 3183, "pitch": 58, "duration": 8, "velocity": 97}, {"time": 3183, "pitch": 61, "duration": 9, "velocity": 86}, {"time": 3183, "pitch": 65, "duration": 8, "velocity": 74}, {"time": 3189, "pitch": 53, "duration": 9, "velocity": 69}, {"time": 3195, "pitch": 58, "duration": 2, "velocity": 107}, {"time": 3195, "pitch": 61, "duration": 2, "velocity": 88}, {"time": 3201, "pitch": 39, "duration": 11, "velocity": 85}, {"time": 3207, "pitch": 54, "duration": 7, "velocity": 93}, {"time": 3207, "pitch": 58, "duration": 7, "velocity": 97}, {"time": 3207, "pitch": 63, "duration": 7, "velocity": 92}, {"time": 3213, "pitch": 46, "duration": 8, "velocity": 69}, {"time": 3219, "pitch": 54, "duration": 2, "velocity": 96}, {"time": 3219, "pitch": 58, "duration": 1, "velocity": 107}, {"time": 3219, "pitch": 63, "duration": 1, "velocity": 96}, {"time": 3225, "pitch": 39, "duration": 10, "velocity": 75}, {"time": 3231, "pitch": 54, "duration": 8, "velocity": 95}, {"time": 3231, "pitch": 58, "duration": 8, "velocity": 102}, {"time": 3231, "pitch": 63, "duration": 8, "velocity": 93}, {"time": 3237, "pitch": 46, "duration": 9, "velocity": 81}, {"time": 3243, "pitch": 54, "duration": 2, "velocity": 90}, {"time": 3243, "pitch": 58, "duration": 2, "velocity": 99}, {"time": 3243, "pitch": 63, "duration": 1, "velocity": 86}, {"time": 3249, "pitch": 39, "duration": 11, "velocity": 89}, {"time": 3255, "pitch": 54, "duration": 7, "velocity": 90}, {"time": 3255, "pitch": 58, "duration": 7, "velocity": 95}, {"time": 3255, "pitch": 63, "duration": 7, "velocity": 92}, {"time": 3261, "pitch": 46, "duration": 8, "velocity": 93}, {"time": 3267, "pitch": 54, "duration": 2, "velocity": 92}, {"time": 3267, "pitch": 58, "duration": 1, "velocity": 93}, {"time": 3267, "pitch": 63, "duration": 1, "velocity": 78}, {"time": 3273, "pitch": 39, "duration": 16, "velocity": 86}, {"time": 3279, "pitch": 54, "duration": 8, "velocity": 93}, {"time": 3279, "pitch": 58, "duration": 8, "velocity": 95}, {"time": 3279, "pitch": 63, "duration": 7, "velocity": 79}, {"time": 3285, "pitch": 46, "duration": 8, "velocity": 93}, {"time": 3291, "pitch": 54, "duration": 2, "velocity": 97}, {"time": 3291, "pitch": 58, "duration": 1, "velocity": 92}, {"time": 3291, "pitch": 63, "duration": 1, "velocity": 82}, {"time": 3297, "pitch": 44, "duration": 11, "velocity": 73}, {"time": 3303, "pitch": 56, "duration": 8, "velocity": 88}, {"time": 3303, "pitch": 60, "duration": 7, "velocity": 93}, {"time": 3303, "pitch": 63, "duration": 7, "velocity": 93}, {"time": 3309, "pitch": 51, "duration": 8, "velocity": 75}, {"time": 3315, "pitch": 56, "duration": 2, "velocity": 92}, {"time": 3315, "pitch": 60, "duration": 1, "velocity": 93}, {"time": 3315, "pitch": 63, "duration": 2, "velocity": 85}, {"time": 3321, "pitch": 46, "duration": 11, "velocity": 96}, {"time": 3327, "pitch": 58, "duration": 7, "velocity": 100}, {"time": 3327, "pitch": 61, "duration": 6, "velocity": 97}, {"time": 3333, "pitch": 53, "duration": 9, "velocity": 69}, {"time": 3339, "pitch": 58, "duration": 3, "velocity": 99}, {"time": 3339, "pitch": 61, "duration": 3, "velocity": 100}, {"time": 3339, "pitch": 65, "duration": 2, "velocity": 74}, {"time": 3345, "pitch": 48, "duration": 8, "velocity": 88}, {"time": 3351, "pitch": 60, "duration": 2, "velocity": 86}, {"time": 3351, "pitch": 63, "duration": 2, "velocity": 102}, {"time": 3351, "pitch": 66, "duration": 2, "velocity": 100}, {"time": 3363, "pitch": 60, "duration": 2, "velocity": 86}, {"time": 3363, "pitch": 63, "duration": 2, "velocity": 100}, {"time": 3363, "pitch": 66, "duration": 3, "velocity": 97}, {"time": 3369, "pitch": 41, "duration": 8, "velocity": 90}, {"time": 3375, "pitch": 60, "duration": 2, "velocity": 88}, {"time": 3375, "pitch": 65, "duration": 2, "velocity": 95}, {"time": 3375, "pitch": 68, "duration": 2, "velocity": 100}, {"time": 3381, "pitch": 48, "duration": 8, "velocity": 79}, {"time": 3387, "pitch": 60, "duration": 2, "velocity": 96}, {"time": 3387, "pitch": 65, "duration": 3, "velocity": 99}, {"time": 3387, "pitch": 68, "duration": 2, "velocity": 102}, {"time": 3393, "pitch": 46, "duration": 8, "velocity": 122}, {"time": 3399, "pitch": 58, "duration": 2, "velocity": 97}, {"time": 3399, "pitch": 61, "duration": 2, "velocity": 95}, {"time": 3399, "pitch": 65, "duration": 1, "velocity": 61}, {"time": 3405, "pitch": 53, "duration": 10, "velocity": 69}, {"time": 3411, "pitch": 58, "duration": 2, "velocity": 99}, {"time": 3411, "pitch": 61, "duration": 2, "velocity": 112}, {"time": 3411, "pitch": 65, "duration": 1, "velocity": 73}, {"time": 3417, "pitch": 46, "duration": 11, "velocity": 76}, {"time": 3423, "pitch": 58, "duration": 9, "velocity": 99}, {"time": 3423, "pitch": 61, "duration": 9, "velocity": 112}, {"time": 3423, "pitch": 65, "duration": 8, "velocity": 70}, {"time": 3429, "pitch": 53, "duration": 9, "velocity": 75}, {"time": 3435, "pitch": 58, "duration": 3, "velocity": 97}, {"time": 3435, "pitch": 61, "duration": 2, "velocity": 117}, {"time": 3435, "pitch": 65, "duration": 1, "velocity": 78}, {"time": 3441, "pitch": 46, "duration": 10, "velocity": 102}, {"time": 3441, "pitch": 34, "duration": 10, "velocity": 102}, {"time": 3447, "pitch": 58, "duration": 7, "velocity": 100}, {"time": 3447, "pitch": 61, "duration": 7, "velocity": 117}, {"time": 3447, "pitch": 65, "duration": 6, "velocity": 82}, {"time": 3453, "pitch": 41, "duration": 8, "velocity": 73}, {"time": 3453, "pitch": 53, "duration": 8, "velocity": 73}, {"time": 3459, "pitch": 58, "duration": 2, "velocity": 100}, {"time": 3459, "pitch": 61, "duration": 2, "velocity": 112}, {"time": 3465, "pitch": 46, "duration": 10, "velocity": 99}, {"time": 3465, "pitch": 34, "duration": 10, "velocity": 99}, {"time": 3471, "pitch": 58, "duration": 8, "velocity": 112}, {"time": 3471, "pitch": 61, "duration": 8, "velocity": 127}, {"time": 3471, "pitch": 65, "duration": 7, "velocity": 81}, {"time": 3477, "pitch": 41, "duration": 7, "velocity": 89}, {"time": 3477, "pitch": 53, "duration": 7, "velocity": 89}, {"time": 3483, "pitch": 58, "duration": 2, "velocity": 112}, {"time": 3483, "pitch": 61, "duration": 1, "velocity": 127}, {"time": 3483, "pitch": 65, "duration": 1, "velocity": 68}, {"time": 3489, "pitch": 46, "duration": 8, "velocity": 107}, {"time": 3489, "pitch": 34, "duration": 8, "velocity": 107}, {"time": 3495, "pitch": 58, "duration": 1, "velocity": 127}, {"time": 3495, "pitch": 61, "duration": 1, "velocity": 127}, {"time": 3495, "pitch": 65, "duration": 1, "velocity": 77}, {"time": 3498, "pitch": 58, "duration": 2, "velocity": 60}, {"time": 3498, "pitch": 61, "duration": 2, "velocity": 69}, {"time": 3498, "pitch": 65, "duration": 1, "velocity": 51}, {"time": 3501, "pitch": 41, "duration": 8, "velocity": 89}, {"time": 3501, "pitch": 53, "duration": 8, "velocity": 89}, {"time": 3507, "pitch": 58, "duration": 2, "velocity": 122}, {"time": 3507, "pitch": 61, "duration": 1, "velocity": 122}, {"time": 3507, "pitch": 65, "duration": 1, "velocity": 47}, {"time": 3513, "pitch": 46, "duration": 11, "velocity": 86}, {"time": 3513, "pitch": 34, "duration": 11, "velocity": 86}, {"time": 3519, "pitch": 58, "duration": 8, "velocity": 117}, {"time": 3519, "pitch": 61, "duration": 8, "velocity": 127}, {"time": 3519, "pitch": 65, "duration": 7, "velocity": 93}, {"time": 3525, "pitch": 41, "duration": 7, "velocity": 81}, {"time": 3525, "pitch": 53, "duration": 7, "velocity": 81}, {"time": 3531, "pitch": 58, "duration": 2, "velocity": 122}, {"time": 3531, "pitch": 61, "duration": 1, "velocity": 127}, {"time": 3531, "pitch": 65, "duration": 1, "velocity": 88}, {"time": 3537, "pitch": 51, "duration": 9, "velocity": 117}, {"time": 3537, "pitch": 39, "duration": 9, "velocity": 117}, {"time": 3543, "pitch": 63, "duration": 8, "velocity": 127}, {"time": 3543, "pitch": 66, "duration": 8, "velocity": 127}, {"time": 3543, "pitch": 70, "duration": 8, "velocity": 127}, {"time": 3549, "pitch": 39, "duration": 8, "velocity": 97}, {"time": 3549, "pitch": 51, "duration": 8, "velocity": 97}, {"time": 3555, "pitch": 63, "duration": 3, "velocity": 112}, {"time": 3555, "pitch": 66, "duration": 1, "velocity": 127}, {"time": 3555, "pitch": 70, "duration": 3, "velocity": 107}, {"time": 3561, "pitch": 47, "duration": 8, "velocity": 78}, {"time": 3561, "pitch": 35, "duration": 8, "velocity": 78}, {"time": 3567, "pitch": 59, "duration": 2, "velocity": 97}, {"time": 3567, "pitch": 63, "duration": 1, "velocity": 122}, {"time": 3567, "pitch": 66, "duration": 1, "velocity": 117}, {"time": 3570, "pitch": 59, "duration": 3, "velocity": 76}, {"time": 3570, "pitch": 63, "duration": 4, "velocity": 92}, {"time": 3570, "pitch": 66, "duration": 4, "velocity": 92}, {"time": 3573, "pitch": 54, "duration": 5, "velocity": 85}, {"time": 3573, "pitch": 42, "duration": 4, "velocity": 85}, {"time": 3579, "pitch": 59, "duration": 2, "velocity": 112}, {"time": 3579, "pitch": 63, "duration": 1, "velocity": 127}, {"time": 3579, "pitch": 66, "duration": 2, "velocity": 127}, {"time": 3585, "pitch": 44, "duration": 7, "velocity": 90}, {"time": 3585, "pitch": 60, "duration": 2, "velocity": 40}, {"time": 3585, "pitch": 32, "duration": 7, "velocity": 90}, {"time": 3591, "pitch": 56, "duration": 6, "velocity": 112}, {"time": 3591, "pitch": 60, "duration": 2, "velocity": 117}, {"time": 3591, "pitch": 63, "duration": 2, "velocity": 122}, {"time": 3594, "pitch": 60, "duration": 3, "velocity": 76}, {"time": 3594, "pitch": 63, "duration": 3, "velocity": 71}, {"time": 3597, "pitch": 39, "duration": 9, "velocity": 92}, {"time": 3597, "pitch": 51, "duration": 10, "velocity": 92}, {"time": 3603, "pitch": 56, "duration": 2, "velocity": 102}, {"time": 3603, "pitch": 60, "duration": 2, "velocity": 99}, {"time": 3603, "pitch": 63, "duration": 2, "velocity": 100}, {"time": 3609, "pitch": 44, "duration": 9, "velocity": 83}, {"time": 3609, "pitch": 32, "duration": 9, "velocity": 83}, {"time": 3615, "pitch": 56, "duration": 3, "velocity": 112}, {"time": 3615, "pitch": 60, "duration": 2, "velocity": 127}, {"time": 3615, "pitch": 63, "duration": 3, "velocity": 122}, {"time": 3621, "pitch": 39, "duration": 4, "velocity": 99}, {"time": 3621, "pitch": 51, "duration": 4, "velocity": 99}, {"time": 3621, "pitch": 56, "duration": 3, "velocity": 112}, {"time": 3621, "pitch": 60, "duration": 2, "velocity": 117}, {"time": 3621, "pitch": 63, "duration": 3, "velocity": 117}, {"time": 3627, "pitch": 56, "duration": 2, "velocity": 117}, {"time": 3627, "pitch": 60, "duration": 2, "velocity": 127}, {"time": 3627, "pitch": 63, "duration": 3, "velocity": 127}, {"time": 3633, "pitch": 51, "duration": 7, "velocity": 112}, {"time": 3633, "pitch": 39, "duration": 7, "velocity": 112}, {"time": 3639, "pitch": 63, "duration": 2, "velocity": 112}, {"time": 3639, "pitch": 66, "duration": 1, "velocity": 127}, {"time": 3639, "pitch": 70, "duration": 1, "velocity": 112}, {"time": 3642, "pitch": 63, "duration": 3, "velocity": 64}, {"time": 3642, "pitch": 66, "duration": 3, "velocity": 71}, {"time": 3642, "pitch": 70, "duration": 3, "velocity": 41}, {"time": 3645, "pitch": 58, "duration": 11, "velocity": 82}, {"time": 3651, "pitch": 63, "duration": 2, "velocity": 112}, {"time": 3651, "pitch": 66, "duration": 1, "velocity": 127}, {"time": 3651, "pitch": 70, "duration": 2, "velocity": 107}, {"time": 3657, "pitch": 39, "duration": 10, "velocity": 82}, {"time": 3657, "pitch": 51, "duration": 10, "velocity": 82}, {"time": 3663, "pitch": 63, "duration": 2, "velocity": 117}, {"time": 3663, "pitch": 66, "duration": 1, "velocity": 127}, {"time": 3663, "pitch": 70, "duration": 2, "velocity": 117}, {"time": 3669, "pitch": 42, "duration": 6, "velocity": 59}, {"time": 3669, "pitch": 54, "duration": 6, "velocity": 59}, {"time": 3669, "pitch": 58, "duration": 6, "velocity": 99}, {"time": 3669, "pitch": 63, "duration": 2, "velocity": 102}, {"time": 3669, "pitch": 66, "duration": 2, "velocity": 127}, {"time": 3669, "pitch": 70, "duration": 3, "velocity": 107}, {"time": 3675, "pitch": 63, "duration": 3, "velocity": 122}, {"time": 3675, "pitch": 66, "duration": 2, "velocity": 127}, {"time": 3675, "pitch": 70, "duration": 2, "velocity": 107}, {"time": 3681, "pitch": 34, "duration": 11, "velocity": 78}, {"time": 3681, "pitch": 46, "duration": 11, "velocity": 78}, {"time": 3687, "pitch": 58, "duration": 8, "velocity": 112}, {"time": 3687, "pitch": 61, "duration": 7, "velocity": 127}, {"time": 3687, "pitch": 65, "duration": 8, "velocity": 99}, {"time": 3693, "pitch": 41, "duration": 9, "velocity": 64}, {"time": 3693, "pitch": 53, "duration": 9, "velocity": 64}, {"time": 3699, "pitch": 58, "duration": 2, "velocity": 107}, {"time": 3699, "pitch": 61, "duration": 2, "velocity": 127}, {"time": 3699, "pitch": 65, "duration": 2, "velocity": 96}, {"time": 3705, "pitch": 34, "duration": 11, "velocity": 107}, {"time": 3705, "pitch": 46, "duration": 11, "velocity": 107}, {"time": 3711, "pitch": 58, "duration": 1, "velocity": 99}, {"time": 3711, "pitch": 61, "duration": 3, "velocity": 117}, {"time": 3711, "pitch": 65, "duration": 2, "velocity": 76}, {"time": 3711, "pitch": 66, "duration": 1, "velocity": 55}, {"time": 3717, "pitch": 41, "duration": 9, "velocity": 75}, {"time": 3717, "pitch": 53, "duration": 9, "velocity": 75}, {"time": 3717, "pitch": 58, "duration": 3, "velocity": 102}, {"time": 3717, "pitch": 61, "duration": 2, "velocity": 117}, {"time": 3717, "pitch": 65, "duration": 2, "velocity": 75}, {"time": 3723, "pitch": 58, "duration": 4, "velocity": 112}, {"time": 3723, "pitch": 61, "duration": 2, "velocity": 127}, {"time": 3723, "pitch": 65, "duration": 1, "velocity": 71}, {"time": 3729, "pitch": 32, "duration": 8, "velocity": 97}, {"time": 3729, "pitch": 44, "duration": 8, "velocity": 97}, {"time": 3735, "pitch": 56, "duration": 7, "velocity": 102}, {"time": 3735, "pitch": 60, "duration": 7, "velocity": 122}, {"time": 3735, "pitch": 63, "duration": 7, "velocity": 97}, {"time": 3741, "pitch": 39, "duration": 9, "velocity": 100}, {"time": 3741, "pitch": 51, "duration": 9, "velocity": 100}, {"time": 3747, "pitch": 56, "duration": 2, "velocity": 100}, {"time": 3747, "pitch": 60, "duration": 1, "velocity": 117}, {"time": 3747, "pitch": 63, "duration": 2, "velocity": 100}, {"time": 3753, "pitch": 32, "duration": 9, "velocity": 88}, {"time": 3753, "pitch": 44, "duration": 9, "velocity": 88}, {"time": 3759, "pitch": 56, "duration": 2, "velocity": 102}, {"time": 3759, "pitch": 60, "duration": 2, "velocity": 117}, {"time": 3759, "pitch": 63, "duration": 3, "velocity": 122}, {"time": 3765, "pitch": 56, "duration": 3, "velocity": 99}, {"time": 3765, "pitch": 60, "duration": 2, "velocity": 122}, {"time": 3765, "pitch": 63, "duration": 3, "velocity": 96}, {"time": 3765, "pitch": 39, "duration": 9, "velocity": 97}, {"time": 3765, "pitch": 51, "duration": 9, "velocity": 97}, {"time": 3771, "pitch": 56, "duration": 2, "velocity": 107}, {"time": 3771, "pitch": 60, "duration": 2, "velocity": 127}, {"time": 3771, "pitch": 63, "duration": 3, "velocity": 112}, {"time": 3777, "pitch": 37, "duration": 10, "velocity": 90}, {"time": 3777, "pitch": 49, "duration": 10, "velocity": 90}, {"time": 3783, "pitch": 61, "duration": 7, "velocity": 102}, {"time": 3783, "pitch": 65, "duration": 6, "velocity": 122}, {"time": 3783, "pitch": 68, "duration": 7, "velocity": 117}, {"time": 3789, "pitch": 44, "duration": 4, "velocity": 85}, {"time": 3789, "pitch": 56, "duration": 4, "velocity": 85}, {"time": 3795, "pitch": 61, "duration": 3, "velocity": 102}, {"time": 3795, "pitch": 65, "duration": 2, "velocity": 122}, {"time": 3795, "pitch": 68, "duration": 3, "velocity": 112}, {"time": 3801, "pitch": 34, "duration": 9, "velocity": 96}, {"time": 3801, "pitch": 46, "duration": 9, "velocity": 96}, {"time": 3807, "pitch": 58, "duration": 9, "velocity": 127}, {"time": 3807, "pitch": 62, "duration": 8, "velocity": 100}, {"time": 3807, "pitch": 65, "duration": 9, "velocity": 102}, {"time": 3813, "pitch": 41, "duration": 7, "velocity": 78}, {"time": 3813, "pitch": 53, "duration": 7, "velocity": 78}, {"time": 3819, "pitch": 58, "duration": 2, "velocity": 127}, {"time": 3819, "pitch": 62, "duration": 1, "velocity": 102}, {"time": 3819, "pitch": 65, "duration": 1, "velocity": 82}, {"time": 3825, "pitch": 39, "duration": 5, "velocity": 96}, {"time": 3825, "pitch": 51, "duration": 5, "velocity": 96}, {"time": 3831, "pitch": 63, "duration": 7, "velocity": 102}, {"time": 3831, "pitch": 66, "duration": 1, "velocity": 127}, {"time": 3831, "pitch": 70, "duration": 8, "velocity": 100}, {"time": 3834, "pitch": 66, "duration": 5, "velocity": 68}, {"time": 3837, "pitch": 46, "duration": 9, "velocity": 90}, {"time": 3837, "pitch": 58, "duration": 9, "velocity": 90}, {"time": 3843, "pitch": 63, "duration": 2, "velocity": 107}, {"time": 3843, "pitch": 66, "duration": 1, "velocity": 127}, {"time": 3843, "pitch": 70, "duration": 1, "velocity": 122}, {"time": 3849, "pitch": 39, "duration": 8, "velocity": 93}, {"time": 3849, "pitch": 51, "duration": 8, "velocity": 93}, {"time": 3849, "pitch": 63, "duration": 1, "velocity": 68}, {"time": 3855, "pitch": 63, "duration": 1, "velocity": 117}, {"time": 3855, "pitch": 66, "duration": 1, "velocity": 127}, {"time": 3855, "pitch": 70, "duration": 1, "velocity": 122}, {"time": 3861, "pitch": 46, "duration": 5, "velocity": 112}, {"time": 3861, "pitch": 58, "duration": 5, "velocity": 112}, {"time": 3861, "pitch": 63, "duration": 2, "velocity": 100}, {"time": 3861, "pitch": 66, "duration": 2, "velocity": 127}, {"time": 3861, "pitch": 70, "duration": 2, "velocity": 96}, {"time": 3867, "pitch": 63, "duration": 2, "velocity": 107}, {"time": 3867, "pitch": 66, "duration": 1, "velocity": 127}, {"time": 3867, "pitch": 70, "duration": 1, "velocity": 117}, {"time": 3873, "pitch": 35, "duration": 6, "velocity": 96}, {"time": 3873, "pitch": 47, "duration": 6, "velocity": 96}, {"time": 3879, "pitch": 59, "duration": 8, "velocity": 96}, {"time": 3879, "pitch": 63, "duration": 8, "velocity": 122}, {"time": 3879, "pitch": 66, "duration": 8, "velocity": 112}, {"time": 3885, "pitch": 42, "duration": 6, "velocity": 92}, {"time": 3885, "pitch": 54, "duration": 6, "velocity": 92}, {"time": 3891, "pitch": 59, "duration": 2, "velocity": 95}, {"time": 3891, "pitch": 63, "duration": 2, "velocity": 112}, {"time": 3891, "pitch": 66, "duration": 2, "velocity": 99}, {"time": 3897, "pitch": 34, "duration": 10, "velocity": 93}, {"time": 3897, "pitch": 46, "duration": 10, "velocity": 93}, {"time": 3903, "pitch": 58, "duration": 2, "velocity": 127}, {"time": 3903, "pitch": 61, "duration": 3, "velocity": 107}, {"time": 3909, "pitch": 41, "duration": 8, "velocity": 56}, {"time": 3909, "pitch": 53, "duration": 8, "velocity": 56}, {"time": 3909, "pitch": 58, "duration": 3, "velocity": 107}, {"time": 3909, "pitch": 61, "duration": 3, "velocity": 96}, {"time": 3915, "pitch": 58, "duration": 3, "velocity": 107}, {"time": 3915, "pitch": 61, "duration": 3, "velocity": 102}, {"time": 3915, "pitch": 65, "duration": 3, "velocity": 96}, {"time": 3921, "pitch": 29, "duration": 12, "velocity": 80}, {"time": 3921, "pitch": 41, "duration": 12, "velocity": 80}, {"time": 3927, "pitch": 53, "duration": 8, "velocity": 92}, {"time": 3927, "pitch": 56, "duration": 8, "velocity": 107}, {"time": 3927, "pitch": 60, "duration": 8, "velocity": 96}, {"time": 3933, "pitch": 36, "duration": 9, "velocity": 67}, {"time": 3933, "pitch": 48, "duration": 9, "velocity": 67}, {"time": 3939, "pitch": 53, "duration": 2, "velocity": 90}, {"time": 3939, "pitch": 56, "duration": 2, "velocity": 99}, {"time": 3939, "pitch": 60, "duration": 2, "velocity": 92}, {"time": 3945, "pitch": 29, "duration": 13, "velocity": 61}, {"time": 3945, "pitch": 41, "duration": 13, "velocity": 61}, {"time": 3951, "pitch": 53, "duration": 8, "velocity": 97}, {"time": 3951, "pitch": 56, "duration": 8, "velocity": 127}, {"time": 3951, "pitch": 60, "duration": 8, "velocity": 102}, {"time": 3957, "pitch": 36, "duration": 8, "velocity": 89}, {"time": 3957, "pitch": 48, "duration": 8, "velocity": 89}, {"time": 3963, "pitch": 53, "duration": 2, "velocity": 100}, {"time": 3963, "pitch": 56, "duration": 2, "velocity": 112}, {"time": 3963, "pitch": 60, "duration": 1, "velocity": 88}, {"time": 3969, "pitch": 34, "duration": 9, "velocity": 97}, {"time": 3969, "pitch": 46, "duration": 9, "velocity": 97}, {"time": 3969, "pitch": 61, "duration": 1, "velocity": 36}, {"time": 3975, "pitch": 58, "duration": 8, "velocity": 127}, {"time": 3975, "pitch": 61, "duration": 8, "velocity": 107}, {"time": 3981, "pitch": 41, "duration": 8, "velocity": 59}, {"time": 3981, "pitch": 53, "duration": 8, "velocity": 59}, {"time": 3987, "pitch": 58, "duration": 2, "velocity": 117}, {"time": 3987, "pitch": 61, "duration": 3, "velocity": 112}, {"time": 3987, "pitch": 65, "duration": 2, "velocity": 96}, {"time": 3993, "pitch": 34, "duration": 9, "velocity": 96}, {"time": 3993, "pitch": 46, "duration": 9, "velocity": 96}, {"time": 3999, "pitch": 58, "duration": 2, "velocity": 127}, {"time": 3999, "pitch": 61, "duration": 2, "velocity": 112}, {"time": 3999, "pitch": 65, "duration": 2, "velocity": 90}, {"time": 4005, "pitch": 41, "duration": 6, "velocity": 86}, {"time": 4005, "pitch": 53, "duration": 6, "velocity": 86}, {"time": 4005, "pitch": 58, "duration": 2, "velocity": 102}, {"time": 4005, "pitch": 61, "duration": 2, "velocity": 95}, {"time": 4005, "pitch": 65, "duration": 2, "velocity": 89}, {"time": 4011, "pitch": 58, "duration": 1, "velocity": 127}, {"time": 4011, "pitch": 61, "duration": 2, "velocity": 117}, {"time": 4011, "pitch": 65, "duration": 1, "velocity": 81}, {"time": 4017, "pitch": 39, "duration": 9, "velocity": 102}, {"time": 4017, "pitch": 51, "duration": 9, "velocity": 102}, {"time": 4023, "pitch": 63, "duration": 8, "velocity": 100}, {"time": 4023, "pitch": 66, "duration": 8, "velocity": 127}, {"time": 4023, "pitch": 70, "duration": 8, "velocity": 112}, {"time": 4029, "pitch": 46, "duration": 8, "velocity": 86}, {"time": 4029, "pitch": 58, "duration": 8, "velocity": 86}, {"time": 4035, "pitch": 63, "duration": 2, "velocity": 107}, {"time": 4035, "pitch": 66, "duration": 1, "velocity": 127}, {"time": 4035, "pitch": 70, "duration": 1, "velocity": 117}, {"time": 4041, "pitch": 39, "duration": 7, "velocity": 72}, {"time": 4041, "pitch": 51, "duration": 7, "velocity": 72}, {"time": 4047, "pitch": 63, "duration": 1, "velocity": 112}, {"time": 4047, "pitch": 66, "duration": 1, "velocity": 127}, {"time": 4047, "pitch": 70, "duration": 1, "velocity": 107}, {"time": 4053, "pitch": 46, "duration": 7, "velocity": 90}, {"time": 4053, "pitch": 58, "duration": 7, "velocity": 90}, {"time": 4053, "pitch": 63, "duration": 2, "velocity": 96}, {"time": 4053, "pitch": 66, "duration": 1, "velocity": 117}, {"time": 4053, "pitch": 70, "duration": 1, "velocity": 93}, {"time": 4059, "pitch": 63, "duration": 2, "velocity": 127}, {"time": 4059, "pitch": 66, "duration": 1, "velocity": 127}, {"time": 4059, "pitch": 70, "duration": 1, "velocity": 107}, {"time": 4065, "pitch": 35, "duration": 9, "velocity": 74}, {"time": 4065, "pitch": 47, "duration": 9, "velocity": 74}, {"time": 4071, "pitch": 59, "duration": 8, "velocity": 100}, {"time": 4071, "pitch": 63, "duration": 8, "velocity": 127}, {"time": 4071, "pitch": 66, "duration": 8, "velocity": 127}, {"time": 4077, "pitch": 54, "duration": 7, "velocity": 83}, {"time": 4077, "pitch": 42, "duration": 7, "velocity": 83}, {"time": 4083, "pitch": 59, "duration": 2, "velocity": 97}, {"time": 4083, "pitch": 63, "duration": 2, "velocity": 127}, {"time": 4083, "pitch": 66, "duration": 1, "velocity": 88}, {"time": 4089, "pitch": 61, "duration": 2, "velocity": 35}, {"time": 4089, "pitch": 34, "duration": 10, "velocity": 95}, {"time": 4089, "pitch": 46, "duration": 10, "velocity": 95}, {"time": 4095, "pitch": 58, "duration": 3, "velocity": 122}, {"time": 4095, "pitch": 61, "duration": 3, "velocity": 112}, {"time": 4095, "pitch": 65, "duration": 3, "velocity": 90}, {"time": 4101, "pitch": 53, "duration": 9, "velocity": 71}, {"time": 4101, "pitch": 58, "duration": 2, "velocity": 96}, {"time": 4101, "pitch": 61, "duration": 2, "velocity": 96}, {"time": 4101, "pitch": 65, "duration": 3, "velocity": 96}, {"time": 4101, "pitch": 41, "duration": 9, "velocity": 71}, {"time": 4107, "pitch": 58, "duration": 2, "velocity": 117}, {"time": 4107, "pitch": 61, "duration": 2, "velocity": 102}, {"time": 4107, "pitch": 65, "duration": 3, "velocity": 92}, {"time": 4113, "pitch": 29, "duration": 12, "velocity": 83}, {"time": 4113, "pitch": 41, "duration": 12, "velocity": 83}, {"time": 4119, "pitch": 60, "duration": 7, "velocity": 100}, {"time": 4119, "pitch": 65, "duration": 8, "velocity": 117}, {"time": 4119, "pitch": 68, "duration": 7, "velocity": 117}, {"time": 4125, "pitch": 36, "duration": 9, "velocity": 63}, {"time": 4125, "pitch": 48, "duration": 9, "velocity": 63}, {"time": 4131, "pitch": 60, "duration": 2, "velocity": 97}, {"time": 4131, "pitch": 65, "duration": 2, "velocity": 102}, {"time": 4131, "pitch": 68, "duration": 1, "velocity": 112}, {"time": 4137, "pitch": 29, "duration": 10, "velocity": 67}, {"time": 4137, "pitch": 41, "duration": 10, "velocity": 67}, {"time": 4143, "pitch": 60, "duration": 2, "velocity": 96}, {"time": 4143, "pitch": 65, "duration": 2, "velocity": 100}, {"time": 4143, "pitch": 68, "duration": 2, "velocity": 100}, {"time": 4149, "pitch": 36, "duration": 7, "velocity": 73}, {"time": 4149, "pitch": 48, "duration": 7, "velocity": 73}, {"time": 4149, "pitch": 60, "duration": 2, "velocity": 96}, {"time": 4149, "pitch": 65, "duration": 2, "velocity": 96}, {"time": 4149, "pitch": 68, "duration": 2, "velocity": 96}, {"time": 4155, "pitch": 60, "duration": 2, "velocity": 100}, {"time": 4155, "pitch": 65, "duration": 2, "velocity": 99}, {"time": 4155, "pitch": 68, "duration": 1, "velocity": 99}, {"time": 4161, "pitch": 34, "duration": 10, "velocity": 100}, {"time": 4161, "pitch": 46, "duration": 10, "velocity": 100}, {"time": 4167, "pitch": 58, "duration": 6, "velocity": 122}, {"time": 4167, "pitch": 61, "duration": 7, "velocity": 117}, {"time": 4167, "pitch": 65, "duration": 6, "velocity": 92}, {"time": 4173, "pitch": 41, "duration": 8, "velocity": 67}, {"time": 4173, "pitch": 53, "duration": 8, "velocity": 67}, {"time": 4179, "pitch": 58, "duration": 2, "velocity": 117}, {"time": 4179, "pitch": 61, "duration": 2, "velocity": 107}, {"time": 4179, "pitch": 65, "duration": 2, "velocity": 90}, {"time": 4185, "pitch": 34, "duration": 10, "velocity": 99}, {"time": 4185, "pitch": 46, "duration": 10, "velocity": 99}, {"time": 4185, "pitch": 61, "duration": 1, "velocity": 37}, {"time": 4191, "pitch": 58, "duration": 2, "velocity": 117}, {"time": 4191, "pitch": 61, "duration": 2, "velocity": 112}, {"time": 4191, "pitch": 65, "duration": 1, "velocity": 83}, {"time": 4197, "pitch": 41, "duration": 6, "velocity": 71}, {"time": 4197, "pitch": 53, "duration": 6, "velocity": 71}, {"time": 4197, "pitch": 58, "duration": 2, "velocity": 117}, {"time": 4197, "pitch": 61, "duration": 2, "velocity": 97}, {"time": 4197, "pitch": 65, "duration": 2, "velocity": 76}, {"time": 4203, "pitch": 58, "duration": 2, "velocity": 122}, {"time": 4203, "pitch": 61, "duration": 2, "velocity": 112}, {"time": 4203, "pitch": 65, "duration": 3, "velocity": 83}, {"time": 4209, "pitch": 32, "duration": 3, "velocity": 85}, {"time": 4209, "pitch": 44, "duration": 3, "velocity": 85}, {"time": 4209, "pitch": 56, "duration": 2, "velocity": 99}, {"time": 4209, "pitch": 60, "duration": 2, "velocity": 107}, {"time": 4209, "pitch": 63, "duration": 1, "velocity": 102}, {"time": 4215, "pitch": 32, "duration": 3, "velocity": 99}, {"time": 4215, "pitch": 44, "duration": 3, "velocity": 99}, {"time": 4215, "pitch": 56, "duration": 2, "velocity": 72}, {"time": 4215, "pitch": 60, "duration": 2, "velocity": 86}, {"time": 4215, "pitch": 63, "duration": 2, "velocity": 67}, {"time": 4221, "pitch": 32, "duration": 2, "velocity": 93}, {"time": 4221, "pitch": 44, "duration": 2, "velocity": 93}, {"time": 4221, "pitch": 56, "duration": 2, "velocity": 97}, {"time": 4221, "pitch": 60, "duration": 1, "velocity": 112}, {"time": 4221, "pitch": 63, "duration": 1, "velocity": 93}, {"time": 4227, "pitch": 32, "duration": 3, "velocity": 102}, {"time": 4227, "pitch": 44, "duration": 3, "velocity": 102}, {"time": 4227, "pitch": 56, "duration": 2, "velocity": 102}, {"time": 4227, "pitch": 60, "duration": 1, "velocity": 88}, {"time": 4227, "pitch": 63, "duration": 1, "velocity": 36}, {"time": 4233, "pitch": 29, "duration": 8, "velocity": 89}, {"time": 4233, "pitch": 41, "duration": 8, "velocity": 89}, {"time": 4233, "pitch": 53, "duration": 7, "velocity": 102}, {"time": 4233, "pitch": 56, "duration": 7, "velocity": 127}, {"time": 4233, "pitch": 60, "duration": 7, "velocity": 107}, {"time": 4257, "pitch": 30, "duration": 10, "velocity": 90}, {"time": 4257, "pitch": 42, "duration": 10, "velocity": 90}, {"time": 4257, "pitch": 54, "duration": 10, "velocity": 90}, {"time": 4257, "pitch": 61, "duration": 10, "velocity": 107}, {"time": 4257, "pitch": 66, "duration": 10, "velocity": 112}, {"time": 4257, "pitch": 70, "duration": 10, "velocity": 107}, {"time": 4269, "pitch": 29, "duration": 10, "velocity": 64}, {"time": 4269, "pitch": 41, "duration": 10, "velocity": 64}, {"time": 4269, "pitch": 48, "duration": 10, "velocity": 76}, {"time": 4269, "pitch": 53, "duration": 10, "velocity": 86}, {"time": 4269, "pitch": 60, "duration": 11, "velocity": 97}, {"time": 4269, "pitch": 65, "duration": 11, "velocity": 97}, {"time": 4269, "pitch": 68, "duration": 11, "velocity": 99}, {"time": 4281, "pitch": 46, "duration": 9, "velocity": 112}, {"time": 4287, "pitch": 58, "duration": 2, "velocity": 107}, {"time": 4287, "pitch": 61, "duration": 2, "velocity": 102}, {"time": 4287, "pitch": 65, "duration": 2, "velocity": 83}, {"time": 4293, "pitch": 53, "duration": 11, "velocity": 65}, {"time": 4299, "pitch": 58, "duration": 7, "velocity": 117}, {"time": 4299, "pitch": 61, "duration": 8, "velocity": 112}, {"time": 4299, "pitch": 65, "duration": 7, "velocity": 86}, {"time": 4305, "pitch": 46, "duration": 2, "velocity": 75}, {"time": 4311, "pitch": 58, "duration": 2, "velocity": 117}, {"time": 4311, "pitch": 61, "duration": 2, "velocity": 112}, {"time": 4311, "pitch": 65, "duration": 1, "velocity": 69}, {"time": 4317, "pitch": 53, "duration": 9, "velocity": 52}, {"time": 4317, "pitch": 61, "duration": 1, "velocity": 42}, {"time": 4323, "pitch": 58, "duration": 7, "velocity": 122}, {"time": 4323, "pitch": 61, "duration": 7, "velocity": 97}, {"time": 4323, "pitch": 65, "duration": 7, "velocity": 92}, {"time": 4329, "pitch": 46, "duration": 2, "velocity": 100}, {"time": 4335, "pitch": 58, "duration": 2, "velocity": 117}, {"time": 4335, "pitch": 61, "duration": 2, "velocity": 100}, {"time": 4335, "pitch": 65, "duration": 2, "velocity": 86}, {"time": 4341, "pitch": 53, "duration": 10, "velocity": 61}, {"time": 4347, "pitch": 58, "duration": 7, "velocity": 122}, {"time": 4347, "pitch": 61, "duration": 8, "velocity": 93}, {"time": 4347, "pitch": 65, "duration": 7, "velocity": 88}, {"time": 4353, "pitch": 46, "duration": 9, "velocity": 77}, {"time": 4359, "pitch": 58, "duration": 2, "velocity": 117}, {"time": 4359, "pitch": 61, "duration": 2, "velocity": 102}, {"time": 4359, "pitch": 65, "duration": 1, "velocity": 82}, {"time": 4365, "pitch": 53, "duration": 9, "velocity": 68}, {"time": 4371, "pitch": 58, "duration": 3, "velocity": 127}, {"time": 4371, "pitch": 61, "duration": 4, "velocity": 100}, {"time": 4377, "pitch": 44, "duration": 7, "velocity": 88}, {"time": 4383, "pitch": 56, "duration": 7, "velocity": 85}, {"time": 4383, "pitch": 60, "duration": 8, "velocity": 96}, {"time": 4383, "pitch": 63, "duration": 8, "velocity": 99}, {"time": 4389, "pitch": 51, "duration": 8, "velocity": 48}, {"time": 4395, "pitch": 56, "duration": 2, "velocity": 95}, {"time": 4395, "pitch": 60, "duration": 1, "velocity": 102}, {"time": 4395, "pitch": 63, "duration": 2, "velocity": 96}, {"time": 4401, "pitch": 44, "duration": 9, "velocity": 27}, {"time": 4407, "pitch": 56, "duration": 8, "velocity": 96}, {"time": 4407, "pitch": 60, "duration": 8, "velocity": 102}, {"time": 4407, "pitch": 63, "duration": 8, "velocity": 95}, {"time": 4413, "pitch": 51, "duration": 9, "velocity": 83}, {"time": 4419, "pitch": 56, "duration": 2, "velocity": 97}, {"time": 4419, "pitch": 60, "duration": 1, "velocity": 73}, {"time": 4419, "pitch": 63, "duration": 1, "velocity": 73}, {"time": 4425, "pitch": 42, "duration": 15, "velocity": 100}, {"time": 4431, "pitch": 58, "duration": 8, "velocity": 122}, {"time": 4431, "pitch": 61, "duration": 8, "velocity": 112}, {"time": 4437, "pitch": 54, "duration": 7, "velocity": 75}, {"time": 4443, "pitch": 42, "duration": 2, "velocity": 32}, {"time": 4443, "pitch": 58, "duration": 3, "velocity": 107}, {"time": 4443, "pitch": 61, "duration": 3, "velocity": 99}, {"time": 4449, "pitch": 42, "duration": 17, "velocity": 95}, {"time": 4455, "pitch": 58, "duration": 8, "velocity": 122}, {"time": 4455, "pitch": 61, "duration": 8, "velocity": 107}, {"time": 4461, "pitch": 54, "duration": 4, "velocity": 93}, {"time": 4467, "pitch": 58, "duration": 2, "velocity": 117}, {"time": 4467, "pitch": 61, "duration": 2, "velocity": 96}, {"time": 4473, "pitch": 65, "duration": 24, "velocity": 107}, {"time": 4473, "pitch": 60, "duration": 25, "velocity": 102}, {"time": 4473, "pitch": 68, "duration": 24, "velocity": 102}, {"time": 4473, "pitch": 48, "duration": 25, "velocity": 89}, {"time": 4473, "pitch": 53, "duration": 25, "velocity": 88}, {"time": 4473, "pitch": 41, "duration": 25, "velocity": 58}, {"time": 4500, "pitch": 44, "duration": 24, "velocity": 107}, {"time": 4500, "pitch": 68, "duration": 24, "velocity": 117}, {"time": 4500, "pitch": 72, "duration": 19, "velocity": 95}, {"time": 4500, "pitch": 63, "duration": 21, "velocity": 107}, {"time": 4525, "pitch": 68, "duration": 18, "velocity": 122}, {"time": 4525, "pitch": 72, "duration": 14, "velocity": 95}, {"time": 4525, "pitch": 63, "duration": 17, "velocity": 102}, {"time": 4525, "pitch": 44, "duration": 19, "velocity": 127}, {"time": 4551, "pitch": 70, "duration": 177, "velocity": 122}, {"time": 4551, "pitch": 73, "duration": 177, "velocity": 112}, {"time": 4551, "pitch": 46, "duration": 174, "velocity": 122}, {"time": 4552, "pitch": 65, "duration": 181, "velocity": 97}, {"time": 4552, "pitch": 61, "duration": 181, "velocity": 122}, {"time": 4552, "pitch": 58, "duration": 181, "velocity": 102}]}]}