{"metadata": {"schema_version": "0.2", "title": "None", "source_filename": "097.mid", "source_format": "midi"}, "resolution": 12, "tempos": [{"time": 0, "qpm": 70.00007000007}, {"time": 3504, "qpm": 67.00002903334591}], "time_signatures": [{"time": 0, "numerator": 1, "denominator": 4}], "tracks": [{"program": 0, "is_drum": false, "name": "MELODY", "notes": [{"time": 403, "pitch": 66, "duration": 4, "velocity": 99}, {"time": 409, "pitch": 71, "duration": 3, "velocity": 99}, {"time": 415, "pitch": 71, "duration": 3, "velocity": 88}, {"time": 421, "pitch": 71, "duration": 5, "velocity": 102}, {"time": 427, "pitch": 71, "duration": 2, "velocity": 96}, {"time": 430, "pitch": 74, "duration": 2, "velocity": 95}, {"time": 433, "pitch": 73, "duration": 5, "velocity": 117}, {"time": 439, "pitch": 71, "duration": 10, "velocity": 99}, {"time": 451, "pitch": 69, "duration": 4, "velocity": 100}, {"time": 457, "pitch": 71, "duration": 32, "velocity": 107}, {"time": 499, "pitch": 66, "duration": 2, "velocity": 112}, {"time": 505, "pitch": 71, "duration": 2, "velocity": 97}, {"time": 511, "pitch": 71, "duration": 1, "velocity": 90}, {"time": 514, "pitch": 71, "duration": 1, "velocity": 85}, {"time": 517, "pitch": 71, "duration": 3, "velocity": 99}, {"time": 523, "pitch": 71, "duration": 1, "velocity": 100}, {"time": 526, "pitch": 74, "duration": 2, "velocity": 89}, {"time": 529, "pitch": 73, "duration": 5, "velocity": 112}, {"time": 535, "pitch": 71, "duration": 9, "velocity": 107}, {"time": 547, "pitch": 69, "duration": 3, "velocity": 96}, {"time": 550, "pitch": 71, "duration": 2, "velocity": 69}, {"time": 553, "pitch": 66, "duration": 25, "velocity": 93}, {"time": 601, "pitch": 64, "duration": 3, "velocity": 99}, {"time": 607, "pitch": 64, "duration": 1, "velocity": 92}, {"time": 610, "pitch": 64, "duration": 1, "velocity": 83}, {"time": 613, "pitch": 64, "duration": 5, "velocity": 89}, {"time": 619, "pitch": 66, "duration": 4, "velocity": 117}, {"time": 625, "pitch": 69, "duration": 5, "velocity": 102}, {"time": 631, "pitch": 69, "duration": 10, "velocity": 97}, {"time": 643, "pitch": 66, "duration": 2, "velocity": 99}, {"time": 646, "pitch": 69, "duration": 2, "velocity": 81}, {"time": 649, "pitch": 71, "duration": 8, "velocity": 107}, {"time": 661, "pitch": 66, "duration": 4, "velocity": 117}, {"time": 667, "pitch": 64, "duration": 3, "velocity": 93}, {"time": 673, "pitch": 62, "duration": 16, "velocity": 99}, {"time": 691, "pitch": 71, "duration": 2, "velocity": 86}, {"time": 694, "pitch": 74, "duration": 1, "velocity": 96}, {"time": 697, "pitch": 76, "duration": 6, "velocity": 97}, {"time": 706, "pitch": 76, "duration": 1, "velocity": 96}, {"time": 709, "pitch": 76, "duration": 3, "velocity": 86}, {"time": 715, "pitch": 78, "duration": 4, "velocity": 117}, {"time": 721, "pitch": 69, "duration": 5, "velocity": 95}, {"time": 727, "pitch": 69, "duration": 2, "velocity": 107}, {"time": 730, "pitch": 71, "duration": 2, "velocity": 88}, {"time": 733, "pitch": 66, "duration": 7, "velocity": 93}, {"time": 739, "pitch": 69, "duration": 7, "velocity": 102}, {"time": 745, "pitch": 71, "duration": 30, "velocity": 127}, {"time": 787, "pitch": 66, "duration": 4, "velocity": 99}, {"time": 793, "pitch": 71, "duration": 3, "velocity": 99}, {"time": 799, "pitch": 71, "duration": 3, "velocity": 88}, {"time": 805, "pitch": 71, "duration": 5, "velocity": 102}, {"time": 811, "pitch": 71, "duration": 2, "velocity": 96}, {"time": 814, "pitch": 74, "duration": 2, "velocity": 95}, {"time": 817, "pitch": 73, "duration": 5, "velocity": 117}, {"time": 823, "pitch": 71, "duration": 6, "velocity": 99}, {"time": 829, "pitch": 71, "duration": 4, "velocity": 99}, {"time": 835, "pitch": 69, "duration": 4, "velocity": 100}, {"time": 841, "pitch": 71, "duration": 32, "velocity": 107}, {"time": 883, "pitch": 66, "duration": 2, "velocity": 112}, {"time": 886, "pitch": 66, "duration": 2, "velocity": 100}, {"time": 889, "pitch": 71, "duration": 2, "velocity": 97}, {"time": 895, "pitch": 71, "duration": 4, "velocity": 90}, {"time": 901, "pitch": 71, "duration": 3, "velocity": 99}, {"time": 907, "pitch": 71, "duration": 1, "velocity": 100}, {"time": 910, "pitch": 74, "duration": 2, "velocity": 89}, {"time": 913, "pitch": 73, "duration": 5, "velocity": 112}, {"time": 919, "pitch": 71, "duration": 9, "velocity": 107}, {"time": 931, "pitch": 69, "duration": 3, "velocity": 96}, {"time": 934, "pitch": 71, "duration": 2, "velocity": 69}, {"time": 937, "pitch": 66, "duration": 25, "velocity": 93}, {"time": 985, "pitch": 64, "duration": 3, "velocity": 99}, {"time": 991, "pitch": 64, "duration": 1, "velocity": 92}, {"time": 994, "pitch": 64, "duration": 1, "velocity": 83}, {"time": 997, "pitch": 64, "duration": 5, "velocity": 89}, {"time": 1003, "pitch": 66, "duration": 4, "velocity": 117}, {"time": 1009, "pitch": 69, "duration": 9, "velocity": 102}, {"time": 1027, "pitch": 66, "duration": 2, "velocity": 99}, {"time": 1030, "pitch": 69, "duration": 2, "velocity": 81}, {"time": 1033, "pitch": 71, "duration": 5, "velocity": 107}, {"time": 1039, "pitch": 66, "duration": 4, "velocity": 97}, {"time": 1045, "pitch": 66, "duration": 4, "velocity": 117}, {"time": 1051, "pitch": 64, "duration": 3, "velocity": 93}, {"time": 1057, "pitch": 62, "duration": 16, "velocity": 99}, {"time": 1075, "pitch": 71, "duration": 2, "velocity": 86}, {"time": 1078, "pitch": 74, "duration": 1, "velocity": 96}, {"time": 1081, "pitch": 76, "duration": 6, "velocity": 97}, {"time": 1090, "pitch": 76, "duration": 1, "velocity": 96}, {"time": 1093, "pitch": 76, "duration": 3, "velocity": 86}, {"time": 1099, "pitch": 78, "duration": 4, "velocity": 117}, {"time": 1105, "pitch": 69, "duration": 5, "velocity": 95}, {"time": 1111, "pitch": 69, "duration": 2, "velocity": 107}, {"time": 1114, "pitch": 71, "duration": 2, "velocity": 88}, {"time": 1117, "pitch": 66, "duration": 7, "velocity": 93}, {"time": 1123, "pitch": 69, "duration": 7, "velocity": 102}, {"time": 1129, "pitch": 71, "duration": 30, "velocity": 127}, {"time": 1171, "pitch": 71, "duration": 4, "velocity": 99}, {"time": 1177, "pitch": 78, "duration": 3, "velocity": 117}, {"time": 1183, "pitch": 78, "duration": 8, "velocity": 127}, {"time": 1195, "pitch": 76, "duration": 3, "velocity": 122}, {"time": 1201, "pitch": 74, "duration": 12, "velocity": 112}, {"time": 1219, "pitch": 71, "duration": 2, "velocity": 93}, {"time": 1222, "pitch": 74, "duration": 2, "velocity": 96}, {"time": 1225, "pitch": 76, "duration": 4, "velocity": 95}, {"time": 1231, "pitch": 76, "duration": 4, "velocity": 102}, {"time": 1237, "pitch": 76, "duration": 4, "velocity": 96}, {"time": 1243, "pitch": 74, "duration": 3, "velocity": 117}, {"time": 1246, "pitch": 76, "duration": 2, "velocity": 76}, {"time": 1249, "pitch": 71, "duration": 14, "velocity": 86}, {"time": 1267, "pitch": 71, "duration": 5, "velocity": 93}, {"time": 1273, "pitch": 73, "duration": 7, "velocity": 117}, {"time": 1282, "pitch": 73, "duration": 1, "velocity": 122}, {"time": 1285, "pitch": 73, "duration": 4, "velocity": 102}, {"time": 1291, "pitch": 71, "duration": 4, "velocity": 97}, {"time": 1297, "pitch": 69, "duration": 5, "velocity": 96}, {"time": 1303, "pitch": 69, "duration": 2, "velocity": 102}, {"time": 1306, "pitch": 71, "duration": 1, "velocity": 93}, {"time": 1309, "pitch": 71, "duration": 4, "velocity": 96}, {"time": 1315, "pitch": 69, "duration": 4, "velocity": 95}, {"time": 1321, "pitch": 66, "duration": 23, "velocity": 112}, {"time": 1369, "pitch": 64, "duration": 3, "velocity": 95}, {"time": 1375, "pitch": 64, "duration": 9, "velocity": 99}, {"time": 1387, "pitch": 62, "duration": 4, "velocity": 99}, {"time": 1393, "pitch": 64, "duration": 10, "velocity": 107}, {"time": 1417, "pitch": 69, "duration": 3, "velocity": 99}, {"time": 1423, "pitch": 66, "duration": 9, "velocity": 102}, {"time": 1435, "pitch": 69, "duration": 4, "velocity": 102}, {"time": 1441, "pitch": 71, "duration": 17, "velocity": 107}, {"time": 1459, "pitch": 71, "duration": 4, "velocity": 99}, {"time": 1465, "pitch": 76, "duration": 4, "velocity": 117}, {"time": 1471, "pitch": 76, "duration": 1, "velocity": 99}, {"time": 1474, "pitch": 76, "duration": 1, "velocity": 100}, {"time": 1477, "pitch": 76, "duration": 3, "velocity": 102}, {"time": 1483, "pitch": 78, "duration": 3, "velocity": 112}, {"time": 1489, "pitch": 69, "duration": 5, "velocity": 100}, {"time": 1495, "pitch": 69, "duration": 1, "velocity": 127}, {"time": 1498, "pitch": 71, "duration": 1, "velocity": 97}, {"time": 1501, "pitch": 66, "duration": 4, "velocity": 107}, {"time": 1507, "pitch": 69, "duration": 3, "velocity": 100}, {"time": 1513, "pitch": 71, "duration": 28, "velocity": 107}, {"time": 1555, "pitch": 71, "duration": 4, "velocity": 99}, {"time": 1561, "pitch": 78, "duration": 3, "velocity": 117}, {"time": 1567, "pitch": 78, "duration": 8, "velocity": 127}, {"time": 1579, "pitch": 76, "duration": 3, "velocity": 122}, {"time": 1585, "pitch": 74, "duration": 12, "velocity": 112}, {"time": 1603, "pitch": 71, "duration": 2, "velocity": 93}, {"time": 1606, "pitch": 74, "duration": 2, "velocity": 96}, {"time": 1609, "pitch": 76, "duration": 4, "velocity": 95}, {"time": 1615, "pitch": 76, "duration": 4, "velocity": 102}, {"time": 1621, "pitch": 76, "duration": 4, "velocity": 96}, {"time": 1627, "pitch": 74, "duration": 3, "velocity": 117}, {"time": 1630, "pitch": 76, "duration": 2, "velocity": 76}, {"time": 1633, "pitch": 71, "duration": 14, "velocity": 86}, {"time": 1651, "pitch": 71, "duration": 5, "velocity": 93}, {"time": 1657, "pitch": 73, "duration": 4, "velocity": 117}, {"time": 1663, "pitch": 73, "duration": 4, "velocity": 122}, {"time": 1669, "pitch": 73, "duration": 4, "velocity": 102}, {"time": 1675, "pitch": 71, "duration": 4, "velocity": 97}, {"time": 1681, "pitch": 69, "duration": 5, "velocity": 96}, {"time": 1687, "pitch": 69, "duration": 2, "velocity": 102}, {"time": 1690, "pitch": 71, "duration": 1, "velocity": 93}, {"time": 1693, "pitch": 71, "duration": 4, "velocity": 96}, {"time": 1699, "pitch": 69, "duration": 4, "velocity": 95}, {"time": 1705, "pitch": 66, "duration": 23, "velocity": 112}, {"time": 1753, "pitch": 64, "duration": 3, "velocity": 95}, {"time": 1759, "pitch": 64, "duration": 9, "velocity": 99}, {"time": 1771, "pitch": 62, "duration": 4, "velocity": 99}, {"time": 1777, "pitch": 64, "duration": 10, "velocity": 107}, {"time": 1801, "pitch": 69, "duration": 3, "velocity": 99}, {"time": 1807, "pitch": 66, "duration": 9, "velocity": 102}, {"time": 1819, "pitch": 69, "duration": 4, "velocity": 102}, {"time": 1825, "pitch": 71, "duration": 21, "velocity": 107}, {"time": 1849, "pitch": 76, "duration": 8, "velocity": 117}, {"time": 1858, "pitch": 76, "duration": 1, "velocity": 100}, {"time": 1861, "pitch": 76, "duration": 3, "velocity": 102}, {"time": 1867, "pitch": 78, "duration": 3, "velocity": 112}, {"time": 1873, "pitch": 69, "duration": 5, "velocity": 100}, {"time": 1879, "pitch": 69, "duration": 1, "velocity": 127}, {"time": 1882, "pitch": 71, "duration": 1, "velocity": 97}, {"time": 1885, "pitch": 66, "duration": 4, "velocity": 107}, {"time": 1891, "pitch": 69, "duration": 3, "velocity": 100}, {"time": 1897, "pitch": 71, "duration": 28, "velocity": 107}, {"time": 2323, "pitch": 66, "duration": 4, "velocity": 99}, {"time": 2329, "pitch": 71, "duration": 3, "velocity": 99}, {"time": 2335, "pitch": 71, "duration": 3, "velocity": 88}, {"time": 2341, "pitch": 71, "duration": 5, "velocity": 102}, {"time": 2347, "pitch": 71, "duration": 2, "velocity": 96}, {"time": 2350, "pitch": 74, "duration": 2, "velocity": 95}, {"time": 2353, "pitch": 73, "duration": 5, "velocity": 117}, {"time": 2359, "pitch": 71, "duration": 6, "velocity": 99}, {"time": 2365, "pitch": 71, "duration": 4, "velocity": 99}, {"time": 2371, "pitch": 69, "duration": 4, "velocity": 100}, {"time": 2377, "pitch": 71, "duration": 32, "velocity": 107}, {"time": 2419, "pitch": 66, "duration": 2, "velocity": 112}, {"time": 2422, "pitch": 66, "duration": 2, "velocity": 100}, {"time": 2425, "pitch": 71, "duration": 2, "velocity": 97}, {"time": 2431, "pitch": 71, "duration": 4, "velocity": 90}, {"time": 2437, "pitch": 71, "duration": 3, "velocity": 99}, {"time": 2443, "pitch": 71, "duration": 1, "velocity": 100}, {"time": 2446, "pitch": 74, "duration": 2, "velocity": 89}, {"time": 2449, "pitch": 73, "duration": 5, "velocity": 112}, {"time": 2455, "pitch": 71, "duration": 9, "velocity": 107}, {"time": 2467, "pitch": 69, "duration": 3, "velocity": 96}, {"time": 2470, "pitch": 71, "duration": 2, "velocity": 69}, {"time": 2473, "pitch": 66, "duration": 25, "velocity": 93}, {"time": 2521, "pitch": 64, "duration": 3, "velocity": 99}, {"time": 2527, "pitch": 64, "duration": 1, "velocity": 92}, {"time": 2530, "pitch": 64, "duration": 1, "velocity": 83}, {"time": 2533, "pitch": 64, "duration": 5, "velocity": 89}, {"time": 2539, "pitch": 66, "duration": 4, "velocity": 117}, {"time": 2545, "pitch": 69, "duration": 9, "velocity": 102}, {"time": 2563, "pitch": 66, "duration": 2, "velocity": 99}, {"time": 2566, "pitch": 69, "duration": 2, "velocity": 81}, {"time": 2569, "pitch": 71, "duration": 5, "velocity": 107}, {"time": 2575, "pitch": 66, "duration": 4, "velocity": 97}, {"time": 2581, "pitch": 66, "duration": 4, "velocity": 117}, {"time": 2587, "pitch": 64, "duration": 3, "velocity": 93}, {"time": 2593, "pitch": 62, "duration": 16, "velocity": 99}, {"time": 2611, "pitch": 71, "duration": 2, "velocity": 86}, {"time": 2614, "pitch": 74, "duration": 1, "velocity": 96}, {"time": 2617, "pitch": 76, "duration": 6, "velocity": 97}, {"time": 2626, "pitch": 76, "duration": 1, "velocity": 96}, {"time": 2629, "pitch": 76, "duration": 3, "velocity": 86}, {"time": 2635, "pitch": 78, "duration": 4, "velocity": 117}, {"time": 2641, "pitch": 69, "duration": 5, "velocity": 95}, {"time": 2647, "pitch": 69, "duration": 2, "velocity": 107}, {"time": 2650, "pitch": 71, "duration": 2, "velocity": 88}, {"time": 2653, "pitch": 66, "duration": 7, "velocity": 93}, {"time": 2659, "pitch": 69, "duration": 7, "velocity": 102}, {"time": 2665, "pitch": 71, "duration": 30, "velocity": 127}, {"time": 2707, "pitch": 71, "duration": 4, "velocity": 99}, {"time": 2713, "pitch": 78, "duration": 3, "velocity": 117}, {"time": 2719, "pitch": 78, "duration": 8, "velocity": 127}, {"time": 2731, "pitch": 76, "duration": 3, "velocity": 122}, {"time": 2737, "pitch": 74, "duration": 12, "velocity": 112}, {"time": 2755, "pitch": 71, "duration": 2, "velocity": 93}, {"time": 2758, "pitch": 74, "duration": 2, "velocity": 96}, {"time": 2761, "pitch": 76, "duration": 4, "velocity": 95}, {"time": 2767, "pitch": 76, "duration": 4, "velocity": 102}, {"time": 2773, "pitch": 76, "duration": 4, "velocity": 96}, {"time": 2779, "pitch": 74, "duration": 3, "velocity": 117}, {"time": 2782, "pitch": 76, "duration": 2, "velocity": 76}, {"time": 2785, "pitch": 71, "duration": 14, "velocity": 86}, {"time": 2803, "pitch": 71, "duration": 5, "velocity": 93}, {"time": 2809, "pitch": 73, "duration": 7, "velocity": 117}, {"time": 2818, "pitch": 73, "duration": 1, "velocity": 122}, {"time": 2821, "pitch": 73, "duration": 4, "velocity": 102}, {"time": 2827, "pitch": 71, "duration": 4, "velocity": 97}, {"time": 2833, "pitch": 69, "duration": 5, "velocity": 96}, {"time": 2839, "pitch": 69, "duration": 2, "velocity": 102}, {"time": 2842, "pitch": 71, "duration": 1, "velocity": 93}, {"time": 2845, "pitch": 71, "duration": 4, "velocity": 96}, {"time": 2851, "pitch": 69, "duration": 4, "velocity": 95}, {"time": 2857, "pitch": 66, "duration": 23, "velocity": 112}, {"time": 2905, "pitch": 64, "duration": 3, "velocity": 95}, {"time": 2911, "pitch": 64, "duration": 9, "velocity": 99}, {"time": 2923, "pitch": 62, "duration": 4, "velocity": 99}, {"time": 2929, "pitch": 64, "duration": 10, "velocity": 107}, {"time": 2953, "pitch": 69, "duration": 3, "velocity": 99}, {"time": 2959, "pitch": 66, "duration": 9, "velocity": 102}, {"time": 2971, "pitch": 69, "duration": 4, "velocity": 102}, {"time": 2977, "pitch": 71, "duration": 17, "velocity": 107}, {"time": 2995, "pitch": 71, "duration": 4, "velocity": 99}, {"time": 3001, "pitch": 76, "duration": 4, "velocity": 117}, {"time": 3007, "pitch": 76, "duration": 1, "velocity": 99}, {"time": 3010, "pitch": 76, "duration": 1, "velocity": 100}, {"time": 3013, "pitch": 76, "duration": 3, "velocity": 102}, {"time": 3019, "pitch": 78, "duration": 3, "velocity": 112}, {"time": 3025, "pitch": 69, "duration": 5, "velocity": 100}, {"time": 3031, "pitch": 69, "duration": 1, "velocity": 127}, {"time": 3034, "pitch": 71, "duration": 1, "velocity": 97}, {"time": 3037, "pitch": 66, "duration": 4, "velocity": 107}, {"time": 3043, "pitch": 69, "duration": 3, "velocity": 100}, {"time": 3049, "pitch": 71, "duration": 28, "velocity": 107}, {"time": 3091, "pitch": 71, "duration": 4, "velocity": 99}, {"time": 3097, "pitch": 78, "duration": 3, "velocity": 117}, {"time": 3103, "pitch": 78, "duration": 8, "velocity": 127}, {"time": 3115, "pitch": 76, "duration": 3, "velocity": 122}, {"time": 3121, "pitch": 74, "duration": 12, "velocity": 112}, {"time": 3139, "pitch": 71, "duration": 2, "velocity": 93}, {"time": 3142, "pitch": 74, "duration": 2, "velocity": 96}, {"time": 3145, "pitch": 76, "duration": 4, "velocity": 95}, {"time": 3151, "pitch": 76, "duration": 4, "velocity": 102}, {"time": 3157, "pitch": 76, "duration": 4, "velocity": 96}, {"time": 3163, "pitch": 74, "duration": 3, "velocity": 117}, {"time": 3166, "pitch": 76, "duration": 2, "velocity": 76}, {"time": 3169, "pitch": 71, "duration": 14, "velocity": 86}, {"time": 3187, "pitch": 71, "duration": 5, "velocity": 93}, {"time": 3193, "pitch": 73, "duration": 4, "velocity": 117}, {"time": 3199, "pitch": 73, "duration": 4, "velocity": 122}, {"time": 3205, "pitch": 73, "duration": 4, "velocity": 102}, {"time": 3211, "pitch": 71, "duration": 4, "velocity": 97}, {"time": 3217, "pitch": 69, "duration": 5, "velocity": 96}, {"time": 3223, "pitch": 69, "duration": 2, "velocity": 102}, {"time": 3226, "pitch": 71, "duration": 1, "velocity": 93}, {"time": 3229, "pitch": 71, "duration": 4, "velocity": 96}, {"time": 3235, "pitch": 69, "duration": 4, "velocity": 95}, {"time": 3241, "pitch": 66, "duration": 23, "velocity": 112}, {"time": 3289, "pitch": 64, "duration": 3, "velocity": 95}, {"time": 3295, "pitch": 64, "duration": 9, "velocity": 99}, {"time": 3307, "pitch": 62, "duration": 4, "velocity": 99}, {"time": 3313, "pitch": 64, "duration": 10, "velocity": 107}, {"time": 3337, "pitch": 69, "duration": 3, "velocity": 99}, {"time": 3343, "pitch": 66, "duration": 9, "velocity": 102}, {"time": 3355, "pitch": 69, "duration": 4, "velocity": 102}, {"time": 3361, "pitch": 71, "duration": 21, "velocity": 107}, {"time": 3385, "pitch": 76, "duration": 8, "velocity": 117}, {"time": 3394, "pitch": 76, "duration": 1, "velocity": 100}, {"time": 3397, "pitch": 76, "duration": 3, "velocity": 102}, {"time": 3403, "pitch": 78, "duration": 3, "velocity": 112}, {"time": 3409, "pitch": 69, "duration": 5, "velocity": 100}, {"time": 3415, "pitch": 69, "duration": 1, "velocity": 127}, {"time": 3418, "pitch": 71, "duration": 1, "velocity": 97}, {"time": 3421, "pitch": 66, "duration": 4, "velocity": 107}, {"time": 3427, "pitch": 69, "duration": 3, "velocity": 100}, {"time": 3433, "pitch": 71, "duration": 28, "velocity": 107}, {"time": 3475, "pitch": 71, "duration": 4, "velocity": 112}, {"time": 3481, "pitch": 76, "duration": 4, "velocity": 122}, {"time": 3487, "pitch": 76, "duration": 1, "velocity": 97}, {"time": 3490, "pitch": 76, "duration": 1, "velocity": 93}, {"time": 3493, "pitch": 76, "duration": 3, "velocity": 102}, {"time": 3499, "pitch": 78, "duration": 5, "velocity": 117}, {"time": 3505, "pitch": 73, "duration": 6, "velocity": 127}, {"time": 3511, "pitch": 71, "duration": 6, "velocity": 99}, {"time": 3517, "pitch": 66, "duration": 6, "velocity": 102}, {"time": 3526, "pitch": 69, "duration": 4, "velocity": 97}, {"time": 3529, "pitch": 71, "duration": 62, "velocity": 112}]}, {"program": 0, "is_drum": false, "name": "BRIDGE", "notes": [{"time": 1, "pitch": 45, "duration": 1, "velocity": 67}, {"time": 2, "pitch": 48, "duration": 1, "velocity": 57}, {"time": 3, "pitch": 50, "duration": 1, "velocity": 41}, {"time": 4, "pitch": 52, "duration": 1, "velocity": 41}, {"time": 5, "pitch": 55, "duration": 1, "velocity": 38}, {"time": 6, "pitch": 57, "duration": 1, "velocity": 67}, {"time": 7, "pitch": 60, "duration": 2, "velocity": 39}, {"time": 9, "pitch": 62, "duration": 1, "velocity": 41}, {"time": 10, "pitch": 64, "duration": 1, "velocity": 45}, {"time": 11, "pitch": 67, "duration": 1, "velocity": 50}, {"time": 12, "pitch": 69, "duration": 1, "velocity": 41}, {"time": 13, "pitch": 72, "duration": 1, "velocity": 58}, {"time": 14, "pitch": 74, "duration": 1, "velocity": 50}, {"time": 15, "pitch": 76, "duration": 1, "velocity": 55}, {"time": 15, "pitch": 79, "duration": 1, "velocity": 79}, {"time": 16, "pitch": 81, "duration": 1, "velocity": 64}, {"time": 17, "pitch": 84, "duration": 1, "velocity": 85}, {"time": 18, "pitch": 86, "duration": 1, "velocity": 72}, {"time": 19, "pitch": 71, "duration": 5, "velocity": 97}, {"time": 19, "pitch": 88, "duration": 1, "velocity": 77}, {"time": 20, "pitch": 91, "duration": 1, "velocity": 93}, {"time": 21, "pitch": 93, "duration": 1, "velocity": 61}, {"time": 25, "pitch": 78, "duration": 17, "velocity": 122}, {"time": 43, "pitch": 76, "duration": 6, "velocity": 112}, {"time": 49, "pitch": 74, "duration": 19, "velocity": 127}, {"time": 67, "pitch": 71, "duration": 5, "velocity": 99}, {"time": 73, "pitch": 76, "duration": 4, "velocity": 102}, {"time": 79, "pitch": 76, "duration": 11, "velocity": 99}, {"time": 91, "pitch": 74, "duration": 5, "velocity": 117}, {"time": 97, "pitch": 71, "duration": 19, "velocity": 100}, {"time": 121, "pitch": 73, "duration": 6, "velocity": 127}, {"time": 130, "pitch": 73, "duration": 1, "velocity": 117}, {"time": 133, "pitch": 73, "duration": 3, "velocity": 127}, {"time": 139, "pitch": 71, "duration": 3, "velocity": 112}, {"time": 145, "pitch": 71, "duration": 4, "velocity": 122}, {"time": 151, "pitch": 69, "duration": 4, "velocity": 100}, {"time": 157, "pitch": 69, "duration": 5, "velocity": 107}, {"time": 163, "pitch": 71, "duration": 4, "velocity": 127}, {"time": 169, "pitch": 69, "duration": 4, "velocity": 122}, {"time": 175, "pitch": 66, "duration": 26, "velocity": 122}, {"time": 217, "pitch": 64, "duration": 4, "velocity": 112}, {"time": 223, "pitch": 64, "duration": 4, "velocity": 102}, {"time": 229, "pitch": 64, "duration": 4, "velocity": 100}, {"time": 235, "pitch": 62, "duration": 5, "velocity": 96}, {"time": 241, "pitch": 64, "duration": 16, "velocity": 127}, {"time": 265, "pitch": 66, "duration": 5, "velocity": 127}, {"time": 271, "pitch": 69, "duration": 4, "velocity": 92}, {"time": 277, "pitch": 69, "duration": 4, "velocity": 95}, {"time": 283, "pitch": 66, "duration": 4, "velocity": 112}, {"time": 289, "pitch": 71, "duration": 12, "velocity": 112}, {"time": 301, "pitch": 71, "duration": 4, "velocity": 102}, {"time": 307, "pitch": 74, "duration": 5, "velocity": 102}, {"time": 313, "pitch": 76, "duration": 9, "velocity": 97}, {"time": 322, "pitch": 76, "duration": 1, "velocity": 95}, {"time": 325, "pitch": 76, "duration": 4, "velocity": 96}, {"time": 331, "pitch": 78, "duration": 5, "velocity": 117}, {"time": 337, "pitch": 73, "duration": 9, "velocity": 122}, {"time": 343, "pitch": 69, "duration": 5, "velocity": 99}, {"time": 349, "pitch": 66, "duration": 6, "velocity": 102}, {"time": 355, "pitch": 69, "duration": 5, "velocity": 112}, {"time": 361, "pitch": 71, "duration": 43, "velocity": 117}, {"time": 481, "pitch": 59, "duration": 4, "velocity": 100}, {"time": 487, "pitch": 62, "duration": 2, "velocity": 97}, {"time": 490, "pitch": 64, "duration": 2, "velocity": 92}, {"time": 493, "pitch": 66, "duration": 6, "velocity": 112}, {"time": 499, "pitch": 69, "duration": 4, "velocity": 92}, {"time": 505, "pitch": 71, "duration": 3, "velocity": 107}, {"time": 511, "pitch": 71, "duration": 1, "velocity": 102}, {"time": 514, "pitch": 71, "duration": 1, "velocity": 96}, {"time": 517, "pitch": 71, "duration": 7, "velocity": 117}, {"time": 523, "pitch": 71, "duration": 1, "velocity": 93}, {"time": 526, "pitch": 74, "duration": 2, "velocity": 92}, {"time": 529, "pitch": 73, "duration": 5, "velocity": 102}, {"time": 535, "pitch": 71, "duration": 13, "velocity": 97}, {"time": 547, "pitch": 69, "duration": 3, "velocity": 112}, {"time": 550, "pitch": 71, "duration": 2, "velocity": 86}, {"time": 553, "pitch": 66, "duration": 24, "velocity": 112}, {"time": 577, "pitch": 54, "duration": 5, "velocity": 117}, {"time": 583, "pitch": 57, "duration": 3, "velocity": 88}, {"time": 586, "pitch": 59, "duration": 3, "velocity": 96}, {"time": 589, "pitch": 62, "duration": 8, "velocity": 97}, {"time": 595, "pitch": 66, "duration": 6, "velocity": 122}, {"time": 601, "pitch": 64, "duration": 22, "velocity": 112}, {"time": 763, "pitch": 71, "duration": 4, "velocity": 96}, {"time": 766, "pitch": 74, "duration": 2, "velocity": 81}, {"time": 769, "pitch": 78, "duration": 4, "velocity": 112}, {"time": 775, "pitch": 76, "duration": 2, "velocity": 107}, {"time": 778, "pitch": 74, "duration": 3, "velocity": 92}, {"time": 781, "pitch": 78, "duration": 7, "velocity": 112}, {"time": 865, "pitch": 66, "duration": 6, "velocity": 107}, {"time": 871, "pitch": 69, "duration": 3, "velocity": 90}, {"time": 874, "pitch": 71, "duration": 3, "velocity": 86}, {"time": 877, "pitch": 74, "duration": 5, "velocity": 99}, {"time": 883, "pitch": 73, "duration": 6, "velocity": 107}, {"time": 889, "pitch": 71, "duration": 32, "velocity": 117}, {"time": 961, "pitch": 73, "duration": 5, "velocity": 127}, {"time": 967, "pitch": 71, "duration": 3, "velocity": 107}, {"time": 970, "pitch": 69, "duration": 1, "velocity": 81}, {"time": 973, "pitch": 69, "duration": 7, "velocity": 107}, {"time": 979, "pitch": 66, "duration": 6, "velocity": 122}, {"time": 985, "pitch": 64, "duration": 30, "velocity": 100}, {"time": 1015, "pitch": 71, "duration": 6, "velocity": 96}, {"time": 1021, "pitch": 74, "duration": 5, "velocity": 95}, {"time": 1027, "pitch": 78, "duration": 19, "velocity": 82}, {"time": 1063, "pitch": 74, "duration": 6, "velocity": 90}, {"time": 1069, "pitch": 78, "duration": 6, "velocity": 99}, {"time": 1075, "pitch": 83, "duration": 13, "velocity": 100}, {"time": 1153, "pitch": 66, "duration": 5, "velocity": 122}, {"time": 1159, "pitch": 69, "duration": 3, "velocity": 90}, {"time": 1162, "pitch": 71, "duration": 2, "velocity": 102}, {"time": 1165, "pitch": 74, "duration": 6, "velocity": 100}, {"time": 1171, "pitch": 76, "duration": 5, "velocity": 122}, {"time": 1177, "pitch": 78, "duration": 35, "velocity": 112}, {"time": 1465, "pitch": 76, "duration": 14, "velocity": 112}, {"time": 1483, "pitch": 78, "duration": 5, "velocity": 107}, {"time": 1489, "pitch": 73, "duration": 17, "velocity": 107}, {"time": 1507, "pitch": 69, "duration": 6, "velocity": 96}, {"time": 1513, "pitch": 71, "duration": 26, "velocity": 99}, {"time": 1547, "pitch": 50, "duration": 1, "velocity": 62}, {"time": 1548, "pitch": 52, "duration": 1, "velocity": 54}, {"time": 1548, "pitch": 55, "duration": 1, "velocity": 88}, {"time": 1549, "pitch": 57, "duration": 1, "velocity": 74}, {"time": 1550, "pitch": 60, "duration": 1, "velocity": 90}, {"time": 1551, "pitch": 62, "duration": 1, "velocity": 61}, {"time": 1552, "pitch": 64, "duration": 1, "velocity": 66}, {"time": 1552, "pitch": 67, "duration": 1, "velocity": 88}, {"time": 1553, "pitch": 69, "duration": 1, "velocity": 67}, {"time": 1554, "pitch": 72, "duration": 1, "velocity": 88}, {"time": 1555, "pitch": 74, "duration": 1, "velocity": 67}, {"time": 1556, "pitch": 76, "duration": 1, "velocity": 69}, {"time": 1557, "pitch": 79, "duration": 1, "velocity": 95}, {"time": 1557, "pitch": 81, "duration": 1, "velocity": 79}, {"time": 1558, "pitch": 84, "duration": 1, "velocity": 100}, {"time": 1559, "pitch": 86, "duration": 1, "velocity": 95}, {"time": 1560, "pitch": 88, "duration": 1, "velocity": 93}, {"time": 1560, "pitch": 91, "duration": 1, "velocity": 92}, {"time": 1561, "pitch": 93, "duration": 1, "velocity": 88}, {"time": 1562, "pitch": 96, "duration": 1, "velocity": 88}, {"time": 1921, "pitch": 45, "duration": 1, "velocity": 67}, {"time": 1922, "pitch": 48, "duration": 1, "velocity": 57}, {"time": 1923, "pitch": 50, "duration": 1, "velocity": 41}, {"time": 1924, "pitch": 52, "duration": 1, "velocity": 41}, {"time": 1925, "pitch": 55, "duration": 1, "velocity": 38}, {"time": 1926, "pitch": 57, "duration": 1, "velocity": 67}, {"time": 1927, "pitch": 60, "duration": 2, "velocity": 39}, {"time": 1929, "pitch": 62, "duration": 1, "velocity": 41}, {"time": 1930, "pitch": 64, "duration": 1, "velocity": 45}, {"time": 1931, "pitch": 67, "duration": 1, "velocity": 50}, {"time": 1932, "pitch": 69, "duration": 1, "velocity": 41}, {"time": 1933, "pitch": 72, "duration": 1, "velocity": 58}, {"time": 1934, "pitch": 74, "duration": 1, "velocity": 50}, {"time": 1935, "pitch": 76, "duration": 1, "velocity": 55}, {"time": 1935, "pitch": 79, "duration": 1, "velocity": 79}, {"time": 1936, "pitch": 81, "duration": 1, "velocity": 64}, {"time": 1937, "pitch": 84, "duration": 1, "velocity": 85}, {"time": 1938, "pitch": 86, "duration": 1, "velocity": 72}, {"time": 1939, "pitch": 71, "duration": 5, "velocity": 97}, {"time": 1939, "pitch": 88, "duration": 1, "velocity": 77}, {"time": 1940, "pitch": 91, "duration": 1, "velocity": 93}, {"time": 1941, "pitch": 93, "duration": 1, "velocity": 61}, {"time": 1945, "pitch": 78, "duration": 17, "velocity": 122}, {"time": 1963, "pitch": 76, "duration": 6, "velocity": 112}, {"time": 1969, "pitch": 74, "duration": 19, "velocity": 127}, {"time": 1987, "pitch": 71, "duration": 5, "velocity": 99}, {"time": 1993, "pitch": 76, "duration": 4, "velocity": 102}, {"time": 1999, "pitch": 76, "duration": 11, "velocity": 99}, {"time": 2011, "pitch": 74, "duration": 5, "velocity": 117}, {"time": 2017, "pitch": 71, "duration": 19, "velocity": 100}, {"time": 2041, "pitch": 73, "duration": 6, "velocity": 127}, {"time": 2050, "pitch": 73, "duration": 1, "velocity": 117}, {"time": 2053, "pitch": 73, "duration": 3, "velocity": 127}, {"time": 2059, "pitch": 71, "duration": 3, "velocity": 112}, {"time": 2065, "pitch": 71, "duration": 4, "velocity": 122}, {"time": 2071, "pitch": 69, "duration": 4, "velocity": 100}, {"time": 2077, "pitch": 69, "duration": 5, "velocity": 107}, {"time": 2083, "pitch": 71, "duration": 4, "velocity": 127}, {"time": 2089, "pitch": 69, "duration": 4, "velocity": 122}, {"time": 2095, "pitch": 66, "duration": 26, "velocity": 122}, {"time": 2137, "pitch": 64, "duration": 4, "velocity": 112}, {"time": 2143, "pitch": 64, "duration": 4, "velocity": 102}, {"time": 2149, "pitch": 64, "duration": 4, "velocity": 100}, {"time": 2155, "pitch": 62, "duration": 5, "velocity": 96}, {"time": 2161, "pitch": 64, "duration": 16, "velocity": 127}, {"time": 2185, "pitch": 66, "duration": 5, "velocity": 127}, {"time": 2191, "pitch": 69, "duration": 4, "velocity": 92}, {"time": 2197, "pitch": 69, "duration": 4, "velocity": 95}, {"time": 2203, "pitch": 66, "duration": 4, "velocity": 112}, {"time": 2209, "pitch": 71, "duration": 12, "velocity": 112}, {"time": 2221, "pitch": 71, "duration": 4, "velocity": 102}, {"time": 2227, "pitch": 74, "duration": 5, "velocity": 102}, {"time": 2233, "pitch": 76, "duration": 9, "velocity": 97}, {"time": 2242, "pitch": 76, "duration": 1, "velocity": 95}, {"time": 2245, "pitch": 76, "duration": 4, "velocity": 96}, {"time": 2251, "pitch": 78, "duration": 5, "velocity": 117}, {"time": 2257, "pitch": 73, "duration": 9, "velocity": 122}, {"time": 2263, "pitch": 69, "duration": 5, "velocity": 99}, {"time": 2269, "pitch": 66, "duration": 6, "velocity": 102}, {"time": 2275, "pitch": 69, "duration": 5, "velocity": 112}, {"time": 2281, "pitch": 71, "duration": 43, "velocity": 117}, {"time": 2401, "pitch": 66, "duration": 6, "velocity": 107}, {"time": 2407, "pitch": 69, "duration": 3, "velocity": 90}, {"time": 2410, "pitch": 71, "duration": 3, "velocity": 86}, {"time": 2413, "pitch": 74, "duration": 5, "velocity": 99}, {"time": 2419, "pitch": 73, "duration": 6, "velocity": 107}, {"time": 2425, "pitch": 71, "duration": 32, "velocity": 117}, {"time": 2497, "pitch": 73, "duration": 5, "velocity": 127}, {"time": 2503, "pitch": 71, "duration": 3, "velocity": 107}, {"time": 2506, "pitch": 69, "duration": 1, "velocity": 81}, {"time": 2509, "pitch": 69, "duration": 7, "velocity": 107}, {"time": 2515, "pitch": 66, "duration": 6, "velocity": 122}, {"time": 2521, "pitch": 64, "duration": 30, "velocity": 100}, {"time": 2551, "pitch": 71, "duration": 6, "velocity": 96}, {"time": 2557, "pitch": 74, "duration": 5, "velocity": 95}, {"time": 2563, "pitch": 78, "duration": 19, "velocity": 82}, {"time": 2599, "pitch": 74, "duration": 6, "velocity": 90}, {"time": 2605, "pitch": 78, "duration": 6, "velocity": 99}, {"time": 2611, "pitch": 83, "duration": 13, "velocity": 100}, {"time": 2689, "pitch": 66, "duration": 5, "velocity": 122}, {"time": 2695, "pitch": 69, "duration": 3, "velocity": 90}, {"time": 2698, "pitch": 71, "duration": 2, "velocity": 102}, {"time": 2701, "pitch": 74, "duration": 6, "velocity": 100}, {"time": 2707, "pitch": 76, "duration": 5, "velocity": 122}, {"time": 2713, "pitch": 78, "duration": 35, "velocity": 112}, {"time": 3001, "pitch": 76, "duration": 14, "velocity": 112}, {"time": 3019, "pitch": 78, "duration": 5, "velocity": 107}, {"time": 3025, "pitch": 73, "duration": 17, "velocity": 107}, {"time": 3043, "pitch": 69, "duration": 6, "velocity": 96}, {"time": 3049, "pitch": 71, "duration": 26, "velocity": 99}, {"time": 3077, "pitch": 48, "duration": 1, "velocity": 52}, {"time": 3078, "pitch": 50, "duration": 1, "velocity": 45}, {"time": 3079, "pitch": 52, "duration": 1, "velocity": 45}, {"time": 3080, "pitch": 55, "duration": 1, "velocity": 76}, {"time": 3081, "pitch": 57, "duration": 1, "velocity": 63}, {"time": 3081, "pitch": 60, "duration": 1, "velocity": 79}, {"time": 3082, "pitch": 62, "duration": 1, "velocity": 51}, {"time": 3083, "pitch": 64, "duration": 1, "velocity": 53}, {"time": 3084, "pitch": 67, "duration": 1, "velocity": 74}, {"time": 3085, "pitch": 69, "duration": 1, "velocity": 50}, {"time": 3086, "pitch": 72, "duration": 1, "velocity": 74}, {"time": 3087, "pitch": 74, "duration": 1, "velocity": 66}, {"time": 3088, "pitch": 76, "duration": 1, "velocity": 69}, {"time": 3089, "pitch": 79, "duration": 1, "velocity": 86}, {"time": 3090, "pitch": 81, "duration": 1, "velocity": 81}, {"time": 3091, "pitch": 84, "duration": 1, "velocity": 90}, {"time": 3091, "pitch": 86, "duration": 1, "velocity": 89}, {"time": 3092, "pitch": 88, "duration": 1, "velocity": 85}, {"time": 3093, "pitch": 91, "duration": 1, "velocity": 75}, {"time": 3094, "pitch": 93, "duration": 1, "velocity": 73}, {"time": 3095, "pitch": 96, "duration": 1, "velocity": 44}, {"time": 3096, "pitch": 98, "duration": 1, "velocity": 72}, {"time": 3462, "pitch": 47, "duration": 1, "velocity": 73}, {"time": 3462, "pitch": 50, "duration": 1, "velocity": 93}, {"time": 3463, "pitch": 52, "duration": 1, "velocity": 47}, {"time": 3464, "pitch": 54, "duration": 1, "velocity": 44}, {"time": 3465, "pitch": 57, "duration": 1, "velocity": 81}, {"time": 3466, "pitch": 59, "duration": 1, "velocity": 42}, {"time": 3467, "pitch": 62, "duration": 1, "velocity": 44}, {"time": 3468, "pitch": 64, "duration": 1, "velocity": 45}, {"time": 3468, "pitch": 66, "duration": 1, "velocity": 48}, {"time": 3469, "pitch": 69, "duration": 1, "velocity": 93}, {"time": 3470, "pitch": 71, "duration": 1, "velocity": 55}, {"time": 3470, "pitch": 74, "duration": 1, "velocity": 63}, {"time": 3471, "pitch": 76, "duration": 1, "velocity": 47}, {"time": 3472, "pitch": 78, "duration": 1, "velocity": 45}, {"time": 3473, "pitch": 81, "duration": 1, "velocity": 82}, {"time": 3474, "pitch": 83, "duration": 1, "velocity": 66}, {"time": 3474, "pitch": 86, "duration": 2, "velocity": 93}, {"time": 3476, "pitch": 88, "duration": 1, "velocity": 56}, {"time": 3476, "pitch": 90, "duration": 1, "velocity": 65}, {"time": 3477, "pitch": 93, "duration": 2, "velocity": 95}, {"time": 3478, "pitch": 95, "duration": 2, "velocity": 95}, {"time": 3480, "pitch": 98, "duration": 1, "velocity": 41}, {"time": 3557, "pitch": 45, "duration": 1, "velocity": 43}, {"time": 3557, "pitch": 47, "duration": 1, "velocity": 82}, {"time": 3558, "pitch": 50, "duration": 1, "velocity": 79}, {"time": 3559, "pitch": 52, "duration": 1, "velocity": 61}, {"time": 3559, "pitch": 54, "duration": 1, "velocity": 43}, {"time": 3560, "pitch": 57, "duration": 1, "velocity": 77}, {"time": 3561, "pitch": 59, "duration": 1, "velocity": 39}, {"time": 3562, "pitch": 62, "duration": 1, "velocity": 72}, {"time": 3563, "pitch": 64, "duration": 1, "velocity": 58}, {"time": 3564, "pitch": 52, "duration": 1, "velocity": 81}, {"time": 3564, "pitch": 66, "duration": 1, "velocity": 61}, {"time": 3564, "pitch": 54, "duration": 1, "velocity": 89}, {"time": 3565, "pitch": 69, "duration": 1, "velocity": 79}, {"time": 3565, "pitch": 57, "duration": 1, "velocity": 102}, {"time": 3566, "pitch": 71, "duration": 1, "velocity": 63}, {"time": 3566, "pitch": 59, "duration": 1, "velocity": 112}, {"time": 3567, "pitch": 74, "duration": 1, "velocity": 82}, {"time": 3567, "pitch": 62, "duration": 1, "velocity": 97}, {"time": 3568, "pitch": 76, "duration": 1, "velocity": 57}, {"time": 3568, "pitch": 64, "duration": 1, "velocity": 99}, {"time": 3568, "pitch": 78, "duration": 1, "velocity": 62}, {"time": 3569, "pitch": 66, "duration": 1, "velocity": 99}, {"time": 3569, "pitch": 81, "duration": 1, "velocity": 89}, {"time": 3570, "pitch": 69, "duration": 1, "velocity": 90}, {"time": 3570, "pitch": 83, "duration": 1, "velocity": 69}, {"time": 3571, "pitch": 71, "duration": 1, "velocity": 97}, {"time": 3571, "pitch": 86, "duration": 1, "velocity": 89}, {"time": 3572, "pitch": 74, "duration": 1, "velocity": 79}, {"time": 3572, "pitch": 88, "duration": 1, "velocity": 78}, {"time": 3573, "pitch": 76, "duration": 1, "velocity": 96}, {"time": 3573, "pitch": 90, "duration": 1, "velocity": 83}, {"time": 3574, "pitch": 78, "duration": 1, "velocity": 95}, {"time": 3574, "pitch": 93, "duration": 1, "velocity": 99}, {"time": 3575, "pitch": 95, "duration": 1, "velocity": 93}, {"time": 3575, "pitch": 81, "duration": 1, "velocity": 47}, {"time": 3576, "pitch": 83, "duration": 1, "velocity": 92}, {"time": 3576, "pitch": 98, "duration": 1, "velocity": 67}, {"time": 3577, "pitch": 100, "duration": 1, "velocity": 69}, {"time": 3577, "pitch": 86, "duration": 1, "velocity": 48}, {"time": 3578, "pitch": 102, "duration": 1, "velocity": 55}, {"time": 3578, "pitch": 88, "duration": 1, "velocity": 93}], "annotations": [{"time": 23, "annotation": {"number": 64, "value": 0}, "group": "control_change"}, {"time": 1552, "annotation": {"number": 64, "value": 127}, "group": "control_change"}, {"time": 1562, "annotation": {"number": 64, "value": 0}, "group": "control_change"}, {"time": 1914, "annotation": {"number": 64, "value": 127}, "group": "control_change"}, {"time": 1943, "annotation": {"number": 64, "value": 0}, "group": "control_change"}, {"time": 3073, "annotation": {"number": 64, "value": 127}, "group": "control_change"}, {"time": 3097, "annotation": {"number": 64, "value": 0}, "group": "control_change"}, {"time": 3458, "annotation": {"number": 64, "value": 127}, "group": "control_change"}, {"time": 3482, "annotation": {"number": 64, "value": 0}, "group": "control_change"}, {"time": 3503, "annotation": {"number": 64, "value": 127}, "group": "control_change"}, {"time": 3514, "annotation": {"number": 64, "value": 0}, "group": "control_change"}, {"time": 3528, "annotation": {"number": 64, "value": 127}, "group": "control_change"}, {"time": 3555, "annotation": {"number": 64, "value": 0}, "group": "control_change"}, {"time": 3557, "annotation": {"number": 64, "value": 127}, "group": "control_change"}, {"time": 3574, "annotation": {"number": 64, "value": 0}, "group": "control_change"}, {"time": 3628, "annotation": {"number": 64, "value": 127}, "group": "control_change"}, {"time": 3635, "annotation": {"number": 64, "value": 0}, "group": "control_change"}]}, {"program": 0, "is_drum": false, "name": "PIANO", "notes": [{"time": 25, "pitch": 43, "duration": 22, "velocity": 86}, {"time": 31, "pitch": 50, "duration": 18, "velocity": 45}, {"time": 34, "pitch": 59, "duration": 3, "velocity": 67}, {"time": 37, "pitch": 62, "duration": 13, "velocity": 82}, {"time": 43, "pitch": 59, "duration": 7, "velocity": 66}, {"time": 49, "pitch": 43, "duration": 17, "velocity": 71}, {"time": 55, "pitch": 50, "duration": 12, "velocity": 55}, {"time": 61, "pitch": 67, "duration": 11, "velocity": 82}, {"time": 61, "pitch": 71, "duration": 11, "velocity": 89}, {"time": 67, "pitch": 62, "duration": 6, "velocity": 63}, {"time": 73, "pitch": 45, "duration": 14, "velocity": 75}, {"time": 79, "pitch": 52, "duration": 10, "velocity": 59}, {"time": 82, "pitch": 57, "duration": 5, "velocity": 41}, {"time": 85, "pitch": 64, "duration": 12, "velocity": 93}, {"time": 91, "pitch": 61, "duration": 6, "velocity": 53}, {"time": 97, "pitch": 47, "duration": 17, "velocity": 71}, {"time": 103, "pitch": 54, "duration": 10, "velocity": 68}, {"time": 109, "pitch": 66, "duration": 12, "velocity": 112}, {"time": 115, "pitch": 62, "duration": 6, "velocity": 65}, {"time": 118, "pitch": 59, "duration": 3, "velocity": 69}, {"time": 121, "pitch": 45, "duration": 18, "velocity": 78}, {"time": 127, "pitch": 52, "duration": 6, "velocity": 52}, {"time": 133, "pitch": 64, "duration": 11, "velocity": 85}, {"time": 136, "pitch": 52, "duration": 2, "velocity": 46}, {"time": 139, "pitch": 61, "duration": 4, "velocity": 86}, {"time": 142, "pitch": 57, "duration": 3, "velocity": 58}, {"time": 145, "pitch": 40, "duration": 21, "velocity": 76}, {"time": 151, "pitch": 47, "duration": 15, "velocity": 47}, {"time": 154, "pitch": 59, "duration": 4, "velocity": 59}, {"time": 157, "pitch": 67, "duration": 12, "velocity": 93}, {"time": 163, "pitch": 64, "duration": 6, "velocity": 59}, {"time": 169, "pitch": 42, "duration": 22, "velocity": 85}, {"time": 175, "pitch": 54, "duration": 18, "velocity": 76}, {"time": 178, "pitch": 57, "duration": 2, "velocity": 78}, {"time": 181, "pitch": 61, "duration": 21, "velocity": 89}, {"time": 181, "pitch": 66, "duration": 21, "velocity": 99}, {"time": 187, "pitch": 57, "duration": 16, "velocity": 75}, {"time": 193, "pitch": 42, "duration": 17, "velocity": 67}, {"time": 205, "pitch": 61, "duration": 11, "velocity": 97}, {"time": 205, "pitch": 66, "duration": 7, "velocity": 102}, {"time": 211, "pitch": 57, "duration": 6, "velocity": 69}, {"time": 217, "pitch": 40, "duration": 20, "velocity": 89}, {"time": 223, "pitch": 47, "duration": 18, "velocity": 55}, {"time": 226, "pitch": 52, "duration": 7, "velocity": 70}, {"time": 229, "pitch": 67, "duration": 9, "velocity": 83}, {"time": 229, "pitch": 71, "duration": 9, "velocity": 90}, {"time": 235, "pitch": 64, "duration": 5, "velocity": 74}, {"time": 241, "pitch": 40, "duration": 13, "velocity": 68}, {"time": 241, "pitch": 64, "duration": 13, "velocity": 78}, {"time": 241, "pitch": 67, "duration": 13, "velocity": 79}, {"time": 241, "pitch": 71, "duration": 14, "velocity": 81}, {"time": 265, "pitch": 42, "duration": 15, "velocity": 107}, {"time": 271, "pitch": 54, "duration": 12, "velocity": 40}, {"time": 277, "pitch": 61, "duration": 10, "velocity": 102}, {"time": 277, "pitch": 66, "duration": 7, "velocity": 93}, {"time": 283, "pitch": 57, "duration": 3, "velocity": 72}, {"time": 289, "pitch": 47, "duration": 14, "velocity": 69}, {"time": 289, "pitch": 59, "duration": 15, "velocity": 59}, {"time": 289, "pitch": 62, "duration": 14, "velocity": 72}, {"time": 289, "pitch": 66, "duration": 15, "velocity": 69}, {"time": 313, "pitch": 40, "duration": 16, "velocity": 90}, {"time": 319, "pitch": 47, "duration": 11, "velocity": 55}, {"time": 322, "pitch": 59, "duration": 3, "velocity": 62}, {"time": 325, "pitch": 64, "duration": 11, "velocity": 78}, {"time": 325, "pitch": 67, "duration": 11, "velocity": 89}, {"time": 331, "pitch": 59, "duration": 7, "velocity": 72}, {"time": 337, "pitch": 42, "duration": 14, "velocity": 79}, {"time": 343, "pitch": 54, "duration": 10, "velocity": 70}, {"time": 346, "pitch": 57, "duration": 3, "velocity": 58}, {"time": 349, "pitch": 61, "duration": 12, "velocity": 82}, {"time": 349, "pitch": 66, "duration": 13, "velocity": 95}, {"time": 355, "pitch": 57, "duration": 6, "velocity": 71}, {"time": 361, "pitch": 47, "duration": 46, "velocity": 72}, {"time": 367, "pitch": 54, "duration": 42, "velocity": 61}, {"time": 373, "pitch": 62, "duration": 21, "velocity": 90}, {"time": 376, "pitch": 66, "duration": 35, "velocity": 35}, {"time": 379, "pitch": 61, "duration": 16, "velocity": 74}, {"time": 385, "pitch": 59, "duration": 13, "velocity": 70}, {"time": 397, "pitch": 62, "duration": 12, "velocity": 72}, {"time": 403, "pitch": 61, "duration": 6, "velocity": 63}, {"time": 409, "pitch": 47, "duration": 20, "velocity": 82}, {"time": 415, "pitch": 54, "duration": 8, "velocity": 66}, {"time": 421, "pitch": 66, "duration": 12, "velocity": 95}, {"time": 427, "pitch": 62, "duration": 6, "velocity": 89}, {"time": 433, "pitch": 40, "duration": 15, "velocity": 76}, {"time": 439, "pitch": 59, "duration": 20, "velocity": 59}, {"time": 445, "pitch": 67, "duration": 12, "velocity": 93}, {"time": 451, "pitch": 64, "duration": 5, "velocity": 55}, {"time": 457, "pitch": 47, "duration": 22, "velocity": 85}, {"time": 463, "pitch": 54, "duration": 18, "velocity": 44}, {"time": 469, "pitch": 62, "duration": 20, "velocity": 59}, {"time": 469, "pitch": 66, "duration": 19, "velocity": 112}, {"time": 475, "pitch": 59, "duration": 12, "velocity": 66}, {"time": 481, "pitch": 47, "duration": 17, "velocity": 69}, {"time": 487, "pitch": 54, "duration": 8, "velocity": 48}, {"time": 490, "pitch": 59, "duration": 4, "velocity": 61}, {"time": 493, "pitch": 66, "duration": 13, "velocity": 107}, {"time": 499, "pitch": 62, "duration": 7, "velocity": 53}, {"time": 505, "pitch": 43, "duration": 21, "velocity": 74}, {"time": 511, "pitch": 50, "duration": 16, "velocity": 68}, {"time": 517, "pitch": 62, "duration": 18, "velocity": 95}, {"time": 523, "pitch": 59, "duration": 9, "velocity": 74}, {"time": 529, "pitch": 43, "duration": 15, "velocity": 69}, {"time": 535, "pitch": 50, "duration": 8, "velocity": 66}, {"time": 541, "pitch": 62, "duration": 10, "velocity": 96}, {"time": 547, "pitch": 59, "duration": 6, "velocity": 45}, {"time": 553, "pitch": 42, "duration": 41, "velocity": 89}, {"time": 559, "pitch": 54, "duration": 32, "velocity": 57}, {"time": 565, "pitch": 66, "duration": 22, "velocity": 93}, {"time": 571, "pitch": 61, "duration": 16, "velocity": 86}, {"time": 577, "pitch": 57, "duration": 11, "velocity": 83}, {"time": 589, "pitch": 61, "duration": 11, "velocity": 97}, {"time": 589, "pitch": 66, "duration": 11, "velocity": 100}, {"time": 595, "pitch": 57, "duration": 6, "velocity": 81}, {"time": 601, "pitch": 40, "duration": 16, "velocity": 70}, {"time": 607, "pitch": 47, "duration": 11, "velocity": 56}, {"time": 613, "pitch": 64, "duration": 12, "velocity": 70}, {"time": 613, "pitch": 67, "duration": 12, "velocity": 69}, {"time": 619, "pitch": 59, "duration": 7, "velocity": 42}, {"time": 625, "pitch": 42, "duration": 20, "velocity": 99}, {"time": 631, "pitch": 54, "duration": 13, "velocity": 73}, {"time": 637, "pitch": 66, "duration": 10, "velocity": 102}, {"time": 643, "pitch": 61, "duration": 5, "velocity": 75}, {"time": 649, "pitch": 43, "duration": 11, "velocity": 83}, {"time": 655, "pitch": 55, "duration": 6, "velocity": 85}, {"time": 661, "pitch": 45, "duration": 7, "velocity": 66}, {"time": 667, "pitch": 57, "duration": 7, "velocity": 79}, {"time": 673, "pitch": 47, "duration": 15, "velocity": 79}, {"time": 679, "pitch": 54, "duration": 7, "velocity": 56}, {"time": 685, "pitch": 62, "duration": 16, "velocity": 69}, {"time": 685, "pitch": 66, "duration": 11, "velocity": 90}, {"time": 697, "pitch": 40, "duration": 14, "velocity": 82}, {"time": 703, "pitch": 47, "duration": 8, "velocity": 76}, {"time": 709, "pitch": 64, "duration": 11, "velocity": 92}, {"time": 709, "pitch": 67, "duration": 11, "velocity": 90}, {"time": 715, "pitch": 59, "duration": 7, "velocity": 60}, {"time": 721, "pitch": 42, "duration": 13, "velocity": 89}, {"time": 727, "pitch": 54, "duration": 10, "velocity": 76}, {"time": 733, "pitch": 61, "duration": 12, "velocity": 89}, {"time": 733, "pitch": 66, "duration": 13, "velocity": 96}, {"time": 739, "pitch": 57, "duration": 6, "velocity": 66}, {"time": 745, "pitch": 47, "duration": 44, "velocity": 76}, {"time": 751, "pitch": 54, "duration": 33, "velocity": 50}, {"time": 757, "pitch": 61, "duration": 23, "velocity": 95}, {"time": 763, "pitch": 62, "duration": 17, "velocity": 61}, {"time": 769, "pitch": 59, "duration": 13, "velocity": 47}, {"time": 769, "pitch": 66, "duration": 10, "velocity": 24}, {"time": 781, "pitch": 62, "duration": 13, "velocity": 59}, {"time": 781, "pitch": 66, "duration": 13, "velocity": 67}, {"time": 787, "pitch": 61, "duration": 7, "velocity": 74}, {"time": 790, "pitch": 54, "duration": 2, "velocity": 12}, {"time": 793, "pitch": 47, "duration": 22, "velocity": 89}, {"time": 799, "pitch": 54, "duration": 15, "velocity": 48}, {"time": 805, "pitch": 62, "duration": 11, "velocity": 93}, {"time": 805, "pitch": 66, "duration": 11, "velocity": 100}, {"time": 811, "pitch": 59, "duration": 5, "velocity": 88}, {"time": 817, "pitch": 45, "duration": 15, "velocity": 86}, {"time": 823, "pitch": 57, "duration": 7, "velocity": 70}, {"time": 829, "pitch": 61, "duration": 11, "velocity": 86}, {"time": 829, "pitch": 64, "duration": 12, "velocity": 93}, {"time": 841, "pitch": 47, "duration": 22, "velocity": 83}, {"time": 847, "pitch": 54, "duration": 18, "velocity": 78}, {"time": 853, "pitch": 62, "duration": 19, "velocity": 81}, {"time": 853, "pitch": 66, "duration": 20, "velocity": 100}, {"time": 859, "pitch": 59, "duration": 13, "velocity": 69}, {"time": 865, "pitch": 47, "duration": 18, "velocity": 68}, {"time": 871, "pitch": 54, "duration": 7, "velocity": 48}, {"time": 877, "pitch": 66, "duration": 13, "velocity": 112}, {"time": 883, "pitch": 62, "duration": 6, "velocity": 92}, {"time": 889, "pitch": 43, "duration": 13, "velocity": 89}, {"time": 895, "pitch": 50, "duration": 7, "velocity": 61}, {"time": 901, "pitch": 59, "duration": 11, "velocity": 88}, {"time": 901, "pitch": 62, "duration": 11, "velocity": 93}, {"time": 907, "pitch": 55, "duration": 5, "velocity": 79}, {"time": 913, "pitch": 40, "duration": 18, "velocity": 76}, {"time": 919, "pitch": 52, "duration": 14, "velocity": 53}, {"time": 925, "pitch": 64, "duration": 11, "velocity": 86}, {"time": 925, "pitch": 67, "duration": 11, "velocity": 79}, {"time": 937, "pitch": 42, "duration": 22, "velocity": 97}, {"time": 943, "pitch": 54, "duration": 20, "velocity": 65}, {"time": 949, "pitch": 66, "duration": 36, "velocity": 96}, {"time": 955, "pitch": 61, "duration": 16, "velocity": 100}, {"time": 961, "pitch": 42, "duration": 15, "velocity": 73}, {"time": 973, "pitch": 61, "duration": 12, "velocity": 97}, {"time": 979, "pitch": 57, "duration": 6, "velocity": 88}, {"time": 985, "pitch": 40, "duration": 16, "velocity": 85}, {"time": 991, "pitch": 47, "duration": 11, "velocity": 64}, {"time": 997, "pitch": 64, "duration": 11, "velocity": 88}, {"time": 1003, "pitch": 59, "duration": 8, "velocity": 71}, {"time": 1009, "pitch": 42, "duration": 15, "velocity": 96}, {"time": 1015, "pitch": 54, "duration": 9, "velocity": 70}, {"time": 1021, "pitch": 66, "duration": 10, "velocity": 99}, {"time": 1027, "pitch": 61, "duration": 4, "velocity": 95}, {"time": 1033, "pitch": 43, "duration": 11, "velocity": 77}, {"time": 1039, "pitch": 55, "duration": 6, "velocity": 93}, {"time": 1045, "pitch": 45, "duration": 7, "velocity": 83}, {"time": 1051, "pitch": 57, "duration": 6, "velocity": 88}, {"time": 1057, "pitch": 47, "duration": 16, "velocity": 66}, {"time": 1063, "pitch": 54, "duration": 8, "velocity": 53}, {"time": 1069, "pitch": 62, "duration": 17, "velocity": 81}, {"time": 1069, "pitch": 66, "duration": 10, "velocity": 90}, {"time": 1075, "pitch": 59, "duration": 10, "velocity": 72}, {"time": 1081, "pitch": 40, "duration": 15, "velocity": 73}, {"time": 1087, "pitch": 47, "duration": 9, "velocity": 61}, {"time": 1093, "pitch": 64, "duration": 11, "velocity": 72}, {"time": 1093, "pitch": 67, "duration": 12, "velocity": 77}, {"time": 1099, "pitch": 59, "duration": 7, "velocity": 72}, {"time": 1105, "pitch": 42, "duration": 15, "velocity": 90}, {"time": 1111, "pitch": 54, "duration": 11, "velocity": 71}, {"time": 1117, "pitch": 61, "duration": 12, "velocity": 107}, {"time": 1123, "pitch": 57, "duration": 7, "velocity": 89}, {"time": 1129, "pitch": 47, "duration": 22, "velocity": 72}, {"time": 1135, "pitch": 54, "duration": 17, "velocity": 85}, {"time": 1141, "pitch": 62, "duration": 5, "velocity": 96}, {"time": 1147, "pitch": 61, "duration": 5, "velocity": 90}, {"time": 1153, "pitch": 47, "duration": 18, "velocity": 86}, {"time": 1153, "pitch": 59, "duration": 7, "velocity": 92}, {"time": 1153, "pitch": 62, "duration": 10, "velocity": 102}, {"time": 1153, "pitch": 66, "duration": 7, "velocity": 112}, {"time": 1159, "pitch": 54, "duration": 7, "velocity": 107}, {"time": 1165, "pitch": 61, "duration": 10, "velocity": 127}, {"time": 1165, "pitch": 62, "duration": 10, "velocity": 127}, {"time": 1165, "pitch": 66, "duration": 6, "velocity": 127}, {"time": 1168, "pitch": 54, "duration": 1, "velocity": 99}, {"time": 1177, "pitch": 43, "duration": 22, "velocity": 90}, {"time": 1177, "pitch": 55, "duration": 4, "velocity": 97}, {"time": 1177, "pitch": 59, "duration": 4, "velocity": 107}, {"time": 1177, "pitch": 62, "duration": 5, "velocity": 107}, {"time": 1177, "pitch": 31, "duration": 22, "velocity": 90}, {"time": 1183, "pitch": 50, "duration": 9, "velocity": 53}, {"time": 1189, "pitch": 55, "duration": 7, "velocity": 63}, {"time": 1189, "pitch": 62, "duration": 10, "velocity": 107}, {"time": 1189, "pitch": 67, "duration": 10, "velocity": 117}, {"time": 1189, "pitch": 71, "duration": 10, "velocity": 117}, {"time": 1195, "pitch": 50, "duration": 7, "velocity": 38}, {"time": 1201, "pitch": 43, "duration": 17, "velocity": 76}, {"time": 1201, "pitch": 62, "duration": 6, "velocity": 99}, {"time": 1201, "pitch": 67, "duration": 5, "velocity": 112}, {"time": 1201, "pitch": 71, "duration": 4, "velocity": 100}, {"time": 1201, "pitch": 31, "duration": 17, "velocity": 76}, {"time": 1207, "pitch": 50, "duration": 6, "velocity": 54}, {"time": 1213, "pitch": 59, "duration": 6, "velocity": 95}, {"time": 1213, "pitch": 62, "duration": 6, "velocity": 99}, {"time": 1216, "pitch": 50, "duration": 8, "velocity": 93}, {"time": 1219, "pitch": 55, "duration": 3, "velocity": 73}, {"time": 1225, "pitch": 45, "duration": 20, "velocity": 82}, {"time": 1225, "pitch": 57, "duration": 3, "velocity": 95}, {"time": 1225, "pitch": 61, "duration": 3, "velocity": 107}, {"time": 1225, "pitch": 64, "duration": 3, "velocity": 93}, {"time": 1225, "pitch": 33, "duration": 20, "velocity": 82}, {"time": 1231, "pitch": 52, "duration": 8, "velocity": 53}, {"time": 1237, "pitch": 57, "duration": 7, "velocity": 85}, {"time": 1237, "pitch": 69, "duration": 5, "velocity": 107}, {"time": 1237, "pitch": 73, "duration": 5, "velocity": 117}, {"time": 1243, "pitch": 52, "duration": 6, "velocity": 74}, {"time": 1249, "pitch": 47, "duration": 18, "velocity": 89}, {"time": 1249, "pitch": 59, "duration": 9, "velocity": 88}, {"time": 1249, "pitch": 62, "duration": 6, "velocity": 89}, {"time": 1249, "pitch": 66, "duration": 8, "velocity": 96}, {"time": 1249, "pitch": 35, "duration": 18, "velocity": 89}, {"time": 1255, "pitch": 54, "duration": 7, "velocity": 89}, {"time": 1261, "pitch": 61, "duration": 5, "velocity": 127}, {"time": 1264, "pitch": 54, "duration": 2, "velocity": 81}, {"time": 1267, "pitch": 62, "duration": 5, "velocity": 93}, {"time": 1273, "pitch": 45, "duration": 19, "velocity": 82}, {"time": 1273, "pitch": 57, "duration": 9, "velocity": 99}, {"time": 1273, "pitch": 61, "duration": 10, "velocity": 77}, {"time": 1273, "pitch": 64, "duration": 9, "velocity": 79}, {"time": 1273, "pitch": 33, "duration": 19, "velocity": 82}, {"time": 1279, "pitch": 52, "duration": 8, "velocity": 74}, {"time": 1285, "pitch": 57, "duration": 6, "velocity": 90}, {"time": 1285, "pitch": 61, "duration": 6, "velocity": 122}, {"time": 1285, "pitch": 64, "duration": 5, "velocity": 95}, {"time": 1291, "pitch": 52, "duration": 1, "velocity": 72}, {"time": 1297, "pitch": 40, "duration": 17, "velocity": 76}, {"time": 1297, "pitch": 59, "duration": 10, "velocity": 102}, {"time": 1297, "pitch": 64, "duration": 10, "velocity": 99}, {"time": 1297, "pitch": 67, "duration": 10, "velocity": 97}, {"time": 1297, "pitch": 28, "duration": 17, "velocity": 76}, {"time": 1303, "pitch": 47, "duration": 7, "velocity": 51}, {"time": 1303, "pitch": 35, "duration": 7, "velocity": 51}, {"time": 1309, "pitch": 59, "duration": 4, "velocity": 92}, {"time": 1309, "pitch": 64, "duration": 6, "velocity": 107}, {"time": 1309, "pitch": 67, "duration": 6, "velocity": 100}, {"time": 1312, "pitch": 47, "duration": 2, "velocity": 78}, {"time": 1312, "pitch": 35, "duration": 2, "velocity": 78}, {"time": 1315, "pitch": 59, "duration": 2, "velocity": 92}, {"time": 1321, "pitch": 42, "duration": 22, "velocity": 112}, {"time": 1321, "pitch": 57, "duration": 10, "velocity": 96}, {"time": 1321, "pitch": 61, "duration": 10, "velocity": 117}, {"time": 1321, "pitch": 66, "duration": 8, "velocity": 107}, {"time": 1321, "pitch": 30, "duration": 22, "velocity": 112}, {"time": 1327, "pitch": 54, "duration": 7, "velocity": 88}, {"time": 1333, "pitch": 57, "duration": 6, "velocity": 86}, {"time": 1333, "pitch": 61, "duration": 3, "velocity": 127}, {"time": 1333, "pitch": 66, "duration": 3, "velocity": 122}, {"time": 1339, "pitch": 54, "duration": 5, "velocity": 70}, {"time": 1342, "pitch": 57, "duration": 1, "velocity": 88}, {"time": 1342, "pitch": 69, "duration": 1, "velocity": 76}, {"time": 1345, "pitch": 42, "duration": 10, "velocity": 117}, {"time": 1345, "pitch": 57, "duration": 2, "velocity": 122}, {"time": 1345, "pitch": 69, "duration": 2, "velocity": 95}, {"time": 1345, "pitch": 30, "duration": 10, "velocity": 117}, {"time": 1351, "pitch": 54, "duration": 7, "velocity": 76}, {"time": 1354, "pitch": 61, "duration": 1, "velocity": 117}, {"time": 1354, "pitch": 73, "duration": 1, "velocity": 95}, {"time": 1357, "pitch": 42, "duration": 6, "velocity": 96}, {"time": 1357, "pitch": 61, "duration": 5, "velocity": 127}, {"time": 1357, "pitch": 73, "duration": 4, "velocity": 100}, {"time": 1357, "pitch": 30, "duration": 6, "velocity": 96}, {"time": 1363, "pitch": 54, "duration": 1, "velocity": 112}, {"time": 1369, "pitch": 40, "duration": 19, "velocity": 78}, {"time": 1369, "pitch": 64, "duration": 6, "velocity": 95}, {"time": 1369, "pitch": 67, "duration": 4, "velocity": 92}, {"time": 1369, "pitch": 71, "duration": 5, "velocity": 88}, {"time": 1369, "pitch": 28, "duration": 19, "velocity": 78}, {"time": 1375, "pitch": 47, "duration": 9, "velocity": 60}, {"time": 1375, "pitch": 35, "duration": 9, "velocity": 60}, {"time": 1381, "pitch": 59, "duration": 9, "velocity": 96}, {"time": 1381, "pitch": 64, "duration": 5, "velocity": 90}, {"time": 1381, "pitch": 67, "duration": 6, "velocity": 89}, {"time": 1387, "pitch": 47, "duration": 4, "velocity": 44}, {"time": 1387, "pitch": 35, "duration": 4, "velocity": 44}, {"time": 1393, "pitch": 40, "duration": 17, "velocity": 90}, {"time": 1393, "pitch": 28, "duration": 17, "velocity": 90}, {"time": 1399, "pitch": 47, "duration": 12, "velocity": 50}, {"time": 1399, "pitch": 35, "duration": 12, "velocity": 50}, {"time": 1405, "pitch": 59, "duration": 4, "velocity": 95}, {"time": 1405, "pitch": 64, "duration": 6, "velocity": 95}, {"time": 1405, "pitch": 67, "duration": 6, "velocity": 92}, {"time": 1411, "pitch": 59, "duration": 2, "velocity": 71}, {"time": 1417, "pitch": 42, "duration": 16, "velocity": 107}, {"time": 1417, "pitch": 57, "duration": 9, "velocity": 89}, {"time": 1417, "pitch": 61, "duration": 5, "velocity": 93}, {"time": 1417, "pitch": 30, "duration": 16, "velocity": 107}, {"time": 1423, "pitch": 54, "duration": 12, "velocity": 67}, {"time": 1429, "pitch": 61, "duration": 10, "velocity": 112}, {"time": 1429, "pitch": 66, "duration": 7, "velocity": 102}, {"time": 1435, "pitch": 57, "duration": 3, "velocity": 79}, {"time": 1441, "pitch": 47, "duration": 15, "velocity": 69}, {"time": 1441, "pitch": 59, "duration": 7, "velocity": 92}, {"time": 1441, "pitch": 62, "duration": 7, "velocity": 99}, {"time": 1441, "pitch": 66, "duration": 7, "velocity": 97}, {"time": 1441, "pitch": 35, "duration": 15, "velocity": 69}, {"time": 1447, "pitch": 54, "duration": 7, "velocity": 83}, {"time": 1453, "pitch": 62, "duration": 3, "velocity": 122}, {"time": 1456, "pitch": 61, "duration": 3, "velocity": 107}, {"time": 1459, "pitch": 59, "duration": 10, "velocity": 90}, {"time": 1465, "pitch": 40, "duration": 19, "velocity": 90}, {"time": 1465, "pitch": 55, "duration": 4, "velocity": 82}, {"time": 1465, "pitch": 28, "duration": 19, "velocity": 90}, {"time": 1477, "pitch": 59, "duration": 6, "velocity": 95}, {"time": 1477, "pitch": 64, "duration": 4, "velocity": 95}, {"time": 1477, "pitch": 67, "duration": 4, "velocity": 95}, {"time": 1483, "pitch": 52, "duration": 5, "velocity": 61}, {"time": 1489, "pitch": 42, "duration": 16, "velocity": 99}, {"time": 1489, "pitch": 57, "duration": 9, "velocity": 95}, {"time": 1489, "pitch": 61, "duration": 7, "velocity": 112}, {"time": 1489, "pitch": 66, "duration": 8, "velocity": 96}, {"time": 1489, "pitch": 30, "duration": 16, "velocity": 99}, {"time": 1495, "pitch": 54, "duration": 7, "velocity": 67}, {"time": 1501, "pitch": 62, "duration": 5, "velocity": 107}, {"time": 1504, "pitch": 54, "duration": 3, "velocity": 69}, {"time": 1507, "pitch": 61, "duration": 5, "velocity": 107}, {"time": 1513, "pitch": 47, "duration": 22, "velocity": 75}, {"time": 1513, "pitch": 59, "duration": 5, "velocity": 82}, {"time": 1513, "pitch": 62, "duration": 6, "velocity": 99}, {"time": 1513, "pitch": 66, "duration": 6, "velocity": 99}, {"time": 1513, "pitch": 35, "duration": 22, "velocity": 75}, {"time": 1519, "pitch": 54, "duration": 6, "velocity": 58}, {"time": 1525, "pitch": 61, "duration": 6, "velocity": 127}, {"time": 1528, "pitch": 54, "duration": 9, "velocity": 90}, {"time": 1531, "pitch": 62, "duration": 4, "velocity": 89}, {"time": 1534, "pitch": 61, "duration": 1, "velocity": 107}, {"time": 1537, "pitch": 47, "duration": 23, "velocity": 92}, {"time": 1537, "pitch": 59, "duration": 8, "velocity": 96}, {"time": 1537, "pitch": 61, "duration": 7, "velocity": 117}, {"time": 1537, "pitch": 62, "duration": 10, "velocity": 97}, {"time": 1537, "pitch": 66, "duration": 9, "velocity": 117}, {"time": 1537, "pitch": 35, "duration": 23, "velocity": 92}, {"time": 1543, "pitch": 54, "duration": 7, "velocity": 82}, {"time": 1549, "pitch": 62, "duration": 12, "velocity": 117}, {"time": 1549, "pitch": 66, "duration": 12, "velocity": 122}, {"time": 1552, "pitch": 54, "duration": 4, "velocity": 97}, {"time": 1555, "pitch": 61, "duration": 5, "velocity": 127}, {"time": 1561, "pitch": 43, "duration": 22, "velocity": 90}, {"time": 1561, "pitch": 55, "duration": 4, "velocity": 97}, {"time": 1561, "pitch": 59, "duration": 4, "velocity": 107}, {"time": 1561, "pitch": 61, "duration": 1, "velocity": 90}, {"time": 1561, "pitch": 62, "duration": 1, "velocity": 107}, {"time": 1561, "pitch": 31, "duration": 22, "velocity": 90}, {"time": 1567, "pitch": 50, "duration": 9, "velocity": 53}, {"time": 1573, "pitch": 55, "duration": 7, "velocity": 63}, {"time": 1573, "pitch": 62, "duration": 10, "velocity": 107}, {"time": 1573, "pitch": 67, "duration": 10, "velocity": 117}, {"time": 1573, "pitch": 71, "duration": 10, "velocity": 117}, {"time": 1579, "pitch": 50, "duration": 7, "velocity": 38}, {"time": 1585, "pitch": 43, "duration": 17, "velocity": 76}, {"time": 1585, "pitch": 62, "duration": 6, "velocity": 99}, {"time": 1585, "pitch": 67, "duration": 5, "velocity": 112}, {"time": 1585, "pitch": 71, "duration": 4, "velocity": 100}, {"time": 1585, "pitch": 31, "duration": 17, "velocity": 76}, {"time": 1591, "pitch": 50, "duration": 6, "velocity": 54}, {"time": 1597, "pitch": 59, "duration": 6, "velocity": 95}, {"time": 1597, "pitch": 61, "duration": 1, "velocity": 86}, {"time": 1597, "pitch": 62, "duration": 6, "velocity": 99}, {"time": 1600, "pitch": 50, "duration": 8, "velocity": 93}, {"time": 1603, "pitch": 55, "duration": 3, "velocity": 73}, {"time": 1609, "pitch": 45, "duration": 20, "velocity": 82}, {"time": 1609, "pitch": 57, "duration": 3, "velocity": 95}, {"time": 1609, "pitch": 61, "duration": 3, "velocity": 107}, {"time": 1609, "pitch": 64, "duration": 3, "velocity": 93}, {"time": 1609, "pitch": 33, "duration": 20, "velocity": 82}, {"time": 1615, "pitch": 52, "duration": 8, "velocity": 53}, {"time": 1621, "pitch": 57, "duration": 7, "velocity": 85}, {"time": 1621, "pitch": 69, "duration": 5, "velocity": 107}, {"time": 1621, "pitch": 73, "duration": 5, "velocity": 117}, {"time": 1627, "pitch": 52, "duration": 6, "velocity": 74}, {"time": 1633, "pitch": 47, "duration": 18, "velocity": 89}, {"time": 1633, "pitch": 59, "duration": 9, "velocity": 88}, {"time": 1633, "pitch": 62, "duration": 6, "velocity": 89}, {"time": 1633, "pitch": 66, "duration": 8, "velocity": 96}, {"time": 1633, "pitch": 35, "duration": 18, "velocity": 89}, {"time": 1639, "pitch": 54, "duration": 7, "velocity": 89}, {"time": 1645, "pitch": 61, "duration": 5, "velocity": 127}, {"time": 1648, "pitch": 54, "duration": 2, "velocity": 81}, {"time": 1651, "pitch": 62, "duration": 5, "velocity": 93}, {"time": 1657, "pitch": 45, "duration": 19, "velocity": 82}, {"time": 1657, "pitch": 57, "duration": 9, "velocity": 99}, {"time": 1657, "pitch": 61, "duration": 10, "velocity": 77}, {"time": 1657, "pitch": 64, "duration": 9, "velocity": 79}, {"time": 1657, "pitch": 33, "duration": 19, "velocity": 82}, {"time": 1663, "pitch": 52, "duration": 8, "velocity": 74}, {"time": 1669, "pitch": 57, "duration": 6, "velocity": 90}, {"time": 1669, "pitch": 61, "duration": 6, "velocity": 122}, {"time": 1669, "pitch": 64, "duration": 5, "velocity": 95}, {"time": 1675, "pitch": 52, "duration": 1, "velocity": 72}, {"time": 1681, "pitch": 40, "duration": 17, "velocity": 76}, {"time": 1681, "pitch": 59, "duration": 10, "velocity": 102}, {"time": 1681, "pitch": 64, "duration": 10, "velocity": 99}, {"time": 1681, "pitch": 67, "duration": 10, "velocity": 97}, {"time": 1681, "pitch": 28, "duration": 17, "velocity": 76}, {"time": 1687, "pitch": 47, "duration": 7, "velocity": 51}, {"time": 1687, "pitch": 35, "duration": 7, "velocity": 51}, {"time": 1693, "pitch": 59, "duration": 4, "velocity": 92}, {"time": 1693, "pitch": 64, "duration": 6, "velocity": 107}, {"time": 1693, "pitch": 67, "duration": 6, "velocity": 100}, {"time": 1696, "pitch": 47, "duration": 2, "velocity": 78}, {"time": 1696, "pitch": 35, "duration": 2, "velocity": 78}, {"time": 1699, "pitch": 59, "duration": 2, "velocity": 92}, {"time": 1705, "pitch": 42, "duration": 22, "velocity": 112}, {"time": 1705, "pitch": 57, "duration": 10, "velocity": 96}, {"time": 1705, "pitch": 61, "duration": 10, "velocity": 117}, {"time": 1705, "pitch": 66, "duration": 8, "velocity": 107}, {"time": 1705, "pitch": 30, "duration": 22, "velocity": 112}, {"time": 1711, "pitch": 54, "duration": 7, "velocity": 88}, {"time": 1717, "pitch": 57, "duration": 6, "velocity": 86}, {"time": 1717, "pitch": 61, "duration": 3, "velocity": 127}, {"time": 1717, "pitch": 66, "duration": 3, "velocity": 122}, {"time": 1723, "pitch": 54, "duration": 5, "velocity": 70}, {"time": 1726, "pitch": 57, "duration": 1, "velocity": 88}, {"time": 1726, "pitch": 69, "duration": 1, "velocity": 76}, {"time": 1729, "pitch": 42, "duration": 10, "velocity": 117}, {"time": 1729, "pitch": 57, "duration": 2, "velocity": 122}, {"time": 1729, "pitch": 69, "duration": 2, "velocity": 95}, {"time": 1729, "pitch": 30, "duration": 10, "velocity": 117}, {"time": 1735, "pitch": 54, "duration": 7, "velocity": 76}, {"time": 1738, "pitch": 61, "duration": 1, "velocity": 117}, {"time": 1738, "pitch": 73, "duration": 1, "velocity": 95}, {"time": 1741, "pitch": 42, "duration": 6, "velocity": 96}, {"time": 1741, "pitch": 61, "duration": 5, "velocity": 127}, {"time": 1741, "pitch": 73, "duration": 4, "velocity": 100}, {"time": 1741, "pitch": 30, "duration": 6, "velocity": 96}, {"time": 1747, "pitch": 54, "duration": 1, "velocity": 112}, {"time": 1753, "pitch": 40, "duration": 19, "velocity": 78}, {"time": 1753, "pitch": 64, "duration": 6, "velocity": 95}, {"time": 1753, "pitch": 67, "duration": 4, "velocity": 92}, {"time": 1753, "pitch": 71, "duration": 5, "velocity": 88}, {"time": 1753, "pitch": 28, "duration": 19, "velocity": 78}, {"time": 1759, "pitch": 47, "duration": 9, "velocity": 60}, {"time": 1759, "pitch": 35, "duration": 9, "velocity": 60}, {"time": 1765, "pitch": 59, "duration": 9, "velocity": 96}, {"time": 1765, "pitch": 64, "duration": 5, "velocity": 90}, {"time": 1765, "pitch": 67, "duration": 6, "velocity": 89}, {"time": 1771, "pitch": 47, "duration": 4, "velocity": 44}, {"time": 1771, "pitch": 35, "duration": 4, "velocity": 44}, {"time": 1777, "pitch": 40, "duration": 17, "velocity": 90}, {"time": 1777, "pitch": 28, "duration": 17, "velocity": 90}, {"time": 1783, "pitch": 47, "duration": 12, "velocity": 50}, {"time": 1783, "pitch": 35, "duration": 12, "velocity": 50}, {"time": 1789, "pitch": 59, "duration": 4, "velocity": 95}, {"time": 1789, "pitch": 64, "duration": 6, "velocity": 95}, {"time": 1789, "pitch": 67, "duration": 6, "velocity": 92}, {"time": 1795, "pitch": 59, "duration": 2, "velocity": 71}, {"time": 1801, "pitch": 42, "duration": 16, "velocity": 107}, {"time": 1801, "pitch": 57, "duration": 9, "velocity": 89}, {"time": 1801, "pitch": 61, "duration": 5, "velocity": 93}, {"time": 1801, "pitch": 30, "duration": 16, "velocity": 107}, {"time": 1807, "pitch": 54, "duration": 12, "velocity": 67}, {"time": 1813, "pitch": 61, "duration": 10, "velocity": 112}, {"time": 1813, "pitch": 66, "duration": 7, "velocity": 102}, {"time": 1819, "pitch": 57, "duration": 3, "velocity": 79}, {"time": 1825, "pitch": 47, "duration": 15, "velocity": 69}, {"time": 1825, "pitch": 59, "duration": 7, "velocity": 92}, {"time": 1825, "pitch": 62, "duration": 7, "velocity": 99}, {"time": 1825, "pitch": 66, "duration": 7, "velocity": 97}, {"time": 1825, "pitch": 35, "duration": 15, "velocity": 69}, {"time": 1831, "pitch": 54, "duration": 7, "velocity": 83}, {"time": 1837, "pitch": 62, "duration": 3, "velocity": 122}, {"time": 1840, "pitch": 61, "duration": 3, "velocity": 107}, {"time": 1843, "pitch": 59, "duration": 10, "velocity": 90}, {"time": 1849, "pitch": 40, "duration": 19, "velocity": 90}, {"time": 1849, "pitch": 55, "duration": 4, "velocity": 82}, {"time": 1849, "pitch": 28, "duration": 19, "velocity": 90}, {"time": 1861, "pitch": 59, "duration": 6, "velocity": 95}, {"time": 1861, "pitch": 64, "duration": 4, "velocity": 95}, {"time": 1861, "pitch": 67, "duration": 4, "velocity": 95}, {"time": 1867, "pitch": 52, "duration": 5, "velocity": 61}, {"time": 1873, "pitch": 42, "duration": 16, "velocity": 99}, {"time": 1873, "pitch": 57, "duration": 9, "velocity": 95}, {"time": 1873, "pitch": 61, "duration": 7, "velocity": 112}, {"time": 1873, "pitch": 66, "duration": 8, "velocity": 96}, {"time": 1873, "pitch": 30, "duration": 16, "velocity": 99}, {"time": 1879, "pitch": 54, "duration": 7, "velocity": 67}, {"time": 1885, "pitch": 62, "duration": 5, "velocity": 107}, {"time": 1888, "pitch": 54, "duration": 3, "velocity": 69}, {"time": 1891, "pitch": 61, "duration": 5, "velocity": 107}, {"time": 1897, "pitch": 47, "duration": 22, "velocity": 75}, {"time": 1897, "pitch": 59, "duration": 5, "velocity": 82}, {"time": 1897, "pitch": 62, "duration": 6, "velocity": 99}, {"time": 1897, "pitch": 66, "duration": 6, "velocity": 99}, {"time": 1897, "pitch": 35, "duration": 22, "velocity": 75}, {"time": 1903, "pitch": 54, "duration": 6, "velocity": 58}, {"time": 1909, "pitch": 61, "duration": 6, "velocity": 127}, {"time": 1912, "pitch": 54, "duration": 9, "velocity": 90}, {"time": 1915, "pitch": 62, "duration": 4, "velocity": 89}, {"time": 1918, "pitch": 61, "duration": 1, "velocity": 107}, {"time": 1921, "pitch": 47, "duration": 23, "velocity": 92}, {"time": 1921, "pitch": 59, "duration": 8, "velocity": 96}, {"time": 1921, "pitch": 61, "duration": 7, "velocity": 117}, {"time": 1921, "pitch": 62, "duration": 10, "velocity": 97}, {"time": 1921, "pitch": 66, "duration": 9, "velocity": 117}, {"time": 1921, "pitch": 35, "duration": 23, "velocity": 92}, {"time": 1927, "pitch": 54, "duration": 7, "velocity": 82}, {"time": 1933, "pitch": 62, "duration": 12, "velocity": 117}, {"time": 1933, "pitch": 66, "duration": 12, "velocity": 122}, {"time": 1936, "pitch": 54, "duration": 4, "velocity": 97}, {"time": 1939, "pitch": 61, "duration": 5, "velocity": 127}, {"time": 1945, "pitch": 43, "duration": 22, "velocity": 86}, {"time": 1951, "pitch": 50, "duration": 18, "velocity": 45}, {"time": 1954, "pitch": 59, "duration": 3, "velocity": 67}, {"time": 1957, "pitch": 62, "duration": 13, "velocity": 82}, {"time": 1963, "pitch": 59, "duration": 7, "velocity": 66}, {"time": 1969, "pitch": 43, "duration": 17, "velocity": 71}, {"time": 1975, "pitch": 50, "duration": 12, "velocity": 55}, {"time": 1981, "pitch": 67, "duration": 11, "velocity": 82}, {"time": 1981, "pitch": 71, "duration": 11, "velocity": 89}, {"time": 1987, "pitch": 62, "duration": 6, "velocity": 63}, {"time": 1993, "pitch": 45, "duration": 14, "velocity": 75}, {"time": 1999, "pitch": 52, "duration": 10, "velocity": 59}, {"time": 2002, "pitch": 57, "duration": 5, "velocity": 41}, {"time": 2005, "pitch": 64, "duration": 12, "velocity": 93}, {"time": 2011, "pitch": 61, "duration": 6, "velocity": 53}, {"time": 2017, "pitch": 47, "duration": 17, "velocity": 71}, {"time": 2023, "pitch": 54, "duration": 10, "velocity": 68}, {"time": 2029, "pitch": 66, "duration": 12, "velocity": 112}, {"time": 2035, "pitch": 62, "duration": 6, "velocity": 65}, {"time": 2038, "pitch": 59, "duration": 3, "velocity": 69}, {"time": 2041, "pitch": 45, "duration": 18, "velocity": 78}, {"time": 2047, "pitch": 52, "duration": 6, "velocity": 52}, {"time": 2053, "pitch": 64, "duration": 11, "velocity": 85}, {"time": 2056, "pitch": 52, "duration": 2, "velocity": 46}, {"time": 2059, "pitch": 61, "duration": 4, "velocity": 86}, {"time": 2062, "pitch": 57, "duration": 3, "velocity": 58}, {"time": 2065, "pitch": 40, "duration": 21, "velocity": 76}, {"time": 2071, "pitch": 47, "duration": 15, "velocity": 47}, {"time": 2074, "pitch": 59, "duration": 4, "velocity": 59}, {"time": 2077, "pitch": 67, "duration": 12, "velocity": 93}, {"time": 2083, "pitch": 64, "duration": 6, "velocity": 59}, {"time": 2089, "pitch": 42, "duration": 22, "velocity": 85}, {"time": 2095, "pitch": 54, "duration": 18, "velocity": 76}, {"time": 2098, "pitch": 57, "duration": 2, "velocity": 78}, {"time": 2101, "pitch": 61, "duration": 21, "velocity": 89}, {"time": 2101, "pitch": 66, "duration": 21, "velocity": 99}, {"time": 2107, "pitch": 57, "duration": 16, "velocity": 75}, {"time": 2113, "pitch": 42, "duration": 17, "velocity": 67}, {"time": 2125, "pitch": 61, "duration": 11, "velocity": 97}, {"time": 2125, "pitch": 66, "duration": 7, "velocity": 102}, {"time": 2131, "pitch": 57, "duration": 6, "velocity": 69}, {"time": 2137, "pitch": 40, "duration": 20, "velocity": 89}, {"time": 2143, "pitch": 47, "duration": 18, "velocity": 55}, {"time": 2146, "pitch": 52, "duration": 7, "velocity": 70}, {"time": 2149, "pitch": 67, "duration": 9, "velocity": 83}, {"time": 2149, "pitch": 71, "duration": 9, "velocity": 90}, {"time": 2155, "pitch": 64, "duration": 5, "velocity": 74}, {"time": 2161, "pitch": 40, "duration": 13, "velocity": 68}, {"time": 2161, "pitch": 64, "duration": 13, "velocity": 78}, {"time": 2161, "pitch": 67, "duration": 13, "velocity": 79}, {"time": 2161, "pitch": 71, "duration": 14, "velocity": 81}, {"time": 2185, "pitch": 42, "duration": 15, "velocity": 107}, {"time": 2191, "pitch": 54, "duration": 12, "velocity": 40}, {"time": 2197, "pitch": 61, "duration": 10, "velocity": 102}, {"time": 2197, "pitch": 66, "duration": 7, "velocity": 93}, {"time": 2203, "pitch": 57, "duration": 3, "velocity": 72}, {"time": 2209, "pitch": 47, "duration": 14, "velocity": 69}, {"time": 2209, "pitch": 59, "duration": 15, "velocity": 59}, {"time": 2209, "pitch": 62, "duration": 14, "velocity": 72}, {"time": 2209, "pitch": 66, "duration": 15, "velocity": 69}, {"time": 2233, "pitch": 40, "duration": 16, "velocity": 90}, {"time": 2239, "pitch": 47, "duration": 11, "velocity": 55}, {"time": 2242, "pitch": 59, "duration": 3, "velocity": 62}, {"time": 2245, "pitch": 64, "duration": 11, "velocity": 78}, {"time": 2245, "pitch": 67, "duration": 11, "velocity": 89}, {"time": 2251, "pitch": 59, "duration": 7, "velocity": 72}, {"time": 2257, "pitch": 42, "duration": 14, "velocity": 79}, {"time": 2263, "pitch": 54, "duration": 10, "velocity": 70}, {"time": 2266, "pitch": 57, "duration": 3, "velocity": 58}, {"time": 2269, "pitch": 61, "duration": 12, "velocity": 82}, {"time": 2269, "pitch": 66, "duration": 13, "velocity": 95}, {"time": 2275, "pitch": 57, "duration": 6, "velocity": 71}, {"time": 2281, "pitch": 47, "duration": 46, "velocity": 72}, {"time": 2287, "pitch": 54, "duration": 42, "velocity": 61}, {"time": 2293, "pitch": 62, "duration": 21, "velocity": 90}, {"time": 2296, "pitch": 66, "duration": 33, "velocity": 35}, {"time": 2299, "pitch": 61, "duration": 16, "velocity": 74}, {"time": 2305, "pitch": 59, "duration": 13, "velocity": 70}, {"time": 2317, "pitch": 62, "duration": 12, "velocity": 72}, {"time": 2323, "pitch": 61, "duration": 6, "velocity": 63}, {"time": 2329, "pitch": 47, "duration": 22, "velocity": 89}, {"time": 2335, "pitch": 54, "duration": 15, "velocity": 48}, {"time": 2341, "pitch": 62, "duration": 11, "velocity": 93}, {"time": 2341, "pitch": 66, "duration": 11, "velocity": 100}, {"time": 2347, "pitch": 59, "duration": 5, "velocity": 88}, {"time": 2353, "pitch": 45, "duration": 15, "velocity": 86}, {"time": 2359, "pitch": 57, "duration": 7, "velocity": 70}, {"time": 2365, "pitch": 61, "duration": 11, "velocity": 86}, {"time": 2365, "pitch": 64, "duration": 12, "velocity": 93}, {"time": 2377, "pitch": 47, "duration": 22, "velocity": 83}, {"time": 2383, "pitch": 54, "duration": 18, "velocity": 78}, {"time": 2389, "pitch": 62, "duration": 19, "velocity": 81}, {"time": 2389, "pitch": 66, "duration": 20, "velocity": 100}, {"time": 2395, "pitch": 59, "duration": 13, "velocity": 69}, {"time": 2401, "pitch": 47, "duration": 18, "velocity": 68}, {"time": 2407, "pitch": 54, "duration": 7, "velocity": 48}, {"time": 2413, "pitch": 66, "duration": 13, "velocity": 112}, {"time": 2419, "pitch": 62, "duration": 6, "velocity": 92}, {"time": 2425, "pitch": 43, "duration": 13, "velocity": 89}, {"time": 2431, "pitch": 50, "duration": 7, "velocity": 61}, {"time": 2437, "pitch": 59, "duration": 11, "velocity": 88}, {"time": 2437, "pitch": 62, "duration": 11, "velocity": 93}, {"time": 2443, "pitch": 55, "duration": 5, "velocity": 79}, {"time": 2449, "pitch": 40, "duration": 18, "velocity": 76}, {"time": 2455, "pitch": 52, "duration": 14, "velocity": 53}, {"time": 2461, "pitch": 64, "duration": 11, "velocity": 86}, {"time": 2461, "pitch": 67, "duration": 11, "velocity": 79}, {"time": 2473, "pitch": 42, "duration": 22, "velocity": 97}, {"time": 2479, "pitch": 54, "duration": 20, "velocity": 65}, {"time": 2485, "pitch": 66, "duration": 36, "velocity": 96}, {"time": 2491, "pitch": 61, "duration": 16, "velocity": 100}, {"time": 2497, "pitch": 42, "duration": 15, "velocity": 73}, {"time": 2509, "pitch": 61, "duration": 12, "velocity": 97}, {"time": 2515, "pitch": 57, "duration": 6, "velocity": 88}, {"time": 2521, "pitch": 40, "duration": 16, "velocity": 85}, {"time": 2527, "pitch": 47, "duration": 11, "velocity": 64}, {"time": 2533, "pitch": 64, "duration": 11, "velocity": 88}, {"time": 2539, "pitch": 59, "duration": 8, "velocity": 71}, {"time": 2545, "pitch": 42, "duration": 15, "velocity": 96}, {"time": 2551, "pitch": 54, "duration": 9, "velocity": 70}, {"time": 2557, "pitch": 66, "duration": 10, "velocity": 99}, {"time": 2563, "pitch": 61, "duration": 4, "velocity": 95}, {"time": 2569, "pitch": 43, "duration": 11, "velocity": 77}, {"time": 2575, "pitch": 55, "duration": 6, "velocity": 93}, {"time": 2581, "pitch": 45, "duration": 7, "velocity": 83}, {"time": 2587, "pitch": 57, "duration": 6, "velocity": 88}, {"time": 2593, "pitch": 47, "duration": 16, "velocity": 66}, {"time": 2599, "pitch": 54, "duration": 8, "velocity": 53}, {"time": 2605, "pitch": 62, "duration": 17, "velocity": 81}, {"time": 2605, "pitch": 66, "duration": 10, "velocity": 90}, {"time": 2611, "pitch": 59, "duration": 10, "velocity": 72}, {"time": 2617, "pitch": 40, "duration": 15, "velocity": 73}, {"time": 2623, "pitch": 47, "duration": 9, "velocity": 61}, {"time": 2629, "pitch": 64, "duration": 11, "velocity": 72}, {"time": 2629, "pitch": 67, "duration": 12, "velocity": 77}, {"time": 2635, "pitch": 59, "duration": 7, "velocity": 72}, {"time": 2641, "pitch": 42, "duration": 15, "velocity": 90}, {"time": 2647, "pitch": 54, "duration": 11, "velocity": 71}, {"time": 2653, "pitch": 61, "duration": 12, "velocity": 107}, {"time": 2659, "pitch": 57, "duration": 7, "velocity": 89}, {"time": 2665, "pitch": 47, "duration": 22, "velocity": 72}, {"time": 2671, "pitch": 54, "duration": 17, "velocity": 85}, {"time": 2677, "pitch": 62, "duration": 5, "velocity": 96}, {"time": 2683, "pitch": 61, "duration": 5, "velocity": 90}, {"time": 2689, "pitch": 47, "duration": 18, "velocity": 86}, {"time": 2689, "pitch": 59, "duration": 7, "velocity": 92}, {"time": 2689, "pitch": 62, "duration": 10, "velocity": 102}, {"time": 2689, "pitch": 66, "duration": 7, "velocity": 112}, {"time": 2695, "pitch": 54, "duration": 7, "velocity": 107}, {"time": 2701, "pitch": 61, "duration": 10, "velocity": 127}, {"time": 2701, "pitch": 62, "duration": 10, "velocity": 127}, {"time": 2701, "pitch": 66, "duration": 6, "velocity": 127}, {"time": 2704, "pitch": 54, "duration": 1, "velocity": 99}, {"time": 2713, "pitch": 31, "duration": 22, "velocity": 90}, {"time": 2713, "pitch": 43, "duration": 22, "velocity": 90}, {"time": 2713, "pitch": 55, "duration": 4, "velocity": 97}, {"time": 2713, "pitch": 59, "duration": 4, "velocity": 107}, {"time": 2713, "pitch": 62, "duration": 5, "velocity": 107}, {"time": 2719, "pitch": 50, "duration": 9, "velocity": 53}, {"time": 2725, "pitch": 55, "duration": 7, "velocity": 63}, {"time": 2725, "pitch": 62, "duration": 10, "velocity": 107}, {"time": 2725, "pitch": 67, "duration": 10, "velocity": 117}, {"time": 2725, "pitch": 71, "duration": 10, "velocity": 117}, {"time": 2731, "pitch": 50, "duration": 7, "velocity": 38}, {"time": 2737, "pitch": 31, "duration": 17, "velocity": 76}, {"time": 2737, "pitch": 43, "duration": 17, "velocity": 76}, {"time": 2737, "pitch": 62, "duration": 6, "velocity": 99}, {"time": 2737, "pitch": 67, "duration": 5, "velocity": 112}, {"time": 2737, "pitch": 71, "duration": 4, "velocity": 100}, {"time": 2743, "pitch": 50, "duration": 6, "velocity": 54}, {"time": 2749, "pitch": 59, "duration": 6, "velocity": 95}, {"time": 2749, "pitch": 61, "duration": 1, "velocity": 86}, {"time": 2749, "pitch": 62, "duration": 6, "velocity": 99}, {"time": 2752, "pitch": 50, "duration": 8, "velocity": 93}, {"time": 2755, "pitch": 55, "duration": 3, "velocity": 73}, {"time": 2761, "pitch": 33, "duration": 20, "velocity": 82}, {"time": 2761, "pitch": 45, "duration": 20, "velocity": 82}, {"time": 2761, "pitch": 57, "duration": 3, "velocity": 95}, {"time": 2761, "pitch": 61, "duration": 3, "velocity": 107}, {"time": 2761, "pitch": 64, "duration": 3, "velocity": 93}, {"time": 2767, "pitch": 52, "duration": 8, "velocity": 53}, {"time": 2773, "pitch": 57, "duration": 7, "velocity": 85}, {"time": 2773, "pitch": 69, "duration": 5, "velocity": 107}, {"time": 2773, "pitch": 73, "duration": 5, "velocity": 117}, {"time": 2779, "pitch": 52, "duration": 6, "velocity": 74}, {"time": 2785, "pitch": 35, "duration": 17, "velocity": 89}, {"time": 2785, "pitch": 47, "duration": 18, "velocity": 89}, {"time": 2785, "pitch": 59, "duration": 9, "velocity": 88}, {"time": 2785, "pitch": 62, "duration": 6, "velocity": 89}, {"time": 2785, "pitch": 66, "duration": 8, "velocity": 96}, {"time": 2791, "pitch": 54, "duration": 7, "velocity": 89}, {"time": 2797, "pitch": 61, "duration": 5, "velocity": 127}, {"time": 2800, "pitch": 54, "duration": 2, "velocity": 81}, {"time": 2803, "pitch": 62, "duration": 5, "velocity": 93}, {"time": 2809, "pitch": 33, "duration": 19, "velocity": 82}, {"time": 2809, "pitch": 45, "duration": 19, "velocity": 82}, {"time": 2809, "pitch": 57, "duration": 9, "velocity": 99}, {"time": 2809, "pitch": 61, "duration": 10, "velocity": 77}, {"time": 2809, "pitch": 64, "duration": 9, "velocity": 79}, {"time": 2815, "pitch": 52, "duration": 8, "velocity": 74}, {"time": 2821, "pitch": 57, "duration": 6, "velocity": 90}, {"time": 2821, "pitch": 61, "duration": 6, "velocity": 122}, {"time": 2821, "pitch": 64, "duration": 5, "velocity": 95}, {"time": 2827, "pitch": 52, "duration": 1, "velocity": 72}, {"time": 2833, "pitch": 28, "duration": 17, "velocity": 76}, {"time": 2833, "pitch": 40, "duration": 17, "velocity": 76}, {"time": 2833, "pitch": 59, "duration": 10, "velocity": 102}, {"time": 2833, "pitch": 64, "duration": 10, "velocity": 99}, {"time": 2833, "pitch": 67, "duration": 10, "velocity": 97}, {"time": 2839, "pitch": 35, "duration": 7, "velocity": 51}, {"time": 2839, "pitch": 47, "duration": 7, "velocity": 51}, {"time": 2845, "pitch": 59, "duration": 4, "velocity": 92}, {"time": 2845, "pitch": 64, "duration": 6, "velocity": 107}, {"time": 2845, "pitch": 67, "duration": 6, "velocity": 100}, {"time": 2848, "pitch": 35, "duration": 2, "velocity": 78}, {"time": 2848, "pitch": 47, "duration": 2, "velocity": 78}, {"time": 2851, "pitch": 59, "duration": 2, "velocity": 92}, {"time": 2857, "pitch": 30, "duration": 22, "velocity": 112}, {"time": 2857, "pitch": 42, "duration": 22, "velocity": 112}, {"time": 2857, "pitch": 57, "duration": 10, "velocity": 96}, {"time": 2857, "pitch": 61, "duration": 10, "velocity": 117}, {"time": 2857, "pitch": 66, "duration": 8, "velocity": 107}, {"time": 2863, "pitch": 54, "duration": 7, "velocity": 88}, {"time": 2869, "pitch": 57, "duration": 6, "velocity": 86}, {"time": 2869, "pitch": 61, "duration": 3, "velocity": 127}, {"time": 2869, "pitch": 66, "duration": 3, "velocity": 122}, {"time": 2875, "pitch": 54, "duration": 5, "velocity": 70}, {"time": 2878, "pitch": 57, "duration": 1, "velocity": 88}, {"time": 2878, "pitch": 69, "duration": 1, "velocity": 76}, {"time": 2881, "pitch": 30, "duration": 10, "velocity": 117}, {"time": 2881, "pitch": 42, "duration": 10, "velocity": 117}, {"time": 2881, "pitch": 57, "duration": 2, "velocity": 122}, {"time": 2881, "pitch": 69, "duration": 2, "velocity": 95}, {"time": 2887, "pitch": 54, "duration": 7, "velocity": 76}, {"time": 2890, "pitch": 61, "duration": 1, "velocity": 117}, {"time": 2890, "pitch": 73, "duration": 1, "velocity": 95}, {"time": 2893, "pitch": 30, "duration": 6, "velocity": 96}, {"time": 2893, "pitch": 42, "duration": 6, "velocity": 96}, {"time": 2893, "pitch": 61, "duration": 5, "velocity": 127}, {"time": 2893, "pitch": 73, "duration": 4, "velocity": 100}, {"time": 2899, "pitch": 54, "duration": 1, "velocity": 112}, {"time": 2905, "pitch": 28, "duration": 19, "velocity": 78}, {"time": 2905, "pitch": 40, "duration": 19, "velocity": 78}, {"time": 2905, "pitch": 64, "duration": 6, "velocity": 95}, {"time": 2905, "pitch": 67, "duration": 4, "velocity": 92}, {"time": 2905, "pitch": 71, "duration": 5, "velocity": 88}, {"time": 2911, "pitch": 35, "duration": 8, "velocity": 60}, {"time": 2911, "pitch": 47, "duration": 9, "velocity": 60}, {"time": 2917, "pitch": 59, "duration": 9, "velocity": 96}, {"time": 2917, "pitch": 64, "duration": 5, "velocity": 90}, {"time": 2917, "pitch": 67, "duration": 6, "velocity": 89}, {"time": 2923, "pitch": 35, "duration": 4, "velocity": 44}, {"time": 2923, "pitch": 47, "duration": 4, "velocity": 44}, {"time": 2929, "pitch": 28, "duration": 17, "velocity": 90}, {"time": 2929, "pitch": 40, "duration": 17, "velocity": 90}, {"time": 2935, "pitch": 35, "duration": 12, "velocity": 50}, {"time": 2935, "pitch": 47, "duration": 12, "velocity": 50}, {"time": 2941, "pitch": 59, "duration": 4, "velocity": 95}, {"time": 2941, "pitch": 64, "duration": 6, "velocity": 95}, {"time": 2941, "pitch": 67, "duration": 6, "velocity": 92}, {"time": 2947, "pitch": 59, "duration": 2, "velocity": 71}, {"time": 2953, "pitch": 30, "duration": 16, "velocity": 107}, {"time": 2953, "pitch": 42, "duration": 16, "velocity": 107}, {"time": 2953, "pitch": 57, "duration": 9, "velocity": 89}, {"time": 2953, "pitch": 61, "duration": 5, "velocity": 93}, {"time": 2959, "pitch": 54, "duration": 12, "velocity": 67}, {"time": 2965, "pitch": 61, "duration": 10, "velocity": 112}, {"time": 2965, "pitch": 66, "duration": 7, "velocity": 102}, {"time": 2971, "pitch": 57, "duration": 3, "velocity": 79}, {"time": 2977, "pitch": 35, "duration": 15, "velocity": 69}, {"time": 2977, "pitch": 47, "duration": 15, "velocity": 69}, {"time": 2977, "pitch": 59, "duration": 7, "velocity": 92}, {"time": 2977, "pitch": 62, "duration": 7, "velocity": 99}, {"time": 2977, "pitch": 66, "duration": 7, "velocity": 97}, {"time": 2983, "pitch": 54, "duration": 7, "velocity": 83}, {"time": 2989, "pitch": 62, "duration": 3, "velocity": 122}, {"time": 2992, "pitch": 61, "duration": 3, "velocity": 107}, {"time": 2995, "pitch": 59, "duration": 10, "velocity": 90}, {"time": 3001, "pitch": 28, "duration": 19, "velocity": 90}, {"time": 3001, "pitch": 40, "duration": 19, "velocity": 90}, {"time": 3001, "pitch": 55, "duration": 4, "velocity": 82}, {"time": 3013, "pitch": 59, "duration": 6, "velocity": 95}, {"time": 3013, "pitch": 64, "duration": 4, "velocity": 95}, {"time": 3013, "pitch": 67, "duration": 4, "velocity": 95}, {"time": 3019, "pitch": 52, "duration": 5, "velocity": 61}, {"time": 3025, "pitch": 30, "duration": 16, "velocity": 99}, {"time": 3025, "pitch": 42, "duration": 16, "velocity": 99}, {"time": 3025, "pitch": 57, "duration": 9, "velocity": 95}, {"time": 3025, "pitch": 61, "duration": 7, "velocity": 112}, {"time": 3025, "pitch": 66, "duration": 8, "velocity": 96}, {"time": 3031, "pitch": 54, "duration": 7, "velocity": 67}, {"time": 3037, "pitch": 62, "duration": 5, "velocity": 107}, {"time": 3040, "pitch": 54, "duration": 3, "velocity": 69}, {"time": 3043, "pitch": 61, "duration": 5, "velocity": 107}, {"time": 3049, "pitch": 35, "duration": 22, "velocity": 75}, {"time": 3049, "pitch": 47, "duration": 22, "velocity": 75}, {"time": 3049, "pitch": 59, "duration": 5, "velocity": 82}, {"time": 3049, "pitch": 62, "duration": 6, "velocity": 99}, {"time": 3049, "pitch": 66, "duration": 6, "velocity": 99}, {"time": 3055, "pitch": 54, "duration": 6, "velocity": 58}, {"time": 3061, "pitch": 61, "duration": 6, "velocity": 127}, {"time": 3064, "pitch": 54, "duration": 9, "velocity": 90}, {"time": 3067, "pitch": 62, "duration": 4, "velocity": 89}, {"time": 3070, "pitch": 61, "duration": 1, "velocity": 107}, {"time": 3073, "pitch": 35, "duration": 23, "velocity": 92}, {"time": 3073, "pitch": 47, "duration": 23, "velocity": 92}, {"time": 3073, "pitch": 59, "duration": 8, "velocity": 96}, {"time": 3073, "pitch": 61, "duration": 7, "velocity": 117}, {"time": 3073, "pitch": 62, "duration": 10, "velocity": 97}, {"time": 3073, "pitch": 66, "duration": 9, "velocity": 117}, {"time": 3079, "pitch": 54, "duration": 7, "velocity": 82}, {"time": 3085, "pitch": 62, "duration": 12, "velocity": 117}, {"time": 3085, "pitch": 66, "duration": 12, "velocity": 122}, {"time": 3088, "pitch": 54, "duration": 4, "velocity": 97}, {"time": 3091, "pitch": 61, "duration": 5, "velocity": 127}, {"time": 3097, "pitch": 31, "duration": 22, "velocity": 90}, {"time": 3097, "pitch": 43, "duration": 22, "velocity": 90}, {"time": 3097, "pitch": 55, "duration": 4, "velocity": 97}, {"time": 3097, "pitch": 59, "duration": 4, "velocity": 107}, {"time": 3097, "pitch": 61, "duration": 1, "velocity": 90}, {"time": 3097, "pitch": 62, "duration": 1, "velocity": 107}, {"time": 3103, "pitch": 50, "duration": 9, "velocity": 53}, {"time": 3109, "pitch": 55, "duration": 7, "velocity": 63}, {"time": 3109, "pitch": 62, "duration": 10, "velocity": 107}, {"time": 3109, "pitch": 67, "duration": 10, "velocity": 117}, {"time": 3109, "pitch": 71, "duration": 10, "velocity": 117}, {"time": 3115, "pitch": 50, "duration": 7, "velocity": 38}, {"time": 3121, "pitch": 31, "duration": 17, "velocity": 76}, {"time": 3121, "pitch": 43, "duration": 17, "velocity": 76}, {"time": 3121, "pitch": 62, "duration": 6, "velocity": 99}, {"time": 3121, "pitch": 67, "duration": 5, "velocity": 112}, {"time": 3121, "pitch": 71, "duration": 4, "velocity": 100}, {"time": 3127, "pitch": 50, "duration": 6, "velocity": 54}, {"time": 3133, "pitch": 59, "duration": 6, "velocity": 95}, {"time": 3133, "pitch": 61, "duration": 1, "velocity": 86}, {"time": 3133, "pitch": 62, "duration": 6, "velocity": 99}, {"time": 3136, "pitch": 50, "duration": 8, "velocity": 93}, {"time": 3139, "pitch": 55, "duration": 3, "velocity": 73}, {"time": 3145, "pitch": 33, "duration": 20, "velocity": 82}, {"time": 3145, "pitch": 45, "duration": 20, "velocity": 82}, {"time": 3145, "pitch": 57, "duration": 3, "velocity": 95}, {"time": 3145, "pitch": 61, "duration": 3, "velocity": 107}, {"time": 3145, "pitch": 64, "duration": 3, "velocity": 93}, {"time": 3151, "pitch": 52, "duration": 8, "velocity": 53}, {"time": 3157, "pitch": 57, "duration": 7, "velocity": 85}, {"time": 3157, "pitch": 69, "duration": 5, "velocity": 107}, {"time": 3157, "pitch": 73, "duration": 5, "velocity": 117}, {"time": 3163, "pitch": 52, "duration": 6, "velocity": 74}, {"time": 3169, "pitch": 35, "duration": 17, "velocity": 89}, {"time": 3169, "pitch": 47, "duration": 18, "velocity": 89}, {"time": 3169, "pitch": 59, "duration": 9, "velocity": 88}, {"time": 3169, "pitch": 62, "duration": 6, "velocity": 89}, {"time": 3169, "pitch": 66, "duration": 8, "velocity": 96}, {"time": 3175, "pitch": 54, "duration": 7, "velocity": 89}, {"time": 3181, "pitch": 61, "duration": 5, "velocity": 127}, {"time": 3184, "pitch": 54, "duration": 2, "velocity": 81}, {"time": 3187, "pitch": 62, "duration": 5, "velocity": 93}, {"time": 3193, "pitch": 33, "duration": 19, "velocity": 82}, {"time": 3193, "pitch": 45, "duration": 19, "velocity": 82}, {"time": 3193, "pitch": 57, "duration": 9, "velocity": 99}, {"time": 3193, "pitch": 61, "duration": 10, "velocity": 77}, {"time": 3193, "pitch": 64, "duration": 9, "velocity": 79}, {"time": 3199, "pitch": 52, "duration": 8, "velocity": 74}, {"time": 3205, "pitch": 57, "duration": 6, "velocity": 90}, {"time": 3205, "pitch": 61, "duration": 6, "velocity": 122}, {"time": 3205, "pitch": 64, "duration": 5, "velocity": 95}, {"time": 3211, "pitch": 52, "duration": 1, "velocity": 72}, {"time": 3217, "pitch": 28, "duration": 17, "velocity": 76}, {"time": 3217, "pitch": 40, "duration": 17, "velocity": 76}, {"time": 3217, "pitch": 59, "duration": 10, "velocity": 102}, {"time": 3217, "pitch": 64, "duration": 10, "velocity": 99}, {"time": 3217, "pitch": 67, "duration": 10, "velocity": 97}, {"time": 3223, "pitch": 35, "duration": 7, "velocity": 51}, {"time": 3223, "pitch": 47, "duration": 7, "velocity": 51}, {"time": 3229, "pitch": 59, "duration": 4, "velocity": 92}, {"time": 3229, "pitch": 64, "duration": 6, "velocity": 107}, {"time": 3229, "pitch": 67, "duration": 6, "velocity": 100}, {"time": 3232, "pitch": 35, "duration": 2, "velocity": 78}, {"time": 3232, "pitch": 47, "duration": 2, "velocity": 78}, {"time": 3235, "pitch": 59, "duration": 2, "velocity": 92}, {"time": 3241, "pitch": 30, "duration": 22, "velocity": 112}, {"time": 3241, "pitch": 42, "duration": 22, "velocity": 112}, {"time": 3241, "pitch": 57, "duration": 10, "velocity": 96}, {"time": 3241, "pitch": 61, "duration": 10, "velocity": 117}, {"time": 3241, "pitch": 66, "duration": 8, "velocity": 107}, {"time": 3247, "pitch": 54, "duration": 7, "velocity": 88}, {"time": 3253, "pitch": 57, "duration": 6, "velocity": 86}, {"time": 3253, "pitch": 61, "duration": 3, "velocity": 127}, {"time": 3253, "pitch": 66, "duration": 3, "velocity": 122}, {"time": 3259, "pitch": 54, "duration": 5, "velocity": 70}, {"time": 3262, "pitch": 57, "duration": 1, "velocity": 88}, {"time": 3262, "pitch": 69, "duration": 1, "velocity": 76}, {"time": 3265, "pitch": 30, "duration": 10, "velocity": 117}, {"time": 3265, "pitch": 42, "duration": 10, "velocity": 117}, {"time": 3265, "pitch": 57, "duration": 2, "velocity": 122}, {"time": 3265, "pitch": 69, "duration": 2, "velocity": 95}, {"time": 3271, "pitch": 54, "duration": 7, "velocity": 76}, {"time": 3274, "pitch": 61, "duration": 1, "velocity": 117}, {"time": 3274, "pitch": 73, "duration": 1, "velocity": 95}, {"time": 3277, "pitch": 30, "duration": 6, "velocity": 96}, {"time": 3277, "pitch": 42, "duration": 6, "velocity": 96}, {"time": 3277, "pitch": 61, "duration": 5, "velocity": 127}, {"time": 3277, "pitch": 73, "duration": 4, "velocity": 100}, {"time": 3283, "pitch": 54, "duration": 1, "velocity": 112}, {"time": 3289, "pitch": 28, "duration": 19, "velocity": 78}, {"time": 3289, "pitch": 40, "duration": 19, "velocity": 78}, {"time": 3289, "pitch": 64, "duration": 6, "velocity": 95}, {"time": 3289, "pitch": 67, "duration": 4, "velocity": 92}, {"time": 3289, "pitch": 71, "duration": 5, "velocity": 88}, {"time": 3295, "pitch": 35, "duration": 8, "velocity": 60}, {"time": 3295, "pitch": 47, "duration": 9, "velocity": 60}, {"time": 3301, "pitch": 59, "duration": 9, "velocity": 96}, {"time": 3301, "pitch": 64, "duration": 5, "velocity": 90}, {"time": 3301, "pitch": 67, "duration": 6, "velocity": 89}, {"time": 3307, "pitch": 35, "duration": 4, "velocity": 44}, {"time": 3307, "pitch": 47, "duration": 4, "velocity": 44}, {"time": 3313, "pitch": 28, "duration": 17, "velocity": 90}, {"time": 3313, "pitch": 40, "duration": 17, "velocity": 90}, {"time": 3319, "pitch": 35, "duration": 12, "velocity": 50}, {"time": 3319, "pitch": 47, "duration": 12, "velocity": 50}, {"time": 3325, "pitch": 59, "duration": 4, "velocity": 95}, {"time": 3325, "pitch": 64, "duration": 6, "velocity": 95}, {"time": 3325, "pitch": 67, "duration": 6, "velocity": 92}, {"time": 3331, "pitch": 59, "duration": 2, "velocity": 71}, {"time": 3337, "pitch": 30, "duration": 16, "velocity": 107}, {"time": 3337, "pitch": 42, "duration": 16, "velocity": 107}, {"time": 3337, "pitch": 57, "duration": 9, "velocity": 89}, {"time": 3337, "pitch": 61, "duration": 5, "velocity": 93}, {"time": 3343, "pitch": 54, "duration": 12, "velocity": 67}, {"time": 3349, "pitch": 61, "duration": 10, "velocity": 112}, {"time": 3349, "pitch": 66, "duration": 7, "velocity": 102}, {"time": 3355, "pitch": 57, "duration": 3, "velocity": 79}, {"time": 3361, "pitch": 35, "duration": 15, "velocity": 69}, {"time": 3361, "pitch": 47, "duration": 15, "velocity": 69}, {"time": 3361, "pitch": 59, "duration": 7, "velocity": 92}, {"time": 3361, "pitch": 62, "duration": 7, "velocity": 99}, {"time": 3361, "pitch": 66, "duration": 7, "velocity": 97}, {"time": 3367, "pitch": 54, "duration": 7, "velocity": 83}, {"time": 3373, "pitch": 62, "duration": 3, "velocity": 122}, {"time": 3376, "pitch": 61, "duration": 3, "velocity": 107}, {"time": 3379, "pitch": 59, "duration": 10, "velocity": 90}, {"time": 3385, "pitch": 28, "duration": 19, "velocity": 90}, {"time": 3385, "pitch": 40, "duration": 19, "velocity": 90}, {"time": 3385, "pitch": 55, "duration": 4, "velocity": 82}, {"time": 3397, "pitch": 59, "duration": 6, "velocity": 95}, {"time": 3397, "pitch": 64, "duration": 4, "velocity": 95}, {"time": 3397, "pitch": 67, "duration": 4, "velocity": 95}, {"time": 3403, "pitch": 52, "duration": 5, "velocity": 61}, {"time": 3409, "pitch": 30, "duration": 16, "velocity": 99}, {"time": 3409, "pitch": 42, "duration": 16, "velocity": 99}, {"time": 3409, "pitch": 57, "duration": 9, "velocity": 95}, {"time": 3409, "pitch": 61, "duration": 7, "velocity": 112}, {"time": 3409, "pitch": 66, "duration": 8, "velocity": 96}, {"time": 3415, "pitch": 54, "duration": 7, "velocity": 67}, {"time": 3421, "pitch": 62, "duration": 5, "velocity": 107}, {"time": 3424, "pitch": 54, "duration": 3, "velocity": 69}, {"time": 3427, "pitch": 61, "duration": 5, "velocity": 107}, {"time": 3433, "pitch": 35, "duration": 22, "velocity": 75}, {"time": 3433, "pitch": 47, "duration": 22, "velocity": 75}, {"time": 3433, "pitch": 59, "duration": 5, "velocity": 82}, {"time": 3433, "pitch": 62, "duration": 6, "velocity": 99}, {"time": 3433, "pitch": 66, "duration": 6, "velocity": 99}, {"time": 3439, "pitch": 54, "duration": 6, "velocity": 58}, {"time": 3445, "pitch": 61, "duration": 6, "velocity": 127}, {"time": 3448, "pitch": 54, "duration": 9, "velocity": 90}, {"time": 3451, "pitch": 62, "duration": 4, "velocity": 89}, {"time": 3454, "pitch": 61, "duration": 1, "velocity": 107}, {"time": 3457, "pitch": 35, "duration": 23, "velocity": 92}, {"time": 3457, "pitch": 62, "duration": 9, "velocity": 97}, {"time": 3457, "pitch": 47, "duration": 23, "velocity": 92}, {"time": 3457, "pitch": 59, "duration": 8, "velocity": 96}, {"time": 3457, "pitch": 66, "duration": 9, "velocity": 117}, {"time": 3463, "pitch": 54, "duration": 7, "velocity": 82}, {"time": 3469, "pitch": 62, "duration": 6, "velocity": 117}, {"time": 3469, "pitch": 66, "duration": 12, "velocity": 122}, {"time": 3472, "pitch": 54, "duration": 4, "velocity": 97}, {"time": 3475, "pitch": 61, "duration": 5, "velocity": 127}, {"time": 3481, "pitch": 40, "duration": 14, "velocity": 76}, {"time": 3481, "pitch": 59, "duration": 10, "velocity": 96}, {"time": 3481, "pitch": 64, "duration": 10, "velocity": 96}, {"time": 3481, "pitch": 67, "duration": 10, "velocity": 93}, {"time": 3487, "pitch": 52, "duration": 9, "velocity": 49}, {"time": 3493, "pitch": 64, "duration": 4, "velocity": 99}, {"time": 3493, "pitch": 67, "duration": 4, "velocity": 93}, {"time": 3505, "pitch": 42, "duration": 17, "velocity": 100}, {"time": 3505, "pitch": 57, "duration": 6, "velocity": 83}, {"time": 3505, "pitch": 61, "duration": 7, "velocity": 92}, {"time": 3505, "pitch": 66, "duration": 9, "velocity": 89}, {"time": 3511, "pitch": 54, "duration": 13, "velocity": 66}, {"time": 3514, "pitch": 57, "duration": 10, "velocity": 77}, {"time": 3517, "pitch": 66, "duration": 12, "velocity": 117}, {"time": 3523, "pitch": 61, "duration": 5, "velocity": 74}, {"time": 3529, "pitch": 47, "duration": 41, "velocity": 78}, {"time": 3535, "pitch": 54, "duration": 9, "velocity": 76}, {"time": 3541, "pitch": 61, "duration": 12, "velocity": 112}, {"time": 3547, "pitch": 54, "duration": 9, "velocity": 61}, {"time": 3553, "pitch": 62, "duration": 13, "velocity": 89}, {"time": 3559, "pitch": 54, "duration": 13, "velocity": 48}, {"time": 3565, "pitch": 61, "duration": 11, "velocity": 99}, {"time": 3577, "pitch": 47, "duration": 73, "velocity": 65}, {"time": 3577, "pitch": 54, "duration": 73, "velocity": 68}, {"time": 3577, "pitch": 59, "duration": 73, "velocity": 61}, {"time": 3577, "pitch": 62, "duration": 73, "velocity": 65}, {"time": 3577, "pitch": 66, "duration": 74, "velocity": 61}], "annotations": [{"time": 25, "annotation": {"number": 64, "value": 127}, "group": "control_change"}, {"time": 71, "annotation": {"number": 64, "value": 0}, "group": "control_change"}, {"time": 91, "annotation": {"number": 64, "value": 127}, "group": "control_change"}, {"time": 93, "annotation": {"number": 64, "value": 0}, "group": "control_change"}, {"time": 100, "annotation": {"number": 64, "value": 127}, "group": "control_change"}, {"time": 118, "annotation": {"number": 64, "value": 0}, "group": "control_change"}, {"time": 122, "annotation": {"number": 64, "value": 127}, "group": "control_change"}, {"time": 141, "annotation": {"number": 64, "value": 0}, "group": "control_change"}, {"time": 145, "annotation": {"number": 64, "value": 127}, "group": "control_change"}, {"time": 168, "annotation": {"number": 64, "value": 127}, "group": "control_change"}, {"time": 192, "annotation": {"number": 64, "value": 0}, "group": "control_change"}, {"time": 197, "annotation": {"number": 64, "value": 127}, "group": "control_change"}, {"time": 216, "annotation": {"number": 64, "value": 0}, "group": "control_change"}, {"time": 217, "annotation": {"number": 64, "value": 127}, "group": "control_change"}, {"time": 238, "annotation": {"number": 64, "value": 0}, "group": "control_change"}, {"time": 242, "annotation": {"number": 64, "value": 127}, "group": "control_change"}, {"time": 263, "annotation": {"number": 64, "value": 0}, "group": "control_change"}, {"time": 265, "annotation": {"number": 64, "value": 127}, "group": "control_change"}, {"time": 287, "annotation": {"number": 64, "value": 0}, "group": "control_change"}, {"time": 292, "annotation": {"number": 64, "value": 127}, "group": "control_change"}, {"time": 310, "annotation": {"number": 64, "value": 0}, "group": "control_change"}, {"time": 313, "annotation": {"number": 64, "value": 127}, "group": "control_change"}, {"time": 334, "annotation": {"number": 64, "value": 0}, "group": "control_change"}, {"time": 338, "annotation": {"number": 64, "value": 127}, "group": "control_change"}, {"time": 358, "annotation": {"number": 64, "value": 0}, "group": "control_change"}, {"time": 362, "annotation": {"number": 64, "value": 127}, "group": "control_change"}, {"time": 404, "annotation": {"number": 64, "value": 0}, "group": "control_change"}, {"time": 418, "annotation": {"number": 64, "value": 127}, "group": "control_change"}, {"time": 418, "annotation": {"number": 64, "value": 0}, "group": "control_change"}, {"time": 431, "annotation": {"number": 64, "value": 0}, "group": "control_change"}, {"time": 435, "annotation": {"number": 64, "value": 127}, "group": "control_change"}, {"time": 455, "annotation": {"number": 64, "value": 0}, "group": "control_change"}, {"time": 459, "annotation": {"number": 64, "value": 127}, "group": "control_change"}, {"time": 500, "annotation": {"number": 64, "value": 0}, "group": "control_change"}, {"time": 506, "annotation": {"number": 64, "value": 127}, "group": "control_change"}, {"time": 552, "annotation": {"number": 64, "value": 0}, "group": "control_change"}, {"time": 563, "annotation": {"number": 64, "value": 127}, "group": "control_change"}, {"time": 599, "annotation": {"number": 64, "value": 0}, "group": "control_change"}, {"time": 603, "annotation": {"number": 64, "value": 127}, "group": "control_change"}, {"time": 625, "annotation": {"number": 64, "value": 0}, "group": "control_change"}, {"time": 632, "annotation": {"number": 64, "value": 127}, "group": "control_change"}, {"time": 648, "annotation": {"number": 64, "value": 0}, "group": "control_change"}, {"time": 652, "annotation": {"number": 64, "value": 127}, "group": "control_change"}, {"time": 660, "annotation": {"number": 64, "value": 0}, "group": "control_change"}, {"time": 665, "annotation": {"number": 64, "value": 127}, "group": "control_change"}, {"time": 672, "annotation": {"number": 64, "value": 0}, "group": "control_change"}, {"time": 677, "annotation": {"number": 64, "value": 127}, "group": "control_change"}, {"time": 693, "annotation": {"number": 64, "value": 0}, "group": "control_change"}, {"time": 698, "annotation": {"number": 64, "value": 127}, "group": "control_change"}, {"time": 742, "annotation": {"number": 64, "value": 0}, "group": "control_change"}, {"time": 747, "annotation": {"number": 64, "value": 0}, "group": "control_change"}, {"time": 747, "annotation": {"number": 64, "value": 127}, "group": "control_change"}, {"time": 789, "annotation": {"number": 64, "value": 0}, "group": "control_change"}, {"time": 794, "annotation": {"number": 64, "value": 127}, "group": "control_change"}, {"time": 814, "annotation": {"number": 64, "value": 0}, "group": "control_change"}, {"time": 821, "annotation": {"number": 64, "value": 127}, "group": "control_change"}, {"time": 838, "annotation": {"number": 64, "value": 0}, "group": "control_change"}, {"time": 842, "annotation": {"number": 64, "value": 127}, "group": "control_change"}, {"time": 884, "annotation": {"number": 64, "value": 0}, "group": "control_change"}, {"time": 890, "annotation": {"number": 64, "value": 127}, "group": "control_change"}, {"time": 937, "annotation": {"number": 64, "value": 0}, "group": "control_change"}, {"time": 963, "annotation": {"number": 64, "value": 127}, "group": "control_change"}, {"time": 964, "annotation": {"number": 64, "value": 0}, "group": "control_change"}, {"time": 985, "annotation": {"number": 64, "value": 127}, "group": "control_change"}, {"time": 1008, "annotation": {"number": 64, "value": 0}, "group": "control_change"}, {"time": 1017, "annotation": {"number": 64, "value": 127}, "group": "control_change"}, {"time": 1036, "annotation": {"number": 64, "value": 0}, "group": "control_change"}, {"time": 1037, "annotation": {"number": 64, "value": 127}, "group": "control_change"}, {"time": 1044, "annotation": {"number": 64, "value": 0}, "group": "control_change"}, {"time": 1049, "annotation": {"number": 64, "value": 127}, "group": "control_change"}, {"time": 1056, "annotation": {"number": 64, "value": 0}, "group": "control_change"}, {"time": 1061, "annotation": {"number": 64, "value": 127}, "group": "control_change"}, {"time": 1077, "annotation": {"number": 64, "value": 0}, "group": "control_change"}, {"time": 1083, "annotation": {"number": 64, "value": 127}, "group": "control_change"}, {"time": 1102, "annotation": {"number": 64, "value": 0}, "group": "control_change"}, {"time": 1178, "annotation": {"number": 64, "value": 127}, "group": "control_change"}, {"time": 1198, "annotation": {"number": 64, "value": 0}, "group": "control_change"}, {"time": 1202, "annotation": {"number": 64, "value": 127}, "group": "control_change"}, {"time": 1222, "annotation": {"number": 64, "value": 0}, "group": "control_change"}, {"time": 1225, "annotation": {"number": 64, "value": 127}, "group": "control_change"}, {"time": 1246, "annotation": {"number": 64, "value": 0}, "group": "control_change"}, {"time": 1250, "annotation": {"number": 64, "value": 127}, "group": "control_change"}, {"time": 1271, "annotation": {"number": 64, "value": 0}, "group": "control_change"}, {"time": 1274, "annotation": {"number": 64, "value": 127}, "group": "control_change"}, {"time": 1274, "annotation": {"number": 64, "value": 0}, "group": "control_change"}, {"time": 1296, "annotation": {"number": 64, "value": 0}, "group": "control_change"}, {"time": 1299, "annotation": {"number": 64, "value": 127}, "group": "control_change"}, {"time": 1319, "annotation": {"number": 64, "value": 0}, "group": "control_change"}, {"time": 1322, "annotation": {"number": 64, "value": 127}, "group": "control_change"}, {"time": 1368, "annotation": {"number": 64, "value": 0}, "group": "control_change"}, {"time": 1369, "annotation": {"number": 64, "value": 127}, "group": "control_change"}, {"time": 1416, "annotation": {"number": 64, "value": 0}, "group": "control_change"}, {"time": 1420, "annotation": {"number": 64, "value": 127}, "group": "control_change"}, {"time": 1439, "annotation": {"number": 64, "value": 0}, "group": "control_change"}, {"time": 1443, "annotation": {"number": 64, "value": 127}, "group": "control_change"}, {"time": 1443, "annotation": {"number": 64, "value": 0}, "group": "control_change"}, {"time": 1444, "annotation": {"number": 64, "value": 127}, "group": "control_change"}, {"time": 1488, "annotation": {"number": 64, "value": 0}, "group": "control_change"}, {"time": 1493, "annotation": {"number": 64, "value": 127}, "group": "control_change"}, {"time": 1511, "annotation": {"number": 64, "value": 0}, "group": "control_change"}, {"time": 1514, "annotation": {"number": 64, "value": 127}, "group": "control_change"}, {"time": 1536, "annotation": {"number": 64, "value": 0}, "group": "control_change"}, {"time": 1538, "annotation": {"number": 64, "value": 127}, "group": "control_change"}, {"time": 1557, "annotation": {"number": 64, "value": 0}, "group": "control_change"}, {"time": 1562, "annotation": {"number": 64, "value": 127}, "group": "control_change"}, {"time": 1582, "annotation": {"number": 64, "value": 0}, "group": "control_change"}, {"time": 1586, "annotation": {"number": 64, "value": 127}, "group": "control_change"}, {"time": 1606, "annotation": {"number": 64, "value": 0}, "group": "control_change"}, {"time": 1609, "annotation": {"number": 64, "value": 127}, "group": "control_change"}, {"time": 1630, "annotation": {"number": 64, "value": 0}, "group": "control_change"}, {"time": 1634, "annotation": {"number": 64, "value": 127}, "group": "control_change"}, {"time": 1655, "annotation": {"number": 64, "value": 0}, "group": "control_change"}, {"time": 1658, "annotation": {"number": 64, "value": 127}, "group": "control_change"}, {"time": 1658, "annotation": {"number": 64, "value": 0}, "group": "control_change"}, {"time": 1680, "annotation": {"number": 64, "value": 0}, "group": "control_change"}, {"time": 1683, "annotation": {"number": 64, "value": 127}, "group": "control_change"}, {"time": 1703, "annotation": {"number": 64, "value": 0}, "group": "control_change"}, {"time": 1706, "annotation": {"number": 64, "value": 127}, "group": "control_change"}, {"time": 1752, "annotation": {"number": 64, "value": 0}, "group": "control_change"}, {"time": 1753, "annotation": {"number": 64, "value": 127}, "group": "control_change"}, {"time": 1800, "annotation": {"number": 64, "value": 0}, "group": "control_change"}, {"time": 1804, "annotation": {"number": 64, "value": 127}, "group": "control_change"}, {"time": 1823, "annotation": {"number": 64, "value": 0}, "group": "control_change"}, {"time": 1827, "annotation": {"number": 64, "value": 127}, "group": "control_change"}, {"time": 1827, "annotation": {"number": 64, "value": 0}, "group": "control_change"}, {"time": 1828, "annotation": {"number": 64, "value": 127}, "group": "control_change"}, {"time": 1872, "annotation": {"number": 64, "value": 0}, "group": "control_change"}, {"time": 1877, "annotation": {"number": 64, "value": 127}, "group": "control_change"}, {"time": 1895, "annotation": {"number": 64, "value": 0}, "group": "control_change"}, {"time": 1898, "annotation": {"number": 64, "value": 127}, "group": "control_change"}, {"time": 1920, "annotation": {"number": 64, "value": 0}, "group": "control_change"}, {"time": 1922, "annotation": {"number": 64, "value": 127}, "group": "control_change"}, {"time": 1941, "annotation": {"number": 64, "value": 0}, "group": "control_change"}, {"time": 1945, "annotation": {"number": 64, "value": 127}, "group": "control_change"}, {"time": 1991, "annotation": {"number": 64, "value": 0}, "group": "control_change"}, {"time": 2011, "annotation": {"number": 64, "value": 127}, "group": "control_change"}, {"time": 2013, "annotation": {"number": 64, "value": 0}, "group": "control_change"}, {"time": 2020, "annotation": {"number": 64, "value": 127}, "group": "control_change"}, {"time": 2038, "annotation": {"number": 64, "value": 0}, "group": "control_change"}, {"time": 2042, "annotation": {"number": 64, "value": 127}, "group": "control_change"}, {"time": 2061, "annotation": {"number": 64, "value": 0}, "group": "control_change"}, {"time": 2065, "annotation": {"number": 64, "value": 127}, "group": "control_change"}, {"time": 2088, "annotation": {"number": 64, "value": 127}, "group": "control_change"}, {"time": 2112, "annotation": {"number": 64, "value": 0}, "group": "control_change"}, {"time": 2117, "annotation": {"number": 64, "value": 127}, "group": "control_change"}, {"time": 2136, "annotation": {"number": 64, "value": 0}, "group": "control_change"}, {"time": 2137, "annotation": {"number": 64, "value": 127}, "group": "control_change"}, {"time": 2158, "annotation": {"number": 64, "value": 0}, "group": "control_change"}, {"time": 2162, "annotation": {"number": 64, "value": 127}, "group": "control_change"}, {"time": 2183, "annotation": {"number": 64, "value": 0}, "group": "control_change"}, {"time": 2185, "annotation": {"number": 64, "value": 127}, "group": "control_change"}, {"time": 2207, "annotation": {"number": 64, "value": 0}, "group": "control_change"}, {"time": 2212, "annotation": {"number": 64, "value": 127}, "group": "control_change"}, {"time": 2230, "annotation": {"number": 64, "value": 0}, "group": "control_change"}, {"time": 2233, "annotation": {"number": 64, "value": 127}, "group": "control_change"}, {"time": 2254, "annotation": {"number": 64, "value": 0}, "group": "control_change"}, {"time": 2258, "annotation": {"number": 64, "value": 127}, "group": "control_change"}, {"time": 2278, "annotation": {"number": 64, "value": 0}, "group": "control_change"}, {"time": 2282, "annotation": {"number": 64, "value": 127}, "group": "control_change"}, {"time": 2324, "annotation": {"number": 64, "value": 0}, "group": "control_change"}, {"time": 2330, "annotation": {"number": 64, "value": 127}, "group": "control_change"}, {"time": 2350, "annotation": {"number": 64, "value": 0}, "group": "control_change"}, {"time": 2357, "annotation": {"number": 64, "value": 127}, "group": "control_change"}, {"time": 2374, "annotation": {"number": 64, "value": 0}, "group": "control_change"}, {"time": 2378, "annotation": {"number": 64, "value": 127}, "group": "control_change"}, {"time": 2420, "annotation": {"number": 64, "value": 0}, "group": "control_change"}, {"time": 2426, "annotation": {"number": 64, "value": 127}, "group": "control_change"}, {"time": 2473, "annotation": {"number": 64, "value": 0}, "group": "control_change"}, {"time": 2499, "annotation": {"number": 64, "value": 127}, "group": "control_change"}, {"time": 2500, "annotation": {"number": 64, "value": 0}, "group": "control_change"}, {"time": 2521, "annotation": {"number": 64, "value": 127}, "group": "control_change"}, {"time": 2544, "annotation": {"number": 64, "value": 0}, "group": "control_change"}, {"time": 2553, "annotation": {"number": 64, "value": 127}, "group": "control_change"}, {"time": 2572, "annotation": {"number": 64, "value": 0}, "group": "control_change"}, {"time": 2573, "annotation": {"number": 64, "value": 127}, "group": "control_change"}, {"time": 2580, "annotation": {"number": 64, "value": 0}, "group": "control_change"}, {"time": 2585, "annotation": {"number": 64, "value": 127}, "group": "control_change"}, {"time": 2592, "annotation": {"number": 64, "value": 0}, "group": "control_change"}, {"time": 2597, "annotation": {"number": 64, "value": 127}, "group": "control_change"}, {"time": 2613, "annotation": {"number": 64, "value": 0}, "group": "control_change"}, {"time": 2619, "annotation": {"number": 64, "value": 127}, "group": "control_change"}, {"time": 2638, "annotation": {"number": 64, "value": 0}, "group": "control_change"}, {"time": 2714, "annotation": {"number": 64, "value": 127}, "group": "control_change"}, {"time": 2734, "annotation": {"number": 64, "value": 0}, "group": "control_change"}, {"time": 2738, "annotation": {"number": 64, "value": 127}, "group": "control_change"}, {"time": 2758, "annotation": {"number": 64, "value": 0}, "group": "control_change"}, {"time": 2761, "annotation": {"number": 64, "value": 127}, "group": "control_change"}, {"time": 2782, "annotation": {"number": 64, "value": 0}, "group": "control_change"}, {"time": 2786, "annotation": {"number": 64, "value": 127}, "group": "control_change"}, {"time": 2807, "annotation": {"number": 64, "value": 0}, "group": "control_change"}, {"time": 2810, "annotation": {"number": 64, "value": 127}, "group": "control_change"}, {"time": 2810, "annotation": {"number": 64, "value": 0}, "group": "control_change"}, {"time": 2832, "annotation": {"number": 64, "value": 0}, "group": "control_change"}, {"time": 2835, "annotation": {"number": 64, "value": 127}, "group": "control_change"}, {"time": 2855, "annotation": {"number": 64, "value": 0}, "group": "control_change"}, {"time": 2858, "annotation": {"number": 64, "value": 127}, "group": "control_change"}, {"time": 2904, "annotation": {"number": 64, "value": 0}, "group": "control_change"}, {"time": 2905, "annotation": {"number": 64, "value": 127}, "group": "control_change"}, {"time": 2952, "annotation": {"number": 64, "value": 0}, "group": "control_change"}, {"time": 2956, "annotation": {"number": 64, "value": 127}, "group": "control_change"}, {"time": 2975, "annotation": {"number": 64, "value": 0}, "group": "control_change"}, {"time": 2979, "annotation": {"number": 64, "value": 127}, "group": "control_change"}, {"time": 2979, "annotation": {"number": 64, "value": 0}, "group": "control_change"}, {"time": 2980, "annotation": {"number": 64, "value": 127}, "group": "control_change"}, {"time": 3024, "annotation": {"number": 64, "value": 0}, "group": "control_change"}, {"time": 3029, "annotation": {"number": 64, "value": 127}, "group": "control_change"}, {"time": 3047, "annotation": {"number": 64, "value": 0}, "group": "control_change"}, {"time": 3050, "annotation": {"number": 64, "value": 127}, "group": "control_change"}, {"time": 3072, "annotation": {"number": 64, "value": 0}, "group": "control_change"}, {"time": 3074, "annotation": {"number": 64, "value": 127}, "group": "control_change"}, {"time": 3093, "annotation": {"number": 64, "value": 0}, "group": "control_change"}, {"time": 3098, "annotation": {"number": 64, "value": 127}, "group": "control_change"}, {"time": 3118, "annotation": {"number": 64, "value": 0}, "group": "control_change"}, {"time": 3122, "annotation": {"number": 64, "value": 127}, "group": "control_change"}, {"time": 3142, "annotation": {"number": 64, "value": 0}, "group": "control_change"}, {"time": 3145, "annotation": {"number": 64, "value": 127}, "group": "control_change"}, {"time": 3166, "annotation": {"number": 64, "value": 0}, "group": "control_change"}, {"time": 3170, "annotation": {"number": 64, "value": 127}, "group": "control_change"}, {"time": 3191, "annotation": {"number": 64, "value": 0}, "group": "control_change"}, {"time": 3194, "annotation": {"number": 64, "value": 127}, "group": "control_change"}, {"time": 3194, "annotation": {"number": 64, "value": 0}, "group": "control_change"}, {"time": 3216, "annotation": {"number": 64, "value": 0}, "group": "control_change"}, {"time": 3219, "annotation": {"number": 64, "value": 127}, "group": "control_change"}, {"time": 3239, "annotation": {"number": 64, "value": 0}, "group": "control_change"}, {"time": 3242, "annotation": {"number": 64, "value": 127}, "group": "control_change"}, {"time": 3288, "annotation": {"number": 64, "value": 0}, "group": "control_change"}, {"time": 3289, "annotation": {"number": 64, "value": 127}, "group": "control_change"}, {"time": 3336, "annotation": {"number": 64, "value": 0}, "group": "control_change"}, {"time": 3340, "annotation": {"number": 64, "value": 127}, "group": "control_change"}, {"time": 3359, "annotation": {"number": 64, "value": 0}, "group": "control_change"}, {"time": 3363, "annotation": {"number": 64, "value": 127}, "group": "control_change"}, {"time": 3363, "annotation": {"number": 64, "value": 0}, "group": "control_change"}, {"time": 3364, "annotation": {"number": 64, "value": 127}, "group": "control_change"}, {"time": 3408, "annotation": {"number": 64, "value": 0}, "group": "control_change"}, {"time": 3413, "annotation": {"number": 64, "value": 127}, "group": "control_change"}, {"time": 3431, "annotation": {"number": 64, "value": 0}, "group": "control_change"}, {"time": 3434, "annotation": {"number": 64, "value": 127}, "group": "control_change"}, {"time": 3456, "annotation": {"number": 64, "value": 0}, "group": "control_change"}, {"time": 3458, "annotation": {"number": 64, "value": 127}, "group": "control_change"}, {"time": 3477, "annotation": {"number": 64, "value": 0}, "group": "control_change"}, {"time": 3481, "annotation": {"number": 64, "value": 127}, "group": "control_change"}, {"time": 3503, "annotation": {"number": 64, "value": 0}, "group": "control_change"}, {"time": 3509, "annotation": {"number": 64, "value": 127}, "group": "control_change"}, {"time": 3528, "annotation": {"number": 64, "value": 0}, "group": "control_change"}, {"time": 3534, "annotation": {"number": 64, "value": 127}, "group": "control_change"}, {"time": 3575, "annotation": {"number": 64, "value": 0}, "group": "control_change"}]}]}