{"metadata": {"schema_version": "0.2", "title": "None", "source_filename": "098.mid", "source_format": "midi"}, "resolution": 12, "tempos": [{"time": 0, "qpm": 74.000074000074}], "time_signatures": [{"time": 0, "numerator": 1, "denominator": 4}], "tracks": [{"program": 0, "is_drum": false, "name": "MELODY", "notes": [{"time": 242, "pitch": 72, "duration": 3, "velocity": 117}, {"time": 245, "pitch": 75, "duration": 2, "velocity": 96}, {"time": 248, "pitch": 75, "duration": 5, "velocity": 97}, {"time": 254, "pitch": 68, "duration": 6, "velocity": 107}, {"time": 266, "pitch": 72, "duration": 2, "velocity": 97}, {"time": 269, "pitch": 75, "duration": 2, "velocity": 99}, {"time": 272, "pitch": 75, "duration": 5, "velocity": 117}, {"time": 278, "pitch": 68, "duration": 5, "velocity": 112}, {"time": 284, "pitch": 72, "duration": 5, "velocity": 107}, {"time": 290, "pitch": 70, "duration": 2, "velocity": 112}, {"time": 296, "pitch": 70, "duration": 3, "velocity": 112}, {"time": 302, "pitch": 70, "duration": 26, "velocity": 99}, {"time": 338, "pitch": 72, "duration": 2, "velocity": 96}, {"time": 341, "pitch": 75, "duration": 1, "velocity": 99}, {"time": 344, "pitch": 75, "duration": 5, "velocity": 102}, {"time": 350, "pitch": 68, "duration": 4, "velocity": 100}, {"time": 362, "pitch": 72, "duration": 3, "velocity": 102}, {"time": 365, "pitch": 75, "duration": 1, "velocity": 93}, {"time": 368, "pitch": 75, "duration": 6, "velocity": 117}, {"time": 374, "pitch": 68, "duration": 4, "velocity": 117}, {"time": 380, "pitch": 72, "duration": 5, "velocity": 107}, {"time": 386, "pitch": 70, "duration": 2, "velocity": 112}, {"time": 392, "pitch": 70, "duration": 2, "velocity": 97}, {"time": 398, "pitch": 70, "duration": 13, "velocity": 107}, {"time": 422, "pitch": 68, "duration": 5, "velocity": 122}, {"time": 428, "pitch": 77, "duration": 6, "velocity": 100}, {"time": 434, "pitch": 79, "duration": 6, "velocity": 92}, {"time": 440, "pitch": 80, "duration": 8, "velocity": 112}, {"time": 446, "pitch": 75, "duration": 14, "velocity": 107}, {"time": 458, "pitch": 73, "duration": 6, "velocity": 117}, {"time": 464, "pitch": 72, "duration": 6, "velocity": 95}, {"time": 470, "pitch": 70, "duration": 12, "velocity": 112}, {"time": 482, "pitch": 70, "duration": 5, "velocity": 117}, {"time": 488, "pitch": 68, "duration": 4, "velocity": 112}, {"time": 494, "pitch": 72, "duration": 20, "velocity": 112}, {"time": 518, "pitch": 72, "duration": 4, "velocity": 102}, {"time": 524, "pitch": 73, "duration": 4, "velocity": 112}, {"time": 530, "pitch": 73, "duration": 4, "velocity": 112}, {"time": 536, "pitch": 73, "duration": 5, "velocity": 107}, {"time": 542, "pitch": 75, "duration": 4, "velocity": 112}, {"time": 548, "pitch": 75, "duration": 8, "velocity": 117}, {"time": 554, "pitch": 68, "duration": 5, "velocity": 117}, {"time": 560, "pitch": 70, "duration": 11, "velocity": 112}, {"time": 572, "pitch": 68, "duration": 50, "velocity": 107}, {"time": 626, "pitch": 72, "duration": 2, "velocity": 96}, {"time": 629, "pitch": 75, "duration": 1, "velocity": 96}, {"time": 632, "pitch": 75, "duration": 5, "velocity": 99}, {"time": 638, "pitch": 68, "duration": 8, "velocity": 102}]}, {"program": 0, "is_drum": false, "name": "PIANO", "notes": [{"time": 44, "pitch": 49, "duration": 38, "velocity": 64}, {"time": 44, "pitch": 61, "duration": 13, "velocity": 46}, {"time": 44, "pitch": 65, "duration": 37, "velocity": 60}, {"time": 44, "pitch": 68, "duration": 38, "velocity": 37}, {"time": 50, "pitch": 53, "duration": 32, "velocity": 38}, {"time": 56, "pitch": 56, "duration": 26, "velocity": 40}, {"time": 62, "pitch": 61, "duration": 20, "velocity": 75}, {"time": 92, "pitch": 53, "duration": 35, "velocity": 72}, {"time": 92, "pitch": 65, "duration": 7, "velocity": 57}, {"time": 92, "pitch": 68, "duration": 10, "velocity": 70}, {"time": 92, "pitch": 72, "duration": 12, "velocity": 64}, {"time": 98, "pitch": 60, "duration": 27, "velocity": 66}, {"time": 104, "pitch": 65, "duration": 7, "velocity": 71}, {"time": 110, "pitch": 68, "duration": 20, "velocity": 78}, {"time": 110, "pitch": 72, "duration": 24, "velocity": 85}, {"time": 128, "pitch": 65, "duration": 7, "velocity": 78}, {"time": 140, "pitch": 37, "duration": 37, "velocity": 100}, {"time": 146, "pitch": 49, "duration": 32, "velocity": 66}, {"time": 152, "pitch": 65, "duration": 18, "velocity": 73}, {"time": 152, "pitch": 68, "duration": 19, "velocity": 86}, {"time": 158, "pitch": 61, "duration": 16, "velocity": 93}, {"time": 176, "pitch": 65, "duration": 12, "velocity": 92}, {"time": 176, "pitch": 68, "duration": 12, "velocity": 95}, {"time": 182, "pitch": 61, "duration": 7, "velocity": 64}, {"time": 188, "pitch": 41, "duration": 41, "velocity": 78}, {"time": 194, "pitch": 48, "duration": 35, "velocity": 44}, {"time": 200, "pitch": 53, "duration": 22, "velocity": 93}, {"time": 206, "pitch": 56, "duration": 31, "velocity": 93}, {"time": 224, "pitch": 60, "duration": 13, "velocity": 81}, {"time": 236, "pitch": 37, "duration": 14, "velocity": 89}, {"time": 242, "pitch": 49, "duration": 12, "velocity": 52}, {"time": 248, "pitch": 61, "duration": 15, "velocity": 73}, {"time": 254, "pitch": 68, "duration": 7, "velocity": 56}, {"time": 260, "pitch": 44, "duration": 15, "velocity": 90}, {"time": 266, "pitch": 56, "duration": 9, "velocity": 69}, {"time": 272, "pitch": 60, "duration": 12, "velocity": 71}, {"time": 284, "pitch": 46, "duration": 24, "velocity": 82}, {"time": 290, "pitch": 58, "duration": 14, "velocity": 76}, {"time": 296, "pitch": 65, "duration": 39, "velocity": 93}, {"time": 302, "pitch": 61, "duration": 16, "velocity": 74}, {"time": 308, "pitch": 46, "duration": 15, "velocity": 31}, {"time": 320, "pitch": 61, "duration": 16, "velocity": 100}, {"time": 326, "pitch": 58, "duration": 8, "velocity": 66}, {"time": 332, "pitch": 37, "duration": 18, "velocity": 96}, {"time": 338, "pitch": 49, "duration": 14, "velocity": 73}, {"time": 344, "pitch": 56, "duration": 8, "velocity": 92}, {"time": 350, "pitch": 61, "duration": 6, "velocity": 56}, {"time": 356, "pitch": 44, "duration": 18, "velocity": 99}, {"time": 362, "pitch": 56, "duration": 11, "velocity": 75}, {"time": 368, "pitch": 63, "duration": 12, "velocity": 102}, {"time": 374, "pitch": 60, "duration": 6, "velocity": 83}, {"time": 380, "pitch": 46, "duration": 42, "velocity": 83}, {"time": 386, "pitch": 58, "duration": 33, "velocity": 86}, {"time": 392, "pitch": 61, "duration": 23, "velocity": 81}, {"time": 398, "pitch": 65, "duration": 16, "velocity": 75}, {"time": 416, "pitch": 65, "duration": 12, "velocity": 97}, {"time": 422, "pitch": 61, "duration": 6, "velocity": 88}, {"time": 428, "pitch": 37, "duration": 16, "velocity": 90}, {"time": 434, "pitch": 49, "duration": 12, "velocity": 86}, {"time": 440, "pitch": 56, "duration": 12, "velocity": 97}, {"time": 440, "pitch": 61, "duration": 12, "velocity": 99}, {"time": 446, "pitch": 53, "duration": 6, "velocity": 86}, {"time": 452, "pitch": 44, "duration": 14, "velocity": 92}, {"time": 458, "pitch": 56, "duration": 7, "velocity": 82}, {"time": 464, "pitch": 60, "duration": 12, "velocity": 75}, {"time": 464, "pitch": 63, "duration": 13, "velocity": 99}, {"time": 470, "pitch": 56, "duration": 7, "velocity": 74}, {"time": 476, "pitch": 39, "duration": 14, "velocity": 76}, {"time": 482, "pitch": 51, "duration": 8, "velocity": 81}, {"time": 482, "pitch": 55, "duration": 6, "velocity": 41}, {"time": 488, "pitch": 58, "duration": 12, "velocity": 89}, {"time": 488, "pitch": 63, "duration": 12, "velocity": 97}, {"time": 494, "pitch": 55, "duration": 9, "velocity": 78}, {"time": 500, "pitch": 41, "duration": 16, "velocity": 71}, {"time": 506, "pitch": 48, "duration": 10, "velocity": 55}, {"time": 506, "pitch": 53, "duration": 7, "velocity": 83}, {"time": 512, "pitch": 56, "duration": 11, "velocity": 93}, {"time": 512, "pitch": 60, "duration": 11, "velocity": 92}, {"time": 518, "pitch": 53, "duration": 5, "velocity": 74}, {"time": 524, "pitch": 46, "duration": 16, "velocity": 100}, {"time": 530, "pitch": 58, "duration": 8, "velocity": 99}, {"time": 536, "pitch": 61, "duration": 14, "velocity": 77}, {"time": 536, "pitch": 65, "duration": 13, "velocity": 62}, {"time": 542, "pitch": 58, "duration": 7, "velocity": 90}, {"time": 548, "pitch": 39, "duration": 17, "velocity": 85}, {"time": 554, "pitch": 51, "duration": 11, "velocity": 82}, {"time": 560, "pitch": 58, "duration": 13, "velocity": 95}, {"time": 560, "pitch": 63, "duration": 12, "velocity": 99}, {"time": 566, "pitch": 55, "duration": 7, "velocity": 64}, {"time": 572, "pitch": 37, "duration": 16, "velocity": 71}, {"time": 578, "pitch": 49, "duration": 13, "velocity": 81}, {"time": 584, "pitch": 56, "duration": 18, "velocity": 96}, {"time": 584, "pitch": 61, "duration": 18, "velocity": 97}, {"time": 590, "pitch": 53, "duration": 12, "velocity": 35}, {"time": 596, "pitch": 44, "duration": 17, "velocity": 92}, {"time": 602, "pitch": 56, "duration": 10, "velocity": 93}, {"time": 608, "pitch": 63, "duration": 12, "velocity": 99}, {"time": 614, "pitch": 60, "duration": 6, "velocity": 53}, {"time": 620, "pitch": 37, "duration": 13, "velocity": 83}, {"time": 626, "pitch": 49, "duration": 19, "velocity": 56}, {"time": 632, "pitch": 56, "duration": 2, "velocity": 99}, {"time": 644, "pitch": 44, "duration": 16, "velocity": 97}, {"time": 644, "pitch": 56, "duration": 17, "velocity": 79}, {"time": 644, "pitch": 60, "duration": 16, "velocity": 95}, {"time": 644, "pitch": 63, "duration": 17, "velocity": 97}], "annotations": [{"time": 43, "annotation": {"number": 64, "value": 127}, "group": "control_change"}, {"time": 91, "annotation": {"number": 64, "value": 0}, "group": "control_change"}, {"time": 94, "annotation": {"number": 64, "value": 127}, "group": "control_change"}, {"time": 139, "annotation": {"number": 64, "value": 0}, "group": "control_change"}, {"time": 141, "annotation": {"number": 64, "value": 127}, "group": "control_change"}, {"time": 185, "annotation": {"number": 64, "value": 0}, "group": "control_change"}, {"time": 188, "annotation": {"number": 64, "value": 127}, "group": "control_change"}, {"time": 234, "annotation": {"number": 64, "value": 0}, "group": "control_change"}, {"time": 237, "annotation": {"number": 64, "value": 127}, "group": "control_change"}, {"time": 258, "annotation": {"number": 64, "value": 0}, "group": "control_change"}, {"time": 261, "annotation": {"number": 64, "value": 127}, "group": "control_change"}, {"time": 281, "annotation": {"number": 64, "value": 0}, "group": "control_change"}, {"time": 284, "annotation": {"number": 64, "value": 127}, "group": "control_change"}, {"time": 355, "annotation": {"number": 64, "value": 0}, "group": "control_change"}, {"time": 358, "annotation": {"number": 64, "value": 127}, "group": "control_change"}, {"time": 378, "annotation": {"number": 64, "value": 0}, "group": "control_change"}, {"time": 381, "annotation": {"number": 64, "value": 127}, "group": "control_change"}, {"time": 426, "annotation": {"number": 64, "value": 0}, "group": "control_change"}, {"time": 427, "annotation": {"number": 64, "value": 127}, "group": "control_change"}, {"time": 450, "annotation": {"number": 64, "value": 0}, "group": "control_change"}, {"time": 453, "annotation": {"number": 64, "value": 127}, "group": "control_change"}, {"time": 473, "annotation": {"number": 64, "value": 0}, "group": "control_change"}, {"time": 477, "annotation": {"number": 64, "value": 127}, "group": "control_change"}, {"time": 497, "annotation": {"number": 64, "value": 0}, "group": "control_change"}, {"time": 500, "annotation": {"number": 64, "value": 127}, "group": "control_change"}, {"time": 522, "annotation": {"number": 64, "value": 0}, "group": "control_change"}, {"time": 524, "annotation": {"number": 64, "value": 127}, "group": "control_change"}, {"time": 570, "annotation": {"number": 64, "value": 0}, "group": "control_change"}, {"time": 573, "annotation": {"number": 64, "value": 127}, "group": "control_change"}, {"time": 592, "annotation": {"number": 64, "value": 0}, "group": "control_change"}, {"time": 597, "annotation": {"number": 64, "value": 127}, "group": "control_change"}, {"time": 598, "annotation": {"number": 64, "value": 127}, "group": "control_change"}, {"time": 599, "annotation": {"number": 64, "value": 0}, "group": "control_change"}, {"time": 617, "annotation": {"number": 64, "value": 0}, "group": "control_change"}, {"time": 621, "annotation": {"number": 64, "value": 127}, "group": "control_change"}, {"time": 642, "annotation": {"number": 64, "value": 0}, "group": "control_change"}]}]}