{"metadata": {"schema_version": "0.2", "title": "None", "source_filename": "099.mid", "source_format": "midi"}, "resolution": 12, "tempos": [{"time": 0, "qpm": 64.99999458333379}], "key_signatures": [{"time": 0, "root": 0, "mode": "major"}], "time_signatures": [{"time": 0, "numerator": 4, "denominator": 4}, {"time": 0, "numerator": 1, "denominator": 4}], "tracks": [{"program": 0, "is_drum": false, "name": "MELODY", "notes": [{"time": 295, "pitch": 79, "duration": 3, "velocity": 98}, {"time": 298, "pitch": 76, "duration": 1, "velocity": 92}, {"time": 301, "pitch": 76, "duration": 2, "velocity": 97}, {"time": 304, "pitch": 74, "duration": 1, "velocity": 92}, {"time": 307, "pitch": 74, "duration": 2, "velocity": 93}, {"time": 310, "pitch": 72, "duration": 1, "velocity": 85}, {"time": 313, "pitch": 72, "duration": 2, "velocity": 107}, {"time": 316, "pitch": 67, "duration": 2, "velocity": 92}, {"time": 319, "pitch": 67, "duration": 1, "velocity": 89}, {"time": 322, "pitch": 69, "duration": 1, "velocity": 93}, {"time": 325, "pitch": 72, "duration": 1, "velocity": 92}, {"time": 328, "pitch": 74, "duration": 1, "velocity": 90}, {"time": 331, "pitch": 76, "duration": 8, "velocity": 100}, {"time": 343, "pitch": 81, "duration": 1, "velocity": 117}, {"time": 346, "pitch": 79, "duration": 1, "velocity": 93}, {"time": 349, "pitch": 79, "duration": 1, "velocity": 95}, {"time": 352, "pitch": 76, "duration": 1, "velocity": 102}, {"time": 355, "pitch": 76, "duration": 1, "velocity": 93}, {"time": 358, "pitch": 74, "duration": 1, "velocity": 96}, {"time": 361, "pitch": 72, "duration": 1, "velocity": 83}, {"time": 364, "pitch": 74, "duration": 1, "velocity": 85}, {"time": 367, "pitch": 69, "duration": 5, "velocity": 97}, {"time": 385, "pitch": 67, "duration": 2, "velocity": 90}, {"time": 388, "pitch": 69, "duration": 1, "velocity": 88}, {"time": 391, "pitch": 72, "duration": 8, "velocity": 96}, {"time": 409, "pitch": 74, "duration": 2, "velocity": 112}, {"time": 412, "pitch": 72, "duration": 3, "velocity": 90}, {"time": 415, "pitch": 76, "duration": 5, "velocity": 107}, {"time": 421, "pitch": 79, "duration": 7, "velocity": 112}, {"time": 436, "pitch": 76, "duration": 1, "velocity": 93}, {"time": 439, "pitch": 74, "duration": 5, "velocity": 100}, {"time": 445, "pitch": 72, "duration": 2, "velocity": 86}, {"time": 451, "pitch": 72, "duration": 4, "velocity": 100}, {"time": 454, "pitch": 76, "duration": 8, "velocity": 95}, {"time": 463, "pitch": 74, "duration": 14, "velocity": 99}, {"time": 487, "pitch": 79, "duration": 3, "velocity": 127}, {"time": 490, "pitch": 76, "duration": 1, "velocity": 92}, {"time": 493, "pitch": 76, "duration": 2, "velocity": 97}, {"time": 496, "pitch": 74, "duration": 1, "velocity": 92}, {"time": 499, "pitch": 74, "duration": 2, "velocity": 93}, {"time": 502, "pitch": 72, "duration": 1, "velocity": 85}, {"time": 505, "pitch": 72, "duration": 2, "velocity": 107}, {"time": 508, "pitch": 67, "duration": 2, "velocity": 92}, {"time": 511, "pitch": 67, "duration": 1, "velocity": 89}, {"time": 514, "pitch": 69, "duration": 1, "velocity": 93}, {"time": 517, "pitch": 72, "duration": 1, "velocity": 92}, {"time": 520, "pitch": 74, "duration": 1, "velocity": 90}, {"time": 523, "pitch": 76, "duration": 8, "velocity": 100}, {"time": 535, "pitch": 81, "duration": 1, "velocity": 117}, {"time": 538, "pitch": 79, "duration": 1, "velocity": 93}, {"time": 541, "pitch": 79, "duration": 1, "velocity": 95}, {"time": 544, "pitch": 76, "duration": 1, "velocity": 102}, {"time": 547, "pitch": 76, "duration": 1, "velocity": 93}, {"time": 550, "pitch": 74, "duration": 1, "velocity": 96}, {"time": 553, "pitch": 72, "duration": 1, "velocity": 83}, {"time": 556, "pitch": 74, "duration": 1, "velocity": 85}, {"time": 559, "pitch": 69, "duration": 5, "velocity": 97}, {"time": 577, "pitch": 67, "duration": 2, "velocity": 90}, {"time": 580, "pitch": 69, "duration": 1, "velocity": 88}, {"time": 583, "pitch": 72, "duration": 12, "velocity": 96}, {"time": 598, "pitch": 74, "duration": 2, "velocity": 112}, {"time": 604, "pitch": 72, "duration": 3, "velocity": 90}, {"time": 607, "pitch": 76, "duration": 5, "velocity": 107}, {"time": 613, "pitch": 79, "duration": 7, "velocity": 112}, {"time": 628, "pitch": 76, "duration": 1, "velocity": 93}, {"time": 631, "pitch": 74, "duration": 5, "velocity": 100}, {"time": 637, "pitch": 72, "duration": 2, "velocity": 86}, {"time": 643, "pitch": 69, "duration": 5, "velocity": 100}, {"time": 649, "pitch": 72, "duration": 4, "velocity": 99}, {"time": 655, "pitch": 72, "duration": 36, "velocity": 122}, {"time": 703, "pitch": 76, "duration": 2, "velocity": 97}, {"time": 706, "pitch": 79, "duration": 3, "velocity": 102}, {"time": 712, "pitch": 76, "duration": 2, "velocity": 85}, {"time": 715, "pitch": 79, "duration": 4, "velocity": 99}, {"time": 721, "pitch": 76, "duration": 6, "velocity": 96}, {"time": 727, "pitch": 81, "duration": 19, "velocity": 112}, {"time": 751, "pitch": 76, "duration": 2, "velocity": 97}, {"time": 754, "pitch": 79, "duration": 2, "velocity": 100}, {"time": 760, "pitch": 76, "duration": 2, "velocity": 96}, {"time": 763, "pitch": 79, "duration": 5, "velocity": 96}, {"time": 769, "pitch": 76, "duration": 4, "velocity": 112}, {"time": 775, "pitch": 69, "duration": 18, "velocity": 100}, {"time": 799, "pitch": 74, "duration": 1, "velocity": 122}, {"time": 802, "pitch": 76, "duration": 3, "velocity": 102}, {"time": 808, "pitch": 72, "duration": 2, "velocity": 92}, {"time": 811, "pitch": 74, "duration": 4, "velocity": 97}, {"time": 817, "pitch": 76, "duration": 4, "velocity": 96}, {"time": 823, "pitch": 76, "duration": 4, "velocity": 96}, {"time": 826, "pitch": 79, "duration": 5, "velocity": 117}, {"time": 832, "pitch": 76, "duration": 2, "velocity": 90}, {"time": 835, "pitch": 79, "duration": 11, "velocity": 99}, {"time": 847, "pitch": 84, "duration": 7, "velocity": 127}, {"time": 853, "pitch": 83, "duration": 7, "velocity": 102}, {"time": 859, "pitch": 81, "duration": 6, "velocity": 117}, {"time": 865, "pitch": 79, "duration": 1, "velocity": 96}, {"time": 868, "pitch": 79, "duration": 4, "velocity": 96}, {"time": 871, "pitch": 81, "duration": 18, "velocity": 117}, {"time": 895, "pitch": 74, "duration": 1, "velocity": 112}, {"time": 898, "pitch": 76, "duration": 2, "velocity": 96}, {"time": 904, "pitch": 72, "duration": 2, "velocity": 102}, {"time": 907, "pitch": 74, "duration": 4, "velocity": 96}, {"time": 913, "pitch": 76, "duration": 4, "velocity": 99}, {"time": 919, "pitch": 76, "duration": 3, "velocity": 102}, {"time": 922, "pitch": 79, "duration": 8, "velocity": 102}, {"time": 928, "pitch": 76, "duration": 2, "velocity": 97}, {"time": 931, "pitch": 79, "duration": 7, "velocity": 107}, {"time": 943, "pitch": 84, "duration": 6, "velocity": 127}, {"time": 949, "pitch": 83, "duration": 6, "velocity": 112}, {"time": 955, "pitch": 81, "duration": 5, "velocity": 112}, {"time": 961, "pitch": 79, "duration": 2, "velocity": 95}, {"time": 964, "pitch": 79, "duration": 2, "velocity": 95}, {"time": 965, "pitch": 81, "duration": 23, "velocity": 112}, {"time": 1015, "pitch": 78, "duration": 4, "velocity": 127}, {"time": 1027, "pitch": 76, "duration": 4, "velocity": 112}, {"time": 1033, "pitch": 74, "duration": 7, "velocity": 95}, {"time": 1039, "pitch": 76, "duration": 18, "velocity": 117}, {"time": 1057, "pitch": 76, "duration": 2, "velocity": 95}, {"time": 1060, "pitch": 78, "duration": 1, "velocity": 107}, {"time": 1063, "pitch": 79, "duration": 3, "velocity": 95}, {"time": 1069, "pitch": 78, "duration": 3, "velocity": 112}, {"time": 1075, "pitch": 78, "duration": 3, "velocity": 117}, {"time": 1081, "pitch": 76, "duration": 4, "velocity": 102}, {"time": 1087, "pitch": 78, "duration": 17, "velocity": 122}, {"time": 1105, "pitch": 74, "duration": 1, "velocity": 107}, {"time": 1108, "pitch": 74, "duration": 1, "velocity": 97}, {"time": 1111, "pitch": 79, "duration": 7, "velocity": 117}, {"time": 1120, "pitch": 81, "duration": 8, "velocity": 127}, {"time": 1129, "pitch": 83, "duration": 5, "velocity": 122}, {"time": 1135, "pitch": 81, "duration": 10, "velocity": 112}, {"time": 1144, "pitch": 74, "duration": 7, "velocity": 107}, {"time": 1153, "pitch": 81, "duration": 4, "velocity": 112}, {"time": 1159, "pitch": 79, "duration": 5, "velocity": 112}, {"time": 1165, "pitch": 78, "duration": 3, "velocity": 127}, {"time": 1171, "pitch": 76, "duration": 3, "velocity": 127}, {"time": 1177, "pitch": 74, "duration": 1, "velocity": 99}, {"time": 1180, "pitch": 76, "duration": 23, "velocity": 122}, {"time": 1207, "pitch": 78, "duration": 4, "velocity": 127}, {"time": 1219, "pitch": 76, "duration": 5, "velocity": 127}, {"time": 1228, "pitch": 74, "duration": 2, "velocity": 100}, {"time": 1231, "pitch": 76, "duration": 11, "velocity": 117}, {"time": 1249, "pitch": 76, "duration": 1, "velocity": 99}, {"time": 1252, "pitch": 78, "duration": 1, "velocity": 112}, {"time": 1255, "pitch": 79, "duration": 5, "velocity": 102}, {"time": 1261, "pitch": 78, "duration": 4, "velocity": 117}, {"time": 1267, "pitch": 83, "duration": 4, "velocity": 112}, {"time": 1273, "pitch": 85, "duration": 5, "velocity": 127}, {"time": 1279, "pitch": 76, "duration": 7, "velocity": 122}, {"time": 1285, "pitch": 74, "duration": 1, "velocity": 99}, {"time": 1288, "pitch": 74, "duration": 6, "velocity": 102}, {"time": 1297, "pitch": 74, "duration": 1, "velocity": 95}, {"time": 1300, "pitch": 74, "duration": 1, "velocity": 97}, {"time": 1303, "pitch": 79, "duration": 7, "velocity": 122}, {"time": 1312, "pitch": 81, "duration": 7, "velocity": 117}, {"time": 1321, "pitch": 83, "duration": 4, "velocity": 107}, {"time": 1327, "pitch": 81, "duration": 8, "velocity": 122}, {"time": 1336, "pitch": 74, "duration": 5, "velocity": 107}, {"time": 1345, "pitch": 81, "duration": 4, "velocity": 122}, {"time": 1351, "pitch": 79, "duration": 6, "velocity": 122}, {"time": 1357, "pitch": 78, "duration": 5, "velocity": 112}, {"time": 1363, "pitch": 76, "duration": 3, "velocity": 127}, {"time": 1369, "pitch": 74, "duration": 1, "velocity": 92}, {"time": 1372, "pitch": 74, "duration": 36, "velocity": 117}, {"time": 1807, "pitch": 79, "duration": 3, "velocity": 99}, {"time": 1810, "pitch": 76, "duration": 1, "velocity": 92}, {"time": 1813, "pitch": 76, "duration": 2, "velocity": 97}, {"time": 1816, "pitch": 74, "duration": 1, "velocity": 92}, {"time": 1819, "pitch": 74, "duration": 2, "velocity": 93}, {"time": 1822, "pitch": 72, "duration": 1, "velocity": 85}, {"time": 1825, "pitch": 72, "duration": 2, "velocity": 107}, {"time": 1828, "pitch": 67, "duration": 2, "velocity": 92}, {"time": 1831, "pitch": 67, "duration": 1, "velocity": 89}, {"time": 1834, "pitch": 69, "duration": 1, "velocity": 93}, {"time": 1837, "pitch": 72, "duration": 1, "velocity": 92}, {"time": 1840, "pitch": 74, "duration": 1, "velocity": 90}, {"time": 1843, "pitch": 76, "duration": 8, "velocity": 100}, {"time": 1855, "pitch": 81, "duration": 1, "velocity": 117}, {"time": 1858, "pitch": 79, "duration": 1, "velocity": 93}, {"time": 1861, "pitch": 79, "duration": 1, "velocity": 95}, {"time": 1864, "pitch": 76, "duration": 1, "velocity": 102}, {"time": 1867, "pitch": 76, "duration": 1, "velocity": 93}, {"time": 1870, "pitch": 74, "duration": 1, "velocity": 96}, {"time": 1873, "pitch": 72, "duration": 1, "velocity": 83}, {"time": 1876, "pitch": 74, "duration": 1, "velocity": 85}, {"time": 1879, "pitch": 69, "duration": 5, "velocity": 97}, {"time": 1897, "pitch": 67, "duration": 2, "velocity": 90}, {"time": 1900, "pitch": 69, "duration": 1, "velocity": 88}, {"time": 1903, "pitch": 72, "duration": 8, "velocity": 96}, {"time": 1921, "pitch": 74, "duration": 2, "velocity": 112}, {"time": 1924, "pitch": 72, "duration": 3, "velocity": 90}, {"time": 1927, "pitch": 76, "duration": 5, "velocity": 107}, {"time": 1933, "pitch": 79, "duration": 7, "velocity": 112}, {"time": 1948, "pitch": 76, "duration": 1, "velocity": 93}, {"time": 1951, "pitch": 74, "duration": 5, "velocity": 100}, {"time": 1957, "pitch": 72, "duration": 2, "velocity": 86}, {"time": 1963, "pitch": 72, "duration": 4, "velocity": 100}, {"time": 1966, "pitch": 76, "duration": 8, "velocity": 95}, {"time": 1975, "pitch": 74, "duration": 14, "velocity": 99}, {"time": 1999, "pitch": 79, "duration": 3, "velocity": 127}, {"time": 2002, "pitch": 76, "duration": 1, "velocity": 92}, {"time": 2005, "pitch": 76, "duration": 2, "velocity": 97}, {"time": 2008, "pitch": 74, "duration": 1, "velocity": 92}, {"time": 2011, "pitch": 74, "duration": 2, "velocity": 93}, {"time": 2014, "pitch": 72, "duration": 1, "velocity": 85}, {"time": 2017, "pitch": 72, "duration": 2, "velocity": 107}, {"time": 2020, "pitch": 67, "duration": 2, "velocity": 92}, {"time": 2023, "pitch": 67, "duration": 1, "velocity": 89}, {"time": 2026, "pitch": 69, "duration": 1, "velocity": 93}, {"time": 2029, "pitch": 72, "duration": 1, "velocity": 92}, {"time": 2032, "pitch": 74, "duration": 1, "velocity": 90}, {"time": 2035, "pitch": 76, "duration": 8, "velocity": 100}, {"time": 2047, "pitch": 81, "duration": 1, "velocity": 117}, {"time": 2050, "pitch": 79, "duration": 1, "velocity": 93}, {"time": 2053, "pitch": 79, "duration": 1, "velocity": 95}, {"time": 2056, "pitch": 76, "duration": 1, "velocity": 102}, {"time": 2059, "pitch": 76, "duration": 1, "velocity": 93}, {"time": 2062, "pitch": 74, "duration": 1, "velocity": 96}, {"time": 2065, "pitch": 72, "duration": 1, "velocity": 83}, {"time": 2068, "pitch": 74, "duration": 3, "velocity": 85}, {"time": 2074, "pitch": 69, "duration": 3, "velocity": 97}, {"time": 2089, "pitch": 67, "duration": 2, "velocity": 90}, {"time": 2092, "pitch": 69, "duration": 1, "velocity": 88}, {"time": 2095, "pitch": 72, "duration": 12, "velocity": 96}, {"time": 2110, "pitch": 74, "duration": 2, "velocity": 112}, {"time": 2116, "pitch": 72, "duration": 3, "velocity": 90}, {"time": 2119, "pitch": 76, "duration": 5, "velocity": 107}, {"time": 2125, "pitch": 79, "duration": 7, "velocity": 112}, {"time": 2140, "pitch": 76, "duration": 1, "velocity": 93}, {"time": 2143, "pitch": 74, "duration": 5, "velocity": 100}, {"time": 2149, "pitch": 72, "duration": 2, "velocity": 86}, {"time": 2155, "pitch": 69, "duration": 5, "velocity": 100}, {"time": 2161, "pitch": 72, "duration": 4, "velocity": 99}, {"time": 2167, "pitch": 72, "duration": 4, "velocity": 99}, {"time": 2191, "pitch": 76, "duration": 2, "velocity": 97}, {"time": 2194, "pitch": 79, "duration": 3, "velocity": 102}, {"time": 2200, "pitch": 76, "duration": 2, "velocity": 85}, {"time": 2203, "pitch": 79, "duration": 4, "velocity": 99}, {"time": 2209, "pitch": 76, "duration": 6, "velocity": 96}, {"time": 2215, "pitch": 81, "duration": 19, "velocity": 112}, {"time": 2239, "pitch": 76, "duration": 2, "velocity": 97}, {"time": 2242, "pitch": 79, "duration": 2, "velocity": 100}, {"time": 2248, "pitch": 76, "duration": 2, "velocity": 96}, {"time": 2251, "pitch": 79, "duration": 5, "velocity": 96}, {"time": 2257, "pitch": 76, "duration": 4, "velocity": 112}, {"time": 2263, "pitch": 69, "duration": 18, "velocity": 100}, {"time": 2287, "pitch": 74, "duration": 1, "velocity": 122}, {"time": 2290, "pitch": 76, "duration": 3, "velocity": 102}, {"time": 2296, "pitch": 72, "duration": 2, "velocity": 92}, {"time": 2299, "pitch": 74, "duration": 4, "velocity": 97}, {"time": 2305, "pitch": 76, "duration": 4, "velocity": 96}, {"time": 2311, "pitch": 76, "duration": 4, "velocity": 117}, {"time": 2314, "pitch": 79, "duration": 5, "velocity": 117}, {"time": 2320, "pitch": 76, "duration": 2, "velocity": 90}, {"time": 2323, "pitch": 79, "duration": 7, "velocity": 99}, {"time": 2335, "pitch": 84, "duration": 5, "velocity": 127}, {"time": 2341, "pitch": 83, "duration": 4, "velocity": 102}, {"time": 2347, "pitch": 81, "duration": 3, "velocity": 117}, {"time": 2353, "pitch": 79, "duration": 2, "velocity": 96}, {"time": 2356, "pitch": 79, "duration": 5, "velocity": 96}, {"time": 2360, "pitch": 81, "duration": 17, "velocity": 117}, {"time": 2383, "pitch": 74, "duration": 1, "velocity": 112}, {"time": 2386, "pitch": 76, "duration": 2, "velocity": 96}, {"time": 2392, "pitch": 72, "duration": 2, "velocity": 77}, {"time": 2395, "pitch": 74, "duration": 4, "velocity": 96}, {"time": 2401, "pitch": 76, "duration": 4, "velocity": 99}, {"time": 2407, "pitch": 76, "duration": 5, "velocity": 102}, {"time": 2410, "pitch": 79, "duration": 6, "velocity": 102}, {"time": 2416, "pitch": 76, "duration": 2, "velocity": 97}, {"time": 2419, "pitch": 79, "duration": 7, "velocity": 107}, {"time": 2431, "pitch": 84, "duration": 3, "velocity": 127}, {"time": 2437, "pitch": 83, "duration": 3, "velocity": 112}, {"time": 2443, "pitch": 81, "duration": 3, "velocity": 112}, {"time": 2449, "pitch": 79, "duration": 1, "velocity": 95}, {"time": 2452, "pitch": 79, "duration": 4, "velocity": 95}, {"time": 2455, "pitch": 81, "duration": 10, "velocity": 112}, {"time": 2503, "pitch": 78, "duration": 4, "velocity": 127}, {"time": 2515, "pitch": 76, "duration": 4, "velocity": 112}, {"time": 2521, "pitch": 74, "duration": 6, "velocity": 95}, {"time": 2527, "pitch": 76, "duration": 18, "velocity": 117}, {"time": 2545, "pitch": 76, "duration": 2, "velocity": 95}, {"time": 2548, "pitch": 78, "duration": 1, "velocity": 107}, {"time": 2551, "pitch": 79, "duration": 3, "velocity": 95}, {"time": 2557, "pitch": 78, "duration": 3, "velocity": 112}, {"time": 2563, "pitch": 78, "duration": 3, "velocity": 117}, {"time": 2569, "pitch": 76, "duration": 4, "velocity": 102}, {"time": 2575, "pitch": 78, "duration": 17, "velocity": 122}, {"time": 2593, "pitch": 74, "duration": 1, "velocity": 107}, {"time": 2596, "pitch": 74, "duration": 1, "velocity": 97}, {"time": 2599, "pitch": 79, "duration": 7, "velocity": 117}, {"time": 2608, "pitch": 81, "duration": 8, "velocity": 127}, {"time": 2617, "pitch": 83, "duration": 5, "velocity": 122}, {"time": 2623, "pitch": 81, "duration": 8, "velocity": 112}, {"time": 2632, "pitch": 74, "duration": 7, "velocity": 107}, {"time": 2641, "pitch": 81, "duration": 4, "velocity": 112}, {"time": 2647, "pitch": 79, "duration": 5, "velocity": 112}, {"time": 2653, "pitch": 78, "duration": 3, "velocity": 127}, {"time": 2659, "pitch": 76, "duration": 3, "velocity": 127}, {"time": 2665, "pitch": 74, "duration": 1, "velocity": 99}, {"time": 2668, "pitch": 76, "duration": 23, "velocity": 122}, {"time": 2695, "pitch": 78, "duration": 4, "velocity": 127}, {"time": 2707, "pitch": 76, "duration": 5, "velocity": 127}, {"time": 2716, "pitch": 74, "duration": 2, "velocity": 100}, {"time": 2719, "pitch": 76, "duration": 11, "velocity": 117}, {"time": 2737, "pitch": 76, "duration": 1, "velocity": 99}, {"time": 2740, "pitch": 78, "duration": 1, "velocity": 112}, {"time": 2743, "pitch": 79, "duration": 5, "velocity": 102}, {"time": 2749, "pitch": 78, "duration": 4, "velocity": 117}, {"time": 2755, "pitch": 83, "duration": 4, "velocity": 112}, {"time": 2761, "pitch": 85, "duration": 5, "velocity": 127}, {"time": 2767, "pitch": 76, "duration": 7, "velocity": 122}, {"time": 2773, "pitch": 74, "duration": 1, "velocity": 99}, {"time": 2776, "pitch": 74, "duration": 6, "velocity": 102}, {"time": 2785, "pitch": 74, "duration": 1, "velocity": 95}, {"time": 2788, "pitch": 74, "duration": 1, "velocity": 97}, {"time": 2791, "pitch": 79, "duration": 7, "velocity": 122}, {"time": 2800, "pitch": 81, "duration": 7, "velocity": 117}, {"time": 2809, "pitch": 83, "duration": 4, "velocity": 107}, {"time": 2815, "pitch": 81, "duration": 8, "velocity": 122}, {"time": 2824, "pitch": 74, "duration": 5, "velocity": 107}, {"time": 2833, "pitch": 81, "duration": 4, "velocity": 122}, {"time": 2839, "pitch": 79, "duration": 6, "velocity": 122}, {"time": 2845, "pitch": 78, "duration": 5, "velocity": 112}, {"time": 2851, "pitch": 76, "duration": 3, "velocity": 127}, {"time": 2857, "pitch": 74, "duration": 1, "velocity": 92}, {"time": 2860, "pitch": 74, "duration": 27, "velocity": 117}, {"time": 2887, "pitch": 79, "duration": 14, "velocity": 127}, {"time": 2899, "pitch": 77, "duration": 6, "velocity": 112}, {"time": 2905, "pitch": 75, "duration": 7, "velocity": 95}, {"time": 2911, "pitch": 77, "duration": 18, "velocity": 117}, {"time": 2929, "pitch": 77, "duration": 2, "velocity": 95}, {"time": 2932, "pitch": 79, "duration": 1, "velocity": 107}, {"time": 2935, "pitch": 80, "duration": 3, "velocity": 95}, {"time": 2941, "pitch": 79, "duration": 3, "velocity": 112}, {"time": 2947, "pitch": 79, "duration": 3, "velocity": 117}, {"time": 2953, "pitch": 77, "duration": 4, "velocity": 102}, {"time": 2959, "pitch": 79, "duration": 17, "velocity": 122}, {"time": 2977, "pitch": 75, "duration": 1, "velocity": 107}, {"time": 2980, "pitch": 75, "duration": 1, "velocity": 97}, {"time": 2983, "pitch": 80, "duration": 7, "velocity": 117}, {"time": 2992, "pitch": 82, "duration": 8, "velocity": 127}, {"time": 3001, "pitch": 84, "duration": 5, "velocity": 122}, {"time": 3007, "pitch": 82, "duration": 9, "velocity": 112}, {"time": 3016, "pitch": 75, "duration": 7, "velocity": 107}, {"time": 3025, "pitch": 82, "duration": 4, "velocity": 112}, {"time": 3031, "pitch": 80, "duration": 5, "velocity": 112}, {"time": 3037, "pitch": 79, "duration": 3, "velocity": 127}, {"time": 3043, "pitch": 77, "duration": 3, "velocity": 127}, {"time": 3049, "pitch": 75, "duration": 1, "velocity": 99}, {"time": 3052, "pitch": 77, "duration": 23, "velocity": 122}, {"time": 3079, "pitch": 79, "duration": 4, "velocity": 127}, {"time": 3091, "pitch": 77, "duration": 5, "velocity": 127}, {"time": 3100, "pitch": 75, "duration": 2, "velocity": 100}, {"time": 3103, "pitch": 77, "duration": 11, "velocity": 117}, {"time": 3121, "pitch": 77, "duration": 1, "velocity": 99}, {"time": 3124, "pitch": 79, "duration": 1, "velocity": 112}, {"time": 3127, "pitch": 80, "duration": 5, "velocity": 102}, {"time": 3133, "pitch": 79, "duration": 4, "velocity": 117}, {"time": 3139, "pitch": 84, "duration": 4, "velocity": 112}, {"time": 3145, "pitch": 86, "duration": 5, "velocity": 127}, {"time": 3151, "pitch": 77, "duration": 7, "velocity": 122}, {"time": 3157, "pitch": 75, "duration": 1, "velocity": 99}, {"time": 3160, "pitch": 75, "duration": 6, "velocity": 102}, {"time": 3169, "pitch": 75, "duration": 1, "velocity": 95}, {"time": 3172, "pitch": 75, "duration": 1, "velocity": 97}, {"time": 3175, "pitch": 80, "duration": 7, "velocity": 122}, {"time": 3184, "pitch": 82, "duration": 7, "velocity": 117}, {"time": 3193, "pitch": 84, "duration": 4, "velocity": 107}, {"time": 3199, "pitch": 82, "duration": 8, "velocity": 122}, {"time": 3208, "pitch": 75, "duration": 5, "velocity": 107}, {"time": 3217, "pitch": 82, "duration": 4, "velocity": 122}, {"time": 3223, "pitch": 80, "duration": 6, "velocity": 122}, {"time": 3229, "pitch": 79, "duration": 5, "velocity": 112}, {"time": 3235, "pitch": 77, "duration": 3, "velocity": 127}, {"time": 3241, "pitch": 75, "duration": 1, "velocity": 92}, {"time": 3244, "pitch": 75, "duration": 36, "velocity": 117}, {"time": 3295, "pitch": 80, "duration": 9, "velocity": 118}, {"time": 3303, "pitch": 82, "duration": 10, "velocity": 107}, {"time": 3313, "pitch": 84, "duration": 6, "velocity": 107}, {"time": 3319, "pitch": 82, "duration": 11, "velocity": 109}, {"time": 3328, "pitch": 75, "duration": 16, "velocity": 102}, {"time": 3370, "pitch": 80, "duration": 7, "velocity": 106}, {"time": 3376, "pitch": 79, "duration": 7, "velocity": 116}, {"time": 3382, "pitch": 77, "duration": 10, "velocity": 92}, {"time": 3392, "pitch": 75, "duration": 2, "velocity": 100}, {"time": 3397, "pitch": 75, "duration": 40, "velocity": 112}]}, {"program": 0, "is_drum": false, "name": "BRIDGE", "notes": [{"time": 7, "pitch": 81, "duration": 5, "velocity": 99}, {"time": 13, "pitch": 72, "duration": 6, "velocity": 89}, {"time": 19, "pitch": 71, "duration": 6, "velocity": 99}, {"time": 25, "pitch": 81, "duration": 6, "velocity": 127}, {"time": 31, "pitch": 79, "duration": 5, "velocity": 107}, {"time": 37, "pitch": 71, "duration": 5, "velocity": 122}, {"time": 43, "pitch": 69, "duration": 7, "velocity": 95}, {"time": 49, "pitch": 79, "duration": 6, "velocity": 127}, {"time": 55, "pitch": 77, "duration": 9, "velocity": 122}, {"time": 61, "pitch": 69, "duration": 5, "velocity": 107}, {"time": 67, "pitch": 67, "duration": 9, "velocity": 95}, {"time": 73, "pitch": 77, "duration": 6, "velocity": 107}, {"time": 79, "pitch": 76, "duration": 8, "velocity": 112}, {"time": 85, "pitch": 74, "duration": 6, "velocity": 107}, {"time": 91, "pitch": 72, "duration": 5, "velocity": 100}, {"time": 97, "pitch": 67, "duration": 5, "velocity": 93}, {"time": 97, "pitch": 72, "duration": 2, "velocity": 95}, {"time": 100, "pitch": 74, "duration": 2, "velocity": 85}, {"time": 100, "pitch": 76, "duration": 1, "velocity": 93}, {"time": 103, "pitch": 69, "duration": 12, "velocity": 102}, {"time": 103, "pitch": 79, "duration": 1, "velocity": 97}, {"time": 103, "pitch": 81, "duration": 17, "velocity": 78}, {"time": 121, "pitch": 83, "duration": 2, "velocity": 127}, {"time": 124, "pitch": 84, "duration": 2, "velocity": 93}, {"time": 127, "pitch": 79, "duration": 6, "velocity": 93}, {"time": 133, "pitch": 72, "duration": 13, "velocity": 99}, {"time": 145, "pitch": 79, "duration": 6, "velocity": 112}, {"time": 151, "pitch": 77, "duration": 8, "velocity": 102}, {"time": 157, "pitch": 76, "duration": 5, "velocity": 112}, {"time": 163, "pitch": 74, "duration": 6, "velocity": 96}, {"time": 169, "pitch": 72, "duration": 6, "velocity": 82}, {"time": 175, "pitch": 74, "duration": 34, "velocity": 100}, {"time": 211, "pitch": 69, "duration": 6, "velocity": 102}, {"time": 211, "pitch": 76, "duration": 6, "velocity": 96}, {"time": 217, "pitch": 72, "duration": 5, "velocity": 86}, {"time": 217, "pitch": 77, "duration": 7, "velocity": 107}, {"time": 223, "pitch": 71, "duration": 63, "velocity": 102}, {"time": 223, "pitch": 79, "duration": 65, "velocity": 102}, {"time": 475, "pitch": 71, "duration": 3, "velocity": 99}, {"time": 475, "pitch": 74, "duration": 3, "velocity": 117}, {"time": 478, "pitch": 72, "duration": 5, "velocity": 73}, {"time": 478, "pitch": 76, "duration": 3, "velocity": 27}, {"time": 481, "pitch": 74, "duration": 6, "velocity": 85}, {"time": 481, "pitch": 77, "duration": 6, "velocity": 99}, {"time": 565, "pitch": 69, "duration": 6, "velocity": 100}, {"time": 571, "pitch": 71, "duration": 3, "velocity": 93}, {"time": 574, "pitch": 72, "duration": 3, "velocity": 90}, {"time": 577, "pitch": 74, "duration": 7, "velocity": 90}, {"time": 580, "pitch": 76, "duration": 3, "velocity": 93}, {"time": 583, "pitch": 77, "duration": 22, "velocity": 92}, {"time": 661, "pitch": 79, "duration": 6, "velocity": 107}, {"time": 667, "pitch": 74, "duration": 6, "velocity": 96}, {"time": 673, "pitch": 76, "duration": 6, "velocity": 82}, {"time": 679, "pitch": 72, "duration": 25, "velocity": 95}, {"time": 691, "pitch": 86, "duration": 3, "velocity": 102}, {"time": 694, "pitch": 88, "duration": 3, "velocity": 112}, {"time": 697, "pitch": 91, "duration": 8, "velocity": 112}, {"time": 1255, "pitch": 70, "duration": 21, "velocity": 127}, {"time": 1279, "pitch": 71, "duration": 13, "velocity": 127}, {"time": 1294, "pitch": 71, "duration": 3, "velocity": 117}, {"time": 1297, "pitch": 73, "duration": 5, "velocity": 122}, {"time": 1303, "pitch": 79, "duration": 22, "velocity": 100}, {"time": 1327, "pitch": 78, "duration": 17, "velocity": 127}, {"time": 1345, "pitch": 74, "duration": 5, "velocity": 127}, {"time": 1351, "pitch": 76, "duration": 15, "velocity": 122}, {"time": 1363, "pitch": 76, "duration": 3, "velocity": 117}, {"time": 1375, "pitch": 74, "duration": 18, "velocity": 117}, {"time": 1412, "pitch": 71, "duration": 3, "velocity": 78}, {"time": 1414, "pitch": 73, "duration": 2, "velocity": 84}, {"time": 1415, "pitch": 74, "duration": 2, "velocity": 84}, {"time": 1417, "pitch": 81, "duration": 2, "velocity": 84}, {"time": 1418, "pitch": 83, "duration": 3, "velocity": 84}, {"time": 1420, "pitch": 85, "duration": 2, "velocity": 84}, {"time": 1421, "pitch": 86, "duration": 2, "velocity": 89}, {"time": 1423, "pitch": 88, "duration": 14, "velocity": 100}, {"time": 1441, "pitch": 81, "duration": 4, "velocity": 100}, {"time": 1447, "pitch": 81, "duration": 4, "velocity": 112}, {"time": 1453, "pitch": 83, "duration": 5, "velocity": 117}, {"time": 1459, "pitch": 85, "duration": 5, "velocity": 127}, {"time": 1465, "pitch": 88, "duration": 5, "velocity": 100}, {"time": 1471, "pitch": 86, "duration": 8, "velocity": 127}, {"time": 1480, "pitch": 88, "duration": 1, "velocity": 100}, {"time": 1483, "pitch": 90, "duration": 8, "velocity": 122}, {"time": 1492, "pitch": 86, "duration": 1, "velocity": 100}, {"time": 1495, "pitch": 93, "duration": 3, "velocity": 112}, {"time": 1501, "pitch": 90, "duration": 3, "velocity": 122}, {"time": 1507, "pitch": 86, "duration": 3, "velocity": 112}, {"time": 1513, "pitch": 90, "duration": 5, "velocity": 127}, {"time": 1519, "pitch": 91, "duration": 8, "velocity": 127}, {"time": 1528, "pitch": 86, "duration": 1, "velocity": 97}, {"time": 1531, "pitch": 91, "duration": 1, "velocity": 97}, {"time": 1534, "pitch": 93, "duration": 1, "velocity": 117}, {"time": 1537, "pitch": 95, "duration": 4, "velocity": 122}, {"time": 1543, "pitch": 93, "duration": 5, "velocity": 127}, {"time": 1552, "pitch": 91, "duration": 1, "velocity": 95}, {"time": 1555, "pitch": 90, "duration": 5, "velocity": 117}, {"time": 1561, "pitch": 86, "duration": 3, "velocity": 100}, {"time": 1567, "pitch": 85, "duration": 4, "velocity": 127}, {"time": 1570, "pitch": 86, "duration": 3, "velocity": 97}, {"time": 1573, "pitch": 88, "duration": 2, "velocity": 100}, {"time": 1576, "pitch": 86, "duration": 1, "velocity": 99}, {"time": 1579, "pitch": 85, "duration": 4, "velocity": 117}, {"time": 1585, "pitch": 81, "duration": 12, "velocity": 102}, {"time": 1603, "pitch": 80, "duration": 13, "velocity": 127}, {"time": 1615, "pitch": 78, "duration": 14, "velocity": 122}, {"time": 1630, "pitch": 78, "duration": 3, "velocity": 97}, {"time": 1633, "pitch": 80, "duration": 5, "velocity": 122}, {"time": 1639, "pitch": 81, "duration": 8, "velocity": 127}, {"time": 1648, "pitch": 83, "duration": 8, "velocity": 102}, {"time": 1657, "pitch": 85, "duration": 6, "velocity": 127}, {"time": 1663, "pitch": 90, "duration": 11, "velocity": 127}, {"time": 1675, "pitch": 85, "duration": 6, "velocity": 127}, {"time": 1681, "pitch": 81, "duration": 16, "velocity": 100}, {"time": 1699, "pitch": 69, "duration": 3, "velocity": 68}, {"time": 1700, "pitch": 71, "duration": 2, "velocity": 73}, {"time": 1702, "pitch": 73, "duration": 2, "velocity": 79}, {"time": 1703, "pitch": 76, "duration": 3, "velocity": 85}, {"time": 1705, "pitch": 81, "duration": 2, "velocity": 95}, {"time": 1706, "pitch": 83, "duration": 2, "velocity": 103}, {"time": 1708, "pitch": 85, "duration": 2, "velocity": 108}, {"time": 1709, "pitch": 88, "duration": 2, "velocity": 109}, {"time": 1711, "pitch": 93, "duration": 5, "velocity": 114}, {"time": 1717, "pitch": 91, "duration": 1, "velocity": 112}, {"time": 1720, "pitch": 86, "duration": 2, "velocity": 102}, {"time": 1726, "pitch": 91, "duration": 1, "velocity": 95}, {"time": 1729, "pitch": 86, "duration": 8, "velocity": 112}, {"time": 1738, "pitch": 91, "duration": 1, "velocity": 102}, {"time": 1741, "pitch": 93, "duration": 2, "velocity": 127}, {"time": 1747, "pitch": 90, "duration": 2, "velocity": 127}, {"time": 1750, "pitch": 88, "duration": 1, "velocity": 99}, {"time": 1753, "pitch": 86, "duration": 1, "velocity": 107}, {"time": 1756, "pitch": 86, "duration": 2, "velocity": 117}, {"time": 1765, "pitch": 89, "duration": 3, "velocity": 127}, {"time": 1771, "pitch": 84, "duration": 5, "velocity": 122}, {"time": 1777, "pitch": 81, "duration": 6, "velocity": 112}, {"time": 1783, "pitch": 86, "duration": 10, "velocity": 127}, {"time": 1792, "pitch": 83, "duration": 7, "velocity": 107}, {"time": 1798, "pitch": 79, "duration": 6, "velocity": 127}, {"time": 1804, "pitch": 77, "duration": 3, "velocity": 107}, {"time": 1807, "pitch": 76, "duration": 15, "velocity": 102}, {"time": 1987, "pitch": 71, "duration": 3, "velocity": 99}, {"time": 1987, "pitch": 74, "duration": 3, "velocity": 117}, {"time": 1990, "pitch": 72, "duration": 5, "velocity": 73}, {"time": 1990, "pitch": 76, "duration": 3, "velocity": 27}, {"time": 1993, "pitch": 74, "duration": 6, "velocity": 85}, {"time": 1993, "pitch": 77, "duration": 6, "velocity": 99}, {"time": 2077, "pitch": 69, "duration": 6, "velocity": 100}, {"time": 2083, "pitch": 71, "duration": 3, "velocity": 93}, {"time": 2086, "pitch": 72, "duration": 3, "velocity": 90}, {"time": 2089, "pitch": 74, "duration": 7, "velocity": 90}, {"time": 2092, "pitch": 76, "duration": 3, "velocity": 93}, {"time": 2095, "pitch": 77, "duration": 22, "velocity": 92}, {"time": 2173, "pitch": 72, "duration": 6, "velocity": 102}, {"time": 2179, "pitch": 76, "duration": 6, "velocity": 117}, {"time": 2185, "pitch": 79, "duration": 6, "velocity": 127}, {"time": 2191, "pitch": 83, "duration": 21, "velocity": 122}, {"time": 2460, "pitch": 81, "duration": 5, "velocity": 117}, {"time": 2466, "pitch": 83, "duration": 10, "velocity": 107}, {"time": 2479, "pitch": 85, "duration": 1, "velocity": 127}, {"time": 2481, "pitch": 86, "duration": 1, "velocity": 95}, {"time": 2482, "pitch": 85, "duration": 2, "velocity": 96}, {"time": 2484, "pitch": 86, "duration": 1, "velocity": 83}, {"time": 2485, "pitch": 85, "duration": 1, "velocity": 78}, {"time": 2486, "pitch": 86, "duration": 1, "velocity": 66}, {"time": 2487, "pitch": 85, "duration": 1, "velocity": 100}, {"time": 2488, "pitch": 86, "duration": 1, "velocity": 61}, {"time": 2489, "pitch": 85, "duration": 1, "velocity": 82}, {"time": 2490, "pitch": 86, "duration": 1, "velocity": 66}, {"time": 2491, "pitch": 85, "duration": 1, "velocity": 95}, {"time": 2492, "pitch": 86, "duration": 1, "velocity": 76}, {"time": 2493, "pitch": 85, "duration": 1, "velocity": 79}, {"time": 2494, "pitch": 86, "duration": 1, "velocity": 79}, {"time": 2495, "pitch": 85, "duration": 1, "velocity": 102}, {"time": 2496, "pitch": 86, "duration": 1, "velocity": 73}, {"time": 2497, "pitch": 85, "duration": 1, "velocity": 93}, {"time": 2498, "pitch": 86, "duration": 1, "velocity": 78}, {"time": 2499, "pitch": 85, "duration": 1, "velocity": 93}, {"time": 2500, "pitch": 86, "duration": 2, "velocity": 90}, {"time": 2501, "pitch": 85, "duration": 2, "velocity": 127}, {"time": 2503, "pitch": 86, "duration": 1, "velocity": 102}, {"time": 2503, "pitch": 85, "duration": 3, "velocity": 79}, {"time": 2863, "pitch": 70, "duration": 4, "velocity": 127}, {"time": 2869, "pitch": 72, "duration": 5, "velocity": 107}, {"time": 2875, "pitch": 74, "duration": 5, "velocity": 127}, {"time": 2881, "pitch": 75, "duration": 1, "velocity": 83}, {"time": 2882, "pitch": 76, "duration": 2, "velocity": 93}, {"time": 2884, "pitch": 77, "duration": 1, "velocity": 101}, {"time": 2885, "pitch": 78, "duration": 1, "velocity": 106}, {"time": 2887, "pitch": 79, "duration": 6, "velocity": 112}, {"time": 3346, "pitch": 70, "duration": 50, "velocity": 92}, {"time": 3346, "pitch": 82, "duration": 50, "velocity": 76}, {"time": 3397, "pitch": 82, "duration": 83, "velocity": 107}, {"time": 3397, "pitch": 94, "duration": 83, "velocity": 96}, {"time": 3475, "pitch": 77, "duration": 11, "velocity": 100}, {"time": 3487, "pitch": 79, "duration": 11, "velocity": 117}, {"time": 3499, "pitch": 72, "duration": 46, "velocity": 100}, {"time": 3540, "pitch": 77, "duration": 25, "velocity": 100}, {"time": 3565, "pitch": 75, "duration": 103, "velocity": 107}], "annotations": [{"time": 21, "annotation": {"number": 64, "value": 127}, "group": "control_change"}, {"time": 25, "annotation": {"number": 64, "value": 0}, "group": "control_change"}, {"time": 31, "annotation": {"number": 64, "value": 127}, "group": "control_change"}, {"time": 54, "annotation": {"number": 64, "value": 0}, "group": "control_change"}, {"time": 56, "annotation": {"number": 64, "value": 127}, "group": "control_change"}, {"time": 60, "annotation": {"number": 64, "value": 0}, "group": "control_change"}, {"time": 2503, "annotation": {"number": 64, "value": 127}, "group": "control_change"}, {"time": 2526, "annotation": {"number": 64, "value": 0}, "group": "control_change"}, {"time": 2526, "annotation": {"number": 64, "value": 127}, "group": "control_change"}, {"time": 2527, "annotation": {"number": 64, "value": 127}, "group": "control_change"}, {"time": 2549, "annotation": {"number": 64, "value": 0}, "group": "control_change"}, {"time": 2550, "annotation": {"number": 64, "value": 127}, "group": "control_change"}, {"time": 2573, "annotation": {"number": 64, "value": 0}, "group": "control_change"}, {"time": 2574, "annotation": {"number": 64, "value": 127}, "group": "control_change"}, {"time": 2597, "annotation": {"number": 64, "value": 0}, "group": "control_change"}, {"time": 2599, "annotation": {"number": 64, "value": 127}, "group": "control_change"}, {"time": 2621, "annotation": {"number": 64, "value": 0}, "group": "control_change"}, {"time": 2622, "annotation": {"number": 64, "value": 127}, "group": "control_change"}, {"time": 2645, "annotation": {"number": 64, "value": 0}, "group": "control_change"}, {"time": 2646, "annotation": {"number": 64, "value": 127}, "group": "control_change"}, {"time": 2668, "annotation": {"number": 64, "value": 0}, "group": "control_change"}, {"time": 2670, "annotation": {"number": 64, "value": 127}, "group": "control_change"}, {"time": 2693, "annotation": {"number": 64, "value": 0}, "group": "control_change"}, {"time": 2694, "annotation": {"number": 64, "value": 127}, "group": "control_change"}, {"time": 2717, "annotation": {"number": 64, "value": 0}, "group": "control_change"}, {"time": 2718, "annotation": {"number": 64, "value": 127}, "group": "control_change"}, {"time": 2741, "annotation": {"number": 64, "value": 0}, "group": "control_change"}, {"time": 2742, "annotation": {"number": 64, "value": 127}, "group": "control_change"}, {"time": 2766, "annotation": {"number": 64, "value": 0}, "group": "control_change"}, {"time": 2767, "annotation": {"number": 64, "value": 127}, "group": "control_change"}, {"time": 2789, "annotation": {"number": 64, "value": 0}, "group": "control_change"}, {"time": 2791, "annotation": {"number": 64, "value": 127}, "group": "control_change"}, {"time": 2813, "annotation": {"number": 64, "value": 0}, "group": "control_change"}, {"time": 2814, "annotation": {"number": 64, "value": 127}, "group": "control_change"}, {"time": 2836, "annotation": {"number": 64, "value": 0}, "group": "control_change"}, {"time": 2838, "annotation": {"number": 64, "value": 127}, "group": "control_change"}, {"time": 2849, "annotation": {"number": 64, "value": 0}, "group": "control_change"}, {"time": 2850, "annotation": {"number": 64, "value": 127}, "group": "control_change"}, {"time": 2861, "annotation": {"number": 64, "value": 0}, "group": "control_change"}, {"time": 2863, "annotation": {"number": 64, "value": 127}, "group": "control_change"}, {"time": 2887, "annotation": {"number": 64, "value": 127}, "group": "control_change"}, {"time": 2910, "annotation": {"number": 64, "value": 0}, "group": "control_change"}, {"time": 2910, "annotation": {"number": 64, "value": 127}, "group": "control_change"}, {"time": 2911, "annotation": {"number": 64, "value": 127}, "group": "control_change"}, {"time": 2933, "annotation": {"number": 64, "value": 0}, "group": "control_change"}, {"time": 2934, "annotation": {"number": 64, "value": 127}, "group": "control_change"}, {"time": 2957, "annotation": {"number": 64, "value": 0}, "group": "control_change"}, {"time": 2958, "annotation": {"number": 64, "value": 127}, "group": "control_change"}, {"time": 2981, "annotation": {"number": 64, "value": 0}, "group": "control_change"}, {"time": 2983, "annotation": {"number": 64, "value": 127}, "group": "control_change"}, {"time": 3005, "annotation": {"number": 64, "value": 0}, "group": "control_change"}, {"time": 3006, "annotation": {"number": 64, "value": 127}, "group": "control_change"}, {"time": 3029, "annotation": {"number": 64, "value": 0}, "group": "control_change"}, {"time": 3030, "annotation": {"number": 64, "value": 127}, "group": "control_change"}, {"time": 3052, "annotation": {"number": 64, "value": 0}, "group": "control_change"}, {"time": 3054, "annotation": {"number": 64, "value": 127}, "group": "control_change"}, {"time": 3077, "annotation": {"number": 64, "value": 0}, "group": "control_change"}, {"time": 3078, "annotation": {"number": 64, "value": 127}, "group": "control_change"}, {"time": 3101, "annotation": {"number": 64, "value": 0}, "group": "control_change"}, {"time": 3102, "annotation": {"number": 64, "value": 127}, "group": "control_change"}, {"time": 3125, "annotation": {"number": 64, "value": 0}, "group": "control_change"}, {"time": 3126, "annotation": {"number": 64, "value": 127}, "group": "control_change"}, {"time": 3150, "annotation": {"number": 64, "value": 0}, "group": "control_change"}, {"time": 3151, "annotation": {"number": 64, "value": 127}, "group": "control_change"}, {"time": 3173, "annotation": {"number": 64, "value": 0}, "group": "control_change"}, {"time": 3175, "annotation": {"number": 64, "value": 127}, "group": "control_change"}, {"time": 3197, "annotation": {"number": 64, "value": 0}, "group": "control_change"}, {"time": 3198, "annotation": {"number": 64, "value": 127}, "group": "control_change"}, {"time": 3220, "annotation": {"number": 64, "value": 0}, "group": "control_change"}, {"time": 3222, "annotation": {"number": 64, "value": 127}, "group": "control_change"}, {"time": 3233, "annotation": {"number": 64, "value": 0}, "group": "control_change"}, {"time": 3234, "annotation": {"number": 64, "value": 127}, "group": "control_change"}, {"time": 3245, "annotation": {"number": 64, "value": 0}, "group": "control_change"}, {"time": 3247, "annotation": {"number": 64, "value": 127}, "group": "control_change"}, {"time": 3276, "annotation": {"number": 64, "value": 0}, "group": "control_change"}]}, {"program": 0, "is_drum": false, "name": "PIANO", "notes": [{"time": 7, "pitch": 41, "duration": 17, "velocity": 59}, {"time": 7, "pitch": 60, "duration": 18, "velocity": 66}, {"time": 7, "pitch": 65, "duration": 20, "velocity": 67}, {"time": 7, "pitch": 69, "duration": 15, "velocity": 66}, {"time": 31, "pitch": 40, "duration": 16, "velocity": 54}, {"time": 31, "pitch": 52, "duration": 14, "velocity": 43}, {"time": 31, "pitch": 64, "duration": 18, "velocity": 69}, {"time": 31, "pitch": 67, "duration": 18, "velocity": 69}, {"time": 31, "pitch": 71, "duration": 17, "velocity": 68}, {"time": 55, "pitch": 38, "duration": 13, "velocity": 44}, {"time": 55, "pitch": 50, "duration": 12, "velocity": 42}, {"time": 55, "pitch": 62, "duration": 17, "velocity": 77}, {"time": 55, "pitch": 65, "duration": 17, "velocity": 72}, {"time": 55, "pitch": 69, "duration": 17, "velocity": 69}, {"time": 79, "pitch": 48, "duration": 14, "velocity": 68}, {"time": 79, "pitch": 60, "duration": 15, "velocity": 81}, {"time": 79, "pitch": 64, "duration": 17, "velocity": 75}, {"time": 79, "pitch": 67, "duration": 16, "velocity": 76}, {"time": 97, "pitch": 60, "duration": 17, "velocity": 88}, {"time": 100, "pitch": 64, "duration": 2, "velocity": 70}, {"time": 103, "pitch": 41, "duration": 14, "velocity": 74}, {"time": 103, "pitch": 65, "duration": 11, "velocity": 96}, {"time": 103, "pitch": 69, "duration": 11, "velocity": 97}, {"time": 115, "pitch": 60, "duration": 6, "velocity": 66}, {"time": 115, "pitch": 65, "duration": 6, "velocity": 89}, {"time": 115, "pitch": 69, "duration": 6, "velocity": 86}, {"time": 127, "pitch": 40, "duration": 15, "velocity": 57}, {"time": 127, "pitch": 52, "duration": 14, "velocity": 59}, {"time": 127, "pitch": 64, "duration": 11, "velocity": 85}, {"time": 127, "pitch": 67, "duration": 10, "velocity": 79}, {"time": 127, "pitch": 71, "duration": 10, "velocity": 77}, {"time": 139, "pitch": 64, "duration": 6, "velocity": 59}, {"time": 139, "pitch": 67, "duration": 6, "velocity": 72}, {"time": 139, "pitch": 71, "duration": 6, "velocity": 69}, {"time": 151, "pitch": 38, "duration": 11, "velocity": 59}, {"time": 151, "pitch": 50, "duration": 11, "velocity": 59}, {"time": 151, "pitch": 62, "duration": 10, "velocity": 92}, {"time": 151, "pitch": 65, "duration": 10, "velocity": 92}, {"time": 151, "pitch": 69, "duration": 10, "velocity": 85}, {"time": 163, "pitch": 62, "duration": 10, "velocity": 77}, {"time": 163, "pitch": 65, "duration": 10, "velocity": 90}, {"time": 163, "pitch": 69, "duration": 5, "velocity": 85}, {"time": 175, "pitch": 43, "duration": 46, "velocity": 69}, {"time": 181, "pitch": 50, "duration": 41, "velocity": 65}, {"time": 187, "pitch": 55, "duration": 34, "velocity": 89}, {"time": 193, "pitch": 59, "duration": 7, "velocity": 74}, {"time": 199, "pitch": 62, "duration": 6, "velocity": 83}, {"time": 205, "pitch": 67, "duration": 1, "velocity": 69}, {"time": 211, "pitch": 71, "duration": 7, "velocity": 92}, {"time": 217, "pitch": 74, "duration": 72, "velocity": 85}, {"time": 223, "pitch": 43, "duration": 67, "velocity": 67}, {"time": 223, "pitch": 50, "duration": 67, "velocity": 60}, {"time": 223, "pitch": 55, "duration": 69, "velocity": 61}, {"time": 223, "pitch": 67, "duration": 66, "velocity": 74}, {"time": 223, "pitch": 71, "duration": 66, "velocity": 66}, {"time": 295, "pitch": 48, "duration": 28, "velocity": 69}, {"time": 295, "pitch": 60, "duration": 10, "velocity": 83}, {"time": 295, "pitch": 64, "duration": 10, "velocity": 82}, {"time": 295, "pitch": 67, "duration": 10, "velocity": 82}, {"time": 301, "pitch": 55, "duration": 9, "velocity": 41}, {"time": 307, "pitch": 60, "duration": 8, "velocity": 72}, {"time": 307, "pitch": 64, "duration": 7, "velocity": 69}, {"time": 307, "pitch": 67, "duration": 7, "velocity": 62}, {"time": 313, "pitch": 55, "duration": 10, "velocity": 42}, {"time": 319, "pitch": 60, "duration": 7, "velocity": 88}, {"time": 319, "pitch": 64, "duration": 7, "velocity": 90}, {"time": 319, "pitch": 67, "duration": 7, "velocity": 88}, {"time": 325, "pitch": 48, "duration": 9, "velocity": 52}, {"time": 325, "pitch": 55, "duration": 7, "velocity": 49}, {"time": 331, "pitch": 60, "duration": 6, "velocity": 97}, {"time": 331, "pitch": 64, "duration": 5, "velocity": 96}, {"time": 331, "pitch": 67, "duration": 6, "velocity": 92}, {"time": 337, "pitch": 48, "duration": 5, "velocity": 82}, {"time": 343, "pitch": 45, "duration": 45, "velocity": 65}, {"time": 343, "pitch": 60, "duration": 7, "velocity": 92}, {"time": 343, "pitch": 64, "duration": 7, "velocity": 88}, {"time": 349, "pitch": 52, "duration": 8, "velocity": 42}, {"time": 355, "pitch": 57, "duration": 7, "velocity": 82}, {"time": 355, "pitch": 60, "duration": 7, "velocity": 92}, {"time": 355, "pitch": 64, "duration": 8, "velocity": 83}, {"time": 361, "pitch": 52, "duration": 8, "velocity": 49}, {"time": 364, "pitch": 64, "duration": 1, "velocity": 30}, {"time": 367, "pitch": 57, "duration": 7, "velocity": 82}, {"time": 367, "pitch": 60, "duration": 7, "velocity": 89}, {"time": 367, "pitch": 64, "duration": 8, "velocity": 79}, {"time": 373, "pitch": 52, "duration": 7, "velocity": 56}, {"time": 379, "pitch": 60, "duration": 10, "velocity": 102}, {"time": 379, "pitch": 64, "duration": 5, "velocity": 95}, {"time": 385, "pitch": 52, "duration": 4, "velocity": 61}, {"time": 391, "pitch": 41, "duration": 21, "velocity": 90}, {"time": 391, "pitch": 57, "duration": 7, "velocity": 92}, {"time": 391, "pitch": 60, "duration": 7, "velocity": 92}, {"time": 391, "pitch": 65, "duration": 7, "velocity": 89}, {"time": 397, "pitch": 48, "duration": 8, "velocity": 55}, {"time": 403, "pitch": 57, "duration": 5, "velocity": 92}, {"time": 403, "pitch": 60, "duration": 7, "velocity": 93}, {"time": 403, "pitch": 65, "duration": 6, "velocity": 86}, {"time": 409, "pitch": 48, "duration": 3, "velocity": 71}, {"time": 415, "pitch": 40, "duration": 22, "velocity": 71}, {"time": 415, "pitch": 59, "duration": 7, "velocity": 95}, {"time": 415, "pitch": 64, "duration": 7, "velocity": 88}, {"time": 415, "pitch": 67, "duration": 7, "velocity": 86}, {"time": 421, "pitch": 47, "duration": 8, "velocity": 58}, {"time": 427, "pitch": 59, "duration": 6, "velocity": 89}, {"time": 427, "pitch": 64, "duration": 6, "velocity": 96}, {"time": 427, "pitch": 67, "duration": 5, "velocity": 90}, {"time": 433, "pitch": 47, "duration": 5, "velocity": 90}, {"time": 439, "pitch": 38, "duration": 19, "velocity": 82}, {"time": 439, "pitch": 57, "duration": 8, "velocity": 88}, {"time": 439, "pitch": 62, "duration": 7, "velocity": 90}, {"time": 439, "pitch": 65, "duration": 7, "velocity": 81}, {"time": 445, "pitch": 45, "duration": 8, "velocity": 54}, {"time": 451, "pitch": 57, "duration": 7, "velocity": 77}, {"time": 451, "pitch": 62, "duration": 5, "velocity": 92}, {"time": 451, "pitch": 65, "duration": 6, "velocity": 86}, {"time": 457, "pitch": 45, "duration": 4, "velocity": 68}, {"time": 463, "pitch": 43, "duration": 16, "velocity": 81}, {"time": 463, "pitch": 55, "duration": 7, "velocity": 90}, {"time": 463, "pitch": 59, "duration": 8, "velocity": 83}, {"time": 463, "pitch": 62, "duration": 8, "velocity": 83}, {"time": 469, "pitch": 50, "duration": 9, "velocity": 75}, {"time": 475, "pitch": 55, "duration": 2, "velocity": 99}, {"time": 478, "pitch": 57, "duration": 3, "velocity": 97}, {"time": 481, "pitch": 59, "duration": 1, "velocity": 100}, {"time": 487, "pitch": 48, "duration": 7, "velocity": 81}, {"time": 487, "pitch": 60, "duration": 7, "velocity": 92}, {"time": 487, "pitch": 64, "duration": 7, "velocity": 89}, {"time": 487, "pitch": 67, "duration": 6, "velocity": 92}, {"time": 493, "pitch": 55, "duration": 1, "velocity": 64}, {"time": 499, "pitch": 64, "duration": 6, "velocity": 97}, {"time": 499, "pitch": 67, "duration": 7, "velocity": 96}, {"time": 505, "pitch": 60, "duration": 4, "velocity": 75}, {"time": 511, "pitch": 48, "duration": 3, "velocity": 58}, {"time": 511, "pitch": 60, "duration": 3, "velocity": 93}, {"time": 511, "pitch": 64, "duration": 7, "velocity": 92}, {"time": 511, "pitch": 67, "duration": 7, "velocity": 92}, {"time": 517, "pitch": 60, "duration": 7, "velocity": 69}, {"time": 523, "pitch": 64, "duration": 6, "velocity": 96}, {"time": 523, "pitch": 67, "duration": 6, "velocity": 96}, {"time": 529, "pitch": 60, "duration": 5, "velocity": 83}, {"time": 535, "pitch": 45, "duration": 36, "velocity": 78}, {"time": 535, "pitch": 60, "duration": 6, "velocity": 93}, {"time": 535, "pitch": 64, "duration": 7, "velocity": 93}, {"time": 541, "pitch": 52, "duration": 9, "velocity": 57}, {"time": 541, "pitch": 57, "duration": 7, "velocity": 79}, {"time": 547, "pitch": 60, "duration": 7, "velocity": 93}, {"time": 547, "pitch": 64, "duration": 7, "velocity": 82}, {"time": 553, "pitch": 52, "duration": 8, "velocity": 52}, {"time": 553, "pitch": 57, "duration": 6, "velocity": 66}, {"time": 559, "pitch": 60, "duration": 8, "velocity": 95}, {"time": 559, "pitch": 64, "duration": 10, "velocity": 95}, {"time": 565, "pitch": 52, "duration": 6, "velocity": 52}, {"time": 565, "pitch": 57, "duration": 7, "velocity": 54}, {"time": 571, "pitch": 60, "duration": 7, "velocity": 99}, {"time": 571, "pitch": 64, "duration": 6, "velocity": 93}, {"time": 577, "pitch": 57, "duration": 5, "velocity": 88}, {"time": 583, "pitch": 41, "duration": 18, "velocity": 89}, {"time": 583, "pitch": 65, "duration": 4, "velocity": 81}, {"time": 583, "pitch": 69, "duration": 4, "velocity": 73}, {"time": 589, "pitch": 48, "duration": 11, "velocity": 88}, {"time": 595, "pitch": 57, "duration": 7, "velocity": 92}, {"time": 595, "pitch": 60, "duration": 7, "velocity": 90}, {"time": 601, "pitch": 53, "duration": 6, "velocity": 77}, {"time": 607, "pitch": 40, "duration": 23, "velocity": 77}, {"time": 607, "pitch": 55, "duration": 6, "velocity": 89}, {"time": 607, "pitch": 59, "duration": 4, "velocity": 82}, {"time": 613, "pitch": 47, "duration": 10, "velocity": 57}, {"time": 619, "pitch": 52, "duration": 7, "velocity": 78}, {"time": 619, "pitch": 59, "duration": 4, "velocity": 81}, {"time": 619, "pitch": 64, "duration": 7, "velocity": 85}, {"time": 625, "pitch": 47, "duration": 3, "velocity": 51}, {"time": 625, "pitch": 59, "duration": 2, "velocity": 55}, {"time": 631, "pitch": 38, "duration": 12, "velocity": 85}, {"time": 631, "pitch": 57, "duration": 8, "velocity": 73}, {"time": 631, "pitch": 62, "duration": 6, "velocity": 78}, {"time": 631, "pitch": 65, "duration": 6, "velocity": 72}, {"time": 643, "pitch": 43, "duration": 12, "velocity": 72}, {"time": 643, "pitch": 55, "duration": 11, "velocity": 86}, {"time": 643, "pitch": 59, "duration": 11, "velocity": 85}, {"time": 643, "pitch": 62, "duration": 8, "velocity": 79}, {"time": 655, "pitch": 36, "duration": 36, "velocity": 74}, {"time": 655, "pitch": 55, "duration": 21, "velocity": 69}, {"time": 655, "pitch": 60, "duration": 10, "velocity": 77}, {"time": 655, "pitch": 64, "duration": 12, "velocity": 74}, {"time": 661, "pitch": 43, "duration": 30, "velocity": 59}, {"time": 667, "pitch": 62, "duration": 11, "velocity": 100}, {"time": 673, "pitch": 48, "duration": 18, "velocity": 64}, {"time": 679, "pitch": 55, "duration": 11, "velocity": 69}, {"time": 679, "pitch": 60, "duration": 10, "velocity": 72}, {"time": 679, "pitch": 64, "duration": 10, "velocity": 72}, {"time": 691, "pitch": 60, "duration": 1, "velocity": 77}, {"time": 691, "pitch": 64, "duration": 1, "velocity": 72}, {"time": 703, "pitch": 40, "duration": 15, "velocity": 56}, {"time": 706, "pitch": 47, "duration": 13, "velocity": 43}, {"time": 709, "pitch": 52, "duration": 7, "velocity": 48}, {"time": 712, "pitch": 55, "duration": 3, "velocity": 53}, {"time": 715, "pitch": 59, "duration": 5, "velocity": 56}, {"time": 715, "pitch": 64, "duration": 6, "velocity": 64}, {"time": 718, "pitch": 52, "duration": 1, "velocity": 55}, {"time": 721, "pitch": 55, "duration": 3, "velocity": 41}, {"time": 724, "pitch": 59, "duration": 1, "velocity": 39}, {"time": 724, "pitch": 64, "duration": 4, "velocity": 47}, {"time": 727, "pitch": 45, "duration": 14, "velocity": 62}, {"time": 730, "pitch": 52, "duration": 12, "velocity": 49}, {"time": 733, "pitch": 57, "duration": 7, "velocity": 50}, {"time": 736, "pitch": 59, "duration": 3, "velocity": 47}, {"time": 739, "pitch": 60, "duration": 10, "velocity": 59}, {"time": 739, "pitch": 64, "duration": 9, "velocity": 62}, {"time": 742, "pitch": 59, "duration": 2, "velocity": 47}, {"time": 745, "pitch": 57, "duration": 1, "velocity": 51}, {"time": 748, "pitch": 59, "duration": 2, "velocity": 41}, {"time": 751, "pitch": 40, "duration": 13, "velocity": 51}, {"time": 754, "pitch": 47, "duration": 11, "velocity": 53}, {"time": 757, "pitch": 52, "duration": 6, "velocity": 47}, {"time": 760, "pitch": 55, "duration": 3, "velocity": 43}, {"time": 763, "pitch": 59, "duration": 6, "velocity": 62}, {"time": 763, "pitch": 64, "duration": 6, "velocity": 63}, {"time": 766, "pitch": 52, "duration": 1, "velocity": 48}, {"time": 769, "pitch": 55, "duration": 3, "velocity": 51}, {"time": 772, "pitch": 59, "duration": 2, "velocity": 46}, {"time": 772, "pitch": 64, "duration": 3, "velocity": 53}, {"time": 775, "pitch": 45, "duration": 13, "velocity": 51}, {"time": 778, "pitch": 52, "duration": 11, "velocity": 53}, {"time": 781, "pitch": 57, "duration": 7, "velocity": 54}, {"time": 784, "pitch": 59, "duration": 3, "velocity": 55}, {"time": 787, "pitch": 60, "duration": 6, "velocity": 68}, {"time": 787, "pitch": 64, "duration": 9, "velocity": 72}, {"time": 790, "pitch": 57, "duration": 1, "velocity": 40}, {"time": 793, "pitch": 59, "duration": 3, "velocity": 45}, {"time": 796, "pitch": 60, "duration": 3, "velocity": 53}, {"time": 799, "pitch": 38, "duration": 14, "velocity": 62}, {"time": 802, "pitch": 45, "duration": 12, "velocity": 59}, {"time": 805, "pitch": 50, "duration": 7, "velocity": 59}, {"time": 808, "pitch": 53, "duration": 3, "velocity": 56}, {"time": 811, "pitch": 57, "duration": 6, "velocity": 65}, {"time": 811, "pitch": 62, "duration": 9, "velocity": 68}, {"time": 814, "pitch": 50, "duration": 1, "velocity": 39}, {"time": 817, "pitch": 53, "duration": 3, "velocity": 46}, {"time": 820, "pitch": 57, "duration": 3, "velocity": 46}, {"time": 823, "pitch": 40, "duration": 14, "velocity": 59}, {"time": 826, "pitch": 47, "duration": 12, "velocity": 53}, {"time": 829, "pitch": 52, "duration": 7, "velocity": 52}, {"time": 832, "pitch": 55, "duration": 3, "velocity": 49}, {"time": 835, "pitch": 59, "duration": 6, "velocity": 59}, {"time": 835, "pitch": 64, "duration": 6, "velocity": 68}, {"time": 838, "pitch": 52, "duration": 2, "velocity": 43}, {"time": 841, "pitch": 55, "duration": 3, "velocity": 55}, {"time": 844, "pitch": 59, "duration": 1, "velocity": 39}, {"time": 844, "pitch": 64, "duration": 2, "velocity": 64}, {"time": 847, "pitch": 45, "duration": 17, "velocity": 58}, {"time": 850, "pitch": 52, "duration": 14, "velocity": 54}, {"time": 853, "pitch": 57, "duration": 6, "velocity": 56}, {"time": 856, "pitch": 59, "duration": 3, "velocity": 47}, {"time": 859, "pitch": 60, "duration": 4, "velocity": 63}, {"time": 862, "pitch": 57, "duration": 3, "velocity": 47}, {"time": 865, "pitch": 59, "duration": 2, "velocity": 39}, {"time": 868, "pitch": 64, "duration": 4, "velocity": 47}, {"time": 871, "pitch": 45, "duration": 17, "velocity": 62}, {"time": 874, "pitch": 52, "duration": 14, "velocity": 59}, {"time": 877, "pitch": 57, "duration": 6, "velocity": 51}, {"time": 880, "pitch": 60, "duration": 2, "velocity": 47}, {"time": 883, "pitch": 69, "duration": 9, "velocity": 63}, {"time": 886, "pitch": 57, "duration": 1, "velocity": 43}, {"time": 889, "pitch": 60, "duration": 3, "velocity": 35}, {"time": 892, "pitch": 64, "duration": 3, "velocity": 41}, {"time": 895, "pitch": 38, "duration": 15, "velocity": 57}, {"time": 898, "pitch": 45, "duration": 13, "velocity": 48}, {"time": 901, "pitch": 50, "duration": 7, "velocity": 41}, {"time": 904, "pitch": 53, "duration": 3, "velocity": 44}, {"time": 907, "pitch": 57, "duration": 6, "velocity": 53}, {"time": 907, "pitch": 62, "duration": 7, "velocity": 59}, {"time": 910, "pitch": 50, "duration": 2, "velocity": 30}, {"time": 913, "pitch": 53, "duration": 3, "velocity": 47}, {"time": 916, "pitch": 57, "duration": 2, "velocity": 51}, {"time": 916, "pitch": 62, "duration": 3, "velocity": 43}, {"time": 919, "pitch": 40, "duration": 14, "velocity": 53}, {"time": 922, "pitch": 47, "duration": 12, "velocity": 51}, {"time": 925, "pitch": 52, "duration": 6, "velocity": 47}, {"time": 928, "pitch": 55, "duration": 3, "velocity": 56}, {"time": 931, "pitch": 59, "duration": 5, "velocity": 63}, {"time": 931, "pitch": 64, "duration": 5, "velocity": 65}, {"time": 934, "pitch": 52, "duration": 2, "velocity": 53}, {"time": 937, "pitch": 55, "duration": 3, "velocity": 50}, {"time": 940, "pitch": 59, "duration": 1, "velocity": 41}, {"time": 940, "pitch": 64, "duration": 2, "velocity": 51}, {"time": 943, "pitch": 45, "duration": 14, "velocity": 59}, {"time": 946, "pitch": 52, "duration": 12, "velocity": 48}, {"time": 949, "pitch": 57, "duration": 6, "velocity": 50}, {"time": 952, "pitch": 59, "duration": 2, "velocity": 44}, {"time": 955, "pitch": 60, "duration": 5, "velocity": 47}, {"time": 955, "pitch": 64, "duration": 6, "velocity": 57}, {"time": 958, "pitch": 57, "duration": 2, "velocity": 47}, {"time": 961, "pitch": 59, "duration": 3, "velocity": 44}, {"time": 964, "pitch": 60, "duration": 3, "velocity": 47}, {"time": 967, "pitch": 45, "duration": 17, "velocity": 64}, {"time": 970, "pitch": 52, "duration": 14, "velocity": 64}, {"time": 973, "pitch": 57, "duration": 6, "velocity": 61}, {"time": 976, "pitch": 60, "duration": 3, "velocity": 56}, {"time": 979, "pitch": 64, "duration": 6, "velocity": 65}, {"time": 979, "pitch": 69, "duration": 6, "velocity": 76}, {"time": 982, "pitch": 57, "duration": 3, "velocity": 61}, {"time": 985, "pitch": 60, "duration": 3, "velocity": 51}, {"time": 988, "pitch": 64, "duration": 1, "velocity": 40}, {"time": 988, "pitch": 69, "duration": 3, "velocity": 54}, {"time": 991, "pitch": 45, "duration": 17, "velocity": 65}, {"time": 994, "pitch": 52, "duration": 14, "velocity": 58}, {"time": 997, "pitch": 57, "duration": 6, "velocity": 53}, {"time": 1000, "pitch": 61, "duration": 4, "velocity": 61}, {"time": 1003, "pitch": 64, "duration": 5, "velocity": 59}, {"time": 1003, "pitch": 69, "duration": 11, "velocity": 66}, {"time": 1006, "pitch": 57, "duration": 3, "velocity": 76}, {"time": 1009, "pitch": 61, "duration": 3, "velocity": 71}, {"time": 1012, "pitch": 64, "duration": 2, "velocity": 63}, {"time": 1015, "pitch": 50, "duration": 19, "velocity": 91}, {"time": 1018, "pitch": 57, "duration": 6, "velocity": 59}, {"time": 1021, "pitch": 62, "duration": 1, "velocity": 67}, {"time": 1024, "pitch": 66, "duration": 9, "velocity": 95}, {"time": 1024, "pitch": 69, "duration": 14, "velocity": 100}, {"time": 1030, "pitch": 57, "duration": 3, "velocity": 65}, {"time": 1033, "pitch": 62, "duration": 3, "velocity": 71}, {"time": 1036, "pitch": 66, "duration": 3, "velocity": 73}, {"time": 1039, "pitch": 45, "duration": 19, "velocity": 90}, {"time": 1042, "pitch": 52, "duration": 6, "velocity": 74}, {"time": 1045, "pitch": 57, "duration": 1, "velocity": 55}, {"time": 1048, "pitch": 61, "duration": 9, "velocity": 85}, {"time": 1048, "pitch": 64, "duration": 10, "velocity": 88}, {"time": 1048, "pitch": 69, "duration": 14, "velocity": 96}, {"time": 1054, "pitch": 52, "duration": 5, "velocity": 67}, {"time": 1057, "pitch": 57, "duration": 3, "velocity": 63}, {"time": 1060, "pitch": 61, "duration": 2, "velocity": 68}, {"time": 1063, "pitch": 40, "duration": 21, "velocity": 81}, {"time": 1066, "pitch": 47, "duration": 6, "velocity": 56}, {"time": 1069, "pitch": 55, "duration": 2, "velocity": 58}, {"time": 1072, "pitch": 59, "duration": 6, "velocity": 77}, {"time": 1072, "pitch": 64, "duration": 6, "velocity": 68}, {"time": 1072, "pitch": 67, "duration": 6, "velocity": 78}, {"time": 1075, "pitch": 47, "duration": 9, "velocity": 62}, {"time": 1078, "pitch": 55, "duration": 2, "velocity": 64}, {"time": 1081, "pitch": 59, "duration": 5, "velocity": 81}, {"time": 1081, "pitch": 64, "duration": 5, "velocity": 77}, {"time": 1081, "pitch": 67, "duration": 5, "velocity": 83}, {"time": 1084, "pitch": 55, "duration": 2, "velocity": 67}, {"time": 1087, "pitch": 47, "duration": 16, "velocity": 75}, {"time": 1090, "pitch": 54, "duration": 7, "velocity": 59}, {"time": 1093, "pitch": 59, "duration": 2, "velocity": 72}, {"time": 1096, "pitch": 62, "duration": 6, "velocity": 83}, {"time": 1096, "pitch": 66, "duration": 12, "velocity": 92}, {"time": 1096, "pitch": 71, "duration": 11, "velocity": 95}, {"time": 1099, "pitch": 54, "duration": 5, "velocity": 84}, {"time": 1102, "pitch": 59, "duration": 6, "velocity": 80}, {"time": 1105, "pitch": 62, "duration": 3, "velocity": 76}, {"time": 1108, "pitch": 45, "duration": 1, "velocity": 79}, {"time": 1111, "pitch": 43, "duration": 20, "velocity": 90}, {"time": 1117, "pitch": 50, "duration": 6, "velocity": 61}, {"time": 1120, "pitch": 55, "duration": 1, "velocity": 75}, {"time": 1123, "pitch": 59, "duration": 6, "velocity": 76}, {"time": 1123, "pitch": 62, "duration": 10, "velocity": 75}, {"time": 1123, "pitch": 67, "duration": 11, "velocity": 84}, {"time": 1126, "pitch": 50, "duration": 5, "velocity": 63}, {"time": 1129, "pitch": 55, "duration": 3, "velocity": 56}, {"time": 1132, "pitch": 59, "duration": 3, "velocity": 63}, {"time": 1135, "pitch": 42, "duration": 21, "velocity": 67}, {"time": 1138, "pitch": 50, "duration": 17, "velocity": 33}, {"time": 1141, "pitch": 54, "duration": 4, "velocity": 48}, {"time": 1144, "pitch": 62, "duration": 7, "velocity": 64}, {"time": 1144, "pitch": 66, "duration": 7, "velocity": 76}, {"time": 1144, "pitch": 69, "duration": 6, "velocity": 73}, {"time": 1150, "pitch": 54, "duration": 6, "velocity": 54}, {"time": 1153, "pitch": 57, "duration": 3, "velocity": 65}, {"time": 1156, "pitch": 62, "duration": 2, "velocity": 65}, {"time": 1156, "pitch": 66, "duration": 3, "velocity": 74}, {"time": 1156, "pitch": 69, "duration": 2, "velocity": 74}, {"time": 1159, "pitch": 40, "duration": 17, "velocity": 77}, {"time": 1162, "pitch": 47, "duration": 9, "velocity": 56}, {"time": 1165, "pitch": 52, "duration": 2, "velocity": 50}, {"time": 1168, "pitch": 55, "duration": 9, "velocity": 84}, {"time": 1168, "pitch": 59, "duration": 11, "velocity": 90}, {"time": 1168, "pitch": 64, "duration": 11, "velocity": 92}, {"time": 1174, "pitch": 47, "duration": 3, "velocity": 61}, {"time": 1177, "pitch": 52, "duration": 3, "velocity": 59}, {"time": 1180, "pitch": 55, "duration": 1, "velocity": 59}, {"time": 1183, "pitch": 45, "duration": 17, "velocity": 85}, {"time": 1186, "pitch": 52, "duration": 15, "velocity": 79}, {"time": 1189, "pitch": 59, "duration": 2, "velocity": 68}, {"time": 1192, "pitch": 61, "duration": 5, "velocity": 84}, {"time": 1192, "pitch": 64, "duration": 4, "velocity": 81}, {"time": 1195, "pitch": 57, "duration": 7, "velocity": 80}, {"time": 1198, "pitch": 59, "duration": 3, "velocity": 77}, {"time": 1201, "pitch": 61, "duration": 4, "velocity": 74}, {"time": 1201, "pitch": 64, "duration": 5, "velocity": 75}, {"time": 1201, "pitch": 69, "duration": 5, "velocity": 84}, {"time": 1204, "pitch": 59, "duration": 2, "velocity": 65}, {"time": 1207, "pitch": 50, "duration": 19, "velocity": 91}, {"time": 1210, "pitch": 57, "duration": 8, "velocity": 63}, {"time": 1213, "pitch": 62, "duration": 2, "velocity": 63}, {"time": 1216, "pitch": 66, "duration": 9, "velocity": 84}, {"time": 1216, "pitch": 69, "duration": 13, "velocity": 80}, {"time": 1216, "pitch": 74, "duration": 13, "velocity": 93}, {"time": 1222, "pitch": 57, "duration": 3, "velocity": 59}, {"time": 1225, "pitch": 62, "duration": 3, "velocity": 67}, {"time": 1228, "pitch": 66, "duration": 3, "velocity": 55}, {"time": 1231, "pitch": 45, "duration": 18, "velocity": 77}, {"time": 1234, "pitch": 52, "duration": 7, "velocity": 71}, {"time": 1237, "pitch": 57, "duration": 1, "velocity": 63}, {"time": 1240, "pitch": 61, "duration": 8, "velocity": 80}, {"time": 1240, "pitch": 64, "duration": 11, "velocity": 85}, {"time": 1240, "pitch": 69, "duration": 13, "velocity": 95}, {"time": 1246, "pitch": 52, "duration": 3, "velocity": 65}, {"time": 1249, "pitch": 57, "duration": 3, "velocity": 67}, {"time": 1252, "pitch": 61, "duration": 4, "velocity": 64}, {"time": 1255, "pitch": 42, "duration": 18, "velocity": 88}, {"time": 1258, "pitch": 49, "duration": 15, "velocity": 62}, {"time": 1261, "pitch": 54, "duration": 4, "velocity": 59}, {"time": 1261, "pitch": 58, "duration": 1, "velocity": 67}, {"time": 1264, "pitch": 61, "duration": 6, "velocity": 90}, {"time": 1264, "pitch": 66, "duration": 3, "velocity": 92}, {"time": 1270, "pitch": 54, "duration": 3, "velocity": 81}, {"time": 1270, "pitch": 58, "duration": 3, "velocity": 72}, {"time": 1273, "pitch": 61, "duration": 1, "velocity": 44}, {"time": 1273, "pitch": 66, "duration": 2, "velocity": 95}, {"time": 1276, "pitch": 70, "duration": 1, "velocity": 73}, {"time": 1279, "pitch": 47, "duration": 17, "velocity": 71}, {"time": 1282, "pitch": 54, "duration": 14, "velocity": 64}, {"time": 1285, "pitch": 59, "duration": 3, "velocity": 56}, {"time": 1288, "pitch": 71, "duration": 12, "velocity": 100}, {"time": 1294, "pitch": 59, "duration": 1, "velocity": 67}, {"time": 1300, "pitch": 69, "duration": 4, "velocity": 90}, {"time": 1303, "pitch": 40, "duration": 16, "velocity": 61}, {"time": 1303, "pitch": 67, "duration": 24, "velocity": 95}, {"time": 1309, "pitch": 47, "duration": 11, "velocity": 55}, {"time": 1312, "pitch": 52, "duration": 4, "velocity": 59}, {"time": 1315, "pitch": 55, "duration": 4, "velocity": 76}, {"time": 1315, "pitch": 59, "duration": 6, "velocity": 71}, {"time": 1315, "pitch": 62, "duration": 10, "velocity": 71}, {"time": 1318, "pitch": 52, "duration": 2, "velocity": 57}, {"time": 1321, "pitch": 55, "duration": 3, "velocity": 63}, {"time": 1324, "pitch": 59, "duration": 2, "velocity": 59}, {"time": 1327, "pitch": 42, "duration": 18, "velocity": 79}, {"time": 1330, "pitch": 50, "duration": 15, "velocity": 58}, {"time": 1333, "pitch": 54, "duration": 4, "velocity": 76}, {"time": 1336, "pitch": 62, "duration": 8, "velocity": 75}, {"time": 1336, "pitch": 66, "duration": 12, "velocity": 87}, {"time": 1336, "pitch": 69, "duration": 13, "velocity": 92}, {"time": 1342, "pitch": 54, "duration": 2, "velocity": 67}, {"time": 1345, "pitch": 57, "duration": 4, "velocity": 65}, {"time": 1348, "pitch": 62, "duration": 2, "velocity": 75}, {"time": 1351, "pitch": 40, "duration": 7, "velocity": 89}, {"time": 1354, "pitch": 47, "duration": 5, "velocity": 74}, {"time": 1357, "pitch": 55, "duration": 2, "velocity": 64}, {"time": 1360, "pitch": 59, "duration": 2, "velocity": 79}, {"time": 1360, "pitch": 64, "duration": 3, "velocity": 72}, {"time": 1360, "pitch": 67, "duration": 4, "velocity": 79}, {"time": 1363, "pitch": 45, "duration": 6, "velocity": 83}, {"time": 1366, "pitch": 52, "duration": 4, "velocity": 72}, {"time": 1369, "pitch": 57, "duration": 2, "velocity": 74}, {"time": 1372, "pitch": 61, "duration": 1, "velocity": 61}, {"time": 1372, "pitch": 64, "duration": 2, "velocity": 54}, {"time": 1372, "pitch": 69, "duration": 3, "velocity": 75}, {"time": 1378, "pitch": 57, "duration": 10, "velocity": 76}, {"time": 1381, "pitch": 62, "duration": 6, "velocity": 89}, {"time": 1384, "pitch": 64, "duration": 3, "velocity": 92}, {"time": 1387, "pitch": 69, "duration": 9, "velocity": 100}, {"time": 1390, "pitch": 57, "duration": 21, "velocity": 69}, {"time": 1393, "pitch": 66, "duration": 5, "velocity": 102}, {"time": 1396, "pitch": 64, "duration": 14, "velocity": 82}, {"time": 1399, "pitch": 38, "duration": 19, "velocity": 73}, {"time": 1399, "pitch": 50, "duration": 19, "velocity": 73}, {"time": 1399, "pitch": 62, "duration": 10, "velocity": 79}, {"time": 1399, "pitch": 66, "duration": 11, "velocity": 64}, {"time": 1399, "pitch": 69, "duration": 10, "velocity": 74}, {"time": 1411, "pitch": 64, "duration": 7, "velocity": 102}, {"time": 1411, "pitch": 66, "duration": 7, "velocity": 127}, {"time": 1411, "pitch": 69, "duration": 7, "velocity": 117}, {"time": 1414, "pitch": 57, "duration": 3, "velocity": 100}, {"time": 1417, "pitch": 62, "duration": 3, "velocity": 112}, {"time": 1420, "pitch": 61, "duration": 1, "velocity": 39}, {"time": 1423, "pitch": 45, "duration": 41, "velocity": 80}, {"time": 1423, "pitch": 52, "duration": 6, "velocity": 84}, {"time": 1423, "pitch": 57, "duration": 7, "velocity": 85}, {"time": 1423, "pitch": 61, "duration": 7, "velocity": 80}, {"time": 1423, "pitch": 64, "duration": 7, "velocity": 80}, {"time": 1432, "pitch": 52, "duration": 5, "velocity": 62}, {"time": 1435, "pitch": 57, "duration": 5, "velocity": 83}, {"time": 1435, "pitch": 61, "duration": 4, "velocity": 83}, {"time": 1435, "pitch": 64, "duration": 5, "velocity": 83}, {"time": 1441, "pitch": 52, "duration": 8, "velocity": 40}, {"time": 1444, "pitch": 61, "duration": 3, "velocity": 91}, {"time": 1444, "pitch": 64, "duration": 3, "velocity": 90}, {"time": 1450, "pitch": 57, "duration": 3, "velocity": 77}, {"time": 1450, "pitch": 61, "duration": 5, "velocity": 75}, {"time": 1450, "pitch": 64, "duration": 4, "velocity": 74}, {"time": 1453, "pitch": 52, "duration": 6, "velocity": 83}, {"time": 1456, "pitch": 57, "duration": 1, "velocity": 68}, {"time": 1459, "pitch": 61, "duration": 6, "velocity": 100}, {"time": 1459, "pitch": 64, "duration": 4, "velocity": 91}, {"time": 1462, "pitch": 52, "duration": 4, "velocity": 81}, {"time": 1465, "pitch": 57, "duration": 1, "velocity": 80}, {"time": 1468, "pitch": 45, "duration": 1, "velocity": 72}, {"time": 1471, "pitch": 45, "duration": 18, "velocity": 59}, {"time": 1471, "pitch": 50, "duration": 17, "velocity": 57}, {"time": 1471, "pitch": 54, "duration": 7, "velocity": 72}, {"time": 1471, "pitch": 57, "duration": 7, "velocity": 84}, {"time": 1471, "pitch": 62, "duration": 7, "velocity": 74}, {"time": 1471, "pitch": 66, "duration": 7, "velocity": 86}, {"time": 1480, "pitch": 54, "duration": 7, "velocity": 61}, {"time": 1483, "pitch": 62, "duration": 6, "velocity": 94}, {"time": 1483, "pitch": 66, "duration": 5, "velocity": 101}, {"time": 1489, "pitch": 57, "duration": 1, "velocity": 57}, {"time": 1492, "pitch": 45, "duration": 20, "velocity": 64}, {"time": 1492, "pitch": 54, "duration": 7, "velocity": 72}, {"time": 1492, "pitch": 57, "duration": 3, "velocity": 92}, {"time": 1492, "pitch": 62, "duration": 3, "velocity": 84}, {"time": 1492, "pitch": 66, "duration": 3, "velocity": 95}, {"time": 1498, "pitch": 57, "duration": 4, "velocity": 85}, {"time": 1498, "pitch": 62, "duration": 4, "velocity": 76}, {"time": 1498, "pitch": 66, "duration": 4, "velocity": 91}, {"time": 1501, "pitch": 54, "duration": 6, "velocity": 72}, {"time": 1504, "pitch": 57, "duration": 1, "velocity": 61}, {"time": 1507, "pitch": 62, "duration": 7, "velocity": 95}, {"time": 1507, "pitch": 66, "duration": 7, "velocity": 105}, {"time": 1510, "pitch": 54, "duration": 3, "velocity": 80}, {"time": 1513, "pitch": 57, "duration": 2, "velocity": 63}, {"time": 1516, "pitch": 62, "duration": 1, "velocity": 50}, {"time": 1516, "pitch": 66, "duration": 1, "velocity": 44}, {"time": 1519, "pitch": 43, "duration": 18, "velocity": 62}, {"time": 1519, "pitch": 50, "duration": 16, "velocity": 61}, {"time": 1519, "pitch": 55, "duration": 5, "velocity": 63}, {"time": 1519, "pitch": 59, "duration": 6, "velocity": 77}, {"time": 1519, "pitch": 62, "duration": 6, "velocity": 75}, {"time": 1519, "pitch": 67, "duration": 6, "velocity": 75}, {"time": 1528, "pitch": 55, "duration": 3, "velocity": 59}, {"time": 1531, "pitch": 59, "duration": 4, "velocity": 100}, {"time": 1531, "pitch": 62, "duration": 5, "velocity": 92}, {"time": 1531, "pitch": 67, "duration": 7, "velocity": 95}, {"time": 1534, "pitch": 55, "duration": 3, "velocity": 69}, {"time": 1537, "pitch": 50, "duration": 1, "velocity": 47}, {"time": 1543, "pitch": 50, "duration": 15, "velocity": 65}, {"time": 1543, "pitch": 57, "duration": 5, "velocity": 69}, {"time": 1543, "pitch": 62, "duration": 7, "velocity": 75}, {"time": 1543, "pitch": 66, "duration": 7, "velocity": 75}, {"time": 1543, "pitch": 69, "duration": 6, "velocity": 75}, {"time": 1552, "pitch": 57, "duration": 4, "velocity": 84}, {"time": 1555, "pitch": 66, "duration": 7, "velocity": 103}, {"time": 1555, "pitch": 69, "duration": 7, "velocity": 96}, {"time": 1558, "pitch": 57, "duration": 1, "velocity": 44}, {"time": 1558, "pitch": 62, "duration": 3, "velocity": 58}, {"time": 1561, "pitch": 57, "duration": 3, "velocity": 56}, {"time": 1564, "pitch": 50, "duration": 1, "velocity": 67}, {"time": 1567, "pitch": 45, "duration": 16, "velocity": 74}, {"time": 1567, "pitch": 52, "duration": 6, "velocity": 62}, {"time": 1567, "pitch": 57, "duration": 6, "velocity": 74}, {"time": 1567, "pitch": 61, "duration": 6, "velocity": 68}, {"time": 1567, "pitch": 64, "duration": 6, "velocity": 72}, {"time": 1567, "pitch": 69, "duration": 6, "velocity": 79}, {"time": 1576, "pitch": 52, "duration": 4, "velocity": 65}, {"time": 1579, "pitch": 57, "duration": 3, "velocity": 97}, {"time": 1579, "pitch": 61, "duration": 3, "velocity": 84}, {"time": 1579, "pitch": 64, "duration": 4, "velocity": 83}, {"time": 1579, "pitch": 69, "duration": 3, "velocity": 87}, {"time": 1582, "pitch": 52, "duration": 1, "velocity": 58}, {"time": 1585, "pitch": 52, "duration": 1, "velocity": 67}, {"time": 1588, "pitch": 45, "duration": 18, "velocity": 81}, {"time": 1588, "pitch": 52, "duration": 7, "velocity": 90}, {"time": 1588, "pitch": 57, "duration": 10, "velocity": 94}, {"time": 1588, "pitch": 61, "duration": 10, "velocity": 79}, {"time": 1588, "pitch": 64, "duration": 10, "velocity": 75}, {"time": 1588, "pitch": 69, "duration": 10, "velocity": 89}, {"time": 1597, "pitch": 52, "duration": 6, "velocity": 76}, {"time": 1600, "pitch": 57, "duration": 1, "velocity": 69}, {"time": 1603, "pitch": 57, "duration": 7, "velocity": 90}, {"time": 1603, "pitch": 61, "duration": 8, "velocity": 85}, {"time": 1603, "pitch": 64, "duration": 7, "velocity": 76}, {"time": 1603, "pitch": 69, "duration": 7, "velocity": 90}, {"time": 1606, "pitch": 52, "duration": 1, "velocity": 59}, {"time": 1609, "pitch": 44, "duration": 2, "velocity": 84}, {"time": 1615, "pitch": 42, "duration": 19, "velocity": 83}, {"time": 1615, "pitch": 57, "duration": 6, "velocity": 90}, {"time": 1615, "pitch": 61, "duration": 6, "velocity": 87}, {"time": 1615, "pitch": 66, "duration": 6, "velocity": 89}, {"time": 1624, "pitch": 54, "duration": 4, "velocity": 56}, {"time": 1627, "pitch": 57, "duration": 3, "velocity": 104}, {"time": 1627, "pitch": 61, "duration": 3, "velocity": 94}, {"time": 1627, "pitch": 66, "duration": 3, "velocity": 105}, {"time": 1630, "pitch": 54, "duration": 2, "velocity": 29}, {"time": 1633, "pitch": 57, "duration": 1, "velocity": 71}, {"time": 1633, "pitch": 61, "duration": 1, "velocity": 67}, {"time": 1633, "pitch": 68, "duration": 1, "velocity": 82}, {"time": 1636, "pitch": 57, "duration": 5, "velocity": 90}, {"time": 1636, "pitch": 61, "duration": 6, "velocity": 83}, {"time": 1636, "pitch": 69, "duration": 5, "velocity": 92}, {"time": 1639, "pitch": 42, "duration": 15, "velocity": 79}, {"time": 1642, "pitch": 54, "duration": 4, "velocity": 80}, {"time": 1645, "pitch": 57, "duration": 2, "velocity": 94}, {"time": 1645, "pitch": 61, "duration": 3, "velocity": 80}, {"time": 1645, "pitch": 66, "duration": 2, "velocity": 94}, {"time": 1648, "pitch": 54, "duration": 4, "velocity": 81}, {"time": 1651, "pitch": 57, "duration": 3, "velocity": 106}, {"time": 1651, "pitch": 61, "duration": 3, "velocity": 90}, {"time": 1651, "pitch": 68, "duration": 3, "velocity": 111}, {"time": 1654, "pitch": 54, "duration": 4, "velocity": 62}, {"time": 1657, "pitch": 57, "duration": 1, "velocity": 79}, {"time": 1657, "pitch": 61, "duration": 1, "velocity": 79}, {"time": 1657, "pitch": 69, "duration": 1, "velocity": 93}, {"time": 1660, "pitch": 42, "duration": 1, "velocity": 75}, {"time": 1663, "pitch": 38, "duration": 18, "velocity": 67}, {"time": 1663, "pitch": 50, "duration": 7, "velocity": 63}, {"time": 1663, "pitch": 57, "duration": 7, "velocity": 85}, {"time": 1663, "pitch": 62, "duration": 7, "velocity": 76}, {"time": 1663, "pitch": 66, "duration": 7, "velocity": 83}, {"time": 1663, "pitch": 69, "duration": 7, "velocity": 79}, {"time": 1672, "pitch": 50, "duration": 4, "velocity": 53}, {"time": 1675, "pitch": 57, "duration": 4, "velocity": 99}, {"time": 1675, "pitch": 62, "duration": 4, "velocity": 85}, {"time": 1675, "pitch": 66, "duration": 4, "velocity": 87}, {"time": 1675, "pitch": 69, "duration": 4, "velocity": 89}, {"time": 1681, "pitch": 50, "duration": 1, "velocity": 41}, {"time": 1684, "pitch": 38, "duration": 19, "velocity": 85}, {"time": 1684, "pitch": 50, "duration": 7, "velocity": 75}, {"time": 1684, "pitch": 57, "duration": 4, "velocity": 91}, {"time": 1684, "pitch": 62, "duration": 4, "velocity": 75}, {"time": 1684, "pitch": 66, "duration": 4, "velocity": 89}, {"time": 1690, "pitch": 57, "duration": 5, "velocity": 77}, {"time": 1690, "pitch": 62, "duration": 5, "velocity": 68}, {"time": 1690, "pitch": 66, "duration": 5, "velocity": 73}, {"time": 1696, "pitch": 50, "duration": 4, "velocity": 67}, {"time": 1699, "pitch": 57, "duration": 3, "velocity": 104}, {"time": 1699, "pitch": 62, "duration": 4, "velocity": 90}, {"time": 1699, "pitch": 66, "duration": 4, "velocity": 92}, {"time": 1699, "pitch": 69, "duration": 4, "velocity": 100}, {"time": 1702, "pitch": 50, "duration": 5, "velocity": 81}, {"time": 1705, "pitch": 38, "duration": 1, "velocity": 102}, {"time": 1705, "pitch": 57, "duration": 2, "velocity": 97}, {"time": 1705, "pitch": 62, "duration": 2, "velocity": 79}, {"time": 1705, "pitch": 66, "duration": 2, "velocity": 99}, {"time": 1705, "pitch": 69, "duration": 2, "velocity": 93}, {"time": 1711, "pitch": 43, "duration": 5, "velocity": 99}, {"time": 1711, "pitch": 55, "duration": 5, "velocity": 117}, {"time": 1711, "pitch": 59, "duration": 5, "velocity": 102}, {"time": 1711, "pitch": 62, "duration": 5, "velocity": 102}, {"time": 1717, "pitch": 50, "duration": 6, "velocity": 51}, {"time": 1723, "pitch": 55, "duration": 1, "velocity": 72}, {"time": 1723, "pitch": 59, "duration": 1, "velocity": 77}, {"time": 1723, "pitch": 62, "duration": 1, "velocity": 89}, {"time": 1729, "pitch": 43, "duration": 26, "velocity": 77}, {"time": 1729, "pitch": 50, "duration": 19, "velocity": 93}, {"time": 1729, "pitch": 55, "duration": 15, "velocity": 112}, {"time": 1729, "pitch": 59, "duration": 16, "velocity": 100}, {"time": 1729, "pitch": 62, "duration": 16, "velocity": 100}, {"time": 1747, "pitch": 55, "duration": 3, "velocity": 112}, {"time": 1747, "pitch": 59, "duration": 4, "velocity": 107}, {"time": 1747, "pitch": 62, "duration": 4, "velocity": 107}, {"time": 1750, "pitch": 50, "duration": 5, "velocity": 97}, {"time": 1753, "pitch": 55, "duration": 3, "velocity": 100}, {"time": 1753, "pitch": 59, "duration": 3, "velocity": 97}, {"time": 1753, "pitch": 62, "duration": 3, "velocity": 97}, {"time": 1765, "pitch": 53, "duration": 4, "velocity": 112}, {"time": 1765, "pitch": 60, "duration": 4, "velocity": 93}, {"time": 1765, "pitch": 65, "duration": 4, "velocity": 97}, {"time": 1765, "pitch": 69, "duration": 4, "velocity": 93}, {"time": 1771, "pitch": 53, "duration": 10, "velocity": 117}, {"time": 1771, "pitch": 60, "duration": 9, "velocity": 99}, {"time": 1771, "pitch": 65, "duration": 11, "velocity": 100}, {"time": 1771, "pitch": 69, "duration": 7, "velocity": 97}, {"time": 1783, "pitch": 43, "duration": 24, "velocity": 90}, {"time": 1783, "pitch": 62, "duration": 11, "velocity": 102}, {"time": 1783, "pitch": 67, "duration": 11, "velocity": 112}, {"time": 1783, "pitch": 71, "duration": 11, "velocity": 107}, {"time": 1789, "pitch": 50, "duration": 17, "velocity": 56}, {"time": 1795, "pitch": 62, "duration": 9, "velocity": 66}, {"time": 1795, "pitch": 67, "duration": 9, "velocity": 70}, {"time": 1795, "pitch": 71, "duration": 9, "velocity": 72}, {"time": 1801, "pitch": 55, "duration": 3, "velocity": 22}, {"time": 1807, "pitch": 36, "duration": 20, "velocity": 92}, {"time": 1807, "pitch": 60, "duration": 8, "velocity": 102}, {"time": 1807, "pitch": 64, "duration": 7, "velocity": 96}, {"time": 1813, "pitch": 43, "duration": 9, "velocity": 62}, {"time": 1819, "pitch": 48, "duration": 5, "velocity": 82}, {"time": 1819, "pitch": 60, "duration": 8, "velocity": 100}, {"time": 1819, "pitch": 64, "duration": 9, "velocity": 96}, {"time": 1825, "pitch": 55, "duration": 16, "velocity": 89}, {"time": 1831, "pitch": 36, "duration": 13, "velocity": 65}, {"time": 1831, "pitch": 60, "duration": 9, "velocity": 95}, {"time": 1831, "pitch": 64, "duration": 9, "velocity": 92}, {"time": 1837, "pitch": 43, "duration": 7, "velocity": 56}, {"time": 1843, "pitch": 48, "duration": 2, "velocity": 59}, {"time": 1843, "pitch": 60, "duration": 6, "velocity": 99}, {"time": 1843, "pitch": 64, "duration": 9, "velocity": 95}, {"time": 1849, "pitch": 59, "duration": 6, "velocity": 97}, {"time": 1855, "pitch": 45, "duration": 19, "velocity": 79}, {"time": 1855, "pitch": 60, "duration": 10, "velocity": 85}, {"time": 1855, "pitch": 64, "duration": 10, "velocity": 89}, {"time": 1861, "pitch": 52, "duration": 18, "velocity": 67}, {"time": 1867, "pitch": 60, "duration": 7, "velocity": 107}, {"time": 1867, "pitch": 64, "duration": 7, "velocity": 93}, {"time": 1873, "pitch": 57, "duration": 5, "velocity": 93}, {"time": 1879, "pitch": 45, "duration": 14, "velocity": 69}, {"time": 1879, "pitch": 57, "duration": 7, "velocity": 89}, {"time": 1879, "pitch": 60, "duration": 9, "velocity": 88}, {"time": 1879, "pitch": 64, "duration": 8, "velocity": 82}, {"time": 1885, "pitch": 52, "duration": 7, "velocity": 55}, {"time": 1891, "pitch": 60, "duration": 6, "velocity": 102}, {"time": 1891, "pitch": 64, "duration": 6, "velocity": 99}, {"time": 1897, "pitch": 55, "duration": 6, "velocity": 100}, {"time": 1903, "pitch": 41, "duration": 14, "velocity": 78}, {"time": 1903, "pitch": 57, "duration": 10, "velocity": 93}, {"time": 1903, "pitch": 60, "duration": 10, "velocity": 88}, {"time": 1909, "pitch": 48, "duration": 7, "velocity": 63}, {"time": 1915, "pitch": 57, "duration": 6, "velocity": 102}, {"time": 1915, "pitch": 60, "duration": 7, "velocity": 102}, {"time": 1921, "pitch": 53, "duration": 5, "velocity": 85}, {"time": 1927, "pitch": 40, "duration": 15, "velocity": 86}, {"time": 1927, "pitch": 55, "duration": 10, "velocity": 95}, {"time": 1927, "pitch": 59, "duration": 10, "velocity": 92}, {"time": 1933, "pitch": 47, "duration": 8, "velocity": 55}, {"time": 1939, "pitch": 52, "duration": 6, "velocity": 93}, {"time": 1939, "pitch": 55, "duration": 6, "velocity": 97}, {"time": 1939, "pitch": 59, "duration": 6, "velocity": 95}, {"time": 1945, "pitch": 40, "duration": 5, "velocity": 72}, {"time": 1951, "pitch": 38, "duration": 1, "velocity": 74}, {"time": 1951, "pitch": 38, "duration": 1, "velocity": 85}, {"time": 1951, "pitch": 57, "duration": 1, "velocity": 93}, {"time": 1951, "pitch": 57, "duration": 1, "velocity": 95}, {"time": 1951, "pitch": 62, "duration": 1, "velocity": 95}, {"time": 1951, "pitch": 62, "duration": 1, "velocity": 99}, {"time": 1951, "pitch": 65, "duration": 1, "velocity": 86}, {"time": 1951, "pitch": 65, "duration": 1, "velocity": 96}, {"time": 1957, "pitch": 45, "duration": 8, "velocity": 54}, {"time": 1963, "pitch": 50, "duration": 5, "velocity": 72}, {"time": 1963, "pitch": 62, "duration": 6, "velocity": 100}, {"time": 1963, "pitch": 65, "duration": 6, "velocity": 93}, {"time": 1969, "pitch": 57, "duration": 5, "velocity": 99}, {"time": 1975, "pitch": 43, "duration": 22, "velocity": 83}, {"time": 1975, "pitch": 59, "duration": 10, "velocity": 97}, {"time": 1975, "pitch": 62, "duration": 10, "velocity": 88}, {"time": 1981, "pitch": 50, "duration": 7, "velocity": 77}, {"time": 1987, "pitch": 59, "duration": 6, "velocity": 100}, {"time": 1987, "pitch": 62, "duration": 13, "velocity": 99}, {"time": 1990, "pitch": 50, "duration": 7, "velocity": 83}, {"time": 1993, "pitch": 55, "duration": 7, "velocity": 112}, {"time": 1996, "pitch": 59, "duration": 4, "velocity": 100}, {"time": 1999, "pitch": 48, "duration": 7, "velocity": 81}, {"time": 1999, "pitch": 60, "duration": 7, "velocity": 92}, {"time": 1999, "pitch": 64, "duration": 7, "velocity": 89}, {"time": 1999, "pitch": 67, "duration": 6, "velocity": 92}, {"time": 2005, "pitch": 55, "duration": 1, "velocity": 64}, {"time": 2011, "pitch": 64, "duration": 6, "velocity": 97}, {"time": 2011, "pitch": 67, "duration": 7, "velocity": 96}, {"time": 2017, "pitch": 60, "duration": 4, "velocity": 75}, {"time": 2023, "pitch": 48, "duration": 3, "velocity": 58}, {"time": 2023, "pitch": 60, "duration": 3, "velocity": 93}, {"time": 2023, "pitch": 64, "duration": 7, "velocity": 92}, {"time": 2023, "pitch": 67, "duration": 7, "velocity": 92}, {"time": 2029, "pitch": 60, "duration": 7, "velocity": 69}, {"time": 2035, "pitch": 64, "duration": 6, "velocity": 96}, {"time": 2035, "pitch": 67, "duration": 6, "velocity": 96}, {"time": 2041, "pitch": 60, "duration": 5, "velocity": 83}, {"time": 2047, "pitch": 45, "duration": 36, "velocity": 78}, {"time": 2047, "pitch": 60, "duration": 6, "velocity": 93}, {"time": 2047, "pitch": 64, "duration": 7, "velocity": 93}, {"time": 2053, "pitch": 52, "duration": 9, "velocity": 57}, {"time": 2053, "pitch": 57, "duration": 7, "velocity": 79}, {"time": 2059, "pitch": 60, "duration": 7, "velocity": 93}, {"time": 2059, "pitch": 64, "duration": 7, "velocity": 82}, {"time": 2065, "pitch": 52, "duration": 8, "velocity": 52}, {"time": 2065, "pitch": 57, "duration": 6, "velocity": 66}, {"time": 2071, "pitch": 60, "duration": 8, "velocity": 95}, {"time": 2071, "pitch": 64, "duration": 10, "velocity": 95}, {"time": 2077, "pitch": 52, "duration": 6, "velocity": 52}, {"time": 2077, "pitch": 57, "duration": 7, "velocity": 54}, {"time": 2083, "pitch": 60, "duration": 7, "velocity": 99}, {"time": 2083, "pitch": 64, "duration": 6, "velocity": 93}, {"time": 2089, "pitch": 57, "duration": 5, "velocity": 88}, {"time": 2095, "pitch": 41, "duration": 19, "velocity": 73}, {"time": 2095, "pitch": 57, "duration": 10, "velocity": 81}, {"time": 2095, "pitch": 60, "duration": 7, "velocity": 92}, {"time": 2095, "pitch": 65, "duration": 7, "velocity": 93}, {"time": 2101, "pitch": 48, "duration": 12, "velocity": 51}, {"time": 2107, "pitch": 60, "duration": 6, "velocity": 96}, {"time": 2107, "pitch": 65, "duration": 6, "velocity": 96}, {"time": 2113, "pitch": 57, "duration": 1, "velocity": 75}, {"time": 2119, "pitch": 40, "duration": 22, "velocity": 77}, {"time": 2119, "pitch": 59, "duration": 9, "velocity": 97}, {"time": 2119, "pitch": 64, "duration": 9, "velocity": 96}, {"time": 2119, "pitch": 67, "duration": 9, "velocity": 95}, {"time": 2125, "pitch": 47, "duration": 9, "velocity": 59}, {"time": 2131, "pitch": 59, "duration": 6, "velocity": 89}, {"time": 2131, "pitch": 64, "duration": 6, "velocity": 97}, {"time": 2131, "pitch": 67, "duration": 6, "velocity": 97}, {"time": 2137, "pitch": 47, "duration": 4, "velocity": 39}, {"time": 2143, "pitch": 38, "duration": 11, "velocity": 85}, {"time": 2143, "pitch": 62, "duration": 9, "velocity": 99}, {"time": 2143, "pitch": 65, "duration": 10, "velocity": 93}, {"time": 2143, "pitch": 69, "duration": 6, "velocity": 95}, {"time": 2155, "pitch": 43, "duration": 12, "velocity": 83}, {"time": 2155, "pitch": 62, "duration": 9, "velocity": 99}, {"time": 2155, "pitch": 67, "duration": 6, "velocity": 107}, {"time": 2155, "pitch": 71, "duration": 6, "velocity": 107}, {"time": 2167, "pitch": 48, "duration": 24, "velocity": 79}, {"time": 2167, "pitch": 55, "duration": 10, "velocity": 96}, {"time": 2167, "pitch": 60, "duration": 10, "velocity": 93}, {"time": 2167, "pitch": 64, "duration": 10, "velocity": 93}, {"time": 2179, "pitch": 60, "duration": 13, "velocity": 107}, {"time": 2179, "pitch": 64, "duration": 13, "velocity": 95}, {"time": 2185, "pitch": 55, "duration": 7, "velocity": 97}, {"time": 2191, "pitch": 40, "duration": 16, "velocity": 70}, {"time": 2191, "pitch": 59, "duration": 11, "velocity": 79}, {"time": 2191, "pitch": 64, "duration": 1, "velocity": 85}, {"time": 2191, "pitch": 67, "duration": 10, "velocity": 81}, {"time": 2197, "pitch": 47, "duration": 11, "velocity": 45}, {"time": 2203, "pitch": 59, "duration": 7, "velocity": 66}, {"time": 2203, "pitch": 64, "duration": 6, "velocity": 88}, {"time": 2203, "pitch": 67, "duration": 6, "velocity": 89}, {"time": 2215, "pitch": 45, "duration": 14, "velocity": 72}, {"time": 2215, "pitch": 57, "duration": 11, "velocity": 90}, {"time": 2215, "pitch": 60, "duration": 7, "velocity": 88}, {"time": 2215, "pitch": 64, "duration": 9, "velocity": 86}, {"time": 2221, "pitch": 52, "duration": 7, "velocity": 48}, {"time": 2227, "pitch": 59, "duration": 2, "velocity": 122}, {"time": 2230, "pitch": 60, "duration": 4, "velocity": 95}, {"time": 2233, "pitch": 59, "duration": 2, "velocity": 88}, {"time": 2239, "pitch": 40, "duration": 12, "velocity": 75}, {"time": 2239, "pitch": 52, "duration": 9, "velocity": 102}, {"time": 2239, "pitch": 55, "duration": 11, "velocity": 89}, {"time": 2239, "pitch": 59, "duration": 12, "velocity": 86}, {"time": 2245, "pitch": 47, "duration": 5, "velocity": 49}, {"time": 2263, "pitch": 45, "duration": 14, "velocity": 89}, {"time": 2263, "pitch": 60, "duration": 6, "velocity": 93}, {"time": 2263, "pitch": 64, "duration": 6, "velocity": 88}, {"time": 2269, "pitch": 52, "duration": 6, "velocity": 53}, {"time": 2275, "pitch": 59, "duration": 3, "velocity": 127}, {"time": 2278, "pitch": 60, "duration": 3, "velocity": 54}, {"time": 2287, "pitch": 38, "duration": 17, "velocity": 78}, {"time": 2287, "pitch": 53, "duration": 10, "velocity": 96}, {"time": 2287, "pitch": 57, "duration": 11, "velocity": 95}, {"time": 2293, "pitch": 45, "duration": 12, "velocity": 54}, {"time": 2299, "pitch": 53, "duration": 6, "velocity": 72}, {"time": 2299, "pitch": 57, "duration": 6, "velocity": 56}, {"time": 2311, "pitch": 40, "duration": 14, "velocity": 76}, {"time": 2311, "pitch": 52, "duration": 12, "velocity": 88}, {"time": 2311, "pitch": 59, "duration": 10, "velocity": 83}, {"time": 2317, "pitch": 47, "duration": 7, "velocity": 45}, {"time": 2323, "pitch": 55, "duration": 1, "velocity": 93}, {"time": 2323, "pitch": 59, "duration": 1, "velocity": 83}, {"time": 2335, "pitch": 45, "duration": 40, "velocity": 88}, {"time": 2341, "pitch": 52, "duration": 15, "velocity": 69}, {"time": 2347, "pitch": 59, "duration": 6, "velocity": 100}, {"time": 2353, "pitch": 60, "duration": 5, "velocity": 92}, {"time": 2359, "pitch": 52, "duration": 13, "velocity": 51}, {"time": 2359, "pitch": 57, "duration": 10, "velocity": 85}, {"time": 2359, "pitch": 60, "duration": 10, "velocity": 76}, {"time": 2359, "pitch": 64, "duration": 10, "velocity": 72}, {"time": 2371, "pitch": 60, "duration": 5, "velocity": 122}, {"time": 2371, "pitch": 64, "duration": 5, "velocity": 122}, {"time": 2374, "pitch": 52, "duration": 1, "velocity": 89}, {"time": 2377, "pitch": 59, "duration": 1, "velocity": 86}, {"time": 2383, "pitch": 38, "duration": 1, "velocity": 76}, {"time": 2383, "pitch": 62, "duration": 9, "velocity": 102}, {"time": 2383, "pitch": 65, "duration": 9, "velocity": 97}, {"time": 2383, "pitch": 69, "duration": 9, "velocity": 99}, {"time": 2389, "pitch": 50, "duration": 9, "velocity": 55}, {"time": 2395, "pitch": 57, "duration": 2, "velocity": 65}, {"time": 2395, "pitch": 62, "duration": 7, "velocity": 76}, {"time": 2395, "pitch": 65, "duration": 10, "velocity": 85}, {"time": 2395, "pitch": 69, "duration": 5, "velocity": 82}, {"time": 2407, "pitch": 40, "duration": 15, "velocity": 82}, {"time": 2407, "pitch": 64, "duration": 8, "velocity": 85}, {"time": 2407, "pitch": 67, "duration": 6, "velocity": 95}, {"time": 2407, "pitch": 71, "duration": 7, "velocity": 93}, {"time": 2413, "pitch": 47, "duration": 10, "velocity": 54}, {"time": 2419, "pitch": 52, "duration": 10, "velocity": 55}, {"time": 2419, "pitch": 71, "duration": 6, "velocity": 122}, {"time": 2425, "pitch": 64, "duration": 1, "velocity": 75}, {"time": 2431, "pitch": 45, "duration": 43, "velocity": 72}, {"time": 2431, "pitch": 57, "duration": 9, "velocity": 88}, {"time": 2431, "pitch": 60, "duration": 10, "velocity": 89}, {"time": 2431, "pitch": 64, "duration": 9, "velocity": 92}, {"time": 2437, "pitch": 52, "duration": 8, "velocity": 58}, {"time": 2443, "pitch": 60, "duration": 7, "velocity": 97}, {"time": 2443, "pitch": 64, "duration": 8, "velocity": 92}, {"time": 2449, "pitch": 52, "duration": 4, "velocity": 47}, {"time": 2452, "pitch": 64, "duration": 1, "velocity": 24}, {"time": 2455, "pitch": 52, "duration": 20, "velocity": 67}, {"time": 2455, "pitch": 57, "duration": 20, "velocity": 90}, {"time": 2455, "pitch": 60, "duration": 18, "velocity": 85}, {"time": 2455, "pitch": 64, "duration": 21, "velocity": 69}, {"time": 2455, "pitch": 69, "duration": 1, "velocity": 49}, {"time": 2479, "pitch": 45, "duration": 18, "velocity": 102}, {"time": 2479, "pitch": 57, "duration": 9, "velocity": 102}, {"time": 2479, "pitch": 61, "duration": 10, "velocity": 127}, {"time": 2479, "pitch": 64, "duration": 9, "velocity": 102}, {"time": 2485, "pitch": 52, "duration": 6, "velocity": 57}, {"time": 2491, "pitch": 61, "duration": 6, "velocity": 127}, {"time": 2491, "pitch": 64, "duration": 7, "velocity": 127}, {"time": 2494, "pitch": 52, "duration": 2, "velocity": 78}, {"time": 2497, "pitch": 57, "duration": 5, "velocity": 102}, {"time": 2503, "pitch": 38, "duration": 16, "velocity": 95}, {"time": 2503, "pitch": 57, "duration": 5, "velocity": 117}, {"time": 2503, "pitch": 62, "duration": 5, "velocity": 127}, {"time": 2503, "pitch": 66, "duration": 6, "velocity": 127}, {"time": 2509, "pitch": 50, "duration": 12, "velocity": 47}, {"time": 2515, "pitch": 54, "duration": 6, "velocity": 48}, {"time": 2515, "pitch": 57, "duration": 2, "velocity": 34}, {"time": 2515, "pitch": 62, "duration": 4, "velocity": 90}, {"time": 2515, "pitch": 66, "duration": 6, "velocity": 127}, {"time": 2515, "pitch": 69, "duration": 6, "velocity": 112}, {"time": 2521, "pitch": 57, "duration": 1, "velocity": 55}, {"time": 2527, "pitch": 33, "duration": 16, "velocity": 81}, {"time": 2527, "pitch": 45, "duration": 16, "velocity": 81}, {"time": 2527, "pitch": 57, "duration": 7, "velocity": 107}, {"time": 2527, "pitch": 61, "duration": 7, "velocity": 127}, {"time": 2527, "pitch": 64, "duration": 9, "velocity": 97}, {"time": 2533, "pitch": 52, "duration": 6, "velocity": 52}, {"time": 2536, "pitch": 61, "duration": 1, "velocity": 25}, {"time": 2539, "pitch": 61, "duration": 6, "velocity": 127}, {"time": 2539, "pitch": 64, "duration": 6, "velocity": 102}, {"time": 2542, "pitch": 52, "duration": 1, "velocity": 82}, {"time": 2545, "pitch": 57, "duration": 1, "velocity": 102}, {"time": 2551, "pitch": 28, "duration": 21, "velocity": 79}, {"time": 2551, "pitch": 40, "duration": 20, "velocity": 79}, {"time": 2551, "pitch": 59, "duration": 5, "velocity": 107}, {"time": 2551, "pitch": 64, "duration": 5, "velocity": 97}, {"time": 2551, "pitch": 67, "duration": 6, "velocity": 100}, {"time": 2557, "pitch": 52, "duration": 13, "velocity": 69}, {"time": 2563, "pitch": 55, "duration": 6, "velocity": 72}, {"time": 2563, "pitch": 67, "duration": 5, "velocity": 102}, {"time": 2563, "pitch": 71, "duration": 5, "velocity": 107}, {"time": 2569, "pitch": 59, "duration": 1, "velocity": 86}, {"time": 2575, "pitch": 35, "duration": 17, "velocity": 77}, {"time": 2575, "pitch": 47, "duration": 17, "velocity": 77}, {"time": 2575, "pitch": 59, "duration": 6, "velocity": 99}, {"time": 2575, "pitch": 62, "duration": 7, "velocity": 97}, {"time": 2575, "pitch": 66, "duration": 8, "velocity": 93}, {"time": 2581, "pitch": 54, "duration": 7, "velocity": 90}, {"time": 2584, "pitch": 59, "duration": 2, "velocity": 97}, {"time": 2587, "pitch": 62, "duration": 4, "velocity": 107}, {"time": 2590, "pitch": 54, "duration": 2, "velocity": 96}, {"time": 2593, "pitch": 57, "duration": 5, "velocity": 102}, {"time": 2599, "pitch": 31, "duration": 12, "velocity": 95}, {"time": 2599, "pitch": 43, "duration": 12, "velocity": 95}, {"time": 2599, "pitch": 59, "duration": 9, "velocity": 99}, {"time": 2599, "pitch": 62, "duration": 9, "velocity": 99}, {"time": 2605, "pitch": 50, "duration": 6, "velocity": 53}, {"time": 2611, "pitch": 59, "duration": 6, "velocity": 97}, {"time": 2611, "pitch": 62, "duration": 6, "velocity": 100}, {"time": 2617, "pitch": 55, "duration": 1, "velocity": 93}, {"time": 2623, "pitch": 30, "duration": 17, "velocity": 100}, {"time": 2623, "pitch": 42, "duration": 17, "velocity": 100}, {"time": 2623, "pitch": 57, "duration": 9, "velocity": 97}, {"time": 2623, "pitch": 61, "duration": 10, "velocity": 100}, {"time": 2623, "pitch": 66, "duration": 10, "velocity": 95}, {"time": 2629, "pitch": 54, "duration": 7, "velocity": 78}, {"time": 2635, "pitch": 61, "duration": 6, "velocity": 117}, {"time": 2635, "pitch": 66, "duration": 6, "velocity": 122}, {"time": 2638, "pitch": 54, "duration": 1, "velocity": 100}, {"time": 2641, "pitch": 57, "duration": 1, "velocity": 99}, {"time": 2647, "pitch": 28, "duration": 14, "velocity": 85}, {"time": 2647, "pitch": 40, "duration": 14, "velocity": 85}, {"time": 2647, "pitch": 59, "duration": 9, "velocity": 107}, {"time": 2647, "pitch": 64, "duration": 9, "velocity": 100}, {"time": 2647, "pitch": 67, "duration": 9, "velocity": 97}, {"time": 2653, "pitch": 35, "duration": 7, "velocity": 59}, {"time": 2653, "pitch": 47, "duration": 7, "velocity": 59}, {"time": 2659, "pitch": 64, "duration": 6, "velocity": 127}, {"time": 2659, "pitch": 67, "duration": 6, "velocity": 122}, {"time": 2665, "pitch": 59, "duration": 2, "velocity": 96}, {"time": 2671, "pitch": 33, "duration": 18, "velocity": 96}, {"time": 2671, "pitch": 45, "duration": 18, "velocity": 96}, {"time": 2671, "pitch": 57, "duration": 1, "velocity": 71}, {"time": 2671, "pitch": 61, "duration": 2, "velocity": 122}, {"time": 2671, "pitch": 64, "duration": 2, "velocity": 100}, {"time": 2674, "pitch": 52, "duration": 15, "velocity": 112}, {"time": 2677, "pitch": 57, "duration": 11, "velocity": 100}, {"time": 2680, "pitch": 69, "duration": 2, "velocity": 100}, {"time": 2683, "pitch": 73, "duration": 4, "velocity": 127}, {"time": 2686, "pitch": 71, "duration": 3, "velocity": 97}, {"time": 2689, "pitch": 69, "duration": 1, "velocity": 102}, {"time": 2695, "pitch": 38, "duration": 16, "velocity": 89}, {"time": 2695, "pitch": 50, "duration": 16, "velocity": 89}, {"time": 2695, "pitch": 62, "duration": 8, "velocity": 99}, {"time": 2695, "pitch": 66, "duration": 7, "velocity": 112}, {"time": 2695, "pitch": 69, "duration": 8, "velocity": 96}, {"time": 2701, "pitch": 57, "duration": 7, "velocity": 86}, {"time": 2707, "pitch": 66, "duration": 5, "velocity": 127}, {"time": 2707, "pitch": 69, "duration": 5, "velocity": 99}, {"time": 2710, "pitch": 57, "duration": 1, "velocity": 95}, {"time": 2713, "pitch": 64, "duration": 4, "velocity": 99}, {"time": 2719, "pitch": 33, "duration": 17, "velocity": 89}, {"time": 2719, "pitch": 45, "duration": 17, "velocity": 89}, {"time": 2719, "pitch": 64, "duration": 1, "velocity": 81}, {"time": 2719, "pitch": 69, "duration": 2, "velocity": 99}, {"time": 2719, "pitch": 73, "duration": 3, "velocity": 112}, {"time": 2722, "pitch": 52, "duration": 13, "velocity": 99}, {"time": 2725, "pitch": 57, "duration": 7, "velocity": 100}, {"time": 2728, "pitch": 69, "duration": 2, "velocity": 100}, {"time": 2731, "pitch": 76, "duration": 6, "velocity": 117}, {"time": 2734, "pitch": 73, "duration": 3, "velocity": 112}, {"time": 2737, "pitch": 69, "duration": 1, "velocity": 112}, {"time": 2743, "pitch": 30, "duration": 16, "velocity": 112}, {"time": 2743, "pitch": 42, "duration": 16, "velocity": 112}, {"time": 2743, "pitch": 66, "duration": 7, "velocity": 102}, {"time": 2743, "pitch": 70, "duration": 10, "velocity": 127}, {"time": 2743, "pitch": 73, "duration": 10, "velocity": 127}, {"time": 2749, "pitch": 54, "duration": 6, "velocity": 82}, {"time": 2755, "pitch": 70, "duration": 1, "velocity": 99}, {"time": 2755, "pitch": 73, "duration": 6, "velocity": 127}, {"time": 2758, "pitch": 54, "duration": 3, "velocity": 97}, {"time": 2761, "pitch": 70, "duration": 1, "velocity": 127}, {"time": 2767, "pitch": 35, "duration": 18, "velocity": 95}, {"time": 2767, "pitch": 47, "duration": 18, "velocity": 95}, {"time": 2770, "pitch": 54, "duration": 14, "velocity": 93}, {"time": 2773, "pitch": 59, "duration": 10, "velocity": 99}, {"time": 2776, "pitch": 61, "duration": 1, "velocity": 117}, {"time": 2779, "pitch": 62, "duration": 2, "velocity": 100}, {"time": 2782, "pitch": 66, "duration": 3, "velocity": 127}, {"time": 2785, "pitch": 62, "duration": 1, "velocity": 96}, {"time": 2791, "pitch": 31, "duration": 17, "velocity": 79}, {"time": 2791, "pitch": 43, "duration": 17, "velocity": 79}, {"time": 2791, "pitch": 62, "duration": 9, "velocity": 100}, {"time": 2791, "pitch": 67, "duration": 9, "velocity": 92}, {"time": 2791, "pitch": 71, "duration": 9, "velocity": 93}, {"time": 2797, "pitch": 50, "duration": 11, "velocity": 82}, {"time": 2803, "pitch": 55, "duration": 4, "velocity": 100}, {"time": 2803, "pitch": 67, "duration": 1, "velocity": 112}, {"time": 2809, "pitch": 69, "duration": 1, "velocity": 117}, {"time": 2815, "pitch": 30, "duration": 16, "velocity": 99}, {"time": 2815, "pitch": 42, "duration": 16, "velocity": 99}, {"time": 2815, "pitch": 66, "duration": 9, "velocity": 96}, {"time": 2815, "pitch": 69, "duration": 9, "velocity": 93}, {"time": 2815, "pitch": 73, "duration": 8, "velocity": 127}, {"time": 2821, "pitch": 54, "duration": 7, "velocity": 89}, {"time": 2827, "pitch": 69, "duration": 6, "velocity": 112}, {"time": 2827, "pitch": 73, "duration": 7, "velocity": 127}, {"time": 2830, "pitch": 54, "duration": 1, "velocity": 88}, {"time": 2833, "pitch": 66, "duration": 1, "velocity": 107}, {"time": 2839, "pitch": 52, "duration": 5, "velocity": 74}, {"time": 2839, "pitch": 64, "duration": 9, "velocity": 99}, {"time": 2839, "pitch": 67, "duration": 9, "velocity": 99}, {"time": 2839, "pitch": 71, "duration": 7, "velocity": 97}, {"time": 2845, "pitch": 59, "duration": 1, "velocity": 53}, {"time": 2851, "pitch": 33, "duration": 4, "velocity": 93}, {"time": 2851, "pitch": 45, "duration": 4, "velocity": 93}, {"time": 2851, "pitch": 64, "duration": 6, "velocity": 99}, {"time": 2851, "pitch": 69, "duration": 6, "velocity": 122}, {"time": 2851, "pitch": 73, "duration": 6, "velocity": 127}, {"time": 2863, "pitch": 34, "duration": 10, "velocity": 117}, {"time": 2863, "pitch": 46, "duration": 10, "velocity": 117}, {"time": 2863, "pitch": 65, "duration": 4, "velocity": 97}, {"time": 2863, "pitch": 70, "duration": 4, "velocity": 112}, {"time": 2863, "pitch": 74, "duration": 4, "velocity": 99}, {"time": 2869, "pitch": 58, "duration": 5, "velocity": 74}, {"time": 2869, "pitch": 65, "duration": 4, "velocity": 72}, {"time": 2869, "pitch": 70, "duration": 4, "velocity": 95}, {"time": 2869, "pitch": 74, "duration": 4, "velocity": 93}, {"time": 2875, "pitch": 34, "duration": 3, "velocity": 107}, {"time": 2875, "pitch": 46, "duration": 3, "velocity": 107}, {"time": 2875, "pitch": 58, "duration": 4, "velocity": 78}, {"time": 2875, "pitch": 65, "duration": 4, "velocity": 107}, {"time": 2875, "pitch": 70, "duration": 4, "velocity": 127}, {"time": 2875, "pitch": 74, "duration": 4, "velocity": 112}, {"time": 2881, "pitch": 34, "duration": 1, "velocity": 107}, {"time": 2881, "pitch": 46, "duration": 1, "velocity": 107}, {"time": 2881, "pitch": 58, "duration": 1, "velocity": 100}, {"time": 2881, "pitch": 65, "duration": 1, "velocity": 99}, {"time": 2881, "pitch": 70, "duration": 1, "velocity": 127}, {"time": 2881, "pitch": 74, "duration": 1, "velocity": 107}, {"time": 2884, "pitch": 34, "duration": 3, "velocity": 90}, {"time": 2884, "pitch": 46, "duration": 3, "velocity": 90}, {"time": 2884, "pitch": 58, "duration": 3, "velocity": 95}, {"time": 2884, "pitch": 65, "duration": 4, "velocity": 95}, {"time": 2884, "pitch": 70, "duration": 3, "velocity": 122}, {"time": 2884, "pitch": 74, "duration": 4, "velocity": 93}, {"time": 2887, "pitch": 27, "duration": 9, "velocity": 95}, {"time": 2887, "pitch": 39, "duration": 9, "velocity": 95}, {"time": 2887, "pitch": 58, "duration": 1, "velocity": 117}, {"time": 2887, "pitch": 63, "duration": 5, "velocity": 127}, {"time": 2887, "pitch": 67, "duration": 6, "velocity": 127}, {"time": 2893, "pitch": 51, "duration": 12, "velocity": 47}, {"time": 2899, "pitch": 55, "duration": 6, "velocity": 48}, {"time": 2899, "pitch": 58, "duration": 2, "velocity": 34}, {"time": 2899, "pitch": 63, "duration": 4, "velocity": 90}, {"time": 2899, "pitch": 67, "duration": 6, "velocity": 127}, {"time": 2899, "pitch": 70, "duration": 6, "velocity": 112}, {"time": 2905, "pitch": 58, "duration": 1, "velocity": 55}, {"time": 2911, "pitch": 34, "duration": 16, "velocity": 81}, {"time": 2911, "pitch": 46, "duration": 16, "velocity": 81}, {"time": 2911, "pitch": 58, "duration": 7, "velocity": 107}, {"time": 2911, "pitch": 62, "duration": 7, "velocity": 127}, {"time": 2911, "pitch": 65, "duration": 9, "velocity": 97}, {"time": 2917, "pitch": 53, "duration": 6, "velocity": 52}, {"time": 2920, "pitch": 62, "duration": 1, "velocity": 25}, {"time": 2923, "pitch": 62, "duration": 6, "velocity": 127}, {"time": 2923, "pitch": 65, "duration": 6, "velocity": 102}, {"time": 2926, "pitch": 53, "duration": 1, "velocity": 82}, {"time": 2929, "pitch": 58, "duration": 1, "velocity": 102}, {"time": 2935, "pitch": 29, "duration": 10, "velocity": 79}, {"time": 2935, "pitch": 41, "duration": 10, "velocity": 79}, {"time": 2935, "pitch": 60, "duration": 5, "velocity": 107}, {"time": 2935, "pitch": 65, "duration": 5, "velocity": 97}, {"time": 2935, "pitch": 68, "duration": 6, "velocity": 100}, {"time": 2941, "pitch": 53, "duration": 13, "velocity": 69}, {"time": 2947, "pitch": 56, "duration": 6, "velocity": 72}, {"time": 2947, "pitch": 68, "duration": 5, "velocity": 102}, {"time": 2947, "pitch": 72, "duration": 5, "velocity": 107}, {"time": 2953, "pitch": 60, "duration": 1, "velocity": 86}, {"time": 2959, "pitch": 36, "duration": 17, "velocity": 77}, {"time": 2959, "pitch": 48, "duration": 17, "velocity": 77}, {"time": 2959, "pitch": 60, "duration": 6, "velocity": 99}, {"time": 2959, "pitch": 63, "duration": 7, "velocity": 97}, {"time": 2959, "pitch": 67, "duration": 8, "velocity": 93}, {"time": 2965, "pitch": 55, "duration": 7, "velocity": 90}, {"time": 2968, "pitch": 60, "duration": 2, "velocity": 97}, {"time": 2971, "pitch": 63, "duration": 4, "velocity": 107}, {"time": 2974, "pitch": 55, "duration": 2, "velocity": 96}, {"time": 2977, "pitch": 58, "duration": 5, "velocity": 102}, {"time": 2983, "pitch": 32, "duration": 12, "velocity": 95}, {"time": 2983, "pitch": 44, "duration": 12, "velocity": 95}, {"time": 2983, "pitch": 60, "duration": 9, "velocity": 99}, {"time": 2983, "pitch": 63, "duration": 9, "velocity": 99}, {"time": 2989, "pitch": 51, "duration": 6, "velocity": 53}, {"time": 2995, "pitch": 60, "duration": 6, "velocity": 97}, {"time": 2995, "pitch": 63, "duration": 6, "velocity": 100}, {"time": 3001, "pitch": 56, "duration": 1, "velocity": 93}, {"time": 3007, "pitch": 31, "duration": 17, "velocity": 100}, {"time": 3007, "pitch": 43, "duration": 17, "velocity": 100}, {"time": 3007, "pitch": 58, "duration": 9, "velocity": 97}, {"time": 3007, "pitch": 62, "duration": 10, "velocity": 100}, {"time": 3007, "pitch": 67, "duration": 10, "velocity": 95}, {"time": 3013, "pitch": 55, "duration": 7, "velocity": 78}, {"time": 3019, "pitch": 62, "duration": 6, "velocity": 117}, {"time": 3019, "pitch": 67, "duration": 6, "velocity": 122}, {"time": 3022, "pitch": 55, "duration": 1, "velocity": 100}, {"time": 3025, "pitch": 58, "duration": 1, "velocity": 99}, {"time": 3031, "pitch": 29, "duration": 14, "velocity": 85}, {"time": 3031, "pitch": 41, "duration": 14, "velocity": 85}, {"time": 3031, "pitch": 60, "duration": 9, "velocity": 107}, {"time": 3031, "pitch": 65, "duration": 9, "velocity": 100}, {"time": 3031, "pitch": 68, "duration": 9, "velocity": 97}, {"time": 3037, "pitch": 48, "duration": 7, "velocity": 59}, {"time": 3043, "pitch": 65, "duration": 6, "velocity": 127}, {"time": 3043, "pitch": 68, "duration": 6, "velocity": 122}, {"time": 3049, "pitch": 60, "duration": 2, "velocity": 96}, {"time": 3055, "pitch": 34, "duration": 18, "velocity": 96}, {"time": 3055, "pitch": 46, "duration": 18, "velocity": 96}, {"time": 3055, "pitch": 58, "duration": 1, "velocity": 71}, {"time": 3055, "pitch": 62, "duration": 2, "velocity": 122}, {"time": 3055, "pitch": 65, "duration": 2, "velocity": 100}, {"time": 3058, "pitch": 53, "duration": 15, "velocity": 112}, {"time": 3061, "pitch": 58, "duration": 11, "velocity": 100}, {"time": 3064, "pitch": 70, "duration": 2, "velocity": 100}, {"time": 3067, "pitch": 74, "duration": 4, "velocity": 127}, {"time": 3070, "pitch": 72, "duration": 3, "velocity": 97}, {"time": 3073, "pitch": 70, "duration": 1, "velocity": 102}, {"time": 3079, "pitch": 39, "duration": 16, "velocity": 89}, {"time": 3079, "pitch": 51, "duration": 16, "velocity": 89}, {"time": 3079, "pitch": 63, "duration": 8, "velocity": 99}, {"time": 3079, "pitch": 67, "duration": 7, "velocity": 112}, {"time": 3079, "pitch": 70, "duration": 8, "velocity": 96}, {"time": 3085, "pitch": 58, "duration": 7, "velocity": 86}, {"time": 3091, "pitch": 67, "duration": 5, "velocity": 127}, {"time": 3091, "pitch": 70, "duration": 5, "velocity": 99}, {"time": 3094, "pitch": 58, "duration": 1, "velocity": 95}, {"time": 3097, "pitch": 65, "duration": 4, "velocity": 99}, {"time": 3103, "pitch": 34, "duration": 17, "velocity": 89}, {"time": 3103, "pitch": 46, "duration": 17, "velocity": 89}, {"time": 3103, "pitch": 65, "duration": 1, "velocity": 81}, {"time": 3103, "pitch": 70, "duration": 2, "velocity": 99}, {"time": 3103, "pitch": 74, "duration": 3, "velocity": 112}, {"time": 3106, "pitch": 53, "duration": 13, "velocity": 99}, {"time": 3109, "pitch": 58, "duration": 7, "velocity": 100}, {"time": 3112, "pitch": 70, "duration": 2, "velocity": 100}, {"time": 3115, "pitch": 77, "duration": 6, "velocity": 117}, {"time": 3118, "pitch": 74, "duration": 3, "velocity": 112}, {"time": 3121, "pitch": 70, "duration": 1, "velocity": 112}, {"time": 3127, "pitch": 31, "duration": 16, "velocity": 112}, {"time": 3127, "pitch": 43, "duration": 16, "velocity": 112}, {"time": 3127, "pitch": 67, "duration": 7, "velocity": 102}, {"time": 3127, "pitch": 71, "duration": 10, "velocity": 127}, {"time": 3127, "pitch": 74, "duration": 10, "velocity": 127}, {"time": 3133, "pitch": 55, "duration": 6, "velocity": 82}, {"time": 3139, "pitch": 71, "duration": 1, "velocity": 99}, {"time": 3139, "pitch": 74, "duration": 6, "velocity": 127}, {"time": 3142, "pitch": 55, "duration": 3, "velocity": 97}, {"time": 3145, "pitch": 71, "duration": 1, "velocity": 127}, {"time": 3151, "pitch": 36, "duration": 18, "velocity": 95}, {"time": 3151, "pitch": 48, "duration": 18, "velocity": 95}, {"time": 3154, "pitch": 55, "duration": 14, "velocity": 93}, {"time": 3157, "pitch": 60, "duration": 10, "velocity": 99}, {"time": 3160, "pitch": 62, "duration": 1, "velocity": 117}, {"time": 3163, "pitch": 63, "duration": 2, "velocity": 100}, {"time": 3166, "pitch": 67, "duration": 3, "velocity": 127}, {"time": 3169, "pitch": 63, "duration": 1, "velocity": 96}, {"time": 3175, "pitch": 32, "duration": 17, "velocity": 79}, {"time": 3175, "pitch": 44, "duration": 17, "velocity": 79}, {"time": 3175, "pitch": 63, "duration": 9, "velocity": 100}, {"time": 3175, "pitch": 68, "duration": 9, "velocity": 92}, {"time": 3175, "pitch": 72, "duration": 9, "velocity": 93}, {"time": 3181, "pitch": 51, "duration": 11, "velocity": 82}, {"time": 3187, "pitch": 56, "duration": 4, "velocity": 100}, {"time": 3187, "pitch": 68, "duration": 1, "velocity": 112}, {"time": 3193, "pitch": 70, "duration": 1, "velocity": 117}, {"time": 3199, "pitch": 31, "duration": 16, "velocity": 99}, {"time": 3199, "pitch": 43, "duration": 16, "velocity": 99}, {"time": 3199, "pitch": 67, "duration": 9, "velocity": 96}, {"time": 3199, "pitch": 70, "duration": 9, "velocity": 93}, {"time": 3199, "pitch": 74, "duration": 8, "velocity": 127}, {"time": 3205, "pitch": 55, "duration": 7, "velocity": 89}, {"time": 3211, "pitch": 70, "duration": 6, "velocity": 112}, {"time": 3211, "pitch": 74, "duration": 7, "velocity": 127}, {"time": 3214, "pitch": 55, "duration": 1, "velocity": 88}, {"time": 3217, "pitch": 67, "duration": 1, "velocity": 107}, {"time": 3223, "pitch": 41, "duration": 5, "velocity": 74}, {"time": 3223, "pitch": 53, "duration": 5, "velocity": 74}, {"time": 3223, "pitch": 65, "duration": 9, "velocity": 99}, {"time": 3223, "pitch": 68, "duration": 9, "velocity": 99}, {"time": 3223, "pitch": 72, "duration": 7, "velocity": 97}, {"time": 3229, "pitch": 60, "duration": 1, "velocity": 53}, {"time": 3235, "pitch": 34, "duration": 4, "velocity": 93}, {"time": 3235, "pitch": 46, "duration": 4, "velocity": 93}, {"time": 3235, "pitch": 65, "duration": 6, "velocity": 99}, {"time": 3235, "pitch": 70, "duration": 6, "velocity": 122}, {"time": 3235, "pitch": 74, "duration": 6, "velocity": 127}, {"time": 3247, "pitch": 27, "duration": 39, "velocity": 89}, {"time": 3247, "pitch": 39, "duration": 39, "velocity": 89}, {"time": 3247, "pitch": 63, "duration": 10, "velocity": 95}, {"time": 3247, "pitch": 67, "duration": 7, "velocity": 95}, {"time": 3247, "pitch": 70, "duration": 7, "velocity": 99}, {"time": 3253, "pitch": 51, "duration": 9, "velocity": 48}, {"time": 3259, "pitch": 63, "duration": 10, "velocity": 93}, {"time": 3259, "pitch": 67, "duration": 9, "velocity": 95}, {"time": 3259, "pitch": 70, "duration": 10, "velocity": 86}, {"time": 3265, "pitch": 51, "duration": 22, "velocity": 38}, {"time": 3271, "pitch": 63, "duration": 16, "velocity": 75}, {"time": 3271, "pitch": 67, "duration": 15, "velocity": 93}, {"time": 3271, "pitch": 70, "duration": 15, "velocity": 85}, {"time": 3295, "pitch": 32, "duration": 18, "velocity": 92}, {"time": 3295, "pitch": 44, "duration": 18, "velocity": 92}, {"time": 3295, "pitch": 60, "duration": 5, "velocity": 70}, {"time": 3295, "pitch": 63, "duration": 5, "velocity": 82}, {"time": 3301, "pitch": 56, "duration": 9, "velocity": 56}, {"time": 3307, "pitch": 60, "duration": 5, "velocity": 65}, {"time": 3307, "pitch": 68, "duration": 5, "velocity": 68}, {"time": 3319, "pitch": 31, "duration": 14, "velocity": 70}, {"time": 3319, "pitch": 43, "duration": 14, "velocity": 70}, {"time": 3319, "pitch": 55, "duration": 2, "velocity": 66}, {"time": 3319, "pitch": 58, "duration": 2, "velocity": 76}, {"time": 3319, "pitch": 62, "duration": 2, "velocity": 76}, {"time": 3325, "pitch": 50, "duration": 7, "velocity": 46}, {"time": 3331, "pitch": 67, "duration": 4, "velocity": 79}, {"time": 3331, "pitch": 70, "duration": 4, "velocity": 90}, {"time": 3340, "pitch": 60, "duration": 7, "velocity": 50}, {"time": 3343, "pitch": 29, "duration": 51, "velocity": 72}, {"time": 3343, "pitch": 41, "duration": 51, "velocity": 72}, {"time": 3343, "pitch": 65, "duration": 5, "velocity": 42}, {"time": 3343, "pitch": 68, "duration": 5, "velocity": 58}, {"time": 3349, "pitch": 48, "duration": 45, "velocity": 58}, {"time": 3352, "pitch": 53, "duration": 40, "velocity": 82}, {"time": 3358, "pitch": 56, "duration": 3, "velocity": 95}, {"time": 3361, "pitch": 60, "duration": 1, "velocity": 88}, {"time": 3364, "pitch": 65, "duration": 31, "velocity": 86}, {"time": 3367, "pitch": 68, "duration": 28, "velocity": 79}, {"time": 3370, "pitch": 72, "duration": 24, "velocity": 70}, {"time": 3382, "pitch": 77, "duration": 15, "velocity": 64}, {"time": 3396, "pitch": 27, "duration": 44, "velocity": 96}, {"time": 3396, "pitch": 39, "duration": 44, "velocity": 96}, {"time": 3396, "pitch": 63, "duration": 10, "velocity": 65}, {"time": 3396, "pitch": 67, "duration": 11, "velocity": 61}, {"time": 3396, "pitch": 70, "duration": 11, "velocity": 57}, {"time": 3402, "pitch": 51, "duration": 9, "velocity": 82}, {"time": 3408, "pitch": 63, "duration": 9, "velocity": 69}, {"time": 3408, "pitch": 67, "duration": 23, "velocity": 62}, {"time": 3408, "pitch": 70, "duration": 64, "velocity": 66}, {"time": 3414, "pitch": 51, "duration": 9, "velocity": 39}, {"time": 3420, "pitch": 63, "duration": 10, "velocity": 58}, {"time": 3426, "pitch": 51, "duration": 19, "velocity": 45}, {"time": 3429, "pitch": 63, "duration": 1, "velocity": 24}, {"time": 3432, "pitch": 63, "duration": 1, "velocity": 35}, {"time": 3432, "pitch": 67, "duration": 41, "velocity": 56}, {"time": 3438, "pitch": 63, "duration": 16, "velocity": 33}, {"time": 3444, "pitch": 27, "duration": 47, "velocity": 79}, {"time": 3444, "pitch": 39, "duration": 47, "velocity": 79}, {"time": 3450, "pitch": 51, "duration": 8, "velocity": 38}, {"time": 3456, "pitch": 63, "duration": 11, "velocity": 72}, {"time": 3462, "pitch": 51, "duration": 7, "velocity": 38}, {"time": 3468, "pitch": 65, "duration": 7, "velocity": 56}, {"time": 3471, "pitch": 51, "duration": 8, "velocity": 56}, {"time": 3474, "pitch": 63, "duration": 5, "velocity": 74}, {"time": 3477, "pitch": 70, "duration": 26, "velocity": 95}, {"time": 3480, "pitch": 63, "duration": 10, "velocity": 59}, {"time": 3483, "pitch": 51, "duration": 7, "velocity": 58}, {"time": 3486, "pitch": 65, "duration": 9, "velocity": 59}, {"time": 3489, "pitch": 67, "duration": 4, "velocity": 61}, {"time": 3492, "pitch": 27, "duration": 59, "velocity": 63}, {"time": 3492, "pitch": 39, "duration": 59, "velocity": 63}, {"time": 3495, "pitch": 51, "duration": 8, "velocity": 44}, {"time": 3498, "pitch": 63, "duration": 7, "velocity": 65}, {"time": 3501, "pitch": 65, "duration": 8, "velocity": 59}, {"time": 3504, "pitch": 67, "duration": 5, "velocity": 65}, {"time": 3504, "pitch": 70, "duration": 7, "velocity": 37}, {"time": 3507, "pitch": 51, "duration": 7, "velocity": 48}, {"time": 3510, "pitch": 63, "duration": 5, "velocity": 74}, {"time": 3513, "pitch": 70, "duration": 14, "velocity": 85}, {"time": 3519, "pitch": 51, "duration": 10, "velocity": 38}, {"time": 3522, "pitch": 63, "duration": 7, "velocity": 40}, {"time": 3525, "pitch": 65, "duration": 10, "velocity": 48}, {"time": 3528, "pitch": 67, "duration": 9, "velocity": 62}, {"time": 3528, "pitch": 70, "duration": 27, "velocity": 31}, {"time": 3531, "pitch": 51, "duration": 19, "velocity": 36}, {"time": 3537, "pitch": 63, "duration": 12, "velocity": 73}, {"time": 3540, "pitch": 65, "duration": 13, "velocity": 41}, {"time": 3546, "pitch": 67, "duration": 6, "velocity": 52}, {"time": 3555, "pitch": 67, "duration": 11, "velocity": 57}, {"time": 3555, "pitch": 70, "duration": 11, "velocity": 31}, {"time": 3558, "pitch": 27, "duration": 111, "velocity": 89}, {"time": 3558, "pitch": 39, "duration": 111, "velocity": 89}, {"time": 3558, "pitch": 63, "duration": 9, "velocity": 61}, {"time": 3558, "pitch": 65, "duration": 10, "velocity": 68}, {"time": 3570, "pitch": 51, "duration": 100, "velocity": 75}, {"time": 3576, "pitch": 55, "duration": 19, "velocity": 46}, {"time": 3582, "pitch": 58, "duration": 14, "velocity": 56}, {"time": 3588, "pitch": 63, "duration": 8, "velocity": 51}, {"time": 3594, "pitch": 67, "duration": 2, "velocity": 39}, {"time": 3606, "pitch": 75, "duration": 66, "velocity": 34}, {"time": 3606, "pitch": 79, "duration": 64, "velocity": 29}, {"time": 3606, "pitch": 82, "duration": 65, "velocity": 31}, {"time": 3606, "pitch": 87, "duration": 63, "velocity": 36}], "annotations": [{"time": 8, "annotation": {"number": 64, "value": 127}, "group": "control_change"}, {"time": 32, "annotation": {"number": 64, "value": 0}, "group": "control_change"}, {"time": 35, "annotation": {"number": 64, "value": 127}, "group": "control_change"}, {"time": 53, "annotation": {"number": 64, "value": 0}, "group": "control_change"}, {"time": 56, "annotation": {"number": 64, "value": 127}, "group": "control_change"}, {"time": 78, "annotation": {"number": 64, "value": 0}, "group": "control_change"}, {"time": 80, "annotation": {"number": 64, "value": 127}, "group": "control_change"}, {"time": 100, "annotation": {"number": 64, "value": 0}, "group": "control_change"}, {"time": 103, "annotation": {"number": 64, "value": 127}, "group": "control_change"}, {"time": 127, "annotation": {"number": 64, "value": 0}, "group": "control_change"}, {"time": 130, "annotation": {"number": 64, "value": 127}, "group": "control_change"}, {"time": 149, "annotation": {"number": 64, "value": 0}, "group": "control_change"}, {"time": 151, "annotation": {"number": 64, "value": 127}, "group": "control_change"}, {"time": 174, "annotation": {"number": 64, "value": 0}, "group": "control_change"}, {"time": 177, "annotation": {"number": 64, "value": 127}, "group": "control_change"}, {"time": 223, "annotation": {"number": 64, "value": 0}, "group": "control_change"}, {"time": 299, "annotation": {"number": 64, "value": 127}, "group": "control_change"}, {"time": 340, "annotation": {"number": 64, "value": 0}, "group": "control_change"}, {"time": 343, "annotation": {"number": 64, "value": 127}, "group": "control_change"}, {"time": 414, "annotation": {"number": 64, "value": 0}, "group": "control_change"}, {"time": 416, "annotation": {"number": 64, "value": 127}, "group": "control_change"}, {"time": 437, "annotation": {"number": 64, "value": 0}, "group": "control_change"}, {"time": 439, "annotation": {"number": 64, "value": 127}, "group": "control_change"}, {"time": 460, "annotation": {"number": 64, "value": 0}, "group": "control_change"}, {"time": 463, "annotation": {"number": 64, "value": 127}, "group": "control_change"}, {"time": 485, "annotation": {"number": 64, "value": 0}, "group": "control_change"}, {"time": 488, "annotation": {"number": 64, "value": 127}, "group": "control_change"}, {"time": 533, "annotation": {"number": 64, "value": 0}, "group": "control_change"}, {"time": 535, "annotation": {"number": 64, "value": 127}, "group": "control_change"}, {"time": 581, "annotation": {"number": 64, "value": 0}, "group": "control_change"}, {"time": 583, "annotation": {"number": 64, "value": 127}, "group": "control_change"}, {"time": 605, "annotation": {"number": 64, "value": 0}, "group": "control_change"}, {"time": 607, "annotation": {"number": 64, "value": 127}, "group": "control_change"}, {"time": 629, "annotation": {"number": 64, "value": 0}, "group": "control_change"}, {"time": 631, "annotation": {"number": 64, "value": 127}, "group": "control_change"}, {"time": 641, "annotation": {"number": 64, "value": 0}, "group": "control_change"}, {"time": 655, "annotation": {"number": 64, "value": 127}, "group": "control_change"}, {"time": 701, "annotation": {"number": 64, "value": 0}, "group": "control_change"}, {"time": 708, "annotation": {"number": 64, "value": 71}, "group": "control_change"}, {"time": 710, "annotation": {"number": 64, "value": 127}, "group": "control_change"}, {"time": 727, "annotation": {"number": 64, "value": 71}, "group": "control_change"}, {"time": 728, "annotation": {"number": 64, "value": 0}, "group": "control_change"}, {"time": 736, "annotation": {"number": 64, "value": 71}, "group": "control_change"}, {"time": 738, "annotation": {"number": 64, "value": 127}, "group": "control_change"}, {"time": 751, "annotation": {"number": 64, "value": 71}, "group": "control_change"}, {"time": 752, "annotation": {"number": 64, "value": 0}, "group": "control_change"}, {"time": 760, "annotation": {"number": 64, "value": 71}, "group": "control_change"}, {"time": 763, "annotation": {"number": 64, "value": 127}, "group": "control_change"}, {"time": 774, "annotation": {"number": 64, "value": 71}, "group": "control_change"}, {"time": 776, "annotation": {"number": 64, "value": 0}, "group": "control_change"}, {"time": 784, "annotation": {"number": 64, "value": 71}, "group": "control_change"}, {"time": 787, "annotation": {"number": 64, "value": 127}, "group": "control_change"}, {"time": 798, "annotation": {"number": 64, "value": 71}, "group": "control_change"}, {"time": 800, "annotation": {"number": 64, "value": 0}, "group": "control_change"}, {"time": 807, "annotation": {"number": 64, "value": 71}, "group": "control_change"}, {"time": 810, "annotation": {"number": 64, "value": 127}, "group": "control_change"}, {"time": 823, "annotation": {"number": 64, "value": 71}, "group": "control_change"}, {"time": 824, "annotation": {"number": 64, "value": 0}, "group": "control_change"}, {"time": 831, "annotation": {"number": 64, "value": 71}, "group": "control_change"}, {"time": 833, "annotation": {"number": 64, "value": 127}, "group": "control_change"}, {"time": 847, "annotation": {"number": 64, "value": 71}, "group": "control_change"}, {"time": 848, "annotation": {"number": 64, "value": 0}, "group": "control_change"}, {"time": 856, "annotation": {"number": 64, "value": 71}, "group": "control_change"}, {"time": 858, "annotation": {"number": 64, "value": 127}, "group": "control_change"}, {"time": 871, "annotation": {"number": 64, "value": 71}, "group": "control_change"}, {"time": 872, "annotation": {"number": 64, "value": 0}, "group": "control_change"}, {"time": 879, "annotation": {"number": 64, "value": 71}, "group": "control_change"}, {"time": 880, "annotation": {"number": 64, "value": 127}, "group": "control_change"}, {"time": 894, "annotation": {"number": 64, "value": 0}, "group": "control_change"}, {"time": 898, "annotation": {"number": 64, "value": 71}, "group": "control_change"}, {"time": 899, "annotation": {"number": 64, "value": 127}, "group": "control_change"}, {"time": 920, "annotation": {"number": 64, "value": 71}, "group": "control_change"}, {"time": 920, "annotation": {"number": 64, "value": 0}, "group": "control_change"}, {"time": 928, "annotation": {"number": 64, "value": 71}, "group": "control_change"}, {"time": 928, "annotation": {"number": 64, "value": 127}, "group": "control_change"}, {"time": 944, "annotation": {"number": 64, "value": 71}, "group": "control_change"}, {"time": 944, "annotation": {"number": 64, "value": 0}, "group": "control_change"}, {"time": 950, "annotation": {"number": 64, "value": 71}, "group": "control_change"}, {"time": 952, "annotation": {"number": 64, "value": 127}, "group": "control_change"}, {"time": 965, "annotation": {"number": 64, "value": 71}, "group": "control_change"}, {"time": 966, "annotation": {"number": 64, "value": 127}, "group": "control_change"}, {"time": 967, "annotation": {"number": 64, "value": 0}, "group": "control_change"}, {"time": 967, "annotation": {"number": 64, "value": 71}, "group": "control_change"}, {"time": 968, "annotation": {"number": 64, "value": 0}, "group": "control_change"}, {"time": 971, "annotation": {"number": 64, "value": 71}, "group": "control_change"}, {"time": 972, "annotation": {"number": 64, "value": 127}, "group": "control_change"}, {"time": 991, "annotation": {"number": 64, "value": 71}, "group": "control_change"}, {"time": 992, "annotation": {"number": 64, "value": 0}, "group": "control_change"}, {"time": 1003, "annotation": {"number": 64, "value": 71}, "group": "control_change"}, {"time": 1004, "annotation": {"number": 64, "value": 127}, "group": "control_change"}, {"time": 1015, "annotation": {"number": 64, "value": 71}, "group": "control_change"}, {"time": 1015, "annotation": {"number": 64, "value": 0}, "group": "control_change"}, {"time": 1018, "annotation": {"number": 64, "value": 71}, "group": "control_change"}, {"time": 1019, "annotation": {"number": 64, "value": 127}, "group": "control_change"}, {"time": 1040, "annotation": {"number": 64, "value": 71}, "group": "control_change"}, {"time": 1040, "annotation": {"number": 64, "value": 0}, "group": "control_change"}, {"time": 1045, "annotation": {"number": 64, "value": 71}, "group": "control_change"}, {"time": 1046, "annotation": {"number": 64, "value": 127}, "group": "control_change"}, {"time": 1064, "annotation": {"number": 64, "value": 71}, "group": "control_change"}, {"time": 1064, "annotation": {"number": 64, "value": 0}, "group": "control_change"}, {"time": 1067, "annotation": {"number": 64, "value": 71}, "group": "control_change"}, {"time": 1068, "annotation": {"number": 64, "value": 127}, "group": "control_change"}, {"time": 1069, "annotation": {"number": 64, "value": 71}, "group": "control_change"}, {"time": 1070, "annotation": {"number": 64, "value": 127}, "group": "control_change"}, {"time": 1087, "annotation": {"number": 64, "value": 71}, "group": "control_change"}, {"time": 1088, "annotation": {"number": 64, "value": 71}, "group": "control_change"}, {"time": 1088, "annotation": {"number": 64, "value": 0}, "group": "control_change"}, {"time": 1093, "annotation": {"number": 64, "value": 71}, "group": "control_change"}, {"time": 1093, "annotation": {"number": 64, "value": 127}, "group": "control_change"}, {"time": 1111, "annotation": {"number": 64, "value": 71}, "group": "control_change"}, {"time": 1112, "annotation": {"number": 64, "value": 0}, "group": "control_change"}, {"time": 1116, "annotation": {"number": 64, "value": 71}, "group": "control_change"}, {"time": 1117, "annotation": {"number": 64, "value": 127}, "group": "control_change"}, {"time": 1136, "annotation": {"number": 64, "value": 71}, "group": "control_change"}, {"time": 1136, "annotation": {"number": 64, "value": 0}, "group": "control_change"}, {"time": 1141, "annotation": {"number": 64, "value": 71}, "group": "control_change"}, {"time": 1142, "annotation": {"number": 64, "value": 71}, "group": "control_change"}, {"time": 1143, "annotation": {"number": 64, "value": 127}, "group": "control_change"}, {"time": 1144, "annotation": {"number": 64, "value": 127}, "group": "control_change"}, {"time": 1159, "annotation": {"number": 64, "value": 71}, "group": "control_change"}, {"time": 1159, "annotation": {"number": 64, "value": 0}, "group": "control_change"}, {"time": 1160, "annotation": {"number": 64, "value": 0}, "group": "control_change"}, {"time": 1165, "annotation": {"number": 64, "value": 71}, "group": "control_change"}, {"time": 1166, "annotation": {"number": 64, "value": 127}, "group": "control_change"}, {"time": 1183, "annotation": {"number": 64, "value": 71}, "group": "control_change"}, {"time": 1184, "annotation": {"number": 64, "value": 0}, "group": "control_change"}, {"time": 1189, "annotation": {"number": 64, "value": 71}, "group": "control_change"}, {"time": 1190, "annotation": {"number": 64, "value": 127}, "group": "control_change"}, {"time": 1208, "annotation": {"number": 64, "value": 71}, "group": "control_change"}, {"time": 1208, "annotation": {"number": 64, "value": 0}, "group": "control_change"}, {"time": 1214, "annotation": {"number": 64, "value": 71}, "group": "control_change"}, {"time": 1214, "annotation": {"number": 64, "value": 127}, "group": "control_change"}, {"time": 1232, "annotation": {"number": 64, "value": 71}, "group": "control_change"}, {"time": 1232, "annotation": {"number": 64, "value": 0}, "group": "control_change"}, {"time": 1237, "annotation": {"number": 64, "value": 71}, "group": "control_change"}, {"time": 1238, "annotation": {"number": 64, "value": 127}, "group": "control_change"}, {"time": 1244, "annotation": {"number": 64, "value": 71}, "group": "control_change"}, {"time": 1244, "annotation": {"number": 64, "value": 127}, "group": "control_change"}, {"time": 1255, "annotation": {"number": 64, "value": 71}, "group": "control_change"}, {"time": 1256, "annotation": {"number": 64, "value": 0}, "group": "control_change"}, {"time": 1260, "annotation": {"number": 64, "value": 71}, "group": "control_change"}, {"time": 1261, "annotation": {"number": 64, "value": 127}, "group": "control_change"}, {"time": 1268, "annotation": {"number": 64, "value": 71}, "group": "control_change"}, {"time": 1268, "annotation": {"number": 64, "value": 127}, "group": "control_change"}, {"time": 1280, "annotation": {"number": 64, "value": 71}, "group": "control_change"}, {"time": 1280, "annotation": {"number": 64, "value": 0}, "group": "control_change"}, {"time": 1286, "annotation": {"number": 64, "value": 71}, "group": "control_change"}, {"time": 1287, "annotation": {"number": 64, "value": 127}, "group": "control_change"}, {"time": 1303, "annotation": {"number": 64, "value": 71}, "group": "control_change"}, {"time": 1304, "annotation": {"number": 64, "value": 0}, "group": "control_change"}, {"time": 1307, "annotation": {"number": 64, "value": 71}, "group": "control_change"}, {"time": 1308, "annotation": {"number": 64, "value": 127}, "group": "control_change"}, {"time": 1327, "annotation": {"number": 64, "value": 71}, "group": "control_change"}, {"time": 1328, "annotation": {"number": 64, "value": 0}, "group": "control_change"}, {"time": 1333, "annotation": {"number": 64, "value": 71}, "group": "control_change"}, {"time": 1334, "annotation": {"number": 64, "value": 127}, "group": "control_change"}, {"time": 1351, "annotation": {"number": 64, "value": 71}, "group": "control_change"}, {"time": 1352, "annotation": {"number": 64, "value": 0}, "group": "control_change"}, {"time": 1355, "annotation": {"number": 64, "value": 71}, "group": "control_change"}, {"time": 1356, "annotation": {"number": 64, "value": 127}, "group": "control_change"}, {"time": 1364, "annotation": {"number": 64, "value": 71}, "group": "control_change"}, {"time": 1364, "annotation": {"number": 64, "value": 0}, "group": "control_change"}, {"time": 1368, "annotation": {"number": 64, "value": 71}, "group": "control_change"}, {"time": 1369, "annotation": {"number": 64, "value": 127}, "group": "control_change"}, {"time": 1375, "annotation": {"number": 64, "value": 0}, "group": "control_change"}, {"time": 1376, "annotation": {"number": 64, "value": 127}, "group": "control_change"}, {"time": 1398, "annotation": {"number": 64, "value": 0}, "group": "control_change"}, {"time": 1426, "annotation": {"number": 64, "value": 71}, "group": "control_change"}, {"time": 1427, "annotation": {"number": 64, "value": 127}, "group": "control_change"}, {"time": 1470, "annotation": {"number": 64, "value": 71}, "group": "control_change"}, {"time": 1471, "annotation": {"number": 64, "value": 0}, "group": "control_change"}, {"time": 1476, "annotation": {"number": 64, "value": 71}, "group": "control_change"}, {"time": 1477, "annotation": {"number": 64, "value": 127}, "group": "control_change"}, {"time": 1519, "annotation": {"number": 64, "value": 0}, "group": "control_change"}, {"time": 1522, "annotation": {"number": 64, "value": 71}, "group": "control_change"}, {"time": 1523, "annotation": {"number": 64, "value": 127}, "group": "control_change"}, {"time": 1543, "annotation": {"number": 64, "value": 71}, "group": "control_change"}, {"time": 1544, "annotation": {"number": 64, "value": 0}, "group": "control_change"}, {"time": 1547, "annotation": {"number": 64, "value": 71}, "group": "control_change"}, {"time": 1548, "annotation": {"number": 64, "value": 127}, "group": "control_change"}, {"time": 1566, "annotation": {"number": 64, "value": 71}, "group": "control_change"}, {"time": 1567, "annotation": {"number": 64, "value": 0}, "group": "control_change"}, {"time": 1572, "annotation": {"number": 64, "value": 71}, "group": "control_change"}, {"time": 1573, "annotation": {"number": 64, "value": 127}, "group": "control_change"}, {"time": 1586, "annotation": {"number": 64, "value": 71}, "group": "control_change"}, {"time": 1589, "annotation": {"number": 64, "value": 0}, "group": "control_change"}, {"time": 1593, "annotation": {"number": 64, "value": 71}, "group": "control_change"}, {"time": 1594, "annotation": {"number": 64, "value": 127}, "group": "control_change"}, {"time": 1603, "annotation": {"number": 64, "value": 71}, "group": "control_change"}, {"time": 1604, "annotation": {"number": 64, "value": 0}, "group": "control_change"}, {"time": 1606, "annotation": {"number": 64, "value": 71}, "group": "control_change"}, {"time": 1609, "annotation": {"number": 64, "value": 0}, "group": "control_change"}, {"time": 1611, "annotation": {"number": 64, "value": 71}, "group": "control_change"}, {"time": 1612, "annotation": {"number": 64, "value": 127}, "group": "control_change"}, {"time": 1615, "annotation": {"number": 64, "value": 71}, "group": "control_change"}, {"time": 1616, "annotation": {"number": 64, "value": 0}, "group": "control_change"}, {"time": 1619, "annotation": {"number": 64, "value": 71}, "group": "control_change"}, {"time": 1620, "annotation": {"number": 64, "value": 127}, "group": "control_change"}, {"time": 1639, "annotation": {"number": 64, "value": 71}, "group": "control_change"}, {"time": 1640, "annotation": {"number": 64, "value": 0}, "group": "control_change"}, {"time": 1642, "annotation": {"number": 64, "value": 71}, "group": "control_change"}, {"time": 1643, "annotation": {"number": 64, "value": 127}, "group": "control_change"}, {"time": 1663, "annotation": {"number": 64, "value": 0}, "group": "control_change"}, {"time": 1666, "annotation": {"number": 64, "value": 71}, "group": "control_change"}, {"time": 1667, "annotation": {"number": 64, "value": 127}, "group": "control_change"}, {"time": 1685, "annotation": {"number": 64, "value": 71}, "group": "control_change"}, {"time": 1685, "annotation": {"number": 64, "value": 0}, "group": "control_change"}, {"time": 1688, "annotation": {"number": 64, "value": 71}, "group": "control_change"}, {"time": 1688, "annotation": {"number": 64, "value": 127}, "group": "control_change"}, {"time": 1708, "annotation": {"number": 64, "value": 71}, "group": "control_change"}, {"time": 1709, "annotation": {"number": 64, "value": 0}, "group": "control_change"}, {"time": 1711, "annotation": {"number": 64, "value": 127}, "group": "control_change"}, {"time": 1719, "annotation": {"number": 64, "value": 0}, "group": "control_change"}, {"time": 1723, "annotation": {"number": 64, "value": 127}, "group": "control_change"}, {"time": 1725, "annotation": {"number": 64, "value": 0}, "group": "control_change"}, {"time": 1734, "annotation": {"number": 64, "value": 127}, "group": "control_change"}, {"time": 1741, "annotation": {"number": 64, "value": 0}, "group": "control_change"}, {"time": 1764, "annotation": {"number": 64, "value": 127}, "group": "control_change"}, {"time": 1766, "annotation": {"number": 64, "value": 0}, "group": "control_change"}, {"time": 1784, "annotation": {"number": 64, "value": 127}, "group": "control_change"}, {"time": 1807, "annotation": {"number": 64, "value": 0}, "group": "control_change"}, {"time": 1807, "annotation": {"number": 64, "value": 127}, "group": "control_change"}, {"time": 1829, "annotation": {"number": 64, "value": 0}, "group": "control_change"}, {"time": 1831, "annotation": {"number": 64, "value": 127}, "group": "control_change"}, {"time": 1852, "annotation": {"number": 64, "value": 0}, "group": "control_change"}, {"time": 1855, "annotation": {"number": 64, "value": 127}, "group": "control_change"}, {"time": 1876, "annotation": {"number": 64, "value": 0}, "group": "control_change"}, {"time": 1879, "annotation": {"number": 64, "value": 127}, "group": "control_change"}, {"time": 1900, "annotation": {"number": 64, "value": 0}, "group": "control_change"}, {"time": 1903, "annotation": {"number": 64, "value": 127}, "group": "control_change"}, {"time": 1925, "annotation": {"number": 64, "value": 0}, "group": "control_change"}, {"time": 1927, "annotation": {"number": 64, "value": 127}, "group": "control_change"}, {"time": 1950, "annotation": {"number": 64, "value": 0}, "group": "control_change"}, {"time": 1951, "annotation": {"number": 64, "value": 127}, "group": "control_change"}, {"time": 1972, "annotation": {"number": 64, "value": 0}, "group": "control_change"}, {"time": 1975, "annotation": {"number": 64, "value": 127}, "group": "control_change"}, {"time": 1994, "annotation": {"number": 64, "value": 0}, "group": "control_change"}, {"time": 2000, "annotation": {"number": 64, "value": 127}, "group": "control_change"}, {"time": 2045, "annotation": {"number": 64, "value": 0}, "group": "control_change"}, {"time": 2047, "annotation": {"number": 64, "value": 127}, "group": "control_change"}, {"time": 2093, "annotation": {"number": 64, "value": 0}, "group": "control_change"}, {"time": 2095, "annotation": {"number": 64, "value": 127}, "group": "control_change"}, {"time": 2117, "annotation": {"number": 64, "value": 0}, "group": "control_change"}, {"time": 2119, "annotation": {"number": 64, "value": 127}, "group": "control_change"}, {"time": 2141, "annotation": {"number": 64, "value": 0}, "group": "control_change"}, {"time": 2144, "annotation": {"number": 64, "value": 127}, "group": "control_change"}, {"time": 2152, "annotation": {"number": 64, "value": 0}, "group": "control_change"}, {"time": 2155, "annotation": {"number": 64, "value": 127}, "group": "control_change"}, {"time": 2164, "annotation": {"number": 64, "value": 0}, "group": "control_change"}, {"time": 2167, "annotation": {"number": 64, "value": 127}, "group": "control_change"}, {"time": 2176, "annotation": {"number": 64, "value": 127}, "group": "control_change"}, {"time": 2187, "annotation": {"number": 64, "value": 0}, "group": "control_change"}, {"time": 2191, "annotation": {"number": 64, "value": 127}, "group": "control_change"}, {"time": 2214, "annotation": {"number": 64, "value": 0}, "group": "control_change"}, {"time": 2216, "annotation": {"number": 64, "value": 127}, "group": "control_change"}, {"time": 2261, "annotation": {"number": 64, "value": 0}, "group": "control_change"}, {"time": 2263, "annotation": {"number": 64, "value": 127}, "group": "control_change"}, {"time": 2286, "annotation": {"number": 64, "value": 0}, "group": "control_change"}, {"time": 2288, "annotation": {"number": 64, "value": 127}, "group": "control_change"}, {"time": 2312, "annotation": {"number": 64, "value": 0}, "group": "control_change"}, {"time": 2317, "annotation": {"number": 64, "value": 127}, "group": "control_change"}, {"time": 2334, "annotation": {"number": 64, "value": 0}, "group": "control_change"}, {"time": 2336, "annotation": {"number": 64, "value": 127}, "group": "control_change"}, {"time": 2392, "annotation": {"number": 64, "value": 0}, "group": "control_change"}, {"time": 2394, "annotation": {"number": 64, "value": 127}, "group": "control_change"}, {"time": 2403, "annotation": {"number": 64, "value": 0}, "group": "control_change"}, {"time": 2407, "annotation": {"number": 64, "value": 127}, "group": "control_change"}, {"time": 2429, "annotation": {"number": 64, "value": 0}, "group": "control_change"}, {"time": 2432, "annotation": {"number": 64, "value": 127}, "group": "control_change"}, {"time": 2476, "annotation": {"number": 64, "value": 0}, "group": "control_change"}, {"time": 2502, "annotation": {"number": 64, "value": 127}, "group": "control_change"}, {"time": 2525, "annotation": {"number": 64, "value": 0}, "group": "control_change"}, {"time": 2528, "annotation": {"number": 64, "value": 127}, "group": "control_change"}, {"time": 2573, "annotation": {"number": 64, "value": 0}, "group": "control_change"}, {"time": 2575, "annotation": {"number": 64, "value": 127}, "group": "control_change"}, {"time": 2597, "annotation": {"number": 64, "value": 0}, "group": "control_change"}, {"time": 2599, "annotation": {"number": 64, "value": 127}, "group": "control_change"}, {"time": 2621, "annotation": {"number": 64, "value": 0}, "group": "control_change"}, {"time": 2623, "annotation": {"number": 64, "value": 127}, "group": "control_change"}, {"time": 2646, "annotation": {"number": 64, "value": 0}, "group": "control_change"}, {"time": 2648, "annotation": {"number": 64, "value": 127}, "group": "control_change"}, {"time": 2669, "annotation": {"number": 64, "value": 0}, "group": "control_change"}, {"time": 2672, "annotation": {"number": 64, "value": 127}, "group": "control_change"}, {"time": 2694, "annotation": {"number": 64, "value": 0}, "group": "control_change"}, {"time": 2696, "annotation": {"number": 64, "value": 127}, "group": "control_change"}, {"time": 2717, "annotation": {"number": 64, "value": 0}, "group": "control_change"}, {"time": 2719, "annotation": {"number": 64, "value": 127}, "group": "control_change"}, {"time": 2741, "annotation": {"number": 64, "value": 0}, "group": "control_change"}, {"time": 2743, "annotation": {"number": 64, "value": 127}, "group": "control_change"}, {"time": 2790, "annotation": {"number": 64, "value": 0}, "group": "control_change"}, {"time": 2792, "annotation": {"number": 64, "value": 127}, "group": "control_change"}, {"time": 2814, "annotation": {"number": 64, "value": 0}, "group": "control_change"}, {"time": 2816, "annotation": {"number": 64, "value": 127}, "group": "control_change"}, {"time": 2837, "annotation": {"number": 64, "value": 0}, "group": "control_change"}, {"time": 2839, "annotation": {"number": 64, "value": 127}, "group": "control_change"}, {"time": 2849, "annotation": {"number": 64, "value": 0}, "group": "control_change"}, {"time": 2852, "annotation": {"number": 64, "value": 127}, "group": "control_change"}, {"time": 2861, "annotation": {"number": 64, "value": 0}, "group": "control_change"}, {"time": 2861, "annotation": {"number": 64, "value": 127}, "group": "control_change"}, {"time": 2884, "annotation": {"number": 64, "value": 0}, "group": "control_change"}, {"time": 2909, "annotation": {"number": 64, "value": 0}, "group": "control_change"}, {"time": 2912, "annotation": {"number": 64, "value": 127}, "group": "control_change"}, {"time": 2957, "annotation": {"number": 64, "value": 0}, "group": "control_change"}, {"time": 2959, "annotation": {"number": 64, "value": 127}, "group": "control_change"}, {"time": 2981, "annotation": {"number": 64, "value": 0}, "group": "control_change"}, {"time": 2983, "annotation": {"number": 64, "value": 127}, "group": "control_change"}, {"time": 3005, "annotation": {"number": 64, "value": 0}, "group": "control_change"}, {"time": 3007, "annotation": {"number": 64, "value": 127}, "group": "control_change"}, {"time": 3030, "annotation": {"number": 64, "value": 0}, "group": "control_change"}, {"time": 3032, "annotation": {"number": 64, "value": 127}, "group": "control_change"}, {"time": 3053, "annotation": {"number": 64, "value": 0}, "group": "control_change"}, {"time": 3056, "annotation": {"number": 64, "value": 127}, "group": "control_change"}, {"time": 3078, "annotation": {"number": 64, "value": 0}, "group": "control_change"}, {"time": 3080, "annotation": {"number": 64, "value": 127}, "group": "control_change"}, {"time": 3101, "annotation": {"number": 64, "value": 0}, "group": "control_change"}, {"time": 3103, "annotation": {"number": 64, "value": 127}, "group": "control_change"}, {"time": 3125, "annotation": {"number": 64, "value": 0}, "group": "control_change"}, {"time": 3127, "annotation": {"number": 64, "value": 127}, "group": "control_change"}, {"time": 3174, "annotation": {"number": 64, "value": 0}, "group": "control_change"}, {"time": 3176, "annotation": {"number": 64, "value": 127}, "group": "control_change"}, {"time": 3198, "annotation": {"number": 64, "value": 0}, "group": "control_change"}, {"time": 3200, "annotation": {"number": 64, "value": 127}, "group": "control_change"}, {"time": 3221, "annotation": {"number": 64, "value": 0}, "group": "control_change"}, {"time": 3223, "annotation": {"number": 64, "value": 127}, "group": "control_change"}, {"time": 3233, "annotation": {"number": 64, "value": 0}, "group": "control_change"}, {"time": 3236, "annotation": {"number": 64, "value": 127}, "group": "control_change"}, {"time": 3245, "annotation": {"number": 64, "value": 0}, "group": "control_change"}, {"time": 3250, "annotation": {"number": 64, "value": 127}, "group": "control_change"}, {"time": 3396, "annotation": {"number": 64, "value": 0}, "group": "control_change"}, {"time": 3646, "annotation": {"number": 64, "value": 0}, "group": "control_change"}]}]}