{"metadata": {"schema_version": "0.2", "title": "None", "source_filename": "100.mid", "source_format": "midi"}, "resolution": 12, "tempos": [{"time": 0, "qpm": 61.99999586666694}], "time_signatures": [{"time": 0, "numerator": 1, "denominator": 4}], "tracks": [{"program": 0, "is_drum": false, "name": "MELODY", "notes": [{"time": 414, "pitch": 78, "duration": 4, "velocity": 127}, {"time": 420, "pitch": 78, "duration": 3, "velocity": 117}, {"time": 426, "pitch": 78, "duration": 3, "velocity": 112}, {"time": 432, "pitch": 78, "duration": 4, "velocity": 112}, {"time": 438, "pitch": 74, "duration": 5, "velocity": 100}, {"time": 444, "pitch": 71, "duration": 3, "velocity": 92}, {"time": 447, "pitch": 74, "duration": 7, "velocity": 102}, {"time": 456, "pitch": 69, "duration": 2, "velocity": 95}, {"time": 459, "pitch": 71, "duration": 2, "velocity": 86}, {"time": 462, "pitch": 73, "duration": 6, "velocity": 93}, {"time": 468, "pitch": 76, "duration": 4, "velocity": 95}, {"time": 474, "pitch": 76, "duration": 4, "velocity": 95}, {"time": 480, "pitch": 69, "duration": 6, "velocity": 89}, {"time": 486, "pitch": 71, "duration": 19, "velocity": 82}, {"time": 510, "pitch": 71, "duration": 5, "velocity": 95}, {"time": 516, "pitch": 78, "duration": 4, "velocity": 107}, {"time": 522, "pitch": 78, "duration": 4, "velocity": 117}, {"time": 528, "pitch": 78, "duration": 4, "velocity": 112}, {"time": 534, "pitch": 74, "duration": 4, "velocity": 100}, {"time": 540, "pitch": 71, "duration": 2, "velocity": 86}, {"time": 543, "pitch": 76, "duration": 9, "velocity": 93}, {"time": 552, "pitch": 76, "duration": 1, "velocity": 95}, {"time": 555, "pitch": 71, "duration": 3, "velocity": 79}, {"time": 558, "pitch": 74, "duration": 4, "velocity": 95}, {"time": 564, "pitch": 74, "duration": 5, "velocity": 100}, {"time": 570, "pitch": 76, "duration": 4, "velocity": 99}, {"time": 576, "pitch": 78, "duration": 4, "velocity": 102}, {"time": 582, "pitch": 78, "duration": 20, "velocity": 122}, {"time": 606, "pitch": 78, "duration": 4, "velocity": 122}, {"time": 612, "pitch": 76, "duration": 4, "velocity": 99}, {"time": 618, "pitch": 78, "duration": 4, "velocity": 127}, {"time": 624, "pitch": 83, "duration": 4, "velocity": 100}, {"time": 630, "pitch": 83, "duration": 4, "velocity": 102}, {"time": 636, "pitch": 78, "duration": 5, "velocity": 112}, {"time": 642, "pitch": 76, "duration": 4, "velocity": 107}, {"time": 648, "pitch": 74, "duration": 2, "velocity": 95}, {"time": 651, "pitch": 76, "duration": 1, "velocity": 93}, {"time": 654, "pitch": 78, "duration": 5, "velocity": 112}, {"time": 660, "pitch": 81, "duration": 6, "velocity": 117}, {"time": 666, "pitch": 81, "duration": 4, "velocity": 107}, {"time": 672, "pitch": 76, "duration": 6, "velocity": 95}, {"time": 678, "pitch": 78, "duration": 5, "velocity": 112}, {"time": 684, "pitch": 74, "duration": 11, "velocity": 96}, {"time": 702, "pitch": 71, "duration": 5, "velocity": 107}, {"time": 708, "pitch": 78, "duration": 4, "velocity": 102}, {"time": 714, "pitch": 78, "duration": 5, "velocity": 122}, {"time": 720, "pitch": 78, "duration": 4, "velocity": 112}, {"time": 726, "pitch": 74, "duration": 4, "velocity": 112}, {"time": 732, "pitch": 78, "duration": 5, "velocity": 107}, {"time": 738, "pitch": 73, "duration": 3, "velocity": 102}, {"time": 744, "pitch": 69, "duration": 2, "velocity": 96}, {"time": 747, "pitch": 71, "duration": 2, "velocity": 96}, {"time": 750, "pitch": 73, "duration": 4, "velocity": 99}, {"time": 756, "pitch": 76, "duration": 4, "velocity": 102}, {"time": 762, "pitch": 69, "duration": 5, "velocity": 95}, {"time": 768, "pitch": 71, "duration": 4, "velocity": 99}, {"time": 774, "pitch": 71, "duration": 22, "velocity": 97}, {"time": 798, "pitch": 83, "duration": 7, "velocity": 122}, {"time": 810, "pitch": 83, "duration": 5, "velocity": 102}, {"time": 816, "pitch": 78, "duration": 5, "velocity": 112}, {"time": 822, "pitch": 83, "duration": 4, "velocity": 112}, {"time": 825, "pitch": 86, "duration": 2, "velocity": 117}, {"time": 828, "pitch": 83, "duration": 11, "velocity": 97}, {"time": 846, "pitch": 81, "duration": 6, "velocity": 107}, {"time": 852, "pitch": 83, "duration": 6, "velocity": 112}, {"time": 858, "pitch": 85, "duration": 4, "velocity": 127}, {"time": 864, "pitch": 85, "duration": 5, "velocity": 122}, {"time": 870, "pitch": 83, "duration": 18, "velocity": 107}, {"time": 894, "pitch": 78, "duration": 5, "velocity": 122}, {"time": 900, "pitch": 83, "duration": 4, "velocity": 107}, {"time": 906, "pitch": 83, "duration": 4, "velocity": 117}, {"time": 912, "pitch": 83, "duration": 4, "velocity": 122}, {"time": 918, "pitch": 83, "duration": 3, "velocity": 112}, {"time": 924, "pitch": 78, "duration": 4, "velocity": 112}, {"time": 930, "pitch": 76, "duration": 5, "velocity": 102}, {"time": 936, "pitch": 78, "duration": 3, "velocity": 127}, {"time": 942, "pitch": 76, "duration": 5, "velocity": 112}, {"time": 948, "pitch": 71, "duration": 5, "velocity": 100}, {"time": 954, "pitch": 81, "duration": 5, "velocity": 112}, {"time": 960, "pitch": 83, "duration": 4, "velocity": 112}, {"time": 966, "pitch": 83, "duration": 3, "velocity": 127}, {"time": 969, "pitch": 81, "duration": 2, "velocity": 112}, {"time": 972, "pitch": 78, "duration": 14, "velocity": 107}, {"time": 990, "pitch": 83, "duration": 6, "velocity": 107}, {"time": 1002, "pitch": 83, "duration": 5, "velocity": 107}, {"time": 1008, "pitch": 78, "duration": 2, "velocity": 107}, {"time": 1014, "pitch": 83, "duration": 5, "velocity": 122}, {"time": 1020, "pitch": 86, "duration": 5, "velocity": 112}, {"time": 1026, "pitch": 83, "duration": 11, "velocity": 107}, {"time": 1038, "pitch": 81, "duration": 5, "velocity": 102}, {"time": 1044, "pitch": 83, "duration": 6, "velocity": 112}, {"time": 1050, "pitch": 85, "duration": 4, "velocity": 112}, {"time": 1056, "pitch": 85, "duration": 6, "velocity": 127}, {"time": 1062, "pitch": 83, "duration": 20, "velocity": 117}, {"time": 1086, "pitch": 76, "duration": 5, "velocity": 102}, {"time": 1092, "pitch": 81, "duration": 4, "velocity": 112}, {"time": 1098, "pitch": 81, "duration": 4, "velocity": 112}, {"time": 1104, "pitch": 78, "duration": 4, "velocity": 127}, {"time": 1110, "pitch": 76, "duration": 5, "velocity": 95}, {"time": 1116, "pitch": 78, "duration": 5, "velocity": 117}, {"time": 1122, "pitch": 74, "duration": 4, "velocity": 102}, {"time": 1128, "pitch": 76, "duration": 2, "velocity": 112}, {"time": 1131, "pitch": 74, "duration": 1, "velocity": 86}, {"time": 1134, "pitch": 76, "duration": 19, "velocity": 117}, {"time": 1158, "pitch": 73, "duration": 4, "velocity": 122}, {"time": 1164, "pitch": 76, "duration": 4, "velocity": 107}, {"time": 1170, "pitch": 69, "duration": 3, "velocity": 102}, {"time": 1176, "pitch": 71, "duration": 2, "velocity": 117}, {"time": 1179, "pitch": 69, "duration": 9, "velocity": 85}, {"time": 1188, "pitch": 71, "duration": 17, "velocity": 102}, {"time": 1566, "pitch": 78, "duration": 4, "velocity": 127}, {"time": 1572, "pitch": 78, "duration": 3, "velocity": 117}, {"time": 1578, "pitch": 78, "duration": 3, "velocity": 112}, {"time": 1584, "pitch": 78, "duration": 4, "velocity": 112}, {"time": 1590, "pitch": 74, "duration": 5, "velocity": 100}, {"time": 1596, "pitch": 71, "duration": 3, "velocity": 92}, {"time": 1599, "pitch": 74, "duration": 7, "velocity": 102}, {"time": 1608, "pitch": 69, "duration": 2, "velocity": 95}, {"time": 1611, "pitch": 71, "duration": 2, "velocity": 86}, {"time": 1614, "pitch": 73, "duration": 6, "velocity": 93}, {"time": 1620, "pitch": 76, "duration": 4, "velocity": 95}, {"time": 1626, "pitch": 76, "duration": 4, "velocity": 95}, {"time": 1632, "pitch": 69, "duration": 6, "velocity": 89}, {"time": 1638, "pitch": 71, "duration": 19, "velocity": 82}, {"time": 1662, "pitch": 71, "duration": 5, "velocity": 95}, {"time": 1668, "pitch": 78, "duration": 4, "velocity": 107}, {"time": 1674, "pitch": 78, "duration": 4, "velocity": 117}, {"time": 1680, "pitch": 78, "duration": 4, "velocity": 112}, {"time": 1686, "pitch": 74, "duration": 4, "velocity": 100}, {"time": 1692, "pitch": 71, "duration": 2, "velocity": 86}, {"time": 1695, "pitch": 76, "duration": 9, "velocity": 93}, {"time": 1704, "pitch": 76, "duration": 1, "velocity": 95}, {"time": 1707, "pitch": 71, "duration": 3, "velocity": 79}, {"time": 1710, "pitch": 74, "duration": 4, "velocity": 95}, {"time": 1716, "pitch": 74, "duration": 5, "velocity": 100}, {"time": 1722, "pitch": 76, "duration": 4, "velocity": 99}, {"time": 1728, "pitch": 78, "duration": 4, "velocity": 102}, {"time": 1734, "pitch": 78, "duration": 20, "velocity": 122}, {"time": 1758, "pitch": 78, "duration": 4, "velocity": 122}, {"time": 1764, "pitch": 76, "duration": 4, "velocity": 99}, {"time": 1770, "pitch": 78, "duration": 4, "velocity": 127}, {"time": 1776, "pitch": 83, "duration": 4, "velocity": 100}, {"time": 1782, "pitch": 83, "duration": 4, "velocity": 102}, {"time": 1788, "pitch": 78, "duration": 5, "velocity": 112}, {"time": 1794, "pitch": 76, "duration": 4, "velocity": 107}, {"time": 1800, "pitch": 74, "duration": 2, "velocity": 95}, {"time": 1803, "pitch": 76, "duration": 1, "velocity": 93}, {"time": 1806, "pitch": 78, "duration": 5, "velocity": 112}, {"time": 1812, "pitch": 81, "duration": 6, "velocity": 117}, {"time": 1818, "pitch": 81, "duration": 4, "velocity": 107}, {"time": 1824, "pitch": 76, "duration": 6, "velocity": 95}, {"time": 1830, "pitch": 78, "duration": 5, "velocity": 112}, {"time": 1836, "pitch": 74, "duration": 11, "velocity": 96}, {"time": 1854, "pitch": 71, "duration": 5, "velocity": 107}, {"time": 1860, "pitch": 78, "duration": 4, "velocity": 102}, {"time": 1866, "pitch": 78, "duration": 5, "velocity": 122}, {"time": 1872, "pitch": 78, "duration": 4, "velocity": 112}, {"time": 1878, "pitch": 74, "duration": 4, "velocity": 112}, {"time": 1884, "pitch": 78, "duration": 5, "velocity": 107}, {"time": 1890, "pitch": 73, "duration": 3, "velocity": 102}, {"time": 1896, "pitch": 69, "duration": 2, "velocity": 96}, {"time": 1899, "pitch": 71, "duration": 2, "velocity": 96}, {"time": 1902, "pitch": 73, "duration": 4, "velocity": 99}, {"time": 1908, "pitch": 76, "duration": 4, "velocity": 102}, {"time": 1914, "pitch": 69, "duration": 5, "velocity": 95}, {"time": 1920, "pitch": 71, "duration": 4, "velocity": 99}, {"time": 1926, "pitch": 71, "duration": 22, "velocity": 97}, {"time": 1950, "pitch": 83, "duration": 7, "velocity": 122}, {"time": 1962, "pitch": 83, "duration": 5, "velocity": 102}, {"time": 1968, "pitch": 78, "duration": 5, "velocity": 112}, {"time": 1974, "pitch": 83, "duration": 4, "velocity": 112}, {"time": 1977, "pitch": 86, "duration": 2, "velocity": 117}, {"time": 1980, "pitch": 83, "duration": 11, "velocity": 97}, {"time": 1998, "pitch": 81, "duration": 6, "velocity": 107}, {"time": 2004, "pitch": 83, "duration": 6, "velocity": 112}, {"time": 2010, "pitch": 85, "duration": 4, "velocity": 127}, {"time": 2016, "pitch": 85, "duration": 5, "velocity": 122}, {"time": 2022, "pitch": 83, "duration": 18, "velocity": 107}, {"time": 2046, "pitch": 78, "duration": 5, "velocity": 122}, {"time": 2052, "pitch": 83, "duration": 4, "velocity": 107}, {"time": 2058, "pitch": 83, "duration": 4, "velocity": 117}, {"time": 2064, "pitch": 83, "duration": 4, "velocity": 122}, {"time": 2070, "pitch": 83, "duration": 3, "velocity": 112}, {"time": 2076, "pitch": 78, "duration": 4, "velocity": 112}, {"time": 2082, "pitch": 76, "duration": 5, "velocity": 102}, {"time": 2088, "pitch": 78, "duration": 3, "velocity": 127}, {"time": 2094, "pitch": 76, "duration": 5, "velocity": 112}, {"time": 2100, "pitch": 71, "duration": 5, "velocity": 100}, {"time": 2106, "pitch": 81, "duration": 5, "velocity": 112}, {"time": 2112, "pitch": 83, "duration": 4, "velocity": 112}, {"time": 2118, "pitch": 83, "duration": 3, "velocity": 127}, {"time": 2121, "pitch": 81, "duration": 2, "velocity": 112}, {"time": 2124, "pitch": 78, "duration": 14, "velocity": 107}, {"time": 2142, "pitch": 83, "duration": 6, "velocity": 107}, {"time": 2154, "pitch": 83, "duration": 5, "velocity": 107}, {"time": 2160, "pitch": 78, "duration": 2, "velocity": 107}, {"time": 2166, "pitch": 83, "duration": 5, "velocity": 122}, {"time": 2172, "pitch": 86, "duration": 5, "velocity": 112}, {"time": 2178, "pitch": 83, "duration": 11, "velocity": 107}, {"time": 2190, "pitch": 81, "duration": 5, "velocity": 102}, {"time": 2196, "pitch": 83, "duration": 6, "velocity": 112}, {"time": 2202, "pitch": 85, "duration": 4, "velocity": 112}, {"time": 2208, "pitch": 85, "duration": 6, "velocity": 127}, {"time": 2214, "pitch": 83, "duration": 6, "velocity": 117}, {"time": 2238, "pitch": 78, "duration": 5, "velocity": 102}, {"time": 2244, "pitch": 81, "duration": 4, "velocity": 112}, {"time": 2250, "pitch": 81, "duration": 4, "velocity": 112}, {"time": 2256, "pitch": 78, "duration": 4, "velocity": 127}, {"time": 2262, "pitch": 76, "duration": 5, "velocity": 95}, {"time": 2268, "pitch": 78, "duration": 5, "velocity": 117}, {"time": 2274, "pitch": 74, "duration": 4, "velocity": 102}, {"time": 2280, "pitch": 76, "duration": 2, "velocity": 112}, {"time": 2283, "pitch": 74, "duration": 1, "velocity": 86}, {"time": 2286, "pitch": 76, "duration": 19, "velocity": 117}, {"time": 2310, "pitch": 73, "duration": 4, "velocity": 122}, {"time": 2316, "pitch": 76, "duration": 4, "velocity": 107}, {"time": 2322, "pitch": 69, "duration": 3, "velocity": 102}, {"time": 2328, "pitch": 71, "duration": 2, "velocity": 117}, {"time": 2331, "pitch": 69, "duration": 9, "velocity": 85}, {"time": 2340, "pitch": 71, "duration": 17, "velocity": 102}, {"time": 2358, "pitch": 83, "duration": 7, "velocity": 122}, {"time": 2370, "pitch": 83, "duration": 5, "velocity": 102}, {"time": 2376, "pitch": 78, "duration": 5, "velocity": 112}, {"time": 2382, "pitch": 83, "duration": 4, "velocity": 112}, {"time": 2385, "pitch": 86, "duration": 2, "velocity": 117}, {"time": 2388, "pitch": 83, "duration": 11, "velocity": 97}, {"time": 2406, "pitch": 81, "duration": 6, "velocity": 107}, {"time": 2412, "pitch": 83, "duration": 6, "velocity": 112}, {"time": 2418, "pitch": 85, "duration": 4, "velocity": 127}, {"time": 2424, "pitch": 85, "duration": 5, "velocity": 122}, {"time": 2430, "pitch": 83, "duration": 18, "velocity": 107}, {"time": 2454, "pitch": 78, "duration": 5, "velocity": 122}, {"time": 2460, "pitch": 83, "duration": 4, "velocity": 107}, {"time": 2466, "pitch": 83, "duration": 4, "velocity": 117}, {"time": 2472, "pitch": 83, "duration": 4, "velocity": 122}, {"time": 2478, "pitch": 83, "duration": 3, "velocity": 112}, {"time": 2484, "pitch": 78, "duration": 4, "velocity": 112}, {"time": 2490, "pitch": 76, "duration": 5, "velocity": 102}, {"time": 2496, "pitch": 78, "duration": 3, "velocity": 127}, {"time": 2502, "pitch": 76, "duration": 5, "velocity": 112}, {"time": 2508, "pitch": 71, "duration": 5, "velocity": 100}, {"time": 2514, "pitch": 81, "duration": 5, "velocity": 112}, {"time": 2520, "pitch": 83, "duration": 4, "velocity": 112}, {"time": 2526, "pitch": 83, "duration": 3, "velocity": 127}, {"time": 2529, "pitch": 81, "duration": 2, "velocity": 112}, {"time": 2532, "pitch": 78, "duration": 14, "velocity": 107}, {"time": 2550, "pitch": 83, "duration": 6, "velocity": 107}, {"time": 2562, "pitch": 83, "duration": 5, "velocity": 107}, {"time": 2568, "pitch": 78, "duration": 2, "velocity": 107}, {"time": 2574, "pitch": 83, "duration": 5, "velocity": 122}, {"time": 2580, "pitch": 86, "duration": 5, "velocity": 112}, {"time": 2586, "pitch": 83, "duration": 11, "velocity": 107}, {"time": 2598, "pitch": 81, "duration": 5, "velocity": 102}, {"time": 2604, "pitch": 83, "duration": 6, "velocity": 112}, {"time": 2610, "pitch": 85, "duration": 4, "velocity": 112}, {"time": 2616, "pitch": 85, "duration": 6, "velocity": 127}, {"time": 2622, "pitch": 83, "duration": 20, "velocity": 117}, {"time": 2646, "pitch": 76, "duration": 5, "velocity": 102}, {"time": 2652, "pitch": 81, "duration": 4, "velocity": 112}, {"time": 2658, "pitch": 81, "duration": 4, "velocity": 112}, {"time": 2664, "pitch": 78, "duration": 4, "velocity": 127}, {"time": 2670, "pitch": 76, "duration": 5, "velocity": 95}, {"time": 2676, "pitch": 78, "duration": 5, "velocity": 117}, {"time": 2682, "pitch": 74, "duration": 4, "velocity": 102}, {"time": 2688, "pitch": 76, "duration": 2, "velocity": 112}, {"time": 2691, "pitch": 74, "duration": 1, "velocity": 86}, {"time": 2694, "pitch": 76, "duration": 19, "velocity": 117}, {"time": 2718, "pitch": 73, "duration": 4, "velocity": 122}, {"time": 2724, "pitch": 76, "duration": 4, "velocity": 107}, {"time": 2730, "pitch": 69, "duration": 3, "velocity": 102}, {"time": 2736, "pitch": 71, "duration": 2, "velocity": 117}, {"time": 2739, "pitch": 69, "duration": 9, "velocity": 85}, {"time": 2742, "pitch": 71, "duration": 17, "velocity": 102}, {"time": 2792, "pitch": 81, "duration": 11, "velocity": 117}, {"time": 2806, "pitch": 81, "duration": 15, "velocity": 127}, {"time": 2822, "pitch": 78, "duration": 17, "velocity": 95}, {"time": 2838, "pitch": 81, "duration": 5, "velocity": 112}, {"time": 2844, "pitch": 78, "duration": 31, "velocity": 112}, {"time": 2883, "pitch": 83, "duration": 45, "velocity": 107}], "annotations": [{"time": 294, "annotation": {"number": 64, "value": 69}, "group": "control_change"}, {"time": 354, "annotation": {"number": 64, "value": 68}, "group": "control_change"}, {"time": 582, "annotation": {"number": 64, "value": 67}, "group": "control_change"}, {"time": 1386, "annotation": {"number": 64, "value": 68}, "group": "control_change"}, {"time": 1950, "annotation": {"number": 64, "value": 67}, "group": "control_change"}, {"time": 2286, "annotation": {"number": 64, "value": 66}, "group": "control_change"}, {"time": 2718, "annotation": {"number": 64, "value": 67}, "group": "control_change"}, {"time": 3138, "annotation": {"number": 64, "value": 68}, "group": "control_change"}, {"time": 3234, "annotation": {"number": 64, "value": 69}, "group": "control_change"}]}, {"program": 0, "is_drum": false, "name": "BRIDGE", "notes": [{"time": 30, "pitch": 71, "duration": 33, "velocity": 107}, {"time": 66, "pitch": 74, "duration": 12, "velocity": 112}, {"time": 78, "pitch": 73, "duration": 14, "velocity": 127}, {"time": 96, "pitch": 71, "duration": 6, "velocity": 112}, {"time": 102, "pitch": 69, "duration": 23, "velocity": 99}, {"time": 126, "pitch": 71, "duration": 35, "velocity": 122}, {"time": 162, "pitch": 74, "duration": 11, "velocity": 107}, {"time": 174, "pitch": 73, "duration": 40, "velocity": 127}, {"time": 206, "pitch": 33, "duration": 1, "velocity": 81}, {"time": 207, "pitch": 35, "duration": 1, "velocity": 59}, {"time": 208, "pitch": 38, "duration": 1, "velocity": 55}, {"time": 209, "pitch": 40, "duration": 1, "velocity": 58}, {"time": 210, "pitch": 42, "duration": 1, "velocity": 67}, {"time": 210, "pitch": 45, "duration": 1, "velocity": 81}, {"time": 211, "pitch": 47, "duration": 1, "velocity": 74}, {"time": 212, "pitch": 50, "duration": 1, "velocity": 88}, {"time": 212, "pitch": 52, "duration": 1, "velocity": 77}, {"time": 213, "pitch": 54, "duration": 1, "velocity": 81}, {"time": 213, "pitch": 57, "duration": 1, "velocity": 127}, {"time": 214, "pitch": 59, "duration": 1, "velocity": 86}, {"time": 215, "pitch": 62, "duration": 1, "velocity": 99}, {"time": 216, "pitch": 64, "duration": 1, "velocity": 89}, {"time": 216, "pitch": 66, "duration": 1, "velocity": 92}, {"time": 217, "pitch": 69, "duration": 1, "velocity": 100}, {"time": 218, "pitch": 71, "duration": 1, "velocity": 107}, {"time": 218, "pitch": 74, "duration": 1, "velocity": 112}, {"time": 219, "pitch": 76, "duration": 1, "velocity": 117}, {"time": 220, "pitch": 78, "duration": 1, "velocity": 117}, {"time": 220, "pitch": 81, "duration": 1, "velocity": 102}, {"time": 221, "pitch": 83, "duration": 1, "velocity": 117}, {"time": 221, "pitch": 86, "duration": 1, "velocity": 97}, {"time": 222, "pitch": 71, "duration": 32, "velocity": 107}, {"time": 222, "pitch": 88, "duration": 1, "velocity": 127}, {"time": 258, "pitch": 74, "duration": 6, "velocity": 117}, {"time": 264, "pitch": 78, "duration": 6, "velocity": 107}, {"time": 270, "pitch": 76, "duration": 35, "velocity": 122}, {"time": 306, "pitch": 81, "duration": 3, "velocity": 112}, {"time": 309, "pitch": 83, "duration": 6, "velocity": 102}, {"time": 315, "pitch": 81, "duration": 3, "velocity": 89}, {"time": 318, "pitch": 78, "duration": 26, "velocity": 102}, {"time": 348, "pitch": 78, "duration": 6, "velocity": 97}, {"time": 354, "pitch": 76, "duration": 5, "velocity": 112}, {"time": 360, "pitch": 74, "duration": 5, "velocity": 100}, {"time": 366, "pitch": 71, "duration": 46, "velocity": 97}, {"time": 587, "pitch": 57, "duration": 1, "velocity": 59}, {"time": 587, "pitch": 59, "duration": 1, "velocity": 41}, {"time": 588, "pitch": 62, "duration": 1, "velocity": 73}, {"time": 589, "pitch": 64, "duration": 1, "velocity": 40}, {"time": 590, "pitch": 66, "duration": 1, "velocity": 47}, {"time": 590, "pitch": 69, "duration": 1, "velocity": 75}, {"time": 591, "pitch": 71, "duration": 1, "velocity": 47}, {"time": 592, "pitch": 74, "duration": 1, "velocity": 72}, {"time": 592, "pitch": 76, "duration": 1, "velocity": 47}, {"time": 593, "pitch": 78, "duration": 1, "velocity": 55}, {"time": 594, "pitch": 81, "duration": 1, "velocity": 92}, {"time": 594, "pitch": 83, "duration": 1, "velocity": 81}, {"time": 595, "pitch": 86, "duration": 1, "velocity": 102}, {"time": 595, "pitch": 88, "duration": 1, "velocity": 89}, {"time": 596, "pitch": 93, "duration": 1, "velocity": 74}, {"time": 598, "pitch": 90, "duration": 1, "velocity": 89}, {"time": 598, "pitch": 88, "duration": 1, "velocity": 79}, {"time": 599, "pitch": 86, "duration": 1, "velocity": 72}, {"time": 600, "pitch": 83, "duration": 1, "velocity": 74}, {"time": 601, "pitch": 81, "duration": 1, "velocity": 77}, {"time": 602, "pitch": 78, "duration": 1, "velocity": 76}, {"time": 603, "pitch": 76, "duration": 1, "velocity": 70}, {"time": 605, "pitch": 71, "duration": 1, "velocity": 61}, {"time": 607, "pitch": 66, "duration": 1, "velocity": 60}, {"time": 777, "pitch": 47, "duration": 1, "velocity": 69}, {"time": 777, "pitch": 50, "duration": 1, "velocity": 56}, {"time": 778, "pitch": 52, "duration": 1, "velocity": 66}, {"time": 779, "pitch": 54, "duration": 1, "velocity": 63}, {"time": 779, "pitch": 57, "duration": 1, "velocity": 62}, {"time": 780, "pitch": 59, "duration": 1, "velocity": 69}, {"time": 780, "pitch": 62, "duration": 1, "velocity": 72}, {"time": 781, "pitch": 64, "duration": 1, "velocity": 63}, {"time": 782, "pitch": 66, "duration": 1, "velocity": 59}, {"time": 782, "pitch": 69, "duration": 1, "velocity": 81}, {"time": 783, "pitch": 71, "duration": 1, "velocity": 62}, {"time": 784, "pitch": 74, "duration": 1, "velocity": 83}, {"time": 784, "pitch": 47, "duration": 1, "velocity": 71}, {"time": 784, "pitch": 76, "duration": 1, "velocity": 52}, {"time": 785, "pitch": 50, "duration": 1, "velocity": 67}, {"time": 785, "pitch": 78, "duration": 1, "velocity": 60}, {"time": 785, "pitch": 52, "duration": 1, "velocity": 78}, {"time": 786, "pitch": 81, "duration": 1, "velocity": 85}, {"time": 786, "pitch": 54, "duration": 1, "velocity": 75}, {"time": 787, "pitch": 83, "duration": 1, "velocity": 72}, {"time": 787, "pitch": 57, "duration": 1, "velocity": 88}, {"time": 787, "pitch": 86, "duration": 1, "velocity": 97}, {"time": 787, "pitch": 59, "duration": 1, "velocity": 96}, {"time": 788, "pitch": 88, "duration": 1, "velocity": 92}, {"time": 788, "pitch": 62, "duration": 1, "velocity": 97}, {"time": 789, "pitch": 90, "duration": 1, "velocity": 89}, {"time": 789, "pitch": 64, "duration": 1, "velocity": 97}, {"time": 789, "pitch": 93, "duration": 1, "velocity": 83}, {"time": 789, "pitch": 66, "duration": 1, "velocity": 99}, {"time": 790, "pitch": 69, "duration": 1, "velocity": 77}, {"time": 790, "pitch": 71, "duration": 1, "velocity": 100}, {"time": 791, "pitch": 74, "duration": 1, "velocity": 102}, {"time": 791, "pitch": 76, "duration": 1, "velocity": 112}, {"time": 792, "pitch": 78, "duration": 1, "velocity": 100}, {"time": 793, "pitch": 81, "duration": 1, "velocity": 97}, {"time": 793, "pitch": 83, "duration": 1, "velocity": 122}, {"time": 794, "pitch": 86, "duration": 1, "velocity": 97}, {"time": 794, "pitch": 88, "duration": 1, "velocity": 102}, {"time": 795, "pitch": 90, "duration": 1, "velocity": 99}, {"time": 796, "pitch": 93, "duration": 1, "velocity": 107}, {"time": 796, "pitch": 95, "duration": 1, "velocity": 127}, {"time": 972, "pitch": 74, "duration": 5, "velocity": 122}, {"time": 977, "pitch": 73, "duration": 6, "velocity": 112}, {"time": 983, "pitch": 69, "duration": 6, "velocity": 96}, {"time": 990, "pitch": 71, "duration": 21, "velocity": 97}, {"time": 1067, "pitch": 83, "duration": 5, "velocity": 112}, {"time": 1073, "pitch": 81, "duration": 4, "velocity": 117}, {"time": 1076, "pitch": 83, "duration": 3, "velocity": 86}, {"time": 1079, "pitch": 81, "duration": 6, "velocity": 95}, {"time": 1085, "pitch": 78, "duration": 29, "velocity": 112}, {"time": 1182, "pitch": 71, "duration": 33, "velocity": 107}, {"time": 1218, "pitch": 74, "duration": 12, "velocity": 112}, {"time": 1230, "pitch": 73, "duration": 14, "velocity": 127}, {"time": 1248, "pitch": 71, "duration": 6, "velocity": 112}, {"time": 1254, "pitch": 69, "duration": 23, "velocity": 99}, {"time": 1278, "pitch": 71, "duration": 35, "velocity": 122}, {"time": 1314, "pitch": 74, "duration": 11, "velocity": 107}, {"time": 1326, "pitch": 73, "duration": 40, "velocity": 127}, {"time": 1358, "pitch": 33, "duration": 1, "velocity": 81}, {"time": 1359, "pitch": 35, "duration": 1, "velocity": 59}, {"time": 1360, "pitch": 38, "duration": 1, "velocity": 55}, {"time": 1361, "pitch": 40, "duration": 1, "velocity": 58}, {"time": 1362, "pitch": 42, "duration": 1, "velocity": 67}, {"time": 1362, "pitch": 45, "duration": 1, "velocity": 81}, {"time": 1363, "pitch": 47, "duration": 1, "velocity": 74}, {"time": 1364, "pitch": 50, "duration": 1, "velocity": 88}, {"time": 1364, "pitch": 52, "duration": 1, "velocity": 77}, {"time": 1365, "pitch": 54, "duration": 1, "velocity": 81}, {"time": 1365, "pitch": 57, "duration": 1, "velocity": 127}, {"time": 1366, "pitch": 59, "duration": 1, "velocity": 86}, {"time": 1367, "pitch": 62, "duration": 1, "velocity": 99}, {"time": 1368, "pitch": 64, "duration": 1, "velocity": 89}, {"time": 1368, "pitch": 66, "duration": 1, "velocity": 92}, {"time": 1369, "pitch": 69, "duration": 1, "velocity": 100}, {"time": 1370, "pitch": 71, "duration": 1, "velocity": 107}, {"time": 1370, "pitch": 74, "duration": 1, "velocity": 112}, {"time": 1371, "pitch": 76, "duration": 1, "velocity": 117}, {"time": 1372, "pitch": 78, "duration": 1, "velocity": 117}, {"time": 1372, "pitch": 81, "duration": 1, "velocity": 102}, {"time": 1373, "pitch": 83, "duration": 1, "velocity": 117}, {"time": 1373, "pitch": 86, "duration": 1, "velocity": 97}, {"time": 1374, "pitch": 71, "duration": 32, "velocity": 107}, {"time": 1374, "pitch": 88, "duration": 1, "velocity": 127}, {"time": 1410, "pitch": 74, "duration": 6, "velocity": 117}, {"time": 1416, "pitch": 78, "duration": 6, "velocity": 107}, {"time": 1422, "pitch": 76, "duration": 35, "velocity": 122}, {"time": 1458, "pitch": 81, "duration": 3, "velocity": 112}, {"time": 1461, "pitch": 83, "duration": 6, "velocity": 102}, {"time": 1467, "pitch": 81, "duration": 3, "velocity": 89}, {"time": 1470, "pitch": 78, "duration": 26, "velocity": 102}, {"time": 1500, "pitch": 78, "duration": 6, "velocity": 97}, {"time": 1506, "pitch": 76, "duration": 5, "velocity": 112}, {"time": 1512, "pitch": 74, "duration": 5, "velocity": 100}, {"time": 1518, "pitch": 71, "duration": 46, "velocity": 97}, {"time": 1739, "pitch": 57, "duration": 1, "velocity": 59}, {"time": 1739, "pitch": 59, "duration": 1, "velocity": 41}, {"time": 1740, "pitch": 62, "duration": 1, "velocity": 73}, {"time": 1741, "pitch": 64, "duration": 1, "velocity": 40}, {"time": 1742, "pitch": 66, "duration": 1, "velocity": 47}, {"time": 1742, "pitch": 69, "duration": 1, "velocity": 75}, {"time": 1743, "pitch": 71, "duration": 1, "velocity": 47}, {"time": 1744, "pitch": 74, "duration": 1, "velocity": 72}, {"time": 1744, "pitch": 76, "duration": 1, "velocity": 47}, {"time": 1745, "pitch": 78, "duration": 1, "velocity": 55}, {"time": 1746, "pitch": 81, "duration": 1, "velocity": 92}, {"time": 1746, "pitch": 83, "duration": 1, "velocity": 81}, {"time": 1747, "pitch": 86, "duration": 1, "velocity": 102}, {"time": 1747, "pitch": 88, "duration": 1, "velocity": 89}, {"time": 1748, "pitch": 93, "duration": 1, "velocity": 74}, {"time": 1750, "pitch": 90, "duration": 1, "velocity": 89}, {"time": 1750, "pitch": 88, "duration": 1, "velocity": 79}, {"time": 1751, "pitch": 86, "duration": 1, "velocity": 72}, {"time": 1752, "pitch": 83, "duration": 1, "velocity": 74}, {"time": 1753, "pitch": 81, "duration": 1, "velocity": 77}, {"time": 1754, "pitch": 78, "duration": 1, "velocity": 76}, {"time": 1755, "pitch": 76, "duration": 1, "velocity": 70}, {"time": 1757, "pitch": 71, "duration": 1, "velocity": 61}, {"time": 1759, "pitch": 66, "duration": 1, "velocity": 60}, {"time": 1929, "pitch": 47, "duration": 1, "velocity": 69}, {"time": 1929, "pitch": 50, "duration": 1, "velocity": 56}, {"time": 1930, "pitch": 52, "duration": 1, "velocity": 66}, {"time": 1931, "pitch": 54, "duration": 1, "velocity": 63}, {"time": 1931, "pitch": 57, "duration": 1, "velocity": 62}, {"time": 1932, "pitch": 59, "duration": 1, "velocity": 69}, {"time": 1932, "pitch": 62, "duration": 1, "velocity": 72}, {"time": 1933, "pitch": 64, "duration": 1, "velocity": 63}, {"time": 1934, "pitch": 66, "duration": 1, "velocity": 59}, {"time": 1934, "pitch": 69, "duration": 1, "velocity": 81}, {"time": 1935, "pitch": 71, "duration": 1, "velocity": 62}, {"time": 1936, "pitch": 74, "duration": 1, "velocity": 83}, {"time": 1936, "pitch": 47, "duration": 1, "velocity": 71}, {"time": 1936, "pitch": 76, "duration": 1, "velocity": 52}, {"time": 1937, "pitch": 50, "duration": 1, "velocity": 67}, {"time": 1937, "pitch": 78, "duration": 1, "velocity": 60}, {"time": 1937, "pitch": 52, "duration": 1, "velocity": 78}, {"time": 1938, "pitch": 81, "duration": 1, "velocity": 85}, {"time": 1938, "pitch": 54, "duration": 1, "velocity": 75}, {"time": 1939, "pitch": 83, "duration": 1, "velocity": 72}, {"time": 1939, "pitch": 57, "duration": 1, "velocity": 88}, {"time": 1939, "pitch": 86, "duration": 1, "velocity": 97}, {"time": 1939, "pitch": 59, "duration": 1, "velocity": 96}, {"time": 1940, "pitch": 88, "duration": 1, "velocity": 92}, {"time": 1940, "pitch": 62, "duration": 1, "velocity": 97}, {"time": 1941, "pitch": 90, "duration": 1, "velocity": 89}, {"time": 1941, "pitch": 64, "duration": 1, "velocity": 97}, {"time": 1941, "pitch": 93, "duration": 1, "velocity": 83}, {"time": 1941, "pitch": 66, "duration": 1, "velocity": 99}, {"time": 1942, "pitch": 69, "duration": 1, "velocity": 77}, {"time": 1942, "pitch": 71, "duration": 1, "velocity": 100}, {"time": 1943, "pitch": 74, "duration": 1, "velocity": 102}, {"time": 1943, "pitch": 76, "duration": 1, "velocity": 112}, {"time": 1944, "pitch": 78, "duration": 1, "velocity": 100}, {"time": 1945, "pitch": 81, "duration": 1, "velocity": 97}, {"time": 1945, "pitch": 83, "duration": 1, "velocity": 122}, {"time": 1946, "pitch": 86, "duration": 1, "velocity": 97}, {"time": 1946, "pitch": 88, "duration": 1, "velocity": 102}, {"time": 1947, "pitch": 90, "duration": 1, "velocity": 99}, {"time": 1948, "pitch": 93, "duration": 1, "velocity": 107}, {"time": 1948, "pitch": 95, "duration": 1, "velocity": 127}, {"time": 2124, "pitch": 74, "duration": 5, "velocity": 122}, {"time": 2129, "pitch": 73, "duration": 6, "velocity": 112}, {"time": 2135, "pitch": 69, "duration": 6, "velocity": 96}, {"time": 2141, "pitch": 71, "duration": 22, "velocity": 97}, {"time": 2220, "pitch": 83, "duration": 4, "velocity": 112}, {"time": 2226, "pitch": 81, "duration": 3, "velocity": 117}, {"time": 2228, "pitch": 83, "duration": 3, "velocity": 86}, {"time": 2231, "pitch": 81, "duration": 6, "velocity": 95}, {"time": 2237, "pitch": 78, "duration": 6, "velocity": 112}, {"time": 2337, "pitch": 47, "duration": 1, "velocity": 69}, {"time": 2337, "pitch": 35, "duration": 1, "velocity": 69}, {"time": 2337, "pitch": 50, "duration": 1, "velocity": 56}, {"time": 2338, "pitch": 52, "duration": 1, "velocity": 66}, {"time": 2339, "pitch": 54, "duration": 1, "velocity": 63}, {"time": 2339, "pitch": 57, "duration": 1, "velocity": 62}, {"time": 2340, "pitch": 59, "duration": 1, "velocity": 69}, {"time": 2340, "pitch": 62, "duration": 1, "velocity": 72}, {"time": 2341, "pitch": 64, "duration": 1, "velocity": 63}, {"time": 2342, "pitch": 66, "duration": 1, "velocity": 59}, {"time": 2342, "pitch": 69, "duration": 1, "velocity": 81}, {"time": 2343, "pitch": 71, "duration": 1, "velocity": 62}, {"time": 2344, "pitch": 74, "duration": 1, "velocity": 83}, {"time": 2344, "pitch": 47, "duration": 1, "velocity": 71}, {"time": 2344, "pitch": 35, "duration": 1, "velocity": 71}, {"time": 2344, "pitch": 76, "duration": 1, "velocity": 52}, {"time": 2345, "pitch": 50, "duration": 1, "velocity": 67}, {"time": 2345, "pitch": 78, "duration": 1, "velocity": 60}, {"time": 2345, "pitch": 52, "duration": 1, "velocity": 78}, {"time": 2346, "pitch": 81, "duration": 1, "velocity": 85}, {"time": 2346, "pitch": 54, "duration": 1, "velocity": 75}, {"time": 2347, "pitch": 83, "duration": 1, "velocity": 72}, {"time": 2347, "pitch": 57, "duration": 1, "velocity": 88}, {"time": 2347, "pitch": 86, "duration": 1, "velocity": 97}, {"time": 2347, "pitch": 59, "duration": 1, "velocity": 96}, {"time": 2348, "pitch": 88, "duration": 1, "velocity": 92}, {"time": 2348, "pitch": 62, "duration": 1, "velocity": 97}, {"time": 2349, "pitch": 90, "duration": 1, "velocity": 89}, {"time": 2349, "pitch": 64, "duration": 1, "velocity": 97}, {"time": 2349, "pitch": 93, "duration": 1, "velocity": 83}, {"time": 2349, "pitch": 66, "duration": 1, "velocity": 99}, {"time": 2350, "pitch": 69, "duration": 1, "velocity": 77}, {"time": 2350, "pitch": 71, "duration": 1, "velocity": 100}, {"time": 2351, "pitch": 74, "duration": 1, "velocity": 102}, {"time": 2351, "pitch": 76, "duration": 1, "velocity": 112}, {"time": 2352, "pitch": 78, "duration": 1, "velocity": 100}, {"time": 2353, "pitch": 81, "duration": 1, "velocity": 97}, {"time": 2353, "pitch": 83, "duration": 1, "velocity": 122}, {"time": 2354, "pitch": 86, "duration": 1, "velocity": 97}, {"time": 2354, "pitch": 88, "duration": 1, "velocity": 102}, {"time": 2355, "pitch": 90, "duration": 1, "velocity": 99}, {"time": 2356, "pitch": 93, "duration": 1, "velocity": 107}, {"time": 2356, "pitch": 95, "duration": 1, "velocity": 127}, {"time": 2532, "pitch": 74, "duration": 5, "velocity": 122}, {"time": 2537, "pitch": 73, "duration": 6, "velocity": 112}, {"time": 2543, "pitch": 69, "duration": 6, "velocity": 96}, {"time": 2549, "pitch": 71, "duration": 22, "velocity": 97}, {"time": 2627, "pitch": 83, "duration": 5, "velocity": 112}, {"time": 2633, "pitch": 81, "duration": 4, "velocity": 117}, {"time": 2636, "pitch": 83, "duration": 3, "velocity": 86}, {"time": 2639, "pitch": 81, "duration": 6, "velocity": 95}, {"time": 2645, "pitch": 78, "duration": 29, "velocity": 112}, {"time": 2922, "pitch": 78, "duration": 25, "velocity": 107}, {"time": 2922, "pitch": 90, "duration": 22, "velocity": 99}, {"time": 2952, "pitch": 81, "duration": 3, "velocity": 127}, {"time": 2955, "pitch": 83, "duration": 2, "velocity": 102}, {"time": 2958, "pitch": 81, "duration": 5, "velocity": 122}, {"time": 2964, "pitch": 78, "duration": 6, "velocity": 127}, {"time": 2970, "pitch": 76, "duration": 35, "velocity": 107}, {"time": 3000, "pitch": 76, "duration": 5, "velocity": 95}, {"time": 3006, "pitch": 74, "duration": 6, "velocity": 95}, {"time": 3012, "pitch": 81, "duration": 6, "velocity": 107}, {"time": 3018, "pitch": 79, "duration": 35, "velocity": 122}, {"time": 3048, "pitch": 83, "duration": 5, "velocity": 107}, {"time": 3054, "pitch": 81, "duration": 8, "velocity": 102}, {"time": 3063, "pitch": 76, "duration": 3, "velocity": 90}, {"time": 3066, "pitch": 78, "duration": 48, "velocity": 112}, {"time": 3208, "pitch": 54, "duration": 1, "velocity": 27}, {"time": 3209, "pitch": 57, "duration": 1, "velocity": 79}, {"time": 3210, "pitch": 59, "duration": 1, "velocity": 38}, {"time": 3211, "pitch": 62, "duration": 1, "velocity": 71}, {"time": 3212, "pitch": 64, "duration": 1, "velocity": 44}, {"time": 3212, "pitch": 66, "duration": 1, "velocity": 65}, {"time": 3213, "pitch": 69, "duration": 1, "velocity": 88}, {"time": 3214, "pitch": 71, "duration": 1, "velocity": 70}, {"time": 3214, "pitch": 74, "duration": 1, "velocity": 96}, {"time": 3215, "pitch": 76, "duration": 1, "velocity": 81}, {"time": 3215, "pitch": 78, "duration": 1, "velocity": 83}, {"time": 3216, "pitch": 81, "duration": 1, "velocity": 127}, {"time": 3216, "pitch": 83, "duration": 1, "velocity": 96}, {"time": 3217, "pitch": 86, "duration": 1, "velocity": 127}, {"time": 3217, "pitch": 88, "duration": 1, "velocity": 100}, {"time": 3218, "pitch": 90, "duration": 1, "velocity": 99}, {"time": 3218, "pitch": 93, "duration": 1, "velocity": 99}, {"time": 3219, "pitch": 90, "duration": 1, "velocity": 127}, {"time": 3219, "pitch": 88, "duration": 1, "velocity": 85}, {"time": 3220, "pitch": 88, "duration": 1, "velocity": 68}, {"time": 3220, "pitch": 86, "duration": 1, "velocity": 79}, {"time": 3220, "pitch": 83, "duration": 1, "velocity": 96}, {"time": 3221, "pitch": 81, "duration": 1, "velocity": 95}, {"time": 3221, "pitch": 78, "duration": 1, "velocity": 95}, {"time": 3222, "pitch": 76, "duration": 1, "velocity": 83}, {"time": 3222, "pitch": 74, "duration": 1, "velocity": 82}, {"time": 3223, "pitch": 71, "duration": 1, "velocity": 97}, {"time": 3223, "pitch": 69, "duration": 1, "velocity": 92}, {"time": 3224, "pitch": 66, "duration": 1, "velocity": 86}, {"time": 3224, "pitch": 64, "duration": 1, "velocity": 78}, {"time": 3225, "pitch": 62, "duration": 1, "velocity": 76}, {"time": 3225, "pitch": 59, "duration": 1, "velocity": 83}, {"time": 3226, "pitch": 57, "duration": 1, "velocity": 99}, {"time": 3226, "pitch": 54, "duration": 2, "velocity": 82}, {"time": 3227, "pitch": 52, "duration": 1, "velocity": 35}, {"time": 3228, "pitch": 57, "duration": 1, "velocity": 28}, {"time": 3228, "pitch": 59, "duration": 1, "velocity": 26}, {"time": 3229, "pitch": 62, "duration": 1, "velocity": 90}, {"time": 3229, "pitch": 64, "duration": 1, "velocity": 59}, {"time": 3230, "pitch": 66, "duration": 1, "velocity": 70}, {"time": 3230, "pitch": 69, "duration": 1, "velocity": 79}, {"time": 3231, "pitch": 71, "duration": 1, "velocity": 70}, {"time": 3231, "pitch": 74, "duration": 1, "velocity": 96}, {"time": 3232, "pitch": 76, "duration": 1, "velocity": 78}, {"time": 3232, "pitch": 78, "duration": 1, "velocity": 81}, {"time": 3233, "pitch": 81, "duration": 1, "velocity": 100}, {"time": 3233, "pitch": 83, "duration": 1, "velocity": 96}, {"time": 3234, "pitch": 86, "duration": 1, "velocity": 117}, {"time": 3234, "pitch": 88, "duration": 1, "velocity": 96}, {"time": 3235, "pitch": 90, "duration": 1, "velocity": 96}, {"time": 3235, "pitch": 93, "duration": 1, "velocity": 117}, {"time": 3236, "pitch": 90, "duration": 1, "velocity": 82}, {"time": 3236, "pitch": 88, "duration": 1, "velocity": 69}, {"time": 3237, "pitch": 86, "duration": 1, "velocity": 67}, {"time": 3238, "pitch": 83, "duration": 1, "velocity": 40}, {"time": 3238, "pitch": 81, "duration": 1, "velocity": 50}, {"time": 3241, "pitch": 74, "duration": 1, "velocity": 42}, {"time": 3241, "pitch": 71, "duration": 1, "velocity": 62}, {"time": 3242, "pitch": 69, "duration": 1, "velocity": 73}, {"time": 3244, "pitch": 62, "duration": 1, "velocity": 72}, {"time": 3245, "pitch": 59, "duration": 1, "velocity": 72}, {"time": 3246, "pitch": 57, "duration": 1, "velocity": 25}, {"time": 3246, "pitch": 54, "duration": 1, "velocity": 31}, {"time": 3247, "pitch": 52, "duration": 1, "velocity": 63}, {"time": 3248, "pitch": 50, "duration": 1, "velocity": 76}, {"time": 3248, "pitch": 52, "duration": 1, "velocity": 31}, {"time": 3248, "pitch": 54, "duration": 1, "velocity": 31}, {"time": 3250, "pitch": 57, "duration": 1, "velocity": 65}, {"time": 3250, "pitch": 59, "duration": 1, "velocity": 51}, {"time": 3251, "pitch": 62, "duration": 1, "velocity": 69}, {"time": 3252, "pitch": 64, "duration": 1, "velocity": 48}, {"time": 3252, "pitch": 66, "duration": 1, "velocity": 56}, {"time": 3253, "pitch": 69, "duration": 1, "velocity": 76}, {"time": 3254, "pitch": 71, "duration": 1, "velocity": 63}, {"time": 3254, "pitch": 74, "duration": 1, "velocity": 81}, {"time": 3255, "pitch": 76, "duration": 1, "velocity": 54}, {"time": 3256, "pitch": 78, "duration": 1, "velocity": 58}, {"time": 3257, "pitch": 81, "duration": 1, "velocity": 82}, {"time": 3258, "pitch": 83, "duration": 1, "velocity": 58}, {"time": 3258, "pitch": 86, "duration": 1, "velocity": 90}, {"time": 3259, "pitch": 88, "duration": 1, "velocity": 63}, {"time": 3260, "pitch": 90, "duration": 1, "velocity": 45}, {"time": 3261, "pitch": 93, "duration": 1, "velocity": 67}, {"time": 3262, "pitch": 95, "duration": 1, "velocity": 47}, {"time": 3263, "pitch": 98, "duration": 1, "velocity": 46}], "annotations": [{"time": 54, "annotation": {"number": 64, "value": 66}, "group": "control_change"}, {"time": 282, "annotation": {"number": 64, "value": 67}, "group": "control_change"}, {"time": 906, "annotation": {"number": 64, "value": 68}, "group": "control_change"}, {"time": 1878, "annotation": {"number": 64, "value": 67}, "group": "control_change"}, {"time": 2226, "annotation": {"number": 64, "value": 68}, "group": "control_change"}, {"time": 2994, "annotation": {"number": 64, "value": 69}, "group": "control_change"}]}, {"program": 0, "is_drum": false, "name": "PIANO", "notes": [{"time": 6, "pitch": 47, "duration": 23, "velocity": 69}, {"time": 6, "pitch": 59, "duration": 23, "velocity": 68}, {"time": 6, "pitch": 66, "duration": 24, "velocity": 78}, {"time": 30, "pitch": 47, "duration": 37, "velocity": 93}, {"time": 36, "pitch": 54, "duration": 30, "velocity": 40}, {"time": 36, "pitch": 71, "duration": 3, "velocity": 86}, {"time": 39, "pitch": 78, "duration": 9, "velocity": 102}, {"time": 42, "pitch": 62, "duration": 26, "velocity": 81}, {"time": 42, "pitch": 66, "duration": 18, "velocity": 79}, {"time": 48, "pitch": 74, "duration": 5, "velocity": 88}, {"time": 54, "pitch": 71, "duration": 11, "velocity": 77}, {"time": 57, "pitch": 66, "duration": 3, "velocity": 83}, {"time": 60, "pitch": 71, "duration": 5, "velocity": 65}, {"time": 63, "pitch": 83, "duration": 6, "velocity": 79}, {"time": 72, "pitch": 78, "duration": 4, "velocity": 93}, {"time": 78, "pitch": 45, "duration": 37, "velocity": 65}, {"time": 78, "pitch": 52, "duration": 4, "velocity": 79}, {"time": 78, "pitch": 57, "duration": 27, "velocity": 86}, {"time": 78, "pitch": 61, "duration": 30, "velocity": 82}, {"time": 81, "pitch": 64, "duration": 3, "velocity": 83}, {"time": 84, "pitch": 76, "duration": 3, "velocity": 81}, {"time": 87, "pitch": 81, "duration": 5, "velocity": 69}, {"time": 102, "pitch": 57, "duration": 3, "velocity": 78}, {"time": 105, "pitch": 61, "duration": 3, "velocity": 83}, {"time": 108, "pitch": 64, "duration": 3, "velocity": 71}, {"time": 111, "pitch": 69, "duration": 13, "velocity": 85}, {"time": 114, "pitch": 57, "duration": 1, "velocity": 79}, {"time": 114, "pitch": 61, "duration": 1, "velocity": 79}, {"time": 126, "pitch": 43, "duration": 36, "velocity": 70}, {"time": 126, "pitch": 50, "duration": 34, "velocity": 83}, {"time": 126, "pitch": 55, "duration": 10, "velocity": 79}, {"time": 126, "pitch": 59, "duration": 10, "velocity": 78}, {"time": 129, "pitch": 67, "duration": 3, "velocity": 68}, {"time": 132, "pitch": 71, "duration": 3, "velocity": 72}, {"time": 135, "pitch": 79, "duration": 14, "velocity": 88}, {"time": 138, "pitch": 55, "duration": 22, "velocity": 53}, {"time": 138, "pitch": 59, "duration": 22, "velocity": 66}, {"time": 144, "pitch": 74, "duration": 6, "velocity": 83}, {"time": 150, "pitch": 67, "duration": 3, "velocity": 88}, {"time": 153, "pitch": 74, "duration": 3, "velocity": 67}, {"time": 156, "pitch": 79, "duration": 4, "velocity": 86}, {"time": 159, "pitch": 83, "duration": 7, "velocity": 93}, {"time": 162, "pitch": 55, "duration": 1, "velocity": 78}, {"time": 162, "pitch": 59, "duration": 1, "velocity": 76}, {"time": 168, "pitch": 79, "duration": 6, "velocity": 97}, {"time": 174, "pitch": 42, "duration": 37, "velocity": 88}, {"time": 174, "pitch": 54, "duration": 23, "velocity": 96}, {"time": 174, "pitch": 58, "duration": 33, "velocity": 97}, {"time": 177, "pitch": 73, "duration": 3, "velocity": 86}, {"time": 180, "pitch": 78, "duration": 3, "velocity": 45}, {"time": 183, "pitch": 85, "duration": 16, "velocity": 86}, {"time": 186, "pitch": 61, "duration": 11, "velocity": 61}, {"time": 192, "pitch": 82, "duration": 21, "velocity": 112}, {"time": 198, "pitch": 54, "duration": 9, "velocity": 48}, {"time": 198, "pitch": 61, "duration": 9, "velocity": 60}, {"time": 210, "pitch": 54, "duration": 4, "velocity": 127}, {"time": 210, "pitch": 58, "duration": 4, "velocity": 122}, {"time": 210, "pitch": 61, "duration": 4, "velocity": 102}, {"time": 213, "pitch": 42, "duration": 1, "velocity": 112}, {"time": 216, "pitch": 54, "duration": 1, "velocity": 107}, {"time": 216, "pitch": 58, "duration": 1, "velocity": 66}, {"time": 222, "pitch": 35, "duration": 42, "velocity": 96}, {"time": 222, "pitch": 47, "duration": 3, "velocity": 112}, {"time": 222, "pitch": 50, "duration": 4, "velocity": 107}, {"time": 222, "pitch": 54, "duration": 5, "velocity": 102}, {"time": 225, "pitch": 66, "duration": 4, "velocity": 62}, {"time": 228, "pitch": 47, "duration": 8, "velocity": 53}, {"time": 228, "pitch": 71, "duration": 3, "velocity": 63}, {"time": 231, "pitch": 78, "duration": 10, "velocity": 99}, {"time": 234, "pitch": 59, "duration": 6, "velocity": 92}, {"time": 234, "pitch": 62, "duration": 5, "velocity": 112}, {"time": 234, "pitch": 66, "duration": 5, "velocity": 112}, {"time": 237, "pitch": 66, "duration": 2, "velocity": 50}, {"time": 240, "pitch": 47, "duration": 8, "velocity": 58}, {"time": 240, "pitch": 71, "duration": 3, "velocity": 63}, {"time": 243, "pitch": 78, "duration": 8, "velocity": 85}, {"time": 246, "pitch": 50, "duration": 8, "velocity": 88}, {"time": 246, "pitch": 54, "duration": 4, "velocity": 100}, {"time": 249, "pitch": 66, "duration": 4, "velocity": 47}, {"time": 252, "pitch": 47, "duration": 15, "velocity": 78}, {"time": 252, "pitch": 71, "duration": 3, "velocity": 63}, {"time": 255, "pitch": 78, "duration": 9, "velocity": 95}, {"time": 258, "pitch": 54, "duration": 6, "velocity": 100}, {"time": 258, "pitch": 59, "duration": 6, "velocity": 95}, {"time": 264, "pitch": 50, "duration": 1, "velocity": 56}, {"time": 264, "pitch": 71, "duration": 4, "velocity": 64}, {"time": 270, "pitch": 45, "duration": 16, "velocity": 71}, {"time": 270, "pitch": 52, "duration": 10, "velocity": 93}, {"time": 270, "pitch": 57, "duration": 10, "velocity": 93}, {"time": 270, "pitch": 61, "duration": 9, "velocity": 95}, {"time": 270, "pitch": 76, "duration": 4, "velocity": 93}, {"time": 273, "pitch": 69, "duration": 6, "velocity": 41}, {"time": 276, "pitch": 73, "duration": 2, "velocity": 55}, {"time": 279, "pitch": 81, "duration": 6, "velocity": 90}, {"time": 282, "pitch": 52, "duration": 8, "velocity": 92}, {"time": 282, "pitch": 57, "duration": 8, "velocity": 99}, {"time": 282, "pitch": 61, "duration": 7, "velocity": 100}, {"time": 285, "pitch": 69, "duration": 5, "velocity": 63}, {"time": 288, "pitch": 45, "duration": 9, "velocity": 59}, {"time": 291, "pitch": 76, "duration": 7, "velocity": 82}, {"time": 294, "pitch": 52, "duration": 6, "velocity": 88}, {"time": 294, "pitch": 57, "duration": 10, "velocity": 89}, {"time": 294, "pitch": 61, "duration": 9, "velocity": 90}, {"time": 297, "pitch": 69, "duration": 7, "velocity": 39}, {"time": 300, "pitch": 45, "duration": 8, "velocity": 42}, {"time": 300, "pitch": 73, "duration": 4, "velocity": 52}, {"time": 303, "pitch": 81, "duration": 10, "velocity": 72}, {"time": 306, "pitch": 57, "duration": 5, "velocity": 117}, {"time": 306, "pitch": 61, "duration": 7, "velocity": 117}, {"time": 312, "pitch": 45, "duration": 2, "velocity": 66}, {"time": 312, "pitch": 69, "duration": 6, "velocity": 78}, {"time": 318, "pitch": 42, "duration": 40, "velocity": 88}, {"time": 318, "pitch": 54, "duration": 9, "velocity": 95}, {"time": 318, "pitch": 57, "duration": 9, "velocity": 107}, {"time": 318, "pitch": 61, "duration": 9, "velocity": 112}, {"time": 318, "pitch": 66, "duration": 3, "velocity": 32}, {"time": 321, "pitch": 69, "duration": 5, "velocity": 74}, {"time": 324, "pitch": 73, "duration": 2, "velocity": 82}, {"time": 327, "pitch": 78, "duration": 7, "velocity": 99}, {"time": 330, "pitch": 54, "duration": 1, "velocity": 82}, {"time": 330, "pitch": 57, "duration": 4, "velocity": 99}, {"time": 330, "pitch": 61, "duration": 5, "velocity": 100}, {"time": 333, "pitch": 69, "duration": 8, "velocity": 50}, {"time": 336, "pitch": 54, "duration": 8, "velocity": 78}, {"time": 336, "pitch": 73, "duration": 8, "velocity": 76}, {"time": 342, "pitch": 61, "duration": 7, "velocity": 95}, {"time": 342, "pitch": 66, "duration": 7, "velocity": 97}, {"time": 345, "pitch": 69, "duration": 6, "velocity": 60}, {"time": 348, "pitch": 54, "duration": 7, "velocity": 76}, {"time": 348, "pitch": 73, "duration": 3, "velocity": 68}, {"time": 351, "pitch": 78, "duration": 13, "velocity": 99}, {"time": 354, "pitch": 66, "duration": 12, "velocity": 117}, {"time": 357, "pitch": 54, "duration": 1, "velocity": 85}, {"time": 360, "pitch": 61, "duration": 2, "velocity": 100}, {"time": 360, "pitch": 73, "duration": 3, "velocity": 50}, {"time": 366, "pitch": 35, "duration": 23, "velocity": 75}, {"time": 366, "pitch": 59, "duration": 4, "velocity": 93}, {"time": 366, "pitch": 71, "duration": 10, "velocity": 77}, {"time": 369, "pitch": 42, "duration": 44, "velocity": 59}, {"time": 369, "pitch": 74, "duration": 2, "velocity": 50}, {"time": 372, "pitch": 47, "duration": 7, "velocity": 76}, {"time": 372, "pitch": 78, "duration": 1, "velocity": 46}, {"time": 375, "pitch": 83, "duration": 7, "velocity": 102}, {"time": 378, "pitch": 54, "duration": 7, "velocity": 82}, {"time": 381, "pitch": 47, "duration": 7, "velocity": 49}, {"time": 381, "pitch": 71, "duration": 6, "velocity": 55}, {"time": 384, "pitch": 74, "duration": 3, "velocity": 60}, {"time": 387, "pitch": 78, "duration": 13, "velocity": 99}, {"time": 390, "pitch": 35, "duration": 22, "velocity": 35}, {"time": 390, "pitch": 47, "duration": 24, "velocity": 59}, {"time": 390, "pitch": 54, "duration": 15, "velocity": 75}, {"time": 390, "pitch": 59, "duration": 16, "velocity": 73}, {"time": 393, "pitch": 71, "duration": 1, "velocity": 23}, {"time": 402, "pitch": 74, "duration": 3, "velocity": 95}, {"time": 405, "pitch": 73, "duration": 3, "velocity": 67}, {"time": 408, "pitch": 74, "duration": 5, "velocity": 63}, {"time": 414, "pitch": 47, "duration": 22, "velocity": 83}, {"time": 420, "pitch": 54, "duration": 8, "velocity": 59}, {"time": 423, "pitch": 59, "duration": 4, "velocity": 45}, {"time": 426, "pitch": 66, "duration": 18, "velocity": 90}, {"time": 429, "pitch": 54, "duration": 9, "velocity": 42}, {"time": 432, "pitch": 62, "duration": 13, "velocity": 58}, {"time": 435, "pitch": 59, "duration": 9, "velocity": 41}, {"time": 438, "pitch": 47, "duration": 18, "velocity": 65}, {"time": 444, "pitch": 54, "duration": 6, "velocity": 44}, {"time": 447, "pitch": 66, "duration": 14, "velocity": 93}, {"time": 453, "pitch": 54, "duration": 2, "velocity": 50}, {"time": 456, "pitch": 62, "duration": 6, "velocity": 44}, {"time": 462, "pitch": 45, "duration": 17, "velocity": 74}, {"time": 465, "pitch": 52, "duration": 8, "velocity": 56}, {"time": 468, "pitch": 57, "duration": 10, "velocity": 52}, {"time": 471, "pitch": 64, "duration": 14, "velocity": 86}, {"time": 477, "pitch": 52, "duration": 3, "velocity": 59}, {"time": 480, "pitch": 61, "duration": 5, "velocity": 53}, {"time": 486, "pitch": 47, "duration": 19, "velocity": 63}, {"time": 489, "pitch": 54, "duration": 10, "velocity": 47}, {"time": 492, "pitch": 59, "duration": 4, "velocity": 47}, {"time": 495, "pitch": 66, "duration": 4, "velocity": 96}, {"time": 498, "pitch": 62, "duration": 6, "velocity": 93}, {"time": 501, "pitch": 54, "duration": 9, "velocity": 59}, {"time": 504, "pitch": 61, "duration": 8, "velocity": 92}, {"time": 507, "pitch": 62, "duration": 5, "velocity": 55}, {"time": 510, "pitch": 47, "duration": 17, "velocity": 74}, {"time": 513, "pitch": 54, "duration": 9, "velocity": 75}, {"time": 516, "pitch": 59, "duration": 4, "velocity": 62}, {"time": 519, "pitch": 66, "duration": 15, "velocity": 88}, {"time": 525, "pitch": 54, "duration": 1, "velocity": 60}, {"time": 528, "pitch": 62, "duration": 6, "velocity": 74}, {"time": 534, "pitch": 40, "duration": 19, "velocity": 72}, {"time": 537, "pitch": 47, "duration": 16, "velocity": 55}, {"time": 540, "pitch": 52, "duration": 7, "velocity": 65}, {"time": 543, "pitch": 59, "duration": 15, "velocity": 68}, {"time": 549, "pitch": 52, "duration": 7, "velocity": 45}, {"time": 552, "pitch": 55, "duration": 6, "velocity": 73}, {"time": 558, "pitch": 43, "duration": 18, "velocity": 82}, {"time": 561, "pitch": 50, "duration": 9, "velocity": 52}, {"time": 564, "pitch": 62, "duration": 9, "velocity": 85}, {"time": 567, "pitch": 55, "duration": 16, "velocity": 54}, {"time": 573, "pitch": 50, "duration": 2, "velocity": 58}, {"time": 576, "pitch": 62, "duration": 6, "velocity": 58}, {"time": 582, "pitch": 42, "duration": 17, "velocity": 76}, {"time": 585, "pitch": 54, "duration": 8, "velocity": 53}, {"time": 588, "pitch": 57, "duration": 5, "velocity": 66}, {"time": 591, "pitch": 66, "duration": 15, "velocity": 89}, {"time": 597, "pitch": 54, "duration": 3, "velocity": 77}, {"time": 600, "pitch": 61, "duration": 6, "velocity": 112}, {"time": 606, "pitch": 47, "duration": 17, "velocity": 75}, {"time": 609, "pitch": 54, "duration": 9, "velocity": 69}, {"time": 612, "pitch": 59, "duration": 5, "velocity": 67}, {"time": 615, "pitch": 66, "duration": 14, "velocity": 95}, {"time": 621, "pitch": 54, "duration": 2, "velocity": 61}, {"time": 624, "pitch": 62, "duration": 6, "velocity": 71}, {"time": 630, "pitch": 40, "duration": 17, "velocity": 71}, {"time": 633, "pitch": 47, "duration": 14, "velocity": 48}, {"time": 636, "pitch": 52, "duration": 7, "velocity": 74}, {"time": 639, "pitch": 59, "duration": 14, "velocity": 92}, {"time": 642, "pitch": 56, "duration": 11, "velocity": 77}, {"time": 654, "pitch": 42, "duration": 17, "velocity": 92}, {"time": 657, "pitch": 54, "duration": 9, "velocity": 56}, {"time": 660, "pitch": 57, "duration": 19, "velocity": 86}, {"time": 663, "pitch": 66, "duration": 17, "velocity": 92}, {"time": 669, "pitch": 54, "duration": 2, "velocity": 45}, {"time": 672, "pitch": 61, "duration": 6, "velocity": 97}, {"time": 678, "pitch": 47, "duration": 22, "velocity": 73}, {"time": 681, "pitch": 54, "duration": 10, "velocity": 66}, {"time": 684, "pitch": 59, "duration": 4, "velocity": 68}, {"time": 687, "pitch": 66, "duration": 20, "velocity": 117}, {"time": 693, "pitch": 54, "duration": 9, "velocity": 60}, {"time": 696, "pitch": 62, "duration": 11, "velocity": 76}, {"time": 702, "pitch": 47, "duration": 19, "velocity": 79}, {"time": 705, "pitch": 54, "duration": 9, "velocity": 73}, {"time": 708, "pitch": 59, "duration": 12, "velocity": 69}, {"time": 711, "pitch": 66, "duration": 14, "velocity": 102}, {"time": 717, "pitch": 54, "duration": 2, "velocity": 66}, {"time": 720, "pitch": 62, "duration": 5, "velocity": 77}, {"time": 723, "pitch": 59, "duration": 3, "velocity": 59}, {"time": 726, "pitch": 45, "duration": 17, "velocity": 74}, {"time": 729, "pitch": 52, "duration": 10, "velocity": 61}, {"time": 732, "pitch": 57, "duration": 12, "velocity": 69}, {"time": 735, "pitch": 64, "duration": 14, "velocity": 92}, {"time": 741, "pitch": 52, "duration": 2, "velocity": 62}, {"time": 744, "pitch": 61, "duration": 6, "velocity": 89}, {"time": 750, "pitch": 42, "duration": 16, "velocity": 97}, {"time": 753, "pitch": 54, "duration": 10, "velocity": 75}, {"time": 756, "pitch": 57, "duration": 19, "velocity": 58}, {"time": 759, "pitch": 66, "duration": 19, "velocity": 100}, {"time": 765, "pitch": 54, "duration": 1, "velocity": 25}, {"time": 768, "pitch": 61, "duration": 6, "velocity": 99}, {"time": 774, "pitch": 47, "duration": 21, "velocity": 78}, {"time": 777, "pitch": 54, "duration": 10, "velocity": 65}, {"time": 780, "pitch": 61, "duration": 3, "velocity": 79}, {"time": 783, "pitch": 66, "duration": 3, "velocity": 107}, {"time": 786, "pitch": 62, "duration": 5, "velocity": 97}, {"time": 789, "pitch": 54, "duration": 9, "velocity": 96}, {"time": 792, "pitch": 61, "duration": 3, "velocity": 127}, {"time": 795, "pitch": 62, "duration": 2, "velocity": 81}, {"time": 798, "pitch": 47, "duration": 22, "velocity": 85}, {"time": 798, "pitch": 59, "duration": 10, "velocity": 97}, {"time": 798, "pitch": 62, "duration": 10, "velocity": 102}, {"time": 798, "pitch": 66, "duration": 10, "velocity": 127}, {"time": 798, "pitch": 35, "duration": 22, "velocity": 85}, {"time": 804, "pitch": 54, "duration": 8, "velocity": 82}, {"time": 810, "pitch": 62, "duration": 7, "velocity": 112}, {"time": 810, "pitch": 66, "duration": 8, "velocity": 127}, {"time": 816, "pitch": 59, "duration": 4, "velocity": 72}, {"time": 819, "pitch": 54, "duration": 2, "velocity": 20}, {"time": 822, "pitch": 47, "duration": 12, "velocity": 89}, {"time": 822, "pitch": 59, "duration": 9, "velocity": 89}, {"time": 822, "pitch": 62, "duration": 9, "velocity": 97}, {"time": 822, "pitch": 66, "duration": 9, "velocity": 117}, {"time": 822, "pitch": 35, "duration": 12, "velocity": 89}, {"time": 828, "pitch": 54, "duration": 6, "velocity": 54}, {"time": 834, "pitch": 62, "duration": 6, "velocity": 117}, {"time": 834, "pitch": 66, "duration": 6, "velocity": 122}, {"time": 837, "pitch": 47, "duration": 8, "velocity": 90}, {"time": 837, "pitch": 35, "duration": 8, "velocity": 90}, {"time": 840, "pitch": 59, "duration": 5, "velocity": 96}, {"time": 846, "pitch": 45, "duration": 19, "velocity": 82}, {"time": 846, "pitch": 61, "duration": 10, "velocity": 112}, {"time": 846, "pitch": 64, "duration": 7, "velocity": 96}, {"time": 846, "pitch": 33, "duration": 19, "velocity": 82}, {"time": 852, "pitch": 52, "duration": 9, "velocity": 38}, {"time": 858, "pitch": 61, "duration": 11, "velocity": 117}, {"time": 858, "pitch": 64, "duration": 7, "velocity": 96}, {"time": 864, "pitch": 52, "duration": 5, "velocity": 67}, {"time": 870, "pitch": 47, "duration": 16, "velocity": 73}, {"time": 870, "pitch": 59, "duration": 7, "velocity": 88}, {"time": 870, "pitch": 62, "duration": 7, "velocity": 102}, {"time": 870, "pitch": 66, "duration": 7, "velocity": 107}, {"time": 870, "pitch": 35, "duration": 16, "velocity": 73}, {"time": 876, "pitch": 54, "duration": 6, "velocity": 88}, {"time": 879, "pitch": 62, "duration": 1, "velocity": 27}, {"time": 882, "pitch": 62, "duration": 5, "velocity": 112}, {"time": 882, "pitch": 66, "duration": 8, "velocity": 127}, {"time": 885, "pitch": 54, "duration": 1, "velocity": 97}, {"time": 888, "pitch": 59, "duration": 3, "velocity": 96}, {"time": 891, "pitch": 61, "duration": 6, "velocity": 102}, {"time": 894, "pitch": 42, "duration": 23, "velocity": 99}, {"time": 894, "pitch": 30, "duration": 23, "velocity": 99}, {"time": 897, "pitch": 54, "duration": 9, "velocity": 93}, {"time": 900, "pitch": 57, "duration": 10, "velocity": 74}, {"time": 903, "pitch": 66, "duration": 21, "velocity": 112}, {"time": 909, "pitch": 54, "duration": 9, "velocity": 68}, {"time": 912, "pitch": 61, "duration": 12, "velocity": 99}, {"time": 915, "pitch": 57, "duration": 7, "velocity": 73}, {"time": 918, "pitch": 42, "duration": 16, "velocity": 92}, {"time": 918, "pitch": 30, "duration": 16, "velocity": 92}, {"time": 921, "pitch": 54, "duration": 9, "velocity": 81}, {"time": 924, "pitch": 57, "duration": 13, "velocity": 52}, {"time": 927, "pitch": 66, "duration": 9, "velocity": 96}, {"time": 933, "pitch": 54, "duration": 3, "velocity": 65}, {"time": 936, "pitch": 61, "duration": 4, "velocity": 117}, {"time": 939, "pitch": 57, "duration": 13, "velocity": 71}, {"time": 942, "pitch": 45, "duration": 16, "velocity": 85}, {"time": 942, "pitch": 61, "duration": 9, "velocity": 107}, {"time": 942, "pitch": 64, "duration": 9, "velocity": 97}, {"time": 942, "pitch": 33, "duration": 16, "velocity": 85}, {"time": 948, "pitch": 52, "duration": 7, "velocity": 63}, {"time": 954, "pitch": 61, "duration": 6, "velocity": 127}, {"time": 954, "pitch": 64, "duration": 6, "velocity": 102}, {"time": 957, "pitch": 52, "duration": 1, "velocity": 67}, {"time": 960, "pitch": 57, "duration": 4, "velocity": 93}, {"time": 963, "pitch": 66, "duration": 1, "velocity": 28}, {"time": 966, "pitch": 42, "duration": 17, "velocity": 102}, {"time": 966, "pitch": 57, "duration": 4, "velocity": 102}, {"time": 966, "pitch": 61, "duration": 6, "velocity": 122}, {"time": 966, "pitch": 66, "duration": 7, "velocity": 117}, {"time": 966, "pitch": 30, "duration": 17, "velocity": 102}, {"time": 969, "pitch": 54, "duration": 1, "velocity": 77}, {"time": 972, "pitch": 54, "duration": 5, "velocity": 69}, {"time": 972, "pitch": 57, "duration": 2, "velocity": 72}, {"time": 975, "pitch": 61, "duration": 6, "velocity": 117}, {"time": 975, "pitch": 66, "duration": 6, "velocity": 127}, {"time": 981, "pitch": 54, "duration": 3, "velocity": 85}, {"time": 984, "pitch": 61, "duration": 5, "velocity": 127}, {"time": 984, "pitch": 66, "duration": 4, "velocity": 117}, {"time": 990, "pitch": 47, "duration": 22, "velocity": 76}, {"time": 990, "pitch": 59, "duration": 9, "velocity": 107}, {"time": 990, "pitch": 62, "duration": 10, "velocity": 102}, {"time": 990, "pitch": 66, "duration": 10, "velocity": 112}, {"time": 990, "pitch": 35, "duration": 22, "velocity": 76}, {"time": 996, "pitch": 54, "duration": 9, "velocity": 58}, {"time": 1002, "pitch": 62, "duration": 9, "velocity": 122}, {"time": 1002, "pitch": 66, "duration": 9, "velocity": 117}, {"time": 1008, "pitch": 54, "duration": 6, "velocity": 75}, {"time": 1011, "pitch": 59, "duration": 14, "velocity": 60}, {"time": 1014, "pitch": 47, "duration": 18, "velocity": 72}, {"time": 1014, "pitch": 62, "duration": 10, "velocity": 97}, {"time": 1014, "pitch": 66, "duration": 10, "velocity": 112}, {"time": 1014, "pitch": 35, "duration": 18, "velocity": 72}, {"time": 1020, "pitch": 54, "duration": 7, "velocity": 86}, {"time": 1026, "pitch": 62, "duration": 6, "velocity": 107}, {"time": 1026, "pitch": 66, "duration": 6, "velocity": 127}, {"time": 1029, "pitch": 54, "duration": 2, "velocity": 99}, {"time": 1032, "pitch": 59, "duration": 4, "velocity": 96}, {"time": 1038, "pitch": 45, "duration": 20, "velocity": 76}, {"time": 1038, "pitch": 61, "duration": 9, "velocity": 122}, {"time": 1038, "pitch": 64, "duration": 9, "velocity": 99}, {"time": 1038, "pitch": 33, "duration": 20, "velocity": 76}, {"time": 1044, "pitch": 52, "duration": 7, "velocity": 73}, {"time": 1050, "pitch": 57, "duration": 8, "velocity": 88}, {"time": 1050, "pitch": 61, "duration": 6, "velocity": 122}, {"time": 1050, "pitch": 64, "duration": 6, "velocity": 97}, {"time": 1056, "pitch": 52, "duration": 6, "velocity": 71}, {"time": 1062, "pitch": 47, "duration": 16, "velocity": 90}, {"time": 1062, "pitch": 59, "duration": 9, "velocity": 83}, {"time": 1062, "pitch": 62, "duration": 9, "velocity": 85}, {"time": 1062, "pitch": 66, "duration": 9, "velocity": 93}, {"time": 1062, "pitch": 35, "duration": 16, "velocity": 90}, {"time": 1068, "pitch": 54, "duration": 7, "velocity": 68}, {"time": 1074, "pitch": 62, "duration": 5, "velocity": 96}, {"time": 1074, "pitch": 66, "duration": 6, "velocity": 117}, {"time": 1077, "pitch": 54, "duration": 1, "velocity": 83}, {"time": 1080, "pitch": 59, "duration": 5, "velocity": 93}, {"time": 1086, "pitch": 42, "duration": 22, "velocity": 82}, {"time": 1086, "pitch": 61, "duration": 10, "velocity": 100}, {"time": 1086, "pitch": 66, "duration": 9, "velocity": 95}, {"time": 1086, "pitch": 30, "duration": 22, "velocity": 82}, {"time": 1092, "pitch": 54, "duration": 8, "velocity": 53}, {"time": 1098, "pitch": 57, "duration": 10, "velocity": 85}, {"time": 1098, "pitch": 61, "duration": 10, "velocity": 107}, {"time": 1098, "pitch": 66, "duration": 9, "velocity": 96}, {"time": 1104, "pitch": 54, "duration": 6, "velocity": 47}, {"time": 1110, "pitch": 42, "duration": 18, "velocity": 78}, {"time": 1110, "pitch": 57, "duration": 10, "velocity": 78}, {"time": 1110, "pitch": 61, "duration": 10, "velocity": 96}, {"time": 1110, "pitch": 66, "duration": 10, "velocity": 92}, {"time": 1110, "pitch": 30, "duration": 19, "velocity": 78}, {"time": 1116, "pitch": 54, "duration": 8, "velocity": 39}, {"time": 1122, "pitch": 61, "duration": 10, "velocity": 100}, {"time": 1122, "pitch": 66, "duration": 9, "velocity": 97}, {"time": 1128, "pitch": 54, "duration": 2, "velocity": 66}, {"time": 1134, "pitch": 45, "duration": 16, "velocity": 69}, {"time": 1134, "pitch": 57, "duration": 10, "velocity": 90}, {"time": 1134, "pitch": 61, "duration": 11, "velocity": 102}, {"time": 1134, "pitch": 64, "duration": 10, "velocity": 88}, {"time": 1134, "pitch": 33, "duration": 16, "velocity": 69}, {"time": 1146, "pitch": 61, "duration": 10, "velocity": 96}, {"time": 1146, "pitch": 64, "duration": 7, "velocity": 85}, {"time": 1158, "pitch": 42, "duration": 17, "velocity": 52}, {"time": 1158, "pitch": 54, "duration": 20, "velocity": 56}, {"time": 1158, "pitch": 57, "duration": 20, "velocity": 79}, {"time": 1158, "pitch": 61, "duration": 22, "velocity": 82}, {"time": 1158, "pitch": 66, "duration": 19, "velocity": 85}, {"time": 1158, "pitch": 30, "duration": 17, "velocity": 52}, {"time": 1182, "pitch": 47, "duration": 22, "velocity": 69}, {"time": 1182, "pitch": 59, "duration": 10, "velocity": 89}, {"time": 1182, "pitch": 62, "duration": 10, "velocity": 99}, {"time": 1182, "pitch": 66, "duration": 7, "velocity": 102}, {"time": 1182, "pitch": 35, "duration": 22, "velocity": 69}, {"time": 1188, "pitch": 54, "duration": 8, "velocity": 55}, {"time": 1194, "pitch": 61, "duration": 11, "velocity": 117}, {"time": 1194, "pitch": 64, "duration": 6, "velocity": 96}, {"time": 1200, "pitch": 54, "duration": 6, "velocity": 81}, {"time": 1206, "pitch": 47, "duration": 24, "velocity": 69}, {"time": 1206, "pitch": 59, "duration": 11, "velocity": 97}, {"time": 1206, "pitch": 62, "duration": 24, "velocity": 93}, {"time": 1206, "pitch": 66, "duration": 6, "velocity": 95}, {"time": 1206, "pitch": 71, "duration": 11, "velocity": 77}, {"time": 1206, "pitch": 35, "duration": 24, "velocity": 69}, {"time": 1209, "pitch": 66, "duration": 3, "velocity": 83}, {"time": 1212, "pitch": 71, "duration": 5, "velocity": 65}, {"time": 1215, "pitch": 83, "duration": 6, "velocity": 79}, {"time": 1218, "pitch": 61, "duration": 12, "velocity": 107}, {"time": 1224, "pitch": 54, "duration": 6, "velocity": 44}, {"time": 1224, "pitch": 78, "duration": 4, "velocity": 93}, {"time": 1230, "pitch": 45, "duration": 37, "velocity": 65}, {"time": 1230, "pitch": 52, "duration": 4, "velocity": 79}, {"time": 1230, "pitch": 57, "duration": 27, "velocity": 86}, {"time": 1230, "pitch": 61, "duration": 30, "velocity": 82}, {"time": 1230, "pitch": 33, "duration": 37, "velocity": 65}, {"time": 1233, "pitch": 64, "duration": 3, "velocity": 83}, {"time": 1236, "pitch": 76, "duration": 3, "velocity": 81}, {"time": 1239, "pitch": 81, "duration": 5, "velocity": 69}, {"time": 1254, "pitch": 57, "duration": 3, "velocity": 78}, {"time": 1257, "pitch": 61, "duration": 3, "velocity": 83}, {"time": 1260, "pitch": 64, "duration": 3, "velocity": 71}, {"time": 1263, "pitch": 69, "duration": 13, "velocity": 85}, {"time": 1266, "pitch": 57, "duration": 1, "velocity": 79}, {"time": 1266, "pitch": 61, "duration": 1, "velocity": 79}, {"time": 1278, "pitch": 43, "duration": 36, "velocity": 70}, {"time": 1278, "pitch": 50, "duration": 34, "velocity": 83}, {"time": 1278, "pitch": 55, "duration": 10, "velocity": 79}, {"time": 1278, "pitch": 59, "duration": 10, "velocity": 78}, {"time": 1281, "pitch": 67, "duration": 3, "velocity": 68}, {"time": 1284, "pitch": 71, "duration": 3, "velocity": 72}, {"time": 1287, "pitch": 79, "duration": 14, "velocity": 88}, {"time": 1290, "pitch": 55, "duration": 22, "velocity": 53}, {"time": 1290, "pitch": 59, "duration": 22, "velocity": 66}, {"time": 1296, "pitch": 74, "duration": 6, "velocity": 83}, {"time": 1302, "pitch": 67, "duration": 3, "velocity": 88}, {"time": 1305, "pitch": 74, "duration": 3, "velocity": 67}, {"time": 1308, "pitch": 79, "duration": 4, "velocity": 86}, {"time": 1311, "pitch": 83, "duration": 7, "velocity": 93}, {"time": 1314, "pitch": 55, "duration": 1, "velocity": 78}, {"time": 1314, "pitch": 59, "duration": 1, "velocity": 76}, {"time": 1320, "pitch": 79, "duration": 6, "velocity": 97}, {"time": 1326, "pitch": 42, "duration": 37, "velocity": 88}, {"time": 1326, "pitch": 54, "duration": 23, "velocity": 96}, {"time": 1326, "pitch": 58, "duration": 33, "velocity": 97}, {"time": 1329, "pitch": 73, "duration": 3, "velocity": 86}, {"time": 1332, "pitch": 78, "duration": 3, "velocity": 45}, {"time": 1335, "pitch": 85, "duration": 16, "velocity": 86}, {"time": 1338, "pitch": 61, "duration": 11, "velocity": 61}, {"time": 1344, "pitch": 82, "duration": 21, "velocity": 112}, {"time": 1350, "pitch": 54, "duration": 9, "velocity": 48}, {"time": 1350, "pitch": 61, "duration": 9, "velocity": 60}, {"time": 1362, "pitch": 54, "duration": 4, "velocity": 127}, {"time": 1362, "pitch": 58, "duration": 4, "velocity": 122}, {"time": 1362, "pitch": 61, "duration": 4, "velocity": 102}, {"time": 1365, "pitch": 42, "duration": 1, "velocity": 112}, {"time": 1368, "pitch": 54, "duration": 1, "velocity": 107}, {"time": 1368, "pitch": 58, "duration": 1, "velocity": 66}, {"time": 1374, "pitch": 35, "duration": 42, "velocity": 96}, {"time": 1374, "pitch": 47, "duration": 3, "velocity": 112}, {"time": 1374, "pitch": 50, "duration": 4, "velocity": 107}, {"time": 1374, "pitch": 54, "duration": 5, "velocity": 102}, {"time": 1377, "pitch": 66, "duration": 4, "velocity": 62}, {"time": 1380, "pitch": 47, "duration": 8, "velocity": 53}, {"time": 1380, "pitch": 71, "duration": 3, "velocity": 63}, {"time": 1383, "pitch": 78, "duration": 10, "velocity": 99}, {"time": 1386, "pitch": 59, "duration": 6, "velocity": 92}, {"time": 1386, "pitch": 62, "duration": 5, "velocity": 112}, {"time": 1386, "pitch": 66, "duration": 5, "velocity": 112}, {"time": 1389, "pitch": 66, "duration": 2, "velocity": 50}, {"time": 1392, "pitch": 47, "duration": 8, "velocity": 58}, {"time": 1392, "pitch": 71, "duration": 3, "velocity": 63}, {"time": 1395, "pitch": 78, "duration": 8, "velocity": 85}, {"time": 1398, "pitch": 50, "duration": 8, "velocity": 88}, {"time": 1398, "pitch": 54, "duration": 4, "velocity": 100}, {"time": 1401, "pitch": 66, "duration": 4, "velocity": 47}, {"time": 1404, "pitch": 47, "duration": 15, "velocity": 78}, {"time": 1404, "pitch": 71, "duration": 3, "velocity": 63}, {"time": 1407, "pitch": 78, "duration": 9, "velocity": 95}, {"time": 1410, "pitch": 54, "duration": 6, "velocity": 100}, {"time": 1410, "pitch": 59, "duration": 6, "velocity": 95}, {"time": 1416, "pitch": 50, "duration": 1, "velocity": 56}, {"time": 1416, "pitch": 71, "duration": 4, "velocity": 64}, {"time": 1422, "pitch": 45, "duration": 16, "velocity": 71}, {"time": 1422, "pitch": 52, "duration": 10, "velocity": 93}, {"time": 1422, "pitch": 57, "duration": 10, "velocity": 93}, {"time": 1422, "pitch": 61, "duration": 9, "velocity": 95}, {"time": 1422, "pitch": 76, "duration": 4, "velocity": 93}, {"time": 1425, "pitch": 69, "duration": 6, "velocity": 41}, {"time": 1428, "pitch": 73, "duration": 2, "velocity": 55}, {"time": 1431, "pitch": 81, "duration": 6, "velocity": 90}, {"time": 1434, "pitch": 52, "duration": 8, "velocity": 92}, {"time": 1434, "pitch": 57, "duration": 8, "velocity": 99}, {"time": 1434, "pitch": 61, "duration": 7, "velocity": 100}, {"time": 1437, "pitch": 69, "duration": 5, "velocity": 63}, {"time": 1440, "pitch": 45, "duration": 9, "velocity": 59}, {"time": 1443, "pitch": 76, "duration": 7, "velocity": 82}, {"time": 1446, "pitch": 52, "duration": 6, "velocity": 88}, {"time": 1446, "pitch": 57, "duration": 10, "velocity": 89}, {"time": 1446, "pitch": 61, "duration": 9, "velocity": 90}, {"time": 1449, "pitch": 69, "duration": 7, "velocity": 39}, {"time": 1452, "pitch": 45, "duration": 8, "velocity": 42}, {"time": 1452, "pitch": 73, "duration": 4, "velocity": 52}, {"time": 1455, "pitch": 81, "duration": 10, "velocity": 72}, {"time": 1458, "pitch": 57, "duration": 5, "velocity": 117}, {"time": 1458, "pitch": 61, "duration": 7, "velocity": 117}, {"time": 1464, "pitch": 45, "duration": 2, "velocity": 66}, {"time": 1464, "pitch": 69, "duration": 6, "velocity": 78}, {"time": 1470, "pitch": 42, "duration": 40, "velocity": 88}, {"time": 1470, "pitch": 54, "duration": 9, "velocity": 95}, {"time": 1470, "pitch": 57, "duration": 9, "velocity": 107}, {"time": 1470, "pitch": 61, "duration": 9, "velocity": 112}, {"time": 1470, "pitch": 66, "duration": 3, "velocity": 32}, {"time": 1473, "pitch": 69, "duration": 5, "velocity": 74}, {"time": 1476, "pitch": 73, "duration": 2, "velocity": 82}, {"time": 1479, "pitch": 78, "duration": 7, "velocity": 99}, {"time": 1482, "pitch": 54, "duration": 1, "velocity": 82}, {"time": 1482, "pitch": 57, "duration": 4, "velocity": 99}, {"time": 1482, "pitch": 61, "duration": 5, "velocity": 100}, {"time": 1485, "pitch": 69, "duration": 8, "velocity": 50}, {"time": 1488, "pitch": 54, "duration": 8, "velocity": 78}, {"time": 1488, "pitch": 73, "duration": 8, "velocity": 76}, {"time": 1494, "pitch": 61, "duration": 7, "velocity": 95}, {"time": 1494, "pitch": 66, "duration": 7, "velocity": 97}, {"time": 1497, "pitch": 69, "duration": 6, "velocity": 60}, {"time": 1500, "pitch": 54, "duration": 7, "velocity": 76}, {"time": 1500, "pitch": 73, "duration": 3, "velocity": 68}, {"time": 1503, "pitch": 78, "duration": 13, "velocity": 99}, {"time": 1506, "pitch": 66, "duration": 12, "velocity": 117}, {"time": 1509, "pitch": 54, "duration": 1, "velocity": 85}, {"time": 1512, "pitch": 61, "duration": 2, "velocity": 100}, {"time": 1512, "pitch": 73, "duration": 3, "velocity": 50}, {"time": 1518, "pitch": 35, "duration": 23, "velocity": 75}, {"time": 1518, "pitch": 59, "duration": 4, "velocity": 93}, {"time": 1518, "pitch": 71, "duration": 10, "velocity": 77}, {"time": 1521, "pitch": 42, "duration": 44, "velocity": 59}, {"time": 1521, "pitch": 74, "duration": 2, "velocity": 50}, {"time": 1524, "pitch": 47, "duration": 7, "velocity": 76}, {"time": 1524, "pitch": 78, "duration": 1, "velocity": 46}, {"time": 1527, "pitch": 83, "duration": 7, "velocity": 102}, {"time": 1530, "pitch": 54, "duration": 7, "velocity": 82}, {"time": 1533, "pitch": 47, "duration": 7, "velocity": 49}, {"time": 1533, "pitch": 71, "duration": 6, "velocity": 55}, {"time": 1536, "pitch": 74, "duration": 3, "velocity": 60}, {"time": 1539, "pitch": 78, "duration": 13, "velocity": 99}, {"time": 1542, "pitch": 35, "duration": 22, "velocity": 35}, {"time": 1542, "pitch": 47, "duration": 24, "velocity": 59}, {"time": 1542, "pitch": 54, "duration": 15, "velocity": 75}, {"time": 1542, "pitch": 59, "duration": 16, "velocity": 73}, {"time": 1545, "pitch": 71, "duration": 1, "velocity": 23}, {"time": 1554, "pitch": 74, "duration": 3, "velocity": 95}, {"time": 1557, "pitch": 73, "duration": 3, "velocity": 67}, {"time": 1560, "pitch": 74, "duration": 5, "velocity": 63}, {"time": 1566, "pitch": 47, "duration": 22, "velocity": 83}, {"time": 1572, "pitch": 54, "duration": 8, "velocity": 59}, {"time": 1575, "pitch": 59, "duration": 4, "velocity": 45}, {"time": 1578, "pitch": 66, "duration": 18, "velocity": 90}, {"time": 1581, "pitch": 54, "duration": 9, "velocity": 42}, {"time": 1584, "pitch": 62, "duration": 13, "velocity": 58}, {"time": 1587, "pitch": 59, "duration": 9, "velocity": 41}, {"time": 1590, "pitch": 47, "duration": 18, "velocity": 65}, {"time": 1596, "pitch": 54, "duration": 6, "velocity": 44}, {"time": 1599, "pitch": 66, "duration": 14, "velocity": 93}, {"time": 1605, "pitch": 54, "duration": 2, "velocity": 50}, {"time": 1608, "pitch": 62, "duration": 6, "velocity": 44}, {"time": 1614, "pitch": 45, "duration": 17, "velocity": 74}, {"time": 1617, "pitch": 52, "duration": 8, "velocity": 56}, {"time": 1620, "pitch": 57, "duration": 10, "velocity": 52}, {"time": 1623, "pitch": 64, "duration": 14, "velocity": 86}, {"time": 1629, "pitch": 52, "duration": 3, "velocity": 59}, {"time": 1632, "pitch": 61, "duration": 5, "velocity": 53}, {"time": 1638, "pitch": 47, "duration": 19, "velocity": 63}, {"time": 1641, "pitch": 54, "duration": 10, "velocity": 47}, {"time": 1644, "pitch": 59, "duration": 4, "velocity": 47}, {"time": 1647, "pitch": 66, "duration": 4, "velocity": 96}, {"time": 1650, "pitch": 62, "duration": 6, "velocity": 93}, {"time": 1653, "pitch": 54, "duration": 9, "velocity": 59}, {"time": 1656, "pitch": 61, "duration": 8, "velocity": 92}, {"time": 1659, "pitch": 62, "duration": 5, "velocity": 55}, {"time": 1662, "pitch": 47, "duration": 17, "velocity": 74}, {"time": 1665, "pitch": 54, "duration": 9, "velocity": 75}, {"time": 1668, "pitch": 59, "duration": 4, "velocity": 62}, {"time": 1671, "pitch": 66, "duration": 15, "velocity": 88}, {"time": 1677, "pitch": 54, "duration": 1, "velocity": 60}, {"time": 1680, "pitch": 62, "duration": 6, "velocity": 74}, {"time": 1686, "pitch": 40, "duration": 19, "velocity": 72}, {"time": 1689, "pitch": 47, "duration": 16, "velocity": 55}, {"time": 1692, "pitch": 52, "duration": 7, "velocity": 65}, {"time": 1695, "pitch": 59, "duration": 15, "velocity": 68}, {"time": 1701, "pitch": 52, "duration": 7, "velocity": 45}, {"time": 1704, "pitch": 55, "duration": 6, "velocity": 73}, {"time": 1710, "pitch": 43, "duration": 18, "velocity": 82}, {"time": 1713, "pitch": 50, "duration": 9, "velocity": 52}, {"time": 1716, "pitch": 62, "duration": 9, "velocity": 85}, {"time": 1719, "pitch": 55, "duration": 16, "velocity": 54}, {"time": 1725, "pitch": 50, "duration": 2, "velocity": 58}, {"time": 1728, "pitch": 62, "duration": 6, "velocity": 58}, {"time": 1734, "pitch": 42, "duration": 17, "velocity": 76}, {"time": 1737, "pitch": 54, "duration": 8, "velocity": 53}, {"time": 1740, "pitch": 57, "duration": 5, "velocity": 66}, {"time": 1743, "pitch": 66, "duration": 15, "velocity": 89}, {"time": 1749, "pitch": 54, "duration": 3, "velocity": 77}, {"time": 1752, "pitch": 61, "duration": 6, "velocity": 112}, {"time": 1758, "pitch": 47, "duration": 17, "velocity": 75}, {"time": 1761, "pitch": 54, "duration": 9, "velocity": 69}, {"time": 1764, "pitch": 59, "duration": 5, "velocity": 67}, {"time": 1767, "pitch": 66, "duration": 14, "velocity": 95}, {"time": 1773, "pitch": 54, "duration": 2, "velocity": 61}, {"time": 1776, "pitch": 62, "duration": 6, "velocity": 71}, {"time": 1782, "pitch": 40, "duration": 17, "velocity": 71}, {"time": 1785, "pitch": 47, "duration": 14, "velocity": 48}, {"time": 1788, "pitch": 52, "duration": 7, "velocity": 74}, {"time": 1791, "pitch": 59, "duration": 14, "velocity": 92}, {"time": 1794, "pitch": 56, "duration": 11, "velocity": 77}, {"time": 1806, "pitch": 42, "duration": 17, "velocity": 92}, {"time": 1809, "pitch": 54, "duration": 9, "velocity": 56}, {"time": 1812, "pitch": 57, "duration": 19, "velocity": 86}, {"time": 1815, "pitch": 66, "duration": 17, "velocity": 92}, {"time": 1821, "pitch": 54, "duration": 2, "velocity": 45}, {"time": 1824, "pitch": 61, "duration": 6, "velocity": 97}, {"time": 1830, "pitch": 47, "duration": 22, "velocity": 73}, {"time": 1833, "pitch": 54, "duration": 10, "velocity": 66}, {"time": 1836, "pitch": 59, "duration": 4, "velocity": 68}, {"time": 1839, "pitch": 66, "duration": 20, "velocity": 117}, {"time": 1845, "pitch": 54, "duration": 9, "velocity": 60}, {"time": 1848, "pitch": 62, "duration": 11, "velocity": 76}, {"time": 1854, "pitch": 47, "duration": 19, "velocity": 79}, {"time": 1857, "pitch": 54, "duration": 9, "velocity": 73}, {"time": 1860, "pitch": 59, "duration": 12, "velocity": 69}, {"time": 1863, "pitch": 66, "duration": 14, "velocity": 102}, {"time": 1869, "pitch": 54, "duration": 2, "velocity": 66}, {"time": 1872, "pitch": 62, "duration": 5, "velocity": 77}, {"time": 1875, "pitch": 59, "duration": 3, "velocity": 59}, {"time": 1878, "pitch": 45, "duration": 17, "velocity": 74}, {"time": 1881, "pitch": 52, "duration": 10, "velocity": 61}, {"time": 1884, "pitch": 57, "duration": 12, "velocity": 69}, {"time": 1887, "pitch": 64, "duration": 14, "velocity": 92}, {"time": 1893, "pitch": 52, "duration": 2, "velocity": 62}, {"time": 1896, "pitch": 61, "duration": 6, "velocity": 89}, {"time": 1902, "pitch": 42, "duration": 16, "velocity": 97}, {"time": 1905, "pitch": 54, "duration": 10, "velocity": 75}, {"time": 1908, "pitch": 57, "duration": 19, "velocity": 58}, {"time": 1911, "pitch": 66, "duration": 19, "velocity": 100}, {"time": 1917, "pitch": 54, "duration": 1, "velocity": 25}, {"time": 1920, "pitch": 61, "duration": 6, "velocity": 99}, {"time": 1926, "pitch": 47, "duration": 21, "velocity": 78}, {"time": 1929, "pitch": 54, "duration": 10, "velocity": 65}, {"time": 1932, "pitch": 61, "duration": 3, "velocity": 79}, {"time": 1935, "pitch": 66, "duration": 3, "velocity": 107}, {"time": 1938, "pitch": 62, "duration": 5, "velocity": 97}, {"time": 1941, "pitch": 54, "duration": 9, "velocity": 96}, {"time": 1944, "pitch": 61, "duration": 3, "velocity": 127}, {"time": 1947, "pitch": 62, "duration": 2, "velocity": 81}, {"time": 1950, "pitch": 47, "duration": 22, "velocity": 85}, {"time": 1950, "pitch": 59, "duration": 10, "velocity": 97}, {"time": 1950, "pitch": 62, "duration": 10, "velocity": 102}, {"time": 1950, "pitch": 66, "duration": 10, "velocity": 127}, {"time": 1950, "pitch": 35, "duration": 22, "velocity": 85}, {"time": 1956, "pitch": 54, "duration": 8, "velocity": 82}, {"time": 1962, "pitch": 62, "duration": 7, "velocity": 112}, {"time": 1962, "pitch": 66, "duration": 8, "velocity": 127}, {"time": 1968, "pitch": 59, "duration": 4, "velocity": 72}, {"time": 1971, "pitch": 54, "duration": 2, "velocity": 20}, {"time": 1974, "pitch": 47, "duration": 12, "velocity": 89}, {"time": 1974, "pitch": 59, "duration": 9, "velocity": 89}, {"time": 1974, "pitch": 62, "duration": 9, "velocity": 97}, {"time": 1974, "pitch": 66, "duration": 9, "velocity": 117}, {"time": 1974, "pitch": 35, "duration": 12, "velocity": 89}, {"time": 1980, "pitch": 54, "duration": 6, "velocity": 54}, {"time": 1986, "pitch": 62, "duration": 6, "velocity": 117}, {"time": 1986, "pitch": 66, "duration": 6, "velocity": 122}, {"time": 1989, "pitch": 47, "duration": 8, "velocity": 90}, {"time": 1989, "pitch": 35, "duration": 8, "velocity": 90}, {"time": 1992, "pitch": 59, "duration": 5, "velocity": 96}, {"time": 1998, "pitch": 45, "duration": 19, "velocity": 82}, {"time": 1998, "pitch": 61, "duration": 10, "velocity": 112}, {"time": 1998, "pitch": 64, "duration": 7, "velocity": 96}, {"time": 1998, "pitch": 33, "duration": 19, "velocity": 82}, {"time": 2004, "pitch": 52, "duration": 9, "velocity": 38}, {"time": 2010, "pitch": 61, "duration": 11, "velocity": 117}, {"time": 2010, "pitch": 64, "duration": 7, "velocity": 96}, {"time": 2016, "pitch": 52, "duration": 5, "velocity": 67}, {"time": 2022, "pitch": 47, "duration": 16, "velocity": 73}, {"time": 2022, "pitch": 59, "duration": 7, "velocity": 88}, {"time": 2022, "pitch": 62, "duration": 7, "velocity": 102}, {"time": 2022, "pitch": 66, "duration": 7, "velocity": 107}, {"time": 2022, "pitch": 35, "duration": 16, "velocity": 73}, {"time": 2028, "pitch": 54, "duration": 6, "velocity": 88}, {"time": 2031, "pitch": 62, "duration": 1, "velocity": 27}, {"time": 2034, "pitch": 62, "duration": 5, "velocity": 112}, {"time": 2034, "pitch": 66, "duration": 8, "velocity": 127}, {"time": 2037, "pitch": 54, "duration": 1, "velocity": 97}, {"time": 2040, "pitch": 59, "duration": 3, "velocity": 96}, {"time": 2043, "pitch": 61, "duration": 6, "velocity": 102}, {"time": 2046, "pitch": 42, "duration": 23, "velocity": 99}, {"time": 2046, "pitch": 30, "duration": 23, "velocity": 99}, {"time": 2049, "pitch": 54, "duration": 9, "velocity": 93}, {"time": 2052, "pitch": 57, "duration": 10, "velocity": 74}, {"time": 2055, "pitch": 66, "duration": 21, "velocity": 112}, {"time": 2061, "pitch": 54, "duration": 9, "velocity": 68}, {"time": 2064, "pitch": 61, "duration": 12, "velocity": 99}, {"time": 2067, "pitch": 57, "duration": 7, "velocity": 73}, {"time": 2070, "pitch": 42, "duration": 16, "velocity": 92}, {"time": 2070, "pitch": 30, "duration": 16, "velocity": 92}, {"time": 2073, "pitch": 54, "duration": 9, "velocity": 81}, {"time": 2076, "pitch": 57, "duration": 13, "velocity": 52}, {"time": 2079, "pitch": 66, "duration": 9, "velocity": 96}, {"time": 2085, "pitch": 54, "duration": 3, "velocity": 65}, {"time": 2088, "pitch": 61, "duration": 4, "velocity": 117}, {"time": 2091, "pitch": 57, "duration": 13, "velocity": 71}, {"time": 2094, "pitch": 45, "duration": 16, "velocity": 85}, {"time": 2094, "pitch": 61, "duration": 9, "velocity": 107}, {"time": 2094, "pitch": 64, "duration": 9, "velocity": 97}, {"time": 2094, "pitch": 33, "duration": 16, "velocity": 85}, {"time": 2100, "pitch": 52, "duration": 7, "velocity": 63}, {"time": 2106, "pitch": 61, "duration": 6, "velocity": 127}, {"time": 2106, "pitch": 64, "duration": 6, "velocity": 102}, {"time": 2109, "pitch": 52, "duration": 1, "velocity": 67}, {"time": 2112, "pitch": 57, "duration": 4, "velocity": 93}, {"time": 2115, "pitch": 66, "duration": 1, "velocity": 28}, {"time": 2118, "pitch": 42, "duration": 17, "velocity": 102}, {"time": 2118, "pitch": 57, "duration": 4, "velocity": 102}, {"time": 2118, "pitch": 61, "duration": 6, "velocity": 122}, {"time": 2118, "pitch": 66, "duration": 7, "velocity": 117}, {"time": 2118, "pitch": 30, "duration": 17, "velocity": 102}, {"time": 2121, "pitch": 54, "duration": 1, "velocity": 77}, {"time": 2124, "pitch": 54, "duration": 5, "velocity": 69}, {"time": 2124, "pitch": 57, "duration": 2, "velocity": 72}, {"time": 2127, "pitch": 61, "duration": 6, "velocity": 117}, {"time": 2127, "pitch": 66, "duration": 6, "velocity": 127}, {"time": 2133, "pitch": 54, "duration": 3, "velocity": 85}, {"time": 2136, "pitch": 61, "duration": 5, "velocity": 127}, {"time": 2136, "pitch": 66, "duration": 4, "velocity": 117}, {"time": 2142, "pitch": 47, "duration": 22, "velocity": 76}, {"time": 2142, "pitch": 59, "duration": 9, "velocity": 107}, {"time": 2142, "pitch": 62, "duration": 10, "velocity": 102}, {"time": 2142, "pitch": 66, "duration": 10, "velocity": 112}, {"time": 2142, "pitch": 35, "duration": 22, "velocity": 76}, {"time": 2148, "pitch": 54, "duration": 9, "velocity": 58}, {"time": 2154, "pitch": 62, "duration": 9, "velocity": 122}, {"time": 2154, "pitch": 66, "duration": 9, "velocity": 117}, {"time": 2160, "pitch": 54, "duration": 6, "velocity": 75}, {"time": 2163, "pitch": 59, "duration": 14, "velocity": 60}, {"time": 2166, "pitch": 47, "duration": 18, "velocity": 72}, {"time": 2166, "pitch": 62, "duration": 10, "velocity": 97}, {"time": 2166, "pitch": 66, "duration": 10, "velocity": 112}, {"time": 2166, "pitch": 35, "duration": 18, "velocity": 72}, {"time": 2172, "pitch": 54, "duration": 7, "velocity": 86}, {"time": 2178, "pitch": 62, "duration": 6, "velocity": 107}, {"time": 2178, "pitch": 66, "duration": 6, "velocity": 127}, {"time": 2181, "pitch": 54, "duration": 2, "velocity": 99}, {"time": 2184, "pitch": 59, "duration": 4, "velocity": 96}, {"time": 2190, "pitch": 45, "duration": 20, "velocity": 76}, {"time": 2190, "pitch": 61, "duration": 9, "velocity": 122}, {"time": 2190, "pitch": 64, "duration": 9, "velocity": 99}, {"time": 2190, "pitch": 33, "duration": 20, "velocity": 76}, {"time": 2196, "pitch": 52, "duration": 7, "velocity": 73}, {"time": 2202, "pitch": 57, "duration": 8, "velocity": 88}, {"time": 2202, "pitch": 61, "duration": 6, "velocity": 122}, {"time": 2202, "pitch": 64, "duration": 6, "velocity": 97}, {"time": 2208, "pitch": 52, "duration": 6, "velocity": 71}, {"time": 2214, "pitch": 47, "duration": 16, "velocity": 90}, {"time": 2214, "pitch": 59, "duration": 9, "velocity": 83}, {"time": 2214, "pitch": 62, "duration": 9, "velocity": 85}, {"time": 2214, "pitch": 66, "duration": 9, "velocity": 93}, {"time": 2214, "pitch": 35, "duration": 16, "velocity": 90}, {"time": 2220, "pitch": 54, "duration": 7, "velocity": 68}, {"time": 2226, "pitch": 62, "duration": 5, "velocity": 96}, {"time": 2226, "pitch": 66, "duration": 6, "velocity": 117}, {"time": 2229, "pitch": 54, "duration": 1, "velocity": 83}, {"time": 2232, "pitch": 59, "duration": 5, "velocity": 93}, {"time": 2238, "pitch": 42, "duration": 22, "velocity": 82}, {"time": 2238, "pitch": 61, "duration": 10, "velocity": 100}, {"time": 2238, "pitch": 66, "duration": 9, "velocity": 95}, {"time": 2238, "pitch": 30, "duration": 22, "velocity": 82}, {"time": 2244, "pitch": 54, "duration": 8, "velocity": 53}, {"time": 2250, "pitch": 57, "duration": 10, "velocity": 85}, {"time": 2250, "pitch": 61, "duration": 10, "velocity": 107}, {"time": 2250, "pitch": 66, "duration": 9, "velocity": 96}, {"time": 2256, "pitch": 54, "duration": 6, "velocity": 47}, {"time": 2262, "pitch": 42, "duration": 18, "velocity": 78}, {"time": 2262, "pitch": 57, "duration": 10, "velocity": 78}, {"time": 2262, "pitch": 61, "duration": 10, "velocity": 96}, {"time": 2262, "pitch": 66, "duration": 10, "velocity": 92}, {"time": 2262, "pitch": 30, "duration": 18, "velocity": 78}, {"time": 2268, "pitch": 54, "duration": 8, "velocity": 39}, {"time": 2274, "pitch": 61, "duration": 10, "velocity": 100}, {"time": 2274, "pitch": 66, "duration": 9, "velocity": 97}, {"time": 2280, "pitch": 54, "duration": 2, "velocity": 66}, {"time": 2286, "pitch": 45, "duration": 16, "velocity": 69}, {"time": 2286, "pitch": 57, "duration": 10, "velocity": 90}, {"time": 2286, "pitch": 61, "duration": 11, "velocity": 102}, {"time": 2286, "pitch": 64, "duration": 10, "velocity": 88}, {"time": 2286, "pitch": 33, "duration": 16, "velocity": 69}, {"time": 2298, "pitch": 61, "duration": 10, "velocity": 96}, {"time": 2298, "pitch": 64, "duration": 7, "velocity": 85}, {"time": 2310, "pitch": 42, "duration": 17, "velocity": 52}, {"time": 2310, "pitch": 54, "duration": 20, "velocity": 56}, {"time": 2310, "pitch": 57, "duration": 20, "velocity": 79}, {"time": 2310, "pitch": 61, "duration": 22, "velocity": 82}, {"time": 2310, "pitch": 66, "duration": 19, "velocity": 85}, {"time": 2310, "pitch": 30, "duration": 17, "velocity": 52}, {"time": 2334, "pitch": 47, "duration": 21, "velocity": 78}, {"time": 2334, "pitch": 35, "duration": 21, "velocity": 78}, {"time": 2337, "pitch": 54, "duration": 10, "velocity": 65}, {"time": 2340, "pitch": 61, "duration": 3, "velocity": 79}, {"time": 2343, "pitch": 66, "duration": 3, "velocity": 107}, {"time": 2346, "pitch": 62, "duration": 5, "velocity": 97}, {"time": 2349, "pitch": 54, "duration": 9, "velocity": 96}, {"time": 2352, "pitch": 61, "duration": 3, "velocity": 127}, {"time": 2355, "pitch": 62, "duration": 2, "velocity": 81}, {"time": 2358, "pitch": 47, "duration": 22, "velocity": 85}, {"time": 2358, "pitch": 59, "duration": 10, "velocity": 97}, {"time": 2358, "pitch": 62, "duration": 10, "velocity": 102}, {"time": 2358, "pitch": 66, "duration": 10, "velocity": 127}, {"time": 2358, "pitch": 35, "duration": 22, "velocity": 85}, {"time": 2364, "pitch": 54, "duration": 8, "velocity": 82}, {"time": 2370, "pitch": 62, "duration": 7, "velocity": 112}, {"time": 2370, "pitch": 66, "duration": 8, "velocity": 127}, {"time": 2376, "pitch": 59, "duration": 4, "velocity": 72}, {"time": 2379, "pitch": 54, "duration": 2, "velocity": 20}, {"time": 2382, "pitch": 47, "duration": 12, "velocity": 89}, {"time": 2382, "pitch": 59, "duration": 9, "velocity": 89}, {"time": 2382, "pitch": 62, "duration": 9, "velocity": 97}, {"time": 2382, "pitch": 66, "duration": 9, "velocity": 117}, {"time": 2382, "pitch": 35, "duration": 12, "velocity": 89}, {"time": 2388, "pitch": 54, "duration": 6, "velocity": 54}, {"time": 2394, "pitch": 62, "duration": 6, "velocity": 117}, {"time": 2394, "pitch": 66, "duration": 6, "velocity": 122}, {"time": 2397, "pitch": 47, "duration": 8, "velocity": 90}, {"time": 2397, "pitch": 35, "duration": 8, "velocity": 90}, {"time": 2400, "pitch": 59, "duration": 5, "velocity": 96}, {"time": 2406, "pitch": 45, "duration": 19, "velocity": 82}, {"time": 2406, "pitch": 61, "duration": 10, "velocity": 112}, {"time": 2406, "pitch": 64, "duration": 7, "velocity": 96}, {"time": 2406, "pitch": 33, "duration": 19, "velocity": 82}, {"time": 2412, "pitch": 52, "duration": 9, "velocity": 38}, {"time": 2418, "pitch": 61, "duration": 11, "velocity": 117}, {"time": 2418, "pitch": 64, "duration": 7, "velocity": 96}, {"time": 2424, "pitch": 52, "duration": 5, "velocity": 67}, {"time": 2430, "pitch": 47, "duration": 16, "velocity": 73}, {"time": 2430, "pitch": 59, "duration": 7, "velocity": 88}, {"time": 2430, "pitch": 62, "duration": 7, "velocity": 102}, {"time": 2430, "pitch": 66, "duration": 7, "velocity": 107}, {"time": 2430, "pitch": 35, "duration": 16, "velocity": 73}, {"time": 2436, "pitch": 54, "duration": 6, "velocity": 88}, {"time": 2439, "pitch": 62, "duration": 1, "velocity": 27}, {"time": 2442, "pitch": 62, "duration": 5, "velocity": 112}, {"time": 2442, "pitch": 66, "duration": 8, "velocity": 127}, {"time": 2445, "pitch": 54, "duration": 1, "velocity": 97}, {"time": 2448, "pitch": 59, "duration": 3, "velocity": 96}, {"time": 2451, "pitch": 61, "duration": 6, "velocity": 102}, {"time": 2454, "pitch": 42, "duration": 23, "velocity": 99}, {"time": 2454, "pitch": 30, "duration": 23, "velocity": 99}, {"time": 2457, "pitch": 54, "duration": 9, "velocity": 93}, {"time": 2460, "pitch": 57, "duration": 10, "velocity": 74}, {"time": 2463, "pitch": 66, "duration": 21, "velocity": 112}, {"time": 2469, "pitch": 54, "duration": 9, "velocity": 68}, {"time": 2472, "pitch": 61, "duration": 12, "velocity": 99}, {"time": 2475, "pitch": 57, "duration": 7, "velocity": 73}, {"time": 2478, "pitch": 42, "duration": 16, "velocity": 92}, {"time": 2478, "pitch": 30, "duration": 16, "velocity": 92}, {"time": 2481, "pitch": 54, "duration": 9, "velocity": 81}, {"time": 2484, "pitch": 57, "duration": 13, "velocity": 52}, {"time": 2487, "pitch": 66, "duration": 9, "velocity": 96}, {"time": 2493, "pitch": 54, "duration": 3, "velocity": 65}, {"time": 2496, "pitch": 61, "duration": 4, "velocity": 117}, {"time": 2499, "pitch": 57, "duration": 13, "velocity": 71}, {"time": 2502, "pitch": 45, "duration": 16, "velocity": 85}, {"time": 2502, "pitch": 61, "duration": 9, "velocity": 107}, {"time": 2502, "pitch": 64, "duration": 9, "velocity": 97}, {"time": 2502, "pitch": 33, "duration": 16, "velocity": 85}, {"time": 2508, "pitch": 52, "duration": 7, "velocity": 63}, {"time": 2514, "pitch": 61, "duration": 6, "velocity": 127}, {"time": 2514, "pitch": 64, "duration": 6, "velocity": 102}, {"time": 2517, "pitch": 52, "duration": 1, "velocity": 67}, {"time": 2520, "pitch": 57, "duration": 4, "velocity": 93}, {"time": 2523, "pitch": 66, "duration": 1, "velocity": 28}, {"time": 2526, "pitch": 42, "duration": 17, "velocity": 102}, {"time": 2526, "pitch": 57, "duration": 4, "velocity": 102}, {"time": 2526, "pitch": 61, "duration": 6, "velocity": 122}, {"time": 2526, "pitch": 66, "duration": 7, "velocity": 117}, {"time": 2526, "pitch": 30, "duration": 17, "velocity": 102}, {"time": 2529, "pitch": 54, "duration": 1, "velocity": 77}, {"time": 2532, "pitch": 54, "duration": 5, "velocity": 69}, {"time": 2532, "pitch": 57, "duration": 2, "velocity": 72}, {"time": 2535, "pitch": 61, "duration": 6, "velocity": 117}, {"time": 2535, "pitch": 66, "duration": 6, "velocity": 127}, {"time": 2541, "pitch": 54, "duration": 3, "velocity": 85}, {"time": 2544, "pitch": 61, "duration": 5, "velocity": 127}, {"time": 2544, "pitch": 66, "duration": 4, "velocity": 117}, {"time": 2550, "pitch": 47, "duration": 22, "velocity": 76}, {"time": 2550, "pitch": 59, "duration": 9, "velocity": 107}, {"time": 2550, "pitch": 62, "duration": 10, "velocity": 102}, {"time": 2550, "pitch": 66, "duration": 10, "velocity": 112}, {"time": 2550, "pitch": 35, "duration": 22, "velocity": 76}, {"time": 2556, "pitch": 54, "duration": 9, "velocity": 58}, {"time": 2562, "pitch": 62, "duration": 9, "velocity": 122}, {"time": 2562, "pitch": 66, "duration": 9, "velocity": 117}, {"time": 2568, "pitch": 54, "duration": 6, "velocity": 75}, {"time": 2571, "pitch": 59, "duration": 14, "velocity": 60}, {"time": 2574, "pitch": 47, "duration": 18, "velocity": 72}, {"time": 2574, "pitch": 62, "duration": 10, "velocity": 97}, {"time": 2574, "pitch": 66, "duration": 10, "velocity": 112}, {"time": 2574, "pitch": 35, "duration": 18, "velocity": 72}, {"time": 2580, "pitch": 54, "duration": 7, "velocity": 86}, {"time": 2586, "pitch": 62, "duration": 6, "velocity": 107}, {"time": 2586, "pitch": 66, "duration": 6, "velocity": 127}, {"time": 2589, "pitch": 54, "duration": 2, "velocity": 99}, {"time": 2592, "pitch": 59, "duration": 4, "velocity": 96}, {"time": 2598, "pitch": 45, "duration": 20, "velocity": 76}, {"time": 2598, "pitch": 61, "duration": 9, "velocity": 122}, {"time": 2598, "pitch": 64, "duration": 9, "velocity": 99}, {"time": 2598, "pitch": 33, "duration": 20, "velocity": 76}, {"time": 2604, "pitch": 52, "duration": 7, "velocity": 73}, {"time": 2610, "pitch": 57, "duration": 8, "velocity": 88}, {"time": 2610, "pitch": 61, "duration": 6, "velocity": 122}, {"time": 2610, "pitch": 64, "duration": 6, "velocity": 97}, {"time": 2616, "pitch": 52, "duration": 6, "velocity": 71}, {"time": 2622, "pitch": 47, "duration": 16, "velocity": 90}, {"time": 2622, "pitch": 59, "duration": 9, "velocity": 83}, {"time": 2622, "pitch": 62, "duration": 9, "velocity": 85}, {"time": 2622, "pitch": 66, "duration": 9, "velocity": 93}, {"time": 2622, "pitch": 35, "duration": 16, "velocity": 90}, {"time": 2628, "pitch": 54, "duration": 7, "velocity": 68}, {"time": 2634, "pitch": 62, "duration": 5, "velocity": 96}, {"time": 2634, "pitch": 66, "duration": 6, "velocity": 117}, {"time": 2637, "pitch": 54, "duration": 1, "velocity": 83}, {"time": 2640, "pitch": 59, "duration": 5, "velocity": 93}, {"time": 2646, "pitch": 42, "duration": 22, "velocity": 82}, {"time": 2646, "pitch": 61, "duration": 10, "velocity": 100}, {"time": 2646, "pitch": 66, "duration": 9, "velocity": 95}, {"time": 2646, "pitch": 30, "duration": 22, "velocity": 82}, {"time": 2652, "pitch": 54, "duration": 8, "velocity": 53}, {"time": 2658, "pitch": 57, "duration": 10, "velocity": 85}, {"time": 2658, "pitch": 61, "duration": 10, "velocity": 107}, {"time": 2658, "pitch": 66, "duration": 9, "velocity": 96}, {"time": 2664, "pitch": 54, "duration": 6, "velocity": 47}, {"time": 2670, "pitch": 42, "duration": 18, "velocity": 78}, {"time": 2670, "pitch": 57, "duration": 10, "velocity": 78}, {"time": 2670, "pitch": 61, "duration": 10, "velocity": 96}, {"time": 2670, "pitch": 66, "duration": 10, "velocity": 92}, {"time": 2670, "pitch": 30, "duration": 18, "velocity": 78}, {"time": 2676, "pitch": 54, "duration": 8, "velocity": 39}, {"time": 2682, "pitch": 61, "duration": 10, "velocity": 100}, {"time": 2682, "pitch": 66, "duration": 9, "velocity": 97}, {"time": 2688, "pitch": 54, "duration": 2, "velocity": 66}, {"time": 2694, "pitch": 45, "duration": 16, "velocity": 69}, {"time": 2694, "pitch": 57, "duration": 10, "velocity": 90}, {"time": 2694, "pitch": 61, "duration": 11, "velocity": 102}, {"time": 2694, "pitch": 64, "duration": 10, "velocity": 88}, {"time": 2694, "pitch": 33, "duration": 16, "velocity": 69}, {"time": 2706, "pitch": 61, "duration": 10, "velocity": 96}, {"time": 2706, "pitch": 64, "duration": 7, "velocity": 85}, {"time": 2718, "pitch": 42, "duration": 17, "velocity": 52}, {"time": 2718, "pitch": 54, "duration": 20, "velocity": 56}, {"time": 2718, "pitch": 57, "duration": 20, "velocity": 79}, {"time": 2718, "pitch": 61, "duration": 22, "velocity": 82}, {"time": 2718, "pitch": 66, "duration": 19, "velocity": 85}, {"time": 2718, "pitch": 30, "duration": 17, "velocity": 52}, {"time": 2741, "pitch": 47, "duration": 22, "velocity": 88}, {"time": 2742, "pitch": 35, "duration": 21, "velocity": 88}, {"time": 2744, "pitch": 54, "duration": 11, "velocity": 90}, {"time": 2748, "pitch": 59, "duration": 7, "velocity": 63}, {"time": 2751, "pitch": 61, "duration": 3, "velocity": 50}, {"time": 2753, "pitch": 66, "duration": 27, "velocity": 79}, {"time": 2757, "pitch": 54, "duration": 7, "velocity": 35}, {"time": 2759, "pitch": 62, "duration": 22, "velocity": 66}, {"time": 2762, "pitch": 61, "duration": 18, "velocity": 52}, {"time": 2765, "pitch": 54, "duration": 12, "velocity": 45}, {"time": 2765, "pitch": 59, "duration": 19, "velocity": 41}, {"time": 2765, "pitch": 47, "duration": 14, "velocity": 54}, {"time": 2765, "pitch": 35, "duration": 14, "velocity": 54}, {"time": 2788, "pitch": 57, "duration": 12, "velocity": 72}, {"time": 2789, "pitch": 60, "duration": 32, "velocity": 69}, {"time": 2790, "pitch": 52, "duration": 14, "velocity": 38}, {"time": 2790, "pitch": 45, "duration": 47, "velocity": 36}, {"time": 2790, "pitch": 33, "duration": 47, "velocity": 36}, {"time": 2790, "pitch": 64, "duration": 21, "velocity": 82}, {"time": 2802, "pitch": 57, "duration": 26, "velocity": 44}, {"time": 2808, "pitch": 52, "duration": 28, "velocity": 34}, {"time": 2815, "pitch": 64, "duration": 71, "velocity": 47}, {"time": 2826, "pitch": 60, "duration": 60, "velocity": 39}, {"time": 2838, "pitch": 52, "duration": 64, "velocity": 43}, {"time": 2838, "pitch": 45, "duration": 83, "velocity": 40}, {"time": 2839, "pitch": 57, "duration": 47, "velocity": 31}, {"time": 2922, "pitch": 47, "duration": 22, "velocity": 92}, {"time": 2928, "pitch": 54, "duration": 7, "velocity": 55}, {"time": 2934, "pitch": 59, "duration": 4, "velocity": 56}, {"time": 2934, "pitch": 66, "duration": 10, "velocity": 117}, {"time": 2940, "pitch": 54, "duration": 9, "velocity": 53}, {"time": 2940, "pitch": 61, "duration": 13, "velocity": 68}, {"time": 2946, "pitch": 47, "duration": 18, "velocity": 69}, {"time": 2946, "pitch": 59, "duration": 13, "velocity": 68}, {"time": 2946, "pitch": 62, "duration": 9, "velocity": 68}, {"time": 2946, "pitch": 66, "duration": 9, "velocity": 66}, {"time": 2952, "pitch": 54, "duration": 8, "velocity": 56}, {"time": 2958, "pitch": 66, "duration": 6, "velocity": 95}, {"time": 2964, "pitch": 54, "duration": 2, "velocity": 45}, {"time": 2964, "pitch": 59, "duration": 6, "velocity": 78}, {"time": 2970, "pitch": 45, "duration": 22, "velocity": 83}, {"time": 2970, "pitch": 61, "duration": 10, "velocity": 70}, {"time": 2970, "pitch": 64, "duration": 10, "velocity": 70}, {"time": 2976, "pitch": 52, "duration": 7, "velocity": 63}, {"time": 2982, "pitch": 61, "duration": 6, "velocity": 85}, {"time": 2982, "pitch": 64, "duration": 21, "velocity": 85}, {"time": 2988, "pitch": 52, "duration": 9, "velocity": 56}, {"time": 2988, "pitch": 57, "duration": 18, "velocity": 47}, {"time": 2994, "pitch": 45, "duration": 17, "velocity": 79}, {"time": 2994, "pitch": 61, "duration": 11, "velocity": 50}, {"time": 3000, "pitch": 52, "duration": 7, "velocity": 43}, {"time": 3006, "pitch": 64, "duration": 10, "velocity": 97}, {"time": 3012, "pitch": 52, "duration": 1, "velocity": 58}, {"time": 3012, "pitch": 61, "duration": 6, "velocity": 76}, {"time": 3018, "pitch": 43, "duration": 23, "velocity": 86}, {"time": 3024, "pitch": 50, "duration": 10, "velocity": 60}, {"time": 3024, "pitch": 55, "duration": 7, "velocity": 49}, {"time": 3030, "pitch": 59, "duration": 3, "velocity": 71}, {"time": 3030, "pitch": 62, "duration": 10, "velocity": 92}, {"time": 3036, "pitch": 50, "duration": 8, "velocity": 50}, {"time": 3036, "pitch": 59, "duration": 4, "velocity": 60}, {"time": 3042, "pitch": 43, "duration": 13, "velocity": 66}, {"time": 3042, "pitch": 55, "duration": 12, "velocity": 44}, {"time": 3042, "pitch": 59, "duration": 9, "velocity": 76}, {"time": 3042, "pitch": 62, "duration": 10, "velocity": 78}, {"time": 3054, "pitch": 59, "duration": 3, "velocity": 89}, {"time": 3054, "pitch": 62, "duration": 3, "velocity": 86}, {"time": 3066, "pitch": 42, "duration": 22, "velocity": 93}, {"time": 3066, "pitch": 58, "duration": 36, "velocity": 88}, {"time": 3066, "pitch": 61, "duration": 11, "velocity": 92}, {"time": 3072, "pitch": 54, "duration": 7, "velocity": 51}, {"time": 3078, "pitch": 61, "duration": 10, "velocity": 66}, {"time": 3078, "pitch": 66, "duration": 8, "velocity": 58}, {"time": 3084, "pitch": 54, "duration": 30, "velocity": 27}, {"time": 3090, "pitch": 42, "duration": 17, "velocity": 74}, {"time": 3090, "pitch": 61, "duration": 10, "velocity": 63}, {"time": 3090, "pitch": 66, "duration": 10, "velocity": 52}, {"time": 3102, "pitch": 61, "duration": 12, "velocity": 71}, {"time": 3102, "pitch": 66, "duration": 12, "velocity": 60}, {"time": 3113, "pitch": 35, "duration": 202, "velocity": 97}, {"time": 3120, "pitch": 42, "duration": 192, "velocity": 66}, {"time": 3124, "pitch": 47, "duration": 188, "velocity": 93}, {"time": 3130, "pitch": 50, "duration": 2, "velocity": 93}, {"time": 3133, "pitch": 52, "duration": 1, "velocity": 82}, {"time": 3135, "pitch": 54, "duration": 1, "velocity": 97}, {"time": 3138, "pitch": 59, "duration": 2, "velocity": 81}, {"time": 3141, "pitch": 62, "duration": 2, "velocity": 95}, {"time": 3144, "pitch": 64, "duration": 1, "velocity": 95}, {"time": 3148, "pitch": 66, "duration": 1, "velocity": 107}, {"time": 3152, "pitch": 71, "duration": 1, "velocity": 96}, {"time": 3157, "pitch": 74, "duration": 2, "velocity": 100}, {"time": 3163, "pitch": 76, "duration": 1, "velocity": 90}, {"time": 3169, "pitch": 78, "duration": 1, "velocity": 93}, {"time": 3180, "pitch": 71, "duration": 2, "velocity": 41}, {"time": 3181, "pitch": 59, "duration": 2, "velocity": 33}, {"time": 3183, "pitch": 71, "duration": 1, "velocity": 66}, {"time": 3184, "pitch": 59, "duration": 1, "velocity": 45}, {"time": 3184, "pitch": 71, "duration": 1, "velocity": 48}, {"time": 3185, "pitch": 59, "duration": 1, "velocity": 51}, {"time": 3186, "pitch": 71, "duration": 1, "velocity": 42}, {"time": 3187, "pitch": 59, "duration": 1, "velocity": 55}, {"time": 3188, "pitch": 71, "duration": 1, "velocity": 54}, {"time": 3188, "pitch": 59, "duration": 1, "velocity": 59}, {"time": 3189, "pitch": 71, "duration": 1, "velocity": 58}, {"time": 3190, "pitch": 59, "duration": 1, "velocity": 71}, {"time": 3191, "pitch": 71, "duration": 1, "velocity": 70}, {"time": 3192, "pitch": 59, "duration": 1, "velocity": 72}, {"time": 3193, "pitch": 71, "duration": 1, "velocity": 69}, {"time": 3194, "pitch": 59, "duration": 1, "velocity": 72}, {"time": 3194, "pitch": 71, "duration": 1, "velocity": 73}, {"time": 3195, "pitch": 59, "duration": 1, "velocity": 66}, {"time": 3196, "pitch": 71, "duration": 1, "velocity": 70}, {"time": 3197, "pitch": 59, "duration": 1, "velocity": 73}, {"time": 3198, "pitch": 71, "duration": 1, "velocity": 59}, {"time": 3199, "pitch": 59, "duration": 1, "velocity": 52}, {"time": 3200, "pitch": 71, "duration": 1, "velocity": 48}, {"time": 3201, "pitch": 59, "duration": 1, "velocity": 45}, {"time": 3202, "pitch": 71, "duration": 1, "velocity": 58}, {"time": 3203, "pitch": 59, "duration": 1, "velocity": 42}, {"time": 3203, "pitch": 71, "duration": 1, "velocity": 53}, {"time": 3204, "pitch": 59, "duration": 1, "velocity": 38}, {"time": 3205, "pitch": 71, "duration": 1, "velocity": 47}, {"time": 3206, "pitch": 59, "duration": 1, "velocity": 39}, {"time": 3207, "pitch": 71, "duration": 1, "velocity": 46}, {"time": 3208, "pitch": 59, "duration": 1, "velocity": 39}, {"time": 3208, "pitch": 71, "duration": 1, "velocity": 49}, {"time": 3209, "pitch": 59, "duration": 1, "velocity": 42}, {"time": 3210, "pitch": 71, "duration": 1, "velocity": 55}, {"time": 3211, "pitch": 59, "duration": 1, "velocity": 50}, {"time": 3212, "pitch": 71, "duration": 1, "velocity": 56}, {"time": 3213, "pitch": 59, "duration": 1, "velocity": 51}, {"time": 3214, "pitch": 71, "duration": 1, "velocity": 66}, {"time": 3215, "pitch": 59, "duration": 1, "velocity": 58}, {"time": 3215, "pitch": 71, "duration": 1, "velocity": 79}, {"time": 3216, "pitch": 59, "duration": 1, "velocity": 77}, {"time": 3217, "pitch": 71, "duration": 1, "velocity": 82}, {"time": 3218, "pitch": 59, "duration": 1, "velocity": 81}, {"time": 3219, "pitch": 71, "duration": 1, "velocity": 88}, {"time": 3220, "pitch": 59, "duration": 1, "velocity": 86}, {"time": 3221, "pitch": 71, "duration": 1, "velocity": 85}, {"time": 3222, "pitch": 59, "duration": 1, "velocity": 86}, {"time": 3222, "pitch": 71, "duration": 1, "velocity": 85}, {"time": 3223, "pitch": 59, "duration": 1, "velocity": 86}, {"time": 3224, "pitch": 71, "duration": 1, "velocity": 95}, {"time": 3225, "pitch": 59, "duration": 1, "velocity": 88}, {"time": 3226, "pitch": 71, "duration": 1, "velocity": 95}, {"time": 3227, "pitch": 59, "duration": 1, "velocity": 79}, {"time": 3228, "pitch": 71, "duration": 1, "velocity": 89}, {"time": 3229, "pitch": 59, "duration": 1, "velocity": 77}, {"time": 3230, "pitch": 71, "duration": 1, "velocity": 86}, {"time": 3230, "pitch": 59, "duration": 1, "velocity": 72}, {"time": 3231, "pitch": 71, "duration": 1, "velocity": 83}, {"time": 3232, "pitch": 59, "duration": 1, "velocity": 73}, {"time": 3233, "pitch": 71, "duration": 1, "velocity": 86}, {"time": 3234, "pitch": 59, "duration": 1, "velocity": 70}, {"time": 3235, "pitch": 71, "duration": 1, "velocity": 82}, {"time": 3236, "pitch": 59, "duration": 1, "velocity": 68}, {"time": 3237, "pitch": 71, "duration": 1, "velocity": 76}, {"time": 3238, "pitch": 59, "duration": 1, "velocity": 59}, {"time": 3239, "pitch": 71, "duration": 1, "velocity": 72}, {"time": 3240, "pitch": 59, "duration": 1, "velocity": 55}, {"time": 3241, "pitch": 71, "duration": 1, "velocity": 67}, {"time": 3242, "pitch": 59, "duration": 1, "velocity": 58}, {"time": 3243, "pitch": 71, "duration": 1, "velocity": 66}, {"time": 3243, "pitch": 59, "duration": 1, "velocity": 60}, {"time": 3244, "pitch": 71, "duration": 1, "velocity": 73}, {"time": 3246, "pitch": 59, "duration": 1, "velocity": 59}, {"time": 3246, "pitch": 71, "duration": 1, "velocity": 74}, {"time": 3247, "pitch": 59, "duration": 1, "velocity": 62}, {"time": 3248, "pitch": 71, "duration": 1, "velocity": 75}, {"time": 3249, "pitch": 59, "duration": 1, "velocity": 65}, {"time": 3250, "pitch": 71, "duration": 1, "velocity": 63}, {"time": 3251, "pitch": 59, "duration": 1, "velocity": 59}, {"time": 3252, "pitch": 71, "duration": 1, "velocity": 66}, {"time": 3253, "pitch": 59, "duration": 1, "velocity": 52}, {"time": 3254, "pitch": 71, "duration": 1, "velocity": 64}, {"time": 3255, "pitch": 59, "duration": 1, "velocity": 52}, {"time": 3256, "pitch": 71, "duration": 1, "velocity": 60}, {"time": 3257, "pitch": 59, "duration": 1, "velocity": 45}, {"time": 3258, "pitch": 71, "duration": 1, "velocity": 58}, {"time": 3258, "pitch": 59, "duration": 2, "velocity": 44}, {"time": 3260, "pitch": 71, "duration": 1, "velocity": 51}, {"time": 3260, "pitch": 59, "duration": 2, "velocity": 41}, {"time": 3261, "pitch": 71, "duration": 1, "velocity": 50}, {"time": 3262, "pitch": 59, "duration": 1, "velocity": 39}, {"time": 3263, "pitch": 71, "duration": 1, "velocity": 38}, {"time": 3264, "pitch": 59, "duration": 1, "velocity": 37}, {"time": 3265, "pitch": 71, "duration": 1, "velocity": 45}, {"time": 3266, "pitch": 59, "duration": 1, "velocity": 40}, {"time": 3267, "pitch": 71, "duration": 1, "velocity": 38}, {"time": 3268, "pitch": 59, "duration": 46, "velocity": 40}, {"time": 3269, "pitch": 71, "duration": 3, "velocity": 48}, {"time": 3272, "pitch": 71, "duration": 42, "velocity": 34}], "annotations": [{"time": 41, "annotation": {"number": 64, "value": 127}, "group": "control_change"}, {"time": 76, "annotation": {"number": 64, "value": 0}, "group": "control_change"}, {"time": 78, "annotation": {"number": 64, "value": 127}, "group": "control_change"}, {"time": 125, "annotation": {"number": 64, "value": 0}, "group": "control_change"}, {"time": 127, "annotation": {"number": 64, "value": 127}, "group": "control_change"}, {"time": 174, "annotation": {"number": 64, "value": 0}, "group": "control_change"}, {"time": 175, "annotation": {"number": 64, "value": 127}, "group": "control_change"}, {"time": 220, "annotation": {"number": 64, "value": 0}, "group": "control_change"}, {"time": 222, "annotation": {"number": 64, "value": 127}, "group": "control_change"}, {"time": 269, "annotation": {"number": 64, "value": 0}, "group": "control_change"}, {"time": 271, "annotation": {"number": 64, "value": 127}, "group": "control_change"}, {"time": 316, "annotation": {"number": 64, "value": 0}, "group": "control_change"}, {"time": 318, "annotation": {"number": 64, "value": 127}, "group": "control_change"}, {"time": 364, "annotation": {"number": 64, "value": 0}, "group": "control_change"}, {"time": 366, "annotation": {"number": 64, "value": 127}, "group": "control_change"}, {"time": 388, "annotation": {"number": 64, "value": 0}, "group": "control_change"}, {"time": 390, "annotation": {"number": 64, "value": 127}, "group": "control_change"}, {"time": 412, "annotation": {"number": 64, "value": 0}, "group": "control_change"}, {"time": 414, "annotation": {"number": 64, "value": 127}, "group": "control_change"}, {"time": 435, "annotation": {"number": 64, "value": 0}, "group": "control_change"}, {"time": 438, "annotation": {"number": 64, "value": 127}, "group": "control_change"}, {"time": 460, "annotation": {"number": 64, "value": 0}, "group": "control_change"}, {"time": 462, "annotation": {"number": 64, "value": 127}, "group": "control_change"}, {"time": 483, "annotation": {"number": 64, "value": 0}, "group": "control_change"}, {"time": 486, "annotation": {"number": 64, "value": 127}, "group": "control_change"}, {"time": 507, "annotation": {"number": 64, "value": 0}, "group": "control_change"}, {"time": 510, "annotation": {"number": 64, "value": 127}, "group": "control_change"}, {"time": 532, "annotation": {"number": 64, "value": 0}, "group": "control_change"}, {"time": 534, "annotation": {"number": 64, "value": 127}, "group": "control_change"}, {"time": 555, "annotation": {"number": 64, "value": 0}, "group": "control_change"}, {"time": 558, "annotation": {"number": 64, "value": 127}, "group": "control_change"}, {"time": 580, "annotation": {"number": 64, "value": 0}, "group": "control_change"}, {"time": 583, "annotation": {"number": 64, "value": 127}, "group": "control_change"}, {"time": 603, "annotation": {"number": 64, "value": 0}, "group": "control_change"}, {"time": 607, "annotation": {"number": 64, "value": 127}, "group": "control_change"}, {"time": 627, "annotation": {"number": 64, "value": 0}, "group": "control_change"}, {"time": 630, "annotation": {"number": 64, "value": 127}, "group": "control_change"}, {"time": 651, "annotation": {"number": 64, "value": 0}, "group": "control_change"}, {"time": 654, "annotation": {"number": 64, "value": 127}, "group": "control_change"}, {"time": 676, "annotation": {"number": 64, "value": 0}, "group": "control_change"}, {"time": 679, "annotation": {"number": 64, "value": 127}, "group": "control_change"}, {"time": 699, "annotation": {"number": 64, "value": 0}, "group": "control_change"}, {"time": 702, "annotation": {"number": 64, "value": 127}, "group": "control_change"}, {"time": 723, "annotation": {"number": 64, "value": 0}, "group": "control_change"}, {"time": 726, "annotation": {"number": 64, "value": 127}, "group": "control_change"}, {"time": 747, "annotation": {"number": 64, "value": 0}, "group": "control_change"}, {"time": 750, "annotation": {"number": 64, "value": 127}, "group": "control_change"}, {"time": 772, "annotation": {"number": 64, "value": 0}, "group": "control_change"}, {"time": 776, "annotation": {"number": 64, "value": 127}, "group": "control_change"}, {"time": 785, "annotation": {"number": 64, "value": 0}, "group": "control_change"}, {"time": 846, "annotation": {"number": 64, "value": 127}, "group": "control_change"}, {"time": 867, "annotation": {"number": 64, "value": 0}, "group": "control_change"}, {"time": 870, "annotation": {"number": 64, "value": 127}, "group": "control_change"}, {"time": 891, "annotation": {"number": 64, "value": 0}, "group": "control_change"}, {"time": 894, "annotation": {"number": 64, "value": 127}, "group": "control_change"}, {"time": 915, "annotation": {"number": 64, "value": 0}, "group": "control_change"}, {"time": 918, "annotation": {"number": 64, "value": 127}, "group": "control_change"}, {"time": 939, "annotation": {"number": 64, "value": 0}, "group": "control_change"}, {"time": 942, "annotation": {"number": 64, "value": 127}, "group": "control_change"}, {"time": 988, "annotation": {"number": 64, "value": 0}, "group": "control_change"}, {"time": 990, "annotation": {"number": 64, "value": 127}, "group": "control_change"}, {"time": 1011, "annotation": {"number": 64, "value": 0}, "group": "control_change"}, {"time": 1013, "annotation": {"number": 64, "value": 127}, "group": "control_change"}, {"time": 1035, "annotation": {"number": 64, "value": 0}, "group": "control_change"}, {"time": 1037, "annotation": {"number": 64, "value": 127}, "group": "control_change"}, {"time": 1059, "annotation": {"number": 64, "value": 0}, "group": "control_change"}, {"time": 1061, "annotation": {"number": 64, "value": 127}, "group": "control_change"}, {"time": 1083, "annotation": {"number": 64, "value": 0}, "group": "control_change"}, {"time": 1086, "annotation": {"number": 64, "value": 127}, "group": "control_change"}, {"time": 1107, "annotation": {"number": 64, "value": 0}, "group": "control_change"}, {"time": 1109, "annotation": {"number": 64, "value": 127}, "group": "control_change"}, {"time": 1131, "annotation": {"number": 64, "value": 0}, "group": "control_change"}, {"time": 1134, "annotation": {"number": 64, "value": 127}, "group": "control_change"}, {"time": 1155, "annotation": {"number": 64, "value": 0}, "group": "control_change"}, {"time": 1182, "annotation": {"number": 64, "value": 127}, "group": "control_change"}, {"time": 1224, "annotation": {"number": 64, "value": 0}, "group": "control_change"}, {"time": 1230, "annotation": {"number": 64, "value": 127}, "group": "control_change"}, {"time": 1277, "annotation": {"number": 64, "value": 0}, "group": "control_change"}, {"time": 1279, "annotation": {"number": 64, "value": 127}, "group": "control_change"}, {"time": 1326, "annotation": {"number": 64, "value": 0}, "group": "control_change"}, {"time": 1327, "annotation": {"number": 64, "value": 127}, "group": "control_change"}, {"time": 1372, "annotation": {"number": 64, "value": 0}, "group": "control_change"}, {"time": 1374, "annotation": {"number": 64, "value": 127}, "group": "control_change"}, {"time": 1421, "annotation": {"number": 64, "value": 0}, "group": "control_change"}, {"time": 1423, "annotation": {"number": 64, "value": 127}, "group": "control_change"}, {"time": 1468, "annotation": {"number": 64, "value": 0}, "group": "control_change"}, {"time": 1470, "annotation": {"number": 64, "value": 127}, "group": "control_change"}, {"time": 1516, "annotation": {"number": 64, "value": 0}, "group": "control_change"}, {"time": 1518, "annotation": {"number": 64, "value": 127}, "group": "control_change"}, {"time": 1540, "annotation": {"number": 64, "value": 0}, "group": "control_change"}, {"time": 1542, "annotation": {"number": 64, "value": 127}, "group": "control_change"}, {"time": 1564, "annotation": {"number": 64, "value": 0}, "group": "control_change"}, {"time": 1566, "annotation": {"number": 64, "value": 127}, "group": "control_change"}, {"time": 1587, "annotation": {"number": 64, "value": 0}, "group": "control_change"}, {"time": 1590, "annotation": {"number": 64, "value": 127}, "group": "control_change"}, {"time": 1612, "annotation": {"number": 64, "value": 0}, "group": "control_change"}, {"time": 1614, "annotation": {"number": 64, "value": 127}, "group": "control_change"}, {"time": 1635, "annotation": {"number": 64, "value": 0}, "group": "control_change"}, {"time": 1638, "annotation": {"number": 64, "value": 127}, "group": "control_change"}, {"time": 1659, "annotation": {"number": 64, "value": 0}, "group": "control_change"}, {"time": 1662, "annotation": {"number": 64, "value": 127}, "group": "control_change"}, {"time": 1684, "annotation": {"number": 64, "value": 0}, "group": "control_change"}, {"time": 1686, "annotation": {"number": 64, "value": 127}, "group": "control_change"}, {"time": 1707, "annotation": {"number": 64, "value": 0}, "group": "control_change"}, {"time": 1710, "annotation": {"number": 64, "value": 127}, "group": "control_change"}, {"time": 1732, "annotation": {"number": 64, "value": 0}, "group": "control_change"}, {"time": 1735, "annotation": {"number": 64, "value": 127}, "group": "control_change"}, {"time": 1755, "annotation": {"number": 64, "value": 0}, "group": "control_change"}, {"time": 1759, "annotation": {"number": 64, "value": 127}, "group": "control_change"}, {"time": 1779, "annotation": {"number": 64, "value": 0}, "group": "control_change"}, {"time": 1782, "annotation": {"number": 64, "value": 127}, "group": "control_change"}, {"time": 1803, "annotation": {"number": 64, "value": 0}, "group": "control_change"}, {"time": 1806, "annotation": {"number": 64, "value": 127}, "group": "control_change"}, {"time": 1828, "annotation": {"number": 64, "value": 0}, "group": "control_change"}, {"time": 1831, "annotation": {"number": 64, "value": 127}, "group": "control_change"}, {"time": 1851, "annotation": {"number": 64, "value": 0}, "group": "control_change"}, {"time": 1854, "annotation": {"number": 64, "value": 127}, "group": "control_change"}, {"time": 1875, "annotation": {"number": 64, "value": 0}, "group": "control_change"}, {"time": 1878, "annotation": {"number": 64, "value": 127}, "group": "control_change"}, {"time": 1899, "annotation": {"number": 64, "value": 0}, "group": "control_change"}, {"time": 1902, "annotation": {"number": 64, "value": 127}, "group": "control_change"}, {"time": 1924, "annotation": {"number": 64, "value": 0}, "group": "control_change"}, {"time": 1928, "annotation": {"number": 64, "value": 127}, "group": "control_change"}, {"time": 1937, "annotation": {"number": 64, "value": 0}, "group": "control_change"}, {"time": 1998, "annotation": {"number": 64, "value": 127}, "group": "control_change"}, {"time": 2019, "annotation": {"number": 64, "value": 0}, "group": "control_change"}, {"time": 2022, "annotation": {"number": 64, "value": 127}, "group": "control_change"}, {"time": 2043, "annotation": {"number": 64, "value": 0}, "group": "control_change"}, {"time": 2046, "annotation": {"number": 64, "value": 127}, "group": "control_change"}, {"time": 2067, "annotation": {"number": 64, "value": 0}, "group": "control_change"}, {"time": 2070, "annotation": {"number": 64, "value": 127}, "group": "control_change"}, {"time": 2091, "annotation": {"number": 64, "value": 0}, "group": "control_change"}, {"time": 2094, "annotation": {"number": 64, "value": 127}, "group": "control_change"}, {"time": 2140, "annotation": {"number": 64, "value": 0}, "group": "control_change"}, {"time": 2142, "annotation": {"number": 64, "value": 127}, "group": "control_change"}, {"time": 2163, "annotation": {"number": 64, "value": 0}, "group": "control_change"}, {"time": 2165, "annotation": {"number": 64, "value": 127}, "group": "control_change"}, {"time": 2187, "annotation": {"number": 64, "value": 0}, "group": "control_change"}, {"time": 2189, "annotation": {"number": 64, "value": 127}, "group": "control_change"}, {"time": 2211, "annotation": {"number": 64, "value": 0}, "group": "control_change"}, {"time": 2213, "annotation": {"number": 64, "value": 127}, "group": "control_change"}, {"time": 2235, "annotation": {"number": 64, "value": 0}, "group": "control_change"}, {"time": 2238, "annotation": {"number": 64, "value": 127}, "group": "control_change"}, {"time": 2259, "annotation": {"number": 64, "value": 0}, "group": "control_change"}, {"time": 2261, "annotation": {"number": 64, "value": 127}, "group": "control_change"}, {"time": 2283, "annotation": {"number": 64, "value": 0}, "group": "control_change"}, {"time": 2286, "annotation": {"number": 64, "value": 127}, "group": "control_change"}, {"time": 2307, "annotation": {"number": 64, "value": 0}, "group": "control_change"}, {"time": 2336, "annotation": {"number": 64, "value": 127}, "group": "control_change"}, {"time": 2345, "annotation": {"number": 64, "value": 0}, "group": "control_change"}, {"time": 2406, "annotation": {"number": 64, "value": 127}, "group": "control_change"}, {"time": 2427, "annotation": {"number": 64, "value": 0}, "group": "control_change"}, {"time": 2430, "annotation": {"number": 64, "value": 127}, "group": "control_change"}, {"time": 2451, "annotation": {"number": 64, "value": 0}, "group": "control_change"}, {"time": 2454, "annotation": {"number": 64, "value": 127}, "group": "control_change"}, {"time": 2475, "annotation": {"number": 64, "value": 0}, "group": "control_change"}, {"time": 2478, "annotation": {"number": 64, "value": 127}, "group": "control_change"}, {"time": 2499, "annotation": {"number": 64, "value": 0}, "group": "control_change"}, {"time": 2502, "annotation": {"number": 64, "value": 127}, "group": "control_change"}, {"time": 2548, "annotation": {"number": 64, "value": 0}, "group": "control_change"}, {"time": 2550, "annotation": {"number": 64, "value": 127}, "group": "control_change"}, {"time": 2571, "annotation": {"number": 64, "value": 0}, "group": "control_change"}, {"time": 2573, "annotation": {"number": 64, "value": 127}, "group": "control_change"}, {"time": 2595, "annotation": {"number": 64, "value": 0}, "group": "control_change"}, {"time": 2597, "annotation": {"number": 64, "value": 127}, "group": "control_change"}, {"time": 2619, "annotation": {"number": 64, "value": 0}, "group": "control_change"}, {"time": 2621, "annotation": {"number": 64, "value": 127}, "group": "control_change"}, {"time": 2643, "annotation": {"number": 64, "value": 0}, "group": "control_change"}, {"time": 2646, "annotation": {"number": 64, "value": 127}, "group": "control_change"}, {"time": 2667, "annotation": {"number": 64, "value": 0}, "group": "control_change"}, {"time": 2669, "annotation": {"number": 64, "value": 127}, "group": "control_change"}, {"time": 2691, "annotation": {"number": 64, "value": 0}, "group": "control_change"}, {"time": 2694, "annotation": {"number": 64, "value": 127}, "group": "control_change"}, {"time": 2715, "annotation": {"number": 64, "value": 0}, "group": "control_change"}, {"time": 2747, "annotation": {"number": 64, "value": 127}, "group": "control_change"}, {"time": 2788, "annotation": {"number": 64, "value": 0}, "group": "control_change"}, {"time": 2791, "annotation": {"number": 64, "value": 127}, "group": "control_change"}, {"time": 2881, "annotation": {"number": 64, "value": 0}, "group": "control_change"}, {"time": 2923, "annotation": {"number": 64, "value": 127}, "group": "control_change"}, {"time": 2967, "annotation": {"number": 64, "value": 0}, "group": "control_change"}, {"time": 2970, "annotation": {"number": 64, "value": 127}, "group": "control_change"}, {"time": 3015, "annotation": {"number": 64, "value": 0}, "group": "control_change"}, {"time": 3018, "annotation": {"number": 64, "value": 127}, "group": "control_change"}, {"time": 3040, "annotation": {"number": 64, "value": 0}, "group": "control_change"}, {"time": 3042, "annotation": {"number": 64, "value": 127}, "group": "control_change"}, {"time": 3064, "annotation": {"number": 64, "value": 0}, "group": "control_change"}, {"time": 3066, "annotation": {"number": 64, "value": 127}, "group": "control_change"}, {"time": 3113, "annotation": {"number": 64, "value": 0}, "group": "control_change"}, {"time": 3113, "annotation": {"number": 64, "value": 127}, "group": "control_change"}, {"time": 3305, "annotation": {"number": 64, "value": 0}, "group": "control_change"}]}]}