{"metadata": {"schema_version": "0.2", "title": "None", "source_filename": "101.mid", "source_format": "midi"}, "resolution": 12, "tempos": [{"time": 0, "qpm": 64.05001024800164}, {"time": 1224, "qpm": 65.99999340000066}, {"time": 1248, "qpm": 64.99999458333379}, {"time": 1260, "qpm": 64.0}], "key_signatures": [{"time": 0, "root": 0, "mode": "major"}], "time_signatures": [{"time": 0, "numerator": 4, "denominator": 4}, {"time": 0, "numerator": 1, "denominator": 4}], "tracks": [{"program": 4, "is_drum": false, "name": "MELODY", "notes": [{"time": 410, "pitch": 67, "duration": 5, "velocity": 95}, {"time": 416, "pitch": 74, "duration": 1, "velocity": 100}, {"time": 419, "pitch": 74, "duration": 1, "velocity": 97}, {"time": 422, "pitch": 74, "duration": 5, "velocity": 117}, {"time": 428, "pitch": 72, "duration": 5, "velocity": 127}, {"time": 434, "pitch": 74, "duration": 3, "velocity": 100}, {"time": 437, "pitch": 72, "duration": 2, "velocity": 74}, {"time": 440, "pitch": 70, "duration": 13, "velocity": 88}, {"time": 458, "pitch": 72, "duration": 4, "velocity": 107}, {"time": 464, "pitch": 72, "duration": 10, "velocity": 99}, {"time": 476, "pitch": 69, "duration": 5, "velocity": 90}, {"time": 482, "pitch": 67, "duration": 11, "velocity": 93}, {"time": 506, "pitch": 67, "duration": 5, "velocity": 97}, {"time": 512, "pitch": 79, "duration": 1, "velocity": 95}, {"time": 515, "pitch": 79, "duration": 1, "velocity": 83}, {"time": 518, "pitch": 79, "duration": 4, "velocity": 107}, {"time": 524, "pitch": 77, "duration": 3, "velocity": 107}, {"time": 530, "pitch": 74, "duration": 7, "velocity": 100}, {"time": 536, "pitch": 74, "duration": 1, "velocity": 112}, {"time": 539, "pitch": 72, "duration": 2, "velocity": 85}, {"time": 542, "pitch": 70, "duration": 5, "velocity": 100}, {"time": 548, "pitch": 67, "duration": 6, "velocity": 89}, {"time": 554, "pitch": 74, "duration": 15, "velocity": 96}, {"time": 602, "pitch": 74, "duration": 5, "velocity": 107}, {"time": 608, "pitch": 79, "duration": 1, "velocity": 112}, {"time": 611, "pitch": 79, "duration": 1, "velocity": 76}, {"time": 614, "pitch": 79, "duration": 4, "velocity": 100}, {"time": 620, "pitch": 77, "duration": 5, "velocity": 112}, {"time": 626, "pitch": 79, "duration": 4, "velocity": 117}, {"time": 632, "pitch": 74, "duration": 7, "velocity": 100}, {"time": 650, "pitch": 77, "duration": 6, "velocity": 112}, {"time": 656, "pitch": 74, "duration": 10, "velocity": 78}, {"time": 668, "pitch": 74, "duration": 5, "velocity": 107}, {"time": 674, "pitch": 72, "duration": 18, "velocity": 107}, {"time": 698, "pitch": 72, "duration": 3, "velocity": 122}, {"time": 704, "pitch": 72, "duration": 1, "velocity": 100}, {"time": 707, "pitch": 72, "duration": 1, "velocity": 89}, {"time": 710, "pitch": 72, "duration": 4, "velocity": 96}, {"time": 716, "pitch": 72, "duration": 2, "velocity": 93}, {"time": 719, "pitch": 74, "duration": 2, "velocity": 89}, {"time": 722, "pitch": 77, "duration": 5, "velocity": 112}, {"time": 728, "pitch": 77, "duration": 3, "velocity": 107}, {"time": 734, "pitch": 70, "duration": 5, "velocity": 117}, {"time": 740, "pitch": 72, "duration": 3, "velocity": 89}, {"time": 743, "pitch": 70, "duration": 3, "velocity": 102}, {"time": 746, "pitch": 67, "duration": 29, "velocity": 97}, {"time": 794, "pitch": 67, "duration": 5, "velocity": 95}, {"time": 800, "pitch": 74, "duration": 1, "velocity": 100}, {"time": 803, "pitch": 74, "duration": 1, "velocity": 97}, {"time": 806, "pitch": 74, "duration": 5, "velocity": 117}, {"time": 812, "pitch": 72, "duration": 5, "velocity": 127}, {"time": 818, "pitch": 74, "duration": 3, "velocity": 100}, {"time": 821, "pitch": 72, "duration": 2, "velocity": 74}, {"time": 824, "pitch": 70, "duration": 13, "velocity": 88}, {"time": 842, "pitch": 72, "duration": 4, "velocity": 107}, {"time": 848, "pitch": 72, "duration": 10, "velocity": 99}, {"time": 860, "pitch": 69, "duration": 5, "velocity": 90}, {"time": 866, "pitch": 67, "duration": 11, "velocity": 93}, {"time": 890, "pitch": 67, "duration": 5, "velocity": 97}, {"time": 896, "pitch": 79, "duration": 1, "velocity": 95}, {"time": 899, "pitch": 79, "duration": 1, "velocity": 83}, {"time": 902, "pitch": 79, "duration": 4, "velocity": 107}, {"time": 908, "pitch": 77, "duration": 3, "velocity": 107}, {"time": 914, "pitch": 74, "duration": 4, "velocity": 100}, {"time": 920, "pitch": 74, "duration": 2, "velocity": 112}, {"time": 923, "pitch": 72, "duration": 2, "velocity": 85}, {"time": 926, "pitch": 70, "duration": 5, "velocity": 100}, {"time": 932, "pitch": 67, "duration": 6, "velocity": 89}, {"time": 938, "pitch": 74, "duration": 15, "velocity": 96}, {"time": 986, "pitch": 74, "duration": 5, "velocity": 107}, {"time": 992, "pitch": 79, "duration": 1, "velocity": 112}, {"time": 995, "pitch": 79, "duration": 1, "velocity": 76}, {"time": 998, "pitch": 79, "duration": 4, "velocity": 100}, {"time": 1004, "pitch": 77, "duration": 5, "velocity": 112}, {"time": 1010, "pitch": 79, "duration": 4, "velocity": 117}, {"time": 1016, "pitch": 74, "duration": 7, "velocity": 100}, {"time": 1034, "pitch": 77, "duration": 6, "velocity": 112}, {"time": 1040, "pitch": 74, "duration": 10, "velocity": 78}, {"time": 1052, "pitch": 74, "duration": 5, "velocity": 107}, {"time": 1058, "pitch": 72, "duration": 18, "velocity": 107}, {"time": 1082, "pitch": 72, "duration": 3, "velocity": 122}, {"time": 1088, "pitch": 72, "duration": 4, "velocity": 127}, {"time": 1094, "pitch": 72, "duration": 4, "velocity": 96}, {"time": 1100, "pitch": 72, "duration": 2, "velocity": 93}, {"time": 1103, "pitch": 74, "duration": 2, "velocity": 89}, {"time": 1106, "pitch": 77, "duration": 5, "velocity": 112}, {"time": 1112, "pitch": 77, "duration": 3, "velocity": 107}, {"time": 1118, "pitch": 70, "duration": 5, "velocity": 117}, {"time": 1124, "pitch": 72, "duration": 3, "velocity": 89}, {"time": 1127, "pitch": 70, "duration": 3, "velocity": 102}, {"time": 1130, "pitch": 67, "duration": 29, "velocity": 97}, {"time": 1178, "pitch": 74, "duration": 4, "velocity": 112}, {"time": 1184, "pitch": 79, "duration": 1, "velocity": 112}, {"time": 1187, "pitch": 79, "duration": 1, "velocity": 99}, {"time": 1190, "pitch": 79, "duration": 4, "velocity": 127}, {"time": 1196, "pitch": 77, "duration": 4, "velocity": 117}, {"time": 1202, "pitch": 79, "duration": 9, "velocity": 127}, {"time": 1220, "pitch": 74, "duration": 1, "velocity": 97}, {"time": 1223, "pitch": 74, "duration": 1, "velocity": 93}, {"time": 1226, "pitch": 82, "duration": 2, "velocity": 127}, {"time": 1232, "pitch": 79, "duration": 2, "velocity": 127}, {"time": 1235, "pitch": 81, "duration": 2, "velocity": 86}, {"time": 1238, "pitch": 77, "duration": 4, "velocity": 107}, {"time": 1244, "pitch": 74, "duration": 5, "velocity": 99}, {"time": 1250, "pitch": 79, "duration": 24, "velocity": 127}, {"time": 1274, "pitch": 74, "duration": 3, "velocity": 99}, {"time": 1280, "pitch": 79, "duration": 1, "velocity": 107}, {"time": 1283, "pitch": 79, "duration": 1, "velocity": 86}, {"time": 1286, "pitch": 79, "duration": 1, "velocity": 107}, {"time": 1292, "pitch": 77, "duration": 1, "velocity": 96}, {"time": 1295, "pitch": 77, "duration": 1, "velocity": 93}, {"time": 1298, "pitch": 79, "duration": 2, "velocity": 127}, {"time": 1304, "pitch": 79, "duration": 8, "velocity": 117}, {"time": 1322, "pitch": 79, "duration": 3, "velocity": 112}, {"time": 1328, "pitch": 79, "duration": 5, "velocity": 102}, {"time": 1340, "pitch": 72, "duration": 5, "velocity": 107}, {"time": 1346, "pitch": 74, "duration": 19, "velocity": 100}, {"time": 1370, "pitch": 74, "duration": 3, "velocity": 102}, {"time": 1376, "pitch": 79, "duration": 1, "velocity": 107}, {"time": 1379, "pitch": 79, "duration": 1, "velocity": 95}, {"time": 1382, "pitch": 79, "duration": 3, "velocity": 102}, {"time": 1388, "pitch": 77, "duration": 4, "velocity": 117}, {"time": 1394, "pitch": 79, "duration": 3, "velocity": 122}, {"time": 1400, "pitch": 74, "duration": 10, "velocity": 100}, {"time": 1412, "pitch": 74, "duration": 4, "velocity": 107}, {"time": 1418, "pitch": 77, "duration": 3, "velocity": 117}, {"time": 1424, "pitch": 74, "duration": 8, "velocity": 107}, {"time": 1436, "pitch": 72, "duration": 4, "velocity": 112}, {"time": 1442, "pitch": 70, "duration": 15, "velocity": 107}, {"time": 1460, "pitch": 72, "duration": 1, "velocity": 117}, {"time": 1463, "pitch": 72, "duration": 1, "velocity": 99}, {"time": 1466, "pitch": 72, "duration": 3, "velocity": 112}, {"time": 1472, "pitch": 72, "duration": 1, "velocity": 107}, {"time": 1475, "pitch": 74, "duration": 1, "velocity": 96}, {"time": 1478, "pitch": 72, "duration": 4, "velocity": 122}, {"time": 1484, "pitch": 74, "duration": 4, "velocity": 117}, {"time": 1490, "pitch": 77, "duration": 5, "velocity": 117}, {"time": 1496, "pitch": 74, "duration": 7, "velocity": 117}, {"time": 1508, "pitch": 74, "duration": 4, "velocity": 112}, {"time": 1514, "pitch": 77, "duration": 3, "velocity": 112}, {"time": 1520, "pitch": 77, "duration": 1, "velocity": 100}, {"time": 1523, "pitch": 77, "duration": 1, "velocity": 93}, {"time": 1526, "pitch": 77, "duration": 4, "velocity": 107}, {"time": 1532, "pitch": 74, "duration": 4, "velocity": 96}, {"time": 1538, "pitch": 79, "duration": 22, "velocity": 112}, {"time": 1562, "pitch": 74, "duration": 4, "velocity": 112}, {"time": 1568, "pitch": 79, "duration": 1, "velocity": 112}, {"time": 1571, "pitch": 79, "duration": 1, "velocity": 99}, {"time": 1574, "pitch": 79, "duration": 4, "velocity": 127}, {"time": 1580, "pitch": 77, "duration": 4, "velocity": 117}, {"time": 1586, "pitch": 79, "duration": 9, "velocity": 127}, {"time": 1604, "pitch": 74, "duration": 1, "velocity": 97}, {"time": 1607, "pitch": 74, "duration": 1, "velocity": 93}, {"time": 1610, "pitch": 82, "duration": 2, "velocity": 127}, {"time": 1616, "pitch": 79, "duration": 2, "velocity": 127}, {"time": 1619, "pitch": 81, "duration": 2, "velocity": 86}, {"time": 1622, "pitch": 77, "duration": 4, "velocity": 107}, {"time": 1628, "pitch": 74, "duration": 5, "velocity": 99}, {"time": 1634, "pitch": 79, "duration": 24, "velocity": 127}, {"time": 1658, "pitch": 74, "duration": 3, "velocity": 99}, {"time": 1664, "pitch": 79, "duration": 1, "velocity": 107}, {"time": 1667, "pitch": 79, "duration": 1, "velocity": 86}, {"time": 1670, "pitch": 79, "duration": 1, "velocity": 107}, {"time": 1676, "pitch": 77, "duration": 1, "velocity": 96}, {"time": 1679, "pitch": 77, "duration": 1, "velocity": 93}, {"time": 1682, "pitch": 79, "duration": 2, "velocity": 127}, {"time": 1688, "pitch": 79, "duration": 8, "velocity": 117}, {"time": 1706, "pitch": 79, "duration": 3, "velocity": 112}, {"time": 1712, "pitch": 79, "duration": 5, "velocity": 102}, {"time": 1724, "pitch": 72, "duration": 5, "velocity": 107}, {"time": 1730, "pitch": 74, "duration": 19, "velocity": 100}, {"time": 1754, "pitch": 74, "duration": 3, "velocity": 102}, {"time": 1760, "pitch": 79, "duration": 1, "velocity": 107}, {"time": 1763, "pitch": 79, "duration": 1, "velocity": 95}, {"time": 1766, "pitch": 79, "duration": 3, "velocity": 102}, {"time": 1772, "pitch": 77, "duration": 4, "velocity": 117}, {"time": 1778, "pitch": 79, "duration": 3, "velocity": 122}, {"time": 1784, "pitch": 74, "duration": 10, "velocity": 100}, {"time": 1802, "pitch": 77, "duration": 3, "velocity": 117}, {"time": 1808, "pitch": 74, "duration": 8, "velocity": 107}, {"time": 1820, "pitch": 72, "duration": 4, "velocity": 112}, {"time": 1826, "pitch": 70, "duration": 15, "velocity": 107}, {"time": 1844, "pitch": 72, "duration": 1, "velocity": 117}, {"time": 1847, "pitch": 72, "duration": 1, "velocity": 99}, {"time": 1850, "pitch": 72, "duration": 3, "velocity": 112}, {"time": 1856, "pitch": 72, "duration": 1, "velocity": 107}, {"time": 1859, "pitch": 74, "duration": 1, "velocity": 96}, {"time": 1862, "pitch": 72, "duration": 4, "velocity": 122}, {"time": 1868, "pitch": 74, "duration": 4, "velocity": 117}, {"time": 1874, "pitch": 77, "duration": 5, "velocity": 117}, {"time": 1880, "pitch": 74, "duration": 7, "velocity": 117}, {"time": 1892, "pitch": 74, "duration": 3, "velocity": 112}, {"time": 1895, "pitch": 74, "duration": 2, "velocity": 97}, {"time": 1898, "pitch": 77, "duration": 3, "velocity": 112}, {"time": 1904, "pitch": 74, "duration": 9, "velocity": 102}, {"time": 1916, "pitch": 79, "duration": 4, "velocity": 102}, {"time": 1922, "pitch": 79, "duration": 23, "velocity": 117}, {"time": 1946, "pitch": 72, "duration": 4, "velocity": 117}, {"time": 1952, "pitch": 72, "duration": 1, "velocity": 93}, {"time": 1955, "pitch": 72, "duration": 1, "velocity": 88}, {"time": 1958, "pitch": 72, "duration": 3, "velocity": 97}, {"time": 1964, "pitch": 74, "duration": 4, "velocity": 99}, {"time": 1970, "pitch": 77, "duration": 4, "velocity": 122}, {"time": 1976, "pitch": 77, "duration": 7, "velocity": 107}, {"time": 1988, "pitch": 70, "duration": 3, "velocity": 107}, {"time": 1991, "pitch": 72, "duration": 3, "velocity": 81}, {"time": 1994, "pitch": 67, "duration": 29, "velocity": 95}, {"time": 2426, "pitch": 67, "duration": 5, "velocity": 95}, {"time": 2432, "pitch": 74, "duration": 1, "velocity": 100}, {"time": 2435, "pitch": 74, "duration": 1, "velocity": 97}, {"time": 2438, "pitch": 74, "duration": 5, "velocity": 117}, {"time": 2444, "pitch": 72, "duration": 5, "velocity": 127}, {"time": 2450, "pitch": 74, "duration": 3, "velocity": 100}, {"time": 2453, "pitch": 72, "duration": 2, "velocity": 74}, {"time": 2456, "pitch": 70, "duration": 13, "velocity": 88}, {"time": 2474, "pitch": 72, "duration": 4, "velocity": 107}, {"time": 2480, "pitch": 72, "duration": 10, "velocity": 99}, {"time": 2492, "pitch": 69, "duration": 5, "velocity": 90}, {"time": 2498, "pitch": 67, "duration": 11, "velocity": 93}, {"time": 2522, "pitch": 67, "duration": 5, "velocity": 97}, {"time": 2528, "pitch": 79, "duration": 1, "velocity": 95}, {"time": 2531, "pitch": 79, "duration": 1, "velocity": 83}, {"time": 2534, "pitch": 79, "duration": 4, "velocity": 107}, {"time": 2540, "pitch": 77, "duration": 3, "velocity": 107}, {"time": 2546, "pitch": 74, "duration": 4, "velocity": 100}, {"time": 2552, "pitch": 74, "duration": 2, "velocity": 112}, {"time": 2555, "pitch": 72, "duration": 2, "velocity": 85}, {"time": 2558, "pitch": 70, "duration": 5, "velocity": 100}, {"time": 2564, "pitch": 67, "duration": 6, "velocity": 89}, {"time": 2570, "pitch": 74, "duration": 15, "velocity": 96}, {"time": 2618, "pitch": 74, "duration": 5, "velocity": 107}, {"time": 2624, "pitch": 79, "duration": 1, "velocity": 112}, {"time": 2627, "pitch": 79, "duration": 1, "velocity": 76}, {"time": 2630, "pitch": 79, "duration": 4, "velocity": 100}, {"time": 2636, "pitch": 77, "duration": 5, "velocity": 112}, {"time": 2642, "pitch": 79, "duration": 4, "velocity": 117}, {"time": 2648, "pitch": 74, "duration": 7, "velocity": 100}, {"time": 2666, "pitch": 77, "duration": 6, "velocity": 112}, {"time": 2672, "pitch": 74, "duration": 10, "velocity": 78}, {"time": 2684, "pitch": 74, "duration": 5, "velocity": 107}, {"time": 2690, "pitch": 72, "duration": 18, "velocity": 107}, {"time": 2714, "pitch": 72, "duration": 3, "velocity": 122}, {"time": 2720, "pitch": 72, "duration": 4, "velocity": 127}, {"time": 2726, "pitch": 72, "duration": 4, "velocity": 96}, {"time": 2732, "pitch": 72, "duration": 2, "velocity": 93}, {"time": 2735, "pitch": 74, "duration": 2, "velocity": 89}, {"time": 2738, "pitch": 77, "duration": 5, "velocity": 112}, {"time": 2744, "pitch": 77, "duration": 3, "velocity": 107}, {"time": 2750, "pitch": 70, "duration": 5, "velocity": 117}, {"time": 2756, "pitch": 72, "duration": 3, "velocity": 89}, {"time": 2759, "pitch": 70, "duration": 3, "velocity": 102}, {"time": 2762, "pitch": 67, "duration": 29, "velocity": 97}, {"time": 2810, "pitch": 74, "duration": 4, "velocity": 112}, {"time": 2816, "pitch": 79, "duration": 1, "velocity": 112}, {"time": 2819, "pitch": 79, "duration": 1, "velocity": 99}, {"time": 2822, "pitch": 79, "duration": 4, "velocity": 127}, {"time": 2828, "pitch": 77, "duration": 4, "velocity": 117}, {"time": 2834, "pitch": 79, "duration": 9, "velocity": 127}, {"time": 2852, "pitch": 74, "duration": 1, "velocity": 97}, {"time": 2855, "pitch": 74, "duration": 1, "velocity": 93}, {"time": 2858, "pitch": 82, "duration": 2, "velocity": 127}, {"time": 2864, "pitch": 79, "duration": 2, "velocity": 127}, {"time": 2867, "pitch": 81, "duration": 2, "velocity": 86}, {"time": 2870, "pitch": 77, "duration": 4, "velocity": 107}, {"time": 2876, "pitch": 74, "duration": 5, "velocity": 99}, {"time": 2882, "pitch": 79, "duration": 24, "velocity": 127}, {"time": 2906, "pitch": 74, "duration": 3, "velocity": 99}, {"time": 2912, "pitch": 79, "duration": 1, "velocity": 107}, {"time": 2915, "pitch": 79, "duration": 1, "velocity": 86}, {"time": 2918, "pitch": 79, "duration": 1, "velocity": 107}, {"time": 2924, "pitch": 77, "duration": 1, "velocity": 96}, {"time": 2927, "pitch": 77, "duration": 1, "velocity": 93}, {"time": 2930, "pitch": 79, "duration": 2, "velocity": 127}, {"time": 2936, "pitch": 79, "duration": 8, "velocity": 117}, {"time": 2954, "pitch": 79, "duration": 3, "velocity": 112}, {"time": 2960, "pitch": 79, "duration": 5, "velocity": 102}, {"time": 2972, "pitch": 72, "duration": 5, "velocity": 107}, {"time": 2978, "pitch": 74, "duration": 19, "velocity": 100}, {"time": 3002, "pitch": 74, "duration": 3, "velocity": 102}, {"time": 3008, "pitch": 79, "duration": 1, "velocity": 107}, {"time": 3011, "pitch": 79, "duration": 1, "velocity": 95}, {"time": 3014, "pitch": 79, "duration": 3, "velocity": 102}, {"time": 3020, "pitch": 77, "duration": 4, "velocity": 117}, {"time": 3026, "pitch": 79, "duration": 3, "velocity": 122}, {"time": 3032, "pitch": 74, "duration": 10, "velocity": 100}, {"time": 3044, "pitch": 74, "duration": 4, "velocity": 107}, {"time": 3050, "pitch": 77, "duration": 3, "velocity": 117}, {"time": 3056, "pitch": 74, "duration": 8, "velocity": 107}, {"time": 3068, "pitch": 72, "duration": 4, "velocity": 112}, {"time": 3074, "pitch": 70, "duration": 15, "velocity": 107}, {"time": 3092, "pitch": 72, "duration": 1, "velocity": 117}, {"time": 3095, "pitch": 72, "duration": 1, "velocity": 99}, {"time": 3098, "pitch": 72, "duration": 3, "velocity": 112}, {"time": 3104, "pitch": 72, "duration": 1, "velocity": 107}, {"time": 3107, "pitch": 74, "duration": 1, "velocity": 96}, {"time": 3110, "pitch": 72, "duration": 4, "velocity": 122}, {"time": 3116, "pitch": 74, "duration": 4, "velocity": 117}, {"time": 3122, "pitch": 77, "duration": 5, "velocity": 117}, {"time": 3128, "pitch": 74, "duration": 7, "velocity": 117}, {"time": 3140, "pitch": 74, "duration": 4, "velocity": 112}, {"time": 3146, "pitch": 77, "duration": 3, "velocity": 112}, {"time": 3152, "pitch": 77, "duration": 1, "velocity": 100}, {"time": 3155, "pitch": 77, "duration": 1, "velocity": 93}, {"time": 3158, "pitch": 77, "duration": 4, "velocity": 107}, {"time": 3164, "pitch": 74, "duration": 4, "velocity": 96}, {"time": 3170, "pitch": 79, "duration": 22, "velocity": 112}, {"time": 3194, "pitch": 74, "duration": 4, "velocity": 112}, {"time": 3200, "pitch": 79, "duration": 1, "velocity": 112}, {"time": 3203, "pitch": 79, "duration": 1, "velocity": 99}, {"time": 3206, "pitch": 79, "duration": 4, "velocity": 127}, {"time": 3212, "pitch": 77, "duration": 4, "velocity": 117}, {"time": 3218, "pitch": 79, "duration": 9, "velocity": 127}, {"time": 3236, "pitch": 74, "duration": 1, "velocity": 97}, {"time": 3239, "pitch": 74, "duration": 1, "velocity": 93}, {"time": 3242, "pitch": 82, "duration": 2, "velocity": 127}, {"time": 3248, "pitch": 79, "duration": 2, "velocity": 127}, {"time": 3251, "pitch": 81, "duration": 2, "velocity": 86}, {"time": 3254, "pitch": 77, "duration": 4, "velocity": 107}, {"time": 3260, "pitch": 74, "duration": 5, "velocity": 99}, {"time": 3266, "pitch": 79, "duration": 24, "velocity": 127}, {"time": 3290, "pitch": 74, "duration": 3, "velocity": 99}, {"time": 3296, "pitch": 79, "duration": 1, "velocity": 107}, {"time": 3299, "pitch": 79, "duration": 1, "velocity": 86}, {"time": 3302, "pitch": 79, "duration": 1, "velocity": 107}, {"time": 3308, "pitch": 77, "duration": 1, "velocity": 96}, {"time": 3311, "pitch": 77, "duration": 1, "velocity": 93}, {"time": 3314, "pitch": 79, "duration": 2, "velocity": 127}, {"time": 3320, "pitch": 79, "duration": 8, "velocity": 117}, {"time": 3338, "pitch": 79, "duration": 3, "velocity": 112}, {"time": 3344, "pitch": 79, "duration": 5, "velocity": 102}, {"time": 3356, "pitch": 72, "duration": 5, "velocity": 107}, {"time": 3362, "pitch": 74, "duration": 19, "velocity": 100}, {"time": 3386, "pitch": 74, "duration": 3, "velocity": 102}, {"time": 3392, "pitch": 79, "duration": 1, "velocity": 107}, {"time": 3395, "pitch": 79, "duration": 1, "velocity": 95}, {"time": 3398, "pitch": 79, "duration": 3, "velocity": 102}, {"time": 3404, "pitch": 77, "duration": 4, "velocity": 117}, {"time": 3410, "pitch": 79, "duration": 3, "velocity": 122}, {"time": 3416, "pitch": 74, "duration": 10, "velocity": 100}, {"time": 3434, "pitch": 77, "duration": 3, "velocity": 117}, {"time": 3440, "pitch": 74, "duration": 8, "velocity": 107}, {"time": 3452, "pitch": 72, "duration": 4, "velocity": 112}, {"time": 3458, "pitch": 70, "duration": 15, "velocity": 107}, {"time": 3476, "pitch": 72, "duration": 1, "velocity": 117}, {"time": 3479, "pitch": 72, "duration": 1, "velocity": 99}, {"time": 3482, "pitch": 72, "duration": 3, "velocity": 112}, {"time": 3488, "pitch": 72, "duration": 1, "velocity": 107}, {"time": 3491, "pitch": 74, "duration": 1, "velocity": 96}, {"time": 3494, "pitch": 72, "duration": 4, "velocity": 122}, {"time": 3500, "pitch": 74, "duration": 4, "velocity": 117}, {"time": 3506, "pitch": 77, "duration": 5, "velocity": 117}, {"time": 3512, "pitch": 74, "duration": 7, "velocity": 117}, {"time": 3524, "pitch": 74, "duration": 3, "velocity": 112}, {"time": 3527, "pitch": 74, "duration": 2, "velocity": 97}, {"time": 3530, "pitch": 77, "duration": 3, "velocity": 112}, {"time": 3536, "pitch": 74, "duration": 9, "velocity": 102}, {"time": 3548, "pitch": 79, "duration": 4, "velocity": 102}, {"time": 3554, "pitch": 79, "duration": 23, "velocity": 117}, {"time": 3578, "pitch": 72, "duration": 4, "velocity": 117}, {"time": 3584, "pitch": 72, "duration": 1, "velocity": 93}, {"time": 3587, "pitch": 72, "duration": 1, "velocity": 88}, {"time": 3590, "pitch": 72, "duration": 3, "velocity": 97}, {"time": 3596, "pitch": 74, "duration": 4, "velocity": 99}, {"time": 3602, "pitch": 77, "duration": 4, "velocity": 122}, {"time": 3608, "pitch": 77, "duration": 7, "velocity": 107}, {"time": 3620, "pitch": 70, "duration": 3, "velocity": 107}, {"time": 3623, "pitch": 72, "duration": 3, "velocity": 81}, {"time": 3626, "pitch": 67, "duration": 29, "velocity": 95}, {"time": 3674, "pitch": 72, "duration": 4, "velocity": 100}, {"time": 3680, "pitch": 72, "duration": 1, "velocity": 82}, {"time": 3683, "pitch": 72, "duration": 1, "velocity": 86}, {"time": 3686, "pitch": 72, "duration": 5, "velocity": 96}, {"time": 3692, "pitch": 74, "duration": 7, "velocity": 82}, {"time": 3700, "pitch": 77, "duration": 5, "velocity": 117}, {"time": 3707, "pitch": 77, "duration": 13, "velocity": 107}, {"time": 3723, "pitch": 70, "duration": 11, "velocity": 100}, {"time": 3734, "pitch": 67, "duration": 53, "velocity": 85}]}, {"program": 0, "is_drum": false, "name": "PIANO", "notes": [{"time": 2, "pitch": 43, "duration": 46, "velocity": 81}, {"time": 8, "pitch": 50, "duration": 42, "velocity": 56}, {"time": 14, "pitch": 55, "duration": 29, "velocity": 78}, {"time": 20, "pitch": 58, "duration": 3, "velocity": 86}, {"time": 23, "pitch": 60, "duration": 4, "velocity": 65}, {"time": 26, "pitch": 62, "duration": 32, "velocity": 86}, {"time": 50, "pitch": 43, "duration": 21, "velocity": 86}, {"time": 56, "pitch": 50, "duration": 16, "velocity": 50}, {"time": 62, "pitch": 58, "duration": 11, "velocity": 71}, {"time": 68, "pitch": 60, "duration": 8, "velocity": 69}, {"time": 74, "pitch": 41, "duration": 15, "velocity": 71}, {"time": 80, "pitch": 48, "duration": 9, "velocity": 51}, {"time": 86, "pitch": 57, "duration": 12, "velocity": 66}, {"time": 86, "pitch": 60, "duration": 12, "velocity": 67}, {"time": 92, "pitch": 53, "duration": 6, "velocity": 52}, {"time": 98, "pitch": 43, "duration": 22, "velocity": 76}, {"time": 104, "pitch": 50, "duration": 18, "velocity": 54}, {"time": 110, "pitch": 58, "duration": 12, "velocity": 96}, {"time": 110, "pitch": 62, "duration": 12, "velocity": 74}, {"time": 116, "pitch": 57, "duration": 6, "velocity": 51}, {"time": 122, "pitch": 39, "duration": 22, "velocity": 83}, {"time": 128, "pitch": 51, "duration": 16, "velocity": 73}, {"time": 134, "pitch": 58, "duration": 18, "velocity": 96}, {"time": 134, "pitch": 63, "duration": 18, "velocity": 90}, {"time": 140, "pitch": 55, "duration": 7, "velocity": 79}, {"time": 146, "pitch": 39, "duration": 15, "velocity": 81}, {"time": 152, "pitch": 51, "duration": 5, "velocity": 58}, {"time": 158, "pitch": 58, "duration": 13, "velocity": 96}, {"time": 158, "pitch": 63, "duration": 13, "velocity": 96}, {"time": 164, "pitch": 55, "duration": 7, "velocity": 57}, {"time": 170, "pitch": 38, "duration": 42, "velocity": 74}, {"time": 176, "pitch": 45, "duration": 9, "velocity": 57}, {"time": 182, "pitch": 53, "duration": 22, "velocity": 73}, {"time": 182, "pitch": 57, "duration": 22, "velocity": 75}, {"time": 188, "pitch": 45, "duration": 20, "velocity": 48}, {"time": 194, "pitch": 50, "duration": 10, "velocity": 90}, {"time": 206, "pitch": 53, "duration": 6, "velocity": 100}, {"time": 206, "pitch": 57, "duration": 6, "velocity": 102}, {"time": 212, "pitch": 45, "duration": 1, "velocity": 62}, {"time": 218, "pitch": 43, "duration": 40, "velocity": 74}, {"time": 218, "pitch": 58, "duration": 8, "velocity": 99}, {"time": 218, "pitch": 62, "duration": 7, "velocity": 88}, {"time": 224, "pitch": 50, "duration": 12, "velocity": 63}, {"time": 230, "pitch": 58, "duration": 7, "velocity": 88}, {"time": 230, "pitch": 62, "duration": 9, "velocity": 68}, {"time": 236, "pitch": 57, "duration": 6, "velocity": 50}, {"time": 242, "pitch": 50, "duration": 14, "velocity": 51}, {"time": 242, "pitch": 58, "duration": 10, "velocity": 92}, {"time": 242, "pitch": 62, "duration": 10, "velocity": 78}, {"time": 254, "pitch": 58, "duration": 6, "velocity": 99}, {"time": 254, "pitch": 62, "duration": 6, "velocity": 79}, {"time": 260, "pitch": 57, "duration": 6, "velocity": 73}, {"time": 266, "pitch": 34, "duration": 36, "velocity": 88}, {"time": 266, "pitch": 58, "duration": 8, "velocity": 96}, {"time": 266, "pitch": 62, "duration": 7, "velocity": 82}, {"time": 272, "pitch": 46, "duration": 7, "velocity": 63}, {"time": 278, "pitch": 58, "duration": 10, "velocity": 89}, {"time": 278, "pitch": 62, "duration": 10, "velocity": 77}, {"time": 290, "pitch": 58, "duration": 10, "velocity": 75}, {"time": 290, "pitch": 62, "duration": 10, "velocity": 74}, {"time": 302, "pitch": 58, "duration": 6, "velocity": 99}, {"time": 302, "pitch": 62, "duration": 6, "velocity": 88}, {"time": 308, "pitch": 53, "duration": 1, "velocity": 59}, {"time": 314, "pitch": 36, "duration": 15, "velocity": 74}, {"time": 314, "pitch": 51, "duration": 2, "velocity": 96}, {"time": 314, "pitch": 55, "duration": 3, "velocity": 85}, {"time": 320, "pitch": 43, "duration": 9, "velocity": 35}, {"time": 326, "pitch": 48, "duration": 2, "velocity": 46}, {"time": 326, "pitch": 60, "duration": 3, "velocity": 97}, {"time": 326, "pitch": 63, "duration": 4, "velocity": 102}, {"time": 338, "pitch": 38, "duration": 16, "velocity": 73}, {"time": 338, "pitch": 57, "duration": 10, "velocity": 81}, {"time": 338, "pitch": 62, "duration": 10, "velocity": 86}, {"time": 338, "pitch": 65, "duration": 10, "velocity": 75}, {"time": 344, "pitch": 45, "duration": 10, "velocity": 39}, {"time": 350, "pitch": 50, "duration": 6, "velocity": 56}, {"time": 350, "pitch": 62, "duration": 13, "velocity": 82}, {"time": 350, "pitch": 65, "duration": 13, "velocity": 70}, {"time": 356, "pitch": 57, "duration": 7, "velocity": 59}, {"time": 362, "pitch": 43, "duration": 44, "velocity": 89}, {"time": 368, "pitch": 50, "duration": 8, "velocity": 52}, {"time": 374, "pitch": 58, "duration": 22, "velocity": 102}, {"time": 374, "pitch": 62, "duration": 30, "velocity": 78}, {"time": 380, "pitch": 50, "duration": 29, "velocity": 54}, {"time": 386, "pitch": 57, "duration": 24, "velocity": 76}, {"time": 410, "pitch": 43, "duration": 38, "velocity": 93}, {"time": 416, "pitch": 50, "duration": 31, "velocity": 50}, {"time": 422, "pitch": 58, "duration": 10, "velocity": 99}, {"time": 422, "pitch": 62, "duration": 22, "velocity": 72}, {"time": 428, "pitch": 57, "duration": 8, "velocity": 51}, {"time": 434, "pitch": 58, "duration": 10, "velocity": 64}, {"time": 446, "pitch": 62, "duration": 13, "velocity": 93}, {"time": 452, "pitch": 58, "duration": 7, "velocity": 58}, {"time": 458, "pitch": 41, "duration": 17, "velocity": 68}, {"time": 464, "pitch": 48, "duration": 13, "velocity": 41}, {"time": 470, "pitch": 60, "duration": 13, "velocity": 89}, {"time": 476, "pitch": 57, "duration": 7, "velocity": 46}, {"time": 482, "pitch": 43, "duration": 18, "velocity": 74}, {"time": 488, "pitch": 50, "duration": 7, "velocity": 53}, {"time": 494, "pitch": 62, "duration": 7, "velocity": 100}, {"time": 497, "pitch": 50, "duration": 3, "velocity": 43}, {"time": 500, "pitch": 60, "duration": 3, "velocity": 79}, {"time": 503, "pitch": 58, "duration": 5, "velocity": 63}, {"time": 506, "pitch": 39, "duration": 22, "velocity": 83}, {"time": 512, "pitch": 51, "duration": 19, "velocity": 39}, {"time": 518, "pitch": 63, "duration": 19, "velocity": 99}, {"time": 524, "pitch": 58, "duration": 17, "velocity": 41}, {"time": 530, "pitch": 39, "duration": 19, "velocity": 74}, {"time": 536, "pitch": 51, "duration": 12, "velocity": 48}, {"time": 542, "pitch": 62, "duration": 13, "velocity": 68}, {"time": 548, "pitch": 58, "duration": 7, "velocity": 44}, {"time": 554, "pitch": 34, "duration": 14, "velocity": 89}, {"time": 560, "pitch": 46, "duration": 9, "velocity": 58}, {"time": 566, "pitch": 62, "duration": 13, "velocity": 99}, {"time": 572, "pitch": 58, "duration": 7, "velocity": 55}, {"time": 578, "pitch": 38, "duration": 14, "velocity": 77}, {"time": 584, "pitch": 45, "duration": 8, "velocity": 51}, {"time": 590, "pitch": 54, "duration": 12, "velocity": 85}, {"time": 590, "pitch": 57, "duration": 12, "velocity": 77}, {"time": 602, "pitch": 43, "duration": 41, "velocity": 74}, {"time": 608, "pitch": 50, "duration": 22, "velocity": 61}, {"time": 614, "pitch": 62, "duration": 20, "velocity": 95}, {"time": 620, "pitch": 57, "duration": 7, "velocity": 56}, {"time": 626, "pitch": 58, "duration": 10, "velocity": 56}, {"time": 632, "pitch": 50, "duration": 7, "velocity": 50}, {"time": 638, "pitch": 62, "duration": 14, "velocity": 95}, {"time": 644, "pitch": 58, "duration": 3, "velocity": 83}, {"time": 650, "pitch": 34, "duration": 13, "velocity": 70}, {"time": 650, "pitch": 58, "duration": 10, "velocity": 74}, {"time": 656, "pitch": 46, "duration": 9, "velocity": 45}, {"time": 662, "pitch": 62, "duration": 14, "velocity": 97}, {"time": 668, "pitch": 58, "duration": 8, "velocity": 52}, {"time": 674, "pitch": 41, "duration": 18, "velocity": 73}, {"time": 680, "pitch": 48, "duration": 11, "velocity": 58}, {"time": 686, "pitch": 60, "duration": 14, "velocity": 90}, {"time": 692, "pitch": 53, "duration": 7, "velocity": 63}, {"time": 698, "pitch": 36, "duration": 18, "velocity": 70}, {"time": 704, "pitch": 48, "duration": 11, "velocity": 45}, {"time": 710, "pitch": 63, "duration": 12, "velocity": 95}, {"time": 716, "pitch": 60, "duration": 6, "velocity": 66}, {"time": 722, "pitch": 38, "duration": 19, "velocity": 72}, {"time": 728, "pitch": 45, "duration": 15, "velocity": 41}, {"time": 734, "pitch": 50, "duration": 12, "velocity": 55}, {"time": 746, "pitch": 43, "duration": 46, "velocity": 79}, {"time": 752, "pitch": 50, "duration": 30, "velocity": 58}, {"time": 758, "pitch": 58, "duration": 6, "velocity": 107}, {"time": 764, "pitch": 57, "duration": 7, "velocity": 63}, {"time": 770, "pitch": 55, "duration": 9, "velocity": 83}, {"time": 782, "pitch": 58, "duration": 6, "velocity": 107}, {"time": 785, "pitch": 50, "duration": 9, "velocity": 56}, {"time": 788, "pitch": 57, "duration": 4, "velocity": 82}, {"time": 794, "pitch": 43, "duration": 38, "velocity": 93}, {"time": 794, "pitch": 57, "duration": 11, "velocity": 85}, {"time": 794, "pitch": 67, "duration": 30, "velocity": 79}, {"time": 800, "pitch": 50, "duration": 31, "velocity": 50}, {"time": 806, "pitch": 58, "duration": 10, "velocity": 99}, {"time": 806, "pitch": 62, "duration": 22, "velocity": 72}, {"time": 812, "pitch": 57, "duration": 8, "velocity": 51}, {"time": 818, "pitch": 58, "duration": 10, "velocity": 64}, {"time": 830, "pitch": 62, "duration": 13, "velocity": 93}, {"time": 836, "pitch": 43, "duration": 2, "velocity": 41}, {"time": 836, "pitch": 58, "duration": 7, "velocity": 58}, {"time": 838, "pitch": 55, "duration": 3, "velocity": 50}, {"time": 842, "pitch": 41, "duration": 17, "velocity": 68}, {"time": 848, "pitch": 48, "duration": 13, "velocity": 41}, {"time": 854, "pitch": 60, "duration": 13, "velocity": 89}, {"time": 860, "pitch": 38, "duration": 1, "velocity": 56}, {"time": 860, "pitch": 57, "duration": 7, "velocity": 46}, {"time": 866, "pitch": 43, "duration": 18, "velocity": 74}, {"time": 872, "pitch": 50, "duration": 7, "velocity": 53}, {"time": 878, "pitch": 62, "duration": 7, "velocity": 100}, {"time": 884, "pitch": 55, "duration": 2, "velocity": 63}, {"time": 884, "pitch": 60, "duration": 3, "velocity": 79}, {"time": 886, "pitch": 43, "duration": 2, "velocity": 68}, {"time": 890, "pitch": 39, "duration": 22, "velocity": 83}, {"time": 896, "pitch": 51, "duration": 19, "velocity": 39}, {"time": 902, "pitch": 63, "duration": 19, "velocity": 99}, {"time": 908, "pitch": 58, "duration": 17, "velocity": 41}, {"time": 914, "pitch": 39, "duration": 19, "velocity": 74}, {"time": 920, "pitch": 51, "duration": 12, "velocity": 48}, {"time": 926, "pitch": 62, "duration": 13, "velocity": 68}, {"time": 932, "pitch": 58, "duration": 7, "velocity": 44}, {"time": 932, "pitch": 46, "duration": 3, "velocity": 58}, {"time": 935, "pitch": 39, "duration": 1, "velocity": 58}, {"time": 938, "pitch": 34, "duration": 14, "velocity": 89}, {"time": 944, "pitch": 46, "duration": 9, "velocity": 58}, {"time": 950, "pitch": 62, "duration": 13, "velocity": 99}, {"time": 956, "pitch": 58, "duration": 7, "velocity": 55}, {"time": 956, "pitch": 34, "duration": 3, "velocity": 63}, {"time": 958, "pitch": 46, "duration": 3, "velocity": 53}, {"time": 962, "pitch": 38, "duration": 14, "velocity": 77}, {"time": 968, "pitch": 45, "duration": 8, "velocity": 51}, {"time": 974, "pitch": 54, "duration": 12, "velocity": 85}, {"time": 974, "pitch": 57, "duration": 12, "velocity": 77}, {"time": 980, "pitch": 45, "duration": 3, "velocity": 72}, {"time": 982, "pitch": 38, "duration": 3, "velocity": 55}, {"time": 986, "pitch": 43, "duration": 41, "velocity": 74}, {"time": 986, "pitch": 69, "duration": 11, "velocity": 97}, {"time": 992, "pitch": 50, "duration": 22, "velocity": 61}, {"time": 998, "pitch": 62, "duration": 20, "velocity": 95}, {"time": 1004, "pitch": 57, "duration": 7, "velocity": 56}, {"time": 1004, "pitch": 69, "duration": 17, "velocity": 71}, {"time": 1010, "pitch": 58, "duration": 10, "velocity": 56}, {"time": 1016, "pitch": 50, "duration": 7, "velocity": 50}, {"time": 1022, "pitch": 62, "duration": 14, "velocity": 95}, {"time": 1028, "pitch": 50, "duration": 3, "velocity": 74}, {"time": 1028, "pitch": 58, "duration": 3, "velocity": 83}, {"time": 1031, "pitch": 43, "duration": 3, "velocity": 44}, {"time": 1034, "pitch": 34, "duration": 13, "velocity": 70}, {"time": 1034, "pitch": 58, "duration": 10, "velocity": 74}, {"time": 1040, "pitch": 46, "duration": 9, "velocity": 45}, {"time": 1046, "pitch": 62, "duration": 14, "velocity": 97}, {"time": 1052, "pitch": 34, "duration": 6, "velocity": 53}, {"time": 1052, "pitch": 58, "duration": 8, "velocity": 52}, {"time": 1058, "pitch": 41, "duration": 18, "velocity": 73}, {"time": 1064, "pitch": 48, "duration": 11, "velocity": 58}, {"time": 1070, "pitch": 60, "duration": 14, "velocity": 90}, {"time": 1076, "pitch": 48, "duration": 3, "velocity": 51}, {"time": 1076, "pitch": 53, "duration": 7, "velocity": 63}, {"time": 1079, "pitch": 41, "duration": 1, "velocity": 50}, {"time": 1082, "pitch": 36, "duration": 18, "velocity": 70}, {"time": 1088, "pitch": 48, "duration": 11, "velocity": 45}, {"time": 1094, "pitch": 63, "duration": 12, "velocity": 95}, {"time": 1100, "pitch": 60, "duration": 6, "velocity": 66}, {"time": 1106, "pitch": 38, "duration": 19, "velocity": 72}, {"time": 1112, "pitch": 45, "duration": 15, "velocity": 41}, {"time": 1118, "pitch": 50, "duration": 9, "velocity": 55}, {"time": 1124, "pitch": 50, "duration": 3, "velocity": 64}, {"time": 1126, "pitch": 38, "duration": 2, "velocity": 76}, {"time": 1130, "pitch": 43, "duration": 44, "velocity": 71}, {"time": 1136, "pitch": 50, "duration": 41, "velocity": 58}, {"time": 1142, "pitch": 58, "duration": 5, "velocity": 122}, {"time": 1142, "pitch": 62, "duration": 7, "velocity": 100}, {"time": 1148, "pitch": 55, "duration": 4, "velocity": 81}, {"time": 1151, "pitch": 57, "duration": 1, "velocity": 95}, {"time": 1151, "pitch": 60, "duration": 1, "velocity": 93}, {"time": 1154, "pitch": 55, "duration": 3, "velocity": 73}, {"time": 1154, "pitch": 58, "duration": 1, "velocity": 52}, {"time": 1154, "pitch": 70, "duration": 1, "velocity": 43}, {"time": 1157, "pitch": 55, "duration": 1, "velocity": 68}, {"time": 1157, "pitch": 58, "duration": 1, "velocity": 117}, {"time": 1157, "pitch": 70, "duration": 1, "velocity": 97}, {"time": 1163, "pitch": 60, "duration": 1, "velocity": 90}, {"time": 1163, "pitch": 72, "duration": 1, "velocity": 83}, {"time": 1166, "pitch": 62, "duration": 2, "velocity": 102}, {"time": 1166, "pitch": 74, "duration": 1, "velocity": 107}, {"time": 1169, "pitch": 55, "duration": 2, "velocity": 95}, {"time": 1172, "pitch": 63, "duration": 1, "velocity": 127}, {"time": 1172, "pitch": 75, "duration": 1, "velocity": 97}, {"time": 1178, "pitch": 43, "duration": 23, "velocity": 83}, {"time": 1178, "pitch": 55, "duration": 7, "velocity": 102}, {"time": 1178, "pitch": 58, "duration": 7, "velocity": 117}, {"time": 1178, "pitch": 62, "duration": 8, "velocity": 99}, {"time": 1184, "pitch": 50, "duration": 8, "velocity": 52}, {"time": 1190, "pitch": 58, "duration": 7, "velocity": 127}, {"time": 1190, "pitch": 62, "duration": 8, "velocity": 102}, {"time": 1196, "pitch": 50, "duration": 4, "velocity": 28}, {"time": 1196, "pitch": 55, "duration": 4, "velocity": 68}, {"time": 1199, "pitch": 58, "duration": 3, "velocity": 97}, {"time": 1199, "pitch": 62, "duration": 3, "velocity": 82}, {"time": 1202, "pitch": 43, "duration": 14, "velocity": 89}, {"time": 1208, "pitch": 50, "duration": 8, "velocity": 66}, {"time": 1214, "pitch": 55, "duration": 1, "velocity": 95}, {"time": 1214, "pitch": 67, "duration": 6, "velocity": 117}, {"time": 1214, "pitch": 70, "duration": 7, "velocity": 127}, {"time": 1220, "pitch": 55, "duration": 3, "velocity": 72}, {"time": 1222, "pitch": 43, "duration": 3, "velocity": 74}, {"time": 1226, "pitch": 39, "duration": 18, "velocity": 99}, {"time": 1226, "pitch": 63, "duration": 7, "velocity": 100}, {"time": 1226, "pitch": 67, "duration": 7, "velocity": 97}, {"time": 1226, "pitch": 70, "duration": 7, "velocity": 102}, {"time": 1232, "pitch": 51, "duration": 8, "velocity": 78}, {"time": 1238, "pitch": 63, "duration": 6, "velocity": 107}, {"time": 1238, "pitch": 67, "duration": 2, "velocity": 117}, {"time": 1238, "pitch": 70, "duration": 7, "velocity": 117}, {"time": 1241, "pitch": 67, "duration": 3, "velocity": 24}, {"time": 1244, "pitch": 51, "duration": 1, "velocity": 52}, {"time": 1244, "pitch": 39, "duration": 3, "velocity": 79}, {"time": 1247, "pitch": 51, "duration": 2, "velocity": 69}, {"time": 1250, "pitch": 43, "duration": 13, "velocity": 78}, {"time": 1250, "pitch": 62, "duration": 5, "velocity": 95}, {"time": 1250, "pitch": 67, "duration": 4, "velocity": 100}, {"time": 1250, "pitch": 70, "duration": 4, "velocity": 127}, {"time": 1256, "pitch": 50, "duration": 6, "velocity": 71}, {"time": 1262, "pitch": 58, "duration": 6, "velocity": 122}, {"time": 1262, "pitch": 62, "duration": 6, "velocity": 97}, {"time": 1268, "pitch": 39, "duration": 1, "velocity": 73}, {"time": 1268, "pitch": 55, "duration": 4, "velocity": 92}, {"time": 1274, "pitch": 39, "duration": 21, "velocity": 97}, {"time": 1274, "pitch": 55, "duration": 9, "velocity": 102}, {"time": 1274, "pitch": 58, "duration": 10, "velocity": 122}, {"time": 1274, "pitch": 62, "duration": 9, "velocity": 92}, {"time": 1280, "pitch": 51, "duration": 8, "velocity": 73}, {"time": 1286, "pitch": 55, "duration": 8, "velocity": 90}, {"time": 1286, "pitch": 58, "duration": 7, "velocity": 117}, {"time": 1286, "pitch": 62, "duration": 8, "velocity": 100}, {"time": 1292, "pitch": 51, "duration": 6, "velocity": 48}, {"time": 1293, "pitch": 39, "duration": 2, "velocity": 72}, {"time": 1295, "pitch": 51, "duration": 3, "velocity": 67}, {"time": 1298, "pitch": 55, "duration": 10, "velocity": 90}, {"time": 1298, "pitch": 58, "duration": 10, "velocity": 112}, {"time": 1298, "pitch": 62, "duration": 10, "velocity": 95}, {"time": 1298, "pitch": 39, "duration": 13, "velocity": 72}, {"time": 1304, "pitch": 51, "duration": 6, "velocity": 77}, {"time": 1310, "pitch": 58, "duration": 6, "velocity": 122}, {"time": 1310, "pitch": 62, "duration": 7, "velocity": 99}, {"time": 1316, "pitch": 55, "duration": 5, "velocity": 90}, {"time": 1316, "pitch": 46, "duration": 3, "velocity": 79}, {"time": 1319, "pitch": 39, "duration": 3, "velocity": 67}, {"time": 1322, "pitch": 36, "duration": 19, "velocity": 90}, {"time": 1322, "pitch": 55, "duration": 4, "velocity": 86}, {"time": 1322, "pitch": 60, "duration": 4, "velocity": 107}, {"time": 1322, "pitch": 63, "duration": 4, "velocity": 127}, {"time": 1328, "pitch": 43, "duration": 8, "velocity": 69}, {"time": 1334, "pitch": 48, "duration": 3, "velocity": 100}, {"time": 1334, "pitch": 51, "duration": 3, "velocity": 127}, {"time": 1334, "pitch": 55, "duration": 4, "velocity": 97}, {"time": 1340, "pitch": 43, "duration": 4, "velocity": 58}, {"time": 1340, "pitch": 36, "duration": 1, "velocity": 85}, {"time": 1343, "pitch": 53, "duration": 1, "velocity": 50}, {"time": 1343, "pitch": 48, "duration": 4, "velocity": 75}, {"time": 1346, "pitch": 38, "duration": 18, "velocity": 95}, {"time": 1346, "pitch": 50, "duration": 1, "velocity": 102}, {"time": 1346, "pitch": 53, "duration": 1, "velocity": 102}, {"time": 1346, "pitch": 57, "duration": 1, "velocity": 102}, {"time": 1349, "pitch": 45, "duration": 16, "velocity": 90}, {"time": 1352, "pitch": 50, "duration": 6, "velocity": 100}, {"time": 1355, "pitch": 62, "duration": 1, "velocity": 96}, {"time": 1355, "pitch": 65, "duration": 1, "velocity": 90}, {"time": 1355, "pitch": 69, "duration": 1, "velocity": 96}, {"time": 1361, "pitch": 50, "duration": 3, "velocity": 45}, {"time": 1361, "pitch": 74, "duration": 1, "velocity": 86}, {"time": 1361, "pitch": 77, "duration": 1, "velocity": 96}, {"time": 1361, "pitch": 81, "duration": 1, "velocity": 95}, {"time": 1364, "pitch": 50, "duration": 5, "velocity": 68}, {"time": 1364, "pitch": 74, "duration": 1, "velocity": 97}, {"time": 1364, "pitch": 77, "duration": 1, "velocity": 122}, {"time": 1364, "pitch": 81, "duration": 1, "velocity": 117}, {"time": 1370, "pitch": 43, "duration": 22, "velocity": 90}, {"time": 1376, "pitch": 50, "duration": 18, "velocity": 59}, {"time": 1382, "pitch": 55, "duration": 3, "velocity": 99}, {"time": 1382, "pitch": 58, "duration": 7, "velocity": 117}, {"time": 1382, "pitch": 62, "duration": 8, "velocity": 99}, {"time": 1388, "pitch": 55, "duration": 5, "velocity": 72}, {"time": 1391, "pitch": 58, "duration": 1, "velocity": 65}, {"time": 1391, "pitch": 62, "duration": 1, "velocity": 45}, {"time": 1394, "pitch": 43, "duration": 17, "velocity": 85}, {"time": 1394, "pitch": 55, "duration": 2, "velocity": 95}, {"time": 1394, "pitch": 58, "duration": 2, "velocity": 122}, {"time": 1394, "pitch": 62, "duration": 2, "velocity": 92}, {"time": 1400, "pitch": 50, "duration": 10, "velocity": 51}, {"time": 1406, "pitch": 62, "duration": 3, "velocity": 99}, {"time": 1406, "pitch": 67, "duration": 6, "velocity": 122}, {"time": 1406, "pitch": 70, "duration": 6, "velocity": 127}, {"time": 1412, "pitch": 62, "duration": 1, "velocity": 97}, {"time": 1412, "pitch": 50, "duration": 4, "velocity": 87}, {"time": 1415, "pitch": 38, "duration": 3, "velocity": 67}, {"time": 1418, "pitch": 34, "duration": 1, "velocity": 122}, {"time": 1418, "pitch": 58, "duration": 7, "velocity": 122}, {"time": 1418, "pitch": 62, "duration": 9, "velocity": 102}, {"time": 1418, "pitch": 65, "duration": 7, "velocity": 92}, {"time": 1424, "pitch": 46, "duration": 8, "velocity": 50}, {"time": 1430, "pitch": 58, "duration": 6, "velocity": 127}, {"time": 1430, "pitch": 62, "duration": 6, "velocity": 99}, {"time": 1430, "pitch": 65, "duration": 5, "velocity": 93}, {"time": 1436, "pitch": 46, "duration": 1, "velocity": 102}, {"time": 1439, "pitch": 39, "duration": 3, "velocity": 72}, {"time": 1442, "pitch": 39, "duration": 1, "velocity": 97}, {"time": 1442, "pitch": 55, "duration": 7, "velocity": 92}, {"time": 1442, "pitch": 58, "duration": 8, "velocity": 112}, {"time": 1442, "pitch": 63, "duration": 7, "velocity": 100}, {"time": 1448, "pitch": 51, "duration": 7, "velocity": 99}, {"time": 1454, "pitch": 58, "duration": 6, "velocity": 127}, {"time": 1454, "pitch": 63, "duration": 8, "velocity": 127}, {"time": 1457, "pitch": 51, "duration": 2, "velocity": 93}, {"time": 1460, "pitch": 55, "duration": 5, "velocity": 100}, {"time": 1463, "pitch": 58, "duration": 2, "velocity": 96}, {"time": 1466, "pitch": 36, "duration": 16, "velocity": 89}, {"time": 1466, "pitch": 55, "duration": 7, "velocity": 56}, {"time": 1466, "pitch": 60, "duration": 9, "velocity": 100}, {"time": 1466, "pitch": 63, "duration": 10, "velocity": 117}, {"time": 1472, "pitch": 43, "duration": 11, "velocity": 47}, {"time": 1475, "pitch": 48, "duration": 5, "velocity": 99}, {"time": 1478, "pitch": 60, "duration": 6, "velocity": 127}, {"time": 1478, "pitch": 63, "duration": 1, "velocity": 73}, {"time": 1481, "pitch": 48, "duration": 8, "velocity": 90}, {"time": 1484, "pitch": 55, "duration": 6, "velocity": 99}, {"time": 1490, "pitch": 41, "duration": 17, "velocity": 75}, {"time": 1490, "pitch": 57, "duration": 10, "velocity": 102}, {"time": 1490, "pitch": 60, "duration": 10, "velocity": 85}, {"time": 1496, "pitch": 48, "duration": 7, "velocity": 54}, {"time": 1502, "pitch": 57, "duration": 6, "velocity": 99}, {"time": 1502, "pitch": 60, "duration": 6, "velocity": 97}, {"time": 1505, "pitch": 48, "duration": 2, "velocity": 95}, {"time": 1508, "pitch": 53, "duration": 4, "velocity": 90}, {"time": 1511, "pitch": 57, "duration": 4, "velocity": 61}, {"time": 1514, "pitch": 38, "duration": 17, "velocity": 93}, {"time": 1517, "pitch": 45, "duration": 14, "velocity": 64}, {"time": 1520, "pitch": 50, "duration": 7, "velocity": 96}, {"time": 1523, "pitch": 53, "duration": 3, "velocity": 95}, {"time": 1526, "pitch": 57, "duration": 4, "velocity": 92}, {"time": 1529, "pitch": 50, "duration": 8, "velocity": 81}, {"time": 1532, "pitch": 53, "duration": 2, "velocity": 96}, {"time": 1535, "pitch": 62, "duration": 1, "velocity": 67}, {"time": 1538, "pitch": 43, "duration": 21, "velocity": 99}, {"time": 1538, "pitch": 55, "duration": 1, "velocity": 97}, {"time": 1538, "pitch": 62, "duration": 1, "velocity": 99}, {"time": 1541, "pitch": 50, "duration": 18, "velocity": 74}, {"time": 1544, "pitch": 55, "duration": 7, "velocity": 102}, {"time": 1547, "pitch": 70, "duration": 1, "velocity": 127}, {"time": 1547, "pitch": 74, "duration": 1, "velocity": 99}, {"time": 1550, "pitch": 70, "duration": 3, "velocity": 127}, {"time": 1550, "pitch": 74, "duration": 4, "velocity": 122}, {"time": 1553, "pitch": 55, "duration": 2, "velocity": 100}, {"time": 1556, "pitch": 69, "duration": 3, "velocity": 102}, {"time": 1556, "pitch": 72, "duration": 2, "velocity": 102}, {"time": 1556, "pitch": 50, "duration": 3, "velocity": 71}, {"time": 1559, "pitch": 55, "duration": 3, "velocity": 77}, {"time": 1559, "pitch": 70, "duration": 2, "velocity": 99}, {"time": 1559, "pitch": 72, "duration": 1, "velocity": 42}, {"time": 1559, "pitch": 74, "duration": 2, "velocity": 92}, {"time": 1562, "pitch": 43, "duration": 22, "velocity": 100}, {"time": 1562, "pitch": 70, "duration": 10, "velocity": 127}, {"time": 1562, "pitch": 74, "duration": 10, "velocity": 102}, {"time": 1568, "pitch": 50, "duration": 16, "velocity": 45}, {"time": 1571, "pitch": 55, "duration": 5, "velocity": 77}, {"time": 1574, "pitch": 70, "duration": 7, "velocity": 127}, {"time": 1574, "pitch": 74, "duration": 8, "velocity": 117}, {"time": 1577, "pitch": 55, "duration": 3, "velocity": 53}, {"time": 1580, "pitch": 67, "duration": 7, "velocity": 73}, {"time": 1580, "pitch": 50, "duration": 4, "velocity": 71}, {"time": 1583, "pitch": 55, "duration": 3, "velocity": 47}, {"time": 1586, "pitch": 43, "duration": 16, "velocity": 89}, {"time": 1586, "pitch": 70, "duration": 2, "velocity": 97}, {"time": 1586, "pitch": 74, "duration": 2, "velocity": 90}, {"time": 1589, "pitch": 50, "duration": 13, "velocity": 89}, {"time": 1592, "pitch": 55, "duration": 7, "velocity": 99}, {"time": 1595, "pitch": 62, "duration": 5, "velocity": 92}, {"time": 1598, "pitch": 70, "duration": 5, "velocity": 127}, {"time": 1601, "pitch": 55, "duration": 1, "velocity": 88}, {"time": 1601, "pitch": 67, "duration": 4, "velocity": 97}, {"time": 1604, "pitch": 65, "duration": 3, "velocity": 100}, {"time": 1604, "pitch": 55, "duration": 3, "velocity": 75}, {"time": 1607, "pitch": 62, "duration": 4, "velocity": 89}, {"time": 1607, "pitch": 43, "duration": 3, "velocity": 64}, {"time": 1610, "pitch": 39, "duration": 17, "velocity": 93}, {"time": 1610, "pitch": 67, "duration": 1, "velocity": 107}, {"time": 1616, "pitch": 51, "duration": 7, "velocity": 59}, {"time": 1619, "pitch": 55, "duration": 2, "velocity": 41}, {"time": 1622, "pitch": 58, "duration": 7, "velocity": 122}, {"time": 1622, "pitch": 63, "duration": 6, "velocity": 117}, {"time": 1625, "pitch": 51, "duration": 3, "velocity": 88}, {"time": 1628, "pitch": 55, "duration": 5, "velocity": 88}, {"time": 1628, "pitch": 39, "duration": 3, "velocity": 77}, {"time": 1631, "pitch": 51, "duration": 2, "velocity": 65}, {"time": 1634, "pitch": 43, "duration": 17, "velocity": 82}, {"time": 1634, "pitch": 55, "duration": 1, "velocity": 74}, {"time": 1634, "pitch": 58, "duration": 7, "velocity": 112}, {"time": 1634, "pitch": 62, "duration": 7, "velocity": 92}, {"time": 1637, "pitch": 50, "duration": 10, "velocity": 63}, {"time": 1640, "pitch": 55, "duration": 6, "velocity": 93}, {"time": 1643, "pitch": 57, "duration": 4, "velocity": 96}, {"time": 1646, "pitch": 58, "duration": 7, "velocity": 127}, {"time": 1649, "pitch": 50, "duration": 1, "velocity": 89}, {"time": 1652, "pitch": 62, "duration": 4, "velocity": 96}, {"time": 1652, "pitch": 55, "duration": 4, "velocity": 79}, {"time": 1655, "pitch": 55, "duration": 1, "velocity": 66}, {"time": 1655, "pitch": 43, "duration": 3, "velocity": 62}, {"time": 1658, "pitch": 39, "duration": 22, "velocity": 100}, {"time": 1658, "pitch": 55, "duration": 11, "velocity": 67}, {"time": 1658, "pitch": 58, "duration": 10, "velocity": 95}, {"time": 1658, "pitch": 62, "duration": 11, "velocity": 88}, {"time": 1664, "pitch": 51, "duration": 7, "velocity": 66}, {"time": 1670, "pitch": 55, "duration": 11, "velocity": 72}, {"time": 1670, "pitch": 58, "duration": 7, "velocity": 90}, {"time": 1670, "pitch": 62, "duration": 11, "velocity": 78}, {"time": 1670, "pitch": 67, "duration": 8, "velocity": 78}, {"time": 1676, "pitch": 51, "duration": 6, "velocity": 81}, {"time": 1676, "pitch": 39, "duration": 4, "velocity": 72}, {"time": 1679, "pitch": 67, "duration": 2, "velocity": 27}, {"time": 1679, "pitch": 51, "duration": 3, "velocity": 72}, {"time": 1682, "pitch": 39, "duration": 16, "velocity": 89}, {"time": 1682, "pitch": 55, "duration": 10, "velocity": 78}, {"time": 1682, "pitch": 58, "duration": 6, "velocity": 92}, {"time": 1682, "pitch": 62, "duration": 8, "velocity": 77}, {"time": 1682, "pitch": 67, "duration": 7, "velocity": 77}, {"time": 1688, "pitch": 51, "duration": 8, "velocity": 63}, {"time": 1694, "pitch": 55, "duration": 1, "velocity": 74}, {"time": 1694, "pitch": 58, "duration": 6, "velocity": 117}, {"time": 1694, "pitch": 62, "duration": 6, "velocity": 97}, {"time": 1694, "pitch": 67, "duration": 6, "velocity": 92}, {"time": 1700, "pitch": 55, "duration": 1, "velocity": 86}, {"time": 1700, "pitch": 51, "duration": 4, "velocity": 81}, {"time": 1703, "pitch": 39, "duration": 3, "velocity": 68}, {"time": 1706, "pitch": 36, "duration": 20, "velocity": 74}, {"time": 1706, "pitch": 48, "duration": 2, "velocity": 100}, {"time": 1706, "pitch": 51, "duration": 1, "velocity": 102}, {"time": 1706, "pitch": 55, "duration": 2, "velocity": 96}, {"time": 1712, "pitch": 43, "duration": 8, "velocity": 37}, {"time": 1718, "pitch": 48, "duration": 5, "velocity": 85}, {"time": 1718, "pitch": 60, "duration": 6, "velocity": 117}, {"time": 1718, "pitch": 63, "duration": 6, "velocity": 127}, {"time": 1718, "pitch": 67, "duration": 6, "velocity": 97}, {"time": 1724, "pitch": 43, "duration": 6, "velocity": 79}, {"time": 1724, "pitch": 48, "duration": 4, "velocity": 80}, {"time": 1727, "pitch": 36, "duration": 3, "velocity": 65}, {"time": 1730, "pitch": 38, "duration": 17, "velocity": 86}, {"time": 1730, "pitch": 62, "duration": 8, "velocity": 117}, {"time": 1730, "pitch": 65, "duration": 8, "velocity": 112}, {"time": 1730, "pitch": 69, "duration": 8, "velocity": 112}, {"time": 1733, "pitch": 45, "duration": 15, "velocity": 85}, {"time": 1736, "pitch": 50, "duration": 7, "velocity": 88}, {"time": 1739, "pitch": 69, "duration": 1, "velocity": 28}, {"time": 1742, "pitch": 62, "duration": 4, "velocity": 112}, {"time": 1742, "pitch": 65, "duration": 7, "velocity": 117}, {"time": 1742, "pitch": 69, "duration": 8, "velocity": 100}, {"time": 1745, "pitch": 50, "duration": 2, "velocity": 97}, {"time": 1745, "pitch": 38, "duration": 2, "velocity": 81}, {"time": 1748, "pitch": 62, "duration": 5, "velocity": 100}, {"time": 1748, "pitch": 50, "duration": 7, "velocity": 77}, {"time": 1754, "pitch": 43, "duration": 22, "velocity": 81}, {"time": 1754, "pitch": 62, "duration": 6, "velocity": 81}, {"time": 1754, "pitch": 67, "duration": 5, "velocity": 99}, {"time": 1754, "pitch": 70, "duration": 5, "velocity": 122}, {"time": 1760, "pitch": 50, "duration": 7, "velocity": 60}, {"time": 1766, "pitch": 58, "duration": 4, "velocity": 127}, {"time": 1766, "pitch": 62, "duration": 6, "velocity": 97}, {"time": 1769, "pitch": 50, "duration": 9, "velocity": 32}, {"time": 1772, "pitch": 57, "duration": 7, "velocity": 92}, {"time": 1772, "pitch": 60, "duration": 5, "velocity": 83}, {"time": 1773, "pitch": 55, "duration": 3, "velocity": 76}, {"time": 1775, "pitch": 43, "duration": 1, "velocity": 56}, {"time": 1778, "pitch": 43, "duration": 19, "velocity": 90}, {"time": 1778, "pitch": 58, "duration": 1, "velocity": 117}, {"time": 1778, "pitch": 62, "duration": 1, "velocity": 88}, {"time": 1784, "pitch": 50, "duration": 8, "velocity": 43}, {"time": 1790, "pitch": 55, "duration": 7, "velocity": 81}, {"time": 1790, "pitch": 70, "duration": 6, "velocity": 127}, {"time": 1790, "pitch": 74, "duration": 2, "velocity": 97}, {"time": 1796, "pitch": 50, "duration": 2, "velocity": 36}, {"time": 1796, "pitch": 67, "duration": 4, "velocity": 96}, {"time": 1796, "pitch": 55, "duration": 1, "velocity": 81}, {"time": 1799, "pitch": 69, "duration": 2, "velocity": 102}, {"time": 1799, "pitch": 50, "duration": 3, "velocity": 55}, {"time": 1802, "pitch": 46, "duration": 16, "velocity": 112}, {"time": 1802, "pitch": 70, "duration": 6, "velocity": 112}, {"time": 1808, "pitch": 58, "duration": 7, "velocity": 82}, {"time": 1814, "pitch": 70, "duration": 5, "velocity": 127}, {"time": 1814, "pitch": 74, "duration": 6, "velocity": 96}, {"time": 1817, "pitch": 58, "duration": 1, "velocity": 90}, {"time": 1820, "pitch": 46, "duration": 4, "velocity": 79}, {"time": 1823, "pitch": 39, "duration": 1, "velocity": 55}, {"time": 1826, "pitch": 39, "duration": 17, "velocity": 97}, {"time": 1826, "pitch": 63, "duration": 7, "velocity": 97}, {"time": 1826, "pitch": 67, "duration": 7, "velocity": 89}, {"time": 1826, "pitch": 70, "duration": 8, "velocity": 93}, {"time": 1832, "pitch": 51, "duration": 6, "velocity": 69}, {"time": 1838, "pitch": 67, "duration": 4, "velocity": 127}, {"time": 1838, "pitch": 70, "duration": 5, "velocity": 117}, {"time": 1841, "pitch": 51, "duration": 1, "velocity": 93}, {"time": 1844, "pitch": 62, "duration": 3, "velocity": 102}, {"time": 1844, "pitch": 51, "duration": 3, "velocity": 79}, {"time": 1847, "pitch": 39, "duration": 3, "velocity": 72}, {"time": 1847, "pitch": 63, "duration": 2, "velocity": 81}, {"time": 1850, "pitch": 36, "duration": 14, "velocity": 74}, {"time": 1850, "pitch": 60, "duration": 5, "velocity": 122}, {"time": 1850, "pitch": 63, "duration": 5, "velocity": 107}, {"time": 1850, "pitch": 67, "duration": 5, "velocity": 92}, {"time": 1856, "pitch": 43, "duration": 8, "velocity": 62}, {"time": 1862, "pitch": 48, "duration": 2, "velocity": 93}, {"time": 1862, "pitch": 51, "duration": 2, "velocity": 107}, {"time": 1862, "pitch": 55, "duration": 3, "velocity": 93}, {"time": 1868, "pitch": 36, "duration": 5, "velocity": 76}, {"time": 1871, "pitch": 48, "duration": 4, "velocity": 75}, {"time": 1874, "pitch": 41, "duration": 15, "velocity": 79}, {"time": 1874, "pitch": 53, "duration": 3, "velocity": 95}, {"time": 1874, "pitch": 57, "duration": 4, "velocity": 95}, {"time": 1874, "pitch": 60, "duration": 4, "velocity": 96}, {"time": 1880, "pitch": 48, "duration": 8, "velocity": 63}, {"time": 1886, "pitch": 65, "duration": 4, "velocity": 93}, {"time": 1886, "pitch": 69, "duration": 5, "velocity": 96}, {"time": 1886, "pitch": 72, "duration": 5, "velocity": 96}, {"time": 1889, "pitch": 53, "duration": 4, "velocity": 77}, {"time": 1892, "pitch": 41, "duration": 4, "velocity": 74}, {"time": 1898, "pitch": 38, "duration": 13, "velocity": 81}, {"time": 1898, "pitch": 62, "duration": 1, "velocity": 99}, {"time": 1898, "pitch": 65, "duration": 1, "velocity": 92}, {"time": 1898, "pitch": 69, "duration": 1, "velocity": 92}, {"time": 1904, "pitch": 45, "duration": 7, "velocity": 55}, {"time": 1910, "pitch": 53, "duration": 1, "velocity": 96}, {"time": 1910, "pitch": 57, "duration": 2, "velocity": 96}, {"time": 1916, "pitch": 38, "duration": 6, "velocity": 83}, {"time": 1919, "pitch": 50, "duration": 4, "velocity": 68}, {"time": 1922, "pitch": 43, "duration": 18, "velocity": 83}, {"time": 1922, "pitch": 58, "duration": 7, "velocity": 117}, {"time": 1922, "pitch": 62, "duration": 7, "velocity": 95}, {"time": 1925, "pitch": 50, "duration": 10, "velocity": 70}, {"time": 1928, "pitch": 55, "duration": 5, "velocity": 97}, {"time": 1931, "pitch": 57, "duration": 2, "velocity": 93}, {"time": 1934, "pitch": 62, "duration": 8, "velocity": 112}, {"time": 1937, "pitch": 50, "duration": 2, "velocity": 97}, {"time": 1940, "pitch": 58, "duration": 3, "velocity": 127}, {"time": 1943, "pitch": 55, "duration": 15, "velocity": 79}, {"time": 1946, "pitch": 36, "duration": 15, "velocity": 90}, {"time": 1946, "pitch": 60, "duration": 11, "velocity": 107}, {"time": 1946, "pitch": 63, "duration": 11, "velocity": 112}, {"time": 1958, "pitch": 55, "duration": 9, "velocity": 70}, {"time": 1958, "pitch": 60, "duration": 6, "velocity": 85}, {"time": 1958, "pitch": 63, "duration": 6, "velocity": 90}, {"time": 1970, "pitch": 41, "duration": 14, "velocity": 70}, {"time": 1970, "pitch": 53, "duration": 10, "velocity": 82}, {"time": 1970, "pitch": 57, "duration": 10, "velocity": 82}, {"time": 1970, "pitch": 60, "duration": 10, "velocity": 82}, {"time": 1982, "pitch": 53, "duration": 5, "velocity": 59}, {"time": 1982, "pitch": 57, "duration": 4, "velocity": 66}, {"time": 1982, "pitch": 60, "duration": 5, "velocity": 67}, {"time": 1994, "pitch": 43, "duration": 45, "velocity": 67}, {"time": 1994, "pitch": 55, "duration": 2, "velocity": 67}, {"time": 1994, "pitch": 58, "duration": 7, "velocity": 79}, {"time": 1994, "pitch": 62, "duration": 7, "velocity": 66}, {"time": 2000, "pitch": 50, "duration": 7, "velocity": 41}, {"time": 2006, "pitch": 57, "duration": 34, "velocity": 81}, {"time": 2012, "pitch": 50, "duration": 30, "velocity": 38}, {"time": 2018, "pitch": 58, "duration": 23, "velocity": 53}, {"time": 2018, "pitch": 62, "duration": 22, "velocity": 59}, {"time": 2042, "pitch": 43, "duration": 21, "velocity": 86}, {"time": 2048, "pitch": 50, "duration": 19, "velocity": 58}, {"time": 2054, "pitch": 58, "duration": 19, "velocity": 102}, {"time": 2054, "pitch": 62, "duration": 19, "velocity": 68}, {"time": 2060, "pitch": 55, "duration": 12, "velocity": 73}, {"time": 2066, "pitch": 43, "duration": 13, "velocity": 82}, {"time": 2072, "pitch": 50, "duration": 7, "velocity": 56}, {"time": 2078, "pitch": 62, "duration": 10, "velocity": 99}, {"time": 2084, "pitch": 58, "duration": 9, "velocity": 79}, {"time": 2090, "pitch": 39, "duration": 14, "velocity": 75}, {"time": 2096, "pitch": 51, "duration": 11, "velocity": 71}, {"time": 2102, "pitch": 63, "duration": 10, "velocity": 100}, {"time": 2108, "pitch": 58, "duration": 17, "velocity": 81}, {"time": 2114, "pitch": 43, "duration": 18, "velocity": 71}, {"time": 2120, "pitch": 50, "duration": 11, "velocity": 55}, {"time": 2126, "pitch": 62, "duration": 13, "velocity": 96}, {"time": 2132, "pitch": 58, "duration": 13, "velocity": 69}, {"time": 2138, "pitch": 39, "duration": 22, "velocity": 92}, {"time": 2144, "pitch": 51, "duration": 19, "velocity": 72}, {"time": 2150, "pitch": 62, "duration": 19, "velocity": 96}, {"time": 2156, "pitch": 58, "duration": 17, "velocity": 71}, {"time": 2162, "pitch": 39, "duration": 19, "velocity": 83}, {"time": 2168, "pitch": 51, "duration": 10, "velocity": 59}, {"time": 2174, "pitch": 58, "duration": 1, "velocity": 39}, {"time": 2174, "pitch": 62, "duration": 15, "velocity": 99}, {"time": 2177, "pitch": 58, "duration": 12, "velocity": 29}, {"time": 2180, "pitch": 55, "duration": 8, "velocity": 72}, {"time": 2186, "pitch": 36, "duration": 19, "velocity": 90}, {"time": 2192, "pitch": 48, "duration": 9, "velocity": 77}, {"time": 2198, "pitch": 60, "duration": 6, "velocity": 112}, {"time": 2198, "pitch": 63, "duration": 6, "velocity": 127}, {"time": 2204, "pitch": 48, "duration": 5, "velocity": 57}, {"time": 2210, "pitch": 38, "duration": 19, "velocity": 90}, {"time": 2210, "pitch": 50, "duration": 2, "velocity": 107}, {"time": 2210, "pitch": 54, "duration": 2, "velocity": 107}, {"time": 2210, "pitch": 57, "duration": 2, "velocity": 97}, {"time": 2216, "pitch": 45, "duration": 14, "velocity": 63}, {"time": 2219, "pitch": 62, "duration": 1, "velocity": 117}, {"time": 2219, "pitch": 64, "duration": 1, "velocity": 100}, {"time": 2219, "pitch": 74, "duration": 1, "velocity": 96}, {"time": 2222, "pitch": 50, "duration": 11, "velocity": 127}, {"time": 2222, "pitch": 66, "duration": 1, "velocity": 127}, {"time": 2222, "pitch": 78, "duration": 1, "velocity": 117}, {"time": 2225, "pitch": 67, "duration": 1, "velocity": 117}, {"time": 2225, "pitch": 79, "duration": 1, "velocity": 117}, {"time": 2231, "pitch": 69, "duration": 1, "velocity": 107}, {"time": 2231, "pitch": 81, "duration": 1, "velocity": 95}, {"time": 2234, "pitch": 43, "duration": 22, "velocity": 107}, {"time": 2234, "pitch": 70, "duration": 1, "velocity": 127}, {"time": 2234, "pitch": 82, "duration": 1, "velocity": 107}, {"time": 2240, "pitch": 50, "duration": 8, "velocity": 82}, {"time": 2246, "pitch": 55, "duration": 1, "velocity": 112}, {"time": 2246, "pitch": 58, "duration": 1, "velocity": 127}, {"time": 2246, "pitch": 62, "duration": 1, "velocity": 102}, {"time": 2252, "pitch": 50, "duration": 6, "velocity": 68}, {"time": 2255, "pitch": 79, "duration": 1, "velocity": 53}, {"time": 2258, "pitch": 43, "duration": 13, "velocity": 102}, {"time": 2258, "pitch": 67, "duration": 1, "velocity": 95}, {"time": 2258, "pitch": 79, "duration": 1, "velocity": 81}, {"time": 2264, "pitch": 50, "duration": 7, "velocity": 85}, {"time": 2267, "pitch": 55, "duration": 1, "velocity": 89}, {"time": 2267, "pitch": 58, "duration": 1, "velocity": 99}, {"time": 2267, "pitch": 62, "duration": 1, "velocity": 85}, {"time": 2270, "pitch": 55, "duration": 6, "velocity": 100}, {"time": 2270, "pitch": 58, "duration": 2, "velocity": 127}, {"time": 2270, "pitch": 62, "duration": 3, "velocity": 102}, {"time": 2273, "pitch": 43, "duration": 1, "velocity": 102}, {"time": 2276, "pitch": 57, "duration": 1, "velocity": 112}, {"time": 2282, "pitch": 34, "duration": 17, "velocity": 100}, {"time": 2282, "pitch": 53, "duration": 10, "velocity": 93}, {"time": 2282, "pitch": 58, "duration": 10, "velocity": 99}, {"time": 2282, "pitch": 62, "duration": 9, "velocity": 92}, {"time": 2288, "pitch": 46, "duration": 8, "velocity": 72}, {"time": 2294, "pitch": 53, "duration": 7, "velocity": 97}, {"time": 2294, "pitch": 58, "duration": 6, "velocity": 127}, {"time": 2294, "pitch": 62, "duration": 6, "velocity": 97}, {"time": 2300, "pitch": 46, "duration": 2, "velocity": 81}, {"time": 2306, "pitch": 39, "duration": 16, "velocity": 95}, {"time": 2306, "pitch": 55, "duration": 7, "velocity": 93}, {"time": 2306, "pitch": 58, "duration": 7, "velocity": 127}, {"time": 2306, "pitch": 63, "duration": 8, "velocity": 117}, {"time": 2312, "pitch": 51, "duration": 6, "velocity": 82}, {"time": 2318, "pitch": 58, "duration": 5, "velocity": 127}, {"time": 2318, "pitch": 63, "duration": 6, "velocity": 127}, {"time": 2320, "pitch": 51, "duration": 2, "velocity": 97}, {"time": 2324, "pitch": 55, "duration": 1, "velocity": 99}, {"time": 2330, "pitch": 51, "duration": 4, "velocity": 117}, {"time": 2330, "pitch": 36, "duration": 13, "velocity": 82}, {"time": 2330, "pitch": 55, "duration": 4, "velocity": 96}, {"time": 2330, "pitch": 48, "duration": 4, "velocity": 107}, {"time": 2336, "pitch": 48, "duration": 3, "velocity": 86}, {"time": 2336, "pitch": 51, "duration": 4, "velocity": 100}, {"time": 2336, "pitch": 55, "duration": 4, "velocity": 83}, {"time": 2342, "pitch": 43, "duration": 1, "velocity": 68}, {"time": 2342, "pitch": 51, "duration": 2, "velocity": 127}, {"time": 2342, "pitch": 55, "duration": 2, "velocity": 102}, {"time": 2354, "pitch": 41, "duration": 16, "velocity": 78}, {"time": 2354, "pitch": 53, "duration": 4, "velocity": 99}, {"time": 2354, "pitch": 57, "duration": 5, "velocity": 93}, {"time": 2354, "pitch": 60, "duration": 5, "velocity": 99}, {"time": 2360, "pitch": 48, "duration": 7, "velocity": 69}, {"time": 2366, "pitch": 57, "duration": 6, "velocity": 112}, {"time": 2366, "pitch": 60, "duration": 6, "velocity": 102}, {"time": 2369, "pitch": 48, "duration": 2, "velocity": 74}, {"time": 2372, "pitch": 53, "duration": 2, "velocity": 83}, {"time": 2375, "pitch": 62, "duration": 13, "velocity": 72}, {"time": 2376, "pitch": 58, "duration": 11, "velocity": 66}, {"time": 2377, "pitch": 31, "duration": 1, "velocity": 75}, {"time": 2377, "pitch": 55, "duration": 8, "velocity": 92}, {"time": 2384, "pitch": 43, "duration": 43, "velocity": 74}, {"time": 2390, "pitch": 57, "duration": 23, "velocity": 102}, {"time": 2396, "pitch": 50, "duration": 6, "velocity": 40}, {"time": 2402, "pitch": 58, "duration": 10, "velocity": 95}, {"time": 2408, "pitch": 50, "duration": 18, "velocity": 43}, {"time": 2414, "pitch": 57, "duration": 12, "velocity": 26}, {"time": 2414, "pitch": 62, "duration": 12, "velocity": 81}, {"time": 2426, "pitch": 43, "duration": 1, "velocity": 93}, {"time": 2432, "pitch": 50, "duration": 31, "velocity": 50}, {"time": 2438, "pitch": 58, "duration": 10, "velocity": 99}, {"time": 2438, "pitch": 62, "duration": 22, "velocity": 72}, {"time": 2444, "pitch": 57, "duration": 8, "velocity": 51}, {"time": 2450, "pitch": 58, "duration": 10, "velocity": 64}, {"time": 2462, "pitch": 62, "duration": 13, "velocity": 93}, {"time": 2468, "pitch": 58, "duration": 7, "velocity": 58}, {"time": 2468, "pitch": 55, "duration": 3, "velocity": 63}, {"time": 2471, "pitch": 43, "duration": 3, "velocity": 58}, {"time": 2474, "pitch": 41, "duration": 17, "velocity": 68}, {"time": 2480, "pitch": 48, "duration": 13, "velocity": 41}, {"time": 2486, "pitch": 60, "duration": 13, "velocity": 89}, {"time": 2492, "pitch": 57, "duration": 7, "velocity": 46}, {"time": 2493, "pitch": 38, "duration": 6, "velocity": 56}, {"time": 2498, "pitch": 43, "duration": 18, "velocity": 74}, {"time": 2504, "pitch": 50, "duration": 7, "velocity": 53}, {"time": 2510, "pitch": 62, "duration": 7, "velocity": 100}, {"time": 2516, "pitch": 60, "duration": 3, "velocity": 79}, {"time": 2516, "pitch": 55, "duration": 3, "velocity": 55}, {"time": 2519, "pitch": 43, "duration": 3, "velocity": 55}, {"time": 2522, "pitch": 39, "duration": 19, "velocity": 83}, {"time": 2528, "pitch": 51, "duration": 19, "velocity": 39}, {"time": 2534, "pitch": 63, "duration": 19, "velocity": 99}, {"time": 2540, "pitch": 58, "duration": 17, "velocity": 41}, {"time": 2540, "pitch": 39, "duration": 1, "velocity": 51}, {"time": 2546, "pitch": 39, "duration": 19, "velocity": 74}, {"time": 2552, "pitch": 51, "duration": 12, "velocity": 48}, {"time": 2558, "pitch": 62, "duration": 13, "velocity": 68}, {"time": 2564, "pitch": 58, "duration": 7, "velocity": 44}, {"time": 2564, "pitch": 51, "duration": 4, "velocity": 64}, {"time": 2567, "pitch": 39, "duration": 3, "velocity": 56}, {"time": 2570, "pitch": 34, "duration": 14, "velocity": 89}, {"time": 2576, "pitch": 46, "duration": 9, "velocity": 58}, {"time": 2582, "pitch": 62, "duration": 13, "velocity": 99}, {"time": 2588, "pitch": 58, "duration": 7, "velocity": 55}, {"time": 2588, "pitch": 34, "duration": 4, "velocity": 54}, {"time": 2591, "pitch": 46, "duration": 3, "velocity": 63}, {"time": 2594, "pitch": 38, "duration": 14, "velocity": 77}, {"time": 2600, "pitch": 45, "duration": 8, "velocity": 51}, {"time": 2606, "pitch": 54, "duration": 12, "velocity": 85}, {"time": 2606, "pitch": 57, "duration": 12, "velocity": 77}, {"time": 2612, "pitch": 45, "duration": 7, "velocity": 63}, {"time": 2618, "pitch": 43, "duration": 41, "velocity": 74}, {"time": 2624, "pitch": 50, "duration": 22, "velocity": 61}, {"time": 2630, "pitch": 62, "duration": 20, "velocity": 95}, {"time": 2636, "pitch": 57, "duration": 7, "velocity": 56}, {"time": 2642, "pitch": 58, "duration": 10, "velocity": 56}, {"time": 2648, "pitch": 50, "duration": 7, "velocity": 50}, {"time": 2654, "pitch": 62, "duration": 14, "velocity": 95}, {"time": 2660, "pitch": 58, "duration": 3, "velocity": 83}, {"time": 2660, "pitch": 55, "duration": 3, "velocity": 62}, {"time": 2663, "pitch": 43, "duration": 3, "velocity": 56}, {"time": 2666, "pitch": 34, "duration": 13, "velocity": 70}, {"time": 2666, "pitch": 58, "duration": 10, "velocity": 74}, {"time": 2672, "pitch": 46, "duration": 9, "velocity": 45}, {"time": 2678, "pitch": 62, "duration": 14, "velocity": 97}, {"time": 2684, "pitch": 58, "duration": 8, "velocity": 52}, {"time": 2684, "pitch": 34, "duration": 4, "velocity": 55}, {"time": 2687, "pitch": 46, "duration": 4, "velocity": 64}, {"time": 2690, "pitch": 41, "duration": 18, "velocity": 73}, {"time": 2696, "pitch": 48, "duration": 11, "velocity": 58}, {"time": 2702, "pitch": 60, "duration": 14, "velocity": 90}, {"time": 2708, "pitch": 53, "duration": 7, "velocity": 63}, {"time": 2708, "pitch": 41, "duration": 7, "velocity": 56}, {"time": 2714, "pitch": 36, "duration": 18, "velocity": 70}, {"time": 2720, "pitch": 48, "duration": 11, "velocity": 45}, {"time": 2726, "pitch": 63, "duration": 12, "velocity": 95}, {"time": 2732, "pitch": 60, "duration": 6, "velocity": 66}, {"time": 2732, "pitch": 36, "duration": 7, "velocity": 53}, {"time": 2738, "pitch": 38, "duration": 19, "velocity": 72}, {"time": 2744, "pitch": 45, "duration": 15, "velocity": 41}, {"time": 2750, "pitch": 50, "duration": 12, "velocity": 55}, {"time": 2756, "pitch": 41, "duration": 5, "velocity": 74}, {"time": 2759, "pitch": 53, "duration": 4, "velocity": 59}, {"time": 2762, "pitch": 43, "duration": 44, "velocity": 71}, {"time": 2768, "pitch": 50, "duration": 41, "velocity": 58}, {"time": 2774, "pitch": 58, "duration": 5, "velocity": 122}, {"time": 2774, "pitch": 62, "duration": 7, "velocity": 100}, {"time": 2780, "pitch": 55, "duration": 4, "velocity": 81}, {"time": 2783, "pitch": 57, "duration": 1, "velocity": 95}, {"time": 2783, "pitch": 60, "duration": 1, "velocity": 93}, {"time": 2786, "pitch": 55, "duration": 3, "velocity": 73}, {"time": 2786, "pitch": 58, "duration": 1, "velocity": 52}, {"time": 2786, "pitch": 70, "duration": 1, "velocity": 43}, {"time": 2789, "pitch": 55, "duration": 1, "velocity": 68}, {"time": 2789, "pitch": 58, "duration": 1, "velocity": 117}, {"time": 2789, "pitch": 70, "duration": 1, "velocity": 97}, {"time": 2795, "pitch": 60, "duration": 1, "velocity": 90}, {"time": 2795, "pitch": 72, "duration": 1, "velocity": 83}, {"time": 2798, "pitch": 62, "duration": 2, "velocity": 102}, {"time": 2798, "pitch": 74, "duration": 1, "velocity": 107}, {"time": 2801, "pitch": 55, "duration": 2, "velocity": 95}, {"time": 2804, "pitch": 63, "duration": 1, "velocity": 127}, {"time": 2804, "pitch": 75, "duration": 1, "velocity": 97}, {"time": 2810, "pitch": 43, "duration": 23, "velocity": 83}, {"time": 2810, "pitch": 55, "duration": 7, "velocity": 102}, {"time": 2810, "pitch": 58, "duration": 7, "velocity": 117}, {"time": 2810, "pitch": 62, "duration": 8, "velocity": 99}, {"time": 2816, "pitch": 50, "duration": 8, "velocity": 52}, {"time": 2822, "pitch": 58, "duration": 7, "velocity": 127}, {"time": 2822, "pitch": 62, "duration": 8, "velocity": 102}, {"time": 2828, "pitch": 50, "duration": 4, "velocity": 28}, {"time": 2828, "pitch": 55, "duration": 4, "velocity": 68}, {"time": 2831, "pitch": 58, "duration": 3, "velocity": 97}, {"time": 2831, "pitch": 62, "duration": 3, "velocity": 82}, {"time": 2834, "pitch": 43, "duration": 14, "velocity": 89}, {"time": 2840, "pitch": 50, "duration": 8, "velocity": 66}, {"time": 2846, "pitch": 55, "duration": 1, "velocity": 95}, {"time": 2846, "pitch": 67, "duration": 6, "velocity": 117}, {"time": 2846, "pitch": 70, "duration": 7, "velocity": 127}, {"time": 2852, "pitch": 41, "duration": 1, "velocity": 96}, {"time": 2858, "pitch": 39, "duration": 18, "velocity": 99}, {"time": 2858, "pitch": 63, "duration": 7, "velocity": 100}, {"time": 2858, "pitch": 67, "duration": 7, "velocity": 97}, {"time": 2858, "pitch": 70, "duration": 7, "velocity": 102}, {"time": 2864, "pitch": 51, "duration": 8, "velocity": 78}, {"time": 2870, "pitch": 63, "duration": 6, "velocity": 107}, {"time": 2870, "pitch": 67, "duration": 2, "velocity": 117}, {"time": 2870, "pitch": 70, "duration": 7, "velocity": 117}, {"time": 2873, "pitch": 67, "duration": 3, "velocity": 24}, {"time": 2876, "pitch": 51, "duration": 1, "velocity": 52}, {"time": 2882, "pitch": 43, "duration": 13, "velocity": 78}, {"time": 2882, "pitch": 62, "duration": 5, "velocity": 95}, {"time": 2882, "pitch": 67, "duration": 4, "velocity": 100}, {"time": 2882, "pitch": 70, "duration": 4, "velocity": 127}, {"time": 2888, "pitch": 50, "duration": 6, "velocity": 71}, {"time": 2894, "pitch": 58, "duration": 6, "velocity": 122}, {"time": 2894, "pitch": 62, "duration": 6, "velocity": 97}, {"time": 2897, "pitch": 43, "duration": 1, "velocity": 75}, {"time": 2900, "pitch": 39, "duration": 1, "velocity": 73}, {"time": 2900, "pitch": 55, "duration": 4, "velocity": 92}, {"time": 2906, "pitch": 39, "duration": 41, "velocity": 97}, {"time": 2906, "pitch": 55, "duration": 9, "velocity": 102}, {"time": 2906, "pitch": 58, "duration": 10, "velocity": 122}, {"time": 2906, "pitch": 62, "duration": 9, "velocity": 92}, {"time": 2912, "pitch": 51, "duration": 8, "velocity": 73}, {"time": 2918, "pitch": 55, "duration": 8, "velocity": 90}, {"time": 2918, "pitch": 58, "duration": 7, "velocity": 117}, {"time": 2918, "pitch": 62, "duration": 8, "velocity": 100}, {"time": 2924, "pitch": 51, "duration": 9, "velocity": 48}, {"time": 2930, "pitch": 55, "duration": 10, "velocity": 90}, {"time": 2930, "pitch": 58, "duration": 10, "velocity": 112}, {"time": 2930, "pitch": 62, "duration": 10, "velocity": 95}, {"time": 2936, "pitch": 51, "duration": 6, "velocity": 77}, {"time": 2942, "pitch": 58, "duration": 6, "velocity": 122}, {"time": 2942, "pitch": 62, "duration": 7, "velocity": 99}, {"time": 2945, "pitch": 51, "duration": 1, "velocity": 99}, {"time": 2948, "pitch": 55, "duration": 5, "velocity": 90}, {"time": 2951, "pitch": 58, "duration": 2, "velocity": 92}, {"time": 2954, "pitch": 36, "duration": 19, "velocity": 90}, {"time": 2954, "pitch": 55, "duration": 4, "velocity": 86}, {"time": 2954, "pitch": 60, "duration": 4, "velocity": 107}, {"time": 2954, "pitch": 63, "duration": 4, "velocity": 127}, {"time": 2960, "pitch": 43, "duration": 8, "velocity": 69}, {"time": 2966, "pitch": 48, "duration": 3, "velocity": 100}, {"time": 2966, "pitch": 51, "duration": 3, "velocity": 127}, {"time": 2966, "pitch": 55, "duration": 4, "velocity": 97}, {"time": 2972, "pitch": 43, "duration": 4, "velocity": 58}, {"time": 2975, "pitch": 53, "duration": 1, "velocity": 50}, {"time": 2978, "pitch": 38, "duration": 18, "velocity": 95}, {"time": 2978, "pitch": 50, "duration": 1, "velocity": 102}, {"time": 2978, "pitch": 53, "duration": 1, "velocity": 102}, {"time": 2978, "pitch": 57, "duration": 1, "velocity": 102}, {"time": 2981, "pitch": 45, "duration": 16, "velocity": 90}, {"time": 2984, "pitch": 50, "duration": 6, "velocity": 100}, {"time": 2987, "pitch": 62, "duration": 1, "velocity": 96}, {"time": 2987, "pitch": 65, "duration": 1, "velocity": 90}, {"time": 2987, "pitch": 69, "duration": 1, "velocity": 96}, {"time": 2993, "pitch": 50, "duration": 3, "velocity": 45}, {"time": 2993, "pitch": 74, "duration": 1, "velocity": 86}, {"time": 2993, "pitch": 77, "duration": 1, "velocity": 96}, {"time": 2993, "pitch": 81, "duration": 1, "velocity": 95}, {"time": 2996, "pitch": 50, "duration": 5, "velocity": 68}, {"time": 2996, "pitch": 74, "duration": 1, "velocity": 97}, {"time": 2996, "pitch": 77, "duration": 1, "velocity": 122}, {"time": 2996, "pitch": 81, "duration": 1, "velocity": 117}, {"time": 3002, "pitch": 43, "duration": 22, "velocity": 90}, {"time": 3008, "pitch": 50, "duration": 18, "velocity": 59}, {"time": 3014, "pitch": 55, "duration": 3, "velocity": 99}, {"time": 3014, "pitch": 58, "duration": 7, "velocity": 117}, {"time": 3014, "pitch": 62, "duration": 8, "velocity": 99}, {"time": 3020, "pitch": 55, "duration": 5, "velocity": 72}, {"time": 3023, "pitch": 58, "duration": 1, "velocity": 65}, {"time": 3023, "pitch": 62, "duration": 1, "velocity": 45}, {"time": 3026, "pitch": 43, "duration": 17, "velocity": 85}, {"time": 3026, "pitch": 55, "duration": 2, "velocity": 95}, {"time": 3026, "pitch": 58, "duration": 2, "velocity": 122}, {"time": 3026, "pitch": 62, "duration": 2, "velocity": 92}, {"time": 3032, "pitch": 50, "duration": 10, "velocity": 51}, {"time": 3038, "pitch": 62, "duration": 3, "velocity": 99}, {"time": 3038, "pitch": 67, "duration": 6, "velocity": 122}, {"time": 3038, "pitch": 70, "duration": 6, "velocity": 127}, {"time": 3041, "pitch": 55, "duration": 1, "velocity": 93}, {"time": 3044, "pitch": 62, "duration": 1, "velocity": 97}, {"time": 3044, "pitch": 55, "duration": 4, "velocity": 74}, {"time": 3047, "pitch": 43, "duration": 4, "velocity": 63}, {"time": 3050, "pitch": 34, "duration": 1, "velocity": 122}, {"time": 3050, "pitch": 58, "duration": 7, "velocity": 122}, {"time": 3050, "pitch": 62, "duration": 9, "velocity": 102}, {"time": 3050, "pitch": 65, "duration": 7, "velocity": 92}, {"time": 3056, "pitch": 46, "duration": 8, "velocity": 50}, {"time": 3062, "pitch": 58, "duration": 6, "velocity": 127}, {"time": 3062, "pitch": 62, "duration": 6, "velocity": 99}, {"time": 3062, "pitch": 65, "duration": 5, "velocity": 93}, {"time": 3068, "pitch": 46, "duration": 1, "velocity": 102}, {"time": 3074, "pitch": 39, "duration": 18, "velocity": 97}, {"time": 3074, "pitch": 55, "duration": 7, "velocity": 92}, {"time": 3074, "pitch": 58, "duration": 8, "velocity": 112}, {"time": 3074, "pitch": 63, "duration": 7, "velocity": 100}, {"time": 3080, "pitch": 51, "duration": 7, "velocity": 99}, {"time": 3086, "pitch": 58, "duration": 6, "velocity": 127}, {"time": 3086, "pitch": 63, "duration": 8, "velocity": 127}, {"time": 3089, "pitch": 51, "duration": 2, "velocity": 93}, {"time": 3092, "pitch": 55, "duration": 5, "velocity": 100}, {"time": 3092, "pitch": 51, "duration": 4, "velocity": 84}, {"time": 3095, "pitch": 58, "duration": 2, "velocity": 96}, {"time": 3095, "pitch": 39, "duration": 3, "velocity": 79}, {"time": 3098, "pitch": 36, "duration": 16, "velocity": 89}, {"time": 3098, "pitch": 55, "duration": 7, "velocity": 56}, {"time": 3098, "pitch": 60, "duration": 9, "velocity": 100}, {"time": 3098, "pitch": 63, "duration": 10, "velocity": 117}, {"time": 3104, "pitch": 43, "duration": 11, "velocity": 47}, {"time": 3107, "pitch": 48, "duration": 5, "velocity": 99}, {"time": 3110, "pitch": 60, "duration": 6, "velocity": 127}, {"time": 3110, "pitch": 63, "duration": 1, "velocity": 73}, {"time": 3113, "pitch": 48, "duration": 8, "velocity": 90}, {"time": 3113, "pitch": 36, "duration": 1, "velocity": 63}, {"time": 3116, "pitch": 55, "duration": 6, "velocity": 99}, {"time": 3116, "pitch": 48, "duration": 5, "velocity": 64}, {"time": 3122, "pitch": 41, "duration": 17, "velocity": 75}, {"time": 3122, "pitch": 57, "duration": 10, "velocity": 102}, {"time": 3122, "pitch": 60, "duration": 10, "velocity": 85}, {"time": 3128, "pitch": 48, "duration": 7, "velocity": 54}, {"time": 3134, "pitch": 57, "duration": 6, "velocity": 99}, {"time": 3134, "pitch": 60, "duration": 6, "velocity": 97}, {"time": 3137, "pitch": 48, "duration": 2, "velocity": 95}, {"time": 3140, "pitch": 53, "duration": 4, "velocity": 90}, {"time": 3143, "pitch": 57, "duration": 4, "velocity": 61}, {"time": 3146, "pitch": 38, "duration": 17, "velocity": 93}, {"time": 3149, "pitch": 45, "duration": 14, "velocity": 64}, {"time": 3152, "pitch": 50, "duration": 7, "velocity": 96}, {"time": 3155, "pitch": 53, "duration": 3, "velocity": 95}, {"time": 3158, "pitch": 57, "duration": 4, "velocity": 92}, {"time": 3161, "pitch": 50, "duration": 8, "velocity": 81}, {"time": 3164, "pitch": 53, "duration": 2, "velocity": 96}, {"time": 3164, "pitch": 38, "duration": 6, "velocity": 64}, {"time": 3167, "pitch": 50, "duration": 2, "velocity": 47}, {"time": 3167, "pitch": 62, "duration": 1, "velocity": 67}, {"time": 3170, "pitch": 43, "duration": 21, "velocity": 99}, {"time": 3170, "pitch": 55, "duration": 1, "velocity": 97}, {"time": 3170, "pitch": 62, "duration": 1, "velocity": 99}, {"time": 3173, "pitch": 50, "duration": 20, "velocity": 74}, {"time": 3176, "pitch": 55, "duration": 7, "velocity": 102}, {"time": 3179, "pitch": 70, "duration": 1, "velocity": 127}, {"time": 3179, "pitch": 74, "duration": 1, "velocity": 99}, {"time": 3182, "pitch": 70, "duration": 3, "velocity": 127}, {"time": 3182, "pitch": 74, "duration": 4, "velocity": 122}, {"time": 3185, "pitch": 55, "duration": 2, "velocity": 100}, {"time": 3188, "pitch": 69, "duration": 3, "velocity": 102}, {"time": 3188, "pitch": 72, "duration": 2, "velocity": 102}, {"time": 3191, "pitch": 70, "duration": 2, "velocity": 99}, {"time": 3191, "pitch": 72, "duration": 1, "velocity": 42}, {"time": 3191, "pitch": 74, "duration": 2, "velocity": 92}, {"time": 3194, "pitch": 43, "duration": 22, "velocity": 100}, {"time": 3194, "pitch": 70, "duration": 10, "velocity": 127}, {"time": 3194, "pitch": 74, "duration": 10, "velocity": 102}, {"time": 3200, "pitch": 50, "duration": 18, "velocity": 45}, {"time": 3203, "pitch": 55, "duration": 5, "velocity": 77}, {"time": 3206, "pitch": 70, "duration": 7, "velocity": 127}, {"time": 3206, "pitch": 74, "duration": 8, "velocity": 117}, {"time": 3209, "pitch": 55, "duration": 3, "velocity": 53}, {"time": 3212, "pitch": 67, "duration": 7, "velocity": 73}, {"time": 3212, "pitch": 55, "duration": 3, "velocity": 72}, {"time": 3215, "pitch": 43, "duration": 1, "velocity": 59}, {"time": 3218, "pitch": 43, "duration": 1, "velocity": 89}, {"time": 3218, "pitch": 70, "duration": 2, "velocity": 97}, {"time": 3218, "pitch": 74, "duration": 2, "velocity": 90}, {"time": 3221, "pitch": 50, "duration": 13, "velocity": 89}, {"time": 3224, "pitch": 55, "duration": 7, "velocity": 99}, {"time": 3227, "pitch": 62, "duration": 5, "velocity": 92}, {"time": 3230, "pitch": 70, "duration": 5, "velocity": 127}, {"time": 3233, "pitch": 55, "duration": 1, "velocity": 88}, {"time": 3233, "pitch": 67, "duration": 4, "velocity": 97}, {"time": 3236, "pitch": 65, "duration": 3, "velocity": 100}, {"time": 3236, "pitch": 50, "duration": 4, "velocity": 63}, {"time": 3239, "pitch": 62, "duration": 4, "velocity": 89}, {"time": 3239, "pitch": 43, "duration": 3, "velocity": 62}, {"time": 3242, "pitch": 39, "duration": 17, "velocity": 93}, {"time": 3242, "pitch": 67, "duration": 1, "velocity": 107}, {"time": 3248, "pitch": 51, "duration": 7, "velocity": 59}, {"time": 3251, "pitch": 55, "duration": 2, "velocity": 41}, {"time": 3254, "pitch": 58, "duration": 7, "velocity": 122}, {"time": 3254, "pitch": 63, "duration": 6, "velocity": 117}, {"time": 3257, "pitch": 51, "duration": 3, "velocity": 88}, {"time": 3260, "pitch": 55, "duration": 5, "velocity": 88}, {"time": 3260, "pitch": 39, "duration": 4, "velocity": 77}, {"time": 3263, "pitch": 51, "duration": 4, "velocity": 75}, {"time": 3266, "pitch": 43, "duration": 17, "velocity": 82}, {"time": 3266, "pitch": 55, "duration": 1, "velocity": 74}, {"time": 3266, "pitch": 58, "duration": 7, "velocity": 112}, {"time": 3266, "pitch": 62, "duration": 7, "velocity": 92}, {"time": 3269, "pitch": 50, "duration": 10, "velocity": 63}, {"time": 3272, "pitch": 55, "duration": 6, "velocity": 93}, {"time": 3275, "pitch": 57, "duration": 4, "velocity": 96}, {"time": 3278, "pitch": 58, "duration": 7, "velocity": 127}, {"time": 3281, "pitch": 50, "duration": 1, "velocity": 89}, {"time": 3284, "pitch": 62, "duration": 4, "velocity": 96}, {"time": 3287, "pitch": 55, "duration": 3, "velocity": 66}, {"time": 3290, "pitch": 39, "duration": 23, "velocity": 100}, {"time": 3290, "pitch": 55, "duration": 11, "velocity": 67}, {"time": 3290, "pitch": 58, "duration": 10, "velocity": 95}, {"time": 3290, "pitch": 62, "duration": 11, "velocity": 88}, {"time": 3296, "pitch": 51, "duration": 7, "velocity": 66}, {"time": 3302, "pitch": 55, "duration": 11, "velocity": 72}, {"time": 3302, "pitch": 58, "duration": 7, "velocity": 90}, {"time": 3302, "pitch": 62, "duration": 11, "velocity": 78}, {"time": 3302, "pitch": 67, "duration": 8, "velocity": 78}, {"time": 3308, "pitch": 51, "duration": 7, "velocity": 81}, {"time": 3311, "pitch": 67, "duration": 2, "velocity": 27}, {"time": 3314, "pitch": 39, "duration": 16, "velocity": 89}, {"time": 3314, "pitch": 55, "duration": 10, "velocity": 78}, {"time": 3314, "pitch": 58, "duration": 6, "velocity": 92}, {"time": 3314, "pitch": 62, "duration": 8, "velocity": 77}, {"time": 3314, "pitch": 67, "duration": 7, "velocity": 77}, {"time": 3320, "pitch": 51, "duration": 8, "velocity": 63}, {"time": 3326, "pitch": 55, "duration": 1, "velocity": 74}, {"time": 3326, "pitch": 58, "duration": 6, "velocity": 117}, {"time": 3326, "pitch": 62, "duration": 6, "velocity": 97}, {"time": 3326, "pitch": 67, "duration": 6, "velocity": 92}, {"time": 3332, "pitch": 55, "duration": 1, "velocity": 86}, {"time": 3332, "pitch": 46, "duration": 4, "velocity": 79}, {"time": 3335, "pitch": 39, "duration": 4, "velocity": 72}, {"time": 3338, "pitch": 36, "duration": 20, "velocity": 74}, {"time": 3338, "pitch": 48, "duration": 2, "velocity": 100}, {"time": 3338, "pitch": 51, "duration": 1, "velocity": 102}, {"time": 3338, "pitch": 55, "duration": 2, "velocity": 96}, {"time": 3344, "pitch": 43, "duration": 8, "velocity": 37}, {"time": 3350, "pitch": 48, "duration": 5, "velocity": 85}, {"time": 3350, "pitch": 60, "duration": 6, "velocity": 117}, {"time": 3350, "pitch": 63, "duration": 6, "velocity": 127}, {"time": 3350, "pitch": 67, "duration": 6, "velocity": 97}, {"time": 3356, "pitch": 43, "duration": 6, "velocity": 79}, {"time": 3356, "pitch": 36, "duration": 2, "velocity": 80}, {"time": 3359, "pitch": 48, "duration": 4, "velocity": 81}, {"time": 3362, "pitch": 38, "duration": 17, "velocity": 86}, {"time": 3362, "pitch": 62, "duration": 8, "velocity": 117}, {"time": 3362, "pitch": 65, "duration": 8, "velocity": 112}, {"time": 3362, "pitch": 69, "duration": 8, "velocity": 112}, {"time": 3365, "pitch": 45, "duration": 15, "velocity": 85}, {"time": 3368, "pitch": 50, "duration": 7, "velocity": 88}, {"time": 3371, "pitch": 69, "duration": 1, "velocity": 28}, {"time": 3374, "pitch": 62, "duration": 4, "velocity": 112}, {"time": 3374, "pitch": 65, "duration": 7, "velocity": 117}, {"time": 3374, "pitch": 69, "duration": 8, "velocity": 100}, {"time": 3377, "pitch": 50, "duration": 2, "velocity": 97}, {"time": 3377, "pitch": 38, "duration": 2, "velocity": 87}, {"time": 3380, "pitch": 62, "duration": 5, "velocity": 100}, {"time": 3380, "pitch": 50, "duration": 7, "velocity": 81}, {"time": 3386, "pitch": 43, "duration": 23, "velocity": 81}, {"time": 3386, "pitch": 62, "duration": 6, "velocity": 81}, {"time": 3386, "pitch": 67, "duration": 5, "velocity": 99}, {"time": 3386, "pitch": 70, "duration": 5, "velocity": 122}, {"time": 3392, "pitch": 50, "duration": 7, "velocity": 60}, {"time": 3398, "pitch": 58, "duration": 4, "velocity": 127}, {"time": 3398, "pitch": 62, "duration": 6, "velocity": 97}, {"time": 3401, "pitch": 50, "duration": 9, "velocity": 32}, {"time": 3404, "pitch": 57, "duration": 7, "velocity": 92}, {"time": 3404, "pitch": 60, "duration": 5, "velocity": 83}, {"time": 3410, "pitch": 43, "duration": 19, "velocity": 90}, {"time": 3410, "pitch": 58, "duration": 1, "velocity": 117}, {"time": 3410, "pitch": 62, "duration": 1, "velocity": 88}, {"time": 3416, "pitch": 50, "duration": 8, "velocity": 43}, {"time": 3422, "pitch": 55, "duration": 7, "velocity": 81}, {"time": 3422, "pitch": 70, "duration": 6, "velocity": 127}, {"time": 3422, "pitch": 74, "duration": 2, "velocity": 97}, {"time": 3428, "pitch": 50, "duration": 2, "velocity": 36}, {"time": 3428, "pitch": 67, "duration": 4, "velocity": 96}, {"time": 3428, "pitch": 55, "duration": 1, "velocity": 87}, {"time": 3431, "pitch": 43, "duration": 4, "velocity": 80}, {"time": 3431, "pitch": 69, "duration": 2, "velocity": 102}, {"time": 3434, "pitch": 46, "duration": 16, "velocity": 112}, {"time": 3434, "pitch": 70, "duration": 6, "velocity": 112}, {"time": 3440, "pitch": 58, "duration": 7, "velocity": 82}, {"time": 3446, "pitch": 70, "duration": 5, "velocity": 127}, {"time": 3446, "pitch": 74, "duration": 6, "velocity": 96}, {"time": 3449, "pitch": 58, "duration": 1, "velocity": 90}, {"time": 3452, "pitch": 58, "duration": 4, "velocity": 83}, {"time": 3455, "pitch": 46, "duration": 3, "velocity": 62}, {"time": 3458, "pitch": 39, "duration": 17, "velocity": 97}, {"time": 3458, "pitch": 63, "duration": 7, "velocity": 97}, {"time": 3458, "pitch": 67, "duration": 7, "velocity": 89}, {"time": 3458, "pitch": 70, "duration": 8, "velocity": 93}, {"time": 3464, "pitch": 51, "duration": 6, "velocity": 69}, {"time": 3470, "pitch": 67, "duration": 4, "velocity": 127}, {"time": 3470, "pitch": 70, "duration": 5, "velocity": 117}, {"time": 3473, "pitch": 51, "duration": 1, "velocity": 93}, {"time": 3476, "pitch": 62, "duration": 3, "velocity": 102}, {"time": 3479, "pitch": 63, "duration": 2, "velocity": 81}, {"time": 3482, "pitch": 36, "duration": 14, "velocity": 74}, {"time": 3482, "pitch": 60, "duration": 5, "velocity": 122}, {"time": 3482, "pitch": 63, "duration": 5, "velocity": 107}, {"time": 3482, "pitch": 67, "duration": 5, "velocity": 92}, {"time": 3488, "pitch": 43, "duration": 8, "velocity": 62}, {"time": 3494, "pitch": 48, "duration": 2, "velocity": 93}, {"time": 3494, "pitch": 51, "duration": 2, "velocity": 107}, {"time": 3494, "pitch": 55, "duration": 3, "velocity": 93}, {"time": 3498, "pitch": 46, "duration": 1, "velocity": 7}, {"time": 3500, "pitch": 36, "duration": 5, "velocity": 72}, {"time": 3503, "pitch": 48, "duration": 4, "velocity": 59}, {"time": 3506, "pitch": 41, "duration": 15, "velocity": 79}, {"time": 3506, "pitch": 53, "duration": 3, "velocity": 95}, {"time": 3506, "pitch": 57, "duration": 4, "velocity": 95}, {"time": 3506, "pitch": 60, "duration": 4, "velocity": 96}, {"time": 3512, "pitch": 48, "duration": 8, "velocity": 63}, {"time": 3518, "pitch": 65, "duration": 4, "velocity": 93}, {"time": 3518, "pitch": 69, "duration": 5, "velocity": 96}, {"time": 3518, "pitch": 72, "duration": 5, "velocity": 96}, {"time": 3524, "pitch": 53, "duration": 4, "velocity": 74}, {"time": 3527, "pitch": 41, "duration": 3, "velocity": 72}, {"time": 3530, "pitch": 38, "duration": 13, "velocity": 81}, {"time": 3530, "pitch": 62, "duration": 1, "velocity": 99}, {"time": 3530, "pitch": 65, "duration": 1, "velocity": 92}, {"time": 3530, "pitch": 69, "duration": 1, "velocity": 92}, {"time": 3536, "pitch": 45, "duration": 7, "velocity": 55}, {"time": 3542, "pitch": 53, "duration": 1, "velocity": 96}, {"time": 3542, "pitch": 57, "duration": 2, "velocity": 96}, {"time": 3545, "pitch": 38, "duration": 4, "velocity": 76}, {"time": 3551, "pitch": 38, "duration": 3, "velocity": 63}, {"time": 3554, "pitch": 43, "duration": 18, "velocity": 83}, {"time": 3554, "pitch": 58, "duration": 7, "velocity": 117}, {"time": 3554, "pitch": 62, "duration": 7, "velocity": 95}, {"time": 3557, "pitch": 50, "duration": 10, "velocity": 70}, {"time": 3560, "pitch": 55, "duration": 5, "velocity": 97}, {"time": 3563, "pitch": 57, "duration": 2, "velocity": 93}, {"time": 3566, "pitch": 62, "duration": 8, "velocity": 112}, {"time": 3569, "pitch": 50, "duration": 2, "velocity": 97}, {"time": 3572, "pitch": 58, "duration": 3, "velocity": 127}, {"time": 3575, "pitch": 55, "duration": 15, "velocity": 79}, {"time": 3578, "pitch": 36, "duration": 15, "velocity": 90}, {"time": 3578, "pitch": 60, "duration": 11, "velocity": 107}, {"time": 3578, "pitch": 63, "duration": 11, "velocity": 112}, {"time": 3590, "pitch": 55, "duration": 9, "velocity": 70}, {"time": 3590, "pitch": 60, "duration": 6, "velocity": 85}, {"time": 3590, "pitch": 63, "duration": 6, "velocity": 90}, {"time": 3602, "pitch": 41, "duration": 14, "velocity": 70}, {"time": 3602, "pitch": 53, "duration": 10, "velocity": 82}, {"time": 3602, "pitch": 57, "duration": 10, "velocity": 82}, {"time": 3602, "pitch": 60, "duration": 10, "velocity": 82}, {"time": 3614, "pitch": 53, "duration": 5, "velocity": 59}, {"time": 3614, "pitch": 57, "duration": 4, "velocity": 66}, {"time": 3614, "pitch": 60, "duration": 5, "velocity": 67}, {"time": 3626, "pitch": 43, "duration": 40, "velocity": 88}, {"time": 3632, "pitch": 50, "duration": 33, "velocity": 55}, {"time": 3638, "pitch": 57, "duration": 6, "velocity": 78}, {"time": 3638, "pitch": 60, "duration": 6, "velocity": 82}, {"time": 3644, "pitch": 55, "duration": 5, "velocity": 56}, {"time": 3649, "pitch": 55, "duration": 18, "velocity": 70}, {"time": 3650, "pitch": 58, "duration": 17, "velocity": 69}, {"time": 3650, "pitch": 62, "duration": 17, "velocity": 72}, {"time": 3672, "pitch": 55, "duration": 6, "velocity": 33}, {"time": 3673, "pitch": 51, "duration": 5, "velocity": 51}, {"time": 3674, "pitch": 48, "duration": 4, "velocity": 69}, {"time": 3674, "pitch": 36, "duration": 15, "velocity": 73}, {"time": 3680, "pitch": 48, "duration": 8, "velocity": 85}, {"time": 3686, "pitch": 63, "duration": 7, "velocity": 107}, {"time": 3686, "pitch": 67, "duration": 7, "velocity": 74}, {"time": 3692, "pitch": 60, "duration": 3, "velocity": 56}, {"time": 3696, "pitch": 69, "duration": 8, "velocity": 55}, {"time": 3697, "pitch": 65, "duration": 6, "velocity": 59}, {"time": 3698, "pitch": 62, "duration": 6, "velocity": 66}, {"time": 3699, "pitch": 38, "duration": 35, "velocity": 76}, {"time": 3704, "pitch": 45, "duration": 30, "velocity": 48}, {"time": 3708, "pitch": 50, "duration": 28, "velocity": 50}, {"time": 3712, "pitch": 53, "duration": 2, "velocity": 55}, {"time": 3714, "pitch": 57, "duration": 1, "velocity": 50}, {"time": 3716, "pitch": 62, "duration": 3, "velocity": 67}, {"time": 3719, "pitch": 65, "duration": 2, "velocity": 33}, {"time": 3722, "pitch": 69, "duration": 1, "velocity": 56}, {"time": 3724, "pitch": 74, "duration": 4, "velocity": 62}, {"time": 3727, "pitch": 77, "duration": 2, "velocity": 55}, {"time": 3730, "pitch": 81, "duration": 1, "velocity": 56}, {"time": 3734, "pitch": 86, "duration": 2, "velocity": 39}, {"time": 3743, "pitch": 31, "duration": 1, "velocity": 88}, {"time": 3752, "pitch": 43, "duration": 66, "velocity": 52}, {"time": 3756, "pitch": 50, "duration": 62, "velocity": 51}, {"time": 3760, "pitch": 53, "duration": 4, "velocity": 35}, {"time": 3763, "pitch": 57, "duration": 2, "velocity": 51}, {"time": 3766, "pitch": 58, "duration": 3, "velocity": 78}, {"time": 3769, "pitch": 62, "duration": 1, "velocity": 69}, {"time": 3769, "pitch": 55, "duration": 49, "velocity": 33}, {"time": 3772, "pitch": 67, "duration": 2, "velocity": 67}, {"time": 3776, "pitch": 70, "duration": 4, "velocity": 65}, {"time": 3780, "pitch": 74, "duration": 1, "velocity": 60}, {"time": 3785, "pitch": 77, "duration": 1, "velocity": 63}, {"time": 3790, "pitch": 82, "duration": 4, "velocity": 57}, {"time": 3796, "pitch": 86, "duration": 1, "velocity": 52}, {"time": 3804, "pitch": 86, "duration": 14, "velocity": 42}, {"time": 3805, "pitch": 91, "duration": 13, "velocity": 40}, {"time": 3805, "pitch": 94, "duration": 13, "velocity": 67}], "annotations": [{"time": 2, "annotation": {"number": 64, "value": 127}, "group": "control_change"}, {"time": 20, "annotation": {"number": 64, "value": 0}, "group": "control_change"}, {"time": 37, "annotation": {"number": 64, "value": 127}, "group": "control_change"}, {"time": 45, "annotation": {"number": 64, "value": 0}, "group": "control_change"}, {"time": 50, "annotation": {"number": 64, "value": 127}, "group": "control_change"}, {"time": 58, "annotation": {"number": 64, "value": 0}, "group": "control_change"}, {"time": 76, "annotation": {"number": 64, "value": 127}, "group": "control_change"}, {"time": 96, "annotation": {"number": 64, "value": 0}, "group": "control_change"}, {"time": 99, "annotation": {"number": 64, "value": 127}, "group": "control_change"}, {"time": 119, "annotation": {"number": 64, "value": 0}, "group": "control_change"}, {"time": 122, "annotation": {"number": 64, "value": 127}, "group": "control_change"}, {"time": 145, "annotation": {"number": 64, "value": 0}, "group": "control_change"}, {"time": 151, "annotation": {"number": 64, "value": 127}, "group": "control_change"}, {"time": 168, "annotation": {"number": 64, "value": 0}, "group": "control_change"}, {"time": 170, "annotation": {"number": 64, "value": 127}, "group": "control_change"}, {"time": 192, "annotation": {"number": 64, "value": 0}, "group": "control_change"}, {"time": 194, "annotation": {"number": 64, "value": 127}, "group": "control_change"}, {"time": 216, "annotation": {"number": 64, "value": 0}, "group": "control_change"}, {"time": 218, "annotation": {"number": 64, "value": 127}, "group": "control_change"}, {"time": 262, "annotation": {"number": 64, "value": 0}, "group": "control_change"}, {"time": 264, "annotation": {"number": 64, "value": 127}, "group": "control_change"}, {"time": 311, "annotation": {"number": 64, "value": 0}, "group": "control_change"}, {"time": 313, "annotation": {"number": 64, "value": 127}, "group": "control_change"}, {"time": 335, "annotation": {"number": 64, "value": 0}, "group": "control_change"}, {"time": 337, "annotation": {"number": 64, "value": 127}, "group": "control_change"}, {"time": 359, "annotation": {"number": 64, "value": 0}, "group": "control_change"}, {"time": 361, "annotation": {"number": 64, "value": 127}, "group": "control_change"}, {"time": 406, "annotation": {"number": 64, "value": 0}, "group": "control_change"}, {"time": 409, "annotation": {"number": 64, "value": 127}, "group": "control_change"}, {"time": 456, "annotation": {"number": 64, "value": 0}, "group": "control_change"}, {"time": 457, "annotation": {"number": 64, "value": 127}, "group": "control_change"}, {"time": 480, "annotation": {"number": 64, "value": 0}, "group": "control_change"}, {"time": 482, "annotation": {"number": 64, "value": 127}, "group": "control_change"}, {"time": 504, "annotation": {"number": 64, "value": 0}, "group": "control_change"}, {"time": 505, "annotation": {"number": 64, "value": 127}, "group": "control_change"}, {"time": 551, "annotation": {"number": 64, "value": 0}, "group": "control_change"}, {"time": 553, "annotation": {"number": 64, "value": 127}, "group": "control_change"}, {"time": 576, "annotation": {"number": 64, "value": 0}, "group": "control_change"}, {"time": 578, "annotation": {"number": 64, "value": 127}, "group": "control_change"}, {"time": 599, "annotation": {"number": 64, "value": 0}, "group": "control_change"}, {"time": 601, "annotation": {"number": 64, "value": 127}, "group": "control_change"}, {"time": 624, "annotation": {"number": 64, "value": 0}, "group": "control_change"}, {"time": 625, "annotation": {"number": 64, "value": 127}, "group": "control_change"}, {"time": 647, "annotation": {"number": 64, "value": 0}, "group": "control_change"}, {"time": 649, "annotation": {"number": 64, "value": 127}, "group": "control_change"}, {"time": 672, "annotation": {"number": 64, "value": 0}, "group": "control_change"}, {"time": 673, "annotation": {"number": 64, "value": 127}, "group": "control_change"}, {"time": 696, "annotation": {"number": 64, "value": 0}, "group": "control_change"}, {"time": 697, "annotation": {"number": 64, "value": 127}, "group": "control_change"}, {"time": 720, "annotation": {"number": 64, "value": 0}, "group": "control_change"}, {"time": 722, "annotation": {"number": 64, "value": 127}, "group": "control_change"}, {"time": 743, "annotation": {"number": 64, "value": 0}, "group": "control_change"}, {"time": 745, "annotation": {"number": 64, "value": 127}, "group": "control_change"}, {"time": 768, "annotation": {"number": 64, "value": 0}, "group": "control_change"}, {"time": 770, "annotation": {"number": 64, "value": 127}, "group": "control_change"}, {"time": 791, "annotation": {"number": 64, "value": 0}, "group": "control_change"}, {"time": 793, "annotation": {"number": 64, "value": 127}, "group": "control_change"}, {"time": 840, "annotation": {"number": 64, "value": 0}, "group": "control_change"}, {"time": 841, "annotation": {"number": 64, "value": 127}, "group": "control_change"}, {"time": 864, "annotation": {"number": 64, "value": 0}, "group": "control_change"}, {"time": 866, "annotation": {"number": 64, "value": 127}, "group": "control_change"}, {"time": 888, "annotation": {"number": 64, "value": 0}, "group": "control_change"}, {"time": 889, "annotation": {"number": 64, "value": 127}, "group": "control_change"}, {"time": 935, "annotation": {"number": 64, "value": 0}, "group": "control_change"}, {"time": 937, "annotation": {"number": 64, "value": 127}, "group": "control_change"}, {"time": 960, "annotation": {"number": 64, "value": 0}, "group": "control_change"}, {"time": 962, "annotation": {"number": 64, "value": 127}, "group": "control_change"}, {"time": 983, "annotation": {"number": 64, "value": 0}, "group": "control_change"}, {"time": 985, "annotation": {"number": 64, "value": 127}, "group": "control_change"}, {"time": 1008, "annotation": {"number": 64, "value": 0}, "group": "control_change"}, {"time": 1009, "annotation": {"number": 64, "value": 127}, "group": "control_change"}, {"time": 1031, "annotation": {"number": 64, "value": 0}, "group": "control_change"}, {"time": 1033, "annotation": {"number": 64, "value": 127}, "group": "control_change"}, {"time": 1056, "annotation": {"number": 64, "value": 0}, "group": "control_change"}, {"time": 1057, "annotation": {"number": 64, "value": 127}, "group": "control_change"}, {"time": 1080, "annotation": {"number": 64, "value": 0}, "group": "control_change"}, {"time": 1081, "annotation": {"number": 64, "value": 127}, "group": "control_change"}, {"time": 1104, "annotation": {"number": 64, "value": 0}, "group": "control_change"}, {"time": 1106, "annotation": {"number": 64, "value": 127}, "group": "control_change"}, {"time": 1127, "annotation": {"number": 64, "value": 0}, "group": "control_change"}, {"time": 1129, "annotation": {"number": 64, "value": 127}, "group": "control_change"}, {"time": 1130, "annotation": {"number": 64, "value": 127}, "group": "control_change"}, {"time": 1176, "annotation": {"number": 64, "value": 0}, "group": "control_change"}, {"time": 1177, "annotation": {"number": 64, "value": 127}, "group": "control_change"}, {"time": 1200, "annotation": {"number": 64, "value": 0}, "group": "control_change"}, {"time": 1201, "annotation": {"number": 64, "value": 127}, "group": "control_change"}, {"time": 1223, "annotation": {"number": 64, "value": 0}, "group": "control_change"}, {"time": 1225, "annotation": {"number": 64, "value": 127}, "group": "control_change"}, {"time": 1248, "annotation": {"number": 64, "value": 0}, "group": "control_change"}, {"time": 1249, "annotation": {"number": 64, "value": 127}, "group": "control_change"}, {"time": 1272, "annotation": {"number": 64, "value": 0}, "group": "control_change"}, {"time": 1273, "annotation": {"number": 64, "value": 127}, "group": "control_change"}, {"time": 1320, "annotation": {"number": 64, "value": 0}, "group": "control_change"}, {"time": 1322, "annotation": {"number": 64, "value": 127}, "group": "control_change"}, {"time": 1344, "annotation": {"number": 64, "value": 0}, "group": "control_change"}, {"time": 1345, "annotation": {"number": 64, "value": 127}, "group": "control_change"}, {"time": 1369, "annotation": {"number": 64, "value": 0}, "group": "control_change"}, {"time": 1370, "annotation": {"number": 64, "value": 127}, "group": "control_change"}, {"time": 1392, "annotation": {"number": 64, "value": 0}, "group": "control_change"}, {"time": 1393, "annotation": {"number": 64, "value": 127}, "group": "control_change"}, {"time": 1417, "annotation": {"number": 64, "value": 0}, "group": "control_change"}, {"time": 1418, "annotation": {"number": 64, "value": 127}, "group": "control_change"}, {"time": 1440, "annotation": {"number": 64, "value": 0}, "group": "control_change"}, {"time": 1441, "annotation": {"number": 64, "value": 127}, "group": "control_change"}, {"time": 1464, "annotation": {"number": 64, "value": 0}, "group": "control_change"}, {"time": 1466, "annotation": {"number": 64, "value": 127}, "group": "control_change"}, {"time": 1488, "annotation": {"number": 64, "value": 0}, "group": "control_change"}, {"time": 1490, "annotation": {"number": 64, "value": 127}, "group": "control_change"}, {"time": 1512, "annotation": {"number": 64, "value": 0}, "group": "control_change"}, {"time": 1514, "annotation": {"number": 64, "value": 127}, "group": "control_change"}, {"time": 1536, "annotation": {"number": 64, "value": 0}, "group": "control_change"}, {"time": 1537, "annotation": {"number": 64, "value": 127}, "group": "control_change"}, {"time": 1561, "annotation": {"number": 64, "value": 0}, "group": "control_change"}, {"time": 1562, "annotation": {"number": 64, "value": 127}, "group": "control_change"}, {"time": 1608, "annotation": {"number": 64, "value": 0}, "group": "control_change"}, {"time": 1609, "annotation": {"number": 64, "value": 127}, "group": "control_change"}, {"time": 1632, "annotation": {"number": 64, "value": 0}, "group": "control_change"}, {"time": 1634, "annotation": {"number": 64, "value": 127}, "group": "control_change"}, {"time": 1656, "annotation": {"number": 64, "value": 0}, "group": "control_change"}, {"time": 1658, "annotation": {"number": 64, "value": 127}, "group": "control_change"}, {"time": 1705, "annotation": {"number": 64, "value": 0}, "group": "control_change"}, {"time": 1706, "annotation": {"number": 64, "value": 127}, "group": "control_change"}, {"time": 1752, "annotation": {"number": 64, "value": 0}, "group": "control_change"}, {"time": 1753, "annotation": {"number": 64, "value": 127}, "group": "control_change"}, {"time": 1801, "annotation": {"number": 64, "value": 0}, "group": "control_change"}, {"time": 1801, "annotation": {"number": 64, "value": 127}, "group": "control_change"}, {"time": 1848, "annotation": {"number": 64, "value": 0}, "group": "control_change"}, {"time": 1850, "annotation": {"number": 64, "value": 127}, "group": "control_change"}, {"time": 1872, "annotation": {"number": 64, "value": 0}, "group": "control_change"}, {"time": 1874, "annotation": {"number": 64, "value": 127}, "group": "control_change"}, {"time": 1896, "annotation": {"number": 64, "value": 0}, "group": "control_change"}, {"time": 1898, "annotation": {"number": 64, "value": 127}, "group": "control_change"}, {"time": 1920, "annotation": {"number": 64, "value": 0}, "group": "control_change"}, {"time": 1921, "annotation": {"number": 64, "value": 127}, "group": "control_change"}, {"time": 1944, "annotation": {"number": 64, "value": 0}, "group": "control_change"}, {"time": 1946, "annotation": {"number": 64, "value": 127}, "group": "control_change"}, {"time": 1969, "annotation": {"number": 64, "value": 0}, "group": "control_change"}, {"time": 1970, "annotation": {"number": 64, "value": 127}, "group": "control_change"}, {"time": 1992, "annotation": {"number": 64, "value": 0}, "group": "control_change"}, {"time": 1994, "annotation": {"number": 64, "value": 127}, "group": "control_change"}, {"time": 2039, "annotation": {"number": 64, "value": 0}, "group": "control_change"}, {"time": 2042, "annotation": {"number": 64, "value": 127}, "group": "control_change"}, {"time": 2112, "annotation": {"number": 64, "value": 0}, "group": "control_change"}, {"time": 2114, "annotation": {"number": 64, "value": 127}, "group": "control_change"}, {"time": 2184, "annotation": {"number": 64, "value": 0}, "group": "control_change"}, {"time": 2187, "annotation": {"number": 64, "value": 127}, "group": "control_change"}, {"time": 2209, "annotation": {"number": 64, "value": 0}, "group": "control_change"}, {"time": 2210, "annotation": {"number": 64, "value": 127}, "group": "control_change"}, {"time": 2232, "annotation": {"number": 64, "value": 0}, "group": "control_change"}, {"time": 2234, "annotation": {"number": 64, "value": 127}, "group": "control_change"}, {"time": 2281, "annotation": {"number": 64, "value": 0}, "group": "control_change"}, {"time": 2282, "annotation": {"number": 64, "value": 127}, "group": "control_change"}, {"time": 2304, "annotation": {"number": 64, "value": 0}, "group": "control_change"}, {"time": 2306, "annotation": {"number": 64, "value": 127}, "group": "control_change"}, {"time": 2328, "annotation": {"number": 64, "value": 0}, "group": "control_change"}, {"time": 2330, "annotation": {"number": 64, "value": 127}, "group": "control_change"}, {"time": 2351, "annotation": {"number": 64, "value": 0}, "group": "control_change"}, {"time": 2354, "annotation": {"number": 64, "value": 127}, "group": "control_change"}, {"time": 2374, "annotation": {"number": 64, "value": 0}, "group": "control_change"}, {"time": 2377, "annotation": {"number": 64, "value": 127}, "group": "control_change"}, {"time": 2472, "annotation": {"number": 64, "value": 0}, "group": "control_change"}, {"time": 2473, "annotation": {"number": 64, "value": 127}, "group": "control_change"}, {"time": 2496, "annotation": {"number": 64, "value": 0}, "group": "control_change"}, {"time": 2498, "annotation": {"number": 64, "value": 127}, "group": "control_change"}, {"time": 2520, "annotation": {"number": 64, "value": 0}, "group": "control_change"}, {"time": 2521, "annotation": {"number": 64, "value": 127}, "group": "control_change"}, {"time": 2567, "annotation": {"number": 64, "value": 0}, "group": "control_change"}, {"time": 2569, "annotation": {"number": 64, "value": 127}, "group": "control_change"}, {"time": 2592, "annotation": {"number": 64, "value": 0}, "group": "control_change"}, {"time": 2594, "annotation": {"number": 64, "value": 127}, "group": "control_change"}, {"time": 2615, "annotation": {"number": 64, "value": 0}, "group": "control_change"}, {"time": 2617, "annotation": {"number": 64, "value": 127}, "group": "control_change"}, {"time": 2640, "annotation": {"number": 64, "value": 0}, "group": "control_change"}, {"time": 2641, "annotation": {"number": 64, "value": 127}, "group": "control_change"}, {"time": 2663, "annotation": {"number": 64, "value": 0}, "group": "control_change"}, {"time": 2665, "annotation": {"number": 64, "value": 127}, "group": "control_change"}, {"time": 2688, "annotation": {"number": 64, "value": 0}, "group": "control_change"}, {"time": 2689, "annotation": {"number": 64, "value": 127}, "group": "control_change"}, {"time": 2712, "annotation": {"number": 64, "value": 0}, "group": "control_change"}, {"time": 2713, "annotation": {"number": 64, "value": 127}, "group": "control_change"}, {"time": 2736, "annotation": {"number": 64, "value": 0}, "group": "control_change"}, {"time": 2738, "annotation": {"number": 64, "value": 127}, "group": "control_change"}, {"time": 2759, "annotation": {"number": 64, "value": 0}, "group": "control_change"}, {"time": 2761, "annotation": {"number": 64, "value": 127}, "group": "control_change"}, {"time": 2762, "annotation": {"number": 64, "value": 127}, "group": "control_change"}, {"time": 2808, "annotation": {"number": 64, "value": 0}, "group": "control_change"}, {"time": 2809, "annotation": {"number": 64, "value": 127}, "group": "control_change"}, {"time": 2832, "annotation": {"number": 64, "value": 0}, "group": "control_change"}, {"time": 2833, "annotation": {"number": 64, "value": 127}, "group": "control_change"}, {"time": 2855, "annotation": {"number": 64, "value": 0}, "group": "control_change"}, {"time": 2857, "annotation": {"number": 64, "value": 127}, "group": "control_change"}, {"time": 2880, "annotation": {"number": 64, "value": 0}, "group": "control_change"}, {"time": 2881, "annotation": {"number": 64, "value": 127}, "group": "control_change"}, {"time": 2904, "annotation": {"number": 64, "value": 0}, "group": "control_change"}, {"time": 2905, "annotation": {"number": 64, "value": 127}, "group": "control_change"}, {"time": 2952, "annotation": {"number": 64, "value": 0}, "group": "control_change"}, {"time": 2954, "annotation": {"number": 64, "value": 127}, "group": "control_change"}, {"time": 2976, "annotation": {"number": 64, "value": 0}, "group": "control_change"}, {"time": 2977, "annotation": {"number": 64, "value": 127}, "group": "control_change"}, {"time": 3001, "annotation": {"number": 64, "value": 0}, "group": "control_change"}, {"time": 3002, "annotation": {"number": 64, "value": 127}, "group": "control_change"}, {"time": 3024, "annotation": {"number": 64, "value": 0}, "group": "control_change"}, {"time": 3025, "annotation": {"number": 64, "value": 127}, "group": "control_change"}, {"time": 3049, "annotation": {"number": 64, "value": 0}, "group": "control_change"}, {"time": 3050, "annotation": {"number": 64, "value": 127}, "group": "control_change"}, {"time": 3072, "annotation": {"number": 64, "value": 0}, "group": "control_change"}, {"time": 3073, "annotation": {"number": 64, "value": 127}, "group": "control_change"}, {"time": 3096, "annotation": {"number": 64, "value": 0}, "group": "control_change"}, {"time": 3098, "annotation": {"number": 64, "value": 127}, "group": "control_change"}, {"time": 3120, "annotation": {"number": 64, "value": 0}, "group": "control_change"}, {"time": 3122, "annotation": {"number": 64, "value": 127}, "group": "control_change"}, {"time": 3144, "annotation": {"number": 64, "value": 0}, "group": "control_change"}, {"time": 3146, "annotation": {"number": 64, "value": 127}, "group": "control_change"}, {"time": 3168, "annotation": {"number": 64, "value": 0}, "group": "control_change"}, {"time": 3169, "annotation": {"number": 64, "value": 127}, "group": "control_change"}, {"time": 3193, "annotation": {"number": 64, "value": 0}, "group": "control_change"}, {"time": 3194, "annotation": {"number": 64, "value": 127}, "group": "control_change"}, {"time": 3240, "annotation": {"number": 64, "value": 0}, "group": "control_change"}, {"time": 3241, "annotation": {"number": 64, "value": 127}, "group": "control_change"}, {"time": 3264, "annotation": {"number": 64, "value": 0}, "group": "control_change"}, {"time": 3266, "annotation": {"number": 64, "value": 127}, "group": "control_change"}, {"time": 3288, "annotation": {"number": 64, "value": 0}, "group": "control_change"}, {"time": 3290, "annotation": {"number": 64, "value": 127}, "group": "control_change"}, {"time": 3337, "annotation": {"number": 64, "value": 0}, "group": "control_change"}, {"time": 3338, "annotation": {"number": 64, "value": 127}, "group": "control_change"}, {"time": 3384, "annotation": {"number": 64, "value": 0}, "group": "control_change"}, {"time": 3385, "annotation": {"number": 64, "value": 127}, "group": "control_change"}, {"time": 3433, "annotation": {"number": 64, "value": 0}, "group": "control_change"}, {"time": 3433, "annotation": {"number": 64, "value": 127}, "group": "control_change"}, {"time": 3480, "annotation": {"number": 64, "value": 0}, "group": "control_change"}, {"time": 3482, "annotation": {"number": 64, "value": 127}, "group": "control_change"}, {"time": 3504, "annotation": {"number": 64, "value": 0}, "group": "control_change"}, {"time": 3506, "annotation": {"number": 64, "value": 127}, "group": "control_change"}, {"time": 3528, "annotation": {"number": 64, "value": 0}, "group": "control_change"}, {"time": 3530, "annotation": {"number": 64, "value": 127}, "group": "control_change"}, {"time": 3552, "annotation": {"number": 64, "value": 0}, "group": "control_change"}, {"time": 3553, "annotation": {"number": 64, "value": 127}, "group": "control_change"}, {"time": 3576, "annotation": {"number": 64, "value": 0}, "group": "control_change"}, {"time": 3578, "annotation": {"number": 64, "value": 127}, "group": "control_change"}, {"time": 3601, "annotation": {"number": 64, "value": 0}, "group": "control_change"}, {"time": 3602, "annotation": {"number": 64, "value": 127}, "group": "control_change"}, {"time": 3624, "annotation": {"number": 64, "value": 0}, "group": "control_change"}, {"time": 3626, "annotation": {"number": 64, "value": 127}, "group": "control_change"}, {"time": 3672, "annotation": {"number": 64, "value": 0}, "group": "control_change"}, {"time": 3674, "annotation": {"number": 64, "value": 127}, "group": "control_change"}, {"time": 3698, "annotation": {"number": 64, "value": 0}, "group": "control_change"}, {"time": 3700, "annotation": {"number": 64, "value": 127}, "group": "control_change"}, {"time": 3828, "annotation": {"number": 64, "value": 0}, "group": "control_change"}]}]}