{"metadata": {"schema_version": "0.2", "title": "None", "source_filename": "102.mid", "source_format": "midi"}, "resolution": 12, "tempos": [{"time": 0, "qpm": 182.000182000182}, {"time": 6048, "qpm": 180.99984313346928}, {"time": 6372, "qpm": 180.00018000018}, {"time": 6732, "qpm": 182.000182000182}], "time_signatures": [{"time": 0, "numerator": 1, "denominator": 4}], "tracks": [{"program": 4, "is_drum": false, "name": "MELODY", "notes": [{"time": 928, "pitch": 73, "duration": 10, "velocity": 127}, {"time": 940, "pitch": 76, "duration": 10, "velocity": 99}, {"time": 952, "pitch": 78, "duration": 9, "velocity": 122}, {"time": 964, "pitch": 69, "duration": 10, "velocity": 96}, {"time": 976, "pitch": 68, "duration": 10, "velocity": 102}, {"time": 988, "pitch": 66, "duration": 11, "velocity": 99}, {"time": 1000, "pitch": 64, "duration": 24, "velocity": 100}, {"time": 1072, "pitch": 66, "duration": 9, "velocity": 102}, {"time": 1084, "pitch": 69, "duration": 15, "velocity": 88}, {"time": 1096, "pitch": 78, "duration": 11, "velocity": 112}, {"time": 1108, "pitch": 76, "duration": 17, "velocity": 99}, {"time": 1132, "pitch": 69, "duration": 12, "velocity": 99}, {"time": 1144, "pitch": 76, "duration": 48, "velocity": 99}, {"time": 1216, "pitch": 76, "duration": 10, "velocity": 107}, {"time": 1228, "pitch": 78, "duration": 9, "velocity": 107}, {"time": 1240, "pitch": 81, "duration": 8, "velocity": 100}, {"time": 1252, "pitch": 80, "duration": 16, "velocity": 127}, {"time": 1276, "pitch": 78, "duration": 7, "velocity": 122}, {"time": 1288, "pitch": 76, "duration": 20, "velocity": 112}, {"time": 1312, "pitch": 69, "duration": 12, "velocity": 102}, {"time": 1324, "pitch": 73, "duration": 30, "velocity": 127}, {"time": 1360, "pitch": 71, "duration": 16, "velocity": 107}, {"time": 1384, "pitch": 71, "duration": 10, "velocity": 99}, {"time": 1396, "pitch": 73, "duration": 11, "velocity": 112}, {"time": 1408, "pitch": 69, "duration": 8, "velocity": 95}, {"time": 1420, "pitch": 66, "duration": 10, "velocity": 112}, {"time": 1432, "pitch": 71, "duration": 38, "velocity": 97}, {"time": 1504, "pitch": 73, "duration": 9, "velocity": 127}, {"time": 1516, "pitch": 76, "duration": 8, "velocity": 102}, {"time": 1528, "pitch": 78, "duration": 9, "velocity": 117}, {"time": 1540, "pitch": 69, "duration": 16, "velocity": 112}, {"time": 1558, "pitch": 69, "duration": 6, "velocity": 93}, {"time": 1564, "pitch": 66, "duration": 10, "velocity": 96}, {"time": 1576, "pitch": 64, "duration": 37, "velocity": 100}, {"time": 1648, "pitch": 66, "duration": 9, "velocity": 99}, {"time": 1659, "pitch": 69, "duration": 7, "velocity": 100}, {"time": 1672, "pitch": 78, "duration": 8, "velocity": 117}, {"time": 1682, "pitch": 76, "duration": 11, "velocity": 112}, {"time": 1702, "pitch": 76, "duration": 6, "velocity": 107}, {"time": 1708, "pitch": 69, "duration": 10, "velocity": 99}, {"time": 1720, "pitch": 76, "duration": 46, "velocity": 99}, {"time": 1792, "pitch": 76, "duration": 10, "velocity": 100}, {"time": 1804, "pitch": 78, "duration": 9, "velocity": 107}, {"time": 1816, "pitch": 81, "duration": 9, "velocity": 97}, {"time": 1828, "pitch": 80, "duration": 17, "velocity": 122}, {"time": 1852, "pitch": 78, "duration": 11, "velocity": 127}, {"time": 1864, "pitch": 76, "duration": 10, "velocity": 117}, {"time": 1876, "pitch": 78, "duration": 10, "velocity": 102}, {"time": 1888, "pitch": 69, "duration": 12, "velocity": 102}, {"time": 1900, "pitch": 73, "duration": 28, "velocity": 112}, {"time": 1936, "pitch": 71, "duration": 16, "velocity": 99}, {"time": 1960, "pitch": 71, "duration": 9, "velocity": 97}, {"time": 1972, "pitch": 73, "duration": 18, "velocity": 122}, {"time": 1996, "pitch": 66, "duration": 11, "velocity": 127}, {"time": 2008, "pitch": 69, "duration": 38, "velocity": 100}, {"time": 2080, "pitch": 81, "duration": 16, "velocity": 102}, {"time": 2104, "pitch": 83, "duration": 7, "velocity": 112}, {"time": 2116, "pitch": 85, "duration": 18, "velocity": 127}, {"time": 2152, "pitch": 85, "duration": 8, "velocity": 127}, {"time": 2164, "pitch": 83, "duration": 6, "velocity": 100}, {"time": 2176, "pitch": 81, "duration": 7, "velocity": 107}, {"time": 2188, "pitch": 83, "duration": 22, "velocity": 122}, {"time": 2227, "pitch": 81, "duration": 16, "velocity": 127}, {"time": 2248, "pitch": 83, "duration": 6, "velocity": 117}, {"time": 2260, "pitch": 80, "duration": 6, "velocity": 122}, {"time": 2272, "pitch": 78, "duration": 6, "velocity": 117}, {"time": 2284, "pitch": 76, "duration": 8, "velocity": 112}, {"time": 2296, "pitch": 78, "duration": 48, "velocity": 127}, {"time": 2368, "pitch": 81, "duration": 18, "velocity": 112}, {"time": 2392, "pitch": 83, "duration": 7, "velocity": 107}, {"time": 2404, "pitch": 85, "duration": 27, "velocity": 127}, {"time": 2440, "pitch": 85, "duration": 8, "velocity": 127}, {"time": 2452, "pitch": 83, "duration": 8, "velocity": 107}, {"time": 2464, "pitch": 81, "duration": 7, "velocity": 102}, {"time": 2476, "pitch": 78, "duration": 25, "velocity": 122}, {"time": 2512, "pitch": 81, "duration": 18, "velocity": 127}, {"time": 2536, "pitch": 83, "duration": 7, "velocity": 102}, {"time": 2548, "pitch": 80, "duration": 12, "velocity": 117}, {"time": 2560, "pitch": 73, "duration": 9, "velocity": 112}, {"time": 2572, "pitch": 78, "duration": 11, "velocity": 127}, {"time": 2584, "pitch": 76, "duration": 46, "velocity": 99}, {"time": 2656, "pitch": 76, "duration": 18, "velocity": 117}, {"time": 2680, "pitch": 78, "duration": 9, "velocity": 127}, {"time": 2692, "pitch": 81, "duration": 23, "velocity": 102}, {"time": 2728, "pitch": 80, "duration": 9, "velocity": 127}, {"time": 2740, "pitch": 78, "duration": 8, "velocity": 100}, {"time": 2752, "pitch": 76, "duration": 8, "velocity": 107}, {"time": 2764, "pitch": 78, "duration": 31, "velocity": 127}, {"time": 2800, "pitch": 76, "duration": 17, "velocity": 117}, {"time": 2824, "pitch": 78, "duration": 9, "velocity": 127}, {"time": 2836, "pitch": 78, "duration": 8, "velocity": 112}, {"time": 2848, "pitch": 69, "duration": 9, "velocity": 100}, {"time": 2860, "pitch": 71, "duration": 8, "velocity": 99}, {"time": 2872, "pitch": 73, "duration": 51, "velocity": 112}, {"time": 2944, "pitch": 71, "duration": 17, "velocity": 100}, {"time": 2968, "pitch": 73, "duration": 9, "velocity": 102}, {"time": 2980, "pitch": 76, "duration": 27, "velocity": 100}, {"time": 3016, "pitch": 78, "duration": 8, "velocity": 117}, {"time": 3028, "pitch": 76, "duration": 7, "velocity": 96}, {"time": 3040, "pitch": 73, "duration": 7, "velocity": 117}, {"time": 3052, "pitch": 71, "duration": 26, "velocity": 112}, {"time": 3088, "pitch": 76, "duration": 16, "velocity": 122}, {"time": 3112, "pitch": 78, "duration": 8, "velocity": 127}, {"time": 3124, "pitch": 66, "duration": 8, "velocity": 127}, {"time": 3136, "pitch": 64, "duration": 7, "velocity": 96}, {"time": 3148, "pitch": 66, "duration": 6, "velocity": 117}, {"time": 3160, "pitch": 69, "duration": 48, "velocity": 127}, {"time": 3844, "pitch": 73, "duration": 10, "velocity": 127}, {"time": 3856, "pitch": 76, "duration": 10, "velocity": 99}, {"time": 3868, "pitch": 78, "duration": 9, "velocity": 122}, {"time": 3880, "pitch": 69, "duration": 10, "velocity": 96}, {"time": 3892, "pitch": 68, "duration": 10, "velocity": 102}, {"time": 3904, "pitch": 66, "duration": 11, "velocity": 99}, {"time": 3916, "pitch": 64, "duration": 24, "velocity": 100}, {"time": 3988, "pitch": 66, "duration": 9, "velocity": 102}, {"time": 4000, "pitch": 69, "duration": 15, "velocity": 88}, {"time": 4012, "pitch": 78, "duration": 11, "velocity": 112}, {"time": 4024, "pitch": 76, "duration": 17, "velocity": 99}, {"time": 4048, "pitch": 69, "duration": 12, "velocity": 99}, {"time": 4060, "pitch": 76, "duration": 48, "velocity": 99}, {"time": 4132, "pitch": 76, "duration": 10, "velocity": 107}, {"time": 4144, "pitch": 78, "duration": 9, "velocity": 107}, {"time": 4156, "pitch": 81, "duration": 8, "velocity": 100}, {"time": 4168, "pitch": 80, "duration": 16, "velocity": 127}, {"time": 4192, "pitch": 78, "duration": 7, "velocity": 122}, {"time": 4204, "pitch": 76, "duration": 20, "velocity": 112}, {"time": 4228, "pitch": 69, "duration": 12, "velocity": 102}, {"time": 4240, "pitch": 73, "duration": 30, "velocity": 127}, {"time": 4276, "pitch": 71, "duration": 16, "velocity": 107}, {"time": 4300, "pitch": 71, "duration": 10, "velocity": 99}, {"time": 4312, "pitch": 73, "duration": 11, "velocity": 112}, {"time": 4324, "pitch": 69, "duration": 8, "velocity": 95}, {"time": 4336, "pitch": 66, "duration": 10, "velocity": 112}, {"time": 4348, "pitch": 71, "duration": 38, "velocity": 97}, {"time": 4420, "pitch": 73, "duration": 9, "velocity": 127}, {"time": 4432, "pitch": 76, "duration": 8, "velocity": 102}, {"time": 4444, "pitch": 78, "duration": 9, "velocity": 117}, {"time": 4456, "pitch": 69, "duration": 16, "velocity": 112}, {"time": 4474, "pitch": 69, "duration": 6, "velocity": 93}, {"time": 4480, "pitch": 66, "duration": 10, "velocity": 96}, {"time": 4492, "pitch": 64, "duration": 37, "velocity": 100}, {"time": 4564, "pitch": 66, "duration": 9, "velocity": 99}, {"time": 4575, "pitch": 69, "duration": 7, "velocity": 100}, {"time": 4588, "pitch": 78, "duration": 8, "velocity": 117}, {"time": 4598, "pitch": 76, "duration": 11, "velocity": 112}, {"time": 4618, "pitch": 76, "duration": 6, "velocity": 107}, {"time": 4624, "pitch": 69, "duration": 10, "velocity": 99}, {"time": 4636, "pitch": 76, "duration": 46, "velocity": 99}, {"time": 4708, "pitch": 76, "duration": 10, "velocity": 100}, {"time": 4720, "pitch": 78, "duration": 9, "velocity": 107}, {"time": 4732, "pitch": 81, "duration": 9, "velocity": 97}, {"time": 4744, "pitch": 80, "duration": 17, "velocity": 122}, {"time": 4768, "pitch": 78, "duration": 11, "velocity": 127}, {"time": 4780, "pitch": 76, "duration": 10, "velocity": 117}, {"time": 4792, "pitch": 78, "duration": 10, "velocity": 102}, {"time": 4804, "pitch": 69, "duration": 12, "velocity": 102}, {"time": 4816, "pitch": 73, "duration": 28, "velocity": 112}, {"time": 4852, "pitch": 71, "duration": 16, "velocity": 99}, {"time": 4876, "pitch": 71, "duration": 9, "velocity": 97}, {"time": 4888, "pitch": 73, "duration": 18, "velocity": 122}, {"time": 4912, "pitch": 66, "duration": 11, "velocity": 127}, {"time": 4924, "pitch": 69, "duration": 38, "velocity": 100}, {"time": 4996, "pitch": 81, "duration": 16, "velocity": 102}, {"time": 5020, "pitch": 83, "duration": 7, "velocity": 112}, {"time": 5032, "pitch": 85, "duration": 18, "velocity": 127}, {"time": 5068, "pitch": 85, "duration": 8, "velocity": 127}, {"time": 5080, "pitch": 83, "duration": 6, "velocity": 100}, {"time": 5092, "pitch": 81, "duration": 7, "velocity": 107}, {"time": 5104, "pitch": 83, "duration": 22, "velocity": 122}, {"time": 5143, "pitch": 81, "duration": 16, "velocity": 127}, {"time": 5164, "pitch": 83, "duration": 6, "velocity": 117}, {"time": 5176, "pitch": 80, "duration": 6, "velocity": 122}, {"time": 5188, "pitch": 78, "duration": 6, "velocity": 117}, {"time": 5200, "pitch": 76, "duration": 8, "velocity": 112}, {"time": 5212, "pitch": 78, "duration": 48, "velocity": 127}, {"time": 5284, "pitch": 81, "duration": 18, "velocity": 112}, {"time": 5308, "pitch": 83, "duration": 7, "velocity": 107}, {"time": 5320, "pitch": 85, "duration": 27, "velocity": 127}, {"time": 5356, "pitch": 85, "duration": 8, "velocity": 127}, {"time": 5368, "pitch": 83, "duration": 8, "velocity": 107}, {"time": 5380, "pitch": 81, "duration": 7, "velocity": 102}, {"time": 5392, "pitch": 78, "duration": 25, "velocity": 122}, {"time": 5428, "pitch": 81, "duration": 18, "velocity": 127}, {"time": 5452, "pitch": 83, "duration": 7, "velocity": 102}, {"time": 5464, "pitch": 80, "duration": 12, "velocity": 117}, {"time": 5476, "pitch": 73, "duration": 9, "velocity": 112}, {"time": 5488, "pitch": 78, "duration": 11, "velocity": 127}, {"time": 5500, "pitch": 76, "duration": 46, "velocity": 99}, {"time": 5572, "pitch": 76, "duration": 18, "velocity": 117}, {"time": 5596, "pitch": 78, "duration": 9, "velocity": 127}, {"time": 5608, "pitch": 81, "duration": 23, "velocity": 102}, {"time": 5644, "pitch": 80, "duration": 9, "velocity": 127}, {"time": 5656, "pitch": 78, "duration": 8, "velocity": 100}, {"time": 5668, "pitch": 76, "duration": 8, "velocity": 107}, {"time": 5680, "pitch": 78, "duration": 31, "velocity": 127}, {"time": 5716, "pitch": 76, "duration": 17, "velocity": 117}, {"time": 5740, "pitch": 78, "duration": 9, "velocity": 127}, {"time": 5752, "pitch": 78, "duration": 8, "velocity": 112}, {"time": 5764, "pitch": 69, "duration": 9, "velocity": 100}, {"time": 5776, "pitch": 71, "duration": 8, "velocity": 99}, {"time": 5788, "pitch": 73, "duration": 51, "velocity": 112}, {"time": 5860, "pitch": 71, "duration": 17, "velocity": 100}, {"time": 5884, "pitch": 73, "duration": 9, "velocity": 102}, {"time": 5896, "pitch": 76, "duration": 27, "velocity": 100}, {"time": 5932, "pitch": 78, "duration": 8, "velocity": 117}, {"time": 5944, "pitch": 76, "duration": 7, "velocity": 96}, {"time": 5956, "pitch": 73, "duration": 7, "velocity": 117}, {"time": 5968, "pitch": 71, "duration": 26, "velocity": 112}, {"time": 6004, "pitch": 76, "duration": 16, "velocity": 122}, {"time": 6028, "pitch": 78, "duration": 8, "velocity": 127}, {"time": 6040, "pitch": 66, "duration": 8, "velocity": 127}, {"time": 6052, "pitch": 64, "duration": 7, "velocity": 96}, {"time": 6064, "pitch": 66, "duration": 6, "velocity": 117}, {"time": 6076, "pitch": 69, "duration": 48, "velocity": 127}, {"time": 6148, "pitch": 73, "duration": 10, "velocity": 127}, {"time": 6160, "pitch": 76, "duration": 10, "velocity": 99}, {"time": 6172, "pitch": 78, "duration": 9, "velocity": 122}, {"time": 6184, "pitch": 69, "duration": 10, "velocity": 96}, {"time": 6196, "pitch": 68, "duration": 10, "velocity": 102}, {"time": 6208, "pitch": 66, "duration": 11, "velocity": 99}, {"time": 6220, "pitch": 64, "duration": 24, "velocity": 100}, {"time": 6328, "pitch": 66, "duration": 12, "velocity": 112}, {"time": 6340, "pitch": 69, "duration": 5, "velocity": 97}, {"time": 6352, "pitch": 78, "duration": 10, "velocity": 112}, {"time": 6364, "pitch": 76, "duration": 17, "velocity": 117}, {"time": 6388, "pitch": 69, "duration": 11, "velocity": 107}, {"time": 6400, "pitch": 76, "duration": 66, "velocity": 100}, {"time": 6508, "pitch": 76, "duration": 10, "velocity": 102}, {"time": 6520, "pitch": 78, "duration": 8, "velocity": 117}, {"time": 6532, "pitch": 81, "duration": 8, "velocity": 99}, {"time": 6544, "pitch": 80, "duration": 22, "velocity": 127}, {"time": 6568, "pitch": 78, "duration": 8, "velocity": 127}, {"time": 6580, "pitch": 76, "duration": 8, "velocity": 99}, {"time": 6592, "pitch": 78, "duration": 8, "velocity": 122}, {"time": 6604, "pitch": 69, "duration": 10, "velocity": 99}, {"time": 6616, "pitch": 73, "duration": 30, "velocity": 122}, {"time": 6652, "pitch": 76, "duration": 8, "velocity": 112}, {"time": 6664, "pitch": 78, "duration": 9, "velocity": 122}, {"time": 6676, "pitch": 81, "duration": 7, "velocity": 117}, {"time": 6688, "pitch": 83, "duration": 130, "velocity": 127}, {"time": 6832, "pitch": 81, "duration": 9, "velocity": 112}, {"time": 6844, "pitch": 83, "duration": 10, "velocity": 97}, {"time": 6856, "pitch": 85, "duration": 8, "velocity": 122}, {"time": 6868, "pitch": 78, "duration": 9, "velocity": 127}, {"time": 6880, "pitch": 76, "duration": 9, "velocity": 100}, {"time": 6892, "pitch": 78, "duration": 8, "velocity": 122}, {"time": 6904, "pitch": 81, "duration": 74, "velocity": 122}]}, {"program": 0, "is_drum": false, "name": "PIANO", "notes": [{"time": 292, "pitch": 49, "duration": 10, "velocity": 127}, {"time": 292, "pitch": 61, "duration": 11, "velocity": 127}, {"time": 304, "pitch": 47, "duration": 10, "velocity": 78}, {"time": 304, "pitch": 59, "duration": 11, "velocity": 107}, {"time": 316, "pitch": 45, "duration": 54, "velocity": 102}, {"time": 316, "pitch": 49, "duration": 41, "velocity": 100}, {"time": 316, "pitch": 52, "duration": 40, "velocity": 81}, {"time": 316, "pitch": 57, "duration": 53, "velocity": 107}, {"time": 316, "pitch": 61, "duration": 43, "velocity": 107}, {"time": 316, "pitch": 64, "duration": 42, "velocity": 89}, {"time": 364, "pitch": 45, "duration": 6, "velocity": 102}, {"time": 364, "pitch": 57, "duration": 5, "velocity": 102}, {"time": 376, "pitch": 44, "duration": 11, "velocity": 82}, {"time": 376, "pitch": 56, "duration": 4, "velocity": 117}, {"time": 388, "pitch": 42, "duration": 43, "velocity": 96}, {"time": 388, "pitch": 54, "duration": 42, "velocity": 95}, {"time": 388, "pitch": 57, "duration": 42, "velocity": 107}, {"time": 388, "pitch": 61, "duration": 42, "velocity": 102}, {"time": 436, "pitch": 54, "duration": 10, "velocity": 92}, {"time": 436, "pitch": 66, "duration": 11, "velocity": 122}, {"time": 436, "pitch": 69, "duration": 6, "velocity": 96}, {"time": 448, "pitch": 52, "duration": 10, "velocity": 68}, {"time": 448, "pitch": 64, "duration": 10, "velocity": 100}, {"time": 460, "pitch": 50, "duration": 48, "velocity": 90}, {"time": 460, "pitch": 62, "duration": 47, "velocity": 99}, {"time": 460, "pitch": 66, "duration": 47, "velocity": 107}, {"time": 460, "pitch": 69, "duration": 47, "velocity": 90}, {"time": 508, "pitch": 50, "duration": 1, "velocity": 102}, {"time": 508, "pitch": 62, "duration": 8, "velocity": 99}, {"time": 508, "pitch": 66, "duration": 6, "velocity": 99}, {"time": 520, "pitch": 49, "duration": 9, "velocity": 107}, {"time": 520, "pitch": 61, "duration": 10, "velocity": 99}, {"time": 532, "pitch": 47, "duration": 14, "velocity": 90}, {"time": 532, "pitch": 59, "duration": 13, "velocity": 93}, {"time": 544, "pitch": 57, "duration": 9, "velocity": 122}, {"time": 556, "pitch": 54, "duration": 9, "velocity": 122}, {"time": 568, "pitch": 66, "duration": 10, "velocity": 127}, {"time": 580, "pitch": 64, "duration": 9, "velocity": 112}, {"time": 592, "pitch": 61, "duration": 8, "velocity": 127}, {"time": 604, "pitch": 59, "duration": 10, "velocity": 117}, {"time": 760, "pitch": 59, "duration": 10, "velocity": 117}, {"time": 772, "pitch": 57, "duration": 12, "velocity": 96}, {"time": 784, "pitch": 56, "duration": 26, "velocity": 112}, {"time": 820, "pitch": 45, "duration": 29, "velocity": 37}, {"time": 820, "pitch": 57, "duration": 29, "velocity": 92}, {"time": 820, "pitch": 62, "duration": 30, "velocity": 99}, {"time": 820, "pitch": 64, "duration": 29, "velocity": 92}, {"time": 856, "pitch": 45, "duration": 72, "velocity": 53}, {"time": 856, "pitch": 57, "duration": 74, "velocity": 83}, {"time": 856, "pitch": 61, "duration": 74, "velocity": 95}, {"time": 856, "pitch": 64, "duration": 74, "velocity": 79}, {"time": 928, "pitch": 45, "duration": 1, "velocity": 79}, {"time": 940, "pitch": 57, "duration": 3, "velocity": 88}, {"time": 940, "pitch": 61, "duration": 3, "velocity": 107}, {"time": 940, "pitch": 64, "duration": 2, "velocity": 83}, {"time": 952, "pitch": 57, "duration": 3, "velocity": 86}, {"time": 952, "pitch": 61, "duration": 3, "velocity": 96}, {"time": 952, "pitch": 64, "duration": 4, "velocity": 86}, {"time": 964, "pitch": 45, "duration": 16, "velocity": 68}, {"time": 976, "pitch": 57, "duration": 3, "velocity": 78}, {"time": 976, "pitch": 61, "duration": 4, "velocity": 93}, {"time": 976, "pitch": 64, "duration": 3, "velocity": 77}, {"time": 988, "pitch": 57, "duration": 3, "velocity": 92}, {"time": 988, "pitch": 61, "duration": 3, "velocity": 100}, {"time": 988, "pitch": 64, "duration": 3, "velocity": 85}, {"time": 1000, "pitch": 45, "duration": 20, "velocity": 55}, {"time": 1012, "pitch": 57, "duration": 3, "velocity": 82}, {"time": 1012, "pitch": 61, "duration": 3, "velocity": 97}, {"time": 1012, "pitch": 64, "duration": 3, "velocity": 81}, {"time": 1024, "pitch": 57, "duration": 3, "velocity": 92}, {"time": 1024, "pitch": 61, "duration": 3, "velocity": 102}, {"time": 1024, "pitch": 64, "duration": 3, "velocity": 89}, {"time": 1036, "pitch": 45, "duration": 16, "velocity": 66}, {"time": 1048, "pitch": 57, "duration": 4, "velocity": 78}, {"time": 1048, "pitch": 61, "duration": 3, "velocity": 92}, {"time": 1048, "pitch": 64, "duration": 4, "velocity": 79}, {"time": 1060, "pitch": 57, "duration": 3, "velocity": 88}, {"time": 1060, "pitch": 61, "duration": 3, "velocity": 99}, {"time": 1060, "pitch": 64, "duration": 3, "velocity": 90}, {"time": 1072, "pitch": 50, "duration": 17, "velocity": 66}, {"time": 1084, "pitch": 57, "duration": 3, "velocity": 81}, {"time": 1084, "pitch": 62, "duration": 4, "velocity": 90}, {"time": 1084, "pitch": 66, "duration": 4, "velocity": 83}, {"time": 1096, "pitch": 57, "duration": 3, "velocity": 90}, {"time": 1096, "pitch": 62, "duration": 4, "velocity": 97}, {"time": 1096, "pitch": 66, "duration": 3, "velocity": 95}, {"time": 1108, "pitch": 50, "duration": 16, "velocity": 66}, {"time": 1120, "pitch": 57, "duration": 4, "velocity": 79}, {"time": 1120, "pitch": 62, "duration": 4, "velocity": 92}, {"time": 1120, "pitch": 66, "duration": 4, "velocity": 89}, {"time": 1132, "pitch": 57, "duration": 4, "velocity": 85}, {"time": 1132, "pitch": 62, "duration": 3, "velocity": 96}, {"time": 1132, "pitch": 66, "duration": 3, "velocity": 85}, {"time": 1144, "pitch": 45, "duration": 17, "velocity": 57}, {"time": 1156, "pitch": 57, "duration": 3, "velocity": 75}, {"time": 1156, "pitch": 61, "duration": 4, "velocity": 95}, {"time": 1156, "pitch": 64, "duration": 4, "velocity": 78}, {"time": 1168, "pitch": 57, "duration": 3, "velocity": 93}, {"time": 1168, "pitch": 61, "duration": 4, "velocity": 112}, {"time": 1168, "pitch": 64, "duration": 3, "velocity": 86}, {"time": 1180, "pitch": 45, "duration": 16, "velocity": 60}, {"time": 1192, "pitch": 57, "duration": 3, "velocity": 86}, {"time": 1192, "pitch": 61, "duration": 3, "velocity": 102}, {"time": 1192, "pitch": 64, "duration": 3, "velocity": 88}, {"time": 1204, "pitch": 57, "duration": 4, "velocity": 90}, {"time": 1204, "pitch": 61, "duration": 3, "velocity": 102}, {"time": 1204, "pitch": 64, "duration": 3, "velocity": 85}, {"time": 1216, "pitch": 45, "duration": 16, "velocity": 68}, {"time": 1228, "pitch": 57, "duration": 4, "velocity": 90}, {"time": 1228, "pitch": 61, "duration": 3, "velocity": 102}, {"time": 1228, "pitch": 64, "duration": 4, "velocity": 86}, {"time": 1240, "pitch": 57, "duration": 4, "velocity": 93}, {"time": 1240, "pitch": 61, "duration": 3, "velocity": 117}, {"time": 1240, "pitch": 64, "duration": 3, "velocity": 88}, {"time": 1252, "pitch": 44, "duration": 12, "velocity": 89}, {"time": 1264, "pitch": 56, "duration": 3, "velocity": 99}, {"time": 1264, "pitch": 61, "duration": 3, "velocity": 95}, {"time": 1264, "pitch": 64, "duration": 3, "velocity": 85}, {"time": 1276, "pitch": 56, "duration": 4, "velocity": 99}, {"time": 1276, "pitch": 61, "duration": 4, "velocity": 100}, {"time": 1276, "pitch": 64, "duration": 4, "velocity": 89}, {"time": 1288, "pitch": 42, "duration": 11, "velocity": 76}, {"time": 1300, "pitch": 57, "duration": 4, "velocity": 78}, {"time": 1300, "pitch": 61, "duration": 4, "velocity": 88}, {"time": 1300, "pitch": 66, "duration": 4, "velocity": 72}, {"time": 1312, "pitch": 57, "duration": 4, "velocity": 93}, {"time": 1312, "pitch": 61, "duration": 4, "velocity": 112}, {"time": 1312, "pitch": 66, "duration": 4, "velocity": 92}, {"time": 1324, "pitch": 45, "duration": 12, "velocity": 71}, {"time": 1336, "pitch": 57, "duration": 3, "velocity": 85}, {"time": 1336, "pitch": 61, "duration": 3, "velocity": 99}, {"time": 1336, "pitch": 64, "duration": 3, "velocity": 82}, {"time": 1348, "pitch": 57, "duration": 3, "velocity": 95}, {"time": 1348, "pitch": 61, "duration": 3, "velocity": 107}, {"time": 1348, "pitch": 64, "duration": 4, "velocity": 88}, {"time": 1360, "pitch": 47, "duration": 16, "velocity": 68}, {"time": 1372, "pitch": 59, "duration": 3, "velocity": 89}, {"time": 1372, "pitch": 63, "duration": 3, "velocity": 112}, {"time": 1372, "pitch": 66, "duration": 4, "velocity": 107}, {"time": 1384, "pitch": 59, "duration": 3, "velocity": 93}, {"time": 1384, "pitch": 63, "duration": 3, "velocity": 122}, {"time": 1384, "pitch": 66, "duration": 4, "velocity": 112}, {"time": 1396, "pitch": 51, "duration": 16, "velocity": 99}, {"time": 1408, "pitch": 59, "duration": 3, "velocity": 85}, {"time": 1408, "pitch": 63, "duration": 4, "velocity": 112}, {"time": 1408, "pitch": 66, "duration": 4, "velocity": 99}, {"time": 1420, "pitch": 59, "duration": 3, "velocity": 93}, {"time": 1420, "pitch": 63, "duration": 4, "velocity": 117}, {"time": 1420, "pitch": 66, "duration": 4, "velocity": 100}, {"time": 1432, "pitch": 52, "duration": 13, "velocity": 69}, {"time": 1444, "pitch": 59, "duration": 4, "velocity": 85}, {"time": 1444, "pitch": 64, "duration": 3, "velocity": 89}, {"time": 1444, "pitch": 68, "duration": 4, "velocity": 89}, {"time": 1456, "pitch": 59, "duration": 3, "velocity": 96}, {"time": 1456, "pitch": 64, "duration": 3, "velocity": 96}, {"time": 1456, "pitch": 68, "duration": 3, "velocity": 93}, {"time": 1468, "pitch": 50, "duration": 11, "velocity": 122}, {"time": 1468, "pitch": 62, "duration": 10, "velocity": 117}, {"time": 1480, "pitch": 49, "duration": 9, "velocity": 107}, {"time": 1480, "pitch": 61, "duration": 12, "velocity": 127}, {"time": 1492, "pitch": 47, "duration": 10, "velocity": 85}, {"time": 1492, "pitch": 59, "duration": 10, "velocity": 107}, {"time": 1504, "pitch": 45, "duration": 15, "velocity": 90}, {"time": 1516, "pitch": 57, "duration": 4, "velocity": 90}, {"time": 1516, "pitch": 61, "duration": 4, "velocity": 107}, {"time": 1516, "pitch": 64, "duration": 3, "velocity": 90}, {"time": 1528, "pitch": 57, "duration": 3, "velocity": 95}, {"time": 1528, "pitch": 61, "duration": 3, "velocity": 122}, {"time": 1528, "pitch": 64, "duration": 3, "velocity": 97}, {"time": 1540, "pitch": 45, "duration": 14, "velocity": 66}, {"time": 1552, "pitch": 57, "duration": 3, "velocity": 95}, {"time": 1552, "pitch": 61, "duration": 3, "velocity": 117}, {"time": 1552, "pitch": 64, "duration": 3, "velocity": 95}, {"time": 1564, "pitch": 57, "duration": 4, "velocity": 97}, {"time": 1564, "pitch": 61, "duration": 3, "velocity": 117}, {"time": 1564, "pitch": 64, "duration": 4, "velocity": 95}, {"time": 1576, "pitch": 45, "duration": 14, "velocity": 61}, {"time": 1588, "pitch": 57, "duration": 3, "velocity": 95}, {"time": 1588, "pitch": 61, "duration": 4, "velocity": 107}, {"time": 1588, "pitch": 64, "duration": 4, "velocity": 89}, {"time": 1600, "pitch": 57, "duration": 3, "velocity": 97}, {"time": 1600, "pitch": 61, "duration": 3, "velocity": 117}, {"time": 1600, "pitch": 64, "duration": 3, "velocity": 93}, {"time": 1612, "pitch": 45, "duration": 15, "velocity": 73}, {"time": 1624, "pitch": 57, "duration": 3, "velocity": 93}, {"time": 1624, "pitch": 61, "duration": 3, "velocity": 107}, {"time": 1624, "pitch": 64, "duration": 3, "velocity": 90}, {"time": 1636, "pitch": 57, "duration": 3, "velocity": 90}, {"time": 1636, "pitch": 61, "duration": 3, "velocity": 112}, {"time": 1636, "pitch": 64, "duration": 4, "velocity": 86}, {"time": 1648, "pitch": 50, "duration": 12, "velocity": 78}, {"time": 1660, "pitch": 57, "duration": 3, "velocity": 86}, {"time": 1660, "pitch": 62, "duration": 3, "velocity": 97}, {"time": 1660, "pitch": 66, "duration": 3, "velocity": 96}, {"time": 1672, "pitch": 57, "duration": 3, "velocity": 90}, {"time": 1672, "pitch": 62, "duration": 3, "velocity": 100}, {"time": 1672, "pitch": 66, "duration": 4, "velocity": 100}, {"time": 1684, "pitch": 50, "duration": 13, "velocity": 81}, {"time": 1696, "pitch": 57, "duration": 3, "velocity": 86}, {"time": 1696, "pitch": 62, "duration": 3, "velocity": 112}, {"time": 1696, "pitch": 66, "duration": 3, "velocity": 96}, {"time": 1708, "pitch": 57, "duration": 3, "velocity": 96}, {"time": 1708, "pitch": 62, "duration": 2, "velocity": 107}, {"time": 1708, "pitch": 66, "duration": 4, "velocity": 107}, {"time": 1720, "pitch": 45, "duration": 14, "velocity": 72}, {"time": 1732, "pitch": 57, "duration": 3, "velocity": 96}, {"time": 1732, "pitch": 61, "duration": 3, "velocity": 122}, {"time": 1732, "pitch": 64, "duration": 3, "velocity": 95}, {"time": 1744, "pitch": 57, "duration": 3, "velocity": 96}, {"time": 1744, "pitch": 61, "duration": 3, "velocity": 127}, {"time": 1744, "pitch": 64, "duration": 3, "velocity": 97}, {"time": 1756, "pitch": 52, "duration": 13, "velocity": 73}, {"time": 1768, "pitch": 57, "duration": 3, "velocity": 93}, {"time": 1768, "pitch": 61, "duration": 3, "velocity": 112}, {"time": 1768, "pitch": 64, "duration": 3, "velocity": 90}, {"time": 1780, "pitch": 57, "duration": 3, "velocity": 96}, {"time": 1780, "pitch": 61, "duration": 3, "velocity": 117}, {"time": 1780, "pitch": 64, "duration": 3, "velocity": 95}, {"time": 1792, "pitch": 45, "duration": 13, "velocity": 75}, {"time": 1804, "pitch": 57, "duration": 3, "velocity": 95}, {"time": 1804, "pitch": 61, "duration": 3, "velocity": 112}, {"time": 1804, "pitch": 64, "duration": 3, "velocity": 92}, {"time": 1816, "pitch": 57, "duration": 3, "velocity": 99}, {"time": 1816, "pitch": 61, "duration": 3, "velocity": 122}, {"time": 1816, "pitch": 64, "duration": 3, "velocity": 95}, {"time": 1828, "pitch": 49, "duration": 12, "velocity": 92}, {"time": 1840, "pitch": 61, "duration": 3, "velocity": 97}, {"time": 1840, "pitch": 64, "duration": 2, "velocity": 88}, {"time": 1840, "pitch": 68, "duration": 2, "velocity": 95}, {"time": 1852, "pitch": 61, "duration": 4, "velocity": 122}, {"time": 1852, "pitch": 64, "duration": 2, "velocity": 107}, {"time": 1852, "pitch": 68, "duration": 2, "velocity": 100}, {"time": 1864, "pitch": 50, "duration": 14, "velocity": 63}, {"time": 1876, "pitch": 57, "duration": 4, "velocity": 95}, {"time": 1876, "pitch": 62, "duration": 3, "velocity": 97}, {"time": 1876, "pitch": 66, "duration": 4, "velocity": 96}, {"time": 1888, "pitch": 57, "duration": 3, "velocity": 97}, {"time": 1888, "pitch": 62, "duration": 3, "velocity": 97}, {"time": 1888, "pitch": 66, "duration": 4, "velocity": 97}, {"time": 1900, "pitch": 51, "duration": 13, "velocity": 72}, {"time": 1912, "pitch": 63, "duration": 4, "velocity": 112}, {"time": 1912, "pitch": 66, "duration": 4, "velocity": 107}, {"time": 1912, "pitch": 69, "duration": 4, "velocity": 86}, {"time": 1924, "pitch": 63, "duration": 3, "velocity": 117}, {"time": 1924, "pitch": 66, "duration": 4, "velocity": 107}, {"time": 1924, "pitch": 69, "duration": 3, "velocity": 85}, {"time": 1936, "pitch": 52, "duration": 17, "velocity": 76}, {"time": 1948, "pitch": 59, "duration": 3, "velocity": 95}, {"time": 1948, "pitch": 64, "duration": 4, "velocity": 99}, {"time": 1948, "pitch": 68, "duration": 3, "velocity": 100}, {"time": 1960, "pitch": 59, "duration": 3, "velocity": 96}, {"time": 1960, "pitch": 64, "duration": 3, "velocity": 100}, {"time": 1960, "pitch": 68, "duration": 3, "velocity": 102}, {"time": 1972, "pitch": 52, "duration": 14, "velocity": 76}, {"time": 1984, "pitch": 59, "duration": 3, "velocity": 89}, {"time": 1984, "pitch": 64, "duration": 4, "velocity": 97}, {"time": 1984, "pitch": 68, "duration": 3, "velocity": 100}, {"time": 1996, "pitch": 59, "duration": 3, "velocity": 96}, {"time": 1996, "pitch": 64, "duration": 3, "velocity": 97}, {"time": 1996, "pitch": 68, "duration": 3, "velocity": 100}, {"time": 2008, "pitch": 45, "duration": 9, "velocity": 100}, {"time": 2008, "pitch": 57, "duration": 9, "velocity": 112}, {"time": 2020, "pitch": 52, "duration": 9, "velocity": 102}, {"time": 2020, "pitch": 64, "duration": 9, "velocity": 99}, {"time": 2032, "pitch": 49, "duration": 8, "velocity": 93}, {"time": 2032, "pitch": 61, "duration": 9, "velocity": 112}, {"time": 2044, "pitch": 45, "duration": 12, "velocity": 93}, {"time": 2044, "pitch": 57, "duration": 11, "velocity": 122}, {"time": 2080, "pitch": 45, "duration": 15, "velocity": 74}, {"time": 2092, "pitch": 57, "duration": 4, "velocity": 86}, {"time": 2092, "pitch": 61, "duration": 5, "velocity": 93}, {"time": 2092, "pitch": 64, "duration": 5, "velocity": 85}, {"time": 2104, "pitch": 57, "duration": 3, "velocity": 96}, {"time": 2104, "pitch": 61, "duration": 3, "velocity": 112}, {"time": 2104, "pitch": 64, "duration": 4, "velocity": 93}, {"time": 2116, "pitch": 45, "duration": 16, "velocity": 70}, {"time": 2128, "pitch": 57, "duration": 4, "velocity": 93}, {"time": 2128, "pitch": 61, "duration": 4, "velocity": 117}, {"time": 2128, "pitch": 64, "duration": 4, "velocity": 93}, {"time": 2128, "pitch": 67, "duration": 4, "velocity": 89}, {"time": 2140, "pitch": 57, "duration": 4, "velocity": 100}, {"time": 2140, "pitch": 61, "duration": 5, "velocity": 122}, {"time": 2140, "pitch": 64, "duration": 5, "velocity": 93}, {"time": 2140, "pitch": 67, "duration": 5, "velocity": 92}, {"time": 2152, "pitch": 50, "duration": 16, "velocity": 85}, {"time": 2164, "pitch": 57, "duration": 4, "velocity": 95}, {"time": 2164, "pitch": 62, "duration": 5, "velocity": 100}, {"time": 2164, "pitch": 66, "duration": 6, "velocity": 99}, {"time": 2176, "pitch": 57, "duration": 4, "velocity": 90}, {"time": 2176, "pitch": 62, "duration": 5, "velocity": 97}, {"time": 2176, "pitch": 66, "duration": 5, "velocity": 97}, {"time": 2188, "pitch": 50, "duration": 15, "velocity": 74}, {"time": 2200, "pitch": 57, "duration": 5, "velocity": 88}, {"time": 2200, "pitch": 62, "duration": 5, "velocity": 97}, {"time": 2200, "pitch": 66, "duration": 5, "velocity": 92}, {"time": 2212, "pitch": 57, "duration": 3, "velocity": 100}, {"time": 2212, "pitch": 62, "duration": 4, "velocity": 102}, {"time": 2212, "pitch": 66, "duration": 4, "velocity": 107}, {"time": 2224, "pitch": 49, "duration": 16, "velocity": 86}, {"time": 2236, "pitch": 61, "duration": 4, "velocity": 117}, {"time": 2236, "pitch": 64, "duration": 4, "velocity": 107}, {"time": 2236, "pitch": 68, "duration": 4, "velocity": 117}, {"time": 2248, "pitch": 61, "duration": 5, "velocity": 107}, {"time": 2248, "pitch": 64, "duration": 4, "velocity": 100}, {"time": 2248, "pitch": 68, "duration": 5, "velocity": 112}, {"time": 2260, "pitch": 49, "duration": 17, "velocity": 100}, {"time": 2272, "pitch": 61, "duration": 4, "velocity": 112}, {"time": 2272, "pitch": 64, "duration": 4, "velocity": 102}, {"time": 2272, "pitch": 68, "duration": 4, "velocity": 107}, {"time": 2284, "pitch": 61, "duration": 4, "velocity": 117}, {"time": 2284, "pitch": 64, "duration": 3, "velocity": 112}, {"time": 2284, "pitch": 68, "duration": 4, "velocity": 117}, {"time": 2296, "pitch": 42, "duration": 18, "velocity": 96}, {"time": 2308, "pitch": 57, "duration": 4, "velocity": 96}, {"time": 2308, "pitch": 61, "duration": 4, "velocity": 127}, {"time": 2308, "pitch": 66, "duration": 4, "velocity": 99}, {"time": 2320, "pitch": 57, "duration": 4, "velocity": 100}, {"time": 2320, "pitch": 61, "duration": 4, "velocity": 127}, {"time": 2320, "pitch": 66, "duration": 4, "velocity": 112}, {"time": 2332, "pitch": 54, "duration": 17, "velocity": 81}, {"time": 2344, "pitch": 57, "duration": 5, "velocity": 96}, {"time": 2344, "pitch": 61, "duration": 4, "velocity": 122}, {"time": 2344, "pitch": 66, "duration": 5, "velocity": 99}, {"time": 2356, "pitch": 57, "duration": 4, "velocity": 99}, {"time": 2356, "pitch": 61, "duration": 4, "velocity": 127}, {"time": 2356, "pitch": 66, "duration": 3, "velocity": 100}, {"time": 2368, "pitch": 45, "duration": 27, "velocity": 78}, {"time": 2380, "pitch": 57, "duration": 4, "velocity": 93}, {"time": 2380, "pitch": 61, "duration": 4, "velocity": 117}, {"time": 2380, "pitch": 64, "duration": 4, "velocity": 93}, {"time": 2392, "pitch": 57, "duration": 4, "velocity": 97}, {"time": 2392, "pitch": 61, "duration": 3, "velocity": 117}, {"time": 2392, "pitch": 64, "duration": 4, "velocity": 97}, {"time": 2404, "pitch": 52, "duration": 28, "velocity": 67}, {"time": 2416, "pitch": 57, "duration": 4, "velocity": 90}, {"time": 2416, "pitch": 61, "duration": 5, "velocity": 107}, {"time": 2416, "pitch": 64, "duration": 5, "velocity": 92}, {"time": 2428, "pitch": 57, "duration": 4, "velocity": 93}, {"time": 2428, "pitch": 61, "duration": 4, "velocity": 117}, {"time": 2428, "pitch": 64, "duration": 4, "velocity": 89}, {"time": 2440, "pitch": 50, "duration": 20, "velocity": 95}, {"time": 2452, "pitch": 57, "duration": 4, "velocity": 93}, {"time": 2452, "pitch": 62, "duration": 4, "velocity": 107}, {"time": 2452, "pitch": 66, "duration": 5, "velocity": 102}, {"time": 2464, "pitch": 57, "duration": 4, "velocity": 96}, {"time": 2464, "pitch": 62, "duration": 4, "velocity": 117}, {"time": 2464, "pitch": 66, "duration": 4, "velocity": 117}, {"time": 2476, "pitch": 50, "duration": 18, "velocity": 73}, {"time": 2488, "pitch": 57, "duration": 4, "velocity": 92}, {"time": 2488, "pitch": 62, "duration": 5, "velocity": 97}, {"time": 2488, "pitch": 66, "duration": 5, "velocity": 96}, {"time": 2500, "pitch": 57, "duration": 4, "velocity": 99}, {"time": 2500, "pitch": 62, "duration": 4, "velocity": 102}, {"time": 2500, "pitch": 66, "duration": 4, "velocity": 102}, {"time": 2512, "pitch": 47, "duration": 17, "velocity": 90}, {"time": 2524, "pitch": 59, "duration": 5, "velocity": 95}, {"time": 2524, "pitch": 63, "duration": 5, "velocity": 112}, {"time": 2524, "pitch": 66, "duration": 5, "velocity": 99}, {"time": 2536, "pitch": 59, "duration": 4, "velocity": 100}, {"time": 2536, "pitch": 63, "duration": 4, "velocity": 117}, {"time": 2536, "pitch": 66, "duration": 4, "velocity": 107}, {"time": 2536, "pitch": 69, "duration": 4, "velocity": 93}, {"time": 2548, "pitch": 54, "duration": 18, "velocity": 63}, {"time": 2560, "pitch": 59, "duration": 4, "velocity": 97}, {"time": 2560, "pitch": 63, "duration": 4, "velocity": 122}, {"time": 2560, "pitch": 66, "duration": 4, "velocity": 99}, {"time": 2560, "pitch": 69, "duration": 4, "velocity": 85}, {"time": 2572, "pitch": 59, "duration": 4, "velocity": 97}, {"time": 2572, "pitch": 63, "duration": 4, "velocity": 117}, {"time": 2572, "pitch": 66, "duration": 5, "velocity": 99}, {"time": 2572, "pitch": 69, "duration": 2, "velocity": 65}, {"time": 2584, "pitch": 52, "duration": 14, "velocity": 83}, {"time": 2596, "pitch": 59, "duration": 4, "velocity": 99}, {"time": 2596, "pitch": 64, "duration": 4, "velocity": 100}, {"time": 2596, "pitch": 68, "duration": 4, "velocity": 102}, {"time": 2608, "pitch": 59, "duration": 4, "velocity": 97}, {"time": 2608, "pitch": 64, "duration": 4, "velocity": 100}, {"time": 2608, "pitch": 68, "duration": 4, "velocity": 122}, {"time": 2620, "pitch": 50, "duration": 10, "velocity": 85}, {"time": 2620, "pitch": 62, "duration": 9, "velocity": 107}, {"time": 2632, "pitch": 49, "duration": 9, "velocity": 100}, {"time": 2632, "pitch": 61, "duration": 11, "velocity": 122}, {"time": 2644, "pitch": 47, "duration": 9, "velocity": 92}, {"time": 2644, "pitch": 59, "duration": 9, "velocity": 100}, {"time": 2656, "pitch": 45, "duration": 15, "velocity": 89}, {"time": 2668, "pitch": 57, "duration": 4, "velocity": 93}, {"time": 2668, "pitch": 61, "duration": 4, "velocity": 122}, {"time": 2668, "pitch": 64, "duration": 4, "velocity": 95}, {"time": 2680, "pitch": 57, "duration": 4, "velocity": 90}, {"time": 2680, "pitch": 61, "duration": 4, "velocity": 117}, {"time": 2680, "pitch": 64, "duration": 4, "velocity": 96}, {"time": 2692, "pitch": 45, "duration": 16, "velocity": 73}, {"time": 2704, "pitch": 57, "duration": 4, "velocity": 92}, {"time": 2704, "pitch": 61, "duration": 4, "velocity": 102}, {"time": 2704, "pitch": 64, "duration": 5, "velocity": 88}, {"time": 2716, "pitch": 57, "duration": 4, "velocity": 96}, {"time": 2716, "pitch": 61, "duration": 3, "velocity": 117}, {"time": 2716, "pitch": 64, "duration": 4, "velocity": 93}, {"time": 2728, "pitch": 49, "duration": 15, "velocity": 75}, {"time": 2740, "pitch": 56, "duration": 4, "velocity": 99}, {"time": 2740, "pitch": 61, "duration": 4, "velocity": 88}, {"time": 2740, "pitch": 64, "duration": 4, "velocity": 66}, {"time": 2752, "pitch": 56, "duration": 4, "velocity": 99}, {"time": 2752, "pitch": 61, "duration": 3, "velocity": 88}, {"time": 2752, "pitch": 64, "duration": 4, "velocity": 85}, {"time": 2764, "pitch": 42, "duration": 19, "velocity": 83}, {"time": 2776, "pitch": 57, "duration": 5, "velocity": 90}, {"time": 2776, "pitch": 61, "duration": 4, "velocity": 107}, {"time": 2788, "pitch": 57, "duration": 4, "velocity": 95}, {"time": 2788, "pitch": 61, "duration": 3, "velocity": 127}, {"time": 2788, "pitch": 66, "duration": 2, "velocity": 102}, {"time": 2800, "pitch": 50, "duration": 14, "velocity": 92}, {"time": 2812, "pitch": 57, "duration": 4, "velocity": 90}, {"time": 2812, "pitch": 62, "duration": 5, "velocity": 97}, {"time": 2812, "pitch": 66, "duration": 4, "velocity": 93}, {"time": 2824, "pitch": 57, "duration": 4, "velocity": 95}, {"time": 2824, "pitch": 62, "duration": 4, "velocity": 100}, {"time": 2824, "pitch": 66, "duration": 4, "velocity": 100}, {"time": 2836, "pitch": 50, "duration": 15, "velocity": 76}, {"time": 2848, "pitch": 57, "duration": 4, "velocity": 92}, {"time": 2848, "pitch": 62, "duration": 4, "velocity": 100}, {"time": 2848, "pitch": 66, "duration": 4, "velocity": 97}, {"time": 2860, "pitch": 57, "duration": 4, "velocity": 95}, {"time": 2860, "pitch": 62, "duration": 4, "velocity": 99}, {"time": 2860, "pitch": 66, "duration": 3, "velocity": 97}, {"time": 2872, "pitch": 45, "duration": 27, "velocity": 71}, {"time": 2884, "pitch": 57, "duration": 4, "velocity": 95}, {"time": 2884, "pitch": 61, "duration": 4, "velocity": 107}, {"time": 2884, "pitch": 64, "duration": 4, "velocity": 93}, {"time": 2896, "pitch": 57, "duration": 4, "velocity": 100}, {"time": 2896, "pitch": 61, "duration": 3, "velocity": 122}, {"time": 2896, "pitch": 64, "duration": 4, "velocity": 97}, {"time": 2908, "pitch": 52, "duration": 15, "velocity": 65}, {"time": 2920, "pitch": 57, "duration": 4, "velocity": 96}, {"time": 2920, "pitch": 61, "duration": 4, "velocity": 107}, {"time": 2920, "pitch": 64, "duration": 4, "velocity": 93}, {"time": 2932, "pitch": 57, "duration": 4, "velocity": 95}, {"time": 2932, "pitch": 61, "duration": 2, "velocity": 117}, {"time": 2932, "pitch": 64, "duration": 3, "velocity": 99}, {"time": 2944, "pitch": 52, "duration": 14, "velocity": 69}, {"time": 2956, "pitch": 59, "duration": 4, "velocity": 92}, {"time": 2956, "pitch": 64, "duration": 4, "velocity": 97}, {"time": 2956, "pitch": 68, "duration": 4, "velocity": 95}, {"time": 2968, "pitch": 59, "duration": 3, "velocity": 95}, {"time": 2968, "pitch": 64, "duration": 4, "velocity": 96}, {"time": 2968, "pitch": 68, "duration": 4, "velocity": 99}, {"time": 2980, "pitch": 52, "duration": 14, "velocity": 64}, {"time": 2992, "pitch": 59, "duration": 4, "velocity": 92}, {"time": 2992, "pitch": 64, "duration": 4, "velocity": 99}, {"time": 2992, "pitch": 68, "duration": 4, "velocity": 99}, {"time": 3004, "pitch": 59, "duration": 4, "velocity": 92}, {"time": 3004, "pitch": 64, "duration": 3, "velocity": 97}, {"time": 3004, "pitch": 68, "duration": 3, "velocity": 97}, {"time": 3016, "pitch": 42, "duration": 15, "velocity": 72}, {"time": 3028, "pitch": 54, "duration": 4, "velocity": 90}, {"time": 3028, "pitch": 58, "duration": 4, "velocity": 95}, {"time": 3028, "pitch": 61, "duration": 4, "velocity": 92}, {"time": 3040, "pitch": 54, "duration": 4, "velocity": 99}, {"time": 3040, "pitch": 58, "duration": 3, "velocity": 122}, {"time": 3040, "pitch": 61, "duration": 5, "velocity": 100}, {"time": 3052, "pitch": 47, "duration": 12, "velocity": 92}, {"time": 3064, "pitch": 59, "duration": 3, "velocity": 90}, {"time": 3064, "pitch": 63, "duration": 4, "velocity": 127}, {"time": 3064, "pitch": 66, "duration": 3, "velocity": 102}, {"time": 3076, "pitch": 59, "duration": 3, "velocity": 89}, {"time": 3076, "pitch": 63, "duration": 4, "velocity": 127}, {"time": 3088, "pitch": 52, "duration": 18, "velocity": 82}, {"time": 3088, "pitch": 59, "duration": 17, "velocity": 92}, {"time": 3088, "pitch": 64, "duration": 18, "velocity": 97}, {"time": 3088, "pitch": 68, "duration": 18, "velocity": 107}, {"time": 3124, "pitch": 40, "duration": 33, "velocity": 76}, {"time": 3124, "pitch": 52, "duration": 32, "velocity": 90}, {"time": 3124, "pitch": 56, "duration": 33, "velocity": 93}, {"time": 3124, "pitch": 59, "duration": 31, "velocity": 85}, {"time": 3160, "pitch": 52, "duration": 37, "velocity": 97}, {"time": 3160, "pitch": 57, "duration": 37, "velocity": 95}, {"time": 3160, "pitch": 61, "duration": 37, "velocity": 112}, {"time": 3166, "pitch": 45, "duration": 37, "velocity": 97}, {"time": 3208, "pitch": 54, "duration": 10, "velocity": 127}, {"time": 3208, "pitch": 66, "duration": 10, "velocity": 127}, {"time": 3220, "pitch": 52, "duration": 10, "velocity": 100}, {"time": 3220, "pitch": 64, "duration": 10, "velocity": 117}, {"time": 3232, "pitch": 50, "duration": 41, "velocity": 95}, {"time": 3232, "pitch": 57, "duration": 41, "velocity": 97}, {"time": 3232, "pitch": 62, "duration": 40, "velocity": 107}, {"time": 3232, "pitch": 66, "duration": 41, "velocity": 102}, {"time": 3280, "pitch": 50, "duration": 10, "velocity": 127}, {"time": 3280, "pitch": 57, "duration": 10, "velocity": 100}, {"time": 3280, "pitch": 62, "duration": 7, "velocity": 112}, {"time": 3280, "pitch": 66, "duration": 7, "velocity": 107}, {"time": 3292, "pitch": 49, "duration": 10, "velocity": 107}, {"time": 3292, "pitch": 61, "duration": 9, "velocity": 127}, {"time": 3292, "pitch": 64, "duration": 6, "velocity": 92}, {"time": 3304, "pitch": 47, "duration": 40, "velocity": 99}, {"time": 3304, "pitch": 59, "duration": 41, "velocity": 99}, {"time": 3304, "pitch": 62, "duration": 39, "velocity": 127}, {"time": 3304, "pitch": 66, "duration": 38, "velocity": 122}, {"time": 3352, "pitch": 47, "duration": 9, "velocity": 127}, {"time": 3352, "pitch": 59, "duration": 11, "velocity": 127}, {"time": 3364, "pitch": 45, "duration": 10, "velocity": 100}, {"time": 3364, "pitch": 57, "duration": 9, "velocity": 117}, {"time": 3376, "pitch": 43, "duration": 42, "velocity": 99}, {"time": 3376, "pitch": 55, "duration": 40, "velocity": 107}, {"time": 3376, "pitch": 59, "duration": 40, "velocity": 127}, {"time": 3376, "pitch": 62, "duration": 40, "velocity": 122}, {"time": 3424, "pitch": 43, "duration": 8, "velocity": 127}, {"time": 3424, "pitch": 55, "duration": 10, "velocity": 127}, {"time": 3424, "pitch": 58, "duration": 1, "velocity": 75}, {"time": 3436, "pitch": 42, "duration": 11, "velocity": 97}, {"time": 3436, "pitch": 54, "duration": 9, "velocity": 112}, {"time": 3448, "pitch": 40, "duration": 8, "velocity": 112}, {"time": 3448, "pitch": 52, "duration": 8, "velocity": 89}, {"time": 3448, "pitch": 56, "duration": 7, "velocity": 96}, {"time": 3448, "pitch": 59, "duration": 7, "velocity": 95}, {"time": 3460, "pitch": 38, "duration": 10, "velocity": 86}, {"time": 3460, "pitch": 50, "duration": 10, "velocity": 86}, {"time": 3472, "pitch": 35, "duration": 8, "velocity": 117}, {"time": 3472, "pitch": 47, "duration": 8, "velocity": 117}, {"time": 3484, "pitch": 47, "duration": 8, "velocity": 107}, {"time": 3484, "pitch": 59, "duration": 8, "velocity": 107}, {"time": 3496, "pitch": 45, "duration": 7, "velocity": 102}, {"time": 3496, "pitch": 57, "duration": 7, "velocity": 102}, {"time": 3508, "pitch": 42, "duration": 7, "velocity": 117}, {"time": 3508, "pitch": 54, "duration": 7, "velocity": 117}, {"time": 3520, "pitch": 40, "duration": 9, "velocity": 117}, {"time": 3520, "pitch": 52, "duration": 9, "velocity": 117}, {"time": 3676, "pitch": 59, "duration": 10, "velocity": 117}, {"time": 3688, "pitch": 57, "duration": 12, "velocity": 96}, {"time": 3700, "pitch": 56, "duration": 26, "velocity": 112}, {"time": 3736, "pitch": 45, "duration": 29, "velocity": 37}, {"time": 3736, "pitch": 57, "duration": 29, "velocity": 92}, {"time": 3736, "pitch": 62, "duration": 30, "velocity": 99}, {"time": 3736, "pitch": 64, "duration": 29, "velocity": 92}, {"time": 3772, "pitch": 45, "duration": 72, "velocity": 53}, {"time": 3772, "pitch": 57, "duration": 74, "velocity": 83}, {"time": 3772, "pitch": 61, "duration": 74, "velocity": 95}, {"time": 3772, "pitch": 64, "duration": 74, "velocity": 79}, {"time": 3844, "pitch": 45, "duration": 1, "velocity": 79}, {"time": 3856, "pitch": 57, "duration": 3, "velocity": 88}, {"time": 3856, "pitch": 61, "duration": 3, "velocity": 107}, {"time": 3856, "pitch": 64, "duration": 2, "velocity": 83}, {"time": 3868, "pitch": 57, "duration": 3, "velocity": 86}, {"time": 3868, "pitch": 61, "duration": 3, "velocity": 96}, {"time": 3868, "pitch": 64, "duration": 4, "velocity": 86}, {"time": 3880, "pitch": 45, "duration": 16, "velocity": 68}, {"time": 3892, "pitch": 57, "duration": 3, "velocity": 78}, {"time": 3892, "pitch": 61, "duration": 4, "velocity": 93}, {"time": 3892, "pitch": 64, "duration": 3, "velocity": 77}, {"time": 3904, "pitch": 57, "duration": 3, "velocity": 92}, {"time": 3904, "pitch": 61, "duration": 3, "velocity": 100}, {"time": 3904, "pitch": 64, "duration": 3, "velocity": 85}, {"time": 3916, "pitch": 45, "duration": 20, "velocity": 55}, {"time": 3928, "pitch": 57, "duration": 3, "velocity": 82}, {"time": 3928, "pitch": 61, "duration": 3, "velocity": 97}, {"time": 3928, "pitch": 64, "duration": 3, "velocity": 81}, {"time": 3940, "pitch": 57, "duration": 3, "velocity": 92}, {"time": 3940, "pitch": 61, "duration": 3, "velocity": 102}, {"time": 3940, "pitch": 64, "duration": 3, "velocity": 89}, {"time": 3952, "pitch": 45, "duration": 16, "velocity": 66}, {"time": 3964, "pitch": 57, "duration": 4, "velocity": 78}, {"time": 3964, "pitch": 61, "duration": 3, "velocity": 92}, {"time": 3964, "pitch": 64, "duration": 4, "velocity": 79}, {"time": 3976, "pitch": 57, "duration": 3, "velocity": 88}, {"time": 3976, "pitch": 61, "duration": 3, "velocity": 99}, {"time": 3976, "pitch": 64, "duration": 3, "velocity": 90}, {"time": 3988, "pitch": 50, "duration": 17, "velocity": 66}, {"time": 4000, "pitch": 57, "duration": 3, "velocity": 81}, {"time": 4000, "pitch": 62, "duration": 4, "velocity": 90}, {"time": 4000, "pitch": 66, "duration": 4, "velocity": 83}, {"time": 4012, "pitch": 57, "duration": 3, "velocity": 90}, {"time": 4012, "pitch": 62, "duration": 4, "velocity": 97}, {"time": 4012, "pitch": 66, "duration": 3, "velocity": 95}, {"time": 4024, "pitch": 50, "duration": 16, "velocity": 66}, {"time": 4036, "pitch": 57, "duration": 4, "velocity": 79}, {"time": 4036, "pitch": 62, "duration": 4, "velocity": 92}, {"time": 4036, "pitch": 66, "duration": 4, "velocity": 89}, {"time": 4048, "pitch": 57, "duration": 4, "velocity": 85}, {"time": 4048, "pitch": 62, "duration": 3, "velocity": 96}, {"time": 4048, "pitch": 66, "duration": 3, "velocity": 85}, {"time": 4060, "pitch": 45, "duration": 17, "velocity": 57}, {"time": 4072, "pitch": 57, "duration": 3, "velocity": 75}, {"time": 4072, "pitch": 61, "duration": 4, "velocity": 95}, {"time": 4072, "pitch": 64, "duration": 4, "velocity": 78}, {"time": 4084, "pitch": 57, "duration": 3, "velocity": 93}, {"time": 4084, "pitch": 61, "duration": 4, "velocity": 112}, {"time": 4084, "pitch": 64, "duration": 3, "velocity": 86}, {"time": 4096, "pitch": 45, "duration": 16, "velocity": 60}, {"time": 4108, "pitch": 57, "duration": 3, "velocity": 86}, {"time": 4108, "pitch": 61, "duration": 3, "velocity": 102}, {"time": 4108, "pitch": 64, "duration": 3, "velocity": 88}, {"time": 4120, "pitch": 57, "duration": 4, "velocity": 90}, {"time": 4120, "pitch": 61, "duration": 3, "velocity": 102}, {"time": 4120, "pitch": 64, "duration": 3, "velocity": 85}, {"time": 4132, "pitch": 45, "duration": 16, "velocity": 68}, {"time": 4144, "pitch": 57, "duration": 4, "velocity": 90}, {"time": 4144, "pitch": 61, "duration": 3, "velocity": 102}, {"time": 4144, "pitch": 64, "duration": 4, "velocity": 86}, {"time": 4156, "pitch": 57, "duration": 4, "velocity": 93}, {"time": 4156, "pitch": 61, "duration": 3, "velocity": 117}, {"time": 4156, "pitch": 64, "duration": 3, "velocity": 88}, {"time": 4168, "pitch": 44, "duration": 12, "velocity": 89}, {"time": 4180, "pitch": 56, "duration": 3, "velocity": 99}, {"time": 4180, "pitch": 61, "duration": 3, "velocity": 95}, {"time": 4180, "pitch": 64, "duration": 3, "velocity": 85}, {"time": 4192, "pitch": 56, "duration": 4, "velocity": 99}, {"time": 4192, "pitch": 61, "duration": 4, "velocity": 100}, {"time": 4192, "pitch": 64, "duration": 4, "velocity": 89}, {"time": 4204, "pitch": 42, "duration": 11, "velocity": 76}, {"time": 4216, "pitch": 57, "duration": 4, "velocity": 78}, {"time": 4216, "pitch": 61, "duration": 4, "velocity": 88}, {"time": 4216, "pitch": 66, "duration": 4, "velocity": 72}, {"time": 4228, "pitch": 57, "duration": 4, "velocity": 93}, {"time": 4228, "pitch": 61, "duration": 4, "velocity": 112}, {"time": 4228, "pitch": 66, "duration": 4, "velocity": 92}, {"time": 4240, "pitch": 45, "duration": 12, "velocity": 71}, {"time": 4252, "pitch": 57, "duration": 3, "velocity": 85}, {"time": 4252, "pitch": 61, "duration": 3, "velocity": 99}, {"time": 4252, "pitch": 64, "duration": 3, "velocity": 82}, {"time": 4264, "pitch": 57, "duration": 3, "velocity": 95}, {"time": 4264, "pitch": 61, "duration": 3, "velocity": 107}, {"time": 4264, "pitch": 64, "duration": 4, "velocity": 88}, {"time": 4276, "pitch": 47, "duration": 16, "velocity": 68}, {"time": 4288, "pitch": 59, "duration": 3, "velocity": 89}, {"time": 4288, "pitch": 63, "duration": 3, "velocity": 112}, {"time": 4288, "pitch": 66, "duration": 4, "velocity": 107}, {"time": 4300, "pitch": 59, "duration": 3, "velocity": 93}, {"time": 4300, "pitch": 63, "duration": 3, "velocity": 122}, {"time": 4300, "pitch": 66, "duration": 4, "velocity": 112}, {"time": 4312, "pitch": 51, "duration": 16, "velocity": 99}, {"time": 4324, "pitch": 59, "duration": 3, "velocity": 85}, {"time": 4324, "pitch": 63, "duration": 4, "velocity": 112}, {"time": 4324, "pitch": 66, "duration": 4, "velocity": 99}, {"time": 4336, "pitch": 59, "duration": 3, "velocity": 93}, {"time": 4336, "pitch": 63, "duration": 4, "velocity": 117}, {"time": 4336, "pitch": 66, "duration": 4, "velocity": 100}, {"time": 4348, "pitch": 52, "duration": 13, "velocity": 69}, {"time": 4360, "pitch": 59, "duration": 4, "velocity": 85}, {"time": 4360, "pitch": 64, "duration": 3, "velocity": 89}, {"time": 4360, "pitch": 68, "duration": 4, "velocity": 89}, {"time": 4372, "pitch": 59, "duration": 3, "velocity": 96}, {"time": 4372, "pitch": 64, "duration": 3, "velocity": 96}, {"time": 4372, "pitch": 68, "duration": 3, "velocity": 93}, {"time": 4384, "pitch": 50, "duration": 11, "velocity": 122}, {"time": 4384, "pitch": 62, "duration": 10, "velocity": 117}, {"time": 4396, "pitch": 49, "duration": 9, "velocity": 107}, {"time": 4396, "pitch": 61, "duration": 12, "velocity": 127}, {"time": 4408, "pitch": 47, "duration": 10, "velocity": 85}, {"time": 4408, "pitch": 59, "duration": 10, "velocity": 107}, {"time": 4420, "pitch": 45, "duration": 15, "velocity": 90}, {"time": 4432, "pitch": 57, "duration": 4, "velocity": 90}, {"time": 4432, "pitch": 61, "duration": 4, "velocity": 107}, {"time": 4432, "pitch": 64, "duration": 3, "velocity": 90}, {"time": 4444, "pitch": 57, "duration": 3, "velocity": 95}, {"time": 4444, "pitch": 61, "duration": 3, "velocity": 122}, {"time": 4444, "pitch": 64, "duration": 3, "velocity": 97}, {"time": 4456, "pitch": 45, "duration": 14, "velocity": 66}, {"time": 4468, "pitch": 57, "duration": 3, "velocity": 95}, {"time": 4468, "pitch": 61, "duration": 3, "velocity": 117}, {"time": 4468, "pitch": 64, "duration": 3, "velocity": 95}, {"time": 4480, "pitch": 57, "duration": 4, "velocity": 97}, {"time": 4480, "pitch": 61, "duration": 3, "velocity": 117}, {"time": 4480, "pitch": 64, "duration": 4, "velocity": 95}, {"time": 4492, "pitch": 45, "duration": 14, "velocity": 61}, {"time": 4504, "pitch": 57, "duration": 3, "velocity": 95}, {"time": 4504, "pitch": 61, "duration": 4, "velocity": 107}, {"time": 4504, "pitch": 64, "duration": 4, "velocity": 89}, {"time": 4516, "pitch": 57, "duration": 3, "velocity": 97}, {"time": 4516, "pitch": 61, "duration": 3, "velocity": 117}, {"time": 4516, "pitch": 64, "duration": 3, "velocity": 93}, {"time": 4528, "pitch": 45, "duration": 15, "velocity": 73}, {"time": 4540, "pitch": 57, "duration": 3, "velocity": 93}, {"time": 4540, "pitch": 61, "duration": 3, "velocity": 107}, {"time": 4540, "pitch": 64, "duration": 3, "velocity": 90}, {"time": 4552, "pitch": 57, "duration": 3, "velocity": 90}, {"time": 4552, "pitch": 61, "duration": 3, "velocity": 112}, {"time": 4552, "pitch": 64, "duration": 4, "velocity": 86}, {"time": 4564, "pitch": 50, "duration": 12, "velocity": 78}, {"time": 4576, "pitch": 57, "duration": 3, "velocity": 86}, {"time": 4576, "pitch": 62, "duration": 3, "velocity": 97}, {"time": 4576, "pitch": 66, "duration": 3, "velocity": 96}, {"time": 4588, "pitch": 57, "duration": 3, "velocity": 90}, {"time": 4588, "pitch": 62, "duration": 3, "velocity": 100}, {"time": 4588, "pitch": 66, "duration": 4, "velocity": 100}, {"time": 4600, "pitch": 50, "duration": 13, "velocity": 81}, {"time": 4612, "pitch": 57, "duration": 3, "velocity": 86}, {"time": 4612, "pitch": 62, "duration": 3, "velocity": 112}, {"time": 4612, "pitch": 66, "duration": 3, "velocity": 96}, {"time": 4624, "pitch": 57, "duration": 3, "velocity": 96}, {"time": 4624, "pitch": 62, "duration": 2, "velocity": 107}, {"time": 4624, "pitch": 66, "duration": 4, "velocity": 107}, {"time": 4636, "pitch": 45, "duration": 14, "velocity": 72}, {"time": 4648, "pitch": 57, "duration": 3, "velocity": 96}, {"time": 4648, "pitch": 61, "duration": 3, "velocity": 122}, {"time": 4648, "pitch": 64, "duration": 3, "velocity": 95}, {"time": 4660, "pitch": 57, "duration": 3, "velocity": 96}, {"time": 4660, "pitch": 61, "duration": 3, "velocity": 127}, {"time": 4660, "pitch": 64, "duration": 3, "velocity": 97}, {"time": 4672, "pitch": 52, "duration": 13, "velocity": 73}, {"time": 4684, "pitch": 57, "duration": 3, "velocity": 93}, {"time": 4684, "pitch": 61, "duration": 3, "velocity": 112}, {"time": 4684, "pitch": 64, "duration": 3, "velocity": 90}, {"time": 4696, "pitch": 57, "duration": 3, "velocity": 96}, {"time": 4696, "pitch": 61, "duration": 3, "velocity": 117}, {"time": 4696, "pitch": 64, "duration": 3, "velocity": 95}, {"time": 4708, "pitch": 45, "duration": 13, "velocity": 75}, {"time": 4720, "pitch": 57, "duration": 3, "velocity": 95}, {"time": 4720, "pitch": 61, "duration": 3, "velocity": 112}, {"time": 4720, "pitch": 64, "duration": 3, "velocity": 92}, {"time": 4732, "pitch": 57, "duration": 3, "velocity": 99}, {"time": 4732, "pitch": 61, "duration": 3, "velocity": 122}, {"time": 4732, "pitch": 64, "duration": 3, "velocity": 95}, {"time": 4744, "pitch": 49, "duration": 12, "velocity": 92}, {"time": 4756, "pitch": 61, "duration": 3, "velocity": 97}, {"time": 4756, "pitch": 64, "duration": 2, "velocity": 88}, {"time": 4756, "pitch": 68, "duration": 2, "velocity": 95}, {"time": 4768, "pitch": 61, "duration": 4, "velocity": 122}, {"time": 4768, "pitch": 64, "duration": 2, "velocity": 107}, {"time": 4768, "pitch": 68, "duration": 2, "velocity": 100}, {"time": 4780, "pitch": 50, "duration": 14, "velocity": 63}, {"time": 4792, "pitch": 57, "duration": 4, "velocity": 95}, {"time": 4792, "pitch": 62, "duration": 3, "velocity": 97}, {"time": 4792, "pitch": 66, "duration": 4, "velocity": 96}, {"time": 4804, "pitch": 57, "duration": 3, "velocity": 97}, {"time": 4804, "pitch": 62, "duration": 3, "velocity": 97}, {"time": 4804, "pitch": 66, "duration": 4, "velocity": 97}, {"time": 4816, "pitch": 51, "duration": 13, "velocity": 72}, {"time": 4828, "pitch": 63, "duration": 4, "velocity": 112}, {"time": 4828, "pitch": 66, "duration": 4, "velocity": 107}, {"time": 4828, "pitch": 69, "duration": 4, "velocity": 86}, {"time": 4840, "pitch": 63, "duration": 3, "velocity": 117}, {"time": 4840, "pitch": 66, "duration": 4, "velocity": 107}, {"time": 4840, "pitch": 69, "duration": 3, "velocity": 85}, {"time": 4852, "pitch": 52, "duration": 17, "velocity": 76}, {"time": 4864, "pitch": 59, "duration": 3, "velocity": 95}, {"time": 4864, "pitch": 64, "duration": 4, "velocity": 99}, {"time": 4864, "pitch": 68, "duration": 3, "velocity": 100}, {"time": 4876, "pitch": 59, "duration": 3, "velocity": 96}, {"time": 4876, "pitch": 64, "duration": 3, "velocity": 100}, {"time": 4876, "pitch": 68, "duration": 3, "velocity": 102}, {"time": 4888, "pitch": 52, "duration": 14, "velocity": 76}, {"time": 4900, "pitch": 59, "duration": 3, "velocity": 89}, {"time": 4900, "pitch": 64, "duration": 4, "velocity": 97}, {"time": 4900, "pitch": 68, "duration": 3, "velocity": 100}, {"time": 4912, "pitch": 59, "duration": 3, "velocity": 96}, {"time": 4912, "pitch": 64, "duration": 3, "velocity": 97}, {"time": 4912, "pitch": 68, "duration": 3, "velocity": 100}, {"time": 4924, "pitch": 45, "duration": 9, "velocity": 100}, {"time": 4924, "pitch": 57, "duration": 9, "velocity": 112}, {"time": 4936, "pitch": 52, "duration": 9, "velocity": 102}, {"time": 4936, "pitch": 64, "duration": 9, "velocity": 99}, {"time": 4948, "pitch": 49, "duration": 8, "velocity": 93}, {"time": 4948, "pitch": 61, "duration": 9, "velocity": 112}, {"time": 4960, "pitch": 45, "duration": 12, "velocity": 93}, {"time": 4960, "pitch": 57, "duration": 11, "velocity": 122}, {"time": 4996, "pitch": 45, "duration": 15, "velocity": 74}, {"time": 5008, "pitch": 57, "duration": 4, "velocity": 86}, {"time": 5008, "pitch": 61, "duration": 5, "velocity": 93}, {"time": 5008, "pitch": 64, "duration": 5, "velocity": 85}, {"time": 5020, "pitch": 57, "duration": 3, "velocity": 96}, {"time": 5020, "pitch": 61, "duration": 3, "velocity": 112}, {"time": 5020, "pitch": 64, "duration": 4, "velocity": 93}, {"time": 5032, "pitch": 45, "duration": 16, "velocity": 70}, {"time": 5044, "pitch": 57, "duration": 4, "velocity": 93}, {"time": 5044, "pitch": 61, "duration": 4, "velocity": 117}, {"time": 5044, "pitch": 64, "duration": 4, "velocity": 93}, {"time": 5044, "pitch": 67, "duration": 4, "velocity": 89}, {"time": 5056, "pitch": 57, "duration": 4, "velocity": 100}, {"time": 5056, "pitch": 61, "duration": 5, "velocity": 122}, {"time": 5056, "pitch": 64, "duration": 5, "velocity": 93}, {"time": 5056, "pitch": 67, "duration": 5, "velocity": 92}, {"time": 5068, "pitch": 50, "duration": 16, "velocity": 85}, {"time": 5080, "pitch": 57, "duration": 4, "velocity": 95}, {"time": 5080, "pitch": 62, "duration": 5, "velocity": 100}, {"time": 5080, "pitch": 66, "duration": 6, "velocity": 99}, {"time": 5092, "pitch": 57, "duration": 4, "velocity": 90}, {"time": 5092, "pitch": 62, "duration": 5, "velocity": 97}, {"time": 5092, "pitch": 66, "duration": 5, "velocity": 97}, {"time": 5104, "pitch": 50, "duration": 15, "velocity": 74}, {"time": 5116, "pitch": 57, "duration": 5, "velocity": 88}, {"time": 5116, "pitch": 62, "duration": 5, "velocity": 97}, {"time": 5116, "pitch": 66, "duration": 5, "velocity": 92}, {"time": 5128, "pitch": 57, "duration": 3, "velocity": 100}, {"time": 5128, "pitch": 62, "duration": 4, "velocity": 102}, {"time": 5128, "pitch": 66, "duration": 4, "velocity": 107}, {"time": 5140, "pitch": 49, "duration": 16, "velocity": 86}, {"time": 5152, "pitch": 61, "duration": 4, "velocity": 117}, {"time": 5152, "pitch": 64, "duration": 4, "velocity": 107}, {"time": 5152, "pitch": 68, "duration": 4, "velocity": 117}, {"time": 5164, "pitch": 61, "duration": 5, "velocity": 107}, {"time": 5164, "pitch": 64, "duration": 4, "velocity": 100}, {"time": 5164, "pitch": 68, "duration": 5, "velocity": 112}, {"time": 5176, "pitch": 49, "duration": 17, "velocity": 100}, {"time": 5188, "pitch": 61, "duration": 4, "velocity": 112}, {"time": 5188, "pitch": 64, "duration": 4, "velocity": 102}, {"time": 5188, "pitch": 68, "duration": 4, "velocity": 107}, {"time": 5200, "pitch": 61, "duration": 4, "velocity": 117}, {"time": 5200, "pitch": 64, "duration": 3, "velocity": 112}, {"time": 5200, "pitch": 68, "duration": 4, "velocity": 117}, {"time": 5212, "pitch": 42, "duration": 18, "velocity": 96}, {"time": 5224, "pitch": 57, "duration": 4, "velocity": 96}, {"time": 5224, "pitch": 61, "duration": 4, "velocity": 127}, {"time": 5224, "pitch": 66, "duration": 4, "velocity": 99}, {"time": 5236, "pitch": 57, "duration": 4, "velocity": 100}, {"time": 5236, "pitch": 61, "duration": 4, "velocity": 127}, {"time": 5236, "pitch": 66, "duration": 4, "velocity": 112}, {"time": 5248, "pitch": 54, "duration": 17, "velocity": 81}, {"time": 5260, "pitch": 57, "duration": 5, "velocity": 96}, {"time": 5260, "pitch": 61, "duration": 4, "velocity": 122}, {"time": 5260, "pitch": 66, "duration": 5, "velocity": 99}, {"time": 5272, "pitch": 57, "duration": 4, "velocity": 99}, {"time": 5272, "pitch": 61, "duration": 4, "velocity": 127}, {"time": 5272, "pitch": 66, "duration": 3, "velocity": 100}, {"time": 5284, "pitch": 45, "duration": 27, "velocity": 78}, {"time": 5296, "pitch": 57, "duration": 4, "velocity": 93}, {"time": 5296, "pitch": 61, "duration": 4, "velocity": 117}, {"time": 5296, "pitch": 64, "duration": 4, "velocity": 93}, {"time": 5308, "pitch": 57, "duration": 4, "velocity": 97}, {"time": 5308, "pitch": 61, "duration": 3, "velocity": 117}, {"time": 5308, "pitch": 64, "duration": 4, "velocity": 97}, {"time": 5320, "pitch": 52, "duration": 28, "velocity": 67}, {"time": 5332, "pitch": 57, "duration": 4, "velocity": 90}, {"time": 5332, "pitch": 61, "duration": 5, "velocity": 107}, {"time": 5332, "pitch": 64, "duration": 5, "velocity": 92}, {"time": 5344, "pitch": 57, "duration": 4, "velocity": 93}, {"time": 5344, "pitch": 61, "duration": 4, "velocity": 117}, {"time": 5344, "pitch": 64, "duration": 4, "velocity": 89}, {"time": 5356, "pitch": 50, "duration": 20, "velocity": 95}, {"time": 5368, "pitch": 57, "duration": 4, "velocity": 93}, {"time": 5368, "pitch": 62, "duration": 4, "velocity": 107}, {"time": 5368, "pitch": 66, "duration": 5, "velocity": 102}, {"time": 5380, "pitch": 57, "duration": 4, "velocity": 96}, {"time": 5380, "pitch": 62, "duration": 4, "velocity": 117}, {"time": 5380, "pitch": 66, "duration": 4, "velocity": 117}, {"time": 5392, "pitch": 50, "duration": 18, "velocity": 73}, {"time": 5404, "pitch": 57, "duration": 4, "velocity": 92}, {"time": 5404, "pitch": 62, "duration": 5, "velocity": 97}, {"time": 5404, "pitch": 66, "duration": 5, "velocity": 96}, {"time": 5416, "pitch": 57, "duration": 4, "velocity": 99}, {"time": 5416, "pitch": 62, "duration": 4, "velocity": 102}, {"time": 5416, "pitch": 66, "duration": 4, "velocity": 102}, {"time": 5428, "pitch": 47, "duration": 17, "velocity": 90}, {"time": 5440, "pitch": 59, "duration": 5, "velocity": 95}, {"time": 5440, "pitch": 63, "duration": 5, "velocity": 112}, {"time": 5440, "pitch": 66, "duration": 5, "velocity": 99}, {"time": 5452, "pitch": 59, "duration": 4, "velocity": 100}, {"time": 5452, "pitch": 63, "duration": 4, "velocity": 117}, {"time": 5452, "pitch": 66, "duration": 4, "velocity": 107}, {"time": 5452, "pitch": 69, "duration": 4, "velocity": 93}, {"time": 5464, "pitch": 54, "duration": 18, "velocity": 63}, {"time": 5476, "pitch": 59, "duration": 4, "velocity": 97}, {"time": 5476, "pitch": 63, "duration": 4, "velocity": 122}, {"time": 5476, "pitch": 66, "duration": 4, "velocity": 99}, {"time": 5476, "pitch": 69, "duration": 4, "velocity": 85}, {"time": 5488, "pitch": 59, "duration": 4, "velocity": 97}, {"time": 5488, "pitch": 63, "duration": 4, "velocity": 117}, {"time": 5488, "pitch": 66, "duration": 5, "velocity": 99}, {"time": 5488, "pitch": 69, "duration": 2, "velocity": 65}, {"time": 5500, "pitch": 52, "duration": 14, "velocity": 83}, {"time": 5512, "pitch": 59, "duration": 4, "velocity": 99}, {"time": 5512, "pitch": 64, "duration": 4, "velocity": 100}, {"time": 5512, "pitch": 68, "duration": 4, "velocity": 102}, {"time": 5524, "pitch": 59, "duration": 4, "velocity": 97}, {"time": 5524, "pitch": 64, "duration": 4, "velocity": 100}, {"time": 5524, "pitch": 68, "duration": 4, "velocity": 122}, {"time": 5536, "pitch": 50, "duration": 10, "velocity": 85}, {"time": 5536, "pitch": 62, "duration": 9, "velocity": 107}, {"time": 5548, "pitch": 49, "duration": 9, "velocity": 100}, {"time": 5548, "pitch": 61, "duration": 11, "velocity": 122}, {"time": 5560, "pitch": 47, "duration": 9, "velocity": 92}, {"time": 5560, "pitch": 59, "duration": 9, "velocity": 100}, {"time": 5572, "pitch": 45, "duration": 15, "velocity": 89}, {"time": 5584, "pitch": 57, "duration": 4, "velocity": 93}, {"time": 5584, "pitch": 61, "duration": 4, "velocity": 122}, {"time": 5584, "pitch": 64, "duration": 4, "velocity": 95}, {"time": 5596, "pitch": 57, "duration": 4, "velocity": 90}, {"time": 5596, "pitch": 61, "duration": 4, "velocity": 117}, {"time": 5596, "pitch": 64, "duration": 4, "velocity": 96}, {"time": 5608, "pitch": 45, "duration": 16, "velocity": 73}, {"time": 5620, "pitch": 57, "duration": 4, "velocity": 92}, {"time": 5620, "pitch": 61, "duration": 4, "velocity": 102}, {"time": 5620, "pitch": 64, "duration": 5, "velocity": 88}, {"time": 5632, "pitch": 57, "duration": 4, "velocity": 96}, {"time": 5632, "pitch": 61, "duration": 3, "velocity": 117}, {"time": 5632, "pitch": 64, "duration": 4, "velocity": 93}, {"time": 5644, "pitch": 49, "duration": 15, "velocity": 75}, {"time": 5656, "pitch": 56, "duration": 4, "velocity": 99}, {"time": 5656, "pitch": 61, "duration": 4, "velocity": 88}, {"time": 5656, "pitch": 64, "duration": 4, "velocity": 66}, {"time": 5668, "pitch": 56, "duration": 4, "velocity": 99}, {"time": 5668, "pitch": 61, "duration": 3, "velocity": 88}, {"time": 5668, "pitch": 64, "duration": 4, "velocity": 85}, {"time": 5680, "pitch": 42, "duration": 19, "velocity": 83}, {"time": 5692, "pitch": 57, "duration": 5, "velocity": 90}, {"time": 5692, "pitch": 61, "duration": 4, "velocity": 107}, {"time": 5704, "pitch": 57, "duration": 4, "velocity": 95}, {"time": 5704, "pitch": 61, "duration": 3, "velocity": 127}, {"time": 5704, "pitch": 66, "duration": 2, "velocity": 102}, {"time": 5716, "pitch": 50, "duration": 14, "velocity": 92}, {"time": 5728, "pitch": 57, "duration": 4, "velocity": 90}, {"time": 5728, "pitch": 62, "duration": 5, "velocity": 97}, {"time": 5728, "pitch": 66, "duration": 4, "velocity": 93}, {"time": 5740, "pitch": 57, "duration": 4, "velocity": 95}, {"time": 5740, "pitch": 62, "duration": 4, "velocity": 100}, {"time": 5740, "pitch": 66, "duration": 4, "velocity": 100}, {"time": 5752, "pitch": 50, "duration": 15, "velocity": 76}, {"time": 5764, "pitch": 57, "duration": 4, "velocity": 92}, {"time": 5764, "pitch": 62, "duration": 4, "velocity": 100}, {"time": 5764, "pitch": 66, "duration": 4, "velocity": 97}, {"time": 5776, "pitch": 57, "duration": 4, "velocity": 95}, {"time": 5776, "pitch": 62, "duration": 4, "velocity": 99}, {"time": 5776, "pitch": 66, "duration": 3, "velocity": 97}, {"time": 5788, "pitch": 45, "duration": 27, "velocity": 71}, {"time": 5800, "pitch": 57, "duration": 4, "velocity": 95}, {"time": 5800, "pitch": 61, "duration": 4, "velocity": 107}, {"time": 5800, "pitch": 64, "duration": 4, "velocity": 93}, {"time": 5812, "pitch": 57, "duration": 4, "velocity": 100}, {"time": 5812, "pitch": 61, "duration": 3, "velocity": 122}, {"time": 5812, "pitch": 64, "duration": 4, "velocity": 97}, {"time": 5824, "pitch": 52, "duration": 15, "velocity": 65}, {"time": 5836, "pitch": 57, "duration": 4, "velocity": 96}, {"time": 5836, "pitch": 61, "duration": 4, "velocity": 107}, {"time": 5836, "pitch": 64, "duration": 4, "velocity": 93}, {"time": 5848, "pitch": 57, "duration": 4, "velocity": 95}, {"time": 5848, "pitch": 61, "duration": 2, "velocity": 117}, {"time": 5848, "pitch": 64, "duration": 3, "velocity": 99}, {"time": 5860, "pitch": 52, "duration": 14, "velocity": 69}, {"time": 5872, "pitch": 59, "duration": 4, "velocity": 92}, {"time": 5872, "pitch": 64, "duration": 4, "velocity": 97}, {"time": 5872, "pitch": 68, "duration": 4, "velocity": 95}, {"time": 5884, "pitch": 59, "duration": 3, "velocity": 95}, {"time": 5884, "pitch": 64, "duration": 4, "velocity": 96}, {"time": 5884, "pitch": 68, "duration": 4, "velocity": 99}, {"time": 5896, "pitch": 52, "duration": 14, "velocity": 64}, {"time": 5908, "pitch": 59, "duration": 4, "velocity": 92}, {"time": 5908, "pitch": 64, "duration": 4, "velocity": 99}, {"time": 5908, "pitch": 68, "duration": 4, "velocity": 99}, {"time": 5920, "pitch": 59, "duration": 4, "velocity": 92}, {"time": 5920, "pitch": 64, "duration": 3, "velocity": 97}, {"time": 5920, "pitch": 68, "duration": 3, "velocity": 97}, {"time": 5932, "pitch": 42, "duration": 15, "velocity": 72}, {"time": 5944, "pitch": 54, "duration": 4, "velocity": 90}, {"time": 5944, "pitch": 58, "duration": 4, "velocity": 95}, {"time": 5944, "pitch": 61, "duration": 4, "velocity": 92}, {"time": 5956, "pitch": 54, "duration": 4, "velocity": 99}, {"time": 5956, "pitch": 58, "duration": 3, "velocity": 122}, {"time": 5956, "pitch": 61, "duration": 5, "velocity": 100}, {"time": 5968, "pitch": 47, "duration": 12, "velocity": 92}, {"time": 5980, "pitch": 59, "duration": 3, "velocity": 90}, {"time": 5980, "pitch": 63, "duration": 4, "velocity": 127}, {"time": 5980, "pitch": 66, "duration": 3, "velocity": 102}, {"time": 5992, "pitch": 59, "duration": 3, "velocity": 89}, {"time": 5992, "pitch": 63, "duration": 4, "velocity": 127}, {"time": 6004, "pitch": 40, "duration": 63, "velocity": 86}, {"time": 6004, "pitch": 52, "duration": 60, "velocity": 96}, {"time": 6004, "pitch": 59, "duration": 62, "velocity": 96}, {"time": 6004, "pitch": 64, "duration": 62, "velocity": 95}, {"time": 6004, "pitch": 68, "duration": 63, "velocity": 95}, {"time": 6076, "pitch": 45, "duration": 7, "velocity": 97}, {"time": 6076, "pitch": 57, "duration": 6, "velocity": 102}, {"time": 6088, "pitch": 40, "duration": 6, "velocity": 100}, {"time": 6088, "pitch": 52, "duration": 7, "velocity": 107}, {"time": 6100, "pitch": 37, "duration": 7, "velocity": 127}, {"time": 6100, "pitch": 49, "duration": 7, "velocity": 117}, {"time": 6112, "pitch": 33, "duration": 11, "velocity": 102}, {"time": 6112, "pitch": 45, "duration": 13, "velocity": 112}, {"time": 6148, "pitch": 45, "duration": 12, "velocity": 99}, {"time": 6160, "pitch": 57, "duration": 3, "velocity": 86}, {"time": 6160, "pitch": 61, "duration": 4, "velocity": 95}, {"time": 6160, "pitch": 64, "duration": 3, "velocity": 79}, {"time": 6172, "pitch": 57, "duration": 4, "velocity": 93}, {"time": 6172, "pitch": 61, "duration": 4, "velocity": 99}, {"time": 6172, "pitch": 64, "duration": 4, "velocity": 89}, {"time": 6184, "pitch": 45, "duration": 12, "velocity": 86}, {"time": 6196, "pitch": 57, "duration": 4, "velocity": 83}, {"time": 6196, "pitch": 61, "duration": 4, "velocity": 99}, {"time": 6196, "pitch": 64, "duration": 4, "velocity": 82}, {"time": 6208, "pitch": 57, "duration": 4, "velocity": 90}, {"time": 6208, "pitch": 61, "duration": 3, "velocity": 100}, {"time": 6208, "pitch": 64, "duration": 4, "velocity": 92}, {"time": 6220, "pitch": 45, "duration": 11, "velocity": 88}, {"time": 6232, "pitch": 57, "duration": 4, "velocity": 89}, {"time": 6232, "pitch": 61, "duration": 3, "velocity": 107}, {"time": 6232, "pitch": 64, "duration": 3, "velocity": 88}, {"time": 6244, "pitch": 57, "duration": 3, "velocity": 93}, {"time": 6244, "pitch": 61, "duration": 3, "velocity": 107}, {"time": 6244, "pitch": 64, "duration": 3, "velocity": 89}, {"time": 6256, "pitch": 45, "duration": 11, "velocity": 90}, {"time": 6268, "pitch": 57, "duration": 3, "velocity": 89}, {"time": 6268, "pitch": 61, "duration": 4, "velocity": 107}, {"time": 6268, "pitch": 64, "duration": 3, "velocity": 88}, {"time": 6280, "pitch": 57, "duration": 4, "velocity": 97}, {"time": 6280, "pitch": 61, "duration": 3, "velocity": 107}, {"time": 6280, "pitch": 64, "duration": 4, "velocity": 96}, {"time": 6292, "pitch": 45, "duration": 10, "velocity": 89}, {"time": 6304, "pitch": 57, "duration": 4, "velocity": 85}, {"time": 6304, "pitch": 61, "duration": 4, "velocity": 92}, {"time": 6304, "pitch": 64, "duration": 4, "velocity": 76}, {"time": 6316, "pitch": 57, "duration": 3, "velocity": 93}, {"time": 6316, "pitch": 61, "duration": 3, "velocity": 112}, {"time": 6316, "pitch": 64, "duration": 3, "velocity": 89}, {"time": 6328, "pitch": 50, "duration": 9, "velocity": 100}, {"time": 6340, "pitch": 57, "duration": 4, "velocity": 85}, {"time": 6340, "pitch": 62, "duration": 3, "velocity": 93}, {"time": 6340, "pitch": 66, "duration": 3, "velocity": 92}, {"time": 6352, "pitch": 57, "duration": 4, "velocity": 92}, {"time": 6352, "pitch": 62, "duration": 3, "velocity": 100}, {"time": 6352, "pitch": 66, "duration": 4, "velocity": 99}, {"time": 6364, "pitch": 45, "duration": 9, "velocity": 88}, {"time": 6376, "pitch": 57, "duration": 4, "velocity": 83}, {"time": 6376, "pitch": 61, "duration": 4, "velocity": 93}, {"time": 6376, "pitch": 64, "duration": 4, "velocity": 79}, {"time": 6388, "pitch": 57, "duration": 4, "velocity": 86}, {"time": 6388, "pitch": 61, "duration": 4, "velocity": 99}, {"time": 6388, "pitch": 64, "duration": 4, "velocity": 86}, {"time": 6400, "pitch": 45, "duration": 6, "velocity": 93}, {"time": 6412, "pitch": 57, "duration": 4, "velocity": 82}, {"time": 6412, "pitch": 61, "duration": 4, "velocity": 97}, {"time": 6412, "pitch": 64, "duration": 4, "velocity": 82}, {"time": 6424, "pitch": 57, "duration": 4, "velocity": 93}, {"time": 6424, "pitch": 61, "duration": 4, "velocity": 107}, {"time": 6424, "pitch": 64, "duration": 4, "velocity": 93}, {"time": 6436, "pitch": 45, "duration": 6, "velocity": 76}, {"time": 6448, "pitch": 57, "duration": 4, "velocity": 93}, {"time": 6448, "pitch": 61, "duration": 4, "velocity": 107}, {"time": 6448, "pitch": 64, "duration": 3, "velocity": 90}, {"time": 6460, "pitch": 57, "duration": 4, "velocity": 95}, {"time": 6460, "pitch": 61, "duration": 4, "velocity": 112}, {"time": 6460, "pitch": 64, "duration": 4, "velocity": 95}, {"time": 6472, "pitch": 45, "duration": 9, "velocity": 82}, {"time": 6484, "pitch": 57, "duration": 5, "velocity": 85}, {"time": 6484, "pitch": 61, "duration": 4, "velocity": 93}, {"time": 6484, "pitch": 64, "duration": 4, "velocity": 79}, {"time": 6496, "pitch": 57, "duration": 5, "velocity": 99}, {"time": 6496, "pitch": 61, "duration": 4, "velocity": 117}, {"time": 6496, "pitch": 64, "duration": 5, "velocity": 93}, {"time": 6508, "pitch": 45, "duration": 29, "velocity": 95}, {"time": 6508, "pitch": 57, "duration": 27, "velocity": 107}, {"time": 6508, "pitch": 61, "duration": 31, "velocity": 127}, {"time": 6508, "pitch": 64, "duration": 28, "velocity": 112}, {"time": 6544, "pitch": 44, "duration": 38, "velocity": 100}, {"time": 6544, "pitch": 56, "duration": 36, "velocity": 102}, {"time": 6544, "pitch": 61, "duration": 37, "velocity": 112}, {"time": 6544, "pitch": 64, "duration": 37, "velocity": 95}, {"time": 6568, "pitch": 50, "duration": 13, "velocity": 117}, {"time": 6580, "pitch": 49, "duration": 35, "velocity": 90}, {"time": 6580, "pitch": 56, "duration": 34, "velocity": 99}, {"time": 6580, "pitch": 61, "duration": 1, "velocity": 102}, {"time": 6580, "pitch": 64, "duration": 1, "velocity": 89}, {"time": 6616, "pitch": 45, "duration": 35, "velocity": 86}, {"time": 6616, "pitch": 52, "duration": 34, "velocity": 83}, {"time": 6616, "pitch": 57, "duration": 35, "velocity": 92}, {"time": 6616, "pitch": 61, "duration": 35, "velocity": 82}, {"time": 6664, "pitch": 50, "duration": 10, "velocity": 100}, {"time": 6664, "pitch": 62, "duration": 9, "velocity": 107}, {"time": 6676, "pitch": 49, "duration": 8, "velocity": 92}, {"time": 6676, "pitch": 61, "duration": 10, "velocity": 107}, {"time": 6688, "pitch": 47, "duration": 105, "velocity": 96}, {"time": 6688, "pitch": 59, "duration": 104, "velocity": 99}, {"time": 6796, "pitch": 35, "duration": 7, "velocity": 107}, {"time": 6796, "pitch": 47, "duration": 7, "velocity": 112}, {"time": 6832, "pitch": 57, "duration": 8, "velocity": 107}, {"time": 6832, "pitch": 61, "duration": 6, "velocity": 122}, {"time": 6844, "pitch": 59, "duration": 7, "velocity": 99}, {"time": 6844, "pitch": 62, "duration": 6, "velocity": 92}, {"time": 6856, "pitch": 61, "duration": 9, "velocity": 127}, {"time": 6856, "pitch": 64, "duration": 8, "velocity": 96}, {"time": 6868, "pitch": 49, "duration": 9, "velocity": 127}, {"time": 6868, "pitch": 61, "duration": 8, "velocity": 127}, {"time": 6868, "pitch": 64, "duration": 6, "velocity": 122}, {"time": 6880, "pitch": 47, "duration": 9, "velocity": 96}, {"time": 6880, "pitch": 59, "duration": 8, "velocity": 99}, {"time": 6880, "pitch": 62, "duration": 8, "velocity": 99}, {"time": 6892, "pitch": 45, "duration": 57, "velocity": 95}, {"time": 6892, "pitch": 57, "duration": 57, "velocity": 97}, {"time": 6892, "pitch": 61, "duration": 57, "velocity": 112}, {"time": 6952, "pitch": 45, "duration": 9, "velocity": 117}, {"time": 6952, "pitch": 57, "duration": 7, "velocity": 99}, {"time": 6952, "pitch": 61, "duration": 5, "velocity": 122}, {"time": 6964, "pitch": 44, "duration": 8, "velocity": 102}, {"time": 6964, "pitch": 56, "duration": 6, "velocity": 127}, {"time": 6964, "pitch": 59, "duration": 6, "velocity": 92}, {"time": 6976, "pitch": 42, "duration": 45, "velocity": 117}, {"time": 6976, "pitch": 54, "duration": 44, "velocity": 112}, {"time": 6976, "pitch": 57, "duration": 45, "velocity": 97}, {"time": 7024, "pitch": 42, "duration": 8, "velocity": 117}, {"time": 7024, "pitch": 54, "duration": 9, "velocity": 127}, {"time": 7024, "pitch": 57, "duration": 8, "velocity": 100}, {"time": 7036, "pitch": 40, "duration": 9, "velocity": 100}, {"time": 7036, "pitch": 52, "duration": 8, "velocity": 93}, {"time": 7036, "pitch": 56, "duration": 8, "velocity": 122}, {"time": 7048, "pitch": 38, "duration": 43, "velocity": 95}, {"time": 7048, "pitch": 50, "duration": 41, "velocity": 99}, {"time": 7048, "pitch": 54, "duration": 42, "velocity": 102}, {"time": 7048, "pitch": 57, "duration": 42, "velocity": 97}, {"time": 7096, "pitch": 38, "duration": 9, "velocity": 122}, {"time": 7096, "pitch": 50, "duration": 8, "velocity": 97}, {"time": 7096, "pitch": 54, "duration": 7, "velocity": 127}, {"time": 7108, "pitch": 37, "duration": 9, "velocity": 112}, {"time": 7108, "pitch": 49, "duration": 9, "velocity": 107}, {"time": 7108, "pitch": 52, "duration": 8, "velocity": 90}, {"time": 7120, "pitch": 47, "duration": 7, "velocity": 127}, {"time": 7120, "pitch": 59, "duration": 7, "velocity": 122}, {"time": 7132, "pitch": 45, "duration": 8, "velocity": 117}, {"time": 7132, "pitch": 57, "duration": 7, "velocity": 112}, {"time": 7144, "pitch": 42, "duration": 8, "velocity": 122}, {"time": 7144, "pitch": 54, "duration": 8, "velocity": 127}, {"time": 7156, "pitch": 45, "duration": 8, "velocity": 99}, {"time": 7156, "pitch": 57, "duration": 7, "velocity": 102}, {"time": 7168, "pitch": 42, "duration": 9, "velocity": 117}, {"time": 7168, "pitch": 54, "duration": 8, "velocity": 127}, {"time": 7180, "pitch": 50, "duration": 8, "velocity": 102}, {"time": 7180, "pitch": 62, "duration": 6, "velocity": 117}, {"time": 7192, "pitch": 45, "duration": 10, "velocity": 107}, {"time": 7192, "pitch": 57, "duration": 11, "velocity": 107}, {"time": 7204, "pitch": 45, "duration": 3, "velocity": 127}, {"time": 7204, "pitch": 57, "duration": 3, "velocity": 127}, {"time": 7208, "pitch": 45, "duration": 3, "velocity": 102}, {"time": 7208, "pitch": 57, "duration": 3, "velocity": 102}, {"time": 7212, "pitch": 45, "duration": 3, "velocity": 107}, {"time": 7212, "pitch": 57, "duration": 3, "velocity": 107}, {"time": 7216, "pitch": 45, "duration": 3, "velocity": 127}, {"time": 7216, "pitch": 57, "duration": 3, "velocity": 127}, {"time": 7220, "pitch": 45, "duration": 2, "velocity": 127}, {"time": 7220, "pitch": 57, "duration": 2, "velocity": 127}, {"time": 7224, "pitch": 45, "duration": 2, "velocity": 97}, {"time": 7224, "pitch": 57, "duration": 2, "velocity": 97}, {"time": 7228, "pitch": 45, "duration": 3, "velocity": 127}, {"time": 7228, "pitch": 57, "duration": 3, "velocity": 127}], "annotations": [{"time": 1071, "annotation": {"number": 64, "value": 127}, "group": "control_change"}, {"time": 1080, "annotation": {"number": 64, "value": 0}, "group": "control_change"}, {"time": 1106, "annotation": {"number": 64, "value": 127}, "group": "control_change"}, {"time": 1118, "annotation": {"number": 64, "value": 0}, "group": "control_change"}, {"time": 1143, "annotation": {"number": 64, "value": 127}, "group": "control_change"}, {"time": 1153, "annotation": {"number": 64, "value": 0}, "group": "control_change"}, {"time": 1179, "annotation": {"number": 64, "value": 127}, "group": "control_change"}, {"time": 1195, "annotation": {"number": 64, "value": 0}, "group": "control_change"}, {"time": 1216, "annotation": {"number": 64, "value": 127}, "group": "control_change"}, {"time": 1239, "annotation": {"number": 64, "value": 0}, "group": "control_change"}, {"time": 1250, "annotation": {"number": 64, "value": 127}, "group": "control_change"}, {"time": 1258, "annotation": {"number": 64, "value": 127}, "group": "control_change"}, {"time": 1264, "annotation": {"number": 64, "value": 0}, "group": "control_change"}, {"time": 1294, "annotation": {"number": 64, "value": 127}, "group": "control_change"}, {"time": 1295, "annotation": {"number": 64, "value": 0}, "group": "control_change"}, {"time": 1323, "annotation": {"number": 64, "value": 127}, "group": "control_change"}, {"time": 1326, "annotation": {"number": 64, "value": 0}, "group": "control_change"}, {"time": 1431, "annotation": {"number": 64, "value": 127}, "group": "control_change"}, {"time": 1434, "annotation": {"number": 64, "value": 0}, "group": "control_change"}, {"time": 1538, "annotation": {"number": 64, "value": 127}, "group": "control_change"}, {"time": 1543, "annotation": {"number": 64, "value": 0}, "group": "control_change"}, {"time": 2081, "annotation": {"number": 64, "value": 127}, "group": "control_change"}, {"time": 2081, "annotation": {"number": 64, "value": 0}, "group": "control_change"}, {"time": 3987, "annotation": {"number": 64, "value": 127}, "group": "control_change"}, {"time": 3996, "annotation": {"number": 64, "value": 0}, "group": "control_change"}, {"time": 4022, "annotation": {"number": 64, "value": 127}, "group": "control_change"}, {"time": 4034, "annotation": {"number": 64, "value": 0}, "group": "control_change"}, {"time": 4059, "annotation": {"number": 64, "value": 127}, "group": "control_change"}, {"time": 4069, "annotation": {"number": 64, "value": 0}, "group": "control_change"}, {"time": 4095, "annotation": {"number": 64, "value": 127}, "group": "control_change"}, {"time": 4111, "annotation": {"number": 64, "value": 0}, "group": "control_change"}, {"time": 4132, "annotation": {"number": 64, "value": 127}, "group": "control_change"}, {"time": 4155, "annotation": {"number": 64, "value": 0}, "group": "control_change"}, {"time": 4166, "annotation": {"number": 64, "value": 127}, "group": "control_change"}, {"time": 4174, "annotation": {"number": 64, "value": 127}, "group": "control_change"}, {"time": 4180, "annotation": {"number": 64, "value": 0}, "group": "control_change"}, {"time": 4210, "annotation": {"number": 64, "value": 127}, "group": "control_change"}, {"time": 4211, "annotation": {"number": 64, "value": 0}, "group": "control_change"}, {"time": 4239, "annotation": {"number": 64, "value": 127}, "group": "control_change"}, {"time": 4242, "annotation": {"number": 64, "value": 0}, "group": "control_change"}, {"time": 4347, "annotation": {"number": 64, "value": 127}, "group": "control_change"}, {"time": 4350, "annotation": {"number": 64, "value": 0}, "group": "control_change"}, {"time": 4454, "annotation": {"number": 64, "value": 127}, "group": "control_change"}, {"time": 4459, "annotation": {"number": 64, "value": 0}, "group": "control_change"}, {"time": 4997, "annotation": {"number": 64, "value": 127}, "group": "control_change"}, {"time": 4997, "annotation": {"number": 64, "value": 0}, "group": "control_change"}]}]}