{"metadata": {"schema_version": "0.2", "title": "None", "source_filename": "103.mid", "source_format": "midi"}, "resolution": 12, "tempos": [{"time": 0, "qpm": 64.0}], "key_signatures": [{"time": 0, "root": 0, "mode": "major"}], "time_signatures": [{"time": 0, "numerator": 4, "denominator": 4}, {"time": 0, "numerator": 1, "denominator": 4}], "tracks": [{"program": 0, "is_drum": false, "name": "MELODY", "notes": [{"time": 409, "pitch": 74, "duration": 4, "velocity": 102}, {"time": 415, "pitch": 81, "duration": 2, "velocity": 112}, {"time": 418, "pitch": 81, "duration": 2, "velocity": 95}, {"time": 421, "pitch": 81, "duration": 5, "velocity": 107}, {"time": 427, "pitch": 79, "duration": 5, "velocity": 117}, {"time": 433, "pitch": 81, "duration": 3, "velocity": 127}, {"time": 436, "pitch": 79, "duration": 3, "velocity": 90}, {"time": 439, "pitch": 77, "duration": 11, "velocity": 97}, {"time": 457, "pitch": 79, "duration": 5, "velocity": 100}, {"time": 463, "pitch": 79, "duration": 12, "velocity": 112}, {"time": 475, "pitch": 76, "duration": 4, "velocity": 97}, {"time": 481, "pitch": 74, "duration": 15, "velocity": 97}, {"time": 505, "pitch": 74, "duration": 5, "velocity": 107}, {"time": 511, "pitch": 86, "duration": 2, "velocity": 112}, {"time": 514, "pitch": 86, "duration": 2, "velocity": 100}, {"time": 517, "pitch": 86, "duration": 3, "velocity": 117}, {"time": 523, "pitch": 84, "duration": 2, "velocity": 102}, {"time": 526, "pitch": 84, "duration": 2, "velocity": 100}, {"time": 529, "pitch": 81, "duration": 8, "velocity": 100}, {"time": 535, "pitch": 81, "duration": 2, "velocity": 112}, {"time": 538, "pitch": 79, "duration": 3, "velocity": 99}, {"time": 541, "pitch": 77, "duration": 5, "velocity": 96}, {"time": 547, "pitch": 74, "duration": 5, "velocity": 102}, {"time": 553, "pitch": 79, "duration": 6, "velocity": 99}, {"time": 559, "pitch": 81, "duration": 17, "velocity": 90}, {"time": 601, "pitch": 81, "duration": 4, "velocity": 107}, {"time": 607, "pitch": 86, "duration": 2, "velocity": 122}, {"time": 610, "pitch": 86, "duration": 2, "velocity": 99}, {"time": 613, "pitch": 86, "duration": 5, "velocity": 127}, {"time": 619, "pitch": 84, "duration": 4, "velocity": 117}, {"time": 625, "pitch": 86, "duration": 2, "velocity": 127}, {"time": 628, "pitch": 84, "duration": 3, "velocity": 122}, {"time": 631, "pitch": 81, "duration": 6, "velocity": 112}, {"time": 649, "pitch": 84, "duration": 4, "velocity": 127}, {"time": 655, "pitch": 81, "duration": 5, "velocity": 127}, {"time": 667, "pitch": 81, "duration": 2, "velocity": 127}, {"time": 670, "pitch": 79, "duration": 2, "velocity": 93}, {"time": 673, "pitch": 81, "duration": 10, "velocity": 122}, {"time": 679, "pitch": 79, "duration": 13, "velocity": 117}, {"time": 697, "pitch": 79, "duration": 4, "velocity": 107}, {"time": 703, "pitch": 79, "duration": 2, "velocity": 99}, {"time": 706, "pitch": 79, "duration": 2, "velocity": 86}, {"time": 709, "pitch": 79, "duration": 4, "velocity": 97}, {"time": 715, "pitch": 79, "duration": 3, "velocity": 107}, {"time": 718, "pitch": 81, "duration": 3, "velocity": 100}, {"time": 721, "pitch": 84, "duration": 6, "velocity": 127}, {"time": 727, "pitch": 84, "duration": 5, "velocity": 117}, {"time": 733, "pitch": 77, "duration": 5, "velocity": 102}, {"time": 739, "pitch": 79, "duration": 3, "velocity": 112}, {"time": 742, "pitch": 77, "duration": 3, "velocity": 99}, {"time": 745, "pitch": 74, "duration": 23, "velocity": 117}, {"time": 793, "pitch": 74, "duration": 4, "velocity": 102}, {"time": 799, "pitch": 81, "duration": 2, "velocity": 112}, {"time": 802, "pitch": 81, "duration": 2, "velocity": 95}, {"time": 805, "pitch": 81, "duration": 5, "velocity": 107}, {"time": 811, "pitch": 79, "duration": 5, "velocity": 117}, {"time": 817, "pitch": 81, "duration": 3, "velocity": 127}, {"time": 820, "pitch": 79, "duration": 3, "velocity": 90}, {"time": 823, "pitch": 77, "duration": 11, "velocity": 97}, {"time": 841, "pitch": 79, "duration": 5, "velocity": 100}, {"time": 847, "pitch": 79, "duration": 12, "velocity": 112}, {"time": 859, "pitch": 76, "duration": 4, "velocity": 97}, {"time": 865, "pitch": 74, "duration": 15, "velocity": 97}, {"time": 889, "pitch": 74, "duration": 5, "velocity": 107}, {"time": 895, "pitch": 86, "duration": 2, "velocity": 112}, {"time": 898, "pitch": 86, "duration": 2, "velocity": 100}, {"time": 901, "pitch": 86, "duration": 3, "velocity": 117}, {"time": 907, "pitch": 84, "duration": 2, "velocity": 102}, {"time": 910, "pitch": 84, "duration": 2, "velocity": 100}, {"time": 913, "pitch": 81, "duration": 8, "velocity": 100}, {"time": 919, "pitch": 81, "duration": 2, "velocity": 112}, {"time": 922, "pitch": 79, "duration": 3, "velocity": 99}, {"time": 925, "pitch": 77, "duration": 5, "velocity": 96}, {"time": 931, "pitch": 74, "duration": 5, "velocity": 102}, {"time": 937, "pitch": 79, "duration": 6, "velocity": 99}, {"time": 943, "pitch": 81, "duration": 29, "velocity": 90}, {"time": 985, "pitch": 81, "duration": 4, "velocity": 107}, {"time": 991, "pitch": 86, "duration": 2, "velocity": 122}, {"time": 994, "pitch": 86, "duration": 2, "velocity": 99}, {"time": 997, "pitch": 86, "duration": 5, "velocity": 127}, {"time": 1003, "pitch": 84, "duration": 4, "velocity": 117}, {"time": 1009, "pitch": 86, "duration": 2, "velocity": 127}, {"time": 1012, "pitch": 84, "duration": 3, "velocity": 122}, {"time": 1015, "pitch": 81, "duration": 6, "velocity": 112}, {"time": 1033, "pitch": 84, "duration": 4, "velocity": 127}, {"time": 1039, "pitch": 81, "duration": 5, "velocity": 127}, {"time": 1051, "pitch": 81, "duration": 2, "velocity": 127}, {"time": 1054, "pitch": 79, "duration": 2, "velocity": 93}, {"time": 1057, "pitch": 81, "duration": 10, "velocity": 122}, {"time": 1063, "pitch": 79, "duration": 13, "velocity": 117}, {"time": 1081, "pitch": 79, "duration": 4, "velocity": 107}, {"time": 1087, "pitch": 79, "duration": 2, "velocity": 99}, {"time": 1090, "pitch": 79, "duration": 2, "velocity": 86}, {"time": 1093, "pitch": 79, "duration": 4, "velocity": 97}, {"time": 1099, "pitch": 79, "duration": 3, "velocity": 107}, {"time": 1102, "pitch": 81, "duration": 3, "velocity": 100}, {"time": 1105, "pitch": 84, "duration": 6, "velocity": 127}, {"time": 1111, "pitch": 84, "duration": 5, "velocity": 117}, {"time": 1117, "pitch": 77, "duration": 5, "velocity": 102}, {"time": 1123, "pitch": 79, "duration": 3, "velocity": 112}, {"time": 1126, "pitch": 77, "duration": 3, "velocity": 99}, {"time": 1129, "pitch": 74, "duration": 23, "velocity": 117}, {"time": 1177, "pitch": 81, "duration": 5, "velocity": 100}, {"time": 1183, "pitch": 86, "duration": 2, "velocity": 127}, {"time": 1186, "pitch": 86, "duration": 2, "velocity": 97}, {"time": 1189, "pitch": 86, "duration": 5, "velocity": 127}, {"time": 1195, "pitch": 84, "duration": 5, "velocity": 127}, {"time": 1201, "pitch": 86, "duration": 10, "velocity": 127}, {"time": 1219, "pitch": 81, "duration": 5, "velocity": 97}, {"time": 1225, "pitch": 89, "duration": 4, "velocity": 112}, {"time": 1231, "pitch": 89, "duration": 2, "velocity": 117}, {"time": 1234, "pitch": 89, "duration": 1, "velocity": 89}, {"time": 1237, "pitch": 86, "duration": 5, "velocity": 117}, {"time": 1240, "pitch": 84, "duration": 3, "velocity": 107}, {"time": 1243, "pitch": 81, "duration": 3, "velocity": 96}, {"time": 1246, "pitch": 84, "duration": 3, "velocity": 117}, {"time": 1249, "pitch": 86, "duration": 13, "velocity": 122}, {"time": 1273, "pitch": 81, "duration": 4, "velocity": 112}, {"time": 1279, "pitch": 86, "duration": 2, "velocity": 117}, {"time": 1282, "pitch": 86, "duration": 1, "velocity": 97}, {"time": 1285, "pitch": 86, "duration": 4, "velocity": 127}, {"time": 1291, "pitch": 84, "duration": 2, "velocity": 117}, {"time": 1294, "pitch": 84, "duration": 2, "velocity": 112}, {"time": 1297, "pitch": 86, "duration": 3, "velocity": 127}, {"time": 1303, "pitch": 86, "duration": 15, "velocity": 127}, {"time": 1321, "pitch": 86, "duration": 5, "velocity": 127}, {"time": 1327, "pitch": 86, "duration": 8, "velocity": 117}, {"time": 1339, "pitch": 79, "duration": 5, "velocity": 107}, {"time": 1345, "pitch": 81, "duration": 17, "velocity": 122}, {"time": 1369, "pitch": 81, "duration": 4, "velocity": 102}, {"time": 1375, "pitch": 86, "duration": 2, "velocity": 127}, {"time": 1378, "pitch": 86, "duration": 2, "velocity": 99}, {"time": 1381, "pitch": 86, "duration": 4, "velocity": 127}, {"time": 1387, "pitch": 84, "duration": 4, "velocity": 127}, {"time": 1393, "pitch": 86, "duration": 3, "velocity": 127}, {"time": 1396, "pitch": 84, "duration": 3, "velocity": 102}, {"time": 1399, "pitch": 81, "duration": 11, "velocity": 99}, {"time": 1411, "pitch": 81, "duration": 5, "velocity": 107}, {"time": 1417, "pitch": 84, "duration": 6, "velocity": 117}, {"time": 1423, "pitch": 81, "duration": 10, "velocity": 107}, {"time": 1435, "pitch": 81, "duration": 3, "velocity": 102}, {"time": 1438, "pitch": 79, "duration": 3, "velocity": 97}, {"time": 1441, "pitch": 77, "duration": 16, "velocity": 107}, {"time": 1459, "pitch": 74, "duration": 2, "velocity": 107}, {"time": 1462, "pitch": 74, "duration": 3, "velocity": 92}, {"time": 1465, "pitch": 79, "duration": 6, "velocity": 127}, {"time": 1474, "pitch": 81, "duration": 3, "velocity": 112}, {"time": 1477, "pitch": 79, "duration": 6, "velocity": 127}, {"time": 1483, "pitch": 81, "duration": 5, "velocity": 117}, {"time": 1489, "pitch": 84, "duration": 5, "velocity": 122}, {"time": 1495, "pitch": 81, "duration": 5, "velocity": 112}, {"time": 1507, "pitch": 81, "duration": 5, "velocity": 112}, {"time": 1513, "pitch": 84, "duration": 4, "velocity": 117}, {"time": 1519, "pitch": 84, "duration": 2, "velocity": 112}, {"time": 1522, "pitch": 84, "duration": 6, "velocity": 122}, {"time": 1531, "pitch": 81, "duration": 2, "velocity": 100}, {"time": 1534, "pitch": 84, "duration": 3, "velocity": 112}, {"time": 1537, "pitch": 86, "duration": 23, "velocity": 122}, {"time": 1561, "pitch": 81, "duration": 5, "velocity": 100}, {"time": 1567, "pitch": 86, "duration": 2, "velocity": 127}, {"time": 1570, "pitch": 86, "duration": 2, "velocity": 97}, {"time": 1573, "pitch": 86, "duration": 5, "velocity": 127}, {"time": 1579, "pitch": 84, "duration": 5, "velocity": 127}, {"time": 1585, "pitch": 86, "duration": 10, "velocity": 127}, {"time": 1603, "pitch": 81, "duration": 5, "velocity": 97}, {"time": 1609, "pitch": 89, "duration": 4, "velocity": 112}, {"time": 1615, "pitch": 89, "duration": 2, "velocity": 117}, {"time": 1618, "pitch": 89, "duration": 1, "velocity": 89}, {"time": 1621, "pitch": 86, "duration": 5, "velocity": 117}, {"time": 1624, "pitch": 84, "duration": 3, "velocity": 107}, {"time": 1627, "pitch": 81, "duration": 3, "velocity": 96}, {"time": 1630, "pitch": 84, "duration": 3, "velocity": 117}, {"time": 1633, "pitch": 86, "duration": 21, "velocity": 122}, {"time": 1657, "pitch": 81, "duration": 4, "velocity": 112}, {"time": 1663, "pitch": 86, "duration": 2, "velocity": 117}, {"time": 1666, "pitch": 86, "duration": 1, "velocity": 97}, {"time": 1669, "pitch": 86, "duration": 4, "velocity": 127}, {"time": 1675, "pitch": 84, "duration": 2, "velocity": 117}, {"time": 1678, "pitch": 84, "duration": 2, "velocity": 112}, {"time": 1681, "pitch": 86, "duration": 3, "velocity": 127}, {"time": 1687, "pitch": 86, "duration": 15, "velocity": 127}, {"time": 1705, "pitch": 86, "duration": 5, "velocity": 127}, {"time": 1711, "pitch": 86, "duration": 4, "velocity": 117}, {"time": 1717, "pitch": 86, "duration": 5, "velocity": 127}, {"time": 1723, "pitch": 79, "duration": 5, "velocity": 107}, {"time": 1729, "pitch": 81, "duration": 17, "velocity": 122}, {"time": 1753, "pitch": 81, "duration": 4, "velocity": 102}, {"time": 1759, "pitch": 86, "duration": 2, "velocity": 127}, {"time": 1762, "pitch": 86, "duration": 2, "velocity": 99}, {"time": 1765, "pitch": 86, "duration": 4, "velocity": 127}, {"time": 1771, "pitch": 84, "duration": 4, "velocity": 127}, {"time": 1777, "pitch": 86, "duration": 3, "velocity": 127}, {"time": 1780, "pitch": 84, "duration": 3, "velocity": 102}, {"time": 1783, "pitch": 81, "duration": 11, "velocity": 99}, {"time": 1795, "pitch": 81, "duration": 5, "velocity": 107}, {"time": 1801, "pitch": 84, "duration": 6, "velocity": 117}, {"time": 1807, "pitch": 81, "duration": 10, "velocity": 107}, {"time": 1819, "pitch": 81, "duration": 3, "velocity": 102}, {"time": 1822, "pitch": 79, "duration": 3, "velocity": 97}, {"time": 1825, "pitch": 77, "duration": 16, "velocity": 107}, {"time": 1843, "pitch": 74, "duration": 2, "velocity": 107}, {"time": 1846, "pitch": 74, "duration": 3, "velocity": 92}, {"time": 1849, "pitch": 79, "duration": 6, "velocity": 127}, {"time": 1858, "pitch": 81, "duration": 3, "velocity": 112}, {"time": 1861, "pitch": 79, "duration": 6, "velocity": 127}, {"time": 1867, "pitch": 81, "duration": 5, "velocity": 117}, {"time": 1873, "pitch": 84, "duration": 5, "velocity": 122}, {"time": 1879, "pitch": 81, "duration": 5, "velocity": 112}, {"time": 1891, "pitch": 81, "duration": 5, "velocity": 112}, {"time": 1897, "pitch": 84, "duration": 10, "velocity": 122}, {"time": 1909, "pitch": 81, "duration": 6, "velocity": 122}, {"time": 1915, "pitch": 84, "duration": 5, "velocity": 127}, {"time": 1921, "pitch": 86, "duration": 21, "velocity": 127}, {"time": 1945, "pitch": 79, "duration": 5, "velocity": 112}, {"time": 1951, "pitch": 79, "duration": 2, "velocity": 95}, {"time": 1954, "pitch": 79, "duration": 2, "velocity": 95}, {"time": 1957, "pitch": 79, "duration": 6, "velocity": 102}, {"time": 1963, "pitch": 81, "duration": 5, "velocity": 122}, {"time": 1969, "pitch": 84, "duration": 5, "velocity": 127}, {"time": 1975, "pitch": 84, "duration": 12, "velocity": 127}, {"time": 1987, "pitch": 77, "duration": 4, "velocity": 122}, {"time": 1990, "pitch": 79, "duration": 3, "velocity": 88}, {"time": 1993, "pitch": 74, "duration": 30, "velocity": 102}, {"time": 2425, "pitch": 74, "duration": 4, "velocity": 102}, {"time": 2431, "pitch": 81, "duration": 2, "velocity": 112}, {"time": 2434, "pitch": 81, "duration": 2, "velocity": 95}, {"time": 2437, "pitch": 81, "duration": 5, "velocity": 107}, {"time": 2443, "pitch": 79, "duration": 5, "velocity": 117}, {"time": 2449, "pitch": 81, "duration": 3, "velocity": 127}, {"time": 2452, "pitch": 79, "duration": 3, "velocity": 90}, {"time": 2455, "pitch": 77, "duration": 11, "velocity": 97}, {"time": 2473, "pitch": 79, "duration": 5, "velocity": 100}, {"time": 2479, "pitch": 79, "duration": 12, "velocity": 112}, {"time": 2491, "pitch": 76, "duration": 4, "velocity": 97}, {"time": 2497, "pitch": 74, "duration": 15, "velocity": 97}, {"time": 2521, "pitch": 74, "duration": 5, "velocity": 107}, {"time": 2527, "pitch": 86, "duration": 2, "velocity": 112}, {"time": 2530, "pitch": 86, "duration": 2, "velocity": 100}, {"time": 2533, "pitch": 86, "duration": 3, "velocity": 117}, {"time": 2539, "pitch": 84, "duration": 2, "velocity": 102}, {"time": 2542, "pitch": 84, "duration": 2, "velocity": 100}, {"time": 2545, "pitch": 81, "duration": 8, "velocity": 100}, {"time": 2551, "pitch": 81, "duration": 2, "velocity": 112}, {"time": 2554, "pitch": 79, "duration": 3, "velocity": 99}, {"time": 2557, "pitch": 77, "duration": 5, "velocity": 96}, {"time": 2563, "pitch": 74, "duration": 5, "velocity": 102}, {"time": 2569, "pitch": 79, "duration": 6, "velocity": 99}, {"time": 2575, "pitch": 81, "duration": 29, "velocity": 90}, {"time": 2617, "pitch": 81, "duration": 4, "velocity": 107}, {"time": 2623, "pitch": 86, "duration": 2, "velocity": 122}, {"time": 2626, "pitch": 86, "duration": 2, "velocity": 99}, {"time": 2629, "pitch": 86, "duration": 5, "velocity": 127}, {"time": 2635, "pitch": 84, "duration": 4, "velocity": 117}, {"time": 2641, "pitch": 86, "duration": 2, "velocity": 127}, {"time": 2644, "pitch": 84, "duration": 3, "velocity": 122}, {"time": 2647, "pitch": 81, "duration": 6, "velocity": 112}, {"time": 2665, "pitch": 84, "duration": 4, "velocity": 127}, {"time": 2671, "pitch": 81, "duration": 5, "velocity": 127}, {"time": 2683, "pitch": 81, "duration": 2, "velocity": 127}, {"time": 2686, "pitch": 79, "duration": 2, "velocity": 93}, {"time": 2689, "pitch": 81, "duration": 10, "velocity": 122}, {"time": 2695, "pitch": 79, "duration": 13, "velocity": 117}, {"time": 2713, "pitch": 79, "duration": 4, "velocity": 107}, {"time": 2719, "pitch": 79, "duration": 2, "velocity": 99}, {"time": 2722, "pitch": 79, "duration": 2, "velocity": 86}, {"time": 2725, "pitch": 79, "duration": 4, "velocity": 97}, {"time": 2731, "pitch": 79, "duration": 3, "velocity": 107}, {"time": 2734, "pitch": 81, "duration": 3, "velocity": 100}, {"time": 2737, "pitch": 84, "duration": 6, "velocity": 127}, {"time": 2743, "pitch": 84, "duration": 5, "velocity": 117}, {"time": 2749, "pitch": 77, "duration": 5, "velocity": 102}, {"time": 2755, "pitch": 79, "duration": 3, "velocity": 112}, {"time": 2758, "pitch": 77, "duration": 3, "velocity": 99}, {"time": 2761, "pitch": 74, "duration": 23, "velocity": 117}, {"time": 2809, "pitch": 81, "duration": 5, "velocity": 100}, {"time": 2815, "pitch": 86, "duration": 2, "velocity": 127}, {"time": 2818, "pitch": 86, "duration": 2, "velocity": 97}, {"time": 2821, "pitch": 86, "duration": 5, "velocity": 127}, {"time": 2827, "pitch": 84, "duration": 5, "velocity": 127}, {"time": 2833, "pitch": 86, "duration": 10, "velocity": 127}, {"time": 2851, "pitch": 81, "duration": 5, "velocity": 97}, {"time": 2857, "pitch": 89, "duration": 4, "velocity": 112}, {"time": 2863, "pitch": 89, "duration": 2, "velocity": 117}, {"time": 2866, "pitch": 89, "duration": 1, "velocity": 89}, {"time": 2869, "pitch": 86, "duration": 5, "velocity": 117}, {"time": 2872, "pitch": 84, "duration": 3, "velocity": 107}, {"time": 2875, "pitch": 81, "duration": 3, "velocity": 96}, {"time": 2878, "pitch": 84, "duration": 3, "velocity": 117}, {"time": 2881, "pitch": 86, "duration": 13, "velocity": 122}, {"time": 2905, "pitch": 81, "duration": 4, "velocity": 112}, {"time": 2911, "pitch": 86, "duration": 2, "velocity": 117}, {"time": 2914, "pitch": 86, "duration": 1, "velocity": 97}, {"time": 2917, "pitch": 86, "duration": 4, "velocity": 127}, {"time": 2923, "pitch": 84, "duration": 2, "velocity": 117}, {"time": 2926, "pitch": 84, "duration": 2, "velocity": 112}, {"time": 2929, "pitch": 86, "duration": 3, "velocity": 127}, {"time": 2935, "pitch": 86, "duration": 15, "velocity": 127}, {"time": 2953, "pitch": 86, "duration": 5, "velocity": 127}, {"time": 2959, "pitch": 86, "duration": 8, "velocity": 117}, {"time": 2971, "pitch": 79, "duration": 5, "velocity": 107}, {"time": 2977, "pitch": 81, "duration": 17, "velocity": 122}, {"time": 3001, "pitch": 81, "duration": 4, "velocity": 102}, {"time": 3007, "pitch": 86, "duration": 2, "velocity": 127}, {"time": 3010, "pitch": 86, "duration": 2, "velocity": 99}, {"time": 3013, "pitch": 86, "duration": 4, "velocity": 127}, {"time": 3019, "pitch": 84, "duration": 4, "velocity": 127}, {"time": 3025, "pitch": 86, "duration": 3, "velocity": 127}, {"time": 3028, "pitch": 84, "duration": 3, "velocity": 102}, {"time": 3031, "pitch": 81, "duration": 11, "velocity": 99}, {"time": 3043, "pitch": 81, "duration": 5, "velocity": 107}, {"time": 3049, "pitch": 84, "duration": 6, "velocity": 117}, {"time": 3055, "pitch": 81, "duration": 10, "velocity": 107}, {"time": 3067, "pitch": 81, "duration": 3, "velocity": 102}, {"time": 3070, "pitch": 79, "duration": 3, "velocity": 97}, {"time": 3073, "pitch": 77, "duration": 16, "velocity": 107}, {"time": 3091, "pitch": 74, "duration": 2, "velocity": 107}, {"time": 3094, "pitch": 74, "duration": 3, "velocity": 92}, {"time": 3097, "pitch": 79, "duration": 6, "velocity": 127}, {"time": 3106, "pitch": 81, "duration": 3, "velocity": 112}, {"time": 3109, "pitch": 79, "duration": 6, "velocity": 127}, {"time": 3115, "pitch": 81, "duration": 5, "velocity": 117}, {"time": 3121, "pitch": 84, "duration": 5, "velocity": 122}, {"time": 3127, "pitch": 81, "duration": 5, "velocity": 112}, {"time": 3139, "pitch": 81, "duration": 5, "velocity": 112}, {"time": 3145, "pitch": 84, "duration": 4, "velocity": 117}, {"time": 3151, "pitch": 84, "duration": 2, "velocity": 112}, {"time": 3154, "pitch": 84, "duration": 6, "velocity": 122}, {"time": 3163, "pitch": 81, "duration": 2, "velocity": 100}, {"time": 3166, "pitch": 84, "duration": 3, "velocity": 112}, {"time": 3169, "pitch": 86, "duration": 23, "velocity": 122}, {"time": 3193, "pitch": 81, "duration": 5, "velocity": 100}, {"time": 3199, "pitch": 86, "duration": 2, "velocity": 127}, {"time": 3202, "pitch": 86, "duration": 2, "velocity": 97}, {"time": 3205, "pitch": 86, "duration": 5, "velocity": 127}, {"time": 3211, "pitch": 84, "duration": 5, "velocity": 127}, {"time": 3217, "pitch": 86, "duration": 10, "velocity": 127}, {"time": 3235, "pitch": 81, "duration": 5, "velocity": 97}, {"time": 3241, "pitch": 89, "duration": 4, "velocity": 112}, {"time": 3247, "pitch": 89, "duration": 2, "velocity": 117}, {"time": 3250, "pitch": 89, "duration": 1, "velocity": 89}, {"time": 3253, "pitch": 86, "duration": 5, "velocity": 117}, {"time": 3256, "pitch": 84, "duration": 3, "velocity": 107}, {"time": 3259, "pitch": 81, "duration": 3, "velocity": 96}, {"time": 3262, "pitch": 84, "duration": 3, "velocity": 117}, {"time": 3265, "pitch": 86, "duration": 21, "velocity": 122}, {"time": 3289, "pitch": 81, "duration": 4, "velocity": 112}, {"time": 3295, "pitch": 86, "duration": 2, "velocity": 117}, {"time": 3298, "pitch": 86, "duration": 1, "velocity": 97}, {"time": 3301, "pitch": 86, "duration": 4, "velocity": 127}, {"time": 3307, "pitch": 84, "duration": 2, "velocity": 117}, {"time": 3310, "pitch": 84, "duration": 2, "velocity": 112}, {"time": 3313, "pitch": 86, "duration": 3, "velocity": 127}, {"time": 3319, "pitch": 86, "duration": 15, "velocity": 127}, {"time": 3337, "pitch": 86, "duration": 5, "velocity": 127}, {"time": 3343, "pitch": 86, "duration": 4, "velocity": 117}, {"time": 3349, "pitch": 86, "duration": 5, "velocity": 127}, {"time": 3355, "pitch": 79, "duration": 5, "velocity": 107}, {"time": 3361, "pitch": 81, "duration": 17, "velocity": 122}, {"time": 3385, "pitch": 81, "duration": 4, "velocity": 102}, {"time": 3391, "pitch": 86, "duration": 2, "velocity": 127}, {"time": 3394, "pitch": 86, "duration": 2, "velocity": 99}, {"time": 3397, "pitch": 86, "duration": 4, "velocity": 127}, {"time": 3403, "pitch": 84, "duration": 4, "velocity": 127}, {"time": 3409, "pitch": 86, "duration": 3, "velocity": 127}, {"time": 3412, "pitch": 84, "duration": 3, "velocity": 102}, {"time": 3415, "pitch": 81, "duration": 11, "velocity": 99}, {"time": 3427, "pitch": 81, "duration": 5, "velocity": 107}, {"time": 3433, "pitch": 84, "duration": 6, "velocity": 117}, {"time": 3439, "pitch": 81, "duration": 10, "velocity": 107}, {"time": 3451, "pitch": 81, "duration": 3, "velocity": 102}, {"time": 3454, "pitch": 79, "duration": 3, "velocity": 97}, {"time": 3457, "pitch": 77, "duration": 16, "velocity": 107}, {"time": 3475, "pitch": 74, "duration": 2, "velocity": 107}, {"time": 3478, "pitch": 74, "duration": 3, "velocity": 92}, {"time": 3481, "pitch": 79, "duration": 6, "velocity": 127}, {"time": 3490, "pitch": 81, "duration": 3, "velocity": 112}, {"time": 3493, "pitch": 79, "duration": 6, "velocity": 127}, {"time": 3499, "pitch": 81, "duration": 5, "velocity": 117}, {"time": 3505, "pitch": 84, "duration": 5, "velocity": 122}, {"time": 3511, "pitch": 81, "duration": 5, "velocity": 112}, {"time": 3523, "pitch": 81, "duration": 5, "velocity": 112}, {"time": 3529, "pitch": 84, "duration": 10, "velocity": 122}, {"time": 3541, "pitch": 81, "duration": 6, "velocity": 122}, {"time": 3547, "pitch": 84, "duration": 5, "velocity": 127}, {"time": 3553, "pitch": 86, "duration": 21, "velocity": 127}, {"time": 3577, "pitch": 79, "duration": 5, "velocity": 112}, {"time": 3583, "pitch": 79, "duration": 2, "velocity": 95}, {"time": 3586, "pitch": 79, "duration": 2, "velocity": 95}, {"time": 3589, "pitch": 79, "duration": 6, "velocity": 102}, {"time": 3595, "pitch": 81, "duration": 5, "velocity": 122}, {"time": 3601, "pitch": 84, "duration": 5, "velocity": 127}, {"time": 3607, "pitch": 84, "duration": 12, "velocity": 127}, {"time": 3619, "pitch": 77, "duration": 4, "velocity": 122}, {"time": 3622, "pitch": 79, "duration": 3, "velocity": 88}, {"time": 3625, "pitch": 74, "duration": 30, "velocity": 102}, {"time": 3673, "pitch": 79, "duration": 4, "velocity": 107}, {"time": 3679, "pitch": 79, "duration": 2, "velocity": 97}, {"time": 3682, "pitch": 79, "duration": 1, "velocity": 85}, {"time": 3685, "pitch": 79, "duration": 4, "velocity": 96}, {"time": 3691, "pitch": 81, "duration": 5, "velocity": 117}, {"time": 3697, "pitch": 84, "duration": 5, "velocity": 127}, {"time": 3703, "pitch": 84, "duration": 11, "velocity": 127}, {"time": 3716, "pitch": 77, "duration": 9, "velocity": 96}, {"time": 3725, "pitch": 79, "duration": 9, "velocity": 96}, {"time": 3733, "pitch": 77, "duration": 11, "velocity": 96}, {"time": 3744, "pitch": 74, "duration": 47, "velocity": 95}], "annotations": [{"time": 121, "annotation": {"number": 64, "value": 64}, "group": "control_change"}, {"time": 169, "annotation": {"number": 64, "value": 63}, "group": "control_change"}, {"time": 265, "annotation": {"number": 64, "value": 64}, "group": "control_change"}, {"time": 349, "annotation": {"number": 64, "value": 65}, "group": "control_change"}, {"time": 373, "annotation": {"number": 64, "value": 66}, "group": "control_change"}, {"time": 469, "annotation": {"number": 64, "value": 67}, "group": "control_change"}, {"time": 613, "annotation": {"number": 64, "value": 66}, "group": "control_change"}, {"time": 769, "annotation": {"number": 64, "value": 65}, "group": "control_change"}, {"time": 841, "annotation": {"number": 64, "value": 64}, "group": "control_change"}, {"time": 925, "annotation": {"number": 64, "value": 63}, "group": "control_change"}, {"time": 1009, "annotation": {"number": 64, "value": 62}, "group": "control_change"}, {"time": 1069, "annotation": {"number": 64, "value": 61}, "group": "control_change"}, {"time": 1297, "annotation": {"number": 64, "value": 60}, "group": "control_change"}, {"time": 1525, "annotation": {"number": 64, "value": 61}, "group": "control_change"}, {"time": 1765, "annotation": {"number": 64, "value": 62}, "group": "control_change"}, {"time": 2329, "annotation": {"number": 64, "value": 63}, "group": "control_change"}, {"time": 2401, "annotation": {"number": 64, "value": 64}, "group": "control_change"}, {"time": 2557, "annotation": {"number": 64, "value": 65}, "group": "control_change"}, {"time": 2641, "annotation": {"number": 64, "value": 66}, "group": "control_change"}, {"time": 2749, "annotation": {"number": 64, "value": 67}, "group": "control_change"}, {"time": 2833, "annotation": {"number": 64, "value": 68}, "group": "control_change"}, {"time": 3037, "annotation": {"number": 64, "value": 67}, "group": "control_change"}, {"time": 3133, "annotation": {"number": 64, "value": 66}, "group": "control_change"}, {"time": 3277, "annotation": {"number": 64, "value": 65}, "group": "control_change"}, {"time": 3601, "annotation": {"number": 64, "value": 64}, "group": "control_change"}]}, {"program": 0, "is_drum": false, "name": "BRIDGE", "notes": [{"time": 25, "pitch": 81, "duration": 6, "velocity": 122}, {"time": 31, "pitch": 84, "duration": 7, "velocity": 96}, {"time": 37, "pitch": 81, "duration": 7, "velocity": 102}, {"time": 43, "pitch": 79, "duration": 5, "velocity": 100}, {"time": 49, "pitch": 79, "duration": 6, "velocity": 122}, {"time": 55, "pitch": 77, "duration": 16, "velocity": 112}, {"time": 67, "pitch": 74, "duration": 6, "velocity": 97}, {"time": 73, "pitch": 79, "duration": 8, "velocity": 112}, {"time": 79, "pitch": 79, "duration": 2, "velocity": 100}, {"time": 85, "pitch": 77, "duration": 6, "velocity": 100}, {"time": 91, "pitch": 76, "duration": 6, "velocity": 96}, {"time": 97, "pitch": 74, "duration": 21, "velocity": 93}, {"time": 121, "pitch": 86, "duration": 4, "velocity": 117}, {"time": 127, "pitch": 86, "duration": 3, "velocity": 107}, {"time": 130, "pitch": 89, "duration": 3, "velocity": 93}, {"time": 133, "pitch": 86, "duration": 5, "velocity": 112}, {"time": 139, "pitch": 84, "duration": 5, "velocity": 117}, {"time": 145, "pitch": 86, "duration": 7, "velocity": 127}, {"time": 151, "pitch": 86, "duration": 1, "velocity": 117}, {"time": 157, "pitch": 77, "duration": 5, "velocity": 102}, {"time": 163, "pitch": 79, "duration": 6, "velocity": 93}, {"time": 169, "pitch": 81, "duration": 40, "velocity": 117}, {"time": 217, "pitch": 81, "duration": 16, "velocity": 112}, {"time": 235, "pitch": 81, "duration": 3, "velocity": 117}, {"time": 238, "pitch": 84, "duration": 4, "velocity": 122}, {"time": 241, "pitch": 86, "duration": 6, "velocity": 127}, {"time": 259, "pitch": 84, "duration": 3, "velocity": 97}, {"time": 262, "pitch": 86, "duration": 3, "velocity": 117}, {"time": 265, "pitch": 89, "duration": 7, "velocity": 127}, {"time": 277, "pitch": 86, "duration": 6, "velocity": 122}, {"time": 283, "pitch": 84, "duration": 6, "velocity": 117}, {"time": 289, "pitch": 81, "duration": 12, "velocity": 107}, {"time": 307, "pitch": 81, "duration": 5, "velocity": 122}, {"time": 313, "pitch": 79, "duration": 11, "velocity": 122}, {"time": 337, "pitch": 79, "duration": 7, "velocity": 122}, {"time": 343, "pitch": 77, "duration": 6, "velocity": 102}, {"time": 349, "pitch": 76, "duration": 6, "velocity": 112}, {"time": 355, "pitch": 77, "duration": 6, "velocity": 96}, {"time": 361, "pitch": 74, "duration": 25, "velocity": 95}, {"time": 577, "pitch": 81, "duration": 6, "velocity": 107}, {"time": 583, "pitch": 86, "duration": 6, "velocity": 100}, {"time": 589, "pitch": 84, "duration": 6, "velocity": 102}, {"time": 595, "pitch": 79, "duration": 7, "velocity": 97}, {"time": 601, "pitch": 84, "duration": 6, "velocity": 100}, {"time": 607, "pitch": 81, "duration": 21, "velocity": 97}, {"time": 769, "pitch": 81, "duration": 6, "velocity": 127}, {"time": 775, "pitch": 79, "duration": 12, "velocity": 96}, {"time": 787, "pitch": 77, "duration": 7, "velocity": 127}, {"time": 793, "pitch": 74, "duration": 30, "velocity": 122}, {"time": 2041, "pitch": 81, "duration": 6, "velocity": 112}, {"time": 2047, "pitch": 89, "duration": 5, "velocity": 127}, {"time": 2053, "pitch": 89, "duration": 6, "velocity": 122}, {"time": 2059, "pitch": 88, "duration": 5, "velocity": 127}, {"time": 2065, "pitch": 86, "duration": 13, "velocity": 127}, {"time": 2089, "pitch": 81, "duration": 6, "velocity": 122}, {"time": 2095, "pitch": 89, "duration": 5, "velocity": 97}, {"time": 2101, "pitch": 89, "duration": 6, "velocity": 107}, {"time": 2107, "pitch": 88, "duration": 6, "velocity": 117}, {"time": 2113, "pitch": 81, "duration": 20, "velocity": 117}, {"time": 2137, "pitch": 81, "duration": 6, "velocity": 107}, {"time": 2143, "pitch": 89, "duration": 5, "velocity": 112}, {"time": 2149, "pitch": 89, "duration": 6, "velocity": 102}, {"time": 2155, "pitch": 88, "duration": 7, "velocity": 107}, {"time": 2161, "pitch": 86, "duration": 6, "velocity": 112}, {"time": 2170, "pitch": 88, "duration": 3, "velocity": 107}, {"time": 2173, "pitch": 86, "duration": 5, "velocity": 102}, {"time": 2179, "pitch": 84, "duration": 5, "velocity": 117}, {"time": 2185, "pitch": 86, "duration": 5, "velocity": 117}, {"time": 2191, "pitch": 86, "duration": 5, "velocity": 107}, {"time": 2197, "pitch": 77, "duration": 6, "velocity": 99}, {"time": 2203, "pitch": 79, "duration": 5, "velocity": 112}, {"time": 2209, "pitch": 81, "duration": 20, "velocity": 127}, {"time": 2233, "pitch": 81, "duration": 6, "velocity": 117}, {"time": 2239, "pitch": 89, "duration": 5, "velocity": 117}, {"time": 2245, "pitch": 89, "duration": 5, "velocity": 127}, {"time": 2251, "pitch": 88, "duration": 5, "velocity": 122}, {"time": 2257, "pitch": 86, "duration": 7, "velocity": 127}, {"time": 2275, "pitch": 86, "duration": 3, "velocity": 122}, {"time": 2278, "pitch": 88, "duration": 4, "velocity": 97}, {"time": 2281, "pitch": 89, "duration": 4, "velocity": 100}, {"time": 2284, "pitch": 91, "duration": 10, "velocity": 127}, {"time": 2299, "pitch": 89, "duration": 4, "velocity": 122}, {"time": 2302, "pitch": 91, "duration": 3, "velocity": 93}, {"time": 2305, "pitch": 93, "duration": 27, "velocity": 127}, {"time": 2335, "pitch": 91, "duration": 10, "velocity": 107}, {"time": 2347, "pitch": 89, "duration": 5, "velocity": 127}, {"time": 2353, "pitch": 91, "duration": 20, "velocity": 127}, {"time": 2371, "pitch": 89, "duration": 5, "velocity": 122}, {"time": 2377, "pitch": 86, "duration": 39, "velocity": 112}, {"time": 2767, "pitch": 81, "duration": 4, "velocity": 122}, {"time": 2770, "pitch": 79, "duration": 4, "velocity": 96}, {"time": 2773, "pitch": 77, "duration": 4, "velocity": 93}, {"time": 2776, "pitch": 79, "duration": 4, "velocity": 96}, {"time": 2779, "pitch": 77, "duration": 3, "velocity": 82}, {"time": 2782, "pitch": 76, "duration": 4, "velocity": 89}, {"time": 2785, "pitch": 74, "duration": 10, "velocity": 95}, {"time": 2796, "pitch": 72, "duration": 2, "velocity": 36}, {"time": 2797, "pitch": 69, "duration": 4, "velocity": 88}, {"time": 2800, "pitch": 72, "duration": 3, "velocity": 99}, {"time": 2803, "pitch": 69, "duration": 4, "velocity": 89}, {"time": 2806, "pitch": 72, "duration": 4, "velocity": 97}, {"time": 2809, "pitch": 74, "duration": 18, "velocity": 90}], "annotations": [{"time": 1, "annotation": {"number": 64, "value": 60}, "group": "control_change"}, {"time": 25, "annotation": {"number": 64, "value": 57}, "group": "control_change"}, {"time": 49, "annotation": {"number": 64, "value": 58}, "group": "control_change"}, {"time": 61, "annotation": {"number": 64, "value": 59}, "group": "control_change"}, {"time": 85, "annotation": {"number": 64, "value": 60}, "group": "control_change"}, {"time": 145, "annotation": {"number": 64, "value": 61}, "group": "control_change"}, {"time": 193, "annotation": {"number": 64, "value": 60}, "group": "control_change"}, {"time": 265, "annotation": {"number": 64, "value": 59}, "group": "control_change"}, {"time": 337, "annotation": {"number": 64, "value": 58}, "group": "control_change"}, {"time": 457, "annotation": {"number": 64, "value": 57}, "group": "control_change"}, {"time": 493, "annotation": {"number": 64, "value": 56}, "group": "control_change"}, {"time": 517, "annotation": {"number": 64, "value": 55}, "group": "control_change"}, {"time": 529, "annotation": {"number": 64, "value": 54}, "group": "control_change"}, {"time": 553, "annotation": {"number": 64, "value": 53}, "group": "control_change"}, {"time": 721, "annotation": {"number": 64, "value": 52}, "group": "control_change"}, {"time": 757, "annotation": {"number": 64, "value": 51}, "group": "control_change"}, {"time": 805, "annotation": {"number": 64, "value": 50}, "group": "control_change"}, {"time": 829, "annotation": {"number": 64, "value": 49}, "group": "control_change"}, {"time": 2005, "annotation": {"number": 64, "value": 55}, "group": "control_change"}, {"time": 2017, "annotation": {"number": 64, "value": 56}, "group": "control_change"}, {"time": 2029, "annotation": {"number": 64, "value": 57}, "group": "control_change"}, {"time": 2065, "annotation": {"number": 64, "value": 58}, "group": "control_change"}, {"time": 2209, "annotation": {"number": 64, "value": 59}, "group": "control_change"}, {"time": 2233, "annotation": {"number": 64, "value": 60}, "group": "control_change"}, {"time": 2245, "annotation": {"number": 64, "value": 61}, "group": "control_change"}, {"time": 2257, "annotation": {"number": 64, "value": 62}, "group": "control_change"}, {"time": 2269, "annotation": {"number": 64, "value": 63}, "group": "control_change"}, {"time": 2281, "annotation": {"number": 64, "value": 64}, "group": "control_change"}, {"time": 2293, "annotation": {"number": 64, "value": 65}, "group": "control_change"}, {"time": 2365, "annotation": {"number": 64, "value": 66}, "group": "control_change"}, {"time": 2389, "annotation": {"number": 64, "value": 65}, "group": "control_change"}, {"time": 2401, "annotation": {"number": 64, "value": 64}, "group": "control_change"}, {"time": 2413, "annotation": {"number": 64, "value": 63}, "group": "control_change"}, {"time": 2437, "annotation": {"number": 64, "value": 62}, "group": "control_change"}, {"time": 2485, "annotation": {"number": 64, "value": 61}, "group": "control_change"}, {"time": 2521, "annotation": {"number": 64, "value": 60}, "group": "control_change"}]}, {"program": 0, "is_drum": false, "name": "PIANO", "notes": [{"time": 1, "pitch": 50, "duration": 22, "velocity": 59}, {"time": 1, "pitch": 62, "duration": 6, "velocity": 82}, {"time": 7, "pitch": 57, "duration": 18, "velocity": 43}, {"time": 7, "pitch": 64, "duration": 6, "velocity": 40}, {"time": 13, "pitch": 65, "duration": 7, "velocity": 59}, {"time": 19, "pitch": 64, "duration": 4, "velocity": 63}, {"time": 22, "pitch": 65, "duration": 4, "velocity": 56}, {"time": 25, "pitch": 50, "duration": 41, "velocity": 64}, {"time": 25, "pitch": 69, "duration": 13, "velocity": 83}, {"time": 31, "pitch": 57, "duration": 33, "velocity": 63}, {"time": 37, "pitch": 65, "duration": 7, "velocity": 74}, {"time": 43, "pitch": 64, "duration": 6, "velocity": 42}, {"time": 49, "pitch": 62, "duration": 12, "velocity": 65}, {"time": 49, "pitch": 65, "duration": 12, "velocity": 69}, {"time": 49, "pitch": 69, "duration": 12, "velocity": 50}, {"time": 61, "pitch": 64, "duration": 7, "velocity": 90}, {"time": 67, "pitch": 62, "duration": 4, "velocity": 75}, {"time": 73, "pitch": 48, "duration": 13, "velocity": 63}, {"time": 73, "pitch": 60, "duration": 11, "velocity": 86}, {"time": 73, "pitch": 64, "duration": 11, "velocity": 69}, {"time": 73, "pitch": 67, "duration": 8, "velocity": 64}, {"time": 79, "pitch": 55, "duration": 7, "velocity": 41}, {"time": 85, "pitch": 64, "duration": 11, "velocity": 79}, {"time": 85, "pitch": 67, "duration": 7, "velocity": 73}, {"time": 97, "pitch": 50, "duration": 16, "velocity": 61}, {"time": 97, "pitch": 62, "duration": 8, "velocity": 43}, {"time": 97, "pitch": 65, "duration": 6, "velocity": 58}, {"time": 103, "pitch": 57, "duration": 9, "velocity": 55}, {"time": 109, "pitch": 64, "duration": 8, "velocity": 82}, {"time": 115, "pitch": 65, "duration": 6, "velocity": 72}, {"time": 121, "pitch": 46, "duration": 23, "velocity": 100}, {"time": 127, "pitch": 58, "duration": 11, "velocity": 58}, {"time": 133, "pitch": 62, "duration": 20, "velocity": 88}, {"time": 133, "pitch": 65, "duration": 19, "velocity": 89}, {"time": 145, "pitch": 46, "duration": 14, "velocity": 58}, {"time": 151, "pitch": 58, "duration": 5, "velocity": 48}, {"time": 157, "pitch": 62, "duration": 2, "velocity": 74}, {"time": 157, "pitch": 65, "duration": 2, "velocity": 76}, {"time": 169, "pitch": 41, "duration": 18, "velocity": 63}, {"time": 169, "pitch": 53, "duration": 2, "velocity": 59}, {"time": 169, "pitch": 57, "duration": 7, "velocity": 72}, {"time": 169, "pitch": 60, "duration": 6, "velocity": 65}, {"time": 175, "pitch": 48, "duration": 13, "velocity": 53}, {"time": 181, "pitch": 53, "duration": 12, "velocity": 49}, {"time": 181, "pitch": 55, "duration": 5, "velocity": 72}, {"time": 193, "pitch": 45, "duration": 14, "velocity": 60}, {"time": 193, "pitch": 57, "duration": 10, "velocity": 74}, {"time": 193, "pitch": 60, "duration": 10, "velocity": 68}, {"time": 193, "pitch": 64, "duration": 10, "velocity": 56}, {"time": 193, "pitch": 67, "duration": 10, "velocity": 62}, {"time": 205, "pitch": 60, "duration": 6, "velocity": 89}, {"time": 205, "pitch": 64, "duration": 6, "velocity": 83}, {"time": 205, "pitch": 67, "duration": 6, "velocity": 88}, {"time": 211, "pitch": 57, "duration": 1, "velocity": 48}, {"time": 217, "pitch": 50, "duration": 23, "velocity": 72}, {"time": 217, "pitch": 62, "duration": 12, "velocity": 93}, {"time": 217, "pitch": 65, "duration": 6, "velocity": 92}, {"time": 223, "pitch": 57, "duration": 17, "velocity": 59}, {"time": 229, "pitch": 64, "duration": 12, "velocity": 89}, {"time": 235, "pitch": 65, "duration": 16, "velocity": 69}, {"time": 241, "pitch": 50, "duration": 16, "velocity": 62}, {"time": 241, "pitch": 57, "duration": 14, "velocity": 50}, {"time": 241, "pitch": 62, "duration": 8, "velocity": 64}, {"time": 241, "pitch": 69, "duration": 8, "velocity": 69}, {"time": 253, "pitch": 64, "duration": 13, "velocity": 90}, {"time": 259, "pitch": 62, "duration": 7, "velocity": 82}, {"time": 265, "pitch": 41, "duration": 14, "velocity": 70}, {"time": 271, "pitch": 48, "duration": 8, "velocity": 55}, {"time": 277, "pitch": 57, "duration": 3, "velocity": 86}, {"time": 277, "pitch": 60, "duration": 3, "velocity": 78}, {"time": 289, "pitch": 48, "duration": 15, "velocity": 59}, {"time": 289, "pitch": 60, "duration": 9, "velocity": 88}, {"time": 289, "pitch": 64, "duration": 10, "velocity": 82}, {"time": 289, "pitch": 67, "duration": 10, "velocity": 74}, {"time": 295, "pitch": 55, "duration": 8, "velocity": 39}, {"time": 301, "pitch": 64, "duration": 4, "velocity": 95}, {"time": 301, "pitch": 67, "duration": 4, "velocity": 89}, {"time": 313, "pitch": 43, "duration": 16, "velocity": 62}, {"time": 313, "pitch": 55, "duration": 8, "velocity": 86}, {"time": 313, "pitch": 58, "duration": 9, "velocity": 86}, {"time": 313, "pitch": 62, "duration": 8, "velocity": 76}, {"time": 319, "pitch": 50, "duration": 13, "velocity": 33}, {"time": 325, "pitch": 55, "duration": 6, "velocity": 75}, {"time": 325, "pitch": 58, "duration": 6, "velocity": 97}, {"time": 325, "pitch": 62, "duration": 6, "velocity": 83}, {"time": 337, "pitch": 45, "duration": 18, "velocity": 69}, {"time": 337, "pitch": 57, "duration": 10, "velocity": 85}, {"time": 337, "pitch": 64, "duration": 11, "velocity": 75}, {"time": 343, "pitch": 52, "duration": 12, "velocity": 42}, {"time": 349, "pitch": 57, "duration": 11, "velocity": 81}, {"time": 349, "pitch": 64, "duration": 7, "velocity": 77}, {"time": 361, "pitch": 50, "duration": 17, "velocity": 63}, {"time": 361, "pitch": 62, "duration": 10, "velocity": 76}, {"time": 361, "pitch": 65, "duration": 4, "velocity": 70}, {"time": 367, "pitch": 57, "duration": 10, "velocity": 59}, {"time": 373, "pitch": 64, "duration": 26, "velocity": 89}, {"time": 379, "pitch": 65, "duration": 6, "velocity": 65}, {"time": 385, "pitch": 50, "duration": 16, "velocity": 47}, {"time": 385, "pitch": 57, "duration": 14, "velocity": 42}, {"time": 385, "pitch": 62, "duration": 15, "velocity": 59}, {"time": 385, "pitch": 65, "duration": 15, "velocity": 41}, {"time": 385, "pitch": 69, "duration": 14, "velocity": 65}, {"time": 409, "pitch": 50, "duration": 23, "velocity": 62}, {"time": 409, "pitch": 57, "duration": 10, "velocity": 93}, {"time": 409, "pitch": 62, "duration": 10, "velocity": 88}, {"time": 409, "pitch": 65, "duration": 10, "velocity": 75}, {"time": 421, "pitch": 57, "duration": 12, "velocity": 88}, {"time": 421, "pitch": 62, "duration": 11, "velocity": 90}, {"time": 421, "pitch": 65, "duration": 11, "velocity": 82}, {"time": 433, "pitch": 50, "duration": 13, "velocity": 58}, {"time": 439, "pitch": 57, "duration": 6, "velocity": 61}, {"time": 445, "pitch": 62, "duration": 11, "velocity": 82}, {"time": 445, "pitch": 65, "duration": 9, "velocity": 72}, {"time": 457, "pitch": 48, "duration": 15, "velocity": 71}, {"time": 457, "pitch": 60, "duration": 13, "velocity": 69}, {"time": 457, "pitch": 64, "duration": 5, "velocity": 69}, {"time": 463, "pitch": 55, "duration": 8, "velocity": 49}, {"time": 469, "pitch": 64, "duration": 17, "velocity": 60}, {"time": 469, "pitch": 67, "duration": 12, "velocity": 60}, {"time": 481, "pitch": 50, "duration": 18, "velocity": 72}, {"time": 487, "pitch": 57, "duration": 12, "velocity": 57}, {"time": 493, "pitch": 65, "duration": 7, "velocity": 100}, {"time": 499, "pitch": 64, "duration": 6, "velocity": 66}, {"time": 505, "pitch": 46, "duration": 38, "velocity": 93}, {"time": 505, "pitch": 62, "duration": 6, "velocity": 73}, {"time": 505, "pitch": 65, "duration": 4, "velocity": 88}, {"time": 511, "pitch": 58, "duration": 3, "velocity": 57}, {"time": 517, "pitch": 58, "duration": 7, "velocity": 96}, {"time": 517, "pitch": 62, "duration": 7, "velocity": 75}, {"time": 517, "pitch": 65, "duration": 5, "velocity": 64}, {"time": 529, "pitch": 53, "duration": 8, "velocity": 55}, {"time": 529, "pitch": 58, "duration": 8, "velocity": 60}, {"time": 529, "pitch": 62, "duration": 7, "velocity": 47}, {"time": 529, "pitch": 65, "duration": 7, "velocity": 38}, {"time": 541, "pitch": 53, "duration": 3, "velocity": 47}, {"time": 541, "pitch": 58, "duration": 7, "velocity": 96}, {"time": 541, "pitch": 62, "duration": 7, "velocity": 92}, {"time": 541, "pitch": 65, "duration": 7, "velocity": 81}, {"time": 547, "pitch": 53, "duration": 4, "velocity": 53}, {"time": 553, "pitch": 41, "duration": 13, "velocity": 63}, {"time": 553, "pitch": 53, "duration": 7, "velocity": 83}, {"time": 553, "pitch": 57, "duration": 10, "velocity": 79}, {"time": 553, "pitch": 60, "duration": 10, "velocity": 74}, {"time": 559, "pitch": 48, "duration": 8, "velocity": 39}, {"time": 565, "pitch": 53, "duration": 3, "velocity": 62}, {"time": 565, "pitch": 57, "duration": 4, "velocity": 72}, {"time": 565, "pitch": 60, "duration": 4, "velocity": 72}, {"time": 577, "pitch": 45, "duration": 14, "velocity": 50}, {"time": 577, "pitch": 52, "duration": 13, "velocity": 50}, {"time": 577, "pitch": 57, "duration": 10, "velocity": 88}, {"time": 577, "pitch": 61, "duration": 10, "velocity": 89}, {"time": 577, "pitch": 64, "duration": 10, "velocity": 68}, {"time": 577, "pitch": 67, "duration": 9, "velocity": 59}, {"time": 589, "pitch": 61, "duration": 5, "velocity": 107}, {"time": 589, "pitch": 64, "duration": 5, "velocity": 85}, {"time": 589, "pitch": 67, "duration": 4, "velocity": 83}, {"time": 601, "pitch": 50, "duration": 37, "velocity": 71}, {"time": 601, "pitch": 62, "duration": 8, "velocity": 93}, {"time": 601, "pitch": 65, "duration": 8, "velocity": 93}, {"time": 601, "pitch": 69, "duration": 8, "velocity": 93}, {"time": 607, "pitch": 57, "duration": 10, "velocity": 73}, {"time": 613, "pitch": 64, "duration": 11, "velocity": 100}, {"time": 619, "pitch": 57, "duration": 10, "velocity": 36}, {"time": 625, "pitch": 62, "duration": 7, "velocity": 72}, {"time": 625, "pitch": 64, "duration": 7, "velocity": 63}, {"time": 625, "pitch": 65, "duration": 7, "velocity": 72}, {"time": 625, "pitch": 69, "duration": 8, "velocity": 69}, {"time": 631, "pitch": 57, "duration": 6, "velocity": 31}, {"time": 637, "pitch": 65, "duration": 6, "velocity": 85}, {"time": 649, "pitch": 41, "duration": 14, "velocity": 61}, {"time": 649, "pitch": 53, "duration": 8, "velocity": 90}, {"time": 649, "pitch": 57, "duration": 10, "velocity": 77}, {"time": 649, "pitch": 60, "duration": 10, "velocity": 77}, {"time": 655, "pitch": 48, "duration": 7, "velocity": 33}, {"time": 661, "pitch": 53, "duration": 2, "velocity": 66}, {"time": 661, "pitch": 57, "duration": 2, "velocity": 67}, {"time": 661, "pitch": 60, "duration": 3, "velocity": 71}, {"time": 673, "pitch": 48, "duration": 14, "velocity": 63}, {"time": 673, "pitch": 60, "duration": 7, "velocity": 83}, {"time": 673, "pitch": 64, "duration": 8, "velocity": 85}, {"time": 673, "pitch": 67, "duration": 7, "velocity": 82}, {"time": 679, "pitch": 55, "duration": 8, "velocity": 38}, {"time": 685, "pitch": 64, "duration": 3, "velocity": 86}, {"time": 685, "pitch": 67, "duration": 4, "velocity": 79}, {"time": 697, "pitch": 43, "duration": 13, "velocity": 67}, {"time": 697, "pitch": 62, "duration": 6, "velocity": 81}, {"time": 697, "pitch": 67, "duration": 5, "velocity": 90}, {"time": 697, "pitch": 70, "duration": 5, "velocity": 92}, {"time": 703, "pitch": 50, "duration": 7, "velocity": 56}, {"time": 709, "pitch": 55, "duration": 3, "velocity": 82}, {"time": 709, "pitch": 58, "duration": 3, "velocity": 86}, {"time": 709, "pitch": 62, "duration": 3, "velocity": 76}, {"time": 721, "pitch": 45, "duration": 13, "velocity": 65}, {"time": 721, "pitch": 57, "duration": 8, "velocity": 83}, {"time": 721, "pitch": 60, "duration": 8, "velocity": 83}, {"time": 721, "pitch": 64, "duration": 10, "velocity": 76}, {"time": 727, "pitch": 52, "duration": 6, "velocity": 48}, {"time": 733, "pitch": 57, "duration": 3, "velocity": 61}, {"time": 733, "pitch": 60, "duration": 3, "velocity": 66}, {"time": 733, "pitch": 64, "duration": 3, "velocity": 58}, {"time": 733, "pitch": 67, "duration": 3, "velocity": 65}, {"time": 745, "pitch": 50, "duration": 38, "velocity": 67}, {"time": 745, "pitch": 62, "duration": 11, "velocity": 85}, {"time": 745, "pitch": 65, "duration": 7, "velocity": 83}, {"time": 745, "pitch": 69, "duration": 8, "velocity": 72}, {"time": 751, "pitch": 57, "duration": 9, "velocity": 38}, {"time": 757, "pitch": 64, "duration": 9, "velocity": 97}, {"time": 763, "pitch": 57, "duration": 20, "velocity": 42}, {"time": 769, "pitch": 62, "duration": 13, "velocity": 47}, {"time": 769, "pitch": 64, "duration": 10, "velocity": 39}, {"time": 769, "pitch": 65, "duration": 13, "velocity": 41}, {"time": 769, "pitch": 69, "duration": 14, "velocity": 43}, {"time": 781, "pitch": 64, "duration": 8, "velocity": 76}, {"time": 787, "pitch": 65, "duration": 5, "velocity": 53}, {"time": 790, "pitch": 64, "duration": 10, "velocity": 66}, {"time": 793, "pitch": 38, "duration": 39, "velocity": 100}, {"time": 793, "pitch": 50, "duration": 22, "velocity": 72}, {"time": 793, "pitch": 62, "duration": 7, "velocity": 88}, {"time": 793, "pitch": 65, "duration": 8, "velocity": 64}, {"time": 793, "pitch": 69, "duration": 8, "velocity": 69}, {"time": 793, "pitch": 74, "duration": 30, "velocity": 122}, {"time": 799, "pitch": 57, "duration": 18, "velocity": 58}, {"time": 805, "pitch": 62, "duration": 4, "velocity": 85}, {"time": 805, "pitch": 64, "duration": 19, "velocity": 99}, {"time": 805, "pitch": 65, "duration": 19, "velocity": 99}, {"time": 805, "pitch": 69, "duration": 19, "velocity": 92}, {"time": 811, "pitch": 62, "duration": 12, "velocity": 62}, {"time": 817, "pitch": 50, "duration": 14, "velocity": 78}, {"time": 823, "pitch": 57, "duration": 7, "velocity": 56}, {"time": 829, "pitch": 65, "duration": 5, "velocity": 102}, {"time": 829, "pitch": 69, "duration": 1, "velocity": 82}, {"time": 832, "pitch": 64, "duration": 4, "velocity": 85}, {"time": 835, "pitch": 38, "duration": 6, "velocity": 102}, {"time": 835, "pitch": 62, "duration": 6, "velocity": 74}, {"time": 841, "pitch": 36, "duration": 24, "velocity": 100}, {"time": 841, "pitch": 48, "duration": 14, "velocity": 69}, {"time": 841, "pitch": 64, "duration": 10, "velocity": 71}, {"time": 841, "pitch": 67, "duration": 10, "velocity": 63}, {"time": 847, "pitch": 55, "duration": 8, "velocity": 44}, {"time": 853, "pitch": 64, "duration": 11, "velocity": 85}, {"time": 853, "pitch": 67, "duration": 5, "velocity": 79}, {"time": 865, "pitch": 38, "duration": 16, "velocity": 102}, {"time": 865, "pitch": 50, "duration": 15, "velocity": 68}, {"time": 865, "pitch": 62, "duration": 7, "velocity": 77}, {"time": 865, "pitch": 65, "duration": 7, "velocity": 83}, {"time": 865, "pitch": 69, "duration": 7, "velocity": 76}, {"time": 871, "pitch": 57, "duration": 7, "velocity": 54}, {"time": 877, "pitch": 64, "duration": 3, "velocity": 112}, {"time": 880, "pitch": 65, "duration": 4, "velocity": 83}, {"time": 883, "pitch": 38, "duration": 3, "velocity": 107}, {"time": 883, "pitch": 64, "duration": 4, "velocity": 100}, {"time": 886, "pitch": 36, "duration": 3, "velocity": 88}, {"time": 886, "pitch": 60, "duration": 4, "velocity": 75}, {"time": 889, "pitch": 34, "duration": 16, "velocity": 112}, {"time": 889, "pitch": 46, "duration": 19, "velocity": 90}, {"time": 889, "pitch": 62, "duration": 7, "velocity": 100}, {"time": 895, "pitch": 58, "duration": 2, "velocity": 64}, {"time": 901, "pitch": 58, "duration": 8, "velocity": 112}, {"time": 901, "pitch": 62, "duration": 10, "velocity": 88}, {"time": 901, "pitch": 65, "duration": 6, "velocity": 72}, {"time": 907, "pitch": 34, "duration": 5, "velocity": 117}, {"time": 913, "pitch": 34, "duration": 16, "velocity": 93}, {"time": 913, "pitch": 46, "duration": 14, "velocity": 63}, {"time": 913, "pitch": 58, "duration": 10, "velocity": 102}, {"time": 913, "pitch": 62, "duration": 10, "velocity": 86}, {"time": 913, "pitch": 65, "duration": 6, "velocity": 73}, {"time": 925, "pitch": 58, "duration": 7, "velocity": 127}, {"time": 925, "pitch": 62, "duration": 7, "velocity": 100}, {"time": 925, "pitch": 65, "duration": 6, "velocity": 90}, {"time": 931, "pitch": 34, "duration": 5, "velocity": 96}, {"time": 934, "pitch": 60, "duration": 1, "velocity": 40}, {"time": 937, "pitch": 41, "duration": 13, "velocity": 73}, {"time": 937, "pitch": 41, "duration": 13, "velocity": 97}, {"time": 937, "pitch": 53, "duration": 7, "velocity": 99}, {"time": 937, "pitch": 57, "duration": 11, "velocity": 97}, {"time": 937, "pitch": 60, "duration": 11, "velocity": 96}, {"time": 943, "pitch": 48, "duration": 7, "velocity": 43}, {"time": 949, "pitch": 53, "duration": 2, "velocity": 78}, {"time": 949, "pitch": 57, "duration": 2, "velocity": 90}, {"time": 949, "pitch": 60, "duration": 3, "velocity": 85}, {"time": 955, "pitch": 41, "duration": 3, "velocity": 95}, {"time": 958, "pitch": 43, "duration": 3, "velocity": 88}, {"time": 961, "pitch": 45, "duration": 16, "velocity": 99}, {"time": 961, "pitch": 52, "duration": 14, "velocity": 63}, {"time": 961, "pitch": 57, "duration": 10, "velocity": 93}, {"time": 961, "pitch": 61, "duration": 11, "velocity": 100}, {"time": 961, "pitch": 64, "duration": 11, "velocity": 89}, {"time": 973, "pitch": 57, "duration": 2, "velocity": 79}, {"time": 973, "pitch": 61, "duration": 4, "velocity": 97}, {"time": 973, "pitch": 64, "duration": 5, "velocity": 82}, {"time": 979, "pitch": 41, "duration": 4, "velocity": 102}, {"time": 982, "pitch": 40, "duration": 3, "velocity": 70}, {"time": 985, "pitch": 38, "duration": 23, "velocity": 95}, {"time": 985, "pitch": 50, "duration": 21, "velocity": 72}, {"time": 985, "pitch": 62, "duration": 7, "velocity": 92}, {"time": 985, "pitch": 65, "duration": 7, "velocity": 102}, {"time": 985, "pitch": 69, "duration": 7, "velocity": 93}, {"time": 991, "pitch": 57, "duration": 19, "velocity": 72}, {"time": 997, "pitch": 65, "duration": 8, "velocity": 102}, {"time": 997, "pitch": 69, "duration": 7, "velocity": 95}, {"time": 1003, "pitch": 62, "duration": 8, "velocity": 85}, {"time": 1009, "pitch": 38, "duration": 16, "velocity": 93}, {"time": 1009, "pitch": 50, "duration": 14, "velocity": 62}, {"time": 1009, "pitch": 65, "duration": 8, "velocity": 102}, {"time": 1009, "pitch": 69, "duration": 8, "velocity": 99}, {"time": 1015, "pitch": 57, "duration": 8, "velocity": 52}, {"time": 1021, "pitch": 65, "duration": 6, "velocity": 112}, {"time": 1021, "pitch": 69, "duration": 6, "velocity": 112}, {"time": 1027, "pitch": 38, "duration": 3, "velocity": 89}, {"time": 1027, "pitch": 62, "duration": 7, "velocity": 85}, {"time": 1030, "pitch": 40, "duration": 3, "velocity": 78}, {"time": 1033, "pitch": 41, "duration": 15, "velocity": 67}, {"time": 1033, "pitch": 41, "duration": 15, "velocity": 90}, {"time": 1033, "pitch": 65, "duration": 8, "velocity": 112}, {"time": 1033, "pitch": 69, "duration": 7, "velocity": 99}, {"time": 1039, "pitch": 60, "duration": 8, "velocity": 86}, {"time": 1045, "pitch": 48, "duration": 3, "velocity": 53}, {"time": 1045, "pitch": 65, "duration": 6, "velocity": 100}, {"time": 1045, "pitch": 69, "duration": 6, "velocity": 97}, {"time": 1051, "pitch": 41, "duration": 5, "velocity": 92}, {"time": 1051, "pitch": 60, "duration": 6, "velocity": 86}, {"time": 1057, "pitch": 36, "duration": 23, "velocity": 95}, {"time": 1057, "pitch": 48, "duration": 15, "velocity": 67}, {"time": 1057, "pitch": 64, "duration": 8, "velocity": 93}, {"time": 1057, "pitch": 67, "duration": 8, "velocity": 93}, {"time": 1063, "pitch": 55, "duration": 8, "velocity": 39}, {"time": 1063, "pitch": 60, "duration": 6, "velocity": 41}, {"time": 1069, "pitch": 64, "duration": 7, "velocity": 100}, {"time": 1069, "pitch": 67, "duration": 7, "velocity": 93}, {"time": 1075, "pitch": 60, "duration": 2, "velocity": 90}, {"time": 1081, "pitch": 43, "duration": 17, "velocity": 95}, {"time": 1081, "pitch": 58, "duration": 7, "velocity": 96}, {"time": 1081, "pitch": 62, "duration": 9, "velocity": 89}, {"time": 1087, "pitch": 50, "duration": 10, "velocity": 57}, {"time": 1087, "pitch": 55, "duration": 7, "velocity": 77}, {"time": 1093, "pitch": 58, "duration": 6, "velocity": 112}, {"time": 1093, "pitch": 62, "duration": 6, "velocity": 95}, {"time": 1099, "pitch": 43, "duration": 6, "velocity": 99}, {"time": 1099, "pitch": 50, "duration": 7, "velocity": 42}, {"time": 1105, "pitch": 45, "duration": 15, "velocity": 112}, {"time": 1105, "pitch": 60, "duration": 8, "velocity": 100}, {"time": 1105, "pitch": 64, "duration": 9, "velocity": 97}, {"time": 1111, "pitch": 52, "duration": 8, "velocity": 50}, {"time": 1111, "pitch": 57, "duration": 7, "velocity": 68}, {"time": 1117, "pitch": 60, "duration": 6, "velocity": 97}, {"time": 1117, "pitch": 64, "duration": 7, "velocity": 95}, {"time": 1123, "pitch": 41, "duration": 4, "velocity": 99}, {"time": 1123, "pitch": 57, "duration": 1, "velocity": 92}, {"time": 1126, "pitch": 40, "duration": 3, "velocity": 81}, {"time": 1129, "pitch": 38, "duration": 23, "velocity": 92}, {"time": 1129, "pitch": 50, "duration": 22, "velocity": 71}, {"time": 1129, "pitch": 65, "duration": 6, "velocity": 97}, {"time": 1129, "pitch": 69, "duration": 8, "velocity": 93}, {"time": 1135, "pitch": 57, "duration": 8, "velocity": 52}, {"time": 1135, "pitch": 64, "duration": 6, "velocity": 72}, {"time": 1141, "pitch": 65, "duration": 7, "velocity": 97}, {"time": 1141, "pitch": 69, "duration": 8, "velocity": 99}, {"time": 1144, "pitch": 57, "duration": 9, "velocity": 53}, {"time": 1147, "pitch": 64, "duration": 4, "velocity": 90}, {"time": 1153, "pitch": 38, "duration": 11, "velocity": 86}, {"time": 1153, "pitch": 50, "duration": 17, "velocity": 90}, {"time": 1153, "pitch": 62, "duration": 6, "velocity": 102}, {"time": 1153, "pitch": 65, "duration": 4, "velocity": 95}, {"time": 1153, "pitch": 69, "duration": 6, "velocity": 95}, {"time": 1156, "pitch": 65, "duration": 1, "velocity": 20}, {"time": 1159, "pitch": 57, "duration": 7, "velocity": 64}, {"time": 1165, "pitch": 41, "duration": 7, "velocity": 88}, {"time": 1165, "pitch": 64, "duration": 3, "velocity": 112}, {"time": 1165, "pitch": 76, "duration": 3, "velocity": 97}, {"time": 1168, "pitch": 57, "duration": 2, "velocity": 97}, {"time": 1171, "pitch": 40, "duration": 6, "velocity": 89}, {"time": 1171, "pitch": 65, "duration": 2, "velocity": 112}, {"time": 1178, "pitch": 38, "duration": 15, "velocity": 88}, {"time": 1178, "pitch": 50, "duration": 6, "velocity": 87}, {"time": 1178, "pitch": 62, "duration": 6, "velocity": 83}, {"time": 1178, "pitch": 65, "duration": 5, "velocity": 80}, {"time": 1178, "pitch": 69, "duration": 6, "velocity": 82}, {"time": 1186, "pitch": 50, "duration": 5, "velocity": 80}, {"time": 1190, "pitch": 62, "duration": 7, "velocity": 99}, {"time": 1190, "pitch": 65, "duration": 7, "velocity": 86}, {"time": 1190, "pitch": 69, "duration": 7, "velocity": 93}, {"time": 1192, "pitch": 57, "duration": 4, "velocity": 59}, {"time": 1196, "pitch": 50, "duration": 1, "velocity": 57}, {"time": 1198, "pitch": 38, "duration": 1, "velocity": 65}, {"time": 1202, "pitch": 38, "duration": 18, "velocity": 76}, {"time": 1202, "pitch": 50, "duration": 5, "velocity": 80}, {"time": 1202, "pitch": 65, "duration": 4, "velocity": 74}, {"time": 1202, "pitch": 69, "duration": 4, "velocity": 73}, {"time": 1202, "pitch": 62, "duration": 4, "velocity": 69}, {"time": 1211, "pitch": 57, "duration": 5, "velocity": 97}, {"time": 1211, "pitch": 62, "duration": 6, "velocity": 91}, {"time": 1211, "pitch": 65, "duration": 5, "velocity": 89}, {"time": 1211, "pitch": 69, "duration": 5, "velocity": 95}, {"time": 1217, "pitch": 50, "duration": 5, "velocity": 80}, {"time": 1219, "pitch": 69, "duration": 2, "velocity": 86}, {"time": 1220, "pitch": 57, "duration": 2, "velocity": 88}, {"time": 1220, "pitch": 62, "duration": 1, "velocity": 80}, {"time": 1220, "pitch": 65, "duration": 1, "velocity": 75}, {"time": 1222, "pitch": 38, "duration": 1, "velocity": 71}, {"time": 1226, "pitch": 34, "duration": 16, "velocity": 71}, {"time": 1226, "pitch": 46, "duration": 6, "velocity": 69}, {"time": 1226, "pitch": 53, "duration": 6, "velocity": 80}, {"time": 1226, "pitch": 58, "duration": 6, "velocity": 79}, {"time": 1226, "pitch": 62, "duration": 6, "velocity": 76}, {"time": 1226, "pitch": 65, "duration": 6, "velocity": 78}, {"time": 1235, "pitch": 46, "duration": 5, "velocity": 71}, {"time": 1238, "pitch": 58, "duration": 6, "velocity": 102}, {"time": 1238, "pitch": 65, "duration": 7, "velocity": 92}, {"time": 1238, "pitch": 62, "duration": 6, "velocity": 90}, {"time": 1241, "pitch": 53, "duration": 3, "velocity": 59}, {"time": 1244, "pitch": 46, "duration": 3, "velocity": 61}, {"time": 1246, "pitch": 34, "duration": 1, "velocity": 69}, {"time": 1250, "pitch": 38, "duration": 17, "velocity": 87}, {"time": 1250, "pitch": 50, "duration": 6, "velocity": 85}, {"time": 1259, "pitch": 50, "duration": 4, "velocity": 67}, {"time": 1262, "pitch": 65, "duration": 4, "velocity": 89}, {"time": 1262, "pitch": 69, "duration": 4, "velocity": 93}, {"time": 1262, "pitch": 62, "duration": 4, "velocity": 92}, {"time": 1265, "pitch": 57, "duration": 1, "velocity": 64}, {"time": 1268, "pitch": 50, "duration": 1, "velocity": 80}, {"time": 1274, "pitch": 34, "duration": 15, "velocity": 81}, {"time": 1274, "pitch": 46, "duration": 7, "velocity": 81}, {"time": 1274, "pitch": 53, "duration": 6, "velocity": 65}, {"time": 1274, "pitch": 58, "duration": 6, "velocity": 71}, {"time": 1274, "pitch": 62, "duration": 6, "velocity": 72}, {"time": 1274, "pitch": 65, "duration": 6, "velocity": 68}, {"time": 1283, "pitch": 46, "duration": 4, "velocity": 80}, {"time": 1286, "pitch": 58, "duration": 6, "velocity": 99}, {"time": 1286, "pitch": 62, "duration": 6, "velocity": 88}, {"time": 1286, "pitch": 65, "duration": 5, "velocity": 92}, {"time": 1286, "pitch": 53, "duration": 5, "velocity": 87}, {"time": 1289, "pitch": 46, "duration": 2, "velocity": 67}, {"time": 1292, "pitch": 34, "duration": 1, "velocity": 56}, {"time": 1295, "pitch": 46, "duration": 1, "velocity": 56}, {"time": 1295, "pitch": 34, "duration": 1, "velocity": 46}, {"time": 1298, "pitch": 58, "duration": 7, "velocity": 77}, {"time": 1298, "pitch": 65, "duration": 6, "velocity": 66}, {"time": 1298, "pitch": 46, "duration": 6, "velocity": 69}, {"time": 1298, "pitch": 34, "duration": 17, "velocity": 59}, {"time": 1298, "pitch": 62, "duration": 6, "velocity": 67}, {"time": 1306, "pitch": 46, "duration": 5, "velocity": 85}, {"time": 1310, "pitch": 58, "duration": 4, "velocity": 99}, {"time": 1310, "pitch": 62, "duration": 4, "velocity": 88}, {"time": 1310, "pitch": 65, "duration": 5, "velocity": 87}, {"time": 1312, "pitch": 53, "duration": 2, "velocity": 75}, {"time": 1315, "pitch": 46, "duration": 3, "velocity": 74}, {"time": 1318, "pitch": 34, "duration": 3, "velocity": 54}, {"time": 1322, "pitch": 43, "duration": 6, "velocity": 64}, {"time": 1322, "pitch": 67, "duration": 8, "velocity": 83}, {"time": 1322, "pitch": 55, "duration": 7, "velocity": 88}, {"time": 1322, "pitch": 58, "duration": 7, "velocity": 76}, {"time": 1322, "pitch": 62, "duration": 6, "velocity": 76}, {"time": 1322, "pitch": 31, "duration": 16, "velocity": 85}, {"time": 1331, "pitch": 43, "duration": 4, "velocity": 90}, {"time": 1334, "pitch": 55, "duration": 5, "velocity": 106}, {"time": 1334, "pitch": 62, "duration": 6, "velocity": 90}, {"time": 1334, "pitch": 67, "duration": 6, "velocity": 99}, {"time": 1334, "pitch": 58, "duration": 6, "velocity": 95}, {"time": 1336, "pitch": 43, "duration": 6, "velocity": 72}, {"time": 1340, "pitch": 31, "duration": 2, "velocity": 84}, {"time": 1346, "pitch": 45, "duration": 6, "velocity": 79}, {"time": 1346, "pitch": 33, "duration": 15, "velocity": 85}, {"time": 1346, "pitch": 69, "duration": 6, "velocity": 84}, {"time": 1346, "pitch": 57, "duration": 6, "velocity": 83}, {"time": 1346, "pitch": 60, "duration": 7, "velocity": 72}, {"time": 1346, "pitch": 64, "duration": 6, "velocity": 68}, {"time": 1355, "pitch": 45, "duration": 3, "velocity": 80}, {"time": 1358, "pitch": 60, "duration": 6, "velocity": 99}, {"time": 1358, "pitch": 69, "duration": 6, "velocity": 100}, {"time": 1358, "pitch": 57, "duration": 5, "velocity": 97}, {"time": 1358, "pitch": 64, "duration": 6, "velocity": 85}, {"time": 1360, "pitch": 45, "duration": 7, "velocity": 87}, {"time": 1364, "pitch": 33, "duration": 3, "velocity": 81}, {"time": 1366, "pitch": 38, "duration": 1, "velocity": 72}, {"time": 1369, "pitch": 50, "duration": 6, "velocity": 72}, {"time": 1370, "pitch": 38, "duration": 17, "velocity": 71}, {"time": 1370, "pitch": 65, "duration": 6, "velocity": 87}, {"time": 1370, "pitch": 57, "duration": 7, "velocity": 94}, {"time": 1370, "pitch": 69, "duration": 7, "velocity": 92}, {"time": 1370, "pitch": 62, "duration": 7, "velocity": 84}, {"time": 1379, "pitch": 50, "duration": 5, "velocity": 84}, {"time": 1382, "pitch": 65, "duration": 6, "velocity": 96}, {"time": 1382, "pitch": 69, "duration": 7, "velocity": 96}, {"time": 1382, "pitch": 62, "duration": 7, "velocity": 97}, {"time": 1385, "pitch": 57, "duration": 3, "velocity": 67}, {"time": 1388, "pitch": 50, "duration": 4, "velocity": 81}, {"time": 1390, "pitch": 38, "duration": 1, "velocity": 75}, {"time": 1394, "pitch": 38, "duration": 17, "velocity": 80}, {"time": 1394, "pitch": 50, "duration": 4, "velocity": 85}, {"time": 1394, "pitch": 62, "duration": 5, "velocity": 94}, {"time": 1394, "pitch": 65, "duration": 5, "velocity": 93}, {"time": 1394, "pitch": 69, "duration": 5, "velocity": 93}, {"time": 1394, "pitch": 57, "duration": 6, "velocity": 83}, {"time": 1400, "pitch": 50, "duration": 7, "velocity": 79}, {"time": 1406, "pitch": 62, "duration": 6, "velocity": 104}, {"time": 1406, "pitch": 65, "duration": 6, "velocity": 96}, {"time": 1406, "pitch": 69, "duration": 7, "velocity": 102}, {"time": 1409, "pitch": 57, "duration": 4, "velocity": 76}, {"time": 1411, "pitch": 50, "duration": 4, "velocity": 71}, {"time": 1414, "pitch": 38, "duration": 4, "velocity": 68}, {"time": 1417, "pitch": 60, "duration": 8, "velocity": 87}, {"time": 1417, "pitch": 69, "duration": 8, "velocity": 92}, {"time": 1417, "pitch": 41, "duration": 18, "velocity": 83}, {"time": 1417, "pitch": 57, "duration": 8, "velocity": 90}, {"time": 1417, "pitch": 65, "duration": 8, "velocity": 83}, {"time": 1426, "pitch": 53, "duration": 5, "velocity": 67}, {"time": 1429, "pitch": 60, "duration": 5, "velocity": 102}, {"time": 1429, "pitch": 65, "duration": 5, "velocity": 95}, {"time": 1429, "pitch": 69, "duration": 4, "velocity": 100}, {"time": 1432, "pitch": 57, "duration": 2, "velocity": 59}, {"time": 1435, "pitch": 53, "duration": 2, "velocity": 67}, {"time": 1438, "pitch": 41, "duration": 1, "velocity": 72}, {"time": 1441, "pitch": 58, "duration": 7, "velocity": 85}, {"time": 1442, "pitch": 53, "duration": 6, "velocity": 84}, {"time": 1442, "pitch": 65, "duration": 5, "velocity": 78}, {"time": 1442, "pitch": 46, "duration": 6, "velocity": 79}, {"time": 1442, "pitch": 34, "duration": 17, "velocity": 84}, {"time": 1442, "pitch": 62, "duration": 6, "velocity": 75}, {"time": 1451, "pitch": 46, "duration": 5, "velocity": 92}, {"time": 1454, "pitch": 65, "duration": 5, "velocity": 95}, {"time": 1454, "pitch": 58, "duration": 5, "velocity": 100}, {"time": 1454, "pitch": 62, "duration": 5, "velocity": 90}, {"time": 1456, "pitch": 53, "duration": 3, "velocity": 81}, {"time": 1460, "pitch": 46, "duration": 3, "velocity": 79}, {"time": 1463, "pitch": 34, "duration": 1, "velocity": 72}, {"time": 1466, "pitch": 43, "duration": 6, "velocity": 75}, {"time": 1466, "pitch": 55, "duration": 7, "velocity": 95}, {"time": 1466, "pitch": 58, "duration": 7, "velocity": 84}, {"time": 1466, "pitch": 67, "duration": 6, "velocity": 90}, {"time": 1466, "pitch": 62, "duration": 6, "velocity": 79}, {"time": 1466, "pitch": 31, "duration": 19, "velocity": 79}, {"time": 1474, "pitch": 43, "duration": 5, "velocity": 72}, {"time": 1478, "pitch": 58, "duration": 7, "velocity": 104}, {"time": 1478, "pitch": 67, "duration": 6, "velocity": 100}, {"time": 1478, "pitch": 62, "duration": 6, "velocity": 92}, {"time": 1480, "pitch": 55, "duration": 4, "velocity": 85}, {"time": 1484, "pitch": 43, "duration": 1, "velocity": 79}, {"time": 1490, "pitch": 60, "duration": 5, "velocity": 87}, {"time": 1490, "pitch": 64, "duration": 5, "velocity": 84}, {"time": 1490, "pitch": 55, "duration": 5, "velocity": 87}, {"time": 1490, "pitch": 36, "duration": 15, "velocity": 89}, {"time": 1498, "pitch": 48, "duration": 5, "velocity": 79}, {"time": 1501, "pitch": 64, "duration": 6, "velocity": 104}, {"time": 1501, "pitch": 60, "duration": 6, "velocity": 102}, {"time": 1504, "pitch": 55, "duration": 2, "velocity": 63}, {"time": 1508, "pitch": 48, "duration": 4, "velocity": 76}, {"time": 1510, "pitch": 36, "duration": 3, "velocity": 55}, {"time": 1514, "pitch": 64, "duration": 7, "velocity": 79}, {"time": 1514, "pitch": 69, "duration": 7, "velocity": 92}, {"time": 1514, "pitch": 57, "duration": 8, "velocity": 87}, {"time": 1514, "pitch": 60, "duration": 8, "velocity": 84}, {"time": 1514, "pitch": 45, "duration": 7, "velocity": 85}, {"time": 1523, "pitch": 45, "duration": 5, "velocity": 95}, {"time": 1526, "pitch": 60, "duration": 6, "velocity": 104}, {"time": 1526, "pitch": 69, "duration": 6, "velocity": 104}, {"time": 1526, "pitch": 64, "duration": 6, "velocity": 94}, {"time": 1528, "pitch": 57, "duration": 4, "velocity": 71}, {"time": 1531, "pitch": 45, "duration": 7, "velocity": 97}, {"time": 1537, "pitch": 38, "duration": 8, "velocity": 96}, {"time": 1537, "pitch": 57, "duration": 8, "velocity": 87}, {"time": 1538, "pitch": 65, "duration": 6, "velocity": 86}, {"time": 1538, "pitch": 62, "duration": 7, "velocity": 80}, {"time": 1544, "pitch": 53, "duration": 3, "velocity": 71}, {"time": 1546, "pitch": 38, "duration": 10, "velocity": 105}, {"time": 1549, "pitch": 65, "duration": 10, "velocity": 100}, {"time": 1549, "pitch": 57, "duration": 10, "velocity": 102}, {"time": 1549, "pitch": 62, "duration": 10, "velocity": 94}, {"time": 1553, "pitch": 53, "duration": 5, "velocity": 63}, {"time": 1555, "pitch": 45, "duration": 4, "velocity": 84}, {"time": 1558, "pitch": 38, "duration": 1, "velocity": 74}, {"time": 1561, "pitch": 38, "duration": 20, "velocity": 100}, {"time": 1561, "pitch": 50, "duration": 23, "velocity": 89}, {"time": 1561, "pitch": 62, "duration": 6, "velocity": 100}, {"time": 1561, "pitch": 65, "duration": 6, "velocity": 102}, {"time": 1561, "pitch": 69, "duration": 6, "velocity": 100}, {"time": 1567, "pitch": 57, "duration": 9, "velocity": 67}, {"time": 1573, "pitch": 57, "duration": 3, "velocity": 100}, {"time": 1573, "pitch": 62, "duration": 11, "velocity": 122}, {"time": 1573, "pitch": 65, "duration": 11, "velocity": 127}, {"time": 1579, "pitch": 57, "duration": 5, "velocity": 82}, {"time": 1582, "pitch": 38, "duration": 2, "velocity": 86}, {"time": 1585, "pitch": 50, "duration": 14, "velocity": 79}, {"time": 1585, "pitch": 57, "duration": 1, "velocity": 95}, {"time": 1585, "pitch": 62, "duration": 10, "velocity": 107}, {"time": 1585, "pitch": 65, "duration": 9, "velocity": 100}, {"time": 1588, "pitch": 38, "duration": 2, "velocity": 72}, {"time": 1591, "pitch": 38, "duration": 11, "velocity": 97}, {"time": 1591, "pitch": 57, "duration": 4, "velocity": 69}, {"time": 1597, "pitch": 62, "duration": 11, "velocity": 102}, {"time": 1597, "pitch": 65, "duration": 10, "velocity": 122}, {"time": 1597, "pitch": 69, "duration": 10, "velocity": 122}, {"time": 1603, "pitch": 38, "duration": 3, "velocity": 100}, {"time": 1603, "pitch": 50, "duration": 6, "velocity": 90}, {"time": 1606, "pitch": 36, "duration": 2, "velocity": 72}, {"time": 1609, "pitch": 34, "duration": 16, "velocity": 102}, {"time": 1609, "pitch": 46, "duration": 16, "velocity": 52}, {"time": 1609, "pitch": 58, "duration": 10, "velocity": 127}, {"time": 1609, "pitch": 62, "duration": 10, "velocity": 99}, {"time": 1609, "pitch": 65, "duration": 7, "velocity": 96}, {"time": 1621, "pitch": 58, "duration": 5, "velocity": 127}, {"time": 1621, "pitch": 62, "duration": 5, "velocity": 100}, {"time": 1621, "pitch": 65, "duration": 6, "velocity": 90}, {"time": 1627, "pitch": 34, "duration": 3, "velocity": 102}, {"time": 1627, "pitch": 46, "duration": 6, "velocity": 85}, {"time": 1630, "pitch": 36, "duration": 3, "velocity": 68}, {"time": 1633, "pitch": 38, "duration": 17, "velocity": 88}, {"time": 1633, "pitch": 50, "duration": 14, "velocity": 63}, {"time": 1633, "pitch": 62, "duration": 10, "velocity": 100}, {"time": 1633, "pitch": 65, "duration": 10, "velocity": 107}, {"time": 1633, "pitch": 69, "duration": 10, "velocity": 107}, {"time": 1645, "pitch": 65, "duration": 5, "velocity": 127}, {"time": 1645, "pitch": 69, "duration": 5, "velocity": 127}, {"time": 1648, "pitch": 50, "duration": 3, "velocity": 107}, {"time": 1651, "pitch": 38, "duration": 3, "velocity": 82}, {"time": 1651, "pitch": 48, "duration": 6, "velocity": 95}, {"time": 1654, "pitch": 36, "duration": 3, "velocity": 86}, {"time": 1657, "pitch": 34, "duration": 20, "velocity": 100}, {"time": 1657, "pitch": 46, "duration": 40, "velocity": 99}, {"time": 1657, "pitch": 58, "duration": 10, "velocity": 117}, {"time": 1657, "pitch": 62, "duration": 10, "velocity": 93}, {"time": 1657, "pitch": 65, "duration": 8, "velocity": 83}, {"time": 1669, "pitch": 58, "duration": 10, "velocity": 122}, {"time": 1669, "pitch": 62, "duration": 10, "velocity": 96}, {"time": 1669, "pitch": 65, "duration": 6, "velocity": 92}, {"time": 1678, "pitch": 34, "duration": 2, "velocity": 81}, {"time": 1681, "pitch": 34, "duration": 5, "velocity": 89}, {"time": 1681, "pitch": 58, "duration": 10, "velocity": 127}, {"time": 1681, "pitch": 62, "duration": 10, "velocity": 102}, {"time": 1681, "pitch": 65, "duration": 7, "velocity": 93}, {"time": 1687, "pitch": 34, "duration": 10, "velocity": 95}, {"time": 1693, "pitch": 58, "duration": 10, "velocity": 127}, {"time": 1693, "pitch": 62, "duration": 10, "velocity": 102}, {"time": 1693, "pitch": 65, "duration": 7, "velocity": 93}, {"time": 1699, "pitch": 34, "duration": 5, "velocity": 95}, {"time": 1699, "pitch": 46, "duration": 6, "velocity": 99}, {"time": 1705, "pitch": 43, "duration": 20, "velocity": 68}, {"time": 1705, "pitch": 43, "duration": 20, "velocity": 100}, {"time": 1705, "pitch": 55, "duration": 8, "velocity": 117}, {"time": 1705, "pitch": 58, "duration": 10, "velocity": 117}, {"time": 1705, "pitch": 62, "duration": 8, "velocity": 93}, {"time": 1711, "pitch": 50, "duration": 8, "velocity": 44}, {"time": 1717, "pitch": 55, "duration": 7, "velocity": 102}, {"time": 1717, "pitch": 58, "duration": 6, "velocity": 127}, {"time": 1717, "pitch": 62, "duration": 7, "velocity": 100}, {"time": 1723, "pitch": 50, "duration": 7, "velocity": 71}, {"time": 1726, "pitch": 43, "duration": 4, "velocity": 93}, {"time": 1729, "pitch": 45, "duration": 4, "velocity": 89}, {"time": 1729, "pitch": 57, "duration": 11, "velocity": 107}, {"time": 1729, "pitch": 60, "duration": 11, "velocity": 100}, {"time": 1729, "pitch": 64, "duration": 11, "velocity": 100}, {"time": 1735, "pitch": 45, "duration": 10, "velocity": 100}, {"time": 1735, "pitch": 52, "duration": 9, "velocity": 45}, {"time": 1741, "pitch": 57, "duration": 7, "velocity": 97}, {"time": 1741, "pitch": 60, "duration": 7, "velocity": 107}, {"time": 1741, "pitch": 64, "duration": 7, "velocity": 96}, {"time": 1747, "pitch": 41, "duration": 3, "velocity": 96}, {"time": 1747, "pitch": 52, "duration": 2, "velocity": 63}, {"time": 1750, "pitch": 40, "duration": 3, "velocity": 70}, {"time": 1753, "pitch": 38, "duration": 20, "velocity": 78}, {"time": 1753, "pitch": 50, "duration": 23, "velocity": 78}, {"time": 1753, "pitch": 62, "duration": 10, "velocity": 99}, {"time": 1753, "pitch": 65, "duration": 6, "velocity": 99}, {"time": 1753, "pitch": 69, "duration": 7, "velocity": 97}, {"time": 1759, "pitch": 57, "duration": 8, "velocity": 70}, {"time": 1765, "pitch": 64, "duration": 12, "velocity": 102}, {"time": 1765, "pitch": 65, "duration": 8, "velocity": 107}, {"time": 1765, "pitch": 69, "duration": 7, "velocity": 102}, {"time": 1771, "pitch": 57, "duration": 7, "velocity": 53}, {"time": 1774, "pitch": 38, "duration": 2, "velocity": 77}, {"time": 1777, "pitch": 38, "duration": 4, "velocity": 86}, {"time": 1777, "pitch": 50, "duration": 17, "velocity": 73}, {"time": 1777, "pitch": 62, "duration": 9, "velocity": 93}, {"time": 1777, "pitch": 65, "duration": 11, "velocity": 95}, {"time": 1777, "pitch": 69, "duration": 11, "velocity": 83}, {"time": 1783, "pitch": 38, "duration": 10, "velocity": 89}, {"time": 1783, "pitch": 57, "duration": 7, "velocity": 73}, {"time": 1789, "pitch": 62, "duration": 6, "velocity": 90}, {"time": 1789, "pitch": 65, "duration": 7, "velocity": 112}, {"time": 1789, "pitch": 69, "duration": 7, "velocity": 97}, {"time": 1792, "pitch": 57, "duration": 2, "velocity": 83}, {"time": 1795, "pitch": 38, "duration": 3, "velocity": 97}, {"time": 1795, "pitch": 64, "duration": 5, "velocity": 112}, {"time": 1798, "pitch": 36, "duration": 3, "velocity": 77}, {"time": 1801, "pitch": 41, "duration": 15, "velocity": 93}, {"time": 1801, "pitch": 60, "duration": 9, "velocity": 100}, {"time": 1801, "pitch": 65, "duration": 9, "velocity": 107}, {"time": 1801, "pitch": 69, "duration": 9, "velocity": 99}, {"time": 1813, "pitch": 60, "duration": 6, "velocity": 95}, {"time": 1813, "pitch": 65, "duration": 5, "velocity": 100}, {"time": 1813, "pitch": 69, "duration": 5, "velocity": 97}, {"time": 1822, "pitch": 41, "duration": 2, "velocity": 93}, {"time": 1825, "pitch": 34, "duration": 3, "velocity": 95}, {"time": 1825, "pitch": 46, "duration": 15, "velocity": 83}, {"time": 1825, "pitch": 58, "duration": 10, "velocity": 122}, {"time": 1825, "pitch": 62, "duration": 9, "velocity": 96}, {"time": 1825, "pitch": 65, "duration": 8, "velocity": 88}, {"time": 1831, "pitch": 34, "duration": 10, "velocity": 97}, {"time": 1831, "pitch": 50, "duration": 7, "velocity": 34}, {"time": 1837, "pitch": 58, "duration": 7, "velocity": 122}, {"time": 1837, "pitch": 62, "duration": 7, "velocity": 99}, {"time": 1837, "pitch": 65, "duration": 5, "velocity": 89}, {"time": 1843, "pitch": 34, "duration": 4, "velocity": 97}, {"time": 1843, "pitch": 45, "duration": 6, "velocity": 86}, {"time": 1849, "pitch": 43, "duration": 14, "velocity": 94}, {"time": 1849, "pitch": 55, "duration": 10, "velocity": 97}, {"time": 1849, "pitch": 58, "duration": 10, "velocity": 117}, {"time": 1849, "pitch": 62, "duration": 10, "velocity": 89}, {"time": 1855, "pitch": 50, "duration": 7, "velocity": 36}, {"time": 1861, "pitch": 55, "duration": 2, "velocity": 96}, {"time": 1861, "pitch": 58, "duration": 3, "velocity": 122}, {"time": 1861, "pitch": 62, "duration": 3, "velocity": 96}, {"time": 1870, "pitch": 43, "duration": 2, "velocity": 92}, {"time": 1873, "pitch": 36, "duration": 5, "velocity": 89}, {"time": 1873, "pitch": 48, "duration": 16, "velocity": 69}, {"time": 1873, "pitch": 60, "duration": 10, "velocity": 107}, {"time": 1873, "pitch": 64, "duration": 10, "velocity": 112}, {"time": 1873, "pitch": 67, "duration": 10, "velocity": 99}, {"time": 1879, "pitch": 36, "duration": 14, "velocity": 89}, {"time": 1879, "pitch": 55, "duration": 9, "velocity": 37}, {"time": 1885, "pitch": 60, "duration": 7, "velocity": 99}, {"time": 1885, "pitch": 64, "duration": 7, "velocity": 99}, {"time": 1885, "pitch": 67, "duration": 6, "velocity": 99}, {"time": 1894, "pitch": 36, "duration": 3, "velocity": 82}, {"time": 1897, "pitch": 45, "duration": 17, "velocity": 71}, {"time": 1897, "pitch": 57, "duration": 8, "velocity": 92}, {"time": 1897, "pitch": 60, "duration": 8, "velocity": 96}, {"time": 1897, "pitch": 64, "duration": 7, "velocity": 85}, {"time": 1897, "pitch": 67, "duration": 7, "velocity": 74}, {"time": 1903, "pitch": 52, "duration": 8, "velocity": 45}, {"time": 1909, "pitch": 57, "duration": 4, "velocity": 99}, {"time": 1909, "pitch": 60, "duration": 4, "velocity": 122}, {"time": 1909, "pitch": 64, "duration": 4, "velocity": 99}, {"time": 1909, "pitch": 67, "duration": 5, "velocity": 89}, {"time": 1915, "pitch": 45, "duration": 5, "velocity": 93}, {"time": 1915, "pitch": 52, "duration": 2, "velocity": 69}, {"time": 1921, "pitch": 38, "duration": 16, "velocity": 96}, {"time": 1921, "pitch": 50, "duration": 23, "velocity": 72}, {"time": 1921, "pitch": 62, "duration": 10, "velocity": 100}, {"time": 1921, "pitch": 65, "duration": 6, "velocity": 107}, {"time": 1921, "pitch": 69, "duration": 1, "velocity": 78}, {"time": 1927, "pitch": 57, "duration": 7, "velocity": 86}, {"time": 1933, "pitch": 64, "duration": 6, "velocity": 122}, {"time": 1936, "pitch": 57, "duration": 9, "velocity": 97}, {"time": 1939, "pitch": 38, "duration": 3, "velocity": 97}, {"time": 1939, "pitch": 65, "duration": 4, "velocity": 112}, {"time": 1942, "pitch": 41, "duration": 3, "velocity": 68}, {"time": 1942, "pitch": 64, "duration": 3, "velocity": 97}, {"time": 1945, "pitch": 43, "duration": 19, "velocity": 70}, {"time": 1945, "pitch": 55, "duration": 10, "velocity": 83}, {"time": 1945, "pitch": 58, "duration": 11, "velocity": 93}, {"time": 1945, "pitch": 62, "duration": 10, "velocity": 83}, {"time": 1951, "pitch": 50, "duration": 13, "velocity": 35}, {"time": 1957, "pitch": 55, "duration": 7, "velocity": 86}, {"time": 1957, "pitch": 58, "duration": 6, "velocity": 92}, {"time": 1957, "pitch": 62, "duration": 6, "velocity": 77}, {"time": 1963, "pitch": 43, "duration": 1, "velocity": 99}, {"time": 1969, "pitch": 36, "duration": 16, "velocity": 102}, {"time": 1969, "pitch": 48, "duration": 18, "velocity": 48}, {"time": 1969, "pitch": 55, "duration": 1, "velocity": 47}, {"time": 1969, "pitch": 60, "duration": 18, "velocity": 88}, {"time": 1969, "pitch": 64, "duration": 18, "velocity": 78}, {"time": 1987, "pitch": 36, "duration": 6, "velocity": 86}, {"time": 1993, "pitch": 38, "duration": 36, "velocity": 95}, {"time": 1993, "pitch": 50, "duration": 50, "velocity": 69}, {"time": 1993, "pitch": 62, "duration": 12, "velocity": 83}, {"time": 1993, "pitch": 65, "duration": 7, "velocity": 74}, {"time": 1993, "pitch": 69, "duration": 9, "velocity": 74}, {"time": 1999, "pitch": 57, "duration": 9, "velocity": 55}, {"time": 2005, "pitch": 64, "duration": 11, "velocity": 99}, {"time": 2011, "pitch": 57, "duration": 31, "velocity": 50}, {"time": 2017, "pitch": 62, "duration": 26, "velocity": 78}, {"time": 2017, "pitch": 64, "duration": 26, "velocity": 67}, {"time": 2017, "pitch": 65, "duration": 26, "velocity": 71}, {"time": 2017, "pitch": 69, "duration": 26, "velocity": 74}, {"time": 2041, "pitch": 50, "duration": 2, "velocity": 69}, {"time": 2041, "pitch": 62, "duration": 2, "velocity": 92}, {"time": 2041, "pitch": 65, "duration": 2, "velocity": 96}, {"time": 2041, "pitch": 69, "duration": 2, "velocity": 85}, {"time": 2047, "pitch": 57, "duration": 8, "velocity": 61}, {"time": 2053, "pitch": 64, "duration": 7, "velocity": 99}, {"time": 2059, "pitch": 57, "duration": 11, "velocity": 38}, {"time": 2065, "pitch": 62, "duration": 7, "velocity": 83}, {"time": 2065, "pitch": 65, "duration": 7, "velocity": 88}, {"time": 2065, "pitch": 69, "duration": 7, "velocity": 79}, {"time": 2071, "pitch": 57, "duration": 8, "velocity": 33}, {"time": 2077, "pitch": 62, "duration": 5, "velocity": 83}, {"time": 2077, "pitch": 65, "duration": 4, "velocity": 107}, {"time": 2077, "pitch": 69, "duration": 4, "velocity": 97}, {"time": 2089, "pitch": 46, "duration": 14, "velocity": 58}, {"time": 2089, "pitch": 58, "duration": 10, "velocity": 112}, {"time": 2089, "pitch": 62, "duration": 10, "velocity": 90}, {"time": 2089, "pitch": 65, "duration": 10, "velocity": 77}, {"time": 2101, "pitch": 58, "duration": 2, "velocity": 122}, {"time": 2101, "pitch": 62, "duration": 2, "velocity": 93}, {"time": 2101, "pitch": 65, "duration": 3, "velocity": 81}, {"time": 2113, "pitch": 50, "duration": 13, "velocity": 65}, {"time": 2113, "pitch": 62, "duration": 7, "velocity": 92}, {"time": 2113, "pitch": 65, "duration": 7, "velocity": 96}, {"time": 2113, "pitch": 69, "duration": 7, "velocity": 95}, {"time": 2119, "pitch": 57, "duration": 6, "velocity": 38}, {"time": 2122, "pitch": 69, "duration": 2, "velocity": 32}, {"time": 2125, "pitch": 65, "duration": 4, "velocity": 100}, {"time": 2125, "pitch": 69, "duration": 4, "velocity": 100}, {"time": 2131, "pitch": 48, "duration": 6, "velocity": 62}, {"time": 2137, "pitch": 46, "duration": 16, "velocity": 92}, {"time": 2137, "pitch": 58, "duration": 10, "velocity": 99}, {"time": 2137, "pitch": 62, "duration": 10, "velocity": 92}, {"time": 2137, "pitch": 65, "duration": 10, "velocity": 86}, {"time": 2149, "pitch": 58, "duration": 2, "velocity": 112}, {"time": 2149, "pitch": 62, "duration": 3, "velocity": 92}, {"time": 2149, "pitch": 65, "duration": 3, "velocity": 78}, {"time": 2155, "pitch": 46, "duration": 6, "velocity": 44}, {"time": 2161, "pitch": 50, "duration": 16, "velocity": 67}, {"time": 2161, "pitch": 62, "duration": 10, "velocity": 97}, {"time": 2161, "pitch": 65, "duration": 10, "velocity": 102}, {"time": 2161, "pitch": 69, "duration": 10, "velocity": 95}, {"time": 2173, "pitch": 62, "duration": 5, "velocity": 93}, {"time": 2173, "pitch": 65, "duration": 5, "velocity": 100}, {"time": 2173, "pitch": 69, "duration": 4, "velocity": 93}, {"time": 2179, "pitch": 50, "duration": 5, "velocity": 82}, {"time": 2185, "pitch": 43, "duration": 19, "velocity": 66}, {"time": 2185, "pitch": 55, "duration": 8, "velocity": 93}, {"time": 2185, "pitch": 58, "duration": 10, "velocity": 97}, {"time": 2185, "pitch": 62, "duration": 8, "velocity": 88}, {"time": 2191, "pitch": 50, "duration": 9, "velocity": 35}, {"time": 2197, "pitch": 55, "duration": 6, "velocity": 89}, {"time": 2197, "pitch": 58, "duration": 6, "velocity": 107}, {"time": 2197, "pitch": 62, "duration": 6, "velocity": 88}, {"time": 2203, "pitch": 50, "duration": 7, "velocity": 40}, {"time": 2209, "pitch": 45, "duration": 14, "velocity": 65}, {"time": 2209, "pitch": 57, "duration": 11, "velocity": 99}, {"time": 2209, "pitch": 61, "duration": 11, "velocity": 112}, {"time": 2209, "pitch": 64, "duration": 11, "velocity": 95}, {"time": 2221, "pitch": 57, "duration": 4, "velocity": 102}, {"time": 2221, "pitch": 61, "duration": 7, "velocity": 127}, {"time": 2221, "pitch": 64, "duration": 7, "velocity": 100}, {"time": 2221, "pitch": 67, "duration": 7, "velocity": 93}, {"time": 2224, "pitch": 45, "duration": 2, "velocity": 78}, {"time": 2227, "pitch": 57, "duration": 2, "velocity": 96}, {"time": 2233, "pitch": 50, "duration": 21, "velocity": 78}, {"time": 2233, "pitch": 62, "duration": 6, "velocity": 127}, {"time": 2233, "pitch": 65, "duration": 6, "velocity": 102}, {"time": 2233, "pitch": 69, "duration": 6, "velocity": 85}, {"time": 2239, "pitch": 57, "duration": 19, "velocity": 56}, {"time": 2245, "pitch": 62, "duration": 4, "velocity": 102}, {"time": 2245, "pitch": 65, "duration": 7, "velocity": 112}, {"time": 2245, "pitch": 69, "duration": 8, "velocity": 100}, {"time": 2251, "pitch": 62, "duration": 4, "velocity": 82}, {"time": 2257, "pitch": 50, "duration": 17, "velocity": 69}, {"time": 2257, "pitch": 62, "duration": 7, "velocity": 74}, {"time": 2257, "pitch": 64, "duration": 7, "velocity": 73}, {"time": 2257, "pitch": 65, "duration": 7, "velocity": 90}, {"time": 2257, "pitch": 69, "duration": 7, "velocity": 88}, {"time": 2263, "pitch": 57, "duration": 8, "velocity": 61}, {"time": 2269, "pitch": 62, "duration": 5, "velocity": 99}, {"time": 2269, "pitch": 65, "duration": 7, "velocity": 112}, {"time": 2269, "pitch": 69, "duration": 7, "velocity": 102}, {"time": 2272, "pitch": 57, "duration": 2, "velocity": 74}, {"time": 2275, "pitch": 64, "duration": 5, "velocity": 99}, {"time": 2281, "pitch": 41, "duration": 20, "velocity": 74}, {"time": 2281, "pitch": 60, "duration": 6, "velocity": 99}, {"time": 2281, "pitch": 65, "duration": 5, "velocity": 107}, {"time": 2281, "pitch": 69, "duration": 5, "velocity": 96}, {"time": 2287, "pitch": 48, "duration": 9, "velocity": 48}, {"time": 2293, "pitch": 53, "duration": 7, "velocity": 100}, {"time": 2293, "pitch": 57, "duration": 6, "velocity": 97}, {"time": 2293, "pitch": 60, "duration": 7, "velocity": 100}, {"time": 2299, "pitch": 48, "duration": 3, "velocity": 41}, {"time": 2305, "pitch": 46, "duration": 16, "velocity": 67}, {"time": 2305, "pitch": 58, "duration": 7, "velocity": 122}, {"time": 2305, "pitch": 62, "duration": 7, "velocity": 102}, {"time": 2305, "pitch": 65, "duration": 7, "velocity": 85}, {"time": 2311, "pitch": 50, "duration": 11, "velocity": 42}, {"time": 2317, "pitch": 58, "duration": 6, "velocity": 127}, {"time": 2317, "pitch": 62, "duration": 6, "velocity": 112}, {"time": 2317, "pitch": 65, "duration": 5, "velocity": 92}, {"time": 2320, "pitch": 53, "duration": 2, "velocity": 71}, {"time": 2323, "pitch": 57, "duration": 5, "velocity": 99}, {"time": 2326, "pitch": 62, "duration": 1, "velocity": 27}, {"time": 2329, "pitch": 43, "duration": 16, "velocity": 71}, {"time": 2329, "pitch": 55, "duration": 8, "velocity": 112}, {"time": 2329, "pitch": 58, "duration": 11, "velocity": 107}, {"time": 2329, "pitch": 62, "duration": 10, "velocity": 86}, {"time": 2335, "pitch": 50, "duration": 7, "velocity": 41}, {"time": 2341, "pitch": 58, "duration": 6, "velocity": 127}, {"time": 2341, "pitch": 62, "duration": 7, "velocity": 102}, {"time": 2344, "pitch": 50, "duration": 2, "velocity": 79}, {"time": 2347, "pitch": 55, "duration": 1, "velocity": 96}, {"time": 2353, "pitch": 48, "duration": 17, "velocity": 82}, {"time": 2353, "pitch": 55, "duration": 13, "velocity": 89}, {"time": 2353, "pitch": 60, "duration": 9, "velocity": 102}, {"time": 2353, "pitch": 64, "duration": 10, "velocity": 100}, {"time": 2353, "pitch": 67, "duration": 9, "velocity": 95}, {"time": 2365, "pitch": 64, "duration": 7, "velocity": 97}, {"time": 2365, "pitch": 67, "duration": 7, "velocity": 100}, {"time": 2371, "pitch": 60, "duration": 5, "velocity": 92}, {"time": 2377, "pitch": 38, "duration": 43, "velocity": 82}, {"time": 2377, "pitch": 62, "duration": 5, "velocity": 100}, {"time": 2377, "pitch": 65, "duration": 5, "velocity": 97}, {"time": 2383, "pitch": 45, "duration": 44, "velocity": 40}, {"time": 2389, "pitch": 52, "duration": 13, "velocity": 86}, {"time": 2395, "pitch": 50, "duration": 26, "velocity": 54}, {"time": 2401, "pitch": 53, "duration": 26, "velocity": 70}, {"time": 2401, "pitch": 57, "duration": 26, "velocity": 65}, {"time": 2425, "pitch": 38, "duration": 39, "velocity": 100}, {"time": 2425, "pitch": 50, "duration": 22, "velocity": 72}, {"time": 2425, "pitch": 62, "duration": 7, "velocity": 88}, {"time": 2425, "pitch": 65, "duration": 8, "velocity": 64}, {"time": 2425, "pitch": 69, "duration": 8, "velocity": 69}, {"time": 2425, "pitch": 74, "duration": 30, "velocity": 122}, {"time": 2431, "pitch": 57, "duration": 18, "velocity": 58}, {"time": 2437, "pitch": 62, "duration": 4, "velocity": 85}, {"time": 2437, "pitch": 64, "duration": 19, "velocity": 99}, {"time": 2437, "pitch": 65, "duration": 19, "velocity": 99}, {"time": 2437, "pitch": 69, "duration": 19, "velocity": 92}, {"time": 2443, "pitch": 62, "duration": 12, "velocity": 62}, {"time": 2449, "pitch": 50, "duration": 14, "velocity": 78}, {"time": 2455, "pitch": 57, "duration": 7, "velocity": 56}, {"time": 2461, "pitch": 65, "duration": 5, "velocity": 102}, {"time": 2461, "pitch": 69, "duration": 1, "velocity": 82}, {"time": 2464, "pitch": 64, "duration": 4, "velocity": 85}, {"time": 2467, "pitch": 38, "duration": 6, "velocity": 102}, {"time": 2467, "pitch": 62, "duration": 6, "velocity": 74}, {"time": 2473, "pitch": 36, "duration": 24, "velocity": 100}, {"time": 2473, "pitch": 48, "duration": 14, "velocity": 69}, {"time": 2473, "pitch": 64, "duration": 10, "velocity": 71}, {"time": 2473, "pitch": 67, "duration": 10, "velocity": 63}, {"time": 2479, "pitch": 55, "duration": 8, "velocity": 44}, {"time": 2485, "pitch": 64, "duration": 11, "velocity": 85}, {"time": 2485, "pitch": 67, "duration": 5, "velocity": 79}, {"time": 2497, "pitch": 38, "duration": 16, "velocity": 102}, {"time": 2497, "pitch": 50, "duration": 15, "velocity": 68}, {"time": 2497, "pitch": 62, "duration": 7, "velocity": 77}, {"time": 2497, "pitch": 65, "duration": 7, "velocity": 83}, {"time": 2497, "pitch": 69, "duration": 7, "velocity": 76}, {"time": 2503, "pitch": 57, "duration": 7, "velocity": 54}, {"time": 2509, "pitch": 64, "duration": 3, "velocity": 112}, {"time": 2512, "pitch": 65, "duration": 4, "velocity": 83}, {"time": 2515, "pitch": 38, "duration": 3, "velocity": 107}, {"time": 2515, "pitch": 64, "duration": 4, "velocity": 100}, {"time": 2518, "pitch": 36, "duration": 3, "velocity": 88}, {"time": 2518, "pitch": 60, "duration": 4, "velocity": 75}, {"time": 2521, "pitch": 34, "duration": 16, "velocity": 112}, {"time": 2521, "pitch": 46, "duration": 19, "velocity": 90}, {"time": 2521, "pitch": 62, "duration": 7, "velocity": 100}, {"time": 2527, "pitch": 58, "duration": 2, "velocity": 64}, {"time": 2533, "pitch": 58, "duration": 8, "velocity": 112}, {"time": 2533, "pitch": 62, "duration": 10, "velocity": 88}, {"time": 2533, "pitch": 65, "duration": 6, "velocity": 72}, {"time": 2539, "pitch": 34, "duration": 5, "velocity": 117}, {"time": 2545, "pitch": 34, "duration": 16, "velocity": 93}, {"time": 2545, "pitch": 46, "duration": 14, "velocity": 63}, {"time": 2545, "pitch": 58, "duration": 10, "velocity": 102}, {"time": 2545, "pitch": 62, "duration": 10, "velocity": 86}, {"time": 2545, "pitch": 65, "duration": 6, "velocity": 73}, {"time": 2557, "pitch": 58, "duration": 7, "velocity": 127}, {"time": 2557, "pitch": 62, "duration": 7, "velocity": 100}, {"time": 2557, "pitch": 65, "duration": 6, "velocity": 90}, {"time": 2563, "pitch": 34, "duration": 5, "velocity": 96}, {"time": 2566, "pitch": 60, "duration": 1, "velocity": 40}, {"time": 2569, "pitch": 41, "duration": 16, "velocity": 97}, {"time": 2569, "pitch": 53, "duration": 7, "velocity": 99}, {"time": 2569, "pitch": 57, "duration": 11, "velocity": 97}, {"time": 2569, "pitch": 60, "duration": 11, "velocity": 96}, {"time": 2575, "pitch": 48, "duration": 7, "velocity": 43}, {"time": 2581, "pitch": 53, "duration": 2, "velocity": 78}, {"time": 2581, "pitch": 57, "duration": 2, "velocity": 90}, {"time": 2581, "pitch": 60, "duration": 3, "velocity": 85}, {"time": 2587, "pitch": 41, "duration": 3, "velocity": 95}, {"time": 2590, "pitch": 43, "duration": 3, "velocity": 88}, {"time": 2593, "pitch": 45, "duration": 16, "velocity": 99}, {"time": 2593, "pitch": 52, "duration": 14, "velocity": 63}, {"time": 2593, "pitch": 57, "duration": 10, "velocity": 93}, {"time": 2593, "pitch": 61, "duration": 11, "velocity": 100}, {"time": 2593, "pitch": 64, "duration": 11, "velocity": 89}, {"time": 2605, "pitch": 57, "duration": 2, "velocity": 79}, {"time": 2605, "pitch": 61, "duration": 4, "velocity": 97}, {"time": 2605, "pitch": 64, "duration": 5, "velocity": 82}, {"time": 2611, "pitch": 41, "duration": 4, "velocity": 102}, {"time": 2614, "pitch": 40, "duration": 3, "velocity": 70}, {"time": 2617, "pitch": 38, "duration": 23, "velocity": 95}, {"time": 2617, "pitch": 50, "duration": 21, "velocity": 72}, {"time": 2617, "pitch": 62, "duration": 7, "velocity": 92}, {"time": 2617, "pitch": 65, "duration": 7, "velocity": 102}, {"time": 2617, "pitch": 69, "duration": 7, "velocity": 93}, {"time": 2623, "pitch": 57, "duration": 19, "velocity": 72}, {"time": 2629, "pitch": 65, "duration": 8, "velocity": 102}, {"time": 2629, "pitch": 69, "duration": 7, "velocity": 95}, {"time": 2635, "pitch": 62, "duration": 8, "velocity": 85}, {"time": 2641, "pitch": 38, "duration": 16, "velocity": 93}, {"time": 2641, "pitch": 50, "duration": 14, "velocity": 62}, {"time": 2641, "pitch": 65, "duration": 8, "velocity": 102}, {"time": 2641, "pitch": 69, "duration": 8, "velocity": 99}, {"time": 2647, "pitch": 57, "duration": 8, "velocity": 52}, {"time": 2653, "pitch": 65, "duration": 6, "velocity": 112}, {"time": 2653, "pitch": 69, "duration": 6, "velocity": 112}, {"time": 2659, "pitch": 38, "duration": 3, "velocity": 89}, {"time": 2659, "pitch": 62, "duration": 7, "velocity": 85}, {"time": 2662, "pitch": 40, "duration": 3, "velocity": 78}, {"time": 2665, "pitch": 41, "duration": 17, "velocity": 90}, {"time": 2665, "pitch": 65, "duration": 8, "velocity": 112}, {"time": 2665, "pitch": 69, "duration": 7, "velocity": 99}, {"time": 2671, "pitch": 60, "duration": 8, "velocity": 86}, {"time": 2677, "pitch": 48, "duration": 3, "velocity": 53}, {"time": 2677, "pitch": 65, "duration": 6, "velocity": 100}, {"time": 2677, "pitch": 69, "duration": 6, "velocity": 97}, {"time": 2683, "pitch": 41, "duration": 5, "velocity": 92}, {"time": 2683, "pitch": 60, "duration": 6, "velocity": 86}, {"time": 2689, "pitch": 36, "duration": 23, "velocity": 95}, {"time": 2689, "pitch": 48, "duration": 15, "velocity": 67}, {"time": 2689, "pitch": 64, "duration": 8, "velocity": 93}, {"time": 2689, "pitch": 67, "duration": 8, "velocity": 93}, {"time": 2695, "pitch": 55, "duration": 8, "velocity": 39}, {"time": 2695, "pitch": 60, "duration": 6, "velocity": 41}, {"time": 2701, "pitch": 64, "duration": 7, "velocity": 100}, {"time": 2701, "pitch": 67, "duration": 7, "velocity": 93}, {"time": 2707, "pitch": 60, "duration": 2, "velocity": 90}, {"time": 2713, "pitch": 43, "duration": 17, "velocity": 95}, {"time": 2713, "pitch": 58, "duration": 7, "velocity": 96}, {"time": 2713, "pitch": 62, "duration": 9, "velocity": 89}, {"time": 2719, "pitch": 50, "duration": 10, "velocity": 57}, {"time": 2719, "pitch": 55, "duration": 7, "velocity": 77}, {"time": 2725, "pitch": 58, "duration": 6, "velocity": 112}, {"time": 2725, "pitch": 62, "duration": 6, "velocity": 95}, {"time": 2731, "pitch": 43, "duration": 6, "velocity": 99}, {"time": 2731, "pitch": 50, "duration": 7, "velocity": 42}, {"time": 2737, "pitch": 45, "duration": 15, "velocity": 112}, {"time": 2737, "pitch": 60, "duration": 8, "velocity": 100}, {"time": 2737, "pitch": 64, "duration": 9, "velocity": 97}, {"time": 2743, "pitch": 52, "duration": 8, "velocity": 50}, {"time": 2743, "pitch": 57, "duration": 7, "velocity": 68}, {"time": 2749, "pitch": 60, "duration": 6, "velocity": 97}, {"time": 2749, "pitch": 64, "duration": 7, "velocity": 95}, {"time": 2755, "pitch": 41, "duration": 4, "velocity": 99}, {"time": 2755, "pitch": 57, "duration": 1, "velocity": 92}, {"time": 2758, "pitch": 40, "duration": 3, "velocity": 81}, {"time": 2761, "pitch": 38, "duration": 23, "velocity": 92}, {"time": 2761, "pitch": 50, "duration": 22, "velocity": 71}, {"time": 2761, "pitch": 65, "duration": 6, "velocity": 97}, {"time": 2761, "pitch": 69, "duration": 8, "velocity": 93}, {"time": 2767, "pitch": 57, "duration": 8, "velocity": 52}, {"time": 2767, "pitch": 64, "duration": 6, "velocity": 72}, {"time": 2773, "pitch": 65, "duration": 7, "velocity": 97}, {"time": 2773, "pitch": 69, "duration": 8, "velocity": 99}, {"time": 2776, "pitch": 57, "duration": 9, "velocity": 53}, {"time": 2779, "pitch": 64, "duration": 4, "velocity": 90}, {"time": 2785, "pitch": 38, "duration": 11, "velocity": 86}, {"time": 2785, "pitch": 50, "duration": 17, "velocity": 90}, {"time": 2785, "pitch": 62, "duration": 6, "velocity": 102}, {"time": 2785, "pitch": 65, "duration": 4, "velocity": 95}, {"time": 2785, "pitch": 69, "duration": 6, "velocity": 95}, {"time": 2788, "pitch": 65, "duration": 1, "velocity": 20}, {"time": 2791, "pitch": 57, "duration": 7, "velocity": 64}, {"time": 2797, "pitch": 41, "duration": 7, "velocity": 88}, {"time": 2797, "pitch": 64, "duration": 3, "velocity": 112}, {"time": 2797, "pitch": 76, "duration": 3, "velocity": 97}, {"time": 2800, "pitch": 57, "duration": 2, "velocity": 97}, {"time": 2803, "pitch": 40, "duration": 6, "velocity": 89}, {"time": 2803, "pitch": 65, "duration": 2, "velocity": 112}, {"time": 2810, "pitch": 38, "duration": 15, "velocity": 88}, {"time": 2810, "pitch": 50, "duration": 6, "velocity": 87}, {"time": 2810, "pitch": 62, "duration": 6, "velocity": 83}, {"time": 2810, "pitch": 65, "duration": 5, "velocity": 80}, {"time": 2810, "pitch": 69, "duration": 6, "velocity": 82}, {"time": 2818, "pitch": 50, "duration": 5, "velocity": 80}, {"time": 2822, "pitch": 62, "duration": 7, "velocity": 99}, {"time": 2822, "pitch": 65, "duration": 7, "velocity": 86}, {"time": 2822, "pitch": 69, "duration": 7, "velocity": 93}, {"time": 2824, "pitch": 57, "duration": 4, "velocity": 59}, {"time": 2828, "pitch": 50, "duration": 1, "velocity": 57}, {"time": 2830, "pitch": 38, "duration": 1, "velocity": 65}, {"time": 2834, "pitch": 38, "duration": 18, "velocity": 76}, {"time": 2834, "pitch": 50, "duration": 5, "velocity": 80}, {"time": 2834, "pitch": 65, "duration": 4, "velocity": 74}, {"time": 2834, "pitch": 69, "duration": 4, "velocity": 73}, {"time": 2834, "pitch": 62, "duration": 4, "velocity": 69}, {"time": 2843, "pitch": 57, "duration": 5, "velocity": 97}, {"time": 2843, "pitch": 62, "duration": 6, "velocity": 91}, {"time": 2843, "pitch": 65, "duration": 5, "velocity": 89}, {"time": 2843, "pitch": 69, "duration": 5, "velocity": 95}, {"time": 2849, "pitch": 50, "duration": 5, "velocity": 80}, {"time": 2851, "pitch": 69, "duration": 2, "velocity": 86}, {"time": 2852, "pitch": 57, "duration": 2, "velocity": 88}, {"time": 2852, "pitch": 62, "duration": 1, "velocity": 80}, {"time": 2852, "pitch": 65, "duration": 1, "velocity": 75}, {"time": 2854, "pitch": 38, "duration": 1, "velocity": 71}, {"time": 2858, "pitch": 34, "duration": 16, "velocity": 71}, {"time": 2858, "pitch": 46, "duration": 6, "velocity": 69}, {"time": 2858, "pitch": 53, "duration": 6, "velocity": 80}, {"time": 2858, "pitch": 58, "duration": 6, "velocity": 79}, {"time": 2858, "pitch": 62, "duration": 6, "velocity": 76}, {"time": 2858, "pitch": 65, "duration": 6, "velocity": 78}, {"time": 2867, "pitch": 46, "duration": 5, "velocity": 71}, {"time": 2870, "pitch": 58, "duration": 6, "velocity": 102}, {"time": 2870, "pitch": 65, "duration": 7, "velocity": 92}, {"time": 2870, "pitch": 62, "duration": 6, "velocity": 90}, {"time": 2873, "pitch": 53, "duration": 3, "velocity": 59}, {"time": 2876, "pitch": 46, "duration": 3, "velocity": 61}, {"time": 2878, "pitch": 34, "duration": 1, "velocity": 69}, {"time": 2882, "pitch": 38, "duration": 17, "velocity": 87}, {"time": 2882, "pitch": 50, "duration": 6, "velocity": 85}, {"time": 2891, "pitch": 50, "duration": 4, "velocity": 67}, {"time": 2894, "pitch": 65, "duration": 4, "velocity": 89}, {"time": 2894, "pitch": 69, "duration": 4, "velocity": 93}, {"time": 2894, "pitch": 62, "duration": 4, "velocity": 92}, {"time": 2897, "pitch": 57, "duration": 1, "velocity": 64}, {"time": 2900, "pitch": 50, "duration": 1, "velocity": 80}, {"time": 2906, "pitch": 34, "duration": 15, "velocity": 81}, {"time": 2906, "pitch": 46, "duration": 7, "velocity": 81}, {"time": 2906, "pitch": 53, "duration": 6, "velocity": 65}, {"time": 2906, "pitch": 58, "duration": 6, "velocity": 71}, {"time": 2906, "pitch": 62, "duration": 6, "velocity": 72}, {"time": 2906, "pitch": 65, "duration": 6, "velocity": 68}, {"time": 2915, "pitch": 46, "duration": 4, "velocity": 80}, {"time": 2918, "pitch": 58, "duration": 6, "velocity": 99}, {"time": 2918, "pitch": 62, "duration": 6, "velocity": 88}, {"time": 2918, "pitch": 65, "duration": 5, "velocity": 92}, {"time": 2918, "pitch": 53, "duration": 5, "velocity": 87}, {"time": 2921, "pitch": 46, "duration": 2, "velocity": 67}, {"time": 2924, "pitch": 34, "duration": 1, "velocity": 56}, {"time": 2927, "pitch": 46, "duration": 1, "velocity": 56}, {"time": 2927, "pitch": 34, "duration": 1, "velocity": 46}, {"time": 2930, "pitch": 58, "duration": 7, "velocity": 77}, {"time": 2930, "pitch": 65, "duration": 6, "velocity": 66}, {"time": 2930, "pitch": 46, "duration": 6, "velocity": 69}, {"time": 2930, "pitch": 34, "duration": 17, "velocity": 59}, {"time": 2930, "pitch": 62, "duration": 6, "velocity": 67}, {"time": 2938, "pitch": 46, "duration": 5, "velocity": 85}, {"time": 2942, "pitch": 58, "duration": 4, "velocity": 99}, {"time": 2942, "pitch": 62, "duration": 4, "velocity": 88}, {"time": 2942, "pitch": 65, "duration": 5, "velocity": 87}, {"time": 2944, "pitch": 53, "duration": 2, "velocity": 75}, {"time": 2947, "pitch": 46, "duration": 3, "velocity": 74}, {"time": 2950, "pitch": 34, "duration": 3, "velocity": 54}, {"time": 2954, "pitch": 43, "duration": 6, "velocity": 64}, {"time": 2954, "pitch": 67, "duration": 8, "velocity": 83}, {"time": 2954, "pitch": 55, "duration": 7, "velocity": 88}, {"time": 2954, "pitch": 58, "duration": 7, "velocity": 76}, {"time": 2954, "pitch": 62, "duration": 6, "velocity": 76}, {"time": 2954, "pitch": 31, "duration": 16, "velocity": 85}, {"time": 2963, "pitch": 43, "duration": 4, "velocity": 90}, {"time": 2966, "pitch": 55, "duration": 5, "velocity": 106}, {"time": 2966, "pitch": 62, "duration": 6, "velocity": 90}, {"time": 2966, "pitch": 67, "duration": 6, "velocity": 99}, {"time": 2966, "pitch": 58, "duration": 6, "velocity": 95}, {"time": 2968, "pitch": 43, "duration": 6, "velocity": 72}, {"time": 2972, "pitch": 31, "duration": 2, "velocity": 84}, {"time": 2978, "pitch": 45, "duration": 6, "velocity": 79}, {"time": 2978, "pitch": 33, "duration": 15, "velocity": 85}, {"time": 2978, "pitch": 69, "duration": 6, "velocity": 84}, {"time": 2978, "pitch": 57, "duration": 6, "velocity": 83}, {"time": 2978, "pitch": 60, "duration": 7, "velocity": 72}, {"time": 2978, "pitch": 64, "duration": 6, "velocity": 68}, {"time": 2987, "pitch": 45, "duration": 3, "velocity": 80}, {"time": 2990, "pitch": 60, "duration": 6, "velocity": 99}, {"time": 2990, "pitch": 69, "duration": 6, "velocity": 100}, {"time": 2990, "pitch": 57, "duration": 5, "velocity": 97}, {"time": 2990, "pitch": 64, "duration": 6, "velocity": 85}, {"time": 2992, "pitch": 45, "duration": 7, "velocity": 87}, {"time": 2996, "pitch": 33, "duration": 3, "velocity": 81}, {"time": 2998, "pitch": 38, "duration": 1, "velocity": 72}, {"time": 3001, "pitch": 50, "duration": 6, "velocity": 72}, {"time": 3002, "pitch": 38, "duration": 17, "velocity": 71}, {"time": 3002, "pitch": 65, "duration": 6, "velocity": 87}, {"time": 3002, "pitch": 57, "duration": 7, "velocity": 94}, {"time": 3002, "pitch": 69, "duration": 7, "velocity": 92}, {"time": 3002, "pitch": 62, "duration": 7, "velocity": 84}, {"time": 3011, "pitch": 50, "duration": 5, "velocity": 84}, {"time": 3014, "pitch": 65, "duration": 6, "velocity": 96}, {"time": 3014, "pitch": 69, "duration": 7, "velocity": 96}, {"time": 3014, "pitch": 62, "duration": 7, "velocity": 97}, {"time": 3017, "pitch": 57, "duration": 3, "velocity": 67}, {"time": 3020, "pitch": 50, "duration": 4, "velocity": 81}, {"time": 3022, "pitch": 38, "duration": 1, "velocity": 75}, {"time": 3026, "pitch": 38, "duration": 17, "velocity": 80}, {"time": 3026, "pitch": 50, "duration": 4, "velocity": 85}, {"time": 3026, "pitch": 62, "duration": 5, "velocity": 94}, {"time": 3026, "pitch": 65, "duration": 5, "velocity": 93}, {"time": 3026, "pitch": 69, "duration": 5, "velocity": 93}, {"time": 3026, "pitch": 57, "duration": 6, "velocity": 83}, {"time": 3032, "pitch": 50, "duration": 7, "velocity": 79}, {"time": 3038, "pitch": 62, "duration": 6, "velocity": 104}, {"time": 3038, "pitch": 65, "duration": 6, "velocity": 96}, {"time": 3038, "pitch": 69, "duration": 7, "velocity": 102}, {"time": 3041, "pitch": 57, "duration": 4, "velocity": 76}, {"time": 3043, "pitch": 50, "duration": 4, "velocity": 71}, {"time": 3046, "pitch": 38, "duration": 4, "velocity": 68}, {"time": 3049, "pitch": 60, "duration": 8, "velocity": 87}, {"time": 3049, "pitch": 69, "duration": 8, "velocity": 92}, {"time": 3049, "pitch": 41, "duration": 18, "velocity": 83}, {"time": 3049, "pitch": 57, "duration": 8, "velocity": 90}, {"time": 3049, "pitch": 65, "duration": 8, "velocity": 83}, {"time": 3058, "pitch": 53, "duration": 5, "velocity": 67}, {"time": 3061, "pitch": 60, "duration": 5, "velocity": 102}, {"time": 3061, "pitch": 65, "duration": 5, "velocity": 95}, {"time": 3061, "pitch": 69, "duration": 4, "velocity": 100}, {"time": 3064, "pitch": 57, "duration": 2, "velocity": 59}, {"time": 3067, "pitch": 53, "duration": 2, "velocity": 67}, {"time": 3070, "pitch": 41, "duration": 1, "velocity": 72}, {"time": 3073, "pitch": 58, "duration": 7, "velocity": 85}, {"time": 3074, "pitch": 53, "duration": 6, "velocity": 84}, {"time": 3074, "pitch": 65, "duration": 5, "velocity": 78}, {"time": 3074, "pitch": 46, "duration": 6, "velocity": 79}, {"time": 3074, "pitch": 34, "duration": 17, "velocity": 84}, {"time": 3074, "pitch": 62, "duration": 6, "velocity": 75}, {"time": 3083, "pitch": 46, "duration": 5, "velocity": 92}, {"time": 3086, "pitch": 65, "duration": 5, "velocity": 95}, {"time": 3086, "pitch": 58, "duration": 5, "velocity": 100}, {"time": 3086, "pitch": 62, "duration": 5, "velocity": 90}, {"time": 3088, "pitch": 53, "duration": 3, "velocity": 81}, {"time": 3092, "pitch": 46, "duration": 3, "velocity": 79}, {"time": 3095, "pitch": 34, "duration": 1, "velocity": 72}, {"time": 3098, "pitch": 43, "duration": 6, "velocity": 75}, {"time": 3098, "pitch": 55, "duration": 7, "velocity": 95}, {"time": 3098, "pitch": 58, "duration": 7, "velocity": 84}, {"time": 3098, "pitch": 67, "duration": 6, "velocity": 90}, {"time": 3098, "pitch": 62, "duration": 6, "velocity": 79}, {"time": 3098, "pitch": 31, "duration": 19, "velocity": 79}, {"time": 3106, "pitch": 43, "duration": 5, "velocity": 72}, {"time": 3110, "pitch": 58, "duration": 7, "velocity": 104}, {"time": 3110, "pitch": 67, "duration": 6, "velocity": 100}, {"time": 3110, "pitch": 62, "duration": 6, "velocity": 92}, {"time": 3112, "pitch": 55, "duration": 4, "velocity": 85}, {"time": 3116, "pitch": 43, "duration": 1, "velocity": 79}, {"time": 3122, "pitch": 60, "duration": 5, "velocity": 87}, {"time": 3122, "pitch": 64, "duration": 5, "velocity": 84}, {"time": 3122, "pitch": 55, "duration": 5, "velocity": 87}, {"time": 3122, "pitch": 36, "duration": 15, "velocity": 89}, {"time": 3130, "pitch": 48, "duration": 5, "velocity": 79}, {"time": 3133, "pitch": 64, "duration": 6, "velocity": 104}, {"time": 3133, "pitch": 60, "duration": 6, "velocity": 102}, {"time": 3136, "pitch": 55, "duration": 2, "velocity": 63}, {"time": 3140, "pitch": 48, "duration": 4, "velocity": 76}, {"time": 3142, "pitch": 36, "duration": 3, "velocity": 55}, {"time": 3146, "pitch": 64, "duration": 7, "velocity": 79}, {"time": 3146, "pitch": 69, "duration": 7, "velocity": 92}, {"time": 3146, "pitch": 57, "duration": 8, "velocity": 87}, {"time": 3146, "pitch": 60, "duration": 8, "velocity": 84}, {"time": 3146, "pitch": 45, "duration": 7, "velocity": 85}, {"time": 3155, "pitch": 45, "duration": 5, "velocity": 95}, {"time": 3158, "pitch": 60, "duration": 6, "velocity": 104}, {"time": 3158, "pitch": 69, "duration": 6, "velocity": 104}, {"time": 3158, "pitch": 64, "duration": 6, "velocity": 94}, {"time": 3160, "pitch": 57, "duration": 4, "velocity": 71}, {"time": 3163, "pitch": 45, "duration": 7, "velocity": 97}, {"time": 3169, "pitch": 38, "duration": 2, "velocity": 78}, {"time": 3169, "pitch": 50, "duration": 23, "velocity": 72}, {"time": 3169, "pitch": 62, "duration": 10, "velocity": 100}, {"time": 3169, "pitch": 65, "duration": 6, "velocity": 107}, {"time": 3169, "pitch": 69, "duration": 3, "velocity": 78}, {"time": 3172, "pitch": 38, "duration": 5, "velocity": 90}, {"time": 3175, "pitch": 57, "duration": 7, "velocity": 86}, {"time": 3181, "pitch": 38, "duration": 5, "velocity": 96}, {"time": 3181, "pitch": 64, "duration": 6, "velocity": 122}, {"time": 3184, "pitch": 57, "duration": 9, "velocity": 97}, {"time": 3187, "pitch": 40, "duration": 3, "velocity": 83}, {"time": 3187, "pitch": 65, "duration": 4, "velocity": 112}, {"time": 3190, "pitch": 41, "duration": 3, "velocity": 78}, {"time": 3190, "pitch": 64, "duration": 3, "velocity": 97}, {"time": 3193, "pitch": 38, "duration": 20, "velocity": 100}, {"time": 3193, "pitch": 50, "duration": 23, "velocity": 89}, {"time": 3193, "pitch": 62, "duration": 6, "velocity": 100}, {"time": 3193, "pitch": 65, "duration": 6, "velocity": 102}, {"time": 3193, "pitch": 69, "duration": 6, "velocity": 100}, {"time": 3199, "pitch": 57, "duration": 9, "velocity": 67}, {"time": 3205, "pitch": 69, "duration": 7, "velocity": 100}, {"time": 3205, "pitch": 74, "duration": 7, "velocity": 122}, {"time": 3205, "pitch": 77, "duration": 7, "velocity": 127}, {"time": 3211, "pitch": 57, "duration": 7, "velocity": 82}, {"time": 3214, "pitch": 38, "duration": 2, "velocity": 86}, {"time": 3217, "pitch": 50, "duration": 14, "velocity": 79}, {"time": 3217, "pitch": 69, "duration": 4, "velocity": 95}, {"time": 3217, "pitch": 74, "duration": 3, "velocity": 107}, {"time": 3217, "pitch": 77, "duration": 3, "velocity": 100}, {"time": 3220, "pitch": 38, "duration": 2, "velocity": 72}, {"time": 3223, "pitch": 38, "duration": 11, "velocity": 97}, {"time": 3223, "pitch": 57, "duration": 6, "velocity": 69}, {"time": 3229, "pitch": 62, "duration": 5, "velocity": 102}, {"time": 3229, "pitch": 65, "duration": 4, "velocity": 122}, {"time": 3229, "pitch": 69, "duration": 4, "velocity": 122}, {"time": 3235, "pitch": 38, "duration": 3, "velocity": 100}, {"time": 3235, "pitch": 48, "duration": 6, "velocity": 90}, {"time": 3238, "pitch": 36, "duration": 2, "velocity": 72}, {"time": 3241, "pitch": 34, "duration": 16, "velocity": 102}, {"time": 3241, "pitch": 46, "duration": 16, "velocity": 52}, {"time": 3241, "pitch": 58, "duration": 10, "velocity": 127}, {"time": 3241, "pitch": 62, "duration": 10, "velocity": 99}, {"time": 3241, "pitch": 65, "duration": 7, "velocity": 96}, {"time": 3253, "pitch": 58, "duration": 5, "velocity": 127}, {"time": 3253, "pitch": 62, "duration": 5, "velocity": 100}, {"time": 3253, "pitch": 65, "duration": 6, "velocity": 90}, {"time": 3259, "pitch": 34, "duration": 3, "velocity": 102}, {"time": 3259, "pitch": 46, "duration": 6, "velocity": 85}, {"time": 3262, "pitch": 36, "duration": 3, "velocity": 68}, {"time": 3265, "pitch": 38, "duration": 17, "velocity": 88}, {"time": 3265, "pitch": 50, "duration": 14, "velocity": 63}, {"time": 3265, "pitch": 62, "duration": 10, "velocity": 100}, {"time": 3265, "pitch": 65, "duration": 10, "velocity": 107}, {"time": 3265, "pitch": 69, "duration": 10, "velocity": 107}, {"time": 3277, "pitch": 65, "duration": 5, "velocity": 127}, {"time": 3277, "pitch": 69, "duration": 5, "velocity": 127}, {"time": 3280, "pitch": 50, "duration": 3, "velocity": 107}, {"time": 3283, "pitch": 38, "duration": 3, "velocity": 82}, {"time": 3283, "pitch": 48, "duration": 6, "velocity": 95}, {"time": 3286, "pitch": 36, "duration": 3, "velocity": 86}, {"time": 3289, "pitch": 34, "duration": 20, "velocity": 100}, {"time": 3289, "pitch": 46, "duration": 40, "velocity": 99}, {"time": 3289, "pitch": 58, "duration": 10, "velocity": 117}, {"time": 3289, "pitch": 62, "duration": 10, "velocity": 93}, {"time": 3289, "pitch": 65, "duration": 8, "velocity": 83}, {"time": 3301, "pitch": 58, "duration": 10, "velocity": 122}, {"time": 3301, "pitch": 62, "duration": 10, "velocity": 96}, {"time": 3301, "pitch": 65, "duration": 6, "velocity": 92}, {"time": 3310, "pitch": 34, "duration": 2, "velocity": 81}, {"time": 3313, "pitch": 34, "duration": 5, "velocity": 89}, {"time": 3313, "pitch": 58, "duration": 10, "velocity": 127}, {"time": 3313, "pitch": 62, "duration": 10, "velocity": 102}, {"time": 3313, "pitch": 65, "duration": 7, "velocity": 93}, {"time": 3319, "pitch": 34, "duration": 10, "velocity": 95}, {"time": 3325, "pitch": 58, "duration": 10, "velocity": 127}, {"time": 3325, "pitch": 62, "duration": 10, "velocity": 102}, {"time": 3325, "pitch": 65, "duration": 7, "velocity": 93}, {"time": 3331, "pitch": 34, "duration": 5, "velocity": 95}, {"time": 3331, "pitch": 46, "duration": 6, "velocity": 99}, {"time": 3337, "pitch": 43, "duration": 20, "velocity": 68}, {"time": 3337, "pitch": 43, "duration": 20, "velocity": 100}, {"time": 3337, "pitch": 55, "duration": 8, "velocity": 117}, {"time": 3337, "pitch": 58, "duration": 10, "velocity": 117}, {"time": 3337, "pitch": 62, "duration": 8, "velocity": 93}, {"time": 3343, "pitch": 50, "duration": 8, "velocity": 44}, {"time": 3349, "pitch": 55, "duration": 7, "velocity": 102}, {"time": 3349, "pitch": 58, "duration": 6, "velocity": 127}, {"time": 3349, "pitch": 62, "duration": 7, "velocity": 100}, {"time": 3355, "pitch": 50, "duration": 7, "velocity": 71}, {"time": 3358, "pitch": 43, "duration": 4, "velocity": 93}, {"time": 3361, "pitch": 45, "duration": 4, "velocity": 89}, {"time": 3361, "pitch": 57, "duration": 11, "velocity": 107}, {"time": 3361, "pitch": 60, "duration": 11, "velocity": 100}, {"time": 3361, "pitch": 64, "duration": 11, "velocity": 100}, {"time": 3367, "pitch": 45, "duration": 10, "velocity": 100}, {"time": 3367, "pitch": 52, "duration": 9, "velocity": 45}, {"time": 3373, "pitch": 57, "duration": 7, "velocity": 97}, {"time": 3373, "pitch": 60, "duration": 7, "velocity": 107}, {"time": 3373, "pitch": 64, "duration": 7, "velocity": 96}, {"time": 3379, "pitch": 41, "duration": 3, "velocity": 96}, {"time": 3379, "pitch": 52, "duration": 2, "velocity": 63}, {"time": 3382, "pitch": 40, "duration": 3, "velocity": 70}, {"time": 3385, "pitch": 38, "duration": 20, "velocity": 78}, {"time": 3385, "pitch": 50, "duration": 23, "velocity": 78}, {"time": 3385, "pitch": 62, "duration": 10, "velocity": 99}, {"time": 3385, "pitch": 65, "duration": 6, "velocity": 99}, {"time": 3385, "pitch": 69, "duration": 7, "velocity": 97}, {"time": 3391, "pitch": 57, "duration": 8, "velocity": 70}, {"time": 3397, "pitch": 65, "duration": 8, "velocity": 107}, {"time": 3397, "pitch": 69, "duration": 7, "velocity": 102}, {"time": 3403, "pitch": 57, "duration": 7, "velocity": 53}, {"time": 3406, "pitch": 38, "duration": 2, "velocity": 77}, {"time": 3409, "pitch": 38, "duration": 4, "velocity": 86}, {"time": 3409, "pitch": 50, "duration": 17, "velocity": 73}, {"time": 3409, "pitch": 62, "duration": 9, "velocity": 93}, {"time": 3409, "pitch": 65, "duration": 11, "velocity": 95}, {"time": 3409, "pitch": 69, "duration": 11, "velocity": 83}, {"time": 3415, "pitch": 38, "duration": 10, "velocity": 89}, {"time": 3415, "pitch": 57, "duration": 7, "velocity": 73}, {"time": 3421, "pitch": 62, "duration": 6, "velocity": 90}, {"time": 3421, "pitch": 65, "duration": 7, "velocity": 112}, {"time": 3421, "pitch": 69, "duration": 7, "velocity": 97}, {"time": 3424, "pitch": 57, "duration": 2, "velocity": 83}, {"time": 3427, "pitch": 38, "duration": 3, "velocity": 97}, {"time": 3427, "pitch": 64, "duration": 5, "velocity": 112}, {"time": 3430, "pitch": 36, "duration": 3, "velocity": 77}, {"time": 3433, "pitch": 41, "duration": 15, "velocity": 93}, {"time": 3433, "pitch": 60, "duration": 9, "velocity": 100}, {"time": 3433, "pitch": 65, "duration": 9, "velocity": 107}, {"time": 3433, "pitch": 69, "duration": 9, "velocity": 99}, {"time": 3445, "pitch": 60, "duration": 6, "velocity": 95}, {"time": 3445, "pitch": 65, "duration": 5, "velocity": 100}, {"time": 3445, "pitch": 69, "duration": 5, "velocity": 97}, {"time": 3454, "pitch": 41, "duration": 2, "velocity": 93}, {"time": 3457, "pitch": 34, "duration": 3, "velocity": 95}, {"time": 3457, "pitch": 46, "duration": 15, "velocity": 83}, {"time": 3457, "pitch": 58, "duration": 10, "velocity": 122}, {"time": 3457, "pitch": 62, "duration": 9, "velocity": 96}, {"time": 3457, "pitch": 65, "duration": 8, "velocity": 88}, {"time": 3463, "pitch": 34, "duration": 10, "velocity": 97}, {"time": 3463, "pitch": 50, "duration": 7, "velocity": 34}, {"time": 3469, "pitch": 58, "duration": 7, "velocity": 122}, {"time": 3469, "pitch": 62, "duration": 7, "velocity": 99}, {"time": 3469, "pitch": 65, "duration": 5, "velocity": 89}, {"time": 3475, "pitch": 34, "duration": 4, "velocity": 97}, {"time": 3475, "pitch": 45, "duration": 6, "velocity": 86}, {"time": 3481, "pitch": 43, "duration": 14, "velocity": 75}, {"time": 3481, "pitch": 55, "duration": 10, "velocity": 97}, {"time": 3481, "pitch": 58, "duration": 10, "velocity": 117}, {"time": 3481, "pitch": 62, "duration": 10, "velocity": 89}, {"time": 3487, "pitch": 50, "duration": 7, "velocity": 36}, {"time": 3493, "pitch": 55, "duration": 2, "velocity": 96}, {"time": 3493, "pitch": 58, "duration": 3, "velocity": 122}, {"time": 3493, "pitch": 62, "duration": 3, "velocity": 96}, {"time": 3502, "pitch": 43, "duration": 2, "velocity": 92}, {"time": 3505, "pitch": 36, "duration": 5, "velocity": 89}, {"time": 3505, "pitch": 48, "duration": 16, "velocity": 69}, {"time": 3505, "pitch": 60, "duration": 10, "velocity": 107}, {"time": 3505, "pitch": 64, "duration": 10, "velocity": 112}, {"time": 3505, "pitch": 67, "duration": 10, "velocity": 99}, {"time": 3511, "pitch": 36, "duration": 14, "velocity": 89}, {"time": 3511, "pitch": 55, "duration": 9, "velocity": 37}, {"time": 3517, "pitch": 60, "duration": 7, "velocity": 99}, {"time": 3517, "pitch": 64, "duration": 7, "velocity": 99}, {"time": 3517, "pitch": 67, "duration": 6, "velocity": 99}, {"time": 3526, "pitch": 36, "duration": 3, "velocity": 82}, {"time": 3529, "pitch": 45, "duration": 17, "velocity": 71}, {"time": 3529, "pitch": 57, "duration": 8, "velocity": 92}, {"time": 3529, "pitch": 60, "duration": 8, "velocity": 96}, {"time": 3529, "pitch": 64, "duration": 7, "velocity": 85}, {"time": 3529, "pitch": 67, "duration": 7, "velocity": 74}, {"time": 3535, "pitch": 52, "duration": 8, "velocity": 45}, {"time": 3541, "pitch": 57, "duration": 4, "velocity": 99}, {"time": 3541, "pitch": 60, "duration": 4, "velocity": 122}, {"time": 3541, "pitch": 64, "duration": 4, "velocity": 99}, {"time": 3541, "pitch": 67, "duration": 5, "velocity": 89}, {"time": 3547, "pitch": 45, "duration": 5, "velocity": 93}, {"time": 3547, "pitch": 52, "duration": 2, "velocity": 69}, {"time": 3553, "pitch": 38, "duration": 16, "velocity": 96}, {"time": 3553, "pitch": 50, "duration": 23, "velocity": 72}, {"time": 3553, "pitch": 62, "duration": 10, "velocity": 100}, {"time": 3553, "pitch": 65, "duration": 6, "velocity": 107}, {"time": 3553, "pitch": 69, "duration": 1, "velocity": 78}, {"time": 3559, "pitch": 57, "duration": 7, "velocity": 86}, {"time": 3565, "pitch": 64, "duration": 6, "velocity": 122}, {"time": 3568, "pitch": 57, "duration": 9, "velocity": 97}, {"time": 3571, "pitch": 38, "duration": 3, "velocity": 97}, {"time": 3571, "pitch": 65, "duration": 4, "velocity": 112}, {"time": 3574, "pitch": 41, "duration": 3, "velocity": 68}, {"time": 3574, "pitch": 64, "duration": 3, "velocity": 97}, {"time": 3577, "pitch": 43, "duration": 12, "velocity": 70}, {"time": 3577, "pitch": 55, "duration": 10, "velocity": 83}, {"time": 3577, "pitch": 58, "duration": 11, "velocity": 93}, {"time": 3577, "pitch": 62, "duration": 10, "velocity": 83}, {"time": 3583, "pitch": 50, "duration": 13, "velocity": 35}, {"time": 3589, "pitch": 55, "duration": 7, "velocity": 86}, {"time": 3589, "pitch": 58, "duration": 6, "velocity": 92}, {"time": 3589, "pitch": 62, "duration": 6, "velocity": 77}, {"time": 3595, "pitch": 43, "duration": 6, "velocity": 99}, {"time": 3601, "pitch": 36, "duration": 16, "velocity": 102}, {"time": 3601, "pitch": 48, "duration": 18, "velocity": 48}, {"time": 3601, "pitch": 55, "duration": 1, "velocity": 47}, {"time": 3601, "pitch": 60, "duration": 18, "velocity": 88}, {"time": 3601, "pitch": 64, "duration": 18, "velocity": 78}, {"time": 3619, "pitch": 36, "duration": 6, "velocity": 86}, {"time": 3625, "pitch": 38, "duration": 36, "velocity": 95}, {"time": 3625, "pitch": 50, "duration": 48, "velocity": 69}, {"time": 3625, "pitch": 62, "duration": 12, "velocity": 83}, {"time": 3625, "pitch": 65, "duration": 7, "velocity": 74}, {"time": 3625, "pitch": 69, "duration": 9, "velocity": 74}, {"time": 3631, "pitch": 57, "duration": 9, "velocity": 55}, {"time": 3637, "pitch": 64, "duration": 11, "velocity": 99}, {"time": 3643, "pitch": 57, "duration": 30, "velocity": 50}, {"time": 3649, "pitch": 62, "duration": 24, "velocity": 78}, {"time": 3649, "pitch": 64, "duration": 24, "velocity": 67}, {"time": 3649, "pitch": 65, "duration": 24, "velocity": 71}, {"time": 3649, "pitch": 69, "duration": 24, "velocity": 74}, {"time": 3674, "pitch": 43, "duration": 16, "velocity": 63}, {"time": 3674, "pitch": 58, "duration": 10, "velocity": 93}, {"time": 3674, "pitch": 55, "duration": 12, "velocity": 82}, {"time": 3674, "pitch": 62, "duration": 10, "velocity": 79}, {"time": 3679, "pitch": 50, "duration": 12, "velocity": 50}, {"time": 3686, "pitch": 58, "duration": 5, "velocity": 102}, {"time": 3686, "pitch": 62, "duration": 5, "velocity": 85}, {"time": 3697, "pitch": 64, "duration": 25, "velocity": 85}, {"time": 3697, "pitch": 48, "duration": 19, "velocity": 68}, {"time": 3697, "pitch": 60, "duration": 21, "velocity": 89}, {"time": 3697, "pitch": 67, "duration": 20, "velocity": 78}, {"time": 3703, "pitch": 55, "duration": 12, "velocity": 41}, {"time": 3721, "pitch": 38, "duration": 59, "velocity": 74}, {"time": 3727, "pitch": 45, "duration": 84, "velocity": 43}, {"time": 3734, "pitch": 50, "duration": 47, "velocity": 72}, {"time": 3740, "pitch": 52, "duration": 7, "velocity": 67}, {"time": 3746, "pitch": 53, "duration": 6, "velocity": 68}, {"time": 3752, "pitch": 57, "duration": 2, "velocity": 77}, {"time": 3760, "pitch": 64, "duration": 7, "velocity": 89}, {"time": 3768, "pitch": 65, "duration": 1, "velocity": 73}, {"time": 3782, "pitch": 38, "duration": 29, "velocity": 40}, {"time": 3783, "pitch": 62, "duration": 28, "velocity": 42}, {"time": 3783, "pitch": 50, "duration": 27, "velocity": 35}, {"time": 3783, "pitch": 65, "duration": 28, "velocity": 39}, {"time": 3784, "pitch": 69, "duration": 27, "velocity": 37}, {"time": 3786, "pitch": 74, "duration": 25, "velocity": 43}], "annotations": [{"time": 23, "annotation": {"number": 64, "value": 0}, "group": "control_change"}, {"time": 25, "annotation": {"number": 64, "value": 127}, "group": "control_change"}, {"time": 48, "annotation": {"number": 64, "value": 0}, "group": "control_change"}, {"time": 49, "annotation": {"number": 64, "value": 127}, "group": "control_change"}, {"time": 72, "annotation": {"number": 64, "value": 0}, "group": "control_change"}, {"time": 73, "annotation": {"number": 64, "value": 127}, "group": "control_change"}, {"time": 95, "annotation": {"number": 64, "value": 0}, "group": "control_change"}, {"time": 97, "annotation": {"number": 64, "value": 127}, "group": "control_change"}, {"time": 120, "annotation": {"number": 64, "value": 0}, "group": "control_change"}, {"time": 122, "annotation": {"number": 64, "value": 127}, "group": "control_change"}, {"time": 143, "annotation": {"number": 64, "value": 0}, "group": "control_change"}, {"time": 145, "annotation": {"number": 64, "value": 127}, "group": "control_change"}, {"time": 167, "annotation": {"number": 64, "value": 0}, "group": "control_change"}, {"time": 169, "annotation": {"number": 64, "value": 127}, "group": "control_change"}, {"time": 192, "annotation": {"number": 64, "value": 0}, "group": "control_change"}, {"time": 194, "annotation": {"number": 64, "value": 127}, "group": "control_change"}, {"time": 216, "annotation": {"number": 64, "value": 0}, "group": "control_change"}, {"time": 218, "annotation": {"number": 64, "value": 127}, "group": "control_change"}, {"time": 240, "annotation": {"number": 64, "value": 0}, "group": "control_change"}, {"time": 241, "annotation": {"number": 64, "value": 127}, "group": "control_change"}, {"time": 263, "annotation": {"number": 64, "value": 0}, "group": "control_change"}, {"time": 265, "annotation": {"number": 64, "value": 127}, "group": "control_change"}, {"time": 287, "annotation": {"number": 64, "value": 0}, "group": "control_change"}, {"time": 289, "annotation": {"number": 64, "value": 127}, "group": "control_change"}, {"time": 310, "annotation": {"number": 64, "value": 0}, "group": "control_change"}, {"time": 313, "annotation": {"number": 64, "value": 127}, "group": "control_change"}, {"time": 335, "annotation": {"number": 64, "value": 0}, "group": "control_change"}, {"time": 337, "annotation": {"number": 64, "value": 127}, "group": "control_change"}, {"time": 358, "annotation": {"number": 64, "value": 0}, "group": "control_change"}, {"time": 360, "annotation": {"number": 64, "value": 127}, "group": "control_change"}, {"time": 385, "annotation": {"number": 64, "value": 0}, "group": "control_change"}, {"time": 397, "annotation": {"number": 64, "value": 127}, "group": "control_change"}, {"time": 407, "annotation": {"number": 64, "value": 0}, "group": "control_change"}, {"time": 409, "annotation": {"number": 64, "value": 127}, "group": "control_change"}, {"time": 431, "annotation": {"number": 64, "value": 0}, "group": "control_change"}, {"time": 433, "annotation": {"number": 64, "value": 127}, "group": "control_change"}, {"time": 455, "annotation": {"number": 64, "value": 0}, "group": "control_change"}, {"time": 457, "annotation": {"number": 64, "value": 127}, "group": "control_change"}, {"time": 479, "annotation": {"number": 64, "value": 0}, "group": "control_change"}, {"time": 481, "annotation": {"number": 64, "value": 127}, "group": "control_change"}, {"time": 503, "annotation": {"number": 64, "value": 0}, "group": "control_change"}, {"time": 505, "annotation": {"number": 64, "value": 127}, "group": "control_change"}, {"time": 550, "annotation": {"number": 64, "value": 0}, "group": "control_change"}, {"time": 553, "annotation": {"number": 64, "value": 127}, "group": "control_change"}, {"time": 575, "annotation": {"number": 64, "value": 0}, "group": "control_change"}, {"time": 577, "annotation": {"number": 64, "value": 127}, "group": "control_change"}, {"time": 599, "annotation": {"number": 64, "value": 0}, "group": "control_change"}, {"time": 601, "annotation": {"number": 64, "value": 127}, "group": "control_change"}, {"time": 623, "annotation": {"number": 64, "value": 0}, "group": "control_change"}, {"time": 625, "annotation": {"number": 64, "value": 127}, "group": "control_change"}, {"time": 647, "annotation": {"number": 64, "value": 0}, "group": "control_change"}, {"time": 649, "annotation": {"number": 64, "value": 127}, "group": "control_change"}, {"time": 671, "annotation": {"number": 64, "value": 0}, "group": "control_change"}, {"time": 673, "annotation": {"number": 64, "value": 127}, "group": "control_change"}, {"time": 695, "annotation": {"number": 64, "value": 0}, "group": "control_change"}, {"time": 696, "annotation": {"number": 64, "value": 127}, "group": "control_change"}, {"time": 719, "annotation": {"number": 64, "value": 0}, "group": "control_change"}, {"time": 721, "annotation": {"number": 64, "value": 127}, "group": "control_change"}, {"time": 743, "annotation": {"number": 64, "value": 0}, "group": "control_change"}, {"time": 745, "annotation": {"number": 64, "value": 127}, "group": "control_change"}, {"time": 791, "annotation": {"number": 64, "value": 0}, "group": "control_change"}, {"time": 793, "annotation": {"number": 64, "value": 127}, "group": "control_change"}, {"time": 805, "annotation": {"number": 64, "value": 50}, "group": "control_change"}, {"time": 816, "annotation": {"number": 64, "value": 0}, "group": "control_change"}, {"time": 818, "annotation": {"number": 64, "value": 127}, "group": "control_change"}, {"time": 829, "annotation": {"number": 64, "value": 49}, "group": "control_change"}, {"time": 840, "annotation": {"number": 64, "value": 0}, "group": "control_change"}, {"time": 841, "annotation": {"number": 64, "value": 127}, "group": "control_change"}, {"time": 863, "annotation": {"number": 64, "value": 0}, "group": "control_change"}, {"time": 865, "annotation": {"number": 64, "value": 127}, "group": "control_change"}, {"time": 886, "annotation": {"number": 64, "value": 0}, "group": "control_change"}, {"time": 888, "annotation": {"number": 64, "value": 127}, "group": "control_change"}, {"time": 910, "annotation": {"number": 64, "value": 0}, "group": "control_change"}, {"time": 912, "annotation": {"number": 64, "value": 127}, "group": "control_change"}, {"time": 925, "annotation": {"number": 64, "value": 48}, "group": "control_change"}, {"time": 935, "annotation": {"number": 64, "value": 0}, "group": "control_change"}, {"time": 937, "annotation": {"number": 64, "value": 49}, "group": "control_change"}, {"time": 938, "annotation": {"number": 64, "value": 127}, "group": "control_change"}, {"time": 960, "annotation": {"number": 64, "value": 0}, "group": "control_change"}, {"time": 961, "annotation": {"number": 64, "value": 50}, "group": "control_change"}, {"time": 971, "annotation": {"number": 64, "value": 127}, "group": "control_change"}, {"time": 983, "annotation": {"number": 64, "value": 0}, "group": "control_change"}, {"time": 989, "annotation": {"number": 64, "value": 127}, "group": "control_change"}, {"time": 997, "annotation": {"number": 64, "value": 52}, "group": "control_change"}, {"time": 1006, "annotation": {"number": 64, "value": 0}, "group": "control_change"}, {"time": 1008, "annotation": {"number": 64, "value": 127}, "group": "control_change"}, {"time": 1009, "annotation": {"number": 64, "value": 53}, "group": "control_change"}, {"time": 1029, "annotation": {"number": 64, "value": 0}, "group": "control_change"}, {"time": 1032, "annotation": {"number": 64, "value": 127}, "group": "control_change"}, {"time": 1033, "annotation": {"number": 64, "value": 54}, "group": "control_change"}, {"time": 1042, "annotation": {"number": 64, "value": 0}, "group": "control_change"}, {"time": 1045, "annotation": {"number": 64, "value": 127}, "group": "control_change"}, {"time": 1045, "annotation": {"number": 64, "value": 55}, "group": "control_change"}, {"time": 1054, "annotation": {"number": 64, "value": 0}, "group": "control_change"}, {"time": 1057, "annotation": {"number": 64, "value": 127}, "group": "control_change"}, {"time": 1068, "annotation": {"number": 64, "value": 0}, "group": "control_change"}, {"time": 1068, "annotation": {"number": 64, "value": 127}, "group": "control_change"}, {"time": 1069, "annotation": {"number": 64, "value": 56}, "group": "control_change"}, {"time": 1079, "annotation": {"number": 64, "value": 0}, "group": "control_change"}, {"time": 1081, "annotation": {"number": 64, "value": 127}, "group": "control_change"}, {"time": 1102, "annotation": {"number": 64, "value": 0}, "group": "control_change"}, {"time": 1107, "annotation": {"number": 64, "value": 127}, "group": "control_change"}, {"time": 1127, "annotation": {"number": 64, "value": 0}, "group": "control_change"}, {"time": 1131, "annotation": {"number": 64, "value": 127}, "group": "control_change"}, {"time": 1141, "annotation": {"number": 64, "value": 57}, "group": "control_change"}, {"time": 1151, "annotation": {"number": 64, "value": 0}, "group": "control_change"}, {"time": 1154, "annotation": {"number": 64, "value": 127}, "group": "control_change"}, {"time": 1175, "annotation": {"number": 64, "value": 0}, "group": "control_change"}, {"time": 1178, "annotation": {"number": 64, "value": 71}, "group": "control_change"}, {"time": 1179, "annotation": {"number": 64, "value": 127}, "group": "control_change"}, {"time": 1202, "annotation": {"number": 64, "value": 71}, "group": "control_change"}, {"time": 1202, "annotation": {"number": 64, "value": 0}, "group": "control_change"}, {"time": 1205, "annotation": {"number": 64, "value": 71}, "group": "control_change"}, {"time": 1205, "annotation": {"number": 64, "value": 127}, "group": "control_change"}, {"time": 1226, "annotation": {"number": 64, "value": 71}, "group": "control_change"}, {"time": 1226, "annotation": {"number": 64, "value": 0}, "group": "control_change"}, {"time": 1229, "annotation": {"number": 64, "value": 71}, "group": "control_change"}, {"time": 1230, "annotation": {"number": 64, "value": 127}, "group": "control_change"}, {"time": 1250, "annotation": {"number": 64, "value": 71}, "group": "control_change"}, {"time": 1251, "annotation": {"number": 64, "value": 0}, "group": "control_change"}, {"time": 1253, "annotation": {"number": 64, "value": 71}, "group": "control_change"}, {"time": 1253, "annotation": {"number": 64, "value": 127}, "group": "control_change"}, {"time": 1274, "annotation": {"number": 64, "value": 71}, "group": "control_change"}, {"time": 1275, "annotation": {"number": 64, "value": 0}, "group": "control_change"}, {"time": 1278, "annotation": {"number": 64, "value": 71}, "group": "control_change"}, {"time": 1279, "annotation": {"number": 64, "value": 127}, "group": "control_change"}, {"time": 1298, "annotation": {"number": 64, "value": 71}, "group": "control_change"}, {"time": 1299, "annotation": {"number": 64, "value": 0}, "group": "control_change"}, {"time": 1302, "annotation": {"number": 64, "value": 71}, "group": "control_change"}, {"time": 1302, "annotation": {"number": 64, "value": 127}, "group": "control_change"}, {"time": 1322, "annotation": {"number": 64, "value": 71}, "group": "control_change"}, {"time": 1323, "annotation": {"number": 64, "value": 0}, "group": "control_change"}, {"time": 1326, "annotation": {"number": 64, "value": 71}, "group": "control_change"}, {"time": 1327, "annotation": {"number": 64, "value": 127}, "group": "control_change"}, {"time": 1346, "annotation": {"number": 64, "value": 71}, "group": "control_change"}, {"time": 1346, "annotation": {"number": 64, "value": 0}, "group": "control_change"}, {"time": 1350, "annotation": {"number": 64, "value": 71}, "group": "control_change"}, {"time": 1351, "annotation": {"number": 64, "value": 127}, "group": "control_change"}, {"time": 1370, "annotation": {"number": 64, "value": 71}, "group": "control_change"}, {"time": 1371, "annotation": {"number": 64, "value": 0}, "group": "control_change"}, {"time": 1373, "annotation": {"number": 64, "value": 71}, "group": "control_change"}, {"time": 1374, "annotation": {"number": 64, "value": 127}, "group": "control_change"}, {"time": 1394, "annotation": {"number": 64, "value": 71}, "group": "control_change"}, {"time": 1394, "annotation": {"number": 64, "value": 0}, "group": "control_change"}, {"time": 1396, "annotation": {"number": 64, "value": 71}, "group": "control_change"}, {"time": 1397, "annotation": {"number": 64, "value": 127}, "group": "control_change"}, {"time": 1398, "annotation": {"number": 64, "value": 71}, "group": "control_change"}, {"time": 1399, "annotation": {"number": 64, "value": 127}, "group": "control_change"}, {"time": 1418, "annotation": {"number": 64, "value": 71}, "group": "control_change"}, {"time": 1419, "annotation": {"number": 64, "value": 0}, "group": "control_change"}, {"time": 1422, "annotation": {"number": 64, "value": 71}, "group": "control_change"}, {"time": 1423, "annotation": {"number": 64, "value": 127}, "group": "control_change"}, {"time": 1442, "annotation": {"number": 64, "value": 71}, "group": "control_change"}, {"time": 1443, "annotation": {"number": 64, "value": 0}, "group": "control_change"}, {"time": 1446, "annotation": {"number": 64, "value": 71}, "group": "control_change"}, {"time": 1446, "annotation": {"number": 64, "value": 127}, "group": "control_change"}, {"time": 1466, "annotation": {"number": 64, "value": 71}, "group": "control_change"}, {"time": 1467, "annotation": {"number": 64, "value": 0}, "group": "control_change"}, {"time": 1469, "annotation": {"number": 64, "value": 71}, "group": "control_change"}, {"time": 1470, "annotation": {"number": 64, "value": 127}, "group": "control_change"}, {"time": 1490, "annotation": {"number": 64, "value": 71}, "group": "control_change"}, {"time": 1491, "annotation": {"number": 64, "value": 0}, "group": "control_change"}, {"time": 1494, "annotation": {"number": 64, "value": 71}, "group": "control_change"}, {"time": 1494, "annotation": {"number": 64, "value": 127}, "group": "control_change"}, {"time": 1508, "annotation": {"number": 64, "value": 71}, "group": "control_change"}, {"time": 1508, "annotation": {"number": 64, "value": 127}, "group": "control_change"}, {"time": 1514, "annotation": {"number": 64, "value": 71}, "group": "control_change"}, {"time": 1515, "annotation": {"number": 64, "value": 0}, "group": "control_change"}, {"time": 1518, "annotation": {"number": 64, "value": 71}, "group": "control_change"}, {"time": 1519, "annotation": {"number": 64, "value": 127}, "group": "control_change"}, {"time": 1521, "annotation": {"number": 64, "value": 71}, "group": "control_change"}, {"time": 1522, "annotation": {"number": 64, "value": 127}, "group": "control_change"}, {"time": 1530, "annotation": {"number": 64, "value": 71}, "group": "control_change"}, {"time": 1532, "annotation": {"number": 64, "value": 127}, "group": "control_change"}, {"time": 1539, "annotation": {"number": 64, "value": 71}, "group": "control_change"}, {"time": 1539, "annotation": {"number": 64, "value": 0}, "group": "control_change"}, {"time": 1542, "annotation": {"number": 64, "value": 71}, "group": "control_change"}, {"time": 1542, "annotation": {"number": 64, "value": 127}, "group": "control_change"}, {"time": 1560, "annotation": {"number": 64, "value": 0}, "group": "control_change"}, {"time": 1561, "annotation": {"number": 64, "value": 0}, "group": "control_change"}, {"time": 1563, "annotation": {"number": 64, "value": 51}, "group": "control_change"}, {"time": 1610, "annotation": {"number": 64, "value": 1}, "group": "control_change"}, {"time": 1616, "annotation": {"number": 64, "value": 127}, "group": "control_change"}, {"time": 1633, "annotation": {"number": 64, "value": 0}, "group": "control_change"}, {"time": 1638, "annotation": {"number": 64, "value": 123}, "group": "control_change"}, {"time": 1655, "annotation": {"number": 64, "value": 0}, "group": "control_change"}, {"time": 1657, "annotation": {"number": 64, "value": 127}, "group": "control_change"}, {"time": 1679, "annotation": {"number": 64, "value": 0}, "group": "control_change"}, {"time": 1680, "annotation": {"number": 64, "value": 127}, "group": "control_change"}, {"time": 1693, "annotation": {"number": 64, "value": 50}, "group": "control_change"}, {"time": 1703, "annotation": {"number": 64, "value": 0}, "group": "control_change"}, {"time": 1710, "annotation": {"number": 64, "value": 127}, "group": "control_change"}, {"time": 1726, "annotation": {"number": 64, "value": 0}, "group": "control_change"}, {"time": 1733, "annotation": {"number": 64, "value": 127}, "group": "control_change"}, {"time": 1751, "annotation": {"number": 64, "value": 0}, "group": "control_change"}, {"time": 1757, "annotation": {"number": 64, "value": 127}, "group": "control_change"}, {"time": 1765, "annotation": {"number": 64, "value": 52}, "group": "control_change"}, {"time": 1774, "annotation": {"number": 64, "value": 0}, "group": "control_change"}, {"time": 1776, "annotation": {"number": 64, "value": 127}, "group": "control_change"}, {"time": 1777, "annotation": {"number": 64, "value": 53}, "group": "control_change"}, {"time": 1798, "annotation": {"number": 64, "value": 0}, "group": "control_change"}, {"time": 1805, "annotation": {"number": 64, "value": 127}, "group": "control_change"}, {"time": 1823, "annotation": {"number": 64, "value": 0}, "group": "control_change"}, {"time": 1828, "annotation": {"number": 64, "value": 127}, "group": "control_change"}, {"time": 1837, "annotation": {"number": 64, "value": 54}, "group": "control_change"}, {"time": 1845, "annotation": {"number": 64, "value": 0}, "group": "control_change"}, {"time": 1853, "annotation": {"number": 64, "value": 127}, "group": "control_change"}, {"time": 1870, "annotation": {"number": 64, "value": 0}, "group": "control_change"}, {"time": 1876, "annotation": {"number": 64, "value": 127}, "group": "control_change"}, {"time": 1894, "annotation": {"number": 64, "value": 0}, "group": "control_change"}, {"time": 1901, "annotation": {"number": 64, "value": 127}, "group": "control_change"}, {"time": 1919, "annotation": {"number": 64, "value": 0}, "group": "control_change"}, {"time": 1925, "annotation": {"number": 64, "value": 127}, "group": "control_change"}, {"time": 1943, "annotation": {"number": 64, "value": 0}, "group": "control_change"}, {"time": 1945, "annotation": {"number": 64, "value": 127}, "group": "control_change"}, {"time": 1957, "annotation": {"number": 64, "value": 53}, "group": "control_change"}, {"time": 1969, "annotation": {"number": 64, "value": 0}, "group": "control_change"}, {"time": 1969, "annotation": {"number": 64, "value": 54}, "group": "control_change"}, {"time": 1982, "annotation": {"number": 64, "value": 127}, "group": "control_change"}, {"time": 1992, "annotation": {"number": 64, "value": 0}, "group": "control_change"}, {"time": 1994, "annotation": {"number": 64, "value": 127}, "group": "control_change"}, {"time": 2005, "annotation": {"number": 64, "value": 55}, "group": "control_change"}, {"time": 2017, "annotation": {"number": 64, "value": 56}, "group": "control_change"}, {"time": 2038, "annotation": {"number": 64, "value": 0}, "group": "control_change"}, {"time": 2039, "annotation": {"number": 64, "value": 127}, "group": "control_change"}, {"time": 2087, "annotation": {"number": 64, "value": 0}, "group": "control_change"}, {"time": 2089, "annotation": {"number": 64, "value": 127}, "group": "control_change"}, {"time": 2112, "annotation": {"number": 64, "value": 0}, "group": "control_change"}, {"time": 2113, "annotation": {"number": 64, "value": 127}, "group": "control_change"}, {"time": 2135, "annotation": {"number": 64, "value": 0}, "group": "control_change"}, {"time": 2137, "annotation": {"number": 64, "value": 127}, "group": "control_change"}, {"time": 2160, "annotation": {"number": 64, "value": 0}, "group": "control_change"}, {"time": 2162, "annotation": {"number": 64, "value": 127}, "group": "control_change"}, {"time": 2183, "annotation": {"number": 64, "value": 0}, "group": "control_change"}, {"time": 2185, "annotation": {"number": 64, "value": 127}, "group": "control_change"}, {"time": 2208, "annotation": {"number": 64, "value": 0}, "group": "control_change"}, {"time": 2209, "annotation": {"number": 64, "value": 127}, "group": "control_change"}, {"time": 2231, "annotation": {"number": 64, "value": 0}, "group": "control_change"}, {"time": 2234, "annotation": {"number": 64, "value": 127}, "group": "control_change"}, {"time": 2303, "annotation": {"number": 64, "value": 0}, "group": "control_change"}, {"time": 2305, "annotation": {"number": 64, "value": 127}, "group": "control_change"}, {"time": 2327, "annotation": {"number": 64, "value": 0}, "group": "control_change"}, {"time": 2329, "annotation": {"number": 64, "value": 127}, "group": "control_change"}, {"time": 2351, "annotation": {"number": 64, "value": 0}, "group": "control_change"}, {"time": 2356, "annotation": {"number": 64, "value": 127}, "group": "control_change"}, {"time": 2375, "annotation": {"number": 64, "value": 0}, "group": "control_change"}, {"time": 2377, "annotation": {"number": 64, "value": 127}, "group": "control_change"}, {"time": 2402, "annotation": {"number": 64, "value": 0}, "group": "control_change"}, {"time": 2413, "annotation": {"number": 64, "value": 127}, "group": "control_change"}, {"time": 2417, "annotation": {"number": 64, "value": 0}, "group": "control_change"}, {"time": 2437, "annotation": {"number": 64, "value": 50}, "group": "control_change"}, {"time": 2448, "annotation": {"number": 64, "value": 0}, "group": "control_change"}, {"time": 2450, "annotation": {"number": 64, "value": 127}, "group": "control_change"}, {"time": 2461, "annotation": {"number": 64, "value": 49}, "group": "control_change"}, {"time": 2472, "annotation": {"number": 64, "value": 0}, "group": "control_change"}, {"time": 2473, "annotation": {"number": 64, "value": 127}, "group": "control_change"}, {"time": 2495, "annotation": {"number": 64, "value": 0}, "group": "control_change"}, {"time": 2497, "annotation": {"number": 64, "value": 127}, "group": "control_change"}, {"time": 2518, "annotation": {"number": 64, "value": 0}, "group": "control_change"}, {"time": 2520, "annotation": {"number": 64, "value": 127}, "group": "control_change"}, {"time": 2542, "annotation": {"number": 64, "value": 0}, "group": "control_change"}, {"time": 2544, "annotation": {"number": 64, "value": 127}, "group": "control_change"}, {"time": 2557, "annotation": {"number": 64, "value": 48}, "group": "control_change"}, {"time": 2567, "annotation": {"number": 64, "value": 0}, "group": "control_change"}, {"time": 2569, "annotation": {"number": 64, "value": 49}, "group": "control_change"}, {"time": 2570, "annotation": {"number": 64, "value": 127}, "group": "control_change"}, {"time": 2592, "annotation": {"number": 64, "value": 0}, "group": "control_change"}, {"time": 2593, "annotation": {"number": 64, "value": 50}, "group": "control_change"}, {"time": 2603, "annotation": {"number": 64, "value": 127}, "group": "control_change"}, {"time": 2615, "annotation": {"number": 64, "value": 0}, "group": "control_change"}, {"time": 2617, "annotation": {"number": 64, "value": 127}, "group": "control_change"}, {"time": 2617, "annotation": {"number": 64, "value": 51}, "group": "control_change"}, {"time": 2629, "annotation": {"number": 64, "value": 52}, "group": "control_change"}, {"time": 2638, "annotation": {"number": 64, "value": 0}, "group": "control_change"}, {"time": 2640, "annotation": {"number": 64, "value": 127}, "group": "control_change"}, {"time": 2641, "annotation": {"number": 64, "value": 53}, "group": "control_change"}, {"time": 2661, "annotation": {"number": 64, "value": 0}, "group": "control_change"}, {"time": 2664, "annotation": {"number": 64, "value": 127}, "group": "control_change"}, {"time": 2665, "annotation": {"number": 64, "value": 54}, "group": "control_change"}, {"time": 2674, "annotation": {"number": 64, "value": 0}, "group": "control_change"}, {"time": 2677, "annotation": {"number": 64, "value": 127}, "group": "control_change"}, {"time": 2677, "annotation": {"number": 64, "value": 55}, "group": "control_change"}, {"time": 2686, "annotation": {"number": 64, "value": 0}, "group": "control_change"}, {"time": 2689, "annotation": {"number": 64, "value": 127}, "group": "control_change"}, {"time": 2700, "annotation": {"number": 64, "value": 0}, "group": "control_change"}, {"time": 2700, "annotation": {"number": 64, "value": 127}, "group": "control_change"}, {"time": 2701, "annotation": {"number": 64, "value": 56}, "group": "control_change"}, {"time": 2711, "annotation": {"number": 64, "value": 0}, "group": "control_change"}, {"time": 2713, "annotation": {"number": 64, "value": 127}, "group": "control_change"}, {"time": 2734, "annotation": {"number": 64, "value": 0}, "group": "control_change"}, {"time": 2736, "annotation": {"number": 64, "value": 127}, "group": "control_change"}, {"time": 2759, "annotation": {"number": 64, "value": 0}, "group": "control_change"}, {"time": 2761, "annotation": {"number": 64, "value": 127}, "group": "control_change"}, {"time": 2773, "annotation": {"number": 64, "value": 57}, "group": "control_change"}, {"time": 2783, "annotation": {"number": 64, "value": 0}, "group": "control_change"}, {"time": 2784, "annotation": {"number": 64, "value": 127}, "group": "control_change"}, {"time": 2807, "annotation": {"number": 64, "value": 0}, "group": "control_change"}, {"time": 2810, "annotation": {"number": 64, "value": 71}, "group": "control_change"}, {"time": 2810, "annotation": {"number": 64, "value": 127}, "group": "control_change"}, {"time": 2834, "annotation": {"number": 64, "value": 71}, "group": "control_change"}, {"time": 2834, "annotation": {"number": 64, "value": 0}, "group": "control_change"}, {"time": 2837, "annotation": {"number": 64, "value": 71}, "group": "control_change"}, {"time": 2837, "annotation": {"number": 64, "value": 127}, "group": "control_change"}, {"time": 2858, "annotation": {"number": 64, "value": 71}, "group": "control_change"}, {"time": 2858, "annotation": {"number": 64, "value": 0}, "group": "control_change"}, {"time": 2861, "annotation": {"number": 64, "value": 71}, "group": "control_change"}, {"time": 2862, "annotation": {"number": 64, "value": 127}, "group": "control_change"}, {"time": 2882, "annotation": {"number": 64, "value": 71}, "group": "control_change"}, {"time": 2883, "annotation": {"number": 64, "value": 0}, "group": "control_change"}, {"time": 2885, "annotation": {"number": 64, "value": 71}, "group": "control_change"}, {"time": 2885, "annotation": {"number": 64, "value": 127}, "group": "control_change"}, {"time": 2906, "annotation": {"number": 64, "value": 71}, "group": "control_change"}, {"time": 2907, "annotation": {"number": 64, "value": 0}, "group": "control_change"}, {"time": 2910, "annotation": {"number": 64, "value": 71}, "group": "control_change"}, {"time": 2911, "annotation": {"number": 64, "value": 127}, "group": "control_change"}, {"time": 2930, "annotation": {"number": 64, "value": 71}, "group": "control_change"}, {"time": 2931, "annotation": {"number": 64, "value": 0}, "group": "control_change"}, {"time": 2934, "annotation": {"number": 64, "value": 71}, "group": "control_change"}, {"time": 2934, "annotation": {"number": 64, "value": 127}, "group": "control_change"}, {"time": 2954, "annotation": {"number": 64, "value": 71}, "group": "control_change"}, {"time": 2955, "annotation": {"number": 64, "value": 0}, "group": "control_change"}, {"time": 2958, "annotation": {"number": 64, "value": 71}, "group": "control_change"}, {"time": 2959, "annotation": {"number": 64, "value": 127}, "group": "control_change"}, {"time": 2978, "annotation": {"number": 64, "value": 71}, "group": "control_change"}, {"time": 2978, "annotation": {"number": 64, "value": 0}, "group": "control_change"}, {"time": 2982, "annotation": {"number": 64, "value": 71}, "group": "control_change"}, {"time": 2983, "annotation": {"number": 64, "value": 127}, "group": "control_change"}, {"time": 3002, "annotation": {"number": 64, "value": 71}, "group": "control_change"}, {"time": 3003, "annotation": {"number": 64, "value": 0}, "group": "control_change"}, {"time": 3005, "annotation": {"number": 64, "value": 71}, "group": "control_change"}, {"time": 3006, "annotation": {"number": 64, "value": 127}, "group": "control_change"}, {"time": 3026, "annotation": {"number": 64, "value": 71}, "group": "control_change"}, {"time": 3026, "annotation": {"number": 64, "value": 0}, "group": "control_change"}, {"time": 3028, "annotation": {"number": 64, "value": 71}, "group": "control_change"}, {"time": 3029, "annotation": {"number": 64, "value": 127}, "group": "control_change"}, {"time": 3030, "annotation": {"number": 64, "value": 71}, "group": "control_change"}, {"time": 3031, "annotation": {"number": 64, "value": 127}, "group": "control_change"}, {"time": 3050, "annotation": {"number": 64, "value": 71}, "group": "control_change"}, {"time": 3051, "annotation": {"number": 64, "value": 0}, "group": "control_change"}, {"time": 3054, "annotation": {"number": 64, "value": 71}, "group": "control_change"}, {"time": 3055, "annotation": {"number": 64, "value": 127}, "group": "control_change"}, {"time": 3074, "annotation": {"number": 64, "value": 71}, "group": "control_change"}, {"time": 3075, "annotation": {"number": 64, "value": 0}, "group": "control_change"}, {"time": 3078, "annotation": {"number": 64, "value": 71}, "group": "control_change"}, {"time": 3078, "annotation": {"number": 64, "value": 127}, "group": "control_change"}, {"time": 3098, "annotation": {"number": 64, "value": 71}, "group": "control_change"}, {"time": 3099, "annotation": {"number": 64, "value": 0}, "group": "control_change"}, {"time": 3101, "annotation": {"number": 64, "value": 71}, "group": "control_change"}, {"time": 3102, "annotation": {"number": 64, "value": 127}, "group": "control_change"}, {"time": 3122, "annotation": {"number": 64, "value": 71}, "group": "control_change"}, {"time": 3123, "annotation": {"number": 64, "value": 0}, "group": "control_change"}, {"time": 3126, "annotation": {"number": 64, "value": 71}, "group": "control_change"}, {"time": 3126, "annotation": {"number": 64, "value": 127}, "group": "control_change"}, {"time": 3140, "annotation": {"number": 64, "value": 71}, "group": "control_change"}, {"time": 3140, "annotation": {"number": 64, "value": 127}, "group": "control_change"}, {"time": 3146, "annotation": {"number": 64, "value": 71}, "group": "control_change"}, {"time": 3147, "annotation": {"number": 64, "value": 0}, "group": "control_change"}, {"time": 3150, "annotation": {"number": 64, "value": 71}, "group": "control_change"}, {"time": 3151, "annotation": {"number": 64, "value": 127}, "group": "control_change"}, {"time": 3153, "annotation": {"number": 64, "value": 71}, "group": "control_change"}, {"time": 3154, "annotation": {"number": 64, "value": 127}, "group": "control_change"}, {"time": 3162, "annotation": {"number": 64, "value": 71}, "group": "control_change"}, {"time": 3164, "annotation": {"number": 64, "value": 127}, "group": "control_change"}, {"time": 3168, "annotation": {"number": 64, "value": 0}, "group": "control_change"}, {"time": 3171, "annotation": {"number": 64, "value": 127}, "group": "control_change"}, {"time": 3191, "annotation": {"number": 64, "value": 0}, "group": "control_change"}, {"time": 3197, "annotation": {"number": 64, "value": 51}, "group": "control_change"}, {"time": 3238, "annotation": {"number": 64, "value": 0}, "group": "control_change"}, {"time": 3244, "annotation": {"number": 64, "value": 127}, "group": "control_change"}, {"time": 3263, "annotation": {"number": 64, "value": 0}, "group": "control_change"}, {"time": 3268, "annotation": {"number": 64, "value": 127}, "group": "control_change"}, {"time": 3287, "annotation": {"number": 64, "value": 0}, "group": "control_change"}, {"time": 3292, "annotation": {"number": 64, "value": 127}, "group": "control_change"}, {"time": 3311, "annotation": {"number": 64, "value": 0}, "group": "control_change"}, {"time": 3312, "annotation": {"number": 64, "value": 127}, "group": "control_change"}, {"time": 3325, "annotation": {"number": 64, "value": 50}, "group": "control_change"}, {"time": 3335, "annotation": {"number": 64, "value": 0}, "group": "control_change"}, {"time": 3340, "annotation": {"number": 64, "value": 127}, "group": "control_change"}, {"time": 3358, "annotation": {"number": 64, "value": 0}, "group": "control_change"}, {"time": 3364, "annotation": {"number": 64, "value": 127}, "group": "control_change"}, {"time": 3365, "annotation": {"number": 64, "value": 51}, "group": "control_change"}, {"time": 3383, "annotation": {"number": 64, "value": 0}, "group": "control_change"}, {"time": 3385, "annotation": {"number": 64, "value": 127}, "group": "control_change"}, {"time": 3397, "annotation": {"number": 64, "value": 52}, "group": "control_change"}, {"time": 3406, "annotation": {"number": 64, "value": 0}, "group": "control_change"}, {"time": 3408, "annotation": {"number": 64, "value": 127}, "group": "control_change"}, {"time": 3409, "annotation": {"number": 64, "value": 53}, "group": "control_change"}, {"time": 3430, "annotation": {"number": 64, "value": 0}, "group": "control_change"}, {"time": 3436, "annotation": {"number": 64, "value": 127}, "group": "control_change"}, {"time": 3455, "annotation": {"number": 64, "value": 0}, "group": "control_change"}, {"time": 3457, "annotation": {"number": 64, "value": 127}, "group": "control_change"}, {"time": 3469, "annotation": {"number": 64, "value": 54}, "group": "control_change"}, {"time": 3477, "annotation": {"number": 64, "value": 0}, "group": "control_change"}, {"time": 3484, "annotation": {"number": 64, "value": 127}, "group": "control_change"}, {"time": 3502, "annotation": {"number": 64, "value": 0}, "group": "control_change"}, {"time": 3510, "annotation": {"number": 64, "value": 127}, "group": "control_change"}, {"time": 3526, "annotation": {"number": 64, "value": 0}, "group": "control_change"}, {"time": 3533, "annotation": {"number": 64, "value": 127}, "group": "control_change"}, {"time": 3551, "annotation": {"number": 64, "value": 0}, "group": "control_change"}, {"time": 3557, "annotation": {"number": 64, "value": 127}, "group": "control_change"}, {"time": 3575, "annotation": {"number": 64, "value": 0}, "group": "control_change"}, {"time": 3577, "annotation": {"number": 64, "value": 127}, "group": "control_change"}, {"time": 3589, "annotation": {"number": 64, "value": 53}, "group": "control_change"}, {"time": 3601, "annotation": {"number": 64, "value": 0}, "group": "control_change"}, {"time": 3601, "annotation": {"number": 64, "value": 54}, "group": "control_change"}, {"time": 3614, "annotation": {"number": 64, "value": 127}, "group": "control_change"}, {"time": 3624, "annotation": {"number": 64, "value": 0}, "group": "control_change"}, {"time": 3626, "annotation": {"number": 64, "value": 127}, "group": "control_change"}, {"time": 3637, "annotation": {"number": 64, "value": 55}, "group": "control_change"}, {"time": 3649, "annotation": {"number": 64, "value": 56}, "group": "control_change"}, {"time": 3667, "annotation": {"number": 64, "value": 127}, "group": "control_change"}, {"time": 3670, "annotation": {"number": 64, "value": 0}, "group": "control_change"}, {"time": 3671, "annotation": {"number": 64, "value": 127}, "group": "control_change"}, {"time": 3672, "annotation": {"number": 64, "value": 127}, "group": "control_change"}, {"time": 3674, "annotation": {"number": 64, "value": 0}, "group": "control_change"}, {"time": 3677, "annotation": {"number": 64, "value": 127}, "group": "control_change"}, {"time": 3686, "annotation": {"number": 64, "value": 0}, "group": "control_change"}, {"time": 3687, "annotation": {"number": 64, "value": 127}, "group": "control_change"}, {"time": 3697, "annotation": {"number": 64, "value": 0}, "group": "control_change"}, {"time": 3701, "annotation": {"number": 64, "value": 127}, "group": "control_change"}, {"time": 3720, "annotation": {"number": 64, "value": 0}, "group": "control_change"}, {"time": 3721, "annotation": {"number": 64, "value": 127}, "group": "control_change"}]}]}