{"metadata": {"schema_version": "0.2", "title": "None", "source_filename": "104.mid", "source_format": "midi"}, "resolution": 12, "tempos": [{"time": 0, "qpm": 61.40004379869791}], "time_signatures": [{"time": 0, "numerator": 1, "denominator": 4}], "tracks": [{"program": 4, "is_drum": false, "name": "MELODY", "notes": [{"time": 190, "pitch": 77, "duration": 1, "velocity": 107}, {"time": 193, "pitch": 77, "duration": 3, "velocity": 99}, {"time": 196, "pitch": 75, "duration": 3, "velocity": 97}, {"time": 199, "pitch": 73, "duration": 2, "velocity": 97}, {"time": 202, "pitch": 73, "duration": 7, "velocity": 117}, {"time": 208, "pitch": 73, "duration": 1, "velocity": 127}, {"time": 211, "pitch": 73, "duration": 1, "velocity": 117}, {"time": 214, "pitch": 73, "duration": 4, "velocity": 127}, {"time": 220, "pitch": 75, "duration": 2, "velocity": 127}, {"time": 223, "pitch": 77, "duration": 1, "velocity": 102}, {"time": 226, "pitch": 82, "duration": 2, "velocity": 127}, {"time": 229, "pitch": 80, "duration": 2, "velocity": 112}, {"time": 232, "pitch": 77, "duration": 3, "velocity": 90}, {"time": 235, "pitch": 80, "duration": 7, "velocity": 112}, {"time": 247, "pitch": 77, "duration": 3, "velocity": 96}, {"time": 250, "pitch": 85, "duration": 4, "velocity": 122}, {"time": 256, "pitch": 84, "duration": 3, "velocity": 102}, {"time": 259, "pitch": 82, "duration": 3, "velocity": 107}, {"time": 262, "pitch": 84, "duration": 4, "velocity": 112}, {"time": 268, "pitch": 82, "duration": 2, "velocity": 127}, {"time": 271, "pitch": 80, "duration": 1, "velocity": 93}, {"time": 274, "pitch": 82, "duration": 3, "velocity": 122}, {"time": 277, "pitch": 80, "duration": 2, "velocity": 97}, {"time": 280, "pitch": 77, "duration": 1, "velocity": 93}, {"time": 283, "pitch": 77, "duration": 6, "velocity": 102}, {"time": 298, "pitch": 75, "duration": 3, "velocity": 127}, {"time": 301, "pitch": 77, "duration": 2, "velocity": 82}, {"time": 304, "pitch": 75, "duration": 3, "velocity": 112}, {"time": 307, "pitch": 73, "duration": 3, "velocity": 102}, {"time": 310, "pitch": 73, "duration": 9, "velocity": 117}, {"time": 322, "pitch": 75, "duration": 2, "velocity": 127}, {"time": 325, "pitch": 77, "duration": 3, "velocity": 88}, {"time": 328, "pitch": 75, "duration": 3, "velocity": 112}, {"time": 331, "pitch": 73, "duration": 3, "velocity": 95}, {"time": 334, "pitch": 75, "duration": 8, "velocity": 112}, {"time": 346, "pitch": 75, "duration": 3, "velocity": 127}, {"time": 352, "pitch": 75, "duration": 2, "velocity": 127}, {"time": 355, "pitch": 73, "duration": 2, "velocity": 100}, {"time": 358, "pitch": 70, "duration": 3, "velocity": 102}, {"time": 361, "pitch": 80, "duration": 7, "velocity": 127}, {"time": 370, "pitch": 75, "duration": 11, "velocity": 127}, {"time": 382, "pitch": 75, "duration": 3, "velocity": 122}, {"time": 385, "pitch": 77, "duration": 3, "velocity": 90}, {"time": 388, "pitch": 75, "duration": 3, "velocity": 107}, {"time": 391, "pitch": 73, "duration": 1, "velocity": 96}, {"time": 394, "pitch": 73, "duration": 5, "velocity": 100}, {"time": 400, "pitch": 73, "duration": 1, "velocity": 112}, {"time": 403, "pitch": 73, "duration": 1, "velocity": 95}, {"time": 406, "pitch": 73, "duration": 3, "velocity": 112}, {"time": 412, "pitch": 75, "duration": 3, "velocity": 112}, {"time": 415, "pitch": 77, "duration": 2, "velocity": 96}, {"time": 418, "pitch": 82, "duration": 3, "velocity": 127}, {"time": 421, "pitch": 80, "duration": 3, "velocity": 112}, {"time": 424, "pitch": 77, "duration": 2, "velocity": 82}, {"time": 427, "pitch": 80, "duration": 5, "velocity": 122}, {"time": 439, "pitch": 77, "duration": 2, "velocity": 95}, {"time": 442, "pitch": 85, "duration": 4, "velocity": 112}, {"time": 448, "pitch": 84, "duration": 3, "velocity": 117}, {"time": 451, "pitch": 82, "duration": 2, "velocity": 117}, {"time": 454, "pitch": 84, "duration": 3, "velocity": 117}, {"time": 460, "pitch": 82, "duration": 3, "velocity": 127}, {"time": 463, "pitch": 80, "duration": 1, "velocity": 95}, {"time": 466, "pitch": 82, "duration": 3, "velocity": 122}, {"time": 469, "pitch": 80, "duration": 3, "velocity": 112}, {"time": 472, "pitch": 77, "duration": 1, "velocity": 89}, {"time": 475, "pitch": 77, "duration": 5, "velocity": 99}, {"time": 490, "pitch": 75, "duration": 2, "velocity": 122}, {"time": 493, "pitch": 77, "duration": 4, "velocity": 78}, {"time": 496, "pitch": 75, "duration": 4, "velocity": 112}, {"time": 499, "pitch": 73, "duration": 3, "velocity": 97}, {"time": 502, "pitch": 73, "duration": 8, "velocity": 122}, {"time": 514, "pitch": 75, "duration": 3, "velocity": 122}, {"time": 517, "pitch": 77, "duration": 2, "velocity": 78}, {"time": 520, "pitch": 75, "duration": 2, "velocity": 122}, {"time": 523, "pitch": 73, "duration": 1, "velocity": 92}, {"time": 526, "pitch": 75, "duration": 8, "velocity": 122}, {"time": 538, "pitch": 75, "duration": 3, "velocity": 122}, {"time": 544, "pitch": 75, "duration": 2, "velocity": 127}, {"time": 547, "pitch": 77, "duration": 2, "velocity": 97}, {"time": 550, "pitch": 75, "duration": 1, "velocity": 127}, {"time": 553, "pitch": 77, "duration": 1, "velocity": 99}, {"time": 556, "pitch": 75, "duration": 2, "velocity": 127}, {"time": 559, "pitch": 73, "duration": 3, "velocity": 100}, {"time": 562, "pitch": 75, "duration": 9, "velocity": 112}, {"time": 574, "pitch": 75, "duration": 2, "velocity": 127}, {"time": 577, "pitch": 73, "duration": 2, "velocity": 112}, {"time": 580, "pitch": 70, "duration": 3, "velocity": 96}, {"time": 583, "pitch": 75, "duration": 9, "velocity": 122}, {"time": 592, "pitch": 73, "duration": 25, "velocity": 122}, {"time": 631, "pitch": 77, "duration": 3, "velocity": 96}, {"time": 634, "pitch": 82, "duration": 4, "velocity": 127}, {"time": 640, "pitch": 82, "duration": 2, "velocity": 122}, {"time": 643, "pitch": 80, "duration": 1, "velocity": 96}, {"time": 646, "pitch": 82, "duration": 4, "velocity": 122}, {"time": 658, "pitch": 77, "duration": 4, "velocity": 127}, {"time": 664, "pitch": 77, "duration": 2, "velocity": 112}, {"time": 667, "pitch": 75, "duration": 1, "velocity": 127}, {"time": 670, "pitch": 77, "duration": 7, "velocity": 117}, {"time": 682, "pitch": 75, "duration": 3, "velocity": 117}, {"time": 688, "pitch": 75, "duration": 3, "velocity": 127}, {"time": 691, "pitch": 73, "duration": 3, "velocity": 122}, {"time": 694, "pitch": 70, "duration": 5, "velocity": 112}, {"time": 700, "pitch": 77, "duration": 4, "velocity": 122}, {"time": 706, "pitch": 75, "duration": 1, "velocity": 127}, {"time": 709, "pitch": 75, "duration": 3, "velocity": 127}, {"time": 715, "pitch": 73, "duration": 2, "velocity": 122}, {"time": 718, "pitch": 75, "duration": 4, "velocity": 117}, {"time": 724, "pitch": 77, "duration": 2, "velocity": 107}, {"time": 727, "pitch": 80, "duration": 2, "velocity": 112}, {"time": 730, "pitch": 82, "duration": 5, "velocity": 127}, {"time": 736, "pitch": 82, "duration": 2, "velocity": 127}, {"time": 739, "pitch": 80, "duration": 2, "velocity": 102}, {"time": 742, "pitch": 82, "duration": 3, "velocity": 127}, {"time": 751, "pitch": 85, "duration": 2, "velocity": 117}, {"time": 754, "pitch": 84, "duration": 4, "velocity": 122}, {"time": 760, "pitch": 80, "duration": 3, "velocity": 127}, {"time": 763, "pitch": 77, "duration": 3, "velocity": 95}, {"time": 766, "pitch": 80, "duration": 7, "velocity": 127}, {"time": 772, "pitch": 82, "duration": 3, "velocity": 127}, {"time": 775, "pitch": 85, "duration": 2, "velocity": 117}, {"time": 778, "pitch": 87, "duration": 4, "velocity": 122}, {"time": 784, "pitch": 87, "duration": 2, "velocity": 127}, {"time": 787, "pitch": 85, "duration": 3, "velocity": 127}, {"time": 790, "pitch": 82, "duration": 3, "velocity": 127}, {"time": 799, "pitch": 89, "duration": 3, "velocity": 122}, {"time": 802, "pitch": 87, "duration": 1, "velocity": 117}, {"time": 805, "pitch": 87, "duration": 1, "velocity": 127}, {"time": 808, "pitch": 87, "duration": 3, "velocity": 127}, {"time": 811, "pitch": 85, "duration": 2, "velocity": 100}, {"time": 814, "pitch": 82, "duration": 5, "velocity": 127}, {"time": 820, "pitch": 85, "duration": 4, "velocity": 127}, {"time": 826, "pitch": 87, "duration": 18, "velocity": 127}, {"time": 862, "pitch": 80, "duration": 3, "velocity": 127}, {"time": 865, "pitch": 82, "duration": 3, "velocity": 107}, {"time": 868, "pitch": 80, "duration": 2, "velocity": 99}, {"time": 871, "pitch": 82, "duration": 2, "velocity": 112}, {"time": 874, "pitch": 85, "duration": 6, "velocity": 117}, {"time": 880, "pitch": 85, "duration": 1, "velocity": 127}, {"time": 883, "pitch": 82, "duration": 2, "velocity": 100}, {"time": 886, "pitch": 85, "duration": 3, "velocity": 112}, {"time": 892, "pitch": 89, "duration": 1, "velocity": 127}, {"time": 895, "pitch": 89, "duration": 9, "velocity": 127}, {"time": 910, "pitch": 80, "duration": 2, "velocity": 112}, {"time": 913, "pitch": 82, "duration": 2, "velocity": 117}, {"time": 916, "pitch": 85, "duration": 2, "velocity": 122}, {"time": 919, "pitch": 82, "duration": 2, "velocity": 107}, {"time": 922, "pitch": 87, "duration": 5, "velocity": 112}, {"time": 928, "pitch": 87, "duration": 3, "velocity": 127}, {"time": 931, "pitch": 85, "duration": 2, "velocity": 117}, {"time": 934, "pitch": 82, "duration": 3, "velocity": 127}, {"time": 937, "pitch": 89, "duration": 9, "velocity": 112}, {"time": 946, "pitch": 87, "duration": 7, "velocity": 117}, {"time": 964, "pitch": 85, "duration": 2, "velocity": 127}, {"time": 967, "pitch": 87, "duration": 1, "velocity": 107}, {"time": 970, "pitch": 89, "duration": 3, "velocity": 112}, {"time": 976, "pitch": 89, "duration": 2, "velocity": 112}, {"time": 979, "pitch": 87, "duration": 4, "velocity": 127}, {"time": 985, "pitch": 85, "duration": 2, "velocity": 122}, {"time": 988, "pitch": 82, "duration": 2, "velocity": 127}, {"time": 991, "pitch": 80, "duration": 2, "velocity": 107}, {"time": 994, "pitch": 82, "duration": 4, "velocity": 127}, {"time": 1000, "pitch": 89, "duration": 5, "velocity": 112}, {"time": 1006, "pitch": 87, "duration": 5, "velocity": 127}, {"time": 1012, "pitch": 85, "duration": 5, "velocity": 122}, {"time": 1018, "pitch": 80, "duration": 6, "velocity": 122}, {"time": 1033, "pitch": 77, "duration": 3, "velocity": 85}, {"time": 1036, "pitch": 82, "duration": 3, "velocity": 127}, {"time": 1039, "pitch": 80, "duration": 6, "velocity": 107}, {"time": 1054, "pitch": 80, "duration": 3, "velocity": 127}, {"time": 1057, "pitch": 82, "duration": 3, "velocity": 107}, {"time": 1060, "pitch": 80, "duration": 2, "velocity": 99}, {"time": 1063, "pitch": 82, "duration": 2, "velocity": 112}, {"time": 1066, "pitch": 85, "duration": 6, "velocity": 117}, {"time": 1072, "pitch": 85, "duration": 1, "velocity": 127}, {"time": 1075, "pitch": 82, "duration": 2, "velocity": 100}, {"time": 1078, "pitch": 85, "duration": 3, "velocity": 112}, {"time": 1084, "pitch": 89, "duration": 1, "velocity": 127}, {"time": 1087, "pitch": 89, "duration": 9, "velocity": 127}, {"time": 1102, "pitch": 80, "duration": 2, "velocity": 112}, {"time": 1105, "pitch": 82, "duration": 2, "velocity": 117}, {"time": 1108, "pitch": 85, "duration": 2, "velocity": 122}, {"time": 1111, "pitch": 82, "duration": 2, "velocity": 107}, {"time": 1114, "pitch": 87, "duration": 5, "velocity": 112}, {"time": 1120, "pitch": 87, "duration": 3, "velocity": 127}, {"time": 1123, "pitch": 85, "duration": 2, "velocity": 117}, {"time": 1126, "pitch": 82, "duration": 3, "velocity": 127}, {"time": 1129, "pitch": 89, "duration": 9, "velocity": 112}, {"time": 1138, "pitch": 87, "duration": 7, "velocity": 117}, {"time": 1156, "pitch": 85, "duration": 2, "velocity": 127}, {"time": 1159, "pitch": 87, "duration": 1, "velocity": 107}, {"time": 1162, "pitch": 89, "duration": 3, "velocity": 112}, {"time": 1168, "pitch": 89, "duration": 2, "velocity": 112}, {"time": 1171, "pitch": 87, "duration": 4, "velocity": 127}, {"time": 1177, "pitch": 85, "duration": 2, "velocity": 122}, {"time": 1180, "pitch": 82, "duration": 2, "velocity": 127}, {"time": 1183, "pitch": 80, "duration": 2, "velocity": 107}, {"time": 1186, "pitch": 82, "duration": 4, "velocity": 127}, {"time": 1192, "pitch": 89, "duration": 5, "velocity": 112}, {"time": 1198, "pitch": 87, "duration": 5, "velocity": 127}, {"time": 1204, "pitch": 85, "duration": 5, "velocity": 122}, {"time": 1210, "pitch": 87, "duration": 23, "velocity": 127}, {"time": 1246, "pitch": 87, "duration": 2, "velocity": 122}, {"time": 1249, "pitch": 85, "duration": 3, "velocity": 107}, {"time": 1252, "pitch": 82, "duration": 2, "velocity": 96}, {"time": 1255, "pitch": 87, "duration": 9, "velocity": 122}, {"time": 1264, "pitch": 85, "duration": 32, "velocity": 127}, {"time": 1495, "pitch": 77, "duration": 3, "velocity": 96}, {"time": 1498, "pitch": 82, "duration": 4, "velocity": 127}, {"time": 1504, "pitch": 82, "duration": 2, "velocity": 122}, {"time": 1507, "pitch": 80, "duration": 1, "velocity": 96}, {"time": 1510, "pitch": 82, "duration": 4, "velocity": 122}, {"time": 1522, "pitch": 77, "duration": 4, "velocity": 127}, {"time": 1528, "pitch": 77, "duration": 2, "velocity": 112}, {"time": 1531, "pitch": 75, "duration": 1, "velocity": 127}, {"time": 1534, "pitch": 77, "duration": 7, "velocity": 117}, {"time": 1546, "pitch": 75, "duration": 3, "velocity": 117}, {"time": 1552, "pitch": 75, "duration": 3, "velocity": 127}, {"time": 1555, "pitch": 73, "duration": 3, "velocity": 122}, {"time": 1558, "pitch": 70, "duration": 5, "velocity": 112}, {"time": 1564, "pitch": 77, "duration": 4, "velocity": 122}, {"time": 1570, "pitch": 75, "duration": 1, "velocity": 127}, {"time": 1573, "pitch": 75, "duration": 3, "velocity": 127}, {"time": 1579, "pitch": 73, "duration": 2, "velocity": 122}, {"time": 1582, "pitch": 75, "duration": 4, "velocity": 117}, {"time": 1588, "pitch": 77, "duration": 2, "velocity": 107}, {"time": 1591, "pitch": 80, "duration": 2, "velocity": 112}, {"time": 1594, "pitch": 82, "duration": 5, "velocity": 127}, {"time": 1600, "pitch": 82, "duration": 2, "velocity": 127}, {"time": 1603, "pitch": 80, "duration": 2, "velocity": 102}, {"time": 1606, "pitch": 82, "duration": 3, "velocity": 127}, {"time": 1615, "pitch": 85, "duration": 2, "velocity": 117}, {"time": 1618, "pitch": 84, "duration": 4, "velocity": 122}, {"time": 1624, "pitch": 80, "duration": 3, "velocity": 127}, {"time": 1627, "pitch": 77, "duration": 3, "velocity": 95}, {"time": 1630, "pitch": 80, "duration": 7, "velocity": 127}, {"time": 1636, "pitch": 82, "duration": 3, "velocity": 127}, {"time": 1639, "pitch": 85, "duration": 2, "velocity": 117}, {"time": 1642, "pitch": 87, "duration": 4, "velocity": 122}, {"time": 1648, "pitch": 87, "duration": 2, "velocity": 127}, {"time": 1651, "pitch": 85, "duration": 3, "velocity": 127}, {"time": 1654, "pitch": 82, "duration": 3, "velocity": 127}, {"time": 1663, "pitch": 89, "duration": 3, "velocity": 122}, {"time": 1666, "pitch": 87, "duration": 1, "velocity": 117}, {"time": 1669, "pitch": 87, "duration": 1, "velocity": 127}, {"time": 1672, "pitch": 87, "duration": 3, "velocity": 127}, {"time": 1675, "pitch": 85, "duration": 2, "velocity": 100}, {"time": 1678, "pitch": 82, "duration": 5, "velocity": 127}, {"time": 1684, "pitch": 85, "duration": 4, "velocity": 127}, {"time": 1690, "pitch": 87, "duration": 18, "velocity": 127}, {"time": 1726, "pitch": 80, "duration": 3, "velocity": 127}, {"time": 1729, "pitch": 82, "duration": 3, "velocity": 107}, {"time": 1732, "pitch": 80, "duration": 2, "velocity": 99}, {"time": 1735, "pitch": 82, "duration": 2, "velocity": 112}, {"time": 1738, "pitch": 85, "duration": 6, "velocity": 117}, {"time": 1744, "pitch": 85, "duration": 1, "velocity": 127}, {"time": 1747, "pitch": 82, "duration": 2, "velocity": 100}, {"time": 1750, "pitch": 85, "duration": 3, "velocity": 112}, {"time": 1756, "pitch": 89, "duration": 1, "velocity": 127}, {"time": 1759, "pitch": 89, "duration": 9, "velocity": 127}, {"time": 1774, "pitch": 80, "duration": 2, "velocity": 112}, {"time": 1777, "pitch": 82, "duration": 2, "velocity": 117}, {"time": 1780, "pitch": 85, "duration": 2, "velocity": 122}, {"time": 1783, "pitch": 82, "duration": 2, "velocity": 107}, {"time": 1786, "pitch": 87, "duration": 5, "velocity": 112}, {"time": 1792, "pitch": 87, "duration": 3, "velocity": 127}, {"time": 1795, "pitch": 85, "duration": 2, "velocity": 117}, {"time": 1798, "pitch": 82, "duration": 3, "velocity": 127}, {"time": 1801, "pitch": 89, "duration": 9, "velocity": 112}, {"time": 1810, "pitch": 87, "duration": 7, "velocity": 117}, {"time": 1828, "pitch": 85, "duration": 2, "velocity": 127}, {"time": 1831, "pitch": 87, "duration": 1, "velocity": 107}, {"time": 1834, "pitch": 89, "duration": 3, "velocity": 112}, {"time": 1840, "pitch": 89, "duration": 2, "velocity": 112}, {"time": 1843, "pitch": 87, "duration": 4, "velocity": 127}, {"time": 1849, "pitch": 85, "duration": 2, "velocity": 122}, {"time": 1852, "pitch": 82, "duration": 2, "velocity": 127}, {"time": 1855, "pitch": 80, "duration": 2, "velocity": 107}, {"time": 1858, "pitch": 82, "duration": 4, "velocity": 127}, {"time": 1864, "pitch": 89, "duration": 5, "velocity": 112}, {"time": 1870, "pitch": 87, "duration": 5, "velocity": 127}, {"time": 1876, "pitch": 85, "duration": 5, "velocity": 122}, {"time": 1882, "pitch": 80, "duration": 6, "velocity": 122}, {"time": 1897, "pitch": 77, "duration": 3, "velocity": 85}, {"time": 1900, "pitch": 82, "duration": 3, "velocity": 127}, {"time": 1903, "pitch": 80, "duration": 6, "velocity": 107}, {"time": 1918, "pitch": 80, "duration": 3, "velocity": 127}, {"time": 1921, "pitch": 82, "duration": 3, "velocity": 107}, {"time": 1924, "pitch": 80, "duration": 2, "velocity": 99}, {"time": 1927, "pitch": 82, "duration": 2, "velocity": 112}, {"time": 1930, "pitch": 85, "duration": 6, "velocity": 117}, {"time": 1936, "pitch": 85, "duration": 1, "velocity": 127}, {"time": 1939, "pitch": 82, "duration": 2, "velocity": 100}, {"time": 1942, "pitch": 85, "duration": 3, "velocity": 112}, {"time": 1948, "pitch": 89, "duration": 1, "velocity": 127}, {"time": 1951, "pitch": 89, "duration": 9, "velocity": 127}, {"time": 1966, "pitch": 80, "duration": 2, "velocity": 112}, {"time": 1969, "pitch": 82, "duration": 2, "velocity": 117}, {"time": 1972, "pitch": 85, "duration": 2, "velocity": 122}, {"time": 1975, "pitch": 82, "duration": 2, "velocity": 107}, {"time": 1978, "pitch": 87, "duration": 5, "velocity": 112}, {"time": 1984, "pitch": 87, "duration": 3, "velocity": 127}, {"time": 1987, "pitch": 85, "duration": 2, "velocity": 117}, {"time": 1990, "pitch": 82, "duration": 3, "velocity": 127}, {"time": 1993, "pitch": 89, "duration": 9, "velocity": 112}, {"time": 2002, "pitch": 87, "duration": 7, "velocity": 117}, {"time": 2020, "pitch": 85, "duration": 2, "velocity": 127}, {"time": 2023, "pitch": 87, "duration": 1, "velocity": 107}, {"time": 2026, "pitch": 89, "duration": 3, "velocity": 112}, {"time": 2032, "pitch": 89, "duration": 2, "velocity": 112}, {"time": 2035, "pitch": 87, "duration": 4, "velocity": 127}, {"time": 2041, "pitch": 85, "duration": 2, "velocity": 122}, {"time": 2044, "pitch": 82, "duration": 2, "velocity": 127}, {"time": 2047, "pitch": 80, "duration": 2, "velocity": 107}, {"time": 2050, "pitch": 82, "duration": 4, "velocity": 127}, {"time": 2056, "pitch": 89, "duration": 5, "velocity": 112}, {"time": 2062, "pitch": 87, "duration": 5, "velocity": 127}, {"time": 2068, "pitch": 85, "duration": 5, "velocity": 122}, {"time": 2074, "pitch": 87, "duration": 23, "velocity": 127}, {"time": 2110, "pitch": 87, "duration": 2, "velocity": 122}, {"time": 2113, "pitch": 85, "duration": 3, "velocity": 107}, {"time": 2116, "pitch": 82, "duration": 2, "velocity": 96}, {"time": 2119, "pitch": 87, "duration": 9, "velocity": 122}, {"time": 2128, "pitch": 85, "duration": 18, "velocity": 127}, {"time": 2158, "pitch": 80, "duration": 3, "velocity": 127}, {"time": 2161, "pitch": 82, "duration": 3, "velocity": 107}, {"time": 2164, "pitch": 80, "duration": 2, "velocity": 99}, {"time": 2167, "pitch": 82, "duration": 2, "velocity": 112}, {"time": 2170, "pitch": 85, "duration": 6, "velocity": 117}, {"time": 2176, "pitch": 85, "duration": 1, "velocity": 127}, {"time": 2179, "pitch": 82, "duration": 2, "velocity": 100}, {"time": 2182, "pitch": 85, "duration": 3, "velocity": 112}, {"time": 2188, "pitch": 89, "duration": 1, "velocity": 127}, {"time": 2191, "pitch": 89, "duration": 9, "velocity": 127}, {"time": 2206, "pitch": 80, "duration": 2, "velocity": 112}, {"time": 2209, "pitch": 82, "duration": 2, "velocity": 117}, {"time": 2212, "pitch": 85, "duration": 2, "velocity": 122}, {"time": 2215, "pitch": 82, "duration": 2, "velocity": 107}, {"time": 2218, "pitch": 87, "duration": 5, "velocity": 112}, {"time": 2224, "pitch": 87, "duration": 3, "velocity": 127}, {"time": 2227, "pitch": 85, "duration": 2, "velocity": 117}, {"time": 2230, "pitch": 82, "duration": 3, "velocity": 127}, {"time": 2233, "pitch": 89, "duration": 9, "velocity": 112}, {"time": 2242, "pitch": 87, "duration": 7, "velocity": 117}, {"time": 2260, "pitch": 85, "duration": 2, "velocity": 127}, {"time": 2263, "pitch": 87, "duration": 1, "velocity": 107}, {"time": 2266, "pitch": 89, "duration": 3, "velocity": 112}, {"time": 2272, "pitch": 89, "duration": 2, "velocity": 112}, {"time": 2275, "pitch": 87, "duration": 4, "velocity": 127}, {"time": 2281, "pitch": 85, "duration": 2, "velocity": 122}, {"time": 2284, "pitch": 82, "duration": 2, "velocity": 127}, {"time": 2287, "pitch": 80, "duration": 2, "velocity": 107}, {"time": 2290, "pitch": 82, "duration": 4, "velocity": 127}, {"time": 2296, "pitch": 89, "duration": 5, "velocity": 112}, {"time": 2302, "pitch": 87, "duration": 5, "velocity": 127}, {"time": 2308, "pitch": 85, "duration": 5, "velocity": 122}, {"time": 2314, "pitch": 80, "duration": 6, "velocity": 122}, {"time": 2329, "pitch": 77, "duration": 3, "velocity": 85}, {"time": 2332, "pitch": 82, "duration": 3, "velocity": 127}, {"time": 2335, "pitch": 80, "duration": 6, "velocity": 107}, {"time": 2350, "pitch": 80, "duration": 3, "velocity": 127}, {"time": 2353, "pitch": 82, "duration": 3, "velocity": 107}, {"time": 2356, "pitch": 80, "duration": 2, "velocity": 99}, {"time": 2359, "pitch": 82, "duration": 2, "velocity": 112}, {"time": 2362, "pitch": 85, "duration": 6, "velocity": 117}, {"time": 2368, "pitch": 85, "duration": 1, "velocity": 127}, {"time": 2371, "pitch": 82, "duration": 2, "velocity": 100}, {"time": 2374, "pitch": 85, "duration": 3, "velocity": 112}, {"time": 2380, "pitch": 89, "duration": 1, "velocity": 127}, {"time": 2383, "pitch": 89, "duration": 9, "velocity": 127}, {"time": 2398, "pitch": 80, "duration": 2, "velocity": 112}, {"time": 2401, "pitch": 82, "duration": 2, "velocity": 117}, {"time": 2404, "pitch": 85, "duration": 2, "velocity": 122}, {"time": 2407, "pitch": 82, "duration": 2, "velocity": 107}, {"time": 2410, "pitch": 87, "duration": 5, "velocity": 112}, {"time": 2416, "pitch": 87, "duration": 3, "velocity": 127}, {"time": 2419, "pitch": 85, "duration": 2, "velocity": 117}, {"time": 2422, "pitch": 82, "duration": 3, "velocity": 127}, {"time": 2425, "pitch": 89, "duration": 9, "velocity": 112}, {"time": 2434, "pitch": 87, "duration": 7, "velocity": 117}, {"time": 2452, "pitch": 85, "duration": 2, "velocity": 127}, {"time": 2455, "pitch": 87, "duration": 1, "velocity": 107}, {"time": 2458, "pitch": 89, "duration": 3, "velocity": 112}, {"time": 2464, "pitch": 89, "duration": 2, "velocity": 112}, {"time": 2467, "pitch": 87, "duration": 4, "velocity": 127}, {"time": 2473, "pitch": 85, "duration": 2, "velocity": 122}, {"time": 2476, "pitch": 82, "duration": 2, "velocity": 127}, {"time": 2479, "pitch": 80, "duration": 2, "velocity": 107}, {"time": 2482, "pitch": 82, "duration": 4, "velocity": 127}, {"time": 2488, "pitch": 89, "duration": 5, "velocity": 112}, {"time": 2494, "pitch": 87, "duration": 5, "velocity": 127}, {"time": 2500, "pitch": 85, "duration": 5, "velocity": 122}, {"time": 2506, "pitch": 87, "duration": 23, "velocity": 127}, {"time": 2542, "pitch": 87, "duration": 2, "velocity": 122}, {"time": 2545, "pitch": 85, "duration": 3, "velocity": 107}, {"time": 2548, "pitch": 82, "duration": 2, "velocity": 96}, {"time": 2551, "pitch": 87, "duration": 9, "velocity": 122}, {"time": 2560, "pitch": 85, "duration": 18, "velocity": 127}], "annotations": [{"time": 130, "annotation": {"number": 64, "value": 66}, "group": "control_change"}, {"time": 190, "annotation": {"number": 64, "value": 65}, "group": "control_change"}, {"time": 238, "annotation": {"number": 64, "value": 64}, "group": "control_change"}, {"time": 274, "annotation": {"number": 64, "value": 63}, "group": "control_change"}, {"time": 322, "annotation": {"number": 64, "value": 62}, "group": "control_change"}, {"time": 358, "annotation": {"number": 64, "value": 61}, "group": "control_change"}, {"time": 406, "annotation": {"number": 64, "value": 60}, "group": "control_change"}, {"time": 430, "annotation": {"number": 64, "value": 59}, "group": "control_change"}, {"time": 478, "annotation": {"number": 64, "value": 58}, "group": "control_change"}, {"time": 694, "annotation": {"number": 64, "value": 59}, "group": "control_change"}, {"time": 742, "annotation": {"number": 64, "value": 60}, "group": "control_change"}, {"time": 850, "annotation": {"number": 64, "value": 56}, "group": "control_change"}, {"time": 922, "annotation": {"number": 64, "value": 58}, "group": "control_change"}, {"time": 994, "annotation": {"number": 64, "value": 57}, "group": "control_change"}, {"time": 1066, "annotation": {"number": 64, "value": 56}, "group": "control_change"}, {"time": 1294, "annotation": {"number": 64, "value": 55}, "group": "control_change"}, {"time": 1390, "annotation": {"number": 64, "value": 54}, "group": "control_change"}, {"time": 1450, "annotation": {"number": 64, "value": 53}, "group": "control_change"}, {"time": 1486, "annotation": {"number": 64, "value": 57}, "group": "control_change"}, {"time": 1522, "annotation": {"number": 64, "value": 58}, "group": "control_change"}, {"time": 1558, "annotation": {"number": 64, "value": 59}, "group": "control_change"}, {"time": 1618, "annotation": {"number": 64, "value": 58}, "group": "control_change"}, {"time": 1714, "annotation": {"number": 64, "value": 57}, "group": "control_change"}, {"time": 1738, "annotation": {"number": 64, "value": 53}, "group": "control_change"}, {"time": 1750, "annotation": {"number": 64, "value": 54}, "group": "control_change"}, {"time": 1798, "annotation": {"number": 64, "value": 55}, "group": "control_change"}, {"time": 1834, "annotation": {"number": 64, "value": 57}, "group": "control_change"}, {"time": 1882, "annotation": {"number": 64, "value": 58}, "group": "control_change"}, {"time": 1906, "annotation": {"number": 64, "value": 60}, "group": "control_change"}, {"time": 1930, "annotation": {"number": 64, "value": 61}, "group": "control_change"}, {"time": 1978, "annotation": {"number": 64, "value": 63}, "group": "control_change"}, {"time": 2014, "annotation": {"number": 64, "value": 64}, "group": "control_change"}, {"time": 2050, "annotation": {"number": 64, "value": 65}, "group": "control_change"}, {"time": 2110, "annotation": {"number": 64, "value": 66}, "group": "control_change"}, {"time": 2206, "annotation": {"number": 64, "value": 65}, "group": "control_change"}, {"time": 2314, "annotation": {"number": 64, "value": 64}, "group": "control_change"}, {"time": 2410, "annotation": {"number": 64, "value": 63}, "group": "control_change"}, {"time": 2482, "annotation": {"number": 64, "value": 62}, "group": "control_change"}, {"time": 2530, "annotation": {"number": 64, "value": 61}, "group": "control_change"}]}, {"program": 0, "is_drum": false, "name": "PIANO", "notes": [{"time": 10, "pitch": 37, "duration": 43, "velocity": 78}, {"time": 13, "pitch": 49, "duration": 19, "velocity": 60}, {"time": 16, "pitch": 53, "duration": 29, "velocity": 40}, {"time": 19, "pitch": 56, "duration": 26, "velocity": 65}, {"time": 34, "pitch": 49, "duration": 23, "velocity": 37}, {"time": 46, "pitch": 56, "duration": 19, "velocity": 82}, {"time": 52, "pitch": 53, "duration": 9, "velocity": 47}, {"time": 58, "pitch": 37, "duration": 43, "velocity": 83}, {"time": 61, "pitch": 49, "duration": 34, "velocity": 86}, {"time": 64, "pitch": 53, "duration": 30, "velocity": 52}, {"time": 67, "pitch": 56, "duration": 25, "velocity": 74}, {"time": 94, "pitch": 56, "duration": 15, "velocity": 107}, {"time": 97, "pitch": 49, "duration": 9, "velocity": 37}, {"time": 100, "pitch": 53, "duration": 8, "velocity": 61}, {"time": 106, "pitch": 37, "duration": 44, "velocity": 90}, {"time": 109, "pitch": 49, "duration": 14, "velocity": 74}, {"time": 112, "pitch": 53, "duration": 30, "velocity": 55}, {"time": 115, "pitch": 56, "duration": 25, "velocity": 107}, {"time": 124, "pitch": 49, "duration": 19, "velocity": 52}, {"time": 130, "pitch": 61, "duration": 10, "velocity": 56}, {"time": 142, "pitch": 56, "duration": 16, "velocity": 97}, {"time": 142, "pitch": 61, "duration": 16, "velocity": 92}, {"time": 145, "pitch": 49, "duration": 9, "velocity": 63}, {"time": 148, "pitch": 53, "duration": 10, "velocity": 66}, {"time": 154, "pitch": 37, "duration": 23, "velocity": 76}, {"time": 157, "pitch": 49, "duration": 14, "velocity": 76}, {"time": 160, "pitch": 53, "duration": 17, "velocity": 59}, {"time": 163, "pitch": 56, "duration": 13, "velocity": 88}, {"time": 163, "pitch": 61, "duration": 13, "velocity": 89}, {"time": 172, "pitch": 49, "duration": 3, "velocity": 31}, {"time": 178, "pitch": 37, "duration": 8, "velocity": 71}, {"time": 178, "pitch": 49, "duration": 7, "velocity": 57}, {"time": 178, "pitch": 53, "duration": 8, "velocity": 61}, {"time": 178, "pitch": 56, "duration": 8, "velocity": 62}, {"time": 178, "pitch": 61, "duration": 8, "velocity": 56}, {"time": 202, "pitch": 49, "duration": 23, "velocity": 66}, {"time": 202, "pitch": 56, "duration": 10, "velocity": 86}, {"time": 202, "pitch": 61, "duration": 10, "velocity": 82}, {"time": 202, "pitch": 65, "duration": 7, "velocity": 72}, {"time": 214, "pitch": 56, "duration": 3, "velocity": 88}, {"time": 214, "pitch": 61, "duration": 4, "velocity": 65}, {"time": 214, "pitch": 65, "duration": 3, "velocity": 59}, {"time": 226, "pitch": 48, "duration": 14, "velocity": 59}, {"time": 226, "pitch": 60, "duration": 9, "velocity": 86}, {"time": 226, "pitch": 65, "duration": 10, "velocity": 88}, {"time": 226, "pitch": 68, "duration": 10, "velocity": 93}, {"time": 238, "pitch": 65, "duration": 3, "velocity": 95}, {"time": 238, "pitch": 68, "duration": 3, "velocity": 102}, {"time": 250, "pitch": 46, "duration": 17, "velocity": 67}, {"time": 250, "pitch": 58, "duration": 5, "velocity": 93}, {"time": 250, "pitch": 61, "duration": 7, "velocity": 95}, {"time": 250, "pitch": 65, "duration": 11, "velocity": 73}, {"time": 256, "pitch": 58, "duration": 7, "velocity": 37}, {"time": 262, "pitch": 61, "duration": 6, "velocity": 92}, {"time": 262, "pitch": 65, "duration": 6, "velocity": 76}, {"time": 274, "pitch": 44, "duration": 14, "velocity": 50}, {"time": 274, "pitch": 56, "duration": 11, "velocity": 85}, {"time": 274, "pitch": 60, "duration": 7, "velocity": 95}, {"time": 274, "pitch": 63, "duration": 7, "velocity": 75}, {"time": 286, "pitch": 63, "duration": 6, "velocity": 112}, {"time": 292, "pitch": 56, "duration": 1, "velocity": 75}, {"time": 298, "pitch": 42, "duration": 13, "velocity": 69}, {"time": 298, "pitch": 54, "duration": 9, "velocity": 89}, {"time": 298, "pitch": 58, "duration": 10, "velocity": 83}, {"time": 298, "pitch": 61, "duration": 7, "velocity": 89}, {"time": 310, "pitch": 54, "duration": 1, "velocity": 76}, {"time": 310, "pitch": 58, "duration": 2, "velocity": 96}, {"time": 310, "pitch": 61, "duration": 2, "velocity": 88}, {"time": 322, "pitch": 44, "duration": 14, "velocity": 66}, {"time": 322, "pitch": 56, "duration": 8, "velocity": 88}, {"time": 322, "pitch": 60, "duration": 5, "velocity": 99}, {"time": 322, "pitch": 63, "duration": 6, "velocity": 89}, {"time": 334, "pitch": 60, "duration": 1, "velocity": 102}, {"time": 334, "pitch": 63, "duration": 2, "velocity": 96}, {"time": 346, "pitch": 39, "duration": 14, "velocity": 89}, {"time": 346, "pitch": 54, "duration": 10, "velocity": 107}, {"time": 346, "pitch": 58, "duration": 7, "velocity": 92}, {"time": 352, "pitch": 51, "duration": 10, "velocity": 40}, {"time": 358, "pitch": 54, "duration": 1, "velocity": 112}, {"time": 358, "pitch": 58, "duration": 1, "velocity": 112}, {"time": 370, "pitch": 44, "duration": 13, "velocity": 73}, {"time": 370, "pitch": 56, "duration": 7, "velocity": 90}, {"time": 370, "pitch": 60, "duration": 6, "velocity": 96}, {"time": 370, "pitch": 63, "duration": 6, "velocity": 88}, {"time": 382, "pitch": 60, "duration": 6, "velocity": 107}, {"time": 382, "pitch": 63, "duration": 6, "velocity": 107}, {"time": 385, "pitch": 44, "duration": 1, "velocity": 89}, {"time": 388, "pitch": 56, "duration": 2, "velocity": 73}, {"time": 394, "pitch": 37, "duration": 18, "velocity": 88}, {"time": 394, "pitch": 56, "duration": 6, "velocity": 88}, {"time": 394, "pitch": 61, "duration": 7, "velocity": 81}, {"time": 394, "pitch": 65, "duration": 6, "velocity": 60}, {"time": 400, "pitch": 49, "duration": 8, "velocity": 41}, {"time": 406, "pitch": 56, "duration": 3, "velocity": 96}, {"time": 406, "pitch": 61, "duration": 5, "velocity": 95}, {"time": 406, "pitch": 65, "duration": 4, "velocity": 63}, {"time": 412, "pitch": 49, "duration": 5, "velocity": 55}, {"time": 418, "pitch": 48, "duration": 15, "velocity": 66}, {"time": 418, "pitch": 60, "duration": 10, "velocity": 88}, {"time": 418, "pitch": 65, "duration": 10, "velocity": 85}, {"time": 418, "pitch": 68, "duration": 10, "velocity": 89}, {"time": 430, "pitch": 60, "duration": 5, "velocity": 88}, {"time": 430, "pitch": 65, "duration": 4, "velocity": 96}, {"time": 430, "pitch": 68, "duration": 3, "velocity": 100}, {"time": 442, "pitch": 46, "duration": 19, "velocity": 71}, {"time": 442, "pitch": 58, "duration": 9, "velocity": 93}, {"time": 442, "pitch": 61, "duration": 9, "velocity": 100}, {"time": 442, "pitch": 65, "duration": 7, "velocity": 73}, {"time": 454, "pitch": 58, "duration": 1, "velocity": 61}, {"time": 454, "pitch": 61, "duration": 6, "velocity": 75}, {"time": 454, "pitch": 65, "duration": 6, "velocity": 83}, {"time": 460, "pitch": 58, "duration": 1, "velocity": 72}, {"time": 466, "pitch": 44, "duration": 14, "velocity": 78}, {"time": 466, "pitch": 56, "duration": 11, "velocity": 92}, {"time": 466, "pitch": 60, "duration": 7, "velocity": 88}, {"time": 466, "pitch": 63, "duration": 7, "velocity": 71}, {"time": 478, "pitch": 60, "duration": 6, "velocity": 93}, {"time": 478, "pitch": 63, "duration": 6, "velocity": 95}, {"time": 484, "pitch": 56, "duration": 6, "velocity": 83}, {"time": 490, "pitch": 42, "duration": 17, "velocity": 81}, {"time": 490, "pitch": 58, "duration": 7, "velocity": 96}, {"time": 490, "pitch": 61, "duration": 6, "velocity": 95}, {"time": 496, "pitch": 54, "duration": 4, "velocity": 43}, {"time": 502, "pitch": 54, "duration": 3, "velocity": 69}, {"time": 502, "pitch": 58, "duration": 4, "velocity": 102}, {"time": 502, "pitch": 61, "duration": 4, "velocity": 90}, {"time": 514, "pitch": 44, "duration": 15, "velocity": 49}, {"time": 514, "pitch": 51, "duration": 13, "velocity": 63}, {"time": 514, "pitch": 56, "duration": 7, "velocity": 90}, {"time": 514, "pitch": 60, "duration": 7, "velocity": 93}, {"time": 514, "pitch": 63, "duration": 7, "velocity": 78}, {"time": 526, "pitch": 56, "duration": 3, "velocity": 79}, {"time": 526, "pitch": 60, "duration": 3, "velocity": 89}, {"time": 526, "pitch": 63, "duration": 3, "velocity": 72}, {"time": 538, "pitch": 39, "duration": 15, "velocity": 82}, {"time": 538, "pitch": 51, "duration": 10, "velocity": 90}, {"time": 538, "pitch": 54, "duration": 10, "velocity": 85}, {"time": 538, "pitch": 58, "duration": 7, "velocity": 55}, {"time": 550, "pitch": 51, "duration": 3, "velocity": 86}, {"time": 550, "pitch": 54, "duration": 3, "velocity": 107}, {"time": 550, "pitch": 58, "duration": 3, "velocity": 83}, {"time": 562, "pitch": 44, "duration": 14, "velocity": 64}, {"time": 562, "pitch": 56, "duration": 7, "velocity": 92}, {"time": 562, "pitch": 60, "duration": 6, "velocity": 97}, {"time": 562, "pitch": 63, "duration": 6, "velocity": 85}, {"time": 574, "pitch": 56, "duration": 5, "velocity": 100}, {"time": 574, "pitch": 60, "duration": 4, "velocity": 127}, {"time": 574, "pitch": 63, "duration": 5, "velocity": 112}, {"time": 580, "pitch": 44, "duration": 4, "velocity": 75}, {"time": 586, "pitch": 49, "duration": 19, "velocity": 72}, {"time": 586, "pitch": 56, "duration": 10, "velocity": 93}, {"time": 586, "pitch": 61, "duration": 11, "velocity": 89}, {"time": 586, "pitch": 65, "duration": 6, "velocity": 76}, {"time": 598, "pitch": 56, "duration": 6, "velocity": 89}, {"time": 598, "pitch": 61, "duration": 6, "velocity": 71}, {"time": 598, "pitch": 65, "duration": 6, "velocity": 59}, {"time": 610, "pitch": 49, "duration": 4, "velocity": 88}, {"time": 610, "pitch": 56, "duration": 3, "velocity": 96}, {"time": 610, "pitch": 61, "duration": 3, "velocity": 97}, {"time": 610, "pitch": 65, "duration": 3, "velocity": 88}, {"time": 622, "pitch": 49, "duration": 4, "velocity": 96}, {"time": 622, "pitch": 61, "duration": 5, "velocity": 127}, {"time": 622, "pitch": 73, "duration": 4, "velocity": 100}, {"time": 634, "pitch": 46, "duration": 14, "velocity": 89}, {"time": 634, "pitch": 58, "duration": 7, "velocity": 127}, {"time": 634, "pitch": 61, "duration": 10, "velocity": 112}, {"time": 646, "pitch": 58, "duration": 6, "velocity": 127}, {"time": 646, "pitch": 61, "duration": 6, "velocity": 112}, {"time": 646, "pitch": 65, "duration": 6, "velocity": 88}, {"time": 652, "pitch": 46, "duration": 6, "velocity": 75}, {"time": 658, "pitch": 41, "duration": 16, "velocity": 45}, {"time": 658, "pitch": 53, "duration": 10, "velocity": 100}, {"time": 658, "pitch": 56, "duration": 11, "velocity": 102}, {"time": 658, "pitch": 60, "duration": 10, "velocity": 93}, {"time": 670, "pitch": 53, "duration": 5, "velocity": 92}, {"time": 670, "pitch": 56, "duration": 7, "velocity": 112}, {"time": 670, "pitch": 60, "duration": 4, "velocity": 93}, {"time": 676, "pitch": 41, "duration": 6, "velocity": 61}, {"time": 682, "pitch": 42, "duration": 14, "velocity": 89}, {"time": 682, "pitch": 54, "duration": 9, "velocity": 92}, {"time": 682, "pitch": 58, "duration": 10, "velocity": 112}, {"time": 682, "pitch": 61, "duration": 1, "velocity": 95}, {"time": 694, "pitch": 54, "duration": 4, "velocity": 97}, {"time": 694, "pitch": 58, "duration": 3, "velocity": 127}, {"time": 694, "pitch": 61, "duration": 4, "velocity": 102}, {"time": 706, "pitch": 44, "duration": 19, "velocity": 88}, {"time": 706, "pitch": 56, "duration": 8, "velocity": 97}, {"time": 706, "pitch": 60, "duration": 7, "velocity": 117}, {"time": 706, "pitch": 63, "duration": 7, "velocity": 102}, {"time": 712, "pitch": 48, "duration": 12, "velocity": 40}, {"time": 715, "pitch": 51, "duration": 5, "velocity": 56}, {"time": 718, "pitch": 56, "duration": 5, "velocity": 102}, {"time": 718, "pitch": 60, "duration": 4, "velocity": 127}, {"time": 718, "pitch": 63, "duration": 5, "velocity": 117}, {"time": 724, "pitch": 51, "duration": 3, "velocity": 99}, {"time": 730, "pitch": 46, "duration": 16, "velocity": 93}, {"time": 730, "pitch": 58, "duration": 5, "velocity": 127}, {"time": 730, "pitch": 61, "duration": 5, "velocity": 122}, {"time": 742, "pitch": 58, "duration": 6, "velocity": 127}, {"time": 742, "pitch": 61, "duration": 6, "velocity": 127}, {"time": 742, "pitch": 65, "duration": 5, "velocity": 96}, {"time": 748, "pitch": 46, "duration": 1, "velocity": 32}, {"time": 748, "pitch": 46, "duration": 1, "velocity": 107}, {"time": 754, "pitch": 41, "duration": 15, "velocity": 72}, {"time": 754, "pitch": 53, "duration": 8, "velocity": 99}, {"time": 754, "pitch": 56, "duration": 8, "velocity": 107}, {"time": 754, "pitch": 60, "duration": 8, "velocity": 90}, {"time": 760, "pitch": 48, "duration": 8, "velocity": 44}, {"time": 766, "pitch": 56, "duration": 9, "velocity": 127}, {"time": 766, "pitch": 60, "duration": 6, "velocity": 102}, {"time": 778, "pitch": 42, "duration": 23, "velocity": 93}, {"time": 778, "pitch": 54, "duration": 10, "velocity": 100}, {"time": 778, "pitch": 58, "duration": 10, "velocity": 102}, {"time": 778, "pitch": 61, "duration": 5, "velocity": 95}, {"time": 790, "pitch": 54, "duration": 1, "velocity": 74}, {"time": 790, "pitch": 58, "duration": 5, "velocity": 127}, {"time": 790, "pitch": 61, "duration": 7, "velocity": 117}, {"time": 796, "pitch": 54, "duration": 2, "velocity": 75}, {"time": 802, "pitch": 42, "duration": 16, "velocity": 100}, {"time": 802, "pitch": 54, "duration": 8, "velocity": 79}, {"time": 802, "pitch": 58, "duration": 6, "velocity": 51}, {"time": 802, "pitch": 61, "duration": 9, "velocity": 76}, {"time": 814, "pitch": 54, "duration": 6, "velocity": 102}, {"time": 814, "pitch": 58, "duration": 5, "velocity": 90}, {"time": 814, "pitch": 61, "duration": 6, "velocity": 81}, {"time": 814, "pitch": 65, "duration": 6, "velocity": 82}, {"time": 820, "pitch": 42, "duration": 1, "velocity": 85}, {"time": 826, "pitch": 44, "duration": 19, "velocity": 107}, {"time": 826, "pitch": 56, "duration": 8, "velocity": 112}, {"time": 826, "pitch": 60, "duration": 6, "velocity": 122}, {"time": 826, "pitch": 63, "duration": 7, "velocity": 102}, {"time": 832, "pitch": 48, "duration": 11, "velocity": 28}, {"time": 832, "pitch": 51, "duration": 8, "velocity": 47}, {"time": 838, "pitch": 56, "duration": 1, "velocity": 102}, {"time": 838, "pitch": 60, "duration": 1, "velocity": 127}, {"time": 838, "pitch": 63, "duration": 1, "velocity": 112}, {"time": 844, "pitch": 51, "duration": 4, "velocity": 61}, {"time": 847, "pitch": 56, "duration": 1, "velocity": 93}, {"time": 847, "pitch": 68, "duration": 1, "velocity": 77}, {"time": 850, "pitch": 44, "duration": 11, "velocity": 100}, {"time": 850, "pitch": 51, "duration": 8, "velocity": 102}, {"time": 850, "pitch": 56, "duration": 1, "velocity": 127}, {"time": 850, "pitch": 68, "duration": 1, "velocity": 112}, {"time": 856, "pitch": 48, "duration": 4, "velocity": 27}, {"time": 856, "pitch": 58, "duration": 1, "velocity": 112}, {"time": 856, "pitch": 70, "duration": 1, "velocity": 96}, {"time": 862, "pitch": 44, "duration": 2, "velocity": 66}, {"time": 862, "pitch": 48, "duration": 1, "velocity": 68}, {"time": 862, "pitch": 51, "duration": 2, "velocity": 100}, {"time": 862, "pitch": 60, "duration": 2, "velocity": 112}, {"time": 862, "pitch": 72, "duration": 1, "velocity": 100}, {"time": 874, "pitch": 49, "duration": 19, "velocity": 89}, {"time": 874, "pitch": 53, "duration": 19, "velocity": 77}, {"time": 874, "pitch": 56, "duration": 15, "velocity": 100}, {"time": 874, "pitch": 61, "duration": 7, "velocity": 117}, {"time": 874, "pitch": 65, "duration": 6, "velocity": 122}, {"time": 874, "pitch": 68, "duration": 7, "velocity": 117}, {"time": 886, "pitch": 61, "duration": 6, "velocity": 117}, {"time": 886, "pitch": 65, "duration": 5, "velocity": 127}, {"time": 886, "pitch": 68, "duration": 5, "velocity": 127}, {"time": 892, "pitch": 56, "duration": 2, "velocity": 97}, {"time": 898, "pitch": 46, "duration": 13, "velocity": 93}, {"time": 898, "pitch": 58, "duration": 4, "velocity": 112}, {"time": 898, "pitch": 61, "duration": 6, "velocity": 127}, {"time": 898, "pitch": 65, "duration": 7, "velocity": 95}, {"time": 904, "pitch": 58, "duration": 5, "velocity": 93}, {"time": 910, "pitch": 58, "duration": 3, "velocity": 78}, {"time": 910, "pitch": 61, "duration": 4, "velocity": 127}, {"time": 910, "pitch": 65, "duration": 4, "velocity": 90}, {"time": 916, "pitch": 46, "duration": 6, "velocity": 62}, {"time": 922, "pitch": 39, "duration": 13, "velocity": 96}, {"time": 922, "pitch": 54, "duration": 6, "velocity": 127}, {"time": 922, "pitch": 58, "duration": 5, "velocity": 100}, {"time": 928, "pitch": 51, "duration": 6, "velocity": 63}, {"time": 934, "pitch": 54, "duration": 1, "velocity": 127}, {"time": 934, "pitch": 58, "duration": 1, "velocity": 112}, {"time": 946, "pitch": 44, "duration": 19, "velocity": 99}, {"time": 946, "pitch": 56, "duration": 7, "velocity": 92}, {"time": 946, "pitch": 60, "duration": 6, "velocity": 117}, {"time": 946, "pitch": 63, "duration": 6, "velocity": 112}, {"time": 952, "pitch": 51, "duration": 9, "velocity": 67}, {"time": 958, "pitch": 60, "duration": 4, "velocity": 122}, {"time": 958, "pitch": 63, "duration": 4, "velocity": 122}, {"time": 964, "pitch": 51, "duration": 2, "velocity": 76}, {"time": 970, "pitch": 46, "duration": 12, "velocity": 59}, {"time": 970, "pitch": 58, "duration": 7, "velocity": 117}, {"time": 970, "pitch": 61, "duration": 9, "velocity": 100}, {"time": 982, "pitch": 58, "duration": 6, "velocity": 127}, {"time": 982, "pitch": 61, "duration": 5, "velocity": 107}, {"time": 982, "pitch": 65, "duration": 5, "velocity": 88}, {"time": 988, "pitch": 46, "duration": 6, "velocity": 95}, {"time": 994, "pitch": 39, "duration": 15, "velocity": 93}, {"time": 994, "pitch": 51, "duration": 8, "velocity": 97}, {"time": 994, "pitch": 54, "duration": 7, "velocity": 97}, {"time": 994, "pitch": 58, "duration": 6, "velocity": 78}, {"time": 1006, "pitch": 54, "duration": 4, "velocity": 127}, {"time": 1006, "pitch": 58, "duration": 4, "velocity": 112}, {"time": 1012, "pitch": 39, "duration": 1, "velocity": 86}, {"time": 1018, "pitch": 44, "duration": 20, "velocity": 99}, {"time": 1018, "pitch": 56, "duration": 7, "velocity": 99}, {"time": 1018, "pitch": 60, "duration": 7, "velocity": 107}, {"time": 1018, "pitch": 63, "duration": 7, "velocity": 99}, {"time": 1024, "pitch": 51, "duration": 8, "velocity": 48}, {"time": 1030, "pitch": 56, "duration": 4, "velocity": 99}, {"time": 1030, "pitch": 60, "duration": 7, "velocity": 122}, {"time": 1030, "pitch": 63, "duration": 7, "velocity": 107}, {"time": 1036, "pitch": 56, "duration": 2, "velocity": 45}, {"time": 1042, "pitch": 44, "duration": 10, "velocity": 82}, {"time": 1042, "pitch": 56, "duration": 6, "velocity": 97}, {"time": 1042, "pitch": 60, "duration": 5, "velocity": 112}, {"time": 1042, "pitch": 63, "duration": 6, "velocity": 102}, {"time": 1054, "pitch": 44, "duration": 2, "velocity": 102}, {"time": 1054, "pitch": 51, "duration": 1, "velocity": 100}, {"time": 1054, "pitch": 56, "duration": 1, "velocity": 127}, {"time": 1054, "pitch": 68, "duration": 1, "velocity": 90}, {"time": 1060, "pitch": 58, "duration": 1, "velocity": 127}, {"time": 1060, "pitch": 70, "duration": 1, "velocity": 89}, {"time": 1066, "pitch": 49, "duration": 16, "velocity": 65}, {"time": 1066, "pitch": 56, "duration": 16, "velocity": 83}, {"time": 1066, "pitch": 61, "duration": 9, "velocity": 112}, {"time": 1066, "pitch": 65, "duration": 6, "velocity": 127}, {"time": 1066, "pitch": 68, "duration": 6, "velocity": 117}, {"time": 1078, "pitch": 53, "duration": 5, "velocity": 24}, {"time": 1078, "pitch": 65, "duration": 5, "velocity": 127}, {"time": 1078, "pitch": 68, "duration": 5, "velocity": 117}, {"time": 1084, "pitch": 61, "duration": 1, "velocity": 59}, {"time": 1090, "pitch": 46, "duration": 9, "velocity": 82}, {"time": 1090, "pitch": 58, "duration": 7, "velocity": 117}, {"time": 1090, "pitch": 61, "duration": 9, "velocity": 102}, {"time": 1102, "pitch": 58, "duration": 5, "velocity": 127}, {"time": 1102, "pitch": 61, "duration": 5, "velocity": 112}, {"time": 1102, "pitch": 65, "duration": 4, "velocity": 90}, {"time": 1108, "pitch": 46, "duration": 6, "velocity": 96}, {"time": 1114, "pitch": 39, "duration": 16, "velocity": 89}, {"time": 1114, "pitch": 51, "duration": 10, "velocity": 96}, {"time": 1114, "pitch": 54, "duration": 10, "velocity": 92}, {"time": 1114, "pitch": 58, "duration": 6, "velocity": 72}, {"time": 1126, "pitch": 51, "duration": 4, "velocity": 95}, {"time": 1126, "pitch": 54, "duration": 4, "velocity": 117}, {"time": 1126, "pitch": 58, "duration": 4, "velocity": 95}, {"time": 1132, "pitch": 39, "duration": 6, "velocity": 64}, {"time": 1138, "pitch": 44, "duration": 13, "velocity": 70}, {"time": 1138, "pitch": 56, "duration": 7, "velocity": 99}, {"time": 1138, "pitch": 60, "duration": 5, "velocity": 112}, {"time": 1138, "pitch": 63, "duration": 5, "velocity": 97}, {"time": 1150, "pitch": 60, "duration": 4, "velocity": 117}, {"time": 1150, "pitch": 63, "duration": 4, "velocity": 112}, {"time": 1153, "pitch": 44, "duration": 8, "velocity": 83}, {"time": 1156, "pitch": 56, "duration": 1, "velocity": 95}, {"time": 1162, "pitch": 46, "duration": 16, "velocity": 95}, {"time": 1162, "pitch": 58, "duration": 10, "velocity": 112}, {"time": 1162, "pitch": 61, "duration": 10, "velocity": 99}, {"time": 1174, "pitch": 58, "duration": 6, "velocity": 127}, {"time": 1174, "pitch": 61, "duration": 6, "velocity": 107}, {"time": 1174, "pitch": 65, "duration": 6, "velocity": 96}, {"time": 1180, "pitch": 46, "duration": 6, "velocity": 64}, {"time": 1186, "pitch": 39, "duration": 13, "velocity": 72}, {"time": 1186, "pitch": 51, "duration": 8, "velocity": 99}, {"time": 1186, "pitch": 54, "duration": 7, "velocity": 95}, {"time": 1186, "pitch": 58, "duration": 6, "velocity": 85}, {"time": 1195, "pitch": 54, "duration": 1, "velocity": 22}, {"time": 1198, "pitch": 54, "duration": 5, "velocity": 127}, {"time": 1198, "pitch": 58, "duration": 3, "velocity": 117}, {"time": 1201, "pitch": 39, "duration": 1, "velocity": 83}, {"time": 1204, "pitch": 51, "duration": 1, "velocity": 102}, {"time": 1210, "pitch": 44, "duration": 22, "velocity": 88}, {"time": 1210, "pitch": 51, "duration": 22, "velocity": 75}, {"time": 1210, "pitch": 56, "duration": 9, "velocity": 117}, {"time": 1210, "pitch": 60, "duration": 7, "velocity": 102}, {"time": 1210, "pitch": 63, "duration": 9, "velocity": 97}, {"time": 1222, "pitch": 56, "duration": 4, "velocity": 99}, {"time": 1222, "pitch": 60, "duration": 7, "velocity": 112}, {"time": 1222, "pitch": 63, "duration": 7, "velocity": 112}, {"time": 1228, "pitch": 56, "duration": 3, "velocity": 44}, {"time": 1234, "pitch": 44, "duration": 15, "velocity": 89}, {"time": 1234, "pitch": 51, "duration": 14, "velocity": 57}, {"time": 1234, "pitch": 56, "duration": 11, "velocity": 96}, {"time": 1234, "pitch": 60, "duration": 10, "velocity": 96}, {"time": 1234, "pitch": 63, "duration": 10, "velocity": 88}, {"time": 1246, "pitch": 56, "duration": 3, "velocity": 77}, {"time": 1246, "pitch": 60, "duration": 2, "velocity": 76}, {"time": 1246, "pitch": 63, "duration": 3, "velocity": 52}, {"time": 1258, "pitch": 49, "duration": 20, "velocity": 76}, {"time": 1258, "pitch": 61, "duration": 7, "velocity": 89}, {"time": 1258, "pitch": 65, "duration": 6, "velocity": 93}, {"time": 1258, "pitch": 68, "duration": 7, "velocity": 81}, {"time": 1264, "pitch": 53, "duration": 16, "velocity": 31}, {"time": 1267, "pitch": 56, "duration": 4, "velocity": 52}, {"time": 1270, "pitch": 63, "duration": 5, "velocity": 127}, {"time": 1273, "pitch": 56, "duration": 7, "velocity": 41}, {"time": 1276, "pitch": 65, "duration": 4, "velocity": 82}, {"time": 1279, "pitch": 63, "duration": 3, "velocity": 38}, {"time": 1282, "pitch": 49, "duration": 15, "velocity": 67}, {"time": 1282, "pitch": 56, "duration": 14, "velocity": 78}, {"time": 1306, "pitch": 39, "duration": 40, "velocity": 78}, {"time": 1306, "pitch": 63, "duration": 9, "velocity": 93}, {"time": 1306, "pitch": 66, "duration": 11, "velocity": 107}, {"time": 1306, "pitch": 70, "duration": 7, "velocity": 88}, {"time": 1312, "pitch": 51, "duration": 9, "velocity": 50}, {"time": 1318, "pitch": 63, "duration": 9, "velocity": 79}, {"time": 1318, "pitch": 66, "duration": 8, "velocity": 89}, {"time": 1318, "pitch": 70, "duration": 7, "velocity": 78}, {"time": 1324, "pitch": 51, "duration": 8, "velocity": 36}, {"time": 1330, "pitch": 63, "duration": 7, "velocity": 70}, {"time": 1330, "pitch": 66, "duration": 7, "velocity": 65}, {"time": 1330, "pitch": 70, "duration": 6, "velocity": 54}, {"time": 1336, "pitch": 51, "duration": 7, "velocity": 48}, {"time": 1339, "pitch": 66, "duration": 1, "velocity": 22}, {"time": 1342, "pitch": 66, "duration": 6, "velocity": 127}, {"time": 1342, "pitch": 70, "duration": 6, "velocity": 112}, {"time": 1345, "pitch": 51, "duration": 2, "velocity": 77}, {"time": 1348, "pitch": 63, "duration": 1, "velocity": 102}, {"time": 1354, "pitch": 41, "duration": 40, "velocity": 65}, {"time": 1354, "pitch": 53, "duration": 7, "velocity": 95}, {"time": 1354, "pitch": 56, "duration": 7, "velocity": 102}, {"time": 1354, "pitch": 60, "duration": 7, "velocity": 92}, {"time": 1360, "pitch": 48, "duration": 7, "velocity": 38}, {"time": 1363, "pitch": 56, "duration": 1, "velocity": 24}, {"time": 1366, "pitch": 53, "duration": 1, "velocity": 88}, {"time": 1366, "pitch": 56, "duration": 1, "velocity": 112}, {"time": 1366, "pitch": 60, "duration": 1, "velocity": 88}, {"time": 1372, "pitch": 48, "duration": 8, "velocity": 42}, {"time": 1378, "pitch": 60, "duration": 7, "velocity": 75}, {"time": 1378, "pitch": 65, "duration": 7, "velocity": 70}, {"time": 1378, "pitch": 68, "duration": 7, "velocity": 71}, {"time": 1384, "pitch": 48, "duration": 8, "velocity": 42}, {"time": 1390, "pitch": 65, "duration": 6, "velocity": 89}, {"time": 1390, "pitch": 68, "duration": 6, "velocity": 96}, {"time": 1393, "pitch": 48, "duration": 2, "velocity": 58}, {"time": 1396, "pitch": 60, "duration": 1, "velocity": 93}, {"time": 1402, "pitch": 42, "duration": 23, "velocity": 92}, {"time": 1402, "pitch": 58, "duration": 1, "velocity": 93}, {"time": 1402, "pitch": 61, "duration": 1, "velocity": 95}, {"time": 1408, "pitch": 54, "duration": 7, "velocity": 54}, {"time": 1414, "pitch": 61, "duration": 2, "velocity": 75}, {"time": 1414, "pitch": 66, "duration": 4, "velocity": 99}, {"time": 1414, "pitch": 70, "duration": 7, "velocity": 92}, {"time": 1417, "pitch": 54, "duration": 5, "velocity": 52}, {"time": 1420, "pitch": 61, "duration": 4, "velocity": 72}, {"time": 1426, "pitch": 42, "duration": 16, "velocity": 65}, {"time": 1426, "pitch": 54, "duration": 13, "velocity": 56}, {"time": 1426, "pitch": 61, "duration": 10, "velocity": 48}, {"time": 1426, "pitch": 66, "duration": 7, "velocity": 77}, {"time": 1426, "pitch": 70, "duration": 9, "velocity": 74}, {"time": 1438, "pitch": 66, "duration": 6, "velocity": 117}, {"time": 1438, "pitch": 70, "duration": 5, "velocity": 112}, {"time": 1441, "pitch": 54, "duration": 2, "velocity": 75}, {"time": 1444, "pitch": 61, "duration": 1, "velocity": 102}, {"time": 1450, "pitch": 44, "duration": 23, "velocity": 96}, {"time": 1450, "pitch": 56, "duration": 9, "velocity": 95}, {"time": 1450, "pitch": 60, "duration": 6, "velocity": 92}, {"time": 1450, "pitch": 63, "duration": 7, "velocity": 86}, {"time": 1462, "pitch": 56, "duration": 7, "velocity": 96}, {"time": 1462, "pitch": 60, "duration": 7, "velocity": 112}, {"time": 1462, "pitch": 63, "duration": 9, "velocity": 112}, {"time": 1468, "pitch": 51, "duration": 6, "velocity": 54}, {"time": 1471, "pitch": 56, "duration": 2, "velocity": 76}, {"time": 1474, "pitch": 44, "duration": 19, "velocity": 69}, {"time": 1474, "pitch": 56, "duration": 18, "velocity": 99}, {"time": 1474, "pitch": 60, "duration": 18, "velocity": 102}, {"time": 1474, "pitch": 63, "duration": 18, "velocity": 99}, {"time": 1498, "pitch": 46, "duration": 14, "velocity": 89}, {"time": 1498, "pitch": 58, "duration": 7, "velocity": 127}, {"time": 1498, "pitch": 61, "duration": 10, "velocity": 112}, {"time": 1510, "pitch": 58, "duration": 6, "velocity": 127}, {"time": 1510, "pitch": 61, "duration": 6, "velocity": 112}, {"time": 1510, "pitch": 65, "duration": 6, "velocity": 88}, {"time": 1516, "pitch": 46, "duration": 6, "velocity": 75}, {"time": 1522, "pitch": 41, "duration": 16, "velocity": 45}, {"time": 1522, "pitch": 53, "duration": 10, "velocity": 100}, {"time": 1522, "pitch": 56, "duration": 11, "velocity": 102}, {"time": 1522, "pitch": 60, "duration": 10, "velocity": 93}, {"time": 1534, "pitch": 53, "duration": 5, "velocity": 92}, {"time": 1534, "pitch": 56, "duration": 7, "velocity": 112}, {"time": 1534, "pitch": 60, "duration": 4, "velocity": 93}, {"time": 1540, "pitch": 41, "duration": 6, "velocity": 61}, {"time": 1546, "pitch": 42, "duration": 14, "velocity": 89}, {"time": 1546, "pitch": 54, "duration": 9, "velocity": 92}, {"time": 1546, "pitch": 58, "duration": 10, "velocity": 112}, {"time": 1546, "pitch": 61, "duration": 1, "velocity": 95}, {"time": 1558, "pitch": 54, "duration": 4, "velocity": 97}, {"time": 1558, "pitch": 58, "duration": 3, "velocity": 127}, {"time": 1558, "pitch": 61, "duration": 4, "velocity": 102}, {"time": 1570, "pitch": 44, "duration": 19, "velocity": 88}, {"time": 1570, "pitch": 56, "duration": 8, "velocity": 97}, {"time": 1570, "pitch": 60, "duration": 7, "velocity": 117}, {"time": 1570, "pitch": 63, "duration": 7, "velocity": 102}, {"time": 1576, "pitch": 48, "duration": 12, "velocity": 40}, {"time": 1579, "pitch": 51, "duration": 5, "velocity": 56}, {"time": 1582, "pitch": 56, "duration": 5, "velocity": 102}, {"time": 1582, "pitch": 60, "duration": 4, "velocity": 127}, {"time": 1582, "pitch": 63, "duration": 5, "velocity": 117}, {"time": 1588, "pitch": 51, "duration": 3, "velocity": 99}, {"time": 1594, "pitch": 46, "duration": 16, "velocity": 93}, {"time": 1594, "pitch": 58, "duration": 5, "velocity": 127}, {"time": 1594, "pitch": 61, "duration": 5, "velocity": 122}, {"time": 1606, "pitch": 58, "duration": 6, "velocity": 127}, {"time": 1606, "pitch": 61, "duration": 6, "velocity": 127}, {"time": 1606, "pitch": 65, "duration": 5, "velocity": 96}, {"time": 1612, "pitch": 46, "duration": 1, "velocity": 32}, {"time": 1612, "pitch": 46, "duration": 1, "velocity": 107}, {"time": 1618, "pitch": 41, "duration": 15, "velocity": 72}, {"time": 1618, "pitch": 53, "duration": 8, "velocity": 99}, {"time": 1618, "pitch": 56, "duration": 8, "velocity": 107}, {"time": 1618, "pitch": 60, "duration": 8, "velocity": 90}, {"time": 1624, "pitch": 48, "duration": 8, "velocity": 44}, {"time": 1630, "pitch": 56, "duration": 9, "velocity": 127}, {"time": 1630, "pitch": 60, "duration": 6, "velocity": 102}, {"time": 1642, "pitch": 42, "duration": 23, "velocity": 93}, {"time": 1642, "pitch": 54, "duration": 10, "velocity": 100}, {"time": 1642, "pitch": 58, "duration": 10, "velocity": 102}, {"time": 1642, "pitch": 61, "duration": 5, "velocity": 95}, {"time": 1654, "pitch": 54, "duration": 1, "velocity": 74}, {"time": 1654, "pitch": 58, "duration": 5, "velocity": 127}, {"time": 1654, "pitch": 61, "duration": 7, "velocity": 117}, {"time": 1660, "pitch": 54, "duration": 2, "velocity": 75}, {"time": 1666, "pitch": 42, "duration": 16, "velocity": 100}, {"time": 1666, "pitch": 54, "duration": 8, "velocity": 79}, {"time": 1666, "pitch": 58, "duration": 6, "velocity": 51}, {"time": 1666, "pitch": 61, "duration": 9, "velocity": 76}, {"time": 1678, "pitch": 54, "duration": 6, "velocity": 102}, {"time": 1678, "pitch": 58, "duration": 5, "velocity": 90}, {"time": 1678, "pitch": 61, "duration": 6, "velocity": 81}, {"time": 1678, "pitch": 65, "duration": 6, "velocity": 82}, {"time": 1684, "pitch": 42, "duration": 1, "velocity": 85}, {"time": 1690, "pitch": 44, "duration": 19, "velocity": 107}, {"time": 1690, "pitch": 56, "duration": 8, "velocity": 112}, {"time": 1690, "pitch": 60, "duration": 6, "velocity": 122}, {"time": 1690, "pitch": 63, "duration": 7, "velocity": 102}, {"time": 1696, "pitch": 48, "duration": 11, "velocity": 28}, {"time": 1696, "pitch": 51, "duration": 8, "velocity": 47}, {"time": 1702, "pitch": 56, "duration": 1, "velocity": 102}, {"time": 1702, "pitch": 60, "duration": 1, "velocity": 127}, {"time": 1702, "pitch": 63, "duration": 1, "velocity": 112}, {"time": 1708, "pitch": 51, "duration": 4, "velocity": 61}, {"time": 1711, "pitch": 56, "duration": 1, "velocity": 93}, {"time": 1711, "pitch": 68, "duration": 1, "velocity": 77}, {"time": 1714, "pitch": 44, "duration": 11, "velocity": 100}, {"time": 1714, "pitch": 51, "duration": 8, "velocity": 102}, {"time": 1714, "pitch": 56, "duration": 1, "velocity": 127}, {"time": 1714, "pitch": 68, "duration": 1, "velocity": 112}, {"time": 1720, "pitch": 48, "duration": 4, "velocity": 27}, {"time": 1720, "pitch": 58, "duration": 1, "velocity": 112}, {"time": 1720, "pitch": 70, "duration": 1, "velocity": 96}, {"time": 1726, "pitch": 44, "duration": 2, "velocity": 66}, {"time": 1726, "pitch": 48, "duration": 1, "velocity": 68}, {"time": 1726, "pitch": 51, "duration": 2, "velocity": 100}, {"time": 1726, "pitch": 60, "duration": 2, "velocity": 112}, {"time": 1726, "pitch": 72, "duration": 1, "velocity": 100}, {"time": 1738, "pitch": 49, "duration": 19, "velocity": 89}, {"time": 1738, "pitch": 53, "duration": 19, "velocity": 77}, {"time": 1738, "pitch": 56, "duration": 15, "velocity": 100}, {"time": 1738, "pitch": 61, "duration": 7, "velocity": 117}, {"time": 1738, "pitch": 65, "duration": 6, "velocity": 122}, {"time": 1738, "pitch": 68, "duration": 7, "velocity": 117}, {"time": 1750, "pitch": 61, "duration": 6, "velocity": 117}, {"time": 1750, "pitch": 65, "duration": 5, "velocity": 127}, {"time": 1750, "pitch": 68, "duration": 5, "velocity": 127}, {"time": 1756, "pitch": 56, "duration": 2, "velocity": 97}, {"time": 1762, "pitch": 46, "duration": 13, "velocity": 93}, {"time": 1762, "pitch": 58, "duration": 4, "velocity": 112}, {"time": 1762, "pitch": 61, "duration": 6, "velocity": 127}, {"time": 1762, "pitch": 65, "duration": 7, "velocity": 95}, {"time": 1768, "pitch": 58, "duration": 5, "velocity": 93}, {"time": 1774, "pitch": 58, "duration": 3, "velocity": 78}, {"time": 1774, "pitch": 61, "duration": 4, "velocity": 127}, {"time": 1774, "pitch": 65, "duration": 4, "velocity": 90}, {"time": 1780, "pitch": 46, "duration": 6, "velocity": 62}, {"time": 1786, "pitch": 39, "duration": 13, "velocity": 96}, {"time": 1786, "pitch": 54, "duration": 6, "velocity": 127}, {"time": 1786, "pitch": 58, "duration": 5, "velocity": 100}, {"time": 1792, "pitch": 51, "duration": 6, "velocity": 63}, {"time": 1798, "pitch": 54, "duration": 1, "velocity": 127}, {"time": 1798, "pitch": 58, "duration": 1, "velocity": 112}, {"time": 1810, "pitch": 44, "duration": 19, "velocity": 99}, {"time": 1810, "pitch": 56, "duration": 7, "velocity": 92}, {"time": 1810, "pitch": 60, "duration": 6, "velocity": 117}, {"time": 1810, "pitch": 63, "duration": 6, "velocity": 112}, {"time": 1816, "pitch": 51, "duration": 9, "velocity": 67}, {"time": 1822, "pitch": 60, "duration": 4, "velocity": 122}, {"time": 1822, "pitch": 63, "duration": 4, "velocity": 122}, {"time": 1828, "pitch": 51, "duration": 2, "velocity": 76}, {"time": 1834, "pitch": 46, "duration": 12, "velocity": 59}, {"time": 1834, "pitch": 58, "duration": 7, "velocity": 117}, {"time": 1834, "pitch": 61, "duration": 9, "velocity": 100}, {"time": 1846, "pitch": 58, "duration": 6, "velocity": 127}, {"time": 1846, "pitch": 61, "duration": 5, "velocity": 107}, {"time": 1846, "pitch": 65, "duration": 5, "velocity": 88}, {"time": 1852, "pitch": 46, "duration": 6, "velocity": 95}, {"time": 1858, "pitch": 39, "duration": 15, "velocity": 93}, {"time": 1858, "pitch": 51, "duration": 8, "velocity": 97}, {"time": 1858, "pitch": 54, "duration": 7, "velocity": 97}, {"time": 1858, "pitch": 58, "duration": 6, "velocity": 78}, {"time": 1870, "pitch": 54, "duration": 4, "velocity": 127}, {"time": 1870, "pitch": 58, "duration": 4, "velocity": 112}, {"time": 1876, "pitch": 39, "duration": 1, "velocity": 86}, {"time": 1882, "pitch": 44, "duration": 20, "velocity": 99}, {"time": 1882, "pitch": 56, "duration": 7, "velocity": 99}, {"time": 1882, "pitch": 60, "duration": 7, "velocity": 107}, {"time": 1882, "pitch": 63, "duration": 7, "velocity": 99}, {"time": 1888, "pitch": 51, "duration": 8, "velocity": 48}, {"time": 1894, "pitch": 56, "duration": 4, "velocity": 99}, {"time": 1894, "pitch": 60, "duration": 7, "velocity": 122}, {"time": 1894, "pitch": 63, "duration": 7, "velocity": 107}, {"time": 1900, "pitch": 56, "duration": 2, "velocity": 45}, {"time": 1906, "pitch": 44, "duration": 10, "velocity": 82}, {"time": 1906, "pitch": 56, "duration": 6, "velocity": 97}, {"time": 1906, "pitch": 60, "duration": 5, "velocity": 112}, {"time": 1906, "pitch": 63, "duration": 6, "velocity": 102}, {"time": 1918, "pitch": 44, "duration": 2, "velocity": 102}, {"time": 1918, "pitch": 51, "duration": 1, "velocity": 100}, {"time": 1918, "pitch": 56, "duration": 1, "velocity": 127}, {"time": 1918, "pitch": 68, "duration": 1, "velocity": 90}, {"time": 1924, "pitch": 58, "duration": 1, "velocity": 127}, {"time": 1924, "pitch": 70, "duration": 1, "velocity": 89}, {"time": 1930, "pitch": 49, "duration": 16, "velocity": 65}, {"time": 1930, "pitch": 56, "duration": 16, "velocity": 83}, {"time": 1930, "pitch": 61, "duration": 9, "velocity": 112}, {"time": 1930, "pitch": 65, "duration": 6, "velocity": 127}, {"time": 1930, "pitch": 68, "duration": 6, "velocity": 117}, {"time": 1942, "pitch": 53, "duration": 5, "velocity": 24}, {"time": 1942, "pitch": 65, "duration": 5, "velocity": 127}, {"time": 1942, "pitch": 68, "duration": 5, "velocity": 117}, {"time": 1948, "pitch": 61, "duration": 1, "velocity": 59}, {"time": 1954, "pitch": 46, "duration": 9, "velocity": 82}, {"time": 1954, "pitch": 58, "duration": 7, "velocity": 117}, {"time": 1954, "pitch": 61, "duration": 9, "velocity": 102}, {"time": 1966, "pitch": 58, "duration": 5, "velocity": 127}, {"time": 1966, "pitch": 61, "duration": 5, "velocity": 112}, {"time": 1966, "pitch": 65, "duration": 4, "velocity": 90}, {"time": 1972, "pitch": 46, "duration": 6, "velocity": 96}, {"time": 1978, "pitch": 39, "duration": 16, "velocity": 89}, {"time": 1978, "pitch": 51, "duration": 10, "velocity": 96}, {"time": 1978, "pitch": 54, "duration": 10, "velocity": 92}, {"time": 1978, "pitch": 58, "duration": 6, "velocity": 72}, {"time": 1990, "pitch": 51, "duration": 4, "velocity": 95}, {"time": 1990, "pitch": 54, "duration": 4, "velocity": 117}, {"time": 1990, "pitch": 58, "duration": 4, "velocity": 95}, {"time": 1996, "pitch": 39, "duration": 6, "velocity": 64}, {"time": 2002, "pitch": 44, "duration": 13, "velocity": 70}, {"time": 2002, "pitch": 56, "duration": 7, "velocity": 99}, {"time": 2002, "pitch": 60, "duration": 5, "velocity": 112}, {"time": 2002, "pitch": 63, "duration": 5, "velocity": 97}, {"time": 2014, "pitch": 60, "duration": 4, "velocity": 117}, {"time": 2014, "pitch": 63, "duration": 4, "velocity": 112}, {"time": 2017, "pitch": 44, "duration": 8, "velocity": 83}, {"time": 2020, "pitch": 56, "duration": 1, "velocity": 95}, {"time": 2026, "pitch": 46, "duration": 16, "velocity": 95}, {"time": 2026, "pitch": 58, "duration": 10, "velocity": 112}, {"time": 2026, "pitch": 61, "duration": 10, "velocity": 99}, {"time": 2038, "pitch": 58, "duration": 6, "velocity": 127}, {"time": 2038, "pitch": 61, "duration": 6, "velocity": 107}, {"time": 2038, "pitch": 65, "duration": 6, "velocity": 96}, {"time": 2044, "pitch": 46, "duration": 6, "velocity": 64}, {"time": 2050, "pitch": 39, "duration": 13, "velocity": 72}, {"time": 2050, "pitch": 51, "duration": 8, "velocity": 99}, {"time": 2050, "pitch": 54, "duration": 7, "velocity": 95}, {"time": 2050, "pitch": 58, "duration": 6, "velocity": 85}, {"time": 2059, "pitch": 54, "duration": 1, "velocity": 22}, {"time": 2062, "pitch": 54, "duration": 5, "velocity": 127}, {"time": 2062, "pitch": 58, "duration": 3, "velocity": 117}, {"time": 2065, "pitch": 39, "duration": 1, "velocity": 83}, {"time": 2068, "pitch": 51, "duration": 1, "velocity": 102}, {"time": 2074, "pitch": 44, "duration": 22, "velocity": 88}, {"time": 2074, "pitch": 51, "duration": 22, "velocity": 75}, {"time": 2074, "pitch": 56, "duration": 9, "velocity": 117}, {"time": 2074, "pitch": 60, "duration": 7, "velocity": 102}, {"time": 2074, "pitch": 63, "duration": 9, "velocity": 97}, {"time": 2086, "pitch": 56, "duration": 4, "velocity": 99}, {"time": 2086, "pitch": 60, "duration": 7, "velocity": 112}, {"time": 2086, "pitch": 63, "duration": 7, "velocity": 112}, {"time": 2092, "pitch": 56, "duration": 3, "velocity": 44}, {"time": 2098, "pitch": 44, "duration": 15, "velocity": 89}, {"time": 2098, "pitch": 51, "duration": 14, "velocity": 57}, {"time": 2098, "pitch": 56, "duration": 11, "velocity": 96}, {"time": 2098, "pitch": 60, "duration": 10, "velocity": 96}, {"time": 2098, "pitch": 63, "duration": 10, "velocity": 88}, {"time": 2110, "pitch": 56, "duration": 3, "velocity": 77}, {"time": 2110, "pitch": 60, "duration": 2, "velocity": 76}, {"time": 2110, "pitch": 63, "duration": 3, "velocity": 52}, {"time": 2122, "pitch": 49, "duration": 20, "velocity": 76}, {"time": 2122, "pitch": 61, "duration": 7, "velocity": 89}, {"time": 2122, "pitch": 65, "duration": 6, "velocity": 93}, {"time": 2122, "pitch": 68, "duration": 7, "velocity": 81}, {"time": 2128, "pitch": 53, "duration": 16, "velocity": 31}, {"time": 2131, "pitch": 56, "duration": 4, "velocity": 52}, {"time": 2134, "pitch": 63, "duration": 5, "velocity": 127}, {"time": 2137, "pitch": 56, "duration": 7, "velocity": 41}, {"time": 2140, "pitch": 65, "duration": 4, "velocity": 82}, {"time": 2143, "pitch": 63, "duration": 3, "velocity": 38}, {"time": 2146, "pitch": 49, "duration": 15, "velocity": 67}, {"time": 2146, "pitch": 56, "duration": 14, "velocity": 78}, {"time": 2170, "pitch": 61, "duration": 10, "velocity": 97}, {"time": 2170, "pitch": 56, "duration": 9, "velocity": 100}, {"time": 2170, "pitch": 65, "duration": 9, "velocity": 66}, {"time": 2170, "pitch": 49, "duration": 11, "velocity": 79}, {"time": 2188, "pitch": 61, "duration": 2, "velocity": 102}, {"time": 2188, "pitch": 58, "duration": 2, "velocity": 112}, {"time": 2188, "pitch": 46, "duration": 2, "velocity": 107}, {"time": 2188, "pitch": 65, "duration": 2, "velocity": 86}, {"time": 2191, "pitch": 46, "duration": 18, "velocity": 97}, {"time": 2191, "pitch": 61, "duration": 13, "velocity": 112}, {"time": 2191, "pitch": 58, "duration": 13, "velocity": 127}, {"time": 2191, "pitch": 65, "duration": 13, "velocity": 99}, {"time": 2206, "pitch": 61, "duration": 6, "velocity": 122}, {"time": 2206, "pitch": 65, "duration": 6, "velocity": 100}, {"time": 2206, "pitch": 58, "duration": 6, "velocity": 127}, {"time": 2212, "pitch": 46, "duration": 6, "velocity": 99}, {"time": 2218, "pitch": 39, "duration": 13, "velocity": 96}, {"time": 2218, "pitch": 54, "duration": 6, "velocity": 127}, {"time": 2218, "pitch": 58, "duration": 5, "velocity": 100}, {"time": 2224, "pitch": 51, "duration": 6, "velocity": 63}, {"time": 2230, "pitch": 54, "duration": 9, "velocity": 127}, {"time": 2230, "pitch": 58, "duration": 9, "velocity": 112}, {"time": 2242, "pitch": 44, "duration": 19, "velocity": 99}, {"time": 2242, "pitch": 56, "duration": 7, "velocity": 92}, {"time": 2242, "pitch": 60, "duration": 6, "velocity": 117}, {"time": 2242, "pitch": 63, "duration": 6, "velocity": 112}, {"time": 2248, "pitch": 51, "duration": 9, "velocity": 67}, {"time": 2254, "pitch": 60, "duration": 4, "velocity": 122}, {"time": 2254, "pitch": 63, "duration": 4, "velocity": 122}, {"time": 2260, "pitch": 51, "duration": 2, "velocity": 76}, {"time": 2266, "pitch": 46, "duration": 12, "velocity": 59}, {"time": 2266, "pitch": 58, "duration": 7, "velocity": 117}, {"time": 2266, "pitch": 61, "duration": 9, "velocity": 100}, {"time": 2278, "pitch": 58, "duration": 6, "velocity": 127}, {"time": 2278, "pitch": 61, "duration": 5, "velocity": 107}, {"time": 2278, "pitch": 65, "duration": 5, "velocity": 88}, {"time": 2284, "pitch": 46, "duration": 6, "velocity": 95}, {"time": 2290, "pitch": 39, "duration": 15, "velocity": 93}, {"time": 2290, "pitch": 51, "duration": 8, "velocity": 97}, {"time": 2290, "pitch": 54, "duration": 7, "velocity": 97}, {"time": 2290, "pitch": 58, "duration": 6, "velocity": 78}, {"time": 2302, "pitch": 54, "duration": 4, "velocity": 127}, {"time": 2302, "pitch": 58, "duration": 4, "velocity": 112}, {"time": 2308, "pitch": 39, "duration": 1, "velocity": 86}, {"time": 2314, "pitch": 44, "duration": 20, "velocity": 99}, {"time": 2314, "pitch": 56, "duration": 7, "velocity": 99}, {"time": 2314, "pitch": 60, "duration": 7, "velocity": 107}, {"time": 2314, "pitch": 63, "duration": 7, "velocity": 99}, {"time": 2320, "pitch": 51, "duration": 8, "velocity": 48}, {"time": 2326, "pitch": 56, "duration": 4, "velocity": 99}, {"time": 2326, "pitch": 60, "duration": 7, "velocity": 122}, {"time": 2326, "pitch": 63, "duration": 7, "velocity": 107}, {"time": 2332, "pitch": 56, "duration": 2, "velocity": 45}, {"time": 2338, "pitch": 44, "duration": 10, "velocity": 82}, {"time": 2338, "pitch": 56, "duration": 6, "velocity": 97}, {"time": 2338, "pitch": 60, "duration": 5, "velocity": 112}, {"time": 2338, "pitch": 63, "duration": 6, "velocity": 102}, {"time": 2350, "pitch": 44, "duration": 2, "velocity": 102}, {"time": 2350, "pitch": 51, "duration": 1, "velocity": 100}, {"time": 2350, "pitch": 56, "duration": 1, "velocity": 127}, {"time": 2350, "pitch": 68, "duration": 1, "velocity": 90}, {"time": 2356, "pitch": 58, "duration": 1, "velocity": 127}, {"time": 2356, "pitch": 70, "duration": 1, "velocity": 89}, {"time": 2362, "pitch": 49, "duration": 16, "velocity": 65}, {"time": 2362, "pitch": 56, "duration": 16, "velocity": 83}, {"time": 2362, "pitch": 61, "duration": 9, "velocity": 112}, {"time": 2362, "pitch": 65, "duration": 6, "velocity": 127}, {"time": 2362, "pitch": 68, "duration": 6, "velocity": 117}, {"time": 2374, "pitch": 53, "duration": 5, "velocity": 24}, {"time": 2374, "pitch": 65, "duration": 5, "velocity": 127}, {"time": 2374, "pitch": 68, "duration": 5, "velocity": 117}, {"time": 2380, "pitch": 61, "duration": 1, "velocity": 59}, {"time": 2386, "pitch": 46, "duration": 9, "velocity": 82}, {"time": 2386, "pitch": 58, "duration": 7, "velocity": 117}, {"time": 2386, "pitch": 61, "duration": 9, "velocity": 102}, {"time": 2398, "pitch": 58, "duration": 5, "velocity": 127}, {"time": 2398, "pitch": 61, "duration": 5, "velocity": 112}, {"time": 2398, "pitch": 65, "duration": 4, "velocity": 90}, {"time": 2404, "pitch": 46, "duration": 6, "velocity": 96}, {"time": 2410, "pitch": 39, "duration": 16, "velocity": 89}, {"time": 2410, "pitch": 51, "duration": 10, "velocity": 96}, {"time": 2410, "pitch": 54, "duration": 10, "velocity": 92}, {"time": 2410, "pitch": 58, "duration": 6, "velocity": 72}, {"time": 2422, "pitch": 51, "duration": 4, "velocity": 95}, {"time": 2422, "pitch": 54, "duration": 4, "velocity": 117}, {"time": 2422, "pitch": 58, "duration": 4, "velocity": 95}, {"time": 2428, "pitch": 39, "duration": 6, "velocity": 64}, {"time": 2434, "pitch": 44, "duration": 13, "velocity": 70}, {"time": 2434, "pitch": 56, "duration": 7, "velocity": 99}, {"time": 2434, "pitch": 60, "duration": 5, "velocity": 112}, {"time": 2434, "pitch": 63, "duration": 5, "velocity": 97}, {"time": 2446, "pitch": 60, "duration": 4, "velocity": 117}, {"time": 2446, "pitch": 63, "duration": 4, "velocity": 112}, {"time": 2449, "pitch": 44, "duration": 8, "velocity": 83}, {"time": 2452, "pitch": 56, "duration": 1, "velocity": 95}, {"time": 2458, "pitch": 46, "duration": 16, "velocity": 95}, {"time": 2458, "pitch": 58, "duration": 10, "velocity": 112}, {"time": 2458, "pitch": 61, "duration": 10, "velocity": 99}, {"time": 2470, "pitch": 58, "duration": 6, "velocity": 127}, {"time": 2470, "pitch": 61, "duration": 6, "velocity": 107}, {"time": 2470, "pitch": 65, "duration": 6, "velocity": 96}, {"time": 2476, "pitch": 46, "duration": 6, "velocity": 64}, {"time": 2482, "pitch": 39, "duration": 13, "velocity": 72}, {"time": 2482, "pitch": 51, "duration": 8, "velocity": 99}, {"time": 2482, "pitch": 54, "duration": 7, "velocity": 95}, {"time": 2482, "pitch": 58, "duration": 6, "velocity": 85}, {"time": 2491, "pitch": 54, "duration": 1, "velocity": 22}, {"time": 2494, "pitch": 54, "duration": 5, "velocity": 127}, {"time": 2494, "pitch": 58, "duration": 3, "velocity": 117}, {"time": 2497, "pitch": 39, "duration": 1, "velocity": 83}, {"time": 2500, "pitch": 51, "duration": 1, "velocity": 102}, {"time": 2506, "pitch": 44, "duration": 22, "velocity": 88}, {"time": 2506, "pitch": 51, "duration": 22, "velocity": 75}, {"time": 2506, "pitch": 56, "duration": 9, "velocity": 117}, {"time": 2506, "pitch": 60, "duration": 7, "velocity": 102}, {"time": 2506, "pitch": 63, "duration": 9, "velocity": 97}, {"time": 2518, "pitch": 56, "duration": 4, "velocity": 99}, {"time": 2518, "pitch": 60, "duration": 7, "velocity": 112}, {"time": 2518, "pitch": 63, "duration": 7, "velocity": 112}, {"time": 2524, "pitch": 56, "duration": 3, "velocity": 44}, {"time": 2530, "pitch": 44, "duration": 15, "velocity": 89}, {"time": 2530, "pitch": 51, "duration": 14, "velocity": 57}, {"time": 2530, "pitch": 56, "duration": 11, "velocity": 96}, {"time": 2530, "pitch": 60, "duration": 10, "velocity": 96}, {"time": 2530, "pitch": 63, "duration": 10, "velocity": 88}, {"time": 2542, "pitch": 56, "duration": 3, "velocity": 77}, {"time": 2542, "pitch": 60, "duration": 2, "velocity": 76}, {"time": 2542, "pitch": 63, "duration": 3, "velocity": 52}, {"time": 2554, "pitch": 65, "duration": 7, "velocity": 70}, {"time": 2554, "pitch": 54, "duration": 10, "velocity": 83}, {"time": 2554, "pitch": 61, "duration": 10, "velocity": 69}, {"time": 2554, "pitch": 58, "duration": 8, "velocity": 74}, {"time": 2554, "pitch": 42, "duration": 40, "velocity": 86}, {"time": 2566, "pitch": 54, "duration": 10, "velocity": 56}, {"time": 2566, "pitch": 61, "duration": 9, "velocity": 44}, {"time": 2566, "pitch": 65, "duration": 7, "velocity": 63}, {"time": 2566, "pitch": 58, "duration": 9, "velocity": 55}, {"time": 2577, "pitch": 54, "duration": 12, "velocity": 37}, {"time": 2578, "pitch": 58, "duration": 7, "velocity": 46}, {"time": 2578, "pitch": 61, "duration": 7, "velocity": 33}, {"time": 2578, "pitch": 65, "duration": 6, "velocity": 39}, {"time": 2590, "pitch": 54, "duration": 1, "velocity": 60}, {"time": 2590, "pitch": 58, "duration": 8, "velocity": 72}, {"time": 2590, "pitch": 61, "duration": 8, "velocity": 75}, {"time": 2590, "pitch": 65, "duration": 8, "velocity": 74}, {"time": 2602, "pitch": 58, "duration": 10, "velocity": 70}, {"time": 2602, "pitch": 61, "duration": 10, "velocity": 57}, {"time": 2602, "pitch": 54, "duration": 23, "velocity": 83}, {"time": 2602, "pitch": 42, "duration": 21, "velocity": 68}, {"time": 2602, "pitch": 65, "duration": 10, "velocity": 53}, {"time": 2614, "pitch": 61, "duration": 10, "velocity": 50}, {"time": 2614, "pitch": 58, "duration": 9, "velocity": 69}, {"time": 2614, "pitch": 65, "duration": 10, "velocity": 72}, {"time": 2626, "pitch": 54, "duration": 10, "velocity": 50}, {"time": 2626, "pitch": 61, "duration": 10, "velocity": 39}, {"time": 2626, "pitch": 42, "duration": 19, "velocity": 43}, {"time": 2626, "pitch": 65, "duration": 7, "velocity": 57}, {"time": 2626, "pitch": 58, "duration": 7, "velocity": 64}, {"time": 2638, "pitch": 58, "duration": 16, "velocity": 122}, {"time": 2638, "pitch": 61, "duration": 16, "velocity": 107}, {"time": 2645, "pitch": 54, "duration": 9, "velocity": 86}, {"time": 2653, "pitch": 37, "duration": 104, "velocity": 97}, {"time": 2659, "pitch": 49, "duration": 98, "velocity": 85}, {"time": 2664, "pitch": 53, "duration": 5, "velocity": 69}, {"time": 2668, "pitch": 56, "duration": 4, "velocity": 89}, {"time": 2672, "pitch": 61, "duration": 1, "velocity": 92}, {"time": 2678, "pitch": 65, "duration": 2, "velocity": 74}], "annotations": [{"time": 10, "annotation": {"number": 64, "value": 127}, "group": "control_change"}, {"time": 55, "annotation": {"number": 64, "value": 0}, "group": "control_change"}, {"time": 58, "annotation": {"number": 64, "value": 127}, "group": "control_change"}, {"time": 102, "annotation": {"number": 64, "value": 0}, "group": "control_change"}, {"time": 106, "annotation": {"number": 64, "value": 127}, "group": "control_change"}, {"time": 151, "annotation": {"number": 64, "value": 0}, "group": "control_change"}, {"time": 154, "annotation": {"number": 64, "value": 127}, "group": "control_change"}, {"time": 201, "annotation": {"number": 64, "value": 0}, "group": "control_change"}, {"time": 202, "annotation": {"number": 64, "value": 127}, "group": "control_change"}, {"time": 226, "annotation": {"number": 64, "value": 0}, "group": "control_change"}, {"time": 228, "annotation": {"number": 64, "value": 127}, "group": "control_change"}, {"time": 248, "annotation": {"number": 64, "value": 0}, "group": "control_change"}, {"time": 250, "annotation": {"number": 64, "value": 127}, "group": "control_change"}, {"time": 272, "annotation": {"number": 64, "value": 0}, "group": "control_change"}, {"time": 274, "annotation": {"number": 64, "value": 127}, "group": "control_change"}, {"time": 297, "annotation": {"number": 64, "value": 0}, "group": "control_change"}, {"time": 298, "annotation": {"number": 64, "value": 127}, "group": "control_change"}, {"time": 320, "annotation": {"number": 64, "value": 0}, "group": "control_change"}, {"time": 322, "annotation": {"number": 64, "value": 127}, "group": "control_change"}, {"time": 344, "annotation": {"number": 64, "value": 0}, "group": "control_change"}, {"time": 346, "annotation": {"number": 64, "value": 127}, "group": "control_change"}, {"time": 369, "annotation": {"number": 64, "value": 0}, "group": "control_change"}, {"time": 370, "annotation": {"number": 64, "value": 127}, "group": "control_change"}, {"time": 392, "annotation": {"number": 64, "value": 0}, "group": "control_change"}, {"time": 394, "annotation": {"number": 64, "value": 127}, "group": "control_change"}, {"time": 441, "annotation": {"number": 64, "value": 0}, "group": "control_change"}, {"time": 442, "annotation": {"number": 64, "value": 127}, "group": "control_change"}, {"time": 464, "annotation": {"number": 64, "value": 0}, "group": "control_change"}, {"time": 466, "annotation": {"number": 64, "value": 127}, "group": "control_change"}, {"time": 488, "annotation": {"number": 64, "value": 0}, "group": "control_change"}, {"time": 490, "annotation": {"number": 64, "value": 127}, "group": "control_change"}, {"time": 512, "annotation": {"number": 64, "value": 0}, "group": "control_change"}, {"time": 514, "annotation": {"number": 64, "value": 127}, "group": "control_change"}, {"time": 536, "annotation": {"number": 64, "value": 0}, "group": "control_change"}, {"time": 538, "annotation": {"number": 64, "value": 127}, "group": "control_change"}, {"time": 560, "annotation": {"number": 64, "value": 0}, "group": "control_change"}, {"time": 562, "annotation": {"number": 64, "value": 127}, "group": "control_change"}, {"time": 584, "annotation": {"number": 64, "value": 0}, "group": "control_change"}, {"time": 586, "annotation": {"number": 64, "value": 127}, "group": "control_change"}, {"time": 633, "annotation": {"number": 64, "value": 0}, "group": "control_change"}, {"time": 635, "annotation": {"number": 64, "value": 127}, "group": "control_change"}, {"time": 656, "annotation": {"number": 64, "value": 0}, "group": "control_change"}, {"time": 658, "annotation": {"number": 64, "value": 127}, "group": "control_change"}, {"time": 680, "annotation": {"number": 64, "value": 0}, "group": "control_change"}, {"time": 682, "annotation": {"number": 64, "value": 127}, "group": "control_change"}, {"time": 705, "annotation": {"number": 64, "value": 0}, "group": "control_change"}, {"time": 706, "annotation": {"number": 64, "value": 127}, "group": "control_change"}, {"time": 728, "annotation": {"number": 64, "value": 0}, "group": "control_change"}, {"time": 730, "annotation": {"number": 64, "value": 127}, "group": "control_change"}, {"time": 752, "annotation": {"number": 64, "value": 0}, "group": "control_change"}, {"time": 754, "annotation": {"number": 64, "value": 127}, "group": "control_change"}, {"time": 776, "annotation": {"number": 64, "value": 0}, "group": "control_change"}, {"time": 778, "annotation": {"number": 64, "value": 127}, "group": "control_change"}, {"time": 824, "annotation": {"number": 64, "value": 0}, "group": "control_change"}, {"time": 826, "annotation": {"number": 64, "value": 127}, "group": "control_change"}, {"time": 872, "annotation": {"number": 64, "value": 0}, "group": "control_change"}, {"time": 874, "annotation": {"number": 64, "value": 127}, "group": "control_change"}, {"time": 920, "annotation": {"number": 64, "value": 0}, "group": "control_change"}, {"time": 921, "annotation": {"number": 64, "value": 127}, "group": "control_change"}, {"time": 944, "annotation": {"number": 64, "value": 0}, "group": "control_change"}, {"time": 946, "annotation": {"number": 64, "value": 127}, "group": "control_change"}, {"time": 968, "annotation": {"number": 64, "value": 0}, "group": "control_change"}, {"time": 970, "annotation": {"number": 64, "value": 127}, "group": "control_change"}, {"time": 991, "annotation": {"number": 64, "value": 0}, "group": "control_change"}, {"time": 993, "annotation": {"number": 64, "value": 127}, "group": "control_change"}, {"time": 1015, "annotation": {"number": 64, "value": 0}, "group": "control_change"}, {"time": 1018, "annotation": {"number": 64, "value": 127}, "group": "control_change"}, {"time": 1040, "annotation": {"number": 64, "value": 0}, "group": "control_change"}, {"time": 1042, "annotation": {"number": 64, "value": 127}, "group": "control_change"}, {"time": 1064, "annotation": {"number": 64, "value": 0}, "group": "control_change"}, {"time": 1066, "annotation": {"number": 64, "value": 127}, "group": "control_change"}, {"time": 1088, "annotation": {"number": 64, "value": 0}, "group": "control_change"}, {"time": 1090, "annotation": {"number": 64, "value": 127}, "group": "control_change"}, {"time": 1112, "annotation": {"number": 64, "value": 0}, "group": "control_change"}, {"time": 1114, "annotation": {"number": 64, "value": 127}, "group": "control_change"}, {"time": 1135, "annotation": {"number": 64, "value": 0}, "group": "control_change"}, {"time": 1138, "annotation": {"number": 64, "value": 127}, "group": "control_change"}, {"time": 1160, "annotation": {"number": 64, "value": 0}, "group": "control_change"}, {"time": 1162, "annotation": {"number": 64, "value": 127}, "group": "control_change"}, {"time": 1172, "annotation": {"number": 64, "value": 0}, "group": "control_change"}, {"time": 1173, "annotation": {"number": 64, "value": 127}, "group": "control_change"}, {"time": 1183, "annotation": {"number": 64, "value": 0}, "group": "control_change"}, {"time": 1185, "annotation": {"number": 64, "value": 127}, "group": "control_change"}, {"time": 1208, "annotation": {"number": 64, "value": 0}, "group": "control_change"}, {"time": 1210, "annotation": {"number": 64, "value": 127}, "group": "control_change"}, {"time": 1232, "annotation": {"number": 64, "value": 0}, "group": "control_change"}, {"time": 1234, "annotation": {"number": 64, "value": 127}, "group": "control_change"}, {"time": 1256, "annotation": {"number": 64, "value": 0}, "group": "control_change"}, {"time": 1258, "annotation": {"number": 64, "value": 127}, "group": "control_change"}, {"time": 1304, "annotation": {"number": 64, "value": 0}, "group": "control_change"}, {"time": 1306, "annotation": {"number": 64, "value": 127}, "group": "control_change"}, {"time": 1352, "annotation": {"number": 64, "value": 0}, "group": "control_change"}, {"time": 1354, "annotation": {"number": 64, "value": 127}, "group": "control_change"}, {"time": 1449, "annotation": {"number": 64, "value": 0}, "group": "control_change"}, {"time": 1450, "annotation": {"number": 64, "value": 127}, "group": "control_change"}, {"time": 1473, "annotation": {"number": 64, "value": 0}, "group": "control_change"}, {"time": 1486, "annotation": {"number": 64, "value": 127}, "group": "control_change"}, {"time": 1498, "annotation": {"number": 64, "value": 0}, "group": "control_change"}, {"time": 1499, "annotation": {"number": 64, "value": 127}, "group": "control_change"}, {"time": 1520, "annotation": {"number": 64, "value": 0}, "group": "control_change"}, {"time": 1522, "annotation": {"number": 64, "value": 127}, "group": "control_change"}, {"time": 1544, "annotation": {"number": 64, "value": 0}, "group": "control_change"}, {"time": 1546, "annotation": {"number": 64, "value": 127}, "group": "control_change"}, {"time": 1569, "annotation": {"number": 64, "value": 0}, "group": "control_change"}, {"time": 1570, "annotation": {"number": 64, "value": 127}, "group": "control_change"}, {"time": 1592, "annotation": {"number": 64, "value": 0}, "group": "control_change"}, {"time": 1594, "annotation": {"number": 64, "value": 127}, "group": "control_change"}, {"time": 1616, "annotation": {"number": 64, "value": 0}, "group": "control_change"}, {"time": 1618, "annotation": {"number": 64, "value": 127}, "group": "control_change"}, {"time": 1640, "annotation": {"number": 64, "value": 0}, "group": "control_change"}, {"time": 1642, "annotation": {"number": 64, "value": 127}, "group": "control_change"}, {"time": 1688, "annotation": {"number": 64, "value": 0}, "group": "control_change"}, {"time": 1690, "annotation": {"number": 64, "value": 127}, "group": "control_change"}, {"time": 1736, "annotation": {"number": 64, "value": 0}, "group": "control_change"}, {"time": 1738, "annotation": {"number": 64, "value": 127}, "group": "control_change"}, {"time": 1784, "annotation": {"number": 64, "value": 0}, "group": "control_change"}, {"time": 1785, "annotation": {"number": 64, "value": 127}, "group": "control_change"}, {"time": 1808, "annotation": {"number": 64, "value": 0}, "group": "control_change"}, {"time": 1810, "annotation": {"number": 64, "value": 127}, "group": "control_change"}, {"time": 1832, "annotation": {"number": 64, "value": 0}, "group": "control_change"}, {"time": 1834, "annotation": {"number": 64, "value": 127}, "group": "control_change"}, {"time": 1855, "annotation": {"number": 64, "value": 0}, "group": "control_change"}, {"time": 1857, "annotation": {"number": 64, "value": 127}, "group": "control_change"}, {"time": 1879, "annotation": {"number": 64, "value": 0}, "group": "control_change"}, {"time": 1882, "annotation": {"number": 64, "value": 127}, "group": "control_change"}, {"time": 1904, "annotation": {"number": 64, "value": 0}, "group": "control_change"}, {"time": 1906, "annotation": {"number": 64, "value": 127}, "group": "control_change"}, {"time": 1928, "annotation": {"number": 64, "value": 0}, "group": "control_change"}, {"time": 1930, "annotation": {"number": 64, "value": 127}, "group": "control_change"}, {"time": 1952, "annotation": {"number": 64, "value": 0}, "group": "control_change"}, {"time": 1954, "annotation": {"number": 64, "value": 127}, "group": "control_change"}, {"time": 1976, "annotation": {"number": 64, "value": 0}, "group": "control_change"}, {"time": 1978, "annotation": {"number": 64, "value": 127}, "group": "control_change"}, {"time": 1999, "annotation": {"number": 64, "value": 0}, "group": "control_change"}, {"time": 2002, "annotation": {"number": 64, "value": 127}, "group": "control_change"}, {"time": 2024, "annotation": {"number": 64, "value": 0}, "group": "control_change"}, {"time": 2026, "annotation": {"number": 64, "value": 127}, "group": "control_change"}, {"time": 2036, "annotation": {"number": 64, "value": 0}, "group": "control_change"}, {"time": 2037, "annotation": {"number": 64, "value": 127}, "group": "control_change"}, {"time": 2047, "annotation": {"number": 64, "value": 0}, "group": "control_change"}, {"time": 2049, "annotation": {"number": 64, "value": 127}, "group": "control_change"}, {"time": 2072, "annotation": {"number": 64, "value": 0}, "group": "control_change"}, {"time": 2074, "annotation": {"number": 64, "value": 127}, "group": "control_change"}, {"time": 2096, "annotation": {"number": 64, "value": 0}, "group": "control_change"}, {"time": 2098, "annotation": {"number": 64, "value": 127}, "group": "control_change"}, {"time": 2120, "annotation": {"number": 64, "value": 0}, "group": "control_change"}, {"time": 2122, "annotation": {"number": 64, "value": 127}, "group": "control_change"}, {"time": 2165, "annotation": {"number": 64, "value": 127}, "group": "control_change"}, {"time": 2165, "annotation": {"number": 64, "value": 0}, "group": "control_change"}, {"time": 2168, "annotation": {"number": 64, "value": 0}, "group": "control_change"}, {"time": 2170, "annotation": {"number": 64, "value": 127}, "group": "control_change"}, {"time": 2185, "annotation": {"number": 64, "value": 0}, "group": "control_change"}, {"time": 2195, "annotation": {"number": 64, "value": 127}, "group": "control_change"}, {"time": 2214, "annotation": {"number": 64, "value": 0}, "group": "control_change"}, {"time": 2240, "annotation": {"number": 64, "value": 0}, "group": "control_change"}, {"time": 2242, "annotation": {"number": 64, "value": 127}, "group": "control_change"}, {"time": 2264, "annotation": {"number": 64, "value": 0}, "group": "control_change"}, {"time": 2266, "annotation": {"number": 64, "value": 127}, "group": "control_change"}, {"time": 2287, "annotation": {"number": 64, "value": 0}, "group": "control_change"}, {"time": 2289, "annotation": {"number": 64, "value": 127}, "group": "control_change"}, {"time": 2311, "annotation": {"number": 64, "value": 0}, "group": "control_change"}, {"time": 2314, "annotation": {"number": 64, "value": 127}, "group": "control_change"}, {"time": 2336, "annotation": {"number": 64, "value": 0}, "group": "control_change"}, {"time": 2338, "annotation": {"number": 64, "value": 127}, "group": "control_change"}, {"time": 2360, "annotation": {"number": 64, "value": 0}, "group": "control_change"}, {"time": 2362, "annotation": {"number": 64, "value": 127}, "group": "control_change"}, {"time": 2384, "annotation": {"number": 64, "value": 0}, "group": "control_change"}, {"time": 2386, "annotation": {"number": 64, "value": 127}, "group": "control_change"}, {"time": 2408, "annotation": {"number": 64, "value": 0}, "group": "control_change"}, {"time": 2410, "annotation": {"number": 64, "value": 127}, "group": "control_change"}, {"time": 2431, "annotation": {"number": 64, "value": 0}, "group": "control_change"}, {"time": 2434, "annotation": {"number": 64, "value": 127}, "group": "control_change"}, {"time": 2456, "annotation": {"number": 64, "value": 0}, "group": "control_change"}, {"time": 2458, "annotation": {"number": 64, "value": 127}, "group": "control_change"}, {"time": 2468, "annotation": {"number": 64, "value": 0}, "group": "control_change"}, {"time": 2469, "annotation": {"number": 64, "value": 127}, "group": "control_change"}, {"time": 2479, "annotation": {"number": 64, "value": 0}, "group": "control_change"}, {"time": 2481, "annotation": {"number": 64, "value": 127}, "group": "control_change"}, {"time": 2504, "annotation": {"number": 64, "value": 0}, "group": "control_change"}, {"time": 2506, "annotation": {"number": 64, "value": 127}, "group": "control_change"}, {"time": 2528, "annotation": {"number": 64, "value": 0}, "group": "control_change"}, {"time": 2530, "annotation": {"number": 64, "value": 127}, "group": "control_change"}, {"time": 2552, "annotation": {"number": 64, "value": 0}, "group": "control_change"}, {"time": 2554, "annotation": {"number": 64, "value": 127}, "group": "control_change"}, {"time": 2600, "annotation": {"number": 64, "value": 0}, "group": "control_change"}, {"time": 2603, "annotation": {"number": 64, "value": 127}, "group": "control_change"}, {"time": 2653, "annotation": {"number": 64, "value": 0}, "group": "control_change"}, {"time": 2656, "annotation": {"number": 64, "value": 127}, "group": "control_change"}, {"time": 2755, "annotation": {"number": 64, "value": 0}, "group": "control_change"}, {"time": 2758, "annotation": {"number": 64, "value": 127}, "group": "control_change"}, {"time": 2759, "annotation": {"number": 64, "value": 0}, "group": "control_change"}]}]}