{"metadata": {"schema_version": "0.2", "title": "None", "source_filename": "105.mid", "source_format": "midi"}, "resolution": 12, "tempos": [{"time": 0, "qpm": 94.00012846684224}], "time_signatures": [{"time": 0, "numerator": 1, "denominator": 4}], "tracks": [{"program": 0, "is_drum": false, "name": "MELODY", "notes": [{"time": 453, "pitch": 73, "duration": 4, "velocity": 117}, {"time": 459, "pitch": 73, "duration": 3, "velocity": 102}, {"time": 465, "pitch": 73, "duration": 4, "velocity": 117}, {"time": 471, "pitch": 75, "duration": 5, "velocity": 112}, {"time": 477, "pitch": 77, "duration": 10, "velocity": 89}, {"time": 483, "pitch": 75, "duration": 5, "velocity": 117}, {"time": 489, "pitch": 73, "duration": 6, "velocity": 100}, {"time": 495, "pitch": 75, "duration": 5, "velocity": 99}, {"time": 501, "pitch": 70, "duration": 10, "velocity": 96}, {"time": 549, "pitch": 73, "duration": 3, "velocity": 112}, {"time": 555, "pitch": 73, "duration": 2, "velocity": 112}, {"time": 561, "pitch": 73, "duration": 6, "velocity": 82}, {"time": 567, "pitch": 75, "duration": 5, "velocity": 100}, {"time": 573, "pitch": 77, "duration": 3, "velocity": 89}, {"time": 579, "pitch": 80, "duration": 5, "velocity": 122}, {"time": 585, "pitch": 82, "duration": 5, "velocity": 112}, {"time": 591, "pitch": 80, "duration": 6, "velocity": 107}, {"time": 597, "pitch": 77, "duration": 11, "velocity": 107}, {"time": 645, "pitch": 75, "duration": 2, "velocity": 127}, {"time": 651, "pitch": 75, "duration": 3, "velocity": 99}, {"time": 657, "pitch": 75, "duration": 3, "velocity": 100}, {"time": 663, "pitch": 73, "duration": 3, "velocity": 102}, {"time": 669, "pitch": 75, "duration": 16, "velocity": 122}, {"time": 687, "pitch": 80, "duration": 4, "velocity": 117}, {"time": 693, "pitch": 77, "duration": 7, "velocity": 99}, {"time": 705, "pitch": 75, "duration": 6, "velocity": 117}, {"time": 711, "pitch": 73, "duration": 6, "velocity": 93}, {"time": 717, "pitch": 70, "duration": 18, "velocity": 122}, {"time": 741, "pitch": 82, "duration": 2, "velocity": 127}, {"time": 747, "pitch": 82, "duration": 2, "velocity": 112}, {"time": 753, "pitch": 82, "duration": 3, "velocity": 107}, {"time": 759, "pitch": 80, "duration": 2, "velocity": 99}, {"time": 765, "pitch": 82, "duration": 3, "velocity": 107}, {"time": 771, "pitch": 80, "duration": 2, "velocity": 112}, {"time": 777, "pitch": 77, "duration": 12, "velocity": 102}, {"time": 789, "pitch": 75, "duration": 36, "velocity": 107}, {"time": 837, "pitch": 73, "duration": 4, "velocity": 117}, {"time": 843, "pitch": 73, "duration": 3, "velocity": 102}, {"time": 849, "pitch": 73, "duration": 4, "velocity": 117}, {"time": 855, "pitch": 75, "duration": 5, "velocity": 112}, {"time": 861, "pitch": 77, "duration": 10, "velocity": 89}, {"time": 867, "pitch": 75, "duration": 5, "velocity": 117}, {"time": 873, "pitch": 73, "duration": 6, "velocity": 100}, {"time": 879, "pitch": 75, "duration": 5, "velocity": 99}, {"time": 885, "pitch": 70, "duration": 37, "velocity": 96}, {"time": 933, "pitch": 73, "duration": 3, "velocity": 112}, {"time": 939, "pitch": 73, "duration": 2, "velocity": 112}, {"time": 945, "pitch": 73, "duration": 6, "velocity": 82}, {"time": 951, "pitch": 75, "duration": 5, "velocity": 100}, {"time": 957, "pitch": 77, "duration": 3, "velocity": 89}, {"time": 963, "pitch": 80, "duration": 5, "velocity": 122}, {"time": 969, "pitch": 82, "duration": 5, "velocity": 112}, {"time": 975, "pitch": 80, "duration": 6, "velocity": 107}, {"time": 981, "pitch": 77, "duration": 40, "velocity": 107}, {"time": 1029, "pitch": 75, "duration": 2, "velocity": 127}, {"time": 1035, "pitch": 75, "duration": 3, "velocity": 99}, {"time": 1041, "pitch": 75, "duration": 3, "velocity": 100}, {"time": 1047, "pitch": 73, "duration": 3, "velocity": 102}, {"time": 1053, "pitch": 75, "duration": 16, "velocity": 122}, {"time": 1071, "pitch": 80, "duration": 4, "velocity": 117}, {"time": 1077, "pitch": 77, "duration": 7, "velocity": 99}, {"time": 1089, "pitch": 75, "duration": 6, "velocity": 117}, {"time": 1095, "pitch": 73, "duration": 6, "velocity": 93}, {"time": 1101, "pitch": 70, "duration": 18, "velocity": 122}, {"time": 1125, "pitch": 82, "duration": 2, "velocity": 127}, {"time": 1131, "pitch": 82, "duration": 2, "velocity": 112}, {"time": 1137, "pitch": 82, "duration": 3, "velocity": 107}, {"time": 1143, "pitch": 80, "duration": 4, "velocity": 122}, {"time": 1149, "pitch": 82, "duration": 5, "velocity": 107}, {"time": 1155, "pitch": 80, "duration": 3, "velocity": 112}, {"time": 1161, "pitch": 75, "duration": 4, "velocity": 122}, {"time": 1167, "pitch": 77, "duration": 8, "velocity": 95}, {"time": 1173, "pitch": 73, "duration": 31, "velocity": 97}, {"time": 1221, "pitch": 89, "duration": 2, "velocity": 127}, {"time": 1227, "pitch": 89, "duration": 2, "velocity": 99}, {"time": 1233, "pitch": 89, "duration": 2, "velocity": 107}, {"time": 1239, "pitch": 87, "duration": 2, "velocity": 117}, {"time": 1245, "pitch": 85, "duration": 2, "velocity": 112}, {"time": 1251, "pitch": 87, "duration": 2, "velocity": 107}, {"time": 1257, "pitch": 85, "duration": 5, "velocity": 122}, {"time": 1263, "pitch": 84, "duration": 5, "velocity": 122}, {"time": 1269, "pitch": 82, "duration": 19, "velocity": 112}, {"time": 1311, "pitch": 82, "duration": 4, "velocity": 99}, {"time": 1317, "pitch": 85, "duration": 3, "velocity": 112}, {"time": 1323, "pitch": 85, "duration": 3, "velocity": 122}, {"time": 1329, "pitch": 85, "duration": 3, "velocity": 112}, {"time": 1335, "pitch": 87, "duration": 4, "velocity": 112}, {"time": 1341, "pitch": 85, "duration": 4, "velocity": 127}, {"time": 1347, "pitch": 84, "duration": 4, "velocity": 122}, {"time": 1353, "pitch": 82, "duration": 4, "velocity": 107}, {"time": 1359, "pitch": 84, "duration": 4, "velocity": 93}, {"time": 1365, "pitch": 80, "duration": 36, "velocity": 107}, {"time": 1413, "pitch": 78, "duration": 3, "velocity": 107}, {"time": 1419, "pitch": 78, "duration": 2, "velocity": 97}, {"time": 1425, "pitch": 78, "duration": 3, "velocity": 107}, {"time": 1431, "pitch": 77, "duration": 3, "velocity": 97}, {"time": 1437, "pitch": 75, "duration": 12, "velocity": 102}, {"time": 1449, "pitch": 77, "duration": 11, "velocity": 96}, {"time": 1461, "pitch": 70, "duration": 31, "velocity": 92}, {"time": 1503, "pitch": 70, "duration": 4, "velocity": 102}, {"time": 1509, "pitch": 75, "duration": 3, "velocity": 107}, {"time": 1515, "pitch": 75, "duration": 2, "velocity": 122}, {"time": 1521, "pitch": 75, "duration": 3, "velocity": 107}, {"time": 1527, "pitch": 77, "duration": 4, "velocity": 102}, {"time": 1533, "pitch": 78, "duration": 3, "velocity": 127}, {"time": 1539, "pitch": 85, "duration": 4, "velocity": 112}, {"time": 1545, "pitch": 84, "duration": 5, "velocity": 97}, {"time": 1551, "pitch": 82, "duration": 4, "velocity": 117}, {"time": 1557, "pitch": 80, "duration": 37, "velocity": 107}, {"time": 1605, "pitch": 89, "duration": 2, "velocity": 127}, {"time": 1611, "pitch": 89, "duration": 2, "velocity": 99}, {"time": 1617, "pitch": 89, "duration": 2, "velocity": 107}, {"time": 1623, "pitch": 87, "duration": 2, "velocity": 117}, {"time": 1629, "pitch": 85, "duration": 2, "velocity": 112}, {"time": 1635, "pitch": 87, "duration": 2, "velocity": 107}, {"time": 1641, "pitch": 85, "duration": 5, "velocity": 122}, {"time": 1647, "pitch": 84, "duration": 5, "velocity": 122}, {"time": 1653, "pitch": 82, "duration": 19, "velocity": 112}, {"time": 1695, "pitch": 82, "duration": 4, "velocity": 99}, {"time": 1701, "pitch": 85, "duration": 3, "velocity": 112}, {"time": 1707, "pitch": 85, "duration": 3, "velocity": 122}, {"time": 1713, "pitch": 85, "duration": 3, "velocity": 112}, {"time": 1719, "pitch": 87, "duration": 4, "velocity": 112}, {"time": 1725, "pitch": 85, "duration": 4, "velocity": 127}, {"time": 1731, "pitch": 84, "duration": 4, "velocity": 122}, {"time": 1737, "pitch": 82, "duration": 4, "velocity": 107}, {"time": 1743, "pitch": 84, "duration": 4, "velocity": 93}, {"time": 1749, "pitch": 80, "duration": 36, "velocity": 107}, {"time": 1797, "pitch": 78, "duration": 3, "velocity": 107}, {"time": 1803, "pitch": 78, "duration": 2, "velocity": 97}, {"time": 1809, "pitch": 78, "duration": 3, "velocity": 107}, {"time": 1815, "pitch": 77, "duration": 3, "velocity": 97}, {"time": 1821, "pitch": 75, "duration": 12, "velocity": 102}, {"time": 1833, "pitch": 77, "duration": 11, "velocity": 96}, {"time": 1845, "pitch": 70, "duration": 31, "velocity": 92}, {"time": 1881, "pitch": 70, "duration": 3, "velocity": 102}, {"time": 1887, "pitch": 73, "duration": 3, "velocity": 117}, {"time": 1893, "pitch": 75, "duration": 2, "velocity": 97}, {"time": 1899, "pitch": 75, "duration": 2, "velocity": 107}, {"time": 1905, "pitch": 75, "duration": 1, "velocity": 122}, {"time": 1911, "pitch": 77, "duration": 4, "velocity": 97}, {"time": 1917, "pitch": 78, "duration": 4, "velocity": 112}, {"time": 1929, "pitch": 84, "duration": 5, "velocity": 102}, {"time": 1935, "pitch": 82, "duration": 5, "velocity": 107}, {"time": 1941, "pitch": 80, "duration": 26, "velocity": 97}, {"time": 1989, "pitch": 89, "duration": 2, "velocity": 122}, {"time": 1995, "pitch": 89, "duration": 2, "velocity": 112}, {"time": 2001, "pitch": 89, "duration": 2, "velocity": 117}, {"time": 2007, "pitch": 89, "duration": 3, "velocity": 122}, {"time": 2013, "pitch": 89, "duration": 3, "velocity": 112}, {"time": 2019, "pitch": 89, "duration": 3, "velocity": 122}, {"time": 2025, "pitch": 87, "duration": 4, "velocity": 107}, {"time": 2031, "pitch": 85, "duration": 3, "velocity": 117}, {"time": 2037, "pitch": 87, "duration": 7, "velocity": 122}, {"time": 2049, "pitch": 85, "duration": 4, "velocity": 107}, {"time": 2055, "pitch": 84, "duration": 5, "velocity": 92}, {"time": 2061, "pitch": 82, "duration": 13, "velocity": 107}, {"time": 2085, "pitch": 87, "duration": 3, "velocity": 127}, {"time": 2091, "pitch": 87, "duration": 2, "velocity": 117}, {"time": 2097, "pitch": 87, "duration": 2, "velocity": 127}, {"time": 2103, "pitch": 89, "duration": 2, "velocity": 112}, {"time": 2109, "pitch": 87, "duration": 1, "velocity": 127}, {"time": 2115, "pitch": 87, "duration": 3, "velocity": 112}, {"time": 2121, "pitch": 85, "duration": 3, "velocity": 100}, {"time": 2127, "pitch": 82, "duration": 4, "velocity": 112}, {"time": 2133, "pitch": 85, "duration": 5, "velocity": 112}, {"time": 2145, "pitch": 82, "duration": 5, "velocity": 122}, {"time": 2151, "pitch": 80, "duration": 2, "velocity": 102}, {"time": 2157, "pitch": 80, "duration": 21, "velocity": 127}, {"time": 2181, "pitch": 78, "duration": 2, "velocity": 117}, {"time": 2187, "pitch": 78, "duration": 2, "velocity": 112}, {"time": 2193, "pitch": 78, "duration": 2, "velocity": 117}, {"time": 2199, "pitch": 77, "duration": 3, "velocity": 95}, {"time": 2205, "pitch": 75, "duration": 5, "velocity": 102}, {"time": 2211, "pitch": 80, "duration": 4, "velocity": 100}, {"time": 2217, "pitch": 77, "duration": 6, "velocity": 99}, {"time": 2223, "pitch": 75, "duration": 6, "velocity": 96}, {"time": 2229, "pitch": 73, "duration": 29, "velocity": 92}, {"time": 2661, "pitch": 73, "duration": 4, "velocity": 117}, {"time": 2667, "pitch": 73, "duration": 3, "velocity": 102}, {"time": 2673, "pitch": 73, "duration": 4, "velocity": 117}, {"time": 2679, "pitch": 75, "duration": 5, "velocity": 112}, {"time": 2685, "pitch": 77, "duration": 10, "velocity": 89}, {"time": 2691, "pitch": 75, "duration": 5, "velocity": 117}, {"time": 2697, "pitch": 73, "duration": 6, "velocity": 100}, {"time": 2703, "pitch": 75, "duration": 5, "velocity": 99}, {"time": 2709, "pitch": 70, "duration": 37, "velocity": 96}, {"time": 2757, "pitch": 73, "duration": 3, "velocity": 112}, {"time": 2763, "pitch": 73, "duration": 2, "velocity": 112}, {"time": 2769, "pitch": 73, "duration": 6, "velocity": 82}, {"time": 2775, "pitch": 75, "duration": 5, "velocity": 100}, {"time": 2781, "pitch": 77, "duration": 3, "velocity": 89}, {"time": 2787, "pitch": 80, "duration": 5, "velocity": 122}, {"time": 2793, "pitch": 82, "duration": 5, "velocity": 112}, {"time": 2799, "pitch": 80, "duration": 6, "velocity": 107}, {"time": 2805, "pitch": 77, "duration": 40, "velocity": 107}, {"time": 2853, "pitch": 75, "duration": 2, "velocity": 127}, {"time": 2859, "pitch": 75, "duration": 3, "velocity": 99}, {"time": 2865, "pitch": 75, "duration": 3, "velocity": 100}, {"time": 2871, "pitch": 73, "duration": 3, "velocity": 102}, {"time": 2877, "pitch": 75, "duration": 16, "velocity": 122}, {"time": 2895, "pitch": 80, "duration": 4, "velocity": 117}, {"time": 2901, "pitch": 77, "duration": 7, "velocity": 99}, {"time": 2913, "pitch": 75, "duration": 6, "velocity": 117}, {"time": 2919, "pitch": 73, "duration": 6, "velocity": 93}, {"time": 2925, "pitch": 70, "duration": 18, "velocity": 122}, {"time": 2949, "pitch": 82, "duration": 2, "velocity": 127}, {"time": 2955, "pitch": 82, "duration": 2, "velocity": 112}, {"time": 2961, "pitch": 82, "duration": 3, "velocity": 107}, {"time": 2967, "pitch": 80, "duration": 4, "velocity": 122}, {"time": 2973, "pitch": 82, "duration": 5, "velocity": 107}, {"time": 2979, "pitch": 80, "duration": 3, "velocity": 112}, {"time": 2985, "pitch": 75, "duration": 4, "velocity": 122}, {"time": 2991, "pitch": 77, "duration": 8, "velocity": 95}, {"time": 2997, "pitch": 73, "duration": 31, "velocity": 97}, {"time": 3045, "pitch": 89, "duration": 2, "velocity": 127}, {"time": 3051, "pitch": 89, "duration": 2, "velocity": 99}, {"time": 3057, "pitch": 89, "duration": 2, "velocity": 107}, {"time": 3063, "pitch": 87, "duration": 2, "velocity": 117}, {"time": 3069, "pitch": 85, "duration": 2, "velocity": 112}, {"time": 3075, "pitch": 87, "duration": 2, "velocity": 107}, {"time": 3081, "pitch": 85, "duration": 5, "velocity": 122}, {"time": 3087, "pitch": 84, "duration": 5, "velocity": 122}, {"time": 3093, "pitch": 82, "duration": 19, "velocity": 112}, {"time": 3135, "pitch": 82, "duration": 4, "velocity": 99}, {"time": 3141, "pitch": 85, "duration": 3, "velocity": 112}, {"time": 3147, "pitch": 85, "duration": 3, "velocity": 122}, {"time": 3153, "pitch": 85, "duration": 3, "velocity": 112}, {"time": 3159, "pitch": 87, "duration": 4, "velocity": 112}, {"time": 3165, "pitch": 85, "duration": 4, "velocity": 127}, {"time": 3171, "pitch": 84, "duration": 4, "velocity": 122}, {"time": 3177, "pitch": 82, "duration": 4, "velocity": 107}, {"time": 3183, "pitch": 84, "duration": 4, "velocity": 93}, {"time": 3189, "pitch": 80, "duration": 36, "velocity": 107}, {"time": 3237, "pitch": 78, "duration": 3, "velocity": 107}, {"time": 3243, "pitch": 78, "duration": 2, "velocity": 97}, {"time": 3249, "pitch": 78, "duration": 3, "velocity": 107}, {"time": 3255, "pitch": 77, "duration": 3, "velocity": 97}, {"time": 3261, "pitch": 75, "duration": 12, "velocity": 102}, {"time": 3273, "pitch": 77, "duration": 11, "velocity": 96}, {"time": 3285, "pitch": 70, "duration": 31, "velocity": 92}, {"time": 3327, "pitch": 70, "duration": 4, "velocity": 102}, {"time": 3333, "pitch": 75, "duration": 3, "velocity": 107}, {"time": 3339, "pitch": 75, "duration": 2, "velocity": 122}, {"time": 3345, "pitch": 75, "duration": 3, "velocity": 107}, {"time": 3351, "pitch": 77, "duration": 4, "velocity": 102}, {"time": 3357, "pitch": 78, "duration": 3, "velocity": 127}, {"time": 3363, "pitch": 85, "duration": 4, "velocity": 112}, {"time": 3369, "pitch": 84, "duration": 5, "velocity": 97}, {"time": 3375, "pitch": 82, "duration": 4, "velocity": 117}, {"time": 3381, "pitch": 80, "duration": 37, "velocity": 107}, {"time": 3429, "pitch": 89, "duration": 2, "velocity": 127}, {"time": 3435, "pitch": 89, "duration": 2, "velocity": 99}, {"time": 3441, "pitch": 89, "duration": 2, "velocity": 107}, {"time": 3447, "pitch": 87, "duration": 2, "velocity": 117}, {"time": 3453, "pitch": 85, "duration": 2, "velocity": 112}, {"time": 3459, "pitch": 87, "duration": 2, "velocity": 107}, {"time": 3465, "pitch": 85, "duration": 5, "velocity": 122}, {"time": 3471, "pitch": 84, "duration": 5, "velocity": 122}, {"time": 3477, "pitch": 82, "duration": 19, "velocity": 112}, {"time": 3519, "pitch": 82, "duration": 4, "velocity": 99}, {"time": 3525, "pitch": 85, "duration": 3, "velocity": 112}, {"time": 3531, "pitch": 85, "duration": 3, "velocity": 122}, {"time": 3537, "pitch": 85, "duration": 3, "velocity": 112}, {"time": 3543, "pitch": 87, "duration": 4, "velocity": 112}, {"time": 3549, "pitch": 85, "duration": 4, "velocity": 127}, {"time": 3555, "pitch": 84, "duration": 4, "velocity": 122}, {"time": 3561, "pitch": 82, "duration": 4, "velocity": 107}, {"time": 3567, "pitch": 84, "duration": 4, "velocity": 93}, {"time": 3573, "pitch": 80, "duration": 36, "velocity": 107}, {"time": 3621, "pitch": 78, "duration": 3, "velocity": 107}, {"time": 3627, "pitch": 78, "duration": 2, "velocity": 97}, {"time": 3633, "pitch": 78, "duration": 3, "velocity": 107}, {"time": 3639, "pitch": 77, "duration": 3, "velocity": 97}, {"time": 3645, "pitch": 75, "duration": 12, "velocity": 102}, {"time": 3657, "pitch": 77, "duration": 11, "velocity": 96}, {"time": 3669, "pitch": 70, "duration": 31, "velocity": 92}, {"time": 3705, "pitch": 70, "duration": 3, "velocity": 102}, {"time": 3711, "pitch": 73, "duration": 3, "velocity": 117}, {"time": 3717, "pitch": 75, "duration": 2, "velocity": 97}, {"time": 3723, "pitch": 75, "duration": 2, "velocity": 107}, {"time": 3729, "pitch": 75, "duration": 1, "velocity": 122}, {"time": 3735, "pitch": 77, "duration": 4, "velocity": 97}, {"time": 3741, "pitch": 78, "duration": 4, "velocity": 112}, {"time": 3753, "pitch": 84, "duration": 5, "velocity": 102}, {"time": 3759, "pitch": 82, "duration": 5, "velocity": 107}, {"time": 3765, "pitch": 80, "duration": 26, "velocity": 97}, {"time": 3813, "pitch": 89, "duration": 2, "velocity": 122}, {"time": 3819, "pitch": 89, "duration": 2, "velocity": 112}, {"time": 3825, "pitch": 89, "duration": 2, "velocity": 117}, {"time": 3831, "pitch": 89, "duration": 3, "velocity": 122}, {"time": 3837, "pitch": 89, "duration": 3, "velocity": 112}, {"time": 3843, "pitch": 89, "duration": 3, "velocity": 122}, {"time": 3849, "pitch": 87, "duration": 4, "velocity": 107}, {"time": 3855, "pitch": 85, "duration": 3, "velocity": 117}, {"time": 3861, "pitch": 87, "duration": 7, "velocity": 122}, {"time": 3873, "pitch": 85, "duration": 4, "velocity": 107}, {"time": 3879, "pitch": 84, "duration": 5, "velocity": 92}, {"time": 3885, "pitch": 82, "duration": 13, "velocity": 107}, {"time": 3909, "pitch": 87, "duration": 3, "velocity": 127}, {"time": 3915, "pitch": 87, "duration": 2, "velocity": 117}, {"time": 3921, "pitch": 87, "duration": 2, "velocity": 127}, {"time": 3927, "pitch": 89, "duration": 2, "velocity": 112}, {"time": 3933, "pitch": 87, "duration": 1, "velocity": 127}, {"time": 3939, "pitch": 87, "duration": 3, "velocity": 112}, {"time": 3945, "pitch": 85, "duration": 3, "velocity": 100}, {"time": 3951, "pitch": 82, "duration": 4, "velocity": 112}, {"time": 3957, "pitch": 85, "duration": 5, "velocity": 112}, {"time": 3969, "pitch": 82, "duration": 5, "velocity": 122}, {"time": 3975, "pitch": 80, "duration": 2, "velocity": 102}, {"time": 3981, "pitch": 80, "duration": 21, "velocity": 127}, {"time": 4005, "pitch": 78, "duration": 2, "velocity": 117}, {"time": 4011, "pitch": 78, "duration": 2, "velocity": 112}, {"time": 4017, "pitch": 78, "duration": 2, "velocity": 117}, {"time": 4023, "pitch": 77, "duration": 3, "velocity": 95}, {"time": 4029, "pitch": 75, "duration": 5, "velocity": 102}, {"time": 4035, "pitch": 80, "duration": 4, "velocity": 100}, {"time": 4041, "pitch": 77, "duration": 6, "velocity": 99}, {"time": 4047, "pitch": 75, "duration": 6, "velocity": 96}, {"time": 4053, "pitch": 73, "duration": 29, "velocity": 92}, {"time": 4101, "pitch": 89, "duration": 2, "velocity": 127}, {"time": 4107, "pitch": 89, "duration": 2, "velocity": 99}, {"time": 4113, "pitch": 89, "duration": 2, "velocity": 107}, {"time": 4119, "pitch": 87, "duration": 2, "velocity": 117}, {"time": 4125, "pitch": 85, "duration": 2, "velocity": 112}, {"time": 4131, "pitch": 87, "duration": 2, "velocity": 107}, {"time": 4137, "pitch": 85, "duration": 5, "velocity": 122}, {"time": 4143, "pitch": 84, "duration": 5, "velocity": 122}, {"time": 4149, "pitch": 82, "duration": 19, "velocity": 112}, {"time": 4191, "pitch": 82, "duration": 4, "velocity": 99}, {"time": 4197, "pitch": 85, "duration": 3, "velocity": 112}, {"time": 4203, "pitch": 85, "duration": 3, "velocity": 122}, {"time": 4209, "pitch": 85, "duration": 3, "velocity": 112}, {"time": 4215, "pitch": 87, "duration": 4, "velocity": 112}, {"time": 4221, "pitch": 85, "duration": 4, "velocity": 127}, {"time": 4227, "pitch": 84, "duration": 4, "velocity": 122}, {"time": 4233, "pitch": 82, "duration": 4, "velocity": 107}, {"time": 4239, "pitch": 84, "duration": 4, "velocity": 93}, {"time": 4245, "pitch": 80, "duration": 36, "velocity": 107}, {"time": 4293, "pitch": 78, "duration": 3, "velocity": 107}, {"time": 4299, "pitch": 78, "duration": 2, "velocity": 97}, {"time": 4305, "pitch": 78, "duration": 3, "velocity": 107}, {"time": 4311, "pitch": 77, "duration": 3, "velocity": 97}, {"time": 4317, "pitch": 75, "duration": 12, "velocity": 102}, {"time": 4329, "pitch": 77, "duration": 11, "velocity": 96}, {"time": 4341, "pitch": 70, "duration": 31, "velocity": 92}, {"time": 4383, "pitch": 70, "duration": 4, "velocity": 102}, {"time": 4389, "pitch": 75, "duration": 3, "velocity": 107}, {"time": 4395, "pitch": 75, "duration": 2, "velocity": 122}, {"time": 4401, "pitch": 75, "duration": 3, "velocity": 107}, {"time": 4407, "pitch": 77, "duration": 4, "velocity": 102}, {"time": 4413, "pitch": 78, "duration": 3, "velocity": 127}, {"time": 4419, "pitch": 85, "duration": 4, "velocity": 112}, {"time": 4425, "pitch": 84, "duration": 5, "velocity": 97}, {"time": 4431, "pitch": 82, "duration": 4, "velocity": 117}, {"time": 4437, "pitch": 80, "duration": 37, "velocity": 107}, {"time": 4485, "pitch": 89, "duration": 2, "velocity": 127}, {"time": 4491, "pitch": 89, "duration": 2, "velocity": 99}, {"time": 4497, "pitch": 89, "duration": 2, "velocity": 107}, {"time": 4503, "pitch": 87, "duration": 2, "velocity": 117}, {"time": 4509, "pitch": 85, "duration": 2, "velocity": 112}, {"time": 4515, "pitch": 87, "duration": 2, "velocity": 107}, {"time": 4521, "pitch": 85, "duration": 5, "velocity": 122}, {"time": 4527, "pitch": 84, "duration": 5, "velocity": 122}, {"time": 4533, "pitch": 82, "duration": 19, "velocity": 112}, {"time": 4575, "pitch": 82, "duration": 4, "velocity": 99}, {"time": 4581, "pitch": 85, "duration": 3, "velocity": 112}, {"time": 4587, "pitch": 85, "duration": 3, "velocity": 122}, {"time": 4593, "pitch": 85, "duration": 3, "velocity": 112}, {"time": 4599, "pitch": 87, "duration": 4, "velocity": 112}, {"time": 4605, "pitch": 85, "duration": 4, "velocity": 127}, {"time": 4611, "pitch": 84, "duration": 4, "velocity": 122}, {"time": 4617, "pitch": 82, "duration": 4, "velocity": 107}, {"time": 4623, "pitch": 84, "duration": 4, "velocity": 93}, {"time": 4629, "pitch": 80, "duration": 36, "velocity": 107}, {"time": 4677, "pitch": 78, "duration": 3, "velocity": 107}, {"time": 4683, "pitch": 78, "duration": 2, "velocity": 97}, {"time": 4689, "pitch": 78, "duration": 3, "velocity": 107}, {"time": 4695, "pitch": 77, "duration": 3, "velocity": 97}, {"time": 4701, "pitch": 75, "duration": 12, "velocity": 102}, {"time": 4713, "pitch": 77, "duration": 11, "velocity": 96}, {"time": 4725, "pitch": 70, "duration": 31, "velocity": 92}, {"time": 4761, "pitch": 70, "duration": 3, "velocity": 102}, {"time": 4767, "pitch": 73, "duration": 3, "velocity": 117}, {"time": 4773, "pitch": 75, "duration": 2, "velocity": 97}, {"time": 4779, "pitch": 75, "duration": 2, "velocity": 107}, {"time": 4785, "pitch": 75, "duration": 1, "velocity": 122}, {"time": 4791, "pitch": 77, "duration": 4, "velocity": 97}, {"time": 4797, "pitch": 78, "duration": 4, "velocity": 112}, {"time": 4809, "pitch": 84, "duration": 5, "velocity": 102}, {"time": 4815, "pitch": 82, "duration": 5, "velocity": 107}, {"time": 4821, "pitch": 80, "duration": 26, "velocity": 97}, {"time": 4869, "pitch": 89, "duration": 2, "velocity": 122}, {"time": 4875, "pitch": 89, "duration": 2, "velocity": 112}, {"time": 4881, "pitch": 89, "duration": 2, "velocity": 117}, {"time": 4887, "pitch": 89, "duration": 3, "velocity": 122}, {"time": 4893, "pitch": 89, "duration": 3, "velocity": 112}, {"time": 4899, "pitch": 89, "duration": 3, "velocity": 122}, {"time": 4905, "pitch": 87, "duration": 4, "velocity": 107}, {"time": 4911, "pitch": 85, "duration": 3, "velocity": 117}, {"time": 4917, "pitch": 87, "duration": 7, "velocity": 122}, {"time": 4929, "pitch": 85, "duration": 4, "velocity": 107}, {"time": 4935, "pitch": 84, "duration": 5, "velocity": 92}, {"time": 4941, "pitch": 82, "duration": 13, "velocity": 107}, {"time": 4965, "pitch": 87, "duration": 3, "velocity": 127}, {"time": 4971, "pitch": 87, "duration": 2, "velocity": 117}, {"time": 4977, "pitch": 87, "duration": 2, "velocity": 127}, {"time": 4983, "pitch": 89, "duration": 2, "velocity": 112}, {"time": 4989, "pitch": 87, "duration": 1, "velocity": 127}, {"time": 4995, "pitch": 87, "duration": 3, "velocity": 112}, {"time": 5001, "pitch": 85, "duration": 3, "velocity": 100}, {"time": 5007, "pitch": 82, "duration": 4, "velocity": 112}, {"time": 5013, "pitch": 85, "duration": 5, "velocity": 112}, {"time": 5025, "pitch": 82, "duration": 5, "velocity": 122}, {"time": 5031, "pitch": 80, "duration": 2, "velocity": 102}, {"time": 5037, "pitch": 80, "duration": 21, "velocity": 127}, {"time": 5061, "pitch": 78, "duration": 2, "velocity": 117}, {"time": 5067, "pitch": 78, "duration": 2, "velocity": 112}, {"time": 5073, "pitch": 78, "duration": 2, "velocity": 117}, {"time": 5079, "pitch": 77, "duration": 3, "velocity": 95}, {"time": 5085, "pitch": 75, "duration": 5, "velocity": 102}, {"time": 5091, "pitch": 80, "duration": 4, "velocity": 100}, {"time": 5097, "pitch": 77, "duration": 6, "velocity": 99}, {"time": 5103, "pitch": 75, "duration": 6, "velocity": 96}, {"time": 5109, "pitch": 73, "duration": 29, "velocity": 92}, {"time": 5157, "pitch": 78, "duration": 3, "velocity": 127}, {"time": 5163, "pitch": 78, "duration": 3, "velocity": 117}, {"time": 5169, "pitch": 78, "duration": 4, "velocity": 127}, {"time": 5175, "pitch": 77, "duration": 5, "velocity": 127}, {"time": 5181, "pitch": 75, "duration": 5, "velocity": 127}, {"time": 5187, "pitch": 80, "duration": 5, "velocity": 122}, {"time": 5193, "pitch": 77, "duration": 6, "velocity": 107}, {"time": 5199, "pitch": 75, "duration": 6, "velocity": 107}, {"time": 5205, "pitch": 73, "duration": 43, "velocity": 107}], "annotations": [{"time": 729, "annotation": {"number": 64, "value": 65}, "group": "control_change"}, {"time": 825, "annotation": {"number": 64, "value": 66}, "group": "control_change"}, {"time": 945, "annotation": {"number": 64, "value": 67}, "group": "control_change"}, {"time": 1041, "annotation": {"number": 64, "value": 68}, "group": "control_change"}, {"time": 1989, "annotation": {"number": 64, "value": 69}, "group": "control_change"}, {"time": 2505, "annotation": {"number": 64, "value": 68}, "group": "control_change"}, {"time": 2685, "annotation": {"number": 64, "value": 67}, "group": "control_change"}, {"time": 3213, "annotation": {"number": 64, "value": 66}, "group": "control_change"}, {"time": 3393, "annotation": {"number": 64, "value": 67}, "group": "control_change"}, {"time": 3585, "annotation": {"number": 64, "value": 68}, "group": "control_change"}, {"time": 4941, "annotation": {"number": 64, "value": 69}, "group": "control_change"}, {"time": 5205, "annotation": {"number": 64, "value": 70}, "group": "control_change"}, {"time": 5613, "annotation": {"number": 64, "value": 71}, "group": "control_change"}]}, {"program": 0, "is_drum": false, "name": "BRIDGE", "notes": [{"time": 57, "pitch": 73, "duration": 5, "velocity": 127}, {"time": 63, "pitch": 75, "duration": 4, "velocity": 127}, {"time": 69, "pitch": 77, "duration": 16, "velocity": 112}, {"time": 87, "pitch": 75, "duration": 6, "velocity": 127}, {"time": 93, "pitch": 77, "duration": 6, "velocity": 102}, {"time": 99, "pitch": 80, "duration": 6, "velocity": 112}, {"time": 105, "pitch": 82, "duration": 6, "velocity": 112}, {"time": 111, "pitch": 80, "duration": 5, "velocity": 127}, {"time": 117, "pitch": 77, "duration": 29, "velocity": 112}, {"time": 153, "pitch": 68, "duration": 5, "velocity": 127}, {"time": 159, "pitch": 70, "duration": 5, "velocity": 127}, {"time": 165, "pitch": 73, "duration": 13, "velocity": 127}, {"time": 183, "pitch": 70, "duration": 4, "velocity": 112}, {"time": 189, "pitch": 73, "duration": 9, "velocity": 127}, {"time": 201, "pitch": 73, "duration": 5, "velocity": 127}, {"time": 207, "pitch": 77, "duration": 6, "velocity": 102}, {"time": 213, "pitch": 75, "duration": 27, "velocity": 127}, {"time": 243, "pitch": 85, "duration": 4, "velocity": 127}, {"time": 249, "pitch": 84, "duration": 5, "velocity": 117}, {"time": 255, "pitch": 82, "duration": 5, "velocity": 102}, {"time": 261, "pitch": 80, "duration": 13, "velocity": 117}, {"time": 279, "pitch": 80, "duration": 3, "velocity": 127}, {"time": 285, "pitch": 80, "duration": 6, "velocity": 127}, {"time": 291, "pitch": 82, "duration": 5, "velocity": 122}, {"time": 297, "pitch": 80, "duration": 4, "velocity": 117}, {"time": 303, "pitch": 77, "duration": 5, "velocity": 107}, {"time": 309, "pitch": 75, "duration": 12, "velocity": 127}, {"time": 327, "pitch": 73, "duration": 5, "velocity": 127}, {"time": 333, "pitch": 70, "duration": 11, "velocity": 122}, {"time": 345, "pitch": 70, "duration": 5, "velocity": 127}, {"time": 351, "pitch": 73, "duration": 5, "velocity": 127}, {"time": 357, "pitch": 75, "duration": 11, "velocity": 127}, {"time": 375, "pitch": 73, "duration": 4, "velocity": 117}, {"time": 381, "pitch": 80, "duration": 5, "velocity": 127}, {"time": 387, "pitch": 77, "duration": 5, "velocity": 102}, {"time": 393, "pitch": 75, "duration": 6, "velocity": 117}, {"time": 399, "pitch": 73, "duration": 3, "velocity": 96}, {"time": 405, "pitch": 73, "duration": 37, "velocity": 122}, {"time": 885, "pitch": 82, "duration": 10, "velocity": 105}, {"time": 896, "pitch": 80, "duration": 12, "velocity": 100}, {"time": 908, "pitch": 77, "duration": 17, "velocity": 95}, {"time": 980, "pitch": 85, "duration": 10, "velocity": 101}, {"time": 992, "pitch": 84, "duration": 10, "velocity": 100}, {"time": 1004, "pitch": 80, "duration": 17, "velocity": 100}, {"time": 1280, "pitch": 85, "duration": 6, "velocity": 104}, {"time": 1286, "pitch": 84, "duration": 7, "velocity": 101}, {"time": 1292, "pitch": 82, "duration": 14, "velocity": 98}, {"time": 1370, "pitch": 85, "duration": 6, "velocity": 102}, {"time": 1375, "pitch": 84, "duration": 5, "velocity": 102}, {"time": 1382, "pitch": 82, "duration": 7, "velocity": 102}, {"time": 1388, "pitch": 80, "duration": 16, "velocity": 99}, {"time": 1556, "pitch": 84, "duration": 7, "velocity": 103}, {"time": 1562, "pitch": 85, "duration": 7, "velocity": 103}, {"time": 1568, "pitch": 84, "duration": 7, "velocity": 102}, {"time": 1574, "pitch": 82, "duration": 4, "velocity": 102}, {"time": 1580, "pitch": 80, "duration": 17, "velocity": 102}, {"time": 1664, "pitch": 85, "duration": 6, "velocity": 91}, {"time": 1670, "pitch": 84, "duration": 7, "velocity": 91}, {"time": 1676, "pitch": 82, "duration": 14, "velocity": 91}, {"time": 2265, "pitch": 73, "duration": 5, "velocity": 127}, {"time": 2271, "pitch": 75, "duration": 4, "velocity": 127}, {"time": 2277, "pitch": 77, "duration": 16, "velocity": 112}, {"time": 2295, "pitch": 75, "duration": 6, "velocity": 127}, {"time": 2301, "pitch": 77, "duration": 6, "velocity": 102}, {"time": 2307, "pitch": 80, "duration": 6, "velocity": 112}, {"time": 2313, "pitch": 82, "duration": 6, "velocity": 112}, {"time": 2319, "pitch": 80, "duration": 5, "velocity": 127}, {"time": 2325, "pitch": 77, "duration": 29, "velocity": 112}, {"time": 2361, "pitch": 68, "duration": 5, "velocity": 127}, {"time": 2367, "pitch": 70, "duration": 5, "velocity": 127}, {"time": 2373, "pitch": 73, "duration": 13, "velocity": 127}, {"time": 2391, "pitch": 70, "duration": 4, "velocity": 112}, {"time": 2397, "pitch": 73, "duration": 9, "velocity": 127}, {"time": 2409, "pitch": 73, "duration": 5, "velocity": 127}, {"time": 2415, "pitch": 77, "duration": 6, "velocity": 102}, {"time": 2421, "pitch": 75, "duration": 27, "velocity": 127}, {"time": 2451, "pitch": 85, "duration": 4, "velocity": 127}, {"time": 2457, "pitch": 84, "duration": 5, "velocity": 117}, {"time": 2463, "pitch": 82, "duration": 5, "velocity": 102}, {"time": 2469, "pitch": 80, "duration": 13, "velocity": 117}, {"time": 2487, "pitch": 80, "duration": 3, "velocity": 127}, {"time": 2493, "pitch": 80, "duration": 6, "velocity": 127}, {"time": 2499, "pitch": 82, "duration": 5, "velocity": 122}, {"time": 2505, "pitch": 80, "duration": 4, "velocity": 117}, {"time": 2511, "pitch": 77, "duration": 5, "velocity": 107}, {"time": 2517, "pitch": 75, "duration": 12, "velocity": 127}, {"time": 2535, "pitch": 73, "duration": 5, "velocity": 127}, {"time": 2541, "pitch": 70, "duration": 11, "velocity": 122}, {"time": 2553, "pitch": 70, "duration": 5, "velocity": 127}, {"time": 2559, "pitch": 73, "duration": 5, "velocity": 127}, {"time": 2565, "pitch": 75, "duration": 11, "velocity": 127}, {"time": 2583, "pitch": 73, "duration": 4, "velocity": 117}, {"time": 2589, "pitch": 80, "duration": 5, "velocity": 127}, {"time": 2595, "pitch": 77, "duration": 5, "velocity": 102}, {"time": 2601, "pitch": 75, "duration": 6, "velocity": 117}, {"time": 2607, "pitch": 73, "duration": 3, "velocity": 96}, {"time": 2613, "pitch": 73, "duration": 24, "velocity": 122}, {"time": 2708, "pitch": 77, "duration": 13, "velocity": 100}, {"time": 2720, "pitch": 75, "duration": 12, "velocity": 100}, {"time": 2732, "pitch": 73, "duration": 13, "velocity": 100}, {"time": 2804, "pitch": 82, "duration": 12, "velocity": 97}, {"time": 2816, "pitch": 80, "duration": 13, "velocity": 97}, {"time": 2828, "pitch": 77, "duration": 17, "velocity": 97}, {"time": 3093, "pitch": 77, "duration": 6, "velocity": 106}, {"time": 3099, "pitch": 78, "duration": 5, "velocity": 106}, {"time": 3104, "pitch": 77, "duration": 6, "velocity": 103}, {"time": 3109, "pitch": 75, "duration": 4, "velocity": 98}, {"time": 3115, "pitch": 73, "duration": 12, "velocity": 89}, {"time": 3189, "pitch": 84, "duration": 10, "velocity": 104}, {"time": 3200, "pitch": 82, "duration": 12, "velocity": 104}, {"time": 3212, "pitch": 80, "duration": 20, "velocity": 100}, {"time": 3411, "pitch": 84, "duration": 6, "velocity": 93}, {"time": 3417, "pitch": 85, "duration": 6, "velocity": 94}, {"time": 3422, "pitch": 87, "duration": 6, "velocity": 98}, {"time": 3429, "pitch": 89, "duration": 25, "velocity": 102}, {"time": 3477, "pitch": 85, "duration": 5, "velocity": 107}, {"time": 3482, "pitch": 87, "duration": 7, "velocity": 105}, {"time": 3488, "pitch": 85, "duration": 7, "velocity": 103}, {"time": 3494, "pitch": 84, "duration": 5, "velocity": 101}, {"time": 3500, "pitch": 82, "duration": 12, "velocity": 99}, {"time": 3584, "pitch": 84, "duration": 6, "velocity": 104}, {"time": 3590, "pitch": 82, "duration": 6, "velocity": 100}, {"time": 3596, "pitch": 80, "duration": 15, "velocity": 97}, {"time": 3794, "pitch": 80, "duration": 3, "velocity": 92}, {"time": 3794, "pitch": 84, "duration": 4, "velocity": 92}, {"time": 3800, "pitch": 82, "duration": 3, "velocity": 99}, {"time": 3800, "pitch": 85, "duration": 3, "velocity": 99}, {"time": 3806, "pitch": 84, "duration": 3, "velocity": 108}, {"time": 3806, "pitch": 87, "duration": 3, "velocity": 108}, {"time": 3812, "pitch": 89, "duration": 13, "velocity": 116}, {"time": 3812, "pitch": 85, "duration": 13, "velocity": 116}, {"time": 4532, "pitch": 85, "duration": 6, "velocity": 102}, {"time": 4538, "pitch": 87, "duration": 7, "velocity": 102}, {"time": 4544, "pitch": 85, "duration": 6, "velocity": 102}, {"time": 4550, "pitch": 84, "duration": 6, "velocity": 102}, {"time": 4555, "pitch": 82, "duration": 14, "velocity": 102}, {"time": 4640, "pitch": 84, "duration": 6, "velocity": 97}, {"time": 4645, "pitch": 82, "duration": 7, "velocity": 95}, {"time": 4652, "pitch": 80, "duration": 19, "velocity": 88}, {"time": 4850, "pitch": 84, "duration": 6, "velocity": 91}, {"time": 4856, "pitch": 85, "duration": 7, "velocity": 98}, {"time": 4862, "pitch": 87, "duration": 6, "velocity": 105}, {"time": 4869, "pitch": 89, "duration": 20, "velocity": 111}, {"time": 5241, "pitch": 73, "duration": 5, "velocity": 127}, {"time": 5247, "pitch": 75, "duration": 4, "velocity": 127}, {"time": 5253, "pitch": 77, "duration": 16, "velocity": 112}, {"time": 5271, "pitch": 75, "duration": 6, "velocity": 127}, {"time": 5277, "pitch": 77, "duration": 6, "velocity": 102}, {"time": 5283, "pitch": 80, "duration": 6, "velocity": 112}, {"time": 5289, "pitch": 82, "duration": 6, "velocity": 112}, {"time": 5295, "pitch": 80, "duration": 5, "velocity": 127}, {"time": 5301, "pitch": 77, "duration": 29, "velocity": 112}, {"time": 5337, "pitch": 68, "duration": 5, "velocity": 127}, {"time": 5343, "pitch": 70, "duration": 5, "velocity": 127}, {"time": 5349, "pitch": 73, "duration": 13, "velocity": 127}, {"time": 5367, "pitch": 70, "duration": 4, "velocity": 112}, {"time": 5373, "pitch": 73, "duration": 9, "velocity": 127}, {"time": 5385, "pitch": 73, "duration": 5, "velocity": 127}, {"time": 5391, "pitch": 77, "duration": 6, "velocity": 102}, {"time": 5397, "pitch": 75, "duration": 27, "velocity": 127}, {"time": 5427, "pitch": 85, "duration": 4, "velocity": 127}, {"time": 5433, "pitch": 84, "duration": 5, "velocity": 117}, {"time": 5439, "pitch": 82, "duration": 5, "velocity": 102}, {"time": 5445, "pitch": 80, "duration": 13, "velocity": 117}, {"time": 5463, "pitch": 80, "duration": 3, "velocity": 127}, {"time": 5469, "pitch": 80, "duration": 6, "velocity": 127}, {"time": 5475, "pitch": 82, "duration": 5, "velocity": 122}, {"time": 5481, "pitch": 80, "duration": 4, "velocity": 117}, {"time": 5487, "pitch": 77, "duration": 5, "velocity": 107}, {"time": 5493, "pitch": 75, "duration": 12, "velocity": 127}, {"time": 5511, "pitch": 73, "duration": 5, "velocity": 127}, {"time": 5517, "pitch": 70, "duration": 11, "velocity": 122}, {"time": 5529, "pitch": 70, "duration": 5, "velocity": 127}, {"time": 5535, "pitch": 73, "duration": 5, "velocity": 127}, {"time": 5541, "pitch": 75, "duration": 11, "velocity": 127}, {"time": 5559, "pitch": 73, "duration": 4, "velocity": 117}, {"time": 5565, "pitch": 80, "duration": 5, "velocity": 127}, {"time": 5571, "pitch": 77, "duration": 5, "velocity": 102}, {"time": 5577, "pitch": 75, "duration": 6, "velocity": 117}, {"time": 5583, "pitch": 73, "duration": 3, "velocity": 96}, {"time": 5589, "pitch": 73, "duration": 24, "velocity": 122}], "annotations": [{"time": 45, "annotation": {"number": 64, "value": 63}, "group": "control_change"}, {"time": 45, "annotation": {"number": 64, "value": 64}, "group": "control_change"}, {"time": 45, "annotation": {"number": 64, "value": 65}, "group": "control_change"}, {"time": 45, "annotation": {"number": 64, "value": 66}, "group": "control_change"}, {"time": 45, "annotation": {"number": 64, "value": 67}, "group": "control_change"}, {"time": 45, "annotation": {"number": 64, "value": 68}, "group": "control_change"}, {"time": 165, "annotation": {"number": 64, "value": 69}, "group": "control_change"}, {"time": 285, "annotation": {"number": 64, "value": 70}, "group": "control_change"}, {"time": 489, "annotation": {"number": 64, "value": 71}, "group": "control_change"}, {"time": 597, "annotation": {"number": 64, "value": 72}, "group": "control_change"}, {"time": 1749, "annotation": {"number": 64, "value": 74}, "group": "control_change"}, {"time": 1845, "annotation": {"number": 64, "value": 73}, "group": "control_change"}, {"time": 1881, "annotation": {"number": 64, "value": 72}, "group": "control_change"}, {"time": 1965, "annotation": {"number": 64, "value": 71}, "group": "control_change"}, {"time": 2073, "annotation": {"number": 64, "value": 70}, "group": "control_change"}, {"time": 2133, "annotation": {"number": 64, "value": 69}, "group": "control_change"}, {"time": 2409, "annotation": {"number": 64, "value": 70}, "group": "control_change"}, {"time": 2445, "annotation": {"number": 64, "value": 71}, "group": "control_change"}, {"time": 2505, "annotation": {"number": 64, "value": 72}, "group": "control_change"}, {"time": 2577, "annotation": {"number": 64, "value": 73}, "group": "control_change"}, {"time": 2697, "annotation": {"number": 64, "value": 74}, "group": "control_change"}, {"time": 3225, "annotation": {"number": 64, "value": 75}, "group": "control_change"}, {"time": 3309, "annotation": {"number": 64, "value": 76}, "group": "control_change"}, {"time": 3405, "annotation": {"number": 64, "value": 77}, "group": "control_change"}, {"time": 3525, "annotation": {"number": 64, "value": 78}, "group": "control_change"}, {"time": 3573, "annotation": {"number": 64, "value": 79}, "group": "control_change"}, {"time": 3681, "annotation": {"number": 64, "value": 80}, "group": "control_change"}, {"time": 4653, "annotation": {"number": 64, "value": 83}, "group": "control_change"}, {"time": 4737, "annotation": {"number": 64, "value": 82}, "group": "control_change"}, {"time": 4797, "annotation": {"number": 64, "value": 81}, "group": "control_change"}, {"time": 4845, "annotation": {"number": 64, "value": 80}, "group": "control_change"}, {"time": 4905, "annotation": {"number": 64, "value": 79}, "group": "control_change"}, {"time": 5001, "annotation": {"number": 64, "value": 78}, "group": "control_change"}, {"time": 5037, "annotation": {"number": 64, "value": 77}, "group": "control_change"}, {"time": 5085, "annotation": {"number": 64, "value": 76}, "group": "control_change"}, {"time": 5241, "annotation": {"number": 64, "value": 75}, "group": "control_change"}, {"time": 5313, "annotation": {"number": 64, "value": 74}, "group": "control_change"}, {"time": 5565, "annotation": {"number": 64, "value": 73}, "group": "control_change"}]}, {"program": 0, "is_drum": false, "name": "PIANO", "notes": [{"time": 69, "pitch": 49, "duration": 21, "velocity": 100}, {"time": 81, "pitch": 65, "duration": 7, "velocity": 90}, {"time": 81, "pitch": 68, "duration": 15, "velocity": 97}, {"time": 87, "pitch": 61, "duration": 10, "velocity": 85}, {"time": 93, "pitch": 49, "duration": 14, "velocity": 64}, {"time": 93, "pitch": 56, "duration": 14, "velocity": 83}, {"time": 93, "pitch": 65, "duration": 3, "velocity": 18}, {"time": 99, "pitch": 61, "duration": 5, "velocity": 55}, {"time": 105, "pitch": 65, "duration": 8, "velocity": 95}, {"time": 105, "pitch": 68, "duration": 9, "velocity": 102}, {"time": 111, "pitch": 61, "duration": 6, "velocity": 72}, {"time": 117, "pitch": 46, "duration": 19, "velocity": 97}, {"time": 123, "pitch": 58, "duration": 8, "velocity": 69}, {"time": 129, "pitch": 61, "duration": 13, "velocity": 72}, {"time": 129, "pitch": 65, "duration": 12, "velocity": 70}, {"time": 135, "pitch": 58, "duration": 9, "velocity": 88}, {"time": 141, "pitch": 46, "duration": 12, "velocity": 67}, {"time": 147, "pitch": 58, "duration": 7, "velocity": 90}, {"time": 153, "pitch": 61, "duration": 12, "velocity": 78}, {"time": 153, "pitch": 65, "duration": 11, "velocity": 37}, {"time": 165, "pitch": 42, "duration": 20, "velocity": 82}, {"time": 171, "pitch": 54, "duration": 6, "velocity": 71}, {"time": 177, "pitch": 58, "duration": 13, "velocity": 100}, {"time": 177, "pitch": 61, "duration": 13, "velocity": 86}, {"time": 183, "pitch": 54, "duration": 7, "velocity": 78}, {"time": 189, "pitch": 42, "duration": 13, "velocity": 97}, {"time": 195, "pitch": 54, "duration": 6, "velocity": 66}, {"time": 201, "pitch": 58, "duration": 10, "velocity": 92}, {"time": 201, "pitch": 61, "duration": 9, "velocity": 92}, {"time": 207, "pitch": 54, "duration": 5, "velocity": 74}, {"time": 213, "pitch": 44, "duration": 40, "velocity": 107}, {"time": 219, "pitch": 56, "duration": 7, "velocity": 71}, {"time": 225, "pitch": 60, "duration": 13, "velocity": 89}, {"time": 225, "pitch": 63, "duration": 13, "velocity": 102}, {"time": 231, "pitch": 56, "duration": 7, "velocity": 96}, {"time": 237, "pitch": 51, "duration": 17, "velocity": 77}, {"time": 243, "pitch": 56, "duration": 7, "velocity": 85}, {"time": 249, "pitch": 60, "duration": 10, "velocity": 90}, {"time": 249, "pitch": 63, "duration": 10, "velocity": 100}, {"time": 255, "pitch": 56, "duration": 4, "velocity": 83}, {"time": 261, "pitch": 53, "duration": 21, "velocity": 93}, {"time": 267, "pitch": 60, "duration": 7, "velocity": 69}, {"time": 273, "pitch": 65, "duration": 21, "velocity": 96}, {"time": 273, "pitch": 68, "duration": 21, "velocity": 99}, {"time": 279, "pitch": 60, "duration": 15, "velocity": 86}, {"time": 291, "pitch": 53, "duration": 7, "velocity": 76}, {"time": 297, "pitch": 65, "duration": 9, "velocity": 99}, {"time": 297, "pitch": 68, "duration": 9, "velocity": 117}, {"time": 303, "pitch": 60, "duration": 5, "velocity": 78}, {"time": 309, "pitch": 46, "duration": 21, "velocity": 96}, {"time": 315, "pitch": 58, "duration": 7, "velocity": 62}, {"time": 321, "pitch": 61, "duration": 15, "velocity": 61}, {"time": 321, "pitch": 65, "duration": 15, "velocity": 72}, {"time": 327, "pitch": 58, "duration": 9, "velocity": 85}, {"time": 333, "pitch": 46, "duration": 10, "velocity": 92}, {"time": 339, "pitch": 58, "duration": 7, "velocity": 89}, {"time": 345, "pitch": 61, "duration": 10, "velocity": 82}, {"time": 345, "pitch": 65, "duration": 9, "velocity": 63}, {"time": 351, "pitch": 58, "duration": 5, "velocity": 79}, {"time": 357, "pitch": 39, "duration": 21, "velocity": 85}, {"time": 363, "pitch": 51, "duration": 7, "velocity": 71}, {"time": 369, "pitch": 54, "duration": 12, "velocity": 102}, {"time": 369, "pitch": 58, "duration": 11, "velocity": 102}, {"time": 375, "pitch": 51, "duration": 6, "velocity": 72}, {"time": 381, "pitch": 44, "duration": 14, "velocity": 99}, {"time": 387, "pitch": 56, "duration": 6, "velocity": 76}, {"time": 393, "pitch": 60, "duration": 10, "velocity": 85}, {"time": 393, "pitch": 63, "duration": 10, "velocity": 99}, {"time": 399, "pitch": 56, "duration": 7, "velocity": 73}, {"time": 405, "pitch": 49, "duration": 20, "velocity": 100}, {"time": 411, "pitch": 56, "duration": 7, "velocity": 73}, {"time": 417, "pitch": 61, "duration": 19, "velocity": 71}, {"time": 417, "pitch": 65, "duration": 16, "velocity": 69}, {"time": 423, "pitch": 56, "duration": 17, "velocity": 70}, {"time": 435, "pitch": 49, "duration": 9, "velocity": 73}, {"time": 441, "pitch": 56, "duration": 1, "velocity": 36}, {"time": 441, "pitch": 61, "duration": 13, "velocity": 68}, {"time": 441, "pitch": 65, "duration": 13, "velocity": 78}, {"time": 453, "pitch": 49, "duration": 19, "velocity": 82}, {"time": 459, "pitch": 56, "duration": 7, "velocity": 67}, {"time": 465, "pitch": 61, "duration": 13, "velocity": 69}, {"time": 465, "pitch": 65, "duration": 13, "velocity": 69}, {"time": 471, "pitch": 56, "duration": 9, "velocity": 90}, {"time": 477, "pitch": 49, "duration": 19, "velocity": 95}, {"time": 483, "pitch": 56, "duration": 7, "velocity": 81}, {"time": 489, "pitch": 61, "duration": 12, "velocity": 70}, {"time": 489, "pitch": 65, "duration": 12, "velocity": 53}, {"time": 495, "pitch": 56, "duration": 6, "velocity": 65}, {"time": 501, "pitch": 46, "duration": 20, "velocity": 66}, {"time": 507, "pitch": 58, "duration": 6, "velocity": 44}, {"time": 513, "pitch": 61, "duration": 17, "velocity": 67}, {"time": 513, "pitch": 65, "duration": 17, "velocity": 60}, {"time": 519, "pitch": 58, "duration": 10, "velocity": 56}, {"time": 525, "pitch": 46, "duration": 14, "velocity": 90}, {"time": 531, "pitch": 58, "duration": 18, "velocity": 43}, {"time": 537, "pitch": 61, "duration": 11, "velocity": 79}, {"time": 537, "pitch": 65, "duration": 10, "velocity": 66}, {"time": 549, "pitch": 42, "duration": 21, "velocity": 66}, {"time": 555, "pitch": 54, "duration": 7, "velocity": 71}, {"time": 561, "pitch": 58, "duration": 15, "velocity": 76}, {"time": 561, "pitch": 61, "duration": 14, "velocity": 89}, {"time": 567, "pitch": 54, "duration": 9, "velocity": 55}, {"time": 573, "pitch": 42, "duration": 14, "velocity": 82}, {"time": 579, "pitch": 54, "duration": 7, "velocity": 47}, {"time": 585, "pitch": 58, "duration": 9, "velocity": 88}, {"time": 585, "pitch": 61, "duration": 9, "velocity": 85}, {"time": 597, "pitch": 49, "duration": 20, "velocity": 89}, {"time": 603, "pitch": 56, "duration": 7, "velocity": 58}, {"time": 609, "pitch": 61, "duration": 18, "velocity": 66}, {"time": 609, "pitch": 65, "duration": 18, "velocity": 69}, {"time": 615, "pitch": 56, "duration": 16, "velocity": 77}, {"time": 627, "pitch": 49, "duration": 7, "velocity": 83}, {"time": 633, "pitch": 56, "duration": 1, "velocity": 32}, {"time": 633, "pitch": 61, "duration": 10, "velocity": 73}, {"time": 633, "pitch": 65, "duration": 9, "velocity": 60}, {"time": 639, "pitch": 56, "duration": 6, "velocity": 44}, {"time": 645, "pitch": 39, "duration": 19, "velocity": 77}, {"time": 651, "pitch": 51, "duration": 6, "velocity": 75}, {"time": 657, "pitch": 54, "duration": 18, "velocity": 74}, {"time": 657, "pitch": 58, "duration": 16, "velocity": 81}, {"time": 663, "pitch": 51, "duration": 15, "velocity": 61}, {"time": 675, "pitch": 39, "duration": 8, "velocity": 65}, {"time": 681, "pitch": 54, "duration": 9, "velocity": 88}, {"time": 681, "pitch": 58, "duration": 9, "velocity": 85}, {"time": 687, "pitch": 51, "duration": 4, "velocity": 61}, {"time": 693, "pitch": 46, "duration": 16, "velocity": 85}, {"time": 699, "pitch": 58, "duration": 7, "velocity": 44}, {"time": 705, "pitch": 61, "duration": 19, "velocity": 69}, {"time": 705, "pitch": 65, "duration": 19, "velocity": 69}, {"time": 711, "pitch": 58, "duration": 11, "velocity": 69}, {"time": 717, "pitch": 46, "duration": 17, "velocity": 58}, {"time": 723, "pitch": 58, "duration": 7, "velocity": 39}, {"time": 729, "pitch": 61, "duration": 10, "velocity": 72}, {"time": 729, "pitch": 65, "duration": 10, "velocity": 65}, {"time": 735, "pitch": 58, "duration": 5, "velocity": 69}, {"time": 741, "pitch": 39, "duration": 20, "velocity": 76}, {"time": 747, "pitch": 51, "duration": 7, "velocity": 48}, {"time": 753, "pitch": 54, "duration": 19, "velocity": 69}, {"time": 753, "pitch": 58, "duration": 18, "velocity": 81}, {"time": 759, "pitch": 51, "duration": 15, "velocity": 67}, {"time": 771, "pitch": 39, "duration": 7, "velocity": 73}, {"time": 777, "pitch": 54, "duration": 10, "velocity": 100}, {"time": 777, "pitch": 58, "duration": 10, "velocity": 96}, {"time": 783, "pitch": 51, "duration": 5, "velocity": 59}, {"time": 789, "pitch": 44, "duration": 16, "velocity": 82}, {"time": 795, "pitch": 56, "duration": 6, "velocity": 42}, {"time": 801, "pitch": 60, "duration": 7, "velocity": 86}, {"time": 801, "pitch": 63, "duration": 11, "velocity": 96}, {"time": 807, "pitch": 56, "duration": 8, "velocity": 90}, {"time": 813, "pitch": 44, "duration": 16, "velocity": 40}, {"time": 813, "pitch": 51, "duration": 17, "velocity": 82}, {"time": 819, "pitch": 56, "duration": 2, "velocity": 93}, {"time": 819, "pitch": 68, "duration": 2, "velocity": 82}, {"time": 825, "pitch": 58, "duration": 2, "velocity": 107}, {"time": 825, "pitch": 70, "duration": 1, "velocity": 97}, {"time": 831, "pitch": 60, "duration": 6, "velocity": 76}, {"time": 831, "pitch": 72, "duration": 5, "velocity": 83}, {"time": 837, "pitch": 49, "duration": 19, "velocity": 82}, {"time": 843, "pitch": 56, "duration": 7, "velocity": 67}, {"time": 849, "pitch": 61, "duration": 13, "velocity": 69}, {"time": 849, "pitch": 65, "duration": 13, "velocity": 69}, {"time": 855, "pitch": 56, "duration": 9, "velocity": 90}, {"time": 861, "pitch": 49, "duration": 19, "velocity": 95}, {"time": 867, "pitch": 56, "duration": 7, "velocity": 81}, {"time": 873, "pitch": 61, "duration": 12, "velocity": 70}, {"time": 873, "pitch": 65, "duration": 12, "velocity": 53}, {"time": 879, "pitch": 56, "duration": 6, "velocity": 65}, {"time": 885, "pitch": 46, "duration": 20, "velocity": 66}, {"time": 891, "pitch": 58, "duration": 6, "velocity": 44}, {"time": 897, "pitch": 61, "duration": 17, "velocity": 67}, {"time": 897, "pitch": 65, "duration": 17, "velocity": 60}, {"time": 903, "pitch": 58, "duration": 10, "velocity": 56}, {"time": 909, "pitch": 46, "duration": 14, "velocity": 90}, {"time": 915, "pitch": 58, "duration": 18, "velocity": 43}, {"time": 921, "pitch": 61, "duration": 11, "velocity": 79}, {"time": 921, "pitch": 65, "duration": 10, "velocity": 66}, {"time": 933, "pitch": 42, "duration": 21, "velocity": 66}, {"time": 939, "pitch": 54, "duration": 7, "velocity": 71}, {"time": 945, "pitch": 58, "duration": 15, "velocity": 76}, {"time": 945, "pitch": 61, "duration": 14, "velocity": 89}, {"time": 951, "pitch": 54, "duration": 9, "velocity": 55}, {"time": 957, "pitch": 42, "duration": 14, "velocity": 82}, {"time": 963, "pitch": 54, "duration": 7, "velocity": 47}, {"time": 969, "pitch": 58, "duration": 9, "velocity": 88}, {"time": 969, "pitch": 61, "duration": 9, "velocity": 85}, {"time": 981, "pitch": 49, "duration": 20, "velocity": 89}, {"time": 987, "pitch": 56, "duration": 7, "velocity": 58}, {"time": 993, "pitch": 61, "duration": 18, "velocity": 66}, {"time": 993, "pitch": 65, "duration": 18, "velocity": 69}, {"time": 999, "pitch": 56, "duration": 16, "velocity": 77}, {"time": 1011, "pitch": 49, "duration": 7, "velocity": 83}, {"time": 1017, "pitch": 56, "duration": 1, "velocity": 32}, {"time": 1017, "pitch": 61, "duration": 10, "velocity": 73}, {"time": 1017, "pitch": 65, "duration": 9, "velocity": 60}, {"time": 1023, "pitch": 56, "duration": 6, "velocity": 44}, {"time": 1029, "pitch": 39, "duration": 19, "velocity": 77}, {"time": 1035, "pitch": 51, "duration": 6, "velocity": 75}, {"time": 1041, "pitch": 54, "duration": 18, "velocity": 74}, {"time": 1041, "pitch": 58, "duration": 16, "velocity": 81}, {"time": 1047, "pitch": 51, "duration": 15, "velocity": 61}, {"time": 1059, "pitch": 39, "duration": 8, "velocity": 65}, {"time": 1065, "pitch": 54, "duration": 9, "velocity": 88}, {"time": 1065, "pitch": 58, "duration": 9, "velocity": 85}, {"time": 1071, "pitch": 51, "duration": 4, "velocity": 61}, {"time": 1077, "pitch": 46, "duration": 16, "velocity": 85}, {"time": 1083, "pitch": 58, "duration": 7, "velocity": 44}, {"time": 1089, "pitch": 61, "duration": 19, "velocity": 69}, {"time": 1089, "pitch": 65, "duration": 19, "velocity": 69}, {"time": 1095, "pitch": 58, "duration": 11, "velocity": 69}, {"time": 1101, "pitch": 46, "duration": 17, "velocity": 58}, {"time": 1107, "pitch": 58, "duration": 7, "velocity": 39}, {"time": 1113, "pitch": 61, "duration": 10, "velocity": 72}, {"time": 1113, "pitch": 65, "duration": 10, "velocity": 65}, {"time": 1119, "pitch": 58, "duration": 5, "velocity": 69}, {"time": 1125, "pitch": 39, "duration": 13, "velocity": 96}, {"time": 1131, "pitch": 51, "duration": 6, "velocity": 65}, {"time": 1137, "pitch": 54, "duration": 10, "velocity": 100}, {"time": 1137, "pitch": 58, "duration": 10, "velocity": 107}, {"time": 1143, "pitch": 51, "duration": 4, "velocity": 62}, {"time": 1149, "pitch": 44, "duration": 18, "velocity": 107}, {"time": 1155, "pitch": 56, "duration": 4, "velocity": 57}, {"time": 1161, "pitch": 60, "duration": 10, "velocity": 102}, {"time": 1161, "pitch": 63, "duration": 11, "velocity": 107}, {"time": 1173, "pitch": 49, "duration": 21, "velocity": 97}, {"time": 1179, "pitch": 56, "duration": 7, "velocity": 79}, {"time": 1185, "pitch": 61, "duration": 14, "velocity": 76}, {"time": 1185, "pitch": 65, "duration": 13, "velocity": 70}, {"time": 1191, "pitch": 56, "duration": 9, "velocity": 100}, {"time": 1197, "pitch": 49, "duration": 13, "velocity": 97}, {"time": 1203, "pitch": 56, "duration": 4, "velocity": 88}, {"time": 1203, "pitch": 61, "duration": 4, "velocity": 68}, {"time": 1203, "pitch": 65, "duration": 4, "velocity": 60}, {"time": 1209, "pitch": 56, "duration": 9, "velocity": 100}, {"time": 1209, "pitch": 61, "duration": 9, "velocity": 99}, {"time": 1209, "pitch": 65, "duration": 8, "velocity": 92}, {"time": 1221, "pitch": 49, "duration": 21, "velocity": 97}, {"time": 1221, "pitch": 56, "duration": 4, "velocity": 99}, {"time": 1221, "pitch": 61, "duration": 6, "velocity": 99}, {"time": 1221, "pitch": 65, "duration": 7, "velocity": 78}, {"time": 1227, "pitch": 56, "duration": 3, "velocity": 31}, {"time": 1233, "pitch": 61, "duration": 11, "velocity": 97}, {"time": 1233, "pitch": 65, "duration": 13, "velocity": 90}, {"time": 1239, "pitch": 56, "duration": 8, "velocity": 95}, {"time": 1245, "pitch": 49, "duration": 24, "velocity": 92}, {"time": 1251, "pitch": 56, "duration": 7, "velocity": 95}, {"time": 1257, "pitch": 61, "duration": 11, "velocity": 61}, {"time": 1257, "pitch": 65, "duration": 13, "velocity": 76}, {"time": 1263, "pitch": 56, "duration": 6, "velocity": 93}, {"time": 1269, "pitch": 46, "duration": 17, "velocity": 70}, {"time": 1275, "pitch": 58, "duration": 7, "velocity": 88}, {"time": 1281, "pitch": 61, "duration": 13, "velocity": 65}, {"time": 1281, "pitch": 65, "duration": 11, "velocity": 62}, {"time": 1287, "pitch": 58, "duration": 8, "velocity": 86}, {"time": 1293, "pitch": 46, "duration": 21, "velocity": 97}, {"time": 1299, "pitch": 58, "duration": 7, "velocity": 78}, {"time": 1305, "pitch": 61, "duration": 10, "velocity": 65}, {"time": 1305, "pitch": 65, "duration": 10, "velocity": 71}, {"time": 1311, "pitch": 58, "duration": 6, "velocity": 77}, {"time": 1317, "pitch": 42, "duration": 15, "velocity": 86}, {"time": 1323, "pitch": 54, "duration": 4, "velocity": 32}, {"time": 1329, "pitch": 58, "duration": 14, "velocity": 112}, {"time": 1329, "pitch": 61, "duration": 14, "velocity": 122}, {"time": 1335, "pitch": 42, "duration": 2, "velocity": 83}, {"time": 1341, "pitch": 42, "duration": 14, "velocity": 77}, {"time": 1347, "pitch": 54, "duration": 5, "velocity": 79}, {"time": 1353, "pitch": 58, "duration": 10, "velocity": 93}, {"time": 1353, "pitch": 61, "duration": 8, "velocity": 100}, {"time": 1359, "pitch": 54, "duration": 5, "velocity": 63}, {"time": 1365, "pitch": 44, "duration": 16, "velocity": 77}, {"time": 1371, "pitch": 56, "duration": 4, "velocity": 37}, {"time": 1377, "pitch": 60, "duration": 14, "velocity": 96}, {"time": 1377, "pitch": 63, "duration": 14, "velocity": 107}, {"time": 1383, "pitch": 44, "duration": 3, "velocity": 81}, {"time": 1389, "pitch": 44, "duration": 12, "velocity": 92}, {"time": 1395, "pitch": 56, "duration": 7, "velocity": 96}, {"time": 1401, "pitch": 60, "duration": 5, "velocity": 77}, {"time": 1401, "pitch": 63, "duration": 11, "velocity": 117}, {"time": 1407, "pitch": 56, "duration": 6, "velocity": 92}, {"time": 1407, "pitch": 60, "duration": 1, "velocity": 33}, {"time": 1413, "pitch": 39, "duration": 16, "velocity": 97}, {"time": 1419, "pitch": 51, "duration": 7, "velocity": 81}, {"time": 1425, "pitch": 54, "duration": 15, "velocity": 90}, {"time": 1425, "pitch": 58, "duration": 13, "velocity": 97}, {"time": 1431, "pitch": 39, "duration": 2, "velocity": 72}, {"time": 1437, "pitch": 39, "duration": 13, "velocity": 81}, {"time": 1443, "pitch": 51, "duration": 7, "velocity": 83}, {"time": 1449, "pitch": 54, "duration": 5, "velocity": 97}, {"time": 1449, "pitch": 58, "duration": 6, "velocity": 102}, {"time": 1461, "pitch": 46, "duration": 15, "velocity": 70}, {"time": 1467, "pitch": 58, "duration": 8, "velocity": 81}, {"time": 1473, "pitch": 61, "duration": 15, "velocity": 73}, {"time": 1473, "pitch": 65, "duration": 15, "velocity": 63}, {"time": 1479, "pitch": 46, "duration": 2, "velocity": 75}, {"time": 1485, "pitch": 46, "duration": 13, "velocity": 99}, {"time": 1491, "pitch": 58, "duration": 7, "velocity": 89}, {"time": 1497, "pitch": 61, "duration": 10, "velocity": 73}, {"time": 1497, "pitch": 65, "duration": 10, "velocity": 66}, {"time": 1503, "pitch": 58, "duration": 6, "velocity": 74}, {"time": 1509, "pitch": 39, "duration": 15, "velocity": 75}, {"time": 1515, "pitch": 51, "duration": 7, "velocity": 75}, {"time": 1521, "pitch": 54, "duration": 14, "velocity": 75}, {"time": 1521, "pitch": 58, "duration": 13, "velocity": 96}, {"time": 1527, "pitch": 39, "duration": 2, "velocity": 78}, {"time": 1533, "pitch": 39, "duration": 14, "velocity": 71}, {"time": 1539, "pitch": 51, "duration": 7, "velocity": 78}, {"time": 1545, "pitch": 54, "duration": 10, "velocity": 102}, {"time": 1545, "pitch": 58, "duration": 10, "velocity": 112}, {"time": 1551, "pitch": 51, "duration": 3, "velocity": 73}, {"time": 1557, "pitch": 44, "duration": 14, "velocity": 102}, {"time": 1569, "pitch": 60, "duration": 13, "velocity": 122}, {"time": 1569, "pitch": 63, "duration": 13, "velocity": 127}, {"time": 1575, "pitch": 44, "duration": 3, "velocity": 97}, {"time": 1581, "pitch": 44, "duration": 21, "velocity": 102}, {"time": 1587, "pitch": 56, "duration": 8, "velocity": 99}, {"time": 1587, "pitch": 60, "duration": 2, "velocity": 97}, {"time": 1587, "pitch": 63, "duration": 8, "velocity": 102}, {"time": 1593, "pitch": 60, "duration": 4, "velocity": 22}, {"time": 1599, "pitch": 56, "duration": 5, "velocity": 99}, {"time": 1599, "pitch": 60, "duration": 5, "velocity": 112}, {"time": 1599, "pitch": 63, "duration": 6, "velocity": 107}, {"time": 1605, "pitch": 49, "duration": 21, "velocity": 97}, {"time": 1605, "pitch": 56, "duration": 4, "velocity": 99}, {"time": 1605, "pitch": 61, "duration": 6, "velocity": 99}, {"time": 1605, "pitch": 65, "duration": 7, "velocity": 78}, {"time": 1611, "pitch": 56, "duration": 3, "velocity": 31}, {"time": 1617, "pitch": 61, "duration": 11, "velocity": 97}, {"time": 1617, "pitch": 65, "duration": 13, "velocity": 90}, {"time": 1623, "pitch": 56, "duration": 8, "velocity": 95}, {"time": 1629, "pitch": 49, "duration": 24, "velocity": 92}, {"time": 1635, "pitch": 56, "duration": 7, "velocity": 95}, {"time": 1641, "pitch": 61, "duration": 11, "velocity": 61}, {"time": 1641, "pitch": 65, "duration": 13, "velocity": 76}, {"time": 1647, "pitch": 56, "duration": 6, "velocity": 93}, {"time": 1653, "pitch": 46, "duration": 17, "velocity": 70}, {"time": 1659, "pitch": 58, "duration": 7, "velocity": 88}, {"time": 1665, "pitch": 61, "duration": 13, "velocity": 65}, {"time": 1665, "pitch": 65, "duration": 11, "velocity": 62}, {"time": 1671, "pitch": 58, "duration": 8, "velocity": 86}, {"time": 1677, "pitch": 46, "duration": 21, "velocity": 97}, {"time": 1683, "pitch": 58, "duration": 7, "velocity": 78}, {"time": 1689, "pitch": 61, "duration": 10, "velocity": 65}, {"time": 1689, "pitch": 65, "duration": 10, "velocity": 71}, {"time": 1695, "pitch": 58, "duration": 6, "velocity": 77}, {"time": 1701, "pitch": 42, "duration": 15, "velocity": 86}, {"time": 1707, "pitch": 54, "duration": 4, "velocity": 32}, {"time": 1713, "pitch": 58, "duration": 14, "velocity": 112}, {"time": 1713, "pitch": 61, "duration": 14, "velocity": 122}, {"time": 1719, "pitch": 42, "duration": 2, "velocity": 83}, {"time": 1725, "pitch": 42, "duration": 14, "velocity": 77}, {"time": 1731, "pitch": 54, "duration": 5, "velocity": 79}, {"time": 1737, "pitch": 58, "duration": 10, "velocity": 93}, {"time": 1737, "pitch": 61, "duration": 8, "velocity": 100}, {"time": 1743, "pitch": 54, "duration": 5, "velocity": 63}, {"time": 1749, "pitch": 44, "duration": 16, "velocity": 77}, {"time": 1755, "pitch": 56, "duration": 4, "velocity": 37}, {"time": 1761, "pitch": 60, "duration": 14, "velocity": 96}, {"time": 1761, "pitch": 63, "duration": 14, "velocity": 107}, {"time": 1767, "pitch": 44, "duration": 3, "velocity": 81}, {"time": 1773, "pitch": 44, "duration": 12, "velocity": 92}, {"time": 1779, "pitch": 56, "duration": 7, "velocity": 96}, {"time": 1785, "pitch": 60, "duration": 5, "velocity": 77}, {"time": 1785, "pitch": 63, "duration": 11, "velocity": 117}, {"time": 1791, "pitch": 56, "duration": 6, "velocity": 92}, {"time": 1791, "pitch": 60, "duration": 1, "velocity": 33}, {"time": 1797, "pitch": 39, "duration": 16, "velocity": 97}, {"time": 1803, "pitch": 51, "duration": 7, "velocity": 81}, {"time": 1809, "pitch": 54, "duration": 15, "velocity": 90}, {"time": 1809, "pitch": 58, "duration": 13, "velocity": 97}, {"time": 1815, "pitch": 39, "duration": 2, "velocity": 72}, {"time": 1821, "pitch": 39, "duration": 13, "velocity": 81}, {"time": 1827, "pitch": 51, "duration": 7, "velocity": 83}, {"time": 1833, "pitch": 54, "duration": 5, "velocity": 97}, {"time": 1833, "pitch": 58, "duration": 6, "velocity": 102}, {"time": 1845, "pitch": 46, "duration": 15, "velocity": 70}, {"time": 1851, "pitch": 58, "duration": 8, "velocity": 81}, {"time": 1857, "pitch": 61, "duration": 15, "velocity": 73}, {"time": 1857, "pitch": 65, "duration": 15, "velocity": 63}, {"time": 1863, "pitch": 46, "duration": 2, "velocity": 75}, {"time": 1869, "pitch": 46, "duration": 13, "velocity": 99}, {"time": 1875, "pitch": 58, "duration": 7, "velocity": 89}, {"time": 1881, "pitch": 61, "duration": 10, "velocity": 73}, {"time": 1881, "pitch": 65, "duration": 10, "velocity": 66}, {"time": 1887, "pitch": 58, "duration": 6, "velocity": 74}, {"time": 1893, "pitch": 39, "duration": 15, "velocity": 75}, {"time": 1899, "pitch": 51, "duration": 7, "velocity": 75}, {"time": 1905, "pitch": 54, "duration": 14, "velocity": 75}, {"time": 1905, "pitch": 58, "duration": 13, "velocity": 96}, {"time": 1911, "pitch": 39, "duration": 2, "velocity": 78}, {"time": 1917, "pitch": 39, "duration": 14, "velocity": 71}, {"time": 1923, "pitch": 51, "duration": 7, "velocity": 78}, {"time": 1929, "pitch": 54, "duration": 10, "velocity": 102}, {"time": 1929, "pitch": 58, "duration": 10, "velocity": 112}, {"time": 1935, "pitch": 51, "duration": 3, "velocity": 73}, {"time": 1941, "pitch": 44, "duration": 14, "velocity": 102}, {"time": 1953, "pitch": 60, "duration": 13, "velocity": 122}, {"time": 1953, "pitch": 63, "duration": 13, "velocity": 127}, {"time": 1959, "pitch": 44, "duration": 3, "velocity": 97}, {"time": 1965, "pitch": 44, "duration": 21, "velocity": 102}, {"time": 1971, "pitch": 56, "duration": 8, "velocity": 99}, {"time": 1971, "pitch": 60, "duration": 2, "velocity": 97}, {"time": 1971, "pitch": 63, "duration": 8, "velocity": 102}, {"time": 1977, "pitch": 60, "duration": 4, "velocity": 22}, {"time": 1983, "pitch": 56, "duration": 5, "velocity": 99}, {"time": 1983, "pitch": 60, "duration": 5, "velocity": 112}, {"time": 1983, "pitch": 63, "duration": 6, "velocity": 107}, {"time": 1989, "pitch": 49, "duration": 14, "velocity": 112}, {"time": 1995, "pitch": 56, "duration": 3, "velocity": 30}, {"time": 2001, "pitch": 56, "duration": 1, "velocity": 59}, {"time": 2001, "pitch": 61, "duration": 13, "velocity": 102}, {"time": 2001, "pitch": 65, "duration": 13, "velocity": 90}, {"time": 2007, "pitch": 49, "duration": 2, "velocity": 97}, {"time": 2013, "pitch": 49, "duration": 21, "velocity": 88}, {"time": 2019, "pitch": 56, "duration": 10, "velocity": 90}, {"time": 2019, "pitch": 61, "duration": 10, "velocity": 90}, {"time": 2019, "pitch": 65, "duration": 9, "velocity": 70}, {"time": 2031, "pitch": 56, "duration": 5, "velocity": 81}, {"time": 2031, "pitch": 61, "duration": 5, "velocity": 48}, {"time": 2031, "pitch": 65, "duration": 4, "velocity": 63}, {"time": 2037, "pitch": 46, "duration": 15, "velocity": 56}, {"time": 2049, "pitch": 58, "duration": 14, "velocity": 92}, {"time": 2049, "pitch": 61, "duration": 15, "velocity": 102}, {"time": 2049, "pitch": 65, "duration": 12, "velocity": 77}, {"time": 2055, "pitch": 46, "duration": 4, "velocity": 53}, {"time": 2061, "pitch": 46, "duration": 9, "velocity": 85}, {"time": 2067, "pitch": 58, "duration": 10, "velocity": 90}, {"time": 2067, "pitch": 61, "duration": 9, "velocity": 96}, {"time": 2067, "pitch": 65, "duration": 3, "velocity": 77}, {"time": 2079, "pitch": 58, "duration": 5, "velocity": 96}, {"time": 2079, "pitch": 61, "duration": 4, "velocity": 93}, {"time": 2079, "pitch": 65, "duration": 3, "velocity": 69}, {"time": 2085, "pitch": 39, "duration": 15, "velocity": 77}, {"time": 2097, "pitch": 51, "duration": 12, "velocity": 86}, {"time": 2097, "pitch": 54, "duration": 11, "velocity": 73}, {"time": 2097, "pitch": 58, "duration": 10, "velocity": 73}, {"time": 2103, "pitch": 39, "duration": 3, "velocity": 72}, {"time": 2109, "pitch": 39, "duration": 12, "velocity": 89}, {"time": 2115, "pitch": 51, "duration": 9, "velocity": 99}, {"time": 2115, "pitch": 54, "duration": 9, "velocity": 96}, {"time": 2115, "pitch": 58, "duration": 9, "velocity": 90}, {"time": 2127, "pitch": 51, "duration": 5, "velocity": 83}, {"time": 2127, "pitch": 54, "duration": 5, "velocity": 100}, {"time": 2127, "pitch": 58, "duration": 5, "velocity": 83}, {"time": 2133, "pitch": 42, "duration": 17, "velocity": 70}, {"time": 2139, "pitch": 54, "duration": 3, "velocity": 61}, {"time": 2145, "pitch": 58, "duration": 10, "velocity": 112}, {"time": 2145, "pitch": 61, "duration": 10, "velocity": 117}, {"time": 2151, "pitch": 54, "duration": 5, "velocity": 93}, {"time": 2157, "pitch": 44, "duration": 16, "velocity": 95}, {"time": 2163, "pitch": 56, "duration": 4, "velocity": 96}, {"time": 2169, "pitch": 60, "duration": 9, "velocity": 117}, {"time": 2169, "pitch": 63, "duration": 10, "velocity": 107}, {"time": 2175, "pitch": 56, "duration": 6, "velocity": 88}, {"time": 2181, "pitch": 39, "duration": 9, "velocity": 69}, {"time": 2181, "pitch": 51, "duration": 10, "velocity": 92}, {"time": 2181, "pitch": 54, "duration": 10, "velocity": 100}, {"time": 2181, "pitch": 58, "duration": 10, "velocity": 88}, {"time": 2205, "pitch": 44, "duration": 11, "velocity": 60}, {"time": 2205, "pitch": 56, "duration": 10, "velocity": 93}, {"time": 2205, "pitch": 60, "duration": 10, "velocity": 96}, {"time": 2205, "pitch": 63, "duration": 11, "velocity": 93}, {"time": 2229, "pitch": 49, "duration": 22, "velocity": 44}, {"time": 2229, "pitch": 56, "duration": 39, "velocity": 95}, {"time": 2229, "pitch": 61, "duration": 9, "velocity": 99}, {"time": 2229, "pitch": 65, "duration": 5, "velocity": 89}, {"time": 2229, "pitch": 68, "duration": 6, "velocity": 83}, {"time": 2241, "pitch": 65, "duration": 16, "velocity": 95}, {"time": 2241, "pitch": 68, "duration": 17, "velocity": 90}, {"time": 2247, "pitch": 61, "duration": 16, "velocity": 59}, {"time": 2253, "pitch": 49, "duration": 16, "velocity": 28}, {"time": 2265, "pitch": 65, "duration": 12, "velocity": 102}, {"time": 2265, "pitch": 68, "duration": 12, "velocity": 112}, {"time": 2277, "pitch": 49, "duration": 14, "velocity": 100}, {"time": 2289, "pitch": 61, "duration": 14, "velocity": 102}, {"time": 2289, "pitch": 65, "duration": 12, "velocity": 100}, {"time": 2289, "pitch": 68, "duration": 13, "velocity": 107}, {"time": 2295, "pitch": 49, "duration": 2, "velocity": 73}, {"time": 2301, "pitch": 49, "duration": 13, "velocity": 78}, {"time": 2307, "pitch": 61, "duration": 9, "velocity": 102}, {"time": 2307, "pitch": 65, "duration": 8, "velocity": 99}, {"time": 2307, "pitch": 68, "duration": 9, "velocity": 97}, {"time": 2319, "pitch": 61, "duration": 5, "velocity": 99}, {"time": 2319, "pitch": 65, "duration": 4, "velocity": 76}, {"time": 2319, "pitch": 68, "duration": 5, "velocity": 90}, {"time": 2325, "pitch": 46, "duration": 15, "velocity": 92}, {"time": 2337, "pitch": 58, "duration": 15, "velocity": 102}, {"time": 2337, "pitch": 61, "duration": 13, "velocity": 102}, {"time": 2337, "pitch": 65, "duration": 12, "velocity": 78}, {"time": 2343, "pitch": 46, "duration": 2, "velocity": 56}, {"time": 2349, "pitch": 46, "duration": 14, "velocity": 97}, {"time": 2355, "pitch": 58, "duration": 10, "velocity": 90}, {"time": 2355, "pitch": 61, "duration": 9, "velocity": 79}, {"time": 2355, "pitch": 65, "duration": 8, "velocity": 77}, {"time": 2367, "pitch": 58, "duration": 8, "velocity": 96}, {"time": 2367, "pitch": 61, "duration": 6, "velocity": 95}, {"time": 2367, "pitch": 65, "duration": 5, "velocity": 67}, {"time": 2373, "pitch": 42, "duration": 15, "velocity": 79}, {"time": 2379, "pitch": 54, "duration": 1, "velocity": 26}, {"time": 2385, "pitch": 54, "duration": 15, "velocity": 95}, {"time": 2385, "pitch": 58, "duration": 14, "velocity": 102}, {"time": 2385, "pitch": 61, "duration": 15, "velocity": 96}, {"time": 2391, "pitch": 42, "duration": 3, "velocity": 72}, {"time": 2397, "pitch": 42, "duration": 14, "velocity": 81}, {"time": 2403, "pitch": 54, "duration": 7, "velocity": 50}, {"time": 2409, "pitch": 58, "duration": 11, "velocity": 96}, {"time": 2409, "pitch": 61, "duration": 12, "velocity": 102}, {"time": 2415, "pitch": 54, "duration": 6, "velocity": 92}, {"time": 2421, "pitch": 44, "duration": 15, "velocity": 99}, {"time": 2433, "pitch": 56, "duration": 13, "velocity": 117}, {"time": 2433, "pitch": 60, "duration": 8, "velocity": 96}, {"time": 2433, "pitch": 63, "duration": 11, "velocity": 95}, {"time": 2439, "pitch": 44, "duration": 2, "velocity": 93}, {"time": 2445, "pitch": 44, "duration": 18, "velocity": 100}, {"time": 2451, "pitch": 56, "duration": 2, "velocity": 112}, {"time": 2451, "pitch": 68, "duration": 1, "velocity": 100}, {"time": 2457, "pitch": 58, "duration": 1, "velocity": 127}, {"time": 2457, "pitch": 70, "duration": 1, "velocity": 107}, {"time": 2463, "pitch": 61, "duration": 5, "velocity": 127}, {"time": 2463, "pitch": 73, "duration": 4, "velocity": 100}, {"time": 2469, "pitch": 41, "duration": 15, "velocity": 89}, {"time": 2481, "pitch": 53, "duration": 14, "velocity": 95}, {"time": 2481, "pitch": 56, "duration": 14, "velocity": 100}, {"time": 2481, "pitch": 60, "duration": 14, "velocity": 95}, {"time": 2487, "pitch": 41, "duration": 3, "velocity": 56}, {"time": 2493, "pitch": 41, "duration": 11, "velocity": 64}, {"time": 2499, "pitch": 53, "duration": 9, "velocity": 86}, {"time": 2499, "pitch": 56, "duration": 9, "velocity": 100}, {"time": 2499, "pitch": 60, "duration": 9, "velocity": 90}, {"time": 2511, "pitch": 53, "duration": 6, "velocity": 77}, {"time": 2511, "pitch": 56, "duration": 6, "velocity": 93}, {"time": 2511, "pitch": 60, "duration": 5, "velocity": 77}, {"time": 2517, "pitch": 46, "duration": 14, "velocity": 100}, {"time": 2529, "pitch": 53, "duration": 13, "velocity": 100}, {"time": 2529, "pitch": 58, "duration": 13, "velocity": 112}, {"time": 2529, "pitch": 61, "duration": 13, "velocity": 102}, {"time": 2535, "pitch": 46, "duration": 3, "velocity": 69}, {"time": 2541, "pitch": 46, "duration": 5, "velocity": 92}, {"time": 2547, "pitch": 53, "duration": 9, "velocity": 86}, {"time": 2547, "pitch": 58, "duration": 9, "velocity": 122}, {"time": 2547, "pitch": 61, "duration": 9, "velocity": 102}, {"time": 2559, "pitch": 53, "duration": 4, "velocity": 75}, {"time": 2559, "pitch": 58, "duration": 4, "velocity": 102}, {"time": 2559, "pitch": 61, "duration": 4, "velocity": 97}, {"time": 2565, "pitch": 39, "duration": 15, "velocity": 92}, {"time": 2577, "pitch": 54, "duration": 10, "velocity": 99}, {"time": 2577, "pitch": 58, "duration": 10, "velocity": 107}, {"time": 2577, "pitch": 63, "duration": 10, "velocity": 100}, {"time": 2589, "pitch": 44, "duration": 20, "velocity": 99}, {"time": 2595, "pitch": 56, "duration": 3, "velocity": 42}, {"time": 2601, "pitch": 60, "duration": 10, "velocity": 122}, {"time": 2601, "pitch": 63, "duration": 11, "velocity": 127}, {"time": 2607, "pitch": 56, "duration": 5, "velocity": 72}, {"time": 2613, "pitch": 49, "duration": 13, "velocity": 92}, {"time": 2619, "pitch": 61, "duration": 1, "velocity": 26}, {"time": 2625, "pitch": 61, "duration": 13, "velocity": 112}, {"time": 2625, "pitch": 65, "duration": 2, "velocity": 117}, {"time": 2625, "pitch": 68, "duration": 13, "velocity": 107}, {"time": 2631, "pitch": 49, "duration": 2, "velocity": 88}, {"time": 2631, "pitch": 65, "duration": 5, "velocity": 15}, {"time": 2637, "pitch": 49, "duration": 24, "velocity": 90}, {"time": 2643, "pitch": 61, "duration": 9, "velocity": 100}, {"time": 2643, "pitch": 65, "duration": 8, "velocity": 99}, {"time": 2643, "pitch": 68, "duration": 9, "velocity": 100}, {"time": 2655, "pitch": 61, "duration": 7, "velocity": 97}, {"time": 2655, "pitch": 65, "duration": 7, "velocity": 96}, {"time": 2655, "pitch": 68, "duration": 7, "velocity": 89}, {"time": 2661, "pitch": 49, "duration": 19, "velocity": 82}, {"time": 2667, "pitch": 56, "duration": 7, "velocity": 67}, {"time": 2673, "pitch": 61, "duration": 13, "velocity": 69}, {"time": 2673, "pitch": 65, "duration": 13, "velocity": 69}, {"time": 2679, "pitch": 56, "duration": 9, "velocity": 90}, {"time": 2685, "pitch": 49, "duration": 19, "velocity": 95}, {"time": 2691, "pitch": 56, "duration": 7, "velocity": 81}, {"time": 2697, "pitch": 61, "duration": 12, "velocity": 70}, {"time": 2697, "pitch": 65, "duration": 12, "velocity": 53}, {"time": 2703, "pitch": 56, "duration": 6, "velocity": 65}, {"time": 2709, "pitch": 46, "duration": 20, "velocity": 66}, {"time": 2715, "pitch": 58, "duration": 6, "velocity": 44}, {"time": 2721, "pitch": 61, "duration": 17, "velocity": 67}, {"time": 2721, "pitch": 65, "duration": 17, "velocity": 60}, {"time": 2727, "pitch": 58, "duration": 10, "velocity": 56}, {"time": 2733, "pitch": 46, "duration": 14, "velocity": 90}, {"time": 2739, "pitch": 58, "duration": 18, "velocity": 43}, {"time": 2745, "pitch": 61, "duration": 11, "velocity": 79}, {"time": 2745, "pitch": 65, "duration": 10, "velocity": 66}, {"time": 2757, "pitch": 42, "duration": 21, "velocity": 66}, {"time": 2763, "pitch": 54, "duration": 7, "velocity": 71}, {"time": 2769, "pitch": 58, "duration": 15, "velocity": 76}, {"time": 2769, "pitch": 61, "duration": 14, "velocity": 89}, {"time": 2775, "pitch": 54, "duration": 9, "velocity": 55}, {"time": 2781, "pitch": 42, "duration": 14, "velocity": 82}, {"time": 2787, "pitch": 54, "duration": 7, "velocity": 47}, {"time": 2793, "pitch": 58, "duration": 9, "velocity": 88}, {"time": 2793, "pitch": 61, "duration": 9, "velocity": 85}, {"time": 2805, "pitch": 49, "duration": 20, "velocity": 89}, {"time": 2811, "pitch": 56, "duration": 7, "velocity": 58}, {"time": 2817, "pitch": 61, "duration": 18, "velocity": 66}, {"time": 2817, "pitch": 65, "duration": 18, "velocity": 69}, {"time": 2823, "pitch": 56, "duration": 16, "velocity": 77}, {"time": 2835, "pitch": 49, "duration": 7, "velocity": 83}, {"time": 2841, "pitch": 56, "duration": 1, "velocity": 32}, {"time": 2841, "pitch": 61, "duration": 10, "velocity": 73}, {"time": 2841, "pitch": 65, "duration": 9, "velocity": 60}, {"time": 2847, "pitch": 56, "duration": 6, "velocity": 44}, {"time": 2853, "pitch": 39, "duration": 19, "velocity": 77}, {"time": 2859, "pitch": 51, "duration": 6, "velocity": 75}, {"time": 2865, "pitch": 54, "duration": 18, "velocity": 74}, {"time": 2865, "pitch": 58, "duration": 16, "velocity": 81}, {"time": 2871, "pitch": 51, "duration": 15, "velocity": 61}, {"time": 2883, "pitch": 39, "duration": 8, "velocity": 65}, {"time": 2889, "pitch": 54, "duration": 9, "velocity": 88}, {"time": 2889, "pitch": 58, "duration": 9, "velocity": 85}, {"time": 2895, "pitch": 51, "duration": 4, "velocity": 61}, {"time": 2901, "pitch": 46, "duration": 16, "velocity": 85}, {"time": 2907, "pitch": 58, "duration": 7, "velocity": 44}, {"time": 2913, "pitch": 61, "duration": 19, "velocity": 69}, {"time": 2913, "pitch": 65, "duration": 19, "velocity": 69}, {"time": 2919, "pitch": 58, "duration": 11, "velocity": 69}, {"time": 2925, "pitch": 46, "duration": 17, "velocity": 58}, {"time": 2931, "pitch": 58, "duration": 7, "velocity": 39}, {"time": 2937, "pitch": 61, "duration": 10, "velocity": 72}, {"time": 2937, "pitch": 65, "duration": 10, "velocity": 65}, {"time": 2943, "pitch": 58, "duration": 5, "velocity": 69}, {"time": 2949, "pitch": 39, "duration": 13, "velocity": 96}, {"time": 2955, "pitch": 51, "duration": 6, "velocity": 65}, {"time": 2961, "pitch": 54, "duration": 10, "velocity": 100}, {"time": 2961, "pitch": 58, "duration": 10, "velocity": 107}, {"time": 2967, "pitch": 51, "duration": 4, "velocity": 62}, {"time": 2973, "pitch": 44, "duration": 18, "velocity": 107}, {"time": 2979, "pitch": 56, "duration": 4, "velocity": 57}, {"time": 2985, "pitch": 60, "duration": 10, "velocity": 102}, {"time": 2985, "pitch": 63, "duration": 11, "velocity": 107}, {"time": 2997, "pitch": 49, "duration": 21, "velocity": 97}, {"time": 3003, "pitch": 56, "duration": 7, "velocity": 79}, {"time": 3009, "pitch": 61, "duration": 14, "velocity": 76}, {"time": 3009, "pitch": 65, "duration": 13, "velocity": 70}, {"time": 3015, "pitch": 56, "duration": 9, "velocity": 100}, {"time": 3021, "pitch": 49, "duration": 13, "velocity": 97}, {"time": 3027, "pitch": 56, "duration": 4, "velocity": 88}, {"time": 3027, "pitch": 61, "duration": 4, "velocity": 68}, {"time": 3027, "pitch": 65, "duration": 4, "velocity": 60}, {"time": 3033, "pitch": 56, "duration": 9, "velocity": 100}, {"time": 3033, "pitch": 61, "duration": 9, "velocity": 99}, {"time": 3033, "pitch": 65, "duration": 8, "velocity": 92}, {"time": 3045, "pitch": 49, "duration": 21, "velocity": 97}, {"time": 3045, "pitch": 56, "duration": 4, "velocity": 99}, {"time": 3045, "pitch": 61, "duration": 6, "velocity": 99}, {"time": 3045, "pitch": 65, "duration": 7, "velocity": 78}, {"time": 3051, "pitch": 56, "duration": 3, "velocity": 31}, {"time": 3057, "pitch": 61, "duration": 11, "velocity": 97}, {"time": 3057, "pitch": 65, "duration": 13, "velocity": 90}, {"time": 3063, "pitch": 56, "duration": 8, "velocity": 95}, {"time": 3069, "pitch": 49, "duration": 24, "velocity": 92}, {"time": 3075, "pitch": 56, "duration": 7, "velocity": 95}, {"time": 3081, "pitch": 61, "duration": 11, "velocity": 61}, {"time": 3081, "pitch": 65, "duration": 13, "velocity": 76}, {"time": 3087, "pitch": 56, "duration": 6, "velocity": 93}, {"time": 3093, "pitch": 46, "duration": 17, "velocity": 70}, {"time": 3099, "pitch": 58, "duration": 7, "velocity": 88}, {"time": 3105, "pitch": 61, "duration": 13, "velocity": 65}, {"time": 3105, "pitch": 65, "duration": 11, "velocity": 62}, {"time": 3111, "pitch": 58, "duration": 8, "velocity": 86}, {"time": 3117, "pitch": 46, "duration": 21, "velocity": 97}, {"time": 3123, "pitch": 58, "duration": 7, "velocity": 78}, {"time": 3129, "pitch": 61, "duration": 10, "velocity": 65}, {"time": 3129, "pitch": 65, "duration": 10, "velocity": 71}, {"time": 3135, "pitch": 58, "duration": 6, "velocity": 77}, {"time": 3141, "pitch": 42, "duration": 15, "velocity": 86}, {"time": 3147, "pitch": 54, "duration": 4, "velocity": 32}, {"time": 3153, "pitch": 58, "duration": 14, "velocity": 112}, {"time": 3153, "pitch": 61, "duration": 14, "velocity": 122}, {"time": 3159, "pitch": 42, "duration": 2, "velocity": 83}, {"time": 3165, "pitch": 42, "duration": 14, "velocity": 77}, {"time": 3171, "pitch": 54, "duration": 5, "velocity": 79}, {"time": 3177, "pitch": 58, "duration": 10, "velocity": 93}, {"time": 3177, "pitch": 61, "duration": 8, "velocity": 100}, {"time": 3183, "pitch": 54, "duration": 5, "velocity": 63}, {"time": 3189, "pitch": 44, "duration": 16, "velocity": 77}, {"time": 3195, "pitch": 56, "duration": 4, "velocity": 37}, {"time": 3201, "pitch": 60, "duration": 14, "velocity": 96}, {"time": 3201, "pitch": 63, "duration": 14, "velocity": 107}, {"time": 3207, "pitch": 44, "duration": 3, "velocity": 81}, {"time": 3213, "pitch": 44, "duration": 12, "velocity": 92}, {"time": 3219, "pitch": 56, "duration": 7, "velocity": 96}, {"time": 3225, "pitch": 60, "duration": 5, "velocity": 77}, {"time": 3225, "pitch": 63, "duration": 11, "velocity": 117}, {"time": 3231, "pitch": 56, "duration": 6, "velocity": 92}, {"time": 3231, "pitch": 60, "duration": 1, "velocity": 33}, {"time": 3237, "pitch": 39, "duration": 16, "velocity": 97}, {"time": 3243, "pitch": 51, "duration": 7, "velocity": 81}, {"time": 3249, "pitch": 54, "duration": 15, "velocity": 90}, {"time": 3249, "pitch": 58, "duration": 13, "velocity": 97}, {"time": 3255, "pitch": 39, "duration": 2, "velocity": 72}, {"time": 3261, "pitch": 39, "duration": 13, "velocity": 81}, {"time": 3267, "pitch": 51, "duration": 7, "velocity": 83}, {"time": 3273, "pitch": 54, "duration": 5, "velocity": 97}, {"time": 3273, "pitch": 58, "duration": 6, "velocity": 102}, {"time": 3285, "pitch": 46, "duration": 15, "velocity": 70}, {"time": 3291, "pitch": 58, "duration": 8, "velocity": 81}, {"time": 3297, "pitch": 61, "duration": 15, "velocity": 73}, {"time": 3297, "pitch": 65, "duration": 15, "velocity": 63}, {"time": 3303, "pitch": 46, "duration": 2, "velocity": 75}, {"time": 3309, "pitch": 46, "duration": 13, "velocity": 99}, {"time": 3315, "pitch": 58, "duration": 7, "velocity": 89}, {"time": 3321, "pitch": 61, "duration": 10, "velocity": 73}, {"time": 3321, "pitch": 65, "duration": 10, "velocity": 66}, {"time": 3327, "pitch": 58, "duration": 6, "velocity": 74}, {"time": 3333, "pitch": 39, "duration": 15, "velocity": 75}, {"time": 3339, "pitch": 51, "duration": 7, "velocity": 75}, {"time": 3345, "pitch": 54, "duration": 14, "velocity": 75}, {"time": 3345, "pitch": 58, "duration": 13, "velocity": 96}, {"time": 3351, "pitch": 39, "duration": 2, "velocity": 78}, {"time": 3357, "pitch": 39, "duration": 14, "velocity": 71}, {"time": 3363, "pitch": 51, "duration": 7, "velocity": 78}, {"time": 3369, "pitch": 54, "duration": 10, "velocity": 102}, {"time": 3369, "pitch": 58, "duration": 10, "velocity": 112}, {"time": 3375, "pitch": 51, "duration": 3, "velocity": 73}, {"time": 3381, "pitch": 44, "duration": 14, "velocity": 102}, {"time": 3393, "pitch": 60, "duration": 13, "velocity": 122}, {"time": 3393, "pitch": 63, "duration": 13, "velocity": 127}, {"time": 3399, "pitch": 44, "duration": 3, "velocity": 97}, {"time": 3405, "pitch": 44, "duration": 21, "velocity": 102}, {"time": 3411, "pitch": 56, "duration": 8, "velocity": 99}, {"time": 3411, "pitch": 60, "duration": 2, "velocity": 97}, {"time": 3411, "pitch": 63, "duration": 8, "velocity": 102}, {"time": 3417, "pitch": 60, "duration": 4, "velocity": 22}, {"time": 3423, "pitch": 56, "duration": 5, "velocity": 99}, {"time": 3423, "pitch": 60, "duration": 5, "velocity": 112}, {"time": 3423, "pitch": 63, "duration": 6, "velocity": 107}, {"time": 3429, "pitch": 49, "duration": 21, "velocity": 97}, {"time": 3429, "pitch": 56, "duration": 4, "velocity": 99}, {"time": 3429, "pitch": 61, "duration": 6, "velocity": 99}, {"time": 3429, "pitch": 65, "duration": 7, "velocity": 78}, {"time": 3435, "pitch": 56, "duration": 3, "velocity": 31}, {"time": 3441, "pitch": 61, "duration": 11, "velocity": 97}, {"time": 3441, "pitch": 65, "duration": 13, "velocity": 90}, {"time": 3447, "pitch": 56, "duration": 8, "velocity": 95}, {"time": 3453, "pitch": 49, "duration": 24, "velocity": 92}, {"time": 3459, "pitch": 56, "duration": 7, "velocity": 95}, {"time": 3465, "pitch": 61, "duration": 11, "velocity": 61}, {"time": 3465, "pitch": 65, "duration": 13, "velocity": 76}, {"time": 3471, "pitch": 56, "duration": 6, "velocity": 93}, {"time": 3477, "pitch": 46, "duration": 17, "velocity": 70}, {"time": 3483, "pitch": 58, "duration": 7, "velocity": 88}, {"time": 3489, "pitch": 61, "duration": 13, "velocity": 65}, {"time": 3489, "pitch": 65, "duration": 11, "velocity": 62}, {"time": 3495, "pitch": 58, "duration": 8, "velocity": 86}, {"time": 3501, "pitch": 46, "duration": 21, "velocity": 97}, {"time": 3507, "pitch": 58, "duration": 7, "velocity": 78}, {"time": 3513, "pitch": 61, "duration": 10, "velocity": 65}, {"time": 3513, "pitch": 65, "duration": 10, "velocity": 71}, {"time": 3519, "pitch": 58, "duration": 6, "velocity": 77}, {"time": 3525, "pitch": 42, "duration": 15, "velocity": 86}, {"time": 3531, "pitch": 54, "duration": 4, "velocity": 32}, {"time": 3537, "pitch": 58, "duration": 14, "velocity": 112}, {"time": 3537, "pitch": 61, "duration": 14, "velocity": 122}, {"time": 3543, "pitch": 42, "duration": 2, "velocity": 83}, {"time": 3549, "pitch": 42, "duration": 14, "velocity": 77}, {"time": 3555, "pitch": 54, "duration": 5, "velocity": 79}, {"time": 3561, "pitch": 58, "duration": 10, "velocity": 93}, {"time": 3561, "pitch": 61, "duration": 8, "velocity": 100}, {"time": 3567, "pitch": 54, "duration": 5, "velocity": 63}, {"time": 3573, "pitch": 44, "duration": 16, "velocity": 77}, {"time": 3579, "pitch": 56, "duration": 4, "velocity": 37}, {"time": 3585, "pitch": 60, "duration": 14, "velocity": 96}, {"time": 3585, "pitch": 63, "duration": 14, "velocity": 107}, {"time": 3591, "pitch": 44, "duration": 3, "velocity": 81}, {"time": 3597, "pitch": 44, "duration": 12, "velocity": 92}, {"time": 3603, "pitch": 56, "duration": 7, "velocity": 96}, {"time": 3609, "pitch": 60, "duration": 5, "velocity": 77}, {"time": 3609, "pitch": 63, "duration": 11, "velocity": 117}, {"time": 3615, "pitch": 56, "duration": 6, "velocity": 92}, {"time": 3615, "pitch": 60, "duration": 1, "velocity": 33}, {"time": 3621, "pitch": 39, "duration": 16, "velocity": 97}, {"time": 3627, "pitch": 51, "duration": 7, "velocity": 81}, {"time": 3633, "pitch": 54, "duration": 15, "velocity": 90}, {"time": 3633, "pitch": 58, "duration": 13, "velocity": 97}, {"time": 3639, "pitch": 39, "duration": 2, "velocity": 72}, {"time": 3645, "pitch": 39, "duration": 13, "velocity": 81}, {"time": 3651, "pitch": 51, "duration": 7, "velocity": 83}, {"time": 3657, "pitch": 54, "duration": 5, "velocity": 97}, {"time": 3657, "pitch": 58, "duration": 6, "velocity": 102}, {"time": 3669, "pitch": 46, "duration": 15, "velocity": 70}, {"time": 3675, "pitch": 58, "duration": 8, "velocity": 81}, {"time": 3681, "pitch": 61, "duration": 15, "velocity": 73}, {"time": 3681, "pitch": 65, "duration": 15, "velocity": 63}, {"time": 3687, "pitch": 46, "duration": 2, "velocity": 75}, {"time": 3693, "pitch": 46, "duration": 13, "velocity": 99}, {"time": 3699, "pitch": 58, "duration": 7, "velocity": 89}, {"time": 3705, "pitch": 61, "duration": 10, "velocity": 73}, {"time": 3705, "pitch": 65, "duration": 10, "velocity": 66}, {"time": 3711, "pitch": 58, "duration": 6, "velocity": 74}, {"time": 3717, "pitch": 39, "duration": 15, "velocity": 75}, {"time": 3723, "pitch": 51, "duration": 7, "velocity": 75}, {"time": 3729, "pitch": 54, "duration": 14, "velocity": 75}, {"time": 3729, "pitch": 58, "duration": 13, "velocity": 96}, {"time": 3735, "pitch": 39, "duration": 2, "velocity": 78}, {"time": 3741, "pitch": 39, "duration": 14, "velocity": 71}, {"time": 3747, "pitch": 51, "duration": 7, "velocity": 78}, {"time": 3753, "pitch": 54, "duration": 10, "velocity": 102}, {"time": 3753, "pitch": 58, "duration": 10, "velocity": 112}, {"time": 3759, "pitch": 51, "duration": 3, "velocity": 73}, {"time": 3765, "pitch": 44, "duration": 14, "velocity": 102}, {"time": 3777, "pitch": 60, "duration": 13, "velocity": 122}, {"time": 3777, "pitch": 63, "duration": 13, "velocity": 127}, {"time": 3783, "pitch": 44, "duration": 3, "velocity": 97}, {"time": 3789, "pitch": 44, "duration": 21, "velocity": 102}, {"time": 3795, "pitch": 56, "duration": 8, "velocity": 99}, {"time": 3795, "pitch": 60, "duration": 2, "velocity": 97}, {"time": 3795, "pitch": 63, "duration": 8, "velocity": 102}, {"time": 3801, "pitch": 60, "duration": 4, "velocity": 22}, {"time": 3807, "pitch": 56, "duration": 5, "velocity": 99}, {"time": 3807, "pitch": 60, "duration": 5, "velocity": 112}, {"time": 3807, "pitch": 63, "duration": 6, "velocity": 107}, {"time": 3813, "pitch": 49, "duration": 14, "velocity": 112}, {"time": 3819, "pitch": 56, "duration": 3, "velocity": 30}, {"time": 3825, "pitch": 56, "duration": 1, "velocity": 59}, {"time": 3825, "pitch": 61, "duration": 13, "velocity": 102}, {"time": 3825, "pitch": 65, "duration": 13, "velocity": 90}, {"time": 3831, "pitch": 49, "duration": 2, "velocity": 97}, {"time": 3837, "pitch": 49, "duration": 21, "velocity": 88}, {"time": 3843, "pitch": 56, "duration": 10, "velocity": 90}, {"time": 3843, "pitch": 61, "duration": 10, "velocity": 90}, {"time": 3843, "pitch": 65, "duration": 9, "velocity": 70}, {"time": 3855, "pitch": 56, "duration": 5, "velocity": 81}, {"time": 3855, "pitch": 61, "duration": 5, "velocity": 48}, {"time": 3855, "pitch": 65, "duration": 4, "velocity": 63}, {"time": 3861, "pitch": 46, "duration": 15, "velocity": 56}, {"time": 3873, "pitch": 58, "duration": 14, "velocity": 92}, {"time": 3873, "pitch": 61, "duration": 15, "velocity": 102}, {"time": 3873, "pitch": 65, "duration": 12, "velocity": 77}, {"time": 3879, "pitch": 46, "duration": 4, "velocity": 53}, {"time": 3885, "pitch": 46, "duration": 9, "velocity": 85}, {"time": 3891, "pitch": 58, "duration": 10, "velocity": 90}, {"time": 3891, "pitch": 61, "duration": 9, "velocity": 96}, {"time": 3891, "pitch": 65, "duration": 3, "velocity": 77}, {"time": 3903, "pitch": 58, "duration": 5, "velocity": 96}, {"time": 3903, "pitch": 61, "duration": 4, "velocity": 93}, {"time": 3903, "pitch": 65, "duration": 3, "velocity": 69}, {"time": 3909, "pitch": 39, "duration": 15, "velocity": 77}, {"time": 3921, "pitch": 51, "duration": 12, "velocity": 86}, {"time": 3921, "pitch": 54, "duration": 11, "velocity": 73}, {"time": 3921, "pitch": 58, "duration": 10, "velocity": 73}, {"time": 3927, "pitch": 39, "duration": 3, "velocity": 72}, {"time": 3933, "pitch": 39, "duration": 12, "velocity": 89}, {"time": 3939, "pitch": 51, "duration": 9, "velocity": 99}, {"time": 3939, "pitch": 54, "duration": 9, "velocity": 96}, {"time": 3939, "pitch": 58, "duration": 9, "velocity": 90}, {"time": 3951, "pitch": 51, "duration": 5, "velocity": 83}, {"time": 3951, "pitch": 54, "duration": 5, "velocity": 100}, {"time": 3951, "pitch": 58, "duration": 5, "velocity": 83}, {"time": 3957, "pitch": 42, "duration": 17, "velocity": 70}, {"time": 3963, "pitch": 54, "duration": 3, "velocity": 61}, {"time": 3969, "pitch": 58, "duration": 10, "velocity": 112}, {"time": 3969, "pitch": 61, "duration": 10, "velocity": 117}, {"time": 3975, "pitch": 54, "duration": 5, "velocity": 93}, {"time": 3981, "pitch": 44, "duration": 16, "velocity": 95}, {"time": 3987, "pitch": 56, "duration": 4, "velocity": 96}, {"time": 3993, "pitch": 60, "duration": 9, "velocity": 117}, {"time": 3993, "pitch": 63, "duration": 10, "velocity": 107}, {"time": 3999, "pitch": 56, "duration": 6, "velocity": 88}, {"time": 4005, "pitch": 39, "duration": 9, "velocity": 69}, {"time": 4005, "pitch": 51, "duration": 10, "velocity": 92}, {"time": 4005, "pitch": 54, "duration": 10, "velocity": 100}, {"time": 4005, "pitch": 58, "duration": 10, "velocity": 88}, {"time": 4029, "pitch": 44, "duration": 11, "velocity": 60}, {"time": 4029, "pitch": 56, "duration": 10, "velocity": 93}, {"time": 4029, "pitch": 60, "duration": 10, "velocity": 96}, {"time": 4029, "pitch": 63, "duration": 11, "velocity": 93}, {"time": 4053, "pitch": 49, "duration": 40, "velocity": 112}, {"time": 4059, "pitch": 53, "duration": 34, "velocity": 58}, {"time": 4065, "pitch": 56, "duration": 28, "velocity": 88}, {"time": 4071, "pitch": 61, "duration": 15, "velocity": 66}, {"time": 4077, "pitch": 65, "duration": 10, "velocity": 57}, {"time": 4077, "pitch": 68, "duration": 10, "velocity": 78}, {"time": 4089, "pitch": 61, "duration": 17, "velocity": 93}, {"time": 4089, "pitch": 65, "duration": 9, "velocity": 95}, {"time": 4089, "pitch": 68, "duration": 10, "velocity": 117}, {"time": 4101, "pitch": 49, "duration": 36, "velocity": 112}, {"time": 4107, "pitch": 53, "duration": 30, "velocity": 62}, {"time": 4113, "pitch": 56, "duration": 16, "velocity": 90}, {"time": 4119, "pitch": 61, "duration": 7, "velocity": 83}, {"time": 4125, "pitch": 65, "duration": 22, "velocity": 81}, {"time": 4125, "pitch": 68, "duration": 16, "velocity": 96}, {"time": 4131, "pitch": 56, "duration": 2, "velocity": 36}, {"time": 4137, "pitch": 61, "duration": 11, "velocity": 76}, {"time": 4143, "pitch": 68, "duration": 3, "velocity": 34}, {"time": 4149, "pitch": 46, "duration": 36, "velocity": 97}, {"time": 4155, "pitch": 58, "duration": 28, "velocity": 89}, {"time": 4161, "pitch": 61, "duration": 14, "velocity": 99}, {"time": 4167, "pitch": 65, "duration": 5, "velocity": 74}, {"time": 4173, "pitch": 70, "duration": 6, "velocity": 90}, {"time": 4179, "pitch": 65, "duration": 8, "velocity": 81}, {"time": 4185, "pitch": 61, "duration": 12, "velocity": 85}, {"time": 4191, "pitch": 65, "duration": 5, "velocity": 69}, {"time": 4197, "pitch": 42, "duration": 38, "velocity": 95}, {"time": 4203, "pitch": 54, "duration": 9, "velocity": 67}, {"time": 4209, "pitch": 58, "duration": 14, "velocity": 100}, {"time": 4215, "pitch": 54, "duration": 8, "velocity": 56}, {"time": 4221, "pitch": 61, "duration": 12, "velocity": 97}, {"time": 4221, "pitch": 66, "duration": 22, "velocity": 102}, {"time": 4227, "pitch": 54, "duration": 14, "velocity": 46}, {"time": 4233, "pitch": 58, "duration": 13, "velocity": 76}, {"time": 4239, "pitch": 61, "duration": 5, "velocity": 64}, {"time": 4245, "pitch": 44, "duration": 37, "velocity": 102}, {"time": 4251, "pitch": 56, "duration": 8, "velocity": 67}, {"time": 4257, "pitch": 60, "duration": 6, "velocity": 54}, {"time": 4257, "pitch": 63, "duration": 8, "velocity": 58}, {"time": 4263, "pitch": 56, "duration": 9, "velocity": 42}, {"time": 4269, "pitch": 60, "duration": 7, "velocity": 85}, {"time": 4269, "pitch": 63, "duration": 8, "velocity": 102}, {"time": 4275, "pitch": 51, "duration": 8, "velocity": 38}, {"time": 4281, "pitch": 56, "duration": 1, "velocity": 69}, {"time": 4281, "pitch": 60, "duration": 1, "velocity": 86}, {"time": 4281, "pitch": 63, "duration": 2, "velocity": 82}, {"time": 4293, "pitch": 51, "duration": 42, "velocity": 88}, {"time": 4299, "pitch": 54, "duration": 36, "velocity": 38}, {"time": 4305, "pitch": 58, "duration": 30, "velocity": 73}, {"time": 4311, "pitch": 63, "duration": 12, "velocity": 67}, {"time": 4317, "pitch": 66, "duration": 10, "velocity": 95}, {"time": 4317, "pitch": 70, "duration": 9, "velocity": 97}, {"time": 4335, "pitch": 63, "duration": 5, "velocity": 68}, {"time": 4335, "pitch": 66, "duration": 5, "velocity": 76}, {"time": 4335, "pitch": 70, "duration": 5, "velocity": 69}, {"time": 4341, "pitch": 46, "duration": 41, "velocity": 112}, {"time": 4347, "pitch": 58, "duration": 7, "velocity": 62}, {"time": 4353, "pitch": 61, "duration": 25, "velocity": 73}, {"time": 4359, "pitch": 58, "duration": 8, "velocity": 46}, {"time": 4365, "pitch": 65, "duration": 22, "velocity": 69}, {"time": 4377, "pitch": 58, "duration": 14, "velocity": 74}, {"time": 4389, "pitch": 51, "duration": 28, "velocity": 93}, {"time": 4395, "pitch": 58, "duration": 7, "velocity": 66}, {"time": 4401, "pitch": 63, "duration": 8, "velocity": 96}, {"time": 4407, "pitch": 58, "duration": 8, "velocity": 53}, {"time": 4413, "pitch": 63, "duration": 9, "velocity": 117}, {"time": 4413, "pitch": 66, "duration": 9, "velocity": 112}, {"time": 4419, "pitch": 51, "duration": 5, "velocity": 59}, {"time": 4425, "pitch": 63, "duration": 3, "velocity": 112}, {"time": 4425, "pitch": 66, "duration": 3, "velocity": 100}, {"time": 4437, "pitch": 44, "duration": 23, "velocity": 97}, {"time": 4437, "pitch": 56, "duration": 8, "velocity": 102}, {"time": 4437, "pitch": 60, "duration": 3, "velocity": 112}, {"time": 4437, "pitch": 63, "duration": 5, "velocity": 122}, {"time": 4443, "pitch": 50, "duration": 1, "velocity": 48}, {"time": 4449, "pitch": 48, "duration": 14, "velocity": 24}, {"time": 4449, "pitch": 56, "duration": 6, "velocity": 107}, {"time": 4449, "pitch": 60, "duration": 6, "velocity": 127}, {"time": 4449, "pitch": 63, "duration": 5, "velocity": 127}, {"time": 4455, "pitch": 51, "duration": 4, "velocity": 90}, {"time": 4461, "pitch": 44, "duration": 21, "velocity": 65}, {"time": 4461, "pitch": 51, "duration": 9, "velocity": 122}, {"time": 4461, "pitch": 56, "duration": 4, "velocity": 127}, {"time": 4461, "pitch": 60, "duration": 3, "velocity": 127}, {"time": 4461, "pitch": 63, "duration": 3, "velocity": 127}, {"time": 4467, "pitch": 56, "duration": 3, "velocity": 107}, {"time": 4467, "pitch": 60, "duration": 3, "velocity": 127}, {"time": 4467, "pitch": 63, "duration": 3, "velocity": 112}, {"time": 4473, "pitch": 48, "duration": 2, "velocity": 27}, {"time": 4473, "pitch": 51, "duration": 8, "velocity": 122}, {"time": 4473, "pitch": 56, "duration": 2, "velocity": 112}, {"time": 4473, "pitch": 60, "duration": 2, "velocity": 127}, {"time": 4473, "pitch": 63, "duration": 3, "velocity": 127}, {"time": 4479, "pitch": 56, "duration": 5, "velocity": 99}, {"time": 4479, "pitch": 60, "duration": 5, "velocity": 117}, {"time": 4479, "pitch": 63, "duration": 5, "velocity": 107}, {"time": 4485, "pitch": 49, "duration": 21, "velocity": 97}, {"time": 4485, "pitch": 56, "duration": 4, "velocity": 99}, {"time": 4485, "pitch": 61, "duration": 6, "velocity": 99}, {"time": 4485, "pitch": 65, "duration": 7, "velocity": 78}, {"time": 4491, "pitch": 56, "duration": 3, "velocity": 31}, {"time": 4497, "pitch": 61, "duration": 11, "velocity": 97}, {"time": 4497, "pitch": 65, "duration": 13, "velocity": 90}, {"time": 4503, "pitch": 56, "duration": 8, "velocity": 95}, {"time": 4509, "pitch": 49, "duration": 24, "velocity": 92}, {"time": 4515, "pitch": 56, "duration": 7, "velocity": 95}, {"time": 4521, "pitch": 61, "duration": 11, "velocity": 61}, {"time": 4521, "pitch": 65, "duration": 13, "velocity": 76}, {"time": 4527, "pitch": 56, "duration": 6, "velocity": 93}, {"time": 4533, "pitch": 46, "duration": 17, "velocity": 70}, {"time": 4539, "pitch": 58, "duration": 7, "velocity": 88}, {"time": 4545, "pitch": 61, "duration": 13, "velocity": 65}, {"time": 4545, "pitch": 65, "duration": 11, "velocity": 62}, {"time": 4551, "pitch": 58, "duration": 8, "velocity": 86}, {"time": 4557, "pitch": 46, "duration": 21, "velocity": 97}, {"time": 4563, "pitch": 58, "duration": 7, "velocity": 78}, {"time": 4569, "pitch": 61, "duration": 10, "velocity": 65}, {"time": 4569, "pitch": 65, "duration": 10, "velocity": 71}, {"time": 4575, "pitch": 58, "duration": 6, "velocity": 77}, {"time": 4581, "pitch": 42, "duration": 15, "velocity": 86}, {"time": 4587, "pitch": 54, "duration": 4, "velocity": 32}, {"time": 4593, "pitch": 58, "duration": 14, "velocity": 112}, {"time": 4593, "pitch": 61, "duration": 14, "velocity": 122}, {"time": 4599, "pitch": 42, "duration": 2, "velocity": 83}, {"time": 4605, "pitch": 42, "duration": 14, "velocity": 77}, {"time": 4611, "pitch": 54, "duration": 5, "velocity": 79}, {"time": 4617, "pitch": 58, "duration": 10, "velocity": 93}, {"time": 4617, "pitch": 61, "duration": 8, "velocity": 100}, {"time": 4623, "pitch": 54, "duration": 5, "velocity": 63}, {"time": 4629, "pitch": 44, "duration": 16, "velocity": 77}, {"time": 4635, "pitch": 56, "duration": 4, "velocity": 37}, {"time": 4641, "pitch": 60, "duration": 14, "velocity": 96}, {"time": 4641, "pitch": 63, "duration": 14, "velocity": 107}, {"time": 4647, "pitch": 44, "duration": 3, "velocity": 81}, {"time": 4653, "pitch": 44, "duration": 12, "velocity": 92}, {"time": 4659, "pitch": 56, "duration": 7, "velocity": 96}, {"time": 4665, "pitch": 60, "duration": 5, "velocity": 77}, {"time": 4665, "pitch": 63, "duration": 11, "velocity": 117}, {"time": 4671, "pitch": 56, "duration": 6, "velocity": 92}, {"time": 4671, "pitch": 60, "duration": 1, "velocity": 33}, {"time": 4677, "pitch": 39, "duration": 16, "velocity": 97}, {"time": 4683, "pitch": 51, "duration": 7, "velocity": 81}, {"time": 4689, "pitch": 54, "duration": 15, "velocity": 90}, {"time": 4689, "pitch": 58, "duration": 13, "velocity": 97}, {"time": 4695, "pitch": 39, "duration": 2, "velocity": 72}, {"time": 4701, "pitch": 39, "duration": 13, "velocity": 81}, {"time": 4707, "pitch": 51, "duration": 7, "velocity": 83}, {"time": 4713, "pitch": 54, "duration": 5, "velocity": 97}, {"time": 4713, "pitch": 58, "duration": 6, "velocity": 102}, {"time": 4725, "pitch": 46, "duration": 15, "velocity": 70}, {"time": 4731, "pitch": 58, "duration": 8, "velocity": 81}, {"time": 4737, "pitch": 61, "duration": 15, "velocity": 73}, {"time": 4737, "pitch": 65, "duration": 15, "velocity": 63}, {"time": 4743, "pitch": 46, "duration": 2, "velocity": 75}, {"time": 4749, "pitch": 46, "duration": 13, "velocity": 99}, {"time": 4755, "pitch": 58, "duration": 7, "velocity": 89}, {"time": 4761, "pitch": 61, "duration": 10, "velocity": 73}, {"time": 4761, "pitch": 65, "duration": 10, "velocity": 66}, {"time": 4767, "pitch": 58, "duration": 6, "velocity": 74}, {"time": 4773, "pitch": 39, "duration": 15, "velocity": 75}, {"time": 4779, "pitch": 51, "duration": 7, "velocity": 75}, {"time": 4785, "pitch": 54, "duration": 14, "velocity": 75}, {"time": 4785, "pitch": 58, "duration": 13, "velocity": 96}, {"time": 4791, "pitch": 39, "duration": 2, "velocity": 78}, {"time": 4797, "pitch": 39, "duration": 14, "velocity": 71}, {"time": 4803, "pitch": 51, "duration": 7, "velocity": 78}, {"time": 4809, "pitch": 54, "duration": 10, "velocity": 102}, {"time": 4809, "pitch": 58, "duration": 10, "velocity": 112}, {"time": 4815, "pitch": 51, "duration": 3, "velocity": 73}, {"time": 4821, "pitch": 44, "duration": 14, "velocity": 102}, {"time": 4833, "pitch": 60, "duration": 13, "velocity": 122}, {"time": 4833, "pitch": 63, "duration": 13, "velocity": 127}, {"time": 4839, "pitch": 44, "duration": 3, "velocity": 97}, {"time": 4845, "pitch": 44, "duration": 21, "velocity": 102}, {"time": 4851, "pitch": 56, "duration": 8, "velocity": 99}, {"time": 4851, "pitch": 60, "duration": 2, "velocity": 97}, {"time": 4851, "pitch": 63, "duration": 8, "velocity": 102}, {"time": 4857, "pitch": 60, "duration": 4, "velocity": 22}, {"time": 4863, "pitch": 56, "duration": 5, "velocity": 99}, {"time": 4863, "pitch": 60, "duration": 5, "velocity": 112}, {"time": 4863, "pitch": 63, "duration": 6, "velocity": 107}, {"time": 4869, "pitch": 49, "duration": 14, "velocity": 112}, {"time": 4875, "pitch": 56, "duration": 3, "velocity": 30}, {"time": 4881, "pitch": 56, "duration": 1, "velocity": 59}, {"time": 4881, "pitch": 61, "duration": 13, "velocity": 102}, {"time": 4881, "pitch": 65, "duration": 13, "velocity": 90}, {"time": 4887, "pitch": 49, "duration": 2, "velocity": 97}, {"time": 4893, "pitch": 49, "duration": 21, "velocity": 88}, {"time": 4899, "pitch": 56, "duration": 10, "velocity": 90}, {"time": 4899, "pitch": 61, "duration": 10, "velocity": 90}, {"time": 4899, "pitch": 65, "duration": 9, "velocity": 70}, {"time": 4911, "pitch": 56, "duration": 5, "velocity": 81}, {"time": 4911, "pitch": 61, "duration": 5, "velocity": 48}, {"time": 4911, "pitch": 65, "duration": 4, "velocity": 63}, {"time": 4917, "pitch": 46, "duration": 15, "velocity": 56}, {"time": 4929, "pitch": 58, "duration": 14, "velocity": 92}, {"time": 4929, "pitch": 61, "duration": 15, "velocity": 102}, {"time": 4929, "pitch": 65, "duration": 12, "velocity": 77}, {"time": 4935, "pitch": 46, "duration": 4, "velocity": 53}, {"time": 4941, "pitch": 46, "duration": 9, "velocity": 85}, {"time": 4947, "pitch": 58, "duration": 10, "velocity": 90}, {"time": 4947, "pitch": 61, "duration": 9, "velocity": 96}, {"time": 4947, "pitch": 65, "duration": 3, "velocity": 77}, {"time": 4959, "pitch": 58, "duration": 5, "velocity": 96}, {"time": 4959, "pitch": 61, "duration": 4, "velocity": 93}, {"time": 4959, "pitch": 65, "duration": 3, "velocity": 69}, {"time": 4965, "pitch": 39, "duration": 15, "velocity": 77}, {"time": 4977, "pitch": 51, "duration": 12, "velocity": 86}, {"time": 4977, "pitch": 54, "duration": 11, "velocity": 73}, {"time": 4977, "pitch": 58, "duration": 10, "velocity": 73}, {"time": 4983, "pitch": 39, "duration": 3, "velocity": 72}, {"time": 4989, "pitch": 39, "duration": 12, "velocity": 89}, {"time": 4995, "pitch": 51, "duration": 9, "velocity": 99}, {"time": 4995, "pitch": 54, "duration": 9, "velocity": 96}, {"time": 4995, "pitch": 58, "duration": 9, "velocity": 90}, {"time": 5007, "pitch": 51, "duration": 5, "velocity": 83}, {"time": 5007, "pitch": 54, "duration": 5, "velocity": 100}, {"time": 5007, "pitch": 58, "duration": 5, "velocity": 83}, {"time": 5013, "pitch": 42, "duration": 17, "velocity": 70}, {"time": 5019, "pitch": 54, "duration": 3, "velocity": 61}, {"time": 5025, "pitch": 58, "duration": 10, "velocity": 112}, {"time": 5025, "pitch": 61, "duration": 10, "velocity": 117}, {"time": 5031, "pitch": 54, "duration": 5, "velocity": 93}, {"time": 5037, "pitch": 44, "duration": 16, "velocity": 95}, {"time": 5043, "pitch": 56, "duration": 4, "velocity": 96}, {"time": 5049, "pitch": 60, "duration": 9, "velocity": 117}, {"time": 5049, "pitch": 63, "duration": 10, "velocity": 107}, {"time": 5055, "pitch": 56, "duration": 6, "velocity": 88}, {"time": 5061, "pitch": 39, "duration": 9, "velocity": 69}, {"time": 5061, "pitch": 51, "duration": 10, "velocity": 92}, {"time": 5061, "pitch": 54, "duration": 10, "velocity": 100}, {"time": 5061, "pitch": 58, "duration": 10, "velocity": 88}, {"time": 5085, "pitch": 44, "duration": 11, "velocity": 60}, {"time": 5085, "pitch": 56, "duration": 10, "velocity": 93}, {"time": 5085, "pitch": 60, "duration": 10, "velocity": 96}, {"time": 5085, "pitch": 63, "duration": 11, "velocity": 93}, {"time": 5109, "pitch": 49, "duration": 43, "velocity": 96}, {"time": 5115, "pitch": 53, "duration": 33, "velocity": 60}, {"time": 5121, "pitch": 56, "duration": 14, "velocity": 97}, {"time": 5127, "pitch": 61, "duration": 4, "velocity": 50}, {"time": 5133, "pitch": 61, "duration": 6, "velocity": 56}, {"time": 5133, "pitch": 65, "duration": 13, "velocity": 90}, {"time": 5133, "pitch": 68, "duration": 24, "velocity": 102}, {"time": 5139, "pitch": 56, "duration": 7, "velocity": 51}, {"time": 5145, "pitch": 61, "duration": 12, "velocity": 97}, {"time": 5151, "pitch": 65, "duration": 9, "velocity": 31}, {"time": 5157, "pitch": 39, "duration": 6, "velocity": 86}, {"time": 5157, "pitch": 51, "duration": 6, "velocity": 86}, {"time": 5157, "pitch": 54, "duration": 6, "velocity": 99}, {"time": 5157, "pitch": 58, "duration": 7, "velocity": 77}, {"time": 5181, "pitch": 44, "duration": 10, "velocity": 46}, {"time": 5181, "pitch": 48, "duration": 10, "velocity": 55}, {"time": 5181, "pitch": 51, "duration": 11, "velocity": 53}, {"time": 5181, "pitch": 56, "duration": 10, "velocity": 96}, {"time": 5181, "pitch": 60, "duration": 10, "velocity": 96}, {"time": 5181, "pitch": 63, "duration": 11, "velocity": 92}, {"time": 5205, "pitch": 49, "duration": 39, "velocity": 93}, {"time": 5205, "pitch": 61, "duration": 15, "velocity": 97}, {"time": 5205, "pitch": 65, "duration": 15, "velocity": 97}, {"time": 5205, "pitch": 68, "duration": 20, "velocity": 93}, {"time": 5211, "pitch": 53, "duration": 30, "velocity": 47}, {"time": 5217, "pitch": 56, "duration": 14, "velocity": 83}, {"time": 5223, "pitch": 61, "duration": 8, "velocity": 51}, {"time": 5229, "pitch": 65, "duration": 8, "velocity": 88}, {"time": 5229, "pitch": 68, "duration": 10, "velocity": 100}, {"time": 5235, "pitch": 56, "duration": 6, "velocity": 62}, {"time": 5241, "pitch": 61, "duration": 8, "velocity": 112}, {"time": 5241, "pitch": 65, "duration": 1, "velocity": 53}, {"time": 5241, "pitch": 68, "duration": 1, "velocity": 37}, {"time": 5247, "pitch": 65, "duration": 3, "velocity": 58}, {"time": 5253, "pitch": 49, "duration": 37, "velocity": 96}, {"time": 5253, "pitch": 61, "duration": 9, "velocity": 112}, {"time": 5253, "pitch": 65, "duration": 7, "velocity": 122}, {"time": 5253, "pitch": 68, "duration": 5, "velocity": 112}, {"time": 5265, "pitch": 65, "duration": 14, "velocity": 112}, {"time": 5265, "pitch": 68, "duration": 15, "velocity": 112}, {"time": 5271, "pitch": 61, "duration": 9, "velocity": 77}, {"time": 5277, "pitch": 53, "duration": 13, "velocity": 10}, {"time": 5277, "pitch": 56, "duration": 13, "velocity": 56}, {"time": 5283, "pitch": 61, "duration": 4, "velocity": 81}, {"time": 5289, "pitch": 65, "duration": 7, "velocity": 122}, {"time": 5289, "pitch": 68, "duration": 9, "velocity": 122}, {"time": 5295, "pitch": 61, "duration": 5, "velocity": 85}, {"time": 5301, "pitch": 46, "duration": 1, "velocity": 24}, {"time": 5301, "pitch": 46, "duration": 1, "velocity": 73}, {"time": 5307, "pitch": 58, "duration": 7, "velocity": 59}, {"time": 5313, "pitch": 61, "duration": 14, "velocity": 117}, {"time": 5313, "pitch": 65, "duration": 13, "velocity": 79}, {"time": 5319, "pitch": 46, "duration": 3, "velocity": 66}, {"time": 5325, "pitch": 46, "duration": 14, "velocity": 95}, {"time": 5331, "pitch": 58, "duration": 7, "velocity": 79}, {"time": 5337, "pitch": 61, "duration": 12, "velocity": 72}, {"time": 5337, "pitch": 65, "duration": 11, "velocity": 72}, {"time": 5343, "pitch": 58, "duration": 7, "velocity": 72}, {"time": 5349, "pitch": 42, "duration": 21, "velocity": 82}, {"time": 5355, "pitch": 54, "duration": 5, "velocity": 75}, {"time": 5361, "pitch": 58, "duration": 14, "velocity": 112}, {"time": 5361, "pitch": 61, "duration": 13, "velocity": 112}, {"time": 5367, "pitch": 54, "duration": 8, "velocity": 82}, {"time": 5373, "pitch": 42, "duration": 13, "velocity": 64}, {"time": 5379, "pitch": 54, "duration": 7, "velocity": 81}, {"time": 5385, "pitch": 58, "duration": 9, "velocity": 102}, {"time": 5385, "pitch": 61, "duration": 8, "velocity": 122}, {"time": 5391, "pitch": 54, "duration": 3, "velocity": 74}, {"time": 5397, "pitch": 44, "duration": 38, "velocity": 100}, {"time": 5397, "pitch": 51, "duration": 13, "velocity": 97}, {"time": 5409, "pitch": 48, "duration": 28, "velocity": 36}, {"time": 5409, "pitch": 56, "duration": 4, "velocity": 112}, {"time": 5409, "pitch": 68, "duration": 4, "velocity": 100}, {"time": 5415, "pitch": 51, "duration": 8, "velocity": 60}, {"time": 5421, "pitch": 58, "duration": 2, "velocity": 122}, {"time": 5421, "pitch": 70, "duration": 1, "velocity": 100}, {"time": 5427, "pitch": 51, "duration": 5, "velocity": 56}, {"time": 5433, "pitch": 51, "duration": 2, "velocity": 99}, {"time": 5433, "pitch": 60, "duration": 2, "velocity": 102}, {"time": 5433, "pitch": 72, "duration": 1, "velocity": 92}, {"time": 5445, "pitch": 41, "duration": 36, "velocity": 81}, {"time": 5445, "pitch": 60, "duration": 8, "velocity": 93}, {"time": 5445, "pitch": 65, "duration": 8, "velocity": 99}, {"time": 5445, "pitch": 68, "duration": 7, "velocity": 107}, {"time": 5451, "pitch": 48, "duration": 31, "velocity": 53}, {"time": 5457, "pitch": 65, "duration": 17, "velocity": 100}, {"time": 5457, "pitch": 68, "duration": 20, "velocity": 122}, {"time": 5463, "pitch": 60, "duration": 9, "velocity": 88}, {"time": 5469, "pitch": 53, "duration": 15, "velocity": 85}, {"time": 5475, "pitch": 60, "duration": 7, "velocity": 69}, {"time": 5481, "pitch": 65, "duration": 8, "velocity": 102}, {"time": 5481, "pitch": 68, "duration": 8, "velocity": 117}, {"time": 5487, "pitch": 60, "duration": 5, "velocity": 72}, {"time": 5493, "pitch": 46, "duration": 16, "velocity": 89}, {"time": 5505, "pitch": 58, "duration": 13, "velocity": 93}, {"time": 5505, "pitch": 61, "duration": 13, "velocity": 117}, {"time": 5505, "pitch": 65, "duration": 13, "velocity": 99}, {"time": 5511, "pitch": 46, "duration": 3, "velocity": 72}, {"time": 5517, "pitch": 46, "duration": 10, "velocity": 68}, {"time": 5523, "pitch": 58, "duration": 11, "velocity": 85}, {"time": 5523, "pitch": 61, "duration": 10, "velocity": 93}, {"time": 5523, "pitch": 65, "duration": 10, "velocity": 76}, {"time": 5535, "pitch": 58, "duration": 6, "velocity": 90}, {"time": 5535, "pitch": 61, "duration": 5, "velocity": 102}, {"time": 5535, "pitch": 65, "duration": 4, "velocity": 69}, {"time": 5541, "pitch": 39, "duration": 16, "velocity": 90}, {"time": 5553, "pitch": 54, "duration": 6, "velocity": 97}, {"time": 5553, "pitch": 58, "duration": 7, "velocity": 97}, {"time": 5553, "pitch": 63, "duration": 7, "velocity": 88}, {"time": 5565, "pitch": 44, "duration": 13, "velocity": 100}, {"time": 5565, "pitch": 51, "duration": 15, "velocity": 82}, {"time": 5577, "pitch": 56, "duration": 2, "velocity": 93}, {"time": 5577, "pitch": 60, "duration": 9, "velocity": 112}, {"time": 5577, "pitch": 63, "duration": 10, "velocity": 112}, {"time": 5583, "pitch": 56, "duration": 3, "velocity": 65}, {"time": 5589, "pitch": 49, "duration": 37, "velocity": 97}, {"time": 5595, "pitch": 53, "duration": 30, "velocity": 59}, {"time": 5601, "pitch": 56, "duration": 15, "velocity": 112}, {"time": 5607, "pitch": 63, "duration": 7, "velocity": 117}, {"time": 5613, "pitch": 65, "duration": 12, "velocity": 100}, {"time": 5619, "pitch": 56, "duration": 6, "velocity": 100}, {"time": 5625, "pitch": 63, "duration": 1, "velocity": 122}, {"time": 5637, "pitch": 37, "duration": 30, "velocity": 89}, {"time": 5637, "pitch": 49, "duration": 29, "velocity": 59}, {"time": 5637, "pitch": 61, "duration": 30, "velocity": 85}, {"time": 5637, "pitch": 65, "duration": 30, "velocity": 89}, {"time": 5637, "pitch": 68, "duration": 30, "velocity": 99}], "annotations": [{"time": 54, "annotation": {"number": 64, "value": 127}, "group": "control_change"}, {"time": 66, "annotation": {"number": 64, "value": 0}, "group": "control_change"}, {"time": 69, "annotation": {"number": 64, "value": 127}, "group": "control_change"}, {"time": 73, "annotation": {"number": 64, "value": 127}, "group": "control_change"}, {"time": 91, "annotation": {"number": 64, "value": 0}, "group": "control_change"}, {"time": 115, "annotation": {"number": 64, "value": 127}, "group": "control_change"}, {"time": 125, "annotation": {"number": 64, "value": 0}, "group": "control_change"}, {"time": 146, "annotation": {"number": 64, "value": 127}, "group": "control_change"}, {"time": 162, "annotation": {"number": 64, "value": 0}, "group": "control_change"}, {"time": 165, "annotation": {"number": 64, "value": 127}, "group": "control_change"}, {"time": 184, "annotation": {"number": 64, "value": 0}, "group": "control_change"}, {"time": 189, "annotation": {"number": 64, "value": 127}, "group": "control_change"}, {"time": 210, "annotation": {"number": 64, "value": 0}, "group": "control_change"}, {"time": 212, "annotation": {"number": 64, "value": 127}, "group": "control_change"}, {"time": 241, "annotation": {"number": 64, "value": 0}, "group": "control_change"}, {"time": 261, "annotation": {"number": 64, "value": 127}, "group": "control_change"}, {"time": 380, "annotation": {"number": 64, "value": 127}, "group": "control_change"}, {"time": 402, "annotation": {"number": 64, "value": 0}, "group": "control_change"}, {"time": 406, "annotation": {"number": 64, "value": 127}, "group": "control_change"}, {"time": 450, "annotation": {"number": 64, "value": 0}, "group": "control_change"}, {"time": 454, "annotation": {"number": 64, "value": 127}, "group": "control_change"}, {"time": 566, "annotation": {"number": 64, "value": 0}, "group": "control_change"}, {"time": 574, "annotation": {"number": 64, "value": 127}, "group": "control_change"}, {"time": 592, "annotation": {"number": 64, "value": 0}, "group": "control_change"}, {"time": 598, "annotation": {"number": 64, "value": 127}, "group": "control_change"}, {"time": 652, "annotation": {"number": 64, "value": 0}, "group": "control_change"}, {"time": 655, "annotation": {"number": 64, "value": 127}, "group": "control_change"}, {"time": 676, "annotation": {"number": 64, "value": 0}, "group": "control_change"}, {"time": 679, "annotation": {"number": 64, "value": 127}, "group": "control_change"}, {"time": 700, "annotation": {"number": 64, "value": 0}, "group": "control_change"}, {"time": 704, "annotation": {"number": 64, "value": 127}, "group": "control_change"}, {"time": 786, "annotation": {"number": 64, "value": 0}, "group": "control_change"}, {"time": 788, "annotation": {"number": 64, "value": 127}, "group": "control_change"}, {"time": 788, "annotation": {"number": 64, "value": 0}, "group": "control_change"}, {"time": 789, "annotation": {"number": 64, "value": 127}, "group": "control_change"}, {"time": 835, "annotation": {"number": 64, "value": 0}, "group": "control_change"}, {"time": 838, "annotation": {"number": 64, "value": 127}, "group": "control_change"}, {"time": 950, "annotation": {"number": 64, "value": 0}, "group": "control_change"}, {"time": 958, "annotation": {"number": 64, "value": 127}, "group": "control_change"}, {"time": 976, "annotation": {"number": 64, "value": 0}, "group": "control_change"}, {"time": 982, "annotation": {"number": 64, "value": 127}, "group": "control_change"}, {"time": 1036, "annotation": {"number": 64, "value": 0}, "group": "control_change"}, {"time": 1039, "annotation": {"number": 64, "value": 127}, "group": "control_change"}, {"time": 1060, "annotation": {"number": 64, "value": 0}, "group": "control_change"}, {"time": 1063, "annotation": {"number": 64, "value": 127}, "group": "control_change"}, {"time": 1084, "annotation": {"number": 64, "value": 0}, "group": "control_change"}, {"time": 1088, "annotation": {"number": 64, "value": 127}, "group": "control_change"}, {"time": 1125, "annotation": {"number": 64, "value": 127}, "group": "control_change"}, {"time": 1134, "annotation": {"number": 64, "value": 0}, "group": "control_change"}, {"time": 1137, "annotation": {"number": 64, "value": 127}, "group": "control_change"}, {"time": 1145, "annotation": {"number": 64, "value": 0}, "group": "control_change"}, {"time": 1148, "annotation": {"number": 64, "value": 127}, "group": "control_change"}, {"time": 1170, "annotation": {"number": 64, "value": 0}, "group": "control_change"}, {"time": 1172, "annotation": {"number": 64, "value": 127}, "group": "control_change"}, {"time": 1218, "annotation": {"number": 64, "value": 0}, "group": "control_change"}, {"time": 1220, "annotation": {"number": 64, "value": 127}, "group": "control_change"}, {"time": 1230, "annotation": {"number": 64, "value": 0}, "group": "control_change"}, {"time": 1233, "annotation": {"number": 64, "value": 127}, "group": "control_change"}, {"time": 1242, "annotation": {"number": 64, "value": 0}, "group": "control_change"}, {"time": 1244, "annotation": {"number": 64, "value": 127}, "group": "control_change"}, {"time": 1254, "annotation": {"number": 64, "value": 0}, "group": "control_change"}, {"time": 1256, "annotation": {"number": 64, "value": 127}, "group": "control_change"}, {"time": 1259, "annotation": {"number": 64, "value": 0}, "group": "control_change"}, {"time": 1260, "annotation": {"number": 64, "value": 127}, "group": "control_change"}, {"time": 1267, "annotation": {"number": 64, "value": 0}, "group": "control_change"}, {"time": 1269, "annotation": {"number": 64, "value": 127}, "group": "control_change"}, {"time": 1276, "annotation": {"number": 64, "value": 0}, "group": "control_change"}, {"time": 1279, "annotation": {"number": 64, "value": 127}, "group": "control_change"}, {"time": 1290, "annotation": {"number": 64, "value": 0}, "group": "control_change"}, {"time": 1293, "annotation": {"number": 64, "value": 127}, "group": "control_change"}, {"time": 1301, "annotation": {"number": 64, "value": 0}, "group": "control_change"}, {"time": 1304, "annotation": {"number": 64, "value": 127}, "group": "control_change"}, {"time": 1314, "annotation": {"number": 64, "value": 0}, "group": "control_change"}, {"time": 1316, "annotation": {"number": 64, "value": 127}, "group": "control_change"}, {"time": 1326, "annotation": {"number": 64, "value": 0}, "group": "control_change"}, {"time": 1330, "annotation": {"number": 64, "value": 127}, "group": "control_change"}, {"time": 1336, "annotation": {"number": 64, "value": 0}, "group": "control_change"}, {"time": 1340, "annotation": {"number": 64, "value": 127}, "group": "control_change"}, {"time": 1362, "annotation": {"number": 64, "value": 0}, "group": "control_change"}, {"time": 1364, "annotation": {"number": 64, "value": 127}, "group": "control_change"}, {"time": 1379, "annotation": {"number": 64, "value": 0}, "group": "control_change"}, {"time": 1381, "annotation": {"number": 64, "value": 127}, "group": "control_change"}, {"time": 1385, "annotation": {"number": 64, "value": 0}, "group": "control_change"}, {"time": 1388, "annotation": {"number": 64, "value": 127}, "group": "control_change"}, {"time": 1410, "annotation": {"number": 64, "value": 0}, "group": "control_change"}, {"time": 1412, "annotation": {"number": 64, "value": 127}, "group": "control_change"}, {"time": 1426, "annotation": {"number": 64, "value": 0}, "group": "control_change"}, {"time": 1428, "annotation": {"number": 64, "value": 127}, "group": "control_change"}, {"time": 1429, "annotation": {"number": 64, "value": 0}, "group": "control_change"}, {"time": 1429, "annotation": {"number": 64, "value": 127}, "group": "control_change"}, {"time": 1433, "annotation": {"number": 64, "value": 0}, "group": "control_change"}, {"time": 1436, "annotation": {"number": 64, "value": 127}, "group": "control_change"}, {"time": 1459, "annotation": {"number": 64, "value": 0}, "group": "control_change"}, {"time": 1467, "annotation": {"number": 64, "value": 127}, "group": "control_change"}, {"time": 1493, "annotation": {"number": 64, "value": 0}, "group": "control_change"}, {"time": 1496, "annotation": {"number": 64, "value": 127}, "group": "control_change"}, {"time": 1513, "annotation": {"number": 64, "value": 0}, "group": "control_change"}, {"time": 1525, "annotation": {"number": 64, "value": 127}, "group": "control_change"}, {"time": 1540, "annotation": {"number": 64, "value": 0}, "group": "control_change"}, {"time": 1543, "annotation": {"number": 64, "value": 127}, "group": "control_change"}, {"time": 1580, "annotation": {"number": 64, "value": 0}, "group": "control_change"}, {"time": 1582, "annotation": {"number": 64, "value": 127}, "group": "control_change"}, {"time": 1591, "annotation": {"number": 64, "value": 0}, "group": "control_change"}, {"time": 1592, "annotation": {"number": 64, "value": 127}, "group": "control_change"}, {"time": 1599, "annotation": {"number": 64, "value": 0}, "group": "control_change"}, {"time": 1614, "annotation": {"number": 64, "value": 0}, "group": "control_change"}, {"time": 1617, "annotation": {"number": 64, "value": 127}, "group": "control_change"}, {"time": 1626, "annotation": {"number": 64, "value": 0}, "group": "control_change"}, {"time": 1628, "annotation": {"number": 64, "value": 127}, "group": "control_change"}, {"time": 1638, "annotation": {"number": 64, "value": 0}, "group": "control_change"}, {"time": 1640, "annotation": {"number": 64, "value": 127}, "group": "control_change"}, {"time": 1643, "annotation": {"number": 64, "value": 0}, "group": "control_change"}, {"time": 1644, "annotation": {"number": 64, "value": 127}, "group": "control_change"}, {"time": 1651, "annotation": {"number": 64, "value": 0}, "group": "control_change"}, {"time": 1653, "annotation": {"number": 64, "value": 127}, "group": "control_change"}, {"time": 1660, "annotation": {"number": 64, "value": 0}, "group": "control_change"}, {"time": 1663, "annotation": {"number": 64, "value": 127}, "group": "control_change"}, {"time": 1674, "annotation": {"number": 64, "value": 0}, "group": "control_change"}, {"time": 1677, "annotation": {"number": 64, "value": 127}, "group": "control_change"}, {"time": 1685, "annotation": {"number": 64, "value": 0}, "group": "control_change"}, {"time": 1688, "annotation": {"number": 64, "value": 127}, "group": "control_change"}, {"time": 1698, "annotation": {"number": 64, "value": 0}, "group": "control_change"}, {"time": 1700, "annotation": {"number": 64, "value": 127}, "group": "control_change"}, {"time": 1710, "annotation": {"number": 64, "value": 0}, "group": "control_change"}, {"time": 1714, "annotation": {"number": 64, "value": 127}, "group": "control_change"}, {"time": 1720, "annotation": {"number": 64, "value": 0}, "group": "control_change"}, {"time": 1724, "annotation": {"number": 64, "value": 127}, "group": "control_change"}, {"time": 1746, "annotation": {"number": 64, "value": 0}, "group": "control_change"}, {"time": 1748, "annotation": {"number": 64, "value": 127}, "group": "control_change"}, {"time": 1763, "annotation": {"number": 64, "value": 0}, "group": "control_change"}, {"time": 1765, "annotation": {"number": 64, "value": 127}, "group": "control_change"}, {"time": 1769, "annotation": {"number": 64, "value": 0}, "group": "control_change"}, {"time": 1772, "annotation": {"number": 64, "value": 127}, "group": "control_change"}, {"time": 1794, "annotation": {"number": 64, "value": 0}, "group": "control_change"}, {"time": 1796, "annotation": {"number": 64, "value": 127}, "group": "control_change"}, {"time": 1810, "annotation": {"number": 64, "value": 0}, "group": "control_change"}, {"time": 1812, "annotation": {"number": 64, "value": 127}, "group": "control_change"}, {"time": 1813, "annotation": {"number": 64, "value": 0}, "group": "control_change"}, {"time": 1813, "annotation": {"number": 64, "value": 127}, "group": "control_change"}, {"time": 1817, "annotation": {"number": 64, "value": 0}, "group": "control_change"}, {"time": 1820, "annotation": {"number": 64, "value": 127}, "group": "control_change"}, {"time": 1843, "annotation": {"number": 64, "value": 0}, "group": "control_change"}, {"time": 1851, "annotation": {"number": 64, "value": 127}, "group": "control_change"}, {"time": 1877, "annotation": {"number": 64, "value": 0}, "group": "control_change"}, {"time": 1880, "annotation": {"number": 64, "value": 127}, "group": "control_change"}, {"time": 1897, "annotation": {"number": 64, "value": 0}, "group": "control_change"}, {"time": 1909, "annotation": {"number": 64, "value": 127}, "group": "control_change"}, {"time": 1924, "annotation": {"number": 64, "value": 0}, "group": "control_change"}, {"time": 1927, "annotation": {"number": 64, "value": 127}, "group": "control_change"}, {"time": 1964, "annotation": {"number": 64, "value": 0}, "group": "control_change"}, {"time": 1966, "annotation": {"number": 64, "value": 127}, "group": "control_change"}, {"time": 1975, "annotation": {"number": 64, "value": 0}, "group": "control_change"}, {"time": 1976, "annotation": {"number": 64, "value": 127}, "group": "control_change"}, {"time": 1983, "annotation": {"number": 64, "value": 0}, "group": "control_change"}, {"time": 1989, "annotation": {"number": 64, "value": 127}, "group": "control_change"}, {"time": 2001, "annotation": {"number": 64, "value": 0}, "group": "control_change"}, {"time": 2005, "annotation": {"number": 64, "value": 127}, "group": "control_change"}, {"time": 2129, "annotation": {"number": 64, "value": 0}, "group": "control_change"}, {"time": 2133, "annotation": {"number": 64, "value": 127}, "group": "control_change"}, {"time": 2142, "annotation": {"number": 64, "value": 0}, "group": "control_change"}, {"time": 2146, "annotation": {"number": 64, "value": 127}, "group": "control_change"}, {"time": 2146, "annotation": {"number": 64, "value": 0}, "group": "control_change"}, {"time": 2150, "annotation": {"number": 64, "value": 127}, "group": "control_change"}, {"time": 2156, "annotation": {"number": 64, "value": 0}, "group": "control_change"}, {"time": 2161, "annotation": {"number": 64, "value": 127}, "group": "control_change"}, {"time": 2177, "annotation": {"number": 64, "value": 0}, "group": "control_change"}, {"time": 2179, "annotation": {"number": 64, "value": 127}, "group": "control_change"}, {"time": 2180, "annotation": {"number": 64, "value": 127}, "group": "control_change"}, {"time": 2204, "annotation": {"number": 64, "value": 0}, "group": "control_change"}, {"time": 2211, "annotation": {"number": 64, "value": 127}, "group": "control_change"}, {"time": 2226, "annotation": {"number": 64, "value": 0}, "group": "control_change"}, {"time": 2229, "annotation": {"number": 64, "value": 127}, "group": "control_change"}, {"time": 2267, "annotation": {"number": 64, "value": 0}, "group": "control_change"}, {"time": 2277, "annotation": {"number": 64, "value": 127}, "group": "control_change"}, {"time": 2291, "annotation": {"number": 64, "value": 0}, "group": "control_change"}, {"time": 2299, "annotation": {"number": 64, "value": 127}, "group": "control_change"}, {"time": 2339, "annotation": {"number": 64, "value": 0}, "group": "control_change"}, {"time": 2343, "annotation": {"number": 64, "value": 127}, "group": "control_change"}, {"time": 2386, "annotation": {"number": 64, "value": 0}, "group": "control_change"}, {"time": 2391, "annotation": {"number": 64, "value": 127}, "group": "control_change"}, {"time": 2394, "annotation": {"number": 64, "value": 0}, "group": "control_change"}, {"time": 2397, "annotation": {"number": 64, "value": 127}, "group": "control_change"}, {"time": 2407, "annotation": {"number": 64, "value": 0}, "group": "control_change"}, {"time": 2420, "annotation": {"number": 64, "value": 127}, "group": "control_change"}, {"time": 2433, "annotation": {"number": 64, "value": 0}, "group": "control_change"}, {"time": 2438, "annotation": {"number": 64, "value": 127}, "group": "control_change"}, {"time": 2465, "annotation": {"number": 64, "value": 0}, "group": "control_change"}, {"time": 2469, "annotation": {"number": 64, "value": 127}, "group": "control_change"}, {"time": 2483, "annotation": {"number": 64, "value": 0}, "group": "control_change"}, {"time": 2487, "annotation": {"number": 64, "value": 127}, "group": "control_change"}, {"time": 2514, "annotation": {"number": 64, "value": 0}, "group": "control_change"}, {"time": 2517, "annotation": {"number": 64, "value": 127}, "group": "control_change"}, {"time": 2561, "annotation": {"number": 64, "value": 0}, "group": "control_change"}, {"time": 2565, "annotation": {"number": 64, "value": 127}, "group": "control_change"}, {"time": 2585, "annotation": {"number": 64, "value": 0}, "group": "control_change"}, {"time": 2592, "annotation": {"number": 64, "value": 127}, "group": "control_change"}, {"time": 2644, "annotation": {"number": 64, "value": 0}, "group": "control_change"}, {"time": 2648, "annotation": {"number": 64, "value": 127}, "group": "control_change"}, {"time": 2657, "annotation": {"number": 64, "value": 0}, "group": "control_change"}, {"time": 2662, "annotation": {"number": 64, "value": 127}, "group": "control_change"}, {"time": 2774, "annotation": {"number": 64, "value": 0}, "group": "control_change"}, {"time": 2782, "annotation": {"number": 64, "value": 127}, "group": "control_change"}, {"time": 2800, "annotation": {"number": 64, "value": 0}, "group": "control_change"}, {"time": 2806, "annotation": {"number": 64, "value": 127}, "group": "control_change"}, {"time": 2860, "annotation": {"number": 64, "value": 0}, "group": "control_change"}, {"time": 2863, "annotation": {"number": 64, "value": 127}, "group": "control_change"}, {"time": 2884, "annotation": {"number": 64, "value": 0}, "group": "control_change"}, {"time": 2887, "annotation": {"number": 64, "value": 127}, "group": "control_change"}, {"time": 2908, "annotation": {"number": 64, "value": 0}, "group": "control_change"}, {"time": 2912, "annotation": {"number": 64, "value": 127}, "group": "control_change"}, {"time": 2949, "annotation": {"number": 64, "value": 127}, "group": "control_change"}, {"time": 2958, "annotation": {"number": 64, "value": 0}, "group": "control_change"}, {"time": 2961, "annotation": {"number": 64, "value": 127}, "group": "control_change"}, {"time": 2969, "annotation": {"number": 64, "value": 0}, "group": "control_change"}, {"time": 2972, "annotation": {"number": 64, "value": 127}, "group": "control_change"}, {"time": 2994, "annotation": {"number": 64, "value": 0}, "group": "control_change"}, {"time": 2996, "annotation": {"number": 64, "value": 127}, "group": "control_change"}, {"time": 3042, "annotation": {"number": 64, "value": 0}, "group": "control_change"}, {"time": 3044, "annotation": {"number": 64, "value": 127}, "group": "control_change"}, {"time": 3054, "annotation": {"number": 64, "value": 0}, "group": "control_change"}, {"time": 3057, "annotation": {"number": 64, "value": 127}, "group": "control_change"}, {"time": 3066, "annotation": {"number": 64, "value": 0}, "group": "control_change"}, {"time": 3068, "annotation": {"number": 64, "value": 127}, "group": "control_change"}, {"time": 3078, "annotation": {"number": 64, "value": 0}, "group": "control_change"}, {"time": 3080, "annotation": {"number": 64, "value": 127}, "group": "control_change"}, {"time": 3083, "annotation": {"number": 64, "value": 0}, "group": "control_change"}, {"time": 3084, "annotation": {"number": 64, "value": 127}, "group": "control_change"}, {"time": 3091, "annotation": {"number": 64, "value": 0}, "group": "control_change"}, {"time": 3093, "annotation": {"number": 64, "value": 127}, "group": "control_change"}, {"time": 3100, "annotation": {"number": 64, "value": 0}, "group": "control_change"}, {"time": 3103, "annotation": {"number": 64, "value": 127}, "group": "control_change"}, {"time": 3114, "annotation": {"number": 64, "value": 0}, "group": "control_change"}, {"time": 3117, "annotation": {"number": 64, "value": 127}, "group": "control_change"}, {"time": 3125, "annotation": {"number": 64, "value": 0}, "group": "control_change"}, {"time": 3128, "annotation": {"number": 64, "value": 127}, "group": "control_change"}, {"time": 3138, "annotation": {"number": 64, "value": 0}, "group": "control_change"}, {"time": 3140, "annotation": {"number": 64, "value": 127}, "group": "control_change"}, {"time": 3150, "annotation": {"number": 64, "value": 0}, "group": "control_change"}, {"time": 3154, "annotation": {"number": 64, "value": 127}, "group": "control_change"}, {"time": 3160, "annotation": {"number": 64, "value": 0}, "group": "control_change"}, {"time": 3164, "annotation": {"number": 64, "value": 127}, "group": "control_change"}, {"time": 3186, "annotation": {"number": 64, "value": 0}, "group": "control_change"}, {"time": 3188, "annotation": {"number": 64, "value": 127}, "group": "control_change"}, {"time": 3203, "annotation": {"number": 64, "value": 0}, "group": "control_change"}, {"time": 3205, "annotation": {"number": 64, "value": 127}, "group": "control_change"}, {"time": 3209, "annotation": {"number": 64, "value": 0}, "group": "control_change"}, {"time": 3212, "annotation": {"number": 64, "value": 127}, "group": "control_change"}, {"time": 3234, "annotation": {"number": 64, "value": 0}, "group": "control_change"}, {"time": 3236, "annotation": {"number": 64, "value": 127}, "group": "control_change"}, {"time": 3250, "annotation": {"number": 64, "value": 0}, "group": "control_change"}, {"time": 3252, "annotation": {"number": 64, "value": 127}, "group": "control_change"}, {"time": 3253, "annotation": {"number": 64, "value": 0}, "group": "control_change"}, {"time": 3253, "annotation": {"number": 64, "value": 127}, "group": "control_change"}, {"time": 3257, "annotation": {"number": 64, "value": 0}, "group": "control_change"}, {"time": 3260, "annotation": {"number": 64, "value": 127}, "group": "control_change"}, {"time": 3283, "annotation": {"number": 64, "value": 0}, "group": "control_change"}, {"time": 3291, "annotation": {"number": 64, "value": 127}, "group": "control_change"}, {"time": 3317, "annotation": {"number": 64, "value": 0}, "group": "control_change"}, {"time": 3320, "annotation": {"number": 64, "value": 127}, "group": "control_change"}, {"time": 3337, "annotation": {"number": 64, "value": 0}, "group": "control_change"}, {"time": 3349, "annotation": {"number": 64, "value": 127}, "group": "control_change"}, {"time": 3364, "annotation": {"number": 64, "value": 0}, "group": "control_change"}, {"time": 3367, "annotation": {"number": 64, "value": 127}, "group": "control_change"}, {"time": 3404, "annotation": {"number": 64, "value": 0}, "group": "control_change"}, {"time": 3406, "annotation": {"number": 64, "value": 127}, "group": "control_change"}, {"time": 3415, "annotation": {"number": 64, "value": 0}, "group": "control_change"}, {"time": 3416, "annotation": {"number": 64, "value": 127}, "group": "control_change"}, {"time": 3423, "annotation": {"number": 64, "value": 0}, "group": "control_change"}, {"time": 3438, "annotation": {"number": 64, "value": 0}, "group": "control_change"}, {"time": 3441, "annotation": {"number": 64, "value": 127}, "group": "control_change"}, {"time": 3450, "annotation": {"number": 64, "value": 0}, "group": "control_change"}, {"time": 3452, "annotation": {"number": 64, "value": 127}, "group": "control_change"}, {"time": 3462, "annotation": {"number": 64, "value": 0}, "group": "control_change"}, {"time": 3464, "annotation": {"number": 64, "value": 127}, "group": "control_change"}, {"time": 3467, "annotation": {"number": 64, "value": 0}, "group": "control_change"}, {"time": 3468, "annotation": {"number": 64, "value": 127}, "group": "control_change"}, {"time": 3475, "annotation": {"number": 64, "value": 0}, "group": "control_change"}, {"time": 3477, "annotation": {"number": 64, "value": 127}, "group": "control_change"}, {"time": 3484, "annotation": {"number": 64, "value": 0}, "group": "control_change"}, {"time": 3487, "annotation": {"number": 64, "value": 127}, "group": "control_change"}, {"time": 3498, "annotation": {"number": 64, "value": 0}, "group": "control_change"}, {"time": 3501, "annotation": {"number": 64, "value": 127}, "group": "control_change"}, {"time": 3509, "annotation": {"number": 64, "value": 0}, "group": "control_change"}, {"time": 3512, "annotation": {"number": 64, "value": 127}, "group": "control_change"}, {"time": 3522, "annotation": {"number": 64, "value": 0}, "group": "control_change"}, {"time": 3524, "annotation": {"number": 64, "value": 127}, "group": "control_change"}, {"time": 3534, "annotation": {"number": 64, "value": 0}, "group": "control_change"}, {"time": 3538, "annotation": {"number": 64, "value": 127}, "group": "control_change"}, {"time": 3544, "annotation": {"number": 64, "value": 0}, "group": "control_change"}, {"time": 3548, "annotation": {"number": 64, "value": 127}, "group": "control_change"}, {"time": 3570, "annotation": {"number": 64, "value": 0}, "group": "control_change"}, {"time": 3572, "annotation": {"number": 64, "value": 127}, "group": "control_change"}, {"time": 3587, "annotation": {"number": 64, "value": 0}, "group": "control_change"}, {"time": 3589, "annotation": {"number": 64, "value": 127}, "group": "control_change"}, {"time": 3593, "annotation": {"number": 64, "value": 0}, "group": "control_change"}, {"time": 3596, "annotation": {"number": 64, "value": 127}, "group": "control_change"}, {"time": 3618, "annotation": {"number": 64, "value": 0}, "group": "control_change"}, {"time": 3620, "annotation": {"number": 64, "value": 127}, "group": "control_change"}, {"time": 3634, "annotation": {"number": 64, "value": 0}, "group": "control_change"}, {"time": 3636, "annotation": {"number": 64, "value": 127}, "group": "control_change"}, {"time": 3637, "annotation": {"number": 64, "value": 0}, "group": "control_change"}, {"time": 3637, "annotation": {"number": 64, "value": 127}, "group": "control_change"}, {"time": 3641, "annotation": {"number": 64, "value": 0}, "group": "control_change"}, {"time": 3644, "annotation": {"number": 64, "value": 127}, "group": "control_change"}, {"time": 3667, "annotation": {"number": 64, "value": 0}, "group": "control_change"}, {"time": 3675, "annotation": {"number": 64, "value": 127}, "group": "control_change"}, {"time": 3701, "annotation": {"number": 64, "value": 0}, "group": "control_change"}, {"time": 3704, "annotation": {"number": 64, "value": 127}, "group": "control_change"}, {"time": 3721, "annotation": {"number": 64, "value": 0}, "group": "control_change"}, {"time": 3733, "annotation": {"number": 64, "value": 127}, "group": "control_change"}, {"time": 3748, "annotation": {"number": 64, "value": 0}, "group": "control_change"}, {"time": 3751, "annotation": {"number": 64, "value": 127}, "group": "control_change"}, {"time": 3788, "annotation": {"number": 64, "value": 0}, "group": "control_change"}, {"time": 3790, "annotation": {"number": 64, "value": 127}, "group": "control_change"}, {"time": 3799, "annotation": {"number": 64, "value": 0}, "group": "control_change"}, {"time": 3800, "annotation": {"number": 64, "value": 127}, "group": "control_change"}, {"time": 3807, "annotation": {"number": 64, "value": 0}, "group": "control_change"}, {"time": 3813, "annotation": {"number": 64, "value": 127}, "group": "control_change"}, {"time": 3825, "annotation": {"number": 64, "value": 0}, "group": "control_change"}, {"time": 3829, "annotation": {"number": 64, "value": 127}, "group": "control_change"}, {"time": 3953, "annotation": {"number": 64, "value": 0}, "group": "control_change"}, {"time": 3957, "annotation": {"number": 64, "value": 127}, "group": "control_change"}, {"time": 3966, "annotation": {"number": 64, "value": 0}, "group": "control_change"}, {"time": 3970, "annotation": {"number": 64, "value": 127}, "group": "control_change"}, {"time": 3970, "annotation": {"number": 64, "value": 0}, "group": "control_change"}, {"time": 3974, "annotation": {"number": 64, "value": 127}, "group": "control_change"}, {"time": 3980, "annotation": {"number": 64, "value": 0}, "group": "control_change"}, {"time": 3985, "annotation": {"number": 64, "value": 127}, "group": "control_change"}, {"time": 4001, "annotation": {"number": 64, "value": 0}, "group": "control_change"}, {"time": 4003, "annotation": {"number": 64, "value": 127}, "group": "control_change"}, {"time": 4004, "annotation": {"number": 64, "value": 127}, "group": "control_change"}, {"time": 4028, "annotation": {"number": 64, "value": 0}, "group": "control_change"}, {"time": 4035, "annotation": {"number": 64, "value": 127}, "group": "control_change"}, {"time": 4050, "annotation": {"number": 64, "value": 0}, "group": "control_change"}, {"time": 4052, "annotation": {"number": 64, "value": 127}, "group": "control_change"}, {"time": 4053, "annotation": {"number": 64, "value": 127}, "group": "control_change"}, {"time": 4097, "annotation": {"number": 64, "value": 0}, "group": "control_change"}, {"time": 4101, "annotation": {"number": 64, "value": 127}, "group": "control_change"}, {"time": 4145, "annotation": {"number": 64, "value": 0}, "group": "control_change"}, {"time": 4148, "annotation": {"number": 64, "value": 127}, "group": "control_change"}, {"time": 4193, "annotation": {"number": 64, "value": 0}, "group": "control_change"}, {"time": 4197, "annotation": {"number": 64, "value": 127}, "group": "control_change"}, {"time": 4241, "annotation": {"number": 64, "value": 0}, "group": "control_change"}, {"time": 4245, "annotation": {"number": 64, "value": 127}, "group": "control_change"}, {"time": 4290, "annotation": {"number": 64, "value": 0}, "group": "control_change"}, {"time": 4293, "annotation": {"number": 64, "value": 127}, "group": "control_change"}, {"time": 4340, "annotation": {"number": 64, "value": 0}, "group": "control_change"}, {"time": 4341, "annotation": {"number": 64, "value": 127}, "group": "control_change"}, {"time": 4386, "annotation": {"number": 64, "value": 0}, "group": "control_change"}, {"time": 4390, "annotation": {"number": 64, "value": 127}, "group": "control_change"}, {"time": 4433, "annotation": {"number": 64, "value": 0}, "group": "control_change"}, {"time": 4436, "annotation": {"number": 64, "value": 127}, "group": "control_change"}, {"time": 4481, "annotation": {"number": 64, "value": 0}, "group": "control_change"}, {"time": 4494, "annotation": {"number": 64, "value": 0}, "group": "control_change"}, {"time": 4497, "annotation": {"number": 64, "value": 127}, "group": "control_change"}, {"time": 4506, "annotation": {"number": 64, "value": 0}, "group": "control_change"}, {"time": 4508, "annotation": {"number": 64, "value": 127}, "group": "control_change"}, {"time": 4518, "annotation": {"number": 64, "value": 0}, "group": "control_change"}, {"time": 4520, "annotation": {"number": 64, "value": 127}, "group": "control_change"}, {"time": 4523, "annotation": {"number": 64, "value": 0}, "group": "control_change"}, {"time": 4524, "annotation": {"number": 64, "value": 127}, "group": "control_change"}, {"time": 4531, "annotation": {"number": 64, "value": 0}, "group": "control_change"}, {"time": 4533, "annotation": {"number": 64, "value": 127}, "group": "control_change"}, {"time": 4540, "annotation": {"number": 64, "value": 0}, "group": "control_change"}, {"time": 4543, "annotation": {"number": 64, "value": 127}, "group": "control_change"}, {"time": 4554, "annotation": {"number": 64, "value": 0}, "group": "control_change"}, {"time": 4557, "annotation": {"number": 64, "value": 127}, "group": "control_change"}, {"time": 4565, "annotation": {"number": 64, "value": 0}, "group": "control_change"}, {"time": 4568, "annotation": {"number": 64, "value": 127}, "group": "control_change"}, {"time": 4578, "annotation": {"number": 64, "value": 0}, "group": "control_change"}, {"time": 4580, "annotation": {"number": 64, "value": 127}, "group": "control_change"}, {"time": 4590, "annotation": {"number": 64, "value": 0}, "group": "control_change"}, {"time": 4594, "annotation": {"number": 64, "value": 127}, "group": "control_change"}, {"time": 4600, "annotation": {"number": 64, "value": 0}, "group": "control_change"}, {"time": 4604, "annotation": {"number": 64, "value": 127}, "group": "control_change"}, {"time": 4626, "annotation": {"number": 64, "value": 0}, "group": "control_change"}, {"time": 4628, "annotation": {"number": 64, "value": 127}, "group": "control_change"}, {"time": 4643, "annotation": {"number": 64, "value": 0}, "group": "control_change"}, {"time": 4645, "annotation": {"number": 64, "value": 127}, "group": "control_change"}, {"time": 4649, "annotation": {"number": 64, "value": 0}, "group": "control_change"}, {"time": 4652, "annotation": {"number": 64, "value": 127}, "group": "control_change"}, {"time": 4674, "annotation": {"number": 64, "value": 0}, "group": "control_change"}, {"time": 4676, "annotation": {"number": 64, "value": 127}, "group": "control_change"}, {"time": 4690, "annotation": {"number": 64, "value": 0}, "group": "control_change"}, {"time": 4692, "annotation": {"number": 64, "value": 127}, "group": "control_change"}, {"time": 4693, "annotation": {"number": 64, "value": 0}, "group": "control_change"}, {"time": 4693, "annotation": {"number": 64, "value": 127}, "group": "control_change"}, {"time": 4697, "annotation": {"number": 64, "value": 0}, "group": "control_change"}, {"time": 4700, "annotation": {"number": 64, "value": 127}, "group": "control_change"}, {"time": 4723, "annotation": {"number": 64, "value": 0}, "group": "control_change"}, {"time": 4731, "annotation": {"number": 64, "value": 127}, "group": "control_change"}, {"time": 4757, "annotation": {"number": 64, "value": 0}, "group": "control_change"}, {"time": 4760, "annotation": {"number": 64, "value": 127}, "group": "control_change"}, {"time": 4777, "annotation": {"number": 64, "value": 0}, "group": "control_change"}, {"time": 4789, "annotation": {"number": 64, "value": 127}, "group": "control_change"}, {"time": 4804, "annotation": {"number": 64, "value": 0}, "group": "control_change"}, {"time": 4807, "annotation": {"number": 64, "value": 127}, "group": "control_change"}, {"time": 4844, "annotation": {"number": 64, "value": 0}, "group": "control_change"}, {"time": 4846, "annotation": {"number": 64, "value": 127}, "group": "control_change"}, {"time": 4855, "annotation": {"number": 64, "value": 0}, "group": "control_change"}, {"time": 4856, "annotation": {"number": 64, "value": 127}, "group": "control_change"}, {"time": 4863, "annotation": {"number": 64, "value": 0}, "group": "control_change"}, {"time": 4869, "annotation": {"number": 64, "value": 127}, "group": "control_change"}, {"time": 4881, "annotation": {"number": 64, "value": 0}, "group": "control_change"}, {"time": 4885, "annotation": {"number": 64, "value": 127}, "group": "control_change"}, {"time": 5009, "annotation": {"number": 64, "value": 0}, "group": "control_change"}, {"time": 5013, "annotation": {"number": 64, "value": 127}, "group": "control_change"}, {"time": 5022, "annotation": {"number": 64, "value": 0}, "group": "control_change"}, {"time": 5026, "annotation": {"number": 64, "value": 127}, "group": "control_change"}, {"time": 5026, "annotation": {"number": 64, "value": 0}, "group": "control_change"}, {"time": 5030, "annotation": {"number": 64, "value": 127}, "group": "control_change"}, {"time": 5036, "annotation": {"number": 64, "value": 0}, "group": "control_change"}, {"time": 5041, "annotation": {"number": 64, "value": 127}, "group": "control_change"}, {"time": 5057, "annotation": {"number": 64, "value": 0}, "group": "control_change"}, {"time": 5059, "annotation": {"number": 64, "value": 127}, "group": "control_change"}, {"time": 5060, "annotation": {"number": 64, "value": 127}, "group": "control_change"}, {"time": 5084, "annotation": {"number": 64, "value": 0}, "group": "control_change"}, {"time": 5091, "annotation": {"number": 64, "value": 127}, "group": "control_change"}, {"time": 5106, "annotation": {"number": 64, "value": 0}, "group": "control_change"}, {"time": 5108, "annotation": {"number": 64, "value": 127}, "group": "control_change"}, {"time": 5109, "annotation": {"number": 64, "value": 127}, "group": "control_change"}, {"time": 5152, "annotation": {"number": 64, "value": 127}, "group": "control_change"}, {"time": 5153, "annotation": {"number": 64, "value": 0}, "group": "control_change"}, {"time": 5181, "annotation": {"number": 64, "value": 0}, "group": "control_change"}, {"time": 5186, "annotation": {"number": 64, "value": 127}, "group": "control_change"}, {"time": 5202, "annotation": {"number": 64, "value": 0}, "group": "control_change"}, {"time": 5205, "annotation": {"number": 64, "value": 127}, "group": "control_change"}, {"time": 5249, "annotation": {"number": 64, "value": 0}, "group": "control_change"}, {"time": 5252, "annotation": {"number": 64, "value": 127}, "group": "control_change"}, {"time": 5298, "annotation": {"number": 64, "value": 0}, "group": "control_change"}, {"time": 5300, "annotation": {"number": 64, "value": 127}, "group": "control_change"}, {"time": 5300, "annotation": {"number": 64, "value": 0}, "group": "control_change"}, {"time": 5307, "annotation": {"number": 64, "value": 127}, "group": "control_change"}, {"time": 5353, "annotation": {"number": 64, "value": 0}, "group": "control_change"}, {"time": 5358, "annotation": {"number": 64, "value": 127}, "group": "control_change"}, {"time": 5381, "annotation": {"number": 64, "value": 0}, "group": "control_change"}, {"time": 5383, "annotation": {"number": 64, "value": 127}, "group": "control_change"}, {"time": 5442, "annotation": {"number": 64, "value": 0}, "group": "control_change"}, {"time": 5445, "annotation": {"number": 64, "value": 127}, "group": "control_change"}, {"time": 5478, "annotation": {"number": 64, "value": 0}, "group": "control_change"}, {"time": 5481, "annotation": {"number": 64, "value": 127}, "group": "control_change"}, {"time": 5562, "annotation": {"number": 64, "value": 0}, "group": "control_change"}, {"time": 5566, "annotation": {"number": 64, "value": 127}, "group": "control_change"}, {"time": 5586, "annotation": {"number": 64, "value": 0}, "group": "control_change"}, {"time": 5590, "annotation": {"number": 64, "value": 127}, "group": "control_change"}, {"time": 5635, "annotation": {"number": 64, "value": 0}, "group": "control_change"}, {"time": 5646, "annotation": {"number": 64, "value": 127}, "group": "control_change"}]}]}