{"metadata": {"schema_version": "0.2", "title": "None", "source_filename": "106.mid", "source_format": "midi"}, "resolution": 12, "tempos": [{"time": 0, "qpm": 67.00002903334591}], "key_signatures": [{"time": 0, "root": 0, "mode": "major"}], "time_signatures": [{"time": 0, "numerator": 4, "denominator": 4}, {"time": 0, "numerator": 1, "denominator": 4}], "tracks": [{"program": 0, "is_drum": false, "name": "MELODY", "notes": [{"time": 304, "pitch": 74, "duration": 7, "velocity": 97}, {"time": 310, "pitch": 79, "duration": 5, "velocity": 102}, {"time": 316, "pitch": 79, "duration": 13, "velocity": 100}, {"time": 334, "pitch": 83, "duration": 4, "velocity": 102}, {"time": 340, "pitch": 86, "duration": 8, "velocity": 99}, {"time": 346, "pitch": 83, "duration": 6, "velocity": 99}, {"time": 352, "pitch": 81, "duration": 6, "velocity": 97}, {"time": 358, "pitch": 83, "duration": 6, "velocity": 90}, {"time": 364, "pitch": 76, "duration": 30, "velocity": 82}, {"time": 400, "pitch": 83, "duration": 6, "velocity": 112}, {"time": 406, "pitch": 86, "duration": 3, "velocity": 117}, {"time": 409, "pitch": 88, "duration": 15, "velocity": 97}, {"time": 430, "pitch": 88, "duration": 3, "velocity": 122}, {"time": 436, "pitch": 88, "duration": 6, "velocity": 122}, {"time": 442, "pitch": 86, "duration": 5, "velocity": 107}, {"time": 448, "pitch": 86, "duration": 6, "velocity": 100}, {"time": 454, "pitch": 88, "duration": 9, "velocity": 99}, {"time": 466, "pitch": 83, "duration": 16, "velocity": 102}, {"time": 496, "pitch": 83, "duration": 5, "velocity": 107}, {"time": 502, "pitch": 86, "duration": 3, "velocity": 112}, {"time": 505, "pitch": 88, "duration": 14, "velocity": 99}, {"time": 529, "pitch": 88, "duration": 4, "velocity": 96}, {"time": 532, "pitch": 90, "duration": 6, "velocity": 127}, {"time": 538, "pitch": 88, "duration": 6, "velocity": 96}, {"time": 544, "pitch": 86, "duration": 6, "velocity": 107}, {"time": 550, "pitch": 84, "duration": 6, "velocity": 96}, {"time": 556, "pitch": 83, "duration": 8, "velocity": 95}, {"time": 562, "pitch": 86, "duration": 5, "velocity": 112}, {"time": 568, "pitch": 81, "duration": 6, "velocity": 85}, {"time": 574, "pitch": 83, "duration": 7, "velocity": 82}, {"time": 580, "pitch": 76, "duration": 14, "velocity": 100}, {"time": 592, "pitch": 74, "duration": 7, "velocity": 88}, {"time": 598, "pitch": 76, "duration": 6, "velocity": 90}, {"time": 604, "pitch": 79, "duration": 13, "velocity": 95}, {"time": 625, "pitch": 83, "duration": 2, "velocity": 100}, {"time": 628, "pitch": 86, "duration": 5, "velocity": 102}, {"time": 634, "pitch": 83, "duration": 7, "velocity": 97}, {"time": 640, "pitch": 81, "duration": 6, "velocity": 107}, {"time": 646, "pitch": 83, "duration": 12, "velocity": 107}, {"time": 658, "pitch": 76, "duration": 24, "velocity": 97}, {"time": 688, "pitch": 83, "duration": 7, "velocity": 107}, {"time": 694, "pitch": 88, "duration": 5, "velocity": 127}, {"time": 700, "pitch": 88, "duration": 12, "velocity": 117}, {"time": 721, "pitch": 88, "duration": 2, "velocity": 96}, {"time": 724, "pitch": 90, "duration": 6, "velocity": 122}, {"time": 730, "pitch": 88, "duration": 6, "velocity": 112}, {"time": 736, "pitch": 86, "duration": 6, "velocity": 100}, {"time": 742, "pitch": 84, "duration": 6, "velocity": 107}, {"time": 748, "pitch": 83, "duration": 7, "velocity": 100}, {"time": 754, "pitch": 86, "duration": 5, "velocity": 107}, {"time": 760, "pitch": 81, "duration": 6, "velocity": 99}, {"time": 766, "pitch": 83, "duration": 6, "velocity": 83}, {"time": 772, "pitch": 76, "duration": 10, "velocity": 107}, {"time": 784, "pitch": 74, "duration": 6, "velocity": 102}, {"time": 790, "pitch": 76, "duration": 7, "velocity": 107}, {"time": 796, "pitch": 79, "duration": 14, "velocity": 102}, {"time": 817, "pitch": 83, "duration": 3, "velocity": 99}, {"time": 820, "pitch": 86, "duration": 6, "velocity": 93}, {"time": 826, "pitch": 83, "duration": 6, "velocity": 96}, {"time": 832, "pitch": 81, "duration": 6, "velocity": 97}, {"time": 838, "pitch": 83, "duration": 12, "velocity": 112}, {"time": 850, "pitch": 76, "duration": 28, "velocity": 99}, {"time": 880, "pitch": 74, "duration": 7, "velocity": 100}, {"time": 886, "pitch": 79, "duration": 4, "velocity": 92}, {"time": 892, "pitch": 79, "duration": 13, "velocity": 112}, {"time": 910, "pitch": 83, "duration": 4, "velocity": 107}, {"time": 916, "pitch": 86, "duration": 7, "velocity": 102}, {"time": 922, "pitch": 83, "duration": 6, "velocity": 92}, {"time": 928, "pitch": 81, "duration": 6, "velocity": 93}, {"time": 934, "pitch": 83, "duration": 6, "velocity": 88}, {"time": 940, "pitch": 76, "duration": 22, "velocity": 96}, {"time": 976, "pitch": 83, "duration": 6, "velocity": 112}, {"time": 982, "pitch": 86, "duration": 3, "velocity": 117}, {"time": 985, "pitch": 88, "duration": 15, "velocity": 97}, {"time": 1006, "pitch": 88, "duration": 3, "velocity": 122}, {"time": 1012, "pitch": 88, "duration": 6, "velocity": 122}, {"time": 1018, "pitch": 86, "duration": 2, "velocity": 102}, {"time": 1021, "pitch": 86, "duration": 6, "velocity": 102}, {"time": 1030, "pitch": 81, "duration": 3, "velocity": 88}, {"time": 1033, "pitch": 83, "duration": 22, "velocity": 100}, {"time": 1072, "pitch": 83, "duration": 5, "velocity": 107}, {"time": 1078, "pitch": 86, "duration": 3, "velocity": 112}, {"time": 1081, "pitch": 88, "duration": 14, "velocity": 99}, {"time": 1105, "pitch": 88, "duration": 4, "velocity": 96}, {"time": 1108, "pitch": 90, "duration": 6, "velocity": 127}, {"time": 1114, "pitch": 88, "duration": 6, "velocity": 96}, {"time": 1120, "pitch": 86, "duration": 6, "velocity": 107}, {"time": 1126, "pitch": 84, "duration": 6, "velocity": 96}, {"time": 1132, "pitch": 83, "duration": 8, "velocity": 95}, {"time": 1138, "pitch": 86, "duration": 5, "velocity": 112}, {"time": 1144, "pitch": 81, "duration": 6, "velocity": 85}, {"time": 1150, "pitch": 83, "duration": 7, "velocity": 82}, {"time": 1156, "pitch": 76, "duration": 14, "velocity": 100}, {"time": 1168, "pitch": 74, "duration": 7, "velocity": 88}, {"time": 1174, "pitch": 76, "duration": 6, "velocity": 90}, {"time": 1180, "pitch": 79, "duration": 13, "velocity": 95}, {"time": 1201, "pitch": 83, "duration": 2, "velocity": 100}, {"time": 1204, "pitch": 86, "duration": 5, "velocity": 102}, {"time": 1210, "pitch": 83, "duration": 7, "velocity": 97}, {"time": 1216, "pitch": 81, "duration": 6, "velocity": 107}, {"time": 1222, "pitch": 83, "duration": 12, "velocity": 107}, {"time": 1234, "pitch": 76, "duration": 24, "velocity": 97}, {"time": 1264, "pitch": 83, "duration": 7, "velocity": 107}, {"time": 1270, "pitch": 88, "duration": 5, "velocity": 127}, {"time": 1276, "pitch": 88, "duration": 12, "velocity": 117}, {"time": 1297, "pitch": 88, "duration": 2, "velocity": 96}, {"time": 1300, "pitch": 90, "duration": 6, "velocity": 122}, {"time": 1306, "pitch": 88, "duration": 6, "velocity": 112}, {"time": 1312, "pitch": 86, "duration": 6, "velocity": 100}, {"time": 1318, "pitch": 84, "duration": 6, "velocity": 107}, {"time": 1324, "pitch": 83, "duration": 7, "velocity": 100}, {"time": 1330, "pitch": 86, "duration": 5, "velocity": 107}, {"time": 1336, "pitch": 81, "duration": 6, "velocity": 99}, {"time": 1342, "pitch": 83, "duration": 6, "velocity": 83}, {"time": 1348, "pitch": 76, "duration": 10, "velocity": 107}, {"time": 1360, "pitch": 74, "duration": 6, "velocity": 102}, {"time": 1366, "pitch": 76, "duration": 7, "velocity": 107}, {"time": 1372, "pitch": 79, "duration": 14, "velocity": 102}, {"time": 1393, "pitch": 83, "duration": 3, "velocity": 99}, {"time": 1396, "pitch": 86, "duration": 6, "velocity": 93}, {"time": 1402, "pitch": 83, "duration": 6, "velocity": 96}, {"time": 1408, "pitch": 86, "duration": 8, "velocity": 117}, {"time": 1420, "pitch": 83, "duration": 6, "velocity": 117}, {"time": 1426, "pitch": 76, "duration": 28, "velocity": 99}, {"time": 1840, "pitch": 74, "duration": 7, "velocity": 97}, {"time": 1846, "pitch": 79, "duration": 5, "velocity": 102}, {"time": 1852, "pitch": 79, "duration": 13, "velocity": 100}, {"time": 1870, "pitch": 83, "duration": 4, "velocity": 102}, {"time": 1876, "pitch": 86, "duration": 8, "velocity": 99}, {"time": 1882, "pitch": 83, "duration": 6, "velocity": 99}, {"time": 1888, "pitch": 81, "duration": 6, "velocity": 97}, {"time": 1894, "pitch": 83, "duration": 6, "velocity": 90}, {"time": 1900, "pitch": 76, "duration": 30, "velocity": 82}, {"time": 1936, "pitch": 83, "duration": 6, "velocity": 112}, {"time": 1942, "pitch": 86, "duration": 3, "velocity": 117}, {"time": 1948, "pitch": 88, "duration": 15, "velocity": 97}, {"time": 1966, "pitch": 88, "duration": 3, "velocity": 122}, {"time": 1972, "pitch": 88, "duration": 6, "velocity": 122}, {"time": 1978, "pitch": 86, "duration": 5, "velocity": 107}, {"time": 1984, "pitch": 86, "duration": 6, "velocity": 100}, {"time": 1990, "pitch": 88, "duration": 6, "velocity": 99}, {"time": 1996, "pitch": 83, "duration": 16, "velocity": 102}, {"time": 2032, "pitch": 83, "duration": 5, "velocity": 107}, {"time": 2038, "pitch": 86, "duration": 3, "velocity": 112}, {"time": 2041, "pitch": 88, "duration": 14, "velocity": 99}, {"time": 2065, "pitch": 88, "duration": 4, "velocity": 96}, {"time": 2068, "pitch": 90, "duration": 6, "velocity": 127}, {"time": 2074, "pitch": 88, "duration": 6, "velocity": 96}, {"time": 2080, "pitch": 86, "duration": 6, "velocity": 107}, {"time": 2086, "pitch": 84, "duration": 6, "velocity": 96}, {"time": 2092, "pitch": 83, "duration": 8, "velocity": 95}, {"time": 2098, "pitch": 86, "duration": 5, "velocity": 112}, {"time": 2104, "pitch": 81, "duration": 6, "velocity": 85}, {"time": 2110, "pitch": 83, "duration": 7, "velocity": 82}, {"time": 2116, "pitch": 76, "duration": 14, "velocity": 100}, {"time": 2128, "pitch": 74, "duration": 7, "velocity": 88}, {"time": 2134, "pitch": 76, "duration": 6, "velocity": 90}, {"time": 2140, "pitch": 79, "duration": 13, "velocity": 95}, {"time": 2161, "pitch": 83, "duration": 2, "velocity": 100}, {"time": 2164, "pitch": 86, "duration": 5, "velocity": 102}, {"time": 2170, "pitch": 83, "duration": 7, "velocity": 97}, {"time": 2176, "pitch": 81, "duration": 6, "velocity": 107}, {"time": 2182, "pitch": 83, "duration": 12, "velocity": 107}, {"time": 2194, "pitch": 76, "duration": 24, "velocity": 97}, {"time": 2224, "pitch": 83, "duration": 7, "velocity": 107}, {"time": 2230, "pitch": 88, "duration": 5, "velocity": 127}, {"time": 2236, "pitch": 88, "duration": 12, "velocity": 117}, {"time": 2257, "pitch": 88, "duration": 2, "velocity": 96}, {"time": 2260, "pitch": 90, "duration": 6, "velocity": 122}, {"time": 2266, "pitch": 88, "duration": 6, "velocity": 112}, {"time": 2272, "pitch": 86, "duration": 6, "velocity": 100}, {"time": 2278, "pitch": 84, "duration": 6, "velocity": 107}, {"time": 2284, "pitch": 83, "duration": 7, "velocity": 100}, {"time": 2290, "pitch": 86, "duration": 5, "velocity": 107}, {"time": 2296, "pitch": 81, "duration": 6, "velocity": 99}, {"time": 2302, "pitch": 83, "duration": 6, "velocity": 83}, {"time": 2308, "pitch": 76, "duration": 10, "velocity": 107}, {"time": 2320, "pitch": 74, "duration": 6, "velocity": 102}, {"time": 2326, "pitch": 76, "duration": 7, "velocity": 107}, {"time": 2332, "pitch": 79, "duration": 14, "velocity": 102}, {"time": 2353, "pitch": 83, "duration": 3, "velocity": 99}, {"time": 2356, "pitch": 86, "duration": 6, "velocity": 93}, {"time": 2362, "pitch": 83, "duration": 6, "velocity": 96}, {"time": 2368, "pitch": 81, "duration": 6, "velocity": 97}, {"time": 2374, "pitch": 83, "duration": 12, "velocity": 112}, {"time": 2386, "pitch": 76, "duration": 28, "velocity": 99}, {"time": 2416, "pitch": 76, "duration": 6, "velocity": 122}, {"time": 2422, "pitch": 78, "duration": 5, "velocity": 127}, {"time": 2428, "pitch": 81, "duration": 13, "velocity": 112}, {"time": 2446, "pitch": 85, "duration": 4, "velocity": 107}, {"time": 2452, "pitch": 88, "duration": 7, "velocity": 102}, {"time": 2458, "pitch": 85, "duration": 6, "velocity": 92}, {"time": 2464, "pitch": 83, "duration": 6, "velocity": 93}, {"time": 2470, "pitch": 85, "duration": 6, "velocity": 88}, {"time": 2476, "pitch": 78, "duration": 22, "velocity": 96}, {"time": 2512, "pitch": 85, "duration": 6, "velocity": 112}, {"time": 2518, "pitch": 88, "duration": 3, "velocity": 117}, {"time": 2521, "pitch": 90, "duration": 15, "velocity": 97}, {"time": 2542, "pitch": 90, "duration": 3, "velocity": 122}, {"time": 2548, "pitch": 90, "duration": 6, "velocity": 122}, {"time": 2554, "pitch": 88, "duration": 2, "velocity": 102}, {"time": 2557, "pitch": 88, "duration": 6, "velocity": 102}, {"time": 2566, "pitch": 83, "duration": 3, "velocity": 88}, {"time": 2569, "pitch": 85, "duration": 22, "velocity": 100}, {"time": 2608, "pitch": 85, "duration": 5, "velocity": 107}, {"time": 2614, "pitch": 88, "duration": 3, "velocity": 112}, {"time": 2617, "pitch": 90, "duration": 14, "velocity": 99}, {"time": 2641, "pitch": 90, "duration": 4, "velocity": 96}, {"time": 2644, "pitch": 92, "duration": 6, "velocity": 127}, {"time": 2650, "pitch": 90, "duration": 6, "velocity": 96}, {"time": 2656, "pitch": 88, "duration": 6, "velocity": 107}, {"time": 2662, "pitch": 86, "duration": 6, "velocity": 96}, {"time": 2668, "pitch": 85, "duration": 8, "velocity": 95}, {"time": 2674, "pitch": 88, "duration": 5, "velocity": 112}, {"time": 2680, "pitch": 83, "duration": 6, "velocity": 85}, {"time": 2686, "pitch": 85, "duration": 7, "velocity": 82}, {"time": 2692, "pitch": 78, "duration": 14, "velocity": 100}, {"time": 2704, "pitch": 76, "duration": 7, "velocity": 88}, {"time": 2710, "pitch": 78, "duration": 6, "velocity": 90}, {"time": 2716, "pitch": 81, "duration": 13, "velocity": 95}, {"time": 2737, "pitch": 85, "duration": 2, "velocity": 100}, {"time": 2740, "pitch": 88, "duration": 5, "velocity": 102}, {"time": 2746, "pitch": 85, "duration": 7, "velocity": 97}, {"time": 2752, "pitch": 83, "duration": 6, "velocity": 107}, {"time": 2758, "pitch": 85, "duration": 12, "velocity": 107}, {"time": 2770, "pitch": 78, "duration": 24, "velocity": 97}, {"time": 2800, "pitch": 85, "duration": 7, "velocity": 107}, {"time": 2806, "pitch": 90, "duration": 5, "velocity": 127}, {"time": 2812, "pitch": 90, "duration": 12, "velocity": 117}, {"time": 2833, "pitch": 90, "duration": 2, "velocity": 96}, {"time": 2836, "pitch": 92, "duration": 6, "velocity": 122}, {"time": 2842, "pitch": 90, "duration": 6, "velocity": 112}, {"time": 2848, "pitch": 88, "duration": 6, "velocity": 100}, {"time": 2854, "pitch": 86, "duration": 6, "velocity": 107}, {"time": 2860, "pitch": 85, "duration": 7, "velocity": 100}, {"time": 2866, "pitch": 88, "duration": 5, "velocity": 107}, {"time": 2872, "pitch": 83, "duration": 6, "velocity": 99}, {"time": 2878, "pitch": 85, "duration": 6, "velocity": 83}, {"time": 2884, "pitch": 78, "duration": 10, "velocity": 107}, {"time": 2896, "pitch": 76, "duration": 6, "velocity": 102}, {"time": 2902, "pitch": 78, "duration": 7, "velocity": 107}, {"time": 2908, "pitch": 81, "duration": 14, "velocity": 102}, {"time": 2929, "pitch": 85, "duration": 3, "velocity": 99}, {"time": 2932, "pitch": 88, "duration": 6, "velocity": 93}, {"time": 2938, "pitch": 85, "duration": 4, "velocity": 127}, {"time": 2944, "pitch": 83, "duration": 5, "velocity": 127}, {"time": 2950, "pitch": 88, "duration": 11, "velocity": 117}, {"time": 2962, "pitch": 78, "duration": 26, "velocity": 122}, {"time": 2992, "pitch": 85, "duration": 5, "velocity": 107}, {"time": 2998, "pitch": 88, "duration": 3, "velocity": 112}, {"time": 3001, "pitch": 90, "duration": 14, "velocity": 99}, {"time": 3025, "pitch": 90, "duration": 4, "velocity": 96}, {"time": 3028, "pitch": 92, "duration": 6, "velocity": 127}, {"time": 3034, "pitch": 90, "duration": 6, "velocity": 96}, {"time": 3040, "pitch": 88, "duration": 6, "velocity": 107}, {"time": 3046, "pitch": 86, "duration": 6, "velocity": 96}, {"time": 3052, "pitch": 85, "duration": 8, "velocity": 95}, {"time": 3058, "pitch": 88, "duration": 5, "velocity": 112}, {"time": 3064, "pitch": 83, "duration": 6, "velocity": 85}, {"time": 3070, "pitch": 85, "duration": 7, "velocity": 82}, {"time": 3076, "pitch": 78, "duration": 14, "velocity": 100}, {"time": 3088, "pitch": 76, "duration": 7, "velocity": 88}, {"time": 3094, "pitch": 78, "duration": 6, "velocity": 90}, {"time": 3100, "pitch": 81, "duration": 13, "velocity": 95}, {"time": 3121, "pitch": 85, "duration": 2, "velocity": 100}, {"time": 3124, "pitch": 88, "duration": 5, "velocity": 102}, {"time": 3130, "pitch": 85, "duration": 7, "velocity": 97}, {"time": 3136, "pitch": 85, "duration": 1, "velocity": 127}, {"time": 3142, "pitch": 92, "duration": 50, "velocity": 127}, {"time": 3196, "pitch": 90, "duration": 38, "velocity": 127}, {"time": 3280, "pitch": 85, "duration": 6, "velocity": 112}, {"time": 3286, "pitch": 88, "duration": 3, "velocity": 117}, {"time": 3289, "pitch": 90, "duration": 15, "velocity": 97}, {"time": 3310, "pitch": 90, "duration": 3, "velocity": 122}, {"time": 3316, "pitch": 90, "duration": 6, "velocity": 122}, {"time": 3322, "pitch": 88, "duration": 2, "velocity": 102}, {"time": 3325, "pitch": 88, "duration": 6, "velocity": 102}, {"time": 3334, "pitch": 83, "duration": 3, "velocity": 88}, {"time": 3337, "pitch": 85, "duration": 22, "velocity": 100}, {"time": 3376, "pitch": 85, "duration": 5, "velocity": 107}, {"time": 3382, "pitch": 88, "duration": 3, "velocity": 112}, {"time": 3385, "pitch": 90, "duration": 14, "velocity": 99}, {"time": 3409, "pitch": 90, "duration": 4, "velocity": 96}, {"time": 3412, "pitch": 92, "duration": 6, "velocity": 127}, {"time": 3418, "pitch": 90, "duration": 6, "velocity": 96}, {"time": 3424, "pitch": 88, "duration": 6, "velocity": 107}, {"time": 3430, "pitch": 86, "duration": 6, "velocity": 96}, {"time": 3436, "pitch": 85, "duration": 8, "velocity": 95}, {"time": 3442, "pitch": 88, "duration": 5, "velocity": 112}, {"time": 3448, "pitch": 83, "duration": 6, "velocity": 85}, {"time": 3454, "pitch": 85, "duration": 7, "velocity": 82}, {"time": 3460, "pitch": 78, "duration": 14, "velocity": 100}, {"time": 3472, "pitch": 76, "duration": 7, "velocity": 88}, {"time": 3478, "pitch": 78, "duration": 6, "velocity": 90}, {"time": 3484, "pitch": 81, "duration": 13, "velocity": 95}, {"time": 3505, "pitch": 85, "duration": 2, "velocity": 100}, {"time": 3508, "pitch": 88, "duration": 5, "velocity": 102}, {"time": 3514, "pitch": 85, "duration": 7, "velocity": 97}, {"time": 3520, "pitch": 83, "duration": 6, "velocity": 107}, {"time": 3526, "pitch": 85, "duration": 12, "velocity": 107}, {"time": 3538, "pitch": 78, "duration": 24, "velocity": 97}, {"time": 3568, "pitch": 76, "duration": 7, "velocity": 88}, {"time": 3574, "pitch": 78, "duration": 6, "velocity": 90}, {"time": 3580, "pitch": 81, "duration": 13, "velocity": 95}, {"time": 3601, "pitch": 85, "duration": 2, "velocity": 100}, {"time": 3604, "pitch": 88, "duration": 5, "velocity": 102}, {"time": 3610, "pitch": 85, "duration": 7, "velocity": 97}, {"time": 3616, "pitch": 83, "duration": 6, "velocity": 107}, {"time": 3622, "pitch": 85, "duration": 12, "velocity": 107}, {"time": 3634, "pitch": 78, "duration": 24, "velocity": 97}, {"time": 3664, "pitch": 85, "duration": 6, "velocity": 112}, {"time": 3670, "pitch": 88, "duration": 3, "velocity": 117}, {"time": 3673, "pitch": 90, "duration": 15, "velocity": 97}, {"time": 3694, "pitch": 90, "duration": 3, "velocity": 122}, {"time": 3700, "pitch": 90, "duration": 6, "velocity": 122}, {"time": 3706, "pitch": 88, "duration": 2, "velocity": 102}, {"time": 3709, "pitch": 88, "duration": 6, "velocity": 102}, {"time": 3718, "pitch": 83, "duration": 3, "velocity": 88}, {"time": 3721, "pitch": 85, "duration": 22, "velocity": 100}, {"time": 3760, "pitch": 85, "duration": 5, "velocity": 107}, {"time": 3766, "pitch": 88, "duration": 3, "velocity": 112}, {"time": 3769, "pitch": 90, "duration": 14, "velocity": 99}, {"time": 3793, "pitch": 90, "duration": 4, "velocity": 96}, {"time": 3796, "pitch": 92, "duration": 6, "velocity": 127}, {"time": 3802, "pitch": 90, "duration": 6, "velocity": 96}, {"time": 3808, "pitch": 88, "duration": 6, "velocity": 107}, {"time": 3814, "pitch": 86, "duration": 6, "velocity": 96}, {"time": 3820, "pitch": 85, "duration": 8, "velocity": 95}, {"time": 3826, "pitch": 88, "duration": 5, "velocity": 112}, {"time": 3832, "pitch": 83, "duration": 6, "velocity": 85}, {"time": 3838, "pitch": 85, "duration": 7, "velocity": 82}, {"time": 3844, "pitch": 78, "duration": 14, "velocity": 100}, {"time": 3856, "pitch": 76, "duration": 7, "velocity": 88}, {"time": 3862, "pitch": 78, "duration": 6, "velocity": 90}, {"time": 3868, "pitch": 81, "duration": 13, "velocity": 95}, {"time": 3889, "pitch": 85, "duration": 2, "velocity": 100}, {"time": 3892, "pitch": 88, "duration": 5, "velocity": 102}, {"time": 3898, "pitch": 85, "duration": 7, "velocity": 97}, {"time": 3904, "pitch": 83, "duration": 6, "velocity": 107}, {"time": 3910, "pitch": 85, "duration": 12, "velocity": 107}, {"time": 3922, "pitch": 78, "duration": 24, "velocity": 97}], "annotations": [{"time": 88, "annotation": {"number": 64, "value": 71}, "group": "control_change"}, {"time": 160, "annotation": {"number": 64, "value": 72}, "group": "control_change"}, {"time": 220, "annotation": {"number": 64, "value": 73}, "group": "control_change"}, {"time": 460, "annotation": {"number": 64, "value": 74}, "group": "control_change"}, {"time": 604, "annotation": {"number": 64, "value": 75}, "group": "control_change"}, {"time": 748, "annotation": {"number": 64, "value": 76}, "group": "control_change"}, {"time": 928, "annotation": {"number": 64, "value": 77}, "group": "control_change"}, {"time": 1468, "annotation": {"number": 64, "value": 76}, "group": "control_change"}, {"time": 2032, "annotation": {"number": 64, "value": 77}, "group": "control_change"}, {"time": 2212, "annotation": {"number": 64, "value": 78}, "group": "control_change"}, {"time": 2380, "annotation": {"number": 64, "value": 79}, "group": "control_change"}, {"time": 2596, "annotation": {"number": 64, "value": 80}, "group": "control_change"}, {"time": 3388, "annotation": {"number": 64, "value": 79}, "group": "control_change"}, {"time": 3604, "annotation": {"number": 64, "value": 78}, "group": "control_change"}, {"time": 4072, "annotation": {"number": 64, "value": 77}, "group": "control_change"}]}, {"program": 0, "is_drum": false, "name": "PIANO", "notes": [{"time": 24, "pitch": 62, "duration": 99, "velocity": 40}, {"time": 24, "pitch": 66, "duration": 99, "velocity": 50}, {"time": 24, "pitch": 38, "duration": 99, "velocity": 47}, {"time": 24, "pitch": 59, "duration": 103, "velocity": 54}, {"time": 24, "pitch": 50, "duration": 99, "velocity": 38}, {"time": 24, "pitch": 71, "duration": 103, "velocity": 56}, {"time": 24, "pitch": 45, "duration": 99, "velocity": 38}, {"time": 24, "pitch": 69, "duration": 99, "velocity": 55}, {"time": 124, "pitch": 48, "duration": 22, "velocity": 86}, {"time": 124, "pitch": 60, "duration": 10, "velocity": 88}, {"time": 124, "pitch": 64, "duration": 11, "velocity": 88}, {"time": 124, "pitch": 67, "duration": 11, "velocity": 83}, {"time": 130, "pitch": 55, "duration": 7, "velocity": 38}, {"time": 136, "pitch": 60, "duration": 10, "velocity": 97}, {"time": 136, "pitch": 64, "duration": 11, "velocity": 89}, {"time": 136, "pitch": 67, "duration": 9, "velocity": 89}, {"time": 145, "pitch": 55, "duration": 3, "velocity": 95}, {"time": 148, "pitch": 50, "duration": 16, "velocity": 78}, {"time": 148, "pitch": 62, "duration": 11, "velocity": 96}, {"time": 148, "pitch": 66, "duration": 11, "velocity": 102}, {"time": 148, "pitch": 69, "duration": 11, "velocity": 88}, {"time": 160, "pitch": 62, "duration": 7, "velocity": 83}, {"time": 160, "pitch": 66, "duration": 9, "velocity": 117}, {"time": 160, "pitch": 69, "duration": 9, "velocity": 96}, {"time": 169, "pitch": 50, "duration": 3, "velocity": 86}, {"time": 172, "pitch": 47, "duration": 13, "velocity": 86}, {"time": 172, "pitch": 59, "duration": 10, "velocity": 100}, {"time": 172, "pitch": 62, "duration": 11, "velocity": 83}, {"time": 172, "pitch": 66, "duration": 11, "velocity": 96}, {"time": 178, "pitch": 54, "duration": 7, "velocity": 43}, {"time": 184, "pitch": 62, "duration": 5, "velocity": 93}, {"time": 184, "pitch": 66, "duration": 5, "velocity": 117}, {"time": 187, "pitch": 47, "duration": 8, "velocity": 59}, {"time": 187, "pitch": 54, "duration": 7, "velocity": 95}, {"time": 190, "pitch": 62, "duration": 5, "velocity": 93}, {"time": 190, "pitch": 66, "duration": 3, "velocity": 102}, {"time": 193, "pitch": 59, "duration": 15, "velocity": 68}, {"time": 196, "pitch": 52, "duration": 14, "velocity": 69}, {"time": 196, "pitch": 64, "duration": 11, "velocity": 79}, {"time": 196, "pitch": 67, "duration": 11, "velocity": 86}, {"time": 208, "pitch": 59, "duration": 3, "velocity": 38}, {"time": 208, "pitch": 64, "duration": 7, "velocity": 97}, {"time": 208, "pitch": 67, "duration": 7, "velocity": 96}, {"time": 211, "pitch": 52, "duration": 9, "velocity": 92}, {"time": 214, "pitch": 62, "duration": 4, "velocity": 97}, {"time": 217, "pitch": 64, "duration": 3, "velocity": 59}, {"time": 220, "pitch": 48, "duration": 44, "velocity": 71}, {"time": 220, "pitch": 60, "duration": 12, "velocity": 97}, {"time": 220, "pitch": 64, "duration": 9, "velocity": 74}, {"time": 220, "pitch": 67, "duration": 11, "velocity": 83}, {"time": 229, "pitch": 55, "duration": 20, "velocity": 34}, {"time": 232, "pitch": 60, "duration": 11, "velocity": 77}, {"time": 232, "pitch": 64, "duration": 11, "velocity": 89}, {"time": 232, "pitch": 67, "duration": 11, "velocity": 96}, {"time": 244, "pitch": 60, "duration": 10, "velocity": 78}, {"time": 244, "pitch": 64, "duration": 11, "velocity": 69}, {"time": 244, "pitch": 67, "duration": 10, "velocity": 74}, {"time": 250, "pitch": 55, "duration": 7, "velocity": 58}, {"time": 256, "pitch": 60, "duration": 4, "velocity": 107}, {"time": 256, "pitch": 64, "duration": 5, "velocity": 107}, {"time": 256, "pitch": 67, "duration": 4, "velocity": 107}, {"time": 259, "pitch": 55, "duration": 5, "velocity": 117}, {"time": 262, "pitch": 60, "duration": 5, "velocity": 97}, {"time": 262, "pitch": 64, "duration": 5, "velocity": 107}, {"time": 262, "pitch": 67, "duration": 3, "velocity": 88}, {"time": 265, "pitch": 66, "duration": 1, "velocity": 35}, {"time": 268, "pitch": 50, "duration": 48, "velocity": 92}, {"time": 268, "pitch": 57, "duration": 44, "velocity": 99}, {"time": 268, "pitch": 62, "duration": 48, "velocity": 107}, {"time": 268, "pitch": 66, "duration": 48, "velocity": 122}, {"time": 268, "pitch": 69, "duration": 48, "velocity": 97}, {"time": 316, "pitch": 43, "duration": 22, "velocity": 64}, {"time": 316, "pitch": 62, "duration": 9, "velocity": 71}, {"time": 316, "pitch": 67, "duration": 9, "velocity": 74}, {"time": 316, "pitch": 71, "duration": 9, "velocity": 75}, {"time": 328, "pitch": 62, "duration": 2, "velocity": 78}, {"time": 328, "pitch": 67, "duration": 1, "velocity": 76}, {"time": 328, "pitch": 71, "duration": 2, "velocity": 72}, {"time": 337, "pitch": 55, "duration": 2, "velocity": 60}, {"time": 340, "pitch": 50, "duration": 17, "velocity": 72}, {"time": 340, "pitch": 57, "duration": 13, "velocity": 89}, {"time": 340, "pitch": 62, "duration": 8, "velocity": 66}, {"time": 340, "pitch": 66, "duration": 7, "velocity": 85}, {"time": 340, "pitch": 69, "duration": 8, "velocity": 72}, {"time": 352, "pitch": 66, "duration": 5, "velocity": 95}, {"time": 352, "pitch": 69, "duration": 5, "velocity": 75}, {"time": 355, "pitch": 57, "duration": 3, "velocity": 63}, {"time": 358, "pitch": 62, "duration": 3, "velocity": 85}, {"time": 364, "pitch": 52, "duration": 14, "velocity": 65}, {"time": 364, "pitch": 59, "duration": 13, "velocity": 71}, {"time": 364, "pitch": 64, "duration": 9, "velocity": 69}, {"time": 364, "pitch": 67, "duration": 7, "velocity": 67}, {"time": 364, "pitch": 71, "duration": 7, "velocity": 63}, {"time": 376, "pitch": 64, "duration": 2, "velocity": 71}, {"time": 376, "pitch": 67, "duration": 1, "velocity": 76}, {"time": 376, "pitch": 71, "duration": 1, "velocity": 71}, {"time": 385, "pitch": 52, "duration": 4, "velocity": 39}, {"time": 385, "pitch": 55, "duration": 4, "velocity": 44}, {"time": 385, "pitch": 59, "duration": 4, "velocity": 41}, {"time": 388, "pitch": 64, "duration": 4, "velocity": 67}, {"time": 388, "pitch": 67, "duration": 4, "velocity": 73}, {"time": 388, "pitch": 71, "duration": 4, "velocity": 66}, {"time": 391, "pitch": 52, "duration": 14, "velocity": 37}, {"time": 391, "pitch": 55, "duration": 13, "velocity": 39}, {"time": 391, "pitch": 59, "duration": 10, "velocity": 52}, {"time": 394, "pitch": 64, "duration": 3, "velocity": 69}, {"time": 394, "pitch": 67, "duration": 3, "velocity": 75}, {"time": 394, "pitch": 71, "duration": 3, "velocity": 65}, {"time": 400, "pitch": 67, "duration": 6, "velocity": 86}, {"time": 400, "pitch": 71, "duration": 6, "velocity": 88}, {"time": 403, "pitch": 59, "duration": 2, "velocity": 64}, {"time": 406, "pitch": 64, "duration": 2, "velocity": 83}, {"time": 412, "pitch": 48, "duration": 22, "velocity": 67}, {"time": 412, "pitch": 60, "duration": 7, "velocity": 88}, {"time": 412, "pitch": 64, "duration": 7, "velocity": 70}, {"time": 412, "pitch": 67, "duration": 7, "velocity": 66}, {"time": 424, "pitch": 60, "duration": 3, "velocity": 76}, {"time": 424, "pitch": 64, "duration": 3, "velocity": 81}, {"time": 424, "pitch": 67, "duration": 4, "velocity": 75}, {"time": 433, "pitch": 55, "duration": 3, "velocity": 36}, {"time": 436, "pitch": 50, "duration": 13, "velocity": 69}, {"time": 436, "pitch": 62, "duration": 11, "velocity": 77}, {"time": 436, "pitch": 66, "duration": 11, "velocity": 90}, {"time": 436, "pitch": 69, "duration": 8, "velocity": 73}, {"time": 445, "pitch": 69, "duration": 1, "velocity": 20}, {"time": 448, "pitch": 66, "duration": 7, "velocity": 112}, {"time": 448, "pitch": 69, "duration": 7, "velocity": 88}, {"time": 457, "pitch": 50, "duration": 3, "velocity": 56}, {"time": 460, "pitch": 43, "duration": 41, "velocity": 69}, {"time": 460, "pitch": 62, "duration": 10, "velocity": 69}, {"time": 460, "pitch": 67, "duration": 11, "velocity": 66}, {"time": 460, "pitch": 71, "duration": 11, "velocity": 69}, {"time": 472, "pitch": 62, "duration": 11, "velocity": 69}, {"time": 472, "pitch": 67, "duration": 11, "velocity": 76}, {"time": 472, "pitch": 71, "duration": 11, "velocity": 69}, {"time": 481, "pitch": 50, "duration": 18, "velocity": 1}, {"time": 481, "pitch": 55, "duration": 4, "velocity": 42}, {"time": 484, "pitch": 62, "duration": 9, "velocity": 67}, {"time": 484, "pitch": 65, "duration": 9, "velocity": 66}, {"time": 484, "pitch": 67, "duration": 10, "velocity": 66}, {"time": 484, "pitch": 71, "duration": 10, "velocity": 67}, {"time": 493, "pitch": 55, "duration": 4, "velocity": 33}, {"time": 496, "pitch": 65, "duration": 6, "velocity": 81}, {"time": 496, "pitch": 67, "duration": 7, "velocity": 93}, {"time": 496, "pitch": 71, "duration": 6, "velocity": 93}, {"time": 499, "pitch": 55, "duration": 2, "velocity": 88}, {"time": 502, "pitch": 62, "duration": 4, "velocity": 92}, {"time": 505, "pitch": 67, "duration": 2, "velocity": 37}, {"time": 508, "pitch": 48, "duration": 23, "velocity": 68}, {"time": 508, "pitch": 60, "duration": 7, "velocity": 97}, {"time": 508, "pitch": 64, "duration": 11, "velocity": 72}, {"time": 508, "pitch": 67, "duration": 11, "velocity": 67}, {"time": 517, "pitch": 60, "duration": 1, "velocity": 29}, {"time": 520, "pitch": 60, "duration": 10, "velocity": 86}, {"time": 520, "pitch": 64, "duration": 11, "velocity": 85}, {"time": 520, "pitch": 67, "duration": 6, "velocity": 72}, {"time": 529, "pitch": 55, "duration": 3, "velocity": 59}, {"time": 532, "pitch": 50, "duration": 19, "velocity": 66}, {"time": 532, "pitch": 62, "duration": 10, "velocity": 82}, {"time": 532, "pitch": 66, "duration": 8, "velocity": 92}, {"time": 532, "pitch": 69, "duration": 7, "velocity": 77}, {"time": 544, "pitch": 62, "duration": 8, "velocity": 82}, {"time": 544, "pitch": 66, "duration": 7, "velocity": 107}, {"time": 544, "pitch": 69, "duration": 7, "velocity": 88}, {"time": 550, "pitch": 57, "duration": 1, "velocity": 35}, {"time": 556, "pitch": 43, "duration": 10, "velocity": 66}, {"time": 556, "pitch": 62, "duration": 7, "velocity": 86}, {"time": 556, "pitch": 67, "duration": 7, "velocity": 73}, {"time": 556, "pitch": 71, "duration": 7, "velocity": 75}, {"time": 568, "pitch": 42, "duration": 9, "velocity": 68}, {"time": 568, "pitch": 66, "duration": 12, "velocity": 100}, {"time": 580, "pitch": 40, "duration": 17, "velocity": 65}, {"time": 580, "pitch": 64, "duration": 11, "velocity": 71}, {"time": 580, "pitch": 67, "duration": 11, "velocity": 69}, {"time": 580, "pitch": 71, "duration": 11, "velocity": 68}, {"time": 592, "pitch": 64, "duration": 4, "velocity": 66}, {"time": 592, "pitch": 67, "duration": 7, "velocity": 93}, {"time": 592, "pitch": 71, "duration": 6, "velocity": 88}, {"time": 595, "pitch": 52, "duration": 2, "velocity": 59}, {"time": 598, "pitch": 62, "duration": 4, "velocity": 83}, {"time": 601, "pitch": 64, "duration": 2, "velocity": 48}, {"time": 604, "pitch": 48, "duration": 17, "velocity": 66}, {"time": 604, "pitch": 60, "duration": 9, "velocity": 88}, {"time": 604, "pitch": 64, "duration": 11, "velocity": 70}, {"time": 604, "pitch": 67, "duration": 10, "velocity": 66}, {"time": 616, "pitch": 64, "duration": 7, "velocity": 79}, {"time": 616, "pitch": 67, "duration": 5, "velocity": 75}, {"time": 619, "pitch": 55, "duration": 2, "velocity": 36}, {"time": 622, "pitch": 60, "duration": 5, "velocity": 71}, {"time": 622, "pitch": 67, "duration": 1, "velocity": 30}, {"time": 625, "pitch": 64, "duration": 2, "velocity": 56}, {"time": 628, "pitch": 50, "duration": 16, "velocity": 58}, {"time": 628, "pitch": 57, "duration": 13, "velocity": 73}, {"time": 628, "pitch": 62, "duration": 10, "velocity": 86}, {"time": 628, "pitch": 66, "duration": 10, "velocity": 76}, {"time": 628, "pitch": 69, "duration": 10, "velocity": 72}, {"time": 640, "pitch": 66, "duration": 7, "velocity": 99}, {"time": 640, "pitch": 69, "duration": 6, "velocity": 82}, {"time": 643, "pitch": 57, "duration": 2, "velocity": 59}, {"time": 646, "pitch": 62, "duration": 3, "velocity": 66}, {"time": 652, "pitch": 40, "duration": 39, "velocity": 73}, {"time": 652, "pitch": 59, "duration": 8, "velocity": 77}, {"time": 652, "pitch": 64, "duration": 8, "velocity": 71}, {"time": 652, "pitch": 67, "duration": 10, "velocity": 65}, {"time": 664, "pitch": 59, "duration": 2, "velocity": 76}, {"time": 664, "pitch": 64, "duration": 2, "velocity": 74}, {"time": 664, "pitch": 67, "duration": 2, "velocity": 71}, {"time": 673, "pitch": 47, "duration": 17, "velocity": 41}, {"time": 673, "pitch": 52, "duration": 5, "velocity": 58}, {"time": 676, "pitch": 59, "duration": 2, "velocity": 86}, {"time": 676, "pitch": 64, "duration": 2, "velocity": 89}, {"time": 676, "pitch": 67, "duration": 2, "velocity": 78}, {"time": 679, "pitch": 59, "duration": 4, "velocity": 73}, {"time": 679, "pitch": 64, "duration": 4, "velocity": 81}, {"time": 679, "pitch": 67, "duration": 4, "velocity": 76}, {"time": 700, "pitch": 48, "duration": 21, "velocity": 68}, {"time": 700, "pitch": 60, "duration": 6, "velocity": 81}, {"time": 700, "pitch": 64, "duration": 7, "velocity": 75}, {"time": 700, "pitch": 67, "duration": 6, "velocity": 77}, {"time": 706, "pitch": 55, "duration": 7, "velocity": 48}, {"time": 712, "pitch": 60, "duration": 9, "velocity": 95}, {"time": 712, "pitch": 64, "duration": 10, "velocity": 90}, {"time": 712, "pitch": 67, "duration": 6, "velocity": 92}, {"time": 721, "pitch": 55, "duration": 3, "velocity": 61}, {"time": 724, "pitch": 50, "duration": 24, "velocity": 82}, {"time": 724, "pitch": 62, "duration": 8, "velocity": 77}, {"time": 724, "pitch": 66, "duration": 8, "velocity": 95}, {"time": 724, "pitch": 69, "duration": 7, "velocity": 81}, {"time": 730, "pitch": 57, "duration": 9, "velocity": 52}, {"time": 736, "pitch": 62, "duration": 8, "velocity": 82}, {"time": 736, "pitch": 66, "duration": 7, "velocity": 107}, {"time": 736, "pitch": 69, "duration": 7, "velocity": 89}, {"time": 742, "pitch": 57, "duration": 3, "velocity": 51}, {"time": 748, "pitch": 47, "duration": 10, "velocity": 69}, {"time": 748, "pitch": 59, "duration": 10, "velocity": 77}, {"time": 748, "pitch": 62, "duration": 10, "velocity": 82}, {"time": 748, "pitch": 66, "duration": 10, "velocity": 85}, {"time": 760, "pitch": 47, "duration": 11, "velocity": 56}, {"time": 760, "pitch": 59, "duration": 8, "velocity": 77}, {"time": 760, "pitch": 62, "duration": 8, "velocity": 78}, {"time": 760, "pitch": 66, "duration": 8, "velocity": 78}, {"time": 769, "pitch": 59, "duration": 6, "velocity": 68}, {"time": 769, "pitch": 62, "duration": 2, "velocity": 69}, {"time": 772, "pitch": 52, "duration": 14, "velocity": 53}, {"time": 772, "pitch": 64, "duration": 11, "velocity": 72}, {"time": 772, "pitch": 67, "duration": 6, "velocity": 70}, {"time": 781, "pitch": 67, "duration": 1, "velocity": 26}, {"time": 784, "pitch": 64, "duration": 2, "velocity": 64}, {"time": 784, "pitch": 67, "duration": 7, "velocity": 95}, {"time": 784, "pitch": 71, "duration": 6, "velocity": 90}, {"time": 787, "pitch": 52, "duration": 5, "velocity": 66}, {"time": 790, "pitch": 62, "duration": 4, "velocity": 77}, {"time": 796, "pitch": 48, "duration": 21, "velocity": 72}, {"time": 796, "pitch": 60, "duration": 7, "velocity": 93}, {"time": 796, "pitch": 64, "duration": 10, "velocity": 73}, {"time": 796, "pitch": 67, "duration": 10, "velocity": 75}, {"time": 808, "pitch": 60, "duration": 9, "velocity": 90}, {"time": 808, "pitch": 64, "duration": 10, "velocity": 90}, {"time": 808, "pitch": 67, "duration": 7, "velocity": 89}, {"time": 817, "pitch": 55, "duration": 3, "velocity": 64}, {"time": 820, "pitch": 50, "duration": 17, "velocity": 85}, {"time": 820, "pitch": 62, "duration": 8, "velocity": 77}, {"time": 820, "pitch": 66, "duration": 8, "velocity": 100}, {"time": 820, "pitch": 69, "duration": 8, "velocity": 88}, {"time": 832, "pitch": 62, "duration": 2, "velocity": 76}, {"time": 832, "pitch": 66, "duration": 6, "velocity": 122}, {"time": 832, "pitch": 69, "duration": 8, "velocity": 92}, {"time": 835, "pitch": 57, "duration": 2, "velocity": 60}, {"time": 838, "pitch": 62, "duration": 4, "velocity": 89}, {"time": 841, "pitch": 66, "duration": 2, "velocity": 82}, {"time": 844, "pitch": 40, "duration": 41, "velocity": 79}, {"time": 844, "pitch": 64, "duration": 10, "velocity": 88}, {"time": 844, "pitch": 67, "duration": 10, "velocity": 93}, {"time": 844, "pitch": 71, "duration": 10, "velocity": 95}, {"time": 856, "pitch": 64, "duration": 2, "velocity": 77}, {"time": 856, "pitch": 67, "duration": 1, "velocity": 83}, {"time": 856, "pitch": 71, "duration": 1, "velocity": 75}, {"time": 865, "pitch": 52, "duration": 4, "velocity": 53}, {"time": 868, "pitch": 64, "duration": 19, "velocity": 70}, {"time": 868, "pitch": 67, "duration": 18, "velocity": 85}, {"time": 868, "pitch": 71, "duration": 18, "velocity": 77}, {"time": 892, "pitch": 43, "duration": 20, "velocity": 72}, {"time": 892, "pitch": 62, "duration": 5, "velocity": 83}, {"time": 892, "pitch": 67, "duration": 5, "velocity": 89}, {"time": 892, "pitch": 71, "duration": 5, "velocity": 78}, {"time": 904, "pitch": 62, "duration": 2, "velocity": 85}, {"time": 904, "pitch": 67, "duration": 1, "velocity": 89}, {"time": 904, "pitch": 71, "duration": 2, "velocity": 82}, {"time": 913, "pitch": 55, "duration": 2, "velocity": 63}, {"time": 916, "pitch": 50, "duration": 13, "velocity": 78}, {"time": 916, "pitch": 62, "duration": 7, "velocity": 79}, {"time": 916, "pitch": 66, "duration": 7, "velocity": 95}, {"time": 916, "pitch": 69, "duration": 7, "velocity": 77}, {"time": 928, "pitch": 66, "duration": 5, "velocity": 107}, {"time": 928, "pitch": 69, "duration": 5, "velocity": 85}, {"time": 931, "pitch": 50, "duration": 1, "velocity": 75}, {"time": 934, "pitch": 62, "duration": 2, "velocity": 88}, {"time": 934, "pitch": 69, "duration": 1, "velocity": 32}, {"time": 940, "pitch": 40, "duration": 40, "velocity": 75}, {"time": 940, "pitch": 64, "duration": 5, "velocity": 76}, {"time": 940, "pitch": 67, "duration": 4, "velocity": 79}, {"time": 940, "pitch": 71, "duration": 5, "velocity": 75}, {"time": 952, "pitch": 64, "duration": 1, "velocity": 83}, {"time": 952, "pitch": 67, "duration": 1, "velocity": 90}, {"time": 952, "pitch": 71, "duration": 1, "velocity": 85}, {"time": 958, "pitch": 52, "duration": 6, "velocity": 53}, {"time": 961, "pitch": 64, "duration": 2, "velocity": 60}, {"time": 961, "pitch": 67, "duration": 1, "velocity": 55}, {"time": 961, "pitch": 71, "duration": 2, "velocity": 59}, {"time": 964, "pitch": 64, "duration": 1, "velocity": 95}, {"time": 964, "pitch": 67, "duration": 1, "velocity": 95}, {"time": 964, "pitch": 71, "duration": 1, "velocity": 90}, {"time": 973, "pitch": 52, "duration": 4, "velocity": 82}, {"time": 976, "pitch": 67, "duration": 4, "velocity": 96}, {"time": 976, "pitch": 71, "duration": 6, "velocity": 96}, {"time": 979, "pitch": 52, "duration": 1, "velocity": 82}, {"time": 982, "pitch": 62, "duration": 2, "velocity": 95}, {"time": 988, "pitch": 48, "duration": 16, "velocity": 76}, {"time": 988, "pitch": 60, "duration": 5, "velocity": 86}, {"time": 988, "pitch": 64, "duration": 5, "velocity": 78}, {"time": 988, "pitch": 67, "duration": 4, "velocity": 77}, {"time": 994, "pitch": 55, "duration": 6, "velocity": 56}, {"time": 1000, "pitch": 64, "duration": 4, "velocity": 96}, {"time": 1000, "pitch": 67, "duration": 2, "velocity": 88}, {"time": 1003, "pitch": 55, "duration": 1, "velocity": 58}, {"time": 1006, "pitch": 60, "duration": 2, "velocity": 93}, {"time": 1012, "pitch": 50, "duration": 16, "velocity": 83}, {"time": 1012, "pitch": 57, "duration": 12, "velocity": 86}, {"time": 1012, "pitch": 62, "duration": 5, "velocity": 93}, {"time": 1012, "pitch": 66, "duration": 5, "velocity": 99}, {"time": 1012, "pitch": 69, "duration": 5, "velocity": 81}, {"time": 1024, "pitch": 66, "duration": 4, "velocity": 112}, {"time": 1024, "pitch": 69, "duration": 3, "velocity": 82}, {"time": 1027, "pitch": 57, "duration": 1, "velocity": 74}, {"time": 1030, "pitch": 62, "duration": 2, "velocity": 93}, {"time": 1036, "pitch": 43, "duration": 40, "velocity": 61}, {"time": 1036, "pitch": 62, "duration": 2, "velocity": 93}, {"time": 1036, "pitch": 67, "duration": 2, "velocity": 90}, {"time": 1036, "pitch": 71, "duration": 2, "velocity": 86}, {"time": 1042, "pitch": 50, "duration": 32, "velocity": 44}, {"time": 1048, "pitch": 62, "duration": 1, "velocity": 92}, {"time": 1048, "pitch": 67, "duration": 1, "velocity": 90}, {"time": 1048, "pitch": 71, "duration": 1, "velocity": 85}, {"time": 1057, "pitch": 55, "duration": 4, "velocity": 67}, {"time": 1060, "pitch": 65, "duration": 2, "velocity": 89}, {"time": 1060, "pitch": 67, "duration": 2, "velocity": 95}, {"time": 1060, "pitch": 71, "duration": 2, "velocity": 90}, {"time": 1063, "pitch": 55, "duration": 10, "velocity": 83}, {"time": 1069, "pitch": 62, "duration": 1, "velocity": 44}, {"time": 1072, "pitch": 65, "duration": 2, "velocity": 100}, {"time": 1072, "pitch": 67, "duration": 2, "velocity": 99}, {"time": 1072, "pitch": 71, "duration": 2, "velocity": 95}, {"time": 1075, "pitch": 55, "duration": 2, "velocity": 74}, {"time": 1078, "pitch": 62, "duration": 1, "velocity": 97}, {"time": 1084, "pitch": 48, "duration": 22, "velocity": 71}, {"time": 1084, "pitch": 60, "duration": 4, "velocity": 89}, {"time": 1084, "pitch": 64, "duration": 5, "velocity": 86}, {"time": 1084, "pitch": 67, "duration": 5, "velocity": 81}, {"time": 1093, "pitch": 55, "duration": 4, "velocity": 21}, {"time": 1096, "pitch": 60, "duration": 1, "velocity": 93}, {"time": 1096, "pitch": 64, "duration": 1, "velocity": 97}, {"time": 1096, "pitch": 67, "duration": 1, "velocity": 93}, {"time": 1105, "pitch": 55, "duration": 3, "velocity": 55}, {"time": 1108, "pitch": 50, "duration": 16, "velocity": 77}, {"time": 1108, "pitch": 62, "duration": 2, "velocity": 89}, {"time": 1108, "pitch": 66, "duration": 2, "velocity": 97}, {"time": 1108, "pitch": 69, "duration": 2, "velocity": 83}, {"time": 1114, "pitch": 57, "duration": 7, "velocity": 83}, {"time": 1120, "pitch": 66, "duration": 2, "velocity": 117}, {"time": 1120, "pitch": 69, "duration": 2, "velocity": 93}, {"time": 1123, "pitch": 57, "duration": 1, "velocity": 92}, {"time": 1126, "pitch": 62, "duration": 2, "velocity": 102}, {"time": 1129, "pitch": 66, "duration": 2, "velocity": 77}, {"time": 1132, "pitch": 43, "duration": 9, "velocity": 74}, {"time": 1132, "pitch": 62, "duration": 4, "velocity": 59}, {"time": 1132, "pitch": 67, "duration": 4, "velocity": 93}, {"time": 1132, "pitch": 71, "duration": 4, "velocity": 96}, {"time": 1138, "pitch": 50, "duration": 2, "velocity": 50}, {"time": 1144, "pitch": 42, "duration": 7, "velocity": 93}, {"time": 1144, "pitch": 66, "duration": 9, "velocity": 92}, {"time": 1144, "pitch": 69, "duration": 6, "velocity": 77}, {"time": 1156, "pitch": 40, "duration": 16, "velocity": 82}, {"time": 1156, "pitch": 64, "duration": 4, "velocity": 76}, {"time": 1156, "pitch": 67, "duration": 4, "velocity": 82}, {"time": 1156, "pitch": 71, "duration": 4, "velocity": 82}, {"time": 1165, "pitch": 47, "duration": 7, "velocity": 66}, {"time": 1168, "pitch": 67, "duration": 5, "velocity": 99}, {"time": 1168, "pitch": 71, "duration": 6, "velocity": 95}, {"time": 1171, "pitch": 52, "duration": 3, "velocity": 76}, {"time": 1174, "pitch": 62, "duration": 4, "velocity": 92}, {"time": 1177, "pitch": 64, "duration": 3, "velocity": 69}, {"time": 1180, "pitch": 48, "duration": 23, "velocity": 72}, {"time": 1180, "pitch": 60, "duration": 5, "velocity": 93}, {"time": 1180, "pitch": 64, "duration": 5, "velocity": 71}, {"time": 1180, "pitch": 67, "duration": 5, "velocity": 79}, {"time": 1192, "pitch": 60, "duration": 2, "velocity": 90}, {"time": 1192, "pitch": 64, "duration": 1, "velocity": 88}, {"time": 1192, "pitch": 67, "duration": 1, "velocity": 75}, {"time": 1201, "pitch": 55, "duration": 3, "velocity": 56}, {"time": 1204, "pitch": 50, "duration": 13, "velocity": 69}, {"time": 1204, "pitch": 62, "duration": 8, "velocity": 88}, {"time": 1204, "pitch": 66, "duration": 10, "velocity": 100}, {"time": 1204, "pitch": 69, "duration": 8, "velocity": 86}, {"time": 1216, "pitch": 66, "duration": 7, "velocity": 127}, {"time": 1216, "pitch": 69, "duration": 7, "velocity": 96}, {"time": 1219, "pitch": 50, "duration": 2, "velocity": 37}, {"time": 1222, "pitch": 62, "duration": 2, "velocity": 88}, {"time": 1228, "pitch": 40, "duration": 16, "velocity": 72}, {"time": 1228, "pitch": 64, "duration": 6, "velocity": 88}, {"time": 1228, "pitch": 67, "duration": 6, "velocity": 96}, {"time": 1228, "pitch": 71, "duration": 6, "velocity": 93}, {"time": 1240, "pitch": 64, "duration": 1, "velocity": 93}, {"time": 1240, "pitch": 67, "duration": 1, "velocity": 102}, {"time": 1240, "pitch": 71, "duration": 1, "velocity": 97}, {"time": 1246, "pitch": 40, "duration": 28, "velocity": 57}, {"time": 1246, "pitch": 47, "duration": 20, "velocity": 47}, {"time": 1246, "pitch": 52, "duration": 9, "velocity": 41}, {"time": 1249, "pitch": 64, "duration": 2, "velocity": 75}, {"time": 1249, "pitch": 67, "duration": 2, "velocity": 88}, {"time": 1249, "pitch": 71, "duration": 1, "velocity": 75}, {"time": 1252, "pitch": 64, "duration": 2, "velocity": 93}, {"time": 1252, "pitch": 67, "duration": 1, "velocity": 100}, {"time": 1252, "pitch": 71, "duration": 1, "velocity": 99}, {"time": 1255, "pitch": 64, "duration": 1, "velocity": 97}, {"time": 1255, "pitch": 67, "duration": 1, "velocity": 117}, {"time": 1255, "pitch": 71, "duration": 1, "velocity": 102}, {"time": 1261, "pitch": 52, "duration": 4, "velocity": 85}, {"time": 1264, "pitch": 64, "duration": 3, "velocity": 92}, {"time": 1264, "pitch": 67, "duration": 3, "velocity": 112}, {"time": 1264, "pitch": 71, "duration": 3, "velocity": 102}, {"time": 1267, "pitch": 47, "duration": 6, "velocity": 37}, {"time": 1267, "pitch": 52, "duration": 6, "velocity": 97}, {"time": 1270, "pitch": 67, "duration": 4, "velocity": 127}, {"time": 1270, "pitch": 71, "duration": 4, "velocity": 117}, {"time": 1273, "pitch": 64, "duration": 2, "velocity": 99}, {"time": 1276, "pitch": 48, "duration": 22, "velocity": 71}, {"time": 1276, "pitch": 60, "duration": 2, "velocity": 97}, {"time": 1276, "pitch": 64, "duration": 2, "velocity": 96}, {"time": 1276, "pitch": 67, "duration": 2, "velocity": 90}, {"time": 1276, "pitch": 71, "duration": 2, "velocity": 78}, {"time": 1288, "pitch": 60, "duration": 1, "velocity": 102}, {"time": 1288, "pitch": 64, "duration": 1, "velocity": 97}, {"time": 1288, "pitch": 67, "duration": 1, "velocity": 92}, {"time": 1288, "pitch": 71, "duration": 1, "velocity": 85}, {"time": 1297, "pitch": 55, "duration": 3, "velocity": 79}, {"time": 1300, "pitch": 50, "duration": 14, "velocity": 78}, {"time": 1300, "pitch": 62, "duration": 7, "velocity": 86}, {"time": 1300, "pitch": 66, "duration": 7, "velocity": 97}, {"time": 1300, "pitch": 69, "duration": 7, "velocity": 86}, {"time": 1312, "pitch": 62, "duration": 2, "velocity": 85}, {"time": 1312, "pitch": 66, "duration": 5, "velocity": 127}, {"time": 1312, "pitch": 69, "duration": 4, "velocity": 96}, {"time": 1315, "pitch": 50, "duration": 2, "velocity": 66}, {"time": 1318, "pitch": 62, "duration": 2, "velocity": 93}, {"time": 1324, "pitch": 55, "duration": 11, "velocity": 90}, {"time": 1324, "pitch": 62, "duration": 11, "velocity": 95}, {"time": 1324, "pitch": 67, "duration": 10, "velocity": 97}, {"time": 1324, "pitch": 71, "duration": 8, "velocity": 95}, {"time": 1336, "pitch": 54, "duration": 6, "velocity": 79}, {"time": 1336, "pitch": 66, "duration": 7, "velocity": 107}, {"time": 1336, "pitch": 69, "duration": 6, "velocity": 95}, {"time": 1348, "pitch": 52, "duration": 17, "velocity": 67}, {"time": 1348, "pitch": 64, "duration": 5, "velocity": 86}, {"time": 1348, "pitch": 67, "duration": 5, "velocity": 89}, {"time": 1348, "pitch": 71, "duration": 6, "velocity": 86}, {"time": 1357, "pitch": 59, "duration": 5, "velocity": 58}, {"time": 1360, "pitch": 67, "duration": 6, "velocity": 102}, {"time": 1360, "pitch": 71, "duration": 6, "velocity": 102}, {"time": 1363, "pitch": 59, "duration": 2, "velocity": 89}, {"time": 1366, "pitch": 62, "duration": 3, "velocity": 88}, {"time": 1369, "pitch": 64, "duration": 2, "velocity": 36}, {"time": 1372, "pitch": 48, "duration": 17, "velocity": 66}, {"time": 1372, "pitch": 60, "duration": 7, "velocity": 95}, {"time": 1372, "pitch": 64, "duration": 9, "velocity": 82}, {"time": 1372, "pitch": 67, "duration": 7, "velocity": 83}, {"time": 1378, "pitch": 55, "duration": 7, "velocity": 48}, {"time": 1384, "pitch": 60, "duration": 3, "velocity": 58}, {"time": 1384, "pitch": 64, "duration": 6, "velocity": 100}, {"time": 1384, "pitch": 67, "duration": 8, "velocity": 95}, {"time": 1387, "pitch": 55, "duration": 4, "velocity": 88}, {"time": 1390, "pitch": 60, "duration": 4, "velocity": 82}, {"time": 1393, "pitch": 64, "duration": 2, "velocity": 69}, {"time": 1396, "pitch": 50, "duration": 13, "velocity": 73}, {"time": 1396, "pitch": 62, "duration": 9, "velocity": 90}, {"time": 1396, "pitch": 66, "duration": 10, "velocity": 112}, {"time": 1396, "pitch": 69, "duration": 9, "velocity": 92}, {"time": 1408, "pitch": 66, "duration": 7, "velocity": 127}, {"time": 1408, "pitch": 69, "duration": 7, "velocity": 97}, {"time": 1411, "pitch": 50, "duration": 2, "velocity": 74}, {"time": 1414, "pitch": 62, "duration": 2, "velocity": 93}, {"time": 1420, "pitch": 40, "duration": 46, "velocity": 77}, {"time": 1420, "pitch": 64, "duration": 6, "velocity": 92}, {"time": 1420, "pitch": 67, "duration": 6, "velocity": 97}, {"time": 1420, "pitch": 71, "duration": 6, "velocity": 95}, {"time": 1426, "pitch": 52, "duration": 7, "velocity": 42}, {"time": 1432, "pitch": 64, "duration": 2, "velocity": 93}, {"time": 1432, "pitch": 67, "duration": 1, "velocity": 100}, {"time": 1432, "pitch": 71, "duration": 1, "velocity": 95}, {"time": 1438, "pitch": 52, "duration": 5, "velocity": 77}, {"time": 1441, "pitch": 64, "duration": 1, "velocity": 81}, {"time": 1441, "pitch": 67, "duration": 2, "velocity": 89}, {"time": 1441, "pitch": 71, "duration": 1, "velocity": 83}, {"time": 1447, "pitch": 64, "duration": 1, "velocity": 78}, {"time": 1447, "pitch": 67, "duration": 1, "velocity": 85}, {"time": 1447, "pitch": 71, "duration": 1, "velocity": 79}, {"time": 1450, "pitch": 64, "duration": 1, "velocity": 89}, {"time": 1450, "pitch": 67, "duration": 1, "velocity": 100}, {"time": 1450, "pitch": 71, "duration": 1, "velocity": 93}, {"time": 1453, "pitch": 52, "duration": 3, "velocity": 73}, {"time": 1456, "pitch": 64, "duration": 2, "velocity": 95}, {"time": 1456, "pitch": 67, "duration": 2, "velocity": 107}, {"time": 1456, "pitch": 71, "duration": 1, "velocity": 97}, {"time": 1459, "pitch": 52, "duration": 7, "velocity": 88}, {"time": 1462, "pitch": 67, "duration": 4, "velocity": 117}, {"time": 1462, "pitch": 71, "duration": 4, "velocity": 102}, {"time": 1465, "pitch": 64, "duration": 1, "velocity": 99}, {"time": 1468, "pitch": 37, "duration": 40, "velocity": 95}, {"time": 1468, "pitch": 49, "duration": 14, "velocity": 95}, {"time": 1468, "pitch": 61, "duration": 2, "velocity": 99}, {"time": 1468, "pitch": 64, "duration": 2, "velocity": 102}, {"time": 1468, "pitch": 68, "duration": 2, "velocity": 102}, {"time": 1480, "pitch": 61, "duration": 1, "velocity": 107}, {"time": 1480, "pitch": 64, "duration": 1, "velocity": 117}, {"time": 1480, "pitch": 68, "duration": 1, "velocity": 112}, {"time": 1486, "pitch": 49, "duration": 5, "velocity": 83}, {"time": 1489, "pitch": 61, "duration": 1, "velocity": 99}, {"time": 1489, "pitch": 64, "duration": 1, "velocity": 99}, {"time": 1489, "pitch": 68, "duration": 1, "velocity": 107}, {"time": 1492, "pitch": 49, "duration": 3, "velocity": 33}, {"time": 1495, "pitch": 61, "duration": 1, "velocity": 88}, {"time": 1495, "pitch": 64, "duration": 1, "velocity": 81}, {"time": 1495, "pitch": 68, "duration": 1, "velocity": 83}, {"time": 1501, "pitch": 49, "duration": 3, "velocity": 102}, {"time": 1504, "pitch": 64, "duration": 2, "velocity": 112}, {"time": 1504, "pitch": 68, "duration": 2, "velocity": 127}, {"time": 1507, "pitch": 49, "duration": 2, "velocity": 95}, {"time": 1510, "pitch": 61, "duration": 1, "velocity": 112}, {"time": 1516, "pitch": 44, "duration": 15, "velocity": 122}, {"time": 1516, "pitch": 56, "duration": 6, "velocity": 112}, {"time": 1516, "pitch": 59, "duration": 5, "velocity": 102}, {"time": 1516, "pitch": 63, "duration": 5, "velocity": 112}, {"time": 1528, "pitch": 56, "duration": 1, "velocity": 127}, {"time": 1528, "pitch": 59, "duration": 1, "velocity": 127}, {"time": 1528, "pitch": 63, "duration": 1, "velocity": 122}, {"time": 1534, "pitch": 44, "duration": 5, "velocity": 90}, {"time": 1537, "pitch": 56, "duration": 1, "velocity": 100}, {"time": 1537, "pitch": 59, "duration": 1, "velocity": 100}, {"time": 1537, "pitch": 63, "duration": 1, "velocity": 112}, {"time": 1543, "pitch": 56, "duration": 1, "velocity": 97}, {"time": 1543, "pitch": 59, "duration": 1, "velocity": 93}, {"time": 1543, "pitch": 63, "duration": 1, "velocity": 90}, {"time": 1549, "pitch": 44, "duration": 4, "velocity": 93}, {"time": 1552, "pitch": 56, "duration": 2, "velocity": 102}, {"time": 1552, "pitch": 59, "duration": 2, "velocity": 107}, {"time": 1552, "pitch": 63, "duration": 2, "velocity": 107}, {"time": 1555, "pitch": 44, "duration": 2, "velocity": 100}, {"time": 1558, "pitch": 59, "duration": 1, "velocity": 100}, {"time": 1558, "pitch": 63, "duration": 1, "velocity": 100}, {"time": 1564, "pitch": 42, "duration": 23, "velocity": 95}, {"time": 1564, "pitch": 54, "duration": 16, "velocity": 96}, {"time": 1564, "pitch": 57, "duration": 6, "velocity": 100}, {"time": 1564, "pitch": 61, "duration": 6, "velocity": 127}, {"time": 1576, "pitch": 57, "duration": 2, "velocity": 99}, {"time": 1576, "pitch": 61, "duration": 1, "velocity": 122}, {"time": 1585, "pitch": 54, "duration": 2, "velocity": 27}, {"time": 1588, "pitch": 47, "duration": 13, "velocity": 79}, {"time": 1588, "pitch": 59, "duration": 6, "velocity": 93}, {"time": 1588, "pitch": 63, "duration": 6, "velocity": 117}, {"time": 1588, "pitch": 66, "duration": 6, "velocity": 107}, {"time": 1600, "pitch": 63, "duration": 4, "velocity": 127}, {"time": 1600, "pitch": 66, "duration": 3, "velocity": 127}, {"time": 1603, "pitch": 47, "duration": 2, "velocity": 99}, {"time": 1606, "pitch": 59, "duration": 2, "velocity": 112}, {"time": 1609, "pitch": 63, "duration": 2, "velocity": 122}, {"time": 1612, "pitch": 40, "duration": 16, "velocity": 66}, {"time": 1612, "pitch": 47, "duration": 16, "velocity": 73}, {"time": 1612, "pitch": 52, "duration": 13, "velocity": 96}, {"time": 1612, "pitch": 59, "duration": 4, "velocity": 112}, {"time": 1612, "pitch": 64, "duration": 4, "velocity": 102}, {"time": 1612, "pitch": 68, "duration": 4, "velocity": 100}, {"time": 1618, "pitch": 59, "duration": 1, "velocity": 79}, {"time": 1618, "pitch": 64, "duration": 1, "velocity": 86}, {"time": 1618, "pitch": 68, "duration": 1, "velocity": 88}, {"time": 1624, "pitch": 64, "duration": 2, "velocity": 112}, {"time": 1624, "pitch": 68, "duration": 2, "velocity": 122}, {"time": 1627, "pitch": 59, "duration": 2, "velocity": 63}, {"time": 1630, "pitch": 40, "duration": 13, "velocity": 61}, {"time": 1630, "pitch": 47, "duration": 13, "velocity": 92}, {"time": 1630, "pitch": 52, "duration": 11, "velocity": 89}, {"time": 1633, "pitch": 64, "duration": 2, "velocity": 122}, {"time": 1633, "pitch": 68, "duration": 1, "velocity": 117}, {"time": 1639, "pitch": 64, "duration": 2, "velocity": 97}, {"time": 1639, "pitch": 68, "duration": 2, "velocity": 100}, {"time": 1642, "pitch": 59, "duration": 2, "velocity": 58}, {"time": 1645, "pitch": 40, "duration": 5, "velocity": 59}, {"time": 1645, "pitch": 47, "duration": 5, "velocity": 77}, {"time": 1645, "pitch": 52, "duration": 4, "velocity": 77}, {"time": 1648, "pitch": 64, "duration": 5, "velocity": 127}, {"time": 1648, "pitch": 68, "duration": 6, "velocity": 127}, {"time": 1651, "pitch": 47, "duration": 1, "velocity": 41}, {"time": 1651, "pitch": 52, "duration": 2, "velocity": 99}, {"time": 1654, "pitch": 59, "duration": 2, "velocity": 107}, {"time": 1657, "pitch": 61, "duration": 2, "velocity": 86}, {"time": 1660, "pitch": 45, "duration": 17, "velocity": 90}, {"time": 1660, "pitch": 57, "duration": 6, "velocity": 100}, {"time": 1660, "pitch": 61, "duration": 6, "velocity": 107}, {"time": 1660, "pitch": 64, "duration": 6, "velocity": 97}, {"time": 1666, "pitch": 52, "duration": 7, "velocity": 59}, {"time": 1672, "pitch": 61, "duration": 6, "velocity": 127}, {"time": 1672, "pitch": 64, "duration": 6, "velocity": 100}, {"time": 1675, "pitch": 52, "duration": 2, "velocity": 86}, {"time": 1678, "pitch": 57, "duration": 2, "velocity": 102}, {"time": 1681, "pitch": 61, "duration": 2, "velocity": 117}, {"time": 1684, "pitch": 47, "duration": 16, "velocity": 63}, {"time": 1684, "pitch": 54, "duration": 13, "velocity": 89}, {"time": 1684, "pitch": 59, "duration": 10, "velocity": 83}, {"time": 1684, "pitch": 63, "duration": 10, "velocity": 127}, {"time": 1696, "pitch": 63, "duration": 6, "velocity": 127}, {"time": 1696, "pitch": 66, "duration": 7, "velocity": 127}, {"time": 1699, "pitch": 54, "duration": 2, "velocity": 97}, {"time": 1702, "pitch": 59, "duration": 4, "velocity": 107}, {"time": 1705, "pitch": 63, "duration": 2, "velocity": 100}, {"time": 1708, "pitch": 40, "duration": 8, "velocity": 81}, {"time": 1708, "pitch": 59, "duration": 5, "velocity": 97}, {"time": 1708, "pitch": 64, "duration": 5, "velocity": 112}, {"time": 1708, "pitch": 68, "duration": 6, "velocity": 117}, {"time": 1720, "pitch": 42, "duration": 4, "velocity": 112}, {"time": 1720, "pitch": 66, "duration": 5, "velocity": 97}, {"time": 1720, "pitch": 69, "duration": 5, "velocity": 107}, {"time": 1720, "pitch": 73, "duration": 5, "velocity": 127}, {"time": 1732, "pitch": 43, "duration": 18, "velocity": 102}, {"time": 1732, "pitch": 62, "duration": 6, "velocity": 97}, {"time": 1732, "pitch": 67, "duration": 6, "velocity": 96}, {"time": 1732, "pitch": 71, "duration": 6, "velocity": 95}, {"time": 1738, "pitch": 50, "duration": 11, "velocity": 62}, {"time": 1741, "pitch": 55, "duration": 4, "velocity": 86}, {"time": 1744, "pitch": 67, "duration": 5, "velocity": 122}, {"time": 1744, "pitch": 71, "duration": 6, "velocity": 122}, {"time": 1747, "pitch": 55, "duration": 2, "velocity": 107}, {"time": 1750, "pitch": 62, "duration": 2, "velocity": 102}, {"time": 1756, "pitch": 45, "duration": 40, "velocity": 77}, {"time": 1756, "pitch": 57, "duration": 8, "velocity": 102}, {"time": 1756, "pitch": 60, "duration": 7, "velocity": 97}, {"time": 1756, "pitch": 64, "duration": 7, "velocity": 96}, {"time": 1762, "pitch": 52, "duration": 8, "velocity": 69}, {"time": 1768, "pitch": 57, "duration": 1, "velocity": 99}, {"time": 1768, "pitch": 60, "duration": 1, "velocity": 99}, {"time": 1768, "pitch": 64, "duration": 2, "velocity": 96}, {"time": 1774, "pitch": 52, "duration": 6, "velocity": 52}, {"time": 1777, "pitch": 57, "duration": 1, "velocity": 99}, {"time": 1777, "pitch": 60, "duration": 1, "velocity": 102}, {"time": 1777, "pitch": 64, "duration": 1, "velocity": 96}, {"time": 1780, "pitch": 52, "duration": 4, "velocity": 41}, {"time": 1783, "pitch": 57, "duration": 1, "velocity": 86}, {"time": 1783, "pitch": 60, "duration": 1, "velocity": 93}, {"time": 1783, "pitch": 64, "duration": 1, "velocity": 82}, {"time": 1789, "pitch": 52, "duration": 4, "velocity": 79}, {"time": 1792, "pitch": 57, "duration": 3, "velocity": 89}, {"time": 1792, "pitch": 60, "duration": 2, "velocity": 97}, {"time": 1792, "pitch": 64, "duration": 3, "velocity": 93}, {"time": 1795, "pitch": 52, "duration": 2, "velocity": 92}, {"time": 1798, "pitch": 60, "duration": 2, "velocity": 100}, {"time": 1798, "pitch": 64, "duration": 2, "velocity": 90}, {"time": 1801, "pitch": 57, "duration": 2, "velocity": 75}, {"time": 1804, "pitch": 38, "duration": 13, "velocity": 66}, {"time": 1804, "pitch": 45, "duration": 14, "velocity": 100}, {"time": 1804, "pitch": 50, "duration": 13, "velocity": 95}, {"time": 1804, "pitch": 57, "duration": 10, "velocity": 107}, {"time": 1804, "pitch": 62, "duration": 10, "velocity": 102}, {"time": 1804, "pitch": 66, "duration": 10, "velocity": 107}, {"time": 1816, "pitch": 62, "duration": 4, "velocity": 122}, {"time": 1816, "pitch": 66, "duration": 4, "velocity": 127}, {"time": 1819, "pitch": 38, "duration": 7, "velocity": 69}, {"time": 1819, "pitch": 45, "duration": 8, "velocity": 92}, {"time": 1819, "pitch": 50, "duration": 7, "velocity": 92}, {"time": 1822, "pitch": 62, "duration": 2, "velocity": 107}, {"time": 1822, "pitch": 66, "duration": 4, "velocity": 127}, {"time": 1825, "pitch": 57, "duration": 2, "velocity": 88}, {"time": 1825, "pitch": 62, "duration": 1, "velocity": 42}, {"time": 1828, "pitch": 38, "duration": 24, "velocity": 85}, {"time": 1828, "pitch": 45, "duration": 24, "velocity": 102}, {"time": 1828, "pitch": 50, "duration": 23, "velocity": 95}, {"time": 1828, "pitch": 57, "duration": 24, "velocity": 107}, {"time": 1828, "pitch": 62, "duration": 24, "velocity": 102}, {"time": 1828, "pitch": 66, "duration": 24, "velocity": 112}, {"time": 1852, "pitch": 43, "duration": 17, "velocity": 69}, {"time": 1852, "pitch": 62, "duration": 18, "velocity": 90}, {"time": 1852, "pitch": 67, "duration": 17, "velocity": 82}, {"time": 1852, "pitch": 71, "duration": 17, "velocity": 77}, {"time": 1876, "pitch": 42, "duration": 14, "velocity": 58}, {"time": 1876, "pitch": 62, "duration": 15, "velocity": 74}, {"time": 1876, "pitch": 66, "duration": 15, "velocity": 69}, {"time": 1876, "pitch": 69, "duration": 15, "velocity": 67}, {"time": 1900, "pitch": 40, "duration": 40, "velocity": 58}, {"time": 1900, "pitch": 64, "duration": 10, "velocity": 58}, {"time": 1900, "pitch": 67, "duration": 10, "velocity": 63}, {"time": 1900, "pitch": 71, "duration": 10, "velocity": 65}, {"time": 1912, "pitch": 64, "duration": 2, "velocity": 45}, {"time": 1912, "pitch": 67, "duration": 2, "velocity": 50}, {"time": 1912, "pitch": 71, "duration": 2, "velocity": 47}, {"time": 1921, "pitch": 52, "duration": 4, "velocity": 59}, {"time": 1924, "pitch": 64, "duration": 2, "velocity": 71}, {"time": 1924, "pitch": 67, "duration": 2, "velocity": 72}, {"time": 1924, "pitch": 71, "duration": 2, "velocity": 72}, {"time": 1927, "pitch": 52, "duration": 3, "velocity": 55}, {"time": 1933, "pitch": 52, "duration": 4, "velocity": 53}, {"time": 1936, "pitch": 67, "duration": 6, "velocity": 95}, {"time": 1936, "pitch": 71, "duration": 6, "velocity": 95}, {"time": 1939, "pitch": 52, "duration": 2, "velocity": 66}, {"time": 1942, "pitch": 64, "duration": 1, "velocity": 92}, {"time": 1948, "pitch": 48, "duration": 23, "velocity": 65}, {"time": 1948, "pitch": 60, "duration": 6, "velocity": 92}, {"time": 1948, "pitch": 64, "duration": 7, "velocity": 76}, {"time": 1948, "pitch": 67, "duration": 7, "velocity": 76}, {"time": 1960, "pitch": 64, "duration": 4, "velocity": 88}, {"time": 1960, "pitch": 67, "duration": 5, "velocity": 85}, {"time": 1969, "pitch": 55, "duration": 4, "velocity": 53}, {"time": 1972, "pitch": 50, "duration": 14, "velocity": 59}, {"time": 1972, "pitch": 62, "duration": 8, "velocity": 79}, {"time": 1972, "pitch": 66, "duration": 7, "velocity": 85}, {"time": 1972, "pitch": 69, "duration": 8, "velocity": 69}, {"time": 1984, "pitch": 66, "duration": 7, "velocity": 107}, {"time": 1984, "pitch": 69, "duration": 7, "velocity": 81}, {"time": 1990, "pitch": 62, "duration": 2, "velocity": 67}, {"time": 1996, "pitch": 43, "duration": 40, "velocity": 66}, {"time": 1996, "pitch": 62, "duration": 6, "velocity": 90}, {"time": 1996, "pitch": 67, "duration": 6, "velocity": 86}, {"time": 1996, "pitch": 71, "duration": 6, "velocity": 77}, {"time": 2008, "pitch": 62, "duration": 2, "velocity": 78}, {"time": 2008, "pitch": 67, "duration": 2, "velocity": 90}, {"time": 2008, "pitch": 71, "duration": 2, "velocity": 75}, {"time": 2017, "pitch": 62, "duration": 2, "velocity": 56}, {"time": 2020, "pitch": 55, "duration": 13, "velocity": 55}, {"time": 2020, "pitch": 62, "duration": 11, "velocity": 63}, {"time": 2020, "pitch": 65, "duration": 11, "velocity": 85}, {"time": 2020, "pitch": 67, "duration": 11, "velocity": 79}, {"time": 2020, "pitch": 71, "duration": 11, "velocity": 73}, {"time": 2032, "pitch": 65, "duration": 6, "velocity": 92}, {"time": 2032, "pitch": 67, "duration": 6, "velocity": 99}, {"time": 2032, "pitch": 71, "duration": 6, "velocity": 96}, {"time": 2035, "pitch": 55, "duration": 1, "velocity": 75}, {"time": 2038, "pitch": 62, "duration": 1, "velocity": 92}, {"time": 2044, "pitch": 48, "duration": 16, "velocity": 72}, {"time": 2044, "pitch": 60, "duration": 8, "velocity": 89}, {"time": 2044, "pitch": 64, "duration": 10, "velocity": 76}, {"time": 2044, "pitch": 67, "duration": 10, "velocity": 72}, {"time": 2044, "pitch": 71, "duration": 9, "velocity": 70}, {"time": 2056, "pitch": 64, "duration": 6, "velocity": 93}, {"time": 2056, "pitch": 67, "duration": 6, "velocity": 92}, {"time": 2056, "pitch": 71, "duration": 6, "velocity": 78}, {"time": 2059, "pitch": 55, "duration": 2, "velocity": 79}, {"time": 2062, "pitch": 60, "duration": 2, "velocity": 83}, {"time": 2068, "pitch": 50, "duration": 16, "velocity": 70}, {"time": 2068, "pitch": 57, "duration": 13, "velocity": 61}, {"time": 2068, "pitch": 62, "duration": 8, "velocity": 89}, {"time": 2068, "pitch": 66, "duration": 8, "velocity": 96}, {"time": 2068, "pitch": 69, "duration": 8, "velocity": 79}, {"time": 2077, "pitch": 66, "duration": 1, "velocity": 26}, {"time": 2080, "pitch": 66, "duration": 6, "velocity": 127}, {"time": 2080, "pitch": 69, "duration": 7, "velocity": 93}, {"time": 2083, "pitch": 57, "duration": 2, "velocity": 72}, {"time": 2086, "pitch": 62, "duration": 2, "velocity": 95}, {"time": 2092, "pitch": 43, "duration": 6, "velocity": 71}, {"time": 2092, "pitch": 62, "duration": 12, "velocity": 92}, {"time": 2092, "pitch": 67, "duration": 9, "velocity": 93}, {"time": 2092, "pitch": 71, "duration": 7, "velocity": 90}, {"time": 2104, "pitch": 42, "duration": 4, "velocity": 62}, {"time": 2104, "pitch": 66, "duration": 6, "velocity": 93}, {"time": 2104, "pitch": 69, "duration": 6, "velocity": 72}, {"time": 2116, "pitch": 40, "duration": 16, "velocity": 71}, {"time": 2116, "pitch": 64, "duration": 7, "velocity": 77}, {"time": 2116, "pitch": 67, "duration": 7, "velocity": 76}, {"time": 2116, "pitch": 71, "duration": 8, "velocity": 76}, {"time": 2122, "pitch": 52, "duration": 6, "velocity": 30}, {"time": 2128, "pitch": 67, "duration": 6, "velocity": 100}, {"time": 2128, "pitch": 71, "duration": 6, "velocity": 97}, {"time": 2131, "pitch": 52, "duration": 2, "velocity": 75}, {"time": 2134, "pitch": 62, "duration": 3, "velocity": 86}, {"time": 2137, "pitch": 64, "duration": 3, "velocity": 50}, {"time": 2140, "pitch": 48, "duration": 18, "velocity": 67}, {"time": 2140, "pitch": 60, "duration": 7, "velocity": 89}, {"time": 2140, "pitch": 64, "duration": 7, "velocity": 72}, {"time": 2140, "pitch": 67, "duration": 7, "velocity": 77}, {"time": 2149, "pitch": 64, "duration": 1, "velocity": 25}, {"time": 2152, "pitch": 64, "duration": 7, "velocity": 95}, {"time": 2152, "pitch": 67, "duration": 7, "velocity": 90}, {"time": 2155, "pitch": 55, "duration": 3, "velocity": 52}, {"time": 2158, "pitch": 60, "duration": 2, "velocity": 86}, {"time": 2164, "pitch": 50, "duration": 17, "velocity": 75}, {"time": 2164, "pitch": 57, "duration": 13, "velocity": 75}, {"time": 2164, "pitch": 62, "duration": 9, "velocity": 90}, {"time": 2164, "pitch": 66, "duration": 10, "velocity": 95}, {"time": 2164, "pitch": 69, "duration": 9, "velocity": 79}, {"time": 2176, "pitch": 66, "duration": 7, "velocity": 112}, {"time": 2176, "pitch": 69, "duration": 7, "velocity": 81}, {"time": 2179, "pitch": 57, "duration": 2, "velocity": 62}, {"time": 2182, "pitch": 62, "duration": 2, "velocity": 86}, {"time": 2188, "pitch": 40, "duration": 9, "velocity": 86}, {"time": 2188, "pitch": 64, "duration": 4, "velocity": 79}, {"time": 2188, "pitch": 67, "duration": 4, "velocity": 83}, {"time": 2188, "pitch": 71, "duration": 4, "velocity": 85}, {"time": 2194, "pitch": 52, "duration": 4, "velocity": 52}, {"time": 2194, "pitch": 64, "duration": 3, "velocity": 62}, {"time": 2194, "pitch": 67, "duration": 2, "velocity": 69}, {"time": 2194, "pitch": 71, "duration": 3, "velocity": 69}, {"time": 2200, "pitch": 40, "duration": 3, "velocity": 71}, {"time": 2200, "pitch": 52, "duration": 3, "velocity": 89}, {"time": 2200, "pitch": 64, "duration": 4, "velocity": 85}, {"time": 2200, "pitch": 67, "duration": 4, "velocity": 85}, {"time": 2206, "pitch": 40, "duration": 4, "velocity": 70}, {"time": 2206, "pitch": 52, "duration": 3, "velocity": 86}, {"time": 2206, "pitch": 59, "duration": 3, "velocity": 86}, {"time": 2206, "pitch": 64, "duration": 3, "velocity": 90}, {"time": 2206, "pitch": 67, "duration": 4, "velocity": 85}, {"time": 2212, "pitch": 40, "duration": 4, "velocity": 76}, {"time": 2212, "pitch": 52, "duration": 4, "velocity": 97}, {"time": 2212, "pitch": 59, "duration": 3, "velocity": 95}, {"time": 2212, "pitch": 64, "duration": 4, "velocity": 96}, {"time": 2212, "pitch": 67, "duration": 4, "velocity": 90}, {"time": 2218, "pitch": 40, "duration": 3, "velocity": 73}, {"time": 2218, "pitch": 52, "duration": 2, "velocity": 85}, {"time": 2218, "pitch": 59, "duration": 2, "velocity": 90}, {"time": 2218, "pitch": 64, "duration": 2, "velocity": 90}, {"time": 2218, "pitch": 67, "duration": 2, "velocity": 86}, {"time": 2224, "pitch": 40, "duration": 4, "velocity": 79}, {"time": 2224, "pitch": 52, "duration": 4, "velocity": 100}, {"time": 2224, "pitch": 59, "duration": 2, "velocity": 93}, {"time": 2224, "pitch": 64, "duration": 4, "velocity": 95}, {"time": 2224, "pitch": 67, "duration": 4, "velocity": 92}, {"time": 2230, "pitch": 40, "duration": 4, "velocity": 88}, {"time": 2230, "pitch": 52, "duration": 4, "velocity": 102}, {"time": 2230, "pitch": 59, "duration": 4, "velocity": 97}, {"time": 2230, "pitch": 64, "duration": 4, "velocity": 96}, {"time": 2230, "pitch": 67, "duration": 4, "velocity": 96}, {"time": 2236, "pitch": 36, "duration": 4, "velocity": 112}, {"time": 2236, "pitch": 48, "duration": 14, "velocity": 72}, {"time": 2236, "pitch": 60, "duration": 5, "velocity": 95}, {"time": 2236, "pitch": 64, "duration": 5, "velocity": 93}, {"time": 2236, "pitch": 67, "duration": 5, "velocity": 86}, {"time": 2242, "pitch": 36, "duration": 3, "velocity": 95}, {"time": 2248, "pitch": 36, "duration": 2, "velocity": 112}, {"time": 2248, "pitch": 60, "duration": 2, "velocity": 102}, {"time": 2248, "pitch": 64, "duration": 1, "velocity": 100}, {"time": 2248, "pitch": 67, "duration": 2, "velocity": 95}, {"time": 2254, "pitch": 36, "duration": 3, "velocity": 93}, {"time": 2257, "pitch": 48, "duration": 2, "velocity": 78}, {"time": 2257, "pitch": 55, "duration": 2, "velocity": 85}, {"time": 2260, "pitch": 38, "duration": 2, "velocity": 112}, {"time": 2260, "pitch": 50, "duration": 14, "velocity": 127}, {"time": 2260, "pitch": 62, "duration": 4, "velocity": 89}, {"time": 2260, "pitch": 66, "duration": 4, "velocity": 102}, {"time": 2260, "pitch": 69, "duration": 4, "velocity": 96}, {"time": 2266, "pitch": 38, "duration": 2, "velocity": 95}, {"time": 2266, "pitch": 62, "duration": 1, "velocity": 79}, {"time": 2266, "pitch": 66, "duration": 1, "velocity": 96}, {"time": 2266, "pitch": 69, "duration": 1, "velocity": 79}, {"time": 2272, "pitch": 38, "duration": 2, "velocity": 107}, {"time": 2272, "pitch": 66, "duration": 4, "velocity": 127}, {"time": 2272, "pitch": 69, "duration": 4, "velocity": 102}, {"time": 2275, "pitch": 50, "duration": 1, "velocity": 100}, {"time": 2278, "pitch": 38, "duration": 4, "velocity": 112}, {"time": 2278, "pitch": 66, "duration": 2, "velocity": 127}, {"time": 2278, "pitch": 69, "duration": 1, "velocity": 75}, {"time": 2281, "pitch": 62, "duration": 2, "velocity": 82}, {"time": 2284, "pitch": 43, "duration": 3, "velocity": 100}, {"time": 2284, "pitch": 55, "duration": 3, "velocity": 100}, {"time": 2284, "pitch": 62, "duration": 4, "velocity": 107}, {"time": 2284, "pitch": 67, "duration": 7, "velocity": 107}, {"time": 2284, "pitch": 71, "duration": 8, "velocity": 112}, {"time": 2290, "pitch": 43, "duration": 4, "velocity": 99}, {"time": 2290, "pitch": 55, "duration": 4, "velocity": 99}, {"time": 2290, "pitch": 62, "duration": 5, "velocity": 97}, {"time": 2293, "pitch": 67, "duration": 2, "velocity": 96}, {"time": 2296, "pitch": 42, "duration": 4, "velocity": 112}, {"time": 2296, "pitch": 54, "duration": 4, "velocity": 112}, {"time": 2296, "pitch": 66, "duration": 11, "velocity": 127}, {"time": 2296, "pitch": 69, "duration": 7, "velocity": 95}, {"time": 2302, "pitch": 42, "duration": 4, "velocity": 112}, {"time": 2302, "pitch": 54, "duration": 4, "velocity": 112}, {"time": 2308, "pitch": 40, "duration": 4, "velocity": 95}, {"time": 2308, "pitch": 64, "duration": 10, "velocity": 85}, {"time": 2308, "pitch": 67, "duration": 10, "velocity": 102}, {"time": 2308, "pitch": 71, "duration": 10, "velocity": 102}, {"time": 2314, "pitch": 40, "duration": 4, "velocity": 95}, {"time": 2314, "pitch": 47, "duration": 11, "velocity": 59}, {"time": 2317, "pitch": 52, "duration": 4, "velocity": 65}, {"time": 2320, "pitch": 40, "duration": 4, "velocity": 96}, {"time": 2320, "pitch": 64, "duration": 3, "velocity": 95}, {"time": 2320, "pitch": 67, "duration": 7, "velocity": 127}, {"time": 2320, "pitch": 71, "duration": 7, "velocity": 117}, {"time": 2323, "pitch": 52, "duration": 4, "velocity": 102}, {"time": 2326, "pitch": 40, "duration": 3, "velocity": 107}, {"time": 2326, "pitch": 62, "duration": 4, "velocity": 100}, {"time": 2332, "pitch": 36, "duration": 4, "velocity": 93}, {"time": 2332, "pitch": 48, "duration": 21, "velocity": 70}, {"time": 2332, "pitch": 60, "duration": 8, "velocity": 99}, {"time": 2332, "pitch": 64, "duration": 8, "velocity": 96}, {"time": 2332, "pitch": 67, "duration": 10, "velocity": 93}, {"time": 2338, "pitch": 36, "duration": 4, "velocity": 93}, {"time": 2344, "pitch": 36, "duration": 3, "velocity": 92}, {"time": 2344, "pitch": 60, "duration": 10, "velocity": 97}, {"time": 2344, "pitch": 64, "duration": 11, "velocity": 107}, {"time": 2344, "pitch": 67, "duration": 7, "velocity": 100}, {"time": 2350, "pitch": 36, "duration": 3, "velocity": 102}, {"time": 2353, "pitch": 55, "duration": 3, "velocity": 66}, {"time": 2356, "pitch": 38, "duration": 3, "velocity": 96}, {"time": 2356, "pitch": 50, "duration": 17, "velocity": 99}, {"time": 2356, "pitch": 62, "duration": 9, "velocity": 97}, {"time": 2356, "pitch": 66, "duration": 10, "velocity": 112}, {"time": 2356, "pitch": 69, "duration": 10, "velocity": 97}, {"time": 2362, "pitch": 38, "duration": 3, "velocity": 95}, {"time": 2362, "pitch": 57, "duration": 7, "velocity": 82}, {"time": 2368, "pitch": 38, "duration": 3, "velocity": 100}, {"time": 2368, "pitch": 66, "duration": 6, "velocity": 127}, {"time": 2368, "pitch": 69, "duration": 7, "velocity": 112}, {"time": 2371, "pitch": 57, "duration": 2, "velocity": 93}, {"time": 2374, "pitch": 38, "duration": 3, "velocity": 112}, {"time": 2374, "pitch": 62, "duration": 3, "velocity": 100}, {"time": 2377, "pitch": 67, "duration": 1, "velocity": 33}, {"time": 2380, "pitch": 40, "duration": 4, "velocity": 100}, {"time": 2380, "pitch": 64, "duration": 7, "velocity": 99}, {"time": 2380, "pitch": 67, "duration": 6, "velocity": 117}, {"time": 2380, "pitch": 71, "duration": 7, "velocity": 102}, {"time": 2386, "pitch": 40, "duration": 3, "velocity": 92}, {"time": 2386, "pitch": 47, "duration": 8, "velocity": 58}, {"time": 2389, "pitch": 52, "duration": 4, "velocity": 43}, {"time": 2392, "pitch": 40, "duration": 2, "velocity": 117}, {"time": 2392, "pitch": 64, "duration": 1, "velocity": 100}, {"time": 2392, "pitch": 67, "duration": 1, "velocity": 117}, {"time": 2392, "pitch": 71, "duration": 1, "velocity": 112}, {"time": 2398, "pitch": 40, "duration": 2, "velocity": 107}, {"time": 2398, "pitch": 47, "duration": 17, "velocity": 69}, {"time": 2398, "pitch": 52, "duration": 5, "velocity": 76}, {"time": 2401, "pitch": 64, "duration": 2, "velocity": 100}, {"time": 2401, "pitch": 67, "duration": 1, "velocity": 112}, {"time": 2401, "pitch": 71, "duration": 2, "velocity": 100}, {"time": 2404, "pitch": 40, "duration": 2, "velocity": 99}, {"time": 2404, "pitch": 52, "duration": 5, "velocity": 77}, {"time": 2407, "pitch": 64, "duration": 2, "velocity": 95}, {"time": 2407, "pitch": 67, "duration": 2, "velocity": 96}, {"time": 2407, "pitch": 71, "duration": 2, "velocity": 86}, {"time": 2410, "pitch": 40, "duration": 2, "velocity": 112}, {"time": 2410, "pitch": 52, "duration": 2, "velocity": 46}, {"time": 2413, "pitch": 64, "duration": 1, "velocity": 95}, {"time": 2413, "pitch": 67, "duration": 1, "velocity": 95}, {"time": 2413, "pitch": 71, "duration": 2, "velocity": 92}, {"time": 2416, "pitch": 40, "duration": 2, "velocity": 42}, {"time": 2416, "pitch": 40, "duration": 2, "velocity": 117}, {"time": 2416, "pitch": 47, "duration": 2, "velocity": 65}, {"time": 2416, "pitch": 52, "duration": 2, "velocity": 99}, {"time": 2416, "pitch": 64, "duration": 3, "velocity": 96}, {"time": 2416, "pitch": 67, "duration": 3, "velocity": 107}, {"time": 2416, "pitch": 71, "duration": 4, "velocity": 100}, {"time": 2419, "pitch": 40, "duration": 2, "velocity": 112}, {"time": 2422, "pitch": 40, "duration": 2, "velocity": 107}, {"time": 2422, "pitch": 64, "duration": 2, "velocity": 100}, {"time": 2422, "pitch": 67, "duration": 1, "velocity": 79}, {"time": 2422, "pitch": 71, "duration": 1, "velocity": 59}, {"time": 2425, "pitch": 40, "duration": 1, "velocity": 117}, {"time": 2428, "pitch": 33, "duration": 4, "velocity": 97}, {"time": 2428, "pitch": 45, "duration": 17, "velocity": 68}, {"time": 2428, "pitch": 57, "duration": 4, "velocity": 99}, {"time": 2428, "pitch": 61, "duration": 5, "velocity": 122}, {"time": 2428, "pitch": 64, "duration": 5, "velocity": 95}, {"time": 2431, "pitch": 61, "duration": 2, "velocity": 97}, {"time": 2434, "pitch": 33, "duration": 3, "velocity": 102}, {"time": 2434, "pitch": 52, "duration": 7, "velocity": 40}, {"time": 2434, "pitch": 57, "duration": 5, "velocity": 90}, {"time": 2434, "pitch": 64, "duration": 5, "velocity": 89}, {"time": 2440, "pitch": 33, "duration": 3, "velocity": 97}, {"time": 2440, "pitch": 57, "duration": 2, "velocity": 97}, {"time": 2440, "pitch": 61, "duration": 4, "velocity": 112}, {"time": 2440, "pitch": 61, "duration": 4, "velocity": 122}, {"time": 2440, "pitch": 64, "duration": 4, "velocity": 96}, {"time": 2440, "pitch": 64, "duration": 4, "velocity": 97}, {"time": 2443, "pitch": 52, "duration": 2, "velocity": 97}, {"time": 2446, "pitch": 33, "duration": 3, "velocity": 99}, {"time": 2446, "pitch": 57, "duration": 3, "velocity": 58}, {"time": 2446, "pitch": 57, "duration": 3, "velocity": 90}, {"time": 2449, "pitch": 61, "duration": 2, "velocity": 81}, {"time": 2452, "pitch": 32, "duration": 3, "velocity": 107}, {"time": 2452, "pitch": 44, "duration": 20, "velocity": 127}, {"time": 2452, "pitch": 61, "duration": 6, "velocity": 112}, {"time": 2458, "pitch": 32, "duration": 3, "velocity": 112}, {"time": 2458, "pitch": 56, "duration": 7, "velocity": 75}, {"time": 2464, "pitch": 32, "duration": 3, "velocity": 122}, {"time": 2464, "pitch": 61, "duration": 4, "velocity": 122}, {"time": 2464, "pitch": 64, "duration": 4, "velocity": 100}, {"time": 2467, "pitch": 56, "duration": 1, "velocity": 72}, {"time": 2470, "pitch": 32, "duration": 4, "velocity": 122}, {"time": 2470, "pitch": 64, "duration": 5, "velocity": 56}, {"time": 2473, "pitch": 61, "duration": 2, "velocity": 72}, {"time": 2476, "pitch": 30, "duration": 4, "velocity": 112}, {"time": 2476, "pitch": 42, "duration": 40, "velocity": 127}, {"time": 2476, "pitch": 57, "duration": 6, "velocity": 112}, {"time": 2476, "pitch": 61, "duration": 7, "velocity": 107}, {"time": 2482, "pitch": 30, "duration": 4, "velocity": 112}, {"time": 2482, "pitch": 54, "duration": 8, "velocity": 55}, {"time": 2488, "pitch": 30, "duration": 4, "velocity": 107}, {"time": 2488, "pitch": 57, "duration": 2, "velocity": 107}, {"time": 2488, "pitch": 61, "duration": 2, "velocity": 127}, {"time": 2488, "pitch": 66, "duration": 2, "velocity": 122}, {"time": 2494, "pitch": 30, "duration": 3, "velocity": 96}, {"time": 2494, "pitch": 54, "duration": 10, "velocity": 81}, {"time": 2497, "pitch": 57, "duration": 1, "velocity": 93}, {"time": 2497, "pitch": 61, "duration": 1, "velocity": 117}, {"time": 2497, "pitch": 66, "duration": 1, "velocity": 99}, {"time": 2500, "pitch": 30, "duration": 3, "velocity": 99}, {"time": 2503, "pitch": 57, "duration": 4, "velocity": 90}, {"time": 2503, "pitch": 61, "duration": 6, "velocity": 117}, {"time": 2503, "pitch": 66, "duration": 6, "velocity": 99}, {"time": 2506, "pitch": 30, "duration": 4, "velocity": 100}, {"time": 2509, "pitch": 54, "duration": 4, "velocity": 77}, {"time": 2512, "pitch": 30, "duration": 3, "velocity": 102}, {"time": 2512, "pitch": 57, "duration": 3, "velocity": 92}, {"time": 2512, "pitch": 61, "duration": 3, "velocity": 122}, {"time": 2512, "pitch": 66, "duration": 4, "velocity": 122}, {"time": 2515, "pitch": 54, "duration": 1, "velocity": 100}, {"time": 2518, "pitch": 30, "duration": 3, "velocity": 122}, {"time": 2518, "pitch": 61, "duration": 3, "velocity": 127}, {"time": 2518, "pitch": 66, "duration": 2, "velocity": 97}, {"time": 2521, "pitch": 57, "duration": 1, "velocity": 72}, {"time": 2524, "pitch": 38, "duration": 4, "velocity": 99}, {"time": 2524, "pitch": 57, "duration": 6, "velocity": 117}, {"time": 2524, "pitch": 62, "duration": 6, "velocity": 102}, {"time": 2524, "pitch": 66, "duration": 6, "velocity": 112}, {"time": 2530, "pitch": 38, "duration": 4, "velocity": 100}, {"time": 2530, "pitch": 50, "duration": 6, "velocity": 45}, {"time": 2536, "pitch": 38, "duration": 3, "velocity": 112}, {"time": 2536, "pitch": 57, "duration": 2, "velocity": 100}, {"time": 2536, "pitch": 62, "duration": 4, "velocity": 127}, {"time": 2536, "pitch": 66, "duration": 4, "velocity": 127}, {"time": 2539, "pitch": 50, "duration": 2, "velocity": 95}, {"time": 2542, "pitch": 38, "duration": 4, "velocity": 107}, {"time": 2542, "pitch": 62, "duration": 1, "velocity": 99}, {"time": 2542, "pitch": 66, "duration": 1, "velocity": 100}, {"time": 2548, "pitch": 40, "duration": 4, "velocity": 127}, {"time": 2548, "pitch": 59, "duration": 6, "velocity": 102}, {"time": 2548, "pitch": 64, "duration": 7, "velocity": 107}, {"time": 2548, "pitch": 68, "duration": 7, "velocity": 112}, {"time": 2554, "pitch": 40, "duration": 4, "velocity": 117}, {"time": 2554, "pitch": 52, "duration": 7, "velocity": 82}, {"time": 2560, "pitch": 40, "duration": 3, "velocity": 127}, {"time": 2560, "pitch": 59, "duration": 3, "velocity": 96}, {"time": 2560, "pitch": 64, "duration": 6, "velocity": 117}, {"time": 2560, "pitch": 68, "duration": 6, "velocity": 122}, {"time": 2563, "pitch": 52, "duration": 3, "velocity": 93}, {"time": 2566, "pitch": 40, "duration": 4, "velocity": 127}, {"time": 2566, "pitch": 59, "duration": 2, "velocity": 93}, {"time": 2569, "pitch": 61, "duration": 1, "velocity": 50}, {"time": 2572, "pitch": 33, "duration": 4, "velocity": 102}, {"time": 2572, "pitch": 45, "duration": 7, "velocity": 97}, {"time": 2572, "pitch": 57, "duration": 2, "velocity": 100}, {"time": 2572, "pitch": 61, "duration": 6, "velocity": 127}, {"time": 2572, "pitch": 64, "duration": 8, "velocity": 97}, {"time": 2578, "pitch": 33, "duration": 4, "velocity": 100}, {"time": 2578, "pitch": 57, "duration": 3, "velocity": 97}, {"time": 2581, "pitch": 61, "duration": 2, "velocity": 99}, {"time": 2584, "pitch": 32, "duration": 4, "velocity": 102}, {"time": 2584, "pitch": 44, "duration": 6, "velocity": 112}, {"time": 2584, "pitch": 56, "duration": 4, "velocity": 107}, {"time": 2590, "pitch": 32, "duration": 4, "velocity": 100}, {"time": 2590, "pitch": 61, "duration": 2, "velocity": 93}, {"time": 2593, "pitch": 61, "duration": 1, "velocity": 90}, {"time": 2596, "pitch": 30, "duration": 4, "velocity": 102}, {"time": 2596, "pitch": 42, "duration": 16, "velocity": 107}, {"time": 2596, "pitch": 54, "duration": 12, "velocity": 92}, {"time": 2596, "pitch": 57, "duration": 10, "velocity": 102}, {"time": 2596, "pitch": 61, "duration": 7, "velocity": 122}, {"time": 2602, "pitch": 30, "duration": 4, "velocity": 95}, {"time": 2605, "pitch": 61, "duration": 1, "velocity": 34}, {"time": 2608, "pitch": 30, "duration": 4, "velocity": 102}, {"time": 2608, "pitch": 61, "duration": 5, "velocity": 117}, {"time": 2608, "pitch": 66, "duration": 8, "velocity": 117}, {"time": 2611, "pitch": 54, "duration": 2, "velocity": 99}, {"time": 2614, "pitch": 30, "duration": 4, "velocity": 112}, {"time": 2614, "pitch": 57, "duration": 4, "velocity": 117}, {"time": 2617, "pitch": 61, "duration": 2, "velocity": 112}, {"time": 2620, "pitch": 38, "duration": 4, "velocity": 122}, {"time": 2620, "pitch": 57, "duration": 8, "velocity": 99}, {"time": 2620, "pitch": 62, "duration": 8, "velocity": 102}, {"time": 2620, "pitch": 66, "duration": 8, "velocity": 107}, {"time": 2626, "pitch": 38, "duration": 4, "velocity": 99}, {"time": 2626, "pitch": 50, "duration": 7, "velocity": 44}, {"time": 2629, "pitch": 62, "duration": 1, "velocity": 32}, {"time": 2632, "pitch": 38, "duration": 4, "velocity": 127}, {"time": 2632, "pitch": 62, "duration": 6, "velocity": 122}, {"time": 2632, "pitch": 66, "duration": 7, "velocity": 127}, {"time": 2635, "pitch": 50, "duration": 2, "velocity": 70}, {"time": 2638, "pitch": 38, "duration": 4, "velocity": 107}, {"time": 2638, "pitch": 57, "duration": 2, "velocity": 96}, {"time": 2644, "pitch": 40, "duration": 4, "velocity": 127}, {"time": 2644, "pitch": 59, "duration": 8, "velocity": 102}, {"time": 2644, "pitch": 64, "duration": 10, "velocity": 100}, {"time": 2644, "pitch": 68, "duration": 10, "velocity": 117}, {"time": 2650, "pitch": 40, "duration": 4, "velocity": 117}, {"time": 2650, "pitch": 52, "duration": 7, "velocity": 66}, {"time": 2656, "pitch": 40, "duration": 3, "velocity": 127}, {"time": 2656, "pitch": 64, "duration": 7, "velocity": 117}, {"time": 2656, "pitch": 68, "duration": 7, "velocity": 127}, {"time": 2659, "pitch": 52, "duration": 5, "velocity": 89}, {"time": 2662, "pitch": 40, "duration": 3, "velocity": 127}, {"time": 2662, "pitch": 59, "duration": 4, "velocity": 102}, {"time": 2668, "pitch": 33, "duration": 3, "velocity": 107}, {"time": 2668, "pitch": 45, "duration": 6, "velocity": 102}, {"time": 2668, "pitch": 61, "duration": 6, "velocity": 122}, {"time": 2668, "pitch": 64, "duration": 8, "velocity": 99}, {"time": 2674, "pitch": 33, "duration": 3, "velocity": 99}, {"time": 2674, "pitch": 57, "duration": 4, "velocity": 95}, {"time": 2677, "pitch": 61, "duration": 3, "velocity": 100}, {"time": 2680, "pitch": 32, "duration": 4, "velocity": 117}, {"time": 2680, "pitch": 44, "duration": 6, "velocity": 117}, {"time": 2680, "pitch": 56, "duration": 5, "velocity": 97}, {"time": 2686, "pitch": 32, "duration": 4, "velocity": 112}, {"time": 2692, "pitch": 30, "duration": 4, "velocity": 112}, {"time": 2692, "pitch": 42, "duration": 17, "velocity": 102}, {"time": 2692, "pitch": 54, "duration": 13, "velocity": 99}, {"time": 2692, "pitch": 57, "duration": 10, "velocity": 99}, {"time": 2692, "pitch": 61, "duration": 7, "velocity": 112}, {"time": 2698, "pitch": 30, "duration": 4, "velocity": 100}, {"time": 2704, "pitch": 30, "duration": 4, "velocity": 102}, {"time": 2704, "pitch": 61, "duration": 6, "velocity": 127}, {"time": 2704, "pitch": 66, "duration": 8, "velocity": 117}, {"time": 2707, "pitch": 54, "duration": 1, "velocity": 99}, {"time": 2710, "pitch": 30, "duration": 3, "velocity": 112}, {"time": 2710, "pitch": 57, "duration": 5, "velocity": 100}, {"time": 2716, "pitch": 38, "duration": 4, "velocity": 117}, {"time": 2716, "pitch": 50, "duration": 3, "velocity": 122}, {"time": 2716, "pitch": 57, "duration": 9, "velocity": 81}, {"time": 2716, "pitch": 62, "duration": 10, "velocity": 97}, {"time": 2716, "pitch": 66, "duration": 10, "velocity": 100}, {"time": 2722, "pitch": 38, "duration": 4, "velocity": 95}, {"time": 2722, "pitch": 50, "duration": 3, "velocity": 107}, {"time": 2728, "pitch": 38, "duration": 4, "velocity": 127}, {"time": 2728, "pitch": 50, "duration": 3, "velocity": 122}, {"time": 2728, "pitch": 57, "duration": 8, "velocity": 93}, {"time": 2728, "pitch": 62, "duration": 6, "velocity": 102}, {"time": 2728, "pitch": 66, "duration": 6, "velocity": 112}, {"time": 2734, "pitch": 38, "duration": 3, "velocity": 117}, {"time": 2734, "pitch": 50, "duration": 5, "velocity": 73}, {"time": 2740, "pitch": 40, "duration": 3, "velocity": 122}, {"time": 2740, "pitch": 59, "duration": 7, "velocity": 97}, {"time": 2740, "pitch": 64, "duration": 10, "velocity": 99}, {"time": 2740, "pitch": 68, "duration": 10, "velocity": 102}, {"time": 2746, "pitch": 40, "duration": 4, "velocity": 122}, {"time": 2746, "pitch": 52, "duration": 7, "velocity": 82}, {"time": 2752, "pitch": 40, "duration": 4, "velocity": 122}, {"time": 2752, "pitch": 64, "duration": 6, "velocity": 127}, {"time": 2752, "pitch": 68, "duration": 6, "velocity": 127}, {"time": 2755, "pitch": 52, "duration": 3, "velocity": 90}, {"time": 2758, "pitch": 40, "duration": 3, "velocity": 107}, {"time": 2758, "pitch": 59, "duration": 2, "velocity": 97}, {"time": 2764, "pitch": 30, "duration": 4, "velocity": 117}, {"time": 2764, "pitch": 42, "duration": 42, "velocity": 117}, {"time": 2764, "pitch": 57, "duration": 7, "velocity": 112}, {"time": 2764, "pitch": 61, "duration": 7, "velocity": 122}, {"time": 2770, "pitch": 30, "duration": 4, "velocity": 112}, {"time": 2770, "pitch": 54, "duration": 8, "velocity": 95}, {"time": 2773, "pitch": 57, "duration": 2, "velocity": 82}, {"time": 2773, "pitch": 61, "duration": 2, "velocity": 90}, {"time": 2773, "pitch": 66, "duration": 1, "velocity": 73}, {"time": 2776, "pitch": 30, "duration": 3, "velocity": 112}, {"time": 2776, "pitch": 57, "duration": 2, "velocity": 102}, {"time": 2776, "pitch": 61, "duration": 2, "velocity": 127}, {"time": 2776, "pitch": 66, "duration": 2, "velocity": 122}, {"time": 2782, "pitch": 30, "duration": 3, "velocity": 117}, {"time": 2782, "pitch": 54, "duration": 11, "velocity": 97}, {"time": 2785, "pitch": 57, "duration": 1, "velocity": 102}, {"time": 2785, "pitch": 61, "duration": 1, "velocity": 127}, {"time": 2785, "pitch": 66, "duration": 1, "velocity": 102}, {"time": 2788, "pitch": 30, "duration": 2, "velocity": 112}, {"time": 2791, "pitch": 57, "duration": 2, "velocity": 93}, {"time": 2791, "pitch": 61, "duration": 2, "velocity": 117}, {"time": 2791, "pitch": 66, "duration": 2, "velocity": 97}, {"time": 2794, "pitch": 30, "duration": 3, "velocity": 117}, {"time": 2797, "pitch": 54, "duration": 4, "velocity": 93}, {"time": 2800, "pitch": 30, "duration": 2, "velocity": 127}, {"time": 2800, "pitch": 57, "duration": 2, "velocity": 95}, {"time": 2800, "pitch": 61, "duration": 2, "velocity": 127}, {"time": 2800, "pitch": 66, "duration": 2, "velocity": 122}, {"time": 2803, "pitch": 30, "duration": 2, "velocity": 112}, {"time": 2803, "pitch": 54, "duration": 2, "velocity": 99}, {"time": 2806, "pitch": 30, "duration": 2, "velocity": 117}, {"time": 2806, "pitch": 61, "duration": 2, "velocity": 127}, {"time": 2806, "pitch": 66, "duration": 2, "velocity": 112}, {"time": 2809, "pitch": 30, "duration": 2, "velocity": 127}, {"time": 2809, "pitch": 57, "duration": 2, "velocity": 89}, {"time": 2812, "pitch": 38, "duration": 4, "velocity": 122}, {"time": 2812, "pitch": 50, "duration": 13, "velocity": 97}, {"time": 2812, "pitch": 57, "duration": 10, "velocity": 122}, {"time": 2812, "pitch": 62, "duration": 10, "velocity": 122}, {"time": 2812, "pitch": 66, "duration": 10, "velocity": 117}, {"time": 2818, "pitch": 38, "duration": 4, "velocity": 99}, {"time": 2824, "pitch": 38, "duration": 4, "velocity": 127}, {"time": 2824, "pitch": 57, "duration": 4, "velocity": 112}, {"time": 2824, "pitch": 62, "duration": 4, "velocity": 122}, {"time": 2824, "pitch": 66, "duration": 4, "velocity": 127}, {"time": 2827, "pitch": 50, "duration": 2, "velocity": 96}, {"time": 2830, "pitch": 38, "duration": 4, "velocity": 107}, {"time": 2830, "pitch": 62, "duration": 2, "velocity": 112}, {"time": 2830, "pitch": 66, "duration": 2, "velocity": 112}, {"time": 2836, "pitch": 40, "duration": 4, "velocity": 127}, {"time": 2836, "pitch": 52, "duration": 13, "velocity": 107}, {"time": 2836, "pitch": 59, "duration": 9, "velocity": 100}, {"time": 2836, "pitch": 64, "duration": 9, "velocity": 107}, {"time": 2836, "pitch": 68, "duration": 9, "velocity": 112}, {"time": 2842, "pitch": 40, "duration": 4, "velocity": 117}, {"time": 2848, "pitch": 40, "duration": 3, "velocity": 127}, {"time": 2848, "pitch": 59, "duration": 4, "velocity": 99}, {"time": 2848, "pitch": 64, "duration": 6, "velocity": 127}, {"time": 2848, "pitch": 68, "duration": 6, "velocity": 127}, {"time": 2851, "pitch": 52, "duration": 2, "velocity": 99}, {"time": 2854, "pitch": 40, "duration": 3, "velocity": 127}, {"time": 2854, "pitch": 59, "duration": 2, "velocity": 97}, {"time": 2860, "pitch": 33, "duration": 3, "velocity": 107}, {"time": 2860, "pitch": 45, "duration": 7, "velocity": 95}, {"time": 2860, "pitch": 57, "duration": 5, "velocity": 112}, {"time": 2860, "pitch": 61, "duration": 6, "velocity": 127}, {"time": 2860, "pitch": 64, "duration": 8, "velocity": 117}, {"time": 2866, "pitch": 33, "duration": 3, "velocity": 99}, {"time": 2866, "pitch": 57, "duration": 4, "velocity": 122}, {"time": 2869, "pitch": 61, "duration": 1, "velocity": 127}, {"time": 2872, "pitch": 32, "duration": 4, "velocity": 117}, {"time": 2872, "pitch": 44, "duration": 6, "velocity": 122}, {"time": 2872, "pitch": 56, "duration": 3, "velocity": 127}, {"time": 2878, "pitch": 32, "duration": 4, "velocity": 112}, {"time": 2878, "pitch": 61, "duration": 2, "velocity": 127}, {"time": 2881, "pitch": 57, "duration": 14, "velocity": 95}, {"time": 2884, "pitch": 30, "duration": 4, "velocity": 112}, {"time": 2884, "pitch": 42, "duration": 17, "velocity": 99}, {"time": 2884, "pitch": 54, "duration": 13, "velocity": 96}, {"time": 2884, "pitch": 61, "duration": 10, "velocity": 127}, {"time": 2884, "pitch": 66, "duration": 10, "velocity": 122}, {"time": 2890, "pitch": 30, "duration": 4, "velocity": 100}, {"time": 2896, "pitch": 30, "duration": 4, "velocity": 102}, {"time": 2896, "pitch": 61, "duration": 7, "velocity": 127}, {"time": 2896, "pitch": 66, "duration": 7, "velocity": 127}, {"time": 2899, "pitch": 54, "duration": 2, "velocity": 90}, {"time": 2902, "pitch": 30, "duration": 3, "velocity": 112}, {"time": 2902, "pitch": 57, "duration": 2, "velocity": 102}, {"time": 2908, "pitch": 38, "duration": 4, "velocity": 117}, {"time": 2908, "pitch": 57, "duration": 10, "velocity": 99}, {"time": 2908, "pitch": 62, "duration": 10, "velocity": 117}, {"time": 2908, "pitch": 66, "duration": 10, "velocity": 117}, {"time": 2914, "pitch": 38, "duration": 4, "velocity": 95}, {"time": 2920, "pitch": 38, "duration": 4, "velocity": 127}, {"time": 2920, "pitch": 50, "duration": 4, "velocity": 24}, {"time": 2920, "pitch": 57, "duration": 7, "velocity": 97}, {"time": 2920, "pitch": 62, "duration": 7, "velocity": 117}, {"time": 2920, "pitch": 66, "duration": 7, "velocity": 112}, {"time": 2926, "pitch": 38, "duration": 3, "velocity": 117}, {"time": 2926, "pitch": 50, "duration": 5, "velocity": 64}, {"time": 2929, "pitch": 59, "duration": 1, "velocity": 47}, {"time": 2932, "pitch": 40, "duration": 3, "velocity": 122}, {"time": 2932, "pitch": 59, "duration": 6, "velocity": 112}, {"time": 2932, "pitch": 64, "duration": 7, "velocity": 107}, {"time": 2932, "pitch": 68, "duration": 7, "velocity": 117}, {"time": 2938, "pitch": 40, "duration": 4, "velocity": 122}, {"time": 2938, "pitch": 52, "duration": 7, "velocity": 90}, {"time": 2944, "pitch": 40, "duration": 4, "velocity": 122}, {"time": 2944, "pitch": 59, "duration": 4, "velocity": 99}, {"time": 2944, "pitch": 64, "duration": 6, "velocity": 117}, {"time": 2944, "pitch": 68, "duration": 6, "velocity": 122}, {"time": 2947, "pitch": 52, "duration": 2, "velocity": 86}, {"time": 2950, "pitch": 40, "duration": 3, "velocity": 107}, {"time": 2950, "pitch": 59, "duration": 2, "velocity": 96}, {"time": 2956, "pitch": 30, "duration": 4, "velocity": 117}, {"time": 2956, "pitch": 42, "duration": 19, "velocity": 97}, {"time": 2956, "pitch": 54, "duration": 13, "velocity": 89}, {"time": 2956, "pitch": 57, "duration": 5, "velocity": 102}, {"time": 2956, "pitch": 61, "duration": 5, "velocity": 127}, {"time": 2956, "pitch": 66, "duration": 5, "velocity": 112}, {"time": 2962, "pitch": 30, "duration": 4, "velocity": 112}, {"time": 2962, "pitch": 57, "duration": 1, "velocity": 66}, {"time": 2962, "pitch": 61, "duration": 2, "velocity": 85}, {"time": 2962, "pitch": 66, "duration": 2, "velocity": 93}, {"time": 2968, "pitch": 30, "duration": 3, "velocity": 112}, {"time": 2968, "pitch": 61, "duration": 4, "velocity": 127}, {"time": 2968, "pitch": 66, "duration": 6, "velocity": 127}, {"time": 2971, "pitch": 54, "duration": 7, "velocity": 93}, {"time": 2974, "pitch": 30, "duration": 3, "velocity": 117}, {"time": 2974, "pitch": 57, "duration": 4, "velocity": 97}, {"time": 2974, "pitch": 66, "duration": 1, "velocity": 35}, {"time": 2977, "pitch": 61, "duration": 2, "velocity": 117}, {"time": 2980, "pitch": 30, "duration": 2, "velocity": 112}, {"time": 2980, "pitch": 42, "duration": 18, "velocity": 97}, {"time": 2980, "pitch": 54, "duration": 8, "velocity": 102}, {"time": 2980, "pitch": 57, "duration": 2, "velocity": 99}, {"time": 2980, "pitch": 61, "duration": 2, "velocity": 127}, {"time": 2980, "pitch": 66, "duration": 2, "velocity": 117}, {"time": 2983, "pitch": 57, "duration": 2, "velocity": 89}, {"time": 2983, "pitch": 61, "duration": 2, "velocity": 127}, {"time": 2983, "pitch": 66, "duration": 2, "velocity": 107}, {"time": 2986, "pitch": 30, "duration": 3, "velocity": 117}, {"time": 2989, "pitch": 54, "duration": 4, "velocity": 83}, {"time": 2992, "pitch": 30, "duration": 2, "velocity": 127}, {"time": 2992, "pitch": 57, "duration": 4, "velocity": 100}, {"time": 2992, "pitch": 61, "duration": 4, "velocity": 127}, {"time": 2992, "pitch": 66, "duration": 4, "velocity": 122}, {"time": 2995, "pitch": 30, "duration": 2, "velocity": 112}, {"time": 2995, "pitch": 54, "duration": 2, "velocity": 99}, {"time": 2998, "pitch": 30, "duration": 2, "velocity": 117}, {"time": 2998, "pitch": 61, "duration": 4, "velocity": 127}, {"time": 2998, "pitch": 66, "duration": 3, "velocity": 127}, {"time": 3001, "pitch": 30, "duration": 2, "velocity": 127}, {"time": 3001, "pitch": 57, "duration": 1, "velocity": 63}, {"time": 3004, "pitch": 26, "duration": 5, "velocity": 74}, {"time": 3004, "pitch": 38, "duration": 5, "velocity": 74}, {"time": 3004, "pitch": 50, "duration": 5, "velocity": 97}, {"time": 3004, "pitch": 57, "duration": 5, "velocity": 75}, {"time": 3004, "pitch": 62, "duration": 5, "velocity": 86}, {"time": 3004, "pitch": 66, "duration": 5, "velocity": 83}, {"time": 3010, "pitch": 26, "duration": 4, "velocity": 81}, {"time": 3010, "pitch": 38, "duration": 4, "velocity": 81}, {"time": 3010, "pitch": 50, "duration": 4, "velocity": 97}, {"time": 3010, "pitch": 57, "duration": 4, "velocity": 95}, {"time": 3010, "pitch": 62, "duration": 4, "velocity": 112}, {"time": 3010, "pitch": 66, "duration": 4, "velocity": 102}, {"time": 3016, "pitch": 26, "duration": 7, "velocity": 77}, {"time": 3016, "pitch": 38, "duration": 7, "velocity": 77}, {"time": 3016, "pitch": 50, "duration": 7, "velocity": 102}, {"time": 3016, "pitch": 57, "duration": 7, "velocity": 99}, {"time": 3016, "pitch": 62, "duration": 8, "velocity": 117}, {"time": 3016, "pitch": 66, "duration": 7, "velocity": 112}, {"time": 3028, "pitch": 28, "duration": 4, "velocity": 112}, {"time": 3028, "pitch": 40, "duration": 17, "velocity": 83}, {"time": 3028, "pitch": 52, "duration": 14, "velocity": 86}, {"time": 3028, "pitch": 59, "duration": 10, "velocity": 99}, {"time": 3028, "pitch": 64, "duration": 10, "velocity": 117}, {"time": 3028, "pitch": 68, "duration": 10, "velocity": 117}, {"time": 3034, "pitch": 28, "duration": 3, "velocity": 111}, {"time": 3040, "pitch": 28, "duration": 3, "velocity": 117}, {"time": 3040, "pitch": 59, "duration": 3, "velocity": 92}, {"time": 3040, "pitch": 64, "duration": 5, "velocity": 122}, {"time": 3040, "pitch": 68, "duration": 6, "velocity": 127}, {"time": 3043, "pitch": 52, "duration": 2, "velocity": 97}, {"time": 3046, "pitch": 28, "duration": 3, "velocity": 117}, {"time": 3046, "pitch": 59, "duration": 3, "velocity": 102}, {"time": 3049, "pitch": 61, "duration": 1, "velocity": 31}, {"time": 3052, "pitch": 33, "duration": 6, "velocity": 127}, {"time": 3052, "pitch": 45, "duration": 6, "velocity": 127}, {"time": 3052, "pitch": 57, "duration": 4, "velocity": 102}, {"time": 3052, "pitch": 61, "duration": 6, "velocity": 127}, {"time": 3052, "pitch": 64, "duration": 6, "velocity": 102}, {"time": 3064, "pitch": 32, "duration": 6, "velocity": 127}, {"time": 3064, "pitch": 44, "duration": 6, "velocity": 127}, {"time": 3064, "pitch": 56, "duration": 6, "velocity": 127}, {"time": 3064, "pitch": 61, "duration": 6, "velocity": 117}, {"time": 3076, "pitch": 30, "duration": 16, "velocity": 99}, {"time": 3076, "pitch": 42, "duration": 16, "velocity": 99}, {"time": 3076, "pitch": 54, "duration": 12, "velocity": 95}, {"time": 3076, "pitch": 57, "duration": 10, "velocity": 107}, {"time": 3076, "pitch": 61, "duration": 10, "velocity": 127}, {"time": 3076, "pitch": 66, "duration": 10, "velocity": 112}, {"time": 3088, "pitch": 61, "duration": 7, "velocity": 127}, {"time": 3088, "pitch": 66, "duration": 7, "velocity": 127}, {"time": 3091, "pitch": 54, "duration": 2, "velocity": 93}, {"time": 3094, "pitch": 57, "duration": 5, "velocity": 96}, {"time": 3100, "pitch": 26, "duration": 17, "velocity": 71}, {"time": 3100, "pitch": 38, "duration": 17, "velocity": 71}, {"time": 3100, "pitch": 57, "duration": 9, "velocity": 93}, {"time": 3100, "pitch": 62, "duration": 10, "velocity": 92}, {"time": 3100, "pitch": 66, "duration": 10, "velocity": 99}, {"time": 3106, "pitch": 50, "duration": 7, "velocity": 39}, {"time": 3112, "pitch": 57, "duration": 9, "velocity": 96}, {"time": 3112, "pitch": 62, "duration": 6, "velocity": 117}, {"time": 3112, "pitch": 66, "duration": 7, "velocity": 122}, {"time": 3115, "pitch": 50, "duration": 2, "velocity": 77}, {"time": 3124, "pitch": 28, "duration": 10, "velocity": 67}, {"time": 3124, "pitch": 40, "duration": 10, "velocity": 67}, {"time": 3124, "pitch": 47, "duration": 10, "velocity": 89}, {"time": 3124, "pitch": 52, "duration": 10, "velocity": 92}, {"time": 3124, "pitch": 59, "duration": 4, "velocity": 95}, {"time": 3124, "pitch": 64, "duration": 4, "velocity": 99}, {"time": 3124, "pitch": 68, "duration": 4, "velocity": 107}, {"time": 3130, "pitch": 59, "duration": 4, "velocity": 88}, {"time": 3130, "pitch": 64, "duration": 4, "velocity": 90}, {"time": 3130, "pitch": 68, "duration": 4, "velocity": 88}, {"time": 3136, "pitch": 28, "duration": 3, "velocity": 69}, {"time": 3136, "pitch": 40, "duration": 3, "velocity": 69}, {"time": 3136, "pitch": 47, "duration": 4, "velocity": 93}, {"time": 3136, "pitch": 52, "duration": 3, "velocity": 95}, {"time": 3136, "pitch": 59, "duration": 4, "velocity": 90}, {"time": 3136, "pitch": 64, "duration": 4, "velocity": 97}, {"time": 3136, "pitch": 68, "duration": 4, "velocity": 99}, {"time": 3142, "pitch": 28, "duration": 10, "velocity": 67}, {"time": 3142, "pitch": 40, "duration": 10, "velocity": 67}, {"time": 3142, "pitch": 47, "duration": 11, "velocity": 100}, {"time": 3142, "pitch": 52, "duration": 10, "velocity": 102}, {"time": 3142, "pitch": 59, "duration": 10, "velocity": 102}, {"time": 3142, "pitch": 64, "duration": 10, "velocity": 122}, {"time": 3142, "pitch": 68, "duration": 10, "velocity": 122}, {"time": 3154, "pitch": 28, "duration": 2, "velocity": 51}, {"time": 3154, "pitch": 40, "duration": 2, "velocity": 51}, {"time": 3154, "pitch": 47, "duration": 2, "velocity": 67}, {"time": 3154, "pitch": 52, "duration": 2, "velocity": 71}, {"time": 3154, "pitch": 59, "duration": 2, "velocity": 86}, {"time": 3154, "pitch": 64, "duration": 2, "velocity": 74}, {"time": 3154, "pitch": 68, "duration": 2, "velocity": 78}, {"time": 3160, "pitch": 28, "duration": 2, "velocity": 65}, {"time": 3160, "pitch": 40, "duration": 2, "velocity": 65}, {"time": 3160, "pitch": 47, "duration": 2, "velocity": 95}, {"time": 3160, "pitch": 52, "duration": 2, "velocity": 86}, {"time": 3160, "pitch": 59, "duration": 2, "velocity": 93}, {"time": 3160, "pitch": 64, "duration": 2, "velocity": 95}, {"time": 3160, "pitch": 68, "duration": 2, "velocity": 96}, {"time": 3166, "pitch": 28, "duration": 2, "velocity": 75}, {"time": 3166, "pitch": 40, "duration": 2, "velocity": 75}, {"time": 3166, "pitch": 47, "duration": 2, "velocity": 99}, {"time": 3166, "pitch": 52, "duration": 2, "velocity": 99}, {"time": 3166, "pitch": 59, "duration": 2, "velocity": 99}, {"time": 3166, "pitch": 64, "duration": 2, "velocity": 99}, {"time": 3166, "pitch": 68, "duration": 2, "velocity": 97}, {"time": 3172, "pitch": 28, "duration": 2, "velocity": 75}, {"time": 3172, "pitch": 40, "duration": 2, "velocity": 75}, {"time": 3172, "pitch": 47, "duration": 2, "velocity": 97}, {"time": 3172, "pitch": 52, "duration": 2, "velocity": 97}, {"time": 3172, "pitch": 59, "duration": 2, "velocity": 100}, {"time": 3172, "pitch": 64, "duration": 2, "velocity": 112}, {"time": 3172, "pitch": 68, "duration": 2, "velocity": 117}, {"time": 3178, "pitch": 28, "duration": 2, "velocity": 78}, {"time": 3178, "pitch": 40, "duration": 2, "velocity": 78}, {"time": 3178, "pitch": 47, "duration": 2, "velocity": 102}, {"time": 3178, "pitch": 52, "duration": 2, "velocity": 100}, {"time": 3178, "pitch": 59, "duration": 2, "velocity": 96}, {"time": 3178, "pitch": 64, "duration": 2, "velocity": 97}, {"time": 3178, "pitch": 68, "duration": 2, "velocity": 99}, {"time": 3184, "pitch": 28, "duration": 2, "velocity": 78}, {"time": 3184, "pitch": 40, "duration": 2, "velocity": 78}, {"time": 3184, "pitch": 47, "duration": 2, "velocity": 102}, {"time": 3184, "pitch": 52, "duration": 2, "velocity": 99}, {"time": 3184, "pitch": 59, "duration": 1, "velocity": 102}, {"time": 3184, "pitch": 64, "duration": 2, "velocity": 107}, {"time": 3184, "pitch": 68, "duration": 2, "velocity": 117}, {"time": 3187, "pitch": 28, "duration": 1, "velocity": 58}, {"time": 3187, "pitch": 40, "duration": 1, "velocity": 58}, {"time": 3187, "pitch": 47, "duration": 1, "velocity": 92}, {"time": 3187, "pitch": 52, "duration": 2, "velocity": 81}, {"time": 3187, "pitch": 59, "duration": 2, "velocity": 86}, {"time": 3187, "pitch": 64, "duration": 2, "velocity": 88}, {"time": 3187, "pitch": 68, "duration": 1, "velocity": 86}, {"time": 3190, "pitch": 28, "duration": 2, "velocity": 75}, {"time": 3190, "pitch": 40, "duration": 2, "velocity": 75}, {"time": 3190, "pitch": 47, "duration": 2, "velocity": 100}, {"time": 3190, "pitch": 52, "duration": 2, "velocity": 96}, {"time": 3190, "pitch": 59, "duration": 2, "velocity": 99}, {"time": 3190, "pitch": 64, "duration": 2, "velocity": 100}, {"time": 3190, "pitch": 68, "duration": 2, "velocity": 99}, {"time": 3193, "pitch": 28, "duration": 1, "velocity": 58}, {"time": 3193, "pitch": 40, "duration": 1, "velocity": 58}, {"time": 3193, "pitch": 47, "duration": 2, "velocity": 85}, {"time": 3193, "pitch": 52, "duration": 1, "velocity": 89}, {"time": 3193, "pitch": 59, "duration": 1, "velocity": 99}, {"time": 3193, "pitch": 64, "duration": 1, "velocity": 90}, {"time": 3193, "pitch": 68, "duration": 1, "velocity": 89}, {"time": 3196, "pitch": 26, "duration": 4, "velocity": 87}, {"time": 3196, "pitch": 38, "duration": 19, "velocity": 85}, {"time": 3196, "pitch": 57, "duration": 6, "velocity": 102}, {"time": 3196, "pitch": 62, "duration": 6, "velocity": 100}, {"time": 3196, "pitch": 66, "duration": 6, "velocity": 112}, {"time": 3202, "pitch": 26, "duration": 4, "velocity": 90}, {"time": 3202, "pitch": 50, "duration": 6, "velocity": 82}, {"time": 3208, "pitch": 26, "duration": 4, "velocity": 93}, {"time": 3208, "pitch": 57, "duration": 4, "velocity": 99}, {"time": 3208, "pitch": 62, "duration": 4, "velocity": 127}, {"time": 3208, "pitch": 66, "duration": 4, "velocity": 122}, {"time": 3211, "pitch": 50, "duration": 3, "velocity": 100}, {"time": 3214, "pitch": 26, "duration": 4, "velocity": 90}, {"time": 3214, "pitch": 62, "duration": 4, "velocity": 102}, {"time": 3214, "pitch": 66, "duration": 3, "velocity": 102}, {"time": 3217, "pitch": 59, "duration": 3, "velocity": 81}, {"time": 3220, "pitch": 28, "duration": 4, "velocity": 112}, {"time": 3220, "pitch": 40, "duration": 17, "velocity": 90}, {"time": 3220, "pitch": 59, "duration": 7, "velocity": 69}, {"time": 3220, "pitch": 64, "duration": 10, "velocity": 99}, {"time": 3220, "pitch": 68, "duration": 10, "velocity": 100}, {"time": 3226, "pitch": 28, "duration": 4, "velocity": 111}, {"time": 3226, "pitch": 52, "duration": 7, "velocity": 83}, {"time": 3232, "pitch": 28, "duration": 3, "velocity": 98}, {"time": 3232, "pitch": 64, "duration": 6, "velocity": 112}, {"time": 3232, "pitch": 68, "duration": 6, "velocity": 122}, {"time": 3235, "pitch": 52, "duration": 2, "velocity": 83}, {"time": 3238, "pitch": 28, "duration": 2, "velocity": 108}, {"time": 3238, "pitch": 59, "duration": 2, "velocity": 96}, {"time": 3244, "pitch": 30, "duration": 4, "velocity": 100}, {"time": 3244, "pitch": 42, "duration": 40, "velocity": 96}, {"time": 3244, "pitch": 54, "duration": 15, "velocity": 88}, {"time": 3244, "pitch": 57, "duration": 10, "velocity": 112}, {"time": 3244, "pitch": 61, "duration": 7, "velocity": 127}, {"time": 3244, "pitch": 66, "duration": 7, "velocity": 97}, {"time": 3250, "pitch": 30, "duration": 4, "velocity": 85}, {"time": 3256, "pitch": 30, "duration": 3, "velocity": 100}, {"time": 3256, "pitch": 57, "duration": 2, "velocity": 100}, {"time": 3256, "pitch": 61, "duration": 2, "velocity": 127}, {"time": 3256, "pitch": 66, "duration": 2, "velocity": 112}, {"time": 3262, "pitch": 30, "duration": 3, "velocity": 98}, {"time": 3262, "pitch": 54, "duration": 10, "velocity": 96}, {"time": 3265, "pitch": 57, "duration": 1, "velocity": 107}, {"time": 3265, "pitch": 61, "duration": 1, "velocity": 117}, {"time": 3265, "pitch": 66, "duration": 1, "velocity": 100}, {"time": 3268, "pitch": 30, "duration": 3, "velocity": 120}, {"time": 3271, "pitch": 57, "duration": 1, "velocity": 89}, {"time": 3271, "pitch": 61, "duration": 1, "velocity": 122}, {"time": 3271, "pitch": 66, "duration": 2, "velocity": 100}, {"time": 3274, "pitch": 30, "duration": 3, "velocity": 120}, {"time": 3277, "pitch": 54, "duration": 3, "velocity": 77}, {"time": 3280, "pitch": 30, "duration": 4, "velocity": 108}, {"time": 3280, "pitch": 61, "duration": 4, "velocity": 127}, {"time": 3280, "pitch": 66, "duration": 5, "velocity": 122}, {"time": 3283, "pitch": 54, "duration": 2, "velocity": 99}, {"time": 3286, "pitch": 30, "duration": 5, "velocity": 104}, {"time": 3286, "pitch": 57, "duration": 5, "velocity": 77}, {"time": 3286, "pitch": 66, "duration": 1, "velocity": 35}, {"time": 3292, "pitch": 26, "duration": 5, "velocity": 111}, {"time": 3292, "pitch": 38, "duration": 17, "velocity": 92}, {"time": 3292, "pitch": 57, "duration": 7, "velocity": 102}, {"time": 3292, "pitch": 62, "duration": 7, "velocity": 102}, {"time": 3292, "pitch": 66, "duration": 7, "velocity": 107}, {"time": 3298, "pitch": 26, "duration": 5, "velocity": 83}, {"time": 3298, "pitch": 50, "duration": 6, "velocity": 69}, {"time": 3304, "pitch": 26, "duration": 4, "velocity": 93}, {"time": 3304, "pitch": 57, "duration": 2, "velocity": 93}, {"time": 3304, "pitch": 62, "duration": 6, "velocity": 122}, {"time": 3304, "pitch": 66, "duration": 7, "velocity": 117}, {"time": 3307, "pitch": 50, "duration": 3, "velocity": 95}, {"time": 3310, "pitch": 26, "duration": 5, "velocity": 93}, {"time": 3310, "pitch": 57, "duration": 2, "velocity": 100}, {"time": 3316, "pitch": 28, "duration": 4, "velocity": 98}, {"time": 3316, "pitch": 40, "duration": 16, "velocity": 86}, {"time": 3316, "pitch": 59, "duration": 7, "velocity": 117}, {"time": 3316, "pitch": 64, "duration": 10, "velocity": 102}, {"time": 3316, "pitch": 68, "duration": 10, "velocity": 107}, {"time": 3322, "pitch": 28, "duration": 4, "velocity": 87}, {"time": 3322, "pitch": 52, "duration": 7, "velocity": 89}, {"time": 3328, "pitch": 28, "duration": 4, "velocity": 90}, {"time": 3328, "pitch": 64, "duration": 6, "velocity": 127}, {"time": 3328, "pitch": 68, "duration": 6, "velocity": 127}, {"time": 3331, "pitch": 52, "duration": 3, "velocity": 92}, {"time": 3334, "pitch": 28, "duration": 4, "velocity": 100}, {"time": 3334, "pitch": 59, "duration": 3, "velocity": 99}, {"time": 3340, "pitch": 33, "duration": 4, "velocity": 93}, {"time": 3340, "pitch": 45, "duration": 40, "velocity": 76}, {"time": 3340, "pitch": 57, "duration": 5, "velocity": 96}, {"time": 3340, "pitch": 61, "duration": 5, "velocity": 107}, {"time": 3340, "pitch": 64, "duration": 5, "velocity": 95}, {"time": 3346, "pitch": 33, "duration": 4, "velocity": 86}, {"time": 3346, "pitch": 52, "duration": 7, "velocity": 39}, {"time": 3352, "pitch": 33, "duration": 4, "velocity": 104}, {"time": 3352, "pitch": 57, "duration": 1, "velocity": 99}, {"time": 3352, "pitch": 61, "duration": 2, "velocity": 117}, {"time": 3352, "pitch": 64, "duration": 2, "velocity": 97}, {"time": 3358, "pitch": 33, "duration": 4, "velocity": 79}, {"time": 3358, "pitch": 52, "duration": 12, "velocity": 82}, {"time": 3361, "pitch": 57, "duration": 2, "velocity": 96}, {"time": 3361, "pitch": 61, "duration": 2, "velocity": 112}, {"time": 3361, "pitch": 64, "duration": 2, "velocity": 93}, {"time": 3364, "pitch": 33, "duration": 4, "velocity": 95}, {"time": 3367, "pitch": 57, "duration": 2, "velocity": 93}, {"time": 3367, "pitch": 61, "duration": 2, "velocity": 99}, {"time": 3367, "pitch": 64, "duration": 2, "velocity": 83}, {"time": 3367, "pitch": 67, "duration": 2, "velocity": 82}, {"time": 3370, "pitch": 33, "duration": 4, "velocity": 90}, {"time": 3370, "pitch": 52, "duration": 5, "velocity": 35}, {"time": 3373, "pitch": 57, "duration": 1, "velocity": 82}, {"time": 3373, "pitch": 61, "duration": 1, "velocity": 92}, {"time": 3373, "pitch": 64, "duration": 1, "velocity": 69}, {"time": 3373, "pitch": 67, "duration": 1, "velocity": 75}, {"time": 3376, "pitch": 33, "duration": 4, "velocity": 104}, {"time": 3376, "pitch": 57, "duration": 2, "velocity": 102}, {"time": 3376, "pitch": 61, "duration": 4, "velocity": 127}, {"time": 3376, "pitch": 64, "duration": 4, "velocity": 97}, {"time": 3376, "pitch": 67, "duration": 4, "velocity": 90}, {"time": 3379, "pitch": 52, "duration": 2, "velocity": 99}, {"time": 3382, "pitch": 33, "duration": 4, "velocity": 108}, {"time": 3382, "pitch": 61, "duration": 4, "velocity": 127}, {"time": 3382, "pitch": 64, "duration": 2, "velocity": 96}, {"time": 3382, "pitch": 67, "duration": 3, "velocity": 89}, {"time": 3385, "pitch": 57, "duration": 2, "velocity": 70}, {"time": 3388, "pitch": 26, "duration": 5, "velocity": 104}, {"time": 3388, "pitch": 38, "duration": 17, "velocity": 85}, {"time": 3388, "pitch": 57, "duration": 6, "velocity": 102}, {"time": 3388, "pitch": 62, "duration": 10, "velocity": 107}, {"time": 3388, "pitch": 66, "duration": 10, "velocity": 117}, {"time": 3394, "pitch": 26, "duration": 4, "velocity": 87}, {"time": 3394, "pitch": 50, "duration": 6, "velocity": 47}, {"time": 3400, "pitch": 26, "duration": 4, "velocity": 100}, {"time": 3400, "pitch": 57, "duration": 1, "velocity": 89}, {"time": 3400, "pitch": 62, "duration": 7, "velocity": 127}, {"time": 3400, "pitch": 66, "duration": 7, "velocity": 122}, {"time": 3403, "pitch": 50, "duration": 2, "velocity": 86}, {"time": 3406, "pitch": 26, "duration": 5, "velocity": 93}, {"time": 3406, "pitch": 57, "duration": 2, "velocity": 102}, {"time": 3412, "pitch": 28, "duration": 4, "velocity": 108}, {"time": 3412, "pitch": 40, "duration": 16, "velocity": 96}, {"time": 3412, "pitch": 59, "duration": 7, "velocity": 117}, {"time": 3412, "pitch": 64, "duration": 10, "velocity": 99}, {"time": 3412, "pitch": 68, "duration": 10, "velocity": 102}, {"time": 3418, "pitch": 28, "duration": 4, "velocity": 93}, {"time": 3418, "pitch": 52, "duration": 7, "velocity": 75}, {"time": 3424, "pitch": 28, "duration": 4, "velocity": 90}, {"time": 3424, "pitch": 64, "duration": 6, "velocity": 122}, {"time": 3424, "pitch": 68, "duration": 6, "velocity": 127}, {"time": 3427, "pitch": 52, "duration": 3, "velocity": 86}, {"time": 3430, "pitch": 28, "duration": 4, "velocity": 95}, {"time": 3430, "pitch": 59, "duration": 2, "velocity": 117}, {"time": 3436, "pitch": 33, "duration": 5, "velocity": 104}, {"time": 3436, "pitch": 45, "duration": 6, "velocity": 107}, {"time": 3436, "pitch": 57, "duration": 4, "velocity": 107}, {"time": 3436, "pitch": 61, "duration": 7, "velocity": 127}, {"time": 3436, "pitch": 64, "duration": 7, "velocity": 97}, {"time": 3442, "pitch": 33, "duration": 4, "velocity": 93}, {"time": 3442, "pitch": 57, "duration": 3, "velocity": 107}, {"time": 3448, "pitch": 32, "duration": 4, "velocity": 100}, {"time": 3448, "pitch": 44, "duration": 8, "velocity": 102}, {"time": 3454, "pitch": 32, "duration": 5, "velocity": 95}, {"time": 3454, "pitch": 56, "duration": 2, "velocity": 117}, {"time": 3460, "pitch": 30, "duration": 5, "velocity": 90}, {"time": 3460, "pitch": 42, "duration": 17, "velocity": 102}, {"time": 3460, "pitch": 54, "duration": 13, "velocity": 96}, {"time": 3460, "pitch": 57, "duration": 9, "velocity": 97}, {"time": 3460, "pitch": 61, "duration": 6, "velocity": 107}, {"time": 3466, "pitch": 30, "duration": 4, "velocity": 74}, {"time": 3472, "pitch": 30, "duration": 4, "velocity": 98}, {"time": 3472, "pitch": 61, "duration": 8, "velocity": 127}, {"time": 3472, "pitch": 66, "duration": 8, "velocity": 122}, {"time": 3475, "pitch": 54, "duration": 1, "velocity": 89}, {"time": 3478, "pitch": 30, "duration": 5, "velocity": 90}, {"time": 3478, "pitch": 57, "duration": 4, "velocity": 93}, {"time": 3484, "pitch": 26, "duration": 5, "velocity": 93}, {"time": 3484, "pitch": 38, "duration": 20, "velocity": 71}, {"time": 3484, "pitch": 57, "duration": 11, "velocity": 93}, {"time": 3484, "pitch": 62, "duration": 11, "velocity": 97}, {"time": 3484, "pitch": 66, "duration": 11, "velocity": 92}, {"time": 3490, "pitch": 26, "duration": 5, "velocity": 74}, {"time": 3496, "pitch": 26, "duration": 5, "velocity": 95}, {"time": 3496, "pitch": 57, "duration": 7, "velocity": 99}, {"time": 3496, "pitch": 62, "duration": 6, "velocity": 99}, {"time": 3496, "pitch": 66, "duration": 6, "velocity": 99}, {"time": 3502, "pitch": 26, "duration": 5, "velocity": 90}, {"time": 3502, "pitch": 50, "duration": 5, "velocity": 38}, {"time": 3508, "pitch": 28, "duration": 4, "velocity": 81}, {"time": 3508, "pitch": 40, "duration": 19, "velocity": 93}, {"time": 3508, "pitch": 59, "duration": 9, "velocity": 99}, {"time": 3508, "pitch": 64, "duration": 10, "velocity": 100}, {"time": 3508, "pitch": 68, "duration": 10, "velocity": 117}, {"time": 3514, "pitch": 28, "duration": 5, "velocity": 81}, {"time": 3514, "pitch": 52, "duration": 8, "velocity": 73}, {"time": 3520, "pitch": 28, "duration": 5, "velocity": 74}, {"time": 3520, "pitch": 59, "duration": 4, "velocity": 99}, {"time": 3520, "pitch": 64, "duration": 7, "velocity": 117}, {"time": 3520, "pitch": 68, "duration": 7, "velocity": 127}, {"time": 3523, "pitch": 52, "duration": 6, "velocity": 50}, {"time": 3526, "pitch": 28, "duration": 5, "velocity": 90}, {"time": 3526, "pitch": 59, "duration": 3, "velocity": 76}, {"time": 3532, "pitch": 30, "duration": 5, "velocity": 112}, {"time": 3532, "pitch": 42, "duration": 16, "velocity": 122}, {"time": 3532, "pitch": 57, "duration": 8, "velocity": 97}, {"time": 3532, "pitch": 61, "duration": 7, "velocity": 112}, {"time": 3532, "pitch": 66, "duration": 6, "velocity": 96}, {"time": 3538, "pitch": 30, "duration": 5, "velocity": 87}, {"time": 3538, "pitch": 54, "duration": 9, "velocity": 42}, {"time": 3544, "pitch": 30, "duration": 4, "velocity": 114}, {"time": 3544, "pitch": 57, "duration": 2, "velocity": 95}, {"time": 3544, "pitch": 61, "duration": 2, "velocity": 122}, {"time": 3544, "pitch": 66, "duration": 2, "velocity": 97}, {"time": 3550, "pitch": 30, "duration": 4, "velocity": 86}, {"time": 3550, "pitch": 42, "duration": 24, "velocity": 69}, {"time": 3550, "pitch": 54, "duration": 12, "velocity": 81}, {"time": 3553, "pitch": 57, "duration": 1, "velocity": 95}, {"time": 3553, "pitch": 61, "duration": 1, "velocity": 117}, {"time": 3553, "pitch": 66, "duration": 1, "velocity": 100}, {"time": 3556, "pitch": 30, "duration": 4, "velocity": 108}, {"time": 3559, "pitch": 61, "duration": 2, "velocity": 127}, {"time": 3559, "pitch": 66, "duration": 2, "velocity": 117}, {"time": 3562, "pitch": 30, "duration": 4, "velocity": 112}, {"time": 3565, "pitch": 54, "duration": 4, "velocity": 61}, {"time": 3568, "pitch": 30, "duration": 4, "velocity": 111}, {"time": 3568, "pitch": 61, "duration": 5, "velocity": 127}, {"time": 3568, "pitch": 66, "duration": 5, "velocity": 117}, {"time": 3571, "pitch": 54, "duration": 2, "velocity": 78}, {"time": 3574, "pitch": 30, "duration": 3, "velocity": 72}, {"time": 3574, "pitch": 61, "duration": 4, "velocity": 127}, {"time": 3574, "pitch": 66, "duration": 2, "velocity": 97}, {"time": 3580, "pitch": 26, "duration": 5, "velocity": 93}, {"time": 3580, "pitch": 38, "duration": 19, "velocity": 90}, {"time": 3580, "pitch": 57, "duration": 10, "velocity": 99}, {"time": 3580, "pitch": 62, "duration": 11, "velocity": 107}, {"time": 3580, "pitch": 66, "duration": 10, "velocity": 102}, {"time": 3586, "pitch": 26, "duration": 5, "velocity": 72}, {"time": 3592, "pitch": 26, "duration": 5, "velocity": 86}, {"time": 3592, "pitch": 57, "duration": 7, "velocity": 100}, {"time": 3592, "pitch": 62, "duration": 6, "velocity": 112}, {"time": 3592, "pitch": 66, "duration": 7, "velocity": 117}, {"time": 3598, "pitch": 26, "duration": 5, "velocity": 67}, {"time": 3598, "pitch": 50, "duration": 5, "velocity": 78}, {"time": 3604, "pitch": 28, "duration": 4, "velocity": 104}, {"time": 3604, "pitch": 40, "duration": 16, "velocity": 96}, {"time": 3604, "pitch": 59, "duration": 8, "velocity": 99}, {"time": 3604, "pitch": 64, "duration": 10, "velocity": 102}, {"time": 3604, "pitch": 68, "duration": 10, "velocity": 112}, {"time": 3610, "pitch": 28, "duration": 4, "velocity": 75}, {"time": 3610, "pitch": 52, "duration": 7, "velocity": 66}, {"time": 3616, "pitch": 28, "duration": 4, "velocity": 98}, {"time": 3616, "pitch": 59, "duration": 4, "velocity": 96}, {"time": 3616, "pitch": 64, "duration": 6, "velocity": 127}, {"time": 3616, "pitch": 68, "duration": 6, "velocity": 127}, {"time": 3619, "pitch": 52, "duration": 2, "velocity": 90}, {"time": 3622, "pitch": 28, "duration": 3, "velocity": 83}, {"time": 3622, "pitch": 59, "duration": 2, "velocity": 82}, {"time": 3628, "pitch": 30, "duration": 5, "velocity": 104}, {"time": 3628, "pitch": 42, "duration": 41, "velocity": 122}, {"time": 3628, "pitch": 57, "duration": 8, "velocity": 96}, {"time": 3628, "pitch": 61, "duration": 7, "velocity": 122}, {"time": 3628, "pitch": 66, "duration": 7, "velocity": 100}, {"time": 3634, "pitch": 30, "duration": 5, "velocity": 66}, {"time": 3634, "pitch": 54, "duration": 8, "velocity": 53}, {"time": 3640, "pitch": 30, "duration": 5, "velocity": 83}, {"time": 3640, "pitch": 57, "duration": 2, "velocity": 96}, {"time": 3640, "pitch": 61, "duration": 2, "velocity": 122}, {"time": 3640, "pitch": 66, "duration": 2, "velocity": 102}, {"time": 3646, "pitch": 30, "duration": 5, "velocity": 81}, {"time": 3646, "pitch": 54, "duration": 5, "velocity": 48}, {"time": 3649, "pitch": 57, "duration": 2, "velocity": 90}, {"time": 3649, "pitch": 61, "duration": 1, "velocity": 107}, {"time": 3649, "pitch": 66, "duration": 2, "velocity": 93}, {"time": 3652, "pitch": 30, "duration": 5, "velocity": 104}, {"time": 3655, "pitch": 61, "duration": 2, "velocity": 100}, {"time": 3655, "pitch": 66, "duration": 2, "velocity": 99}, {"time": 3658, "pitch": 30, "duration": 5, "velocity": 98}, {"time": 3661, "pitch": 54, "duration": 4, "velocity": 85}, {"time": 3664, "pitch": 30, "duration": 5, "velocity": 120}, {"time": 3664, "pitch": 61, "duration": 4, "velocity": 127}, {"time": 3664, "pitch": 66, "duration": 4, "velocity": 122}, {"time": 3667, "pitch": 54, "duration": 2, "velocity": 93}, {"time": 3670, "pitch": 30, "duration": 2, "velocity": 114}, {"time": 3670, "pitch": 61, "duration": 4, "velocity": 127}, {"time": 3670, "pitch": 66, "duration": 2, "velocity": 102}, {"time": 3673, "pitch": 30, "duration": 2, "velocity": 104}, {"time": 3673, "pitch": 57, "duration": 2, "velocity": 78}, {"time": 3676, "pitch": 26, "duration": 5, "velocity": 108}, {"time": 3676, "pitch": 38, "duration": 20, "velocity": 89}, {"time": 3676, "pitch": 57, "duration": 10, "velocity": 102}, {"time": 3676, "pitch": 62, "duration": 10, "velocity": 100}, {"time": 3676, "pitch": 66, "duration": 10, "velocity": 100}, {"time": 3682, "pitch": 26, "duration": 5, "velocity": 76}, {"time": 3685, "pitch": 50, "duration": 6, "velocity": 34}, {"time": 3688, "pitch": 26, "duration": 4, "velocity": 95}, {"time": 3688, "pitch": 57, "duration": 7, "velocity": 102}, {"time": 3688, "pitch": 62, "duration": 7, "velocity": 117}, {"time": 3688, "pitch": 66, "duration": 7, "velocity": 127}, {"time": 3694, "pitch": 26, "duration": 5, "velocity": 81}, {"time": 3694, "pitch": 50, "duration": 5, "velocity": 90}, {"time": 3700, "pitch": 28, "duration": 5, "velocity": 104}, {"time": 3700, "pitch": 40, "duration": 17, "velocity": 89}, {"time": 3700, "pitch": 59, "duration": 7, "velocity": 99}, {"time": 3700, "pitch": 64, "duration": 10, "velocity": 100}, {"time": 3700, "pitch": 68, "duration": 10, "velocity": 112}, {"time": 3706, "pitch": 28, "duration": 5, "velocity": 98}, {"time": 3706, "pitch": 52, "duration": 7, "velocity": 89}, {"time": 3712, "pitch": 28, "duration": 4, "velocity": 95}, {"time": 3712, "pitch": 64, "duration": 6, "velocity": 127}, {"time": 3712, "pitch": 68, "duration": 6, "velocity": 127}, {"time": 3715, "pitch": 52, "duration": 4, "velocity": 100}, {"time": 3718, "pitch": 28, "duration": 5, "velocity": 83}, {"time": 3718, "pitch": 59, "duration": 3, "velocity": 97}, {"time": 3724, "pitch": 33, "duration": 5, "velocity": 93}, {"time": 3724, "pitch": 45, "duration": 41, "velocity": 81}, {"time": 3724, "pitch": 57, "duration": 10, "velocity": 97}, {"time": 3724, "pitch": 61, "duration": 10, "velocity": 112}, {"time": 3724, "pitch": 64, "duration": 10, "velocity": 95}, {"time": 3730, "pitch": 33, "duration": 4, "velocity": 73}, {"time": 3730, "pitch": 52, "duration": 7, "velocity": 47}, {"time": 3736, "pitch": 33, "duration": 4, "velocity": 86}, {"time": 3736, "pitch": 57, "duration": 7, "velocity": 95}, {"time": 3736, "pitch": 61, "duration": 7, "velocity": 127}, {"time": 3736, "pitch": 64, "duration": 10, "velocity": 99}, {"time": 3742, "pitch": 33, "duration": 5, "velocity": 85}, {"time": 3742, "pitch": 52, "duration": 2, "velocity": 39}, {"time": 3745, "pitch": 52, "duration": 4, "velocity": 82}, {"time": 3748, "pitch": 33, "duration": 5, "velocity": 98}, {"time": 3748, "pitch": 57, "duration": 8, "velocity": 102}, {"time": 3748, "pitch": 61, "duration": 8, "velocity": 117}, {"time": 3748, "pitch": 64, "duration": 8, "velocity": 96}, {"time": 3748, "pitch": 67, "duration": 8, "velocity": 86}, {"time": 3754, "pitch": 33, "duration": 5, "velocity": 108}, {"time": 3754, "pitch": 52, "duration": 7, "velocity": 69}, {"time": 3760, "pitch": 33, "duration": 4, "velocity": 112}, {"time": 3760, "pitch": 57, "duration": 4, "velocity": 102}, {"time": 3760, "pitch": 61, "duration": 6, "velocity": 122}, {"time": 3760, "pitch": 64, "duration": 9, "velocity": 95}, {"time": 3760, "pitch": 67, "duration": 7, "velocity": 85}, {"time": 3763, "pitch": 52, "duration": 2, "velocity": 97}, {"time": 3766, "pitch": 33, "duration": 5, "velocity": 111}, {"time": 3766, "pitch": 57, "duration": 5, "velocity": 97}, {"time": 3769, "pitch": 61, "duration": 2, "velocity": 112}, {"time": 3772, "pitch": 26, "duration": 5, "velocity": 104}, {"time": 3772, "pitch": 38, "duration": 17, "velocity": 92}, {"time": 3772, "pitch": 57, "duration": 8, "velocity": 93}, {"time": 3772, "pitch": 62, "duration": 10, "velocity": 112}, {"time": 3772, "pitch": 66, "duration": 10, "velocity": 122}, {"time": 3778, "pitch": 26, "duration": 5, "velocity": 77}, {"time": 3778, "pitch": 50, "duration": 7, "velocity": 50}, {"time": 3784, "pitch": 26, "duration": 5, "velocity": 93}, {"time": 3784, "pitch": 62, "duration": 6, "velocity": 117}, {"time": 3784, "pitch": 66, "duration": 6, "velocity": 127}, {"time": 3787, "pitch": 50, "duration": 3, "velocity": 93}, {"time": 3790, "pitch": 26, "duration": 5, "velocity": 87}, {"time": 3790, "pitch": 57, "duration": 2, "velocity": 97}, {"time": 3796, "pitch": 28, "duration": 4, "velocity": 114}, {"time": 3796, "pitch": 40, "duration": 16, "velocity": 92}, {"time": 3796, "pitch": 59, "duration": 7, "velocity": 100}, {"time": 3796, "pitch": 64, "duration": 10, "velocity": 100}, {"time": 3796, "pitch": 68, "duration": 10, "velocity": 117}, {"time": 3802, "pitch": 28, "duration": 4, "velocity": 100}, {"time": 3802, "pitch": 52, "duration": 7, "velocity": 70}, {"time": 3808, "pitch": 28, "duration": 4, "velocity": 108}, {"time": 3808, "pitch": 64, "duration": 5, "velocity": 117}, {"time": 3808, "pitch": 68, "duration": 6, "velocity": 122}, {"time": 3811, "pitch": 52, "duration": 3, "velocity": 90}, {"time": 3814, "pitch": 28, "duration": 5, "velocity": 98}, {"time": 3814, "pitch": 59, "duration": 3, "velocity": 117}, {"time": 3817, "pitch": 61, "duration": 1, "velocity": 39}, {"time": 3820, "pitch": 33, "duration": 4, "velocity": 95}, {"time": 3820, "pitch": 45, "duration": 7, "velocity": 112}, {"time": 3820, "pitch": 57, "duration": 4, "velocity": 102}, {"time": 3820, "pitch": 61, "duration": 7, "velocity": 117}, {"time": 3820, "pitch": 64, "duration": 8, "velocity": 99}, {"time": 3826, "pitch": 33, "duration": 5, "velocity": 83}, {"time": 3826, "pitch": 57, "duration": 4, "velocity": 107}, {"time": 3829, "pitch": 61, "duration": 2, "velocity": 112}, {"time": 3832, "pitch": 32, "duration": 4, "velocity": 111}, {"time": 3832, "pitch": 44, "duration": 6, "velocity": 112}, {"time": 3832, "pitch": 56, "duration": 4, "velocity": 117}, {"time": 3838, "pitch": 32, "duration": 5, "velocity": 100}, {"time": 3838, "pitch": 61, "duration": 3, "velocity": 99}, {"time": 3841, "pitch": 64, "duration": 3, "velocity": 95}, {"time": 3844, "pitch": 30, "duration": 5, "velocity": 95}, {"time": 3844, "pitch": 42, "duration": 17, "velocity": 100}, {"time": 3844, "pitch": 54, "duration": 13, "velocity": 102}, {"time": 3850, "pitch": 30, "duration": 5, "velocity": 81}, {"time": 3850, "pitch": 57, "duration": 5, "velocity": 82}, {"time": 3856, "pitch": 30, "duration": 5, "velocity": 85}, {"time": 3856, "pitch": 61, "duration": 8, "velocity": 127}, {"time": 3856, "pitch": 66, "duration": 8, "velocity": 127}, {"time": 3859, "pitch": 54, "duration": 2, "velocity": 82}, {"time": 3862, "pitch": 30, "duration": 5, "velocity": 98}, {"time": 3862, "pitch": 57, "duration": 5, "velocity": 96}, {"time": 3868, "pitch": 26, "duration": 5, "velocity": 104}, {"time": 3868, "pitch": 38, "duration": 18, "velocity": 81}, {"time": 3868, "pitch": 57, "duration": 10, "velocity": 88}, {"time": 3868, "pitch": 62, "duration": 10, "velocity": 99}, {"time": 3868, "pitch": 66, "duration": 10, "velocity": 112}, {"time": 3874, "pitch": 26, "duration": 5, "velocity": 79}, {"time": 3880, "pitch": 26, "duration": 4, "velocity": 85}, {"time": 3880, "pitch": 57, "duration": 7, "velocity": 95}, {"time": 3880, "pitch": 62, "duration": 6, "velocity": 100}, {"time": 3880, "pitch": 66, "duration": 6, "velocity": 102}, {"time": 3886, "pitch": 26, "duration": 5, "velocity": 72}, {"time": 3892, "pitch": 28, "duration": 4, "velocity": 112}, {"time": 3892, "pitch": 40, "duration": 17, "velocity": 83}, {"time": 3892, "pitch": 59, "duration": 7, "velocity": 100}, {"time": 3892, "pitch": 64, "duration": 7, "velocity": 99}, {"time": 3892, "pitch": 68, "duration": 8, "velocity": 102}, {"time": 3898, "pitch": 28, "duration": 4, "velocity": 83}, {"time": 3898, "pitch": 52, "duration": 7, "velocity": 66}, {"time": 3904, "pitch": 28, "duration": 4, "velocity": 98}, {"time": 3904, "pitch": 64, "duration": 7, "velocity": 117}, {"time": 3904, "pitch": 68, "duration": 7, "velocity": 122}, {"time": 3907, "pitch": 52, "duration": 4, "velocity": 78}, {"time": 3910, "pitch": 28, "duration": 5, "velocity": 64}, {"time": 3910, "pitch": 59, "duration": 4, "velocity": 79}, {"time": 3916, "pitch": 30, "duration": 4, "velocity": 98}, {"time": 3916, "pitch": 42, "duration": 40, "velocity": 122}, {"time": 3916, "pitch": 57, "duration": 7, "velocity": 95}, {"time": 3916, "pitch": 61, "duration": 8, "velocity": 100}, {"time": 3916, "pitch": 66, "duration": 6, "velocity": 95}, {"time": 3922, "pitch": 30, "duration": 4, "velocity": 71}, {"time": 3922, "pitch": 54, "duration": 8, "velocity": 69}, {"time": 3925, "pitch": 61, "duration": 1, "velocity": 22}, {"time": 3928, "pitch": 30, "duration": 4, "velocity": 95}, {"time": 3928, "pitch": 57, "duration": 2, "velocity": 95}, {"time": 3928, "pitch": 61, "duration": 3, "velocity": 122}, {"time": 3928, "pitch": 66, "duration": 3, "velocity": 99}, {"time": 3934, "pitch": 30, "duration": 5, "velocity": 64}, {"time": 3934, "pitch": 54, "duration": 9, "velocity": 73}, {"time": 3937, "pitch": 57, "duration": 1, "velocity": 66}, {"time": 3937, "pitch": 61, "duration": 1, "velocity": 88}, {"time": 3937, "pitch": 66, "duration": 1, "velocity": 72}, {"time": 3940, "pitch": 30, "duration": 5, "velocity": 98}, {"time": 3940, "pitch": 57, "duration": 6, "velocity": 97}, {"time": 3940, "pitch": 61, "duration": 6, "velocity": 127}, {"time": 3940, "pitch": 66, "duration": 7, "velocity": 112}, {"time": 3946, "pitch": 30, "duration": 5, "velocity": 104}, {"time": 3946, "pitch": 54, "duration": 6, "velocity": 72}, {"time": 3952, "pitch": 30, "duration": 5, "velocity": 112}, {"time": 3952, "pitch": 57, "duration": 2, "velocity": 96}, {"time": 3952, "pitch": 61, "duration": 4, "velocity": 127}, {"time": 3952, "pitch": 66, "duration": 5, "velocity": 117}, {"time": 3955, "pitch": 54, "duration": 2, "velocity": 93}, {"time": 3958, "pitch": 30, "duration": 4, "velocity": 112}, {"time": 3958, "pitch": 61, "duration": 4, "velocity": 127}, {"time": 3958, "pitch": 66, "duration": 1, "velocity": 76}, {"time": 3961, "pitch": 57, "duration": 1, "velocity": 43}, {"time": 3964, "pitch": 26, "duration": 5, "velocity": 95}, {"time": 3964, "pitch": 38, "duration": 17, "velocity": 92}, {"time": 3964, "pitch": 57, "duration": 6, "velocity": 122}, {"time": 3964, "pitch": 62, "duration": 7, "velocity": 112}, {"time": 3964, "pitch": 66, "duration": 7, "velocity": 117}, {"time": 3970, "pitch": 26, "duration": 5, "velocity": 70}, {"time": 3970, "pitch": 50, "duration": 6, "velocity": 35}, {"time": 3976, "pitch": 26, "duration": 4, "velocity": 79}, {"time": 3976, "pitch": 57, "duration": 4, "velocity": 102}, {"time": 3976, "pitch": 62, "duration": 5, "velocity": 122}, {"time": 3976, "pitch": 66, "duration": 7, "velocity": 127}, {"time": 3979, "pitch": 50, "duration": 2, "velocity": 96}, {"time": 3982, "pitch": 26, "duration": 5, "velocity": 77}, {"time": 3982, "pitch": 57, "duration": 2, "velocity": 102}, {"time": 3988, "pitch": 28, "duration": 5, "velocity": 108}, {"time": 3988, "pitch": 40, "duration": 17, "velocity": 89}, {"time": 3988, "pitch": 59, "duration": 7, "velocity": 100}, {"time": 3988, "pitch": 64, "duration": 9, "velocity": 107}, {"time": 3988, "pitch": 68, "duration": 9, "velocity": 112}, {"time": 3994, "pitch": 28, "duration": 4, "velocity": 85}, {"time": 3994, "pitch": 52, "duration": 8, "velocity": 63}, {"time": 4000, "pitch": 28, "duration": 4, "velocity": 87}, {"time": 4000, "pitch": 59, "duration": 4, "velocity": 97}, {"time": 4000, "pitch": 64, "duration": 7, "velocity": 117}, {"time": 4000, "pitch": 68, "duration": 7, "velocity": 122}, {"time": 4003, "pitch": 52, "duration": 8, "velocity": 88}, {"time": 4006, "pitch": 28, "duration": 4, "velocity": 87}, {"time": 4006, "pitch": 59, "duration": 2, "velocity": 95}, {"time": 4012, "pitch": 33, "duration": 5, "velocity": 93}, {"time": 4012, "pitch": 45, "duration": 8, "velocity": 85}, {"time": 4012, "pitch": 57, "duration": 11, "velocity": 107}, {"time": 4012, "pitch": 61, "duration": 11, "velocity": 112}, {"time": 4012, "pitch": 64, "duration": 11, "velocity": 96}, {"time": 4018, "pitch": 33, "duration": 5, "velocity": 76}, {"time": 4024, "pitch": 32, "duration": 5, "velocity": 108}, {"time": 4024, "pitch": 44, "duration": 10, "velocity": 96}, {"time": 4024, "pitch": 61, "duration": 11, "velocity": 107}, {"time": 4030, "pitch": 32, "duration": 5, "velocity": 98}, {"time": 4036, "pitch": 30, "duration": 4, "velocity": 90}, {"time": 4036, "pitch": 42, "duration": 18, "velocity": 88}, {"time": 4036, "pitch": 54, "duration": 13, "velocity": 81}, {"time": 4036, "pitch": 57, "duration": 10, "velocity": 96}, {"time": 4036, "pitch": 61, "duration": 10, "velocity": 100}, {"time": 4036, "pitch": 66, "duration": 10, "velocity": 95}, {"time": 4042, "pitch": 30, "duration": 5, "velocity": 83}, {"time": 4048, "pitch": 30, "duration": 4, "velocity": 87}, {"time": 4048, "pitch": 61, "duration": 8, "velocity": 122}, {"time": 4048, "pitch": 66, "duration": 8, "velocity": 117}, {"time": 4051, "pitch": 54, "duration": 2, "velocity": 90}, {"time": 4054, "pitch": 30, "duration": 5, "velocity": 93}, {"time": 4054, "pitch": 57, "duration": 3, "velocity": 88}, {"time": 4060, "pitch": 26, "duration": 5, "velocity": 111}, {"time": 4060, "pitch": 38, "duration": 40, "velocity": 88}, {"time": 4060, "pitch": 57, "duration": 6, "velocity": 99}, {"time": 4060, "pitch": 62, "duration": 6, "velocity": 100}, {"time": 4060, "pitch": 66, "duration": 6, "velocity": 112}, {"time": 4066, "pitch": 26, "duration": 5, "velocity": 74}, {"time": 4066, "pitch": 50, "duration": 7, "velocity": 36}, {"time": 4072, "pitch": 26, "duration": 4, "velocity": 74}, {"time": 4072, "pitch": 57, "duration": 1, "velocity": 99}, {"time": 4072, "pitch": 62, "duration": 2, "velocity": 117}, {"time": 4072, "pitch": 66, "duration": 2, "velocity": 117}, {"time": 4078, "pitch": 26, "duration": 4, "velocity": 74}, {"time": 4081, "pitch": 50, "duration": 4, "velocity": 70}, {"time": 4084, "pitch": 26, "duration": 4, "velocity": 83}, {"time": 4084, "pitch": 57, "duration": 6, "velocity": 97}, {"time": 4084, "pitch": 62, "duration": 6, "velocity": 112}, {"time": 4084, "pitch": 66, "duration": 6, "velocity": 112}, {"time": 4090, "pitch": 26, "duration": 4, "velocity": 86}, {"time": 4090, "pitch": 50, "duration": 7, "velocity": 90}, {"time": 4096, "pitch": 26, "duration": 4, "velocity": 95}, {"time": 4096, "pitch": 62, "duration": 6, "velocity": 127}, {"time": 4096, "pitch": 66, "duration": 6, "velocity": 127}, {"time": 4099, "pitch": 50, "duration": 2, "velocity": 92}, {"time": 4102, "pitch": 26, "duration": 4, "velocity": 90}, {"time": 4102, "pitch": 57, "duration": 1, "velocity": 100}, {"time": 4108, "pitch": 28, "duration": 5, "velocity": 120}, {"time": 4108, "pitch": 40, "duration": 40, "velocity": 86}, {"time": 4108, "pitch": 59, "duration": 5, "velocity": 100}, {"time": 4108, "pitch": 64, "duration": 5, "velocity": 99}, {"time": 4108, "pitch": 68, "duration": 5, "velocity": 100}, {"time": 4114, "pitch": 28, "duration": 4, "velocity": 73}, {"time": 4120, "pitch": 28, "duration": 4, "velocity": 79}, {"time": 4120, "pitch": 59, "duration": 1, "velocity": 102}, {"time": 4120, "pitch": 64, "duration": 2, "velocity": 96}, {"time": 4120, "pitch": 68, "duration": 2, "velocity": 96}, {"time": 4126, "pitch": 28, "duration": 4, "velocity": 67}, {"time": 4129, "pitch": 52, "duration": 4, "velocity": 95}, {"time": 4132, "pitch": 28, "duration": 4, "velocity": 93}, {"time": 4132, "pitch": 59, "duration": 2, "velocity": 99}, {"time": 4132, "pitch": 64, "duration": 2, "velocity": 107}, {"time": 4132, "pitch": 68, "duration": 2, "velocity": 117}, {"time": 4135, "pitch": 52, "duration": 3, "velocity": 31}, {"time": 4138, "pitch": 28, "duration": 4, "velocity": 108}, {"time": 4141, "pitch": 52, "duration": 4, "velocity": 95}, {"time": 4144, "pitch": 28, "duration": 4, "velocity": 112}, {"time": 4144, "pitch": 64, "duration": 6, "velocity": 127}, {"time": 4144, "pitch": 68, "duration": 6, "velocity": 127}, {"time": 4147, "pitch": 52, "duration": 2, "velocity": 88}, {"time": 4150, "pitch": 28, "duration": 3, "velocity": 114}, {"time": 4150, "pitch": 59, "duration": 2, "velocity": 93}, {"time": 4156, "pitch": 30, "duration": 79, "velocity": 120}, {"time": 4156, "pitch": 42, "duration": 79, "velocity": 122}, {"time": 4156, "pitch": 54, "duration": 78, "velocity": 97}, {"time": 4156, "pitch": 57, "duration": 78, "velocity": 102}, {"time": 4156, "pitch": 61, "duration": 78, "velocity": 117}, {"time": 4156, "pitch": 66, "duration": 78, "velocity": 107}], "annotations": [{"time": 124, "annotation": {"number": 64, "value": 127}, "group": "control_change"}, {"time": 146, "annotation": {"number": 64, "value": 0}, "group": "control_change"}, {"time": 148, "annotation": {"number": 64, "value": 127}, "group": "control_change"}, {"time": 170, "annotation": {"number": 64, "value": 0}, "group": "control_change"}, {"time": 172, "annotation": {"number": 64, "value": 127}, "group": "control_change"}, {"time": 194, "annotation": {"number": 64, "value": 0}, "group": "control_change"}, {"time": 196, "annotation": {"number": 64, "value": 127}, "group": "control_change"}, {"time": 218, "annotation": {"number": 64, "value": 0}, "group": "control_change"}, {"time": 220, "annotation": {"number": 64, "value": 127}, "group": "control_change"}, {"time": 266, "annotation": {"number": 64, "value": 0}, "group": "control_change"}, {"time": 278, "annotation": {"number": 64, "value": 127}, "group": "control_change"}, {"time": 314, "annotation": {"number": 64, "value": 0}, "group": "control_change"}, {"time": 318, "annotation": {"number": 64, "value": 127}, "group": "control_change"}, {"time": 339, "annotation": {"number": 64, "value": 0}, "group": "control_change"}, {"time": 340, "annotation": {"number": 64, "value": 127}, "group": "control_change"}, {"time": 362, "annotation": {"number": 64, "value": 0}, "group": "control_change"}, {"time": 363, "annotation": {"number": 64, "value": 127}, "group": "control_change"}, {"time": 410, "annotation": {"number": 64, "value": 0}, "group": "control_change"}, {"time": 412, "annotation": {"number": 64, "value": 127}, "group": "control_change"}, {"time": 434, "annotation": {"number": 64, "value": 0}, "group": "control_change"}, {"time": 436, "annotation": {"number": 64, "value": 127}, "group": "control_change"}, {"time": 457, "annotation": {"number": 64, "value": 0}, "group": "control_change"}, {"time": 460, "annotation": {"number": 64, "value": 127}, "group": "control_change"}, {"time": 483, "annotation": {"number": 64, "value": 0}, "group": "control_change"}, {"time": 484, "annotation": {"number": 64, "value": 127}, "group": "control_change"}, {"time": 495, "annotation": {"number": 64, "value": 0}, "group": "control_change"}, {"time": 496, "annotation": {"number": 64, "value": 127}, "group": "control_change"}, {"time": 505, "annotation": {"number": 64, "value": 0}, "group": "control_change"}, {"time": 508, "annotation": {"number": 64, "value": 127}, "group": "control_change"}, {"time": 519, "annotation": {"number": 64, "value": 0}, "group": "control_change"}, {"time": 519, "annotation": {"number": 64, "value": 127}, "group": "control_change"}, {"time": 530, "annotation": {"number": 64, "value": 0}, "group": "control_change"}, {"time": 532, "annotation": {"number": 64, "value": 127}, "group": "control_change"}, {"time": 554, "annotation": {"number": 64, "value": 0}, "group": "control_change"}, {"time": 556, "annotation": {"number": 64, "value": 127}, "group": "control_change"}, {"time": 567, "annotation": {"number": 64, "value": 0}, "group": "control_change"}, {"time": 568, "annotation": {"number": 64, "value": 127}, "group": "control_change"}, {"time": 578, "annotation": {"number": 64, "value": 0}, "group": "control_change"}, {"time": 580, "annotation": {"number": 64, "value": 127}, "group": "control_change"}, {"time": 602, "annotation": {"number": 64, "value": 0}, "group": "control_change"}, {"time": 605, "annotation": {"number": 64, "value": 127}, "group": "control_change"}, {"time": 626, "annotation": {"number": 64, "value": 0}, "group": "control_change"}, {"time": 628, "annotation": {"number": 64, "value": 127}, "group": "control_change"}, {"time": 650, "annotation": {"number": 64, "value": 0}, "group": "control_change"}, {"time": 652, "annotation": {"number": 64, "value": 127}, "group": "control_change"}, {"time": 675, "annotation": {"number": 64, "value": 0}, "group": "control_change"}, {"time": 677, "annotation": {"number": 64, "value": 127}, "group": "control_change"}, {"time": 698, "annotation": {"number": 64, "value": 0}, "group": "control_change"}, {"time": 701, "annotation": {"number": 64, "value": 127}, "group": "control_change"}, {"time": 722, "annotation": {"number": 64, "value": 0}, "group": "control_change"}, {"time": 724, "annotation": {"number": 64, "value": 127}, "group": "control_change"}, {"time": 747, "annotation": {"number": 64, "value": 0}, "group": "control_change"}, {"time": 748, "annotation": {"number": 64, "value": 127}, "group": "control_change"}, {"time": 758, "annotation": {"number": 64, "value": 0}, "group": "control_change"}, {"time": 762, "annotation": {"number": 64, "value": 127}, "group": "control_change"}, {"time": 770, "annotation": {"number": 64, "value": 0}, "group": "control_change"}, {"time": 772, "annotation": {"number": 64, "value": 127}, "group": "control_change"}, {"time": 794, "annotation": {"number": 64, "value": 0}, "group": "control_change"}, {"time": 797, "annotation": {"number": 64, "value": 127}, "group": "control_change"}, {"time": 818, "annotation": {"number": 64, "value": 0}, "group": "control_change"}, {"time": 820, "annotation": {"number": 64, "value": 127}, "group": "control_change"}, {"time": 842, "annotation": {"number": 64, "value": 0}, "group": "control_change"}, {"time": 844, "annotation": {"number": 64, "value": 127}, "group": "control_change"}, {"time": 890, "annotation": {"number": 64, "value": 0}, "group": "control_change"}, {"time": 892, "annotation": {"number": 64, "value": 127}, "group": "control_change"}, {"time": 914, "annotation": {"number": 64, "value": 0}, "group": "control_change"}, {"time": 916, "annotation": {"number": 64, "value": 127}, "group": "control_change"}, {"time": 938, "annotation": {"number": 64, "value": 0}, "group": "control_change"}, {"time": 940, "annotation": {"number": 64, "value": 127}, "group": "control_change"}, {"time": 987, "annotation": {"number": 64, "value": 0}, "group": "control_change"}, {"time": 988, "annotation": {"number": 64, "value": 127}, "group": "control_change"}, {"time": 1010, "annotation": {"number": 64, "value": 0}, "group": "control_change"}, {"time": 1012, "annotation": {"number": 64, "value": 127}, "group": "control_change"}, {"time": 1034, "annotation": {"number": 64, "value": 0}, "group": "control_change"}, {"time": 1036, "annotation": {"number": 64, "value": 127}, "group": "control_change"}, {"time": 1059, "annotation": {"number": 64, "value": 0}, "group": "control_change"}, {"time": 1060, "annotation": {"number": 64, "value": 127}, "group": "control_change"}, {"time": 1082, "annotation": {"number": 64, "value": 0}, "group": "control_change"}, {"time": 1084, "annotation": {"number": 64, "value": 127}, "group": "control_change"}, {"time": 1106, "annotation": {"number": 64, "value": 0}, "group": "control_change"}, {"time": 1108, "annotation": {"number": 64, "value": 127}, "group": "control_change"}, {"time": 1130, "annotation": {"number": 64, "value": 0}, "group": "control_change"}, {"time": 1132, "annotation": {"number": 64, "value": 127}, "group": "control_change"}, {"time": 1144, "annotation": {"number": 64, "value": 0}, "group": "control_change"}, {"time": 1146, "annotation": {"number": 64, "value": 127}, "group": "control_change"}, {"time": 1155, "annotation": {"number": 64, "value": 0}, "group": "control_change"}, {"time": 1156, "annotation": {"number": 64, "value": 127}, "group": "control_change"}, {"time": 1178, "annotation": {"number": 64, "value": 0}, "group": "control_change"}, {"time": 1180, "annotation": {"number": 64, "value": 127}, "group": "control_change"}, {"time": 1202, "annotation": {"number": 64, "value": 0}, "group": "control_change"}, {"time": 1204, "annotation": {"number": 64, "value": 127}, "group": "control_change"}, {"time": 1226, "annotation": {"number": 64, "value": 0}, "group": "control_change"}, {"time": 1228, "annotation": {"number": 64, "value": 127}, "group": "control_change"}, {"time": 1264, "annotation": {"number": 64, "value": 0}, "group": "control_change"}, {"time": 1264, "annotation": {"number": 64, "value": 127}, "group": "control_change"}, {"time": 1272, "annotation": {"number": 64, "value": 0}, "group": "control_change"}, {"time": 1276, "annotation": {"number": 64, "value": 127}, "group": "control_change"}, {"time": 1298, "annotation": {"number": 64, "value": 0}, "group": "control_change"}, {"time": 1300, "annotation": {"number": 64, "value": 127}, "group": "control_change"}, {"time": 1322, "annotation": {"number": 64, "value": 0}, "group": "control_change"}, {"time": 1335, "annotation": {"number": 64, "value": 127}, "group": "control_change"}, {"time": 1346, "annotation": {"number": 64, "value": 0}, "group": "control_change"}, {"time": 1348, "annotation": {"number": 64, "value": 127}, "group": "control_change"}, {"time": 1370, "annotation": {"number": 64, "value": 0}, "group": "control_change"}, {"time": 1372, "annotation": {"number": 64, "value": 127}, "group": "control_change"}, {"time": 1394, "annotation": {"number": 64, "value": 0}, "group": "control_change"}, {"time": 1396, "annotation": {"number": 64, "value": 127}, "group": "control_change"}, {"time": 1417, "annotation": {"number": 64, "value": 0}, "group": "control_change"}, {"time": 1420, "annotation": {"number": 64, "value": 127}, "group": "control_change"}, {"time": 1466, "annotation": {"number": 64, "value": 0}, "group": "control_change"}, {"time": 1468, "annotation": {"number": 64, "value": 127}, "group": "control_change"}, {"time": 1515, "annotation": {"number": 64, "value": 0}, "group": "control_change"}, {"time": 1516, "annotation": {"number": 64, "value": 127}, "group": "control_change"}, {"time": 1562, "annotation": {"number": 64, "value": 0}, "group": "control_change"}, {"time": 1564, "annotation": {"number": 64, "value": 127}, "group": "control_change"}, {"time": 1586, "annotation": {"number": 64, "value": 0}, "group": "control_change"}, {"time": 1588, "annotation": {"number": 64, "value": 127}, "group": "control_change"}, {"time": 1611, "annotation": {"number": 64, "value": 0}, "group": "control_change"}, {"time": 1612, "annotation": {"number": 64, "value": 127}, "group": "control_change"}, {"time": 1633, "annotation": {"number": 64, "value": 0}, "group": "control_change"}, {"time": 1634, "annotation": {"number": 64, "value": 127}, "group": "control_change"}, {"time": 1659, "annotation": {"number": 64, "value": 0}, "group": "control_change"}, {"time": 1660, "annotation": {"number": 64, "value": 127}, "group": "control_change"}, {"time": 1682, "annotation": {"number": 64, "value": 0}, "group": "control_change"}, {"time": 1684, "annotation": {"number": 64, "value": 127}, "group": "control_change"}, {"time": 1706, "annotation": {"number": 64, "value": 0}, "group": "control_change"}, {"time": 1708, "annotation": {"number": 64, "value": 127}, "group": "control_change"}, {"time": 1718, "annotation": {"number": 64, "value": 0}, "group": "control_change"}, {"time": 1720, "annotation": {"number": 64, "value": 127}, "group": "control_change"}, {"time": 1731, "annotation": {"number": 64, "value": 0}, "group": "control_change"}, {"time": 1733, "annotation": {"number": 64, "value": 127}, "group": "control_change"}, {"time": 1755, "annotation": {"number": 64, "value": 0}, "group": "control_change"}, {"time": 1761, "annotation": {"number": 64, "value": 127}, "group": "control_change"}, {"time": 1801, "annotation": {"number": 64, "value": 0}, "group": "control_change"}, {"time": 1804, "annotation": {"number": 64, "value": 127}, "group": "control_change"}, {"time": 1826, "annotation": {"number": 64, "value": 0}, "group": "control_change"}, {"time": 1840, "annotation": {"number": 64, "value": 127}, "group": "control_change"}, {"time": 1848, "annotation": {"number": 64, "value": 0}, "group": "control_change"}, {"time": 1855, "annotation": {"number": 64, "value": 127}, "group": "control_change"}, {"time": 1875, "annotation": {"number": 64, "value": 0}, "group": "control_change"}, {"time": 1877, "annotation": {"number": 64, "value": 127}, "group": "control_change"}, {"time": 1898, "annotation": {"number": 64, "value": 0}, "group": "control_change"}, {"time": 1900, "annotation": {"number": 64, "value": 127}, "group": "control_change"}, {"time": 1947, "annotation": {"number": 64, "value": 0}, "group": "control_change"}, {"time": 1948, "annotation": {"number": 64, "value": 127}, "group": "control_change"}, {"time": 1970, "annotation": {"number": 64, "value": 0}, "group": "control_change"}, {"time": 1972, "annotation": {"number": 64, "value": 127}, "group": "control_change"}, {"time": 1994, "annotation": {"number": 64, "value": 0}, "group": "control_change"}, {"time": 1996, "annotation": {"number": 64, "value": 127}, "group": "control_change"}, {"time": 2018, "annotation": {"number": 64, "value": 0}, "group": "control_change"}, {"time": 2020, "annotation": {"number": 64, "value": 127}, "group": "control_change"}, {"time": 2043, "annotation": {"number": 64, "value": 0}, "group": "control_change"}, {"time": 2044, "annotation": {"number": 64, "value": 127}, "group": "control_change"}, {"time": 2066, "annotation": {"number": 64, "value": 0}, "group": "control_change"}, {"time": 2068, "annotation": {"number": 64, "value": 127}, "group": "control_change"}, {"time": 2089, "annotation": {"number": 64, "value": 0}, "group": "control_change"}, {"time": 2091, "annotation": {"number": 64, "value": 127}, "group": "control_change"}, {"time": 2102, "annotation": {"number": 64, "value": 0}, "group": "control_change"}, {"time": 2104, "annotation": {"number": 64, "value": 127}, "group": "control_change"}, {"time": 2113, "annotation": {"number": 64, "value": 0}, "group": "control_change"}, {"time": 2116, "annotation": {"number": 64, "value": 127}, "group": "control_change"}, {"time": 2138, "annotation": {"number": 64, "value": 0}, "group": "control_change"}, {"time": 2140, "annotation": {"number": 64, "value": 127}, "group": "control_change"}, {"time": 2162, "annotation": {"number": 64, "value": 0}, "group": "control_change"}, {"time": 2164, "annotation": {"number": 64, "value": 127}, "group": "control_change"}, {"time": 2186, "annotation": {"number": 64, "value": 0}, "group": "control_change"}, {"time": 2188, "annotation": {"number": 64, "value": 127}, "group": "control_change"}, {"time": 2231, "annotation": {"number": 64, "value": 0}, "group": "control_change"}, {"time": 2236, "annotation": {"number": 64, "value": 127}, "group": "control_change"}, {"time": 2259, "annotation": {"number": 64, "value": 0}, "group": "control_change"}, {"time": 2260, "annotation": {"number": 64, "value": 127}, "group": "control_change"}, {"time": 2282, "annotation": {"number": 64, "value": 0}, "group": "control_change"}, {"time": 2284, "annotation": {"number": 64, "value": 127}, "group": "control_change"}, {"time": 2294, "annotation": {"number": 64, "value": 0}, "group": "control_change"}, {"time": 2296, "annotation": {"number": 64, "value": 127}, "group": "control_change"}, {"time": 2306, "annotation": {"number": 64, "value": 0}, "group": "control_change"}, {"time": 2308, "annotation": {"number": 64, "value": 127}, "group": "control_change"}, {"time": 2330, "annotation": {"number": 64, "value": 0}, "group": "control_change"}, {"time": 2333, "annotation": {"number": 64, "value": 127}, "group": "control_change"}, {"time": 2354, "annotation": {"number": 64, "value": 0}, "group": "control_change"}, {"time": 2356, "annotation": {"number": 64, "value": 127}, "group": "control_change"}, {"time": 2378, "annotation": {"number": 64, "value": 0}, "group": "control_change"}, {"time": 2380, "annotation": {"number": 64, "value": 127}, "group": "control_change"}, {"time": 2426, "annotation": {"number": 64, "value": 0}, "group": "control_change"}, {"time": 2428, "annotation": {"number": 64, "value": 127}, "group": "control_change"}, {"time": 2451, "annotation": {"number": 64, "value": 0}, "group": "control_change"}, {"time": 2452, "annotation": {"number": 64, "value": 127}, "group": "control_change"}, {"time": 2474, "annotation": {"number": 64, "value": 0}, "group": "control_change"}, {"time": 2476, "annotation": {"number": 64, "value": 127}, "group": "control_change"}, {"time": 2522, "annotation": {"number": 64, "value": 0}, "group": "control_change"}, {"time": 2524, "annotation": {"number": 64, "value": 127}, "group": "control_change"}, {"time": 2546, "annotation": {"number": 64, "value": 0}, "group": "control_change"}, {"time": 2548, "annotation": {"number": 64, "value": 127}, "group": "control_change"}, {"time": 2569, "annotation": {"number": 64, "value": 0}, "group": "control_change"}, {"time": 2572, "annotation": {"number": 64, "value": 127}, "group": "control_change"}, {"time": 2584, "annotation": {"number": 64, "value": 0}, "group": "control_change"}, {"time": 2585, "annotation": {"number": 64, "value": 127}, "group": "control_change"}, {"time": 2594, "annotation": {"number": 64, "value": 0}, "group": "control_change"}, {"time": 2596, "annotation": {"number": 64, "value": 127}, "group": "control_change"}, {"time": 2617, "annotation": {"number": 64, "value": 0}, "group": "control_change"}, {"time": 2620, "annotation": {"number": 64, "value": 127}, "group": "control_change"}, {"time": 2642, "annotation": {"number": 64, "value": 0}, "group": "control_change"}, {"time": 2644, "annotation": {"number": 64, "value": 127}, "group": "control_change"}, {"time": 2666, "annotation": {"number": 64, "value": 0}, "group": "control_change"}, {"time": 2668, "annotation": {"number": 64, "value": 127}, "group": "control_change"}, {"time": 2690, "annotation": {"number": 64, "value": 0}, "group": "control_change"}, {"time": 2692, "annotation": {"number": 64, "value": 127}, "group": "control_change"}, {"time": 2714, "annotation": {"number": 64, "value": 0}, "group": "control_change"}, {"time": 2716, "annotation": {"number": 64, "value": 127}, "group": "control_change"}, {"time": 2738, "annotation": {"number": 64, "value": 0}, "group": "control_change"}, {"time": 2740, "annotation": {"number": 64, "value": 127}, "group": "control_change"}, {"time": 2762, "annotation": {"number": 64, "value": 0}, "group": "control_change"}, {"time": 2764, "annotation": {"number": 64, "value": 127}, "group": "control_change"}, {"time": 2810, "annotation": {"number": 64, "value": 0}, "group": "control_change"}, {"time": 2812, "annotation": {"number": 64, "value": 127}, "group": "control_change"}, {"time": 2834, "annotation": {"number": 64, "value": 0}, "group": "control_change"}, {"time": 2836, "annotation": {"number": 64, "value": 127}, "group": "control_change"}, {"time": 2857, "annotation": {"number": 64, "value": 0}, "group": "control_change"}, {"time": 2860, "annotation": {"number": 64, "value": 127}, "group": "control_change"}, {"time": 2870, "annotation": {"number": 64, "value": 0}, "group": "control_change"}, {"time": 2872, "annotation": {"number": 64, "value": 127}, "group": "control_change"}, {"time": 2881, "annotation": {"number": 64, "value": 0}, "group": "control_change"}, {"time": 2884, "annotation": {"number": 64, "value": 127}, "group": "control_change"}, {"time": 2906, "annotation": {"number": 64, "value": 0}, "group": "control_change"}, {"time": 2909, "annotation": {"number": 64, "value": 127}, "group": "control_change"}, {"time": 2930, "annotation": {"number": 64, "value": 0}, "group": "control_change"}, {"time": 2932, "annotation": {"number": 64, "value": 127}, "group": "control_change"}, {"time": 2953, "annotation": {"number": 64, "value": 0}, "group": "control_change"}, {"time": 2956, "annotation": {"number": 64, "value": 127}, "group": "control_change"}, {"time": 2978, "annotation": {"number": 64, "value": 0}, "group": "control_change"}, {"time": 2980, "annotation": {"number": 64, "value": 127}, "group": "control_change"}, {"time": 3001, "annotation": {"number": 64, "value": 0}, "group": "control_change"}, {"time": 3003, "annotation": {"number": 64, "value": 127}, "group": "control_change"}, {"time": 3008, "annotation": {"number": 64, "value": 0}, "group": "control_change"}, {"time": 3015, "annotation": {"number": 64, "value": 127}, "group": "control_change"}, {"time": 3025, "annotation": {"number": 64, "value": 0}, "group": "control_change"}, {"time": 3028, "annotation": {"number": 64, "value": 127}, "group": "control_change"}, {"time": 3049, "annotation": {"number": 64, "value": 0}, "group": "control_change"}, {"time": 3052, "annotation": {"number": 64, "value": 127}, "group": "control_change"}, {"time": 3058, "annotation": {"number": 64, "value": 0}, "group": "control_change"}, {"time": 3064, "annotation": {"number": 64, "value": 127}, "group": "control_change"}, {"time": 3074, "annotation": {"number": 64, "value": 0}, "group": "control_change"}, {"time": 3076, "annotation": {"number": 64, "value": 127}, "group": "control_change"}, {"time": 3097, "annotation": {"number": 64, "value": 0}, "group": "control_change"}, {"time": 3100, "annotation": {"number": 64, "value": 127}, "group": "control_change"}, {"time": 3122, "annotation": {"number": 64, "value": 0}, "group": "control_change"}, {"time": 3124, "annotation": {"number": 64, "value": 127}, "group": "control_change"}, {"time": 3134, "annotation": {"number": 64, "value": 0}, "group": "control_change"}, {"time": 3136, "annotation": {"number": 64, "value": 127}, "group": "control_change"}, {"time": 3138, "annotation": {"number": 64, "value": 0}, "group": "control_change"}, {"time": 3148, "annotation": {"number": 64, "value": 127}, "group": "control_change"}, {"time": 3193, "annotation": {"number": 64, "value": 0}, "group": "control_change"}, {"time": 3196, "annotation": {"number": 64, "value": 127}, "group": "control_change"}, {"time": 3218, "annotation": {"number": 64, "value": 0}, "group": "control_change"}, {"time": 3220, "annotation": {"number": 64, "value": 127}, "group": "control_change"}, {"time": 3242, "annotation": {"number": 64, "value": 0}, "group": "control_change"}, {"time": 3244, "annotation": {"number": 64, "value": 127}, "group": "control_change"}, {"time": 3289, "annotation": {"number": 64, "value": 0}, "group": "control_change"}, {"time": 3292, "annotation": {"number": 64, "value": 127}, "group": "control_change"}, {"time": 3314, "annotation": {"number": 64, "value": 0}, "group": "control_change"}, {"time": 3316, "annotation": {"number": 64, "value": 127}, "group": "control_change"}, {"time": 3337, "annotation": {"number": 64, "value": 0}, "group": "control_change"}, {"time": 3340, "annotation": {"number": 64, "value": 127}, "group": "control_change"}, {"time": 3386, "annotation": {"number": 64, "value": 0}, "group": "control_change"}, {"time": 3389, "annotation": {"number": 64, "value": 127}, "group": "control_change"}, {"time": 3410, "annotation": {"number": 64, "value": 0}, "group": "control_change"}, {"time": 3412, "annotation": {"number": 64, "value": 127}, "group": "control_change"}, {"time": 3433, "annotation": {"number": 64, "value": 0}, "group": "control_change"}, {"time": 3436, "annotation": {"number": 64, "value": 127}, "group": "control_change"}, {"time": 3446, "annotation": {"number": 64, "value": 0}, "group": "control_change"}, {"time": 3449, "annotation": {"number": 64, "value": 127}, "group": "control_change"}, {"time": 3458, "annotation": {"number": 64, "value": 0}, "group": "control_change"}, {"time": 3460, "annotation": {"number": 64, "value": 127}, "group": "control_change"}, {"time": 3481, "annotation": {"number": 64, "value": 0}, "group": "control_change"}, {"time": 3495, "annotation": {"number": 64, "value": 127}, "group": "control_change"}, {"time": 3505, "annotation": {"number": 64, "value": 0}, "group": "control_change"}, {"time": 3509, "annotation": {"number": 64, "value": 127}, "group": "control_change"}, {"time": 3528, "annotation": {"number": 64, "value": 0}, "group": "control_change"}, {"time": 3532, "annotation": {"number": 64, "value": 127}, "group": "control_change"}, {"time": 3580, "annotation": {"number": 64, "value": 0}, "group": "control_change"}, {"time": 3583, "annotation": {"number": 64, "value": 127}, "group": "control_change"}, {"time": 3602, "annotation": {"number": 64, "value": 0}, "group": "control_change"}, {"time": 3604, "annotation": {"number": 64, "value": 127}, "group": "control_change"}, {"time": 3625, "annotation": {"number": 64, "value": 0}, "group": "control_change"}, {"time": 3628, "annotation": {"number": 64, "value": 127}, "group": "control_change"}, {"time": 3673, "annotation": {"number": 64, "value": 0}, "group": "control_change"}, {"time": 3676, "annotation": {"number": 64, "value": 127}, "group": "control_change"}, {"time": 3697, "annotation": {"number": 64, "value": 0}, "group": "control_change"}, {"time": 3700, "annotation": {"number": 64, "value": 127}, "group": "control_change"}, {"time": 3722, "annotation": {"number": 64, "value": 0}, "group": "control_change"}, {"time": 3724, "annotation": {"number": 64, "value": 127}, "group": "control_change"}, {"time": 3747, "annotation": {"number": 64, "value": 0}, "group": "control_change"}, {"time": 3749, "annotation": {"number": 64, "value": 127}, "group": "control_change"}, {"time": 3770, "annotation": {"number": 64, "value": 0}, "group": "control_change"}, {"time": 3772, "annotation": {"number": 64, "value": 127}, "group": "control_change"}, {"time": 3794, "annotation": {"number": 64, "value": 0}, "group": "control_change"}, {"time": 3796, "annotation": {"number": 64, "value": 127}, "group": "control_change"}, {"time": 3818, "annotation": {"number": 64, "value": 0}, "group": "control_change"}, {"time": 3820, "annotation": {"number": 64, "value": 127}, "group": "control_change"}, {"time": 3830, "annotation": {"number": 64, "value": 0}, "group": "control_change"}, {"time": 3832, "annotation": {"number": 64, "value": 127}, "group": "control_change"}, {"time": 3842, "annotation": {"number": 64, "value": 0}, "group": "control_change"}, {"time": 3844, "annotation": {"number": 64, "value": 127}, "group": "control_change"}, {"time": 3866, "annotation": {"number": 64, "value": 0}, "group": "control_change"}, {"time": 3868, "annotation": {"number": 64, "value": 127}, "group": "control_change"}, {"time": 3890, "annotation": {"number": 64, "value": 0}, "group": "control_change"}, {"time": 3892, "annotation": {"number": 64, "value": 127}, "group": "control_change"}, {"time": 3914, "annotation": {"number": 64, "value": 0}, "group": "control_change"}, {"time": 3916, "annotation": {"number": 64, "value": 127}, "group": "control_change"}, {"time": 3961, "annotation": {"number": 64, "value": 0}, "group": "control_change"}, {"time": 3964, "annotation": {"number": 64, "value": 127}, "group": "control_change"}, {"time": 3986, "annotation": {"number": 64, "value": 0}, "group": "control_change"}, {"time": 3988, "annotation": {"number": 64, "value": 127}, "group": "control_change"}, {"time": 4010, "annotation": {"number": 64, "value": 0}, "group": "control_change"}, {"time": 4012, "annotation": {"number": 64, "value": 127}, "group": "control_change"}, {"time": 4022, "annotation": {"number": 64, "value": 0}, "group": "control_change"}, {"time": 4025, "annotation": {"number": 64, "value": 127}, "group": "control_change"}, {"time": 4034, "annotation": {"number": 64, "value": 0}, "group": "control_change"}, {"time": 4036, "annotation": {"number": 64, "value": 127}, "group": "control_change"}, {"time": 4057, "annotation": {"number": 64, "value": 0}, "group": "control_change"}, {"time": 4060, "annotation": {"number": 64, "value": 127}, "group": "control_change"}, {"time": 4106, "annotation": {"number": 64, "value": 0}, "group": "control_change"}, {"time": 4108, "annotation": {"number": 64, "value": 127}, "group": "control_change"}, {"time": 4131, "annotation": {"number": 64, "value": 0}, "group": "control_change"}, {"time": 4132, "annotation": {"number": 64, "value": 127}, "group": "control_change"}, {"time": 4152, "annotation": {"number": 64, "value": 0}, "group": "control_change"}, {"time": 4156, "annotation": {"number": 64, "value": 127}, "group": "control_change"}, {"time": 4251, "annotation": {"number": 64, "value": 0}, "group": "control_change"}, {"time": 4252, "annotation": {"number": 64, "value": 127}, "group": "control_change"}, {"time": 4254, "annotation": {"number": 64, "value": 0}, "group": "control_change"}, {"time": 4256, "annotation": {"number": 64, "value": 127}, "group": "control_change"}, {"time": 4258, "annotation": {"number": 64, "value": 0}, "group": "control_change"}]}]}