{"metadata": {"schema_version": "0.2", "title": "None", "source_filename": "107.mid", "source_format": "midi"}, "resolution": 12, "tempos": [{"time": 0, "qpm": 143.99988480009216}, {"time": 288, "qpm": 142.0004070678336}, {"time": 396, "qpm": 143.000143000143}, {"time": 1440, "qpm": 143.99988480009216}, {"time": 2016, "qpm": 142.0004070678336}, {"time": 2052, "qpm": 140.00014000014}, {"time": 2268, "qpm": 142.0004070678336}, {"time": 2700, "qpm": 143.000143000143}, {"time": 2988, "qpm": 142.0004070678336}, {"time": 3060, "qpm": 140.99997180000565}, {"time": 3744, "qpm": 143.99988480009216}, {"time": 4320, "qpm": 142.0004070678336}, {"time": 4356, "qpm": 140.99997180000565}, {"time": 4572, "qpm": 142.0004070678336}, {"time": 4608, "qpm": 143.000143000143}], "time_signatures": [{"time": 0, "numerator": 3, "denominator": 4}], "tracks": [{"program": 0, "is_drum": false, "name": "MELODY", "notes": [{"time": 311, "pitch": 68, "duration": 12, "velocity": 92}, {"time": 323, "pitch": 73, "duration": 43, "velocity": 96}, {"time": 371, "pitch": 76, "duration": 12, "velocity": 69}, {"time": 383, "pitch": 68, "duration": 15, "velocity": 73}, {"time": 395, "pitch": 71, "duration": 22, "velocity": 69}, {"time": 419, "pitch": 73, "duration": 10, "velocity": 97}, {"time": 431, "pitch": 71, "duration": 24, "velocity": 71}, {"time": 461, "pitch": 68, "duration": 4, "velocity": 69}, {"time": 467, "pitch": 73, "duration": 10, "velocity": 85}, {"time": 479, "pitch": 73, "duration": 10, "velocity": 73}, {"time": 491, "pitch": 75, "duration": 9, "velocity": 90}, {"time": 503, "pitch": 76, "duration": 18, "velocity": 75}, {"time": 515, "pitch": 75, "duration": 15, "velocity": 74}, {"time": 539, "pitch": 71, "duration": 12, "velocity": 92}, {"time": 551, "pitch": 73, "duration": 43, "velocity": 75}, {"time": 599, "pitch": 68, "duration": 10, "velocity": 99}, {"time": 611, "pitch": 66, "duration": 19, "velocity": 83}, {"time": 635, "pitch": 68, "duration": 10, "velocity": 112}, {"time": 647, "pitch": 71, "duration": 18, "velocity": 83}, {"time": 671, "pitch": 68, "duration": 12, "velocity": 93}, {"time": 683, "pitch": 73, "duration": 8, "velocity": 90}, {"time": 695, "pitch": 73, "duration": 7, "velocity": 96}, {"time": 707, "pitch": 73, "duration": 9, "velocity": 88}, {"time": 719, "pitch": 68, "duration": 21, "velocity": 88}, {"time": 743, "pitch": 64, "duration": 14, "velocity": 85}, {"time": 755, "pitch": 66, "duration": 19, "velocity": 100}, {"time": 779, "pitch": 66, "duration": 3, "velocity": 99}, {"time": 785, "pitch": 66, "duration": 4, "velocity": 75}, {"time": 791, "pitch": 68, "duration": 12, "velocity": 92}, {"time": 803, "pitch": 66, "duration": 11, "velocity": 99}, {"time": 815, "pitch": 64, "duration": 13, "velocity": 89}, {"time": 827, "pitch": 68, "duration": 7, "velocity": 100}, {"time": 834, "pitch": 66, "duration": 7, "velocity": 86}, {"time": 840, "pitch": 68, "duration": 45, "velocity": 88}, {"time": 887, "pitch": 68, "duration": 10, "velocity": 100}, {"time": 899, "pitch": 73, "duration": 21, "velocity": 122}, {"time": 923, "pitch": 73, "duration": 15, "velocity": 102}, {"time": 947, "pitch": 75, "duration": 9, "velocity": 96}, {"time": 959, "pitch": 68, "duration": 13, "velocity": 99}, {"time": 971, "pitch": 71, "duration": 15, "velocity": 96}, {"time": 995, "pitch": 73, "duration": 13, "velocity": 107}, {"time": 1007, "pitch": 71, "duration": 20, "velocity": 90}, {"time": 1037, "pitch": 68, "duration": 7, "velocity": 92}, {"time": 1043, "pitch": 73, "duration": 9, "velocity": 93}, {"time": 1055, "pitch": 73, "duration": 9, "velocity": 97}, {"time": 1067, "pitch": 75, "duration": 7, "velocity": 102}, {"time": 1079, "pitch": 76, "duration": 13, "velocity": 79}, {"time": 1091, "pitch": 75, "duration": 15, "velocity": 96}, {"time": 1109, "pitch": 71, "duration": 5, "velocity": 88}, {"time": 1115, "pitch": 73, "duration": 52, "velocity": 97}, {"time": 1175, "pitch": 68, "duration": 11, "velocity": 100}, {"time": 1187, "pitch": 66, "duration": 21, "velocity": 92}, {"time": 1211, "pitch": 68, "duration": 12, "velocity": 90}, {"time": 1223, "pitch": 71, "duration": 20, "velocity": 89}, {"time": 1247, "pitch": 68, "duration": 11, "velocity": 96}, {"time": 1259, "pitch": 73, "duration": 18, "velocity": 97}, {"time": 1283, "pitch": 73, "duration": 10, "velocity": 100}, {"time": 1295, "pitch": 68, "duration": 16, "velocity": 102}, {"time": 1319, "pitch": 64, "duration": 3, "velocity": 88}, {"time": 1325, "pitch": 64, "duration": 5, "velocity": 82}, {"time": 1331, "pitch": 66, "duration": 19, "velocity": 100}, {"time": 1355, "pitch": 66, "duration": 10, "velocity": 97}, {"time": 1367, "pitch": 68, "duration": 12, "velocity": 102}, {"time": 1379, "pitch": 66, "duration": 14, "velocity": 97}, {"time": 1391, "pitch": 59, "duration": 12, "velocity": 93}, {"time": 1403, "pitch": 61, "duration": 59, "velocity": 99}, {"time": 1475, "pitch": 80, "duration": 20, "velocity": 122}, {"time": 1499, "pitch": 76, "duration": 9, "velocity": 102}, {"time": 1511, "pitch": 78, "duration": 21, "velocity": 127}, {"time": 1547, "pitch": 78, "duration": 18, "velocity": 127}, {"time": 1571, "pitch": 80, "duration": 8, "velocity": 122}, {"time": 1583, "pitch": 76, "duration": 5, "velocity": 112}, {"time": 1588, "pitch": 73, "duration": 22, "velocity": 102}, {"time": 1619, "pitch": 75, "duration": 2, "velocity": 117}, {"time": 1625, "pitch": 75, "duration": 3, "velocity": 88}, {"time": 1631, "pitch": 75, "duration": 6, "velocity": 96}, {"time": 1643, "pitch": 75, "duration": 8, "velocity": 122}, {"time": 1655, "pitch": 76, "duration": 9, "velocity": 102}, {"time": 1667, "pitch": 75, "duration": 11, "velocity": 117}, {"time": 1685, "pitch": 71, "duration": 6, "velocity": 85}, {"time": 1691, "pitch": 73, "duration": 24, "velocity": 107}, {"time": 1721, "pitch": 80, "duration": 3, "velocity": 117}, {"time": 1727, "pitch": 80, "duration": 13, "velocity": 127}, {"time": 1763, "pitch": 81, "duration": 19, "velocity": 127}, {"time": 1787, "pitch": 80, "duration": 8, "velocity": 122}, {"time": 1799, "pitch": 78, "duration": 29, "velocity": 127}, {"time": 1835, "pitch": 78, "duration": 8, "velocity": 127}, {"time": 1847, "pitch": 78, "duration": 8, "velocity": 122}, {"time": 1859, "pitch": 80, "duration": 9, "velocity": 122}, {"time": 1872, "pitch": 76, "duration": 4, "velocity": 100}, {"time": 1876, "pitch": 73, "duration": 25, "velocity": 100}, {"time": 1907, "pitch": 75, "duration": 3, "velocity": 100}, {"time": 1913, "pitch": 75, "duration": 2, "velocity": 107}, {"time": 1919, "pitch": 75, "duration": 5, "velocity": 112}, {"time": 1931, "pitch": 75, "duration": 6, "velocity": 127}, {"time": 1943, "pitch": 71, "duration": 9, "velocity": 102}, {"time": 1955, "pitch": 68, "duration": 12, "velocity": 117}, {"time": 1973, "pitch": 75, "duration": 5, "velocity": 97}, {"time": 1979, "pitch": 73, "duration": 64, "velocity": 122}, {"time": 2615, "pitch": 68, "duration": 12, "velocity": 92}, {"time": 2627, "pitch": 73, "duration": 43, "velocity": 96}, {"time": 2675, "pitch": 76, "duration": 12, "velocity": 69}, {"time": 2687, "pitch": 68, "duration": 15, "velocity": 73}, {"time": 2699, "pitch": 71, "duration": 22, "velocity": 69}, {"time": 2723, "pitch": 73, "duration": 10, "velocity": 97}, {"time": 2735, "pitch": 71, "duration": 24, "velocity": 71}, {"time": 2765, "pitch": 68, "duration": 4, "velocity": 69}, {"time": 2771, "pitch": 73, "duration": 10, "velocity": 85}, {"time": 2783, "pitch": 73, "duration": 10, "velocity": 73}, {"time": 2795, "pitch": 75, "duration": 9, "velocity": 90}, {"time": 2807, "pitch": 76, "duration": 18, "velocity": 75}, {"time": 2819, "pitch": 75, "duration": 15, "velocity": 74}, {"time": 2843, "pitch": 71, "duration": 12, "velocity": 59}, {"time": 2855, "pitch": 73, "duration": 43, "velocity": 75}, {"time": 2903, "pitch": 68, "duration": 10, "velocity": 99}, {"time": 2915, "pitch": 66, "duration": 19, "velocity": 83}, {"time": 2939, "pitch": 68, "duration": 10, "velocity": 112}, {"time": 2951, "pitch": 71, "duration": 18, "velocity": 83}, {"time": 2975, "pitch": 68, "duration": 12, "velocity": 93}, {"time": 2987, "pitch": 73, "duration": 8, "velocity": 90}, {"time": 2999, "pitch": 73, "duration": 7, "velocity": 96}, {"time": 3011, "pitch": 73, "duration": 9, "velocity": 88}, {"time": 3023, "pitch": 68, "duration": 21, "velocity": 88}, {"time": 3047, "pitch": 64, "duration": 14, "velocity": 85}, {"time": 3059, "pitch": 66, "duration": 19, "velocity": 100}, {"time": 3083, "pitch": 66, "duration": 3, "velocity": 99}, {"time": 3089, "pitch": 66, "duration": 4, "velocity": 75}, {"time": 3095, "pitch": 68, "duration": 12, "velocity": 92}, {"time": 3107, "pitch": 66, "duration": 11, "velocity": 99}, {"time": 3119, "pitch": 64, "duration": 13, "velocity": 89}, {"time": 3131, "pitch": 68, "duration": 58, "velocity": 100}, {"time": 3191, "pitch": 68, "duration": 10, "velocity": 100}, {"time": 3203, "pitch": 73, "duration": 21, "velocity": 122}, {"time": 3227, "pitch": 73, "duration": 15, "velocity": 102}, {"time": 3251, "pitch": 75, "duration": 9, "velocity": 96}, {"time": 3263, "pitch": 68, "duration": 13, "velocity": 99}, {"time": 3275, "pitch": 71, "duration": 15, "velocity": 96}, {"time": 3299, "pitch": 73, "duration": 13, "velocity": 107}, {"time": 3311, "pitch": 71, "duration": 20, "velocity": 90}, {"time": 3341, "pitch": 68, "duration": 7, "velocity": 92}, {"time": 3347, "pitch": 73, "duration": 9, "velocity": 93}, {"time": 3359, "pitch": 73, "duration": 9, "velocity": 97}, {"time": 3371, "pitch": 75, "duration": 7, "velocity": 102}, {"time": 3383, "pitch": 76, "duration": 13, "velocity": 79}, {"time": 3395, "pitch": 75, "duration": 15, "velocity": 96}, {"time": 3413, "pitch": 71, "duration": 5, "velocity": 88}, {"time": 3419, "pitch": 73, "duration": 52, "velocity": 97}, {"time": 3479, "pitch": 68, "duration": 11, "velocity": 100}, {"time": 3491, "pitch": 66, "duration": 21, "velocity": 92}, {"time": 3515, "pitch": 68, "duration": 12, "velocity": 90}, {"time": 3527, "pitch": 71, "duration": 20, "velocity": 89}, {"time": 3551, "pitch": 68, "duration": 11, "velocity": 96}, {"time": 3563, "pitch": 73, "duration": 18, "velocity": 97}, {"time": 3587, "pitch": 73, "duration": 10, "velocity": 100}, {"time": 3599, "pitch": 68, "duration": 16, "velocity": 102}, {"time": 3623, "pitch": 64, "duration": 3, "velocity": 88}, {"time": 3629, "pitch": 64, "duration": 5, "velocity": 82}, {"time": 3635, "pitch": 66, "duration": 19, "velocity": 100}, {"time": 3659, "pitch": 66, "duration": 10, "velocity": 97}, {"time": 3671, "pitch": 68, "duration": 12, "velocity": 102}, {"time": 3683, "pitch": 66, "duration": 14, "velocity": 97}, {"time": 3695, "pitch": 59, "duration": 12, "velocity": 93}, {"time": 3707, "pitch": 61, "duration": 61, "velocity": 99}, {"time": 3779, "pitch": 80, "duration": 20, "velocity": 122}, {"time": 3803, "pitch": 76, "duration": 9, "velocity": 102}, {"time": 3815, "pitch": 78, "duration": 21, "velocity": 127}, {"time": 3851, "pitch": 78, "duration": 18, "velocity": 127}, {"time": 3875, "pitch": 80, "duration": 8, "velocity": 122}, {"time": 3887, "pitch": 76, "duration": 4, "velocity": 102}, {"time": 3892, "pitch": 73, "duration": 21, "velocity": 96}, {"time": 3923, "pitch": 75, "duration": 2, "velocity": 117}, {"time": 3929, "pitch": 75, "duration": 3, "velocity": 88}, {"time": 3935, "pitch": 75, "duration": 6, "velocity": 96}, {"time": 3947, "pitch": 75, "duration": 8, "velocity": 122}, {"time": 3959, "pitch": 76, "duration": 9, "velocity": 102}, {"time": 3971, "pitch": 75, "duration": 11, "velocity": 117}, {"time": 3989, "pitch": 71, "duration": 6, "velocity": 85}, {"time": 3995, "pitch": 73, "duration": 20, "velocity": 107}, {"time": 4025, "pitch": 80, "duration": 3, "velocity": 117}, {"time": 4031, "pitch": 80, "duration": 13, "velocity": 127}, {"time": 4067, "pitch": 81, "duration": 19, "velocity": 127}, {"time": 4091, "pitch": 80, "duration": 8, "velocity": 122}, {"time": 4103, "pitch": 78, "duration": 18, "velocity": 127}, {"time": 4139, "pitch": 78, "duration": 8, "velocity": 127}, {"time": 4151, "pitch": 78, "duration": 8, "velocity": 122}, {"time": 4163, "pitch": 80, "duration": 9, "velocity": 122}, {"time": 4175, "pitch": 73, "duration": 31, "velocity": 117}, {"time": 4211, "pitch": 75, "duration": 3, "velocity": 100}, {"time": 4217, "pitch": 75, "duration": 2, "velocity": 107}, {"time": 4223, "pitch": 75, "duration": 5, "velocity": 112}, {"time": 4235, "pitch": 75, "duration": 6, "velocity": 127}, {"time": 4247, "pitch": 71, "duration": 9, "velocity": 102}, {"time": 4259, "pitch": 68, "duration": 12, "velocity": 117}, {"time": 4277, "pitch": 75, "duration": 5, "velocity": 97}, {"time": 4283, "pitch": 73, "duration": 64, "velocity": 122}, {"time": 4355, "pitch": 80, "duration": 20, "velocity": 122}, {"time": 4379, "pitch": 76, "duration": 9, "velocity": 102}, {"time": 4391, "pitch": 78, "duration": 21, "velocity": 127}, {"time": 4427, "pitch": 78, "duration": 18, "velocity": 127}, {"time": 4451, "pitch": 80, "duration": 8, "velocity": 122}, {"time": 4464, "pitch": 76, "duration": 4, "velocity": 112}, {"time": 4468, "pitch": 73, "duration": 22, "velocity": 96}, {"time": 4499, "pitch": 75, "duration": 2, "velocity": 117}, {"time": 4505, "pitch": 75, "duration": 3, "velocity": 88}, {"time": 4511, "pitch": 75, "duration": 6, "velocity": 96}, {"time": 4523, "pitch": 75, "duration": 8, "velocity": 122}, {"time": 4535, "pitch": 76, "duration": 9, "velocity": 102}, {"time": 4547, "pitch": 75, "duration": 11, "velocity": 117}, {"time": 4565, "pitch": 71, "duration": 6, "velocity": 85}, {"time": 4571, "pitch": 73, "duration": 20, "velocity": 107}, {"time": 4601, "pitch": 80, "duration": 3, "velocity": 117}, {"time": 4607, "pitch": 80, "duration": 13, "velocity": 127}, {"time": 4625, "pitch": 81, "duration": 3, "velocity": 99}, {"time": 4627, "pitch": 80, "duration": 4, "velocity": 96}, {"time": 4630, "pitch": 78, "duration": 4, "velocity": 117}, {"time": 4643, "pitch": 81, "duration": 19, "velocity": 127}, {"time": 4667, "pitch": 80, "duration": 8, "velocity": 122}, {"time": 4679, "pitch": 78, "duration": 18, "velocity": 127}, {"time": 4715, "pitch": 78, "duration": 8, "velocity": 127}, {"time": 4727, "pitch": 78, "duration": 8, "velocity": 122}, {"time": 4739, "pitch": 83, "duration": 9, "velocity": 122}, {"time": 4751, "pitch": 78, "duration": 9, "velocity": 117}, {"time": 4760, "pitch": 76, "duration": 28, "velocity": 117}, {"time": 4787, "pitch": 75, "duration": 3, "velocity": 100}, {"time": 4793, "pitch": 75, "duration": 2, "velocity": 107}, {"time": 4799, "pitch": 75, "duration": 5, "velocity": 112}, {"time": 4811, "pitch": 75, "duration": 6, "velocity": 127}, {"time": 4823, "pitch": 71, "duration": 9, "velocity": 102}, {"time": 4835, "pitch": 68, "duration": 12, "velocity": 117}, {"time": 4853, "pitch": 75, "duration": 5, "velocity": 97}, {"time": 4859, "pitch": 73, "duration": 22, "velocity": 122}, {"time": 4883, "pitch": 75, "duration": 7, "velocity": 107}, {"time": 4895, "pitch": 76, "duration": 7, "velocity": 95}, {"time": 4907, "pitch": 78, "duration": 12, "velocity": 112}, {"time": 4931, "pitch": 80, "duration": 20, "velocity": 122}, {"time": 4955, "pitch": 83, "duration": 9, "velocity": 102}, {"time": 4967, "pitch": 78, "duration": 21, "velocity": 127}, {"time": 5003, "pitch": 78, "duration": 18, "velocity": 127}, {"time": 5027, "pitch": 83, "duration": 8, "velocity": 122}, {"time": 5038, "pitch": 85, "duration": 5, "velocity": 127}, {"time": 5042, "pitch": 83, "duration": 5, "velocity": 86}, {"time": 5047, "pitch": 78, "duration": 4, "velocity": 100}, {"time": 5051, "pitch": 76, "duration": 19, "velocity": 92}, {"time": 5075, "pitch": 75, "duration": 2, "velocity": 117}, {"time": 5081, "pitch": 75, "duration": 3, "velocity": 88}, {"time": 5087, "pitch": 75, "duration": 6, "velocity": 96}, {"time": 5099, "pitch": 76, "duration": 8, "velocity": 122}, {"time": 5111, "pitch": 78, "duration": 9, "velocity": 102}, {"time": 5123, "pitch": 75, "duration": 11, "velocity": 117}, {"time": 5141, "pitch": 71, "duration": 6, "velocity": 85}, {"time": 5147, "pitch": 73, "duration": 20, "velocity": 107}, {"time": 5177, "pitch": 80, "duration": 3, "velocity": 117}, {"time": 5183, "pitch": 80, "duration": 7, "velocity": 127}, {"time": 5189, "pitch": 78, "duration": 5, "velocity": 117}, {"time": 5195, "pitch": 80, "duration": 9, "velocity": 122}, {"time": 5219, "pitch": 81, "duration": 19, "velocity": 127}, {"time": 5243, "pitch": 80, "duration": 8, "velocity": 122}, {"time": 5256, "pitch": 81, "duration": 6, "velocity": 127}, {"time": 5261, "pitch": 80, "duration": 4, "velocity": 82}, {"time": 5265, "pitch": 78, "duration": 19, "velocity": 127}, {"time": 5291, "pitch": 78, "duration": 8, "velocity": 127}, {"time": 5303, "pitch": 78, "duration": 8, "velocity": 122}, {"time": 5315, "pitch": 83, "duration": 9, "velocity": 122}, {"time": 5327, "pitch": 76, "duration": 11, "velocity": 117}, {"time": 5344, "pitch": 78, "duration": 4, "velocity": 117}, {"time": 5349, "pitch": 80, "duration": 7, "velocity": 112}, {"time": 5363, "pitch": 75, "duration": 3, "velocity": 100}, {"time": 5369, "pitch": 75, "duration": 2, "velocity": 107}, {"time": 5375, "pitch": 75, "duration": 5, "velocity": 112}, {"time": 5387, "pitch": 75, "duration": 6, "velocity": 127}, {"time": 5399, "pitch": 78, "duration": 9, "velocity": 102}, {"time": 5411, "pitch": 75, "duration": 12, "velocity": 117}, {"time": 5429, "pitch": 71, "duration": 5, "velocity": 97}, {"time": 5435, "pitch": 73, "duration": 22, "velocity": 122}, {"time": 5459, "pitch": 75, "duration": 7, "velocity": 107}, {"time": 5471, "pitch": 76, "duration": 7, "velocity": 95}, {"time": 5483, "pitch": 78, "duration": 12, "velocity": 112}, {"time": 5507, "pitch": 80, "duration": 20, "velocity": 122}, {"time": 5531, "pitch": 76, "duration": 9, "velocity": 102}, {"time": 5543, "pitch": 78, "duration": 21, "velocity": 127}, {"time": 5579, "pitch": 78, "duration": 18, "velocity": 127}, {"time": 5603, "pitch": 80, "duration": 8, "velocity": 122}, {"time": 5615, "pitch": 73, "duration": 23, "velocity": 117}, {"time": 5651, "pitch": 75, "duration": 2, "velocity": 117}, {"time": 5657, "pitch": 75, "duration": 3, "velocity": 88}, {"time": 5663, "pitch": 75, "duration": 6, "velocity": 96}, {"time": 5675, "pitch": 75, "duration": 8, "velocity": 122}, {"time": 5687, "pitch": 76, "duration": 9, "velocity": 102}, {"time": 5699, "pitch": 75, "duration": 11, "velocity": 117}, {"time": 5717, "pitch": 71, "duration": 6, "velocity": 85}, {"time": 5723, "pitch": 73, "duration": 20, "velocity": 107}, {"time": 5753, "pitch": 80, "duration": 3, "velocity": 117}, {"time": 5759, "pitch": 80, "duration": 13, "velocity": 127}, {"time": 5795, "pitch": 81, "duration": 19, "velocity": 127}, {"time": 5819, "pitch": 80, "duration": 8, "velocity": 122}, {"time": 5831, "pitch": 78, "duration": 18, "velocity": 127}, {"time": 5867, "pitch": 78, "duration": 8, "velocity": 127}, {"time": 5879, "pitch": 78, "duration": 8, "velocity": 122}, {"time": 5891, "pitch": 83, "duration": 9, "velocity": 122}, {"time": 5903, "pitch": 78, "duration": 36, "velocity": 117}, {"time": 5939, "pitch": 75, "duration": 3, "velocity": 100}, {"time": 5945, "pitch": 75, "duration": 2, "velocity": 107}, {"time": 5951, "pitch": 75, "duration": 5, "velocity": 112}, {"time": 5963, "pitch": 75, "duration": 6, "velocity": 127}, {"time": 5975, "pitch": 71, "duration": 9, "velocity": 102}, {"time": 5987, "pitch": 68, "duration": 12, "velocity": 117}, {"time": 6005, "pitch": 75, "duration": 5, "velocity": 97}, {"time": 6011, "pitch": 73, "duration": 22, "velocity": 122}, {"time": 6035, "pitch": 75, "duration": 7, "velocity": 107}, {"time": 6047, "pitch": 76, "duration": 7, "velocity": 95}, {"time": 6059, "pitch": 78, "duration": 12, "velocity": 112}], "annotations": [{"time": 35, "annotation": {"number": 64, "value": 86}, "group": "control_change"}, {"time": 71, "annotation": {"number": 64, "value": 87}, "group": "control_change"}, {"time": 107, "annotation": {"number": 64, "value": 83}, "group": "control_change"}, {"time": 143, "annotation": {"number": 64, "value": 81}, "group": "control_change"}, {"time": 179, "annotation": {"number": 64, "value": 80}, "group": "control_change"}, {"time": 215, "annotation": {"number": 64, "value": 76}, "group": "control_change"}, {"time": 251, "annotation": {"number": 64, "value": 75}, "group": "control_change"}, {"time": 287, "annotation": {"number": 64, "value": 78}, "group": "control_change"}, {"time": 323, "annotation": {"number": 64, "value": 57}, "group": "control_change"}, {"time": 683, "annotation": {"number": 64, "value": 58}, "group": "control_change"}, {"time": 1079, "annotation": {"number": 64, "value": 59}, "group": "control_change"}, {"time": 1151, "annotation": {"number": 64, "value": 60}, "group": "control_change"}, {"time": 1295, "annotation": {"number": 64, "value": 61}, "group": "control_change"}, {"time": 1691, "annotation": {"number": 64, "value": 62}, "group": "control_change"}, {"time": 1907, "annotation": {"number": 64, "value": 61}, "group": "control_change"}, {"time": 2015, "annotation": {"number": 64, "value": 60}, "group": "control_change"}, {"time": 2159, "annotation": {"number": 64, "value": 59}, "group": "control_change"}, {"time": 2339, "annotation": {"number": 64, "value": 58}, "group": "control_change"}, {"time": 2411, "annotation": {"number": 64, "value": 57}, "group": "control_change"}, {"time": 2987, "annotation": {"number": 64, "value": 56}, "group": "control_change"}, {"time": 3059, "annotation": {"number": 64, "value": 57}, "group": "control_change"}, {"time": 4391, "annotation": {"number": 64, "value": 58}, "group": "control_change"}, {"time": 5003, "annotation": {"number": 64, "value": 57}, "group": "control_change"}, {"time": 5579, "annotation": {"number": 64, "value": 56}, "group": "control_change"}, {"time": 5651, "annotation": {"number": 64, "value": 57}, "group": "control_change"}, {"time": 6011, "annotation": {"number": 64, "value": 58}, "group": "control_change"}]}, {"program": 0, "is_drum": false, "name": "BRIDGE", "notes": [{"time": 35, "pitch": 73, "duration": 11, "velocity": 89}, {"time": 35, "pitch": 85, "duration": 11, "velocity": 89}, {"time": 47, "pitch": 80, "duration": 12, "velocity": 99}, {"time": 47, "pitch": 92, "duration": 12, "velocity": 99}, {"time": 59, "pitch": 73, "duration": 12, "velocity": 97}, {"time": 59, "pitch": 85, "duration": 12, "velocity": 97}, {"time": 71, "pitch": 80, "duration": 24, "velocity": 112}, {"time": 71, "pitch": 92, "duration": 24, "velocity": 112}, {"time": 107, "pitch": 73, "duration": 11, "velocity": 102}, {"time": 107, "pitch": 85, "duration": 11, "velocity": 102}, {"time": 119, "pitch": 78, "duration": 10, "velocity": 93}, {"time": 119, "pitch": 90, "duration": 10, "velocity": 93}, {"time": 131, "pitch": 73, "duration": 12, "velocity": 77}, {"time": 131, "pitch": 85, "duration": 12, "velocity": 77}, {"time": 143, "pitch": 78, "duration": 30, "velocity": 102}, {"time": 143, "pitch": 90, "duration": 30, "velocity": 102}, {"time": 179, "pitch": 73, "duration": 12, "velocity": 102}, {"time": 179, "pitch": 85, "duration": 12, "velocity": 102}, {"time": 191, "pitch": 76, "duration": 11, "velocity": 83}, {"time": 191, "pitch": 88, "duration": 11, "velocity": 83}, {"time": 203, "pitch": 73, "duration": 12, "velocity": 90}, {"time": 203, "pitch": 85, "duration": 12, "velocity": 90}, {"time": 215, "pitch": 76, "duration": 32, "velocity": 97}, {"time": 215, "pitch": 88, "duration": 32, "velocity": 97}, {"time": 251, "pitch": 68, "duration": 13, "velocity": 93}, {"time": 251, "pitch": 80, "duration": 13, "velocity": 93}, {"time": 263, "pitch": 75, "duration": 12, "velocity": 93}, {"time": 263, "pitch": 87, "duration": 12, "velocity": 93}, {"time": 275, "pitch": 68, "duration": 15, "velocity": 72}, {"time": 275, "pitch": 80, "duration": 15, "velocity": 72}, {"time": 287, "pitch": 75, "duration": 35, "velocity": 89}, {"time": 287, "pitch": 87, "duration": 35, "velocity": 89}, {"time": 569, "pitch": 68, "duration": 7, "velocity": 89}, {"time": 575, "pitch": 80, "duration": 7, "velocity": 102}, {"time": 587, "pitch": 73, "duration": 13, "velocity": 96}, {"time": 599, "pitch": 75, "duration": 6, "velocity": 92}, {"time": 605, "pitch": 76, "duration": 7, "velocity": 57}, {"time": 611, "pitch": 78, "duration": 36, "velocity": 112}, {"time": 861, "pitch": 78, "duration": 14, "velocity": 117}, {"time": 874, "pitch": 80, "duration": 56, "velocity": 97}, {"time": 1126, "pitch": 73, "duration": 12, "velocity": 112}, {"time": 1138, "pitch": 75, "duration": 14, "velocity": 100}, {"time": 1151, "pitch": 71, "duration": 16, "velocity": 112}, {"time": 1163, "pitch": 73, "duration": 13, "velocity": 78}, {"time": 1175, "pitch": 76, "duration": 12, "velocity": 93}, {"time": 1187, "pitch": 78, "duration": 46, "velocity": 100}, {"time": 1427, "pitch": 75, "duration": 4, "velocity": 122}, {"time": 1440, "pitch": 75, "duration": 3, "velocity": 127}, {"time": 1451, "pitch": 76, "duration": 6, "velocity": 97}, {"time": 1463, "pitch": 78, "duration": 6, "velocity": 127}, {"time": 1470, "pitch": 76, "duration": 3, "velocity": 92}, {"time": 1472, "pitch": 78, "duration": 4, "velocity": 102}, {"time": 1475, "pitch": 80, "duration": 38, "velocity": 112}, {"time": 1512, "pitch": 78, "duration": 25, "velocity": 112}, {"time": 2051, "pitch": 73, "duration": 41, "velocity": 117}, {"time": 2099, "pitch": 75, "duration": 8, "velocity": 117}, {"time": 2111, "pitch": 68, "duration": 9, "velocity": 99}, {"time": 2123, "pitch": 71, "duration": 28, "velocity": 89}, {"time": 2147, "pitch": 73, "duration": 13, "velocity": 112}, {"time": 2159, "pitch": 71, "duration": 30, "velocity": 102}, {"time": 2195, "pitch": 73, "duration": 10, "velocity": 122}, {"time": 2207, "pitch": 73, "duration": 10, "velocity": 107}, {"time": 2219, "pitch": 75, "duration": 9, "velocity": 112}, {"time": 2231, "pitch": 76, "duration": 13, "velocity": 99}, {"time": 2243, "pitch": 75, "duration": 18, "velocity": 96}, {"time": 2255, "pitch": 71, "duration": 13, "velocity": 95}, {"time": 2267, "pitch": 73, "duration": 52, "velocity": 100}, {"time": 2303, "pitch": 57, "duration": 11, "velocity": 112}, {"time": 2315, "pitch": 59, "duration": 10, "velocity": 99}, {"time": 2327, "pitch": 61, "duration": 12, "velocity": 117}, {"time": 2339, "pitch": 80, "duration": 19, "velocity": 127}, {"time": 2363, "pitch": 76, "duration": 10, "velocity": 99}, {"time": 2375, "pitch": 78, "duration": 31, "velocity": 117}, {"time": 2411, "pitch": 78, "duration": 9, "velocity": 127}, {"time": 2423, "pitch": 78, "duration": 10, "velocity": 112}, {"time": 2435, "pitch": 78, "duration": 6, "velocity": 122}, {"time": 2441, "pitch": 80, "duration": 6, "velocity": 117}, {"time": 2447, "pitch": 76, "duration": 12, "velocity": 102}, {"time": 2459, "pitch": 73, "duration": 18, "velocity": 100}, {"time": 2483, "pitch": 75, "duration": 8, "velocity": 112}, {"time": 2495, "pitch": 75, "duration": 24, "velocity": 100}, {"time": 2519, "pitch": 76, "duration": 11, "velocity": 95}, {"time": 2531, "pitch": 78, "duration": 11, "velocity": 102}, {"time": 2543, "pitch": 81, "duration": 11, "velocity": 99}, {"time": 2555, "pitch": 80, "duration": 68, "velocity": 122}, {"time": 2873, "pitch": 68, "duration": 7, "velocity": 89}, {"time": 2879, "pitch": 80, "duration": 7, "velocity": 102}, {"time": 2891, "pitch": 73, "duration": 13, "velocity": 96}, {"time": 2903, "pitch": 75, "duration": 6, "velocity": 92}, {"time": 2909, "pitch": 76, "duration": 7, "velocity": 57}, {"time": 2915, "pitch": 78, "duration": 36, "velocity": 112}, {"time": 3165, "pitch": 78, "duration": 14, "velocity": 117}, {"time": 3178, "pitch": 80, "duration": 56, "velocity": 97}, {"time": 3430, "pitch": 73, "duration": 12, "velocity": 112}, {"time": 3442, "pitch": 75, "duration": 14, "velocity": 100}, {"time": 3455, "pitch": 71, "duration": 16, "velocity": 112}, {"time": 3467, "pitch": 73, "duration": 13, "velocity": 78}, {"time": 3479, "pitch": 76, "duration": 12, "velocity": 93}, {"time": 3491, "pitch": 78, "duration": 46, "velocity": 100}, {"time": 3731, "pitch": 75, "duration": 4, "velocity": 122}, {"time": 3743, "pitch": 75, "duration": 4, "velocity": 127}, {"time": 3755, "pitch": 76, "duration": 6, "velocity": 97}, {"time": 3767, "pitch": 78, "duration": 6, "velocity": 127}, {"time": 3774, "pitch": 76, "duration": 3, "velocity": 92}, {"time": 3776, "pitch": 78, "duration": 4, "velocity": 102}, {"time": 3779, "pitch": 80, "duration": 38, "velocity": 112}, {"time": 3815, "pitch": 78, "duration": 25, "velocity": 112}, {"time": 4319, "pitch": 69, "duration": 4, "velocity": 102}, {"time": 4331, "pitch": 71, "duration": 5, "velocity": 112}, {"time": 4343, "pitch": 75, "duration": 5, "velocity": 122}, {"time": 4347, "pitch": 76, "duration": 5, "velocity": 70}, {"time": 4349, "pitch": 78, "duration": 7, "velocity": 76}, {"time": 4353, "pitch": 79, "duration": 5, "velocity": 75}, {"time": 4356, "pitch": 80, "duration": 33, "velocity": 112}, {"time": 5471, "pitch": 69, "duration": 4, "velocity": 102}, {"time": 5483, "pitch": 71, "duration": 5, "velocity": 112}, {"time": 5495, "pitch": 75, "duration": 5, "velocity": 122}, {"time": 5499, "pitch": 76, "duration": 5, "velocity": 70}, {"time": 5501, "pitch": 78, "duration": 7, "velocity": 76}, {"time": 5505, "pitch": 79, "duration": 5, "velocity": 75}, {"time": 5508, "pitch": 80, "duration": 33, "velocity": 112}], "annotations": [{"time": 107, "annotation": {"number": 64, "value": 67}, "group": "control_change"}, {"time": 359, "annotation": {"number": 64, "value": 68}, "group": "control_change"}, {"time": 395, "annotation": {"number": 64, "value": 68}, "group": "control_change"}, {"time": 539, "annotation": {"number": 64, "value": 81}, "group": "control_change"}, {"time": 575, "annotation": {"number": 64, "value": 44}, "group": "control_change"}, {"time": 611, "annotation": {"number": 64, "value": 27}, "group": "control_change"}, {"time": 647, "annotation": {"number": 64, "value": 25}, "group": "control_change"}, {"time": 683, "annotation": {"number": 64, "value": 36}, "group": "control_change"}, {"time": 755, "annotation": {"number": 64, "value": 68}, "group": "control_change"}, {"time": 1151, "annotation": {"number": 64, "value": 69}, "group": "control_change"}, {"time": 1259, "annotation": {"number": 64, "value": 68}, "group": "control_change"}, {"time": 1295, "annotation": {"number": 64, "value": 67}, "group": "control_change"}, {"time": 1367, "annotation": {"number": 64, "value": 66}, "group": "control_change"}, {"time": 1403, "annotation": {"number": 64, "value": 36}, "group": "control_change"}, {"time": 1439, "annotation": {"number": 64, "value": 36}, "group": "control_change"}, {"time": 1475, "annotation": {"number": 64, "value": 6}, "group": "control_change"}, {"time": 1511, "annotation": {"number": 64, "value": 0}, "group": "control_change"}, {"time": 1547, "annotation": {"number": 64, "value": 1}, "group": "control_change"}, {"time": 1583, "annotation": {"number": 64, "value": 22}, "group": "control_change"}, {"time": 1619, "annotation": {"number": 64, "value": 65}, "group": "control_change"}, {"time": 1727, "annotation": {"number": 64, "value": 66}, "group": "control_change"}, {"time": 1835, "annotation": {"number": 64, "value": 67}, "group": "control_change"}, {"time": 1979, "annotation": {"number": 64, "value": 68}, "group": "control_change"}, {"time": 2087, "annotation": {"number": 64, "value": 69}, "group": "control_change"}, {"time": 2159, "annotation": {"number": 64, "value": 70}, "group": "control_change"}, {"time": 2267, "annotation": {"number": 64, "value": 71}, "group": "control_change"}, {"time": 2375, "annotation": {"number": 64, "value": 72}, "group": "control_change"}, {"time": 2411, "annotation": {"number": 64, "value": 73}, "group": "control_change"}, {"time": 2447, "annotation": {"number": 64, "value": 74}, "group": "control_change"}, {"time": 2519, "annotation": {"number": 64, "value": 75}, "group": "control_change"}, {"time": 2591, "annotation": {"number": 64, "value": 76}, "group": "control_change"}, {"time": 2807, "annotation": {"number": 64, "value": 77}, "group": "control_change"}, {"time": 2843, "annotation": {"number": 64, "value": 81}, "group": "control_change"}, {"time": 2879, "annotation": {"number": 64, "value": 44}, "group": "control_change"}, {"time": 2879, "annotation": {"number": 64, "value": 76}, "group": "control_change"}, {"time": 2915, "annotation": {"number": 64, "value": 27}, "group": "control_change"}, {"time": 2951, "annotation": {"number": 64, "value": 25}, "group": "control_change"}, {"time": 2951, "annotation": {"number": 64, "value": 75}, "group": "control_change"}, {"time": 2987, "annotation": {"number": 64, "value": 36}, "group": "control_change"}, {"time": 3059, "annotation": {"number": 64, "value": 68}, "group": "control_change"}, {"time": 3167, "annotation": {"number": 64, "value": 74}, "group": "control_change"}, {"time": 3275, "annotation": {"number": 64, "value": 73}, "group": "control_change"}, {"time": 3455, "annotation": {"number": 64, "value": 69}, "group": "control_change"}, {"time": 3563, "annotation": {"number": 64, "value": 68}, "group": "control_change"}, {"time": 3599, "annotation": {"number": 64, "value": 67}, "group": "control_change"}, {"time": 3671, "annotation": {"number": 64, "value": 66}, "group": "control_change"}, {"time": 3707, "annotation": {"number": 64, "value": 36}, "group": "control_change"}, {"time": 3743, "annotation": {"number": 64, "value": 36}, "group": "control_change"}, {"time": 3779, "annotation": {"number": 64, "value": 6}, "group": "control_change"}, {"time": 3815, "annotation": {"number": 64, "value": 0}, "group": "control_change"}, {"time": 3851, "annotation": {"number": 64, "value": 1}, "group": "control_change"}, {"time": 3887, "annotation": {"number": 64, "value": 22}, "group": "control_change"}, {"time": 3923, "annotation": {"number": 64, "value": 65}, "group": "control_change"}]}, {"program": 0, "is_drum": false, "name": "PIANO", "notes": [{"time": 35, "pitch": 49, "duration": 43, "velocity": 48}, {"time": 35, "pitch": 56, "duration": 40, "velocity": 53}, {"time": 35, "pitch": 61, "duration": 43, "velocity": 35}, {"time": 35, "pitch": 64, "duration": 44, "velocity": 43}, {"time": 35, "pitch": 68, "duration": 45, "velocity": 45}, {"time": 107, "pitch": 42, "duration": 23, "velocity": 37}, {"time": 107, "pitch": 54, "duration": 23, "velocity": 40}, {"time": 107, "pitch": 57, "duration": 56, "velocity": 49}, {"time": 107, "pitch": 61, "duration": 55, "velocity": 56}, {"time": 107, "pitch": 66, "duration": 55, "velocity": 56}, {"time": 179, "pitch": 45, "duration": 40, "velocity": 40}, {"time": 179, "pitch": 52, "duration": 39, "velocity": 43}, {"time": 179, "pitch": 57, "duration": 41, "velocity": 58}, {"time": 179, "pitch": 61, "duration": 40, "velocity": 57}, {"time": 179, "pitch": 64, "duration": 40, "velocity": 56}, {"time": 251, "pitch": 44, "duration": 37, "velocity": 44}, {"time": 251, "pitch": 56, "duration": 37, "velocity": 54}, {"time": 251, "pitch": 59, "duration": 38, "velocity": 53}, {"time": 251, "pitch": 63, "duration": 38, "velocity": 56}, {"time": 251, "pitch": 68, "duration": 39, "velocity": 59}, {"time": 323, "pitch": 49, "duration": 53, "velocity": 79}, {"time": 335, "pitch": 56, "duration": 37, "velocity": 56}, {"time": 347, "pitch": 61, "duration": 15, "velocity": 42}, {"time": 359, "pitch": 64, "duration": 36, "velocity": 61}, {"time": 359, "pitch": 68, "duration": 37, "velocity": 71}, {"time": 395, "pitch": 44, "duration": 52, "velocity": 53}, {"time": 407, "pitch": 56, "duration": 36, "velocity": 42}, {"time": 419, "pitch": 59, "duration": 15, "velocity": 35}, {"time": 431, "pitch": 63, "duration": 36, "velocity": 69}, {"time": 431, "pitch": 68, "duration": 36, "velocity": 71}, {"time": 467, "pitch": 45, "duration": 24, "velocity": 64}, {"time": 479, "pitch": 52, "duration": 12, "velocity": 58}, {"time": 491, "pitch": 61, "duration": 14, "velocity": 52}, {"time": 491, "pitch": 64, "duration": 13, "velocity": 58}, {"time": 503, "pitch": 44, "duration": 23, "velocity": 66}, {"time": 515, "pitch": 56, "duration": 26, "velocity": 39}, {"time": 527, "pitch": 59, "duration": 13, "velocity": 54}, {"time": 527, "pitch": 63, "duration": 14, "velocity": 40}, {"time": 539, "pitch": 49, "duration": 62, "velocity": 30}, {"time": 551, "pitch": 56, "duration": 52, "velocity": 41}, {"time": 563, "pitch": 61, "duration": 16, "velocity": 58}, {"time": 575, "pitch": 64, "duration": 17, "velocity": 58}, {"time": 575, "pitch": 68, "duration": 37, "velocity": 50}, {"time": 587, "pitch": 61, "duration": 24, "velocity": 54}, {"time": 599, "pitch": 64, "duration": 13, "velocity": 48}, {"time": 611, "pitch": 42, "duration": 28, "velocity": 62}, {"time": 623, "pitch": 54, "duration": 26, "velocity": 56}, {"time": 635, "pitch": 57, "duration": 14, "velocity": 49}, {"time": 647, "pitch": 44, "duration": 29, "velocity": 55}, {"time": 659, "pitch": 56, "duration": 28, "velocity": 46}, {"time": 671, "pitch": 59, "duration": 13, "velocity": 28}, {"time": 671, "pitch": 63, "duration": 14, "velocity": 37}, {"time": 683, "pitch": 49, "duration": 21, "velocity": 58}, {"time": 695, "pitch": 56, "duration": 28, "velocity": 76}, {"time": 707, "pitch": 61, "duration": 15, "velocity": 42}, {"time": 707, "pitch": 64, "duration": 13, "velocity": 42}, {"time": 719, "pitch": 40, "duration": 21, "velocity": 58}, {"time": 731, "pitch": 47, "duration": 12, "velocity": 43}, {"time": 743, "pitch": 52, "duration": 13, "velocity": 48}, {"time": 743, "pitch": 56, "duration": 14, "velocity": 54}, {"time": 743, "pitch": 59, "duration": 14, "velocity": 55}, {"time": 755, "pitch": 42, "duration": 49, "velocity": 50}, {"time": 767, "pitch": 54, "duration": 39, "velocity": 48}, {"time": 779, "pitch": 57, "duration": 20, "velocity": 62}, {"time": 791, "pitch": 49, "duration": 11, "velocity": 70}, {"time": 791, "pitch": 61, "duration": 8, "velocity": 53}, {"time": 791, "pitch": 64, "duration": 7, "velocity": 54}, {"time": 791, "pitch": 68, "duration": 7, "velocity": 42}, {"time": 803, "pitch": 47, "duration": 11, "velocity": 56}, {"time": 803, "pitch": 59, "duration": 8, "velocity": 71}, {"time": 803, "pitch": 63, "duration": 7, "velocity": 72}, {"time": 803, "pitch": 66, "duration": 6, "velocity": 71}, {"time": 815, "pitch": 45, "duration": 8, "velocity": 61}, {"time": 815, "pitch": 57, "duration": 7, "velocity": 72}, {"time": 815, "pitch": 61, "duration": 4, "velocity": 73}, {"time": 815, "pitch": 64, "duration": 5, "velocity": 73}, {"time": 827, "pitch": 44, "duration": 74, "velocity": 72}, {"time": 827, "pitch": 56, "duration": 73, "velocity": 86}, {"time": 827, "pitch": 59, "duration": 73, "velocity": 72}, {"time": 827, "pitch": 63, "duration": 73, "velocity": 78}, {"time": 899, "pitch": 49, "duration": 44, "velocity": 79}, {"time": 911, "pitch": 61, "duration": 25, "velocity": 56}, {"time": 923, "pitch": 64, "duration": 10, "velocity": 42}, {"time": 935, "pitch": 64, "duration": 34, "velocity": 70}, {"time": 935, "pitch": 68, "duration": 36, "velocity": 95}, {"time": 959, "pitch": 61, "duration": 15, "velocity": 49}, {"time": 971, "pitch": 44, "duration": 54, "velocity": 75}, {"time": 983, "pitch": 56, "duration": 39, "velocity": 41}, {"time": 995, "pitch": 59, "duration": 15, "velocity": 46}, {"time": 1007, "pitch": 63, "duration": 35, "velocity": 67}, {"time": 1007, "pitch": 68, "duration": 34, "velocity": 69}, {"time": 1031, "pitch": 59, "duration": 15, "velocity": 59}, {"time": 1043, "pitch": 45, "duration": 22, "velocity": 72}, {"time": 1055, "pitch": 57, "duration": 27, "velocity": 51}, {"time": 1067, "pitch": 61, "duration": 12, "velocity": 69}, {"time": 1067, "pitch": 64, "duration": 12, "velocity": 70}, {"time": 1079, "pitch": 44, "duration": 24, "velocity": 64}, {"time": 1091, "pitch": 56, "duration": 29, "velocity": 54}, {"time": 1103, "pitch": 59, "duration": 11, "velocity": 57}, {"time": 1103, "pitch": 63, "duration": 13, "velocity": 67}, {"time": 1115, "pitch": 49, "duration": 57, "velocity": 61}, {"time": 1127, "pitch": 56, "duration": 27, "velocity": 53}, {"time": 1139, "pitch": 61, "duration": 27, "velocity": 46}, {"time": 1151, "pitch": 64, "duration": 36, "velocity": 76}, {"time": 1163, "pitch": 56, "duration": 25, "velocity": 61}, {"time": 1175, "pitch": 61, "duration": 25, "velocity": 61}, {"time": 1187, "pitch": 42, "duration": 44, "velocity": 69}, {"time": 1199, "pitch": 54, "duration": 33, "velocity": 61}, {"time": 1211, "pitch": 57, "duration": 15, "velocity": 54}, {"time": 1223, "pitch": 44, "duration": 32, "velocity": 68}, {"time": 1223, "pitch": 59, "duration": 35, "velocity": 78}, {"time": 1223, "pitch": 63, "duration": 36, "velocity": 79}, {"time": 1247, "pitch": 56, "duration": 15, "velocity": 59}, {"time": 1259, "pitch": 49, "duration": 56, "velocity": 68}, {"time": 1271, "pitch": 56, "duration": 26, "velocity": 47}, {"time": 1283, "pitch": 61, "duration": 13, "velocity": 59}, {"time": 1295, "pitch": 61, "duration": 1, "velocity": 72}, {"time": 1295, "pitch": 64, "duration": 35, "velocity": 72}, {"time": 1319, "pitch": 56, "duration": 14, "velocity": 56}, {"time": 1331, "pitch": 42, "duration": 26, "velocity": 74}, {"time": 1343, "pitch": 54, "duration": 18, "velocity": 48}, {"time": 1355, "pitch": 57, "duration": 15, "velocity": 81}, {"time": 1367, "pitch": 44, "duration": 28, "velocity": 67}, {"time": 1379, "pitch": 56, "duration": 30, "velocity": 72}, {"time": 1391, "pitch": 59, "duration": 11, "velocity": 62}, {"time": 1391, "pitch": 63, "duration": 13, "velocity": 67}, {"time": 1403, "pitch": 49, "duration": 36, "velocity": 69}, {"time": 1415, "pitch": 56, "duration": 29, "velocity": 56}, {"time": 1427, "pitch": 61, "duration": 15, "velocity": 47}, {"time": 1439, "pitch": 45, "duration": 9, "velocity": 81}, {"time": 1439, "pitch": 57, "duration": 6, "velocity": 86}, {"time": 1439, "pitch": 61, "duration": 3, "velocity": 93}, {"time": 1439, "pitch": 64, "duration": 5, "velocity": 83}, {"time": 1451, "pitch": 47, "duration": 2, "velocity": 52}, {"time": 1451, "pitch": 59, "duration": 4, "velocity": 81}, {"time": 1451, "pitch": 63, "duration": 3, "velocity": 99}, {"time": 1451, "pitch": 66, "duration": 4, "velocity": 90}, {"time": 1463, "pitch": 49, "duration": 12, "velocity": 102}, {"time": 1463, "pitch": 61, "duration": 11, "velocity": 93}, {"time": 1463, "pitch": 64, "duration": 11, "velocity": 81}, {"time": 1463, "pitch": 68, "duration": 11, "velocity": 86}, {"time": 1475, "pitch": 40, "duration": 28, "velocity": 77}, {"time": 1475, "pitch": 64, "duration": 22, "velocity": 97}, {"time": 1475, "pitch": 68, "duration": 23, "velocity": 122}, {"time": 1487, "pitch": 47, "duration": 24, "velocity": 55}, {"time": 1499, "pitch": 52, "duration": 11, "velocity": 68}, {"time": 1511, "pitch": 42, "duration": 24, "velocity": 79}, {"time": 1511, "pitch": 54, "duration": 8, "velocity": 95}, {"time": 1511, "pitch": 57, "duration": 23, "velocity": 100}, {"time": 1511, "pitch": 61, "duration": 24, "velocity": 100}, {"time": 1535, "pitch": 54, "duration": 2, "velocity": 75}, {"time": 1547, "pitch": 47, "duration": 21, "velocity": 90}, {"time": 1547, "pitch": 63, "duration": 16, "velocity": 107}, {"time": 1547, "pitch": 66, "duration": 16, "velocity": 107}, {"time": 1559, "pitch": 59, "duration": 15, "velocity": 61}, {"time": 1583, "pitch": 45, "duration": 24, "velocity": 73}, {"time": 1583, "pitch": 57, "duration": 6, "velocity": 92}, {"time": 1583, "pitch": 61, "duration": 17, "velocity": 107}, {"time": 1583, "pitch": 64, "duration": 18, "velocity": 89}, {"time": 1595, "pitch": 52, "duration": 13, "velocity": 64}, {"time": 1607, "pitch": 61, "duration": 13, "velocity": 117}, {"time": 1607, "pitch": 64, "duration": 11, "velocity": 90}, {"time": 1619, "pitch": 44, "duration": 33, "velocity": 100}, {"time": 1619, "pitch": 59, "duration": 16, "velocity": 107}, {"time": 1631, "pitch": 56, "duration": 17, "velocity": 93}, {"time": 1643, "pitch": 59, "duration": 11, "velocity": 79}, {"time": 1655, "pitch": 44, "duration": 24, "velocity": 100}, {"time": 1655, "pitch": 59, "duration": 3, "velocity": 89}, {"time": 1655, "pitch": 63, "duration": 23, "velocity": 117}, {"time": 1655, "pitch": 68, "duration": 25, "velocity": 100}, {"time": 1667, "pitch": 56, "duration": 10, "velocity": 95}, {"time": 1679, "pitch": 59, "duration": 4, "velocity": 95}, {"time": 1691, "pitch": 49, "duration": 22, "velocity": 107}, {"time": 1691, "pitch": 61, "duration": 5, "velocity": 88}, {"time": 1691, "pitch": 64, "duration": 10, "velocity": 75}, {"time": 1691, "pitch": 68, "duration": 17, "velocity": 93}, {"time": 1703, "pitch": 61, "duration": 15, "velocity": 39}, {"time": 1715, "pitch": 64, "duration": 3, "velocity": 68}, {"time": 1715, "pitch": 68, "duration": 3, "velocity": 96}, {"time": 1727, "pitch": 49, "duration": 20, "velocity": 70}, {"time": 1727, "pitch": 56, "duration": 19, "velocity": 97}, {"time": 1727, "pitch": 61, "duration": 6, "velocity": 100}, {"time": 1727, "pitch": 65, "duration": 15, "velocity": 107}, {"time": 1727, "pitch": 68, "duration": 15, "velocity": 122}, {"time": 1739, "pitch": 61, "duration": 15, "velocity": 79}, {"time": 1751, "pitch": 65, "duration": 3, "velocity": 74}, {"time": 1751, "pitch": 68, "duration": 1, "velocity": 38}, {"time": 1763, "pitch": 42, "duration": 25, "velocity": 95}, {"time": 1763, "pitch": 57, "duration": 18, "velocity": 89}, {"time": 1763, "pitch": 61, "duration": 20, "velocity": 117}, {"time": 1775, "pitch": 54, "duration": 12, "velocity": 72}, {"time": 1787, "pitch": 57, "duration": 4, "velocity": 112}, {"time": 1787, "pitch": 61, "duration": 2, "velocity": 29}, {"time": 1799, "pitch": 42, "duration": 22, "velocity": 89}, {"time": 1799, "pitch": 57, "duration": 14, "velocity": 85}, {"time": 1799, "pitch": 61, "duration": 24, "velocity": 107}, {"time": 1811, "pitch": 54, "duration": 13, "velocity": 77}, {"time": 1823, "pitch": 57, "duration": 8, "velocity": 93}, {"time": 1835, "pitch": 47, "duration": 24, "velocity": 75}, {"time": 1835, "pitch": 59, "duration": 6, "velocity": 79}, {"time": 1835, "pitch": 63, "duration": 25, "velocity": 122}, {"time": 1835, "pitch": 66, "duration": 24, "velocity": 107}, {"time": 1847, "pitch": 54, "duration": 12, "velocity": 58}, {"time": 1859, "pitch": 59, "duration": 7, "velocity": 86}, {"time": 1871, "pitch": 45, "duration": 22, "velocity": 76}, {"time": 1871, "pitch": 57, "duration": 12, "velocity": 90}, {"time": 1871, "pitch": 61, "duration": 33, "velocity": 100}, {"time": 1871, "pitch": 64, "duration": 24, "velocity": 83}, {"time": 1883, "pitch": 52, "duration": 11, "velocity": 41}, {"time": 1895, "pitch": 57, "duration": 3, "velocity": 74}, {"time": 1907, "pitch": 44, "duration": 53, "velocity": 83}, {"time": 1907, "pitch": 59, "duration": 16, "velocity": 99}, {"time": 1907, "pitch": 63, "duration": 27, "velocity": 102}, {"time": 1919, "pitch": 56, "duration": 31, "velocity": 69}, {"time": 1931, "pitch": 59, "duration": 10, "velocity": 75}, {"time": 1943, "pitch": 63, "duration": 24, "velocity": 127}, {"time": 1943, "pitch": 66, "duration": 24, "velocity": 127}, {"time": 1955, "pitch": 56, "duration": 5, "velocity": 99}, {"time": 1967, "pitch": 59, "duration": 3, "velocity": 90}, {"time": 1979, "pitch": 49, "duration": 68, "velocity": 90}, {"time": 1979, "pitch": 61, "duration": 32, "velocity": 99}, {"time": 1979, "pitch": 64, "duration": 28, "velocity": 100}, {"time": 1979, "pitch": 68, "duration": 31, "velocity": 112}, {"time": 1991, "pitch": 52, "duration": 57, "velocity": 52}, {"time": 2003, "pitch": 56, "duration": 16, "velocity": 59}, {"time": 2015, "pitch": 64, "duration": 36, "velocity": 86}, {"time": 2015, "pitch": 68, "duration": 34, "velocity": 96}, {"time": 2027, "pitch": 56, "duration": 21, "velocity": 47}, {"time": 2039, "pitch": 61, "duration": 14, "velocity": 75}, {"time": 2051, "pitch": 49, "duration": 60, "velocity": 86}, {"time": 2051, "pitch": 73, "duration": 11, "velocity": 89}, {"time": 2051, "pitch": 85, "duration": 11, "velocity": 89}, {"time": 2063, "pitch": 52, "duration": 47, "velocity": 42}, {"time": 2063, "pitch": 80, "duration": 12, "velocity": 99}, {"time": 2063, "pitch": 92, "duration": 12, "velocity": 99}, {"time": 2075, "pitch": 56, "duration": 35, "velocity": 70}, {"time": 2075, "pitch": 73, "duration": 12, "velocity": 97}, {"time": 2075, "pitch": 85, "duration": 12, "velocity": 97}, {"time": 2087, "pitch": 61, "duration": 23, "velocity": 79}, {"time": 2087, "pitch": 64, "duration": 21, "velocity": 75}, {"time": 2087, "pitch": 68, "duration": 22, "velocity": 88}, {"time": 2087, "pitch": 80, "duration": 24, "velocity": 112}, {"time": 2087, "pitch": 92, "duration": 24, "velocity": 112}, {"time": 2123, "pitch": 44, "duration": 44, "velocity": 71}, {"time": 2123, "pitch": 59, "duration": 14, "velocity": 72}, {"time": 2123, "pitch": 63, "duration": 21, "velocity": 61}, {"time": 2123, "pitch": 73, "duration": 11, "velocity": 102}, {"time": 2123, "pitch": 85, "duration": 11, "velocity": 102}, {"time": 2135, "pitch": 56, "duration": 26, "velocity": 33}, {"time": 2135, "pitch": 78, "duration": 10, "velocity": 93}, {"time": 2135, "pitch": 90, "duration": 10, "velocity": 93}, {"time": 2147, "pitch": 59, "duration": 11, "velocity": 47}, {"time": 2147, "pitch": 73, "duration": 12, "velocity": 77}, {"time": 2147, "pitch": 85, "duration": 12, "velocity": 77}, {"time": 2159, "pitch": 59, "duration": 21, "velocity": 69}, {"time": 2159, "pitch": 63, "duration": 16, "velocity": 76}, {"time": 2159, "pitch": 78, "duration": 30, "velocity": 102}, {"time": 2159, "pitch": 90, "duration": 30, "velocity": 102}, {"time": 2195, "pitch": 45, "duration": 25, "velocity": 62}, {"time": 2195, "pitch": 61, "duration": 24, "velocity": 83}, {"time": 2195, "pitch": 64, "duration": 23, "velocity": 72}, {"time": 2195, "pitch": 73, "duration": 12, "velocity": 102}, {"time": 2195, "pitch": 85, "duration": 12, "velocity": 102}, {"time": 2207, "pitch": 52, "duration": 14, "velocity": 40}, {"time": 2207, "pitch": 76, "duration": 11, "velocity": 83}, {"time": 2207, "pitch": 88, "duration": 11, "velocity": 83}, {"time": 2219, "pitch": 57, "duration": 4, "velocity": 50}, {"time": 2219, "pitch": 73, "duration": 12, "velocity": 90}, {"time": 2219, "pitch": 85, "duration": 12, "velocity": 90}, {"time": 2231, "pitch": 44, "duration": 23, "velocity": 68}, {"time": 2231, "pitch": 56, "duration": 28, "velocity": 63}, {"time": 2231, "pitch": 59, "duration": 26, "velocity": 68}, {"time": 2231, "pitch": 63, "duration": 26, "velocity": 63}, {"time": 2231, "pitch": 76, "duration": 32, "velocity": 97}, {"time": 2231, "pitch": 88, "duration": 32, "velocity": 97}, {"time": 2267, "pitch": 49, "duration": 25, "velocity": 67}, {"time": 2267, "pitch": 56, "duration": 2, "velocity": 42}, {"time": 2267, "pitch": 61, "duration": 13, "velocity": 66}, {"time": 2267, "pitch": 64, "duration": 23, "velocity": 63}, {"time": 2279, "pitch": 56, "duration": 13, "velocity": 40}, {"time": 2303, "pitch": 47, "duration": 11, "velocity": 93}, {"time": 2303, "pitch": 59, "duration": 10, "velocity": 97}, {"time": 2303, "pitch": 63, "duration": 9, "velocity": 117}, {"time": 2303, "pitch": 66, "duration": 5, "velocity": 112}, {"time": 2315, "pitch": 45, "duration": 11, "velocity": 96}, {"time": 2315, "pitch": 57, "duration": 4, "velocity": 95}, {"time": 2315, "pitch": 61, "duration": 4, "velocity": 100}, {"time": 2315, "pitch": 64, "duration": 5, "velocity": 92}, {"time": 2327, "pitch": 49, "duration": 9, "velocity": 85}, {"time": 2327, "pitch": 61, "duration": 7, "velocity": 107}, {"time": 2327, "pitch": 64, "duration": 8, "velocity": 88}, {"time": 2327, "pitch": 68, "duration": 8, "velocity": 97}, {"time": 2339, "pitch": 52, "duration": 29, "velocity": 107}, {"time": 2339, "pitch": 59, "duration": 19, "velocity": 100}, {"time": 2339, "pitch": 64, "duration": 27, "velocity": 97}, {"time": 2339, "pitch": 68, "duration": 27, "velocity": 100}, {"time": 2363, "pitch": 59, "duration": 6, "velocity": 73}, {"time": 2375, "pitch": 42, "duration": 20, "velocity": 90}, {"time": 2375, "pitch": 54, "duration": 8, "velocity": 97}, {"time": 2375, "pitch": 57, "duration": 18, "velocity": 92}, {"time": 2375, "pitch": 61, "duration": 20, "velocity": 100}, {"time": 2411, "pitch": 47, "duration": 23, "velocity": 71}, {"time": 2411, "pitch": 59, "duration": 16, "velocity": 97}, {"time": 2411, "pitch": 63, "duration": 25, "velocity": 107}, {"time": 2411, "pitch": 66, "duration": 25, "velocity": 99}, {"time": 2423, "pitch": 54, "duration": 15, "velocity": 48}, {"time": 2435, "pitch": 59, "duration": 2, "velocity": 85}, {"time": 2447, "pitch": 49, "duration": 23, "velocity": 93}, {"time": 2447, "pitch": 61, "duration": 17, "velocity": 112}, {"time": 2447, "pitch": 64, "duration": 23, "velocity": 93}, {"time": 2447, "pitch": 68, "duration": 24, "velocity": 100}, {"time": 2471, "pitch": 61, "duration": 2, "velocity": 86}, {"time": 2483, "pitch": 44, "duration": 30, "velocity": 90}, {"time": 2483, "pitch": 59, "duration": 18, "velocity": 100}, {"time": 2483, "pitch": 63, "duration": 26, "velocity": 107}, {"time": 2495, "pitch": 56, "duration": 19, "velocity": 81}, {"time": 2507, "pitch": 59, "duration": 8, "velocity": 66}, {"time": 2519, "pitch": 45, "duration": 24, "velocity": 72}, {"time": 2519, "pitch": 57, "duration": 26, "velocity": 107}, {"time": 2519, "pitch": 61, "duration": 23, "velocity": 89}, {"time": 2519, "pitch": 64, "duration": 24, "velocity": 89}, {"time": 2555, "pitch": 44, "duration": 72, "velocity": 81}, {"time": 2555, "pitch": 51, "duration": 72, "velocity": 99}, {"time": 2555, "pitch": 56, "duration": 72, "velocity": 112}, {"time": 2555, "pitch": 60, "duration": 34, "velocity": 127}, {"time": 2555, "pitch": 63, "duration": 72, "velocity": 117}, {"time": 2591, "pitch": 60, "duration": 36, "velocity": 27}, {"time": 2627, "pitch": 49, "duration": 53, "velocity": 79}, {"time": 2639, "pitch": 56, "duration": 37, "velocity": 56}, {"time": 2651, "pitch": 61, "duration": 15, "velocity": 42}, {"time": 2663, "pitch": 64, "duration": 36, "velocity": 61}, {"time": 2663, "pitch": 68, "duration": 37, "velocity": 71}, {"time": 2699, "pitch": 44, "duration": 52, "velocity": 53}, {"time": 2711, "pitch": 56, "duration": 36, "velocity": 42}, {"time": 2723, "pitch": 59, "duration": 15, "velocity": 35}, {"time": 2735, "pitch": 63, "duration": 36, "velocity": 69}, {"time": 2735, "pitch": 68, "duration": 36, "velocity": 71}, {"time": 2771, "pitch": 45, "duration": 24, "velocity": 64}, {"time": 2783, "pitch": 52, "duration": 12, "velocity": 58}, {"time": 2795, "pitch": 61, "duration": 14, "velocity": 52}, {"time": 2795, "pitch": 64, "duration": 13, "velocity": 58}, {"time": 2807, "pitch": 44, "duration": 23, "velocity": 66}, {"time": 2819, "pitch": 56, "duration": 26, "velocity": 39}, {"time": 2831, "pitch": 59, "duration": 13, "velocity": 54}, {"time": 2831, "pitch": 63, "duration": 14, "velocity": 40}, {"time": 2843, "pitch": 49, "duration": 62, "velocity": 30}, {"time": 2855, "pitch": 56, "duration": 52, "velocity": 41}, {"time": 2867, "pitch": 61, "duration": 16, "velocity": 58}, {"time": 2879, "pitch": 64, "duration": 17, "velocity": 58}, {"time": 2879, "pitch": 68, "duration": 37, "velocity": 50}, {"time": 2891, "pitch": 61, "duration": 24, "velocity": 54}, {"time": 2903, "pitch": 64, "duration": 13, "velocity": 48}, {"time": 2915, "pitch": 42, "duration": 28, "velocity": 62}, {"time": 2927, "pitch": 54, "duration": 26, "velocity": 56}, {"time": 2939, "pitch": 57, "duration": 14, "velocity": 49}, {"time": 2951, "pitch": 44, "duration": 29, "velocity": 55}, {"time": 2963, "pitch": 56, "duration": 28, "velocity": 46}, {"time": 2975, "pitch": 59, "duration": 13, "velocity": 28}, {"time": 2975, "pitch": 63, "duration": 14, "velocity": 37}, {"time": 2987, "pitch": 49, "duration": 21, "velocity": 58}, {"time": 2999, "pitch": 56, "duration": 28, "velocity": 76}, {"time": 3011, "pitch": 61, "duration": 15, "velocity": 42}, {"time": 3011, "pitch": 64, "duration": 13, "velocity": 42}, {"time": 3023, "pitch": 40, "duration": 21, "velocity": 58}, {"time": 3035, "pitch": 47, "duration": 12, "velocity": 43}, {"time": 3047, "pitch": 52, "duration": 13, "velocity": 48}, {"time": 3047, "pitch": 56, "duration": 14, "velocity": 54}, {"time": 3047, "pitch": 59, "duration": 14, "velocity": 55}, {"time": 3059, "pitch": 42, "duration": 49, "velocity": 50}, {"time": 3071, "pitch": 54, "duration": 39, "velocity": 48}, {"time": 3083, "pitch": 57, "duration": 20, "velocity": 62}, {"time": 3095, "pitch": 49, "duration": 11, "velocity": 70}, {"time": 3095, "pitch": 61, "duration": 8, "velocity": 53}, {"time": 3095, "pitch": 64, "duration": 7, "velocity": 54}, {"time": 3095, "pitch": 68, "duration": 7, "velocity": 42}, {"time": 3107, "pitch": 47, "duration": 11, "velocity": 56}, {"time": 3107, "pitch": 59, "duration": 8, "velocity": 71}, {"time": 3107, "pitch": 63, "duration": 7, "velocity": 72}, {"time": 3107, "pitch": 66, "duration": 6, "velocity": 71}, {"time": 3119, "pitch": 45, "duration": 8, "velocity": 61}, {"time": 3119, "pitch": 57, "duration": 7, "velocity": 72}, {"time": 3119, "pitch": 61, "duration": 4, "velocity": 73}, {"time": 3119, "pitch": 64, "duration": 5, "velocity": 73}, {"time": 3131, "pitch": 44, "duration": 74, "velocity": 72}, {"time": 3131, "pitch": 56, "duration": 73, "velocity": 86}, {"time": 3131, "pitch": 59, "duration": 73, "velocity": 72}, {"time": 3131, "pitch": 63, "duration": 73, "velocity": 78}, {"time": 3203, "pitch": 49, "duration": 44, "velocity": 79}, {"time": 3215, "pitch": 61, "duration": 25, "velocity": 56}, {"time": 3227, "pitch": 64, "duration": 10, "velocity": 42}, {"time": 3239, "pitch": 64, "duration": 34, "velocity": 70}, {"time": 3239, "pitch": 68, "duration": 36, "velocity": 95}, {"time": 3263, "pitch": 61, "duration": 15, "velocity": 49}, {"time": 3275, "pitch": 44, "duration": 54, "velocity": 75}, {"time": 3287, "pitch": 56, "duration": 39, "velocity": 41}, {"time": 3299, "pitch": 59, "duration": 15, "velocity": 46}, {"time": 3311, "pitch": 63, "duration": 35, "velocity": 67}, {"time": 3311, "pitch": 68, "duration": 34, "velocity": 69}, {"time": 3335, "pitch": 59, "duration": 15, "velocity": 59}, {"time": 3347, "pitch": 45, "duration": 22, "velocity": 72}, {"time": 3359, "pitch": 57, "duration": 27, "velocity": 51}, {"time": 3371, "pitch": 61, "duration": 12, "velocity": 69}, {"time": 3371, "pitch": 64, "duration": 12, "velocity": 70}, {"time": 3383, "pitch": 44, "duration": 24, "velocity": 64}, {"time": 3395, "pitch": 56, "duration": 29, "velocity": 54}, {"time": 3407, "pitch": 59, "duration": 11, "velocity": 57}, {"time": 3407, "pitch": 63, "duration": 13, "velocity": 67}, {"time": 3419, "pitch": 49, "duration": 57, "velocity": 61}, {"time": 3431, "pitch": 56, "duration": 27, "velocity": 53}, {"time": 3443, "pitch": 61, "duration": 27, "velocity": 46}, {"time": 3455, "pitch": 64, "duration": 36, "velocity": 76}, {"time": 3467, "pitch": 56, "duration": 25, "velocity": 61}, {"time": 3479, "pitch": 61, "duration": 25, "velocity": 61}, {"time": 3491, "pitch": 42, "duration": 44, "velocity": 69}, {"time": 3503, "pitch": 54, "duration": 33, "velocity": 61}, {"time": 3515, "pitch": 57, "duration": 15, "velocity": 54}, {"time": 3527, "pitch": 44, "duration": 32, "velocity": 68}, {"time": 3527, "pitch": 59, "duration": 35, "velocity": 78}, {"time": 3527, "pitch": 63, "duration": 36, "velocity": 79}, {"time": 3551, "pitch": 56, "duration": 15, "velocity": 59}, {"time": 3563, "pitch": 49, "duration": 56, "velocity": 68}, {"time": 3575, "pitch": 56, "duration": 26, "velocity": 47}, {"time": 3587, "pitch": 61, "duration": 13, "velocity": 59}, {"time": 3599, "pitch": 61, "duration": 1, "velocity": 72}, {"time": 3599, "pitch": 64, "duration": 35, "velocity": 72}, {"time": 3623, "pitch": 56, "duration": 14, "velocity": 56}, {"time": 3635, "pitch": 42, "duration": 26, "velocity": 74}, {"time": 3647, "pitch": 54, "duration": 18, "velocity": 48}, {"time": 3659, "pitch": 57, "duration": 15, "velocity": 81}, {"time": 3671, "pitch": 44, "duration": 28, "velocity": 67}, {"time": 3683, "pitch": 56, "duration": 30, "velocity": 72}, {"time": 3695, "pitch": 59, "duration": 11, "velocity": 62}, {"time": 3695, "pitch": 63, "duration": 13, "velocity": 67}, {"time": 3707, "pitch": 49, "duration": 36, "velocity": 69}, {"time": 3719, "pitch": 56, "duration": 29, "velocity": 56}, {"time": 3731, "pitch": 61, "duration": 15, "velocity": 47}, {"time": 3743, "pitch": 45, "duration": 9, "velocity": 81}, {"time": 3743, "pitch": 57, "duration": 6, "velocity": 86}, {"time": 3743, "pitch": 61, "duration": 3, "velocity": 93}, {"time": 3743, "pitch": 64, "duration": 5, "velocity": 83}, {"time": 3755, "pitch": 47, "duration": 2, "velocity": 52}, {"time": 3755, "pitch": 59, "duration": 4, "velocity": 81}, {"time": 3755, "pitch": 63, "duration": 3, "velocity": 99}, {"time": 3755, "pitch": 66, "duration": 4, "velocity": 90}, {"time": 3767, "pitch": 49, "duration": 12, "velocity": 102}, {"time": 3767, "pitch": 61, "duration": 11, "velocity": 93}, {"time": 3767, "pitch": 64, "duration": 11, "velocity": 81}, {"time": 3767, "pitch": 68, "duration": 11, "velocity": 86}, {"time": 3779, "pitch": 40, "duration": 28, "velocity": 77}, {"time": 3779, "pitch": 64, "duration": 22, "velocity": 97}, {"time": 3779, "pitch": 68, "duration": 23, "velocity": 122}, {"time": 3791, "pitch": 47, "duration": 24, "velocity": 55}, {"time": 3803, "pitch": 52, "duration": 11, "velocity": 68}, {"time": 3815, "pitch": 42, "duration": 24, "velocity": 79}, {"time": 3815, "pitch": 54, "duration": 8, "velocity": 95}, {"time": 3815, "pitch": 57, "duration": 23, "velocity": 100}, {"time": 3815, "pitch": 61, "duration": 24, "velocity": 100}, {"time": 3839, "pitch": 54, "duration": 2, "velocity": 75}, {"time": 3851, "pitch": 47, "duration": 21, "velocity": 90}, {"time": 3851, "pitch": 63, "duration": 16, "velocity": 107}, {"time": 3851, "pitch": 66, "duration": 16, "velocity": 107}, {"time": 3863, "pitch": 59, "duration": 15, "velocity": 61}, {"time": 3887, "pitch": 45, "duration": 24, "velocity": 73}, {"time": 3887, "pitch": 57, "duration": 6, "velocity": 92}, {"time": 3887, "pitch": 61, "duration": 17, "velocity": 107}, {"time": 3887, "pitch": 64, "duration": 18, "velocity": 89}, {"time": 3899, "pitch": 52, "duration": 13, "velocity": 64}, {"time": 3911, "pitch": 61, "duration": 13, "velocity": 117}, {"time": 3911, "pitch": 64, "duration": 11, "velocity": 90}, {"time": 3923, "pitch": 44, "duration": 33, "velocity": 100}, {"time": 3923, "pitch": 59, "duration": 16, "velocity": 107}, {"time": 3935, "pitch": 56, "duration": 17, "velocity": 93}, {"time": 3947, "pitch": 59, "duration": 11, "velocity": 79}, {"time": 3959, "pitch": 44, "duration": 24, "velocity": 100}, {"time": 3959, "pitch": 59, "duration": 3, "velocity": 89}, {"time": 3959, "pitch": 63, "duration": 23, "velocity": 117}, {"time": 3959, "pitch": 68, "duration": 25, "velocity": 100}, {"time": 3971, "pitch": 56, "duration": 10, "velocity": 95}, {"time": 3983, "pitch": 59, "duration": 4, "velocity": 95}, {"time": 3995, "pitch": 49, "duration": 22, "velocity": 107}, {"time": 3995, "pitch": 61, "duration": 5, "velocity": 88}, {"time": 3995, "pitch": 64, "duration": 10, "velocity": 75}, {"time": 3995, "pitch": 68, "duration": 17, "velocity": 93}, {"time": 4007, "pitch": 61, "duration": 15, "velocity": 39}, {"time": 4019, "pitch": 64, "duration": 3, "velocity": 68}, {"time": 4019, "pitch": 68, "duration": 3, "velocity": 96}, {"time": 4031, "pitch": 49, "duration": 20, "velocity": 70}, {"time": 4031, "pitch": 56, "duration": 19, "velocity": 97}, {"time": 4031, "pitch": 61, "duration": 6, "velocity": 100}, {"time": 4031, "pitch": 65, "duration": 15, "velocity": 107}, {"time": 4031, "pitch": 68, "duration": 15, "velocity": 122}, {"time": 4043, "pitch": 61, "duration": 15, "velocity": 79}, {"time": 4055, "pitch": 65, "duration": 3, "velocity": 74}, {"time": 4055, "pitch": 68, "duration": 1, "velocity": 38}, {"time": 4067, "pitch": 42, "duration": 25, "velocity": 95}, {"time": 4067, "pitch": 57, "duration": 18, "velocity": 89}, {"time": 4067, "pitch": 61, "duration": 20, "velocity": 117}, {"time": 4079, "pitch": 54, "duration": 12, "velocity": 72}, {"time": 4091, "pitch": 57, "duration": 4, "velocity": 112}, {"time": 4091, "pitch": 61, "duration": 2, "velocity": 29}, {"time": 4103, "pitch": 42, "duration": 22, "velocity": 89}, {"time": 4103, "pitch": 57, "duration": 14, "velocity": 85}, {"time": 4103, "pitch": 61, "duration": 24, "velocity": 107}, {"time": 4115, "pitch": 54, "duration": 13, "velocity": 77}, {"time": 4127, "pitch": 57, "duration": 8, "velocity": 93}, {"time": 4139, "pitch": 47, "duration": 24, "velocity": 75}, {"time": 4139, "pitch": 59, "duration": 6, "velocity": 79}, {"time": 4139, "pitch": 63, "duration": 25, "velocity": 122}, {"time": 4139, "pitch": 66, "duration": 24, "velocity": 107}, {"time": 4151, "pitch": 53, "duration": 12, "velocity": 58}, {"time": 4163, "pitch": 59, "duration": 7, "velocity": 86}, {"time": 4175, "pitch": 45, "duration": 22, "velocity": 76}, {"time": 4175, "pitch": 57, "duration": 12, "velocity": 90}, {"time": 4175, "pitch": 61, "duration": 33, "velocity": 100}, {"time": 4175, "pitch": 64, "duration": 24, "velocity": 83}, {"time": 4187, "pitch": 52, "duration": 11, "velocity": 41}, {"time": 4199, "pitch": 57, "duration": 3, "velocity": 74}, {"time": 4211, "pitch": 44, "duration": 53, "velocity": 83}, {"time": 4211, "pitch": 59, "duration": 16, "velocity": 99}, {"time": 4211, "pitch": 63, "duration": 27, "velocity": 102}, {"time": 4223, "pitch": 56, "duration": 31, "velocity": 69}, {"time": 4235, "pitch": 59, "duration": 10, "velocity": 75}, {"time": 4247, "pitch": 63, "duration": 24, "velocity": 127}, {"time": 4247, "pitch": 66, "duration": 24, "velocity": 127}, {"time": 4259, "pitch": 56, "duration": 5, "velocity": 99}, {"time": 4271, "pitch": 59, "duration": 3, "velocity": 90}, {"time": 4283, "pitch": 49, "duration": 36, "velocity": 90}, {"time": 4283, "pitch": 61, "duration": 32, "velocity": 99}, {"time": 4283, "pitch": 64, "duration": 28, "velocity": 100}, {"time": 4283, "pitch": 68, "duration": 31, "velocity": 112}, {"time": 4295, "pitch": 52, "duration": 24, "velocity": 52}, {"time": 4307, "pitch": 56, "duration": 12, "velocity": 59}, {"time": 4319, "pitch": 45, "duration": 9, "velocity": 81}, {"time": 4319, "pitch": 57, "duration": 6, "velocity": 86}, {"time": 4319, "pitch": 61, "duration": 8, "velocity": 93}, {"time": 4319, "pitch": 64, "duration": 5, "velocity": 83}, {"time": 4331, "pitch": 47, "duration": 2, "velocity": 52}, {"time": 4331, "pitch": 59, "duration": 4, "velocity": 81}, {"time": 4331, "pitch": 63, "duration": 3, "velocity": 99}, {"time": 4331, "pitch": 66, "duration": 4, "velocity": 90}, {"time": 4343, "pitch": 49, "duration": 12, "velocity": 102}, {"time": 4343, "pitch": 61, "duration": 11, "velocity": 93}, {"time": 4343, "pitch": 64, "duration": 11, "velocity": 81}, {"time": 4343, "pitch": 68, "duration": 11, "velocity": 86}, {"time": 4355, "pitch": 40, "duration": 28, "velocity": 77}, {"time": 4355, "pitch": 64, "duration": 22, "velocity": 97}, {"time": 4355, "pitch": 68, "duration": 23, "velocity": 122}, {"time": 4367, "pitch": 47, "duration": 24, "velocity": 55}, {"time": 4379, "pitch": 52, "duration": 11, "velocity": 68}, {"time": 4391, "pitch": 42, "duration": 24, "velocity": 79}, {"time": 4391, "pitch": 54, "duration": 8, "velocity": 95}, {"time": 4391, "pitch": 57, "duration": 23, "velocity": 100}, {"time": 4391, "pitch": 61, "duration": 24, "velocity": 100}, {"time": 4415, "pitch": 54, "duration": 2, "velocity": 75}, {"time": 4427, "pitch": 47, "duration": 21, "velocity": 90}, {"time": 4427, "pitch": 63, "duration": 16, "velocity": 107}, {"time": 4427, "pitch": 66, "duration": 16, "velocity": 107}, {"time": 4439, "pitch": 59, "duration": 15, "velocity": 61}, {"time": 4463, "pitch": 45, "duration": 24, "velocity": 73}, {"time": 4463, "pitch": 57, "duration": 6, "velocity": 92}, {"time": 4463, "pitch": 61, "duration": 17, "velocity": 107}, {"time": 4463, "pitch": 64, "duration": 18, "velocity": 89}, {"time": 4475, "pitch": 52, "duration": 13, "velocity": 64}, {"time": 4487, "pitch": 61, "duration": 13, "velocity": 117}, {"time": 4487, "pitch": 64, "duration": 11, "velocity": 90}, {"time": 4499, "pitch": 44, "duration": 33, "velocity": 100}, {"time": 4499, "pitch": 59, "duration": 16, "velocity": 107}, {"time": 4511, "pitch": 56, "duration": 17, "velocity": 93}, {"time": 4523, "pitch": 59, "duration": 11, "velocity": 79}, {"time": 4535, "pitch": 44, "duration": 24, "velocity": 100}, {"time": 4535, "pitch": 59, "duration": 3, "velocity": 89}, {"time": 4535, "pitch": 63, "duration": 23, "velocity": 117}, {"time": 4535, "pitch": 68, "duration": 25, "velocity": 100}, {"time": 4547, "pitch": 56, "duration": 10, "velocity": 95}, {"time": 4559, "pitch": 59, "duration": 4, "velocity": 95}, {"time": 4571, "pitch": 49, "duration": 22, "velocity": 107}, {"time": 4571, "pitch": 61, "duration": 5, "velocity": 88}, {"time": 4571, "pitch": 64, "duration": 10, "velocity": 75}, {"time": 4571, "pitch": 68, "duration": 17, "velocity": 93}, {"time": 4583, "pitch": 61, "duration": 15, "velocity": 39}, {"time": 4595, "pitch": 64, "duration": 3, "velocity": 68}, {"time": 4595, "pitch": 68, "duration": 3, "velocity": 96}, {"time": 4607, "pitch": 49, "duration": 20, "velocity": 70}, {"time": 4607, "pitch": 56, "duration": 19, "velocity": 97}, {"time": 4607, "pitch": 61, "duration": 6, "velocity": 100}, {"time": 4607, "pitch": 65, "duration": 15, "velocity": 107}, {"time": 4607, "pitch": 68, "duration": 15, "velocity": 122}, {"time": 4619, "pitch": 61, "duration": 15, "velocity": 79}, {"time": 4631, "pitch": 65, "duration": 3, "velocity": 74}, {"time": 4631, "pitch": 68, "duration": 1, "velocity": 38}, {"time": 4643, "pitch": 42, "duration": 25, "velocity": 95}, {"time": 4643, "pitch": 57, "duration": 18, "velocity": 89}, {"time": 4643, "pitch": 61, "duration": 20, "velocity": 117}, {"time": 4655, "pitch": 54, "duration": 12, "velocity": 72}, {"time": 4667, "pitch": 57, "duration": 4, "velocity": 112}, {"time": 4667, "pitch": 61, "duration": 2, "velocity": 29}, {"time": 4679, "pitch": 42, "duration": 22, "velocity": 89}, {"time": 4679, "pitch": 57, "duration": 14, "velocity": 85}, {"time": 4679, "pitch": 61, "duration": 24, "velocity": 107}, {"time": 4691, "pitch": 54, "duration": 13, "velocity": 77}, {"time": 4703, "pitch": 57, "duration": 8, "velocity": 93}, {"time": 4715, "pitch": 47, "duration": 24, "velocity": 75}, {"time": 4715, "pitch": 59, "duration": 6, "velocity": 79}, {"time": 4715, "pitch": 63, "duration": 25, "velocity": 122}, {"time": 4715, "pitch": 66, "duration": 24, "velocity": 107}, {"time": 4726, "pitch": 54, "duration": 12, "velocity": 58}, {"time": 4739, "pitch": 59, "duration": 7, "velocity": 86}, {"time": 4751, "pitch": 45, "duration": 22, "velocity": 76}, {"time": 4751, "pitch": 57, "duration": 12, "velocity": 90}, {"time": 4751, "pitch": 61, "duration": 33, "velocity": 100}, {"time": 4751, "pitch": 64, "duration": 24, "velocity": 83}, {"time": 4763, "pitch": 52, "duration": 11, "velocity": 41}, {"time": 4775, "pitch": 57, "duration": 3, "velocity": 74}, {"time": 4787, "pitch": 44, "duration": 53, "velocity": 83}, {"time": 4787, "pitch": 59, "duration": 16, "velocity": 99}, {"time": 4787, "pitch": 63, "duration": 27, "velocity": 102}, {"time": 4799, "pitch": 56, "duration": 31, "velocity": 69}, {"time": 4811, "pitch": 59, "duration": 10, "velocity": 75}, {"time": 4823, "pitch": 63, "duration": 24, "velocity": 127}, {"time": 4823, "pitch": 66, "duration": 24, "velocity": 127}, {"time": 4835, "pitch": 56, "duration": 5, "velocity": 99}, {"time": 4847, "pitch": 59, "duration": 3, "velocity": 90}, {"time": 4859, "pitch": 49, "duration": 36, "velocity": 90}, {"time": 4859, "pitch": 61, "duration": 32, "velocity": 99}, {"time": 4859, "pitch": 64, "duration": 28, "velocity": 100}, {"time": 4859, "pitch": 68, "duration": 31, "velocity": 112}, {"time": 4871, "pitch": 52, "duration": 24, "velocity": 52}, {"time": 4883, "pitch": 56, "duration": 12, "velocity": 59}, {"time": 4895, "pitch": 45, "duration": 9, "velocity": 81}, {"time": 4895, "pitch": 57, "duration": 6, "velocity": 86}, {"time": 4895, "pitch": 61, "duration": 8, "velocity": 93}, {"time": 4895, "pitch": 64, "duration": 5, "velocity": 83}, {"time": 4907, "pitch": 47, "duration": 2, "velocity": 52}, {"time": 4907, "pitch": 59, "duration": 4, "velocity": 81}, {"time": 4907, "pitch": 63, "duration": 3, "velocity": 99}, {"time": 4907, "pitch": 66, "duration": 4, "velocity": 90}, {"time": 4919, "pitch": 49, "duration": 12, "velocity": 102}, {"time": 4919, "pitch": 61, "duration": 11, "velocity": 93}, {"time": 4919, "pitch": 64, "duration": 11, "velocity": 81}, {"time": 4919, "pitch": 68, "duration": 11, "velocity": 86}, {"time": 4931, "pitch": 40, "duration": 28, "velocity": 77}, {"time": 4931, "pitch": 64, "duration": 22, "velocity": 97}, {"time": 4931, "pitch": 68, "duration": 23, "velocity": 122}, {"time": 4943, "pitch": 47, "duration": 24, "velocity": 55}, {"time": 4955, "pitch": 52, "duration": 11, "velocity": 68}, {"time": 4967, "pitch": 42, "duration": 24, "velocity": 79}, {"time": 4967, "pitch": 54, "duration": 8, "velocity": 95}, {"time": 4967, "pitch": 57, "duration": 23, "velocity": 100}, {"time": 4967, "pitch": 61, "duration": 24, "velocity": 100}, {"time": 4991, "pitch": 54, "duration": 2, "velocity": 75}, {"time": 5003, "pitch": 47, "duration": 21, "velocity": 90}, {"time": 5003, "pitch": 63, "duration": 16, "velocity": 107}, {"time": 5003, "pitch": 66, "duration": 16, "velocity": 107}, {"time": 5015, "pitch": 59, "duration": 15, "velocity": 61}, {"time": 5039, "pitch": 45, "duration": 24, "velocity": 73}, {"time": 5039, "pitch": 57, "duration": 6, "velocity": 92}, {"time": 5039, "pitch": 61, "duration": 17, "velocity": 107}, {"time": 5039, "pitch": 64, "duration": 18, "velocity": 89}, {"time": 5051, "pitch": 52, "duration": 13, "velocity": 64}, {"time": 5063, "pitch": 61, "duration": 13, "velocity": 117}, {"time": 5063, "pitch": 64, "duration": 11, "velocity": 90}, {"time": 5075, "pitch": 44, "duration": 33, "velocity": 100}, {"time": 5075, "pitch": 59, "duration": 16, "velocity": 107}, {"time": 5087, "pitch": 56, "duration": 17, "velocity": 93}, {"time": 5099, "pitch": 59, "duration": 11, "velocity": 79}, {"time": 5111, "pitch": 44, "duration": 24, "velocity": 100}, {"time": 5111, "pitch": 59, "duration": 3, "velocity": 89}, {"time": 5111, "pitch": 63, "duration": 23, "velocity": 117}, {"time": 5111, "pitch": 68, "duration": 25, "velocity": 100}, {"time": 5123, "pitch": 56, "duration": 10, "velocity": 95}, {"time": 5135, "pitch": 59, "duration": 4, "velocity": 95}, {"time": 5147, "pitch": 49, "duration": 22, "velocity": 107}, {"time": 5147, "pitch": 61, "duration": 5, "velocity": 88}, {"time": 5147, "pitch": 64, "duration": 10, "velocity": 75}, {"time": 5147, "pitch": 68, "duration": 17, "velocity": 93}, {"time": 5159, "pitch": 61, "duration": 15, "velocity": 39}, {"time": 5171, "pitch": 64, "duration": 3, "velocity": 68}, {"time": 5171, "pitch": 68, "duration": 3, "velocity": 96}, {"time": 5183, "pitch": 49, "duration": 20, "velocity": 70}, {"time": 5183, "pitch": 56, "duration": 19, "velocity": 97}, {"time": 5183, "pitch": 61, "duration": 6, "velocity": 100}, {"time": 5183, "pitch": 65, "duration": 15, "velocity": 107}, {"time": 5183, "pitch": 68, "duration": 15, "velocity": 122}, {"time": 5195, "pitch": 61, "duration": 15, "velocity": 79}, {"time": 5207, "pitch": 65, "duration": 3, "velocity": 74}, {"time": 5207, "pitch": 68, "duration": 1, "velocity": 38}, {"time": 5219, "pitch": 42, "duration": 25, "velocity": 95}, {"time": 5219, "pitch": 57, "duration": 18, "velocity": 89}, {"time": 5219, "pitch": 61, "duration": 20, "velocity": 117}, {"time": 5231, "pitch": 54, "duration": 12, "velocity": 72}, {"time": 5243, "pitch": 57, "duration": 4, "velocity": 112}, {"time": 5243, "pitch": 61, "duration": 2, "velocity": 29}, {"time": 5255, "pitch": 42, "duration": 22, "velocity": 89}, {"time": 5255, "pitch": 57, "duration": 14, "velocity": 85}, {"time": 5255, "pitch": 61, "duration": 24, "velocity": 107}, {"time": 5267, "pitch": 54, "duration": 13, "velocity": 77}, {"time": 5279, "pitch": 57, "duration": 8, "velocity": 93}, {"time": 5291, "pitch": 47, "duration": 24, "velocity": 75}, {"time": 5291, "pitch": 59, "duration": 6, "velocity": 79}, {"time": 5291, "pitch": 63, "duration": 25, "velocity": 122}, {"time": 5291, "pitch": 66, "duration": 24, "velocity": 107}, {"time": 5303, "pitch": 54, "duration": 12, "velocity": 58}, {"time": 5315, "pitch": 59, "duration": 7, "velocity": 86}, {"time": 5327, "pitch": 45, "duration": 22, "velocity": 76}, {"time": 5327, "pitch": 57, "duration": 12, "velocity": 90}, {"time": 5327, "pitch": 61, "duration": 33, "velocity": 100}, {"time": 5327, "pitch": 64, "duration": 24, "velocity": 83}, {"time": 5339, "pitch": 52, "duration": 11, "velocity": 41}, {"time": 5351, "pitch": 57, "duration": 3, "velocity": 74}, {"time": 5363, "pitch": 44, "duration": 53, "velocity": 83}, {"time": 5363, "pitch": 59, "duration": 16, "velocity": 99}, {"time": 5363, "pitch": 63, "duration": 27, "velocity": 102}, {"time": 5375, "pitch": 56, "duration": 31, "velocity": 69}, {"time": 5387, "pitch": 59, "duration": 10, "velocity": 75}, {"time": 5399, "pitch": 63, "duration": 24, "velocity": 127}, {"time": 5399, "pitch": 66, "duration": 24, "velocity": 127}, {"time": 5411, "pitch": 56, "duration": 5, "velocity": 99}, {"time": 5423, "pitch": 59, "duration": 3, "velocity": 90}, {"time": 5435, "pitch": 49, "duration": 36, "velocity": 90}, {"time": 5435, "pitch": 61, "duration": 32, "velocity": 99}, {"time": 5435, "pitch": 64, "duration": 28, "velocity": 100}, {"time": 5435, "pitch": 68, "duration": 31, "velocity": 112}, {"time": 5447, "pitch": 52, "duration": 24, "velocity": 52}, {"time": 5459, "pitch": 56, "duration": 12, "velocity": 59}, {"time": 5471, "pitch": 45, "duration": 9, "velocity": 81}, {"time": 5471, "pitch": 57, "duration": 6, "velocity": 86}, {"time": 5471, "pitch": 61, "duration": 8, "velocity": 93}, {"time": 5471, "pitch": 64, "duration": 5, "velocity": 83}, {"time": 5483, "pitch": 47, "duration": 2, "velocity": 52}, {"time": 5483, "pitch": 59, "duration": 4, "velocity": 81}, {"time": 5483, "pitch": 63, "duration": 3, "velocity": 99}, {"time": 5483, "pitch": 66, "duration": 4, "velocity": 90}, {"time": 5495, "pitch": 49, "duration": 12, "velocity": 102}, {"time": 5495, "pitch": 61, "duration": 11, "velocity": 93}, {"time": 5495, "pitch": 64, "duration": 11, "velocity": 81}, {"time": 5495, "pitch": 68, "duration": 11, "velocity": 86}, {"time": 5507, "pitch": 40, "duration": 28, "velocity": 77}, {"time": 5507, "pitch": 64, "duration": 22, "velocity": 97}, {"time": 5507, "pitch": 68, "duration": 23, "velocity": 122}, {"time": 5519, "pitch": 47, "duration": 24, "velocity": 55}, {"time": 5531, "pitch": 52, "duration": 11, "velocity": 68}, {"time": 5543, "pitch": 42, "duration": 24, "velocity": 79}, {"time": 5543, "pitch": 54, "duration": 8, "velocity": 95}, {"time": 5543, "pitch": 57, "duration": 23, "velocity": 100}, {"time": 5543, "pitch": 61, "duration": 24, "velocity": 100}, {"time": 5567, "pitch": 54, "duration": 2, "velocity": 75}, {"time": 5579, "pitch": 47, "duration": 21, "velocity": 90}, {"time": 5579, "pitch": 63, "duration": 16, "velocity": 107}, {"time": 5579, "pitch": 66, "duration": 16, "velocity": 107}, {"time": 5591, "pitch": 59, "duration": 15, "velocity": 61}, {"time": 5615, "pitch": 45, "duration": 24, "velocity": 73}, {"time": 5615, "pitch": 57, "duration": 6, "velocity": 92}, {"time": 5615, "pitch": 61, "duration": 17, "velocity": 107}, {"time": 5615, "pitch": 64, "duration": 18, "velocity": 89}, {"time": 5627, "pitch": 52, "duration": 13, "velocity": 64}, {"time": 5639, "pitch": 61, "duration": 13, "velocity": 117}, {"time": 5639, "pitch": 64, "duration": 11, "velocity": 90}, {"time": 5651, "pitch": 44, "duration": 33, "velocity": 100}, {"time": 5651, "pitch": 59, "duration": 16, "velocity": 107}, {"time": 5663, "pitch": 56, "duration": 17, "velocity": 93}, {"time": 5675, "pitch": 59, "duration": 11, "velocity": 79}, {"time": 5687, "pitch": 44, "duration": 24, "velocity": 100}, {"time": 5687, "pitch": 59, "duration": 3, "velocity": 89}, {"time": 5687, "pitch": 63, "duration": 23, "velocity": 117}, {"time": 5687, "pitch": 68, "duration": 25, "velocity": 100}, {"time": 5699, "pitch": 56, "duration": 10, "velocity": 95}, {"time": 5711, "pitch": 59, "duration": 4, "velocity": 95}, {"time": 5723, "pitch": 49, "duration": 22, "velocity": 107}, {"time": 5723, "pitch": 61, "duration": 5, "velocity": 88}, {"time": 5723, "pitch": 64, "duration": 10, "velocity": 75}, {"time": 5723, "pitch": 68, "duration": 17, "velocity": 93}, {"time": 5735, "pitch": 61, "duration": 15, "velocity": 39}, {"time": 5747, "pitch": 64, "duration": 3, "velocity": 68}, {"time": 5747, "pitch": 68, "duration": 3, "velocity": 96}, {"time": 5759, "pitch": 49, "duration": 20, "velocity": 70}, {"time": 5759, "pitch": 56, "duration": 19, "velocity": 97}, {"time": 5759, "pitch": 61, "duration": 6, "velocity": 100}, {"time": 5759, "pitch": 65, "duration": 15, "velocity": 107}, {"time": 5759, "pitch": 68, "duration": 15, "velocity": 122}, {"time": 5771, "pitch": 61, "duration": 15, "velocity": 79}, {"time": 5783, "pitch": 65, "duration": 3, "velocity": 74}, {"time": 5783, "pitch": 68, "duration": 1, "velocity": 38}, {"time": 5795, "pitch": 42, "duration": 25, "velocity": 95}, {"time": 5795, "pitch": 57, "duration": 18, "velocity": 89}, {"time": 5795, "pitch": 61, "duration": 20, "velocity": 117}, {"time": 5807, "pitch": 54, "duration": 12, "velocity": 72}, {"time": 5819, "pitch": 57, "duration": 4, "velocity": 112}, {"time": 5819, "pitch": 61, "duration": 2, "velocity": 29}, {"time": 5831, "pitch": 42, "duration": 22, "velocity": 89}, {"time": 5831, "pitch": 57, "duration": 14, "velocity": 85}, {"time": 5831, "pitch": 61, "duration": 24, "velocity": 107}, {"time": 5843, "pitch": 54, "duration": 13, "velocity": 77}, {"time": 5855, "pitch": 57, "duration": 8, "velocity": 93}, {"time": 5867, "pitch": 47, "duration": 24, "velocity": 75}, {"time": 5867, "pitch": 59, "duration": 6, "velocity": 79}, {"time": 5867, "pitch": 63, "duration": 25, "velocity": 122}, {"time": 5867, "pitch": 66, "duration": 24, "velocity": 107}, {"time": 5879, "pitch": 54, "duration": 12, "velocity": 58}, {"time": 5891, "pitch": 59, "duration": 7, "velocity": 86}, {"time": 5903, "pitch": 45, "duration": 22, "velocity": 76}, {"time": 5903, "pitch": 57, "duration": 12, "velocity": 90}, {"time": 5903, "pitch": 61, "duration": 33, "velocity": 100}, {"time": 5903, "pitch": 64, "duration": 24, "velocity": 83}, {"time": 5915, "pitch": 52, "duration": 11, "velocity": 41}, {"time": 5927, "pitch": 57, "duration": 3, "velocity": 74}, {"time": 5939, "pitch": 44, "duration": 53, "velocity": 83}, {"time": 5939, "pitch": 59, "duration": 16, "velocity": 99}, {"time": 5939, "pitch": 63, "duration": 27, "velocity": 102}, {"time": 5951, "pitch": 56, "duration": 31, "velocity": 69}, {"time": 5963, "pitch": 59, "duration": 10, "velocity": 75}, {"time": 5975, "pitch": 63, "duration": 24, "velocity": 127}, {"time": 5975, "pitch": 66, "duration": 24, "velocity": 127}, {"time": 5987, "pitch": 56, "duration": 5, "velocity": 99}, {"time": 5999, "pitch": 59, "duration": 3, "velocity": 90}, {"time": 6011, "pitch": 49, "duration": 36, "velocity": 90}, {"time": 6011, "pitch": 61, "duration": 32, "velocity": 99}, {"time": 6011, "pitch": 64, "duration": 28, "velocity": 100}, {"time": 6011, "pitch": 68, "duration": 31, "velocity": 112}, {"time": 6023, "pitch": 52, "duration": 24, "velocity": 52}, {"time": 6035, "pitch": 56, "duration": 12, "velocity": 59}], "annotations": [{"time": 36, "annotation": {"number": 64, "value": 127}, "group": "control_change"}, {"time": 103, "annotation": {"number": 64, "value": 0}, "group": "control_change"}, {"time": 107, "annotation": {"number": 64, "value": 127}, "group": "control_change"}, {"time": 173, "annotation": {"number": 64, "value": 0}, "group": "control_change"}, {"time": 179, "annotation": {"number": 64, "value": 127}, "group": "control_change"}, {"time": 246, "annotation": {"number": 64, "value": 0}, "group": "control_change"}, {"time": 250, "annotation": {"number": 64, "value": 127}, "group": "control_change"}, {"time": 319, "annotation": {"number": 64, "value": 0}, "group": "control_change"}, {"time": 322, "annotation": {"number": 64, "value": 127}, "group": "control_change"}, {"time": 393, "annotation": {"number": 64, "value": 0}, "group": "control_change"}, {"time": 394, "annotation": {"number": 64, "value": 127}, "group": "control_change"}, {"time": 464, "annotation": {"number": 64, "value": 0}, "group": "control_change"}, {"time": 465, "annotation": {"number": 64, "value": 127}, "group": "control_change"}, {"time": 537, "annotation": {"number": 64, "value": 0}, "group": "control_change"}, {"time": 538, "annotation": {"number": 64, "value": 127}, "group": "control_change"}, {"time": 606, "annotation": {"number": 64, "value": 0}, "group": "control_change"}, {"time": 611, "annotation": {"number": 64, "value": 127}, "group": "control_change"}, {"time": 646, "annotation": {"number": 64, "value": 0}, "group": "control_change"}, {"time": 649, "annotation": {"number": 64, "value": 127}, "group": "control_change"}, {"time": 680, "annotation": {"number": 64, "value": 0}, "group": "control_change"}, {"time": 685, "annotation": {"number": 64, "value": 127}, "group": "control_change"}, {"time": 715, "annotation": {"number": 64, "value": 0}, "group": "control_change"}, {"time": 721, "annotation": {"number": 64, "value": 127}, "group": "control_change"}, {"time": 751, "annotation": {"number": 64, "value": 0}, "group": "control_change"}, {"time": 754, "annotation": {"number": 64, "value": 127}, "group": "control_change"}, {"time": 789, "annotation": {"number": 64, "value": 127}, "group": "control_change"}, {"time": 799, "annotation": {"number": 64, "value": 0}, "group": "control_change"}, {"time": 811, "annotation": {"number": 64, "value": 0}, "group": "control_change"}, {"time": 815, "annotation": {"number": 64, "value": 127}, "group": "control_change"}, {"time": 821, "annotation": {"number": 64, "value": 0}, "group": "control_change"}, {"time": 828, "annotation": {"number": 64, "value": 127}, "group": "control_change"}, {"time": 895, "annotation": {"number": 64, "value": 0}, "group": "control_change"}, {"time": 900, "annotation": {"number": 64, "value": 127}, "group": "control_change"}, {"time": 966, "annotation": {"number": 64, "value": 0}, "group": "control_change"}, {"time": 971, "annotation": {"number": 64, "value": 127}, "group": "control_change"}, {"time": 1038, "annotation": {"number": 64, "value": 0}, "group": "control_change"}, {"time": 1043, "annotation": {"number": 64, "value": 127}, "group": "control_change"}, {"time": 1074, "annotation": {"number": 64, "value": 0}, "group": "control_change"}, {"time": 1078, "annotation": {"number": 64, "value": 127}, "group": "control_change"}, {"time": 1111, "annotation": {"number": 64, "value": 0}, "group": "control_change"}, {"time": 1114, "annotation": {"number": 64, "value": 127}, "group": "control_change"}, {"time": 1183, "annotation": {"number": 64, "value": 0}, "group": "control_change"}, {"time": 1187, "annotation": {"number": 64, "value": 127}, "group": "control_change"}, {"time": 1231, "annotation": {"number": 64, "value": 127}, "group": "control_change"}, {"time": 1233, "annotation": {"number": 64, "value": 0}, "group": "control_change"}, {"time": 1256, "annotation": {"number": 64, "value": 0}, "group": "control_change"}, {"time": 1261, "annotation": {"number": 64, "value": 127}, "group": "control_change"}, {"time": 1327, "annotation": {"number": 64, "value": 0}, "group": "control_change"}, {"time": 1331, "annotation": {"number": 64, "value": 127}, "group": "control_change"}, {"time": 1365, "annotation": {"number": 64, "value": 0}, "group": "control_change"}, {"time": 1368, "annotation": {"number": 64, "value": 127}, "group": "control_change"}, {"time": 1400, "annotation": {"number": 64, "value": 0}, "group": "control_change"}, {"time": 1404, "annotation": {"number": 64, "value": 127}, "group": "control_change"}, {"time": 1437, "annotation": {"number": 64, "value": 127}, "group": "control_change"}, {"time": 1463, "annotation": {"number": 64, "value": 0}, "group": "control_change"}, {"time": 1464, "annotation": {"number": 64, "value": 0}, "group": "control_change"}, {"time": 1479, "annotation": {"number": 64, "value": 127}, "group": "control_change"}, {"time": 1508, "annotation": {"number": 64, "value": 0}, "group": "control_change"}, {"time": 1514, "annotation": {"number": 64, "value": 127}, "group": "control_change"}, {"time": 1544, "annotation": {"number": 64, "value": 0}, "group": "control_change"}, {"time": 1548, "annotation": {"number": 64, "value": 127}, "group": "control_change"}, {"time": 1581, "annotation": {"number": 64, "value": 0}, "group": "control_change"}, {"time": 1585, "annotation": {"number": 64, "value": 127}, "group": "control_change"}, {"time": 1615, "annotation": {"number": 64, "value": 0}, "group": "control_change"}, {"time": 1619, "annotation": {"number": 64, "value": 127}, "group": "control_change"}, {"time": 1687, "annotation": {"number": 64, "value": 0}, "group": "control_change"}, {"time": 1692, "annotation": {"number": 64, "value": 127}, "group": "control_change"}, {"time": 1724, "annotation": {"number": 64, "value": 0}, "group": "control_change"}, {"time": 1729, "annotation": {"number": 64, "value": 127}, "group": "control_change"}, {"time": 1759, "annotation": {"number": 64, "value": 0}, "group": "control_change"}, {"time": 1764, "annotation": {"number": 64, "value": 127}, "group": "control_change"}, {"time": 1798, "annotation": {"number": 64, "value": 0}, "group": "control_change"}, {"time": 1800, "annotation": {"number": 64, "value": 127}, "group": "control_change"}, {"time": 1831, "annotation": {"number": 64, "value": 0}, "group": "control_change"}, {"time": 1834, "annotation": {"number": 64, "value": 127}, "group": "control_change"}, {"time": 1869, "annotation": {"number": 64, "value": 0}, "group": "control_change"}, {"time": 1873, "annotation": {"number": 64, "value": 127}, "group": "control_change"}, {"time": 1903, "annotation": {"number": 64, "value": 0}, "group": "control_change"}, {"time": 1907, "annotation": {"number": 64, "value": 127}, "group": "control_change"}, {"time": 2047, "annotation": {"number": 64, "value": 0}, "group": "control_change"}, {"time": 2060, "annotation": {"number": 64, "value": 127}, "group": "control_change"}, {"time": 2088, "annotation": {"number": 64, "value": 0}, "group": "control_change"}, {"time": 2094, "annotation": {"number": 64, "value": 127}, "group": "control_change"}, {"time": 2119, "annotation": {"number": 64, "value": 0}, "group": "control_change"}, {"time": 2125, "annotation": {"number": 64, "value": 127}, "group": "control_change"}, {"time": 2190, "annotation": {"number": 64, "value": 0}, "group": "control_change"}, {"time": 2197, "annotation": {"number": 64, "value": 127}, "group": "control_change"}, {"time": 2228, "annotation": {"number": 64, "value": 0}, "group": "control_change"}, {"time": 2232, "annotation": {"number": 64, "value": 127}, "group": "control_change"}, {"time": 2263, "annotation": {"number": 64, "value": 0}, "group": "control_change"}, {"time": 2268, "annotation": {"number": 64, "value": 127}, "group": "control_change"}, {"time": 2301, "annotation": {"number": 64, "value": 0}, "group": "control_change"}, {"time": 2307, "annotation": {"number": 64, "value": 127}, "group": "control_change"}, {"time": 2331, "annotation": {"number": 64, "value": 0}, "group": "control_change"}, {"time": 2360, "annotation": {"number": 64, "value": 127}, "group": "control_change"}, {"time": 2374, "annotation": {"number": 64, "value": 0}, "group": "control_change"}, {"time": 2381, "annotation": {"number": 64, "value": 127}, "group": "control_change"}, {"time": 2407, "annotation": {"number": 64, "value": 0}, "group": "control_change"}, {"time": 2413, "annotation": {"number": 64, "value": 127}, "group": "control_change"}, {"time": 2446, "annotation": {"number": 64, "value": 0}, "group": "control_change"}, {"time": 2451, "annotation": {"number": 64, "value": 127}, "group": "control_change"}, {"time": 2479, "annotation": {"number": 64, "value": 0}, "group": "control_change"}, {"time": 2484, "annotation": {"number": 64, "value": 127}, "group": "control_change"}, {"time": 2516, "annotation": {"number": 64, "value": 0}, "group": "control_change"}, {"time": 2527, "annotation": {"number": 64, "value": 127}, "group": "control_change"}, {"time": 2551, "annotation": {"number": 64, "value": 0}, "group": "control_change"}, {"time": 2558, "annotation": {"number": 64, "value": 127}, "group": "control_change"}, {"time": 2625, "annotation": {"number": 64, "value": 0}, "group": "control_change"}, {"time": 2697, "annotation": {"number": 64, "value": 0}, "group": "control_change"}, {"time": 2698, "annotation": {"number": 64, "value": 127}, "group": "control_change"}, {"time": 2768, "annotation": {"number": 64, "value": 0}, "group": "control_change"}, {"time": 2769, "annotation": {"number": 64, "value": 127}, "group": "control_change"}, {"time": 2841, "annotation": {"number": 64, "value": 0}, "group": "control_change"}, {"time": 2842, "annotation": {"number": 64, "value": 127}, "group": "control_change"}, {"time": 2910, "annotation": {"number": 64, "value": 0}, "group": "control_change"}, {"time": 2915, "annotation": {"number": 64, "value": 127}, "group": "control_change"}, {"time": 2950, "annotation": {"number": 64, "value": 0}, "group": "control_change"}, {"time": 2953, "annotation": {"number": 64, "value": 127}, "group": "control_change"}, {"time": 2984, "annotation": {"number": 64, "value": 0}, "group": "control_change"}, {"time": 2989, "annotation": {"number": 64, "value": 127}, "group": "control_change"}, {"time": 3019, "annotation": {"number": 64, "value": 0}, "group": "control_change"}, {"time": 3025, "annotation": {"number": 64, "value": 127}, "group": "control_change"}, {"time": 3055, "annotation": {"number": 64, "value": 0}, "group": "control_change"}, {"time": 3058, "annotation": {"number": 64, "value": 127}, "group": "control_change"}, {"time": 3093, "annotation": {"number": 64, "value": 127}, "group": "control_change"}, {"time": 3103, "annotation": {"number": 64, "value": 0}, "group": "control_change"}, {"time": 3115, "annotation": {"number": 64, "value": 0}, "group": "control_change"}, {"time": 3119, "annotation": {"number": 64, "value": 127}, "group": "control_change"}, {"time": 3125, "annotation": {"number": 64, "value": 0}, "group": "control_change"}, {"time": 3132, "annotation": {"number": 64, "value": 127}, "group": "control_change"}, {"time": 3199, "annotation": {"number": 64, "value": 0}, "group": "control_change"}, {"time": 3204, "annotation": {"number": 64, "value": 127}, "group": "control_change"}, {"time": 3270, "annotation": {"number": 64, "value": 0}, "group": "control_change"}, {"time": 3275, "annotation": {"number": 64, "value": 127}, "group": "control_change"}, {"time": 3342, "annotation": {"number": 64, "value": 0}, "group": "control_change"}, {"time": 3347, "annotation": {"number": 64, "value": 127}, "group": "control_change"}, {"time": 3378, "annotation": {"number": 64, "value": 0}, "group": "control_change"}, {"time": 3382, "annotation": {"number": 64, "value": 127}, "group": "control_change"}, {"time": 3415, "annotation": {"number": 64, "value": 0}, "group": "control_change"}, {"time": 3418, "annotation": {"number": 64, "value": 127}, "group": "control_change"}, {"time": 3487, "annotation": {"number": 64, "value": 0}, "group": "control_change"}, {"time": 3491, "annotation": {"number": 64, "value": 127}, "group": "control_change"}, {"time": 3535, "annotation": {"number": 64, "value": 127}, "group": "control_change"}, {"time": 3537, "annotation": {"number": 64, "value": 0}, "group": "control_change"}, {"time": 3560, "annotation": {"number": 64, "value": 0}, "group": "control_change"}, {"time": 3565, "annotation": {"number": 64, "value": 127}, "group": "control_change"}, {"time": 3631, "annotation": {"number": 64, "value": 0}, "group": "control_change"}, {"time": 3635, "annotation": {"number": 64, "value": 127}, "group": "control_change"}, {"time": 3669, "annotation": {"number": 64, "value": 0}, "group": "control_change"}, {"time": 3672, "annotation": {"number": 64, "value": 127}, "group": "control_change"}, {"time": 3704, "annotation": {"number": 64, "value": 0}, "group": "control_change"}, {"time": 3708, "annotation": {"number": 64, "value": 127}, "group": "control_change"}, {"time": 3741, "annotation": {"number": 64, "value": 127}, "group": "control_change"}, {"time": 3767, "annotation": {"number": 64, "value": 0}, "group": "control_change"}, {"time": 3768, "annotation": {"number": 64, "value": 0}, "group": "control_change"}, {"time": 3783, "annotation": {"number": 64, "value": 127}, "group": "control_change"}, {"time": 3812, "annotation": {"number": 64, "value": 0}, "group": "control_change"}, {"time": 3818, "annotation": {"number": 64, "value": 127}, "group": "control_change"}, {"time": 3848, "annotation": {"number": 64, "value": 0}, "group": "control_change"}, {"time": 3852, "annotation": {"number": 64, "value": 127}, "group": "control_change"}, {"time": 3885, "annotation": {"number": 64, "value": 0}, "group": "control_change"}, {"time": 3889, "annotation": {"number": 64, "value": 127}, "group": "control_change"}, {"time": 3919, "annotation": {"number": 64, "value": 0}, "group": "control_change"}, {"time": 3923, "annotation": {"number": 64, "value": 127}, "group": "control_change"}, {"time": 3991, "annotation": {"number": 64, "value": 0}, "group": "control_change"}, {"time": 3996, "annotation": {"number": 64, "value": 127}, "group": "control_change"}, {"time": 4028, "annotation": {"number": 64, "value": 0}, "group": "control_change"}, {"time": 4033, "annotation": {"number": 64, "value": 127}, "group": "control_change"}, {"time": 4063, "annotation": {"number": 64, "value": 0}, "group": "control_change"}, {"time": 4068, "annotation": {"number": 64, "value": 127}, "group": "control_change"}, {"time": 4102, "annotation": {"number": 64, "value": 0}, "group": "control_change"}, {"time": 4104, "annotation": {"number": 64, "value": 127}, "group": "control_change"}, {"time": 4135, "annotation": {"number": 64, "value": 0}, "group": "control_change"}, {"time": 4138, "annotation": {"number": 64, "value": 127}, "group": "control_change"}, {"time": 4173, "annotation": {"number": 64, "value": 0}, "group": "control_change"}, {"time": 4177, "annotation": {"number": 64, "value": 127}, "group": "control_change"}, {"time": 4207, "annotation": {"number": 64, "value": 0}, "group": "control_change"}, {"time": 4211, "annotation": {"number": 64, "value": 127}, "group": "control_change"}, {"time": 4343, "annotation": {"number": 64, "value": 0}, "group": "control_change"}, {"time": 4344, "annotation": {"number": 64, "value": 0}, "group": "control_change"}, {"time": 4359, "annotation": {"number": 64, "value": 127}, "group": "control_change"}, {"time": 4388, "annotation": {"number": 64, "value": 0}, "group": "control_change"}, {"time": 4394, "annotation": {"number": 64, "value": 127}, "group": "control_change"}, {"time": 4424, "annotation": {"number": 64, "value": 0}, "group": "control_change"}, {"time": 4428, "annotation": {"number": 64, "value": 127}, "group": "control_change"}, {"time": 4461, "annotation": {"number": 64, "value": 0}, "group": "control_change"}, {"time": 4465, "annotation": {"number": 64, "value": 127}, "group": "control_change"}, {"time": 4495, "annotation": {"number": 64, "value": 0}, "group": "control_change"}, {"time": 4499, "annotation": {"number": 64, "value": 127}, "group": "control_change"}, {"time": 4567, "annotation": {"number": 64, "value": 0}, "group": "control_change"}, {"time": 4572, "annotation": {"number": 64, "value": 127}, "group": "control_change"}, {"time": 4604, "annotation": {"number": 64, "value": 0}, "group": "control_change"}, {"time": 4609, "annotation": {"number": 64, "value": 127}, "group": "control_change"}, {"time": 4639, "annotation": {"number": 64, "value": 0}, "group": "control_change"}, {"time": 4644, "annotation": {"number": 64, "value": 127}, "group": "control_change"}, {"time": 4678, "annotation": {"number": 64, "value": 0}, "group": "control_change"}, {"time": 4680, "annotation": {"number": 64, "value": 127}, "group": "control_change"}, {"time": 4711, "annotation": {"number": 64, "value": 0}, "group": "control_change"}, {"time": 4714, "annotation": {"number": 64, "value": 127}, "group": "control_change"}, {"time": 4749, "annotation": {"number": 64, "value": 0}, "group": "control_change"}, {"time": 4753, "annotation": {"number": 64, "value": 127}, "group": "control_change"}, {"time": 4783, "annotation": {"number": 64, "value": 0}, "group": "control_change"}, {"time": 4787, "annotation": {"number": 64, "value": 127}, "group": "control_change"}, {"time": 4919, "annotation": {"number": 64, "value": 0}, "group": "control_change"}, {"time": 4920, "annotation": {"number": 64, "value": 0}, "group": "control_change"}, {"time": 4935, "annotation": {"number": 64, "value": 127}, "group": "control_change"}, {"time": 4964, "annotation": {"number": 64, "value": 0}, "group": "control_change"}, {"time": 4970, "annotation": {"number": 64, "value": 127}, "group": "control_change"}, {"time": 5000, "annotation": {"number": 64, "value": 0}, "group": "control_change"}, {"time": 5004, "annotation": {"number": 64, "value": 127}, "group": "control_change"}, {"time": 5037, "annotation": {"number": 64, "value": 0}, "group": "control_change"}, {"time": 5041, "annotation": {"number": 64, "value": 127}, "group": "control_change"}, {"time": 5071, "annotation": {"number": 64, "value": 0}, "group": "control_change"}, {"time": 5075, "annotation": {"number": 64, "value": 127}, "group": "control_change"}, {"time": 5143, "annotation": {"number": 64, "value": 0}, "group": "control_change"}, {"time": 5148, "annotation": {"number": 64, "value": 127}, "group": "control_change"}, {"time": 5180, "annotation": {"number": 64, "value": 0}, "group": "control_change"}, {"time": 5185, "annotation": {"number": 64, "value": 127}, "group": "control_change"}, {"time": 5215, "annotation": {"number": 64, "value": 0}, "group": "control_change"}, {"time": 5220, "annotation": {"number": 64, "value": 127}, "group": "control_change"}, {"time": 5254, "annotation": {"number": 64, "value": 0}, "group": "control_change"}, {"time": 5256, "annotation": {"number": 64, "value": 127}, "group": "control_change"}, {"time": 5287, "annotation": {"number": 64, "value": 0}, "group": "control_change"}, {"time": 5290, "annotation": {"number": 64, "value": 127}, "group": "control_change"}, {"time": 5325, "annotation": {"number": 64, "value": 0}, "group": "control_change"}, {"time": 5329, "annotation": {"number": 64, "value": 127}, "group": "control_change"}, {"time": 5359, "annotation": {"number": 64, "value": 0}, "group": "control_change"}, {"time": 5363, "annotation": {"number": 64, "value": 127}, "group": "control_change"}, {"time": 5495, "annotation": {"number": 64, "value": 0}, "group": "control_change"}, {"time": 5496, "annotation": {"number": 64, "value": 0}, "group": "control_change"}, {"time": 5511, "annotation": {"number": 64, "value": 127}, "group": "control_change"}, {"time": 5540, "annotation": {"number": 64, "value": 0}, "group": "control_change"}, {"time": 5546, "annotation": {"number": 64, "value": 127}, "group": "control_change"}, {"time": 5576, "annotation": {"number": 64, "value": 0}, "group": "control_change"}, {"time": 5580, "annotation": {"number": 64, "value": 127}, "group": "control_change"}, {"time": 5613, "annotation": {"number": 64, "value": 0}, "group": "control_change"}, {"time": 5617, "annotation": {"number": 64, "value": 127}, "group": "control_change"}, {"time": 5647, "annotation": {"number": 64, "value": 0}, "group": "control_change"}, {"time": 5651, "annotation": {"number": 64, "value": 127}, "group": "control_change"}, {"time": 5719, "annotation": {"number": 64, "value": 0}, "group": "control_change"}, {"time": 5724, "annotation": {"number": 64, "value": 127}, "group": "control_change"}, {"time": 5756, "annotation": {"number": 64, "value": 0}, "group": "control_change"}, {"time": 5761, "annotation": {"number": 64, "value": 127}, "group": "control_change"}, {"time": 5791, "annotation": {"number": 64, "value": 0}, "group": "control_change"}, {"time": 5796, "annotation": {"number": 64, "value": 127}, "group": "control_change"}, {"time": 5830, "annotation": {"number": 64, "value": 0}, "group": "control_change"}, {"time": 5832, "annotation": {"number": 64, "value": 127}, "group": "control_change"}, {"time": 5863, "annotation": {"number": 64, "value": 0}, "group": "control_change"}, {"time": 5866, "annotation": {"number": 64, "value": 127}, "group": "control_change"}, {"time": 5901, "annotation": {"number": 64, "value": 0}, "group": "control_change"}, {"time": 5905, "annotation": {"number": 64, "value": 127}, "group": "control_change"}, {"time": 5935, "annotation": {"number": 64, "value": 0}, "group": "control_change"}, {"time": 5939, "annotation": {"number": 64, "value": 127}, "group": "control_change"}]}]}