{"metadata": {"schema_version": "0.2", "title": "None", "source_filename": "108.mid", "source_format": "midi"}, "resolution": 12, "tempos": [{"time": 0, "qpm": 102.0000510000255}], "key_signatures": [{"time": 0, "root": 0, "mode": "major"}], "time_signatures": [{"time": 0, "numerator": 4, "denominator": 4}, {"time": 0, "numerator": 1, "denominator": 4}], "tracks": [{"program": 0, "is_drum": false, "name": "MELODY", "notes": [{"time": 668, "pitch": 69, "duration": 3, "velocity": 102}, {"time": 674, "pitch": 69, "duration": 6, "velocity": 102}, {"time": 680, "pitch": 71, "duration": 6, "velocity": 112}, {"time": 686, "pitch": 73, "duration": 8, "velocity": 122}, {"time": 698, "pitch": 73, "duration": 14, "velocity": 127}, {"time": 716, "pitch": 69, "duration": 2, "velocity": 99}, {"time": 722, "pitch": 69, "duration": 5, "velocity": 102}, {"time": 728, "pitch": 71, "duration": 2, "velocity": 97}, {"time": 734, "pitch": 73, "duration": 2, "velocity": 127}, {"time": 740, "pitch": 73, "duration": 9, "velocity": 112}, {"time": 758, "pitch": 69, "duration": 3, "velocity": 97}, {"time": 764, "pitch": 69, "duration": 6, "velocity": 117}, {"time": 776, "pitch": 69, "duration": 8, "velocity": 96}, {"time": 788, "pitch": 66, "duration": 9, "velocity": 102}, {"time": 806, "pitch": 71, "duration": 4, "velocity": 95}, {"time": 812, "pitch": 73, "duration": 8, "velocity": 117}, {"time": 824, "pitch": 73, "duration": 3, "velocity": 96}, {"time": 830, "pitch": 73, "duration": 4, "velocity": 102}, {"time": 836, "pitch": 64, "duration": 20, "velocity": 100}, {"time": 860, "pitch": 69, "duration": 3, "velocity": 92}, {"time": 866, "pitch": 71, "duration": 5, "velocity": 102}, {"time": 872, "pitch": 69, "duration": 7, "velocity": 81}, {"time": 878, "pitch": 73, "duration": 6, "velocity": 117}, {"time": 890, "pitch": 73, "duration": 17, "velocity": 112}, {"time": 908, "pitch": 69, "duration": 2, "velocity": 92}, {"time": 914, "pitch": 69, "duration": 6, "velocity": 97}, {"time": 920, "pitch": 71, "duration": 2, "velocity": 96}, {"time": 926, "pitch": 73, "duration": 2, "velocity": 122}, {"time": 932, "pitch": 73, "duration": 15, "velocity": 112}, {"time": 950, "pitch": 69, "duration": 2, "velocity": 97}, {"time": 956, "pitch": 69, "duration": 7, "velocity": 99}, {"time": 968, "pitch": 66, "duration": 4, "velocity": 99}, {"time": 974, "pitch": 73, "duration": 3, "velocity": 122}, {"time": 986, "pitch": 71, "duration": 13, "velocity": 102}, {"time": 998, "pitch": 71, "duration": 1, "velocity": 93}, {"time": 1004, "pitch": 71, "duration": 3, "velocity": 88}, {"time": 1010, "pitch": 73, "duration": 4, "velocity": 117}, {"time": 1016, "pitch": 71, "duration": 3, "velocity": 83}, {"time": 1022, "pitch": 71, "duration": 3, "velocity": 107}, {"time": 1028, "pitch": 69, "duration": 35, "velocity": 93}, {"time": 1136, "pitch": 71, "duration": 2, "velocity": 86}, {"time": 1142, "pitch": 71, "duration": 3, "velocity": 83}, {"time": 1148, "pitch": 71, "duration": 2, "velocity": 93}, {"time": 1154, "pitch": 71, "duration": 3, "velocity": 97}, {"time": 1160, "pitch": 73, "duration": 7, "velocity": 122}, {"time": 1172, "pitch": 71, "duration": 15, "velocity": 102}, {"time": 1184, "pitch": 71, "duration": 3, "velocity": 95}, {"time": 1190, "pitch": 71, "duration": 3, "velocity": 99}, {"time": 1196, "pitch": 71, "duration": 3, "velocity": 97}, {"time": 1202, "pitch": 71, "duration": 3, "velocity": 107}, {"time": 1208, "pitch": 73, "duration": 7, "velocity": 127}, {"time": 1220, "pitch": 71, "duration": 7, "velocity": 117}, {"time": 1238, "pitch": 78, "duration": 4, "velocity": 122}, {"time": 1244, "pitch": 76, "duration": 2, "velocity": 97}, {"time": 1250, "pitch": 76, "duration": 2, "velocity": 112}, {"time": 1256, "pitch": 76, "duration": 3, "velocity": 127}, {"time": 1268, "pitch": 73, "duration": 3, "velocity": 112}, {"time": 1274, "pitch": 71, "duration": 4, "velocity": 96}, {"time": 1280, "pitch": 71, "duration": 6, "velocity": 107}, {"time": 1292, "pitch": 73, "duration": 17, "velocity": 122}, {"time": 1328, "pitch": 71, "duration": 2, "velocity": 81}, {"time": 1334, "pitch": 71, "duration": 3, "velocity": 82}, {"time": 1340, "pitch": 71, "duration": 2, "velocity": 86}, {"time": 1346, "pitch": 71, "duration": 4, "velocity": 93}, {"time": 1352, "pitch": 73, "duration": 7, "velocity": 102}, {"time": 1364, "pitch": 71, "duration": 6, "velocity": 100}, {"time": 1376, "pitch": 71, "duration": 2, "velocity": 96}, {"time": 1382, "pitch": 71, "duration": 2, "velocity": 89}, {"time": 1388, "pitch": 71, "duration": 2, "velocity": 86}, {"time": 1394, "pitch": 71, "duration": 3, "velocity": 99}, {"time": 1400, "pitch": 73, "duration": 7, "velocity": 102}, {"time": 1412, "pitch": 76, "duration": 20, "velocity": 107}, {"time": 1430, "pitch": 78, "duration": 5, "velocity": 117}, {"time": 1436, "pitch": 76, "duration": 3, "velocity": 93}, {"time": 1442, "pitch": 76, "duration": 2, "velocity": 93}, {"time": 1448, "pitch": 76, "duration": 2, "velocity": 100}, {"time": 1460, "pitch": 73, "duration": 5, "velocity": 112}, {"time": 1466, "pitch": 78, "duration": 6, "velocity": 112}, {"time": 1478, "pitch": 78, "duration": 10, "velocity": 127}, {"time": 1490, "pitch": 76, "duration": 32, "velocity": 107}, {"time": 1568, "pitch": 73, "duration": 3, "velocity": 92}, {"time": 1574, "pitch": 73, "duration": 4, "velocity": 99}, {"time": 1580, "pitch": 71, "duration": 3, "velocity": 89}, {"time": 1586, "pitch": 73, "duration": 4, "velocity": 102}, {"time": 1592, "pitch": 78, "duration": 9, "velocity": 112}, {"time": 1604, "pitch": 76, "duration": 6, "velocity": 100}, {"time": 1616, "pitch": 76, "duration": 2, "velocity": 90}, {"time": 1622, "pitch": 76, "duration": 3, "velocity": 102}, {"time": 1628, "pitch": 74, "duration": 4, "velocity": 99}, {"time": 1634, "pitch": 73, "duration": 4, "velocity": 117}, {"time": 1640, "pitch": 74, "duration": 6, "velocity": 107}, {"time": 1652, "pitch": 73, "duration": 13, "velocity": 122}, {"time": 1670, "pitch": 73, "duration": 4, "velocity": 127}, {"time": 1676, "pitch": 71, "duration": 2, "velocity": 85}, {"time": 1682, "pitch": 71, "duration": 4, "velocity": 97}, {"time": 1688, "pitch": 73, "duration": 7, "velocity": 117}, {"time": 1700, "pitch": 71, "duration": 4, "velocity": 102}, {"time": 1706, "pitch": 69, "duration": 7, "velocity": 107}, {"time": 1718, "pitch": 78, "duration": 6, "velocity": 127}, {"time": 1730, "pitch": 76, "duration": 3, "velocity": 127}, {"time": 1736, "pitch": 78, "duration": 4, "velocity": 117}, {"time": 1742, "pitch": 76, "duration": 2, "velocity": 107}, {"time": 1748, "pitch": 73, "duration": 13, "velocity": 117}, {"time": 1772, "pitch": 73, "duration": 2, "velocity": 127}, {"time": 1778, "pitch": 73, "duration": 2, "velocity": 122}, {"time": 1784, "pitch": 71, "duration": 2, "velocity": 97}, {"time": 1790, "pitch": 73, "duration": 2, "velocity": 127}, {"time": 1796, "pitch": 78, "duration": 8, "velocity": 112}, {"time": 1808, "pitch": 76, "duration": 8, "velocity": 127}, {"time": 1820, "pitch": 76, "duration": 2, "velocity": 109}, {"time": 1826, "pitch": 76, "duration": 4, "velocity": 112}, {"time": 1832, "pitch": 74, "duration": 2, "velocity": 102}, {"time": 1838, "pitch": 73, "duration": 2, "velocity": 117}, {"time": 1844, "pitch": 74, "duration": 4, "velocity": 102}, {"time": 1850, "pitch": 73, "duration": 7, "velocity": 127}, {"time": 1874, "pitch": 73, "duration": 2, "velocity": 127}, {"time": 1880, "pitch": 71, "duration": 2, "velocity": 93}, {"time": 1886, "pitch": 71, "duration": 3, "velocity": 93}, {"time": 1892, "pitch": 73, "duration": 3, "velocity": 117}, {"time": 1898, "pitch": 71, "duration": 6, "velocity": 99}, {"time": 1904, "pitch": 73, "duration": 9, "velocity": 100}, {"time": 1922, "pitch": 71, "duration": 3, "velocity": 99}, {"time": 1928, "pitch": 66, "duration": 5, "velocity": 107}, {"time": 1934, "pitch": 69, "duration": 36, "velocity": 107}, {"time": 1970, "pitch": 71, "duration": 6, "velocity": 99}, {"time": 1976, "pitch": 73, "duration": 8, "velocity": 117}, {"time": 1994, "pitch": 73, "duration": 7, "velocity": 117}, {"time": 2003, "pitch": 69, "duration": 39, "velocity": 95}, {"time": 2288, "pitch": 71, "duration": 2, "velocity": 86}, {"time": 2294, "pitch": 71, "duration": 3, "velocity": 83}, {"time": 2300, "pitch": 71, "duration": 2, "velocity": 93}, {"time": 2306, "pitch": 71, "duration": 3, "velocity": 97}, {"time": 2312, "pitch": 73, "duration": 7, "velocity": 122}, {"time": 2324, "pitch": 71, "duration": 15, "velocity": 102}, {"time": 2336, "pitch": 71, "duration": 3, "velocity": 95}, {"time": 2342, "pitch": 71, "duration": 3, "velocity": 99}, {"time": 2348, "pitch": 71, "duration": 3, "velocity": 97}, {"time": 2354, "pitch": 71, "duration": 3, "velocity": 107}, {"time": 2360, "pitch": 73, "duration": 7, "velocity": 127}, {"time": 2372, "pitch": 71, "duration": 7, "velocity": 117}, {"time": 2390, "pitch": 78, "duration": 4, "velocity": 122}, {"time": 2396, "pitch": 76, "duration": 2, "velocity": 97}, {"time": 2402, "pitch": 76, "duration": 2, "velocity": 112}, {"time": 2408, "pitch": 76, "duration": 3, "velocity": 127}, {"time": 2420, "pitch": 73, "duration": 3, "velocity": 112}, {"time": 2426, "pitch": 71, "duration": 4, "velocity": 96}, {"time": 2432, "pitch": 71, "duration": 6, "velocity": 107}, {"time": 2444, "pitch": 73, "duration": 17, "velocity": 122}, {"time": 2480, "pitch": 71, "duration": 2, "velocity": 81}, {"time": 2486, "pitch": 71, "duration": 3, "velocity": 82}, {"time": 2492, "pitch": 71, "duration": 2, "velocity": 86}, {"time": 2498, "pitch": 71, "duration": 4, "velocity": 93}, {"time": 2504, "pitch": 73, "duration": 7, "velocity": 102}, {"time": 2516, "pitch": 71, "duration": 6, "velocity": 100}, {"time": 2528, "pitch": 71, "duration": 2, "velocity": 96}, {"time": 2534, "pitch": 71, "duration": 2, "velocity": 89}, {"time": 2540, "pitch": 71, "duration": 2, "velocity": 86}, {"time": 2546, "pitch": 71, "duration": 3, "velocity": 99}, {"time": 2552, "pitch": 73, "duration": 7, "velocity": 102}, {"time": 2564, "pitch": 76, "duration": 20, "velocity": 107}, {"time": 2582, "pitch": 78, "duration": 5, "velocity": 117}, {"time": 2588, "pitch": 76, "duration": 3, "velocity": 93}, {"time": 2594, "pitch": 76, "duration": 2, "velocity": 93}, {"time": 2600, "pitch": 76, "duration": 2, "velocity": 100}, {"time": 2612, "pitch": 73, "duration": 5, "velocity": 112}, {"time": 2618, "pitch": 78, "duration": 6, "velocity": 112}, {"time": 2630, "pitch": 78, "duration": 10, "velocity": 127}, {"time": 2642, "pitch": 76, "duration": 32, "velocity": 107}, {"time": 2720, "pitch": 73, "duration": 3, "velocity": 92}, {"time": 2726, "pitch": 73, "duration": 4, "velocity": 99}, {"time": 2732, "pitch": 71, "duration": 3, "velocity": 89}, {"time": 2738, "pitch": 73, "duration": 4, "velocity": 102}, {"time": 2744, "pitch": 78, "duration": 9, "velocity": 112}, {"time": 2756, "pitch": 76, "duration": 6, "velocity": 100}, {"time": 2768, "pitch": 76, "duration": 2, "velocity": 90}, {"time": 2774, "pitch": 76, "duration": 3, "velocity": 102}, {"time": 2780, "pitch": 74, "duration": 4, "velocity": 99}, {"time": 2786, "pitch": 73, "duration": 4, "velocity": 117}, {"time": 2792, "pitch": 74, "duration": 6, "velocity": 107}, {"time": 2804, "pitch": 73, "duration": 13, "velocity": 122}, {"time": 2822, "pitch": 73, "duration": 4, "velocity": 127}, {"time": 2828, "pitch": 71, "duration": 2, "velocity": 85}, {"time": 2834, "pitch": 71, "duration": 4, "velocity": 97}, {"time": 2840, "pitch": 73, "duration": 7, "velocity": 117}, {"time": 2852, "pitch": 71, "duration": 4, "velocity": 102}, {"time": 2858, "pitch": 69, "duration": 7, "velocity": 107}, {"time": 2870, "pitch": 78, "duration": 6, "velocity": 127}, {"time": 2882, "pitch": 76, "duration": 3, "velocity": 127}, {"time": 2888, "pitch": 78, "duration": 4, "velocity": 117}, {"time": 2894, "pitch": 76, "duration": 2, "velocity": 107}, {"time": 2900, "pitch": 73, "duration": 13, "velocity": 117}, {"time": 2924, "pitch": 73, "duration": 2, "velocity": 127}, {"time": 2930, "pitch": 73, "duration": 2, "velocity": 122}, {"time": 2936, "pitch": 71, "duration": 2, "velocity": 97}, {"time": 2942, "pitch": 73, "duration": 2, "velocity": 127}, {"time": 2948, "pitch": 78, "duration": 8, "velocity": 112}, {"time": 2960, "pitch": 76, "duration": 8, "velocity": 127}, {"time": 2969, "pitch": 76, "duration": 2, "velocity": 73}, {"time": 2975, "pitch": 76, "duration": 4, "velocity": 112}, {"time": 2984, "pitch": 74, "duration": 2, "velocity": 102}, {"time": 2990, "pitch": 73, "duration": 2, "velocity": 117}, {"time": 2996, "pitch": 74, "duration": 4, "velocity": 102}, {"time": 3002, "pitch": 73, "duration": 7, "velocity": 127}, {"time": 3026, "pitch": 73, "duration": 2, "velocity": 127}, {"time": 3032, "pitch": 71, "duration": 2, "velocity": 93}, {"time": 3038, "pitch": 71, "duration": 3, "velocity": 93}, {"time": 3044, "pitch": 73, "duration": 3, "velocity": 117}, {"time": 3050, "pitch": 71, "duration": 6, "velocity": 99}, {"time": 3056, "pitch": 73, "duration": 9, "velocity": 100}, {"time": 3074, "pitch": 71, "duration": 3, "velocity": 99}, {"time": 3080, "pitch": 66, "duration": 5, "velocity": 107}, {"time": 3086, "pitch": 69, "duration": 36, "velocity": 107}, {"time": 3122, "pitch": 71, "duration": 6, "velocity": 99}, {"time": 3128, "pitch": 73, "duration": 8, "velocity": 117}, {"time": 3146, "pitch": 73, "duration": 7, "velocity": 117}, {"time": 3155, "pitch": 69, "duration": 39, "velocity": 95}, {"time": 3440, "pitch": 74, "duration": 3, "velocity": 92}, {"time": 3446, "pitch": 74, "duration": 4, "velocity": 99}, {"time": 3452, "pitch": 72, "duration": 3, "velocity": 89}, {"time": 3458, "pitch": 74, "duration": 4, "velocity": 102}, {"time": 3464, "pitch": 79, "duration": 9, "velocity": 112}, {"time": 3476, "pitch": 77, "duration": 6, "velocity": 100}, {"time": 3488, "pitch": 77, "duration": 2, "velocity": 90}, {"time": 3494, "pitch": 77, "duration": 3, "velocity": 102}, {"time": 3500, "pitch": 75, "duration": 4, "velocity": 99}, {"time": 3506, "pitch": 74, "duration": 4, "velocity": 117}, {"time": 3512, "pitch": 75, "duration": 6, "velocity": 107}, {"time": 3524, "pitch": 74, "duration": 13, "velocity": 122}, {"time": 3542, "pitch": 74, "duration": 4, "velocity": 127}, {"time": 3548, "pitch": 72, "duration": 2, "velocity": 85}, {"time": 3554, "pitch": 72, "duration": 4, "velocity": 97}, {"time": 3560, "pitch": 74, "duration": 7, "velocity": 117}, {"time": 3572, "pitch": 72, "duration": 4, "velocity": 102}, {"time": 3578, "pitch": 70, "duration": 7, "velocity": 107}, {"time": 3590, "pitch": 79, "duration": 6, "velocity": 127}, {"time": 3602, "pitch": 77, "duration": 3, "velocity": 127}, {"time": 3608, "pitch": 79, "duration": 4, "velocity": 117}, {"time": 3614, "pitch": 77, "duration": 2, "velocity": 107}, {"time": 3620, "pitch": 74, "duration": 13, "velocity": 117}, {"time": 3644, "pitch": 74, "duration": 2, "velocity": 127}, {"time": 3650, "pitch": 74, "duration": 2, "velocity": 122}, {"time": 3656, "pitch": 72, "duration": 2, "velocity": 97}, {"time": 3662, "pitch": 74, "duration": 2, "velocity": 127}, {"time": 3668, "pitch": 79, "duration": 8, "velocity": 112}, {"time": 3680, "pitch": 77, "duration": 8, "velocity": 127}, {"time": 3689, "pitch": 77, "duration": 2, "velocity": 73}, {"time": 3695, "pitch": 77, "duration": 4, "velocity": 112}, {"time": 3704, "pitch": 75, "duration": 2, "velocity": 102}, {"time": 3710, "pitch": 74, "duration": 2, "velocity": 117}, {"time": 3716, "pitch": 75, "duration": 4, "velocity": 102}, {"time": 3722, "pitch": 74, "duration": 7, "velocity": 127}, {"time": 3746, "pitch": 74, "duration": 2, "velocity": 127}, {"time": 3752, "pitch": 72, "duration": 2, "velocity": 93}, {"time": 3758, "pitch": 72, "duration": 3, "velocity": 93}, {"time": 3764, "pitch": 74, "duration": 3, "velocity": 117}, {"time": 3770, "pitch": 72, "duration": 6, "velocity": 99}, {"time": 3776, "pitch": 74, "duration": 9, "velocity": 100}, {"time": 3794, "pitch": 72, "duration": 3, "velocity": 99}, {"time": 3800, "pitch": 67, "duration": 5, "velocity": 107}, {"time": 3806, "pitch": 70, "duration": 36, "velocity": 107}, {"time": 3842, "pitch": 72, "duration": 6, "velocity": 99}, {"time": 3848, "pitch": 74, "duration": 8, "velocity": 117}, {"time": 3866, "pitch": 74, "duration": 7, "velocity": 117}, {"time": 3878, "pitch": 70, "duration": 39, "velocity": 95}], "annotations": [{"time": 494, "annotation": {"number": 64, "value": 97}, "group": "control_change"}, {"time": 1646, "annotation": {"number": 64, "value": 96}, "group": "control_change"}, {"time": 1754, "annotation": {"number": 64, "value": 95}, "group": "control_change"}, {"time": 1898, "annotation": {"number": 64, "value": 94}, "group": "control_change"}]}, {"program": 0, "is_drum": false, "name": "PIANO", "notes": [{"time": 38, "pitch": 45, "duration": 130, "velocity": 73}, {"time": 38, "pitch": 52, "duration": 129, "velocity": 61}, {"time": 38, "pitch": 57, "duration": 130, "velocity": 59}, {"time": 38, "pitch": 61, "duration": 130, "velocity": 53}, {"time": 170, "pitch": 45, "duration": 93, "velocity": 82}, {"time": 170, "pitch": 52, "duration": 93, "velocity": 69}, {"time": 170, "pitch": 57, "duration": 93, "velocity": 71}, {"time": 170, "pitch": 61, "duration": 93, "velocity": 64}, {"time": 266, "pitch": 45, "duration": 94, "velocity": 69}, {"time": 266, "pitch": 52, "duration": 94, "velocity": 81}, {"time": 266, "pitch": 57, "duration": 94, "velocity": 85}, {"time": 266, "pitch": 61, "duration": 94, "velocity": 83}, {"time": 362, "pitch": 45, "duration": 45, "velocity": 63}, {"time": 362, "pitch": 52, "duration": 45, "velocity": 76}, {"time": 362, "pitch": 57, "duration": 45, "velocity": 79}, {"time": 362, "pitch": 61, "duration": 45, "velocity": 75}, {"time": 410, "pitch": 45, "duration": 49, "velocity": 71}, {"time": 410, "pitch": 52, "duration": 49, "velocity": 82}, {"time": 410, "pitch": 57, "duration": 49, "velocity": 76}, {"time": 410, "pitch": 61, "duration": 49, "velocity": 73}, {"time": 458, "pitch": 45, "duration": 1, "velocity": 86}, {"time": 470, "pitch": 52, "duration": 16, "velocity": 66}, {"time": 482, "pitch": 61, "duration": 11, "velocity": 127}, {"time": 482, "pitch": 64, "duration": 11, "velocity": 100}, {"time": 506, "pitch": 40, "duration": 25, "velocity": 72}, {"time": 506, "pitch": 52, "duration": 15, "velocity": 81}, {"time": 506, "pitch": 56, "duration": 16, "velocity": 89}, {"time": 506, "pitch": 59, "duration": 18, "velocity": 82}, {"time": 530, "pitch": 56, "duration": 12, "velocity": 102}, {"time": 530, "pitch": 59, "duration": 12, "velocity": 85}, {"time": 542, "pitch": 52, "duration": 13, "velocity": 62}, {"time": 554, "pitch": 38, "duration": 44, "velocity": 66}, {"time": 554, "pitch": 54, "duration": 4, "velocity": 92}, {"time": 554, "pitch": 57, "duration": 6, "velocity": 77}, {"time": 566, "pitch": 45, "duration": 33, "velocity": 37}, {"time": 578, "pitch": 50, "duration": 19, "velocity": 42}, {"time": 578, "pitch": 62, "duration": 21, "velocity": 97}, {"time": 578, "pitch": 66, "duration": 21, "velocity": 99}, {"time": 602, "pitch": 38, "duration": 26, "velocity": 58}, {"time": 602, "pitch": 45, "duration": 26, "velocity": 48}, {"time": 602, "pitch": 50, "duration": 24, "velocity": 50}, {"time": 602, "pitch": 57, "duration": 27, "velocity": 77}, {"time": 602, "pitch": 62, "duration": 27, "velocity": 90}, {"time": 602, "pitch": 66, "duration": 27, "velocity": 93}, {"time": 650, "pitch": 45, "duration": 44, "velocity": 76}, {"time": 656, "pitch": 52, "duration": 42, "velocity": 73}, {"time": 662, "pitch": 57, "duration": 14, "velocity": 66}, {"time": 668, "pitch": 59, "duration": 5, "velocity": 72}, {"time": 674, "pitch": 64, "duration": 33, "velocity": 88}, {"time": 692, "pitch": 59, "duration": 15, "velocity": 45}, {"time": 698, "pitch": 45, "duration": 33, "velocity": 75}, {"time": 704, "pitch": 52, "duration": 22, "velocity": 57}, {"time": 710, "pitch": 57, "duration": 13, "velocity": 64}, {"time": 716, "pitch": 59, "duration": 20, "velocity": 74}, {"time": 716, "pitch": 64, "duration": 19, "velocity": 1}, {"time": 722, "pitch": 61, "duration": 13, "velocity": 95}, {"time": 746, "pitch": 38, "duration": 19, "velocity": 79}, {"time": 752, "pitch": 45, "duration": 20, "velocity": 41}, {"time": 758, "pitch": 50, "duration": 13, "velocity": 79}, {"time": 764, "pitch": 57, "duration": 30, "velocity": 82}, {"time": 770, "pitch": 38, "duration": 2, "velocity": 36}, {"time": 794, "pitch": 40, "duration": 29, "velocity": 74}, {"time": 800, "pitch": 47, "duration": 22, "velocity": 55}, {"time": 806, "pitch": 52, "duration": 8, "velocity": 55}, {"time": 812, "pitch": 59, "duration": 28, "velocity": 92}, {"time": 824, "pitch": 56, "duration": 16, "velocity": 85}, {"time": 836, "pitch": 52, "duration": 5, "velocity": 73}, {"time": 842, "pitch": 45, "duration": 45, "velocity": 59}, {"time": 848, "pitch": 52, "duration": 43, "velocity": 40}, {"time": 854, "pitch": 57, "duration": 15, "velocity": 88}, {"time": 860, "pitch": 59, "duration": 8, "velocity": 82}, {"time": 866, "pitch": 61, "duration": 26, "velocity": 100}, {"time": 884, "pitch": 57, "duration": 32, "velocity": 39}, {"time": 890, "pitch": 45, "duration": 45, "velocity": 72}, {"time": 896, "pitch": 52, "duration": 34, "velocity": 70}, {"time": 902, "pitch": 59, "duration": 12, "velocity": 86}, {"time": 908, "pitch": 61, "duration": 9, "velocity": 92}, {"time": 914, "pitch": 64, "duration": 23, "velocity": 88}, {"time": 926, "pitch": 61, "duration": 11, "velocity": 73}, {"time": 938, "pitch": 50, "duration": 31, "velocity": 67}, {"time": 944, "pitch": 57, "duration": 19, "velocity": 56}, {"time": 950, "pitch": 66, "duration": 34, "velocity": 102}, {"time": 956, "pitch": 62, "duration": 28, "velocity": 63}, {"time": 986, "pitch": 40, "duration": 36, "velocity": 72}, {"time": 992, "pitch": 47, "duration": 21, "velocity": 50}, {"time": 998, "pitch": 52, "duration": 10, "velocity": 79}, {"time": 1004, "pitch": 56, "duration": 7, "velocity": 102}, {"time": 1010, "pitch": 59, "duration": 10, "velocity": 95}, {"time": 1016, "pitch": 47, "duration": 8, "velocity": 53}, {"time": 1022, "pitch": 59, "duration": 12, "velocity": 90}, {"time": 1034, "pitch": 45, "duration": 43, "velocity": 95}, {"time": 1040, "pitch": 52, "duration": 41, "velocity": 60}, {"time": 1046, "pitch": 57, "duration": 14, "velocity": 59}, {"time": 1058, "pitch": 61, "duration": 43, "velocity": 107}, {"time": 1058, "pitch": 64, "duration": 43, "velocity": 89}, {"time": 1082, "pitch": 45, "duration": 27, "velocity": 74}, {"time": 1094, "pitch": 52, "duration": 15, "velocity": 32}, {"time": 1106, "pitch": 61, "duration": 10, "velocity": 117}, {"time": 1106, "pitch": 64, "duration": 11, "velocity": 95}, {"time": 1130, "pitch": 47, "duration": 27, "velocity": 72}, {"time": 1130, "pitch": 59, "duration": 19, "velocity": 90}, {"time": 1130, "pitch": 62, "duration": 15, "velocity": 107}, {"time": 1130, "pitch": 66, "duration": 15, "velocity": 112}, {"time": 1142, "pitch": 54, "duration": 14, "velocity": 44}, {"time": 1154, "pitch": 62, "duration": 12, "velocity": 90}, {"time": 1154, "pitch": 66, "duration": 11, "velocity": 107}, {"time": 1166, "pitch": 59, "duration": 2, "velocity": 56}, {"time": 1178, "pitch": 49, "duration": 29, "velocity": 89}, {"time": 1190, "pitch": 61, "duration": 12, "velocity": 67}, {"time": 1202, "pitch": 64, "duration": 6, "velocity": 85}, {"time": 1202, "pitch": 68, "duration": 8, "velocity": 99}, {"time": 1226, "pitch": 50, "duration": 27, "velocity": 66}, {"time": 1226, "pitch": 57, "duration": 20, "velocity": 92}, {"time": 1226, "pitch": 62, "duration": 18, "velocity": 93}, {"time": 1226, "pitch": 66, "duration": 18, "velocity": 99}, {"time": 1250, "pitch": 62, "duration": 12, "velocity": 99}, {"time": 1250, "pitch": 66, "duration": 13, "velocity": 102}, {"time": 1262, "pitch": 59, "duration": 17, "velocity": 72}, {"time": 1274, "pitch": 45, "duration": 34, "velocity": 69}, {"time": 1280, "pitch": 52, "duration": 21, "velocity": 69}, {"time": 1286, "pitch": 57, "duration": 8, "velocity": 83}, {"time": 1292, "pitch": 61, "duration": 19, "velocity": 117}, {"time": 1292, "pitch": 64, "duration": 19, "velocity": 96}, {"time": 1304, "pitch": 52, "duration": 6, "velocity": 56}, {"time": 1310, "pitch": 57, "duration": 3, "velocity": 77}, {"time": 1322, "pitch": 47, "duration": 34, "velocity": 71}, {"time": 1322, "pitch": 59, "duration": 9, "velocity": 79}, {"time": 1322, "pitch": 62, "duration": 14, "velocity": 82}, {"time": 1322, "pitch": 66, "duration": 15, "velocity": 86}, {"time": 1328, "pitch": 54, "duration": 23, "velocity": 64}, {"time": 1334, "pitch": 59, "duration": 14, "velocity": 46}, {"time": 1346, "pitch": 62, "duration": 11, "velocity": 81}, {"time": 1346, "pitch": 66, "duration": 12, "velocity": 88}, {"time": 1352, "pitch": 54, "duration": 5, "velocity": 50}, {"time": 1370, "pitch": 49, "duration": 27, "velocity": 53}, {"time": 1370, "pitch": 61, "duration": 20, "velocity": 95}, {"time": 1370, "pitch": 64, "duration": 20, "velocity": 74}, {"time": 1370, "pitch": 68, "duration": 19, "velocity": 88}, {"time": 1394, "pitch": 64, "duration": 11, "velocity": 86}, {"time": 1394, "pitch": 68, "duration": 11, "velocity": 100}, {"time": 1400, "pitch": 49, "duration": 4, "velocity": 54}, {"time": 1406, "pitch": 61, "duration": 2, "velocity": 76}, {"time": 1418, "pitch": 50, "duration": 29, "velocity": 72}, {"time": 1418, "pitch": 57, "duration": 20, "velocity": 88}, {"time": 1418, "pitch": 62, "duration": 20, "velocity": 96}, {"time": 1418, "pitch": 66, "duration": 20, "velocity": 93}, {"time": 1442, "pitch": 57, "duration": 8, "velocity": 74}, {"time": 1442, "pitch": 62, "duration": 17, "velocity": 99}, {"time": 1442, "pitch": 66, "duration": 10, "velocity": 100}, {"time": 1460, "pitch": 68, "duration": 1, "velocity": 29}, {"time": 1466, "pitch": 40, "duration": 45, "velocity": 74}, {"time": 1466, "pitch": 59, "duration": 6, "velocity": 85}, {"time": 1466, "pitch": 64, "duration": 4, "velocity": 99}, {"time": 1466, "pitch": 68, "duration": 4, "velocity": 102}, {"time": 1472, "pitch": 47, "duration": 21, "velocity": 53}, {"time": 1478, "pitch": 52, "duration": 12, "velocity": 99}, {"time": 1490, "pitch": 56, "duration": 8, "velocity": 127}, {"time": 1490, "pitch": 59, "duration": 8, "velocity": 100}, {"time": 1496, "pitch": 47, "duration": 16, "velocity": 96}, {"time": 1502, "pitch": 56, "duration": 8, "velocity": 112}, {"time": 1502, "pitch": 59, "duration": 8, "velocity": 95}, {"time": 1514, "pitch": 40, "duration": 25, "velocity": 89}, {"time": 1514, "pitch": 47, "duration": 25, "velocity": 72}, {"time": 1514, "pitch": 52, "duration": 25, "velocity": 102}, {"time": 1514, "pitch": 56, "duration": 25, "velocity": 122}, {"time": 1514, "pitch": 59, "duration": 25, "velocity": 99}, {"time": 1562, "pitch": 33, "duration": 15, "velocity": 93}, {"time": 1562, "pitch": 45, "duration": 37, "velocity": 96}, {"time": 1562, "pitch": 57, "duration": 18, "velocity": 112}, {"time": 1562, "pitch": 61, "duration": 14, "velocity": 127}, {"time": 1562, "pitch": 64, "duration": 14, "velocity": 99}, {"time": 1574, "pitch": 52, "duration": 14, "velocity": 59}, {"time": 1580, "pitch": 33, "duration": 20, "velocity": 98}, {"time": 1586, "pitch": 57, "duration": 5, "velocity": 102}, {"time": 1586, "pitch": 61, "duration": 13, "velocity": 127}, {"time": 1586, "pitch": 64, "duration": 14, "velocity": 100}, {"time": 1592, "pitch": 52, "duration": 7, "velocity": 74}, {"time": 1598, "pitch": 57, "duration": 4, "velocity": 97}, {"time": 1604, "pitch": 33, "duration": 5, "velocity": 111}, {"time": 1610, "pitch": 32, "duration": 7, "velocity": 112}, {"time": 1610, "pitch": 44, "duration": 1, "velocity": 75}, {"time": 1610, "pitch": 56, "duration": 22, "velocity": 100}, {"time": 1610, "pitch": 61, "duration": 22, "velocity": 102}, {"time": 1610, "pitch": 64, "duration": 18, "velocity": 92}, {"time": 1616, "pitch": 32, "duration": 1, "velocity": 86}, {"time": 1616, "pitch": 44, "duration": 24, "velocity": 37}, {"time": 1628, "pitch": 32, "duration": 22, "velocity": 114}, {"time": 1634, "pitch": 56, "duration": 6, "velocity": 107}, {"time": 1634, "pitch": 61, "duration": 12, "velocity": 122}, {"time": 1634, "pitch": 64, "duration": 16, "velocity": 99}, {"time": 1640, "pitch": 44, "duration": 6, "velocity": 81}, {"time": 1646, "pitch": 56, "duration": 5, "velocity": 90}, {"time": 1652, "pitch": 32, "duration": 4, "velocity": 93}, {"time": 1658, "pitch": 30, "duration": 7, "velocity": 104}, {"time": 1658, "pitch": 42, "duration": 35, "velocity": 96}, {"time": 1658, "pitch": 57, "duration": 15, "velocity": 95}, {"time": 1658, "pitch": 61, "duration": 17, "velocity": 122}, {"time": 1658, "pitch": 66, "duration": 19, "velocity": 99}, {"time": 1667, "pitch": 30, "duration": 2, "velocity": 81}, {"time": 1670, "pitch": 54, "duration": 13, "velocity": 69}, {"time": 1676, "pitch": 30, "duration": 20, "velocity": 108}, {"time": 1682, "pitch": 61, "duration": 14, "velocity": 127}, {"time": 1682, "pitch": 66, "duration": 14, "velocity": 122}, {"time": 1688, "pitch": 54, "duration": 3, "velocity": 96}, {"time": 1694, "pitch": 57, "duration": 7, "velocity": 73}, {"time": 1700, "pitch": 30, "duration": 5, "velocity": 81}, {"time": 1706, "pitch": 38, "duration": 15, "velocity": 117}, {"time": 1706, "pitch": 50, "duration": 17, "velocity": 92}, {"time": 1706, "pitch": 57, "duration": 17, "velocity": 96}, {"time": 1706, "pitch": 62, "duration": 13, "velocity": 122}, {"time": 1706, "pitch": 66, "duration": 14, "velocity": 117}, {"time": 1724, "pitch": 38, "duration": 5, "velocity": 120}, {"time": 1730, "pitch": 40, "duration": 16, "velocity": 114}, {"time": 1730, "pitch": 52, "duration": 13, "velocity": 99}, {"time": 1730, "pitch": 59, "duration": 15, "velocity": 107}, {"time": 1730, "pitch": 64, "duration": 13, "velocity": 112}, {"time": 1730, "pitch": 68, "duration": 13, "velocity": 127}, {"time": 1748, "pitch": 40, "duration": 4, "velocity": 111}, {"time": 1754, "pitch": 33, "duration": 14, "velocity": 100}, {"time": 1754, "pitch": 45, "duration": 36, "velocity": 78}, {"time": 1754, "pitch": 57, "duration": 15, "velocity": 102}, {"time": 1754, "pitch": 61, "duration": 10, "velocity": 127}, {"time": 1754, "pitch": 64, "duration": 15, "velocity": 97}, {"time": 1766, "pitch": 52, "duration": 12, "velocity": 52}, {"time": 1772, "pitch": 33, "duration": 21, "velocity": 95}, {"time": 1772, "pitch": 57, "duration": 8, "velocity": 82}, {"time": 1778, "pitch": 61, "duration": 12, "velocity": 117}, {"time": 1778, "pitch": 64, "duration": 14, "velocity": 99}, {"time": 1784, "pitch": 52, "duration": 5, "velocity": 74}, {"time": 1790, "pitch": 57, "duration": 6, "velocity": 96}, {"time": 1796, "pitch": 33, "duration": 4, "velocity": 104}, {"time": 1802, "pitch": 32, "duration": 14, "velocity": 114}, {"time": 1802, "pitch": 44, "duration": 27, "velocity": 89}, {"time": 1802, "pitch": 56, "duration": 17, "velocity": 112}, {"time": 1802, "pitch": 61, "duration": 21, "velocity": 100}, {"time": 1802, "pitch": 64, "duration": 15, "velocity": 90}, {"time": 1820, "pitch": 32, "duration": 20, "velocity": 114}, {"time": 1826, "pitch": 56, "duration": 8, "velocity": 99}, {"time": 1826, "pitch": 61, "duration": 9, "velocity": 127}, {"time": 1826, "pitch": 64, "duration": 15, "velocity": 97}, {"time": 1832, "pitch": 44, "duration": 4, "velocity": 89}, {"time": 1838, "pitch": 61, "duration": 9, "velocity": 127}, {"time": 1844, "pitch": 32, "duration": 4, "velocity": 114}, {"time": 1850, "pitch": 30, "duration": 15, "velocity": 114}, {"time": 1850, "pitch": 42, "duration": 34, "velocity": 89}, {"time": 1850, "pitch": 57, "duration": 14, "velocity": 89}, {"time": 1850, "pitch": 61, "duration": 20, "velocity": 96}, {"time": 1850, "pitch": 66, "duration": 20, "velocity": 93}, {"time": 1862, "pitch": 54, "duration": 13, "velocity": 59}, {"time": 1868, "pitch": 30, "duration": 20, "velocity": 114}, {"time": 1868, "pitch": 57, "duration": 8, "velocity": 61}, {"time": 1874, "pitch": 61, "duration": 13, "velocity": 107}, {"time": 1874, "pitch": 66, "duration": 18, "velocity": 107}, {"time": 1880, "pitch": 54, "duration": 3, "velocity": 78}, {"time": 1886, "pitch": 57, "duration": 9, "velocity": 92}, {"time": 1892, "pitch": 30, "duration": 4, "velocity": 108}, {"time": 1892, "pitch": 61, "duration": 4, "velocity": 100}, {"time": 1898, "pitch": 38, "duration": 14, "velocity": 120}, {"time": 1898, "pitch": 57, "duration": 14, "velocity": 89}, {"time": 1898, "pitch": 62, "duration": 20, "velocity": 107}, {"time": 1898, "pitch": 66, "duration": 20, "velocity": 107}, {"time": 1904, "pitch": 45, "duration": 129, "velocity": 37}, {"time": 1910, "pitch": 50, "duration": 14, "velocity": 74}, {"time": 1916, "pitch": 38, "duration": 22, "velocity": 121}, {"time": 1916, "pitch": 57, "duration": 8, "velocity": 42}, {"time": 1922, "pitch": 62, "duration": 14, "velocity": 99}, {"time": 1922, "pitch": 66, "duration": 19, "velocity": 102}, {"time": 1928, "pitch": 50, "duration": 5, "velocity": 70}, {"time": 1934, "pitch": 57, "duration": 9, "velocity": 60}, {"time": 1940, "pitch": 38, "duration": 3, "velocity": 93}, {"time": 1946, "pitch": 38, "duration": 88, "velocity": 42}, {"time": 1946, "pitch": 50, "duration": 87, "velocity": 61}, {"time": 1946, "pitch": 57, "duration": 88, "velocity": 72}, {"time": 1946, "pitch": 62, "duration": 87, "velocity": 85}, {"time": 1946, "pitch": 66, "duration": 87, "velocity": 83}, {"time": 2042, "pitch": 28, "duration": 14, "velocity": 108}, {"time": 2042, "pitch": 52, "duration": 26, "velocity": 112}, {"time": 2042, "pitch": 59, "duration": 21, "velocity": 100}, {"time": 2042, "pitch": 64, "duration": 21, "velocity": 117}, {"time": 2042, "pitch": 68, "duration": 21, "velocity": 112}, {"time": 2060, "pitch": 28, "duration": 20, "velocity": 111}, {"time": 2066, "pitch": 59, "duration": 7, "velocity": 96}, {"time": 2066, "pitch": 64, "duration": 12, "velocity": 117}, {"time": 2066, "pitch": 68, "duration": 12, "velocity": 127}, {"time": 2072, "pitch": 52, "duration": 3, "velocity": 62}, {"time": 2078, "pitch": 59, "duration": 6, "velocity": 82}, {"time": 2084, "pitch": 28, "duration": 4, "velocity": 93}, {"time": 2090, "pitch": 35, "duration": 16, "velocity": 114}, {"time": 2090, "pitch": 47, "duration": 13, "velocity": 95}, {"time": 2090, "pitch": 59, "duration": 11, "velocity": 102}, {"time": 2090, "pitch": 62, "duration": 10, "velocity": 117}, {"time": 2090, "pitch": 66, "duration": 10, "velocity": 112}, {"time": 2108, "pitch": 37, "duration": 25, "velocity": 120}, {"time": 2108, "pitch": 49, "duration": 24, "velocity": 107}, {"time": 2108, "pitch": 61, "duration": 20, "velocity": 100}, {"time": 2108, "pitch": 64, "duration": 22, "velocity": 100}, {"time": 2108, "pitch": 68, "duration": 21, "velocity": 107}, {"time": 2138, "pitch": 38, "duration": 15, "velocity": 121}, {"time": 2138, "pitch": 50, "duration": 12, "velocity": 86}, {"time": 2138, "pitch": 62, "duration": 11, "velocity": 100}, {"time": 2138, "pitch": 66, "duration": 10, "velocity": 127}, {"time": 2138, "pitch": 69, "duration": 10, "velocity": 99}, {"time": 2156, "pitch": 39, "duration": 24, "velocity": 120}, {"time": 2156, "pitch": 51, "duration": 28, "velocity": 112}, {"time": 2156, "pitch": 63, "duration": 28, "velocity": 100}, {"time": 2156, "pitch": 66, "duration": 28, "velocity": 112}, {"time": 2156, "pitch": 69, "duration": 28, "velocity": 79}, {"time": 2186, "pitch": 40, "duration": 15, "velocity": 121}, {"time": 2186, "pitch": 52, "duration": 16, "velocity": 90}, {"time": 2186, "pitch": 56, "duration": 17, "velocity": 100}, {"time": 2186, "pitch": 59, "duration": 17, "velocity": 90}, {"time": 2198, "pitch": 47, "duration": 14, "velocity": 26}, {"time": 2204, "pitch": 40, "duration": 7, "velocity": 112}, {"time": 2204, "pitch": 52, "duration": 9, "velocity": 55}, {"time": 2204, "pitch": 56, "duration": 9, "velocity": 64}, {"time": 2204, "pitch": 59, "duration": 10, "velocity": 72}, {"time": 2216, "pitch": 40, "duration": 5, "velocity": 75}, {"time": 2216, "pitch": 52, "duration": 7, "velocity": 95}, {"time": 2222, "pitch": 42, "duration": 5, "velocity": 99}, {"time": 2222, "pitch": 54, "duration": 6, "velocity": 117}, {"time": 2228, "pitch": 40, "duration": 4, "velocity": 77}, {"time": 2228, "pitch": 52, "duration": 4, "velocity": 96}, {"time": 2234, "pitch": 30, "duration": 3, "velocity": 112}, {"time": 2240, "pitch": 30, "duration": 10, "velocity": 117}, {"time": 2240, "pitch": 42, "duration": 10, "velocity": 117}, {"time": 2240, "pitch": 50, "duration": 11, "velocity": 90}, {"time": 2240, "pitch": 62, "duration": 10, "velocity": 99}, {"time": 2240, "pitch": 66, "duration": 10, "velocity": 127}, {"time": 2240, "pitch": 69, "duration": 10, "velocity": 97}, {"time": 2252, "pitch": 32, "duration": 29, "velocity": 120}, {"time": 2252, "pitch": 44, "duration": 31, "velocity": 122}, {"time": 2252, "pitch": 52, "duration": 24, "velocity": 95}, {"time": 2252, "pitch": 64, "duration": 27, "velocity": 99}, {"time": 2252, "pitch": 68, "duration": 26, "velocity": 127}, {"time": 2252, "pitch": 71, "duration": 27, "velocity": 100}, {"time": 2252, "pitch": 74, "duration": 27, "velocity": 117}, {"time": 2282, "pitch": 47, "duration": 27, "velocity": 72}, {"time": 2282, "pitch": 59, "duration": 19, "velocity": 90}, {"time": 2282, "pitch": 62, "duration": 15, "velocity": 107}, {"time": 2282, "pitch": 66, "duration": 15, "velocity": 112}, {"time": 2294, "pitch": 54, "duration": 14, "velocity": 44}, {"time": 2306, "pitch": 62, "duration": 12, "velocity": 90}, {"time": 2306, "pitch": 66, "duration": 11, "velocity": 107}, {"time": 2318, "pitch": 59, "duration": 2, "velocity": 56}, {"time": 2330, "pitch": 49, "duration": 29, "velocity": 89}, {"time": 2342, "pitch": 61, "duration": 12, "velocity": 67}, {"time": 2354, "pitch": 64, "duration": 6, "velocity": 85}, {"time": 2354, "pitch": 68, "duration": 8, "velocity": 99}, {"time": 2378, "pitch": 50, "duration": 27, "velocity": 66}, {"time": 2378, "pitch": 57, "duration": 20, "velocity": 92}, {"time": 2378, "pitch": 62, "duration": 18, "velocity": 93}, {"time": 2378, "pitch": 66, "duration": 18, "velocity": 99}, {"time": 2402, "pitch": 62, "duration": 12, "velocity": 99}, {"time": 2402, "pitch": 66, "duration": 13, "velocity": 102}, {"time": 2414, "pitch": 59, "duration": 17, "velocity": 72}, {"time": 2426, "pitch": 45, "duration": 34, "velocity": 69}, {"time": 2432, "pitch": 52, "duration": 21, "velocity": 69}, {"time": 2438, "pitch": 57, "duration": 8, "velocity": 83}, {"time": 2444, "pitch": 61, "duration": 19, "velocity": 117}, {"time": 2444, "pitch": 64, "duration": 19, "velocity": 96}, {"time": 2456, "pitch": 52, "duration": 6, "velocity": 56}, {"time": 2462, "pitch": 57, "duration": 3, "velocity": 77}, {"time": 2474, "pitch": 47, "duration": 34, "velocity": 71}, {"time": 2474, "pitch": 59, "duration": 9, "velocity": 79}, {"time": 2474, "pitch": 62, "duration": 14, "velocity": 82}, {"time": 2474, "pitch": 66, "duration": 15, "velocity": 86}, {"time": 2480, "pitch": 54, "duration": 23, "velocity": 64}, {"time": 2486, "pitch": 59, "duration": 14, "velocity": 46}, {"time": 2498, "pitch": 62, "duration": 11, "velocity": 81}, {"time": 2498, "pitch": 66, "duration": 12, "velocity": 88}, {"time": 2504, "pitch": 54, "duration": 5, "velocity": 50}, {"time": 2522, "pitch": 49, "duration": 27, "velocity": 53}, {"time": 2522, "pitch": 61, "duration": 20, "velocity": 95}, {"time": 2522, "pitch": 64, "duration": 20, "velocity": 74}, {"time": 2522, "pitch": 68, "duration": 19, "velocity": 88}, {"time": 2546, "pitch": 64, "duration": 11, "velocity": 86}, {"time": 2546, "pitch": 68, "duration": 11, "velocity": 100}, {"time": 2552, "pitch": 49, "duration": 4, "velocity": 54}, {"time": 2558, "pitch": 61, "duration": 2, "velocity": 76}, {"time": 2570, "pitch": 50, "duration": 29, "velocity": 72}, {"time": 2570, "pitch": 57, "duration": 20, "velocity": 88}, {"time": 2570, "pitch": 62, "duration": 20, "velocity": 96}, {"time": 2570, "pitch": 66, "duration": 20, "velocity": 93}, {"time": 2594, "pitch": 57, "duration": 8, "velocity": 74}, {"time": 2594, "pitch": 62, "duration": 17, "velocity": 99}, {"time": 2594, "pitch": 66, "duration": 10, "velocity": 100}, {"time": 2612, "pitch": 68, "duration": 1, "velocity": 29}, {"time": 2618, "pitch": 40, "duration": 45, "velocity": 74}, {"time": 2618, "pitch": 59, "duration": 6, "velocity": 85}, {"time": 2618, "pitch": 64, "duration": 4, "velocity": 99}, {"time": 2618, "pitch": 68, "duration": 4, "velocity": 102}, {"time": 2624, "pitch": 47, "duration": 21, "velocity": 53}, {"time": 2630, "pitch": 52, "duration": 12, "velocity": 99}, {"time": 2642, "pitch": 56, "duration": 8, "velocity": 127}, {"time": 2642, "pitch": 59, "duration": 8, "velocity": 100}, {"time": 2648, "pitch": 47, "duration": 16, "velocity": 96}, {"time": 2654, "pitch": 56, "duration": 8, "velocity": 112}, {"time": 2654, "pitch": 59, "duration": 8, "velocity": 95}, {"time": 2666, "pitch": 40, "duration": 25, "velocity": 89}, {"time": 2666, "pitch": 47, "duration": 25, "velocity": 72}, {"time": 2666, "pitch": 52, "duration": 25, "velocity": 102}, {"time": 2666, "pitch": 56, "duration": 25, "velocity": 122}, {"time": 2666, "pitch": 59, "duration": 25, "velocity": 99}, {"time": 2714, "pitch": 33, "duration": 13, "velocity": 114}, {"time": 2714, "pitch": 45, "duration": 37, "velocity": 96}, {"time": 2714, "pitch": 57, "duration": 18, "velocity": 112}, {"time": 2714, "pitch": 61, "duration": 14, "velocity": 127}, {"time": 2714, "pitch": 64, "duration": 14, "velocity": 99}, {"time": 2726, "pitch": 52, "duration": 14, "velocity": 59}, {"time": 2732, "pitch": 33, "duration": 20, "velocity": 100}, {"time": 2738, "pitch": 57, "duration": 5, "velocity": 102}, {"time": 2738, "pitch": 61, "duration": 13, "velocity": 127}, {"time": 2738, "pitch": 64, "duration": 14, "velocity": 100}, {"time": 2744, "pitch": 52, "duration": 7, "velocity": 74}, {"time": 2750, "pitch": 57, "duration": 4, "velocity": 97}, {"time": 2756, "pitch": 33, "duration": 5, "velocity": 112}, {"time": 2762, "pitch": 32, "duration": 7, "velocity": 112}, {"time": 2762, "pitch": 44, "duration": 1, "velocity": 75}, {"time": 2762, "pitch": 56, "duration": 22, "velocity": 100}, {"time": 2762, "pitch": 61, "duration": 22, "velocity": 102}, {"time": 2762, "pitch": 64, "duration": 18, "velocity": 92}, {"time": 2768, "pitch": 44, "duration": 24, "velocity": 37}, {"time": 2771, "pitch": 32, "duration": 2, "velocity": 81}, {"time": 2780, "pitch": 32, "duration": 15, "velocity": 114}, {"time": 2786, "pitch": 56, "duration": 6, "velocity": 107}, {"time": 2786, "pitch": 61, "duration": 12, "velocity": 122}, {"time": 2786, "pitch": 64, "duration": 16, "velocity": 99}, {"time": 2792, "pitch": 44, "duration": 6, "velocity": 81}, {"time": 2798, "pitch": 32, "duration": 4, "velocity": 117}, {"time": 2798, "pitch": 56, "duration": 5, "velocity": 90}, {"time": 2804, "pitch": 33, "duration": 3, "velocity": 87}, {"time": 2807, "pitch": 32, "duration": 3, "velocity": 100}, {"time": 2810, "pitch": 30, "duration": 6, "velocity": 111}, {"time": 2810, "pitch": 42, "duration": 35, "velocity": 96}, {"time": 2810, "pitch": 57, "duration": 15, "velocity": 95}, {"time": 2810, "pitch": 61, "duration": 17, "velocity": 122}, {"time": 2810, "pitch": 66, "duration": 19, "velocity": 99}, {"time": 2819, "pitch": 30, "duration": 2, "velocity": 93}, {"time": 2822, "pitch": 54, "duration": 13, "velocity": 69}, {"time": 2828, "pitch": 30, "duration": 21, "velocity": 117}, {"time": 2834, "pitch": 61, "duration": 14, "velocity": 127}, {"time": 2834, "pitch": 66, "duration": 14, "velocity": 122}, {"time": 2840, "pitch": 54, "duration": 3, "velocity": 96}, {"time": 2846, "pitch": 57, "duration": 7, "velocity": 73}, {"time": 2852, "pitch": 30, "duration": 5, "velocity": 108}, {"time": 2858, "pitch": 38, "duration": 14, "velocity": 120}, {"time": 2858, "pitch": 50, "duration": 17, "velocity": 92}, {"time": 2858, "pitch": 57, "duration": 17, "velocity": 96}, {"time": 2858, "pitch": 62, "duration": 13, "velocity": 122}, {"time": 2858, "pitch": 66, "duration": 14, "velocity": 117}, {"time": 2876, "pitch": 38, "duration": 5, "velocity": 112}, {"time": 2882, "pitch": 40, "duration": 15, "velocity": 114}, {"time": 2882, "pitch": 52, "duration": 13, "velocity": 99}, {"time": 2882, "pitch": 59, "duration": 15, "velocity": 107}, {"time": 2882, "pitch": 64, "duration": 13, "velocity": 112}, {"time": 2882, "pitch": 68, "duration": 13, "velocity": 127}, {"time": 2900, "pitch": 40, "duration": 4, "velocity": 98}, {"time": 2906, "pitch": 33, "duration": 14, "velocity": 108}, {"time": 2906, "pitch": 45, "duration": 36, "velocity": 78}, {"time": 2906, "pitch": 57, "duration": 15, "velocity": 102}, {"time": 2906, "pitch": 61, "duration": 10, "velocity": 127}, {"time": 2906, "pitch": 64, "duration": 15, "velocity": 97}, {"time": 2918, "pitch": 52, "duration": 12, "velocity": 52}, {"time": 2924, "pitch": 33, "duration": 20, "velocity": 112}, {"time": 2924, "pitch": 57, "duration": 8, "velocity": 82}, {"time": 2930, "pitch": 61, "duration": 12, "velocity": 117}, {"time": 2930, "pitch": 64, "duration": 14, "velocity": 99}, {"time": 2936, "pitch": 52, "duration": 5, "velocity": 74}, {"time": 2942, "pitch": 57, "duration": 6, "velocity": 96}, {"time": 2948, "pitch": 33, "duration": 5, "velocity": 108}, {"time": 2954, "pitch": 32, "duration": 7, "velocity": 108}, {"time": 2954, "pitch": 44, "duration": 27, "velocity": 89}, {"time": 2954, "pitch": 56, "duration": 17, "velocity": 112}, {"time": 2954, "pitch": 61, "duration": 21, "velocity": 100}, {"time": 2954, "pitch": 64, "duration": 15, "velocity": 90}, {"time": 2963, "pitch": 32, "duration": 2, "velocity": 108}, {"time": 2972, "pitch": 32, "duration": 21, "velocity": 114}, {"time": 2978, "pitch": 56, "duration": 8, "velocity": 99}, {"time": 2978, "pitch": 61, "duration": 9, "velocity": 127}, {"time": 2978, "pitch": 64, "duration": 15, "velocity": 97}, {"time": 2984, "pitch": 44, "duration": 4, "velocity": 89}, {"time": 2990, "pitch": 61, "duration": 9, "velocity": 127}, {"time": 2996, "pitch": 32, "duration": 4, "velocity": 100}, {"time": 3002, "pitch": 30, "duration": 6, "velocity": 112}, {"time": 3002, "pitch": 42, "duration": 34, "velocity": 89}, {"time": 3002, "pitch": 57, "duration": 14, "velocity": 89}, {"time": 3002, "pitch": 61, "duration": 20, "velocity": 96}, {"time": 3002, "pitch": 66, "duration": 20, "velocity": 93}, {"time": 3011, "pitch": 30, "duration": 2, "velocity": 104}, {"time": 3014, "pitch": 54, "duration": 13, "velocity": 59}, {"time": 3020, "pitch": 30, "duration": 20, "velocity": 111}, {"time": 3020, "pitch": 57, "duration": 8, "velocity": 61}, {"time": 3026, "pitch": 61, "duration": 13, "velocity": 107}, {"time": 3026, "pitch": 66, "duration": 18, "velocity": 107}, {"time": 3032, "pitch": 54, "duration": 3, "velocity": 78}, {"time": 3038, "pitch": 57, "duration": 9, "velocity": 92}, {"time": 3044, "pitch": 30, "duration": 5, "velocity": 98}, {"time": 3044, "pitch": 61, "duration": 4, "velocity": 100}, {"time": 3050, "pitch": 26, "duration": 15, "velocity": 104}, {"time": 3050, "pitch": 38, "duration": 39, "velocity": 85}, {"time": 3050, "pitch": 57, "duration": 14, "velocity": 89}, {"time": 3050, "pitch": 62, "duration": 20, "velocity": 107}, {"time": 3050, "pitch": 66, "duration": 20, "velocity": 107}, {"time": 3056, "pitch": 45, "duration": 90, "velocity": 37}, {"time": 3062, "pitch": 50, "duration": 14, "velocity": 74}, {"time": 3068, "pitch": 26, "duration": 21, "velocity": 100}, {"time": 3068, "pitch": 57, "duration": 8, "velocity": 42}, {"time": 3074, "pitch": 62, "duration": 14, "velocity": 99}, {"time": 3074, "pitch": 66, "duration": 19, "velocity": 102}, {"time": 3080, "pitch": 50, "duration": 5, "velocity": 70}, {"time": 3086, "pitch": 57, "duration": 9, "velocity": 60}, {"time": 3092, "pitch": 26, "duration": 4, "velocity": 90}, {"time": 3098, "pitch": 26, "duration": 46, "velocity": 100}, {"time": 3098, "pitch": 38, "duration": 48, "velocity": 42}, {"time": 3098, "pitch": 50, "duration": 48, "velocity": 61}, {"time": 3098, "pitch": 57, "duration": 48, "velocity": 72}, {"time": 3098, "pitch": 62, "duration": 48, "velocity": 85}, {"time": 3098, "pitch": 66, "duration": 48, "velocity": 83}, {"time": 3146, "pitch": 30, "duration": 14, "velocity": 108}, {"time": 3146, "pitch": 42, "duration": 16, "velocity": 112}, {"time": 3146, "pitch": 57, "duration": 9, "velocity": 99}, {"time": 3146, "pitch": 61, "duration": 14, "velocity": 127}, {"time": 3146, "pitch": 66, "duration": 18, "velocity": 100}, {"time": 3152, "pitch": 54, "duration": 7, "velocity": 112}, {"time": 3158, "pitch": 57, "duration": 8, "velocity": 102}, {"time": 3164, "pitch": 30, "duration": 5, "velocity": 108}, {"time": 3164, "pitch": 61, "duration": 4, "velocity": 117}, {"time": 3170, "pitch": 28, "duration": 15, "velocity": 98}, {"time": 3170, "pitch": 40, "duration": 18, "velocity": 77}, {"time": 3170, "pitch": 59, "duration": 9, "velocity": 102}, {"time": 3170, "pitch": 64, "duration": 17, "velocity": 93}, {"time": 3170, "pitch": 68, "duration": 17, "velocity": 97}, {"time": 3182, "pitch": 47, "duration": 6, "velocity": 88}, {"time": 3188, "pitch": 28, "duration": 5, "velocity": 100}, {"time": 3188, "pitch": 59, "duration": 3, "velocity": 96}, {"time": 3194, "pitch": 26, "duration": 15, "velocity": 112}, {"time": 3194, "pitch": 38, "duration": 34, "velocity": 85}, {"time": 3194, "pitch": 57, "duration": 14, "velocity": 107}, {"time": 3194, "pitch": 62, "duration": 14, "velocity": 102}, {"time": 3194, "pitch": 66, "duration": 14, "velocity": 102}, {"time": 3200, "pitch": 45, "duration": 28, "velocity": 67}, {"time": 3206, "pitch": 50, "duration": 13, "velocity": 85}, {"time": 3212, "pitch": 26, "duration": 21, "velocity": 111}, {"time": 3212, "pitch": 62, "duration": 10, "velocity": 127}, {"time": 3212, "pitch": 66, "duration": 19, "velocity": 102}, {"time": 3224, "pitch": 50, "duration": 10, "velocity": 75}, {"time": 3224, "pitch": 62, "duration": 4, "velocity": 32}, {"time": 3230, "pitch": 57, "duration": 6, "velocity": 127}, {"time": 3236, "pitch": 26, "duration": 5, "velocity": 100}, {"time": 3242, "pitch": 31, "duration": 7, "velocity": 120}, {"time": 3242, "pitch": 43, "duration": 18, "velocity": 78}, {"time": 3242, "pitch": 55, "duration": 17, "velocity": 100}, {"time": 3242, "pitch": 59, "duration": 17, "velocity": 102}, {"time": 3242, "pitch": 62, "duration": 17, "velocity": 100}, {"time": 3251, "pitch": 31, "duration": 5, "velocity": 98}, {"time": 3260, "pitch": 31, "duration": 3, "velocity": 95}, {"time": 3266, "pitch": 41, "duration": 21, "velocity": 97}, {"time": 3266, "pitch": 53, "duration": 14, "velocity": 117}, {"time": 3266, "pitch": 57, "duration": 14, "velocity": 107}, {"time": 3266, "pitch": 60, "duration": 14, "velocity": 117}, {"time": 3266, "pitch": 29, "duration": 7, "velocity": 98}, {"time": 3275, "pitch": 29, "duration": 4, "velocity": 104}, {"time": 3278, "pitch": 57, "duration": 2, "velocity": 117}, {"time": 3278, "pitch": 60, "duration": 2, "velocity": 112}, {"time": 3284, "pitch": 29, "duration": 3, "velocity": 112}, {"time": 3284, "pitch": 53, "duration": 3, "velocity": 85}, {"time": 3290, "pitch": 28, "duration": 6, "velocity": 112}, {"time": 3290, "pitch": 40, "duration": 11, "velocity": 86}, {"time": 3290, "pitch": 52, "duration": 13, "velocity": 107}, {"time": 3290, "pitch": 55, "duration": 10, "velocity": 99}, {"time": 3290, "pitch": 59, "duration": 10, "velocity": 96}, {"time": 3299, "pitch": 28, "duration": 4, "velocity": 104}, {"time": 3308, "pitch": 27, "duration": 9, "velocity": 111}, {"time": 3308, "pitch": 39, "duration": 17, "velocity": 100}, {"time": 3308, "pitch": 51, "duration": 15, "velocity": 127}, {"time": 3308, "pitch": 58, "duration": 16, "velocity": 117}, {"time": 3320, "pitch": 27, "duration": 9, "velocity": 111}, {"time": 3332, "pitch": 27, "duration": 4, "velocity": 111}, {"time": 3338, "pitch": 29, "duration": 15, "velocity": 117}, {"time": 3338, "pitch": 41, "duration": 45, "velocity": 88}, {"time": 3338, "pitch": 53, "duration": 15, "velocity": 102}, {"time": 3338, "pitch": 57, "duration": 15, "velocity": 99}, {"time": 3338, "pitch": 60, "duration": 15, "velocity": 100}, {"time": 3350, "pitch": 48, "duration": 13, "velocity": 52}, {"time": 3356, "pitch": 29, "duration": 26, "velocity": 120}, {"time": 3356, "pitch": 53, "duration": 15, "velocity": 99}, {"time": 3356, "pitch": 57, "duration": 14, "velocity": 99}, {"time": 3356, "pitch": 60, "duration": 15, "velocity": 100}, {"time": 3368, "pitch": 48, "duration": 11, "velocity": 67}, {"time": 3374, "pitch": 57, "duration": 2, "velocity": 97}, {"time": 3374, "pitch": 60, "duration": 2, "velocity": 95}, {"time": 3386, "pitch": 29, "duration": 22, "velocity": 122}, {"time": 3386, "pitch": 41, "duration": 26, "velocity": 73}, {"time": 3386, "pitch": 48, "duration": 26, "velocity": 92}, {"time": 3386, "pitch": 53, "duration": 25, "velocity": 99}, {"time": 3386, "pitch": 60, "duration": 22, "velocity": 107}, {"time": 3386, "pitch": 65, "duration": 21, "velocity": 122}, {"time": 3386, "pitch": 69, "duration": 21, "velocity": 102}, {"time": 3410, "pitch": 29, "duration": 4, "velocity": 111}, {"time": 3410, "pitch": 60, "duration": 8, "velocity": 61}, {"time": 3410, "pitch": 65, "duration": 9, "velocity": 117}, {"time": 3410, "pitch": 69, "duration": 8, "velocity": 127}, {"time": 3416, "pitch": 29, "duration": 5, "velocity": 108}, {"time": 3416, "pitch": 41, "duration": 15, "velocity": 79}, {"time": 3416, "pitch": 48, "duration": 15, "velocity": 102}, {"time": 3416, "pitch": 53, "duration": 15, "velocity": 112}, {"time": 3422, "pitch": 31, "duration": 5, "velocity": 98}, {"time": 3422, "pitch": 65, "duration": 11, "velocity": 127}, {"time": 3422, "pitch": 69, "duration": 11, "velocity": 127}, {"time": 3428, "pitch": 33, "duration": 7, "velocity": 93}, {"time": 3428, "pitch": 60, "duration": 6, "velocity": 102}, {"time": 3434, "pitch": 34, "duration": 13, "velocity": 114}, {"time": 3434, "pitch": 46, "duration": 37, "velocity": 96}, {"time": 3434, "pitch": 58, "duration": 18, "velocity": 112}, {"time": 3434, "pitch": 62, "duration": 14, "velocity": 127}, {"time": 3434, "pitch": 65, "duration": 14, "velocity": 99}, {"time": 3446, "pitch": 53, "duration": 14, "velocity": 59}, {"time": 3452, "pitch": 34, "duration": 20, "velocity": 100}, {"time": 3458, "pitch": 58, "duration": 5, "velocity": 102}, {"time": 3458, "pitch": 62, "duration": 13, "velocity": 127}, {"time": 3458, "pitch": 65, "duration": 14, "velocity": 100}, {"time": 3464, "pitch": 53, "duration": 7, "velocity": 74}, {"time": 3470, "pitch": 58, "duration": 4, "velocity": 97}, {"time": 3476, "pitch": 34, "duration": 5, "velocity": 112}, {"time": 3482, "pitch": 33, "duration": 7, "velocity": 112}, {"time": 3482, "pitch": 45, "duration": 1, "velocity": 75}, {"time": 3482, "pitch": 57, "duration": 22, "velocity": 100}, {"time": 3482, "pitch": 62, "duration": 22, "velocity": 102}, {"time": 3482, "pitch": 65, "duration": 18, "velocity": 92}, {"time": 3488, "pitch": 45, "duration": 24, "velocity": 37}, {"time": 3491, "pitch": 33, "duration": 2, "velocity": 81}, {"time": 3500, "pitch": 33, "duration": 15, "velocity": 114}, {"time": 3506, "pitch": 57, "duration": 6, "velocity": 107}, {"time": 3506, "pitch": 62, "duration": 12, "velocity": 122}, {"time": 3506, "pitch": 65, "duration": 16, "velocity": 99}, {"time": 3512, "pitch": 45, "duration": 6, "velocity": 81}, {"time": 3518, "pitch": 33, "duration": 4, "velocity": 117}, {"time": 3518, "pitch": 57, "duration": 5, "velocity": 90}, {"time": 3524, "pitch": 34, "duration": 3, "velocity": 87}, {"time": 3527, "pitch": 33, "duration": 3, "velocity": 100}, {"time": 3530, "pitch": 31, "duration": 6, "velocity": 111}, {"time": 3530, "pitch": 43, "duration": 35, "velocity": 96}, {"time": 3530, "pitch": 58, "duration": 15, "velocity": 95}, {"time": 3530, "pitch": 62, "duration": 17, "velocity": 122}, {"time": 3530, "pitch": 67, "duration": 19, "velocity": 99}, {"time": 3539, "pitch": 31, "duration": 2, "velocity": 93}, {"time": 3542, "pitch": 55, "duration": 13, "velocity": 69}, {"time": 3548, "pitch": 31, "duration": 21, "velocity": 117}, {"time": 3554, "pitch": 62, "duration": 14, "velocity": 127}, {"time": 3554, "pitch": 67, "duration": 14, "velocity": 122}, {"time": 3560, "pitch": 55, "duration": 3, "velocity": 96}, {"time": 3566, "pitch": 58, "duration": 7, "velocity": 73}, {"time": 3572, "pitch": 31, "duration": 5, "velocity": 108}, {"time": 3578, "pitch": 39, "duration": 5, "velocity": 112}, {"time": 3578, "pitch": 51, "duration": 17, "velocity": 92}, {"time": 3578, "pitch": 58, "duration": 17, "velocity": 96}, {"time": 3578, "pitch": 63, "duration": 13, "velocity": 122}, {"time": 3578, "pitch": 67, "duration": 14, "velocity": 117}, {"time": 3584, "pitch": 39, "duration": 9, "velocity": 93}, {"time": 3596, "pitch": 39, "duration": 4, "velocity": 111}, {"time": 3602, "pitch": 41, "duration": 15, "velocity": 112}, {"time": 3602, "pitch": 53, "duration": 13, "velocity": 99}, {"time": 3602, "pitch": 60, "duration": 15, "velocity": 107}, {"time": 3602, "pitch": 65, "duration": 13, "velocity": 112}, {"time": 3602, "pitch": 69, "duration": 13, "velocity": 127}, {"time": 3620, "pitch": 41, "duration": 5, "velocity": 117}, {"time": 3626, "pitch": 34, "duration": 14, "velocity": 108}, {"time": 3626, "pitch": 46, "duration": 36, "velocity": 78}, {"time": 3626, "pitch": 58, "duration": 15, "velocity": 102}, {"time": 3626, "pitch": 62, "duration": 10, "velocity": 127}, {"time": 3626, "pitch": 65, "duration": 15, "velocity": 97}, {"time": 3638, "pitch": 53, "duration": 12, "velocity": 52}, {"time": 3644, "pitch": 34, "duration": 20, "velocity": 112}, {"time": 3644, "pitch": 58, "duration": 8, "velocity": 82}, {"time": 3650, "pitch": 62, "duration": 12, "velocity": 117}, {"time": 3650, "pitch": 65, "duration": 14, "velocity": 99}, {"time": 3656, "pitch": 53, "duration": 5, "velocity": 74}, {"time": 3662, "pitch": 58, "duration": 6, "velocity": 96}, {"time": 3668, "pitch": 34, "duration": 5, "velocity": 108}, {"time": 3674, "pitch": 33, "duration": 7, "velocity": 108}, {"time": 3674, "pitch": 45, "duration": 27, "velocity": 89}, {"time": 3674, "pitch": 57, "duration": 17, "velocity": 112}, {"time": 3674, "pitch": 62, "duration": 21, "velocity": 100}, {"time": 3674, "pitch": 65, "duration": 15, "velocity": 90}, {"time": 3683, "pitch": 33, "duration": 2, "velocity": 108}, {"time": 3692, "pitch": 33, "duration": 21, "velocity": 114}, {"time": 3698, "pitch": 57, "duration": 8, "velocity": 99}, {"time": 3698, "pitch": 62, "duration": 9, "velocity": 127}, {"time": 3698, "pitch": 65, "duration": 15, "velocity": 97}, {"time": 3704, "pitch": 45, "duration": 4, "velocity": 89}, {"time": 3710, "pitch": 62, "duration": 9, "velocity": 127}, {"time": 3716, "pitch": 33, "duration": 4, "velocity": 100}, {"time": 3722, "pitch": 31, "duration": 6, "velocity": 112}, {"time": 3722, "pitch": 43, "duration": 34, "velocity": 89}, {"time": 3722, "pitch": 58, "duration": 14, "velocity": 89}, {"time": 3722, "pitch": 62, "duration": 20, "velocity": 96}, {"time": 3722, "pitch": 67, "duration": 20, "velocity": 93}, {"time": 3731, "pitch": 31, "duration": 2, "velocity": 104}, {"time": 3734, "pitch": 55, "duration": 13, "velocity": 59}, {"time": 3740, "pitch": 31, "duration": 20, "velocity": 111}, {"time": 3740, "pitch": 58, "duration": 8, "velocity": 61}, {"time": 3746, "pitch": 62, "duration": 13, "velocity": 107}, {"time": 3746, "pitch": 67, "duration": 18, "velocity": 107}, {"time": 3752, "pitch": 55, "duration": 3, "velocity": 78}, {"time": 3758, "pitch": 58, "duration": 9, "velocity": 92}, {"time": 3764, "pitch": 31, "duration": 5, "velocity": 98}, {"time": 3764, "pitch": 62, "duration": 4, "velocity": 100}, {"time": 3770, "pitch": 27, "duration": 15, "velocity": 104}, {"time": 3770, "pitch": 39, "duration": 39, "velocity": 85}, {"time": 3770, "pitch": 58, "duration": 14, "velocity": 89}, {"time": 3770, "pitch": 63, "duration": 20, "velocity": 107}, {"time": 3770, "pitch": 67, "duration": 20, "velocity": 107}, {"time": 3776, "pitch": 46, "duration": 90, "velocity": 37}, {"time": 3782, "pitch": 51, "duration": 14, "velocity": 74}, {"time": 3788, "pitch": 27, "duration": 21, "velocity": 100}, {"time": 3788, "pitch": 58, "duration": 8, "velocity": 42}, {"time": 3794, "pitch": 63, "duration": 14, "velocity": 99}, {"time": 3794, "pitch": 67, "duration": 19, "velocity": 102}, {"time": 3800, "pitch": 51, "duration": 5, "velocity": 70}, {"time": 3806, "pitch": 58, "duration": 9, "velocity": 60}, {"time": 3812, "pitch": 27, "duration": 4, "velocity": 90}, {"time": 3818, "pitch": 27, "duration": 46, "velocity": 100}, {"time": 3818, "pitch": 39, "duration": 48, "velocity": 42}, {"time": 3818, "pitch": 51, "duration": 48, "velocity": 61}, {"time": 3818, "pitch": 58, "duration": 48, "velocity": 72}, {"time": 3818, "pitch": 63, "duration": 48, "velocity": 85}, {"time": 3818, "pitch": 67, "duration": 48, "velocity": 83}, {"time": 3866, "pitch": 34, "duration": 16, "velocity": 112}, {"time": 3866, "pitch": 46, "duration": 35, "velocity": 85}, {"time": 3866, "pitch": 65, "duration": 21, "velocity": 81}, {"time": 3866, "pitch": 70, "duration": 16, "velocity": 95}, {"time": 3866, "pitch": 74, "duration": 16, "velocity": 78}, {"time": 3878, "pitch": 58, "duration": 14, "velocity": 43}, {"time": 3884, "pitch": 34, "duration": 29, "velocity": 108}, {"time": 3884, "pitch": 70, "duration": 19, "velocity": 88}, {"time": 3884, "pitch": 74, "duration": 19, "velocity": 78}, {"time": 3896, "pitch": 58, "duration": 3, "velocity": 49}, {"time": 3902, "pitch": 65, "duration": 2, "velocity": 54}, {"time": 3914, "pitch": 44, "duration": 34, "velocity": 86}, {"time": 3914, "pitch": 68, "duration": 14, "velocity": 88}, {"time": 3914, "pitch": 72, "duration": 13, "velocity": 81}, {"time": 3914, "pitch": 75, "duration": 14, "velocity": 76}, {"time": 3926, "pitch": 56, "duration": 15, "velocity": 46}, {"time": 3932, "pitch": 68, "duration": 14, "velocity": 57}, {"time": 3932, "pitch": 72, "duration": 18, "velocity": 72}, {"time": 3932, "pitch": 75, "duration": 18, "velocity": 76}, {"time": 3962, "pitch": 39, "duration": 2, "velocity": 92}, {"time": 3962, "pitch": 67, "duration": 12, "velocity": 73}, {"time": 3962, "pitch": 70, "duration": 13, "velocity": 76}, {"time": 3974, "pitch": 63, "duration": 3, "velocity": 26}, {"time": 3980, "pitch": 51, "duration": 19, "velocity": 28}, {"time": 3980, "pitch": 58, "duration": 21, "velocity": 40}, {"time": 3980, "pitch": 63, "duration": 40, "velocity": 82}, {"time": 3980, "pitch": 67, "duration": 44, "velocity": 68}, {"time": 3980, "pitch": 70, "duration": 25, "velocity": 66}, {"time": 4010, "pitch": 51, "duration": 35, "velocity": 97}, {"time": 4016, "pitch": 55, "duration": 27, "velocity": 31}, {"time": 4022, "pitch": 58, "duration": 14, "velocity": 72}, {"time": 4028, "pitch": 63, "duration": 15, "velocity": 93}, {"time": 4028, "pitch": 67, "duration": 14, "velocity": 97}, {"time": 4028, "pitch": 70, "duration": 15, "velocity": 97}, {"time": 4040, "pitch": 58, "duration": 4, "velocity": 41}, {"time": 4046, "pitch": 63, "duration": 2, "velocity": 39}, {"time": 4046, "pitch": 67, "duration": 1, "velocity": 48}, {"time": 4046, "pitch": 70, "duration": 2, "velocity": 42}, {"time": 4058, "pitch": 46, "duration": 36, "velocity": 89}, {"time": 4058, "pitch": 65, "duration": 15, "velocity": 85}, {"time": 4058, "pitch": 70, "duration": 15, "velocity": 96}, {"time": 4058, "pitch": 74, "duration": 14, "velocity": 82}, {"time": 4070, "pitch": 58, "duration": 14, "velocity": 73}, {"time": 4076, "pitch": 70, "duration": 19, "velocity": 107}, {"time": 4076, "pitch": 74, "duration": 20, "velocity": 93}, {"time": 4088, "pitch": 58, "duration": 4, "velocity": 47}, {"time": 4094, "pitch": 65, "duration": 2, "velocity": 69}, {"time": 4106, "pitch": 44, "duration": 32, "velocity": 86}, {"time": 4106, "pitch": 68, "duration": 13, "velocity": 95}, {"time": 4106, "pitch": 72, "duration": 13, "velocity": 99}, {"time": 4106, "pitch": 75, "duration": 13, "velocity": 96}, {"time": 4118, "pitch": 56, "duration": 15, "velocity": 75}, {"time": 4124, "pitch": 68, "duration": 8, "velocity": 93}, {"time": 4124, "pitch": 72, "duration": 17, "velocity": 112}, {"time": 4124, "pitch": 75, "duration": 19, "velocity": 96}, {"time": 4142, "pitch": 68, "duration": 1, "velocity": 61}, {"time": 4154, "pitch": 39, "duration": 83, "velocity": 96}, {"time": 4166, "pitch": 51, "duration": 71, "velocity": 46}, {"time": 4172, "pitch": 55, "duration": 66, "velocity": 82}, {"time": 4172, "pitch": 58, "duration": 66, "velocity": 99}, {"time": 4172, "pitch": 63, "duration": 67, "velocity": 90}], "annotations": [{"time": 459, "annotation": {"number": 64, "value": 127}, "group": "control_change"}, {"time": 550, "annotation": {"number": 64, "value": 0}, "group": "control_change"}, {"time": 552, "annotation": {"number": 64, "value": 127}, "group": "control_change"}, {"time": 599, "annotation": {"number": 64, "value": 0}, "group": "control_change"}, {"time": 602, "annotation": {"number": 64, "value": 127}, "group": "control_change"}, {"time": 645, "annotation": {"number": 64, "value": 0}, "group": "control_change"}, {"time": 649, "annotation": {"number": 64, "value": 127}, "group": "control_change"}, {"time": 694, "annotation": {"number": 64, "value": 0}, "group": "control_change"}, {"time": 696, "annotation": {"number": 64, "value": 127}, "group": "control_change"}, {"time": 742, "annotation": {"number": 64, "value": 0}, "group": "control_change"}, {"time": 744, "annotation": {"number": 64, "value": 127}, "group": "control_change"}, {"time": 789, "annotation": {"number": 64, "value": 0}, "group": "control_change"}, {"time": 793, "annotation": {"number": 64, "value": 127}, "group": "control_change"}, {"time": 838, "annotation": {"number": 64, "value": 0}, "group": "control_change"}, {"time": 839, "annotation": {"number": 64, "value": 127}, "group": "control_change"}, {"time": 886, "annotation": {"number": 64, "value": 0}, "group": "control_change"}, {"time": 888, "annotation": {"number": 64, "value": 127}, "group": "control_change"}, {"time": 934, "annotation": {"number": 64, "value": 0}, "group": "control_change"}, {"time": 938, "annotation": {"number": 64, "value": 127}, "group": "control_change"}, {"time": 980, "annotation": {"number": 64, "value": 0}, "group": "control_change"}, {"time": 985, "annotation": {"number": 64, "value": 127}, "group": "control_change"}, {"time": 1029, "annotation": {"number": 64, "value": 0}, "group": "control_change"}, {"time": 1032, "annotation": {"number": 64, "value": 127}, "group": "control_change"}, {"time": 1035, "annotation": {"number": 64, "value": 127}, "group": "control_change"}, {"time": 1078, "annotation": {"number": 64, "value": 0}, "group": "control_change"}, {"time": 1081, "annotation": {"number": 64, "value": 127}, "group": "control_change"}, {"time": 1128, "annotation": {"number": 64, "value": 0}, "group": "control_change"}, {"time": 1130, "annotation": {"number": 64, "value": 127}, "group": "control_change"}, {"time": 1174, "annotation": {"number": 64, "value": 0}, "group": "control_change"}, {"time": 1177, "annotation": {"number": 64, "value": 127}, "group": "control_change"}, {"time": 1221, "annotation": {"number": 64, "value": 0}, "group": "control_change"}, {"time": 1225, "annotation": {"number": 64, "value": 127}, "group": "control_change"}, {"time": 1269, "annotation": {"number": 64, "value": 0}, "group": "control_change"}, {"time": 1274, "annotation": {"number": 64, "value": 127}, "group": "control_change"}, {"time": 1318, "annotation": {"number": 64, "value": 0}, "group": "control_change"}, {"time": 1321, "annotation": {"number": 64, "value": 127}, "group": "control_change"}, {"time": 1366, "annotation": {"number": 64, "value": 0}, "group": "control_change"}, {"time": 1368, "annotation": {"number": 64, "value": 127}, "group": "control_change"}, {"time": 1414, "annotation": {"number": 64, "value": 0}, "group": "control_change"}, {"time": 1417, "annotation": {"number": 64, "value": 127}, "group": "control_change"}, {"time": 1461, "annotation": {"number": 64, "value": 0}, "group": "control_change"}, {"time": 1464, "annotation": {"number": 64, "value": 127}, "group": "control_change"}, {"time": 1511, "annotation": {"number": 64, "value": 0}, "group": "control_change"}, {"time": 1536, "annotation": {"number": 64, "value": 127}, "group": "control_change"}, {"time": 1558, "annotation": {"number": 64, "value": 0}, "group": "control_change"}, {"time": 1562, "annotation": {"number": 64, "value": 127}, "group": "control_change"}, {"time": 1605, "annotation": {"number": 64, "value": 0}, "group": "control_change"}, {"time": 1608, "annotation": {"number": 64, "value": 127}, "group": "control_change"}, {"time": 1654, "annotation": {"number": 64, "value": 0}, "group": "control_change"}, {"time": 1657, "annotation": {"number": 64, "value": 127}, "group": "control_change"}, {"time": 1701, "annotation": {"number": 64, "value": 0}, "group": "control_change"}, {"time": 1704, "annotation": {"number": 64, "value": 127}, "group": "control_change"}, {"time": 1726, "annotation": {"number": 64, "value": 0}, "group": "control_change"}, {"time": 1729, "annotation": {"number": 64, "value": 127}, "group": "control_change"}, {"time": 1749, "annotation": {"number": 64, "value": 0}, "group": "control_change"}, {"time": 1753, "annotation": {"number": 64, "value": 127}, "group": "control_change"}, {"time": 1799, "annotation": {"number": 64, "value": 0}, "group": "control_change"}, {"time": 1802, "annotation": {"number": 64, "value": 127}, "group": "control_change"}, {"time": 1846, "annotation": {"number": 64, "value": 0}, "group": "control_change"}, {"time": 1849, "annotation": {"number": 64, "value": 127}, "group": "control_change"}, {"time": 1893, "annotation": {"number": 64, "value": 0}, "group": "control_change"}, {"time": 1897, "annotation": {"number": 64, "value": 127}, "group": "control_change"}, {"time": 1940, "annotation": {"number": 64, "value": 0}, "group": "control_change"}, {"time": 1945, "annotation": {"number": 64, "value": 127}, "group": "control_change"}, {"time": 1989, "annotation": {"number": 64, "value": 0}, "group": "control_change"}, {"time": 2042, "annotation": {"number": 64, "value": 127}, "group": "control_change"}, {"time": 2086, "annotation": {"number": 64, "value": 0}, "group": "control_change"}, {"time": 2089, "annotation": {"number": 64, "value": 127}, "group": "control_change"}, {"time": 2104, "annotation": {"number": 64, "value": 0}, "group": "control_change"}, {"time": 2113, "annotation": {"number": 64, "value": 127}, "group": "control_change"}, {"time": 2132, "annotation": {"number": 64, "value": 0}, "group": "control_change"}, {"time": 2137, "annotation": {"number": 64, "value": 127}, "group": "control_change"}, {"time": 2152, "annotation": {"number": 64, "value": 0}, "group": "control_change"}, {"time": 2171, "annotation": {"number": 64, "value": 127}, "group": "control_change"}, {"time": 2180, "annotation": {"number": 64, "value": 0}, "group": "control_change"}, {"time": 2185, "annotation": {"number": 64, "value": 127}, "group": "control_change"}, {"time": 2221, "annotation": {"number": 64, "value": 0}, "group": "control_change"}, {"time": 2326, "annotation": {"number": 64, "value": 0}, "group": "control_change"}, {"time": 2329, "annotation": {"number": 64, "value": 127}, "group": "control_change"}, {"time": 2373, "annotation": {"number": 64, "value": 0}, "group": "control_change"}, {"time": 2377, "annotation": {"number": 64, "value": 127}, "group": "control_change"}, {"time": 2421, "annotation": {"number": 64, "value": 0}, "group": "control_change"}, {"time": 2426, "annotation": {"number": 64, "value": 127}, "group": "control_change"}, {"time": 2470, "annotation": {"number": 64, "value": 0}, "group": "control_change"}, {"time": 2473, "annotation": {"number": 64, "value": 127}, "group": "control_change"}, {"time": 2518, "annotation": {"number": 64, "value": 0}, "group": "control_change"}, {"time": 2520, "annotation": {"number": 64, "value": 127}, "group": "control_change"}, {"time": 2566, "annotation": {"number": 64, "value": 0}, "group": "control_change"}, {"time": 2569, "annotation": {"number": 64, "value": 127}, "group": "control_change"}, {"time": 2613, "annotation": {"number": 64, "value": 0}, "group": "control_change"}, {"time": 2616, "annotation": {"number": 64, "value": 127}, "group": "control_change"}, {"time": 2663, "annotation": {"number": 64, "value": 0}, "group": "control_change"}, {"time": 2688, "annotation": {"number": 64, "value": 127}, "group": "control_change"}, {"time": 2710, "annotation": {"number": 64, "value": 0}, "group": "control_change"}, {"time": 2714, "annotation": {"number": 64, "value": 127}, "group": "control_change"}, {"time": 2757, "annotation": {"number": 64, "value": 0}, "group": "control_change"}, {"time": 2760, "annotation": {"number": 64, "value": 127}, "group": "control_change"}, {"time": 2806, "annotation": {"number": 64, "value": 0}, "group": "control_change"}, {"time": 2809, "annotation": {"number": 64, "value": 127}, "group": "control_change"}, {"time": 2853, "annotation": {"number": 64, "value": 0}, "group": "control_change"}, {"time": 2856, "annotation": {"number": 64, "value": 127}, "group": "control_change"}, {"time": 2878, "annotation": {"number": 64, "value": 0}, "group": "control_change"}, {"time": 2881, "annotation": {"number": 64, "value": 127}, "group": "control_change"}, {"time": 2901, "annotation": {"number": 64, "value": 0}, "group": "control_change"}, {"time": 2905, "annotation": {"number": 64, "value": 127}, "group": "control_change"}, {"time": 2951, "annotation": {"number": 64, "value": 0}, "group": "control_change"}, {"time": 2954, "annotation": {"number": 64, "value": 127}, "group": "control_change"}, {"time": 2998, "annotation": {"number": 64, "value": 0}, "group": "control_change"}, {"time": 3001, "annotation": {"number": 64, "value": 127}, "group": "control_change"}, {"time": 3045, "annotation": {"number": 64, "value": 0}, "group": "control_change"}, {"time": 3049, "annotation": {"number": 64, "value": 127}, "group": "control_change"}, {"time": 3092, "annotation": {"number": 64, "value": 0}, "group": "control_change"}, {"time": 3097, "annotation": {"number": 64, "value": 127}, "group": "control_change"}, {"time": 3141, "annotation": {"number": 64, "value": 0}, "group": "control_change"}, {"time": 3146, "annotation": {"number": 64, "value": 127}, "group": "control_change"}, {"time": 3168, "annotation": {"number": 64, "value": 0}, "group": "control_change"}, {"time": 3171, "annotation": {"number": 64, "value": 127}, "group": "control_change"}, {"time": 3191, "annotation": {"number": 64, "value": 0}, "group": "control_change"}, {"time": 3194, "annotation": {"number": 64, "value": 127}, "group": "control_change"}, {"time": 3238, "annotation": {"number": 64, "value": 0}, "group": "control_change"}, {"time": 3239, "annotation": {"number": 64, "value": 127}, "group": "control_change"}, {"time": 3251, "annotation": {"number": 64, "value": 0}, "group": "control_change"}, {"time": 3253, "annotation": {"number": 64, "value": 127}, "group": "control_change"}, {"time": 3257, "annotation": {"number": 64, "value": 0}, "group": "control_change"}, {"time": 3265, "annotation": {"number": 64, "value": 127}, "group": "control_change"}, {"time": 3285, "annotation": {"number": 64, "value": 0}, "group": "control_change"}, {"time": 3289, "annotation": {"number": 64, "value": 127}, "group": "control_change"}, {"time": 3311, "annotation": {"number": 64, "value": 0}, "group": "control_change"}, {"time": 3314, "annotation": {"number": 64, "value": 127}, "group": "control_change"}, {"time": 3335, "annotation": {"number": 64, "value": 0}, "group": "control_change"}, {"time": 3337, "annotation": {"number": 64, "value": 127}, "group": "control_change"}, {"time": 3385, "annotation": {"number": 64, "value": 0}, "group": "control_change"}, {"time": 3434, "annotation": {"number": 64, "value": 127}, "group": "control_change"}, {"time": 3477, "annotation": {"number": 64, "value": 0}, "group": "control_change"}, {"time": 3480, "annotation": {"number": 64, "value": 127}, "group": "control_change"}, {"time": 3526, "annotation": {"number": 64, "value": 0}, "group": "control_change"}, {"time": 3529, "annotation": {"number": 64, "value": 127}, "group": "control_change"}, {"time": 3573, "annotation": {"number": 64, "value": 0}, "group": "control_change"}, {"time": 3576, "annotation": {"number": 64, "value": 127}, "group": "control_change"}, {"time": 3598, "annotation": {"number": 64, "value": 0}, "group": "control_change"}, {"time": 3601, "annotation": {"number": 64, "value": 127}, "group": "control_change"}, {"time": 3621, "annotation": {"number": 64, "value": 0}, "group": "control_change"}, {"time": 3625, "annotation": {"number": 64, "value": 127}, "group": "control_change"}, {"time": 3671, "annotation": {"number": 64, "value": 0}, "group": "control_change"}, {"time": 3674, "annotation": {"number": 64, "value": 127}, "group": "control_change"}, {"time": 3718, "annotation": {"number": 64, "value": 0}, "group": "control_change"}, {"time": 3721, "annotation": {"number": 64, "value": 127}, "group": "control_change"}, {"time": 3765, "annotation": {"number": 64, "value": 0}, "group": "control_change"}, {"time": 3769, "annotation": {"number": 64, "value": 127}, "group": "control_change"}, {"time": 3812, "annotation": {"number": 64, "value": 0}, "group": "control_change"}, {"time": 3817, "annotation": {"number": 64, "value": 127}, "group": "control_change"}, {"time": 3861, "annotation": {"number": 64, "value": 0}, "group": "control_change"}, {"time": 3866, "annotation": {"number": 64, "value": 127}, "group": "control_change"}, {"time": 3867, "annotation": {"number": 64, "value": 127}, "group": "control_change"}, {"time": 3911, "annotation": {"number": 64, "value": 0}, "group": "control_change"}, {"time": 3914, "annotation": {"number": 64, "value": 127}, "group": "control_change"}, {"time": 4055, "annotation": {"number": 64, "value": 0}, "group": "control_change"}, {"time": 4058, "annotation": {"number": 64, "value": 127}, "group": "control_change"}, {"time": 4103, "annotation": {"number": 64, "value": 0}, "group": "control_change"}, {"time": 4107, "annotation": {"number": 64, "value": 127}, "group": "control_change"}, {"time": 4292, "annotation": {"number": 64, "value": 0}, "group": "control_change"}, {"time": 4293, "annotation": {"number": 64, "value": 127}, "group": "control_change"}]}]}