{"metadata": {"schema_version": "0.2", "title": "None", "source_filename": "109.mid", "source_format": "midi"}, "resolution": 12, "tempos": [{"time": 0, "qpm": 64.0}], "key_signatures": [{"time": 0, "root": 0, "mode": "major"}], "time_signatures": [{"time": 0, "numerator": 1, "denominator": 4}], "tracks": [{"program": 4, "is_drum": false, "name": "MELODY", "notes": [{"time": 487, "pitch": 73, "duration": 5, "velocity": 95}, {"time": 493, "pitch": 74, "duration": 3, "velocity": 99}, {"time": 496, "pitch": 76, "duration": 4, "velocity": 107}, {"time": 505, "pitch": 78, "duration": 9, "velocity": 104}, {"time": 517, "pitch": 73, "duration": 2, "velocity": 117}, {"time": 520, "pitch": 74, "duration": 2, "velocity": 90}, {"time": 523, "pitch": 76, "duration": 5, "velocity": 93}, {"time": 529, "pitch": 76, "duration": 1, "velocity": 100}, {"time": 532, "pitch": 76, "duration": 3, "velocity": 89}, {"time": 538, "pitch": 73, "duration": 3, "velocity": 102}, {"time": 544, "pitch": 71, "duration": 12, "velocity": 99}, {"time": 583, "pitch": 73, "duration": 2, "velocity": 127}, {"time": 586, "pitch": 74, "duration": 4, "velocity": 71}, {"time": 589, "pitch": 76, "duration": 1, "velocity": 96}, {"time": 592, "pitch": 76, "duration": 1, "velocity": 97}, {"time": 595, "pitch": 76, "duration": 5, "velocity": 97}, {"time": 601, "pitch": 81, "duration": 2, "velocity": 99}, {"time": 604, "pitch": 80, "duration": 6, "velocity": 107}, {"time": 613, "pitch": 76, "duration": 3, "velocity": 122}, {"time": 616, "pitch": 74, "duration": 5, "velocity": 102}, {"time": 625, "pitch": 74, "duration": 7, "velocity": 97}, {"time": 643, "pitch": 78, "duration": 1, "velocity": 127}, {"time": 646, "pitch": 78, "duration": 1, "velocity": 99}, {"time": 649, "pitch": 78, "duration": 1, "velocity": 102}, {"time": 652, "pitch": 78, "duration": 1, "velocity": 112}, {"time": 655, "pitch": 77, "duration": 4, "velocity": 112}, {"time": 661, "pitch": 77, "duration": 3, "velocity": 112}, {"time": 679, "pitch": 81, "duration": 3, "velocity": 127}, {"time": 682, "pitch": 80, "duration": 4, "velocity": 89}, {"time": 685, "pitch": 78, "duration": 1, "velocity": 97}, {"time": 688, "pitch": 78, "duration": 5, "velocity": 122}, {"time": 697, "pitch": 76, "duration": 5, "velocity": 112}, {"time": 712, "pitch": 76, "duration": 2, "velocity": 97}, {"time": 715, "pitch": 78, "duration": 4, "velocity": 97}, {"time": 721, "pitch": 76, "duration": 2, "velocity": 102}, {"time": 724, "pitch": 76, "duration": 5, "velocity": 95}, {"time": 733, "pitch": 69, "duration": 4, "velocity": 97}, {"time": 736, "pitch": 73, "duration": 8, "velocity": 117}, {"time": 745, "pitch": 76, "duration": 4, "velocity": 122}, {"time": 760, "pitch": 73, "duration": 2, "velocity": 107}, {"time": 763, "pitch": 74, "duration": 3, "velocity": 95}, {"time": 769, "pitch": 73, "duration": 2, "velocity": 112}, {"time": 772, "pitch": 74, "duration": 5, "velocity": 97}, {"time": 781, "pitch": 78, "duration": 4, "velocity": 117}, {"time": 787, "pitch": 77, "duration": 3, "velocity": 117}, {"time": 793, "pitch": 77, "duration": 1, "velocity": 100}, {"time": 796, "pitch": 78, "duration": 3, "velocity": 122}, {"time": 805, "pitch": 80, "duration": 6, "velocity": 112}, {"time": 811, "pitch": 78, "duration": 12, "velocity": 117}, {"time": 826, "pitch": 78, "duration": 2, "velocity": 102}, {"time": 829, "pitch": 80, "duration": 2, "velocity": 92}, {"time": 832, "pitch": 81, "duration": 2, "velocity": 93}, {"time": 835, "pitch": 83, "duration": 3, "velocity": 102}, {"time": 841, "pitch": 81, "duration": 1, "velocity": 102}, {"time": 844, "pitch": 80, "duration": 4, "velocity": 122}, {"time": 853, "pitch": 78, "duration": 1, "velocity": 107}, {"time": 856, "pitch": 76, "duration": 10, "velocity": 96}, {"time": 880, "pitch": 76, "duration": 2, "velocity": 99}, {"time": 883, "pitch": 74, "duration": 4, "velocity": 100}, {"time": 889, "pitch": 73, "duration": 2, "velocity": 107}, {"time": 892, "pitch": 74, "duration": 4, "velocity": 95}, {"time": 901, "pitch": 81, "duration": 5, "velocity": 112}, {"time": 907, "pitch": 80, "duration": 11, "velocity": 112}, {"time": 919, "pitch": 78, "duration": 11, "velocity": 122}, {"time": 931, "pitch": 77, "duration": 8, "velocity": 117}, {"time": 943, "pitch": 78, "duration": 3, "velocity": 127}, {"time": 946, "pitch": 80, "duration": 2, "velocity": 102}, {"time": 949, "pitch": 81, "duration": 2, "velocity": 97}, {"time": 952, "pitch": 81, "duration": 5, "velocity": 107}, {"time": 967, "pitch": 78, "duration": 2, "velocity": 127}, {"time": 970, "pitch": 80, "duration": 2, "velocity": 107}, {"time": 973, "pitch": 81, "duration": 2, "velocity": 112}, {"time": 976, "pitch": 81, "duration": 2, "velocity": 127}, {"time": 991, "pitch": 78, "duration": 2, "velocity": 127}, {"time": 994, "pitch": 80, "duration": 2, "velocity": 96}, {"time": 997, "pitch": 81, "duration": 3, "velocity": 97}, {"time": 1003, "pitch": 83, "duration": 4, "velocity": 100}, {"time": 1009, "pitch": 81, "duration": 4, "velocity": 112}, {"time": 1015, "pitch": 80, "duration": 3, "velocity": 122}, {"time": 1021, "pitch": 78, "duration": 1, "velocity": 117}, {"time": 1024, "pitch": 78, "duration": 5, "velocity": 117}, {"time": 1030, "pitch": 76, "duration": 9, "velocity": 107}, {"time": 1057, "pitch": 78, "duration": 2, "velocity": 117}, {"time": 1060, "pitch": 76, "duration": 1, "velocity": 92}, {"time": 1063, "pitch": 78, "duration": 3, "velocity": 127}, {"time": 1069, "pitch": 76, "duration": 1, "velocity": 112}, {"time": 1072, "pitch": 74, "duration": 7, "velocity": 107}, {"time": 1081, "pitch": 74, "duration": 1, "velocity": 112}, {"time": 1084, "pitch": 74, "duration": 3, "velocity": 127}, {"time": 1096, "pitch": 78, "duration": 2, "velocity": 127}, {"time": 1099, "pitch": 80, "duration": 3, "velocity": 112}, {"time": 1105, "pitch": 80, "duration": 1, "velocity": 127}, {"time": 1108, "pitch": 80, "duration": 3, "velocity": 122}, {"time": 1117, "pitch": 78, "duration": 2, "velocity": 117}, {"time": 1120, "pitch": 80, "duration": 7, "velocity": 127}, {"time": 1135, "pitch": 78, "duration": 3, "velocity": 127}, {"time": 1138, "pitch": 80, "duration": 2, "velocity": 102}, {"time": 1141, "pitch": 81, "duration": 2, "velocity": 97}, {"time": 1144, "pitch": 81, "duration": 5, "velocity": 107}, {"time": 1159, "pitch": 78, "duration": 2, "velocity": 127}, {"time": 1162, "pitch": 80, "duration": 2, "velocity": 107}, {"time": 1165, "pitch": 81, "duration": 2, "velocity": 112}, {"time": 1168, "pitch": 81, "duration": 2, "velocity": 127}, {"time": 1183, "pitch": 78, "duration": 2, "velocity": 127}, {"time": 1186, "pitch": 80, "duration": 2, "velocity": 96}, {"time": 1189, "pitch": 81, "duration": 3, "velocity": 97}, {"time": 1195, "pitch": 83, "duration": 4, "velocity": 100}, {"time": 1201, "pitch": 81, "duration": 4, "velocity": 112}, {"time": 1207, "pitch": 80, "duration": 3, "velocity": 122}, {"time": 1213, "pitch": 78, "duration": 1, "velocity": 117}, {"time": 1216, "pitch": 78, "duration": 5, "velocity": 117}, {"time": 1222, "pitch": 76, "duration": 9, "velocity": 107}, {"time": 1240, "pitch": 73, "duration": 1, "velocity": 122}, {"time": 1243, "pitch": 74, "duration": 4, "velocity": 122}, {"time": 1249, "pitch": 73, "duration": 2, "velocity": 127}, {"time": 1252, "pitch": 74, "duration": 3, "velocity": 127}, {"time": 1261, "pitch": 81, "duration": 4, "velocity": 122}, {"time": 1267, "pitch": 80, "duration": 7, "velocity": 127}, {"time": 1279, "pitch": 77, "duration": 10, "velocity": 127}, {"time": 1291, "pitch": 78, "duration": 29, "velocity": 127}, {"time": 1567, "pitch": 73, "duration": 5, "velocity": 95}, {"time": 1573, "pitch": 74, "duration": 3, "velocity": 99}, {"time": 1576, "pitch": 76, "duration": 4, "velocity": 107}, {"time": 1585, "pitch": 78, "duration": 9, "velocity": 104}, {"time": 1597, "pitch": 73, "duration": 2, "velocity": 117}, {"time": 1600, "pitch": 74, "duration": 2, "velocity": 90}, {"time": 1603, "pitch": 76, "duration": 5, "velocity": 93}, {"time": 1609, "pitch": 76, "duration": 1, "velocity": 100}, {"time": 1612, "pitch": 76, "duration": 3, "velocity": 89}, {"time": 1618, "pitch": 73, "duration": 3, "velocity": 102}, {"time": 1624, "pitch": 71, "duration": 12, "velocity": 99}, {"time": 1663, "pitch": 73, "duration": 2, "velocity": 127}, {"time": 1666, "pitch": 74, "duration": 4, "velocity": 71}, {"time": 1669, "pitch": 76, "duration": 1, "velocity": 96}, {"time": 1672, "pitch": 76, "duration": 1, "velocity": 97}, {"time": 1675, "pitch": 76, "duration": 5, "velocity": 97}, {"time": 1681, "pitch": 81, "duration": 2, "velocity": 99}, {"time": 1684, "pitch": 80, "duration": 6, "velocity": 107}, {"time": 1693, "pitch": 76, "duration": 3, "velocity": 122}, {"time": 1696, "pitch": 74, "duration": 5, "velocity": 102}, {"time": 1705, "pitch": 74, "duration": 7, "velocity": 97}, {"time": 1723, "pitch": 78, "duration": 1, "velocity": 127}, {"time": 1726, "pitch": 78, "duration": 1, "velocity": 99}, {"time": 1729, "pitch": 78, "duration": 1, "velocity": 102}, {"time": 1732, "pitch": 78, "duration": 1, "velocity": 112}, {"time": 1735, "pitch": 77, "duration": 4, "velocity": 112}, {"time": 1741, "pitch": 77, "duration": 3, "velocity": 112}, {"time": 1759, "pitch": 81, "duration": 3, "velocity": 127}, {"time": 1762, "pitch": 80, "duration": 4, "velocity": 89}, {"time": 1765, "pitch": 78, "duration": 1, "velocity": 97}, {"time": 1768, "pitch": 78, "duration": 5, "velocity": 122}, {"time": 1777, "pitch": 76, "duration": 5, "velocity": 112}, {"time": 1792, "pitch": 76, "duration": 2, "velocity": 97}, {"time": 1795, "pitch": 78, "duration": 4, "velocity": 97}, {"time": 1801, "pitch": 76, "duration": 2, "velocity": 102}, {"time": 1804, "pitch": 76, "duration": 5, "velocity": 95}, {"time": 1813, "pitch": 69, "duration": 4, "velocity": 97}, {"time": 1816, "pitch": 73, "duration": 8, "velocity": 117}, {"time": 1825, "pitch": 76, "duration": 4, "velocity": 122}, {"time": 1840, "pitch": 73, "duration": 2, "velocity": 107}, {"time": 1843, "pitch": 74, "duration": 3, "velocity": 95}, {"time": 1849, "pitch": 73, "duration": 2, "velocity": 112}, {"time": 1852, "pitch": 74, "duration": 5, "velocity": 97}, {"time": 1861, "pitch": 78, "duration": 4, "velocity": 117}, {"time": 1867, "pitch": 77, "duration": 3, "velocity": 117}, {"time": 1873, "pitch": 77, "duration": 1, "velocity": 100}, {"time": 1876, "pitch": 78, "duration": 3, "velocity": 122}, {"time": 1885, "pitch": 80, "duration": 6, "velocity": 112}, {"time": 1891, "pitch": 78, "duration": 12, "velocity": 117}, {"time": 1906, "pitch": 78, "duration": 2, "velocity": 102}, {"time": 1909, "pitch": 80, "duration": 2, "velocity": 92}, {"time": 1912, "pitch": 81, "duration": 2, "velocity": 93}, {"time": 1915, "pitch": 83, "duration": 3, "velocity": 102}, {"time": 1921, "pitch": 81, "duration": 1, "velocity": 102}, {"time": 1924, "pitch": 80, "duration": 4, "velocity": 122}, {"time": 1933, "pitch": 78, "duration": 1, "velocity": 107}, {"time": 1936, "pitch": 76, "duration": 10, "velocity": 96}, {"time": 1960, "pitch": 76, "duration": 2, "velocity": 99}, {"time": 1963, "pitch": 74, "duration": 4, "velocity": 100}, {"time": 1969, "pitch": 73, "duration": 2, "velocity": 107}, {"time": 1972, "pitch": 74, "duration": 4, "velocity": 95}, {"time": 1981, "pitch": 81, "duration": 5, "velocity": 112}, {"time": 1987, "pitch": 80, "duration": 11, "velocity": 112}, {"time": 1999, "pitch": 78, "duration": 11, "velocity": 122}, {"time": 2011, "pitch": 77, "duration": 8, "velocity": 117}, {"time": 2023, "pitch": 78, "duration": 3, "velocity": 127}, {"time": 2026, "pitch": 80, "duration": 2, "velocity": 102}, {"time": 2029, "pitch": 81, "duration": 2, "velocity": 97}, {"time": 2032, "pitch": 81, "duration": 5, "velocity": 107}, {"time": 2047, "pitch": 78, "duration": 2, "velocity": 127}, {"time": 2050, "pitch": 80, "duration": 2, "velocity": 107}, {"time": 2053, "pitch": 81, "duration": 2, "velocity": 112}, {"time": 2056, "pitch": 81, "duration": 2, "velocity": 127}, {"time": 2071, "pitch": 78, "duration": 2, "velocity": 127}, {"time": 2074, "pitch": 80, "duration": 2, "velocity": 96}, {"time": 2077, "pitch": 81, "duration": 3, "velocity": 97}, {"time": 2083, "pitch": 83, "duration": 4, "velocity": 100}, {"time": 2089, "pitch": 81, "duration": 4, "velocity": 112}, {"time": 2095, "pitch": 80, "duration": 3, "velocity": 122}, {"time": 2101, "pitch": 78, "duration": 1, "velocity": 117}, {"time": 2104, "pitch": 78, "duration": 5, "velocity": 117}, {"time": 2110, "pitch": 76, "duration": 9, "velocity": 107}, {"time": 2137, "pitch": 78, "duration": 2, "velocity": 117}, {"time": 2140, "pitch": 76, "duration": 1, "velocity": 92}, {"time": 2143, "pitch": 78, "duration": 3, "velocity": 127}, {"time": 2149, "pitch": 76, "duration": 1, "velocity": 112}, {"time": 2152, "pitch": 74, "duration": 7, "velocity": 107}, {"time": 2161, "pitch": 74, "duration": 1, "velocity": 112}, {"time": 2164, "pitch": 74, "duration": 3, "velocity": 127}, {"time": 2176, "pitch": 78, "duration": 2, "velocity": 127}, {"time": 2179, "pitch": 80, "duration": 3, "velocity": 112}, {"time": 2185, "pitch": 80, "duration": 1, "velocity": 127}, {"time": 2188, "pitch": 80, "duration": 3, "velocity": 122}, {"time": 2197, "pitch": 78, "duration": 2, "velocity": 117}, {"time": 2200, "pitch": 80, "duration": 7, "velocity": 127}, {"time": 2215, "pitch": 78, "duration": 3, "velocity": 127}, {"time": 2218, "pitch": 80, "duration": 2, "velocity": 102}, {"time": 2221, "pitch": 81, "duration": 2, "velocity": 97}, {"time": 2224, "pitch": 81, "duration": 5, "velocity": 107}, {"time": 2239, "pitch": 78, "duration": 2, "velocity": 127}, {"time": 2242, "pitch": 80, "duration": 2, "velocity": 107}, {"time": 2245, "pitch": 81, "duration": 2, "velocity": 112}, {"time": 2248, "pitch": 81, "duration": 2, "velocity": 127}, {"time": 2263, "pitch": 78, "duration": 2, "velocity": 127}, {"time": 2266, "pitch": 80, "duration": 2, "velocity": 96}, {"time": 2269, "pitch": 81, "duration": 3, "velocity": 97}, {"time": 2275, "pitch": 83, "duration": 4, "velocity": 100}, {"time": 2281, "pitch": 81, "duration": 4, "velocity": 112}, {"time": 2287, "pitch": 80, "duration": 3, "velocity": 122}, {"time": 2293, "pitch": 78, "duration": 1, "velocity": 117}, {"time": 2296, "pitch": 78, "duration": 5, "velocity": 117}, {"time": 2302, "pitch": 76, "duration": 9, "velocity": 107}, {"time": 2320, "pitch": 73, "duration": 1, "velocity": 122}, {"time": 2323, "pitch": 74, "duration": 4, "velocity": 122}, {"time": 2329, "pitch": 73, "duration": 2, "velocity": 127}, {"time": 2332, "pitch": 74, "duration": 3, "velocity": 127}, {"time": 2341, "pitch": 81, "duration": 4, "velocity": 122}, {"time": 2347, "pitch": 80, "duration": 7, "velocity": 127}, {"time": 2359, "pitch": 77, "duration": 10, "velocity": 127}, {"time": 2371, "pitch": 78, "duration": 29, "velocity": 127}, {"time": 2407, "pitch": 78, "duration": 4, "velocity": 127}, {"time": 2413, "pitch": 80, "duration": 4, "velocity": 127}, {"time": 2419, "pitch": 81, "duration": 6, "velocity": 127}, {"time": 2425, "pitch": 81, "duration": 1, "velocity": 122}, {"time": 2428, "pitch": 81, "duration": 4, "velocity": 117}, {"time": 2437, "pitch": 80, "duration": 1, "velocity": 117}, {"time": 2440, "pitch": 80, "duration": 4, "velocity": 122}, {"time": 2449, "pitch": 78, "duration": 2, "velocity": 122}, {"time": 2452, "pitch": 76, "duration": 6, "velocity": 107}, {"time": 2461, "pitch": 80, "duration": 2, "velocity": 127}, {"time": 2464, "pitch": 81, "duration": 2, "velocity": 95}, {"time": 2467, "pitch": 83, "duration": 4, "velocity": 122}, {"time": 2473, "pitch": 83, "duration": 1, "velocity": 107}, {"time": 2476, "pitch": 83, "duration": 3, "velocity": 127}, {"time": 2485, "pitch": 85, "duration": 2, "velocity": 122}, {"time": 2488, "pitch": 82, "duration": 7, "velocity": 122}, {"time": 2497, "pitch": 82, "duration": 1, "velocity": 127}, {"time": 2500, "pitch": 82, "duration": 4, "velocity": 127}, {"time": 2509, "pitch": 78, "duration": 2, "velocity": 127}, {"time": 2512, "pitch": 80, "duration": 1, "velocity": 99}, {"time": 2515, "pitch": 81, "duration": 4, "velocity": 112}, {"time": 2521, "pitch": 78, "duration": 2, "velocity": 117}, {"time": 2524, "pitch": 80, "duration": 4, "velocity": 127}, {"time": 2530, "pitch": 81, "duration": 7, "velocity": 127}, {"time": 2548, "pitch": 78, "duration": 1, "velocity": 127}, {"time": 2551, "pitch": 78, "duration": 2, "velocity": 127}, {"time": 2554, "pitch": 80, "duration": 3, "velocity": 117}, {"time": 2560, "pitch": 81, "duration": 2, "velocity": 127}, {"time": 2563, "pitch": 80, "duration": 28, "velocity": 127}, {"time": 2599, "pitch": 78, "duration": 3, "velocity": 127}, {"time": 2602, "pitch": 80, "duration": 2, "velocity": 102}, {"time": 2605, "pitch": 81, "duration": 2, "velocity": 97}, {"time": 2608, "pitch": 81, "duration": 5, "velocity": 107}, {"time": 2623, "pitch": 78, "duration": 2, "velocity": 127}, {"time": 2626, "pitch": 80, "duration": 2, "velocity": 107}, {"time": 2629, "pitch": 81, "duration": 2, "velocity": 112}, {"time": 2632, "pitch": 81, "duration": 2, "velocity": 127}, {"time": 2647, "pitch": 78, "duration": 2, "velocity": 127}, {"time": 2650, "pitch": 80, "duration": 2, "velocity": 96}, {"time": 2653, "pitch": 81, "duration": 3, "velocity": 97}, {"time": 2659, "pitch": 83, "duration": 4, "velocity": 100}, {"time": 2665, "pitch": 81, "duration": 4, "velocity": 112}, {"time": 2671, "pitch": 80, "duration": 3, "velocity": 122}, {"time": 2677, "pitch": 78, "duration": 1, "velocity": 117}, {"time": 2680, "pitch": 78, "duration": 5, "velocity": 117}, {"time": 2686, "pitch": 76, "duration": 9, "velocity": 107}, {"time": 2713, "pitch": 78, "duration": 2, "velocity": 117}, {"time": 2716, "pitch": 76, "duration": 1, "velocity": 92}, {"time": 2719, "pitch": 78, "duration": 3, "velocity": 127}, {"time": 2725, "pitch": 81, "duration": 2, "velocity": 102}, {"time": 2728, "pitch": 78, "duration": 6, "velocity": 127}, {"time": 2737, "pitch": 76, "duration": 2, "velocity": 112}, {"time": 2740, "pitch": 74, "duration": 9, "velocity": 107}, {"time": 2752, "pitch": 81, "duration": 3, "velocity": 117}, {"time": 2755, "pitch": 80, "duration": 4, "velocity": 122}, {"time": 2761, "pitch": 80, "duration": 1, "velocity": 127}, {"time": 2764, "pitch": 80, "duration": 4, "velocity": 122}, {"time": 2770, "pitch": 81, "duration": 4, "velocity": 127}, {"time": 2776, "pitch": 80, "duration": 11, "velocity": 127}, {"time": 2791, "pitch": 78, "duration": 3, "velocity": 127}, {"time": 2794, "pitch": 80, "duration": 2, "velocity": 102}, {"time": 2797, "pitch": 81, "duration": 2, "velocity": 97}, {"time": 2800, "pitch": 81, "duration": 5, "velocity": 107}, {"time": 2815, "pitch": 78, "duration": 2, "velocity": 127}, {"time": 2818, "pitch": 80, "duration": 2, "velocity": 107}, {"time": 2821, "pitch": 81, "duration": 2, "velocity": 112}, {"time": 2824, "pitch": 81, "duration": 2, "velocity": 127}, {"time": 2839, "pitch": 78, "duration": 2, "velocity": 127}, {"time": 2842, "pitch": 80, "duration": 2, "velocity": 96}, {"time": 2845, "pitch": 81, "duration": 3, "velocity": 97}, {"time": 2851, "pitch": 83, "duration": 4, "velocity": 100}, {"time": 2857, "pitch": 81, "duration": 4, "velocity": 112}, {"time": 2863, "pitch": 80, "duration": 3, "velocity": 122}, {"time": 2869, "pitch": 78, "duration": 1, "velocity": 117}, {"time": 2872, "pitch": 78, "duration": 5, "velocity": 117}, {"time": 2878, "pitch": 76, "duration": 9, "velocity": 107}, {"time": 2896, "pitch": 73, "duration": 1, "velocity": 122}, {"time": 2899, "pitch": 74, "duration": 4, "velocity": 122}, {"time": 2905, "pitch": 73, "duration": 2, "velocity": 127}, {"time": 2908, "pitch": 74, "duration": 3, "velocity": 127}, {"time": 2917, "pitch": 81, "duration": 4, "velocity": 122}, {"time": 2923, "pitch": 80, "duration": 7, "velocity": 127}, {"time": 2935, "pitch": 77, "duration": 10, "velocity": 127}, {"time": 2947, "pitch": 78, "duration": 29, "velocity": 127}, {"time": 2992, "pitch": 73, "duration": 2, "velocity": 107}, {"time": 2995, "pitch": 74, "duration": 5, "velocity": 95}, {"time": 3001, "pitch": 73, "duration": 2, "velocity": 122}, {"time": 3004, "pitch": 74, "duration": 7, "velocity": 97}, {"time": 3013, "pitch": 81, "duration": 4, "velocity": 122}, {"time": 3019, "pitch": 80, "duration": 12, "velocity": 122}, {"time": 3031, "pitch": 77, "duration": 17, "velocity": 112}, {"time": 3049, "pitch": 78, "duration": 62, "velocity": 127}], "annotations": [{"time": 211, "annotation": {"number": 64, "value": 68}, "group": "control_change"}, {"time": 235, "annotation": {"number": 64, "value": 69}, "group": "control_change"}, {"time": 247, "annotation": {"number": 64, "value": 70}, "group": "control_change"}, {"time": 307, "annotation": {"number": 64, "value": 71}, "group": "control_change"}, {"time": 343, "annotation": {"number": 64, "value": 72}, "group": "control_change"}, {"time": 403, "annotation": {"number": 64, "value": 73}, "group": "control_change"}, {"time": 439, "annotation": {"number": 64, "value": 74}, "group": "control_change"}, {"time": 739, "annotation": {"number": 64, "value": 75}, "group": "control_change"}, {"time": 823, "annotation": {"number": 64, "value": 76}, "group": "control_change"}, {"time": 1039, "annotation": {"number": 64, "value": 77}, "group": "control_change"}, {"time": 1255, "annotation": {"number": 64, "value": 76}, "group": "control_change"}, {"time": 1315, "annotation": {"number": 64, "value": 75}, "group": "control_change"}, {"time": 1387, "annotation": {"number": 64, "value": 74}, "group": "control_change"}, {"time": 1459, "annotation": {"number": 64, "value": 75}, "group": "control_change"}, {"time": 1651, "annotation": {"number": 64, "value": 76}, "group": "control_change"}, {"time": 1843, "annotation": {"number": 64, "value": 75}, "group": "control_change"}, {"time": 2023, "annotation": {"number": 64, "value": 76}, "group": "control_change"}, {"time": 2611, "annotation": {"number": 64, "value": 77}, "group": "control_change"}, {"time": 2839, "annotation": {"number": 64, "value": 78}, "group": "control_change"}, {"time": 3127, "annotation": {"number": 64, "value": 79}, "group": "control_change"}]}, {"program": 0, "is_drum": false, "name": "PIANO", "notes": [{"time": 19, "pitch": 38, "duration": 14, "velocity": 38}, {"time": 19, "pitch": 45, "duration": 14, "velocity": 40}, {"time": 19, "pitch": 50, "duration": 13, "velocity": 34}, {"time": 19, "pitch": 57, "duration": 15, "velocity": 55}, {"time": 19, "pitch": 62, "duration": 15, "velocity": 53}, {"time": 19, "pitch": 66, "duration": 15, "velocity": 52}, {"time": 43, "pitch": 40, "duration": 14, "velocity": 34}, {"time": 43, "pitch": 47, "duration": 14, "velocity": 35}, {"time": 43, "pitch": 52, "duration": 14, "velocity": 45}, {"time": 43, "pitch": 56, "duration": 14, "velocity": 51}, {"time": 43, "pitch": 59, "duration": 14, "velocity": 52}, {"time": 67, "pitch": 38, "duration": 12, "velocity": 40}, {"time": 67, "pitch": 45, "duration": 12, "velocity": 44}, {"time": 67, "pitch": 50, "duration": 12, "velocity": 38}, {"time": 67, "pitch": 57, "duration": 11, "velocity": 53}, {"time": 67, "pitch": 62, "duration": 11, "velocity": 55}, {"time": 91, "pitch": 37, "duration": 12, "velocity": 52}, {"time": 91, "pitch": 49, "duration": 14, "velocity": 56}, {"time": 91, "pitch": 61, "duration": 14, "velocity": 45}, {"time": 91, "pitch": 64, "duration": 13, "velocity": 47}, {"time": 91, "pitch": 68, "duration": 13, "velocity": 53}, {"time": 115, "pitch": 47, "duration": 15, "velocity": 41}, {"time": 115, "pitch": 59, "duration": 15, "velocity": 40}, {"time": 115, "pitch": 62, "duration": 15, "velocity": 45}, {"time": 115, "pitch": 66, "duration": 16, "velocity": 51}, {"time": 139, "pitch": 49, "duration": 17, "velocity": 56}, {"time": 139, "pitch": 61, "duration": 18, "velocity": 45}, {"time": 139, "pitch": 64, "duration": 16, "velocity": 59}, {"time": 139, "pitch": 68, "duration": 17, "velocity": 53}, {"time": 163, "pitch": 47, "duration": 14, "velocity": 50}, {"time": 163, "pitch": 59, "duration": 14, "velocity": 47}, {"time": 163, "pitch": 62, "duration": 13, "velocity": 58}, {"time": 163, "pitch": 66, "duration": 14, "velocity": 52}, {"time": 187, "pitch": 49, "duration": 44, "velocity": 33}, {"time": 187, "pitch": 56, "duration": 21, "velocity": 64}, {"time": 187, "pitch": 61, "duration": 11, "velocity": 69}, {"time": 187, "pitch": 66, "duration": 10, "velocity": 51}, {"time": 187, "pitch": 68, "duration": 10, "velocity": 40}, {"time": 199, "pitch": 61, "duration": 11, "velocity": 49}, {"time": 199, "pitch": 66, "duration": 8, "velocity": 68}, {"time": 199, "pitch": 68, "duration": 8, "velocity": 60}, {"time": 211, "pitch": 53, "duration": 20, "velocity": 40}, {"time": 211, "pitch": 56, "duration": 19, "velocity": 33}, {"time": 211, "pitch": 61, "duration": 21, "velocity": 47}, {"time": 211, "pitch": 65, "duration": 17, "velocity": 59}, {"time": 211, "pitch": 68, "duration": 21, "velocity": 54}, {"time": 235, "pitch": 49, "duration": 14, "velocity": 32}, {"time": 235, "pitch": 53, "duration": 13, "velocity": 31}, {"time": 235, "pitch": 56, "duration": 12, "velocity": 31}, {"time": 235, "pitch": 61, "duration": 14, "velocity": 39}, {"time": 235, "pitch": 65, "duration": 13, "velocity": 43}, {"time": 235, "pitch": 68, "duration": 13, "velocity": 44}, {"time": 259, "pitch": 42, "duration": 24, "velocity": 95}, {"time": 259, "pitch": 57, "duration": 9, "velocity": 89}, {"time": 259, "pitch": 61, "duration": 10, "velocity": 100}, {"time": 265, "pitch": 54, "duration": 9, "velocity": 70}, {"time": 271, "pitch": 57, "duration": 5, "velocity": 90}, {"time": 271, "pitch": 61, "duration": 5, "velocity": 112}, {"time": 271, "pitch": 66, "duration": 6, "velocity": 99}, {"time": 277, "pitch": 54, "duration": 3, "velocity": 56}, {"time": 283, "pitch": 49, "duration": 14, "velocity": 71}, {"time": 283, "pitch": 61, "duration": 10, "velocity": 97}, {"time": 283, "pitch": 64, "duration": 6, "velocity": 78}, {"time": 283, "pitch": 68, "duration": 6, "velocity": 83}, {"time": 295, "pitch": 64, "duration": 6, "velocity": 100}, {"time": 295, "pitch": 68, "duration": 6, "velocity": 122}, {"time": 301, "pitch": 61, "duration": 1, "velocity": 97}, {"time": 307, "pitch": 38, "duration": 13, "velocity": 69}, {"time": 307, "pitch": 50, "duration": 13, "velocity": 62}, {"time": 307, "pitch": 57, "duration": 9, "velocity": 95}, {"time": 307, "pitch": 62, "duration": 8, "velocity": 100}, {"time": 307, "pitch": 66, "duration": 7, "velocity": 97}, {"time": 319, "pitch": 57, "duration": 7, "velocity": 74}, {"time": 319, "pitch": 62, "duration": 10, "velocity": 102}, {"time": 319, "pitch": 66, "duration": 6, "velocity": 112}, {"time": 331, "pitch": 40, "duration": 16, "velocity": 66}, {"time": 331, "pitch": 52, "duration": 13, "velocity": 65}, {"time": 331, "pitch": 59, "duration": 10, "velocity": 88}, {"time": 331, "pitch": 64, "duration": 10, "velocity": 88}, {"time": 331, "pitch": 68, "duration": 10, "velocity": 88}, {"time": 343, "pitch": 64, "duration": 6, "velocity": 99}, {"time": 343, "pitch": 68, "duration": 6, "velocity": 107}, {"time": 346, "pitch": 52, "duration": 2, "velocity": 69}, {"time": 349, "pitch": 59, "duration": 1, "velocity": 90}, {"time": 355, "pitch": 42, "duration": 17, "velocity": 78}, {"time": 355, "pitch": 54, "duration": 13, "velocity": 78}, {"time": 355, "pitch": 57, "duration": 10, "velocity": 96}, {"time": 355, "pitch": 61, "duration": 10, "velocity": 95}, {"time": 355, "pitch": 66, "duration": 8, "velocity": 82}, {"time": 367, "pitch": 66, "duration": 6, "velocity": 122}, {"time": 370, "pitch": 54, "duration": 2, "velocity": 82}, {"time": 373, "pitch": 57, "duration": 2, "velocity": 96}, {"time": 379, "pitch": 49, "duration": 16, "velocity": 71}, {"time": 379, "pitch": 56, "duration": 7, "velocity": 77}, {"time": 379, "pitch": 61, "duration": 7, "velocity": 70}, {"time": 379, "pitch": 64, "duration": 7, "velocity": 70}, {"time": 391, "pitch": 56, "duration": 5, "velocity": 93}, {"time": 391, "pitch": 61, "duration": 8, "velocity": 107}, {"time": 391, "pitch": 64, "duration": 6, "velocity": 86}, {"time": 397, "pitch": 49, "duration": 6, "velocity": 71}, {"time": 403, "pitch": 50, "duration": 12, "velocity": 66}, {"time": 403, "pitch": 57, "duration": 10, "velocity": 92}, {"time": 403, "pitch": 62, "duration": 10, "velocity": 95}, {"time": 403, "pitch": 66, "duration": 10, "velocity": 96}, {"time": 415, "pitch": 57, "duration": 10, "velocity": 74}, {"time": 415, "pitch": 62, "duration": 7, "velocity": 97}, {"time": 415, "pitch": 66, "duration": 7, "velocity": 96}, {"time": 427, "pitch": 40, "duration": 41, "velocity": 71}, {"time": 427, "pitch": 59, "duration": 6, "velocity": 90}, {"time": 427, "pitch": 64, "duration": 5, "velocity": 90}, {"time": 427, "pitch": 68, "duration": 5, "velocity": 93}, {"time": 439, "pitch": 52, "duration": 2, "velocity": 79}, {"time": 439, "pitch": 56, "duration": 2, "velocity": 92}, {"time": 439, "pitch": 59, "duration": 2, "velocity": 85}, {"time": 445, "pitch": 47, "duration": 23, "velocity": 37}, {"time": 451, "pitch": 52, "duration": 18, "velocity": 55}, {"time": 451, "pitch": 59, "duration": 18, "velocity": 85}, {"time": 451, "pitch": 64, "duration": 18, "velocity": 95}, {"time": 451, "pitch": 68, "duration": 17, "velocity": 96}, {"time": 475, "pitch": 45, "duration": 14, "velocity": 82}, {"time": 475, "pitch": 57, "duration": 7, "velocity": 96}, {"time": 475, "pitch": 61, "duration": 10, "velocity": 99}, {"time": 475, "pitch": 64, "duration": 7, "velocity": 90}, {"time": 481, "pitch": 52, "duration": 9, "velocity": 50}, {"time": 487, "pitch": 61, "duration": 7, "velocity": 127}, {"time": 487, "pitch": 64, "duration": 7, "velocity": 96}, {"time": 499, "pitch": 47, "duration": 14, "velocity": 69}, {"time": 499, "pitch": 59, "duration": 8, "velocity": 78}, {"time": 499, "pitch": 62, "duration": 8, "velocity": 79}, {"time": 499, "pitch": 66, "duration": 8, "velocity": 86}, {"time": 505, "pitch": 54, "duration": 7, "velocity": 38}, {"time": 511, "pitch": 62, "duration": 3, "velocity": 93}, {"time": 511, "pitch": 66, "duration": 4, "velocity": 93}, {"time": 523, "pitch": 49, "duration": 15, "velocity": 58}, {"time": 523, "pitch": 61, "duration": 9, "velocity": 93}, {"time": 523, "pitch": 64, "duration": 5, "velocity": 86}, {"time": 523, "pitch": 68, "duration": 6, "velocity": 90}, {"time": 535, "pitch": 64, "duration": 4, "velocity": 96}, {"time": 535, "pitch": 68, "duration": 4, "velocity": 100}, {"time": 547, "pitch": 50, "duration": 3, "velocity": 61}, {"time": 547, "pitch": 57, "duration": 3, "velocity": 70}, {"time": 547, "pitch": 62, "duration": 5, "velocity": 83}, {"time": 547, "pitch": 66, "duration": 5, "velocity": 96}, {"time": 547, "pitch": 69, "duration": 5, "velocity": 82}, {"time": 559, "pitch": 52, "duration": 3, "velocity": 72}, {"time": 559, "pitch": 59, "duration": 2, "velocity": 69}, {"time": 559, "pitch": 64, "duration": 4, "velocity": 85}, {"time": 559, "pitch": 68, "duration": 4, "velocity": 112}, {"time": 559, "pitch": 71, "duration": 3, "velocity": 89}, {"time": 571, "pitch": 42, "duration": 16, "velocity": 69}, {"time": 571, "pitch": 54, "duration": 13, "velocity": 57}, {"time": 571, "pitch": 57, "duration": 7, "velocity": 82}, {"time": 571, "pitch": 61, "duration": 7, "velocity": 97}, {"time": 571, "pitch": 66, "duration": 7, "velocity": 82}, {"time": 583, "pitch": 61, "duration": 6, "velocity": 107}, {"time": 583, "pitch": 66, "duration": 5, "velocity": 99}, {"time": 586, "pitch": 54, "duration": 2, "velocity": 58}, {"time": 589, "pitch": 57, "duration": 1, "velocity": 76}, {"time": 595, "pitch": 49, "duration": 16, "velocity": 56}, {"time": 595, "pitch": 56, "duration": 12, "velocity": 73}, {"time": 595, "pitch": 61, "duration": 7, "velocity": 100}, {"time": 595, "pitch": 64, "duration": 6, "velocity": 86}, {"time": 595, "pitch": 68, "duration": 6, "velocity": 86}, {"time": 607, "pitch": 64, "duration": 5, "velocity": 95}, {"time": 607, "pitch": 68, "duration": 6, "velocity": 102}, {"time": 610, "pitch": 56, "duration": 2, "velocity": 82}, {"time": 613, "pitch": 61, "duration": 1, "velocity": 100}, {"time": 619, "pitch": 47, "duration": 17, "velocity": 69}, {"time": 619, "pitch": 59, "duration": 6, "velocity": 89}, {"time": 619, "pitch": 62, "duration": 5, "velocity": 86}, {"time": 619, "pitch": 66, "duration": 6, "velocity": 86}, {"time": 625, "pitch": 54, "duration": 7, "velocity": 50}, {"time": 631, "pitch": 62, "duration": 4, "velocity": 100}, {"time": 631, "pitch": 66, "duration": 6, "velocity": 117}, {"time": 634, "pitch": 54, "duration": 2, "velocity": 54}, {"time": 637, "pitch": 59, "duration": 1, "velocity": 78}, {"time": 643, "pitch": 49, "duration": 16, "velocity": 37}, {"time": 643, "pitch": 53, "duration": 16, "velocity": 56}, {"time": 643, "pitch": 56, "duration": 13, "velocity": 72}, {"time": 643, "pitch": 61, "duration": 8, "velocity": 95}, {"time": 643, "pitch": 65, "duration": 6, "velocity": 96}, {"time": 643, "pitch": 68, "duration": 6, "velocity": 92}, {"time": 655, "pitch": 61, "duration": 1, "velocity": 69}, {"time": 655, "pitch": 64, "duration": 1, "velocity": 79}, {"time": 655, "pitch": 65, "duration": 6, "velocity": 99}, {"time": 655, "pitch": 68, "duration": 6, "velocity": 122}, {"time": 658, "pitch": 56, "duration": 2, "velocity": 76}, {"time": 661, "pitch": 61, "duration": 1, "velocity": 92}, {"time": 667, "pitch": 42, "duration": 17, "velocity": 95}, {"time": 667, "pitch": 66, "duration": 4, "velocity": 102}, {"time": 667, "pitch": 69, "duration": 1, "velocity": 92}, {"time": 667, "pitch": 73, "duration": 3, "velocity": 95}, {"time": 673, "pitch": 54, "duration": 7, "velocity": 86}, {"time": 676, "pitch": 57, "duration": 4, "velocity": 67}, {"time": 679, "pitch": 61, "duration": 6, "velocity": 117}, {"time": 679, "pitch": 66, "duration": 6, "velocity": 122}, {"time": 682, "pitch": 54, "duration": 2, "velocity": 99}, {"time": 685, "pitch": 57, "duration": 1, "velocity": 95}, {"time": 691, "pitch": 49, "duration": 16, "velocity": 96}, {"time": 691, "pitch": 61, "duration": 5, "velocity": 122}, {"time": 691, "pitch": 64, "duration": 5, "velocity": 93}, {"time": 691, "pitch": 68, "duration": 5, "velocity": 95}, {"time": 694, "pitch": 53, "duration": 13, "velocity": 58}, {"time": 697, "pitch": 56, "duration": 6, "velocity": 97}, {"time": 700, "pitch": 68, "duration": 9, "velocity": 117}, {"time": 706, "pitch": 56, "duration": 3, "velocity": 67}, {"time": 709, "pitch": 61, "duration": 1, "velocity": 90}, {"time": 715, "pitch": 50, "duration": 17, "velocity": 63}, {"time": 715, "pitch": 54, "duration": 16, "velocity": 66}, {"time": 715, "pitch": 57, "duration": 12, "velocity": 69}, {"time": 715, "pitch": 62, "duration": 10, "velocity": 90}, {"time": 715, "pitch": 66, "duration": 7, "velocity": 99}, {"time": 715, "pitch": 69, "duration": 10, "velocity": 82}, {"time": 727, "pitch": 66, "duration": 6, "velocity": 127}, {"time": 727, "pitch": 69, "duration": 6, "velocity": 93}, {"time": 730, "pitch": 57, "duration": 1, "velocity": 56}, {"time": 733, "pitch": 62, "duration": 1, "velocity": 96}, {"time": 739, "pitch": 45, "duration": 17, "velocity": 72}, {"time": 739, "pitch": 57, "duration": 8, "velocity": 92}, {"time": 739, "pitch": 61, "duration": 9, "velocity": 93}, {"time": 739, "pitch": 64, "duration": 9, "velocity": 83}, {"time": 745, "pitch": 52, "duration": 7, "velocity": 77}, {"time": 751, "pitch": 61, "duration": 6, "velocity": 127}, {"time": 751, "pitch": 64, "duration": 5, "velocity": 97}, {"time": 754, "pitch": 52, "duration": 2, "velocity": 72}, {"time": 757, "pitch": 57, "duration": 2, "velocity": 93}, {"time": 763, "pitch": 44, "duration": 14, "velocity": 97}, {"time": 763, "pitch": 56, "duration": 11, "velocity": 122}, {"time": 763, "pitch": 59, "duration": 11, "velocity": 99}, {"time": 763, "pitch": 62, "duration": 7, "velocity": 92}, {"time": 775, "pitch": 56, "duration": 2, "velocity": 107}, {"time": 775, "pitch": 59, "duration": 2, "velocity": 89}, {"time": 775, "pitch": 62, "duration": 2, "velocity": 89}, {"time": 787, "pitch": 49, "duration": 14, "velocity": 58}, {"time": 787, "pitch": 56, "duration": 13, "velocity": 93}, {"time": 787, "pitch": 61, "duration": 8, "velocity": 102}, {"time": 787, "pitch": 65, "duration": 6, "velocity": 102}, {"time": 787, "pitch": 68, "duration": 7, "velocity": 97}, {"time": 796, "pitch": 53, "duration": 3, "velocity": 35}, {"time": 799, "pitch": 61, "duration": 3, "velocity": 97}, {"time": 799, "pitch": 65, "duration": 4, "velocity": 122}, {"time": 799, "pitch": 68, "duration": 4, "velocity": 100}, {"time": 811, "pitch": 42, "duration": 17, "velocity": 100}, {"time": 811, "pitch": 57, "duration": 7, "velocity": 96}, {"time": 811, "pitch": 61, "duration": 7, "velocity": 112}, {"time": 811, "pitch": 66, "duration": 7, "velocity": 93}, {"time": 817, "pitch": 54, "duration": 7, "velocity": 90}, {"time": 823, "pitch": 61, "duration": 7, "velocity": 127}, {"time": 823, "pitch": 66, "duration": 8, "velocity": 112}, {"time": 826, "pitch": 54, "duration": 2, "velocity": 93}, {"time": 829, "pitch": 57, "duration": 5, "velocity": 100}, {"time": 832, "pitch": 61, "duration": 2, "velocity": 102}, {"time": 835, "pitch": 50, "duration": 16, "velocity": 85}, {"time": 835, "pitch": 57, "duration": 9, "velocity": 88}, {"time": 835, "pitch": 62, "duration": 10, "velocity": 97}, {"time": 835, "pitch": 66, "duration": 10, "velocity": 99}, {"time": 847, "pitch": 57, "duration": 9, "velocity": 88}, {"time": 847, "pitch": 62, "duration": 6, "velocity": 99}, {"time": 847, "pitch": 66, "duration": 6, "velocity": 102}, {"time": 853, "pitch": 50, "duration": 6, "velocity": 77}, {"time": 859, "pitch": 45, "duration": 20, "velocity": 72}, {"time": 859, "pitch": 57, "duration": 9, "velocity": 96}, {"time": 859, "pitch": 61, "duration": 10, "velocity": 107}, {"time": 859, "pitch": 64, "duration": 9, "velocity": 89}, {"time": 871, "pitch": 57, "duration": 8, "velocity": 93}, {"time": 871, "pitch": 61, "duration": 6, "velocity": 117}, {"time": 871, "pitch": 64, "duration": 6, "velocity": 95}, {"time": 877, "pitch": 52, "duration": 7, "velocity": 54}, {"time": 883, "pitch": 47, "duration": 23, "velocity": 82}, {"time": 883, "pitch": 59, "duration": 8, "velocity": 89}, {"time": 883, "pitch": 62, "duration": 6, "velocity": 102}, {"time": 883, "pitch": 66, "duration": 7, "velocity": 99}, {"time": 889, "pitch": 54, "duration": 10, "velocity": 42}, {"time": 895, "pitch": 59, "duration": 6, "velocity": 92}, {"time": 895, "pitch": 62, "duration": 5, "velocity": 100}, {"time": 895, "pitch": 66, "duration": 6, "velocity": 107}, {"time": 901, "pitch": 54, "duration": 7, "velocity": 66}, {"time": 907, "pitch": 49, "duration": 18, "velocity": 77}, {"time": 907, "pitch": 61, "duration": 10, "velocity": 100}, {"time": 907, "pitch": 65, "duration": 7, "velocity": 99}, {"time": 907, "pitch": 68, "duration": 7, "velocity": 95}, {"time": 919, "pitch": 61, "duration": 10, "velocity": 95}, {"time": 919, "pitch": 65, "duration": 8, "velocity": 99}, {"time": 919, "pitch": 68, "duration": 9, "velocity": 100}, {"time": 931, "pitch": 49, "duration": 11, "velocity": 72}, {"time": 931, "pitch": 56, "duration": 11, "velocity": 75}, {"time": 931, "pitch": 61, "duration": 11, "velocity": 97}, {"time": 931, "pitch": 65, "duration": 10, "velocity": 100}, {"time": 931, "pitch": 68, "duration": 11, "velocity": 89}, {"time": 931, "pitch": 73, "duration": 10, "velocity": 89}, {"time": 955, "pitch": 42, "duration": 16, "velocity": 107}, {"time": 955, "pitch": 54, "duration": 7, "velocity": 93}, {"time": 955, "pitch": 57, "duration": 10, "velocity": 102}, {"time": 955, "pitch": 61, "duration": 10, "velocity": 127}, {"time": 955, "pitch": 66, "duration": 10, "velocity": 127}, {"time": 964, "pitch": 54, "duration": 4, "velocity": 63}, {"time": 967, "pitch": 61, "duration": 6, "velocity": 127}, {"time": 967, "pitch": 66, "duration": 6, "velocity": 127}, {"time": 970, "pitch": 54, "duration": 3, "velocity": 97}, {"time": 973, "pitch": 57, "duration": 2, "velocity": 112}, {"time": 979, "pitch": 47, "duration": 17, "velocity": 78}, {"time": 979, "pitch": 59, "duration": 7, "velocity": 117}, {"time": 979, "pitch": 62, "duration": 7, "velocity": 127}, {"time": 979, "pitch": 66, "duration": 7, "velocity": 127}, {"time": 985, "pitch": 54, "duration": 7, "velocity": 76}, {"time": 988, "pitch": 62, "duration": 8, "velocity": 122}, {"time": 988, "pitch": 66, "duration": 11, "velocity": 127}, {"time": 994, "pitch": 54, "duration": 2, "velocity": 85}, {"time": 997, "pitch": 59, "duration": 4, "velocity": 122}, {"time": 1000, "pitch": 62, "duration": 2, "velocity": 81}, {"time": 1003, "pitch": 40, "duration": 16, "velocity": 89}, {"time": 1003, "pitch": 59, "duration": 9, "velocity": 102}, {"time": 1003, "pitch": 64, "duration": 10, "velocity": 107}, {"time": 1003, "pitch": 68, "duration": 10, "velocity": 117}, {"time": 1009, "pitch": 47, "duration": 7, "velocity": 52}, {"time": 1015, "pitch": 64, "duration": 5, "velocity": 127}, {"time": 1015, "pitch": 68, "duration": 5, "velocity": 127}, {"time": 1018, "pitch": 47, "duration": 2, "velocity": 66}, {"time": 1021, "pitch": 59, "duration": 2, "velocity": 83}, {"time": 1027, "pitch": 45, "duration": 18, "velocity": 89}, {"time": 1027, "pitch": 57, "duration": 1, "velocity": 100}, {"time": 1027, "pitch": 61, "duration": 1, "velocity": 122}, {"time": 1027, "pitch": 64, "duration": 1, "velocity": 93}, {"time": 1030, "pitch": 52, "duration": 15, "velocity": 69}, {"time": 1033, "pitch": 57, "duration": 8, "velocity": 96}, {"time": 1036, "pitch": 64, "duration": 2, "velocity": 88}, {"time": 1039, "pitch": 64, "duration": 1, "velocity": 36}, {"time": 1039, "pitch": 73, "duration": 5, "velocity": 127}, {"time": 1042, "pitch": 57, "duration": 6, "velocity": 70}, {"time": 1042, "pitch": 69, "duration": 3, "velocity": 95}, {"time": 1045, "pitch": 64, "duration": 1, "velocity": 102}, {"time": 1051, "pitch": 50, "duration": 17, "velocity": 88}, {"time": 1051, "pitch": 57, "duration": 13, "velocity": 99}, {"time": 1051, "pitch": 62, "duration": 8, "velocity": 102}, {"time": 1051, "pitch": 66, "duration": 7, "velocity": 117}, {"time": 1051, "pitch": 69, "duration": 8, "velocity": 95}, {"time": 1060, "pitch": 54, "duration": 6, "velocity": 38}, {"time": 1063, "pitch": 62, "duration": 3, "velocity": 99}, {"time": 1063, "pitch": 66, "duration": 6, "velocity": 127}, {"time": 1063, "pitch": 69, "duration": 6, "velocity": 102}, {"time": 1066, "pitch": 57, "duration": 2, "velocity": 83}, {"time": 1069, "pitch": 62, "duration": 2, "velocity": 107}, {"time": 1075, "pitch": 47, "duration": 18, "velocity": 72}, {"time": 1075, "pitch": 59, "duration": 7, "velocity": 102}, {"time": 1075, "pitch": 62, "duration": 6, "velocity": 102}, {"time": 1075, "pitch": 66, "duration": 7, "velocity": 117}, {"time": 1081, "pitch": 54, "duration": 8, "velocity": 60}, {"time": 1087, "pitch": 62, "duration": 6, "velocity": 122}, {"time": 1087, "pitch": 66, "duration": 7, "velocity": 127}, {"time": 1090, "pitch": 54, "duration": 2, "velocity": 56}, {"time": 1093, "pitch": 59, "duration": 1, "velocity": 99}, {"time": 1099, "pitch": 49, "duration": 21, "velocity": 99}, {"time": 1099, "pitch": 56, "duration": 15, "velocity": 99}, {"time": 1099, "pitch": 61, "duration": 9, "velocity": 117}, {"time": 1099, "pitch": 65, "duration": 6, "velocity": 122}, {"time": 1099, "pitch": 68, "duration": 6, "velocity": 112}, {"time": 1108, "pitch": 53, "duration": 13, "velocity": 22}, {"time": 1111, "pitch": 61, "duration": 3, "velocity": 127}, {"time": 1111, "pitch": 65, "duration": 1, "velocity": 127}, {"time": 1111, "pitch": 68, "duration": 3, "velocity": 127}, {"time": 1117, "pitch": 56, "duration": 4, "velocity": 49}, {"time": 1123, "pitch": 49, "duration": 19, "velocity": 127}, {"time": 1123, "pitch": 56, "duration": 8, "velocity": 117}, {"time": 1123, "pitch": 61, "duration": 2, "velocity": 127}, {"time": 1123, "pitch": 73, "duration": 2, "velocity": 97}, {"time": 1129, "pitch": 53, "duration": 12, "velocity": 45}, {"time": 1129, "pitch": 63, "duration": 2, "velocity": 117}, {"time": 1129, "pitch": 75, "duration": 1, "velocity": 95}, {"time": 1135, "pitch": 56, "duration": 4, "velocity": 95}, {"time": 1135, "pitch": 65, "duration": 3, "velocity": 102}, {"time": 1135, "pitch": 77, "duration": 3, "velocity": 97}, {"time": 1141, "pitch": 56, "duration": 1, "velocity": 100}, {"time": 1141, "pitch": 66, "duration": 1, "velocity": 127}, {"time": 1141, "pitch": 78, "duration": 1, "velocity": 81}, {"time": 1147, "pitch": 42, "duration": 16, "velocity": 127}, {"time": 1153, "pitch": 54, "duration": 8, "velocity": 90}, {"time": 1159, "pitch": 66, "duration": 3, "velocity": 102}, {"time": 1159, "pitch": 69, "duration": 5, "velocity": 122}, {"time": 1159, "pitch": 73, "duration": 6, "velocity": 127}, {"time": 1162, "pitch": 54, "duration": 3, "velocity": 86}, {"time": 1165, "pitch": 66, "duration": 1, "velocity": 99}, {"time": 1171, "pitch": 47, "duration": 17, "velocity": 73}, {"time": 1171, "pitch": 59, "duration": 8, "velocity": 99}, {"time": 1171, "pitch": 62, "duration": 8, "velocity": 100}, {"time": 1171, "pitch": 66, "duration": 8, "velocity": 100}, {"time": 1177, "pitch": 54, "duration": 8, "velocity": 74}, {"time": 1183, "pitch": 62, "duration": 7, "velocity": 122}, {"time": 1183, "pitch": 66, "duration": 8, "velocity": 127}, {"time": 1186, "pitch": 54, "duration": 2, "velocity": 71}, {"time": 1189, "pitch": 59, "duration": 4, "velocity": 102}, {"time": 1192, "pitch": 62, "duration": 1, "velocity": 90}, {"time": 1195, "pitch": 52, "duration": 12, "velocity": 99}, {"time": 1195, "pitch": 59, "duration": 7, "velocity": 100}, {"time": 1195, "pitch": 64, "duration": 6, "velocity": 102}, {"time": 1195, "pitch": 68, "duration": 6, "velocity": 102}, {"time": 1207, "pitch": 50, "duration": 5, "velocity": 90}, {"time": 1207, "pitch": 57, "duration": 5, "velocity": 102}, {"time": 1207, "pitch": 62, "duration": 5, "velocity": 99}, {"time": 1207, "pitch": 66, "duration": 6, "velocity": 102}, {"time": 1219, "pitch": 49, "duration": 13, "velocity": 93}, {"time": 1219, "pitch": 61, "duration": 7, "velocity": 107}, {"time": 1219, "pitch": 64, "duration": 6, "velocity": 97}, {"time": 1219, "pitch": 68, "duration": 6, "velocity": 100}, {"time": 1231, "pitch": 64, "duration": 6, "velocity": 112}, {"time": 1231, "pitch": 68, "duration": 6, "velocity": 127}, {"time": 1234, "pitch": 49, "duration": 1, "velocity": 112}, {"time": 1237, "pitch": 61, "duration": 1, "velocity": 99}, {"time": 1243, "pitch": 47, "duration": 13, "velocity": 90}, {"time": 1243, "pitch": 59, "duration": 8, "velocity": 99}, {"time": 1243, "pitch": 62, "duration": 9, "velocity": 102}, {"time": 1243, "pitch": 66, "duration": 9, "velocity": 107}, {"time": 1255, "pitch": 59, "duration": 2, "velocity": 100}, {"time": 1255, "pitch": 62, "duration": 2, "velocity": 122}, {"time": 1255, "pitch": 66, "duration": 3, "velocity": 127}, {"time": 1267, "pitch": 49, "duration": 12, "velocity": 107}, {"time": 1267, "pitch": 56, "duration": 10, "velocity": 97}, {"time": 1267, "pitch": 61, "duration": 8, "velocity": 112}, {"time": 1267, "pitch": 65, "duration": 5, "velocity": 117}, {"time": 1267, "pitch": 68, "duration": 5, "velocity": 112}, {"time": 1279, "pitch": 61, "duration": 2, "velocity": 85}, {"time": 1279, "pitch": 61, "duration": 2, "velocity": 112}, {"time": 1279, "pitch": 65, "duration": 11, "velocity": 117}, {"time": 1279, "pitch": 68, "duration": 11, "velocity": 117}, {"time": 1291, "pitch": 42, "duration": 44, "velocity": 97}, {"time": 1291, "pitch": 57, "duration": 7, "velocity": 93}, {"time": 1291, "pitch": 61, "duration": 10, "velocity": 117}, {"time": 1291, "pitch": 66, "duration": 11, "velocity": 95}, {"time": 1297, "pitch": 54, "duration": 41, "velocity": 95}, {"time": 1303, "pitch": 61, "duration": 34, "velocity": 102}, {"time": 1315, "pitch": 57, "duration": 22, "velocity": 56}, {"time": 1315, "pitch": 66, "duration": 23, "velocity": 23}, {"time": 1339, "pitch": 42, "duration": 13, "velocity": 93}, {"time": 1339, "pitch": 54, "duration": 13, "velocity": 85}, {"time": 1339, "pitch": 57, "duration": 9, "velocity": 89}, {"time": 1339, "pitch": 61, "duration": 10, "velocity": 100}, {"time": 1339, "pitch": 66, "duration": 10, "velocity": 96}, {"time": 1351, "pitch": 57, "duration": 2, "velocity": 85}, {"time": 1351, "pitch": 61, "duration": 2, "velocity": 102}, {"time": 1351, "pitch": 66, "duration": 2, "velocity": 90}, {"time": 1363, "pitch": 49, "duration": 14, "velocity": 82}, {"time": 1363, "pitch": 56, "duration": 13, "velocity": 78}, {"time": 1363, "pitch": 61, "duration": 8, "velocity": 99}, {"time": 1363, "pitch": 64, "duration": 7, "velocity": 96}, {"time": 1363, "pitch": 68, "duration": 7, "velocity": 95}, {"time": 1375, "pitch": 61, "duration": 2, "velocity": 97}, {"time": 1375, "pitch": 64, "duration": 2, "velocity": 95}, {"time": 1375, "pitch": 68, "duration": 3, "velocity": 107}, {"time": 1387, "pitch": 50, "duration": 14, "velocity": 76}, {"time": 1387, "pitch": 57, "duration": 12, "velocity": 79}, {"time": 1387, "pitch": 62, "duration": 7, "velocity": 99}, {"time": 1387, "pitch": 66, "duration": 7, "velocity": 107}, {"time": 1387, "pitch": 69, "duration": 7, "velocity": 92}, {"time": 1399, "pitch": 66, "duration": 6, "velocity": 117}, {"time": 1399, "pitch": 69, "duration": 6, "velocity": 90}, {"time": 1405, "pitch": 62, "duration": 1, "velocity": 85}, {"time": 1411, "pitch": 40, "duration": 13, "velocity": 71}, {"time": 1411, "pitch": 59, "duration": 8, "velocity": 93}, {"time": 1411, "pitch": 64, "duration": 9, "velocity": 93}, {"time": 1411, "pitch": 68, "duration": 9, "velocity": 86}, {"time": 1423, "pitch": 64, "duration": 2, "velocity": 99}, {"time": 1423, "pitch": 68, "duration": 2, "velocity": 100}, {"time": 1435, "pitch": 42, "duration": 15, "velocity": 97}, {"time": 1435, "pitch": 57, "duration": 7, "velocity": 82}, {"time": 1435, "pitch": 61, "duration": 8, "velocity": 100}, {"time": 1435, "pitch": 66, "duration": 8, "velocity": 90}, {"time": 1441, "pitch": 54, "duration": 9, "velocity": 93}, {"time": 1447, "pitch": 61, "duration": 3, "velocity": 99}, {"time": 1447, "pitch": 66, "duration": 3, "velocity": 89}, {"time": 1459, "pitch": 49, "duration": 16, "velocity": 86}, {"time": 1459, "pitch": 61, "duration": 9, "velocity": 99}, {"time": 1459, "pitch": 64, "duration": 5, "velocity": 93}, {"time": 1459, "pitch": 68, "duration": 6, "velocity": 96}, {"time": 1471, "pitch": 64, "duration": 6, "velocity": 93}, {"time": 1471, "pitch": 68, "duration": 7, "velocity": 107}, {"time": 1477, "pitch": 61, "duration": 1, "velocity": 74}, {"time": 1483, "pitch": 47, "duration": 13, "velocity": 65}, {"time": 1483, "pitch": 59, "duration": 8, "velocity": 92}, {"time": 1483, "pitch": 62, "duration": 9, "velocity": 93}, {"time": 1483, "pitch": 66, "duration": 9, "velocity": 93}, {"time": 1495, "pitch": 62, "duration": 8, "velocity": 97}, {"time": 1495, "pitch": 66, "duration": 6, "velocity": 96}, {"time": 1501, "pitch": 59, "duration": 4, "velocity": 66}, {"time": 1507, "pitch": 40, "duration": 22, "velocity": 69}, {"time": 1507, "pitch": 59, "duration": 5, "velocity": 92}, {"time": 1507, "pitch": 64, "duration": 4, "velocity": 95}, {"time": 1507, "pitch": 68, "duration": 4, "velocity": 95}, {"time": 1513, "pitch": 47, "duration": 8, "velocity": 54}, {"time": 1519, "pitch": 52, "duration": 7, "velocity": 76}, {"time": 1519, "pitch": 56, "duration": 6, "velocity": 74}, {"time": 1519, "pitch": 59, "duration": 7, "velocity": 73}, {"time": 1525, "pitch": 47, "duration": 7, "velocity": 53}, {"time": 1531, "pitch": 40, "duration": 23, "velocity": 69}, {"time": 1531, "pitch": 52, "duration": 24, "velocity": 66}, {"time": 1531, "pitch": 56, "duration": 23, "velocity": 72}, {"time": 1531, "pitch": 59, "duration": 24, "velocity": 66}, {"time": 1531, "pitch": 64, "duration": 24, "velocity": 66}, {"time": 1555, "pitch": 45, "duration": 14, "velocity": 82}, {"time": 1555, "pitch": 57, "duration": 7, "velocity": 96}, {"time": 1555, "pitch": 61, "duration": 10, "velocity": 99}, {"time": 1555, "pitch": 64, "duration": 7, "velocity": 90}, {"time": 1561, "pitch": 52, "duration": 9, "velocity": 50}, {"time": 1567, "pitch": 61, "duration": 7, "velocity": 127}, {"time": 1567, "pitch": 64, "duration": 7, "velocity": 96}, {"time": 1579, "pitch": 47, "duration": 14, "velocity": 69}, {"time": 1579, "pitch": 59, "duration": 8, "velocity": 78}, {"time": 1579, "pitch": 62, "duration": 8, "velocity": 79}, {"time": 1579, "pitch": 66, "duration": 8, "velocity": 86}, {"time": 1585, "pitch": 54, "duration": 7, "velocity": 38}, {"time": 1591, "pitch": 62, "duration": 3, "velocity": 93}, {"time": 1591, "pitch": 66, "duration": 4, "velocity": 93}, {"time": 1603, "pitch": 49, "duration": 15, "velocity": 58}, {"time": 1603, "pitch": 61, "duration": 9, "velocity": 93}, {"time": 1603, "pitch": 64, "duration": 5, "velocity": 86}, {"time": 1603, "pitch": 68, "duration": 6, "velocity": 90}, {"time": 1615, "pitch": 64, "duration": 4, "velocity": 96}, {"time": 1615, "pitch": 68, "duration": 4, "velocity": 100}, {"time": 1627, "pitch": 50, "duration": 3, "velocity": 61}, {"time": 1627, "pitch": 57, "duration": 3, "velocity": 70}, {"time": 1627, "pitch": 62, "duration": 5, "velocity": 83}, {"time": 1627, "pitch": 66, "duration": 5, "velocity": 96}, {"time": 1627, "pitch": 69, "duration": 5, "velocity": 82}, {"time": 1639, "pitch": 52, "duration": 3, "velocity": 72}, {"time": 1639, "pitch": 59, "duration": 2, "velocity": 69}, {"time": 1639, "pitch": 64, "duration": 4, "velocity": 85}, {"time": 1639, "pitch": 68, "duration": 4, "velocity": 112}, {"time": 1639, "pitch": 71, "duration": 3, "velocity": 89}, {"time": 1651, "pitch": 42, "duration": 16, "velocity": 69}, {"time": 1651, "pitch": 54, "duration": 13, "velocity": 57}, {"time": 1651, "pitch": 57, "duration": 7, "velocity": 82}, {"time": 1651, "pitch": 61, "duration": 7, "velocity": 97}, {"time": 1651, "pitch": 66, "duration": 7, "velocity": 82}, {"time": 1663, "pitch": 61, "duration": 6, "velocity": 107}, {"time": 1663, "pitch": 66, "duration": 5, "velocity": 99}, {"time": 1666, "pitch": 54, "duration": 2, "velocity": 58}, {"time": 1669, "pitch": 57, "duration": 1, "velocity": 76}, {"time": 1675, "pitch": 49, "duration": 16, "velocity": 56}, {"time": 1675, "pitch": 56, "duration": 12, "velocity": 73}, {"time": 1675, "pitch": 61, "duration": 7, "velocity": 100}, {"time": 1675, "pitch": 64, "duration": 6, "velocity": 86}, {"time": 1675, "pitch": 68, "duration": 6, "velocity": 86}, {"time": 1687, "pitch": 64, "duration": 5, "velocity": 95}, {"time": 1687, "pitch": 68, "duration": 6, "velocity": 102}, {"time": 1690, "pitch": 56, "duration": 2, "velocity": 82}, {"time": 1693, "pitch": 61, "duration": 1, "velocity": 100}, {"time": 1699, "pitch": 47, "duration": 17, "velocity": 69}, {"time": 1699, "pitch": 59, "duration": 6, "velocity": 89}, {"time": 1699, "pitch": 62, "duration": 5, "velocity": 86}, {"time": 1699, "pitch": 66, "duration": 6, "velocity": 86}, {"time": 1705, "pitch": 54, "duration": 7, "velocity": 50}, {"time": 1711, "pitch": 62, "duration": 4, "velocity": 100}, {"time": 1711, "pitch": 66, "duration": 6, "velocity": 117}, {"time": 1714, "pitch": 54, "duration": 2, "velocity": 54}, {"time": 1717, "pitch": 59, "duration": 1, "velocity": 78}, {"time": 1723, "pitch": 49, "duration": 16, "velocity": 37}, {"time": 1723, "pitch": 53, "duration": 16, "velocity": 56}, {"time": 1723, "pitch": 56, "duration": 13, "velocity": 72}, {"time": 1723, "pitch": 61, "duration": 8, "velocity": 95}, {"time": 1723, "pitch": 65, "duration": 6, "velocity": 96}, {"time": 1723, "pitch": 68, "duration": 6, "velocity": 92}, {"time": 1735, "pitch": 61, "duration": 1, "velocity": 69}, {"time": 1735, "pitch": 64, "duration": 1, "velocity": 79}, {"time": 1735, "pitch": 65, "duration": 6, "velocity": 99}, {"time": 1735, "pitch": 68, "duration": 6, "velocity": 122}, {"time": 1738, "pitch": 56, "duration": 2, "velocity": 76}, {"time": 1741, "pitch": 61, "duration": 1, "velocity": 92}, {"time": 1747, "pitch": 42, "duration": 17, "velocity": 95}, {"time": 1747, "pitch": 66, "duration": 4, "velocity": 102}, {"time": 1747, "pitch": 69, "duration": 1, "velocity": 92}, {"time": 1747, "pitch": 73, "duration": 3, "velocity": 95}, {"time": 1753, "pitch": 54, "duration": 7, "velocity": 86}, {"time": 1756, "pitch": 57, "duration": 4, "velocity": 67}, {"time": 1759, "pitch": 61, "duration": 6, "velocity": 117}, {"time": 1759, "pitch": 66, "duration": 6, "velocity": 122}, {"time": 1762, "pitch": 54, "duration": 2, "velocity": 99}, {"time": 1765, "pitch": 57, "duration": 1, "velocity": 95}, {"time": 1771, "pitch": 49, "duration": 16, "velocity": 96}, {"time": 1771, "pitch": 61, "duration": 5, "velocity": 122}, {"time": 1771, "pitch": 64, "duration": 5, "velocity": 93}, {"time": 1771, "pitch": 68, "duration": 5, "velocity": 95}, {"time": 1774, "pitch": 53, "duration": 13, "velocity": 58}, {"time": 1777, "pitch": 56, "duration": 6, "velocity": 97}, {"time": 1780, "pitch": 68, "duration": 9, "velocity": 117}, {"time": 1786, "pitch": 56, "duration": 3, "velocity": 67}, {"time": 1789, "pitch": 61, "duration": 1, "velocity": 90}, {"time": 1795, "pitch": 50, "duration": 17, "velocity": 63}, {"time": 1795, "pitch": 54, "duration": 16, "velocity": 66}, {"time": 1795, "pitch": 57, "duration": 12, "velocity": 69}, {"time": 1795, "pitch": 62, "duration": 10, "velocity": 90}, {"time": 1795, "pitch": 66, "duration": 7, "velocity": 99}, {"time": 1795, "pitch": 69, "duration": 10, "velocity": 82}, {"time": 1807, "pitch": 66, "duration": 6, "velocity": 127}, {"time": 1807, "pitch": 69, "duration": 6, "velocity": 93}, {"time": 1810, "pitch": 57, "duration": 1, "velocity": 56}, {"time": 1813, "pitch": 62, "duration": 1, "velocity": 96}, {"time": 1819, "pitch": 45, "duration": 17, "velocity": 72}, {"time": 1819, "pitch": 57, "duration": 8, "velocity": 92}, {"time": 1819, "pitch": 61, "duration": 9, "velocity": 93}, {"time": 1819, "pitch": 64, "duration": 9, "velocity": 83}, {"time": 1825, "pitch": 52, "duration": 7, "velocity": 77}, {"time": 1831, "pitch": 61, "duration": 6, "velocity": 127}, {"time": 1831, "pitch": 64, "duration": 5, "velocity": 97}, {"time": 1834, "pitch": 52, "duration": 2, "velocity": 72}, {"time": 1837, "pitch": 57, "duration": 2, "velocity": 93}, {"time": 1843, "pitch": 44, "duration": 14, "velocity": 97}, {"time": 1843, "pitch": 56, "duration": 11, "velocity": 122}, {"time": 1843, "pitch": 59, "duration": 11, "velocity": 99}, {"time": 1843, "pitch": 62, "duration": 7, "velocity": 92}, {"time": 1855, "pitch": 56, "duration": 2, "velocity": 107}, {"time": 1855, "pitch": 59, "duration": 2, "velocity": 89}, {"time": 1855, "pitch": 62, "duration": 2, "velocity": 89}, {"time": 1867, "pitch": 49, "duration": 14, "velocity": 58}, {"time": 1867, "pitch": 56, "duration": 13, "velocity": 93}, {"time": 1867, "pitch": 61, "duration": 8, "velocity": 102}, {"time": 1867, "pitch": 65, "duration": 6, "velocity": 102}, {"time": 1867, "pitch": 68, "duration": 7, "velocity": 97}, {"time": 1876, "pitch": 53, "duration": 3, "velocity": 35}, {"time": 1879, "pitch": 61, "duration": 3, "velocity": 97}, {"time": 1879, "pitch": 65, "duration": 4, "velocity": 122}, {"time": 1879, "pitch": 68, "duration": 4, "velocity": 100}, {"time": 1891, "pitch": 42, "duration": 17, "velocity": 100}, {"time": 1891, "pitch": 57, "duration": 7, "velocity": 96}, {"time": 1891, "pitch": 61, "duration": 7, "velocity": 112}, {"time": 1891, "pitch": 66, "duration": 7, "velocity": 93}, {"time": 1897, "pitch": 54, "duration": 7, "velocity": 90}, {"time": 1903, "pitch": 61, "duration": 7, "velocity": 127}, {"time": 1903, "pitch": 66, "duration": 8, "velocity": 112}, {"time": 1906, "pitch": 54, "duration": 2, "velocity": 93}, {"time": 1909, "pitch": 57, "duration": 5, "velocity": 100}, {"time": 1912, "pitch": 61, "duration": 2, "velocity": 102}, {"time": 1915, "pitch": 50, "duration": 16, "velocity": 85}, {"time": 1915, "pitch": 57, "duration": 9, "velocity": 88}, {"time": 1915, "pitch": 62, "duration": 10, "velocity": 97}, {"time": 1915, "pitch": 66, "duration": 10, "velocity": 99}, {"time": 1927, "pitch": 57, "duration": 9, "velocity": 88}, {"time": 1927, "pitch": 62, "duration": 6, "velocity": 99}, {"time": 1927, "pitch": 66, "duration": 6, "velocity": 102}, {"time": 1933, "pitch": 50, "duration": 6, "velocity": 77}, {"time": 1939, "pitch": 45, "duration": 20, "velocity": 72}, {"time": 1939, "pitch": 57, "duration": 9, "velocity": 96}, {"time": 1939, "pitch": 61, "duration": 10, "velocity": 107}, {"time": 1939, "pitch": 64, "duration": 9, "velocity": 89}, {"time": 1951, "pitch": 57, "duration": 8, "velocity": 93}, {"time": 1951, "pitch": 61, "duration": 6, "velocity": 117}, {"time": 1951, "pitch": 64, "duration": 6, "velocity": 95}, {"time": 1957, "pitch": 52, "duration": 7, "velocity": 54}, {"time": 1963, "pitch": 47, "duration": 23, "velocity": 82}, {"time": 1963, "pitch": 59, "duration": 8, "velocity": 89}, {"time": 1963, "pitch": 62, "duration": 6, "velocity": 102}, {"time": 1963, "pitch": 66, "duration": 7, "velocity": 99}, {"time": 1969, "pitch": 54, "duration": 10, "velocity": 42}, {"time": 1975, "pitch": 59, "duration": 6, "velocity": 92}, {"time": 1975, "pitch": 62, "duration": 5, "velocity": 100}, {"time": 1975, "pitch": 66, "duration": 6, "velocity": 107}, {"time": 1981, "pitch": 54, "duration": 7, "velocity": 66}, {"time": 1987, "pitch": 49, "duration": 18, "velocity": 77}, {"time": 1987, "pitch": 61, "duration": 10, "velocity": 100}, {"time": 1987, "pitch": 65, "duration": 7, "velocity": 99}, {"time": 1987, "pitch": 68, "duration": 7, "velocity": 95}, {"time": 1999, "pitch": 61, "duration": 10, "velocity": 95}, {"time": 1999, "pitch": 65, "duration": 8, "velocity": 99}, {"time": 1999, "pitch": 68, "duration": 9, "velocity": 100}, {"time": 2011, "pitch": 49, "duration": 11, "velocity": 72}, {"time": 2011, "pitch": 56, "duration": 11, "velocity": 75}, {"time": 2011, "pitch": 61, "duration": 11, "velocity": 97}, {"time": 2011, "pitch": 65, "duration": 10, "velocity": 100}, {"time": 2011, "pitch": 68, "duration": 11, "velocity": 89}, {"time": 2011, "pitch": 73, "duration": 10, "velocity": 89}, {"time": 2035, "pitch": 42, "duration": 16, "velocity": 107}, {"time": 2035, "pitch": 54, "duration": 7, "velocity": 93}, {"time": 2035, "pitch": 57, "duration": 10, "velocity": 102}, {"time": 2035, "pitch": 61, "duration": 10, "velocity": 127}, {"time": 2035, "pitch": 66, "duration": 10, "velocity": 127}, {"time": 2044, "pitch": 54, "duration": 4, "velocity": 63}, {"time": 2047, "pitch": 61, "duration": 6, "velocity": 127}, {"time": 2047, "pitch": 66, "duration": 6, "velocity": 127}, {"time": 2050, "pitch": 54, "duration": 3, "velocity": 97}, {"time": 2053, "pitch": 57, "duration": 2, "velocity": 112}, {"time": 2059, "pitch": 47, "duration": 17, "velocity": 78}, {"time": 2059, "pitch": 59, "duration": 7, "velocity": 117}, {"time": 2059, "pitch": 62, "duration": 7, "velocity": 127}, {"time": 2059, "pitch": 66, "duration": 7, "velocity": 127}, {"time": 2065, "pitch": 54, "duration": 7, "velocity": 76}, {"time": 2068, "pitch": 62, "duration": 8, "velocity": 122}, {"time": 2068, "pitch": 66, "duration": 11, "velocity": 127}, {"time": 2074, "pitch": 54, "duration": 2, "velocity": 85}, {"time": 2077, "pitch": 59, "duration": 4, "velocity": 122}, {"time": 2080, "pitch": 62, "duration": 2, "velocity": 81}, {"time": 2083, "pitch": 40, "duration": 16, "velocity": 89}, {"time": 2083, "pitch": 59, "duration": 9, "velocity": 102}, {"time": 2083, "pitch": 64, "duration": 10, "velocity": 107}, {"time": 2083, "pitch": 68, "duration": 10, "velocity": 117}, {"time": 2089, "pitch": 47, "duration": 7, "velocity": 52}, {"time": 2095, "pitch": 64, "duration": 5, "velocity": 127}, {"time": 2095, "pitch": 68, "duration": 5, "velocity": 127}, {"time": 2098, "pitch": 47, "duration": 2, "velocity": 66}, {"time": 2101, "pitch": 59, "duration": 2, "velocity": 83}, {"time": 2107, "pitch": 45, "duration": 18, "velocity": 89}, {"time": 2107, "pitch": 57, "duration": 1, "velocity": 100}, {"time": 2107, "pitch": 61, "duration": 1, "velocity": 122}, {"time": 2107, "pitch": 64, "duration": 1, "velocity": 93}, {"time": 2110, "pitch": 52, "duration": 15, "velocity": 69}, {"time": 2113, "pitch": 57, "duration": 8, "velocity": 96}, {"time": 2116, "pitch": 64, "duration": 2, "velocity": 88}, {"time": 2119, "pitch": 64, "duration": 1, "velocity": 36}, {"time": 2119, "pitch": 73, "duration": 5, "velocity": 127}, {"time": 2122, "pitch": 57, "duration": 6, "velocity": 70}, {"time": 2122, "pitch": 69, "duration": 3, "velocity": 95}, {"time": 2125, "pitch": 64, "duration": 1, "velocity": 102}, {"time": 2131, "pitch": 50, "duration": 17, "velocity": 88}, {"time": 2131, "pitch": 57, "duration": 13, "velocity": 99}, {"time": 2131, "pitch": 62, "duration": 8, "velocity": 102}, {"time": 2131, "pitch": 66, "duration": 7, "velocity": 117}, {"time": 2131, "pitch": 69, "duration": 8, "velocity": 95}, {"time": 2140, "pitch": 54, "duration": 6, "velocity": 38}, {"time": 2143, "pitch": 62, "duration": 3, "velocity": 99}, {"time": 2143, "pitch": 66, "duration": 6, "velocity": 127}, {"time": 2143, "pitch": 69, "duration": 6, "velocity": 102}, {"time": 2146, "pitch": 57, "duration": 2, "velocity": 83}, {"time": 2149, "pitch": 62, "duration": 2, "velocity": 107}, {"time": 2155, "pitch": 47, "duration": 18, "velocity": 72}, {"time": 2155, "pitch": 59, "duration": 7, "velocity": 102}, {"time": 2155, "pitch": 62, "duration": 6, "velocity": 102}, {"time": 2155, "pitch": 66, "duration": 7, "velocity": 117}, {"time": 2161, "pitch": 54, "duration": 8, "velocity": 60}, {"time": 2167, "pitch": 62, "duration": 6, "velocity": 122}, {"time": 2167, "pitch": 66, "duration": 7, "velocity": 127}, {"time": 2170, "pitch": 54, "duration": 2, "velocity": 56}, {"time": 2173, "pitch": 59, "duration": 1, "velocity": 99}, {"time": 2179, "pitch": 49, "duration": 21, "velocity": 99}, {"time": 2179, "pitch": 56, "duration": 15, "velocity": 99}, {"time": 2179, "pitch": 61, "duration": 9, "velocity": 117}, {"time": 2179, "pitch": 65, "duration": 6, "velocity": 122}, {"time": 2179, "pitch": 68, "duration": 6, "velocity": 112}, {"time": 2188, "pitch": 53, "duration": 13, "velocity": 22}, {"time": 2191, "pitch": 61, "duration": 3, "velocity": 127}, {"time": 2191, "pitch": 65, "duration": 1, "velocity": 127}, {"time": 2191, "pitch": 68, "duration": 3, "velocity": 127}, {"time": 2197, "pitch": 56, "duration": 4, "velocity": 49}, {"time": 2203, "pitch": 49, "duration": 19, "velocity": 127}, {"time": 2203, "pitch": 56, "duration": 8, "velocity": 117}, {"time": 2203, "pitch": 61, "duration": 2, "velocity": 127}, {"time": 2203, "pitch": 73, "duration": 2, "velocity": 97}, {"time": 2209, "pitch": 53, "duration": 12, "velocity": 45}, {"time": 2209, "pitch": 63, "duration": 2, "velocity": 117}, {"time": 2209, "pitch": 75, "duration": 1, "velocity": 95}, {"time": 2215, "pitch": 56, "duration": 4, "velocity": 95}, {"time": 2215, "pitch": 65, "duration": 3, "velocity": 102}, {"time": 2215, "pitch": 77, "duration": 3, "velocity": 97}, {"time": 2221, "pitch": 56, "duration": 1, "velocity": 100}, {"time": 2221, "pitch": 66, "duration": 1, "velocity": 127}, {"time": 2221, "pitch": 78, "duration": 1, "velocity": 81}, {"time": 2227, "pitch": 42, "duration": 16, "velocity": 127}, {"time": 2233, "pitch": 54, "duration": 8, "velocity": 90}, {"time": 2239, "pitch": 66, "duration": 3, "velocity": 102}, {"time": 2239, "pitch": 69, "duration": 5, "velocity": 122}, {"time": 2239, "pitch": 73, "duration": 6, "velocity": 127}, {"time": 2242, "pitch": 54, "duration": 3, "velocity": 86}, {"time": 2245, "pitch": 66, "duration": 1, "velocity": 99}, {"time": 2251, "pitch": 47, "duration": 17, "velocity": 73}, {"time": 2251, "pitch": 59, "duration": 8, "velocity": 99}, {"time": 2251, "pitch": 62, "duration": 8, "velocity": 100}, {"time": 2251, "pitch": 66, "duration": 8, "velocity": 100}, {"time": 2257, "pitch": 54, "duration": 8, "velocity": 74}, {"time": 2263, "pitch": 62, "duration": 7, "velocity": 122}, {"time": 2263, "pitch": 66, "duration": 8, "velocity": 127}, {"time": 2266, "pitch": 54, "duration": 2, "velocity": 71}, {"time": 2269, "pitch": 59, "duration": 4, "velocity": 102}, {"time": 2272, "pitch": 62, "duration": 1, "velocity": 90}, {"time": 2275, "pitch": 52, "duration": 10, "velocity": 99}, {"time": 2275, "pitch": 59, "duration": 7, "velocity": 100}, {"time": 2275, "pitch": 64, "duration": 6, "velocity": 102}, {"time": 2275, "pitch": 68, "duration": 6, "velocity": 102}, {"time": 2287, "pitch": 50, "duration": 5, "velocity": 90}, {"time": 2287, "pitch": 57, "duration": 5, "velocity": 102}, {"time": 2287, "pitch": 62, "duration": 5, "velocity": 99}, {"time": 2287, "pitch": 66, "duration": 6, "velocity": 102}, {"time": 2299, "pitch": 49, "duration": 13, "velocity": 93}, {"time": 2299, "pitch": 61, "duration": 7, "velocity": 107}, {"time": 2299, "pitch": 64, "duration": 6, "velocity": 97}, {"time": 2299, "pitch": 68, "duration": 6, "velocity": 100}, {"time": 2311, "pitch": 64, "duration": 6, "velocity": 112}, {"time": 2311, "pitch": 68, "duration": 6, "velocity": 127}, {"time": 2314, "pitch": 49, "duration": 1, "velocity": 112}, {"time": 2317, "pitch": 61, "duration": 1, "velocity": 99}, {"time": 2323, "pitch": 47, "duration": 13, "velocity": 90}, {"time": 2323, "pitch": 59, "duration": 8, "velocity": 99}, {"time": 2323, "pitch": 62, "duration": 9, "velocity": 102}, {"time": 2323, "pitch": 66, "duration": 9, "velocity": 107}, {"time": 2335, "pitch": 59, "duration": 2, "velocity": 100}, {"time": 2335, "pitch": 62, "duration": 2, "velocity": 122}, {"time": 2335, "pitch": 66, "duration": 3, "velocity": 127}, {"time": 2347, "pitch": 37, "duration": 12, "velocity": 82}, {"time": 2347, "pitch": 49, "duration": 14, "velocity": 70}, {"time": 2347, "pitch": 61, "duration": 7, "velocity": 102}, {"time": 2347, "pitch": 65, "duration": 2, "velocity": 99}, {"time": 2347, "pitch": 68, "duration": 5, "velocity": 95}, {"time": 2350, "pitch": 65, "duration": 2, "velocity": 26}, {"time": 2359, "pitch": 61, "duration": 2, "velocity": 99}, {"time": 2359, "pitch": 65, "duration": 1, "velocity": 102}, {"time": 2359, "pitch": 68, "duration": 2, "velocity": 107}, {"time": 2371, "pitch": 42, "duration": 23, "velocity": 117}, {"time": 2371, "pitch": 57, "duration": 9, "velocity": 97}, {"time": 2371, "pitch": 61, "duration": 10, "velocity": 122}, {"time": 2377, "pitch": 54, "duration": 15, "velocity": 35}, {"time": 2383, "pitch": 57, "duration": 10, "velocity": 82}, {"time": 2383, "pitch": 61, "duration": 11, "velocity": 90}, {"time": 2395, "pitch": 42, "duration": 11, "velocity": 92}, {"time": 2395, "pitch": 54, "duration": 11, "velocity": 75}, {"time": 2395, "pitch": 57, "duration": 5, "velocity": 86}, {"time": 2395, "pitch": 61, "duration": 5, "velocity": 100}, {"time": 2395, "pitch": 66, "duration": 5, "velocity": 92}, {"time": 2401, "pitch": 57, "duration": 4, "velocity": 75}, {"time": 2401, "pitch": 61, "duration": 4, "velocity": 79}, {"time": 2401, "pitch": 66, "duration": 4, "velocity": 83}, {"time": 2407, "pitch": 42, "duration": 4, "velocity": 97}, {"time": 2407, "pitch": 54, "duration": 6, "velocity": 72}, {"time": 2407, "pitch": 57, "duration": 5, "velocity": 117}, {"time": 2407, "pitch": 61, "duration": 5, "velocity": 127}, {"time": 2407, "pitch": 66, "duration": 5, "velocity": 127}, {"time": 2413, "pitch": 57, "duration": 4, "velocity": 95}, {"time": 2413, "pitch": 61, "duration": 5, "velocity": 127}, {"time": 2413, "pitch": 66, "duration": 4, "velocity": 102}, {"time": 2419, "pitch": 47, "duration": 14, "velocity": 77}, {"time": 2419, "pitch": 59, "duration": 10, "velocity": 117}, {"time": 2419, "pitch": 62, "duration": 10, "velocity": 127}, {"time": 2419, "pitch": 66, "duration": 10, "velocity": 122}, {"time": 2425, "pitch": 54, "duration": 8, "velocity": 61}, {"time": 2431, "pitch": 62, "duration": 6, "velocity": 117}, {"time": 2431, "pitch": 66, "duration": 6, "velocity": 127}, {"time": 2437, "pitch": 59, "duration": 4, "velocity": 96}, {"time": 2443, "pitch": 40, "duration": 18, "velocity": 57}, {"time": 2443, "pitch": 59, "duration": 7, "velocity": 102}, {"time": 2443, "pitch": 64, "duration": 7, "velocity": 102}, {"time": 2443, "pitch": 68, "duration": 7, "velocity": 117}, {"time": 2449, "pitch": 47, "duration": 13, "velocity": 60}, {"time": 2455, "pitch": 59, "duration": 8, "velocity": 99}, {"time": 2455, "pitch": 64, "duration": 5, "velocity": 127}, {"time": 2455, "pitch": 68, "duration": 5, "velocity": 122}, {"time": 2461, "pitch": 52, "duration": 6, "velocity": 66}, {"time": 2467, "pitch": 45, "duration": 13, "velocity": 77}, {"time": 2467, "pitch": 57, "duration": 10, "velocity": 102}, {"time": 2467, "pitch": 61, "duration": 10, "velocity": 127}, {"time": 2467, "pitch": 64, "duration": 9, "velocity": 99}, {"time": 2473, "pitch": 52, "duration": 6, "velocity": 53}, {"time": 2479, "pitch": 61, "duration": 6, "velocity": 127}, {"time": 2479, "pitch": 64, "duration": 5, "velocity": 100}, {"time": 2485, "pitch": 57, "duration": 1, "velocity": 96}, {"time": 2491, "pitch": 42, "duration": 14, "velocity": 97}, {"time": 2491, "pitch": 54, "duration": 6, "velocity": 117}, {"time": 2491, "pitch": 58, "duration": 5, "velocity": 122}, {"time": 2491, "pitch": 61, "duration": 5, "velocity": 112}, {"time": 2503, "pitch": 49, "duration": 7, "velocity": 97}, {"time": 2503, "pitch": 54, "duration": 6, "velocity": 127}, {"time": 2503, "pitch": 66, "duration": 6, "velocity": 97}, {"time": 2509, "pitch": 58, "duration": 6, "velocity": 127}, {"time": 2509, "pitch": 70, "duration": 1, "velocity": 72}, {"time": 2515, "pitch": 47, "duration": 17, "velocity": 77}, {"time": 2515, "pitch": 59, "duration": 11, "velocity": 107}, {"time": 2515, "pitch": 62, "duration": 11, "velocity": 127}, {"time": 2515, "pitch": 66, "duration": 10, "velocity": 112}, {"time": 2521, "pitch": 54, "duration": 12, "velocity": 48}, {"time": 2527, "pitch": 59, "duration": 10, "velocity": 90}, {"time": 2527, "pitch": 62, "duration": 10, "velocity": 107}, {"time": 2527, "pitch": 66, "duration": 10, "velocity": 102}, {"time": 2539, "pitch": 47, "duration": 14, "velocity": 65}, {"time": 2539, "pitch": 54, "duration": 14, "velocity": 88}, {"time": 2539, "pitch": 59, "duration": 10, "velocity": 99}, {"time": 2539, "pitch": 62, "duration": 10, "velocity": 102}, {"time": 2539, "pitch": 66, "duration": 10, "velocity": 117}, {"time": 2551, "pitch": 59, "duration": 5, "velocity": 102}, {"time": 2551, "pitch": 62, "duration": 4, "velocity": 107}, {"time": 2551, "pitch": 66, "duration": 5, "velocity": 117}, {"time": 2563, "pitch": 37, "duration": 23, "velocity": 96}, {"time": 2563, "pitch": 49, "duration": 23, "velocity": 88}, {"time": 2563, "pitch": 61, "duration": 11, "velocity": 122}, {"time": 2563, "pitch": 65, "duration": 10, "velocity": 127}, {"time": 2563, "pitch": 68, "duration": 10, "velocity": 112}, {"time": 2575, "pitch": 61, "duration": 11, "velocity": 75}, {"time": 2575, "pitch": 65, "duration": 11, "velocity": 89}, {"time": 2575, "pitch": 68, "duration": 7, "velocity": 95}, {"time": 2587, "pitch": 37, "duration": 6, "velocity": 96}, {"time": 2587, "pitch": 49, "duration": 5, "velocity": 82}, {"time": 2587, "pitch": 61, "duration": 5, "velocity": 122}, {"time": 2587, "pitch": 65, "duration": 5, "velocity": 122}, {"time": 2587, "pitch": 68, "duration": 5, "velocity": 117}, {"time": 2611, "pitch": 42, "duration": 16, "velocity": 107}, {"time": 2611, "pitch": 54, "duration": 7, "velocity": 93}, {"time": 2611, "pitch": 57, "duration": 10, "velocity": 102}, {"time": 2611, "pitch": 61, "duration": 10, "velocity": 127}, {"time": 2611, "pitch": 66, "duration": 10, "velocity": 127}, {"time": 2620, "pitch": 54, "duration": 4, "velocity": 63}, {"time": 2623, "pitch": 61, "duration": 6, "velocity": 127}, {"time": 2623, "pitch": 66, "duration": 6, "velocity": 127}, {"time": 2626, "pitch": 54, "duration": 3, "velocity": 97}, {"time": 2629, "pitch": 57, "duration": 2, "velocity": 112}, {"time": 2635, "pitch": 47, "duration": 17, "velocity": 78}, {"time": 2635, "pitch": 59, "duration": 7, "velocity": 117}, {"time": 2635, "pitch": 62, "duration": 7, "velocity": 127}, {"time": 2635, "pitch": 66, "duration": 7, "velocity": 127}, {"time": 2641, "pitch": 54, "duration": 7, "velocity": 76}, {"time": 2644, "pitch": 62, "duration": 8, "velocity": 122}, {"time": 2644, "pitch": 66, "duration": 11, "velocity": 127}, {"time": 2650, "pitch": 54, "duration": 2, "velocity": 85}, {"time": 2653, "pitch": 59, "duration": 4, "velocity": 122}, {"time": 2656, "pitch": 62, "duration": 2, "velocity": 81}, {"time": 2659, "pitch": 40, "duration": 16, "velocity": 89}, {"time": 2659, "pitch": 59, "duration": 9, "velocity": 102}, {"time": 2659, "pitch": 64, "duration": 10, "velocity": 107}, {"time": 2659, "pitch": 68, "duration": 10, "velocity": 117}, {"time": 2665, "pitch": 47, "duration": 7, "velocity": 52}, {"time": 2671, "pitch": 64, "duration": 5, "velocity": 127}, {"time": 2671, "pitch": 68, "duration": 5, "velocity": 127}, {"time": 2674, "pitch": 47, "duration": 2, "velocity": 66}, {"time": 2677, "pitch": 59, "duration": 2, "velocity": 83}, {"time": 2683, "pitch": 45, "duration": 18, "velocity": 89}, {"time": 2683, "pitch": 57, "duration": 1, "velocity": 100}, {"time": 2683, "pitch": 61, "duration": 1, "velocity": 122}, {"time": 2683, "pitch": 64, "duration": 1, "velocity": 93}, {"time": 2686, "pitch": 52, "duration": 15, "velocity": 69}, {"time": 2689, "pitch": 57, "duration": 8, "velocity": 96}, {"time": 2692, "pitch": 64, "duration": 2, "velocity": 88}, {"time": 2695, "pitch": 64, "duration": 1, "velocity": 36}, {"time": 2695, "pitch": 73, "duration": 5, "velocity": 127}, {"time": 2698, "pitch": 57, "duration": 6, "velocity": 70}, {"time": 2698, "pitch": 69, "duration": 3, "velocity": 95}, {"time": 2701, "pitch": 64, "duration": 1, "velocity": 102}, {"time": 2707, "pitch": 50, "duration": 17, "velocity": 88}, {"time": 2707, "pitch": 57, "duration": 13, "velocity": 99}, {"time": 2707, "pitch": 62, "duration": 8, "velocity": 102}, {"time": 2707, "pitch": 66, "duration": 7, "velocity": 117}, {"time": 2707, "pitch": 69, "duration": 8, "velocity": 95}, {"time": 2716, "pitch": 54, "duration": 6, "velocity": 38}, {"time": 2719, "pitch": 62, "duration": 3, "velocity": 99}, {"time": 2719, "pitch": 66, "duration": 6, "velocity": 127}, {"time": 2719, "pitch": 69, "duration": 6, "velocity": 102}, {"time": 2722, "pitch": 57, "duration": 2, "velocity": 83}, {"time": 2725, "pitch": 62, "duration": 2, "velocity": 107}, {"time": 2731, "pitch": 47, "duration": 18, "velocity": 72}, {"time": 2731, "pitch": 59, "duration": 7, "velocity": 102}, {"time": 2731, "pitch": 62, "duration": 6, "velocity": 102}, {"time": 2731, "pitch": 66, "duration": 7, "velocity": 117}, {"time": 2737, "pitch": 54, "duration": 8, "velocity": 60}, {"time": 2743, "pitch": 62, "duration": 6, "velocity": 122}, {"time": 2743, "pitch": 66, "duration": 7, "velocity": 127}, {"time": 2746, "pitch": 54, "duration": 2, "velocity": 56}, {"time": 2749, "pitch": 59, "duration": 1, "velocity": 99}, {"time": 2755, "pitch": 49, "duration": 21, "velocity": 99}, {"time": 2755, "pitch": 56, "duration": 15, "velocity": 99}, {"time": 2755, "pitch": 61, "duration": 9, "velocity": 117}, {"time": 2755, "pitch": 65, "duration": 6, "velocity": 122}, {"time": 2755, "pitch": 68, "duration": 6, "velocity": 112}, {"time": 2764, "pitch": 53, "duration": 13, "velocity": 22}, {"time": 2767, "pitch": 61, "duration": 3, "velocity": 127}, {"time": 2767, "pitch": 65, "duration": 1, "velocity": 127}, {"time": 2767, "pitch": 68, "duration": 3, "velocity": 127}, {"time": 2773, "pitch": 56, "duration": 4, "velocity": 49}, {"time": 2779, "pitch": 49, "duration": 19, "velocity": 127}, {"time": 2779, "pitch": 56, "duration": 8, "velocity": 117}, {"time": 2779, "pitch": 61, "duration": 2, "velocity": 127}, {"time": 2779, "pitch": 73, "duration": 2, "velocity": 97}, {"time": 2785, "pitch": 53, "duration": 12, "velocity": 45}, {"time": 2785, "pitch": 63, "duration": 2, "velocity": 117}, {"time": 2785, "pitch": 75, "duration": 1, "velocity": 95}, {"time": 2791, "pitch": 56, "duration": 4, "velocity": 95}, {"time": 2791, "pitch": 65, "duration": 3, "velocity": 102}, {"time": 2791, "pitch": 77, "duration": 3, "velocity": 97}, {"time": 2797, "pitch": 56, "duration": 1, "velocity": 100}, {"time": 2797, "pitch": 66, "duration": 1, "velocity": 127}, {"time": 2797, "pitch": 78, "duration": 1, "velocity": 81}, {"time": 2803, "pitch": 42, "duration": 16, "velocity": 127}, {"time": 2809, "pitch": 54, "duration": 8, "velocity": 90}, {"time": 2815, "pitch": 66, "duration": 3, "velocity": 102}, {"time": 2815, "pitch": 69, "duration": 5, "velocity": 122}, {"time": 2815, "pitch": 73, "duration": 6, "velocity": 127}, {"time": 2818, "pitch": 54, "duration": 3, "velocity": 86}, {"time": 2821, "pitch": 66, "duration": 1, "velocity": 99}, {"time": 2827, "pitch": 47, "duration": 17, "velocity": 73}, {"time": 2827, "pitch": 59, "duration": 8, "velocity": 99}, {"time": 2827, "pitch": 62, "duration": 8, "velocity": 100}, {"time": 2827, "pitch": 66, "duration": 8, "velocity": 100}, {"time": 2833, "pitch": 54, "duration": 8, "velocity": 74}, {"time": 2839, "pitch": 62, "duration": 7, "velocity": 122}, {"time": 2839, "pitch": 66, "duration": 8, "velocity": 127}, {"time": 2842, "pitch": 54, "duration": 2, "velocity": 71}, {"time": 2845, "pitch": 59, "duration": 4, "velocity": 102}, {"time": 2848, "pitch": 62, "duration": 1, "velocity": 90}, {"time": 2851, "pitch": 52, "duration": 10, "velocity": 99}, {"time": 2851, "pitch": 59, "duration": 7, "velocity": 100}, {"time": 2851, "pitch": 64, "duration": 6, "velocity": 102}, {"time": 2851, "pitch": 68, "duration": 6, "velocity": 102}, {"time": 2863, "pitch": 50, "duration": 5, "velocity": 90}, {"time": 2863, "pitch": 57, "duration": 5, "velocity": 102}, {"time": 2863, "pitch": 62, "duration": 5, "velocity": 99}, {"time": 2863, "pitch": 66, "duration": 6, "velocity": 102}, {"time": 2875, "pitch": 49, "duration": 13, "velocity": 93}, {"time": 2875, "pitch": 61, "duration": 7, "velocity": 107}, {"time": 2875, "pitch": 64, "duration": 6, "velocity": 97}, {"time": 2875, "pitch": 68, "duration": 6, "velocity": 100}, {"time": 2887, "pitch": 64, "duration": 6, "velocity": 112}, {"time": 2887, "pitch": 68, "duration": 6, "velocity": 127}, {"time": 2890, "pitch": 49, "duration": 1, "velocity": 112}, {"time": 2893, "pitch": 61, "duration": 1, "velocity": 99}, {"time": 2899, "pitch": 47, "duration": 13, "velocity": 90}, {"time": 2899, "pitch": 59, "duration": 8, "velocity": 99}, {"time": 2899, "pitch": 62, "duration": 9, "velocity": 102}, {"time": 2899, "pitch": 66, "duration": 9, "velocity": 107}, {"time": 2911, "pitch": 59, "duration": 2, "velocity": 100}, {"time": 2911, "pitch": 62, "duration": 2, "velocity": 122}, {"time": 2911, "pitch": 66, "duration": 3, "velocity": 127}, {"time": 2923, "pitch": 37, "duration": 12, "velocity": 82}, {"time": 2923, "pitch": 49, "duration": 14, "velocity": 70}, {"time": 2923, "pitch": 61, "duration": 7, "velocity": 102}, {"time": 2923, "pitch": 65, "duration": 2, "velocity": 99}, {"time": 2923, "pitch": 68, "duration": 5, "velocity": 95}, {"time": 2926, "pitch": 65, "duration": 2, "velocity": 26}, {"time": 2935, "pitch": 61, "duration": 2, "velocity": 99}, {"time": 2935, "pitch": 65, "duration": 1, "velocity": 102}, {"time": 2935, "pitch": 68, "duration": 2, "velocity": 107}, {"time": 2947, "pitch": 42, "duration": 40, "velocity": 76}, {"time": 2947, "pitch": 54, "duration": 42, "velocity": 73}, {"time": 2947, "pitch": 57, "duration": 11, "velocity": 97}, {"time": 2947, "pitch": 61, "duration": 11, "velocity": 122}, {"time": 2947, "pitch": 66, "duration": 11, "velocity": 97}, {"time": 2959, "pitch": 57, "duration": 10, "velocity": 72}, {"time": 2959, "pitch": 61, "duration": 11, "velocity": 122}, {"time": 2959, "pitch": 66, "duration": 11, "velocity": 117}, {"time": 2971, "pitch": 57, "duration": 10, "velocity": 74}, {"time": 2971, "pitch": 61, "duration": 10, "velocity": 77}, {"time": 2971, "pitch": 66, "duration": 10, "velocity": 72}, {"time": 2983, "pitch": 57, "duration": 8, "velocity": 92}, {"time": 2983, "pitch": 61, "duration": 8, "velocity": 127}, {"time": 2983, "pitch": 66, "duration": 10, "velocity": 122}, {"time": 2995, "pitch": 47, "duration": 24, "velocity": 72}, {"time": 2995, "pitch": 59, "duration": 24, "velocity": 97}, {"time": 2995, "pitch": 62, "duration": 24, "velocity": 102}, {"time": 2995, "pitch": 66, "duration": 25, "velocity": 102}, {"time": 3019, "pitch": 49, "duration": 19, "velocity": 76}, {"time": 3019, "pitch": 61, "duration": 18, "velocity": 100}, {"time": 3019, "pitch": 37, "duration": 16, "velocity": 85}, {"time": 3019, "pitch": 65, "duration": 16, "velocity": 93}, {"time": 3019, "pitch": 68, "duration": 18, "velocity": 96}, {"time": 3052, "pitch": 42, "duration": 54, "velocity": 99}, {"time": 3057, "pitch": 54, "duration": 50, "velocity": 100}, {"time": 3063, "pitch": 57, "duration": 6, "velocity": 100}, {"time": 3068, "pitch": 61, "duration": 6, "velocity": 117}, {"time": 3073, "pitch": 66, "duration": 2, "velocity": 100}, {"time": 3079, "pitch": 68, "duration": 1, "velocity": 127}, {"time": 3084, "pitch": 69, "duration": 2, "velocity": 95}, {"time": 3089, "pitch": 73, "duration": 2, "velocity": 117}, {"time": 3095, "pitch": 78, "duration": 1, "velocity": 100}, {"time": 3101, "pitch": 80, "duration": 1, "velocity": 107}, {"time": 3108, "pitch": 42, "duration": 46, "velocity": 56}, {"time": 3109, "pitch": 54, "duration": 45, "velocity": 59}, {"time": 3110, "pitch": 66, "duration": 44, "velocity": 68}, {"time": 3110, "pitch": 69, "duration": 44, "velocity": 55}, {"time": 3110, "pitch": 73, "duration": 44, "velocity": 42}, {"time": 3112, "pitch": 78, "duration": 42, "velocity": 92}], "annotations": [{"time": 0, "annotation": {"number": 0, "value": 0}, "group": "control_change"}, {"time": 0, "annotation": {"number": 32, "value": 63}, "group": "control_change"}, {"time": 16, "annotation": {"number": 64, "value": 127}, "group": "control_change"}, {"time": 44, "annotation": {"number": 64, "value": 0}, "group": "control_change"}, {"time": 48, "annotation": {"number": 64, "value": 127}, "group": "control_change"}, {"time": 66, "annotation": {"number": 64, "value": 0}, "group": "control_change"}, {"time": 67, "annotation": {"number": 64, "value": 127}, "group": "control_change"}, {"time": 90, "annotation": {"number": 64, "value": 0}, "group": "control_change"}, {"time": 90, "annotation": {"number": 64, "value": 127}, "group": "control_change"}, {"time": 113, "annotation": {"number": 64, "value": 0}, "group": "control_change"}, {"time": 115, "annotation": {"number": 64, "value": 127}, "group": "control_change"}, {"time": 137, "annotation": {"number": 64, "value": 0}, "group": "control_change"}, {"time": 139, "annotation": {"number": 64, "value": 127}, "group": "control_change"}, {"time": 161, "annotation": {"number": 64, "value": 0}, "group": "control_change"}, {"time": 163, "annotation": {"number": 64, "value": 127}, "group": "control_change"}, {"time": 184, "annotation": {"number": 64, "value": 0}, "group": "control_change"}, {"time": 186, "annotation": {"number": 64, "value": 127}, "group": "control_change"}, {"time": 209, "annotation": {"number": 64, "value": 0}, "group": "control_change"}, {"time": 211, "annotation": {"number": 64, "value": 127}, "group": "control_change"}, {"time": 235, "annotation": {"number": 64, "value": 0}, "group": "control_change"}, {"time": 246, "annotation": {"number": 64, "value": 127}, "group": "control_change"}, {"time": 256, "annotation": {"number": 64, "value": 0}, "group": "control_change"}, {"time": 259, "annotation": {"number": 64, "value": 127}, "group": "control_change"}, {"time": 281, "annotation": {"number": 64, "value": 0}, "group": "control_change"}, {"time": 283, "annotation": {"number": 64, "value": 127}, "group": "control_change"}, {"time": 306, "annotation": {"number": 64, "value": 0}, "group": "control_change"}, {"time": 308, "annotation": {"number": 64, "value": 127}, "group": "control_change"}, {"time": 329, "annotation": {"number": 64, "value": 0}, "group": "control_change"}, {"time": 331, "annotation": {"number": 64, "value": 127}, "group": "control_change"}, {"time": 353, "annotation": {"number": 64, "value": 0}, "group": "control_change"}, {"time": 355, "annotation": {"number": 64, "value": 127}, "group": "control_change"}, {"time": 378, "annotation": {"number": 64, "value": 0}, "group": "control_change"}, {"time": 379, "annotation": {"number": 64, "value": 127}, "group": "control_change"}, {"time": 401, "annotation": {"number": 64, "value": 0}, "group": "control_change"}, {"time": 403, "annotation": {"number": 64, "value": 127}, "group": "control_change"}, {"time": 425, "annotation": {"number": 64, "value": 0}, "group": "control_change"}, {"time": 427, "annotation": {"number": 64, "value": 127}, "group": "control_change"}, {"time": 450, "annotation": {"number": 64, "value": 0}, "group": "control_change"}, {"time": 452, "annotation": {"number": 64, "value": 127}, "group": "control_change"}, {"time": 473, "annotation": {"number": 64, "value": 0}, "group": "control_change"}, {"time": 476, "annotation": {"number": 64, "value": 127}, "group": "control_change"}, {"time": 497, "annotation": {"number": 64, "value": 0}, "group": "control_change"}, {"time": 499, "annotation": {"number": 64, "value": 127}, "group": "control_change"}, {"time": 520, "annotation": {"number": 64, "value": 0}, "group": "control_change"}, {"time": 522, "annotation": {"number": 64, "value": 127}, "group": "control_change"}, {"time": 617, "annotation": {"number": 64, "value": 0}, "group": "control_change"}, {"time": 619, "annotation": {"number": 64, "value": 127}, "group": "control_change"}, {"time": 642, "annotation": {"number": 64, "value": 0}, "group": "control_change"}, {"time": 644, "annotation": {"number": 64, "value": 127}, "group": "control_change"}, {"time": 665, "annotation": {"number": 64, "value": 0}, "group": "control_change"}, {"time": 666, "annotation": {"number": 64, "value": 127}, "group": "control_change"}, {"time": 690, "annotation": {"number": 64, "value": 0}, "group": "control_change"}, {"time": 691, "annotation": {"number": 64, "value": 127}, "group": "control_change"}, {"time": 713, "annotation": {"number": 64, "value": 0}, "group": "control_change"}, {"time": 713, "annotation": {"number": 64, "value": 127}, "group": "control_change"}, {"time": 737, "annotation": {"number": 64, "value": 0}, "group": "control_change"}, {"time": 738, "annotation": {"number": 64, "value": 127}, "group": "control_change"}, {"time": 762, "annotation": {"number": 64, "value": 0}, "group": "control_change"}, {"time": 764, "annotation": {"number": 64, "value": 127}, "group": "control_change"}, {"time": 785, "annotation": {"number": 64, "value": 0}, "group": "control_change"}, {"time": 787, "annotation": {"number": 64, "value": 127}, "group": "control_change"}, {"time": 809, "annotation": {"number": 64, "value": 0}, "group": "control_change"}, {"time": 811, "annotation": {"number": 64, "value": 127}, "group": "control_change"}, {"time": 833, "annotation": {"number": 64, "value": 0}, "group": "control_change"}, {"time": 835, "annotation": {"number": 64, "value": 127}, "group": "control_change"}, {"time": 857, "annotation": {"number": 64, "value": 0}, "group": "control_change"}, {"time": 859, "annotation": {"number": 64, "value": 127}, "group": "control_change"}, {"time": 880, "annotation": {"number": 64, "value": 0}, "group": "control_change"}, {"time": 883, "annotation": {"number": 64, "value": 127}, "group": "control_change"}, {"time": 905, "annotation": {"number": 64, "value": 0}, "group": "control_change"}, {"time": 907, "annotation": {"number": 64, "value": 127}, "group": "control_change"}, {"time": 929, "annotation": {"number": 64, "value": 0}, "group": "control_change"}, {"time": 930, "annotation": {"number": 64, "value": 127}, "group": "control_change"}, {"time": 953, "annotation": {"number": 64, "value": 0}, "group": "control_change"}, {"time": 955, "annotation": {"number": 64, "value": 127}, "group": "control_change"}, {"time": 977, "annotation": {"number": 64, "value": 0}, "group": "control_change"}, {"time": 979, "annotation": {"number": 64, "value": 127}, "group": "control_change"}, {"time": 1000, "annotation": {"number": 64, "value": 0}, "group": "control_change"}, {"time": 1003, "annotation": {"number": 64, "value": 127}, "group": "control_change"}, {"time": 1024, "annotation": {"number": 64, "value": 0}, "group": "control_change"}, {"time": 1026, "annotation": {"number": 64, "value": 127}, "group": "control_change"}, {"time": 1049, "annotation": {"number": 64, "value": 0}, "group": "control_change"}, {"time": 1051, "annotation": {"number": 64, "value": 127}, "group": "control_change"}, {"time": 1072, "annotation": {"number": 64, "value": 0}, "group": "control_change"}, {"time": 1075, "annotation": {"number": 64, "value": 127}, "group": "control_change"}, {"time": 1097, "annotation": {"number": 64, "value": 0}, "group": "control_change"}, {"time": 1099, "annotation": {"number": 64, "value": 127}, "group": "control_change"}, {"time": 1145, "annotation": {"number": 64, "value": 0}, "group": "control_change"}, {"time": 1147, "annotation": {"number": 64, "value": 127}, "group": "control_change"}, {"time": 1169, "annotation": {"number": 64, "value": 0}, "group": "control_change"}, {"time": 1171, "annotation": {"number": 64, "value": 127}, "group": "control_change"}, {"time": 1192, "annotation": {"number": 64, "value": 0}, "group": "control_change"}, {"time": 1193, "annotation": {"number": 64, "value": 127}, "group": "control_change"}, {"time": 1195, "annotation": {"number": 64, "value": 127}, "group": "control_change"}, {"time": 1205, "annotation": {"number": 64, "value": 0}, "group": "control_change"}, {"time": 1206, "annotation": {"number": 64, "value": 127}, "group": "control_change"}, {"time": 1216, "annotation": {"number": 64, "value": 0}, "group": "control_change"}, {"time": 1219, "annotation": {"number": 64, "value": 127}, "group": "control_change"}, {"time": 1240, "annotation": {"number": 64, "value": 0}, "group": "control_change"}, {"time": 1242, "annotation": {"number": 64, "value": 127}, "group": "control_change"}, {"time": 1264, "annotation": {"number": 64, "value": 0}, "group": "control_change"}, {"time": 1267, "annotation": {"number": 64, "value": 127}, "group": "control_change"}, {"time": 1288, "annotation": {"number": 64, "value": 0}, "group": "control_change"}, {"time": 1290, "annotation": {"number": 64, "value": 127}, "group": "control_change"}, {"time": 1336, "annotation": {"number": 64, "value": 0}, "group": "control_change"}, {"time": 1339, "annotation": {"number": 64, "value": 127}, "group": "control_change"}, {"time": 1362, "annotation": {"number": 64, "value": 0}, "group": "control_change"}, {"time": 1363, "annotation": {"number": 64, "value": 127}, "group": "control_change"}, {"time": 1385, "annotation": {"number": 64, "value": 0}, "group": "control_change"}, {"time": 1388, "annotation": {"number": 64, "value": 127}, "group": "control_change"}, {"time": 1409, "annotation": {"number": 64, "value": 0}, "group": "control_change"}, {"time": 1412, "annotation": {"number": 64, "value": 127}, "group": "control_change"}, {"time": 1433, "annotation": {"number": 64, "value": 0}, "group": "control_change"}, {"time": 1435, "annotation": {"number": 64, "value": 127}, "group": "control_change"}, {"time": 1457, "annotation": {"number": 64, "value": 0}, "group": "control_change"}, {"time": 1459, "annotation": {"number": 64, "value": 127}, "group": "control_change"}, {"time": 1481, "annotation": {"number": 64, "value": 0}, "group": "control_change"}, {"time": 1483, "annotation": {"number": 64, "value": 127}, "group": "control_change"}, {"time": 1505, "annotation": {"number": 64, "value": 0}, "group": "control_change"}, {"time": 1507, "annotation": {"number": 64, "value": 127}, "group": "control_change"}, {"time": 1531, "annotation": {"number": 64, "value": 0}, "group": "control_change"}, {"time": 1543, "annotation": {"number": 64, "value": 127}, "group": "control_change"}, {"time": 1547, "annotation": {"number": 64, "value": 0}, "group": "control_change"}, {"time": 1556, "annotation": {"number": 64, "value": 127}, "group": "control_change"}, {"time": 1577, "annotation": {"number": 64, "value": 0}, "group": "control_change"}, {"time": 1579, "annotation": {"number": 64, "value": 127}, "group": "control_change"}, {"time": 1600, "annotation": {"number": 64, "value": 0}, "group": "control_change"}, {"time": 1602, "annotation": {"number": 64, "value": 127}, "group": "control_change"}, {"time": 1697, "annotation": {"number": 64, "value": 0}, "group": "control_change"}, {"time": 1699, "annotation": {"number": 64, "value": 127}, "group": "control_change"}, {"time": 1722, "annotation": {"number": 64, "value": 0}, "group": "control_change"}, {"time": 1724, "annotation": {"number": 64, "value": 127}, "group": "control_change"}, {"time": 1745, "annotation": {"number": 64, "value": 0}, "group": "control_change"}, {"time": 1746, "annotation": {"number": 64, "value": 127}, "group": "control_change"}, {"time": 1770, "annotation": {"number": 64, "value": 0}, "group": "control_change"}, {"time": 1771, "annotation": {"number": 64, "value": 127}, "group": "control_change"}, {"time": 1793, "annotation": {"number": 64, "value": 0}, "group": "control_change"}, {"time": 1793, "annotation": {"number": 64, "value": 127}, "group": "control_change"}, {"time": 1817, "annotation": {"number": 64, "value": 0}, "group": "control_change"}, {"time": 1818, "annotation": {"number": 64, "value": 127}, "group": "control_change"}, {"time": 1842, "annotation": {"number": 64, "value": 0}, "group": "control_change"}, {"time": 1844, "annotation": {"number": 64, "value": 127}, "group": "control_change"}, {"time": 1865, "annotation": {"number": 64, "value": 0}, "group": "control_change"}, {"time": 1867, "annotation": {"number": 64, "value": 127}, "group": "control_change"}, {"time": 1889, "annotation": {"number": 64, "value": 0}, "group": "control_change"}, {"time": 1891, "annotation": {"number": 64, "value": 127}, "group": "control_change"}, {"time": 1913, "annotation": {"number": 64, "value": 0}, "group": "control_change"}, {"time": 1915, "annotation": {"number": 64, "value": 127}, "group": "control_change"}, {"time": 1937, "annotation": {"number": 64, "value": 0}, "group": "control_change"}, {"time": 1939, "annotation": {"number": 64, "value": 127}, "group": "control_change"}, {"time": 1960, "annotation": {"number": 64, "value": 0}, "group": "control_change"}, {"time": 1963, "annotation": {"number": 64, "value": 127}, "group": "control_change"}, {"time": 1985, "annotation": {"number": 64, "value": 0}, "group": "control_change"}, {"time": 1987, "annotation": {"number": 64, "value": 127}, "group": "control_change"}, {"time": 2009, "annotation": {"number": 64, "value": 0}, "group": "control_change"}, {"time": 2010, "annotation": {"number": 64, "value": 127}, "group": "control_change"}, {"time": 2033, "annotation": {"number": 64, "value": 0}, "group": "control_change"}, {"time": 2035, "annotation": {"number": 64, "value": 127}, "group": "control_change"}, {"time": 2057, "annotation": {"number": 64, "value": 0}, "group": "control_change"}, {"time": 2059, "annotation": {"number": 64, "value": 127}, "group": "control_change"}, {"time": 2080, "annotation": {"number": 64, "value": 0}, "group": "control_change"}, {"time": 2083, "annotation": {"number": 64, "value": 127}, "group": "control_change"}, {"time": 2104, "annotation": {"number": 64, "value": 0}, "group": "control_change"}, {"time": 2106, "annotation": {"number": 64, "value": 127}, "group": "control_change"}, {"time": 2129, "annotation": {"number": 64, "value": 0}, "group": "control_change"}, {"time": 2131, "annotation": {"number": 64, "value": 127}, "group": "control_change"}, {"time": 2152, "annotation": {"number": 64, "value": 0}, "group": "control_change"}, {"time": 2155, "annotation": {"number": 64, "value": 127}, "group": "control_change"}, {"time": 2177, "annotation": {"number": 64, "value": 0}, "group": "control_change"}, {"time": 2179, "annotation": {"number": 64, "value": 127}, "group": "control_change"}, {"time": 2225, "annotation": {"number": 64, "value": 0}, "group": "control_change"}, {"time": 2227, "annotation": {"number": 64, "value": 127}, "group": "control_change"}, {"time": 2249, "annotation": {"number": 64, "value": 0}, "group": "control_change"}, {"time": 2251, "annotation": {"number": 64, "value": 127}, "group": "control_change"}, {"time": 2272, "annotation": {"number": 64, "value": 0}, "group": "control_change"}, {"time": 2273, "annotation": {"number": 64, "value": 127}, "group": "control_change"}, {"time": 2275, "annotation": {"number": 64, "value": 127}, "group": "control_change"}, {"time": 2285, "annotation": {"number": 64, "value": 0}, "group": "control_change"}, {"time": 2286, "annotation": {"number": 64, "value": 127}, "group": "control_change"}, {"time": 2296, "annotation": {"number": 64, "value": 0}, "group": "control_change"}, {"time": 2299, "annotation": {"number": 64, "value": 127}, "group": "control_change"}, {"time": 2320, "annotation": {"number": 64, "value": 0}, "group": "control_change"}, {"time": 2322, "annotation": {"number": 64, "value": 127}, "group": "control_change"}, {"time": 2344, "annotation": {"number": 64, "value": 0}, "group": "control_change"}, {"time": 2346, "annotation": {"number": 64, "value": 127}, "group": "control_change"}, {"time": 2369, "annotation": {"number": 64, "value": 0}, "group": "control_change"}, {"time": 2371, "annotation": {"number": 64, "value": 127}, "group": "control_change"}, {"time": 2416, "annotation": {"number": 64, "value": 0}, "group": "control_change"}, {"time": 2420, "annotation": {"number": 64, "value": 127}, "group": "control_change"}, {"time": 2440, "annotation": {"number": 64, "value": 0}, "group": "control_change"}, {"time": 2444, "annotation": {"number": 64, "value": 127}, "group": "control_change"}, {"time": 2465, "annotation": {"number": 64, "value": 0}, "group": "control_change"}, {"time": 2468, "annotation": {"number": 64, "value": 127}, "group": "control_change"}, {"time": 2489, "annotation": {"number": 64, "value": 0}, "group": "control_change"}, {"time": 2491, "annotation": {"number": 64, "value": 127}, "group": "control_change"}, {"time": 2513, "annotation": {"number": 64, "value": 0}, "group": "control_change"}, {"time": 2516, "annotation": {"number": 64, "value": 127}, "group": "control_change"}, {"time": 2537, "annotation": {"number": 64, "value": 0}, "group": "control_change"}, {"time": 2539, "annotation": {"number": 64, "value": 127}, "group": "control_change"}, {"time": 2562, "annotation": {"number": 64, "value": 0}, "group": "control_change"}, {"time": 2564, "annotation": {"number": 64, "value": 127}, "group": "control_change"}, {"time": 2585, "annotation": {"number": 64, "value": 0}, "group": "control_change"}, {"time": 2611, "annotation": {"number": 64, "value": 127}, "group": "control_change"}, {"time": 2633, "annotation": {"number": 64, "value": 0}, "group": "control_change"}, {"time": 2635, "annotation": {"number": 64, "value": 127}, "group": "control_change"}, {"time": 2656, "annotation": {"number": 64, "value": 0}, "group": "control_change"}, {"time": 2659, "annotation": {"number": 64, "value": 127}, "group": "control_change"}, {"time": 2680, "annotation": {"number": 64, "value": 0}, "group": "control_change"}, {"time": 2682, "annotation": {"number": 64, "value": 127}, "group": "control_change"}, {"time": 2705, "annotation": {"number": 64, "value": 0}, "group": "control_change"}, {"time": 2707, "annotation": {"number": 64, "value": 127}, "group": "control_change"}, {"time": 2728, "annotation": {"number": 64, "value": 0}, "group": "control_change"}, {"time": 2731, "annotation": {"number": 64, "value": 127}, "group": "control_change"}, {"time": 2753, "annotation": {"number": 64, "value": 0}, "group": "control_change"}, {"time": 2755, "annotation": {"number": 64, "value": 127}, "group": "control_change"}, {"time": 2801, "annotation": {"number": 64, "value": 0}, "group": "control_change"}, {"time": 2803, "annotation": {"number": 64, "value": 127}, "group": "control_change"}, {"time": 2825, "annotation": {"number": 64, "value": 0}, "group": "control_change"}, {"time": 2827, "annotation": {"number": 64, "value": 127}, "group": "control_change"}, {"time": 2848, "annotation": {"number": 64, "value": 0}, "group": "control_change"}, {"time": 2849, "annotation": {"number": 64, "value": 127}, "group": "control_change"}, {"time": 2851, "annotation": {"number": 64, "value": 127}, "group": "control_change"}, {"time": 2861, "annotation": {"number": 64, "value": 0}, "group": "control_change"}, {"time": 2862, "annotation": {"number": 64, "value": 127}, "group": "control_change"}, {"time": 2872, "annotation": {"number": 64, "value": 0}, "group": "control_change"}, {"time": 2875, "annotation": {"number": 64, "value": 127}, "group": "control_change"}, {"time": 2896, "annotation": {"number": 64, "value": 0}, "group": "control_change"}, {"time": 2898, "annotation": {"number": 64, "value": 127}, "group": "control_change"}, {"time": 2920, "annotation": {"number": 64, "value": 0}, "group": "control_change"}, {"time": 2922, "annotation": {"number": 64, "value": 127}, "group": "control_change"}, {"time": 2945, "annotation": {"number": 64, "value": 0}, "group": "control_change"}, {"time": 2947, "annotation": {"number": 64, "value": 127}, "group": "control_change"}, {"time": 2949, "annotation": {"number": 64, "value": 127}, "group": "control_change"}, {"time": 2951, "annotation": {"number": 64, "value": 0}, "group": "control_change"}, {"time": 2957, "annotation": {"number": 64, "value": 127}, "group": "control_change"}, {"time": 2994, "annotation": {"number": 64, "value": 0}, "group": "control_change"}, {"time": 3018, "annotation": {"number": 64, "value": 127}, "group": "control_change"}, {"time": 3188, "annotation": {"number": 64, "value": 0}, "group": "control_change"}, {"time": 3189, "annotation": {"number": 64, "value": 127}, "group": "control_change"}, {"time": 3196, "annotation": {"number": 64, "value": 0}, "group": "control_change"}]}]}