{"metadata": {"schema_version": "0.2", "title": "None", "source_filename": "110.mid", "source_format": "midi"}, "resolution": 12, "tempos": [{"time": 0, "qpm": 65.45009484809579}, {"time": 1428, "qpm": 65.99999340000066}, {"time": 1584, "qpm": 58.00004253336452}, {"time": 1596, "qpm": 54.00000540000054}, {"time": 1620, "qpm": 65.45009484809579}, {"time": 3000, "qpm": 60.0}, {"time": 3036, "qpm": 65.99999340000066}, {"time": 3048, "qpm": 67.00002903334591}, {"time": 3097, "qpm": 76.30005760654349}, {"time": 3108, "qpm": 64.0}, {"time": 3120, "qpm": 62.99999685000016}, {"time": 3132, "qpm": 60.99997255001235}, {"time": 3144, "qpm": 55.00000458333371}, {"time": 3156, "qpm": 52.000006933334255}, {"time": 3168, "qpm": 50.0}], "time_signatures": [{"time": 0, "numerator": 1, "denominator": 4}], "tracks": [{"program": 0, "is_drum": false, "name": "MELODY", "notes": [{"time": 226, "pitch": 70, "duration": 5, "velocity": 96}, {"time": 232, "pitch": 70, "duration": 6, "velocity": 97}, {"time": 238, "pitch": 75, "duration": 5, "velocity": 112}, {"time": 244, "pitch": 75, "duration": 5, "velocity": 96}, {"time": 250, "pitch": 77, "duration": 5, "velocity": 97}, {"time": 256, "pitch": 79, "duration": 6, "velocity": 96}, {"time": 262, "pitch": 80, "duration": 4, "velocity": 112}, {"time": 268, "pitch": 80, "duration": 8, "velocity": 102}, {"time": 286, "pitch": 77, "duration": 1, "velocity": 100}, {"time": 289, "pitch": 77, "duration": 17, "velocity": 99}, {"time": 322, "pitch": 70, "duration": 4, "velocity": 112}, {"time": 328, "pitch": 70, "duration": 5, "velocity": 127}, {"time": 334, "pitch": 75, "duration": 4, "velocity": 112}, {"time": 340, "pitch": 75, "duration": 4, "velocity": 112}, {"time": 346, "pitch": 77, "duration": 3, "velocity": 90}, {"time": 352, "pitch": 79, "duration": 5, "velocity": 93}, {"time": 358, "pitch": 80, "duration": 4, "velocity": 102}, {"time": 364, "pitch": 79, "duration": 16, "velocity": 102}, {"time": 382, "pitch": 82, "duration": 4, "velocity": 90}, {"time": 388, "pitch": 82, "duration": 22, "velocity": 127}, {"time": 424, "pitch": 84, "duration": 3, "velocity": 96}, {"time": 427, "pitch": 86, "duration": 2, "velocity": 97}, {"time": 430, "pitch": 87, "duration": 4, "velocity": 102}, {"time": 436, "pitch": 86, "duration": 4, "velocity": 102}, {"time": 442, "pitch": 84, "duration": 5, "velocity": 96}, {"time": 448, "pitch": 82, "duration": 4, "velocity": 122}, {"time": 454, "pitch": 80, "duration": 4, "velocity": 117}, {"time": 460, "pitch": 79, "duration": 4, "velocity": 97}, {"time": 466, "pitch": 82, "duration": 4, "velocity": 127}, {"time": 472, "pitch": 86, "duration": 4, "velocity": 96}, {"time": 478, "pitch": 87, "duration": 18, "velocity": 122}, {"time": 496, "pitch": 82, "duration": 5, "velocity": 127}, {"time": 502, "pitch": 79, "duration": 5, "velocity": 96}, {"time": 508, "pitch": 82, "duration": 4, "velocity": 127}, {"time": 514, "pitch": 82, "duration": 3, "velocity": 122}, {"time": 520, "pitch": 82, "duration": 3, "velocity": 127}, {"time": 526, "pitch": 80, "duration": 10, "velocity": 127}, {"time": 538, "pitch": 79, "duration": 4, "velocity": 122}, {"time": 544, "pitch": 80, "duration": 5, "velocity": 112}, {"time": 550, "pitch": 77, "duration": 26, "velocity": 100}, {"time": 610, "pitch": 70, "duration": 5, "velocity": 96}, {"time": 616, "pitch": 70, "duration": 6, "velocity": 97}, {"time": 622, "pitch": 75, "duration": 5, "velocity": 112}, {"time": 628, "pitch": 75, "duration": 5, "velocity": 96}, {"time": 634, "pitch": 77, "duration": 5, "velocity": 97}, {"time": 640, "pitch": 79, "duration": 6, "velocity": 96}, {"time": 646, "pitch": 80, "duration": 4, "velocity": 112}, {"time": 652, "pitch": 80, "duration": 8, "velocity": 102}, {"time": 670, "pitch": 77, "duration": 1, "velocity": 100}, {"time": 673, "pitch": 77, "duration": 17, "velocity": 99}, {"time": 706, "pitch": 70, "duration": 4, "velocity": 112}, {"time": 712, "pitch": 70, "duration": 5, "velocity": 127}, {"time": 718, "pitch": 75, "duration": 4, "velocity": 112}, {"time": 724, "pitch": 75, "duration": 4, "velocity": 112}, {"time": 730, "pitch": 77, "duration": 3, "velocity": 90}, {"time": 736, "pitch": 79, "duration": 5, "velocity": 93}, {"time": 742, "pitch": 80, "duration": 4, "velocity": 102}, {"time": 748, "pitch": 79, "duration": 16, "velocity": 102}, {"time": 766, "pitch": 82, "duration": 4, "velocity": 90}, {"time": 772, "pitch": 82, "duration": 22, "velocity": 127}, {"time": 808, "pitch": 84, "duration": 3, "velocity": 96}, {"time": 811, "pitch": 86, "duration": 2, "velocity": 97}, {"time": 814, "pitch": 87, "duration": 4, "velocity": 102}, {"time": 820, "pitch": 86, "duration": 4, "velocity": 102}, {"time": 826, "pitch": 84, "duration": 5, "velocity": 96}, {"time": 832, "pitch": 82, "duration": 4, "velocity": 122}, {"time": 838, "pitch": 80, "duration": 4, "velocity": 117}, {"time": 844, "pitch": 79, "duration": 4, "velocity": 97}, {"time": 850, "pitch": 82, "duration": 4, "velocity": 127}, {"time": 856, "pitch": 86, "duration": 4, "velocity": 96}, {"time": 862, "pitch": 87, "duration": 18, "velocity": 122}, {"time": 880, "pitch": 82, "duration": 5, "velocity": 127}, {"time": 886, "pitch": 79, "duration": 5, "velocity": 96}, {"time": 892, "pitch": 82, "duration": 4, "velocity": 127}, {"time": 898, "pitch": 82, "duration": 3, "velocity": 122}, {"time": 904, "pitch": 82, "duration": 3, "velocity": 127}, {"time": 910, "pitch": 80, "duration": 10, "velocity": 127}, {"time": 922, "pitch": 79, "duration": 4, "velocity": 122}, {"time": 928, "pitch": 80, "duration": 5, "velocity": 112}, {"time": 934, "pitch": 77, "duration": 26, "velocity": 100}, {"time": 970, "pitch": 75, "duration": 7, "velocity": 112}, {"time": 976, "pitch": 87, "duration": 6, "velocity": 107}, {"time": 982, "pitch": 86, "duration": 5, "velocity": 100}, {"time": 988, "pitch": 82, "duration": 8, "velocity": 97}, {"time": 994, "pitch": 84, "duration": 4, "velocity": 122}, {"time": 1000, "pitch": 84, "duration": 16, "velocity": 127}, {"time": 1021, "pitch": 75, "duration": 2, "velocity": 97}, {"time": 1024, "pitch": 87, "duration": 4, "velocity": 112}, {"time": 1030, "pitch": 86, "duration": 5, "velocity": 122}, {"time": 1036, "pitch": 84, "duration": 5, "velocity": 127}, {"time": 1042, "pitch": 82, "duration": 3, "velocity": 117}, {"time": 1048, "pitch": 82, "duration": 15, "velocity": 127}, {"time": 1069, "pitch": 80, "duration": 1, "velocity": 112}, {"time": 1072, "pitch": 80, "duration": 5, "velocity": 117}, {"time": 1078, "pitch": 82, "duration": 4, "velocity": 107}, {"time": 1084, "pitch": 82, "duration": 5, "velocity": 127}, {"time": 1090, "pitch": 84, "duration": 1, "velocity": 96}, {"time": 1093, "pitch": 84, "duration": 10, "velocity": 122}, {"time": 1108, "pitch": 86, "duration": 5, "velocity": 99}, {"time": 1114, "pitch": 87, "duration": 2, "velocity": 102}, {"time": 1117, "pitch": 89, "duration": 5, "velocity": 117}, {"time": 1123, "pitch": 92, "duration": 5, "velocity": 127}, {"time": 1132, "pitch": 92, "duration": 10, "velocity": 127}, {"time": 1150, "pitch": 91, "duration": 1, "velocity": 102}, {"time": 1153, "pitch": 91, "duration": 7, "velocity": 112}, {"time": 1168, "pitch": 89, "duration": 6, "velocity": 102}, {"time": 1174, "pitch": 91, "duration": 5, "velocity": 90}, {"time": 1180, "pitch": 89, "duration": 5, "velocity": 102}, {"time": 1186, "pitch": 87, "duration": 1, "velocity": 107}, {"time": 1189, "pitch": 87, "duration": 12, "velocity": 127}, {"time": 1204, "pitch": 86, "duration": 4, "velocity": 102}, {"time": 1210, "pitch": 87, "duration": 2, "velocity": 100}, {"time": 1213, "pitch": 89, "duration": 11, "velocity": 100}, {"time": 1228, "pitch": 86, "duration": 4, "velocity": 112}, {"time": 1234, "pitch": 87, "duration": 1, "velocity": 93}, {"time": 1237, "pitch": 89, "duration": 7, "velocity": 96}, {"time": 1246, "pitch": 86, "duration": 1, "velocity": 102}, {"time": 1249, "pitch": 87, "duration": 15, "velocity": 122}, {"time": 1294, "pitch": 91, "duration": 3, "velocity": 97}, {"time": 1297, "pitch": 92, "duration": 2, "velocity": 96}, {"time": 1300, "pitch": 91, "duration": 6, "velocity": 99}, {"time": 1306, "pitch": 87, "duration": 1, "velocity": 95}, {"time": 1309, "pitch": 87, "duration": 8, "velocity": 95}, {"time": 1318, "pitch": 89, "duration": 3, "velocity": 127}, {"time": 1321, "pitch": 91, "duration": 1, "velocity": 72}, {"time": 1324, "pitch": 91, "duration": 5, "velocity": 90}, {"time": 1330, "pitch": 87, "duration": 1, "velocity": 92}, {"time": 1333, "pitch": 87, "duration": 6, "velocity": 100}, {"time": 1342, "pitch": 86, "duration": 2, "velocity": 102}, {"time": 1345, "pitch": 89, "duration": 9, "velocity": 97}, {"time": 1354, "pitch": 87, "duration": 39, "velocity": 95}, {"time": 1618, "pitch": 70, "duration": 5, "velocity": 96}, {"time": 1624, "pitch": 70, "duration": 6, "velocity": 97}, {"time": 1630, "pitch": 75, "duration": 5, "velocity": 112}, {"time": 1636, "pitch": 75, "duration": 5, "velocity": 96}, {"time": 1642, "pitch": 77, "duration": 5, "velocity": 97}, {"time": 1648, "pitch": 79, "duration": 6, "velocity": 96}, {"time": 1654, "pitch": 80, "duration": 4, "velocity": 112}, {"time": 1660, "pitch": 80, "duration": 8, "velocity": 102}, {"time": 1678, "pitch": 77, "duration": 1, "velocity": 100}, {"time": 1681, "pitch": 77, "duration": 17, "velocity": 99}, {"time": 1714, "pitch": 70, "duration": 4, "velocity": 112}, {"time": 1720, "pitch": 70, "duration": 5, "velocity": 127}, {"time": 1726, "pitch": 75, "duration": 4, "velocity": 112}, {"time": 1732, "pitch": 75, "duration": 4, "velocity": 112}, {"time": 1738, "pitch": 77, "duration": 3, "velocity": 90}, {"time": 1744, "pitch": 79, "duration": 5, "velocity": 93}, {"time": 1750, "pitch": 80, "duration": 4, "velocity": 102}, {"time": 1756, "pitch": 79, "duration": 16, "velocity": 102}, {"time": 1774, "pitch": 82, "duration": 4, "velocity": 90}, {"time": 1780, "pitch": 82, "duration": 22, "velocity": 127}, {"time": 1816, "pitch": 84, "duration": 3, "velocity": 96}, {"time": 1819, "pitch": 86, "duration": 2, "velocity": 97}, {"time": 1822, "pitch": 87, "duration": 4, "velocity": 102}, {"time": 1828, "pitch": 86, "duration": 4, "velocity": 102}, {"time": 1834, "pitch": 84, "duration": 5, "velocity": 96}, {"time": 1840, "pitch": 82, "duration": 4, "velocity": 122}, {"time": 1846, "pitch": 80, "duration": 4, "velocity": 117}, {"time": 1852, "pitch": 79, "duration": 4, "velocity": 97}, {"time": 1858, "pitch": 82, "duration": 4, "velocity": 127}, {"time": 1864, "pitch": 86, "duration": 4, "velocity": 96}, {"time": 1870, "pitch": 87, "duration": 18, "velocity": 122}, {"time": 1888, "pitch": 82, "duration": 5, "velocity": 127}, {"time": 1894, "pitch": 79, "duration": 5, "velocity": 96}, {"time": 1900, "pitch": 82, "duration": 4, "velocity": 127}, {"time": 1906, "pitch": 82, "duration": 3, "velocity": 122}, {"time": 1912, "pitch": 82, "duration": 3, "velocity": 127}, {"time": 1918, "pitch": 80, "duration": 10, "velocity": 127}, {"time": 1930, "pitch": 79, "duration": 4, "velocity": 122}, {"time": 1936, "pitch": 80, "duration": 5, "velocity": 112}, {"time": 1942, "pitch": 77, "duration": 26, "velocity": 100}, {"time": 1978, "pitch": 75, "duration": 7, "velocity": 112}, {"time": 1984, "pitch": 87, "duration": 6, "velocity": 107}, {"time": 1990, "pitch": 86, "duration": 5, "velocity": 100}, {"time": 1996, "pitch": 82, "duration": 8, "velocity": 97}, {"time": 2002, "pitch": 84, "duration": 4, "velocity": 122}, {"time": 2008, "pitch": 84, "duration": 16, "velocity": 127}, {"time": 2029, "pitch": 75, "duration": 2, "velocity": 97}, {"time": 2032, "pitch": 87, "duration": 4, "velocity": 112}, {"time": 2038, "pitch": 86, "duration": 5, "velocity": 122}, {"time": 2044, "pitch": 84, "duration": 5, "velocity": 127}, {"time": 2050, "pitch": 82, "duration": 3, "velocity": 117}, {"time": 2056, "pitch": 82, "duration": 15, "velocity": 127}, {"time": 2077, "pitch": 80, "duration": 1, "velocity": 112}, {"time": 2080, "pitch": 80, "duration": 5, "velocity": 117}, {"time": 2086, "pitch": 82, "duration": 4, "velocity": 107}, {"time": 2092, "pitch": 82, "duration": 5, "velocity": 127}, {"time": 2098, "pitch": 84, "duration": 1, "velocity": 96}, {"time": 2101, "pitch": 84, "duration": 10, "velocity": 122}, {"time": 2116, "pitch": 86, "duration": 5, "velocity": 99}, {"time": 2122, "pitch": 87, "duration": 2, "velocity": 102}, {"time": 2125, "pitch": 89, "duration": 5, "velocity": 117}, {"time": 2131, "pitch": 92, "duration": 5, "velocity": 127}, {"time": 2140, "pitch": 92, "duration": 10, "velocity": 127}, {"time": 2158, "pitch": 91, "duration": 1, "velocity": 102}, {"time": 2161, "pitch": 91, "duration": 7, "velocity": 112}, {"time": 2176, "pitch": 89, "duration": 6, "velocity": 102}, {"time": 2182, "pitch": 91, "duration": 5, "velocity": 90}, {"time": 2188, "pitch": 89, "duration": 5, "velocity": 102}, {"time": 2194, "pitch": 87, "duration": 1, "velocity": 107}, {"time": 2197, "pitch": 87, "duration": 12, "velocity": 127}, {"time": 2212, "pitch": 86, "duration": 4, "velocity": 102}, {"time": 2218, "pitch": 87, "duration": 2, "velocity": 100}, {"time": 2221, "pitch": 89, "duration": 11, "velocity": 100}, {"time": 2236, "pitch": 86, "duration": 4, "velocity": 112}, {"time": 2242, "pitch": 87, "duration": 1, "velocity": 93}, {"time": 2245, "pitch": 89, "duration": 7, "velocity": 96}, {"time": 2254, "pitch": 86, "duration": 1, "velocity": 102}, {"time": 2257, "pitch": 87, "duration": 15, "velocity": 122}, {"time": 2302, "pitch": 91, "duration": 3, "velocity": 97}, {"time": 2305, "pitch": 92, "duration": 2, "velocity": 96}, {"time": 2308, "pitch": 91, "duration": 6, "velocity": 99}, {"time": 2314, "pitch": 87, "duration": 1, "velocity": 95}, {"time": 2317, "pitch": 87, "duration": 8, "velocity": 95}, {"time": 2326, "pitch": 89, "duration": 3, "velocity": 127}, {"time": 2329, "pitch": 91, "duration": 1, "velocity": 72}, {"time": 2332, "pitch": 91, "duration": 5, "velocity": 90}, {"time": 2338, "pitch": 87, "duration": 1, "velocity": 92}, {"time": 2341, "pitch": 87, "duration": 6, "velocity": 100}, {"time": 2350, "pitch": 86, "duration": 2, "velocity": 102}, {"time": 2353, "pitch": 89, "duration": 9, "velocity": 97}, {"time": 2362, "pitch": 87, "duration": 18, "velocity": 95}, {"time": 2398, "pitch": 82, "duration": 3, "velocity": 127}, {"time": 2404, "pitch": 84, "duration": 4, "velocity": 127}, {"time": 2410, "pitch": 82, "duration": 2, "velocity": 127}, {"time": 2413, "pitch": 84, "duration": 8, "velocity": 127}, {"time": 2428, "pitch": 86, "duration": 3, "velocity": 122}, {"time": 2434, "pitch": 84, "duration": 1, "velocity": 117}, {"time": 2437, "pitch": 86, "duration": 9, "velocity": 127}, {"time": 2458, "pitch": 86, "duration": 2, "velocity": 99}, {"time": 2461, "pitch": 87, "duration": 1, "velocity": 117}, {"time": 2464, "pitch": 89, "duration": 3, "velocity": 112}, {"time": 2470, "pitch": 86, "duration": 1, "velocity": 97}, {"time": 2473, "pitch": 87, "duration": 11, "velocity": 127}, {"time": 2488, "pitch": 87, "duration": 2, "velocity": 127}, {"time": 2491, "pitch": 89, "duration": 3, "velocity": 122}, {"time": 2497, "pitch": 91, "duration": 1, "velocity": 117}, {"time": 2500, "pitch": 91, "duration": 4, "velocity": 127}, {"time": 2518, "pitch": 87, "duration": 13, "velocity": 117}, {"time": 2536, "pitch": 87, "duration": 2, "velocity": 127}, {"time": 2539, "pitch": 89, "duration": 3, "velocity": 117}, {"time": 2545, "pitch": 91, "duration": 1, "velocity": 127}, {"time": 2548, "pitch": 91, "duration": 13, "velocity": 127}, {"time": 2563, "pitch": 92, "duration": 8, "velocity": 127}, {"time": 2572, "pitch": 89, "duration": 28, "velocity": 127}, {"time": 2626, "pitch": 75, "duration": 7, "velocity": 112}, {"time": 2632, "pitch": 87, "duration": 6, "velocity": 107}, {"time": 2638, "pitch": 86, "duration": 5, "velocity": 100}, {"time": 2644, "pitch": 82, "duration": 8, "velocity": 97}, {"time": 2650, "pitch": 84, "duration": 4, "velocity": 122}, {"time": 2656, "pitch": 84, "duration": 16, "velocity": 127}, {"time": 2674, "pitch": 75, "duration": 2, "velocity": 97}, {"time": 2680, "pitch": 87, "duration": 4, "velocity": 112}, {"time": 2686, "pitch": 86, "duration": 5, "velocity": 122}, {"time": 2692, "pitch": 84, "duration": 5, "velocity": 127}, {"time": 2698, "pitch": 82, "duration": 3, "velocity": 117}, {"time": 2704, "pitch": 82, "duration": 15, "velocity": 127}, {"time": 2725, "pitch": 80, "duration": 1, "velocity": 112}, {"time": 2728, "pitch": 80, "duration": 5, "velocity": 117}, {"time": 2734, "pitch": 82, "duration": 4, "velocity": 107}, {"time": 2740, "pitch": 82, "duration": 5, "velocity": 127}, {"time": 2746, "pitch": 84, "duration": 1, "velocity": 96}, {"time": 2749, "pitch": 84, "duration": 10, "velocity": 122}, {"time": 2764, "pitch": 86, "duration": 5, "velocity": 99}, {"time": 2770, "pitch": 87, "duration": 2, "velocity": 102}, {"time": 2773, "pitch": 89, "duration": 5, "velocity": 117}, {"time": 2779, "pitch": 92, "duration": 5, "velocity": 127}, {"time": 2788, "pitch": 92, "duration": 10, "velocity": 127}, {"time": 2806, "pitch": 91, "duration": 1, "velocity": 102}, {"time": 2809, "pitch": 91, "duration": 7, "velocity": 112}, {"time": 2824, "pitch": 89, "duration": 6, "velocity": 102}, {"time": 2830, "pitch": 91, "duration": 5, "velocity": 90}, {"time": 2836, "pitch": 89, "duration": 5, "velocity": 102}, {"time": 2842, "pitch": 87, "duration": 1, "velocity": 107}, {"time": 2845, "pitch": 87, "duration": 12, "velocity": 127}, {"time": 2860, "pitch": 86, "duration": 4, "velocity": 102}, {"time": 2866, "pitch": 87, "duration": 2, "velocity": 100}, {"time": 2869, "pitch": 89, "duration": 11, "velocity": 100}, {"time": 2890, "pitch": 86, "duration": 2, "velocity": 97}, {"time": 2893, "pitch": 87, "duration": 2, "velocity": 112}, {"time": 2896, "pitch": 89, "duration": 7, "velocity": 127}, {"time": 2902, "pitch": 92, "duration": 5, "velocity": 122}, {"time": 2908, "pitch": 89, "duration": 10, "velocity": 117}, {"time": 2917, "pitch": 87, "duration": 35, "velocity": 107}, {"time": 2974, "pitch": 91, "duration": 3, "velocity": 99}, {"time": 2977, "pitch": 92, "duration": 3, "velocity": 112}, {"time": 2980, "pitch": 91, "duration": 6, "velocity": 117}, {"time": 2986, "pitch": 87, "duration": 1, "velocity": 83}, {"time": 2989, "pitch": 87, "duration": 12, "velocity": 122}, {"time": 2998, "pitch": 89, "duration": 3, "velocity": 117}, {"time": 3001, "pitch": 91, "duration": 1, "velocity": 92}, {"time": 3004, "pitch": 91, "duration": 5, "velocity": 107}, {"time": 3010, "pitch": 87, "duration": 1, "velocity": 92}, {"time": 3013, "pitch": 87, "duration": 26, "velocity": 117}]}, {"program": 0, "is_drum": false, "name": "PIANO", "notes": [{"time": 28, "pitch": 56, "duration": 35, "velocity": 58}, {"time": 34, "pitch": 60, "duration": 28, "velocity": 42}, {"time": 40, "pitch": 63, "duration": 24, "velocity": 44}, {"time": 46, "pitch": 68, "duration": 28, "velocity": 49}, {"time": 52, "pitch": 72, "duration": 17, "velocity": 38}, {"time": 52, "pitch": 75, "duration": 21, "velocity": 37}, {"time": 76, "pitch": 55, "duration": 31, "velocity": 62}, {"time": 82, "pitch": 62, "duration": 9, "velocity": 48}, {"time": 88, "pitch": 67, "duration": 26, "velocity": 66}, {"time": 94, "pitch": 62, "duration": 9, "velocity": 35}, {"time": 100, "pitch": 70, "duration": 13, "velocity": 39}, {"time": 100, "pitch": 74, "duration": 13, "velocity": 46}, {"time": 124, "pitch": 52, "duration": 16, "velocity": 40}, {"time": 124, "pitch": 58, "duration": 13, "velocity": 81}, {"time": 124, "pitch": 64, "duration": 10, "velocity": 77}, {"time": 124, "pitch": 67, "duration": 10, "velocity": 88}, {"time": 124, "pitch": 70, "duration": 10, "velocity": 86}, {"time": 127, "pitch": 55, "duration": 12, "velocity": 26}, {"time": 136, "pitch": 67, "duration": 6, "velocity": 93}, {"time": 136, "pitch": 70, "duration": 6, "velocity": 97}, {"time": 139, "pitch": 58, "duration": 2, "velocity": 51}, {"time": 142, "pitch": 64, "duration": 3, "velocity": 88}, {"time": 145, "pitch": 68, "duration": 2, "velocity": 72}, {"time": 148, "pitch": 49, "duration": 18, "velocity": 92}, {"time": 148, "pitch": 56, "duration": 13, "velocity": 76}, {"time": 148, "pitch": 61, "duration": 9, "velocity": 102}, {"time": 148, "pitch": 68, "duration": 1, "velocity": 58}, {"time": 157, "pitch": 64, "duration": 1, "velocity": 35}, {"time": 160, "pitch": 64, "duration": 6, "velocity": 96}, {"time": 160, "pitch": 68, "duration": 6, "velocity": 102}, {"time": 163, "pitch": 56, "duration": 3, "velocity": 60}, {"time": 166, "pitch": 61, "duration": 1, "velocity": 90}, {"time": 172, "pitch": 46, "duration": 20, "velocity": 89}, {"time": 172, "pitch": 62, "duration": 10, "velocity": 78}, {"time": 172, "pitch": 65, "duration": 10, "velocity": 72}, {"time": 178, "pitch": 58, "duration": 7, "velocity": 58}, {"time": 184, "pitch": 62, "duration": 10, "velocity": 67}, {"time": 184, "pitch": 65, "duration": 10, "velocity": 70}, {"time": 196, "pitch": 46, "duration": 16, "velocity": 58}, {"time": 196, "pitch": 58, "duration": 15, "velocity": 52}, {"time": 196, "pitch": 62, "duration": 15, "velocity": 60}, {"time": 196, "pitch": 65, "duration": 16, "velocity": 58}, {"time": 220, "pitch": 51, "duration": 42, "velocity": 58}, {"time": 220, "pitch": 63, "duration": 9, "velocity": 56}, {"time": 220, "pitch": 67, "duration": 6, "velocity": 62}, {"time": 220, "pitch": 70, "duration": 7, "velocity": 56}, {"time": 232, "pitch": 63, "duration": 7, "velocity": 56}, {"time": 232, "pitch": 67, "duration": 6, "velocity": 59}, {"time": 232, "pitch": 70, "duration": 6, "velocity": 63}, {"time": 238, "pitch": 58, "duration": 5, "velocity": 29}, {"time": 244, "pitch": 63, "duration": 8, "velocity": 61}, {"time": 244, "pitch": 67, "duration": 6, "velocity": 75}, {"time": 244, "pitch": 70, "duration": 6, "velocity": 34}, {"time": 256, "pitch": 63, "duration": 2, "velocity": 62}, {"time": 256, "pitch": 70, "duration": 10, "velocity": 96}, {"time": 262, "pitch": 63, "duration": 1, "velocity": 32}, {"time": 268, "pitch": 50, "duration": 38, "velocity": 58}, {"time": 268, "pitch": 62, "duration": 10, "velocity": 65}, {"time": 268, "pitch": 67, "duration": 7, "velocity": 73}, {"time": 268, "pitch": 70, "duration": 8, "velocity": 66}, {"time": 280, "pitch": 67, "duration": 7, "velocity": 60}, {"time": 280, "pitch": 70, "duration": 7, "velocity": 61}, {"time": 286, "pitch": 62, "duration": 6, "velocity": 42}, {"time": 292, "pitch": 67, "duration": 7, "velocity": 44}, {"time": 292, "pitch": 70, "duration": 6, "velocity": 53}, {"time": 304, "pitch": 70, "duration": 5, "velocity": 112}, {"time": 307, "pitch": 67, "duration": 3, "velocity": 64}, {"time": 310, "pitch": 62, "duration": 7, "velocity": 69}, {"time": 316, "pitch": 48, "duration": 35, "velocity": 66}, {"time": 316, "pitch": 63, "duration": 10, "velocity": 61}, {"time": 316, "pitch": 67, "duration": 6, "velocity": 55}, {"time": 322, "pitch": 55, "duration": 8, "velocity": 36}, {"time": 328, "pitch": 60, "duration": 7, "velocity": 56}, {"time": 328, "pitch": 63, "duration": 6, "velocity": 55}, {"time": 328, "pitch": 67, "duration": 6, "velocity": 56}, {"time": 334, "pitch": 55, "duration": 9, "velocity": 31}, {"time": 340, "pitch": 60, "duration": 6, "velocity": 48}, {"time": 340, "pitch": 63, "duration": 6, "velocity": 43}, {"time": 340, "pitch": 67, "duration": 6, "velocity": 40}, {"time": 352, "pitch": 63, "duration": 6, "velocity": 92}, {"time": 352, "pitch": 67, "duration": 5, "velocity": 69}, {"time": 358, "pitch": 60, "duration": 6, "velocity": 52}, {"time": 364, "pitch": 46, "duration": 41, "velocity": 89}, {"time": 364, "pitch": 62, "duration": 8, "velocity": 64}, {"time": 364, "pitch": 65, "duration": 6, "velocity": 53}, {"time": 370, "pitch": 58, "duration": 9, "velocity": 48}, {"time": 376, "pitch": 62, "duration": 8, "velocity": 60}, {"time": 376, "pitch": 65, "duration": 6, "velocity": 59}, {"time": 382, "pitch": 58, "duration": 8, "velocity": 31}, {"time": 388, "pitch": 62, "duration": 6, "velocity": 42}, {"time": 388, "pitch": 65, "duration": 6, "velocity": 52}, {"time": 394, "pitch": 58, "duration": 6, "velocity": 37}, {"time": 400, "pitch": 62, "duration": 6, "velocity": 86}, {"time": 400, "pitch": 65, "duration": 7, "velocity": 86}, {"time": 403, "pitch": 58, "duration": 2, "velocity": 76}, {"time": 406, "pitch": 60, "duration": 4, "velocity": 77}, {"time": 409, "pitch": 62, "duration": 4, "velocity": 57}, {"time": 412, "pitch": 44, "duration": 41, "velocity": 88}, {"time": 412, "pitch": 63, "duration": 10, "velocity": 92}, {"time": 418, "pitch": 56, "duration": 9, "velocity": 41}, {"time": 424, "pitch": 60, "duration": 8, "velocity": 59}, {"time": 424, "pitch": 63, "duration": 8, "velocity": 92}, {"time": 430, "pitch": 56, "duration": 10, "velocity": 36}, {"time": 436, "pitch": 60, "duration": 6, "velocity": 58}, {"time": 436, "pitch": 63, "duration": 7, "velocity": 63}, {"time": 436, "pitch": 68, "duration": 6, "velocity": 60}, {"time": 442, "pitch": 56, "duration": 6, "velocity": 42}, {"time": 448, "pitch": 63, "duration": 6, "velocity": 92}, {"time": 448, "pitch": 68, "duration": 5, "velocity": 99}, {"time": 451, "pitch": 56, "duration": 1, "velocity": 48}, {"time": 454, "pitch": 60, "duration": 1, "velocity": 69}, {"time": 460, "pitch": 43, "duration": 21, "velocity": 64}, {"time": 460, "pitch": 55, "duration": 7, "velocity": 69}, {"time": 460, "pitch": 58, "duration": 7, "velocity": 59}, {"time": 460, "pitch": 62, "duration": 7, "velocity": 63}, {"time": 466, "pitch": 50, "duration": 10, "velocity": 34}, {"time": 472, "pitch": 55, "duration": 9, "velocity": 57}, {"time": 472, "pitch": 58, "duration": 9, "velocity": 70}, {"time": 472, "pitch": 62, "duration": 7, "velocity": 59}, {"time": 478, "pitch": 50, "duration": 6, "velocity": 43}, {"time": 484, "pitch": 48, "duration": 12, "velocity": 61}, {"time": 484, "pitch": 55, "duration": 19, "velocity": 59}, {"time": 484, "pitch": 60, "duration": 18, "velocity": 63}, {"time": 484, "pitch": 63, "duration": 18, "velocity": 53}, {"time": 508, "pitch": 41, "duration": 35, "velocity": 58}, {"time": 508, "pitch": 53, "duration": 8, "velocity": 53}, {"time": 508, "pitch": 56, "duration": 9, "velocity": 56}, {"time": 508, "pitch": 60, "duration": 8, "velocity": 58}, {"time": 514, "pitch": 48, "duration": 8, "velocity": 38}, {"time": 520, "pitch": 56, "duration": 10, "velocity": 63}, {"time": 520, "pitch": 60, "duration": 10, "velocity": 59}, {"time": 532, "pitch": 48, "duration": 11, "velocity": 29}, {"time": 532, "pitch": 53, "duration": 10, "velocity": 44}, {"time": 532, "pitch": 56, "duration": 10, "velocity": 41}, {"time": 532, "pitch": 60, "duration": 10, "velocity": 39}, {"time": 544, "pitch": 56, "duration": 5, "velocity": 74}, {"time": 544, "pitch": 60, "duration": 5, "velocity": 69}, {"time": 550, "pitch": 53, "duration": 4, "velocity": 56}, {"time": 556, "pitch": 46, "duration": 23, "velocity": 69}, {"time": 556, "pitch": 58, "duration": 13, "velocity": 99}, {"time": 556, "pitch": 62, "duration": 23, "velocity": 74}, {"time": 556, "pitch": 65, "duration": 23, "velocity": 63}, {"time": 568, "pitch": 48, "duration": 10, "velocity": 40}, {"time": 568, "pitch": 60, "duration": 10, "velocity": 70}, {"time": 580, "pitch": 46, "duration": 17, "velocity": 58}, {"time": 580, "pitch": 58, "duration": 17, "velocity": 66}, {"time": 580, "pitch": 62, "duration": 17, "velocity": 52}, {"time": 580, "pitch": 65, "duration": 17, "velocity": 49}, {"time": 604, "pitch": 39, "duration": 43, "velocity": 96}, {"time": 604, "pitch": 55, "duration": 10, "velocity": 79}, {"time": 604, "pitch": 58, "duration": 10, "velocity": 93}, {"time": 610, "pitch": 51, "duration": 8, "velocity": 55}, {"time": 616, "pitch": 58, "duration": 7, "velocity": 99}, {"time": 622, "pitch": 51, "duration": 8, "velocity": 57}, {"time": 628, "pitch": 55, "duration": 6, "velocity": 58}, {"time": 628, "pitch": 58, "duration": 6, "velocity": 100}, {"time": 628, "pitch": 63, "duration": 6, "velocity": 99}, {"time": 634, "pitch": 51, "duration": 8, "velocity": 58}, {"time": 640, "pitch": 58, "duration": 11, "velocity": 112}, {"time": 640, "pitch": 63, "duration": 7, "velocity": 107}, {"time": 646, "pitch": 51, "duration": 1, "velocity": 52}, {"time": 652, "pitch": 38, "duration": 38, "velocity": 71}, {"time": 652, "pitch": 55, "duration": 6, "velocity": 93}, {"time": 652, "pitch": 58, "duration": 9, "velocity": 99}, {"time": 652, "pitch": 62, "duration": 6, "velocity": 92}, {"time": 664, "pitch": 55, "duration": 6, "velocity": 74}, {"time": 664, "pitch": 58, "duration": 6, "velocity": 95}, {"time": 664, "pitch": 62, "duration": 6, "velocity": 79}, {"time": 670, "pitch": 43, "duration": 9, "velocity": 37}, {"time": 676, "pitch": 55, "duration": 7, "velocity": 75}, {"time": 676, "pitch": 58, "duration": 9, "velocity": 90}, {"time": 676, "pitch": 62, "duration": 6, "velocity": 77}, {"time": 688, "pitch": 58, "duration": 6, "velocity": 112}, {"time": 688, "pitch": 62, "duration": 7, "velocity": 89}, {"time": 691, "pitch": 43, "duration": 1, "velocity": 45}, {"time": 694, "pitch": 55, "duration": 15, "velocity": 107}, {"time": 697, "pitch": 58, "duration": 2, "velocity": 99}, {"time": 700, "pitch": 36, "duration": 39, "velocity": 70}, {"time": 700, "pitch": 60, "duration": 10, "velocity": 79}, {"time": 700, "pitch": 63, "duration": 10, "velocity": 93}, {"time": 706, "pitch": 43, "duration": 33, "velocity": 54}, {"time": 712, "pitch": 55, "duration": 8, "velocity": 86}, {"time": 712, "pitch": 60, "duration": 8, "velocity": 82}, {"time": 712, "pitch": 63, "duration": 8, "velocity": 82}, {"time": 718, "pitch": 48, "duration": 10, "velocity": 36}, {"time": 724, "pitch": 55, "duration": 7, "velocity": 74}, {"time": 724, "pitch": 60, "duration": 8, "velocity": 72}, {"time": 724, "pitch": 63, "duration": 7, "velocity": 67}, {"time": 730, "pitch": 48, "duration": 6, "velocity": 47}, {"time": 736, "pitch": 60, "duration": 6, "velocity": 93}, {"time": 736, "pitch": 63, "duration": 5, "velocity": 107}, {"time": 739, "pitch": 48, "duration": 2, "velocity": 56}, {"time": 742, "pitch": 55, "duration": 6, "velocity": 76}, {"time": 748, "pitch": 46, "duration": 13, "velocity": 86}, {"time": 748, "pitch": 58, "duration": 6, "velocity": 82}, {"time": 748, "pitch": 62, "duration": 6, "velocity": 72}, {"time": 748, "pitch": 65, "duration": 5, "velocity": 73}, {"time": 754, "pitch": 50, "duration": 8, "velocity": 56}, {"time": 760, "pitch": 62, "duration": 10, "velocity": 96}, {"time": 763, "pitch": 46, "duration": 2, "velocity": 77}, {"time": 766, "pitch": 58, "duration": 1, "velocity": 37}, {"time": 772, "pitch": 46, "duration": 14, "velocity": 52}, {"time": 772, "pitch": 58, "duration": 9, "velocity": 90}, {"time": 772, "pitch": 62, "duration": 9, "velocity": 72}, {"time": 784, "pitch": 65, "duration": 5, "velocity": 96}, {"time": 787, "pitch": 46, "duration": 2, "velocity": 58}, {"time": 790, "pitch": 58, "duration": 1, "velocity": 99}, {"time": 796, "pitch": 44, "duration": 42, "velocity": 73}, {"time": 796, "pitch": 56, "duration": 8, "velocity": 67}, {"time": 796, "pitch": 60, "duration": 6, "velocity": 77}, {"time": 796, "pitch": 63, "duration": 7, "velocity": 63}, {"time": 802, "pitch": 51, "duration": 9, "velocity": 48}, {"time": 808, "pitch": 56, "duration": 7, "velocity": 73}, {"time": 808, "pitch": 60, "duration": 6, "velocity": 93}, {"time": 808, "pitch": 63, "duration": 7, "velocity": 79}, {"time": 814, "pitch": 48, "duration": 22, "velocity": 19}, {"time": 814, "pitch": 51, "duration": 20, "velocity": 34}, {"time": 820, "pitch": 56, "duration": 7, "velocity": 72}, {"time": 820, "pitch": 60, "duration": 6, "velocity": 88}, {"time": 820, "pitch": 63, "duration": 6, "velocity": 68}, {"time": 832, "pitch": 56, "duration": 6, "velocity": 89}, {"time": 832, "pitch": 60, "duration": 5, "velocity": 112}, {"time": 832, "pitch": 63, "duration": 5, "velocity": 102}, {"time": 838, "pitch": 51, "duration": 2, "velocity": 67}, {"time": 844, "pitch": 43, "duration": 16, "velocity": 67}, {"time": 844, "pitch": 55, "duration": 10, "velocity": 83}, {"time": 844, "pitch": 58, "duration": 10, "velocity": 89}, {"time": 844, "pitch": 62, "duration": 10, "velocity": 79}, {"time": 856, "pitch": 55, "duration": 4, "velocity": 83}, {"time": 856, "pitch": 58, "duration": 7, "velocity": 96}, {"time": 856, "pitch": 62, "duration": 7, "velocity": 82}, {"time": 862, "pitch": 55, "duration": 3, "velocity": 34}, {"time": 868, "pitch": 48, "duration": 5, "velocity": 60}, {"time": 868, "pitch": 55, "duration": 4, "velocity": 81}, {"time": 868, "pitch": 60, "duration": 4, "velocity": 88}, {"time": 868, "pitch": 63, "duration": 4, "velocity": 82}, {"time": 880, "pitch": 47, "duration": 6, "velocity": 56}, {"time": 880, "pitch": 59, "duration": 6, "velocity": 85}, {"time": 880, "pitch": 62, "duration": 5, "velocity": 78}, {"time": 880, "pitch": 65, "duration": 5, "velocity": 66}, {"time": 880, "pitch": 69, "duration": 5, "velocity": 72}, {"time": 892, "pitch": 41, "duration": 35, "velocity": 63}, {"time": 892, "pitch": 53, "duration": 8, "velocity": 74}, {"time": 892, "pitch": 56, "duration": 10, "velocity": 71}, {"time": 892, "pitch": 60, "duration": 7, "velocity": 72}, {"time": 898, "pitch": 48, "duration": 7, "velocity": 37}, {"time": 904, "pitch": 56, "duration": 6, "velocity": 96}, {"time": 904, "pitch": 60, "duration": 6, "velocity": 90}, {"time": 910, "pitch": 48, "duration": 9, "velocity": 35}, {"time": 916, "pitch": 53, "duration": 6, "velocity": 89}, {"time": 916, "pitch": 56, "duration": 5, "velocity": 93}, {"time": 916, "pitch": 60, "duration": 6, "velocity": 73}, {"time": 922, "pitch": 48, "duration": 4, "velocity": 38}, {"time": 928, "pitch": 56, "duration": 5, "velocity": 117}, {"time": 928, "pitch": 60, "duration": 5, "velocity": 81}, {"time": 934, "pitch": 53, "duration": 1, "velocity": 72}, {"time": 940, "pitch": 46, "duration": 21, "velocity": 100}, {"time": 940, "pitch": 58, "duration": 6, "velocity": 117}, {"time": 940, "pitch": 62, "duration": 5, "velocity": 100}, {"time": 940, "pitch": 65, "duration": 5, "velocity": 93}, {"time": 946, "pitch": 50, "duration": 15, "velocity": 37}, {"time": 952, "pitch": 58, "duration": 2, "velocity": 107}, {"time": 952, "pitch": 62, "duration": 2, "velocity": 85}, {"time": 952, "pitch": 65, "duration": 2, "velocity": 77}, {"time": 958, "pitch": 53, "duration": 2, "velocity": 24}, {"time": 964, "pitch": 46, "duration": 16, "velocity": 83}, {"time": 964, "pitch": 50, "duration": 16, "velocity": 70}, {"time": 964, "pitch": 53, "duration": 16, "velocity": 72}, {"time": 970, "pitch": 58, "duration": 1, "velocity": 102}, {"time": 970, "pitch": 70, "duration": 1, "velocity": 100}, {"time": 976, "pitch": 60, "duration": 3, "velocity": 107}, {"time": 976, "pitch": 72, "duration": 1, "velocity": 88}, {"time": 982, "pitch": 62, "duration": 1, "velocity": 127}, {"time": 988, "pitch": 44, "duration": 42, "velocity": 70}, {"time": 988, "pitch": 51, "duration": 15, "velocity": 97}, {"time": 988, "pitch": 56, "duration": 10, "velocity": 107}, {"time": 988, "pitch": 60, "duration": 9, "velocity": 117}, {"time": 988, "pitch": 63, "duration": 9, "velocity": 97}, {"time": 997, "pitch": 48, "duration": 34, "velocity": 32}, {"time": 1000, "pitch": 56, "duration": 6, "velocity": 89}, {"time": 1000, "pitch": 60, "duration": 6, "velocity": 78}, {"time": 1000, "pitch": 63, "duration": 9, "velocity": 83}, {"time": 1006, "pitch": 51, "duration": 9, "velocity": 37}, {"time": 1012, "pitch": 56, "duration": 9, "velocity": 77}, {"time": 1012, "pitch": 60, "duration": 6, "velocity": 66}, {"time": 1012, "pitch": 63, "duration": 9, "velocity": 72}, {"time": 1012, "pitch": 68, "duration": 7, "velocity": 79}, {"time": 1018, "pitch": 51, "duration": 8, "velocity": 46}, {"time": 1024, "pitch": 56, "duration": 6, "velocity": 102}, {"time": 1024, "pitch": 60, "duration": 5, "velocity": 122}, {"time": 1024, "pitch": 63, "duration": 5, "velocity": 96}, {"time": 1024, "pitch": 68, "duration": 5, "velocity": 92}, {"time": 1030, "pitch": 51, "duration": 2, "velocity": 74}, {"time": 1036, "pitch": 43, "duration": 12, "velocity": 68}, {"time": 1036, "pitch": 55, "duration": 7, "velocity": 102}, {"time": 1036, "pitch": 58, "duration": 10, "velocity": 107}, {"time": 1036, "pitch": 62, "duration": 7, "velocity": 88}, {"time": 1036, "pitch": 65, "duration": 7, "velocity": 89}, {"time": 1042, "pitch": 50, "duration": 7, "velocity": 48}, {"time": 1048, "pitch": 58, "duration": 7, "velocity": 100}, {"time": 1048, "pitch": 62, "duration": 7, "velocity": 88}, {"time": 1048, "pitch": 65, "duration": 6, "velocity": 82}, {"time": 1054, "pitch": 55, "duration": 4, "velocity": 72}, {"time": 1060, "pitch": 36, "duration": 11, "velocity": 57}, {"time": 1060, "pitch": 55, "duration": 9, "velocity": 67}, {"time": 1060, "pitch": 60, "duration": 10, "velocity": 81}, {"time": 1060, "pitch": 63, "duration": 10, "velocity": 90}, {"time": 1072, "pitch": 60, "duration": 7, "velocity": 95}, {"time": 1072, "pitch": 63, "duration": 6, "velocity": 102}, {"time": 1084, "pitch": 41, "duration": 12, "velocity": 69}, {"time": 1084, "pitch": 53, "duration": 5, "velocity": 82}, {"time": 1084, "pitch": 56, "duration": 7, "velocity": 93}, {"time": 1084, "pitch": 60, "duration": 7, "velocity": 81}, {"time": 1090, "pitch": 48, "duration": 6, "velocity": 58}, {"time": 1096, "pitch": 55, "duration": 5, "velocity": 83}, {"time": 1102, "pitch": 56, "duration": 1, "velocity": 82}, {"time": 1108, "pitch": 46, "duration": 15, "velocity": 92}, {"time": 1108, "pitch": 58, "duration": 7, "velocity": 112}, {"time": 1108, "pitch": 62, "duration": 6, "velocity": 88}, {"time": 1108, "pitch": 65, "duration": 6, "velocity": 81}, {"time": 1120, "pitch": 58, "duration": 4, "velocity": 117}, {"time": 1120, "pitch": 62, "duration": 4, "velocity": 96}, {"time": 1132, "pitch": 39, "duration": 23, "velocity": 107}, {"time": 1132, "pitch": 63, "duration": 6, "velocity": 99}, {"time": 1132, "pitch": 67, "duration": 5, "velocity": 96}, {"time": 1132, "pitch": 70, "duration": 5, "velocity": 97}, {"time": 1138, "pitch": 51, "duration": 8, "velocity": 57}, {"time": 1144, "pitch": 63, "duration": 7, "velocity": 102}, {"time": 1144, "pitch": 67, "duration": 5, "velocity": 122}, {"time": 1144, "pitch": 70, "duration": 6, "velocity": 107}, {"time": 1150, "pitch": 51, "duration": 4, "velocity": 47}, {"time": 1156, "pitch": 39, "duration": 3, "velocity": 37}, {"time": 1156, "pitch": 51, "duration": 2, "velocity": 99}, {"time": 1156, "pitch": 63, "duration": 6, "velocity": 107}, {"time": 1156, "pitch": 67, "duration": 5, "velocity": 117}, {"time": 1156, "pitch": 70, "duration": 9, "velocity": 122}, {"time": 1168, "pitch": 38, "duration": 12, "velocity": 86}, {"time": 1168, "pitch": 62, "duration": 9, "velocity": 112}, {"time": 1180, "pitch": 36, "duration": 15, "velocity": 77}, {"time": 1180, "pitch": 60, "duration": 9, "velocity": 93}, {"time": 1180, "pitch": 63, "duration": 10, "velocity": 102}, {"time": 1180, "pitch": 67, "duration": 6, "velocity": 89}, {"time": 1186, "pitch": 48, "duration": 11, "velocity": 41}, {"time": 1192, "pitch": 60, "duration": 5, "velocity": 85}, {"time": 1192, "pitch": 63, "duration": 4, "velocity": 99}, {"time": 1192, "pitch": 67, "duration": 4, "velocity": 86}, {"time": 1204, "pitch": 46, "duration": 18, "velocity": 58}, {"time": 1204, "pitch": 50, "duration": 18, "velocity": 67}, {"time": 1204, "pitch": 53, "duration": 10, "velocity": 49}, {"time": 1204, "pitch": 58, "duration": 7, "velocity": 102}, {"time": 1204, "pitch": 62, "duration": 6, "velocity": 92}, {"time": 1204, "pitch": 65, "duration": 6, "velocity": 90}, {"time": 1216, "pitch": 58, "duration": 8, "velocity": 117}, {"time": 1216, "pitch": 62, "duration": 8, "velocity": 88}, {"time": 1216, "pitch": 65, "duration": 6, "velocity": 76}, {"time": 1228, "pitch": 43, "duration": 14, "velocity": 69}, {"time": 1228, "pitch": 55, "duration": 9, "velocity": 90}, {"time": 1228, "pitch": 58, "duration": 10, "velocity": 99}, {"time": 1228, "pitch": 62, "duration": 7, "velocity": 81}, {"time": 1228, "pitch": 65, "duration": 2, "velocity": 73}, {"time": 1234, "pitch": 50, "duration": 6, "velocity": 36}, {"time": 1240, "pitch": 58, "duration": 10, "velocity": 97}, {"time": 1240, "pitch": 62, "duration": 7, "velocity": 89}, {"time": 1252, "pitch": 48, "duration": 35, "velocity": 66}, {"time": 1252, "pitch": 55, "duration": 36, "velocity": 93}, {"time": 1252, "pitch": 60, "duration": 36, "velocity": 93}, {"time": 1252, "pitch": 63, "duration": 36, "velocity": 97}, {"time": 1300, "pitch": 41, "duration": 12, "velocity": 65}, {"time": 1300, "pitch": 53, "duration": 9, "velocity": 82}, {"time": 1300, "pitch": 56, "duration": 10, "velocity": 83}, {"time": 1300, "pitch": 60, "duration": 7, "velocity": 77}, {"time": 1306, "pitch": 48, "duration": 6, "velocity": 38}, {"time": 1312, "pitch": 56, "duration": 2, "velocity": 83}, {"time": 1324, "pitch": 46, "duration": 15, "velocity": 55}, {"time": 1324, "pitch": 58, "duration": 17, "velocity": 96}, {"time": 1324, "pitch": 62, "duration": 17, "velocity": 78}, {"time": 1324, "pitch": 65, "duration": 16, "velocity": 32}, {"time": 1348, "pitch": 39, "duration": 38, "velocity": 95}, {"time": 1348, "pitch": 55, "duration": 6, "velocity": 51}, {"time": 1348, "pitch": 58, "duration": 10, "velocity": 63}, {"time": 1348, "pitch": 63, "duration": 20, "velocity": 58}, {"time": 1354, "pitch": 51, "duration": 8, "velocity": 45}, {"time": 1360, "pitch": 55, "duration": 8, "velocity": 83}, {"time": 1366, "pitch": 51, "duration": 19, "velocity": 45}, {"time": 1372, "pitch": 55, "duration": 16, "velocity": 61}, {"time": 1372, "pitch": 58, "duration": 14, "velocity": 65}, {"time": 1372, "pitch": 63, "duration": 15, "velocity": 61}, {"time": 1396, "pitch": 32, "duration": 42, "velocity": 72}, {"time": 1396, "pitch": 56, "duration": 9, "velocity": 85}, {"time": 1396, "pitch": 60, "duration": 5, "velocity": 88}, {"time": 1396, "pitch": 63, "duration": 5, "velocity": 95}, {"time": 1399, "pitch": 72, "duration": 1, "velocity": 74}, {"time": 1402, "pitch": 44, "duration": 9, "velocity": 47}, {"time": 1402, "pitch": 72, "duration": 4, "velocity": 71}, {"time": 1405, "pitch": 84, "duration": 3, "velocity": 90}, {"time": 1408, "pitch": 56, "duration": 10, "velocity": 47}, {"time": 1408, "pitch": 60, "duration": 7, "velocity": 67}, {"time": 1408, "pitch": 63, "duration": 7, "velocity": 61}, {"time": 1408, "pitch": 72, "duration": 2, "velocity": 81}, {"time": 1411, "pitch": 72, "duration": 2, "velocity": 72}, {"time": 1414, "pitch": 44, "duration": 4, "velocity": 23}, {"time": 1414, "pitch": 72, "duration": 4, "velocity": 71}, {"time": 1417, "pitch": 84, "duration": 3, "velocity": 86}, {"time": 1420, "pitch": 44, "duration": 20, "velocity": 54}, {"time": 1420, "pitch": 56, "duration": 10, "velocity": 57}, {"time": 1420, "pitch": 60, "duration": 9, "velocity": 74}, {"time": 1420, "pitch": 63, "duration": 8, "velocity": 62}, {"time": 1420, "pitch": 72, "duration": 2, "velocity": 58}, {"time": 1423, "pitch": 72, "duration": 1, "velocity": 54}, {"time": 1426, "pitch": 72, "duration": 3, "velocity": 61}, {"time": 1429, "pitch": 82, "duration": 3, "velocity": 74}, {"time": 1432, "pitch": 60, "duration": 10, "velocity": 64}, {"time": 1432, "pitch": 63, "duration": 9, "velocity": 54}, {"time": 1432, "pitch": 72, "duration": 2, "velocity": 65}, {"time": 1435, "pitch": 72, "duration": 2, "velocity": 66}, {"time": 1438, "pitch": 72, "duration": 3, "velocity": 66}, {"time": 1444, "pitch": 32, "duration": 46, "velocity": 63}, {"time": 1444, "pitch": 56, "duration": 9, "velocity": 90}, {"time": 1444, "pitch": 60, "duration": 7, "velocity": 95}, {"time": 1444, "pitch": 63, "duration": 7, "velocity": 89}, {"time": 1447, "pitch": 44, "duration": 8, "velocity": 38}, {"time": 1447, "pitch": 72, "duration": 2, "velocity": 81}, {"time": 1450, "pitch": 70, "duration": 3, "velocity": 88}, {"time": 1453, "pitch": 72, "duration": 3, "velocity": 95}, {"time": 1456, "pitch": 56, "duration": 11, "velocity": 67}, {"time": 1456, "pitch": 60, "duration": 8, "velocity": 72}, {"time": 1456, "pitch": 63, "duration": 8, "velocity": 52}, {"time": 1459, "pitch": 72, "duration": 3, "velocity": 90}, {"time": 1462, "pitch": 70, "duration": 4, "velocity": 81}, {"time": 1465, "pitch": 44, "duration": 15, "velocity": 27}, {"time": 1465, "pitch": 72, "duration": 3, "velocity": 82}, {"time": 1468, "pitch": 56, "duration": 9, "velocity": 36}, {"time": 1468, "pitch": 60, "duration": 7, "velocity": 52}, {"time": 1468, "pitch": 63, "duration": 7, "velocity": 38}, {"time": 1468, "pitch": 75, "duration": 3, "velocity": 100}, {"time": 1471, "pitch": 72, "duration": 3, "velocity": 74}, {"time": 1474, "pitch": 70, "duration": 3, "velocity": 93}, {"time": 1477, "pitch": 72, "duration": 4, "velocity": 76}, {"time": 1480, "pitch": 56, "duration": 9, "velocity": 69}, {"time": 1480, "pitch": 60, "duration": 7, "velocity": 75}, {"time": 1480, "pitch": 63, "duration": 7, "velocity": 46}, {"time": 1483, "pitch": 72, "duration": 2, "velocity": 90}, {"time": 1486, "pitch": 44, "duration": 6, "velocity": 41}, {"time": 1486, "pitch": 70, "duration": 2, "velocity": 78}, {"time": 1489, "pitch": 72, "duration": 2, "velocity": 86}, {"time": 1492, "pitch": 36, "duration": 41, "velocity": 60}, {"time": 1492, "pitch": 43, "duration": 41, "velocity": 64}, {"time": 1492, "pitch": 48, "duration": 14, "velocity": 90}, {"time": 1492, "pitch": 55, "duration": 10, "velocity": 96}, {"time": 1492, "pitch": 60, "duration": 11, "velocity": 93}, {"time": 1492, "pitch": 63, "duration": 10, "velocity": 99}, {"time": 1492, "pitch": 70, "duration": 5, "velocity": 50}, {"time": 1495, "pitch": 72, "duration": 3, "velocity": 89}, {"time": 1498, "pitch": 70, "duration": 3, "velocity": 82}, {"time": 1501, "pitch": 72, "duration": 4, "velocity": 89}, {"time": 1504, "pitch": 55, "duration": 10, "velocity": 86}, {"time": 1504, "pitch": 60, "duration": 9, "velocity": 90}, {"time": 1504, "pitch": 63, "duration": 8, "velocity": 90}, {"time": 1507, "pitch": 72, "duration": 3, "velocity": 70}, {"time": 1510, "pitch": 48, "duration": 23, "velocity": 29}, {"time": 1510, "pitch": 70, "duration": 3, "velocity": 72}, {"time": 1513, "pitch": 72, "duration": 3, "velocity": 96}, {"time": 1516, "pitch": 55, "duration": 10, "velocity": 73}, {"time": 1516, "pitch": 60, "duration": 10, "velocity": 77}, {"time": 1516, "pitch": 63, "duration": 10, "velocity": 81}, {"time": 1516, "pitch": 75, "duration": 2, "velocity": 122}, {"time": 1519, "pitch": 72, "duration": 4, "velocity": 90}, {"time": 1522, "pitch": 75, "duration": 4, "velocity": 95}, {"time": 1525, "pitch": 77, "duration": 2, "velocity": 85}, {"time": 1528, "pitch": 60, "duration": 6, "velocity": 102}, {"time": 1528, "pitch": 63, "duration": 6, "velocity": 102}, {"time": 1528, "pitch": 75, "duration": 4, "velocity": 99}, {"time": 1531, "pitch": 72, "duration": 5, "velocity": 86}, {"time": 1534, "pitch": 55, "duration": 3, "velocity": 72}, {"time": 1534, "pitch": 75, "duration": 3, "velocity": 100}, {"time": 1537, "pitch": 79, "duration": 3, "velocity": 100}, {"time": 1540, "pitch": 41, "duration": 18, "velocity": 85}, {"time": 1540, "pitch": 53, "duration": 6, "velocity": 90}, {"time": 1540, "pitch": 56, "duration": 9, "velocity": 102}, {"time": 1540, "pitch": 60, "duration": 6, "velocity": 90}, {"time": 1540, "pitch": 77, "duration": 3, "velocity": 97}, {"time": 1543, "pitch": 72, "duration": 4, "velocity": 79}, {"time": 1546, "pitch": 48, "duration": 8, "velocity": 31}, {"time": 1546, "pitch": 75, "duration": 3, "velocity": 92}, {"time": 1549, "pitch": 77, "duration": 7, "velocity": 97}, {"time": 1552, "pitch": 53, "duration": 8, "velocity": 95}, {"time": 1552, "pitch": 56, "duration": 7, "velocity": 117}, {"time": 1552, "pitch": 60, "duration": 7, "velocity": 95}, {"time": 1555, "pitch": 72, "duration": 4, "velocity": 81}, {"time": 1558, "pitch": 75, "duration": 3, "velocity": 117}, {"time": 1561, "pitch": 77, "duration": 1, "velocity": 96}, {"time": 1564, "pitch": 34, "duration": 19, "velocity": 82}, {"time": 1564, "pitch": 53, "duration": 10, "velocity": 95}, {"time": 1564, "pitch": 58, "duration": 10, "velocity": 102}, {"time": 1564, "pitch": 62, "duration": 7, "velocity": 93}, {"time": 1564, "pitch": 82, "duration": 37, "velocity": 122}, {"time": 1570, "pitch": 46, "duration": 5, "velocity": 31}, {"time": 1576, "pitch": 53, "duration": 10, "velocity": 66}, {"time": 1576, "pitch": 58, "duration": 10, "velocity": 95}, {"time": 1576, "pitch": 62, "duration": 6, "velocity": 93}, {"time": 1588, "pitch": 34, "duration": 23, "velocity": 66}, {"time": 1588, "pitch": 46, "duration": 23, "velocity": 67}, {"time": 1588, "pitch": 53, "duration": 23, "velocity": 66}, {"time": 1588, "pitch": 58, "duration": 23, "velocity": 83}, {"time": 1588, "pitch": 62, "duration": 23, "velocity": 74}, {"time": 1613, "pitch": 39, "duration": 42, "velocity": 96}, {"time": 1614, "pitch": 55, "duration": 8, "velocity": 79}, {"time": 1614, "pitch": 58, "duration": 8, "velocity": 93}, {"time": 1618, "pitch": 51, "duration": 8, "velocity": 55}, {"time": 1624, "pitch": 58, "duration": 7, "velocity": 99}, {"time": 1630, "pitch": 51, "duration": 8, "velocity": 57}, {"time": 1636, "pitch": 55, "duration": 6, "velocity": 58}, {"time": 1636, "pitch": 58, "duration": 6, "velocity": 100}, {"time": 1636, "pitch": 63, "duration": 6, "velocity": 99}, {"time": 1642, "pitch": 51, "duration": 8, "velocity": 58}, {"time": 1648, "pitch": 58, "duration": 11, "velocity": 112}, {"time": 1648, "pitch": 63, "duration": 7, "velocity": 107}, {"time": 1654, "pitch": 51, "duration": 1, "velocity": 52}, {"time": 1660, "pitch": 38, "duration": 38, "velocity": 71}, {"time": 1660, "pitch": 55, "duration": 6, "velocity": 93}, {"time": 1660, "pitch": 58, "duration": 9, "velocity": 99}, {"time": 1660, "pitch": 62, "duration": 6, "velocity": 92}, {"time": 1672, "pitch": 55, "duration": 6, "velocity": 74}, {"time": 1672, "pitch": 58, "duration": 6, "velocity": 95}, {"time": 1672, "pitch": 62, "duration": 6, "velocity": 79}, {"time": 1678, "pitch": 43, "duration": 9, "velocity": 37}, {"time": 1684, "pitch": 55, "duration": 7, "velocity": 75}, {"time": 1684, "pitch": 58, "duration": 9, "velocity": 90}, {"time": 1684, "pitch": 62, "duration": 6, "velocity": 77}, {"time": 1696, "pitch": 58, "duration": 6, "velocity": 112}, {"time": 1696, "pitch": 62, "duration": 7, "velocity": 89}, {"time": 1699, "pitch": 43, "duration": 1, "velocity": 45}, {"time": 1702, "pitch": 55, "duration": 15, "velocity": 107}, {"time": 1705, "pitch": 58, "duration": 2, "velocity": 99}, {"time": 1708, "pitch": 36, "duration": 39, "velocity": 70}, {"time": 1708, "pitch": 60, "duration": 10, "velocity": 79}, {"time": 1708, "pitch": 63, "duration": 10, "velocity": 93}, {"time": 1714, "pitch": 43, "duration": 33, "velocity": 54}, {"time": 1720, "pitch": 55, "duration": 8, "velocity": 86}, {"time": 1720, "pitch": 60, "duration": 8, "velocity": 82}, {"time": 1720, "pitch": 63, "duration": 8, "velocity": 82}, {"time": 1726, "pitch": 48, "duration": 10, "velocity": 36}, {"time": 1732, "pitch": 55, "duration": 7, "velocity": 74}, {"time": 1732, "pitch": 60, "duration": 8, "velocity": 72}, {"time": 1732, "pitch": 63, "duration": 7, "velocity": 67}, {"time": 1738, "pitch": 48, "duration": 6, "velocity": 47}, {"time": 1744, "pitch": 60, "duration": 6, "velocity": 93}, {"time": 1744, "pitch": 63, "duration": 5, "velocity": 107}, {"time": 1747, "pitch": 48, "duration": 2, "velocity": 56}, {"time": 1750, "pitch": 55, "duration": 6, "velocity": 76}, {"time": 1756, "pitch": 46, "duration": 13, "velocity": 86}, {"time": 1756, "pitch": 58, "duration": 6, "velocity": 82}, {"time": 1756, "pitch": 62, "duration": 6, "velocity": 72}, {"time": 1756, "pitch": 65, "duration": 5, "velocity": 73}, {"time": 1762, "pitch": 50, "duration": 8, "velocity": 56}, {"time": 1768, "pitch": 62, "duration": 10, "velocity": 96}, {"time": 1771, "pitch": 46, "duration": 2, "velocity": 77}, {"time": 1774, "pitch": 58, "duration": 1, "velocity": 37}, {"time": 1780, "pitch": 46, "duration": 14, "velocity": 52}, {"time": 1780, "pitch": 58, "duration": 9, "velocity": 90}, {"time": 1780, "pitch": 62, "duration": 9, "velocity": 72}, {"time": 1792, "pitch": 65, "duration": 5, "velocity": 96}, {"time": 1795, "pitch": 46, "duration": 2, "velocity": 58}, {"time": 1798, "pitch": 58, "duration": 1, "velocity": 99}, {"time": 1804, "pitch": 44, "duration": 42, "velocity": 73}, {"time": 1804, "pitch": 56, "duration": 8, "velocity": 67}, {"time": 1804, "pitch": 60, "duration": 6, "velocity": 77}, {"time": 1804, "pitch": 63, "duration": 7, "velocity": 63}, {"time": 1810, "pitch": 51, "duration": 9, "velocity": 48}, {"time": 1816, "pitch": 56, "duration": 7, "velocity": 73}, {"time": 1816, "pitch": 60, "duration": 6, "velocity": 93}, {"time": 1816, "pitch": 63, "duration": 7, "velocity": 79}, {"time": 1822, "pitch": 48, "duration": 22, "velocity": 19}, {"time": 1822, "pitch": 51, "duration": 20, "velocity": 34}, {"time": 1828, "pitch": 56, "duration": 7, "velocity": 72}, {"time": 1828, "pitch": 60, "duration": 6, "velocity": 88}, {"time": 1828, "pitch": 63, "duration": 6, "velocity": 68}, {"time": 1840, "pitch": 56, "duration": 6, "velocity": 89}, {"time": 1840, "pitch": 60, "duration": 5, "velocity": 112}, {"time": 1840, "pitch": 63, "duration": 5, "velocity": 102}, {"time": 1846, "pitch": 51, "duration": 2, "velocity": 67}, {"time": 1852, "pitch": 43, "duration": 16, "velocity": 67}, {"time": 1852, "pitch": 55, "duration": 10, "velocity": 83}, {"time": 1852, "pitch": 58, "duration": 10, "velocity": 89}, {"time": 1852, "pitch": 62, "duration": 10, "velocity": 79}, {"time": 1864, "pitch": 55, "duration": 4, "velocity": 83}, {"time": 1864, "pitch": 58, "duration": 7, "velocity": 96}, {"time": 1864, "pitch": 62, "duration": 7, "velocity": 82}, {"time": 1870, "pitch": 55, "duration": 3, "velocity": 34}, {"time": 1876, "pitch": 48, "duration": 5, "velocity": 60}, {"time": 1876, "pitch": 55, "duration": 4, "velocity": 81}, {"time": 1876, "pitch": 60, "duration": 4, "velocity": 88}, {"time": 1876, "pitch": 63, "duration": 4, "velocity": 82}, {"time": 1888, "pitch": 47, "duration": 6, "velocity": 56}, {"time": 1888, "pitch": 59, "duration": 6, "velocity": 85}, {"time": 1888, "pitch": 62, "duration": 5, "velocity": 78}, {"time": 1888, "pitch": 65, "duration": 5, "velocity": 66}, {"time": 1888, "pitch": 69, "duration": 5, "velocity": 72}, {"time": 1900, "pitch": 41, "duration": 35, "velocity": 63}, {"time": 1900, "pitch": 53, "duration": 8, "velocity": 74}, {"time": 1900, "pitch": 56, "duration": 10, "velocity": 71}, {"time": 1900, "pitch": 60, "duration": 7, "velocity": 72}, {"time": 1906, "pitch": 48, "duration": 7, "velocity": 37}, {"time": 1912, "pitch": 56, "duration": 6, "velocity": 96}, {"time": 1912, "pitch": 60, "duration": 6, "velocity": 90}, {"time": 1918, "pitch": 48, "duration": 9, "velocity": 35}, {"time": 1924, "pitch": 53, "duration": 6, "velocity": 89}, {"time": 1924, "pitch": 56, "duration": 5, "velocity": 93}, {"time": 1924, "pitch": 60, "duration": 6, "velocity": 73}, {"time": 1930, "pitch": 48, "duration": 4, "velocity": 38}, {"time": 1936, "pitch": 56, "duration": 5, "velocity": 117}, {"time": 1936, "pitch": 60, "duration": 5, "velocity": 81}, {"time": 1942, "pitch": 53, "duration": 1, "velocity": 72}, {"time": 1948, "pitch": 46, "duration": 21, "velocity": 100}, {"time": 1948, "pitch": 58, "duration": 6, "velocity": 117}, {"time": 1948, "pitch": 62, "duration": 5, "velocity": 100}, {"time": 1948, "pitch": 65, "duration": 5, "velocity": 93}, {"time": 1954, "pitch": 50, "duration": 15, "velocity": 37}, {"time": 1960, "pitch": 58, "duration": 2, "velocity": 107}, {"time": 1960, "pitch": 62, "duration": 2, "velocity": 85}, {"time": 1960, "pitch": 65, "duration": 2, "velocity": 77}, {"time": 1966, "pitch": 53, "duration": 2, "velocity": 24}, {"time": 1972, "pitch": 46, "duration": 16, "velocity": 83}, {"time": 1972, "pitch": 50, "duration": 16, "velocity": 70}, {"time": 1972, "pitch": 53, "duration": 16, "velocity": 72}, {"time": 1978, "pitch": 58, "duration": 1, "velocity": 102}, {"time": 1978, "pitch": 70, "duration": 1, "velocity": 100}, {"time": 1984, "pitch": 60, "duration": 3, "velocity": 107}, {"time": 1984, "pitch": 72, "duration": 1, "velocity": 88}, {"time": 1990, "pitch": 62, "duration": 1, "velocity": 127}, {"time": 1996, "pitch": 44, "duration": 42, "velocity": 70}, {"time": 1996, "pitch": 51, "duration": 15, "velocity": 97}, {"time": 1996, "pitch": 56, "duration": 10, "velocity": 107}, {"time": 1996, "pitch": 60, "duration": 9, "velocity": 117}, {"time": 1996, "pitch": 63, "duration": 9, "velocity": 97}, {"time": 2005, "pitch": 48, "duration": 34, "velocity": 32}, {"time": 2008, "pitch": 56, "duration": 6, "velocity": 89}, {"time": 2008, "pitch": 60, "duration": 6, "velocity": 78}, {"time": 2008, "pitch": 63, "duration": 9, "velocity": 83}, {"time": 2014, "pitch": 51, "duration": 9, "velocity": 37}, {"time": 2020, "pitch": 56, "duration": 9, "velocity": 77}, {"time": 2020, "pitch": 60, "duration": 6, "velocity": 66}, {"time": 2020, "pitch": 63, "duration": 9, "velocity": 72}, {"time": 2020, "pitch": 68, "duration": 7, "velocity": 79}, {"time": 2026, "pitch": 51, "duration": 8, "velocity": 46}, {"time": 2032, "pitch": 56, "duration": 6, "velocity": 102}, {"time": 2032, "pitch": 60, "duration": 5, "velocity": 122}, {"time": 2032, "pitch": 63, "duration": 5, "velocity": 96}, {"time": 2032, "pitch": 68, "duration": 5, "velocity": 92}, {"time": 2038, "pitch": 51, "duration": 2, "velocity": 74}, {"time": 2044, "pitch": 43, "duration": 12, "velocity": 68}, {"time": 2044, "pitch": 55, "duration": 7, "velocity": 102}, {"time": 2044, "pitch": 58, "duration": 10, "velocity": 107}, {"time": 2044, "pitch": 62, "duration": 7, "velocity": 88}, {"time": 2044, "pitch": 65, "duration": 7, "velocity": 89}, {"time": 2050, "pitch": 50, "duration": 7, "velocity": 48}, {"time": 2056, "pitch": 58, "duration": 7, "velocity": 100}, {"time": 2056, "pitch": 62, "duration": 7, "velocity": 88}, {"time": 2056, "pitch": 65, "duration": 6, "velocity": 82}, {"time": 2062, "pitch": 55, "duration": 4, "velocity": 72}, {"time": 2068, "pitch": 36, "duration": 11, "velocity": 57}, {"time": 2068, "pitch": 55, "duration": 9, "velocity": 67}, {"time": 2068, "pitch": 60, "duration": 10, "velocity": 81}, {"time": 2068, "pitch": 63, "duration": 10, "velocity": 90}, {"time": 2080, "pitch": 60, "duration": 7, "velocity": 95}, {"time": 2080, "pitch": 63, "duration": 6, "velocity": 102}, {"time": 2092, "pitch": 41, "duration": 12, "velocity": 69}, {"time": 2092, "pitch": 53, "duration": 5, "velocity": 82}, {"time": 2092, "pitch": 56, "duration": 7, "velocity": 93}, {"time": 2092, "pitch": 60, "duration": 7, "velocity": 81}, {"time": 2098, "pitch": 48, "duration": 6, "velocity": 58}, {"time": 2104, "pitch": 55, "duration": 5, "velocity": 83}, {"time": 2110, "pitch": 56, "duration": 1, "velocity": 82}, {"time": 2116, "pitch": 46, "duration": 15, "velocity": 92}, {"time": 2116, "pitch": 58, "duration": 7, "velocity": 112}, {"time": 2116, "pitch": 62, "duration": 6, "velocity": 88}, {"time": 2116, "pitch": 65, "duration": 6, "velocity": 81}, {"time": 2128, "pitch": 58, "duration": 4, "velocity": 117}, {"time": 2128, "pitch": 62, "duration": 4, "velocity": 96}, {"time": 2140, "pitch": 39, "duration": 23, "velocity": 107}, {"time": 2140, "pitch": 63, "duration": 6, "velocity": 99}, {"time": 2140, "pitch": 67, "duration": 5, "velocity": 96}, {"time": 2140, "pitch": 70, "duration": 5, "velocity": 97}, {"time": 2146, "pitch": 51, "duration": 8, "velocity": 57}, {"time": 2152, "pitch": 63, "duration": 7, "velocity": 102}, {"time": 2152, "pitch": 67, "duration": 5, "velocity": 122}, {"time": 2152, "pitch": 70, "duration": 6, "velocity": 107}, {"time": 2158, "pitch": 51, "duration": 4, "velocity": 47}, {"time": 2164, "pitch": 39, "duration": 3, "velocity": 37}, {"time": 2164, "pitch": 51, "duration": 2, "velocity": 99}, {"time": 2164, "pitch": 63, "duration": 6, "velocity": 107}, {"time": 2164, "pitch": 67, "duration": 5, "velocity": 117}, {"time": 2164, "pitch": 70, "duration": 9, "velocity": 122}, {"time": 2176, "pitch": 38, "duration": 12, "velocity": 86}, {"time": 2176, "pitch": 62, "duration": 9, "velocity": 112}, {"time": 2188, "pitch": 36, "duration": 15, "velocity": 77}, {"time": 2188, "pitch": 60, "duration": 9, "velocity": 93}, {"time": 2188, "pitch": 63, "duration": 10, "velocity": 102}, {"time": 2188, "pitch": 67, "duration": 6, "velocity": 89}, {"time": 2194, "pitch": 48, "duration": 11, "velocity": 41}, {"time": 2200, "pitch": 60, "duration": 5, "velocity": 85}, {"time": 2200, "pitch": 63, "duration": 4, "velocity": 99}, {"time": 2200, "pitch": 67, "duration": 4, "velocity": 86}, {"time": 2212, "pitch": 46, "duration": 18, "velocity": 58}, {"time": 2212, "pitch": 50, "duration": 18, "velocity": 67}, {"time": 2212, "pitch": 53, "duration": 10, "velocity": 49}, {"time": 2212, "pitch": 58, "duration": 7, "velocity": 102}, {"time": 2212, "pitch": 62, "duration": 6, "velocity": 92}, {"time": 2212, "pitch": 65, "duration": 6, "velocity": 90}, {"time": 2224, "pitch": 58, "duration": 8, "velocity": 117}, {"time": 2224, "pitch": 62, "duration": 8, "velocity": 88}, {"time": 2224, "pitch": 65, "duration": 6, "velocity": 76}, {"time": 2236, "pitch": 43, "duration": 14, "velocity": 69}, {"time": 2236, "pitch": 55, "duration": 9, "velocity": 90}, {"time": 2236, "pitch": 58, "duration": 10, "velocity": 99}, {"time": 2236, "pitch": 62, "duration": 7, "velocity": 81}, {"time": 2236, "pitch": 65, "duration": 2, "velocity": 73}, {"time": 2242, "pitch": 50, "duration": 6, "velocity": 36}, {"time": 2248, "pitch": 58, "duration": 10, "velocity": 97}, {"time": 2248, "pitch": 62, "duration": 7, "velocity": 89}, {"time": 2260, "pitch": 48, "duration": 35, "velocity": 66}, {"time": 2260, "pitch": 55, "duration": 36, "velocity": 93}, {"time": 2260, "pitch": 60, "duration": 36, "velocity": 93}, {"time": 2260, "pitch": 63, "duration": 36, "velocity": 97}, {"time": 2308, "pitch": 41, "duration": 12, "velocity": 65}, {"time": 2308, "pitch": 53, "duration": 9, "velocity": 82}, {"time": 2308, "pitch": 56, "duration": 10, "velocity": 83}, {"time": 2308, "pitch": 60, "duration": 7, "velocity": 77}, {"time": 2314, "pitch": 48, "duration": 6, "velocity": 38}, {"time": 2320, "pitch": 56, "duration": 2, "velocity": 83}, {"time": 2332, "pitch": 46, "duration": 15, "velocity": 55}, {"time": 2332, "pitch": 58, "duration": 17, "velocity": 96}, {"time": 2332, "pitch": 62, "duration": 17, "velocity": 78}, {"time": 2332, "pitch": 65, "duration": 16, "velocity": 32}, {"time": 2356, "pitch": 39, "duration": 20, "velocity": 102}, {"time": 2356, "pitch": 55, "duration": 8, "velocity": 92}, {"time": 2356, "pitch": 58, "duration": 5, "velocity": 112}, {"time": 2362, "pitch": 51, "duration": 9, "velocity": 63}, {"time": 2362, "pitch": 58, "duration": 2, "velocity": 76}, {"time": 2362, "pitch": 63, "duration": 2, "velocity": 73}, {"time": 2365, "pitch": 58, "duration": 1, "velocity": 35}, {"time": 2365, "pitch": 63, "duration": 1, "velocity": 31}, {"time": 2368, "pitch": 55, "duration": 4, "velocity": 99}, {"time": 2368, "pitch": 58, "duration": 5, "velocity": 127}, {"time": 2368, "pitch": 63, "duration": 4, "velocity": 127}, {"time": 2374, "pitch": 51, "duration": 3, "velocity": 38}, {"time": 2374, "pitch": 55, "duration": 4, "velocity": 85}, {"time": 2374, "pitch": 58, "duration": 4, "velocity": 102}, {"time": 2374, "pitch": 63, "duration": 4, "velocity": 100}, {"time": 2380, "pitch": 39, "duration": 4, "velocity": 95}, {"time": 2380, "pitch": 51, "duration": 4, "velocity": 88}, {"time": 2380, "pitch": 55, "duration": 4, "velocity": 100}, {"time": 2380, "pitch": 58, "duration": 4, "velocity": 127}, {"time": 2380, "pitch": 63, "duration": 4, "velocity": 112}, {"time": 2386, "pitch": 39, "duration": 4, "velocity": 99}, {"time": 2386, "pitch": 51, "duration": 3, "velocity": 97}, {"time": 2386, "pitch": 55, "duration": 3, "velocity": 99}, {"time": 2386, "pitch": 58, "duration": 4, "velocity": 127}, {"time": 2386, "pitch": 63, "duration": 4, "velocity": 127}, {"time": 2392, "pitch": 39, "duration": 5, "velocity": 112}, {"time": 2392, "pitch": 51, "duration": 3, "velocity": 112}, {"time": 2392, "pitch": 55, "duration": 4, "velocity": 107}, {"time": 2392, "pitch": 58, "duration": 4, "velocity": 127}, {"time": 2392, "pitch": 63, "duration": 4, "velocity": 127}, {"time": 2398, "pitch": 51, "duration": 1, "velocity": 102}, {"time": 2398, "pitch": 55, "duration": 1, "velocity": 100}, {"time": 2398, "pitch": 58, "duration": 1, "velocity": 122}, {"time": 2398, "pitch": 63, "duration": 1, "velocity": 122}, {"time": 2404, "pitch": 44, "duration": 18, "velocity": 83}, {"time": 2404, "pitch": 48, "duration": 16, "velocity": 78}, {"time": 2404, "pitch": 51, "duration": 7, "velocity": 112}, {"time": 2404, "pitch": 56, "duration": 5, "velocity": 117}, {"time": 2404, "pitch": 60, "duration": 5, "velocity": 127}, {"time": 2404, "pitch": 63, "duration": 5, "velocity": 127}, {"time": 2410, "pitch": 56, "duration": 2, "velocity": 78}, {"time": 2410, "pitch": 60, "duration": 1, "velocity": 90}, {"time": 2410, "pitch": 63, "duration": 2, "velocity": 95}, {"time": 2416, "pitch": 51, "duration": 5, "velocity": 89}, {"time": 2416, "pitch": 56, "duration": 5, "velocity": 102}, {"time": 2416, "pitch": 60, "duration": 4, "velocity": 107}, {"time": 2416, "pitch": 63, "duration": 4, "velocity": 112}, {"time": 2422, "pitch": 56, "duration": 1, "velocity": 99}, {"time": 2422, "pitch": 60, "duration": 1, "velocity": 100}, {"time": 2422, "pitch": 63, "duration": 1, "velocity": 99}, {"time": 2428, "pitch": 46, "duration": 15, "velocity": 99}, {"time": 2428, "pitch": 50, "duration": 13, "velocity": 75}, {"time": 2428, "pitch": 53, "duration": 8, "velocity": 83}, {"time": 2428, "pitch": 58, "duration": 4, "velocity": 127}, {"time": 2428, "pitch": 62, "duration": 3, "velocity": 102}, {"time": 2428, "pitch": 65, "duration": 3, "velocity": 96}, {"time": 2434, "pitch": 58, "duration": 3, "velocity": 112}, {"time": 2434, "pitch": 62, "duration": 3, "velocity": 88}, {"time": 2434, "pitch": 65, "duration": 3, "velocity": 78}, {"time": 2440, "pitch": 53, "duration": 2, "velocity": 72}, {"time": 2440, "pitch": 58, "duration": 4, "velocity": 127}, {"time": 2440, "pitch": 62, "duration": 4, "velocity": 100}, {"time": 2440, "pitch": 65, "duration": 4, "velocity": 99}, {"time": 2446, "pitch": 58, "duration": 4, "velocity": 122}, {"time": 2446, "pitch": 62, "duration": 4, "velocity": 99}, {"time": 2446, "pitch": 65, "duration": 3, "velocity": 86}, {"time": 2452, "pitch": 43, "duration": 13, "velocity": 77}, {"time": 2452, "pitch": 55, "duration": 4, "velocity": 117}, {"time": 2452, "pitch": 58, "duration": 4, "velocity": 127}, {"time": 2452, "pitch": 62, "duration": 4, "velocity": 99}, {"time": 2458, "pitch": 55, "duration": 3, "velocity": 90}, {"time": 2458, "pitch": 58, "duration": 4, "velocity": 112}, {"time": 2458, "pitch": 62, "duration": 4, "velocity": 93}, {"time": 2464, "pitch": 50, "duration": 1, "velocity": 69}, {"time": 2464, "pitch": 55, "duration": 4, "velocity": 102}, {"time": 2464, "pitch": 58, "duration": 4, "velocity": 127}, {"time": 2464, "pitch": 62, "duration": 4, "velocity": 117}, {"time": 2470, "pitch": 55, "duration": 4, "velocity": 83}, {"time": 2470, "pitch": 58, "duration": 4, "velocity": 102}, {"time": 2470, "pitch": 62, "duration": 3, "velocity": 83}, {"time": 2476, "pitch": 48, "duration": 11, "velocity": 72}, {"time": 2476, "pitch": 55, "duration": 4, "velocity": 100}, {"time": 2476, "pitch": 60, "duration": 4, "velocity": 122}, {"time": 2476, "pitch": 63, "duration": 4, "velocity": 122}, {"time": 2482, "pitch": 55, "duration": 4, "velocity": 83}, {"time": 2482, "pitch": 60, "duration": 4, "velocity": 100}, {"time": 2482, "pitch": 63, "duration": 4, "velocity": 99}, {"time": 2488, "pitch": 48, "duration": 2, "velocity": 117}, {"time": 2488, "pitch": 55, "duration": 4, "velocity": 96}, {"time": 2488, "pitch": 60, "duration": 6, "velocity": 122}, {"time": 2488, "pitch": 63, "duration": 6, "velocity": 127}, {"time": 2494, "pitch": 55, "duration": 4, "velocity": 117}, {"time": 2500, "pitch": 41, "duration": 40, "velocity": 72}, {"time": 2500, "pitch": 53, "duration": 4, "velocity": 102}, {"time": 2500, "pitch": 56, "duration": 4, "velocity": 122}, {"time": 2500, "pitch": 60, "duration": 4, "velocity": 99}, {"time": 2506, "pitch": 48, "duration": 13, "velocity": 39}, {"time": 2506, "pitch": 53, "duration": 4, "velocity": 71}, {"time": 2506, "pitch": 56, "duration": 4, "velocity": 96}, {"time": 2506, "pitch": 60, "duration": 4, "velocity": 79}, {"time": 2512, "pitch": 53, "duration": 4, "velocity": 99}, {"time": 2512, "pitch": 56, "duration": 4, "velocity": 127}, {"time": 2512, "pitch": 60, "duration": 4, "velocity": 100}, {"time": 2518, "pitch": 53, "duration": 4, "velocity": 44}, {"time": 2518, "pitch": 56, "duration": 4, "velocity": 102}, {"time": 2518, "pitch": 60, "duration": 4, "velocity": 79}, {"time": 2524, "pitch": 48, "duration": 15, "velocity": 92}, {"time": 2524, "pitch": 53, "duration": 5, "velocity": 93}, {"time": 2524, "pitch": 56, "duration": 5, "velocity": 122}, {"time": 2524, "pitch": 60, "duration": 4, "velocity": 96}, {"time": 2530, "pitch": 53, "duration": 4, "velocity": 60}, {"time": 2530, "pitch": 56, "duration": 4, "velocity": 92}, {"time": 2530, "pitch": 60, "duration": 3, "velocity": 76}, {"time": 2536, "pitch": 53, "duration": 4, "velocity": 99}, {"time": 2536, "pitch": 56, "duration": 5, "velocity": 127}, {"time": 2536, "pitch": 60, "duration": 5, "velocity": 99}, {"time": 2542, "pitch": 53, "duration": 2, "velocity": 107}, {"time": 2542, "pitch": 56, "duration": 1, "velocity": 68}, {"time": 2542, "pitch": 60, "duration": 1, "velocity": 47}, {"time": 2548, "pitch": 46, "duration": 19, "velocity": 102}, {"time": 2548, "pitch": 50, "duration": 22, "velocity": 72}, {"time": 2548, "pitch": 53, "duration": 6, "velocity": 73}, {"time": 2548, "pitch": 58, "duration": 9, "velocity": 127}, {"time": 2548, "pitch": 62, "duration": 9, "velocity": 100}, {"time": 2548, "pitch": 65, "duration": 8, "velocity": 92}, {"time": 2554, "pitch": 53, "duration": 1, "velocity": 46}, {"time": 2560, "pitch": 58, "duration": 7, "velocity": 127}, {"time": 2560, "pitch": 62, "duration": 8, "velocity": 122}, {"time": 2560, "pitch": 65, "duration": 7, "velocity": 100}, {"time": 2566, "pitch": 53, "duration": 5, "velocity": 74}, {"time": 2572, "pitch": 46, "duration": 22, "velocity": 102}, {"time": 2572, "pitch": 50, "duration": 22, "velocity": 97}, {"time": 2572, "pitch": 53, "duration": 21, "velocity": 92}, {"time": 2572, "pitch": 58, "duration": 22, "velocity": 127}, {"time": 2572, "pitch": 62, "duration": 22, "velocity": 107}, {"time": 2572, "pitch": 65, "duration": 19, "velocity": 100}, {"time": 2596, "pitch": 46, "duration": 36, "velocity": 90}, {"time": 2596, "pitch": 50, "duration": 36, "velocity": 69}, {"time": 2596, "pitch": 53, "duration": 36, "velocity": 69}, {"time": 2596, "pitch": 58, "duration": 34, "velocity": 122}, {"time": 2596, "pitch": 62, "duration": 34, "velocity": 95}, {"time": 2596, "pitch": 65, "duration": 34, "velocity": 81}, {"time": 2644, "pitch": 56, "duration": 39, "velocity": 93}, {"time": 2644, "pitch": 68, "duration": 14, "velocity": 81}, {"time": 2644, "pitch": 72, "duration": 17, "velocity": 82}, {"time": 2644, "pitch": 75, "duration": 19, "velocity": 68}, {"time": 2650, "pitch": 60, "duration": 33, "velocity": 37}, {"time": 2656, "pitch": 63, "duration": 14, "velocity": 86}, {"time": 2662, "pitch": 68, "duration": 8, "velocity": 82}, {"time": 2665, "pitch": 75, "duration": 1, "velocity": 13}, {"time": 2668, "pitch": 70, "duration": 12, "velocity": 81}, {"time": 2674, "pitch": 63, "duration": 9, "velocity": 53}, {"time": 2680, "pitch": 68, "duration": 1, "velocity": 27}, {"time": 2680, "pitch": 72, "duration": 4, "velocity": 72}, {"time": 2680, "pitch": 75, "duration": 2, "velocity": 35}, {"time": 2692, "pitch": 55, "duration": 13, "velocity": 69}, {"time": 2692, "pitch": 67, "duration": 6, "velocity": 66}, {"time": 2692, "pitch": 70, "duration": 9, "velocity": 68}, {"time": 2692, "pitch": 74, "duration": 17, "velocity": 61}, {"time": 2692, "pitch": 77, "duration": 17, "velocity": 69}, {"time": 2698, "pitch": 62, "duration": 7, "velocity": 61}, {"time": 2704, "pitch": 70, "duration": 9, "velocity": 90}, {"time": 2710, "pitch": 67, "duration": 13, "velocity": 67}, {"time": 2716, "pitch": 60, "duration": 13, "velocity": 55}, {"time": 2716, "pitch": 72, "duration": 15, "velocity": 69}, {"time": 2716, "pitch": 75, "duration": 14, "velocity": 73}, {"time": 2728, "pitch": 70, "duration": 6, "velocity": 95}, {"time": 2734, "pitch": 67, "duration": 4, "velocity": 82}, {"time": 2740, "pitch": 53, "duration": 16, "velocity": 75}, {"time": 2740, "pitch": 65, "duration": 10, "velocity": 92}, {"time": 2740, "pitch": 68, "duration": 10, "velocity": 112}, {"time": 2740, "pitch": 72, "duration": 10, "velocity": 86}, {"time": 2752, "pitch": 65, "duration": 7, "velocity": 117}, {"time": 2752, "pitch": 68, "duration": 7, "velocity": 127}, {"time": 2752, "pitch": 72, "duration": 7, "velocity": 107}, {"time": 2758, "pitch": 53, "duration": 1, "velocity": 85}, {"time": 2764, "pitch": 46, "duration": 10, "velocity": 127}, {"time": 2764, "pitch": 65, "duration": 7, "velocity": 102}, {"time": 2764, "pitch": 70, "duration": 7, "velocity": 127}, {"time": 2764, "pitch": 74, "duration": 4, "velocity": 127}, {"time": 2770, "pitch": 58, "duration": 4, "velocity": 127}, {"time": 2773, "pitch": 70, "duration": 1, "velocity": 47}, {"time": 2776, "pitch": 46, "duration": 4, "velocity": 107}, {"time": 2776, "pitch": 58, "duration": 2, "velocity": 127}, {"time": 2776, "pitch": 65, "duration": 3, "velocity": 117}, {"time": 2776, "pitch": 70, "duration": 6, "velocity": 127}, {"time": 2776, "pitch": 74, "duration": 5, "velocity": 127}, {"time": 2782, "pitch": 65, "duration": 1, "velocity": 107}, {"time": 2788, "pitch": 39, "duration": 6, "velocity": 112}, {"time": 2788, "pitch": 63, "duration": 7, "velocity": 102}, {"time": 2788, "pitch": 67, "duration": 6, "velocity": 117}, {"time": 2788, "pitch": 70, "duration": 7, "velocity": 112}, {"time": 2800, "pitch": 38, "duration": 6, "velocity": 95}, {"time": 2800, "pitch": 62, "duration": 8, "velocity": 127}, {"time": 2812, "pitch": 36, "duration": 15, "velocity": 85}, {"time": 2812, "pitch": 60, "duration": 7, "velocity": 102}, {"time": 2812, "pitch": 63, "duration": 7, "velocity": 112}, {"time": 2812, "pitch": 67, "duration": 6, "velocity": 97}, {"time": 2818, "pitch": 48, "duration": 8, "velocity": 70}, {"time": 2824, "pitch": 60, "duration": 3, "velocity": 102}, {"time": 2824, "pitch": 63, "duration": 6, "velocity": 127}, {"time": 2824, "pitch": 67, "duration": 6, "velocity": 100}, {"time": 2827, "pitch": 48, "duration": 2, "velocity": 81}, {"time": 2830, "pitch": 60, "duration": 1, "velocity": 89}, {"time": 2836, "pitch": 44, "duration": 18, "velocity": 102}, {"time": 2836, "pitch": 51, "duration": 15, "velocity": 100}, {"time": 2836, "pitch": 56, "duration": 8, "velocity": 117}, {"time": 2836, "pitch": 60, "duration": 7, "velocity": 127}, {"time": 2836, "pitch": 63, "duration": 9, "velocity": 122}, {"time": 2848, "pitch": 56, "duration": 6, "velocity": 127}, {"time": 2848, "pitch": 60, "duration": 5, "velocity": 127}, {"time": 2848, "pitch": 63, "duration": 6, "velocity": 127}, {"time": 2854, "pitch": 51, "duration": 1, "velocity": 58}, {"time": 2860, "pitch": 46, "duration": 16, "velocity": 112}, {"time": 2860, "pitch": 58, "duration": 9, "velocity": 127}, {"time": 2860, "pitch": 62, "duration": 9, "velocity": 112}, {"time": 2860, "pitch": 65, "duration": 9, "velocity": 92}, {"time": 2872, "pitch": 58, "duration": 7, "velocity": 127}, {"time": 2872, "pitch": 62, "duration": 7, "velocity": 107}, {"time": 2872, "pitch": 65, "duration": 6, "velocity": 93}, {"time": 2878, "pitch": 46, "duration": 1, "velocity": 102}, {"time": 2884, "pitch": 43, "duration": 16, "velocity": 73}, {"time": 2884, "pitch": 55, "duration": 7, "velocity": 102}, {"time": 2884, "pitch": 58, "duration": 9, "velocity": 127}, {"time": 2884, "pitch": 62, "duration": 7, "velocity": 97}, {"time": 2884, "pitch": 65, "duration": 7, "velocity": 92}, {"time": 2890, "pitch": 50, "duration": 6, "velocity": 42}, {"time": 2896, "pitch": 55, "duration": 3, "velocity": 112}, {"time": 2896, "pitch": 58, "duration": 3, "velocity": 127}, {"time": 2896, "pitch": 62, "duration": 2, "velocity": 117}, {"time": 2896, "pitch": 65, "duration": 2, "velocity": 99}, {"time": 2908, "pitch": 42, "duration": 55, "velocity": 97}, {"time": 2908, "pitch": 54, "duration": 54, "velocity": 107}, {"time": 2908, "pitch": 58, "duration": 54, "velocity": 117}, {"time": 2908, "pitch": 61, "duration": 54, "velocity": 107}, {"time": 2908, "pitch": 63, "duration": 54, "velocity": 99}, {"time": 2980, "pitch": 53, "duration": 23, "velocity": 72}, {"time": 2980, "pitch": 65, "duration": 4, "velocity": 83}, {"time": 2980, "pitch": 68, "duration": 13, "velocity": 93}, {"time": 2980, "pitch": 72, "duration": 18, "velocity": 81}, {"time": 2986, "pitch": 60, "duration": 18, "velocity": 51}, {"time": 2992, "pitch": 67, "duration": 7, "velocity": 79}, {"time": 2998, "pitch": 68, "duration": 5, "velocity": 55}, {"time": 3004, "pitch": 58, "duration": 43, "velocity": 56}, {"time": 3004, "pitch": 65, "duration": 44, "velocity": 70}, {"time": 3004, "pitch": 68, "duration": 1, "velocity": 49}, {"time": 3004, "pitch": 70, "duration": 43, "velocity": 72}, {"time": 3004, "pitch": 74, "duration": 43, "velocity": 73}, {"time": 3076, "pitch": 51, "duration": 44, "velocity": 68}, {"time": 3082, "pitch": 55, "duration": 37, "velocity": 38}, {"time": 3088, "pitch": 58, "duration": 32, "velocity": 65}, {"time": 3097, "pitch": 63, "duration": 24, "velocity": 58}, {"time": 3103, "pitch": 67, "duration": 18, "velocity": 37}, {"time": 3103, "pitch": 70, "duration": 18, "velocity": 38}, {"time": 3124, "pitch": 56, "duration": 40, "velocity": 93}, {"time": 3130, "pitch": 60, "duration": 34, "velocity": 37}, {"time": 3136, "pitch": 63, "duration": 28, "velocity": 66}, {"time": 3142, "pitch": 68, "duration": 20, "velocity": 60}, {"time": 3148, "pitch": 75, "duration": 9, "velocity": 61}, {"time": 3154, "pitch": 72, "duration": 6, "velocity": 36}, {"time": 3160, "pitch": 75, "duration": 6, "velocity": 67}, {"time": 3172, "pitch": 58, "duration": 4, "velocity": 63}, {"time": 3172, "pitch": 43, "duration": 17, "velocity": 57}, {"time": 3172, "pitch": 62, "duration": 4, "velocity": 58}, {"time": 3177, "pitch": 50, "duration": 12, "velocity": 32}, {"time": 3183, "pitch": 55, "duration": 8, "velocity": 45}, {"time": 3186, "pitch": 67, "duration": 5, "velocity": 53}, {"time": 3190, "pitch": 62, "duration": 4, "velocity": 68}, {"time": 3193, "pitch": 67, "duration": 19, "velocity": 41}, {"time": 3197, "pitch": 49, "duration": 12, "velocity": 47}, {"time": 3197, "pitch": 61, "duration": 14, "velocity": 60}, {"time": 3211, "pitch": 60, "duration": 14, "velocity": 48}, {"time": 3211, "pitch": 48, "duration": 7, "velocity": 38}, {"time": 3230, "pitch": 53, "duration": 6, "velocity": 33}, {"time": 3230, "pitch": 46, "duration": 11, "velocity": 27}, {"time": 3231, "pitch": 58, "duration": 10, "velocity": 35}, {"time": 3231, "pitch": 62, "duration": 10, "velocity": 39}, {"time": 3247, "pitch": 51, "duration": 3, "velocity": 35}, {"time": 3249, "pitch": 55, "duration": 4, "velocity": 34}, {"time": 3249, "pitch": 58, "duration": 5, "velocity": 38}, {"time": 3249, "pitch": 39, "duration": 49, "velocity": 77}, {"time": 3255, "pitch": 51, "duration": 43, "velocity": 58}, {"time": 3258, "pitch": 55, "duration": 3, "velocity": 55}, {"time": 3260, "pitch": 58, "duration": 2, "velocity": 46}, {"time": 3262, "pitch": 63, "duration": 1, "velocity": 34}, {"time": 3265, "pitch": 67, "duration": 3, "velocity": 44}, {"time": 3267, "pitch": 70, "duration": 4, "velocity": 54}, {"time": 3270, "pitch": 75, "duration": 1, "velocity": 59}, {"time": 3274, "pitch": 79, "duration": 10, "velocity": 37}, {"time": 3278, "pitch": 82, "duration": 6, "velocity": 32}, {"time": 3282, "pitch": 87, "duration": 2, "velocity": 38}, {"time": 3290, "pitch": 99, "duration": 2, "velocity": 50}], "annotations": [{"time": 25, "annotation": {"number": 64, "value": 127}, "group": "control_change"}, {"time": 123, "annotation": {"number": 64, "value": 0}, "group": "control_change"}, {"time": 126, "annotation": {"number": 64, "value": 127}, "group": "control_change"}, {"time": 147, "annotation": {"number": 64, "value": 0}, "group": "control_change"}, {"time": 149, "annotation": {"number": 64, "value": 127}, "group": "control_change"}, {"time": 171, "annotation": {"number": 64, "value": 0}, "group": "control_change"}, {"time": 173, "annotation": {"number": 64, "value": 127}, "group": "control_change"}, {"time": 195, "annotation": {"number": 64, "value": 0}, "group": "control_change"}, {"time": 207, "annotation": {"number": 64, "value": 127}, "group": "control_change"}, {"time": 218, "annotation": {"number": 64, "value": 0}, "group": "control_change"}, {"time": 220, "annotation": {"number": 64, "value": 127}, "group": "control_change"}, {"time": 266, "annotation": {"number": 64, "value": 0}, "group": "control_change"}, {"time": 268, "annotation": {"number": 64, "value": 127}, "group": "control_change"}, {"time": 314, "annotation": {"number": 64, "value": 0}, "group": "control_change"}, {"time": 317, "annotation": {"number": 64, "value": 127}, "group": "control_change"}, {"time": 362, "annotation": {"number": 64, "value": 0}, "group": "control_change"}, {"time": 364, "annotation": {"number": 64, "value": 127}, "group": "control_change"}, {"time": 410, "annotation": {"number": 64, "value": 0}, "group": "control_change"}, {"time": 412, "annotation": {"number": 64, "value": 127}, "group": "control_change"}, {"time": 459, "annotation": {"number": 64, "value": 0}, "group": "control_change"}, {"time": 461, "annotation": {"number": 64, "value": 127}, "group": "control_change"}, {"time": 482, "annotation": {"number": 64, "value": 0}, "group": "control_change"}, {"time": 488, "annotation": {"number": 64, "value": 127}, "group": "control_change"}, {"time": 505, "annotation": {"number": 64, "value": 0}, "group": "control_change"}, {"time": 510, "annotation": {"number": 64, "value": 127}, "group": "control_change"}, {"time": 531, "annotation": {"number": 64, "value": 0}, "group": "control_change"}, {"time": 533, "annotation": {"number": 64, "value": 127}, "group": "control_change"}, {"time": 553, "annotation": {"number": 64, "value": 0}, "group": "control_change"}, {"time": 556, "annotation": {"number": 64, "value": 127}, "group": "control_change"}, {"time": 568, "annotation": {"number": 64, "value": 0}, "group": "control_change"}, {"time": 581, "annotation": {"number": 64, "value": 127}, "group": "control_change"}, {"time": 601, "annotation": {"number": 64, "value": 0}, "group": "control_change"}, {"time": 605, "annotation": {"number": 64, "value": 127}, "group": "control_change"}, {"time": 650, "annotation": {"number": 64, "value": 0}, "group": "control_change"}, {"time": 653, "annotation": {"number": 64, "value": 127}, "group": "control_change"}, {"time": 673, "annotation": {"number": 64, "value": 0}, "group": "control_change"}, {"time": 676, "annotation": {"number": 64, "value": 127}, "group": "control_change"}, {"time": 697, "annotation": {"number": 64, "value": 0}, "group": "control_change"}, {"time": 701, "annotation": {"number": 64, "value": 127}, "group": "control_change"}, {"time": 717, "annotation": {"number": 64, "value": 0}, "group": "control_change"}, {"time": 724, "annotation": {"number": 64, "value": 127}, "group": "control_change"}, {"time": 746, "annotation": {"number": 64, "value": 0}, "group": "control_change"}, {"time": 748, "annotation": {"number": 64, "value": 127}, "group": "control_change"}, {"time": 770, "annotation": {"number": 64, "value": 0}, "group": "control_change"}, {"time": 771, "annotation": {"number": 64, "value": 127}, "group": "control_change"}, {"time": 794, "annotation": {"number": 64, "value": 0}, "group": "control_change"}, {"time": 796, "annotation": {"number": 64, "value": 127}, "group": "control_change"}, {"time": 841, "annotation": {"number": 64, "value": 0}, "group": "control_change"}, {"time": 844, "annotation": {"number": 64, "value": 127}, "group": "control_change"}, {"time": 866, "annotation": {"number": 64, "value": 0}, "group": "control_change"}, {"time": 868, "annotation": {"number": 64, "value": 127}, "group": "control_change"}, {"time": 879, "annotation": {"number": 64, "value": 0}, "group": "control_change"}, {"time": 882, "annotation": {"number": 64, "value": 127}, "group": "control_change"}, {"time": 891, "annotation": {"number": 64, "value": 0}, "group": "control_change"}, {"time": 894, "annotation": {"number": 64, "value": 127}, "group": "control_change"}, {"time": 938, "annotation": {"number": 64, "value": 0}, "group": "control_change"}, {"time": 940, "annotation": {"number": 64, "value": 127}, "group": "control_change"}, {"time": 987, "annotation": {"number": 64, "value": 0}, "group": "control_change"}, {"time": 990, "annotation": {"number": 64, "value": 127}, "group": "control_change"}, {"time": 1034, "annotation": {"number": 64, "value": 0}, "group": "control_change"}, {"time": 1037, "annotation": {"number": 64, "value": 127}, "group": "control_change"}, {"time": 1058, "annotation": {"number": 64, "value": 0}, "group": "control_change"}, {"time": 1061, "annotation": {"number": 64, "value": 127}, "group": "control_change"}, {"time": 1083, "annotation": {"number": 64, "value": 0}, "group": "control_change"}, {"time": 1085, "annotation": {"number": 64, "value": 127}, "group": "control_change"}, {"time": 1106, "annotation": {"number": 64, "value": 0}, "group": "control_change"}, {"time": 1108, "annotation": {"number": 64, "value": 127}, "group": "control_change"}, {"time": 1129, "annotation": {"number": 64, "value": 0}, "group": "control_change"}, {"time": 1132, "annotation": {"number": 64, "value": 127}, "group": "control_change"}, {"time": 1167, "annotation": {"number": 64, "value": 0}, "group": "control_change"}, {"time": 1180, "annotation": {"number": 64, "value": 127}, "group": "control_change"}, {"time": 1201, "annotation": {"number": 64, "value": 0}, "group": "control_change"}, {"time": 1204, "annotation": {"number": 64, "value": 127}, "group": "control_change"}, {"time": 1225, "annotation": {"number": 64, "value": 0}, "group": "control_change"}, {"time": 1228, "annotation": {"number": 64, "value": 127}, "group": "control_change"}, {"time": 1250, "annotation": {"number": 64, "value": 0}, "group": "control_change"}, {"time": 1252, "annotation": {"number": 64, "value": 127}, "group": "control_change"}, {"time": 1298, "annotation": {"number": 64, "value": 0}, "group": "control_change"}, {"time": 1301, "annotation": {"number": 64, "value": 127}, "group": "control_change"}, {"time": 1322, "annotation": {"number": 64, "value": 0}, "group": "control_change"}, {"time": 1325, "annotation": {"number": 64, "value": 127}, "group": "control_change"}, {"time": 1347, "annotation": {"number": 64, "value": 0}, "group": "control_change"}, {"time": 1349, "annotation": {"number": 64, "value": 127}, "group": "control_change"}, {"time": 1370, "annotation": {"number": 64, "value": 0}, "group": "control_change"}, {"time": 1372, "annotation": {"number": 64, "value": 127}, "group": "control_change"}, {"time": 1394, "annotation": {"number": 64, "value": 0}, "group": "control_change"}, {"time": 1397, "annotation": {"number": 64, "value": 127}, "group": "control_change"}, {"time": 1402, "annotation": {"number": 64, "value": 127}, "group": "control_change"}, {"time": 1407, "annotation": {"number": 64, "value": 0}, "group": "control_change"}, {"time": 1419, "annotation": {"number": 64, "value": 0}, "group": "control_change"}, {"time": 1422, "annotation": {"number": 64, "value": 127}, "group": "control_change"}, {"time": 1441, "annotation": {"number": 64, "value": 0}, "group": "control_change"}, {"time": 1444, "annotation": {"number": 64, "value": 127}, "group": "control_change"}, {"time": 1466, "annotation": {"number": 64, "value": 0}, "group": "control_change"}, {"time": 1468, "annotation": {"number": 64, "value": 127}, "group": "control_change"}, {"time": 1488, "annotation": {"number": 64, "value": 0}, "group": "control_change"}, {"time": 1492, "annotation": {"number": 64, "value": 127}, "group": "control_change"}, {"time": 1538, "annotation": {"number": 64, "value": 0}, "group": "control_change"}, {"time": 1539, "annotation": {"number": 64, "value": 127}, "group": "control_change"}, {"time": 1561, "annotation": {"number": 64, "value": 0}, "group": "control_change"}, {"time": 1564, "annotation": {"number": 64, "value": 127}, "group": "control_change"}, {"time": 1584, "annotation": {"number": 64, "value": 0}, "group": "control_change"}, {"time": 1588, "annotation": {"number": 64, "value": 127}, "group": "control_change"}, {"time": 1610, "annotation": {"number": 64, "value": 0}, "group": "control_change"}, {"time": 1613, "annotation": {"number": 64, "value": 127}, "group": "control_change"}, {"time": 1658, "annotation": {"number": 64, "value": 0}, "group": "control_change"}, {"time": 1661, "annotation": {"number": 64, "value": 127}, "group": "control_change"}, {"time": 1681, "annotation": {"number": 64, "value": 0}, "group": "control_change"}, {"time": 1684, "annotation": {"number": 64, "value": 127}, "group": "control_change"}, {"time": 1705, "annotation": {"number": 64, "value": 0}, "group": "control_change"}, {"time": 1709, "annotation": {"number": 64, "value": 127}, "group": "control_change"}, {"time": 1725, "annotation": {"number": 64, "value": 0}, "group": "control_change"}, {"time": 1732, "annotation": {"number": 64, "value": 127}, "group": "control_change"}, {"time": 1754, "annotation": {"number": 64, "value": 0}, "group": "control_change"}, {"time": 1756, "annotation": {"number": 64, "value": 127}, "group": "control_change"}, {"time": 1778, "annotation": {"number": 64, "value": 0}, "group": "control_change"}, {"time": 1779, "annotation": {"number": 64, "value": 127}, "group": "control_change"}, {"time": 1802, "annotation": {"number": 64, "value": 0}, "group": "control_change"}, {"time": 1804, "annotation": {"number": 64, "value": 127}, "group": "control_change"}, {"time": 1849, "annotation": {"number": 64, "value": 0}, "group": "control_change"}, {"time": 1852, "annotation": {"number": 64, "value": 127}, "group": "control_change"}, {"time": 1874, "annotation": {"number": 64, "value": 0}, "group": "control_change"}, {"time": 1876, "annotation": {"number": 64, "value": 127}, "group": "control_change"}, {"time": 1887, "annotation": {"number": 64, "value": 0}, "group": "control_change"}, {"time": 1890, "annotation": {"number": 64, "value": 127}, "group": "control_change"}, {"time": 1899, "annotation": {"number": 64, "value": 0}, "group": "control_change"}, {"time": 1902, "annotation": {"number": 64, "value": 127}, "group": "control_change"}, {"time": 1946, "annotation": {"number": 64, "value": 0}, "group": "control_change"}, {"time": 1948, "annotation": {"number": 64, "value": 127}, "group": "control_change"}, {"time": 1995, "annotation": {"number": 64, "value": 0}, "group": "control_change"}, {"time": 1998, "annotation": {"number": 64, "value": 127}, "group": "control_change"}, {"time": 2042, "annotation": {"number": 64, "value": 0}, "group": "control_change"}, {"time": 2045, "annotation": {"number": 64, "value": 127}, "group": "control_change"}, {"time": 2066, "annotation": {"number": 64, "value": 0}, "group": "control_change"}, {"time": 2069, "annotation": {"number": 64, "value": 127}, "group": "control_change"}, {"time": 2091, "annotation": {"number": 64, "value": 0}, "group": "control_change"}, {"time": 2093, "annotation": {"number": 64, "value": 127}, "group": "control_change"}, {"time": 2114, "annotation": {"number": 64, "value": 0}, "group": "control_change"}, {"time": 2116, "annotation": {"number": 64, "value": 127}, "group": "control_change"}, {"time": 2137, "annotation": {"number": 64, "value": 0}, "group": "control_change"}, {"time": 2140, "annotation": {"number": 64, "value": 127}, "group": "control_change"}, {"time": 2175, "annotation": {"number": 64, "value": 0}, "group": "control_change"}, {"time": 2188, "annotation": {"number": 64, "value": 127}, "group": "control_change"}, {"time": 2209, "annotation": {"number": 64, "value": 0}, "group": "control_change"}, {"time": 2212, "annotation": {"number": 64, "value": 127}, "group": "control_change"}, {"time": 2233, "annotation": {"number": 64, "value": 0}, "group": "control_change"}, {"time": 2236, "annotation": {"number": 64, "value": 127}, "group": "control_change"}, {"time": 2258, "annotation": {"number": 64, "value": 0}, "group": "control_change"}, {"time": 2260, "annotation": {"number": 64, "value": 127}, "group": "control_change"}, {"time": 2306, "annotation": {"number": 64, "value": 0}, "group": "control_change"}, {"time": 2309, "annotation": {"number": 64, "value": 127}, "group": "control_change"}, {"time": 2330, "annotation": {"number": 64, "value": 0}, "group": "control_change"}, {"time": 2333, "annotation": {"number": 64, "value": 127}, "group": "control_change"}, {"time": 2355, "annotation": {"number": 64, "value": 0}, "group": "control_change"}, {"time": 2359, "annotation": {"number": 64, "value": 127}, "group": "control_change"}, {"time": 2377, "annotation": {"number": 64, "value": 0}, "group": "control_change"}, {"time": 2379, "annotation": {"number": 64, "value": 127}, "group": "control_change"}, {"time": 2402, "annotation": {"number": 64, "value": 0}, "group": "control_change"}, {"time": 2405, "annotation": {"number": 64, "value": 127}, "group": "control_change"}, {"time": 2427, "annotation": {"number": 64, "value": 0}, "group": "control_change"}, {"time": 2427, "annotation": {"number": 64, "value": 127}, "group": "control_change"}, {"time": 2450, "annotation": {"number": 64, "value": 0}, "group": "control_change"}, {"time": 2452, "annotation": {"number": 64, "value": 127}, "group": "control_change"}, {"time": 2473, "annotation": {"number": 64, "value": 0}, "group": "control_change"}, {"time": 2476, "annotation": {"number": 64, "value": 127}, "group": "control_change"}, {"time": 2497, "annotation": {"number": 64, "value": 0}, "group": "control_change"}, {"time": 2500, "annotation": {"number": 64, "value": 127}, "group": "control_change"}, {"time": 2521, "annotation": {"number": 64, "value": 0}, "group": "control_change"}, {"time": 2523, "annotation": {"number": 64, "value": 127}, "group": "control_change"}, {"time": 2545, "annotation": {"number": 64, "value": 0}, "group": "control_change"}, {"time": 2547, "annotation": {"number": 64, "value": 127}, "group": "control_change"}, {"time": 2568, "annotation": {"number": 64, "value": 0}, "group": "control_change"}, {"time": 2573, "annotation": {"number": 64, "value": 127}, "group": "control_change"}, {"time": 2592, "annotation": {"number": 64, "value": 0}, "group": "control_change"}, {"time": 2595, "annotation": {"number": 64, "value": 127}, "group": "control_change"}, {"time": 2618, "annotation": {"number": 64, "value": 127}, "group": "control_change"}, {"time": 2642, "annotation": {"number": 64, "value": 0}, "group": "control_change"}, {"time": 2643, "annotation": {"number": 64, "value": 0}, "group": "control_change"}, {"time": 2643, "annotation": {"number": 64, "value": 127}, "group": "control_change"}, {"time": 2690, "annotation": {"number": 64, "value": 0}, "group": "control_change"}, {"time": 2692, "annotation": {"number": 64, "value": 127}, "group": "control_change"}, {"time": 2713, "annotation": {"number": 64, "value": 0}, "group": "control_change"}, {"time": 2716, "annotation": {"number": 64, "value": 127}, "group": "control_change"}, {"time": 2737, "annotation": {"number": 64, "value": 0}, "group": "control_change"}, {"time": 2739, "annotation": {"number": 64, "value": 127}, "group": "control_change"}, {"time": 2761, "annotation": {"number": 64, "value": 0}, "group": "control_change"}, {"time": 2764, "annotation": {"number": 64, "value": 127}, "group": "control_change"}, {"time": 2786, "annotation": {"number": 64, "value": 0}, "group": "control_change"}, {"time": 2788, "annotation": {"number": 64, "value": 127}, "group": "control_change"}, {"time": 2798, "annotation": {"number": 64, "value": 0}, "group": "control_change"}, {"time": 2800, "annotation": {"number": 64, "value": 127}, "group": "control_change"}, {"time": 2810, "annotation": {"number": 64, "value": 0}, "group": "control_change"}, {"time": 2812, "annotation": {"number": 64, "value": 127}, "group": "control_change"}, {"time": 2833, "annotation": {"number": 64, "value": 0}, "group": "control_change"}, {"time": 2835, "annotation": {"number": 64, "value": 127}, "group": "control_change"}, {"time": 2857, "annotation": {"number": 64, "value": 0}, "group": "control_change"}, {"time": 2860, "annotation": {"number": 64, "value": 127}, "group": "control_change"}, {"time": 2881, "annotation": {"number": 64, "value": 0}, "group": "control_change"}, {"time": 2884, "annotation": {"number": 64, "value": 127}, "group": "control_change"}, {"time": 2907, "annotation": {"number": 64, "value": 0}, "group": "control_change"}, {"time": 2908, "annotation": {"number": 64, "value": 127}, "group": "control_change"}, {"time": 2975, "annotation": {"number": 64, "value": 0}, "group": "control_change"}, {"time": 2980, "annotation": {"number": 64, "value": 127}, "group": "control_change"}, {"time": 3002, "annotation": {"number": 64, "value": 0}, "group": "control_change"}, {"time": 3004, "annotation": {"number": 64, "value": 127}, "group": "control_change"}, {"time": 3076, "annotation": {"number": 64, "value": 0}, "group": "control_change"}, {"time": 3078, "annotation": {"number": 64, "value": 127}, "group": "control_change"}, {"time": 3124, "annotation": {"number": 64, "value": 127}, "group": "control_change"}, {"time": 3170, "annotation": {"number": 64, "value": 0}, "group": "control_change"}, {"time": 3171, "annotation": {"number": 64, "value": 127}, "group": "control_change"}, {"time": 3197, "annotation": {"number": 64, "value": 0}, "group": "control_change"}, {"time": 3206, "annotation": {"number": 64, "value": 127}, "group": "control_change"}, {"time": 3249, "annotation": {"number": 64, "value": 0}, "group": "control_change"}, {"time": 3250, "annotation": {"number": 64, "value": 127}, "group": "control_change"}, {"time": 3325, "annotation": {"number": 64, "value": 0}, "group": "control_change"}, {"time": 3326, "annotation": {"number": 64, "value": 127}, "group": "control_change"}, {"time": 3328, "annotation": {"number": 64, "value": 0}, "group": "control_change"}]}]}