{"metadata": {"schema_version": "0.2", "title": "None", "source_filename": "111.mid", "source_format": "midi"}, "resolution": 12, "tempos": [{"time": 0, "qpm": 61.99999586666694}, {"time": 2138, "qpm": 62.3782973427885}, {"time": 2141, "qpm": 63.13583042557759}, {"time": 2144, "qpm": 64.25503250769187}, {"time": 2150, "qpm": 63.488166863832696}, {"time": 2150, "qpm": 61.99999586666694}], "key_signatures": [{"time": 0, "root": 0, "mode": "major"}], "time_signatures": [{"time": 0, "numerator": 4, "denominator": 4}, {"time": 0, "numerator": 1, "denominator": 4}], "tracks": [{"program": 4, "is_drum": false, "name": "MELODY", "notes": [{"time": 422, "pitch": 74, "duration": 3, "velocity": 107}, {"time": 428, "pitch": 74, "duration": 1, "velocity": 99}, {"time": 431, "pitch": 74, "duration": 5, "velocity": 107}, {"time": 437, "pitch": 78, "duration": 7, "velocity": 127}, {"time": 446, "pitch": 74, "duration": 11, "velocity": 102}, {"time": 470, "pitch": 71, "duration": 5, "velocity": 112}, {"time": 476, "pitch": 79, "duration": 3, "velocity": 107}, {"time": 479, "pitch": 81, "duration": 6, "velocity": 122}, {"time": 488, "pitch": 76, "duration": 2, "velocity": 117}, {"time": 491, "pitch": 78, "duration": 3, "velocity": 102}, {"time": 494, "pitch": 74, "duration": 11, "velocity": 122}, {"time": 518, "pitch": 76, "duration": 4, "velocity": 112}, {"time": 524, "pitch": 74, "duration": 2, "velocity": 117}, {"time": 527, "pitch": 72, "duration": 8, "velocity": 102}, {"time": 536, "pitch": 76, "duration": 5, "velocity": 112}, {"time": 542, "pitch": 74, "duration": 8, "velocity": 122}, {"time": 551, "pitch": 67, "duration": 9, "velocity": 100}, {"time": 566, "pitch": 72, "duration": 4, "velocity": 122}, {"time": 572, "pitch": 71, "duration": 8, "velocity": 99}, {"time": 584, "pitch": 74, "duration": 5, "velocity": 112}, {"time": 590, "pitch": 69, "duration": 14, "velocity": 99}, {"time": 614, "pitch": 71, "duration": 4, "velocity": 107}, {"time": 620, "pitch": 71, "duration": 1, "velocity": 93}, {"time": 623, "pitch": 71, "duration": 8, "velocity": 100}, {"time": 632, "pitch": 79, "duration": 4, "velocity": 127}, {"time": 638, "pitch": 79, "duration": 14, "velocity": 122}, {"time": 662, "pitch": 81, "duration": 4, "velocity": 122}, {"time": 668, "pitch": 79, "duration": 2, "velocity": 100}, {"time": 671, "pitch": 78, "duration": 7, "velocity": 102}, {"time": 680, "pitch": 81, "duration": 4, "velocity": 100}, {"time": 686, "pitch": 74, "duration": 10, "velocity": 122}, {"time": 710, "pitch": 71, "duration": 4, "velocity": 107}, {"time": 716, "pitch": 79, "duration": 10, "velocity": 112}, {"time": 728, "pitch": 81, "duration": 2, "velocity": 117}, {"time": 731, "pitch": 79, "duration": 2, "velocity": 95}, {"time": 734, "pitch": 78, "duration": 5, "velocity": 102}, {"time": 743, "pitch": 76, "duration": 2, "velocity": 112}, {"time": 746, "pitch": 74, "duration": 8, "velocity": 97}, {"time": 758, "pitch": 76, "duration": 4, "velocity": 127}, {"time": 764, "pitch": 76, "duration": 2, "velocity": 122}, {"time": 767, "pitch": 74, "duration": 2, "velocity": 99}, {"time": 770, "pitch": 79, "duration": 4, "velocity": 102}, {"time": 776, "pitch": 71, "duration": 5, "velocity": 107}, {"time": 782, "pitch": 69, "duration": 16, "velocity": 102}, {"time": 806, "pitch": 74, "duration": 4, "velocity": 127}, {"time": 812, "pitch": 74, "duration": 1, "velocity": 97}, {"time": 815, "pitch": 74, "duration": 3, "velocity": 117}, {"time": 818, "pitch": 74, "duration": 1, "velocity": 127}, {"time": 824, "pitch": 78, "duration": 5, "velocity": 122}, {"time": 830, "pitch": 74, "duration": 11, "velocity": 107}, {"time": 854, "pitch": 71, "duration": 5, "velocity": 102}, {"time": 860, "pitch": 79, "duration": 2, "velocity": 102}, {"time": 863, "pitch": 81, "duration": 7, "velocity": 112}, {"time": 872, "pitch": 76, "duration": 5, "velocity": 122}, {"time": 878, "pitch": 74, "duration": 12, "velocity": 112}, {"time": 902, "pitch": 76, "duration": 4, "velocity": 127}, {"time": 908, "pitch": 74, "duration": 2, "velocity": 117}, {"time": 911, "pitch": 72, "duration": 7, "velocity": 127}, {"time": 920, "pitch": 76, "duration": 4, "velocity": 127}, {"time": 926, "pitch": 74, "duration": 8, "velocity": 127}, {"time": 935, "pitch": 67, "duration": 8, "velocity": 117}, {"time": 950, "pitch": 72, "duration": 5, "velocity": 122}, {"time": 956, "pitch": 71, "duration": 10, "velocity": 99}, {"time": 968, "pitch": 74, "duration": 5, "velocity": 112}, {"time": 974, "pitch": 69, "duration": 16, "velocity": 100}, {"time": 998, "pitch": 71, "duration": 3, "velocity": 102}, {"time": 1004, "pitch": 71, "duration": 1, "velocity": 97}, {"time": 1007, "pitch": 71, "duration": 1, "velocity": 90}, {"time": 1010, "pitch": 71, "duration": 5, "velocity": 102}, {"time": 1016, "pitch": 79, "duration": 4, "velocity": 127}, {"time": 1022, "pitch": 79, "duration": 16, "velocity": 127}, {"time": 1046, "pitch": 81, "duration": 4, "velocity": 117}, {"time": 1052, "pitch": 79, "duration": 2, "velocity": 100}, {"time": 1055, "pitch": 78, "duration": 6, "velocity": 127}, {"time": 1064, "pitch": 81, "duration": 5, "velocity": 102}, {"time": 1070, "pitch": 74, "duration": 11, "velocity": 112}, {"time": 1094, "pitch": 71, "duration": 5, "velocity": 122}, {"time": 1100, "pitch": 79, "duration": 11, "velocity": 127}, {"time": 1112, "pitch": 81, "duration": 2, "velocity": 112}, {"time": 1115, "pitch": 79, "duration": 2, "velocity": 93}, {"time": 1118, "pitch": 78, "duration": 7, "velocity": 117}, {"time": 1130, "pitch": 74, "duration": 5, "velocity": 102}, {"time": 1142, "pitch": 76, "duration": 3, "velocity": 102}, {"time": 1148, "pitch": 76, "duration": 2, "velocity": 107}, {"time": 1151, "pitch": 74, "duration": 3, "velocity": 81}, {"time": 1154, "pitch": 76, "duration": 7, "velocity": 117}, {"time": 1160, "pitch": 79, "duration": 2, "velocity": 117}, {"time": 1166, "pitch": 81, "duration": 22, "velocity": 127}, {"time": 1190, "pitch": 74, "duration": 6, "velocity": 112}, {"time": 1196, "pitch": 83, "duration": 4, "velocity": 122}, {"time": 1202, "pitch": 83, "duration": 4, "velocity": 122}, {"time": 1211, "pitch": 84, "duration": 3, "velocity": 127}, {"time": 1214, "pitch": 81, "duration": 8, "velocity": 112}, {"time": 1229, "pitch": 76, "duration": 1, "velocity": 127}, {"time": 1232, "pitch": 76, "duration": 2, "velocity": 112}, {"time": 1235, "pitch": 79, "duration": 1, "velocity": 97}, {"time": 1238, "pitch": 81, "duration": 5, "velocity": 122}, {"time": 1250, "pitch": 78, "duration": 5, "velocity": 127}, {"time": 1256, "pitch": 76, "duration": 5, "velocity": 112}, {"time": 1262, "pitch": 74, "duration": 10, "velocity": 97}, {"time": 1280, "pitch": 71, "duration": 3, "velocity": 100}, {"time": 1283, "pitch": 74, "duration": 2, "velocity": 99}, {"time": 1286, "pitch": 79, "duration": 4, "velocity": 112}, {"time": 1292, "pitch": 79, "duration": 3, "velocity": 127}, {"time": 1295, "pitch": 81, "duration": 6, "velocity": 127}, {"time": 1304, "pitch": 79, "duration": 5, "velocity": 107}, {"time": 1310, "pitch": 78, "duration": 5, "velocity": 117}, {"time": 1316, "pitch": 76, "duration": 3, "velocity": 112}, {"time": 1319, "pitch": 74, "duration": 5, "velocity": 100}, {"time": 1328, "pitch": 67, "duration": 3, "velocity": 97}, {"time": 1331, "pitch": 69, "duration": 2, "velocity": 107}, {"time": 1334, "pitch": 71, "duration": 15, "velocity": 112}, {"time": 1382, "pitch": 76, "duration": 4, "velocity": 112}, {"time": 1388, "pitch": 76, "duration": 1, "velocity": 100}, {"time": 1391, "pitch": 76, "duration": 4, "velocity": 112}, {"time": 1397, "pitch": 83, "duration": 7, "velocity": 127}, {"time": 1406, "pitch": 81, "duration": 11, "velocity": 127}, {"time": 1424, "pitch": 83, "duration": 2, "velocity": 122}, {"time": 1427, "pitch": 81, "duration": 2, "velocity": 99}, {"time": 1430, "pitch": 79, "duration": 6, "velocity": 127}, {"time": 1439, "pitch": 79, "duration": 1, "velocity": 117}, {"time": 1442, "pitch": 79, "duration": 4, "velocity": 127}, {"time": 1448, "pitch": 81, "duration": 5, "velocity": 112}, {"time": 1454, "pitch": 76, "duration": 14, "velocity": 102}, {"time": 1472, "pitch": 74, "duration": 1, "velocity": 96}, {"time": 1475, "pitch": 74, "duration": 1, "velocity": 96}, {"time": 1478, "pitch": 76, "duration": 6, "velocity": 122}, {"time": 1487, "pitch": 83, "duration": 2, "velocity": 127}, {"time": 1490, "pitch": 81, "duration": 5, "velocity": 127}, {"time": 1496, "pitch": 79, "duration": 5, "velocity": 127}, {"time": 1508, "pitch": 79, "duration": 1, "velocity": 122}, {"time": 1511, "pitch": 79, "duration": 1, "velocity": 100}, {"time": 1514, "pitch": 79, "duration": 3, "velocity": 122}, {"time": 1523, "pitch": 76, "duration": 2, "velocity": 112}, {"time": 1526, "pitch": 81, "duration": 24, "velocity": 127}, {"time": 1574, "pitch": 74, "duration": 6, "velocity": 112}, {"time": 1580, "pitch": 83, "duration": 4, "velocity": 122}, {"time": 1586, "pitch": 83, "duration": 4, "velocity": 122}, {"time": 1595, "pitch": 84, "duration": 3, "velocity": 127}, {"time": 1598, "pitch": 81, "duration": 8, "velocity": 112}, {"time": 1613, "pitch": 76, "duration": 1, "velocity": 96}, {"time": 1616, "pitch": 76, "duration": 1, "velocity": 107}, {"time": 1619, "pitch": 78, "duration": 2, "velocity": 127}, {"time": 1622, "pitch": 81, "duration": 5, "velocity": 122}, {"time": 1634, "pitch": 78, "duration": 5, "velocity": 127}, {"time": 1640, "pitch": 76, "duration": 5, "velocity": 112}, {"time": 1646, "pitch": 74, "duration": 10, "velocity": 97}, {"time": 1664, "pitch": 71, "duration": 3, "velocity": 100}, {"time": 1667, "pitch": 74, "duration": 2, "velocity": 99}, {"time": 1670, "pitch": 79, "duration": 4, "velocity": 112}, {"time": 1676, "pitch": 79, "duration": 3, "velocity": 127}, {"time": 1679, "pitch": 81, "duration": 6, "velocity": 127}, {"time": 1688, "pitch": 79, "duration": 5, "velocity": 107}, {"time": 1694, "pitch": 78, "duration": 5, "velocity": 117}, {"time": 1700, "pitch": 76, "duration": 3, "velocity": 112}, {"time": 1703, "pitch": 74, "duration": 5, "velocity": 100}, {"time": 1712, "pitch": 67, "duration": 3, "velocity": 97}, {"time": 1715, "pitch": 69, "duration": 2, "velocity": 107}, {"time": 1718, "pitch": 71, "duration": 44, "velocity": 112}, {"time": 1766, "pitch": 76, "duration": 4, "velocity": 112}, {"time": 1772, "pitch": 76, "duration": 1, "velocity": 100}, {"time": 1775, "pitch": 76, "duration": 4, "velocity": 112}, {"time": 1781, "pitch": 83, "duration": 7, "velocity": 127}, {"time": 1790, "pitch": 81, "duration": 11, "velocity": 127}, {"time": 1808, "pitch": 83, "duration": 2, "velocity": 122}, {"time": 1811, "pitch": 81, "duration": 2, "velocity": 99}, {"time": 1814, "pitch": 79, "duration": 6, "velocity": 127}, {"time": 1823, "pitch": 79, "duration": 1, "velocity": 117}, {"time": 1826, "pitch": 79, "duration": 4, "velocity": 127}, {"time": 1832, "pitch": 81, "duration": 5, "velocity": 112}, {"time": 1838, "pitch": 76, "duration": 14, "velocity": 102}, {"time": 1856, "pitch": 74, "duration": 1, "velocity": 96}, {"time": 1859, "pitch": 74, "duration": 1, "velocity": 96}, {"time": 1862, "pitch": 76, "duration": 6, "velocity": 122}, {"time": 1871, "pitch": 83, "duration": 2, "velocity": 127}, {"time": 1874, "pitch": 81, "duration": 5, "velocity": 127}, {"time": 1880, "pitch": 79, "duration": 5, "velocity": 127}, {"time": 1892, "pitch": 76, "duration": 2, "velocity": 112}, {"time": 1895, "pitch": 79, "duration": 2, "velocity": 100}, {"time": 1898, "pitch": 83, "duration": 4, "velocity": 127}, {"time": 1904, "pitch": 81, "duration": 3, "velocity": 127}, {"time": 1910, "pitch": 81, "duration": 5, "velocity": 127}, {"time": 1916, "pitch": 76, "duration": 13, "velocity": 102}, {"time": 1928, "pitch": 81, "duration": 5, "velocity": 127}, {"time": 1934, "pitch": 79, "duration": 30, "velocity": 127}, {"time": 2150, "pitch": 74, "duration": 4, "velocity": 127}, {"time": 2156, "pitch": 74, "duration": 1, "velocity": 97}, {"time": 2159, "pitch": 74, "duration": 3, "velocity": 117}, {"time": 2162, "pitch": 74, "duration": 1, "velocity": 127}, {"time": 2168, "pitch": 78, "duration": 5, "velocity": 122}, {"time": 2174, "pitch": 74, "duration": 11, "velocity": 107}, {"time": 2198, "pitch": 71, "duration": 5, "velocity": 102}, {"time": 2204, "pitch": 79, "duration": 2, "velocity": 102}, {"time": 2207, "pitch": 81, "duration": 7, "velocity": 112}, {"time": 2216, "pitch": 76, "duration": 5, "velocity": 122}, {"time": 2222, "pitch": 74, "duration": 12, "velocity": 112}, {"time": 2246, "pitch": 76, "duration": 4, "velocity": 127}, {"time": 2252, "pitch": 74, "duration": 2, "velocity": 117}, {"time": 2255, "pitch": 72, "duration": 7, "velocity": 127}, {"time": 2264, "pitch": 76, "duration": 4, "velocity": 127}, {"time": 2270, "pitch": 74, "duration": 8, "velocity": 127}, {"time": 2279, "pitch": 67, "duration": 8, "velocity": 117}, {"time": 2294, "pitch": 72, "duration": 5, "velocity": 122}, {"time": 2300, "pitch": 71, "duration": 10, "velocity": 99}, {"time": 2312, "pitch": 74, "duration": 5, "velocity": 112}, {"time": 2318, "pitch": 69, "duration": 16, "velocity": 100}, {"time": 2342, "pitch": 71, "duration": 3, "velocity": 102}, {"time": 2348, "pitch": 71, "duration": 1, "velocity": 97}, {"time": 2351, "pitch": 71, "duration": 1, "velocity": 90}, {"time": 2354, "pitch": 71, "duration": 5, "velocity": 102}, {"time": 2360, "pitch": 79, "duration": 4, "velocity": 127}, {"time": 2366, "pitch": 79, "duration": 16, "velocity": 127}, {"time": 2390, "pitch": 81, "duration": 4, "velocity": 117}, {"time": 2396, "pitch": 79, "duration": 2, "velocity": 100}, {"time": 2399, "pitch": 78, "duration": 6, "velocity": 127}, {"time": 2408, "pitch": 81, "duration": 5, "velocity": 102}, {"time": 2414, "pitch": 74, "duration": 11, "velocity": 112}, {"time": 2438, "pitch": 71, "duration": 5, "velocity": 122}, {"time": 2444, "pitch": 79, "duration": 11, "velocity": 127}, {"time": 2456, "pitch": 81, "duration": 2, "velocity": 112}, {"time": 2459, "pitch": 79, "duration": 2, "velocity": 93}, {"time": 2462, "pitch": 78, "duration": 7, "velocity": 117}, {"time": 2474, "pitch": 74, "duration": 5, "velocity": 102}, {"time": 2486, "pitch": 76, "duration": 3, "velocity": 102}, {"time": 2492, "pitch": 76, "duration": 2, "velocity": 107}, {"time": 2495, "pitch": 74, "duration": 3, "velocity": 81}, {"time": 2498, "pitch": 76, "duration": 7, "velocity": 117}, {"time": 2504, "pitch": 79, "duration": 2, "velocity": 117}, {"time": 2510, "pitch": 81, "duration": 22, "velocity": 127}, {"time": 2534, "pitch": 74, "duration": 6, "velocity": 112}, {"time": 2540, "pitch": 83, "duration": 4, "velocity": 122}, {"time": 2546, "pitch": 83, "duration": 4, "velocity": 122}, {"time": 2555, "pitch": 84, "duration": 3, "velocity": 127}, {"time": 2558, "pitch": 81, "duration": 8, "velocity": 112}, {"time": 2573, "pitch": 76, "duration": 1, "velocity": 127}, {"time": 2576, "pitch": 76, "duration": 2, "velocity": 112}, {"time": 2579, "pitch": 79, "duration": 1, "velocity": 97}, {"time": 2582, "pitch": 81, "duration": 5, "velocity": 122}, {"time": 2594, "pitch": 78, "duration": 5, "velocity": 127}, {"time": 2600, "pitch": 76, "duration": 5, "velocity": 112}, {"time": 2606, "pitch": 74, "duration": 10, "velocity": 97}, {"time": 2624, "pitch": 71, "duration": 3, "velocity": 100}, {"time": 2627, "pitch": 74, "duration": 2, "velocity": 99}, {"time": 2630, "pitch": 79, "duration": 4, "velocity": 112}, {"time": 2636, "pitch": 79, "duration": 3, "velocity": 127}, {"time": 2639, "pitch": 81, "duration": 6, "velocity": 127}, {"time": 2648, "pitch": 79, "duration": 5, "velocity": 107}, {"time": 2654, "pitch": 78, "duration": 5, "velocity": 117}, {"time": 2660, "pitch": 76, "duration": 3, "velocity": 112}, {"time": 2663, "pitch": 74, "duration": 5, "velocity": 100}, {"time": 2672, "pitch": 67, "duration": 3, "velocity": 97}, {"time": 2675, "pitch": 69, "duration": 2, "velocity": 107}, {"time": 2678, "pitch": 71, "duration": 15, "velocity": 112}, {"time": 2726, "pitch": 76, "duration": 4, "velocity": 112}, {"time": 2732, "pitch": 76, "duration": 1, "velocity": 100}, {"time": 2735, "pitch": 76, "duration": 4, "velocity": 112}, {"time": 2741, "pitch": 83, "duration": 7, "velocity": 127}, {"time": 2750, "pitch": 81, "duration": 11, "velocity": 127}, {"time": 2768, "pitch": 83, "duration": 2, "velocity": 122}, {"time": 2771, "pitch": 81, "duration": 2, "velocity": 99}, {"time": 2774, "pitch": 79, "duration": 6, "velocity": 127}, {"time": 2783, "pitch": 79, "duration": 1, "velocity": 117}, {"time": 2786, "pitch": 79, "duration": 4, "velocity": 127}, {"time": 2792, "pitch": 81, "duration": 5, "velocity": 112}, {"time": 2798, "pitch": 76, "duration": 14, "velocity": 102}, {"time": 2816, "pitch": 74, "duration": 1, "velocity": 96}, {"time": 2819, "pitch": 74, "duration": 1, "velocity": 96}, {"time": 2822, "pitch": 76, "duration": 6, "velocity": 122}, {"time": 2831, "pitch": 83, "duration": 2, "velocity": 127}, {"time": 2834, "pitch": 81, "duration": 5, "velocity": 127}, {"time": 2840, "pitch": 79, "duration": 5, "velocity": 127}, {"time": 2852, "pitch": 79, "duration": 1, "velocity": 122}, {"time": 2855, "pitch": 79, "duration": 1, "velocity": 100}, {"time": 2858, "pitch": 79, "duration": 3, "velocity": 122}, {"time": 2867, "pitch": 76, "duration": 2, "velocity": 112}, {"time": 2870, "pitch": 81, "duration": 24, "velocity": 127}, {"time": 2918, "pitch": 74, "duration": 6, "velocity": 112}, {"time": 2924, "pitch": 83, "duration": 4, "velocity": 122}, {"time": 2930, "pitch": 83, "duration": 4, "velocity": 122}, {"time": 2939, "pitch": 84, "duration": 3, "velocity": 127}, {"time": 2942, "pitch": 81, "duration": 8, "velocity": 112}, {"time": 2957, "pitch": 76, "duration": 1, "velocity": 96}, {"time": 2960, "pitch": 76, "duration": 1, "velocity": 107}, {"time": 2963, "pitch": 78, "duration": 2, "velocity": 127}, {"time": 2966, "pitch": 81, "duration": 5, "velocity": 122}, {"time": 2978, "pitch": 78, "duration": 5, "velocity": 127}, {"time": 2984, "pitch": 76, "duration": 5, "velocity": 112}, {"time": 2990, "pitch": 74, "duration": 10, "velocity": 97}, {"time": 3008, "pitch": 71, "duration": 3, "velocity": 100}, {"time": 3011, "pitch": 74, "duration": 2, "velocity": 99}, {"time": 3014, "pitch": 79, "duration": 4, "velocity": 112}, {"time": 3020, "pitch": 79, "duration": 3, "velocity": 127}, {"time": 3023, "pitch": 81, "duration": 6, "velocity": 127}, {"time": 3032, "pitch": 79, "duration": 5, "velocity": 107}, {"time": 3038, "pitch": 78, "duration": 5, "velocity": 117}, {"time": 3044, "pitch": 76, "duration": 3, "velocity": 112}, {"time": 3047, "pitch": 74, "duration": 5, "velocity": 100}, {"time": 3056, "pitch": 67, "duration": 3, "velocity": 97}, {"time": 3059, "pitch": 69, "duration": 2, "velocity": 107}, {"time": 3062, "pitch": 71, "duration": 44, "velocity": 112}, {"time": 3110, "pitch": 76, "duration": 4, "velocity": 112}, {"time": 3116, "pitch": 76, "duration": 1, "velocity": 100}, {"time": 3119, "pitch": 76, "duration": 4, "velocity": 112}, {"time": 3125, "pitch": 83, "duration": 7, "velocity": 127}, {"time": 3134, "pitch": 81, "duration": 11, "velocity": 127}, {"time": 3152, "pitch": 83, "duration": 2, "velocity": 122}, {"time": 3155, "pitch": 81, "duration": 2, "velocity": 99}, {"time": 3158, "pitch": 79, "duration": 6, "velocity": 127}, {"time": 3167, "pitch": 79, "duration": 1, "velocity": 117}, {"time": 3170, "pitch": 79, "duration": 4, "velocity": 127}, {"time": 3176, "pitch": 81, "duration": 5, "velocity": 112}, {"time": 3182, "pitch": 76, "duration": 14, "velocity": 102}, {"time": 3200, "pitch": 74, "duration": 1, "velocity": 96}, {"time": 3203, "pitch": 74, "duration": 1, "velocity": 96}, {"time": 3206, "pitch": 76, "duration": 6, "velocity": 122}, {"time": 3215, "pitch": 83, "duration": 2, "velocity": 127}, {"time": 3218, "pitch": 81, "duration": 5, "velocity": 127}, {"time": 3224, "pitch": 79, "duration": 5, "velocity": 127}, {"time": 3236, "pitch": 76, "duration": 2, "velocity": 112}, {"time": 3239, "pitch": 79, "duration": 2, "velocity": 100}, {"time": 3242, "pitch": 83, "duration": 4, "velocity": 127}, {"time": 3248, "pitch": 81, "duration": 3, "velocity": 127}, {"time": 3254, "pitch": 81, "duration": 5, "velocity": 127}, {"time": 3260, "pitch": 76, "duration": 13, "velocity": 102}, {"time": 3272, "pitch": 81, "duration": 5, "velocity": 127}, {"time": 3278, "pitch": 79, "duration": 12, "velocity": 127}, {"time": 3296, "pitch": 74, "duration": 1, "velocity": 107}, {"time": 3299, "pitch": 74, "duration": 2, "velocity": 97}, {"time": 3302, "pitch": 76, "duration": 6, "velocity": 107}, {"time": 3308, "pitch": 83, "duration": 5, "velocity": 122}, {"time": 3314, "pitch": 81, "duration": 7, "velocity": 102}, {"time": 3320, "pitch": 79, "duration": 7, "velocity": 127}, {"time": 3332, "pitch": 76, "duration": 4, "velocity": 97}, {"time": 3335, "pitch": 79, "duration": 3, "velocity": 96}, {"time": 3338, "pitch": 83, "duration": 6, "velocity": 92}, {"time": 3344, "pitch": 81, "duration": 6, "velocity": 117}, {"time": 3350, "pitch": 81, "duration": 1, "velocity": 117}, {"time": 3356, "pitch": 76, "duration": 26, "velocity": 99}, {"time": 3392, "pitch": 81, "duration": 6, "velocity": 117}, {"time": 3398, "pitch": 79, "duration": 27, "velocity": 97}]}, {"program": 0, "is_drum": false, "name": "PIANO", "notes": [{"time": 33, "pitch": 43, "duration": 23, "velocity": 77}, {"time": 38, "pitch": 50, "duration": 17, "velocity": 67}, {"time": 43, "pitch": 57, "duration": 6, "velocity": 82}, {"time": 49, "pitch": 59, "duration": 6, "velocity": 61}, {"time": 55, "pitch": 54, "duration": 11, "velocity": 70}, {"time": 55, "pitch": 60, "duration": 12, "velocity": 57}, {"time": 55, "pitch": 57, "duration": 12, "velocity": 59}, {"time": 67, "pitch": 63, "duration": 11, "velocity": 81}, {"time": 67, "pitch": 59, "duration": 11, "velocity": 83}, {"time": 67, "pitch": 66, "duration": 11, "velocity": 72}, {"time": 79, "pitch": 40, "duration": 48, "velocity": 73}, {"time": 84, "pitch": 47, "duration": 43, "velocity": 55}, {"time": 90, "pitch": 54, "duration": 5, "velocity": 77}, {"time": 95, "pitch": 55, "duration": 32, "velocity": 77}, {"time": 100, "pitch": 62, "duration": 30, "velocity": 92}, {"time": 129, "pitch": 45, "duration": 39, "velocity": 73}, {"time": 134, "pitch": 52, "duration": 33, "velocity": 47}, {"time": 139, "pitch": 59, "duration": 6, "velocity": 82}, {"time": 145, "pitch": 60, "duration": 23, "velocity": 73}, {"time": 175, "pitch": 38, "duration": 48, "velocity": 74}, {"time": 181, "pitch": 45, "duration": 42, "velocity": 55}, {"time": 186, "pitch": 48, "duration": 6, "velocity": 58}, {"time": 192, "pitch": 52, "duration": 6, "velocity": 69}, {"time": 198, "pitch": 57, "duration": 25, "velocity": 69}, {"time": 227, "pitch": 43, "duration": 14, "velocity": 83}, {"time": 231, "pitch": 50, "duration": 10, "velocity": 77}, {"time": 236, "pitch": 55, "duration": 6, "velocity": 86}, {"time": 241, "pitch": 57, "duration": 2, "velocity": 90}, {"time": 247, "pitch": 42, "duration": 4, "velocity": 62}, {"time": 247, "pitch": 60, "duration": 5, "velocity": 66}, {"time": 247, "pitch": 54, "duration": 4, "velocity": 73}, {"time": 247, "pitch": 57, "duration": 4, "velocity": 66}, {"time": 259, "pitch": 54, "duration": 12, "velocity": 75}, {"time": 259, "pitch": 63, "duration": 12, "velocity": 90}, {"time": 259, "pitch": 59, "duration": 12, "velocity": 79}, {"time": 259, "pitch": 66, "duration": 12, "velocity": 78}, {"time": 259, "pitch": 47, "duration": 12, "velocity": 58}, {"time": 259, "pitch": 69, "duration": 12, "velocity": 55}, {"time": 271, "pitch": 40, "duration": 51, "velocity": 76}, {"time": 277, "pitch": 47, "duration": 44, "velocity": 72}, {"time": 282, "pitch": 52, "duration": 32, "velocity": 82}, {"time": 318, "pitch": 60, "duration": 33, "velocity": 42}, {"time": 318, "pitch": 63, "duration": 33, "velocity": 77}, {"time": 319, "pitch": 67, "duration": 32, "velocity": 69}, {"time": 348, "pitch": 60, "duration": 3, "velocity": 83}, {"time": 352, "pitch": 55, "duration": 2, "velocity": 72}, {"time": 355, "pitch": 55, "duration": 3, "velocity": 86}, {"time": 358, "pitch": 51, "duration": 5, "velocity": 66}, {"time": 362, "pitch": 48, "duration": 10, "velocity": 82}, {"time": 367, "pitch": 38, "duration": 55, "velocity": 90}, {"time": 372, "pitch": 45, "duration": 50, "velocity": 52}, {"time": 376, "pitch": 50, "duration": 46, "velocity": 81}, {"time": 380, "pitch": 54, "duration": 42, "velocity": 58}, {"time": 384, "pitch": 57, "duration": 38, "velocity": 66}, {"time": 389, "pitch": 62, "duration": 33, "velocity": 64}, {"time": 422, "pitch": 43, "duration": 17, "velocity": 73}, {"time": 428, "pitch": 50, "duration": 11, "velocity": 47}, {"time": 434, "pitch": 59, "duration": 16, "velocity": 72}, {"time": 434, "pitch": 62, "duration": 16, "velocity": 86}, {"time": 440, "pitch": 50, "duration": 7, "velocity": 43}, {"time": 446, "pitch": 42, "duration": 18, "velocity": 82}, {"time": 452, "pitch": 54, "duration": 10, "velocity": 46}, {"time": 458, "pitch": 59, "duration": 12, "velocity": 76}, {"time": 458, "pitch": 62, "duration": 12, "velocity": 74}, {"time": 464, "pitch": 55, "duration": 6, "velocity": 55}, {"time": 470, "pitch": 40, "duration": 22, "velocity": 73}, {"time": 476, "pitch": 52, "duration": 6, "velocity": 55}, {"time": 482, "pitch": 55, "duration": 10, "velocity": 72}, {"time": 482, "pitch": 59, "duration": 10, "velocity": 70}, {"time": 488, "pitch": 52, "duration": 3, "velocity": 44}, {"time": 494, "pitch": 50, "duration": 13, "velocity": 72}, {"time": 500, "pitch": 57, "duration": 6, "velocity": 63}, {"time": 506, "pitch": 62, "duration": 4, "velocity": 71}, {"time": 506, "pitch": 66, "duration": 4, "velocity": 82}, {"time": 512, "pitch": 57, "duration": 6, "velocity": 74}, {"time": 518, "pitch": 48, "duration": 18, "velocity": 73}, {"time": 524, "pitch": 55, "duration": 6, "velocity": 72}, {"time": 530, "pitch": 60, "duration": 12, "velocity": 73}, {"time": 530, "pitch": 64, "duration": 13, "velocity": 77}, {"time": 536, "pitch": 55, "duration": 6, "velocity": 55}, {"time": 542, "pitch": 43, "duration": 13, "velocity": 66}, {"time": 548, "pitch": 50, "duration": 8, "velocity": 47}, {"time": 554, "pitch": 59, "duration": 12, "velocity": 86}, {"time": 554, "pitch": 62, "duration": 11, "velocity": 83}, {"time": 560, "pitch": 55, "duration": 6, "velocity": 56}, {"time": 566, "pitch": 45, "duration": 15, "velocity": 78}, {"time": 572, "pitch": 52, "duration": 7, "velocity": 55}, {"time": 578, "pitch": 60, "duration": 12, "velocity": 88}, {"time": 578, "pitch": 64, "duration": 12, "velocity": 78}, {"time": 584, "pitch": 57, "duration": 7, "velocity": 53}, {"time": 590, "pitch": 38, "duration": 16, "velocity": 71}, {"time": 596, "pitch": 45, "duration": 10, "velocity": 59}, {"time": 602, "pitch": 54, "duration": 12, "velocity": 90}, {"time": 602, "pitch": 57, "duration": 12, "velocity": 78}, {"time": 608, "pitch": 50, "duration": 6, "velocity": 70}, {"time": 614, "pitch": 43, "duration": 15, "velocity": 72}, {"time": 620, "pitch": 50, "duration": 9, "velocity": 65}, {"time": 626, "pitch": 59, "duration": 13, "velocity": 93}, {"time": 626, "pitch": 62, "duration": 7, "velocity": 93}, {"time": 632, "pitch": 55, "duration": 8, "velocity": 76}, {"time": 638, "pitch": 40, "duration": 13, "velocity": 71}, {"time": 644, "pitch": 47, "duration": 7, "velocity": 59}, {"time": 650, "pitch": 55, "duration": 11, "velocity": 92}, {"time": 650, "pitch": 59, "duration": 11, "velocity": 86}, {"time": 656, "pitch": 52, "duration": 5, "velocity": 49}, {"time": 662, "pitch": 48, "duration": 15, "velocity": 72}, {"time": 668, "pitch": 55, "duration": 7, "velocity": 58}, {"time": 674, "pitch": 60, "duration": 12, "velocity": 85}, {"time": 674, "pitch": 64, "duration": 12, "velocity": 81}, {"time": 680, "pitch": 55, "duration": 6, "velocity": 50}, {"time": 686, "pitch": 50, "duration": 15, "velocity": 72}, {"time": 692, "pitch": 57, "duration": 7, "velocity": 63}, {"time": 698, "pitch": 66, "duration": 5, "velocity": 91}, {"time": 701, "pitch": 62, "duration": 3, "velocity": 72}, {"time": 704, "pitch": 57, "duration": 4, "velocity": 77}, {"time": 710, "pitch": 40, "duration": 14, "velocity": 71}, {"time": 710, "pitch": 52, "duration": 6, "velocity": 79}, {"time": 710, "pitch": 55, "duration": 6, "velocity": 72}, {"time": 710, "pitch": 59, "duration": 7, "velocity": 71}, {"time": 716, "pitch": 47, "duration": 8, "velocity": 38}, {"time": 722, "pitch": 55, "duration": 2, "velocity": 89}, {"time": 722, "pitch": 59, "duration": 2, "velocity": 88}, {"time": 734, "pitch": 47, "duration": 17, "velocity": 66}, {"time": 734, "pitch": 59, "duration": 9, "velocity": 64}, {"time": 734, "pitch": 62, "duration": 8, "velocity": 69}, {"time": 734, "pitch": 66, "duration": 8, "velocity": 59}, {"time": 740, "pitch": 54, "duration": 11, "velocity": 50}, {"time": 746, "pitch": 66, "duration": 5, "velocity": 122}, {"time": 752, "pitch": 62, "duration": 1, "velocity": 76}, {"time": 758, "pitch": 48, "duration": 17, "velocity": 69}, {"time": 758, "pitch": 55, "duration": 9, "velocity": 89}, {"time": 758, "pitch": 60, "duration": 9, "velocity": 89}, {"time": 758, "pitch": 64, "duration": 6, "velocity": 77}, {"time": 770, "pitch": 55, "duration": 5, "velocity": 73}, {"time": 770, "pitch": 60, "duration": 8, "velocity": 93}, {"time": 770, "pitch": 64, "duration": 5, "velocity": 77}, {"time": 782, "pitch": 50, "duration": 18, "velocity": 62}, {"time": 782, "pitch": 57, "duration": 10, "velocity": 81}, {"time": 782, "pitch": 62, "duration": 9, "velocity": 90}, {"time": 782, "pitch": 66, "duration": 10, "velocity": 89}, {"time": 794, "pitch": 62, "duration": 3, "velocity": 100}, {"time": 797, "pitch": 60, "duration": 3, "velocity": 90}, {"time": 800, "pitch": 57, "duration": 5, "velocity": 79}, {"time": 806, "pitch": 43, "duration": 13, "velocity": 79}, {"time": 806, "pitch": 55, "duration": 5, "velocity": 95}, {"time": 806, "pitch": 59, "duration": 5, "velocity": 95}, {"time": 806, "pitch": 62, "duration": 5, "velocity": 89}, {"time": 812, "pitch": 50, "duration": 7, "velocity": 58}, {"time": 818, "pitch": 55, "duration": 5, "velocity": 95}, {"time": 818, "pitch": 59, "duration": 6, "velocity": 99}, {"time": 818, "pitch": 62, "duration": 6, "velocity": 99}, {"time": 824, "pitch": 55, "duration": 5, "velocity": 73}, {"time": 827, "pitch": 43, "duration": 3, "velocity": 97}, {"time": 830, "pitch": 42, "duration": 18, "velocity": 83}, {"time": 830, "pitch": 59, "duration": 14, "velocity": 88}, {"time": 830, "pitch": 62, "duration": 8, "velocity": 88}, {"time": 830, "pitch": 55, "duration": 6, "velocity": 95}, {"time": 836, "pitch": 54, "duration": 8, "velocity": 51}, {"time": 842, "pitch": 62, "duration": 12, "velocity": 67}, {"time": 842, "pitch": 66, "duration": 12, "velocity": 100}, {"time": 848, "pitch": 59, "duration": 6, "velocity": 83}, {"time": 854, "pitch": 40, "duration": 10, "velocity": 72}, {"time": 860, "pitch": 47, "duration": 7, "velocity": 53}, {"time": 866, "pitch": 55, "duration": 11, "velocity": 88}, {"time": 866, "pitch": 59, "duration": 12, "velocity": 83}, {"time": 872, "pitch": 40, "duration": 3, "velocity": 97}, {"time": 872, "pitch": 52, "duration": 6, "velocity": 66}, {"time": 878, "pitch": 50, "duration": 17, "velocity": 88}, {"time": 884, "pitch": 57, "duration": 7, "velocity": 83}, {"time": 890, "pitch": 66, "duration": 3, "velocity": 117}, {"time": 893, "pitch": 64, "duration": 3, "velocity": 96}, {"time": 896, "pitch": 62, "duration": 3, "velocity": 96}, {"time": 899, "pitch": 50, "duration": 3, "velocity": 97}, {"time": 899, "pitch": 57, "duration": 4, "velocity": 78}, {"time": 902, "pitch": 48, "duration": 14, "velocity": 63}, {"time": 902, "pitch": 60, "duration": 8, "velocity": 97}, {"time": 908, "pitch": 55, "duration": 6, "velocity": 60}, {"time": 914, "pitch": 60, "duration": 6, "velocity": 89}, {"time": 914, "pitch": 64, "duration": 6, "velocity": 92}, {"time": 920, "pitch": 43, "duration": 3, "velocity": 97}, {"time": 920, "pitch": 55, "duration": 7, "velocity": 81}, {"time": 926, "pitch": 43, "duration": 13, "velocity": 65}, {"time": 926, "pitch": 59, "duration": 9, "velocity": 85}, {"time": 926, "pitch": 62, "duration": 7, "velocity": 83}, {"time": 932, "pitch": 50, "duration": 7, "velocity": 38}, {"time": 938, "pitch": 59, "duration": 10, "velocity": 99}, {"time": 938, "pitch": 62, "duration": 4, "velocity": 99}, {"time": 944, "pitch": 43, "duration": 3, "velocity": 97}, {"time": 944, "pitch": 55, "duration": 3, "velocity": 73}, {"time": 950, "pitch": 45, "duration": 12, "velocity": 67}, {"time": 950, "pitch": 57, "duration": 6, "velocity": 69}, {"time": 950, "pitch": 60, "duration": 5, "velocity": 88}, {"time": 950, "pitch": 64, "duration": 5, "velocity": 78}, {"time": 956, "pitch": 52, "duration": 6, "velocity": 39}, {"time": 962, "pitch": 60, "duration": 8, "velocity": 100}, {"time": 962, "pitch": 64, "duration": 5, "velocity": 93}, {"time": 962, "pitch": 57, "duration": 3, "velocity": 69}, {"time": 968, "pitch": 45, "duration": 3, "velocity": 97}, {"time": 968, "pitch": 57, "duration": 4, "velocity": 71}, {"time": 974, "pitch": 50, "duration": 17, "velocity": 55}, {"time": 974, "pitch": 57, "duration": 6, "velocity": 93}, {"time": 974, "pitch": 62, "duration": 7, "velocity": 97}, {"time": 974, "pitch": 66, "duration": 10, "velocity": 96}, {"time": 986, "pitch": 62, "duration": 3, "velocity": 117}, {"time": 989, "pitch": 60, "duration": 3, "velocity": 102}, {"time": 992, "pitch": 50, "duration": 3, "velocity": 97}, {"time": 992, "pitch": 57, "duration": 6, "velocity": 100}, {"time": 998, "pitch": 43, "duration": 14, "velocity": 76}, {"time": 998, "pitch": 59, "duration": 7, "velocity": 79}, {"time": 998, "pitch": 62, "duration": 10, "velocity": 85}, {"time": 1004, "pitch": 50, "duration": 7, "velocity": 56}, {"time": 1010, "pitch": 59, "duration": 6, "velocity": 112}, {"time": 1010, "pitch": 62, "duration": 6, "velocity": 96}, {"time": 1016, "pitch": 55, "duration": 5, "velocity": 66}, {"time": 1022, "pitch": 40, "duration": 16, "velocity": 75}, {"time": 1022, "pitch": 52, "duration": 4, "velocity": 90}, {"time": 1022, "pitch": 55, "duration": 4, "velocity": 77}, {"time": 1022, "pitch": 59, "duration": 5, "velocity": 76}, {"time": 1028, "pitch": 47, "duration": 10, "velocity": 49}, {"time": 1034, "pitch": 64, "duration": 6, "velocity": 95}, {"time": 1034, "pitch": 67, "duration": 6, "velocity": 95}, {"time": 1037, "pitch": 52, "duration": 2, "velocity": 64}, {"time": 1040, "pitch": 40, "duration": 3, "velocity": 97}, {"time": 1040, "pitch": 59, "duration": 6, "velocity": 95}, {"time": 1046, "pitch": 48, "duration": 12, "velocity": 74}, {"time": 1046, "pitch": 60, "duration": 7, "velocity": 89}, {"time": 1046, "pitch": 64, "duration": 7, "velocity": 86}, {"time": 1052, "pitch": 55, "duration": 4, "velocity": 55}, {"time": 1058, "pitch": 60, "duration": 8, "velocity": 97}, {"time": 1058, "pitch": 64, "duration": 5, "velocity": 92}, {"time": 1070, "pitch": 50, "duration": 14, "velocity": 56}, {"time": 1070, "pitch": 57, "duration": 10, "velocity": 88}, {"time": 1070, "pitch": 62, "duration": 7, "velocity": 89}, {"time": 1070, "pitch": 66, "duration": 10, "velocity": 92}, {"time": 1082, "pitch": 62, "duration": 3, "velocity": 112}, {"time": 1085, "pitch": 60, "duration": 2, "velocity": 97}, {"time": 1088, "pitch": 50, "duration": 3, "velocity": 97}, {"time": 1088, "pitch": 57, "duration": 1, "velocity": 93}, {"time": 1094, "pitch": 40, "duration": 13, "velocity": 59}, {"time": 1094, "pitch": 52, "duration": 7, "velocity": 82}, {"time": 1094, "pitch": 55, "duration": 6, "velocity": 88}, {"time": 1094, "pitch": 59, "duration": 6, "velocity": 89}, {"time": 1100, "pitch": 47, "duration": 6, "velocity": 51}, {"time": 1106, "pitch": 52, "duration": 2, "velocity": 95}, {"time": 1106, "pitch": 55, "duration": 2, "velocity": 96}, {"time": 1106, "pitch": 59, "duration": 3, "velocity": 95}, {"time": 1115, "pitch": 40, "duration": 3, "velocity": 97}, {"time": 1118, "pitch": 47, "duration": 15, "velocity": 70}, {"time": 1118, "pitch": 59, "duration": 8, "velocity": 90}, {"time": 1118, "pitch": 62, "duration": 8, "velocity": 95}, {"time": 1118, "pitch": 66, "duration": 8, "velocity": 92}, {"time": 1124, "pitch": 54, "duration": 7, "velocity": 69}, {"time": 1130, "pitch": 62, "duration": 5, "velocity": 96}, {"time": 1130, "pitch": 66, "duration": 5, "velocity": 117}, {"time": 1130, "pitch": 59, "duration": 3, "velocity": 90}, {"time": 1136, "pitch": 47, "duration": 3, "velocity": 97}, {"time": 1136, "pitch": 59, "duration": 5, "velocity": 93}, {"time": 1142, "pitch": 48, "duration": 13, "velocity": 69}, {"time": 1142, "pitch": 60, "duration": 6, "velocity": 99}, {"time": 1142, "pitch": 64, "duration": 5, "velocity": 93}, {"time": 1148, "pitch": 60, "duration": 1, "velocity": 24}, {"time": 1154, "pitch": 60, "duration": 5, "velocity": 117}, {"time": 1154, "pitch": 64, "duration": 5, "velocity": 100}, {"time": 1160, "pitch": 48, "duration": 3, "velocity": 97}, {"time": 1163, "pitch": 36, "duration": 3, "velocity": 97}, {"time": 1166, "pitch": 38, "duration": 16, "velocity": 96}, {"time": 1166, "pitch": 57, "duration": 6, "velocity": 100}, {"time": 1166, "pitch": 62, "duration": 6, "velocity": 107}, {"time": 1166, "pitch": 66, "duration": 6, "velocity": 117}, {"time": 1172, "pitch": 45, "duration": 10, "velocity": 95}, {"time": 1175, "pitch": 50, "duration": 3, "velocity": 97}, {"time": 1178, "pitch": 62, "duration": 5, "velocity": 127}, {"time": 1178, "pitch": 66, "duration": 5, "velocity": 127}, {"time": 1178, "pitch": 57, "duration": 2, "velocity": 100}, {"time": 1181, "pitch": 50, "duration": 1, "velocity": 102}, {"time": 1184, "pitch": 57, "duration": 3, "velocity": 127}, {"time": 1187, "pitch": 38, "duration": 3, "velocity": 97}, {"time": 1187, "pitch": 62, "duration": 3, "velocity": 97}, {"time": 1190, "pitch": 43, "duration": 18, "velocity": 81}, {"time": 1190, "pitch": 55, "duration": 7, "velocity": 97}, {"time": 1190, "pitch": 59, "duration": 7, "velocity": 100}, {"time": 1190, "pitch": 62, "duration": 6, "velocity": 96}, {"time": 1196, "pitch": 50, "duration": 8, "velocity": 53}, {"time": 1202, "pitch": 55, "duration": 6, "velocity": 85}, {"time": 1202, "pitch": 59, "duration": 5, "velocity": 107}, {"time": 1202, "pitch": 62, "duration": 6, "velocity": 100}, {"time": 1208, "pitch": 50, "duration": 1, "velocity": 76}, {"time": 1211, "pitch": 43, "duration": 3, "velocity": 97}, {"time": 1214, "pitch": 38, "duration": 6, "velocity": 93}, {"time": 1214, "pitch": 57, "duration": 6, "velocity": 99}, {"time": 1214, "pitch": 62, "duration": 6, "velocity": 112}, {"time": 1214, "pitch": 66, "duration": 6, "velocity": 102}, {"time": 1220, "pitch": 38, "duration": 18, "velocity": 97}, {"time": 1220, "pitch": 45, "duration": 12, "velocity": 62}, {"time": 1226, "pitch": 50, "duration": 1, "velocity": 28}, {"time": 1226, "pitch": 57, "duration": 7, "velocity": 102}, {"time": 1226, "pitch": 62, "duration": 6, "velocity": 117}, {"time": 1226, "pitch": 66, "duration": 6, "velocity": 127}, {"time": 1232, "pitch": 50, "duration": 1, "velocity": 75}, {"time": 1238, "pitch": 45, "duration": 18, "velocity": 83}, {"time": 1238, "pitch": 57, "duration": 6, "velocity": 100}, {"time": 1238, "pitch": 60, "duration": 7, "velocity": 95}, {"time": 1238, "pitch": 64, "duration": 6, "velocity": 95}, {"time": 1244, "pitch": 52, "duration": 7, "velocity": 68}, {"time": 1250, "pitch": 57, "duration": 7, "velocity": 100}, {"time": 1250, "pitch": 60, "duration": 7, "velocity": 107}, {"time": 1250, "pitch": 64, "duration": 6, "velocity": 102}, {"time": 1256, "pitch": 52, "duration": 1, "velocity": 51}, {"time": 1259, "pitch": 45, "duration": 3, "velocity": 97}, {"time": 1262, "pitch": 38, "duration": 6, "velocity": 83}, {"time": 1262, "pitch": 57, "duration": 3, "velocity": 99}, {"time": 1262, "pitch": 62, "duration": 3, "velocity": 122}, {"time": 1262, "pitch": 66, "duration": 3, "velocity": 117}, {"time": 1268, "pitch": 38, "duration": 9, "velocity": 97}, {"time": 1268, "pitch": 45, "duration": 7, "velocity": 47}, {"time": 1274, "pitch": 54, "duration": 6, "velocity": 127}, {"time": 1274, "pitch": 57, "duration": 6, "velocity": 107}, {"time": 1277, "pitch": 38, "duration": 3, "velocity": 80}, {"time": 1277, "pitch": 45, "duration": 1, "velocity": 79}, {"time": 1280, "pitch": 50, "duration": 1, "velocity": 96}, {"time": 1286, "pitch": 48, "duration": 14, "velocity": 102}, {"time": 1286, "pitch": 55, "duration": 7, "velocity": 112}, {"time": 1286, "pitch": 60, "duration": 8, "velocity": 102}, {"time": 1286, "pitch": 64, "duration": 7, "velocity": 99}, {"time": 1298, "pitch": 55, "duration": 3, "velocity": 117}, {"time": 1298, "pitch": 60, "duration": 3, "velocity": 112}, {"time": 1298, "pitch": 64, "duration": 4, "velocity": 112}, {"time": 1307, "pitch": 48, "duration": 3, "velocity": 97}, {"time": 1310, "pitch": 50, "duration": 16, "velocity": 85}, {"time": 1310, "pitch": 57, "duration": 12, "velocity": 93}, {"time": 1310, "pitch": 62, "duration": 6, "velocity": 112}, {"time": 1310, "pitch": 66, "duration": 6, "velocity": 127}, {"time": 1310, "pitch": 69, "duration": 6, "velocity": 100}, {"time": 1316, "pitch": 54, "duration": 10, "velocity": 38}, {"time": 1322, "pitch": 62, "duration": 3, "velocity": 107}, {"time": 1322, "pitch": 66, "duration": 6, "velocity": 127}, {"time": 1322, "pitch": 69, "duration": 6, "velocity": 122}, {"time": 1325, "pitch": 57, "duration": 1, "velocity": 76}, {"time": 1328, "pitch": 62, "duration": 1, "velocity": 127}, {"time": 1331, "pitch": 50, "duration": 3, "velocity": 97}, {"time": 1334, "pitch": 43, "duration": 18, "velocity": 76}, {"time": 1334, "pitch": 55, "duration": 6, "velocity": 117}, {"time": 1334, "pitch": 59, "duration": 6, "velocity": 127}, {"time": 1334, "pitch": 62, "duration": 7, "velocity": 117}, {"time": 1340, "pitch": 50, "duration": 7, "velocity": 47}, {"time": 1346, "pitch": 55, "duration": 6, "velocity": 100}, {"time": 1346, "pitch": 59, "duration": 5, "velocity": 127}, {"time": 1346, "pitch": 62, "duration": 6, "velocity": 107}, {"time": 1352, "pitch": 43, "duration": 3, "velocity": 97}, {"time": 1352, "pitch": 50, "duration": 9, "velocity": 97}, {"time": 1355, "pitch": 43, "duration": 3, "velocity": 97}, {"time": 1358, "pitch": 55, "duration": 1, "velocity": 85}, {"time": 1358, "pitch": 59, "duration": 1, "velocity": 88}, {"time": 1358, "pitch": 62, "duration": 2, "velocity": 86}, {"time": 1358, "pitch": 67, "duration": 2, "velocity": 82}, {"time": 1361, "pitch": 55, "duration": 3, "velocity": 100}, {"time": 1361, "pitch": 59, "duration": 3, "velocity": 112}, {"time": 1361, "pitch": 62, "duration": 5, "velocity": 102}, {"time": 1361, "pitch": 67, "duration": 3, "velocity": 97}, {"time": 1364, "pitch": 50, "duration": 8, "velocity": 95}, {"time": 1370, "pitch": 55, "duration": 4, "velocity": 107}, {"time": 1370, "pitch": 59, "duration": 6, "velocity": 127}, {"time": 1370, "pitch": 62, "duration": 7, "velocity": 102}, {"time": 1370, "pitch": 67, "duration": 6, "velocity": 97}, {"time": 1373, "pitch": 50, "duration": 1, "velocity": 86}, {"time": 1376, "pitch": 55, "duration": 4, "velocity": 112}, {"time": 1382, "pitch": 48, "duration": 15, "velocity": 112}, {"time": 1382, "pitch": 55, "duration": 9, "velocity": 127}, {"time": 1382, "pitch": 60, "duration": 10, "velocity": 112}, {"time": 1382, "pitch": 64, "duration": 9, "velocity": 99}, {"time": 1394, "pitch": 55, "duration": 6, "velocity": 102}, {"time": 1394, "pitch": 60, "duration": 8, "velocity": 127}, {"time": 1394, "pitch": 64, "duration": 6, "velocity": 112}, {"time": 1403, "pitch": 48, "duration": 3, "velocity": 97}, {"time": 1406, "pitch": 38, "duration": 18, "velocity": 78}, {"time": 1406, "pitch": 57, "duration": 7, "velocity": 102}, {"time": 1406, "pitch": 62, "duration": 6, "velocity": 112}, {"time": 1406, "pitch": 66, "duration": 7, "velocity": 117}, {"time": 1412, "pitch": 45, "duration": 7, "velocity": 66}, {"time": 1418, "pitch": 50, "duration": 6, "velocity": 83}, {"time": 1418, "pitch": 57, "duration": 6, "velocity": 102}, {"time": 1418, "pitch": 62, "duration": 7, "velocity": 127}, {"time": 1418, "pitch": 66, "duration": 7, "velocity": 117}, {"time": 1424, "pitch": 45, "duration": 1, "velocity": 56}, {"time": 1430, "pitch": 47, "duration": 15, "velocity": 88}, {"time": 1430, "pitch": 59, "duration": 7, "velocity": 95}, {"time": 1430, "pitch": 62, "duration": 6, "velocity": 112}, {"time": 1430, "pitch": 66, "duration": 7, "velocity": 112}, {"time": 1436, "pitch": 54, "duration": 7, "velocity": 63}, {"time": 1442, "pitch": 62, "duration": 6, "velocity": 122}, {"time": 1442, "pitch": 66, "duration": 6, "velocity": 127}, {"time": 1442, "pitch": 59, "duration": 3, "velocity": 122}, {"time": 1445, "pitch": 54, "duration": 1, "velocity": 107}, {"time": 1448, "pitch": 59, "duration": 7, "velocity": 96}, {"time": 1451, "pitch": 47, "duration": 3, "velocity": 97}, {"time": 1451, "pitch": 62, "duration": 2, "velocity": 95}, {"time": 1454, "pitch": 40, "duration": 9, "velocity": 86}, {"time": 1454, "pitch": 64, "duration": 1, "velocity": 95}, {"time": 1454, "pitch": 67, "duration": 1, "velocity": 99}, {"time": 1457, "pitch": 47, "duration": 14, "velocity": 93}, {"time": 1457, "pitch": 52, "duration": 7, "velocity": 99}, {"time": 1457, "pitch": 55, "duration": 5, "velocity": 117}, {"time": 1463, "pitch": 40, "duration": 3, "velocity": 97}, {"time": 1463, "pitch": 54, "duration": 2, "velocity": 127}, {"time": 1466, "pitch": 52, "duration": 6, "velocity": 99}, {"time": 1466, "pitch": 55, "duration": 5, "velocity": 117}, {"time": 1469, "pitch": 52, "duration": 3, "velocity": 96}, {"time": 1472, "pitch": 57, "duration": 5, "velocity": 112}, {"time": 1475, "pitch": 40, "duration": 3, "velocity": 97}, {"time": 1478, "pitch": 48, "duration": 14, "velocity": 97}, {"time": 1478, "pitch": 55, "duration": 7, "velocity": 107}, {"time": 1478, "pitch": 60, "duration": 10, "velocity": 102}, {"time": 1478, "pitch": 64, "duration": 7, "velocity": 97}, {"time": 1490, "pitch": 55, "duration": 7, "velocity": 112}, {"time": 1490, "pitch": 60, "duration": 5, "velocity": 117}, {"time": 1490, "pitch": 64, "duration": 6, "velocity": 97}, {"time": 1499, "pitch": 48, "duration": 3, "velocity": 97}, {"time": 1502, "pitch": 45, "duration": 6, "velocity": 74}, {"time": 1502, "pitch": 52, "duration": 15, "velocity": 75}, {"time": 1502, "pitch": 57, "duration": 7, "velocity": 107}, {"time": 1502, "pitch": 61, "duration": 9, "velocity": 127}, {"time": 1502, "pitch": 64, "duration": 7, "velocity": 99}, {"time": 1502, "pitch": 67, "duration": 6, "velocity": 96}, {"time": 1508, "pitch": 45, "duration": 9, "velocity": 97}, {"time": 1514, "pitch": 57, "duration": 7, "velocity": 102}, {"time": 1514, "pitch": 61, "duration": 6, "velocity": 127}, {"time": 1514, "pitch": 64, "duration": 6, "velocity": 102}, {"time": 1514, "pitch": 67, "duration": 6, "velocity": 100}, {"time": 1520, "pitch": 52, "duration": 1, "velocity": 72}, {"time": 1523, "pitch": 45, "duration": 3, "velocity": 97}, {"time": 1526, "pitch": 50, "duration": 6, "velocity": 112}, {"time": 1526, "pitch": 57, "duration": 9, "velocity": 112}, {"time": 1526, "pitch": 62, "duration": 9, "velocity": 122}, {"time": 1526, "pitch": 66, "duration": 9, "velocity": 127}, {"time": 1535, "pitch": 50, "duration": 3, "velocity": 97}, {"time": 1538, "pitch": 57, "duration": 3, "velocity": 112}, {"time": 1538, "pitch": 62, "duration": 6, "velocity": 127}, {"time": 1538, "pitch": 66, "duration": 6, "velocity": 127}, {"time": 1541, "pitch": 50, "duration": 1, "velocity": 102}, {"time": 1544, "pitch": 57, "duration": 1, "velocity": 117}, {"time": 1547, "pitch": 50, "duration": 3, "velocity": 97}, {"time": 1550, "pitch": 48, "duration": 6, "velocity": 127}, {"time": 1550, "pitch": 55, "duration": 3, "velocity": 127}, {"time": 1550, "pitch": 60, "duration": 3, "velocity": 117}, {"time": 1550, "pitch": 64, "duration": 3, "velocity": 107}, {"time": 1553, "pitch": 55, "duration": 3, "velocity": 127}, {"time": 1553, "pitch": 60, "duration": 3, "velocity": 117}, {"time": 1559, "pitch": 48, "duration": 3, "velocity": 97}, {"time": 1562, "pitch": 50, "duration": 6, "velocity": 117}, {"time": 1562, "pitch": 57, "duration": 8, "velocity": 107}, {"time": 1562, "pitch": 62, "duration": 6, "velocity": 127}, {"time": 1562, "pitch": 66, "duration": 6, "velocity": 127}, {"time": 1568, "pitch": 50, "duration": 1, "velocity": 97}, {"time": 1574, "pitch": 43, "duration": 17, "velocity": 97}, {"time": 1574, "pitch": 55, "duration": 7, "velocity": 102}, {"time": 1574, "pitch": 59, "duration": 7, "velocity": 100}, {"time": 1574, "pitch": 62, "duration": 7, "velocity": 99}, {"time": 1580, "pitch": 50, "duration": 8, "velocity": 54}, {"time": 1586, "pitch": 55, "duration": 6, "velocity": 102}, {"time": 1586, "pitch": 59, "duration": 6, "velocity": 122}, {"time": 1586, "pitch": 62, "duration": 5, "velocity": 100}, {"time": 1592, "pitch": 50, "duration": 1, "velocity": 79}, {"time": 1595, "pitch": 43, "duration": 3, "velocity": 97}, {"time": 1598, "pitch": 38, "duration": 6, "velocity": 86}, {"time": 1598, "pitch": 57, "duration": 7, "velocity": 107}, {"time": 1598, "pitch": 62, "duration": 7, "velocity": 107}, {"time": 1598, "pitch": 66, "duration": 7, "velocity": 122}, {"time": 1604, "pitch": 38, "duration": 9, "velocity": 97}, {"time": 1604, "pitch": 45, "duration": 12, "velocity": 51}, {"time": 1610, "pitch": 57, "duration": 9, "velocity": 112}, {"time": 1610, "pitch": 62, "duration": 6, "velocity": 127}, {"time": 1610, "pitch": 66, "duration": 6, "velocity": 127}, {"time": 1616, "pitch": 50, "duration": 5, "velocity": 82}, {"time": 1619, "pitch": 38, "duration": 3, "velocity": 97}, {"time": 1622, "pitch": 45, "duration": 16, "velocity": 75}, {"time": 1622, "pitch": 57, "duration": 7, "velocity": 107}, {"time": 1622, "pitch": 60, "duration": 9, "velocity": 107}, {"time": 1622, "pitch": 64, "duration": 7, "velocity": 100}, {"time": 1628, "pitch": 52, "duration": 6, "velocity": 61}, {"time": 1634, "pitch": 60, "duration": 6, "velocity": 122}, {"time": 1634, "pitch": 64, "duration": 7, "velocity": 107}, {"time": 1637, "pitch": 52, "duration": 1, "velocity": 90}, {"time": 1640, "pitch": 57, "duration": 12, "velocity": 99}, {"time": 1640, "pitch": 59, "duration": 1, "velocity": 89}, {"time": 1643, "pitch": 38, "duration": 3, "velocity": 97}, {"time": 1643, "pitch": 60, "duration": 2, "velocity": 97}, {"time": 1646, "pitch": 38, "duration": 6, "velocity": 77}, {"time": 1646, "pitch": 62, "duration": 7, "velocity": 100}, {"time": 1646, "pitch": 66, "duration": 7, "velocity": 107}, {"time": 1649, "pitch": 45, "duration": 13, "velocity": 81}, {"time": 1652, "pitch": 38, "duration": 9, "velocity": 97}, {"time": 1652, "pitch": 50, "duration": 7, "velocity": 102}, {"time": 1658, "pitch": 62, "duration": 6, "velocity": 102}, {"time": 1658, "pitch": 66, "duration": 5, "velocity": 122}, {"time": 1661, "pitch": 38, "duration": 3, "velocity": 97}, {"time": 1661, "pitch": 50, "duration": 3, "velocity": 71}, {"time": 1664, "pitch": 57, "duration": 5, "velocity": 102}, {"time": 1670, "pitch": 48, "duration": 16, "velocity": 97}, {"time": 1670, "pitch": 60, "duration": 9, "velocity": 127}, {"time": 1670, "pitch": 64, "duration": 9, "velocity": 100}, {"time": 1670, "pitch": 67, "duration": 6, "velocity": 92}, {"time": 1682, "pitch": 60, "duration": 9, "velocity": 127}, {"time": 1682, "pitch": 64, "duration": 6, "velocity": 122}, {"time": 1682, "pitch": 67, "duration": 6, "velocity": 95}, {"time": 1691, "pitch": 48, "duration": 3, "velocity": 97}, {"time": 1694, "pitch": 50, "duration": 14, "velocity": 92}, {"time": 1694, "pitch": 57, "duration": 9, "velocity": 99}, {"time": 1694, "pitch": 62, "duration": 10, "velocity": 102}, {"time": 1694, "pitch": 66, "duration": 9, "velocity": 112}, {"time": 1706, "pitch": 62, "duration": 6, "velocity": 117}, {"time": 1706, "pitch": 66, "duration": 5, "velocity": 127}, {"time": 1706, "pitch": 57, "duration": 4, "velocity": 117}, {"time": 1712, "pitch": 57, "duration": 4, "velocity": 107}, {"time": 1715, "pitch": 50, "duration": 3, "velocity": 97}, {"time": 1718, "pitch": 43, "duration": 21, "velocity": 82}, {"time": 1718, "pitch": 55, "duration": 7, "velocity": 117}, {"time": 1718, "pitch": 59, "duration": 7, "velocity": 99}, {"time": 1718, "pitch": 62, "duration": 10, "velocity": 97}, {"time": 1724, "pitch": 50, "duration": 8, "velocity": 56}, {"time": 1730, "pitch": 55, "duration": 6, "velocity": 100}, {"time": 1730, "pitch": 59, "duration": 6, "velocity": 127}, {"time": 1730, "pitch": 62, "duration": 7, "velocity": 102}, {"time": 1736, "pitch": 50, "duration": 5, "velocity": 41}, {"time": 1739, "pitch": 43, "duration": 3, "velocity": 97}, {"time": 1739, "pitch": 55, "duration": 1, "velocity": 107}, {"time": 1739, "pitch": 59, "duration": 1, "velocity": 102}, {"time": 1739, "pitch": 62, "duration": 1, "velocity": 97}, {"time": 1739, "pitch": 65, "duration": 1, "velocity": 95}, {"time": 1742, "pitch": 43, "duration": 6, "velocity": 89}, {"time": 1742, "pitch": 55, "duration": 7, "velocity": 93}, {"time": 1742, "pitch": 59, "duration": 7, "velocity": 95}, {"time": 1742, "pitch": 62, "duration": 7, "velocity": 96}, {"time": 1742, "pitch": 65, "duration": 7, "velocity": 95}, {"time": 1748, "pitch": 43, "duration": 3, "velocity": 97}, {"time": 1751, "pitch": 55, "duration": 3, "velocity": 97}, {"time": 1754, "pitch": 43, "duration": 9, "velocity": 97}, {"time": 1754, "pitch": 55, "duration": 3, "velocity": 102}, {"time": 1754, "pitch": 59, "duration": 3, "velocity": 112}, {"time": 1754, "pitch": 62, "duration": 4, "velocity": 117}, {"time": 1754, "pitch": 65, "duration": 3, "velocity": 100}, {"time": 1757, "pitch": 50, "duration": 2, "velocity": 89}, {"time": 1760, "pitch": 59, "duration": 5, "velocity": 100}, {"time": 1760, "pitch": 62, "duration": 4, "velocity": 95}, {"time": 1760, "pitch": 65, "duration": 4, "velocity": 81}, {"time": 1760, "pitch": 55, "duration": 4, "velocity": 102}, {"time": 1763, "pitch": 43, "duration": 3, "velocity": 97}, {"time": 1766, "pitch": 48, "duration": 14, "velocity": 93}, {"time": 1766, "pitch": 55, "duration": 9, "velocity": 102}, {"time": 1766, "pitch": 60, "duration": 9, "velocity": 107}, {"time": 1766, "pitch": 64, "duration": 9, "velocity": 100}, {"time": 1778, "pitch": 55, "duration": 8, "velocity": 102}, {"time": 1778, "pitch": 60, "duration": 6, "velocity": 107}, {"time": 1778, "pitch": 64, "duration": 5, "velocity": 112}, {"time": 1787, "pitch": 48, "duration": 3, "velocity": 97}, {"time": 1790, "pitch": 38, "duration": 6, "velocity": 85}, {"time": 1790, "pitch": 57, "duration": 7, "velocity": 112}, {"time": 1790, "pitch": 62, "duration": 7, "velocity": 112}, {"time": 1790, "pitch": 66, "duration": 7, "velocity": 122}, {"time": 1796, "pitch": 38, "duration": 12, "velocity": 97}, {"time": 1796, "pitch": 45, "duration": 7, "velocity": 38}, {"time": 1802, "pitch": 50, "duration": 6, "velocity": 82}, {"time": 1802, "pitch": 57, "duration": 9, "velocity": 112}, {"time": 1802, "pitch": 62, "duration": 5, "velocity": 117}, {"time": 1802, "pitch": 66, "duration": 10, "velocity": 127}, {"time": 1808, "pitch": 45, "duration": 2, "velocity": 59}, {"time": 1811, "pitch": 38, "duration": 3, "velocity": 97}, {"time": 1814, "pitch": 47, "duration": 13, "velocity": 115}, {"time": 1814, "pitch": 59, "duration": 8, "velocity": 113}, {"time": 1814, "pitch": 62, "duration": 9, "velocity": 113}, {"time": 1814, "pitch": 66, "duration": 8, "velocity": 120}, {"time": 1814, "pitch": 35, "duration": 13, "velocity": 115}, {"time": 1826, "pitch": 59, "duration": 5, "velocity": 100}, {"time": 1826, "pitch": 62, "duration": 6, "velocity": 112}, {"time": 1826, "pitch": 66, "duration": 7, "velocity": 127}, {"time": 1829, "pitch": 47, "duration": 1, "velocity": 97}, {"time": 1832, "pitch": 59, "duration": 9, "velocity": 117}, {"time": 1835, "pitch": 47, "duration": 3, "velocity": 97}, {"time": 1835, "pitch": 62, "duration": 2, "velocity": 99}, {"time": 1838, "pitch": 40, "duration": 6, "velocity": 105}, {"time": 1841, "pitch": 64, "duration": 3, "velocity": 107}, {"time": 1841, "pitch": 67, "duration": 3, "velocity": 117}, {"time": 1844, "pitch": 40, "duration": 12, "velocity": 97}, {"time": 1847, "pitch": 52, "duration": 4, "velocity": 96}, {"time": 1850, "pitch": 64, "duration": 3, "velocity": 107}, {"time": 1850, "pitch": 67, "duration": 3, "velocity": 117}, {"time": 1853, "pitch": 52, "duration": 3, "velocity": 76}, {"time": 1856, "pitch": 59, "duration": 4, "velocity": 127}, {"time": 1859, "pitch": 40, "duration": 3, "velocity": 97}, {"time": 1862, "pitch": 48, "duration": 21, "velocity": 99}, {"time": 1862, "pitch": 55, "duration": 9, "velocity": 107}, {"time": 1862, "pitch": 60, "duration": 9, "velocity": 112}, {"time": 1862, "pitch": 64, "duration": 9, "velocity": 100}, {"time": 1874, "pitch": 55, "duration": 9, "velocity": 93}, {"time": 1874, "pitch": 60, "duration": 5, "velocity": 112}, {"time": 1874, "pitch": 64, "duration": 10, "velocity": 99}, {"time": 1883, "pitch": 48, "duration": 3, "velocity": 97}, {"time": 1886, "pitch": 45, "duration": 6, "velocity": 110}, {"time": 1886, "pitch": 57, "duration": 9, "velocity": 99}, {"time": 1886, "pitch": 61, "duration": 9, "velocity": 127}, {"time": 1886, "pitch": 64, "duration": 9, "velocity": 92}, {"time": 1892, "pitch": 45, "duration": 12, "velocity": 97}, {"time": 1898, "pitch": 57, "duration": 4, "velocity": 97}, {"time": 1898, "pitch": 61, "duration": 7, "velocity": 127}, {"time": 1898, "pitch": 64, "duration": 6, "velocity": 97}, {"time": 1904, "pitch": 57, "duration": 3, "velocity": 85}, {"time": 1907, "pitch": 45, "duration": 3, "velocity": 97}, {"time": 1910, "pitch": 38, "duration": 6, "velocity": 89}, {"time": 1910, "pitch": 57, "duration": 2, "velocity": 97}, {"time": 1910, "pitch": 62, "duration": 1, "velocity": 122}, {"time": 1910, "pitch": 66, "duration": 1, "velocity": 112}, {"time": 1913, "pitch": 45, "duration": 14, "velocity": 88}, {"time": 1916, "pitch": 50, "duration": 7, "velocity": 92}, {"time": 1919, "pitch": 38, "duration": 6, "velocity": 97}, {"time": 1919, "pitch": 54, "duration": 3, "velocity": 117}, {"time": 1919, "pitch": 57, "duration": 4, "velocity": 100}, {"time": 1925, "pitch": 50, "duration": 7, "velocity": 99}, {"time": 1928, "pitch": 38, "duration": 3, "velocity": 97}, {"time": 1928, "pitch": 54, "duration": 1, "velocity": 117}, {"time": 1928, "pitch": 57, "duration": 3, "velocity": 97}, {"time": 1934, "pitch": 43, "duration": 19, "velocity": 102}, {"time": 1934, "pitch": 55, "duration": 5, "velocity": 122}, {"time": 1934, "pitch": 59, "duration": 8, "velocity": 122}, {"time": 1934, "pitch": 62, "duration": 8, "velocity": 122}, {"time": 1940, "pitch": 50, "duration": 6, "velocity": 90}, {"time": 1943, "pitch": 57, "duration": 9, "velocity": 112}, {"time": 1949, "pitch": 50, "duration": 11, "velocity": 69}, {"time": 1952, "pitch": 59, "duration": 23, "velocity": 100}, {"time": 1958, "pitch": 43, "duration": 15, "velocity": 66}, {"time": 1961, "pitch": 50, "duration": 10, "velocity": 44}, {"time": 1964, "pitch": 57, "duration": 11, "velocity": 88}, {"time": 1967, "pitch": 59, "duration": 8, "velocity": 76}, {"time": 1982, "pitch": 50, "duration": 20, "velocity": 60}, {"time": 1982, "pitch": 57, "duration": 3, "velocity": 75}, {"time": 1982, "pitch": 62, "duration": 7, "velocity": 86}, {"time": 1982, "pitch": 66, "duration": 7, "velocity": 89}, {"time": 1988, "pitch": 62, "duration": 1, "velocity": 88}, {"time": 1991, "pitch": 69, "duration": 8, "velocity": 85}, {"time": 2006, "pitch": 45, "duration": 10, "velocity": 59}, {"time": 2006, "pitch": 57, "duration": 9, "velocity": 85}, {"time": 2006, "pitch": 60, "duration": 10, "velocity": 78}, {"time": 2006, "pitch": 64, "duration": 7, "velocity": 81}, {"time": 2018, "pitch": 47, "duration": 4, "velocity": 54}, {"time": 2018, "pitch": 59, "duration": 10, "velocity": 77}, {"time": 2018, "pitch": 62, "duration": 6, "velocity": 92}, {"time": 2018, "pitch": 66, "duration": 7, "velocity": 97}, {"time": 2030, "pitch": 40, "duration": 16, "velocity": 66}, {"time": 2030, "pitch": 59, "duration": 5, "velocity": 82}, {"time": 2030, "pitch": 64, "duration": 4, "velocity": 96}, {"time": 2030, "pitch": 67, "duration": 4, "velocity": 93}, {"time": 2036, "pitch": 47, "duration": 7, "velocity": 63}, {"time": 2039, "pitch": 52, "duration": 3, "velocity": 66}, {"time": 2042, "pitch": 54, "duration": 5, "velocity": 127}, {"time": 2045, "pitch": 47, "duration": 1, "velocity": 89}, {"time": 2048, "pitch": 55, "duration": 1, "velocity": 107}, {"time": 2054, "pitch": 36, "duration": 16, "velocity": 77}, {"time": 2054, "pitch": 55, "duration": 9, "velocity": 122}, {"time": 2054, "pitch": 60, "duration": 8, "velocity": 112}, {"time": 2054, "pitch": 64, "duration": 7, "velocity": 93}, {"time": 2060, "pitch": 43, "duration": 7, "velocity": 35}, {"time": 2066, "pitch": 55, "duration": 8, "velocity": 92}, {"time": 2066, "pitch": 60, "duration": 10, "velocity": 100}, {"time": 2066, "pitch": 64, "duration": 4, "velocity": 93}, {"time": 2078, "pitch": 38, "duration": 12, "velocity": 76}, {"time": 2078, "pitch": 57, "duration": 7, "velocity": 97}, {"time": 2078, "pitch": 62, "duration": 8, "velocity": 100}, {"time": 2078, "pitch": 66, "duration": 8, "velocity": 107}, {"time": 2084, "pitch": 45, "duration": 6, "velocity": 34}, {"time": 2090, "pitch": 62, "duration": 6, "velocity": 100}, {"time": 2090, "pitch": 66, "duration": 6, "velocity": 117}, {"time": 2090, "pitch": 57, "duration": 4, "velocity": 100}, {"time": 2096, "pitch": 57, "duration": 5, "velocity": 79}, {"time": 2102, "pitch": 43, "duration": 21, "velocity": 73}, {"time": 2102, "pitch": 59, "duration": 11, "velocity": 83}, {"time": 2102, "pitch": 62, "duration": 9, "velocity": 89}, {"time": 2108, "pitch": 50, "duration": 44, "velocity": 53}, {"time": 2111, "pitch": 55, "duration": 4, "velocity": 66}, {"time": 2114, "pitch": 57, "duration": 7, "velocity": 96}, {"time": 2117, "pitch": 55, "duration": 2, "velocity": 71}, {"time": 2120, "pitch": 59, "duration": 31, "velocity": 92}, {"time": 2123, "pitch": 62, "duration": 28, "velocity": 69}, {"time": 2126, "pitch": 43, "duration": 24, "velocity": 73}, {"time": 2126, "pitch": 55, "duration": 25, "velocity": 95}, {"time": 2150, "pitch": 43, "duration": 1, "velocity": 79}, {"time": 2150, "pitch": 55, "duration": 1, "velocity": 95}, {"time": 2150, "pitch": 59, "duration": 1, "velocity": 95}, {"time": 2150, "pitch": 62, "duration": 1, "velocity": 89}, {"time": 2156, "pitch": 50, "duration": 7, "velocity": 58}, {"time": 2162, "pitch": 59, "duration": 6, "velocity": 99}, {"time": 2162, "pitch": 62, "duration": 6, "velocity": 99}, {"time": 2168, "pitch": 55, "duration": 5, "velocity": 73}, {"time": 2171, "pitch": 43, "duration": 3, "velocity": 97}, {"time": 2174, "pitch": 42, "duration": 18, "velocity": 83}, {"time": 2174, "pitch": 59, "duration": 14, "velocity": 88}, {"time": 2174, "pitch": 62, "duration": 8, "velocity": 88}, {"time": 2180, "pitch": 54, "duration": 8, "velocity": 51}, {"time": 2186, "pitch": 62, "duration": 12, "velocity": 67}, {"time": 2186, "pitch": 66, "duration": 12, "velocity": 100}, {"time": 2192, "pitch": 59, "duration": 6, "velocity": 83}, {"time": 2198, "pitch": 40, "duration": 10, "velocity": 72}, {"time": 2204, "pitch": 47, "duration": 7, "velocity": 53}, {"time": 2210, "pitch": 55, "duration": 11, "velocity": 88}, {"time": 2210, "pitch": 59, "duration": 12, "velocity": 83}, {"time": 2216, "pitch": 40, "duration": 3, "velocity": 97}, {"time": 2216, "pitch": 52, "duration": 6, "velocity": 66}, {"time": 2222, "pitch": 50, "duration": 17, "velocity": 88}, {"time": 2228, "pitch": 57, "duration": 7, "velocity": 83}, {"time": 2234, "pitch": 66, "duration": 3, "velocity": 117}, {"time": 2237, "pitch": 64, "duration": 3, "velocity": 96}, {"time": 2240, "pitch": 62, "duration": 3, "velocity": 96}, {"time": 2243, "pitch": 50, "duration": 3, "velocity": 97}, {"time": 2243, "pitch": 57, "duration": 4, "velocity": 78}, {"time": 2246, "pitch": 48, "duration": 14, "velocity": 63}, {"time": 2246, "pitch": 60, "duration": 8, "velocity": 97}, {"time": 2252, "pitch": 55, "duration": 6, "velocity": 60}, {"time": 2258, "pitch": 60, "duration": 6, "velocity": 89}, {"time": 2258, "pitch": 64, "duration": 6, "velocity": 92}, {"time": 2264, "pitch": 43, "duration": 3, "velocity": 97}, {"time": 2264, "pitch": 55, "duration": 7, "velocity": 81}, {"time": 2270, "pitch": 43, "duration": 13, "velocity": 65}, {"time": 2270, "pitch": 59, "duration": 9, "velocity": 85}, {"time": 2270, "pitch": 62, "duration": 7, "velocity": 83}, {"time": 2276, "pitch": 50, "duration": 7, "velocity": 38}, {"time": 2282, "pitch": 59, "duration": 10, "velocity": 99}, {"time": 2282, "pitch": 62, "duration": 4, "velocity": 99}, {"time": 2288, "pitch": 43, "duration": 3, "velocity": 97}, {"time": 2288, "pitch": 55, "duration": 3, "velocity": 73}, {"time": 2294, "pitch": 45, "duration": 12, "velocity": 67}, {"time": 2294, "pitch": 57, "duration": 6, "velocity": 69}, {"time": 2294, "pitch": 60, "duration": 5, "velocity": 88}, {"time": 2294, "pitch": 64, "duration": 5, "velocity": 78}, {"time": 2300, "pitch": 52, "duration": 6, "velocity": 39}, {"time": 2306, "pitch": 60, "duration": 8, "velocity": 100}, {"time": 2306, "pitch": 64, "duration": 5, "velocity": 93}, {"time": 2306, "pitch": 56, "duration": 5, "velocity": 93}, {"time": 2312, "pitch": 45, "duration": 3, "velocity": 97}, {"time": 2312, "pitch": 57, "duration": 4, "velocity": 71}, {"time": 2318, "pitch": 50, "duration": 17, "velocity": 55}, {"time": 2318, "pitch": 57, "duration": 6, "velocity": 93}, {"time": 2318, "pitch": 62, "duration": 7, "velocity": 97}, {"time": 2318, "pitch": 66, "duration": 10, "velocity": 96}, {"time": 2330, "pitch": 62, "duration": 3, "velocity": 117}, {"time": 2333, "pitch": 60, "duration": 3, "velocity": 102}, {"time": 2336, "pitch": 50, "duration": 3, "velocity": 97}, {"time": 2336, "pitch": 57, "duration": 6, "velocity": 100}, {"time": 2342, "pitch": 43, "duration": 14, "velocity": 76}, {"time": 2342, "pitch": 59, "duration": 7, "velocity": 79}, {"time": 2342, "pitch": 62, "duration": 10, "velocity": 85}, {"time": 2348, "pitch": 50, "duration": 7, "velocity": 56}, {"time": 2354, "pitch": 59, "duration": 6, "velocity": 112}, {"time": 2354, "pitch": 62, "duration": 6, "velocity": 96}, {"time": 2360, "pitch": 55, "duration": 5, "velocity": 66}, {"time": 2366, "pitch": 40, "duration": 16, "velocity": 75}, {"time": 2366, "pitch": 52, "duration": 4, "velocity": 90}, {"time": 2366, "pitch": 55, "duration": 4, "velocity": 77}, {"time": 2366, "pitch": 59, "duration": 5, "velocity": 76}, {"time": 2372, "pitch": 47, "duration": 10, "velocity": 49}, {"time": 2378, "pitch": 64, "duration": 6, "velocity": 95}, {"time": 2378, "pitch": 67, "duration": 6, "velocity": 95}, {"time": 2381, "pitch": 52, "duration": 2, "velocity": 64}, {"time": 2384, "pitch": 40, "duration": 3, "velocity": 97}, {"time": 2384, "pitch": 59, "duration": 6, "velocity": 95}, {"time": 2390, "pitch": 48, "duration": 12, "velocity": 74}, {"time": 2390, "pitch": 60, "duration": 7, "velocity": 89}, {"time": 2390, "pitch": 64, "duration": 7, "velocity": 86}, {"time": 2396, "pitch": 55, "duration": 4, "velocity": 55}, {"time": 2402, "pitch": 60, "duration": 8, "velocity": 97}, {"time": 2402, "pitch": 64, "duration": 5, "velocity": 92}, {"time": 2414, "pitch": 50, "duration": 14, "velocity": 56}, {"time": 2414, "pitch": 57, "duration": 10, "velocity": 88}, {"time": 2414, "pitch": 62, "duration": 7, "velocity": 89}, {"time": 2414, "pitch": 66, "duration": 10, "velocity": 92}, {"time": 2426, "pitch": 62, "duration": 3, "velocity": 112}, {"time": 2429, "pitch": 60, "duration": 2, "velocity": 97}, {"time": 2432, "pitch": 50, "duration": 3, "velocity": 97}, {"time": 2432, "pitch": 57, "duration": 1, "velocity": 93}, {"time": 2438, "pitch": 40, "duration": 13, "velocity": 59}, {"time": 2438, "pitch": 52, "duration": 7, "velocity": 82}, {"time": 2438, "pitch": 55, "duration": 6, "velocity": 88}, {"time": 2438, "pitch": 59, "duration": 6, "velocity": 89}, {"time": 2444, "pitch": 47, "duration": 6, "velocity": 51}, {"time": 2450, "pitch": 52, "duration": 2, "velocity": 95}, {"time": 2450, "pitch": 55, "duration": 2, "velocity": 96}, {"time": 2450, "pitch": 59, "duration": 3, "velocity": 95}, {"time": 2459, "pitch": 40, "duration": 3, "velocity": 97}, {"time": 2462, "pitch": 47, "duration": 15, "velocity": 70}, {"time": 2462, "pitch": 59, "duration": 8, "velocity": 90}, {"time": 2462, "pitch": 62, "duration": 8, "velocity": 95}, {"time": 2462, "pitch": 66, "duration": 8, "velocity": 92}, {"time": 2468, "pitch": 54, "duration": 7, "velocity": 69}, {"time": 2474, "pitch": 62, "duration": 5, "velocity": 96}, {"time": 2474, "pitch": 66, "duration": 5, "velocity": 117}, {"time": 2474, "pitch": 59, "duration": 6, "velocity": 96}, {"time": 2480, "pitch": 47, "duration": 3, "velocity": 97}, {"time": 2480, "pitch": 59, "duration": 5, "velocity": 93}, {"time": 2486, "pitch": 48, "duration": 13, "velocity": 69}, {"time": 2486, "pitch": 60, "duration": 6, "velocity": 99}, {"time": 2486, "pitch": 64, "duration": 5, "velocity": 93}, {"time": 2492, "pitch": 60, "duration": 1, "velocity": 24}, {"time": 2498, "pitch": 60, "duration": 5, "velocity": 117}, {"time": 2498, "pitch": 64, "duration": 5, "velocity": 100}, {"time": 2504, "pitch": 48, "duration": 3, "velocity": 97}, {"time": 2507, "pitch": 36, "duration": 3, "velocity": 97}, {"time": 2510, "pitch": 38, "duration": 16, "velocity": 96}, {"time": 2510, "pitch": 57, "duration": 6, "velocity": 100}, {"time": 2510, "pitch": 62, "duration": 6, "velocity": 107}, {"time": 2510, "pitch": 66, "duration": 6, "velocity": 117}, {"time": 2516, "pitch": 45, "duration": 10, "velocity": 95}, {"time": 2519, "pitch": 50, "duration": 3, "velocity": 97}, {"time": 2522, "pitch": 62, "duration": 5, "velocity": 127}, {"time": 2522, "pitch": 66, "duration": 5, "velocity": 127}, {"time": 2522, "pitch": 57, "duration": 5, "velocity": 127}, {"time": 2525, "pitch": 50, "duration": 1, "velocity": 102}, {"time": 2528, "pitch": 57, "duration": 3, "velocity": 127}, {"time": 2531, "pitch": 38, "duration": 3, "velocity": 97}, {"time": 2531, "pitch": 62, "duration": 3, "velocity": 97}, {"time": 2534, "pitch": 43, "duration": 18, "velocity": 81}, {"time": 2534, "pitch": 55, "duration": 7, "velocity": 97}, {"time": 2534, "pitch": 59, "duration": 7, "velocity": 100}, {"time": 2534, "pitch": 62, "duration": 6, "velocity": 96}, {"time": 2540, "pitch": 50, "duration": 8, "velocity": 53}, {"time": 2546, "pitch": 55, "duration": 6, "velocity": 85}, {"time": 2546, "pitch": 59, "duration": 5, "velocity": 107}, {"time": 2546, "pitch": 62, "duration": 6, "velocity": 100}, {"time": 2552, "pitch": 50, "duration": 1, "velocity": 76}, {"time": 2555, "pitch": 43, "duration": 3, "velocity": 97}, {"time": 2558, "pitch": 38, "duration": 6, "velocity": 93}, {"time": 2558, "pitch": 57, "duration": 6, "velocity": 99}, {"time": 2558, "pitch": 62, "duration": 6, "velocity": 112}, {"time": 2558, "pitch": 66, "duration": 6, "velocity": 102}, {"time": 2564, "pitch": 38, "duration": 18, "velocity": 97}, {"time": 2564, "pitch": 45, "duration": 12, "velocity": 62}, {"time": 2570, "pitch": 50, "duration": 1, "velocity": 28}, {"time": 2570, "pitch": 57, "duration": 7, "velocity": 102}, {"time": 2570, "pitch": 62, "duration": 6, "velocity": 117}, {"time": 2570, "pitch": 66, "duration": 6, "velocity": 127}, {"time": 2576, "pitch": 50, "duration": 1, "velocity": 75}, {"time": 2582, "pitch": 45, "duration": 18, "velocity": 83}, {"time": 2582, "pitch": 57, "duration": 6, "velocity": 100}, {"time": 2582, "pitch": 60, "duration": 7, "velocity": 95}, {"time": 2582, "pitch": 64, "duration": 6, "velocity": 95}, {"time": 2588, "pitch": 52, "duration": 7, "velocity": 68}, {"time": 2594, "pitch": 57, "duration": 7, "velocity": 100}, {"time": 2594, "pitch": 60, "duration": 7, "velocity": 107}, {"time": 2594, "pitch": 64, "duration": 6, "velocity": 102}, {"time": 2600, "pitch": 52, "duration": 1, "velocity": 51}, {"time": 2603, "pitch": 45, "duration": 3, "velocity": 97}, {"time": 2606, "pitch": 38, "duration": 6, "velocity": 83}, {"time": 2606, "pitch": 57, "duration": 3, "velocity": 99}, {"time": 2606, "pitch": 62, "duration": 3, "velocity": 122}, {"time": 2606, "pitch": 66, "duration": 3, "velocity": 117}, {"time": 2612, "pitch": 38, "duration": 9, "velocity": 97}, {"time": 2612, "pitch": 45, "duration": 7, "velocity": 47}, {"time": 2618, "pitch": 54, "duration": 6, "velocity": 127}, {"time": 2618, "pitch": 57, "duration": 6, "velocity": 107}, {"time": 2621, "pitch": 38, "duration": 3, "velocity": 80}, {"time": 2621, "pitch": 45, "duration": 1, "velocity": 79}, {"time": 2624, "pitch": 50, "duration": 1, "velocity": 96}, {"time": 2630, "pitch": 48, "duration": 14, "velocity": 102}, {"time": 2630, "pitch": 55, "duration": 7, "velocity": 112}, {"time": 2630, "pitch": 60, "duration": 8, "velocity": 102}, {"time": 2630, "pitch": 64, "duration": 7, "velocity": 99}, {"time": 2642, "pitch": 55, "duration": 3, "velocity": 117}, {"time": 2642, "pitch": 60, "duration": 3, "velocity": 112}, {"time": 2642, "pitch": 64, "duration": 4, "velocity": 112}, {"time": 2651, "pitch": 48, "duration": 3, "velocity": 97}, {"time": 2654, "pitch": 50, "duration": 16, "velocity": 85}, {"time": 2654, "pitch": 57, "duration": 12, "velocity": 93}, {"time": 2654, "pitch": 62, "duration": 6, "velocity": 112}, {"time": 2654, "pitch": 66, "duration": 6, "velocity": 127}, {"time": 2654, "pitch": 69, "duration": 6, "velocity": 100}, {"time": 2660, "pitch": 54, "duration": 10, "velocity": 38}, {"time": 2666, "pitch": 62, "duration": 3, "velocity": 107}, {"time": 2666, "pitch": 66, "duration": 6, "velocity": 127}, {"time": 2666, "pitch": 69, "duration": 6, "velocity": 122}, {"time": 2669, "pitch": 57, "duration": 1, "velocity": 76}, {"time": 2672, "pitch": 62, "duration": 1, "velocity": 127}, {"time": 2675, "pitch": 50, "duration": 3, "velocity": 97}, {"time": 2678, "pitch": 43, "duration": 18, "velocity": 76}, {"time": 2678, "pitch": 55, "duration": 6, "velocity": 117}, {"time": 2678, "pitch": 59, "duration": 6, "velocity": 127}, {"time": 2678, "pitch": 62, "duration": 7, "velocity": 117}, {"time": 2684, "pitch": 50, "duration": 7, "velocity": 47}, {"time": 2690, "pitch": 55, "duration": 6, "velocity": 100}, {"time": 2690, "pitch": 59, "duration": 5, "velocity": 127}, {"time": 2690, "pitch": 62, "duration": 6, "velocity": 107}, {"time": 2696, "pitch": 43, "duration": 3, "velocity": 97}, {"time": 2696, "pitch": 50, "duration": 9, "velocity": 97}, {"time": 2699, "pitch": 43, "duration": 3, "velocity": 97}, {"time": 2702, "pitch": 55, "duration": 1, "velocity": 85}, {"time": 2702, "pitch": 59, "duration": 1, "velocity": 88}, {"time": 2702, "pitch": 62, "duration": 2, "velocity": 86}, {"time": 2702, "pitch": 67, "duration": 2, "velocity": 82}, {"time": 2705, "pitch": 55, "duration": 3, "velocity": 100}, {"time": 2705, "pitch": 59, "duration": 3, "velocity": 112}, {"time": 2705, "pitch": 62, "duration": 5, "velocity": 102}, {"time": 2705, "pitch": 67, "duration": 3, "velocity": 97}, {"time": 2708, "pitch": 50, "duration": 8, "velocity": 95}, {"time": 2714, "pitch": 55, "duration": 4, "velocity": 107}, {"time": 2714, "pitch": 59, "duration": 6, "velocity": 127}, {"time": 2714, "pitch": 62, "duration": 7, "velocity": 102}, {"time": 2714, "pitch": 67, "duration": 6, "velocity": 97}, {"time": 2717, "pitch": 50, "duration": 1, "velocity": 86}, {"time": 2720, "pitch": 55, "duration": 4, "velocity": 112}, {"time": 2726, "pitch": 48, "duration": 15, "velocity": 112}, {"time": 2726, "pitch": 55, "duration": 9, "velocity": 127}, {"time": 2726, "pitch": 60, "duration": 10, "velocity": 112}, {"time": 2726, "pitch": 64, "duration": 9, "velocity": 99}, {"time": 2738, "pitch": 55, "duration": 6, "velocity": 102}, {"time": 2738, "pitch": 60, "duration": 8, "velocity": 127}, {"time": 2738, "pitch": 64, "duration": 6, "velocity": 112}, {"time": 2747, "pitch": 48, "duration": 3, "velocity": 97}, {"time": 2750, "pitch": 38, "duration": 18, "velocity": 78}, {"time": 2750, "pitch": 57, "duration": 7, "velocity": 102}, {"time": 2750, "pitch": 62, "duration": 6, "velocity": 112}, {"time": 2750, "pitch": 66, "duration": 7, "velocity": 117}, {"time": 2756, "pitch": 45, "duration": 7, "velocity": 66}, {"time": 2762, "pitch": 50, "duration": 6, "velocity": 83}, {"time": 2762, "pitch": 57, "duration": 6, "velocity": 102}, {"time": 2762, "pitch": 62, "duration": 7, "velocity": 127}, {"time": 2762, "pitch": 66, "duration": 7, "velocity": 117}, {"time": 2768, "pitch": 45, "duration": 1, "velocity": 56}, {"time": 2774, "pitch": 47, "duration": 15, "velocity": 88}, {"time": 2774, "pitch": 59, "duration": 7, "velocity": 95}, {"time": 2774, "pitch": 62, "duration": 6, "velocity": 112}, {"time": 2774, "pitch": 66, "duration": 7, "velocity": 112}, {"time": 2780, "pitch": 54, "duration": 7, "velocity": 63}, {"time": 2786, "pitch": 62, "duration": 6, "velocity": 122}, {"time": 2786, "pitch": 66, "duration": 6, "velocity": 127}, {"time": 2786, "pitch": 59, "duration": 5, "velocity": 122}, {"time": 2789, "pitch": 54, "duration": 1, "velocity": 107}, {"time": 2792, "pitch": 59, "duration": 7, "velocity": 96}, {"time": 2795, "pitch": 47, "duration": 3, "velocity": 97}, {"time": 2795, "pitch": 62, "duration": 2, "velocity": 95}, {"time": 2798, "pitch": 40, "duration": 9, "velocity": 86}, {"time": 2798, "pitch": 64, "duration": 1, "velocity": 95}, {"time": 2798, "pitch": 67, "duration": 1, "velocity": 99}, {"time": 2801, "pitch": 47, "duration": 14, "velocity": 93}, {"time": 2801, "pitch": 52, "duration": 7, "velocity": 99}, {"time": 2801, "pitch": 55, "duration": 5, "velocity": 117}, {"time": 2807, "pitch": 40, "duration": 3, "velocity": 97}, {"time": 2807, "pitch": 54, "duration": 2, "velocity": 127}, {"time": 2810, "pitch": 52, "duration": 6, "velocity": 99}, {"time": 2810, "pitch": 55, "duration": 5, "velocity": 117}, {"time": 2813, "pitch": 52, "duration": 3, "velocity": 96}, {"time": 2816, "pitch": 57, "duration": 5, "velocity": 112}, {"time": 2819, "pitch": 40, "duration": 3, "velocity": 97}, {"time": 2822, "pitch": 48, "duration": 14, "velocity": 97}, {"time": 2822, "pitch": 55, "duration": 7, "velocity": 107}, {"time": 2822, "pitch": 60, "duration": 10, "velocity": 102}, {"time": 2822, "pitch": 64, "duration": 7, "velocity": 97}, {"time": 2834, "pitch": 55, "duration": 7, "velocity": 112}, {"time": 2834, "pitch": 60, "duration": 5, "velocity": 117}, {"time": 2834, "pitch": 64, "duration": 6, "velocity": 97}, {"time": 2843, "pitch": 48, "duration": 3, "velocity": 97}, {"time": 2846, "pitch": 45, "duration": 6, "velocity": 74}, {"time": 2846, "pitch": 52, "duration": 15, "velocity": 75}, {"time": 2846, "pitch": 57, "duration": 7, "velocity": 107}, {"time": 2846, "pitch": 61, "duration": 9, "velocity": 127}, {"time": 2846, "pitch": 64, "duration": 7, "velocity": 99}, {"time": 2846, "pitch": 67, "duration": 6, "velocity": 96}, {"time": 2852, "pitch": 45, "duration": 9, "velocity": 97}, {"time": 2858, "pitch": 57, "duration": 7, "velocity": 102}, {"time": 2858, "pitch": 61, "duration": 6, "velocity": 127}, {"time": 2858, "pitch": 64, "duration": 6, "velocity": 102}, {"time": 2858, "pitch": 67, "duration": 6, "velocity": 100}, {"time": 2864, "pitch": 52, "duration": 1, "velocity": 72}, {"time": 2867, "pitch": 45, "duration": 3, "velocity": 97}, {"time": 2870, "pitch": 50, "duration": 6, "velocity": 112}, {"time": 2870, "pitch": 57, "duration": 9, "velocity": 112}, {"time": 2870, "pitch": 62, "duration": 9, "velocity": 122}, {"time": 2870, "pitch": 66, "duration": 9, "velocity": 127}, {"time": 2879, "pitch": 50, "duration": 3, "velocity": 97}, {"time": 2882, "pitch": 57, "duration": 3, "velocity": 112}, {"time": 2882, "pitch": 62, "duration": 6, "velocity": 127}, {"time": 2882, "pitch": 66, "duration": 6, "velocity": 127}, {"time": 2885, "pitch": 50, "duration": 1, "velocity": 102}, {"time": 2888, "pitch": 57, "duration": 1, "velocity": 117}, {"time": 2891, "pitch": 50, "duration": 3, "velocity": 97}, {"time": 2894, "pitch": 48, "duration": 6, "velocity": 127}, {"time": 2894, "pitch": 55, "duration": 3, "velocity": 127}, {"time": 2894, "pitch": 60, "duration": 3, "velocity": 117}, {"time": 2894, "pitch": 64, "duration": 3, "velocity": 107}, {"time": 2897, "pitch": 55, "duration": 3, "velocity": 127}, {"time": 2897, "pitch": 60, "duration": 3, "velocity": 117}, {"time": 2903, "pitch": 48, "duration": 3, "velocity": 97}, {"time": 2906, "pitch": 50, "duration": 6, "velocity": 117}, {"time": 2906, "pitch": 57, "duration": 8, "velocity": 107}, {"time": 2906, "pitch": 62, "duration": 6, "velocity": 127}, {"time": 2906, "pitch": 66, "duration": 6, "velocity": 127}, {"time": 2912, "pitch": 50, "duration": 1, "velocity": 97}, {"time": 2918, "pitch": 43, "duration": 17, "velocity": 97}, {"time": 2918, "pitch": 55, "duration": 7, "velocity": 102}, {"time": 2918, "pitch": 59, "duration": 7, "velocity": 100}, {"time": 2918, "pitch": 62, "duration": 7, "velocity": 99}, {"time": 2924, "pitch": 50, "duration": 8, "velocity": 54}, {"time": 2930, "pitch": 55, "duration": 6, "velocity": 102}, {"time": 2930, "pitch": 59, "duration": 6, "velocity": 122}, {"time": 2930, "pitch": 62, "duration": 5, "velocity": 100}, {"time": 2936, "pitch": 50, "duration": 1, "velocity": 79}, {"time": 2939, "pitch": 43, "duration": 3, "velocity": 97}, {"time": 2942, "pitch": 38, "duration": 6, "velocity": 86}, {"time": 2942, "pitch": 57, "duration": 7, "velocity": 107}, {"time": 2942, "pitch": 62, "duration": 7, "velocity": 107}, {"time": 2942, "pitch": 66, "duration": 7, "velocity": 122}, {"time": 2948, "pitch": 38, "duration": 9, "velocity": 97}, {"time": 2948, "pitch": 45, "duration": 12, "velocity": 51}, {"time": 2954, "pitch": 57, "duration": 9, "velocity": 112}, {"time": 2954, "pitch": 62, "duration": 6, "velocity": 127}, {"time": 2954, "pitch": 66, "duration": 6, "velocity": 127}, {"time": 2960, "pitch": 50, "duration": 5, "velocity": 82}, {"time": 2963, "pitch": 38, "duration": 3, "velocity": 97}, {"time": 2966, "pitch": 45, "duration": 16, "velocity": 75}, {"time": 2966, "pitch": 57, "duration": 7, "velocity": 107}, {"time": 2966, "pitch": 60, "duration": 9, "velocity": 107}, {"time": 2966, "pitch": 64, "duration": 7, "velocity": 100}, {"time": 2972, "pitch": 52, "duration": 6, "velocity": 61}, {"time": 2978, "pitch": 60, "duration": 6, "velocity": 122}, {"time": 2978, "pitch": 64, "duration": 7, "velocity": 107}, {"time": 2981, "pitch": 52, "duration": 1, "velocity": 90}, {"time": 2984, "pitch": 57, "duration": 12, "velocity": 99}, {"time": 2984, "pitch": 59, "duration": 1, "velocity": 89}, {"time": 2987, "pitch": 38, "duration": 3, "velocity": 97}, {"time": 2987, "pitch": 60, "duration": 2, "velocity": 97}, {"time": 2990, "pitch": 38, "duration": 6, "velocity": 77}, {"time": 2990, "pitch": 62, "duration": 7, "velocity": 100}, {"time": 2990, "pitch": 66, "duration": 7, "velocity": 107}, {"time": 2993, "pitch": 45, "duration": 13, "velocity": 81}, {"time": 2996, "pitch": 38, "duration": 9, "velocity": 97}, {"time": 2996, "pitch": 50, "duration": 7, "velocity": 102}, {"time": 3002, "pitch": 62, "duration": 6, "velocity": 102}, {"time": 3002, "pitch": 66, "duration": 5, "velocity": 122}, {"time": 3005, "pitch": 38, "duration": 3, "velocity": 97}, {"time": 3005, "pitch": 50, "duration": 3, "velocity": 71}, {"time": 3008, "pitch": 57, "duration": 5, "velocity": 102}, {"time": 3014, "pitch": 48, "duration": 16, "velocity": 97}, {"time": 3014, "pitch": 60, "duration": 9, "velocity": 127}, {"time": 3014, "pitch": 64, "duration": 9, "velocity": 100}, {"time": 3014, "pitch": 67, "duration": 6, "velocity": 92}, {"time": 3026, "pitch": 60, "duration": 9, "velocity": 127}, {"time": 3026, "pitch": 64, "duration": 6, "velocity": 122}, {"time": 3026, "pitch": 67, "duration": 6, "velocity": 95}, {"time": 3035, "pitch": 48, "duration": 3, "velocity": 97}, {"time": 3038, "pitch": 50, "duration": 14, "velocity": 92}, {"time": 3038, "pitch": 57, "duration": 9, "velocity": 99}, {"time": 3038, "pitch": 62, "duration": 10, "velocity": 102}, {"time": 3038, "pitch": 66, "duration": 9, "velocity": 112}, {"time": 3050, "pitch": 62, "duration": 6, "velocity": 117}, {"time": 3050, "pitch": 66, "duration": 5, "velocity": 127}, {"time": 3050, "pitch": 57, "duration": 5, "velocity": 117}, {"time": 3056, "pitch": 57, "duration": 4, "velocity": 107}, {"time": 3059, "pitch": 50, "duration": 3, "velocity": 97}, {"time": 3062, "pitch": 43, "duration": 21, "velocity": 82}, {"time": 3062, "pitch": 55, "duration": 7, "velocity": 117}, {"time": 3062, "pitch": 59, "duration": 7, "velocity": 99}, {"time": 3062, "pitch": 62, "duration": 10, "velocity": 97}, {"time": 3068, "pitch": 50, "duration": 8, "velocity": 56}, {"time": 3074, "pitch": 55, "duration": 6, "velocity": 100}, {"time": 3074, "pitch": 59, "duration": 6, "velocity": 127}, {"time": 3074, "pitch": 62, "duration": 7, "velocity": 102}, {"time": 3080, "pitch": 50, "duration": 5, "velocity": 41}, {"time": 3083, "pitch": 43, "duration": 3, "velocity": 97}, {"time": 3083, "pitch": 55, "duration": 1, "velocity": 107}, {"time": 3083, "pitch": 59, "duration": 1, "velocity": 102}, {"time": 3083, "pitch": 62, "duration": 1, "velocity": 97}, {"time": 3083, "pitch": 65, "duration": 1, "velocity": 95}, {"time": 3086, "pitch": 43, "duration": 6, "velocity": 89}, {"time": 3086, "pitch": 55, "duration": 7, "velocity": 93}, {"time": 3086, "pitch": 59, "duration": 7, "velocity": 95}, {"time": 3086, "pitch": 62, "duration": 7, "velocity": 96}, {"time": 3086, "pitch": 65, "duration": 7, "velocity": 95}, {"time": 3092, "pitch": 43, "duration": 3, "velocity": 97}, {"time": 3095, "pitch": 55, "duration": 3, "velocity": 97}, {"time": 3098, "pitch": 43, "duration": 9, "velocity": 97}, {"time": 3098, "pitch": 55, "duration": 3, "velocity": 102}, {"time": 3098, "pitch": 59, "duration": 3, "velocity": 112}, {"time": 3098, "pitch": 62, "duration": 4, "velocity": 117}, {"time": 3098, "pitch": 65, "duration": 3, "velocity": 100}, {"time": 3101, "pitch": 50, "duration": 2, "velocity": 89}, {"time": 3104, "pitch": 59, "duration": 5, "velocity": 100}, {"time": 3104, "pitch": 62, "duration": 4, "velocity": 95}, {"time": 3104, "pitch": 65, "duration": 4, "velocity": 81}, {"time": 3107, "pitch": 43, "duration": 3, "velocity": 97}, {"time": 3110, "pitch": 48, "duration": 14, "velocity": 93}, {"time": 3110, "pitch": 55, "duration": 9, "velocity": 102}, {"time": 3110, "pitch": 60, "duration": 9, "velocity": 107}, {"time": 3110, "pitch": 64, "duration": 9, "velocity": 100}, {"time": 3122, "pitch": 55, "duration": 8, "velocity": 102}, {"time": 3122, "pitch": 60, "duration": 6, "velocity": 107}, {"time": 3122, "pitch": 64, "duration": 5, "velocity": 112}, {"time": 3131, "pitch": 48, "duration": 3, "velocity": 97}, {"time": 3134, "pitch": 38, "duration": 6, "velocity": 85}, {"time": 3134, "pitch": 57, "duration": 7, "velocity": 112}, {"time": 3134, "pitch": 62, "duration": 7, "velocity": 112}, {"time": 3134, "pitch": 66, "duration": 7, "velocity": 122}, {"time": 3140, "pitch": 38, "duration": 12, "velocity": 97}, {"time": 3140, "pitch": 45, "duration": 7, "velocity": 38}, {"time": 3146, "pitch": 50, "duration": 6, "velocity": 82}, {"time": 3146, "pitch": 57, "duration": 9, "velocity": 112}, {"time": 3146, "pitch": 62, "duration": 5, "velocity": 117}, {"time": 3146, "pitch": 66, "duration": 10, "velocity": 127}, {"time": 3152, "pitch": 45, "duration": 2, "velocity": 59}, {"time": 3155, "pitch": 38, "duration": 3, "velocity": 97}, {"time": 3158, "pitch": 47, "duration": 13, "velocity": 114}, {"time": 3158, "pitch": 59, "duration": 8, "velocity": 112}, {"time": 3158, "pitch": 62, "duration": 9, "velocity": 112}, {"time": 3158, "pitch": 66, "duration": 8, "velocity": 119}, {"time": 3158, "pitch": 35, "duration": 13, "velocity": 114}, {"time": 3170, "pitch": 59, "duration": 5, "velocity": 100}, {"time": 3170, "pitch": 62, "duration": 6, "velocity": 112}, {"time": 3170, "pitch": 66, "duration": 7, "velocity": 127}, {"time": 3173, "pitch": 47, "duration": 1, "velocity": 97}, {"time": 3176, "pitch": 59, "duration": 9, "velocity": 117}, {"time": 3179, "pitch": 47, "duration": 3, "velocity": 97}, {"time": 3179, "pitch": 62, "duration": 2, "velocity": 99}, {"time": 3182, "pitch": 40, "duration": 6, "velocity": 105}, {"time": 3185, "pitch": 64, "duration": 3, "velocity": 107}, {"time": 3185, "pitch": 67, "duration": 3, "velocity": 117}, {"time": 3188, "pitch": 40, "duration": 12, "velocity": 97}, {"time": 3191, "pitch": 52, "duration": 4, "velocity": 96}, {"time": 3194, "pitch": 64, "duration": 3, "velocity": 107}, {"time": 3194, "pitch": 67, "duration": 3, "velocity": 117}, {"time": 3197, "pitch": 52, "duration": 3, "velocity": 76}, {"time": 3200, "pitch": 59, "duration": 4, "velocity": 127}, {"time": 3203, "pitch": 40, "duration": 3, "velocity": 97}, {"time": 3206, "pitch": 48, "duration": 21, "velocity": 99}, {"time": 3206, "pitch": 55, "duration": 9, "velocity": 107}, {"time": 3206, "pitch": 60, "duration": 9, "velocity": 112}, {"time": 3206, "pitch": 64, "duration": 9, "velocity": 100}, {"time": 3218, "pitch": 55, "duration": 9, "velocity": 93}, {"time": 3218, "pitch": 60, "duration": 5, "velocity": 112}, {"time": 3218, "pitch": 64, "duration": 10, "velocity": 99}, {"time": 3227, "pitch": 48, "duration": 3, "velocity": 97}, {"time": 3230, "pitch": 45, "duration": 6, "velocity": 110}, {"time": 3230, "pitch": 57, "duration": 9, "velocity": 99}, {"time": 3230, "pitch": 61, "duration": 9, "velocity": 127}, {"time": 3230, "pitch": 64, "duration": 9, "velocity": 92}, {"time": 3236, "pitch": 45, "duration": 12, "velocity": 97}, {"time": 3242, "pitch": 57, "duration": 4, "velocity": 97}, {"time": 3242, "pitch": 61, "duration": 7, "velocity": 127}, {"time": 3242, "pitch": 64, "duration": 6, "velocity": 97}, {"time": 3248, "pitch": 57, "duration": 3, "velocity": 85}, {"time": 3251, "pitch": 45, "duration": 3, "velocity": 97}, {"time": 3254, "pitch": 38, "duration": 6, "velocity": 89}, {"time": 3254, "pitch": 57, "duration": 2, "velocity": 97}, {"time": 3254, "pitch": 62, "duration": 1, "velocity": 122}, {"time": 3254, "pitch": 66, "duration": 1, "velocity": 112}, {"time": 3257, "pitch": 45, "duration": 14, "velocity": 88}, {"time": 3260, "pitch": 50, "duration": 7, "velocity": 92}, {"time": 3263, "pitch": 38, "duration": 6, "velocity": 97}, {"time": 3263, "pitch": 54, "duration": 3, "velocity": 117}, {"time": 3263, "pitch": 57, "duration": 4, "velocity": 100}, {"time": 3269, "pitch": 50, "duration": 7, "velocity": 99}, {"time": 3272, "pitch": 38, "duration": 3, "velocity": 97}, {"time": 3272, "pitch": 54, "duration": 1, "velocity": 117}, {"time": 3272, "pitch": 57, "duration": 3, "velocity": 97}, {"time": 3278, "pitch": 43, "duration": 19, "velocity": 102}, {"time": 3278, "pitch": 55, "duration": 5, "velocity": 122}, {"time": 3278, "pitch": 59, "duration": 8, "velocity": 122}, {"time": 3278, "pitch": 62, "duration": 8, "velocity": 122}, {"time": 3284, "pitch": 50, "duration": 6, "velocity": 90}, {"time": 3287, "pitch": 57, "duration": 9, "velocity": 112}, {"time": 3293, "pitch": 50, "duration": 11, "velocity": 69}, {"time": 3296, "pitch": 59, "duration": 25, "velocity": 100}, {"time": 3302, "pitch": 48, "duration": 13, "velocity": 72}, {"time": 3302, "pitch": 64, "duration": 1, "velocity": 71}, {"time": 3302, "pitch": 67, "duration": 1, "velocity": 69}, {"time": 3305, "pitch": 55, "duration": 10, "velocity": 49}, {"time": 3308, "pitch": 60, "duration": 7, "velocity": 77}, {"time": 3311, "pitch": 67, "duration": 3, "velocity": 92}, {"time": 3314, "pitch": 76, "duration": 7, "velocity": 107}, {"time": 3320, "pitch": 72, "duration": 1, "velocity": 48}, {"time": 3326, "pitch": 57, "duration": 15, "velocity": 74}, {"time": 3326, "pitch": 73, "duration": 10, "velocity": 74}, {"time": 3326, "pitch": 76, "duration": 10, "velocity": 74}, {"time": 3332, "pitch": 64, "duration": 7, "velocity": 27}, {"time": 3338, "pitch": 73, "duration": 6, "velocity": 95}, {"time": 3338, "pitch": 76, "duration": 6, "velocity": 81}, {"time": 3344, "pitch": 69, "duration": 1, "velocity": 70}, {"time": 3350, "pitch": 50, "duration": 41, "velocity": 53}, {"time": 3353, "pitch": 57, "duration": 37, "velocity": 62}, {"time": 3356, "pitch": 62, "duration": 10, "velocity": 54}, {"time": 3359, "pitch": 64, "duration": 3, "velocity": 65}, {"time": 3362, "pitch": 66, "duration": 34, "velocity": 79}, {"time": 3368, "pitch": 69, "duration": 26, "velocity": 53}, {"time": 3374, "pitch": 62, "duration": 23, "velocity": 37}, {"time": 3374, "pitch": 74, "duration": 17, "velocity": 44}, {"time": 3397, "pitch": 55, "duration": 4, "velocity": 39}, {"time": 3397, "pitch": 59, "duration": 4, "velocity": 46}, {"time": 3398, "pitch": 62, "duration": 3, "velocity": 60}, {"time": 3399, "pitch": 43, "duration": 12, "velocity": 60}, {"time": 3404, "pitch": 50, "duration": 7, "velocity": 40}, {"time": 3409, "pitch": 67, "duration": 1, "velocity": 35}, {"time": 3409, "pitch": 55, "duration": 2, "velocity": 40}, {"time": 3410, "pitch": 71, "duration": 3, "velocity": 49}, {"time": 3410, "pitch": 74, "duration": 3, "velocity": 63}, {"time": 3420, "pitch": 66, "duration": 3, "velocity": 56}, {"time": 3421, "pitch": 60, "duration": 2, "velocity": 30}, {"time": 3421, "pitch": 69, "duration": 2, "velocity": 58}, {"time": 3421, "pitch": 57, "duration": 2, "velocity": 33}, {"time": 3421, "pitch": 54, "duration": 2, "velocity": 37}, {"time": 3421, "pitch": 72, "duration": 3, "velocity": 44}, {"time": 3432, "pitch": 71, "duration": 3, "velocity": 36}, {"time": 3433, "pitch": 75, "duration": 5, "velocity": 43}, {"time": 3433, "pitch": 66, "duration": 2, "velocity": 34}, {"time": 3434, "pitch": 78, "duration": 3, "velocity": 35}, {"time": 3434, "pitch": 63, "duration": 1, "velocity": 32}, {"time": 3434, "pitch": 81, "duration": 3, "velocity": 50}, {"time": 3434, "pitch": 59, "duration": 2, "velocity": 34}, {"time": 3445, "pitch": 64, "duration": 1, "velocity": 44}, {"time": 3445, "pitch": 67, "duration": 7, "velocity": 32}, {"time": 3446, "pitch": 74, "duration": 6, "velocity": 64}, {"time": 3446, "pitch": 71, "duration": 6, "velocity": 35}, {"time": 3446, "pitch": 52, "duration": 19, "velocity": 58}, {"time": 3452, "pitch": 59, "duration": 15, "velocity": 55}, {"time": 3458, "pitch": 66, "duration": 4, "velocity": 69}, {"time": 3464, "pitch": 67, "duration": 1, "velocity": 41}, {"time": 3469, "pitch": 64, "duration": 15, "velocity": 41}, {"time": 3469, "pitch": 67, "duration": 16, "velocity": 41}, {"time": 3469, "pitch": 52, "duration": 15, "velocity": 30}, {"time": 3469, "pitch": 59, "duration": 13, "velocity": 40}, {"time": 3470, "pitch": 71, "duration": 15, "velocity": 34}, {"time": 3471, "pitch": 74, "duration": 14, "velocity": 43}, {"time": 3494, "pitch": 60, "duration": 3, "velocity": 58}, {"time": 3494, "pitch": 63, "duration": 13, "velocity": 66}, {"time": 3496, "pitch": 48, "duration": 35, "velocity": 63}, {"time": 3496, "pitch": 67, "duration": 11, "velocity": 63}, {"time": 3500, "pitch": 55, "duration": 34, "velocity": 44}, {"time": 3505, "pitch": 60, "duration": 24, "velocity": 66}, {"time": 3509, "pitch": 62, "duration": 5, "velocity": 76}, {"time": 3513, "pitch": 63, "duration": 1, "velocity": 88}, {"time": 3517, "pitch": 72, "duration": 3, "velocity": 58}, {"time": 3521, "pitch": 74, "duration": 3, "velocity": 39}, {"time": 3525, "pitch": 75, "duration": 5, "velocity": 76}, {"time": 3530, "pitch": 72, "duration": 1, "velocity": 55}, {"time": 3533, "pitch": 74, "duration": 2, "velocity": 34}, {"time": 3540, "pitch": 69, "duration": 8, "velocity": 33}, {"time": 3540, "pitch": 74, "duration": 8, "velocity": 55}, {"time": 3541, "pitch": 50, "duration": 50, "velocity": 49}, {"time": 3541, "pitch": 78, "duration": 7, "velocity": 58}, {"time": 3547, "pitch": 57, "duration": 43, "velocity": 38}, {"time": 3552, "pitch": 62, "duration": 36, "velocity": 63}, {"time": 3557, "pitch": 66, "duration": 7, "velocity": 56}, {"time": 3564, "pitch": 69, "duration": 1, "velocity": 63}, {"time": 3572, "pitch": 69, "duration": 4, "velocity": 30}, {"time": 3574, "pitch": 74, "duration": 18, "velocity": 37}, {"time": 3574, "pitch": 78, "duration": 18, "velocity": 70}, {"time": 3588, "pitch": 69, "duration": 3, "velocity": 37}, {"time": 3605, "pitch": 62, "duration": 11, "velocity": 58}, {"time": 3606, "pitch": 59, "duration": 10, "velocity": 59}, {"time": 3607, "pitch": 55, "duration": 9, "velocity": 68}, {"time": 3608, "pitch": 31, "duration": 12, "velocity": 59}, {"time": 3616, "pitch": 38, "duration": 12, "velocity": 40}, {"time": 3619, "pitch": 43, "duration": 12, "velocity": 51}, {"time": 3622, "pitch": 47, "duration": 3, "velocity": 53}, {"time": 3625, "pitch": 50, "duration": 2, "velocity": 59}, {"time": 3626, "pitch": 54, "duration": 1, "velocity": 66}, {"time": 3629, "pitch": 55, "duration": 2, "velocity": 72}, {"time": 3631, "pitch": 59, "duration": 3, "velocity": 51}, {"time": 3633, "pitch": 62, "duration": 2, "velocity": 60}, {"time": 3639, "pitch": 67, "duration": 6, "velocity": 34}, {"time": 3642, "pitch": 71, "duration": 4, "velocity": 45}, {"time": 3646, "pitch": 74, "duration": 1, "velocity": 35}, {"time": 3651, "pitch": 79, "duration": 7, "velocity": 38}, {"time": 3657, "pitch": 83, "duration": 1, "velocity": 33}, {"time": 3664, "pitch": 86, "duration": 1, "velocity": 39}], "annotations": [{"time": 37, "annotation": {"number": 64, "value": 127}, "group": "control_change"}, {"time": 53, "annotation": {"number": 64, "value": 0}, "group": "control_change"}, {"time": 84, "annotation": {"number": 64, "value": 127}, "group": "control_change"}, {"time": 120, "annotation": {"number": 64, "value": 0}, "group": "control_change"}, {"time": 135, "annotation": {"number": 64, "value": 127}, "group": "control_change"}, {"time": 176, "annotation": {"number": 64, "value": 0}, "group": "control_change"}, {"time": 181, "annotation": {"number": 64, "value": 127}, "group": "control_change"}, {"time": 213, "annotation": {"number": 64, "value": 0}, "group": "control_change"}, {"time": 231, "annotation": {"number": 64, "value": 127}, "group": "control_change"}, {"time": 246, "annotation": {"number": 64, "value": 0}, "group": "control_change"}, {"time": 247, "annotation": {"number": 64, "value": 127}, "group": "control_change"}, {"time": 261, "annotation": {"number": 64, "value": 0}, "group": "control_change"}, {"time": 265, "annotation": {"number": 64, "value": 0}, "group": "control_change"}, {"time": 277, "annotation": {"number": 64, "value": 127}, "group": "control_change"}, {"time": 302, "annotation": {"number": 64, "value": 118}, "group": "control_change"}, {"time": 314, "annotation": {"number": 64, "value": 119}, "group": "control_change"}, {"time": 326, "annotation": {"number": 64, "value": 121}, "group": "control_change"}, {"time": 350, "annotation": {"number": 64, "value": 122}, "group": "control_change"}, {"time": 362, "annotation": {"number": 64, "value": 123}, "group": "control_change"}, {"time": 381, "annotation": {"number": 64, "value": 127}, "group": "control_change"}, {"time": 410, "annotation": {"number": 64, "value": 127}, "group": "control_change"}, {"time": 417, "annotation": {"number": 64, "value": 0}, "group": "control_change"}, {"time": 421, "annotation": {"number": 64, "value": 0}, "group": "control_change"}, {"time": 422, "annotation": {"number": 64, "value": 127}, "group": "control_change"}, {"time": 443, "annotation": {"number": 64, "value": 0}, "group": "control_change"}, {"time": 446, "annotation": {"number": 64, "value": 127}, "group": "control_change"}, {"time": 468, "annotation": {"number": 64, "value": 0}, "group": "control_change"}, {"time": 470, "annotation": {"number": 64, "value": 127}, "group": "control_change"}, {"time": 492, "annotation": {"number": 64, "value": 0}, "group": "control_change"}, {"time": 494, "annotation": {"number": 64, "value": 127}, "group": "control_change"}, {"time": 516, "annotation": {"number": 64, "value": 0}, "group": "control_change"}, {"time": 517, "annotation": {"number": 64, "value": 127}, "group": "control_change"}, {"time": 540, "annotation": {"number": 64, "value": 0}, "group": "control_change"}, {"time": 542, "annotation": {"number": 64, "value": 127}, "group": "control_change"}, {"time": 562, "annotation": {"number": 64, "value": 0}, "group": "control_change"}, {"time": 566, "annotation": {"number": 64, "value": 127}, "group": "control_change"}, {"time": 586, "annotation": {"number": 64, "value": 0}, "group": "control_change"}, {"time": 590, "annotation": {"number": 64, "value": 127}, "group": "control_change"}, {"time": 611, "annotation": {"number": 64, "value": 0}, "group": "control_change"}, {"time": 614, "annotation": {"number": 64, "value": 127}, "group": "control_change"}, {"time": 635, "annotation": {"number": 64, "value": 0}, "group": "control_change"}, {"time": 638, "annotation": {"number": 64, "value": 127}, "group": "control_change"}, {"time": 659, "annotation": {"number": 64, "value": 0}, "group": "control_change"}, {"time": 662, "annotation": {"number": 64, "value": 127}, "group": "control_change"}, {"time": 682, "annotation": {"number": 64, "value": 0}, "group": "control_change"}, {"time": 686, "annotation": {"number": 64, "value": 127}, "group": "control_change"}, {"time": 708, "annotation": {"number": 64, "value": 0}, "group": "control_change"}, {"time": 710, "annotation": {"number": 64, "value": 127}, "group": "control_change"}, {"time": 732, "annotation": {"number": 64, "value": 0}, "group": "control_change"}, {"time": 734, "annotation": {"number": 64, "value": 127}, "group": "control_change"}, {"time": 755, "annotation": {"number": 64, "value": 0}, "group": "control_change"}, {"time": 757, "annotation": {"number": 64, "value": 127}, "group": "control_change"}, {"time": 779, "annotation": {"number": 64, "value": 0}, "group": "control_change"}, {"time": 782, "annotation": {"number": 64, "value": 127}, "group": "control_change"}, {"time": 804, "annotation": {"number": 64, "value": 0}, "group": "control_change"}, {"time": 806, "annotation": {"number": 64, "value": 127}, "group": "control_change"}, {"time": 827, "annotation": {"number": 64, "value": 0}, "group": "control_change"}, {"time": 829, "annotation": {"number": 64, "value": 127}, "group": "control_change"}, {"time": 851, "annotation": {"number": 64, "value": 0}, "group": "control_change"}, {"time": 853, "annotation": {"number": 64, "value": 127}, "group": "control_change"}, {"time": 875, "annotation": {"number": 64, "value": 0}, "group": "control_change"}, {"time": 877, "annotation": {"number": 64, "value": 127}, "group": "control_change"}, {"time": 899, "annotation": {"number": 64, "value": 0}, "group": "control_change"}, {"time": 901, "annotation": {"number": 64, "value": 127}, "group": "control_change"}, {"time": 924, "annotation": {"number": 64, "value": 0}, "group": "control_change"}, {"time": 925, "annotation": {"number": 64, "value": 127}, "group": "control_change"}, {"time": 947, "annotation": {"number": 64, "value": 0}, "group": "control_change"}, {"time": 949, "annotation": {"number": 64, "value": 127}, "group": "control_change"}, {"time": 971, "annotation": {"number": 64, "value": 0}, "group": "control_change"}, {"time": 973, "annotation": {"number": 64, "value": 127}, "group": "control_change"}, {"time": 995, "annotation": {"number": 64, "value": 0}, "group": "control_change"}, {"time": 997, "annotation": {"number": 64, "value": 127}, "group": "control_change"}, {"time": 1020, "annotation": {"number": 64, "value": 0}, "group": "control_change"}, {"time": 1021, "annotation": {"number": 64, "value": 127}, "group": "control_change"}, {"time": 1044, "annotation": {"number": 64, "value": 0}, "group": "control_change"}, {"time": 1045, "annotation": {"number": 64, "value": 127}, "group": "control_change"}, {"time": 1067, "annotation": {"number": 64, "value": 0}, "group": "control_change"}, {"time": 1069, "annotation": {"number": 64, "value": 127}, "group": "control_change"}, {"time": 1091, "annotation": {"number": 64, "value": 0}, "group": "control_change"}, {"time": 1093, "annotation": {"number": 64, "value": 127}, "group": "control_change"}, {"time": 1115, "annotation": {"number": 64, "value": 0}, "group": "control_change"}, {"time": 1117, "annotation": {"number": 64, "value": 127}, "group": "control_change"}, {"time": 1139, "annotation": {"number": 64, "value": 0}, "group": "control_change"}, {"time": 1141, "annotation": {"number": 64, "value": 127}, "group": "control_change"}, {"time": 1163, "annotation": {"number": 64, "value": 0}, "group": "control_change"}, {"time": 1165, "annotation": {"number": 64, "value": 127}, "group": "control_change"}, {"time": 1188, "annotation": {"number": 64, "value": 0}, "group": "control_change"}, {"time": 1190, "annotation": {"number": 64, "value": 127}, "group": "control_change"}, {"time": 1212, "annotation": {"number": 64, "value": 0}, "group": "control_change"}, {"time": 1214, "annotation": {"number": 64, "value": 127}, "group": "control_change"}, {"time": 1236, "annotation": {"number": 64, "value": 0}, "group": "control_change"}, {"time": 1238, "annotation": {"number": 64, "value": 127}, "group": "control_change"}, {"time": 1260, "annotation": {"number": 64, "value": 0}, "group": "control_change"}, {"time": 1261, "annotation": {"number": 64, "value": 127}, "group": "control_change"}, {"time": 1284, "annotation": {"number": 64, "value": 0}, "group": "control_change"}, {"time": 1285, "annotation": {"number": 64, "value": 127}, "group": "control_change"}, {"time": 1308, "annotation": {"number": 64, "value": 0}, "group": "control_change"}, {"time": 1309, "annotation": {"number": 64, "value": 127}, "group": "control_change"}, {"time": 1332, "annotation": {"number": 64, "value": 0}, "group": "control_change"}, {"time": 1333, "annotation": {"number": 64, "value": 127}, "group": "control_change"}, {"time": 1380, "annotation": {"number": 64, "value": 0}, "group": "control_change"}, {"time": 1382, "annotation": {"number": 64, "value": 127}, "group": "control_change"}, {"time": 1404, "annotation": {"number": 64, "value": 0}, "group": "control_change"}, {"time": 1405, "annotation": {"number": 64, "value": 127}, "group": "control_change"}, {"time": 1429, "annotation": {"number": 64, "value": 0}, "group": "control_change"}, {"time": 1430, "annotation": {"number": 64, "value": 127}, "group": "control_change"}, {"time": 1452, "annotation": {"number": 64, "value": 0}, "group": "control_change"}, {"time": 1452, "annotation": {"number": 64, "value": 127}, "group": "control_change"}, {"time": 1476, "annotation": {"number": 64, "value": 0}, "group": "control_change"}, {"time": 1477, "annotation": {"number": 64, "value": 127}, "group": "control_change"}, {"time": 1500, "annotation": {"number": 64, "value": 0}, "group": "control_change"}, {"time": 1501, "annotation": {"number": 64, "value": 127}, "group": "control_change"}, {"time": 1524, "annotation": {"number": 64, "value": 0}, "group": "control_change"}, {"time": 1526, "annotation": {"number": 64, "value": 127}, "group": "control_change"}, {"time": 1548, "annotation": {"number": 64, "value": 0}, "group": "control_change"}, {"time": 1549, "annotation": {"number": 64, "value": 127}, "group": "control_change"}, {"time": 1559, "annotation": {"number": 64, "value": 0}, "group": "control_change"}, {"time": 1561, "annotation": {"number": 64, "value": 127}, "group": "control_change"}, {"time": 1572, "annotation": {"number": 64, "value": 0}, "group": "control_change"}, {"time": 1574, "annotation": {"number": 64, "value": 127}, "group": "control_change"}, {"time": 1596, "annotation": {"number": 64, "value": 0}, "group": "control_change"}, {"time": 1598, "annotation": {"number": 64, "value": 127}, "group": "control_change"}, {"time": 1620, "annotation": {"number": 64, "value": 0}, "group": "control_change"}, {"time": 1622, "annotation": {"number": 64, "value": 127}, "group": "control_change"}, {"time": 1644, "annotation": {"number": 64, "value": 0}, "group": "control_change"}, {"time": 1645, "annotation": {"number": 64, "value": 127}, "group": "control_change"}, {"time": 1668, "annotation": {"number": 64, "value": 0}, "group": "control_change"}, {"time": 1670, "annotation": {"number": 64, "value": 127}, "group": "control_change"}, {"time": 1692, "annotation": {"number": 64, "value": 0}, "group": "control_change"}, {"time": 1694, "annotation": {"number": 64, "value": 127}, "group": "control_change"}, {"time": 1716, "annotation": {"number": 64, "value": 0}, "group": "control_change"}, {"time": 1717, "annotation": {"number": 64, "value": 127}, "group": "control_change"}, {"time": 1740, "annotation": {"number": 64, "value": 0}, "group": "control_change"}, {"time": 1742, "annotation": {"number": 64, "value": 127}, "group": "control_change"}, {"time": 1764, "annotation": {"number": 64, "value": 0}, "group": "control_change"}, {"time": 1766, "annotation": {"number": 64, "value": 127}, "group": "control_change"}, {"time": 1788, "annotation": {"number": 64, "value": 0}, "group": "control_change"}, {"time": 1790, "annotation": {"number": 64, "value": 127}, "group": "control_change"}, {"time": 1812, "annotation": {"number": 64, "value": 0}, "group": "control_change"}, {"time": 1813, "annotation": {"number": 64, "value": 127}, "group": "control_change"}, {"time": 1836, "annotation": {"number": 64, "value": 0}, "group": "control_change"}, {"time": 1837, "annotation": {"number": 64, "value": 127}, "group": "control_change"}, {"time": 1860, "annotation": {"number": 64, "value": 0}, "group": "control_change"}, {"time": 1861, "annotation": {"number": 64, "value": 127}, "group": "control_change"}, {"time": 1883, "annotation": {"number": 64, "value": 0}, "group": "control_change"}, {"time": 1885, "annotation": {"number": 64, "value": 127}, "group": "control_change"}, {"time": 1908, "annotation": {"number": 64, "value": 0}, "group": "control_change"}, {"time": 1909, "annotation": {"number": 64, "value": 127}, "group": "control_change"}, {"time": 1932, "annotation": {"number": 64, "value": 0}, "group": "control_change"}, {"time": 1934, "annotation": {"number": 64, "value": 127}, "group": "control_change"}, {"time": 1955, "annotation": {"number": 64, "value": 0}, "group": "control_change"}, {"time": 1957, "annotation": {"number": 64, "value": 127}, "group": "control_change"}, {"time": 1980, "annotation": {"number": 64, "value": 0}, "group": "control_change"}, {"time": 1981, "annotation": {"number": 64, "value": 127}, "group": "control_change"}, {"time": 2005, "annotation": {"number": 64, "value": 0}, "group": "control_change"}, {"time": 2006, "annotation": {"number": 64, "value": 127}, "group": "control_change"}, {"time": 2015, "annotation": {"number": 64, "value": 0}, "group": "control_change"}, {"time": 2017, "annotation": {"number": 64, "value": 127}, "group": "control_change"}, {"time": 2028, "annotation": {"number": 64, "value": 0}, "group": "control_change"}, {"time": 2030, "annotation": {"number": 64, "value": 127}, "group": "control_change"}, {"time": 2052, "annotation": {"number": 64, "value": 0}, "group": "control_change"}, {"time": 2054, "annotation": {"number": 64, "value": 127}, "group": "control_change"}, {"time": 2075, "annotation": {"number": 64, "value": 0}, "group": "control_change"}, {"time": 2077, "annotation": {"number": 64, "value": 127}, "group": "control_change"}, {"time": 2099, "annotation": {"number": 64, "value": 0}, "group": "control_change"}, {"time": 2101, "annotation": {"number": 64, "value": 127}, "group": "control_change"}, {"time": 2124, "annotation": {"number": 64, "value": 0}, "group": "control_change"}, {"time": 2150, "annotation": {"number": 64, "value": 127}, "group": "control_change"}, {"time": 2171, "annotation": {"number": 64, "value": 0}, "group": "control_change"}, {"time": 2173, "annotation": {"number": 64, "value": 127}, "group": "control_change"}, {"time": 2195, "annotation": {"number": 64, "value": 0}, "group": "control_change"}, {"time": 2197, "annotation": {"number": 64, "value": 127}, "group": "control_change"}, {"time": 2219, "annotation": {"number": 64, "value": 0}, "group": "control_change"}, {"time": 2221, "annotation": {"number": 64, "value": 127}, "group": "control_change"}, {"time": 2243, "annotation": {"number": 64, "value": 0}, "group": "control_change"}, {"time": 2245, "annotation": {"number": 64, "value": 127}, "group": "control_change"}, {"time": 2268, "annotation": {"number": 64, "value": 0}, "group": "control_change"}, {"time": 2269, "annotation": {"number": 64, "value": 127}, "group": "control_change"}, {"time": 2291, "annotation": {"number": 64, "value": 0}, "group": "control_change"}, {"time": 2293, "annotation": {"number": 64, "value": 127}, "group": "control_change"}, {"time": 2315, "annotation": {"number": 64, "value": 0}, "group": "control_change"}, {"time": 2317, "annotation": {"number": 64, "value": 127}, "group": "control_change"}, {"time": 2339, "annotation": {"number": 64, "value": 0}, "group": "control_change"}, {"time": 2341, "annotation": {"number": 64, "value": 127}, "group": "control_change"}, {"time": 2364, "annotation": {"number": 64, "value": 0}, "group": "control_change"}, {"time": 2365, "annotation": {"number": 64, "value": 127}, "group": "control_change"}, {"time": 2388, "annotation": {"number": 64, "value": 0}, "group": "control_change"}, {"time": 2389, "annotation": {"number": 64, "value": 127}, "group": "control_change"}, {"time": 2411, "annotation": {"number": 64, "value": 0}, "group": "control_change"}, {"time": 2413, "annotation": {"number": 64, "value": 127}, "group": "control_change"}, {"time": 2435, "annotation": {"number": 64, "value": 0}, "group": "control_change"}, {"time": 2437, "annotation": {"number": 64, "value": 127}, "group": "control_change"}, {"time": 2459, "annotation": {"number": 64, "value": 0}, "group": "control_change"}, {"time": 2461, "annotation": {"number": 64, "value": 127}, "group": "control_change"}, {"time": 2483, "annotation": {"number": 64, "value": 0}, "group": "control_change"}, {"time": 2485, "annotation": {"number": 64, "value": 127}, "group": "control_change"}, {"time": 2507, "annotation": {"number": 64, "value": 0}, "group": "control_change"}, {"time": 2509, "annotation": {"number": 64, "value": 127}, "group": "control_change"}, {"time": 2532, "annotation": {"number": 64, "value": 0}, "group": "control_change"}, {"time": 2534, "annotation": {"number": 64, "value": 127}, "group": "control_change"}, {"time": 2556, "annotation": {"number": 64, "value": 0}, "group": "control_change"}, {"time": 2558, "annotation": {"number": 64, "value": 127}, "group": "control_change"}, {"time": 2580, "annotation": {"number": 64, "value": 0}, "group": "control_change"}, {"time": 2582, "annotation": {"number": 64, "value": 127}, "group": "control_change"}, {"time": 2604, "annotation": {"number": 64, "value": 0}, "group": "control_change"}, {"time": 2605, "annotation": {"number": 64, "value": 127}, "group": "control_change"}, {"time": 2628, "annotation": {"number": 64, "value": 0}, "group": "control_change"}, {"time": 2629, "annotation": {"number": 64, "value": 127}, "group": "control_change"}, {"time": 2652, "annotation": {"number": 64, "value": 0}, "group": "control_change"}, {"time": 2653, "annotation": {"number": 64, "value": 127}, "group": "control_change"}, {"time": 2676, "annotation": {"number": 64, "value": 0}, "group": "control_change"}, {"time": 2677, "annotation": {"number": 64, "value": 127}, "group": "control_change"}, {"time": 2724, "annotation": {"number": 64, "value": 0}, "group": "control_change"}, {"time": 2726, "annotation": {"number": 64, "value": 127}, "group": "control_change"}, {"time": 2748, "annotation": {"number": 64, "value": 0}, "group": "control_change"}, {"time": 2749, "annotation": {"number": 64, "value": 127}, "group": "control_change"}, {"time": 2773, "annotation": {"number": 64, "value": 0}, "group": "control_change"}, {"time": 2774, "annotation": {"number": 64, "value": 127}, "group": "control_change"}, {"time": 2796, "annotation": {"number": 64, "value": 0}, "group": "control_change"}, {"time": 2796, "annotation": {"number": 64, "value": 127}, "group": "control_change"}, {"time": 2820, "annotation": {"number": 64, "value": 0}, "group": "control_change"}, {"time": 2821, "annotation": {"number": 64, "value": 127}, "group": "control_change"}, {"time": 2844, "annotation": {"number": 64, "value": 0}, "group": "control_change"}, {"time": 2845, "annotation": {"number": 64, "value": 127}, "group": "control_change"}, {"time": 2868, "annotation": {"number": 64, "value": 0}, "group": "control_change"}, {"time": 2870, "annotation": {"number": 64, "value": 127}, "group": "control_change"}, {"time": 2892, "annotation": {"number": 64, "value": 0}, "group": "control_change"}, {"time": 2893, "annotation": {"number": 64, "value": 127}, "group": "control_change"}, {"time": 2903, "annotation": {"number": 64, "value": 0}, "group": "control_change"}, {"time": 2905, "annotation": {"number": 64, "value": 127}, "group": "control_change"}, {"time": 2916, "annotation": {"number": 64, "value": 0}, "group": "control_change"}, {"time": 2918, "annotation": {"number": 64, "value": 127}, "group": "control_change"}, {"time": 2940, "annotation": {"number": 64, "value": 0}, "group": "control_change"}, {"time": 2942, "annotation": {"number": 64, "value": 127}, "group": "control_change"}, {"time": 2964, "annotation": {"number": 64, "value": 0}, "group": "control_change"}, {"time": 2966, "annotation": {"number": 64, "value": 127}, "group": "control_change"}, {"time": 2988, "annotation": {"number": 64, "value": 0}, "group": "control_change"}, {"time": 2989, "annotation": {"number": 64, "value": 127}, "group": "control_change"}, {"time": 3012, "annotation": {"number": 64, "value": 0}, "group": "control_change"}, {"time": 3014, "annotation": {"number": 64, "value": 127}, "group": "control_change"}, {"time": 3036, "annotation": {"number": 64, "value": 0}, "group": "control_change"}, {"time": 3038, "annotation": {"number": 64, "value": 127}, "group": "control_change"}, {"time": 3060, "annotation": {"number": 64, "value": 0}, "group": "control_change"}, {"time": 3061, "annotation": {"number": 64, "value": 127}, "group": "control_change"}, {"time": 3084, "annotation": {"number": 64, "value": 0}, "group": "control_change"}, {"time": 3086, "annotation": {"number": 64, "value": 127}, "group": "control_change"}, {"time": 3108, "annotation": {"number": 64, "value": 0}, "group": "control_change"}, {"time": 3110, "annotation": {"number": 64, "value": 127}, "group": "control_change"}, {"time": 3132, "annotation": {"number": 64, "value": 0}, "group": "control_change"}, {"time": 3134, "annotation": {"number": 64, "value": 127}, "group": "control_change"}, {"time": 3156, "annotation": {"number": 64, "value": 0}, "group": "control_change"}, {"time": 3157, "annotation": {"number": 64, "value": 127}, "group": "control_change"}, {"time": 3180, "annotation": {"number": 64, "value": 0}, "group": "control_change"}, {"time": 3181, "annotation": {"number": 64, "value": 127}, "group": "control_change"}, {"time": 3204, "annotation": {"number": 64, "value": 0}, "group": "control_change"}, {"time": 3205, "annotation": {"number": 64, "value": 127}, "group": "control_change"}, {"time": 3227, "annotation": {"number": 64, "value": 0}, "group": "control_change"}, {"time": 3229, "annotation": {"number": 64, "value": 127}, "group": "control_change"}, {"time": 3252, "annotation": {"number": 64, "value": 0}, "group": "control_change"}, {"time": 3253, "annotation": {"number": 64, "value": 127}, "group": "control_change"}, {"time": 3276, "annotation": {"number": 64, "value": 0}, "group": "control_change"}, {"time": 3278, "annotation": {"number": 64, "value": 127}, "group": "control_change"}, {"time": 3299, "annotation": {"number": 64, "value": 0}, "group": "control_change"}, {"time": 3301, "annotation": {"number": 64, "value": 127}, "group": "control_change"}, {"time": 3302, "annotation": {"number": 64, "value": 127}, "group": "control_change"}, {"time": 3324, "annotation": {"number": 64, "value": 0}, "group": "control_change"}, {"time": 3326, "annotation": {"number": 64, "value": 127}, "group": "control_change"}, {"time": 3348, "annotation": {"number": 64, "value": 0}, "group": "control_change"}, {"time": 3351, "annotation": {"number": 64, "value": 127}, "group": "control_change"}, {"time": 3396, "annotation": {"number": 64, "value": 0}, "group": "control_change"}, {"time": 3397, "annotation": {"number": 64, "value": 127}, "group": "control_change"}, {"time": 3431, "annotation": {"number": 64, "value": 0}, "group": "control_change"}, {"time": 3432, "annotation": {"number": 64, "value": 127}, "group": "control_change"}, {"time": 3468, "annotation": {"number": 64, "value": 0}, "group": "control_change"}, {"time": 3470, "annotation": {"number": 64, "value": 127}, "group": "control_change"}, {"time": 3494, "annotation": {"number": 64, "value": 0}, "group": "control_change"}, {"time": 3495, "annotation": {"number": 64, "value": 127}, "group": "control_change"}, {"time": 3539, "annotation": {"number": 64, "value": 0}, "group": "control_change"}, {"time": 3540, "annotation": {"number": 64, "value": 127}, "group": "control_change"}, {"time": 3606, "annotation": {"number": 64, "value": 0}, "group": "control_change"}, {"time": 3608, "annotation": {"number": 64, "value": 127}, "group": "control_change"}]}]}