{"metadata": {"schema_version": "0.2", "title": "None", "source_filename": "112.mid", "source_format": "midi"}, "resolution": 12, "tempos": [{"time": 0, "qpm": 56.000082133453795}], "time_signatures": [{"time": 0, "numerator": 1, "denominator": 4}], "tracks": [{"program": 4, "is_drum": false, "name": "MELODY", "notes": [{"time": 205, "pitch": 74, "duration": 2, "velocity": 94}, {"time": 208, "pitch": 74, "duration": 2, "velocity": 105}, {"time": 211, "pitch": 72, "duration": 2, "velocity": 105}, {"time": 214, "pitch": 71, "duration": 2, "velocity": 105}, {"time": 217, "pitch": 71, "duration": 20, "velocity": 102}, {"time": 238, "pitch": 69, "duration": 2, "velocity": 114}, {"time": 241, "pitch": 67, "duration": 2, "velocity": 105}, {"time": 244, "pitch": 71, "duration": 4, "velocity": 117}, {"time": 250, "pitch": 72, "duration": 1, "velocity": 108}, {"time": 253, "pitch": 72, "duration": 23, "velocity": 105}, {"time": 301, "pitch": 72, "duration": 2, "velocity": 105}, {"time": 304, "pitch": 72, "duration": 2, "velocity": 111}, {"time": 307, "pitch": 71, "duration": 2, "velocity": 100}, {"time": 310, "pitch": 71, "duration": 2, "velocity": 114}, {"time": 313, "pitch": 69, "duration": 18, "velocity": 114}, {"time": 334, "pitch": 69, "duration": 2, "velocity": 114}, {"time": 337, "pitch": 67, "duration": 2, "velocity": 80}, {"time": 340, "pitch": 69, "duration": 4, "velocity": 117}, {"time": 346, "pitch": 71, "duration": 1, "velocity": 114}, {"time": 349, "pitch": 71, "duration": 34, "velocity": 117}, {"time": 397, "pitch": 74, "duration": 2, "velocity": 94}, {"time": 400, "pitch": 74, "duration": 2, "velocity": 105}, {"time": 403, "pitch": 72, "duration": 2, "velocity": 105}, {"time": 406, "pitch": 71, "duration": 2, "velocity": 105}, {"time": 409, "pitch": 71, "duration": 20, "velocity": 102}, {"time": 430, "pitch": 69, "duration": 2, "velocity": 114}, {"time": 433, "pitch": 67, "duration": 2, "velocity": 105}, {"time": 436, "pitch": 71, "duration": 4, "velocity": 117}, {"time": 442, "pitch": 72, "duration": 1, "velocity": 108}, {"time": 445, "pitch": 72, "duration": 23, "velocity": 105}, {"time": 493, "pitch": 72, "duration": 2, "velocity": 105}, {"time": 496, "pitch": 72, "duration": 2, "velocity": 111}, {"time": 499, "pitch": 71, "duration": 2, "velocity": 100}, {"time": 502, "pitch": 71, "duration": 2, "velocity": 114}, {"time": 505, "pitch": 69, "duration": 18, "velocity": 114}, {"time": 526, "pitch": 69, "duration": 2, "velocity": 114}, {"time": 529, "pitch": 71, "duration": 2, "velocity": 80}, {"time": 532, "pitch": 69, "duration": 4, "velocity": 117}, {"time": 538, "pitch": 67, "duration": 1, "velocity": 114}, {"time": 541, "pitch": 67, "duration": 27, "velocity": 117}, {"time": 568, "pitch": 71, "duration": 4, "velocity": 120}, {"time": 574, "pitch": 74, "duration": 4, "velocity": 114}, {"time": 580, "pitch": 79, "duration": 12, "velocity": 111}, {"time": 598, "pitch": 78, "duration": 1, "velocity": 112}, {"time": 601, "pitch": 79, "duration": 2, "velocity": 105}, {"time": 604, "pitch": 78, "duration": 4, "velocity": 112}, {"time": 610, "pitch": 71, "duration": 2, "velocity": 108}, {"time": 613, "pitch": 74, "duration": 10, "velocity": 87}, {"time": 628, "pitch": 74, "duration": 5, "velocity": 120}, {"time": 634, "pitch": 76, "duration": 4, "velocity": 114}, {"time": 640, "pitch": 67, "duration": 4, "velocity": 120}, {"time": 646, "pitch": 74, "duration": 2, "velocity": 111}, {"time": 649, "pitch": 71, "duration": 12, "velocity": 111}, {"time": 664, "pitch": 71, "duration": 4, "velocity": 111}, {"time": 670, "pitch": 74, "duration": 4, "velocity": 108}, {"time": 676, "pitch": 74, "duration": 2, "velocity": 92}, {"time": 679, "pitch": 72, "duration": 1, "velocity": 108}, {"time": 682, "pitch": 71, "duration": 1, "velocity": 111}, {"time": 685, "pitch": 72, "duration": 8, "velocity": 111}, {"time": 700, "pitch": 74, "duration": 2, "velocity": 108}, {"time": 703, "pitch": 72, "duration": 1, "velocity": 108}, {"time": 706, "pitch": 71, "duration": 2, "velocity": 108}, {"time": 709, "pitch": 72, "duration": 4, "velocity": 114}, {"time": 715, "pitch": 72, "duration": 2, "velocity": 108}, {"time": 718, "pitch": 71, "duration": 2, "velocity": 108}, {"time": 721, "pitch": 72, "duration": 1, "velocity": 108}, {"time": 724, "pitch": 74, "duration": 29, "velocity": 105}, {"time": 760, "pitch": 74, "duration": 2, "velocity": 111}, {"time": 763, "pitch": 76, "duration": 1, "velocity": 114}, {"time": 766, "pitch": 79, "duration": 2, "velocity": 114}, {"time": 769, "pitch": 76, "duration": 2, "velocity": 108}, {"time": 772, "pitch": 83, "duration": 5, "velocity": 114}, {"time": 781, "pitch": 83, "duration": 4, "velocity": 114}, {"time": 787, "pitch": 76, "duration": 4, "velocity": 102}, {"time": 793, "pitch": 81, "duration": 11, "velocity": 114}, {"time": 805, "pitch": 81, "duration": 2, "velocity": 100}, {"time": 808, "pitch": 81, "duration": 2, "velocity": 105}, {"time": 811, "pitch": 79, "duration": 2, "velocity": 111}, {"time": 814, "pitch": 78, "duration": 2, "velocity": 102}, {"time": 817, "pitch": 79, "duration": 2, "velocity": 105}, {"time": 820, "pitch": 81, "duration": 4, "velocity": 111}, {"time": 826, "pitch": 83, "duration": 1, "velocity": 111}, {"time": 829, "pitch": 81, "duration": 3, "velocity": 105}, {"time": 835, "pitch": 74, "duration": 3, "velocity": 105}, {"time": 841, "pitch": 79, "duration": 11, "velocity": 111}, {"time": 856, "pitch": 79, "duration": 2, "velocity": 114}, {"time": 859, "pitch": 78, "duration": 2, "velocity": 102}, {"time": 862, "pitch": 76, "duration": 1, "velocity": 111}, {"time": 865, "pitch": 78, "duration": 2, "velocity": 112}, {"time": 868, "pitch": 79, "duration": 4, "velocity": 114}, {"time": 874, "pitch": 72, "duration": 2, "velocity": 108}, {"time": 877, "pitch": 72, "duration": 5, "velocity": 111}, {"time": 883, "pitch": 79, "duration": 1, "velocity": 111}, {"time": 886, "pitch": 79, "duration": 1, "velocity": 111}, {"time": 889, "pitch": 81, "duration": 1, "velocity": 111}, {"time": 892, "pitch": 79, "duration": 4, "velocity": 114}, {"time": 898, "pitch": 74, "duration": 2, "velocity": 114}, {"time": 901, "pitch": 74, "duration": 3, "velocity": 111}, {"time": 913, "pitch": 74, "duration": 1, "velocity": 114}, {"time": 916, "pitch": 84, "duration": 9, "velocity": 102}, {"time": 928, "pitch": 83, "duration": 4, "velocity": 108}, {"time": 934, "pitch": 81, "duration": 2, "velocity": 94}, {"time": 937, "pitch": 83, "duration": 12, "velocity": 114}, {"time": 952, "pitch": 74, "duration": 2, "velocity": 111}, {"time": 955, "pitch": 76, "duration": 1, "velocity": 114}, {"time": 958, "pitch": 79, "duration": 2, "velocity": 114}, {"time": 961, "pitch": 76, "duration": 2, "velocity": 108}, {"time": 964, "pitch": 83, "duration": 5, "velocity": 114}, {"time": 973, "pitch": 83, "duration": 4, "velocity": 114}, {"time": 979, "pitch": 76, "duration": 4, "velocity": 102}, {"time": 985, "pitch": 81, "duration": 11, "velocity": 114}, {"time": 997, "pitch": 81, "duration": 2, "velocity": 100}, {"time": 1000, "pitch": 81, "duration": 2, "velocity": 105}, {"time": 1003, "pitch": 79, "duration": 2, "velocity": 111}, {"time": 1006, "pitch": 78, "duration": 2, "velocity": 102}, {"time": 1009, "pitch": 79, "duration": 2, "velocity": 105}, {"time": 1012, "pitch": 81, "duration": 4, "velocity": 111}, {"time": 1018, "pitch": 83, "duration": 1, "velocity": 111}, {"time": 1021, "pitch": 81, "duration": 3, "velocity": 105}, {"time": 1027, "pitch": 74, "duration": 3, "velocity": 105}, {"time": 1033, "pitch": 79, "duration": 11, "velocity": 111}, {"time": 1048, "pitch": 79, "duration": 2, "velocity": 114}, {"time": 1051, "pitch": 78, "duration": 2, "velocity": 102}, {"time": 1054, "pitch": 76, "duration": 1, "velocity": 111}, {"time": 1057, "pitch": 78, "duration": 2, "velocity": 112}, {"time": 1060, "pitch": 79, "duration": 4, "velocity": 114}, {"time": 1066, "pitch": 72, "duration": 2, "velocity": 108}, {"time": 1069, "pitch": 72, "duration": 5, "velocity": 111}, {"time": 1075, "pitch": 79, "duration": 1, "velocity": 111}, {"time": 1078, "pitch": 79, "duration": 1, "velocity": 111}, {"time": 1081, "pitch": 81, "duration": 1, "velocity": 111}, {"time": 1084, "pitch": 79, "duration": 4, "velocity": 114}, {"time": 1090, "pitch": 74, "duration": 2, "velocity": 114}, {"time": 1093, "pitch": 74, "duration": 6, "velocity": 111}, {"time": 1105, "pitch": 74, "duration": 1, "velocity": 114}, {"time": 1108, "pitch": 76, "duration": 9, "velocity": 102}, {"time": 1120, "pitch": 78, "duration": 12, "velocity": 108}, {"time": 1132, "pitch": 79, "duration": 5, "velocity": 100}, {"time": 1138, "pitch": 79, "duration": 4, "velocity": 111}, {"time": 1144, "pitch": 78, "duration": 4, "velocity": 105}, {"time": 1150, "pitch": 79, "duration": 42, "velocity": 105}, {"time": 1381, "pitch": 74, "duration": 2, "velocity": 94}, {"time": 1384, "pitch": 74, "duration": 2, "velocity": 105}, {"time": 1387, "pitch": 72, "duration": 2, "velocity": 105}, {"time": 1390, "pitch": 71, "duration": 2, "velocity": 105}, {"time": 1393, "pitch": 71, "duration": 20, "velocity": 102}, {"time": 1414, "pitch": 69, "duration": 2, "velocity": 114}, {"time": 1417, "pitch": 67, "duration": 2, "velocity": 105}, {"time": 1420, "pitch": 71, "duration": 4, "velocity": 117}, {"time": 1426, "pitch": 72, "duration": 1, "velocity": 108}, {"time": 1429, "pitch": 72, "duration": 23, "velocity": 105}, {"time": 1477, "pitch": 72, "duration": 2, "velocity": 105}, {"time": 1480, "pitch": 72, "duration": 2, "velocity": 111}, {"time": 1483, "pitch": 71, "duration": 2, "velocity": 100}, {"time": 1486, "pitch": 71, "duration": 2, "velocity": 114}, {"time": 1489, "pitch": 69, "duration": 18, "velocity": 114}, {"time": 1510, "pitch": 69, "duration": 2, "velocity": 114}, {"time": 1513, "pitch": 67, "duration": 2, "velocity": 80}, {"time": 1516, "pitch": 69, "duration": 4, "velocity": 117}, {"time": 1522, "pitch": 71, "duration": 1, "velocity": 114}, {"time": 1525, "pitch": 71, "duration": 34, "velocity": 117}, {"time": 1573, "pitch": 74, "duration": 2, "velocity": 94}, {"time": 1576, "pitch": 74, "duration": 2, "velocity": 105}, {"time": 1579, "pitch": 72, "duration": 2, "velocity": 105}, {"time": 1582, "pitch": 71, "duration": 2, "velocity": 105}, {"time": 1585, "pitch": 71, "duration": 20, "velocity": 102}, {"time": 1606, "pitch": 69, "duration": 2, "velocity": 114}, {"time": 1609, "pitch": 67, "duration": 2, "velocity": 105}, {"time": 1612, "pitch": 71, "duration": 4, "velocity": 117}, {"time": 1618, "pitch": 72, "duration": 1, "velocity": 108}, {"time": 1621, "pitch": 72, "duration": 23, "velocity": 105}, {"time": 1669, "pitch": 72, "duration": 2, "velocity": 105}, {"time": 1672, "pitch": 72, "duration": 2, "velocity": 111}, {"time": 1675, "pitch": 71, "duration": 2, "velocity": 100}, {"time": 1678, "pitch": 71, "duration": 2, "velocity": 114}, {"time": 1681, "pitch": 69, "duration": 18, "velocity": 114}, {"time": 1702, "pitch": 69, "duration": 2, "velocity": 114}, {"time": 1705, "pitch": 71, "duration": 2, "velocity": 80}, {"time": 1708, "pitch": 69, "duration": 4, "velocity": 117}, {"time": 1714, "pitch": 67, "duration": 1, "velocity": 114}, {"time": 1717, "pitch": 67, "duration": 27, "velocity": 117}, {"time": 1744, "pitch": 71, "duration": 4, "velocity": 120}, {"time": 1750, "pitch": 74, "duration": 4, "velocity": 114}, {"time": 1756, "pitch": 79, "duration": 12, "velocity": 111}, {"time": 1774, "pitch": 78, "duration": 1, "velocity": 112}, {"time": 1777, "pitch": 79, "duration": 2, "velocity": 105}, {"time": 1780, "pitch": 78, "duration": 4, "velocity": 112}, {"time": 1786, "pitch": 71, "duration": 2, "velocity": 108}, {"time": 1789, "pitch": 74, "duration": 10, "velocity": 87}, {"time": 1804, "pitch": 74, "duration": 5, "velocity": 120}, {"time": 1810, "pitch": 76, "duration": 4, "velocity": 114}, {"time": 1816, "pitch": 67, "duration": 4, "velocity": 120}, {"time": 1822, "pitch": 74, "duration": 2, "velocity": 111}, {"time": 1825, "pitch": 71, "duration": 12, "velocity": 111}, {"time": 1840, "pitch": 71, "duration": 4, "velocity": 111}, {"time": 1846, "pitch": 74, "duration": 4, "velocity": 108}, {"time": 1852, "pitch": 74, "duration": 2, "velocity": 92}, {"time": 1855, "pitch": 72, "duration": 1, "velocity": 108}, {"time": 1858, "pitch": 71, "duration": 1, "velocity": 111}, {"time": 1861, "pitch": 72, "duration": 8, "velocity": 111}, {"time": 1876, "pitch": 74, "duration": 2, "velocity": 108}, {"time": 1879, "pitch": 72, "duration": 1, "velocity": 108}, {"time": 1882, "pitch": 71, "duration": 2, "velocity": 108}, {"time": 1885, "pitch": 72, "duration": 4, "velocity": 114}, {"time": 1891, "pitch": 72, "duration": 2, "velocity": 108}, {"time": 1894, "pitch": 71, "duration": 2, "velocity": 108}, {"time": 1897, "pitch": 72, "duration": 1, "velocity": 108}, {"time": 1900, "pitch": 74, "duration": 29, "velocity": 105}, {"time": 1936, "pitch": 74, "duration": 2, "velocity": 111}, {"time": 1939, "pitch": 76, "duration": 1, "velocity": 114}, {"time": 1942, "pitch": 79, "duration": 2, "velocity": 114}, {"time": 1945, "pitch": 76, "duration": 2, "velocity": 108}, {"time": 1948, "pitch": 83, "duration": 5, "velocity": 114}, {"time": 1957, "pitch": 83, "duration": 4, "velocity": 114}, {"time": 1963, "pitch": 76, "duration": 4, "velocity": 102}, {"time": 1969, "pitch": 81, "duration": 11, "velocity": 114}, {"time": 1981, "pitch": 81, "duration": 2, "velocity": 100}, {"time": 1984, "pitch": 81, "duration": 2, "velocity": 105}, {"time": 1987, "pitch": 79, "duration": 2, "velocity": 111}, {"time": 1990, "pitch": 78, "duration": 2, "velocity": 102}, {"time": 1993, "pitch": 79, "duration": 2, "velocity": 105}, {"time": 1996, "pitch": 81, "duration": 4, "velocity": 111}, {"time": 2002, "pitch": 83, "duration": 1, "velocity": 111}, {"time": 2005, "pitch": 81, "duration": 3, "velocity": 105}, {"time": 2011, "pitch": 74, "duration": 3, "velocity": 105}, {"time": 2017, "pitch": 79, "duration": 11, "velocity": 111}, {"time": 2032, "pitch": 79, "duration": 2, "velocity": 114}, {"time": 2035, "pitch": 78, "duration": 2, "velocity": 102}, {"time": 2038, "pitch": 76, "duration": 1, "velocity": 111}, {"time": 2041, "pitch": 78, "duration": 2, "velocity": 112}, {"time": 2044, "pitch": 79, "duration": 4, "velocity": 114}, {"time": 2050, "pitch": 72, "duration": 2, "velocity": 108}, {"time": 2053, "pitch": 72, "duration": 5, "velocity": 111}, {"time": 2059, "pitch": 79, "duration": 1, "velocity": 111}, {"time": 2062, "pitch": 79, "duration": 1, "velocity": 111}, {"time": 2065, "pitch": 81, "duration": 1, "velocity": 111}, {"time": 2068, "pitch": 79, "duration": 4, "velocity": 114}, {"time": 2074, "pitch": 74, "duration": 2, "velocity": 114}, {"time": 2077, "pitch": 74, "duration": 3, "velocity": 111}, {"time": 2089, "pitch": 74, "duration": 1, "velocity": 114}, {"time": 2092, "pitch": 84, "duration": 9, "velocity": 102}, {"time": 2104, "pitch": 83, "duration": 4, "velocity": 108}, {"time": 2110, "pitch": 81, "duration": 2, "velocity": 94}, {"time": 2113, "pitch": 83, "duration": 12, "velocity": 114}, {"time": 2128, "pitch": 74, "duration": 2, "velocity": 111}, {"time": 2131, "pitch": 76, "duration": 1, "velocity": 114}, {"time": 2134, "pitch": 79, "duration": 2, "velocity": 114}, {"time": 2137, "pitch": 76, "duration": 2, "velocity": 108}, {"time": 2140, "pitch": 83, "duration": 5, "velocity": 114}, {"time": 2149, "pitch": 83, "duration": 4, "velocity": 114}, {"time": 2155, "pitch": 76, "duration": 4, "velocity": 102}, {"time": 2161, "pitch": 81, "duration": 11, "velocity": 114}, {"time": 2173, "pitch": 81, "duration": 2, "velocity": 100}, {"time": 2176, "pitch": 81, "duration": 2, "velocity": 105}, {"time": 2179, "pitch": 79, "duration": 2, "velocity": 111}, {"time": 2182, "pitch": 78, "duration": 2, "velocity": 102}, {"time": 2185, "pitch": 79, "duration": 2, "velocity": 105}, {"time": 2188, "pitch": 81, "duration": 4, "velocity": 111}, {"time": 2194, "pitch": 83, "duration": 1, "velocity": 111}, {"time": 2197, "pitch": 81, "duration": 3, "velocity": 105}, {"time": 2203, "pitch": 74, "duration": 3, "velocity": 105}, {"time": 2209, "pitch": 79, "duration": 11, "velocity": 111}, {"time": 2224, "pitch": 79, "duration": 2, "velocity": 114}, {"time": 2227, "pitch": 78, "duration": 2, "velocity": 102}, {"time": 2230, "pitch": 76, "duration": 1, "velocity": 111}, {"time": 2233, "pitch": 78, "duration": 2, "velocity": 112}, {"time": 2236, "pitch": 79, "duration": 4, "velocity": 114}, {"time": 2242, "pitch": 72, "duration": 2, "velocity": 108}, {"time": 2245, "pitch": 72, "duration": 5, "velocity": 111}, {"time": 2251, "pitch": 79, "duration": 1, "velocity": 111}, {"time": 2254, "pitch": 79, "duration": 1, "velocity": 111}, {"time": 2257, "pitch": 81, "duration": 1, "velocity": 111}, {"time": 2260, "pitch": 79, "duration": 4, "velocity": 114}, {"time": 2266, "pitch": 74, "duration": 2, "velocity": 114}, {"time": 2269, "pitch": 74, "duration": 6, "velocity": 111}, {"time": 2281, "pitch": 74, "duration": 1, "velocity": 114}, {"time": 2284, "pitch": 76, "duration": 9, "velocity": 102}, {"time": 2296, "pitch": 78, "duration": 12, "velocity": 108}, {"time": 2308, "pitch": 79, "duration": 5, "velocity": 100}, {"time": 2314, "pitch": 79, "duration": 4, "velocity": 111}, {"time": 2320, "pitch": 78, "duration": 4, "velocity": 105}, {"time": 2326, "pitch": 79, "duration": 42, "velocity": 105}, {"time": 2368, "pitch": 74, "duration": 2, "velocity": 111}, {"time": 2371, "pitch": 76, "duration": 1, "velocity": 114}, {"time": 2374, "pitch": 79, "duration": 2, "velocity": 114}, {"time": 2377, "pitch": 76, "duration": 2, "velocity": 108}, {"time": 2380, "pitch": 83, "duration": 5, "velocity": 114}, {"time": 2389, "pitch": 83, "duration": 4, "velocity": 114}, {"time": 2395, "pitch": 76, "duration": 4, "velocity": 102}, {"time": 2401, "pitch": 81, "duration": 11, "velocity": 114}, {"time": 2413, "pitch": 81, "duration": 2, "velocity": 100}, {"time": 2416, "pitch": 81, "duration": 2, "velocity": 105}, {"time": 2419, "pitch": 79, "duration": 2, "velocity": 111}, {"time": 2422, "pitch": 78, "duration": 2, "velocity": 102}, {"time": 2425, "pitch": 79, "duration": 2, "velocity": 105}, {"time": 2428, "pitch": 81, "duration": 4, "velocity": 111}, {"time": 2434, "pitch": 83, "duration": 1, "velocity": 111}, {"time": 2437, "pitch": 81, "duration": 3, "velocity": 105}, {"time": 2443, "pitch": 74, "duration": 3, "velocity": 105}, {"time": 2449, "pitch": 79, "duration": 11, "velocity": 111}, {"time": 2464, "pitch": 79, "duration": 2, "velocity": 114}, {"time": 2467, "pitch": 78, "duration": 2, "velocity": 102}, {"time": 2470, "pitch": 76, "duration": 1, "velocity": 111}, {"time": 2473, "pitch": 78, "duration": 2, "velocity": 112}, {"time": 2476, "pitch": 79, "duration": 4, "velocity": 114}, {"time": 2482, "pitch": 72, "duration": 2, "velocity": 108}, {"time": 2485, "pitch": 72, "duration": 5, "velocity": 111}, {"time": 2491, "pitch": 79, "duration": 1, "velocity": 111}, {"time": 2494, "pitch": 79, "duration": 1, "velocity": 111}, {"time": 2497, "pitch": 81, "duration": 1, "velocity": 111}, {"time": 2500, "pitch": 79, "duration": 4, "velocity": 114}, {"time": 2506, "pitch": 74, "duration": 2, "velocity": 114}, {"time": 2509, "pitch": 74, "duration": 3, "velocity": 111}, {"time": 2521, "pitch": 74, "duration": 1, "velocity": 114}, {"time": 2524, "pitch": 84, "duration": 9, "velocity": 102}, {"time": 2536, "pitch": 83, "duration": 4, "velocity": 108}, {"time": 2542, "pitch": 81, "duration": 2, "velocity": 94}, {"time": 2545, "pitch": 83, "duration": 12, "velocity": 114}, {"time": 2560, "pitch": 74, "duration": 2, "velocity": 111}, {"time": 2563, "pitch": 76, "duration": 1, "velocity": 114}, {"time": 2566, "pitch": 79, "duration": 2, "velocity": 114}, {"time": 2569, "pitch": 76, "duration": 2, "velocity": 108}, {"time": 2572, "pitch": 83, "duration": 5, "velocity": 114}, {"time": 2581, "pitch": 83, "duration": 4, "velocity": 114}, {"time": 2587, "pitch": 76, "duration": 4, "velocity": 102}, {"time": 2593, "pitch": 81, "duration": 11, "velocity": 114}, {"time": 2605, "pitch": 81, "duration": 2, "velocity": 100}, {"time": 2608, "pitch": 81, "duration": 2, "velocity": 105}, {"time": 2611, "pitch": 79, "duration": 2, "velocity": 111}, {"time": 2614, "pitch": 78, "duration": 2, "velocity": 102}, {"time": 2617, "pitch": 79, "duration": 2, "velocity": 105}, {"time": 2620, "pitch": 81, "duration": 4, "velocity": 111}, {"time": 2626, "pitch": 83, "duration": 1, "velocity": 111}, {"time": 2629, "pitch": 81, "duration": 3, "velocity": 105}, {"time": 2635, "pitch": 74, "duration": 3, "velocity": 105}, {"time": 2641, "pitch": 79, "duration": 11, "velocity": 111}, {"time": 2656, "pitch": 79, "duration": 2, "velocity": 114}, {"time": 2659, "pitch": 78, "duration": 2, "velocity": 102}, {"time": 2662, "pitch": 76, "duration": 1, "velocity": 111}, {"time": 2665, "pitch": 78, "duration": 2, "velocity": 112}, {"time": 2668, "pitch": 79, "duration": 4, "velocity": 114}, {"time": 2674, "pitch": 72, "duration": 2, "velocity": 108}, {"time": 2677, "pitch": 72, "duration": 5, "velocity": 111}, {"time": 2683, "pitch": 79, "duration": 1, "velocity": 111}, {"time": 2686, "pitch": 79, "duration": 1, "velocity": 111}, {"time": 2689, "pitch": 81, "duration": 1, "velocity": 111}, {"time": 2692, "pitch": 79, "duration": 4, "velocity": 114}, {"time": 2698, "pitch": 74, "duration": 2, "velocity": 114}, {"time": 2701, "pitch": 74, "duration": 6, "velocity": 111}, {"time": 2713, "pitch": 74, "duration": 1, "velocity": 114}, {"time": 2716, "pitch": 76, "duration": 9, "velocity": 102}, {"time": 2728, "pitch": 78, "duration": 12, "velocity": 108}, {"time": 2740, "pitch": 79, "duration": 5, "velocity": 100}, {"time": 2746, "pitch": 79, "duration": 4, "velocity": 111}, {"time": 2752, "pitch": 78, "duration": 4, "velocity": 105}, {"time": 2758, "pitch": 79, "duration": 42, "velocity": 105}, {"time": 2812, "pitch": 74, "duration": 4, "velocity": 100}, {"time": 2818, "pitch": 76, "duration": 11, "velocity": 97}, {"time": 2830, "pitch": 78, "duration": 9, "velocity": 99}, {"time": 2841, "pitch": 79, "duration": 7, "velocity": 100}, {"time": 2849, "pitch": 79, "duration": 4, "velocity": 84}, {"time": 2854, "pitch": 78, "duration": 12, "velocity": 93}, {"time": 2869, "pitch": 79, "duration": 28, "velocity": 94}]}, {"program": 0, "is_drum": false, "name": "PIANO", "notes": [{"time": 4, "pitch": 43, "duration": 11, "velocity": 91}, {"time": 4, "pitch": 55, "duration": 2, "velocity": 73}, {"time": 4, "pitch": 67, "duration": 7, "velocity": 96}, {"time": 7, "pitch": 50, "duration": 8, "velocity": 89}, {"time": 10, "pitch": 59, "duration": 5, "velocity": 91}, {"time": 13, "pitch": 60, "duration": 8, "velocity": 89}, {"time": 16, "pitch": 43, "duration": 11, "velocity": 89}, {"time": 19, "pitch": 50, "duration": 8, "velocity": 80}, {"time": 22, "pitch": 59, "duration": 4, "velocity": 99}, {"time": 25, "pitch": 60, "duration": 9, "velocity": 96}, {"time": 28, "pitch": 43, "duration": 10, "velocity": 91}, {"time": 31, "pitch": 50, "duration": 7, "velocity": 78}, {"time": 34, "pitch": 59, "duration": 4, "velocity": 104}, {"time": 37, "pitch": 60, "duration": 9, "velocity": 99}, {"time": 40, "pitch": 43, "duration": 11, "velocity": 106}, {"time": 43, "pitch": 50, "duration": 8, "velocity": 93}, {"time": 46, "pitch": 57, "duration": 3, "velocity": 93}, {"time": 49, "pitch": 60, "duration": 3, "velocity": 106}, {"time": 52, "pitch": 43, "duration": 11, "velocity": 91}, {"time": 52, "pitch": 55, "duration": 2, "velocity": 73}, {"time": 52, "pitch": 67, "duration": 7, "velocity": 96}, {"time": 55, "pitch": 50, "duration": 8, "velocity": 89}, {"time": 58, "pitch": 59, "duration": 5, "velocity": 91}, {"time": 61, "pitch": 60, "duration": 8, "velocity": 89}, {"time": 64, "pitch": 43, "duration": 11, "velocity": 89}, {"time": 67, "pitch": 50, "duration": 8, "velocity": 80}, {"time": 70, "pitch": 59, "duration": 4, "velocity": 99}, {"time": 73, "pitch": 60, "duration": 9, "velocity": 96}, {"time": 76, "pitch": 43, "duration": 10, "velocity": 91}, {"time": 79, "pitch": 50, "duration": 7, "velocity": 78}, {"time": 82, "pitch": 59, "duration": 4, "velocity": 104}, {"time": 85, "pitch": 60, "duration": 9, "velocity": 99}, {"time": 88, "pitch": 43, "duration": 11, "velocity": 106}, {"time": 91, "pitch": 50, "duration": 8, "velocity": 93}, {"time": 94, "pitch": 57, "duration": 3, "velocity": 93}, {"time": 97, "pitch": 60, "duration": 3, "velocity": 106}, {"time": 100, "pitch": 43, "duration": 11, "velocity": 91}, {"time": 100, "pitch": 55, "duration": 2, "velocity": 73}, {"time": 100, "pitch": 67, "duration": 7, "velocity": 96}, {"time": 103, "pitch": 50, "duration": 8, "velocity": 89}, {"time": 106, "pitch": 59, "duration": 5, "velocity": 91}, {"time": 109, "pitch": 60, "duration": 8, "velocity": 89}, {"time": 112, "pitch": 43, "duration": 11, "velocity": 89}, {"time": 115, "pitch": 50, "duration": 8, "velocity": 80}, {"time": 118, "pitch": 59, "duration": 4, "velocity": 99}, {"time": 121, "pitch": 60, "duration": 9, "velocity": 96}, {"time": 124, "pitch": 43, "duration": 10, "velocity": 91}, {"time": 127, "pitch": 50, "duration": 7, "velocity": 78}, {"time": 130, "pitch": 59, "duration": 4, "velocity": 104}, {"time": 133, "pitch": 60, "duration": 9, "velocity": 99}, {"time": 136, "pitch": 43, "duration": 11, "velocity": 106}, {"time": 139, "pitch": 50, "duration": 8, "velocity": 93}, {"time": 142, "pitch": 57, "duration": 3, "velocity": 93}, {"time": 145, "pitch": 60, "duration": 3, "velocity": 106}, {"time": 148, "pitch": 59, "duration": 46, "velocity": 89}, {"time": 148, "pitch": 43, "duration": 45, "velocity": 99}, {"time": 148, "pitch": 55, "duration": 46, "velocity": 73}, {"time": 196, "pitch": 43, "duration": 22, "velocity": 101}, {"time": 199, "pitch": 50, "duration": 6, "velocity": 71}, {"time": 202, "pitch": 57, "duration": 3, "velocity": 96}, {"time": 205, "pitch": 59, "duration": 8, "velocity": 109}, {"time": 208, "pitch": 50, "duration": 10, "velocity": 56}, {"time": 211, "pitch": 55, "duration": 3, "velocity": 67}, {"time": 214, "pitch": 62, "duration": 15, "velocity": 109}, {"time": 217, "pitch": 55, "duration": 6, "velocity": 80}, {"time": 220, "pitch": 43, "duration": 21, "velocity": 94}, {"time": 223, "pitch": 50, "duration": 7, "velocity": 59}, {"time": 226, "pitch": 55, "duration": 3, "velocity": 37}, {"time": 229, "pitch": 57, "duration": 6, "velocity": 106}, {"time": 232, "pitch": 50, "duration": 4, "velocity": 47}, {"time": 235, "pitch": 59, "duration": 9, "velocity": 106}, {"time": 238, "pitch": 50, "duration": 3, "velocity": 24}, {"time": 241, "pitch": 55, "duration": 2, "velocity": 85}, {"time": 244, "pitch": 45, "duration": 22, "velocity": 96}, {"time": 247, "pitch": 52, "duration": 7, "velocity": 74}, {"time": 250, "pitch": 55, "duration": 2, "velocity": 61}, {"time": 253, "pitch": 60, "duration": 6, "velocity": 106}, {"time": 256, "pitch": 52, "duration": 12, "velocity": 76}, {"time": 259, "pitch": 57, "duration": 3, "velocity": 89}, {"time": 262, "pitch": 60, "duration": 7, "velocity": 94}, {"time": 265, "pitch": 64, "duration": 7, "velocity": 101}, {"time": 268, "pitch": 45, "duration": 18, "velocity": 87}, {"time": 271, "pitch": 52, "duration": 7, "velocity": 67}, {"time": 274, "pitch": 57, "duration": 3, "velocity": 69}, {"time": 277, "pitch": 67, "duration": 7, "velocity": 91}, {"time": 280, "pitch": 52, "duration": 5, "velocity": 82}, {"time": 283, "pitch": 57, "duration": 4, "velocity": 94}, {"time": 286, "pitch": 60, "duration": 5, "velocity": 96}, {"time": 289, "pitch": 57, "duration": 4, "velocity": 99}, {"time": 292, "pitch": 50, "duration": 22, "velocity": 100}, {"time": 295, "pitch": 57, "duration": 12, "velocity": 87}, {"time": 298, "pitch": 60, "duration": 4, "velocity": 100}, {"time": 301, "pitch": 66, "duration": 13, "velocity": 102}, {"time": 307, "pitch": 54, "duration": 8, "velocity": 8}, {"time": 310, "pitch": 57, "duration": 6, "velocity": 89}, {"time": 313, "pitch": 60, "duration": 6, "velocity": 105}, {"time": 316, "pitch": 50, "duration": 19, "velocity": 71}, {"time": 319, "pitch": 57, "duration": 9, "velocity": 66}, {"time": 322, "pitch": 60, "duration": 8, "velocity": 80}, {"time": 325, "pitch": 66, "duration": 9, "velocity": 116}, {"time": 328, "pitch": 54, "duration": 6, "velocity": 10}, {"time": 331, "pitch": 57, "duration": 3, "velocity": 94}, {"time": 334, "pitch": 60, "duration": 4, "velocity": 94}, {"time": 337, "pitch": 66, "duration": 3, "velocity": 93}, {"time": 340, "pitch": 43, "duration": 22, "velocity": 97}, {"time": 343, "pitch": 50, "duration": 7, "velocity": 51}, {"time": 346, "pitch": 55, "duration": 4, "velocity": 73}, {"time": 349, "pitch": 62, "duration": 6, "velocity": 100}, {"time": 352, "pitch": 50, "duration": 12, "velocity": 50}, {"time": 355, "pitch": 55, "duration": 6, "velocity": 84}, {"time": 358, "pitch": 62, "duration": 13, "velocity": 84}, {"time": 361, "pitch": 67, "duration": 21, "velocity": 100}, {"time": 364, "pitch": 43, "duration": 22, "velocity": 80}, {"time": 367, "pitch": 50, "duration": 7, "velocity": 52}, {"time": 370, "pitch": 55, "duration": 6, "velocity": 97}, {"time": 373, "pitch": 62, "duration": 7, "velocity": 100}, {"time": 376, "pitch": 50, "duration": 10, "velocity": 58}, {"time": 379, "pitch": 55, "duration": 7, "velocity": 82}, {"time": 382, "pitch": 62, "duration": 13, "velocity": 78}, {"time": 385, "pitch": 67, "duration": 12, "velocity": 92}, {"time": 388, "pitch": 43, "duration": 46, "velocity": 102}, {"time": 391, "pitch": 50, "duration": 7, "velocity": 57}, {"time": 394, "pitch": 55, "duration": 4, "velocity": 76}, {"time": 397, "pitch": 62, "duration": 7, "velocity": 87}, {"time": 400, "pitch": 50, "duration": 10, "velocity": 50}, {"time": 403, "pitch": 55, "duration": 5, "velocity": 57}, {"time": 406, "pitch": 62, "duration": 12, "velocity": 76}, {"time": 409, "pitch": 67, "duration": 12, "velocity": 108}, {"time": 415, "pitch": 50, "duration": 6, "velocity": 66}, {"time": 418, "pitch": 55, "duration": 6, "velocity": 80}, {"time": 421, "pitch": 62, "duration": 7, "velocity": 102}, {"time": 424, "pitch": 50, "duration": 11, "velocity": 62}, {"time": 427, "pitch": 55, "duration": 5, "velocity": 80}, {"time": 430, "pitch": 62, "duration": 6, "velocity": 84}, {"time": 433, "pitch": 67, "duration": 11, "velocity": 97}, {"time": 436, "pitch": 45, "duration": 22, "velocity": 100}, {"time": 439, "pitch": 52, "duration": 6, "velocity": 64}, {"time": 442, "pitch": 60, "duration": 5, "velocity": 87}, {"time": 445, "pitch": 57, "duration": 7, "velocity": 92}, {"time": 448, "pitch": 52, "duration": 5, "velocity": 69}, {"time": 451, "pitch": 64, "duration": 17, "velocity": 78}, {"time": 454, "pitch": 52, "duration": 5, "velocity": 73}, {"time": 457, "pitch": 57, "duration": 6, "velocity": 84}, {"time": 460, "pitch": 45, "duration": 23, "velocity": 100}, {"time": 463, "pitch": 52, "duration": 7, "velocity": 71}, {"time": 466, "pitch": 57, "duration": 4, "velocity": 73}, {"time": 469, "pitch": 60, "duration": 6, "velocity": 108}, {"time": 472, "pitch": 52, "duration": 10, "velocity": 67}, {"time": 475, "pitch": 57, "duration": 4, "velocity": 87}, {"time": 478, "pitch": 60, "duration": 3, "velocity": 105}, {"time": 481, "pitch": 57, "duration": 4, "velocity": 100}, {"time": 484, "pitch": 50, "duration": 22, "velocity": 105}, {"time": 487, "pitch": 57, "duration": 6, "velocity": 69}, {"time": 490, "pitch": 60, "duration": 3, "velocity": 67}, {"time": 493, "pitch": 66, "duration": 9, "velocity": 102}, {"time": 496, "pitch": 60, "duration": 3, "velocity": 92}, {"time": 499, "pitch": 57, "duration": 7, "velocity": 76}, {"time": 502, "pitch": 62, "duration": 4, "velocity": 67}, {"time": 505, "pitch": 66, "duration": 9, "velocity": 105}, {"time": 508, "pitch": 50, "duration": 23, "velocity": 94}, {"time": 511, "pitch": 57, "duration": 7, "velocity": 66}, {"time": 514, "pitch": 62, "duration": 3, "velocity": 66}, {"time": 517, "pitch": 66, "duration": 7, "velocity": 109}, {"time": 520, "pitch": 62, "duration": 10, "velocity": 78}, {"time": 523, "pitch": 57, "duration": 3, "velocity": 66}, {"time": 529, "pitch": 57, "duration": 3, "velocity": 53}, {"time": 532, "pitch": 43, "duration": 22, "velocity": 97}, {"time": 535, "pitch": 50, "duration": 7, "velocity": 60}, {"time": 538, "pitch": 55, "duration": 4, "velocity": 92}, {"time": 541, "pitch": 62, "duration": 6, "velocity": 105}, {"time": 544, "pitch": 50, "duration": 11, "velocity": 69}, {"time": 547, "pitch": 59, "duration": 5, "velocity": 80}, {"time": 550, "pitch": 67, "duration": 21, "velocity": 100}, {"time": 553, "pitch": 55, "duration": 7, "velocity": 80}, {"time": 556, "pitch": 43, "duration": 22, "velocity": 100}, {"time": 559, "pitch": 50, "duration": 7, "velocity": 66}, {"time": 562, "pitch": 55, "duration": 9, "velocity": 62}, {"time": 565, "pitch": 59, "duration": 6, "velocity": 102}, {"time": 568, "pitch": 50, "duration": 9, "velocity": 82}, {"time": 571, "pitch": 62, "duration": 7, "velocity": 102}, {"time": 574, "pitch": 59, "duration": 4, "velocity": 102}, {"time": 577, "pitch": 55, "duration": 3, "velocity": 105}, {"time": 580, "pitch": 52, "duration": 20, "velocity": 117}, {"time": 583, "pitch": 64, "duration": 4, "velocity": 94}, {"time": 586, "pitch": 59, "duration": 4, "velocity": 94}, {"time": 589, "pitch": 67, "duration": 6, "velocity": 105}, {"time": 595, "pitch": 64, "duration": 4, "velocity": 97}, {"time": 598, "pitch": 59, "duration": 4, "velocity": 105}, {"time": 601, "pitch": 67, "duration": 6, "velocity": 87}, {"time": 604, "pitch": 47, "duration": 21, "velocity": 102}, {"time": 607, "pitch": 62, "duration": 6, "velocity": 82}, {"time": 610, "pitch": 54, "duration": 7, "velocity": 57}, {"time": 613, "pitch": 59, "duration": 4, "velocity": 84}, {"time": 616, "pitch": 66, "duration": 9, "velocity": 105}, {"time": 619, "pitch": 54, "duration": 4, "velocity": 85}, {"time": 622, "pitch": 62, "duration": 3, "velocity": 84}, {"time": 625, "pitch": 59, "duration": 2, "velocity": 97}, {"time": 628, "pitch": 45, "duration": 11, "velocity": 100}, {"time": 628, "pitch": 60, "duration": 6, "velocity": 87}, {"time": 631, "pitch": 52, "duration": 7, "velocity": 66}, {"time": 634, "pitch": 57, "duration": 4, "velocity": 102}, {"time": 637, "pitch": 60, "duration": 3, "velocity": 108}, {"time": 640, "pitch": 50, "duration": 11, "velocity": 100}, {"time": 640, "pitch": 62, "duration": 4, "velocity": 100}, {"time": 643, "pitch": 57, "duration": 4, "velocity": 92}, {"time": 646, "pitch": 62, "duration": 4, "velocity": 84}, {"time": 649, "pitch": 66, "duration": 4, "velocity": 99}, {"time": 652, "pitch": 43, "duration": 23, "velocity": 105}, {"time": 655, "pitch": 50, "duration": 7, "velocity": 69}, {"time": 658, "pitch": 55, "duration": 4, "velocity": 87}, {"time": 661, "pitch": 62, "duration": 7, "velocity": 111}, {"time": 664, "pitch": 50, "duration": 11, "velocity": 73}, {"time": 667, "pitch": 59, "duration": 3, "velocity": 100}, {"time": 670, "pitch": 55, "duration": 5, "velocity": 100}, {"time": 673, "pitch": 59, "duration": 3, "velocity": 105}, {"time": 676, "pitch": 45, "duration": 22, "velocity": 100}, {"time": 676, "pitch": 60, "duration": 7, "velocity": 105}, {"time": 679, "pitch": 52, "duration": 6, "velocity": 73}, {"time": 682, "pitch": 57, "duration": 7, "velocity": 100}, {"time": 685, "pitch": 64, "duration": 6, "velocity": 97}, {"time": 688, "pitch": 52, "duration": 11, "velocity": 60}, {"time": 691, "pitch": 60, "duration": 3, "velocity": 94}, {"time": 694, "pitch": 57, "duration": 7, "velocity": 108}, {"time": 697, "pitch": 60, "duration": 9, "velocity": 114}, {"time": 700, "pitch": 45, "duration": 22, "velocity": 94}, {"time": 703, "pitch": 52, "duration": 7, "velocity": 69}, {"time": 706, "pitch": 57, "duration": 4, "velocity": 89}, {"time": 709, "pitch": 60, "duration": 9, "velocity": 111}, {"time": 715, "pitch": 52, "duration": 7, "velocity": 78}, {"time": 718, "pitch": 57, "duration": 6, "velocity": 105}, {"time": 721, "pitch": 60, "duration": 4, "velocity": 94}, {"time": 724, "pitch": 50, "duration": 21, "velocity": 105}, {"time": 727, "pitch": 62, "duration": 4, "velocity": 102}, {"time": 730, "pitch": 57, "duration": 4, "velocity": 94}, {"time": 733, "pitch": 66, "duration": 14, "velocity": 102}, {"time": 739, "pitch": 62, "duration": 4, "velocity": 100}, {"time": 742, "pitch": 57, "duration": 9, "velocity": 89}, {"time": 745, "pitch": 62, "duration": 4, "velocity": 78}, {"time": 748, "pitch": 50, "duration": 19, "velocity": 111}, {"time": 751, "pitch": 62, "duration": 4, "velocity": 84}, {"time": 754, "pitch": 57, "duration": 4, "velocity": 102}, {"time": 757, "pitch": 62, "duration": 7, "velocity": 111}, {"time": 763, "pitch": 57, "duration": 3, "velocity": 84}, {"time": 766, "pitch": 62, "duration": 4, "velocity": 84}, {"time": 769, "pitch": 57, "duration": 1, "velocity": 100}, {"time": 772, "pitch": 48, "duration": 22, "velocity": 114}, {"time": 772, "pitch": 55, "duration": 3, "velocity": 100}, {"time": 772, "pitch": 60, "duration": 4, "velocity": 97}, {"time": 775, "pitch": 55, "duration": 4, "velocity": 73}, {"time": 778, "pitch": 60, "duration": 2, "velocity": 76}, {"time": 781, "pitch": 55, "duration": 4, "velocity": 108}, {"time": 781, "pitch": 60, "duration": 6, "velocity": 117}, {"time": 781, "pitch": 64, "duration": 9, "velocity": 108}, {"time": 787, "pitch": 55, "duration": 6, "velocity": 45}, {"time": 790, "pitch": 60, "duration": 6, "velocity": 80}, {"time": 793, "pitch": 64, "duration": 7, "velocity": 80}, {"time": 796, "pitch": 48, "duration": 19, "velocity": 108}, {"time": 799, "pitch": 60, "duration": 4, "velocity": 78}, {"time": 802, "pitch": 55, "duration": 9, "velocity": 84}, {"time": 805, "pitch": 60, "duration": 4, "velocity": 111}, {"time": 805, "pitch": 64, "duration": 12, "velocity": 102}, {"time": 811, "pitch": 60, "duration": 4, "velocity": 82}, {"time": 814, "pitch": 55, "duration": 2, "velocity": 64}, {"time": 820, "pitch": 47, "duration": 23, "velocity": 102}, {"time": 820, "pitch": 59, "duration": 4, "velocity": 94}, {"time": 820, "pitch": 62, "duration": 6, "velocity": 82}, {"time": 823, "pitch": 54, "duration": 6, "velocity": 93}, {"time": 826, "pitch": 59, "duration": 2, "velocity": 89}, {"time": 829, "pitch": 59, "duration": 4, "velocity": 92}, {"time": 829, "pitch": 66, "duration": 7, "velocity": 109}, {"time": 832, "pitch": 54, "duration": 6, "velocity": 65}, {"time": 835, "pitch": 59, "duration": 4, "velocity": 87}, {"time": 835, "pitch": 62, "duration": 13, "velocity": 100}, {"time": 841, "pitch": 59, "duration": 5, "velocity": 62}, {"time": 844, "pitch": 52, "duration": 20, "velocity": 114}, {"time": 847, "pitch": 59, "duration": 3, "velocity": 94}, {"time": 850, "pitch": 64, "duration": 7, "velocity": 87}, {"time": 853, "pitch": 59, "duration": 3, "velocity": 71}, {"time": 856, "pitch": 67, "duration": 14, "velocity": 114}, {"time": 859, "pitch": 59, "duration": 4, "velocity": 80}, {"time": 862, "pitch": 64, "duration": 4, "velocity": 76}, {"time": 865, "pitch": 59, "duration": 2, "velocity": 84}, {"time": 868, "pitch": 45, "duration": 22, "velocity": 108}, {"time": 868, "pitch": 57, "duration": 3, "velocity": 97}, {"time": 868, "pitch": 60, "duration": 7, "velocity": 92}, {"time": 871, "pitch": 52, "duration": 7, "velocity": 71}, {"time": 874, "pitch": 57, "duration": 3, "velocity": 78}, {"time": 877, "pitch": 57, "duration": 3, "velocity": 31}, {"time": 877, "pitch": 64, "duration": 9, "velocity": 102}, {"time": 880, "pitch": 52, "duration": 11, "velocity": 71}, {"time": 883, "pitch": 57, "duration": 3, "velocity": 94}, {"time": 886, "pitch": 60, "duration": 3, "velocity": 100}, {"time": 889, "pitch": 57, "duration": 1, "velocity": 92}, {"time": 892, "pitch": 47, "duration": 20, "velocity": 97}, {"time": 892, "pitch": 59, "duration": 2, "velocity": 100}, {"time": 892, "pitch": 62, "duration": 6, "velocity": 102}, {"time": 895, "pitch": 50, "duration": 4, "velocity": 87}, {"time": 898, "pitch": 59, "duration": 4, "velocity": 100}, {"time": 901, "pitch": 66, "duration": 14, "velocity": 109}, {"time": 904, "pitch": 54, "duration": 8, "velocity": 93}, {"time": 907, "pitch": 62, "duration": 4, "velocity": 111}, {"time": 910, "pitch": 59, "duration": 5, "velocity": 114}, {"time": 913, "pitch": 47, "duration": 1, "velocity": 108}, {"time": 916, "pitch": 50, "duration": 11, "velocity": 117}, {"time": 916, "pitch": 57, "duration": 4, "velocity": 94}, {"time": 916, "pitch": 60, "duration": 7, "velocity": 102}, {"time": 916, "pitch": 65, "duration": 11, "velocity": 94}, {"time": 922, "pitch": 57, "duration": 4, "velocity": 80}, {"time": 925, "pitch": 60, "duration": 2, "velocity": 97}, {"time": 928, "pitch": 43, "duration": 9, "velocity": 105}, {"time": 928, "pitch": 55, "duration": 6, "velocity": 89}, {"time": 928, "pitch": 59, "duration": 10, "velocity": 114}, {"time": 934, "pitch": 50, "duration": 4, "velocity": 97}, {"time": 937, "pitch": 55, "duration": 3, "velocity": 82}, {"time": 940, "pitch": 43, "duration": 21, "velocity": 102}, {"time": 940, "pitch": 55, "duration": 4, "velocity": 97}, {"time": 940, "pitch": 62, "duration": 6, "velocity": 80}, {"time": 940, "pitch": 65, "duration": 6, "velocity": 97}, {"time": 943, "pitch": 50, "duration": 7, "velocity": 87}, {"time": 946, "pitch": 55, "duration": 1, "velocity": 92}, {"time": 949, "pitch": 55, "duration": 4, "velocity": 117}, {"time": 949, "pitch": 59, "duration": 7, "velocity": 123}, {"time": 949, "pitch": 62, "duration": 8, "velocity": 117}, {"time": 949, "pitch": 65, "duration": 8, "velocity": 105}, {"time": 952, "pitch": 50, "duration": 7, "velocity": 89}, {"time": 955, "pitch": 55, "duration": 4, "velocity": 84}, {"time": 958, "pitch": 59, "duration": 5, "velocity": 120}, {"time": 961, "pitch": 50, "duration": 3, "velocity": 108}, {"time": 964, "pitch": 48, "duration": 21, "velocity": 117}, {"time": 967, "pitch": 60, "duration": 4, "velocity": 97}, {"time": 970, "pitch": 55, "duration": 4, "velocity": 102}, {"time": 973, "pitch": 64, "duration": 5, "velocity": 111}, {"time": 979, "pitch": 55, "duration": 2, "velocity": 89}, {"time": 979, "pitch": 60, "duration": 3, "velocity": 97}, {"time": 982, "pitch": 55, "duration": 4, "velocity": 62}, {"time": 985, "pitch": 60, "duration": 2, "velocity": 94}, {"time": 988, "pitch": 50, "duration": 11, "velocity": 105}, {"time": 988, "pitch": 57, "duration": 2, "velocity": 92}, {"time": 988, "pitch": 62, "duration": 6, "velocity": 89}, {"time": 994, "pitch": 57, "duration": 2, "velocity": 84}, {"time": 997, "pitch": 57, "duration": 4, "velocity": 100}, {"time": 997, "pitch": 62, "duration": 3, "velocity": 76}, {"time": 997, "pitch": 66, "duration": 13, "velocity": 102}, {"time": 1000, "pitch": 50, "duration": 8, "velocity": 92}, {"time": 1003, "pitch": 62, "duration": 4, "velocity": 102}, {"time": 1006, "pitch": 57, "duration": 3, "velocity": 82}, {"time": 1012, "pitch": 47, "duration": 19, "velocity": 105}, {"time": 1012, "pitch": 59, "duration": 4, "velocity": 92}, {"time": 1012, "pitch": 62, "duration": 6, "velocity": 89}, {"time": 1015, "pitch": 54, "duration": 6, "velocity": 85}, {"time": 1018, "pitch": 59, "duration": 1, "velocity": 58}, {"time": 1021, "pitch": 59, "duration": 4, "velocity": 108}, {"time": 1021, "pitch": 66, "duration": 6, "velocity": 109}, {"time": 1024, "pitch": 54, "duration": 4, "velocity": 74}, {"time": 1027, "pitch": 62, "duration": 3, "velocity": 105}, {"time": 1030, "pitch": 59, "duration": 6, "velocity": 67}, {"time": 1036, "pitch": 46, "duration": 14, "velocity": 105}, {"time": 1039, "pitch": 58, "duration": 4, "velocity": 70}, {"time": 1042, "pitch": 61, "duration": 2, "velocity": 93}, {"time": 1045, "pitch": 58, "duration": 5, "velocity": 79}, {"time": 1045, "pitch": 61, "duration": 4, "velocity": 96}, {"time": 1045, "pitch": 64, "duration": 5, "velocity": 108}, {"time": 1051, "pitch": 58, "duration": 3, "velocity": 90}, {"time": 1051, "pitch": 61, "duration": 9, "velocity": 99}, {"time": 1051, "pitch": 64, "duration": 16, "velocity": 102}, {"time": 1054, "pitch": 46, "duration": 2, "velocity": 28}, {"time": 1057, "pitch": 58, "duration": 3, "velocity": 79}, {"time": 1060, "pitch": 45, "duration": 22, "velocity": 102}, {"time": 1063, "pitch": 52, "duration": 6, "velocity": 67}, {"time": 1066, "pitch": 55, "duration": 7, "velocity": 94}, {"time": 1069, "pitch": 60, "duration": 6, "velocity": 114}, {"time": 1072, "pitch": 52, "duration": 10, "velocity": 84}, {"time": 1075, "pitch": 55, "duration": 3, "velocity": 87}, {"time": 1078, "pitch": 64, "duration": 4, "velocity": 89}, {"time": 1084, "pitch": 50, "duration": 21, "velocity": 111}, {"time": 1084, "pitch": 59, "duration": 2, "velocity": 76}, {"time": 1084, "pitch": 62, "duration": 4, "velocity": 92}, {"time": 1087, "pitch": 59, "duration": 4, "velocity": 66}, {"time": 1090, "pitch": 62, "duration": 2, "velocity": 51}, {"time": 1093, "pitch": 59, "duration": 4, "velocity": 82}, {"time": 1093, "pitch": 62, "duration": 5, "velocity": 94}, {"time": 1093, "pitch": 66, "duration": 13, "velocity": 109}, {"time": 1099, "pitch": 62, "duration": 4, "velocity": 76}, {"time": 1102, "pitch": 59, "duration": 4, "velocity": 82}, {"time": 1105, "pitch": 62, "duration": 1, "velocity": 69}, {"time": 1108, "pitch": 48, "duration": 19, "velocity": 105}, {"time": 1108, "pitch": 55, "duration": 2, "velocity": 97}, {"time": 1108, "pitch": 60, "duration": 4, "velocity": 102}, {"time": 1111, "pitch": 55, "duration": 4, "velocity": 60}, {"time": 1114, "pitch": 60, "duration": 2, "velocity": 80}, {"time": 1117, "pitch": 64, "duration": 6, "velocity": 114}, {"time": 1123, "pitch": 60, "duration": 4, "velocity": 97}, {"time": 1126, "pitch": 55, "duration": 4, "velocity": 71}, {"time": 1132, "pitch": 50, "duration": 16, "velocity": 111}, {"time": 1132, "pitch": 57, "duration": 2, "velocity": 97}, {"time": 1132, "pitch": 62, "duration": 6, "velocity": 89}, {"time": 1138, "pitch": 57, "duration": 4, "velocity": 52}, {"time": 1141, "pitch": 66, "duration": 6, "velocity": 116}, {"time": 1147, "pitch": 62, "duration": 3, "velocity": 82}, {"time": 1150, "pitch": 57, "duration": 2, "velocity": 84}, {"time": 1156, "pitch": 43, "duration": 43, "velocity": 100}, {"time": 1156, "pitch": 55, "duration": 4, "velocity": 76}, {"time": 1156, "pitch": 59, "duration": 7, "velocity": 92}, {"time": 1159, "pitch": 50, "duration": 4, "velocity": 57}, {"time": 1162, "pitch": 55, "duration": 4, "velocity": 78}, {"time": 1165, "pitch": 50, "duration": 4, "velocity": 64}, {"time": 1168, "pitch": 55, "duration": 3, "velocity": 87}, {"time": 1168, "pitch": 59, "duration": 7, "velocity": 89}, {"time": 1171, "pitch": 50, "duration": 4, "velocity": 60}, {"time": 1174, "pitch": 55, "duration": 10, "velocity": 87}, {"time": 1177, "pitch": 50, "duration": 4, "velocity": 97}, {"time": 1180, "pitch": 59, "duration": 8, "velocity": 97}, {"time": 1183, "pitch": 50, "duration": 4, "velocity": 73}, {"time": 1186, "pitch": 55, "duration": 4, "velocity": 67}, {"time": 1189, "pitch": 50, "duration": 3, "velocity": 69}, {"time": 1192, "pitch": 59, "duration": 6, "velocity": 94}, {"time": 1192, "pitch": 62, "duration": 4, "velocity": 87}, {"time": 1195, "pitch": 50, "duration": 5, "velocity": 78}, {"time": 1198, "pitch": 55, "duration": 8, "velocity": 84}, {"time": 1201, "pitch": 59, "duration": 6, "velocity": 62}, {"time": 1204, "pitch": 43, "duration": 22, "velocity": 102}, {"time": 1207, "pitch": 50, "duration": 4, "velocity": 51}, {"time": 1210, "pitch": 59, "duration": 4, "velocity": 73}, {"time": 1213, "pitch": 50, "duration": 4, "velocity": 47}, {"time": 1216, "pitch": 59, "duration": 4, "velocity": 87}, {"time": 1216, "pitch": 62, "duration": 6, "velocity": 78}, {"time": 1219, "pitch": 50, "duration": 8, "velocity": 69}, {"time": 1222, "pitch": 55, "duration": 8, "velocity": 66}, {"time": 1222, "pitch": 59, "duration": 1, "velocity": 2}, {"time": 1225, "pitch": 59, "duration": 7, "velocity": 82}, {"time": 1228, "pitch": 43, "duration": 22, "velocity": 82}, {"time": 1231, "pitch": 50, "duration": 4, "velocity": 58}, {"time": 1234, "pitch": 59, "duration": 3, "velocity": 73}, {"time": 1234, "pitch": 62, "duration": 4, "velocity": 76}, {"time": 1237, "pitch": 50, "duration": 4, "velocity": 41}, {"time": 1237, "pitch": 55, "duration": 3, "velocity": 58}, {"time": 1240, "pitch": 59, "duration": 5, "velocity": 80}, {"time": 1240, "pitch": 62, "duration": 6, "velocity": 80}, {"time": 1240, "pitch": 65, "duration": 4, "velocity": 92}, {"time": 1243, "pitch": 55, "duration": 4, "velocity": 69}, {"time": 1246, "pitch": 50, "duration": 4, "velocity": 62}, {"time": 1249, "pitch": 55, "duration": 6, "velocity": 92}, {"time": 1252, "pitch": 43, "duration": 22, "velocity": 102}, {"time": 1255, "pitch": 50, "duration": 5, "velocity": 42}, {"time": 1258, "pitch": 59, "duration": 3, "velocity": 80}, {"time": 1258, "pitch": 62, "duration": 4, "velocity": 55}, {"time": 1261, "pitch": 55, "duration": 2, "velocity": 48}, {"time": 1264, "pitch": 59, "duration": 6, "velocity": 100}, {"time": 1264, "pitch": 62, "duration": 6, "velocity": 94}, {"time": 1267, "pitch": 50, "duration": 8, "velocity": 76}, {"time": 1270, "pitch": 55, "duration": 10, "velocity": 82}, {"time": 1273, "pitch": 59, "duration": 9, "velocity": 73}, {"time": 1273, "pitch": 62, "duration": 13, "velocity": 69}, {"time": 1276, "pitch": 43, "duration": 22, "velocity": 94}, {"time": 1279, "pitch": 50, "duration": 13, "velocity": 62}, {"time": 1282, "pitch": 55, "duration": 5, "velocity": 84}, {"time": 1285, "pitch": 59, "duration": 2, "velocity": 87}, {"time": 1288, "pitch": 55, "duration": 1, "velocity": 60}, {"time": 1288, "pitch": 59, "duration": 3, "velocity": 87}, {"time": 1288, "pitch": 62, "duration": 5, "velocity": 78}, {"time": 1288, "pitch": 65, "duration": 6, "velocity": 94}, {"time": 1291, "pitch": 55, "duration": 3, "velocity": 80}, {"time": 1294, "pitch": 50, "duration": 4, "velocity": 55}, {"time": 1297, "pitch": 55, "duration": 5, "velocity": 73}, {"time": 1300, "pitch": 43, "duration": 34, "velocity": 94}, {"time": 1303, "pitch": 50, "duration": 11, "velocity": 42}, {"time": 1306, "pitch": 59, "duration": 3, "velocity": 82}, {"time": 1306, "pitch": 62, "duration": 4, "velocity": 73}, {"time": 1309, "pitch": 55, "duration": 2, "velocity": 73}, {"time": 1312, "pitch": 55, "duration": 2, "velocity": 100}, {"time": 1312, "pitch": 59, "duration": 3, "velocity": 102}, {"time": 1312, "pitch": 62, "duration": 4, "velocity": 94}, {"time": 1315, "pitch": 50, "duration": 4, "velocity": 78}, {"time": 1318, "pitch": 55, "duration": 5, "velocity": 108}, {"time": 1318, "pitch": 59, "duration": 4, "velocity": 111}, {"time": 1318, "pitch": 62, "duration": 5, "velocity": 102}, {"time": 1321, "pitch": 50, "duration": 4, "velocity": 100}, {"time": 1324, "pitch": 55, "duration": 3, "velocity": 97}, {"time": 1324, "pitch": 59, "duration": 4, "velocity": 102}, {"time": 1324, "pitch": 62, "duration": 4, "velocity": 94}, {"time": 1327, "pitch": 50, "duration": 5, "velocity": 82}, {"time": 1330, "pitch": 55, "duration": 1, "velocity": 76}, {"time": 1330, "pitch": 59, "duration": 4, "velocity": 114}, {"time": 1330, "pitch": 62, "duration": 4, "velocity": 102}, {"time": 1333, "pitch": 55, "duration": 2, "velocity": 89}, {"time": 1336, "pitch": 43, "duration": 31, "velocity": 100}, {"time": 1336, "pitch": 50, "duration": 31, "velocity": 80}, {"time": 1336, "pitch": 55, "duration": 34, "velocity": 87}, {"time": 1336, "pitch": 59, "duration": 34, "velocity": 97}, {"time": 1336, "pitch": 62, "duration": 34, "velocity": 89}, {"time": 1336, "pitch": 67, "duration": 34, "velocity": 84}, {"time": 1372, "pitch": 43, "duration": 22, "velocity": 101}, {"time": 1375, "pitch": 50, "duration": 6, "velocity": 71}, {"time": 1378, "pitch": 57, "duration": 3, "velocity": 96}, {"time": 1381, "pitch": 59, "duration": 8, "velocity": 109}, {"time": 1384, "pitch": 50, "duration": 10, "velocity": 56}, {"time": 1387, "pitch": 55, "duration": 3, "velocity": 67}, {"time": 1390, "pitch": 62, "duration": 15, "velocity": 109}, {"time": 1393, "pitch": 55, "duration": 6, "velocity": 80}, {"time": 1396, "pitch": 43, "duration": 21, "velocity": 94}, {"time": 1399, "pitch": 50, "duration": 7, "velocity": 59}, {"time": 1402, "pitch": 55, "duration": 3, "velocity": 37}, {"time": 1405, "pitch": 57, "duration": 6, "velocity": 106}, {"time": 1408, "pitch": 50, "duration": 4, "velocity": 47}, {"time": 1411, "pitch": 59, "duration": 9, "velocity": 106}, {"time": 1414, "pitch": 50, "duration": 3, "velocity": 24}, {"time": 1417, "pitch": 55, "duration": 2, "velocity": 85}, {"time": 1420, "pitch": 45, "duration": 22, "velocity": 96}, {"time": 1423, "pitch": 52, "duration": 7, "velocity": 74}, {"time": 1426, "pitch": 55, "duration": 2, "velocity": 61}, {"time": 1429, "pitch": 60, "duration": 6, "velocity": 106}, {"time": 1432, "pitch": 52, "duration": 12, "velocity": 76}, {"time": 1435, "pitch": 57, "duration": 3, "velocity": 89}, {"time": 1438, "pitch": 60, "duration": 7, "velocity": 94}, {"time": 1441, "pitch": 64, "duration": 7, "velocity": 101}, {"time": 1444, "pitch": 45, "duration": 18, "velocity": 87}, {"time": 1447, "pitch": 52, "duration": 7, "velocity": 67}, {"time": 1450, "pitch": 57, "duration": 3, "velocity": 69}, {"time": 1453, "pitch": 67, "duration": 7, "velocity": 91}, {"time": 1456, "pitch": 52, "duration": 5, "velocity": 82}, {"time": 1459, "pitch": 57, "duration": 4, "velocity": 94}, {"time": 1462, "pitch": 60, "duration": 5, "velocity": 96}, {"time": 1465, "pitch": 57, "duration": 4, "velocity": 99}, {"time": 1468, "pitch": 50, "duration": 22, "velocity": 100}, {"time": 1471, "pitch": 57, "duration": 12, "velocity": 87}, {"time": 1474, "pitch": 60, "duration": 4, "velocity": 100}, {"time": 1477, "pitch": 66, "duration": 13, "velocity": 102}, {"time": 1483, "pitch": 54, "duration": 8, "velocity": 8}, {"time": 1486, "pitch": 57, "duration": 6, "velocity": 89}, {"time": 1489, "pitch": 60, "duration": 6, "velocity": 105}, {"time": 1492, "pitch": 50, "duration": 19, "velocity": 71}, {"time": 1495, "pitch": 57, "duration": 9, "velocity": 66}, {"time": 1498, "pitch": 60, "duration": 8, "velocity": 80}, {"time": 1501, "pitch": 66, "duration": 9, "velocity": 116}, {"time": 1504, "pitch": 54, "duration": 6, "velocity": 10}, {"time": 1507, "pitch": 57, "duration": 3, "velocity": 94}, {"time": 1510, "pitch": 60, "duration": 4, "velocity": 94}, {"time": 1513, "pitch": 66, "duration": 3, "velocity": 93}, {"time": 1516, "pitch": 43, "duration": 22, "velocity": 97}, {"time": 1519, "pitch": 50, "duration": 7, "velocity": 51}, {"time": 1522, "pitch": 55, "duration": 4, "velocity": 73}, {"time": 1525, "pitch": 62, "duration": 6, "velocity": 100}, {"time": 1528, "pitch": 50, "duration": 12, "velocity": 50}, {"time": 1531, "pitch": 55, "duration": 6, "velocity": 84}, {"time": 1534, "pitch": 62, "duration": 13, "velocity": 84}, {"time": 1537, "pitch": 67, "duration": 21, "velocity": 100}, {"time": 1540, "pitch": 43, "duration": 22, "velocity": 80}, {"time": 1543, "pitch": 50, "duration": 7, "velocity": 52}, {"time": 1546, "pitch": 55, "duration": 6, "velocity": 97}, {"time": 1549, "pitch": 62, "duration": 7, "velocity": 100}, {"time": 1552, "pitch": 50, "duration": 10, "velocity": 58}, {"time": 1555, "pitch": 55, "duration": 7, "velocity": 82}, {"time": 1558, "pitch": 62, "duration": 13, "velocity": 78}, {"time": 1561, "pitch": 67, "duration": 12, "velocity": 92}, {"time": 1564, "pitch": 43, "duration": 46, "velocity": 102}, {"time": 1567, "pitch": 50, "duration": 7, "velocity": 57}, {"time": 1570, "pitch": 55, "duration": 4, "velocity": 76}, {"time": 1573, "pitch": 62, "duration": 7, "velocity": 87}, {"time": 1576, "pitch": 50, "duration": 10, "velocity": 50}, {"time": 1579, "pitch": 55, "duration": 5, "velocity": 57}, {"time": 1582, "pitch": 62, "duration": 12, "velocity": 76}, {"time": 1585, "pitch": 67, "duration": 12, "velocity": 108}, {"time": 1591, "pitch": 50, "duration": 6, "velocity": 66}, {"time": 1594, "pitch": 55, "duration": 6, "velocity": 80}, {"time": 1597, "pitch": 62, "duration": 7, "velocity": 102}, {"time": 1600, "pitch": 50, "duration": 11, "velocity": 62}, {"time": 1603, "pitch": 55, "duration": 5, "velocity": 80}, {"time": 1606, "pitch": 62, "duration": 6, "velocity": 84}, {"time": 1609, "pitch": 67, "duration": 11, "velocity": 97}, {"time": 1612, "pitch": 45, "duration": 22, "velocity": 100}, {"time": 1615, "pitch": 52, "duration": 6, "velocity": 64}, {"time": 1618, "pitch": 60, "duration": 5, "velocity": 87}, {"time": 1621, "pitch": 57, "duration": 7, "velocity": 92}, {"time": 1624, "pitch": 52, "duration": 5, "velocity": 69}, {"time": 1627, "pitch": 64, "duration": 17, "velocity": 78}, {"time": 1630, "pitch": 52, "duration": 5, "velocity": 73}, {"time": 1633, "pitch": 57, "duration": 6, "velocity": 84}, {"time": 1636, "pitch": 45, "duration": 23, "velocity": 100}, {"time": 1639, "pitch": 52, "duration": 7, "velocity": 71}, {"time": 1642, "pitch": 57, "duration": 4, "velocity": 73}, {"time": 1645, "pitch": 60, "duration": 6, "velocity": 108}, {"time": 1648, "pitch": 52, "duration": 10, "velocity": 67}, {"time": 1651, "pitch": 57, "duration": 4, "velocity": 87}, {"time": 1654, "pitch": 60, "duration": 3, "velocity": 105}, {"time": 1657, "pitch": 57, "duration": 4, "velocity": 100}, {"time": 1660, "pitch": 50, "duration": 22, "velocity": 105}, {"time": 1663, "pitch": 57, "duration": 6, "velocity": 69}, {"time": 1666, "pitch": 60, "duration": 3, "velocity": 67}, {"time": 1669, "pitch": 66, "duration": 9, "velocity": 102}, {"time": 1672, "pitch": 60, "duration": 3, "velocity": 92}, {"time": 1675, "pitch": 57, "duration": 7, "velocity": 76}, {"time": 1678, "pitch": 62, "duration": 4, "velocity": 67}, {"time": 1681, "pitch": 66, "duration": 9, "velocity": 105}, {"time": 1684, "pitch": 50, "duration": 23, "velocity": 94}, {"time": 1687, "pitch": 57, "duration": 7, "velocity": 66}, {"time": 1690, "pitch": 62, "duration": 3, "velocity": 66}, {"time": 1693, "pitch": 66, "duration": 7, "velocity": 109}, {"time": 1696, "pitch": 62, "duration": 10, "velocity": 78}, {"time": 1699, "pitch": 57, "duration": 3, "velocity": 66}, {"time": 1702, "pitch": 67, "duration": 8, "velocity": 92}, {"time": 1705, "pitch": 57, "duration": 3, "velocity": 53}, {"time": 1708, "pitch": 43, "duration": 22, "velocity": 97}, {"time": 1711, "pitch": 50, "duration": 7, "velocity": 60}, {"time": 1714, "pitch": 55, "duration": 4, "velocity": 92}, {"time": 1717, "pitch": 62, "duration": 6, "velocity": 105}, {"time": 1720, "pitch": 50, "duration": 11, "velocity": 69}, {"time": 1723, "pitch": 59, "duration": 5, "velocity": 80}, {"time": 1726, "pitch": 67, "duration": 21, "velocity": 100}, {"time": 1729, "pitch": 55, "duration": 7, "velocity": 80}, {"time": 1732, "pitch": 43, "duration": 22, "velocity": 100}, {"time": 1735, "pitch": 50, "duration": 7, "velocity": 66}, {"time": 1738, "pitch": 55, "duration": 9, "velocity": 62}, {"time": 1741, "pitch": 59, "duration": 6, "velocity": 102}, {"time": 1744, "pitch": 50, "duration": 9, "velocity": 82}, {"time": 1747, "pitch": 62, "duration": 7, "velocity": 102}, {"time": 1750, "pitch": 59, "duration": 4, "velocity": 102}, {"time": 1753, "pitch": 55, "duration": 3, "velocity": 105}, {"time": 1756, "pitch": 52, "duration": 20, "velocity": 117}, {"time": 1759, "pitch": 64, "duration": 4, "velocity": 94}, {"time": 1762, "pitch": 59, "duration": 4, "velocity": 94}, {"time": 1765, "pitch": 67, "duration": 6, "velocity": 105}, {"time": 1771, "pitch": 64, "duration": 4, "velocity": 97}, {"time": 1774, "pitch": 59, "duration": 4, "velocity": 105}, {"time": 1777, "pitch": 67, "duration": 6, "velocity": 87}, {"time": 1780, "pitch": 47, "duration": 21, "velocity": 102}, {"time": 1783, "pitch": 62, "duration": 6, "velocity": 82}, {"time": 1786, "pitch": 54, "duration": 7, "velocity": 57}, {"time": 1789, "pitch": 59, "duration": 4, "velocity": 84}, {"time": 1792, "pitch": 66, "duration": 9, "velocity": 105}, {"time": 1795, "pitch": 54, "duration": 4, "velocity": 85}, {"time": 1798, "pitch": 62, "duration": 3, "velocity": 84}, {"time": 1801, "pitch": 59, "duration": 2, "velocity": 97}, {"time": 1804, "pitch": 45, "duration": 11, "velocity": 100}, {"time": 1804, "pitch": 60, "duration": 6, "velocity": 87}, {"time": 1807, "pitch": 52, "duration": 7, "velocity": 66}, {"time": 1810, "pitch": 57, "duration": 4, "velocity": 102}, {"time": 1813, "pitch": 60, "duration": 3, "velocity": 108}, {"time": 1816, "pitch": 50, "duration": 11, "velocity": 100}, {"time": 1816, "pitch": 62, "duration": 4, "velocity": 100}, {"time": 1819, "pitch": 57, "duration": 4, "velocity": 92}, {"time": 1822, "pitch": 62, "duration": 4, "velocity": 84}, {"time": 1825, "pitch": 66, "duration": 4, "velocity": 99}, {"time": 1828, "pitch": 43, "duration": 23, "velocity": 105}, {"time": 1831, "pitch": 50, "duration": 7, "velocity": 69}, {"time": 1834, "pitch": 55, "duration": 4, "velocity": 87}, {"time": 1837, "pitch": 62, "duration": 7, "velocity": 111}, {"time": 1840, "pitch": 50, "duration": 11, "velocity": 73}, {"time": 1843, "pitch": 59, "duration": 3, "velocity": 100}, {"time": 1846, "pitch": 55, "duration": 5, "velocity": 100}, {"time": 1849, "pitch": 59, "duration": 3, "velocity": 105}, {"time": 1852, "pitch": 45, "duration": 22, "velocity": 100}, {"time": 1852, "pitch": 60, "duration": 7, "velocity": 105}, {"time": 1855, "pitch": 52, "duration": 6, "velocity": 73}, {"time": 1858, "pitch": 57, "duration": 7, "velocity": 100}, {"time": 1861, "pitch": 64, "duration": 6, "velocity": 97}, {"time": 1864, "pitch": 52, "duration": 11, "velocity": 60}, {"time": 1867, "pitch": 60, "duration": 3, "velocity": 94}, {"time": 1870, "pitch": 57, "duration": 7, "velocity": 108}, {"time": 1873, "pitch": 60, "duration": 9, "velocity": 114}, {"time": 1876, "pitch": 45, "duration": 22, "velocity": 94}, {"time": 1879, "pitch": 52, "duration": 7, "velocity": 69}, {"time": 1882, "pitch": 57, "duration": 4, "velocity": 89}, {"time": 1885, "pitch": 60, "duration": 9, "velocity": 111}, {"time": 1891, "pitch": 52, "duration": 7, "velocity": 78}, {"time": 1894, "pitch": 57, "duration": 6, "velocity": 105}, {"time": 1897, "pitch": 60, "duration": 4, "velocity": 94}, {"time": 1900, "pitch": 50, "duration": 21, "velocity": 105}, {"time": 1903, "pitch": 62, "duration": 4, "velocity": 102}, {"time": 1906, "pitch": 57, "duration": 4, "velocity": 94}, {"time": 1909, "pitch": 66, "duration": 14, "velocity": 102}, {"time": 1915, "pitch": 62, "duration": 4, "velocity": 100}, {"time": 1918, "pitch": 57, "duration": 9, "velocity": 89}, {"time": 1921, "pitch": 62, "duration": 4, "velocity": 78}, {"time": 1924, "pitch": 50, "duration": 19, "velocity": 111}, {"time": 1927, "pitch": 62, "duration": 4, "velocity": 84}, {"time": 1930, "pitch": 57, "duration": 4, "velocity": 102}, {"time": 1933, "pitch": 62, "duration": 7, "velocity": 111}, {"time": 1939, "pitch": 57, "duration": 3, "velocity": 84}, {"time": 1942, "pitch": 62, "duration": 4, "velocity": 84}, {"time": 1945, "pitch": 57, "duration": 1, "velocity": 100}, {"time": 1948, "pitch": 48, "duration": 22, "velocity": 114}, {"time": 1948, "pitch": 55, "duration": 3, "velocity": 100}, {"time": 1948, "pitch": 60, "duration": 4, "velocity": 97}, {"time": 1951, "pitch": 55, "duration": 4, "velocity": 73}, {"time": 1954, "pitch": 60, "duration": 2, "velocity": 76}, {"time": 1957, "pitch": 55, "duration": 4, "velocity": 108}, {"time": 1957, "pitch": 60, "duration": 6, "velocity": 117}, {"time": 1957, "pitch": 64, "duration": 9, "velocity": 108}, {"time": 1963, "pitch": 55, "duration": 6, "velocity": 45}, {"time": 1966, "pitch": 60, "duration": 6, "velocity": 80}, {"time": 1969, "pitch": 64, "duration": 7, "velocity": 80}, {"time": 1972, "pitch": 48, "duration": 19, "velocity": 108}, {"time": 1975, "pitch": 60, "duration": 4, "velocity": 78}, {"time": 1978, "pitch": 55, "duration": 9, "velocity": 84}, {"time": 1981, "pitch": 60, "duration": 4, "velocity": 111}, {"time": 1981, "pitch": 64, "duration": 12, "velocity": 102}, {"time": 1987, "pitch": 60, "duration": 4, "velocity": 82}, {"time": 1990, "pitch": 55, "duration": 2, "velocity": 64}, {"time": 1996, "pitch": 47, "duration": 23, "velocity": 102}, {"time": 1996, "pitch": 59, "duration": 4, "velocity": 94}, {"time": 1996, "pitch": 62, "duration": 6, "velocity": 82}, {"time": 1999, "pitch": 54, "duration": 6, "velocity": 93}, {"time": 2002, "pitch": 59, "duration": 2, "velocity": 89}, {"time": 2005, "pitch": 59, "duration": 4, "velocity": 92}, {"time": 2005, "pitch": 66, "duration": 7, "velocity": 109}, {"time": 2008, "pitch": 54, "duration": 6, "velocity": 65}, {"time": 2011, "pitch": 59, "duration": 4, "velocity": 87}, {"time": 2011, "pitch": 62, "duration": 13, "velocity": 100}, {"time": 2017, "pitch": 59, "duration": 5, "velocity": 62}, {"time": 2020, "pitch": 52, "duration": 20, "velocity": 114}, {"time": 2023, "pitch": 59, "duration": 3, "velocity": 94}, {"time": 2026, "pitch": 64, "duration": 7, "velocity": 87}, {"time": 2029, "pitch": 59, "duration": 3, "velocity": 71}, {"time": 2032, "pitch": 67, "duration": 14, "velocity": 114}, {"time": 2035, "pitch": 59, "duration": 4, "velocity": 80}, {"time": 2038, "pitch": 64, "duration": 4, "velocity": 76}, {"time": 2041, "pitch": 59, "duration": 2, "velocity": 84}, {"time": 2044, "pitch": 45, "duration": 22, "velocity": 108}, {"time": 2044, "pitch": 57, "duration": 3, "velocity": 97}, {"time": 2044, "pitch": 60, "duration": 7, "velocity": 92}, {"time": 2047, "pitch": 52, "duration": 7, "velocity": 71}, {"time": 2050, "pitch": 57, "duration": 3, "velocity": 78}, {"time": 2053, "pitch": 57, "duration": 3, "velocity": 31}, {"time": 2053, "pitch": 64, "duration": 9, "velocity": 102}, {"time": 2056, "pitch": 52, "duration": 11, "velocity": 71}, {"time": 2059, "pitch": 57, "duration": 3, "velocity": 94}, {"time": 2062, "pitch": 60, "duration": 3, "velocity": 100}, {"time": 2065, "pitch": 57, "duration": 1, "velocity": 92}, {"time": 2068, "pitch": 47, "duration": 20, "velocity": 97}, {"time": 2068, "pitch": 59, "duration": 2, "velocity": 100}, {"time": 2068, "pitch": 62, "duration": 6, "velocity": 102}, {"time": 2071, "pitch": 50, "duration": 4, "velocity": 87}, {"time": 2074, "pitch": 59, "duration": 4, "velocity": 100}, {"time": 2077, "pitch": 66, "duration": 14, "velocity": 109}, {"time": 2080, "pitch": 54, "duration": 8, "velocity": 93}, {"time": 2083, "pitch": 62, "duration": 4, "velocity": 111}, {"time": 2086, "pitch": 59, "duration": 5, "velocity": 114}, {"time": 2089, "pitch": 47, "duration": 1, "velocity": 108}, {"time": 2092, "pitch": 50, "duration": 11, "velocity": 117}, {"time": 2092, "pitch": 57, "duration": 4, "velocity": 94}, {"time": 2092, "pitch": 60, "duration": 7, "velocity": 102}, {"time": 2092, "pitch": 65, "duration": 11, "velocity": 94}, {"time": 2098, "pitch": 57, "duration": 4, "velocity": 80}, {"time": 2101, "pitch": 60, "duration": 2, "velocity": 97}, {"time": 2104, "pitch": 43, "duration": 9, "velocity": 105}, {"time": 2104, "pitch": 55, "duration": 6, "velocity": 89}, {"time": 2104, "pitch": 59, "duration": 10, "velocity": 114}, {"time": 2110, "pitch": 50, "duration": 4, "velocity": 97}, {"time": 2113, "pitch": 55, "duration": 3, "velocity": 82}, {"time": 2116, "pitch": 43, "duration": 21, "velocity": 102}, {"time": 2116, "pitch": 55, "duration": 4, "velocity": 97}, {"time": 2116, "pitch": 62, "duration": 6, "velocity": 80}, {"time": 2116, "pitch": 65, "duration": 6, "velocity": 97}, {"time": 2119, "pitch": 50, "duration": 7, "velocity": 87}, {"time": 2122, "pitch": 55, "duration": 1, "velocity": 92}, {"time": 2125, "pitch": 55, "duration": 4, "velocity": 117}, {"time": 2125, "pitch": 59, "duration": 7, "velocity": 123}, {"time": 2125, "pitch": 62, "duration": 8, "velocity": 117}, {"time": 2125, "pitch": 65, "duration": 8, "velocity": 105}, {"time": 2128, "pitch": 50, "duration": 7, "velocity": 89}, {"time": 2131, "pitch": 55, "duration": 4, "velocity": 84}, {"time": 2134, "pitch": 59, "duration": 5, "velocity": 120}, {"time": 2137, "pitch": 50, "duration": 3, "velocity": 108}, {"time": 2140, "pitch": 48, "duration": 21, "velocity": 117}, {"time": 2143, "pitch": 60, "duration": 4, "velocity": 97}, {"time": 2146, "pitch": 55, "duration": 4, "velocity": 102}, {"time": 2149, "pitch": 64, "duration": 5, "velocity": 111}, {"time": 2155, "pitch": 55, "duration": 2, "velocity": 89}, {"time": 2155, "pitch": 60, "duration": 3, "velocity": 97}, {"time": 2158, "pitch": 55, "duration": 4, "velocity": 62}, {"time": 2161, "pitch": 60, "duration": 2, "velocity": 94}, {"time": 2164, "pitch": 50, "duration": 11, "velocity": 105}, {"time": 2164, "pitch": 57, "duration": 2, "velocity": 92}, {"time": 2164, "pitch": 62, "duration": 6, "velocity": 89}, {"time": 2170, "pitch": 57, "duration": 2, "velocity": 84}, {"time": 2173, "pitch": 57, "duration": 4, "velocity": 100}, {"time": 2173, "pitch": 62, "duration": 3, "velocity": 76}, {"time": 2173, "pitch": 66, "duration": 13, "velocity": 102}, {"time": 2176, "pitch": 50, "duration": 8, "velocity": 92}, {"time": 2179, "pitch": 62, "duration": 4, "velocity": 102}, {"time": 2182, "pitch": 57, "duration": 3, "velocity": 82}, {"time": 2188, "pitch": 47, "duration": 19, "velocity": 105}, {"time": 2188, "pitch": 59, "duration": 4, "velocity": 92}, {"time": 2188, "pitch": 62, "duration": 6, "velocity": 89}, {"time": 2191, "pitch": 54, "duration": 6, "velocity": 85}, {"time": 2194, "pitch": 59, "duration": 1, "velocity": 58}, {"time": 2197, "pitch": 59, "duration": 4, "velocity": 108}, {"time": 2197, "pitch": 66, "duration": 6, "velocity": 109}, {"time": 2200, "pitch": 54, "duration": 4, "velocity": 74}, {"time": 2203, "pitch": 62, "duration": 3, "velocity": 105}, {"time": 2206, "pitch": 59, "duration": 6, "velocity": 67}, {"time": 2212, "pitch": 46, "duration": 14, "velocity": 105}, {"time": 2215, "pitch": 58, "duration": 4, "velocity": 70}, {"time": 2218, "pitch": 61, "duration": 2, "velocity": 93}, {"time": 2221, "pitch": 58, "duration": 5, "velocity": 79}, {"time": 2221, "pitch": 61, "duration": 4, "velocity": 96}, {"time": 2221, "pitch": 64, "duration": 5, "velocity": 108}, {"time": 2227, "pitch": 58, "duration": 3, "velocity": 90}, {"time": 2227, "pitch": 61, "duration": 9, "velocity": 99}, {"time": 2227, "pitch": 64, "duration": 16, "velocity": 102}, {"time": 2230, "pitch": 46, "duration": 2, "velocity": 28}, {"time": 2233, "pitch": 58, "duration": 3, "velocity": 79}, {"time": 2236, "pitch": 45, "duration": 22, "velocity": 102}, {"time": 2239, "pitch": 52, "duration": 6, "velocity": 67}, {"time": 2242, "pitch": 55, "duration": 7, "velocity": 94}, {"time": 2245, "pitch": 60, "duration": 6, "velocity": 114}, {"time": 2248, "pitch": 52, "duration": 10, "velocity": 84}, {"time": 2251, "pitch": 55, "duration": 3, "velocity": 87}, {"time": 2254, "pitch": 64, "duration": 4, "velocity": 89}, {"time": 2260, "pitch": 50, "duration": 21, "velocity": 111}, {"time": 2260, "pitch": 59, "duration": 2, "velocity": 76}, {"time": 2260, "pitch": 62, "duration": 4, "velocity": 92}, {"time": 2263, "pitch": 59, "duration": 4, "velocity": 66}, {"time": 2266, "pitch": 62, "duration": 2, "velocity": 51}, {"time": 2269, "pitch": 59, "duration": 4, "velocity": 82}, {"time": 2269, "pitch": 62, "duration": 5, "velocity": 94}, {"time": 2269, "pitch": 66, "duration": 13, "velocity": 109}, {"time": 2275, "pitch": 62, "duration": 4, "velocity": 76}, {"time": 2278, "pitch": 59, "duration": 4, "velocity": 82}, {"time": 2281, "pitch": 62, "duration": 1, "velocity": 69}, {"time": 2284, "pitch": 48, "duration": 19, "velocity": 105}, {"time": 2284, "pitch": 55, "duration": 2, "velocity": 97}, {"time": 2284, "pitch": 60, "duration": 4, "velocity": 102}, {"time": 2287, "pitch": 55, "duration": 4, "velocity": 60}, {"time": 2290, "pitch": 60, "duration": 2, "velocity": 80}, {"time": 2293, "pitch": 64, "duration": 6, "velocity": 114}, {"time": 2299, "pitch": 60, "duration": 4, "velocity": 97}, {"time": 2302, "pitch": 55, "duration": 4, "velocity": 71}, {"time": 2308, "pitch": 50, "duration": 16, "velocity": 111}, {"time": 2308, "pitch": 57, "duration": 2, "velocity": 97}, {"time": 2308, "pitch": 62, "duration": 6, "velocity": 89}, {"time": 2314, "pitch": 57, "duration": 4, "velocity": 52}, {"time": 2317, "pitch": 66, "duration": 6, "velocity": 116}, {"time": 2323, "pitch": 62, "duration": 3, "velocity": 82}, {"time": 2326, "pitch": 57, "duration": 2, "velocity": 84}, {"time": 2332, "pitch": 43, "duration": 22, "velocity": 97}, {"time": 2332, "pitch": 55, "duration": 4, "velocity": 80}, {"time": 2332, "pitch": 59, "duration": 7, "velocity": 89}, {"time": 2335, "pitch": 50, "duration": 8, "velocity": 48}, {"time": 2338, "pitch": 55, "duration": 5, "velocity": 51}, {"time": 2341, "pitch": 60, "duration": 10, "velocity": 67}, {"time": 2347, "pitch": 50, "duration": 8, "velocity": 60}, {"time": 2350, "pitch": 55, "duration": 9, "velocity": 69}, {"time": 2353, "pitch": 59, "duration": 7, "velocity": 114}, {"time": 2356, "pitch": 43, "duration": 22, "velocity": 100}, {"time": 2359, "pitch": 50, "duration": 7, "velocity": 71}, {"time": 2362, "pitch": 55, "duration": 1, "velocity": 82}, {"time": 2365, "pitch": 55, "duration": 6, "velocity": 92}, {"time": 2365, "pitch": 59, "duration": 9, "velocity": 111}, {"time": 2365, "pitch": 62, "duration": 10, "velocity": 97}, {"time": 2365, "pitch": 67, "duration": 9, "velocity": 82}, {"time": 2371, "pitch": 50, "duration": 8, "velocity": 80}, {"time": 2374, "pitch": 55, "duration": 5, "velocity": 57}, {"time": 2377, "pitch": 59, "duration": 3, "velocity": 102}, {"time": 2380, "pitch": 48, "duration": 22, "velocity": 114}, {"time": 2380, "pitch": 55, "duration": 3, "velocity": 100}, {"time": 2380, "pitch": 60, "duration": 4, "velocity": 97}, {"time": 2383, "pitch": 55, "duration": 4, "velocity": 73}, {"time": 2386, "pitch": 60, "duration": 2, "velocity": 76}, {"time": 2389, "pitch": 55, "duration": 4, "velocity": 108}, {"time": 2389, "pitch": 60, "duration": 6, "velocity": 117}, {"time": 2389, "pitch": 64, "duration": 9, "velocity": 108}, {"time": 2395, "pitch": 55, "duration": 6, "velocity": 45}, {"time": 2398, "pitch": 60, "duration": 6, "velocity": 80}, {"time": 2401, "pitch": 64, "duration": 7, "velocity": 80}, {"time": 2404, "pitch": 48, "duration": 19, "velocity": 108}, {"time": 2407, "pitch": 60, "duration": 4, "velocity": 78}, {"time": 2410, "pitch": 55, "duration": 9, "velocity": 84}, {"time": 2413, "pitch": 60, "duration": 4, "velocity": 111}, {"time": 2413, "pitch": 64, "duration": 12, "velocity": 102}, {"time": 2419, "pitch": 60, "duration": 4, "velocity": 82}, {"time": 2422, "pitch": 55, "duration": 2, "velocity": 64}, {"time": 2428, "pitch": 47, "duration": 23, "velocity": 102}, {"time": 2428, "pitch": 59, "duration": 4, "velocity": 94}, {"time": 2428, "pitch": 62, "duration": 6, "velocity": 82}, {"time": 2431, "pitch": 54, "duration": 6, "velocity": 93}, {"time": 2434, "pitch": 59, "duration": 2, "velocity": 89}, {"time": 2437, "pitch": 59, "duration": 4, "velocity": 92}, {"time": 2437, "pitch": 66, "duration": 7, "velocity": 109}, {"time": 2440, "pitch": 54, "duration": 6, "velocity": 65}, {"time": 2443, "pitch": 59, "duration": 4, "velocity": 87}, {"time": 2443, "pitch": 62, "duration": 13, "velocity": 100}, {"time": 2449, "pitch": 59, "duration": 5, "velocity": 62}, {"time": 2452, "pitch": 52, "duration": 20, "velocity": 114}, {"time": 2455, "pitch": 59, "duration": 3, "velocity": 94}, {"time": 2458, "pitch": 64, "duration": 7, "velocity": 87}, {"time": 2461, "pitch": 59, "duration": 3, "velocity": 71}, {"time": 2464, "pitch": 67, "duration": 14, "velocity": 114}, {"time": 2467, "pitch": 59, "duration": 4, "velocity": 80}, {"time": 2470, "pitch": 64, "duration": 4, "velocity": 76}, {"time": 2473, "pitch": 59, "duration": 2, "velocity": 84}, {"time": 2476, "pitch": 45, "duration": 22, "velocity": 108}, {"time": 2476, "pitch": 57, "duration": 3, "velocity": 97}, {"time": 2476, "pitch": 60, "duration": 7, "velocity": 92}, {"time": 2479, "pitch": 52, "duration": 7, "velocity": 71}, {"time": 2482, "pitch": 57, "duration": 3, "velocity": 78}, {"time": 2485, "pitch": 57, "duration": 3, "velocity": 31}, {"time": 2485, "pitch": 64, "duration": 9, "velocity": 102}, {"time": 2488, "pitch": 52, "duration": 11, "velocity": 71}, {"time": 2491, "pitch": 57, "duration": 3, "velocity": 94}, {"time": 2494, "pitch": 60, "duration": 3, "velocity": 100}, {"time": 2497, "pitch": 57, "duration": 1, "velocity": 92}, {"time": 2500, "pitch": 47, "duration": 20, "velocity": 97}, {"time": 2500, "pitch": 59, "duration": 2, "velocity": 100}, {"time": 2500, "pitch": 62, "duration": 6, "velocity": 102}, {"time": 2503, "pitch": 50, "duration": 4, "velocity": 87}, {"time": 2506, "pitch": 59, "duration": 4, "velocity": 100}, {"time": 2509, "pitch": 66, "duration": 14, "velocity": 109}, {"time": 2512, "pitch": 54, "duration": 8, "velocity": 93}, {"time": 2515, "pitch": 62, "duration": 4, "velocity": 111}, {"time": 2518, "pitch": 59, "duration": 5, "velocity": 114}, {"time": 2521, "pitch": 47, "duration": 1, "velocity": 108}, {"time": 2524, "pitch": 50, "duration": 11, "velocity": 117}, {"time": 2524, "pitch": 57, "duration": 4, "velocity": 94}, {"time": 2524, "pitch": 60, "duration": 7, "velocity": 102}, {"time": 2524, "pitch": 65, "duration": 11, "velocity": 94}, {"time": 2530, "pitch": 57, "duration": 4, "velocity": 80}, {"time": 2533, "pitch": 60, "duration": 2, "velocity": 97}, {"time": 2536, "pitch": 43, "duration": 9, "velocity": 105}, {"time": 2536, "pitch": 55, "duration": 6, "velocity": 89}, {"time": 2536, "pitch": 59, "duration": 10, "velocity": 114}, {"time": 2542, "pitch": 50, "duration": 4, "velocity": 97}, {"time": 2545, "pitch": 55, "duration": 3, "velocity": 82}, {"time": 2548, "pitch": 43, "duration": 21, "velocity": 102}, {"time": 2548, "pitch": 55, "duration": 4, "velocity": 97}, {"time": 2548, "pitch": 62, "duration": 6, "velocity": 80}, {"time": 2548, "pitch": 65, "duration": 6, "velocity": 97}, {"time": 2551, "pitch": 50, "duration": 7, "velocity": 87}, {"time": 2554, "pitch": 55, "duration": 1, "velocity": 92}, {"time": 2557, "pitch": 55, "duration": 4, "velocity": 117}, {"time": 2557, "pitch": 59, "duration": 7, "velocity": 123}, {"time": 2557, "pitch": 62, "duration": 8, "velocity": 117}, {"time": 2557, "pitch": 65, "duration": 8, "velocity": 105}, {"time": 2560, "pitch": 50, "duration": 7, "velocity": 89}, {"time": 2563, "pitch": 55, "duration": 4, "velocity": 84}, {"time": 2566, "pitch": 59, "duration": 5, "velocity": 120}, {"time": 2569, "pitch": 50, "duration": 3, "velocity": 108}, {"time": 2572, "pitch": 48, "duration": 21, "velocity": 117}, {"time": 2575, "pitch": 60, "duration": 4, "velocity": 97}, {"time": 2578, "pitch": 55, "duration": 4, "velocity": 102}, {"time": 2581, "pitch": 64, "duration": 5, "velocity": 111}, {"time": 2587, "pitch": 55, "duration": 2, "velocity": 89}, {"time": 2587, "pitch": 60, "duration": 3, "velocity": 97}, {"time": 2590, "pitch": 55, "duration": 4, "velocity": 62}, {"time": 2593, "pitch": 60, "duration": 2, "velocity": 94}, {"time": 2596, "pitch": 50, "duration": 11, "velocity": 105}, {"time": 2596, "pitch": 57, "duration": 2, "velocity": 92}, {"time": 2596, "pitch": 62, "duration": 6, "velocity": 89}, {"time": 2602, "pitch": 57, "duration": 2, "velocity": 84}, {"time": 2605, "pitch": 57, "duration": 4, "velocity": 100}, {"time": 2605, "pitch": 62, "duration": 3, "velocity": 76}, {"time": 2605, "pitch": 66, "duration": 13, "velocity": 102}, {"time": 2608, "pitch": 50, "duration": 8, "velocity": 92}, {"time": 2611, "pitch": 62, "duration": 4, "velocity": 102}, {"time": 2614, "pitch": 57, "duration": 3, "velocity": 82}, {"time": 2620, "pitch": 47, "duration": 19, "velocity": 105}, {"time": 2620, "pitch": 59, "duration": 4, "velocity": 92}, {"time": 2620, "pitch": 62, "duration": 6, "velocity": 89}, {"time": 2623, "pitch": 54, "duration": 6, "velocity": 85}, {"time": 2626, "pitch": 59, "duration": 1, "velocity": 58}, {"time": 2629, "pitch": 59, "duration": 4, "velocity": 108}, {"time": 2629, "pitch": 66, "duration": 6, "velocity": 109}, {"time": 2632, "pitch": 54, "duration": 4, "velocity": 74}, {"time": 2635, "pitch": 62, "duration": 3, "velocity": 105}, {"time": 2638, "pitch": 59, "duration": 6, "velocity": 67}, {"time": 2644, "pitch": 46, "duration": 14, "velocity": 105}, {"time": 2647, "pitch": 58, "duration": 4, "velocity": 70}, {"time": 2650, "pitch": 61, "duration": 2, "velocity": 93}, {"time": 2653, "pitch": 58, "duration": 5, "velocity": 79}, {"time": 2653, "pitch": 61, "duration": 4, "velocity": 96}, {"time": 2653, "pitch": 64, "duration": 5, "velocity": 108}, {"time": 2659, "pitch": 58, "duration": 3, "velocity": 90}, {"time": 2659, "pitch": 61, "duration": 9, "velocity": 99}, {"time": 2659, "pitch": 64, "duration": 16, "velocity": 102}, {"time": 2662, "pitch": 46, "duration": 2, "velocity": 28}, {"time": 2665, "pitch": 58, "duration": 3, "velocity": 79}, {"time": 2668, "pitch": 45, "duration": 22, "velocity": 102}, {"time": 2671, "pitch": 52, "duration": 6, "velocity": 67}, {"time": 2674, "pitch": 55, "duration": 7, "velocity": 94}, {"time": 2677, "pitch": 60, "duration": 6, "velocity": 114}, {"time": 2680, "pitch": 52, "duration": 10, "velocity": 84}, {"time": 2683, "pitch": 55, "duration": 3, "velocity": 87}, {"time": 2686, "pitch": 64, "duration": 4, "velocity": 89}, {"time": 2692, "pitch": 50, "duration": 21, "velocity": 111}, {"time": 2692, "pitch": 59, "duration": 2, "velocity": 76}, {"time": 2692, "pitch": 62, "duration": 4, "velocity": 92}, {"time": 2695, "pitch": 59, "duration": 4, "velocity": 66}, {"time": 2698, "pitch": 62, "duration": 2, "velocity": 51}, {"time": 2701, "pitch": 59, "duration": 4, "velocity": 82}, {"time": 2701, "pitch": 62, "duration": 5, "velocity": 94}, {"time": 2701, "pitch": 66, "duration": 13, "velocity": 109}, {"time": 2707, "pitch": 62, "duration": 4, "velocity": 76}, {"time": 2710, "pitch": 59, "duration": 4, "velocity": 82}, {"time": 2713, "pitch": 62, "duration": 1, "velocity": 69}, {"time": 2716, "pitch": 48, "duration": 19, "velocity": 105}, {"time": 2716, "pitch": 55, "duration": 2, "velocity": 97}, {"time": 2716, "pitch": 60, "duration": 4, "velocity": 102}, {"time": 2719, "pitch": 55, "duration": 4, "velocity": 60}, {"time": 2722, "pitch": 60, "duration": 2, "velocity": 80}, {"time": 2725, "pitch": 64, "duration": 6, "velocity": 114}, {"time": 2731, "pitch": 60, "duration": 4, "velocity": 97}, {"time": 2734, "pitch": 55, "duration": 4, "velocity": 71}, {"time": 2740, "pitch": 50, "duration": 16, "velocity": 111}, {"time": 2740, "pitch": 57, "duration": 2, "velocity": 97}, {"time": 2740, "pitch": 62, "duration": 6, "velocity": 89}, {"time": 2746, "pitch": 57, "duration": 4, "velocity": 52}, {"time": 2749, "pitch": 66, "duration": 6, "velocity": 116}, {"time": 2755, "pitch": 62, "duration": 3, "velocity": 82}, {"time": 2758, "pitch": 57, "duration": 2, "velocity": 84}, {"time": 2765, "pitch": 43, "duration": 23, "velocity": 102}, {"time": 2768, "pitch": 50, "duration": 7, "velocity": 38}, {"time": 2771, "pitch": 55, "duration": 5, "velocity": 64}, {"time": 2774, "pitch": 60, "duration": 4, "velocity": 102}, {"time": 2777, "pitch": 59, "duration": 4, "velocity": 92}, {"time": 2781, "pitch": 55, "duration": 4, "velocity": 100}, {"time": 2784, "pitch": 50, "duration": 6, "velocity": 82}, {"time": 2787, "pitch": 55, "duration": 10, "velocity": 73}, {"time": 2790, "pitch": 43, "duration": 25, "velocity": 92}, {"time": 2797, "pitch": 50, "duration": 18, "velocity": 58}, {"time": 2800, "pitch": 55, "duration": 7, "velocity": 82}, {"time": 2803, "pitch": 62, "duration": 12, "velocity": 97}, {"time": 2810, "pitch": 55, "duration": 5, "velocity": 97}, {"time": 2815, "pitch": 60, "duration": 6, "velocity": 44}, {"time": 2816, "pitch": 67, "duration": 9, "velocity": 82}, {"time": 2817, "pitch": 48, "duration": 14, "velocity": 92}, {"time": 2820, "pitch": 55, "duration": 11, "velocity": 60}, {"time": 2824, "pitch": 60, "duration": 5, "velocity": 57}, {"time": 2828, "pitch": 72, "duration": 27, "velocity": 92}, {"time": 2831, "pitch": 60, "duration": 5, "velocity": 58}, {"time": 2835, "pitch": 67, "duration": 20, "velocity": 67}, {"time": 2864, "pitch": 50, "duration": 26, "velocity": 27}, {"time": 2865, "pitch": 54, "duration": 3, "velocity": 40}, {"time": 2866, "pitch": 57, "duration": 24, "velocity": 73}, {"time": 2866, "pitch": 62, "duration": 24, "velocity": 53}, {"time": 2868, "pitch": 66, "duration": 22, "velocity": 52}, {"time": 2869, "pitch": 69, "duration": 21, "velocity": 53}, {"time": 2896, "pitch": 43, "duration": 11, "velocity": 91}, {"time": 2896, "pitch": 55, "duration": 2, "velocity": 73}, {"time": 2896, "pitch": 67, "duration": 7, "velocity": 96}, {"time": 2899, "pitch": 50, "duration": 8, "velocity": 89}, {"time": 2902, "pitch": 59, "duration": 5, "velocity": 91}, {"time": 2905, "pitch": 60, "duration": 8, "velocity": 89}, {"time": 2908, "pitch": 43, "duration": 11, "velocity": 89}, {"time": 2911, "pitch": 50, "duration": 8, "velocity": 80}, {"time": 2914, "pitch": 59, "duration": 4, "velocity": 99}, {"time": 2917, "pitch": 60, "duration": 9, "velocity": 96}, {"time": 2920, "pitch": 43, "duration": 10, "velocity": 91}, {"time": 2923, "pitch": 50, "duration": 7, "velocity": 78}, {"time": 2926, "pitch": 59, "duration": 4, "velocity": 104}, {"time": 2929, "pitch": 60, "duration": 9, "velocity": 99}, {"time": 2932, "pitch": 43, "duration": 11, "velocity": 106}, {"time": 2935, "pitch": 50, "duration": 8, "velocity": 93}, {"time": 2938, "pitch": 57, "duration": 3, "velocity": 93}, {"time": 2941, "pitch": 60, "duration": 3, "velocity": 106}, {"time": 2944, "pitch": 43, "duration": 11, "velocity": 91}, {"time": 2944, "pitch": 55, "duration": 2, "velocity": 73}, {"time": 2944, "pitch": 67, "duration": 7, "velocity": 96}, {"time": 2947, "pitch": 50, "duration": 8, "velocity": 89}, {"time": 2950, "pitch": 59, "duration": 5, "velocity": 91}, {"time": 2953, "pitch": 60, "duration": 8, "velocity": 89}, {"time": 2956, "pitch": 43, "duration": 11, "velocity": 89}, {"time": 2959, "pitch": 50, "duration": 8, "velocity": 80}, {"time": 2962, "pitch": 59, "duration": 4, "velocity": 99}, {"time": 2965, "pitch": 60, "duration": 9, "velocity": 96}, {"time": 2968, "pitch": 43, "duration": 10, "velocity": 91}, {"time": 2971, "pitch": 50, "duration": 7, "velocity": 78}, {"time": 2974, "pitch": 59, "duration": 4, "velocity": 104}, {"time": 2977, "pitch": 60, "duration": 9, "velocity": 99}, {"time": 2980, "pitch": 43, "duration": 11, "velocity": 106}, {"time": 2983, "pitch": 50, "duration": 8, "velocity": 93}, {"time": 2986, "pitch": 57, "duration": 3, "velocity": 93}, {"time": 2989, "pitch": 60, "duration": 3, "velocity": 106}, {"time": 2992, "pitch": 59, "duration": 46, "velocity": 89}, {"time": 2992, "pitch": 43, "duration": 45, "velocity": 99}, {"time": 2992, "pitch": 55, "duration": 46, "velocity": 73}], "annotations": [{"time": 199, "annotation": {"number": 64, "value": 127}, "group": "control_change"}, {"time": 219, "annotation": {"number": 64, "value": 0}, "group": "control_change"}, {"time": 230, "annotation": {"number": 64, "value": 127}, "group": "control_change"}, {"time": 243, "annotation": {"number": 64, "value": 0}, "group": "control_change"}, {"time": 249, "annotation": {"number": 64, "value": 127}, "group": "control_change"}, {"time": 267, "annotation": {"number": 64, "value": 0}, "group": "control_change"}, {"time": 271, "annotation": {"number": 64, "value": 127}, "group": "control_change"}, {"time": 291, "annotation": {"number": 64, "value": 0}, "group": "control_change"}, {"time": 293, "annotation": {"number": 64, "value": 127}, "group": "control_change"}, {"time": 315, "annotation": {"number": 64, "value": 0}, "group": "control_change"}, {"time": 318, "annotation": {"number": 64, "value": 127}, "group": "control_change"}, {"time": 338, "annotation": {"number": 64, "value": 0}, "group": "control_change"}, {"time": 342, "annotation": {"number": 64, "value": 127}, "group": "control_change"}, {"time": 368, "annotation": {"number": 64, "value": 0}, "group": "control_change"}, {"time": 371, "annotation": {"number": 64, "value": 127}, "group": "control_change"}, {"time": 386, "annotation": {"number": 64, "value": 0}, "group": "control_change"}, {"time": 394, "annotation": {"number": 64, "value": 127}, "group": "control_change"}, {"time": 411, "annotation": {"number": 64, "value": 0}, "group": "control_change"}, {"time": 420, "annotation": {"number": 64, "value": 127}, "group": "control_change"}, {"time": 435, "annotation": {"number": 64, "value": 0}, "group": "control_change"}, {"time": 441, "annotation": {"number": 64, "value": 127}, "group": "control_change"}, {"time": 460, "annotation": {"number": 64, "value": 0}, "group": "control_change"}, {"time": 463, "annotation": {"number": 64, "value": 127}, "group": "control_change"}, {"time": 484, "annotation": {"number": 64, "value": 0}, "group": "control_change"}, {"time": 486, "annotation": {"number": 64, "value": 127}, "group": "control_change"}, {"time": 508, "annotation": {"number": 64, "value": 0}, "group": "control_change"}, {"time": 510, "annotation": {"number": 64, "value": 127}, "group": "control_change"}, {"time": 531, "annotation": {"number": 64, "value": 0}, "group": "control_change"}, {"time": 536, "annotation": {"number": 64, "value": 127}, "group": "control_change"}, {"time": 556, "annotation": {"number": 64, "value": 0}, "group": "control_change"}, {"time": 559, "annotation": {"number": 64, "value": 127}, "group": "control_change"}, {"time": 579, "annotation": {"number": 64, "value": 0}, "group": "control_change"}, {"time": 584, "annotation": {"number": 64, "value": 127}, "group": "control_change"}, {"time": 588, "annotation": {"number": 64, "value": 0}, "group": "control_change"}, {"time": 590, "annotation": {"number": 64, "value": 127}, "group": "control_change"}, {"time": 603, "annotation": {"number": 64, "value": 0}, "group": "control_change"}, {"time": 607, "annotation": {"number": 64, "value": 127}, "group": "control_change"}, {"time": 628, "annotation": {"number": 64, "value": 0}, "group": "control_change"}, {"time": 632, "annotation": {"number": 64, "value": 127}, "group": "control_change"}, {"time": 639, "annotation": {"number": 64, "value": 0}, "group": "control_change"}, {"time": 642, "annotation": {"number": 64, "value": 127}, "group": "control_change"}, {"time": 651, "annotation": {"number": 64, "value": 0}, "group": "control_change"}, {"time": 657, "annotation": {"number": 64, "value": 127}, "group": "control_change"}, {"time": 676, "annotation": {"number": 64, "value": 0}, "group": "control_change"}, {"time": 682, "annotation": {"number": 64, "value": 127}, "group": "control_change"}, {"time": 699, "annotation": {"number": 64, "value": 0}, "group": "control_change"}, {"time": 705, "annotation": {"number": 64, "value": 127}, "group": "control_change"}, {"time": 723, "annotation": {"number": 64, "value": 0}, "group": "control_change"}, {"time": 727, "annotation": {"number": 64, "value": 127}, "group": "control_change"}, {"time": 758, "annotation": {"number": 64, "value": 0}, "group": "control_change"}, {"time": 760, "annotation": {"number": 64, "value": 127}, "group": "control_change"}, {"time": 771, "annotation": {"number": 64, "value": 0}, "group": "control_change"}, {"time": 774, "annotation": {"number": 64, "value": 127}, "group": "control_change"}, {"time": 796, "annotation": {"number": 64, "value": 0}, "group": "control_change"}, {"time": 798, "annotation": {"number": 64, "value": 127}, "group": "control_change"}, {"time": 820, "annotation": {"number": 64, "value": 0}, "group": "control_change"}, {"time": 823, "annotation": {"number": 64, "value": 127}, "group": "control_change"}, {"time": 844, "annotation": {"number": 64, "value": 0}, "group": "control_change"}, {"time": 846, "annotation": {"number": 64, "value": 127}, "group": "control_change"}, {"time": 867, "annotation": {"number": 64, "value": 0}, "group": "control_change"}, {"time": 872, "annotation": {"number": 64, "value": 127}, "group": "control_change"}, {"time": 892, "annotation": {"number": 64, "value": 0}, "group": "control_change"}, {"time": 894, "annotation": {"number": 64, "value": 127}, "group": "control_change"}, {"time": 906, "annotation": {"number": 64, "value": 0}, "group": "control_change"}, {"time": 910, "annotation": {"number": 64, "value": 127}, "group": "control_change"}, {"time": 916, "annotation": {"number": 64, "value": 0}, "group": "control_change"}, {"time": 933, "annotation": {"number": 64, "value": 127}, "group": "control_change"}, {"time": 939, "annotation": {"number": 64, "value": 0}, "group": "control_change"}, {"time": 942, "annotation": {"number": 64, "value": 127}, "group": "control_change"}, {"time": 944, "annotation": {"number": 64, "value": 127}, "group": "control_change"}, {"time": 962, "annotation": {"number": 64, "value": 0}, "group": "control_change"}, {"time": 963, "annotation": {"number": 64, "value": 0}, "group": "control_change"}, {"time": 967, "annotation": {"number": 64, "value": 127}, "group": "control_change"}, {"time": 987, "annotation": {"number": 64, "value": 0}, "group": "control_change"}, {"time": 990, "annotation": {"number": 64, "value": 127}, "group": "control_change"}, {"time": 1012, "annotation": {"number": 64, "value": 0}, "group": "control_change"}, {"time": 1014, "annotation": {"number": 64, "value": 127}, "group": "control_change"}, {"time": 1035, "annotation": {"number": 64, "value": 0}, "group": "control_change"}, {"time": 1039, "annotation": {"number": 64, "value": 127}, "group": "control_change"}, {"time": 1060, "annotation": {"number": 64, "value": 0}, "group": "control_change"}, {"time": 1063, "annotation": {"number": 64, "value": 127}, "group": "control_change"}, {"time": 1084, "annotation": {"number": 64, "value": 0}, "group": "control_change"}, {"time": 1087, "annotation": {"number": 64, "value": 127}, "group": "control_change"}, {"time": 1108, "annotation": {"number": 64, "value": 0}, "group": "control_change"}, {"time": 1111, "annotation": {"number": 64, "value": 127}, "group": "control_change"}, {"time": 1132, "annotation": {"number": 64, "value": 0}, "group": "control_change"}, {"time": 1135, "annotation": {"number": 64, "value": 127}, "group": "control_change"}, {"time": 1156, "annotation": {"number": 64, "value": 0}, "group": "control_change"}, {"time": 1161, "annotation": {"number": 64, "value": 127}, "group": "control_change"}, {"time": 1181, "annotation": {"number": 64, "value": 0}, "group": "control_change"}, {"time": 1184, "annotation": {"number": 64, "value": 127}, "group": "control_change"}, {"time": 1203, "annotation": {"number": 64, "value": 0}, "group": "control_change"}, {"time": 1206, "annotation": {"number": 64, "value": 127}, "group": "control_change"}, {"time": 1227, "annotation": {"number": 64, "value": 0}, "group": "control_change"}, {"time": 1229, "annotation": {"number": 64, "value": 127}, "group": "control_change"}, {"time": 1251, "annotation": {"number": 64, "value": 0}, "group": "control_change"}, {"time": 1254, "annotation": {"number": 64, "value": 127}, "group": "control_change"}, {"time": 1275, "annotation": {"number": 64, "value": 0}, "group": "control_change"}, {"time": 1284, "annotation": {"number": 64, "value": 127}, "group": "control_change"}, {"time": 1300, "annotation": {"number": 64, "value": 0}, "group": "control_change"}, {"time": 1302, "annotation": {"number": 64, "value": 127}, "group": "control_change"}, {"time": 1319, "annotation": {"number": 64, "value": 0}, "group": "control_change"}, {"time": 1321, "annotation": {"number": 64, "value": 127}, "group": "control_change"}, {"time": 1338, "annotation": {"number": 64, "value": 0}, "group": "control_change"}, {"time": 1375, "annotation": {"number": 64, "value": 127}, "group": "control_change"}, {"time": 1395, "annotation": {"number": 64, "value": 0}, "group": "control_change"}, {"time": 1406, "annotation": {"number": 64, "value": 127}, "group": "control_change"}, {"time": 1419, "annotation": {"number": 64, "value": 0}, "group": "control_change"}, {"time": 1425, "annotation": {"number": 64, "value": 127}, "group": "control_change"}, {"time": 1443, "annotation": {"number": 64, "value": 0}, "group": "control_change"}, {"time": 1447, "annotation": {"number": 64, "value": 127}, "group": "control_change"}, {"time": 1467, "annotation": {"number": 64, "value": 0}, "group": "control_change"}, {"time": 1469, "annotation": {"number": 64, "value": 127}, "group": "control_change"}, {"time": 1491, "annotation": {"number": 64, "value": 0}, "group": "control_change"}, {"time": 1494, "annotation": {"number": 64, "value": 127}, "group": "control_change"}, {"time": 1514, "annotation": {"number": 64, "value": 0}, "group": "control_change"}, {"time": 1518, "annotation": {"number": 64, "value": 127}, "group": "control_change"}, {"time": 1544, "annotation": {"number": 64, "value": 0}, "group": "control_change"}, {"time": 1547, "annotation": {"number": 64, "value": 127}, "group": "control_change"}, {"time": 1562, "annotation": {"number": 64, "value": 0}, "group": "control_change"}, {"time": 1570, "annotation": {"number": 64, "value": 127}, "group": "control_change"}, {"time": 1587, "annotation": {"number": 64, "value": 0}, "group": "control_change"}, {"time": 1596, "annotation": {"number": 64, "value": 127}, "group": "control_change"}, {"time": 1611, "annotation": {"number": 64, "value": 0}, "group": "control_change"}, {"time": 1617, "annotation": {"number": 64, "value": 127}, "group": "control_change"}, {"time": 1636, "annotation": {"number": 64, "value": 0}, "group": "control_change"}, {"time": 1639, "annotation": {"number": 64, "value": 127}, "group": "control_change"}, {"time": 1660, "annotation": {"number": 64, "value": 0}, "group": "control_change"}, {"time": 1662, "annotation": {"number": 64, "value": 127}, "group": "control_change"}, {"time": 1684, "annotation": {"number": 64, "value": 0}, "group": "control_change"}, {"time": 1686, "annotation": {"number": 64, "value": 127}, "group": "control_change"}, {"time": 1707, "annotation": {"number": 64, "value": 0}, "group": "control_change"}, {"time": 1712, "annotation": {"number": 64, "value": 127}, "group": "control_change"}, {"time": 1732, "annotation": {"number": 64, "value": 0}, "group": "control_change"}, {"time": 1735, "annotation": {"number": 64, "value": 127}, "group": "control_change"}, {"time": 1755, "annotation": {"number": 64, "value": 0}, "group": "control_change"}, {"time": 1760, "annotation": {"number": 64, "value": 127}, "group": "control_change"}, {"time": 1764, "annotation": {"number": 64, "value": 0}, "group": "control_change"}, {"time": 1766, "annotation": {"number": 64, "value": 127}, "group": "control_change"}, {"time": 1779, "annotation": {"number": 64, "value": 0}, "group": "control_change"}, {"time": 1783, "annotation": {"number": 64, "value": 127}, "group": "control_change"}, {"time": 1804, "annotation": {"number": 64, "value": 0}, "group": "control_change"}, {"time": 1808, "annotation": {"number": 64, "value": 127}, "group": "control_change"}, {"time": 1815, "annotation": {"number": 64, "value": 0}, "group": "control_change"}, {"time": 1818, "annotation": {"number": 64, "value": 127}, "group": "control_change"}, {"time": 1827, "annotation": {"number": 64, "value": 0}, "group": "control_change"}, {"time": 1833, "annotation": {"number": 64, "value": 127}, "group": "control_change"}, {"time": 1852, "annotation": {"number": 64, "value": 0}, "group": "control_change"}, {"time": 1858, "annotation": {"number": 64, "value": 127}, "group": "control_change"}, {"time": 1875, "annotation": {"number": 64, "value": 0}, "group": "control_change"}, {"time": 1881, "annotation": {"number": 64, "value": 127}, "group": "control_change"}, {"time": 1899, "annotation": {"number": 64, "value": 0}, "group": "control_change"}, {"time": 1903, "annotation": {"number": 64, "value": 127}, "group": "control_change"}, {"time": 1934, "annotation": {"number": 64, "value": 0}, "group": "control_change"}, {"time": 1936, "annotation": {"number": 64, "value": 127}, "group": "control_change"}, {"time": 1947, "annotation": {"number": 64, "value": 0}, "group": "control_change"}, {"time": 1950, "annotation": {"number": 64, "value": 127}, "group": "control_change"}, {"time": 1972, "annotation": {"number": 64, "value": 0}, "group": "control_change"}, {"time": 1974, "annotation": {"number": 64, "value": 127}, "group": "control_change"}, {"time": 1996, "annotation": {"number": 64, "value": 0}, "group": "control_change"}, {"time": 1999, "annotation": {"number": 64, "value": 127}, "group": "control_change"}, {"time": 2020, "annotation": {"number": 64, "value": 0}, "group": "control_change"}, {"time": 2022, "annotation": {"number": 64, "value": 127}, "group": "control_change"}, {"time": 2043, "annotation": {"number": 64, "value": 0}, "group": "control_change"}, {"time": 2048, "annotation": {"number": 64, "value": 127}, "group": "control_change"}, {"time": 2068, "annotation": {"number": 64, "value": 0}, "group": "control_change"}, {"time": 2070, "annotation": {"number": 64, "value": 127}, "group": "control_change"}, {"time": 2082, "annotation": {"number": 64, "value": 0}, "group": "control_change"}, {"time": 2086, "annotation": {"number": 64, "value": 127}, "group": "control_change"}, {"time": 2092, "annotation": {"number": 64, "value": 0}, "group": "control_change"}, {"time": 2109, "annotation": {"number": 64, "value": 127}, "group": "control_change"}, {"time": 2115, "annotation": {"number": 64, "value": 0}, "group": "control_change"}, {"time": 2118, "annotation": {"number": 64, "value": 127}, "group": "control_change"}, {"time": 2120, "annotation": {"number": 64, "value": 127}, "group": "control_change"}, {"time": 2138, "annotation": {"number": 64, "value": 0}, "group": "control_change"}, {"time": 2139, "annotation": {"number": 64, "value": 0}, "group": "control_change"}, {"time": 2143, "annotation": {"number": 64, "value": 127}, "group": "control_change"}, {"time": 2163, "annotation": {"number": 64, "value": 0}, "group": "control_change"}, {"time": 2166, "annotation": {"number": 64, "value": 127}, "group": "control_change"}, {"time": 2188, "annotation": {"number": 64, "value": 0}, "group": "control_change"}, {"time": 2190, "annotation": {"number": 64, "value": 127}, "group": "control_change"}, {"time": 2211, "annotation": {"number": 64, "value": 0}, "group": "control_change"}, {"time": 2215, "annotation": {"number": 64, "value": 127}, "group": "control_change"}, {"time": 2236, "annotation": {"number": 64, "value": 0}, "group": "control_change"}, {"time": 2239, "annotation": {"number": 64, "value": 127}, "group": "control_change"}, {"time": 2260, "annotation": {"number": 64, "value": 0}, "group": "control_change"}, {"time": 2263, "annotation": {"number": 64, "value": 127}, "group": "control_change"}, {"time": 2284, "annotation": {"number": 64, "value": 0}, "group": "control_change"}, {"time": 2287, "annotation": {"number": 64, "value": 127}, "group": "control_change"}, {"time": 2308, "annotation": {"number": 64, "value": 0}, "group": "control_change"}, {"time": 2311, "annotation": {"number": 64, "value": 127}, "group": "control_change"}, {"time": 2332, "annotation": {"number": 64, "value": 0}, "group": "control_change"}, {"time": 2336, "annotation": {"number": 64, "value": 127}, "group": "control_change"}, {"time": 2355, "annotation": {"number": 64, "value": 0}, "group": "control_change"}, {"time": 2357, "annotation": {"number": 64, "value": 127}, "group": "control_change"}, {"time": 2378, "annotation": {"number": 64, "value": 0}, "group": "control_change"}, {"time": 2382, "annotation": {"number": 64, "value": 127}, "group": "control_change"}, {"time": 2404, "annotation": {"number": 64, "value": 0}, "group": "control_change"}, {"time": 2406, "annotation": {"number": 64, "value": 127}, "group": "control_change"}, {"time": 2428, "annotation": {"number": 64, "value": 0}, "group": "control_change"}, {"time": 2431, "annotation": {"number": 64, "value": 127}, "group": "control_change"}, {"time": 2452, "annotation": {"number": 64, "value": 0}, "group": "control_change"}, {"time": 2454, "annotation": {"number": 64, "value": 127}, "group": "control_change"}, {"time": 2475, "annotation": {"number": 64, "value": 0}, "group": "control_change"}, {"time": 2480, "annotation": {"number": 64, "value": 127}, "group": "control_change"}, {"time": 2500, "annotation": {"number": 64, "value": 0}, "group": "control_change"}, {"time": 2502, "annotation": {"number": 64, "value": 127}, "group": "control_change"}, {"time": 2514, "annotation": {"number": 64, "value": 0}, "group": "control_change"}, {"time": 2518, "annotation": {"number": 64, "value": 127}, "group": "control_change"}, {"time": 2524, "annotation": {"number": 64, "value": 0}, "group": "control_change"}, {"time": 2541, "annotation": {"number": 64, "value": 127}, "group": "control_change"}, {"time": 2547, "annotation": {"number": 64, "value": 0}, "group": "control_change"}, {"time": 2550, "annotation": {"number": 64, "value": 127}, "group": "control_change"}, {"time": 2552, "annotation": {"number": 64, "value": 127}, "group": "control_change"}, {"time": 2570, "annotation": {"number": 64, "value": 0}, "group": "control_change"}, {"time": 2571, "annotation": {"number": 64, "value": 0}, "group": "control_change"}, {"time": 2575, "annotation": {"number": 64, "value": 127}, "group": "control_change"}, {"time": 2595, "annotation": {"number": 64, "value": 0}, "group": "control_change"}, {"time": 2598, "annotation": {"number": 64, "value": 127}, "group": "control_change"}, {"time": 2620, "annotation": {"number": 64, "value": 0}, "group": "control_change"}, {"time": 2622, "annotation": {"number": 64, "value": 127}, "group": "control_change"}, {"time": 2643, "annotation": {"number": 64, "value": 0}, "group": "control_change"}, {"time": 2647, "annotation": {"number": 64, "value": 127}, "group": "control_change"}, {"time": 2668, "annotation": {"number": 64, "value": 0}, "group": "control_change"}, {"time": 2671, "annotation": {"number": 64, "value": 127}, "group": "control_change"}, {"time": 2692, "annotation": {"number": 64, "value": 0}, "group": "control_change"}, {"time": 2695, "annotation": {"number": 64, "value": 127}, "group": "control_change"}, {"time": 2716, "annotation": {"number": 64, "value": 0}, "group": "control_change"}, {"time": 2719, "annotation": {"number": 64, "value": 127}, "group": "control_change"}, {"time": 2740, "annotation": {"number": 64, "value": 0}, "group": "control_change"}, {"time": 2743, "annotation": {"number": 64, "value": 127}, "group": "control_change"}, {"time": 2764, "annotation": {"number": 64, "value": 0}, "group": "control_change"}, {"time": 2773, "annotation": {"number": 64, "value": 127}, "group": "control_change"}, {"time": 2802, "annotation": {"number": 64, "value": 0}, "group": "control_change"}, {"time": 2824, "annotation": {"number": 64, "value": 127}, "group": "control_change"}, {"time": 2866, "annotation": {"number": 64, "value": 0}, "group": "control_change"}]}]}