{"metadata": {"schema_version": "0.2", "title": "None", "source_filename": "114.mid", "source_format": "midi"}, "resolution": 12, "tempos": [{"time": 0, "qpm": 64.0}, {"time": 363, "qpm": 65.00013541694878}, {"time": 456, "qpm": 64.0}, {"time": 4222, "qpm": 77.00017581706811}, {"time": 4248, "qpm": 75.0}, {"time": 4255, "qpm": 71.00011951686785}, {"time": 4284, "qpm": 68.00014960032912}], "time_signatures": [{"time": 0, "numerator": 1, "denominator": 4}], "tracks": [{"program": 0, "is_drum": false, "name": "MELODY", "notes": [{"time": 461, "pitch": 71, "duration": 2, "velocity": 97}, {"time": 464, "pitch": 71, "duration": 2, "velocity": 105}, {"time": 467, "pitch": 71, "duration": 5, "velocity": 108}, {"time": 473, "pitch": 75, "duration": 5, "velocity": 105}, {"time": 479, "pitch": 73, "duration": 5, "velocity": 108}, {"time": 485, "pitch": 73, "duration": 2, "velocity": 89}, {"time": 488, "pitch": 73, "duration": 5, "velocity": 102}, {"time": 494, "pitch": 71, "duration": 5, "velocity": 108}, {"time": 503, "pitch": 73, "duration": 5, "velocity": 108}, {"time": 509, "pitch": 73, "duration": 4, "velocity": 105}, {"time": 515, "pitch": 73, "duration": 3, "velocity": 105}, {"time": 518, "pitch": 71, "duration": 3, "velocity": 87}, {"time": 521, "pitch": 68, "duration": 31, "velocity": 97}, {"time": 557, "pitch": 70, "duration": 2, "velocity": 97}, {"time": 560, "pitch": 70, "duration": 2, "velocity": 111}, {"time": 563, "pitch": 70, "duration": 5, "velocity": 111}, {"time": 569, "pitch": 71, "duration": 2, "velocity": 105}, {"time": 572, "pitch": 73, "duration": 9, "velocity": 108}, {"time": 581, "pitch": 70, "duration": 5, "velocity": 111}, {"time": 587, "pitch": 68, "duration": 2, "velocity": 108}, {"time": 590, "pitch": 66, "duration": 9, "velocity": 92}, {"time": 599, "pitch": 63, "duration": 37, "velocity": 105}, {"time": 653, "pitch": 75, "duration": 2, "velocity": 102}, {"time": 656, "pitch": 73, "duration": 2, "velocity": 89}, {"time": 659, "pitch": 75, "duration": 4, "velocity": 102}, {"time": 665, "pitch": 75, "duration": 2, "velocity": 100}, {"time": 668, "pitch": 73, "duration": 8, "velocity": 111}, {"time": 677, "pitch": 73, "duration": 5, "velocity": 102}, {"time": 683, "pitch": 71, "duration": 10, "velocity": 102}, {"time": 695, "pitch": 73, "duration": 5, "velocity": 111}, {"time": 701, "pitch": 68, "duration": 4, "velocity": 111}, {"time": 707, "pitch": 68, "duration": 2, "velocity": 105}, {"time": 710, "pitch": 73, "duration": 8, "velocity": 105}, {"time": 719, "pitch": 71, "duration": 25, "velocity": 73}, {"time": 749, "pitch": 70, "duration": 2, "velocity": 89}, {"time": 752, "pitch": 70, "duration": 2, "velocity": 94}, {"time": 755, "pitch": 70, "duration": 5, "velocity": 108}, {"time": 761, "pitch": 71, "duration": 2, "velocity": 100}, {"time": 764, "pitch": 73, "duration": 8, "velocity": 108}, {"time": 773, "pitch": 73, "duration": 5, "velocity": 105}, {"time": 779, "pitch": 70, "duration": 2, "velocity": 108}, {"time": 782, "pitch": 66, "duration": 9, "velocity": 100}, {"time": 791, "pitch": 63, "duration": 34, "velocity": 97}, {"time": 839, "pitch": 78, "duration": 7, "velocity": 117}, {"time": 848, "pitch": 73, "duration": 8, "velocity": 114}, {"time": 857, "pitch": 75, "duration": 5, "velocity": 111}, {"time": 863, "pitch": 78, "duration": 9, "velocity": 114}, {"time": 872, "pitch": 73, "duration": 8, "velocity": 105}, {"time": 881, "pitch": 71, "duration": 6, "velocity": 92}, {"time": 887, "pitch": 68, "duration": 43, "velocity": 114}, {"time": 935, "pitch": 73, "duration": 7, "velocity": 108}, {"time": 944, "pitch": 68, "duration": 7, "velocity": 111}, {"time": 953, "pitch": 75, "duration": 5, "velocity": 114}, {"time": 959, "pitch": 73, "duration": 9, "velocity": 108}, {"time": 968, "pitch": 71, "duration": 8, "velocity": 100}, {"time": 977, "pitch": 71, "duration": 6, "velocity": 100}, {"time": 983, "pitch": 66, "duration": 43, "velocity": 111}, {"time": 1031, "pitch": 78, "duration": 7, "velocity": 117}, {"time": 1040, "pitch": 73, "duration": 8, "velocity": 114}, {"time": 1049, "pitch": 75, "duration": 5, "velocity": 111}, {"time": 1055, "pitch": 78, "duration": 9, "velocity": 114}, {"time": 1064, "pitch": 73, "duration": 8, "velocity": 105}, {"time": 1073, "pitch": 71, "duration": 6, "velocity": 92}, {"time": 1079, "pitch": 68, "duration": 43, "velocity": 114}, {"time": 1127, "pitch": 73, "duration": 7, "velocity": 108}, {"time": 1136, "pitch": 68, "duration": 7, "velocity": 111}, {"time": 1145, "pitch": 75, "duration": 5, "velocity": 114}, {"time": 1151, "pitch": 73, "duration": 9, "velocity": 108}, {"time": 1160, "pitch": 71, "duration": 8, "velocity": 100}, {"time": 1169, "pitch": 73, "duration": 6, "velocity": 100}, {"time": 1175, "pitch": 73, "duration": 43, "velocity": 111}, {"time": 1229, "pitch": 71, "duration": 2, "velocity": 102}, {"time": 1232, "pitch": 71, "duration": 2, "velocity": 105}, {"time": 1235, "pitch": 71, "duration": 5, "velocity": 111}, {"time": 1241, "pitch": 66, "duration": 2, "velocity": 108}, {"time": 1244, "pitch": 71, "duration": 8, "velocity": 111}, {"time": 1253, "pitch": 78, "duration": 5, "velocity": 117}, {"time": 1259, "pitch": 76, "duration": 5, "velocity": 102}, {"time": 1265, "pitch": 75, "duration": 4, "velocity": 108}, {"time": 1271, "pitch": 73, "duration": 8, "velocity": 108}, {"time": 1280, "pitch": 71, "duration": 27, "velocity": 108}, {"time": 1310, "pitch": 71, "duration": 3, "velocity": 114}, {"time": 1313, "pitch": 75, "duration": 2, "velocity": 92}, {"time": 1316, "pitch": 78, "duration": 2, "velocity": 105}, {"time": 1319, "pitch": 80, "duration": 5, "velocity": 100}, {"time": 1325, "pitch": 78, "duration": 2, "velocity": 102}, {"time": 1328, "pitch": 80, "duration": 5, "velocity": 111}, {"time": 1334, "pitch": 78, "duration": 5, "velocity": 108}, {"time": 1343, "pitch": 80, "duration": 6, "velocity": 114}, {"time": 1349, "pitch": 78, "duration": 5, "velocity": 105}, {"time": 1355, "pitch": 75, "duration": 2, "velocity": 100}, {"time": 1358, "pitch": 78, "duration": 7, "velocity": 111}, {"time": 1367, "pitch": 75, "duration": 42, "velocity": 105}, {"time": 1421, "pitch": 71, "duration": 2, "velocity": 102}, {"time": 1424, "pitch": 71, "duration": 2, "velocity": 102}, {"time": 1427, "pitch": 71, "duration": 5, "velocity": 111}, {"time": 1433, "pitch": 66, "duration": 2, "velocity": 108}, {"time": 1436, "pitch": 71, "duration": 8, "velocity": 114}, {"time": 1445, "pitch": 78, "duration": 4, "velocity": 111}, {"time": 1451, "pitch": 76, "duration": 5, "velocity": 105}, {"time": 1457, "pitch": 75, "duration": 5, "velocity": 111}, {"time": 1463, "pitch": 73, "duration": 9, "velocity": 92}, {"time": 1472, "pitch": 71, "duration": 26, "velocity": 108}, {"time": 1502, "pitch": 71, "duration": 2, "velocity": 108}, {"time": 1505, "pitch": 75, "duration": 2, "velocity": 114}, {"time": 1508, "pitch": 78, "duration": 2, "velocity": 111}, {"time": 1511, "pitch": 80, "duration": 5, "velocity": 114}, {"time": 1517, "pitch": 78, "duration": 2, "velocity": 114}, {"time": 1520, "pitch": 80, "duration": 5, "velocity": 111}, {"time": 1526, "pitch": 78, "duration": 4, "velocity": 111}, {"time": 1535, "pitch": 80, "duration": 4, "velocity": 108}, {"time": 1541, "pitch": 78, "duration": 5, "velocity": 108}, {"time": 1547, "pitch": 75, "duration": 3, "velocity": 111}, {"time": 1550, "pitch": 78, "duration": 6, "velocity": 114}, {"time": 1559, "pitch": 78, "duration": 46, "velocity": 111}, {"time": 2033, "pitch": 71, "duration": 2, "velocity": 97}, {"time": 2036, "pitch": 71, "duration": 2, "velocity": 105}, {"time": 2039, "pitch": 71, "duration": 5, "velocity": 108}, {"time": 2045, "pitch": 75, "duration": 5, "velocity": 105}, {"time": 2051, "pitch": 73, "duration": 5, "velocity": 108}, {"time": 2057, "pitch": 73, "duration": 2, "velocity": 89}, {"time": 2060, "pitch": 73, "duration": 5, "velocity": 102}, {"time": 2066, "pitch": 71, "duration": 5, "velocity": 108}, {"time": 2075, "pitch": 73, "duration": 5, "velocity": 108}, {"time": 2081, "pitch": 73, "duration": 4, "velocity": 105}, {"time": 2087, "pitch": 73, "duration": 3, "velocity": 105}, {"time": 2090, "pitch": 71, "duration": 3, "velocity": 87}, {"time": 2093, "pitch": 68, "duration": 31, "velocity": 97}, {"time": 2129, "pitch": 70, "duration": 2, "velocity": 97}, {"time": 2132, "pitch": 70, "duration": 2, "velocity": 111}, {"time": 2135, "pitch": 70, "duration": 5, "velocity": 111}, {"time": 2141, "pitch": 71, "duration": 2, "velocity": 105}, {"time": 2144, "pitch": 73, "duration": 9, "velocity": 108}, {"time": 2153, "pitch": 70, "duration": 5, "velocity": 111}, {"time": 2159, "pitch": 68, "duration": 2, "velocity": 108}, {"time": 2162, "pitch": 66, "duration": 9, "velocity": 92}, {"time": 2171, "pitch": 63, "duration": 37, "velocity": 105}, {"time": 2225, "pitch": 75, "duration": 2, "velocity": 102}, {"time": 2228, "pitch": 73, "duration": 2, "velocity": 89}, {"time": 2231, "pitch": 75, "duration": 4, "velocity": 102}, {"time": 2237, "pitch": 75, "duration": 2, "velocity": 100}, {"time": 2240, "pitch": 73, "duration": 8, "velocity": 111}, {"time": 2249, "pitch": 73, "duration": 5, "velocity": 102}, {"time": 2255, "pitch": 71, "duration": 10, "velocity": 102}, {"time": 2267, "pitch": 73, "duration": 5, "velocity": 111}, {"time": 2273, "pitch": 68, "duration": 4, "velocity": 111}, {"time": 2279, "pitch": 68, "duration": 2, "velocity": 105}, {"time": 2282, "pitch": 73, "duration": 8, "velocity": 105}, {"time": 2291, "pitch": 71, "duration": 25, "velocity": 73}, {"time": 2321, "pitch": 70, "duration": 2, "velocity": 89}, {"time": 2324, "pitch": 70, "duration": 2, "velocity": 94}, {"time": 2327, "pitch": 70, "duration": 5, "velocity": 108}, {"time": 2333, "pitch": 71, "duration": 2, "velocity": 100}, {"time": 2336, "pitch": 73, "duration": 8, "velocity": 108}, {"time": 2345, "pitch": 73, "duration": 5, "velocity": 105}, {"time": 2351, "pitch": 70, "duration": 2, "velocity": 108}, {"time": 2354, "pitch": 66, "duration": 9, "velocity": 100}, {"time": 2363, "pitch": 63, "duration": 34, "velocity": 97}, {"time": 2411, "pitch": 78, "duration": 7, "velocity": 117}, {"time": 2420, "pitch": 73, "duration": 8, "velocity": 114}, {"time": 2429, "pitch": 75, "duration": 5, "velocity": 111}, {"time": 2435, "pitch": 78, "duration": 9, "velocity": 114}, {"time": 2444, "pitch": 73, "duration": 8, "velocity": 105}, {"time": 2453, "pitch": 71, "duration": 6, "velocity": 92}, {"time": 2459, "pitch": 68, "duration": 43, "velocity": 114}, {"time": 2507, "pitch": 73, "duration": 7, "velocity": 108}, {"time": 2516, "pitch": 68, "duration": 7, "velocity": 111}, {"time": 2525, "pitch": 75, "duration": 5, "velocity": 114}, {"time": 2531, "pitch": 73, "duration": 9, "velocity": 108}, {"time": 2540, "pitch": 71, "duration": 8, "velocity": 100}, {"time": 2549, "pitch": 71, "duration": 6, "velocity": 100}, {"time": 2555, "pitch": 66, "duration": 43, "velocity": 111}, {"time": 2603, "pitch": 78, "duration": 7, "velocity": 117}, {"time": 2612, "pitch": 73, "duration": 8, "velocity": 114}, {"time": 2621, "pitch": 75, "duration": 5, "velocity": 111}, {"time": 2627, "pitch": 78, "duration": 9, "velocity": 114}, {"time": 2636, "pitch": 73, "duration": 8, "velocity": 105}, {"time": 2645, "pitch": 71, "duration": 6, "velocity": 92}, {"time": 2651, "pitch": 68, "duration": 43, "velocity": 114}, {"time": 2699, "pitch": 73, "duration": 7, "velocity": 108}, {"time": 2708, "pitch": 68, "duration": 7, "velocity": 111}, {"time": 2717, "pitch": 75, "duration": 5, "velocity": 114}, {"time": 2723, "pitch": 73, "duration": 9, "velocity": 108}, {"time": 2732, "pitch": 71, "duration": 8, "velocity": 100}, {"time": 2741, "pitch": 73, "duration": 6, "velocity": 100}, {"time": 2747, "pitch": 73, "duration": 43, "velocity": 111}, {"time": 2801, "pitch": 71, "duration": 2, "velocity": 102}, {"time": 2804, "pitch": 71, "duration": 2, "velocity": 105}, {"time": 2807, "pitch": 71, "duration": 5, "velocity": 111}, {"time": 2813, "pitch": 66, "duration": 2, "velocity": 108}, {"time": 2816, "pitch": 71, "duration": 8, "velocity": 111}, {"time": 2825, "pitch": 78, "duration": 5, "velocity": 117}, {"time": 2831, "pitch": 76, "duration": 5, "velocity": 102}, {"time": 2837, "pitch": 75, "duration": 4, "velocity": 108}, {"time": 2843, "pitch": 73, "duration": 8, "velocity": 108}, {"time": 2852, "pitch": 71, "duration": 27, "velocity": 108}, {"time": 2882, "pitch": 71, "duration": 3, "velocity": 114}, {"time": 2885, "pitch": 75, "duration": 2, "velocity": 92}, {"time": 2888, "pitch": 78, "duration": 2, "velocity": 105}, {"time": 2891, "pitch": 80, "duration": 5, "velocity": 100}, {"time": 2897, "pitch": 78, "duration": 2, "velocity": 102}, {"time": 2900, "pitch": 80, "duration": 5, "velocity": 111}, {"time": 2906, "pitch": 78, "duration": 5, "velocity": 108}, {"time": 2915, "pitch": 80, "duration": 6, "velocity": 114}, {"time": 2921, "pitch": 78, "duration": 5, "velocity": 105}, {"time": 2927, "pitch": 75, "duration": 2, "velocity": 100}, {"time": 2930, "pitch": 78, "duration": 7, "velocity": 111}, {"time": 2939, "pitch": 75, "duration": 42, "velocity": 105}, {"time": 2993, "pitch": 71, "duration": 2, "velocity": 102}, {"time": 2996, "pitch": 71, "duration": 2, "velocity": 102}, {"time": 2999, "pitch": 71, "duration": 5, "velocity": 111}, {"time": 3005, "pitch": 66, "duration": 2, "velocity": 108}, {"time": 3008, "pitch": 71, "duration": 8, "velocity": 114}, {"time": 3017, "pitch": 78, "duration": 4, "velocity": 111}, {"time": 3023, "pitch": 76, "duration": 5, "velocity": 105}, {"time": 3029, "pitch": 75, "duration": 5, "velocity": 111}, {"time": 3035, "pitch": 73, "duration": 9, "velocity": 92}, {"time": 3044, "pitch": 71, "duration": 26, "velocity": 108}, {"time": 3074, "pitch": 71, "duration": 2, "velocity": 108}, {"time": 3077, "pitch": 75, "duration": 2, "velocity": 114}, {"time": 3080, "pitch": 78, "duration": 2, "velocity": 111}, {"time": 3083, "pitch": 80, "duration": 5, "velocity": 114}, {"time": 3089, "pitch": 78, "duration": 2, "velocity": 114}, {"time": 3092, "pitch": 80, "duration": 5, "velocity": 111}, {"time": 3098, "pitch": 78, "duration": 4, "velocity": 111}, {"time": 3107, "pitch": 80, "duration": 4, "velocity": 108}, {"time": 3113, "pitch": 78, "duration": 5, "velocity": 108}, {"time": 3119, "pitch": 75, "duration": 3, "velocity": 111}, {"time": 3122, "pitch": 78, "duration": 6, "velocity": 114}, {"time": 3131, "pitch": 78, "duration": 46, "velocity": 111}, {"time": 3185, "pitch": 71, "duration": 2, "velocity": 102}, {"time": 3188, "pitch": 71, "duration": 2, "velocity": 105}, {"time": 3191, "pitch": 71, "duration": 5, "velocity": 111}, {"time": 3197, "pitch": 66, "duration": 2, "velocity": 108}, {"time": 3200, "pitch": 71, "duration": 8, "velocity": 111}, {"time": 3209, "pitch": 78, "duration": 5, "velocity": 117}, {"time": 3215, "pitch": 76, "duration": 5, "velocity": 102}, {"time": 3221, "pitch": 75, "duration": 4, "velocity": 108}, {"time": 3227, "pitch": 73, "duration": 8, "velocity": 108}, {"time": 3236, "pitch": 71, "duration": 27, "velocity": 108}, {"time": 3266, "pitch": 71, "duration": 3, "velocity": 114}, {"time": 3269, "pitch": 75, "duration": 2, "velocity": 92}, {"time": 3272, "pitch": 78, "duration": 2, "velocity": 105}, {"time": 3275, "pitch": 80, "duration": 5, "velocity": 100}, {"time": 3281, "pitch": 78, "duration": 2, "velocity": 102}, {"time": 3284, "pitch": 80, "duration": 5, "velocity": 111}, {"time": 3290, "pitch": 78, "duration": 5, "velocity": 108}, {"time": 3299, "pitch": 80, "duration": 6, "velocity": 114}, {"time": 3305, "pitch": 78, "duration": 5, "velocity": 105}, {"time": 3311, "pitch": 75, "duration": 2, "velocity": 100}, {"time": 3314, "pitch": 78, "duration": 7, "velocity": 111}, {"time": 3323, "pitch": 75, "duration": 42, "velocity": 105}, {"time": 3377, "pitch": 71, "duration": 2, "velocity": 102}, {"time": 3380, "pitch": 71, "duration": 2, "velocity": 102}, {"time": 3383, "pitch": 71, "duration": 5, "velocity": 111}, {"time": 3389, "pitch": 66, "duration": 2, "velocity": 108}, {"time": 3392, "pitch": 71, "duration": 8, "velocity": 114}, {"time": 3401, "pitch": 78, "duration": 4, "velocity": 111}, {"time": 3407, "pitch": 76, "duration": 5, "velocity": 105}, {"time": 3413, "pitch": 75, "duration": 5, "velocity": 111}, {"time": 3419, "pitch": 73, "duration": 9, "velocity": 92}, {"time": 3428, "pitch": 71, "duration": 26, "velocity": 108}, {"time": 3458, "pitch": 71, "duration": 2, "velocity": 108}, {"time": 3461, "pitch": 75, "duration": 2, "velocity": 114}, {"time": 3464, "pitch": 78, "duration": 2, "velocity": 111}, {"time": 3467, "pitch": 80, "duration": 5, "velocity": 114}, {"time": 3473, "pitch": 78, "duration": 2, "velocity": 114}, {"time": 3476, "pitch": 80, "duration": 5, "velocity": 111}, {"time": 3482, "pitch": 78, "duration": 4, "velocity": 111}, {"time": 3491, "pitch": 80, "duration": 4, "velocity": 108}, {"time": 3497, "pitch": 78, "duration": 5, "velocity": 108}, {"time": 3503, "pitch": 75, "duration": 3, "velocity": 111}, {"time": 3506, "pitch": 78, "duration": 6, "velocity": 114}, {"time": 3515, "pitch": 78, "duration": 46, "velocity": 111}, {"time": 3569, "pitch": 71, "duration": 2, "velocity": 97}, {"time": 3572, "pitch": 71, "duration": 2, "velocity": 105}, {"time": 3575, "pitch": 71, "duration": 5, "velocity": 108}, {"time": 3581, "pitch": 75, "duration": 5, "velocity": 105}, {"time": 3587, "pitch": 73, "duration": 5, "velocity": 108}, {"time": 3593, "pitch": 73, "duration": 2, "velocity": 89}, {"time": 3596, "pitch": 73, "duration": 5, "velocity": 102}, {"time": 3602, "pitch": 71, "duration": 5, "velocity": 108}, {"time": 3611, "pitch": 73, "duration": 5, "velocity": 108}, {"time": 3617, "pitch": 73, "duration": 4, "velocity": 105}, {"time": 3623, "pitch": 73, "duration": 3, "velocity": 105}, {"time": 3626, "pitch": 71, "duration": 3, "velocity": 87}, {"time": 3629, "pitch": 68, "duration": 31, "velocity": 97}]}, {"program": 0, "is_drum": false, "name": "PIANO", "notes": [{"time": 69, "pitch": 54, "duration": 3, "velocity": 80}, {"time": 70, "pitch": 59, "duration": 7, "velocity": 94}, {"time": 71, "pitch": 35, "duration": 15, "velocity": 101}, {"time": 72, "pitch": 63, "duration": 6, "velocity": 94}, {"time": 88, "pitch": 54, "duration": 4, "velocity": 87}, {"time": 95, "pitch": 63, "duration": 3, "velocity": 99}, {"time": 95, "pitch": 54, "duration": 2, "velocity": 101}, {"time": 105, "pitch": 59, "duration": 3, "velocity": 66}, {"time": 106, "pitch": 63, "duration": 3, "velocity": 96}, {"time": 107, "pitch": 47, "duration": 3, "velocity": 96}, {"time": 107, "pitch": 66, "duration": 3, "velocity": 99}, {"time": 117, "pitch": 52, "duration": 6, "velocity": 82}, {"time": 118, "pitch": 56, "duration": 4, "velocity": 99}, {"time": 119, "pitch": 40, "duration": 39, "velocity": 104}, {"time": 119, "pitch": 59, "duration": 7, "velocity": 94}, {"time": 136, "pitch": 47, "duration": 21, "velocity": 62}, {"time": 142, "pitch": 56, "duration": 2, "velocity": 104}, {"time": 142, "pitch": 64, "duration": 3, "velocity": 104}, {"time": 142, "pitch": 52, "duration": 2, "velocity": 96}, {"time": 153, "pitch": 64, "duration": 2, "velocity": 38}, {"time": 154, "pitch": 68, "duration": 1, "velocity": 67}, {"time": 155, "pitch": 71, "duration": 1, "velocity": 99}, {"time": 166, "pitch": 54, "duration": 13, "velocity": 85}, {"time": 166, "pitch": 58, "duration": 14, "velocity": 96}, {"time": 167, "pitch": 42, "duration": 40, "velocity": 106}, {"time": 184, "pitch": 61, "duration": 2, "velocity": 99}, {"time": 190, "pitch": 58, "duration": 1, "velocity": 91}, {"time": 191, "pitch": 61, "duration": 1, "velocity": 96}, {"time": 191, "pitch": 66, "duration": 2, "velocity": 101}, {"time": 201, "pitch": 49, "duration": 5, "velocity": 1}, {"time": 202, "pitch": 73, "duration": 4, "velocity": 106}, {"time": 202, "pitch": 66, "duration": 2, "velocity": 106}, {"time": 213, "pitch": 59, "duration": 10, "velocity": 39}, {"time": 214, "pitch": 63, "duration": 14, "velocity": 74}, {"time": 215, "pitch": 47, "duration": 38, "velocity": 104}, {"time": 226, "pitch": 54, "duration": 26, "velocity": 66}, {"time": 232, "pitch": 59, "duration": 7, "velocity": 85}, {"time": 238, "pitch": 63, "duration": 9, "velocity": 109}, {"time": 244, "pitch": 59, "duration": 4, "velocity": 69}, {"time": 250, "pitch": 66, "duration": 4, "velocity": 99}, {"time": 250, "pitch": 59, "duration": 3, "velocity": 99}, {"time": 262, "pitch": 59, "duration": 10, "velocity": 91}, {"time": 262, "pitch": 63, "duration": 10, "velocity": 101}, {"time": 262, "pitch": 35, "duration": 5, "velocity": 94}, {"time": 280, "pitch": 54, "duration": 20, "velocity": 40}, {"time": 285, "pitch": 59, "duration": 2, "velocity": 39}, {"time": 286, "pitch": 63, "duration": 2, "velocity": 85}, {"time": 287, "pitch": 66, "duration": 2, "velocity": 101}, {"time": 299, "pitch": 63, "duration": 4, "velocity": 109}, {"time": 299, "pitch": 59, "duration": 4, "velocity": 96}, {"time": 309, "pitch": 59, "duration": 3, "velocity": 67}, {"time": 310, "pitch": 64, "duration": 9, "velocity": 96}, {"time": 311, "pitch": 40, "duration": 1, "velocity": 101}, {"time": 311, "pitch": 68, "duration": 10, "velocity": 101}, {"time": 317, "pitch": 47, "duration": 31, "velocity": 58}, {"time": 320, "pitch": 52, "duration": 11, "velocity": 76}, {"time": 323, "pitch": 56, "duration": 23, "velocity": 112}, {"time": 326, "pitch": 59, "duration": 6, "velocity": 112}, {"time": 328, "pitch": 64, "duration": 4, "velocity": 112}, {"time": 331, "pitch": 68, "duration": 2, "velocity": 91}, {"time": 334, "pitch": 59, "duration": 11, "velocity": 85}, {"time": 335, "pitch": 64, "duration": 9, "velocity": 101}, {"time": 335, "pitch": 68, "duration": 7, "velocity": 94}, {"time": 347, "pitch": 64, "duration": 5, "velocity": 87}, {"time": 347, "pitch": 59, "duration": 4, "velocity": 82}, {"time": 358, "pitch": 61, "duration": 3, "velocity": 85}, {"time": 358, "pitch": 66, "duration": 7, "velocity": 96}, {"time": 359, "pitch": 42, "duration": 38, "velocity": 104}, {"time": 365, "pitch": 49, "duration": 31, "velocity": 36}, {"time": 371, "pitch": 61, "duration": 9, "velocity": 104}, {"time": 377, "pitch": 54, "duration": 3, "velocity": 82}, {"time": 383, "pitch": 61, "duration": 13, "velocity": 99}, {"time": 383, "pitch": 66, "duration": 13, "velocity": 76}, {"time": 384, "pitch": 54, "duration": 10, "velocity": 66}, {"time": 405, "pitch": 54, "duration": 3, "velocity": 66}, {"time": 406, "pitch": 59, "duration": 3, "velocity": 87}, {"time": 407, "pitch": 35, "duration": 1, "velocity": 96}, {"time": 407, "pitch": 63, "duration": 6, "velocity": 87}, {"time": 414, "pitch": 47, "duration": 29, "velocity": 46}, {"time": 420, "pitch": 54, "duration": 23, "velocity": 104}, {"time": 425, "pitch": 59, "duration": 4, "velocity": 96}, {"time": 432, "pitch": 59, "duration": 15, "velocity": 94}, {"time": 432, "pitch": 63, "duration": 15, "velocity": 94}, {"time": 456, "pitch": 47, "duration": 21, "velocity": 99}, {"time": 459, "pitch": 54, "duration": 5, "velocity": 71}, {"time": 462, "pitch": 59, "duration": 10, "velocity": 82}, {"time": 465, "pitch": 63, "duration": 17, "velocity": 104}, {"time": 474, "pitch": 54, "duration": 4, "velocity": 45}, {"time": 477, "pitch": 59, "duration": 6, "velocity": 94}, {"time": 480, "pitch": 47, "duration": 19, "velocity": 94}, {"time": 483, "pitch": 54, "duration": 6, "velocity": 69}, {"time": 486, "pitch": 59, "duration": 11, "velocity": 87}, {"time": 489, "pitch": 63, "duration": 13, "velocity": 101}, {"time": 498, "pitch": 54, "duration": 2, "velocity": 42}, {"time": 501, "pitch": 59, "duration": 3, "velocity": 96}, {"time": 504, "pitch": 40, "duration": 21, "velocity": 101}, {"time": 507, "pitch": 47, "duration": 6, "velocity": 58}, {"time": 509, "pitch": 52, "duration": 21, "velocity": 91}, {"time": 512, "pitch": 59, "duration": 22, "velocity": 99}, {"time": 522, "pitch": 47, "duration": 4, "velocity": 31}, {"time": 525, "pitch": 64, "duration": 10, "velocity": 82}, {"time": 527, "pitch": 40, "duration": 20, "velocity": 101}, {"time": 530, "pitch": 47, "duration": 8, "velocity": 61}, {"time": 533, "pitch": 52, "duration": 13, "velocity": 101}, {"time": 536, "pitch": 59, "duration": 16, "velocity": 109}, {"time": 545, "pitch": 47, "duration": 5, "velocity": 85}, {"time": 548, "pitch": 52, "duration": 4, "velocity": 89}, {"time": 552, "pitch": 42, "duration": 21, "velocity": 101}, {"time": 555, "pitch": 49, "duration": 6, "velocity": 64}, {"time": 557, "pitch": 54, "duration": 15, "velocity": 80}, {"time": 561, "pitch": 61, "duration": 21, "velocity": 106}, {"time": 570, "pitch": 49, "duration": 3, "velocity": 76}, {"time": 573, "pitch": 66, "duration": 9, "velocity": 101}, {"time": 575, "pitch": 42, "duration": 20, "velocity": 101}, {"time": 578, "pitch": 49, "duration": 16, "velocity": 76}, {"time": 581, "pitch": 54, "duration": 12, "velocity": 69}, {"time": 584, "pitch": 61, "duration": 16, "velocity": 99}, {"time": 594, "pitch": 64, "duration": 8, "velocity": 104}, {"time": 596, "pitch": 54, "duration": 3, "velocity": 101}, {"time": 599, "pitch": 47, "duration": 22, "velocity": 101}, {"time": 603, "pitch": 54, "duration": 6, "velocity": 66}, {"time": 605, "pitch": 59, "duration": 8, "velocity": 89}, {"time": 608, "pitch": 63, "duration": 10, "velocity": 112}, {"time": 614, "pitch": 54, "duration": 7, "velocity": 74}, {"time": 618, "pitch": 59, "duration": 8, "velocity": 82}, {"time": 620, "pitch": 66, "duration": 12, "velocity": 101}, {"time": 623, "pitch": 47, "duration": 21, "velocity": 101}, {"time": 626, "pitch": 54, "duration": 7, "velocity": 61}, {"time": 630, "pitch": 59, "duration": 7, "velocity": 82}, {"time": 632, "pitch": 63, "duration": 10, "velocity": 104}, {"time": 639, "pitch": 54, "duration": 7, "velocity": 73}, {"time": 642, "pitch": 59, "duration": 5, "velocity": 67}, {"time": 645, "pitch": 63, "duration": 8, "velocity": 94}, {"time": 648, "pitch": 47, "duration": 21, "velocity": 101}, {"time": 651, "pitch": 54, "duration": 7, "velocity": 71}, {"time": 654, "pitch": 59, "duration": 10, "velocity": 82}, {"time": 657, "pitch": 63, "duration": 18, "velocity": 109}, {"time": 666, "pitch": 54, "duration": 3, "velocity": 67}, {"time": 669, "pitch": 59, "duration": 6, "velocity": 99}, {"time": 672, "pitch": 47, "duration": 18, "velocity": 101}, {"time": 675, "pitch": 54, "duration": 6, "velocity": 78}, {"time": 678, "pitch": 59, "duration": 3, "velocity": 91}, {"time": 680, "pitch": 66, "duration": 11, "velocity": 101}, {"time": 687, "pitch": 54, "duration": 3, "velocity": 82}, {"time": 690, "pitch": 63, "duration": 4, "velocity": 104}, {"time": 693, "pitch": 59, "duration": 3, "velocity": 94}, {"time": 696, "pitch": 40, "duration": 21, "velocity": 91}, {"time": 699, "pitch": 47, "duration": 8, "velocity": 71}, {"time": 702, "pitch": 52, "duration": 18, "velocity": 96}, {"time": 705, "pitch": 59, "duration": 20, "velocity": 106}, {"time": 713, "pitch": 47, "duration": 4, "velocity": 78}, {"time": 716, "pitch": 56, "duration": 7, "velocity": 96}, {"time": 719, "pitch": 40, "duration": 22, "velocity": 104}, {"time": 722, "pitch": 47, "duration": 7, "velocity": 66}, {"time": 725, "pitch": 52, "duration": 4, "velocity": 74}, {"time": 728, "pitch": 64, "duration": 24, "velocity": 106}, {"time": 734, "pitch": 59, "duration": 10, "velocity": 91}, {"time": 737, "pitch": 47, "duration": 5, "velocity": 71}, {"time": 741, "pitch": 52, "duration": 3, "velocity": 67}, {"time": 744, "pitch": 42, "duration": 21, "velocity": 106}, {"time": 750, "pitch": 49, "duration": 6, "velocity": 76}, {"time": 753, "pitch": 54, "duration": 4, "velocity": 80}, {"time": 756, "pitch": 61, "duration": 7, "velocity": 106}, {"time": 759, "pitch": 49, "duration": 7, "velocity": 67}, {"time": 762, "pitch": 54, "duration": 9, "velocity": 85}, {"time": 765, "pitch": 61, "duration": 15, "velocity": 101}, {"time": 768, "pitch": 42, "duration": 17, "velocity": 106}, {"time": 771, "pitch": 49, "duration": 6, "velocity": 67}, {"time": 774, "pitch": 54, "duration": 3, "velocity": 69}, {"time": 777, "pitch": 66, "duration": 16, "velocity": 101}, {"time": 782, "pitch": 61, "duration": 4, "velocity": 96}, {"time": 785, "pitch": 54, "duration": 4, "velocity": 94}, {"time": 788, "pitch": 61, "duration": 3, "velocity": 89}, {"time": 792, "pitch": 47, "duration": 21, "velocity": 101}, {"time": 795, "pitch": 54, "duration": 6, "velocity": 55}, {"time": 798, "pitch": 59, "duration": 6, "velocity": 78}, {"time": 801, "pitch": 63, "duration": 9, "velocity": 109}, {"time": 810, "pitch": 54, "duration": 3, "velocity": 82}, {"time": 813, "pitch": 59, "duration": 5, "velocity": 101}, {"time": 815, "pitch": 47, "duration": 20, "velocity": 104}, {"time": 818, "pitch": 54, "duration": 7, "velocity": 69}, {"time": 821, "pitch": 59, "duration": 3, "velocity": 85}, {"time": 824, "pitch": 64, "duration": 6, "velocity": 112}, {"time": 828, "pitch": 54, "duration": 5, "velocity": 35}, {"time": 830, "pitch": 63, "duration": 4, "velocity": 106}, {"time": 833, "pitch": 59, "duration": 5, "velocity": 99}, {"time": 840, "pitch": 63, "duration": 6, "velocity": 104}, {"time": 840, "pitch": 59, "duration": 3, "velocity": 96}, {"time": 840, "pitch": 47, "duration": 21, "velocity": 101}, {"time": 843, "pitch": 54, "duration": 6, "velocity": 74}, {"time": 846, "pitch": 59, "duration": 4, "velocity": 76}, {"time": 849, "pitch": 66, "duration": 18, "velocity": 104}, {"time": 857, "pitch": 54, "duration": 5, "velocity": 101}, {"time": 861, "pitch": 59, "duration": 5, "velocity": 109}, {"time": 863, "pitch": 47, "duration": 20, "velocity": 101}, {"time": 866, "pitch": 54, "duration": 7, "velocity": 85}, {"time": 870, "pitch": 59, "duration": 9, "velocity": 94}, {"time": 873, "pitch": 63, "duration": 12, "velocity": 109}, {"time": 882, "pitch": 54, "duration": 2, "velocity": 94}, {"time": 885, "pitch": 59, "duration": 3, "velocity": 87}, {"time": 888, "pitch": 44, "duration": 20, "velocity": 101}, {"time": 890, "pitch": 51, "duration": 6, "velocity": 67}, {"time": 893, "pitch": 56, "duration": 8, "velocity": 89}, {"time": 897, "pitch": 59, "duration": 9, "velocity": 109}, {"time": 903, "pitch": 51, "duration": 6, "velocity": 71}, {"time": 906, "pitch": 56, "duration": 8, "velocity": 99}, {"time": 909, "pitch": 59, "duration": 7, "velocity": 85}, {"time": 912, "pitch": 44, "duration": 19, "velocity": 104}, {"time": 914, "pitch": 51, "duration": 7, "velocity": 69}, {"time": 917, "pitch": 56, "duration": 5, "velocity": 96}, {"time": 920, "pitch": 63, "duration": 10, "velocity": 104}, {"time": 927, "pitch": 51, "duration": 4, "velocity": 76}, {"time": 930, "pitch": 59, "duration": 4, "velocity": 94}, {"time": 932, "pitch": 56, "duration": 4, "velocity": 91}, {"time": 935, "pitch": 49, "duration": 22, "velocity": 106}, {"time": 941, "pitch": 61, "duration": 12, "velocity": 91}, {"time": 944, "pitch": 56, "duration": 9, "velocity": 96}, {"time": 953, "pitch": 64, "duration": 13, "velocity": 104}, {"time": 956, "pitch": 56, "duration": 10, "velocity": 96}, {"time": 959, "pitch": 49, "duration": 21, "velocity": 112}, {"time": 966, "pitch": 61, "duration": 5, "velocity": 104}, {"time": 969, "pitch": 56, "duration": 6, "velocity": 99}, {"time": 975, "pitch": 64, "duration": 7, "velocity": 109}, {"time": 978, "pitch": 56, "duration": 6, "velocity": 94}, {"time": 981, "pitch": 61, "duration": 3, "velocity": 96}, {"time": 984, "pitch": 42, "duration": 21, "velocity": 106}, {"time": 987, "pitch": 49, "duration": 7, "velocity": 71}, {"time": 990, "pitch": 54, "duration": 9, "velocity": 91}, {"time": 993, "pitch": 61, "duration": 17, "velocity": 109}, {"time": 999, "pitch": 49, "duration": 6, "velocity": 85}, {"time": 1002, "pitch": 54, "duration": 8, "velocity": 99}, {"time": 1005, "pitch": 66, "duration": 9, "velocity": 104}, {"time": 1008, "pitch": 42, "duration": 18, "velocity": 106}, {"time": 1011, "pitch": 49, "duration": 6, "velocity": 82}, {"time": 1014, "pitch": 54, "duration": 9, "velocity": 85}, {"time": 1017, "pitch": 61, "duration": 10, "velocity": 112}, {"time": 1023, "pitch": 49, "duration": 4, "velocity": 76}, {"time": 1026, "pitch": 54, "duration": 3, "velocity": 109}, {"time": 1029, "pitch": 61, "duration": 3, "velocity": 104}, {"time": 1032, "pitch": 47, "duration": 21, "velocity": 106}, {"time": 1035, "pitch": 54, "duration": 7, "velocity": 62}, {"time": 1038, "pitch": 59, "duration": 6, "velocity": 78}, {"time": 1041, "pitch": 63, "duration": 9, "velocity": 115}, {"time": 1047, "pitch": 54, "duration": 7, "velocity": 78}, {"time": 1050, "pitch": 59, "duration": 8, "velocity": 101}, {"time": 1053, "pitch": 66, "duration": 10, "velocity": 99}, {"time": 1056, "pitch": 47, "duration": 18, "velocity": 104}, {"time": 1059, "pitch": 54, "duration": 7, "velocity": 69}, {"time": 1062, "pitch": 59, "duration": 5, "velocity": 82}, {"time": 1065, "pitch": 63, "duration": 8, "velocity": 112}, {"time": 1071, "pitch": 54, "duration": 4, "velocity": 61}, {"time": 1074, "pitch": 59, "duration": 3, "velocity": 87}, {"time": 1077, "pitch": 63, "duration": 7, "velocity": 112}, {"time": 1080, "pitch": 44, "duration": 20, "velocity": 104}, {"time": 1082, "pitch": 51, "duration": 7, "velocity": 71}, {"time": 1086, "pitch": 56, "duration": 3, "velocity": 96}, {"time": 1088, "pitch": 59, "duration": 9, "velocity": 104}, {"time": 1094, "pitch": 51, "duration": 6, "velocity": 62}, {"time": 1097, "pitch": 56, "duration": 8, "velocity": 85}, {"time": 1100, "pitch": 63, "duration": 10, "velocity": 96}, {"time": 1103, "pitch": 44, "duration": 21, "velocity": 106}, {"time": 1106, "pitch": 51, "duration": 7, "velocity": 66}, {"time": 1109, "pitch": 56, "duration": 9, "velocity": 80}, {"time": 1112, "pitch": 59, "duration": 9, "velocity": 104}, {"time": 1119, "pitch": 51, "duration": 5, "velocity": 58}, {"time": 1122, "pitch": 56, "duration": 3, "velocity": 101}, {"time": 1124, "pitch": 59, "duration": 3, "velocity": 87}, {"time": 1127, "pitch": 49, "duration": 21, "velocity": 106}, {"time": 1130, "pitch": 52, "duration": 10, "velocity": 67}, {"time": 1133, "pitch": 56, "duration": 4, "velocity": 91}, {"time": 1136, "pitch": 61, "duration": 10, "velocity": 106}, {"time": 1142, "pitch": 52, "duration": 6, "velocity": 91}, {"time": 1145, "pitch": 56, "duration": 7, "velocity": 101}, {"time": 1148, "pitch": 61, "duration": 7, "velocity": 99}, {"time": 1151, "pitch": 49, "duration": 19, "velocity": 109}, {"time": 1155, "pitch": 56, "duration": 5, "velocity": 99}, {"time": 1157, "pitch": 61, "duration": 4, "velocity": 96}, {"time": 1161, "pitch": 64, "duration": 9, "velocity": 106}, {"time": 1166, "pitch": 61, "duration": 4, "velocity": 91}, {"time": 1169, "pitch": 56, "duration": 5, "velocity": 94}, {"time": 1173, "pitch": 61, "duration": 5, "velocity": 91}, {"time": 1176, "pitch": 42, "duration": 21, "velocity": 106}, {"time": 1178, "pitch": 49, "duration": 7, "velocity": 67}, {"time": 1181, "pitch": 54, "duration": 5, "velocity": 82}, {"time": 1185, "pitch": 61, "duration": 10, "velocity": 104}, {"time": 1191, "pitch": 49, "duration": 6, "velocity": 51}, {"time": 1194, "pitch": 54, "duration": 6, "velocity": 69}, {"time": 1197, "pitch": 61, "duration": 4, "velocity": 85}, {"time": 1197, "pitch": 66, "duration": 6, "velocity": 101}, {"time": 1200, "pitch": 42, "duration": 19, "velocity": 109}, {"time": 1203, "pitch": 49, "duration": 6, "velocity": 80}, {"time": 1206, "pitch": 54, "duration": 3, "velocity": 94}, {"time": 1208, "pitch": 61, "duration": 7, "velocity": 115}, {"time": 1211, "pitch": 49, "duration": 8, "velocity": 89}, {"time": 1214, "pitch": 54, "duration": 3, "velocity": 99}, {"time": 1217, "pitch": 61, "duration": 6, "velocity": 104}, {"time": 1220, "pitch": 54, "duration": 2, "velocity": 78}, {"time": 1224, "pitch": 47, "duration": 21, "velocity": 101}, {"time": 1227, "pitch": 54, "duration": 6, "velocity": 66}, {"time": 1230, "pitch": 59, "duration": 5, "velocity": 76}, {"time": 1233, "pitch": 63, "duration": 9, "velocity": 109}, {"time": 1239, "pitch": 54, "duration": 7, "velocity": 71}, {"time": 1242, "pitch": 59, "duration": 7, "velocity": 94}, {"time": 1245, "pitch": 63, "duration": 6, "velocity": 76}, {"time": 1248, "pitch": 47, "duration": 21, "velocity": 101}, {"time": 1251, "pitch": 54, "duration": 6, "velocity": 59}, {"time": 1254, "pitch": 59, "duration": 4, "velocity": 85}, {"time": 1257, "pitch": 63, "duration": 6, "velocity": 112}, {"time": 1260, "pitch": 54, "duration": 9, "velocity": 66}, {"time": 1263, "pitch": 59, "duration": 3, "velocity": 89}, {"time": 1266, "pitch": 63, "duration": 6, "velocity": 106}, {"time": 1269, "pitch": 59, "duration": 3, "velocity": 96}, {"time": 1272, "pitch": 44, "duration": 21, "velocity": 106}, {"time": 1275, "pitch": 51, "duration": 7, "velocity": 58}, {"time": 1278, "pitch": 56, "duration": 1, "velocity": 96}, {"time": 1281, "pitch": 59, "duration": 9, "velocity": 106}, {"time": 1281, "pitch": 56, "duration": 6, "velocity": 112}, {"time": 1287, "pitch": 51, "duration": 7, "velocity": 91}, {"time": 1290, "pitch": 56, "duration": 4, "velocity": 101}, {"time": 1293, "pitch": 59, "duration": 8, "velocity": 99}, {"time": 1296, "pitch": 44, "duration": 19, "velocity": 104}, {"time": 1299, "pitch": 51, "duration": 7, "velocity": 67}, {"time": 1302, "pitch": 56, "duration": 1, "velocity": 46}, {"time": 1305, "pitch": 59, "duration": 8, "velocity": 106}, {"time": 1305, "pitch": 63, "duration": 8, "velocity": 104}, {"time": 1311, "pitch": 51, "duration": 3, "velocity": 67}, {"time": 1314, "pitch": 56, "duration": 3, "velocity": 106}, {"time": 1317, "pitch": 59, "duration": 7, "velocity": 109}, {"time": 1320, "pitch": 40, "duration": 19, "velocity": 106}, {"time": 1323, "pitch": 47, "duration": 9, "velocity": 67}, {"time": 1325, "pitch": 56, "duration": 4, "velocity": 104}, {"time": 1328, "pitch": 64, "duration": 9, "velocity": 112}, {"time": 1329, "pitch": 59, "duration": 5, "velocity": 94}, {"time": 1334, "pitch": 56, "duration": 4, "velocity": 104}, {"time": 1337, "pitch": 59, "duration": 12, "velocity": 91}, {"time": 1340, "pitch": 64, "duration": 9, "velocity": 101}, {"time": 1343, "pitch": 40, "duration": 21, "velocity": 106}, {"time": 1346, "pitch": 47, "duration": 7, "velocity": 61}, {"time": 1349, "pitch": 56, "duration": 5, "velocity": 78}, {"time": 1353, "pitch": 59, "duration": 9, "velocity": 106}, {"time": 1359, "pitch": 47, "duration": 5, "velocity": 40}, {"time": 1362, "pitch": 56, "duration": 3, "velocity": 96}, {"time": 1364, "pitch": 59, "duration": 10, "velocity": 101}, {"time": 1367, "pitch": 47, "duration": 23, "velocity": 96}, {"time": 1373, "pitch": 54, "duration": 4, "velocity": 89}, {"time": 1377, "pitch": 63, "duration": 6, "velocity": 112}, {"time": 1383, "pitch": 59, "duration": 3, "velocity": 99}, {"time": 1386, "pitch": 54, "duration": 4, "velocity": 89}, {"time": 1389, "pitch": 59, "duration": 3, "velocity": 94}, {"time": 1392, "pitch": 42, "duration": 19, "velocity": 104}, {"time": 1395, "pitch": 49, "duration": 6, "velocity": 71}, {"time": 1398, "pitch": 54, "duration": 4, "velocity": 82}, {"time": 1401, "pitch": 61, "duration": 9, "velocity": 112}, {"time": 1407, "pitch": 49, "duration": 5, "velocity": 99}, {"time": 1410, "pitch": 58, "duration": 3, "velocity": 109}, {"time": 1413, "pitch": 54, "duration": 1, "velocity": 78}, {"time": 1416, "pitch": 47, "duration": 17, "velocity": 101}, {"time": 1416, "pitch": 59, "duration": 7, "velocity": 106}, {"time": 1416, "pitch": 54, "duration": 3, "velocity": 104}, {"time": 1422, "pitch": 54, "duration": 2, "velocity": 61}, {"time": 1425, "pitch": 63, "duration": 6, "velocity": 106}, {"time": 1430, "pitch": 59, "duration": 4, "velocity": 96}, {"time": 1434, "pitch": 54, "duration": 3, "velocity": 85}, {"time": 1437, "pitch": 63, "duration": 4, "velocity": 85}, {"time": 1440, "pitch": 47, "duration": 21, "velocity": 106}, {"time": 1443, "pitch": 54, "duration": 6, "velocity": 61}, {"time": 1446, "pitch": 59, "duration": 1, "velocity": 78}, {"time": 1449, "pitch": 66, "duration": 3, "velocity": 112}, {"time": 1449, "pitch": 59, "duration": 3, "velocity": 109}, {"time": 1455, "pitch": 63, "duration": 3, "velocity": 89}, {"time": 1455, "pitch": 59, "duration": 2, "velocity": 96}, {"time": 1458, "pitch": 54, "duration": 2, "velocity": 82}, {"time": 1461, "pitch": 59, "duration": 3, "velocity": 85}, {"time": 1464, "pitch": 44, "duration": 21, "velocity": 101}, {"time": 1467, "pitch": 51, "duration": 7, "velocity": 69}, {"time": 1470, "pitch": 56, "duration": 1, "velocity": 104}, {"time": 1473, "pitch": 56, "duration": 6, "velocity": 106}, {"time": 1473, "pitch": 59, "duration": 7, "velocity": 106}, {"time": 1479, "pitch": 51, "duration": 6, "velocity": 73}, {"time": 1482, "pitch": 56, "duration": 9, "velocity": 91}, {"time": 1485, "pitch": 63, "duration": 10, "velocity": 101}, {"time": 1488, "pitch": 44, "duration": 19, "velocity": 106}, {"time": 1491, "pitch": 51, "duration": 8, "velocity": 73}, {"time": 1494, "pitch": 56, "duration": 9, "velocity": 101}, {"time": 1496, "pitch": 59, "duration": 8, "velocity": 101}, {"time": 1502, "pitch": 51, "duration": 5, "velocity": 73}, {"time": 1505, "pitch": 56, "duration": 4, "velocity": 104}, {"time": 1508, "pitch": 59, "duration": 5, "velocity": 101}, {"time": 1511, "pitch": 40, "duration": 22, "velocity": 104}, {"time": 1514, "pitch": 47, "duration": 9, "velocity": 67}, {"time": 1517, "pitch": 56, "duration": 4, "velocity": 104}, {"time": 1520, "pitch": 64, "duration": 8, "velocity": 106}, {"time": 1520, "pitch": 59, "duration": 6, "velocity": 106}, {"time": 1526, "pitch": 47, "duration": 7, "velocity": 85}, {"time": 1529, "pitch": 56, "duration": 7, "velocity": 94}, {"time": 1532, "pitch": 59, "duration": 9, "velocity": 104}, {"time": 1535, "pitch": 40, "duration": 21, "velocity": 106}, {"time": 1538, "pitch": 47, "duration": 7, "velocity": 69}, {"time": 1541, "pitch": 56, "duration": 5, "velocity": 96}, {"time": 1544, "pitch": 59, "duration": 10, "velocity": 109}, {"time": 1550, "pitch": 47, "duration": 6, "velocity": 56}, {"time": 1553, "pitch": 56, "duration": 5, "velocity": 94}, {"time": 1557, "pitch": 59, "duration": 3, "velocity": 82}, {"time": 1559, "pitch": 42, "duration": 22, "velocity": 106}, {"time": 1563, "pitch": 49, "duration": 6, "velocity": 62}, {"time": 1565, "pitch": 54, "duration": 4, "velocity": 104}, {"time": 1568, "pitch": 61, "duration": 11, "velocity": 109}, {"time": 1574, "pitch": 49, "duration": 7, "velocity": 89}, {"time": 1578, "pitch": 54, "duration": 4, "velocity": 91}, {"time": 1580, "pitch": 61, "duration": 3, "velocity": 106}, {"time": 1582, "pitch": 54, "duration": 23, "velocity": 85}, {"time": 1583, "pitch": 58, "duration": 23, "velocity": 87}, {"time": 1583, "pitch": 42, "duration": 24, "velocity": 87}, {"time": 1584, "pitch": 61, "duration": 59, "velocity": 71}, {"time": 1607, "pitch": 54, "duration": 36, "velocity": 64}, {"time": 1607, "pitch": 58, "duration": 37, "velocity": 58}, {"time": 1608, "pitch": 42, "duration": 14, "velocity": 99}, {"time": 1608, "pitch": 66, "duration": 35, "velocity": 85}, {"time": 1643, "pitch": 50, "duration": 41, "velocity": 102}, {"time": 1643, "pitch": 62, "duration": 8, "velocity": 76}, {"time": 1643, "pitch": 66, "duration": 8, "velocity": 84}, {"time": 1643, "pitch": 69, "duration": 7, "velocity": 87}, {"time": 1649, "pitch": 57, "duration": 9, "velocity": 71}, {"time": 1655, "pitch": 62, "duration": 11, "velocity": 100}, {"time": 1655, "pitch": 66, "duration": 11, "velocity": 105}, {"time": 1661, "pitch": 57, "duration": 8, "velocity": 25}, {"time": 1667, "pitch": 62, "duration": 9, "velocity": 108}, {"time": 1667, "pitch": 66, "duration": 9, "velocity": 108}, {"time": 1673, "pitch": 57, "duration": 11, "velocity": 50}, {"time": 1679, "pitch": 62, "duration": 4, "velocity": 102}, {"time": 1679, "pitch": 66, "duration": 8, "velocity": 111}, {"time": 1679, "pitch": 69, "duration": 8, "velocity": 105}, {"time": 1685, "pitch": 62, "duration": 3, "velocity": 84}, {"time": 1691, "pitch": 43, "duration": 42, "velocity": 97}, {"time": 1691, "pitch": 59, "duration": 10, "velocity": 97}, {"time": 1691, "pitch": 62, "duration": 10, "velocity": 97}, {"time": 1703, "pitch": 59, "duration": 5, "velocity": 100}, {"time": 1703, "pitch": 62, "duration": 5, "velocity": 100}, {"time": 1709, "pitch": 50, "duration": 10, "velocity": 25}, {"time": 1715, "pitch": 62, "duration": 10, "velocity": 92}, {"time": 1715, "pitch": 67, "duration": 9, "velocity": 89}, {"time": 1721, "pitch": 50, "duration": 13, "velocity": 48}, {"time": 1727, "pitch": 59, "duration": 3, "velocity": 102}, {"time": 1727, "pitch": 62, "duration": 7, "velocity": 105}, {"time": 1727, "pitch": 67, "duration": 8, "velocity": 100}, {"time": 1733, "pitch": 59, "duration": 5, "velocity": 89}, {"time": 1739, "pitch": 45, "duration": 46, "velocity": 97}, {"time": 1739, "pitch": 57, "duration": 10, "velocity": 89}, {"time": 1739, "pitch": 61, "duration": 9, "velocity": 84}, {"time": 1739, "pitch": 64, "duration": 10, "velocity": 89}, {"time": 1745, "pitch": 52, "duration": 10, "velocity": 67}, {"time": 1751, "pitch": 57, "duration": 8, "velocity": 97}, {"time": 1751, "pitch": 61, "duration": 7, "velocity": 105}, {"time": 1751, "pitch": 64, "duration": 7, "velocity": 94}, {"time": 1757, "pitch": 52, "duration": 9, "velocity": 26}, {"time": 1763, "pitch": 61, "duration": 8, "velocity": 92}, {"time": 1763, "pitch": 64, "duration": 7, "velocity": 87}, {"time": 1769, "pitch": 52, "duration": 16, "velocity": 39}, {"time": 1775, "pitch": 57, "duration": 3, "velocity": 105}, {"time": 1775, "pitch": 61, "duration": 7, "velocity": 114}, {"time": 1775, "pitch": 64, "duration": 7, "velocity": 100}, {"time": 1781, "pitch": 57, "duration": 5, "velocity": 80}, {"time": 1787, "pitch": 50, "duration": 47, "velocity": 89}, {"time": 1787, "pitch": 62, "duration": 9, "velocity": 94}, {"time": 1787, "pitch": 66, "duration": 9, "velocity": 66}, {"time": 1799, "pitch": 57, "duration": 3, "velocity": 100}, {"time": 1799, "pitch": 62, "duration": 8, "velocity": 108}, {"time": 1799, "pitch": 66, "duration": 7, "velocity": 97}, {"time": 1805, "pitch": 57, "duration": 4, "velocity": 47}, {"time": 1811, "pitch": 62, "duration": 8, "velocity": 102}, {"time": 1811, "pitch": 66, "duration": 8, "velocity": 92}, {"time": 1817, "pitch": 57, "duration": 4, "velocity": 69}, {"time": 1823, "pitch": 62, "duration": 10, "velocity": 108}, {"time": 1823, "pitch": 66, "duration": 9, "velocity": 100}, {"time": 1829, "pitch": 57, "duration": 4, "velocity": 92}, {"time": 1835, "pitch": 50, "duration": 41, "velocity": 102}, {"time": 1835, "pitch": 62, "duration": 8, "velocity": 76}, {"time": 1835, "pitch": 66, "duration": 8, "velocity": 84}, {"time": 1835, "pitch": 69, "duration": 7, "velocity": 87}, {"time": 1841, "pitch": 57, "duration": 9, "velocity": 71}, {"time": 1847, "pitch": 62, "duration": 11, "velocity": 100}, {"time": 1847, "pitch": 66, "duration": 11, "velocity": 105}, {"time": 1853, "pitch": 57, "duration": 8, "velocity": 25}, {"time": 1859, "pitch": 62, "duration": 9, "velocity": 108}, {"time": 1859, "pitch": 66, "duration": 9, "velocity": 108}, {"time": 1865, "pitch": 57, "duration": 11, "velocity": 50}, {"time": 1871, "pitch": 62, "duration": 4, "velocity": 102}, {"time": 1871, "pitch": 66, "duration": 8, "velocity": 111}, {"time": 1871, "pitch": 69, "duration": 8, "velocity": 105}, {"time": 1877, "pitch": 62, "duration": 3, "velocity": 84}, {"time": 1883, "pitch": 43, "duration": 42, "velocity": 97}, {"time": 1883, "pitch": 59, "duration": 10, "velocity": 97}, {"time": 1883, "pitch": 62, "duration": 10, "velocity": 97}, {"time": 1895, "pitch": 59, "duration": 5, "velocity": 100}, {"time": 1895, "pitch": 62, "duration": 5, "velocity": 100}, {"time": 1901, "pitch": 50, "duration": 10, "velocity": 25}, {"time": 1907, "pitch": 62, "duration": 10, "velocity": 92}, {"time": 1907, "pitch": 67, "duration": 9, "velocity": 89}, {"time": 1913, "pitch": 50, "duration": 13, "velocity": 48}, {"time": 1919, "pitch": 59, "duration": 3, "velocity": 102}, {"time": 1919, "pitch": 62, "duration": 7, "velocity": 105}, {"time": 1919, "pitch": 67, "duration": 8, "velocity": 100}, {"time": 1925, "pitch": 59, "duration": 5, "velocity": 89}, {"time": 1931, "pitch": 45, "duration": 46, "velocity": 97}, {"time": 1931, "pitch": 57, "duration": 10, "velocity": 89}, {"time": 1931, "pitch": 61, "duration": 9, "velocity": 84}, {"time": 1931, "pitch": 64, "duration": 10, "velocity": 89}, {"time": 1937, "pitch": 52, "duration": 10, "velocity": 67}, {"time": 1943, "pitch": 57, "duration": 8, "velocity": 97}, {"time": 1943, "pitch": 61, "duration": 7, "velocity": 105}, {"time": 1943, "pitch": 64, "duration": 7, "velocity": 94}, {"time": 1949, "pitch": 52, "duration": 9, "velocity": 26}, {"time": 1955, "pitch": 61, "duration": 8, "velocity": 92}, {"time": 1955, "pitch": 64, "duration": 7, "velocity": 87}, {"time": 1961, "pitch": 52, "duration": 16, "velocity": 39}, {"time": 1967, "pitch": 57, "duration": 3, "velocity": 105}, {"time": 1967, "pitch": 61, "duration": 7, "velocity": 114}, {"time": 1967, "pitch": 64, "duration": 7, "velocity": 100}, {"time": 1973, "pitch": 57, "duration": 5, "velocity": 80}, {"time": 1979, "pitch": 54, "duration": 35, "velocity": 102}, {"time": 1979, "pitch": 66, "duration": 7, "velocity": 82}, {"time": 1979, "pitch": 70, "duration": 7, "velocity": 93}, {"time": 1985, "pitch": 61, "duration": 3, "velocity": 69}, {"time": 1991, "pitch": 61, "duration": 11, "velocity": 111}, {"time": 1991, "pitch": 66, "duration": 11, "velocity": 108}, {"time": 1997, "pitch": 58, "duration": 9, "velocity": 41}, {"time": 2003, "pitch": 61, "duration": 5, "velocity": 102}, {"time": 2003, "pitch": 66, "duration": 5, "velocity": 97}, {"time": 2003, "pitch": 70, "duration": 6, "velocity": 77}, {"time": 2009, "pitch": 58, "duration": 6, "velocity": 77}, {"time": 2015, "pitch": 54, "duration": 11, "velocity": 102}, {"time": 2015, "pitch": 61, "duration": 11, "velocity": 92}, {"time": 2015, "pitch": 66, "duration": 3, "velocity": 92}, {"time": 2015, "pitch": 70, "duration": 11, "velocity": 93}, {"time": 2015, "pitch": 73, "duration": 11, "velocity": 92}, {"time": 2021, "pitch": 66, "duration": 6, "velocity": 84}, {"time": 2028, "pitch": 47, "duration": 21, "velocity": 99}, {"time": 2031, "pitch": 54, "duration": 5, "velocity": 71}, {"time": 2034, "pitch": 59, "duration": 10, "velocity": 82}, {"time": 2037, "pitch": 63, "duration": 17, "velocity": 104}, {"time": 2046, "pitch": 54, "duration": 4, "velocity": 45}, {"time": 2049, "pitch": 59, "duration": 6, "velocity": 94}, {"time": 2052, "pitch": 47, "duration": 19, "velocity": 94}, {"time": 2055, "pitch": 54, "duration": 6, "velocity": 69}, {"time": 2058, "pitch": 59, "duration": 11, "velocity": 87}, {"time": 2061, "pitch": 63, "duration": 13, "velocity": 101}, {"time": 2070, "pitch": 54, "duration": 2, "velocity": 42}, {"time": 2073, "pitch": 59, "duration": 3, "velocity": 96}, {"time": 2076, "pitch": 40, "duration": 21, "velocity": 101}, {"time": 2079, "pitch": 47, "duration": 6, "velocity": 58}, {"time": 2081, "pitch": 52, "duration": 21, "velocity": 91}, {"time": 2084, "pitch": 59, "duration": 22, "velocity": 99}, {"time": 2094, "pitch": 47, "duration": 4, "velocity": 31}, {"time": 2097, "pitch": 64, "duration": 10, "velocity": 82}, {"time": 2099, "pitch": 40, "duration": 20, "velocity": 101}, {"time": 2102, "pitch": 47, "duration": 8, "velocity": 61}, {"time": 2105, "pitch": 52, "duration": 13, "velocity": 101}, {"time": 2108, "pitch": 59, "duration": 16, "velocity": 109}, {"time": 2117, "pitch": 47, "duration": 5, "velocity": 85}, {"time": 2120, "pitch": 52, "duration": 4, "velocity": 89}, {"time": 2124, "pitch": 42, "duration": 21, "velocity": 101}, {"time": 2127, "pitch": 49, "duration": 6, "velocity": 64}, {"time": 2129, "pitch": 54, "duration": 15, "velocity": 80}, {"time": 2133, "pitch": 61, "duration": 21, "velocity": 106}, {"time": 2142, "pitch": 49, "duration": 3, "velocity": 76}, {"time": 2145, "pitch": 66, "duration": 9, "velocity": 101}, {"time": 2147, "pitch": 42, "duration": 20, "velocity": 101}, {"time": 2150, "pitch": 49, "duration": 16, "velocity": 76}, {"time": 2153, "pitch": 54, "duration": 12, "velocity": 69}, {"time": 2156, "pitch": 61, "duration": 16, "velocity": 99}, {"time": 2166, "pitch": 64, "duration": 8, "velocity": 104}, {"time": 2168, "pitch": 54, "duration": 3, "velocity": 101}, {"time": 2171, "pitch": 47, "duration": 22, "velocity": 101}, {"time": 2175, "pitch": 54, "duration": 6, "velocity": 66}, {"time": 2177, "pitch": 59, "duration": 8, "velocity": 89}, {"time": 2180, "pitch": 63, "duration": 10, "velocity": 112}, {"time": 2186, "pitch": 54, "duration": 7, "velocity": 74}, {"time": 2190, "pitch": 59, "duration": 8, "velocity": 82}, {"time": 2192, "pitch": 66, "duration": 12, "velocity": 101}, {"time": 2195, "pitch": 47, "duration": 21, "velocity": 101}, {"time": 2198, "pitch": 54, "duration": 7, "velocity": 61}, {"time": 2202, "pitch": 59, "duration": 7, "velocity": 82}, {"time": 2204, "pitch": 63, "duration": 10, "velocity": 104}, {"time": 2211, "pitch": 54, "duration": 7, "velocity": 73}, {"time": 2214, "pitch": 59, "duration": 5, "velocity": 67}, {"time": 2217, "pitch": 63, "duration": 8, "velocity": 94}, {"time": 2220, "pitch": 47, "duration": 21, "velocity": 101}, {"time": 2223, "pitch": 54, "duration": 7, "velocity": 71}, {"time": 2226, "pitch": 59, "duration": 10, "velocity": 82}, {"time": 2229, "pitch": 63, "duration": 18, "velocity": 109}, {"time": 2238, "pitch": 54, "duration": 3, "velocity": 67}, {"time": 2241, "pitch": 59, "duration": 6, "velocity": 99}, {"time": 2244, "pitch": 47, "duration": 18, "velocity": 101}, {"time": 2247, "pitch": 54, "duration": 6, "velocity": 78}, {"time": 2250, "pitch": 59, "duration": 3, "velocity": 91}, {"time": 2252, "pitch": 66, "duration": 11, "velocity": 101}, {"time": 2259, "pitch": 54, "duration": 3, "velocity": 82}, {"time": 2262, "pitch": 63, "duration": 4, "velocity": 104}, {"time": 2265, "pitch": 59, "duration": 3, "velocity": 94}, {"time": 2268, "pitch": 40, "duration": 21, "velocity": 91}, {"time": 2271, "pitch": 47, "duration": 8, "velocity": 71}, {"time": 2274, "pitch": 52, "duration": 18, "velocity": 96}, {"time": 2277, "pitch": 59, "duration": 20, "velocity": 106}, {"time": 2285, "pitch": 47, "duration": 4, "velocity": 78}, {"time": 2288, "pitch": 56, "duration": 7, "velocity": 96}, {"time": 2291, "pitch": 40, "duration": 22, "velocity": 104}, {"time": 2294, "pitch": 47, "duration": 7, "velocity": 66}, {"time": 2297, "pitch": 52, "duration": 4, "velocity": 74}, {"time": 2300, "pitch": 64, "duration": 24, "velocity": 106}, {"time": 2306, "pitch": 59, "duration": 10, "velocity": 91}, {"time": 2309, "pitch": 47, "duration": 5, "velocity": 71}, {"time": 2313, "pitch": 52, "duration": 3, "velocity": 67}, {"time": 2316, "pitch": 42, "duration": 21, "velocity": 106}, {"time": 2322, "pitch": 49, "duration": 6, "velocity": 76}, {"time": 2325, "pitch": 54, "duration": 4, "velocity": 80}, {"time": 2328, "pitch": 61, "duration": 7, "velocity": 106}, {"time": 2331, "pitch": 49, "duration": 7, "velocity": 67}, {"time": 2334, "pitch": 54, "duration": 9, "velocity": 85}, {"time": 2337, "pitch": 61, "duration": 15, "velocity": 101}, {"time": 2340, "pitch": 42, "duration": 17, "velocity": 106}, {"time": 2343, "pitch": 49, "duration": 6, "velocity": 67}, {"time": 2346, "pitch": 54, "duration": 3, "velocity": 69}, {"time": 2349, "pitch": 66, "duration": 16, "velocity": 101}, {"time": 2354, "pitch": 61, "duration": 4, "velocity": 96}, {"time": 2357, "pitch": 54, "duration": 4, "velocity": 94}, {"time": 2360, "pitch": 61, "duration": 3, "velocity": 89}, {"time": 2364, "pitch": 47, "duration": 21, "velocity": 101}, {"time": 2367, "pitch": 54, "duration": 6, "velocity": 55}, {"time": 2370, "pitch": 59, "duration": 6, "velocity": 78}, {"time": 2373, "pitch": 63, "duration": 9, "velocity": 109}, {"time": 2382, "pitch": 54, "duration": 3, "velocity": 82}, {"time": 2385, "pitch": 59, "duration": 5, "velocity": 101}, {"time": 2387, "pitch": 47, "duration": 20, "velocity": 104}, {"time": 2390, "pitch": 54, "duration": 7, "velocity": 69}, {"time": 2393, "pitch": 59, "duration": 3, "velocity": 85}, {"time": 2397, "pitch": 64, "duration": 5, "velocity": 112}, {"time": 2400, "pitch": 54, "duration": 5, "velocity": 35}, {"time": 2402, "pitch": 63, "duration": 4, "velocity": 106}, {"time": 2405, "pitch": 59, "duration": 5, "velocity": 99}, {"time": 2412, "pitch": 63, "duration": 6, "velocity": 104}, {"time": 2412, "pitch": 59, "duration": 3, "velocity": 96}, {"time": 2412, "pitch": 47, "duration": 21, "velocity": 101}, {"time": 2415, "pitch": 54, "duration": 6, "velocity": 74}, {"time": 2418, "pitch": 59, "duration": 4, "velocity": 76}, {"time": 2421, "pitch": 66, "duration": 18, "velocity": 104}, {"time": 2429, "pitch": 54, "duration": 5, "velocity": 101}, {"time": 2433, "pitch": 59, "duration": 5, "velocity": 109}, {"time": 2435, "pitch": 47, "duration": 20, "velocity": 101}, {"time": 2438, "pitch": 54, "duration": 7, "velocity": 85}, {"time": 2442, "pitch": 59, "duration": 9, "velocity": 94}, {"time": 2445, "pitch": 63, "duration": 12, "velocity": 109}, {"time": 2454, "pitch": 54, "duration": 2, "velocity": 94}, {"time": 2457, "pitch": 59, "duration": 3, "velocity": 87}, {"time": 2460, "pitch": 44, "duration": 20, "velocity": 101}, {"time": 2462, "pitch": 51, "duration": 6, "velocity": 67}, {"time": 2465, "pitch": 56, "duration": 8, "velocity": 89}, {"time": 2469, "pitch": 59, "duration": 9, "velocity": 109}, {"time": 2475, "pitch": 51, "duration": 6, "velocity": 71}, {"time": 2478, "pitch": 56, "duration": 8, "velocity": 99}, {"time": 2481, "pitch": 59, "duration": 7, "velocity": 85}, {"time": 2484, "pitch": 44, "duration": 19, "velocity": 104}, {"time": 2486, "pitch": 51, "duration": 7, "velocity": 69}, {"time": 2489, "pitch": 56, "duration": 5, "velocity": 96}, {"time": 2492, "pitch": 63, "duration": 10, "velocity": 104}, {"time": 2499, "pitch": 51, "duration": 4, "velocity": 76}, {"time": 2502, "pitch": 59, "duration": 4, "velocity": 94}, {"time": 2504, "pitch": 56, "duration": 4, "velocity": 91}, {"time": 2507, "pitch": 49, "duration": 22, "velocity": 106}, {"time": 2513, "pitch": 61, "duration": 12, "velocity": 91}, {"time": 2516, "pitch": 56, "duration": 9, "velocity": 96}, {"time": 2525, "pitch": 64, "duration": 13, "velocity": 104}, {"time": 2528, "pitch": 56, "duration": 10, "velocity": 96}, {"time": 2531, "pitch": 49, "duration": 21, "velocity": 112}, {"time": 2538, "pitch": 61, "duration": 5, "velocity": 104}, {"time": 2541, "pitch": 56, "duration": 6, "velocity": 99}, {"time": 2547, "pitch": 64, "duration": 7, "velocity": 109}, {"time": 2550, "pitch": 56, "duration": 6, "velocity": 94}, {"time": 2553, "pitch": 61, "duration": 3, "velocity": 96}, {"time": 2556, "pitch": 42, "duration": 21, "velocity": 106}, {"time": 2559, "pitch": 49, "duration": 7, "velocity": 71}, {"time": 2562, "pitch": 54, "duration": 9, "velocity": 91}, {"time": 2565, "pitch": 61, "duration": 17, "velocity": 109}, {"time": 2571, "pitch": 49, "duration": 6, "velocity": 85}, {"time": 2574, "pitch": 54, "duration": 8, "velocity": 99}, {"time": 2577, "pitch": 66, "duration": 9, "velocity": 104}, {"time": 2580, "pitch": 42, "duration": 18, "velocity": 106}, {"time": 2583, "pitch": 49, "duration": 6, "velocity": 82}, {"time": 2586, "pitch": 54, "duration": 9, "velocity": 85}, {"time": 2589, "pitch": 61, "duration": 10, "velocity": 112}, {"time": 2595, "pitch": 49, "duration": 4, "velocity": 76}, {"time": 2598, "pitch": 54, "duration": 3, "velocity": 109}, {"time": 2601, "pitch": 61, "duration": 3, "velocity": 104}, {"time": 2604, "pitch": 47, "duration": 21, "velocity": 106}, {"time": 2607, "pitch": 54, "duration": 7, "velocity": 62}, {"time": 2610, "pitch": 59, "duration": 6, "velocity": 78}, {"time": 2613, "pitch": 63, "duration": 9, "velocity": 115}, {"time": 2619, "pitch": 54, "duration": 7, "velocity": 78}, {"time": 2622, "pitch": 59, "duration": 8, "velocity": 101}, {"time": 2625, "pitch": 66, "duration": 10, "velocity": 99}, {"time": 2628, "pitch": 47, "duration": 18, "velocity": 104}, {"time": 2631, "pitch": 54, "duration": 7, "velocity": 69}, {"time": 2634, "pitch": 59, "duration": 5, "velocity": 82}, {"time": 2637, "pitch": 63, "duration": 8, "velocity": 112}, {"time": 2643, "pitch": 54, "duration": 4, "velocity": 61}, {"time": 2646, "pitch": 59, "duration": 3, "velocity": 87}, {"time": 2649, "pitch": 63, "duration": 7, "velocity": 112}, {"time": 2652, "pitch": 44, "duration": 20, "velocity": 104}, {"time": 2655, "pitch": 51, "duration": 6, "velocity": 71}, {"time": 2658, "pitch": 56, "duration": 3, "velocity": 96}, {"time": 2660, "pitch": 59, "duration": 9, "velocity": 104}, {"time": 2666, "pitch": 51, "duration": 6, "velocity": 62}, {"time": 2669, "pitch": 56, "duration": 9, "velocity": 85}, {"time": 2672, "pitch": 63, "duration": 10, "velocity": 96}, {"time": 2675, "pitch": 44, "duration": 21, "velocity": 106}, {"time": 2678, "pitch": 51, "duration": 7, "velocity": 66}, {"time": 2681, "pitch": 56, "duration": 9, "velocity": 80}, {"time": 2684, "pitch": 59, "duration": 9, "velocity": 104}, {"time": 2691, "pitch": 51, "duration": 5, "velocity": 58}, {"time": 2694, "pitch": 56, "duration": 3, "velocity": 101}, {"time": 2696, "pitch": 59, "duration": 3, "velocity": 87}, {"time": 2699, "pitch": 49, "duration": 21, "velocity": 106}, {"time": 2702, "pitch": 52, "duration": 10, "velocity": 67}, {"time": 2705, "pitch": 56, "duration": 4, "velocity": 91}, {"time": 2708, "pitch": 61, "duration": 10, "velocity": 106}, {"time": 2714, "pitch": 52, "duration": 6, "velocity": 91}, {"time": 2717, "pitch": 56, "duration": 7, "velocity": 101}, {"time": 2720, "pitch": 61, "duration": 7, "velocity": 99}, {"time": 2723, "pitch": 49, "duration": 19, "velocity": 109}, {"time": 2727, "pitch": 56, "duration": 5, "velocity": 99}, {"time": 2729, "pitch": 61, "duration": 4, "velocity": 96}, {"time": 2733, "pitch": 64, "duration": 9, "velocity": 106}, {"time": 2738, "pitch": 61, "duration": 4, "velocity": 91}, {"time": 2741, "pitch": 56, "duration": 5, "velocity": 94}, {"time": 2745, "pitch": 61, "duration": 5, "velocity": 91}, {"time": 2748, "pitch": 42, "duration": 21, "velocity": 106}, {"time": 2750, "pitch": 49, "duration": 7, "velocity": 67}, {"time": 2754, "pitch": 54, "duration": 4, "velocity": 82}, {"time": 2757, "pitch": 61, "duration": 10, "velocity": 104}, {"time": 2763, "pitch": 49, "duration": 6, "velocity": 51}, {"time": 2766, "pitch": 54, "duration": 6, "velocity": 69}, {"time": 2769, "pitch": 61, "duration": 4, "velocity": 85}, {"time": 2769, "pitch": 66, "duration": 6, "velocity": 101}, {"time": 2772, "pitch": 42, "duration": 19, "velocity": 109}, {"time": 2775, "pitch": 49, "duration": 6, "velocity": 80}, {"time": 2778, "pitch": 54, "duration": 3, "velocity": 94}, {"time": 2780, "pitch": 61, "duration": 7, "velocity": 115}, {"time": 2783, "pitch": 49, "duration": 8, "velocity": 89}, {"time": 2786, "pitch": 54, "duration": 3, "velocity": 99}, {"time": 2789, "pitch": 61, "duration": 6, "velocity": 104}, {"time": 2792, "pitch": 54, "duration": 2, "velocity": 78}, {"time": 2796, "pitch": 47, "duration": 21, "velocity": 101}, {"time": 2799, "pitch": 54, "duration": 6, "velocity": 66}, {"time": 2802, "pitch": 59, "duration": 5, "velocity": 76}, {"time": 2805, "pitch": 63, "duration": 9, "velocity": 109}, {"time": 2811, "pitch": 54, "duration": 7, "velocity": 71}, {"time": 2814, "pitch": 59, "duration": 7, "velocity": 94}, {"time": 2817, "pitch": 63, "duration": 6, "velocity": 76}, {"time": 2820, "pitch": 47, "duration": 21, "velocity": 101}, {"time": 2823, "pitch": 54, "duration": 6, "velocity": 59}, {"time": 2826, "pitch": 59, "duration": 4, "velocity": 85}, {"time": 2829, "pitch": 63, "duration": 6, "velocity": 112}, {"time": 2832, "pitch": 54, "duration": 9, "velocity": 66}, {"time": 2835, "pitch": 59, "duration": 3, "velocity": 89}, {"time": 2838, "pitch": 63, "duration": 6, "velocity": 106}, {"time": 2841, "pitch": 59, "duration": 3, "velocity": 96}, {"time": 2844, "pitch": 44, "duration": 21, "velocity": 106}, {"time": 2847, "pitch": 51, "duration": 7, "velocity": 58}, {"time": 2850, "pitch": 56, "duration": 1, "velocity": 96}, {"time": 2853, "pitch": 59, "duration": 9, "velocity": 106}, {"time": 2853, "pitch": 56, "duration": 6, "velocity": 112}, {"time": 2859, "pitch": 51, "duration": 7, "velocity": 91}, {"time": 2862, "pitch": 56, "duration": 4, "velocity": 101}, {"time": 2865, "pitch": 59, "duration": 8, "velocity": 99}, {"time": 2868, "pitch": 44, "duration": 19, "velocity": 104}, {"time": 2871, "pitch": 51, "duration": 7, "velocity": 67}, {"time": 2874, "pitch": 56, "duration": 1, "velocity": 46}, {"time": 2877, "pitch": 59, "duration": 8, "velocity": 106}, {"time": 2877, "pitch": 63, "duration": 8, "velocity": 104}, {"time": 2883, "pitch": 51, "duration": 3, "velocity": 67}, {"time": 2886, "pitch": 56, "duration": 3, "velocity": 106}, {"time": 2889, "pitch": 59, "duration": 7, "velocity": 109}, {"time": 2892, "pitch": 40, "duration": 19, "velocity": 106}, {"time": 2895, "pitch": 47, "duration": 9, "velocity": 67}, {"time": 2897, "pitch": 56, "duration": 4, "velocity": 104}, {"time": 2900, "pitch": 64, "duration": 9, "velocity": 112}, {"time": 2901, "pitch": 59, "duration": 5, "velocity": 94}, {"time": 2906, "pitch": 56, "duration": 4, "velocity": 104}, {"time": 2909, "pitch": 59, "duration": 12, "velocity": 91}, {"time": 2912, "pitch": 64, "duration": 9, "velocity": 101}, {"time": 2915, "pitch": 40, "duration": 21, "velocity": 106}, {"time": 2918, "pitch": 47, "duration": 7, "velocity": 61}, {"time": 2921, "pitch": 56, "duration": 5, "velocity": 78}, {"time": 2925, "pitch": 59, "duration": 9, "velocity": 106}, {"time": 2931, "pitch": 47, "duration": 5, "velocity": 40}, {"time": 2934, "pitch": 56, "duration": 3, "velocity": 96}, {"time": 2936, "pitch": 59, "duration": 10, "velocity": 101}, {"time": 2939, "pitch": 47, "duration": 23, "velocity": 96}, {"time": 2945, "pitch": 54, "duration": 4, "velocity": 89}, {"time": 2949, "pitch": 63, "duration": 6, "velocity": 112}, {"time": 2955, "pitch": 59, "duration": 3, "velocity": 99}, {"time": 2958, "pitch": 54, "duration": 4, "velocity": 89}, {"time": 2961, "pitch": 59, "duration": 3, "velocity": 94}, {"time": 2964, "pitch": 42, "duration": 19, "velocity": 104}, {"time": 2967, "pitch": 49, "duration": 6, "velocity": 71}, {"time": 2970, "pitch": 54, "duration": 4, "velocity": 82}, {"time": 2973, "pitch": 61, "duration": 9, "velocity": 112}, {"time": 2979, "pitch": 49, "duration": 5, "velocity": 99}, {"time": 2982, "pitch": 58, "duration": 3, "velocity": 109}, {"time": 2985, "pitch": 54, "duration": 1, "velocity": 78}, {"time": 2988, "pitch": 47, "duration": 17, "velocity": 101}, {"time": 2988, "pitch": 59, "duration": 7, "velocity": 106}, {"time": 2988, "pitch": 54, "duration": 3, "velocity": 104}, {"time": 2994, "pitch": 54, "duration": 2, "velocity": 61}, {"time": 2997, "pitch": 63, "duration": 6, "velocity": 106}, {"time": 3002, "pitch": 59, "duration": 4, "velocity": 96}, {"time": 3006, "pitch": 54, "duration": 3, "velocity": 85}, {"time": 3009, "pitch": 63, "duration": 4, "velocity": 85}, {"time": 3012, "pitch": 47, "duration": 21, "velocity": 106}, {"time": 3015, "pitch": 54, "duration": 6, "velocity": 61}, {"time": 3018, "pitch": 59, "duration": 1, "velocity": 78}, {"time": 3021, "pitch": 66, "duration": 3, "velocity": 112}, {"time": 3021, "pitch": 59, "duration": 3, "velocity": 109}, {"time": 3027, "pitch": 63, "duration": 3, "velocity": 89}, {"time": 3027, "pitch": 59, "duration": 2, "velocity": 96}, {"time": 3030, "pitch": 54, "duration": 2, "velocity": 82}, {"time": 3033, "pitch": 59, "duration": 3, "velocity": 85}, {"time": 3036, "pitch": 44, "duration": 21, "velocity": 101}, {"time": 3039, "pitch": 51, "duration": 7, "velocity": 69}, {"time": 3042, "pitch": 56, "duration": 1, "velocity": 104}, {"time": 3045, "pitch": 56, "duration": 6, "velocity": 106}, {"time": 3045, "pitch": 59, "duration": 7, "velocity": 106}, {"time": 3051, "pitch": 51, "duration": 6, "velocity": 73}, {"time": 3054, "pitch": 56, "duration": 9, "velocity": 91}, {"time": 3057, "pitch": 63, "duration": 10, "velocity": 101}, {"time": 3060, "pitch": 44, "duration": 19, "velocity": 106}, {"time": 3063, "pitch": 51, "duration": 8, "velocity": 73}, {"time": 3066, "pitch": 56, "duration": 9, "velocity": 101}, {"time": 3068, "pitch": 59, "duration": 8, "velocity": 101}, {"time": 3074, "pitch": 51, "duration": 5, "velocity": 73}, {"time": 3077, "pitch": 56, "duration": 4, "velocity": 104}, {"time": 3080, "pitch": 59, "duration": 5, "velocity": 101}, {"time": 3083, "pitch": 40, "duration": 22, "velocity": 104}, {"time": 3086, "pitch": 47, "duration": 9, "velocity": 67}, {"time": 3089, "pitch": 56, "duration": 4, "velocity": 104}, {"time": 3092, "pitch": 64, "duration": 8, "velocity": 106}, {"time": 3092, "pitch": 59, "duration": 6, "velocity": 106}, {"time": 3098, "pitch": 47, "duration": 7, "velocity": 85}, {"time": 3101, "pitch": 56, "duration": 7, "velocity": 94}, {"time": 3104, "pitch": 59, "duration": 9, "velocity": 104}, {"time": 3107, "pitch": 40, "duration": 21, "velocity": 106}, {"time": 3110, "pitch": 47, "duration": 7, "velocity": 69}, {"time": 3113, "pitch": 56, "duration": 5, "velocity": 96}, {"time": 3116, "pitch": 59, "duration": 10, "velocity": 109}, {"time": 3122, "pitch": 47, "duration": 6, "velocity": 56}, {"time": 3125, "pitch": 56, "duration": 5, "velocity": 94}, {"time": 3129, "pitch": 59, "duration": 3, "velocity": 82}, {"time": 3131, "pitch": 42, "duration": 22, "velocity": 106}, {"time": 3135, "pitch": 49, "duration": 6, "velocity": 62}, {"time": 3137, "pitch": 54, "duration": 4, "velocity": 104}, {"time": 3140, "pitch": 61, "duration": 11, "velocity": 109}, {"time": 3146, "pitch": 49, "duration": 7, "velocity": 89}, {"time": 3150, "pitch": 54, "duration": 4, "velocity": 91}, {"time": 3152, "pitch": 61, "duration": 3, "velocity": 106}, {"time": 3154, "pitch": 54, "duration": 23, "velocity": 85}, {"time": 3155, "pitch": 58, "duration": 23, "velocity": 87}, {"time": 3155, "pitch": 42, "duration": 24, "velocity": 87}, {"time": 3156, "pitch": 61, "duration": 21, "velocity": 71}, {"time": 3180, "pitch": 47, "duration": 22, "velocity": 101}, {"time": 3183, "pitch": 54, "duration": 6, "velocity": 66}, {"time": 3186, "pitch": 59, "duration": 5, "velocity": 76}, {"time": 3189, "pitch": 63, "duration": 9, "velocity": 109}, {"time": 3195, "pitch": 54, "duration": 7, "velocity": 71}, {"time": 3198, "pitch": 59, "duration": 8, "velocity": 94}, {"time": 3202, "pitch": 63, "duration": 6, "velocity": 76}, {"time": 3204, "pitch": 47, "duration": 22, "velocity": 101}, {"time": 3207, "pitch": 54, "duration": 7, "velocity": 59}, {"time": 3210, "pitch": 59, "duration": 4, "velocity": 85}, {"time": 3213, "pitch": 63, "duration": 7, "velocity": 112}, {"time": 3216, "pitch": 54, "duration": 9, "velocity": 66}, {"time": 3220, "pitch": 59, "duration": 2, "velocity": 89}, {"time": 3222, "pitch": 63, "duration": 6, "velocity": 106}, {"time": 3225, "pitch": 59, "duration": 4, "velocity": 96}, {"time": 3228, "pitch": 44, "duration": 21, "velocity": 106}, {"time": 3231, "pitch": 51, "duration": 7, "velocity": 58}, {"time": 3234, "pitch": 56, "duration": 2, "velocity": 96}, {"time": 3237, "pitch": 59, "duration": 9, "velocity": 106}, {"time": 3237, "pitch": 56, "duration": 7, "velocity": 112}, {"time": 3243, "pitch": 51, "duration": 7, "velocity": 91}, {"time": 3246, "pitch": 56, "duration": 4, "velocity": 101}, {"time": 3249, "pitch": 59, "duration": 8, "velocity": 99}, {"time": 3252, "pitch": 44, "duration": 19, "velocity": 104}, {"time": 3255, "pitch": 51, "duration": 7, "velocity": 67}, {"time": 3258, "pitch": 56, "duration": 2, "velocity": 46}, {"time": 3261, "pitch": 59, "duration": 9, "velocity": 106}, {"time": 3261, "pitch": 63, "duration": 8, "velocity": 104}, {"time": 3267, "pitch": 51, "duration": 3, "velocity": 67}, {"time": 3270, "pitch": 56, "duration": 4, "velocity": 106}, {"time": 3273, "pitch": 59, "duration": 8, "velocity": 109}, {"time": 3276, "pitch": 40, "duration": 19, "velocity": 106}, {"time": 3279, "pitch": 47, "duration": 10, "velocity": 67}, {"time": 3282, "pitch": 56, "duration": 3, "velocity": 104}, {"time": 3285, "pitch": 64, "duration": 8, "velocity": 112}, {"time": 3285, "pitch": 59, "duration": 5, "velocity": 94}, {"time": 3290, "pitch": 56, "duration": 4, "velocity": 104}, {"time": 3293, "pitch": 59, "duration": 12, "velocity": 91}, {"time": 3296, "pitch": 64, "duration": 10, "velocity": 101}, {"time": 3299, "pitch": 40, "duration": 21, "velocity": 106}, {"time": 3302, "pitch": 47, "duration": 8, "velocity": 61}, {"time": 3306, "pitch": 56, "duration": 4, "velocity": 78}, {"time": 3309, "pitch": 59, "duration": 9, "velocity": 106}, {"time": 3315, "pitch": 47, "duration": 5, "velocity": 40}, {"time": 3318, "pitch": 56, "duration": 4, "velocity": 96}, {"time": 3321, "pitch": 59, "duration": 9, "velocity": 101}, {"time": 3324, "pitch": 47, "duration": 22, "velocity": 96}, {"time": 3330, "pitch": 54, "duration": 3, "velocity": 89}, {"time": 3333, "pitch": 63, "duration": 7, "velocity": 112}, {"time": 3339, "pitch": 59, "duration": 3, "velocity": 99}, {"time": 3342, "pitch": 54, "duration": 5, "velocity": 89}, {"time": 3345, "pitch": 59, "duration": 3, "velocity": 94}, {"time": 3348, "pitch": 42, "duration": 20, "velocity": 104}, {"time": 3351, "pitch": 49, "duration": 7, "velocity": 71}, {"time": 3354, "pitch": 54, "duration": 4, "velocity": 82}, {"time": 3357, "pitch": 61, "duration": 9, "velocity": 112}, {"time": 3363, "pitch": 49, "duration": 5, "velocity": 99}, {"time": 3366, "pitch": 58, "duration": 3, "velocity": 109}, {"time": 3369, "pitch": 54, "duration": 2, "velocity": 78}, {"time": 3372, "pitch": 47, "duration": 17, "velocity": 101}, {"time": 3372, "pitch": 59, "duration": 8, "velocity": 106}, {"time": 3372, "pitch": 54, "duration": 4, "velocity": 104}, {"time": 3378, "pitch": 54, "duration": 2, "velocity": 61}, {"time": 3381, "pitch": 63, "duration": 6, "velocity": 106}, {"time": 3387, "pitch": 59, "duration": 4, "velocity": 96}, {"time": 3390, "pitch": 54, "duration": 3, "velocity": 85}, {"time": 3393, "pitch": 63, "duration": 5, "velocity": 85}, {"time": 3396, "pitch": 47, "duration": 21, "velocity": 106}, {"time": 3399, "pitch": 54, "duration": 7, "velocity": 61}, {"time": 3402, "pitch": 59, "duration": 2, "velocity": 78}, {"time": 3405, "pitch": 66, "duration": 4, "velocity": 112}, {"time": 3405, "pitch": 59, "duration": 3, "velocity": 109}, {"time": 3411, "pitch": 63, "duration": 3, "velocity": 89}, {"time": 3411, "pitch": 59, "duration": 3, "velocity": 96}, {"time": 3414, "pitch": 54, "duration": 2, "velocity": 82}, {"time": 3417, "pitch": 59, "duration": 3, "velocity": 85}, {"time": 3420, "pitch": 44, "duration": 21, "velocity": 101}, {"time": 3423, "pitch": 51, "duration": 7, "velocity": 69}, {"time": 3426, "pitch": 56, "duration": 2, "velocity": 104}, {"time": 3429, "pitch": 56, "duration": 6, "velocity": 106}, {"time": 3429, "pitch": 59, "duration": 8, "velocity": 106}, {"time": 3435, "pitch": 51, "duration": 7, "velocity": 73}, {"time": 3439, "pitch": 56, "duration": 8, "velocity": 91}, {"time": 3441, "pitch": 63, "duration": 10, "velocity": 101}, {"time": 3444, "pitch": 44, "duration": 20, "velocity": 106}, {"time": 3447, "pitch": 51, "duration": 9, "velocity": 73}, {"time": 3450, "pitch": 56, "duration": 9, "velocity": 101}, {"time": 3453, "pitch": 59, "duration": 7, "velocity": 101}, {"time": 3459, "pitch": 51, "duration": 4, "velocity": 73}, {"time": 3462, "pitch": 56, "duration": 4, "velocity": 104}, {"time": 3465, "pitch": 59, "duration": 4, "velocity": 101}, {"time": 3468, "pitch": 40, "duration": 22, "velocity": 104}, {"time": 3470, "pitch": 47, "duration": 9, "velocity": 67}, {"time": 3473, "pitch": 56, "duration": 4, "velocity": 104}, {"time": 3476, "pitch": 64, "duration": 9, "velocity": 106}, {"time": 3476, "pitch": 59, "duration": 7, "velocity": 106}, {"time": 3482, "pitch": 47, "duration": 7, "velocity": 85}, {"time": 3485, "pitch": 56, "duration": 8, "velocity": 94}, {"time": 3489, "pitch": 59, "duration": 8, "velocity": 104}, {"time": 3492, "pitch": 40, "duration": 21, "velocity": 106}, {"time": 3495, "pitch": 47, "duration": 6, "velocity": 69}, {"time": 3498, "pitch": 56, "duration": 4, "velocity": 96}, {"time": 3501, "pitch": 59, "duration": 9, "velocity": 109}, {"time": 3507, "pitch": 47, "duration": 6, "velocity": 56}, {"time": 3510, "pitch": 56, "duration": 5, "velocity": 94}, {"time": 3513, "pitch": 59, "duration": 3, "velocity": 82}, {"time": 3516, "pitch": 42, "duration": 22, "velocity": 106}, {"time": 3519, "pitch": 49, "duration": 7, "velocity": 62}, {"time": 3522, "pitch": 54, "duration": 4, "velocity": 104}, {"time": 3525, "pitch": 61, "duration": 10, "velocity": 109}, {"time": 3531, "pitch": 49, "duration": 6, "velocity": 89}, {"time": 3534, "pitch": 54, "duration": 4, "velocity": 91}, {"time": 3537, "pitch": 61, "duration": 2, "velocity": 106}, {"time": 3539, "pitch": 54, "duration": 22, "velocity": 85}, {"time": 3539, "pitch": 58, "duration": 23, "velocity": 87}, {"time": 3540, "pitch": 42, "duration": 23, "velocity": 87}, {"time": 3540, "pitch": 61, "duration": 21, "velocity": 71}, {"time": 3563, "pitch": 47, "duration": 39, "velocity": 97}, {"time": 3569, "pitch": 54, "duration": 9, "velocity": 71}, {"time": 3575, "pitch": 59, "duration": 9, "velocity": 105}, {"time": 3581, "pitch": 54, "duration": 9, "velocity": 42}, {"time": 3587, "pitch": 59, "duration": 10, "velocity": 64}, {"time": 3587, "pitch": 63, "duration": 9, "velocity": 80}, {"time": 3593, "pitch": 54, "duration": 8, "velocity": 38}, {"time": 3599, "pitch": 59, "duration": 7, "velocity": 84}, {"time": 3599, "pitch": 63, "duration": 6, "velocity": 84}, {"time": 3599, "pitch": 66, "duration": 7, "velocity": 84}, {"time": 3611, "pitch": 40, "duration": 41, "velocity": 82}, {"time": 3611, "pitch": 52, "duration": 25, "velocity": 57}, {"time": 3611, "pitch": 56, "duration": 14, "velocity": 76}, {"time": 3617, "pitch": 47, "duration": 9, "velocity": 41}, {"time": 3623, "pitch": 59, "duration": 20, "velocity": 80}, {"time": 3629, "pitch": 47, "duration": 9, "velocity": 40}, {"time": 3635, "pitch": 64, "duration": 13, "velocity": 94}, {"time": 3641, "pitch": 47, "duration": 35, "velocity": 13}, {"time": 3647, "pitch": 40, "duration": 5, "velocity": 82}, {"time": 3647, "pitch": 47, "duration": 29, "velocity": 13}, {"time": 3647, "pitch": 56, "duration": 37, "velocity": 82}, {"time": 3647, "pitch": 59, "duration": 39, "velocity": 87}, {"time": 3647, "pitch": 64, "duration": 1, "velocity": 94}], "annotations": [{"time": 70, "annotation": {"number": 64, "value": 127}, "group": "control_change"}, {"time": 118, "annotation": {"number": 64, "value": 0}, "group": "control_change"}, {"time": 120, "annotation": {"number": 64, "value": 127}, "group": "control_change"}, {"time": 166, "annotation": {"number": 64, "value": 0}, "group": "control_change"}, {"time": 168, "annotation": {"number": 64, "value": 127}, "group": "control_change"}, {"time": 214, "annotation": {"number": 64, "value": 0}, "group": "control_change"}, {"time": 216, "annotation": {"number": 64, "value": 127}, "group": "control_change"}, {"time": 262, "annotation": {"number": 64, "value": 0}, "group": "control_change"}, {"time": 263, "annotation": {"number": 64, "value": 127}, "group": "control_change"}, {"time": 309, "annotation": {"number": 64, "value": 0}, "group": "control_change"}, {"time": 311, "annotation": {"number": 64, "value": 127}, "group": "control_change"}, {"time": 357, "annotation": {"number": 64, "value": 0}, "group": "control_change"}, {"time": 360, "annotation": {"number": 64, "value": 127}, "group": "control_change"}, {"time": 405, "annotation": {"number": 64, "value": 0}, "group": "control_change"}, {"time": 407, "annotation": {"number": 64, "value": 127}, "group": "control_change"}, {"time": 451, "annotation": {"number": 64, "value": 0}, "group": "control_change"}, {"time": 458, "annotation": {"number": 64, "value": 127}, "group": "control_change"}, {"time": 480, "annotation": {"number": 64, "value": 0}, "group": "control_change"}, {"time": 482, "annotation": {"number": 64, "value": 127}, "group": "control_change"}, {"time": 502, "annotation": {"number": 64, "value": 0}, "group": "control_change"}, {"time": 504, "annotation": {"number": 64, "value": 127}, "group": "control_change"}, {"time": 528, "annotation": {"number": 64, "value": 0}, "group": "control_change"}, {"time": 530, "annotation": {"number": 64, "value": 127}, "group": "control_change"}, {"time": 551, "annotation": {"number": 64, "value": 0}, "group": "control_change"}, {"time": 554, "annotation": {"number": 64, "value": 127}, "group": "control_change"}, {"time": 575, "annotation": {"number": 64, "value": 0}, "group": "control_change"}, {"time": 577, "annotation": {"number": 64, "value": 127}, "group": "control_change"}, {"time": 598, "annotation": {"number": 64, "value": 0}, "group": "control_change"}, {"time": 600, "annotation": {"number": 64, "value": 127}, "group": "control_change"}, {"time": 623, "annotation": {"number": 64, "value": 0}, "group": "control_change"}, {"time": 625, "annotation": {"number": 64, "value": 127}, "group": "control_change"}, {"time": 647, "annotation": {"number": 64, "value": 0}, "group": "control_change"}, {"time": 652, "annotation": {"number": 64, "value": 127}, "group": "control_change"}, {"time": 671, "annotation": {"number": 64, "value": 0}, "group": "control_change"}, {"time": 674, "annotation": {"number": 64, "value": 127}, "group": "control_change"}, {"time": 694, "annotation": {"number": 64, "value": 0}, "group": "control_change"}, {"time": 697, "annotation": {"number": 64, "value": 127}, "group": "control_change"}, {"time": 718, "annotation": {"number": 64, "value": 0}, "group": "control_change"}, {"time": 721, "annotation": {"number": 64, "value": 127}, "group": "control_change"}, {"time": 744, "annotation": {"number": 64, "value": 0}, "group": "control_change"}, {"time": 747, "annotation": {"number": 64, "value": 127}, "group": "control_change"}, {"time": 767, "annotation": {"number": 64, "value": 0}, "group": "control_change"}, {"time": 770, "annotation": {"number": 64, "value": 127}, "group": "control_change"}, {"time": 791, "annotation": {"number": 64, "value": 0}, "group": "control_change"}, {"time": 793, "annotation": {"number": 64, "value": 127}, "group": "control_change"}, {"time": 815, "annotation": {"number": 64, "value": 0}, "group": "control_change"}, {"time": 817, "annotation": {"number": 64, "value": 127}, "group": "control_change"}, {"time": 839, "annotation": {"number": 64, "value": 0}, "group": "control_change"}, {"time": 841, "annotation": {"number": 64, "value": 127}, "group": "control_change"}, {"time": 862, "annotation": {"number": 64, "value": 0}, "group": "control_change"}, {"time": 866, "annotation": {"number": 64, "value": 127}, "group": "control_change"}, {"time": 886, "annotation": {"number": 64, "value": 0}, "group": "control_change"}, {"time": 889, "annotation": {"number": 64, "value": 127}, "group": "control_change"}, {"time": 911, "annotation": {"number": 64, "value": 0}, "group": "control_change"}, {"time": 914, "annotation": {"number": 64, "value": 127}, "group": "control_change"}, {"time": 934, "annotation": {"number": 64, "value": 0}, "group": "control_change"}, {"time": 936, "annotation": {"number": 64, "value": 127}, "group": "control_change"}, {"time": 958, "annotation": {"number": 64, "value": 0}, "group": "control_change"}, {"time": 960, "annotation": {"number": 64, "value": 127}, "group": "control_change"}, {"time": 982, "annotation": {"number": 64, "value": 0}, "group": "control_change"}, {"time": 985, "annotation": {"number": 64, "value": 127}, "group": "control_change"}, {"time": 1007, "annotation": {"number": 64, "value": 0}, "group": "control_change"}, {"time": 1010, "annotation": {"number": 64, "value": 127}, "group": "control_change"}, {"time": 1030, "annotation": {"number": 64, "value": 0}, "group": "control_change"}, {"time": 1032, "annotation": {"number": 64, "value": 127}, "group": "control_change"}, {"time": 1055, "annotation": {"number": 64, "value": 0}, "group": "control_change"}, {"time": 1058, "annotation": {"number": 64, "value": 127}, "group": "control_change"}, {"time": 1078, "annotation": {"number": 64, "value": 0}, "group": "control_change"}, {"time": 1083, "annotation": {"number": 64, "value": 127}, "group": "control_change"}, {"time": 1103, "annotation": {"number": 64, "value": 0}, "group": "control_change"}, {"time": 1105, "annotation": {"number": 64, "value": 127}, "group": "control_change"}, {"time": 1126, "annotation": {"number": 64, "value": 0}, "group": "control_change"}, {"time": 1129, "annotation": {"number": 64, "value": 127}, "group": "control_change"}, {"time": 1150, "annotation": {"number": 64, "value": 0}, "group": "control_change"}, {"time": 1153, "annotation": {"number": 64, "value": 127}, "group": "control_change"}, {"time": 1174, "annotation": {"number": 64, "value": 0}, "group": "control_change"}, {"time": 1179, "annotation": {"number": 64, "value": 127}, "group": "control_change"}, {"time": 1199, "annotation": {"number": 64, "value": 0}, "group": "control_change"}, {"time": 1202, "annotation": {"number": 64, "value": 127}, "group": "control_change"}, {"time": 1223, "annotation": {"number": 64, "value": 0}, "group": "control_change"}, {"time": 1225, "annotation": {"number": 64, "value": 127}, "group": "control_change"}, {"time": 1247, "annotation": {"number": 64, "value": 0}, "group": "control_change"}, {"time": 1249, "annotation": {"number": 64, "value": 127}, "group": "control_change"}, {"time": 1272, "annotation": {"number": 64, "value": 0}, "group": "control_change"}, {"time": 1274, "annotation": {"number": 64, "value": 127}, "group": "control_change"}, {"time": 1295, "annotation": {"number": 64, "value": 0}, "group": "control_change"}, {"time": 1297, "annotation": {"number": 64, "value": 127}, "group": "control_change"}, {"time": 1318, "annotation": {"number": 64, "value": 0}, "group": "control_change"}, {"time": 1321, "annotation": {"number": 64, "value": 127}, "group": "control_change"}, {"time": 1342, "annotation": {"number": 64, "value": 0}, "group": "control_change"}, {"time": 1345, "annotation": {"number": 64, "value": 127}, "group": "control_change"}, {"time": 1367, "annotation": {"number": 64, "value": 0}, "group": "control_change"}, {"time": 1369, "annotation": {"number": 64, "value": 127}, "group": "control_change"}, {"time": 1390, "annotation": {"number": 64, "value": 0}, "group": "control_change"}, {"time": 1393, "annotation": {"number": 64, "value": 127}, "group": "control_change"}, {"time": 1415, "annotation": {"number": 64, "value": 0}, "group": "control_change"}, {"time": 1417, "annotation": {"number": 64, "value": 127}, "group": "control_change"}, {"time": 1438, "annotation": {"number": 64, "value": 0}, "group": "control_change"}, {"time": 1441, "annotation": {"number": 64, "value": 127}, "group": "control_change"}, {"time": 1463, "annotation": {"number": 64, "value": 0}, "group": "control_change"}, {"time": 1466, "annotation": {"number": 64, "value": 127}, "group": "control_change"}, {"time": 1486, "annotation": {"number": 64, "value": 0}, "group": "control_change"}, {"time": 1495, "annotation": {"number": 64, "value": 127}, "group": "control_change"}, {"time": 1510, "annotation": {"number": 64, "value": 0}, "group": "control_change"}, {"time": 1513, "annotation": {"number": 64, "value": 127}, "group": "control_change"}, {"time": 1534, "annotation": {"number": 64, "value": 0}, "group": "control_change"}, {"time": 1537, "annotation": {"number": 64, "value": 127}, "group": "control_change"}, {"time": 1558, "annotation": {"number": 64, "value": 0}, "group": "control_change"}, {"time": 1562, "annotation": {"number": 64, "value": 127}, "group": "control_change"}, {"time": 1583, "annotation": {"number": 64, "value": 0}, "group": "control_change"}, {"time": 1584, "annotation": {"number": 64, "value": 127}, "group": "control_change"}, {"time": 1585, "annotation": {"number": 64, "value": 127}, "group": "control_change"}, {"time": 1608, "annotation": {"number": 64, "value": 127}, "group": "control_change"}, {"time": 1610, "annotation": {"number": 64, "value": 0}, "group": "control_change"}, {"time": 1616, "annotation": {"number": 64, "value": 127}, "group": "control_change"}, {"time": 1639, "annotation": {"number": 64, "value": 0}, "group": "control_change"}, {"time": 1642, "annotation": {"number": 64, "value": 0}, "group": "control_change"}, {"time": 1648, "annotation": {"number": 64, "value": 127}, "group": "control_change"}, {"time": 1648, "annotation": {"number": 64, "value": 0}, "group": "control_change"}, {"time": 1693, "annotation": {"number": 64, "value": 0}, "group": "control_change"}, {"time": 1697, "annotation": {"number": 64, "value": 127}, "group": "control_change"}, {"time": 1738, "annotation": {"number": 64, "value": 0}, "group": "control_change"}, {"time": 1745, "annotation": {"number": 64, "value": 127}, "group": "control_change"}, {"time": 1774, "annotation": {"number": 64, "value": 0}, "group": "control_change"}, {"time": 1780, "annotation": {"number": 64, "value": 127}, "group": "control_change"}, {"time": 1785, "annotation": {"number": 64, "value": 0}, "group": "control_change"}, {"time": 1790, "annotation": {"number": 64, "value": 127}, "group": "control_change"}, {"time": 1813, "annotation": {"number": 64, "value": 0}, "group": "control_change"}, {"time": 1816, "annotation": {"number": 64, "value": 127}, "group": "control_change"}, {"time": 1833, "annotation": {"number": 64, "value": 0}, "group": "control_change"}, {"time": 1840, "annotation": {"number": 64, "value": 127}, "group": "control_change"}, {"time": 1885, "annotation": {"number": 64, "value": 0}, "group": "control_change"}, {"time": 1889, "annotation": {"number": 64, "value": 127}, "group": "control_change"}, {"time": 1930, "annotation": {"number": 64, "value": 0}, "group": "control_change"}, {"time": 1937, "annotation": {"number": 64, "value": 127}, "group": "control_change"}, {"time": 1966, "annotation": {"number": 64, "value": 0}, "group": "control_change"}, {"time": 1972, "annotation": {"number": 64, "value": 127}, "group": "control_change"}, {"time": 1977, "annotation": {"number": 64, "value": 0}, "group": "control_change"}, {"time": 1980, "annotation": {"number": 64, "value": 127}, "group": "control_change"}, {"time": 2026, "annotation": {"number": 64, "value": 0}, "group": "control_change"}, {"time": 2030, "annotation": {"number": 64, "value": 127}, "group": "control_change"}, {"time": 2052, "annotation": {"number": 64, "value": 0}, "group": "control_change"}, {"time": 2054, "annotation": {"number": 64, "value": 127}, "group": "control_change"}, {"time": 2074, "annotation": {"number": 64, "value": 0}, "group": "control_change"}, {"time": 2076, "annotation": {"number": 64, "value": 127}, "group": "control_change"}, {"time": 2100, "annotation": {"number": 64, "value": 0}, "group": "control_change"}, {"time": 2102, "annotation": {"number": 64, "value": 127}, "group": "control_change"}, {"time": 2123, "annotation": {"number": 64, "value": 0}, "group": "control_change"}, {"time": 2126, "annotation": {"number": 64, "value": 127}, "group": "control_change"}, {"time": 2147, "annotation": {"number": 64, "value": 0}, "group": "control_change"}, {"time": 2149, "annotation": {"number": 64, "value": 127}, "group": "control_change"}, {"time": 2170, "annotation": {"number": 64, "value": 0}, "group": "control_change"}, {"time": 2172, "annotation": {"number": 64, "value": 127}, "group": "control_change"}, {"time": 2195, "annotation": {"number": 64, "value": 0}, "group": "control_change"}, {"time": 2197, "annotation": {"number": 64, "value": 127}, "group": "control_change"}, {"time": 2219, "annotation": {"number": 64, "value": 0}, "group": "control_change"}, {"time": 2224, "annotation": {"number": 64, "value": 127}, "group": "control_change"}, {"time": 2243, "annotation": {"number": 64, "value": 0}, "group": "control_change"}, {"time": 2246, "annotation": {"number": 64, "value": 127}, "group": "control_change"}, {"time": 2266, "annotation": {"number": 64, "value": 0}, "group": "control_change"}, {"time": 2269, "annotation": {"number": 64, "value": 127}, "group": "control_change"}, {"time": 2290, "annotation": {"number": 64, "value": 0}, "group": "control_change"}, {"time": 2293, "annotation": {"number": 64, "value": 127}, "group": "control_change"}, {"time": 2316, "annotation": {"number": 64, "value": 0}, "group": "control_change"}, {"time": 2319, "annotation": {"number": 64, "value": 127}, "group": "control_change"}, {"time": 2339, "annotation": {"number": 64, "value": 0}, "group": "control_change"}, {"time": 2342, "annotation": {"number": 64, "value": 127}, "group": "control_change"}, {"time": 2363, "annotation": {"number": 64, "value": 0}, "group": "control_change"}, {"time": 2365, "annotation": {"number": 64, "value": 127}, "group": "control_change"}, {"time": 2387, "annotation": {"number": 64, "value": 0}, "group": "control_change"}, {"time": 2389, "annotation": {"number": 64, "value": 127}, "group": "control_change"}, {"time": 2411, "annotation": {"number": 64, "value": 0}, "group": "control_change"}, {"time": 2413, "annotation": {"number": 64, "value": 127}, "group": "control_change"}, {"time": 2434, "annotation": {"number": 64, "value": 0}, "group": "control_change"}, {"time": 2438, "annotation": {"number": 64, "value": 127}, "group": "control_change"}, {"time": 2458, "annotation": {"number": 64, "value": 0}, "group": "control_change"}, {"time": 2461, "annotation": {"number": 64, "value": 127}, "group": "control_change"}, {"time": 2483, "annotation": {"number": 64, "value": 0}, "group": "control_change"}, {"time": 2486, "annotation": {"number": 64, "value": 127}, "group": "control_change"}, {"time": 2506, "annotation": {"number": 64, "value": 0}, "group": "control_change"}, {"time": 2508, "annotation": {"number": 64, "value": 127}, "group": "control_change"}, {"time": 2530, "annotation": {"number": 64, "value": 0}, "group": "control_change"}, {"time": 2532, "annotation": {"number": 64, "value": 127}, "group": "control_change"}, {"time": 2554, "annotation": {"number": 64, "value": 0}, "group": "control_change"}, {"time": 2557, "annotation": {"number": 64, "value": 127}, "group": "control_change"}, {"time": 2579, "annotation": {"number": 64, "value": 0}, "group": "control_change"}, {"time": 2582, "annotation": {"number": 64, "value": 127}, "group": "control_change"}, {"time": 2602, "annotation": {"number": 64, "value": 0}, "group": "control_change"}, {"time": 2604, "annotation": {"number": 64, "value": 127}, "group": "control_change"}, {"time": 2627, "annotation": {"number": 64, "value": 0}, "group": "control_change"}, {"time": 2630, "annotation": {"number": 64, "value": 127}, "group": "control_change"}, {"time": 2650, "annotation": {"number": 64, "value": 0}, "group": "control_change"}, {"time": 2655, "annotation": {"number": 64, "value": 127}, "group": "control_change"}, {"time": 2675, "annotation": {"number": 64, "value": 0}, "group": "control_change"}, {"time": 2677, "annotation": {"number": 64, "value": 127}, "group": "control_change"}, {"time": 2698, "annotation": {"number": 64, "value": 0}, "group": "control_change"}, {"time": 2701, "annotation": {"number": 64, "value": 127}, "group": "control_change"}, {"time": 2722, "annotation": {"number": 64, "value": 0}, "group": "control_change"}, {"time": 2725, "annotation": {"number": 64, "value": 127}, "group": "control_change"}, {"time": 2746, "annotation": {"number": 64, "value": 0}, "group": "control_change"}, {"time": 2751, "annotation": {"number": 64, "value": 127}, "group": "control_change"}, {"time": 2771, "annotation": {"number": 64, "value": 0}, "group": "control_change"}, {"time": 2774, "annotation": {"number": 64, "value": 127}, "group": "control_change"}, {"time": 2795, "annotation": {"number": 64, "value": 0}, "group": "control_change"}, {"time": 2797, "annotation": {"number": 64, "value": 127}, "group": "control_change"}, {"time": 2819, "annotation": {"number": 64, "value": 0}, "group": "control_change"}, {"time": 2821, "annotation": {"number": 64, "value": 127}, "group": "control_change"}, {"time": 2844, "annotation": {"number": 64, "value": 0}, "group": "control_change"}, {"time": 2846, "annotation": {"number": 64, "value": 127}, "group": "control_change"}, {"time": 2867, "annotation": {"number": 64, "value": 0}, "group": "control_change"}, {"time": 2869, "annotation": {"number": 64, "value": 127}, "group": "control_change"}, {"time": 2890, "annotation": {"number": 64, "value": 0}, "group": "control_change"}, {"time": 2893, "annotation": {"number": 64, "value": 127}, "group": "control_change"}, {"time": 2914, "annotation": {"number": 64, "value": 0}, "group": "control_change"}, {"time": 2917, "annotation": {"number": 64, "value": 127}, "group": "control_change"}, {"time": 2939, "annotation": {"number": 64, "value": 0}, "group": "control_change"}, {"time": 2941, "annotation": {"number": 64, "value": 127}, "group": "control_change"}, {"time": 2962, "annotation": {"number": 64, "value": 0}, "group": "control_change"}, {"time": 2965, "annotation": {"number": 64, "value": 127}, "group": "control_change"}, {"time": 2987, "annotation": {"number": 64, "value": 0}, "group": "control_change"}, {"time": 2989, "annotation": {"number": 64, "value": 127}, "group": "control_change"}, {"time": 3010, "annotation": {"number": 64, "value": 0}, "group": "control_change"}, {"time": 3013, "annotation": {"number": 64, "value": 127}, "group": "control_change"}, {"time": 3035, "annotation": {"number": 64, "value": 0}, "group": "control_change"}, {"time": 3038, "annotation": {"number": 64, "value": 127}, "group": "control_change"}, {"time": 3058, "annotation": {"number": 64, "value": 0}, "group": "control_change"}, {"time": 3067, "annotation": {"number": 64, "value": 127}, "group": "control_change"}, {"time": 3082, "annotation": {"number": 64, "value": 0}, "group": "control_change"}, {"time": 3085, "annotation": {"number": 64, "value": 127}, "group": "control_change"}, {"time": 3106, "annotation": {"number": 64, "value": 0}, "group": "control_change"}, {"time": 3109, "annotation": {"number": 64, "value": 127}, "group": "control_change"}, {"time": 3130, "annotation": {"number": 64, "value": 0}, "group": "control_change"}, {"time": 3134, "annotation": {"number": 64, "value": 127}, "group": "control_change"}, {"time": 3155, "annotation": {"number": 64, "value": 0}, "group": "control_change"}, {"time": 3156, "annotation": {"number": 64, "value": 127}, "group": "control_change"}, {"time": 3157, "annotation": {"number": 64, "value": 127}, "group": "control_change"}, {"time": 3182, "annotation": {"number": 64, "value": 127}, "group": "control_change"}, {"time": 3203, "annotation": {"number": 64, "value": 0}, "group": "control_change"}, {"time": 3205, "annotation": {"number": 64, "value": 127}, "group": "control_change"}, {"time": 3228, "annotation": {"number": 64, "value": 0}, "group": "control_change"}, {"time": 3231, "annotation": {"number": 64, "value": 127}, "group": "control_change"}, {"time": 3251, "annotation": {"number": 64, "value": 0}, "group": "control_change"}, {"time": 3254, "annotation": {"number": 64, "value": 127}, "group": "control_change"}, {"time": 3275, "annotation": {"number": 64, "value": 0}, "group": "control_change"}, {"time": 3277, "annotation": {"number": 64, "value": 127}, "group": "control_change"}, {"time": 3299, "annotation": {"number": 64, "value": 0}, "group": "control_change"}, {"time": 3301, "annotation": {"number": 64, "value": 127}, "group": "control_change"}, {"time": 3323, "annotation": {"number": 64, "value": 0}, "group": "control_change"}, {"time": 3326, "annotation": {"number": 64, "value": 127}, "group": "control_change"}, {"time": 3346, "annotation": {"number": 64, "value": 0}, "group": "control_change"}, {"time": 3350, "annotation": {"number": 64, "value": 127}, "group": "control_change"}, {"time": 3371, "annotation": {"number": 64, "value": 0}, "group": "control_change"}, {"time": 3373, "annotation": {"number": 64, "value": 127}, "group": "control_change"}, {"time": 3395, "annotation": {"number": 64, "value": 0}, "group": "control_change"}, {"time": 3397, "annotation": {"number": 64, "value": 127}, "group": "control_change"}, {"time": 3420, "annotation": {"number": 64, "value": 0}, "group": "control_change"}, {"time": 3423, "annotation": {"number": 64, "value": 127}, "group": "control_change"}, {"time": 3442, "annotation": {"number": 64, "value": 0}, "group": "control_change"}, {"time": 3452, "annotation": {"number": 64, "value": 127}, "group": "control_change"}, {"time": 3467, "annotation": {"number": 64, "value": 0}, "group": "control_change"}, {"time": 3470, "annotation": {"number": 64, "value": 127}, "group": "control_change"}, {"time": 3491, "annotation": {"number": 64, "value": 0}, "group": "control_change"}, {"time": 3493, "annotation": {"number": 64, "value": 127}, "group": "control_change"}, {"time": 3515, "annotation": {"number": 64, "value": 0}, "group": "control_change"}, {"time": 3518, "annotation": {"number": 64, "value": 127}, "group": "control_change"}, {"time": 3540, "annotation": {"number": 64, "value": 0}, "group": "control_change"}, {"time": 3541, "annotation": {"number": 64, "value": 127}, "group": "control_change"}, {"time": 3563, "annotation": {"number": 64, "value": 127}, "group": "control_change"}, {"time": 3577, "annotation": {"number": 64, "value": 0}, "group": "control_change"}, {"time": 3613, "annotation": {"number": 64, "value": 0}, "group": "control_change"}, {"time": 3618, "annotation": {"number": 64, "value": 127}, "group": "control_change"}, {"time": 3647, "annotation": {"number": 64, "value": 127}, "group": "control_change"}, {"time": 3684, "annotation": {"number": 64, "value": 127}, "group": "control_change"}, {"time": 3697, "annotation": {"number": 64, "value": 0}, "group": "control_change"}]}]}