{"metadata": {"schema_version": "0.2", "title": "None", "source_filename": "115.mid", "source_format": "midi"}, "resolution": 12, "tempos": [{"time": 0, "qpm": 80.0}, {"time": 4257, "qpm": 78.9999657666815}, {"time": 4272, "qpm": 75.99996960001216}, {"time": 4284, "qpm": 72.00002880001152}], "key_signatures": [{"time": 0, "root": 0, "mode": "major"}], "time_signatures": [{"time": 0, "numerator": 1, "denominator": 4}], "tracks": [{"program": 0, "is_drum": false, "name": "MELODY", "notes": [{"time": 252, "pitch": 55, "duration": 4, "velocity": 92}, {"time": 258, "pitch": 62, "duration": 4, "velocity": 108}, {"time": 264, "pitch": 62, "duration": 4, "velocity": 92}, {"time": 270, "pitch": 60, "duration": 4, "velocity": 94}, {"time": 276, "pitch": 62, "duration": 18, "velocity": 97}, {"time": 300, "pitch": 60, "duration": 4, "velocity": 97}, {"time": 306, "pitch": 62, "duration": 4, "velocity": 108}, {"time": 312, "pitch": 60, "duration": 4, "velocity": 100}, {"time": 318, "pitch": 58, "duration": 8, "velocity": 105}, {"time": 330, "pitch": 55, "duration": 13, "velocity": 94}, {"time": 348, "pitch": 67, "duration": 6, "velocity": 108}, {"time": 357, "pitch": 67, "duration": 1, "velocity": 92}, {"time": 360, "pitch": 67, "duration": 4, "velocity": 100}, {"time": 366, "pitch": 65, "duration": 4, "velocity": 100}, {"time": 372, "pitch": 67, "duration": 7, "velocity": 111}, {"time": 381, "pitch": 65, "duration": 2, "velocity": 92}, {"time": 384, "pitch": 65, "duration": 5, "velocity": 102}, {"time": 390, "pitch": 60, "duration": 4, "velocity": 105}, {"time": 396, "pitch": 62, "duration": 29, "velocity": 105}, {"time": 444, "pitch": 55, "duration": 4, "velocity": 108}, {"time": 450, "pitch": 55, "duration": 3, "velocity": 89}, {"time": 456, "pitch": 55, "duration": 4, "velocity": 102}, {"time": 462, "pitch": 62, "duration": 10, "velocity": 108}, {"time": 474, "pitch": 60, "duration": 11, "velocity": 105}, {"time": 492, "pitch": 62, "duration": 4, "velocity": 105}, {"time": 498, "pitch": 65, "duration": 4, "velocity": 105}, {"time": 504, "pitch": 60, "duration": 4, "velocity": 105}, {"time": 510, "pitch": 62, "duration": 9, "velocity": 100}, {"time": 522, "pitch": 55, "duration": 10, "velocity": 94}, {"time": 540, "pitch": 55, "duration": 4, "velocity": 94}, {"time": 546, "pitch": 55, "duration": 4, "velocity": 94}, {"time": 552, "pitch": 55, "duration": 4, "velocity": 102}, {"time": 558, "pitch": 62, "duration": 4, "velocity": 100}, {"time": 564, "pitch": 60, "duration": 8, "velocity": 100}, {"time": 573, "pitch": 62, "duration": 6, "velocity": 94}, {"time": 582, "pitch": 57, "duration": 10, "velocity": 100}, {"time": 594, "pitch": 55, "duration": 32, "velocity": 92}, {"time": 636, "pitch": 55, "duration": 4, "velocity": 92}, {"time": 642, "pitch": 62, "duration": 4, "velocity": 108}, {"time": 648, "pitch": 62, "duration": 4, "velocity": 92}, {"time": 654, "pitch": 60, "duration": 4, "velocity": 94}, {"time": 660, "pitch": 62, "duration": 18, "velocity": 97}, {"time": 684, "pitch": 60, "duration": 4, "velocity": 97}, {"time": 690, "pitch": 62, "duration": 4, "velocity": 108}, {"time": 696, "pitch": 60, "duration": 4, "velocity": 100}, {"time": 702, "pitch": 58, "duration": 8, "velocity": 105}, {"time": 714, "pitch": 55, "duration": 13, "velocity": 94}, {"time": 732, "pitch": 67, "duration": 6, "velocity": 108}, {"time": 741, "pitch": 67, "duration": 1, "velocity": 92}, {"time": 744, "pitch": 67, "duration": 4, "velocity": 100}, {"time": 750, "pitch": 65, "duration": 4, "velocity": 100}, {"time": 756, "pitch": 67, "duration": 7, "velocity": 111}, {"time": 765, "pitch": 65, "duration": 2, "velocity": 92}, {"time": 768, "pitch": 65, "duration": 5, "velocity": 102}, {"time": 774, "pitch": 60, "duration": 4, "velocity": 105}, {"time": 780, "pitch": 62, "duration": 29, "velocity": 105}, {"time": 828, "pitch": 55, "duration": 4, "velocity": 108}, {"time": 834, "pitch": 55, "duration": 3, "velocity": 89}, {"time": 840, "pitch": 55, "duration": 4, "velocity": 102}, {"time": 846, "pitch": 62, "duration": 10, "velocity": 108}, {"time": 858, "pitch": 60, "duration": 11, "velocity": 105}, {"time": 876, "pitch": 62, "duration": 4, "velocity": 105}, {"time": 882, "pitch": 65, "duration": 4, "velocity": 105}, {"time": 888, "pitch": 60, "duration": 4, "velocity": 105}, {"time": 894, "pitch": 62, "duration": 9, "velocity": 100}, {"time": 906, "pitch": 55, "duration": 10, "velocity": 94}, {"time": 924, "pitch": 55, "duration": 4, "velocity": 94}, {"time": 930, "pitch": 55, "duration": 4, "velocity": 94}, {"time": 936, "pitch": 55, "duration": 4, "velocity": 102}, {"time": 942, "pitch": 62, "duration": 4, "velocity": 100}, {"time": 948, "pitch": 60, "duration": 8, "velocity": 100}, {"time": 957, "pitch": 62, "duration": 6, "velocity": 94}, {"time": 966, "pitch": 57, "duration": 10, "velocity": 100}, {"time": 978, "pitch": 55, "duration": 27, "velocity": 92}, {"time": 1008, "pitch": 70, "duration": 5, "velocity": 109}, {"time": 1014, "pitch": 69, "duration": 4, "velocity": 108}, {"time": 1020, "pitch": 67, "duration": 15, "velocity": 114}, {"time": 1038, "pitch": 65, "duration": 4, "velocity": 105}, {"time": 1044, "pitch": 67, "duration": 4, "velocity": 108}, {"time": 1050, "pitch": 65, "duration": 4, "velocity": 114}, {"time": 1056, "pitch": 62, "duration": 4, "velocity": 114}, {"time": 1062, "pitch": 60, "duration": 10, "velocity": 108}, {"time": 1074, "pitch": 62, "duration": 26, "velocity": 105}, {"time": 1104, "pitch": 62, "duration": 4, "velocity": 108}, {"time": 1110, "pitch": 65, "duration": 4, "velocity": 108}, {"time": 1116, "pitch": 67, "duration": 14, "velocity": 102}, {"time": 1134, "pitch": 70, "duration": 5, "velocity": 105}, {"time": 1140, "pitch": 69, "duration": 4, "velocity": 108}, {"time": 1146, "pitch": 70, "duration": 4, "velocity": 93}, {"time": 1152, "pitch": 69, "duration": 3, "velocity": 108}, {"time": 1158, "pitch": 65, "duration": 9, "velocity": 108}, {"time": 1170, "pitch": 67, "duration": 27, "velocity": 102}, {"time": 1206, "pitch": 62, "duration": 4, "velocity": 108}, {"time": 1212, "pitch": 60, "duration": 9, "velocity": 102}, {"time": 1224, "pitch": 60, "duration": 4, "velocity": 102}, {"time": 1230, "pitch": 62, "duration": 4, "velocity": 94}, {"time": 1236, "pitch": 60, "duration": 14, "velocity": 102}, {"time": 1254, "pitch": 67, "duration": 4, "velocity": 108}, {"time": 1260, "pitch": 69, "duration": 10, "velocity": 100}, {"time": 1272, "pitch": 65, "duration": 3, "velocity": 105}, {"time": 1278, "pitch": 62, "duration": 4, "velocity": 105}, {"time": 1284, "pitch": 65, "duration": 15, "velocity": 111}, {"time": 1302, "pitch": 65, "duration": 4, "velocity": 105}, {"time": 1308, "pitch": 67, "duration": 4, "velocity": 105}, {"time": 1314, "pitch": 70, "duration": 4, "velocity": 109}, {"time": 1320, "pitch": 70, "duration": 3, "velocity": 105}, {"time": 1326, "pitch": 67, "duration": 4, "velocity": 100}, {"time": 1332, "pitch": 72, "duration": 4, "velocity": 114}, {"time": 1338, "pitch": 70, "duration": 3, "velocity": 102}, {"time": 1344, "pitch": 70, "duration": 10, "velocity": 105}, {"time": 1356, "pitch": 67, "duration": 8, "velocity": 105}, {"time": 1365, "pitch": 69, "duration": 23, "velocity": 100}, {"time": 1392, "pitch": 70, "duration": 5, "velocity": 109}, {"time": 1398, "pitch": 69, "duration": 4, "velocity": 108}, {"time": 1404, "pitch": 67, "duration": 15, "velocity": 114}, {"time": 1422, "pitch": 65, "duration": 4, "velocity": 105}, {"time": 1428, "pitch": 67, "duration": 4, "velocity": 108}, {"time": 1434, "pitch": 65, "duration": 4, "velocity": 114}, {"time": 1440, "pitch": 62, "duration": 4, "velocity": 114}, {"time": 1446, "pitch": 60, "duration": 10, "velocity": 108}, {"time": 1458, "pitch": 62, "duration": 26, "velocity": 105}, {"time": 1488, "pitch": 62, "duration": 4, "velocity": 108}, {"time": 1494, "pitch": 65, "duration": 4, "velocity": 108}, {"time": 1500, "pitch": 67, "duration": 14, "velocity": 102}, {"time": 1518, "pitch": 70, "duration": 5, "velocity": 105}, {"time": 1524, "pitch": 69, "duration": 4, "velocity": 108}, {"time": 1530, "pitch": 70, "duration": 4, "velocity": 93}, {"time": 1536, "pitch": 69, "duration": 3, "velocity": 108}, {"time": 1542, "pitch": 65, "duration": 9, "velocity": 108}, {"time": 1554, "pitch": 67, "duration": 27, "velocity": 102}, {"time": 1590, "pitch": 62, "duration": 4, "velocity": 108}, {"time": 1596, "pitch": 60, "duration": 9, "velocity": 102}, {"time": 1608, "pitch": 60, "duration": 4, "velocity": 102}, {"time": 1614, "pitch": 62, "duration": 4, "velocity": 94}, {"time": 1620, "pitch": 60, "duration": 14, "velocity": 102}, {"time": 1638, "pitch": 67, "duration": 4, "velocity": 108}, {"time": 1644, "pitch": 69, "duration": 10, "velocity": 100}, {"time": 1656, "pitch": 65, "duration": 3, "velocity": 105}, {"time": 1662, "pitch": 62, "duration": 4, "velocity": 105}, {"time": 1668, "pitch": 65, "duration": 15, "velocity": 111}, {"time": 1686, "pitch": 65, "duration": 4, "velocity": 105}, {"time": 1692, "pitch": 67, "duration": 4, "velocity": 105}, {"time": 1698, "pitch": 70, "duration": 4, "velocity": 109}, {"time": 1704, "pitch": 70, "duration": 3, "velocity": 105}, {"time": 1710, "pitch": 74, "duration": 4, "velocity": 100}, {"time": 1716, "pitch": 72, "duration": 9, "velocity": 114}, {"time": 1734, "pitch": 69, "duration": 10, "velocity": 108}, {"time": 1746, "pitch": 67, "duration": 37, "velocity": 105}, {"time": 1782, "pitch": 65, "duration": 4, "velocity": 102}, {"time": 1788, "pitch": 67, "duration": 4, "velocity": 105}, {"time": 1794, "pitch": 70, "duration": 4, "velocity": 102}, {"time": 1800, "pitch": 70, "duration": 5, "velocity": 102}, {"time": 1806, "pitch": 74, "duration": 4, "velocity": 108}, {"time": 1812, "pitch": 72, "duration": 16, "velocity": 114}, {"time": 1830, "pitch": 69, "duration": 10, "velocity": 102}, {"time": 1842, "pitch": 67, "duration": 40, "velocity": 105}, {"time": 2076, "pitch": 55, "duration": 4, "velocity": 92}, {"time": 2082, "pitch": 62, "duration": 4, "velocity": 108}, {"time": 2088, "pitch": 62, "duration": 4, "velocity": 92}, {"time": 2094, "pitch": 60, "duration": 4, "velocity": 94}, {"time": 2100, "pitch": 62, "duration": 18, "velocity": 97}, {"time": 2124, "pitch": 60, "duration": 4, "velocity": 97}, {"time": 2130, "pitch": 62, "duration": 4, "velocity": 108}, {"time": 2136, "pitch": 60, "duration": 4, "velocity": 100}, {"time": 2142, "pitch": 58, "duration": 8, "velocity": 105}, {"time": 2154, "pitch": 55, "duration": 13, "velocity": 94}, {"time": 2172, "pitch": 67, "duration": 6, "velocity": 108}, {"time": 2181, "pitch": 67, "duration": 1, "velocity": 92}, {"time": 2184, "pitch": 67, "duration": 4, "velocity": 100}, {"time": 2190, "pitch": 65, "duration": 4, "velocity": 100}, {"time": 2196, "pitch": 67, "duration": 7, "velocity": 111}, {"time": 2205, "pitch": 65, "duration": 2, "velocity": 92}, {"time": 2208, "pitch": 65, "duration": 5, "velocity": 102}, {"time": 2214, "pitch": 60, "duration": 4, "velocity": 105}, {"time": 2220, "pitch": 62, "duration": 29, "velocity": 105}, {"time": 2268, "pitch": 55, "duration": 4, "velocity": 108}, {"time": 2274, "pitch": 55, "duration": 3, "velocity": 89}, {"time": 2280, "pitch": 55, "duration": 4, "velocity": 102}, {"time": 2286, "pitch": 62, "duration": 10, "velocity": 108}, {"time": 2298, "pitch": 60, "duration": 11, "velocity": 105}, {"time": 2316, "pitch": 62, "duration": 4, "velocity": 105}, {"time": 2322, "pitch": 65, "duration": 4, "velocity": 105}, {"time": 2328, "pitch": 60, "duration": 4, "velocity": 105}, {"time": 2334, "pitch": 62, "duration": 9, "velocity": 100}, {"time": 2346, "pitch": 55, "duration": 10, "velocity": 94}, {"time": 2364, "pitch": 55, "duration": 4, "velocity": 94}, {"time": 2370, "pitch": 55, "duration": 4, "velocity": 94}, {"time": 2376, "pitch": 55, "duration": 4, "velocity": 102}, {"time": 2382, "pitch": 62, "duration": 4, "velocity": 100}, {"time": 2388, "pitch": 60, "duration": 8, "velocity": 100}, {"time": 2397, "pitch": 62, "duration": 6, "velocity": 94}, {"time": 2406, "pitch": 57, "duration": 10, "velocity": 100}, {"time": 2418, "pitch": 55, "duration": 27, "velocity": 92}, {"time": 2448, "pitch": 70, "duration": 5, "velocity": 109}, {"time": 2454, "pitch": 69, "duration": 4, "velocity": 108}, {"time": 2460, "pitch": 67, "duration": 15, "velocity": 114}, {"time": 2478, "pitch": 65, "duration": 4, "velocity": 105}, {"time": 2484, "pitch": 67, "duration": 4, "velocity": 108}, {"time": 2490, "pitch": 65, "duration": 4, "velocity": 114}, {"time": 2496, "pitch": 62, "duration": 4, "velocity": 114}, {"time": 2502, "pitch": 60, "duration": 10, "velocity": 108}, {"time": 2514, "pitch": 62, "duration": 26, "velocity": 105}, {"time": 2544, "pitch": 62, "duration": 4, "velocity": 108}, {"time": 2550, "pitch": 65, "duration": 4, "velocity": 108}, {"time": 2556, "pitch": 67, "duration": 14, "velocity": 102}, {"time": 2574, "pitch": 70, "duration": 5, "velocity": 105}, {"time": 2580, "pitch": 69, "duration": 4, "velocity": 108}, {"time": 2586, "pitch": 70, "duration": 4, "velocity": 93}, {"time": 2592, "pitch": 69, "duration": 3, "velocity": 108}, {"time": 2598, "pitch": 65, "duration": 9, "velocity": 108}, {"time": 2610, "pitch": 67, "duration": 27, "velocity": 102}, {"time": 2646, "pitch": 62, "duration": 4, "velocity": 108}, {"time": 2652, "pitch": 60, "duration": 9, "velocity": 102}, {"time": 2664, "pitch": 60, "duration": 4, "velocity": 102}, {"time": 2670, "pitch": 62, "duration": 4, "velocity": 94}, {"time": 2676, "pitch": 60, "duration": 14, "velocity": 102}, {"time": 2694, "pitch": 67, "duration": 4, "velocity": 108}, {"time": 2700, "pitch": 69, "duration": 10, "velocity": 100}, {"time": 2712, "pitch": 65, "duration": 3, "velocity": 105}, {"time": 2718, "pitch": 62, "duration": 4, "velocity": 105}, {"time": 2724, "pitch": 65, "duration": 15, "velocity": 111}, {"time": 2742, "pitch": 65, "duration": 4, "velocity": 105}, {"time": 2748, "pitch": 67, "duration": 4, "velocity": 105}, {"time": 2754, "pitch": 70, "duration": 4, "velocity": 109}, {"time": 2760, "pitch": 70, "duration": 3, "velocity": 105}, {"time": 2766, "pitch": 67, "duration": 4, "velocity": 100}, {"time": 2772, "pitch": 72, "duration": 4, "velocity": 114}, {"time": 2778, "pitch": 70, "duration": 3, "velocity": 102}, {"time": 2784, "pitch": 70, "duration": 10, "velocity": 105}, {"time": 2796, "pitch": 67, "duration": 8, "velocity": 105}, {"time": 2805, "pitch": 69, "duration": 23, "velocity": 100}, {"time": 2832, "pitch": 70, "duration": 5, "velocity": 109}, {"time": 2838, "pitch": 69, "duration": 4, "velocity": 108}, {"time": 2844, "pitch": 67, "duration": 15, "velocity": 114}, {"time": 2862, "pitch": 65, "duration": 4, "velocity": 105}, {"time": 2868, "pitch": 67, "duration": 4, "velocity": 108}, {"time": 2874, "pitch": 65, "duration": 4, "velocity": 114}, {"time": 2880, "pitch": 62, "duration": 4, "velocity": 114}, {"time": 2886, "pitch": 60, "duration": 10, "velocity": 108}, {"time": 2898, "pitch": 62, "duration": 26, "velocity": 105}, {"time": 2928, "pitch": 62, "duration": 4, "velocity": 108}, {"time": 2934, "pitch": 65, "duration": 4, "velocity": 108}, {"time": 2940, "pitch": 67, "duration": 14, "velocity": 102}, {"time": 2958, "pitch": 70, "duration": 5, "velocity": 105}, {"time": 2964, "pitch": 69, "duration": 4, "velocity": 108}, {"time": 2970, "pitch": 70, "duration": 4, "velocity": 93}, {"time": 2976, "pitch": 69, "duration": 3, "velocity": 108}, {"time": 2982, "pitch": 65, "duration": 9, "velocity": 108}, {"time": 2994, "pitch": 67, "duration": 27, "velocity": 102}, {"time": 3030, "pitch": 62, "duration": 4, "velocity": 108}, {"time": 3036, "pitch": 60, "duration": 9, "velocity": 102}, {"time": 3048, "pitch": 60, "duration": 4, "velocity": 102}, {"time": 3054, "pitch": 62, "duration": 4, "velocity": 94}, {"time": 3060, "pitch": 60, "duration": 14, "velocity": 102}, {"time": 3078, "pitch": 67, "duration": 4, "velocity": 108}, {"time": 3084, "pitch": 69, "duration": 10, "velocity": 100}, {"time": 3096, "pitch": 65, "duration": 3, "velocity": 105}, {"time": 3102, "pitch": 62, "duration": 4, "velocity": 105}, {"time": 3108, "pitch": 65, "duration": 15, "velocity": 111}, {"time": 3126, "pitch": 65, "duration": 4, "velocity": 105}, {"time": 3132, "pitch": 67, "duration": 4, "velocity": 105}, {"time": 3138, "pitch": 70, "duration": 4, "velocity": 109}, {"time": 3144, "pitch": 70, "duration": 3, "velocity": 105}, {"time": 3150, "pitch": 74, "duration": 4, "velocity": 100}, {"time": 3156, "pitch": 72, "duration": 9, "velocity": 114}, {"time": 3174, "pitch": 69, "duration": 10, "velocity": 108}, {"time": 3186, "pitch": 67, "duration": 30, "velocity": 105}, {"time": 3216, "pitch": 72, "duration": 5, "velocity": 109}, {"time": 3222, "pitch": 71, "duration": 4, "velocity": 108}, {"time": 3228, "pitch": 69, "duration": 15, "velocity": 114}, {"time": 3246, "pitch": 67, "duration": 4, "velocity": 105}, {"time": 3252, "pitch": 69, "duration": 4, "velocity": 108}, {"time": 3258, "pitch": 67, "duration": 4, "velocity": 114}, {"time": 3264, "pitch": 64, "duration": 4, "velocity": 114}, {"time": 3270, "pitch": 62, "duration": 10, "velocity": 108}, {"time": 3282, "pitch": 64, "duration": 26, "velocity": 105}, {"time": 3312, "pitch": 64, "duration": 4, "velocity": 108}, {"time": 3318, "pitch": 67, "duration": 4, "velocity": 108}, {"time": 3324, "pitch": 69, "duration": 14, "velocity": 102}, {"time": 3342, "pitch": 72, "duration": 5, "velocity": 105}, {"time": 3348, "pitch": 71, "duration": 4, "velocity": 108}, {"time": 3354, "pitch": 72, "duration": 4, "velocity": 93}, {"time": 3360, "pitch": 71, "duration": 3, "velocity": 108}, {"time": 3366, "pitch": 67, "duration": 9, "velocity": 108}, {"time": 3378, "pitch": 69, "duration": 27, "velocity": 102}, {"time": 3414, "pitch": 64, "duration": 4, "velocity": 108}, {"time": 3420, "pitch": 62, "duration": 9, "velocity": 102}, {"time": 3432, "pitch": 62, "duration": 4, "velocity": 102}, {"time": 3438, "pitch": 64, "duration": 4, "velocity": 94}, {"time": 3444, "pitch": 62, "duration": 14, "velocity": 102}, {"time": 3462, "pitch": 69, "duration": 4, "velocity": 108}, {"time": 3468, "pitch": 71, "duration": 10, "velocity": 100}, {"time": 3480, "pitch": 67, "duration": 3, "velocity": 105}, {"time": 3486, "pitch": 64, "duration": 4, "velocity": 105}, {"time": 3492, "pitch": 67, "duration": 15, "velocity": 111}, {"time": 3510, "pitch": 67, "duration": 4, "velocity": 105}, {"time": 3516, "pitch": 69, "duration": 4, "velocity": 105}, {"time": 3522, "pitch": 72, "duration": 4, "velocity": 109}, {"time": 3528, "pitch": 72, "duration": 3, "velocity": 105}, {"time": 3534, "pitch": 69, "duration": 4, "velocity": 100}, {"time": 3540, "pitch": 74, "duration": 4, "velocity": 114}, {"time": 3546, "pitch": 72, "duration": 3, "velocity": 102}, {"time": 3552, "pitch": 72, "duration": 10, "velocity": 105}, {"time": 3564, "pitch": 69, "duration": 8, "velocity": 105}, {"time": 3573, "pitch": 71, "duration": 23, "velocity": 100}, {"time": 3600, "pitch": 72, "duration": 5, "velocity": 109}, {"time": 3606, "pitch": 71, "duration": 4, "velocity": 108}, {"time": 3612, "pitch": 69, "duration": 15, "velocity": 114}, {"time": 3630, "pitch": 67, "duration": 4, "velocity": 105}, {"time": 3636, "pitch": 69, "duration": 4, "velocity": 108}, {"time": 3642, "pitch": 67, "duration": 4, "velocity": 114}, {"time": 3648, "pitch": 64, "duration": 4, "velocity": 114}, {"time": 3654, "pitch": 62, "duration": 10, "velocity": 108}, {"time": 3666, "pitch": 64, "duration": 26, "velocity": 105}, {"time": 3696, "pitch": 64, "duration": 4, "velocity": 108}, {"time": 3702, "pitch": 67, "duration": 4, "velocity": 108}, {"time": 3708, "pitch": 69, "duration": 14, "velocity": 102}, {"time": 3726, "pitch": 72, "duration": 5, "velocity": 105}, {"time": 3732, "pitch": 71, "duration": 4, "velocity": 108}, {"time": 3738, "pitch": 72, "duration": 4, "velocity": 93}, {"time": 3744, "pitch": 71, "duration": 3, "velocity": 108}, {"time": 3750, "pitch": 67, "duration": 9, "velocity": 108}, {"time": 3762, "pitch": 69, "duration": 27, "velocity": 102}, {"time": 3798, "pitch": 64, "duration": 4, "velocity": 108}, {"time": 3804, "pitch": 62, "duration": 9, "velocity": 102}, {"time": 3816, "pitch": 62, "duration": 4, "velocity": 102}, {"time": 3822, "pitch": 64, "duration": 4, "velocity": 94}, {"time": 3828, "pitch": 62, "duration": 14, "velocity": 102}, {"time": 3846, "pitch": 69, "duration": 4, "velocity": 108}, {"time": 3852, "pitch": 71, "duration": 10, "velocity": 100}, {"time": 3864, "pitch": 67, "duration": 3, "velocity": 105}, {"time": 3870, "pitch": 64, "duration": 4, "velocity": 105}, {"time": 3876, "pitch": 67, "duration": 15, "velocity": 111}, {"time": 3894, "pitch": 67, "duration": 4, "velocity": 105}, {"time": 3900, "pitch": 69, "duration": 4, "velocity": 105}, {"time": 3906, "pitch": 72, "duration": 4, "velocity": 109}, {"time": 3912, "pitch": 72, "duration": 3, "velocity": 105}, {"time": 3918, "pitch": 76, "duration": 4, "velocity": 100}, {"time": 3924, "pitch": 74, "duration": 9, "velocity": 114}, {"time": 3942, "pitch": 71, "duration": 10, "velocity": 108}, {"time": 3954, "pitch": 69, "duration": 30, "velocity": 105}, {"time": 3990, "pitch": 67, "duration": 4, "velocity": 102}, {"time": 3996, "pitch": 69, "duration": 4, "velocity": 105}, {"time": 4002, "pitch": 72, "duration": 4, "velocity": 102}, {"time": 4008, "pitch": 72, "duration": 5, "velocity": 102}, {"time": 4014, "pitch": 76, "duration": 4, "velocity": 108}, {"time": 4020, "pitch": 74, "duration": 45, "velocity": 114}, {"time": 4072, "pitch": 71, "duration": 26, "velocity": 108}, {"time": 4103, "pitch": 69, "duration": 47, "velocity": 105}]}, {"program": 0, "is_drum": false, "name": "PIANO", "notes": [{"time": 60, "pitch": 48, "duration": 14, "velocity": 92}, {"time": 60, "pitch": 60, "duration": 6, "velocity": 66}, {"time": 60, "pitch": 63, "duration": 5, "velocity": 52}, {"time": 60, "pitch": 67, "duration": 6, "velocity": 80}, {"time": 66, "pitch": 55, "duration": 7, "velocity": 43}, {"time": 69, "pitch": 63, "duration": 3, "velocity": 82}, {"time": 78, "pitch": 48, "duration": 20, "velocity": 44}, {"time": 78, "pitch": 55, "duration": 7, "velocity": 66}, {"time": 78, "pitch": 60, "duration": 19, "velocity": 52}, {"time": 78, "pitch": 63, "duration": 19, "velocity": 44}, {"time": 78, "pitch": 67, "duration": 23, "velocity": 78}, {"time": 96, "pitch": 55, "duration": 2, "velocity": 76}, {"time": 99, "pitch": 60, "duration": 3, "velocity": 78}, {"time": 102, "pitch": 63, "duration": 1, "velocity": 102}, {"time": 108, "pitch": 43, "duration": 38, "velocity": 89}, {"time": 108, "pitch": 55, "duration": 7, "velocity": 66}, {"time": 108, "pitch": 58, "duration": 6, "velocity": 52}, {"time": 117, "pitch": 58, "duration": 3, "velocity": 74}, {"time": 117, "pitch": 62, "duration": 3, "velocity": 78}, {"time": 126, "pitch": 55, "duration": 5, "velocity": 58}, {"time": 126, "pitch": 58, "duration": 5, "velocity": 35}, {"time": 126, "pitch": 67, "duration": 5, "velocity": 92}, {"time": 138, "pitch": 50, "duration": 6, "velocity": 37}, {"time": 144, "pitch": 55, "duration": 2, "velocity": 84}, {"time": 144, "pitch": 58, "duration": 6, "velocity": 96}, {"time": 144, "pitch": 62, "duration": 6, "velocity": 89}, {"time": 150, "pitch": 55, "duration": 1, "velocity": 69}, {"time": 156, "pitch": 48, "duration": 16, "velocity": 100}, {"time": 156, "pitch": 60, "duration": 6, "velocity": 53}, {"time": 156, "pitch": 63, "duration": 5, "velocity": 61}, {"time": 165, "pitch": 63, "duration": 2, "velocity": 63}, {"time": 165, "pitch": 67, "duration": 2, "velocity": 94}, {"time": 174, "pitch": 60, "duration": 20, "velocity": 69}, {"time": 174, "pitch": 63, "duration": 21, "velocity": 72}, {"time": 174, "pitch": 67, "duration": 23, "velocity": 82}, {"time": 192, "pitch": 48, "duration": 6, "velocity": 94}, {"time": 195, "pitch": 55, "duration": 3, "velocity": 48}, {"time": 198, "pitch": 60, "duration": 2, "velocity": 78}, {"time": 204, "pitch": 50, "duration": 31, "velocity": 82}, {"time": 204, "pitch": 62, "duration": 18, "velocity": 64}, {"time": 204, "pitch": 66, "duration": 6, "velocity": 74}, {"time": 222, "pitch": 57, "duration": 13, "velocity": 37}, {"time": 225, "pitch": 62, "duration": 2, "velocity": 40}, {"time": 228, "pitch": 62, "duration": 12, "velocity": 71}, {"time": 228, "pitch": 66, "duration": 11, "velocity": 52}, {"time": 228, "pitch": 69, "duration": 12, "velocity": 87}, {"time": 252, "pitch": 43, "duration": 44, "velocity": 94}, {"time": 252, "pitch": 55, "duration": 7, "velocity": 69}, {"time": 252, "pitch": 58, "duration": 8, "velocity": 61}, {"time": 258, "pitch": 50, "duration": 14, "velocity": 44}, {"time": 270, "pitch": 55, "duration": 3, "velocity": 89}, {"time": 270, "pitch": 62, "duration": 3, "velocity": 87}, {"time": 282, "pitch": 50, "duration": 11, "velocity": 1}, {"time": 288, "pitch": 58, "duration": 6, "velocity": 70}, {"time": 294, "pitch": 55, "duration": 3, "velocity": 49}, {"time": 300, "pitch": 48, "duration": 37, "velocity": 84}, {"time": 300, "pitch": 55, "duration": 8, "velocity": 84}, {"time": 300, "pitch": 60, "duration": 9, "velocity": 84}, {"time": 312, "pitch": 55, "duration": 3, "velocity": 40}, {"time": 318, "pitch": 55, "duration": 8, "velocity": 78}, {"time": 318, "pitch": 63, "duration": 13, "velocity": 74}, {"time": 336, "pitch": 55, "duration": 3, "velocity": 78}, {"time": 336, "pitch": 60, "duration": 4, "velocity": 82}, {"time": 348, "pitch": 51, "duration": 12, "velocity": 59}, {"time": 348, "pitch": 58, "duration": 9, "velocity": 59}, {"time": 348, "pitch": 63, "duration": 9, "velocity": 54}, {"time": 360, "pitch": 58, "duration": 6, "velocity": 99}, {"time": 360, "pitch": 63, "duration": 11, "velocity": 102}, {"time": 366, "pitch": 55, "duration": 2, "velocity": 22}, {"time": 372, "pitch": 41, "duration": 16, "velocity": 67}, {"time": 372, "pitch": 57, "duration": 19, "velocity": 71}, {"time": 372, "pitch": 60, "duration": 8, "velocity": 78}, {"time": 390, "pitch": 60, "duration": 2, "velocity": 87}, {"time": 390, "pitch": 65, "duration": 6, "velocity": 94}, {"time": 396, "pitch": 46, "duration": 26, "velocity": 52}, {"time": 402, "pitch": 53, "duration": 15, "velocity": 1}, {"time": 408, "pitch": 58, "duration": 4, "velocity": 99}, {"time": 414, "pitch": 58, "duration": 16, "velocity": 99}, {"time": 414, "pitch": 62, "duration": 15, "velocity": 89}, {"time": 432, "pitch": 58, "duration": 4, "velocity": 93}, {"time": 432, "pitch": 62, "duration": 9, "velocity": 89}, {"time": 444, "pitch": 51, "duration": 17, "velocity": 55}, {"time": 444, "pitch": 58, "duration": 10, "velocity": 63}, {"time": 444, "pitch": 63, "duration": 10, "velocity": 63}, {"time": 456, "pitch": 58, "duration": 7, "velocity": 65}, {"time": 462, "pitch": 55, "duration": 3, "velocity": 38}, {"time": 468, "pitch": 41, "duration": 18, "velocity": 97}, {"time": 468, "pitch": 57, "duration": 16, "velocity": 78}, {"time": 468, "pitch": 60, "duration": 10, "velocity": 53}, {"time": 486, "pitch": 60, "duration": 3, "velocity": 78}, {"time": 486, "pitch": 65, "duration": 4, "velocity": 89}, {"time": 492, "pitch": 50, "duration": 18, "velocity": 84}, {"time": 492, "pitch": 57, "duration": 8, "velocity": 84}, {"time": 492, "pitch": 62, "duration": 7, "velocity": 78}, {"time": 504, "pitch": 65, "duration": 6, "velocity": 100}, {"time": 510, "pitch": 62, "duration": 2, "velocity": 60}, {"time": 516, "pitch": 43, "duration": 17, "velocity": 87}, {"time": 516, "pitch": 55, "duration": 10, "velocity": 73}, {"time": 516, "pitch": 58, "duration": 7, "velocity": 63}, {"time": 522, "pitch": 50, "duration": 11, "velocity": 46}, {"time": 528, "pitch": 58, "duration": 3, "velocity": 99}, {"time": 528, "pitch": 62, "duration": 3, "velocity": 92}, {"time": 540, "pitch": 51, "duration": 17, "velocity": 93}, {"time": 540, "pitch": 58, "duration": 14, "velocity": 79}, {"time": 540, "pitch": 63, "duration": 15, "velocity": 85}, {"time": 564, "pitch": 50, "duration": 16, "velocity": 94}, {"time": 564, "pitch": 57, "duration": 4, "velocity": 82}, {"time": 564, "pitch": 62, "duration": 7, "velocity": 87}, {"time": 570, "pitch": 57, "duration": 3, "velocity": 53}, {"time": 576, "pitch": 57, "duration": 2, "velocity": 102}, {"time": 576, "pitch": 65, "duration": 5, "velocity": 92}, {"time": 582, "pitch": 57, "duration": 1, "velocity": 37}, {"time": 588, "pitch": 43, "duration": 45, "velocity": 97}, {"time": 588, "pitch": 55, "duration": 6, "velocity": 84}, {"time": 588, "pitch": 58, "duration": 5, "velocity": 79}, {"time": 597, "pitch": 58, "duration": 2, "velocity": 87}, {"time": 597, "pitch": 62, "duration": 2, "velocity": 89}, {"time": 606, "pitch": 55, "duration": 13, "velocity": 94}, {"time": 606, "pitch": 67, "duration": 12, "velocity": 76}, {"time": 621, "pitch": 50, "duration": 10, "velocity": 60}, {"time": 624, "pitch": 58, "duration": 3, "velocity": 52}, {"time": 627, "pitch": 55, "duration": 4, "velocity": 84}, {"time": 630, "pitch": 62, "duration": 3, "velocity": 82}, {"time": 636, "pitch": 43, "duration": 44, "velocity": 94}, {"time": 636, "pitch": 55, "duration": 7, "velocity": 69}, {"time": 636, "pitch": 58, "duration": 8, "velocity": 61}, {"time": 642, "pitch": 50, "duration": 14, "velocity": 44}, {"time": 654, "pitch": 55, "duration": 3, "velocity": 89}, {"time": 654, "pitch": 62, "duration": 3, "velocity": 87}, {"time": 666, "pitch": 50, "duration": 11, "velocity": 1}, {"time": 672, "pitch": 58, "duration": 6, "velocity": 70}, {"time": 678, "pitch": 55, "duration": 3, "velocity": 49}, {"time": 684, "pitch": 48, "duration": 37, "velocity": 84}, {"time": 684, "pitch": 55, "duration": 8, "velocity": 84}, {"time": 684, "pitch": 60, "duration": 9, "velocity": 84}, {"time": 696, "pitch": 55, "duration": 3, "velocity": 40}, {"time": 702, "pitch": 55, "duration": 8, "velocity": 78}, {"time": 702, "pitch": 63, "duration": 13, "velocity": 74}, {"time": 720, "pitch": 55, "duration": 3, "velocity": 78}, {"time": 720, "pitch": 60, "duration": 4, "velocity": 82}, {"time": 732, "pitch": 51, "duration": 12, "velocity": 59}, {"time": 732, "pitch": 58, "duration": 9, "velocity": 59}, {"time": 732, "pitch": 63, "duration": 9, "velocity": 54}, {"time": 744, "pitch": 58, "duration": 6, "velocity": 99}, {"time": 744, "pitch": 63, "duration": 11, "velocity": 102}, {"time": 750, "pitch": 55, "duration": 2, "velocity": 22}, {"time": 756, "pitch": 41, "duration": 16, "velocity": 67}, {"time": 756, "pitch": 57, "duration": 19, "velocity": 71}, {"time": 756, "pitch": 60, "duration": 8, "velocity": 78}, {"time": 774, "pitch": 60, "duration": 2, "velocity": 87}, {"time": 774, "pitch": 65, "duration": 6, "velocity": 94}, {"time": 780, "pitch": 46, "duration": 26, "velocity": 52}, {"time": 786, "pitch": 53, "duration": 15, "velocity": 1}, {"time": 792, "pitch": 58, "duration": 4, "velocity": 99}, {"time": 798, "pitch": 58, "duration": 16, "velocity": 99}, {"time": 798, "pitch": 62, "duration": 15, "velocity": 89}, {"time": 816, "pitch": 58, "duration": 4, "velocity": 93}, {"time": 816, "pitch": 62, "duration": 9, "velocity": 89}, {"time": 828, "pitch": 51, "duration": 17, "velocity": 55}, {"time": 828, "pitch": 58, "duration": 10, "velocity": 63}, {"time": 828, "pitch": 63, "duration": 10, "velocity": 63}, {"time": 840, "pitch": 58, "duration": 7, "velocity": 65}, {"time": 846, "pitch": 55, "duration": 3, "velocity": 38}, {"time": 852, "pitch": 41, "duration": 18, "velocity": 97}, {"time": 852, "pitch": 57, "duration": 16, "velocity": 78}, {"time": 852, "pitch": 60, "duration": 10, "velocity": 53}, {"time": 870, "pitch": 60, "duration": 3, "velocity": 78}, {"time": 870, "pitch": 65, "duration": 4, "velocity": 89}, {"time": 876, "pitch": 50, "duration": 18, "velocity": 84}, {"time": 876, "pitch": 57, "duration": 8, "velocity": 84}, {"time": 876, "pitch": 62, "duration": 7, "velocity": 78}, {"time": 888, "pitch": 65, "duration": 6, "velocity": 100}, {"time": 894, "pitch": 62, "duration": 2, "velocity": 60}, {"time": 900, "pitch": 43, "duration": 17, "velocity": 87}, {"time": 900, "pitch": 55, "duration": 10, "velocity": 73}, {"time": 900, "pitch": 58, "duration": 7, "velocity": 63}, {"time": 906, "pitch": 50, "duration": 11, "velocity": 46}, {"time": 912, "pitch": 58, "duration": 3, "velocity": 99}, {"time": 912, "pitch": 62, "duration": 3, "velocity": 92}, {"time": 924, "pitch": 51, "duration": 17, "velocity": 93}, {"time": 924, "pitch": 58, "duration": 14, "velocity": 79}, {"time": 924, "pitch": 63, "duration": 15, "velocity": 85}, {"time": 948, "pitch": 50, "duration": 16, "velocity": 94}, {"time": 948, "pitch": 57, "duration": 4, "velocity": 82}, {"time": 948, "pitch": 62, "duration": 7, "velocity": 87}, {"time": 954, "pitch": 57, "duration": 3, "velocity": 53}, {"time": 960, "pitch": 57, "duration": 2, "velocity": 102}, {"time": 960, "pitch": 65, "duration": 5, "velocity": 92}, {"time": 966, "pitch": 57, "duration": 1, "velocity": 37}, {"time": 972, "pitch": 43, "duration": 49, "velocity": 100}, {"time": 972, "pitch": 55, "duration": 9, "velocity": 69}, {"time": 972, "pitch": 58, "duration": 6, "velocity": 77}, {"time": 972, "pitch": 62, "duration": 6, "velocity": 84}, {"time": 978, "pitch": 50, "duration": 10, "velocity": 15}, {"time": 984, "pitch": 58, "duration": 5, "velocity": 102}, {"time": 984, "pitch": 62, "duration": 5, "velocity": 97}, {"time": 990, "pitch": 50, "duration": 9, "velocity": 43}, {"time": 993, "pitch": 55, "duration": 1, "velocity": 67}, {"time": 993, "pitch": 67, "duration": 2, "velocity": 82}, {"time": 996, "pitch": 55, "duration": 6, "velocity": 100}, {"time": 996, "pitch": 67, "duration": 5, "velocity": 97}, {"time": 1002, "pitch": 50, "duration": 9, "velocity": 78}, {"time": 1008, "pitch": 55, "duration": 11, "velocity": 105}, {"time": 1008, "pitch": 58, "duration": 11, "velocity": 119}, {"time": 1008, "pitch": 62, "duration": 11, "velocity": 114}, {"time": 1014, "pitch": 50, "duration": 7, "velocity": 87}, {"time": 1020, "pitch": 51, "duration": 15, "velocity": 90}, {"time": 1020, "pitch": 55, "duration": 5, "velocity": 80}, {"time": 1020, "pitch": 58, "duration": 5, "velocity": 72}, {"time": 1020, "pitch": 63, "duration": 6, "velocity": 77}, {"time": 1029, "pitch": 63, "duration": 9, "velocity": 99}, {"time": 1035, "pitch": 55, "duration": 5, "velocity": 64}, {"time": 1038, "pitch": 58, "duration": 2, "velocity": 96}, {"time": 1044, "pitch": 41, "duration": 14, "velocity": 100}, {"time": 1044, "pitch": 53, "duration": 11, "velocity": 80}, {"time": 1044, "pitch": 57, "duration": 7, "velocity": 89}, {"time": 1050, "pitch": 48, "duration": 7, "velocity": 32}, {"time": 1056, "pitch": 57, "duration": 4, "velocity": 105}, {"time": 1056, "pitch": 60, "duration": 4, "velocity": 89}, {"time": 1059, "pitch": 53, "duration": 4, "velocity": 80}, {"time": 1062, "pitch": 57, "duration": 2, "velocity": 100}, {"time": 1068, "pitch": 50, "duration": 23, "velocity": 94}, {"time": 1068, "pitch": 57, "duration": 8, "velocity": 94}, {"time": 1068, "pitch": 62, "duration": 7, "velocity": 97}, {"time": 1080, "pitch": 57, "duration": 3, "velocity": 102}, {"time": 1080, "pitch": 65, "duration": 4, "velocity": 97}, {"time": 1089, "pitch": 57, "duration": 4, "velocity": 80}, {"time": 1089, "pitch": 62, "duration": 5, "velocity": 82}, {"time": 1092, "pitch": 50, "duration": 18, "velocity": 48}, {"time": 1095, "pitch": 57, "duration": 5, "velocity": 82}, {"time": 1098, "pitch": 62, "duration": 4, "velocity": 92}, {"time": 1104, "pitch": 57, "duration": 3, "velocity": 111}, {"time": 1104, "pitch": 62, "duration": 5, "velocity": 100}, {"time": 1104, "pitch": 65, "duration": 5, "velocity": 97}, {"time": 1110, "pitch": 57, "duration": 2, "velocity": 87}, {"time": 1116, "pitch": 51, "duration": 13, "velocity": 96}, {"time": 1116, "pitch": 55, "duration": 8, "velocity": 69}, {"time": 1116, "pitch": 58, "duration": 7, "velocity": 68}, {"time": 1116, "pitch": 63, "duration": 8, "velocity": 50}, {"time": 1128, "pitch": 63, "duration": 10, "velocity": 105}, {"time": 1134, "pitch": 55, "duration": 4, "velocity": 55}, {"time": 1137, "pitch": 58, "duration": 1, "velocity": 72}, {"time": 1140, "pitch": 41, "duration": 14, "velocity": 97}, {"time": 1140, "pitch": 57, "duration": 5, "velocity": 82}, {"time": 1140, "pitch": 60, "duration": 7, "velocity": 94}, {"time": 1146, "pitch": 48, "duration": 7, "velocity": 55}, {"time": 1152, "pitch": 57, "duration": 3, "velocity": 92}, {"time": 1152, "pitch": 60, "duration": 5, "velocity": 100}, {"time": 1152, "pitch": 65, "duration": 7, "velocity": 97}, {"time": 1158, "pitch": 57, "duration": 2, "velocity": 30}, {"time": 1164, "pitch": 43, "duration": 38, "velocity": 100}, {"time": 1164, "pitch": 55, "duration": 9, "velocity": 87}, {"time": 1164, "pitch": 58, "duration": 5, "velocity": 102}, {"time": 1164, "pitch": 62, "duration": 6, "velocity": 89}, {"time": 1170, "pitch": 50, "duration": 7, "velocity": 27}, {"time": 1176, "pitch": 58, "duration": 3, "velocity": 93}, {"time": 1176, "pitch": 62, "duration": 4, "velocity": 94}, {"time": 1182, "pitch": 50, "duration": 5, "velocity": 27}, {"time": 1185, "pitch": 55, "duration": 2, "velocity": 108}, {"time": 1185, "pitch": 67, "duration": 2, "velocity": 100}, {"time": 1188, "pitch": 50, "duration": 4, "velocity": 44}, {"time": 1191, "pitch": 55, "duration": 3, "velocity": 89}, {"time": 1191, "pitch": 62, "duration": 3, "velocity": 94}, {"time": 1194, "pitch": 50, "duration": 7, "velocity": 76}, {"time": 1200, "pitch": 55, "duration": 5, "velocity": 87}, {"time": 1200, "pitch": 58, "duration": 5, "velocity": 102}, {"time": 1200, "pitch": 62, "duration": 6, "velocity": 102}, {"time": 1206, "pitch": 43, "duration": 4, "velocity": 92}, {"time": 1212, "pitch": 48, "duration": 43, "velocity": 87}, {"time": 1212, "pitch": 55, "duration": 4, "velocity": 89}, {"time": 1212, "pitch": 60, "duration": 6, "velocity": 94}, {"time": 1218, "pitch": 55, "duration": 1, "velocity": 19}, {"time": 1224, "pitch": 55, "duration": 2, "velocity": 92}, {"time": 1224, "pitch": 63, "duration": 3, "velocity": 90}, {"time": 1233, "pitch": 55, "duration": 6, "velocity": 78}, {"time": 1233, "pitch": 60, "duration": 7, "velocity": 87}, {"time": 1242, "pitch": 55, "duration": 3, "velocity": 26}, {"time": 1248, "pitch": 55, "duration": 3, "velocity": 94}, {"time": 1248, "pitch": 60, "duration": 5, "velocity": 100}, {"time": 1254, "pitch": 55, "duration": 2, "velocity": 66}, {"time": 1260, "pitch": 50, "duration": 39, "velocity": 87}, {"time": 1260, "pitch": 57, "duration": 6, "velocity": 100}, {"time": 1260, "pitch": 62, "duration": 6, "velocity": 87}, {"time": 1272, "pitch": 57, "duration": 2, "velocity": 100}, {"time": 1272, "pitch": 65, "duration": 2, "velocity": 105}, {"time": 1281, "pitch": 57, "duration": 3, "velocity": 84}, {"time": 1281, "pitch": 62, "duration": 3, "velocity": 78}, {"time": 1287, "pitch": 57, "duration": 2, "velocity": 53}, {"time": 1290, "pitch": 62, "duration": 2, "velocity": 66}, {"time": 1296, "pitch": 57, "duration": 2, "velocity": 84}, {"time": 1296, "pitch": 62, "duration": 2, "velocity": 78}, {"time": 1308, "pitch": 51, "duration": 15, "velocity": 90}, {"time": 1308, "pitch": 58, "duration": 6, "velocity": 74}, {"time": 1308, "pitch": 63, "duration": 6, "velocity": 85}, {"time": 1314, "pitch": 55, "duration": 3, "velocity": 49}, {"time": 1317, "pitch": 58, "duration": 4, "velocity": 102}, {"time": 1323, "pitch": 63, "duration": 3, "velocity": 109}, {"time": 1326, "pitch": 58, "duration": 1, "velocity": 2}, {"time": 1332, "pitch": 45, "duration": 19, "velocity": 89}, {"time": 1332, "pitch": 57, "duration": 4, "velocity": 97}, {"time": 1332, "pitch": 60, "duration": 6, "velocity": 100}, {"time": 1338, "pitch": 57, "duration": 4, "velocity": 43}, {"time": 1344, "pitch": 67, "duration": 4, "velocity": 105}, {"time": 1347, "pitch": 63, "duration": 4, "velocity": 79}, {"time": 1350, "pitch": 57, "duration": 3, "velocity": 82}, {"time": 1356, "pitch": 50, "duration": 24, "velocity": 89}, {"time": 1356, "pitch": 57, "duration": 4, "velocity": 92}, {"time": 1356, "pitch": 62, "duration": 6, "velocity": 94}, {"time": 1362, "pitch": 57, "duration": 1, "velocity": 22}, {"time": 1368, "pitch": 57, "duration": 3, "velocity": 105}, {"time": 1368, "pitch": 66, "duration": 3, "velocity": 99}, {"time": 1377, "pitch": 57, "duration": 3, "velocity": 102}, {"time": 1377, "pitch": 62, "duration": 4, "velocity": 97}, {"time": 1383, "pitch": 57, "duration": 1, "velocity": 47}, {"time": 1386, "pitch": 57, "duration": 7, "velocity": 92}, {"time": 1386, "pitch": 62, "duration": 7, "velocity": 89}, {"time": 1392, "pitch": 50, "duration": 12, "velocity": 105}, {"time": 1395, "pitch": 57, "duration": 2, "velocity": 114}, {"time": 1395, "pitch": 62, "duration": 4, "velocity": 117}, {"time": 1398, "pitch": 57, "duration": 4, "velocity": 84}, {"time": 1404, "pitch": 51, "duration": 15, "velocity": 90}, {"time": 1404, "pitch": 55, "duration": 5, "velocity": 80}, {"time": 1404, "pitch": 58, "duration": 5, "velocity": 72}, {"time": 1404, "pitch": 63, "duration": 6, "velocity": 77}, {"time": 1413, "pitch": 63, "duration": 9, "velocity": 99}, {"time": 1419, "pitch": 55, "duration": 5, "velocity": 64}, {"time": 1422, "pitch": 58, "duration": 2, "velocity": 96}, {"time": 1428, "pitch": 41, "duration": 14, "velocity": 100}, {"time": 1428, "pitch": 53, "duration": 11, "velocity": 80}, {"time": 1428, "pitch": 57, "duration": 7, "velocity": 89}, {"time": 1434, "pitch": 48, "duration": 7, "velocity": 32}, {"time": 1440, "pitch": 57, "duration": 4, "velocity": 105}, {"time": 1440, "pitch": 60, "duration": 4, "velocity": 89}, {"time": 1443, "pitch": 53, "duration": 4, "velocity": 80}, {"time": 1446, "pitch": 57, "duration": 2, "velocity": 100}, {"time": 1452, "pitch": 50, "duration": 23, "velocity": 94}, {"time": 1452, "pitch": 57, "duration": 8, "velocity": 94}, {"time": 1452, "pitch": 62, "duration": 7, "velocity": 97}, {"time": 1464, "pitch": 57, "duration": 3, "velocity": 102}, {"time": 1464, "pitch": 65, "duration": 4, "velocity": 97}, {"time": 1473, "pitch": 57, "duration": 4, "velocity": 80}, {"time": 1473, "pitch": 62, "duration": 5, "velocity": 82}, {"time": 1476, "pitch": 50, "duration": 18, "velocity": 48}, {"time": 1479, "pitch": 57, "duration": 5, "velocity": 82}, {"time": 1482, "pitch": 62, "duration": 4, "velocity": 92}, {"time": 1488, "pitch": 57, "duration": 3, "velocity": 111}, {"time": 1488, "pitch": 62, "duration": 5, "velocity": 100}, {"time": 1488, "pitch": 65, "duration": 5, "velocity": 97}, {"time": 1494, "pitch": 57, "duration": 2, "velocity": 87}, {"time": 1500, "pitch": 51, "duration": 13, "velocity": 96}, {"time": 1500, "pitch": 55, "duration": 8, "velocity": 69}, {"time": 1500, "pitch": 58, "duration": 7, "velocity": 68}, {"time": 1500, "pitch": 63, "duration": 8, "velocity": 50}, {"time": 1512, "pitch": 63, "duration": 10, "velocity": 105}, {"time": 1518, "pitch": 55, "duration": 4, "velocity": 55}, {"time": 1521, "pitch": 58, "duration": 1, "velocity": 72}, {"time": 1524, "pitch": 41, "duration": 14, "velocity": 97}, {"time": 1524, "pitch": 57, "duration": 5, "velocity": 82}, {"time": 1524, "pitch": 60, "duration": 7, "velocity": 94}, {"time": 1530, "pitch": 48, "duration": 7, "velocity": 55}, {"time": 1536, "pitch": 57, "duration": 3, "velocity": 92}, {"time": 1536, "pitch": 60, "duration": 5, "velocity": 100}, {"time": 1536, "pitch": 65, "duration": 7, "velocity": 97}, {"time": 1542, "pitch": 57, "duration": 2, "velocity": 30}, {"time": 1548, "pitch": 43, "duration": 38, "velocity": 100}, {"time": 1548, "pitch": 55, "duration": 9, "velocity": 87}, {"time": 1548, "pitch": 58, "duration": 5, "velocity": 102}, {"time": 1548, "pitch": 62, "duration": 6, "velocity": 89}, {"time": 1554, "pitch": 50, "duration": 7, "velocity": 27}, {"time": 1560, "pitch": 58, "duration": 3, "velocity": 93}, {"time": 1560, "pitch": 62, "duration": 4, "velocity": 94}, {"time": 1566, "pitch": 50, "duration": 5, "velocity": 27}, {"time": 1569, "pitch": 55, "duration": 2, "velocity": 108}, {"time": 1569, "pitch": 67, "duration": 2, "velocity": 100}, {"time": 1572, "pitch": 50, "duration": 4, "velocity": 44}, {"time": 1575, "pitch": 55, "duration": 3, "velocity": 89}, {"time": 1575, "pitch": 62, "duration": 3, "velocity": 94}, {"time": 1578, "pitch": 50, "duration": 7, "velocity": 76}, {"time": 1584, "pitch": 55, "duration": 5, "velocity": 87}, {"time": 1584, "pitch": 58, "duration": 5, "velocity": 102}, {"time": 1584, "pitch": 62, "duration": 6, "velocity": 102}, {"time": 1590, "pitch": 43, "duration": 4, "velocity": 92}, {"time": 1596, "pitch": 48, "duration": 43, "velocity": 87}, {"time": 1596, "pitch": 55, "duration": 4, "velocity": 89}, {"time": 1596, "pitch": 60, "duration": 6, "velocity": 94}, {"time": 1602, "pitch": 55, "duration": 1, "velocity": 19}, {"time": 1608, "pitch": 55, "duration": 2, "velocity": 92}, {"time": 1608, "pitch": 63, "duration": 3, "velocity": 90}, {"time": 1617, "pitch": 55, "duration": 6, "velocity": 78}, {"time": 1617, "pitch": 60, "duration": 7, "velocity": 87}, {"time": 1626, "pitch": 55, "duration": 3, "velocity": 26}, {"time": 1632, "pitch": 55, "duration": 3, "velocity": 94}, {"time": 1632, "pitch": 60, "duration": 5, "velocity": 100}, {"time": 1638, "pitch": 55, "duration": 2, "velocity": 66}, {"time": 1644, "pitch": 50, "duration": 39, "velocity": 87}, {"time": 1644, "pitch": 57, "duration": 6, "velocity": 100}, {"time": 1644, "pitch": 62, "duration": 6, "velocity": 87}, {"time": 1656, "pitch": 57, "duration": 2, "velocity": 100}, {"time": 1656, "pitch": 65, "duration": 2, "velocity": 105}, {"time": 1665, "pitch": 57, "duration": 3, "velocity": 84}, {"time": 1665, "pitch": 62, "duration": 3, "velocity": 78}, {"time": 1671, "pitch": 57, "duration": 2, "velocity": 53}, {"time": 1674, "pitch": 62, "duration": 2, "velocity": 66}, {"time": 1680, "pitch": 57, "duration": 2, "velocity": 84}, {"time": 1680, "pitch": 62, "duration": 2, "velocity": 78}, {"time": 1692, "pitch": 51, "duration": 15, "velocity": 99}, {"time": 1692, "pitch": 58, "duration": 7, "velocity": 65}, {"time": 1692, "pitch": 63, "duration": 7, "velocity": 63}, {"time": 1701, "pitch": 58, "duration": 6, "velocity": 85}, {"time": 1707, "pitch": 55, "duration": 4, "velocity": 84}, {"time": 1710, "pitch": 58, "duration": 2, "velocity": 93}, {"time": 1716, "pitch": 50, "duration": 15, "velocity": 97}, {"time": 1716, "pitch": 57, "duration": 4, "velocity": 84}, {"time": 1716, "pitch": 62, "duration": 7, "velocity": 97}, {"time": 1722, "pitch": 57, "duration": 4, "velocity": 87}, {"time": 1728, "pitch": 57, "duration": 3, "velocity": 92}, {"time": 1728, "pitch": 62, "duration": 6, "velocity": 97}, {"time": 1728, "pitch": 65, "duration": 6, "velocity": 100}, {"time": 1734, "pitch": 57, "duration": 2, "velocity": 100}, {"time": 1740, "pitch": 43, "duration": 39, "velocity": 100}, {"time": 1740, "pitch": 55, "duration": 10, "velocity": 73}, {"time": 1740, "pitch": 58, "duration": 6, "velocity": 54}, {"time": 1740, "pitch": 62, "duration": 7, "velocity": 84}, {"time": 1746, "pitch": 50, "duration": 8, "velocity": 30}, {"time": 1752, "pitch": 58, "duration": 6, "velocity": 87}, {"time": 1752, "pitch": 62, "duration": 6, "velocity": 94}, {"time": 1758, "pitch": 50, "duration": 5, "velocity": 51}, {"time": 1761, "pitch": 67, "duration": 7, "velocity": 94}, {"time": 1764, "pitch": 50, "duration": 16, "velocity": 89}, {"time": 1767, "pitch": 55, "duration": 7, "velocity": 89}, {"time": 1770, "pitch": 58, "duration": 4, "velocity": 93}, {"time": 1776, "pitch": 55, "duration": 4, "velocity": 89}, {"time": 1776, "pitch": 58, "duration": 5, "velocity": 99}, {"time": 1776, "pitch": 62, "duration": 4, "velocity": 97}, {"time": 1782, "pitch": 55, "duration": 3, "velocity": 64}, {"time": 1788, "pitch": 51, "duration": 12, "velocity": 93}, {"time": 1788, "pitch": 58, "duration": 7, "velocity": 61}, {"time": 1788, "pitch": 63, "duration": 8, "velocity": 63}, {"time": 1794, "pitch": 55, "duration": 5, "velocity": 52}, {"time": 1800, "pitch": 55, "duration": 5, "velocity": 97}, {"time": 1800, "pitch": 58, "duration": 5, "velocity": 109}, {"time": 1800, "pitch": 63, "duration": 6, "velocity": 93}, {"time": 1812, "pitch": 50, "duration": 16, "velocity": 89}, {"time": 1812, "pitch": 57, "duration": 4, "velocity": 89}, {"time": 1812, "pitch": 62, "duration": 6, "velocity": 78}, {"time": 1818, "pitch": 57, "duration": 2, "velocity": 51}, {"time": 1821, "pitch": 65, "duration": 3, "velocity": 102}, {"time": 1827, "pitch": 62, "duration": 3, "velocity": 84}, {"time": 1830, "pitch": 57, "duration": 2, "velocity": 76}, {"time": 1836, "pitch": 43, "duration": 43, "velocity": 94}, {"time": 1836, "pitch": 55, "duration": 8, "velocity": 66}, {"time": 1836, "pitch": 58, "duration": 7, "velocity": 65}, {"time": 1842, "pitch": 50, "duration": 8, "velocity": 40}, {"time": 1848, "pitch": 58, "duration": 7, "velocity": 87}, {"time": 1848, "pitch": 62, "duration": 8, "velocity": 78}, {"time": 1854, "pitch": 50, "duration": 24, "velocity": 42}, {"time": 1860, "pitch": 55, "duration": 5, "velocity": 102}, {"time": 1860, "pitch": 67, "duration": 5, "velocity": 94}, {"time": 1872, "pitch": 58, "duration": 6, "velocity": 90}, {"time": 1872, "pitch": 62, "duration": 8, "velocity": 84}, {"time": 1884, "pitch": 48, "duration": 20, "velocity": 94}, {"time": 1884, "pitch": 55, "duration": 4, "velocity": 82}, {"time": 1884, "pitch": 60, "duration": 5, "velocity": 94}, {"time": 1893, "pitch": 55, "duration": 3, "velocity": 94}, {"time": 1893, "pitch": 63, "duration": 3, "velocity": 77}, {"time": 1902, "pitch": 55, "duration": 6, "velocity": 78}, {"time": 1902, "pitch": 60, "duration": 7, "velocity": 87}, {"time": 1911, "pitch": 55, "duration": 3, "velocity": 92}, {"time": 1911, "pitch": 60, "duration": 6, "velocity": 94}, {"time": 1917, "pitch": 55, "duration": 2, "velocity": 64}, {"time": 1920, "pitch": 48, "duration": 7, "velocity": 87}, {"time": 1920, "pitch": 55, "duration": 4, "velocity": 94}, {"time": 1920, "pitch": 60, "duration": 6, "velocity": 102}, {"time": 1926, "pitch": 55, "duration": 3, "velocity": 60}, {"time": 1932, "pitch": 43, "duration": 38, "velocity": 78}, {"time": 1932, "pitch": 55, "duration": 6, "velocity": 87}, {"time": 1932, "pitch": 62, "duration": 6, "velocity": 89}, {"time": 1941, "pitch": 58, "duration": 4, "velocity": 99}, {"time": 1941, "pitch": 62, "duration": 3, "velocity": 94}, {"time": 1950, "pitch": 55, "duration": 6, "velocity": 94}, {"time": 1950, "pitch": 62, "duration": 5, "velocity": 92}, {"time": 1956, "pitch": 50, "duration": 4, "velocity": 47}, {"time": 1959, "pitch": 55, "duration": 1, "velocity": 57}, {"time": 1959, "pitch": 58, "duration": 5, "velocity": 105}, {"time": 1959, "pitch": 62, "duration": 5, "velocity": 97}, {"time": 1962, "pitch": 50, "duration": 7, "velocity": 35}, {"time": 1965, "pitch": 55, "duration": 2, "velocity": 64}, {"time": 1968, "pitch": 55, "duration": 5, "velocity": 94}, {"time": 1968, "pitch": 58, "duration": 4, "velocity": 102}, {"time": 1968, "pitch": 62, "duration": 5, "velocity": 97}, {"time": 1974, "pitch": 43, "duration": 4, "velocity": 94}, {"time": 1980, "pitch": 48, "duration": 38, "velocity": 84}, {"time": 1980, "pitch": 55, "duration": 7, "velocity": 89}, {"time": 1980, "pitch": 60, "duration": 8, "velocity": 94}, {"time": 1992, "pitch": 55, "duration": 5, "velocity": 80}, {"time": 1992, "pitch": 60, "duration": 5, "velocity": 94}, {"time": 1992, "pitch": 63, "duration": 6, "velocity": 82}, {"time": 2001, "pitch": 55, "duration": 4, "velocity": 92}, {"time": 2001, "pitch": 60, "duration": 6, "velocity": 102}, {"time": 2007, "pitch": 55, "duration": 2, "velocity": 73}, {"time": 2010, "pitch": 55, "duration": 1, "velocity": 38}, {"time": 2010, "pitch": 60, "duration": 2, "velocity": 89}, {"time": 2016, "pitch": 55, "duration": 6, "velocity": 105}, {"time": 2016, "pitch": 60, "duration": 7, "velocity": 105}, {"time": 2022, "pitch": 48, "duration": 4, "velocity": 80}, {"time": 2028, "pitch": 50, "duration": 38, "velocity": 73}, {"time": 2028, "pitch": 57, "duration": 9, "velocity": 97}, {"time": 2028, "pitch": 62, "duration": 9, "velocity": 89}, {"time": 2040, "pitch": 57, "duration": 3, "velocity": 82}, {"time": 2040, "pitch": 66, "duration": 5, "velocity": 96}, {"time": 2043, "pitch": 62, "duration": 2, "velocity": 55}, {"time": 2046, "pitch": 57, "duration": 4, "velocity": 67}, {"time": 2049, "pitch": 62, "duration": 1, "velocity": 53}, {"time": 2052, "pitch": 57, "duration": 15, "velocity": 89}, {"time": 2052, "pitch": 62, "duration": 15, "velocity": 94}, {"time": 2076, "pitch": 43, "duration": 44, "velocity": 94}, {"time": 2076, "pitch": 55, "duration": 7, "velocity": 69}, {"time": 2076, "pitch": 58, "duration": 8, "velocity": 61}, {"time": 2082, "pitch": 50, "duration": 14, "velocity": 44}, {"time": 2094, "pitch": 55, "duration": 3, "velocity": 89}, {"time": 2094, "pitch": 62, "duration": 3, "velocity": 87}, {"time": 2106, "pitch": 50, "duration": 11, "velocity": 1}, {"time": 2112, "pitch": 58, "duration": 6, "velocity": 70}, {"time": 2118, "pitch": 55, "duration": 3, "velocity": 49}, {"time": 2124, "pitch": 48, "duration": 37, "velocity": 84}, {"time": 2124, "pitch": 55, "duration": 8, "velocity": 84}, {"time": 2124, "pitch": 60, "duration": 9, "velocity": 84}, {"time": 2136, "pitch": 55, "duration": 3, "velocity": 40}, {"time": 2142, "pitch": 55, "duration": 8, "velocity": 78}, {"time": 2142, "pitch": 63, "duration": 13, "velocity": 74}, {"time": 2160, "pitch": 55, "duration": 3, "velocity": 78}, {"time": 2160, "pitch": 60, "duration": 4, "velocity": 82}, {"time": 2172, "pitch": 51, "duration": 12, "velocity": 59}, {"time": 2172, "pitch": 58, "duration": 9, "velocity": 59}, {"time": 2172, "pitch": 63, "duration": 9, "velocity": 54}, {"time": 2184, "pitch": 58, "duration": 6, "velocity": 99}, {"time": 2184, "pitch": 63, "duration": 11, "velocity": 102}, {"time": 2190, "pitch": 55, "duration": 2, "velocity": 22}, {"time": 2196, "pitch": 41, "duration": 16, "velocity": 67}, {"time": 2196, "pitch": 57, "duration": 19, "velocity": 71}, {"time": 2196, "pitch": 60, "duration": 8, "velocity": 78}, {"time": 2214, "pitch": 60, "duration": 2, "velocity": 87}, {"time": 2214, "pitch": 65, "duration": 6, "velocity": 94}, {"time": 2220, "pitch": 46, "duration": 26, "velocity": 52}, {"time": 2226, "pitch": 53, "duration": 15, "velocity": 1}, {"time": 2232, "pitch": 58, "duration": 4, "velocity": 99}, {"time": 2238, "pitch": 58, "duration": 16, "velocity": 99}, {"time": 2238, "pitch": 62, "duration": 15, "velocity": 89}, {"time": 2256, "pitch": 58, "duration": 4, "velocity": 93}, {"time": 2256, "pitch": 62, "duration": 9, "velocity": 89}, {"time": 2268, "pitch": 51, "duration": 17, "velocity": 55}, {"time": 2268, "pitch": 58, "duration": 10, "velocity": 63}, {"time": 2268, "pitch": 63, "duration": 10, "velocity": 63}, {"time": 2280, "pitch": 58, "duration": 7, "velocity": 65}, {"time": 2286, "pitch": 55, "duration": 3, "velocity": 38}, {"time": 2292, "pitch": 41, "duration": 18, "velocity": 97}, {"time": 2292, "pitch": 57, "duration": 16, "velocity": 78}, {"time": 2292, "pitch": 60, "duration": 10, "velocity": 53}, {"time": 2310, "pitch": 60, "duration": 3, "velocity": 78}, {"time": 2310, "pitch": 65, "duration": 4, "velocity": 89}, {"time": 2316, "pitch": 50, "duration": 18, "velocity": 84}, {"time": 2316, "pitch": 57, "duration": 8, "velocity": 84}, {"time": 2316, "pitch": 62, "duration": 7, "velocity": 78}, {"time": 2328, "pitch": 65, "duration": 6, "velocity": 100}, {"time": 2334, "pitch": 62, "duration": 2, "velocity": 60}, {"time": 2340, "pitch": 43, "duration": 17, "velocity": 87}, {"time": 2340, "pitch": 55, "duration": 10, "velocity": 73}, {"time": 2340, "pitch": 58, "duration": 7, "velocity": 63}, {"time": 2346, "pitch": 50, "duration": 11, "velocity": 46}, {"time": 2352, "pitch": 58, "duration": 3, "velocity": 99}, {"time": 2352, "pitch": 62, "duration": 3, "velocity": 92}, {"time": 2364, "pitch": 51, "duration": 17, "velocity": 93}, {"time": 2364, "pitch": 58, "duration": 14, "velocity": 79}, {"time": 2364, "pitch": 63, "duration": 15, "velocity": 85}, {"time": 2388, "pitch": 50, "duration": 16, "velocity": 94}, {"time": 2388, "pitch": 57, "duration": 4, "velocity": 82}, {"time": 2388, "pitch": 62, "duration": 7, "velocity": 87}, {"time": 2394, "pitch": 57, "duration": 3, "velocity": 53}, {"time": 2400, "pitch": 57, "duration": 2, "velocity": 102}, {"time": 2400, "pitch": 65, "duration": 5, "velocity": 92}, {"time": 2406, "pitch": 57, "duration": 1, "velocity": 37}, {"time": 2412, "pitch": 43, "duration": 49, "velocity": 100}, {"time": 2412, "pitch": 55, "duration": 9, "velocity": 69}, {"time": 2412, "pitch": 58, "duration": 6, "velocity": 77}, {"time": 2412, "pitch": 62, "duration": 6, "velocity": 84}, {"time": 2418, "pitch": 50, "duration": 10, "velocity": 15}, {"time": 2424, "pitch": 58, "duration": 5, "velocity": 102}, {"time": 2424, "pitch": 62, "duration": 5, "velocity": 97}, {"time": 2430, "pitch": 50, "duration": 9, "velocity": 43}, {"time": 2433, "pitch": 55, "duration": 1, "velocity": 67}, {"time": 2433, "pitch": 67, "duration": 2, "velocity": 82}, {"time": 2436, "pitch": 55, "duration": 6, "velocity": 100}, {"time": 2436, "pitch": 67, "duration": 5, "velocity": 97}, {"time": 2442, "pitch": 50, "duration": 9, "velocity": 78}, {"time": 2448, "pitch": 55, "duration": 11, "velocity": 105}, {"time": 2448, "pitch": 58, "duration": 11, "velocity": 119}, {"time": 2448, "pitch": 62, "duration": 11, "velocity": 114}, {"time": 2454, "pitch": 50, "duration": 7, "velocity": 87}, {"time": 2460, "pitch": 51, "duration": 15, "velocity": 90}, {"time": 2460, "pitch": 55, "duration": 5, "velocity": 80}, {"time": 2460, "pitch": 58, "duration": 5, "velocity": 72}, {"time": 2460, "pitch": 63, "duration": 6, "velocity": 77}, {"time": 2469, "pitch": 63, "duration": 9, "velocity": 99}, {"time": 2475, "pitch": 55, "duration": 5, "velocity": 64}, {"time": 2478, "pitch": 58, "duration": 2, "velocity": 96}, {"time": 2484, "pitch": 41, "duration": 14, "velocity": 100}, {"time": 2484, "pitch": 53, "duration": 11, "velocity": 80}, {"time": 2484, "pitch": 57, "duration": 7, "velocity": 89}, {"time": 2490, "pitch": 48, "duration": 7, "velocity": 32}, {"time": 2496, "pitch": 57, "duration": 4, "velocity": 105}, {"time": 2496, "pitch": 60, "duration": 4, "velocity": 89}, {"time": 2499, "pitch": 53, "duration": 4, "velocity": 80}, {"time": 2502, "pitch": 57, "duration": 2, "velocity": 100}, {"time": 2508, "pitch": 50, "duration": 23, "velocity": 94}, {"time": 2508, "pitch": 57, "duration": 8, "velocity": 94}, {"time": 2508, "pitch": 62, "duration": 7, "velocity": 97}, {"time": 2520, "pitch": 57, "duration": 3, "velocity": 102}, {"time": 2520, "pitch": 65, "duration": 4, "velocity": 97}, {"time": 2529, "pitch": 57, "duration": 4, "velocity": 80}, {"time": 2529, "pitch": 62, "duration": 5, "velocity": 82}, {"time": 2532, "pitch": 50, "duration": 18, "velocity": 48}, {"time": 2535, "pitch": 57, "duration": 5, "velocity": 82}, {"time": 2538, "pitch": 62, "duration": 4, "velocity": 92}, {"time": 2544, "pitch": 57, "duration": 3, "velocity": 111}, {"time": 2544, "pitch": 62, "duration": 5, "velocity": 100}, {"time": 2544, "pitch": 65, "duration": 5, "velocity": 97}, {"time": 2550, "pitch": 57, "duration": 2, "velocity": 87}, {"time": 2556, "pitch": 51, "duration": 13, "velocity": 96}, {"time": 2556, "pitch": 55, "duration": 8, "velocity": 69}, {"time": 2556, "pitch": 58, "duration": 7, "velocity": 68}, {"time": 2556, "pitch": 63, "duration": 8, "velocity": 50}, {"time": 2568, "pitch": 63, "duration": 10, "velocity": 105}, {"time": 2574, "pitch": 55, "duration": 4, "velocity": 55}, {"time": 2577, "pitch": 58, "duration": 1, "velocity": 72}, {"time": 2580, "pitch": 41, "duration": 14, "velocity": 97}, {"time": 2580, "pitch": 57, "duration": 5, "velocity": 82}, {"time": 2580, "pitch": 60, "duration": 7, "velocity": 94}, {"time": 2586, "pitch": 48, "duration": 7, "velocity": 55}, {"time": 2592, "pitch": 57, "duration": 3, "velocity": 92}, {"time": 2592, "pitch": 60, "duration": 5, "velocity": 100}, {"time": 2592, "pitch": 65, "duration": 7, "velocity": 97}, {"time": 2598, "pitch": 57, "duration": 2, "velocity": 30}, {"time": 2604, "pitch": 43, "duration": 38, "velocity": 100}, {"time": 2604, "pitch": 55, "duration": 9, "velocity": 87}, {"time": 2604, "pitch": 58, "duration": 5, "velocity": 102}, {"time": 2604, "pitch": 62, "duration": 6, "velocity": 89}, {"time": 2610, "pitch": 50, "duration": 7, "velocity": 27}, {"time": 2616, "pitch": 58, "duration": 3, "velocity": 93}, {"time": 2616, "pitch": 62, "duration": 4, "velocity": 94}, {"time": 2622, "pitch": 50, "duration": 5, "velocity": 27}, {"time": 2625, "pitch": 55, "duration": 2, "velocity": 108}, {"time": 2625, "pitch": 67, "duration": 2, "velocity": 100}, {"time": 2628, "pitch": 50, "duration": 4, "velocity": 44}, {"time": 2631, "pitch": 55, "duration": 3, "velocity": 89}, {"time": 2631, "pitch": 62, "duration": 3, "velocity": 94}, {"time": 2634, "pitch": 50, "duration": 7, "velocity": 76}, {"time": 2640, "pitch": 55, "duration": 5, "velocity": 87}, {"time": 2640, "pitch": 58, "duration": 5, "velocity": 102}, {"time": 2640, "pitch": 62, "duration": 6, "velocity": 102}, {"time": 2646, "pitch": 43, "duration": 4, "velocity": 92}, {"time": 2652, "pitch": 48, "duration": 43, "velocity": 87}, {"time": 2652, "pitch": 55, "duration": 4, "velocity": 89}, {"time": 2652, "pitch": 60, "duration": 6, "velocity": 94}, {"time": 2658, "pitch": 55, "duration": 1, "velocity": 19}, {"time": 2664, "pitch": 55, "duration": 2, "velocity": 92}, {"time": 2664, "pitch": 63, "duration": 3, "velocity": 90}, {"time": 2673, "pitch": 55, "duration": 6, "velocity": 78}, {"time": 2673, "pitch": 60, "duration": 7, "velocity": 87}, {"time": 2682, "pitch": 55, "duration": 3, "velocity": 26}, {"time": 2688, "pitch": 55, "duration": 3, "velocity": 94}, {"time": 2688, "pitch": 60, "duration": 5, "velocity": 100}, {"time": 2694, "pitch": 55, "duration": 2, "velocity": 66}, {"time": 2700, "pitch": 50, "duration": 39, "velocity": 87}, {"time": 2700, "pitch": 57, "duration": 6, "velocity": 100}, {"time": 2700, "pitch": 62, "duration": 6, "velocity": 87}, {"time": 2712, "pitch": 57, "duration": 2, "velocity": 100}, {"time": 2712, "pitch": 65, "duration": 2, "velocity": 105}, {"time": 2721, "pitch": 57, "duration": 3, "velocity": 84}, {"time": 2721, "pitch": 62, "duration": 3, "velocity": 78}, {"time": 2727, "pitch": 57, "duration": 2, "velocity": 53}, {"time": 2730, "pitch": 62, "duration": 2, "velocity": 66}, {"time": 2736, "pitch": 57, "duration": 2, "velocity": 84}, {"time": 2736, "pitch": 62, "duration": 2, "velocity": 78}, {"time": 2748, "pitch": 51, "duration": 15, "velocity": 90}, {"time": 2748, "pitch": 58, "duration": 6, "velocity": 74}, {"time": 2748, "pitch": 63, "duration": 6, "velocity": 85}, {"time": 2754, "pitch": 55, "duration": 3, "velocity": 49}, {"time": 2757, "pitch": 58, "duration": 4, "velocity": 102}, {"time": 2763, "pitch": 63, "duration": 3, "velocity": 109}, {"time": 2766, "pitch": 58, "duration": 1, "velocity": 2}, {"time": 2772, "pitch": 45, "duration": 19, "velocity": 89}, {"time": 2772, "pitch": 57, "duration": 4, "velocity": 97}, {"time": 2772, "pitch": 60, "duration": 6, "velocity": 100}, {"time": 2778, "pitch": 57, "duration": 4, "velocity": 43}, {"time": 2784, "pitch": 67, "duration": 4, "velocity": 105}, {"time": 2787, "pitch": 63, "duration": 4, "velocity": 79}, {"time": 2790, "pitch": 57, "duration": 3, "velocity": 82}, {"time": 2796, "pitch": 50, "duration": 24, "velocity": 89}, {"time": 2796, "pitch": 57, "duration": 4, "velocity": 92}, {"time": 2796, "pitch": 62, "duration": 6, "velocity": 94}, {"time": 2802, "pitch": 57, "duration": 1, "velocity": 22}, {"time": 2808, "pitch": 57, "duration": 3, "velocity": 105}, {"time": 2808, "pitch": 66, "duration": 3, "velocity": 99}, {"time": 2817, "pitch": 57, "duration": 3, "velocity": 102}, {"time": 2817, "pitch": 62, "duration": 4, "velocity": 97}, {"time": 2823, "pitch": 57, "duration": 1, "velocity": 47}, {"time": 2826, "pitch": 57, "duration": 7, "velocity": 92}, {"time": 2826, "pitch": 62, "duration": 7, "velocity": 89}, {"time": 2832, "pitch": 50, "duration": 12, "velocity": 105}, {"time": 2835, "pitch": 57, "duration": 2, "velocity": 114}, {"time": 2835, "pitch": 62, "duration": 4, "velocity": 117}, {"time": 2838, "pitch": 57, "duration": 4, "velocity": 84}, {"time": 2844, "pitch": 51, "duration": 15, "velocity": 90}, {"time": 2844, "pitch": 55, "duration": 5, "velocity": 80}, {"time": 2844, "pitch": 58, "duration": 5, "velocity": 72}, {"time": 2844, "pitch": 63, "duration": 6, "velocity": 77}, {"time": 2853, "pitch": 63, "duration": 9, "velocity": 99}, {"time": 2859, "pitch": 55, "duration": 5, "velocity": 64}, {"time": 2862, "pitch": 58, "duration": 2, "velocity": 96}, {"time": 2868, "pitch": 41, "duration": 14, "velocity": 100}, {"time": 2868, "pitch": 53, "duration": 11, "velocity": 80}, {"time": 2868, "pitch": 57, "duration": 7, "velocity": 89}, {"time": 2874, "pitch": 48, "duration": 7, "velocity": 32}, {"time": 2880, "pitch": 57, "duration": 4, "velocity": 105}, {"time": 2880, "pitch": 60, "duration": 4, "velocity": 89}, {"time": 2883, "pitch": 53, "duration": 4, "velocity": 80}, {"time": 2886, "pitch": 57, "duration": 2, "velocity": 100}, {"time": 2892, "pitch": 50, "duration": 23, "velocity": 94}, {"time": 2892, "pitch": 57, "duration": 8, "velocity": 94}, {"time": 2892, "pitch": 62, "duration": 7, "velocity": 97}, {"time": 2904, "pitch": 57, "duration": 3, "velocity": 102}, {"time": 2904, "pitch": 65, "duration": 4, "velocity": 97}, {"time": 2913, "pitch": 57, "duration": 4, "velocity": 80}, {"time": 2913, "pitch": 62, "duration": 5, "velocity": 82}, {"time": 2916, "pitch": 50, "duration": 18, "velocity": 48}, {"time": 2919, "pitch": 57, "duration": 5, "velocity": 82}, {"time": 2922, "pitch": 62, "duration": 4, "velocity": 92}, {"time": 2928, "pitch": 57, "duration": 3, "velocity": 111}, {"time": 2928, "pitch": 62, "duration": 5, "velocity": 100}, {"time": 2928, "pitch": 65, "duration": 5, "velocity": 97}, {"time": 2934, "pitch": 57, "duration": 2, "velocity": 87}, {"time": 2940, "pitch": 51, "duration": 13, "velocity": 96}, {"time": 2940, "pitch": 55, "duration": 8, "velocity": 69}, {"time": 2940, "pitch": 58, "duration": 7, "velocity": 68}, {"time": 2940, "pitch": 63, "duration": 8, "velocity": 50}, {"time": 2952, "pitch": 63, "duration": 10, "velocity": 105}, {"time": 2958, "pitch": 55, "duration": 4, "velocity": 55}, {"time": 2961, "pitch": 58, "duration": 1, "velocity": 72}, {"time": 2964, "pitch": 41, "duration": 14, "velocity": 97}, {"time": 2964, "pitch": 57, "duration": 5, "velocity": 82}, {"time": 2964, "pitch": 60, "duration": 7, "velocity": 94}, {"time": 2970, "pitch": 48, "duration": 7, "velocity": 55}, {"time": 2976, "pitch": 57, "duration": 3, "velocity": 92}, {"time": 2976, "pitch": 60, "duration": 5, "velocity": 100}, {"time": 2976, "pitch": 65, "duration": 7, "velocity": 97}, {"time": 2982, "pitch": 57, "duration": 2, "velocity": 30}, {"time": 2988, "pitch": 43, "duration": 38, "velocity": 100}, {"time": 2988, "pitch": 55, "duration": 9, "velocity": 87}, {"time": 2988, "pitch": 58, "duration": 5, "velocity": 102}, {"time": 2988, "pitch": 62, "duration": 6, "velocity": 89}, {"time": 2994, "pitch": 50, "duration": 7, "velocity": 27}, {"time": 3000, "pitch": 58, "duration": 3, "velocity": 93}, {"time": 3000, "pitch": 62, "duration": 4, "velocity": 94}, {"time": 3006, "pitch": 50, "duration": 5, "velocity": 27}, {"time": 3009, "pitch": 55, "duration": 2, "velocity": 108}, {"time": 3009, "pitch": 67, "duration": 2, "velocity": 100}, {"time": 3012, "pitch": 50, "duration": 4, "velocity": 44}, {"time": 3015, "pitch": 55, "duration": 3, "velocity": 89}, {"time": 3015, "pitch": 62, "duration": 3, "velocity": 94}, {"time": 3018, "pitch": 50, "duration": 7, "velocity": 76}, {"time": 3024, "pitch": 55, "duration": 5, "velocity": 87}, {"time": 3024, "pitch": 58, "duration": 5, "velocity": 102}, {"time": 3024, "pitch": 62, "duration": 6, "velocity": 102}, {"time": 3030, "pitch": 43, "duration": 4, "velocity": 92}, {"time": 3036, "pitch": 48, "duration": 43, "velocity": 87}, {"time": 3036, "pitch": 55, "duration": 4, "velocity": 89}, {"time": 3036, "pitch": 60, "duration": 6, "velocity": 94}, {"time": 3042, "pitch": 55, "duration": 1, "velocity": 19}, {"time": 3048, "pitch": 55, "duration": 2, "velocity": 92}, {"time": 3048, "pitch": 63, "duration": 3, "velocity": 90}, {"time": 3057, "pitch": 55, "duration": 6, "velocity": 78}, {"time": 3057, "pitch": 60, "duration": 7, "velocity": 87}, {"time": 3066, "pitch": 55, "duration": 3, "velocity": 26}, {"time": 3072, "pitch": 55, "duration": 3, "velocity": 94}, {"time": 3072, "pitch": 60, "duration": 5, "velocity": 100}, {"time": 3078, "pitch": 55, "duration": 2, "velocity": 66}, {"time": 3084, "pitch": 50, "duration": 39, "velocity": 87}, {"time": 3084, "pitch": 57, "duration": 6, "velocity": 100}, {"time": 3084, "pitch": 62, "duration": 6, "velocity": 87}, {"time": 3096, "pitch": 57, "duration": 2, "velocity": 100}, {"time": 3096, "pitch": 65, "duration": 2, "velocity": 105}, {"time": 3105, "pitch": 57, "duration": 3, "velocity": 84}, {"time": 3105, "pitch": 62, "duration": 3, "velocity": 78}, {"time": 3111, "pitch": 57, "duration": 2, "velocity": 53}, {"time": 3114, "pitch": 62, "duration": 2, "velocity": 66}, {"time": 3120, "pitch": 57, "duration": 2, "velocity": 84}, {"time": 3120, "pitch": 62, "duration": 2, "velocity": 78}, {"time": 3132, "pitch": 51, "duration": 15, "velocity": 99}, {"time": 3132, "pitch": 58, "duration": 7, "velocity": 65}, {"time": 3132, "pitch": 63, "duration": 7, "velocity": 63}, {"time": 3141, "pitch": 58, "duration": 6, "velocity": 85}, {"time": 3147, "pitch": 55, "duration": 4, "velocity": 84}, {"time": 3150, "pitch": 58, "duration": 2, "velocity": 93}, {"time": 3156, "pitch": 50, "duration": 15, "velocity": 97}, {"time": 3156, "pitch": 57, "duration": 4, "velocity": 84}, {"time": 3156, "pitch": 62, "duration": 7, "velocity": 97}, {"time": 3162, "pitch": 57, "duration": 4, "velocity": 87}, {"time": 3168, "pitch": 57, "duration": 3, "velocity": 92}, {"time": 3168, "pitch": 62, "duration": 6, "velocity": 97}, {"time": 3168, "pitch": 65, "duration": 6, "velocity": 100}, {"time": 3174, "pitch": 57, "duration": 2, "velocity": 100}, {"time": 3180, "pitch": 43, "duration": 39, "velocity": 100}, {"time": 3180, "pitch": 55, "duration": 10, "velocity": 73}, {"time": 3180, "pitch": 58, "duration": 6, "velocity": 54}, {"time": 3180, "pitch": 62, "duration": 7, "velocity": 84}, {"time": 3186, "pitch": 50, "duration": 8, "velocity": 30}, {"time": 3192, "pitch": 58, "duration": 6, "velocity": 87}, {"time": 3192, "pitch": 62, "duration": 6, "velocity": 94}, {"time": 3198, "pitch": 50, "duration": 5, "velocity": 51}, {"time": 3201, "pitch": 67, "duration": 7, "velocity": 94}, {"time": 3204, "pitch": 50, "duration": 16, "velocity": 89}, {"time": 3207, "pitch": 55, "duration": 7, "velocity": 89}, {"time": 3210, "pitch": 58, "duration": 4, "velocity": 93}, {"time": 3216, "pitch": 55, "duration": 4, "velocity": 89}, {"time": 3216, "pitch": 58, "duration": 5, "velocity": 99}, {"time": 3216, "pitch": 62, "duration": 4, "velocity": 97}, {"time": 3222, "pitch": 55, "duration": 3, "velocity": 64}, {"time": 3228, "pitch": 45, "duration": 34, "velocity": 100}, {"time": 3228, "pitch": 57, "duration": 8, "velocity": 97}, {"time": 3228, "pitch": 60, "duration": 7, "velocity": 94}, {"time": 3234, "pitch": 52, "duration": 8, "velocity": 44}, {"time": 3240, "pitch": 57, "duration": 7, "velocity": 100}, {"time": 3240, "pitch": 60, "duration": 4, "velocity": 102}, {"time": 3240, "pitch": 64, "duration": 3, "velocity": 94}, {"time": 3246, "pitch": 52, "duration": 5, "velocity": 40}, {"time": 3249, "pitch": 57, "duration": 4, "velocity": 100}, {"time": 3249, "pitch": 69, "duration": 5, "velocity": 102}, {"time": 3252, "pitch": 52, "duration": 4, "velocity": 69}, {"time": 3255, "pitch": 57, "duration": 7, "velocity": 89}, {"time": 3258, "pitch": 60, "duration": 4, "velocity": 100}, {"time": 3264, "pitch": 45, "duration": 12, "velocity": 89}, {"time": 3264, "pitch": 52, "duration": 12, "velocity": 87}, {"time": 3264, "pitch": 57, "duration": 4, "velocity": 82}, {"time": 3264, "pitch": 60, "duration": 5, "velocity": 92}, {"time": 3264, "pitch": 64, "duration": 5, "velocity": 89}, {"time": 3270, "pitch": 57, "duration": 6, "velocity": 117}, {"time": 3270, "pitch": 60, "duration": 1, "velocity": 67}, {"time": 3276, "pitch": 52, "duration": 1, "velocity": 94}, {"time": 3276, "pitch": 59, "duration": 8, "velocity": 94}, {"time": 3276, "pitch": 64, "duration": 7, "velocity": 97}, {"time": 3288, "pitch": 59, "duration": 3, "velocity": 102}, {"time": 3288, "pitch": 67, "duration": 4, "velocity": 97}, {"time": 3297, "pitch": 59, "duration": 4, "velocity": 80}, {"time": 3297, "pitch": 64, "duration": 5, "velocity": 82}, {"time": 3300, "pitch": 52, "duration": 18, "velocity": 48}, {"time": 3303, "pitch": 59, "duration": 5, "velocity": 82}, {"time": 3306, "pitch": 64, "duration": 4, "velocity": 92}, {"time": 3312, "pitch": 59, "duration": 3, "velocity": 111}, {"time": 3312, "pitch": 64, "duration": 5, "velocity": 100}, {"time": 3312, "pitch": 67, "duration": 5, "velocity": 97}, {"time": 3318, "pitch": 59, "duration": 2, "velocity": 87}, {"time": 3324, "pitch": 53, "duration": 13, "velocity": 96}, {"time": 3324, "pitch": 57, "duration": 8, "velocity": 69}, {"time": 3324, "pitch": 60, "duration": 7, "velocity": 68}, {"time": 3324, "pitch": 65, "duration": 8, "velocity": 50}, {"time": 3336, "pitch": 65, "duration": 10, "velocity": 105}, {"time": 3342, "pitch": 57, "duration": 4, "velocity": 55}, {"time": 3345, "pitch": 60, "duration": 1, "velocity": 72}, {"time": 3348, "pitch": 43, "duration": 14, "velocity": 97}, {"time": 3348, "pitch": 59, "duration": 5, "velocity": 82}, {"time": 3348, "pitch": 62, "duration": 7, "velocity": 94}, {"time": 3354, "pitch": 50, "duration": 7, "velocity": 55}, {"time": 3360, "pitch": 59, "duration": 3, "velocity": 92}, {"time": 3360, "pitch": 62, "duration": 5, "velocity": 100}, {"time": 3360, "pitch": 67, "duration": 7, "velocity": 97}, {"time": 3366, "pitch": 59, "duration": 2, "velocity": 30}, {"time": 3372, "pitch": 45, "duration": 38, "velocity": 100}, {"time": 3372, "pitch": 57, "duration": 9, "velocity": 87}, {"time": 3372, "pitch": 60, "duration": 5, "velocity": 102}, {"time": 3372, "pitch": 64, "duration": 6, "velocity": 89}, {"time": 3378, "pitch": 52, "duration": 7, "velocity": 27}, {"time": 3384, "pitch": 60, "duration": 3, "velocity": 93}, {"time": 3384, "pitch": 64, "duration": 4, "velocity": 94}, {"time": 3390, "pitch": 52, "duration": 5, "velocity": 27}, {"time": 3393, "pitch": 57, "duration": 2, "velocity": 108}, {"time": 3393, "pitch": 69, "duration": 2, "velocity": 100}, {"time": 3396, "pitch": 52, "duration": 4, "velocity": 44}, {"time": 3399, "pitch": 57, "duration": 3, "velocity": 89}, {"time": 3399, "pitch": 64, "duration": 3, "velocity": 94}, {"time": 3402, "pitch": 52, "duration": 7, "velocity": 76}, {"time": 3408, "pitch": 57, "duration": 5, "velocity": 87}, {"time": 3408, "pitch": 60, "duration": 5, "velocity": 102}, {"time": 3408, "pitch": 64, "duration": 6, "velocity": 102}, {"time": 3414, "pitch": 45, "duration": 4, "velocity": 92}, {"time": 3420, "pitch": 50, "duration": 43, "velocity": 87}, {"time": 3420, "pitch": 57, "duration": 4, "velocity": 89}, {"time": 3420, "pitch": 62, "duration": 6, "velocity": 94}, {"time": 3426, "pitch": 57, "duration": 1, "velocity": 19}, {"time": 3432, "pitch": 57, "duration": 2, "velocity": 92}, {"time": 3432, "pitch": 65, "duration": 3, "velocity": 90}, {"time": 3441, "pitch": 57, "duration": 6, "velocity": 78}, {"time": 3441, "pitch": 62, "duration": 7, "velocity": 87}, {"time": 3450, "pitch": 57, "duration": 3, "velocity": 26}, {"time": 3456, "pitch": 57, "duration": 3, "velocity": 94}, {"time": 3456, "pitch": 62, "duration": 5, "velocity": 100}, {"time": 3462, "pitch": 57, "duration": 2, "velocity": 66}, {"time": 3468, "pitch": 52, "duration": 39, "velocity": 87}, {"time": 3468, "pitch": 59, "duration": 6, "velocity": 100}, {"time": 3468, "pitch": 64, "duration": 6, "velocity": 87}, {"time": 3480, "pitch": 59, "duration": 2, "velocity": 100}, {"time": 3480, "pitch": 67, "duration": 2, "velocity": 105}, {"time": 3489, "pitch": 59, "duration": 3, "velocity": 84}, {"time": 3489, "pitch": 64, "duration": 3, "velocity": 78}, {"time": 3495, "pitch": 59, "duration": 2, "velocity": 53}, {"time": 3498, "pitch": 64, "duration": 2, "velocity": 66}, {"time": 3504, "pitch": 59, "duration": 2, "velocity": 84}, {"time": 3504, "pitch": 64, "duration": 2, "velocity": 78}, {"time": 3516, "pitch": 53, "duration": 15, "velocity": 90}, {"time": 3516, "pitch": 60, "duration": 6, "velocity": 74}, {"time": 3516, "pitch": 65, "duration": 6, "velocity": 85}, {"time": 3522, "pitch": 57, "duration": 3, "velocity": 49}, {"time": 3525, "pitch": 60, "duration": 4, "velocity": 102}, {"time": 3531, "pitch": 65, "duration": 3, "velocity": 109}, {"time": 3534, "pitch": 60, "duration": 1, "velocity": 2}, {"time": 3540, "pitch": 47, "duration": 19, "velocity": 89}, {"time": 3540, "pitch": 59, "duration": 4, "velocity": 97}, {"time": 3540, "pitch": 62, "duration": 6, "velocity": 100}, {"time": 3546, "pitch": 59, "duration": 4, "velocity": 43}, {"time": 3552, "pitch": 69, "duration": 4, "velocity": 105}, {"time": 3555, "pitch": 65, "duration": 4, "velocity": 79}, {"time": 3558, "pitch": 59, "duration": 3, "velocity": 82}, {"time": 3564, "pitch": 52, "duration": 24, "velocity": 89}, {"time": 3564, "pitch": 59, "duration": 4, "velocity": 92}, {"time": 3564, "pitch": 64, "duration": 6, "velocity": 94}, {"time": 3570, "pitch": 59, "duration": 1, "velocity": 22}, {"time": 3576, "pitch": 59, "duration": 3, "velocity": 105}, {"time": 3576, "pitch": 68, "duration": 3, "velocity": 99}, {"time": 3585, "pitch": 59, "duration": 3, "velocity": 102}, {"time": 3585, "pitch": 64, "duration": 4, "velocity": 97}, {"time": 3591, "pitch": 59, "duration": 1, "velocity": 47}, {"time": 3594, "pitch": 59, "duration": 7, "velocity": 92}, {"time": 3594, "pitch": 64, "duration": 7, "velocity": 89}, {"time": 3600, "pitch": 52, "duration": 12, "velocity": 105}, {"time": 3603, "pitch": 59, "duration": 2, "velocity": 114}, {"time": 3603, "pitch": 64, "duration": 4, "velocity": 117}, {"time": 3606, "pitch": 59, "duration": 4, "velocity": 84}, {"time": 3612, "pitch": 53, "duration": 15, "velocity": 90}, {"time": 3612, "pitch": 57, "duration": 5, "velocity": 80}, {"time": 3612, "pitch": 60, "duration": 5, "velocity": 72}, {"time": 3612, "pitch": 65, "duration": 6, "velocity": 77}, {"time": 3621, "pitch": 65, "duration": 9, "velocity": 99}, {"time": 3627, "pitch": 57, "duration": 5, "velocity": 64}, {"time": 3630, "pitch": 60, "duration": 2, "velocity": 96}, {"time": 3636, "pitch": 43, "duration": 14, "velocity": 100}, {"time": 3636, "pitch": 55, "duration": 11, "velocity": 80}, {"time": 3636, "pitch": 59, "duration": 7, "velocity": 89}, {"time": 3642, "pitch": 50, "duration": 7, "velocity": 32}, {"time": 3648, "pitch": 59, "duration": 4, "velocity": 105}, {"time": 3648, "pitch": 62, "duration": 4, "velocity": 89}, {"time": 3651, "pitch": 55, "duration": 4, "velocity": 80}, {"time": 3654, "pitch": 59, "duration": 2, "velocity": 100}, {"time": 3660, "pitch": 52, "duration": 23, "velocity": 94}, {"time": 3660, "pitch": 59, "duration": 8, "velocity": 94}, {"time": 3660, "pitch": 64, "duration": 7, "velocity": 97}, {"time": 3672, "pitch": 59, "duration": 3, "velocity": 102}, {"time": 3672, "pitch": 67, "duration": 4, "velocity": 97}, {"time": 3681, "pitch": 59, "duration": 4, "velocity": 80}, {"time": 3681, "pitch": 64, "duration": 5, "velocity": 82}, {"time": 3684, "pitch": 52, "duration": 18, "velocity": 48}, {"time": 3687, "pitch": 59, "duration": 5, "velocity": 82}, {"time": 3690, "pitch": 64, "duration": 4, "velocity": 92}, {"time": 3696, "pitch": 59, "duration": 3, "velocity": 111}, {"time": 3696, "pitch": 64, "duration": 5, "velocity": 100}, {"time": 3696, "pitch": 67, "duration": 5, "velocity": 97}, {"time": 3702, "pitch": 59, "duration": 2, "velocity": 87}, {"time": 3708, "pitch": 53, "duration": 13, "velocity": 96}, {"time": 3708, "pitch": 57, "duration": 8, "velocity": 69}, {"time": 3708, "pitch": 60, "duration": 7, "velocity": 68}, {"time": 3708, "pitch": 65, "duration": 8, "velocity": 50}, {"time": 3720, "pitch": 65, "duration": 10, "velocity": 105}, {"time": 3726, "pitch": 57, "duration": 4, "velocity": 55}, {"time": 3729, "pitch": 60, "duration": 1, "velocity": 72}, {"time": 3732, "pitch": 43, "duration": 14, "velocity": 97}, {"time": 3732, "pitch": 59, "duration": 5, "velocity": 82}, {"time": 3732, "pitch": 62, "duration": 7, "velocity": 94}, {"time": 3738, "pitch": 50, "duration": 7, "velocity": 55}, {"time": 3744, "pitch": 59, "duration": 3, "velocity": 92}, {"time": 3744, "pitch": 62, "duration": 5, "velocity": 100}, {"time": 3744, "pitch": 67, "duration": 7, "velocity": 97}, {"time": 3750, "pitch": 59, "duration": 2, "velocity": 30}, {"time": 3756, "pitch": 45, "duration": 38, "velocity": 100}, {"time": 3756, "pitch": 57, "duration": 9, "velocity": 87}, {"time": 3756, "pitch": 60, "duration": 5, "velocity": 102}, {"time": 3756, "pitch": 64, "duration": 6, "velocity": 89}, {"time": 3762, "pitch": 52, "duration": 7, "velocity": 27}, {"time": 3768, "pitch": 60, "duration": 3, "velocity": 93}, {"time": 3768, "pitch": 64, "duration": 4, "velocity": 94}, {"time": 3774, "pitch": 52, "duration": 5, "velocity": 27}, {"time": 3777, "pitch": 57, "duration": 2, "velocity": 108}, {"time": 3777, "pitch": 69, "duration": 2, "velocity": 100}, {"time": 3780, "pitch": 52, "duration": 4, "velocity": 44}, {"time": 3783, "pitch": 57, "duration": 3, "velocity": 89}, {"time": 3783, "pitch": 64, "duration": 3, "velocity": 94}, {"time": 3786, "pitch": 52, "duration": 7, "velocity": 76}, {"time": 3792, "pitch": 57, "duration": 5, "velocity": 87}, {"time": 3792, "pitch": 60, "duration": 5, "velocity": 102}, {"time": 3792, "pitch": 64, "duration": 6, "velocity": 102}, {"time": 3798, "pitch": 45, "duration": 4, "velocity": 92}, {"time": 3804, "pitch": 50, "duration": 43, "velocity": 87}, {"time": 3804, "pitch": 57, "duration": 4, "velocity": 89}, {"time": 3804, "pitch": 62, "duration": 6, "velocity": 94}, {"time": 3810, "pitch": 57, "duration": 1, "velocity": 19}, {"time": 3816, "pitch": 57, "duration": 2, "velocity": 92}, {"time": 3816, "pitch": 65, "duration": 3, "velocity": 90}, {"time": 3825, "pitch": 57, "duration": 6, "velocity": 78}, {"time": 3825, "pitch": 62, "duration": 7, "velocity": 87}, {"time": 3834, "pitch": 57, "duration": 3, "velocity": 26}, {"time": 3840, "pitch": 57, "duration": 3, "velocity": 94}, {"time": 3840, "pitch": 62, "duration": 5, "velocity": 100}, {"time": 3846, "pitch": 57, "duration": 2, "velocity": 66}, {"time": 3852, "pitch": 52, "duration": 39, "velocity": 87}, {"time": 3852, "pitch": 59, "duration": 6, "velocity": 100}, {"time": 3852, "pitch": 64, "duration": 6, "velocity": 87}, {"time": 3864, "pitch": 59, "duration": 2, "velocity": 100}, {"time": 3864, "pitch": 67, "duration": 2, "velocity": 105}, {"time": 3873, "pitch": 59, "duration": 3, "velocity": 84}, {"time": 3873, "pitch": 64, "duration": 3, "velocity": 78}, {"time": 3879, "pitch": 59, "duration": 2, "velocity": 53}, {"time": 3882, "pitch": 64, "duration": 2, "velocity": 66}, {"time": 3888, "pitch": 59, "duration": 2, "velocity": 84}, {"time": 3888, "pitch": 64, "duration": 2, "velocity": 78}, {"time": 3900, "pitch": 53, "duration": 15, "velocity": 99}, {"time": 3900, "pitch": 60, "duration": 7, "velocity": 65}, {"time": 3900, "pitch": 65, "duration": 7, "velocity": 63}, {"time": 3909, "pitch": 60, "duration": 6, "velocity": 85}, {"time": 3915, "pitch": 57, "duration": 4, "velocity": 84}, {"time": 3918, "pitch": 60, "duration": 2, "velocity": 93}, {"time": 3924, "pitch": 52, "duration": 15, "velocity": 97}, {"time": 3924, "pitch": 59, "duration": 4, "velocity": 84}, {"time": 3924, "pitch": 64, "duration": 7, "velocity": 97}, {"time": 3930, "pitch": 59, "duration": 4, "velocity": 87}, {"time": 3936, "pitch": 59, "duration": 3, "velocity": 92}, {"time": 3936, "pitch": 64, "duration": 6, "velocity": 97}, {"time": 3936, "pitch": 67, "duration": 6, "velocity": 100}, {"time": 3942, "pitch": 59, "duration": 2, "velocity": 100}, {"time": 3948, "pitch": 45, "duration": 39, "velocity": 100}, {"time": 3948, "pitch": 57, "duration": 10, "velocity": 73}, {"time": 3948, "pitch": 60, "duration": 6, "velocity": 54}, {"time": 3948, "pitch": 64, "duration": 7, "velocity": 84}, {"time": 3954, "pitch": 52, "duration": 8, "velocity": 30}, {"time": 3960, "pitch": 60, "duration": 6, "velocity": 87}, {"time": 3960, "pitch": 64, "duration": 6, "velocity": 94}, {"time": 3966, "pitch": 52, "duration": 5, "velocity": 51}, {"time": 3969, "pitch": 69, "duration": 7, "velocity": 94}, {"time": 3972, "pitch": 52, "duration": 16, "velocity": 89}, {"time": 3975, "pitch": 57, "duration": 7, "velocity": 89}, {"time": 3978, "pitch": 60, "duration": 4, "velocity": 93}, {"time": 3984, "pitch": 57, "duration": 4, "velocity": 89}, {"time": 3984, "pitch": 60, "duration": 5, "velocity": 99}, {"time": 3984, "pitch": 64, "duration": 4, "velocity": 97}, {"time": 3990, "pitch": 57, "duration": 3, "velocity": 64}, {"time": 3996, "pitch": 57, "duration": 4, "velocity": 94}, {"time": 3996, "pitch": 60, "duration": 6, "velocity": 92}, {"time": 3996, "pitch": 41, "duration": 11, "velocity": 97}, {"time": 4002, "pitch": 57, "duration": 3, "velocity": 53}, {"time": 4008, "pitch": 60, "duration": 11, "velocity": 97}, {"time": 4008, "pitch": 65, "duration": 14, "velocity": 97}, {"time": 4014, "pitch": 57, "duration": 5, "velocity": 62}, {"time": 4021, "pitch": 52, "duration": 76, "velocity": 100}, {"time": 4025, "pitch": 59, "duration": 73, "velocity": 69}, {"time": 4029, "pitch": 62, "duration": 83, "velocity": 82}, {"time": 4034, "pitch": 67, "duration": 78, "velocity": 84}, {"time": 4038, "pitch": 71, "duration": 74, "velocity": 69}, {"time": 4116, "pitch": 50, "duration": 20, "velocity": 94}, {"time": 4116, "pitch": 57, "duration": 4, "velocity": 82}, {"time": 4116, "pitch": 62, "duration": 5, "velocity": 94}, {"time": 4125, "pitch": 57, "duration": 3, "velocity": 94}, {"time": 4125, "pitch": 65, "duration": 3, "velocity": 77}, {"time": 4134, "pitch": 57, "duration": 6, "velocity": 78}, {"time": 4134, "pitch": 62, "duration": 7, "velocity": 87}, {"time": 4143, "pitch": 57, "duration": 3, "velocity": 92}, {"time": 4143, "pitch": 62, "duration": 6, "velocity": 94}, {"time": 4149, "pitch": 57, "duration": 2, "velocity": 64}, {"time": 4152, "pitch": 50, "duration": 7, "velocity": 87}, {"time": 4152, "pitch": 57, "duration": 4, "velocity": 94}, {"time": 4152, "pitch": 62, "duration": 6, "velocity": 102}, {"time": 4158, "pitch": 57, "duration": 3, "velocity": 60}, {"time": 4164, "pitch": 45, "duration": 38, "velocity": 78}, {"time": 4164, "pitch": 57, "duration": 6, "velocity": 87}, {"time": 4164, "pitch": 64, "duration": 6, "velocity": 89}, {"time": 4173, "pitch": 60, "duration": 4, "velocity": 99}, {"time": 4173, "pitch": 64, "duration": 3, "velocity": 94}, {"time": 4182, "pitch": 57, "duration": 6, "velocity": 94}, {"time": 4182, "pitch": 64, "duration": 5, "velocity": 92}, {"time": 4188, "pitch": 52, "duration": 4, "velocity": 47}, {"time": 4191, "pitch": 57, "duration": 1, "velocity": 57}, {"time": 4191, "pitch": 60, "duration": 5, "velocity": 105}, {"time": 4191, "pitch": 64, "duration": 5, "velocity": 97}, {"time": 4194, "pitch": 52, "duration": 7, "velocity": 35}, {"time": 4197, "pitch": 57, "duration": 2, "velocity": 64}, {"time": 4200, "pitch": 57, "duration": 5, "velocity": 94}, {"time": 4200, "pitch": 60, "duration": 4, "velocity": 102}, {"time": 4200, "pitch": 64, "duration": 5, "velocity": 97}, {"time": 4206, "pitch": 45, "duration": 4, "velocity": 94}, {"time": 4212, "pitch": 50, "duration": 38, "velocity": 84}, {"time": 4212, "pitch": 57, "duration": 7, "velocity": 89}, {"time": 4212, "pitch": 62, "duration": 8, "velocity": 94}, {"time": 4224, "pitch": 57, "duration": 5, "velocity": 80}, {"time": 4224, "pitch": 62, "duration": 5, "velocity": 94}, {"time": 4224, "pitch": 65, "duration": 6, "velocity": 82}, {"time": 4233, "pitch": 57, "duration": 4, "velocity": 92}, {"time": 4233, "pitch": 62, "duration": 6, "velocity": 102}, {"time": 4239, "pitch": 57, "duration": 2, "velocity": 73}, {"time": 4242, "pitch": 57, "duration": 1, "velocity": 38}, {"time": 4242, "pitch": 62, "duration": 2, "velocity": 89}, {"time": 4248, "pitch": 57, "duration": 6, "velocity": 105}, {"time": 4248, "pitch": 62, "duration": 7, "velocity": 105}, {"time": 4254, "pitch": 50, "duration": 4, "velocity": 80}, {"time": 4260, "pitch": 40, "duration": 10, "velocity": 102}, {"time": 4260, "pitch": 52, "duration": 7, "velocity": 76}, {"time": 4260, "pitch": 59, "duration": 7, "velocity": 84}, {"time": 4266, "pitch": 47, "duration": 4, "velocity": 64}, {"time": 4273, "pitch": 52, "duration": 18, "velocity": 102}, {"time": 4278, "pitch": 56, "duration": 7, "velocity": 85}, {"time": 4284, "pitch": 59, "duration": 8, "velocity": 80}, {"time": 4294, "pitch": 52, "duration": 29, "velocity": 66}, {"time": 4295, "pitch": 71, "duration": 31, "velocity": 57}, {"time": 4295, "pitch": 64, "duration": 32, "velocity": 49}, {"time": 4328, "pitch": 45, "duration": 39, "velocity": 94}, {"time": 4332, "pitch": 52, "duration": 35, "velocity": 57}, {"time": 4335, "pitch": 57, "duration": 34, "velocity": 49}, {"time": 4339, "pitch": 60, "duration": 29, "velocity": 64}, {"time": 4342, "pitch": 64, "duration": 26, "velocity": 40}, {"time": 4346, "pitch": 69, "duration": 23, "velocity": 40}], "annotations": [{"time": 61, "annotation": {"number": 64, "value": 127}, "group": "control_change"}, {"time": 108, "annotation": {"number": 64, "value": 0}, "group": "control_change"}, {"time": 111, "annotation": {"number": 64, "value": 127}, "group": "control_change"}, {"time": 155, "annotation": {"number": 64, "value": 0}, "group": "control_change"}, {"time": 159, "annotation": {"number": 64, "value": 127}, "group": "control_change"}, {"time": 203, "annotation": {"number": 64, "value": 0}, "group": "control_change"}, {"time": 206, "annotation": {"number": 64, "value": 127}, "group": "control_change"}, {"time": 250, "annotation": {"number": 64, "value": 0}, "group": "control_change"}, {"time": 254, "annotation": {"number": 64, "value": 127}, "group": "control_change"}, {"time": 299, "annotation": {"number": 64, "value": 0}, "group": "control_change"}, {"time": 304, "annotation": {"number": 64, "value": 127}, "group": "control_change"}, {"time": 346, "annotation": {"number": 64, "value": 0}, "group": "control_change"}, {"time": 349, "annotation": {"number": 64, "value": 127}, "group": "control_change"}, {"time": 372, "annotation": {"number": 64, "value": 0}, "group": "control_change"}, {"time": 376, "annotation": {"number": 64, "value": 127}, "group": "control_change"}, {"time": 395, "annotation": {"number": 64, "value": 0}, "group": "control_change"}, {"time": 399, "annotation": {"number": 64, "value": 127}, "group": "control_change"}, {"time": 444, "annotation": {"number": 64, "value": 0}, "group": "control_change"}, {"time": 446, "annotation": {"number": 64, "value": 127}, "group": "control_change"}, {"time": 468, "annotation": {"number": 64, "value": 0}, "group": "control_change"}, {"time": 471, "annotation": {"number": 64, "value": 127}, "group": "control_change"}, {"time": 491, "annotation": {"number": 64, "value": 0}, "group": "control_change"}, {"time": 494, "annotation": {"number": 64, "value": 127}, "group": "control_change"}, {"time": 515, "annotation": {"number": 64, "value": 0}, "group": "control_change"}, {"time": 518, "annotation": {"number": 64, "value": 127}, "group": "control_change"}, {"time": 539, "annotation": {"number": 64, "value": 0}, "group": "control_change"}, {"time": 541, "annotation": {"number": 64, "value": 127}, "group": "control_change"}, {"time": 563, "annotation": {"number": 64, "value": 0}, "group": "control_change"}, {"time": 566, "annotation": {"number": 64, "value": 127}, "group": "control_change"}, {"time": 586, "annotation": {"number": 64, "value": 0}, "group": "control_change"}, {"time": 589, "annotation": {"number": 64, "value": 127}, "group": "control_change"}, {"time": 635, "annotation": {"number": 64, "value": 0}, "group": "control_change"}, {"time": 638, "annotation": {"number": 64, "value": 127}, "group": "control_change"}, {"time": 683, "annotation": {"number": 64, "value": 0}, "group": "control_change"}, {"time": 688, "annotation": {"number": 64, "value": 127}, "group": "control_change"}, {"time": 730, "annotation": {"number": 64, "value": 0}, "group": "control_change"}, {"time": 733, "annotation": {"number": 64, "value": 127}, "group": "control_change"}, {"time": 756, "annotation": {"number": 64, "value": 0}, "group": "control_change"}, {"time": 760, "annotation": {"number": 64, "value": 127}, "group": "control_change"}, {"time": 779, "annotation": {"number": 64, "value": 0}, "group": "control_change"}, {"time": 783, "annotation": {"number": 64, "value": 127}, "group": "control_change"}, {"time": 828, "annotation": {"number": 64, "value": 0}, "group": "control_change"}, {"time": 830, "annotation": {"number": 64, "value": 127}, "group": "control_change"}, {"time": 852, "annotation": {"number": 64, "value": 0}, "group": "control_change"}, {"time": 855, "annotation": {"number": 64, "value": 127}, "group": "control_change"}, {"time": 875, "annotation": {"number": 64, "value": 0}, "group": "control_change"}, {"time": 878, "annotation": {"number": 64, "value": 127}, "group": "control_change"}, {"time": 899, "annotation": {"number": 64, "value": 0}, "group": "control_change"}, {"time": 902, "annotation": {"number": 64, "value": 127}, "group": "control_change"}, {"time": 923, "annotation": {"number": 64, "value": 0}, "group": "control_change"}, {"time": 925, "annotation": {"number": 64, "value": 127}, "group": "control_change"}, {"time": 947, "annotation": {"number": 64, "value": 0}, "group": "control_change"}, {"time": 950, "annotation": {"number": 64, "value": 127}, "group": "control_change"}, {"time": 970, "annotation": {"number": 64, "value": 0}, "group": "control_change"}, {"time": 973, "annotation": {"number": 64, "value": 127}, "group": "control_change"}, {"time": 1020, "annotation": {"number": 64, "value": 0}, "group": "control_change"}, {"time": 1021, "annotation": {"number": 64, "value": 127}, "group": "control_change"}, {"time": 1043, "annotation": {"number": 64, "value": 0}, "group": "control_change"}, {"time": 1046, "annotation": {"number": 64, "value": 127}, "group": "control_change"}, {"time": 1068, "annotation": {"number": 64, "value": 0}, "group": "control_change"}, {"time": 1072, "annotation": {"number": 64, "value": 127}, "group": "control_change"}, {"time": 1116, "annotation": {"number": 64, "value": 0}, "group": "control_change"}, {"time": 1119, "annotation": {"number": 64, "value": 127}, "group": "control_change"}, {"time": 1139, "annotation": {"number": 64, "value": 0}, "group": "control_change"}, {"time": 1143, "annotation": {"number": 64, "value": 127}, "group": "control_change"}, {"time": 1163, "annotation": {"number": 64, "value": 0}, "group": "control_change"}, {"time": 1169, "annotation": {"number": 64, "value": 127}, "group": "control_change"}, {"time": 1211, "annotation": {"number": 64, "value": 0}, "group": "control_change"}, {"time": 1215, "annotation": {"number": 64, "value": 127}, "group": "control_change"}, {"time": 1260, "annotation": {"number": 64, "value": 0}, "group": "control_change"}, {"time": 1263, "annotation": {"number": 64, "value": 127}, "group": "control_change"}, {"time": 1307, "annotation": {"number": 64, "value": 0}, "group": "control_change"}, {"time": 1310, "annotation": {"number": 64, "value": 127}, "group": "control_change"}, {"time": 1332, "annotation": {"number": 64, "value": 0}, "group": "control_change"}, {"time": 1335, "annotation": {"number": 64, "value": 127}, "group": "control_change"}, {"time": 1355, "annotation": {"number": 64, "value": 0}, "group": "control_change"}, {"time": 1358, "annotation": {"number": 64, "value": 127}, "group": "control_change"}, {"time": 1403, "annotation": {"number": 64, "value": 0}, "group": "control_change"}, {"time": 1405, "annotation": {"number": 64, "value": 127}, "group": "control_change"}, {"time": 1427, "annotation": {"number": 64, "value": 0}, "group": "control_change"}, {"time": 1430, "annotation": {"number": 64, "value": 127}, "group": "control_change"}, {"time": 1452, "annotation": {"number": 64, "value": 0}, "group": "control_change"}, {"time": 1456, "annotation": {"number": 64, "value": 127}, "group": "control_change"}, {"time": 1500, "annotation": {"number": 64, "value": 0}, "group": "control_change"}, {"time": 1503, "annotation": {"number": 64, "value": 127}, "group": "control_change"}, {"time": 1523, "annotation": {"number": 64, "value": 0}, "group": "control_change"}, {"time": 1527, "annotation": {"number": 64, "value": 127}, "group": "control_change"}, {"time": 1547, "annotation": {"number": 64, "value": 0}, "group": "control_change"}, {"time": 1553, "annotation": {"number": 64, "value": 127}, "group": "control_change"}, {"time": 1595, "annotation": {"number": 64, "value": 0}, "group": "control_change"}, {"time": 1599, "annotation": {"number": 64, "value": 127}, "group": "control_change"}, {"time": 1644, "annotation": {"number": 64, "value": 0}, "group": "control_change"}, {"time": 1647, "annotation": {"number": 64, "value": 127}, "group": "control_change"}, {"time": 1691, "annotation": {"number": 64, "value": 0}, "group": "control_change"}, {"time": 1693, "annotation": {"number": 64, "value": 127}, "group": "control_change"}, {"time": 1715, "annotation": {"number": 64, "value": 0}, "group": "control_change"}, {"time": 1719, "annotation": {"number": 64, "value": 127}, "group": "control_change"}, {"time": 1740, "annotation": {"number": 64, "value": 0}, "group": "control_change"}, {"time": 1745, "annotation": {"number": 64, "value": 127}, "group": "control_change"}, {"time": 1786, "annotation": {"number": 64, "value": 0}, "group": "control_change"}, {"time": 1790, "annotation": {"number": 64, "value": 127}, "group": "control_change"}, {"time": 1811, "annotation": {"number": 64, "value": 0}, "group": "control_change"}, {"time": 1814, "annotation": {"number": 64, "value": 127}, "group": "control_change"}, {"time": 1835, "annotation": {"number": 64, "value": 0}, "group": "control_change"}, {"time": 1838, "annotation": {"number": 64, "value": 127}, "group": "control_change"}, {"time": 1882, "annotation": {"number": 64, "value": 0}, "group": "control_change"}, {"time": 1885, "annotation": {"number": 64, "value": 127}, "group": "control_change"}, {"time": 1931, "annotation": {"number": 64, "value": 0}, "group": "control_change"}, {"time": 1934, "annotation": {"number": 64, "value": 127}, "group": "control_change"}, {"time": 1979, "annotation": {"number": 64, "value": 0}, "group": "control_change"}, {"time": 1982, "annotation": {"number": 64, "value": 127}, "group": "control_change"}, {"time": 2002, "annotation": {"number": 64, "value": 0}, "group": "control_change"}, {"time": 2004, "annotation": {"number": 64, "value": 127}, "group": "control_change"}, {"time": 2027, "annotation": {"number": 64, "value": 0}, "group": "control_change"}, {"time": 2029, "annotation": {"number": 64, "value": 127}, "group": "control_change"}, {"time": 2078, "annotation": {"number": 64, "value": 127}, "group": "control_change"}, {"time": 2123, "annotation": {"number": 64, "value": 0}, "group": "control_change"}, {"time": 2128, "annotation": {"number": 64, "value": 127}, "group": "control_change"}, {"time": 2170, "annotation": {"number": 64, "value": 0}, "group": "control_change"}, {"time": 2173, "annotation": {"number": 64, "value": 127}, "group": "control_change"}, {"time": 2196, "annotation": {"number": 64, "value": 0}, "group": "control_change"}, {"time": 2200, "annotation": {"number": 64, "value": 127}, "group": "control_change"}, {"time": 2219, "annotation": {"number": 64, "value": 0}, "group": "control_change"}, {"time": 2223, "annotation": {"number": 64, "value": 127}, "group": "control_change"}, {"time": 2268, "annotation": {"number": 64, "value": 0}, "group": "control_change"}, {"time": 2270, "annotation": {"number": 64, "value": 127}, "group": "control_change"}, {"time": 2292, "annotation": {"number": 64, "value": 0}, "group": "control_change"}, {"time": 2295, "annotation": {"number": 64, "value": 127}, "group": "control_change"}, {"time": 2315, "annotation": {"number": 64, "value": 0}, "group": "control_change"}, {"time": 2318, "annotation": {"number": 64, "value": 127}, "group": "control_change"}, {"time": 2339, "annotation": {"number": 64, "value": 0}, "group": "control_change"}, {"time": 2342, "annotation": {"number": 64, "value": 127}, "group": "control_change"}, {"time": 2363, "annotation": {"number": 64, "value": 0}, "group": "control_change"}, {"time": 2365, "annotation": {"number": 64, "value": 127}, "group": "control_change"}, {"time": 2387, "annotation": {"number": 64, "value": 0}, "group": "control_change"}, {"time": 2390, "annotation": {"number": 64, "value": 127}, "group": "control_change"}, {"time": 2410, "annotation": {"number": 64, "value": 0}, "group": "control_change"}, {"time": 2413, "annotation": {"number": 64, "value": 127}, "group": "control_change"}, {"time": 2460, "annotation": {"number": 64, "value": 0}, "group": "control_change"}, {"time": 2461, "annotation": {"number": 64, "value": 127}, "group": "control_change"}, {"time": 2483, "annotation": {"number": 64, "value": 0}, "group": "control_change"}, {"time": 2486, "annotation": {"number": 64, "value": 127}, "group": "control_change"}, {"time": 2508, "annotation": {"number": 64, "value": 0}, "group": "control_change"}, {"time": 2512, "annotation": {"number": 64, "value": 127}, "group": "control_change"}, {"time": 2556, "annotation": {"number": 64, "value": 0}, "group": "control_change"}, {"time": 2559, "annotation": {"number": 64, "value": 127}, "group": "control_change"}, {"time": 2579, "annotation": {"number": 64, "value": 0}, "group": "control_change"}, {"time": 2583, "annotation": {"number": 64, "value": 127}, "group": "control_change"}, {"time": 2603, "annotation": {"number": 64, "value": 0}, "group": "control_change"}, {"time": 2609, "annotation": {"number": 64, "value": 127}, "group": "control_change"}, {"time": 2651, "annotation": {"number": 64, "value": 0}, "group": "control_change"}, {"time": 2655, "annotation": {"number": 64, "value": 127}, "group": "control_change"}, {"time": 2700, "annotation": {"number": 64, "value": 0}, "group": "control_change"}, {"time": 2703, "annotation": {"number": 64, "value": 127}, "group": "control_change"}, {"time": 2747, "annotation": {"number": 64, "value": 0}, "group": "control_change"}, {"time": 2750, "annotation": {"number": 64, "value": 127}, "group": "control_change"}, {"time": 2772, "annotation": {"number": 64, "value": 0}, "group": "control_change"}, {"time": 2775, "annotation": {"number": 64, "value": 127}, "group": "control_change"}, {"time": 2795, "annotation": {"number": 64, "value": 0}, "group": "control_change"}, {"time": 2798, "annotation": {"number": 64, "value": 127}, "group": "control_change"}, {"time": 2843, "annotation": {"number": 64, "value": 0}, "group": "control_change"}, {"time": 2845, "annotation": {"number": 64, "value": 127}, "group": "control_change"}, {"time": 2867, "annotation": {"number": 64, "value": 0}, "group": "control_change"}, {"time": 2870, "annotation": {"number": 64, "value": 127}, "group": "control_change"}, {"time": 2892, "annotation": {"number": 64, "value": 0}, "group": "control_change"}, {"time": 2896, "annotation": {"number": 64, "value": 127}, "group": "control_change"}, {"time": 2940, "annotation": {"number": 64, "value": 0}, "group": "control_change"}, {"time": 2943, "annotation": {"number": 64, "value": 127}, "group": "control_change"}, {"time": 2963, "annotation": {"number": 64, "value": 0}, "group": "control_change"}, {"time": 2967, "annotation": {"number": 64, "value": 127}, "group": "control_change"}, {"time": 2987, "annotation": {"number": 64, "value": 0}, "group": "control_change"}, {"time": 2993, "annotation": {"number": 64, "value": 127}, "group": "control_change"}, {"time": 3035, "annotation": {"number": 64, "value": 0}, "group": "control_change"}, {"time": 3039, "annotation": {"number": 64, "value": 127}, "group": "control_change"}, {"time": 3084, "annotation": {"number": 64, "value": 0}, "group": "control_change"}, {"time": 3087, "annotation": {"number": 64, "value": 127}, "group": "control_change"}, {"time": 3131, "annotation": {"number": 64, "value": 0}, "group": "control_change"}, {"time": 3133, "annotation": {"number": 64, "value": 127}, "group": "control_change"}, {"time": 3155, "annotation": {"number": 64, "value": 0}, "group": "control_change"}, {"time": 3159, "annotation": {"number": 64, "value": 127}, "group": "control_change"}, {"time": 3180, "annotation": {"number": 64, "value": 0}, "group": "control_change"}, {"time": 3185, "annotation": {"number": 64, "value": 127}, "group": "control_change"}, {"time": 3226, "annotation": {"number": 64, "value": 0}, "group": "control_change"}, {"time": 3232, "annotation": {"number": 64, "value": 127}, "group": "control_change"}, {"time": 3275, "annotation": {"number": 64, "value": 0}, "group": "control_change"}, {"time": 3280, "annotation": {"number": 64, "value": 127}, "group": "control_change"}, {"time": 3324, "annotation": {"number": 64, "value": 0}, "group": "control_change"}, {"time": 3327, "annotation": {"number": 64, "value": 127}, "group": "control_change"}, {"time": 3347, "annotation": {"number": 64, "value": 0}, "group": "control_change"}, {"time": 3351, "annotation": {"number": 64, "value": 127}, "group": "control_change"}, {"time": 3371, "annotation": {"number": 64, "value": 0}, "group": "control_change"}, {"time": 3377, "annotation": {"number": 64, "value": 127}, "group": "control_change"}, {"time": 3419, "annotation": {"number": 64, "value": 0}, "group": "control_change"}, {"time": 3423, "annotation": {"number": 64, "value": 127}, "group": "control_change"}, {"time": 3468, "annotation": {"number": 64, "value": 0}, "group": "control_change"}, {"time": 3471, "annotation": {"number": 64, "value": 127}, "group": "control_change"}, {"time": 3515, "annotation": {"number": 64, "value": 0}, "group": "control_change"}, {"time": 3518, "annotation": {"number": 64, "value": 127}, "group": "control_change"}, {"time": 3540, "annotation": {"number": 64, "value": 0}, "group": "control_change"}, {"time": 3543, "annotation": {"number": 64, "value": 127}, "group": "control_change"}, {"time": 3563, "annotation": {"number": 64, "value": 0}, "group": "control_change"}, {"time": 3566, "annotation": {"number": 64, "value": 127}, "group": "control_change"}, {"time": 3611, "annotation": {"number": 64, "value": 0}, "group": "control_change"}, {"time": 3613, "annotation": {"number": 64, "value": 127}, "group": "control_change"}, {"time": 3635, "annotation": {"number": 64, "value": 0}, "group": "control_change"}, {"time": 3638, "annotation": {"number": 64, "value": 127}, "group": "control_change"}, {"time": 3660, "annotation": {"number": 64, "value": 0}, "group": "control_change"}, {"time": 3664, "annotation": {"number": 64, "value": 127}, "group": "control_change"}, {"time": 3708, "annotation": {"number": 64, "value": 0}, "group": "control_change"}, {"time": 3711, "annotation": {"number": 64, "value": 127}, "group": "control_change"}, {"time": 3731, "annotation": {"number": 64, "value": 0}, "group": "control_change"}, {"time": 3735, "annotation": {"number": 64, "value": 127}, "group": "control_change"}, {"time": 3755, "annotation": {"number": 64, "value": 0}, "group": "control_change"}, {"time": 3761, "annotation": {"number": 64, "value": 127}, "group": "control_change"}, {"time": 3803, "annotation": {"number": 64, "value": 0}, "group": "control_change"}, {"time": 3807, "annotation": {"number": 64, "value": 127}, "group": "control_change"}, {"time": 3852, "annotation": {"number": 64, "value": 0}, "group": "control_change"}, {"time": 3855, "annotation": {"number": 64, "value": 127}, "group": "control_change"}, {"time": 3899, "annotation": {"number": 64, "value": 0}, "group": "control_change"}, {"time": 3901, "annotation": {"number": 64, "value": 127}, "group": "control_change"}, {"time": 3923, "annotation": {"number": 64, "value": 0}, "group": "control_change"}, {"time": 3927, "annotation": {"number": 64, "value": 127}, "group": "control_change"}, {"time": 3948, "annotation": {"number": 64, "value": 0}, "group": "control_change"}, {"time": 3953, "annotation": {"number": 64, "value": 127}, "group": "control_change"}, {"time": 3994, "annotation": {"number": 64, "value": 0}, "group": "control_change"}, {"time": 3998, "annotation": {"number": 64, "value": 127}, "group": "control_change"}, {"time": 4020, "annotation": {"number": 64, "value": 0}, "group": "control_change"}, {"time": 4025, "annotation": {"number": 64, "value": 127}, "group": "control_change"}, {"time": 4110, "annotation": {"number": 64, "value": 0}, "group": "control_change"}, {"time": 4117, "annotation": {"number": 64, "value": 127}, "group": "control_change"}, {"time": 4163, "annotation": {"number": 64, "value": 0}, "group": "control_change"}, {"time": 4166, "annotation": {"number": 64, "value": 127}, "group": "control_change"}, {"time": 4211, "annotation": {"number": 64, "value": 0}, "group": "control_change"}, {"time": 4214, "annotation": {"number": 64, "value": 127}, "group": "control_change"}, {"time": 4234, "annotation": {"number": 64, "value": 0}, "group": "control_change"}, {"time": 4236, "annotation": {"number": 64, "value": 127}, "group": "control_change"}, {"time": 4259, "annotation": {"number": 64, "value": 0}, "group": "control_change"}, {"time": 4263, "annotation": {"number": 64, "value": 127}, "group": "control_change"}, {"time": 4328, "annotation": {"number": 64, "value": 0}, "group": "control_change"}, {"time": 4332, "annotation": {"number": 64, "value": 127}, "group": "control_change"}, {"time": 4419, "annotation": {"number": 64, "value": 0}, "group": "control_change"}]}]}