{"metadata": {"schema_version": "0.2", "title": "None", "source_filename": "116.mid", "source_format": "midi"}, "resolution": 12, "tempos": [{"time": 0, "qpm": 60.0}, {"time": 263, "qpm": 59.00006686674245}, {"time": 348, "qpm": 60.0}, {"time": 480, "qpm": 59.00006686674245}, {"time": 563, "qpm": 60.0}, {"time": 852, "qpm": 59.00006686674245}, {"time": 948, "qpm": 60.0}, {"time": 1121, "qpm": 59.00006686674245}, {"time": 1242, "qpm": 60.0}, {"time": 1559, "qpm": 59.00006686674245}, {"time": 1643, "qpm": 60.0}, {"time": 1868, "qpm": 59.00006686674245}, {"time": 1965, "qpm": 60.0}, {"time": 2253, "qpm": 59.00006686674245}, {"time": 2335, "qpm": 60.0}], "key_signatures": [{"time": 0, "root": 0, "mode": "major"}], "time_signatures": [{"time": 0, "numerator": 1, "denominator": 4}], "tracks": [{"program": 0, "is_drum": false, "name": "MELODY", "notes": [{"time": 294, "pitch": 64, "duration": 3, "velocity": 100}, {"time": 297, "pitch": 66, "duration": 2, "velocity": 105}, {"time": 300, "pitch": 67, "duration": 2, "velocity": 105}, {"time": 303, "pitch": 69, "duration": 2, "velocity": 100}, {"time": 306, "pitch": 71, "duration": 5, "velocity": 102}, {"time": 312, "pitch": 69, "duration": 2, "velocity": 94}, {"time": 315, "pitch": 66, "duration": 6, "velocity": 96}, {"time": 324, "pitch": 66, "duration": 2, "velocity": 102}, {"time": 327, "pitch": 64, "duration": 4, "velocity": 105}, {"time": 333, "pitch": 62, "duration": 6, "velocity": 108}, {"time": 348, "pitch": 64, "duration": 4, "velocity": 102}, {"time": 354, "pitch": 64, "duration": 4, "velocity": 97}, {"time": 360, "pitch": 62, "duration": 2, "velocity": 100}, {"time": 363, "pitch": 64, "duration": 2, "velocity": 94}, {"time": 366, "pitch": 62, "duration": 2, "velocity": 105}, {"time": 369, "pitch": 62, "duration": 16, "velocity": 100}, {"time": 390, "pitch": 64, "duration": 2, "velocity": 94}, {"time": 393, "pitch": 66, "duration": 2, "velocity": 90}, {"time": 396, "pitch": 67, "duration": 2, "velocity": 97}, {"time": 399, "pitch": 69, "duration": 2, "velocity": 94}, {"time": 402, "pitch": 71, "duration": 4, "velocity": 102}, {"time": 408, "pitch": 69, "duration": 2, "velocity": 102}, {"time": 411, "pitch": 66, "duration": 5, "velocity": 93}, {"time": 420, "pitch": 66, "duration": 2, "velocity": 93}, {"time": 423, "pitch": 64, "duration": 4, "velocity": 100}, {"time": 429, "pitch": 62, "duration": 7, "velocity": 105}, {"time": 444, "pitch": 64, "duration": 2, "velocity": 87}, {"time": 447, "pitch": 64, "duration": 2, "velocity": 94}, {"time": 450, "pitch": 74, "duration": 6, "velocity": 108}, {"time": 456, "pitch": 72, "duration": 2, "velocity": 102}, {"time": 459, "pitch": 72, "duration": 4, "velocity": 105}, {"time": 465, "pitch": 71, "duration": 17, "velocity": 97}, {"time": 486, "pitch": 72, "duration": 2, "velocity": 108}, {"time": 489, "pitch": 69, "duration": 2, "velocity": 100}, {"time": 492, "pitch": 71, "duration": 2, "velocity": 102}, {"time": 495, "pitch": 72, "duration": 3, "velocity": 108}, {"time": 498, "pitch": 72, "duration": 2, "velocity": 102}, {"time": 501, "pitch": 69, "duration": 2, "velocity": 102}, {"time": 504, "pitch": 71, "duration": 2, "velocity": 102}, {"time": 507, "pitch": 72, "duration": 2, "velocity": 102}, {"time": 510, "pitch": 72, "duration": 2, "velocity": 102}, {"time": 513, "pitch": 79, "duration": 2, "velocity": 89}, {"time": 516, "pitch": 79, "duration": 2, "velocity": 105}, {"time": 519, "pitch": 79, "duration": 2, "velocity": 102}, {"time": 522, "pitch": 79, "duration": 2, "velocity": 102}, {"time": 525, "pitch": 78, "duration": 2, "velocity": 105}, {"time": 528, "pitch": 78, "duration": 2, "velocity": 109}, {"time": 531, "pitch": 76, "duration": 2, "velocity": 108}, {"time": 534, "pitch": 71, "duration": 2, "velocity": 111}, {"time": 537, "pitch": 67, "duration": 2, "velocity": 82}, {"time": 540, "pitch": 69, "duration": 2, "velocity": 102}, {"time": 543, "pitch": 71, "duration": 2, "velocity": 105}, {"time": 546, "pitch": 71, "duration": 2, "velocity": 111}, {"time": 549, "pitch": 67, "duration": 2, "velocity": 84}, {"time": 552, "pitch": 69, "duration": 2, "velocity": 100}, {"time": 555, "pitch": 71, "duration": 2, "velocity": 100}, {"time": 558, "pitch": 71, "duration": 2, "velocity": 100}, {"time": 561, "pitch": 78, "duration": 2, "velocity": 111}, {"time": 564, "pitch": 78, "duration": 2, "velocity": 108}, {"time": 567, "pitch": 78, "duration": 2, "velocity": 97}, {"time": 570, "pitch": 78, "duration": 2, "velocity": 105}, {"time": 573, "pitch": 76, "duration": 2, "velocity": 70}, {"time": 576, "pitch": 76, "duration": 2, "velocity": 105}, {"time": 579, "pitch": 71, "duration": 9, "velocity": 114}, {"time": 588, "pitch": 72, "duration": 2, "velocity": 97}, {"time": 591, "pitch": 72, "duration": 2, "velocity": 92}, {"time": 594, "pitch": 72, "duration": 2, "velocity": 102}, {"time": 597, "pitch": 72, "duration": 2, "velocity": 97}, {"time": 600, "pitch": 72, "duration": 2, "velocity": 102}, {"time": 603, "pitch": 74, "duration": 6, "velocity": 108}, {"time": 609, "pitch": 72, "duration": 13, "velocity": 105}, {"time": 624, "pitch": 71, "duration": 2, "velocity": 114}, {"time": 627, "pitch": 69, "duration": 2, "velocity": 102}, {"time": 630, "pitch": 69, "duration": 2, "velocity": 92}, {"time": 633, "pitch": 71, "duration": 2, "velocity": 100}, {"time": 636, "pitch": 71, "duration": 37, "velocity": 108}, {"time": 678, "pitch": 64, "duration": 3, "velocity": 100}, {"time": 681, "pitch": 66, "duration": 2, "velocity": 105}, {"time": 684, "pitch": 67, "duration": 2, "velocity": 105}, {"time": 687, "pitch": 69, "duration": 2, "velocity": 100}, {"time": 690, "pitch": 71, "duration": 5, "velocity": 102}, {"time": 696, "pitch": 69, "duration": 2, "velocity": 94}, {"time": 699, "pitch": 66, "duration": 6, "velocity": 96}, {"time": 708, "pitch": 66, "duration": 2, "velocity": 102}, {"time": 711, "pitch": 64, "duration": 4, "velocity": 105}, {"time": 717, "pitch": 62, "duration": 6, "velocity": 108}, {"time": 732, "pitch": 64, "duration": 4, "velocity": 102}, {"time": 738, "pitch": 64, "duration": 4, "velocity": 97}, {"time": 744, "pitch": 62, "duration": 2, "velocity": 100}, {"time": 747, "pitch": 64, "duration": 2, "velocity": 94}, {"time": 750, "pitch": 62, "duration": 2, "velocity": 105}, {"time": 753, "pitch": 62, "duration": 16, "velocity": 100}, {"time": 774, "pitch": 64, "duration": 2, "velocity": 94}, {"time": 777, "pitch": 66, "duration": 2, "velocity": 90}, {"time": 780, "pitch": 67, "duration": 2, "velocity": 97}, {"time": 783, "pitch": 69, "duration": 2, "velocity": 94}, {"time": 786, "pitch": 71, "duration": 4, "velocity": 102}, {"time": 792, "pitch": 69, "duration": 2, "velocity": 102}, {"time": 795, "pitch": 66, "duration": 5, "velocity": 93}, {"time": 804, "pitch": 66, "duration": 2, "velocity": 93}, {"time": 807, "pitch": 64, "duration": 4, "velocity": 100}, {"time": 813, "pitch": 62, "duration": 7, "velocity": 105}, {"time": 828, "pitch": 64, "duration": 6, "velocity": 87}, {"time": 834, "pitch": 74, "duration": 6, "velocity": 108}, {"time": 840, "pitch": 72, "duration": 2, "velocity": 102}, {"time": 843, "pitch": 72, "duration": 4, "velocity": 105}, {"time": 849, "pitch": 71, "duration": 17, "velocity": 97}, {"time": 870, "pitch": 72, "duration": 2, "velocity": 108}, {"time": 873, "pitch": 69, "duration": 2, "velocity": 100}, {"time": 876, "pitch": 71, "duration": 2, "velocity": 102}, {"time": 879, "pitch": 72, "duration": 3, "velocity": 108}, {"time": 882, "pitch": 72, "duration": 2, "velocity": 102}, {"time": 885, "pitch": 69, "duration": 2, "velocity": 102}, {"time": 888, "pitch": 71, "duration": 2, "velocity": 102}, {"time": 891, "pitch": 72, "duration": 2, "velocity": 102}, {"time": 894, "pitch": 72, "duration": 2, "velocity": 102}, {"time": 897, "pitch": 79, "duration": 2, "velocity": 89}, {"time": 900, "pitch": 79, "duration": 2, "velocity": 105}, {"time": 903, "pitch": 79, "duration": 2, "velocity": 102}, {"time": 906, "pitch": 79, "duration": 2, "velocity": 102}, {"time": 909, "pitch": 78, "duration": 2, "velocity": 105}, {"time": 912, "pitch": 78, "duration": 2, "velocity": 109}, {"time": 915, "pitch": 76, "duration": 2, "velocity": 108}, {"time": 918, "pitch": 71, "duration": 2, "velocity": 111}, {"time": 921, "pitch": 67, "duration": 2, "velocity": 82}, {"time": 924, "pitch": 69, "duration": 2, "velocity": 102}, {"time": 927, "pitch": 71, "duration": 2, "velocity": 105}, {"time": 930, "pitch": 71, "duration": 2, "velocity": 111}, {"time": 933, "pitch": 67, "duration": 2, "velocity": 84}, {"time": 936, "pitch": 69, "duration": 2, "velocity": 100}, {"time": 939, "pitch": 71, "duration": 2, "velocity": 100}, {"time": 942, "pitch": 71, "duration": 2, "velocity": 100}, {"time": 945, "pitch": 78, "duration": 2, "velocity": 111}, {"time": 948, "pitch": 78, "duration": 2, "velocity": 108}, {"time": 951, "pitch": 78, "duration": 2, "velocity": 97}, {"time": 954, "pitch": 78, "duration": 2, "velocity": 105}, {"time": 957, "pitch": 76, "duration": 2, "velocity": 70}, {"time": 960, "pitch": 76, "duration": 2, "velocity": 105}, {"time": 963, "pitch": 71, "duration": 9, "velocity": 114}, {"time": 972, "pitch": 72, "duration": 2, "velocity": 97}, {"time": 975, "pitch": 72, "duration": 2, "velocity": 92}, {"time": 978, "pitch": 72, "duration": 2, "velocity": 102}, {"time": 981, "pitch": 72, "duration": 2, "velocity": 97}, {"time": 984, "pitch": 72, "duration": 2, "velocity": 102}, {"time": 987, "pitch": 74, "duration": 6, "velocity": 108}, {"time": 993, "pitch": 72, "duration": 12, "velocity": 105}, {"time": 1005, "pitch": 72, "duration": 3, "velocity": 114}, {"time": 1008, "pitch": 71, "duration": 2, "velocity": 114}, {"time": 1011, "pitch": 69, "duration": 2, "velocity": 102}, {"time": 1014, "pitch": 71, "duration": 4, "velocity": 114}, {"time": 1019, "pitch": 71, "duration": 3, "velocity": 111}, {"time": 1023, "pitch": 71, "duration": 3, "velocity": 111}, {"time": 1027, "pitch": 75, "duration": 3, "velocity": 109}, {"time": 1031, "pitch": 75, "duration": 3, "velocity": 105}, {"time": 1035, "pitch": 76, "duration": 2, "velocity": 111}, {"time": 1038, "pitch": 78, "duration": 13, "velocity": 105}, {"time": 1053, "pitch": 71, "duration": 5, "velocity": 117}, {"time": 1059, "pitch": 71, "duration": 2, "velocity": 114}, {"time": 1062, "pitch": 79, "duration": 2, "velocity": 114}, {"time": 1065, "pitch": 79, "duration": 2, "velocity": 114}, {"time": 1068, "pitch": 78, "duration": 2, "velocity": 109}, {"time": 1071, "pitch": 76, "duration": 4, "velocity": 111}, {"time": 1077, "pitch": 76, "duration": 4, "velocity": 120}, {"time": 1083, "pitch": 71, "duration": 2, "velocity": 105}, {"time": 1086, "pitch": 79, "duration": 2, "velocity": 111}, {"time": 1089, "pitch": 79, "duration": 2, "velocity": 111}, {"time": 1092, "pitch": 78, "duration": 2, "velocity": 102}, {"time": 1095, "pitch": 76, "duration": 5, "velocity": 114}, {"time": 1101, "pitch": 76, "duration": 3, "velocity": 108}, {"time": 1104, "pitch": 76, "duration": 2, "velocity": 100}, {"time": 1107, "pitch": 79, "duration": 2, "velocity": 111}, {"time": 1110, "pitch": 78, "duration": 2, "velocity": 105}, {"time": 1113, "pitch": 78, "duration": 2, "velocity": 90}, {"time": 1116, "pitch": 78, "duration": 2, "velocity": 102}, {"time": 1119, "pitch": 78, "duration": 2, "velocity": 102}, {"time": 1122, "pitch": 78, "duration": 2, "velocity": 109}, {"time": 1125, "pitch": 76, "duration": 2, "velocity": 102}, {"time": 1128, "pitch": 76, "duration": 2, "velocity": 94}, {"time": 1131, "pitch": 74, "duration": 2, "velocity": 76}, {"time": 1134, "pitch": 74, "duration": 5, "velocity": 102}, {"time": 1140, "pitch": 76, "duration": 2, "velocity": 82}, {"time": 1143, "pitch": 71, "duration": 9, "velocity": 97}, {"time": 1161, "pitch": 72, "duration": 2, "velocity": 105}, {"time": 1164, "pitch": 72, "duration": 2, "velocity": 100}, {"time": 1167, "pitch": 72, "duration": 2, "velocity": 97}, {"time": 1170, "pitch": 72, "duration": 2, "velocity": 111}, {"time": 1173, "pitch": 71, "duration": 2, "velocity": 111}, {"time": 1176, "pitch": 72, "duration": 2, "velocity": 108}, {"time": 1179, "pitch": 76, "duration": 2, "velocity": 105}, {"time": 1182, "pitch": 71, "duration": 5, "velocity": 108}, {"time": 1186, "pitch": 71, "duration": 1, "velocity": 111}, {"time": 1191, "pitch": 71, "duration": 2, "velocity": 111}, {"time": 1195, "pitch": 76, "duration": 2, "velocity": 111}, {"time": 1198, "pitch": 76, "duration": 3, "velocity": 108}, {"time": 1202, "pitch": 79, "duration": 2, "velocity": 108}, {"time": 1206, "pitch": 78, "duration": 5, "velocity": 109}, {"time": 1212, "pitch": 73, "duration": 6, "velocity": 96}, {"time": 1221, "pitch": 75, "duration": 4, "velocity": 116}, {"time": 1227, "pitch": 76, "duration": 2, "velocity": 108}, {"time": 1230, "pitch": 78, "duration": 14, "velocity": 105}, {"time": 1245, "pitch": 71, "duration": 3, "velocity": 117}, {"time": 1248, "pitch": 71, "duration": 3, "velocity": 114}, {"time": 1251, "pitch": 71, "duration": 2, "velocity": 114}, {"time": 1254, "pitch": 79, "duration": 2, "velocity": 114}, {"time": 1257, "pitch": 79, "duration": 2, "velocity": 114}, {"time": 1260, "pitch": 78, "duration": 2, "velocity": 109}, {"time": 1263, "pitch": 76, "duration": 4, "velocity": 111}, {"time": 1269, "pitch": 76, "duration": 4, "velocity": 120}, {"time": 1275, "pitch": 71, "duration": 2, "velocity": 105}, {"time": 1278, "pitch": 79, "duration": 2, "velocity": 111}, {"time": 1281, "pitch": 79, "duration": 2, "velocity": 111}, {"time": 1284, "pitch": 78, "duration": 2, "velocity": 102}, {"time": 1287, "pitch": 76, "duration": 5, "velocity": 114}, {"time": 1293, "pitch": 76, "duration": 3, "velocity": 108}, {"time": 1296, "pitch": 76, "duration": 2, "velocity": 100}, {"time": 1299, "pitch": 79, "duration": 2, "velocity": 111}, {"time": 1302, "pitch": 78, "duration": 2, "velocity": 105}, {"time": 1305, "pitch": 78, "duration": 2, "velocity": 90}, {"time": 1308, "pitch": 78, "duration": 2, "velocity": 102}, {"time": 1311, "pitch": 78, "duration": 2, "velocity": 102}, {"time": 1314, "pitch": 78, "duration": 2, "velocity": 109}, {"time": 1317, "pitch": 76, "duration": 2, "velocity": 102}, {"time": 1320, "pitch": 76, "duration": 2, "velocity": 94}, {"time": 1323, "pitch": 74, "duration": 2, "velocity": 76}, {"time": 1326, "pitch": 74, "duration": 5, "velocity": 102}, {"time": 1332, "pitch": 76, "duration": 2, "velocity": 82}, {"time": 1335, "pitch": 71, "duration": 9, "velocity": 97}, {"time": 1353, "pitch": 72, "duration": 2, "velocity": 105}, {"time": 1356, "pitch": 72, "duration": 2, "velocity": 100}, {"time": 1359, "pitch": 72, "duration": 2, "velocity": 97}, {"time": 1362, "pitch": 72, "duration": 2, "velocity": 111}, {"time": 1365, "pitch": 71, "duration": 2, "velocity": 111}, {"time": 1368, "pitch": 72, "duration": 2, "velocity": 108}, {"time": 1371, "pitch": 76, "duration": 2, "velocity": 105}, {"time": 1374, "pitch": 71, "duration": 5, "velocity": 108}, {"time": 1378, "pitch": 71, "duration": 1, "velocity": 111}, {"time": 1383, "pitch": 71, "duration": 2, "velocity": 111}, {"time": 1387, "pitch": 76, "duration": 2, "velocity": 111}, {"time": 1390, "pitch": 76, "duration": 3, "velocity": 108}, {"time": 1394, "pitch": 78, "duration": 2, "velocity": 108}, {"time": 1398, "pitch": 79, "duration": 15, "velocity": 109}, {"time": 1423, "pitch": 78, "duration": 3, "velocity": 109}, {"time": 1427, "pitch": 78, "duration": 3, "velocity": 102}, {"time": 1431, "pitch": 78, "duration": 3, "velocity": 102}, {"time": 1435, "pitch": 78, "duration": 3, "velocity": 102}, {"time": 1439, "pitch": 76, "duration": 3, "velocity": 108}, {"time": 1443, "pitch": 75, "duration": 6, "velocity": 105}, {"time": 1449, "pitch": 76, "duration": 35, "velocity": 111}, {"time": 1722, "pitch": 76, "duration": 2, "velocity": 111}, {"time": 1725, "pitch": 74, "duration": 5, "velocity": 111}, {"time": 1731, "pitch": 69, "duration": 7, "velocity": 108}, {"time": 1740, "pitch": 67, "duration": 2, "velocity": 105}, {"time": 1743, "pitch": 69, "duration": 6, "velocity": 111}, {"time": 1749, "pitch": 67, "duration": 2, "velocity": 89}, {"time": 1752, "pitch": 69, "duration": 2, "velocity": 105}, {"time": 1755, "pitch": 67, "duration": 2, "velocity": 105}, {"time": 1758, "pitch": 69, "duration": 2, "velocity": 117}, {"time": 1761, "pitch": 67, "duration": 2, "velocity": 105}, {"time": 1764, "pitch": 69, "duration": 2, "velocity": 108}, {"time": 1767, "pitch": 67, "duration": 2, "velocity": 102}, {"time": 1770, "pitch": 69, "duration": 2, "velocity": 114}, {"time": 1773, "pitch": 67, "duration": 2, "velocity": 108}, {"time": 1776, "pitch": 69, "duration": 2, "velocity": 102}, {"time": 1779, "pitch": 67, "duration": 2, "velocity": 102}, {"time": 1782, "pitch": 69, "duration": 2, "velocity": 111}, {"time": 1785, "pitch": 67, "duration": 2, "velocity": 108}, {"time": 1788, "pitch": 64, "duration": 3, "velocity": 111}, {"time": 1791, "pitch": 64, "duration": 15, "velocity": 111}, {"time": 1815, "pitch": 76, "duration": 2, "velocity": 108}, {"time": 1818, "pitch": 76, "duration": 5, "velocity": 111}, {"time": 1824, "pitch": 78, "duration": 2, "velocity": 105}, {"time": 1827, "pitch": 79, "duration": 2, "velocity": 102}, {"time": 1830, "pitch": 78, "duration": 5, "velocity": 109}, {"time": 1836, "pitch": 74, "duration": 2, "velocity": 111}, {"time": 1839, "pitch": 74, "duration": 5, "velocity": 105}, {"time": 1854, "pitch": 76, "duration": 5, "velocity": 111}, {"time": 1860, "pitch": 78, "duration": 2, "velocity": 105}, {"time": 1863, "pitch": 79, "duration": 2, "velocity": 105}, {"time": 1866, "pitch": 79, "duration": 5, "velocity": 111}, {"time": 1872, "pitch": 78, "duration": 2, "velocity": 112}, {"time": 1875, "pitch": 76, "duration": 2, "velocity": 105}, {"time": 1879, "pitch": 78, "duration": 7, "velocity": 109}, {"time": 1893, "pitch": 71, "duration": 5, "velocity": 117}, {"time": 1899, "pitch": 71, "duration": 2, "velocity": 114}, {"time": 1902, "pitch": 79, "duration": 2, "velocity": 114}, {"time": 1905, "pitch": 79, "duration": 2, "velocity": 114}, {"time": 1908, "pitch": 78, "duration": 2, "velocity": 109}, {"time": 1911, "pitch": 76, "duration": 4, "velocity": 111}, {"time": 1917, "pitch": 76, "duration": 4, "velocity": 120}, {"time": 1923, "pitch": 71, "duration": 2, "velocity": 105}, {"time": 1926, "pitch": 79, "duration": 2, "velocity": 111}, {"time": 1929, "pitch": 79, "duration": 2, "velocity": 111}, {"time": 1932, "pitch": 78, "duration": 2, "velocity": 102}, {"time": 1935, "pitch": 76, "duration": 5, "velocity": 114}, {"time": 1941, "pitch": 76, "duration": 3, "velocity": 108}, {"time": 1944, "pitch": 76, "duration": 2, "velocity": 100}, {"time": 1947, "pitch": 79, "duration": 2, "velocity": 111}, {"time": 1950, "pitch": 78, "duration": 2, "velocity": 105}, {"time": 1953, "pitch": 78, "duration": 2, "velocity": 90}, {"time": 1956, "pitch": 78, "duration": 2, "velocity": 102}, {"time": 1959, "pitch": 78, "duration": 2, "velocity": 102}, {"time": 1962, "pitch": 78, "duration": 2, "velocity": 109}, {"time": 1965, "pitch": 76, "duration": 2, "velocity": 102}, {"time": 1968, "pitch": 76, "duration": 2, "velocity": 94}, {"time": 1971, "pitch": 74, "duration": 2, "velocity": 76}, {"time": 1974, "pitch": 74, "duration": 5, "velocity": 102}, {"time": 1980, "pitch": 76, "duration": 2, "velocity": 82}, {"time": 1983, "pitch": 71, "duration": 9, "velocity": 97}, {"time": 2001, "pitch": 72, "duration": 2, "velocity": 105}, {"time": 2004, "pitch": 72, "duration": 2, "velocity": 100}, {"time": 2007, "pitch": 72, "duration": 2, "velocity": 97}, {"time": 2010, "pitch": 72, "duration": 2, "velocity": 111}, {"time": 2013, "pitch": 71, "duration": 2, "velocity": 111}, {"time": 2016, "pitch": 72, "duration": 2, "velocity": 108}, {"time": 2019, "pitch": 76, "duration": 2, "velocity": 105}, {"time": 2022, "pitch": 71, "duration": 5, "velocity": 108}, {"time": 2026, "pitch": 71, "duration": 1, "velocity": 111}, {"time": 2031, "pitch": 71, "duration": 2, "velocity": 111}, {"time": 2035, "pitch": 76, "duration": 2, "velocity": 111}, {"time": 2038, "pitch": 76, "duration": 3, "velocity": 108}, {"time": 2042, "pitch": 79, "duration": 2, "velocity": 108}, {"time": 2046, "pitch": 78, "duration": 5, "velocity": 109}, {"time": 2052, "pitch": 73, "duration": 6, "velocity": 96}, {"time": 2061, "pitch": 75, "duration": 4, "velocity": 116}, {"time": 2067, "pitch": 76, "duration": 2, "velocity": 108}, {"time": 2070, "pitch": 78, "duration": 14, "velocity": 105}, {"time": 2085, "pitch": 71, "duration": 3, "velocity": 117}, {"time": 2088, "pitch": 71, "duration": 3, "velocity": 114}, {"time": 2091, "pitch": 71, "duration": 2, "velocity": 114}, {"time": 2094, "pitch": 79, "duration": 2, "velocity": 114}, {"time": 2097, "pitch": 79, "duration": 2, "velocity": 114}, {"time": 2100, "pitch": 78, "duration": 2, "velocity": 109}, {"time": 2103, "pitch": 76, "duration": 4, "velocity": 111}, {"time": 2109, "pitch": 76, "duration": 4, "velocity": 120}, {"time": 2115, "pitch": 71, "duration": 2, "velocity": 105}, {"time": 2118, "pitch": 79, "duration": 2, "velocity": 111}, {"time": 2121, "pitch": 79, "duration": 2, "velocity": 111}, {"time": 2124, "pitch": 78, "duration": 2, "velocity": 102}, {"time": 2127, "pitch": 76, "duration": 5, "velocity": 114}, {"time": 2133, "pitch": 76, "duration": 3, "velocity": 108}, {"time": 2136, "pitch": 76, "duration": 2, "velocity": 100}, {"time": 2139, "pitch": 79, "duration": 2, "velocity": 111}, {"time": 2142, "pitch": 78, "duration": 2, "velocity": 105}, {"time": 2145, "pitch": 78, "duration": 2, "velocity": 90}, {"time": 2148, "pitch": 78, "duration": 2, "velocity": 102}, {"time": 2151, "pitch": 78, "duration": 2, "velocity": 102}, {"time": 2154, "pitch": 78, "duration": 2, "velocity": 109}, {"time": 2157, "pitch": 76, "duration": 2, "velocity": 102}, {"time": 2160, "pitch": 76, "duration": 2, "velocity": 94}, {"time": 2163, "pitch": 74, "duration": 2, "velocity": 76}, {"time": 2166, "pitch": 74, "duration": 5, "velocity": 102}, {"time": 2172, "pitch": 76, "duration": 2, "velocity": 82}, {"time": 2175, "pitch": 71, "duration": 9, "velocity": 97}, {"time": 2193, "pitch": 72, "duration": 2, "velocity": 105}, {"time": 2196, "pitch": 72, "duration": 2, "velocity": 100}, {"time": 2199, "pitch": 72, "duration": 2, "velocity": 97}, {"time": 2202, "pitch": 72, "duration": 2, "velocity": 111}, {"time": 2205, "pitch": 71, "duration": 2, "velocity": 111}, {"time": 2208, "pitch": 72, "duration": 2, "velocity": 108}, {"time": 2211, "pitch": 76, "duration": 2, "velocity": 105}, {"time": 2214, "pitch": 71, "duration": 5, "velocity": 108}, {"time": 2218, "pitch": 71, "duration": 1, "velocity": 111}, {"time": 2223, "pitch": 71, "duration": 2, "velocity": 111}, {"time": 2227, "pitch": 76, "duration": 2, "velocity": 111}, {"time": 2230, "pitch": 76, "duration": 3, "velocity": 108}, {"time": 2234, "pitch": 78, "duration": 2, "velocity": 108}, {"time": 2238, "pitch": 79, "duration": 15, "velocity": 109}, {"time": 2263, "pitch": 78, "duration": 3, "velocity": 109}, {"time": 2267, "pitch": 78, "duration": 3, "velocity": 102}, {"time": 2271, "pitch": 78, "duration": 3, "velocity": 102}, {"time": 2275, "pitch": 78, "duration": 3, "velocity": 102}, {"time": 2279, "pitch": 76, "duration": 3, "velocity": 108}, {"time": 2283, "pitch": 75, "duration": 6, "velocity": 105}, {"time": 2289, "pitch": 76, "duration": 35, "velocity": 111}, {"time": 2325, "pitch": 71, "duration": 3, "velocity": 117}, {"time": 2328, "pitch": 71, "duration": 3, "velocity": 114}, {"time": 2331, "pitch": 71, "duration": 2, "velocity": 114}, {"time": 2334, "pitch": 79, "duration": 2, "velocity": 114}, {"time": 2337, "pitch": 79, "duration": 2, "velocity": 114}, {"time": 2340, "pitch": 78, "duration": 2, "velocity": 109}, {"time": 2343, "pitch": 76, "duration": 4, "velocity": 111}, {"time": 2349, "pitch": 76, "duration": 4, "velocity": 120}, {"time": 2355, "pitch": 71, "duration": 2, "velocity": 105}, {"time": 2358, "pitch": 79, "duration": 2, "velocity": 111}, {"time": 2361, "pitch": 79, "duration": 2, "velocity": 111}, {"time": 2364, "pitch": 78, "duration": 2, "velocity": 102}, {"time": 2367, "pitch": 76, "duration": 5, "velocity": 114}, {"time": 2373, "pitch": 76, "duration": 3, "velocity": 108}, {"time": 2376, "pitch": 76, "duration": 2, "velocity": 100}, {"time": 2379, "pitch": 79, "duration": 2, "velocity": 111}, {"time": 2382, "pitch": 78, "duration": 2, "velocity": 105}, {"time": 2385, "pitch": 78, "duration": 2, "velocity": 90}, {"time": 2388, "pitch": 78, "duration": 2, "velocity": 102}, {"time": 2391, "pitch": 78, "duration": 2, "velocity": 102}, {"time": 2394, "pitch": 78, "duration": 2, "velocity": 109}, {"time": 2397, "pitch": 76, "duration": 2, "velocity": 102}, {"time": 2400, "pitch": 76, "duration": 2, "velocity": 94}, {"time": 2403, "pitch": 74, "duration": 2, "velocity": 76}, {"time": 2406, "pitch": 74, "duration": 5, "velocity": 102}, {"time": 2412, "pitch": 76, "duration": 2, "velocity": 82}, {"time": 2415, "pitch": 71, "duration": 9, "velocity": 97}, {"time": 2433, "pitch": 72, "duration": 2, "velocity": 105}, {"time": 2436, "pitch": 72, "duration": 2, "velocity": 100}, {"time": 2439, "pitch": 72, "duration": 2, "velocity": 97}, {"time": 2442, "pitch": 72, "duration": 2, "velocity": 111}, {"time": 2445, "pitch": 71, "duration": 2, "velocity": 111}, {"time": 2448, "pitch": 72, "duration": 2, "velocity": 108}, {"time": 2451, "pitch": 76, "duration": 2, "velocity": 105}, {"time": 2454, "pitch": 71, "duration": 5, "velocity": 108}, {"time": 2458, "pitch": 71, "duration": 1, "velocity": 111}, {"time": 2463, "pitch": 71, "duration": 2, "velocity": 111}, {"time": 2467, "pitch": 76, "duration": 2, "velocity": 111}, {"time": 2470, "pitch": 76, "duration": 3, "velocity": 108}, {"time": 2474, "pitch": 78, "duration": 2, "velocity": 108}, {"time": 2478, "pitch": 79, "duration": 15, "velocity": 109}, {"time": 2503, "pitch": 78, "duration": 3, "velocity": 109}, {"time": 2507, "pitch": 78, "duration": 3, "velocity": 102}, {"time": 2511, "pitch": 78, "duration": 3, "velocity": 102}, {"time": 2515, "pitch": 78, "duration": 3, "velocity": 102}, {"time": 2519, "pitch": 76, "duration": 3, "velocity": 108}, {"time": 2523, "pitch": 75, "duration": 6, "velocity": 105}, {"time": 2529, "pitch": 76, "duration": 35, "velocity": 111}]}, {"program": 0, "is_drum": false, "name": "PIANO", "notes": [{"time": 102, "pitch": 52, "duration": 17, "velocity": 102}, {"time": 102, "pitch": 59, "duration": 9, "velocity": 92}, {"time": 102, "pitch": 64, "duration": 8, "velocity": 89}, {"time": 114, "pitch": 59, "duration": 3, "velocity": 94}, {"time": 114, "pitch": 64, "duration": 6, "velocity": 108}, {"time": 114, "pitch": 67, "duration": 8, "velocity": 97}, {"time": 120, "pitch": 59, "duration": 2, "velocity": 100}, {"time": 126, "pitch": 43, "duration": 22, "velocity": 94}, {"time": 126, "pitch": 55, "duration": 7, "velocity": 76}, {"time": 126, "pitch": 59, "duration": 5, "velocity": 71}, {"time": 126, "pitch": 62, "duration": 7, "velocity": 84}, {"time": 132, "pitch": 50, "duration": 13, "velocity": 55}, {"time": 138, "pitch": 55, "duration": 6, "velocity": 102}, {"time": 138, "pitch": 59, "duration": 6, "velocity": 114}, {"time": 138, "pitch": 62, "duration": 7, "velocity": 102}, {"time": 150, "pitch": 50, "duration": 21, "velocity": 97}, {"time": 150, "pitch": 57, "duration": 9, "velocity": 84}, {"time": 150, "pitch": 62, "duration": 8, "velocity": 92}, {"time": 162, "pitch": 57, "duration": 3, "velocity": 94}, {"time": 162, "pitch": 62, "duration": 7, "velocity": 100}, {"time": 162, "pitch": 66, "duration": 9, "velocity": 85}, {"time": 168, "pitch": 57, "duration": 2, "velocity": 89}, {"time": 174, "pitch": 48, "duration": 6, "velocity": 100}, {"time": 174, "pitch": 60, "duration": 6, "velocity": 94}, {"time": 174, "pitch": 64, "duration": 6, "velocity": 100}, {"time": 186, "pitch": 47, "duration": 7, "velocity": 97}, {"time": 186, "pitch": 59, "duration": 6, "velocity": 94}, {"time": 186, "pitch": 62, "duration": 7, "velocity": 105}, {"time": 198, "pitch": 45, "duration": 15, "velocity": 94}, {"time": 198, "pitch": 57, "duration": 8, "velocity": 89}, {"time": 198, "pitch": 60, "duration": 7, "velocity": 94}, {"time": 204, "pitch": 52, "duration": 9, "velocity": 64}, {"time": 210, "pitch": 57, "duration": 5, "velocity": 102}, {"time": 210, "pitch": 60, "duration": 5, "velocity": 114}, {"time": 210, "pitch": 64, "duration": 6, "velocity": 100}, {"time": 216, "pitch": 45, "duration": 4, "velocity": 87}, {"time": 222, "pitch": 47, "duration": 15, "velocity": 69}, {"time": 222, "pitch": 59, "duration": 8, "velocity": 87}, {"time": 222, "pitch": 62, "duration": 8, "velocity": 84}, {"time": 228, "pitch": 54, "duration": 7, "velocity": 65}, {"time": 234, "pitch": 59, "duration": 6, "velocity": 89}, {"time": 234, "pitch": 62, "duration": 7, "velocity": 97}, {"time": 234, "pitch": 66, "duration": 9, "velocity": 99}, {"time": 240, "pitch": 47, "duration": 5, "velocity": 89}, {"time": 246, "pitch": 48, "duration": 15, "velocity": 92}, {"time": 246, "pitch": 60, "duration": 10, "velocity": 87}, {"time": 246, "pitch": 64, "duration": 10, "velocity": 92}, {"time": 252, "pitch": 55, "duration": 9, "velocity": 37}, {"time": 258, "pitch": 60, "duration": 12, "velocity": 105}, {"time": 258, "pitch": 64, "duration": 13, "velocity": 114}, {"time": 264, "pitch": 48, "duration": 5, "velocity": 87}, {"time": 273, "pitch": 50, "duration": 14, "velocity": 53}, {"time": 273, "pitch": 57, "duration": 11, "velocity": 78}, {"time": 273, "pitch": 62, "duration": 8, "velocity": 80}, {"time": 273, "pitch": 66, "duration": 8, "velocity": 96}, {"time": 282, "pitch": 62, "duration": 4, "velocity": 92}, {"time": 282, "pitch": 66, "duration": 7, "velocity": 63}, {"time": 282, "pitch": 69, "duration": 7, "velocity": 94}, {"time": 285, "pitch": 57, "duration": 3, "velocity": 67}, {"time": 288, "pitch": 62, "duration": 5, "velocity": 78}, {"time": 291, "pitch": 66, "duration": 1, "velocity": 30}, {"time": 294, "pitch": 52, "duration": 20, "velocity": 97}, {"time": 294, "pitch": 59, "duration": 14, "velocity": 84}, {"time": 294, "pitch": 64, "duration": 11, "velocity": 89}, {"time": 306, "pitch": 64, "duration": 7, "velocity": 89}, {"time": 306, "pitch": 67, "duration": 7, "velocity": 94}, {"time": 312, "pitch": 59, "duration": 2, "velocity": 78}, {"time": 318, "pitch": 50, "duration": 16, "velocity": 100}, {"time": 318, "pitch": 57, "duration": 10, "velocity": 67}, {"time": 318, "pitch": 62, "duration": 10, "velocity": 66}, {"time": 318, "pitch": 66, "duration": 10, "velocity": 55}, {"time": 330, "pitch": 57, "duration": 4, "velocity": 100}, {"time": 330, "pitch": 62, "duration": 8, "velocity": 97}, {"time": 330, "pitch": 66, "duration": 10, "velocity": 102}, {"time": 336, "pitch": 57, "duration": 2, "velocity": 49}, {"time": 342, "pitch": 48, "duration": 16, "velocity": 94}, {"time": 342, "pitch": 60, "duration": 9, "velocity": 71}, {"time": 342, "pitch": 64, "duration": 9, "velocity": 80}, {"time": 348, "pitch": 55, "duration": 9, "velocity": 43}, {"time": 354, "pitch": 60, "duration": 3, "velocity": 100}, {"time": 354, "pitch": 64, "duration": 6, "velocity": 102}, {"time": 360, "pitch": 60, "duration": 2, "velocity": 76}, {"time": 366, "pitch": 43, "duration": 5, "velocity": 97}, {"time": 366, "pitch": 55, "duration": 6, "velocity": 84}, {"time": 366, "pitch": 59, "duration": 5, "velocity": 97}, {"time": 378, "pitch": 42, "duration": 3, "velocity": 87}, {"time": 378, "pitch": 54, "duration": 4, "velocity": 90}, {"time": 378, "pitch": 57, "duration": 4, "velocity": 102}, {"time": 390, "pitch": 52, "duration": 21, "velocity": 94}, {"time": 390, "pitch": 59, "duration": 4, "velocity": 94}, {"time": 390, "pitch": 64, "duration": 7, "velocity": 89}, {"time": 396, "pitch": 59, "duration": 4, "velocity": 58}, {"time": 402, "pitch": 59, "duration": 3, "velocity": 97}, {"time": 402, "pitch": 64, "duration": 7, "velocity": 100}, {"time": 402, "pitch": 67, "duration": 8, "velocity": 87}, {"time": 408, "pitch": 59, "duration": 3, "velocity": 97}, {"time": 414, "pitch": 47, "duration": 15, "velocity": 87}, {"time": 414, "pitch": 59, "duration": 9, "velocity": 84}, {"time": 414, "pitch": 62, "duration": 8, "velocity": 84}, {"time": 420, "pitch": 54, "duration": 8, "velocity": 43}, {"time": 426, "pitch": 59, "duration": 2, "velocity": 87}, {"time": 426, "pitch": 62, "duration": 6, "velocity": 89}, {"time": 426, "pitch": 66, "duration": 6, "velocity": 68}, {"time": 432, "pitch": 59, "duration": 2, "velocity": 94}, {"time": 438, "pitch": 48, "duration": 15, "velocity": 100}, {"time": 438, "pitch": 55, "duration": 4, "velocity": 67}, {"time": 438, "pitch": 60, "duration": 7, "velocity": 76}, {"time": 438, "pitch": 64, "duration": 7, "velocity": 84}, {"time": 444, "pitch": 55, "duration": 3, "velocity": 34}, {"time": 450, "pitch": 55, "duration": 2, "velocity": 97}, {"time": 450, "pitch": 60, "duration": 4, "velocity": 105}, {"time": 450, "pitch": 64, "duration": 6, "velocity": 97}, {"time": 456, "pitch": 55, "duration": 2, "velocity": 62}, {"time": 462, "pitch": 47, "duration": 18, "velocity": 100}, {"time": 462, "pitch": 57, "duration": 2, "velocity": 44}, {"time": 462, "pitch": 59, "duration": 7, "velocity": 44}, {"time": 462, "pitch": 63, "duration": 8, "velocity": 77}, {"time": 462, "pitch": 66, "duration": 8, "velocity": 82}, {"time": 468, "pitch": 54, "duration": 7, "velocity": 45}, {"time": 474, "pitch": 59, "duration": 4, "velocity": 100}, {"time": 474, "pitch": 63, "duration": 7, "velocity": 109}, {"time": 474, "pitch": 66, "duration": 7, "velocity": 102}, {"time": 477, "pitch": 54, "duration": 3, "velocity": 54}, {"time": 480, "pitch": 59, "duration": 3, "velocity": 89}, {"time": 486, "pitch": 45, "duration": 22, "velocity": 92}, {"time": 486, "pitch": 57, "duration": 7, "velocity": 89}, {"time": 486, "pitch": 60, "duration": 6, "velocity": 94}, {"time": 492, "pitch": 52, "duration": 9, "velocity": 73}, {"time": 498, "pitch": 57, "duration": 6, "velocity": 94}, {"time": 498, "pitch": 60, "duration": 6, "velocity": 105}, {"time": 498, "pitch": 64, "duration": 6, "velocity": 97}, {"time": 504, "pitch": 52, "duration": 5, "velocity": 52}, {"time": 507, "pitch": 57, "duration": 3, "velocity": 66}, {"time": 510, "pitch": 45, "duration": 14, "velocity": 94}, {"time": 510, "pitch": 57, "duration": 7, "velocity": 92}, {"time": 510, "pitch": 60, "duration": 6, "velocity": 89}, {"time": 516, "pitch": 52, "duration": 9, "velocity": 41}, {"time": 522, "pitch": 57, "duration": 5, "velocity": 102}, {"time": 522, "pitch": 60, "duration": 5, "velocity": 111}, {"time": 522, "pitch": 64, "duration": 6, "velocity": 97}, {"time": 528, "pitch": 45, "duration": 4, "velocity": 84}, {"time": 534, "pitch": 52, "duration": 19, "velocity": 92}, {"time": 534, "pitch": 59, "duration": 3, "velocity": 87}, {"time": 534, "pitch": 64, "duration": 6, "velocity": 87}, {"time": 540, "pitch": 59, "duration": 2, "velocity": 52}, {"time": 546, "pitch": 59, "duration": 3, "velocity": 102}, {"time": 546, "pitch": 64, "duration": 7, "velocity": 102}, {"time": 546, "pitch": 67, "duration": 6, "velocity": 97}, {"time": 552, "pitch": 59, "duration": 5, "velocity": 53}, {"time": 558, "pitch": 52, "duration": 17, "velocity": 89}, {"time": 558, "pitch": 59, "duration": 4, "velocity": 73}, {"time": 558, "pitch": 64, "duration": 8, "velocity": 78}, {"time": 558, "pitch": 67, "duration": 8, "velocity": 80}, {"time": 564, "pitch": 59, "duration": 3, "velocity": 53}, {"time": 570, "pitch": 59, "duration": 2, "velocity": 105}, {"time": 570, "pitch": 64, "duration": 7, "velocity": 97}, {"time": 570, "pitch": 67, "duration": 7, "velocity": 67}, {"time": 576, "pitch": 59, "duration": 2, "velocity": 108}, {"time": 582, "pitch": 41, "duration": 19, "velocity": 89}, {"time": 582, "pitch": 53, "duration": 6, "velocity": 47}, {"time": 582, "pitch": 57, "duration": 6, "velocity": 71}, {"time": 582, "pitch": 59, "duration": 1, "velocity": 58}, {"time": 582, "pitch": 60, "duration": 8, "velocity": 64}, {"time": 588, "pitch": 48, "duration": 8, "velocity": 52}, {"time": 594, "pitch": 53, "duration": 3, "velocity": 94}, {"time": 594, "pitch": 57, "duration": 3, "velocity": 105}, {"time": 594, "pitch": 60, "duration": 3, "velocity": 102}, {"time": 600, "pitch": 48, "duration": 6, "velocity": 20}, {"time": 606, "pitch": 41, "duration": 12, "velocity": 84}, {"time": 606, "pitch": 53, "duration": 9, "velocity": 80}, {"time": 606, "pitch": 57, "duration": 7, "velocity": 89}, {"time": 606, "pitch": 60, "duration": 7, "velocity": 89}, {"time": 612, "pitch": 48, "duration": 6, "velocity": 38}, {"time": 618, "pitch": 53, "duration": 2, "velocity": 100}, {"time": 618, "pitch": 57, "duration": 2, "velocity": 100}, {"time": 618, "pitch": 60, "duration": 3, "velocity": 92}, {"time": 630, "pitch": 47, "duration": 21, "velocity": 92}, {"time": 630, "pitch": 59, "duration": 8, "velocity": 97}, {"time": 630, "pitch": 64, "duration": 8, "velocity": 97}, {"time": 636, "pitch": 54, "duration": 8, "velocity": 39}, {"time": 642, "pitch": 59, "duration": 7, "velocity": 108}, {"time": 642, "pitch": 64, "duration": 7, "velocity": 114}, {"time": 648, "pitch": 54, "duration": 4, "velocity": 57}, {"time": 651, "pitch": 59, "duration": 2, "velocity": 89}, {"time": 654, "pitch": 47, "duration": 24, "velocity": 92}, {"time": 654, "pitch": 59, "duration": 7, "velocity": 89}, {"time": 654, "pitch": 63, "duration": 7, "velocity": 96}, {"time": 660, "pitch": 54, "duration": 7, "velocity": 52}, {"time": 663, "pitch": 59, "duration": 2, "velocity": 58}, {"time": 666, "pitch": 59, "duration": 4, "velocity": 105}, {"time": 666, "pitch": 63, "duration": 11, "velocity": 109}, {"time": 666, "pitch": 66, "duration": 11, "velocity": 99}, {"time": 669, "pitch": 54, "duration": 9, "velocity": 87}, {"time": 672, "pitch": 59, "duration": 5, "velocity": 102}, {"time": 678, "pitch": 52, "duration": 20, "velocity": 97}, {"time": 678, "pitch": 59, "duration": 14, "velocity": 84}, {"time": 678, "pitch": 64, "duration": 11, "velocity": 89}, {"time": 690, "pitch": 64, "duration": 7, "velocity": 89}, {"time": 690, "pitch": 67, "duration": 7, "velocity": 94}, {"time": 696, "pitch": 59, "duration": 2, "velocity": 78}, {"time": 702, "pitch": 50, "duration": 16, "velocity": 100}, {"time": 702, "pitch": 57, "duration": 10, "velocity": 67}, {"time": 702, "pitch": 62, "duration": 10, "velocity": 66}, {"time": 702, "pitch": 66, "duration": 10, "velocity": 55}, {"time": 714, "pitch": 57, "duration": 4, "velocity": 100}, {"time": 714, "pitch": 62, "duration": 8, "velocity": 97}, {"time": 714, "pitch": 66, "duration": 10, "velocity": 102}, {"time": 720, "pitch": 57, "duration": 2, "velocity": 49}, {"time": 726, "pitch": 48, "duration": 16, "velocity": 94}, {"time": 726, "pitch": 60, "duration": 9, "velocity": 71}, {"time": 726, "pitch": 64, "duration": 9, "velocity": 80}, {"time": 732, "pitch": 55, "duration": 9, "velocity": 43}, {"time": 738, "pitch": 60, "duration": 3, "velocity": 100}, {"time": 738, "pitch": 64, "duration": 6, "velocity": 102}, {"time": 744, "pitch": 60, "duration": 2, "velocity": 76}, {"time": 750, "pitch": 43, "duration": 5, "velocity": 97}, {"time": 750, "pitch": 55, "duration": 6, "velocity": 84}, {"time": 750, "pitch": 59, "duration": 5, "velocity": 97}, {"time": 762, "pitch": 42, "duration": 3, "velocity": 87}, {"time": 762, "pitch": 54, "duration": 4, "velocity": 90}, {"time": 762, "pitch": 57, "duration": 4, "velocity": 102}, {"time": 774, "pitch": 52, "duration": 21, "velocity": 94}, {"time": 774, "pitch": 59, "duration": 4, "velocity": 94}, {"time": 774, "pitch": 64, "duration": 7, "velocity": 89}, {"time": 780, "pitch": 59, "duration": 4, "velocity": 58}, {"time": 786, "pitch": 59, "duration": 3, "velocity": 97}, {"time": 786, "pitch": 64, "duration": 7, "velocity": 100}, {"time": 786, "pitch": 67, "duration": 8, "velocity": 87}, {"time": 792, "pitch": 59, "duration": 3, "velocity": 97}, {"time": 798, "pitch": 47, "duration": 15, "velocity": 87}, {"time": 798, "pitch": 59, "duration": 9, "velocity": 84}, {"time": 798, "pitch": 62, "duration": 8, "velocity": 84}, {"time": 804, "pitch": 54, "duration": 8, "velocity": 43}, {"time": 810, "pitch": 59, "duration": 2, "velocity": 87}, {"time": 810, "pitch": 62, "duration": 6, "velocity": 89}, {"time": 810, "pitch": 66, "duration": 6, "velocity": 68}, {"time": 816, "pitch": 59, "duration": 2, "velocity": 94}, {"time": 822, "pitch": 48, "duration": 15, "velocity": 100}, {"time": 822, "pitch": 55, "duration": 4, "velocity": 67}, {"time": 822, "pitch": 60, "duration": 7, "velocity": 76}, {"time": 822, "pitch": 64, "duration": 7, "velocity": 84}, {"time": 828, "pitch": 55, "duration": 3, "velocity": 34}, {"time": 834, "pitch": 55, "duration": 2, "velocity": 97}, {"time": 834, "pitch": 60, "duration": 4, "velocity": 105}, {"time": 834, "pitch": 64, "duration": 6, "velocity": 97}, {"time": 840, "pitch": 55, "duration": 2, "velocity": 62}, {"time": 846, "pitch": 47, "duration": 18, "velocity": 100}, {"time": 846, "pitch": 57, "duration": 2, "velocity": 44}, {"time": 846, "pitch": 59, "duration": 7, "velocity": 44}, {"time": 846, "pitch": 63, "duration": 8, "velocity": 77}, {"time": 846, "pitch": 66, "duration": 8, "velocity": 82}, {"time": 852, "pitch": 54, "duration": 7, "velocity": 45}, {"time": 858, "pitch": 59, "duration": 4, "velocity": 100}, {"time": 858, "pitch": 63, "duration": 7, "velocity": 109}, {"time": 858, "pitch": 66, "duration": 7, "velocity": 102}, {"time": 861, "pitch": 54, "duration": 3, "velocity": 54}, {"time": 864, "pitch": 59, "duration": 3, "velocity": 89}, {"time": 870, "pitch": 45, "duration": 22, "velocity": 92}, {"time": 870, "pitch": 57, "duration": 7, "velocity": 89}, {"time": 870, "pitch": 60, "duration": 6, "velocity": 94}, {"time": 876, "pitch": 52, "duration": 9, "velocity": 73}, {"time": 882, "pitch": 57, "duration": 6, "velocity": 94}, {"time": 882, "pitch": 60, "duration": 6, "velocity": 105}, {"time": 882, "pitch": 64, "duration": 6, "velocity": 97}, {"time": 888, "pitch": 52, "duration": 5, "velocity": 52}, {"time": 891, "pitch": 57, "duration": 3, "velocity": 66}, {"time": 894, "pitch": 45, "duration": 14, "velocity": 94}, {"time": 894, "pitch": 57, "duration": 7, "velocity": 92}, {"time": 894, "pitch": 60, "duration": 6, "velocity": 89}, {"time": 900, "pitch": 52, "duration": 9, "velocity": 41}, {"time": 906, "pitch": 57, "duration": 5, "velocity": 102}, {"time": 906, "pitch": 60, "duration": 5, "velocity": 111}, {"time": 906, "pitch": 64, "duration": 6, "velocity": 97}, {"time": 912, "pitch": 45, "duration": 4, "velocity": 84}, {"time": 918, "pitch": 52, "duration": 19, "velocity": 92}, {"time": 918, "pitch": 59, "duration": 3, "velocity": 87}, {"time": 918, "pitch": 64, "duration": 6, "velocity": 87}, {"time": 924, "pitch": 59, "duration": 2, "velocity": 52}, {"time": 930, "pitch": 59, "duration": 3, "velocity": 102}, {"time": 930, "pitch": 64, "duration": 7, "velocity": 102}, {"time": 930, "pitch": 67, "duration": 6, "velocity": 97}, {"time": 936, "pitch": 59, "duration": 5, "velocity": 53}, {"time": 942, "pitch": 52, "duration": 17, "velocity": 89}, {"time": 942, "pitch": 59, "duration": 4, "velocity": 73}, {"time": 942, "pitch": 64, "duration": 8, "velocity": 78}, {"time": 942, "pitch": 67, "duration": 8, "velocity": 80}, {"time": 948, "pitch": 59, "duration": 3, "velocity": 53}, {"time": 954, "pitch": 59, "duration": 2, "velocity": 105}, {"time": 954, "pitch": 64, "duration": 7, "velocity": 97}, {"time": 954, "pitch": 67, "duration": 7, "velocity": 67}, {"time": 960, "pitch": 59, "duration": 2, "velocity": 108}, {"time": 966, "pitch": 41, "duration": 19, "velocity": 89}, {"time": 966, "pitch": 53, "duration": 6, "velocity": 47}, {"time": 966, "pitch": 57, "duration": 6, "velocity": 71}, {"time": 966, "pitch": 59, "duration": 1, "velocity": 58}, {"time": 966, "pitch": 60, "duration": 8, "velocity": 64}, {"time": 972, "pitch": 48, "duration": 8, "velocity": 52}, {"time": 978, "pitch": 53, "duration": 3, "velocity": 94}, {"time": 978, "pitch": 57, "duration": 3, "velocity": 105}, {"time": 978, "pitch": 60, "duration": 3, "velocity": 102}, {"time": 984, "pitch": 48, "duration": 6, "velocity": 20}, {"time": 990, "pitch": 41, "duration": 12, "velocity": 84}, {"time": 990, "pitch": 53, "duration": 9, "velocity": 80}, {"time": 990, "pitch": 57, "duration": 7, "velocity": 89}, {"time": 990, "pitch": 60, "duration": 7, "velocity": 89}, {"time": 996, "pitch": 48, "duration": 6, "velocity": 38}, {"time": 1002, "pitch": 53, "duration": 2, "velocity": 100}, {"time": 1002, "pitch": 57, "duration": 2, "velocity": 100}, {"time": 1002, "pitch": 60, "duration": 3, "velocity": 92}, {"time": 1014, "pitch": 47, "duration": 11, "velocity": 105}, {"time": 1014, "pitch": 59, "duration": 4, "velocity": 102}, {"time": 1014, "pitch": 63, "duration": 4, "velocity": 96}, {"time": 1014, "pitch": 66, "duration": 4, "velocity": 72}, {"time": 1018, "pitch": 59, "duration": 2, "velocity": 94}, {"time": 1018, "pitch": 63, "duration": 2, "velocity": 96}, {"time": 1018, "pitch": 66, "duration": 3, "velocity": 82}, {"time": 1022, "pitch": 59, "duration": 3, "velocity": 102}, {"time": 1022, "pitch": 63, "duration": 3, "velocity": 99}, {"time": 1022, "pitch": 66, "duration": 3, "velocity": 93}, {"time": 1026, "pitch": 47, "duration": 10, "velocity": 71}, {"time": 1026, "pitch": 51, "duration": 10, "velocity": 68}, {"time": 1026, "pitch": 54, "duration": 10, "velocity": 82}, {"time": 1026, "pitch": 59, "duration": 4, "velocity": 97}, {"time": 1026, "pitch": 63, "duration": 4, "velocity": 82}, {"time": 1026, "pitch": 66, "duration": 4, "velocity": 65}, {"time": 1026, "pitch": 69, "duration": 4, "velocity": 87}, {"time": 1030, "pitch": 59, "duration": 2, "velocity": 94}, {"time": 1030, "pitch": 63, "duration": 2, "velocity": 96}, {"time": 1030, "pitch": 66, "duration": 2, "velocity": 90}, {"time": 1030, "pitch": 69, "duration": 3, "velocity": 100}, {"time": 1034, "pitch": 59, "duration": 2, "velocity": 105}, {"time": 1034, "pitch": 63, "duration": 2, "velocity": 102}, {"time": 1034, "pitch": 66, "duration": 3, "velocity": 90}, {"time": 1034, "pitch": 69, "duration": 3, "velocity": 84}, {"time": 1038, "pitch": 47, "duration": 20, "velocity": 105}, {"time": 1038, "pitch": 59, "duration": 21, "velocity": 97}, {"time": 1038, "pitch": 63, "duration": 21, "velocity": 99}, {"time": 1038, "pitch": 66, "duration": 21, "velocity": 93}, {"time": 1038, "pitch": 71, "duration": 21, "velocity": 105}, {"time": 1062, "pitch": 52, "duration": 22, "velocity": 102}, {"time": 1062, "pitch": 59, "duration": 4, "velocity": 89}, {"time": 1062, "pitch": 64, "duration": 7, "velocity": 92}, {"time": 1068, "pitch": 59, "duration": 4, "velocity": 57}, {"time": 1074, "pitch": 59, "duration": 3, "velocity": 108}, {"time": 1074, "pitch": 64, "duration": 7, "velocity": 111}, {"time": 1074, "pitch": 67, "duration": 9, "velocity": 111}, {"time": 1080, "pitch": 59, "duration": 3, "velocity": 92}, {"time": 1086, "pitch": 48, "duration": 15, "velocity": 100}, {"time": 1086, "pitch": 60, "duration": 9, "velocity": 49}, {"time": 1086, "pitch": 64, "duration": 9, "velocity": 84}, {"time": 1092, "pitch": 55, "duration": 11, "velocity": 78}, {"time": 1098, "pitch": 60, "duration": 3, "velocity": 111}, {"time": 1098, "pitch": 64, "duration": 6, "velocity": 111}, {"time": 1098, "pitch": 67, "duration": 7, "velocity": 100}, {"time": 1104, "pitch": 60, "duration": 2, "velocity": 108}, {"time": 1110, "pitch": 50, "duration": 15, "velocity": 100}, {"time": 1110, "pitch": 57, "duration": 4, "velocity": 76}, {"time": 1110, "pitch": 62, "duration": 8, "velocity": 84}, {"time": 1110, "pitch": 66, "duration": 8, "velocity": 96}, {"time": 1116, "pitch": 57, "duration": 3, "velocity": 64}, {"time": 1122, "pitch": 57, "duration": 3, "velocity": 102}, {"time": 1122, "pitch": 62, "duration": 6, "velocity": 97}, {"time": 1122, "pitch": 66, "duration": 6, "velocity": 93}, {"time": 1128, "pitch": 57, "duration": 2, "velocity": 92}, {"time": 1134, "pitch": 43, "duration": 16, "velocity": 105}, {"time": 1134, "pitch": 55, "duration": 6, "velocity": 78}, {"time": 1134, "pitch": 59, "duration": 6, "velocity": 89}, {"time": 1134, "pitch": 62, "duration": 6, "velocity": 89}, {"time": 1140, "pitch": 50, "duration": 8, "velocity": 78}, {"time": 1146, "pitch": 55, "duration": 6, "velocity": 97}, {"time": 1146, "pitch": 59, "duration": 7, "velocity": 108}, {"time": 1146, "pitch": 62, "duration": 9, "velocity": 97}, {"time": 1152, "pitch": 50, "duration": 4, "velocity": 78}, {"time": 1155, "pitch": 55, "duration": 2, "velocity": 89}, {"time": 1158, "pitch": 45, "duration": 15, "velocity": 100}, {"time": 1158, "pitch": 57, "duration": 7, "velocity": 102}, {"time": 1158, "pitch": 60, "duration": 6, "velocity": 102}, {"time": 1164, "pitch": 52, "duration": 10, "velocity": 73}, {"time": 1170, "pitch": 57, "duration": 7, "velocity": 105}, {"time": 1170, "pitch": 60, "duration": 6, "velocity": 117}, {"time": 1170, "pitch": 64, "duration": 10, "velocity": 105}, {"time": 1176, "pitch": 45, "duration": 5, "velocity": 55}, {"time": 1176, "pitch": 52, "duration": 5, "velocity": 20}, {"time": 1182, "pitch": 52, "duration": 16, "velocity": 102}, {"time": 1182, "pitch": 59, "duration": 4, "velocity": 94}, {"time": 1182, "pitch": 64, "duration": 8, "velocity": 94}, {"time": 1188, "pitch": 59, "duration": 4, "velocity": 66}, {"time": 1194, "pitch": 59, "duration": 3, "velocity": 100}, {"time": 1194, "pitch": 64, "duration": 6, "velocity": 105}, {"time": 1194, "pitch": 67, "duration": 7, "velocity": 94}, {"time": 1200, "pitch": 59, "duration": 2, "velocity": 108}, {"time": 1206, "pitch": 42, "duration": 13, "velocity": 90}, {"time": 1206, "pitch": 54, "duration": 3, "velocity": 70}, {"time": 1206, "pitch": 58, "duration": 10, "velocity": 68}, {"time": 1206, "pitch": 61, "duration": 9, "velocity": 65}, {"time": 1212, "pitch": 54, "duration": 5, "velocity": 87}, {"time": 1218, "pitch": 54, "duration": 3, "velocity": 105}, {"time": 1218, "pitch": 58, "duration": 6, "velocity": 112}, {"time": 1218, "pitch": 61, "duration": 7, "velocity": 96}, {"time": 1224, "pitch": 54, "duration": 1, "velocity": 44}, {"time": 1230, "pitch": 47, "duration": 23, "velocity": 100}, {"time": 1230, "pitch": 59, "duration": 6, "velocity": 97}, {"time": 1230, "pitch": 63, "duration": 6, "velocity": 90}, {"time": 1230, "pitch": 66, "duration": 6, "velocity": 96}, {"time": 1236, "pitch": 54, "duration": 7, "velocity": 70}, {"time": 1239, "pitch": 59, "duration": 2, "velocity": 89}, {"time": 1242, "pitch": 59, "duration": 4, "velocity": 114}, {"time": 1242, "pitch": 63, "duration": 7, "velocity": 112}, {"time": 1242, "pitch": 66, "duration": 7, "velocity": 109}, {"time": 1245, "pitch": 54, "duration": 7, "velocity": 99}, {"time": 1248, "pitch": 59, "duration": 5, "velocity": 108}, {"time": 1251, "pitch": 63, "duration": 2, "velocity": 90}, {"time": 1254, "pitch": 52, "duration": 22, "velocity": 102}, {"time": 1254, "pitch": 59, "duration": 4, "velocity": 89}, {"time": 1254, "pitch": 64, "duration": 7, "velocity": 92}, {"time": 1260, "pitch": 59, "duration": 4, "velocity": 57}, {"time": 1266, "pitch": 59, "duration": 3, "velocity": 108}, {"time": 1266, "pitch": 64, "duration": 7, "velocity": 111}, {"time": 1266, "pitch": 67, "duration": 9, "velocity": 111}, {"time": 1272, "pitch": 59, "duration": 3, "velocity": 92}, {"time": 1278, "pitch": 48, "duration": 15, "velocity": 100}, {"time": 1278, "pitch": 60, "duration": 9, "velocity": 49}, {"time": 1278, "pitch": 64, "duration": 9, "velocity": 84}, {"time": 1284, "pitch": 55, "duration": 11, "velocity": 78}, {"time": 1290, "pitch": 60, "duration": 3, "velocity": 111}, {"time": 1290, "pitch": 64, "duration": 6, "velocity": 111}, {"time": 1290, "pitch": 67, "duration": 7, "velocity": 100}, {"time": 1296, "pitch": 60, "duration": 2, "velocity": 108}, {"time": 1302, "pitch": 50, "duration": 15, "velocity": 100}, {"time": 1302, "pitch": 57, "duration": 4, "velocity": 76}, {"time": 1302, "pitch": 62, "duration": 8, "velocity": 84}, {"time": 1302, "pitch": 66, "duration": 8, "velocity": 96}, {"time": 1308, "pitch": 57, "duration": 3, "velocity": 64}, {"time": 1314, "pitch": 57, "duration": 3, "velocity": 102}, {"time": 1314, "pitch": 62, "duration": 6, "velocity": 97}, {"time": 1314, "pitch": 66, "duration": 6, "velocity": 93}, {"time": 1320, "pitch": 57, "duration": 2, "velocity": 92}, {"time": 1326, "pitch": 43, "duration": 16, "velocity": 105}, {"time": 1326, "pitch": 55, "duration": 6, "velocity": 78}, {"time": 1326, "pitch": 59, "duration": 6, "velocity": 89}, {"time": 1326, "pitch": 62, "duration": 6, "velocity": 89}, {"time": 1332, "pitch": 50, "duration": 8, "velocity": 78}, {"time": 1338, "pitch": 55, "duration": 6, "velocity": 97}, {"time": 1338, "pitch": 59, "duration": 7, "velocity": 108}, {"time": 1338, "pitch": 62, "duration": 9, "velocity": 97}, {"time": 1344, "pitch": 50, "duration": 4, "velocity": 78}, {"time": 1347, "pitch": 55, "duration": 2, "velocity": 89}, {"time": 1350, "pitch": 45, "duration": 15, "velocity": 100}, {"time": 1350, "pitch": 57, "duration": 7, "velocity": 102}, {"time": 1350, "pitch": 60, "duration": 6, "velocity": 102}, {"time": 1356, "pitch": 52, "duration": 10, "velocity": 73}, {"time": 1362, "pitch": 57, "duration": 7, "velocity": 105}, {"time": 1362, "pitch": 60, "duration": 6, "velocity": 117}, {"time": 1362, "pitch": 64, "duration": 10, "velocity": 105}, {"time": 1368, "pitch": 45, "duration": 5, "velocity": 55}, {"time": 1368, "pitch": 52, "duration": 5, "velocity": 20}, {"time": 1374, "pitch": 52, "duration": 7, "velocity": 108}, {"time": 1374, "pitch": 64, "duration": 5, "velocity": 97}, {"time": 1374, "pitch": 67, "duration": 6, "velocity": 105}, {"time": 1380, "pitch": 59, "duration": 2, "velocity": 111}, {"time": 1383, "pitch": 62, "duration": 2, "velocity": 105}, {"time": 1386, "pitch": 50, "duration": 8, "velocity": 105}, {"time": 1386, "pitch": 62, "duration": 6, "velocity": 100}, {"time": 1386, "pitch": 66, "duration": 9, "velocity": 99}, {"time": 1392, "pitch": 57, "duration": 3, "velocity": 84}, {"time": 1395, "pitch": 62, "duration": 2, "velocity": 82}, {"time": 1398, "pitch": 48, "duration": 16, "velocity": 100}, {"time": 1398, "pitch": 60, "duration": 9, "velocity": 102}, {"time": 1398, "pitch": 64, "duration": 8, "velocity": 105}, {"time": 1404, "pitch": 55, "duration": 12, "velocity": 67}, {"time": 1410, "pitch": 60, "duration": 5, "velocity": 108}, {"time": 1410, "pitch": 64, "duration": 5, "velocity": 108}, {"time": 1416, "pitch": 48, "duration": 2, "velocity": 94}, {"time": 1422, "pitch": 47, "duration": 21, "velocity": 102}, {"time": 1422, "pitch": 59, "duration": 13, "velocity": 100}, {"time": 1422, "pitch": 63, "duration": 16, "velocity": 93}, {"time": 1422, "pitch": 66, "duration": 19, "velocity": 96}, {"time": 1434, "pitch": 54, "duration": 6, "velocity": 82}, {"time": 1437, "pitch": 59, "duration": 5, "velocity": 94}, {"time": 1440, "pitch": 63, "duration": 2, "velocity": 93}, {"time": 1449, "pitch": 52, "duration": 21, "velocity": 102}, {"time": 1449, "pitch": 59, "duration": 21, "velocity": 82}, {"time": 1449, "pitch": 64, "duration": 21, "velocity": 105}, {"time": 1470, "pitch": 52, "duration": 18, "velocity": 52}, {"time": 1470, "pitch": 59, "duration": 18, "velocity": 71}, {"time": 1470, "pitch": 64, "duration": 18, "velocity": 71}, {"time": 1494, "pitch": 52, "duration": 17, "velocity": 102}, {"time": 1494, "pitch": 59, "duration": 9, "velocity": 92}, {"time": 1494, "pitch": 64, "duration": 8, "velocity": 89}, {"time": 1506, "pitch": 59, "duration": 3, "velocity": 94}, {"time": 1506, "pitch": 64, "duration": 6, "velocity": 108}, {"time": 1506, "pitch": 67, "duration": 8, "velocity": 97}, {"time": 1512, "pitch": 59, "duration": 2, "velocity": 100}, {"time": 1518, "pitch": 43, "duration": 22, "velocity": 94}, {"time": 1518, "pitch": 55, "duration": 7, "velocity": 76}, {"time": 1518, "pitch": 59, "duration": 5, "velocity": 71}, {"time": 1518, "pitch": 62, "duration": 7, "velocity": 84}, {"time": 1524, "pitch": 50, "duration": 13, "velocity": 55}, {"time": 1530, "pitch": 55, "duration": 6, "velocity": 102}, {"time": 1530, "pitch": 59, "duration": 6, "velocity": 114}, {"time": 1530, "pitch": 62, "duration": 7, "velocity": 102}, {"time": 1542, "pitch": 50, "duration": 21, "velocity": 97}, {"time": 1542, "pitch": 57, "duration": 9, "velocity": 84}, {"time": 1542, "pitch": 62, "duration": 8, "velocity": 92}, {"time": 1554, "pitch": 57, "duration": 3, "velocity": 94}, {"time": 1554, "pitch": 62, "duration": 7, "velocity": 100}, {"time": 1554, "pitch": 66, "duration": 9, "velocity": 85}, {"time": 1560, "pitch": 57, "duration": 2, "velocity": 89}, {"time": 1566, "pitch": 48, "duration": 6, "velocity": 100}, {"time": 1566, "pitch": 60, "duration": 6, "velocity": 94}, {"time": 1566, "pitch": 64, "duration": 6, "velocity": 100}, {"time": 1578, "pitch": 47, "duration": 7, "velocity": 97}, {"time": 1578, "pitch": 59, "duration": 6, "velocity": 94}, {"time": 1578, "pitch": 62, "duration": 7, "velocity": 105}, {"time": 1590, "pitch": 45, "duration": 15, "velocity": 94}, {"time": 1590, "pitch": 57, "duration": 8, "velocity": 89}, {"time": 1590, "pitch": 60, "duration": 7, "velocity": 94}, {"time": 1596, "pitch": 52, "duration": 9, "velocity": 64}, {"time": 1602, "pitch": 57, "duration": 5, "velocity": 102}, {"time": 1602, "pitch": 60, "duration": 5, "velocity": 114}, {"time": 1602, "pitch": 64, "duration": 6, "velocity": 100}, {"time": 1608, "pitch": 45, "duration": 4, "velocity": 87}, {"time": 1614, "pitch": 47, "duration": 15, "velocity": 69}, {"time": 1614, "pitch": 59, "duration": 8, "velocity": 87}, {"time": 1614, "pitch": 62, "duration": 8, "velocity": 84}, {"time": 1620, "pitch": 54, "duration": 7, "velocity": 65}, {"time": 1626, "pitch": 59, "duration": 6, "velocity": 89}, {"time": 1626, "pitch": 62, "duration": 7, "velocity": 97}, {"time": 1626, "pitch": 66, "duration": 9, "velocity": 99}, {"time": 1632, "pitch": 47, "duration": 5, "velocity": 89}, {"time": 1638, "pitch": 48, "duration": 15, "velocity": 92}, {"time": 1638, "pitch": 60, "duration": 10, "velocity": 87}, {"time": 1638, "pitch": 64, "duration": 10, "velocity": 92}, {"time": 1644, "pitch": 55, "duration": 9, "velocity": 37}, {"time": 1650, "pitch": 60, "duration": 12, "velocity": 105}, {"time": 1650, "pitch": 64, "duration": 13, "velocity": 114}, {"time": 1656, "pitch": 48, "duration": 5, "velocity": 87}, {"time": 1665, "pitch": 50, "duration": 14, "velocity": 53}, {"time": 1665, "pitch": 57, "duration": 11, "velocity": 78}, {"time": 1665, "pitch": 62, "duration": 8, "velocity": 80}, {"time": 1665, "pitch": 66, "duration": 8, "velocity": 96}, {"time": 1674, "pitch": 62, "duration": 4, "velocity": 92}, {"time": 1674, "pitch": 66, "duration": 7, "velocity": 63}, {"time": 1674, "pitch": 69, "duration": 7, "velocity": 94}, {"time": 1677, "pitch": 57, "duration": 3, "velocity": 67}, {"time": 1680, "pitch": 62, "duration": 5, "velocity": 78}, {"time": 1683, "pitch": 66, "duration": 1, "velocity": 30}, {"time": 1689, "pitch": 52, "duration": 11, "velocity": 114}, {"time": 1689, "pitch": 64, "duration": 12, "velocity": 102}, {"time": 1689, "pitch": 67, "duration": 12, "velocity": 117}, {"time": 1701, "pitch": 54, "duration": 6, "velocity": 116}, {"time": 1701, "pitch": 66, "duration": 6, "velocity": 54}, {"time": 1707, "pitch": 55, "duration": 2, "velocity": 82}, {"time": 1707, "pitch": 67, "duration": 3, "velocity": 94}, {"time": 1710, "pitch": 48, "duration": 17, "velocity": 111}, {"time": 1710, "pitch": 60, "duration": 7, "velocity": 94}, {"time": 1710, "pitch": 64, "duration": 10, "velocity": 89}, {"time": 1716, "pitch": 55, "duration": 10, "velocity": 82}, {"time": 1719, "pitch": 60, "duration": 2, "velocity": 52}, {"time": 1722, "pitch": 60, "duration": 11, "velocity": 117}, {"time": 1722, "pitch": 64, "duration": 11, "velocity": 111}, {"time": 1722, "pitch": 67, "duration": 11, "velocity": 105}, {"time": 1728, "pitch": 48, "duration": 5, "velocity": 78}, {"time": 1728, "pitch": 55, "duration": 5, "velocity": 53}, {"time": 1734, "pitch": 50, "duration": 10, "velocity": 92}, {"time": 1734, "pitch": 57, "duration": 11, "velocity": 89}, {"time": 1734, "pitch": 62, "duration": 4, "velocity": 78}, {"time": 1734, "pitch": 66, "duration": 7, "velocity": 77}, {"time": 1740, "pitch": 62, "duration": 4, "velocity": 71}, {"time": 1746, "pitch": 50, "duration": 5, "velocity": 102}, {"time": 1746, "pitch": 57, "duration": 5, "velocity": 105}, {"time": 1746, "pitch": 62, "duration": 3, "velocity": 97}, {"time": 1746, "pitch": 66, "duration": 7, "velocity": 99}, {"time": 1746, "pitch": 69, "duration": 8, "velocity": 94}, {"time": 1752, "pitch": 62, "duration": 2, "velocity": 92}, {"time": 1758, "pitch": 45, "duration": 16, "velocity": 108}, {"time": 1758, "pitch": 57, "duration": 7, "velocity": 94}, {"time": 1758, "pitch": 61, "duration": 7, "velocity": 85}, {"time": 1758, "pitch": 64, "duration": 9, "velocity": 89}, {"time": 1764, "pitch": 52, "duration": 10, "velocity": 89}, {"time": 1767, "pitch": 57, "duration": 2, "velocity": 84}, {"time": 1770, "pitch": 57, "duration": 7, "velocity": 108}, {"time": 1770, "pitch": 61, "duration": 7, "velocity": 105}, {"time": 1770, "pitch": 64, "duration": 8, "velocity": 102}, {"time": 1776, "pitch": 45, "duration": 5, "velocity": 102}, {"time": 1782, "pitch": 52, "duration": 13, "velocity": 111}, {"time": 1782, "pitch": 59, "duration": 3, "velocity": 100}, {"time": 1782, "pitch": 64, "duration": 8, "velocity": 100}, {"time": 1788, "pitch": 59, "duration": 5, "velocity": 89}, {"time": 1794, "pitch": 59, "duration": 2, "velocity": 97}, {"time": 1794, "pitch": 64, "duration": 2, "velocity": 105}, {"time": 1794, "pitch": 67, "duration": 2, "velocity": 100}, {"time": 1797, "pitch": 50, "duration": 8, "velocity": 120}, {"time": 1797, "pitch": 57, "duration": 8, "velocity": 108}, {"time": 1797, "pitch": 62, "duration": 8, "velocity": 87}, {"time": 1806, "pitch": 48, "duration": 14, "velocity": 111}, {"time": 1806, "pitch": 55, "duration": 4, "velocity": 100}, {"time": 1806, "pitch": 60, "duration": 7, "velocity": 108}, {"time": 1812, "pitch": 55, "duration": 3, "velocity": 73}, {"time": 1818, "pitch": 55, "duration": 3, "velocity": 102}, {"time": 1818, "pitch": 60, "duration": 4, "velocity": 114}, {"time": 1818, "pitch": 64, "duration": 4, "velocity": 108}, {"time": 1821, "pitch": 48, "duration": 3, "velocity": 92}, {"time": 1824, "pitch": 55, "duration": 4, "velocity": 89}, {"time": 1827, "pitch": 60, "duration": 2, "velocity": 78}, {"time": 1830, "pitch": 47, "duration": 15, "velocity": 100}, {"time": 1830, "pitch": 59, "duration": 4, "velocity": 92}, {"time": 1830, "pitch": 62, "duration": 4, "velocity": 94}, {"time": 1836, "pitch": 54, "duration": 8, "velocity": 72}, {"time": 1842, "pitch": 59, "duration": 5, "velocity": 111}, {"time": 1842, "pitch": 62, "duration": 6, "velocity": 111}, {"time": 1842, "pitch": 66, "duration": 7, "velocity": 109}, {"time": 1848, "pitch": 47, "duration": 2, "velocity": 66}, {"time": 1854, "pitch": 45, "duration": 2, "velocity": 97}, {"time": 1854, "pitch": 52, "duration": 3, "velocity": 89}, {"time": 1854, "pitch": 57, "duration": 2, "velocity": 100}, {"time": 1854, "pitch": 60, "duration": 2, "velocity": 102}, {"time": 1854, "pitch": 64, "duration": 2, "velocity": 102}, {"time": 1860, "pitch": 45, "duration": 2, "velocity": 89}, {"time": 1860, "pitch": 52, "duration": 2, "velocity": 82}, {"time": 1860, "pitch": 57, "duration": 2, "velocity": 94}, {"time": 1860, "pitch": 60, "duration": 2, "velocity": 94}, {"time": 1860, "pitch": 64, "duration": 2, "velocity": 92}, {"time": 1866, "pitch": 52, "duration": 3, "velocity": 100}, {"time": 1866, "pitch": 60, "duration": 3, "velocity": 108}, {"time": 1866, "pitch": 45, "duration": 3, "velocity": 108}, {"time": 1866, "pitch": 64, "duration": 3, "velocity": 100}, {"time": 1866, "pitch": 57, "duration": 3, "velocity": 97}, {"time": 1871, "pitch": 45, "duration": 2, "velocity": 111}, {"time": 1871, "pitch": 64, "duration": 3, "velocity": 100}, {"time": 1871, "pitch": 57, "duration": 3, "velocity": 105}, {"time": 1875, "pitch": 45, "duration": 2, "velocity": 102}, {"time": 1875, "pitch": 64, "duration": 2, "velocity": 92}, {"time": 1875, "pitch": 57, "duration": 2, "velocity": 100}, {"time": 1878, "pitch": 47, "duration": 24, "velocity": 108}, {"time": 1878, "pitch": 59, "duration": 14, "velocity": 100}, {"time": 1890, "pitch": 54, "duration": 3, "velocity": 50}, {"time": 1890, "pitch": 63, "duration": 10, "velocity": 90}, {"time": 1890, "pitch": 66, "duration": 11, "velocity": 79}, {"time": 1890, "pitch": 71, "duration": 10, "velocity": 100}, {"time": 1893, "pitch": 51, "duration": 4, "velocity": 96}, {"time": 1896, "pitch": 54, "duration": 5, "velocity": 93}, {"time": 1899, "pitch": 59, "duration": 3, "velocity": 105}, {"time": 1902, "pitch": 52, "duration": 22, "velocity": 102}, {"time": 1902, "pitch": 59, "duration": 4, "velocity": 89}, {"time": 1902, "pitch": 64, "duration": 7, "velocity": 92}, {"time": 1908, "pitch": 59, "duration": 4, "velocity": 57}, {"time": 1914, "pitch": 59, "duration": 3, "velocity": 108}, {"time": 1914, "pitch": 64, "duration": 7, "velocity": 111}, {"time": 1914, "pitch": 67, "duration": 9, "velocity": 111}, {"time": 1920, "pitch": 59, "duration": 3, "velocity": 92}, {"time": 1926, "pitch": 48, "duration": 15, "velocity": 100}, {"time": 1926, "pitch": 60, "duration": 9, "velocity": 49}, {"time": 1926, "pitch": 64, "duration": 9, "velocity": 84}, {"time": 1932, "pitch": 55, "duration": 11, "velocity": 78}, {"time": 1938, "pitch": 60, "duration": 3, "velocity": 111}, {"time": 1938, "pitch": 64, "duration": 6, "velocity": 111}, {"time": 1938, "pitch": 67, "duration": 7, "velocity": 100}, {"time": 1944, "pitch": 60, "duration": 2, "velocity": 108}, {"time": 1950, "pitch": 50, "duration": 15, "velocity": 100}, {"time": 1950, "pitch": 57, "duration": 4, "velocity": 76}, {"time": 1950, "pitch": 62, "duration": 8, "velocity": 84}, {"time": 1950, "pitch": 66, "duration": 8, "velocity": 96}, {"time": 1956, "pitch": 57, "duration": 3, "velocity": 64}, {"time": 1962, "pitch": 57, "duration": 3, "velocity": 102}, {"time": 1962, "pitch": 62, "duration": 6, "velocity": 97}, {"time": 1962, "pitch": 66, "duration": 6, "velocity": 93}, {"time": 1968, "pitch": 57, "duration": 2, "velocity": 92}, {"time": 1974, "pitch": 43, "duration": 16, "velocity": 105}, {"time": 1974, "pitch": 55, "duration": 6, "velocity": 78}, {"time": 1974, "pitch": 59, "duration": 6, "velocity": 89}, {"time": 1974, "pitch": 62, "duration": 6, "velocity": 89}, {"time": 1980, "pitch": 50, "duration": 8, "velocity": 78}, {"time": 1986, "pitch": 55, "duration": 6, "velocity": 97}, {"time": 1986, "pitch": 59, "duration": 7, "velocity": 108}, {"time": 1986, "pitch": 62, "duration": 9, "velocity": 97}, {"time": 1992, "pitch": 50, "duration": 4, "velocity": 78}, {"time": 1995, "pitch": 55, "duration": 2, "velocity": 89}, {"time": 1998, "pitch": 45, "duration": 15, "velocity": 100}, {"time": 1998, "pitch": 57, "duration": 7, "velocity": 102}, {"time": 1998, "pitch": 60, "duration": 6, "velocity": 102}, {"time": 2004, "pitch": 52, "duration": 10, "velocity": 73}, {"time": 2010, "pitch": 57, "duration": 7, "velocity": 105}, {"time": 2010, "pitch": 60, "duration": 6, "velocity": 117}, {"time": 2010, "pitch": 64, "duration": 10, "velocity": 105}, {"time": 2016, "pitch": 45, "duration": 5, "velocity": 55}, {"time": 2016, "pitch": 52, "duration": 5, "velocity": 20}, {"time": 2022, "pitch": 52, "duration": 16, "velocity": 102}, {"time": 2022, "pitch": 59, "duration": 4, "velocity": 94}, {"time": 2022, "pitch": 64, "duration": 8, "velocity": 94}, {"time": 2028, "pitch": 59, "duration": 4, "velocity": 66}, {"time": 2034, "pitch": 59, "duration": 3, "velocity": 100}, {"time": 2034, "pitch": 64, "duration": 6, "velocity": 105}, {"time": 2034, "pitch": 67, "duration": 7, "velocity": 94}, {"time": 2040, "pitch": 59, "duration": 2, "velocity": 108}, {"time": 2046, "pitch": 42, "duration": 13, "velocity": 90}, {"time": 2046, "pitch": 54, "duration": 3, "velocity": 70}, {"time": 2046, "pitch": 58, "duration": 10, "velocity": 68}, {"time": 2046, "pitch": 61, "duration": 9, "velocity": 65}, {"time": 2052, "pitch": 54, "duration": 5, "velocity": 87}, {"time": 2058, "pitch": 54, "duration": 3, "velocity": 105}, {"time": 2058, "pitch": 58, "duration": 6, "velocity": 112}, {"time": 2058, "pitch": 61, "duration": 7, "velocity": 96}, {"time": 2064, "pitch": 54, "duration": 1, "velocity": 44}, {"time": 2070, "pitch": 47, "duration": 23, "velocity": 100}, {"time": 2070, "pitch": 59, "duration": 6, "velocity": 97}, {"time": 2070, "pitch": 63, "duration": 6, "velocity": 90}, {"time": 2070, "pitch": 66, "duration": 6, "velocity": 96}, {"time": 2076, "pitch": 54, "duration": 7, "velocity": 70}, {"time": 2079, "pitch": 59, "duration": 2, "velocity": 89}, {"time": 2082, "pitch": 59, "duration": 4, "velocity": 114}, {"time": 2082, "pitch": 63, "duration": 7, "velocity": 112}, {"time": 2082, "pitch": 66, "duration": 7, "velocity": 109}, {"time": 2085, "pitch": 54, "duration": 7, "velocity": 99}, {"time": 2088, "pitch": 59, "duration": 5, "velocity": 108}, {"time": 2091, "pitch": 63, "duration": 2, "velocity": 90}, {"time": 2094, "pitch": 52, "duration": 22, "velocity": 102}, {"time": 2094, "pitch": 59, "duration": 4, "velocity": 89}, {"time": 2094, "pitch": 64, "duration": 7, "velocity": 92}, {"time": 2100, "pitch": 59, "duration": 4, "velocity": 57}, {"time": 2106, "pitch": 59, "duration": 3, "velocity": 108}, {"time": 2106, "pitch": 64, "duration": 7, "velocity": 111}, {"time": 2106, "pitch": 67, "duration": 9, "velocity": 111}, {"time": 2112, "pitch": 59, "duration": 3, "velocity": 92}, {"time": 2118, "pitch": 48, "duration": 15, "velocity": 100}, {"time": 2118, "pitch": 60, "duration": 9, "velocity": 49}, {"time": 2118, "pitch": 64, "duration": 9, "velocity": 84}, {"time": 2124, "pitch": 55, "duration": 11, "velocity": 78}, {"time": 2130, "pitch": 60, "duration": 3, "velocity": 111}, {"time": 2130, "pitch": 64, "duration": 6, "velocity": 111}, {"time": 2130, "pitch": 67, "duration": 7, "velocity": 100}, {"time": 2136, "pitch": 60, "duration": 2, "velocity": 108}, {"time": 2142, "pitch": 50, "duration": 15, "velocity": 100}, {"time": 2142, "pitch": 57, "duration": 4, "velocity": 76}, {"time": 2142, "pitch": 62, "duration": 8, "velocity": 84}, {"time": 2142, "pitch": 66, "duration": 8, "velocity": 96}, {"time": 2148, "pitch": 57, "duration": 3, "velocity": 64}, {"time": 2154, "pitch": 57, "duration": 3, "velocity": 102}, {"time": 2154, "pitch": 62, "duration": 6, "velocity": 97}, {"time": 2154, "pitch": 66, "duration": 6, "velocity": 93}, {"time": 2160, "pitch": 57, "duration": 2, "velocity": 92}, {"time": 2166, "pitch": 43, "duration": 16, "velocity": 105}, {"time": 2166, "pitch": 55, "duration": 6, "velocity": 78}, {"time": 2166, "pitch": 59, "duration": 6, "velocity": 89}, {"time": 2166, "pitch": 62, "duration": 6, "velocity": 89}, {"time": 2172, "pitch": 50, "duration": 8, "velocity": 78}, {"time": 2178, "pitch": 55, "duration": 6, "velocity": 97}, {"time": 2178, "pitch": 59, "duration": 7, "velocity": 108}, {"time": 2178, "pitch": 62, "duration": 9, "velocity": 97}, {"time": 2184, "pitch": 50, "duration": 4, "velocity": 78}, {"time": 2187, "pitch": 55, "duration": 2, "velocity": 89}, {"time": 2190, "pitch": 45, "duration": 15, "velocity": 100}, {"time": 2190, "pitch": 57, "duration": 7, "velocity": 102}, {"time": 2190, "pitch": 60, "duration": 6, "velocity": 102}, {"time": 2196, "pitch": 52, "duration": 10, "velocity": 73}, {"time": 2202, "pitch": 57, "duration": 7, "velocity": 105}, {"time": 2202, "pitch": 60, "duration": 6, "velocity": 117}, {"time": 2202, "pitch": 64, "duration": 10, "velocity": 105}, {"time": 2208, "pitch": 45, "duration": 5, "velocity": 55}, {"time": 2208, "pitch": 52, "duration": 5, "velocity": 20}, {"time": 2214, "pitch": 52, "duration": 7, "velocity": 108}, {"time": 2214, "pitch": 64, "duration": 5, "velocity": 97}, {"time": 2214, "pitch": 67, "duration": 6, "velocity": 105}, {"time": 2220, "pitch": 59, "duration": 2, "velocity": 111}, {"time": 2223, "pitch": 62, "duration": 2, "velocity": 105}, {"time": 2226, "pitch": 50, "duration": 8, "velocity": 105}, {"time": 2226, "pitch": 62, "duration": 6, "velocity": 100}, {"time": 2226, "pitch": 66, "duration": 9, "velocity": 99}, {"time": 2232, "pitch": 57, "duration": 3, "velocity": 84}, {"time": 2235, "pitch": 62, "duration": 2, "velocity": 82}, {"time": 2238, "pitch": 48, "duration": 16, "velocity": 100}, {"time": 2238, "pitch": 60, "duration": 9, "velocity": 102}, {"time": 2238, "pitch": 64, "duration": 8, "velocity": 105}, {"time": 2244, "pitch": 55, "duration": 12, "velocity": 67}, {"time": 2250, "pitch": 60, "duration": 5, "velocity": 108}, {"time": 2250, "pitch": 64, "duration": 5, "velocity": 108}, {"time": 2256, "pitch": 48, "duration": 2, "velocity": 94}, {"time": 2262, "pitch": 47, "duration": 21, "velocity": 102}, {"time": 2262, "pitch": 59, "duration": 13, "velocity": 100}, {"time": 2262, "pitch": 63, "duration": 16, "velocity": 93}, {"time": 2262, "pitch": 66, "duration": 19, "velocity": 96}, {"time": 2274, "pitch": 54, "duration": 6, "velocity": 82}, {"time": 2277, "pitch": 59, "duration": 5, "velocity": 94}, {"time": 2280, "pitch": 63, "duration": 2, "velocity": 93}, {"time": 2289, "pitch": 52, "duration": 21, "velocity": 102}, {"time": 2289, "pitch": 59, "duration": 21, "velocity": 82}, {"time": 2289, "pitch": 64, "duration": 21, "velocity": 105}, {"time": 2310, "pitch": 52, "duration": 18, "velocity": 52}, {"time": 2310, "pitch": 59, "duration": 18, "velocity": 71}, {"time": 2310, "pitch": 64, "duration": 18, "velocity": 71}, {"time": 2334, "pitch": 52, "duration": 22, "velocity": 102}, {"time": 2334, "pitch": 59, "duration": 4, "velocity": 89}, {"time": 2334, "pitch": 64, "duration": 7, "velocity": 92}, {"time": 2340, "pitch": 59, "duration": 4, "velocity": 57}, {"time": 2346, "pitch": 59, "duration": 3, "velocity": 108}, {"time": 2346, "pitch": 64, "duration": 7, "velocity": 111}, {"time": 2346, "pitch": 67, "duration": 9, "velocity": 111}, {"time": 2352, "pitch": 59, "duration": 3, "velocity": 92}, {"time": 2358, "pitch": 48, "duration": 15, "velocity": 100}, {"time": 2358, "pitch": 60, "duration": 9, "velocity": 49}, {"time": 2358, "pitch": 64, "duration": 9, "velocity": 84}, {"time": 2364, "pitch": 55, "duration": 11, "velocity": 78}, {"time": 2370, "pitch": 60, "duration": 3, "velocity": 111}, {"time": 2370, "pitch": 64, "duration": 6, "velocity": 111}, {"time": 2370, "pitch": 67, "duration": 7, "velocity": 100}, {"time": 2376, "pitch": 60, "duration": 2, "velocity": 108}, {"time": 2382, "pitch": 50, "duration": 15, "velocity": 100}, {"time": 2382, "pitch": 57, "duration": 4, "velocity": 76}, {"time": 2382, "pitch": 62, "duration": 8, "velocity": 84}, {"time": 2382, "pitch": 66, "duration": 8, "velocity": 96}, {"time": 2388, "pitch": 57, "duration": 3, "velocity": 64}, {"time": 2394, "pitch": 57, "duration": 3, "velocity": 102}, {"time": 2394, "pitch": 62, "duration": 6, "velocity": 97}, {"time": 2394, "pitch": 66, "duration": 6, "velocity": 93}, {"time": 2400, "pitch": 57, "duration": 2, "velocity": 92}, {"time": 2406, "pitch": 43, "duration": 16, "velocity": 105}, {"time": 2406, "pitch": 55, "duration": 6, "velocity": 78}, {"time": 2406, "pitch": 59, "duration": 6, "velocity": 89}, {"time": 2406, "pitch": 62, "duration": 6, "velocity": 89}, {"time": 2412, "pitch": 50, "duration": 8, "velocity": 78}, {"time": 2418, "pitch": 55, "duration": 6, "velocity": 97}, {"time": 2418, "pitch": 59, "duration": 7, "velocity": 108}, {"time": 2418, "pitch": 62, "duration": 9, "velocity": 97}, {"time": 2424, "pitch": 50, "duration": 4, "velocity": 78}, {"time": 2427, "pitch": 55, "duration": 2, "velocity": 89}, {"time": 2430, "pitch": 45, "duration": 15, "velocity": 100}, {"time": 2430, "pitch": 57, "duration": 7, "velocity": 102}, {"time": 2430, "pitch": 60, "duration": 6, "velocity": 102}, {"time": 2436, "pitch": 52, "duration": 10, "velocity": 73}, {"time": 2442, "pitch": 57, "duration": 7, "velocity": 105}, {"time": 2442, "pitch": 60, "duration": 6, "velocity": 117}, {"time": 2442, "pitch": 64, "duration": 10, "velocity": 105}, {"time": 2448, "pitch": 45, "duration": 5, "velocity": 55}, {"time": 2448, "pitch": 52, "duration": 5, "velocity": 20}, {"time": 2454, "pitch": 52, "duration": 7, "velocity": 108}, {"time": 2454, "pitch": 64, "duration": 5, "velocity": 97}, {"time": 2454, "pitch": 67, "duration": 6, "velocity": 105}, {"time": 2460, "pitch": 59, "duration": 2, "velocity": 111}, {"time": 2463, "pitch": 62, "duration": 2, "velocity": 105}, {"time": 2466, "pitch": 50, "duration": 8, "velocity": 105}, {"time": 2466, "pitch": 62, "duration": 6, "velocity": 100}, {"time": 2466, "pitch": 66, "duration": 9, "velocity": 99}, {"time": 2472, "pitch": 57, "duration": 3, "velocity": 84}, {"time": 2475, "pitch": 62, "duration": 2, "velocity": 82}, {"time": 2478, "pitch": 48, "duration": 16, "velocity": 100}, {"time": 2478, "pitch": 60, "duration": 9, "velocity": 102}, {"time": 2478, "pitch": 64, "duration": 8, "velocity": 105}, {"time": 2484, "pitch": 55, "duration": 12, "velocity": 67}, {"time": 2490, "pitch": 60, "duration": 5, "velocity": 108}, {"time": 2490, "pitch": 64, "duration": 5, "velocity": 108}, {"time": 2496, "pitch": 48, "duration": 2, "velocity": 94}, {"time": 2502, "pitch": 47, "duration": 21, "velocity": 102}, {"time": 2502, "pitch": 59, "duration": 13, "velocity": 100}, {"time": 2502, "pitch": 63, "duration": 16, "velocity": 93}, {"time": 2502, "pitch": 66, "duration": 19, "velocity": 96}, {"time": 2514, "pitch": 54, "duration": 6, "velocity": 82}, {"time": 2517, "pitch": 59, "duration": 5, "velocity": 94}, {"time": 2520, "pitch": 63, "duration": 2, "velocity": 93}, {"time": 2526, "pitch": 52, "duration": 58, "velocity": 94}, {"time": 2526, "pitch": 64, "duration": 11, "velocity": 87}, {"time": 2527, "pitch": 59, "duration": 4, "velocity": 69}, {"time": 2532, "pitch": 59, "duration": 8, "velocity": 60}, {"time": 2539, "pitch": 64, "duration": 8, "velocity": 84}, {"time": 2539, "pitch": 67, "duration": 7, "velocity": 80}, {"time": 2550, "pitch": 64, "duration": 33, "velocity": 66}, {"time": 2550, "pitch": 59, "duration": 33, "velocity": 66}], "annotations": [{"time": 104, "annotation": {"number": 64, "value": 127}, "group": "control_change"}, {"time": 126, "annotation": {"number": 64, "value": 0}, "group": "control_change"}, {"time": 130, "annotation": {"number": 64, "value": 127}, "group": "control_change"}, {"time": 150, "annotation": {"number": 64, "value": 0}, "group": "control_change"}, {"time": 154, "annotation": {"number": 64, "value": 127}, "group": "control_change"}, {"time": 175, "annotation": {"number": 64, "value": 127}, "group": "control_change"}, {"time": 185, "annotation": {"number": 64, "value": 0}, "group": "control_change"}, {"time": 187, "annotation": {"number": 64, "value": 127}, "group": "control_change"}, {"time": 197, "annotation": {"number": 64, "value": 0}, "group": "control_change"}, {"time": 203, "annotation": {"number": 64, "value": 127}, "group": "control_change"}, {"time": 222, "annotation": {"number": 64, "value": 0}, "group": "control_change"}, {"time": 225, "annotation": {"number": 64, "value": 127}, "group": "control_change"}, {"time": 245, "annotation": {"number": 64, "value": 0}, "group": "control_change"}, {"time": 247, "annotation": {"number": 64, "value": 127}, "group": "control_change"}, {"time": 271, "annotation": {"number": 64, "value": 0}, "group": "control_change"}, {"time": 279, "annotation": {"number": 64, "value": 127}, "group": "control_change"}, {"time": 294, "annotation": {"number": 64, "value": 0}, "group": "control_change"}, {"time": 312, "annotation": {"number": 64, "value": 127}, "group": "control_change"}, {"time": 318, "annotation": {"number": 64, "value": 0}, "group": "control_change"}, {"time": 323, "annotation": {"number": 64, "value": 127}, "group": "control_change"}, {"time": 342, "annotation": {"number": 64, "value": 0}, "group": "control_change"}, {"time": 346, "annotation": {"number": 64, "value": 127}, "group": "control_change"}, {"time": 366, "annotation": {"number": 64, "value": 0}, "group": "control_change"}, {"time": 368, "annotation": {"number": 64, "value": 127}, "group": "control_change"}, {"time": 377, "annotation": {"number": 64, "value": 0}, "group": "control_change"}, {"time": 379, "annotation": {"number": 64, "value": 127}, "group": "control_change"}, {"time": 390, "annotation": {"number": 64, "value": 0}, "group": "control_change"}, {"time": 392, "annotation": {"number": 64, "value": 127}, "group": "control_change"}, {"time": 414, "annotation": {"number": 64, "value": 0}, "group": "control_change"}, {"time": 421, "annotation": {"number": 64, "value": 127}, "group": "control_change"}, {"time": 438, "annotation": {"number": 64, "value": 0}, "group": "control_change"}, {"time": 440, "annotation": {"number": 64, "value": 127}, "group": "control_change"}, {"time": 462, "annotation": {"number": 64, "value": 0}, "group": "control_change"}, {"time": 465, "annotation": {"number": 64, "value": 127}, "group": "control_change"}, {"time": 486, "annotation": {"number": 64, "value": 0}, "group": "control_change"}, {"time": 488, "annotation": {"number": 64, "value": 127}, "group": "control_change"}, {"time": 510, "annotation": {"number": 64, "value": 0}, "group": "control_change"}, {"time": 512, "annotation": {"number": 64, "value": 127}, "group": "control_change"}, {"time": 534, "annotation": {"number": 64, "value": 0}, "group": "control_change"}, {"time": 536, "annotation": {"number": 64, "value": 127}, "group": "control_change"}, {"time": 559, "annotation": {"number": 64, "value": 0}, "group": "control_change"}, {"time": 561, "annotation": {"number": 64, "value": 127}, "group": "control_change"}, {"time": 583, "annotation": {"number": 64, "value": 0}, "group": "control_change"}, {"time": 585, "annotation": {"number": 64, "value": 127}, "group": "control_change"}, {"time": 606, "annotation": {"number": 64, "value": 0}, "group": "control_change"}, {"time": 607, "annotation": {"number": 64, "value": 127}, "group": "control_change"}, {"time": 629, "annotation": {"number": 64, "value": 0}, "group": "control_change"}, {"time": 631, "annotation": {"number": 64, "value": 127}, "group": "control_change"}, {"time": 653, "annotation": {"number": 64, "value": 0}, "group": "control_change"}, {"time": 655, "annotation": {"number": 64, "value": 127}, "group": "control_change"}, {"time": 673, "annotation": {"number": 64, "value": 0}, "group": "control_change"}, {"time": 696, "annotation": {"number": 64, "value": 127}, "group": "control_change"}, {"time": 702, "annotation": {"number": 64, "value": 0}, "group": "control_change"}, {"time": 707, "annotation": {"number": 64, "value": 127}, "group": "control_change"}, {"time": 726, "annotation": {"number": 64, "value": 0}, "group": "control_change"}, {"time": 730, "annotation": {"number": 64, "value": 127}, "group": "control_change"}, {"time": 750, "annotation": {"number": 64, "value": 0}, "group": "control_change"}, {"time": 752, "annotation": {"number": 64, "value": 127}, "group": "control_change"}, {"time": 761, "annotation": {"number": 64, "value": 0}, "group": "control_change"}, {"time": 763, "annotation": {"number": 64, "value": 127}, "group": "control_change"}, {"time": 774, "annotation": {"number": 64, "value": 0}, "group": "control_change"}, {"time": 776, "annotation": {"number": 64, "value": 127}, "group": "control_change"}, {"time": 798, "annotation": {"number": 64, "value": 0}, "group": "control_change"}, {"time": 805, "annotation": {"number": 64, "value": 127}, "group": "control_change"}, {"time": 822, "annotation": {"number": 64, "value": 0}, "group": "control_change"}, {"time": 824, "annotation": {"number": 64, "value": 127}, "group": "control_change"}, {"time": 846, "annotation": {"number": 64, "value": 0}, "group": "control_change"}, {"time": 849, "annotation": {"number": 64, "value": 127}, "group": "control_change"}, {"time": 870, "annotation": {"number": 64, "value": 0}, "group": "control_change"}, {"time": 872, "annotation": {"number": 64, "value": 127}, "group": "control_change"}, {"time": 894, "annotation": {"number": 64, "value": 0}, "group": "control_change"}, {"time": 896, "annotation": {"number": 64, "value": 127}, "group": "control_change"}, {"time": 918, "annotation": {"number": 64, "value": 0}, "group": "control_change"}, {"time": 920, "annotation": {"number": 64, "value": 127}, "group": "control_change"}, {"time": 943, "annotation": {"number": 64, "value": 0}, "group": "control_change"}, {"time": 945, "annotation": {"number": 64, "value": 127}, "group": "control_change"}, {"time": 967, "annotation": {"number": 64, "value": 0}, "group": "control_change"}, {"time": 969, "annotation": {"number": 64, "value": 127}, "group": "control_change"}, {"time": 990, "annotation": {"number": 64, "value": 0}, "group": "control_change"}, {"time": 991, "annotation": {"number": 64, "value": 127}, "group": "control_change"}, {"time": 1013, "annotation": {"number": 64, "value": 0}, "group": "control_change"}, {"time": 1015, "annotation": {"number": 64, "value": 127}, "group": "control_change"}, {"time": 1018, "annotation": {"number": 64, "value": 0}, "group": "control_change"}, {"time": 1028, "annotation": {"number": 64, "value": 127}, "group": "control_change"}, {"time": 1037, "annotation": {"number": 64, "value": 0}, "group": "control_change"}, {"time": 1065, "annotation": {"number": 64, "value": 127}, "group": "control_change"}, {"time": 1087, "annotation": {"number": 64, "value": 0}, "group": "control_change"}, {"time": 1092, "annotation": {"number": 64, "value": 127}, "group": "control_change"}, {"time": 1110, "annotation": {"number": 64, "value": 0}, "group": "control_change"}, {"time": 1115, "annotation": {"number": 64, "value": 127}, "group": "control_change"}, {"time": 1133, "annotation": {"number": 64, "value": 0}, "group": "control_change"}, {"time": 1137, "annotation": {"number": 64, "value": 127}, "group": "control_change"}, {"time": 1157, "annotation": {"number": 64, "value": 0}, "group": "control_change"}, {"time": 1160, "annotation": {"number": 64, "value": 127}, "group": "control_change"}, {"time": 1182, "annotation": {"number": 64, "value": 0}, "group": "control_change"}, {"time": 1187, "annotation": {"number": 64, "value": 127}, "group": "control_change"}, {"time": 1206, "annotation": {"number": 64, "value": 0}, "group": "control_change"}, {"time": 1210, "annotation": {"number": 64, "value": 127}, "group": "control_change"}, {"time": 1229, "annotation": {"number": 64, "value": 0}, "group": "control_change"}, {"time": 1232, "annotation": {"number": 64, "value": 127}, "group": "control_change"}, {"time": 1252, "annotation": {"number": 64, "value": 0}, "group": "control_change"}, {"time": 1257, "annotation": {"number": 64, "value": 127}, "group": "control_change"}, {"time": 1279, "annotation": {"number": 64, "value": 0}, "group": "control_change"}, {"time": 1284, "annotation": {"number": 64, "value": 127}, "group": "control_change"}, {"time": 1302, "annotation": {"number": 64, "value": 0}, "group": "control_change"}, {"time": 1307, "annotation": {"number": 64, "value": 127}, "group": "control_change"}, {"time": 1325, "annotation": {"number": 64, "value": 0}, "group": "control_change"}, {"time": 1329, "annotation": {"number": 64, "value": 127}, "group": "control_change"}, {"time": 1349, "annotation": {"number": 64, "value": 0}, "group": "control_change"}, {"time": 1352, "annotation": {"number": 64, "value": 127}, "group": "control_change"}, {"time": 1374, "annotation": {"number": 64, "value": 0}, "group": "control_change"}, {"time": 1377, "annotation": {"number": 64, "value": 127}, "group": "control_change"}, {"time": 1386, "annotation": {"number": 64, "value": 0}, "group": "control_change"}, {"time": 1388, "annotation": {"number": 64, "value": 127}, "group": "control_change"}, {"time": 1398, "annotation": {"number": 64, "value": 0}, "group": "control_change"}, {"time": 1401, "annotation": {"number": 64, "value": 127}, "group": "control_change"}, {"time": 1421, "annotation": {"number": 64, "value": 0}, "group": "control_change"}, {"time": 1426, "annotation": {"number": 64, "value": 127}, "group": "control_change"}, {"time": 1446, "annotation": {"number": 64, "value": 0}, "group": "control_change"}, {"time": 1471, "annotation": {"number": 64, "value": 127}, "group": "control_change"}, {"time": 1492, "annotation": {"number": 64, "value": 0}, "group": "control_change"}, {"time": 1496, "annotation": {"number": 64, "value": 127}, "group": "control_change"}, {"time": 1518, "annotation": {"number": 64, "value": 0}, "group": "control_change"}, {"time": 1522, "annotation": {"number": 64, "value": 127}, "group": "control_change"}, {"time": 1542, "annotation": {"number": 64, "value": 0}, "group": "control_change"}, {"time": 1546, "annotation": {"number": 64, "value": 127}, "group": "control_change"}, {"time": 1567, "annotation": {"number": 64, "value": 127}, "group": "control_change"}, {"time": 1577, "annotation": {"number": 64, "value": 0}, "group": "control_change"}, {"time": 1579, "annotation": {"number": 64, "value": 127}, "group": "control_change"}, {"time": 1589, "annotation": {"number": 64, "value": 0}, "group": "control_change"}, {"time": 1595, "annotation": {"number": 64, "value": 127}, "group": "control_change"}, {"time": 1614, "annotation": {"number": 64, "value": 0}, "group": "control_change"}, {"time": 1617, "annotation": {"number": 64, "value": 127}, "group": "control_change"}, {"time": 1637, "annotation": {"number": 64, "value": 0}, "group": "control_change"}, {"time": 1639, "annotation": {"number": 64, "value": 127}, "group": "control_change"}, {"time": 1663, "annotation": {"number": 64, "value": 0}, "group": "control_change"}, {"time": 1671, "annotation": {"number": 64, "value": 127}, "group": "control_change"}, {"time": 1686, "annotation": {"number": 64, "value": 0}, "group": "control_change"}, {"time": 1716, "annotation": {"number": 64, "value": 127}, "group": "control_change"}, {"time": 1733, "annotation": {"number": 64, "value": 0}, "group": "control_change"}, {"time": 1736, "annotation": {"number": 64, "value": 127}, "group": "control_change"}, {"time": 1759, "annotation": {"number": 64, "value": 0}, "group": "control_change"}, {"time": 1764, "annotation": {"number": 64, "value": 127}, "group": "control_change"}, {"time": 1782, "annotation": {"number": 64, "value": 0}, "group": "control_change"}, {"time": 1784, "annotation": {"number": 64, "value": 127}, "group": "control_change"}, {"time": 1797, "annotation": {"number": 64, "value": 0}, "group": "control_change"}, {"time": 1808, "annotation": {"number": 64, "value": 127}, "group": "control_change"}, {"time": 1830, "annotation": {"number": 64, "value": 0}, "group": "control_change"}, {"time": 1832, "annotation": {"number": 64, "value": 127}, "group": "control_change"}, {"time": 1853, "annotation": {"number": 64, "value": 0}, "group": "control_change"}, {"time": 1890, "annotation": {"number": 64, "value": 127}, "group": "control_change"}, {"time": 1901, "annotation": {"number": 64, "value": 0}, "group": "control_change"}, {"time": 1905, "annotation": {"number": 64, "value": 127}, "group": "control_change"}, {"time": 1927, "annotation": {"number": 64, "value": 0}, "group": "control_change"}, {"time": 1932, "annotation": {"number": 64, "value": 127}, "group": "control_change"}, {"time": 1950, "annotation": {"number": 64, "value": 0}, "group": "control_change"}, {"time": 1955, "annotation": {"number": 64, "value": 127}, "group": "control_change"}, {"time": 1973, "annotation": {"number": 64, "value": 0}, "group": "control_change"}, {"time": 1977, "annotation": {"number": 64, "value": 127}, "group": "control_change"}, {"time": 1997, "annotation": {"number": 64, "value": 0}, "group": "control_change"}, {"time": 2000, "annotation": {"number": 64, "value": 127}, "group": "control_change"}, {"time": 2022, "annotation": {"number": 64, "value": 0}, "group": "control_change"}, {"time": 2027, "annotation": {"number": 64, "value": 127}, "group": "control_change"}, {"time": 2046, "annotation": {"number": 64, "value": 0}, "group": "control_change"}, {"time": 2050, "annotation": {"number": 64, "value": 127}, "group": "control_change"}, {"time": 2069, "annotation": {"number": 64, "value": 0}, "group": "control_change"}, {"time": 2072, "annotation": {"number": 64, "value": 127}, "group": "control_change"}, {"time": 2092, "annotation": {"number": 64, "value": 0}, "group": "control_change"}, {"time": 2097, "annotation": {"number": 64, "value": 127}, "group": "control_change"}, {"time": 2119, "annotation": {"number": 64, "value": 0}, "group": "control_change"}, {"time": 2124, "annotation": {"number": 64, "value": 127}, "group": "control_change"}, {"time": 2142, "annotation": {"number": 64, "value": 0}, "group": "control_change"}, {"time": 2147, "annotation": {"number": 64, "value": 127}, "group": "control_change"}, {"time": 2165, "annotation": {"number": 64, "value": 0}, "group": "control_change"}, {"time": 2169, "annotation": {"number": 64, "value": 127}, "group": "control_change"}, {"time": 2189, "annotation": {"number": 64, "value": 0}, "group": "control_change"}, {"time": 2192, "annotation": {"number": 64, "value": 127}, "group": "control_change"}, {"time": 2214, "annotation": {"number": 64, "value": 0}, "group": "control_change"}, {"time": 2217, "annotation": {"number": 64, "value": 127}, "group": "control_change"}, {"time": 2226, "annotation": {"number": 64, "value": 0}, "group": "control_change"}, {"time": 2228, "annotation": {"number": 64, "value": 127}, "group": "control_change"}, {"time": 2238, "annotation": {"number": 64, "value": 0}, "group": "control_change"}, {"time": 2241, "annotation": {"number": 64, "value": 127}, "group": "control_change"}, {"time": 2261, "annotation": {"number": 64, "value": 0}, "group": "control_change"}, {"time": 2266, "annotation": {"number": 64, "value": 127}, "group": "control_change"}, {"time": 2286, "annotation": {"number": 64, "value": 0}, "group": "control_change"}, {"time": 2311, "annotation": {"number": 64, "value": 127}, "group": "control_change"}, {"time": 2332, "annotation": {"number": 64, "value": 0}, "group": "control_change"}, {"time": 2337, "annotation": {"number": 64, "value": 127}, "group": "control_change"}, {"time": 2359, "annotation": {"number": 64, "value": 0}, "group": "control_change"}, {"time": 2364, "annotation": {"number": 64, "value": 127}, "group": "control_change"}, {"time": 2382, "annotation": {"number": 64, "value": 0}, "group": "control_change"}, {"time": 2387, "annotation": {"number": 64, "value": 127}, "group": "control_change"}, {"time": 2405, "annotation": {"number": 64, "value": 0}, "group": "control_change"}, {"time": 2409, "annotation": {"number": 64, "value": 127}, "group": "control_change"}, {"time": 2429, "annotation": {"number": 64, "value": 0}, "group": "control_change"}, {"time": 2432, "annotation": {"number": 64, "value": 127}, "group": "control_change"}, {"time": 2454, "annotation": {"number": 64, "value": 0}, "group": "control_change"}, {"time": 2457, "annotation": {"number": 64, "value": 127}, "group": "control_change"}, {"time": 2466, "annotation": {"number": 64, "value": 0}, "group": "control_change"}, {"time": 2468, "annotation": {"number": 64, "value": 127}, "group": "control_change"}, {"time": 2478, "annotation": {"number": 64, "value": 0}, "group": "control_change"}, {"time": 2481, "annotation": {"number": 64, "value": 127}, "group": "control_change"}, {"time": 2501, "annotation": {"number": 64, "value": 0}, "group": "control_change"}, {"time": 2506, "annotation": {"number": 64, "value": 127}, "group": "control_change"}, {"time": 2526, "annotation": {"number": 64, "value": 0}, "group": "control_change"}, {"time": 2531, "annotation": {"number": 64, "value": 127}, "group": "control_change"}, {"time": 2632, "annotation": {"number": 64, "value": 0}, "group": "control_change"}]}]}