{"metadata": {"schema_version": "0.2", "title": "None", "source_filename": "117.mid", "source_format": "midi"}, "resolution": 12, "tempos": [{"time": 0, "qpm": 66.00021120067584}], "time_signatures": [{"time": 0, "numerator": 1, "denominator": 4}], "tracks": [{"program": 0, "is_drum": false, "name": "MELODY", "notes": [{"time": 388, "pitch": 64, "duration": 4, "velocity": 108}, {"time": 394, "pitch": 69, "duration": 7, "velocity": 108}, {"time": 403, "pitch": 69, "duration": 2, "velocity": 97}, {"time": 406, "pitch": 69, "duration": 4, "velocity": 111}, {"time": 412, "pitch": 69, "duration": 2, "velocity": 100}, {"time": 415, "pitch": 67, "duration": 1, "velocity": 111}, {"time": 418, "pitch": 67, "duration": 4, "velocity": 108}, {"time": 424, "pitch": 62, "duration": 8, "velocity": 102}, {"time": 433, "pitch": 62, "duration": 1, "velocity": 94}, {"time": 436, "pitch": 60, "duration": 2, "velocity": 100}, {"time": 439, "pitch": 62, "duration": 1, "velocity": 105}, {"time": 442, "pitch": 64, "duration": 7, "velocity": 105}, {"time": 451, "pitch": 67, "duration": 2, "velocity": 102}, {"time": 454, "pitch": 64, "duration": 4, "velocity": 94}, {"time": 460, "pitch": 62, "duration": 3, "velocity": 100}, {"time": 463, "pitch": 64, "duration": 3, "velocity": 114}, {"time": 466, "pitch": 57, "duration": 11, "velocity": 82}, {"time": 484, "pitch": 57, "duration": 2, "velocity": 105}, {"time": 487, "pitch": 60, "duration": 2, "velocity": 94}, {"time": 490, "pitch": 62, "duration": 2, "velocity": 105}, {"time": 496, "pitch": 62, "duration": 2, "velocity": 102}, {"time": 502, "pitch": 62, "duration": 2, "velocity": 94}, {"time": 505, "pitch": 60, "duration": 4, "velocity": 89}, {"time": 511, "pitch": 57, "duration": 2, "velocity": 97}, {"time": 514, "pitch": 62, "duration": 5, "velocity": 100}, {"time": 520, "pitch": 64, "duration": 2, "velocity": 94}, {"time": 523, "pitch": 62, "duration": 6, "velocity": 100}, {"time": 532, "pitch": 57, "duration": 2, "velocity": 94}, {"time": 535, "pitch": 60, "duration": 2, "velocity": 78}, {"time": 538, "pitch": 62, "duration": 2, "velocity": 105}, {"time": 541, "pitch": 62, "duration": 2, "velocity": 92}, {"time": 544, "pitch": 62, "duration": 1, "velocity": 100}, {"time": 547, "pitch": 62, "duration": 2, "velocity": 97}, {"time": 550, "pitch": 67, "duration": 5, "velocity": 105}, {"time": 556, "pitch": 69, "duration": 2, "velocity": 108}, {"time": 559, "pitch": 64, "duration": 17, "velocity": 105}, {"time": 580, "pitch": 64, "duration": 3, "velocity": 108}, {"time": 583, "pitch": 64, "duration": 3, "velocity": 108}, {"time": 586, "pitch": 69, "duration": 7, "velocity": 108}, {"time": 595, "pitch": 69, "duration": 2, "velocity": 97}, {"time": 598, "pitch": 69, "duration": 4, "velocity": 111}, {"time": 604, "pitch": 69, "duration": 2, "velocity": 100}, {"time": 607, "pitch": 67, "duration": 1, "velocity": 111}, {"time": 610, "pitch": 67, "duration": 4, "velocity": 108}, {"time": 616, "pitch": 62, "duration": 8, "velocity": 102}, {"time": 625, "pitch": 62, "duration": 1, "velocity": 94}, {"time": 628, "pitch": 60, "duration": 2, "velocity": 100}, {"time": 631, "pitch": 62, "duration": 1, "velocity": 105}, {"time": 634, "pitch": 64, "duration": 7, "velocity": 105}, {"time": 643, "pitch": 67, "duration": 2, "velocity": 102}, {"time": 646, "pitch": 64, "duration": 4, "velocity": 94}, {"time": 652, "pitch": 62, "duration": 3, "velocity": 100}, {"time": 655, "pitch": 64, "duration": 3, "velocity": 114}, {"time": 658, "pitch": 57, "duration": 11, "velocity": 82}, {"time": 676, "pitch": 57, "duration": 2, "velocity": 105}, {"time": 679, "pitch": 60, "duration": 2, "velocity": 94}, {"time": 682, "pitch": 62, "duration": 2, "velocity": 105}, {"time": 688, "pitch": 62, "duration": 2, "velocity": 102}, {"time": 691, "pitch": 62, "duration": 3, "velocity": 114}, {"time": 694, "pitch": 62, "duration": 6, "velocity": 94}, {"time": 700, "pitch": 60, "duration": 4, "velocity": 89}, {"time": 706, "pitch": 62, "duration": 3, "velocity": 100}, {"time": 709, "pitch": 62, "duration": 3, "velocity": 114}, {"time": 715, "pitch": 64, "duration": 2, "velocity": 94}, {"time": 718, "pitch": 62, "duration": 6, "velocity": 100}, {"time": 724, "pitch": 60, "duration": 2, "velocity": 102}, {"time": 727, "pitch": 62, "duration": 2, "velocity": 100}, {"time": 730, "pitch": 67, "duration": 4, "velocity": 105}, {"time": 736, "pitch": 64, "duration": 15, "velocity": 92}, {"time": 754, "pitch": 64, "duration": 5, "velocity": 105}, {"time": 760, "pitch": 62, "duration": 2, "velocity": 92}, {"time": 763, "pitch": 62, "duration": 8, "velocity": 102}, {"time": 772, "pitch": 60, "duration": 3, "velocity": 105}, {"time": 775, "pitch": 62, "duration": 3, "velocity": 105}, {"time": 778, "pitch": 57, "duration": 36, "velocity": 111}, {"time": 826, "pitch": 64, "duration": 5, "velocity": 82}, {"time": 832, "pitch": 57, "duration": 9, "velocity": 108}, {"time": 844, "pitch": 60, "duration": 4, "velocity": 102}, {"time": 850, "pitch": 62, "duration": 13, "velocity": 105}, {"time": 868, "pitch": 60, "duration": 2, "velocity": 89}, {"time": 871, "pitch": 62, "duration": 2, "velocity": 105}, {"time": 874, "pitch": 64, "duration": 7, "velocity": 105}, {"time": 883, "pitch": 62, "duration": 2, "velocity": 108}, {"time": 886, "pitch": 60, "duration": 4, "velocity": 94}, {"time": 892, "pitch": 62, "duration": 3, "velocity": 108}, {"time": 898, "pitch": 64, "duration": 14, "velocity": 105}, {"time": 916, "pitch": 64, "duration": 2, "velocity": 94}, {"time": 919, "pitch": 67, "duration": 2, "velocity": 111}, {"time": 922, "pitch": 69, "duration": 2, "velocity": 108}, {"time": 925, "pitch": 72, "duration": 2, "velocity": 105}, {"time": 928, "pitch": 69, "duration": 8, "velocity": 100}, {"time": 940, "pitch": 67, "duration": 2, "velocity": 97}, {"time": 943, "pitch": 69, "duration": 1, "velocity": 108}, {"time": 946, "pitch": 67, "duration": 4, "velocity": 111}, {"time": 952, "pitch": 57, "duration": 8, "velocity": 105}, {"time": 964, "pitch": 64, "duration": 2, "velocity": 94}, {"time": 967, "pitch": 67, "duration": 2, "velocity": 108}, {"time": 970, "pitch": 62, "duration": 24, "velocity": 105}, {"time": 1018, "pitch": 64, "duration": 8, "velocity": 108}, {"time": 1030, "pitch": 57, "duration": 4, "velocity": 108}, {"time": 1036, "pitch": 64, "duration": 4, "velocity": 102}, {"time": 1042, "pitch": 62, "duration": 13, "velocity": 102}, {"time": 1060, "pitch": 60, "duration": 2, "velocity": 92}, {"time": 1063, "pitch": 62, "duration": 2, "velocity": 102}, {"time": 1066, "pitch": 64, "duration": 7, "velocity": 108}, {"time": 1075, "pitch": 62, "duration": 2, "velocity": 105}, {"time": 1078, "pitch": 60, "duration": 4, "velocity": 108}, {"time": 1084, "pitch": 67, "duration": 3, "velocity": 102}, {"time": 1090, "pitch": 64, "duration": 13, "velocity": 102}, {"time": 1108, "pitch": 64, "duration": 2, "velocity": 102}, {"time": 1111, "pitch": 67, "duration": 2, "velocity": 102}, {"time": 1114, "pitch": 69, "duration": 4, "velocity": 111}, {"time": 1120, "pitch": 69, "duration": 2, "velocity": 111}, {"time": 1123, "pitch": 67, "duration": 1, "velocity": 102}, {"time": 1126, "pitch": 64, "duration": 3, "velocity": 105}, {"time": 1132, "pitch": 60, "duration": 2, "velocity": 105}, {"time": 1135, "pitch": 64, "duration": 1, "velocity": 100}, {"time": 1138, "pitch": 62, "duration": 5, "velocity": 114}, {"time": 1144, "pitch": 62, "duration": 6, "velocity": 114}, {"time": 1156, "pitch": 60, "duration": 2, "velocity": 102}, {"time": 1159, "pitch": 62, "duration": 2, "velocity": 105}, {"time": 1162, "pitch": 60, "duration": 6, "velocity": 114}, {"time": 1168, "pitch": 57, "duration": 32, "velocity": 102}, {"time": 1210, "pitch": 64, "duration": 5, "velocity": 82}, {"time": 1216, "pitch": 57, "duration": 9, "velocity": 108}, {"time": 1228, "pitch": 60, "duration": 4, "velocity": 102}, {"time": 1234, "pitch": 62, "duration": 13, "velocity": 105}, {"time": 1252, "pitch": 60, "duration": 2, "velocity": 89}, {"time": 1255, "pitch": 62, "duration": 2, "velocity": 105}, {"time": 1258, "pitch": 64, "duration": 7, "velocity": 105}, {"time": 1267, "pitch": 62, "duration": 2, "velocity": 108}, {"time": 1270, "pitch": 60, "duration": 4, "velocity": 94}, {"time": 1276, "pitch": 62, "duration": 3, "velocity": 108}, {"time": 1282, "pitch": 64, "duration": 14, "velocity": 105}, {"time": 1300, "pitch": 64, "duration": 2, "velocity": 94}, {"time": 1303, "pitch": 67, "duration": 2, "velocity": 111}, {"time": 1306, "pitch": 69, "duration": 2, "velocity": 108}, {"time": 1309, "pitch": 72, "duration": 2, "velocity": 105}, {"time": 1312, "pitch": 69, "duration": 8, "velocity": 100}, {"time": 1324, "pitch": 67, "duration": 2, "velocity": 97}, {"time": 1327, "pitch": 69, "duration": 1, "velocity": 108}, {"time": 1330, "pitch": 67, "duration": 4, "velocity": 111}, {"time": 1336, "pitch": 57, "duration": 8, "velocity": 105}, {"time": 1348, "pitch": 64, "duration": 2, "velocity": 94}, {"time": 1351, "pitch": 67, "duration": 2, "velocity": 108}, {"time": 1354, "pitch": 62, "duration": 24, "velocity": 105}, {"time": 1402, "pitch": 64, "duration": 8, "velocity": 108}, {"time": 1414, "pitch": 57, "duration": 4, "velocity": 108}, {"time": 1420, "pitch": 64, "duration": 4, "velocity": 102}, {"time": 1426, "pitch": 62, "duration": 13, "velocity": 102}, {"time": 1444, "pitch": 60, "duration": 2, "velocity": 92}, {"time": 1447, "pitch": 62, "duration": 2, "velocity": 102}, {"time": 1450, "pitch": 64, "duration": 7, "velocity": 108}, {"time": 1459, "pitch": 62, "duration": 2, "velocity": 105}, {"time": 1462, "pitch": 60, "duration": 4, "velocity": 108}, {"time": 1468, "pitch": 67, "duration": 3, "velocity": 102}, {"time": 1474, "pitch": 64, "duration": 13, "velocity": 102}, {"time": 1492, "pitch": 64, "duration": 2, "velocity": 102}, {"time": 1495, "pitch": 67, "duration": 2, "velocity": 102}, {"time": 1498, "pitch": 69, "duration": 4, "velocity": 111}, {"time": 1504, "pitch": 69, "duration": 2, "velocity": 111}, {"time": 1507, "pitch": 67, "duration": 1, "velocity": 102}, {"time": 1510, "pitch": 64, "duration": 3, "velocity": 105}, {"time": 1516, "pitch": 60, "duration": 2, "velocity": 105}, {"time": 1519, "pitch": 64, "duration": 1, "velocity": 100}, {"time": 1522, "pitch": 62, "duration": 5, "velocity": 114}, {"time": 1528, "pitch": 62, "duration": 6, "velocity": 114}, {"time": 1540, "pitch": 60, "duration": 2, "velocity": 102}, {"time": 1543, "pitch": 62, "duration": 2, "velocity": 105}, {"time": 1546, "pitch": 60, "duration": 6, "velocity": 114}, {"time": 1552, "pitch": 57, "duration": 32, "velocity": 102}, {"time": 1978, "pitch": 64, "duration": 5, "velocity": 82}, {"time": 1984, "pitch": 57, "duration": 9, "velocity": 108}, {"time": 1996, "pitch": 60, "duration": 4, "velocity": 102}, {"time": 2002, "pitch": 62, "duration": 13, "velocity": 105}, {"time": 2020, "pitch": 60, "duration": 2, "velocity": 89}, {"time": 2023, "pitch": 62, "duration": 2, "velocity": 105}, {"time": 2026, "pitch": 64, "duration": 7, "velocity": 105}, {"time": 2035, "pitch": 62, "duration": 2, "velocity": 108}, {"time": 2038, "pitch": 60, "duration": 4, "velocity": 94}, {"time": 2044, "pitch": 62, "duration": 3, "velocity": 108}, {"time": 2050, "pitch": 64, "duration": 14, "velocity": 105}, {"time": 2068, "pitch": 64, "duration": 2, "velocity": 94}, {"time": 2071, "pitch": 67, "duration": 2, "velocity": 111}, {"time": 2074, "pitch": 69, "duration": 2, "velocity": 108}, {"time": 2077, "pitch": 72, "duration": 2, "velocity": 105}, {"time": 2080, "pitch": 69, "duration": 8, "velocity": 100}, {"time": 2092, "pitch": 67, "duration": 2, "velocity": 97}, {"time": 2095, "pitch": 69, "duration": 1, "velocity": 108}, {"time": 2098, "pitch": 67, "duration": 4, "velocity": 111}, {"time": 2104, "pitch": 57, "duration": 8, "velocity": 105}, {"time": 2116, "pitch": 64, "duration": 2, "velocity": 94}, {"time": 2119, "pitch": 67, "duration": 2, "velocity": 108}, {"time": 2122, "pitch": 62, "duration": 24, "velocity": 105}, {"time": 2170, "pitch": 64, "duration": 8, "velocity": 108}, {"time": 2182, "pitch": 57, "duration": 4, "velocity": 108}, {"time": 2188, "pitch": 64, "duration": 4, "velocity": 102}, {"time": 2194, "pitch": 62, "duration": 13, "velocity": 102}, {"time": 2212, "pitch": 60, "duration": 2, "velocity": 92}, {"time": 2215, "pitch": 62, "duration": 2, "velocity": 102}, {"time": 2218, "pitch": 64, "duration": 7, "velocity": 108}, {"time": 2227, "pitch": 62, "duration": 2, "velocity": 105}, {"time": 2230, "pitch": 60, "duration": 4, "velocity": 108}, {"time": 2236, "pitch": 67, "duration": 3, "velocity": 102}, {"time": 2242, "pitch": 64, "duration": 13, "velocity": 102}, {"time": 2260, "pitch": 64, "duration": 2, "velocity": 102}, {"time": 2263, "pitch": 67, "duration": 2, "velocity": 102}, {"time": 2266, "pitch": 69, "duration": 4, "velocity": 111}, {"time": 2272, "pitch": 69, "duration": 2, "velocity": 111}, {"time": 2275, "pitch": 67, "duration": 1, "velocity": 102}, {"time": 2278, "pitch": 64, "duration": 3, "velocity": 105}, {"time": 2284, "pitch": 60, "duration": 2, "velocity": 105}, {"time": 2287, "pitch": 64, "duration": 1, "velocity": 100}, {"time": 2290, "pitch": 62, "duration": 5, "velocity": 114}, {"time": 2296, "pitch": 62, "duration": 6, "velocity": 114}, {"time": 2308, "pitch": 60, "duration": 2, "velocity": 102}, {"time": 2311, "pitch": 62, "duration": 2, "velocity": 105}, {"time": 2314, "pitch": 60, "duration": 6, "velocity": 114}, {"time": 2320, "pitch": 57, "duration": 32, "velocity": 102}, {"time": 2356, "pitch": 64, "duration": 4, "velocity": 108}, {"time": 2362, "pitch": 69, "duration": 7, "velocity": 108}, {"time": 2371, "pitch": 69, "duration": 2, "velocity": 97}, {"time": 2374, "pitch": 69, "duration": 4, "velocity": 111}, {"time": 2380, "pitch": 69, "duration": 2, "velocity": 100}, {"time": 2383, "pitch": 67, "duration": 1, "velocity": 111}, {"time": 2386, "pitch": 67, "duration": 4, "velocity": 108}, {"time": 2392, "pitch": 62, "duration": 8, "velocity": 102}, {"time": 2401, "pitch": 62, "duration": 1, "velocity": 94}, {"time": 2404, "pitch": 60, "duration": 2, "velocity": 100}, {"time": 2407, "pitch": 62, "duration": 1, "velocity": 105}, {"time": 2410, "pitch": 64, "duration": 7, "velocity": 105}, {"time": 2419, "pitch": 67, "duration": 2, "velocity": 102}, {"time": 2422, "pitch": 64, "duration": 4, "velocity": 94}, {"time": 2428, "pitch": 62, "duration": 3, "velocity": 100}, {"time": 2431, "pitch": 64, "duration": 3, "velocity": 114}, {"time": 2434, "pitch": 57, "duration": 11, "velocity": 82}, {"time": 2452, "pitch": 57, "duration": 2, "velocity": 105}, {"time": 2455, "pitch": 60, "duration": 2, "velocity": 94}, {"time": 2458, "pitch": 62, "duration": 2, "velocity": 105}, {"time": 2464, "pitch": 62, "duration": 2, "velocity": 102}, {"time": 2470, "pitch": 62, "duration": 2, "velocity": 94}, {"time": 2473, "pitch": 60, "duration": 4, "velocity": 89}, {"time": 2479, "pitch": 57, "duration": 2, "velocity": 97}, {"time": 2482, "pitch": 62, "duration": 5, "velocity": 100}, {"time": 2488, "pitch": 64, "duration": 2, "velocity": 94}, {"time": 2491, "pitch": 62, "duration": 6, "velocity": 100}, {"time": 2500, "pitch": 57, "duration": 2, "velocity": 94}, {"time": 2503, "pitch": 60, "duration": 2, "velocity": 78}, {"time": 2506, "pitch": 62, "duration": 2, "velocity": 105}, {"time": 2509, "pitch": 62, "duration": 2, "velocity": 92}, {"time": 2512, "pitch": 62, "duration": 1, "velocity": 100}, {"time": 2515, "pitch": 62, "duration": 2, "velocity": 97}, {"time": 2518, "pitch": 67, "duration": 5, "velocity": 105}, {"time": 2524, "pitch": 69, "duration": 2, "velocity": 108}, {"time": 2527, "pitch": 64, "duration": 17, "velocity": 105}, {"time": 2548, "pitch": 64, "duration": 3, "velocity": 108}, {"time": 2551, "pitch": 64, "duration": 3, "velocity": 108}, {"time": 2554, "pitch": 69, "duration": 7, "velocity": 108}, {"time": 2563, "pitch": 69, "duration": 2, "velocity": 97}, {"time": 2566, "pitch": 69, "duration": 4, "velocity": 111}, {"time": 2572, "pitch": 69, "duration": 2, "velocity": 100}, {"time": 2575, "pitch": 67, "duration": 1, "velocity": 111}, {"time": 2578, "pitch": 67, "duration": 4, "velocity": 108}, {"time": 2584, "pitch": 62, "duration": 8, "velocity": 102}, {"time": 2593, "pitch": 62, "duration": 1, "velocity": 94}, {"time": 2596, "pitch": 60, "duration": 2, "velocity": 100}, {"time": 2599, "pitch": 62, "duration": 1, "velocity": 105}, {"time": 2602, "pitch": 64, "duration": 7, "velocity": 105}, {"time": 2611, "pitch": 67, "duration": 2, "velocity": 102}, {"time": 2614, "pitch": 64, "duration": 4, "velocity": 94}, {"time": 2620, "pitch": 62, "duration": 3, "velocity": 100}, {"time": 2623, "pitch": 64, "duration": 3, "velocity": 114}, {"time": 2626, "pitch": 57, "duration": 11, "velocity": 82}, {"time": 2644, "pitch": 57, "duration": 2, "velocity": 105}, {"time": 2647, "pitch": 60, "duration": 2, "velocity": 94}, {"time": 2650, "pitch": 62, "duration": 2, "velocity": 105}, {"time": 2656, "pitch": 62, "duration": 2, "velocity": 102}, {"time": 2659, "pitch": 62, "duration": 3, "velocity": 114}, {"time": 2662, "pitch": 62, "duration": 6, "velocity": 94}, {"time": 2668, "pitch": 60, "duration": 4, "velocity": 89}, {"time": 2674, "pitch": 62, "duration": 3, "velocity": 100}, {"time": 2677, "pitch": 62, "duration": 3, "velocity": 114}, {"time": 2683, "pitch": 64, "duration": 2, "velocity": 94}, {"time": 2686, "pitch": 62, "duration": 6, "velocity": 100}, {"time": 2692, "pitch": 60, "duration": 2, "velocity": 102}, {"time": 2695, "pitch": 62, "duration": 2, "velocity": 100}, {"time": 2698, "pitch": 67, "duration": 4, "velocity": 105}, {"time": 2704, "pitch": 64, "duration": 15, "velocity": 92}, {"time": 2722, "pitch": 64, "duration": 5, "velocity": 105}, {"time": 2728, "pitch": 62, "duration": 2, "velocity": 92}, {"time": 2731, "pitch": 62, "duration": 8, "velocity": 102}, {"time": 2740, "pitch": 60, "duration": 3, "velocity": 105}, {"time": 2743, "pitch": 62, "duration": 3, "velocity": 105}, {"time": 2746, "pitch": 57, "duration": 36, "velocity": 111}, {"time": 2788, "pitch": 64, "duration": 4, "velocity": 108}, {"time": 2794, "pitch": 69, "duration": 7, "velocity": 108}, {"time": 2803, "pitch": 69, "duration": 2, "velocity": 97}, {"time": 2806, "pitch": 69, "duration": 4, "velocity": 111}, {"time": 2812, "pitch": 69, "duration": 2, "velocity": 100}, {"time": 2815, "pitch": 67, "duration": 1, "velocity": 111}, {"time": 2818, "pitch": 67, "duration": 4, "velocity": 108}, {"time": 2824, "pitch": 62, "duration": 8, "velocity": 102}, {"time": 2833, "pitch": 62, "duration": 1, "velocity": 94}, {"time": 2836, "pitch": 60, "duration": 2, "velocity": 100}, {"time": 2839, "pitch": 62, "duration": 1, "velocity": 105}, {"time": 2842, "pitch": 64, "duration": 7, "velocity": 105}, {"time": 2851, "pitch": 67, "duration": 2, "velocity": 102}, {"time": 2854, "pitch": 64, "duration": 4, "velocity": 94}, {"time": 2860, "pitch": 62, "duration": 3, "velocity": 100}, {"time": 2863, "pitch": 64, "duration": 3, "velocity": 114}, {"time": 2866, "pitch": 57, "duration": 11, "velocity": 82}, {"time": 2884, "pitch": 57, "duration": 2, "velocity": 105}, {"time": 2887, "pitch": 60, "duration": 2, "velocity": 94}, {"time": 2890, "pitch": 62, "duration": 2, "velocity": 105}, {"time": 2896, "pitch": 62, "duration": 2, "velocity": 102}, {"time": 2902, "pitch": 62, "duration": 2, "velocity": 94}, {"time": 2905, "pitch": 60, "duration": 4, "velocity": 89}, {"time": 2911, "pitch": 57, "duration": 2, "velocity": 97}, {"time": 2914, "pitch": 62, "duration": 5, "velocity": 100}, {"time": 2920, "pitch": 64, "duration": 2, "velocity": 94}, {"time": 2923, "pitch": 62, "duration": 6, "velocity": 100}, {"time": 2932, "pitch": 57, "duration": 2, "velocity": 94}, {"time": 2935, "pitch": 60, "duration": 2, "velocity": 78}, {"time": 2938, "pitch": 62, "duration": 2, "velocity": 105}, {"time": 2941, "pitch": 62, "duration": 2, "velocity": 92}, {"time": 2944, "pitch": 62, "duration": 1, "velocity": 100}, {"time": 2947, "pitch": 62, "duration": 2, "velocity": 97}, {"time": 2950, "pitch": 67, "duration": 5, "velocity": 105}, {"time": 2956, "pitch": 69, "duration": 2, "velocity": 108}, {"time": 2959, "pitch": 64, "duration": 17, "velocity": 105}, {"time": 2980, "pitch": 64, "duration": 3, "velocity": 108}, {"time": 2983, "pitch": 64, "duration": 3, "velocity": 108}, {"time": 2986, "pitch": 69, "duration": 7, "velocity": 108}, {"time": 2995, "pitch": 69, "duration": 2, "velocity": 97}, {"time": 2998, "pitch": 69, "duration": 4, "velocity": 111}, {"time": 3004, "pitch": 69, "duration": 2, "velocity": 100}, {"time": 3007, "pitch": 67, "duration": 1, "velocity": 111}, {"time": 3010, "pitch": 67, "duration": 4, "velocity": 108}, {"time": 3016, "pitch": 62, "duration": 8, "velocity": 102}, {"time": 3025, "pitch": 62, "duration": 1, "velocity": 94}, {"time": 3028, "pitch": 60, "duration": 2, "velocity": 100}, {"time": 3031, "pitch": 62, "duration": 1, "velocity": 105}, {"time": 3034, "pitch": 64, "duration": 7, "velocity": 105}, {"time": 3043, "pitch": 67, "duration": 2, "velocity": 102}, {"time": 3046, "pitch": 64, "duration": 4, "velocity": 94}, {"time": 3052, "pitch": 62, "duration": 3, "velocity": 100}, {"time": 3055, "pitch": 64, "duration": 3, "velocity": 114}, {"time": 3058, "pitch": 57, "duration": 11, "velocity": 82}, {"time": 3076, "pitch": 57, "duration": 2, "velocity": 105}, {"time": 3079, "pitch": 60, "duration": 2, "velocity": 94}, {"time": 3082, "pitch": 62, "duration": 2, "velocity": 105}, {"time": 3088, "pitch": 62, "duration": 2, "velocity": 102}, {"time": 3091, "pitch": 62, "duration": 3, "velocity": 114}, {"time": 3094, "pitch": 62, "duration": 6, "velocity": 94}, {"time": 3100, "pitch": 60, "duration": 4, "velocity": 89}, {"time": 3106, "pitch": 62, "duration": 3, "velocity": 100}, {"time": 3109, "pitch": 62, "duration": 3, "velocity": 114}, {"time": 3115, "pitch": 64, "duration": 2, "velocity": 94}, {"time": 3118, "pitch": 62, "duration": 6, "velocity": 100}, {"time": 3124, "pitch": 60, "duration": 2, "velocity": 102}, {"time": 3127, "pitch": 62, "duration": 2, "velocity": 100}, {"time": 3130, "pitch": 67, "duration": 4, "velocity": 105}, {"time": 3136, "pitch": 64, "duration": 15, "velocity": 92}, {"time": 3154, "pitch": 64, "duration": 5, "velocity": 105}, {"time": 3160, "pitch": 62, "duration": 2, "velocity": 92}, {"time": 3163, "pitch": 62, "duration": 24, "velocity": 102}, {"time": 3198, "pitch": 60, "duration": 4, "velocity": 108}, {"time": 3202, "pitch": 62, "duration": 9, "velocity": 94}, {"time": 3214, "pitch": 60, "duration": 4, "velocity": 100}, {"time": 3218, "pitch": 57, "duration": 33, "velocity": 84}]}, {"program": 0, "is_drum": false, "name": "BRIDGE", "notes": [{"time": 10, "pitch": 81, "duration": 17, "velocity": 114}, {"time": 28, "pitch": 79, "duration": 2, "velocity": 114}, {"time": 31, "pitch": 81, "duration": 2, "velocity": 108}, {"time": 34, "pitch": 79, "duration": 5, "velocity": 114}, {"time": 40, "pitch": 74, "duration": 12, "velocity": 117}, {"time": 52, "pitch": 72, "duration": 2, "velocity": 117}, {"time": 55, "pitch": 74, "duration": 2, "velocity": 102}, {"time": 58, "pitch": 76, "duration": 8, "velocity": 108}, {"time": 67, "pitch": 79, "duration": 2, "velocity": 111}, {"time": 70, "pitch": 74, "duration": 4, "velocity": 108}, {"time": 76, "pitch": 74, "duration": 3, "velocity": 94}, {"time": 79, "pitch": 76, "duration": 2, "velocity": 100}, {"time": 82, "pitch": 69, "duration": 18, "velocity": 111}, {"time": 112, "pitch": 74, "duration": 2, "velocity": 108}, {"time": 115, "pitch": 74, "duration": 2, "velocity": 102}, {"time": 118, "pitch": 74, "duration": 4, "velocity": 108}, {"time": 124, "pitch": 76, "duration": 5, "velocity": 111}, {"time": 130, "pitch": 74, "duration": 14, "velocity": 111}, {"time": 148, "pitch": 72, "duration": 2, "velocity": 105}, {"time": 151, "pitch": 74, "duration": 2, "velocity": 111}, {"time": 154, "pitch": 76, "duration": 8, "velocity": 111}, {"time": 163, "pitch": 79, "duration": 7, "velocity": 114}, {"time": 172, "pitch": 83, "duration": 5, "velocity": 120}, {"time": 178, "pitch": 76, "duration": 12, "velocity": 117}, {"time": 190, "pitch": 76, "duration": 3, "velocity": 114}, {"time": 193, "pitch": 79, "duration": 2, "velocity": 105}, {"time": 196, "pitch": 81, "duration": 2, "velocity": 111}, {"time": 199, "pitch": 83, "duration": 2, "velocity": 114}, {"time": 202, "pitch": 81, "duration": 16, "velocity": 127}, {"time": 220, "pitch": 79, "duration": 2, "velocity": 114}, {"time": 223, "pitch": 81, "duration": 2, "velocity": 108}, {"time": 226, "pitch": 79, "duration": 5, "velocity": 114}, {"time": 232, "pitch": 74, "duration": 10, "velocity": 120}, {"time": 244, "pitch": 72, "duration": 2, "velocity": 108}, {"time": 247, "pitch": 74, "duration": 2, "velocity": 108}, {"time": 250, "pitch": 76, "duration": 9, "velocity": 108}, {"time": 259, "pitch": 79, "duration": 8, "velocity": 108}, {"time": 268, "pitch": 76, "duration": 3, "velocity": 108}, {"time": 271, "pitch": 74, "duration": 2, "velocity": 102}, {"time": 274, "pitch": 72, "duration": 8, "velocity": 117}, {"time": 283, "pitch": 69, "duration": 11, "velocity": 108}, {"time": 298, "pitch": 74, "duration": 15, "velocity": 114}, {"time": 316, "pitch": 74, "duration": 2, "velocity": 117}, {"time": 319, "pitch": 76, "duration": 2, "velocity": 108}, {"time": 322, "pitch": 74, "duration": 15, "velocity": 117}, {"time": 340, "pitch": 71, "duration": 4, "velocity": 114}, {"time": 346, "pitch": 72, "duration": 8, "velocity": 108}, {"time": 355, "pitch": 69, "duration": 32, "velocity": 102}, {"time": 475, "pitch": 69, "duration": 2, "velocity": 94}, {"time": 478, "pitch": 71, "duration": 3, "velocity": 104}, {"time": 480, "pitch": 72, "duration": 3, "velocity": 80}, {"time": 484, "pitch": 74, "duration": 2, "velocity": 94}, {"time": 487, "pitch": 76, "duration": 1, "velocity": 89}, {"time": 490, "pitch": 74, "duration": 14, "velocity": 109}, {"time": 508, "pitch": 69, "duration": 2, "velocity": 96}, {"time": 511, "pitch": 72, "duration": 1, "velocity": 89}, {"time": 514, "pitch": 77, "duration": 6, "velocity": 106}, {"time": 526, "pitch": 74, "duration": 2, "velocity": 101}, {"time": 529, "pitch": 72, "duration": 2, "velocity": 99}, {"time": 532, "pitch": 69, "duration": 2, "velocity": 101}, {"time": 535, "pitch": 72, "duration": 1, "velocity": 91}, {"time": 538, "pitch": 74, "duration": 12, "velocity": 106}, {"time": 562, "pitch": 67, "duration": 8, "velocity": 91}, {"time": 562, "pitch": 72, "duration": 8, "velocity": 87}, {"time": 574, "pitch": 71, "duration": 11, "velocity": 80}, {"time": 574, "pitch": 76, "duration": 11, "velocity": 82}, {"time": 670, "pitch": 69, "duration": 2, "velocity": 104}, {"time": 673, "pitch": 71, "duration": 2, "velocity": 104}, {"time": 676, "pitch": 72, "duration": 2, "velocity": 96}, {"time": 679, "pitch": 76, "duration": 2, "velocity": 91}, {"time": 682, "pitch": 74, "duration": 13, "velocity": 73}, {"time": 802, "pitch": 69, "duration": 4, "velocity": 105}, {"time": 802, "pitch": 72, "duration": 5, "velocity": 111}, {"time": 808, "pitch": 71, "duration": 4, "velocity": 94}, {"time": 808, "pitch": 74, "duration": 4, "velocity": 97}, {"time": 814, "pitch": 72, "duration": 5, "velocity": 87}, {"time": 814, "pitch": 76, "duration": 5, "velocity": 92}, {"time": 820, "pitch": 71, "duration": 4, "velocity": 67}, {"time": 820, "pitch": 74, "duration": 4, "velocity": 64}, {"time": 826, "pitch": 69, "duration": 14, "velocity": 78}, {"time": 826, "pitch": 72, "duration": 14, "velocity": 78}, {"time": 910, "pitch": 64, "duration": 3, "velocity": 102}, {"time": 913, "pitch": 62, "duration": 4, "velocity": 92}, {"time": 916, "pitch": 64, "duration": 5, "velocity": 102}, {"time": 922, "pitch": 69, "duration": 14, "velocity": 76}, {"time": 982, "pitch": 71, "duration": 9, "velocity": 100}, {"time": 982, "pitch": 83, "duration": 8, "velocity": 102}, {"time": 994, "pitch": 69, "duration": 9, "velocity": 105}, {"time": 994, "pitch": 81, "duration": 8, "velocity": 102}, {"time": 1006, "pitch": 67, "duration": 11, "velocity": 100}, {"time": 1006, "pitch": 79, "duration": 11, "velocity": 97}, {"time": 1018, "pitch": 69, "duration": 14, "velocity": 97}, {"time": 1018, "pitch": 81, "duration": 14, "velocity": 100}, {"time": 1183, "pitch": 64, "duration": 4, "velocity": 105}, {"time": 1186, "pitch": 72, "duration": 2, "velocity": 92}, {"time": 1186, "pitch": 76, "duration": 3, "velocity": 94}, {"time": 1189, "pitch": 64, "duration": 4, "velocity": 78}, {"time": 1192, "pitch": 71, "duration": 3, "velocity": 102}, {"time": 1192, "pitch": 74, "duration": 4, "velocity": 102}, {"time": 1195, "pitch": 64, "duration": 4, "velocity": 89}, {"time": 1198, "pitch": 69, "duration": 3, "velocity": 94}, {"time": 1198, "pitch": 72, "duration": 3, "velocity": 94}, {"time": 1201, "pitch": 64, "duration": 4, "velocity": 76}, {"time": 1204, "pitch": 71, "duration": 3, "velocity": 80}, {"time": 1204, "pitch": 74, "duration": 3, "velocity": 87}, {"time": 1207, "pitch": 64, "duration": 3, "velocity": 84}, {"time": 1210, "pitch": 72, "duration": 10, "velocity": 92}, {"time": 1210, "pitch": 76, "duration": 10, "velocity": 94}, {"time": 1294, "pitch": 76, "duration": 3, "velocity": 102}, {"time": 1297, "pitch": 74, "duration": 3, "velocity": 94}, {"time": 1300, "pitch": 76, "duration": 3, "velocity": 100}, {"time": 1303, "pitch": 79, "duration": 2, "velocity": 105}, {"time": 1306, "pitch": 81, "duration": 16, "velocity": 108}, {"time": 1375, "pitch": 74, "duration": 3, "velocity": 62}, {"time": 1378, "pitch": 79, "duration": 4, "velocity": 111}, {"time": 1381, "pitch": 74, "duration": 5, "velocity": 67}, {"time": 1387, "pitch": 74, "duration": 6, "velocity": 102}, {"time": 1387, "pitch": 83, "duration": 6, "velocity": 111}, {"time": 1393, "pitch": 79, "duration": 4, "velocity": 105}, {"time": 1396, "pitch": 74, "duration": 4, "velocity": 71}, {"time": 1399, "pitch": 79, "duration": 2, "velocity": 67}, {"time": 1483, "pitch": 67, "duration": 4, "velocity": 84}, {"time": 1486, "pitch": 72, "duration": 3, "velocity": 105}, {"time": 1489, "pitch": 74, "duration": 4, "velocity": 102}, {"time": 1492, "pitch": 76, "duration": 5, "velocity": 100}, {"time": 1498, "pitch": 69, "duration": 15, "velocity": 84}, {"time": 1498, "pitch": 72, "duration": 15, "velocity": 84}, {"time": 1522, "pitch": 67, "duration": 15, "velocity": 78}, {"time": 1522, "pitch": 71, "duration": 14, "velocity": 84}, {"time": 1558, "pitch": 72, "duration": 3, "velocity": 102}, {"time": 1561, "pitch": 74, "duration": 3, "velocity": 92}, {"time": 1564, "pitch": 72, "duration": 4, "velocity": 76}, {"time": 1567, "pitch": 71, "duration": 3, "velocity": 38}, {"time": 1570, "pitch": 69, "duration": 18, "velocity": 100}, {"time": 1588, "pitch": 88, "duration": 2, "velocity": 114}, {"time": 1591, "pitch": 91, "duration": 2, "velocity": 114}, {"time": 1594, "pitch": 93, "duration": 8, "velocity": 111}, {"time": 1603, "pitch": 88, "duration": 7, "velocity": 114}, {"time": 1612, "pitch": 88, "duration": 2, "velocity": 114}, {"time": 1615, "pitch": 91, "duration": 2, "velocity": 114}, {"time": 1618, "pitch": 86, "duration": 15, "velocity": 114}, {"time": 1636, "pitch": 84, "duration": 2, "velocity": 111}, {"time": 1639, "pitch": 86, "duration": 1, "velocity": 111}, {"time": 1642, "pitch": 88, "duration": 8, "velocity": 114}, {"time": 1651, "pitch": 86, "duration": 7, "velocity": 111}, {"time": 1660, "pitch": 84, "duration": 2, "velocity": 114}, {"time": 1663, "pitch": 86, "duration": 2, "velocity": 108}, {"time": 1666, "pitch": 81, "duration": 14, "velocity": 114}, {"time": 1684, "pitch": 81, "duration": 2, "velocity": 111}, {"time": 1687, "pitch": 83, "duration": 2, "velocity": 111}, {"time": 1690, "pitch": 84, "duration": 9, "velocity": 111}, {"time": 1699, "pitch": 81, "duration": 2, "velocity": 87}, {"time": 1702, "pitch": 84, "duration": 5, "velocity": 117}, {"time": 1708, "pitch": 86, "duration": 2, "velocity": 108}, {"time": 1711, "pitch": 88, "duration": 2, "velocity": 117}, {"time": 1714, "pitch": 86, "duration": 14, "velocity": 123}, {"time": 1732, "pitch": 84, "duration": 2, "velocity": 102}, {"time": 1735, "pitch": 86, "duration": 2, "velocity": 108}, {"time": 1738, "pitch": 88, "duration": 5, "velocity": 114}, {"time": 1744, "pitch": 86, "duration": 2, "velocity": 102}, {"time": 1747, "pitch": 88, "duration": 5, "velocity": 114}, {"time": 1753, "pitch": 84, "duration": 2, "velocity": 100}, {"time": 1756, "pitch": 86, "duration": 4, "velocity": 102}, {"time": 1762, "pitch": 88, "duration": 14, "velocity": 117}, {"time": 1786, "pitch": 81, "duration": 15, "velocity": 117}, {"time": 1786, "pitch": 93, "duration": 15, "velocity": 117}, {"time": 1804, "pitch": 79, "duration": 2, "velocity": 120}, {"time": 1804, "pitch": 91, "duration": 2, "velocity": 120}, {"time": 1807, "pitch": 81, "duration": 1, "velocity": 114}, {"time": 1807, "pitch": 93, "duration": 2, "velocity": 114}, {"time": 1810, "pitch": 74, "duration": 14, "velocity": 117}, {"time": 1810, "pitch": 86, "duration": 14, "velocity": 117}, {"time": 1828, "pitch": 72, "duration": 2, "velocity": 114}, {"time": 1828, "pitch": 84, "duration": 2, "velocity": 114}, {"time": 1831, "pitch": 74, "duration": 2, "velocity": 117}, {"time": 1831, "pitch": 86, "duration": 2, "velocity": 117}, {"time": 1834, "pitch": 76, "duration": 7, "velocity": 117}, {"time": 1834, "pitch": 88, "duration": 7, "velocity": 117}, {"time": 1843, "pitch": 79, "duration": 2, "velocity": 111}, {"time": 1843, "pitch": 91, "duration": 2, "velocity": 111}, {"time": 1846, "pitch": 76, "duration": 5, "velocity": 117}, {"time": 1846, "pitch": 88, "duration": 6, "velocity": 117}, {"time": 1852, "pitch": 74, "duration": 2, "velocity": 120}, {"time": 1852, "pitch": 86, "duration": 2, "velocity": 120}, {"time": 1855, "pitch": 76, "duration": 1, "velocity": 108}, {"time": 1855, "pitch": 88, "duration": 2, "velocity": 108}, {"time": 1858, "pitch": 69, "duration": 14, "velocity": 120}, {"time": 1858, "pitch": 81, "duration": 14, "velocity": 120}, {"time": 1882, "pitch": 72, "duration": 14, "velocity": 120}, {"time": 1882, "pitch": 84, "duration": 14, "velocity": 120}, {"time": 1900, "pitch": 74, "duration": 3, "velocity": 117}, {"time": 1900, "pitch": 86, "duration": 3, "velocity": 117}, {"time": 1903, "pitch": 76, "duration": 2, "velocity": 102}, {"time": 1903, "pitch": 88, "duration": 2, "velocity": 102}, {"time": 1906, "pitch": 74, "duration": 10, "velocity": 114}, {"time": 1906, "pitch": 86, "duration": 10, "velocity": 114}, {"time": 1918, "pitch": 67, "duration": 10, "velocity": 120}, {"time": 1918, "pitch": 79, "duration": 10, "velocity": 120}, {"time": 1930, "pitch": 69, "duration": 45, "velocity": 108}, {"time": 1930, "pitch": 81, "duration": 45, "velocity": 108}, {"time": 2062, "pitch": 76, "duration": 3, "velocity": 102}, {"time": 2065, "pitch": 74, "duration": 3, "velocity": 94}, {"time": 2068, "pitch": 76, "duration": 3, "velocity": 100}, {"time": 2071, "pitch": 79, "duration": 2, "velocity": 105}, {"time": 2074, "pitch": 81, "duration": 16, "velocity": 108}, {"time": 2143, "pitch": 74, "duration": 3, "velocity": 62}, {"time": 2146, "pitch": 79, "duration": 4, "velocity": 111}, {"time": 2149, "pitch": 74, "duration": 5, "velocity": 67}, {"time": 2155, "pitch": 74, "duration": 6, "velocity": 102}, {"time": 2155, "pitch": 83, "duration": 6, "velocity": 111}, {"time": 2161, "pitch": 79, "duration": 4, "velocity": 105}, {"time": 2164, "pitch": 74, "duration": 4, "velocity": 71}, {"time": 2167, "pitch": 79, "duration": 2, "velocity": 67}, {"time": 2251, "pitch": 67, "duration": 4, "velocity": 84}, {"time": 2254, "pitch": 72, "duration": 3, "velocity": 105}, {"time": 2257, "pitch": 74, "duration": 4, "velocity": 102}, {"time": 2260, "pitch": 76, "duration": 5, "velocity": 100}, {"time": 2266, "pitch": 69, "duration": 15, "velocity": 84}, {"time": 2266, "pitch": 72, "duration": 15, "velocity": 84}, {"time": 2290, "pitch": 67, "duration": 15, "velocity": 78}, {"time": 2290, "pitch": 71, "duration": 14, "velocity": 84}, {"time": 2326, "pitch": 72, "duration": 3, "velocity": 102}, {"time": 2329, "pitch": 74, "duration": 3, "velocity": 92}, {"time": 2332, "pitch": 72, "duration": 4, "velocity": 76}, {"time": 2335, "pitch": 71, "duration": 3, "velocity": 38}, {"time": 2338, "pitch": 69, "duration": 18, "velocity": 100}, {"time": 2443, "pitch": 69, "duration": 2, "velocity": 94}, {"time": 2446, "pitch": 71, "duration": 3, "velocity": 104}, {"time": 2448, "pitch": 72, "duration": 3, "velocity": 80}, {"time": 2452, "pitch": 74, "duration": 2, "velocity": 94}, {"time": 2455, "pitch": 76, "duration": 1, "velocity": 89}, {"time": 2458, "pitch": 74, "duration": 14, "velocity": 109}, {"time": 2476, "pitch": 69, "duration": 2, "velocity": 96}, {"time": 2479, "pitch": 72, "duration": 1, "velocity": 89}, {"time": 2482, "pitch": 77, "duration": 6, "velocity": 106}, {"time": 2494, "pitch": 74, "duration": 2, "velocity": 101}, {"time": 2497, "pitch": 72, "duration": 2, "velocity": 99}, {"time": 2500, "pitch": 69, "duration": 2, "velocity": 101}, {"time": 2503, "pitch": 72, "duration": 1, "velocity": 91}, {"time": 2506, "pitch": 74, "duration": 12, "velocity": 106}, {"time": 2530, "pitch": 67, "duration": 8, "velocity": 91}, {"time": 2530, "pitch": 72, "duration": 8, "velocity": 87}, {"time": 2542, "pitch": 71, "duration": 11, "velocity": 80}, {"time": 2542, "pitch": 76, "duration": 11, "velocity": 82}, {"time": 2638, "pitch": 69, "duration": 2, "velocity": 104}, {"time": 2641, "pitch": 71, "duration": 2, "velocity": 104}, {"time": 2644, "pitch": 72, "duration": 2, "velocity": 96}, {"time": 2647, "pitch": 76, "duration": 2, "velocity": 91}, {"time": 2650, "pitch": 74, "duration": 13, "velocity": 73}, {"time": 2770, "pitch": 69, "duration": 4, "velocity": 105}, {"time": 2770, "pitch": 72, "duration": 5, "velocity": 111}, {"time": 2776, "pitch": 71, "duration": 4, "velocity": 94}, {"time": 2776, "pitch": 74, "duration": 4, "velocity": 97}, {"time": 2782, "pitch": 72, "duration": 5, "velocity": 87}, {"time": 2782, "pitch": 76, "duration": 5, "velocity": 92}, {"time": 2788, "pitch": 71, "duration": 4, "velocity": 67}, {"time": 2788, "pitch": 74, "duration": 4, "velocity": 64}, {"time": 2794, "pitch": 69, "duration": 14, "velocity": 78}, {"time": 2794, "pitch": 72, "duration": 14, "velocity": 78}, {"time": 2874, "pitch": 69, "duration": 3, "velocity": 94}, {"time": 2878, "pitch": 71, "duration": 2, "velocity": 104}, {"time": 2880, "pitch": 72, "duration": 3, "velocity": 80}, {"time": 2884, "pitch": 74, "duration": 2, "velocity": 94}, {"time": 2887, "pitch": 76, "duration": 1, "velocity": 89}, {"time": 2890, "pitch": 74, "duration": 13, "velocity": 109}, {"time": 2908, "pitch": 69, "duration": 2, "velocity": 96}, {"time": 2910, "pitch": 72, "duration": 2, "velocity": 89}, {"time": 2914, "pitch": 77, "duration": 6, "velocity": 106}, {"time": 2926, "pitch": 74, "duration": 2, "velocity": 101}, {"time": 2929, "pitch": 72, "duration": 2, "velocity": 99}, {"time": 2932, "pitch": 69, "duration": 2, "velocity": 101}, {"time": 2935, "pitch": 72, "duration": 1, "velocity": 91}, {"time": 2938, "pitch": 74, "duration": 12, "velocity": 106}, {"time": 2962, "pitch": 67, "duration": 8, "velocity": 91}, {"time": 2962, "pitch": 72, "duration": 8, "velocity": 87}, {"time": 2974, "pitch": 71, "duration": 11, "velocity": 80}, {"time": 2974, "pitch": 76, "duration": 11, "velocity": 82}, {"time": 3070, "pitch": 69, "duration": 2, "velocity": 104}, {"time": 3073, "pitch": 71, "duration": 2, "velocity": 104}, {"time": 3076, "pitch": 72, "duration": 2, "velocity": 96}, {"time": 3079, "pitch": 76, "duration": 2, "velocity": 91}, {"time": 3082, "pitch": 74, "duration": 13, "velocity": 73}, {"time": 3214, "pitch": 81, "duration": 16, "velocity": 127}, {"time": 3232, "pitch": 79, "duration": 2, "velocity": 114}, {"time": 3235, "pitch": 81, "duration": 2, "velocity": 108}, {"time": 3238, "pitch": 79, "duration": 5, "velocity": 114}, {"time": 3244, "pitch": 74, "duration": 10, "velocity": 120}, {"time": 3256, "pitch": 72, "duration": 2, "velocity": 108}, {"time": 3259, "pitch": 74, "duration": 2, "velocity": 108}, {"time": 3262, "pitch": 76, "duration": 9, "velocity": 108}, {"time": 3271, "pitch": 79, "duration": 8, "velocity": 108}, {"time": 3280, "pitch": 76, "duration": 3, "velocity": 108}, {"time": 3283, "pitch": 74, "duration": 2, "velocity": 102}, {"time": 3286, "pitch": 72, "duration": 8, "velocity": 117}, {"time": 3295, "pitch": 69, "duration": 11, "velocity": 108}, {"time": 3310, "pitch": 74, "duration": 15, "velocity": 114}, {"time": 3328, "pitch": 74, "duration": 2, "velocity": 117}, {"time": 3331, "pitch": 76, "duration": 2, "velocity": 108}, {"time": 3334, "pitch": 74, "duration": 15, "velocity": 117}, {"time": 3352, "pitch": 71, "duration": 4, "velocity": 114}, {"time": 3358, "pitch": 72, "duration": 8, "velocity": 108}, {"time": 3367, "pitch": 69, "duration": 32, "velocity": 102}], "annotations": [{"time": 988, "annotation": {"number": 64, "value": 127}, "group": "control_change"}, {"time": 992, "annotation": {"number": 64, "value": 0}, "group": "control_change"}, {"time": 999, "annotation": {"number": 64, "value": 127}, "group": "control_change"}, {"time": 1006, "annotation": {"number": 64, "value": 0}, "group": "control_change"}]}, {"program": 0, "is_drum": false, "name": "PIANO", "notes": [{"time": 10, "pitch": 45, "duration": 22, "velocity": 80}, {"time": 13, "pitch": 52, "duration": 8, "velocity": 44}, {"time": 16, "pitch": 57, "duration": 4, "velocity": 47}, {"time": 19, "pitch": 60, "duration": 14, "velocity": 80}, {"time": 28, "pitch": 52, "duration": 5, "velocity": 39}, {"time": 31, "pitch": 57, "duration": 4, "velocity": 60}, {"time": 34, "pitch": 43, "duration": 17, "velocity": 82}, {"time": 37, "pitch": 50, "duration": 14, "velocity": 58}, {"time": 40, "pitch": 55, "duration": 14, "velocity": 67}, {"time": 43, "pitch": 59, "duration": 13, "velocity": 94}, {"time": 58, "pitch": 52, "duration": 14, "velocity": 100}, {"time": 61, "pitch": 59, "duration": 11, "velocity": 62}, {"time": 64, "pitch": 64, "duration": 17, "velocity": 47}, {"time": 67, "pitch": 67, "duration": 15, "velocity": 92}, {"time": 82, "pitch": 45, "duration": 19, "velocity": 80}, {"time": 85, "pitch": 52, "duration": 7, "velocity": 66}, {"time": 88, "pitch": 57, "duration": 17, "velocity": 67}, {"time": 91, "pitch": 60, "duration": 15, "velocity": 94}, {"time": 106, "pitch": 50, "duration": 22, "velocity": 92}, {"time": 109, "pitch": 57, "duration": 7, "velocity": 64}, {"time": 112, "pitch": 62, "duration": 13, "velocity": 66}, {"time": 115, "pitch": 65, "duration": 19, "velocity": 94}, {"time": 124, "pitch": 57, "duration": 5, "velocity": 52}, {"time": 127, "pitch": 62, "duration": 7, "velocity": 62}, {"time": 130, "pitch": 50, "duration": 18, "velocity": 89}, {"time": 133, "pitch": 57, "duration": 11, "velocity": 71}, {"time": 136, "pitch": 62, "duration": 17, "velocity": 80}, {"time": 139, "pitch": 65, "duration": 13, "velocity": 94}, {"time": 154, "pitch": 52, "duration": 18, "velocity": 94}, {"time": 157, "pitch": 59, "duration": 19, "velocity": 97}, {"time": 160, "pitch": 64, "duration": 15, "velocity": 76}, {"time": 163, "pitch": 67, "duration": 11, "velocity": 74}, {"time": 178, "pitch": 52, "duration": 21, "velocity": 97}, {"time": 181, "pitch": 59, "duration": 7, "velocity": 82}, {"time": 184, "pitch": 64, "duration": 4, "velocity": 78}, {"time": 187, "pitch": 67, "duration": 7, "velocity": 114}, {"time": 190, "pitch": 59, "duration": 8, "velocity": 76}, {"time": 193, "pitch": 64, "duration": 4, "velocity": 67}, {"time": 196, "pitch": 71, "duration": 5, "velocity": 97}, {"time": 199, "pitch": 64, "duration": 2, "velocity": 67}, {"time": 202, "pitch": 45, "duration": 22, "velocity": 80}, {"time": 205, "pitch": 52, "duration": 8, "velocity": 44}, {"time": 208, "pitch": 57, "duration": 4, "velocity": 47}, {"time": 211, "pitch": 60, "duration": 14, "velocity": 80}, {"time": 220, "pitch": 52, "duration": 5, "velocity": 39}, {"time": 223, "pitch": 57, "duration": 4, "velocity": 60}, {"time": 226, "pitch": 43, "duration": 17, "velocity": 82}, {"time": 229, "pitch": 50, "duration": 14, "velocity": 58}, {"time": 232, "pitch": 55, "duration": 14, "velocity": 67}, {"time": 235, "pitch": 59, "duration": 13, "velocity": 94}, {"time": 250, "pitch": 52, "duration": 14, "velocity": 100}, {"time": 253, "pitch": 59, "duration": 11, "velocity": 62}, {"time": 256, "pitch": 64, "duration": 17, "velocity": 47}, {"time": 259, "pitch": 67, "duration": 15, "velocity": 92}, {"time": 274, "pitch": 45, "duration": 19, "velocity": 80}, {"time": 277, "pitch": 52, "duration": 7, "velocity": 66}, {"time": 280, "pitch": 57, "duration": 17, "velocity": 67}, {"time": 283, "pitch": 60, "duration": 15, "velocity": 94}, {"time": 298, "pitch": 50, "duration": 22, "velocity": 92}, {"time": 301, "pitch": 57, "duration": 8, "velocity": 78}, {"time": 304, "pitch": 62, "duration": 18, "velocity": 92}, {"time": 307, "pitch": 65, "duration": 16, "velocity": 97}, {"time": 322, "pitch": 52, "duration": 18, "velocity": 97}, {"time": 325, "pitch": 59, "duration": 7, "velocity": 73}, {"time": 328, "pitch": 64, "duration": 4, "velocity": 94}, {"time": 331, "pitch": 67, "duration": 14, "velocity": 108}, {"time": 334, "pitch": 64, "duration": 11, "velocity": 15}, {"time": 346, "pitch": 45, "duration": 22, "velocity": 94}, {"time": 349, "pitch": 52, "duration": 7, "velocity": 62}, {"time": 352, "pitch": 57, "duration": 12, "velocity": 71}, {"time": 355, "pitch": 60, "duration": 13, "velocity": 102}, {"time": 364, "pitch": 52, "duration": 5, "velocity": 33}, {"time": 367, "pitch": 57, "duration": 2, "velocity": 71}, {"time": 370, "pitch": 45, "duration": 22, "velocity": 89}, {"time": 370, "pitch": 57, "duration": 21, "velocity": 87}, {"time": 370, "pitch": 60, "duration": 21, "velocity": 82}, {"time": 394, "pitch": 45, "duration": 22, "velocity": 84}, {"time": 394, "pitch": 57, "duration": 10, "velocity": 62}, {"time": 394, "pitch": 60, "duration": 8, "velocity": 71}, {"time": 400, "pitch": 52, "duration": 16, "velocity": 22}, {"time": 406, "pitch": 60, "duration": 7, "velocity": 84}, {"time": 406, "pitch": 64, "duration": 10, "velocity": 84}, {"time": 418, "pitch": 43, "duration": 13, "velocity": 84}, {"time": 418, "pitch": 55, "duration": 8, "velocity": 62}, {"time": 418, "pitch": 59, "duration": 8, "velocity": 69}, {"time": 424, "pitch": 50, "duration": 8, "velocity": 29}, {"time": 430, "pitch": 55, "duration": 3, "velocity": 84}, {"time": 430, "pitch": 59, "duration": 3, "velocity": 92}, {"time": 430, "pitch": 62, "duration": 3, "velocity": 84}, {"time": 442, "pitch": 52, "duration": 17, "velocity": 84}, {"time": 442, "pitch": 59, "duration": 4, "velocity": 78}, {"time": 442, "pitch": 64, "duration": 8, "velocity": 82}, {"time": 448, "pitch": 59, "duration": 3, "velocity": 41}, {"time": 454, "pitch": 59, "duration": 3, "velocity": 92}, {"time": 454, "pitch": 64, "duration": 5, "velocity": 87}, {"time": 454, "pitch": 67, "duration": 6, "velocity": 78}, {"time": 466, "pitch": 45, "duration": 14, "velocity": 94}, {"time": 466, "pitch": 57, "duration": 9, "velocity": 78}, {"time": 466, "pitch": 60, "duration": 7, "velocity": 73}, {"time": 472, "pitch": 52, "duration": 9, "velocity": 62}, {"time": 478, "pitch": 57, "duration": 4, "velocity": 80}, {"time": 478, "pitch": 60, "duration": 4, "velocity": 82}, {"time": 478, "pitch": 64, "duration": 4, "velocity": 76}, {"time": 490, "pitch": 50, "duration": 42, "velocity": 87}, {"time": 490, "pitch": 62, "duration": 7, "velocity": 66}, {"time": 490, "pitch": 65, "duration": 7, "velocity": 78}, {"time": 496, "pitch": 57, "duration": 20, "velocity": 51}, {"time": 502, "pitch": 62, "duration": 8, "velocity": 82}, {"time": 502, "pitch": 65, "duration": 8, "velocity": 97}, {"time": 514, "pitch": 62, "duration": 8, "velocity": 55}, {"time": 514, "pitch": 65, "duration": 8, "velocity": 71}, {"time": 520, "pitch": 57, "duration": 10, "velocity": 32}, {"time": 526, "pitch": 62, "duration": 7, "velocity": 76}, {"time": 526, "pitch": 65, "duration": 6, "velocity": 87}, {"time": 526, "pitch": 69, "duration": 6, "velocity": 82}, {"time": 538, "pitch": 43, "duration": 21, "velocity": 87}, {"time": 538, "pitch": 55, "duration": 9, "velocity": 62}, {"time": 538, "pitch": 59, "duration": 9, "velocity": 66}, {"time": 544, "pitch": 50, "duration": 13, "velocity": 52}, {"time": 550, "pitch": 55, "duration": 6, "velocity": 89}, {"time": 550, "pitch": 59, "duration": 6, "velocity": 100}, {"time": 550, "pitch": 62, "duration": 6, "velocity": 80}, {"time": 562, "pitch": 48, "duration": 3, "velocity": 84}, {"time": 562, "pitch": 55, "duration": 3, "velocity": 84}, {"time": 562, "pitch": 60, "duration": 4, "velocity": 92}, {"time": 574, "pitch": 52, "duration": 8, "velocity": 92}, {"time": 574, "pitch": 59, "duration": 6, "velocity": 94}, {"time": 574, "pitch": 64, "duration": 5, "velocity": 92}, {"time": 586, "pitch": 45, "duration": 19, "velocity": 89}, {"time": 586, "pitch": 57, "duration": 7, "velocity": 80}, {"time": 586, "pitch": 60, "duration": 7, "velocity": 76}, {"time": 592, "pitch": 52, "duration": 12, "velocity": 58}, {"time": 598, "pitch": 57, "duration": 6, "velocity": 92}, {"time": 598, "pitch": 60, "duration": 6, "velocity": 102}, {"time": 598, "pitch": 64, "duration": 6, "velocity": 84}, {"time": 610, "pitch": 43, "duration": 13, "velocity": 87}, {"time": 610, "pitch": 55, "duration": 7, "velocity": 71}, {"time": 610, "pitch": 59, "duration": 7, "velocity": 80}, {"time": 616, "pitch": 50, "duration": 7, "velocity": 41}, {"time": 622, "pitch": 55, "duration": 3, "velocity": 82}, {"time": 622, "pitch": 59, "duration": 3, "velocity": 97}, {"time": 622, "pitch": 62, "duration": 3, "velocity": 82}, {"time": 634, "pitch": 52, "duration": 15, "velocity": 87}, {"time": 634, "pitch": 59, "duration": 3, "velocity": 78}, {"time": 634, "pitch": 64, "duration": 7, "velocity": 82}, {"time": 640, "pitch": 59, "duration": 2, "velocity": 69}, {"time": 646, "pitch": 59, "duration": 3, "velocity": 94}, {"time": 646, "pitch": 64, "duration": 7, "velocity": 89}, {"time": 646, "pitch": 67, "duration": 7, "velocity": 76}, {"time": 652, "pitch": 59, "duration": 3, "velocity": 48}, {"time": 658, "pitch": 45, "duration": 20, "velocity": 92}, {"time": 658, "pitch": 57, "duration": 8, "velocity": 78}, {"time": 658, "pitch": 60, "duration": 8, "velocity": 78}, {"time": 664, "pitch": 52, "duration": 13, "velocity": 44}, {"time": 670, "pitch": 57, "duration": 3, "velocity": 84}, {"time": 670, "pitch": 60, "duration": 6, "velocity": 92}, {"time": 670, "pitch": 64, "duration": 7, "velocity": 73}, {"time": 682, "pitch": 50, "duration": 22, "velocity": 87}, {"time": 682, "pitch": 57, "duration": 3, "velocity": 89}, {"time": 682, "pitch": 62, "duration": 8, "velocity": 82}, {"time": 688, "pitch": 57, "duration": 4, "velocity": 39}, {"time": 694, "pitch": 62, "duration": 8, "velocity": 87}, {"time": 694, "pitch": 65, "duration": 7, "velocity": 80}, {"time": 700, "pitch": 57, "duration": 5, "velocity": 50}, {"time": 706, "pitch": 50, "duration": 15, "velocity": 82}, {"time": 706, "pitch": 62, "duration": 7, "velocity": 80}, {"time": 706, "pitch": 65, "duration": 7, "velocity": 76}, {"time": 718, "pitch": 57, "duration": 3, "velocity": 100}, {"time": 718, "pitch": 62, "duration": 6, "velocity": 102}, {"time": 718, "pitch": 65, "duration": 7, "velocity": 87}, {"time": 724, "pitch": 57, "duration": 2, "velocity": 73}, {"time": 730, "pitch": 43, "duration": 43, "velocity": 87}, {"time": 730, "pitch": 55, "duration": 8, "velocity": 69}, {"time": 730, "pitch": 59, "duration": 7, "velocity": 78}, {"time": 730, "pitch": 62, "duration": 7, "velocity": 69}, {"time": 736, "pitch": 50, "duration": 9, "velocity": 49}, {"time": 742, "pitch": 55, "duration": 8, "velocity": 82}, {"time": 742, "pitch": 59, "duration": 8, "velocity": 100}, {"time": 742, "pitch": 62, "duration": 8, "velocity": 84}, {"time": 754, "pitch": 55, "duration": 9, "velocity": 71}, {"time": 754, "pitch": 59, "duration": 9, "velocity": 82}, {"time": 754, "pitch": 62, "duration": 8, "velocity": 76}, {"time": 760, "pitch": 50, "duration": 16, "velocity": 67}, {"time": 766, "pitch": 55, "duration": 3, "velocity": 87}, {"time": 766, "pitch": 59, "duration": 8, "velocity": 100}, {"time": 766, "pitch": 62, "duration": 10, "velocity": 87}, {"time": 772, "pitch": 55, "duration": 2, "velocity": 57}, {"time": 778, "pitch": 45, "duration": 47, "velocity": 89}, {"time": 778, "pitch": 57, "duration": 13, "velocity": 82}, {"time": 778, "pitch": 60, "duration": 8, "velocity": 80}, {"time": 784, "pitch": 52, "duration": 8, "velocity": 62}, {"time": 790, "pitch": 60, "duration": 7, "velocity": 87}, {"time": 790, "pitch": 64, "duration": 7, "velocity": 87}, {"time": 796, "pitch": 52, "duration": 8, "velocity": 53}, {"time": 802, "pitch": 57, "duration": 7, "velocity": 62}, {"time": 802, "pitch": 60, "duration": 7, "velocity": 66}, {"time": 808, "pitch": 52, "duration": 7, "velocity": 51}, {"time": 814, "pitch": 57, "duration": 9, "velocity": 102}, {"time": 814, "pitch": 60, "duration": 9, "velocity": 105}, {"time": 814, "pitch": 64, "duration": 9, "velocity": 102}, {"time": 820, "pitch": 52, "duration": 5, "velocity": 84}, {"time": 826, "pitch": 45, "duration": 16, "velocity": 102}, {"time": 832, "pitch": 52, "duration": 8, "velocity": 92}, {"time": 838, "pitch": 57, "duration": 12, "velocity": 102}, {"time": 838, "pitch": 60, "duration": 12, "velocity": 102}, {"time": 844, "pitch": 52, "duration": 6, "velocity": 57}, {"time": 850, "pitch": 43, "duration": 20, "velocity": 87}, {"time": 856, "pitch": 50, "duration": 12, "velocity": 80}, {"time": 862, "pitch": 55, "duration": 8, "velocity": 89}, {"time": 862, "pitch": 59, "duration": 8, "velocity": 92}, {"time": 874, "pitch": 41, "duration": 5, "velocity": 84}, {"time": 874, "pitch": 53, "duration": 8, "velocity": 87}, {"time": 874, "pitch": 57, "duration": 11, "velocity": 89}, {"time": 886, "pitch": 43, "duration": 5, "velocity": 94}, {"time": 886, "pitch": 55, "duration": 5, "velocity": 82}, {"time": 886, "pitch": 59, "duration": 4, "velocity": 92}, {"time": 898, "pitch": 48, "duration": 18, "velocity": 87}, {"time": 898, "pitch": 55, "duration": 3, "velocity": 80}, {"time": 898, "pitch": 60, "duration": 7, "velocity": 82}, {"time": 904, "pitch": 55, "duration": 4, "velocity": 41}, {"time": 910, "pitch": 55, "duration": 3, "velocity": 89}, {"time": 910, "pitch": 60, "duration": 7, "velocity": 100}, {"time": 910, "pitch": 64, "duration": 9, "velocity": 84}, {"time": 916, "pitch": 55, "duration": 3, "velocity": 84}, {"time": 922, "pitch": 41, "duration": 20, "velocity": 87}, {"time": 922, "pitch": 53, "duration": 10, "velocity": 71}, {"time": 922, "pitch": 57, "duration": 7, "velocity": 82}, {"time": 928, "pitch": 48, "duration": 13, "velocity": 55}, {"time": 934, "pitch": 57, "duration": 10, "velocity": 94}, {"time": 934, "pitch": 60, "duration": 10, "velocity": 97}, {"time": 946, "pitch": 41, "duration": 17, "velocity": 78}, {"time": 946, "pitch": 53, "duration": 13, "velocity": 69}, {"time": 946, "pitch": 57, "duration": 10, "velocity": 82}, {"time": 952, "pitch": 48, "duration": 11, "velocity": 69}, {"time": 958, "pitch": 57, "duration": 8, "velocity": 97}, {"time": 958, "pitch": 60, "duration": 9, "velocity": 97}, {"time": 964, "pitch": 53, "duration": 2, "velocity": 89}, {"time": 970, "pitch": 43, "duration": 21, "velocity": 97}, {"time": 970, "pitch": 55, "duration": 13, "velocity": 80}, {"time": 970, "pitch": 59, "duration": 8, "velocity": 89}, {"time": 976, "pitch": 50, "duration": 13, "velocity": 57}, {"time": 982, "pitch": 59, "duration": 7, "velocity": 92}, {"time": 982, "pitch": 62, "duration": 8, "velocity": 84}, {"time": 988, "pitch": 55, "duration": 16, "velocity": 57}, {"time": 994, "pitch": 43, "duration": 18, "velocity": 92}, {"time": 994, "pitch": 59, "duration": 9, "velocity": 87}, {"time": 1000, "pitch": 50, "duration": 12, "velocity": 67}, {"time": 1006, "pitch": 55, "duration": 2, "velocity": 69}, {"time": 1006, "pitch": 59, "duration": 7, "velocity": 89}, {"time": 1006, "pitch": 62, "duration": 9, "velocity": 78}, {"time": 1012, "pitch": 55, "duration": 3, "velocity": 71}, {"time": 1018, "pitch": 45, "duration": 21, "velocity": 87}, {"time": 1018, "pitch": 57, "duration": 13, "velocity": 84}, {"time": 1018, "pitch": 60, "duration": 9, "velocity": 82}, {"time": 1024, "pitch": 52, "duration": 15, "velocity": 78}, {"time": 1030, "pitch": 60, "duration": 7, "velocity": 87}, {"time": 1030, "pitch": 64, "duration": 7, "velocity": 92}, {"time": 1036, "pitch": 57, "duration": 5, "velocity": 87}, {"time": 1042, "pitch": 43, "duration": 19, "velocity": 87}, {"time": 1042, "pitch": 55, "duration": 13, "velocity": 89}, {"time": 1042, "pitch": 59, "duration": 9, "velocity": 97}, {"time": 1048, "pitch": 50, "duration": 11, "velocity": 76}, {"time": 1054, "pitch": 59, "duration": 7, "velocity": 89}, {"time": 1054, "pitch": 62, "duration": 7, "velocity": 82}, {"time": 1060, "pitch": 55, "duration": 4, "velocity": 89}, {"time": 1066, "pitch": 41, "duration": 5, "velocity": 94}, {"time": 1066, "pitch": 53, "duration": 6, "velocity": 87}, {"time": 1066, "pitch": 57, "duration": 10, "velocity": 94}, {"time": 1078, "pitch": 43, "duration": 8, "velocity": 97}, {"time": 1078, "pitch": 55, "duration": 7, "velocity": 84}, {"time": 1078, "pitch": 59, "duration": 6, "velocity": 92}, {"time": 1090, "pitch": 48, "duration": 18, "velocity": 82}, {"time": 1090, "pitch": 55, "duration": 3, "velocity": 82}, {"time": 1090, "pitch": 60, "duration": 7, "velocity": 87}, {"time": 1096, "pitch": 55, "duration": 3, "velocity": 60}, {"time": 1102, "pitch": 55, "duration": 3, "velocity": 92}, {"time": 1102, "pitch": 60, "duration": 7, "velocity": 100}, {"time": 1102, "pitch": 64, "duration": 7, "velocity": 97}, {"time": 1108, "pitch": 55, "duration": 3, "velocity": 92}, {"time": 1114, "pitch": 41, "duration": 19, "velocity": 92}, {"time": 1114, "pitch": 53, "duration": 10, "velocity": 78}, {"time": 1114, "pitch": 57, "duration": 7, "velocity": 87}, {"time": 1120, "pitch": 48, "duration": 15, "velocity": 55}, {"time": 1126, "pitch": 57, "duration": 8, "velocity": 102}, {"time": 1126, "pitch": 60, "duration": 8, "velocity": 102}, {"time": 1132, "pitch": 53, "duration": 3, "velocity": 24}, {"time": 1138, "pitch": 43, "duration": 18, "velocity": 84}, {"time": 1138, "pitch": 55, "duration": 9, "velocity": 80}, {"time": 1138, "pitch": 59, "duration": 8, "velocity": 84}, {"time": 1144, "pitch": 50, "duration": 14, "velocity": 80}, {"time": 1150, "pitch": 55, "duration": 3, "velocity": 94}, {"time": 1150, "pitch": 59, "duration": 8, "velocity": 102}, {"time": 1150, "pitch": 62, "duration": 10, "velocity": 94}, {"time": 1156, "pitch": 55, "duration": 3, "velocity": 89}, {"time": 1162, "pitch": 45, "duration": 22, "velocity": 89}, {"time": 1162, "pitch": 57, "duration": 8, "velocity": 97}, {"time": 1162, "pitch": 60, "duration": 7, "velocity": 97}, {"time": 1168, "pitch": 52, "duration": 8, "velocity": 76}, {"time": 1174, "pitch": 57, "duration": 8, "velocity": 97}, {"time": 1174, "pitch": 60, "duration": 8, "velocity": 105}, {"time": 1174, "pitch": 64, "duration": 7, "velocity": 97}, {"time": 1180, "pitch": 52, "duration": 6, "velocity": 80}, {"time": 1186, "pitch": 45, "duration": 23, "velocity": 89}, {"time": 1186, "pitch": 57, "duration": 7, "velocity": 84}, {"time": 1186, "pitch": 60, "duration": 7, "velocity": 87}, {"time": 1186, "pitch": 64, "duration": 7, "velocity": 80}, {"time": 1192, "pitch": 52, "duration": 8, "velocity": 78}, {"time": 1198, "pitch": 57, "duration": 6, "velocity": 97}, {"time": 1198, "pitch": 60, "duration": 6, "velocity": 100}, {"time": 1204, "pitch": 52, "duration": 5, "velocity": 76}, {"time": 1204, "pitch": 59, "duration": 5, "velocity": 97}, {"time": 1210, "pitch": 45, "duration": 16, "velocity": 102}, {"time": 1216, "pitch": 52, "duration": 8, "velocity": 92}, {"time": 1222, "pitch": 57, "duration": 12, "velocity": 102}, {"time": 1222, "pitch": 60, "duration": 12, "velocity": 102}, {"time": 1228, "pitch": 52, "duration": 6, "velocity": 57}, {"time": 1234, "pitch": 43, "duration": 20, "velocity": 87}, {"time": 1240, "pitch": 50, "duration": 12, "velocity": 80}, {"time": 1246, "pitch": 55, "duration": 8, "velocity": 89}, {"time": 1246, "pitch": 59, "duration": 8, "velocity": 92}, {"time": 1258, "pitch": 41, "duration": 5, "velocity": 84}, {"time": 1258, "pitch": 53, "duration": 8, "velocity": 87}, {"time": 1258, "pitch": 57, "duration": 11, "velocity": 89}, {"time": 1270, "pitch": 43, "duration": 5, "velocity": 94}, {"time": 1270, "pitch": 55, "duration": 5, "velocity": 82}, {"time": 1270, "pitch": 59, "duration": 4, "velocity": 92}, {"time": 1282, "pitch": 48, "duration": 18, "velocity": 87}, {"time": 1282, "pitch": 55, "duration": 3, "velocity": 80}, {"time": 1282, "pitch": 60, "duration": 7, "velocity": 82}, {"time": 1288, "pitch": 55, "duration": 4, "velocity": 41}, {"time": 1294, "pitch": 55, "duration": 3, "velocity": 89}, {"time": 1294, "pitch": 60, "duration": 7, "velocity": 100}, {"time": 1294, "pitch": 64, "duration": 9, "velocity": 84}, {"time": 1300, "pitch": 55, "duration": 3, "velocity": 84}, {"time": 1306, "pitch": 41, "duration": 20, "velocity": 87}, {"time": 1306, "pitch": 53, "duration": 10, "velocity": 71}, {"time": 1306, "pitch": 57, "duration": 7, "velocity": 82}, {"time": 1312, "pitch": 48, "duration": 13, "velocity": 55}, {"time": 1318, "pitch": 57, "duration": 10, "velocity": 94}, {"time": 1318, "pitch": 60, "duration": 10, "velocity": 97}, {"time": 1330, "pitch": 41, "duration": 17, "velocity": 78}, {"time": 1330, "pitch": 53, "duration": 13, "velocity": 69}, {"time": 1330, "pitch": 57, "duration": 10, "velocity": 82}, {"time": 1336, "pitch": 48, "duration": 11, "velocity": 69}, {"time": 1342, "pitch": 57, "duration": 8, "velocity": 97}, {"time": 1342, "pitch": 60, "duration": 9, "velocity": 97}, {"time": 1348, "pitch": 53, "duration": 2, "velocity": 89}, {"time": 1354, "pitch": 43, "duration": 21, "velocity": 97}, {"time": 1354, "pitch": 55, "duration": 13, "velocity": 80}, {"time": 1354, "pitch": 59, "duration": 8, "velocity": 89}, {"time": 1360, "pitch": 50, "duration": 13, "velocity": 57}, {"time": 1366, "pitch": 59, "duration": 7, "velocity": 92}, {"time": 1366, "pitch": 62, "duration": 8, "velocity": 84}, {"time": 1372, "pitch": 55, "duration": 16, "velocity": 57}, {"time": 1378, "pitch": 43, "duration": 18, "velocity": 92}, {"time": 1378, "pitch": 59, "duration": 9, "velocity": 87}, {"time": 1384, "pitch": 50, "duration": 12, "velocity": 67}, {"time": 1390, "pitch": 55, "duration": 2, "velocity": 69}, {"time": 1390, "pitch": 59, "duration": 7, "velocity": 89}, {"time": 1390, "pitch": 62, "duration": 9, "velocity": 78}, {"time": 1396, "pitch": 55, "duration": 3, "velocity": 71}, {"time": 1402, "pitch": 45, "duration": 21, "velocity": 87}, {"time": 1402, "pitch": 57, "duration": 13, "velocity": 84}, {"time": 1402, "pitch": 60, "duration": 9, "velocity": 82}, {"time": 1408, "pitch": 52, "duration": 15, "velocity": 78}, {"time": 1414, "pitch": 60, "duration": 7, "velocity": 87}, {"time": 1414, "pitch": 64, "duration": 7, "velocity": 92}, {"time": 1420, "pitch": 57, "duration": 5, "velocity": 87}, {"time": 1426, "pitch": 43, "duration": 19, "velocity": 87}, {"time": 1426, "pitch": 55, "duration": 13, "velocity": 89}, {"time": 1426, "pitch": 59, "duration": 9, "velocity": 97}, {"time": 1432, "pitch": 50, "duration": 11, "velocity": 76}, {"time": 1438, "pitch": 59, "duration": 7, "velocity": 89}, {"time": 1438, "pitch": 62, "duration": 7, "velocity": 82}, {"time": 1444, "pitch": 55, "duration": 4, "velocity": 89}, {"time": 1450, "pitch": 41, "duration": 5, "velocity": 94}, {"time": 1450, "pitch": 53, "duration": 6, "velocity": 87}, {"time": 1450, "pitch": 57, "duration": 10, "velocity": 94}, {"time": 1462, "pitch": 43, "duration": 8, "velocity": 97}, {"time": 1462, "pitch": 55, "duration": 7, "velocity": 84}, {"time": 1462, "pitch": 59, "duration": 6, "velocity": 92}, {"time": 1474, "pitch": 48, "duration": 18, "velocity": 82}, {"time": 1474, "pitch": 55, "duration": 3, "velocity": 82}, {"time": 1474, "pitch": 60, "duration": 7, "velocity": 87}, {"time": 1480, "pitch": 55, "duration": 3, "velocity": 60}, {"time": 1486, "pitch": 55, "duration": 3, "velocity": 92}, {"time": 1486, "pitch": 60, "duration": 7, "velocity": 100}, {"time": 1486, "pitch": 64, "duration": 7, "velocity": 97}, {"time": 1492, "pitch": 55, "duration": 3, "velocity": 92}, {"time": 1498, "pitch": 41, "duration": 19, "velocity": 92}, {"time": 1498, "pitch": 53, "duration": 10, "velocity": 78}, {"time": 1498, "pitch": 57, "duration": 7, "velocity": 87}, {"time": 1504, "pitch": 48, "duration": 15, "velocity": 55}, {"time": 1510, "pitch": 57, "duration": 8, "velocity": 102}, {"time": 1510, "pitch": 60, "duration": 8, "velocity": 102}, {"time": 1516, "pitch": 53, "duration": 3, "velocity": 24}, {"time": 1522, "pitch": 43, "duration": 18, "velocity": 84}, {"time": 1522, "pitch": 55, "duration": 9, "velocity": 80}, {"time": 1522, "pitch": 59, "duration": 8, "velocity": 84}, {"time": 1528, "pitch": 50, "duration": 14, "velocity": 80}, {"time": 1534, "pitch": 55, "duration": 3, "velocity": 94}, {"time": 1534, "pitch": 59, "duration": 8, "velocity": 102}, {"time": 1534, "pitch": 62, "duration": 10, "velocity": 94}, {"time": 1540, "pitch": 55, "duration": 3, "velocity": 89}, {"time": 1546, "pitch": 45, "duration": 22, "velocity": 89}, {"time": 1546, "pitch": 57, "duration": 8, "velocity": 97}, {"time": 1546, "pitch": 60, "duration": 7, "velocity": 97}, {"time": 1552, "pitch": 52, "duration": 8, "velocity": 76}, {"time": 1558, "pitch": 57, "duration": 8, "velocity": 97}, {"time": 1558, "pitch": 60, "duration": 8, "velocity": 105}, {"time": 1558, "pitch": 64, "duration": 7, "velocity": 97}, {"time": 1564, "pitch": 52, "duration": 6, "velocity": 80}, {"time": 1570, "pitch": 45, "duration": 23, "velocity": 89}, {"time": 1570, "pitch": 57, "duration": 7, "velocity": 84}, {"time": 1570, "pitch": 60, "duration": 7, "velocity": 87}, {"time": 1570, "pitch": 64, "duration": 7, "velocity": 80}, {"time": 1594, "pitch": 45, "duration": 21, "velocity": 92}, {"time": 1597, "pitch": 52, "duration": 21, "velocity": 80}, {"time": 1600, "pitch": 57, "duration": 18, "velocity": 78}, {"time": 1603, "pitch": 60, "duration": 14, "velocity": 80}, {"time": 1618, "pitch": 43, "duration": 15, "velocity": 69}, {"time": 1621, "pitch": 50, "duration": 12, "velocity": 64}, {"time": 1624, "pitch": 55, "duration": 9, "velocity": 58}, {"time": 1627, "pitch": 59, "duration": 6, "velocity": 80}, {"time": 1642, "pitch": 52, "duration": 13, "velocity": 92}, {"time": 1645, "pitch": 59, "duration": 9, "velocity": 76}, {"time": 1648, "pitch": 64, "duration": 14, "velocity": 49}, {"time": 1651, "pitch": 67, "duration": 11, "velocity": 84}, {"time": 1666, "pitch": 45, "duration": 17, "velocity": 71}, {"time": 1669, "pitch": 52, "duration": 7, "velocity": 62}, {"time": 1672, "pitch": 57, "duration": 7, "velocity": 66}, {"time": 1675, "pitch": 60, "duration": 7, "velocity": 97}, {"time": 1678, "pitch": 52, "duration": 5, "velocity": 66}, {"time": 1681, "pitch": 57, "duration": 3, "velocity": 66}, {"time": 1684, "pitch": 60, "duration": 1, "velocity": 49}, {"time": 1690, "pitch": 53, "duration": 14, "velocity": 80}, {"time": 1690, "pitch": 60, "duration": 4, "velocity": 67}, {"time": 1690, "pitch": 65, "duration": 6, "velocity": 67}, {"time": 1693, "pitch": 57, "duration": 11, "velocity": 64}, {"time": 1696, "pitch": 60, "duration": 12, "velocity": 50}, {"time": 1699, "pitch": 65, "duration": 14, "velocity": 82}, {"time": 1714, "pitch": 43, "duration": 18, "velocity": 89}, {"time": 1717, "pitch": 50, "duration": 8, "velocity": 66}, {"time": 1720, "pitch": 55, "duration": 5, "velocity": 64}, {"time": 1723, "pitch": 59, "duration": 4, "velocity": 89}, {"time": 1726, "pitch": 62, "duration": 7, "velocity": 97}, {"time": 1729, "pitch": 50, "duration": 4, "velocity": 66}, {"time": 1732, "pitch": 55, "duration": 2, "velocity": 66}, {"time": 1738, "pitch": 48, "duration": 18, "velocity": 94}, {"time": 1738, "pitch": 60, "duration": 3, "velocity": 69}, {"time": 1738, "pitch": 64, "duration": 6, "velocity": 80}, {"time": 1741, "pitch": 55, "duration": 7, "velocity": 64}, {"time": 1744, "pitch": 60, "duration": 4, "velocity": 67}, {"time": 1747, "pitch": 62, "duration": 5, "velocity": 97}, {"time": 1750, "pitch": 55, "duration": 5, "velocity": 51}, {"time": 1753, "pitch": 64, "duration": 4, "velocity": 84}, {"time": 1762, "pitch": 52, "duration": 11, "velocity": 105}, {"time": 1762, "pitch": 59, "duration": 4, "velocity": 97}, {"time": 1762, "pitch": 64, "duration": 4, "velocity": 97}, {"time": 1771, "pitch": 59, "duration": 1, "velocity": 87}, {"time": 1774, "pitch": 52, "duration": 8, "velocity": 105}, {"time": 1774, "pitch": 59, "duration": 4, "velocity": 108}, {"time": 1774, "pitch": 64, "duration": 7, "velocity": 114}, {"time": 1774, "pitch": 68, "duration": 7, "velocity": 105}, {"time": 1780, "pitch": 59, "duration": 4, "velocity": 105}, {"time": 1786, "pitch": 41, "duration": 18, "velocity": 94}, {"time": 1786, "pitch": 53, "duration": 6, "velocity": 84}, {"time": 1786, "pitch": 57, "duration": 10, "velocity": 97}, {"time": 1792, "pitch": 48, "duration": 7, "velocity": 58}, {"time": 1795, "pitch": 53, "duration": 2, "velocity": 73}, {"time": 1798, "pitch": 53, "duration": 4, "velocity": 108}, {"time": 1798, "pitch": 57, "duration": 6, "velocity": 120}, {"time": 1798, "pitch": 60, "duration": 7, "velocity": 105}, {"time": 1801, "pitch": 48, "duration": 7, "velocity": 66}, {"time": 1804, "pitch": 53, "duration": 4, "velocity": 66}, {"time": 1807, "pitch": 57, "duration": 2, "velocity": 92}, {"time": 1810, "pitch": 43, "duration": 16, "velocity": 97}, {"time": 1810, "pitch": 55, "duration": 7, "velocity": 89}, {"time": 1810, "pitch": 59, "duration": 4, "velocity": 100}, {"time": 1816, "pitch": 50, "duration": 8, "velocity": 78}, {"time": 1822, "pitch": 55, "duration": 5, "velocity": 100}, {"time": 1822, "pitch": 59, "duration": 5, "velocity": 111}, {"time": 1822, "pitch": 62, "duration": 5, "velocity": 105}, {"time": 1828, "pitch": 43, "duration": 1, "velocity": 66}, {"time": 1828, "pitch": 50, "duration": 2, "velocity": 76}, {"time": 1834, "pitch": 52, "duration": 14, "velocity": 108}, {"time": 1834, "pitch": 59, "duration": 4, "velocity": 82}, {"time": 1834, "pitch": 64, "duration": 7, "velocity": 89}, {"time": 1840, "pitch": 59, "duration": 4, "velocity": 73}, {"time": 1846, "pitch": 59, "duration": 3, "velocity": 100}, {"time": 1846, "pitch": 64, "duration": 5, "velocity": 105}, {"time": 1846, "pitch": 67, "duration": 7, "velocity": 108}, {"time": 1849, "pitch": 52, "duration": 2, "velocity": 87}, {"time": 1852, "pitch": 59, "duration": 4, "velocity": 97}, {"time": 1855, "pitch": 64, "duration": 1, "velocity": 78}, {"time": 1858, "pitch": 45, "duration": 16, "velocity": 94}, {"time": 1858, "pitch": 57, "duration": 7, "velocity": 97}, {"time": 1858, "pitch": 60, "duration": 8, "velocity": 100}, {"time": 1864, "pitch": 52, "duration": 7, "velocity": 82}, {"time": 1867, "pitch": 57, "duration": 2, "velocity": 71}, {"time": 1870, "pitch": 57, "duration": 3, "velocity": 105}, {"time": 1870, "pitch": 60, "duration": 3, "velocity": 102}, {"time": 1870, "pitch": 64, "duration": 3, "velocity": 97}, {"time": 1873, "pitch": 52, "duration": 3, "velocity": 58}, {"time": 1876, "pitch": 45, "duration": 3, "velocity": 84}, {"time": 1882, "pitch": 41, "duration": 18, "velocity": 97}, {"time": 1882, "pitch": 53, "duration": 8, "velocity": 82}, {"time": 1882, "pitch": 57, "duration": 7, "velocity": 89}, {"time": 1888, "pitch": 48, "duration": 7, "velocity": 60}, {"time": 1894, "pitch": 53, "duration": 3, "velocity": 105}, {"time": 1894, "pitch": 60, "duration": 7, "velocity": 108}, {"time": 1897, "pitch": 48, "duration": 5, "velocity": 87}, {"time": 1900, "pitch": 53, "duration": 4, "velocity": 82}, {"time": 1903, "pitch": 57, "duration": 2, "velocity": 102}, {"time": 1906, "pitch": 43, "duration": 15, "velocity": 97}, {"time": 1906, "pitch": 55, "duration": 6, "velocity": 84}, {"time": 1906, "pitch": 59, "duration": 6, "velocity": 105}, {"time": 1912, "pitch": 50, "duration": 10, "velocity": 78}, {"time": 1918, "pitch": 55, "duration": 4, "velocity": 97}, {"time": 1918, "pitch": 59, "duration": 4, "velocity": 108}, {"time": 1918, "pitch": 62, "duration": 5, "velocity": 100}, {"time": 1924, "pitch": 43, "duration": 3, "velocity": 92}, {"time": 1930, "pitch": 45, "duration": 22, "velocity": 92}, {"time": 1930, "pitch": 57, "duration": 5, "velocity": 92}, {"time": 1930, "pitch": 60, "duration": 6, "velocity": 94}, {"time": 1936, "pitch": 52, "duration": 8, "velocity": 87}, {"time": 1942, "pitch": 72, "duration": 4, "velocity": 108}, {"time": 1945, "pitch": 52, "duration": 5, "velocity": 87}, {"time": 1948, "pitch": 71, "duration": 2, "velocity": 102}, {"time": 1954, "pitch": 45, "duration": 21, "velocity": 92}, {"time": 1954, "pitch": 64, "duration": 10, "velocity": 76}, {"time": 1954, "pitch": 69, "duration": 11, "velocity": 84}, {"time": 1960, "pitch": 52, "duration": 14, "velocity": 51}, {"time": 1966, "pitch": 64, "duration": 5, "velocity": 71}, {"time": 1966, "pitch": 69, "duration": 8, "velocity": 67}, {"time": 1978, "pitch": 45, "duration": 16, "velocity": 102}, {"time": 1984, "pitch": 52, "duration": 8, "velocity": 92}, {"time": 1990, "pitch": 57, "duration": 12, "velocity": 102}, {"time": 1990, "pitch": 60, "duration": 12, "velocity": 102}, {"time": 1996, "pitch": 52, "duration": 6, "velocity": 57}, {"time": 2002, "pitch": 43, "duration": 20, "velocity": 87}, {"time": 2008, "pitch": 50, "duration": 12, "velocity": 80}, {"time": 2014, "pitch": 55, "duration": 8, "velocity": 89}, {"time": 2014, "pitch": 59, "duration": 8, "velocity": 92}, {"time": 2026, "pitch": 41, "duration": 5, "velocity": 84}, {"time": 2026, "pitch": 53, "duration": 8, "velocity": 87}, {"time": 2026, "pitch": 57, "duration": 11, "velocity": 89}, {"time": 2038, "pitch": 43, "duration": 5, "velocity": 94}, {"time": 2038, "pitch": 55, "duration": 5, "velocity": 82}, {"time": 2038, "pitch": 59, "duration": 4, "velocity": 92}, {"time": 2050, "pitch": 48, "duration": 18, "velocity": 87}, {"time": 2050, "pitch": 55, "duration": 3, "velocity": 80}, {"time": 2050, "pitch": 60, "duration": 7, "velocity": 82}, {"time": 2056, "pitch": 55, "duration": 4, "velocity": 41}, {"time": 2062, "pitch": 55, "duration": 3, "velocity": 89}, {"time": 2062, "pitch": 60, "duration": 7, "velocity": 100}, {"time": 2062, "pitch": 64, "duration": 9, "velocity": 84}, {"time": 2068, "pitch": 55, "duration": 3, "velocity": 84}, {"time": 2074, "pitch": 41, "duration": 20, "velocity": 87}, {"time": 2074, "pitch": 53, "duration": 10, "velocity": 71}, {"time": 2074, "pitch": 57, "duration": 7, "velocity": 82}, {"time": 2080, "pitch": 48, "duration": 13, "velocity": 55}, {"time": 2086, "pitch": 57, "duration": 10, "velocity": 94}, {"time": 2086, "pitch": 60, "duration": 10, "velocity": 97}, {"time": 2098, "pitch": 41, "duration": 17, "velocity": 78}, {"time": 2098, "pitch": 53, "duration": 13, "velocity": 69}, {"time": 2098, "pitch": 57, "duration": 10, "velocity": 82}, {"time": 2104, "pitch": 48, "duration": 11, "velocity": 69}, {"time": 2110, "pitch": 57, "duration": 8, "velocity": 97}, {"time": 2110, "pitch": 60, "duration": 9, "velocity": 97}, {"time": 2116, "pitch": 53, "duration": 2, "velocity": 89}, {"time": 2122, "pitch": 43, "duration": 21, "velocity": 97}, {"time": 2122, "pitch": 55, "duration": 13, "velocity": 80}, {"time": 2122, "pitch": 59, "duration": 8, "velocity": 89}, {"time": 2128, "pitch": 50, "duration": 13, "velocity": 57}, {"time": 2134, "pitch": 59, "duration": 7, "velocity": 92}, {"time": 2134, "pitch": 62, "duration": 8, "velocity": 84}, {"time": 2140, "pitch": 55, "duration": 16, "velocity": 57}, {"time": 2146, "pitch": 43, "duration": 18, "velocity": 92}, {"time": 2146, "pitch": 59, "duration": 9, "velocity": 87}, {"time": 2152, "pitch": 50, "duration": 12, "velocity": 67}, {"time": 2158, "pitch": 55, "duration": 2, "velocity": 69}, {"time": 2158, "pitch": 59, "duration": 7, "velocity": 89}, {"time": 2158, "pitch": 62, "duration": 9, "velocity": 78}, {"time": 2164, "pitch": 55, "duration": 3, "velocity": 71}, {"time": 2170, "pitch": 45, "duration": 21, "velocity": 87}, {"time": 2170, "pitch": 57, "duration": 13, "velocity": 84}, {"time": 2170, "pitch": 60, "duration": 9, "velocity": 82}, {"time": 2176, "pitch": 52, "duration": 15, "velocity": 78}, {"time": 2182, "pitch": 60, "duration": 7, "velocity": 87}, {"time": 2182, "pitch": 64, "duration": 7, "velocity": 92}, {"time": 2188, "pitch": 57, "duration": 5, "velocity": 87}, {"time": 2194, "pitch": 43, "duration": 19, "velocity": 87}, {"time": 2194, "pitch": 55, "duration": 13, "velocity": 89}, {"time": 2194, "pitch": 59, "duration": 9, "velocity": 97}, {"time": 2200, "pitch": 50, "duration": 11, "velocity": 76}, {"time": 2206, "pitch": 59, "duration": 7, "velocity": 89}, {"time": 2206, "pitch": 62, "duration": 7, "velocity": 82}, {"time": 2212, "pitch": 55, "duration": 4, "velocity": 89}, {"time": 2218, "pitch": 41, "duration": 5, "velocity": 94}, {"time": 2218, "pitch": 53, "duration": 6, "velocity": 87}, {"time": 2218, "pitch": 57, "duration": 10, "velocity": 94}, {"time": 2230, "pitch": 43, "duration": 8, "velocity": 97}, {"time": 2230, "pitch": 55, "duration": 7, "velocity": 84}, {"time": 2230, "pitch": 59, "duration": 6, "velocity": 92}, {"time": 2242, "pitch": 48, "duration": 18, "velocity": 82}, {"time": 2242, "pitch": 55, "duration": 3, "velocity": 82}, {"time": 2242, "pitch": 60, "duration": 7, "velocity": 87}, {"time": 2248, "pitch": 55, "duration": 3, "velocity": 60}, {"time": 2254, "pitch": 55, "duration": 3, "velocity": 92}, {"time": 2254, "pitch": 60, "duration": 7, "velocity": 100}, {"time": 2254, "pitch": 64, "duration": 7, "velocity": 97}, {"time": 2260, "pitch": 55, "duration": 3, "velocity": 92}, {"time": 2266, "pitch": 41, "duration": 19, "velocity": 92}, {"time": 2266, "pitch": 53, "duration": 10, "velocity": 78}, {"time": 2266, "pitch": 57, "duration": 7, "velocity": 87}, {"time": 2272, "pitch": 48, "duration": 15, "velocity": 55}, {"time": 2278, "pitch": 57, "duration": 8, "velocity": 102}, {"time": 2278, "pitch": 60, "duration": 8, "velocity": 102}, {"time": 2284, "pitch": 53, "duration": 3, "velocity": 24}, {"time": 2290, "pitch": 43, "duration": 18, "velocity": 84}, {"time": 2290, "pitch": 55, "duration": 9, "velocity": 80}, {"time": 2290, "pitch": 59, "duration": 8, "velocity": 84}, {"time": 2296, "pitch": 50, "duration": 14, "velocity": 80}, {"time": 2302, "pitch": 55, "duration": 3, "velocity": 94}, {"time": 2302, "pitch": 59, "duration": 8, "velocity": 102}, {"time": 2302, "pitch": 62, "duration": 10, "velocity": 94}, {"time": 2308, "pitch": 55, "duration": 3, "velocity": 89}, {"time": 2314, "pitch": 45, "duration": 22, "velocity": 89}, {"time": 2314, "pitch": 57, "duration": 8, "velocity": 97}, {"time": 2314, "pitch": 60, "duration": 7, "velocity": 97}, {"time": 2320, "pitch": 52, "duration": 8, "velocity": 76}, {"time": 2326, "pitch": 57, "duration": 8, "velocity": 97}, {"time": 2326, "pitch": 60, "duration": 8, "velocity": 105}, {"time": 2326, "pitch": 64, "duration": 7, "velocity": 97}, {"time": 2332, "pitch": 52, "duration": 6, "velocity": 80}, {"time": 2338, "pitch": 45, "duration": 23, "velocity": 89}, {"time": 2338, "pitch": 57, "duration": 7, "velocity": 84}, {"time": 2338, "pitch": 60, "duration": 7, "velocity": 87}, {"time": 2338, "pitch": 64, "duration": 7, "velocity": 80}, {"time": 2362, "pitch": 45, "duration": 19, "velocity": 97}, {"time": 2362, "pitch": 57, "duration": 6, "velocity": 97}, {"time": 2362, "pitch": 60, "duration": 9, "velocity": 94}, {"time": 2368, "pitch": 52, "duration": 7, "velocity": 73}, {"time": 2371, "pitch": 57, "duration": 1, "velocity": 73}, {"time": 2374, "pitch": 57, "duration": 4, "velocity": 111}, {"time": 2374, "pitch": 60, "duration": 4, "velocity": 111}, {"time": 2377, "pitch": 52, "duration": 7, "velocity": 76}, {"time": 2380, "pitch": 57, "duration": 4, "velocity": 94}, {"time": 2386, "pitch": 43, "duration": 13, "velocity": 87}, {"time": 2386, "pitch": 55, "duration": 7, "velocity": 87}, {"time": 2386, "pitch": 59, "duration": 8, "velocity": 97}, {"time": 2392, "pitch": 50, "duration": 8, "velocity": 64}, {"time": 2395, "pitch": 55, "duration": 1, "velocity": 69}, {"time": 2398, "pitch": 55, "duration": 6, "velocity": 105}, {"time": 2398, "pitch": 59, "duration": 7, "velocity": 111}, {"time": 2410, "pitch": 52, "duration": 14, "velocity": 97}, {"time": 2410, "pitch": 59, "duration": 4, "velocity": 97}, {"time": 2410, "pitch": 64, "duration": 7, "velocity": 92}, {"time": 2416, "pitch": 59, "duration": 4, "velocity": 57}, {"time": 2419, "pitch": 64, "duration": 2, "velocity": 80}, {"time": 2422, "pitch": 59, "duration": 4, "velocity": 108}, {"time": 2422, "pitch": 64, "duration": 7, "velocity": 94}, {"time": 2422, "pitch": 67, "duration": 6, "velocity": 97}, {"time": 2425, "pitch": 52, "duration": 3, "velocity": 97}, {"time": 2428, "pitch": 59, "duration": 3, "velocity": 100}, {"time": 2434, "pitch": 45, "duration": 20, "velocity": 94}, {"time": 2434, "pitch": 57, "duration": 8, "velocity": 89}, {"time": 2434, "pitch": 60, "duration": 8, "velocity": 78}, {"time": 2440, "pitch": 52, "duration": 8, "velocity": 48}, {"time": 2446, "pitch": 57, "duration": 3, "velocity": 105}, {"time": 2446, "pitch": 60, "duration": 4, "velocity": 117}, {"time": 2446, "pitch": 64, "duration": 5, "velocity": 100}, {"time": 2449, "pitch": 52, "duration": 5, "velocity": 66}, {"time": 2452, "pitch": 57, "duration": 4, "velocity": 92}, {"time": 2458, "pitch": 50, "duration": 21, "velocity": 87}, {"time": 2458, "pitch": 57, "duration": 4, "velocity": 100}, {"time": 2458, "pitch": 62, "duration": 8, "velocity": 92}, {"time": 2464, "pitch": 53, "duration": 15, "velocity": 41}, {"time": 2470, "pitch": 57, "duration": 4, "velocity": 102}, {"time": 2470, "pitch": 62, "duration": 7, "velocity": 100}, {"time": 2470, "pitch": 65, "duration": 8, "velocity": 97}, {"time": 2476, "pitch": 57, "duration": 4, "velocity": 64}, {"time": 2482, "pitch": 50, "duration": 14, "velocity": 94}, {"time": 2482, "pitch": 57, "duration": 3, "velocity": 89}, {"time": 2482, "pitch": 62, "duration": 7, "velocity": 89}, {"time": 2482, "pitch": 65, "duration": 7, "velocity": 84}, {"time": 2488, "pitch": 57, "duration": 4, "velocity": 69}, {"time": 2494, "pitch": 57, "duration": 6, "velocity": 111}, {"time": 2494, "pitch": 62, "duration": 8, "velocity": 105}, {"time": 2500, "pitch": 50, "duration": 3, "velocity": 87}, {"time": 2503, "pitch": 57, "duration": 2, "velocity": 97}, {"time": 2506, "pitch": 43, "duration": 14, "velocity": 97}, {"time": 2506, "pitch": 55, "duration": 8, "velocity": 97}, {"time": 2506, "pitch": 59, "duration": 8, "velocity": 89}, {"time": 2512, "pitch": 50, "duration": 9, "velocity": 69}, {"time": 2518, "pitch": 55, "duration": 6, "velocity": 97}, {"time": 2518, "pitch": 59, "duration": 7, "velocity": 108}, {"time": 2518, "pitch": 62, "duration": 8, "velocity": 102}, {"time": 2524, "pitch": 43, "duration": 4, "velocity": 97}, {"time": 2530, "pitch": 48, "duration": 9, "velocity": 80}, {"time": 2530, "pitch": 55, "duration": 3, "velocity": 89}, {"time": 2530, "pitch": 60, "duration": 7, "velocity": 100}, {"time": 2536, "pitch": 55, "duration": 2, "velocity": 67}, {"time": 2542, "pitch": 52, "duration": 7, "velocity": 111}, {"time": 2542, "pitch": 59, "duration": 4, "velocity": 89}, {"time": 2542, "pitch": 64, "duration": 7, "velocity": 97}, {"time": 2548, "pitch": 59, "duration": 2, "velocity": 105}, {"time": 2554, "pitch": 45, "duration": 20, "velocity": 100}, {"time": 2554, "pitch": 57, "duration": 8, "velocity": 94}, {"time": 2554, "pitch": 60, "duration": 7, "velocity": 87}, {"time": 2560, "pitch": 52, "duration": 7, "velocity": 84}, {"time": 2566, "pitch": 57, "duration": 3, "velocity": 111}, {"time": 2566, "pitch": 64, "duration": 4, "velocity": 102}, {"time": 2569, "pitch": 52, "duration": 7, "velocity": 84}, {"time": 2572, "pitch": 57, "duration": 5, "velocity": 89}, {"time": 2575, "pitch": 60, "duration": 2, "velocity": 84}, {"time": 2578, "pitch": 43, "duration": 13, "velocity": 89}, {"time": 2578, "pitch": 55, "duration": 7, "velocity": 97}, {"time": 2578, "pitch": 59, "duration": 7, "velocity": 105}, {"time": 2584, "pitch": 50, "duration": 8, "velocity": 73}, {"time": 2590, "pitch": 55, "duration": 6, "velocity": 102}, {"time": 2590, "pitch": 59, "duration": 6, "velocity": 111}, {"time": 2590, "pitch": 62, "duration": 7, "velocity": 66}, {"time": 2596, "pitch": 43, "duration": 2, "velocity": 97}, {"time": 2602, "pitch": 52, "duration": 17, "velocity": 73}, {"time": 2602, "pitch": 59, "duration": 4, "velocity": 100}, {"time": 2602, "pitch": 64, "duration": 9, "velocity": 92}, {"time": 2608, "pitch": 59, "duration": 4, "velocity": 78}, {"time": 2614, "pitch": 59, "duration": 2, "velocity": 100}, {"time": 2614, "pitch": 64, "duration": 7, "velocity": 100}, {"time": 2614, "pitch": 67, "duration": 8, "velocity": 97}, {"time": 2620, "pitch": 59, "duration": 2, "velocity": 102}, {"time": 2626, "pitch": 45, "duration": 20, "velocity": 94}, {"time": 2626, "pitch": 57, "duration": 7, "velocity": 94}, {"time": 2626, "pitch": 60, "duration": 7, "velocity": 87}, {"time": 2632, "pitch": 52, "duration": 7, "velocity": 58}, {"time": 2635, "pitch": 57, "duration": 1, "velocity": 42}, {"time": 2638, "pitch": 57, "duration": 7, "velocity": 102}, {"time": 2638, "pitch": 60, "duration": 7, "velocity": 105}, {"time": 2638, "pitch": 64, "duration": 7, "velocity": 97}, {"time": 2644, "pitch": 52, "duration": 4, "velocity": 76}, {"time": 2650, "pitch": 50, "duration": 22, "velocity": 92}, {"time": 2650, "pitch": 57, "duration": 3, "velocity": 100}, {"time": 2650, "pitch": 62, "duration": 8, "velocity": 97}, {"time": 2656, "pitch": 57, "duration": 2, "velocity": 60}, {"time": 2662, "pitch": 57, "duration": 3, "velocity": 102}, {"time": 2662, "pitch": 62, "duration": 6, "velocity": 108}, {"time": 2662, "pitch": 65, "duration": 9, "velocity": 92}, {"time": 2668, "pitch": 57, "duration": 4, "velocity": 57}, {"time": 2671, "pitch": 62, "duration": 2, "velocity": 67}, {"time": 2674, "pitch": 50, "duration": 14, "velocity": 87}, {"time": 2674, "pitch": 57, "duration": 3, "velocity": 71}, {"time": 2674, "pitch": 62, "duration": 7, "velocity": 92}, {"time": 2674, "pitch": 69, "duration": 6, "velocity": 78}, {"time": 2680, "pitch": 57, "duration": 3, "velocity": 73}, {"time": 2686, "pitch": 57, "duration": 4, "velocity": 105}, {"time": 2686, "pitch": 62, "duration": 7, "velocity": 108}, {"time": 2686, "pitch": 65, "duration": 8, "velocity": 97}, {"time": 2692, "pitch": 50, "duration": 2, "velocity": 84}, {"time": 2698, "pitch": 43, "duration": 20, "velocity": 100}, {"time": 2698, "pitch": 55, "duration": 8, "velocity": 92}, {"time": 2698, "pitch": 59, "duration": 8, "velocity": 97}, {"time": 2704, "pitch": 50, "duration": 8, "velocity": 55}, {"time": 2710, "pitch": 55, "duration": 3, "velocity": 102}, {"time": 2710, "pitch": 59, "duration": 3, "velocity": 111}, {"time": 2710, "pitch": 62, "duration": 3, "velocity": 102}, {"time": 2713, "pitch": 50, "duration": 5, "velocity": 73}, {"time": 2716, "pitch": 55, "duration": 2, "velocity": 67}, {"time": 2719, "pitch": 59, "duration": 2, "velocity": 58}, {"time": 2722, "pitch": 43, "duration": 14, "velocity": 94}, {"time": 2722, "pitch": 55, "duration": 8, "velocity": 73}, {"time": 2722, "pitch": 59, "duration": 8, "velocity": 84}, {"time": 2728, "pitch": 50, "duration": 9, "velocity": 41}, {"time": 2734, "pitch": 55, "duration": 6, "velocity": 94}, {"time": 2734, "pitch": 59, "duration": 6, "velocity": 111}, {"time": 2740, "pitch": 43, "duration": 4, "velocity": 97}, {"time": 2746, "pitch": 45, "duration": 23, "velocity": 94}, {"time": 2746, "pitch": 57, "duration": 4, "velocity": 92}, {"time": 2746, "pitch": 60, "duration": 4, "velocity": 92}, {"time": 2752, "pitch": 57, "duration": 2, "velocity": 43}, {"time": 2752, "pitch": 60, "duration": 2, "velocity": 43}, {"time": 2758, "pitch": 57, "duration": 6, "velocity": 111}, {"time": 2758, "pitch": 60, "duration": 7, "velocity": 114}, {"time": 2764, "pitch": 52, "duration": 5, "velocity": 87}, {"time": 2767, "pitch": 57, "duration": 2, "velocity": 76}, {"time": 2767, "pitch": 60, "duration": 2, "velocity": 78}, {"time": 2770, "pitch": 45, "duration": 23, "velocity": 105}, {"time": 2770, "pitch": 52, "duration": 13, "velocity": 97}, {"time": 2770, "pitch": 57, "duration": 4, "velocity": 108}, {"time": 2770, "pitch": 60, "duration": 4, "velocity": 105}, {"time": 2776, "pitch": 57, "duration": 1, "velocity": 43}, {"time": 2776, "pitch": 60, "duration": 1, "velocity": 73}, {"time": 2776, "pitch": 64, "duration": 1, "velocity": 76}, {"time": 2779, "pitch": 57, "duration": 2, "velocity": 92}, {"time": 2779, "pitch": 60, "duration": 2, "velocity": 102}, {"time": 2779, "pitch": 64, "duration": 2, "velocity": 105}, {"time": 2782, "pitch": 57, "duration": 3, "velocity": 114}, {"time": 2782, "pitch": 60, "duration": 3, "velocity": 120}, {"time": 2782, "pitch": 64, "duration": 4, "velocity": 114}, {"time": 2785, "pitch": 52, "duration": 9, "velocity": 94}, {"time": 2788, "pitch": 57, "duration": 5, "velocity": 100}, {"time": 2791, "pitch": 60, "duration": 1, "velocity": 44}, {"time": 2791, "pitch": 64, "duration": 1, "velocity": 69}, {"time": 2794, "pitch": 45, "duration": 19, "velocity": 97}, {"time": 2794, "pitch": 57, "duration": 6, "velocity": 97}, {"time": 2794, "pitch": 60, "duration": 9, "velocity": 94}, {"time": 2800, "pitch": 52, "duration": 7, "velocity": 73}, {"time": 2803, "pitch": 57, "duration": 1, "velocity": 73}, {"time": 2806, "pitch": 57, "duration": 4, "velocity": 111}, {"time": 2806, "pitch": 60, "duration": 4, "velocity": 111}, {"time": 2809, "pitch": 52, "duration": 7, "velocity": 76}, {"time": 2812, "pitch": 57, "duration": 4, "velocity": 94}, {"time": 2818, "pitch": 43, "duration": 13, "velocity": 87}, {"time": 2818, "pitch": 55, "duration": 7, "velocity": 87}, {"time": 2818, "pitch": 59, "duration": 8, "velocity": 97}, {"time": 2824, "pitch": 50, "duration": 8, "velocity": 64}, {"time": 2827, "pitch": 55, "duration": 1, "velocity": 69}, {"time": 2830, "pitch": 55, "duration": 6, "velocity": 105}, {"time": 2830, "pitch": 59, "duration": 7, "velocity": 111}, {"time": 2842, "pitch": 52, "duration": 14, "velocity": 97}, {"time": 2842, "pitch": 59, "duration": 4, "velocity": 97}, {"time": 2842, "pitch": 64, "duration": 7, "velocity": 92}, {"time": 2848, "pitch": 59, "duration": 4, "velocity": 57}, {"time": 2851, "pitch": 64, "duration": 2, "velocity": 80}, {"time": 2854, "pitch": 59, "duration": 4, "velocity": 108}, {"time": 2854, "pitch": 64, "duration": 7, "velocity": 94}, {"time": 2854, "pitch": 67, "duration": 6, "velocity": 97}, {"time": 2857, "pitch": 52, "duration": 3, "velocity": 97}, {"time": 2860, "pitch": 59, "duration": 3, "velocity": 100}, {"time": 2866, "pitch": 45, "duration": 20, "velocity": 94}, {"time": 2866, "pitch": 57, "duration": 8, "velocity": 89}, {"time": 2866, "pitch": 60, "duration": 8, "velocity": 78}, {"time": 2872, "pitch": 52, "duration": 8, "velocity": 48}, {"time": 2878, "pitch": 57, "duration": 3, "velocity": 105}, {"time": 2878, "pitch": 60, "duration": 4, "velocity": 117}, {"time": 2878, "pitch": 64, "duration": 5, "velocity": 100}, {"time": 2881, "pitch": 52, "duration": 5, "velocity": 66}, {"time": 2884, "pitch": 57, "duration": 4, "velocity": 92}, {"time": 2890, "pitch": 50, "duration": 21, "velocity": 87}, {"time": 2890, "pitch": 57, "duration": 4, "velocity": 100}, {"time": 2890, "pitch": 62, "duration": 8, "velocity": 92}, {"time": 2896, "pitch": 53, "duration": 15, "velocity": 41}, {"time": 2902, "pitch": 57, "duration": 4, "velocity": 102}, {"time": 2902, "pitch": 62, "duration": 7, "velocity": 100}, {"time": 2902, "pitch": 65, "duration": 8, "velocity": 97}, {"time": 2908, "pitch": 57, "duration": 4, "velocity": 64}, {"time": 2914, "pitch": 50, "duration": 14, "velocity": 94}, {"time": 2914, "pitch": 57, "duration": 3, "velocity": 89}, {"time": 2914, "pitch": 62, "duration": 7, "velocity": 89}, {"time": 2914, "pitch": 65, "duration": 7, "velocity": 84}, {"time": 2920, "pitch": 57, "duration": 4, "velocity": 69}, {"time": 2926, "pitch": 57, "duration": 6, "velocity": 111}, {"time": 2926, "pitch": 62, "duration": 8, "velocity": 105}, {"time": 2932, "pitch": 50, "duration": 3, "velocity": 87}, {"time": 2935, "pitch": 57, "duration": 2, "velocity": 97}, {"time": 2938, "pitch": 43, "duration": 14, "velocity": 97}, {"time": 2938, "pitch": 55, "duration": 8, "velocity": 97}, {"time": 2938, "pitch": 59, "duration": 8, "velocity": 89}, {"time": 2944, "pitch": 50, "duration": 9, "velocity": 69}, {"time": 2950, "pitch": 55, "duration": 6, "velocity": 97}, {"time": 2950, "pitch": 59, "duration": 7, "velocity": 108}, {"time": 2950, "pitch": 62, "duration": 8, "velocity": 102}, {"time": 2956, "pitch": 43, "duration": 4, "velocity": 97}, {"time": 2962, "pitch": 48, "duration": 9, "velocity": 80}, {"time": 2962, "pitch": 55, "duration": 3, "velocity": 89}, {"time": 2962, "pitch": 60, "duration": 7, "velocity": 100}, {"time": 2968, "pitch": 55, "duration": 2, "velocity": 67}, {"time": 2974, "pitch": 52, "duration": 7, "velocity": 111}, {"time": 2974, "pitch": 59, "duration": 4, "velocity": 89}, {"time": 2974, "pitch": 64, "duration": 7, "velocity": 97}, {"time": 2980, "pitch": 59, "duration": 2, "velocity": 105}, {"time": 2986, "pitch": 45, "duration": 20, "velocity": 100}, {"time": 2986, "pitch": 57, "duration": 8, "velocity": 94}, {"time": 2986, "pitch": 60, "duration": 7, "velocity": 87}, {"time": 2992, "pitch": 52, "duration": 7, "velocity": 84}, {"time": 2998, "pitch": 57, "duration": 3, "velocity": 111}, {"time": 2998, "pitch": 64, "duration": 4, "velocity": 102}, {"time": 3001, "pitch": 52, "duration": 7, "velocity": 84}, {"time": 3004, "pitch": 57, "duration": 5, "velocity": 89}, {"time": 3007, "pitch": 60, "duration": 2, "velocity": 84}, {"time": 3010, "pitch": 43, "duration": 13, "velocity": 89}, {"time": 3010, "pitch": 55, "duration": 7, "velocity": 97}, {"time": 3010, "pitch": 59, "duration": 7, "velocity": 105}, {"time": 3016, "pitch": 50, "duration": 8, "velocity": 73}, {"time": 3022, "pitch": 55, "duration": 6, "velocity": 102}, {"time": 3022, "pitch": 59, "duration": 6, "velocity": 111}, {"time": 3022, "pitch": 62, "duration": 7, "velocity": 66}, {"time": 3028, "pitch": 43, "duration": 2, "velocity": 97}, {"time": 3034, "pitch": 52, "duration": 17, "velocity": 73}, {"time": 3034, "pitch": 59, "duration": 4, "velocity": 100}, {"time": 3034, "pitch": 64, "duration": 9, "velocity": 92}, {"time": 3040, "pitch": 59, "duration": 4, "velocity": 78}, {"time": 3046, "pitch": 59, "duration": 2, "velocity": 100}, {"time": 3046, "pitch": 64, "duration": 7, "velocity": 100}, {"time": 3046, "pitch": 67, "duration": 8, "velocity": 97}, {"time": 3052, "pitch": 59, "duration": 2, "velocity": 102}, {"time": 3058, "pitch": 45, "duration": 20, "velocity": 94}, {"time": 3058, "pitch": 57, "duration": 7, "velocity": 94}, {"time": 3058, "pitch": 60, "duration": 7, "velocity": 87}, {"time": 3064, "pitch": 52, "duration": 7, "velocity": 58}, {"time": 3067, "pitch": 57, "duration": 1, "velocity": 42}, {"time": 3070, "pitch": 57, "duration": 7, "velocity": 102}, {"time": 3070, "pitch": 60, "duration": 7, "velocity": 105}, {"time": 3070, "pitch": 64, "duration": 7, "velocity": 97}, {"time": 3076, "pitch": 52, "duration": 4, "velocity": 76}, {"time": 3082, "pitch": 50, "duration": 22, "velocity": 92}, {"time": 3082, "pitch": 57, "duration": 3, "velocity": 100}, {"time": 3082, "pitch": 62, "duration": 8, "velocity": 97}, {"time": 3088, "pitch": 57, "duration": 2, "velocity": 60}, {"time": 3094, "pitch": 57, "duration": 3, "velocity": 102}, {"time": 3094, "pitch": 62, "duration": 6, "velocity": 108}, {"time": 3094, "pitch": 65, "duration": 9, "velocity": 92}, {"time": 3100, "pitch": 57, "duration": 4, "velocity": 57}, {"time": 3103, "pitch": 62, "duration": 2, "velocity": 67}, {"time": 3106, "pitch": 50, "duration": 14, "velocity": 87}, {"time": 3106, "pitch": 57, "duration": 3, "velocity": 71}, {"time": 3106, "pitch": 62, "duration": 7, "velocity": 92}, {"time": 3106, "pitch": 69, "duration": 6, "velocity": 78}, {"time": 3112, "pitch": 57, "duration": 3, "velocity": 73}, {"time": 3118, "pitch": 57, "duration": 4, "velocity": 105}, {"time": 3118, "pitch": 62, "duration": 7, "velocity": 108}, {"time": 3118, "pitch": 65, "duration": 8, "velocity": 97}, {"time": 3124, "pitch": 50, "duration": 2, "velocity": 84}, {"time": 3130, "pitch": 43, "duration": 20, "velocity": 100}, {"time": 3130, "pitch": 55, "duration": 8, "velocity": 92}, {"time": 3130, "pitch": 59, "duration": 8, "velocity": 97}, {"time": 3136, "pitch": 50, "duration": 8, "velocity": 55}, {"time": 3142, "pitch": 55, "duration": 3, "velocity": 102}, {"time": 3142, "pitch": 59, "duration": 3, "velocity": 111}, {"time": 3142, "pitch": 62, "duration": 3, "velocity": 102}, {"time": 3145, "pitch": 50, "duration": 5, "velocity": 73}, {"time": 3148, "pitch": 55, "duration": 2, "velocity": 67}, {"time": 3151, "pitch": 59, "duration": 2, "velocity": 58}, {"time": 3154, "pitch": 52, "duration": 14, "velocity": 97}, {"time": 3154, "pitch": 59, "duration": 16, "velocity": 64}, {"time": 3155, "pitch": 64, "duration": 18, "velocity": 94}, {"time": 3173, "pitch": 52, "duration": 28, "velocity": 27}, {"time": 3176, "pitch": 59, "duration": 24, "velocity": 58}, {"time": 3177, "pitch": 64, "duration": 33, "velocity": 33}, {"time": 3178, "pitch": 67, "duration": 32, "velocity": 57}, {"time": 3179, "pitch": 71, "duration": 31, "velocity": 39}, {"time": 3214, "pitch": 45, "duration": 22, "velocity": 80}, {"time": 3217, "pitch": 52, "duration": 8, "velocity": 44}, {"time": 3220, "pitch": 57, "duration": 4, "velocity": 47}, {"time": 3223, "pitch": 60, "duration": 14, "velocity": 80}, {"time": 3232, "pitch": 52, "duration": 5, "velocity": 39}, {"time": 3235, "pitch": 57, "duration": 4, "velocity": 60}, {"time": 3238, "pitch": 43, "duration": 17, "velocity": 82}, {"time": 3241, "pitch": 50, "duration": 14, "velocity": 58}, {"time": 3244, "pitch": 55, "duration": 14, "velocity": 67}, {"time": 3247, "pitch": 59, "duration": 13, "velocity": 94}, {"time": 3262, "pitch": 52, "duration": 14, "velocity": 100}, {"time": 3265, "pitch": 59, "duration": 11, "velocity": 62}, {"time": 3268, "pitch": 64, "duration": 17, "velocity": 47}, {"time": 3271, "pitch": 67, "duration": 15, "velocity": 92}, {"time": 3286, "pitch": 45, "duration": 19, "velocity": 80}, {"time": 3289, "pitch": 52, "duration": 7, "velocity": 66}, {"time": 3292, "pitch": 57, "duration": 17, "velocity": 67}, {"time": 3295, "pitch": 60, "duration": 15, "velocity": 94}, {"time": 3310, "pitch": 50, "duration": 22, "velocity": 92}, {"time": 3313, "pitch": 57, "duration": 8, "velocity": 78}, {"time": 3316, "pitch": 62, "duration": 18, "velocity": 92}, {"time": 3319, "pitch": 65, "duration": 16, "velocity": 97}, {"time": 3334, "pitch": 52, "duration": 18, "velocity": 97}, {"time": 3337, "pitch": 59, "duration": 7, "velocity": 73}, {"time": 3340, "pitch": 64, "duration": 4, "velocity": 94}, {"time": 3343, "pitch": 67, "duration": 14, "velocity": 108}, {"time": 3346, "pitch": 64, "duration": 11, "velocity": 15}, {"time": 3358, "pitch": 45, "duration": 22, "velocity": 94}, {"time": 3361, "pitch": 52, "duration": 7, "velocity": 62}, {"time": 3364, "pitch": 57, "duration": 12, "velocity": 71}, {"time": 3367, "pitch": 60, "duration": 13, "velocity": 102}, {"time": 3376, "pitch": 52, "duration": 5, "velocity": 33}, {"time": 3379, "pitch": 57, "duration": 2, "velocity": 71}, {"time": 3382, "pitch": 45, "duration": 44, "velocity": 84}, {"time": 3386, "pitch": 52, "duration": 40, "velocity": 80}, {"time": 3390, "pitch": 57, "duration": 36, "velocity": 62}, {"time": 3394, "pitch": 60, "duration": 32, "velocity": 84}, {"time": 3399, "pitch": 64, "duration": 27, "velocity": 67}, {"time": 3406, "pitch": 69, "duration": 20, "velocity": 33}], "annotations": [{"time": 16, "annotation": {"number": 64, "value": 127}, "group": "control_change"}, {"time": 17, "annotation": {"number": 64, "value": 0}, "group": "control_change"}, {"time": 18, "annotation": {"number": 64, "value": 127}, "group": "control_change"}, {"time": 33, "annotation": {"number": 64, "value": 0}, "group": "control_change"}, {"time": 40, "annotation": {"number": 64, "value": 127}, "group": "control_change"}, {"time": 57, "annotation": {"number": 64, "value": 0}, "group": "control_change"}, {"time": 61, "annotation": {"number": 64, "value": 127}, "group": "control_change"}, {"time": 82, "annotation": {"number": 64, "value": 0}, "group": "control_change"}, {"time": 92, "annotation": {"number": 64, "value": 127}, "group": "control_change"}, {"time": 107, "annotation": {"number": 64, "value": 0}, "group": "control_change"}, {"time": 111, "annotation": {"number": 64, "value": 127}, "group": "control_change"}, {"time": 129, "annotation": {"number": 64, "value": 0}, "group": "control_change"}, {"time": 133, "annotation": {"number": 64, "value": 127}, "group": "control_change"}, {"time": 155, "annotation": {"number": 64, "value": 0}, "group": "control_change"}, {"time": 159, "annotation": {"number": 64, "value": 127}, "group": "control_change"}, {"time": 177, "annotation": {"number": 64, "value": 0}, "group": "control_change"}, {"time": 180, "annotation": {"number": 64, "value": 127}, "group": "control_change"}, {"time": 201, "annotation": {"number": 64, "value": 0}, "group": "control_change"}, {"time": 208, "annotation": {"number": 64, "value": 127}, "group": "control_change"}, {"time": 209, "annotation": {"number": 64, "value": 0}, "group": "control_change"}, {"time": 210, "annotation": {"number": 64, "value": 127}, "group": "control_change"}, {"time": 225, "annotation": {"number": 64, "value": 0}, "group": "control_change"}, {"time": 232, "annotation": {"number": 64, "value": 127}, "group": "control_change"}, {"time": 249, "annotation": {"number": 64, "value": 0}, "group": "control_change"}, {"time": 253, "annotation": {"number": 64, "value": 127}, "group": "control_change"}, {"time": 274, "annotation": {"number": 64, "value": 0}, "group": "control_change"}, {"time": 284, "annotation": {"number": 64, "value": 127}, "group": "control_change"}, {"time": 302, "annotation": {"number": 64, "value": 127}, "group": "control_change"}, {"time": 323, "annotation": {"number": 64, "value": 0}, "group": "control_change"}, {"time": 328, "annotation": {"number": 64, "value": 127}, "group": "control_change"}, {"time": 345, "annotation": {"number": 64, "value": 0}, "group": "control_change"}, {"time": 350, "annotation": {"number": 64, "value": 127}, "group": "control_change"}, {"time": 370, "annotation": {"number": 64, "value": 0}, "group": "control_change"}, {"time": 400, "annotation": {"number": 64, "value": 127}, "group": "control_change"}, {"time": 400, "annotation": {"number": 64, "value": 0}, "group": "control_change"}, {"time": 401, "annotation": {"number": 64, "value": 127}, "group": "control_change"}, {"time": 419, "annotation": {"number": 64, "value": 0}, "group": "control_change"}, {"time": 425, "annotation": {"number": 64, "value": 127}, "group": "control_change"}, {"time": 442, "annotation": {"number": 64, "value": 0}, "group": "control_change"}, {"time": 446, "annotation": {"number": 64, "value": 127}, "group": "control_change"}, {"time": 466, "annotation": {"number": 64, "value": 0}, "group": "control_change"}, {"time": 473, "annotation": {"number": 64, "value": 127}, "group": "control_change"}, {"time": 489, "annotation": {"number": 64, "value": 0}, "group": "control_change"}, {"time": 494, "annotation": {"number": 64, "value": 127}, "group": "control_change"}, {"time": 523, "annotation": {"number": 64, "value": 0}, "group": "control_change"}, {"time": 526, "annotation": {"number": 64, "value": 127}, "group": "control_change"}, {"time": 538, "annotation": {"number": 64, "value": 0}, "group": "control_change"}, {"time": 544, "annotation": {"number": 64, "value": 127}, "group": "control_change"}, {"time": 560, "annotation": {"number": 64, "value": 0}, "group": "control_change"}, {"time": 562, "annotation": {"number": 64, "value": 127}, "group": "control_change"}, {"time": 573, "annotation": {"number": 64, "value": 0}, "group": "control_change"}, {"time": 575, "annotation": {"number": 64, "value": 127}, "group": "control_change"}, {"time": 584, "annotation": {"number": 64, "value": 0}, "group": "control_change"}, {"time": 591, "annotation": {"number": 64, "value": 127}, "group": "control_change"}, {"time": 610, "annotation": {"number": 64, "value": 0}, "group": "control_change"}, {"time": 616, "annotation": {"number": 64, "value": 127}, "group": "control_change"}, {"time": 633, "annotation": {"number": 64, "value": 0}, "group": "control_change"}, {"time": 637, "annotation": {"number": 64, "value": 127}, "group": "control_change"}, {"time": 658, "annotation": {"number": 64, "value": 0}, "group": "control_change"}, {"time": 665, "annotation": {"number": 64, "value": 127}, "group": "control_change"}, {"time": 681, "annotation": {"number": 64, "value": 0}, "group": "control_change"}, {"time": 687, "annotation": {"number": 64, "value": 127}, "group": "control_change"}, {"time": 729, "annotation": {"number": 64, "value": 0}, "group": "control_change"}, {"time": 733, "annotation": {"number": 64, "value": 127}, "group": "control_change"}, {"time": 762, "annotation": {"number": 64, "value": 0}, "group": "control_change"}, {"time": 767, "annotation": {"number": 64, "value": 127}, "group": "control_change"}, {"time": 777, "annotation": {"number": 64, "value": 0}, "group": "control_change"}, {"time": 784, "annotation": {"number": 64, "value": 127}, "group": "control_change"}, {"time": 825, "annotation": {"number": 64, "value": 0}, "group": "control_change"}, {"time": 833, "annotation": {"number": 64, "value": 127}, "group": "control_change"}, {"time": 833, "annotation": {"number": 64, "value": 0}, "group": "control_change"}, {"time": 834, "annotation": {"number": 64, "value": 127}, "group": "control_change"}, {"time": 849, "annotation": {"number": 64, "value": 0}, "group": "control_change"}, {"time": 856, "annotation": {"number": 64, "value": 127}, "group": "control_change"}, {"time": 873, "annotation": {"number": 64, "value": 0}, "group": "control_change"}, {"time": 876, "annotation": {"number": 64, "value": 127}, "group": "control_change"}, {"time": 885, "annotation": {"number": 64, "value": 0}, "group": "control_change"}, {"time": 887, "annotation": {"number": 64, "value": 127}, "group": "control_change"}, {"time": 896, "annotation": {"number": 64, "value": 0}, "group": "control_change"}, {"time": 901, "annotation": {"number": 64, "value": 127}, "group": "control_change"}, {"time": 921, "annotation": {"number": 64, "value": 0}, "group": "control_change"}, {"time": 929, "annotation": {"number": 64, "value": 127}, "group": "control_change"}, {"time": 950, "annotation": {"number": 64, "value": 0}, "group": "control_change"}, {"time": 955, "annotation": {"number": 64, "value": 127}, "group": "control_change"}, {"time": 969, "annotation": {"number": 64, "value": 0}, "group": "control_change"}, {"time": 976, "annotation": {"number": 64, "value": 127}, "group": "control_change"}, {"time": 994, "annotation": {"number": 64, "value": 0}, "group": "control_change"}, {"time": 1001, "annotation": {"number": 64, "value": 127}, "group": "control_change"}, {"time": 1018, "annotation": {"number": 64, "value": 0}, "group": "control_change"}, {"time": 1024, "annotation": {"number": 64, "value": 127}, "group": "control_change"}, {"time": 1042, "annotation": {"number": 64, "value": 0}, "group": "control_change"}, {"time": 1049, "annotation": {"number": 64, "value": 127}, "group": "control_change"}, {"time": 1064, "annotation": {"number": 64, "value": 0}, "group": "control_change"}, {"time": 1067, "annotation": {"number": 64, "value": 127}, "group": "control_change"}, {"time": 1076, "annotation": {"number": 64, "value": 0}, "group": "control_change"}, {"time": 1078, "annotation": {"number": 64, "value": 127}, "group": "control_change"}, {"time": 1089, "annotation": {"number": 64, "value": 0}, "group": "control_change"}, {"time": 1092, "annotation": {"number": 64, "value": 127}, "group": "control_change"}, {"time": 1113, "annotation": {"number": 64, "value": 0}, "group": "control_change"}, {"time": 1119, "annotation": {"number": 64, "value": 127}, "group": "control_change"}, {"time": 1137, "annotation": {"number": 64, "value": 0}, "group": "control_change"}, {"time": 1143, "annotation": {"number": 64, "value": 127}, "group": "control_change"}, {"time": 1161, "annotation": {"number": 64, "value": 0}, "group": "control_change"}, {"time": 1167, "annotation": {"number": 64, "value": 127}, "group": "control_change"}, {"time": 1185, "annotation": {"number": 64, "value": 0}, "group": "control_change"}, {"time": 1188, "annotation": {"number": 64, "value": 127}, "group": "control_change"}, {"time": 1209, "annotation": {"number": 64, "value": 0}, "group": "control_change"}, {"time": 1217, "annotation": {"number": 64, "value": 127}, "group": "control_change"}, {"time": 1217, "annotation": {"number": 64, "value": 0}, "group": "control_change"}, {"time": 1218, "annotation": {"number": 64, "value": 127}, "group": "control_change"}, {"time": 1233, "annotation": {"number": 64, "value": 0}, "group": "control_change"}, {"time": 1240, "annotation": {"number": 64, "value": 127}, "group": "control_change"}, {"time": 1257, "annotation": {"number": 64, "value": 0}, "group": "control_change"}, {"time": 1260, "annotation": {"number": 64, "value": 127}, "group": "control_change"}, {"time": 1269, "annotation": {"number": 64, "value": 0}, "group": "control_change"}, {"time": 1271, "annotation": {"number": 64, "value": 127}, "group": "control_change"}, {"time": 1280, "annotation": {"number": 64, "value": 0}, "group": "control_change"}, {"time": 1285, "annotation": {"number": 64, "value": 127}, "group": "control_change"}, {"time": 1305, "annotation": {"number": 64, "value": 0}, "group": "control_change"}, {"time": 1313, "annotation": {"number": 64, "value": 127}, "group": "control_change"}, {"time": 1334, "annotation": {"number": 64, "value": 0}, "group": "control_change"}, {"time": 1339, "annotation": {"number": 64, "value": 127}, "group": "control_change"}, {"time": 1353, "annotation": {"number": 64, "value": 0}, "group": "control_change"}, {"time": 1360, "annotation": {"number": 64, "value": 127}, "group": "control_change"}, {"time": 1378, "annotation": {"number": 64, "value": 0}, "group": "control_change"}, {"time": 1385, "annotation": {"number": 64, "value": 127}, "group": "control_change"}, {"time": 1402, "annotation": {"number": 64, "value": 0}, "group": "control_change"}, {"time": 1408, "annotation": {"number": 64, "value": 127}, "group": "control_change"}, {"time": 1426, "annotation": {"number": 64, "value": 0}, "group": "control_change"}, {"time": 1433, "annotation": {"number": 64, "value": 127}, "group": "control_change"}, {"time": 1448, "annotation": {"number": 64, "value": 0}, "group": "control_change"}, {"time": 1451, "annotation": {"number": 64, "value": 127}, "group": "control_change"}, {"time": 1460, "annotation": {"number": 64, "value": 0}, "group": "control_change"}, {"time": 1462, "annotation": {"number": 64, "value": 127}, "group": "control_change"}, {"time": 1473, "annotation": {"number": 64, "value": 0}, "group": "control_change"}, {"time": 1476, "annotation": {"number": 64, "value": 127}, "group": "control_change"}, {"time": 1497, "annotation": {"number": 64, "value": 0}, "group": "control_change"}, {"time": 1503, "annotation": {"number": 64, "value": 127}, "group": "control_change"}, {"time": 1521, "annotation": {"number": 64, "value": 0}, "group": "control_change"}, {"time": 1527, "annotation": {"number": 64, "value": 127}, "group": "control_change"}, {"time": 1545, "annotation": {"number": 64, "value": 0}, "group": "control_change"}, {"time": 1551, "annotation": {"number": 64, "value": 127}, "group": "control_change"}, {"time": 1569, "annotation": {"number": 64, "value": 0}, "group": "control_change"}, {"time": 1572, "annotation": {"number": 64, "value": 127}, "group": "control_change"}, {"time": 1593, "annotation": {"number": 64, "value": 0}, "group": "control_change"}, {"time": 1604, "annotation": {"number": 64, "value": 127}, "group": "control_change"}, {"time": 1605, "annotation": {"number": 64, "value": 0}, "group": "control_change"}, {"time": 1628, "annotation": {"number": 64, "value": 127}, "group": "control_change"}, {"time": 1640, "annotation": {"number": 64, "value": 0}, "group": "control_change"}, {"time": 1647, "annotation": {"number": 64, "value": 127}, "group": "control_change"}, {"time": 1664, "annotation": {"number": 64, "value": 0}, "group": "control_change"}, {"time": 1672, "annotation": {"number": 64, "value": 127}, "group": "control_change"}, {"time": 1691, "annotation": {"number": 64, "value": 0}, "group": "control_change"}, {"time": 1696, "annotation": {"number": 64, "value": 127}, "group": "control_change"}, {"time": 1713, "annotation": {"number": 64, "value": 0}, "group": "control_change"}, {"time": 1717, "annotation": {"number": 64, "value": 127}, "group": "control_change"}, {"time": 1737, "annotation": {"number": 64, "value": 0}, "group": "control_change"}, {"time": 1741, "annotation": {"number": 64, "value": 127}, "group": "control_change"}, {"time": 1761, "annotation": {"number": 64, "value": 0}, "group": "control_change"}, {"time": 1764, "annotation": {"number": 64, "value": 127}, "group": "control_change"}, {"time": 1785, "annotation": {"number": 64, "value": 0}, "group": "control_change"}, {"time": 1788, "annotation": {"number": 64, "value": 127}, "group": "control_change"}, {"time": 1809, "annotation": {"number": 64, "value": 0}, "group": "control_change"}, {"time": 1813, "annotation": {"number": 64, "value": 127}, "group": "control_change"}, {"time": 1834, "annotation": {"number": 64, "value": 0}, "group": "control_change"}, {"time": 1837, "annotation": {"number": 64, "value": 127}, "group": "control_change"}, {"time": 1859, "annotation": {"number": 64, "value": 0}, "group": "control_change"}, {"time": 1865, "annotation": {"number": 64, "value": 127}, "group": "control_change"}, {"time": 1882, "annotation": {"number": 64, "value": 0}, "group": "control_change"}, {"time": 1886, "annotation": {"number": 64, "value": 127}, "group": "control_change"}, {"time": 1906, "annotation": {"number": 64, "value": 0}, "group": "control_change"}, {"time": 1911, "annotation": {"number": 64, "value": 127}, "group": "control_change"}, {"time": 1929, "annotation": {"number": 64, "value": 0}, "group": "control_change"}, {"time": 1932, "annotation": {"number": 64, "value": 127}, "group": "control_change"}, {"time": 1955, "annotation": {"number": 64, "value": 0}, "group": "control_change"}, {"time": 1957, "annotation": {"number": 64, "value": 127}, "group": "control_change"}, {"time": 1985, "annotation": {"number": 64, "value": 127}, "group": "control_change"}, {"time": 1985, "annotation": {"number": 64, "value": 0}, "group": "control_change"}, {"time": 1986, "annotation": {"number": 64, "value": 127}, "group": "control_change"}, {"time": 2001, "annotation": {"number": 64, "value": 0}, "group": "control_change"}, {"time": 2008, "annotation": {"number": 64, "value": 127}, "group": "control_change"}, {"time": 2025, "annotation": {"number": 64, "value": 0}, "group": "control_change"}, {"time": 2028, "annotation": {"number": 64, "value": 127}, "group": "control_change"}, {"time": 2037, "annotation": {"number": 64, "value": 0}, "group": "control_change"}, {"time": 2039, "annotation": {"number": 64, "value": 127}, "group": "control_change"}, {"time": 2048, "annotation": {"number": 64, "value": 0}, "group": "control_change"}, {"time": 2053, "annotation": {"number": 64, "value": 127}, "group": "control_change"}, {"time": 2073, "annotation": {"number": 64, "value": 0}, "group": "control_change"}, {"time": 2081, "annotation": {"number": 64, "value": 127}, "group": "control_change"}, {"time": 2102, "annotation": {"number": 64, "value": 0}, "group": "control_change"}, {"time": 2107, "annotation": {"number": 64, "value": 127}, "group": "control_change"}, {"time": 2121, "annotation": {"number": 64, "value": 0}, "group": "control_change"}, {"time": 2128, "annotation": {"number": 64, "value": 127}, "group": "control_change"}, {"time": 2146, "annotation": {"number": 64, "value": 0}, "group": "control_change"}, {"time": 2153, "annotation": {"number": 64, "value": 127}, "group": "control_change"}, {"time": 2170, "annotation": {"number": 64, "value": 0}, "group": "control_change"}, {"time": 2176, "annotation": {"number": 64, "value": 127}, "group": "control_change"}, {"time": 2194, "annotation": {"number": 64, "value": 0}, "group": "control_change"}, {"time": 2201, "annotation": {"number": 64, "value": 127}, "group": "control_change"}, {"time": 2216, "annotation": {"number": 64, "value": 0}, "group": "control_change"}, {"time": 2219, "annotation": {"number": 64, "value": 127}, "group": "control_change"}, {"time": 2228, "annotation": {"number": 64, "value": 0}, "group": "control_change"}, {"time": 2230, "annotation": {"number": 64, "value": 127}, "group": "control_change"}, {"time": 2241, "annotation": {"number": 64, "value": 0}, "group": "control_change"}, {"time": 2244, "annotation": {"number": 64, "value": 127}, "group": "control_change"}, {"time": 2265, "annotation": {"number": 64, "value": 0}, "group": "control_change"}, {"time": 2271, "annotation": {"number": 64, "value": 127}, "group": "control_change"}, {"time": 2289, "annotation": {"number": 64, "value": 0}, "group": "control_change"}, {"time": 2295, "annotation": {"number": 64, "value": 127}, "group": "control_change"}, {"time": 2313, "annotation": {"number": 64, "value": 0}, "group": "control_change"}, {"time": 2319, "annotation": {"number": 64, "value": 127}, "group": "control_change"}, {"time": 2337, "annotation": {"number": 64, "value": 0}, "group": "control_change"}, {"time": 2340, "annotation": {"number": 64, "value": 127}, "group": "control_change"}, {"time": 2361, "annotation": {"number": 64, "value": 0}, "group": "control_change"}, {"time": 2364, "annotation": {"number": 64, "value": 127}, "group": "control_change"}, {"time": 2385, "annotation": {"number": 64, "value": 0}, "group": "control_change"}, {"time": 2388, "annotation": {"number": 64, "value": 127}, "group": "control_change"}, {"time": 2409, "annotation": {"number": 64, "value": 0}, "group": "control_change"}, {"time": 2412, "annotation": {"number": 64, "value": 127}, "group": "control_change"}, {"time": 2434, "annotation": {"number": 64, "value": 0}, "group": "control_change"}, {"time": 2440, "annotation": {"number": 64, "value": 127}, "group": "control_change"}, {"time": 2456, "annotation": {"number": 64, "value": 0}, "group": "control_change"}, {"time": 2460, "annotation": {"number": 64, "value": 127}, "group": "control_change"}, {"time": 2482, "annotation": {"number": 64, "value": 0}, "group": "control_change"}, {"time": 2484, "annotation": {"number": 64, "value": 127}, "group": "control_change"}, {"time": 2506, "annotation": {"number": 64, "value": 0}, "group": "control_change"}, {"time": 2511, "annotation": {"number": 64, "value": 127}, "group": "control_change"}, {"time": 2529, "annotation": {"number": 64, "value": 0}, "group": "control_change"}, {"time": 2532, "annotation": {"number": 64, "value": 127}, "group": "control_change"}, {"time": 2541, "annotation": {"number": 64, "value": 0}, "group": "control_change"}, {"time": 2543, "annotation": {"number": 64, "value": 127}, "group": "control_change"}, {"time": 2552, "annotation": {"number": 64, "value": 0}, "group": "control_change"}, {"time": 2559, "annotation": {"number": 64, "value": 127}, "group": "control_change"}, {"time": 2577, "annotation": {"number": 64, "value": 0}, "group": "control_change"}, {"time": 2580, "annotation": {"number": 64, "value": 127}, "group": "control_change"}, {"time": 2601, "annotation": {"number": 64, "value": 0}, "group": "control_change"}, {"time": 2605, "annotation": {"number": 64, "value": 127}, "group": "control_change"}, {"time": 2624, "annotation": {"number": 64, "value": 0}, "group": "control_change"}, {"time": 2631, "annotation": {"number": 64, "value": 127}, "group": "control_change"}, {"time": 2647, "annotation": {"number": 64, "value": 0}, "group": "control_change"}, {"time": 2651, "annotation": {"number": 64, "value": 127}, "group": "control_change"}, {"time": 2673, "annotation": {"number": 64, "value": 0}, "group": "control_change"}, {"time": 2675, "annotation": {"number": 64, "value": 127}, "group": "control_change"}, {"time": 2698, "annotation": {"number": 64, "value": 0}, "group": "control_change"}, {"time": 2702, "annotation": {"number": 64, "value": 127}, "group": "control_change"}, {"time": 2722, "annotation": {"number": 64, "value": 0}, "group": "control_change"}, {"time": 2724, "annotation": {"number": 64, "value": 127}, "group": "control_change"}, {"time": 2744, "annotation": {"number": 64, "value": 0}, "group": "control_change"}, {"time": 2746, "annotation": {"number": 64, "value": 127}, "group": "control_change"}, {"time": 2770, "annotation": {"number": 64, "value": 0}, "group": "control_change"}, {"time": 2772, "annotation": {"number": 64, "value": 127}, "group": "control_change"}, {"time": 2793, "annotation": {"number": 64, "value": 0}, "group": "control_change"}, {"time": 2796, "annotation": {"number": 64, "value": 127}, "group": "control_change"}, {"time": 2817, "annotation": {"number": 64, "value": 0}, "group": "control_change"}, {"time": 2820, "annotation": {"number": 64, "value": 127}, "group": "control_change"}, {"time": 2841, "annotation": {"number": 64, "value": 0}, "group": "control_change"}, {"time": 2844, "annotation": {"number": 64, "value": 127}, "group": "control_change"}, {"time": 2866, "annotation": {"number": 64, "value": 0}, "group": "control_change"}, {"time": 2872, "annotation": {"number": 64, "value": 127}, "group": "control_change"}, {"time": 2888, "annotation": {"number": 64, "value": 0}, "group": "control_change"}, {"time": 2892, "annotation": {"number": 64, "value": 127}, "group": "control_change"}, {"time": 2914, "annotation": {"number": 64, "value": 0}, "group": "control_change"}, {"time": 2916, "annotation": {"number": 64, "value": 127}, "group": "control_change"}, {"time": 2938, "annotation": {"number": 64, "value": 0}, "group": "control_change"}, {"time": 2943, "annotation": {"number": 64, "value": 127}, "group": "control_change"}, {"time": 2961, "annotation": {"number": 64, "value": 0}, "group": "control_change"}, {"time": 2964, "annotation": {"number": 64, "value": 127}, "group": "control_change"}, {"time": 2973, "annotation": {"number": 64, "value": 0}, "group": "control_change"}, {"time": 2975, "annotation": {"number": 64, "value": 127}, "group": "control_change"}, {"time": 2984, "annotation": {"number": 64, "value": 0}, "group": "control_change"}, {"time": 2991, "annotation": {"number": 64, "value": 127}, "group": "control_change"}, {"time": 3009, "annotation": {"number": 64, "value": 0}, "group": "control_change"}, {"time": 3012, "annotation": {"number": 64, "value": 127}, "group": "control_change"}, {"time": 3033, "annotation": {"number": 64, "value": 0}, "group": "control_change"}, {"time": 3037, "annotation": {"number": 64, "value": 127}, "group": "control_change"}, {"time": 3056, "annotation": {"number": 64, "value": 0}, "group": "control_change"}, {"time": 3063, "annotation": {"number": 64, "value": 127}, "group": "control_change"}, {"time": 3079, "annotation": {"number": 64, "value": 0}, "group": "control_change"}, {"time": 3083, "annotation": {"number": 64, "value": 127}, "group": "control_change"}, {"time": 3105, "annotation": {"number": 64, "value": 0}, "group": "control_change"}, {"time": 3107, "annotation": {"number": 64, "value": 127}, "group": "control_change"}, {"time": 3130, "annotation": {"number": 64, "value": 0}, "group": "control_change"}, {"time": 3134, "annotation": {"number": 64, "value": 127}, "group": "control_change"}, {"time": 3154, "annotation": {"number": 64, "value": 0}, "group": "control_change"}, {"time": 3156, "annotation": {"number": 64, "value": 127}, "group": "control_change"}, {"time": 3210, "annotation": {"number": 64, "value": 0}, "group": "control_change"}, {"time": 3220, "annotation": {"number": 64, "value": 127}, "group": "control_change"}, {"time": 3221, "annotation": {"number": 64, "value": 0}, "group": "control_change"}, {"time": 3222, "annotation": {"number": 64, "value": 127}, "group": "control_change"}, {"time": 3237, "annotation": {"number": 64, "value": 0}, "group": "control_change"}, {"time": 3244, "annotation": {"number": 64, "value": 127}, "group": "control_change"}, {"time": 3261, "annotation": {"number": 64, "value": 0}, "group": "control_change"}, {"time": 3265, "annotation": {"number": 64, "value": 127}, "group": "control_change"}, {"time": 3286, "annotation": {"number": 64, "value": 0}, "group": "control_change"}, {"time": 3296, "annotation": {"number": 64, "value": 127}, "group": "control_change"}, {"time": 3314, "annotation": {"number": 64, "value": 127}, "group": "control_change"}, {"time": 3335, "annotation": {"number": 64, "value": 0}, "group": "control_change"}, {"time": 3340, "annotation": {"number": 64, "value": 127}, "group": "control_change"}, {"time": 3357, "annotation": {"number": 64, "value": 0}, "group": "control_change"}, {"time": 3362, "annotation": {"number": 64, "value": 127}, "group": "control_change"}, {"time": 3382, "annotation": {"number": 64, "value": 0}, "group": "control_change"}, {"time": 3390, "annotation": {"number": 64, "value": 127}, "group": "control_change"}, {"time": 3453, "annotation": {"number": 64, "value": 0}, "group": "control_change"}]}]}