{"metadata": {"schema_version": "0.2", "title": "None", "source_filename": "118.mid", "source_format": "midi"}, "resolution": 12, "tempos": [{"time": 0, "qpm": 75.0}, {"time": 171, "qpm": 74.000074000074}, {"time": 281, "qpm": 75.0}, {"time": 750, "qpm": 74.000074000074}, {"time": 795, "qpm": 75.0}, {"time": 995, "qpm": 74.000074000074}, {"time": 1079, "qpm": 75.0}, {"time": 1585, "qpm": 74.000074000074}, {"time": 1672, "qpm": 75.0}, {"time": 2069, "qpm": 74.000074000074}, {"time": 2184, "qpm": 75.0}, {"time": 2457, "qpm": 74.000074000074}, {"time": 2509, "qpm": 75.0}, {"time": 3077, "qpm": 74.000074000074}, {"time": 3223, "qpm": 75.0}, {"time": 3576, "qpm": 74.75005450524807}, {"time": 3744, "qpm": 73.00007178340392}, {"time": 3756, "qpm": 71.00011951686785}, {"time": 3768, "qpm": 68.00014960032912}, {"time": 3780, "qpm": 66.000066000066}, {"time": 3784, "qpm": 63.750031875015935}, {"time": 3797, "qpm": 61.75005840526357}], "time_signatures": [{"time": 0, "numerator": 1, "denominator": 4}], "tracks": [{"program": 0, "is_drum": false, "name": "MELODY", "notes": [{"time": 394, "pitch": 70, "duration": 2, "velocity": 112}, {"time": 396, "pitch": 68, "duration": 2, "velocity": 101}, {"time": 400, "pitch": 70, "duration": 1, "velocity": 109}, {"time": 402, "pitch": 73, "duration": 2, "velocity": 112}, {"time": 406, "pitch": 68, "duration": 4, "velocity": 104}, {"time": 412, "pitch": 70, "duration": 4, "velocity": 106}, {"time": 418, "pitch": 66, "duration": 10, "velocity": 106}, {"time": 430, "pitch": 66, "duration": 4, "velocity": 112}, {"time": 436, "pitch": 68, "duration": 3, "velocity": 112}, {"time": 442, "pitch": 70, "duration": 2, "velocity": 104}, {"time": 444, "pitch": 68, "duration": 2, "velocity": 106}, {"time": 448, "pitch": 70, "duration": 1, "velocity": 109}, {"time": 450, "pitch": 73, "duration": 2, "velocity": 109}, {"time": 454, "pitch": 68, "duration": 4, "velocity": 109}, {"time": 460, "pitch": 70, "duration": 4, "velocity": 109}, {"time": 466, "pitch": 66, "duration": 8, "velocity": 112}, {"time": 478, "pitch": 68, "duration": 3, "velocity": 106}, {"time": 484, "pitch": 70, "duration": 3, "velocity": 112}, {"time": 490, "pitch": 71, "duration": 1, "velocity": 101}, {"time": 492, "pitch": 70, "duration": 2, "velocity": 115}, {"time": 496, "pitch": 71, "duration": 1, "velocity": 112}, {"time": 498, "pitch": 75, "duration": 2, "velocity": 104}, {"time": 502, "pitch": 70, "duration": 4, "velocity": 109}, {"time": 508, "pitch": 71, "duration": 3, "velocity": 106}, {"time": 514, "pitch": 68, "duration": 8, "velocity": 109}, {"time": 526, "pitch": 63, "duration": 4, "velocity": 115}, {"time": 532, "pitch": 66, "duration": 3, "velocity": 115}, {"time": 538, "pitch": 70, "duration": 4, "velocity": 109}, {"time": 544, "pitch": 68, "duration": 3, "velocity": 109}, {"time": 550, "pitch": 68, "duration": 4, "velocity": 112}, {"time": 556, "pitch": 66, "duration": 4, "velocity": 106}, {"time": 562, "pitch": 68, "duration": 19, "velocity": 109}, {"time": 586, "pitch": 70, "duration": 2, "velocity": 112}, {"time": 588, "pitch": 68, "duration": 2, "velocity": 101}, {"time": 592, "pitch": 70, "duration": 1, "velocity": 109}, {"time": 594, "pitch": 73, "duration": 2, "velocity": 112}, {"time": 598, "pitch": 68, "duration": 4, "velocity": 104}, {"time": 604, "pitch": 70, "duration": 4, "velocity": 106}, {"time": 610, "pitch": 66, "duration": 10, "velocity": 106}, {"time": 622, "pitch": 66, "duration": 4, "velocity": 112}, {"time": 628, "pitch": 68, "duration": 3, "velocity": 112}, {"time": 634, "pitch": 70, "duration": 2, "velocity": 104}, {"time": 636, "pitch": 68, "duration": 2, "velocity": 106}, {"time": 640, "pitch": 70, "duration": 1, "velocity": 109}, {"time": 642, "pitch": 73, "duration": 2, "velocity": 109}, {"time": 646, "pitch": 68, "duration": 4, "velocity": 109}, {"time": 652, "pitch": 70, "duration": 4, "velocity": 109}, {"time": 658, "pitch": 66, "duration": 8, "velocity": 112}, {"time": 670, "pitch": 68, "duration": 3, "velocity": 106}, {"time": 676, "pitch": 70, "duration": 3, "velocity": 112}, {"time": 682, "pitch": 71, "duration": 1, "velocity": 101}, {"time": 684, "pitch": 70, "duration": 2, "velocity": 115}, {"time": 688, "pitch": 71, "duration": 1, "velocity": 112}, {"time": 690, "pitch": 75, "duration": 2, "velocity": 104}, {"time": 694, "pitch": 70, "duration": 4, "velocity": 109}, {"time": 700, "pitch": 71, "duration": 3, "velocity": 106}, {"time": 706, "pitch": 68, "duration": 8, "velocity": 109}, {"time": 718, "pitch": 63, "duration": 4, "velocity": 115}, {"time": 724, "pitch": 66, "duration": 3, "velocity": 115}, {"time": 730, "pitch": 70, "duration": 4, "velocity": 109}, {"time": 736, "pitch": 68, "duration": 3, "velocity": 109}, {"time": 742, "pitch": 68, "duration": 4, "velocity": 112}, {"time": 748, "pitch": 66, "duration": 4, "velocity": 106}, {"time": 754, "pitch": 68, "duration": 14, "velocity": 109}, {"time": 772, "pitch": 66, "duration": 1, "velocity": 109}, {"time": 774, "pitch": 68, "duration": 2, "velocity": 104}, {"time": 778, "pitch": 70, "duration": 4, "velocity": 112}, {"time": 784, "pitch": 68, "duration": 3, "velocity": 112}, {"time": 790, "pitch": 70, "duration": 3, "velocity": 109}, {"time": 796, "pitch": 75, "duration": 3, "velocity": 101}, {"time": 802, "pitch": 73, "duration": 12, "velocity": 109}, {"time": 820, "pitch": 63, "duration": 1, "velocity": 109}, {"time": 822, "pitch": 65, "duration": 2, "velocity": 117}, {"time": 826, "pitch": 66, "duration": 4, "velocity": 101}, {"time": 832, "pitch": 63, "duration": 3, "velocity": 117}, {"time": 838, "pitch": 66, "duration": 4, "velocity": 106}, {"time": 844, "pitch": 71, "duration": 3, "velocity": 104}, {"time": 850, "pitch": 70, "duration": 11, "velocity": 109}, {"time": 868, "pitch": 68, "duration": 2, "velocity": 106}, {"time": 870, "pitch": 70, "duration": 2, "velocity": 106}, {"time": 874, "pitch": 68, "duration": 4, "velocity": 109}, {"time": 880, "pitch": 68, "duration": 1, "velocity": 109}, {"time": 882, "pitch": 66, "duration": 2, "velocity": 104}, {"time": 886, "pitch": 68, "duration": 4, "velocity": 115}, {"time": 892, "pitch": 66, "duration": 1, "velocity": 106}, {"time": 894, "pitch": 68, "duration": 2, "velocity": 112}, {"time": 898, "pitch": 70, "duration": 4, "velocity": 106}, {"time": 904, "pitch": 73, "duration": 3, "velocity": 104}, {"time": 910, "pitch": 70, "duration": 4, "velocity": 109}, {"time": 916, "pitch": 68, "duration": 1, "velocity": 112}, {"time": 918, "pitch": 70, "duration": 2, "velocity": 104}, {"time": 922, "pitch": 68, "duration": 3, "velocity": 112}, {"time": 928, "pitch": 66, "duration": 1, "velocity": 106}, {"time": 930, "pitch": 70, "duration": 2, "velocity": 104}, {"time": 934, "pitch": 68, "duration": 3, "velocity": 112}, {"time": 940, "pitch": 68, "duration": 3, "velocity": 112}, {"time": 946, "pitch": 66, "duration": 30, "velocity": 109}, {"time": 988, "pitch": 70, "duration": 1, "velocity": 109}, {"time": 990, "pitch": 73, "duration": 2, "velocity": 106}, {"time": 994, "pitch": 75, "duration": 4, "velocity": 106}, {"time": 1000, "pitch": 78, "duration": 3, "velocity": 109}, {"time": 1006, "pitch": 75, "duration": 3, "velocity": 109}, {"time": 1012, "pitch": 73, "duration": 3, "velocity": 112}, {"time": 1018, "pitch": 70, "duration": 13, "velocity": 112}, {"time": 1036, "pitch": 70, "duration": 1, "velocity": 112}, {"time": 1038, "pitch": 73, "duration": 2, "velocity": 112}, {"time": 1042, "pitch": 68, "duration": 1, "velocity": 109}, {"time": 1044, "pitch": 68, "duration": 4, "velocity": 109}, {"time": 1050, "pitch": 70, "duration": 2, "velocity": 109}, {"time": 1054, "pitch": 68, "duration": 3, "velocity": 112}, {"time": 1060, "pitch": 66, "duration": 1, "velocity": 106}, {"time": 1062, "pitch": 68, "duration": 2, "velocity": 106}, {"time": 1066, "pitch": 70, "duration": 12, "velocity": 104}, {"time": 1084, "pitch": 68, "duration": 1, "velocity": 115}, {"time": 1086, "pitch": 70, "duration": 2, "velocity": 106}, {"time": 1090, "pitch": 68, "duration": 4, "velocity": 115}, {"time": 1096, "pitch": 70, "duration": 3, "velocity": 101}, {"time": 1102, "pitch": 68, "duration": 3, "velocity": 115}, {"time": 1108, "pitch": 66, "duration": 1, "velocity": 106}, {"time": 1110, "pitch": 68, "duration": 2, "velocity": 112}, {"time": 1114, "pitch": 70, "duration": 4, "velocity": 109}, {"time": 1120, "pitch": 73, "duration": 3, "velocity": 106}, {"time": 1126, "pitch": 70, "duration": 4, "velocity": 109}, {"time": 1132, "pitch": 70, "duration": 2, "velocity": 106}, {"time": 1134, "pitch": 73, "duration": 2, "velocity": 109}, {"time": 1138, "pitch": 75, "duration": 3, "velocity": 109}, {"time": 1144, "pitch": 78, "duration": 4, "velocity": 109}, {"time": 1150, "pitch": 75, "duration": 3, "velocity": 104}, {"time": 1156, "pitch": 70, "duration": 4, "velocity": 101}, {"time": 1162, "pitch": 73, "duration": 16, "velocity": 112}, {"time": 1180, "pitch": 70, "duration": 1, "velocity": 109}, {"time": 1182, "pitch": 73, "duration": 2, "velocity": 106}, {"time": 1186, "pitch": 75, "duration": 4, "velocity": 106}, {"time": 1192, "pitch": 78, "duration": 3, "velocity": 109}, {"time": 1198, "pitch": 75, "duration": 3, "velocity": 109}, {"time": 1204, "pitch": 73, "duration": 3, "velocity": 112}, {"time": 1210, "pitch": 70, "duration": 13, "velocity": 112}, {"time": 1228, "pitch": 70, "duration": 1, "velocity": 112}, {"time": 1230, "pitch": 73, "duration": 2, "velocity": 112}, {"time": 1234, "pitch": 68, "duration": 1, "velocity": 109}, {"time": 1236, "pitch": 68, "duration": 4, "velocity": 109}, {"time": 1242, "pitch": 70, "duration": 2, "velocity": 109}, {"time": 1246, "pitch": 68, "duration": 3, "velocity": 112}, {"time": 1252, "pitch": 66, "duration": 1, "velocity": 106}, {"time": 1254, "pitch": 68, "duration": 2, "velocity": 106}, {"time": 1258, "pitch": 70, "duration": 12, "velocity": 104}, {"time": 1276, "pitch": 68, "duration": 1, "velocity": 115}, {"time": 1278, "pitch": 70, "duration": 2, "velocity": 106}, {"time": 1282, "pitch": 68, "duration": 4, "velocity": 115}, {"time": 1288, "pitch": 70, "duration": 3, "velocity": 101}, {"time": 1294, "pitch": 68, "duration": 3, "velocity": 115}, {"time": 1300, "pitch": 66, "duration": 1, "velocity": 106}, {"time": 1302, "pitch": 68, "duration": 2, "velocity": 112}, {"time": 1306, "pitch": 70, "duration": 4, "velocity": 109}, {"time": 1312, "pitch": 73, "duration": 3, "velocity": 106}, {"time": 1318, "pitch": 70, "duration": 4, "velocity": 109}, {"time": 1324, "pitch": 70, "duration": 2, "velocity": 106}, {"time": 1326, "pitch": 73, "duration": 2, "velocity": 109}, {"time": 1330, "pitch": 75, "duration": 3, "velocity": 109}, {"time": 1336, "pitch": 78, "duration": 4, "velocity": 109}, {"time": 1342, "pitch": 75, "duration": 3, "velocity": 104}, {"time": 1348, "pitch": 70, "duration": 4, "velocity": 101}, {"time": 1354, "pitch": 73, "duration": 16, "velocity": 112}, {"time": 1390, "pitch": 70, "duration": 2, "velocity": 109}, {"time": 1392, "pitch": 73, "duration": 2, "velocity": 112}, {"time": 1396, "pitch": 75, "duration": 1, "velocity": 106}, {"time": 1398, "pitch": 78, "duration": 2, "velocity": 115}, {"time": 1402, "pitch": 78, "duration": 3, "velocity": 109}, {"time": 1408, "pitch": 73, "duration": 2, "velocity": 78}, {"time": 1414, "pitch": 70, "duration": 1, "velocity": 101}, {"time": 1416, "pitch": 73, "duration": 2, "velocity": 115}, {"time": 1420, "pitch": 75, "duration": 1, "velocity": 94}, {"time": 1422, "pitch": 78, "duration": 2, "velocity": 109}, {"time": 1426, "pitch": 78, "duration": 3, "velocity": 112}, {"time": 1432, "pitch": 75, "duration": 5, "velocity": 106}, {"time": 1444, "pitch": 70, "duration": 1, "velocity": 115}, {"time": 1446, "pitch": 68, "duration": 2, "velocity": 109}, {"time": 1450, "pitch": 70, "duration": 1, "velocity": 115}, {"time": 1452, "pitch": 73, "duration": 3, "velocity": 112}, {"time": 1458, "pitch": 73, "duration": 2, "velocity": 112}, {"time": 1462, "pitch": 73, "duration": 3, "velocity": 109}, {"time": 1468, "pitch": 70, "duration": 3, "velocity": 109}, {"time": 1474, "pitch": 75, "duration": 9, "velocity": 104}, {"time": 1486, "pitch": 70, "duration": 2, "velocity": 109}, {"time": 1488, "pitch": 73, "duration": 2, "velocity": 112}, {"time": 1492, "pitch": 75, "duration": 1, "velocity": 106}, {"time": 1494, "pitch": 78, "duration": 2, "velocity": 115}, {"time": 1498, "pitch": 78, "duration": 3, "velocity": 109}, {"time": 1504, "pitch": 73, "duration": 2, "velocity": 78}, {"time": 1510, "pitch": 70, "duration": 1, "velocity": 101}, {"time": 1512, "pitch": 73, "duration": 2, "velocity": 115}, {"time": 1516, "pitch": 75, "duration": 1, "velocity": 94}, {"time": 1518, "pitch": 78, "duration": 2, "velocity": 109}, {"time": 1522, "pitch": 78, "duration": 3, "velocity": 112}, {"time": 1528, "pitch": 75, "duration": 5, "velocity": 106}, {"time": 1540, "pitch": 70, "duration": 1, "velocity": 115}, {"time": 1542, "pitch": 68, "duration": 2, "velocity": 109}, {"time": 1546, "pitch": 70, "duration": 1, "velocity": 115}, {"time": 1548, "pitch": 73, "duration": 3, "velocity": 112}, {"time": 1554, "pitch": 73, "duration": 2, "velocity": 112}, {"time": 1558, "pitch": 73, "duration": 3, "velocity": 109}, {"time": 1564, "pitch": 70, "duration": 3, "velocity": 109}, {"time": 1570, "pitch": 75, "duration": 9, "velocity": 104}, {"time": 1588, "pitch": 70, "duration": 2, "velocity": 109}, {"time": 1590, "pitch": 73, "duration": 2, "velocity": 112}, {"time": 1594, "pitch": 75, "duration": 3, "velocity": 109}, {"time": 1600, "pitch": 78, "duration": 3, "velocity": 106}, {"time": 1606, "pitch": 80, "duration": 4, "velocity": 115}, {"time": 1612, "pitch": 78, "duration": 2, "velocity": 106}, {"time": 1618, "pitch": 77, "duration": 8, "velocity": 107}, {"time": 1630, "pitch": 75, "duration": 4, "velocity": 115}, {"time": 1636, "pitch": 73, "duration": 4, "velocity": 109}, {"time": 1642, "pitch": 75, "duration": 38, "velocity": 106}, {"time": 1882, "pitch": 70, "duration": 2, "velocity": 112}, {"time": 1884, "pitch": 68, "duration": 2, "velocity": 101}, {"time": 1888, "pitch": 70, "duration": 1, "velocity": 109}, {"time": 1890, "pitch": 73, "duration": 2, "velocity": 112}, {"time": 1894, "pitch": 68, "duration": 4, "velocity": 104}, {"time": 1900, "pitch": 70, "duration": 4, "velocity": 106}, {"time": 1906, "pitch": 66, "duration": 10, "velocity": 106}, {"time": 1918, "pitch": 66, "duration": 4, "velocity": 112}, {"time": 1924, "pitch": 68, "duration": 3, "velocity": 112}, {"time": 1930, "pitch": 70, "duration": 2, "velocity": 104}, {"time": 1932, "pitch": 68, "duration": 2, "velocity": 106}, {"time": 1936, "pitch": 70, "duration": 1, "velocity": 109}, {"time": 1938, "pitch": 73, "duration": 2, "velocity": 109}, {"time": 1942, "pitch": 68, "duration": 4, "velocity": 109}, {"time": 1948, "pitch": 70, "duration": 4, "velocity": 109}, {"time": 1954, "pitch": 66, "duration": 8, "velocity": 112}, {"time": 1966, "pitch": 68, "duration": 3, "velocity": 106}, {"time": 1972, "pitch": 70, "duration": 3, "velocity": 112}, {"time": 1978, "pitch": 71, "duration": 1, "velocity": 101}, {"time": 1980, "pitch": 70, "duration": 2, "velocity": 115}, {"time": 1984, "pitch": 71, "duration": 1, "velocity": 112}, {"time": 1986, "pitch": 75, "duration": 2, "velocity": 104}, {"time": 1990, "pitch": 70, "duration": 4, "velocity": 109}, {"time": 1996, "pitch": 71, "duration": 3, "velocity": 106}, {"time": 2002, "pitch": 68, "duration": 8, "velocity": 109}, {"time": 2014, "pitch": 63, "duration": 4, "velocity": 115}, {"time": 2020, "pitch": 66, "duration": 3, "velocity": 115}, {"time": 2026, "pitch": 70, "duration": 4, "velocity": 109}, {"time": 2032, "pitch": 68, "duration": 3, "velocity": 109}, {"time": 2038, "pitch": 68, "duration": 4, "velocity": 112}, {"time": 2044, "pitch": 66, "duration": 4, "velocity": 106}, {"time": 2050, "pitch": 68, "duration": 14, "velocity": 109}, {"time": 2068, "pitch": 66, "duration": 1, "velocity": 109}, {"time": 2070, "pitch": 68, "duration": 2, "velocity": 104}, {"time": 2074, "pitch": 70, "duration": 4, "velocity": 112}, {"time": 2080, "pitch": 68, "duration": 3, "velocity": 112}, {"time": 2086, "pitch": 70, "duration": 3, "velocity": 109}, {"time": 2092, "pitch": 75, "duration": 3, "velocity": 101}, {"time": 2098, "pitch": 73, "duration": 12, "velocity": 109}, {"time": 2116, "pitch": 63, "duration": 1, "velocity": 109}, {"time": 2118, "pitch": 65, "duration": 2, "velocity": 117}, {"time": 2122, "pitch": 66, "duration": 4, "velocity": 101}, {"time": 2128, "pitch": 63, "duration": 3, "velocity": 117}, {"time": 2134, "pitch": 66, "duration": 4, "velocity": 106}, {"time": 2140, "pitch": 71, "duration": 3, "velocity": 104}, {"time": 2146, "pitch": 70, "duration": 11, "velocity": 109}, {"time": 2164, "pitch": 68, "duration": 2, "velocity": 106}, {"time": 2166, "pitch": 70, "duration": 2, "velocity": 106}, {"time": 2170, "pitch": 68, "duration": 4, "velocity": 109}, {"time": 2176, "pitch": 68, "duration": 1, "velocity": 109}, {"time": 2178, "pitch": 66, "duration": 2, "velocity": 104}, {"time": 2182, "pitch": 68, "duration": 4, "velocity": 115}, {"time": 2188, "pitch": 66, "duration": 1, "velocity": 106}, {"time": 2190, "pitch": 68, "duration": 2, "velocity": 112}, {"time": 2194, "pitch": 70, "duration": 4, "velocity": 106}, {"time": 2200, "pitch": 73, "duration": 3, "velocity": 104}, {"time": 2206, "pitch": 70, "duration": 4, "velocity": 109}, {"time": 2212, "pitch": 68, "duration": 1, "velocity": 112}, {"time": 2214, "pitch": 70, "duration": 2, "velocity": 104}, {"time": 2218, "pitch": 68, "duration": 3, "velocity": 112}, {"time": 2224, "pitch": 66, "duration": 1, "velocity": 106}, {"time": 2226, "pitch": 70, "duration": 2, "velocity": 104}, {"time": 2230, "pitch": 68, "duration": 3, "velocity": 112}, {"time": 2236, "pitch": 68, "duration": 3, "velocity": 112}, {"time": 2242, "pitch": 66, "duration": 30, "velocity": 109}, {"time": 2284, "pitch": 70, "duration": 1, "velocity": 109}, {"time": 2286, "pitch": 73, "duration": 2, "velocity": 106}, {"time": 2290, "pitch": 75, "duration": 4, "velocity": 106}, {"time": 2296, "pitch": 78, "duration": 3, "velocity": 109}, {"time": 2302, "pitch": 75, "duration": 3, "velocity": 109}, {"time": 2308, "pitch": 73, "duration": 3, "velocity": 112}, {"time": 2314, "pitch": 70, "duration": 13, "velocity": 112}, {"time": 2332, "pitch": 70, "duration": 1, "velocity": 112}, {"time": 2334, "pitch": 73, "duration": 2, "velocity": 112}, {"time": 2338, "pitch": 68, "duration": 1, "velocity": 109}, {"time": 2340, "pitch": 68, "duration": 4, "velocity": 109}, {"time": 2346, "pitch": 70, "duration": 2, "velocity": 109}, {"time": 2350, "pitch": 68, "duration": 3, "velocity": 112}, {"time": 2356, "pitch": 66, "duration": 1, "velocity": 106}, {"time": 2358, "pitch": 68, "duration": 2, "velocity": 106}, {"time": 2362, "pitch": 70, "duration": 12, "velocity": 104}, {"time": 2380, "pitch": 68, "duration": 1, "velocity": 115}, {"time": 2382, "pitch": 70, "duration": 2, "velocity": 106}, {"time": 2386, "pitch": 68, "duration": 4, "velocity": 115}, {"time": 2392, "pitch": 70, "duration": 3, "velocity": 101}, {"time": 2398, "pitch": 68, "duration": 3, "velocity": 115}, {"time": 2404, "pitch": 66, "duration": 1, "velocity": 106}, {"time": 2406, "pitch": 68, "duration": 2, "velocity": 112}, {"time": 2410, "pitch": 70, "duration": 4, "velocity": 109}, {"time": 2416, "pitch": 73, "duration": 3, "velocity": 106}, {"time": 2422, "pitch": 70, "duration": 4, "velocity": 109}, {"time": 2428, "pitch": 70, "duration": 2, "velocity": 106}, {"time": 2430, "pitch": 73, "duration": 2, "velocity": 109}, {"time": 2434, "pitch": 75, "duration": 3, "velocity": 109}, {"time": 2440, "pitch": 78, "duration": 4, "velocity": 109}, {"time": 2446, "pitch": 75, "duration": 3, "velocity": 104}, {"time": 2452, "pitch": 70, "duration": 4, "velocity": 101}, {"time": 2458, "pitch": 73, "duration": 16, "velocity": 112}, {"time": 2494, "pitch": 70, "duration": 2, "velocity": 109}, {"time": 2496, "pitch": 73, "duration": 2, "velocity": 112}, {"time": 2500, "pitch": 75, "duration": 1, "velocity": 106}, {"time": 2502, "pitch": 78, "duration": 2, "velocity": 115}, {"time": 2506, "pitch": 78, "duration": 3, "velocity": 109}, {"time": 2512, "pitch": 73, "duration": 2, "velocity": 78}, {"time": 2518, "pitch": 70, "duration": 1, "velocity": 101}, {"time": 2520, "pitch": 73, "duration": 2, "velocity": 115}, {"time": 2524, "pitch": 75, "duration": 1, "velocity": 94}, {"time": 2526, "pitch": 78, "duration": 2, "velocity": 109}, {"time": 2530, "pitch": 78, "duration": 3, "velocity": 112}, {"time": 2536, "pitch": 75, "duration": 5, "velocity": 106}, {"time": 2548, "pitch": 70, "duration": 1, "velocity": 115}, {"time": 2550, "pitch": 68, "duration": 2, "velocity": 109}, {"time": 2554, "pitch": 70, "duration": 1, "velocity": 115}, {"time": 2556, "pitch": 73, "duration": 3, "velocity": 112}, {"time": 2562, "pitch": 73, "duration": 2, "velocity": 112}, {"time": 2566, "pitch": 73, "duration": 3, "velocity": 109}, {"time": 2572, "pitch": 70, "duration": 3, "velocity": 109}, {"time": 2578, "pitch": 75, "duration": 9, "velocity": 104}, {"time": 2590, "pitch": 70, "duration": 2, "velocity": 109}, {"time": 2592, "pitch": 73, "duration": 2, "velocity": 112}, {"time": 2596, "pitch": 75, "duration": 1, "velocity": 106}, {"time": 2598, "pitch": 78, "duration": 2, "velocity": 115}, {"time": 2602, "pitch": 78, "duration": 3, "velocity": 109}, {"time": 2608, "pitch": 73, "duration": 2, "velocity": 78}, {"time": 2614, "pitch": 70, "duration": 1, "velocity": 101}, {"time": 2616, "pitch": 73, "duration": 2, "velocity": 115}, {"time": 2620, "pitch": 75, "duration": 1, "velocity": 94}, {"time": 2622, "pitch": 78, "duration": 2, "velocity": 109}, {"time": 2626, "pitch": 78, "duration": 3, "velocity": 112}, {"time": 2632, "pitch": 75, "duration": 5, "velocity": 106}, {"time": 2644, "pitch": 70, "duration": 1, "velocity": 115}, {"time": 2646, "pitch": 68, "duration": 2, "velocity": 109}, {"time": 2650, "pitch": 70, "duration": 1, "velocity": 115}, {"time": 2652, "pitch": 73, "duration": 3, "velocity": 112}, {"time": 2658, "pitch": 73, "duration": 2, "velocity": 112}, {"time": 2662, "pitch": 73, "duration": 3, "velocity": 109}, {"time": 2668, "pitch": 70, "duration": 3, "velocity": 109}, {"time": 2674, "pitch": 75, "duration": 9, "velocity": 104}, {"time": 2692, "pitch": 70, "duration": 2, "velocity": 109}, {"time": 2694, "pitch": 73, "duration": 2, "velocity": 112}, {"time": 2698, "pitch": 75, "duration": 3, "velocity": 109}, {"time": 2704, "pitch": 78, "duration": 3, "velocity": 106}, {"time": 2710, "pitch": 80, "duration": 4, "velocity": 115}, {"time": 2716, "pitch": 78, "duration": 2, "velocity": 106}, {"time": 2722, "pitch": 77, "duration": 8, "velocity": 107}, {"time": 2734, "pitch": 75, "duration": 4, "velocity": 115}, {"time": 2740, "pitch": 73, "duration": 4, "velocity": 109}, {"time": 2746, "pitch": 75, "duration": 38, "velocity": 106}, {"time": 3166, "pitch": 70, "duration": 2, "velocity": 109}, {"time": 3168, "pitch": 73, "duration": 2, "velocity": 112}, {"time": 3172, "pitch": 75, "duration": 1, "velocity": 106}, {"time": 3174, "pitch": 78, "duration": 2, "velocity": 115}, {"time": 3178, "pitch": 78, "duration": 3, "velocity": 109}, {"time": 3184, "pitch": 73, "duration": 2, "velocity": 78}, {"time": 3190, "pitch": 70, "duration": 1, "velocity": 101}, {"time": 3192, "pitch": 73, "duration": 2, "velocity": 115}, {"time": 3196, "pitch": 75, "duration": 1, "velocity": 94}, {"time": 3198, "pitch": 78, "duration": 2, "velocity": 109}, {"time": 3202, "pitch": 78, "duration": 3, "velocity": 112}, {"time": 3208, "pitch": 75, "duration": 5, "velocity": 106}, {"time": 3220, "pitch": 70, "duration": 1, "velocity": 115}, {"time": 3222, "pitch": 68, "duration": 2, "velocity": 109}, {"time": 3226, "pitch": 70, "duration": 1, "velocity": 115}, {"time": 3228, "pitch": 73, "duration": 3, "velocity": 112}, {"time": 3234, "pitch": 73, "duration": 2, "velocity": 112}, {"time": 3238, "pitch": 73, "duration": 3, "velocity": 109}, {"time": 3244, "pitch": 70, "duration": 3, "velocity": 109}, {"time": 3250, "pitch": 75, "duration": 9, "velocity": 104}, {"time": 3262, "pitch": 70, "duration": 2, "velocity": 109}, {"time": 3264, "pitch": 73, "duration": 2, "velocity": 112}, {"time": 3268, "pitch": 75, "duration": 1, "velocity": 106}, {"time": 3270, "pitch": 78, "duration": 2, "velocity": 115}, {"time": 3274, "pitch": 78, "duration": 3, "velocity": 109}, {"time": 3280, "pitch": 73, "duration": 2, "velocity": 78}, {"time": 3286, "pitch": 70, "duration": 1, "velocity": 101}, {"time": 3288, "pitch": 73, "duration": 2, "velocity": 115}, {"time": 3292, "pitch": 75, "duration": 1, "velocity": 94}, {"time": 3294, "pitch": 78, "duration": 2, "velocity": 109}, {"time": 3298, "pitch": 78, "duration": 3, "velocity": 112}, {"time": 3304, "pitch": 75, "duration": 5, "velocity": 106}, {"time": 3316, "pitch": 70, "duration": 1, "velocity": 115}, {"time": 3318, "pitch": 68, "duration": 2, "velocity": 109}, {"time": 3322, "pitch": 70, "duration": 1, "velocity": 115}, {"time": 3324, "pitch": 73, "duration": 3, "velocity": 112}, {"time": 3330, "pitch": 73, "duration": 2, "velocity": 112}, {"time": 3334, "pitch": 73, "duration": 3, "velocity": 109}, {"time": 3340, "pitch": 70, "duration": 3, "velocity": 109}, {"time": 3346, "pitch": 75, "duration": 9, "velocity": 104}, {"time": 3364, "pitch": 70, "duration": 2, "velocity": 109}, {"time": 3366, "pitch": 73, "duration": 2, "velocity": 112}, {"time": 3370, "pitch": 75, "duration": 3, "velocity": 109}, {"time": 3376, "pitch": 78, "duration": 3, "velocity": 106}, {"time": 3382, "pitch": 80, "duration": 4, "velocity": 115}, {"time": 3388, "pitch": 78, "duration": 2, "velocity": 106}, {"time": 3394, "pitch": 77, "duration": 8, "velocity": 107}, {"time": 3406, "pitch": 75, "duration": 4, "velocity": 115}, {"time": 3412, "pitch": 73, "duration": 4, "velocity": 109}, {"time": 3418, "pitch": 75, "duration": 38, "velocity": 106}, {"time": 3460, "pitch": 70, "duration": 2, "velocity": 109}, {"time": 3462, "pitch": 73, "duration": 2, "velocity": 112}, {"time": 3466, "pitch": 75, "duration": 3, "velocity": 109}, {"time": 3472, "pitch": 78, "duration": 3, "velocity": 106}, {"time": 3478, "pitch": 80, "duration": 4, "velocity": 115}, {"time": 3484, "pitch": 78, "duration": 2, "velocity": 106}, {"time": 3490, "pitch": 77, "duration": 8, "velocity": 107}, {"time": 3502, "pitch": 75, "duration": 4, "velocity": 115}, {"time": 3508, "pitch": 73, "duration": 4, "velocity": 109}, {"time": 3514, "pitch": 75, "duration": 38, "velocity": 106}]}, {"program": 0, "is_drum": false, "name": "PIANO", "notes": [{"time": 10, "pitch": 42, "duration": 37, "velocity": 104}, {"time": 10, "pitch": 54, "duration": 9, "velocity": 96}, {"time": 10, "pitch": 58, "duration": 9, "velocity": 101}, {"time": 16, "pitch": 49, "duration": 7, "velocity": 66}, {"time": 22, "pitch": 58, "duration": 6, "velocity": 99}, {"time": 22, "pitch": 61, "duration": 5, "velocity": 104}, {"time": 28, "pitch": 49, "duration": 6, "velocity": 45}, {"time": 34, "pitch": 58, "duration": 7, "velocity": 85}, {"time": 34, "pitch": 61, "duration": 6, "velocity": 96}, {"time": 46, "pitch": 54, "duration": 1, "velocity": 85}, {"time": 46, "pitch": 58, "duration": 6, "velocity": 104}, {"time": 46, "pitch": 61, "duration": 6, "velocity": 104}, {"time": 52, "pitch": 54, "duration": 1, "velocity": 96}, {"time": 58, "pitch": 51, "duration": 15, "velocity": 101}, {"time": 58, "pitch": 58, "duration": 8, "velocity": 101}, {"time": 58, "pitch": 63, "duration": 8, "velocity": 104}, {"time": 70, "pitch": 63, "duration": 5, "velocity": 101}, {"time": 70, "pitch": 66, "duration": 4, "velocity": 94}, {"time": 82, "pitch": 58, "duration": 7, "velocity": 74}, {"time": 82, "pitch": 63, "duration": 8, "velocity": 99}, {"time": 82, "pitch": 66, "duration": 7, "velocity": 99}, {"time": 88, "pitch": 51, "duration": 7, "velocity": 73}, {"time": 88, "pitch": 54, "duration": 7, "velocity": 85}, {"time": 94, "pitch": 63, "duration": 6, "velocity": 106}, {"time": 94, "pitch": 66, "duration": 6, "velocity": 104}, {"time": 100, "pitch": 58, "duration": 2, "velocity": 109}, {"time": 106, "pitch": 42, "duration": 41, "velocity": 91}, {"time": 106, "pitch": 54, "duration": 8, "velocity": 99}, {"time": 106, "pitch": 58, "duration": 7, "velocity": 94}, {"time": 112, "pitch": 49, "duration": 18, "velocity": 38}, {"time": 118, "pitch": 58, "duration": 4, "velocity": 101}, {"time": 118, "pitch": 61, "duration": 3, "velocity": 101}, {"time": 130, "pitch": 58, "duration": 6, "velocity": 99}, {"time": 130, "pitch": 61, "duration": 6, "velocity": 101}, {"time": 136, "pitch": 49, "duration": 9, "velocity": 69}, {"time": 142, "pitch": 58, "duration": 6, "velocity": 109}, {"time": 142, "pitch": 61, "duration": 6, "velocity": 109}, {"time": 148, "pitch": 54, "duration": 2, "velocity": 112}, {"time": 154, "pitch": 39, "duration": 2, "velocity": 91}, {"time": 154, "pitch": 51, "duration": 3, "velocity": 96}, {"time": 154, "pitch": 54, "duration": 3, "velocity": 101}, {"time": 166, "pitch": 63, "duration": 9, "velocity": 96}, {"time": 166, "pitch": 66, "duration": 8, "velocity": 99}, {"time": 172, "pitch": 51, "duration": 19, "velocity": 37}, {"time": 172, "pitch": 58, "duration": 8, "velocity": 61}, {"time": 178, "pitch": 66, "duration": 9, "velocity": 106}, {"time": 178, "pitch": 70, "duration": 7, "velocity": 104}, {"time": 184, "pitch": 58, "duration": 6, "velocity": 76}, {"time": 190, "pitch": 63, "duration": 2, "velocity": 104}, {"time": 190, "pitch": 66, "duration": 2, "velocity": 109}, {"time": 190, "pitch": 70, "duration": 2, "velocity": 106}, {"time": 196, "pitch": 61, "duration": 2, "velocity": 91}, {"time": 202, "pitch": 47, "duration": 15, "velocity": 101}, {"time": 202, "pitch": 59, "duration": 7, "velocity": 89}, {"time": 202, "pitch": 63, "duration": 6, "velocity": 96}, {"time": 208, "pitch": 54, "duration": 7, "velocity": 56}, {"time": 214, "pitch": 59, "duration": 2, "velocity": 99}, {"time": 214, "pitch": 63, "duration": 5, "velocity": 104}, {"time": 214, "pitch": 66, "duration": 6, "velocity": 99}, {"time": 220, "pitch": 59, "duration": 1, "velocity": 94}, {"time": 226, "pitch": 37, "duration": 2, "velocity": 96}, {"time": 226, "pitch": 61, "duration": 9, "velocity": 104}, {"time": 226, "pitch": 65, "duration": 9, "velocity": 101}, {"time": 232, "pitch": 49, "duration": 7, "velocity": 96}, {"time": 238, "pitch": 61, "duration": 2, "velocity": 104}, {"time": 238, "pitch": 65, "duration": 6, "velocity": 107}, {"time": 238, "pitch": 68, "duration": 8, "velocity": 106}, {"time": 244, "pitch": 61, "duration": 3, "velocity": 106}, {"time": 250, "pitch": 51, "duration": 13, "velocity": 94}, {"time": 250, "pitch": 63, "duration": 6, "velocity": 99}, {"time": 250, "pitch": 66, "duration": 6, "velocity": 101}, {"time": 256, "pitch": 58, "duration": 7, "velocity": 78}, {"time": 262, "pitch": 63, "duration": 6, "velocity": 106}, {"time": 262, "pitch": 66, "duration": 7, "velocity": 106}, {"time": 274, "pitch": 63, "duration": 2, "velocity": 99}, {"time": 274, "pitch": 66, "duration": 6, "velocity": 104}, {"time": 280, "pitch": 63, "duration": 2, "velocity": 94}, {"time": 286, "pitch": 51, "duration": 5, "velocity": 80}, {"time": 286, "pitch": 58, "duration": 5, "velocity": 94}, {"time": 286, "pitch": 63, "duration": 2, "velocity": 109}, {"time": 286, "pitch": 66, "duration": 5, "velocity": 106}, {"time": 292, "pitch": 61, "duration": 2, "velocity": 109}, {"time": 298, "pitch": 47, "duration": 16, "velocity": 99}, {"time": 298, "pitch": 59, "duration": 7, "velocity": 96}, {"time": 298, "pitch": 63, "duration": 6, "velocity": 99}, {"time": 304, "pitch": 54, "duration": 10, "velocity": 69}, {"time": 310, "pitch": 59, "duration": 2, "velocity": 99}, {"time": 310, "pitch": 63, "duration": 6, "velocity": 101}, {"time": 310, "pitch": 66, "duration": 7, "velocity": 101}, {"time": 316, "pitch": 59, "duration": 3, "velocity": 99}, {"time": 322, "pitch": 49, "duration": 13, "velocity": 104}, {"time": 322, "pitch": 61, "duration": 9, "velocity": 96}, {"time": 322, "pitch": 65, "duration": 9, "velocity": 101}, {"time": 328, "pitch": 56, "duration": 6, "velocity": 87}, {"time": 334, "pitch": 61, "duration": 2, "velocity": 109}, {"time": 334, "pitch": 65, "duration": 6, "velocity": 120}, {"time": 340, "pitch": 61, "duration": 2, "velocity": 101}, {"time": 346, "pitch": 51, "duration": 8, "velocity": 104}, {"time": 346, "pitch": 63, "duration": 7, "velocity": 91}, {"time": 346, "pitch": 66, "duration": 7, "velocity": 104}, {"time": 358, "pitch": 46, "duration": 4, "velocity": 96}, {"time": 358, "pitch": 58, "duration": 7, "velocity": 112}, {"time": 358, "pitch": 61, "duration": 7, "velocity": 109}, {"time": 370, "pitch": 51, "duration": 14, "velocity": 106}, {"time": 370, "pitch": 63, "duration": 19, "velocity": 101}, {"time": 370, "pitch": 66, "duration": 19, "velocity": 99}, {"time": 394, "pitch": 42, "duration": 42, "velocity": 101}, {"time": 400, "pitch": 49, "duration": 7, "velocity": 73}, {"time": 406, "pitch": 58, "duration": 22, "velocity": 96}, {"time": 412, "pitch": 49, "duration": 8, "velocity": 39}, {"time": 418, "pitch": 61, "duration": 12, "velocity": 101}, {"time": 424, "pitch": 49, "duration": 10, "velocity": 51}, {"time": 430, "pitch": 54, "duration": 2, "velocity": 94}, {"time": 430, "pitch": 58, "duration": 6, "velocity": 99}, {"time": 436, "pitch": 54, "duration": 2, "velocity": 94}, {"time": 442, "pitch": 39, "duration": 39, "velocity": 96}, {"time": 448, "pitch": 46, "duration": 7, "velocity": 48}, {"time": 454, "pitch": 54, "duration": 3, "velocity": 96}, {"time": 454, "pitch": 58, "duration": 4, "velocity": 99}, {"time": 460, "pitch": 46, "duration": 19, "velocity": 38}, {"time": 466, "pitch": 63, "duration": 20, "velocity": 99}, {"time": 472, "pitch": 51, "duration": 6, "velocity": 78}, {"time": 478, "pitch": 54, "duration": 4, "velocity": 96}, {"time": 478, "pitch": 58, "duration": 6, "velocity": 96}, {"time": 490, "pitch": 44, "duration": 43, "velocity": 96}, {"time": 490, "pitch": 56, "duration": 20, "velocity": 91}, {"time": 490, "pitch": 59, "duration": 8, "velocity": 94}, {"time": 496, "pitch": 51, "duration": 8, "velocity": 66}, {"time": 502, "pitch": 59, "duration": 9, "velocity": 91}, {"time": 502, "pitch": 63, "duration": 6, "velocity": 101}, {"time": 508, "pitch": 51, "duration": 8, "velocity": 73}, {"time": 514, "pitch": 59, "duration": 9, "velocity": 82}, {"time": 514, "pitch": 63, "duration": 12, "velocity": 96}, {"time": 520, "pitch": 51, "duration": 11, "velocity": 59}, {"time": 526, "pitch": 59, "duration": 6, "velocity": 101}, {"time": 532, "pitch": 56, "duration": 3, "velocity": 104}, {"time": 538, "pitch": 49, "duration": 40, "velocity": 96}, {"time": 538, "pitch": 56, "duration": 3, "velocity": 96}, {"time": 538, "pitch": 61, "duration": 12, "velocity": 104}, {"time": 544, "pitch": 56, "duration": 6, "velocity": 74}, {"time": 550, "pitch": 65, "duration": 20, "velocity": 110}, {"time": 556, "pitch": 56, "duration": 4, "velocity": 80}, {"time": 562, "pitch": 56, "duration": 3, "velocity": 96}, {"time": 562, "pitch": 61, "duration": 7, "velocity": 104}, {"time": 568, "pitch": 56, "duration": 4, "velocity": 76}, {"time": 574, "pitch": 61, "duration": 7, "velocity": 104}, {"time": 574, "pitch": 65, "duration": 7, "velocity": 110}, {"time": 580, "pitch": 56, "duration": 3, "velocity": 104}, {"time": 586, "pitch": 42, "duration": 42, "velocity": 101}, {"time": 592, "pitch": 49, "duration": 7, "velocity": 73}, {"time": 598, "pitch": 58, "duration": 22, "velocity": 96}, {"time": 604, "pitch": 49, "duration": 8, "velocity": 39}, {"time": 610, "pitch": 61, "duration": 12, "velocity": 101}, {"time": 616, "pitch": 49, "duration": 10, "velocity": 51}, {"time": 622, "pitch": 54, "duration": 2, "velocity": 94}, {"time": 622, "pitch": 58, "duration": 6, "velocity": 99}, {"time": 628, "pitch": 54, "duration": 2, "velocity": 94}, {"time": 634, "pitch": 39, "duration": 39, "velocity": 96}, {"time": 640, "pitch": 46, "duration": 7, "velocity": 48}, {"time": 646, "pitch": 54, "duration": 3, "velocity": 96}, {"time": 646, "pitch": 58, "duration": 4, "velocity": 99}, {"time": 652, "pitch": 46, "duration": 19, "velocity": 38}, {"time": 658, "pitch": 63, "duration": 20, "velocity": 99}, {"time": 664, "pitch": 51, "duration": 6, "velocity": 78}, {"time": 670, "pitch": 54, "duration": 4, "velocity": 96}, {"time": 670, "pitch": 58, "duration": 6, "velocity": 96}, {"time": 682, "pitch": 44, "duration": 43, "velocity": 96}, {"time": 682, "pitch": 56, "duration": 20, "velocity": 91}, {"time": 682, "pitch": 59, "duration": 8, "velocity": 94}, {"time": 688, "pitch": 51, "duration": 8, "velocity": 66}, {"time": 694, "pitch": 59, "duration": 9, "velocity": 91}, {"time": 694, "pitch": 63, "duration": 6, "velocity": 101}, {"time": 700, "pitch": 51, "duration": 8, "velocity": 73}, {"time": 706, "pitch": 59, "duration": 9, "velocity": 82}, {"time": 706, "pitch": 63, "duration": 12, "velocity": 96}, {"time": 712, "pitch": 51, "duration": 11, "velocity": 59}, {"time": 718, "pitch": 59, "duration": 6, "velocity": 101}, {"time": 724, "pitch": 56, "duration": 3, "velocity": 104}, {"time": 730, "pitch": 49, "duration": 40, "velocity": 96}, {"time": 730, "pitch": 56, "duration": 3, "velocity": 96}, {"time": 730, "pitch": 61, "duration": 12, "velocity": 104}, {"time": 736, "pitch": 56, "duration": 6, "velocity": 74}, {"time": 742, "pitch": 65, "duration": 20, "velocity": 110}, {"time": 748, "pitch": 56, "duration": 4, "velocity": 80}, {"time": 754, "pitch": 56, "duration": 3, "velocity": 96}, {"time": 754, "pitch": 61, "duration": 7, "velocity": 104}, {"time": 760, "pitch": 56, "duration": 4, "velocity": 76}, {"time": 766, "pitch": 61, "duration": 7, "velocity": 104}, {"time": 766, "pitch": 65, "duration": 7, "velocity": 110}, {"time": 772, "pitch": 56, "duration": 3, "velocity": 104}, {"time": 778, "pitch": 42, "duration": 14, "velocity": 99}, {"time": 778, "pitch": 54, "duration": 11, "velocity": 96}, {"time": 778, "pitch": 58, "duration": 8, "velocity": 96}, {"time": 784, "pitch": 49, "duration": 7, "velocity": 76}, {"time": 790, "pitch": 58, "duration": 6, "velocity": 106}, {"time": 790, "pitch": 61, "duration": 7, "velocity": 106}, {"time": 796, "pitch": 54, "duration": 2, "velocity": 101}, {"time": 802, "pitch": 46, "duration": 19, "velocity": 85}, {"time": 802, "pitch": 58, "duration": 9, "velocity": 89}, {"time": 802, "pitch": 61, "duration": 9, "velocity": 101}, {"time": 808, "pitch": 53, "duration": 8, "velocity": 42}, {"time": 814, "pitch": 58, "duration": 6, "velocity": 104}, {"time": 814, "pitch": 61, "duration": 5, "velocity": 104}, {"time": 814, "pitch": 65, "duration": 6, "velocity": 101}, {"time": 826, "pitch": 51, "duration": 13, "velocity": 96}, {"time": 826, "pitch": 58, "duration": 3, "velocity": 96}, {"time": 826, "pitch": 63, "duration": 7, "velocity": 101}, {"time": 832, "pitch": 58, "duration": 6, "velocity": 80}, {"time": 838, "pitch": 63, "duration": 4, "velocity": 101}, {"time": 838, "pitch": 66, "duration": 9, "velocity": 104}, {"time": 850, "pitch": 46, "duration": 16, "velocity": 91}, {"time": 850, "pitch": 58, "duration": 9, "velocity": 87}, {"time": 850, "pitch": 61, "duration": 8, "velocity": 101}, {"time": 856, "pitch": 53, "duration": 7, "velocity": 65}, {"time": 862, "pitch": 61, "duration": 6, "velocity": 99}, {"time": 862, "pitch": 65, "duration": 7, "velocity": 104}, {"time": 868, "pitch": 58, "duration": 2, "velocity": 99}, {"time": 874, "pitch": 44, "duration": 19, "velocity": 99}, {"time": 874, "pitch": 56, "duration": 10, "velocity": 99}, {"time": 874, "pitch": 59, "duration": 7, "velocity": 89}, {"time": 880, "pitch": 51, "duration": 12, "velocity": 62}, {"time": 886, "pitch": 59, "duration": 5, "velocity": 101}, {"time": 886, "pitch": 63, "duration": 7, "velocity": 104}, {"time": 898, "pitch": 46, "duration": 18, "velocity": 96}, {"time": 898, "pitch": 58, "duration": 8, "velocity": 94}, {"time": 898, "pitch": 61, "duration": 8, "velocity": 104}, {"time": 904, "pitch": 53, "duration": 9, "velocity": 93}, {"time": 910, "pitch": 58, "duration": 2, "velocity": 101}, {"time": 910, "pitch": 61, "duration": 6, "velocity": 109}, {"time": 910, "pitch": 65, "duration": 7, "velocity": 110}, {"time": 916, "pitch": 58, "duration": 3, "velocity": 80}, {"time": 922, "pitch": 44, "duration": 9, "velocity": 104}, {"time": 922, "pitch": 56, "duration": 5, "velocity": 106}, {"time": 922, "pitch": 59, "duration": 4, "velocity": 96}, {"time": 934, "pitch": 49, "duration": 5, "velocity": 99}, {"time": 934, "pitch": 56, "duration": 5, "velocity": 99}, {"time": 934, "pitch": 61, "duration": 4, "velocity": 104}, {"time": 934, "pitch": 65, "duration": 4, "velocity": 93}, {"time": 946, "pitch": 42, "duration": 16, "velocity": 104}, {"time": 946, "pitch": 54, "duration": 5, "velocity": 94}, {"time": 946, "pitch": 58, "duration": 5, "velocity": 91}, {"time": 946, "pitch": 61, "duration": 5, "velocity": 106}, {"time": 952, "pitch": 49, "duration": 7, "velocity": 66}, {"time": 958, "pitch": 58, "duration": 3, "velocity": 109}, {"time": 958, "pitch": 61, "duration": 3, "velocity": 106}, {"time": 964, "pitch": 49, "duration": 4, "velocity": 58}, {"time": 970, "pitch": 42, "duration": 16, "velocity": 106}, {"time": 970, "pitch": 58, "duration": 6, "velocity": 109}, {"time": 970, "pitch": 61, "duration": 6, "velocity": 109}, {"time": 970, "pitch": 66, "duration": 7, "velocity": 104}, {"time": 982, "pitch": 54, "duration": 6, "velocity": 109}, {"time": 982, "pitch": 58, "duration": 8, "velocity": 109}, {"time": 982, "pitch": 61, "duration": 9, "velocity": 109}, {"time": 988, "pitch": 49, "duration": 3, "velocity": 101}, {"time": 994, "pitch": 51, "duration": 13, "velocity": 101}, {"time": 994, "pitch": 58, "duration": 3, "velocity": 94}, {"time": 994, "pitch": 63, "duration": 7, "velocity": 94}, {"time": 1000, "pitch": 58, "duration": 5, "velocity": 89}, {"time": 1006, "pitch": 63, "duration": 6, "velocity": 106}, {"time": 1006, "pitch": 66, "duration": 8, "velocity": 101}, {"time": 1012, "pitch": 58, "duration": 2, "velocity": 87}, {"time": 1018, "pitch": 46, "duration": 17, "velocity": 87}, {"time": 1018, "pitch": 58, "duration": 7, "velocity": 101}, {"time": 1018, "pitch": 61, "duration": 8, "velocity": 104}, {"time": 1030, "pitch": 58, "duration": 2, "velocity": 104}, {"time": 1030, "pitch": 61, "duration": 6, "velocity": 106}, {"time": 1030, "pitch": 65, "duration": 6, "velocity": 117}, {"time": 1042, "pitch": 44, "duration": 9, "velocity": 106}, {"time": 1042, "pitch": 56, "duration": 2, "velocity": 106}, {"time": 1042, "pitch": 59, "duration": 6, "velocity": 104}, {"time": 1048, "pitch": 56, "duration": 1, "velocity": 45}, {"time": 1054, "pitch": 49, "duration": 8, "velocity": 104}, {"time": 1054, "pitch": 56, "duration": 2, "velocity": 106}, {"time": 1054, "pitch": 61, "duration": 7, "velocity": 106}, {"time": 1060, "pitch": 56, "duration": 3, "velocity": 99}, {"time": 1066, "pitch": 42, "duration": 16, "velocity": 99}, {"time": 1066, "pitch": 54, "duration": 8, "velocity": 96}, {"time": 1066, "pitch": 58, "duration": 6, "velocity": 96}, {"time": 1072, "pitch": 49, "duration": 7, "velocity": 67}, {"time": 1078, "pitch": 54, "duration": 2, "velocity": 104}, {"time": 1078, "pitch": 58, "duration": 8, "velocity": 112}, {"time": 1078, "pitch": 61, "duration": 8, "velocity": 106}, {"time": 1084, "pitch": 54, "duration": 2, "velocity": 87}, {"time": 1090, "pitch": 44, "duration": 14, "velocity": 104}, {"time": 1090, "pitch": 56, "duration": 8, "velocity": 101}, {"time": 1090, "pitch": 59, "duration": 7, "velocity": 96}, {"time": 1096, "pitch": 51, "duration": 6, "velocity": 26}, {"time": 1102, "pitch": 59, "duration": 7, "velocity": 101}, {"time": 1102, "pitch": 63, "duration": 7, "velocity": 101}, {"time": 1108, "pitch": 56, "duration": 2, "velocity": 101}, {"time": 1114, "pitch": 46, "duration": 13, "velocity": 87}, {"time": 1114, "pitch": 58, "duration": 8, "velocity": 96}, {"time": 1114, "pitch": 61, "duration": 8, "velocity": 101}, {"time": 1120, "pitch": 53, "duration": 6, "velocity": 42}, {"time": 1126, "pitch": 58, "duration": 2, "velocity": 104}, {"time": 1126, "pitch": 61, "duration": 7, "velocity": 106}, {"time": 1126, "pitch": 65, "duration": 9, "velocity": 113}, {"time": 1132, "pitch": 58, "duration": 2, "velocity": 91}, {"time": 1138, "pitch": 47, "duration": 16, "velocity": 101}, {"time": 1138, "pitch": 59, "duration": 8, "velocity": 99}, {"time": 1138, "pitch": 63, "duration": 8, "velocity": 104}, {"time": 1144, "pitch": 54, "duration": 8, "velocity": 82}, {"time": 1150, "pitch": 59, "duration": 2, "velocity": 109}, {"time": 1150, "pitch": 63, "duration": 7, "velocity": 109}, {"time": 1156, "pitch": 59, "duration": 2, "velocity": 73}, {"time": 1162, "pitch": 49, "duration": 18, "velocity": 109}, {"time": 1162, "pitch": 61, "duration": 5, "velocity": 106}, {"time": 1162, "pitch": 65, "duration": 4, "velocity": 110}, {"time": 1168, "pitch": 56, "duration": 7, "velocity": 87}, {"time": 1170, "pitch": 61, "duration": 2, "velocity": 101}, {"time": 1174, "pitch": 61, "duration": 4, "velocity": 109}, {"time": 1174, "pitch": 68, "duration": 4, "velocity": 106}, {"time": 1176, "pitch": 56, "duration": 4, "velocity": 104}, {"time": 1180, "pitch": 61, "duration": 3, "velocity": 112}, {"time": 1182, "pitch": 65, "duration": 2, "velocity": 110}, {"time": 1186, "pitch": 51, "duration": 13, "velocity": 101}, {"time": 1186, "pitch": 58, "duration": 3, "velocity": 94}, {"time": 1186, "pitch": 63, "duration": 7, "velocity": 94}, {"time": 1192, "pitch": 58, "duration": 5, "velocity": 89}, {"time": 1198, "pitch": 63, "duration": 6, "velocity": 106}, {"time": 1198, "pitch": 66, "duration": 8, "velocity": 101}, {"time": 1204, "pitch": 58, "duration": 2, "velocity": 87}, {"time": 1210, "pitch": 46, "duration": 17, "velocity": 87}, {"time": 1210, "pitch": 58, "duration": 7, "velocity": 101}, {"time": 1210, "pitch": 61, "duration": 8, "velocity": 104}, {"time": 1222, "pitch": 58, "duration": 2, "velocity": 104}, {"time": 1222, "pitch": 61, "duration": 6, "velocity": 106}, {"time": 1222, "pitch": 65, "duration": 6, "velocity": 117}, {"time": 1234, "pitch": 44, "duration": 9, "velocity": 106}, {"time": 1234, "pitch": 56, "duration": 2, "velocity": 106}, {"time": 1234, "pitch": 59, "duration": 6, "velocity": 104}, {"time": 1240, "pitch": 56, "duration": 1, "velocity": 45}, {"time": 1246, "pitch": 49, "duration": 8, "velocity": 104}, {"time": 1246, "pitch": 56, "duration": 2, "velocity": 106}, {"time": 1246, "pitch": 61, "duration": 7, "velocity": 106}, {"time": 1252, "pitch": 56, "duration": 3, "velocity": 99}, {"time": 1258, "pitch": 42, "duration": 16, "velocity": 99}, {"time": 1258, "pitch": 54, "duration": 8, "velocity": 96}, {"time": 1258, "pitch": 58, "duration": 6, "velocity": 96}, {"time": 1264, "pitch": 49, "duration": 7, "velocity": 67}, {"time": 1270, "pitch": 54, "duration": 2, "velocity": 104}, {"time": 1270, "pitch": 58, "duration": 8, "velocity": 112}, {"time": 1270, "pitch": 61, "duration": 8, "velocity": 106}, {"time": 1276, "pitch": 54, "duration": 2, "velocity": 87}, {"time": 1282, "pitch": 44, "duration": 14, "velocity": 104}, {"time": 1282, "pitch": 56, "duration": 8, "velocity": 101}, {"time": 1282, "pitch": 59, "duration": 7, "velocity": 96}, {"time": 1288, "pitch": 51, "duration": 6, "velocity": 26}, {"time": 1294, "pitch": 59, "duration": 7, "velocity": 101}, {"time": 1294, "pitch": 63, "duration": 7, "velocity": 101}, {"time": 1300, "pitch": 56, "duration": 2, "velocity": 101}, {"time": 1306, "pitch": 46, "duration": 13, "velocity": 87}, {"time": 1306, "pitch": 58, "duration": 8, "velocity": 96}, {"time": 1306, "pitch": 61, "duration": 8, "velocity": 101}, {"time": 1312, "pitch": 53, "duration": 6, "velocity": 42}, {"time": 1318, "pitch": 58, "duration": 2, "velocity": 104}, {"time": 1318, "pitch": 61, "duration": 7, "velocity": 106}, {"time": 1318, "pitch": 65, "duration": 9, "velocity": 113}, {"time": 1324, "pitch": 58, "duration": 2, "velocity": 91}, {"time": 1330, "pitch": 47, "duration": 16, "velocity": 101}, {"time": 1330, "pitch": 59, "duration": 8, "velocity": 99}, {"time": 1330, "pitch": 63, "duration": 8, "velocity": 104}, {"time": 1336, "pitch": 54, "duration": 8, "velocity": 82}, {"time": 1342, "pitch": 59, "duration": 2, "velocity": 109}, {"time": 1342, "pitch": 63, "duration": 7, "velocity": 109}, {"time": 1348, "pitch": 59, "duration": 2, "velocity": 73}, {"time": 1354, "pitch": 49, "duration": 18, "velocity": 109}, {"time": 1354, "pitch": 61, "duration": 5, "velocity": 106}, {"time": 1354, "pitch": 65, "duration": 4, "velocity": 110}, {"time": 1360, "pitch": 56, "duration": 7, "velocity": 87}, {"time": 1362, "pitch": 61, "duration": 2, "velocity": 101}, {"time": 1366, "pitch": 61, "duration": 4, "velocity": 109}, {"time": 1366, "pitch": 68, "duration": 4, "velocity": 106}, {"time": 1368, "pitch": 56, "duration": 4, "velocity": 104}, {"time": 1372, "pitch": 61, "duration": 3, "velocity": 112}, {"time": 1374, "pitch": 65, "duration": 2, "velocity": 110}, {"time": 1378, "pitch": 37, "duration": 16, "velocity": 106}, {"time": 1378, "pitch": 56, "duration": 17, "velocity": 94}, {"time": 1378, "pitch": 61, "duration": 17, "velocity": 104}, {"time": 1378, "pitch": 65, "duration": 17, "velocity": 101}, {"time": 1402, "pitch": 42, "duration": 20, "velocity": 104}, {"time": 1402, "pitch": 54, "duration": 7, "velocity": 96}, {"time": 1402, "pitch": 58, "duration": 7, "velocity": 94}, {"time": 1408, "pitch": 49, "duration": 8, "velocity": 59}, {"time": 1414, "pitch": 54, "duration": 3, "velocity": 106}, {"time": 1414, "pitch": 58, "duration": 7, "velocity": 106}, {"time": 1414, "pitch": 61, "duration": 8, "velocity": 109}, {"time": 1420, "pitch": 54, "duration": 4, "velocity": 99}, {"time": 1426, "pitch": 51, "duration": 18, "velocity": 96}, {"time": 1426, "pitch": 58, "duration": 7, "velocity": 101}, {"time": 1426, "pitch": 63, "duration": 8, "velocity": 106}, {"time": 1438, "pitch": 58, "duration": 4, "velocity": 104}, {"time": 1438, "pitch": 63, "duration": 6, "velocity": 109}, {"time": 1450, "pitch": 46, "duration": 15, "velocity": 101}, {"time": 1450, "pitch": 58, "duration": 8, "velocity": 96}, {"time": 1450, "pitch": 61, "duration": 8, "velocity": 104}, {"time": 1462, "pitch": 58, "duration": 2, "velocity": 101}, {"time": 1462, "pitch": 61, "duration": 6, "velocity": 112}, {"time": 1462, "pitch": 65, "duration": 6, "velocity": 117}, {"time": 1468, "pitch": 58, "duration": 3, "velocity": 94}, {"time": 1474, "pitch": 51, "duration": 16, "velocity": 104}, {"time": 1474, "pitch": 58, "duration": 2, "velocity": 99}, {"time": 1474, "pitch": 63, "duration": 9, "velocity": 106}, {"time": 1474, "pitch": 66, "duration": 9, "velocity": 82}, {"time": 1486, "pitch": 58, "duration": 3, "velocity": 106}, {"time": 1486, "pitch": 63, "duration": 6, "velocity": 115}, {"time": 1486, "pitch": 66, "duration": 7, "velocity": 109}, {"time": 1492, "pitch": 58, "duration": 2, "velocity": 96}, {"time": 1498, "pitch": 42, "duration": 14, "velocity": 85}, {"time": 1498, "pitch": 54, "duration": 8, "velocity": 101}, {"time": 1498, "pitch": 58, "duration": 7, "velocity": 101}, {"time": 1504, "pitch": 49, "duration": 7, "velocity": 85}, {"time": 1510, "pitch": 54, "duration": 2, "velocity": 104}, {"time": 1510, "pitch": 58, "duration": 6, "velocity": 109}, {"time": 1510, "pitch": 61, "duration": 6, "velocity": 109}, {"time": 1516, "pitch": 54, "duration": 1, "velocity": 58}, {"time": 1522, "pitch": 51, "duration": 14, "velocity": 101}, {"time": 1522, "pitch": 58, "duration": 4, "velocity": 96}, {"time": 1522, "pitch": 63, "duration": 7, "velocity": 94}, {"time": 1528, "pitch": 58, "duration": 3, "velocity": 87}, {"time": 1534, "pitch": 58, "duration": 4, "velocity": 106}, {"time": 1534, "pitch": 63, "duration": 4, "velocity": 109}, {"time": 1534, "pitch": 66, "duration": 5, "velocity": 106}, {"time": 1546, "pitch": 46, "duration": 16, "velocity": 96}, {"time": 1546, "pitch": 58, "duration": 9, "velocity": 96}, {"time": 1546, "pitch": 61, "duration": 8, "velocity": 104}, {"time": 1546, "pitch": 65, "duration": 9, "velocity": 104}, {"time": 1552, "pitch": 53, "duration": 7, "velocity": 66}, {"time": 1558, "pitch": 58, "duration": 2, "velocity": 104}, {"time": 1558, "pitch": 61, "duration": 6, "velocity": 109}, {"time": 1558, "pitch": 65, "duration": 6, "velocity": 113}, {"time": 1564, "pitch": 58, "duration": 3, "velocity": 94}, {"time": 1570, "pitch": 51, "duration": 20, "velocity": 101}, {"time": 1570, "pitch": 58, "duration": 3, "velocity": 104}, {"time": 1570, "pitch": 63, "duration": 7, "velocity": 106}, {"time": 1576, "pitch": 58, "duration": 3, "velocity": 87}, {"time": 1582, "pitch": 58, "duration": 7, "velocity": 109}, {"time": 1582, "pitch": 63, "duration": 5, "velocity": 112}, {"time": 1582, "pitch": 66, "duration": 10, "velocity": 106}, {"time": 1594, "pitch": 47, "duration": 16, "velocity": 96}, {"time": 1594, "pitch": 59, "duration": 7, "velocity": 91}, {"time": 1594, "pitch": 63, "duration": 9, "velocity": 89}, {"time": 1606, "pitch": 59, "duration": 3, "velocity": 104}, {"time": 1606, "pitch": 63, "duration": 6, "velocity": 115}, {"time": 1612, "pitch": 59, "duration": 1, "velocity": 82}, {"time": 1618, "pitch": 49, "duration": 14, "velocity": 109}, {"time": 1618, "pitch": 61, "duration": 7, "velocity": 104}, {"time": 1618, "pitch": 65, "duration": 7, "velocity": 110}, {"time": 1624, "pitch": 56, "duration": 7, "velocity": 96}, {"time": 1630, "pitch": 61, "duration": 4, "velocity": 109}, {"time": 1630, "pitch": 65, "duration": 3, "velocity": 117}, {"time": 1642, "pitch": 51, "duration": 8, "velocity": 104}, {"time": 1642, "pitch": 58, "duration": 6, "velocity": 106}, {"time": 1642, "pitch": 63, "duration": 5, "velocity": 109}, {"time": 1654, "pitch": 46, "duration": 9, "velocity": 101}, {"time": 1654, "pitch": 58, "duration": 8, "velocity": 104}, {"time": 1654, "pitch": 61, "duration": 8, "velocity": 109}, {"time": 1666, "pitch": 51, "duration": 22, "velocity": 106}, {"time": 1666, "pitch": 58, "duration": 7, "velocity": 104}, {"time": 1666, "pitch": 63, "duration": 6, "velocity": 106}, {"time": 1678, "pitch": 58, "duration": 8, "velocity": 91}, {"time": 1678, "pitch": 63, "duration": 8, "velocity": 99}, {"time": 1678, "pitch": 70, "duration": 11, "velocity": 101}, {"time": 1690, "pitch": 42, "duration": 37, "velocity": 104}, {"time": 1690, "pitch": 54, "duration": 9, "velocity": 96}, {"time": 1690, "pitch": 58, "duration": 9, "velocity": 101}, {"time": 1696, "pitch": 49, "duration": 7, "velocity": 66}, {"time": 1702, "pitch": 58, "duration": 6, "velocity": 99}, {"time": 1702, "pitch": 61, "duration": 5, "velocity": 104}, {"time": 1708, "pitch": 49, "duration": 6, "velocity": 45}, {"time": 1714, "pitch": 58, "duration": 7, "velocity": 85}, {"time": 1714, "pitch": 61, "duration": 6, "velocity": 96}, {"time": 1726, "pitch": 54, "duration": 1, "velocity": 85}, {"time": 1726, "pitch": 58, "duration": 6, "velocity": 104}, {"time": 1726, "pitch": 61, "duration": 6, "velocity": 104}, {"time": 1732, "pitch": 54, "duration": 1, "velocity": 96}, {"time": 1738, "pitch": 51, "duration": 15, "velocity": 101}, {"time": 1738, "pitch": 58, "duration": 8, "velocity": 101}, {"time": 1738, "pitch": 63, "duration": 8, "velocity": 104}, {"time": 1750, "pitch": 63, "duration": 5, "velocity": 101}, {"time": 1750, "pitch": 66, "duration": 4, "velocity": 94}, {"time": 1762, "pitch": 58, "duration": 7, "velocity": 74}, {"time": 1762, "pitch": 63, "duration": 8, "velocity": 99}, {"time": 1762, "pitch": 66, "duration": 7, "velocity": 99}, {"time": 1768, "pitch": 51, "duration": 7, "velocity": 73}, {"time": 1768, "pitch": 54, "duration": 7, "velocity": 85}, {"time": 1774, "pitch": 63, "duration": 6, "velocity": 106}, {"time": 1774, "pitch": 66, "duration": 6, "velocity": 104}, {"time": 1780, "pitch": 58, "duration": 2, "velocity": 109}, {"time": 1786, "pitch": 42, "duration": 41, "velocity": 91}, {"time": 1786, "pitch": 54, "duration": 8, "velocity": 99}, {"time": 1786, "pitch": 58, "duration": 7, "velocity": 94}, {"time": 1792, "pitch": 49, "duration": 18, "velocity": 38}, {"time": 1798, "pitch": 58, "duration": 4, "velocity": 101}, {"time": 1798, "pitch": 61, "duration": 3, "velocity": 101}, {"time": 1810, "pitch": 58, "duration": 6, "velocity": 99}, {"time": 1810, "pitch": 61, "duration": 6, "velocity": 101}, {"time": 1816, "pitch": 49, "duration": 9, "velocity": 69}, {"time": 1822, "pitch": 58, "duration": 6, "velocity": 109}, {"time": 1822, "pitch": 61, "duration": 6, "velocity": 109}, {"time": 1828, "pitch": 54, "duration": 2, "velocity": 112}, {"time": 1834, "pitch": 39, "duration": 2, "velocity": 91}, {"time": 1834, "pitch": 51, "duration": 3, "velocity": 96}, {"time": 1834, "pitch": 54, "duration": 3, "velocity": 101}, {"time": 1846, "pitch": 63, "duration": 9, "velocity": 96}, {"time": 1846, "pitch": 66, "duration": 8, "velocity": 99}, {"time": 1852, "pitch": 51, "duration": 19, "velocity": 37}, {"time": 1852, "pitch": 58, "duration": 8, "velocity": 61}, {"time": 1858, "pitch": 66, "duration": 9, "velocity": 106}, {"time": 1858, "pitch": 70, "duration": 7, "velocity": 104}, {"time": 1864, "pitch": 58, "duration": 6, "velocity": 76}, {"time": 1870, "pitch": 63, "duration": 2, "velocity": 104}, {"time": 1870, "pitch": 66, "duration": 2, "velocity": 109}, {"time": 1870, "pitch": 70, "duration": 2, "velocity": 106}, {"time": 1876, "pitch": 61, "duration": 2, "velocity": 91}, {"time": 1882, "pitch": 42, "duration": 42, "velocity": 101}, {"time": 1888, "pitch": 49, "duration": 7, "velocity": 73}, {"time": 1894, "pitch": 58, "duration": 22, "velocity": 96}, {"time": 1900, "pitch": 49, "duration": 8, "velocity": 39}, {"time": 1906, "pitch": 61, "duration": 12, "velocity": 101}, {"time": 1912, "pitch": 49, "duration": 10, "velocity": 51}, {"time": 1918, "pitch": 54, "duration": 2, "velocity": 94}, {"time": 1918, "pitch": 58, "duration": 6, "velocity": 99}, {"time": 1924, "pitch": 54, "duration": 2, "velocity": 94}, {"time": 1930, "pitch": 39, "duration": 39, "velocity": 96}, {"time": 1936, "pitch": 46, "duration": 7, "velocity": 48}, {"time": 1942, "pitch": 54, "duration": 3, "velocity": 96}, {"time": 1942, "pitch": 58, "duration": 4, "velocity": 99}, {"time": 1948, "pitch": 46, "duration": 19, "velocity": 38}, {"time": 1954, "pitch": 63, "duration": 20, "velocity": 99}, {"time": 1960, "pitch": 51, "duration": 6, "velocity": 78}, {"time": 1966, "pitch": 54, "duration": 4, "velocity": 96}, {"time": 1966, "pitch": 58, "duration": 6, "velocity": 96}, {"time": 1978, "pitch": 44, "duration": 43, "velocity": 96}, {"time": 1978, "pitch": 56, "duration": 20, "velocity": 91}, {"time": 1978, "pitch": 59, "duration": 8, "velocity": 94}, {"time": 1984, "pitch": 51, "duration": 8, "velocity": 66}, {"time": 1990, "pitch": 59, "duration": 9, "velocity": 91}, {"time": 1990, "pitch": 63, "duration": 6, "velocity": 101}, {"time": 1996, "pitch": 51, "duration": 8, "velocity": 73}, {"time": 2002, "pitch": 59, "duration": 9, "velocity": 82}, {"time": 2002, "pitch": 63, "duration": 12, "velocity": 96}, {"time": 2008, "pitch": 51, "duration": 11, "velocity": 59}, {"time": 2014, "pitch": 59, "duration": 6, "velocity": 101}, {"time": 2020, "pitch": 56, "duration": 3, "velocity": 104}, {"time": 2026, "pitch": 49, "duration": 40, "velocity": 96}, {"time": 2026, "pitch": 56, "duration": 3, "velocity": 96}, {"time": 2026, "pitch": 61, "duration": 12, "velocity": 104}, {"time": 2032, "pitch": 56, "duration": 6, "velocity": 74}, {"time": 2038, "pitch": 65, "duration": 20, "velocity": 110}, {"time": 2044, "pitch": 56, "duration": 4, "velocity": 80}, {"time": 2050, "pitch": 56, "duration": 3, "velocity": 96}, {"time": 2050, "pitch": 61, "duration": 7, "velocity": 104}, {"time": 2056, "pitch": 56, "duration": 4, "velocity": 76}, {"time": 2062, "pitch": 61, "duration": 7, "velocity": 104}, {"time": 2062, "pitch": 65, "duration": 7, "velocity": 110}, {"time": 2068, "pitch": 56, "duration": 3, "velocity": 104}, {"time": 2074, "pitch": 42, "duration": 14, "velocity": 99}, {"time": 2074, "pitch": 54, "duration": 11, "velocity": 96}, {"time": 2074, "pitch": 58, "duration": 8, "velocity": 96}, {"time": 2080, "pitch": 49, "duration": 7, "velocity": 76}, {"time": 2086, "pitch": 58, "duration": 6, "velocity": 106}, {"time": 2086, "pitch": 61, "duration": 7, "velocity": 106}, {"time": 2092, "pitch": 54, "duration": 2, "velocity": 101}, {"time": 2098, "pitch": 46, "duration": 19, "velocity": 85}, {"time": 2098, "pitch": 58, "duration": 9, "velocity": 89}, {"time": 2098, "pitch": 61, "duration": 9, "velocity": 101}, {"time": 2104, "pitch": 53, "duration": 8, "velocity": 42}, {"time": 2110, "pitch": 58, "duration": 6, "velocity": 104}, {"time": 2110, "pitch": 61, "duration": 5, "velocity": 104}, {"time": 2110, "pitch": 65, "duration": 6, "velocity": 101}, {"time": 2122, "pitch": 51, "duration": 13, "velocity": 96}, {"time": 2122, "pitch": 58, "duration": 3, "velocity": 96}, {"time": 2122, "pitch": 63, "duration": 7, "velocity": 101}, {"time": 2128, "pitch": 58, "duration": 6, "velocity": 80}, {"time": 2134, "pitch": 63, "duration": 4, "velocity": 101}, {"time": 2134, "pitch": 66, "duration": 9, "velocity": 104}, {"time": 2146, "pitch": 46, "duration": 16, "velocity": 91}, {"time": 2146, "pitch": 58, "duration": 9, "velocity": 87}, {"time": 2146, "pitch": 61, "duration": 8, "velocity": 101}, {"time": 2152, "pitch": 53, "duration": 7, "velocity": 65}, {"time": 2158, "pitch": 61, "duration": 6, "velocity": 99}, {"time": 2158, "pitch": 65, "duration": 7, "velocity": 104}, {"time": 2164, "pitch": 58, "duration": 2, "velocity": 99}, {"time": 2170, "pitch": 44, "duration": 19, "velocity": 99}, {"time": 2170, "pitch": 56, "duration": 10, "velocity": 99}, {"time": 2170, "pitch": 59, "duration": 7, "velocity": 89}, {"time": 2176, "pitch": 51, "duration": 12, "velocity": 62}, {"time": 2182, "pitch": 59, "duration": 5, "velocity": 101}, {"time": 2182, "pitch": 63, "duration": 7, "velocity": 104}, {"time": 2194, "pitch": 46, "duration": 18, "velocity": 96}, {"time": 2194, "pitch": 58, "duration": 8, "velocity": 94}, {"time": 2194, "pitch": 61, "duration": 8, "velocity": 104}, {"time": 2200, "pitch": 53, "duration": 9, "velocity": 93}, {"time": 2206, "pitch": 58, "duration": 2, "velocity": 101}, {"time": 2206, "pitch": 61, "duration": 6, "velocity": 109}, {"time": 2206, "pitch": 65, "duration": 7, "velocity": 110}, {"time": 2212, "pitch": 58, "duration": 3, "velocity": 80}, {"time": 2218, "pitch": 44, "duration": 9, "velocity": 104}, {"time": 2218, "pitch": 56, "duration": 5, "velocity": 106}, {"time": 2218, "pitch": 59, "duration": 4, "velocity": 96}, {"time": 2230, "pitch": 49, "duration": 5, "velocity": 99}, {"time": 2230, "pitch": 56, "duration": 5, "velocity": 99}, {"time": 2230, "pitch": 61, "duration": 4, "velocity": 104}, {"time": 2230, "pitch": 65, "duration": 4, "velocity": 93}, {"time": 2242, "pitch": 42, "duration": 16, "velocity": 104}, {"time": 2242, "pitch": 54, "duration": 5, "velocity": 94}, {"time": 2242, "pitch": 58, "duration": 5, "velocity": 91}, {"time": 2242, "pitch": 61, "duration": 5, "velocity": 106}, {"time": 2248, "pitch": 49, "duration": 7, "velocity": 66}, {"time": 2254, "pitch": 58, "duration": 3, "velocity": 109}, {"time": 2254, "pitch": 61, "duration": 3, "velocity": 106}, {"time": 2260, "pitch": 49, "duration": 4, "velocity": 58}, {"time": 2266, "pitch": 42, "duration": 16, "velocity": 106}, {"time": 2266, "pitch": 58, "duration": 6, "velocity": 109}, {"time": 2266, "pitch": 61, "duration": 6, "velocity": 109}, {"time": 2266, "pitch": 66, "duration": 7, "velocity": 104}, {"time": 2278, "pitch": 54, "duration": 6, "velocity": 109}, {"time": 2278, "pitch": 58, "duration": 8, "velocity": 109}, {"time": 2278, "pitch": 61, "duration": 9, "velocity": 109}, {"time": 2284, "pitch": 49, "duration": 3, "velocity": 101}, {"time": 2290, "pitch": 51, "duration": 13, "velocity": 101}, {"time": 2290, "pitch": 58, "duration": 3, "velocity": 94}, {"time": 2290, "pitch": 63, "duration": 7, "velocity": 94}, {"time": 2296, "pitch": 58, "duration": 5, "velocity": 89}, {"time": 2302, "pitch": 63, "duration": 6, "velocity": 106}, {"time": 2302, "pitch": 66, "duration": 8, "velocity": 101}, {"time": 2308, "pitch": 58, "duration": 2, "velocity": 87}, {"time": 2314, "pitch": 46, "duration": 17, "velocity": 87}, {"time": 2314, "pitch": 58, "duration": 7, "velocity": 101}, {"time": 2314, "pitch": 61, "duration": 8, "velocity": 104}, {"time": 2326, "pitch": 58, "duration": 2, "velocity": 104}, {"time": 2326, "pitch": 61, "duration": 6, "velocity": 106}, {"time": 2326, "pitch": 65, "duration": 6, "velocity": 117}, {"time": 2338, "pitch": 44, "duration": 9, "velocity": 106}, {"time": 2338, "pitch": 56, "duration": 2, "velocity": 106}, {"time": 2338, "pitch": 59, "duration": 6, "velocity": 104}, {"time": 2344, "pitch": 56, "duration": 1, "velocity": 45}, {"time": 2350, "pitch": 49, "duration": 8, "velocity": 104}, {"time": 2350, "pitch": 56, "duration": 2, "velocity": 106}, {"time": 2350, "pitch": 61, "duration": 7, "velocity": 106}, {"time": 2356, "pitch": 56, "duration": 3, "velocity": 99}, {"time": 2362, "pitch": 42, "duration": 16, "velocity": 99}, {"time": 2362, "pitch": 54, "duration": 8, "velocity": 96}, {"time": 2362, "pitch": 58, "duration": 6, "velocity": 96}, {"time": 2368, "pitch": 49, "duration": 7, "velocity": 67}, {"time": 2374, "pitch": 54, "duration": 2, "velocity": 104}, {"time": 2374, "pitch": 58, "duration": 8, "velocity": 112}, {"time": 2374, "pitch": 61, "duration": 8, "velocity": 106}, {"time": 2380, "pitch": 54, "duration": 2, "velocity": 87}, {"time": 2386, "pitch": 44, "duration": 14, "velocity": 104}, {"time": 2386, "pitch": 56, "duration": 8, "velocity": 101}, {"time": 2386, "pitch": 59, "duration": 7, "velocity": 96}, {"time": 2392, "pitch": 51, "duration": 6, "velocity": 26}, {"time": 2398, "pitch": 59, "duration": 7, "velocity": 101}, {"time": 2398, "pitch": 63, "duration": 7, "velocity": 101}, {"time": 2404, "pitch": 56, "duration": 2, "velocity": 101}, {"time": 2410, "pitch": 46, "duration": 13, "velocity": 87}, {"time": 2410, "pitch": 58, "duration": 8, "velocity": 96}, {"time": 2410, "pitch": 61, "duration": 8, "velocity": 101}, {"time": 2416, "pitch": 53, "duration": 6, "velocity": 42}, {"time": 2422, "pitch": 58, "duration": 2, "velocity": 104}, {"time": 2422, "pitch": 61, "duration": 7, "velocity": 106}, {"time": 2422, "pitch": 65, "duration": 9, "velocity": 113}, {"time": 2428, "pitch": 58, "duration": 2, "velocity": 91}, {"time": 2434, "pitch": 47, "duration": 16, "velocity": 101}, {"time": 2434, "pitch": 59, "duration": 8, "velocity": 99}, {"time": 2434, "pitch": 63, "duration": 8, "velocity": 104}, {"time": 2440, "pitch": 54, "duration": 8, "velocity": 82}, {"time": 2446, "pitch": 59, "duration": 2, "velocity": 109}, {"time": 2446, "pitch": 63, "duration": 7, "velocity": 109}, {"time": 2452, "pitch": 59, "duration": 2, "velocity": 73}, {"time": 2458, "pitch": 49, "duration": 18, "velocity": 109}, {"time": 2458, "pitch": 61, "duration": 5, "velocity": 106}, {"time": 2458, "pitch": 65, "duration": 4, "velocity": 110}, {"time": 2464, "pitch": 56, "duration": 7, "velocity": 87}, {"time": 2466, "pitch": 61, "duration": 2, "velocity": 101}, {"time": 2470, "pitch": 61, "duration": 4, "velocity": 109}, {"time": 2470, "pitch": 68, "duration": 4, "velocity": 106}, {"time": 2472, "pitch": 56, "duration": 4, "velocity": 104}, {"time": 2476, "pitch": 61, "duration": 3, "velocity": 112}, {"time": 2478, "pitch": 65, "duration": 2, "velocity": 110}, {"time": 2482, "pitch": 37, "duration": 16, "velocity": 106}, {"time": 2482, "pitch": 56, "duration": 17, "velocity": 94}, {"time": 2482, "pitch": 61, "duration": 17, "velocity": 104}, {"time": 2482, "pitch": 65, "duration": 17, "velocity": 101}, {"time": 2506, "pitch": 42, "duration": 20, "velocity": 104}, {"time": 2506, "pitch": 54, "duration": 7, "velocity": 96}, {"time": 2506, "pitch": 58, "duration": 7, "velocity": 94}, {"time": 2512, "pitch": 49, "duration": 8, "velocity": 59}, {"time": 2518, "pitch": 54, "duration": 3, "velocity": 106}, {"time": 2518, "pitch": 58, "duration": 7, "velocity": 106}, {"time": 2518, "pitch": 61, "duration": 8, "velocity": 109}, {"time": 2524, "pitch": 54, "duration": 4, "velocity": 99}, {"time": 2530, "pitch": 51, "duration": 18, "velocity": 96}, {"time": 2530, "pitch": 58, "duration": 7, "velocity": 101}, {"time": 2530, "pitch": 63, "duration": 8, "velocity": 106}, {"time": 2542, "pitch": 58, "duration": 4, "velocity": 104}, {"time": 2542, "pitch": 63, "duration": 6, "velocity": 109}, {"time": 2554, "pitch": 46, "duration": 15, "velocity": 101}, {"time": 2554, "pitch": 58, "duration": 8, "velocity": 96}, {"time": 2554, "pitch": 61, "duration": 8, "velocity": 104}, {"time": 2566, "pitch": 58, "duration": 2, "velocity": 101}, {"time": 2566, "pitch": 61, "duration": 6, "velocity": 112}, {"time": 2566, "pitch": 65, "duration": 6, "velocity": 117}, {"time": 2572, "pitch": 58, "duration": 3, "velocity": 94}, {"time": 2578, "pitch": 51, "duration": 16, "velocity": 104}, {"time": 2578, "pitch": 58, "duration": 2, "velocity": 99}, {"time": 2578, "pitch": 63, "duration": 9, "velocity": 106}, {"time": 2578, "pitch": 66, "duration": 9, "velocity": 82}, {"time": 2590, "pitch": 58, "duration": 3, "velocity": 106}, {"time": 2590, "pitch": 63, "duration": 6, "velocity": 115}, {"time": 2590, "pitch": 66, "duration": 7, "velocity": 109}, {"time": 2596, "pitch": 58, "duration": 2, "velocity": 96}, {"time": 2602, "pitch": 42, "duration": 14, "velocity": 85}, {"time": 2602, "pitch": 54, "duration": 8, "velocity": 101}, {"time": 2602, "pitch": 58, "duration": 7, "velocity": 101}, {"time": 2608, "pitch": 49, "duration": 7, "velocity": 85}, {"time": 2614, "pitch": 54, "duration": 2, "velocity": 104}, {"time": 2614, "pitch": 58, "duration": 6, "velocity": 109}, {"time": 2614, "pitch": 61, "duration": 6, "velocity": 109}, {"time": 2620, "pitch": 54, "duration": 1, "velocity": 58}, {"time": 2626, "pitch": 51, "duration": 14, "velocity": 101}, {"time": 2626, "pitch": 58, "duration": 4, "velocity": 96}, {"time": 2626, "pitch": 63, "duration": 7, "velocity": 94}, {"time": 2632, "pitch": 58, "duration": 3, "velocity": 87}, {"time": 2638, "pitch": 58, "duration": 4, "velocity": 106}, {"time": 2638, "pitch": 63, "duration": 4, "velocity": 109}, {"time": 2638, "pitch": 66, "duration": 5, "velocity": 106}, {"time": 2650, "pitch": 46, "duration": 16, "velocity": 96}, {"time": 2650, "pitch": 58, "duration": 9, "velocity": 96}, {"time": 2650, "pitch": 61, "duration": 8, "velocity": 104}, {"time": 2650, "pitch": 65, "duration": 9, "velocity": 104}, {"time": 2656, "pitch": 53, "duration": 7, "velocity": 66}, {"time": 2662, "pitch": 58, "duration": 2, "velocity": 104}, {"time": 2662, "pitch": 61, "duration": 6, "velocity": 109}, {"time": 2662, "pitch": 65, "duration": 6, "velocity": 113}, {"time": 2668, "pitch": 58, "duration": 3, "velocity": 94}, {"time": 2674, "pitch": 51, "duration": 20, "velocity": 101}, {"time": 2674, "pitch": 58, "duration": 3, "velocity": 104}, {"time": 2674, "pitch": 63, "duration": 7, "velocity": 106}, {"time": 2680, "pitch": 58, "duration": 3, "velocity": 87}, {"time": 2686, "pitch": 58, "duration": 7, "velocity": 109}, {"time": 2686, "pitch": 63, "duration": 5, "velocity": 112}, {"time": 2686, "pitch": 66, "duration": 10, "velocity": 106}, {"time": 2698, "pitch": 47, "duration": 16, "velocity": 96}, {"time": 2698, "pitch": 59, "duration": 7, "velocity": 91}, {"time": 2698, "pitch": 63, "duration": 9, "velocity": 89}, {"time": 2710, "pitch": 59, "duration": 3, "velocity": 104}, {"time": 2710, "pitch": 63, "duration": 6, "velocity": 115}, {"time": 2716, "pitch": 59, "duration": 1, "velocity": 82}, {"time": 2722, "pitch": 49, "duration": 14, "velocity": 109}, {"time": 2722, "pitch": 61, "duration": 7, "velocity": 104}, {"time": 2722, "pitch": 65, "duration": 7, "velocity": 110}, {"time": 2728, "pitch": 56, "duration": 7, "velocity": 96}, {"time": 2734, "pitch": 61, "duration": 4, "velocity": 109}, {"time": 2734, "pitch": 65, "duration": 3, "velocity": 117}, {"time": 2746, "pitch": 51, "duration": 8, "velocity": 104}, {"time": 2746, "pitch": 58, "duration": 6, "velocity": 106}, {"time": 2746, "pitch": 63, "duration": 5, "velocity": 109}, {"time": 2758, "pitch": 46, "duration": 9, "velocity": 101}, {"time": 2758, "pitch": 58, "duration": 8, "velocity": 104}, {"time": 2758, "pitch": 61, "duration": 8, "velocity": 109}, {"time": 2770, "pitch": 51, "duration": 22, "velocity": 106}, {"time": 2770, "pitch": 58, "duration": 7, "velocity": 104}, {"time": 2770, "pitch": 63, "duration": 6, "velocity": 106}, {"time": 2782, "pitch": 58, "duration": 8, "velocity": 91}, {"time": 2782, "pitch": 63, "duration": 8, "velocity": 99}, {"time": 2782, "pitch": 70, "duration": 11, "velocity": 101}, {"time": 2794, "pitch": 42, "duration": 20, "velocity": 104}, {"time": 2794, "pitch": 54, "duration": 7, "velocity": 96}, {"time": 2794, "pitch": 58, "duration": 7, "velocity": 94}, {"time": 2800, "pitch": 49, "duration": 8, "velocity": 59}, {"time": 2806, "pitch": 54, "duration": 3, "velocity": 106}, {"time": 2806, "pitch": 58, "duration": 7, "velocity": 106}, {"time": 2806, "pitch": 61, "duration": 8, "velocity": 109}, {"time": 2812, "pitch": 54, "duration": 4, "velocity": 99}, {"time": 2818, "pitch": 51, "duration": 18, "velocity": 96}, {"time": 2818, "pitch": 58, "duration": 7, "velocity": 101}, {"time": 2818, "pitch": 63, "duration": 8, "velocity": 106}, {"time": 2830, "pitch": 58, "duration": 4, "velocity": 104}, {"time": 2830, "pitch": 63, "duration": 6, "velocity": 109}, {"time": 2842, "pitch": 46, "duration": 15, "velocity": 101}, {"time": 2842, "pitch": 58, "duration": 8, "velocity": 96}, {"time": 2842, "pitch": 61, "duration": 8, "velocity": 104}, {"time": 2854, "pitch": 58, "duration": 2, "velocity": 101}, {"time": 2854, "pitch": 61, "duration": 6, "velocity": 112}, {"time": 2854, "pitch": 65, "duration": 6, "velocity": 117}, {"time": 2860, "pitch": 58, "duration": 3, "velocity": 94}, {"time": 2866, "pitch": 51, "duration": 16, "velocity": 104}, {"time": 2866, "pitch": 58, "duration": 2, "velocity": 99}, {"time": 2866, "pitch": 63, "duration": 9, "velocity": 106}, {"time": 2866, "pitch": 66, "duration": 9, "velocity": 82}, {"time": 2878, "pitch": 58, "duration": 3, "velocity": 106}, {"time": 2878, "pitch": 63, "duration": 6, "velocity": 115}, {"time": 2878, "pitch": 66, "duration": 7, "velocity": 109}, {"time": 2884, "pitch": 58, "duration": 2, "velocity": 96}, {"time": 2890, "pitch": 42, "duration": 14, "velocity": 85}, {"time": 2890, "pitch": 54, "duration": 8, "velocity": 101}, {"time": 2890, "pitch": 58, "duration": 7, "velocity": 101}, {"time": 2896, "pitch": 49, "duration": 7, "velocity": 85}, {"time": 2902, "pitch": 54, "duration": 2, "velocity": 104}, {"time": 2902, "pitch": 58, "duration": 6, "velocity": 109}, {"time": 2902, "pitch": 61, "duration": 6, "velocity": 109}, {"time": 2908, "pitch": 54, "duration": 1, "velocity": 58}, {"time": 2914, "pitch": 51, "duration": 14, "velocity": 101}, {"time": 2914, "pitch": 58, "duration": 4, "velocity": 96}, {"time": 2914, "pitch": 63, "duration": 7, "velocity": 94}, {"time": 2920, "pitch": 58, "duration": 3, "velocity": 87}, {"time": 2926, "pitch": 58, "duration": 4, "velocity": 106}, {"time": 2926, "pitch": 63, "duration": 4, "velocity": 109}, {"time": 2926, "pitch": 66, "duration": 5, "velocity": 106}, {"time": 2938, "pitch": 46, "duration": 16, "velocity": 96}, {"time": 2938, "pitch": 58, "duration": 9, "velocity": 96}, {"time": 2938, "pitch": 61, "duration": 8, "velocity": 104}, {"time": 2938, "pitch": 65, "duration": 9, "velocity": 104}, {"time": 2944, "pitch": 53, "duration": 7, "velocity": 66}, {"time": 2950, "pitch": 58, "duration": 2, "velocity": 104}, {"time": 2950, "pitch": 61, "duration": 6, "velocity": 109}, {"time": 2950, "pitch": 65, "duration": 6, "velocity": 113}, {"time": 2956, "pitch": 58, "duration": 3, "velocity": 94}, {"time": 2962, "pitch": 51, "duration": 20, "velocity": 101}, {"time": 2962, "pitch": 58, "duration": 3, "velocity": 104}, {"time": 2962, "pitch": 63, "duration": 7, "velocity": 106}, {"time": 2968, "pitch": 58, "duration": 3, "velocity": 87}, {"time": 2974, "pitch": 58, "duration": 7, "velocity": 109}, {"time": 2974, "pitch": 63, "duration": 5, "velocity": 112}, {"time": 2974, "pitch": 66, "duration": 10, "velocity": 106}, {"time": 2986, "pitch": 47, "duration": 16, "velocity": 96}, {"time": 2986, "pitch": 59, "duration": 7, "velocity": 91}, {"time": 2986, "pitch": 63, "duration": 9, "velocity": 89}, {"time": 2998, "pitch": 59, "duration": 3, "velocity": 104}, {"time": 2998, "pitch": 63, "duration": 6, "velocity": 115}, {"time": 3004, "pitch": 59, "duration": 1, "velocity": 82}, {"time": 3010, "pitch": 49, "duration": 14, "velocity": 109}, {"time": 3010, "pitch": 61, "duration": 7, "velocity": 104}, {"time": 3010, "pitch": 65, "duration": 7, "velocity": 110}, {"time": 3016, "pitch": 56, "duration": 7, "velocity": 96}, {"time": 3022, "pitch": 61, "duration": 4, "velocity": 109}, {"time": 3022, "pitch": 65, "duration": 3, "velocity": 117}, {"time": 3034, "pitch": 51, "duration": 8, "velocity": 104}, {"time": 3034, "pitch": 58, "duration": 6, "velocity": 106}, {"time": 3034, "pitch": 63, "duration": 5, "velocity": 109}, {"time": 3046, "pitch": 46, "duration": 9, "velocity": 101}, {"time": 3046, "pitch": 58, "duration": 8, "velocity": 104}, {"time": 3046, "pitch": 61, "duration": 8, "velocity": 109}, {"time": 3058, "pitch": 51, "duration": 22, "velocity": 106}, {"time": 3058, "pitch": 58, "duration": 7, "velocity": 104}, {"time": 3058, "pitch": 63, "duration": 6, "velocity": 106}, {"time": 3070, "pitch": 58, "duration": 8, "velocity": 91}, {"time": 3070, "pitch": 63, "duration": 8, "velocity": 99}, {"time": 3070, "pitch": 70, "duration": 11, "velocity": 101}, {"time": 3082, "pitch": 47, "duration": 16, "velocity": 101}, {"time": 3082, "pitch": 59, "duration": 8, "velocity": 94}, {"time": 3082, "pitch": 63, "duration": 7, "velocity": 99}, {"time": 3088, "pitch": 54, "duration": 6, "velocity": 55}, {"time": 3094, "pitch": 63, "duration": 6, "velocity": 106}, {"time": 3094, "pitch": 66, "duration": 9, "velocity": 104}, {"time": 3100, "pitch": 59, "duration": 2, "velocity": 94}, {"time": 3106, "pitch": 49, "duration": 16, "velocity": 106}, {"time": 3106, "pitch": 61, "duration": 7, "velocity": 99}, {"time": 3106, "pitch": 65, "duration": 8, "velocity": 99}, {"time": 3112, "pitch": 56, "duration": 8, "velocity": 89}, {"time": 3118, "pitch": 61, "duration": 3, "velocity": 109}, {"time": 3118, "pitch": 65, "duration": 5, "velocity": 113}, {"time": 3124, "pitch": 61, "duration": 3, "velocity": 99}, {"time": 3130, "pitch": 42, "duration": 2, "velocity": 101}, {"time": 3130, "pitch": 61, "duration": 9, "velocity": 91}, {"time": 3130, "pitch": 66, "duration": 9, "velocity": 101}, {"time": 3136, "pitch": 49, "duration": 15, "velocity": 69}, {"time": 3142, "pitch": 61, "duration": 7, "velocity": 106}, {"time": 3142, "pitch": 70, "duration": 7, "velocity": 101}, {"time": 3148, "pitch": 58, "duration": 4, "velocity": 80}, {"time": 3154, "pitch": 54, "duration": 15, "velocity": 106}, {"time": 3154, "pitch": 61, "duration": 15, "velocity": 101}, {"time": 3154, "pitch": 66, "duration": 15, "velocity": 104}, {"time": 3178, "pitch": 42, "duration": 20, "velocity": 104}, {"time": 3178, "pitch": 54, "duration": 7, "velocity": 96}, {"time": 3178, "pitch": 58, "duration": 7, "velocity": 94}, {"time": 3184, "pitch": 49, "duration": 8, "velocity": 59}, {"time": 3190, "pitch": 54, "duration": 3, "velocity": 106}, {"time": 3190, "pitch": 58, "duration": 7, "velocity": 106}, {"time": 3190, "pitch": 61, "duration": 8, "velocity": 109}, {"time": 3196, "pitch": 54, "duration": 4, "velocity": 99}, {"time": 3202, "pitch": 51, "duration": 18, "velocity": 96}, {"time": 3202, "pitch": 58, "duration": 7, "velocity": 101}, {"time": 3202, "pitch": 63, "duration": 8, "velocity": 106}, {"time": 3214, "pitch": 58, "duration": 4, "velocity": 104}, {"time": 3214, "pitch": 63, "duration": 6, "velocity": 109}, {"time": 3226, "pitch": 46, "duration": 15, "velocity": 101}, {"time": 3226, "pitch": 58, "duration": 8, "velocity": 96}, {"time": 3226, "pitch": 61, "duration": 8, "velocity": 104}, {"time": 3238, "pitch": 58, "duration": 2, "velocity": 101}, {"time": 3238, "pitch": 61, "duration": 6, "velocity": 112}, {"time": 3238, "pitch": 65, "duration": 6, "velocity": 117}, {"time": 3244, "pitch": 58, "duration": 3, "velocity": 94}, {"time": 3250, "pitch": 51, "duration": 16, "velocity": 104}, {"time": 3250, "pitch": 58, "duration": 2, "velocity": 99}, {"time": 3250, "pitch": 63, "duration": 9, "velocity": 106}, {"time": 3250, "pitch": 66, "duration": 9, "velocity": 82}, {"time": 3262, "pitch": 58, "duration": 3, "velocity": 106}, {"time": 3262, "pitch": 63, "duration": 6, "velocity": 115}, {"time": 3262, "pitch": 66, "duration": 7, "velocity": 109}, {"time": 3268, "pitch": 58, "duration": 2, "velocity": 96}, {"time": 3274, "pitch": 42, "duration": 14, "velocity": 85}, {"time": 3274, "pitch": 54, "duration": 8, "velocity": 101}, {"time": 3274, "pitch": 58, "duration": 7, "velocity": 101}, {"time": 3280, "pitch": 49, "duration": 7, "velocity": 85}, {"time": 3286, "pitch": 54, "duration": 2, "velocity": 104}, {"time": 3286, "pitch": 58, "duration": 6, "velocity": 109}, {"time": 3286, "pitch": 61, "duration": 6, "velocity": 109}, {"time": 3292, "pitch": 54, "duration": 1, "velocity": 58}, {"time": 3298, "pitch": 51, "duration": 14, "velocity": 101}, {"time": 3298, "pitch": 58, "duration": 4, "velocity": 96}, {"time": 3298, "pitch": 63, "duration": 7, "velocity": 94}, {"time": 3304, "pitch": 58, "duration": 3, "velocity": 87}, {"time": 3310, "pitch": 58, "duration": 4, "velocity": 106}, {"time": 3310, "pitch": 63, "duration": 4, "velocity": 109}, {"time": 3310, "pitch": 66, "duration": 5, "velocity": 106}, {"time": 3322, "pitch": 46, "duration": 16, "velocity": 96}, {"time": 3322, "pitch": 58, "duration": 9, "velocity": 96}, {"time": 3322, "pitch": 61, "duration": 8, "velocity": 104}, {"time": 3322, "pitch": 65, "duration": 9, "velocity": 104}, {"time": 3328, "pitch": 53, "duration": 7, "velocity": 66}, {"time": 3334, "pitch": 58, "duration": 2, "velocity": 104}, {"time": 3334, "pitch": 61, "duration": 6, "velocity": 109}, {"time": 3334, "pitch": 65, "duration": 6, "velocity": 113}, {"time": 3340, "pitch": 58, "duration": 3, "velocity": 94}, {"time": 3346, "pitch": 51, "duration": 20, "velocity": 101}, {"time": 3346, "pitch": 58, "duration": 3, "velocity": 104}, {"time": 3346, "pitch": 63, "duration": 7, "velocity": 106}, {"time": 3352, "pitch": 58, "duration": 3, "velocity": 87}, {"time": 3358, "pitch": 58, "duration": 7, "velocity": 109}, {"time": 3358, "pitch": 63, "duration": 5, "velocity": 112}, {"time": 3358, "pitch": 66, "duration": 10, "velocity": 106}, {"time": 3370, "pitch": 47, "duration": 16, "velocity": 96}, {"time": 3370, "pitch": 59, "duration": 7, "velocity": 91}, {"time": 3370, "pitch": 63, "duration": 9, "velocity": 89}, {"time": 3382, "pitch": 59, "duration": 3, "velocity": 104}, {"time": 3382, "pitch": 63, "duration": 6, "velocity": 115}, {"time": 3388, "pitch": 59, "duration": 1, "velocity": 82}, {"time": 3394, "pitch": 49, "duration": 14, "velocity": 109}, {"time": 3394, "pitch": 61, "duration": 7, "velocity": 104}, {"time": 3394, "pitch": 65, "duration": 7, "velocity": 110}, {"time": 3400, "pitch": 56, "duration": 7, "velocity": 96}, {"time": 3406, "pitch": 61, "duration": 4, "velocity": 109}, {"time": 3406, "pitch": 65, "duration": 3, "velocity": 117}, {"time": 3418, "pitch": 51, "duration": 8, "velocity": 104}, {"time": 3418, "pitch": 58, "duration": 6, "velocity": 106}, {"time": 3418, "pitch": 63, "duration": 5, "velocity": 109}, {"time": 3430, "pitch": 46, "duration": 9, "velocity": 101}, {"time": 3430, "pitch": 58, "duration": 8, "velocity": 104}, {"time": 3430, "pitch": 61, "duration": 8, "velocity": 109}, {"time": 3442, "pitch": 51, "duration": 22, "velocity": 106}, {"time": 3442, "pitch": 58, "duration": 7, "velocity": 104}, {"time": 3442, "pitch": 63, "duration": 6, "velocity": 106}, {"time": 3454, "pitch": 58, "duration": 8, "velocity": 91}, {"time": 3454, "pitch": 63, "duration": 8, "velocity": 99}, {"time": 3454, "pitch": 70, "duration": 11, "velocity": 101}, {"time": 3466, "pitch": 47, "duration": 16, "velocity": 96}, {"time": 3466, "pitch": 59, "duration": 7, "velocity": 91}, {"time": 3466, "pitch": 63, "duration": 9, "velocity": 89}, {"time": 3478, "pitch": 59, "duration": 3, "velocity": 104}, {"time": 3478, "pitch": 63, "duration": 6, "velocity": 115}, {"time": 3484, "pitch": 59, "duration": 1, "velocity": 82}, {"time": 3490, "pitch": 49, "duration": 14, "velocity": 109}, {"time": 3490, "pitch": 61, "duration": 7, "velocity": 104}, {"time": 3490, "pitch": 65, "duration": 7, "velocity": 110}, {"time": 3496, "pitch": 56, "duration": 7, "velocity": 96}, {"time": 3502, "pitch": 61, "duration": 4, "velocity": 109}, {"time": 3502, "pitch": 65, "duration": 3, "velocity": 117}, {"time": 3514, "pitch": 51, "duration": 8, "velocity": 104}, {"time": 3514, "pitch": 58, "duration": 6, "velocity": 106}, {"time": 3514, "pitch": 63, "duration": 5, "velocity": 109}, {"time": 3526, "pitch": 46, "duration": 9, "velocity": 101}, {"time": 3526, "pitch": 58, "duration": 8, "velocity": 104}, {"time": 3526, "pitch": 61, "duration": 8, "velocity": 109}, {"time": 3538, "pitch": 51, "duration": 22, "velocity": 106}, {"time": 3538, "pitch": 58, "duration": 7, "velocity": 104}, {"time": 3538, "pitch": 63, "duration": 6, "velocity": 106}, {"time": 3550, "pitch": 58, "duration": 8, "velocity": 91}, {"time": 3550, "pitch": 63, "duration": 8, "velocity": 99}, {"time": 3550, "pitch": 70, "duration": 11, "velocity": 101}, {"time": 3562, "pitch": 42, "duration": 37, "velocity": 104}, {"time": 3562, "pitch": 54, "duration": 9, "velocity": 96}, {"time": 3562, "pitch": 58, "duration": 9, "velocity": 101}, {"time": 3568, "pitch": 49, "duration": 7, "velocity": 66}, {"time": 3574, "pitch": 58, "duration": 6, "velocity": 99}, {"time": 3574, "pitch": 61, "duration": 5, "velocity": 104}, {"time": 3580, "pitch": 49, "duration": 6, "velocity": 45}, {"time": 3586, "pitch": 58, "duration": 7, "velocity": 85}, {"time": 3586, "pitch": 61, "duration": 6, "velocity": 96}, {"time": 3598, "pitch": 54, "duration": 1, "velocity": 85}, {"time": 3598, "pitch": 58, "duration": 6, "velocity": 104}, {"time": 3598, "pitch": 61, "duration": 6, "velocity": 104}, {"time": 3604, "pitch": 54, "duration": 1, "velocity": 96}, {"time": 3610, "pitch": 51, "duration": 15, "velocity": 101}, {"time": 3610, "pitch": 58, "duration": 8, "velocity": 101}, {"time": 3610, "pitch": 63, "duration": 8, "velocity": 104}, {"time": 3622, "pitch": 63, "duration": 5, "velocity": 101}, {"time": 3622, "pitch": 66, "duration": 4, "velocity": 94}, {"time": 3634, "pitch": 58, "duration": 7, "velocity": 74}, {"time": 3634, "pitch": 63, "duration": 8, "velocity": 99}, {"time": 3634, "pitch": 66, "duration": 7, "velocity": 99}, {"time": 3640, "pitch": 51, "duration": 7, "velocity": 73}, {"time": 3640, "pitch": 54, "duration": 7, "velocity": 85}, {"time": 3646, "pitch": 63, "duration": 6, "velocity": 106}, {"time": 3646, "pitch": 66, "duration": 6, "velocity": 104}, {"time": 3652, "pitch": 58, "duration": 2, "velocity": 109}, {"time": 3658, "pitch": 42, "duration": 41, "velocity": 91}, {"time": 3658, "pitch": 54, "duration": 8, "velocity": 99}, {"time": 3658, "pitch": 58, "duration": 7, "velocity": 94}, {"time": 3664, "pitch": 49, "duration": 18, "velocity": 38}, {"time": 3670, "pitch": 58, "duration": 4, "velocity": 101}, {"time": 3670, "pitch": 61, "duration": 3, "velocity": 101}, {"time": 3682, "pitch": 58, "duration": 6, "velocity": 99}, {"time": 3682, "pitch": 61, "duration": 6, "velocity": 101}, {"time": 3688, "pitch": 49, "duration": 9, "velocity": 69}, {"time": 3694, "pitch": 58, "duration": 6, "velocity": 109}, {"time": 3694, "pitch": 61, "duration": 6, "velocity": 109}, {"time": 3700, "pitch": 54, "duration": 2, "velocity": 112}, {"time": 3706, "pitch": 39, "duration": 2, "velocity": 91}, {"time": 3706, "pitch": 51, "duration": 3, "velocity": 96}, {"time": 3706, "pitch": 54, "duration": 3, "velocity": 101}, {"time": 3718, "pitch": 63, "duration": 9, "velocity": 96}, {"time": 3718, "pitch": 66, "duration": 8, "velocity": 99}, {"time": 3724, "pitch": 51, "duration": 19, "velocity": 37}, {"time": 3724, "pitch": 58, "duration": 8, "velocity": 61}, {"time": 3730, "pitch": 66, "duration": 9, "velocity": 106}, {"time": 3730, "pitch": 70, "duration": 7, "velocity": 104}, {"time": 3736, "pitch": 58, "duration": 6, "velocity": 76}, {"time": 3742, "pitch": 63, "duration": 2, "velocity": 104}, {"time": 3742, "pitch": 66, "duration": 2, "velocity": 109}, {"time": 3742, "pitch": 70, "duration": 2, "velocity": 106}, {"time": 3748, "pitch": 61, "duration": 2, "velocity": 91}, {"time": 3754, "pitch": 47, "duration": 15, "velocity": 101}, {"time": 3754, "pitch": 59, "duration": 7, "velocity": 89}, {"time": 3754, "pitch": 63, "duration": 6, "velocity": 96}, {"time": 3760, "pitch": 54, "duration": 7, "velocity": 56}, {"time": 3766, "pitch": 59, "duration": 2, "velocity": 99}, {"time": 3766, "pitch": 63, "duration": 5, "velocity": 104}, {"time": 3766, "pitch": 66, "duration": 6, "velocity": 99}, {"time": 3772, "pitch": 59, "duration": 1, "velocity": 94}, {"time": 3778, "pitch": 37, "duration": 2, "velocity": 96}, {"time": 3778, "pitch": 61, "duration": 9, "velocity": 104}, {"time": 3778, "pitch": 65, "duration": 9, "velocity": 101}, {"time": 3784, "pitch": 49, "duration": 7, "velocity": 96}, {"time": 3790, "pitch": 61, "duration": 2, "velocity": 104}, {"time": 3790, "pitch": 65, "duration": 6, "velocity": 107}, {"time": 3790, "pitch": 68, "duration": 8, "velocity": 106}, {"time": 3796, "pitch": 61, "duration": 3, "velocity": 106}, {"time": 3801, "pitch": 39, "duration": 53, "velocity": 101}, {"time": 3804, "pitch": 46, "duration": 49, "velocity": 73}, {"time": 3807, "pitch": 51, "duration": 11, "velocity": 80}, {"time": 3810, "pitch": 54, "duration": 9, "velocity": 80}, {"time": 3813, "pitch": 58, "duration": 6, "velocity": 89}, {"time": 3818, "pitch": 63, "duration": 3, "velocity": 64}, {"time": 3826, "pitch": 63, "duration": 29, "velocity": 59}, {"time": 3827, "pitch": 66, "duration": 28, "velocity": 69}, {"time": 3829, "pitch": 70, "duration": 26, "velocity": 50}, {"time": 3829, "pitch": 75, "duration": 26, "velocity": 64}], "annotations": [{"time": 19, "annotation": {"number": 64, "value": 127}, "group": "control_change"}, {"time": 57, "annotation": {"number": 64, "value": 0}, "group": "control_change"}, {"time": 63, "annotation": {"number": 64, "value": 127}, "group": "control_change"}, {"time": 84, "annotation": {"number": 64, "value": 0}, "group": "control_change"}, {"time": 87, "annotation": {"number": 64, "value": 127}, "group": "control_change"}, {"time": 105, "annotation": {"number": 64, "value": 0}, "group": "control_change"}, {"time": 113, "annotation": {"number": 64, "value": 127}, "group": "control_change"}, {"time": 113, "annotation": {"number": 64, "value": 0}, "group": "control_change"}, {"time": 114, "annotation": {"number": 64, "value": 127}, "group": "control_change"}, {"time": 153, "annotation": {"number": 64, "value": 0}, "group": "control_change"}, {"time": 155, "annotation": {"number": 64, "value": 127}, "group": "control_change"}, {"time": 177, "annotation": {"number": 64, "value": 0}, "group": "control_change"}, {"time": 179, "annotation": {"number": 64, "value": 127}, "group": "control_change"}, {"time": 201, "annotation": {"number": 64, "value": 0}, "group": "control_change"}, {"time": 204, "annotation": {"number": 64, "value": 127}, "group": "control_change"}, {"time": 224, "annotation": {"number": 64, "value": 0}, "group": "control_change"}, {"time": 227, "annotation": {"number": 64, "value": 127}, "group": "control_change"}, {"time": 248, "annotation": {"number": 64, "value": 0}, "group": "control_change"}, {"time": 251, "annotation": {"number": 64, "value": 127}, "group": "control_change"}, {"time": 297, "annotation": {"number": 64, "value": 0}, "group": "control_change"}, {"time": 301, "annotation": {"number": 64, "value": 127}, "group": "control_change"}, {"time": 320, "annotation": {"number": 64, "value": 0}, "group": "control_change"}, {"time": 323, "annotation": {"number": 64, "value": 127}, "group": "control_change"}, {"time": 346, "annotation": {"number": 64, "value": 0}, "group": "control_change"}, {"time": 348, "annotation": {"number": 64, "value": 127}, "group": "control_change"}, {"time": 369, "annotation": {"number": 64, "value": 0}, "group": "control_change"}, {"time": 371, "annotation": {"number": 64, "value": 127}, "group": "control_change"}, {"time": 391, "annotation": {"number": 64, "value": 0}, "group": "control_change"}, {"time": 429, "annotation": {"number": 64, "value": 127}, "group": "control_change"}, {"time": 429, "annotation": {"number": 64, "value": 0}, "group": "control_change"}, {"time": 430, "annotation": {"number": 64, "value": 127}, "group": "control_change"}, {"time": 441, "annotation": {"number": 64, "value": 0}, "group": "control_change"}, {"time": 448, "annotation": {"number": 64, "value": 127}, "group": "control_change"}, {"time": 468, "annotation": {"number": 64, "value": 0}, "group": "control_change"}, {"time": 472, "annotation": {"number": 64, "value": 127}, "group": "control_change"}, {"time": 489, "annotation": {"number": 64, "value": 0}, "group": "control_change"}, {"time": 504, "annotation": {"number": 64, "value": 127}, "group": "control_change"}, {"time": 536, "annotation": {"number": 64, "value": 0}, "group": "control_change"}, {"time": 542, "annotation": {"number": 64, "value": 127}, "group": "control_change"}, {"time": 560, "annotation": {"number": 64, "value": 0}, "group": "control_change"}, {"time": 563, "annotation": {"number": 64, "value": 127}, "group": "control_change"}, {"time": 583, "annotation": {"number": 64, "value": 0}, "group": "control_change"}, {"time": 621, "annotation": {"number": 64, "value": 127}, "group": "control_change"}, {"time": 621, "annotation": {"number": 64, "value": 0}, "group": "control_change"}, {"time": 622, "annotation": {"number": 64, "value": 127}, "group": "control_change"}, {"time": 633, "annotation": {"number": 64, "value": 0}, "group": "control_change"}, {"time": 640, "annotation": {"number": 64, "value": 127}, "group": "control_change"}, {"time": 660, "annotation": {"number": 64, "value": 0}, "group": "control_change"}, {"time": 664, "annotation": {"number": 64, "value": 127}, "group": "control_change"}, {"time": 681, "annotation": {"number": 64, "value": 0}, "group": "control_change"}, {"time": 696, "annotation": {"number": 64, "value": 127}, "group": "control_change"}, {"time": 728, "annotation": {"number": 64, "value": 0}, "group": "control_change"}, {"time": 734, "annotation": {"number": 64, "value": 127}, "group": "control_change"}, {"time": 752, "annotation": {"number": 64, "value": 0}, "group": "control_change"}, {"time": 755, "annotation": {"number": 64, "value": 127}, "group": "control_change"}, {"time": 775, "annotation": {"number": 64, "value": 0}, "group": "control_change"}, {"time": 783, "annotation": {"number": 64, "value": 127}, "group": "control_change"}, {"time": 801, "annotation": {"number": 64, "value": 0}, "group": "control_change"}, {"time": 809, "annotation": {"number": 64, "value": 127}, "group": "control_change"}, {"time": 824, "annotation": {"number": 64, "value": 0}, "group": "control_change"}, {"time": 831, "annotation": {"number": 64, "value": 127}, "group": "control_change"}, {"time": 849, "annotation": {"number": 64, "value": 0}, "group": "control_change"}, {"time": 856, "annotation": {"number": 64, "value": 127}, "group": "control_change"}, {"time": 873, "annotation": {"number": 64, "value": 0}, "group": "control_change"}, {"time": 881, "annotation": {"number": 64, "value": 127}, "group": "control_change"}, {"time": 896, "annotation": {"number": 64, "value": 0}, "group": "control_change"}, {"time": 902, "annotation": {"number": 64, "value": 127}, "group": "control_change"}, {"time": 920, "annotation": {"number": 64, "value": 0}, "group": "control_change"}, {"time": 922, "annotation": {"number": 64, "value": 127}, "group": "control_change"}, {"time": 931, "annotation": {"number": 64, "value": 0}, "group": "control_change"}, {"time": 934, "annotation": {"number": 64, "value": 127}, "group": "control_change"}, {"time": 944, "annotation": {"number": 64, "value": 0}, "group": "control_change"}, {"time": 948, "annotation": {"number": 64, "value": 127}, "group": "control_change"}, {"time": 969, "annotation": {"number": 64, "value": 0}, "group": "control_change"}, {"time": 971, "annotation": {"number": 64, "value": 127}, "group": "control_change"}, {"time": 992, "annotation": {"number": 64, "value": 0}, "group": "control_change"}, {"time": 996, "annotation": {"number": 64, "value": 127}, "group": "control_change"}, {"time": 1017, "annotation": {"number": 64, "value": 0}, "group": "control_change"}, {"time": 1022, "annotation": {"number": 64, "value": 127}, "group": "control_change"}, {"time": 1040, "annotation": {"number": 64, "value": 0}, "group": "control_change"}, {"time": 1042, "annotation": {"number": 64, "value": 127}, "group": "control_change"}, {"time": 1052, "annotation": {"number": 64, "value": 0}, "group": "control_change"}, {"time": 1055, "annotation": {"number": 64, "value": 127}, "group": "control_change"}, {"time": 1066, "annotation": {"number": 64, "value": 0}, "group": "control_change"}, {"time": 1072, "annotation": {"number": 64, "value": 127}, "group": "control_change"}, {"time": 1089, "annotation": {"number": 64, "value": 0}, "group": "control_change"}, {"time": 1095, "annotation": {"number": 64, "value": 127}, "group": "control_change"}, {"time": 1113, "annotation": {"number": 64, "value": 0}, "group": "control_change"}, {"time": 1119, "annotation": {"number": 64, "value": 127}, "group": "control_change"}, {"time": 1136, "annotation": {"number": 64, "value": 0}, "group": "control_change"}, {"time": 1142, "annotation": {"number": 64, "value": 127}, "group": "control_change"}, {"time": 1159, "annotation": {"number": 64, "value": 0}, "group": "control_change"}, {"time": 1162, "annotation": {"number": 64, "value": 127}, "group": "control_change"}, {"time": 1184, "annotation": {"number": 64, "value": 0}, "group": "control_change"}, {"time": 1188, "annotation": {"number": 64, "value": 127}, "group": "control_change"}, {"time": 1209, "annotation": {"number": 64, "value": 0}, "group": "control_change"}, {"time": 1214, "annotation": {"number": 64, "value": 127}, "group": "control_change"}, {"time": 1232, "annotation": {"number": 64, "value": 0}, "group": "control_change"}, {"time": 1234, "annotation": {"number": 64, "value": 127}, "group": "control_change"}, {"time": 1244, "annotation": {"number": 64, "value": 0}, "group": "control_change"}, {"time": 1247, "annotation": {"number": 64, "value": 127}, "group": "control_change"}, {"time": 1258, "annotation": {"number": 64, "value": 0}, "group": "control_change"}, {"time": 1264, "annotation": {"number": 64, "value": 127}, "group": "control_change"}, {"time": 1281, "annotation": {"number": 64, "value": 0}, "group": "control_change"}, {"time": 1287, "annotation": {"number": 64, "value": 127}, "group": "control_change"}, {"time": 1305, "annotation": {"number": 64, "value": 0}, "group": "control_change"}, {"time": 1311, "annotation": {"number": 64, "value": 127}, "group": "control_change"}, {"time": 1328, "annotation": {"number": 64, "value": 0}, "group": "control_change"}, {"time": 1334, "annotation": {"number": 64, "value": 127}, "group": "control_change"}, {"time": 1351, "annotation": {"number": 64, "value": 0}, "group": "control_change"}, {"time": 1354, "annotation": {"number": 64, "value": 127}, "group": "control_change"}, {"time": 1376, "annotation": {"number": 64, "value": 0}, "group": "control_change"}, {"time": 1391, "annotation": {"number": 64, "value": 127}, "group": "control_change"}, {"time": 1397, "annotation": {"number": 64, "value": 0}, "group": "control_change"}, {"time": 1408, "annotation": {"number": 64, "value": 127}, "group": "control_change"}, {"time": 1425, "annotation": {"number": 64, "value": 0}, "group": "control_change"}, {"time": 1432, "annotation": {"number": 64, "value": 127}, "group": "control_change"}, {"time": 1449, "annotation": {"number": 64, "value": 0}, "group": "control_change"}, {"time": 1455, "annotation": {"number": 64, "value": 127}, "group": "control_change"}, {"time": 1473, "annotation": {"number": 64, "value": 0}, "group": "control_change"}, {"time": 1478, "annotation": {"number": 64, "value": 127}, "group": "control_change"}, {"time": 1497, "annotation": {"number": 64, "value": 0}, "group": "control_change"}, {"time": 1504, "annotation": {"number": 64, "value": 127}, "group": "control_change"}, {"time": 1522, "annotation": {"number": 64, "value": 0}, "group": "control_change"}, {"time": 1527, "annotation": {"number": 64, "value": 127}, "group": "control_change"}, {"time": 1543, "annotation": {"number": 64, "value": 0}, "group": "control_change"}, {"time": 1552, "annotation": {"number": 64, "value": 127}, "group": "control_change"}, {"time": 1569, "annotation": {"number": 64, "value": 0}, "group": "control_change"}, {"time": 1575, "annotation": {"number": 64, "value": 127}, "group": "control_change"}, {"time": 1593, "annotation": {"number": 64, "value": 0}, "group": "control_change"}, {"time": 1599, "annotation": {"number": 64, "value": 127}, "group": "control_change"}, {"time": 1617, "annotation": {"number": 64, "value": 0}, "group": "control_change"}, {"time": 1624, "annotation": {"number": 64, "value": 127}, "group": "control_change"}, {"time": 1641, "annotation": {"number": 64, "value": 0}, "group": "control_change"}, {"time": 1643, "annotation": {"number": 64, "value": 127}, "group": "control_change"}, {"time": 1651, "annotation": {"number": 64, "value": 0}, "group": "control_change"}, {"time": 1654, "annotation": {"number": 64, "value": 127}, "group": "control_change"}, {"time": 1663, "annotation": {"number": 64, "value": 0}, "group": "control_change"}, {"time": 1666, "annotation": {"number": 64, "value": 127}, "group": "control_change"}, {"time": 1686, "annotation": {"number": 64, "value": 0}, "group": "control_change"}, {"time": 1699, "annotation": {"number": 64, "value": 127}, "group": "control_change"}, {"time": 1737, "annotation": {"number": 64, "value": 0}, "group": "control_change"}, {"time": 1743, "annotation": {"number": 64, "value": 127}, "group": "control_change"}, {"time": 1764, "annotation": {"number": 64, "value": 0}, "group": "control_change"}, {"time": 1767, "annotation": {"number": 64, "value": 127}, "group": "control_change"}, {"time": 1785, "annotation": {"number": 64, "value": 0}, "group": "control_change"}, {"time": 1793, "annotation": {"number": 64, "value": 127}, "group": "control_change"}, {"time": 1793, "annotation": {"number": 64, "value": 0}, "group": "control_change"}, {"time": 1794, "annotation": {"number": 64, "value": 127}, "group": "control_change"}, {"time": 1833, "annotation": {"number": 64, "value": 0}, "group": "control_change"}, {"time": 1835, "annotation": {"number": 64, "value": 127}, "group": "control_change"}, {"time": 1857, "annotation": {"number": 64, "value": 0}, "group": "control_change"}, {"time": 1859, "annotation": {"number": 64, "value": 127}, "group": "control_change"}, {"time": 1881, "annotation": {"number": 64, "value": 0}, "group": "control_change"}, {"time": 1917, "annotation": {"number": 64, "value": 127}, "group": "control_change"}, {"time": 1917, "annotation": {"number": 64, "value": 0}, "group": "control_change"}, {"time": 1918, "annotation": {"number": 64, "value": 127}, "group": "control_change"}, {"time": 1929, "annotation": {"number": 64, "value": 0}, "group": "control_change"}, {"time": 1936, "annotation": {"number": 64, "value": 127}, "group": "control_change"}, {"time": 1956, "annotation": {"number": 64, "value": 0}, "group": "control_change"}, {"time": 1960, "annotation": {"number": 64, "value": 127}, "group": "control_change"}, {"time": 1977, "annotation": {"number": 64, "value": 0}, "group": "control_change"}, {"time": 1992, "annotation": {"number": 64, "value": 127}, "group": "control_change"}, {"time": 2024, "annotation": {"number": 64, "value": 0}, "group": "control_change"}, {"time": 2030, "annotation": {"number": 64, "value": 127}, "group": "control_change"}, {"time": 2048, "annotation": {"number": 64, "value": 0}, "group": "control_change"}, {"time": 2051, "annotation": {"number": 64, "value": 127}, "group": "control_change"}, {"time": 2071, "annotation": {"number": 64, "value": 0}, "group": "control_change"}, {"time": 2079, "annotation": {"number": 64, "value": 127}, "group": "control_change"}, {"time": 2097, "annotation": {"number": 64, "value": 0}, "group": "control_change"}, {"time": 2105, "annotation": {"number": 64, "value": 127}, "group": "control_change"}, {"time": 2120, "annotation": {"number": 64, "value": 0}, "group": "control_change"}, {"time": 2127, "annotation": {"number": 64, "value": 127}, "group": "control_change"}, {"time": 2145, "annotation": {"number": 64, "value": 0}, "group": "control_change"}, {"time": 2152, "annotation": {"number": 64, "value": 127}, "group": "control_change"}, {"time": 2169, "annotation": {"number": 64, "value": 0}, "group": "control_change"}, {"time": 2177, "annotation": {"number": 64, "value": 127}, "group": "control_change"}, {"time": 2192, "annotation": {"number": 64, "value": 0}, "group": "control_change"}, {"time": 2198, "annotation": {"number": 64, "value": 127}, "group": "control_change"}, {"time": 2216, "annotation": {"number": 64, "value": 0}, "group": "control_change"}, {"time": 2218, "annotation": {"number": 64, "value": 127}, "group": "control_change"}, {"time": 2227, "annotation": {"number": 64, "value": 0}, "group": "control_change"}, {"time": 2230, "annotation": {"number": 64, "value": 127}, "group": "control_change"}, {"time": 2240, "annotation": {"number": 64, "value": 0}, "group": "control_change"}, {"time": 2244, "annotation": {"number": 64, "value": 127}, "group": "control_change"}, {"time": 2265, "annotation": {"number": 64, "value": 0}, "group": "control_change"}, {"time": 2267, "annotation": {"number": 64, "value": 127}, "group": "control_change"}, {"time": 2288, "annotation": {"number": 64, "value": 0}, "group": "control_change"}, {"time": 2292, "annotation": {"number": 64, "value": 127}, "group": "control_change"}, {"time": 2313, "annotation": {"number": 64, "value": 0}, "group": "control_change"}, {"time": 2318, "annotation": {"number": 64, "value": 127}, "group": "control_change"}, {"time": 2336, "annotation": {"number": 64, "value": 0}, "group": "control_change"}, {"time": 2338, "annotation": {"number": 64, "value": 127}, "group": "control_change"}, {"time": 2348, "annotation": {"number": 64, "value": 0}, "group": "control_change"}, {"time": 2351, "annotation": {"number": 64, "value": 127}, "group": "control_change"}, {"time": 2362, "annotation": {"number": 64, "value": 0}, "group": "control_change"}, {"time": 2368, "annotation": {"number": 64, "value": 127}, "group": "control_change"}, {"time": 2385, "annotation": {"number": 64, "value": 0}, "group": "control_change"}, {"time": 2391, "annotation": {"number": 64, "value": 127}, "group": "control_change"}, {"time": 2409, "annotation": {"number": 64, "value": 0}, "group": "control_change"}, {"time": 2415, "annotation": {"number": 64, "value": 127}, "group": "control_change"}, {"time": 2432, "annotation": {"number": 64, "value": 0}, "group": "control_change"}, {"time": 2438, "annotation": {"number": 64, "value": 127}, "group": "control_change"}, {"time": 2455, "annotation": {"number": 64, "value": 0}, "group": "control_change"}, {"time": 2458, "annotation": {"number": 64, "value": 127}, "group": "control_change"}, {"time": 2480, "annotation": {"number": 64, "value": 0}, "group": "control_change"}, {"time": 2495, "annotation": {"number": 64, "value": 127}, "group": "control_change"}, {"time": 2501, "annotation": {"number": 64, "value": 0}, "group": "control_change"}, {"time": 2512, "annotation": {"number": 64, "value": 127}, "group": "control_change"}, {"time": 2529, "annotation": {"number": 64, "value": 0}, "group": "control_change"}, {"time": 2536, "annotation": {"number": 64, "value": 127}, "group": "control_change"}, {"time": 2553, "annotation": {"number": 64, "value": 0}, "group": "control_change"}, {"time": 2559, "annotation": {"number": 64, "value": 127}, "group": "control_change"}, {"time": 2577, "annotation": {"number": 64, "value": 0}, "group": "control_change"}, {"time": 2582, "annotation": {"number": 64, "value": 127}, "group": "control_change"}, {"time": 2601, "annotation": {"number": 64, "value": 0}, "group": "control_change"}, {"time": 2608, "annotation": {"number": 64, "value": 127}, "group": "control_change"}, {"time": 2626, "annotation": {"number": 64, "value": 0}, "group": "control_change"}, {"time": 2631, "annotation": {"number": 64, "value": 127}, "group": "control_change"}, {"time": 2647, "annotation": {"number": 64, "value": 0}, "group": "control_change"}, {"time": 2656, "annotation": {"number": 64, "value": 127}, "group": "control_change"}, {"time": 2673, "annotation": {"number": 64, "value": 0}, "group": "control_change"}, {"time": 2679, "annotation": {"number": 64, "value": 127}, "group": "control_change"}, {"time": 2697, "annotation": {"number": 64, "value": 0}, "group": "control_change"}, {"time": 2703, "annotation": {"number": 64, "value": 127}, "group": "control_change"}, {"time": 2721, "annotation": {"number": 64, "value": 0}, "group": "control_change"}, {"time": 2728, "annotation": {"number": 64, "value": 127}, "group": "control_change"}, {"time": 2745, "annotation": {"number": 64, "value": 0}, "group": "control_change"}, {"time": 2747, "annotation": {"number": 64, "value": 127}, "group": "control_change"}, {"time": 2755, "annotation": {"number": 64, "value": 0}, "group": "control_change"}, {"time": 2758, "annotation": {"number": 64, "value": 127}, "group": "control_change"}, {"time": 2767, "annotation": {"number": 64, "value": 0}, "group": "control_change"}, {"time": 2770, "annotation": {"number": 64, "value": 127}, "group": "control_change"}, {"time": 2790, "annotation": {"number": 64, "value": 0}, "group": "control_change"}, {"time": 2800, "annotation": {"number": 64, "value": 127}, "group": "control_change"}, {"time": 2817, "annotation": {"number": 64, "value": 0}, "group": "control_change"}, {"time": 2824, "annotation": {"number": 64, "value": 127}, "group": "control_change"}, {"time": 2841, "annotation": {"number": 64, "value": 0}, "group": "control_change"}, {"time": 2847, "annotation": {"number": 64, "value": 127}, "group": "control_change"}, {"time": 2865, "annotation": {"number": 64, "value": 0}, "group": "control_change"}, {"time": 2870, "annotation": {"number": 64, "value": 127}, "group": "control_change"}, {"time": 2889, "annotation": {"number": 64, "value": 0}, "group": "control_change"}, {"time": 2896, "annotation": {"number": 64, "value": 127}, "group": "control_change"}, {"time": 2914, "annotation": {"number": 64, "value": 0}, "group": "control_change"}, {"time": 2919, "annotation": {"number": 64, "value": 127}, "group": "control_change"}, {"time": 2935, "annotation": {"number": 64, "value": 0}, "group": "control_change"}, {"time": 2944, "annotation": {"number": 64, "value": 127}, "group": "control_change"}, {"time": 2961, "annotation": {"number": 64, "value": 0}, "group": "control_change"}, {"time": 2967, "annotation": {"number": 64, "value": 127}, "group": "control_change"}, {"time": 2985, "annotation": {"number": 64, "value": 0}, "group": "control_change"}, {"time": 2991, "annotation": {"number": 64, "value": 127}, "group": "control_change"}, {"time": 3009, "annotation": {"number": 64, "value": 0}, "group": "control_change"}, {"time": 3016, "annotation": {"number": 64, "value": 127}, "group": "control_change"}, {"time": 3033, "annotation": {"number": 64, "value": 0}, "group": "control_change"}, {"time": 3035, "annotation": {"number": 64, "value": 127}, "group": "control_change"}, {"time": 3043, "annotation": {"number": 64, "value": 0}, "group": "control_change"}, {"time": 3046, "annotation": {"number": 64, "value": 127}, "group": "control_change"}, {"time": 3055, "annotation": {"number": 64, "value": 0}, "group": "control_change"}, {"time": 3058, "annotation": {"number": 64, "value": 127}, "group": "control_change"}, {"time": 3078, "annotation": {"number": 64, "value": 0}, "group": "control_change"}, {"time": 3087, "annotation": {"number": 64, "value": 127}, "group": "control_change"}, {"time": 3104, "annotation": {"number": 64, "value": 0}, "group": "control_change"}, {"time": 3111, "annotation": {"number": 64, "value": 127}, "group": "control_change"}, {"time": 3128, "annotation": {"number": 64, "value": 0}, "group": "control_change"}, {"time": 3131, "annotation": {"number": 64, "value": 127}, "group": "control_change"}, {"time": 3153, "annotation": {"number": 64, "value": 0}, "group": "control_change"}, {"time": 3155, "annotation": {"number": 64, "value": 127}, "group": "control_change"}, {"time": 3170, "annotation": {"number": 64, "value": 0}, "group": "control_change"}, {"time": 3184, "annotation": {"number": 64, "value": 127}, "group": "control_change"}, {"time": 3201, "annotation": {"number": 64, "value": 0}, "group": "control_change"}, {"time": 3208, "annotation": {"number": 64, "value": 127}, "group": "control_change"}, {"time": 3225, "annotation": {"number": 64, "value": 0}, "group": "control_change"}, {"time": 3231, "annotation": {"number": 64, "value": 127}, "group": "control_change"}, {"time": 3249, "annotation": {"number": 64, "value": 0}, "group": "control_change"}, {"time": 3254, "annotation": {"number": 64, "value": 127}, "group": "control_change"}, {"time": 3273, "annotation": {"number": 64, "value": 0}, "group": "control_change"}, {"time": 3280, "annotation": {"number": 64, "value": 127}, "group": "control_change"}, {"time": 3298, "annotation": {"number": 64, "value": 0}, "group": "control_change"}, {"time": 3303, "annotation": {"number": 64, "value": 127}, "group": "control_change"}, {"time": 3319, "annotation": {"number": 64, "value": 0}, "group": "control_change"}, {"time": 3328, "annotation": {"number": 64, "value": 127}, "group": "control_change"}, {"time": 3345, "annotation": {"number": 64, "value": 0}, "group": "control_change"}, {"time": 3351, "annotation": {"number": 64, "value": 127}, "group": "control_change"}, {"time": 3369, "annotation": {"number": 64, "value": 0}, "group": "control_change"}, {"time": 3375, "annotation": {"number": 64, "value": 127}, "group": "control_change"}, {"time": 3393, "annotation": {"number": 64, "value": 0}, "group": "control_change"}, {"time": 3400, "annotation": {"number": 64, "value": 127}, "group": "control_change"}, {"time": 3417, "annotation": {"number": 64, "value": 0}, "group": "control_change"}, {"time": 3419, "annotation": {"number": 64, "value": 127}, "group": "control_change"}, {"time": 3427, "annotation": {"number": 64, "value": 0}, "group": "control_change"}, {"time": 3430, "annotation": {"number": 64, "value": 127}, "group": "control_change"}, {"time": 3439, "annotation": {"number": 64, "value": 0}, "group": "control_change"}, {"time": 3442, "annotation": {"number": 64, "value": 127}, "group": "control_change"}, {"time": 3462, "annotation": {"number": 64, "value": 0}, "group": "control_change"}, {"time": 3471, "annotation": {"number": 64, "value": 127}, "group": "control_change"}, {"time": 3489, "annotation": {"number": 64, "value": 0}, "group": "control_change"}, {"time": 3496, "annotation": {"number": 64, "value": 127}, "group": "control_change"}, {"time": 3513, "annotation": {"number": 64, "value": 0}, "group": "control_change"}, {"time": 3515, "annotation": {"number": 64, "value": 127}, "group": "control_change"}, {"time": 3523, "annotation": {"number": 64, "value": 0}, "group": "control_change"}, {"time": 3526, "annotation": {"number": 64, "value": 127}, "group": "control_change"}, {"time": 3535, "annotation": {"number": 64, "value": 0}, "group": "control_change"}, {"time": 3538, "annotation": {"number": 64, "value": 127}, "group": "control_change"}, {"time": 3558, "annotation": {"number": 64, "value": 0}, "group": "control_change"}, {"time": 3571, "annotation": {"number": 64, "value": 127}, "group": "control_change"}, {"time": 3609, "annotation": {"number": 64, "value": 0}, "group": "control_change"}, {"time": 3615, "annotation": {"number": 64, "value": 127}, "group": "control_change"}, {"time": 3636, "annotation": {"number": 64, "value": 0}, "group": "control_change"}, {"time": 3639, "annotation": {"number": 64, "value": 127}, "group": "control_change"}, {"time": 3657, "annotation": {"number": 64, "value": 0}, "group": "control_change"}, {"time": 3665, "annotation": {"number": 64, "value": 127}, "group": "control_change"}, {"time": 3665, "annotation": {"number": 64, "value": 0}, "group": "control_change"}, {"time": 3666, "annotation": {"number": 64, "value": 127}, "group": "control_change"}, {"time": 3705, "annotation": {"number": 64, "value": 0}, "group": "control_change"}, {"time": 3707, "annotation": {"number": 64, "value": 127}, "group": "control_change"}, {"time": 3729, "annotation": {"number": 64, "value": 0}, "group": "control_change"}, {"time": 3731, "annotation": {"number": 64, "value": 127}, "group": "control_change"}, {"time": 3753, "annotation": {"number": 64, "value": 0}, "group": "control_change"}, {"time": 3756, "annotation": {"number": 64, "value": 127}, "group": "control_change"}, {"time": 3776, "annotation": {"number": 64, "value": 0}, "group": "control_change"}, {"time": 3779, "annotation": {"number": 64, "value": 127}, "group": "control_change"}, {"time": 3800, "annotation": {"number": 64, "value": 0}, "group": "control_change"}, {"time": 3801, "annotation": {"number": 64, "value": 127}, "group": "control_change"}, {"time": 3887, "annotation": {"number": 64, "value": 0}, "group": "control_change"}]}]}