{"metadata": {"schema_version": "0.2", "title": "None", "source_filename": "119.mid", "source_format": "midi"}, "resolution": 12, "tempos": [{"time": 0, "qpm": 65.99999340000066}, {"time": 1217, "qpm": 64.99999458333379}, {"time": 1272, "qpm": 65.99999340000066}, {"time": 2821, "qpm": 64.99999458333379}, {"time": 2884, "qpm": 65.99999340000066}, {"time": 3363, "qpm": 60.0}, {"time": 3384, "qpm": 54.500021345841695}, {"time": 3397, "qpm": 17.500007291669704}, {"time": 3428, "qpm": 50.75000042291667}], "key_signatures": [{"time": 0, "root": 0, "mode": "major"}], "time_signatures": [{"time": 0, "numerator": 4, "denominator": 4}, {"time": 0, "numerator": 1, "denominator": 4}], "tracks": [{"program": 0, "is_drum": false, "name": "MELODY", "notes": [{"time": 449, "pitch": 72, "duration": 8, "velocity": 115}, {"time": 458, "pitch": 75, "duration": 3, "velocity": 117}, {"time": 461, "pitch": 74, "duration": 5, "velocity": 115}, {"time": 467, "pitch": 72, "duration": 4, "velocity": 115}, {"time": 473, "pitch": 70, "duration": 5, "velocity": 120}, {"time": 479, "pitch": 72, "duration": 4, "velocity": 104}, {"time": 485, "pitch": 67, "duration": 10, "velocity": 112}, {"time": 497, "pitch": 67, "duration": 5, "velocity": 112}, {"time": 503, "pitch": 70, "duration": 4, "velocity": 117}, {"time": 509, "pitch": 69, "duration": 4, "velocity": 112}, {"time": 515, "pitch": 67, "duration": 4, "velocity": 112}, {"time": 521, "pitch": 65, "duration": 5, "velocity": 115}, {"time": 527, "pitch": 67, "duration": 5, "velocity": 112}, {"time": 533, "pitch": 60, "duration": 9, "velocity": 112}, {"time": 545, "pitch": 63, "duration": 2, "velocity": 117}, {"time": 548, "pitch": 63, "duration": 6, "velocity": 104}, {"time": 557, "pitch": 63, "duration": 5, "velocity": 117}, {"time": 563, "pitch": 60, "duration": 2, "velocity": 109}, {"time": 566, "pitch": 63, "duration": 2, "velocity": 117}, {"time": 569, "pitch": 65, "duration": 5, "velocity": 109}, {"time": 575, "pitch": 65, "duration": 4, "velocity": 109}, {"time": 581, "pitch": 70, "duration": 2, "velocity": 113}, {"time": 584, "pitch": 67, "duration": 5, "velocity": 109}, {"time": 590, "pitch": 65, "duration": 2, "velocity": 112}, {"time": 593, "pitch": 67, "duration": 34, "velocity": 109}, {"time": 641, "pitch": 72, "duration": 8, "velocity": 115}, {"time": 650, "pitch": 75, "duration": 3, "velocity": 117}, {"time": 653, "pitch": 74, "duration": 5, "velocity": 115}, {"time": 659, "pitch": 72, "duration": 4, "velocity": 115}, {"time": 665, "pitch": 70, "duration": 5, "velocity": 120}, {"time": 671, "pitch": 72, "duration": 4, "velocity": 104}, {"time": 677, "pitch": 67, "duration": 10, "velocity": 112}, {"time": 689, "pitch": 67, "duration": 5, "velocity": 112}, {"time": 695, "pitch": 70, "duration": 4, "velocity": 117}, {"time": 701, "pitch": 69, "duration": 4, "velocity": 112}, {"time": 707, "pitch": 67, "duration": 4, "velocity": 112}, {"time": 713, "pitch": 65, "duration": 5, "velocity": 115}, {"time": 719, "pitch": 67, "duration": 5, "velocity": 112}, {"time": 725, "pitch": 60, "duration": 9, "velocity": 112}, {"time": 737, "pitch": 63, "duration": 2, "velocity": 117}, {"time": 740, "pitch": 63, "duration": 6, "velocity": 104}, {"time": 749, "pitch": 63, "duration": 5, "velocity": 117}, {"time": 755, "pitch": 60, "duration": 2, "velocity": 109}, {"time": 758, "pitch": 63, "duration": 2, "velocity": 117}, {"time": 761, "pitch": 65, "duration": 5, "velocity": 109}, {"time": 767, "pitch": 65, "duration": 4, "velocity": 109}, {"time": 773, "pitch": 63, "duration": 2, "velocity": 120}, {"time": 776, "pitch": 62, "duration": 9, "velocity": 106}, {"time": 785, "pitch": 60, "duration": 37, "velocity": 106}, {"time": 833, "pitch": 72, "duration": 8, "velocity": 115}, {"time": 842, "pitch": 75, "duration": 3, "velocity": 117}, {"time": 845, "pitch": 74, "duration": 5, "velocity": 115}, {"time": 851, "pitch": 72, "duration": 4, "velocity": 115}, {"time": 857, "pitch": 70, "duration": 5, "velocity": 120}, {"time": 863, "pitch": 72, "duration": 4, "velocity": 104}, {"time": 869, "pitch": 67, "duration": 10, "velocity": 112}, {"time": 881, "pitch": 67, "duration": 5, "velocity": 112}, {"time": 887, "pitch": 70, "duration": 4, "velocity": 117}, {"time": 893, "pitch": 69, "duration": 4, "velocity": 112}, {"time": 899, "pitch": 67, "duration": 4, "velocity": 112}, {"time": 905, "pitch": 65, "duration": 5, "velocity": 115}, {"time": 911, "pitch": 67, "duration": 5, "velocity": 112}, {"time": 917, "pitch": 60, "duration": 9, "velocity": 112}, {"time": 929, "pitch": 63, "duration": 2, "velocity": 117}, {"time": 932, "pitch": 63, "duration": 6, "velocity": 104}, {"time": 938, "pitch": 63, "duration": 3, "velocity": 114}, {"time": 941, "pitch": 63, "duration": 3, "velocity": 117}, {"time": 944, "pitch": 63, "duration": 3, "velocity": 114}, {"time": 947, "pitch": 60, "duration": 2, "velocity": 109}, {"time": 950, "pitch": 63, "duration": 2, "velocity": 117}, {"time": 953, "pitch": 65, "duration": 5, "velocity": 109}, {"time": 959, "pitch": 65, "duration": 4, "velocity": 109}, {"time": 965, "pitch": 70, "duration": 2, "velocity": 113}, {"time": 968, "pitch": 67, "duration": 5, "velocity": 109}, {"time": 974, "pitch": 65, "duration": 2, "velocity": 112}, {"time": 977, "pitch": 67, "duration": 36, "velocity": 109}, {"time": 1025, "pitch": 72, "duration": 6, "velocity": 115}, {"time": 1031, "pitch": 75, "duration": 6, "velocity": 117}, {"time": 1037, "pitch": 74, "duration": 5, "velocity": 115}, {"time": 1043, "pitch": 72, "duration": 4, "velocity": 115}, {"time": 1049, "pitch": 70, "duration": 5, "velocity": 120}, {"time": 1055, "pitch": 72, "duration": 4, "velocity": 104}, {"time": 1061, "pitch": 67, "duration": 10, "velocity": 112}, {"time": 1073, "pitch": 67, "duration": 5, "velocity": 112}, {"time": 1079, "pitch": 70, "duration": 4, "velocity": 117}, {"time": 1085, "pitch": 69, "duration": 4, "velocity": 112}, {"time": 1091, "pitch": 67, "duration": 4, "velocity": 112}, {"time": 1097, "pitch": 65, "duration": 5, "velocity": 115}, {"time": 1103, "pitch": 67, "duration": 5, "velocity": 112}, {"time": 1109, "pitch": 60, "duration": 9, "velocity": 112}, {"time": 1121, "pitch": 63, "duration": 2, "velocity": 117}, {"time": 1124, "pitch": 63, "duration": 6, "velocity": 104}, {"time": 1133, "pitch": 63, "duration": 5, "velocity": 117}, {"time": 1139, "pitch": 60, "duration": 2, "velocity": 109}, {"time": 1142, "pitch": 63, "duration": 2, "velocity": 117}, {"time": 1145, "pitch": 65, "duration": 5, "velocity": 109}, {"time": 1151, "pitch": 65, "duration": 9, "velocity": 109}, {"time": 1163, "pitch": 70, "duration": 6, "velocity": 106}, {"time": 1169, "pitch": 72, "duration": 6, "velocity": 127}, {"time": 1175, "pitch": 74, "duration": 3, "velocity": 110}, {"time": 1177, "pitch": 72, "duration": 3, "velocity": 110}, {"time": 1179, "pitch": 70, "duration": 3, "velocity": 105}, {"time": 1181, "pitch": 72, "duration": 26, "velocity": 116}, {"time": 1265, "pitch": 77, "duration": 5, "velocity": 115}, {"time": 1271, "pitch": 79, "duration": 5, "velocity": 112}, {"time": 1277, "pitch": 77, "duration": 4, "velocity": 118}, {"time": 1283, "pitch": 75, "duration": 4, "velocity": 120}, {"time": 1289, "pitch": 77, "duration": 10, "velocity": 115}, {"time": 1301, "pitch": 77, "duration": 2, "velocity": 118}, {"time": 1304, "pitch": 75, "duration": 2, "velocity": 117}, {"time": 1307, "pitch": 72, "duration": 5, "velocity": 112}, {"time": 1313, "pitch": 72, "duration": 5, "velocity": 115}, {"time": 1319, "pitch": 75, "duration": 4, "velocity": 120}, {"time": 1325, "pitch": 74, "duration": 2, "velocity": 109}, {"time": 1328, "pitch": 72, "duration": 2, "velocity": 109}, {"time": 1331, "pitch": 70, "duration": 5, "velocity": 120}, {"time": 1337, "pitch": 72, "duration": 20, "velocity": 112}, {"time": 1361, "pitch": 67, "duration": 7, "velocity": 109}, {"time": 1367, "pitch": 70, "duration": 4, "velocity": 113}, {"time": 1373, "pitch": 70, "duration": 5, "velocity": 120}, {"time": 1379, "pitch": 65, "duration": 4, "velocity": 115}, {"time": 1385, "pitch": 65, "duration": 6, "velocity": 112}, {"time": 1391, "pitch": 67, "duration": 4, "velocity": 109}, {"time": 1397, "pitch": 67, "duration": 6, "velocity": 115}, {"time": 1403, "pitch": 65, "duration": 4, "velocity": 106}, {"time": 1409, "pitch": 70, "duration": 4, "velocity": 120}, {"time": 1415, "pitch": 70, "duration": 4, "velocity": 120}, {"time": 1421, "pitch": 70, "duration": 2, "velocity": 120}, {"time": 1424, "pitch": 68, "duration": 2, "velocity": 117}, {"time": 1427, "pitch": 67, "duration": 5, "velocity": 115}, {"time": 1433, "pitch": 67, "duration": 19, "velocity": 112}, {"time": 1457, "pitch": 79, "duration": 16, "velocity": 115}, {"time": 1475, "pitch": 77, "duration": 2, "velocity": 115}, {"time": 1478, "pitch": 75, "duration": 2, "velocity": 120}, {"time": 1481, "pitch": 77, "duration": 10, "velocity": 118}, {"time": 1493, "pitch": 72, "duration": 9, "velocity": 112}, {"time": 1505, "pitch": 74, "duration": 16, "velocity": 106}, {"time": 1523, "pitch": 72, "duration": 2, "velocity": 112}, {"time": 1526, "pitch": 70, "duration": 2, "velocity": 120}, {"time": 1529, "pitch": 72, "duration": 10, "velocity": 106}, {"time": 1541, "pitch": 67, "duration": 10, "velocity": 112}, {"time": 1553, "pitch": 65, "duration": 5, "velocity": 112}, {"time": 1559, "pitch": 65, "duration": 2, "velocity": 109}, {"time": 1562, "pitch": 65, "duration": 7, "velocity": 115}, {"time": 1571, "pitch": 67, "duration": 5, "velocity": 112}, {"time": 1577, "pitch": 77, "duration": 3, "velocity": 109}, {"time": 1583, "pitch": 77, "duration": 2, "velocity": 115}, {"time": 1586, "pitch": 77, "duration": 8, "velocity": 112}, {"time": 1595, "pitch": 79, "duration": 4, "velocity": 118}, {"time": 1601, "pitch": 75, "duration": 3, "velocity": 123}, {"time": 1604, "pitch": 74, "duration": 2, "velocity": 109}, {"time": 1607, "pitch": 72, "duration": 41, "velocity": 112}, {"time": 2033, "pitch": 72, "duration": 8, "velocity": 115}, {"time": 2042, "pitch": 75, "duration": 3, "velocity": 117}, {"time": 2045, "pitch": 74, "duration": 5, "velocity": 115}, {"time": 2051, "pitch": 72, "duration": 4, "velocity": 115}, {"time": 2057, "pitch": 70, "duration": 5, "velocity": 120}, {"time": 2063, "pitch": 72, "duration": 4, "velocity": 104}, {"time": 2069, "pitch": 67, "duration": 10, "velocity": 112}, {"time": 2081, "pitch": 67, "duration": 5, "velocity": 112}, {"time": 2087, "pitch": 70, "duration": 4, "velocity": 117}, {"time": 2093, "pitch": 69, "duration": 4, "velocity": 112}, {"time": 2099, "pitch": 67, "duration": 4, "velocity": 112}, {"time": 2105, "pitch": 65, "duration": 5, "velocity": 115}, {"time": 2111, "pitch": 67, "duration": 5, "velocity": 112}, {"time": 2117, "pitch": 60, "duration": 9, "velocity": 112}, {"time": 2129, "pitch": 63, "duration": 2, "velocity": 117}, {"time": 2132, "pitch": 63, "duration": 6, "velocity": 104}, {"time": 2138, "pitch": 63, "duration": 3, "velocity": 114}, {"time": 2141, "pitch": 63, "duration": 3, "velocity": 117}, {"time": 2144, "pitch": 63, "duration": 3, "velocity": 114}, {"time": 2147, "pitch": 60, "duration": 2, "velocity": 109}, {"time": 2150, "pitch": 63, "duration": 2, "velocity": 117}, {"time": 2153, "pitch": 65, "duration": 5, "velocity": 109}, {"time": 2159, "pitch": 65, "duration": 4, "velocity": 109}, {"time": 2165, "pitch": 70, "duration": 2, "velocity": 113}, {"time": 2168, "pitch": 67, "duration": 5, "velocity": 109}, {"time": 2174, "pitch": 65, "duration": 2, "velocity": 112}, {"time": 2177, "pitch": 67, "duration": 36, "velocity": 109}, {"time": 2225, "pitch": 72, "duration": 6, "velocity": 115}, {"time": 2231, "pitch": 75, "duration": 6, "velocity": 117}, {"time": 2237, "pitch": 74, "duration": 5, "velocity": 115}, {"time": 2243, "pitch": 72, "duration": 4, "velocity": 115}, {"time": 2249, "pitch": 70, "duration": 5, "velocity": 120}, {"time": 2255, "pitch": 72, "duration": 4, "velocity": 104}, {"time": 2261, "pitch": 67, "duration": 10, "velocity": 112}, {"time": 2273, "pitch": 67, "duration": 5, "velocity": 112}, {"time": 2279, "pitch": 70, "duration": 4, "velocity": 117}, {"time": 2285, "pitch": 69, "duration": 4, "velocity": 112}, {"time": 2291, "pitch": 67, "duration": 4, "velocity": 112}, {"time": 2297, "pitch": 65, "duration": 5, "velocity": 115}, {"time": 2303, "pitch": 67, "duration": 5, "velocity": 112}, {"time": 2309, "pitch": 60, "duration": 9, "velocity": 112}, {"time": 2321, "pitch": 63, "duration": 2, "velocity": 117}, {"time": 2324, "pitch": 63, "duration": 6, "velocity": 104}, {"time": 2333, "pitch": 63, "duration": 5, "velocity": 117}, {"time": 2339, "pitch": 60, "duration": 2, "velocity": 109}, {"time": 2342, "pitch": 63, "duration": 2, "velocity": 117}, {"time": 2345, "pitch": 65, "duration": 5, "velocity": 109}, {"time": 2351, "pitch": 65, "duration": 9, "velocity": 109}, {"time": 2363, "pitch": 70, "duration": 6, "velocity": 106}, {"time": 2369, "pitch": 72, "duration": 2, "velocity": 109}, {"time": 2371, "pitch": 74, "duration": 2, "velocity": 110}, {"time": 2373, "pitch": 72, "duration": 2, "velocity": 110}, {"time": 2374, "pitch": 70, "duration": 2, "velocity": 110}, {"time": 2376, "pitch": 72, "duration": 25, "velocity": 116}, {"time": 2465, "pitch": 77, "duration": 5, "velocity": 115}, {"time": 2471, "pitch": 79, "duration": 5, "velocity": 112}, {"time": 2477, "pitch": 77, "duration": 4, "velocity": 118}, {"time": 2483, "pitch": 75, "duration": 4, "velocity": 120}, {"time": 2489, "pitch": 77, "duration": 10, "velocity": 115}, {"time": 2501, "pitch": 77, "duration": 2, "velocity": 118}, {"time": 2504, "pitch": 75, "duration": 2, "velocity": 117}, {"time": 2507, "pitch": 72, "duration": 5, "velocity": 112}, {"time": 2513, "pitch": 72, "duration": 5, "velocity": 115}, {"time": 2519, "pitch": 75, "duration": 4, "velocity": 120}, {"time": 2525, "pitch": 74, "duration": 2, "velocity": 109}, {"time": 2528, "pitch": 72, "duration": 2, "velocity": 109}, {"time": 2531, "pitch": 70, "duration": 5, "velocity": 120}, {"time": 2537, "pitch": 72, "duration": 20, "velocity": 112}, {"time": 2561, "pitch": 67, "duration": 7, "velocity": 109}, {"time": 2567, "pitch": 70, "duration": 4, "velocity": 113}, {"time": 2573, "pitch": 70, "duration": 5, "velocity": 120}, {"time": 2579, "pitch": 65, "duration": 4, "velocity": 115}, {"time": 2585, "pitch": 65, "duration": 6, "velocity": 112}, {"time": 2591, "pitch": 67, "duration": 4, "velocity": 109}, {"time": 2597, "pitch": 67, "duration": 6, "velocity": 115}, {"time": 2603, "pitch": 65, "duration": 4, "velocity": 106}, {"time": 2609, "pitch": 70, "duration": 4, "velocity": 120}, {"time": 2615, "pitch": 70, "duration": 4, "velocity": 120}, {"time": 2621, "pitch": 70, "duration": 2, "velocity": 120}, {"time": 2624, "pitch": 68, "duration": 2, "velocity": 117}, {"time": 2627, "pitch": 67, "duration": 5, "velocity": 115}, {"time": 2633, "pitch": 67, "duration": 19, "velocity": 112}, {"time": 2657, "pitch": 79, "duration": 16, "velocity": 115}, {"time": 2675, "pitch": 77, "duration": 2, "velocity": 115}, {"time": 2678, "pitch": 75, "duration": 2, "velocity": 120}, {"time": 2681, "pitch": 77, "duration": 10, "velocity": 118}, {"time": 2693, "pitch": 72, "duration": 9, "velocity": 112}, {"time": 2705, "pitch": 74, "duration": 16, "velocity": 106}, {"time": 2723, "pitch": 72, "duration": 2, "velocity": 112}, {"time": 2726, "pitch": 70, "duration": 2, "velocity": 120}, {"time": 2729, "pitch": 72, "duration": 10, "velocity": 106}, {"time": 2741, "pitch": 67, "duration": 10, "velocity": 112}, {"time": 2753, "pitch": 65, "duration": 5, "velocity": 112}, {"time": 2759, "pitch": 65, "duration": 2, "velocity": 109}, {"time": 2762, "pitch": 65, "duration": 7, "velocity": 115}, {"time": 2771, "pitch": 67, "duration": 5, "velocity": 112}, {"time": 2777, "pitch": 77, "duration": 3, "velocity": 109}, {"time": 2783, "pitch": 77, "duration": 2, "velocity": 115}, {"time": 2786, "pitch": 77, "duration": 8, "velocity": 112}, {"time": 2795, "pitch": 79, "duration": 4, "velocity": 118}, {"time": 2801, "pitch": 75, "duration": 3, "velocity": 123}, {"time": 2804, "pitch": 74, "duration": 2, "velocity": 109}, {"time": 2807, "pitch": 72, "duration": 41, "velocity": 112}, {"time": 2873, "pitch": 77, "duration": 5, "velocity": 115}, {"time": 2879, "pitch": 79, "duration": 5, "velocity": 112}, {"time": 2885, "pitch": 77, "duration": 4, "velocity": 118}, {"time": 2891, "pitch": 75, "duration": 4, "velocity": 120}, {"time": 2897, "pitch": 77, "duration": 10, "velocity": 115}, {"time": 2909, "pitch": 77, "duration": 2, "velocity": 118}, {"time": 2912, "pitch": 75, "duration": 2, "velocity": 117}, {"time": 2915, "pitch": 72, "duration": 5, "velocity": 112}, {"time": 2921, "pitch": 72, "duration": 5, "velocity": 115}, {"time": 2927, "pitch": 75, "duration": 4, "velocity": 120}, {"time": 2933, "pitch": 74, "duration": 2, "velocity": 109}, {"time": 2936, "pitch": 72, "duration": 2, "velocity": 109}, {"time": 2939, "pitch": 70, "duration": 5, "velocity": 120}, {"time": 2945, "pitch": 72, "duration": 20, "velocity": 112}, {"time": 2969, "pitch": 67, "duration": 7, "velocity": 109}, {"time": 2975, "pitch": 70, "duration": 4, "velocity": 113}, {"time": 2981, "pitch": 70, "duration": 5, "velocity": 120}, {"time": 2987, "pitch": 65, "duration": 4, "velocity": 115}, {"time": 2993, "pitch": 65, "duration": 6, "velocity": 112}, {"time": 2999, "pitch": 67, "duration": 4, "velocity": 109}, {"time": 3005, "pitch": 67, "duration": 6, "velocity": 115}, {"time": 3011, "pitch": 65, "duration": 4, "velocity": 106}, {"time": 3017, "pitch": 70, "duration": 4, "velocity": 120}, {"time": 3023, "pitch": 70, "duration": 4, "velocity": 120}, {"time": 3029, "pitch": 70, "duration": 2, "velocity": 120}, {"time": 3032, "pitch": 68, "duration": 2, "velocity": 117}, {"time": 3035, "pitch": 67, "duration": 5, "velocity": 115}, {"time": 3041, "pitch": 67, "duration": 19, "velocity": 112}, {"time": 3065, "pitch": 79, "duration": 16, "velocity": 115}, {"time": 3083, "pitch": 77, "duration": 2, "velocity": 115}, {"time": 3086, "pitch": 75, "duration": 2, "velocity": 120}, {"time": 3089, "pitch": 77, "duration": 10, "velocity": 118}, {"time": 3101, "pitch": 72, "duration": 9, "velocity": 112}, {"time": 3113, "pitch": 74, "duration": 16, "velocity": 106}, {"time": 3131, "pitch": 72, "duration": 2, "velocity": 112}, {"time": 3134, "pitch": 70, "duration": 2, "velocity": 120}, {"time": 3137, "pitch": 72, "duration": 10, "velocity": 106}, {"time": 3149, "pitch": 67, "duration": 10, "velocity": 112}, {"time": 3161, "pitch": 65, "duration": 5, "velocity": 112}, {"time": 3167, "pitch": 65, "duration": 2, "velocity": 109}, {"time": 3170, "pitch": 65, "duration": 7, "velocity": 115}, {"time": 3179, "pitch": 67, "duration": 5, "velocity": 112}, {"time": 3185, "pitch": 77, "duration": 3, "velocity": 109}, {"time": 3191, "pitch": 77, "duration": 2, "velocity": 115}, {"time": 3194, "pitch": 77, "duration": 8, "velocity": 112}, {"time": 3203, "pitch": 79, "duration": 4, "velocity": 118}, {"time": 3209, "pitch": 75, "duration": 3, "velocity": 123}, {"time": 3212, "pitch": 74, "duration": 2, "velocity": 109}, {"time": 3215, "pitch": 72, "duration": 41, "velocity": 112}]}, {"program": 0, "is_drum": false, "name": "PIANO", "notes": [{"time": 17, "pitch": 48, "duration": 37, "velocity": 99}, {"time": 23, "pitch": 55, "duration": 7, "velocity": 55}, {"time": 29, "pitch": 60, "duration": 12, "velocity": 99}, {"time": 35, "pitch": 55, "duration": 16, "velocity": 42}, {"time": 41, "pitch": 63, "duration": 19, "velocity": 77}, {"time": 41, "pitch": 67, "duration": 21, "velocity": 91}, {"time": 65, "pitch": 43, "duration": 39, "velocity": 91}, {"time": 71, "pitch": 50, "duration": 8, "velocity": 32}, {"time": 77, "pitch": 58, "duration": 30, "velocity": 91}, {"time": 83, "pitch": 50, "duration": 20, "velocity": 55}, {"time": 89, "pitch": 62, "duration": 18, "velocity": 106}, {"time": 113, "pitch": 44, "duration": 37, "velocity": 99}, {"time": 119, "pitch": 51, "duration": 31, "velocity": 66}, {"time": 125, "pitch": 60, "duration": 8, "velocity": 104}, {"time": 131, "pitch": 56, "duration": 26, "velocity": 107}, {"time": 137, "pitch": 60, "duration": 21, "velocity": 94}, {"time": 137, "pitch": 63, "duration": 31, "velocity": 96}, {"time": 161, "pitch": 48, "duration": 40, "velocity": 96}, {"time": 167, "pitch": 55, "duration": 8, "velocity": 78}, {"time": 173, "pitch": 63, "duration": 9, "velocity": 113}, {"time": 179, "pitch": 55, "duration": 8, "velocity": 67}, {"time": 185, "pitch": 63, "duration": 16, "velocity": 113}, {"time": 185, "pitch": 67, "duration": 17, "velocity": 99}, {"time": 209, "pitch": 36, "duration": 2, "velocity": 94}, {"time": 209, "pitch": 60, "duration": 11, "velocity": 94}, {"time": 209, "pitch": 63, "duration": 9, "velocity": 107}, {"time": 215, "pitch": 48, "duration": 32, "velocity": 85}, {"time": 221, "pitch": 63, "duration": 6, "velocity": 110}, {"time": 221, "pitch": 67, "duration": 5, "velocity": 99}, {"time": 227, "pitch": 55, "duration": 8, "velocity": 37}, {"time": 233, "pitch": 60, "duration": 9, "velocity": 94}, {"time": 233, "pitch": 63, "duration": 10, "velocity": 113}, {"time": 233, "pitch": 67, "duration": 10, "velocity": 99}, {"time": 239, "pitch": 55, "duration": 7, "velocity": 42}, {"time": 245, "pitch": 60, "duration": 3, "velocity": 94}, {"time": 245, "pitch": 63, "duration": 6, "velocity": 113}, {"time": 245, "pitch": 67, "duration": 7, "velocity": 104}, {"time": 257, "pitch": 43, "duration": 35, "velocity": 104}, {"time": 257, "pitch": 55, "duration": 13, "velocity": 96}, {"time": 257, "pitch": 58, "duration": 11, "velocity": 96}, {"time": 263, "pitch": 50, "duration": 8, "velocity": 73}, {"time": 269, "pitch": 58, "duration": 5, "velocity": 104}, {"time": 269, "pitch": 62, "duration": 4, "velocity": 104}, {"time": 275, "pitch": 50, "duration": 7, "velocity": 48}, {"time": 281, "pitch": 58, "duration": 6, "velocity": 83}, {"time": 281, "pitch": 62, "duration": 6, "velocity": 94}, {"time": 293, "pitch": 58, "duration": 3, "velocity": 113}, {"time": 293, "pitch": 62, "duration": 4, "velocity": 104}, {"time": 305, "pitch": 44, "duration": 44, "velocity": 110}, {"time": 305, "pitch": 56, "duration": 10, "velocity": 79}, {"time": 305, "pitch": 60, "duration": 8, "velocity": 99}, {"time": 311, "pitch": 51, "duration": 21, "velocity": 44}, {"time": 317, "pitch": 60, "duration": 5, "velocity": 91}, {"time": 317, "pitch": 63, "duration": 5, "velocity": 107}, {"time": 329, "pitch": 60, "duration": 11, "velocity": 99}, {"time": 329, "pitch": 63, "duration": 11, "velocity": 107}, {"time": 335, "pitch": 51, "duration": 14, "velocity": 55}, {"time": 341, "pitch": 60, "duration": 7, "velocity": 104}, {"time": 341, "pitch": 63, "duration": 8, "velocity": 120}, {"time": 353, "pitch": 48, "duration": 13, "velocity": 106}, {"time": 353, "pitch": 55, "duration": 9, "velocity": 91}, {"time": 353, "pitch": 60, "duration": 10, "velocity": 101}, {"time": 365, "pitch": 60, "duration": 2, "velocity": 96}, {"time": 365, "pitch": 63, "duration": 3, "velocity": 99}, {"time": 377, "pitch": 63, "duration": 5, "velocity": 101}, {"time": 377, "pitch": 67, "duration": 4, "velocity": 96}, {"time": 389, "pitch": 60, "duration": 2, "velocity": 76}, {"time": 389, "pitch": 63, "duration": 8, "velocity": 110}, {"time": 389, "pitch": 67, "duration": 9, "velocity": 96}, {"time": 395, "pitch": 60, "duration": 5, "velocity": 73}, {"time": 401, "pitch": 48, "duration": 44, "velocity": 99}, {"time": 401, "pitch": 60, "duration": 11, "velocity": 78}, {"time": 401, "pitch": 63, "duration": 10, "velocity": 88}, {"time": 407, "pitch": 55, "duration": 8, "velocity": 80}, {"time": 413, "pitch": 63, "duration": 9, "velocity": 104}, {"time": 419, "pitch": 55, "duration": 26, "velocity": 76}, {"time": 425, "pitch": 60, "duration": 23, "velocity": 89}, {"time": 425, "pitch": 63, "duration": 23, "velocity": 113}, {"time": 425, "pitch": 67, "duration": 23, "velocity": 101}, {"time": 449, "pitch": 48, "duration": 14, "velocity": 101}, {"time": 455, "pitch": 55, "duration": 6, "velocity": 56}, {"time": 461, "pitch": 63, "duration": 6, "velocity": 110}, {"time": 461, "pitch": 67, "duration": 7, "velocity": 99}, {"time": 467, "pitch": 60, "duration": 5, "velocity": 74}, {"time": 473, "pitch": 43, "duration": 14, "velocity": 91}, {"time": 479, "pitch": 50, "duration": 7, "velocity": 61}, {"time": 485, "pitch": 58, "duration": 3, "velocity": 110}, {"time": 485, "pitch": 62, "duration": 3, "velocity": 101}, {"time": 497, "pitch": 39, "duration": 2, "velocity": 101}, {"time": 497, "pitch": 51, "duration": 3, "velocity": 77}, {"time": 497, "pitch": 55, "duration": 3, "velocity": 96}, {"time": 497, "pitch": 58, "duration": 4, "velocity": 77}, {"time": 509, "pitch": 41, "duration": 3, "velocity": 101}, {"time": 509, "pitch": 53, "duration": 4, "velocity": 96}, {"time": 509, "pitch": 57, "duration": 4, "velocity": 101}, {"time": 521, "pitch": 43, "duration": 11, "velocity": 99}, {"time": 521, "pitch": 55, "duration": 6, "velocity": 89}, {"time": 521, "pitch": 58, "duration": 5, "velocity": 79}, {"time": 521, "pitch": 62, "duration": 6, "velocity": 104}, {"time": 533, "pitch": 48, "duration": 6, "velocity": 85}, {"time": 533, "pitch": 55, "duration": 5, "velocity": 94}, {"time": 533, "pitch": 60, "duration": 5, "velocity": 96}, {"time": 545, "pitch": 44, "duration": 16, "velocity": 110}, {"time": 545, "pitch": 56, "duration": 10, "velocity": 99}, {"time": 545, "pitch": 60, "duration": 7, "velocity": 99}, {"time": 551, "pitch": 51, "duration": 9, "velocity": 61}, {"time": 557, "pitch": 56, "duration": 3, "velocity": 107}, {"time": 557, "pitch": 60, "duration": 6, "velocity": 91}, {"time": 557, "pitch": 63, "duration": 7, "velocity": 104}, {"time": 563, "pitch": 56, "duration": 2, "velocity": 96}, {"time": 569, "pitch": 46, "duration": 15, "velocity": 101}, {"time": 569, "pitch": 53, "duration": 5, "velocity": 87}, {"time": 569, "pitch": 58, "duration": 8, "velocity": 83}, {"time": 575, "pitch": 53, "duration": 7, "velocity": 89}, {"time": 581, "pitch": 58, "duration": 5, "velocity": 113}, {"time": 581, "pitch": 62, "duration": 5, "velocity": 104}, {"time": 593, "pitch": 39, "duration": 16, "velocity": 101}, {"time": 593, "pitch": 55, "duration": 12, "velocity": 85}, {"time": 593, "pitch": 58, "duration": 8, "velocity": 93}, {"time": 599, "pitch": 46, "duration": 9, "velocity": 44}, {"time": 605, "pitch": 58, "duration": 7, "velocity": 117}, {"time": 605, "pitch": 63, "duration": 8, "velocity": 110}, {"time": 611, "pitch": 55, "duration": 3, "velocity": 74}, {"time": 617, "pitch": 43, "duration": 19, "velocity": 99}, {"time": 617, "pitch": 55, "duration": 10, "velocity": 85}, {"time": 617, "pitch": 59, "duration": 6, "velocity": 96}, {"time": 623, "pitch": 50, "duration": 10, "velocity": 71}, {"time": 629, "pitch": 59, "duration": 7, "velocity": 112}, {"time": 629, "pitch": 62, "duration": 10, "velocity": 106}, {"time": 629, "pitch": 67, "duration": 9, "velocity": 96}, {"time": 635, "pitch": 55, "duration": 4, "velocity": 112}, {"time": 641, "pitch": 48, "duration": 16, "velocity": 96}, {"time": 641, "pitch": 55, "duration": 4, "velocity": 106}, {"time": 641, "pitch": 60, "duration": 8, "velocity": 99}, {"time": 647, "pitch": 55, "duration": 7, "velocity": 87}, {"time": 653, "pitch": 60, "duration": 7, "velocity": 109}, {"time": 653, "pitch": 63, "duration": 7, "velocity": 113}, {"time": 659, "pitch": 55, "duration": 5, "velocity": 69}, {"time": 665, "pitch": 43, "duration": 23, "velocity": 101}, {"time": 665, "pitch": 55, "duration": 9, "velocity": 89}, {"time": 665, "pitch": 58, "duration": 7, "velocity": 99}, {"time": 671, "pitch": 50, "duration": 17, "velocity": 78}, {"time": 677, "pitch": 58, "duration": 11, "velocity": 113}, {"time": 677, "pitch": 62, "duration": 11, "velocity": 104}, {"time": 683, "pitch": 55, "duration": 5, "velocity": 106}, {"time": 689, "pitch": 39, "duration": 7, "velocity": 117}, {"time": 689, "pitch": 51, "duration": 2, "velocity": 49}, {"time": 689, "pitch": 55, "duration": 5, "velocity": 74}, {"time": 695, "pitch": 46, "duration": 2, "velocity": 47}, {"time": 701, "pitch": 41, "duration": 6, "velocity": 106}, {"time": 701, "pitch": 53, "duration": 6, "velocity": 104}, {"time": 701, "pitch": 57, "duration": 6, "velocity": 106}, {"time": 713, "pitch": 43, "duration": 8, "velocity": 104}, {"time": 713, "pitch": 55, "duration": 7, "velocity": 94}, {"time": 713, "pitch": 62, "duration": 7, "velocity": 106}, {"time": 725, "pitch": 48, "duration": 6, "velocity": 99}, {"time": 725, "pitch": 55, "duration": 3, "velocity": 91}, {"time": 725, "pitch": 60, "duration": 6, "velocity": 99}, {"time": 731, "pitch": 55, "duration": 2, "velocity": 99}, {"time": 737, "pitch": 44, "duration": 39, "velocity": 110}, {"time": 737, "pitch": 56, "duration": 10, "velocity": 96}, {"time": 737, "pitch": 60, "duration": 6, "velocity": 94}, {"time": 737, "pitch": 63, "duration": 7, "velocity": 91}, {"time": 743, "pitch": 51, "duration": 20, "velocity": 63}, {"time": 749, "pitch": 60, "duration": 5, "velocity": 104}, {"time": 749, "pitch": 63, "duration": 5, "velocity": 117}, {"time": 761, "pitch": 56, "duration": 5, "velocity": 104}, {"time": 761, "pitch": 60, "duration": 5, "velocity": 89}, {"time": 761, "pitch": 63, "duration": 5, "velocity": 104}, {"time": 767, "pitch": 51, "duration": 9, "velocity": 46}, {"time": 773, "pitch": 56, "duration": 3, "velocity": 113}, {"time": 773, "pitch": 60, "duration": 3, "velocity": 96}, {"time": 773, "pitch": 63, "duration": 3, "velocity": 110}, {"time": 779, "pitch": 44, "duration": 2, "velocity": 110}, {"time": 785, "pitch": 48, "duration": 47, "velocity": 101}, {"time": 785, "pitch": 60, "duration": 10, "velocity": 89}, {"time": 785, "pitch": 63, "duration": 7, "velocity": 99}, {"time": 791, "pitch": 55, "duration": 7, "velocity": 47}, {"time": 797, "pitch": 63, "duration": 7, "velocity": 110}, {"time": 797, "pitch": 67, "duration": 6, "velocity": 99}, {"time": 803, "pitch": 55, "duration": 7, "velocity": 38}, {"time": 809, "pitch": 60, "duration": 7, "velocity": 89}, {"time": 809, "pitch": 63, "duration": 8, "velocity": 104}, {"time": 815, "pitch": 55, "duration": 8, "velocity": 54}, {"time": 821, "pitch": 60, "duration": 11, "velocity": 104}, {"time": 821, "pitch": 63, "duration": 12, "velocity": 117}, {"time": 821, "pitch": 67, "duration": 11, "velocity": 104}, {"time": 827, "pitch": 55, "duration": 6, "velocity": 64}, {"time": 833, "pitch": 48, "duration": 14, "velocity": 101}, {"time": 839, "pitch": 55, "duration": 6, "velocity": 56}, {"time": 845, "pitch": 63, "duration": 6, "velocity": 110}, {"time": 845, "pitch": 67, "duration": 7, "velocity": 99}, {"time": 851, "pitch": 60, "duration": 5, "velocity": 74}, {"time": 857, "pitch": 43, "duration": 14, "velocity": 91}, {"time": 863, "pitch": 50, "duration": 7, "velocity": 61}, {"time": 869, "pitch": 58, "duration": 3, "velocity": 110}, {"time": 869, "pitch": 62, "duration": 3, "velocity": 101}, {"time": 881, "pitch": 39, "duration": 2, "velocity": 101}, {"time": 881, "pitch": 51, "duration": 3, "velocity": 77}, {"time": 881, "pitch": 55, "duration": 3, "velocity": 96}, {"time": 881, "pitch": 58, "duration": 4, "velocity": 77}, {"time": 893, "pitch": 41, "duration": 3, "velocity": 101}, {"time": 893, "pitch": 53, "duration": 4, "velocity": 96}, {"time": 893, "pitch": 57, "duration": 4, "velocity": 101}, {"time": 905, "pitch": 43, "duration": 11, "velocity": 99}, {"time": 905, "pitch": 55, "duration": 6, "velocity": 89}, {"time": 905, "pitch": 58, "duration": 5, "velocity": 79}, {"time": 905, "pitch": 62, "duration": 6, "velocity": 104}, {"time": 917, "pitch": 48, "duration": 6, "velocity": 85}, {"time": 917, "pitch": 55, "duration": 5, "velocity": 94}, {"time": 917, "pitch": 60, "duration": 5, "velocity": 96}, {"time": 929, "pitch": 44, "duration": 16, "velocity": 110}, {"time": 929, "pitch": 56, "duration": 10, "velocity": 99}, {"time": 929, "pitch": 60, "duration": 7, "velocity": 99}, {"time": 935, "pitch": 51, "duration": 9, "velocity": 61}, {"time": 941, "pitch": 56, "duration": 3, "velocity": 107}, {"time": 941, "pitch": 60, "duration": 6, "velocity": 91}, {"time": 941, "pitch": 63, "duration": 7, "velocity": 104}, {"time": 947, "pitch": 56, "duration": 2, "velocity": 96}, {"time": 953, "pitch": 44, "duration": 22, "velocity": 107}, {"time": 953, "pitch": 56, "duration": 10, "velocity": 74}, {"time": 953, "pitch": 63, "duration": 10, "velocity": 55}, {"time": 959, "pitch": 51, "duration": 16, "velocity": 93}, {"time": 965, "pitch": 60, "duration": 10, "velocity": 101}, {"time": 965, "pitch": 63, "duration": 11, "velocity": 110}, {"time": 971, "pitch": 56, "duration": 5, "velocity": 99}, {"time": 977, "pitch": 39, "duration": 16, "velocity": 101}, {"time": 977, "pitch": 55, "duration": 12, "velocity": 85}, {"time": 977, "pitch": 58, "duration": 8, "velocity": 93}, {"time": 983, "pitch": 46, "duration": 9, "velocity": 44}, {"time": 989, "pitch": 58, "duration": 7, "velocity": 117}, {"time": 989, "pitch": 63, "duration": 8, "velocity": 110}, {"time": 995, "pitch": 55, "duration": 3, "velocity": 74}, {"time": 1001, "pitch": 43, "duration": 19, "velocity": 99}, {"time": 1001, "pitch": 55, "duration": 10, "velocity": 85}, {"time": 1001, "pitch": 59, "duration": 6, "velocity": 96}, {"time": 1007, "pitch": 50, "duration": 10, "velocity": 71}, {"time": 1013, "pitch": 59, "duration": 7, "velocity": 112}, {"time": 1013, "pitch": 62, "duration": 10, "velocity": 106}, {"time": 1013, "pitch": 67, "duration": 9, "velocity": 96}, {"time": 1019, "pitch": 55, "duration": 4, "velocity": 112}, {"time": 1025, "pitch": 48, "duration": 16, "velocity": 96}, {"time": 1025, "pitch": 55, "duration": 4, "velocity": 106}, {"time": 1025, "pitch": 60, "duration": 8, "velocity": 99}, {"time": 1031, "pitch": 55, "duration": 7, "velocity": 87}, {"time": 1037, "pitch": 60, "duration": 7, "velocity": 109}, {"time": 1037, "pitch": 63, "duration": 7, "velocity": 113}, {"time": 1043, "pitch": 55, "duration": 5, "velocity": 69}, {"time": 1049, "pitch": 43, "duration": 23, "velocity": 101}, {"time": 1049, "pitch": 55, "duration": 9, "velocity": 89}, {"time": 1049, "pitch": 58, "duration": 7, "velocity": 99}, {"time": 1055, "pitch": 50, "duration": 17, "velocity": 78}, {"time": 1061, "pitch": 58, "duration": 11, "velocity": 113}, {"time": 1061, "pitch": 62, "duration": 11, "velocity": 104}, {"time": 1067, "pitch": 55, "duration": 5, "velocity": 106}, {"time": 1073, "pitch": 39, "duration": 7, "velocity": 117}, {"time": 1073, "pitch": 51, "duration": 2, "velocity": 49}, {"time": 1073, "pitch": 55, "duration": 5, "velocity": 74}, {"time": 1079, "pitch": 46, "duration": 2, "velocity": 47}, {"time": 1085, "pitch": 41, "duration": 6, "velocity": 106}, {"time": 1085, "pitch": 53, "duration": 6, "velocity": 104}, {"time": 1085, "pitch": 57, "duration": 6, "velocity": 106}, {"time": 1097, "pitch": 43, "duration": 8, "velocity": 104}, {"time": 1097, "pitch": 55, "duration": 7, "velocity": 94}, {"time": 1097, "pitch": 62, "duration": 7, "velocity": 106}, {"time": 1109, "pitch": 48, "duration": 6, "velocity": 99}, {"time": 1109, "pitch": 55, "duration": 3, "velocity": 91}, {"time": 1109, "pitch": 60, "duration": 6, "velocity": 99}, {"time": 1115, "pitch": 55, "duration": 2, "velocity": 99}, {"time": 1121, "pitch": 44, "duration": 39, "velocity": 110}, {"time": 1121, "pitch": 56, "duration": 10, "velocity": 96}, {"time": 1121, "pitch": 60, "duration": 6, "velocity": 94}, {"time": 1121, "pitch": 63, "duration": 7, "velocity": 91}, {"time": 1127, "pitch": 51, "duration": 20, "velocity": 63}, {"time": 1133, "pitch": 60, "duration": 5, "velocity": 104}, {"time": 1133, "pitch": 63, "duration": 5, "velocity": 117}, {"time": 1145, "pitch": 56, "duration": 5, "velocity": 104}, {"time": 1145, "pitch": 60, "duration": 5, "velocity": 89}, {"time": 1145, "pitch": 63, "duration": 5, "velocity": 104}, {"time": 1151, "pitch": 51, "duration": 9, "velocity": 46}, {"time": 1157, "pitch": 56, "duration": 3, "velocity": 113}, {"time": 1157, "pitch": 60, "duration": 3, "velocity": 96}, {"time": 1157, "pitch": 63, "duration": 3, "velocity": 110}, {"time": 1163, "pitch": 44, "duration": 2, "velocity": 110}, {"time": 1169, "pitch": 48, "duration": 47, "velocity": 101}, {"time": 1169, "pitch": 60, "duration": 10, "velocity": 89}, {"time": 1169, "pitch": 63, "duration": 7, "velocity": 99}, {"time": 1175, "pitch": 55, "duration": 7, "velocity": 47}, {"time": 1181, "pitch": 63, "duration": 7, "velocity": 110}, {"time": 1181, "pitch": 67, "duration": 6, "velocity": 99}, {"time": 1187, "pitch": 55, "duration": 7, "velocity": 38}, {"time": 1193, "pitch": 60, "duration": 7, "velocity": 89}, {"time": 1193, "pitch": 63, "duration": 8, "velocity": 104}, {"time": 1199, "pitch": 55, "duration": 8, "velocity": 54}, {"time": 1205, "pitch": 60, "duration": 11, "velocity": 104}, {"time": 1205, "pitch": 63, "duration": 12, "velocity": 117}, {"time": 1205, "pitch": 67, "duration": 11, "velocity": 104}, {"time": 1211, "pitch": 55, "duration": 6, "velocity": 64}, {"time": 1217, "pitch": 41, "duration": 16, "velocity": 106}, {"time": 1217, "pitch": 53, "duration": 7, "velocity": 96}, {"time": 1217, "pitch": 56, "duration": 7, "velocity": 83}, {"time": 1217, "pitch": 60, "duration": 8, "velocity": 96}, {"time": 1223, "pitch": 48, "duration": 8, "velocity": 74}, {"time": 1229, "pitch": 56, "duration": 4, "velocity": 120}, {"time": 1229, "pitch": 60, "duration": 5, "velocity": 109}, {"time": 1235, "pitch": 41, "duration": 4, "velocity": 104}, {"time": 1241, "pitch": 43, "duration": 18, "velocity": 106}, {"time": 1241, "pitch": 55, "duration": 6, "velocity": 89}, {"time": 1241, "pitch": 58, "duration": 5, "velocity": 101}, {"time": 1241, "pitch": 62, "duration": 5, "velocity": 106}, {"time": 1247, "pitch": 50, "duration": 8, "velocity": 85}, {"time": 1253, "pitch": 58, "duration": 11, "velocity": 117}, {"time": 1253, "pitch": 62, "duration": 11, "velocity": 109}, {"time": 1253, "pitch": 67, "duration": 11, "velocity": 96}, {"time": 1259, "pitch": 55, "duration": 5, "velocity": 104}, {"time": 1265, "pitch": 46, "duration": 14, "velocity": 113}, {"time": 1265, "pitch": 58, "duration": 10, "velocity": 107}, {"time": 1265, "pitch": 62, "duration": 8, "velocity": 109}, {"time": 1271, "pitch": 53, "duration": 7, "velocity": 89}, {"time": 1277, "pitch": 58, "duration": 3, "velocity": 110}, {"time": 1277, "pitch": 62, "duration": 6, "velocity": 106}, {"time": 1277, "pitch": 65, "duration": 7, "velocity": 106}, {"time": 1283, "pitch": 58, "duration": 2, "velocity": 113}, {"time": 1289, "pitch": 48, "duration": 13, "velocity": 101}, {"time": 1289, "pitch": 60, "duration": 9, "velocity": 94}, {"time": 1289, "pitch": 63, "duration": 8, "velocity": 104}, {"time": 1289, "pitch": 67, "duration": 7, "velocity": 96}, {"time": 1295, "pitch": 55, "duration": 7, "velocity": 73}, {"time": 1301, "pitch": 60, "duration": 3, "velocity": 99}, {"time": 1301, "pitch": 63, "duration": 7, "velocity": 120}, {"time": 1301, "pitch": 67, "duration": 7, "velocity": 104}, {"time": 1307, "pitch": 60, "duration": 2, "velocity": 104}, {"time": 1313, "pitch": 44, "duration": 13, "velocity": 107}, {"time": 1313, "pitch": 56, "duration": 10, "velocity": 104}, {"time": 1313, "pitch": 60, "duration": 7, "velocity": 94}, {"time": 1313, "pitch": 63, "duration": 8, "velocity": 101}, {"time": 1319, "pitch": 51, "duration": 7, "velocity": 50}, {"time": 1325, "pitch": 56, "duration": 2, "velocity": 117}, {"time": 1325, "pitch": 60, "duration": 5, "velocity": 106}, {"time": 1325, "pitch": 63, "duration": 7, "velocity": 117}, {"time": 1337, "pitch": 48, "duration": 15, "velocity": 101}, {"time": 1337, "pitch": 60, "duration": 9, "velocity": 94}, {"time": 1337, "pitch": 63, "duration": 8, "velocity": 99}, {"time": 1343, "pitch": 55, "duration": 7, "velocity": 42}, {"time": 1349, "pitch": 60, "duration": 3, "velocity": 101}, {"time": 1349, "pitch": 63, "duration": 6, "velocity": 120}, {"time": 1349, "pitch": 67, "duration": 7, "velocity": 104}, {"time": 1361, "pitch": 43, "duration": 18, "velocity": 104}, {"time": 1361, "pitch": 55, "duration": 10, "velocity": 91}, {"time": 1361, "pitch": 58, "duration": 7, "velocity": 104}, {"time": 1361, "pitch": 62, "duration": 7, "velocity": 104}, {"time": 1367, "pitch": 50, "duration": 10, "velocity": 76}, {"time": 1373, "pitch": 58, "duration": 7, "velocity": 120}, {"time": 1373, "pitch": 62, "duration": 7, "velocity": 109}, {"time": 1379, "pitch": 55, "duration": 3, "velocity": 99}, {"time": 1385, "pitch": 41, "duration": 16, "velocity": 101}, {"time": 1385, "pitch": 53, "duration": 10, "velocity": 99}, {"time": 1385, "pitch": 56, "duration": 9, "velocity": 91}, {"time": 1391, "pitch": 48, "duration": 8, "velocity": 76}, {"time": 1397, "pitch": 56, "duration": 6, "velocity": 120}, {"time": 1397, "pitch": 60, "duration": 6, "velocity": 109}, {"time": 1403, "pitch": 53, "duration": 5, "velocity": 99}, {"time": 1409, "pitch": 46, "duration": 17, "velocity": 96}, {"time": 1409, "pitch": 58, "duration": 4, "velocity": 113}, {"time": 1409, "pitch": 62, "duration": 4, "velocity": 106}, {"time": 1415, "pitch": 53, "duration": 8, "velocity": 45}, {"time": 1421, "pitch": 58, "duration": 4, "velocity": 120}, {"time": 1421, "pitch": 62, "duration": 4, "velocity": 112}, {"time": 1433, "pitch": 39, "duration": 5, "velocity": 113}, {"time": 1433, "pitch": 55, "duration": 7, "velocity": 99}, {"time": 1433, "pitch": 58, "duration": 6, "velocity": 117}, {"time": 1433, "pitch": 63, "duration": 6, "velocity": 113}, {"time": 1445, "pitch": 43, "duration": 9, "velocity": 106}, {"time": 1445, "pitch": 55, "duration": 4, "velocity": 112}, {"time": 1445, "pitch": 59, "duration": 4, "velocity": 112}, {"time": 1445, "pitch": 62, "duration": 4, "velocity": 112}, {"time": 1448, "pitch": 50, "duration": 6, "velocity": 99}, {"time": 1451, "pitch": 55, "duration": 4, "velocity": 112}, {"time": 1457, "pitch": 48, "duration": 16, "velocity": 106}, {"time": 1457, "pitch": 55, "duration": 4, "velocity": 112}, {"time": 1457, "pitch": 60, "duration": 9, "velocity": 112}, {"time": 1463, "pitch": 55, "duration": 4, "velocity": 96}, {"time": 1469, "pitch": 55, "duration": 3, "velocity": 106}, {"time": 1469, "pitch": 60, "duration": 6, "velocity": 109}, {"time": 1469, "pitch": 63, "duration": 6, "velocity": 110}, {"time": 1475, "pitch": 55, "duration": 2, "velocity": 104}, {"time": 1481, "pitch": 41, "duration": 16, "velocity": 106}, {"time": 1481, "pitch": 53, "duration": 11, "velocity": 99}, {"time": 1481, "pitch": 56, "duration": 7, "velocity": 99}, {"time": 1481, "pitch": 60, "duration": 5, "velocity": 101}, {"time": 1487, "pitch": 48, "duration": 9, "velocity": 74}, {"time": 1493, "pitch": 56, "duration": 7, "velocity": 120}, {"time": 1493, "pitch": 60, "duration": 9, "velocity": 109}, {"time": 1499, "pitch": 53, "duration": 2, "velocity": 109}, {"time": 1505, "pitch": 43, "duration": 17, "velocity": 106}, {"time": 1505, "pitch": 55, "duration": 8, "velocity": 106}, {"time": 1505, "pitch": 62, "duration": 9, "velocity": 106}, {"time": 1511, "pitch": 50, "duration": 8, "velocity": 76}, {"time": 1517, "pitch": 55, "duration": 4, "velocity": 112}, {"time": 1517, "pitch": 62, "duration": 7, "velocity": 109}, {"time": 1517, "pitch": 67, "duration": 7, "velocity": 104}, {"time": 1523, "pitch": 55, "duration": 4, "velocity": 96}, {"time": 1529, "pitch": 48, "duration": 17, "velocity": 99}, {"time": 1529, "pitch": 55, "duration": 3, "velocity": 109}, {"time": 1529, "pitch": 60, "duration": 9, "velocity": 104}, {"time": 1535, "pitch": 55, "duration": 4, "velocity": 99}, {"time": 1541, "pitch": 55, "duration": 3, "velocity": 106}, {"time": 1541, "pitch": 60, "duration": 3, "velocity": 109}, {"time": 1541, "pitch": 63, "duration": 4, "velocity": 117}, {"time": 1553, "pitch": 41, "duration": 15, "velocity": 106}, {"time": 1553, "pitch": 60, "duration": 4, "velocity": 101}, {"time": 1553, "pitch": 65, "duration": 10, "velocity": 104}, {"time": 1559, "pitch": 60, "duration": 4, "velocity": 82}, {"time": 1565, "pitch": 60, "duration": 3, "velocity": 109}, {"time": 1565, "pitch": 65, "duration": 7, "velocity": 112}, {"time": 1565, "pitch": 68, "duration": 7, "velocity": 117}, {"time": 1571, "pitch": 60, "duration": 2, "velocity": 99}, {"time": 1577, "pitch": 46, "duration": 17, "velocity": 107}, {"time": 1577, "pitch": 58, "duration": 9, "velocity": 104}, {"time": 1577, "pitch": 62, "duration": 8, "velocity": 109}, {"time": 1583, "pitch": 53, "duration": 10, "velocity": 66}, {"time": 1589, "pitch": 58, "duration": 4, "velocity": 113}, {"time": 1589, "pitch": 62, "duration": 4, "velocity": 109}, {"time": 1589, "pitch": 65, "duration": 5, "velocity": 106}, {"time": 1601, "pitch": 48, "duration": 42, "velocity": 106}, {"time": 1601, "pitch": 60, "duration": 10, "velocity": 104}, {"time": 1601, "pitch": 63, "duration": 7, "velocity": 113}, {"time": 1607, "pitch": 55, "duration": 9, "velocity": 69}, {"time": 1613, "pitch": 63, "duration": 5, "velocity": 120}, {"time": 1613, "pitch": 67, "duration": 5, "velocity": 109}, {"time": 1619, "pitch": 55, "duration": 8, "velocity": 52}, {"time": 1625, "pitch": 63, "duration": 7, "velocity": 117}, {"time": 1625, "pitch": 67, "duration": 6, "velocity": 106}, {"time": 1625, "pitch": 72, "duration": 5, "velocity": 99}, {"time": 1631, "pitch": 55, "duration": 7, "velocity": 38}, {"time": 1637, "pitch": 63, "duration": 11, "velocity": 104}, {"time": 1637, "pitch": 67, "duration": 11, "velocity": 96}, {"time": 1643, "pitch": 60, "duration": 5, "velocity": 89}, {"time": 1649, "pitch": 48, "duration": 37, "velocity": 99}, {"time": 1655, "pitch": 55, "duration": 7, "velocity": 55}, {"time": 1661, "pitch": 60, "duration": 12, "velocity": 99}, {"time": 1667, "pitch": 55, "duration": 16, "velocity": 42}, {"time": 1673, "pitch": 63, "duration": 19, "velocity": 77}, {"time": 1673, "pitch": 67, "duration": 21, "velocity": 91}, {"time": 1697, "pitch": 43, "duration": 39, "velocity": 91}, {"time": 1703, "pitch": 50, "duration": 8, "velocity": 32}, {"time": 1709, "pitch": 58, "duration": 30, "velocity": 91}, {"time": 1715, "pitch": 50, "duration": 20, "velocity": 55}, {"time": 1721, "pitch": 62, "duration": 18, "velocity": 106}, {"time": 1745, "pitch": 44, "duration": 37, "velocity": 99}, {"time": 1751, "pitch": 51, "duration": 31, "velocity": 66}, {"time": 1757, "pitch": 60, "duration": 8, "velocity": 104}, {"time": 1763, "pitch": 56, "duration": 26, "velocity": 107}, {"time": 1769, "pitch": 60, "duration": 21, "velocity": 94}, {"time": 1769, "pitch": 63, "duration": 31, "velocity": 96}, {"time": 1793, "pitch": 48, "duration": 40, "velocity": 96}, {"time": 1799, "pitch": 55, "duration": 8, "velocity": 78}, {"time": 1805, "pitch": 63, "duration": 9, "velocity": 113}, {"time": 1811, "pitch": 55, "duration": 8, "velocity": 67}, {"time": 1817, "pitch": 63, "duration": 16, "velocity": 113}, {"time": 1817, "pitch": 67, "duration": 17, "velocity": 99}, {"time": 1841, "pitch": 36, "duration": 2, "velocity": 94}, {"time": 1841, "pitch": 60, "duration": 11, "velocity": 94}, {"time": 1841, "pitch": 63, "duration": 9, "velocity": 107}, {"time": 1847, "pitch": 48, "duration": 32, "velocity": 85}, {"time": 1853, "pitch": 63, "duration": 6, "velocity": 110}, {"time": 1853, "pitch": 67, "duration": 5, "velocity": 99}, {"time": 1859, "pitch": 55, "duration": 8, "velocity": 37}, {"time": 1865, "pitch": 60, "duration": 9, "velocity": 94}, {"time": 1865, "pitch": 63, "duration": 10, "velocity": 113}, {"time": 1865, "pitch": 67, "duration": 10, "velocity": 99}, {"time": 1871, "pitch": 55, "duration": 7, "velocity": 42}, {"time": 1877, "pitch": 60, "duration": 3, "velocity": 94}, {"time": 1877, "pitch": 63, "duration": 6, "velocity": 113}, {"time": 1877, "pitch": 67, "duration": 7, "velocity": 104}, {"time": 1889, "pitch": 43, "duration": 35, "velocity": 104}, {"time": 1889, "pitch": 55, "duration": 13, "velocity": 96}, {"time": 1889, "pitch": 58, "duration": 11, "velocity": 96}, {"time": 1895, "pitch": 50, "duration": 8, "velocity": 73}, {"time": 1901, "pitch": 58, "duration": 5, "velocity": 104}, {"time": 1901, "pitch": 62, "duration": 4, "velocity": 104}, {"time": 1907, "pitch": 50, "duration": 7, "velocity": 48}, {"time": 1913, "pitch": 58, "duration": 6, "velocity": 83}, {"time": 1913, "pitch": 62, "duration": 6, "velocity": 94}, {"time": 1925, "pitch": 58, "duration": 3, "velocity": 113}, {"time": 1925, "pitch": 62, "duration": 4, "velocity": 104}, {"time": 1937, "pitch": 44, "duration": 44, "velocity": 110}, {"time": 1937, "pitch": 56, "duration": 10, "velocity": 79}, {"time": 1937, "pitch": 60, "duration": 8, "velocity": 99}, {"time": 1943, "pitch": 51, "duration": 21, "velocity": 44}, {"time": 1949, "pitch": 60, "duration": 5, "velocity": 91}, {"time": 1949, "pitch": 63, "duration": 5, "velocity": 107}, {"time": 1961, "pitch": 60, "duration": 11, "velocity": 99}, {"time": 1961, "pitch": 63, "duration": 11, "velocity": 107}, {"time": 1967, "pitch": 51, "duration": 14, "velocity": 55}, {"time": 1973, "pitch": 60, "duration": 7, "velocity": 104}, {"time": 1973, "pitch": 63, "duration": 8, "velocity": 120}, {"time": 1985, "pitch": 48, "duration": 13, "velocity": 106}, {"time": 1985, "pitch": 55, "duration": 9, "velocity": 91}, {"time": 1985, "pitch": 60, "duration": 10, "velocity": 101}, {"time": 1997, "pitch": 60, "duration": 2, "velocity": 96}, {"time": 1997, "pitch": 63, "duration": 3, "velocity": 99}, {"time": 2009, "pitch": 63, "duration": 5, "velocity": 101}, {"time": 2009, "pitch": 67, "duration": 4, "velocity": 96}, {"time": 2021, "pitch": 60, "duration": 2, "velocity": 76}, {"time": 2021, "pitch": 63, "duration": 8, "velocity": 110}, {"time": 2021, "pitch": 67, "duration": 9, "velocity": 96}, {"time": 2027, "pitch": 60, "duration": 5, "velocity": 73}, {"time": 2033, "pitch": 48, "duration": 14, "velocity": 101}, {"time": 2039, "pitch": 55, "duration": 6, "velocity": 56}, {"time": 2045, "pitch": 63, "duration": 6, "velocity": 110}, {"time": 2045, "pitch": 67, "duration": 7, "velocity": 99}, {"time": 2051, "pitch": 60, "duration": 5, "velocity": 74}, {"time": 2057, "pitch": 43, "duration": 14, "velocity": 91}, {"time": 2063, "pitch": 50, "duration": 7, "velocity": 61}, {"time": 2069, "pitch": 58, "duration": 3, "velocity": 110}, {"time": 2069, "pitch": 62, "duration": 3, "velocity": 101}, {"time": 2081, "pitch": 39, "duration": 2, "velocity": 101}, {"time": 2081, "pitch": 51, "duration": 3, "velocity": 77}, {"time": 2081, "pitch": 55, "duration": 3, "velocity": 96}, {"time": 2081, "pitch": 58, "duration": 4, "velocity": 77}, {"time": 2093, "pitch": 41, "duration": 3, "velocity": 101}, {"time": 2093, "pitch": 53, "duration": 4, "velocity": 96}, {"time": 2093, "pitch": 57, "duration": 4, "velocity": 101}, {"time": 2105, "pitch": 43, "duration": 11, "velocity": 99}, {"time": 2105, "pitch": 55, "duration": 6, "velocity": 89}, {"time": 2105, "pitch": 58, "duration": 5, "velocity": 79}, {"time": 2105, "pitch": 62, "duration": 6, "velocity": 104}, {"time": 2117, "pitch": 48, "duration": 6, "velocity": 85}, {"time": 2117, "pitch": 55, "duration": 5, "velocity": 94}, {"time": 2117, "pitch": 60, "duration": 5, "velocity": 96}, {"time": 2129, "pitch": 44, "duration": 16, "velocity": 110}, {"time": 2129, "pitch": 56, "duration": 10, "velocity": 99}, {"time": 2129, "pitch": 60, "duration": 7, "velocity": 99}, {"time": 2135, "pitch": 51, "duration": 9, "velocity": 61}, {"time": 2141, "pitch": 56, "duration": 3, "velocity": 107}, {"time": 2141, "pitch": 60, "duration": 6, "velocity": 91}, {"time": 2141, "pitch": 63, "duration": 7, "velocity": 104}, {"time": 2147, "pitch": 56, "duration": 2, "velocity": 96}, {"time": 2153, "pitch": 44, "duration": 22, "velocity": 107}, {"time": 2153, "pitch": 56, "duration": 10, "velocity": 74}, {"time": 2153, "pitch": 63, "duration": 10, "velocity": 55}, {"time": 2159, "pitch": 51, "duration": 16, "velocity": 93}, {"time": 2165, "pitch": 60, "duration": 10, "velocity": 101}, {"time": 2165, "pitch": 63, "duration": 11, "velocity": 110}, {"time": 2171, "pitch": 56, "duration": 5, "velocity": 99}, {"time": 2177, "pitch": 39, "duration": 16, "velocity": 101}, {"time": 2177, "pitch": 55, "duration": 12, "velocity": 85}, {"time": 2177, "pitch": 58, "duration": 8, "velocity": 93}, {"time": 2183, "pitch": 46, "duration": 9, "velocity": 44}, {"time": 2189, "pitch": 58, "duration": 7, "velocity": 117}, {"time": 2189, "pitch": 63, "duration": 8, "velocity": 110}, {"time": 2195, "pitch": 55, "duration": 3, "velocity": 74}, {"time": 2201, "pitch": 43, "duration": 19, "velocity": 99}, {"time": 2201, "pitch": 55, "duration": 10, "velocity": 85}, {"time": 2201, "pitch": 59, "duration": 6, "velocity": 96}, {"time": 2207, "pitch": 50, "duration": 10, "velocity": 71}, {"time": 2213, "pitch": 59, "duration": 7, "velocity": 112}, {"time": 2213, "pitch": 62, "duration": 10, "velocity": 106}, {"time": 2213, "pitch": 67, "duration": 9, "velocity": 96}, {"time": 2219, "pitch": 55, "duration": 4, "velocity": 112}, {"time": 2225, "pitch": 48, "duration": 16, "velocity": 96}, {"time": 2225, "pitch": 55, "duration": 4, "velocity": 106}, {"time": 2225, "pitch": 60, "duration": 8, "velocity": 99}, {"time": 2231, "pitch": 55, "duration": 7, "velocity": 87}, {"time": 2237, "pitch": 60, "duration": 7, "velocity": 109}, {"time": 2237, "pitch": 63, "duration": 7, "velocity": 113}, {"time": 2243, "pitch": 55, "duration": 5, "velocity": 69}, {"time": 2249, "pitch": 43, "duration": 23, "velocity": 101}, {"time": 2249, "pitch": 55, "duration": 9, "velocity": 89}, {"time": 2249, "pitch": 58, "duration": 7, "velocity": 99}, {"time": 2255, "pitch": 50, "duration": 17, "velocity": 78}, {"time": 2261, "pitch": 58, "duration": 11, "velocity": 113}, {"time": 2261, "pitch": 62, "duration": 11, "velocity": 104}, {"time": 2267, "pitch": 55, "duration": 5, "velocity": 106}, {"time": 2273, "pitch": 39, "duration": 7, "velocity": 117}, {"time": 2273, "pitch": 51, "duration": 2, "velocity": 49}, {"time": 2273, "pitch": 55, "duration": 5, "velocity": 74}, {"time": 2279, "pitch": 46, "duration": 2, "velocity": 47}, {"time": 2285, "pitch": 41, "duration": 6, "velocity": 106}, {"time": 2285, "pitch": 53, "duration": 6, "velocity": 104}, {"time": 2285, "pitch": 57, "duration": 6, "velocity": 106}, {"time": 2297, "pitch": 43, "duration": 8, "velocity": 104}, {"time": 2297, "pitch": 55, "duration": 7, "velocity": 94}, {"time": 2297, "pitch": 62, "duration": 7, "velocity": 106}, {"time": 2309, "pitch": 48, "duration": 6, "velocity": 99}, {"time": 2309, "pitch": 55, "duration": 3, "velocity": 91}, {"time": 2309, "pitch": 60, "duration": 6, "velocity": 99}, {"time": 2315, "pitch": 55, "duration": 2, "velocity": 99}, {"time": 2321, "pitch": 44, "duration": 39, "velocity": 110}, {"time": 2321, "pitch": 56, "duration": 10, "velocity": 96}, {"time": 2321, "pitch": 60, "duration": 6, "velocity": 94}, {"time": 2321, "pitch": 63, "duration": 7, "velocity": 91}, {"time": 2327, "pitch": 51, "duration": 20, "velocity": 63}, {"time": 2333, "pitch": 60, "duration": 5, "velocity": 104}, {"time": 2333, "pitch": 63, "duration": 5, "velocity": 117}, {"time": 2345, "pitch": 56, "duration": 5, "velocity": 104}, {"time": 2345, "pitch": 60, "duration": 5, "velocity": 89}, {"time": 2345, "pitch": 63, "duration": 5, "velocity": 104}, {"time": 2351, "pitch": 51, "duration": 9, "velocity": 46}, {"time": 2357, "pitch": 56, "duration": 3, "velocity": 113}, {"time": 2357, "pitch": 60, "duration": 3, "velocity": 96}, {"time": 2357, "pitch": 63, "duration": 3, "velocity": 110}, {"time": 2363, "pitch": 44, "duration": 2, "velocity": 110}, {"time": 2369, "pitch": 48, "duration": 47, "velocity": 101}, {"time": 2369, "pitch": 60, "duration": 10, "velocity": 89}, {"time": 2369, "pitch": 63, "duration": 7, "velocity": 99}, {"time": 2375, "pitch": 55, "duration": 7, "velocity": 47}, {"time": 2381, "pitch": 63, "duration": 7, "velocity": 110}, {"time": 2381, "pitch": 67, "duration": 6, "velocity": 99}, {"time": 2387, "pitch": 55, "duration": 7, "velocity": 38}, {"time": 2393, "pitch": 60, "duration": 7, "velocity": 89}, {"time": 2393, "pitch": 63, "duration": 8, "velocity": 104}, {"time": 2399, "pitch": 55, "duration": 8, "velocity": 54}, {"time": 2405, "pitch": 60, "duration": 11, "velocity": 104}, {"time": 2405, "pitch": 63, "duration": 12, "velocity": 117}, {"time": 2405, "pitch": 67, "duration": 11, "velocity": 104}, {"time": 2411, "pitch": 55, "duration": 6, "velocity": 64}, {"time": 2417, "pitch": 41, "duration": 16, "velocity": 106}, {"time": 2417, "pitch": 53, "duration": 7, "velocity": 96}, {"time": 2417, "pitch": 56, "duration": 7, "velocity": 83}, {"time": 2417, "pitch": 60, "duration": 8, "velocity": 96}, {"time": 2423, "pitch": 48, "duration": 8, "velocity": 74}, {"time": 2429, "pitch": 56, "duration": 4, "velocity": 120}, {"time": 2429, "pitch": 60, "duration": 5, "velocity": 109}, {"time": 2435, "pitch": 41, "duration": 4, "velocity": 104}, {"time": 2441, "pitch": 43, "duration": 18, "velocity": 106}, {"time": 2441, "pitch": 55, "duration": 6, "velocity": 89}, {"time": 2441, "pitch": 58, "duration": 5, "velocity": 101}, {"time": 2441, "pitch": 62, "duration": 5, "velocity": 106}, {"time": 2447, "pitch": 50, "duration": 8, "velocity": 85}, {"time": 2453, "pitch": 58, "duration": 11, "velocity": 117}, {"time": 2453, "pitch": 62, "duration": 11, "velocity": 109}, {"time": 2453, "pitch": 67, "duration": 11, "velocity": 96}, {"time": 2459, "pitch": 55, "duration": 5, "velocity": 104}, {"time": 2465, "pitch": 46, "duration": 14, "velocity": 113}, {"time": 2465, "pitch": 58, "duration": 10, "velocity": 107}, {"time": 2465, "pitch": 62, "duration": 8, "velocity": 109}, {"time": 2471, "pitch": 53, "duration": 7, "velocity": 89}, {"time": 2477, "pitch": 58, "duration": 3, "velocity": 110}, {"time": 2477, "pitch": 62, "duration": 6, "velocity": 106}, {"time": 2477, "pitch": 65, "duration": 7, "velocity": 106}, {"time": 2483, "pitch": 58, "duration": 2, "velocity": 113}, {"time": 2489, "pitch": 48, "duration": 13, "velocity": 101}, {"time": 2489, "pitch": 60, "duration": 9, "velocity": 94}, {"time": 2489, "pitch": 63, "duration": 8, "velocity": 104}, {"time": 2489, "pitch": 67, "duration": 7, "velocity": 96}, {"time": 2495, "pitch": 55, "duration": 7, "velocity": 73}, {"time": 2501, "pitch": 60, "duration": 3, "velocity": 99}, {"time": 2501, "pitch": 63, "duration": 7, "velocity": 120}, {"time": 2501, "pitch": 67, "duration": 7, "velocity": 104}, {"time": 2507, "pitch": 60, "duration": 2, "velocity": 104}, {"time": 2513, "pitch": 44, "duration": 13, "velocity": 107}, {"time": 2513, "pitch": 56, "duration": 10, "velocity": 104}, {"time": 2513, "pitch": 60, "duration": 7, "velocity": 94}, {"time": 2513, "pitch": 63, "duration": 8, "velocity": 101}, {"time": 2519, "pitch": 51, "duration": 7, "velocity": 50}, {"time": 2525, "pitch": 56, "duration": 2, "velocity": 117}, {"time": 2525, "pitch": 60, "duration": 5, "velocity": 106}, {"time": 2525, "pitch": 63, "duration": 7, "velocity": 117}, {"time": 2537, "pitch": 48, "duration": 15, "velocity": 101}, {"time": 2537, "pitch": 60, "duration": 9, "velocity": 94}, {"time": 2537, "pitch": 63, "duration": 8, "velocity": 99}, {"time": 2543, "pitch": 55, "duration": 7, "velocity": 42}, {"time": 2549, "pitch": 60, "duration": 3, "velocity": 101}, {"time": 2549, "pitch": 63, "duration": 6, "velocity": 120}, {"time": 2549, "pitch": 67, "duration": 7, "velocity": 104}, {"time": 2561, "pitch": 43, "duration": 18, "velocity": 104}, {"time": 2561, "pitch": 55, "duration": 10, "velocity": 91}, {"time": 2561, "pitch": 58, "duration": 7, "velocity": 104}, {"time": 2561, "pitch": 62, "duration": 7, "velocity": 104}, {"time": 2567, "pitch": 50, "duration": 10, "velocity": 76}, {"time": 2573, "pitch": 58, "duration": 7, "velocity": 120}, {"time": 2573, "pitch": 62, "duration": 7, "velocity": 109}, {"time": 2579, "pitch": 55, "duration": 3, "velocity": 99}, {"time": 2585, "pitch": 41, "duration": 16, "velocity": 101}, {"time": 2585, "pitch": 53, "duration": 10, "velocity": 99}, {"time": 2585, "pitch": 56, "duration": 9, "velocity": 91}, {"time": 2591, "pitch": 48, "duration": 8, "velocity": 76}, {"time": 2597, "pitch": 56, "duration": 6, "velocity": 120}, {"time": 2597, "pitch": 60, "duration": 6, "velocity": 109}, {"time": 2603, "pitch": 53, "duration": 5, "velocity": 99}, {"time": 2609, "pitch": 46, "duration": 17, "velocity": 96}, {"time": 2609, "pitch": 58, "duration": 4, "velocity": 113}, {"time": 2609, "pitch": 62, "duration": 4, "velocity": 106}, {"time": 2615, "pitch": 53, "duration": 8, "velocity": 45}, {"time": 2621, "pitch": 58, "duration": 4, "velocity": 120}, {"time": 2621, "pitch": 62, "duration": 4, "velocity": 112}, {"time": 2633, "pitch": 39, "duration": 5, "velocity": 113}, {"time": 2633, "pitch": 55, "duration": 7, "velocity": 99}, {"time": 2633, "pitch": 58, "duration": 6, "velocity": 117}, {"time": 2633, "pitch": 63, "duration": 6, "velocity": 113}, {"time": 2645, "pitch": 43, "duration": 9, "velocity": 106}, {"time": 2645, "pitch": 55, "duration": 4, "velocity": 112}, {"time": 2645, "pitch": 59, "duration": 4, "velocity": 112}, {"time": 2645, "pitch": 62, "duration": 4, "velocity": 112}, {"time": 2648, "pitch": 50, "duration": 6, "velocity": 99}, {"time": 2651, "pitch": 55, "duration": 4, "velocity": 112}, {"time": 2657, "pitch": 48, "duration": 16, "velocity": 106}, {"time": 2657, "pitch": 55, "duration": 4, "velocity": 112}, {"time": 2657, "pitch": 60, "duration": 9, "velocity": 112}, {"time": 2663, "pitch": 55, "duration": 4, "velocity": 96}, {"time": 2669, "pitch": 55, "duration": 3, "velocity": 106}, {"time": 2669, "pitch": 60, "duration": 6, "velocity": 109}, {"time": 2669, "pitch": 63, "duration": 6, "velocity": 110}, {"time": 2675, "pitch": 55, "duration": 2, "velocity": 104}, {"time": 2681, "pitch": 41, "duration": 16, "velocity": 106}, {"time": 2681, "pitch": 53, "duration": 11, "velocity": 99}, {"time": 2681, "pitch": 56, "duration": 7, "velocity": 99}, {"time": 2681, "pitch": 60, "duration": 5, "velocity": 101}, {"time": 2687, "pitch": 48, "duration": 9, "velocity": 74}, {"time": 2693, "pitch": 56, "duration": 7, "velocity": 120}, {"time": 2693, "pitch": 60, "duration": 9, "velocity": 109}, {"time": 2699, "pitch": 53, "duration": 2, "velocity": 109}, {"time": 2705, "pitch": 43, "duration": 17, "velocity": 106}, {"time": 2705, "pitch": 55, "duration": 8, "velocity": 106}, {"time": 2705, "pitch": 62, "duration": 9, "velocity": 106}, {"time": 2711, "pitch": 50, "duration": 8, "velocity": 76}, {"time": 2717, "pitch": 55, "duration": 4, "velocity": 112}, {"time": 2717, "pitch": 62, "duration": 7, "velocity": 109}, {"time": 2717, "pitch": 67, "duration": 7, "velocity": 104}, {"time": 2723, "pitch": 55, "duration": 4, "velocity": 96}, {"time": 2729, "pitch": 48, "duration": 17, "velocity": 99}, {"time": 2729, "pitch": 55, "duration": 3, "velocity": 109}, {"time": 2729, "pitch": 60, "duration": 9, "velocity": 104}, {"time": 2735, "pitch": 55, "duration": 4, "velocity": 99}, {"time": 2741, "pitch": 55, "duration": 3, "velocity": 106}, {"time": 2741, "pitch": 60, "duration": 3, "velocity": 109}, {"time": 2741, "pitch": 63, "duration": 4, "velocity": 117}, {"time": 2753, "pitch": 41, "duration": 15, "velocity": 106}, {"time": 2753, "pitch": 60, "duration": 4, "velocity": 101}, {"time": 2753, "pitch": 65, "duration": 10, "velocity": 104}, {"time": 2759, "pitch": 60, "duration": 4, "velocity": 82}, {"time": 2765, "pitch": 60, "duration": 3, "velocity": 109}, {"time": 2765, "pitch": 65, "duration": 7, "velocity": 112}, {"time": 2765, "pitch": 68, "duration": 7, "velocity": 117}, {"time": 2771, "pitch": 60, "duration": 2, "velocity": 99}, {"time": 2777, "pitch": 46, "duration": 17, "velocity": 107}, {"time": 2777, "pitch": 58, "duration": 9, "velocity": 104}, {"time": 2777, "pitch": 62, "duration": 8, "velocity": 109}, {"time": 2783, "pitch": 53, "duration": 10, "velocity": 66}, {"time": 2789, "pitch": 58, "duration": 4, "velocity": 113}, {"time": 2789, "pitch": 62, "duration": 4, "velocity": 109}, {"time": 2789, "pitch": 65, "duration": 5, "velocity": 106}, {"time": 2801, "pitch": 48, "duration": 21, "velocity": 106}, {"time": 2801, "pitch": 60, "duration": 10, "velocity": 104}, {"time": 2801, "pitch": 63, "duration": 7, "velocity": 113}, {"time": 2807, "pitch": 55, "duration": 9, "velocity": 69}, {"time": 2813, "pitch": 63, "duration": 5, "velocity": 120}, {"time": 2813, "pitch": 67, "duration": 5, "velocity": 109}, {"time": 2819, "pitch": 55, "duration": 8, "velocity": 52}, {"time": 2825, "pitch": 41, "duration": 16, "velocity": 106}, {"time": 2825, "pitch": 53, "duration": 7, "velocity": 96}, {"time": 2825, "pitch": 56, "duration": 7, "velocity": 83}, {"time": 2825, "pitch": 60, "duration": 8, "velocity": 96}, {"time": 2831, "pitch": 48, "duration": 8, "velocity": 74}, {"time": 2837, "pitch": 56, "duration": 4, "velocity": 120}, {"time": 2837, "pitch": 60, "duration": 5, "velocity": 109}, {"time": 2843, "pitch": 41, "duration": 4, "velocity": 104}, {"time": 2849, "pitch": 43, "duration": 18, "velocity": 106}, {"time": 2849, "pitch": 55, "duration": 6, "velocity": 89}, {"time": 2849, "pitch": 58, "duration": 5, "velocity": 101}, {"time": 2849, "pitch": 62, "duration": 5, "velocity": 106}, {"time": 2855, "pitch": 50, "duration": 8, "velocity": 85}, {"time": 2861, "pitch": 58, "duration": 11, "velocity": 117}, {"time": 2861, "pitch": 62, "duration": 11, "velocity": 109}, {"time": 2861, "pitch": 67, "duration": 11, "velocity": 96}, {"time": 2867, "pitch": 55, "duration": 5, "velocity": 104}, {"time": 2873, "pitch": 46, "duration": 14, "velocity": 113}, {"time": 2873, "pitch": 58, "duration": 10, "velocity": 107}, {"time": 2873, "pitch": 62, "duration": 8, "velocity": 109}, {"time": 2879, "pitch": 53, "duration": 7, "velocity": 89}, {"time": 2885, "pitch": 58, "duration": 3, "velocity": 110}, {"time": 2885, "pitch": 62, "duration": 6, "velocity": 106}, {"time": 2885, "pitch": 65, "duration": 7, "velocity": 106}, {"time": 2891, "pitch": 58, "duration": 2, "velocity": 113}, {"time": 2897, "pitch": 48, "duration": 13, "velocity": 101}, {"time": 2897, "pitch": 60, "duration": 9, "velocity": 94}, {"time": 2897, "pitch": 63, "duration": 8, "velocity": 104}, {"time": 2897, "pitch": 67, "duration": 7, "velocity": 96}, {"time": 2903, "pitch": 55, "duration": 7, "velocity": 73}, {"time": 2909, "pitch": 60, "duration": 3, "velocity": 99}, {"time": 2909, "pitch": 63, "duration": 7, "velocity": 120}, {"time": 2909, "pitch": 67, "duration": 7, "velocity": 104}, {"time": 2915, "pitch": 60, "duration": 2, "velocity": 104}, {"time": 2921, "pitch": 44, "duration": 13, "velocity": 107}, {"time": 2921, "pitch": 56, "duration": 10, "velocity": 104}, {"time": 2921, "pitch": 60, "duration": 7, "velocity": 94}, {"time": 2921, "pitch": 63, "duration": 8, "velocity": 101}, {"time": 2927, "pitch": 51, "duration": 7, "velocity": 50}, {"time": 2933, "pitch": 56, "duration": 2, "velocity": 117}, {"time": 2933, "pitch": 60, "duration": 5, "velocity": 106}, {"time": 2933, "pitch": 63, "duration": 7, "velocity": 117}, {"time": 2945, "pitch": 48, "duration": 15, "velocity": 101}, {"time": 2945, "pitch": 60, "duration": 9, "velocity": 94}, {"time": 2945, "pitch": 63, "duration": 8, "velocity": 99}, {"time": 2951, "pitch": 55, "duration": 7, "velocity": 42}, {"time": 2957, "pitch": 60, "duration": 3, "velocity": 101}, {"time": 2957, "pitch": 63, "duration": 6, "velocity": 120}, {"time": 2957, "pitch": 67, "duration": 7, "velocity": 104}, {"time": 2969, "pitch": 43, "duration": 18, "velocity": 104}, {"time": 2969, "pitch": 55, "duration": 10, "velocity": 91}, {"time": 2969, "pitch": 58, "duration": 7, "velocity": 104}, {"time": 2969, "pitch": 62, "duration": 7, "velocity": 104}, {"time": 2975, "pitch": 50, "duration": 10, "velocity": 76}, {"time": 2981, "pitch": 58, "duration": 7, "velocity": 120}, {"time": 2981, "pitch": 62, "duration": 7, "velocity": 109}, {"time": 2987, "pitch": 55, "duration": 3, "velocity": 99}, {"time": 2993, "pitch": 41, "duration": 16, "velocity": 101}, {"time": 2993, "pitch": 53, "duration": 10, "velocity": 99}, {"time": 2993, "pitch": 56, "duration": 9, "velocity": 91}, {"time": 2999, "pitch": 48, "duration": 8, "velocity": 76}, {"time": 3005, "pitch": 56, "duration": 6, "velocity": 120}, {"time": 3005, "pitch": 60, "duration": 6, "velocity": 109}, {"time": 3011, "pitch": 53, "duration": 5, "velocity": 99}, {"time": 3017, "pitch": 46, "duration": 17, "velocity": 96}, {"time": 3017, "pitch": 58, "duration": 4, "velocity": 113}, {"time": 3017, "pitch": 62, "duration": 4, "velocity": 106}, {"time": 3023, "pitch": 53, "duration": 8, "velocity": 45}, {"time": 3029, "pitch": 58, "duration": 4, "velocity": 120}, {"time": 3029, "pitch": 62, "duration": 4, "velocity": 112}, {"time": 3041, "pitch": 39, "duration": 5, "velocity": 113}, {"time": 3041, "pitch": 55, "duration": 7, "velocity": 99}, {"time": 3041, "pitch": 58, "duration": 6, "velocity": 117}, {"time": 3041, "pitch": 63, "duration": 6, "velocity": 113}, {"time": 3053, "pitch": 43, "duration": 9, "velocity": 106}, {"time": 3053, "pitch": 55, "duration": 4, "velocity": 112}, {"time": 3053, "pitch": 59, "duration": 4, "velocity": 112}, {"time": 3053, "pitch": 62, "duration": 4, "velocity": 112}, {"time": 3056, "pitch": 50, "duration": 6, "velocity": 99}, {"time": 3059, "pitch": 55, "duration": 4, "velocity": 112}, {"time": 3065, "pitch": 48, "duration": 16, "velocity": 106}, {"time": 3065, "pitch": 55, "duration": 4, "velocity": 112}, {"time": 3065, "pitch": 60, "duration": 9, "velocity": 112}, {"time": 3071, "pitch": 55, "duration": 4, "velocity": 96}, {"time": 3077, "pitch": 55, "duration": 3, "velocity": 106}, {"time": 3077, "pitch": 60, "duration": 6, "velocity": 109}, {"time": 3077, "pitch": 63, "duration": 6, "velocity": 110}, {"time": 3083, "pitch": 55, "duration": 2, "velocity": 104}, {"time": 3089, "pitch": 41, "duration": 16, "velocity": 106}, {"time": 3089, "pitch": 53, "duration": 11, "velocity": 99}, {"time": 3089, "pitch": 56, "duration": 7, "velocity": 99}, {"time": 3089, "pitch": 60, "duration": 5, "velocity": 101}, {"time": 3095, "pitch": 48, "duration": 9, "velocity": 74}, {"time": 3101, "pitch": 56, "duration": 7, "velocity": 120}, {"time": 3101, "pitch": 60, "duration": 9, "velocity": 109}, {"time": 3107, "pitch": 53, "duration": 2, "velocity": 109}, {"time": 3113, "pitch": 43, "duration": 17, "velocity": 106}, {"time": 3113, "pitch": 55, "duration": 8, "velocity": 106}, {"time": 3113, "pitch": 62, "duration": 9, "velocity": 106}, {"time": 3119, "pitch": 50, "duration": 8, "velocity": 76}, {"time": 3125, "pitch": 55, "duration": 4, "velocity": 112}, {"time": 3125, "pitch": 62, "duration": 7, "velocity": 109}, {"time": 3125, "pitch": 67, "duration": 7, "velocity": 104}, {"time": 3131, "pitch": 55, "duration": 4, "velocity": 96}, {"time": 3137, "pitch": 48, "duration": 17, "velocity": 99}, {"time": 3137, "pitch": 55, "duration": 3, "velocity": 109}, {"time": 3137, "pitch": 60, "duration": 9, "velocity": 104}, {"time": 3143, "pitch": 55, "duration": 4, "velocity": 99}, {"time": 3149, "pitch": 55, "duration": 3, "velocity": 106}, {"time": 3149, "pitch": 60, "duration": 3, "velocity": 109}, {"time": 3149, "pitch": 63, "duration": 4, "velocity": 117}, {"time": 3161, "pitch": 41, "duration": 15, "velocity": 106}, {"time": 3161, "pitch": 60, "duration": 4, "velocity": 101}, {"time": 3161, "pitch": 65, "duration": 10, "velocity": 104}, {"time": 3167, "pitch": 60, "duration": 4, "velocity": 82}, {"time": 3173, "pitch": 60, "duration": 3, "velocity": 109}, {"time": 3173, "pitch": 65, "duration": 7, "velocity": 112}, {"time": 3173, "pitch": 68, "duration": 7, "velocity": 117}, {"time": 3179, "pitch": 60, "duration": 2, "velocity": 99}, {"time": 3185, "pitch": 46, "duration": 17, "velocity": 107}, {"time": 3185, "pitch": 58, "duration": 9, "velocity": 104}, {"time": 3185, "pitch": 62, "duration": 8, "velocity": 109}, {"time": 3191, "pitch": 53, "duration": 10, "velocity": 66}, {"time": 3197, "pitch": 58, "duration": 4, "velocity": 113}, {"time": 3197, "pitch": 62, "duration": 4, "velocity": 109}, {"time": 3197, "pitch": 65, "duration": 5, "velocity": 106}, {"time": 3209, "pitch": 48, "duration": 21, "velocity": 106}, {"time": 3209, "pitch": 60, "duration": 10, "velocity": 104}, {"time": 3209, "pitch": 63, "duration": 7, "velocity": 113}, {"time": 3215, "pitch": 55, "duration": 9, "velocity": 69}, {"time": 3221, "pitch": 63, "duration": 5, "velocity": 120}, {"time": 3221, "pitch": 67, "duration": 5, "velocity": 109}, {"time": 3227, "pitch": 55, "duration": 8, "velocity": 52}, {"time": 3233, "pitch": 48, "duration": 21, "velocity": 106}, {"time": 3233, "pitch": 60, "duration": 10, "velocity": 104}, {"time": 3233, "pitch": 63, "duration": 7, "velocity": 113}, {"time": 3239, "pitch": 55, "duration": 9, "velocity": 69}, {"time": 3245, "pitch": 63, "duration": 5, "velocity": 120}, {"time": 3245, "pitch": 67, "duration": 5, "velocity": 109}, {"time": 3251, "pitch": 55, "duration": 8, "velocity": 52}, {"time": 3257, "pitch": 48, "duration": 37, "velocity": 99}, {"time": 3263, "pitch": 55, "duration": 7, "velocity": 55}, {"time": 3269, "pitch": 60, "duration": 12, "velocity": 99}, {"time": 3275, "pitch": 55, "duration": 16, "velocity": 42}, {"time": 3281, "pitch": 63, "duration": 19, "velocity": 77}, {"time": 3281, "pitch": 67, "duration": 21, "velocity": 91}, {"time": 3305, "pitch": 43, "duration": 39, "velocity": 91}, {"time": 3311, "pitch": 50, "duration": 8, "velocity": 32}, {"time": 3317, "pitch": 58, "duration": 30, "velocity": 91}, {"time": 3323, "pitch": 50, "duration": 20, "velocity": 55}, {"time": 3329, "pitch": 62, "duration": 18, "velocity": 106}, {"time": 3353, "pitch": 44, "duration": 13, "velocity": 107}, {"time": 3359, "pitch": 51, "duration": 7, "velocity": 86}, {"time": 3364, "pitch": 63, "duration": 12, "velocity": 99}, {"time": 3364, "pitch": 60, "duration": 8, "velocity": 94}, {"time": 3377, "pitch": 43, "duration": 16, "velocity": 104}, {"time": 3383, "pitch": 50, "duration": 8, "velocity": 89}, {"time": 3389, "pitch": 58, "duration": 14, "velocity": 110}, {"time": 3390, "pitch": 62, "duration": 16, "velocity": 106}, {"time": 3396, "pitch": 55, "duration": 8, "velocity": 85}, {"time": 3403, "pitch": 36, "duration": 2, "velocity": 96}, {"time": 3407, "pitch": 48, "duration": 66, "velocity": 96}, {"time": 3410, "pitch": 55, "duration": 25, "velocity": 76}, {"time": 3415, "pitch": 60, "duration": 8, "velocity": 109}, {"time": 3420, "pitch": 67, "duration": 4, "velocity": 101}, {"time": 3424, "pitch": 72, "duration": 2, "velocity": 104}, {"time": 3430, "pitch": 79, "duration": 4, "velocity": 89}, {"time": 3431, "pitch": 72, "duration": 3, "velocity": 17}, {"time": 3437, "pitch": 72, "duration": 14, "velocity": 73}, {"time": 3437, "pitch": 55, "duration": 15, "velocity": 47}, {"time": 3439, "pitch": 84, "duration": 8, "velocity": 99}, {"time": 3446, "pitch": 79, "duration": 7, "velocity": 42}], "annotations": [{"time": 21, "annotation": {"number": 64, "value": 127}, "group": "control_change"}, {"time": 66, "annotation": {"number": 64, "value": 0}, "group": "control_change"}, {"time": 74, "annotation": {"number": 64, "value": 127}, "group": "control_change"}, {"time": 114, "annotation": {"number": 64, "value": 0}, "group": "control_change"}, {"time": 124, "annotation": {"number": 64, "value": 127}, "group": "control_change"}, {"time": 136, "annotation": {"number": 64, "value": 0}, "group": "control_change"}, {"time": 143, "annotation": {"number": 64, "value": 127}, "group": "control_change"}, {"time": 162, "annotation": {"number": 64, "value": 0}, "group": "control_change"}, {"time": 169, "annotation": {"number": 64, "value": 127}, "group": "control_change"}, {"time": 207, "annotation": {"number": 64, "value": 0}, "group": "control_change"}, {"time": 210, "annotation": {"number": 64, "value": 127}, "group": "control_change"}, {"time": 236, "annotation": {"number": 64, "value": 0}, "group": "control_change"}, {"time": 239, "annotation": {"number": 64, "value": 127}, "group": "control_change"}, {"time": 257, "annotation": {"number": 64, "value": 0}, "group": "control_change"}, {"time": 264, "annotation": {"number": 64, "value": 127}, "group": "control_change"}, {"time": 305, "annotation": {"number": 64, "value": 0}, "group": "control_change"}, {"time": 312, "annotation": {"number": 64, "value": 127}, "group": "control_change"}, {"time": 336, "annotation": {"number": 64, "value": 0}, "group": "control_change"}, {"time": 346, "annotation": {"number": 64, "value": 127}, "group": "control_change"}, {"time": 353, "annotation": {"number": 64, "value": 0}, "group": "control_change"}, {"time": 357, "annotation": {"number": 64, "value": 127}, "group": "control_change"}, {"time": 402, "annotation": {"number": 64, "value": 0}, "group": "control_change"}, {"time": 408, "annotation": {"number": 64, "value": 127}, "group": "control_change"}, {"time": 448, "annotation": {"number": 64, "value": 0}, "group": "control_change"}, {"time": 452, "annotation": {"number": 64, "value": 127}, "group": "control_change"}, {"time": 474, "annotation": {"number": 64, "value": 0}, "group": "control_change"}, {"time": 478, "annotation": {"number": 64, "value": 127}, "group": "control_change"}, {"time": 495, "annotation": {"number": 64, "value": 0}, "group": "control_change"}, {"time": 498, "annotation": {"number": 64, "value": 127}, "group": "control_change"}, {"time": 508, "annotation": {"number": 64, "value": 0}, "group": "control_change"}, {"time": 510, "annotation": {"number": 64, "value": 127}, "group": "control_change"}, {"time": 521, "annotation": {"number": 64, "value": 0}, "group": "control_change"}, {"time": 522, "annotation": {"number": 64, "value": 127}, "group": "control_change"}, {"time": 530, "annotation": {"number": 64, "value": 0}, "group": "control_change"}, {"time": 535, "annotation": {"number": 64, "value": 127}, "group": "control_change"}, {"time": 543, "annotation": {"number": 64, "value": 0}, "group": "control_change"}, {"time": 548, "annotation": {"number": 64, "value": 127}, "group": "control_change"}, {"time": 569, "annotation": {"number": 64, "value": 0}, "group": "control_change"}, {"time": 575, "annotation": {"number": 64, "value": 127}, "group": "control_change"}, {"time": 592, "annotation": {"number": 64, "value": 0}, "group": "control_change"}, {"time": 598, "annotation": {"number": 64, "value": 127}, "group": "control_change"}, {"time": 618, "annotation": {"number": 64, "value": 0}, "group": "control_change"}, {"time": 623, "annotation": {"number": 64, "value": 127}, "group": "control_change"}, {"time": 640, "annotation": {"number": 64, "value": 0}, "group": "control_change"}, {"time": 645, "annotation": {"number": 64, "value": 127}, "group": "control_change"}, {"time": 664, "annotation": {"number": 64, "value": 0}, "group": "control_change"}, {"time": 667, "annotation": {"number": 64, "value": 127}, "group": "control_change"}, {"time": 687, "annotation": {"number": 64, "value": 0}, "group": "control_change"}, {"time": 691, "annotation": {"number": 64, "value": 127}, "group": "control_change"}, {"time": 700, "annotation": {"number": 64, "value": 0}, "group": "control_change"}, {"time": 702, "annotation": {"number": 64, "value": 127}, "group": "control_change"}, {"time": 712, "annotation": {"number": 64, "value": 0}, "group": "control_change"}, {"time": 715, "annotation": {"number": 64, "value": 127}, "group": "control_change"}, {"time": 724, "annotation": {"number": 64, "value": 0}, "group": "control_change"}, {"time": 726, "annotation": {"number": 64, "value": 127}, "group": "control_change"}, {"time": 736, "annotation": {"number": 64, "value": 0}, "group": "control_change"}, {"time": 742, "annotation": {"number": 64, "value": 127}, "group": "control_change"}, {"time": 784, "annotation": {"number": 64, "value": 0}, "group": "control_change"}, {"time": 788, "annotation": {"number": 64, "value": 127}, "group": "control_change"}, {"time": 832, "annotation": {"number": 64, "value": 0}, "group": "control_change"}, {"time": 836, "annotation": {"number": 64, "value": 127}, "group": "control_change"}, {"time": 858, "annotation": {"number": 64, "value": 0}, "group": "control_change"}, {"time": 862, "annotation": {"number": 64, "value": 127}, "group": "control_change"}, {"time": 879, "annotation": {"number": 64, "value": 0}, "group": "control_change"}, {"time": 882, "annotation": {"number": 64, "value": 127}, "group": "control_change"}, {"time": 892, "annotation": {"number": 64, "value": 0}, "group": "control_change"}, {"time": 894, "annotation": {"number": 64, "value": 127}, "group": "control_change"}, {"time": 905, "annotation": {"number": 64, "value": 0}, "group": "control_change"}, {"time": 906, "annotation": {"number": 64, "value": 127}, "group": "control_change"}, {"time": 914, "annotation": {"number": 64, "value": 0}, "group": "control_change"}, {"time": 919, "annotation": {"number": 64, "value": 127}, "group": "control_change"}, {"time": 927, "annotation": {"number": 64, "value": 0}, "group": "control_change"}, {"time": 932, "annotation": {"number": 64, "value": 127}, "group": "control_change"}, {"time": 953, "annotation": {"number": 64, "value": 0}, "group": "control_change"}, {"time": 982, "annotation": {"number": 64, "value": 127}, "group": "control_change"}, {"time": 1002, "annotation": {"number": 64, "value": 0}, "group": "control_change"}, {"time": 1007, "annotation": {"number": 64, "value": 127}, "group": "control_change"}, {"time": 1024, "annotation": {"number": 64, "value": 0}, "group": "control_change"}, {"time": 1029, "annotation": {"number": 64, "value": 127}, "group": "control_change"}, {"time": 1048, "annotation": {"number": 64, "value": 0}, "group": "control_change"}, {"time": 1051, "annotation": {"number": 64, "value": 127}, "group": "control_change"}, {"time": 1071, "annotation": {"number": 64, "value": 0}, "group": "control_change"}, {"time": 1075, "annotation": {"number": 64, "value": 127}, "group": "control_change"}, {"time": 1084, "annotation": {"number": 64, "value": 0}, "group": "control_change"}, {"time": 1086, "annotation": {"number": 64, "value": 127}, "group": "control_change"}, {"time": 1096, "annotation": {"number": 64, "value": 0}, "group": "control_change"}, {"time": 1099, "annotation": {"number": 64, "value": 127}, "group": "control_change"}, {"time": 1108, "annotation": {"number": 64, "value": 0}, "group": "control_change"}, {"time": 1110, "annotation": {"number": 64, "value": 127}, "group": "control_change"}, {"time": 1120, "annotation": {"number": 64, "value": 0}, "group": "control_change"}, {"time": 1126, "annotation": {"number": 64, "value": 127}, "group": "control_change"}, {"time": 1168, "annotation": {"number": 64, "value": 0}, "group": "control_change"}, {"time": 1172, "annotation": {"number": 64, "value": 127}, "group": "control_change"}, {"time": 1216, "annotation": {"number": 64, "value": 0}, "group": "control_change"}, {"time": 1219, "annotation": {"number": 64, "value": 127}, "group": "control_change"}, {"time": 1240, "annotation": {"number": 64, "value": 0}, "group": "control_change"}, {"time": 1245, "annotation": {"number": 64, "value": 127}, "group": "control_change"}, {"time": 1262, "annotation": {"number": 64, "value": 0}, "group": "control_change"}, {"time": 1272, "annotation": {"number": 64, "value": 127}, "group": "control_change"}, {"time": 1288, "annotation": {"number": 64, "value": 0}, "group": "control_change"}, {"time": 1294, "annotation": {"number": 64, "value": 127}, "group": "control_change"}, {"time": 1314, "annotation": {"number": 64, "value": 0}, "group": "control_change"}, {"time": 1320, "annotation": {"number": 64, "value": 127}, "group": "control_change"}, {"time": 1337, "annotation": {"number": 64, "value": 0}, "group": "control_change"}, {"time": 1343, "annotation": {"number": 64, "value": 127}, "group": "control_change"}, {"time": 1360, "annotation": {"number": 64, "value": 0}, "group": "control_change"}, {"time": 1365, "annotation": {"number": 64, "value": 127}, "group": "control_change"}, {"time": 1384, "annotation": {"number": 64, "value": 0}, "group": "control_change"}, {"time": 1393, "annotation": {"number": 64, "value": 127}, "group": "control_change"}, {"time": 1408, "annotation": {"number": 64, "value": 0}, "group": "control_change"}, {"time": 1411, "annotation": {"number": 64, "value": 127}, "group": "control_change"}, {"time": 1432, "annotation": {"number": 64, "value": 0}, "group": "control_change"}, {"time": 1435, "annotation": {"number": 64, "value": 127}, "group": "control_change"}, {"time": 1443, "annotation": {"number": 64, "value": 0}, "group": "control_change"}, {"time": 1446, "annotation": {"number": 64, "value": 127}, "group": "control_change"}, {"time": 1456, "annotation": {"number": 64, "value": 0}, "group": "control_change"}, {"time": 1461, "annotation": {"number": 64, "value": 127}, "group": "control_change"}, {"time": 1480, "annotation": {"number": 64, "value": 0}, "group": "control_change"}, {"time": 1486, "annotation": {"number": 64, "value": 127}, "group": "control_change"}, {"time": 1505, "annotation": {"number": 64, "value": 0}, "group": "control_change"}, {"time": 1508, "annotation": {"number": 64, "value": 127}, "group": "control_change"}, {"time": 1528, "annotation": {"number": 64, "value": 0}, "group": "control_change"}, {"time": 1532, "annotation": {"number": 64, "value": 127}, "group": "control_change"}, {"time": 1552, "annotation": {"number": 64, "value": 0}, "group": "control_change"}, {"time": 1556, "annotation": {"number": 64, "value": 127}, "group": "control_change"}, {"time": 1577, "annotation": {"number": 64, "value": 0}, "group": "control_change"}, {"time": 1579, "annotation": {"number": 64, "value": 127}, "group": "control_change"}, {"time": 1600, "annotation": {"number": 64, "value": 0}, "group": "control_change"}, {"time": 1603, "annotation": {"number": 64, "value": 127}, "group": "control_change"}, {"time": 1649, "annotation": {"number": 64, "value": 0}, "group": "control_change"}, {"time": 1653, "annotation": {"number": 64, "value": 127}, "group": "control_change"}, {"time": 1698, "annotation": {"number": 64, "value": 0}, "group": "control_change"}, {"time": 1706, "annotation": {"number": 64, "value": 127}, "group": "control_change"}, {"time": 1746, "annotation": {"number": 64, "value": 0}, "group": "control_change"}, {"time": 1756, "annotation": {"number": 64, "value": 127}, "group": "control_change"}, {"time": 1768, "annotation": {"number": 64, "value": 0}, "group": "control_change"}, {"time": 1775, "annotation": {"number": 64, "value": 127}, "group": "control_change"}, {"time": 1794, "annotation": {"number": 64, "value": 0}, "group": "control_change"}, {"time": 1801, "annotation": {"number": 64, "value": 127}, "group": "control_change"}, {"time": 1839, "annotation": {"number": 64, "value": 0}, "group": "control_change"}, {"time": 1842, "annotation": {"number": 64, "value": 127}, "group": "control_change"}, {"time": 1868, "annotation": {"number": 64, "value": 0}, "group": "control_change"}, {"time": 1871, "annotation": {"number": 64, "value": 127}, "group": "control_change"}, {"time": 1889, "annotation": {"number": 64, "value": 0}, "group": "control_change"}, {"time": 1896, "annotation": {"number": 64, "value": 127}, "group": "control_change"}, {"time": 1937, "annotation": {"number": 64, "value": 0}, "group": "control_change"}, {"time": 1944, "annotation": {"number": 64, "value": 127}, "group": "control_change"}, {"time": 1968, "annotation": {"number": 64, "value": 0}, "group": "control_change"}, {"time": 1978, "annotation": {"number": 64, "value": 127}, "group": "control_change"}, {"time": 1985, "annotation": {"number": 64, "value": 0}, "group": "control_change"}, {"time": 1989, "annotation": {"number": 64, "value": 127}, "group": "control_change"}, {"time": 2036, "annotation": {"number": 64, "value": 127}, "group": "control_change"}, {"time": 2058, "annotation": {"number": 64, "value": 0}, "group": "control_change"}, {"time": 2062, "annotation": {"number": 64, "value": 127}, "group": "control_change"}, {"time": 2079, "annotation": {"number": 64, "value": 0}, "group": "control_change"}, {"time": 2082, "annotation": {"number": 64, "value": 127}, "group": "control_change"}, {"time": 2092, "annotation": {"number": 64, "value": 0}, "group": "control_change"}, {"time": 2094, "annotation": {"number": 64, "value": 127}, "group": "control_change"}, {"time": 2105, "annotation": {"number": 64, "value": 0}, "group": "control_change"}, {"time": 2106, "annotation": {"number": 64, "value": 127}, "group": "control_change"}, {"time": 2114, "annotation": {"number": 64, "value": 0}, "group": "control_change"}, {"time": 2119, "annotation": {"number": 64, "value": 127}, "group": "control_change"}, {"time": 2127, "annotation": {"number": 64, "value": 0}, "group": "control_change"}, {"time": 2132, "annotation": {"number": 64, "value": 127}, "group": "control_change"}, {"time": 2153, "annotation": {"number": 64, "value": 0}, "group": "control_change"}, {"time": 2182, "annotation": {"number": 64, "value": 127}, "group": "control_change"}, {"time": 2202, "annotation": {"number": 64, "value": 0}, "group": "control_change"}, {"time": 2207, "annotation": {"number": 64, "value": 127}, "group": "control_change"}, {"time": 2224, "annotation": {"number": 64, "value": 0}, "group": "control_change"}, {"time": 2229, "annotation": {"number": 64, "value": 127}, "group": "control_change"}, {"time": 2248, "annotation": {"number": 64, "value": 0}, "group": "control_change"}, {"time": 2251, "annotation": {"number": 64, "value": 127}, "group": "control_change"}, {"time": 2271, "annotation": {"number": 64, "value": 0}, "group": "control_change"}, {"time": 2275, "annotation": {"number": 64, "value": 127}, "group": "control_change"}, {"time": 2284, "annotation": {"number": 64, "value": 0}, "group": "control_change"}, {"time": 2286, "annotation": {"number": 64, "value": 127}, "group": "control_change"}, {"time": 2296, "annotation": {"number": 64, "value": 0}, "group": "control_change"}, {"time": 2299, "annotation": {"number": 64, "value": 127}, "group": "control_change"}, {"time": 2308, "annotation": {"number": 64, "value": 0}, "group": "control_change"}, {"time": 2310, "annotation": {"number": 64, "value": 127}, "group": "control_change"}, {"time": 2320, "annotation": {"number": 64, "value": 0}, "group": "control_change"}, {"time": 2326, "annotation": {"number": 64, "value": 127}, "group": "control_change"}, {"time": 2368, "annotation": {"number": 64, "value": 0}, "group": "control_change"}, {"time": 2372, "annotation": {"number": 64, "value": 127}, "group": "control_change"}, {"time": 2416, "annotation": {"number": 64, "value": 0}, "group": "control_change"}, {"time": 2419, "annotation": {"number": 64, "value": 127}, "group": "control_change"}, {"time": 2440, "annotation": {"number": 64, "value": 0}, "group": "control_change"}, {"time": 2445, "annotation": {"number": 64, "value": 127}, "group": "control_change"}, {"time": 2462, "annotation": {"number": 64, "value": 0}, "group": "control_change"}, {"time": 2472, "annotation": {"number": 64, "value": 127}, "group": "control_change"}, {"time": 2488, "annotation": {"number": 64, "value": 0}, "group": "control_change"}, {"time": 2494, "annotation": {"number": 64, "value": 127}, "group": "control_change"}, {"time": 2514, "annotation": {"number": 64, "value": 0}, "group": "control_change"}, {"time": 2520, "annotation": {"number": 64, "value": 127}, "group": "control_change"}, {"time": 2537, "annotation": {"number": 64, "value": 0}, "group": "control_change"}, {"time": 2543, "annotation": {"number": 64, "value": 127}, "group": "control_change"}, {"time": 2560, "annotation": {"number": 64, "value": 0}, "group": "control_change"}, {"time": 2565, "annotation": {"number": 64, "value": 127}, "group": "control_change"}, {"time": 2584, "annotation": {"number": 64, "value": 0}, "group": "control_change"}, {"time": 2593, "annotation": {"number": 64, "value": 127}, "group": "control_change"}, {"time": 2608, "annotation": {"number": 64, "value": 0}, "group": "control_change"}, {"time": 2611, "annotation": {"number": 64, "value": 127}, "group": "control_change"}, {"time": 2632, "annotation": {"number": 64, "value": 0}, "group": "control_change"}, {"time": 2635, "annotation": {"number": 64, "value": 127}, "group": "control_change"}, {"time": 2643, "annotation": {"number": 64, "value": 0}, "group": "control_change"}, {"time": 2646, "annotation": {"number": 64, "value": 127}, "group": "control_change"}, {"time": 2656, "annotation": {"number": 64, "value": 0}, "group": "control_change"}, {"time": 2661, "annotation": {"number": 64, "value": 127}, "group": "control_change"}, {"time": 2680, "annotation": {"number": 64, "value": 0}, "group": "control_change"}, {"time": 2686, "annotation": {"number": 64, "value": 127}, "group": "control_change"}, {"time": 2705, "annotation": {"number": 64, "value": 0}, "group": "control_change"}, {"time": 2708, "annotation": {"number": 64, "value": 127}, "group": "control_change"}, {"time": 2728, "annotation": {"number": 64, "value": 0}, "group": "control_change"}, {"time": 2732, "annotation": {"number": 64, "value": 127}, "group": "control_change"}, {"time": 2752, "annotation": {"number": 64, "value": 0}, "group": "control_change"}, {"time": 2756, "annotation": {"number": 64, "value": 127}, "group": "control_change"}, {"time": 2777, "annotation": {"number": 64, "value": 0}, "group": "control_change"}, {"time": 2779, "annotation": {"number": 64, "value": 127}, "group": "control_change"}, {"time": 2800, "annotation": {"number": 64, "value": 0}, "group": "control_change"}, {"time": 2803, "annotation": {"number": 64, "value": 127}, "group": "control_change"}, {"time": 2827, "annotation": {"number": 64, "value": 127}, "group": "control_change"}, {"time": 2848, "annotation": {"number": 64, "value": 0}, "group": "control_change"}, {"time": 2853, "annotation": {"number": 64, "value": 127}, "group": "control_change"}, {"time": 2870, "annotation": {"number": 64, "value": 0}, "group": "control_change"}, {"time": 2880, "annotation": {"number": 64, "value": 127}, "group": "control_change"}, {"time": 2896, "annotation": {"number": 64, "value": 0}, "group": "control_change"}, {"time": 2902, "annotation": {"number": 64, "value": 127}, "group": "control_change"}, {"time": 2922, "annotation": {"number": 64, "value": 0}, "group": "control_change"}, {"time": 2928, "annotation": {"number": 64, "value": 127}, "group": "control_change"}, {"time": 2945, "annotation": {"number": 64, "value": 0}, "group": "control_change"}, {"time": 2951, "annotation": {"number": 64, "value": 127}, "group": "control_change"}, {"time": 2968, "annotation": {"number": 64, "value": 0}, "group": "control_change"}, {"time": 2973, "annotation": {"number": 64, "value": 127}, "group": "control_change"}, {"time": 2992, "annotation": {"number": 64, "value": 0}, "group": "control_change"}, {"time": 3001, "annotation": {"number": 64, "value": 127}, "group": "control_change"}, {"time": 3016, "annotation": {"number": 64, "value": 0}, "group": "control_change"}, {"time": 3019, "annotation": {"number": 64, "value": 127}, "group": "control_change"}, {"time": 3040, "annotation": {"number": 64, "value": 0}, "group": "control_change"}, {"time": 3043, "annotation": {"number": 64, "value": 127}, "group": "control_change"}, {"time": 3051, "annotation": {"number": 64, "value": 0}, "group": "control_change"}, {"time": 3054, "annotation": {"number": 64, "value": 127}, "group": "control_change"}, {"time": 3064, "annotation": {"number": 64, "value": 0}, "group": "control_change"}, {"time": 3069, "annotation": {"number": 64, "value": 127}, "group": "control_change"}, {"time": 3088, "annotation": {"number": 64, "value": 0}, "group": "control_change"}, {"time": 3094, "annotation": {"number": 64, "value": 127}, "group": "control_change"}, {"time": 3113, "annotation": {"number": 64, "value": 0}, "group": "control_change"}, {"time": 3116, "annotation": {"number": 64, "value": 127}, "group": "control_change"}, {"time": 3136, "annotation": {"number": 64, "value": 0}, "group": "control_change"}, {"time": 3140, "annotation": {"number": 64, "value": 127}, "group": "control_change"}, {"time": 3160, "annotation": {"number": 64, "value": 0}, "group": "control_change"}, {"time": 3164, "annotation": {"number": 64, "value": 127}, "group": "control_change"}, {"time": 3185, "annotation": {"number": 64, "value": 0}, "group": "control_change"}, {"time": 3187, "annotation": {"number": 64, "value": 127}, "group": "control_change"}, {"time": 3208, "annotation": {"number": 64, "value": 0}, "group": "control_change"}, {"time": 3211, "annotation": {"number": 64, "value": 127}, "group": "control_change"}, {"time": 3235, "annotation": {"number": 64, "value": 127}, "group": "control_change"}, {"time": 3261, "annotation": {"number": 64, "value": 127}, "group": "control_change"}, {"time": 3306, "annotation": {"number": 64, "value": 0}, "group": "control_change"}, {"time": 3314, "annotation": {"number": 64, "value": 127}, "group": "control_change"}, {"time": 3361, "annotation": {"number": 64, "value": 127}, "group": "control_change"}, {"time": 3377, "annotation": {"number": 64, "value": 0}, "group": "control_change"}, {"time": 3381, "annotation": {"number": 64, "value": 127}, "group": "control_change"}, {"time": 3400, "annotation": {"number": 64, "value": 0}, "group": "control_change"}, {"time": 3402, "annotation": {"number": 64, "value": 127}, "group": "control_change"}, {"time": 3498, "annotation": {"number": 64, "value": 0}, "group": "control_change"}]}]}