{"metadata": {"schema_version": "0.2", "title": "None", "source_filename": "120.mid", "source_format": "midi"}, "resolution": 12, "tempos": [{"time": 0, "qpm": 63.000063000063}, {"time": 2555, "qpm": 62.00005993339127}, {"time": 2568, "qpm": 59.00006686674245}, {"time": 2580, "qpm": 58.00004253336452}, {"time": 2585, "qpm": 57.00008550012825}, {"time": 2592, "qpm": 55.00000458333371}, {"time": 3342, "qpm": 66.000066000066}, {"time": 3348, "qpm": 64.0}, {"time": 3360, "qpm": 61.00003456668625}, {"time": 3384, "qpm": 58.00004253336452}, {"time": 3408, "qpm": 56.000029866682596}], "time_signatures": [{"time": 0, "numerator": 1, "denominator": 4}], "tracks": [{"program": 4, "is_drum": false, "name": "MELODY", "notes": [{"time": 206, "pitch": 70, "duration": 4, "velocity": 112}, {"time": 212, "pitch": 63, "duration": 1, "velocity": 115}, {"time": 215, "pitch": 63, "duration": 1, "velocity": 106}, {"time": 218, "pitch": 63, "duration": 2, "velocity": 115}, {"time": 221, "pitch": 65, "duration": 1, "velocity": 115}, {"time": 224, "pitch": 66, "duration": 1, "velocity": 109}, {"time": 227, "pitch": 73, "duration": 1, "velocity": 104}, {"time": 230, "pitch": 68, "duration": 13, "velocity": 94}, {"time": 251, "pitch": 61, "duration": 1, "velocity": 112}, {"time": 254, "pitch": 63, "duration": 4, "velocity": 115}, {"time": 260, "pitch": 66, "duration": 4, "velocity": 115}, {"time": 266, "pitch": 68, "duration": 2, "velocity": 112}, {"time": 269, "pitch": 68, "duration": 7, "velocity": 112}, {"time": 278, "pitch": 70, "duration": 13, "velocity": 115}, {"time": 302, "pitch": 68, "duration": 4, "velocity": 112}, {"time": 308, "pitch": 68, "duration": 3, "velocity": 112}, {"time": 314, "pitch": 68, "duration": 2, "velocity": 112}, {"time": 317, "pitch": 70, "duration": 1, "velocity": 115}, {"time": 320, "pitch": 71, "duration": 1, "velocity": 120}, {"time": 323, "pitch": 70, "duration": 1, "velocity": 115}, {"time": 326, "pitch": 70, "duration": 4, "velocity": 112}, {"time": 332, "pitch": 66, "duration": 11, "velocity": 112}, {"time": 347, "pitch": 61, "duration": 1, "velocity": 109}, {"time": 350, "pitch": 63, "duration": 4, "velocity": 115}, {"time": 356, "pitch": 75, "duration": 3, "velocity": 112}, {"time": 362, "pitch": 73, "duration": 4, "velocity": 112}, {"time": 368, "pitch": 71, "duration": 2, "velocity": 117}, {"time": 371, "pitch": 68, "duration": 1, "velocity": 106}, {"time": 374, "pitch": 70, "duration": 19, "velocity": 112}, {"time": 398, "pitch": 70, "duration": 4, "velocity": 112}, {"time": 404, "pitch": 63, "duration": 1, "velocity": 109}, {"time": 407, "pitch": 63, "duration": 1, "velocity": 115}, {"time": 410, "pitch": 63, "duration": 1, "velocity": 112}, {"time": 413, "pitch": 65, "duration": 1, "velocity": 115}, {"time": 416, "pitch": 66, "duration": 1, "velocity": 112}, {"time": 419, "pitch": 70, "duration": 1, "velocity": 112}, {"time": 422, "pitch": 68, "duration": 13, "velocity": 112}, {"time": 446, "pitch": 63, "duration": 6, "velocity": 118}, {"time": 452, "pitch": 66, "duration": 3, "velocity": 118}, {"time": 457, "pitch": 66, "duration": 3, "velocity": 115}, {"time": 461, "pitch": 66, "duration": 3, "velocity": 115}, {"time": 465, "pitch": 68, "duration": 3, "velocity": 112}, {"time": 469, "pitch": 70, "duration": 20, "velocity": 112}, {"time": 494, "pitch": 68, "duration": 4, "velocity": 112}, {"time": 500, "pitch": 68, "duration": 1, "velocity": 109}, {"time": 503, "pitch": 68, "duration": 1, "velocity": 109}, {"time": 506, "pitch": 68, "duration": 1, "velocity": 115}, {"time": 509, "pitch": 70, "duration": 1, "velocity": 115}, {"time": 512, "pitch": 71, "duration": 1, "velocity": 117}, {"time": 515, "pitch": 70, "duration": 2, "velocity": 104}, {"time": 518, "pitch": 70, "duration": 4, "velocity": 118}, {"time": 524, "pitch": 68, "duration": 1, "velocity": 112}, {"time": 527, "pitch": 66, "duration": 7, "velocity": 112}, {"time": 536, "pitch": 63, "duration": 1, "velocity": 112}, {"time": 539, "pitch": 63, "duration": 1, "velocity": 118}, {"time": 542, "pitch": 75, "duration": 3, "velocity": 115}, {"time": 547, "pitch": 75, "duration": 2, "velocity": 115}, {"time": 551, "pitch": 75, "duration": 1, "velocity": 115}, {"time": 554, "pitch": 75, "duration": 2, "velocity": 115}, {"time": 558, "pitch": 73, "duration": 2, "velocity": 120}, {"time": 561, "pitch": 75, "duration": 2, "velocity": 118}, {"time": 565, "pitch": 77, "duration": 7, "velocity": 109}, {"time": 577, "pitch": 73, "duration": 3, "velocity": 115}, {"time": 581, "pitch": 70, "duration": 3, "velocity": 118}, {"time": 585, "pitch": 73, "duration": 3, "velocity": 115}, {"time": 590, "pitch": 75, "duration": 36, "velocity": 118}, {"time": 632, "pitch": 75, "duration": 1, "velocity": 106}, {"time": 635, "pitch": 77, "duration": 1, "velocity": 115}, {"time": 638, "pitch": 78, "duration": 4, "velocity": 115}, {"time": 644, "pitch": 78, "duration": 1, "velocity": 109}, {"time": 647, "pitch": 78, "duration": 1, "velocity": 118}, {"time": 650, "pitch": 78, "duration": 4, "velocity": 118}, {"time": 656, "pitch": 77, "duration": 1, "velocity": 115}, {"time": 659, "pitch": 75, "duration": 1, "velocity": 115}, {"time": 662, "pitch": 77, "duration": 12, "velocity": 112}, {"time": 680, "pitch": 73, "duration": 1, "velocity": 112}, {"time": 683, "pitch": 75, "duration": 1, "velocity": 115}, {"time": 686, "pitch": 77, "duration": 4, "velocity": 112}, {"time": 692, "pitch": 77, "duration": 1, "velocity": 112}, {"time": 695, "pitch": 77, "duration": 1, "velocity": 112}, {"time": 698, "pitch": 77, "duration": 4, "velocity": 115}, {"time": 704, "pitch": 77, "duration": 1, "velocity": 115}, {"time": 707, "pitch": 78, "duration": 1, "velocity": 118}, {"time": 710, "pitch": 77, "duration": 4, "velocity": 115}, {"time": 716, "pitch": 75, "duration": 7, "velocity": 115}, {"time": 728, "pitch": 75, "duration": 1, "velocity": 115}, {"time": 731, "pitch": 77, "duration": 1, "velocity": 109}, {"time": 734, "pitch": 78, "duration": 4, "velocity": 115}, {"time": 740, "pitch": 78, "duration": 1, "velocity": 109}, {"time": 743, "pitch": 78, "duration": 1, "velocity": 109}, {"time": 746, "pitch": 78, "duration": 4, "velocity": 115}, {"time": 752, "pitch": 77, "duration": 1, "velocity": 112}, {"time": 755, "pitch": 75, "duration": 1, "velocity": 115}, {"time": 758, "pitch": 77, "duration": 11, "velocity": 115}, {"time": 776, "pitch": 73, "duration": 1, "velocity": 106}, {"time": 779, "pitch": 75, "duration": 1, "velocity": 112}, {"time": 782, "pitch": 77, "duration": 4, "velocity": 109}, {"time": 788, "pitch": 77, "duration": 1, "velocity": 104}, {"time": 791, "pitch": 77, "duration": 1, "velocity": 109}, {"time": 794, "pitch": 77, "duration": 4, "velocity": 109}, {"time": 800, "pitch": 77, "duration": 1, "velocity": 104}, {"time": 803, "pitch": 78, "duration": 1, "velocity": 112}, {"time": 806, "pitch": 77, "duration": 4, "velocity": 112}, {"time": 812, "pitch": 75, "duration": 9, "velocity": 115}, {"time": 824, "pitch": 75, "duration": 1, "velocity": 118}, {"time": 827, "pitch": 77, "duration": 1, "velocity": 112}, {"time": 830, "pitch": 78, "duration": 4, "velocity": 112}, {"time": 836, "pitch": 78, "duration": 1, "velocity": 112}, {"time": 839, "pitch": 78, "duration": 1, "velocity": 112}, {"time": 842, "pitch": 78, "duration": 4, "velocity": 115}, {"time": 848, "pitch": 77, "duration": 1, "velocity": 112}, {"time": 851, "pitch": 75, "duration": 1, "velocity": 112}, {"time": 854, "pitch": 77, "duration": 13, "velocity": 112}, {"time": 872, "pitch": 73, "duration": 1, "velocity": 112}, {"time": 875, "pitch": 75, "duration": 1, "velocity": 112}, {"time": 878, "pitch": 77, "duration": 4, "velocity": 109}, {"time": 884, "pitch": 77, "duration": 1, "velocity": 101}, {"time": 887, "pitch": 77, "duration": 1, "velocity": 101}, {"time": 890, "pitch": 77, "duration": 4, "velocity": 109}, {"time": 896, "pitch": 77, "duration": 1, "velocity": 101}, {"time": 899, "pitch": 78, "duration": 1, "velocity": 112}, {"time": 902, "pitch": 77, "duration": 4, "velocity": 112}, {"time": 908, "pitch": 75, "duration": 8, "velocity": 115}, {"time": 920, "pitch": 75, "duration": 1, "velocity": 115}, {"time": 923, "pitch": 77, "duration": 1, "velocity": 109}, {"time": 926, "pitch": 78, "duration": 4, "velocity": 115}, {"time": 932, "pitch": 78, "duration": 1, "velocity": 112}, {"time": 935, "pitch": 78, "duration": 1, "velocity": 112}, {"time": 938, "pitch": 78, "duration": 4, "velocity": 115}, {"time": 944, "pitch": 77, "duration": 1, "velocity": 106}, {"time": 947, "pitch": 75, "duration": 1, "velocity": 106}, {"time": 950, "pitch": 77, "duration": 13, "velocity": 109}, {"time": 968, "pitch": 73, "duration": 1, "velocity": 109}, {"time": 971, "pitch": 75, "duration": 1, "velocity": 112}, {"time": 974, "pitch": 77, "duration": 2, "velocity": 109}, {"time": 977, "pitch": 77, "duration": 3, "velocity": 109}, {"time": 980, "pitch": 77, "duration": 1, "velocity": 101}, {"time": 983, "pitch": 77, "duration": 1, "velocity": 104}, {"time": 986, "pitch": 77, "duration": 4, "velocity": 106}, {"time": 992, "pitch": 77, "duration": 1, "velocity": 101}, {"time": 995, "pitch": 78, "duration": 1, "velocity": 109}, {"time": 998, "pitch": 77, "duration": 4, "velocity": 112}, {"time": 1004, "pitch": 75, "duration": 18, "velocity": 112}, {"time": 1214, "pitch": 70, "duration": 4, "velocity": 112}, {"time": 1220, "pitch": 63, "duration": 1, "velocity": 115}, {"time": 1223, "pitch": 63, "duration": 1, "velocity": 106}, {"time": 1226, "pitch": 63, "duration": 2, "velocity": 115}, {"time": 1229, "pitch": 65, "duration": 1, "velocity": 115}, {"time": 1232, "pitch": 66, "duration": 1, "velocity": 109}, {"time": 1235, "pitch": 73, "duration": 1, "velocity": 104}, {"time": 1238, "pitch": 68, "duration": 13, "velocity": 94}, {"time": 1259, "pitch": 61, "duration": 1, "velocity": 112}, {"time": 1262, "pitch": 63, "duration": 4, "velocity": 115}, {"time": 1268, "pitch": 66, "duration": 4, "velocity": 115}, {"time": 1274, "pitch": 68, "duration": 2, "velocity": 112}, {"time": 1277, "pitch": 68, "duration": 7, "velocity": 112}, {"time": 1286, "pitch": 70, "duration": 13, "velocity": 115}, {"time": 1310, "pitch": 68, "duration": 4, "velocity": 112}, {"time": 1316, "pitch": 68, "duration": 3, "velocity": 112}, {"time": 1322, "pitch": 68, "duration": 2, "velocity": 112}, {"time": 1325, "pitch": 70, "duration": 1, "velocity": 115}, {"time": 1328, "pitch": 71, "duration": 1, "velocity": 120}, {"time": 1331, "pitch": 70, "duration": 1, "velocity": 115}, {"time": 1334, "pitch": 70, "duration": 4, "velocity": 112}, {"time": 1340, "pitch": 66, "duration": 11, "velocity": 112}, {"time": 1355, "pitch": 61, "duration": 1, "velocity": 109}, {"time": 1358, "pitch": 63, "duration": 4, "velocity": 115}, {"time": 1364, "pitch": 75, "duration": 3, "velocity": 112}, {"time": 1370, "pitch": 73, "duration": 4, "velocity": 112}, {"time": 1376, "pitch": 71, "duration": 2, "velocity": 117}, {"time": 1379, "pitch": 68, "duration": 1, "velocity": 106}, {"time": 1382, "pitch": 70, "duration": 19, "velocity": 112}, {"time": 1406, "pitch": 70, "duration": 4, "velocity": 112}, {"time": 1412, "pitch": 63, "duration": 1, "velocity": 109}, {"time": 1415, "pitch": 63, "duration": 1, "velocity": 115}, {"time": 1418, "pitch": 63, "duration": 1, "velocity": 112}, {"time": 1421, "pitch": 65, "duration": 1, "velocity": 115}, {"time": 1424, "pitch": 66, "duration": 1, "velocity": 112}, {"time": 1427, "pitch": 70, "duration": 1, "velocity": 112}, {"time": 1430, "pitch": 68, "duration": 13, "velocity": 112}, {"time": 1454, "pitch": 63, "duration": 6, "velocity": 118}, {"time": 1460, "pitch": 66, "duration": 3, "velocity": 118}, {"time": 1465, "pitch": 66, "duration": 3, "velocity": 115}, {"time": 1469, "pitch": 66, "duration": 3, "velocity": 115}, {"time": 1473, "pitch": 68, "duration": 3, "velocity": 112}, {"time": 1477, "pitch": 70, "duration": 20, "velocity": 112}, {"time": 1502, "pitch": 68, "duration": 4, "velocity": 112}, {"time": 1508, "pitch": 68, "duration": 1, "velocity": 109}, {"time": 1511, "pitch": 68, "duration": 1, "velocity": 109}, {"time": 1514, "pitch": 68, "duration": 1, "velocity": 115}, {"time": 1517, "pitch": 70, "duration": 1, "velocity": 115}, {"time": 1520, "pitch": 71, "duration": 1, "velocity": 117}, {"time": 1523, "pitch": 68, "duration": 2, "velocity": 104}, {"time": 1526, "pitch": 70, "duration": 4, "velocity": 118}, {"time": 1532, "pitch": 68, "duration": 1, "velocity": 112}, {"time": 1535, "pitch": 66, "duration": 7, "velocity": 112}, {"time": 1544, "pitch": 63, "duration": 1, "velocity": 112}, {"time": 1547, "pitch": 63, "duration": 1, "velocity": 118}, {"time": 1550, "pitch": 75, "duration": 3, "velocity": 115}, {"time": 1555, "pitch": 75, "duration": 2, "velocity": 115}, {"time": 1559, "pitch": 75, "duration": 1, "velocity": 115}, {"time": 1562, "pitch": 75, "duration": 2, "velocity": 115}, {"time": 1566, "pitch": 73, "duration": 2, "velocity": 120}, {"time": 1569, "pitch": 75, "duration": 2, "velocity": 118}, {"time": 1573, "pitch": 77, "duration": 7, "velocity": 109}, {"time": 1585, "pitch": 73, "duration": 3, "velocity": 115}, {"time": 1589, "pitch": 70, "duration": 3, "velocity": 118}, {"time": 1593, "pitch": 73, "duration": 3, "velocity": 115}, {"time": 1598, "pitch": 75, "duration": 36, "velocity": 118}, {"time": 1640, "pitch": 75, "duration": 1, "velocity": 106}, {"time": 1643, "pitch": 77, "duration": 1, "velocity": 115}, {"time": 1646, "pitch": 78, "duration": 4, "velocity": 115}, {"time": 1652, "pitch": 78, "duration": 1, "velocity": 109}, {"time": 1655, "pitch": 78, "duration": 1, "velocity": 118}, {"time": 1658, "pitch": 78, "duration": 4, "velocity": 118}, {"time": 1664, "pitch": 77, "duration": 1, "velocity": 115}, {"time": 1667, "pitch": 75, "duration": 1, "velocity": 115}, {"time": 1670, "pitch": 77, "duration": 12, "velocity": 112}, {"time": 1688, "pitch": 73, "duration": 1, "velocity": 112}, {"time": 1691, "pitch": 75, "duration": 1, "velocity": 115}, {"time": 1694, "pitch": 77, "duration": 4, "velocity": 112}, {"time": 1700, "pitch": 77, "duration": 1, "velocity": 112}, {"time": 1703, "pitch": 77, "duration": 1, "velocity": 112}, {"time": 1706, "pitch": 77, "duration": 4, "velocity": 115}, {"time": 1712, "pitch": 77, "duration": 1, "velocity": 115}, {"time": 1715, "pitch": 78, "duration": 1, "velocity": 118}, {"time": 1718, "pitch": 77, "duration": 4, "velocity": 115}, {"time": 1724, "pitch": 75, "duration": 7, "velocity": 115}, {"time": 1736, "pitch": 75, "duration": 1, "velocity": 115}, {"time": 1739, "pitch": 77, "duration": 1, "velocity": 109}, {"time": 1742, "pitch": 78, "duration": 4, "velocity": 115}, {"time": 1748, "pitch": 78, "duration": 1, "velocity": 109}, {"time": 1751, "pitch": 78, "duration": 1, "velocity": 109}, {"time": 1754, "pitch": 78, "duration": 4, "velocity": 115}, {"time": 1760, "pitch": 77, "duration": 1, "velocity": 112}, {"time": 1763, "pitch": 75, "duration": 1, "velocity": 115}, {"time": 1766, "pitch": 77, "duration": 11, "velocity": 115}, {"time": 1784, "pitch": 73, "duration": 1, "velocity": 106}, {"time": 1787, "pitch": 75, "duration": 1, "velocity": 112}, {"time": 1790, "pitch": 77, "duration": 4, "velocity": 109}, {"time": 1796, "pitch": 77, "duration": 1, "velocity": 104}, {"time": 1799, "pitch": 77, "duration": 1, "velocity": 109}, {"time": 1802, "pitch": 77, "duration": 4, "velocity": 109}, {"time": 1808, "pitch": 77, "duration": 1, "velocity": 104}, {"time": 1811, "pitch": 78, "duration": 1, "velocity": 112}, {"time": 1814, "pitch": 77, "duration": 4, "velocity": 112}, {"time": 1820, "pitch": 75, "duration": 9, "velocity": 115}, {"time": 1832, "pitch": 75, "duration": 1, "velocity": 118}, {"time": 1835, "pitch": 77, "duration": 1, "velocity": 112}, {"time": 1838, "pitch": 78, "duration": 4, "velocity": 112}, {"time": 1844, "pitch": 78, "duration": 1, "velocity": 112}, {"time": 1847, "pitch": 78, "duration": 1, "velocity": 112}, {"time": 1850, "pitch": 78, "duration": 4, "velocity": 115}, {"time": 1856, "pitch": 77, "duration": 1, "velocity": 112}, {"time": 1859, "pitch": 75, "duration": 1, "velocity": 112}, {"time": 1862, "pitch": 77, "duration": 13, "velocity": 112}, {"time": 1880, "pitch": 73, "duration": 1, "velocity": 112}, {"time": 1883, "pitch": 75, "duration": 1, "velocity": 112}, {"time": 1886, "pitch": 77, "duration": 4, "velocity": 109}, {"time": 1892, "pitch": 77, "duration": 1, "velocity": 101}, {"time": 1895, "pitch": 77, "duration": 1, "velocity": 101}, {"time": 1898, "pitch": 77, "duration": 4, "velocity": 109}, {"time": 1904, "pitch": 77, "duration": 1, "velocity": 101}, {"time": 1907, "pitch": 78, "duration": 1, "velocity": 112}, {"time": 1910, "pitch": 77, "duration": 4, "velocity": 112}, {"time": 1916, "pitch": 75, "duration": 8, "velocity": 115}, {"time": 1928, "pitch": 75, "duration": 1, "velocity": 115}, {"time": 1931, "pitch": 77, "duration": 1, "velocity": 109}, {"time": 1934, "pitch": 78, "duration": 4, "velocity": 115}, {"time": 1940, "pitch": 78, "duration": 1, "velocity": 112}, {"time": 1943, "pitch": 78, "duration": 1, "velocity": 112}, {"time": 1946, "pitch": 78, "duration": 4, "velocity": 115}, {"time": 1952, "pitch": 77, "duration": 1, "velocity": 106}, {"time": 1955, "pitch": 75, "duration": 1, "velocity": 106}, {"time": 1958, "pitch": 77, "duration": 13, "velocity": 109}, {"time": 1976, "pitch": 73, "duration": 1, "velocity": 109}, {"time": 1979, "pitch": 75, "duration": 1, "velocity": 112}, {"time": 1982, "pitch": 77, "duration": 2, "velocity": 109}, {"time": 1985, "pitch": 77, "duration": 3, "velocity": 109}, {"time": 1988, "pitch": 77, "duration": 1, "velocity": 101}, {"time": 1991, "pitch": 77, "duration": 1, "velocity": 104}, {"time": 1994, "pitch": 77, "duration": 4, "velocity": 106}, {"time": 2000, "pitch": 77, "duration": 1, "velocity": 101}, {"time": 2003, "pitch": 78, "duration": 1, "velocity": 109}, {"time": 2006, "pitch": 77, "duration": 4, "velocity": 112}, {"time": 2012, "pitch": 75, "duration": 13, "velocity": 112}, {"time": 2024, "pitch": 75, "duration": 1, "velocity": 106}, {"time": 2027, "pitch": 77, "duration": 1, "velocity": 115}, {"time": 2030, "pitch": 78, "duration": 4, "velocity": 115}, {"time": 2036, "pitch": 78, "duration": 1, "velocity": 109}, {"time": 2039, "pitch": 78, "duration": 1, "velocity": 118}, {"time": 2042, "pitch": 78, "duration": 4, "velocity": 118}, {"time": 2048, "pitch": 77, "duration": 1, "velocity": 115}, {"time": 2051, "pitch": 75, "duration": 1, "velocity": 115}, {"time": 2054, "pitch": 77, "duration": 12, "velocity": 112}, {"time": 2072, "pitch": 73, "duration": 1, "velocity": 112}, {"time": 2075, "pitch": 75, "duration": 1, "velocity": 115}, {"time": 2078, "pitch": 77, "duration": 4, "velocity": 112}, {"time": 2084, "pitch": 77, "duration": 1, "velocity": 112}, {"time": 2087, "pitch": 77, "duration": 1, "velocity": 112}, {"time": 2090, "pitch": 77, "duration": 4, "velocity": 115}, {"time": 2096, "pitch": 77, "duration": 1, "velocity": 115}, {"time": 2099, "pitch": 78, "duration": 1, "velocity": 118}, {"time": 2102, "pitch": 77, "duration": 4, "velocity": 115}, {"time": 2108, "pitch": 75, "duration": 7, "velocity": 115}, {"time": 2120, "pitch": 75, "duration": 1, "velocity": 115}, {"time": 2123, "pitch": 77, "duration": 1, "velocity": 109}, {"time": 2126, "pitch": 78, "duration": 4, "velocity": 115}, {"time": 2132, "pitch": 78, "duration": 1, "velocity": 109}, {"time": 2135, "pitch": 78, "duration": 1, "velocity": 109}, {"time": 2138, "pitch": 78, "duration": 4, "velocity": 115}, {"time": 2144, "pitch": 77, "duration": 1, "velocity": 112}, {"time": 2147, "pitch": 75, "duration": 1, "velocity": 115}, {"time": 2150, "pitch": 77, "duration": 11, "velocity": 115}, {"time": 2168, "pitch": 73, "duration": 1, "velocity": 106}, {"time": 2171, "pitch": 75, "duration": 1, "velocity": 112}, {"time": 2174, "pitch": 77, "duration": 4, "velocity": 109}, {"time": 2180, "pitch": 77, "duration": 1, "velocity": 104}, {"time": 2183, "pitch": 77, "duration": 1, "velocity": 109}, {"time": 2186, "pitch": 77, "duration": 4, "velocity": 109}, {"time": 2192, "pitch": 77, "duration": 1, "velocity": 104}, {"time": 2195, "pitch": 78, "duration": 1, "velocity": 112}, {"time": 2198, "pitch": 77, "duration": 4, "velocity": 112}, {"time": 2204, "pitch": 75, "duration": 9, "velocity": 115}, {"time": 2216, "pitch": 75, "duration": 1, "velocity": 118}, {"time": 2219, "pitch": 77, "duration": 1, "velocity": 112}, {"time": 2222, "pitch": 78, "duration": 4, "velocity": 112}, {"time": 2228, "pitch": 78, "duration": 1, "velocity": 112}, {"time": 2231, "pitch": 78, "duration": 1, "velocity": 112}, {"time": 2234, "pitch": 78, "duration": 4, "velocity": 115}, {"time": 2240, "pitch": 77, "duration": 1, "velocity": 112}, {"time": 2243, "pitch": 75, "duration": 1, "velocity": 112}, {"time": 2246, "pitch": 77, "duration": 13, "velocity": 112}, {"time": 2264, "pitch": 73, "duration": 1, "velocity": 112}, {"time": 2267, "pitch": 75, "duration": 1, "velocity": 112}, {"time": 2270, "pitch": 77, "duration": 4, "velocity": 109}, {"time": 2276, "pitch": 77, "duration": 1, "velocity": 101}, {"time": 2279, "pitch": 77, "duration": 1, "velocity": 101}, {"time": 2282, "pitch": 77, "duration": 4, "velocity": 109}, {"time": 2288, "pitch": 77, "duration": 1, "velocity": 101}, {"time": 2291, "pitch": 78, "duration": 1, "velocity": 112}, {"time": 2294, "pitch": 77, "duration": 4, "velocity": 112}, {"time": 2300, "pitch": 75, "duration": 8, "velocity": 115}, {"time": 2312, "pitch": 75, "duration": 1, "velocity": 115}, {"time": 2315, "pitch": 77, "duration": 1, "velocity": 109}, {"time": 2318, "pitch": 78, "duration": 4, "velocity": 115}, {"time": 2324, "pitch": 78, "duration": 1, "velocity": 112}, {"time": 2327, "pitch": 78, "duration": 1, "velocity": 112}, {"time": 2330, "pitch": 78, "duration": 4, "velocity": 115}, {"time": 2336, "pitch": 77, "duration": 1, "velocity": 106}, {"time": 2339, "pitch": 75, "duration": 1, "velocity": 106}, {"time": 2342, "pitch": 77, "duration": 13, "velocity": 109}, {"time": 2360, "pitch": 73, "duration": 1, "velocity": 109}, {"time": 2363, "pitch": 75, "duration": 1, "velocity": 112}, {"time": 2366, "pitch": 77, "duration": 2, "velocity": 109}, {"time": 2369, "pitch": 77, "duration": 3, "velocity": 109}, {"time": 2372, "pitch": 77, "duration": 1, "velocity": 101}, {"time": 2375, "pitch": 77, "duration": 1, "velocity": 104}, {"time": 2378, "pitch": 77, "duration": 4, "velocity": 106}, {"time": 2384, "pitch": 77, "duration": 1, "velocity": 101}, {"time": 2387, "pitch": 78, "duration": 1, "velocity": 109}, {"time": 2390, "pitch": 77, "duration": 4, "velocity": 112}, {"time": 2396, "pitch": 75, "duration": 18, "velocity": 112}]}, {"program": 0, "is_drum": false, "name": "PIANO", "notes": [{"time": 14, "pitch": 39, "duration": 12, "velocity": 96}, {"time": 14, "pitch": 58, "duration": 3, "velocity": 104}, {"time": 14, "pitch": 63, "duration": 7, "velocity": 104}, {"time": 20, "pitch": 58, "duration": 6, "velocity": 87}, {"time": 26, "pitch": 63, "duration": 6, "velocity": 112}, {"time": 26, "pitch": 66, "duration": 9, "velocity": 109}, {"time": 32, "pitch": 58, "duration": 1, "velocity": 104}, {"time": 38, "pitch": 47, "duration": 13, "velocity": 77}, {"time": 38, "pitch": 59, "duration": 3, "velocity": 86}, {"time": 38, "pitch": 63, "duration": 6, "velocity": 106}, {"time": 38, "pitch": 66, "duration": 7, "velocity": 99}, {"time": 44, "pitch": 59, "duration": 3, "velocity": 96}, {"time": 50, "pitch": 59, "duration": 4, "velocity": 110}, {"time": 50, "pitch": 63, "duration": 4, "velocity": 109}, {"time": 50, "pitch": 66, "duration": 6, "velocity": 104}, {"time": 62, "pitch": 49, "duration": 16, "velocity": 99}, {"time": 62, "pitch": 56, "duration": 3, "velocity": 87}, {"time": 62, "pitch": 61, "duration": 7, "velocity": 96}, {"time": 68, "pitch": 56, "duration": 6, "velocity": 99}, {"time": 74, "pitch": 61, "duration": 8, "velocity": 106}, {"time": 74, "pitch": 65, "duration": 8, "velocity": 104}, {"time": 80, "pitch": 56, "duration": 2, "velocity": 101}, {"time": 86, "pitch": 42, "duration": 16, "velocity": 99}, {"time": 86, "pitch": 58, "duration": 2, "velocity": 101}, {"time": 86, "pitch": 61, "duration": 7, "velocity": 94}, {"time": 92, "pitch": 58, "duration": 6, "velocity": 91}, {"time": 98, "pitch": 61, "duration": 6, "velocity": 104}, {"time": 98, "pitch": 66, "duration": 6, "velocity": 106}, {"time": 104, "pitch": 58, "duration": 1, "velocity": 104}, {"time": 110, "pitch": 47, "duration": 14, "velocity": 104}, {"time": 110, "pitch": 59, "duration": 12, "velocity": 101}, {"time": 110, "pitch": 63, "duration": 7, "velocity": 109}, {"time": 116, "pitch": 54, "duration": 8, "velocity": 55}, {"time": 122, "pitch": 63, "duration": 6, "velocity": 109}, {"time": 122, "pitch": 66, "duration": 9, "velocity": 106}, {"time": 128, "pitch": 59, "duration": 2, "velocity": 110}, {"time": 134, "pitch": 49, "duration": 17, "velocity": 91}, {"time": 134, "pitch": 56, "duration": 3, "velocity": 101}, {"time": 134, "pitch": 61, "duration": 7, "velocity": 101}, {"time": 140, "pitch": 56, "duration": 6, "velocity": 85}, {"time": 146, "pitch": 61, "duration": 9, "velocity": 109}, {"time": 146, "pitch": 65, "duration": 10, "velocity": 109}, {"time": 152, "pitch": 56, "duration": 2, "velocity": 101}, {"time": 158, "pitch": 39, "duration": 21, "velocity": 101}, {"time": 158, "pitch": 58, "duration": 3, "velocity": 106}, {"time": 158, "pitch": 63, "duration": 6, "velocity": 101}, {"time": 164, "pitch": 58, "duration": 6, "velocity": 94}, {"time": 170, "pitch": 63, "duration": 4, "velocity": 112}, {"time": 170, "pitch": 66, "duration": 9, "velocity": 109}, {"time": 176, "pitch": 58, "duration": 3, "velocity": 43}, {"time": 182, "pitch": 39, "duration": 16, "velocity": 91}, {"time": 182, "pitch": 58, "duration": 10, "velocity": 89}, {"time": 182, "pitch": 63, "duration": 8, "velocity": 99}, {"time": 194, "pitch": 63, "duration": 5, "velocity": 101}, {"time": 194, "pitch": 66, "duration": 6, "velocity": 101}, {"time": 206, "pitch": 51, "duration": 13, "velocity": 99}, {"time": 206, "pitch": 58, "duration": 3, "velocity": 99}, {"time": 206, "pitch": 63, "duration": 7, "velocity": 101}, {"time": 212, "pitch": 58, "duration": 6, "velocity": 87}, {"time": 218, "pitch": 63, "duration": 6, "velocity": 106}, {"time": 218, "pitch": 66, "duration": 8, "velocity": 109}, {"time": 224, "pitch": 58, "duration": 2, "velocity": 101}, {"time": 230, "pitch": 49, "duration": 13, "velocity": 87}, {"time": 230, "pitch": 61, "duration": 8, "velocity": 76}, {"time": 230, "pitch": 65, "duration": 6, "velocity": 99}, {"time": 236, "pitch": 56, "duration": 6, "velocity": 58}, {"time": 242, "pitch": 61, "duration": 2, "velocity": 99}, {"time": 242, "pitch": 65, "duration": 6, "velocity": 106}, {"time": 242, "pitch": 68, "duration": 6, "velocity": 101}, {"time": 248, "pitch": 61, "duration": 1, "velocity": 71}, {"time": 254, "pitch": 47, "duration": 6, "velocity": 107}, {"time": 254, "pitch": 59, "duration": 4, "velocity": 93}, {"time": 254, "pitch": 63, "duration": 6, "velocity": 106}, {"time": 266, "pitch": 49, "duration": 6, "velocity": 104}, {"time": 266, "pitch": 61, "duration": 6, "velocity": 91}, {"time": 266, "pitch": 65, "duration": 6, "velocity": 104}, {"time": 278, "pitch": 42, "duration": 17, "velocity": 104}, {"time": 278, "pitch": 54, "duration": 6, "velocity": 101}, {"time": 278, "pitch": 58, "duration": 6, "velocity": 104}, {"time": 284, "pitch": 49, "duration": 9, "velocity": 76}, {"time": 290, "pitch": 54, "duration": 2, "velocity": 99}, {"time": 290, "pitch": 58, "duration": 6, "velocity": 112}, {"time": 290, "pitch": 61, "duration": 7, "velocity": 104}, {"time": 296, "pitch": 54, "duration": 2, "velocity": 104}, {"time": 302, "pitch": 44, "duration": 15, "velocity": 104}, {"time": 302, "pitch": 56, "duration": 9, "velocity": 99}, {"time": 302, "pitch": 59, "duration": 6, "velocity": 101}, {"time": 308, "pitch": 51, "duration": 7, "velocity": 51}, {"time": 314, "pitch": 59, "duration": 7, "velocity": 117}, {"time": 314, "pitch": 63, "duration": 7, "velocity": 109}, {"time": 320, "pitch": 56, "duration": 2, "velocity": 104}, {"time": 326, "pitch": 51, "duration": 13, "velocity": 96}, {"time": 326, "pitch": 58, "duration": 3, "velocity": 104}, {"time": 326, "pitch": 63, "duration": 7, "velocity": 109}, {"time": 332, "pitch": 58, "duration": 2, "velocity": 78}, {"time": 338, "pitch": 58, "duration": 2, "velocity": 104}, {"time": 338, "pitch": 63, "duration": 6, "velocity": 109}, {"time": 338, "pitch": 66, "duration": 6, "velocity": 101}, {"time": 344, "pitch": 58, "duration": 1, "velocity": 38}, {"time": 350, "pitch": 47, "duration": 1, "velocity": 113}, {"time": 350, "pitch": 59, "duration": 3, "velocity": 107}, {"time": 350, "pitch": 63, "duration": 3, "velocity": 109}, {"time": 350, "pitch": 66, "duration": 4, "velocity": 101}, {"time": 362, "pitch": 49, "duration": 4, "velocity": 101}, {"time": 362, "pitch": 61, "duration": 4, "velocity": 101}, {"time": 362, "pitch": 65, "duration": 3, "velocity": 109}, {"time": 374, "pitch": 46, "duration": 19, "velocity": 104}, {"time": 374, "pitch": 58, "duration": 6, "velocity": 91}, {"time": 374, "pitch": 62, "duration": 6, "velocity": 107}, {"time": 374, "pitch": 65, "duration": 4, "velocity": 101}, {"time": 380, "pitch": 53, "duration": 11, "velocity": 89}, {"time": 386, "pitch": 62, "duration": 11, "velocity": 120}, {"time": 386, "pitch": 65, "duration": 11, "velocity": 106}, {"time": 386, "pitch": 70, "duration": 11, "velocity": 104}, {"time": 392, "pitch": 58, "duration": 4, "velocity": 106}, {"time": 398, "pitch": 51, "duration": 13, "velocity": 99}, {"time": 398, "pitch": 58, "duration": 3, "velocity": 99}, {"time": 398, "pitch": 63, "duration": 7, "velocity": 101}, {"time": 404, "pitch": 58, "duration": 6, "velocity": 87}, {"time": 410, "pitch": 63, "duration": 6, "velocity": 106}, {"time": 410, "pitch": 66, "duration": 8, "velocity": 109}, {"time": 416, "pitch": 58, "duration": 2, "velocity": 101}, {"time": 422, "pitch": 49, "duration": 13, "velocity": 87}, {"time": 422, "pitch": 61, "duration": 8, "velocity": 76}, {"time": 422, "pitch": 65, "duration": 6, "velocity": 99}, {"time": 428, "pitch": 56, "duration": 6, "velocity": 58}, {"time": 434, "pitch": 61, "duration": 2, "velocity": 99}, {"time": 434, "pitch": 65, "duration": 6, "velocity": 106}, {"time": 434, "pitch": 68, "duration": 6, "velocity": 101}, {"time": 440, "pitch": 61, "duration": 1, "velocity": 71}, {"time": 446, "pitch": 47, "duration": 6, "velocity": 107}, {"time": 446, "pitch": 59, "duration": 4, "velocity": 93}, {"time": 446, "pitch": 63, "duration": 6, "velocity": 106}, {"time": 458, "pitch": 49, "duration": 6, "velocity": 104}, {"time": 458, "pitch": 61, "duration": 6, "velocity": 91}, {"time": 458, "pitch": 65, "duration": 6, "velocity": 104}, {"time": 470, "pitch": 42, "duration": 17, "velocity": 104}, {"time": 470, "pitch": 54, "duration": 6, "velocity": 101}, {"time": 470, "pitch": 58, "duration": 6, "velocity": 104}, {"time": 476, "pitch": 49, "duration": 9, "velocity": 76}, {"time": 482, "pitch": 54, "duration": 2, "velocity": 99}, {"time": 482, "pitch": 58, "duration": 6, "velocity": 112}, {"time": 482, "pitch": 61, "duration": 7, "velocity": 104}, {"time": 488, "pitch": 54, "duration": 2, "velocity": 104}, {"time": 494, "pitch": 44, "duration": 15, "velocity": 104}, {"time": 494, "pitch": 56, "duration": 9, "velocity": 99}, {"time": 494, "pitch": 59, "duration": 6, "velocity": 101}, {"time": 500, "pitch": 51, "duration": 7, "velocity": 51}, {"time": 506, "pitch": 59, "duration": 7, "velocity": 117}, {"time": 506, "pitch": 63, "duration": 7, "velocity": 109}, {"time": 512, "pitch": 56, "duration": 2, "velocity": 104}, {"time": 518, "pitch": 51, "duration": 13, "velocity": 96}, {"time": 518, "pitch": 58, "duration": 3, "velocity": 104}, {"time": 518, "pitch": 63, "duration": 7, "velocity": 109}, {"time": 524, "pitch": 58, "duration": 2, "velocity": 78}, {"time": 530, "pitch": 58, "duration": 2, "velocity": 104}, {"time": 530, "pitch": 63, "duration": 6, "velocity": 109}, {"time": 530, "pitch": 66, "duration": 6, "velocity": 101}, {"time": 536, "pitch": 58, "duration": 1, "velocity": 38}, {"time": 542, "pitch": 47, "duration": 1, "velocity": 113}, {"time": 542, "pitch": 59, "duration": 3, "velocity": 107}, {"time": 542, "pitch": 63, "duration": 3, "velocity": 109}, {"time": 542, "pitch": 66, "duration": 4, "velocity": 101}, {"time": 554, "pitch": 49, "duration": 4, "velocity": 101}, {"time": 554, "pitch": 61, "duration": 4, "velocity": 101}, {"time": 554, "pitch": 65, "duration": 3, "velocity": 109}, {"time": 566, "pitch": 46, "duration": 19, "velocity": 104}, {"time": 566, "pitch": 58, "duration": 6, "velocity": 91}, {"time": 566, "pitch": 62, "duration": 6, "velocity": 107}, {"time": 566, "pitch": 65, "duration": 4, "velocity": 101}, {"time": 572, "pitch": 53, "duration": 11, "velocity": 89}, {"time": 578, "pitch": 62, "duration": 11, "velocity": 120}, {"time": 578, "pitch": 65, "duration": 11, "velocity": 106}, {"time": 578, "pitch": 70, "duration": 11, "velocity": 104}, {"time": 584, "pitch": 58, "duration": 4, "velocity": 106}, {"time": 590, "pitch": 39, "duration": 1, "velocity": 106}, {"time": 590, "pitch": 63, "duration": 5, "velocity": 106}, {"time": 590, "pitch": 66, "duration": 6, "velocity": 104}, {"time": 596, "pitch": 51, "duration": 16, "velocity": 94}, {"time": 602, "pitch": 63, "duration": 7, "velocity": 112}, {"time": 602, "pitch": 66, "duration": 7, "velocity": 115}, {"time": 608, "pitch": 58, "duration": 4, "velocity": 80}, {"time": 614, "pitch": 51, "duration": 16, "velocity": 104}, {"time": 614, "pitch": 58, "duration": 12, "velocity": 104}, {"time": 614, "pitch": 63, "duration": 10, "velocity": 99}, {"time": 614, "pitch": 66, "duration": 6, "velocity": 104}, {"time": 614, "pitch": 70, "duration": 6, "velocity": 104}, {"time": 626, "pitch": 63, "duration": 10, "velocity": 112}, {"time": 626, "pitch": 66, "duration": 10, "velocity": 115}, {"time": 626, "pitch": 70, "duration": 10, "velocity": 109}, {"time": 638, "pitch": 51, "duration": 17, "velocity": 109}, {"time": 638, "pitch": 63, "duration": 6, "velocity": 94}, {"time": 638, "pitch": 66, "duration": 6, "velocity": 109}, {"time": 638, "pitch": 70, "duration": 6, "velocity": 104}, {"time": 644, "pitch": 58, "duration": 6, "velocity": 76}, {"time": 647, "pitch": 63, "duration": 1, "velocity": 99}, {"time": 650, "pitch": 63, "duration": 5, "velocity": 112}, {"time": 650, "pitch": 66, "duration": 5, "velocity": 112}, {"time": 650, "pitch": 70, "duration": 10, "velocity": 109}, {"time": 662, "pitch": 49, "duration": 22, "velocity": 101}, {"time": 662, "pitch": 61, "duration": 6, "velocity": 101}, {"time": 662, "pitch": 65, "duration": 6, "velocity": 101}, {"time": 662, "pitch": 68, "duration": 6, "velocity": 101}, {"time": 668, "pitch": 56, "duration": 6, "velocity": 69}, {"time": 674, "pitch": 61, "duration": 3, "velocity": 109}, {"time": 674, "pitch": 68, "duration": 3, "velocity": 109}, {"time": 677, "pitch": 56, "duration": 6, "velocity": 74}, {"time": 680, "pitch": 65, "duration": 2, "velocity": 96}, {"time": 683, "pitch": 61, "duration": 1, "velocity": 78}, {"time": 686, "pitch": 49, "duration": 21, "velocity": 101}, {"time": 686, "pitch": 61, "duration": 6, "velocity": 96}, {"time": 686, "pitch": 65, "duration": 6, "velocity": 96}, {"time": 692, "pitch": 56, "duration": 6, "velocity": 55}, {"time": 698, "pitch": 61, "duration": 6, "velocity": 101}, {"time": 698, "pitch": 65, "duration": 9, "velocity": 106}, {"time": 698, "pitch": 68, "duration": 10, "velocity": 101}, {"time": 704, "pitch": 56, "duration": 4, "velocity": 89}, {"time": 707, "pitch": 61, "duration": 1, "velocity": 89}, {"time": 710, "pitch": 51, "duration": 20, "velocity": 109}, {"time": 710, "pitch": 63, "duration": 7, "velocity": 109}, {"time": 710, "pitch": 66, "duration": 6, "velocity": 109}, {"time": 716, "pitch": 58, "duration": 7, "velocity": 78}, {"time": 722, "pitch": 63, "duration": 10, "velocity": 106}, {"time": 722, "pitch": 66, "duration": 10, "velocity": 112}, {"time": 722, "pitch": 70, "duration": 10, "velocity": 106}, {"time": 728, "pitch": 58, "duration": 4, "velocity": 94}, {"time": 734, "pitch": 51, "duration": 17, "velocity": 109}, {"time": 734, "pitch": 63, "duration": 6, "velocity": 94}, {"time": 734, "pitch": 66, "duration": 6, "velocity": 109}, {"time": 734, "pitch": 70, "duration": 6, "velocity": 104}, {"time": 740, "pitch": 58, "duration": 6, "velocity": 76}, {"time": 743, "pitch": 63, "duration": 1, "velocity": 99}, {"time": 746, "pitch": 63, "duration": 5, "velocity": 112}, {"time": 746, "pitch": 66, "duration": 5, "velocity": 112}, {"time": 746, "pitch": 70, "duration": 10, "velocity": 109}, {"time": 758, "pitch": 49, "duration": 22, "velocity": 101}, {"time": 758, "pitch": 61, "duration": 6, "velocity": 101}, {"time": 758, "pitch": 65, "duration": 6, "velocity": 101}, {"time": 758, "pitch": 68, "duration": 6, "velocity": 101}, {"time": 764, "pitch": 56, "duration": 6, "velocity": 69}, {"time": 770, "pitch": 61, "duration": 3, "velocity": 109}, {"time": 770, "pitch": 68, "duration": 3, "velocity": 109}, {"time": 773, "pitch": 56, "duration": 6, "velocity": 74}, {"time": 776, "pitch": 65, "duration": 2, "velocity": 96}, {"time": 779, "pitch": 61, "duration": 1, "velocity": 78}, {"time": 782, "pitch": 49, "duration": 21, "velocity": 101}, {"time": 782, "pitch": 61, "duration": 6, "velocity": 96}, {"time": 782, "pitch": 65, "duration": 6, "velocity": 96}, {"time": 788, "pitch": 56, "duration": 6, "velocity": 55}, {"time": 794, "pitch": 61, "duration": 6, "velocity": 101}, {"time": 794, "pitch": 65, "duration": 9, "velocity": 106}, {"time": 794, "pitch": 68, "duration": 10, "velocity": 101}, {"time": 800, "pitch": 56, "duration": 4, "velocity": 89}, {"time": 803, "pitch": 61, "duration": 1, "velocity": 89}, {"time": 806, "pitch": 51, "duration": 20, "velocity": 109}, {"time": 806, "pitch": 63, "duration": 7, "velocity": 109}, {"time": 806, "pitch": 66, "duration": 6, "velocity": 109}, {"time": 812, "pitch": 58, "duration": 7, "velocity": 78}, {"time": 818, "pitch": 63, "duration": 10, "velocity": 106}, {"time": 818, "pitch": 66, "duration": 10, "velocity": 112}, {"time": 818, "pitch": 70, "duration": 10, "velocity": 106}, {"time": 824, "pitch": 58, "duration": 4, "velocity": 94}, {"time": 830, "pitch": 51, "duration": 17, "velocity": 109}, {"time": 830, "pitch": 63, "duration": 6, "velocity": 94}, {"time": 830, "pitch": 66, "duration": 6, "velocity": 109}, {"time": 830, "pitch": 70, "duration": 6, "velocity": 104}, {"time": 836, "pitch": 58, "duration": 6, "velocity": 76}, {"time": 839, "pitch": 63, "duration": 1, "velocity": 99}, {"time": 842, "pitch": 63, "duration": 5, "velocity": 112}, {"time": 842, "pitch": 66, "duration": 5, "velocity": 112}, {"time": 842, "pitch": 70, "duration": 10, "velocity": 109}, {"time": 854, "pitch": 49, "duration": 22, "velocity": 101}, {"time": 854, "pitch": 61, "duration": 6, "velocity": 101}, {"time": 854, "pitch": 65, "duration": 6, "velocity": 101}, {"time": 854, "pitch": 68, "duration": 6, "velocity": 101}, {"time": 860, "pitch": 56, "duration": 6, "velocity": 69}, {"time": 866, "pitch": 61, "duration": 3, "velocity": 109}, {"time": 866, "pitch": 68, "duration": 3, "velocity": 109}, {"time": 869, "pitch": 56, "duration": 6, "velocity": 74}, {"time": 872, "pitch": 65, "duration": 2, "velocity": 96}, {"time": 875, "pitch": 61, "duration": 1, "velocity": 78}, {"time": 878, "pitch": 49, "duration": 21, "velocity": 101}, {"time": 878, "pitch": 61, "duration": 6, "velocity": 96}, {"time": 878, "pitch": 65, "duration": 6, "velocity": 96}, {"time": 884, "pitch": 56, "duration": 6, "velocity": 55}, {"time": 890, "pitch": 61, "duration": 6, "velocity": 101}, {"time": 890, "pitch": 65, "duration": 9, "velocity": 106}, {"time": 890, "pitch": 68, "duration": 10, "velocity": 101}, {"time": 896, "pitch": 56, "duration": 4, "velocity": 89}, {"time": 899, "pitch": 61, "duration": 1, "velocity": 89}, {"time": 902, "pitch": 51, "duration": 20, "velocity": 109}, {"time": 902, "pitch": 63, "duration": 7, "velocity": 109}, {"time": 902, "pitch": 66, "duration": 6, "velocity": 109}, {"time": 908, "pitch": 58, "duration": 7, "velocity": 78}, {"time": 914, "pitch": 63, "duration": 10, "velocity": 106}, {"time": 914, "pitch": 66, "duration": 10, "velocity": 112}, {"time": 914, "pitch": 70, "duration": 10, "velocity": 106}, {"time": 920, "pitch": 58, "duration": 4, "velocity": 94}, {"time": 926, "pitch": 51, "duration": 17, "velocity": 109}, {"time": 926, "pitch": 63, "duration": 6, "velocity": 94}, {"time": 926, "pitch": 66, "duration": 6, "velocity": 109}, {"time": 926, "pitch": 70, "duration": 6, "velocity": 104}, {"time": 932, "pitch": 58, "duration": 6, "velocity": 76}, {"time": 935, "pitch": 63, "duration": 1, "velocity": 99}, {"time": 938, "pitch": 63, "duration": 5, "velocity": 112}, {"time": 938, "pitch": 66, "duration": 5, "velocity": 112}, {"time": 938, "pitch": 70, "duration": 10, "velocity": 109}, {"time": 950, "pitch": 49, "duration": 22, "velocity": 101}, {"time": 950, "pitch": 61, "duration": 6, "velocity": 101}, {"time": 950, "pitch": 65, "duration": 6, "velocity": 101}, {"time": 950, "pitch": 68, "duration": 6, "velocity": 101}, {"time": 956, "pitch": 56, "duration": 6, "velocity": 69}, {"time": 962, "pitch": 61, "duration": 3, "velocity": 109}, {"time": 962, "pitch": 68, "duration": 3, "velocity": 109}, {"time": 965, "pitch": 56, "duration": 6, "velocity": 74}, {"time": 968, "pitch": 65, "duration": 2, "velocity": 96}, {"time": 971, "pitch": 61, "duration": 1, "velocity": 78}, {"time": 974, "pitch": 49, "duration": 21, "velocity": 101}, {"time": 974, "pitch": 61, "duration": 6, "velocity": 96}, {"time": 974, "pitch": 65, "duration": 6, "velocity": 96}, {"time": 980, "pitch": 56, "duration": 6, "velocity": 55}, {"time": 986, "pitch": 61, "duration": 6, "velocity": 101}, {"time": 986, "pitch": 65, "duration": 9, "velocity": 106}, {"time": 986, "pitch": 68, "duration": 10, "velocity": 101}, {"time": 992, "pitch": 56, "duration": 4, "velocity": 89}, {"time": 995, "pitch": 61, "duration": 1, "velocity": 89}, {"time": 998, "pitch": 51, "duration": 20, "velocity": 109}, {"time": 998, "pitch": 63, "duration": 7, "velocity": 109}, {"time": 998, "pitch": 66, "duration": 6, "velocity": 109}, {"time": 1004, "pitch": 58, "duration": 7, "velocity": 78}, {"time": 1010, "pitch": 63, "duration": 10, "velocity": 106}, {"time": 1010, "pitch": 66, "duration": 10, "velocity": 112}, {"time": 1010, "pitch": 70, "duration": 10, "velocity": 106}, {"time": 1016, "pitch": 58, "duration": 4, "velocity": 94}, {"time": 1022, "pitch": 39, "duration": 12, "velocity": 96}, {"time": 1022, "pitch": 58, "duration": 3, "velocity": 104}, {"time": 1022, "pitch": 63, "duration": 7, "velocity": 104}, {"time": 1028, "pitch": 58, "duration": 6, "velocity": 87}, {"time": 1034, "pitch": 63, "duration": 6, "velocity": 112}, {"time": 1034, "pitch": 66, "duration": 9, "velocity": 109}, {"time": 1040, "pitch": 58, "duration": 1, "velocity": 104}, {"time": 1046, "pitch": 47, "duration": 13, "velocity": 77}, {"time": 1046, "pitch": 59, "duration": 3, "velocity": 86}, {"time": 1046, "pitch": 63, "duration": 6, "velocity": 106}, {"time": 1046, "pitch": 66, "duration": 7, "velocity": 99}, {"time": 1052, "pitch": 59, "duration": 3, "velocity": 96}, {"time": 1058, "pitch": 59, "duration": 4, "velocity": 110}, {"time": 1058, "pitch": 63, "duration": 4, "velocity": 109}, {"time": 1058, "pitch": 66, "duration": 6, "velocity": 104}, {"time": 1070, "pitch": 49, "duration": 16, "velocity": 99}, {"time": 1070, "pitch": 56, "duration": 3, "velocity": 87}, {"time": 1070, "pitch": 61, "duration": 7, "velocity": 96}, {"time": 1076, "pitch": 56, "duration": 6, "velocity": 99}, {"time": 1082, "pitch": 61, "duration": 8, "velocity": 106}, {"time": 1082, "pitch": 65, "duration": 8, "velocity": 104}, {"time": 1088, "pitch": 56, "duration": 2, "velocity": 101}, {"time": 1094, "pitch": 42, "duration": 16, "velocity": 99}, {"time": 1094, "pitch": 58, "duration": 2, "velocity": 101}, {"time": 1094, "pitch": 61, "duration": 7, "velocity": 94}, {"time": 1100, "pitch": 58, "duration": 6, "velocity": 91}, {"time": 1106, "pitch": 61, "duration": 6, "velocity": 104}, {"time": 1106, "pitch": 66, "duration": 6, "velocity": 106}, {"time": 1112, "pitch": 58, "duration": 1, "velocity": 104}, {"time": 1118, "pitch": 47, "duration": 14, "velocity": 104}, {"time": 1118, "pitch": 59, "duration": 12, "velocity": 101}, {"time": 1118, "pitch": 63, "duration": 7, "velocity": 109}, {"time": 1124, "pitch": 54, "duration": 8, "velocity": 55}, {"time": 1130, "pitch": 63, "duration": 6, "velocity": 109}, {"time": 1130, "pitch": 66, "duration": 9, "velocity": 106}, {"time": 1136, "pitch": 59, "duration": 2, "velocity": 110}, {"time": 1142, "pitch": 49, "duration": 17, "velocity": 91}, {"time": 1142, "pitch": 56, "duration": 3, "velocity": 101}, {"time": 1142, "pitch": 61, "duration": 7, "velocity": 101}, {"time": 1148, "pitch": 56, "duration": 6, "velocity": 85}, {"time": 1154, "pitch": 61, "duration": 9, "velocity": 109}, {"time": 1154, "pitch": 65, "duration": 10, "velocity": 109}, {"time": 1160, "pitch": 56, "duration": 2, "velocity": 101}, {"time": 1166, "pitch": 39, "duration": 21, "velocity": 101}, {"time": 1166, "pitch": 58, "duration": 3, "velocity": 106}, {"time": 1166, "pitch": 63, "duration": 6, "velocity": 101}, {"time": 1172, "pitch": 58, "duration": 6, "velocity": 94}, {"time": 1178, "pitch": 63, "duration": 4, "velocity": 112}, {"time": 1178, "pitch": 66, "duration": 9, "velocity": 109}, {"time": 1184, "pitch": 58, "duration": 3, "velocity": 43}, {"time": 1190, "pitch": 39, "duration": 16, "velocity": 91}, {"time": 1190, "pitch": 58, "duration": 10, "velocity": 89}, {"time": 1190, "pitch": 63, "duration": 8, "velocity": 99}, {"time": 1202, "pitch": 63, "duration": 5, "velocity": 101}, {"time": 1202, "pitch": 66, "duration": 6, "velocity": 101}, {"time": 1214, "pitch": 51, "duration": 13, "velocity": 99}, {"time": 1214, "pitch": 58, "duration": 3, "velocity": 99}, {"time": 1214, "pitch": 63, "duration": 7, "velocity": 101}, {"time": 1220, "pitch": 58, "duration": 6, "velocity": 87}, {"time": 1226, "pitch": 63, "duration": 6, "velocity": 106}, {"time": 1226, "pitch": 66, "duration": 8, "velocity": 109}, {"time": 1232, "pitch": 58, "duration": 2, "velocity": 101}, {"time": 1238, "pitch": 49, "duration": 13, "velocity": 87}, {"time": 1238, "pitch": 61, "duration": 8, "velocity": 76}, {"time": 1238, "pitch": 65, "duration": 6, "velocity": 99}, {"time": 1244, "pitch": 56, "duration": 6, "velocity": 58}, {"time": 1250, "pitch": 61, "duration": 2, "velocity": 99}, {"time": 1250, "pitch": 65, "duration": 6, "velocity": 106}, {"time": 1250, "pitch": 68, "duration": 6, "velocity": 101}, {"time": 1256, "pitch": 61, "duration": 1, "velocity": 71}, {"time": 1262, "pitch": 47, "duration": 6, "velocity": 107}, {"time": 1262, "pitch": 59, "duration": 4, "velocity": 93}, {"time": 1262, "pitch": 63, "duration": 6, "velocity": 106}, {"time": 1274, "pitch": 49, "duration": 6, "velocity": 104}, {"time": 1274, "pitch": 61, "duration": 6, "velocity": 91}, {"time": 1274, "pitch": 65, "duration": 6, "velocity": 104}, {"time": 1286, "pitch": 42, "duration": 17, "velocity": 104}, {"time": 1286, "pitch": 54, "duration": 6, "velocity": 101}, {"time": 1286, "pitch": 58, "duration": 6, "velocity": 104}, {"time": 1292, "pitch": 49, "duration": 9, "velocity": 76}, {"time": 1298, "pitch": 54, "duration": 2, "velocity": 99}, {"time": 1298, "pitch": 58, "duration": 6, "velocity": 112}, {"time": 1298, "pitch": 61, "duration": 7, "velocity": 104}, {"time": 1304, "pitch": 54, "duration": 2, "velocity": 104}, {"time": 1310, "pitch": 44, "duration": 15, "velocity": 104}, {"time": 1310, "pitch": 56, "duration": 9, "velocity": 99}, {"time": 1310, "pitch": 59, "duration": 6, "velocity": 101}, {"time": 1316, "pitch": 51, "duration": 7, "velocity": 51}, {"time": 1322, "pitch": 59, "duration": 7, "velocity": 117}, {"time": 1322, "pitch": 63, "duration": 7, "velocity": 109}, {"time": 1328, "pitch": 56, "duration": 2, "velocity": 104}, {"time": 1334, "pitch": 51, "duration": 13, "velocity": 96}, {"time": 1334, "pitch": 58, "duration": 3, "velocity": 104}, {"time": 1334, "pitch": 63, "duration": 7, "velocity": 109}, {"time": 1340, "pitch": 58, "duration": 2, "velocity": 78}, {"time": 1346, "pitch": 58, "duration": 2, "velocity": 104}, {"time": 1346, "pitch": 63, "duration": 6, "velocity": 109}, {"time": 1346, "pitch": 66, "duration": 6, "velocity": 101}, {"time": 1352, "pitch": 58, "duration": 1, "velocity": 38}, {"time": 1358, "pitch": 47, "duration": 1, "velocity": 113}, {"time": 1358, "pitch": 59, "duration": 3, "velocity": 107}, {"time": 1358, "pitch": 63, "duration": 3, "velocity": 109}, {"time": 1358, "pitch": 66, "duration": 4, "velocity": 101}, {"time": 1370, "pitch": 49, "duration": 4, "velocity": 101}, {"time": 1370, "pitch": 61, "duration": 4, "velocity": 101}, {"time": 1370, "pitch": 65, "duration": 3, "velocity": 109}, {"time": 1382, "pitch": 46, "duration": 19, "velocity": 104}, {"time": 1382, "pitch": 58, "duration": 6, "velocity": 91}, {"time": 1382, "pitch": 62, "duration": 6, "velocity": 107}, {"time": 1382, "pitch": 65, "duration": 4, "velocity": 101}, {"time": 1388, "pitch": 53, "duration": 11, "velocity": 89}, {"time": 1394, "pitch": 62, "duration": 11, "velocity": 120}, {"time": 1394, "pitch": 65, "duration": 11, "velocity": 106}, {"time": 1394, "pitch": 70, "duration": 11, "velocity": 104}, {"time": 1400, "pitch": 58, "duration": 4, "velocity": 106}, {"time": 1406, "pitch": 51, "duration": 13, "velocity": 99}, {"time": 1406, "pitch": 58, "duration": 3, "velocity": 99}, {"time": 1406, "pitch": 63, "duration": 7, "velocity": 101}, {"time": 1412, "pitch": 58, "duration": 6, "velocity": 87}, {"time": 1418, "pitch": 63, "duration": 6, "velocity": 106}, {"time": 1418, "pitch": 66, "duration": 8, "velocity": 109}, {"time": 1424, "pitch": 58, "duration": 2, "velocity": 101}, {"time": 1430, "pitch": 49, "duration": 13, "velocity": 87}, {"time": 1430, "pitch": 61, "duration": 8, "velocity": 76}, {"time": 1430, "pitch": 65, "duration": 6, "velocity": 99}, {"time": 1436, "pitch": 56, "duration": 6, "velocity": 58}, {"time": 1442, "pitch": 61, "duration": 2, "velocity": 99}, {"time": 1442, "pitch": 65, "duration": 6, "velocity": 106}, {"time": 1442, "pitch": 68, "duration": 6, "velocity": 101}, {"time": 1448, "pitch": 61, "duration": 1, "velocity": 71}, {"time": 1454, "pitch": 47, "duration": 6, "velocity": 107}, {"time": 1454, "pitch": 59, "duration": 4, "velocity": 93}, {"time": 1454, "pitch": 63, "duration": 6, "velocity": 106}, {"time": 1466, "pitch": 49, "duration": 6, "velocity": 104}, {"time": 1466, "pitch": 61, "duration": 6, "velocity": 91}, {"time": 1466, "pitch": 65, "duration": 6, "velocity": 104}, {"time": 1478, "pitch": 42, "duration": 17, "velocity": 104}, {"time": 1478, "pitch": 54, "duration": 6, "velocity": 101}, {"time": 1478, "pitch": 58, "duration": 6, "velocity": 104}, {"time": 1484, "pitch": 49, "duration": 9, "velocity": 76}, {"time": 1490, "pitch": 54, "duration": 2, "velocity": 99}, {"time": 1490, "pitch": 58, "duration": 6, "velocity": 112}, {"time": 1490, "pitch": 61, "duration": 7, "velocity": 104}, {"time": 1496, "pitch": 54, "duration": 2, "velocity": 104}, {"time": 1502, "pitch": 44, "duration": 15, "velocity": 104}, {"time": 1502, "pitch": 56, "duration": 9, "velocity": 99}, {"time": 1502, "pitch": 59, "duration": 6, "velocity": 101}, {"time": 1508, "pitch": 51, "duration": 7, "velocity": 51}, {"time": 1514, "pitch": 59, "duration": 7, "velocity": 117}, {"time": 1514, "pitch": 63, "duration": 7, "velocity": 109}, {"time": 1520, "pitch": 56, "duration": 2, "velocity": 104}, {"time": 1526, "pitch": 51, "duration": 13, "velocity": 96}, {"time": 1526, "pitch": 58, "duration": 3, "velocity": 104}, {"time": 1526, "pitch": 63, "duration": 7, "velocity": 109}, {"time": 1532, "pitch": 58, "duration": 2, "velocity": 78}, {"time": 1538, "pitch": 58, "duration": 2, "velocity": 104}, {"time": 1538, "pitch": 63, "duration": 6, "velocity": 109}, {"time": 1538, "pitch": 66, "duration": 6, "velocity": 101}, {"time": 1544, "pitch": 58, "duration": 1, "velocity": 38}, {"time": 1550, "pitch": 47, "duration": 1, "velocity": 113}, {"time": 1550, "pitch": 59, "duration": 3, "velocity": 107}, {"time": 1550, "pitch": 63, "duration": 3, "velocity": 109}, {"time": 1550, "pitch": 66, "duration": 4, "velocity": 101}, {"time": 1562, "pitch": 49, "duration": 4, "velocity": 101}, {"time": 1562, "pitch": 61, "duration": 4, "velocity": 101}, {"time": 1562, "pitch": 65, "duration": 3, "velocity": 109}, {"time": 1574, "pitch": 46, "duration": 19, "velocity": 104}, {"time": 1574, "pitch": 58, "duration": 6, "velocity": 91}, {"time": 1574, "pitch": 62, "duration": 6, "velocity": 107}, {"time": 1574, "pitch": 65, "duration": 4, "velocity": 101}, {"time": 1580, "pitch": 53, "duration": 11, "velocity": 89}, {"time": 1586, "pitch": 62, "duration": 11, "velocity": 120}, {"time": 1586, "pitch": 65, "duration": 11, "velocity": 106}, {"time": 1586, "pitch": 70, "duration": 11, "velocity": 104}, {"time": 1592, "pitch": 58, "duration": 4, "velocity": 106}, {"time": 1598, "pitch": 39, "duration": 1, "velocity": 106}, {"time": 1598, "pitch": 63, "duration": 5, "velocity": 106}, {"time": 1598, "pitch": 66, "duration": 6, "velocity": 104}, {"time": 1604, "pitch": 51, "duration": 16, "velocity": 94}, {"time": 1610, "pitch": 63, "duration": 7, "velocity": 112}, {"time": 1610, "pitch": 66, "duration": 7, "velocity": 115}, {"time": 1616, "pitch": 58, "duration": 4, "velocity": 80}, {"time": 1622, "pitch": 51, "duration": 16, "velocity": 104}, {"time": 1622, "pitch": 58, "duration": 12, "velocity": 104}, {"time": 1622, "pitch": 63, "duration": 10, "velocity": 99}, {"time": 1622, "pitch": 66, "duration": 6, "velocity": 104}, {"time": 1622, "pitch": 70, "duration": 6, "velocity": 104}, {"time": 1634, "pitch": 63, "duration": 10, "velocity": 112}, {"time": 1634, "pitch": 66, "duration": 10, "velocity": 115}, {"time": 1634, "pitch": 70, "duration": 10, "velocity": 109}, {"time": 1646, "pitch": 51, "duration": 17, "velocity": 109}, {"time": 1646, "pitch": 63, "duration": 6, "velocity": 94}, {"time": 1646, "pitch": 66, "duration": 6, "velocity": 109}, {"time": 1646, "pitch": 70, "duration": 6, "velocity": 104}, {"time": 1652, "pitch": 58, "duration": 6, "velocity": 76}, {"time": 1655, "pitch": 63, "duration": 1, "velocity": 99}, {"time": 1658, "pitch": 63, "duration": 5, "velocity": 112}, {"time": 1658, "pitch": 66, "duration": 5, "velocity": 112}, {"time": 1658, "pitch": 70, "duration": 10, "velocity": 109}, {"time": 1670, "pitch": 49, "duration": 22, "velocity": 101}, {"time": 1670, "pitch": 61, "duration": 6, "velocity": 101}, {"time": 1670, "pitch": 65, "duration": 6, "velocity": 101}, {"time": 1670, "pitch": 68, "duration": 6, "velocity": 101}, {"time": 1676, "pitch": 56, "duration": 6, "velocity": 69}, {"time": 1682, "pitch": 61, "duration": 3, "velocity": 109}, {"time": 1682, "pitch": 68, "duration": 3, "velocity": 109}, {"time": 1685, "pitch": 56, "duration": 6, "velocity": 74}, {"time": 1688, "pitch": 65, "duration": 2, "velocity": 96}, {"time": 1691, "pitch": 61, "duration": 1, "velocity": 78}, {"time": 1694, "pitch": 49, "duration": 21, "velocity": 101}, {"time": 1694, "pitch": 61, "duration": 6, "velocity": 96}, {"time": 1694, "pitch": 65, "duration": 6, "velocity": 96}, {"time": 1700, "pitch": 56, "duration": 6, "velocity": 55}, {"time": 1706, "pitch": 61, "duration": 6, "velocity": 101}, {"time": 1706, "pitch": 65, "duration": 9, "velocity": 106}, {"time": 1706, "pitch": 68, "duration": 10, "velocity": 101}, {"time": 1712, "pitch": 56, "duration": 4, "velocity": 89}, {"time": 1715, "pitch": 61, "duration": 1, "velocity": 89}, {"time": 1718, "pitch": 51, "duration": 20, "velocity": 109}, {"time": 1718, "pitch": 63, "duration": 7, "velocity": 109}, {"time": 1718, "pitch": 66, "duration": 6, "velocity": 109}, {"time": 1724, "pitch": 58, "duration": 7, "velocity": 78}, {"time": 1730, "pitch": 63, "duration": 10, "velocity": 106}, {"time": 1730, "pitch": 66, "duration": 10, "velocity": 112}, {"time": 1730, "pitch": 70, "duration": 10, "velocity": 106}, {"time": 1736, "pitch": 58, "duration": 4, "velocity": 94}, {"time": 1742, "pitch": 51, "duration": 17, "velocity": 109}, {"time": 1742, "pitch": 63, "duration": 6, "velocity": 94}, {"time": 1742, "pitch": 66, "duration": 6, "velocity": 109}, {"time": 1742, "pitch": 70, "duration": 6, "velocity": 104}, {"time": 1748, "pitch": 58, "duration": 6, "velocity": 76}, {"time": 1751, "pitch": 63, "duration": 1, "velocity": 99}, {"time": 1754, "pitch": 63, "duration": 5, "velocity": 112}, {"time": 1754, "pitch": 66, "duration": 5, "velocity": 112}, {"time": 1754, "pitch": 70, "duration": 10, "velocity": 109}, {"time": 1766, "pitch": 49, "duration": 22, "velocity": 101}, {"time": 1766, "pitch": 61, "duration": 6, "velocity": 101}, {"time": 1766, "pitch": 65, "duration": 6, "velocity": 101}, {"time": 1766, "pitch": 68, "duration": 6, "velocity": 101}, {"time": 1772, "pitch": 56, "duration": 6, "velocity": 69}, {"time": 1778, "pitch": 61, "duration": 3, "velocity": 109}, {"time": 1778, "pitch": 68, "duration": 3, "velocity": 109}, {"time": 1781, "pitch": 56, "duration": 6, "velocity": 74}, {"time": 1784, "pitch": 65, "duration": 2, "velocity": 96}, {"time": 1787, "pitch": 61, "duration": 1, "velocity": 78}, {"time": 1790, "pitch": 49, "duration": 21, "velocity": 101}, {"time": 1790, "pitch": 61, "duration": 6, "velocity": 96}, {"time": 1790, "pitch": 65, "duration": 6, "velocity": 96}, {"time": 1796, "pitch": 56, "duration": 6, "velocity": 55}, {"time": 1802, "pitch": 61, "duration": 6, "velocity": 101}, {"time": 1802, "pitch": 65, "duration": 9, "velocity": 106}, {"time": 1802, "pitch": 68, "duration": 10, "velocity": 101}, {"time": 1808, "pitch": 56, "duration": 4, "velocity": 89}, {"time": 1811, "pitch": 61, "duration": 1, "velocity": 89}, {"time": 1814, "pitch": 51, "duration": 20, "velocity": 109}, {"time": 1814, "pitch": 63, "duration": 7, "velocity": 109}, {"time": 1814, "pitch": 66, "duration": 6, "velocity": 109}, {"time": 1820, "pitch": 58, "duration": 7, "velocity": 78}, {"time": 1826, "pitch": 63, "duration": 10, "velocity": 106}, {"time": 1826, "pitch": 66, "duration": 10, "velocity": 112}, {"time": 1826, "pitch": 70, "duration": 10, "velocity": 106}, {"time": 1832, "pitch": 58, "duration": 4, "velocity": 94}, {"time": 1838, "pitch": 51, "duration": 17, "velocity": 109}, {"time": 1838, "pitch": 63, "duration": 6, "velocity": 94}, {"time": 1838, "pitch": 66, "duration": 6, "velocity": 109}, {"time": 1838, "pitch": 70, "duration": 6, "velocity": 104}, {"time": 1844, "pitch": 58, "duration": 6, "velocity": 76}, {"time": 1847, "pitch": 63, "duration": 1, "velocity": 99}, {"time": 1850, "pitch": 63, "duration": 5, "velocity": 112}, {"time": 1850, "pitch": 66, "duration": 5, "velocity": 112}, {"time": 1850, "pitch": 70, "duration": 10, "velocity": 109}, {"time": 1862, "pitch": 49, "duration": 22, "velocity": 101}, {"time": 1862, "pitch": 61, "duration": 6, "velocity": 101}, {"time": 1862, "pitch": 65, "duration": 6, "velocity": 101}, {"time": 1862, "pitch": 68, "duration": 6, "velocity": 101}, {"time": 1868, "pitch": 56, "duration": 6, "velocity": 69}, {"time": 1874, "pitch": 61, "duration": 3, "velocity": 109}, {"time": 1874, "pitch": 68, "duration": 3, "velocity": 109}, {"time": 1877, "pitch": 56, "duration": 6, "velocity": 74}, {"time": 1880, "pitch": 65, "duration": 2, "velocity": 96}, {"time": 1883, "pitch": 61, "duration": 1, "velocity": 78}, {"time": 1886, "pitch": 49, "duration": 21, "velocity": 101}, {"time": 1886, "pitch": 61, "duration": 6, "velocity": 96}, {"time": 1886, "pitch": 65, "duration": 6, "velocity": 96}, {"time": 1892, "pitch": 56, "duration": 6, "velocity": 55}, {"time": 1898, "pitch": 61, "duration": 6, "velocity": 101}, {"time": 1898, "pitch": 65, "duration": 9, "velocity": 106}, {"time": 1898, "pitch": 68, "duration": 10, "velocity": 101}, {"time": 1904, "pitch": 56, "duration": 4, "velocity": 89}, {"time": 1907, "pitch": 61, "duration": 1, "velocity": 89}, {"time": 1910, "pitch": 51, "duration": 20, "velocity": 109}, {"time": 1910, "pitch": 63, "duration": 7, "velocity": 109}, {"time": 1910, "pitch": 66, "duration": 6, "velocity": 109}, {"time": 1916, "pitch": 58, "duration": 7, "velocity": 78}, {"time": 1922, "pitch": 63, "duration": 10, "velocity": 106}, {"time": 1922, "pitch": 66, "duration": 10, "velocity": 112}, {"time": 1922, "pitch": 70, "duration": 10, "velocity": 106}, {"time": 1928, "pitch": 58, "duration": 4, "velocity": 94}, {"time": 1934, "pitch": 51, "duration": 17, "velocity": 109}, {"time": 1934, "pitch": 63, "duration": 6, "velocity": 94}, {"time": 1934, "pitch": 66, "duration": 6, "velocity": 109}, {"time": 1934, "pitch": 70, "duration": 6, "velocity": 104}, {"time": 1940, "pitch": 58, "duration": 6, "velocity": 76}, {"time": 1943, "pitch": 63, "duration": 1, "velocity": 99}, {"time": 1946, "pitch": 63, "duration": 5, "velocity": 112}, {"time": 1946, "pitch": 66, "duration": 5, "velocity": 112}, {"time": 1946, "pitch": 70, "duration": 10, "velocity": 109}, {"time": 1958, "pitch": 49, "duration": 22, "velocity": 101}, {"time": 1958, "pitch": 61, "duration": 6, "velocity": 101}, {"time": 1958, "pitch": 65, "duration": 6, "velocity": 101}, {"time": 1958, "pitch": 68, "duration": 6, "velocity": 101}, {"time": 1964, "pitch": 56, "duration": 6, "velocity": 69}, {"time": 1970, "pitch": 61, "duration": 3, "velocity": 109}, {"time": 1970, "pitch": 68, "duration": 3, "velocity": 109}, {"time": 1973, "pitch": 56, "duration": 6, "velocity": 74}, {"time": 1976, "pitch": 65, "duration": 2, "velocity": 96}, {"time": 1979, "pitch": 61, "duration": 1, "velocity": 78}, {"time": 1982, "pitch": 49, "duration": 21, "velocity": 101}, {"time": 1982, "pitch": 61, "duration": 6, "velocity": 96}, {"time": 1982, "pitch": 65, "duration": 6, "velocity": 96}, {"time": 1988, "pitch": 56, "duration": 6, "velocity": 55}, {"time": 1994, "pitch": 61, "duration": 6, "velocity": 101}, {"time": 1994, "pitch": 65, "duration": 9, "velocity": 106}, {"time": 1994, "pitch": 68, "duration": 10, "velocity": 101}, {"time": 2000, "pitch": 56, "duration": 4, "velocity": 89}, {"time": 2003, "pitch": 61, "duration": 1, "velocity": 89}, {"time": 2006, "pitch": 51, "duration": 20, "velocity": 109}, {"time": 2006, "pitch": 63, "duration": 7, "velocity": 109}, {"time": 2006, "pitch": 66, "duration": 6, "velocity": 109}, {"time": 2012, "pitch": 58, "duration": 7, "velocity": 78}, {"time": 2018, "pitch": 63, "duration": 10, "velocity": 106}, {"time": 2018, "pitch": 66, "duration": 10, "velocity": 112}, {"time": 2018, "pitch": 70, "duration": 10, "velocity": 106}, {"time": 2024, "pitch": 58, "duration": 4, "velocity": 94}, {"time": 2030, "pitch": 51, "duration": 17, "velocity": 109}, {"time": 2030, "pitch": 63, "duration": 6, "velocity": 94}, {"time": 2030, "pitch": 66, "duration": 6, "velocity": 109}, {"time": 2030, "pitch": 70, "duration": 6, "velocity": 104}, {"time": 2036, "pitch": 58, "duration": 6, "velocity": 76}, {"time": 2039, "pitch": 63, "duration": 1, "velocity": 99}, {"time": 2042, "pitch": 63, "duration": 5, "velocity": 112}, {"time": 2042, "pitch": 66, "duration": 5, "velocity": 112}, {"time": 2042, "pitch": 70, "duration": 10, "velocity": 109}, {"time": 2054, "pitch": 49, "duration": 22, "velocity": 101}, {"time": 2054, "pitch": 61, "duration": 6, "velocity": 101}, {"time": 2054, "pitch": 65, "duration": 6, "velocity": 101}, {"time": 2054, "pitch": 68, "duration": 6, "velocity": 101}, {"time": 2060, "pitch": 56, "duration": 6, "velocity": 69}, {"time": 2066, "pitch": 61, "duration": 3, "velocity": 109}, {"time": 2066, "pitch": 68, "duration": 3, "velocity": 109}, {"time": 2069, "pitch": 56, "duration": 6, "velocity": 74}, {"time": 2072, "pitch": 65, "duration": 2, "velocity": 96}, {"time": 2075, "pitch": 61, "duration": 1, "velocity": 78}, {"time": 2078, "pitch": 49, "duration": 21, "velocity": 101}, {"time": 2078, "pitch": 61, "duration": 6, "velocity": 96}, {"time": 2078, "pitch": 65, "duration": 6, "velocity": 96}, {"time": 2084, "pitch": 56, "duration": 6, "velocity": 55}, {"time": 2090, "pitch": 61, "duration": 6, "velocity": 101}, {"time": 2090, "pitch": 65, "duration": 9, "velocity": 106}, {"time": 2090, "pitch": 68, "duration": 10, "velocity": 101}, {"time": 2096, "pitch": 56, "duration": 4, "velocity": 89}, {"time": 2099, "pitch": 61, "duration": 1, "velocity": 89}, {"time": 2102, "pitch": 51, "duration": 20, "velocity": 109}, {"time": 2102, "pitch": 63, "duration": 7, "velocity": 109}, {"time": 2102, "pitch": 66, "duration": 6, "velocity": 109}, {"time": 2108, "pitch": 58, "duration": 7, "velocity": 78}, {"time": 2114, "pitch": 63, "duration": 10, "velocity": 106}, {"time": 2114, "pitch": 66, "duration": 10, "velocity": 112}, {"time": 2114, "pitch": 70, "duration": 10, "velocity": 106}, {"time": 2120, "pitch": 58, "duration": 4, "velocity": 94}, {"time": 2126, "pitch": 51, "duration": 17, "velocity": 109}, {"time": 2126, "pitch": 63, "duration": 6, "velocity": 94}, {"time": 2126, "pitch": 66, "duration": 6, "velocity": 109}, {"time": 2126, "pitch": 70, "duration": 6, "velocity": 104}, {"time": 2132, "pitch": 58, "duration": 6, "velocity": 76}, {"time": 2135, "pitch": 63, "duration": 1, "velocity": 99}, {"time": 2138, "pitch": 63, "duration": 5, "velocity": 112}, {"time": 2138, "pitch": 66, "duration": 5, "velocity": 112}, {"time": 2138, "pitch": 70, "duration": 10, "velocity": 109}, {"time": 2150, "pitch": 49, "duration": 22, "velocity": 101}, {"time": 2150, "pitch": 61, "duration": 6, "velocity": 101}, {"time": 2150, "pitch": 65, "duration": 6, "velocity": 101}, {"time": 2150, "pitch": 68, "duration": 6, "velocity": 101}, {"time": 2156, "pitch": 56, "duration": 6, "velocity": 69}, {"time": 2162, "pitch": 61, "duration": 3, "velocity": 109}, {"time": 2162, "pitch": 68, "duration": 3, "velocity": 109}, {"time": 2165, "pitch": 56, "duration": 6, "velocity": 74}, {"time": 2168, "pitch": 65, "duration": 2, "velocity": 96}, {"time": 2171, "pitch": 61, "duration": 1, "velocity": 78}, {"time": 2174, "pitch": 49, "duration": 21, "velocity": 101}, {"time": 2174, "pitch": 61, "duration": 6, "velocity": 96}, {"time": 2174, "pitch": 65, "duration": 6, "velocity": 96}, {"time": 2180, "pitch": 56, "duration": 6, "velocity": 55}, {"time": 2186, "pitch": 61, "duration": 6, "velocity": 101}, {"time": 2186, "pitch": 65, "duration": 9, "velocity": 106}, {"time": 2186, "pitch": 68, "duration": 10, "velocity": 101}, {"time": 2192, "pitch": 56, "duration": 4, "velocity": 89}, {"time": 2195, "pitch": 61, "duration": 1, "velocity": 89}, {"time": 2198, "pitch": 51, "duration": 20, "velocity": 109}, {"time": 2198, "pitch": 63, "duration": 7, "velocity": 109}, {"time": 2198, "pitch": 66, "duration": 6, "velocity": 109}, {"time": 2204, "pitch": 58, "duration": 7, "velocity": 78}, {"time": 2210, "pitch": 63, "duration": 10, "velocity": 106}, {"time": 2210, "pitch": 66, "duration": 10, "velocity": 112}, {"time": 2210, "pitch": 70, "duration": 10, "velocity": 106}, {"time": 2216, "pitch": 58, "duration": 4, "velocity": 94}, {"time": 2222, "pitch": 51, "duration": 17, "velocity": 109}, {"time": 2222, "pitch": 63, "duration": 6, "velocity": 94}, {"time": 2222, "pitch": 66, "duration": 6, "velocity": 109}, {"time": 2222, "pitch": 70, "duration": 6, "velocity": 104}, {"time": 2228, "pitch": 58, "duration": 6, "velocity": 76}, {"time": 2231, "pitch": 63, "duration": 1, "velocity": 99}, {"time": 2234, "pitch": 63, "duration": 5, "velocity": 112}, {"time": 2234, "pitch": 66, "duration": 5, "velocity": 112}, {"time": 2234, "pitch": 70, "duration": 10, "velocity": 109}, {"time": 2246, "pitch": 49, "duration": 22, "velocity": 101}, {"time": 2246, "pitch": 61, "duration": 6, "velocity": 101}, {"time": 2246, "pitch": 65, "duration": 6, "velocity": 101}, {"time": 2246, "pitch": 68, "duration": 6, "velocity": 101}, {"time": 2252, "pitch": 56, "duration": 6, "velocity": 69}, {"time": 2258, "pitch": 61, "duration": 3, "velocity": 109}, {"time": 2258, "pitch": 68, "duration": 3, "velocity": 109}, {"time": 2261, "pitch": 56, "duration": 6, "velocity": 74}, {"time": 2264, "pitch": 65, "duration": 2, "velocity": 96}, {"time": 2267, "pitch": 61, "duration": 1, "velocity": 78}, {"time": 2270, "pitch": 49, "duration": 21, "velocity": 101}, {"time": 2270, "pitch": 61, "duration": 6, "velocity": 96}, {"time": 2270, "pitch": 65, "duration": 6, "velocity": 96}, {"time": 2276, "pitch": 56, "duration": 6, "velocity": 55}, {"time": 2282, "pitch": 61, "duration": 6, "velocity": 101}, {"time": 2282, "pitch": 65, "duration": 9, "velocity": 106}, {"time": 2282, "pitch": 68, "duration": 10, "velocity": 101}, {"time": 2288, "pitch": 56, "duration": 4, "velocity": 89}, {"time": 2291, "pitch": 61, "duration": 1, "velocity": 89}, {"time": 2294, "pitch": 51, "duration": 20, "velocity": 109}, {"time": 2294, "pitch": 63, "duration": 7, "velocity": 109}, {"time": 2294, "pitch": 66, "duration": 6, "velocity": 109}, {"time": 2300, "pitch": 58, "duration": 7, "velocity": 78}, {"time": 2306, "pitch": 63, "duration": 10, "velocity": 106}, {"time": 2306, "pitch": 66, "duration": 10, "velocity": 112}, {"time": 2306, "pitch": 70, "duration": 10, "velocity": 106}, {"time": 2312, "pitch": 58, "duration": 4, "velocity": 94}, {"time": 2318, "pitch": 51, "duration": 17, "velocity": 109}, {"time": 2318, "pitch": 63, "duration": 6, "velocity": 94}, {"time": 2318, "pitch": 66, "duration": 6, "velocity": 109}, {"time": 2318, "pitch": 70, "duration": 6, "velocity": 104}, {"time": 2324, "pitch": 58, "duration": 6, "velocity": 76}, {"time": 2327, "pitch": 63, "duration": 1, "velocity": 99}, {"time": 2330, "pitch": 63, "duration": 5, "velocity": 112}, {"time": 2330, "pitch": 66, "duration": 5, "velocity": 112}, {"time": 2330, "pitch": 70, "duration": 10, "velocity": 109}, {"time": 2342, "pitch": 49, "duration": 22, "velocity": 101}, {"time": 2342, "pitch": 61, "duration": 6, "velocity": 101}, {"time": 2342, "pitch": 65, "duration": 6, "velocity": 101}, {"time": 2342, "pitch": 68, "duration": 6, "velocity": 101}, {"time": 2348, "pitch": 56, "duration": 6, "velocity": 69}, {"time": 2354, "pitch": 61, "duration": 3, "velocity": 109}, {"time": 2354, "pitch": 68, "duration": 3, "velocity": 109}, {"time": 2357, "pitch": 56, "duration": 6, "velocity": 74}, {"time": 2360, "pitch": 65, "duration": 2, "velocity": 96}, {"time": 2363, "pitch": 61, "duration": 1, "velocity": 78}, {"time": 2366, "pitch": 49, "duration": 21, "velocity": 101}, {"time": 2366, "pitch": 61, "duration": 6, "velocity": 96}, {"time": 2366, "pitch": 65, "duration": 6, "velocity": 96}, {"time": 2372, "pitch": 56, "duration": 6, "velocity": 55}, {"time": 2378, "pitch": 61, "duration": 6, "velocity": 101}, {"time": 2378, "pitch": 65, "duration": 9, "velocity": 106}, {"time": 2378, "pitch": 68, "duration": 10, "velocity": 101}, {"time": 2384, "pitch": 56, "duration": 4, "velocity": 89}, {"time": 2387, "pitch": 61, "duration": 1, "velocity": 89}, {"time": 2390, "pitch": 51, "duration": 20, "velocity": 109}, {"time": 2390, "pitch": 63, "duration": 7, "velocity": 109}, {"time": 2390, "pitch": 66, "duration": 6, "velocity": 109}, {"time": 2396, "pitch": 58, "duration": 7, "velocity": 78}, {"time": 2402, "pitch": 63, "duration": 10, "velocity": 106}, {"time": 2402, "pitch": 66, "duration": 10, "velocity": 112}, {"time": 2402, "pitch": 70, "duration": 10, "velocity": 106}, {"time": 2408, "pitch": 58, "duration": 4, "velocity": 94}, {"time": 2414, "pitch": 39, "duration": 12, "velocity": 96}, {"time": 2414, "pitch": 58, "duration": 3, "velocity": 104}, {"time": 2414, "pitch": 63, "duration": 7, "velocity": 104}, {"time": 2420, "pitch": 58, "duration": 6, "velocity": 87}, {"time": 2426, "pitch": 63, "duration": 6, "velocity": 112}, {"time": 2426, "pitch": 66, "duration": 9, "velocity": 109}, {"time": 2432, "pitch": 58, "duration": 1, "velocity": 104}, {"time": 2438, "pitch": 47, "duration": 13, "velocity": 77}, {"time": 2438, "pitch": 59, "duration": 3, "velocity": 86}, {"time": 2438, "pitch": 63, "duration": 6, "velocity": 106}, {"time": 2438, "pitch": 66, "duration": 7, "velocity": 99}, {"time": 2444, "pitch": 59, "duration": 3, "velocity": 96}, {"time": 2450, "pitch": 59, "duration": 4, "velocity": 110}, {"time": 2450, "pitch": 63, "duration": 4, "velocity": 109}, {"time": 2450, "pitch": 66, "duration": 6, "velocity": 104}, {"time": 2462, "pitch": 49, "duration": 16, "velocity": 99}, {"time": 2462, "pitch": 56, "duration": 3, "velocity": 87}, {"time": 2462, "pitch": 61, "duration": 7, "velocity": 96}, {"time": 2468, "pitch": 56, "duration": 6, "velocity": 99}, {"time": 2474, "pitch": 61, "duration": 8, "velocity": 106}, {"time": 2474, "pitch": 65, "duration": 8, "velocity": 104}, {"time": 2480, "pitch": 56, "duration": 2, "velocity": 101}, {"time": 2486, "pitch": 42, "duration": 16, "velocity": 99}, {"time": 2486, "pitch": 58, "duration": 2, "velocity": 101}, {"time": 2486, "pitch": 61, "duration": 7, "velocity": 94}, {"time": 2492, "pitch": 58, "duration": 6, "velocity": 91}, {"time": 2498, "pitch": 61, "duration": 6, "velocity": 104}, {"time": 2498, "pitch": 66, "duration": 6, "velocity": 106}, {"time": 2504, "pitch": 58, "duration": 1, "velocity": 104}, {"time": 2510, "pitch": 47, "duration": 14, "velocity": 104}, {"time": 2510, "pitch": 59, "duration": 12, "velocity": 101}, {"time": 2510, "pitch": 63, "duration": 7, "velocity": 109}, {"time": 2516, "pitch": 54, "duration": 8, "velocity": 55}, {"time": 2522, "pitch": 63, "duration": 6, "velocity": 109}, {"time": 2522, "pitch": 66, "duration": 9, "velocity": 106}, {"time": 2528, "pitch": 59, "duration": 2, "velocity": 110}, {"time": 2534, "pitch": 49, "duration": 17, "velocity": 91}, {"time": 2534, "pitch": 56, "duration": 3, "velocity": 101}, {"time": 2534, "pitch": 61, "duration": 7, "velocity": 101}, {"time": 2540, "pitch": 56, "duration": 6, "velocity": 85}, {"time": 2546, "pitch": 61, "duration": 9, "velocity": 109}, {"time": 2546, "pitch": 65, "duration": 10, "velocity": 109}, {"time": 2552, "pitch": 56, "duration": 2, "velocity": 101}, {"time": 2558, "pitch": 39, "duration": 21, "velocity": 101}, {"time": 2558, "pitch": 58, "duration": 3, "velocity": 106}, {"time": 2558, "pitch": 63, "duration": 6, "velocity": 101}, {"time": 2564, "pitch": 58, "duration": 6, "velocity": 94}, {"time": 2570, "pitch": 63, "duration": 4, "velocity": 112}, {"time": 2570, "pitch": 66, "duration": 9, "velocity": 109}, {"time": 2576, "pitch": 58, "duration": 3, "velocity": 43}, {"time": 2582, "pitch": 51, "duration": 47, "velocity": 106}, {"time": 2585, "pitch": 58, "duration": 44, "velocity": 89}, {"time": 2586, "pitch": 63, "duration": 43, "velocity": 96}, {"time": 2588, "pitch": 66, "duration": 41, "velocity": 91}, {"time": 2589, "pitch": 70, "duration": 40, "velocity": 66}, {"time": 2589, "pitch": 75, "duration": 41, "velocity": 71}], "annotations": [{"time": 15, "annotation": {"number": 64, "value": 127}, "group": "control_change"}, {"time": 37, "annotation": {"number": 64, "value": 0}, "group": "control_change"}, {"time": 42, "annotation": {"number": 64, "value": 127}, "group": "control_change"}, {"time": 61, "annotation": {"number": 64, "value": 0}, "group": "control_change"}, {"time": 66, "annotation": {"number": 64, "value": 127}, "group": "control_change"}, {"time": 85, "annotation": {"number": 64, "value": 0}, "group": "control_change"}, {"time": 90, "annotation": {"number": 64, "value": 127}, "group": "control_change"}, {"time": 110, "annotation": {"number": 64, "value": 0}, "group": "control_change"}, {"time": 115, "annotation": {"number": 64, "value": 127}, "group": "control_change"}, {"time": 134, "annotation": {"number": 64, "value": 0}, "group": "control_change"}, {"time": 140, "annotation": {"number": 64, "value": 127}, "group": "control_change"}, {"time": 157, "annotation": {"number": 64, "value": 0}, "group": "control_change"}, {"time": 161, "annotation": {"number": 64, "value": 127}, "group": "control_change"}, {"time": 204, "annotation": {"number": 64, "value": 0}, "group": "control_change"}, {"time": 211, "annotation": {"number": 64, "value": 127}, "group": "control_change"}, {"time": 229, "annotation": {"number": 64, "value": 0}, "group": "control_change"}, {"time": 235, "annotation": {"number": 64, "value": 127}, "group": "control_change"}, {"time": 253, "annotation": {"number": 64, "value": 0}, "group": "control_change"}, {"time": 257, "annotation": {"number": 64, "value": 127}, "group": "control_change"}, {"time": 264, "annotation": {"number": 64, "value": 0}, "group": "control_change"}, {"time": 267, "annotation": {"number": 64, "value": 127}, "group": "control_change"}, {"time": 278, "annotation": {"number": 64, "value": 0}, "group": "control_change"}, {"time": 283, "annotation": {"number": 64, "value": 127}, "group": "control_change"}, {"time": 300, "annotation": {"number": 64, "value": 0}, "group": "control_change"}, {"time": 307, "annotation": {"number": 64, "value": 127}, "group": "control_change"}, {"time": 324, "annotation": {"number": 64, "value": 0}, "group": "control_change"}, {"time": 330, "annotation": {"number": 64, "value": 127}, "group": "control_change"}, {"time": 347, "annotation": {"number": 64, "value": 0}, "group": "control_change"}, {"time": 350, "annotation": {"number": 64, "value": 127}, "group": "control_change"}, {"time": 360, "annotation": {"number": 64, "value": 0}, "group": "control_change"}, {"time": 362, "annotation": {"number": 64, "value": 127}, "group": "control_change"}, {"time": 371, "annotation": {"number": 64, "value": 0}, "group": "control_change"}, {"time": 378, "annotation": {"number": 64, "value": 127}, "group": "control_change"}, {"time": 395, "annotation": {"number": 64, "value": 0}, "group": "control_change"}, {"time": 403, "annotation": {"number": 64, "value": 127}, "group": "control_change"}, {"time": 421, "annotation": {"number": 64, "value": 0}, "group": "control_change"}, {"time": 427, "annotation": {"number": 64, "value": 127}, "group": "control_change"}, {"time": 445, "annotation": {"number": 64, "value": 0}, "group": "control_change"}, {"time": 449, "annotation": {"number": 64, "value": 127}, "group": "control_change"}, {"time": 456, "annotation": {"number": 64, "value": 0}, "group": "control_change"}, {"time": 459, "annotation": {"number": 64, "value": 127}, "group": "control_change"}, {"time": 470, "annotation": {"number": 64, "value": 0}, "group": "control_change"}, {"time": 475, "annotation": {"number": 64, "value": 127}, "group": "control_change"}, {"time": 492, "annotation": {"number": 64, "value": 0}, "group": "control_change"}, {"time": 499, "annotation": {"number": 64, "value": 127}, "group": "control_change"}, {"time": 516, "annotation": {"number": 64, "value": 0}, "group": "control_change"}, {"time": 522, "annotation": {"number": 64, "value": 127}, "group": "control_change"}, {"time": 539, "annotation": {"number": 64, "value": 0}, "group": "control_change"}, {"time": 542, "annotation": {"number": 64, "value": 127}, "group": "control_change"}, {"time": 552, "annotation": {"number": 64, "value": 0}, "group": "control_change"}, {"time": 554, "annotation": {"number": 64, "value": 127}, "group": "control_change"}, {"time": 563, "annotation": {"number": 64, "value": 0}, "group": "control_change"}, {"time": 570, "annotation": {"number": 64, "value": 127}, "group": "control_change"}, {"time": 587, "annotation": {"number": 64, "value": 0}, "group": "control_change"}, {"time": 589, "annotation": {"number": 64, "value": 127}, "group": "control_change"}, {"time": 636, "annotation": {"number": 64, "value": 0}, "group": "control_change"}, {"time": 638, "annotation": {"number": 64, "value": 127}, "group": "control_change"}, {"time": 660, "annotation": {"number": 64, "value": 0}, "group": "control_change"}, {"time": 664, "annotation": {"number": 64, "value": 127}, "group": "control_change"}, {"time": 684, "annotation": {"number": 64, "value": 0}, "group": "control_change"}, {"time": 687, "annotation": {"number": 64, "value": 127}, "group": "control_change"}, {"time": 708, "annotation": {"number": 64, "value": 0}, "group": "control_change"}, {"time": 711, "annotation": {"number": 64, "value": 127}, "group": "control_change"}, {"time": 731, "annotation": {"number": 64, "value": 0}, "group": "control_change"}, {"time": 734, "annotation": {"number": 64, "value": 127}, "group": "control_change"}, {"time": 756, "annotation": {"number": 64, "value": 0}, "group": "control_change"}, {"time": 760, "annotation": {"number": 64, "value": 127}, "group": "control_change"}, {"time": 780, "annotation": {"number": 64, "value": 0}, "group": "control_change"}, {"time": 783, "annotation": {"number": 64, "value": 127}, "group": "control_change"}, {"time": 804, "annotation": {"number": 64, "value": 0}, "group": "control_change"}, {"time": 807, "annotation": {"number": 64, "value": 127}, "group": "control_change"}, {"time": 827, "annotation": {"number": 64, "value": 0}, "group": "control_change"}, {"time": 830, "annotation": {"number": 64, "value": 127}, "group": "control_change"}, {"time": 852, "annotation": {"number": 64, "value": 0}, "group": "control_change"}, {"time": 856, "annotation": {"number": 64, "value": 127}, "group": "control_change"}, {"time": 876, "annotation": {"number": 64, "value": 0}, "group": "control_change"}, {"time": 879, "annotation": {"number": 64, "value": 127}, "group": "control_change"}, {"time": 900, "annotation": {"number": 64, "value": 0}, "group": "control_change"}, {"time": 903, "annotation": {"number": 64, "value": 127}, "group": "control_change"}, {"time": 923, "annotation": {"number": 64, "value": 0}, "group": "control_change"}, {"time": 926, "annotation": {"number": 64, "value": 127}, "group": "control_change"}, {"time": 948, "annotation": {"number": 64, "value": 0}, "group": "control_change"}, {"time": 952, "annotation": {"number": 64, "value": 127}, "group": "control_change"}, {"time": 972, "annotation": {"number": 64, "value": 0}, "group": "control_change"}, {"time": 975, "annotation": {"number": 64, "value": 127}, "group": "control_change"}, {"time": 996, "annotation": {"number": 64, "value": 0}, "group": "control_change"}, {"time": 999, "annotation": {"number": 64, "value": 127}, "group": "control_change"}, {"time": 1019, "annotation": {"number": 64, "value": 0}, "group": "control_change"}, {"time": 1023, "annotation": {"number": 64, "value": 127}, "group": "control_change"}, {"time": 1045, "annotation": {"number": 64, "value": 0}, "group": "control_change"}, {"time": 1050, "annotation": {"number": 64, "value": 127}, "group": "control_change"}, {"time": 1069, "annotation": {"number": 64, "value": 0}, "group": "control_change"}, {"time": 1074, "annotation": {"number": 64, "value": 127}, "group": "control_change"}, {"time": 1093, "annotation": {"number": 64, "value": 0}, "group": "control_change"}, {"time": 1098, "annotation": {"number": 64, "value": 127}, "group": "control_change"}, {"time": 1118, "annotation": {"number": 64, "value": 0}, "group": "control_change"}, {"time": 1123, "annotation": {"number": 64, "value": 127}, "group": "control_change"}, {"time": 1142, "annotation": {"number": 64, "value": 0}, "group": "control_change"}, {"time": 1148, "annotation": {"number": 64, "value": 127}, "group": "control_change"}, {"time": 1165, "annotation": {"number": 64, "value": 0}, "group": "control_change"}, {"time": 1169, "annotation": {"number": 64, "value": 127}, "group": "control_change"}, {"time": 1212, "annotation": {"number": 64, "value": 0}, "group": "control_change"}, {"time": 1219, "annotation": {"number": 64, "value": 127}, "group": "control_change"}, {"time": 1237, "annotation": {"number": 64, "value": 0}, "group": "control_change"}, {"time": 1243, "annotation": {"number": 64, "value": 127}, "group": "control_change"}, {"time": 1261, "annotation": {"number": 64, "value": 0}, "group": "control_change"}, {"time": 1265, "annotation": {"number": 64, "value": 127}, "group": "control_change"}, {"time": 1272, "annotation": {"number": 64, "value": 0}, "group": "control_change"}, {"time": 1275, "annotation": {"number": 64, "value": 127}, "group": "control_change"}, {"time": 1286, "annotation": {"number": 64, "value": 0}, "group": "control_change"}, {"time": 1291, "annotation": {"number": 64, "value": 127}, "group": "control_change"}, {"time": 1308, "annotation": {"number": 64, "value": 0}, "group": "control_change"}, {"time": 1315, "annotation": {"number": 64, "value": 127}, "group": "control_change"}, {"time": 1332, "annotation": {"number": 64, "value": 0}, "group": "control_change"}, {"time": 1338, "annotation": {"number": 64, "value": 127}, "group": "control_change"}, {"time": 1355, "annotation": {"number": 64, "value": 0}, "group": "control_change"}, {"time": 1358, "annotation": {"number": 64, "value": 127}, "group": "control_change"}, {"time": 1368, "annotation": {"number": 64, "value": 0}, "group": "control_change"}, {"time": 1370, "annotation": {"number": 64, "value": 127}, "group": "control_change"}, {"time": 1379, "annotation": {"number": 64, "value": 0}, "group": "control_change"}, {"time": 1386, "annotation": {"number": 64, "value": 127}, "group": "control_change"}, {"time": 1403, "annotation": {"number": 64, "value": 0}, "group": "control_change"}, {"time": 1411, "annotation": {"number": 64, "value": 127}, "group": "control_change"}, {"time": 1429, "annotation": {"number": 64, "value": 0}, "group": "control_change"}, {"time": 1435, "annotation": {"number": 64, "value": 127}, "group": "control_change"}, {"time": 1453, "annotation": {"number": 64, "value": 0}, "group": "control_change"}, {"time": 1457, "annotation": {"number": 64, "value": 127}, "group": "control_change"}, {"time": 1464, "annotation": {"number": 64, "value": 0}, "group": "control_change"}, {"time": 1467, "annotation": {"number": 64, "value": 127}, "group": "control_change"}, {"time": 1478, "annotation": {"number": 64, "value": 0}, "group": "control_change"}, {"time": 1483, "annotation": {"number": 64, "value": 127}, "group": "control_change"}, {"time": 1500, "annotation": {"number": 64, "value": 0}, "group": "control_change"}, {"time": 1507, "annotation": {"number": 64, "value": 127}, "group": "control_change"}, {"time": 1524, "annotation": {"number": 64, "value": 0}, "group": "control_change"}, {"time": 1530, "annotation": {"number": 64, "value": 127}, "group": "control_change"}, {"time": 1547, "annotation": {"number": 64, "value": 0}, "group": "control_change"}, {"time": 1550, "annotation": {"number": 64, "value": 127}, "group": "control_change"}, {"time": 1560, "annotation": {"number": 64, "value": 0}, "group": "control_change"}, {"time": 1562, "annotation": {"number": 64, "value": 127}, "group": "control_change"}, {"time": 1571, "annotation": {"number": 64, "value": 0}, "group": "control_change"}, {"time": 1578, "annotation": {"number": 64, "value": 127}, "group": "control_change"}, {"time": 1595, "annotation": {"number": 64, "value": 0}, "group": "control_change"}, {"time": 1597, "annotation": {"number": 64, "value": 127}, "group": "control_change"}, {"time": 1644, "annotation": {"number": 64, "value": 0}, "group": "control_change"}, {"time": 1646, "annotation": {"number": 64, "value": 127}, "group": "control_change"}, {"time": 1668, "annotation": {"number": 64, "value": 0}, "group": "control_change"}, {"time": 1672, "annotation": {"number": 64, "value": 127}, "group": "control_change"}, {"time": 1692, "annotation": {"number": 64, "value": 0}, "group": "control_change"}, {"time": 1695, "annotation": {"number": 64, "value": 127}, "group": "control_change"}, {"time": 1716, "annotation": {"number": 64, "value": 0}, "group": "control_change"}, {"time": 1719, "annotation": {"number": 64, "value": 127}, "group": "control_change"}, {"time": 1739, "annotation": {"number": 64, "value": 0}, "group": "control_change"}, {"time": 1742, "annotation": {"number": 64, "value": 127}, "group": "control_change"}, {"time": 1764, "annotation": {"number": 64, "value": 0}, "group": "control_change"}, {"time": 1768, "annotation": {"number": 64, "value": 127}, "group": "control_change"}, {"time": 1788, "annotation": {"number": 64, "value": 0}, "group": "control_change"}, {"time": 1791, "annotation": {"number": 64, "value": 127}, "group": "control_change"}, {"time": 1812, "annotation": {"number": 64, "value": 0}, "group": "control_change"}, {"time": 1815, "annotation": {"number": 64, "value": 127}, "group": "control_change"}, {"time": 1835, "annotation": {"number": 64, "value": 0}, "group": "control_change"}, {"time": 1838, "annotation": {"number": 64, "value": 127}, "group": "control_change"}, {"time": 1860, "annotation": {"number": 64, "value": 0}, "group": "control_change"}, {"time": 1864, "annotation": {"number": 64, "value": 127}, "group": "control_change"}, {"time": 1884, "annotation": {"number": 64, "value": 0}, "group": "control_change"}, {"time": 1887, "annotation": {"number": 64, "value": 127}, "group": "control_change"}, {"time": 1908, "annotation": {"number": 64, "value": 0}, "group": "control_change"}, {"time": 1911, "annotation": {"number": 64, "value": 127}, "group": "control_change"}, {"time": 1931, "annotation": {"number": 64, "value": 0}, "group": "control_change"}, {"time": 1934, "annotation": {"number": 64, "value": 127}, "group": "control_change"}, {"time": 1956, "annotation": {"number": 64, "value": 0}, "group": "control_change"}, {"time": 1960, "annotation": {"number": 64, "value": 127}, "group": "control_change"}, {"time": 1980, "annotation": {"number": 64, "value": 0}, "group": "control_change"}, {"time": 1983, "annotation": {"number": 64, "value": 127}, "group": "control_change"}, {"time": 2004, "annotation": {"number": 64, "value": 0}, "group": "control_change"}, {"time": 2007, "annotation": {"number": 64, "value": 127}, "group": "control_change"}, {"time": 2027, "annotation": {"number": 64, "value": 0}, "group": "control_change"}, {"time": 2030, "annotation": {"number": 64, "value": 127}, "group": "control_change"}, {"time": 2052, "annotation": {"number": 64, "value": 0}, "group": "control_change"}, {"time": 2056, "annotation": {"number": 64, "value": 127}, "group": "control_change"}, {"time": 2076, "annotation": {"number": 64, "value": 0}, "group": "control_change"}, {"time": 2079, "annotation": {"number": 64, "value": 127}, "group": "control_change"}, {"time": 2100, "annotation": {"number": 64, "value": 0}, "group": "control_change"}, {"time": 2103, "annotation": {"number": 64, "value": 127}, "group": "control_change"}, {"time": 2123, "annotation": {"number": 64, "value": 0}, "group": "control_change"}, {"time": 2126, "annotation": {"number": 64, "value": 127}, "group": "control_change"}, {"time": 2148, "annotation": {"number": 64, "value": 0}, "group": "control_change"}, {"time": 2152, "annotation": {"number": 64, "value": 127}, "group": "control_change"}, {"time": 2172, "annotation": {"number": 64, "value": 0}, "group": "control_change"}, {"time": 2175, "annotation": {"number": 64, "value": 127}, "group": "control_change"}, {"time": 2196, "annotation": {"number": 64, "value": 0}, "group": "control_change"}, {"time": 2199, "annotation": {"number": 64, "value": 127}, "group": "control_change"}, {"time": 2219, "annotation": {"number": 64, "value": 0}, "group": "control_change"}, {"time": 2222, "annotation": {"number": 64, "value": 127}, "group": "control_change"}, {"time": 2244, "annotation": {"number": 64, "value": 0}, "group": "control_change"}, {"time": 2248, "annotation": {"number": 64, "value": 127}, "group": "control_change"}, {"time": 2268, "annotation": {"number": 64, "value": 0}, "group": "control_change"}, {"time": 2271, "annotation": {"number": 64, "value": 127}, "group": "control_change"}, {"time": 2292, "annotation": {"number": 64, "value": 0}, "group": "control_change"}, {"time": 2295, "annotation": {"number": 64, "value": 127}, "group": "control_change"}, {"time": 2315, "annotation": {"number": 64, "value": 0}, "group": "control_change"}, {"time": 2318, "annotation": {"number": 64, "value": 127}, "group": "control_change"}, {"time": 2340, "annotation": {"number": 64, "value": 0}, "group": "control_change"}, {"time": 2344, "annotation": {"number": 64, "value": 127}, "group": "control_change"}, {"time": 2364, "annotation": {"number": 64, "value": 0}, "group": "control_change"}, {"time": 2367, "annotation": {"number": 64, "value": 127}, "group": "control_change"}, {"time": 2388, "annotation": {"number": 64, "value": 0}, "group": "control_change"}, {"time": 2391, "annotation": {"number": 64, "value": 127}, "group": "control_change"}, {"time": 2411, "annotation": {"number": 64, "value": 0}, "group": "control_change"}, {"time": 2415, "annotation": {"number": 64, "value": 127}, "group": "control_change"}, {"time": 2437, "annotation": {"number": 64, "value": 0}, "group": "control_change"}, {"time": 2442, "annotation": {"number": 64, "value": 127}, "group": "control_change"}, {"time": 2461, "annotation": {"number": 64, "value": 0}, "group": "control_change"}, {"time": 2466, "annotation": {"number": 64, "value": 127}, "group": "control_change"}, {"time": 2485, "annotation": {"number": 64, "value": 0}, "group": "control_change"}, {"time": 2490, "annotation": {"number": 64, "value": 127}, "group": "control_change"}, {"time": 2510, "annotation": {"number": 64, "value": 0}, "group": "control_change"}, {"time": 2515, "annotation": {"number": 64, "value": 127}, "group": "control_change"}, {"time": 2534, "annotation": {"number": 64, "value": 0}, "group": "control_change"}, {"time": 2540, "annotation": {"number": 64, "value": 127}, "group": "control_change"}, {"time": 2557, "annotation": {"number": 64, "value": 0}, "group": "control_change"}, {"time": 2561, "annotation": {"number": 64, "value": 127}, "group": "control_change"}]}]}