{"metadata": {"schema_version": "0.2", "title": "None", "source_filename": "121.mid", "source_format": "midi"}, "resolution": 12, "tempos": [{"time": 0, "qpm": 72.00011520018433}, {"time": 4448, "qpm": 69.00009660013524}, {"time": 4460, "qpm": 66.000066000066}, {"time": 4484, "qpm": 64.0}, {"time": 4508, "qpm": 60.0}, {"time": 4532, "qpm": 72.00011520018433}], "time_signatures": [{"time": 0, "numerator": 1, "denominator": 4}], "tracks": [{"program": 0, "is_drum": false, "name": "MELODY", "notes": [{"time": 555, "pitch": 60, "duration": 4, "velocity": 115}, {"time": 561, "pitch": 60, "duration": 10, "velocity": 109}, {"time": 573, "pitch": 63, "duration": 4, "velocity": 123}, {"time": 579, "pitch": 62, "duration": 4, "velocity": 118}, {"time": 585, "pitch": 60, "duration": 4, "velocity": 112}, {"time": 591, "pitch": 60, "duration": 4, "velocity": 109}, {"time": 597, "pitch": 58, "duration": 4, "velocity": 120}, {"time": 603, "pitch": 60, "duration": 33, "velocity": 112}, {"time": 639, "pitch": 63, "duration": 4, "velocity": 120}, {"time": 645, "pitch": 65, "duration": 4, "velocity": 112}, {"time": 651, "pitch": 67, "duration": 4, "velocity": 109}, {"time": 657, "pitch": 67, "duration": 9, "velocity": 109}, {"time": 669, "pitch": 72, "duration": 4, "velocity": 112}, {"time": 675, "pitch": 70, "duration": 4, "velocity": 123}, {"time": 681, "pitch": 72, "duration": 4, "velocity": 112}, {"time": 687, "pitch": 70, "duration": 4, "velocity": 123}, {"time": 693, "pitch": 65, "duration": 4, "velocity": 115}, {"time": 699, "pitch": 67, "duration": 32, "velocity": 112}, {"time": 735, "pitch": 67, "duration": 4, "velocity": 115}, {"time": 741, "pitch": 70, "duration": 4, "velocity": 117}, {"time": 747, "pitch": 72, "duration": 4, "velocity": 106}, {"time": 753, "pitch": 72, "duration": 10, "velocity": 115}, {"time": 765, "pitch": 70, "duration": 4, "velocity": 117}, {"time": 771, "pitch": 72, "duration": 8, "velocity": 109}, {"time": 783, "pitch": 67, "duration": 4, "velocity": 112}, {"time": 789, "pitch": 63, "duration": 3, "velocity": 117}, {"time": 795, "pitch": 65, "duration": 3, "velocity": 109}, {"time": 801, "pitch": 65, "duration": 9, "velocity": 118}, {"time": 813, "pitch": 63, "duration": 4, "velocity": 117}, {"time": 819, "pitch": 67, "duration": 10, "velocity": 115}, {"time": 843, "pitch": 62, "duration": 6, "velocity": 115}, {"time": 852, "pitch": 62, "duration": 1, "velocity": 109}, {"time": 855, "pitch": 62, "duration": 3, "velocity": 112}, {"time": 861, "pitch": 60, "duration": 4, "velocity": 109}, {"time": 867, "pitch": 58, "duration": 3, "velocity": 120}, {"time": 873, "pitch": 60, "duration": 4, "velocity": 106}, {"time": 879, "pitch": 63, "duration": 4, "velocity": 120}, {"time": 885, "pitch": 62, "duration": 3, "velocity": 115}, {"time": 891, "pitch": 60, "duration": 44, "velocity": 112}, {"time": 939, "pitch": 60, "duration": 4, "velocity": 115}, {"time": 945, "pitch": 60, "duration": 10, "velocity": 109}, {"time": 957, "pitch": 63, "duration": 4, "velocity": 123}, {"time": 963, "pitch": 62, "duration": 4, "velocity": 118}, {"time": 969, "pitch": 60, "duration": 4, "velocity": 112}, {"time": 975, "pitch": 60, "duration": 4, "velocity": 109}, {"time": 981, "pitch": 58, "duration": 4, "velocity": 120}, {"time": 987, "pitch": 60, "duration": 33, "velocity": 112}, {"time": 1023, "pitch": 63, "duration": 4, "velocity": 120}, {"time": 1029, "pitch": 65, "duration": 4, "velocity": 112}, {"time": 1035, "pitch": 67, "duration": 4, "velocity": 109}, {"time": 1041, "pitch": 67, "duration": 9, "velocity": 109}, {"time": 1053, "pitch": 72, "duration": 4, "velocity": 112}, {"time": 1059, "pitch": 70, "duration": 4, "velocity": 123}, {"time": 1065, "pitch": 72, "duration": 4, "velocity": 112}, {"time": 1071, "pitch": 70, "duration": 4, "velocity": 123}, {"time": 1077, "pitch": 65, "duration": 4, "velocity": 115}, {"time": 1083, "pitch": 67, "duration": 32, "velocity": 112}, {"time": 1119, "pitch": 67, "duration": 4, "velocity": 115}, {"time": 1125, "pitch": 70, "duration": 4, "velocity": 117}, {"time": 1131, "pitch": 72, "duration": 4, "velocity": 106}, {"time": 1137, "pitch": 72, "duration": 10, "velocity": 115}, {"time": 1149, "pitch": 70, "duration": 4, "velocity": 117}, {"time": 1155, "pitch": 72, "duration": 8, "velocity": 109}, {"time": 1167, "pitch": 67, "duration": 4, "velocity": 112}, {"time": 1173, "pitch": 63, "duration": 3, "velocity": 117}, {"time": 1179, "pitch": 65, "duration": 3, "velocity": 109}, {"time": 1185, "pitch": 65, "duration": 9, "velocity": 118}, {"time": 1197, "pitch": 63, "duration": 4, "velocity": 117}, {"time": 1203, "pitch": 67, "duration": 10, "velocity": 115}, {"time": 1227, "pitch": 62, "duration": 6, "velocity": 115}, {"time": 1236, "pitch": 62, "duration": 1, "velocity": 109}, {"time": 1239, "pitch": 62, "duration": 3, "velocity": 112}, {"time": 1245, "pitch": 60, "duration": 4, "velocity": 109}, {"time": 1251, "pitch": 58, "duration": 3, "velocity": 120}, {"time": 1257, "pitch": 60, "duration": 4, "velocity": 106}, {"time": 1263, "pitch": 63, "duration": 4, "velocity": 120}, {"time": 1269, "pitch": 62, "duration": 3, "velocity": 115}, {"time": 1275, "pitch": 60, "duration": 40, "velocity": 112}, {"time": 1317, "pitch": 67, "duration": 4, "velocity": 118}, {"time": 1323, "pitch": 72, "duration": 3, "velocity": 115}, {"time": 1329, "pitch": 72, "duration": 4, "velocity": 109}, {"time": 1335, "pitch": 72, "duration": 4, "velocity": 112}, {"time": 1341, "pitch": 70, "duration": 3, "velocity": 123}, {"time": 1347, "pitch": 72, "duration": 15, "velocity": 112}, {"time": 1365, "pitch": 75, "duration": 4, "velocity": 120}, {"time": 1371, "pitch": 74, "duration": 4, "velocity": 118}, {"time": 1377, "pitch": 72, "duration": 3, "velocity": 106}, {"time": 1383, "pitch": 70, "duration": 4, "velocity": 120}, {"time": 1389, "pitch": 65, "duration": 3, "velocity": 115}, {"time": 1395, "pitch": 67, "duration": 13, "velocity": 115}, {"time": 1419, "pitch": 74, "duration": 6, "velocity": 112}, {"time": 1428, "pitch": 74, "duration": 1, "velocity": 112}, {"time": 1431, "pitch": 74, "duration": 3, "velocity": 112}, {"time": 1437, "pitch": 72, "duration": 4, "velocity": 109}, {"time": 1443, "pitch": 70, "duration": 4, "velocity": 120}, {"time": 1449, "pitch": 72, "duration": 3, "velocity": 109}, {"time": 1455, "pitch": 70, "duration": 4, "velocity": 120}, {"time": 1461, "pitch": 65, "duration": 3, "velocity": 115}, {"time": 1467, "pitch": 67, "duration": 32, "velocity": 112}, {"time": 1509, "pitch": 67, "duration": 3, "velocity": 115}, {"time": 1515, "pitch": 65, "duration": 4, "velocity": 112}, {"time": 1521, "pitch": 65, "duration": 1, "velocity": 106}, {"time": 1524, "pitch": 67, "duration": 1, "velocity": 112}, {"time": 1527, "pitch": 65, "duration": 3, "velocity": 118}, {"time": 1533, "pitch": 63, "duration": 3, "velocity": 120}, {"time": 1539, "pitch": 65, "duration": 13, "velocity": 115}, {"time": 1557, "pitch": 67, "duration": 4, "velocity": 115}, {"time": 1563, "pitch": 70, "duration": 4, "velocity": 120}, {"time": 1569, "pitch": 72, "duration": 3, "velocity": 106}, {"time": 1575, "pitch": 70, "duration": 3, "velocity": 123}, {"time": 1581, "pitch": 58, "duration": 4, "velocity": 120}, {"time": 1587, "pitch": 60, "duration": 12, "velocity": 106}, {"time": 1611, "pitch": 74, "duration": 6, "velocity": 115}, {"time": 1620, "pitch": 74, "duration": 1, "velocity": 115}, {"time": 1623, "pitch": 74, "duration": 3, "velocity": 112}, {"time": 1629, "pitch": 72, "duration": 3, "velocity": 112}, {"time": 1635, "pitch": 70, "duration": 3, "velocity": 117}, {"time": 1641, "pitch": 67, "duration": 9, "velocity": 115}, {"time": 1653, "pitch": 70, "duration": 4, "velocity": 117}, {"time": 1659, "pitch": 72, "duration": 37, "velocity": 112}, {"time": 1701, "pitch": 67, "duration": 4, "velocity": 118}, {"time": 1707, "pitch": 72, "duration": 3, "velocity": 115}, {"time": 1713, "pitch": 72, "duration": 4, "velocity": 109}, {"time": 1719, "pitch": 72, "duration": 4, "velocity": 112}, {"time": 1725, "pitch": 70, "duration": 3, "velocity": 123}, {"time": 1731, "pitch": 72, "duration": 15, "velocity": 112}, {"time": 1749, "pitch": 75, "duration": 4, "velocity": 120}, {"time": 1755, "pitch": 74, "duration": 4, "velocity": 118}, {"time": 1761, "pitch": 72, "duration": 3, "velocity": 106}, {"time": 1767, "pitch": 70, "duration": 4, "velocity": 120}, {"time": 1773, "pitch": 65, "duration": 3, "velocity": 115}, {"time": 1779, "pitch": 67, "duration": 13, "velocity": 115}, {"time": 1803, "pitch": 74, "duration": 6, "velocity": 112}, {"time": 1812, "pitch": 74, "duration": 1, "velocity": 112}, {"time": 1815, "pitch": 74, "duration": 3, "velocity": 112}, {"time": 1821, "pitch": 72, "duration": 4, "velocity": 109}, {"time": 1827, "pitch": 70, "duration": 4, "velocity": 120}, {"time": 1833, "pitch": 72, "duration": 3, "velocity": 109}, {"time": 1839, "pitch": 70, "duration": 4, "velocity": 120}, {"time": 1845, "pitch": 65, "duration": 3, "velocity": 115}, {"time": 1851, "pitch": 67, "duration": 32, "velocity": 112}, {"time": 1893, "pitch": 67, "duration": 3, "velocity": 115}, {"time": 1899, "pitch": 65, "duration": 4, "velocity": 112}, {"time": 1905, "pitch": 65, "duration": 1, "velocity": 106}, {"time": 1908, "pitch": 67, "duration": 1, "velocity": 112}, {"time": 1911, "pitch": 65, "duration": 3, "velocity": 118}, {"time": 1917, "pitch": 63, "duration": 3, "velocity": 120}, {"time": 1923, "pitch": 65, "duration": 13, "velocity": 115}, {"time": 1941, "pitch": 67, "duration": 4, "velocity": 115}, {"time": 1947, "pitch": 70, "duration": 4, "velocity": 120}, {"time": 1953, "pitch": 72, "duration": 3, "velocity": 106}, {"time": 1959, "pitch": 70, "duration": 3, "velocity": 123}, {"time": 1965, "pitch": 58, "duration": 4, "velocity": 120}, {"time": 1971, "pitch": 60, "duration": 12, "velocity": 106}, {"time": 1995, "pitch": 74, "duration": 6, "velocity": 115}, {"time": 2004, "pitch": 74, "duration": 1, "velocity": 115}, {"time": 2007, "pitch": 74, "duration": 3, "velocity": 112}, {"time": 2013, "pitch": 72, "duration": 3, "velocity": 112}, {"time": 2019, "pitch": 70, "duration": 3, "velocity": 117}, {"time": 2025, "pitch": 67, "duration": 9, "velocity": 115}, {"time": 2037, "pitch": 70, "duration": 4, "velocity": 117}, {"time": 2043, "pitch": 72, "duration": 37, "velocity": 112}, {"time": 2475, "pitch": 60, "duration": 4, "velocity": 115}, {"time": 2481, "pitch": 60, "duration": 10, "velocity": 109}, {"time": 2493, "pitch": 63, "duration": 4, "velocity": 123}, {"time": 2499, "pitch": 62, "duration": 4, "velocity": 118}, {"time": 2505, "pitch": 60, "duration": 4, "velocity": 112}, {"time": 2511, "pitch": 60, "duration": 4, "velocity": 109}, {"time": 2517, "pitch": 58, "duration": 4, "velocity": 120}, {"time": 2523, "pitch": 60, "duration": 33, "velocity": 112}, {"time": 2559, "pitch": 63, "duration": 4, "velocity": 120}, {"time": 2565, "pitch": 65, "duration": 4, "velocity": 112}, {"time": 2571, "pitch": 67, "duration": 4, "velocity": 109}, {"time": 2577, "pitch": 67, "duration": 9, "velocity": 109}, {"time": 2589, "pitch": 72, "duration": 4, "velocity": 112}, {"time": 2595, "pitch": 70, "duration": 4, "velocity": 123}, {"time": 2601, "pitch": 72, "duration": 4, "velocity": 112}, {"time": 2607, "pitch": 70, "duration": 4, "velocity": 123}, {"time": 2613, "pitch": 65, "duration": 4, "velocity": 115}, {"time": 2619, "pitch": 67, "duration": 32, "velocity": 112}, {"time": 2655, "pitch": 67, "duration": 4, "velocity": 115}, {"time": 2661, "pitch": 70, "duration": 4, "velocity": 117}, {"time": 2667, "pitch": 72, "duration": 4, "velocity": 106}, {"time": 2673, "pitch": 72, "duration": 10, "velocity": 115}, {"time": 2685, "pitch": 70, "duration": 4, "velocity": 117}, {"time": 2691, "pitch": 72, "duration": 8, "velocity": 109}, {"time": 2703, "pitch": 67, "duration": 4, "velocity": 112}, {"time": 2709, "pitch": 63, "duration": 3, "velocity": 117}, {"time": 2715, "pitch": 65, "duration": 3, "velocity": 109}, {"time": 2721, "pitch": 65, "duration": 9, "velocity": 118}, {"time": 2733, "pitch": 63, "duration": 4, "velocity": 117}, {"time": 2739, "pitch": 67, "duration": 10, "velocity": 115}, {"time": 2763, "pitch": 62, "duration": 6, "velocity": 115}, {"time": 2772, "pitch": 62, "duration": 1, "velocity": 109}, {"time": 2775, "pitch": 62, "duration": 3, "velocity": 112}, {"time": 2781, "pitch": 60, "duration": 4, "velocity": 109}, {"time": 2787, "pitch": 58, "duration": 3, "velocity": 120}, {"time": 2793, "pitch": 60, "duration": 4, "velocity": 106}, {"time": 2799, "pitch": 63, "duration": 4, "velocity": 120}, {"time": 2805, "pitch": 62, "duration": 3, "velocity": 115}, {"time": 2811, "pitch": 60, "duration": 40, "velocity": 112}, {"time": 2853, "pitch": 67, "duration": 4, "velocity": 118}, {"time": 2859, "pitch": 72, "duration": 3, "velocity": 115}, {"time": 2865, "pitch": 72, "duration": 4, "velocity": 109}, {"time": 2871, "pitch": 72, "duration": 4, "velocity": 112}, {"time": 2877, "pitch": 70, "duration": 3, "velocity": 123}, {"time": 2883, "pitch": 72, "duration": 15, "velocity": 112}, {"time": 2901, "pitch": 75, "duration": 4, "velocity": 120}, {"time": 2907, "pitch": 74, "duration": 4, "velocity": 118}, {"time": 2913, "pitch": 72, "duration": 3, "velocity": 106}, {"time": 2919, "pitch": 70, "duration": 4, "velocity": 120}, {"time": 2925, "pitch": 65, "duration": 3, "velocity": 115}, {"time": 2931, "pitch": 67, "duration": 13, "velocity": 115}, {"time": 2955, "pitch": 74, "duration": 6, "velocity": 112}, {"time": 2964, "pitch": 74, "duration": 1, "velocity": 112}, {"time": 2967, "pitch": 74, "duration": 3, "velocity": 112}, {"time": 2973, "pitch": 72, "duration": 4, "velocity": 109}, {"time": 2979, "pitch": 70, "duration": 4, "velocity": 120}, {"time": 2985, "pitch": 72, "duration": 3, "velocity": 109}, {"time": 2991, "pitch": 70, "duration": 4, "velocity": 120}, {"time": 2997, "pitch": 65, "duration": 3, "velocity": 115}, {"time": 3003, "pitch": 67, "duration": 32, "velocity": 112}, {"time": 3045, "pitch": 67, "duration": 3, "velocity": 115}, {"time": 3051, "pitch": 65, "duration": 4, "velocity": 112}, {"time": 3057, "pitch": 65, "duration": 1, "velocity": 106}, {"time": 3060, "pitch": 67, "duration": 1, "velocity": 112}, {"time": 3063, "pitch": 65, "duration": 3, "velocity": 118}, {"time": 3069, "pitch": 63, "duration": 3, "velocity": 120}, {"time": 3075, "pitch": 65, "duration": 13, "velocity": 115}, {"time": 3093, "pitch": 67, "duration": 4, "velocity": 115}, {"time": 3099, "pitch": 70, "duration": 4, "velocity": 120}, {"time": 3105, "pitch": 72, "duration": 3, "velocity": 106}, {"time": 3111, "pitch": 70, "duration": 3, "velocity": 123}, {"time": 3117, "pitch": 58, "duration": 4, "velocity": 120}, {"time": 3123, "pitch": 60, "duration": 12, "velocity": 106}, {"time": 3147, "pitch": 74, "duration": 6, "velocity": 115}, {"time": 3156, "pitch": 74, "duration": 1, "velocity": 115}, {"time": 3159, "pitch": 74, "duration": 3, "velocity": 112}, {"time": 3165, "pitch": 72, "duration": 3, "velocity": 112}, {"time": 3171, "pitch": 70, "duration": 3, "velocity": 117}, {"time": 3177, "pitch": 67, "duration": 9, "velocity": 115}, {"time": 3189, "pitch": 70, "duration": 4, "velocity": 117}, {"time": 3195, "pitch": 72, "duration": 37, "velocity": 112}, {"time": 3237, "pitch": 67, "duration": 4, "velocity": 118}, {"time": 3243, "pitch": 72, "duration": 3, "velocity": 115}, {"time": 3249, "pitch": 72, "duration": 4, "velocity": 109}, {"time": 3255, "pitch": 72, "duration": 4, "velocity": 112}, {"time": 3261, "pitch": 70, "duration": 3, "velocity": 123}, {"time": 3267, "pitch": 72, "duration": 15, "velocity": 112}, {"time": 3285, "pitch": 75, "duration": 4, "velocity": 120}, {"time": 3291, "pitch": 74, "duration": 4, "velocity": 118}, {"time": 3297, "pitch": 72, "duration": 3, "velocity": 106}, {"time": 3303, "pitch": 70, "duration": 4, "velocity": 120}, {"time": 3309, "pitch": 65, "duration": 3, "velocity": 115}, {"time": 3315, "pitch": 67, "duration": 13, "velocity": 115}, {"time": 3339, "pitch": 74, "duration": 6, "velocity": 112}, {"time": 3348, "pitch": 74, "duration": 1, "velocity": 112}, {"time": 3351, "pitch": 74, "duration": 3, "velocity": 112}, {"time": 3357, "pitch": 72, "duration": 4, "velocity": 109}, {"time": 3363, "pitch": 70, "duration": 4, "velocity": 120}, {"time": 3369, "pitch": 72, "duration": 3, "velocity": 109}, {"time": 3375, "pitch": 70, "duration": 4, "velocity": 120}, {"time": 3381, "pitch": 65, "duration": 3, "velocity": 115}, {"time": 3387, "pitch": 67, "duration": 32, "velocity": 112}, {"time": 3429, "pitch": 67, "duration": 3, "velocity": 115}, {"time": 3435, "pitch": 65, "duration": 4, "velocity": 112}, {"time": 3441, "pitch": 65, "duration": 1, "velocity": 106}, {"time": 3444, "pitch": 67, "duration": 1, "velocity": 112}, {"time": 3447, "pitch": 65, "duration": 3, "velocity": 118}, {"time": 3453, "pitch": 63, "duration": 3, "velocity": 120}, {"time": 3459, "pitch": 65, "duration": 13, "velocity": 115}, {"time": 3477, "pitch": 67, "duration": 4, "velocity": 115}, {"time": 3483, "pitch": 70, "duration": 4, "velocity": 120}, {"time": 3489, "pitch": 72, "duration": 3, "velocity": 106}, {"time": 3495, "pitch": 70, "duration": 3, "velocity": 123}, {"time": 3501, "pitch": 58, "duration": 4, "velocity": 120}, {"time": 3507, "pitch": 60, "duration": 12, "velocity": 106}, {"time": 3531, "pitch": 74, "duration": 6, "velocity": 115}, {"time": 3540, "pitch": 74, "duration": 1, "velocity": 115}, {"time": 3543, "pitch": 74, "duration": 3, "velocity": 112}, {"time": 3549, "pitch": 72, "duration": 3, "velocity": 112}, {"time": 3555, "pitch": 70, "duration": 3, "velocity": 117}, {"time": 3561, "pitch": 67, "duration": 9, "velocity": 115}, {"time": 3573, "pitch": 70, "duration": 4, "velocity": 117}, {"time": 3579, "pitch": 72, "duration": 37, "velocity": 112}, {"time": 3621, "pitch": 67, "duration": 4, "velocity": 118}, {"time": 3627, "pitch": 72, "duration": 3, "velocity": 115}, {"time": 3633, "pitch": 72, "duration": 4, "velocity": 109}, {"time": 3639, "pitch": 72, "duration": 4, "velocity": 112}, {"time": 3645, "pitch": 70, "duration": 3, "velocity": 123}, {"time": 3651, "pitch": 72, "duration": 15, "velocity": 112}, {"time": 3669, "pitch": 75, "duration": 4, "velocity": 120}, {"time": 3675, "pitch": 74, "duration": 4, "velocity": 118}, {"time": 3681, "pitch": 72, "duration": 3, "velocity": 106}, {"time": 3687, "pitch": 70, "duration": 4, "velocity": 120}, {"time": 3693, "pitch": 65, "duration": 3, "velocity": 115}, {"time": 3699, "pitch": 67, "duration": 13, "velocity": 115}, {"time": 3723, "pitch": 74, "duration": 6, "velocity": 112}, {"time": 3732, "pitch": 74, "duration": 1, "velocity": 112}, {"time": 3735, "pitch": 74, "duration": 3, "velocity": 112}, {"time": 3741, "pitch": 72, "duration": 4, "velocity": 109}, {"time": 3747, "pitch": 70, "duration": 4, "velocity": 120}, {"time": 3753, "pitch": 72, "duration": 3, "velocity": 109}, {"time": 3759, "pitch": 70, "duration": 4, "velocity": 120}, {"time": 3765, "pitch": 65, "duration": 3, "velocity": 115}, {"time": 3771, "pitch": 67, "duration": 32, "velocity": 112}, {"time": 3813, "pitch": 67, "duration": 3, "velocity": 115}, {"time": 3819, "pitch": 65, "duration": 4, "velocity": 112}, {"time": 3825, "pitch": 65, "duration": 1, "velocity": 106}, {"time": 3828, "pitch": 67, "duration": 1, "velocity": 112}, {"time": 3831, "pitch": 65, "duration": 3, "velocity": 118}, {"time": 3837, "pitch": 63, "duration": 3, "velocity": 120}, {"time": 3843, "pitch": 65, "duration": 13, "velocity": 115}, {"time": 3861, "pitch": 67, "duration": 4, "velocity": 115}, {"time": 3867, "pitch": 70, "duration": 4, "velocity": 120}, {"time": 3873, "pitch": 72, "duration": 3, "velocity": 106}, {"time": 3879, "pitch": 70, "duration": 3, "velocity": 123}, {"time": 3885, "pitch": 58, "duration": 4, "velocity": 120}, {"time": 3891, "pitch": 60, "duration": 12, "velocity": 106}, {"time": 3915, "pitch": 74, "duration": 6, "velocity": 115}, {"time": 3924, "pitch": 74, "duration": 1, "velocity": 115}, {"time": 3927, "pitch": 74, "duration": 3, "velocity": 112}, {"time": 3933, "pitch": 72, "duration": 3, "velocity": 112}, {"time": 3939, "pitch": 70, "duration": 3, "velocity": 117}, {"time": 3945, "pitch": 67, "duration": 9, "velocity": 115}, {"time": 3957, "pitch": 70, "duration": 4, "velocity": 117}, {"time": 3963, "pitch": 72, "duration": 37, "velocity": 112}, {"time": 4005, "pitch": 67, "duration": 4, "velocity": 118}, {"time": 4011, "pitch": 72, "duration": 3, "velocity": 115}, {"time": 4017, "pitch": 72, "duration": 4, "velocity": 109}, {"time": 4023, "pitch": 72, "duration": 4, "velocity": 112}, {"time": 4029, "pitch": 70, "duration": 3, "velocity": 123}, {"time": 4035, "pitch": 72, "duration": 15, "velocity": 112}, {"time": 4053, "pitch": 75, "duration": 4, "velocity": 120}, {"time": 4059, "pitch": 74, "duration": 4, "velocity": 118}, {"time": 4065, "pitch": 72, "duration": 3, "velocity": 106}, {"time": 4071, "pitch": 70, "duration": 4, "velocity": 120}, {"time": 4077, "pitch": 65, "duration": 3, "velocity": 115}, {"time": 4083, "pitch": 67, "duration": 13, "velocity": 115}, {"time": 4107, "pitch": 74, "duration": 6, "velocity": 112}, {"time": 4116, "pitch": 74, "duration": 1, "velocity": 112}, {"time": 4119, "pitch": 74, "duration": 3, "velocity": 112}, {"time": 4125, "pitch": 72, "duration": 4, "velocity": 109}, {"time": 4131, "pitch": 70, "duration": 4, "velocity": 120}, {"time": 4137, "pitch": 72, "duration": 3, "velocity": 109}, {"time": 4143, "pitch": 70, "duration": 4, "velocity": 120}, {"time": 4149, "pitch": 65, "duration": 3, "velocity": 115}, {"time": 4155, "pitch": 67, "duration": 32, "velocity": 112}, {"time": 4197, "pitch": 67, "duration": 3, "velocity": 115}, {"time": 4203, "pitch": 65, "duration": 4, "velocity": 112}, {"time": 4209, "pitch": 65, "duration": 1, "velocity": 106}, {"time": 4212, "pitch": 67, "duration": 1, "velocity": 112}, {"time": 4215, "pitch": 65, "duration": 3, "velocity": 118}, {"time": 4221, "pitch": 63, "duration": 3, "velocity": 120}, {"time": 4227, "pitch": 65, "duration": 13, "velocity": 115}, {"time": 4245, "pitch": 67, "duration": 4, "velocity": 115}, {"time": 4251, "pitch": 70, "duration": 4, "velocity": 120}, {"time": 4257, "pitch": 72, "duration": 3, "velocity": 106}, {"time": 4263, "pitch": 70, "duration": 3, "velocity": 123}, {"time": 4269, "pitch": 58, "duration": 4, "velocity": 120}, {"time": 4275, "pitch": 60, "duration": 12, "velocity": 106}, {"time": 4299, "pitch": 74, "duration": 6, "velocity": 115}, {"time": 4308, "pitch": 74, "duration": 1, "velocity": 115}, {"time": 4311, "pitch": 74, "duration": 3, "velocity": 112}, {"time": 4317, "pitch": 72, "duration": 3, "velocity": 112}, {"time": 4323, "pitch": 70, "duration": 3, "velocity": 117}, {"time": 4329, "pitch": 67, "duration": 9, "velocity": 115}, {"time": 4341, "pitch": 70, "duration": 4, "velocity": 117}, {"time": 4347, "pitch": 72, "duration": 37, "velocity": 112}, {"time": 4395, "pitch": 65, "duration": 4, "velocity": 112}, {"time": 4401, "pitch": 65, "duration": 1, "velocity": 106}, {"time": 4404, "pitch": 67, "duration": 1, "velocity": 112}, {"time": 4407, "pitch": 65, "duration": 3, "velocity": 118}, {"time": 4413, "pitch": 63, "duration": 3, "velocity": 120}, {"time": 4419, "pitch": 65, "duration": 13, "velocity": 115}, {"time": 4437, "pitch": 67, "duration": 4, "velocity": 115}, {"time": 4443, "pitch": 70, "duration": 4, "velocity": 120}, {"time": 4449, "pitch": 72, "duration": 3, "velocity": 106}, {"time": 4455, "pitch": 70, "duration": 3, "velocity": 123}, {"time": 4461, "pitch": 58, "duration": 4, "velocity": 120}, {"time": 4467, "pitch": 60, "duration": 12, "velocity": 106}, {"time": 4491, "pitch": 74, "duration": 6, "velocity": 115}, {"time": 4500, "pitch": 74, "duration": 1, "velocity": 115}, {"time": 4503, "pitch": 74, "duration": 3, "velocity": 112}, {"time": 4509, "pitch": 72, "duration": 3, "velocity": 112}, {"time": 4515, "pitch": 70, "duration": 3, "velocity": 117}, {"time": 4521, "pitch": 67, "duration": 20, "velocity": 115}, {"time": 4542, "pitch": 70, "duration": 7, "velocity": 117}, {"time": 4551, "pitch": 72, "duration": 37, "velocity": 112}]}, {"program": 0, "is_drum": false, "name": "BRIDGE", "notes": [{"time": 171, "pitch": 72, "duration": 15, "velocity": 112}, {"time": 189, "pitch": 75, "duration": 5, "velocity": 120}, {"time": 195, "pitch": 74, "duration": 5, "velocity": 118}, {"time": 201, "pitch": 72, "duration": 1, "velocity": 112}, {"time": 204, "pitch": 74, "duration": 1, "velocity": 109}, {"time": 207, "pitch": 72, "duration": 4, "velocity": 118}, {"time": 213, "pitch": 70, "duration": 4, "velocity": 123}, {"time": 219, "pitch": 72, "duration": 32, "velocity": 115}, {"time": 255, "pitch": 63, "duration": 4, "velocity": 123}, {"time": 261, "pitch": 65, "duration": 4, "velocity": 106}, {"time": 267, "pitch": 67, "duration": 15, "velocity": 115}, {"time": 285, "pitch": 72, "duration": 4, "velocity": 112}, {"time": 291, "pitch": 70, "duration": 4, "velocity": 123}, {"time": 297, "pitch": 70, "duration": 1, "velocity": 123}, {"time": 300, "pitch": 72, "duration": 1, "velocity": 115}, {"time": 303, "pitch": 70, "duration": 4, "velocity": 123}, {"time": 309, "pitch": 65, "duration": 4, "velocity": 118}, {"time": 315, "pitch": 67, "duration": 32, "velocity": 118}, {"time": 351, "pitch": 67, "duration": 5, "velocity": 118}, {"time": 351, "pitch": 79, "duration": 5, "velocity": 118}, {"time": 357, "pitch": 70, "duration": 4, "velocity": 123}, {"time": 357, "pitch": 82, "duration": 4, "velocity": 123}, {"time": 363, "pitch": 72, "duration": 16, "velocity": 115}, {"time": 363, "pitch": 84, "duration": 17, "velocity": 115}, {"time": 381, "pitch": 70, "duration": 4, "velocity": 123}, {"time": 381, "pitch": 82, "duration": 5, "velocity": 123}, {"time": 387, "pitch": 72, "duration": 10, "velocity": 112}, {"time": 387, "pitch": 84, "duration": 10, "velocity": 112}, {"time": 399, "pitch": 67, "duration": 4, "velocity": 115}, {"time": 399, "pitch": 79, "duration": 4, "velocity": 115}, {"time": 405, "pitch": 63, "duration": 4, "velocity": 123}, {"time": 405, "pitch": 75, "duration": 4, "velocity": 123}, {"time": 411, "pitch": 65, "duration": 10, "velocity": 118}, {"time": 411, "pitch": 77, "duration": 10, "velocity": 118}, {"time": 423, "pitch": 65, "duration": 4, "velocity": 115}, {"time": 423, "pitch": 77, "duration": 4, "velocity": 115}, {"time": 429, "pitch": 63, "duration": 4, "velocity": 120}, {"time": 429, "pitch": 75, "duration": 4, "velocity": 120}, {"time": 435, "pitch": 67, "duration": 23, "velocity": 118}, {"time": 435, "pitch": 79, "duration": 24, "velocity": 118}, {"time": 459, "pitch": 74, "duration": 15, "velocity": 115}, {"time": 459, "pitch": 86, "duration": 15, "velocity": 115}, {"time": 477, "pitch": 72, "duration": 4, "velocity": 115}, {"time": 477, "pitch": 84, "duration": 4, "velocity": 115}, {"time": 483, "pitch": 70, "duration": 4, "velocity": 123}, {"time": 483, "pitch": 82, "duration": 4, "velocity": 123}, {"time": 489, "pitch": 72, "duration": 1, "velocity": 109}, {"time": 489, "pitch": 84, "duration": 1, "velocity": 109}, {"time": 492, "pitch": 70, "duration": 1, "velocity": 120}, {"time": 492, "pitch": 82, "duration": 2, "velocity": 120}, {"time": 495, "pitch": 67, "duration": 4, "velocity": 115}, {"time": 495, "pitch": 79, "duration": 4, "velocity": 115}, {"time": 501, "pitch": 70, "duration": 4, "velocity": 123}, {"time": 501, "pitch": 82, "duration": 4, "velocity": 123}, {"time": 507, "pitch": 72, "duration": 44, "velocity": 115}, {"time": 507, "pitch": 84, "duration": 44, "velocity": 115}, {"time": 897, "pitch": 79, "duration": 2, "velocity": 111}, {"time": 900, "pitch": 84, "duration": 1, "velocity": 114}, {"time": 903, "pitch": 87, "duration": 6, "velocity": 112}, {"time": 909, "pitch": 79, "duration": 6, "velocity": 111}, {"time": 915, "pitch": 86, "duration": 12, "velocity": 117}, {"time": 921, "pitch": 79, "duration": 5, "velocity": 64}, {"time": 927, "pitch": 84, "duration": 5, "velocity": 117}, {"time": 933, "pitch": 82, "duration": 6, "velocity": 105}, {"time": 939, "pitch": 84, "duration": 20, "velocity": 100}, {"time": 999, "pitch": 84, "duration": 4, "velocity": 120}, {"time": 1005, "pitch": 87, "duration": 4, "velocity": 116}, {"time": 1011, "pitch": 86, "duration": 4, "velocity": 117}, {"time": 1017, "pitch": 84, "duration": 1, "velocity": 111}, {"time": 1020, "pitch": 86, "duration": 1, "velocity": 114}, {"time": 1023, "pitch": 84, "duration": 5, "velocity": 123}, {"time": 1029, "pitch": 82, "duration": 4, "velocity": 109}, {"time": 1035, "pitch": 79, "duration": 25, "velocity": 100}, {"time": 1095, "pitch": 79, "duration": 5, "velocity": 114}, {"time": 1101, "pitch": 82, "duration": 4, "velocity": 112}, {"time": 1107, "pitch": 84, "duration": 4, "velocity": 120}, {"time": 1113, "pitch": 86, "duration": 2, "velocity": 108}, {"time": 1116, "pitch": 84, "duration": 1, "velocity": 111}, {"time": 1119, "pitch": 82, "duration": 5, "velocity": 112}, {"time": 1125, "pitch": 79, "duration": 4, "velocity": 105}, {"time": 1131, "pitch": 84, "duration": 21, "velocity": 108}, {"time": 1209, "pitch": 70, "duration": 1, "velocity": 105}, {"time": 1212, "pitch": 72, "duration": 1, "velocity": 64}, {"time": 1215, "pitch": 74, "duration": 4, "velocity": 117}, {"time": 1221, "pitch": 79, "duration": 4, "velocity": 117}, {"time": 1227, "pitch": 77, "duration": 22, "velocity": 120}, {"time": 1263, "pitch": 75, "duration": 4, "velocity": 109}, {"time": 1269, "pitch": 74, "duration": 5, "velocity": 114}, {"time": 1275, "pitch": 72, "duration": 23, "velocity": 114}, {"time": 1302, "pitch": 72, "duration": 4, "velocity": 105}, {"time": 1305, "pitch": 75, "duration": 3, "velocity": 102}, {"time": 1308, "pitch": 77, "duration": 3, "velocity": 100}, {"time": 1311, "pitch": 75, "duration": 3, "velocity": 112}, {"time": 1314, "pitch": 77, "duration": 3, "velocity": 100}, {"time": 1317, "pitch": 79, "duration": 2, "velocity": 97}, {"time": 1320, "pitch": 82, "duration": 2, "velocity": 116}, {"time": 1323, "pitch": 84, "duration": 22, "velocity": 120}, {"time": 1353, "pitch": 79, "duration": 4, "velocity": 117}, {"time": 1359, "pitch": 84, "duration": 4, "velocity": 114}, {"time": 1365, "pitch": 87, "duration": 4, "velocity": 116}, {"time": 1371, "pitch": 86, "duration": 15, "velocity": 120}, {"time": 1401, "pitch": 84, "duration": 5, "velocity": 105}, {"time": 1407, "pitch": 82, "duration": 5, "velocity": 112}, {"time": 1413, "pitch": 79, "duration": 4, "velocity": 114}, {"time": 1419, "pitch": 77, "duration": 20, "velocity": 117}, {"time": 1473, "pitch": 79, "duration": 4, "velocity": 102}, {"time": 1479, "pitch": 77, "duration": 4, "velocity": 117}, {"time": 1485, "pitch": 82, "duration": 4, "velocity": 109}, {"time": 1491, "pitch": 79, "duration": 5, "velocity": 117}, {"time": 1497, "pitch": 77, "duration": 5, "velocity": 105}, {"time": 1503, "pitch": 79, "duration": 5, "velocity": 102}, {"time": 1509, "pitch": 75, "duration": 4, "velocity": 109}, {"time": 1515, "pitch": 77, "duration": 15, "velocity": 108}, {"time": 1665, "pitch": 79, "duration": 4, "velocity": 114}, {"time": 1671, "pitch": 79, "duration": 4, "velocity": 105}, {"time": 1677, "pitch": 82, "duration": 4, "velocity": 112}, {"time": 1683, "pitch": 84, "duration": 19, "velocity": 117}, {"time": 1707, "pitch": 84, "duration": 22, "velocity": 120}, {"time": 1737, "pitch": 79, "duration": 4, "velocity": 117}, {"time": 1743, "pitch": 84, "duration": 4, "velocity": 114}, {"time": 1749, "pitch": 87, "duration": 4, "velocity": 116}, {"time": 1755, "pitch": 86, "duration": 15, "velocity": 120}, {"time": 1785, "pitch": 84, "duration": 5, "velocity": 105}, {"time": 1791, "pitch": 82, "duration": 5, "velocity": 112}, {"time": 1797, "pitch": 79, "duration": 4, "velocity": 114}, {"time": 1803, "pitch": 77, "duration": 20, "velocity": 117}, {"time": 1857, "pitch": 79, "duration": 4, "velocity": 102}, {"time": 1863, "pitch": 77, "duration": 4, "velocity": 117}, {"time": 1869, "pitch": 82, "duration": 4, "velocity": 109}, {"time": 1875, "pitch": 79, "duration": 5, "velocity": 117}, {"time": 1881, "pitch": 77, "duration": 5, "velocity": 105}, {"time": 1887, "pitch": 79, "duration": 5, "velocity": 102}, {"time": 1893, "pitch": 75, "duration": 4, "velocity": 109}, {"time": 1899, "pitch": 77, "duration": 15, "velocity": 108}, {"time": 2049, "pitch": 79, "duration": 4, "velocity": 114}, {"time": 2055, "pitch": 79, "duration": 4, "velocity": 105}, {"time": 2061, "pitch": 82, "duration": 4, "velocity": 112}, {"time": 2067, "pitch": 84, "duration": 11, "velocity": 117}, {"time": 2078, "pitch": 67, "duration": 5, "velocity": 120}, {"time": 2079, "pitch": 79, "duration": 5, "velocity": 120}, {"time": 2084, "pitch": 70, "duration": 5, "velocity": 116}, {"time": 2085, "pitch": 82, "duration": 4, "velocity": 116}, {"time": 2090, "pitch": 72, "duration": 16, "velocity": 117}, {"time": 2091, "pitch": 84, "duration": 15, "velocity": 117}, {"time": 2108, "pitch": 70, "duration": 5, "velocity": 112}, {"time": 2109, "pitch": 82, "duration": 4, "velocity": 112}, {"time": 2114, "pitch": 72, "duration": 14, "velocity": 117}, {"time": 2115, "pitch": 84, "duration": 13, "velocity": 117}, {"time": 2132, "pitch": 75, "duration": 5, "velocity": 112}, {"time": 2133, "pitch": 87, "duration": 4, "velocity": 112}, {"time": 2138, "pitch": 74, "duration": 5, "velocity": 117}, {"time": 2139, "pitch": 86, "duration": 4, "velocity": 117}, {"time": 2144, "pitch": 72, "duration": 2, "velocity": 120}, {"time": 2145, "pitch": 84, "duration": 1, "velocity": 120}, {"time": 2147, "pitch": 74, "duration": 2, "velocity": 123}, {"time": 2148, "pitch": 86, "duration": 2, "velocity": 123}, {"time": 2150, "pitch": 72, "duration": 5, "velocity": 123}, {"time": 2151, "pitch": 84, "duration": 4, "velocity": 123}, {"time": 2156, "pitch": 70, "duration": 5, "velocity": 116}, {"time": 2157, "pitch": 82, "duration": 4, "velocity": 116}, {"time": 2162, "pitch": 67, "duration": 24, "velocity": 120}, {"time": 2163, "pitch": 79, "duration": 23, "velocity": 120}, {"time": 2186, "pitch": 74, "duration": 16, "velocity": 114}, {"time": 2187, "pitch": 86, "duration": 16, "velocity": 114}, {"time": 2204, "pitch": 72, "duration": 5, "velocity": 111}, {"time": 2205, "pitch": 84, "duration": 4, "velocity": 111}, {"time": 2210, "pitch": 74, "duration": 5, "velocity": 111}, {"time": 2211, "pitch": 86, "duration": 4, "velocity": 111}, {"time": 2216, "pitch": 70, "duration": 4, "velocity": 112}, {"time": 2217, "pitch": 82, "duration": 4, "velocity": 112}, {"time": 2222, "pitch": 75, "duration": 4, "velocity": 112}, {"time": 2223, "pitch": 87, "duration": 4, "velocity": 112}, {"time": 2228, "pitch": 77, "duration": 5, "velocity": 120}, {"time": 2229, "pitch": 89, "duration": 4, "velocity": 120}, {"time": 2234, "pitch": 79, "duration": 36, "velocity": 120}, {"time": 2235, "pitch": 91, "duration": 35, "velocity": 120}, {"time": 2247, "pitch": 70, "duration": 5, "velocity": 112}, {"time": 2253, "pitch": 72, "duration": 5, "velocity": 105}, {"time": 2259, "pitch": 75, "duration": 5, "velocity": 112}, {"time": 2264, "pitch": 77, "duration": 6, "velocity": 114}, {"time": 2270, "pitch": 79, "duration": 7, "velocity": 114}, {"time": 2270, "pitch": 72, "duration": 5, "velocity": 120}, {"time": 2271, "pitch": 84, "duration": 4, "velocity": 120}, {"time": 2276, "pitch": 79, "duration": 1, "velocity": 120}, {"time": 2277, "pitch": 91, "duration": 4, "velocity": 120}, {"time": 2277, "pitch": 82, "duration": 5, "velocity": 116}, {"time": 2282, "pitch": 77, "duration": 8, "velocity": 117}, {"time": 2283, "pitch": 89, "duration": 7, "velocity": 117}, {"time": 2283, "pitch": 80, "duration": 22, "velocity": 117}, {"time": 2291, "pitch": 79, "duration": 2, "velocity": 111}, {"time": 2292, "pitch": 91, "duration": 1, "velocity": 111}, {"time": 2294, "pitch": 77, "duration": 5, "velocity": 117}, {"time": 2295, "pitch": 89, "duration": 4, "velocity": 117}, {"time": 2300, "pitch": 75, "duration": 5, "velocity": 112}, {"time": 2301, "pitch": 87, "duration": 4, "velocity": 112}, {"time": 2306, "pitch": 77, "duration": 17, "velocity": 114}, {"time": 2307, "pitch": 89, "duration": 23, "velocity": 114}, {"time": 2313, "pitch": 72, "duration": 4, "velocity": 120}, {"time": 2319, "pitch": 77, "duration": 4, "velocity": 114}, {"time": 2325, "pitch": 80, "duration": 4, "velocity": 112}, {"time": 2330, "pitch": 79, "duration": 5, "velocity": 117}, {"time": 2331, "pitch": 91, "duration": 4, "velocity": 117}, {"time": 2331, "pitch": 79, "duration": 4, "velocity": 105}, {"time": 2336, "pitch": 77, "duration": 2, "velocity": 114}, {"time": 2337, "pitch": 89, "duration": 1, "velocity": 114}, {"time": 2339, "pitch": 79, "duration": 2, "velocity": 117}, {"time": 2340, "pitch": 91, "duration": 1, "velocity": 117}, {"time": 2342, "pitch": 77, "duration": 5, "velocity": 120}, {"time": 2343, "pitch": 89, "duration": 4, "velocity": 120}, {"time": 2348, "pitch": 75, "duration": 4, "velocity": 112}, {"time": 2349, "pitch": 87, "duration": 4, "velocity": 112}, {"time": 2354, "pitch": 72, "duration": 5, "velocity": 117}, {"time": 2354, "pitch": 72, "duration": 5, "velocity": 120}, {"time": 2355, "pitch": 84, "duration": 22, "velocity": 120}, {"time": 2360, "pitch": 75, "duration": 5, "velocity": 116}, {"time": 2366, "pitch": 77, "duration": 6, "velocity": 114}, {"time": 2372, "pitch": 84, "duration": 5, "velocity": 120}, {"time": 2378, "pitch": 74, "duration": 11, "velocity": 117}, {"time": 2379, "pitch": 86, "duration": 10, "velocity": 117}, {"time": 2379, "pitch": 82, "duration": 23, "velocity": 109}, {"time": 2390, "pitch": 74, "duration": 5, "velocity": 114}, {"time": 2391, "pitch": 86, "duration": 4, "velocity": 114}, {"time": 2396, "pitch": 72, "duration": 5, "velocity": 117}, {"time": 2397, "pitch": 84, "duration": 4, "velocity": 117}, {"time": 2402, "pitch": 70, "duration": 5, "velocity": 112}, {"time": 2403, "pitch": 82, "duration": 4, "velocity": 112}, {"time": 2403, "pitch": 79, "duration": 9, "velocity": 114}, {"time": 2408, "pitch": 72, "duration": 2, "velocity": 100}, {"time": 2409, "pitch": 84, "duration": 2, "velocity": 100}, {"time": 2411, "pitch": 70, "duration": 2, "velocity": 112}, {"time": 2412, "pitch": 82, "duration": 1, "velocity": 112}, {"time": 2414, "pitch": 67, "duration": 6, "velocity": 114}, {"time": 2415, "pitch": 79, "duration": 5, "velocity": 114}, {"time": 2415, "pitch": 82, "duration": 9, "velocity": 112}, {"time": 2420, "pitch": 70, "duration": 4, "velocity": 116}, {"time": 2421, "pitch": 82, "duration": 3, "velocity": 116}, {"time": 2426, "pitch": 72, "duration": 46, "velocity": 114}, {"time": 2427, "pitch": 84, "duration": 42, "velocity": 114}, {"time": 2427, "pitch": 84, "duration": 42, "velocity": 117}, {"time": 2535, "pitch": 84, "duration": 4, "velocity": 120}, {"time": 2541, "pitch": 87, "duration": 4, "velocity": 116}, {"time": 2547, "pitch": 86, "duration": 4, "velocity": 117}, {"time": 2553, "pitch": 84, "duration": 1, "velocity": 111}, {"time": 2556, "pitch": 86, "duration": 1, "velocity": 114}, {"time": 2559, "pitch": 84, "duration": 5, "velocity": 123}, {"time": 2565, "pitch": 82, "duration": 4, "velocity": 109}, {"time": 2571, "pitch": 79, "duration": 25, "velocity": 100}, {"time": 2631, "pitch": 79, "duration": 5, "velocity": 114}, {"time": 2637, "pitch": 82, "duration": 4, "velocity": 112}, {"time": 2643, "pitch": 84, "duration": 4, "velocity": 120}, {"time": 2649, "pitch": 86, "duration": 2, "velocity": 108}, {"time": 2652, "pitch": 84, "duration": 1, "velocity": 111}, {"time": 2655, "pitch": 82, "duration": 5, "velocity": 112}, {"time": 2661, "pitch": 79, "duration": 4, "velocity": 105}, {"time": 2667, "pitch": 84, "duration": 21, "velocity": 108}, {"time": 2745, "pitch": 70, "duration": 1, "velocity": 105}, {"time": 2748, "pitch": 72, "duration": 1, "velocity": 64}, {"time": 2751, "pitch": 74, "duration": 4, "velocity": 117}, {"time": 2757, "pitch": 79, "duration": 4, "velocity": 117}, {"time": 2763, "pitch": 77, "duration": 22, "velocity": 120}, {"time": 2799, "pitch": 75, "duration": 4, "velocity": 109}, {"time": 2805, "pitch": 74, "duration": 5, "velocity": 114}, {"time": 2811, "pitch": 72, "duration": 23, "velocity": 114}, {"time": 2838, "pitch": 72, "duration": 4, "velocity": 105}, {"time": 2841, "pitch": 75, "duration": 3, "velocity": 102}, {"time": 2844, "pitch": 77, "duration": 3, "velocity": 100}, {"time": 2847, "pitch": 75, "duration": 3, "velocity": 112}, {"time": 2850, "pitch": 77, "duration": 3, "velocity": 100}, {"time": 2853, "pitch": 79, "duration": 2, "velocity": 97}, {"time": 2856, "pitch": 82, "duration": 2, "velocity": 116}, {"time": 2859, "pitch": 84, "duration": 22, "velocity": 120}, {"time": 2889, "pitch": 79, "duration": 4, "velocity": 117}, {"time": 2895, "pitch": 84, "duration": 4, "velocity": 114}, {"time": 2901, "pitch": 87, "duration": 4, "velocity": 116}, {"time": 2907, "pitch": 86, "duration": 15, "velocity": 120}, {"time": 2937, "pitch": 84, "duration": 5, "velocity": 105}, {"time": 2943, "pitch": 82, "duration": 5, "velocity": 112}, {"time": 2949, "pitch": 79, "duration": 4, "velocity": 114}, {"time": 2955, "pitch": 77, "duration": 20, "velocity": 117}, {"time": 3009, "pitch": 79, "duration": 4, "velocity": 102}, {"time": 3015, "pitch": 77, "duration": 4, "velocity": 117}, {"time": 3021, "pitch": 82, "duration": 4, "velocity": 109}, {"time": 3027, "pitch": 79, "duration": 5, "velocity": 117}, {"time": 3033, "pitch": 77, "duration": 5, "velocity": 105}, {"time": 3039, "pitch": 79, "duration": 5, "velocity": 102}, {"time": 3045, "pitch": 75, "duration": 4, "velocity": 109}, {"time": 3051, "pitch": 77, "duration": 15, "velocity": 108}, {"time": 3201, "pitch": 79, "duration": 4, "velocity": 114}, {"time": 3207, "pitch": 79, "duration": 4, "velocity": 105}, {"time": 3213, "pitch": 82, "duration": 4, "velocity": 112}, {"time": 3219, "pitch": 84, "duration": 19, "velocity": 117}, {"time": 3243, "pitch": 84, "duration": 22, "velocity": 120}, {"time": 3273, "pitch": 79, "duration": 4, "velocity": 117}, {"time": 3279, "pitch": 84, "duration": 4, "velocity": 114}, {"time": 3285, "pitch": 87, "duration": 4, "velocity": 116}, {"time": 3291, "pitch": 86, "duration": 15, "velocity": 120}, {"time": 3321, "pitch": 84, "duration": 5, "velocity": 105}, {"time": 3327, "pitch": 82, "duration": 5, "velocity": 112}, {"time": 3333, "pitch": 79, "duration": 4, "velocity": 114}, {"time": 3339, "pitch": 77, "duration": 20, "velocity": 117}, {"time": 3393, "pitch": 79, "duration": 4, "velocity": 102}, {"time": 3399, "pitch": 77, "duration": 4, "velocity": 117}, {"time": 3405, "pitch": 82, "duration": 4, "velocity": 109}, {"time": 3411, "pitch": 79, "duration": 5, "velocity": 117}, {"time": 3417, "pitch": 77, "duration": 5, "velocity": 105}, {"time": 3423, "pitch": 79, "duration": 5, "velocity": 102}, {"time": 3429, "pitch": 75, "duration": 4, "velocity": 109}, {"time": 3435, "pitch": 77, "duration": 15, "velocity": 108}, {"time": 3585, "pitch": 79, "duration": 4, "velocity": 114}, {"time": 3591, "pitch": 79, "duration": 4, "velocity": 105}, {"time": 3597, "pitch": 82, "duration": 4, "velocity": 112}, {"time": 3603, "pitch": 84, "duration": 11, "velocity": 117}, {"time": 3627, "pitch": 84, "duration": 22, "velocity": 120}, {"time": 3657, "pitch": 79, "duration": 4, "velocity": 117}, {"time": 3663, "pitch": 84, "duration": 4, "velocity": 114}, {"time": 3669, "pitch": 87, "duration": 4, "velocity": 116}, {"time": 3675, "pitch": 86, "duration": 15, "velocity": 120}, {"time": 3705, "pitch": 84, "duration": 5, "velocity": 105}, {"time": 3711, "pitch": 82, "duration": 5, "velocity": 112}, {"time": 3717, "pitch": 79, "duration": 4, "velocity": 114}, {"time": 3723, "pitch": 77, "duration": 20, "velocity": 117}, {"time": 3777, "pitch": 79, "duration": 4, "velocity": 102}, {"time": 3783, "pitch": 77, "duration": 4, "velocity": 117}, {"time": 3789, "pitch": 82, "duration": 4, "velocity": 109}, {"time": 3795, "pitch": 79, "duration": 5, "velocity": 117}, {"time": 3801, "pitch": 77, "duration": 5, "velocity": 105}, {"time": 3807, "pitch": 79, "duration": 5, "velocity": 102}, {"time": 3813, "pitch": 75, "duration": 4, "velocity": 109}, {"time": 3819, "pitch": 77, "duration": 15, "velocity": 108}, {"time": 3969, "pitch": 79, "duration": 4, "velocity": 114}, {"time": 3975, "pitch": 79, "duration": 4, "velocity": 105}, {"time": 3981, "pitch": 82, "duration": 4, "velocity": 112}, {"time": 3987, "pitch": 84, "duration": 19, "velocity": 117}, {"time": 4011, "pitch": 84, "duration": 22, "velocity": 120}, {"time": 4041, "pitch": 79, "duration": 4, "velocity": 117}, {"time": 4047, "pitch": 84, "duration": 4, "velocity": 114}, {"time": 4053, "pitch": 87, "duration": 4, "velocity": 116}, {"time": 4059, "pitch": 86, "duration": 15, "velocity": 120}, {"time": 4089, "pitch": 84, "duration": 5, "velocity": 105}, {"time": 4095, "pitch": 82, "duration": 5, "velocity": 112}, {"time": 4101, "pitch": 79, "duration": 4, "velocity": 114}, {"time": 4107, "pitch": 77, "duration": 20, "velocity": 117}, {"time": 4161, "pitch": 79, "duration": 4, "velocity": 102}, {"time": 4167, "pitch": 77, "duration": 4, "velocity": 117}, {"time": 4173, "pitch": 82, "duration": 4, "velocity": 109}, {"time": 4179, "pitch": 79, "duration": 5, "velocity": 117}, {"time": 4185, "pitch": 77, "duration": 5, "velocity": 105}, {"time": 4191, "pitch": 79, "duration": 5, "velocity": 102}, {"time": 4197, "pitch": 75, "duration": 4, "velocity": 109}, {"time": 4203, "pitch": 77, "duration": 15, "velocity": 108}, {"time": 4353, "pitch": 79, "duration": 4, "velocity": 114}, {"time": 4359, "pitch": 79, "duration": 4, "velocity": 105}, {"time": 4365, "pitch": 82, "duration": 4, "velocity": 112}, {"time": 4371, "pitch": 84, "duration": 11, "velocity": 117}, {"time": 4395, "pitch": 77, "duration": 15, "velocity": 108}, {"time": 4419, "pitch": 72, "duration": 6, "velocity": 110}, {"time": 4424, "pitch": 75, "duration": 6, "velocity": 111}, {"time": 4430, "pitch": 77, "duration": 6, "velocity": 111}, {"time": 4436, "pitch": 79, "duration": 6, "velocity": 111}, {"time": 4442, "pitch": 70, "duration": 13, "velocity": 111}, {"time": 4491, "pitch": 74, "duration": 19, "velocity": 105}, {"time": 4491, "pitch": 70, "duration": 19, "velocity": 105}, {"time": 4514, "pitch": 70, "duration": 34, "velocity": 102}, {"time": 4515, "pitch": 67, "duration": 32, "velocity": 102}, {"time": 4552, "pitch": 72, "duration": 53, "velocity": 102}, {"time": 4552, "pitch": 67, "duration": 52, "velocity": 102}]}, {"program": 0, "is_drum": false, "name": "PIANO", "notes": [{"time": 171, "pitch": 48, "duration": 45, "velocity": 104}, {"time": 177, "pitch": 55, "duration": 6, "velocity": 74}, {"time": 183, "pitch": 60, "duration": 15, "velocity": 101}, {"time": 189, "pitch": 55, "duration": 8, "velocity": 61}, {"time": 195, "pitch": 63, "duration": 7, "velocity": 110}, {"time": 201, "pitch": 55, "duration": 12, "velocity": 46}, {"time": 207, "pitch": 63, "duration": 17, "velocity": 110}, {"time": 207, "pitch": 67, "duration": 19, "velocity": 94}, {"time": 213, "pitch": 60, "duration": 13, "velocity": 85}, {"time": 219, "pitch": 48, "duration": 40, "velocity": 94}, {"time": 225, "pitch": 55, "duration": 7, "velocity": 58}, {"time": 231, "pitch": 60, "duration": 12, "velocity": 99}, {"time": 237, "pitch": 55, "duration": 7, "velocity": 51}, {"time": 243, "pitch": 63, "duration": 12, "velocity": 104}, {"time": 249, "pitch": 55, "duration": 9, "velocity": 51}, {"time": 255, "pitch": 67, "duration": 5, "velocity": 96}, {"time": 261, "pitch": 62, "duration": 6, "velocity": 106}, {"time": 267, "pitch": 51, "duration": 36, "velocity": 104}, {"time": 267, "pitch": 63, "duration": 4, "velocity": 96}, {"time": 273, "pitch": 58, "duration": 6, "velocity": 72}, {"time": 279, "pitch": 63, "duration": 10, "velocity": 93}, {"time": 285, "pitch": 58, "duration": 6, "velocity": 34}, {"time": 291, "pitch": 67, "duration": 12, "velocity": 104}, {"time": 297, "pitch": 58, "duration": 6, "velocity": 58}, {"time": 303, "pitch": 63, "duration": 7, "velocity": 101}, {"time": 309, "pitch": 67, "duration": 30, "velocity": 94}, {"time": 315, "pitch": 43, "duration": 38, "velocity": 101}, {"time": 321, "pitch": 58, "duration": 14, "velocity": 81}, {"time": 327, "pitch": 55, "duration": 12, "velocity": 94}, {"time": 333, "pitch": 50, "duration": 6, "velocity": 62}, {"time": 339, "pitch": 58, "duration": 12, "velocity": 101}, {"time": 339, "pitch": 62, "duration": 18, "velocity": 104}, {"time": 345, "pitch": 50, "duration": 7, "velocity": 76}, {"time": 351, "pitch": 55, "duration": 5, "velocity": 104}, {"time": 363, "pitch": 48, "duration": 36, "velocity": 104}, {"time": 363, "pitch": 60, "duration": 22, "velocity": 96}, {"time": 363, "pitch": 63, "duration": 9, "velocity": 110}, {"time": 369, "pitch": 55, "duration": 20, "velocity": 104}, {"time": 375, "pitch": 67, "duration": 9, "velocity": 109}, {"time": 381, "pitch": 63, "duration": 3, "velocity": 120}, {"time": 387, "pitch": 63, "duration": 13, "velocity": 104}, {"time": 387, "pitch": 67, "duration": 12, "velocity": 99}, {"time": 387, "pitch": 72, "duration": 10, "velocity": 99}, {"time": 393, "pitch": 55, "duration": 5, "velocity": 64}, {"time": 399, "pitch": 60, "duration": 3, "velocity": 109}, {"time": 411, "pitch": 41, "duration": 16, "velocity": 99}, {"time": 411, "pitch": 60, "duration": 13, "velocity": 96}, {"time": 417, "pitch": 48, "duration": 10, "velocity": 85}, {"time": 423, "pitch": 56, "duration": 6, "velocity": 113}, {"time": 429, "pitch": 53, "duration": 2, "velocity": 104}, {"time": 429, "pitch": 60, "duration": 1, "velocity": 1}, {"time": 435, "pitch": 43, "duration": 18, "velocity": 101}, {"time": 435, "pitch": 55, "duration": 13, "velocity": 78}, {"time": 435, "pitch": 62, "duration": 10, "velocity": 85}, {"time": 441, "pitch": 50, "duration": 12, "velocity": 94}, {"time": 447, "pitch": 58, "duration": 6, "velocity": 117}, {"time": 447, "pitch": 62, "duration": 1, "velocity": 104}, {"time": 459, "pitch": 46, "duration": 16, "velocity": 99}, {"time": 465, "pitch": 53, "duration": 9, "velocity": 101}, {"time": 471, "pitch": 58, "duration": 12, "velocity": 113}, {"time": 477, "pitch": 62, "duration": 14, "velocity": 104}, {"time": 483, "pitch": 43, "duration": 21, "velocity": 104}, {"time": 489, "pitch": 50, "duration": 12, "velocity": 89}, {"time": 495, "pitch": 58, "duration": 5, "velocity": 113}, {"time": 501, "pitch": 55, "duration": 3, "velocity": 104}, {"time": 507, "pitch": 48, "duration": 44, "velocity": 96}, {"time": 507, "pitch": 55, "duration": 2, "velocity": 94}, {"time": 507, "pitch": 60, "duration": 13, "velocity": 99}, {"time": 513, "pitch": 55, "duration": 5, "velocity": 48}, {"time": 519, "pitch": 63, "duration": 8, "velocity": 104}, {"time": 525, "pitch": 55, "duration": 4, "velocity": 46}, {"time": 531, "pitch": 60, "duration": 9, "velocity": 91}, {"time": 537, "pitch": 55, "duration": 5, "velocity": 62}, {"time": 543, "pitch": 62, "duration": 8, "velocity": 96}, {"time": 549, "pitch": 55, "duration": 3, "velocity": 87}, {"time": 555, "pitch": 48, "duration": 12, "velocity": 104}, {"time": 555, "pitch": 55, "duration": 3, "velocity": 94}, {"time": 555, "pitch": 60, "duration": 11, "velocity": 101}, {"time": 561, "pitch": 55, "duration": 5, "velocity": 87}, {"time": 567, "pitch": 63, "duration": 6, "velocity": 86}, {"time": 579, "pitch": 67, "duration": 12, "velocity": 104}, {"time": 585, "pitch": 55, "duration": 10, "velocity": 55}, {"time": 591, "pitch": 63, "duration": 21, "velocity": 120}, {"time": 603, "pitch": 48, "duration": 40, "velocity": 104}, {"time": 609, "pitch": 55, "duration": 8, "velocity": 82}, {"time": 615, "pitch": 63, "duration": 7, "velocity": 113}, {"time": 621, "pitch": 60, "duration": 7, "velocity": 80}, {"time": 627, "pitch": 67, "duration": 12, "velocity": 101}, {"time": 633, "pitch": 55, "duration": 9, "velocity": 73}, {"time": 639, "pitch": 63, "duration": 6, "velocity": 113}, {"time": 645, "pitch": 62, "duration": 6, "velocity": 104}, {"time": 651, "pitch": 51, "duration": 36, "velocity": 113}, {"time": 651, "pitch": 63, "duration": 4, "velocity": 101}, {"time": 657, "pitch": 58, "duration": 6, "velocity": 77}, {"time": 663, "pitch": 63, "duration": 13, "velocity": 107}, {"time": 669, "pitch": 58, "duration": 7, "velocity": 88}, {"time": 675, "pitch": 67, "duration": 12, "velocity": 106}, {"time": 681, "pitch": 58, "duration": 5, "velocity": 74}, {"time": 687, "pitch": 63, "duration": 7, "velocity": 104}, {"time": 693, "pitch": 67, "duration": 45, "velocity": 67}, {"time": 699, "pitch": 43, "duration": 37, "velocity": 104}, {"time": 705, "pitch": 58, "duration": 12, "velocity": 86}, {"time": 711, "pitch": 50, "duration": 12, "velocity": 80}, {"time": 717, "pitch": 55, "duration": 6, "velocity": 96}, {"time": 723, "pitch": 58, "duration": 8, "velocity": 110}, {"time": 723, "pitch": 62, "duration": 12, "velocity": 104}, {"time": 729, "pitch": 50, "duration": 6, "velocity": 67}, {"time": 735, "pitch": 58, "duration": 5, "velocity": 117}, {"time": 741, "pitch": 55, "duration": 1, "velocity": 96}, {"time": 747, "pitch": 48, "duration": 38, "velocity": 101}, {"time": 747, "pitch": 60, "duration": 12, "velocity": 94}, {"time": 747, "pitch": 63, "duration": 8, "velocity": 99}, {"time": 753, "pitch": 55, "duration": 7, "velocity": 82}, {"time": 759, "pitch": 63, "duration": 8, "velocity": 104}, {"time": 765, "pitch": 55, "duration": 7, "velocity": 61}, {"time": 771, "pitch": 63, "duration": 8, "velocity": 99}, {"time": 771, "pitch": 67, "duration": 18, "velocity": 94}, {"time": 777, "pitch": 55, "duration": 6, "velocity": 59}, {"time": 783, "pitch": 60, "duration": 7, "velocity": 104}, {"time": 789, "pitch": 63, "duration": 1, "velocity": 117}, {"time": 795, "pitch": 41, "duration": 17, "velocity": 99}, {"time": 795, "pitch": 53, "duration": 12, "velocity": 101}, {"time": 795, "pitch": 56, "duration": 9, "velocity": 110}, {"time": 801, "pitch": 48, "duration": 12, "velocity": 73}, {"time": 807, "pitch": 60, "duration": 9, "velocity": 94}, {"time": 819, "pitch": 43, "duration": 15, "velocity": 104}, {"time": 819, "pitch": 55, "duration": 12, "velocity": 96}, {"time": 825, "pitch": 50, "duration": 9, "velocity": 82}, {"time": 831, "pitch": 58, "duration": 11, "velocity": 107}, {"time": 831, "pitch": 62, "duration": 12, "velocity": 104}, {"time": 843, "pitch": 46, "duration": 38, "velocity": 88}, {"time": 849, "pitch": 53, "duration": 7, "velocity": 74}, {"time": 855, "pitch": 58, "duration": 9, "velocity": 113}, {"time": 861, "pitch": 53, "duration": 7, "velocity": 80}, {"time": 867, "pitch": 62, "duration": 10, "velocity": 101}, {"time": 873, "pitch": 53, "duration": 8, "velocity": 47}, {"time": 879, "pitch": 58, "duration": 3, "velocity": 110}, {"time": 879, "pitch": 62, "duration": 5, "velocity": 106}, {"time": 891, "pitch": 48, "duration": 46, "velocity": 96}, {"time": 891, "pitch": 60, "duration": 12, "velocity": 78}, {"time": 891, "pitch": 63, "duration": 8, "velocity": 93}, {"time": 897, "pitch": 55, "duration": 7, "velocity": 94}, {"time": 903, "pitch": 63, "duration": 8, "velocity": 101}, {"time": 909, "pitch": 55, "duration": 7, "velocity": 82}, {"time": 915, "pitch": 63, "duration": 9, "velocity": 113}, {"time": 915, "pitch": 67, "duration": 9, "velocity": 101}, {"time": 921, "pitch": 55, "duration": 7, "velocity": 73}, {"time": 927, "pitch": 60, "duration": 7, "velocity": 94}, {"time": 927, "pitch": 63, "duration": 6, "velocity": 117}, {"time": 939, "pitch": 48, "duration": 12, "velocity": 104}, {"time": 939, "pitch": 55, "duration": 3, "velocity": 94}, {"time": 939, "pitch": 60, "duration": 11, "velocity": 101}, {"time": 945, "pitch": 55, "duration": 5, "velocity": 87}, {"time": 951, "pitch": 63, "duration": 6, "velocity": 86}, {"time": 963, "pitch": 67, "duration": 12, "velocity": 104}, {"time": 969, "pitch": 55, "duration": 10, "velocity": 55}, {"time": 975, "pitch": 63, "duration": 21, "velocity": 120}, {"time": 987, "pitch": 48, "duration": 40, "velocity": 104}, {"time": 993, "pitch": 55, "duration": 8, "velocity": 82}, {"time": 999, "pitch": 63, "duration": 7, "velocity": 113}, {"time": 1005, "pitch": 60, "duration": 7, "velocity": 80}, {"time": 1011, "pitch": 67, "duration": 12, "velocity": 101}, {"time": 1017, "pitch": 55, "duration": 9, "velocity": 73}, {"time": 1023, "pitch": 63, "duration": 6, "velocity": 113}, {"time": 1029, "pitch": 62, "duration": 6, "velocity": 104}, {"time": 1035, "pitch": 51, "duration": 36, "velocity": 113}, {"time": 1035, "pitch": 63, "duration": 4, "velocity": 101}, {"time": 1041, "pitch": 58, "duration": 6, "velocity": 77}, {"time": 1047, "pitch": 63, "duration": 13, "velocity": 107}, {"time": 1053, "pitch": 58, "duration": 7, "velocity": 88}, {"time": 1059, "pitch": 67, "duration": 12, "velocity": 106}, {"time": 1065, "pitch": 58, "duration": 5, "velocity": 74}, {"time": 1071, "pitch": 63, "duration": 7, "velocity": 104}, {"time": 1077, "pitch": 67, "duration": 45, "velocity": 67}, {"time": 1083, "pitch": 43, "duration": 37, "velocity": 104}, {"time": 1089, "pitch": 58, "duration": 12, "velocity": 86}, {"time": 1095, "pitch": 50, "duration": 12, "velocity": 80}, {"time": 1101, "pitch": 55, "duration": 6, "velocity": 96}, {"time": 1107, "pitch": 58, "duration": 8, "velocity": 110}, {"time": 1107, "pitch": 62, "duration": 12, "velocity": 104}, {"time": 1113, "pitch": 50, "duration": 6, "velocity": 67}, {"time": 1119, "pitch": 58, "duration": 5, "velocity": 117}, {"time": 1125, "pitch": 55, "duration": 1, "velocity": 96}, {"time": 1131, "pitch": 48, "duration": 38, "velocity": 101}, {"time": 1131, "pitch": 60, "duration": 12, "velocity": 94}, {"time": 1131, "pitch": 63, "duration": 8, "velocity": 99}, {"time": 1137, "pitch": 55, "duration": 7, "velocity": 82}, {"time": 1143, "pitch": 63, "duration": 8, "velocity": 104}, {"time": 1149, "pitch": 55, "duration": 7, "velocity": 61}, {"time": 1155, "pitch": 63, "duration": 8, "velocity": 99}, {"time": 1155, "pitch": 67, "duration": 18, "velocity": 94}, {"time": 1161, "pitch": 55, "duration": 6, "velocity": 59}, {"time": 1167, "pitch": 60, "duration": 7, "velocity": 104}, {"time": 1173, "pitch": 63, "duration": 1, "velocity": 117}, {"time": 1179, "pitch": 41, "duration": 17, "velocity": 99}, {"time": 1179, "pitch": 53, "duration": 12, "velocity": 101}, {"time": 1179, "pitch": 56, "duration": 9, "velocity": 110}, {"time": 1185, "pitch": 48, "duration": 12, "velocity": 73}, {"time": 1191, "pitch": 60, "duration": 9, "velocity": 94}, {"time": 1203, "pitch": 43, "duration": 15, "velocity": 104}, {"time": 1203, "pitch": 55, "duration": 12, "velocity": 96}, {"time": 1209, "pitch": 50, "duration": 9, "velocity": 82}, {"time": 1215, "pitch": 58, "duration": 11, "velocity": 107}, {"time": 1215, "pitch": 62, "duration": 12, "velocity": 104}, {"time": 1227, "pitch": 46, "duration": 38, "velocity": 88}, {"time": 1233, "pitch": 53, "duration": 7, "velocity": 74}, {"time": 1239, "pitch": 58, "duration": 9, "velocity": 113}, {"time": 1245, "pitch": 53, "duration": 7, "velocity": 80}, {"time": 1251, "pitch": 62, "duration": 10, "velocity": 101}, {"time": 1257, "pitch": 53, "duration": 8, "velocity": 47}, {"time": 1263, "pitch": 58, "duration": 3, "velocity": 110}, {"time": 1263, "pitch": 62, "duration": 5, "velocity": 106}, {"time": 1275, "pitch": 48, "duration": 46, "velocity": 96}, {"time": 1275, "pitch": 60, "duration": 12, "velocity": 78}, {"time": 1275, "pitch": 63, "duration": 8, "velocity": 93}, {"time": 1281, "pitch": 55, "duration": 7, "velocity": 94}, {"time": 1287, "pitch": 63, "duration": 8, "velocity": 101}, {"time": 1293, "pitch": 55, "duration": 7, "velocity": 82}, {"time": 1299, "pitch": 63, "duration": 9, "velocity": 113}, {"time": 1299, "pitch": 67, "duration": 9, "velocity": 101}, {"time": 1305, "pitch": 55, "duration": 7, "velocity": 73}, {"time": 1311, "pitch": 60, "duration": 7, "velocity": 94}, {"time": 1311, "pitch": 63, "duration": 6, "velocity": 117}, {"time": 1322, "pitch": 63, "duration": 7, "velocity": 99}, {"time": 1322, "pitch": 48, "duration": 44, "velocity": 97}, {"time": 1325, "pitch": 55, "duration": 40, "velocity": 76}, {"time": 1329, "pitch": 60, "duration": 5, "velocity": 64}, {"time": 1332, "pitch": 63, "duration": 4, "velocity": 74}, {"time": 1335, "pitch": 67, "duration": 4, "velocity": 97}, {"time": 1338, "pitch": 63, "duration": 3, "velocity": 87}, {"time": 1341, "pitch": 60, "duration": 7, "velocity": 82}, {"time": 1343, "pitch": 63, "duration": 6, "velocity": 102}, {"time": 1346, "pitch": 72, "duration": 7, "velocity": 114}, {"time": 1350, "pitch": 67, "duration": 4, "velocity": 89}, {"time": 1353, "pitch": 63, "duration": 4, "velocity": 109}, {"time": 1356, "pitch": 60, "duration": 4, "velocity": 92}, {"time": 1359, "pitch": 67, "duration": 4, "velocity": 102}, {"time": 1361, "pitch": 63, "duration": 4, "velocity": 105}, {"time": 1364, "pitch": 60, "duration": 5, "velocity": 100}, {"time": 1368, "pitch": 67, "duration": 3, "velocity": 87}, {"time": 1371, "pitch": 43, "duration": 43, "velocity": 102}, {"time": 1374, "pitch": 50, "duration": 31, "velocity": 49}, {"time": 1377, "pitch": 58, "duration": 4, "velocity": 85}, {"time": 1380, "pitch": 55, "duration": 4, "velocity": 64}, {"time": 1383, "pitch": 62, "duration": 3, "velocity": 87}, {"time": 1385, "pitch": 58, "duration": 5, "velocity": 102}, {"time": 1389, "pitch": 62, "duration": 6, "velocity": 80}, {"time": 1395, "pitch": 67, "duration": 6, "velocity": 114}, {"time": 1398, "pitch": 62, "duration": 4, "velocity": 97}, {"time": 1401, "pitch": 58, "duration": 3, "velocity": 109}, {"time": 1403, "pitch": 55, "duration": 9, "velocity": 97}, {"time": 1407, "pitch": 50, "duration": 9, "velocity": 82}, {"time": 1410, "pitch": 58, "duration": 4, "velocity": 109}, {"time": 1413, "pitch": 62, "duration": 4, "velocity": 82}, {"time": 1416, "pitch": 58, "duration": 3, "velocity": 99}, {"time": 1419, "pitch": 46, "duration": 21, "velocity": 105}, {"time": 1422, "pitch": 53, "duration": 19, "velocity": 55}, {"time": 1424, "pitch": 58, "duration": 6, "velocity": 87}, {"time": 1428, "pitch": 62, "duration": 3, "velocity": 80}, {"time": 1430, "pitch": 65, "duration": 4, "velocity": 108}, {"time": 1433, "pitch": 62, "duration": 4, "velocity": 84}, {"time": 1436, "pitch": 58, "duration": 4, "velocity": 105}, {"time": 1439, "pitch": 62, "duration": 10, "velocity": 89}, {"time": 1442, "pitch": 46, "duration": 17, "velocity": 96}, {"time": 1445, "pitch": 53, "duration": 14, "velocity": 67}, {"time": 1448, "pitch": 58, "duration": 6, "velocity": 96}, {"time": 1452, "pitch": 62, "duration": 3, "velocity": 89}, {"time": 1455, "pitch": 65, "duration": 4, "velocity": 105}, {"time": 1458, "pitch": 62, "duration": 3, "velocity": 92}, {"time": 1460, "pitch": 58, "duration": 4, "velocity": 102}, {"time": 1464, "pitch": 62, "duration": 2, "velocity": 82}, {"time": 1467, "pitch": 51, "duration": 20, "velocity": 102}, {"time": 1469, "pitch": 58, "duration": 9, "velocity": 74}, {"time": 1472, "pitch": 63, "duration": 8, "velocity": 65}, {"time": 1476, "pitch": 67, "duration": 7, "velocity": 84}, {"time": 1479, "pitch": 58, "duration": 9, "velocity": 87}, {"time": 1482, "pitch": 63, "duration": 4, "velocity": 99}, {"time": 1485, "pitch": 67, "duration": 3, "velocity": 92}, {"time": 1488, "pitch": 63, "duration": 6, "velocity": 102}, {"time": 1490, "pitch": 51, "duration": 15, "velocity": 109}, {"time": 1493, "pitch": 58, "duration": 8, "velocity": 65}, {"time": 1496, "pitch": 63, "duration": 4, "velocity": 93}, {"time": 1499, "pitch": 67, "duration": 7, "velocity": 97}, {"time": 1502, "pitch": 58, "duration": 5, "velocity": 96}, {"time": 1505, "pitch": 63, "duration": 5, "velocity": 99}, {"time": 1509, "pitch": 67, "duration": 4, "velocity": 82}, {"time": 1512, "pitch": 63, "duration": 2, "velocity": 99}, {"time": 1515, "pitch": 41, "duration": 40, "velocity": 94}, {"time": 1517, "pitch": 48, "duration": 39, "velocity": 51}, {"time": 1520, "pitch": 56, "duration": 4, "velocity": 79}, {"time": 1523, "pitch": 53, "duration": 9, "velocity": 97}, {"time": 1526, "pitch": 60, "duration": 4, "velocity": 89}, {"time": 1529, "pitch": 56, "duration": 4, "velocity": 96}, {"time": 1532, "pitch": 60, "duration": 4, "velocity": 94}, {"time": 1535, "pitch": 56, "duration": 4, "velocity": 102}, {"time": 1538, "pitch": 60, "duration": 1, "velocity": 34}, {"time": 1538, "pitch": 65, "duration": 6, "velocity": 111}, {"time": 1541, "pitch": 60, "duration": 5, "velocity": 100}, {"time": 1544, "pitch": 56, "duration": 4, "velocity": 96}, {"time": 1547, "pitch": 53, "duration": 4, "velocity": 71}, {"time": 1550, "pitch": 60, "duration": 4, "velocity": 105}, {"time": 1553, "pitch": 56, "duration": 3, "velocity": 105}, {"time": 1556, "pitch": 53, "duration": 4, "velocity": 67}, {"time": 1559, "pitch": 56, "duration": 3, "velocity": 96}, {"time": 1562, "pitch": 43, "duration": 20, "velocity": 87}, {"time": 1566, "pitch": 50, "duration": 17, "velocity": 53}, {"time": 1568, "pitch": 58, "duration": 3, "velocity": 65}, {"time": 1571, "pitch": 55, "duration": 4, "velocity": 69}, {"time": 1574, "pitch": 62, "duration": 6, "velocity": 89}, {"time": 1577, "pitch": 58, "duration": 3, "velocity": 105}, {"time": 1580, "pitch": 55, "duration": 3, "velocity": 100}, {"time": 1583, "pitch": 67, "duration": 4, "velocity": 94}, {"time": 1586, "pitch": 48, "duration": 20, "velocity": 94}, {"time": 1589, "pitch": 55, "duration": 16, "velocity": 67}, {"time": 1592, "pitch": 63, "duration": 4, "velocity": 57}, {"time": 1595, "pitch": 60, "duration": 3, "velocity": 89}, {"time": 1598, "pitch": 67, "duration": 4, "velocity": 94}, {"time": 1601, "pitch": 63, "duration": 4, "velocity": 102}, {"time": 1604, "pitch": 60, "duration": 4, "velocity": 92}, {"time": 1607, "pitch": 63, "duration": 3, "velocity": 105}, {"time": 1610, "pitch": 46, "duration": 22, "velocity": 99}, {"time": 1613, "pitch": 53, "duration": 19, "velocity": 66}, {"time": 1616, "pitch": 58, "duration": 5, "velocity": 90}, {"time": 1620, "pitch": 62, "duration": 3, "velocity": 80}, {"time": 1623, "pitch": 65, "duration": 3, "velocity": 108}, {"time": 1626, "pitch": 62, "duration": 3, "velocity": 94}, {"time": 1629, "pitch": 58, "duration": 4, "velocity": 102}, {"time": 1632, "pitch": 62, "duration": 4, "velocity": 89}, {"time": 1634, "pitch": 43, "duration": 21, "velocity": 80}, {"time": 1637, "pitch": 50, "duration": 19, "velocity": 82}, {"time": 1640, "pitch": 58, "duration": 4, "velocity": 90}, {"time": 1643, "pitch": 55, "duration": 4, "velocity": 84}, {"time": 1647, "pitch": 62, "duration": 3, "velocity": 100}, {"time": 1650, "pitch": 58, "duration": 3, "velocity": 105}, {"time": 1653, "pitch": 55, "duration": 3, "velocity": 89}, {"time": 1656, "pitch": 62, "duration": 3, "velocity": 73}, {"time": 1658, "pitch": 48, "duration": 48, "velocity": 87}, {"time": 1662, "pitch": 55, "duration": 44, "velocity": 60}, {"time": 1664, "pitch": 63, "duration": 4, "velocity": 102}, {"time": 1668, "pitch": 60, "duration": 4, "velocity": 82}, {"time": 1671, "pitch": 67, "duration": 2, "velocity": 92}, {"time": 1673, "pitch": 63, "duration": 4, "velocity": 109}, {"time": 1676, "pitch": 67, "duration": 4, "velocity": 89}, {"time": 1679, "pitch": 63, "duration": 4, "velocity": 99}, {"time": 1682, "pitch": 72, "duration": 5, "velocity": 114}, {"time": 1685, "pitch": 67, "duration": 4, "velocity": 97}, {"time": 1688, "pitch": 63, "duration": 3, "velocity": 112}, {"time": 1691, "pitch": 60, "duration": 3, "velocity": 111}, {"time": 1694, "pitch": 67, "duration": 4, "velocity": 105}, {"time": 1697, "pitch": 63, "duration": 4, "velocity": 102}, {"time": 1700, "pitch": 60, "duration": 3, "velocity": 102}, {"time": 1703, "pitch": 67, "duration": 3, "velocity": 82}, {"time": 1706, "pitch": 63, "duration": 7, "velocity": 99}, {"time": 1707, "pitch": 48, "duration": 43, "velocity": 97}, {"time": 1710, "pitch": 55, "duration": 40, "velocity": 76}, {"time": 1713, "pitch": 60, "duration": 5, "velocity": 64}, {"time": 1716, "pitch": 63, "duration": 4, "velocity": 74}, {"time": 1720, "pitch": 67, "duration": 3, "velocity": 97}, {"time": 1722, "pitch": 63, "duration": 3, "velocity": 87}, {"time": 1725, "pitch": 60, "duration": 7, "velocity": 82}, {"time": 1728, "pitch": 63, "duration": 6, "velocity": 102}, {"time": 1731, "pitch": 72, "duration": 6, "velocity": 114}, {"time": 1734, "pitch": 67, "duration": 4, "velocity": 89}, {"time": 1737, "pitch": 63, "duration": 4, "velocity": 109}, {"time": 1740, "pitch": 60, "duration": 4, "velocity": 92}, {"time": 1743, "pitch": 67, "duration": 4, "velocity": 102}, {"time": 1746, "pitch": 63, "duration": 3, "velocity": 105}, {"time": 1749, "pitch": 60, "duration": 4, "velocity": 100}, {"time": 1752, "pitch": 67, "duration": 4, "velocity": 87}, {"time": 1755, "pitch": 43, "duration": 43, "velocity": 102}, {"time": 1758, "pitch": 50, "duration": 31, "velocity": 49}, {"time": 1761, "pitch": 58, "duration": 4, "velocity": 85}, {"time": 1764, "pitch": 55, "duration": 4, "velocity": 64}, {"time": 1767, "pitch": 62, "duration": 3, "velocity": 87}, {"time": 1770, "pitch": 58, "duration": 4, "velocity": 102}, {"time": 1773, "pitch": 62, "duration": 7, "velocity": 80}, {"time": 1779, "pitch": 67, "duration": 6, "velocity": 114}, {"time": 1782, "pitch": 62, "duration": 4, "velocity": 97}, {"time": 1785, "pitch": 58, "duration": 4, "velocity": 109}, {"time": 1788, "pitch": 55, "duration": 9, "velocity": 97}, {"time": 1791, "pitch": 50, "duration": 9, "velocity": 82}, {"time": 1794, "pitch": 58, "duration": 4, "velocity": 109}, {"time": 1797, "pitch": 62, "duration": 4, "velocity": 82}, {"time": 1800, "pitch": 58, "duration": 3, "velocity": 99}, {"time": 1803, "pitch": 46, "duration": 21, "velocity": 105}, {"time": 1806, "pitch": 53, "duration": 19, "velocity": 55}, {"time": 1809, "pitch": 58, "duration": 5, "velocity": 87}, {"time": 1812, "pitch": 62, "duration": 3, "velocity": 80}, {"time": 1815, "pitch": 65, "duration": 3, "velocity": 108}, {"time": 1818, "pitch": 62, "duration": 3, "velocity": 84}, {"time": 1821, "pitch": 58, "duration": 3, "velocity": 105}, {"time": 1824, "pitch": 62, "duration": 9, "velocity": 89}, {"time": 1826, "pitch": 46, "duration": 17, "velocity": 96}, {"time": 1830, "pitch": 53, "duration": 14, "velocity": 67}, {"time": 1832, "pitch": 58, "duration": 6, "velocity": 96}, {"time": 1836, "pitch": 62, "duration": 3, "velocity": 89}, {"time": 1839, "pitch": 65, "duration": 4, "velocity": 105}, {"time": 1842, "pitch": 62, "duration": 3, "velocity": 92}, {"time": 1845, "pitch": 58, "duration": 4, "velocity": 102}, {"time": 1848, "pitch": 62, "duration": 2, "velocity": 82}, {"time": 1851, "pitch": 51, "duration": 20, "velocity": 102}, {"time": 1854, "pitch": 58, "duration": 8, "velocity": 74}, {"time": 1857, "pitch": 63, "duration": 7, "velocity": 65}, {"time": 1860, "pitch": 67, "duration": 7, "velocity": 84}, {"time": 1863, "pitch": 58, "duration": 9, "velocity": 87}, {"time": 1866, "pitch": 63, "duration": 4, "velocity": 99}, {"time": 1870, "pitch": 67, "duration": 3, "velocity": 92}, {"time": 1872, "pitch": 63, "duration": 6, "velocity": 102}, {"time": 1875, "pitch": 51, "duration": 14, "velocity": 109}, {"time": 1877, "pitch": 58, "duration": 8, "velocity": 65}, {"time": 1881, "pitch": 63, "duration": 4, "velocity": 93}, {"time": 1884, "pitch": 67, "duration": 6, "velocity": 97}, {"time": 1887, "pitch": 58, "duration": 4, "velocity": 96}, {"time": 1890, "pitch": 63, "duration": 4, "velocity": 99}, {"time": 1893, "pitch": 67, "duration": 5, "velocity": 82}, {"time": 1896, "pitch": 63, "duration": 3, "velocity": 99}, {"time": 1899, "pitch": 41, "duration": 40, "velocity": 94}, {"time": 1902, "pitch": 48, "duration": 38, "velocity": 51}, {"time": 1904, "pitch": 56, "duration": 4, "velocity": 79}, {"time": 1907, "pitch": 53, "duration": 10, "velocity": 97}, {"time": 1911, "pitch": 60, "duration": 3, "velocity": 89}, {"time": 1913, "pitch": 56, "duration": 4, "velocity": 96}, {"time": 1917, "pitch": 60, "duration": 3, "velocity": 94}, {"time": 1919, "pitch": 56, "duration": 5, "velocity": 102}, {"time": 1922, "pitch": 60, "duration": 1, "velocity": 34}, {"time": 1922, "pitch": 65, "duration": 7, "velocity": 111}, {"time": 1925, "pitch": 60, "duration": 5, "velocity": 100}, {"time": 1928, "pitch": 56, "duration": 4, "velocity": 96}, {"time": 1931, "pitch": 53, "duration": 5, "velocity": 71}, {"time": 1935, "pitch": 60, "duration": 4, "velocity": 105}, {"time": 1937, "pitch": 56, "duration": 4, "velocity": 105}, {"time": 1940, "pitch": 53, "duration": 5, "velocity": 67}, {"time": 1943, "pitch": 56, "duration": 3, "velocity": 96}, {"time": 1947, "pitch": 43, "duration": 19, "velocity": 87}, {"time": 1950, "pitch": 50, "duration": 17, "velocity": 53}, {"time": 1952, "pitch": 58, "duration": 3, "velocity": 65}, {"time": 1955, "pitch": 55, "duration": 5, "velocity": 69}, {"time": 1958, "pitch": 62, "duration": 6, "velocity": 89}, {"time": 1961, "pitch": 58, "duration": 4, "velocity": 105}, {"time": 1964, "pitch": 55, "duration": 4, "velocity": 100}, {"time": 1967, "pitch": 67, "duration": 5, "velocity": 94}, {"time": 1970, "pitch": 48, "duration": 20, "velocity": 94}, {"time": 1974, "pitch": 55, "duration": 15, "velocity": 67}, {"time": 1976, "pitch": 63, "duration": 4, "velocity": 57}, {"time": 1979, "pitch": 60, "duration": 3, "velocity": 89}, {"time": 1983, "pitch": 67, "duration": 4, "velocity": 94}, {"time": 1986, "pitch": 63, "duration": 3, "velocity": 102}, {"time": 1989, "pitch": 60, "duration": 4, "velocity": 92}, {"time": 1992, "pitch": 63, "duration": 2, "velocity": 105}, {"time": 1994, "pitch": 46, "duration": 23, "velocity": 99}, {"time": 1997, "pitch": 53, "duration": 19, "velocity": 66}, {"time": 2000, "pitch": 58, "duration": 6, "velocity": 90}, {"time": 2004, "pitch": 62, "duration": 3, "velocity": 80}, {"time": 2007, "pitch": 65, "duration": 3, "velocity": 108}, {"time": 2010, "pitch": 62, "duration": 4, "velocity": 94}, {"time": 2013, "pitch": 58, "duration": 4, "velocity": 102}, {"time": 2016, "pitch": 62, "duration": 5, "velocity": 89}, {"time": 2019, "pitch": 43, "duration": 20, "velocity": 80}, {"time": 2022, "pitch": 50, "duration": 18, "velocity": 82}, {"time": 2025, "pitch": 58, "duration": 3, "velocity": 90}, {"time": 2028, "pitch": 55, "duration": 3, "velocity": 84}, {"time": 2031, "pitch": 62, "duration": 4, "velocity": 100}, {"time": 2034, "pitch": 58, "duration": 3, "velocity": 105}, {"time": 2037, "pitch": 55, "duration": 3, "velocity": 89}, {"time": 2040, "pitch": 62, "duration": 3, "velocity": 73}, {"time": 2043, "pitch": 48, "duration": 48, "velocity": 87}, {"time": 2046, "pitch": 55, "duration": 44, "velocity": 60}, {"time": 2049, "pitch": 63, "duration": 3, "velocity": 102}, {"time": 2052, "pitch": 60, "duration": 4, "velocity": 82}, {"time": 2055, "pitch": 67, "duration": 3, "velocity": 92}, {"time": 2057, "pitch": 63, "duration": 4, "velocity": 109}, {"time": 2061, "pitch": 67, "duration": 3, "velocity": 89}, {"time": 2063, "pitch": 63, "duration": 5, "velocity": 99}, {"time": 2067, "pitch": 72, "duration": 4, "velocity": 114}, {"time": 2069, "pitch": 67, "duration": 4, "velocity": 97}, {"time": 2072, "pitch": 63, "duration": 4, "velocity": 112}, {"time": 2075, "pitch": 60, "duration": 3, "velocity": 111}, {"time": 2078, "pitch": 67, "duration": 4, "velocity": 105}, {"time": 2081, "pitch": 63, "duration": 4, "velocity": 102}, {"time": 2085, "pitch": 60, "duration": 3, "velocity": 102}, {"time": 2088, "pitch": 67, "duration": 2, "velocity": 82}, {"time": 2091, "pitch": 48, "duration": 1, "velocity": 104}, {"time": 2091, "pitch": 60, "duration": 10, "velocity": 101}, {"time": 2091, "pitch": 63, "duration": 7, "velocity": 96}, {"time": 2097, "pitch": 55, "duration": 7, "velocity": 85}, {"time": 2103, "pitch": 63, "duration": 7, "velocity": 117}, {"time": 2103, "pitch": 67, "duration": 5, "velocity": 106}, {"time": 2115, "pitch": 63, "duration": 6, "velocity": 117}, {"time": 2115, "pitch": 67, "duration": 6, "velocity": 104}, {"time": 2121, "pitch": 55, "duration": 6, "velocity": 91}, {"time": 2127, "pitch": 60, "duration": 2, "velocity": 99}, {"time": 2127, "pitch": 63, "duration": 5, "velocity": 120}, {"time": 2127, "pitch": 67, "duration": 6, "velocity": 104}, {"time": 2133, "pitch": 60, "duration": 1, "velocity": 101}, {"time": 2139, "pitch": 43, "duration": 40, "velocity": 104}, {"time": 2139, "pitch": 55, "duration": 10, "velocity": 99}, {"time": 2139, "pitch": 58, "duration": 6, "velocity": 101}, {"time": 2145, "pitch": 50, "duration": 7, "velocity": 71}, {"time": 2151, "pitch": 58, "duration": 8, "velocity": 113}, {"time": 2151, "pitch": 62, "duration": 8, "velocity": 109}, {"time": 2157, "pitch": 50, "duration": 7, "velocity": 71}, {"time": 2163, "pitch": 58, "duration": 9, "velocity": 117}, {"time": 2163, "pitch": 62, "duration": 9, "velocity": 109}, {"time": 2169, "pitch": 50, "duration": 8, "velocity": 46}, {"time": 2175, "pitch": 58, "duration": 6, "velocity": 113}, {"time": 2175, "pitch": 62, "duration": 7, "velocity": 112}, {"time": 2175, "pitch": 67, "duration": 5, "velocity": 94}, {"time": 2181, "pitch": 55, "duration": 4, "velocity": 109}, {"time": 2187, "pitch": 46, "duration": 39, "velocity": 83}, {"time": 2187, "pitch": 58, "duration": 2, "velocity": 107}, {"time": 2187, "pitch": 62, "duration": 3, "velocity": 104}, {"time": 2193, "pitch": 53, "duration": 7, "velocity": 52}, {"time": 2199, "pitch": 58, "duration": 10, "velocity": 104}, {"time": 2199, "pitch": 62, "duration": 7, "velocity": 109}, {"time": 2199, "pitch": 65, "duration": 6, "velocity": 106}, {"time": 2205, "pitch": 53, "duration": 8, "velocity": 58}, {"time": 2211, "pitch": 58, "duration": 7, "velocity": 107}, {"time": 2211, "pitch": 62, "duration": 7, "velocity": 106}, {"time": 2211, "pitch": 65, "duration": 7, "velocity": 104}, {"time": 2217, "pitch": 53, "duration": 8, "velocity": 66}, {"time": 2223, "pitch": 58, "duration": 1, "velocity": 117}, {"time": 2223, "pitch": 62, "duration": 1, "velocity": 109}, {"time": 2223, "pitch": 65, "duration": 3, "velocity": 109}, {"time": 2235, "pitch": 39, "duration": 38, "velocity": 96}, {"time": 2235, "pitch": 58, "duration": 7, "velocity": 107}, {"time": 2235, "pitch": 63, "duration": 7, "velocity": 99}, {"time": 2241, "pitch": 46, "duration": 18, "velocity": 24}, {"time": 2247, "pitch": 58, "duration": 6, "velocity": 123}, {"time": 2247, "pitch": 63, "duration": 7, "velocity": 117}, {"time": 2259, "pitch": 58, "duration": 9, "velocity": 120}, {"time": 2259, "pitch": 63, "duration": 9, "velocity": 113}, {"time": 2265, "pitch": 46, "duration": 7, "velocity": 77}, {"time": 2271, "pitch": 58, "duration": 5, "velocity": 120}, {"time": 2271, "pitch": 63, "duration": 5, "velocity": 120}, {"time": 2277, "pitch": 55, "duration": 1, "velocity": 112}, {"time": 2283, "pitch": 41, "duration": 41, "velocity": 104}, {"time": 2283, "pitch": 53, "duration": 9, "velocity": 104}, {"time": 2283, "pitch": 56, "duration": 6, "velocity": 110}, {"time": 2289, "pitch": 48, "duration": 7, "velocity": 42}, {"time": 2295, "pitch": 56, "duration": 3, "velocity": 113}, {"time": 2295, "pitch": 60, "duration": 4, "velocity": 104}, {"time": 2307, "pitch": 56, "duration": 8, "velocity": 117}, {"time": 2307, "pitch": 60, "duration": 9, "velocity": 104}, {"time": 2313, "pitch": 48, "duration": 10, "velocity": 55}, {"time": 2319, "pitch": 56, "duration": 6, "velocity": 117}, {"time": 2319, "pitch": 60, "duration": 7, "velocity": 109}, {"time": 2319, "pitch": 65, "duration": 9, "velocity": 106}, {"time": 2325, "pitch": 53, "duration": 2, "velocity": 104}, {"time": 2331, "pitch": 43, "duration": 16, "velocity": 106}, {"time": 2331, "pitch": 55, "duration": 7, "velocity": 96}, {"time": 2331, "pitch": 58, "duration": 8, "velocity": 110}, {"time": 2337, "pitch": 50, "duration": 11, "velocity": 51}, {"time": 2343, "pitch": 55, "duration": 9, "velocity": 106}, {"time": 2343, "pitch": 58, "duration": 5, "velocity": 117}, {"time": 2355, "pitch": 48, "duration": 13, "velocity": 96}, {"time": 2355, "pitch": 60, "duration": 8, "velocity": 106}, {"time": 2355, "pitch": 63, "duration": 7, "velocity": 110}, {"time": 2361, "pitch": 55, "duration": 3, "velocity": 85}, {"time": 2367, "pitch": 55, "duration": 4, "velocity": 104}, {"time": 2367, "pitch": 60, "duration": 4, "velocity": 112}, {"time": 2367, "pitch": 63, "duration": 5, "velocity": 117}, {"time": 2379, "pitch": 46, "duration": 15, "velocity": 65}, {"time": 2379, "pitch": 58, "duration": 10, "velocity": 93}, {"time": 2379, "pitch": 62, "duration": 7, "velocity": 106}, {"time": 2385, "pitch": 53, "duration": 8, "velocity": 91}, {"time": 2391, "pitch": 62, "duration": 5, "velocity": 112}, {"time": 2391, "pitch": 65, "duration": 7, "velocity": 109}, {"time": 2397, "pitch": 58, "duration": 2, "velocity": 113}, {"time": 2403, "pitch": 43, "duration": 15, "velocity": 104}, {"time": 2403, "pitch": 55, "duration": 8, "velocity": 94}, {"time": 2403, "pitch": 58, "duration": 7, "velocity": 107}, {"time": 2409, "pitch": 50, "duration": 9, "velocity": 74}, {"time": 2415, "pitch": 55, "duration": 5, "velocity": 104}, {"time": 2415, "pitch": 58, "duration": 5, "velocity": 120}, {"time": 2415, "pitch": 62, "duration": 6, "velocity": 106}, {"time": 2427, "pitch": 48, "duration": 21, "velocity": 96}, {"time": 2427, "pitch": 55, "duration": 3, "velocity": 96}, {"time": 2427, "pitch": 60, "duration": 8, "velocity": 99}, {"time": 2433, "pitch": 55, "duration": 3, "velocity": 76}, {"time": 2439, "pitch": 55, "duration": 3, "velocity": 104}, {"time": 2439, "pitch": 60, "duration": 4, "velocity": 109}, {"time": 2439, "pitch": 63, "duration": 4, "velocity": 117}, {"time": 2445, "pitch": 62, "duration": 3, "velocity": 99}, {"time": 2451, "pitch": 48, "duration": 22, "velocity": 106}, {"time": 2451, "pitch": 55, "duration": 3, "velocity": 101}, {"time": 2451, "pitch": 60, "duration": 7, "velocity": 104}, {"time": 2457, "pitch": 55, "duration": 2, "velocity": 82}, {"time": 2463, "pitch": 55, "duration": 9, "velocity": 106}, {"time": 2463, "pitch": 60, "duration": 9, "velocity": 112}, {"time": 2463, "pitch": 63, "duration": 10, "velocity": 117}, {"time": 2475, "pitch": 48, "duration": 12, "velocity": 104}, {"time": 2475, "pitch": 55, "duration": 3, "velocity": 94}, {"time": 2475, "pitch": 60, "duration": 11, "velocity": 101}, {"time": 2481, "pitch": 55, "duration": 5, "velocity": 87}, {"time": 2487, "pitch": 63, "duration": 6, "velocity": 86}, {"time": 2499, "pitch": 67, "duration": 12, "velocity": 104}, {"time": 2505, "pitch": 55, "duration": 10, "velocity": 55}, {"time": 2511, "pitch": 63, "duration": 21, "velocity": 120}, {"time": 2523, "pitch": 48, "duration": 40, "velocity": 104}, {"time": 2529, "pitch": 55, "duration": 8, "velocity": 82}, {"time": 2535, "pitch": 63, "duration": 7, "velocity": 113}, {"time": 2541, "pitch": 60, "duration": 7, "velocity": 80}, {"time": 2547, "pitch": 67, "duration": 12, "velocity": 101}, {"time": 2553, "pitch": 55, "duration": 9, "velocity": 73}, {"time": 2559, "pitch": 63, "duration": 6, "velocity": 113}, {"time": 2565, "pitch": 62, "duration": 6, "velocity": 104}, {"time": 2571, "pitch": 51, "duration": 36, "velocity": 113}, {"time": 2571, "pitch": 63, "duration": 4, "velocity": 101}, {"time": 2577, "pitch": 58, "duration": 6, "velocity": 77}, {"time": 2583, "pitch": 63, "duration": 13, "velocity": 107}, {"time": 2589, "pitch": 58, "duration": 7, "velocity": 88}, {"time": 2595, "pitch": 67, "duration": 12, "velocity": 106}, {"time": 2601, "pitch": 58, "duration": 5, "velocity": 74}, {"time": 2607, "pitch": 63, "duration": 7, "velocity": 104}, {"time": 2613, "pitch": 67, "duration": 45, "velocity": 67}, {"time": 2619, "pitch": 43, "duration": 37, "velocity": 104}, {"time": 2625, "pitch": 58, "duration": 12, "velocity": 86}, {"time": 2631, "pitch": 50, "duration": 12, "velocity": 80}, {"time": 2637, "pitch": 55, "duration": 6, "velocity": 96}, {"time": 2643, "pitch": 58, "duration": 8, "velocity": 110}, {"time": 2643, "pitch": 62, "duration": 12, "velocity": 104}, {"time": 2649, "pitch": 50, "duration": 6, "velocity": 67}, {"time": 2655, "pitch": 58, "duration": 5, "velocity": 117}, {"time": 2661, "pitch": 55, "duration": 1, "velocity": 96}, {"time": 2667, "pitch": 48, "duration": 38, "velocity": 101}, {"time": 2667, "pitch": 60, "duration": 12, "velocity": 94}, {"time": 2667, "pitch": 63, "duration": 8, "velocity": 99}, {"time": 2673, "pitch": 55, "duration": 7, "velocity": 82}, {"time": 2679, "pitch": 63, "duration": 8, "velocity": 104}, {"time": 2685, "pitch": 55, "duration": 7, "velocity": 61}, {"time": 2691, "pitch": 63, "duration": 8, "velocity": 99}, {"time": 2691, "pitch": 67, "duration": 18, "velocity": 94}, {"time": 2697, "pitch": 55, "duration": 6, "velocity": 59}, {"time": 2703, "pitch": 60, "duration": 7, "velocity": 104}, {"time": 2709, "pitch": 63, "duration": 1, "velocity": 117}, {"time": 2715, "pitch": 41, "duration": 17, "velocity": 99}, {"time": 2715, "pitch": 53, "duration": 12, "velocity": 101}, {"time": 2715, "pitch": 56, "duration": 9, "velocity": 110}, {"time": 2721, "pitch": 48, "duration": 12, "velocity": 73}, {"time": 2727, "pitch": 60, "duration": 9, "velocity": 94}, {"time": 2739, "pitch": 43, "duration": 15, "velocity": 104}, {"time": 2739, "pitch": 55, "duration": 12, "velocity": 96}, {"time": 2745, "pitch": 50, "duration": 9, "velocity": 82}, {"time": 2751, "pitch": 58, "duration": 11, "velocity": 107}, {"time": 2751, "pitch": 62, "duration": 12, "velocity": 104}, {"time": 2763, "pitch": 46, "duration": 38, "velocity": 88}, {"time": 2769, "pitch": 53, "duration": 7, "velocity": 74}, {"time": 2775, "pitch": 58, "duration": 9, "velocity": 113}, {"time": 2781, "pitch": 53, "duration": 7, "velocity": 80}, {"time": 2787, "pitch": 62, "duration": 10, "velocity": 101}, {"time": 2793, "pitch": 53, "duration": 8, "velocity": 47}, {"time": 2799, "pitch": 58, "duration": 3, "velocity": 110}, {"time": 2799, "pitch": 62, "duration": 5, "velocity": 106}, {"time": 2811, "pitch": 48, "duration": 46, "velocity": 96}, {"time": 2811, "pitch": 60, "duration": 12, "velocity": 78}, {"time": 2811, "pitch": 63, "duration": 8, "velocity": 93}, {"time": 2817, "pitch": 55, "duration": 7, "velocity": 94}, {"time": 2823, "pitch": 63, "duration": 8, "velocity": 101}, {"time": 2829, "pitch": 55, "duration": 7, "velocity": 82}, {"time": 2835, "pitch": 63, "duration": 9, "velocity": 113}, {"time": 2835, "pitch": 67, "duration": 9, "velocity": 101}, {"time": 2841, "pitch": 55, "duration": 7, "velocity": 73}, {"time": 2847, "pitch": 60, "duration": 7, "velocity": 94}, {"time": 2847, "pitch": 63, "duration": 6, "velocity": 117}, {"time": 2858, "pitch": 63, "duration": 7, "velocity": 99}, {"time": 2859, "pitch": 48, "duration": 43, "velocity": 97}, {"time": 2862, "pitch": 55, "duration": 40, "velocity": 76}, {"time": 2865, "pitch": 60, "duration": 5, "velocity": 64}, {"time": 2868, "pitch": 63, "duration": 4, "velocity": 74}, {"time": 2872, "pitch": 67, "duration": 3, "velocity": 97}, {"time": 2874, "pitch": 63, "duration": 3, "velocity": 87}, {"time": 2877, "pitch": 60, "duration": 7, "velocity": 82}, {"time": 2880, "pitch": 63, "duration": 6, "velocity": 102}, {"time": 2883, "pitch": 72, "duration": 6, "velocity": 114}, {"time": 2886, "pitch": 67, "duration": 4, "velocity": 89}, {"time": 2889, "pitch": 63, "duration": 4, "velocity": 109}, {"time": 2892, "pitch": 60, "duration": 4, "velocity": 92}, {"time": 2895, "pitch": 67, "duration": 4, "velocity": 102}, {"time": 2898, "pitch": 63, "duration": 4, "velocity": 105}, {"time": 2901, "pitch": 60, "duration": 4, "velocity": 100}, {"time": 2904, "pitch": 67, "duration": 4, "velocity": 87}, {"time": 2907, "pitch": 43, "duration": 43, "velocity": 102}, {"time": 2910, "pitch": 50, "duration": 31, "velocity": 49}, {"time": 2913, "pitch": 58, "duration": 4, "velocity": 85}, {"time": 2916, "pitch": 55, "duration": 4, "velocity": 64}, {"time": 2919, "pitch": 62, "duration": 3, "velocity": 87}, {"time": 2922, "pitch": 58, "duration": 5, "velocity": 102}, {"time": 2925, "pitch": 62, "duration": 7, "velocity": 80}, {"time": 2931, "pitch": 67, "duration": 6, "velocity": 114}, {"time": 2934, "pitch": 62, "duration": 4, "velocity": 97}, {"time": 2937, "pitch": 58, "duration": 4, "velocity": 109}, {"time": 2940, "pitch": 55, "duration": 9, "velocity": 97}, {"time": 2943, "pitch": 50, "duration": 9, "velocity": 82}, {"time": 2946, "pitch": 58, "duration": 4, "velocity": 109}, {"time": 2949, "pitch": 62, "duration": 4, "velocity": 82}, {"time": 2952, "pitch": 58, "duration": 3, "velocity": 99}, {"time": 2955, "pitch": 46, "duration": 21, "velocity": 105}, {"time": 2958, "pitch": 53, "duration": 20, "velocity": 55}, {"time": 2961, "pitch": 58, "duration": 5, "velocity": 87}, {"time": 2964, "pitch": 62, "duration": 3, "velocity": 80}, {"time": 2967, "pitch": 65, "duration": 3, "velocity": 108}, {"time": 2970, "pitch": 62, "duration": 3, "velocity": 84}, {"time": 2973, "pitch": 58, "duration": 3, "velocity": 105}, {"time": 2976, "pitch": 62, "duration": 9, "velocity": 89}, {"time": 2978, "pitch": 46, "duration": 17, "velocity": 96}, {"time": 2982, "pitch": 53, "duration": 14, "velocity": 67}, {"time": 2984, "pitch": 58, "duration": 6, "velocity": 96}, {"time": 2988, "pitch": 62, "duration": 3, "velocity": 89}, {"time": 2991, "pitch": 65, "duration": 4, "velocity": 105}, {"time": 2994, "pitch": 62, "duration": 3, "velocity": 92}, {"time": 2997, "pitch": 58, "duration": 4, "velocity": 102}, {"time": 3000, "pitch": 62, "duration": 2, "velocity": 82}, {"time": 3003, "pitch": 51, "duration": 20, "velocity": 102}, {"time": 3006, "pitch": 58, "duration": 8, "velocity": 74}, {"time": 3009, "pitch": 63, "duration": 7, "velocity": 65}, {"time": 3012, "pitch": 67, "duration": 7, "velocity": 84}, {"time": 3015, "pitch": 58, "duration": 9, "velocity": 87}, {"time": 3018, "pitch": 63, "duration": 4, "velocity": 99}, {"time": 3022, "pitch": 67, "duration": 3, "velocity": 92}, {"time": 3024, "pitch": 63, "duration": 6, "velocity": 102}, {"time": 3027, "pitch": 51, "duration": 15, "velocity": 109}, {"time": 3029, "pitch": 58, "duration": 8, "velocity": 65}, {"time": 3033, "pitch": 63, "duration": 4, "velocity": 93}, {"time": 3036, "pitch": 67, "duration": 6, "velocity": 97}, {"time": 3039, "pitch": 58, "duration": 4, "velocity": 96}, {"time": 3042, "pitch": 63, "duration": 4, "velocity": 99}, {"time": 3045, "pitch": 67, "duration": 5, "velocity": 82}, {"time": 3048, "pitch": 63, "duration": 3, "velocity": 99}, {"time": 3051, "pitch": 41, "duration": 41, "velocity": 94}, {"time": 3054, "pitch": 48, "duration": 38, "velocity": 51}, {"time": 3056, "pitch": 56, "duration": 4, "velocity": 79}, {"time": 3059, "pitch": 53, "duration": 10, "velocity": 97}, {"time": 3063, "pitch": 60, "duration": 3, "velocity": 89}, {"time": 3065, "pitch": 56, "duration": 4, "velocity": 96}, {"time": 3069, "pitch": 60, "duration": 3, "velocity": 94}, {"time": 3071, "pitch": 56, "duration": 5, "velocity": 102}, {"time": 3074, "pitch": 60, "duration": 1, "velocity": 34}, {"time": 3075, "pitch": 65, "duration": 6, "velocity": 111}, {"time": 3078, "pitch": 60, "duration": 4, "velocity": 100}, {"time": 3080, "pitch": 56, "duration": 4, "velocity": 96}, {"time": 3083, "pitch": 53, "duration": 5, "velocity": 71}, {"time": 3087, "pitch": 60, "duration": 4, "velocity": 105}, {"time": 3090, "pitch": 56, "duration": 3, "velocity": 105}, {"time": 3092, "pitch": 53, "duration": 5, "velocity": 67}, {"time": 3095, "pitch": 56, "duration": 3, "velocity": 96}, {"time": 3099, "pitch": 43, "duration": 19, "velocity": 87}, {"time": 3102, "pitch": 50, "duration": 17, "velocity": 53}, {"time": 3104, "pitch": 58, "duration": 3, "velocity": 65}, {"time": 3107, "pitch": 55, "duration": 5, "velocity": 69}, {"time": 3110, "pitch": 62, "duration": 6, "velocity": 89}, {"time": 3113, "pitch": 58, "duration": 4, "velocity": 105}, {"time": 3116, "pitch": 55, "duration": 4, "velocity": 100}, {"time": 3119, "pitch": 67, "duration": 5, "velocity": 94}, {"time": 3122, "pitch": 48, "duration": 20, "velocity": 94}, {"time": 3126, "pitch": 55, "duration": 15, "velocity": 67}, {"time": 3128, "pitch": 63, "duration": 4, "velocity": 57}, {"time": 3131, "pitch": 60, "duration": 3, "velocity": 89}, {"time": 3135, "pitch": 67, "duration": 4, "velocity": 94}, {"time": 3138, "pitch": 63, "duration": 3, "velocity": 102}, {"time": 3141, "pitch": 60, "duration": 4, "velocity": 92}, {"time": 3144, "pitch": 63, "duration": 2, "velocity": 105}, {"time": 3146, "pitch": 46, "duration": 23, "velocity": 99}, {"time": 3149, "pitch": 53, "duration": 19, "velocity": 66}, {"time": 3152, "pitch": 58, "duration": 6, "velocity": 90}, {"time": 3156, "pitch": 62, "duration": 3, "velocity": 80}, {"time": 3159, "pitch": 65, "duration": 3, "velocity": 108}, {"time": 3162, "pitch": 62, "duration": 4, "velocity": 94}, {"time": 3165, "pitch": 58, "duration": 4, "velocity": 102}, {"time": 3168, "pitch": 62, "duration": 5, "velocity": 89}, {"time": 3171, "pitch": 43, "duration": 20, "velocity": 80}, {"time": 3171, "pitch": 41, "duration": 1, "velocity": 78}, {"time": 3174, "pitch": 50, "duration": 18, "velocity": 82}, {"time": 3177, "pitch": 58, "duration": 3, "velocity": 90}, {"time": 3180, "pitch": 55, "duration": 3, "velocity": 84}, {"time": 3183, "pitch": 62, "duration": 4, "velocity": 100}, {"time": 3186, "pitch": 58, "duration": 3, "velocity": 105}, {"time": 3189, "pitch": 55, "duration": 3, "velocity": 89}, {"time": 3192, "pitch": 62, "duration": 3, "velocity": 73}, {"time": 3195, "pitch": 48, "duration": 48, "velocity": 87}, {"time": 3198, "pitch": 55, "duration": 44, "velocity": 60}, {"time": 3201, "pitch": 63, "duration": 3, "velocity": 102}, {"time": 3204, "pitch": 60, "duration": 4, "velocity": 82}, {"time": 3207, "pitch": 67, "duration": 3, "velocity": 92}, {"time": 3209, "pitch": 63, "duration": 4, "velocity": 109}, {"time": 3213, "pitch": 67, "duration": 3, "velocity": 89}, {"time": 3215, "pitch": 63, "duration": 5, "velocity": 99}, {"time": 3219, "pitch": 72, "duration": 4, "velocity": 114}, {"time": 3222, "pitch": 67, "duration": 3, "velocity": 97}, {"time": 3224, "pitch": 63, "duration": 4, "velocity": 112}, {"time": 3228, "pitch": 60, "duration": 3, "velocity": 111}, {"time": 3231, "pitch": 67, "duration": 3, "velocity": 105}, {"time": 3233, "pitch": 63, "duration": 4, "velocity": 102}, {"time": 3237, "pitch": 60, "duration": 3, "velocity": 102}, {"time": 3240, "pitch": 67, "duration": 2, "velocity": 82}, {"time": 3243, "pitch": 63, "duration": 7, "velocity": 99}, {"time": 3243, "pitch": 48, "duration": 44, "velocity": 97}, {"time": 3246, "pitch": 55, "duration": 40, "velocity": 76}, {"time": 3249, "pitch": 60, "duration": 5, "velocity": 64}, {"time": 3252, "pitch": 63, "duration": 4, "velocity": 74}, {"time": 3256, "pitch": 67, "duration": 4, "velocity": 97}, {"time": 3259, "pitch": 63, "duration": 3, "velocity": 87}, {"time": 3262, "pitch": 60, "duration": 6, "velocity": 82}, {"time": 3264, "pitch": 63, "duration": 6, "velocity": 102}, {"time": 3267, "pitch": 72, "duration": 6, "velocity": 114}, {"time": 3270, "pitch": 67, "duration": 5, "velocity": 89}, {"time": 3274, "pitch": 63, "duration": 3, "velocity": 109}, {"time": 3276, "pitch": 60, "duration": 4, "velocity": 92}, {"time": 3279, "pitch": 67, "duration": 5, "velocity": 102}, {"time": 3282, "pitch": 63, "duration": 4, "velocity": 105}, {"time": 3285, "pitch": 60, "duration": 4, "velocity": 100}, {"time": 3288, "pitch": 67, "duration": 4, "velocity": 87}, {"time": 3291, "pitch": 43, "duration": 43, "velocity": 102}, {"time": 3295, "pitch": 50, "duration": 31, "velocity": 49}, {"time": 3297, "pitch": 58, "duration": 4, "velocity": 85}, {"time": 3300, "pitch": 55, "duration": 5, "velocity": 64}, {"time": 3303, "pitch": 62, "duration": 3, "velocity": 87}, {"time": 3306, "pitch": 58, "duration": 5, "velocity": 102}, {"time": 3309, "pitch": 62, "duration": 7, "velocity": 80}, {"time": 3316, "pitch": 67, "duration": 5, "velocity": 114}, {"time": 3318, "pitch": 62, "duration": 5, "velocity": 97}, {"time": 3321, "pitch": 58, "duration": 4, "velocity": 109}, {"time": 3324, "pitch": 55, "duration": 9, "velocity": 97}, {"time": 3327, "pitch": 50, "duration": 10, "velocity": 82}, {"time": 3330, "pitch": 58, "duration": 4, "velocity": 109}, {"time": 3334, "pitch": 62, "duration": 3, "velocity": 82}, {"time": 3336, "pitch": 58, "duration": 4, "velocity": 99}, {"time": 3339, "pitch": 46, "duration": 22, "velocity": 105}, {"time": 3342, "pitch": 53, "duration": 20, "velocity": 55}, {"time": 3345, "pitch": 58, "duration": 5, "velocity": 87}, {"time": 3348, "pitch": 62, "duration": 3, "velocity": 80}, {"time": 3351, "pitch": 65, "duration": 4, "velocity": 108}, {"time": 3354, "pitch": 62, "duration": 3, "velocity": 84}, {"time": 3357, "pitch": 58, "duration": 4, "velocity": 105}, {"time": 3360, "pitch": 62, "duration": 10, "velocity": 89}, {"time": 3363, "pitch": 46, "duration": 17, "velocity": 96}, {"time": 3366, "pitch": 53, "duration": 14, "velocity": 67}, {"time": 3369, "pitch": 58, "duration": 6, "velocity": 96}, {"time": 3372, "pitch": 62, "duration": 4, "velocity": 89}, {"time": 3375, "pitch": 65, "duration": 4, "velocity": 105}, {"time": 3378, "pitch": 62, "duration": 4, "velocity": 92}, {"time": 3381, "pitch": 58, "duration": 4, "velocity": 102}, {"time": 3385, "pitch": 62, "duration": 2, "velocity": 82}, {"time": 3387, "pitch": 51, "duration": 21, "velocity": 102}, {"time": 3390, "pitch": 58, "duration": 9, "velocity": 74}, {"time": 3393, "pitch": 63, "duration": 8, "velocity": 65}, {"time": 3396, "pitch": 67, "duration": 7, "velocity": 84}, {"time": 3400, "pitch": 58, "duration": 8, "velocity": 87}, {"time": 3403, "pitch": 63, "duration": 4, "velocity": 99}, {"time": 3406, "pitch": 67, "duration": 3, "velocity": 92}, {"time": 3408, "pitch": 63, "duration": 7, "velocity": 102}, {"time": 3411, "pitch": 51, "duration": 15, "velocity": 109}, {"time": 3414, "pitch": 58, "duration": 7, "velocity": 65}, {"time": 3417, "pitch": 63, "duration": 4, "velocity": 93}, {"time": 3420, "pitch": 67, "duration": 7, "velocity": 97}, {"time": 3423, "pitch": 58, "duration": 4, "velocity": 96}, {"time": 3426, "pitch": 63, "duration": 4, "velocity": 99}, {"time": 3430, "pitch": 67, "duration": 4, "velocity": 82}, {"time": 3432, "pitch": 63, "duration": 3, "velocity": 99}, {"time": 3435, "pitch": 41, "duration": 41, "velocity": 94}, {"time": 3438, "pitch": 48, "duration": 39, "velocity": 51}, {"time": 3441, "pitch": 56, "duration": 3, "velocity": 79}, {"time": 3444, "pitch": 53, "duration": 9, "velocity": 97}, {"time": 3447, "pitch": 60, "duration": 3, "velocity": 89}, {"time": 3450, "pitch": 56, "duration": 3, "velocity": 96}, {"time": 3453, "pitch": 60, "duration": 4, "velocity": 94}, {"time": 3455, "pitch": 56, "duration": 5, "velocity": 102}, {"time": 3458, "pitch": 60, "duration": 1, "velocity": 34}, {"time": 3459, "pitch": 65, "duration": 6, "velocity": 111}, {"time": 3462, "pitch": 60, "duration": 4, "velocity": 100}, {"time": 3465, "pitch": 56, "duration": 3, "velocity": 96}, {"time": 3468, "pitch": 53, "duration": 4, "velocity": 71}, {"time": 3471, "pitch": 60, "duration": 4, "velocity": 105}, {"time": 3474, "pitch": 56, "duration": 3, "velocity": 105}, {"time": 3477, "pitch": 53, "duration": 4, "velocity": 67}, {"time": 3480, "pitch": 56, "duration": 2, "velocity": 96}, {"time": 3483, "pitch": 43, "duration": 20, "velocity": 87}, {"time": 3486, "pitch": 50, "duration": 17, "velocity": 53}, {"time": 3489, "pitch": 58, "duration": 3, "velocity": 65}, {"time": 3492, "pitch": 55, "duration": 4, "velocity": 69}, {"time": 3495, "pitch": 62, "duration": 5, "velocity": 89}, {"time": 3497, "pitch": 58, "duration": 4, "velocity": 105}, {"time": 3501, "pitch": 55, "duration": 3, "velocity": 100}, {"time": 3504, "pitch": 67, "duration": 4, "velocity": 94}, {"time": 3507, "pitch": 48, "duration": 19, "velocity": 94}, {"time": 3510, "pitch": 55, "duration": 16, "velocity": 67}, {"time": 3512, "pitch": 63, "duration": 4, "velocity": 57}, {"time": 3516, "pitch": 60, "duration": 3, "velocity": 89}, {"time": 3519, "pitch": 67, "duration": 4, "velocity": 94}, {"time": 3522, "pitch": 63, "duration": 3, "velocity": 102}, {"time": 3525, "pitch": 60, "duration": 4, "velocity": 92}, {"time": 3528, "pitch": 63, "duration": 3, "velocity": 105}, {"time": 3530, "pitch": 46, "duration": 23, "velocity": 99}, {"time": 3534, "pitch": 53, "duration": 19, "velocity": 66}, {"time": 3537, "pitch": 58, "duration": 5, "velocity": 90}, {"time": 3540, "pitch": 62, "duration": 4, "velocity": 80}, {"time": 3543, "pitch": 65, "duration": 4, "velocity": 108}, {"time": 3546, "pitch": 62, "duration": 4, "velocity": 94}, {"time": 3549, "pitch": 58, "duration": 4, "velocity": 102}, {"time": 3553, "pitch": 62, "duration": 4, "velocity": 89}, {"time": 3555, "pitch": 43, "duration": 20, "velocity": 80}, {"time": 3555, "pitch": 41, "duration": 1, "velocity": 78}, {"time": 3558, "pitch": 50, "duration": 18, "velocity": 82}, {"time": 3561, "pitch": 58, "duration": 3, "velocity": 90}, {"time": 3564, "pitch": 55, "duration": 3, "velocity": 84}, {"time": 3567, "pitch": 62, "duration": 4, "velocity": 100}, {"time": 3570, "pitch": 58, "duration": 3, "velocity": 105}, {"time": 3573, "pitch": 55, "duration": 3, "velocity": 89}, {"time": 3576, "pitch": 62, "duration": 3, "velocity": 73}, {"time": 3579, "pitch": 48, "duration": 46, "velocity": 87}, {"time": 3582, "pitch": 55, "duration": 43, "velocity": 60}, {"time": 3585, "pitch": 63, "duration": 4, "velocity": 102}, {"time": 3588, "pitch": 60, "duration": 4, "velocity": 82}, {"time": 3591, "pitch": 67, "duration": 3, "velocity": 92}, {"time": 3594, "pitch": 63, "duration": 4, "velocity": 109}, {"time": 3597, "pitch": 67, "duration": 3, "velocity": 89}, {"time": 3599, "pitch": 63, "duration": 5, "velocity": 99}, {"time": 3603, "pitch": 72, "duration": 5, "velocity": 114}, {"time": 3606, "pitch": 67, "duration": 4, "velocity": 97}, {"time": 3609, "pitch": 63, "duration": 3, "velocity": 112}, {"time": 3612, "pitch": 60, "duration": 3, "velocity": 111}, {"time": 3615, "pitch": 67, "duration": 4, "velocity": 105}, {"time": 3618, "pitch": 63, "duration": 4, "velocity": 102}, {"time": 3621, "pitch": 60, "duration": 3, "velocity": 102}, {"time": 3624, "pitch": 67, "duration": 2, "velocity": 82}, {"time": 3627, "pitch": 63, "duration": 6, "velocity": 99}, {"time": 3627, "pitch": 48, "duration": 43, "velocity": 97}, {"time": 3630, "pitch": 55, "duration": 40, "velocity": 76}, {"time": 3633, "pitch": 60, "duration": 5, "velocity": 64}, {"time": 3636, "pitch": 63, "duration": 4, "velocity": 74}, {"time": 3640, "pitch": 67, "duration": 3, "velocity": 97}, {"time": 3643, "pitch": 63, "duration": 2, "velocity": 87}, {"time": 3645, "pitch": 60, "duration": 7, "velocity": 82}, {"time": 3648, "pitch": 63, "duration": 6, "velocity": 102}, {"time": 3651, "pitch": 72, "duration": 6, "velocity": 114}, {"time": 3654, "pitch": 67, "duration": 4, "velocity": 89}, {"time": 3657, "pitch": 63, "duration": 4, "velocity": 109}, {"time": 3660, "pitch": 60, "duration": 4, "velocity": 92}, {"time": 3663, "pitch": 67, "duration": 4, "velocity": 102}, {"time": 3666, "pitch": 63, "duration": 4, "velocity": 105}, {"time": 3669, "pitch": 60, "duration": 4, "velocity": 100}, {"time": 3672, "pitch": 67, "duration": 4, "velocity": 87}, {"time": 3675, "pitch": 43, "duration": 43, "velocity": 102}, {"time": 3678, "pitch": 50, "duration": 31, "velocity": 49}, {"time": 3681, "pitch": 58, "duration": 4, "velocity": 85}, {"time": 3684, "pitch": 55, "duration": 4, "velocity": 64}, {"time": 3687, "pitch": 62, "duration": 3, "velocity": 87}, {"time": 3690, "pitch": 58, "duration": 5, "velocity": 102}, {"time": 3693, "pitch": 62, "duration": 7, "velocity": 80}, {"time": 3699, "pitch": 67, "duration": 6, "velocity": 114}, {"time": 3702, "pitch": 62, "duration": 4, "velocity": 97}, {"time": 3705, "pitch": 58, "duration": 4, "velocity": 109}, {"time": 3708, "pitch": 55, "duration": 9, "velocity": 97}, {"time": 3711, "pitch": 50, "duration": 9, "velocity": 82}, {"time": 3714, "pitch": 58, "duration": 4, "velocity": 109}, {"time": 3717, "pitch": 62, "duration": 4, "velocity": 82}, {"time": 3720, "pitch": 58, "duration": 3, "velocity": 99}, {"time": 3723, "pitch": 46, "duration": 21, "velocity": 105}, {"time": 3726, "pitch": 53, "duration": 20, "velocity": 55}, {"time": 3729, "pitch": 58, "duration": 5, "velocity": 87}, {"time": 3732, "pitch": 62, "duration": 3, "velocity": 80}, {"time": 3735, "pitch": 65, "duration": 4, "velocity": 108}, {"time": 3738, "pitch": 62, "duration": 3, "velocity": 84}, {"time": 3741, "pitch": 58, "duration": 3, "velocity": 105}, {"time": 3744, "pitch": 62, "duration": 9, "velocity": 89}, {"time": 3746, "pitch": 46, "duration": 17, "velocity": 96}, {"time": 3750, "pitch": 53, "duration": 14, "velocity": 67}, {"time": 3753, "pitch": 58, "duration": 5, "velocity": 96}, {"time": 3756, "pitch": 62, "duration": 3, "velocity": 89}, {"time": 3759, "pitch": 65, "duration": 4, "velocity": 105}, {"time": 3762, "pitch": 62, "duration": 3, "velocity": 92}, {"time": 3765, "pitch": 58, "duration": 4, "velocity": 102}, {"time": 3768, "pitch": 62, "duration": 2, "velocity": 82}, {"time": 3771, "pitch": 51, "duration": 21, "velocity": 102}, {"time": 3774, "pitch": 58, "duration": 8, "velocity": 74}, {"time": 3777, "pitch": 63, "duration": 8, "velocity": 65}, {"time": 3780, "pitch": 67, "duration": 7, "velocity": 84}, {"time": 3783, "pitch": 58, "duration": 9, "velocity": 87}, {"time": 3787, "pitch": 63, "duration": 3, "velocity": 99}, {"time": 3790, "pitch": 67, "duration": 3, "velocity": 92}, {"time": 3792, "pitch": 63, "duration": 7, "velocity": 102}, {"time": 3795, "pitch": 51, "duration": 15, "velocity": 109}, {"time": 3797, "pitch": 58, "duration": 8, "velocity": 65}, {"time": 3801, "pitch": 63, "duration": 4, "velocity": 93}, {"time": 3804, "pitch": 67, "duration": 6, "velocity": 97}, {"time": 3807, "pitch": 58, "duration": 4, "velocity": 96}, {"time": 3810, "pitch": 63, "duration": 4, "velocity": 99}, {"time": 3813, "pitch": 67, "duration": 5, "velocity": 82}, {"time": 3816, "pitch": 63, "duration": 3, "velocity": 99}, {"time": 3819, "pitch": 41, "duration": 41, "velocity": 94}, {"time": 3822, "pitch": 48, "duration": 38, "velocity": 51}, {"time": 3824, "pitch": 56, "duration": 4, "velocity": 79}, {"time": 3828, "pitch": 53, "duration": 9, "velocity": 97}, {"time": 3831, "pitch": 60, "duration": 3, "velocity": 89}, {"time": 3833, "pitch": 56, "duration": 4, "velocity": 96}, {"time": 3837, "pitch": 60, "duration": 3, "velocity": 94}, {"time": 3839, "pitch": 56, "duration": 5, "velocity": 102}, {"time": 3842, "pitch": 60, "duration": 1, "velocity": 34}, {"time": 3843, "pitch": 65, "duration": 6, "velocity": 111}, {"time": 3846, "pitch": 60, "duration": 4, "velocity": 100}, {"time": 3849, "pitch": 56, "duration": 3, "velocity": 96}, {"time": 3851, "pitch": 53, "duration": 5, "velocity": 71}, {"time": 3855, "pitch": 60, "duration": 4, "velocity": 105}, {"time": 3858, "pitch": 56, "duration": 3, "velocity": 105}, {"time": 3860, "pitch": 53, "duration": 5, "velocity": 67}, {"time": 3863, "pitch": 56, "duration": 3, "velocity": 96}, {"time": 3867, "pitch": 43, "duration": 20, "velocity": 87}, {"time": 3870, "pitch": 50, "duration": 17, "velocity": 53}, {"time": 3872, "pitch": 58, "duration": 3, "velocity": 65}, {"time": 3876, "pitch": 55, "duration": 4, "velocity": 69}, {"time": 3879, "pitch": 62, "duration": 5, "velocity": 89}, {"time": 3881, "pitch": 58, "duration": 4, "velocity": 105}, {"time": 3884, "pitch": 55, "duration": 4, "velocity": 100}, {"time": 3887, "pitch": 67, "duration": 5, "velocity": 94}, {"time": 3890, "pitch": 48, "duration": 20, "velocity": 94}, {"time": 3894, "pitch": 55, "duration": 16, "velocity": 67}, {"time": 3896, "pitch": 63, "duration": 4, "velocity": 57}, {"time": 3900, "pitch": 60, "duration": 3, "velocity": 89}, {"time": 3903, "pitch": 67, "duration": 4, "velocity": 94}, {"time": 3906, "pitch": 63, "duration": 3, "velocity": 102}, {"time": 3909, "pitch": 60, "duration": 4, "velocity": 92}, {"time": 3912, "pitch": 63, "duration": 2, "velocity": 105}, {"time": 3914, "pitch": 46, "duration": 23, "velocity": 99}, {"time": 3917, "pitch": 53, "duration": 19, "velocity": 66}, {"time": 3920, "pitch": 58, "duration": 6, "velocity": 90}, {"time": 3924, "pitch": 62, "duration": 3, "velocity": 80}, {"time": 3927, "pitch": 65, "duration": 4, "velocity": 108}, {"time": 3930, "pitch": 62, "duration": 4, "velocity": 94}, {"time": 3933, "pitch": 58, "duration": 4, "velocity": 102}, {"time": 3936, "pitch": 62, "duration": 5, "velocity": 89}, {"time": 3939, "pitch": 43, "duration": 20, "velocity": 80}, {"time": 3939, "pitch": 41, "duration": 1, "velocity": 78}, {"time": 3942, "pitch": 50, "duration": 18, "velocity": 82}, {"time": 3945, "pitch": 58, "duration": 3, "velocity": 90}, {"time": 3948, "pitch": 55, "duration": 3, "velocity": 84}, {"time": 3951, "pitch": 62, "duration": 4, "velocity": 100}, {"time": 3954, "pitch": 58, "duration": 3, "velocity": 105}, {"time": 3957, "pitch": 55, "duration": 3, "velocity": 89}, {"time": 3960, "pitch": 62, "duration": 3, "velocity": 73}, {"time": 3963, "pitch": 48, "duration": 48, "velocity": 87}, {"time": 3966, "pitch": 55, "duration": 45, "velocity": 60}, {"time": 3969, "pitch": 63, "duration": 3, "velocity": 102}, {"time": 3972, "pitch": 60, "duration": 4, "velocity": 82}, {"time": 3975, "pitch": 67, "duration": 3, "velocity": 92}, {"time": 3977, "pitch": 63, "duration": 4, "velocity": 109}, {"time": 3981, "pitch": 67, "duration": 3, "velocity": 89}, {"time": 3983, "pitch": 63, "duration": 5, "velocity": 99}, {"time": 3987, "pitch": 72, "duration": 5, "velocity": 114}, {"time": 3990, "pitch": 67, "duration": 3, "velocity": 97}, {"time": 3993, "pitch": 63, "duration": 3, "velocity": 112}, {"time": 3996, "pitch": 60, "duration": 3, "velocity": 111}, {"time": 3999, "pitch": 67, "duration": 4, "velocity": 105}, {"time": 4001, "pitch": 63, "duration": 4, "velocity": 102}, {"time": 4005, "pitch": 60, "duration": 3, "velocity": 102}, {"time": 4008, "pitch": 67, "duration": 2, "velocity": 82}, {"time": 4011, "pitch": 63, "duration": 7, "velocity": 99}, {"time": 4011, "pitch": 48, "duration": 44, "velocity": 97}, {"time": 4014, "pitch": 55, "duration": 40, "velocity": 76}, {"time": 4017, "pitch": 60, "duration": 5, "velocity": 64}, {"time": 4021, "pitch": 63, "duration": 3, "velocity": 74}, {"time": 4024, "pitch": 67, "duration": 4, "velocity": 97}, {"time": 4027, "pitch": 63, "duration": 3, "velocity": 87}, {"time": 4030, "pitch": 60, "duration": 6, "velocity": 82}, {"time": 4032, "pitch": 63, "duration": 6, "velocity": 102}, {"time": 4035, "pitch": 72, "duration": 6, "velocity": 114}, {"time": 4038, "pitch": 67, "duration": 5, "velocity": 89}, {"time": 4042, "pitch": 63, "duration": 3, "velocity": 109}, {"time": 4044, "pitch": 60, "duration": 4, "velocity": 92}, {"time": 4047, "pitch": 67, "duration": 5, "velocity": 102}, {"time": 4050, "pitch": 63, "duration": 4, "velocity": 105}, {"time": 4053, "pitch": 60, "duration": 5, "velocity": 100}, {"time": 4056, "pitch": 67, "duration": 4, "velocity": 87}, {"time": 4060, "pitch": 43, "duration": 43, "velocity": 102}, {"time": 4063, "pitch": 50, "duration": 31, "velocity": 49}, {"time": 4065, "pitch": 58, "duration": 4, "velocity": 85}, {"time": 4069, "pitch": 55, "duration": 4, "velocity": 64}, {"time": 4072, "pitch": 62, "duration": 2, "velocity": 87}, {"time": 4074, "pitch": 58, "duration": 5, "velocity": 102}, {"time": 4077, "pitch": 62, "duration": 7, "velocity": 80}, {"time": 4084, "pitch": 67, "duration": 5, "velocity": 114}, {"time": 4086, "pitch": 62, "duration": 5, "velocity": 97}, {"time": 4089, "pitch": 58, "duration": 4, "velocity": 109}, {"time": 4092, "pitch": 55, "duration": 9, "velocity": 97}, {"time": 4095, "pitch": 50, "duration": 10, "velocity": 82}, {"time": 4098, "pitch": 58, "duration": 4, "velocity": 109}, {"time": 4102, "pitch": 62, "duration": 4, "velocity": 82}, {"time": 4104, "pitch": 58, "duration": 4, "velocity": 99}, {"time": 4107, "pitch": 46, "duration": 22, "velocity": 105}, {"time": 4110, "pitch": 53, "duration": 20, "velocity": 55}, {"time": 4113, "pitch": 58, "duration": 5, "velocity": 87}, {"time": 4116, "pitch": 62, "duration": 3, "velocity": 80}, {"time": 4119, "pitch": 65, "duration": 4, "velocity": 108}, {"time": 4122, "pitch": 62, "duration": 3, "velocity": 84}, {"time": 4125, "pitch": 58, "duration": 4, "velocity": 105}, {"time": 4128, "pitch": 62, "duration": 10, "velocity": 89}, {"time": 4131, "pitch": 46, "duration": 17, "velocity": 96}, {"time": 4134, "pitch": 53, "duration": 14, "velocity": 67}, {"time": 4137, "pitch": 58, "duration": 6, "velocity": 96}, {"time": 4141, "pitch": 62, "duration": 3, "velocity": 89}, {"time": 4143, "pitch": 65, "duration": 5, "velocity": 105}, {"time": 4146, "pitch": 62, "duration": 4, "velocity": 92}, {"time": 4149, "pitch": 58, "duration": 4, "velocity": 102}, {"time": 4153, "pitch": 62, "duration": 2, "velocity": 82}, {"time": 4155, "pitch": 51, "duration": 21, "velocity": 102}, {"time": 4158, "pitch": 58, "duration": 9, "velocity": 74}, {"time": 4161, "pitch": 63, "duration": 8, "velocity": 65}, {"time": 4164, "pitch": 67, "duration": 7, "velocity": 84}, {"time": 4168, "pitch": 58, "duration": 8, "velocity": 87}, {"time": 4171, "pitch": 63, "duration": 4, "velocity": 99}, {"time": 4174, "pitch": 67, "duration": 3, "velocity": 92}, {"time": 4176, "pitch": 63, "duration": 7, "velocity": 102}, {"time": 4179, "pitch": 51, "duration": 15, "velocity": 109}, {"time": 4182, "pitch": 58, "duration": 8, "velocity": 65}, {"time": 4185, "pitch": 63, "duration": 4, "velocity": 93}, {"time": 4188, "pitch": 67, "duration": 7, "velocity": 97}, {"time": 4191, "pitch": 58, "duration": 4, "velocity": 96}, {"time": 4194, "pitch": 63, "duration": 5, "velocity": 99}, {"time": 4198, "pitch": 67, "duration": 4, "velocity": 82}, {"time": 4200, "pitch": 63, "duration": 3, "velocity": 99}, {"time": 4203, "pitch": 41, "duration": 41, "velocity": 94}, {"time": 4206, "pitch": 48, "duration": 39, "velocity": 51}, {"time": 4209, "pitch": 56, "duration": 4, "velocity": 79}, {"time": 4212, "pitch": 53, "duration": 9, "velocity": 97}, {"time": 4215, "pitch": 60, "duration": 3, "velocity": 89}, {"time": 4218, "pitch": 56, "duration": 3, "velocity": 96}, {"time": 4221, "pitch": 60, "duration": 4, "velocity": 94}, {"time": 4223, "pitch": 56, "duration": 5, "velocity": 102}, {"time": 4226, "pitch": 60, "duration": 1, "velocity": 34}, {"time": 4227, "pitch": 65, "duration": 6, "velocity": 111}, {"time": 4230, "pitch": 60, "duration": 4, "velocity": 100}, {"time": 4233, "pitch": 56, "duration": 3, "velocity": 96}, {"time": 4236, "pitch": 53, "duration": 4, "velocity": 71}, {"time": 4239, "pitch": 60, "duration": 4, "velocity": 105}, {"time": 4242, "pitch": 56, "duration": 3, "velocity": 105}, {"time": 4245, "pitch": 53, "duration": 4, "velocity": 67}, {"time": 4248, "pitch": 56, "duration": 2, "velocity": 96}, {"time": 4251, "pitch": 43, "duration": 20, "velocity": 87}, {"time": 4255, "pitch": 50, "duration": 16, "velocity": 53}, {"time": 4257, "pitch": 58, "duration": 3, "velocity": 65}, {"time": 4260, "pitch": 55, "duration": 4, "velocity": 69}, {"time": 4263, "pitch": 62, "duration": 6, "velocity": 89}, {"time": 4266, "pitch": 58, "duration": 3, "velocity": 105}, {"time": 4269, "pitch": 55, "duration": 3, "velocity": 100}, {"time": 4272, "pitch": 67, "duration": 4, "velocity": 94}, {"time": 4275, "pitch": 48, "duration": 20, "velocity": 94}, {"time": 4278, "pitch": 55, "duration": 16, "velocity": 67}, {"time": 4280, "pitch": 63, "duration": 5, "velocity": 57}, {"time": 4284, "pitch": 60, "duration": 3, "velocity": 89}, {"time": 4287, "pitch": 67, "duration": 4, "velocity": 94}, {"time": 4290, "pitch": 63, "duration": 3, "velocity": 102}, {"time": 4293, "pitch": 60, "duration": 4, "velocity": 92}, {"time": 4296, "pitch": 63, "duration": 3, "velocity": 105}, {"time": 4299, "pitch": 46, "duration": 22, "velocity": 99}, {"time": 4302, "pitch": 53, "duration": 19, "velocity": 66}, {"time": 4305, "pitch": 58, "duration": 5, "velocity": 90}, {"time": 4308, "pitch": 62, "duration": 4, "velocity": 80}, {"time": 4311, "pitch": 65, "duration": 4, "velocity": 108}, {"time": 4314, "pitch": 62, "duration": 4, "velocity": 94}, {"time": 4317, "pitch": 58, "duration": 4, "velocity": 102}, {"time": 4321, "pitch": 62, "duration": 4, "velocity": 89}, {"time": 4323, "pitch": 43, "duration": 20, "velocity": 80}, {"time": 4323, "pitch": 41, "duration": 1, "velocity": 78}, {"time": 4326, "pitch": 50, "duration": 18, "velocity": 82}, {"time": 4329, "pitch": 58, "duration": 4, "velocity": 90}, {"time": 4332, "pitch": 55, "duration": 3, "velocity": 84}, {"time": 4335, "pitch": 62, "duration": 4, "velocity": 100}, {"time": 4338, "pitch": 58, "duration": 3, "velocity": 105}, {"time": 4341, "pitch": 55, "duration": 3, "velocity": 89}, {"time": 4345, "pitch": 62, "duration": 2, "velocity": 73}, {"time": 4347, "pitch": 48, "duration": 48, "velocity": 87}, {"time": 4350, "pitch": 55, "duration": 45, "velocity": 60}, {"time": 4353, "pitch": 63, "duration": 4, "velocity": 102}, {"time": 4356, "pitch": 60, "duration": 4, "velocity": 82}, {"time": 4359, "pitch": 67, "duration": 3, "velocity": 92}, {"time": 4362, "pitch": 63, "duration": 4, "velocity": 109}, {"time": 4365, "pitch": 67, "duration": 3, "velocity": 89}, {"time": 4368, "pitch": 63, "duration": 4, "velocity": 99}, {"time": 4371, "pitch": 72, "duration": 5, "velocity": 114}, {"time": 4374, "pitch": 67, "duration": 4, "velocity": 97}, {"time": 4377, "pitch": 63, "duration": 3, "velocity": 112}, {"time": 4380, "pitch": 60, "duration": 3, "velocity": 111}, {"time": 4383, "pitch": 67, "duration": 4, "velocity": 105}, {"time": 4386, "pitch": 63, "duration": 4, "velocity": 102}, {"time": 4389, "pitch": 60, "duration": 3, "velocity": 102}, {"time": 4392, "pitch": 67, "duration": 2, "velocity": 82}, {"time": 4395, "pitch": 41, "duration": 40, "velocity": 101}, {"time": 4401, "pitch": 48, "duration": 8, "velocity": 73}, {"time": 4407, "pitch": 60, "duration": 21, "velocity": 94}, {"time": 4413, "pitch": 56, "duration": 15, "velocity": 88}, {"time": 4419, "pitch": 65, "duration": 36, "velocity": 96}, {"time": 4425, "pitch": 48, "duration": 8, "velocity": 38}, {"time": 4431, "pitch": 56, "duration": 10, "velocity": 96}, {"time": 4431, "pitch": 60, "duration": 11, "velocity": 96}, {"time": 4443, "pitch": 43, "duration": 24, "velocity": 96}, {"time": 4449, "pitch": 50, "duration": 11, "velocity": 69}, {"time": 4455, "pitch": 58, "duration": 6, "velocity": 120}, {"time": 4461, "pitch": 55, "duration": 6, "velocity": 80}, {"time": 4467, "pitch": 48, "duration": 17, "velocity": 85}, {"time": 4467, "pitch": 60, "duration": 12, "velocity": 99}, {"time": 4473, "pitch": 55, "duration": 6, "velocity": 91}, {"time": 4479, "pitch": 63, "duration": 6, "velocity": 110}, {"time": 4485, "pitch": 62, "duration": 6, "velocity": 104}, {"time": 4491, "pitch": 46, "duration": 23, "velocity": 79}, {"time": 4491, "pitch": 58, "duration": 12, "velocity": 101}, {"time": 4497, "pitch": 53, "duration": 12, "velocity": 66}, {"time": 4503, "pitch": 62, "duration": 15, "velocity": 109}, {"time": 4514, "pitch": 43, "duration": 18, "velocity": 99}, {"time": 4514, "pitch": 62, "duration": 4, "velocity": 101}, {"time": 4514, "pitch": 55, "duration": 11, "velocity": 87}, {"time": 4521, "pitch": 50, "duration": 9, "velocity": 80}, {"time": 4527, "pitch": 58, "duration": 15, "velocity": 120}, {"time": 4541, "pitch": 36, "duration": 2, "velocity": 99}, {"time": 4547, "pitch": 48, "duration": 37, "velocity": 89}, {"time": 4550, "pitch": 55, "duration": 32, "velocity": 74}, {"time": 4553, "pitch": 60, "duration": 3, "velocity": 85}, {"time": 4556, "pitch": 62, "duration": 3, "velocity": 91}, {"time": 4558, "pitch": 63, "duration": 3, "velocity": 117}, {"time": 4562, "pitch": 67, "duration": 7, "velocity": 99}, {"time": 4567, "pitch": 74, "duration": 5, "velocity": 64}, {"time": 4572, "pitch": 72, "duration": 12, "velocity": 43}, {"time": 4576, "pitch": 79, "duration": 9, "velocity": 94}, {"time": 4587, "pitch": 48, "duration": 17, "velocity": 44}, {"time": 4588, "pitch": 55, "duration": 16, "velocity": 69}, {"time": 4591, "pitch": 84, "duration": 11, "velocity": 85}], "annotations": [{"time": 174, "annotation": {"number": 64, "value": 127}, "group": "control_change"}, {"time": 218, "annotation": {"number": 64, "value": 0}, "group": "control_change"}, {"time": 226, "annotation": {"number": 64, "value": 127}, "group": "control_change"}, {"time": 264, "annotation": {"number": 64, "value": 0}, "group": "control_change"}, {"time": 268, "annotation": {"number": 64, "value": 127}, "group": "control_change"}, {"time": 313, "annotation": {"number": 64, "value": 0}, "group": "control_change"}, {"time": 327, "annotation": {"number": 64, "value": 127}, "group": "control_change"}, {"time": 328, "annotation": {"number": 64, "value": 0}, "group": "control_change"}, {"time": 328, "annotation": {"number": 64, "value": 127}, "group": "control_change"}, {"time": 361, "annotation": {"number": 64, "value": 0}, "group": "control_change"}, {"time": 366, "annotation": {"number": 64, "value": 127}, "group": "control_change"}, {"time": 417, "annotation": {"number": 64, "value": 127}, "group": "control_change"}, {"time": 434, "annotation": {"number": 64, "value": 0}, "group": "control_change"}, {"time": 442, "annotation": {"number": 64, "value": 127}, "group": "control_change"}, {"time": 458, "annotation": {"number": 64, "value": 0}, "group": "control_change"}, {"time": 463, "annotation": {"number": 64, "value": 127}, "group": "control_change"}, {"time": 482, "annotation": {"number": 64, "value": 0}, "group": "control_change"}, {"time": 486, "annotation": {"number": 64, "value": 127}, "group": "control_change"}, {"time": 505, "annotation": {"number": 64, "value": 0}, "group": "control_change"}, {"time": 511, "annotation": {"number": 64, "value": 127}, "group": "control_change"}, {"time": 553, "annotation": {"number": 64, "value": 0}, "group": "control_change"}, {"time": 560, "annotation": {"number": 64, "value": 127}, "group": "control_change"}, {"time": 602, "annotation": {"number": 64, "value": 0}, "group": "control_change"}, {"time": 608, "annotation": {"number": 64, "value": 127}, "group": "control_change"}, {"time": 632, "annotation": {"number": 64, "value": 0}, "group": "control_change"}, {"time": 635, "annotation": {"number": 64, "value": 127}, "group": "control_change"}, {"time": 647, "annotation": {"number": 64, "value": 0}, "group": "control_change"}, {"time": 651, "annotation": {"number": 64, "value": 127}, "group": "control_change"}, {"time": 670, "annotation": {"number": 64, "value": 0}, "group": "control_change"}, {"time": 677, "annotation": {"number": 64, "value": 127}, "group": "control_change"}, {"time": 696, "annotation": {"number": 64, "value": 0}, "group": "control_change"}, {"time": 705, "annotation": {"number": 64, "value": 127}, "group": "control_change"}, {"time": 723, "annotation": {"number": 64, "value": 0}, "group": "control_change"}, {"time": 725, "annotation": {"number": 64, "value": 127}, "group": "control_change"}, {"time": 745, "annotation": {"number": 64, "value": 0}, "group": "control_change"}, {"time": 752, "annotation": {"number": 64, "value": 127}, "group": "control_change"}, {"time": 794, "annotation": {"number": 64, "value": 0}, "group": "control_change"}, {"time": 798, "annotation": {"number": 64, "value": 127}, "group": "control_change"}, {"time": 817, "annotation": {"number": 64, "value": 0}, "group": "control_change"}, {"time": 821, "annotation": {"number": 64, "value": 127}, "group": "control_change"}, {"time": 842, "annotation": {"number": 64, "value": 0}, "group": "control_change"}, {"time": 848, "annotation": {"number": 64, "value": 127}, "group": "control_change"}, {"time": 890, "annotation": {"number": 64, "value": 0}, "group": "control_change"}, {"time": 897, "annotation": {"number": 64, "value": 127}, "group": "control_change"}, {"time": 944, "annotation": {"number": 64, "value": 127}, "group": "control_change"}, {"time": 986, "annotation": {"number": 64, "value": 0}, "group": "control_change"}, {"time": 992, "annotation": {"number": 64, "value": 127}, "group": "control_change"}, {"time": 1016, "annotation": {"number": 64, "value": 0}, "group": "control_change"}, {"time": 1019, "annotation": {"number": 64, "value": 127}, "group": "control_change"}, {"time": 1031, "annotation": {"number": 64, "value": 0}, "group": "control_change"}, {"time": 1035, "annotation": {"number": 64, "value": 127}, "group": "control_change"}, {"time": 1054, "annotation": {"number": 64, "value": 0}, "group": "control_change"}, {"time": 1061, "annotation": {"number": 64, "value": 127}, "group": "control_change"}, {"time": 1080, "annotation": {"number": 64, "value": 0}, "group": "control_change"}, {"time": 1089, "annotation": {"number": 64, "value": 127}, "group": "control_change"}, {"time": 1107, "annotation": {"number": 64, "value": 0}, "group": "control_change"}, {"time": 1109, "annotation": {"number": 64, "value": 127}, "group": "control_change"}, {"time": 1129, "annotation": {"number": 64, "value": 0}, "group": "control_change"}, {"time": 1136, "annotation": {"number": 64, "value": 127}, "group": "control_change"}, {"time": 1178, "annotation": {"number": 64, "value": 0}, "group": "control_change"}, {"time": 1182, "annotation": {"number": 64, "value": 127}, "group": "control_change"}, {"time": 1201, "annotation": {"number": 64, "value": 0}, "group": "control_change"}, {"time": 1205, "annotation": {"number": 64, "value": 127}, "group": "control_change"}, {"time": 1226, "annotation": {"number": 64, "value": 0}, "group": "control_change"}, {"time": 1232, "annotation": {"number": 64, "value": 127}, "group": "control_change"}, {"time": 1274, "annotation": {"number": 64, "value": 0}, "group": "control_change"}, {"time": 1281, "annotation": {"number": 64, "value": 127}, "group": "control_change"}, {"time": 1324, "annotation": {"number": 64, "value": 127}, "group": "control_change"}, {"time": 1361, "annotation": {"number": 64, "value": 0}, "group": "control_change"}, {"time": 1362, "annotation": {"number": 64, "value": 127}, "group": "control_change"}, {"time": 1371, "annotation": {"number": 64, "value": 0}, "group": "control_change"}, {"time": 1374, "annotation": {"number": 64, "value": 127}, "group": "control_change"}, {"time": 1420, "annotation": {"number": 64, "value": 0}, "group": "control_change"}, {"time": 1422, "annotation": {"number": 64, "value": 127}, "group": "control_change"}, {"time": 1445, "annotation": {"number": 64, "value": 0}, "group": "control_change"}, {"time": 1451, "annotation": {"number": 64, "value": 127}, "group": "control_change"}, {"time": 1470, "annotation": {"number": 64, "value": 0}, "group": "control_change"}, {"time": 1471, "annotation": {"number": 64, "value": 127}, "group": "control_change"}, {"time": 1492, "annotation": {"number": 64, "value": 0}, "group": "control_change"}, {"time": 1493, "annotation": {"number": 64, "value": 127}, "group": "control_change"}, {"time": 1515, "annotation": {"number": 64, "value": 0}, "group": "control_change"}, {"time": 1517, "annotation": {"number": 64, "value": 127}, "group": "control_change"}, {"time": 1563, "annotation": {"number": 64, "value": 0}, "group": "control_change"}, {"time": 1565, "annotation": {"number": 64, "value": 127}, "group": "control_change"}, {"time": 1586, "annotation": {"number": 64, "value": 0}, "group": "control_change"}, {"time": 1587, "annotation": {"number": 64, "value": 127}, "group": "control_change"}, {"time": 1611, "annotation": {"number": 64, "value": 0}, "group": "control_change"}, {"time": 1614, "annotation": {"number": 64, "value": 127}, "group": "control_change"}, {"time": 1637, "annotation": {"number": 64, "value": 0}, "group": "control_change"}, {"time": 1639, "annotation": {"number": 64, "value": 127}, "group": "control_change"}, {"time": 1658, "annotation": {"number": 64, "value": 0}, "group": "control_change"}, {"time": 1660, "annotation": {"number": 64, "value": 127}, "group": "control_change"}, {"time": 1683, "annotation": {"number": 64, "value": 0}, "group": "control_change"}, {"time": 1684, "annotation": {"number": 64, "value": 127}, "group": "control_change"}, {"time": 1708, "annotation": {"number": 64, "value": 127}, "group": "control_change"}, {"time": 1708, "annotation": {"number": 64, "value": 0}, "group": "control_change"}, {"time": 1746, "annotation": {"number": 64, "value": 0}, "group": "control_change"}, {"time": 1746, "annotation": {"number": 64, "value": 127}, "group": "control_change"}, {"time": 1755, "annotation": {"number": 64, "value": 0}, "group": "control_change"}, {"time": 1758, "annotation": {"number": 64, "value": 127}, "group": "control_change"}, {"time": 1804, "annotation": {"number": 64, "value": 0}, "group": "control_change"}, {"time": 1807, "annotation": {"number": 64, "value": 127}, "group": "control_change"}, {"time": 1829, "annotation": {"number": 64, "value": 0}, "group": "control_change"}, {"time": 1835, "annotation": {"number": 64, "value": 127}, "group": "control_change"}, {"time": 1854, "annotation": {"number": 64, "value": 0}, "group": "control_change"}, {"time": 1856, "annotation": {"number": 64, "value": 127}, "group": "control_change"}, {"time": 1876, "annotation": {"number": 64, "value": 0}, "group": "control_change"}, {"time": 1877, "annotation": {"number": 64, "value": 127}, "group": "control_change"}, {"time": 1899, "annotation": {"number": 64, "value": 0}, "group": "control_change"}, {"time": 1901, "annotation": {"number": 64, "value": 127}, "group": "control_change"}, {"time": 1947, "annotation": {"number": 64, "value": 0}, "group": "control_change"}, {"time": 1950, "annotation": {"number": 64, "value": 127}, "group": "control_change"}, {"time": 1970, "annotation": {"number": 64, "value": 0}, "group": "control_change"}, {"time": 1972, "annotation": {"number": 64, "value": 127}, "group": "control_change"}, {"time": 1995, "annotation": {"number": 64, "value": 0}, "group": "control_change"}, {"time": 1998, "annotation": {"number": 64, "value": 127}, "group": "control_change"}, {"time": 2021, "annotation": {"number": 64, "value": 0}, "group": "control_change"}, {"time": 2023, "annotation": {"number": 64, "value": 127}, "group": "control_change"}, {"time": 2043, "annotation": {"number": 64, "value": 0}, "group": "control_change"}, {"time": 2045, "annotation": {"number": 64, "value": 127}, "group": "control_change"}, {"time": 2067, "annotation": {"number": 64, "value": 0}, "group": "control_change"}, {"time": 2068, "annotation": {"number": 64, "value": 127}, "group": "control_change"}, {"time": 2093, "annotation": {"number": 64, "value": 0}, "group": "control_change"}, {"time": 2098, "annotation": {"number": 64, "value": 127}, "group": "control_change"}, {"time": 2137, "annotation": {"number": 64, "value": 0}, "group": "control_change"}, {"time": 2144, "annotation": {"number": 64, "value": 127}, "group": "control_change"}, {"time": 2165, "annotation": {"number": 64, "value": 0}, "group": "control_change"}, {"time": 2168, "annotation": {"number": 64, "value": 127}, "group": "control_change"}, {"time": 2184, "annotation": {"number": 64, "value": 0}, "group": "control_change"}, {"time": 2187, "annotation": {"number": 64, "value": 127}, "group": "control_change"}, {"time": 2208, "annotation": {"number": 64, "value": 0}, "group": "control_change"}, {"time": 2210, "annotation": {"number": 64, "value": 127}, "group": "control_change"}, {"time": 2233, "annotation": {"number": 64, "value": 0}, "group": "control_change"}, {"time": 2238, "annotation": {"number": 64, "value": 127}, "group": "control_change"}, {"time": 2261, "annotation": {"number": 64, "value": 0}, "group": "control_change"}, {"time": 2266, "annotation": {"number": 64, "value": 127}, "group": "control_change"}, {"time": 2281, "annotation": {"number": 64, "value": 0}, "group": "control_change"}, {"time": 2286, "annotation": {"number": 64, "value": 127}, "group": "control_change"}, {"time": 2309, "annotation": {"number": 64, "value": 0}, "group": "control_change"}, {"time": 2311, "annotation": {"number": 64, "value": 127}, "group": "control_change"}, {"time": 2329, "annotation": {"number": 64, "value": 0}, "group": "control_change"}, {"time": 2332, "annotation": {"number": 64, "value": 127}, "group": "control_change"}, {"time": 2354, "annotation": {"number": 64, "value": 0}, "group": "control_change"}, {"time": 2358, "annotation": {"number": 64, "value": 127}, "group": "control_change"}, {"time": 2377, "annotation": {"number": 64, "value": 0}, "group": "control_change"}, {"time": 2384, "annotation": {"number": 64, "value": 127}, "group": "control_change"}, {"time": 2402, "annotation": {"number": 64, "value": 0}, "group": "control_change"}, {"time": 2408, "annotation": {"number": 64, "value": 127}, "group": "control_change"}, {"time": 2425, "annotation": {"number": 64, "value": 0}, "group": "control_change"}, {"time": 2431, "annotation": {"number": 64, "value": 127}, "group": "control_change"}, {"time": 2449, "annotation": {"number": 64, "value": 0}, "group": "control_change"}, {"time": 2452, "annotation": {"number": 64, "value": 127}, "group": "control_change"}, {"time": 2472, "annotation": {"number": 64, "value": 0}, "group": "control_change"}, {"time": 2480, "annotation": {"number": 64, "value": 127}, "group": "control_change"}, {"time": 2522, "annotation": {"number": 64, "value": 0}, "group": "control_change"}, {"time": 2528, "annotation": {"number": 64, "value": 127}, "group": "control_change"}, {"time": 2552, "annotation": {"number": 64, "value": 0}, "group": "control_change"}, {"time": 2555, "annotation": {"number": 64, "value": 127}, "group": "control_change"}, {"time": 2567, "annotation": {"number": 64, "value": 0}, "group": "control_change"}, {"time": 2571, "annotation": {"number": 64, "value": 127}, "group": "control_change"}, {"time": 2590, "annotation": {"number": 64, "value": 0}, "group": "control_change"}, {"time": 2597, "annotation": {"number": 64, "value": 127}, "group": "control_change"}, {"time": 2616, "annotation": {"number": 64, "value": 0}, "group": "control_change"}, {"time": 2625, "annotation": {"number": 64, "value": 127}, "group": "control_change"}, {"time": 2643, "annotation": {"number": 64, "value": 0}, "group": "control_change"}, {"time": 2645, "annotation": {"number": 64, "value": 127}, "group": "control_change"}, {"time": 2665, "annotation": {"number": 64, "value": 0}, "group": "control_change"}, {"time": 2672, "annotation": {"number": 64, "value": 127}, "group": "control_change"}, {"time": 2714, "annotation": {"number": 64, "value": 0}, "group": "control_change"}, {"time": 2718, "annotation": {"number": 64, "value": 127}, "group": "control_change"}, {"time": 2737, "annotation": {"number": 64, "value": 0}, "group": "control_change"}, {"time": 2741, "annotation": {"number": 64, "value": 127}, "group": "control_change"}, {"time": 2762, "annotation": {"number": 64, "value": 0}, "group": "control_change"}, {"time": 2768, "annotation": {"number": 64, "value": 127}, "group": "control_change"}, {"time": 2810, "annotation": {"number": 64, "value": 0}, "group": "control_change"}, {"time": 2817, "annotation": {"number": 64, "value": 127}, "group": "control_change"}, {"time": 2860, "annotation": {"number": 64, "value": 127}, "group": "control_change"}, {"time": 2898, "annotation": {"number": 64, "value": 0}, "group": "control_change"}, {"time": 2898, "annotation": {"number": 64, "value": 127}, "group": "control_change"}, {"time": 2907, "annotation": {"number": 64, "value": 0}, "group": "control_change"}, {"time": 2910, "annotation": {"number": 64, "value": 127}, "group": "control_change"}, {"time": 2956, "annotation": {"number": 64, "value": 0}, "group": "control_change"}, {"time": 2959, "annotation": {"number": 64, "value": 127}, "group": "control_change"}, {"time": 2981, "annotation": {"number": 64, "value": 0}, "group": "control_change"}, {"time": 2987, "annotation": {"number": 64, "value": 127}, "group": "control_change"}, {"time": 3006, "annotation": {"number": 64, "value": 0}, "group": "control_change"}, {"time": 3008, "annotation": {"number": 64, "value": 127}, "group": "control_change"}, {"time": 3028, "annotation": {"number": 64, "value": 0}, "group": "control_change"}, {"time": 3030, "annotation": {"number": 64, "value": 127}, "group": "control_change"}, {"time": 3051, "annotation": {"number": 64, "value": 0}, "group": "control_change"}, {"time": 3053, "annotation": {"number": 64, "value": 127}, "group": "control_change"}, {"time": 3100, "annotation": {"number": 64, "value": 0}, "group": "control_change"}, {"time": 3102, "annotation": {"number": 64, "value": 127}, "group": "control_change"}, {"time": 3122, "annotation": {"number": 64, "value": 0}, "group": "control_change"}, {"time": 3124, "annotation": {"number": 64, "value": 127}, "group": "control_change"}, {"time": 3148, "annotation": {"number": 64, "value": 0}, "group": "control_change"}, {"time": 3150, "annotation": {"number": 64, "value": 127}, "group": "control_change"}, {"time": 3173, "annotation": {"number": 64, "value": 0}, "group": "control_change"}, {"time": 3175, "annotation": {"number": 64, "value": 127}, "group": "control_change"}, {"time": 3195, "annotation": {"number": 64, "value": 0}, "group": "control_change"}, {"time": 3197, "annotation": {"number": 64, "value": 127}, "group": "control_change"}, {"time": 3220, "annotation": {"number": 64, "value": 0}, "group": "control_change"}, {"time": 3220, "annotation": {"number": 64, "value": 127}, "group": "control_change"}, {"time": 3244, "annotation": {"number": 64, "value": 127}, "group": "control_change"}, {"time": 3245, "annotation": {"number": 64, "value": 0}, "group": "control_change"}, {"time": 3282, "annotation": {"number": 64, "value": 0}, "group": "control_change"}, {"time": 3283, "annotation": {"number": 64, "value": 127}, "group": "control_change"}, {"time": 3291, "annotation": {"number": 64, "value": 0}, "group": "control_change"}, {"time": 3294, "annotation": {"number": 64, "value": 127}, "group": "control_change"}, {"time": 3340, "annotation": {"number": 64, "value": 0}, "group": "control_change"}, {"time": 3343, "annotation": {"number": 64, "value": 127}, "group": "control_change"}, {"time": 3366, "annotation": {"number": 64, "value": 0}, "group": "control_change"}, {"time": 3372, "annotation": {"number": 64, "value": 127}, "group": "control_change"}, {"time": 3390, "annotation": {"number": 64, "value": 0}, "group": "control_change"}, {"time": 3392, "annotation": {"number": 64, "value": 127}, "group": "control_change"}, {"time": 3412, "annotation": {"number": 64, "value": 0}, "group": "control_change"}, {"time": 3414, "annotation": {"number": 64, "value": 127}, "group": "control_change"}, {"time": 3436, "annotation": {"number": 64, "value": 0}, "group": "control_change"}, {"time": 3437, "annotation": {"number": 64, "value": 127}, "group": "control_change"}, {"time": 3484, "annotation": {"number": 64, "value": 0}, "group": "control_change"}, {"time": 3486, "annotation": {"number": 64, "value": 127}, "group": "control_change"}, {"time": 3506, "annotation": {"number": 64, "value": 0}, "group": "control_change"}, {"time": 3508, "annotation": {"number": 64, "value": 127}, "group": "control_change"}, {"time": 3532, "annotation": {"number": 64, "value": 0}, "group": "control_change"}, {"time": 3534, "annotation": {"number": 64, "value": 127}, "group": "control_change"}, {"time": 3557, "annotation": {"number": 64, "value": 0}, "group": "control_change"}, {"time": 3560, "annotation": {"number": 64, "value": 127}, "group": "control_change"}, {"time": 3579, "annotation": {"number": 64, "value": 0}, "group": "control_change"}, {"time": 3581, "annotation": {"number": 64, "value": 127}, "group": "control_change"}, {"time": 3604, "annotation": {"number": 64, "value": 0}, "group": "control_change"}, {"time": 3604, "annotation": {"number": 64, "value": 127}, "group": "control_change"}, {"time": 3628, "annotation": {"number": 64, "value": 127}, "group": "control_change"}, {"time": 3629, "annotation": {"number": 64, "value": 0}, "group": "control_change"}, {"time": 3666, "annotation": {"number": 64, "value": 0}, "group": "control_change"}, {"time": 3666, "annotation": {"number": 64, "value": 127}, "group": "control_change"}, {"time": 3675, "annotation": {"number": 64, "value": 0}, "group": "control_change"}, {"time": 3678, "annotation": {"number": 64, "value": 127}, "group": "control_change"}, {"time": 3724, "annotation": {"number": 64, "value": 0}, "group": "control_change"}, {"time": 3727, "annotation": {"number": 64, "value": 127}, "group": "control_change"}, {"time": 3749, "annotation": {"number": 64, "value": 0}, "group": "control_change"}, {"time": 3755, "annotation": {"number": 64, "value": 127}, "group": "control_change"}, {"time": 3774, "annotation": {"number": 64, "value": 0}, "group": "control_change"}, {"time": 3776, "annotation": {"number": 64, "value": 127}, "group": "control_change"}, {"time": 3796, "annotation": {"number": 64, "value": 0}, "group": "control_change"}, {"time": 3798, "annotation": {"number": 64, "value": 127}, "group": "control_change"}, {"time": 3819, "annotation": {"number": 64, "value": 0}, "group": "control_change"}, {"time": 3821, "annotation": {"number": 64, "value": 127}, "group": "control_change"}, {"time": 3868, "annotation": {"number": 64, "value": 0}, "group": "control_change"}, {"time": 3870, "annotation": {"number": 64, "value": 127}, "group": "control_change"}, {"time": 3890, "annotation": {"number": 64, "value": 0}, "group": "control_change"}, {"time": 3892, "annotation": {"number": 64, "value": 127}, "group": "control_change"}, {"time": 3916, "annotation": {"number": 64, "value": 0}, "group": "control_change"}, {"time": 3918, "annotation": {"number": 64, "value": 127}, "group": "control_change"}, {"time": 3941, "annotation": {"number": 64, "value": 0}, "group": "control_change"}, {"time": 3943, "annotation": {"number": 64, "value": 127}, "group": "control_change"}, {"time": 3963, "annotation": {"number": 64, "value": 0}, "group": "control_change"}, {"time": 3965, "annotation": {"number": 64, "value": 127}, "group": "control_change"}, {"time": 3988, "annotation": {"number": 64, "value": 0}, "group": "control_change"}, {"time": 3988, "annotation": {"number": 64, "value": 127}, "group": "control_change"}, {"time": 4012, "annotation": {"number": 64, "value": 127}, "group": "control_change"}, {"time": 4013, "annotation": {"number": 64, "value": 0}, "group": "control_change"}, {"time": 4050, "annotation": {"number": 64, "value": 0}, "group": "control_change"}, {"time": 4051, "annotation": {"number": 64, "value": 127}, "group": "control_change"}, {"time": 4059, "annotation": {"number": 64, "value": 0}, "group": "control_change"}, {"time": 4062, "annotation": {"number": 64, "value": 127}, "group": "control_change"}, {"time": 4108, "annotation": {"number": 64, "value": 0}, "group": "control_change"}, {"time": 4111, "annotation": {"number": 64, "value": 127}, "group": "control_change"}, {"time": 4134, "annotation": {"number": 64, "value": 0}, "group": "control_change"}, {"time": 4140, "annotation": {"number": 64, "value": 127}, "group": "control_change"}, {"time": 4159, "annotation": {"number": 64, "value": 0}, "group": "control_change"}, {"time": 4160, "annotation": {"number": 64, "value": 127}, "group": "control_change"}, {"time": 4180, "annotation": {"number": 64, "value": 0}, "group": "control_change"}, {"time": 4182, "annotation": {"number": 64, "value": 127}, "group": "control_change"}, {"time": 4204, "annotation": {"number": 64, "value": 0}, "group": "control_change"}, {"time": 4205, "annotation": {"number": 64, "value": 127}, "group": "control_change"}, {"time": 4252, "annotation": {"number": 64, "value": 0}, "group": "control_change"}, {"time": 4254, "annotation": {"number": 64, "value": 127}, "group": "control_change"}, {"time": 4274, "annotation": {"number": 64, "value": 0}, "group": "control_change"}, {"time": 4276, "annotation": {"number": 64, "value": 127}, "group": "control_change"}, {"time": 4300, "annotation": {"number": 64, "value": 0}, "group": "control_change"}, {"time": 4302, "annotation": {"number": 64, "value": 127}, "group": "control_change"}, {"time": 4325, "annotation": {"number": 64, "value": 0}, "group": "control_change"}, {"time": 4328, "annotation": {"number": 64, "value": 127}, "group": "control_change"}, {"time": 4347, "annotation": {"number": 64, "value": 0}, "group": "control_change"}, {"time": 4349, "annotation": {"number": 64, "value": 127}, "group": "control_change"}, {"time": 4372, "annotation": {"number": 64, "value": 0}, "group": "control_change"}, {"time": 4372, "annotation": {"number": 64, "value": 127}, "group": "control_change"}, {"time": 4397, "annotation": {"number": 64, "value": 0}, "group": "control_change"}, {"time": 4428, "annotation": {"number": 64, "value": 127}, "group": "control_change"}, {"time": 4429, "annotation": {"number": 64, "value": 0}, "group": "control_change"}, {"time": 4430, "annotation": {"number": 64, "value": 127}, "group": "control_change"}, {"time": 4440, "annotation": {"number": 64, "value": 0}, "group": "control_change"}, {"time": 4450, "annotation": {"number": 64, "value": 127}, "group": "control_change"}, {"time": 4464, "annotation": {"number": 64, "value": 0}, "group": "control_change"}, {"time": 4480, "annotation": {"number": 64, "value": 127}, "group": "control_change"}, {"time": 4488, "annotation": {"number": 64, "value": 0}, "group": "control_change"}, {"time": 4502, "annotation": {"number": 64, "value": 127}, "group": "control_change"}, {"time": 4522, "annotation": {"number": 64, "value": 127}, "group": "control_change"}, {"time": 4539, "annotation": {"number": 64, "value": 0}, "group": "control_change"}, {"time": 4542, "annotation": {"number": 64, "value": 127}, "group": "control_change"}, {"time": 4620, "annotation": {"number": 64, "value": 0}, "group": "control_change"}]}]}