{"metadata": {"schema_version": "0.2", "title": "None", "source_filename": "122.mid", "source_format": "midi"}, "resolution": 12, "tempos": [{"time": 0, "qpm": 70.00007000007}], "time_signatures": [{"time": 0, "numerator": 1, "denominator": 4}], "tracks": [{"program": 0, "is_drum": false, "name": "MELODY", "notes": [{"time": 434, "pitch": 65, "duration": 4, "velocity": 112}, {"time": 440, "pitch": 63, "duration": 3, "velocity": 109}, {"time": 446, "pitch": 61, "duration": 3, "velocity": 106}, {"time": 452, "pitch": 60, "duration": 2, "velocity": 109}, {"time": 455, "pitch": 61, "duration": 7, "velocity": 101}, {"time": 464, "pitch": 58, "duration": 8, "velocity": 109}, {"time": 482, "pitch": 60, "duration": 4, "velocity": 115}, {"time": 488, "pitch": 61, "duration": 3, "velocity": 109}, {"time": 494, "pitch": 61, "duration": 4, "velocity": 112}, {"time": 500, "pitch": 63, "duration": 2, "velocity": 112}, {"time": 503, "pitch": 61, "duration": 7, "velocity": 109}, {"time": 509, "pitch": 58, "duration": 14, "velocity": 109}, {"time": 530, "pitch": 58, "duration": 5, "velocity": 115}, {"time": 536, "pitch": 63, "duration": 4, "velocity": 106}, {"time": 542, "pitch": 63, "duration": 5, "velocity": 109}, {"time": 548, "pitch": 58, "duration": 4, "velocity": 112}, {"time": 554, "pitch": 63, "duration": 5, "velocity": 112}, {"time": 560, "pitch": 58, "duration": 4, "velocity": 112}, {"time": 566, "pitch": 63, "duration": 5, "velocity": 106}, {"time": 572, "pitch": 66, "duration": 5, "velocity": 109}, {"time": 578, "pitch": 65, "duration": 40, "velocity": 112}, {"time": 626, "pitch": 63, "duration": 5, "velocity": 112}, {"time": 632, "pitch": 70, "duration": 4, "velocity": 115}, {"time": 638, "pitch": 70, "duration": 3, "velocity": 109}, {"time": 644, "pitch": 63, "duration": 2, "velocity": 109}, {"time": 647, "pitch": 63, "duration": 7, "velocity": 106}, {"time": 656, "pitch": 61, "duration": 14, "velocity": 109}, {"time": 674, "pitch": 60, "duration": 5, "velocity": 112}, {"time": 680, "pitch": 65, "duration": 3, "velocity": 109}, {"time": 686, "pitch": 65, "duration": 4, "velocity": 106}, {"time": 692, "pitch": 60, "duration": 3, "velocity": 109}, {"time": 698, "pitch": 60, "duration": 5, "velocity": 109}, {"time": 704, "pitch": 58, "duration": 10, "velocity": 109}, {"time": 716, "pitch": 58, "duration": 2, "velocity": 115}, {"time": 719, "pitch": 60, "duration": 1, "velocity": 101}, {"time": 722, "pitch": 61, "duration": 14, "velocity": 106}, {"time": 740, "pitch": 60, "duration": 3, "velocity": 112}, {"time": 743, "pitch": 61, "duration": 2, "velocity": 106}, {"time": 746, "pitch": 63, "duration": 4, "velocity": 109}, {"time": 752, "pitch": 63, "duration": 8, "velocity": 112}, {"time": 764, "pitch": 60, "duration": 4, "velocity": 109}, {"time": 770, "pitch": 58, "duration": 44, "velocity": 112}, {"time": 818, "pitch": 65, "duration": 4, "velocity": 112}, {"time": 824, "pitch": 63, "duration": 3, "velocity": 109}, {"time": 830, "pitch": 61, "duration": 3, "velocity": 106}, {"time": 836, "pitch": 60, "duration": 2, "velocity": 109}, {"time": 839, "pitch": 61, "duration": 7, "velocity": 101}, {"time": 848, "pitch": 58, "duration": 8, "velocity": 109}, {"time": 866, "pitch": 60, "duration": 4, "velocity": 115}, {"time": 872, "pitch": 61, "duration": 3, "velocity": 109}, {"time": 878, "pitch": 61, "duration": 4, "velocity": 112}, {"time": 884, "pitch": 63, "duration": 2, "velocity": 112}, {"time": 887, "pitch": 61, "duration": 7, "velocity": 109}, {"time": 893, "pitch": 58, "duration": 14, "velocity": 109}, {"time": 914, "pitch": 58, "duration": 5, "velocity": 115}, {"time": 920, "pitch": 63, "duration": 4, "velocity": 106}, {"time": 926, "pitch": 63, "duration": 5, "velocity": 109}, {"time": 932, "pitch": 58, "duration": 4, "velocity": 112}, {"time": 938, "pitch": 63, "duration": 5, "velocity": 112}, {"time": 944, "pitch": 58, "duration": 4, "velocity": 112}, {"time": 950, "pitch": 63, "duration": 5, "velocity": 106}, {"time": 956, "pitch": 66, "duration": 5, "velocity": 109}, {"time": 962, "pitch": 65, "duration": 40, "velocity": 112}, {"time": 1010, "pitch": 63, "duration": 5, "velocity": 112}, {"time": 1016, "pitch": 70, "duration": 4, "velocity": 115}, {"time": 1022, "pitch": 70, "duration": 3, "velocity": 109}, {"time": 1028, "pitch": 63, "duration": 2, "velocity": 109}, {"time": 1031, "pitch": 63, "duration": 7, "velocity": 106}, {"time": 1040, "pitch": 61, "duration": 14, "velocity": 109}, {"time": 1058, "pitch": 60, "duration": 5, "velocity": 112}, {"time": 1064, "pitch": 65, "duration": 3, "velocity": 109}, {"time": 1070, "pitch": 65, "duration": 4, "velocity": 106}, {"time": 1076, "pitch": 60, "duration": 3, "velocity": 109}, {"time": 1082, "pitch": 60, "duration": 5, "velocity": 109}, {"time": 1088, "pitch": 58, "duration": 10, "velocity": 109}, {"time": 1100, "pitch": 58, "duration": 2, "velocity": 115}, {"time": 1103, "pitch": 60, "duration": 1, "velocity": 101}, {"time": 1106, "pitch": 61, "duration": 14, "velocity": 106}, {"time": 1124, "pitch": 60, "duration": 3, "velocity": 112}, {"time": 1127, "pitch": 61, "duration": 2, "velocity": 106}, {"time": 1130, "pitch": 63, "duration": 4, "velocity": 109}, {"time": 1136, "pitch": 63, "duration": 8, "velocity": 112}, {"time": 1148, "pitch": 60, "duration": 4, "velocity": 109}, {"time": 1154, "pitch": 58, "duration": 44, "velocity": 112}, {"time": 1193, "pitch": 65, "duration": 2, "velocity": 112}, {"time": 1196, "pitch": 70, "duration": 2, "velocity": 112}, {"time": 1199, "pitch": 72, "duration": 2, "velocity": 112}, {"time": 1202, "pitch": 73, "duration": 4, "velocity": 109}, {"time": 1208, "pitch": 73, "duration": 4, "velocity": 112}, {"time": 1214, "pitch": 70, "duration": 2, "velocity": 115}, {"time": 1217, "pitch": 75, "duration": 8, "velocity": 112}, {"time": 1226, "pitch": 73, "duration": 13, "velocity": 109}, {"time": 1244, "pitch": 70, "duration": 2, "velocity": 118}, {"time": 1247, "pitch": 73, "duration": 2, "velocity": 109}, {"time": 1250, "pitch": 72, "duration": 4, "velocity": 118}, {"time": 1256, "pitch": 72, "duration": 2, "velocity": 109}, {"time": 1259, "pitch": 72, "duration": 2, "velocity": 106}, {"time": 1262, "pitch": 72, "duration": 5, "velocity": 115}, {"time": 1268, "pitch": 68, "duration": 2, "velocity": 115}, {"time": 1271, "pitch": 63, "duration": 2, "velocity": 115}, {"time": 1274, "pitch": 65, "duration": 12, "velocity": 115}, {"time": 1295, "pitch": 65, "duration": 2, "velocity": 115}, {"time": 1298, "pitch": 63, "duration": 4, "velocity": 115}, {"time": 1304, "pitch": 63, "duration": 1, "velocity": 109}, {"time": 1307, "pitch": 63, "duration": 8, "velocity": 115}, {"time": 1316, "pitch": 70, "duration": 4, "velocity": 115}, {"time": 1322, "pitch": 68, "duration": 4, "velocity": 109}, {"time": 1328, "pitch": 70, "duration": 1, "velocity": 112}, {"time": 1331, "pitch": 72, "duration": 7, "velocity": 115}, {"time": 1340, "pitch": 68, "duration": 5, "velocity": 115}, {"time": 1346, "pitch": 65, "duration": 38, "velocity": 112}, {"time": 1394, "pitch": 70, "duration": 4, "velocity": 115}, {"time": 1400, "pitch": 68, "duration": 2, "velocity": 112}, {"time": 1403, "pitch": 70, "duration": 7, "velocity": 115}, {"time": 1412, "pitch": 73, "duration": 4, "velocity": 115}, {"time": 1418, "pitch": 75, "duration": 5, "velocity": 112}, {"time": 1424, "pitch": 77, "duration": 2, "velocity": 109}, {"time": 1427, "pitch": 75, "duration": 9, "velocity": 118}, {"time": 1436, "pitch": 73, "duration": 4, "velocity": 109}, {"time": 1442, "pitch": 68, "duration": 4, "velocity": 112}, {"time": 1448, "pitch": 70, "duration": 1, "velocity": 109}, {"time": 1451, "pitch": 72, "duration": 8, "velocity": 115}, {"time": 1460, "pitch": 75, "duration": 4, "velocity": 115}, {"time": 1466, "pitch": 73, "duration": 13, "velocity": 112}, {"time": 1484, "pitch": 65, "duration": 2, "velocity": 115}, {"time": 1487, "pitch": 68, "duration": 1, "velocity": 115}, {"time": 1490, "pitch": 70, "duration": 5, "velocity": 112}, {"time": 1496, "pitch": 68, "duration": 1, "velocity": 112}, {"time": 1499, "pitch": 70, "duration": 7, "velocity": 115}, {"time": 1508, "pitch": 77, "duration": 4, "velocity": 112}, {"time": 1514, "pitch": 75, "duration": 8, "velocity": 115}, {"time": 1523, "pitch": 77, "duration": 6, "velocity": 112}, {"time": 1532, "pitch": 68, "duration": 5, "velocity": 112}, {"time": 1538, "pitch": 70, "duration": 49, "velocity": 115}, {"time": 1970, "pitch": 65, "duration": 4, "velocity": 112}, {"time": 1976, "pitch": 63, "duration": 3, "velocity": 109}, {"time": 1982, "pitch": 61, "duration": 3, "velocity": 106}, {"time": 1988, "pitch": 60, "duration": 2, "velocity": 109}, {"time": 1991, "pitch": 61, "duration": 7, "velocity": 101}, {"time": 2000, "pitch": 58, "duration": 8, "velocity": 109}, {"time": 2018, "pitch": 60, "duration": 4, "velocity": 115}, {"time": 2024, "pitch": 61, "duration": 3, "velocity": 109}, {"time": 2030, "pitch": 61, "duration": 4, "velocity": 112}, {"time": 2036, "pitch": 63, "duration": 2, "velocity": 112}, {"time": 2039, "pitch": 61, "duration": 7, "velocity": 109}, {"time": 2045, "pitch": 58, "duration": 14, "velocity": 109}, {"time": 2066, "pitch": 58, "duration": 5, "velocity": 115}, {"time": 2072, "pitch": 63, "duration": 4, "velocity": 106}, {"time": 2078, "pitch": 63, "duration": 5, "velocity": 109}, {"time": 2084, "pitch": 58, "duration": 4, "velocity": 112}, {"time": 2090, "pitch": 63, "duration": 5, "velocity": 112}, {"time": 2096, "pitch": 58, "duration": 4, "velocity": 112}, {"time": 2102, "pitch": 63, "duration": 5, "velocity": 106}, {"time": 2108, "pitch": 66, "duration": 5, "velocity": 109}, {"time": 2114, "pitch": 65, "duration": 40, "velocity": 112}, {"time": 2162, "pitch": 63, "duration": 5, "velocity": 112}, {"time": 2168, "pitch": 70, "duration": 4, "velocity": 115}, {"time": 2174, "pitch": 70, "duration": 3, "velocity": 109}, {"time": 2180, "pitch": 63, "duration": 2, "velocity": 109}, {"time": 2183, "pitch": 63, "duration": 7, "velocity": 106}, {"time": 2192, "pitch": 61, "duration": 14, "velocity": 109}, {"time": 2210, "pitch": 60, "duration": 5, "velocity": 112}, {"time": 2216, "pitch": 65, "duration": 3, "velocity": 109}, {"time": 2222, "pitch": 65, "duration": 4, "velocity": 106}, {"time": 2228, "pitch": 60, "duration": 3, "velocity": 109}, {"time": 2234, "pitch": 60, "duration": 5, "velocity": 109}, {"time": 2240, "pitch": 58, "duration": 10, "velocity": 109}, {"time": 2252, "pitch": 58, "duration": 2, "velocity": 115}, {"time": 2255, "pitch": 60, "duration": 1, "velocity": 101}, {"time": 2258, "pitch": 61, "duration": 14, "velocity": 106}, {"time": 2276, "pitch": 60, "duration": 3, "velocity": 112}, {"time": 2279, "pitch": 61, "duration": 2, "velocity": 106}, {"time": 2282, "pitch": 63, "duration": 4, "velocity": 109}, {"time": 2288, "pitch": 63, "duration": 8, "velocity": 112}, {"time": 2300, "pitch": 60, "duration": 4, "velocity": 109}, {"time": 2306, "pitch": 58, "duration": 44, "velocity": 112}, {"time": 2345, "pitch": 65, "duration": 2, "velocity": 112}, {"time": 2348, "pitch": 70, "duration": 2, "velocity": 112}, {"time": 2351, "pitch": 72, "duration": 2, "velocity": 112}, {"time": 2354, "pitch": 73, "duration": 4, "velocity": 109}, {"time": 2360, "pitch": 73, "duration": 4, "velocity": 112}, {"time": 2366, "pitch": 70, "duration": 2, "velocity": 115}, {"time": 2369, "pitch": 75, "duration": 8, "velocity": 112}, {"time": 2378, "pitch": 73, "duration": 13, "velocity": 109}, {"time": 2396, "pitch": 70, "duration": 2, "velocity": 118}, {"time": 2399, "pitch": 73, "duration": 2, "velocity": 109}, {"time": 2402, "pitch": 72, "duration": 4, "velocity": 118}, {"time": 2408, "pitch": 72, "duration": 2, "velocity": 109}, {"time": 2411, "pitch": 72, "duration": 2, "velocity": 106}, {"time": 2414, "pitch": 72, "duration": 5, "velocity": 115}, {"time": 2420, "pitch": 68, "duration": 2, "velocity": 115}, {"time": 2423, "pitch": 63, "duration": 2, "velocity": 115}, {"time": 2426, "pitch": 65, "duration": 12, "velocity": 115}, {"time": 2447, "pitch": 65, "duration": 2, "velocity": 115}, {"time": 2450, "pitch": 63, "duration": 4, "velocity": 115}, {"time": 2456, "pitch": 63, "duration": 1, "velocity": 109}, {"time": 2459, "pitch": 63, "duration": 8, "velocity": 115}, {"time": 2468, "pitch": 70, "duration": 4, "velocity": 115}, {"time": 2474, "pitch": 68, "duration": 4, "velocity": 109}, {"time": 2480, "pitch": 70, "duration": 1, "velocity": 112}, {"time": 2483, "pitch": 72, "duration": 7, "velocity": 115}, {"time": 2492, "pitch": 68, "duration": 5, "velocity": 115}, {"time": 2498, "pitch": 65, "duration": 38, "velocity": 112}, {"time": 2546, "pitch": 70, "duration": 4, "velocity": 115}, {"time": 2552, "pitch": 68, "duration": 2, "velocity": 112}, {"time": 2555, "pitch": 70, "duration": 7, "velocity": 115}, {"time": 2564, "pitch": 73, "duration": 4, "velocity": 115}, {"time": 2570, "pitch": 75, "duration": 5, "velocity": 112}, {"time": 2576, "pitch": 77, "duration": 2, "velocity": 109}, {"time": 2579, "pitch": 75, "duration": 9, "velocity": 118}, {"time": 2588, "pitch": 73, "duration": 4, "velocity": 109}, {"time": 2594, "pitch": 68, "duration": 4, "velocity": 112}, {"time": 2600, "pitch": 70, "duration": 1, "velocity": 109}, {"time": 2603, "pitch": 72, "duration": 8, "velocity": 115}, {"time": 2612, "pitch": 75, "duration": 4, "velocity": 115}, {"time": 2618, "pitch": 73, "duration": 13, "velocity": 112}, {"time": 2636, "pitch": 65, "duration": 2, "velocity": 115}, {"time": 2639, "pitch": 68, "duration": 1, "velocity": 115}, {"time": 2642, "pitch": 70, "duration": 5, "velocity": 112}, {"time": 2648, "pitch": 68, "duration": 1, "velocity": 112}, {"time": 2651, "pitch": 70, "duration": 7, "velocity": 115}, {"time": 2660, "pitch": 77, "duration": 4, "velocity": 112}, {"time": 2666, "pitch": 75, "duration": 8, "velocity": 115}, {"time": 2675, "pitch": 77, "duration": 6, "velocity": 112}, {"time": 2684, "pitch": 68, "duration": 5, "velocity": 112}, {"time": 2690, "pitch": 70, "duration": 36, "velocity": 115}, {"time": 2729, "pitch": 65, "duration": 2, "velocity": 112}, {"time": 2732, "pitch": 70, "duration": 2, "velocity": 112}, {"time": 2735, "pitch": 72, "duration": 2, "velocity": 112}, {"time": 2738, "pitch": 73, "duration": 4, "velocity": 109}, {"time": 2744, "pitch": 73, "duration": 4, "velocity": 112}, {"time": 2750, "pitch": 70, "duration": 2, "velocity": 115}, {"time": 2753, "pitch": 75, "duration": 8, "velocity": 112}, {"time": 2762, "pitch": 73, "duration": 13, "velocity": 109}, {"time": 2780, "pitch": 70, "duration": 2, "velocity": 118}, {"time": 2783, "pitch": 73, "duration": 2, "velocity": 109}, {"time": 2786, "pitch": 72, "duration": 4, "velocity": 118}, {"time": 2792, "pitch": 72, "duration": 2, "velocity": 109}, {"time": 2795, "pitch": 72, "duration": 2, "velocity": 106}, {"time": 2798, "pitch": 72, "duration": 5, "velocity": 115}, {"time": 2804, "pitch": 68, "duration": 2, "velocity": 115}, {"time": 2807, "pitch": 63, "duration": 2, "velocity": 115}, {"time": 2810, "pitch": 65, "duration": 12, "velocity": 115}, {"time": 2831, "pitch": 65, "duration": 2, "velocity": 115}, {"time": 2834, "pitch": 63, "duration": 4, "velocity": 115}, {"time": 2840, "pitch": 63, "duration": 1, "velocity": 109}, {"time": 2843, "pitch": 63, "duration": 8, "velocity": 115}, {"time": 2852, "pitch": 70, "duration": 4, "velocity": 115}, {"time": 2858, "pitch": 68, "duration": 4, "velocity": 109}, {"time": 2864, "pitch": 70, "duration": 1, "velocity": 112}, {"time": 2867, "pitch": 72, "duration": 7, "velocity": 115}, {"time": 2876, "pitch": 68, "duration": 5, "velocity": 115}, {"time": 2882, "pitch": 65, "duration": 38, "velocity": 112}, {"time": 2930, "pitch": 70, "duration": 4, "velocity": 115}, {"time": 2936, "pitch": 68, "duration": 2, "velocity": 112}, {"time": 2939, "pitch": 70, "duration": 7, "velocity": 115}, {"time": 2948, "pitch": 73, "duration": 4, "velocity": 115}, {"time": 2954, "pitch": 75, "duration": 5, "velocity": 112}, {"time": 2960, "pitch": 77, "duration": 2, "velocity": 109}, {"time": 2963, "pitch": 75, "duration": 9, "velocity": 118}, {"time": 2972, "pitch": 73, "duration": 4, "velocity": 109}, {"time": 2978, "pitch": 68, "duration": 4, "velocity": 112}, {"time": 2984, "pitch": 70, "duration": 1, "velocity": 109}, {"time": 2987, "pitch": 72, "duration": 8, "velocity": 115}, {"time": 2996, "pitch": 75, "duration": 4, "velocity": 115}, {"time": 3002, "pitch": 73, "duration": 13, "velocity": 112}, {"time": 3020, "pitch": 65, "duration": 2, "velocity": 115}, {"time": 3023, "pitch": 68, "duration": 1, "velocity": 115}, {"time": 3026, "pitch": 70, "duration": 5, "velocity": 112}, {"time": 3032, "pitch": 68, "duration": 1, "velocity": 112}, {"time": 3035, "pitch": 70, "duration": 7, "velocity": 115}, {"time": 3044, "pitch": 77, "duration": 4, "velocity": 112}, {"time": 3050, "pitch": 75, "duration": 8, "velocity": 115}, {"time": 3059, "pitch": 77, "duration": 6, "velocity": 112}, {"time": 3068, "pitch": 68, "duration": 5, "velocity": 112}, {"time": 3074, "pitch": 70, "duration": 38, "velocity": 115}, {"time": 3116, "pitch": 65, "duration": 2, "velocity": 115}, {"time": 3119, "pitch": 68, "duration": 1, "velocity": 112}, {"time": 3122, "pitch": 70, "duration": 5, "velocity": 112}, {"time": 3128, "pitch": 68, "duration": 1, "velocity": 104}, {"time": 3131, "pitch": 70, "duration": 7, "velocity": 115}, {"time": 3139, "pitch": 77, "duration": 6, "velocity": 101}, {"time": 3146, "pitch": 75, "duration": 12, "velocity": 112}, {"time": 3159, "pitch": 72, "duration": 32, "velocity": 115}, {"time": 3202, "pitch": 68, "duration": 10, "velocity": 112}, {"time": 3218, "pitch": 70, "duration": 43, "velocity": 115}]}, {"program": 0, "is_drum": false, "name": "PIANO", "notes": [{"time": 50, "pitch": 46, "duration": 42, "velocity": 96}, {"time": 56, "pitch": 53, "duration": 17, "velocity": 94}, {"time": 62, "pitch": 58, "duration": 21, "velocity": 115}, {"time": 68, "pitch": 61, "duration": 20, "velocity": 96}, {"time": 68, "pitch": 65, "duration": 22, "velocity": 96}, {"time": 80, "pitch": 53, "duration": 12, "velocity": 54}, {"time": 86, "pitch": 58, "duration": 6, "velocity": 96}, {"time": 98, "pitch": 44, "duration": 42, "velocity": 104}, {"time": 104, "pitch": 51, "duration": 16, "velocity": 80}, {"time": 110, "pitch": 56, "duration": 21, "velocity": 106}, {"time": 116, "pitch": 63, "duration": 15, "velocity": 106}, {"time": 128, "pitch": 51, "duration": 10, "velocity": 43}, {"time": 134, "pitch": 56, "duration": 3, "velocity": 106}, {"time": 134, "pitch": 60, "duration": 7, "velocity": 109}, {"time": 140, "pitch": 56, "duration": 3, "velocity": 67}, {"time": 146, "pitch": 42, "duration": 20, "velocity": 99}, {"time": 146, "pitch": 54, "duration": 18, "velocity": 99}, {"time": 146, "pitch": 58, "duration": 17, "velocity": 101}, {"time": 152, "pitch": 49, "duration": 15, "velocity": 54}, {"time": 158, "pitch": 61, "duration": 11, "velocity": 94}, {"time": 170, "pitch": 44, "duration": 22, "velocity": 104}, {"time": 170, "pitch": 56, "duration": 13, "velocity": 99}, {"time": 170, "pitch": 60, "duration": 20, "velocity": 99}, {"time": 176, "pitch": 51, "duration": 14, "velocity": 78}, {"time": 182, "pitch": 63, "duration": 10, "velocity": 109}, {"time": 194, "pitch": 49, "duration": 44, "velocity": 74}, {"time": 194, "pitch": 56, "duration": 13, "velocity": 74}, {"time": 194, "pitch": 61, "duration": 15, "velocity": 96}, {"time": 200, "pitch": 53, "duration": 38, "velocity": 66}, {"time": 206, "pitch": 61, "duration": 3, "velocity": 113}, {"time": 209, "pitch": 63, "duration": 3, "velocity": 127}, {"time": 212, "pitch": 65, "duration": 3, "velocity": 116}, {"time": 212, "pitch": 56, "duration": 20, "velocity": 76}, {"time": 215, "pitch": 68, "duration": 17, "velocity": 115}, {"time": 218, "pitch": 61, "duration": 10, "velocity": 80}, {"time": 230, "pitch": 61, "duration": 10, "velocity": 94}, {"time": 230, "pitch": 65, "duration": 11, "velocity": 101}, {"time": 236, "pitch": 56, "duration": 3, "velocity": 87}, {"time": 242, "pitch": 46, "duration": 41, "velocity": 104}, {"time": 242, "pitch": 58, "duration": 14, "velocity": 101}, {"time": 242, "pitch": 61, "duration": 10, "velocity": 91}, {"time": 248, "pitch": 53, "duration": 8, "velocity": 64}, {"time": 254, "pitch": 61, "duration": 18, "velocity": 89}, {"time": 254, "pitch": 65, "duration": 19, "velocity": 101}, {"time": 260, "pitch": 53, "duration": 9, "velocity": 80}, {"time": 272, "pitch": 53, "duration": 11, "velocity": 45}, {"time": 278, "pitch": 61, "duration": 6, "velocity": 104}, {"time": 278, "pitch": 65, "duration": 6, "velocity": 101}, {"time": 284, "pitch": 58, "duration": 4, "velocity": 106}, {"time": 290, "pitch": 44, "duration": 41, "velocity": 101}, {"time": 290, "pitch": 56, "duration": 25, "velocity": 94}, {"time": 290, "pitch": 60, "duration": 31, "velocity": 91}, {"time": 296, "pitch": 51, "duration": 9, "velocity": 61}, {"time": 302, "pitch": 63, "duration": 18, "velocity": 101}, {"time": 308, "pitch": 51, "duration": 22, "velocity": 69}, {"time": 320, "pitch": 56, "duration": 6, "velocity": 73}, {"time": 326, "pitch": 60, "duration": 6, "velocity": 106}, {"time": 326, "pitch": 63, "duration": 7, "velocity": 106}, {"time": 338, "pitch": 42, "duration": 18, "velocity": 101}, {"time": 338, "pitch": 54, "duration": 13, "velocity": 96}, {"time": 338, "pitch": 58, "duration": 10, "velocity": 99}, {"time": 350, "pitch": 58, "duration": 7, "velocity": 101}, {"time": 350, "pitch": 61, "duration": 10, "velocity": 94}, {"time": 362, "pitch": 44, "duration": 16, "velocity": 94}, {"time": 362, "pitch": 56, "duration": 12, "velocity": 85}, {"time": 362, "pitch": 60, "duration": 8, "velocity": 91}, {"time": 368, "pitch": 51, "duration": 10, "velocity": 67}, {"time": 374, "pitch": 60, "duration": 5, "velocity": 101}, {"time": 374, "pitch": 63, "duration": 6, "velocity": 104}, {"time": 386, "pitch": 46, "duration": 45, "velocity": 101}, {"time": 386, "pitch": 58, "duration": 13, "velocity": 76}, {"time": 386, "pitch": 61, "duration": 9, "velocity": 87}, {"time": 392, "pitch": 53, "duration": 7, "velocity": 58}, {"time": 398, "pitch": 65, "duration": 6, "velocity": 94}, {"time": 404, "pitch": 53, "duration": 7, "velocity": 71}, {"time": 410, "pitch": 58, "duration": 19, "velocity": 74}, {"time": 410, "pitch": 61, "duration": 7, "velocity": 87}, {"time": 416, "pitch": 53, "duration": 14, "velocity": 46}, {"time": 434, "pitch": 46, "duration": 42, "velocity": 104}, {"time": 434, "pitch": 58, "duration": 12, "velocity": 89}, {"time": 434, "pitch": 61, "duration": 9, "velocity": 89}, {"time": 440, "pitch": 53, "duration": 10, "velocity": 64}, {"time": 446, "pitch": 61, "duration": 8, "velocity": 89}, {"time": 452, "pitch": 53, "duration": 8, "velocity": 61}, {"time": 458, "pitch": 61, "duration": 13, "velocity": 89}, {"time": 458, "pitch": 65, "duration": 13, "velocity": 91}, {"time": 482, "pitch": 44, "duration": 23, "velocity": 99}, {"time": 482, "pitch": 56, "duration": 13, "velocity": 82}, {"time": 482, "pitch": 60, "duration": 9, "velocity": 91}, {"time": 488, "pitch": 51, "duration": 8, "velocity": 64}, {"time": 494, "pitch": 60, "duration": 7, "velocity": 94}, {"time": 500, "pitch": 51, "duration": 5, "velocity": 61}, {"time": 506, "pitch": 46, "duration": 18, "velocity": 96}, {"time": 506, "pitch": 58, "duration": 17, "velocity": 87}, {"time": 506, "pitch": 61, "duration": 9, "velocity": 94}, {"time": 512, "pitch": 53, "duration": 11, "velocity": 64}, {"time": 518, "pitch": 61, "duration": 5, "velocity": 101}, {"time": 518, "pitch": 65, "duration": 5, "velocity": 96}, {"time": 530, "pitch": 39, "duration": 36, "velocity": 101}, {"time": 530, "pitch": 58, "duration": 13, "velocity": 89}, {"time": 530, "pitch": 63, "duration": 8, "velocity": 99}, {"time": 536, "pitch": 46, "duration": 29, "velocity": 54}, {"time": 542, "pitch": 63, "duration": 6, "velocity": 106}, {"time": 542, "pitch": 66, "duration": 12, "velocity": 106}, {"time": 560, "pitch": 58, "duration": 3, "velocity": 87}, {"time": 566, "pitch": 58, "duration": 3, "velocity": 109}, {"time": 566, "pitch": 63, "duration": 5, "velocity": 106}, {"time": 578, "pitch": 53, "duration": 21, "velocity": 99}, {"time": 578, "pitch": 60, "duration": 5, "velocity": 94}, {"time": 578, "pitch": 65, "duration": 7, "velocity": 101}, {"time": 584, "pitch": 60, "duration": 4, "velocity": 87}, {"time": 590, "pitch": 60, "duration": 3, "velocity": 104}, {"time": 590, "pitch": 65, "duration": 7, "velocity": 112}, {"time": 596, "pitch": 60, "duration": 4, "velocity": 85}, {"time": 602, "pitch": 60, "duration": 10, "velocity": 99}, {"time": 602, "pitch": 65, "duration": 10, "velocity": 99}, {"time": 614, "pitch": 60, "duration": 6, "velocity": 104}, {"time": 614, "pitch": 65, "duration": 6, "velocity": 101}, {"time": 626, "pitch": 51, "duration": 16, "velocity": 101}, {"time": 626, "pitch": 58, "duration": 4, "velocity": 101}, {"time": 626, "pitch": 63, "duration": 8, "velocity": 104}, {"time": 632, "pitch": 58, "duration": 7, "velocity": 96}, {"time": 638, "pitch": 63, "duration": 5, "velocity": 106}, {"time": 638, "pitch": 66, "duration": 5, "velocity": 104}, {"time": 650, "pitch": 46, "duration": 17, "velocity": 101}, {"time": 650, "pitch": 58, "duration": 9, "velocity": 96}, {"time": 650, "pitch": 61, "duration": 6, "velocity": 91}, {"time": 656, "pitch": 53, "duration": 10, "velocity": 74}, {"time": 662, "pitch": 61, "duration": 6, "velocity": 106}, {"time": 662, "pitch": 65, "duration": 6, "velocity": 106}, {"time": 674, "pitch": 41, "duration": 13, "velocity": 99}, {"time": 674, "pitch": 53, "duration": 8, "velocity": 82}, {"time": 674, "pitch": 56, "duration": 7, "velocity": 87}, {"time": 680, "pitch": 48, "duration": 5, "velocity": 50}, {"time": 686, "pitch": 53, "duration": 3, "velocity": 104}, {"time": 686, "pitch": 56, "duration": 3, "velocity": 109}, {"time": 698, "pitch": 46, "duration": 19, "velocity": 104}, {"time": 698, "pitch": 58, "duration": 9, "velocity": 91}, {"time": 698, "pitch": 61, "duration": 6, "velocity": 87}, {"time": 704, "pitch": 53, "duration": 10, "velocity": 46}, {"time": 710, "pitch": 58, "duration": 4, "velocity": 106}, {"time": 710, "pitch": 61, "duration": 5, "velocity": 106}, {"time": 710, "pitch": 65, "duration": 5, "velocity": 101}, {"time": 722, "pitch": 42, "duration": 17, "velocity": 101}, {"time": 722, "pitch": 54, "duration": 9, "velocity": 89}, {"time": 722, "pitch": 58, "duration": 7, "velocity": 87}, {"time": 728, "pitch": 49, "duration": 10, "velocity": 44}, {"time": 734, "pitch": 58, "duration": 6, "velocity": 104}, {"time": 734, "pitch": 61, "duration": 8, "velocity": 99}, {"time": 746, "pitch": 44, "duration": 18, "velocity": 99}, {"time": 746, "pitch": 56, "duration": 7, "velocity": 87}, {"time": 746, "pitch": 60, "duration": 13, "velocity": 94}, {"time": 752, "pitch": 51, "duration": 12, "velocity": 76}, {"time": 758, "pitch": 56, "duration": 6, "velocity": 104}, {"time": 764, "pitch": 60, "duration": 6, "velocity": 96}, {"time": 770, "pitch": 46, "duration": 43, "velocity": 104}, {"time": 770, "pitch": 58, "duration": 10, "velocity": 94}, {"time": 770, "pitch": 61, "duration": 7, "velocity": 91}, {"time": 776, "pitch": 53, "duration": 8, "velocity": 59}, {"time": 782, "pitch": 61, "duration": 8, "velocity": 96}, {"time": 782, "pitch": 65, "duration": 8, "velocity": 91}, {"time": 788, "pitch": 53, "duration": 7, "velocity": 66}, {"time": 794, "pitch": 58, "duration": 10, "velocity": 85}, {"time": 794, "pitch": 61, "duration": 9, "velocity": 87}, {"time": 800, "pitch": 53, "duration": 7, "velocity": 76}, {"time": 806, "pitch": 60, "duration": 7, "velocity": 112}, {"time": 812, "pitch": 53, "duration": 4, "velocity": 91}, {"time": 818, "pitch": 46, "duration": 46, "velocity": 102}, {"time": 821, "pitch": 53, "duration": 11, "velocity": 62}, {"time": 824, "pitch": 58, "duration": 7, "velocity": 69}, {"time": 830, "pitch": 61, "duration": 6, "velocity": 89}, {"time": 836, "pitch": 53, "duration": 4, "velocity": 40}, {"time": 839, "pitch": 58, "duration": 12, "velocity": 89}, {"time": 839, "pitch": 65, "duration": 10, "velocity": 89}, {"time": 854, "pitch": 58, "duration": 4, "velocity": 102}, {"time": 854, "pitch": 61, "duration": 4, "velocity": 100}, {"time": 857, "pitch": 53, "duration": 7, "velocity": 62}, {"time": 860, "pitch": 58, "duration": 5, "velocity": 102}, {"time": 863, "pitch": 61, "duration": 1, "velocity": 40}, {"time": 866, "pitch": 44, "duration": 18, "velocity": 94}, {"time": 866, "pitch": 56, "duration": 10, "velocity": 82}, {"time": 866, "pitch": 60, "duration": 7, "velocity": 100}, {"time": 872, "pitch": 51, "duration": 13, "velocity": 34}, {"time": 878, "pitch": 60, "duration": 5, "velocity": 97}, {"time": 878, "pitch": 63, "duration": 6, "velocity": 89}, {"time": 890, "pitch": 46, "duration": 22, "velocity": 94}, {"time": 890, "pitch": 58, "duration": 14, "velocity": 73}, {"time": 890, "pitch": 61, "duration": 7, "velocity": 82}, {"time": 896, "pitch": 53, "duration": 4, "velocity": 33}, {"time": 899, "pitch": 61, "duration": 1, "velocity": 33}, {"time": 899, "pitch": 65, "duration": 5, "velocity": 84}, {"time": 902, "pitch": 53, "duration": 8, "velocity": 45}, {"time": 905, "pitch": 70, "duration": 4, "velocity": 111}, {"time": 908, "pitch": 58, "duration": 3, "velocity": 69}, {"time": 914, "pitch": 51, "duration": 40, "velocity": 71}, {"time": 914, "pitch": 58, "duration": 11, "velocity": 82}, {"time": 914, "pitch": 63, "duration": 10, "velocity": 84}, {"time": 920, "pitch": 54, "duration": 33, "velocity": 42}, {"time": 926, "pitch": 66, "duration": 4, "velocity": 102}, {"time": 929, "pitch": 63, "duration": 5, "velocity": 53}, {"time": 932, "pitch": 58, "duration": 4, "velocity": 80}, {"time": 938, "pitch": 58, "duration": 10, "velocity": 87}, {"time": 938, "pitch": 63, "duration": 9, "velocity": 87}, {"time": 950, "pitch": 66, "duration": 4, "velocity": 97}, {"time": 953, "pitch": 63, "duration": 5, "velocity": 94}, {"time": 956, "pitch": 58, "duration": 2, "velocity": 48}, {"time": 962, "pitch": 53, "duration": 46, "velocity": 92}, {"time": 962, "pitch": 60, "duration": 4, "velocity": 80}, {"time": 962, "pitch": 65, "duration": 10, "velocity": 73}, {"time": 968, "pitch": 60, "duration": 4, "velocity": 60}, {"time": 974, "pitch": 60, "duration": 7, "velocity": 100}, {"time": 974, "pitch": 65, "duration": 6, "velocity": 102}, {"time": 983, "pitch": 60, "duration": 2, "velocity": 80}, {"time": 983, "pitch": 69, "duration": 2, "velocity": 50}, {"time": 986, "pitch": 60, "duration": 3, "velocity": 100}, {"time": 986, "pitch": 69, "duration": 8, "velocity": 99}, {"time": 995, "pitch": 60, "duration": 4, "velocity": 71}, {"time": 998, "pitch": 65, "duration": 11, "velocity": 105}, {"time": 1010, "pitch": 51, "duration": 18, "velocity": 87}, {"time": 1010, "pitch": 58, "duration": 4, "velocity": 73}, {"time": 1010, "pitch": 63, "duration": 10, "velocity": 87}, {"time": 1016, "pitch": 58, "duration": 4, "velocity": 50}, {"time": 1022, "pitch": 66, "duration": 7, "velocity": 105}, {"time": 1034, "pitch": 46, "duration": 22, "velocity": 94}, {"time": 1034, "pitch": 58, "duration": 3, "velocity": 76}, {"time": 1034, "pitch": 61, "duration": 4, "velocity": 82}, {"time": 1037, "pitch": 53, "duration": 7, "velocity": 44}, {"time": 1040, "pitch": 58, "duration": 2, "velocity": 82}, {"time": 1043, "pitch": 60, "duration": 4, "velocity": 123}, {"time": 1046, "pitch": 53, "duration": 4, "velocity": 48}, {"time": 1049, "pitch": 61, "duration": 3, "velocity": 89}, {"time": 1052, "pitch": 53, "duration": 4, "velocity": 46}, {"time": 1058, "pitch": 53, "duration": 18, "velocity": 89}, {"time": 1058, "pitch": 60, "duration": 4, "velocity": 84}, {"time": 1058, "pitch": 68, "duration": 8, "velocity": 92}, {"time": 1064, "pitch": 60, "duration": 2, "velocity": 71}, {"time": 1067, "pitch": 65, "duration": 4, "velocity": 94}, {"time": 1073, "pitch": 68, "duration": 5, "velocity": 105}, {"time": 1076, "pitch": 60, "duration": 4, "velocity": 80}, {"time": 1082, "pitch": 46, "duration": 21, "velocity": 94}, {"time": 1082, "pitch": 58, "duration": 9, "velocity": 87}, {"time": 1082, "pitch": 61, "duration": 8, "velocity": 82}, {"time": 1088, "pitch": 53, "duration": 7, "velocity": 58}, {"time": 1094, "pitch": 65, "duration": 7, "velocity": 102}, {"time": 1097, "pitch": 53, "duration": 6, "velocity": 76}, {"time": 1100, "pitch": 58, "duration": 7, "velocity": 102}, {"time": 1103, "pitch": 61, "duration": 4, "velocity": 94}, {"time": 1106, "pitch": 42, "duration": 20, "velocity": 97}, {"time": 1106, "pitch": 54, "duration": 6, "velocity": 94}, {"time": 1106, "pitch": 61, "duration": 1, "velocity": 94}, {"time": 1112, "pitch": 49, "duration": 13, "velocity": 52}, {"time": 1118, "pitch": 54, "duration": 9, "velocity": 111}, {"time": 1121, "pitch": 58, "duration": 4, "velocity": 105}, {"time": 1124, "pitch": 61, "duration": 5, "velocity": 67}, {"time": 1130, "pitch": 44, "duration": 18, "velocity": 100}, {"time": 1130, "pitch": 56, "duration": 6, "velocity": 71}, {"time": 1130, "pitch": 63, "duration": 7, "velocity": 67}, {"time": 1136, "pitch": 51, "duration": 8, "velocity": 44}, {"time": 1142, "pitch": 56, "duration": 4, "velocity": 105}, {"time": 1142, "pitch": 60, "duration": 6, "velocity": 108}, {"time": 1145, "pitch": 51, "duration": 7, "velocity": 84}, {"time": 1148, "pitch": 56, "duration": 3, "velocity": 102}, {"time": 1154, "pitch": 46, "duration": 47, "velocity": 97}, {"time": 1154, "pitch": 58, "duration": 7, "velocity": 102}, {"time": 1154, "pitch": 61, "duration": 6, "velocity": 100}, {"time": 1160, "pitch": 53, "duration": 7, "velocity": 36}, {"time": 1163, "pitch": 58, "duration": 2, "velocity": 78}, {"time": 1163, "pitch": 65, "duration": 2, "velocity": 84}, {"time": 1166, "pitch": 58, "duration": 7, "velocity": 114}, {"time": 1166, "pitch": 65, "duration": 9, "velocity": 102}, {"time": 1172, "pitch": 53, "duration": 9, "velocity": 76}, {"time": 1178, "pitch": 58, "duration": 7, "velocity": 111}, {"time": 1178, "pitch": 61, "duration": 9, "velocity": 97}, {"time": 1184, "pitch": 53, "duration": 8, "velocity": 76}, {"time": 1187, "pitch": 58, "duration": 2, "velocity": 117}, {"time": 1190, "pitch": 58, "duration": 3, "velocity": 117}, {"time": 1190, "pitch": 61, "duration": 3, "velocity": 117}, {"time": 1193, "pitch": 53, "duration": 4, "velocity": 111}, {"time": 1196, "pitch": 60, "duration": 4, "velocity": 127}, {"time": 1199, "pitch": 58, "duration": 3, "velocity": 105}, {"time": 1202, "pitch": 46, "duration": 14, "velocity": 100}, {"time": 1202, "pitch": 58, "duration": 10, "velocity": 102}, {"time": 1202, "pitch": 61, "duration": 8, "velocity": 102}, {"time": 1208, "pitch": 53, "duration": 7, "velocity": 50}, {"time": 1211, "pitch": 61, "duration": 1, "velocity": 14}, {"time": 1214, "pitch": 58, "duration": 6, "velocity": 108}, {"time": 1214, "pitch": 61, "duration": 10, "velocity": 102}, {"time": 1220, "pitch": 53, "duration": 2, "velocity": 100}, {"time": 1223, "pitch": 58, "duration": 4, "velocity": 114}, {"time": 1226, "pitch": 42, "duration": 17, "velocity": 102}, {"time": 1229, "pitch": 49, "duration": 7, "velocity": 66}, {"time": 1232, "pitch": 54, "duration": 2, "velocity": 100}, {"time": 1235, "pitch": 54, "duration": 5, "velocity": 114}, {"time": 1235, "pitch": 61, "duration": 5, "velocity": 100}, {"time": 1238, "pitch": 49, "duration": 5, "velocity": 84}, {"time": 1241, "pitch": 54, "duration": 3, "velocity": 97}, {"time": 1241, "pitch": 58, "duration": 4, "velocity": 108}, {"time": 1244, "pitch": 42, "duration": 4, "velocity": 82}, {"time": 1250, "pitch": 44, "duration": 14, "velocity": 105}, {"time": 1250, "pitch": 56, "duration": 9, "velocity": 89}, {"time": 1250, "pitch": 60, "duration": 6, "velocity": 92}, {"time": 1256, "pitch": 51, "duration": 8, "velocity": 49}, {"time": 1262, "pitch": 56, "duration": 6, "velocity": 108}, {"time": 1262, "pitch": 60, "duration": 6, "velocity": 117}, {"time": 1262, "pitch": 63, "duration": 6, "velocity": 102}, {"time": 1268, "pitch": 44, "duration": 5, "velocity": 97}, {"time": 1271, "pitch": 56, "duration": 4, "velocity": 92}, {"time": 1271, "pitch": 60, "duration": 4, "velocity": 100}, {"time": 1271, "pitch": 63, "duration": 4, "velocity": 84}, {"time": 1274, "pitch": 49, "duration": 16, "velocity": 105}, {"time": 1277, "pitch": 56, "duration": 3, "velocity": 108}, {"time": 1280, "pitch": 61, "duration": 4, "velocity": 92}, {"time": 1283, "pitch": 56, "duration": 2, "velocity": 92}, {"time": 1286, "pitch": 56, "duration": 6, "velocity": 114}, {"time": 1286, "pitch": 61, "duration": 7, "velocity": 114}, {"time": 1286, "pitch": 65, "duration": 7, "velocity": 114}, {"time": 1292, "pitch": 49, "duration": 4, "velocity": 100}, {"time": 1295, "pitch": 56, "duration": 2, "velocity": 102}, {"time": 1298, "pitch": 51, "duration": 15, "velocity": 117}, {"time": 1298, "pitch": 58, "duration": 3, "velocity": 114}, {"time": 1298, "pitch": 63, "duration": 6, "velocity": 97}, {"time": 1304, "pitch": 58, "duration": 3, "velocity": 94}, {"time": 1310, "pitch": 58, "duration": 6, "velocity": 111}, {"time": 1310, "pitch": 63, "duration": 7, "velocity": 114}, {"time": 1310, "pitch": 66, "duration": 10, "velocity": 111}, {"time": 1316, "pitch": 51, "duration": 4, "velocity": 73}, {"time": 1319, "pitch": 58, "duration": 4, "velocity": 105}, {"time": 1319, "pitch": 63, "duration": 1, "velocity": 26}, {"time": 1322, "pitch": 44, "duration": 16, "velocity": 105}, {"time": 1322, "pitch": 56, "duration": 6, "velocity": 94}, {"time": 1322, "pitch": 60, "duration": 6, "velocity": 102}, {"time": 1328, "pitch": 51, "duration": 4, "velocity": 67}, {"time": 1331, "pitch": 56, "duration": 4, "velocity": 102}, {"time": 1331, "pitch": 63, "duration": 4, "velocity": 102}, {"time": 1334, "pitch": 51, "duration": 4, "velocity": 80}, {"time": 1337, "pitch": 56, "duration": 3, "velocity": 102}, {"time": 1337, "pitch": 60, "duration": 3, "velocity": 111}, {"time": 1340, "pitch": 44, "duration": 5, "velocity": 64}, {"time": 1340, "pitch": 51, "duration": 2, "velocity": 71}, {"time": 1343, "pitch": 56, "duration": 2, "velocity": 100}, {"time": 1346, "pitch": 49, "duration": 11, "velocity": 100}, {"time": 1346, "pitch": 56, "duration": 3, "velocity": 100}, {"time": 1346, "pitch": 61, "duration": 6, "velocity": 102}, {"time": 1352, "pitch": 56, "duration": 1, "velocity": 69}, {"time": 1355, "pitch": 56, "duration": 4, "velocity": 114}, {"time": 1355, "pitch": 65, "duration": 4, "velocity": 111}, {"time": 1358, "pitch": 49, "duration": 5, "velocity": 87}, {"time": 1361, "pitch": 56, "duration": 2, "velocity": 117}, {"time": 1361, "pitch": 61, "duration": 6, "velocity": 114}, {"time": 1367, "pitch": 56, "duration": 1, "velocity": 73}, {"time": 1370, "pitch": 53, "duration": 14, "velocity": 120}, {"time": 1370, "pitch": 60, "duration": 4, "velocity": 111}, {"time": 1370, "pitch": 65, "duration": 4, "velocity": 97}, {"time": 1376, "pitch": 60, "duration": 1, "velocity": 102}, {"time": 1379, "pitch": 60, "duration": 1, "velocity": 114}, {"time": 1379, "pitch": 69, "duration": 1, "velocity": 105}, {"time": 1382, "pitch": 60, "duration": 3, "velocity": 114}, {"time": 1382, "pitch": 69, "duration": 3, "velocity": 116}, {"time": 1385, "pitch": 53, "duration": 4, "velocity": 100}, {"time": 1388, "pitch": 60, "duration": 2, "velocity": 114}, {"time": 1388, "pitch": 65, "duration": 4, "velocity": 105}, {"time": 1391, "pitch": 60, "duration": 2, "velocity": 94}, {"time": 1394, "pitch": 46, "duration": 20, "velocity": 100}, {"time": 1394, "pitch": 58, "duration": 7, "velocity": 97}, {"time": 1394, "pitch": 61, "duration": 6, "velocity": 102}, {"time": 1400, "pitch": 53, "duration": 7, "velocity": 60}, {"time": 1406, "pitch": 58, "duration": 3, "velocity": 114}, {"time": 1406, "pitch": 65, "duration": 3, "velocity": 114}, {"time": 1409, "pitch": 53, "duration": 5, "velocity": 92}, {"time": 1412, "pitch": 58, "duration": 4, "velocity": 111}, {"time": 1415, "pitch": 61, "duration": 2, "velocity": 100}, {"time": 1418, "pitch": 51, "duration": 13, "velocity": 94}, {"time": 1418, "pitch": 58, "duration": 8, "velocity": 94}, {"time": 1418, "pitch": 63, "duration": 8, "velocity": 102}, {"time": 1430, "pitch": 58, "duration": 2, "velocity": 117}, {"time": 1430, "pitch": 66, "duration": 2, "velocity": 111}, {"time": 1433, "pitch": 58, "duration": 1, "velocity": 97}, {"time": 1433, "pitch": 63, "duration": 3, "velocity": 105}, {"time": 1436, "pitch": 58, "duration": 5, "velocity": 97}, {"time": 1439, "pitch": 63, "duration": 2, "velocity": 64}, {"time": 1442, "pitch": 53, "duration": 20, "velocity": 111}, {"time": 1442, "pitch": 60, "duration": 3, "velocity": 105}, {"time": 1442, "pitch": 65, "duration": 6, "velocity": 92}, {"time": 1448, "pitch": 60, "duration": 1, "velocity": 76}, {"time": 1451, "pitch": 60, "duration": 3, "velocity": 111}, {"time": 1451, "pitch": 68, "duration": 3, "velocity": 105}, {"time": 1457, "pitch": 60, "duration": 2, "velocity": 94}, {"time": 1457, "pitch": 65, "duration": 3, "velocity": 97}, {"time": 1460, "pitch": 60, "duration": 4, "velocity": 102}, {"time": 1463, "pitch": 65, "duration": 2, "velocity": 80}, {"time": 1466, "pitch": 46, "duration": 20, "velocity": 100}, {"time": 1466, "pitch": 58, "duration": 4, "velocity": 102}, {"time": 1466, "pitch": 61, "duration": 5, "velocity": 111}, {"time": 1469, "pitch": 53, "duration": 7, "velocity": 60}, {"time": 1472, "pitch": 58, "duration": 1, "velocity": 92}, {"time": 1475, "pitch": 58, "duration": 3, "velocity": 108}, {"time": 1475, "pitch": 65, "duration": 3, "velocity": 105}, {"time": 1478, "pitch": 53, "duration": 6, "velocity": 84}, {"time": 1481, "pitch": 58, "duration": 2, "velocity": 114}, {"time": 1481, "pitch": 61, "duration": 3, "velocity": 108}, {"time": 1484, "pitch": 58, "duration": 2, "velocity": 97}, {"time": 1490, "pitch": 42, "duration": 18, "velocity": 100}, {"time": 1490, "pitch": 54, "duration": 3, "velocity": 84}, {"time": 1490, "pitch": 58, "duration": 3, "velocity": 97}, {"time": 1493, "pitch": 49, "duration": 7, "velocity": 60}, {"time": 1496, "pitch": 54, "duration": 7, "velocity": 82}, {"time": 1499, "pitch": 66, "duration": 5, "velocity": 111}, {"time": 1502, "pitch": 49, "duration": 6, "velocity": 69}, {"time": 1505, "pitch": 61, "duration": 6, "velocity": 108}, {"time": 1508, "pitch": 54, "duration": 3, "velocity": 100}, {"time": 1514, "pitch": 44, "duration": 7, "velocity": 102}, {"time": 1514, "pitch": 56, "duration": 7, "velocity": 108}, {"time": 1514, "pitch": 60, "duration": 6, "velocity": 108}, {"time": 1523, "pitch": 44, "duration": 8, "velocity": 105}, {"time": 1523, "pitch": 56, "duration": 7, "velocity": 89}, {"time": 1523, "pitch": 60, "duration": 7, "velocity": 108}, {"time": 1523, "pitch": 63, "duration": 7, "velocity": 94}, {"time": 1538, "pitch": 46, "duration": 4, "velocity": 108}, {"time": 1538, "pitch": 58, "duration": 3, "velocity": 100}, {"time": 1538, "pitch": 61, "duration": 3, "velocity": 92}, {"time": 1544, "pitch": 46, "duration": 3, "velocity": 100}, {"time": 1544, "pitch": 58, "duration": 3, "velocity": 82}, {"time": 1544, "pitch": 61, "duration": 2, "velocity": 87}, {"time": 1550, "pitch": 46, "duration": 3, "velocity": 105}, {"time": 1550, "pitch": 53, "duration": 3, "velocity": 100}, {"time": 1550, "pitch": 58, "duration": 3, "velocity": 89}, {"time": 1550, "pitch": 61, "duration": 3, "velocity": 94}, {"time": 1556, "pitch": 46, "duration": 3, "velocity": 97}, {"time": 1556, "pitch": 53, "duration": 3, "velocity": 92}, {"time": 1556, "pitch": 58, "duration": 3, "velocity": 84}, {"time": 1556, "pitch": 61, "duration": 3, "velocity": 84}, {"time": 1562, "pitch": 46, "duration": 3, "velocity": 102}, {"time": 1562, "pitch": 53, "duration": 3, "velocity": 100}, {"time": 1562, "pitch": 58, "duration": 3, "velocity": 92}, {"time": 1562, "pitch": 61, "duration": 2, "velocity": 92}, {"time": 1568, "pitch": 46, "duration": 3, "velocity": 105}, {"time": 1568, "pitch": 53, "duration": 3, "velocity": 108}, {"time": 1568, "pitch": 58, "duration": 3, "velocity": 108}, {"time": 1568, "pitch": 61, "duration": 3, "velocity": 111}, {"time": 1574, "pitch": 46, "duration": 11, "velocity": 111}, {"time": 1574, "pitch": 53, "duration": 2, "velocity": 97}, {"time": 1574, "pitch": 58, "duration": 4, "velocity": 114}, {"time": 1574, "pitch": 61, "duration": 4, "velocity": 120}, {"time": 1577, "pitch": 53, "duration": 8, "velocity": 111}, {"time": 1580, "pitch": 58, "duration": 2, "velocity": 120}, {"time": 1583, "pitch": 58, "duration": 2, "velocity": 94}, {"time": 1583, "pitch": 61, "duration": 2, "velocity": 102}, {"time": 1586, "pitch": 46, "duration": 34, "velocity": 108}, {"time": 1586, "pitch": 58, "duration": 9, "velocity": 108}, {"time": 1586, "pitch": 61, "duration": 7, "velocity": 111}, {"time": 1592, "pitch": 53, "duration": 8, "velocity": 84}, {"time": 1598, "pitch": 58, "duration": 6, "velocity": 111}, {"time": 1598, "pitch": 65, "duration": 5, "velocity": 97}, {"time": 1604, "pitch": 53, "duration": 7, "velocity": 60}, {"time": 1607, "pitch": 58, "duration": 1, "velocity": 94}, {"time": 1607, "pitch": 61, "duration": 1, "velocity": 87}, {"time": 1610, "pitch": 58, "duration": 4, "velocity": 114}, {"time": 1610, "pitch": 61, "duration": 4, "velocity": 111}, {"time": 1613, "pitch": 53, "duration": 7, "velocity": 78}, {"time": 1616, "pitch": 58, "duration": 1, "velocity": 92}, {"time": 1619, "pitch": 58, "duration": 7, "velocity": 114}, {"time": 1619, "pitch": 61, "duration": 7, "velocity": 114}, {"time": 1619, "pitch": 65, "duration": 7, "velocity": 100}, {"time": 1622, "pitch": 46, "duration": 10, "velocity": 100}, {"time": 1625, "pitch": 53, "duration": 6, "velocity": 87}, {"time": 1628, "pitch": 58, "duration": 2, "velocity": 123}, {"time": 1631, "pitch": 58, "duration": 1, "velocity": 55}, {"time": 1631, "pitch": 61, "duration": 1, "velocity": 92}, {"time": 1634, "pitch": 44, "duration": 22, "velocity": 102}, {"time": 1634, "pitch": 56, "duration": 6, "velocity": 105}, {"time": 1634, "pitch": 60, "duration": 6, "velocity": 111}, {"time": 1640, "pitch": 51, "duration": 6, "velocity": 19}, {"time": 1643, "pitch": 56, "duration": 1, "velocity": 87}, {"time": 1643, "pitch": 63, "duration": 1, "velocity": 84}, {"time": 1646, "pitch": 56, "duration": 3, "velocity": 111}, {"time": 1646, "pitch": 63, "duration": 2, "velocity": 105}, {"time": 1649, "pitch": 51, "duration": 7, "velocity": 76}, {"time": 1652, "pitch": 56, "duration": 2, "velocity": 89}, {"time": 1655, "pitch": 56, "duration": 5, "velocity": 105}, {"time": 1655, "pitch": 68, "duration": 5, "velocity": 100}, {"time": 1658, "pitch": 44, "duration": 20, "velocity": 102}, {"time": 1661, "pitch": 51, "duration": 4, "velocity": 78}, {"time": 1664, "pitch": 56, "duration": 4, "velocity": 100}, {"time": 1664, "pitch": 63, "duration": 4, "velocity": 105}, {"time": 1667, "pitch": 51, "duration": 7, "velocity": 94}, {"time": 1670, "pitch": 56, "duration": 2, "velocity": 100}, {"time": 1673, "pitch": 56, "duration": 4, "velocity": 97}, {"time": 1673, "pitch": 60, "duration": 4, "velocity": 114}, {"time": 1676, "pitch": 51, "duration": 2, "velocity": 80}, {"time": 1682, "pitch": 42, "duration": 15, "velocity": 100}, {"time": 1682, "pitch": 58, "duration": 6, "velocity": 102}, {"time": 1682, "pitch": 61, "duration": 6, "velocity": 105}, {"time": 1688, "pitch": 49, "duration": 3, "velocity": 37}, {"time": 1691, "pitch": 58, "duration": 4, "velocity": 105}, {"time": 1691, "pitch": 61, "duration": 5, "velocity": 105}, {"time": 1691, "pitch": 66, "duration": 6, "velocity": 100}, {"time": 1694, "pitch": 49, "duration": 3, "velocity": 80}, {"time": 1697, "pitch": 58, "duration": 5, "velocity": 105}, {"time": 1700, "pitch": 61, "duration": 3, "velocity": 78}, {"time": 1703, "pitch": 65, "duration": 1, "velocity": 43}, {"time": 1706, "pitch": 44, "duration": 16, "velocity": 108}, {"time": 1706, "pitch": 56, "duration": 3, "velocity": 82}, {"time": 1706, "pitch": 60, "duration": 4, "velocity": 97}, {"time": 1709, "pitch": 51, "duration": 7, "velocity": 64}, {"time": 1712, "pitch": 56, "duration": 2, "velocity": 73}, {"time": 1715, "pitch": 56, "duration": 4, "velocity": 102}, {"time": 1715, "pitch": 60, "duration": 4, "velocity": 114}, {"time": 1715, "pitch": 63, "duration": 4, "velocity": 105}, {"time": 1718, "pitch": 51, "duration": 5, "velocity": 92}, {"time": 1721, "pitch": 56, "duration": 3, "velocity": 105}, {"time": 1721, "pitch": 60, "duration": 3, "velocity": 117}, {"time": 1721, "pitch": 63, "duration": 4, "velocity": 105}, {"time": 1724, "pitch": 44, "duration": 4, "velocity": 97}, {"time": 1730, "pitch": 44, "duration": 4, "velocity": 108}, {"time": 1730, "pitch": 56, "duration": 4, "velocity": 117}, {"time": 1734, "pitch": 49, "duration": 3, "velocity": 120}, {"time": 1734, "pitch": 61, "duration": 4, "velocity": 108}, {"time": 1738, "pitch": 48, "duration": 3, "velocity": 114}, {"time": 1738, "pitch": 60, "duration": 3, "velocity": 117}, {"time": 1742, "pitch": 51, "duration": 4, "velocity": 123}, {"time": 1742, "pitch": 63, "duration": 4, "velocity": 114}, {"time": 1746, "pitch": 49, "duration": 4, "velocity": 111}, {"time": 1746, "pitch": 61, "duration": 3, "velocity": 111}, {"time": 1750, "pitch": 51, "duration": 3, "velocity": 123}, {"time": 1750, "pitch": 63, "duration": 2, "velocity": 114}, {"time": 1754, "pitch": 53, "duration": 11, "velocity": 114}, {"time": 1754, "pitch": 60, "duration": 4, "velocity": 105}, {"time": 1754, "pitch": 65, "duration": 5, "velocity": 97}, {"time": 1760, "pitch": 60, "duration": 1, "velocity": 78}, {"time": 1763, "pitch": 60, "duration": 4, "velocity": 108}, {"time": 1763, "pitch": 69, "duration": 4, "velocity": 102}, {"time": 1766, "pitch": 53, "duration": 5, "velocity": 105}, {"time": 1769, "pitch": 60, "duration": 2, "velocity": 120}, {"time": 1769, "pitch": 65, "duration": 3, "velocity": 120}, {"time": 1772, "pitch": 60, "duration": 4, "velocity": 111}, {"time": 1775, "pitch": 65, "duration": 2, "velocity": 60}, {"time": 1778, "pitch": 46, "duration": 22, "velocity": 97}, {"time": 1778, "pitch": 58, "duration": 8, "velocity": 89}, {"time": 1778, "pitch": 61, "duration": 7, "velocity": 94}, {"time": 1784, "pitch": 53, "duration": 7, "velocity": 66}, {"time": 1790, "pitch": 58, "duration": 3, "velocity": 114}, {"time": 1790, "pitch": 65, "duration": 4, "velocity": 111}, {"time": 1793, "pitch": 53, "duration": 7, "velocity": 87}, {"time": 1796, "pitch": 58, "duration": 9, "velocity": 105}, {"time": 1799, "pitch": 61, "duration": 7, "velocity": 114}, {"time": 1802, "pitch": 46, "duration": 22, "velocity": 100}, {"time": 1805, "pitch": 53, "duration": 8, "velocity": 64}, {"time": 1808, "pitch": 58, "duration": 1, "velocity": 84}, {"time": 1811, "pitch": 58, "duration": 4, "velocity": 102}, {"time": 1811, "pitch": 61, "duration": 4, "velocity": 105}, {"time": 1811, "pitch": 65, "duration": 4, "velocity": 94}, {"time": 1814, "pitch": 53, "duration": 4, "velocity": 89}, {"time": 1817, "pitch": 58, "duration": 4, "velocity": 111}, {"time": 1817, "pitch": 61, "duration": 5, "velocity": 97}, {"time": 1820, "pitch": 53, "duration": 3, "velocity": 80}, {"time": 1823, "pitch": 58, "duration": 2, "velocity": 117}, {"time": 1826, "pitch": 44, "duration": 21, "velocity": 105}, {"time": 1826, "pitch": 56, "duration": 7, "velocity": 117}, {"time": 1826, "pitch": 60, "duration": 7, "velocity": 117}, {"time": 1832, "pitch": 51, "duration": 8, "velocity": 60}, {"time": 1838, "pitch": 56, "duration": 3, "velocity": 114}, {"time": 1838, "pitch": 63, "duration": 3, "velocity": 105}, {"time": 1841, "pitch": 51, "duration": 7, "velocity": 94}, {"time": 1844, "pitch": 56, "duration": 2, "velocity": 94}, {"time": 1847, "pitch": 56, "duration": 6, "velocity": 102}, {"time": 1847, "pitch": 60, "duration": 6, "velocity": 120}, {"time": 1847, "pitch": 63, "duration": 7, "velocity": 117}, {"time": 1847, "pitch": 68, "duration": 7, "velocity": 102}, {"time": 1850, "pitch": 44, "duration": 16, "velocity": 102}, {"time": 1853, "pitch": 51, "duration": 7, "velocity": 82}, {"time": 1856, "pitch": 56, "duration": 1, "velocity": 97}, {"time": 1859, "pitch": 56, "duration": 5, "velocity": 114}, {"time": 1859, "pitch": 60, "duration": 5, "velocity": 123}, {"time": 1859, "pitch": 63, "duration": 4, "velocity": 114}, {"time": 1862, "pitch": 51, "duration": 5, "velocity": 97}, {"time": 1865, "pitch": 56, "duration": 2, "velocity": 120}, {"time": 1865, "pitch": 60, "duration": 6, "velocity": 102}, {"time": 1868, "pitch": 44, "duration": 3, "velocity": 92}, {"time": 1871, "pitch": 56, "duration": 2, "velocity": 114}, {"time": 1874, "pitch": 42, "duration": 13, "velocity": 108}, {"time": 1874, "pitch": 54, "duration": 7, "velocity": 117}, {"time": 1874, "pitch": 58, "duration": 6, "velocity": 108}, {"time": 1880, "pitch": 49, "duration": 4, "velocity": 87}, {"time": 1883, "pitch": 54, "duration": 4, "velocity": 114}, {"time": 1883, "pitch": 66, "duration": 4, "velocity": 105}, {"time": 1886, "pitch": 49, "duration": 2, "velocity": 82}, {"time": 1889, "pitch": 54, "duration": 2, "velocity": 114}, {"time": 1889, "pitch": 61, "duration": 4, "velocity": 108}, {"time": 1892, "pitch": 58, "duration": 4, "velocity": 97}, {"time": 1895, "pitch": 54, "duration": 2, "velocity": 102}, {"time": 1898, "pitch": 44, "duration": 16, "velocity": 108}, {"time": 1898, "pitch": 56, "duration": 7, "velocity": 100}, {"time": 1898, "pitch": 60, "duration": 6, "velocity": 102}, {"time": 1904, "pitch": 51, "duration": 4, "velocity": 89}, {"time": 1907, "pitch": 56, "duration": 5, "velocity": 111}, {"time": 1907, "pitch": 63, "duration": 5, "velocity": 100}, {"time": 1907, "pitch": 68, "duration": 5, "velocity": 102}, {"time": 1910, "pitch": 51, "duration": 4, "velocity": 105}, {"time": 1913, "pitch": 56, "duration": 1, "velocity": 102}, {"time": 1913, "pitch": 60, "duration": 4, "velocity": 114}, {"time": 1916, "pitch": 56, "duration": 2, "velocity": 105}, {"time": 1922, "pitch": 46, "duration": 48, "velocity": 102}, {"time": 1922, "pitch": 58, "duration": 19, "velocity": 94}, {"time": 1922, "pitch": 61, "duration": 19, "velocity": 105}, {"time": 1940, "pitch": 53, "duration": 29, "velocity": 51}, {"time": 1943, "pitch": 58, "duration": 14, "velocity": 92}, {"time": 1946, "pitch": 61, "duration": 8, "velocity": 87}, {"time": 1946, "pitch": 65, "duration": 8, "velocity": 80}, {"time": 1946, "pitch": 70, "duration": 8, "velocity": 92}, {"time": 1958, "pitch": 61, "duration": 11, "velocity": 69}, {"time": 1958, "pitch": 65, "duration": 11, "velocity": 67}, {"time": 1970, "pitch": 46, "duration": 46, "velocity": 102}, {"time": 1973, "pitch": 53, "duration": 11, "velocity": 62}, {"time": 1976, "pitch": 58, "duration": 7, "velocity": 69}, {"time": 1982, "pitch": 61, "duration": 6, "velocity": 89}, {"time": 1988, "pitch": 53, "duration": 4, "velocity": 40}, {"time": 1991, "pitch": 58, "duration": 12, "velocity": 89}, {"time": 1991, "pitch": 65, "duration": 10, "velocity": 89}, {"time": 2006, "pitch": 58, "duration": 4, "velocity": 102}, {"time": 2006, "pitch": 61, "duration": 4, "velocity": 100}, {"time": 2009, "pitch": 53, "duration": 7, "velocity": 62}, {"time": 2012, "pitch": 58, "duration": 5, "velocity": 102}, {"time": 2015, "pitch": 61, "duration": 1, "velocity": 40}, {"time": 2018, "pitch": 44, "duration": 18, "velocity": 94}, {"time": 2018, "pitch": 56, "duration": 10, "velocity": 82}, {"time": 2018, "pitch": 60, "duration": 7, "velocity": 100}, {"time": 2024, "pitch": 51, "duration": 13, "velocity": 34}, {"time": 2030, "pitch": 60, "duration": 5, "velocity": 97}, {"time": 2030, "pitch": 63, "duration": 6, "velocity": 89}, {"time": 2042, "pitch": 46, "duration": 22, "velocity": 94}, {"time": 2042, "pitch": 58, "duration": 14, "velocity": 73}, {"time": 2042, "pitch": 61, "duration": 7, "velocity": 82}, {"time": 2048, "pitch": 53, "duration": 4, "velocity": 33}, {"time": 2051, "pitch": 61, "duration": 1, "velocity": 33}, {"time": 2051, "pitch": 65, "duration": 5, "velocity": 84}, {"time": 2054, "pitch": 53, "duration": 8, "velocity": 45}, {"time": 2057, "pitch": 70, "duration": 4, "velocity": 111}, {"time": 2060, "pitch": 58, "duration": 3, "velocity": 69}, {"time": 2066, "pitch": 51, "duration": 40, "velocity": 71}, {"time": 2066, "pitch": 58, "duration": 11, "velocity": 82}, {"time": 2066, "pitch": 63, "duration": 10, "velocity": 84}, {"time": 2072, "pitch": 54, "duration": 33, "velocity": 42}, {"time": 2078, "pitch": 66, "duration": 4, "velocity": 102}, {"time": 2081, "pitch": 63, "duration": 5, "velocity": 53}, {"time": 2084, "pitch": 58, "duration": 4, "velocity": 80}, {"time": 2090, "pitch": 58, "duration": 10, "velocity": 87}, {"time": 2090, "pitch": 63, "duration": 9, "velocity": 87}, {"time": 2102, "pitch": 66, "duration": 4, "velocity": 97}, {"time": 2105, "pitch": 63, "duration": 5, "velocity": 94}, {"time": 2108, "pitch": 58, "duration": 2, "velocity": 48}, {"time": 2114, "pitch": 53, "duration": 46, "velocity": 92}, {"time": 2114, "pitch": 60, "duration": 4, "velocity": 80}, {"time": 2114, "pitch": 65, "duration": 10, "velocity": 73}, {"time": 2120, "pitch": 60, "duration": 4, "velocity": 60}, {"time": 2126, "pitch": 60, "duration": 7, "velocity": 100}, {"time": 2126, "pitch": 65, "duration": 6, "velocity": 102}, {"time": 2135, "pitch": 60, "duration": 2, "velocity": 80}, {"time": 2135, "pitch": 69, "duration": 2, "velocity": 50}, {"time": 2138, "pitch": 60, "duration": 3, "velocity": 100}, {"time": 2138, "pitch": 69, "duration": 8, "velocity": 99}, {"time": 2147, "pitch": 60, "duration": 4, "velocity": 71}, {"time": 2150, "pitch": 65, "duration": 11, "velocity": 105}, {"time": 2162, "pitch": 51, "duration": 18, "velocity": 87}, {"time": 2162, "pitch": 58, "duration": 4, "velocity": 73}, {"time": 2162, "pitch": 63, "duration": 10, "velocity": 87}, {"time": 2168, "pitch": 58, "duration": 4, "velocity": 50}, {"time": 2174, "pitch": 66, "duration": 7, "velocity": 105}, {"time": 2186, "pitch": 46, "duration": 22, "velocity": 94}, {"time": 2186, "pitch": 58, "duration": 3, "velocity": 76}, {"time": 2186, "pitch": 61, "duration": 4, "velocity": 82}, {"time": 2189, "pitch": 53, "duration": 7, "velocity": 44}, {"time": 2192, "pitch": 58, "duration": 2, "velocity": 82}, {"time": 2195, "pitch": 60, "duration": 4, "velocity": 123}, {"time": 2198, "pitch": 53, "duration": 4, "velocity": 48}, {"time": 2201, "pitch": 61, "duration": 3, "velocity": 89}, {"time": 2204, "pitch": 53, "duration": 4, "velocity": 46}, {"time": 2210, "pitch": 53, "duration": 18, "velocity": 89}, {"time": 2210, "pitch": 60, "duration": 4, "velocity": 84}, {"time": 2210, "pitch": 68, "duration": 8, "velocity": 92}, {"time": 2216, "pitch": 60, "duration": 2, "velocity": 71}, {"time": 2219, "pitch": 65, "duration": 4, "velocity": 94}, {"time": 2225, "pitch": 68, "duration": 5, "velocity": 105}, {"time": 2228, "pitch": 60, "duration": 4, "velocity": 80}, {"time": 2234, "pitch": 46, "duration": 21, "velocity": 94}, {"time": 2234, "pitch": 58, "duration": 9, "velocity": 87}, {"time": 2234, "pitch": 61, "duration": 8, "velocity": 82}, {"time": 2240, "pitch": 53, "duration": 7, "velocity": 58}, {"time": 2246, "pitch": 65, "duration": 7, "velocity": 102}, {"time": 2249, "pitch": 53, "duration": 6, "velocity": 76}, {"time": 2252, "pitch": 58, "duration": 7, "velocity": 102}, {"time": 2255, "pitch": 61, "duration": 4, "velocity": 94}, {"time": 2258, "pitch": 42, "duration": 20, "velocity": 97}, {"time": 2258, "pitch": 54, "duration": 6, "velocity": 94}, {"time": 2258, "pitch": 61, "duration": 1, "velocity": 94}, {"time": 2264, "pitch": 49, "duration": 13, "velocity": 52}, {"time": 2270, "pitch": 54, "duration": 9, "velocity": 111}, {"time": 2273, "pitch": 58, "duration": 4, "velocity": 105}, {"time": 2276, "pitch": 61, "duration": 5, "velocity": 67}, {"time": 2282, "pitch": 44, "duration": 18, "velocity": 100}, {"time": 2282, "pitch": 56, "duration": 6, "velocity": 71}, {"time": 2282, "pitch": 63, "duration": 7, "velocity": 67}, {"time": 2288, "pitch": 51, "duration": 8, "velocity": 44}, {"time": 2294, "pitch": 56, "duration": 4, "velocity": 105}, {"time": 2294, "pitch": 60, "duration": 6, "velocity": 108}, {"time": 2297, "pitch": 51, "duration": 7, "velocity": 84}, {"time": 2300, "pitch": 56, "duration": 3, "velocity": 102}, {"time": 2306, "pitch": 46, "duration": 47, "velocity": 97}, {"time": 2306, "pitch": 58, "duration": 7, "velocity": 102}, {"time": 2306, "pitch": 61, "duration": 6, "velocity": 100}, {"time": 2312, "pitch": 53, "duration": 7, "velocity": 36}, {"time": 2315, "pitch": 58, "duration": 2, "velocity": 78}, {"time": 2315, "pitch": 65, "duration": 2, "velocity": 84}, {"time": 2318, "pitch": 58, "duration": 7, "velocity": 114}, {"time": 2318, "pitch": 65, "duration": 9, "velocity": 102}, {"time": 2324, "pitch": 53, "duration": 9, "velocity": 76}, {"time": 2330, "pitch": 58, "duration": 7, "velocity": 111}, {"time": 2330, "pitch": 61, "duration": 9, "velocity": 97}, {"time": 2336, "pitch": 53, "duration": 8, "velocity": 76}, {"time": 2339, "pitch": 58, "duration": 2, "velocity": 117}, {"time": 2342, "pitch": 58, "duration": 3, "velocity": 117}, {"time": 2342, "pitch": 61, "duration": 3, "velocity": 117}, {"time": 2345, "pitch": 53, "duration": 4, "velocity": 111}, {"time": 2348, "pitch": 60, "duration": 4, "velocity": 127}, {"time": 2351, "pitch": 58, "duration": 3, "velocity": 105}, {"time": 2354, "pitch": 46, "duration": 14, "velocity": 100}, {"time": 2354, "pitch": 58, "duration": 10, "velocity": 102}, {"time": 2354, "pitch": 61, "duration": 8, "velocity": 102}, {"time": 2360, "pitch": 53, "duration": 7, "velocity": 50}, {"time": 2363, "pitch": 61, "duration": 1, "velocity": 14}, {"time": 2366, "pitch": 58, "duration": 6, "velocity": 108}, {"time": 2366, "pitch": 61, "duration": 10, "velocity": 102}, {"time": 2372, "pitch": 53, "duration": 2, "velocity": 100}, {"time": 2375, "pitch": 58, "duration": 4, "velocity": 114}, {"time": 2378, "pitch": 42, "duration": 17, "velocity": 102}, {"time": 2381, "pitch": 49, "duration": 7, "velocity": 66}, {"time": 2384, "pitch": 54, "duration": 2, "velocity": 100}, {"time": 2387, "pitch": 54, "duration": 5, "velocity": 114}, {"time": 2387, "pitch": 61, "duration": 5, "velocity": 100}, {"time": 2390, "pitch": 49, "duration": 5, "velocity": 84}, {"time": 2393, "pitch": 54, "duration": 3, "velocity": 97}, {"time": 2393, "pitch": 58, "duration": 4, "velocity": 108}, {"time": 2396, "pitch": 42, "duration": 4, "velocity": 82}, {"time": 2402, "pitch": 44, "duration": 14, "velocity": 105}, {"time": 2402, "pitch": 56, "duration": 9, "velocity": 89}, {"time": 2402, "pitch": 60, "duration": 6, "velocity": 92}, {"time": 2408, "pitch": 51, "duration": 8, "velocity": 49}, {"time": 2414, "pitch": 56, "duration": 6, "velocity": 108}, {"time": 2414, "pitch": 60, "duration": 6, "velocity": 117}, {"time": 2414, "pitch": 63, "duration": 6, "velocity": 102}, {"time": 2420, "pitch": 44, "duration": 5, "velocity": 97}, {"time": 2423, "pitch": 56, "duration": 4, "velocity": 92}, {"time": 2423, "pitch": 60, "duration": 4, "velocity": 100}, {"time": 2423, "pitch": 63, "duration": 4, "velocity": 84}, {"time": 2426, "pitch": 49, "duration": 16, "velocity": 105}, {"time": 2429, "pitch": 56, "duration": 3, "velocity": 108}, {"time": 2432, "pitch": 61, "duration": 4, "velocity": 92}, {"time": 2435, "pitch": 56, "duration": 2, "velocity": 92}, {"time": 2438, "pitch": 56, "duration": 6, "velocity": 114}, {"time": 2438, "pitch": 61, "duration": 7, "velocity": 114}, {"time": 2438, "pitch": 65, "duration": 7, "velocity": 114}, {"time": 2444, "pitch": 49, "duration": 4, "velocity": 100}, {"time": 2447, "pitch": 56, "duration": 2, "velocity": 102}, {"time": 2450, "pitch": 51, "duration": 15, "velocity": 117}, {"time": 2450, "pitch": 58, "duration": 3, "velocity": 114}, {"time": 2450, "pitch": 63, "duration": 6, "velocity": 97}, {"time": 2456, "pitch": 58, "duration": 3, "velocity": 94}, {"time": 2462, "pitch": 58, "duration": 6, "velocity": 111}, {"time": 2462, "pitch": 63, "duration": 7, "velocity": 114}, {"time": 2462, "pitch": 66, "duration": 10, "velocity": 111}, {"time": 2468, "pitch": 51, "duration": 4, "velocity": 73}, {"time": 2471, "pitch": 58, "duration": 4, "velocity": 105}, {"time": 2471, "pitch": 63, "duration": 1, "velocity": 26}, {"time": 2474, "pitch": 44, "duration": 16, "velocity": 105}, {"time": 2474, "pitch": 56, "duration": 6, "velocity": 94}, {"time": 2474, "pitch": 60, "duration": 6, "velocity": 102}, {"time": 2480, "pitch": 51, "duration": 4, "velocity": 67}, {"time": 2483, "pitch": 56, "duration": 4, "velocity": 102}, {"time": 2483, "pitch": 63, "duration": 4, "velocity": 102}, {"time": 2486, "pitch": 51, "duration": 4, "velocity": 80}, {"time": 2489, "pitch": 56, "duration": 3, "velocity": 102}, {"time": 2489, "pitch": 60, "duration": 3, "velocity": 111}, {"time": 2492, "pitch": 44, "duration": 5, "velocity": 64}, {"time": 2492, "pitch": 51, "duration": 2, "velocity": 71}, {"time": 2495, "pitch": 56, "duration": 2, "velocity": 100}, {"time": 2498, "pitch": 49, "duration": 11, "velocity": 100}, {"time": 2498, "pitch": 56, "duration": 3, "velocity": 100}, {"time": 2498, "pitch": 61, "duration": 6, "velocity": 102}, {"time": 2504, "pitch": 56, "duration": 1, "velocity": 69}, {"time": 2507, "pitch": 56, "duration": 4, "velocity": 114}, {"time": 2507, "pitch": 65, "duration": 4, "velocity": 111}, {"time": 2510, "pitch": 49, "duration": 5, "velocity": 87}, {"time": 2513, "pitch": 56, "duration": 2, "velocity": 117}, {"time": 2513, "pitch": 61, "duration": 6, "velocity": 114}, {"time": 2519, "pitch": 56, "duration": 1, "velocity": 73}, {"time": 2522, "pitch": 53, "duration": 14, "velocity": 120}, {"time": 2522, "pitch": 60, "duration": 4, "velocity": 111}, {"time": 2522, "pitch": 65, "duration": 4, "velocity": 97}, {"time": 2528, "pitch": 60, "duration": 1, "velocity": 102}, {"time": 2531, "pitch": 60, "duration": 1, "velocity": 114}, {"time": 2531, "pitch": 69, "duration": 1, "velocity": 105}, {"time": 2534, "pitch": 60, "duration": 3, "velocity": 114}, {"time": 2534, "pitch": 69, "duration": 3, "velocity": 116}, {"time": 2537, "pitch": 53, "duration": 4, "velocity": 100}, {"time": 2540, "pitch": 60, "duration": 2, "velocity": 114}, {"time": 2540, "pitch": 65, "duration": 4, "velocity": 105}, {"time": 2543, "pitch": 60, "duration": 2, "velocity": 94}, {"time": 2546, "pitch": 46, "duration": 20, "velocity": 100}, {"time": 2546, "pitch": 58, "duration": 7, "velocity": 97}, {"time": 2546, "pitch": 61, "duration": 6, "velocity": 102}, {"time": 2552, "pitch": 53, "duration": 7, "velocity": 60}, {"time": 2558, "pitch": 58, "duration": 3, "velocity": 114}, {"time": 2558, "pitch": 65, "duration": 3, "velocity": 114}, {"time": 2561, "pitch": 53, "duration": 5, "velocity": 92}, {"time": 2564, "pitch": 58, "duration": 4, "velocity": 111}, {"time": 2567, "pitch": 61, "duration": 2, "velocity": 100}, {"time": 2570, "pitch": 51, "duration": 13, "velocity": 94}, {"time": 2570, "pitch": 58, "duration": 8, "velocity": 94}, {"time": 2570, "pitch": 63, "duration": 8, "velocity": 102}, {"time": 2582, "pitch": 58, "duration": 2, "velocity": 117}, {"time": 2582, "pitch": 66, "duration": 2, "velocity": 111}, {"time": 2585, "pitch": 58, "duration": 1, "velocity": 97}, {"time": 2585, "pitch": 63, "duration": 3, "velocity": 105}, {"time": 2588, "pitch": 58, "duration": 5, "velocity": 97}, {"time": 2591, "pitch": 63, "duration": 2, "velocity": 64}, {"time": 2594, "pitch": 53, "duration": 20, "velocity": 111}, {"time": 2594, "pitch": 60, "duration": 3, "velocity": 105}, {"time": 2594, "pitch": 65, "duration": 6, "velocity": 92}, {"time": 2600, "pitch": 60, "duration": 1, "velocity": 76}, {"time": 2603, "pitch": 60, "duration": 3, "velocity": 111}, {"time": 2603, "pitch": 68, "duration": 3, "velocity": 105}, {"time": 2609, "pitch": 60, "duration": 2, "velocity": 94}, {"time": 2609, "pitch": 65, "duration": 3, "velocity": 97}, {"time": 2612, "pitch": 60, "duration": 4, "velocity": 102}, {"time": 2615, "pitch": 65, "duration": 2, "velocity": 80}, {"time": 2618, "pitch": 46, "duration": 20, "velocity": 100}, {"time": 2618, "pitch": 58, "duration": 4, "velocity": 102}, {"time": 2618, "pitch": 61, "duration": 5, "velocity": 111}, {"time": 2621, "pitch": 53, "duration": 7, "velocity": 60}, {"time": 2624, "pitch": 58, "duration": 1, "velocity": 92}, {"time": 2627, "pitch": 58, "duration": 3, "velocity": 108}, {"time": 2627, "pitch": 65, "duration": 3, "velocity": 105}, {"time": 2630, "pitch": 53, "duration": 6, "velocity": 84}, {"time": 2633, "pitch": 58, "duration": 2, "velocity": 114}, {"time": 2633, "pitch": 61, "duration": 3, "velocity": 108}, {"time": 2636, "pitch": 58, "duration": 2, "velocity": 97}, {"time": 2642, "pitch": 42, "duration": 18, "velocity": 100}, {"time": 2642, "pitch": 54, "duration": 3, "velocity": 84}, {"time": 2642, "pitch": 58, "duration": 3, "velocity": 97}, {"time": 2645, "pitch": 49, "duration": 7, "velocity": 60}, {"time": 2648, "pitch": 54, "duration": 7, "velocity": 82}, {"time": 2651, "pitch": 66, "duration": 5, "velocity": 111}, {"time": 2654, "pitch": 49, "duration": 6, "velocity": 69}, {"time": 2657, "pitch": 61, "duration": 6, "velocity": 108}, {"time": 2660, "pitch": 54, "duration": 3, "velocity": 100}, {"time": 2666, "pitch": 44, "duration": 7, "velocity": 102}, {"time": 2666, "pitch": 56, "duration": 7, "velocity": 108}, {"time": 2666, "pitch": 60, "duration": 6, "velocity": 108}, {"time": 2675, "pitch": 44, "duration": 8, "velocity": 105}, {"time": 2675, "pitch": 56, "duration": 7, "velocity": 89}, {"time": 2675, "pitch": 60, "duration": 7, "velocity": 108}, {"time": 2675, "pitch": 63, "duration": 7, "velocity": 94}, {"time": 2690, "pitch": 46, "duration": 4, "velocity": 108}, {"time": 2690, "pitch": 58, "duration": 3, "velocity": 100}, {"time": 2690, "pitch": 61, "duration": 3, "velocity": 92}, {"time": 2696, "pitch": 46, "duration": 3, "velocity": 100}, {"time": 2696, "pitch": 58, "duration": 3, "velocity": 82}, {"time": 2696, "pitch": 61, "duration": 2, "velocity": 87}, {"time": 2702, "pitch": 46, "duration": 3, "velocity": 105}, {"time": 2702, "pitch": 53, "duration": 3, "velocity": 100}, {"time": 2702, "pitch": 58, "duration": 3, "velocity": 89}, {"time": 2702, "pitch": 61, "duration": 3, "velocity": 94}, {"time": 2708, "pitch": 46, "duration": 3, "velocity": 97}, {"time": 2708, "pitch": 53, "duration": 3, "velocity": 92}, {"time": 2708, "pitch": 58, "duration": 3, "velocity": 84}, {"time": 2708, "pitch": 61, "duration": 3, "velocity": 84}, {"time": 2714, "pitch": 46, "duration": 3, "velocity": 102}, {"time": 2714, "pitch": 53, "duration": 3, "velocity": 100}, {"time": 2714, "pitch": 58, "duration": 3, "velocity": 92}, {"time": 2714, "pitch": 61, "duration": 2, "velocity": 92}, {"time": 2720, "pitch": 46, "duration": 3, "velocity": 105}, {"time": 2720, "pitch": 53, "duration": 3, "velocity": 108}, {"time": 2720, "pitch": 58, "duration": 3, "velocity": 108}, {"time": 2720, "pitch": 61, "duration": 3, "velocity": 111}, {"time": 2726, "pitch": 46, "duration": 11, "velocity": 111}, {"time": 2726, "pitch": 53, "duration": 2, "velocity": 97}, {"time": 2726, "pitch": 58, "duration": 4, "velocity": 114}, {"time": 2726, "pitch": 61, "duration": 4, "velocity": 120}, {"time": 2729, "pitch": 53, "duration": 8, "velocity": 111}, {"time": 2732, "pitch": 58, "duration": 2, "velocity": 120}, {"time": 2735, "pitch": 58, "duration": 2, "velocity": 94}, {"time": 2735, "pitch": 61, "duration": 2, "velocity": 102}, {"time": 2738, "pitch": 46, "duration": 25, "velocity": 102}, {"time": 2738, "pitch": 58, "duration": 24, "velocity": 102}, {"time": 2738, "pitch": 61, "duration": 24, "velocity": 105}, {"time": 2738, "pitch": 65, "duration": 24, "velocity": 87}, {"time": 2768, "pitch": 42, "duration": 3, "velocity": 108}, {"time": 2768, "pitch": 54, "duration": 3, "velocity": 114}, {"time": 2771, "pitch": 44, "duration": 4, "velocity": 100}, {"time": 2771, "pitch": 56, "duration": 4, "velocity": 97}, {"time": 2774, "pitch": 46, "duration": 5, "velocity": 120}, {"time": 2774, "pitch": 58, "duration": 6, "velocity": 117}, {"time": 2780, "pitch": 49, "duration": 5, "velocity": 123}, {"time": 2780, "pitch": 61, "duration": 5, "velocity": 117}, {"time": 2786, "pitch": 44, "duration": 21, "velocity": 102}, {"time": 2786, "pitch": 56, "duration": 18, "velocity": 102}, {"time": 2786, "pitch": 60, "duration": 17, "velocity": 111}, {"time": 2786, "pitch": 63, "duration": 18, "velocity": 105}, {"time": 2810, "pitch": 49, "duration": 9, "velocity": 120}, {"time": 2810, "pitch": 56, "duration": 8, "velocity": 105}, {"time": 2810, "pitch": 61, "duration": 8, "velocity": 89}, {"time": 2819, "pitch": 51, "duration": 7, "velocity": 114}, {"time": 2819, "pitch": 63, "duration": 8, "velocity": 114}, {"time": 2828, "pitch": 53, "duration": 6, "velocity": 117}, {"time": 2828, "pitch": 60, "duration": 5, "velocity": 102}, {"time": 2828, "pitch": 65, "duration": 5, "velocity": 102}, {"time": 2834, "pitch": 51, "duration": 15, "velocity": 117}, {"time": 2834, "pitch": 58, "duration": 3, "velocity": 114}, {"time": 2834, "pitch": 63, "duration": 6, "velocity": 97}, {"time": 2840, "pitch": 58, "duration": 3, "velocity": 94}, {"time": 2846, "pitch": 58, "duration": 6, "velocity": 111}, {"time": 2846, "pitch": 63, "duration": 7, "velocity": 114}, {"time": 2846, "pitch": 66, "duration": 10, "velocity": 111}, {"time": 2852, "pitch": 51, "duration": 4, "velocity": 73}, {"time": 2855, "pitch": 58, "duration": 4, "velocity": 105}, {"time": 2855, "pitch": 63, "duration": 1, "velocity": 26}, {"time": 2858, "pitch": 44, "duration": 16, "velocity": 105}, {"time": 2858, "pitch": 56, "duration": 6, "velocity": 94}, {"time": 2858, "pitch": 60, "duration": 6, "velocity": 102}, {"time": 2864, "pitch": 51, "duration": 4, "velocity": 67}, {"time": 2867, "pitch": 56, "duration": 4, "velocity": 102}, {"time": 2867, "pitch": 63, "duration": 4, "velocity": 102}, {"time": 2870, "pitch": 51, "duration": 4, "velocity": 80}, {"time": 2873, "pitch": 56, "duration": 3, "velocity": 102}, {"time": 2873, "pitch": 60, "duration": 3, "velocity": 111}, {"time": 2876, "pitch": 44, "duration": 5, "velocity": 64}, {"time": 2876, "pitch": 51, "duration": 2, "velocity": 71}, {"time": 2879, "pitch": 56, "duration": 2, "velocity": 100}, {"time": 2882, "pitch": 49, "duration": 11, "velocity": 100}, {"time": 2882, "pitch": 56, "duration": 3, "velocity": 100}, {"time": 2882, "pitch": 61, "duration": 6, "velocity": 102}, {"time": 2888, "pitch": 56, "duration": 1, "velocity": 69}, {"time": 2891, "pitch": 56, "duration": 4, "velocity": 114}, {"time": 2891, "pitch": 65, "duration": 4, "velocity": 111}, {"time": 2894, "pitch": 49, "duration": 5, "velocity": 87}, {"time": 2897, "pitch": 56, "duration": 2, "velocity": 117}, {"time": 2897, "pitch": 61, "duration": 6, "velocity": 114}, {"time": 2903, "pitch": 56, "duration": 1, "velocity": 73}, {"time": 2906, "pitch": 53, "duration": 14, "velocity": 120}, {"time": 2906, "pitch": 60, "duration": 4, "velocity": 111}, {"time": 2906, "pitch": 65, "duration": 4, "velocity": 97}, {"time": 2912, "pitch": 60, "duration": 1, "velocity": 102}, {"time": 2915, "pitch": 60, "duration": 1, "velocity": 114}, {"time": 2915, "pitch": 69, "duration": 1, "velocity": 105}, {"time": 2918, "pitch": 60, "duration": 3, "velocity": 114}, {"time": 2918, "pitch": 69, "duration": 3, "velocity": 116}, {"time": 2921, "pitch": 53, "duration": 4, "velocity": 100}, {"time": 2924, "pitch": 60, "duration": 2, "velocity": 114}, {"time": 2924, "pitch": 65, "duration": 4, "velocity": 105}, {"time": 2927, "pitch": 60, "duration": 2, "velocity": 94}, {"time": 2930, "pitch": 46, "duration": 20, "velocity": 100}, {"time": 2930, "pitch": 58, "duration": 7, "velocity": 97}, {"time": 2930, "pitch": 61, "duration": 6, "velocity": 102}, {"time": 2936, "pitch": 53, "duration": 7, "velocity": 60}, {"time": 2942, "pitch": 58, "duration": 3, "velocity": 114}, {"time": 2942, "pitch": 65, "duration": 3, "velocity": 114}, {"time": 2945, "pitch": 53, "duration": 5, "velocity": 92}, {"time": 2948, "pitch": 58, "duration": 4, "velocity": 111}, {"time": 2951, "pitch": 61, "duration": 2, "velocity": 100}, {"time": 2954, "pitch": 51, "duration": 13, "velocity": 94}, {"time": 2954, "pitch": 58, "duration": 8, "velocity": 94}, {"time": 2954, "pitch": 63, "duration": 8, "velocity": 102}, {"time": 2966, "pitch": 58, "duration": 2, "velocity": 117}, {"time": 2966, "pitch": 66, "duration": 2, "velocity": 111}, {"time": 2969, "pitch": 58, "duration": 1, "velocity": 97}, {"time": 2969, "pitch": 63, "duration": 3, "velocity": 105}, {"time": 2972, "pitch": 58, "duration": 5, "velocity": 97}, {"time": 2975, "pitch": 63, "duration": 2, "velocity": 64}, {"time": 2978, "pitch": 53, "duration": 20, "velocity": 111}, {"time": 2978, "pitch": 60, "duration": 3, "velocity": 105}, {"time": 2978, "pitch": 65, "duration": 6, "velocity": 92}, {"time": 2984, "pitch": 60, "duration": 1, "velocity": 76}, {"time": 2987, "pitch": 60, "duration": 3, "velocity": 111}, {"time": 2987, "pitch": 68, "duration": 3, "velocity": 105}, {"time": 2993, "pitch": 60, "duration": 2, "velocity": 94}, {"time": 2993, "pitch": 65, "duration": 3, "velocity": 97}, {"time": 2996, "pitch": 60, "duration": 4, "velocity": 102}, {"time": 2999, "pitch": 65, "duration": 2, "velocity": 80}, {"time": 3002, "pitch": 46, "duration": 20, "velocity": 100}, {"time": 3002, "pitch": 58, "duration": 4, "velocity": 102}, {"time": 3002, "pitch": 61, "duration": 5, "velocity": 111}, {"time": 3005, "pitch": 53, "duration": 7, "velocity": 60}, {"time": 3008, "pitch": 58, "duration": 1, "velocity": 92}, {"time": 3011, "pitch": 58, "duration": 3, "velocity": 108}, {"time": 3011, "pitch": 65, "duration": 3, "velocity": 105}, {"time": 3014, "pitch": 53, "duration": 6, "velocity": 84}, {"time": 3017, "pitch": 58, "duration": 2, "velocity": 114}, {"time": 3017, "pitch": 61, "duration": 3, "velocity": 108}, {"time": 3020, "pitch": 58, "duration": 2, "velocity": 97}, {"time": 3026, "pitch": 42, "duration": 18, "velocity": 100}, {"time": 3026, "pitch": 54, "duration": 3, "velocity": 84}, {"time": 3026, "pitch": 58, "duration": 3, "velocity": 97}, {"time": 3029, "pitch": 49, "duration": 7, "velocity": 60}, {"time": 3032, "pitch": 54, "duration": 7, "velocity": 82}, {"time": 3035, "pitch": 66, "duration": 5, "velocity": 111}, {"time": 3038, "pitch": 49, "duration": 6, "velocity": 69}, {"time": 3041, "pitch": 61, "duration": 6, "velocity": 108}, {"time": 3044, "pitch": 54, "duration": 3, "velocity": 100}, {"time": 3050, "pitch": 44, "duration": 7, "velocity": 102}, {"time": 3050, "pitch": 56, "duration": 7, "velocity": 108}, {"time": 3050, "pitch": 60, "duration": 6, "velocity": 108}, {"time": 3059, "pitch": 44, "duration": 8, "velocity": 105}, {"time": 3059, "pitch": 56, "duration": 7, "velocity": 89}, {"time": 3059, "pitch": 60, "duration": 7, "velocity": 108}, {"time": 3059, "pitch": 63, "duration": 7, "velocity": 94}, {"time": 3074, "pitch": 46, "duration": 38, "velocity": 92}, {"time": 3074, "pitch": 58, "duration": 7, "velocity": 89}, {"time": 3074, "pitch": 61, "duration": 8, "velocity": 87}, {"time": 3080, "pitch": 53, "duration": 8, "velocity": 50}, {"time": 3086, "pitch": 58, "duration": 11, "velocity": 108}, {"time": 3092, "pitch": 53, "duration": 10, "velocity": 49}, {"time": 3098, "pitch": 61, "duration": 21, "velocity": 80}, {"time": 3098, "pitch": 65, "duration": 21, "velocity": 82}, {"time": 3122, "pitch": 58, "duration": 19, "velocity": 106}, {"time": 3122, "pitch": 61, "duration": 22, "velocity": 104}, {"time": 3122, "pitch": 42, "duration": 21, "velocity": 109}, {"time": 3122, "pitch": 54, "duration": 19, "velocity": 101}, {"time": 3146, "pitch": 44, "duration": 50, "velocity": 101}, {"time": 3146, "pitch": 60, "duration": 31, "velocity": 106}, {"time": 3146, "pitch": 56, "duration": 24, "velocity": 96}, {"time": 3151, "pitch": 51, "duration": 12, "velocity": 76}, {"time": 3156, "pitch": 63, "duration": 22, "velocity": 106}, {"time": 3161, "pitch": 68, "duration": 16, "velocity": 80}, {"time": 3166, "pitch": 51, "duration": 10, "velocity": 36}, {"time": 3181, "pitch": 51, "duration": 14, "velocity": 38}, {"time": 3182, "pitch": 56, "duration": 30, "velocity": 35}, {"time": 3183, "pitch": 60, "duration": 29, "velocity": 80}, {"time": 3185, "pitch": 68, "duration": 27, "velocity": 54}, {"time": 3218, "pitch": 46, "duration": 41, "velocity": 104}, {"time": 3218, "pitch": 58, "duration": 14, "velocity": 101}, {"time": 3218, "pitch": 61, "duration": 10, "velocity": 91}, {"time": 3224, "pitch": 53, "duration": 8, "velocity": 64}, {"time": 3230, "pitch": 61, "duration": 18, "velocity": 89}, {"time": 3230, "pitch": 65, "duration": 19, "velocity": 101}, {"time": 3236, "pitch": 53, "duration": 9, "velocity": 80}, {"time": 3248, "pitch": 53, "duration": 11, "velocity": 45}, {"time": 3254, "pitch": 61, "duration": 6, "velocity": 104}, {"time": 3254, "pitch": 65, "duration": 6, "velocity": 101}, {"time": 3260, "pitch": 58, "duration": 4, "velocity": 106}, {"time": 3266, "pitch": 44, "duration": 41, "velocity": 101}, {"time": 3266, "pitch": 56, "duration": 25, "velocity": 94}, {"time": 3266, "pitch": 60, "duration": 31, "velocity": 91}, {"time": 3272, "pitch": 51, "duration": 9, "velocity": 61}, {"time": 3278, "pitch": 63, "duration": 18, "velocity": 101}, {"time": 3284, "pitch": 51, "duration": 22, "velocity": 69}, {"time": 3296, "pitch": 56, "duration": 6, "velocity": 73}, {"time": 3302, "pitch": 60, "duration": 6, "velocity": 106}, {"time": 3302, "pitch": 63, "duration": 7, "velocity": 106}, {"time": 3314, "pitch": 42, "duration": 18, "velocity": 101}, {"time": 3314, "pitch": 54, "duration": 13, "velocity": 96}, {"time": 3314, "pitch": 58, "duration": 10, "velocity": 99}, {"time": 3326, "pitch": 58, "duration": 7, "velocity": 101}, {"time": 3326, "pitch": 61, "duration": 10, "velocity": 94}, {"time": 3338, "pitch": 44, "duration": 16, "velocity": 94}, {"time": 3338, "pitch": 56, "duration": 12, "velocity": 85}, {"time": 3338, "pitch": 60, "duration": 8, "velocity": 91}, {"time": 3344, "pitch": 51, "duration": 10, "velocity": 67}, {"time": 3350, "pitch": 60, "duration": 5, "velocity": 101}, {"time": 3350, "pitch": 63, "duration": 6, "velocity": 104}, {"time": 3362, "pitch": 46, "duration": 45, "velocity": 101}, {"time": 3362, "pitch": 58, "duration": 13, "velocity": 76}, {"time": 3362, "pitch": 61, "duration": 9, "velocity": 87}, {"time": 3368, "pitch": 53, "duration": 7, "velocity": 58}, {"time": 3374, "pitch": 65, "duration": 6, "velocity": 94}, {"time": 3380, "pitch": 53, "duration": 7, "velocity": 71}, {"time": 3386, "pitch": 58, "duration": 19, "velocity": 74}, {"time": 3386, "pitch": 61, "duration": 7, "velocity": 87}, {"time": 3392, "pitch": 53, "duration": 14, "velocity": 46}, {"time": 3409, "pitch": 46, "duration": 47, "velocity": 85}, {"time": 3411, "pitch": 58, "duration": 49, "velocity": 36}, {"time": 3411, "pitch": 61, "duration": 49, "velocity": 80}, {"time": 3413, "pitch": 65, "duration": 47, "velocity": 32}, {"time": 3414, "pitch": 70, "duration": 46, "velocity": 87}], "annotations": [{"time": 86, "annotation": {"number": 64, "value": 127}, "group": "control_change"}, {"time": 97, "annotation": {"number": 64, "value": 0}, "group": "control_change"}, {"time": 108, "annotation": {"number": 64, "value": 127}, "group": "control_change"}, {"time": 145, "annotation": {"number": 64, "value": 0}, "group": "control_change"}, {"time": 160, "annotation": {"number": 64, "value": 127}, "group": "control_change"}, {"time": 170, "annotation": {"number": 64, "value": 0}, "group": "control_change"}, {"time": 233, "annotation": {"number": 64, "value": 127}, "group": "control_change"}, {"time": 241, "annotation": {"number": 64, "value": 0}, "group": "control_change"}, {"time": 253, "annotation": {"number": 64, "value": 127}, "group": "control_change"}, {"time": 287, "annotation": {"number": 64, "value": 0}, "group": "control_change"}, {"time": 310, "annotation": {"number": 64, "value": 127}, "group": "control_change"}, {"time": 310, "annotation": {"number": 64, "value": 0}, "group": "control_change"}, {"time": 311, "annotation": {"number": 64, "value": 127}, "group": "control_change"}, {"time": 336, "annotation": {"number": 64, "value": 0}, "group": "control_change"}, {"time": 341, "annotation": {"number": 64, "value": 127}, "group": "control_change"}, {"time": 362, "annotation": {"number": 64, "value": 0}, "group": "control_change"}, {"time": 370, "annotation": {"number": 64, "value": 127}, "group": "control_change"}, {"time": 385, "annotation": {"number": 64, "value": 0}, "group": "control_change"}, {"time": 395, "annotation": {"number": 64, "value": 127}, "group": "control_change"}, {"time": 432, "annotation": {"number": 64, "value": 0}, "group": "control_change"}, {"time": 441, "annotation": {"number": 64, "value": 127}, "group": "control_change"}, {"time": 481, "annotation": {"number": 64, "value": 0}, "group": "control_change"}, {"time": 492, "annotation": {"number": 64, "value": 127}, "group": "control_change"}, {"time": 507, "annotation": {"number": 64, "value": 0}, "group": "control_change"}, {"time": 517, "annotation": {"number": 64, "value": 127}, "group": "control_change"}, {"time": 528, "annotation": {"number": 64, "value": 0}, "group": "control_change"}, {"time": 535, "annotation": {"number": 64, "value": 127}, "group": "control_change"}, {"time": 578, "annotation": {"number": 64, "value": 0}, "group": "control_change"}, {"time": 581, "annotation": {"number": 64, "value": 127}, "group": "control_change"}, {"time": 625, "annotation": {"number": 64, "value": 0}, "group": "control_change"}, {"time": 632, "annotation": {"number": 64, "value": 127}, "group": "control_change"}, {"time": 649, "annotation": {"number": 64, "value": 0}, "group": "control_change"}, {"time": 656, "annotation": {"number": 64, "value": 127}, "group": "control_change"}, {"time": 673, "annotation": {"number": 64, "value": 0}, "group": "control_change"}, {"time": 680, "annotation": {"number": 64, "value": 127}, "group": "control_change"}, {"time": 697, "annotation": {"number": 64, "value": 0}, "group": "control_change"}, {"time": 704, "annotation": {"number": 64, "value": 127}, "group": "control_change"}, {"time": 721, "annotation": {"number": 64, "value": 0}, "group": "control_change"}, {"time": 728, "annotation": {"number": 64, "value": 127}, "group": "control_change"}, {"time": 746, "annotation": {"number": 64, "value": 0}, "group": "control_change"}, {"time": 756, "annotation": {"number": 64, "value": 127}, "group": "control_change"}, {"time": 767, "annotation": {"number": 64, "value": 0}, "group": "control_change"}, {"time": 775, "annotation": {"number": 64, "value": 127}, "group": "control_change"}, {"time": 816, "annotation": {"number": 64, "value": 0}, "group": "control_change"}, {"time": 824, "annotation": {"number": 64, "value": 127}, "group": "control_change"}, {"time": 866, "annotation": {"number": 64, "value": 0}, "group": "control_change"}, {"time": 872, "annotation": {"number": 64, "value": 127}, "group": "control_change"}, {"time": 891, "annotation": {"number": 64, "value": 0}, "group": "control_change"}, {"time": 896, "annotation": {"number": 64, "value": 127}, "group": "control_change"}, {"time": 913, "annotation": {"number": 64, "value": 0}, "group": "control_change"}, {"time": 917, "annotation": {"number": 64, "value": 127}, "group": "control_change"}, {"time": 941, "annotation": {"number": 64, "value": 0}, "group": "control_change"}, {"time": 943, "annotation": {"number": 64, "value": 127}, "group": "control_change"}, {"time": 960, "annotation": {"number": 64, "value": 0}, "group": "control_change"}, {"time": 963, "annotation": {"number": 64, "value": 127}, "group": "control_change"}, {"time": 1009, "annotation": {"number": 64, "value": 0}, "group": "control_change"}, {"time": 1013, "annotation": {"number": 64, "value": 127}, "group": "control_change"}, {"time": 1033, "annotation": {"number": 64, "value": 0}, "group": "control_change"}, {"time": 1037, "annotation": {"number": 64, "value": 127}, "group": "control_change"}, {"time": 1059, "annotation": {"number": 64, "value": 127}, "group": "control_change"}, {"time": 1082, "annotation": {"number": 64, "value": 0}, "group": "control_change"}, {"time": 1087, "annotation": {"number": 64, "value": 127}, "group": "control_change"}, {"time": 1103, "annotation": {"number": 64, "value": 0}, "group": "control_change"}, {"time": 1107, "annotation": {"number": 64, "value": 127}, "group": "control_change"}, {"time": 1129, "annotation": {"number": 64, "value": 0}, "group": "control_change"}, {"time": 1135, "annotation": {"number": 64, "value": 127}, "group": "control_change"}, {"time": 1152, "annotation": {"number": 64, "value": 0}, "group": "control_change"}, {"time": 1158, "annotation": {"number": 64, "value": 127}, "group": "control_change"}, {"time": 1201, "annotation": {"number": 64, "value": 0}, "group": "control_change"}, {"time": 1205, "annotation": {"number": 64, "value": 127}, "group": "control_change"}, {"time": 1225, "annotation": {"number": 64, "value": 0}, "group": "control_change"}, {"time": 1228, "annotation": {"number": 64, "value": 127}, "group": "control_change"}, {"time": 1249, "annotation": {"number": 64, "value": 0}, "group": "control_change"}, {"time": 1252, "annotation": {"number": 64, "value": 127}, "group": "control_change"}, {"time": 1273, "annotation": {"number": 64, "value": 0}, "group": "control_change"}, {"time": 1275, "annotation": {"number": 64, "value": 127}, "group": "control_change"}, {"time": 1297, "annotation": {"number": 64, "value": 0}, "group": "control_change"}, {"time": 1300, "annotation": {"number": 64, "value": 127}, "group": "control_change"}, {"time": 1324, "annotation": {"number": 64, "value": 127}, "group": "control_change"}, {"time": 1344, "annotation": {"number": 64, "value": 0}, "group": "control_change"}, {"time": 1348, "annotation": {"number": 64, "value": 127}, "group": "control_change"}, {"time": 1369, "annotation": {"number": 64, "value": 0}, "group": "control_change"}, {"time": 1371, "annotation": {"number": 64, "value": 127}, "group": "control_change"}, {"time": 1394, "annotation": {"number": 64, "value": 0}, "group": "control_change"}, {"time": 1399, "annotation": {"number": 64, "value": 127}, "group": "control_change"}, {"time": 1418, "annotation": {"number": 64, "value": 0}, "group": "control_change"}, {"time": 1424, "annotation": {"number": 64, "value": 127}, "group": "control_change"}, {"time": 1444, "annotation": {"number": 64, "value": 127}, "group": "control_change"}, {"time": 1466, "annotation": {"number": 64, "value": 0}, "group": "control_change"}, {"time": 1470, "annotation": {"number": 64, "value": 127}, "group": "control_change"}, {"time": 1490, "annotation": {"number": 64, "value": 0}, "group": "control_change"}, {"time": 1493, "annotation": {"number": 64, "value": 127}, "group": "control_change"}, {"time": 1514, "annotation": {"number": 64, "value": 0}, "group": "control_change"}, {"time": 1516, "annotation": {"number": 64, "value": 127}, "group": "control_change"}, {"time": 1523, "annotation": {"number": 64, "value": 0}, "group": "control_change"}, {"time": 1577, "annotation": {"number": 64, "value": 127}, "group": "control_change"}, {"time": 1585, "annotation": {"number": 64, "value": 0}, "group": "control_change"}, {"time": 1591, "annotation": {"number": 64, "value": 127}, "group": "control_change"}, {"time": 1621, "annotation": {"number": 64, "value": 0}, "group": "control_change"}, {"time": 1623, "annotation": {"number": 64, "value": 127}, "group": "control_change"}, {"time": 1633, "annotation": {"number": 64, "value": 0}, "group": "control_change"}, {"time": 1637, "annotation": {"number": 64, "value": 127}, "group": "control_change"}, {"time": 1655, "annotation": {"number": 64, "value": 0}, "group": "control_change"}, {"time": 1659, "annotation": {"number": 64, "value": 127}, "group": "control_change"}, {"time": 1681, "annotation": {"number": 64, "value": 0}, "group": "control_change"}, {"time": 1684, "annotation": {"number": 64, "value": 127}, "group": "control_change"}, {"time": 1706, "annotation": {"number": 64, "value": 0}, "group": "control_change"}, {"time": 1708, "annotation": {"number": 64, "value": 127}, "group": "control_change"}, {"time": 1729, "annotation": {"number": 64, "value": 0}, "group": "control_change"}, {"time": 1755, "annotation": {"number": 64, "value": 127}, "group": "control_change"}, {"time": 1778, "annotation": {"number": 64, "value": 0}, "group": "control_change"}, {"time": 1783, "annotation": {"number": 64, "value": 127}, "group": "control_change"}, {"time": 1801, "annotation": {"number": 64, "value": 0}, "group": "control_change"}, {"time": 1804, "annotation": {"number": 64, "value": 127}, "group": "control_change"}, {"time": 1825, "annotation": {"number": 64, "value": 0}, "group": "control_change"}, {"time": 1828, "annotation": {"number": 64, "value": 127}, "group": "control_change"}, {"time": 1850, "annotation": {"number": 64, "value": 0}, "group": "control_change"}, {"time": 1852, "annotation": {"number": 64, "value": 127}, "group": "control_change"}, {"time": 1873, "annotation": {"number": 64, "value": 0}, "group": "control_change"}, {"time": 1875, "annotation": {"number": 64, "value": 127}, "group": "control_change"}, {"time": 1897, "annotation": {"number": 64, "value": 0}, "group": "control_change"}, {"time": 1900, "annotation": {"number": 64, "value": 127}, "group": "control_change"}, {"time": 1922, "annotation": {"number": 64, "value": 0}, "group": "control_change"}, {"time": 1929, "annotation": {"number": 64, "value": 127}, "group": "control_change"}, {"time": 1969, "annotation": {"number": 64, "value": 0}, "group": "control_change"}, {"time": 1976, "annotation": {"number": 64, "value": 127}, "group": "control_change"}, {"time": 2018, "annotation": {"number": 64, "value": 0}, "group": "control_change"}, {"time": 2024, "annotation": {"number": 64, "value": 127}, "group": "control_change"}, {"time": 2043, "annotation": {"number": 64, "value": 0}, "group": "control_change"}, {"time": 2048, "annotation": {"number": 64, "value": 127}, "group": "control_change"}, {"time": 2065, "annotation": {"number": 64, "value": 0}, "group": "control_change"}, {"time": 2069, "annotation": {"number": 64, "value": 127}, "group": "control_change"}, {"time": 2093, "annotation": {"number": 64, "value": 0}, "group": "control_change"}, {"time": 2095, "annotation": {"number": 64, "value": 127}, "group": "control_change"}, {"time": 2112, "annotation": {"number": 64, "value": 0}, "group": "control_change"}, {"time": 2115, "annotation": {"number": 64, "value": 127}, "group": "control_change"}, {"time": 2161, "annotation": {"number": 64, "value": 0}, "group": "control_change"}, {"time": 2165, "annotation": {"number": 64, "value": 127}, "group": "control_change"}, {"time": 2185, "annotation": {"number": 64, "value": 0}, "group": "control_change"}, {"time": 2189, "annotation": {"number": 64, "value": 127}, "group": "control_change"}, {"time": 2211, "annotation": {"number": 64, "value": 127}, "group": "control_change"}, {"time": 2234, "annotation": {"number": 64, "value": 0}, "group": "control_change"}, {"time": 2239, "annotation": {"number": 64, "value": 127}, "group": "control_change"}, {"time": 2255, "annotation": {"number": 64, "value": 0}, "group": "control_change"}, {"time": 2259, "annotation": {"number": 64, "value": 127}, "group": "control_change"}, {"time": 2281, "annotation": {"number": 64, "value": 0}, "group": "control_change"}, {"time": 2287, "annotation": {"number": 64, "value": 127}, "group": "control_change"}, {"time": 2304, "annotation": {"number": 64, "value": 0}, "group": "control_change"}, {"time": 2310, "annotation": {"number": 64, "value": 127}, "group": "control_change"}, {"time": 2353, "annotation": {"number": 64, "value": 0}, "group": "control_change"}, {"time": 2357, "annotation": {"number": 64, "value": 127}, "group": "control_change"}, {"time": 2377, "annotation": {"number": 64, "value": 0}, "group": "control_change"}, {"time": 2380, "annotation": {"number": 64, "value": 127}, "group": "control_change"}, {"time": 2401, "annotation": {"number": 64, "value": 0}, "group": "control_change"}, {"time": 2404, "annotation": {"number": 64, "value": 127}, "group": "control_change"}, {"time": 2425, "annotation": {"number": 64, "value": 0}, "group": "control_change"}, {"time": 2427, "annotation": {"number": 64, "value": 127}, "group": "control_change"}, {"time": 2449, "annotation": {"number": 64, "value": 0}, "group": "control_change"}, {"time": 2452, "annotation": {"number": 64, "value": 127}, "group": "control_change"}, {"time": 2476, "annotation": {"number": 64, "value": 127}, "group": "control_change"}, {"time": 2496, "annotation": {"number": 64, "value": 0}, "group": "control_change"}, {"time": 2500, "annotation": {"number": 64, "value": 127}, "group": "control_change"}, {"time": 2521, "annotation": {"number": 64, "value": 0}, "group": "control_change"}, {"time": 2523, "annotation": {"number": 64, "value": 127}, "group": "control_change"}, {"time": 2546, "annotation": {"number": 64, "value": 0}, "group": "control_change"}, {"time": 2551, "annotation": {"number": 64, "value": 127}, "group": "control_change"}, {"time": 2570, "annotation": {"number": 64, "value": 0}, "group": "control_change"}, {"time": 2576, "annotation": {"number": 64, "value": 127}, "group": "control_change"}, {"time": 2596, "annotation": {"number": 64, "value": 127}, "group": "control_change"}, {"time": 2618, "annotation": {"number": 64, "value": 0}, "group": "control_change"}, {"time": 2622, "annotation": {"number": 64, "value": 127}, "group": "control_change"}, {"time": 2642, "annotation": {"number": 64, "value": 0}, "group": "control_change"}, {"time": 2645, "annotation": {"number": 64, "value": 127}, "group": "control_change"}, {"time": 2666, "annotation": {"number": 64, "value": 0}, "group": "control_change"}, {"time": 2668, "annotation": {"number": 64, "value": 127}, "group": "control_change"}, {"time": 2675, "annotation": {"number": 64, "value": 0}, "group": "control_change"}, {"time": 2729, "annotation": {"number": 64, "value": 127}, "group": "control_change"}, {"time": 2737, "annotation": {"number": 64, "value": 0}, "group": "control_change"}, {"time": 2787, "annotation": {"number": 64, "value": 127}, "group": "control_change"}, {"time": 2808, "annotation": {"number": 64, "value": 0}, "group": "control_change"}, {"time": 2836, "annotation": {"number": 64, "value": 127}, "group": "control_change"}, {"time": 2860, "annotation": {"number": 64, "value": 127}, "group": "control_change"}, {"time": 2880, "annotation": {"number": 64, "value": 0}, "group": "control_change"}, {"time": 2884, "annotation": {"number": 64, "value": 127}, "group": "control_change"}, {"time": 2905, "annotation": {"number": 64, "value": 0}, "group": "control_change"}, {"time": 2907, "annotation": {"number": 64, "value": 127}, "group": "control_change"}, {"time": 2930, "annotation": {"number": 64, "value": 0}, "group": "control_change"}, {"time": 2935, "annotation": {"number": 64, "value": 127}, "group": "control_change"}, {"time": 2954, "annotation": {"number": 64, "value": 0}, "group": "control_change"}, {"time": 2960, "annotation": {"number": 64, "value": 127}, "group": "control_change"}, {"time": 2980, "annotation": {"number": 64, "value": 127}, "group": "control_change"}, {"time": 3002, "annotation": {"number": 64, "value": 0}, "group": "control_change"}, {"time": 3006, "annotation": {"number": 64, "value": 127}, "group": "control_change"}, {"time": 3026, "annotation": {"number": 64, "value": 0}, "group": "control_change"}, {"time": 3029, "annotation": {"number": 64, "value": 127}, "group": "control_change"}, {"time": 3050, "annotation": {"number": 64, "value": 0}, "group": "control_change"}, {"time": 3052, "annotation": {"number": 64, "value": 127}, "group": "control_change"}, {"time": 3059, "annotation": {"number": 64, "value": 0}, "group": "control_change"}, {"time": 3075, "annotation": {"number": 64, "value": 127}, "group": "control_change"}, {"time": 3164, "annotation": {"number": 64, "value": 127}, "group": "control_change"}, {"time": 3165, "annotation": {"number": 64, "value": 0}, "group": "control_change"}, {"time": 3165, "annotation": {"number": 64, "value": 127}, "group": "control_change"}, {"time": 3212, "annotation": {"number": 64, "value": 0}, "group": "control_change"}, {"time": 3229, "annotation": {"number": 64, "value": 127}, "group": "control_change"}, {"time": 3263, "annotation": {"number": 64, "value": 0}, "group": "control_change"}, {"time": 3286, "annotation": {"number": 64, "value": 127}, "group": "control_change"}, {"time": 3286, "annotation": {"number": 64, "value": 0}, "group": "control_change"}, {"time": 3287, "annotation": {"number": 64, "value": 127}, "group": "control_change"}, {"time": 3312, "annotation": {"number": 64, "value": 0}, "group": "control_change"}, {"time": 3317, "annotation": {"number": 64, "value": 127}, "group": "control_change"}, {"time": 3338, "annotation": {"number": 64, "value": 0}, "group": "control_change"}, {"time": 3346, "annotation": {"number": 64, "value": 127}, "group": "control_change"}, {"time": 3361, "annotation": {"number": 64, "value": 0}, "group": "control_change"}, {"time": 3371, "annotation": {"number": 64, "value": 127}, "group": "control_change"}, {"time": 3408, "annotation": {"number": 64, "value": 0}, "group": "control_change"}]}]}