{"metadata": {"schema_version": "0.2", "title": "None", "source_filename": "123.mid", "source_format": "midi"}, "resolution": 12, "tempos": [{"time": 0, "qpm": 70.00007000007}, {"time": 2494, "qpm": 67.00002903334591}, {"time": 2521, "qpm": 65.00013541694878}, {"time": 2550, "qpm": 70.00007000007}], "time_signatures": [{"time": 0, "numerator": 1, "denominator": 4}], "tracks": [{"program": 4, "is_drum": false, "name": "MELODY", "notes": [{"time": 474, "pitch": 62, "duration": 16, "velocity": 110}, {"time": 495, "pitch": 62, "duration": 3, "velocity": 101}, {"time": 498, "pitch": 63, "duration": 5, "velocity": 109}, {"time": 504, "pitch": 62, "duration": 5, "velocity": 117}, {"time": 510, "pitch": 60, "duration": 10, "velocity": 112}, {"time": 522, "pitch": 58, "duration": 5, "velocity": 109}, {"time": 528, "pitch": 65, "duration": 21, "velocity": 106}, {"time": 552, "pitch": 65, "duration": 5, "velocity": 112}, {"time": 558, "pitch": 67, "duration": 4, "velocity": 120}, {"time": 564, "pitch": 69, "duration": 4, "velocity": 113}, {"time": 570, "pitch": 70, "duration": 17, "velocity": 106}, {"time": 591, "pitch": 69, "duration": 2, "velocity": 107}, {"time": 594, "pitch": 70, "duration": 5, "velocity": 99}, {"time": 600, "pitch": 69, "duration": 4, "velocity": 120}, {"time": 606, "pitch": 67, "duration": 10, "velocity": 117}, {"time": 618, "pitch": 65, "duration": 4, "velocity": 106}, {"time": 624, "pitch": 65, "duration": 20, "velocity": 106}, {"time": 648, "pitch": 65, "duration": 4, "velocity": 109}, {"time": 654, "pitch": 65, "duration": 4, "velocity": 112}, {"time": 660, "pitch": 70, "duration": 4, "velocity": 106}, {"time": 666, "pitch": 70, "duration": 5, "velocity": 115}, {"time": 672, "pitch": 63, "duration": 9, "velocity": 115}, {"time": 684, "pitch": 63, "duration": 4, "velocity": 106}, {"time": 690, "pitch": 63, "duration": 5, "velocity": 112}, {"time": 696, "pitch": 62, "duration": 4, "velocity": 117}, {"time": 702, "pitch": 60, "duration": 4, "velocity": 112}, {"time": 708, "pitch": 63, "duration": 5, "velocity": 112}, {"time": 714, "pitch": 62, "duration": 13, "velocity": 117}, {"time": 732, "pitch": 60, "duration": 4, "velocity": 115}, {"time": 738, "pitch": 58, "duration": 4, "velocity": 115}, {"time": 744, "pitch": 58, "duration": 4, "velocity": 112}, {"time": 750, "pitch": 60, "duration": 4, "velocity": 112}, {"time": 756, "pitch": 62, "duration": 4, "velocity": 110}, {"time": 762, "pitch": 62, "duration": 5, "velocity": 117}, {"time": 768, "pitch": 63, "duration": 2, "velocity": 106}, {"time": 771, "pitch": 63, "duration": 12, "velocity": 109}, {"time": 786, "pitch": 63, "duration": 5, "velocity": 106}, {"time": 792, "pitch": 62, "duration": 5, "velocity": 120}, {"time": 798, "pitch": 60, "duration": 6, "velocity": 112}, {"time": 804, "pitch": 58, "duration": 5, "velocity": 115}, {"time": 810, "pitch": 60, "duration": 34, "velocity": 109}, {"time": 858, "pitch": 62, "duration": 16, "velocity": 110}, {"time": 879, "pitch": 62, "duration": 3, "velocity": 101}, {"time": 882, "pitch": 63, "duration": 5, "velocity": 109}, {"time": 888, "pitch": 62, "duration": 5, "velocity": 117}, {"time": 894, "pitch": 60, "duration": 10, "velocity": 112}, {"time": 906, "pitch": 58, "duration": 5, "velocity": 109}, {"time": 912, "pitch": 65, "duration": 21, "velocity": 106}, {"time": 936, "pitch": 65, "duration": 5, "velocity": 112}, {"time": 942, "pitch": 67, "duration": 4, "velocity": 120}, {"time": 948, "pitch": 69, "duration": 4, "velocity": 113}, {"time": 954, "pitch": 70, "duration": 17, "velocity": 106}, {"time": 975, "pitch": 69, "duration": 2, "velocity": 107}, {"time": 978, "pitch": 70, "duration": 5, "velocity": 99}, {"time": 984, "pitch": 69, "duration": 4, "velocity": 120}, {"time": 990, "pitch": 67, "duration": 10, "velocity": 117}, {"time": 1002, "pitch": 65, "duration": 4, "velocity": 106}, {"time": 1008, "pitch": 65, "duration": 20, "velocity": 106}, {"time": 1032, "pitch": 65, "duration": 4, "velocity": 109}, {"time": 1038, "pitch": 65, "duration": 4, "velocity": 112}, {"time": 1044, "pitch": 70, "duration": 4, "velocity": 106}, {"time": 1050, "pitch": 70, "duration": 5, "velocity": 115}, {"time": 1056, "pitch": 63, "duration": 9, "velocity": 115}, {"time": 1068, "pitch": 63, "duration": 4, "velocity": 106}, {"time": 1074, "pitch": 63, "duration": 5, "velocity": 112}, {"time": 1080, "pitch": 62, "duration": 4, "velocity": 117}, {"time": 1086, "pitch": 60, "duration": 4, "velocity": 112}, {"time": 1092, "pitch": 63, "duration": 5, "velocity": 112}, {"time": 1098, "pitch": 62, "duration": 5, "velocity": 117}, {"time": 1104, "pitch": 65, "duration": 5, "velocity": 115}, {"time": 1110, "pitch": 72, "duration": 10, "velocity": 118}, {"time": 1122, "pitch": 70, "duration": 14, "velocity": 115}, {"time": 1140, "pitch": 65, "duration": 2, "velocity": 109}, {"time": 1143, "pitch": 65, "duration": 2, "velocity": 106}, {"time": 1146, "pitch": 65, "duration": 5, "velocity": 112}, {"time": 1152, "pitch": 63, "duration": 2, "velocity": 109}, {"time": 1155, "pitch": 63, "duration": 13, "velocity": 106}, {"time": 1167, "pitch": 62, "duration": 2, "velocity": 117}, {"time": 1170, "pitch": 63, "duration": 5, "velocity": 115}, {"time": 1176, "pitch": 62, "duration": 4, "velocity": 117}, {"time": 1182, "pitch": 63, "duration": 5, "velocity": 112}, {"time": 1188, "pitch": 70, "duration": 4, "velocity": 112}, {"time": 1194, "pitch": 72, "duration": 48, "velocity": 112}, {"time": 1272, "pitch": 65, "duration": 4, "velocity": 115}, {"time": 1278, "pitch": 65, "duration": 5, "velocity": 115}, {"time": 1284, "pitch": 75, "duration": 4, "velocity": 118}, {"time": 1290, "pitch": 75, "duration": 15, "velocity": 115}, {"time": 1308, "pitch": 74, "duration": 4, "velocity": 117}, {"time": 1314, "pitch": 74, "duration": 14, "velocity": 117}, {"time": 1332, "pitch": 65, "duration": 3, "velocity": 112}, {"time": 1335, "pitch": 74, "duration": 2, "velocity": 117}, {"time": 1338, "pitch": 74, "duration": 14, "velocity": 117}, {"time": 1356, "pitch": 72, "duration": 3, "velocity": 109}, {"time": 1362, "pitch": 72, "duration": 12, "velocity": 112}, {"time": 1380, "pitch": 70, "duration": 2, "velocity": 106}, {"time": 1383, "pitch": 69, "duration": 2, "velocity": 120}, {"time": 1386, "pitch": 70, "duration": 5, "velocity": 112}, {"time": 1392, "pitch": 69, "duration": 4, "velocity": 120}, {"time": 1398, "pitch": 70, "duration": 5, "velocity": 112}, {"time": 1404, "pitch": 69, "duration": 4, "velocity": 117}, {"time": 1410, "pitch": 70, "duration": 5, "velocity": 115}, {"time": 1416, "pitch": 69, "duration": 3, "velocity": 120}, {"time": 1422, "pitch": 70, "duration": 3, "velocity": 109}, {"time": 1428, "pitch": 77, "duration": 10, "velocity": 104}, {"time": 1440, "pitch": 77, "duration": 19, "velocity": 104}, {"time": 1464, "pitch": 70, "duration": 5, "velocity": 106}, {"time": 1470, "pitch": 70, "duration": 4, "velocity": 112}, {"time": 1476, "pitch": 81, "duration": 4, "velocity": 117}, {"time": 1482, "pitch": 81, "duration": 16, "velocity": 120}, {"time": 1500, "pitch": 79, "duration": 4, "velocity": 117}, {"time": 1506, "pitch": 79, "duration": 14, "velocity": 120}, {"time": 1524, "pitch": 70, "duration": 2, "velocity": 118}, {"time": 1527, "pitch": 79, "duration": 2, "velocity": 120}, {"time": 1530, "pitch": 79, "duration": 15, "velocity": 120}, {"time": 1548, "pitch": 77, "duration": 4, "velocity": 99}, {"time": 1554, "pitch": 77, "duration": 13, "velocity": 106}, {"time": 1572, "pitch": 74, "duration": 4, "velocity": 107}, {"time": 1578, "pitch": 75, "duration": 4, "velocity": 115}, {"time": 1584, "pitch": 74, "duration": 4, "velocity": 120}, {"time": 1590, "pitch": 75, "duration": 4, "velocity": 112}, {"time": 1596, "pitch": 74, "duration": 2, "velocity": 120}, {"time": 1599, "pitch": 75, "duration": 7, "velocity": 112}, {"time": 1608, "pitch": 74, "duration": 4, "velocity": 120}, {"time": 1614, "pitch": 72, "duration": 4, "velocity": 112}, {"time": 1620, "pitch": 70, "duration": 4, "velocity": 112}, {"time": 1626, "pitch": 72, "duration": 25, "velocity": 109}, {"time": 1656, "pitch": 65, "duration": 4, "velocity": 115}, {"time": 1662, "pitch": 65, "duration": 5, "velocity": 115}, {"time": 1668, "pitch": 75, "duration": 4, "velocity": 118}, {"time": 1674, "pitch": 75, "duration": 15, "velocity": 115}, {"time": 1692, "pitch": 74, "duration": 4, "velocity": 117}, {"time": 1698, "pitch": 74, "duration": 14, "velocity": 117}, {"time": 1716, "pitch": 65, "duration": 3, "velocity": 112}, {"time": 1719, "pitch": 74, "duration": 2, "velocity": 117}, {"time": 1722, "pitch": 74, "duration": 14, "velocity": 117}, {"time": 1740, "pitch": 72, "duration": 3, "velocity": 109}, {"time": 1746, "pitch": 72, "duration": 12, "velocity": 112}, {"time": 1764, "pitch": 70, "duration": 2, "velocity": 106}, {"time": 1767, "pitch": 69, "duration": 2, "velocity": 120}, {"time": 1770, "pitch": 70, "duration": 5, "velocity": 112}, {"time": 1776, "pitch": 69, "duration": 4, "velocity": 120}, {"time": 1782, "pitch": 70, "duration": 5, "velocity": 112}, {"time": 1788, "pitch": 69, "duration": 4, "velocity": 117}, {"time": 1794, "pitch": 70, "duration": 5, "velocity": 115}, {"time": 1800, "pitch": 69, "duration": 3, "velocity": 120}, {"time": 1806, "pitch": 70, "duration": 3, "velocity": 109}, {"time": 1812, "pitch": 77, "duration": 10, "velocity": 104}, {"time": 1824, "pitch": 77, "duration": 19, "velocity": 104}, {"time": 1848, "pitch": 70, "duration": 5, "velocity": 106}, {"time": 1854, "pitch": 70, "duration": 4, "velocity": 112}, {"time": 1860, "pitch": 81, "duration": 4, "velocity": 117}, {"time": 1866, "pitch": 81, "duration": 16, "velocity": 120}, {"time": 1884, "pitch": 79, "duration": 4, "velocity": 117}, {"time": 1890, "pitch": 79, "duration": 14, "velocity": 120}, {"time": 1908, "pitch": 70, "duration": 2, "velocity": 118}, {"time": 1911, "pitch": 79, "duration": 2, "velocity": 120}, {"time": 1914, "pitch": 79, "duration": 15, "velocity": 120}, {"time": 1932, "pitch": 77, "duration": 4, "velocity": 99}, {"time": 1938, "pitch": 77, "duration": 13, "velocity": 106}, {"time": 1956, "pitch": 74, "duration": 4, "velocity": 107}, {"time": 1962, "pitch": 75, "duration": 4, "velocity": 115}, {"time": 1968, "pitch": 74, "duration": 4, "velocity": 120}, {"time": 1974, "pitch": 75, "duration": 4, "velocity": 112}, {"time": 1980, "pitch": 74, "duration": 2, "velocity": 120}, {"time": 1983, "pitch": 75, "duration": 7, "velocity": 112}, {"time": 1992, "pitch": 74, "duration": 4, "velocity": 120}, {"time": 1998, "pitch": 72, "duration": 4, "velocity": 112}, {"time": 2004, "pitch": 70, "duration": 4, "velocity": 112}, {"time": 2010, "pitch": 70, "duration": 5, "velocity": 114}, {"time": 2017, "pitch": 72, "duration": 15, "velocity": 109}, {"time": 2034, "pitch": 65, "duration": 5, "velocity": 112}, {"time": 2040, "pitch": 74, "duration": 5, "velocity": 113}, {"time": 2046, "pitch": 72, "duration": 4, "velocity": 106}, {"time": 2052, "pitch": 70, "duration": 16, "velocity": 112}, {"time": 2073, "pitch": 69, "duration": 6, "velocity": 112}, {"time": 2082, "pitch": 70, "duration": 27, "velocity": 101}, {"time": 2521, "pitch": 65, "duration": 9, "velocity": 115}, {"time": 2530, "pitch": 65, "duration": 8, "velocity": 115}, {"time": 2540, "pitch": 75, "duration": 8, "velocity": 118}, {"time": 2550, "pitch": 75, "duration": 15, "velocity": 115}, {"time": 2568, "pitch": 74, "duration": 4, "velocity": 117}, {"time": 2574, "pitch": 74, "duration": 14, "velocity": 117}, {"time": 2592, "pitch": 65, "duration": 3, "velocity": 112}, {"time": 2595, "pitch": 74, "duration": 2, "velocity": 117}, {"time": 2598, "pitch": 74, "duration": 14, "velocity": 117}, {"time": 2616, "pitch": 72, "duration": 3, "velocity": 109}, {"time": 2622, "pitch": 72, "duration": 12, "velocity": 112}, {"time": 2640, "pitch": 70, "duration": 2, "velocity": 106}, {"time": 2643, "pitch": 69, "duration": 2, "velocity": 120}, {"time": 2646, "pitch": 70, "duration": 5, "velocity": 112}, {"time": 2652, "pitch": 69, "duration": 4, "velocity": 120}, {"time": 2658, "pitch": 70, "duration": 5, "velocity": 112}, {"time": 2664, "pitch": 69, "duration": 4, "velocity": 117}, {"time": 2670, "pitch": 70, "duration": 5, "velocity": 115}, {"time": 2676, "pitch": 69, "duration": 3, "velocity": 120}, {"time": 2682, "pitch": 70, "duration": 3, "velocity": 109}, {"time": 2688, "pitch": 77, "duration": 10, "velocity": 104}, {"time": 2700, "pitch": 77, "duration": 19, "velocity": 104}, {"time": 2724, "pitch": 70, "duration": 5, "velocity": 106}, {"time": 2730, "pitch": 70, "duration": 4, "velocity": 112}, {"time": 2736, "pitch": 81, "duration": 4, "velocity": 117}, {"time": 2742, "pitch": 81, "duration": 16, "velocity": 120}, {"time": 2760, "pitch": 79, "duration": 4, "velocity": 117}, {"time": 2766, "pitch": 79, "duration": 14, "velocity": 120}, {"time": 2784, "pitch": 70, "duration": 2, "velocity": 118}, {"time": 2787, "pitch": 79, "duration": 2, "velocity": 120}, {"time": 2790, "pitch": 79, "duration": 15, "velocity": 120}, {"time": 2808, "pitch": 77, "duration": 4, "velocity": 99}, {"time": 2814, "pitch": 77, "duration": 13, "velocity": 106}, {"time": 2832, "pitch": 74, "duration": 4, "velocity": 107}, {"time": 2838, "pitch": 75, "duration": 4, "velocity": 115}, {"time": 2844, "pitch": 74, "duration": 4, "velocity": 120}, {"time": 2850, "pitch": 75, "duration": 4, "velocity": 112}, {"time": 2856, "pitch": 74, "duration": 2, "velocity": 120}, {"time": 2859, "pitch": 75, "duration": 7, "velocity": 112}, {"time": 2868, "pitch": 74, "duration": 4, "velocity": 120}, {"time": 2874, "pitch": 72, "duration": 4, "velocity": 112}, {"time": 2880, "pitch": 70, "duration": 4, "velocity": 112}, {"time": 2886, "pitch": 72, "duration": 25, "velocity": 109}, {"time": 2916, "pitch": 65, "duration": 4, "velocity": 115}, {"time": 2922, "pitch": 65, "duration": 5, "velocity": 115}, {"time": 2928, "pitch": 75, "duration": 4, "velocity": 118}, {"time": 2934, "pitch": 75, "duration": 15, "velocity": 115}, {"time": 2952, "pitch": 74, "duration": 4, "velocity": 117}, {"time": 2958, "pitch": 74, "duration": 14, "velocity": 117}, {"time": 2976, "pitch": 65, "duration": 3, "velocity": 112}, {"time": 2979, "pitch": 74, "duration": 2, "velocity": 117}, {"time": 2982, "pitch": 74, "duration": 14, "velocity": 117}, {"time": 3000, "pitch": 72, "duration": 3, "velocity": 109}, {"time": 3006, "pitch": 72, "duration": 12, "velocity": 112}, {"time": 3024, "pitch": 70, "duration": 2, "velocity": 106}, {"time": 3027, "pitch": 69, "duration": 2, "velocity": 120}, {"time": 3030, "pitch": 70, "duration": 5, "velocity": 112}, {"time": 3036, "pitch": 69, "duration": 4, "velocity": 120}, {"time": 3042, "pitch": 70, "duration": 5, "velocity": 112}, {"time": 3048, "pitch": 69, "duration": 4, "velocity": 117}, {"time": 3054, "pitch": 70, "duration": 5, "velocity": 115}, {"time": 3060, "pitch": 69, "duration": 3, "velocity": 120}, {"time": 3066, "pitch": 70, "duration": 3, "velocity": 109}, {"time": 3072, "pitch": 77, "duration": 10, "velocity": 104}, {"time": 3084, "pitch": 77, "duration": 19, "velocity": 104}, {"time": 3108, "pitch": 70, "duration": 5, "velocity": 106}, {"time": 3114, "pitch": 70, "duration": 4, "velocity": 112}, {"time": 3120, "pitch": 81, "duration": 4, "velocity": 117}, {"time": 3126, "pitch": 81, "duration": 16, "velocity": 120}, {"time": 3144, "pitch": 79, "duration": 4, "velocity": 117}, {"time": 3150, "pitch": 79, "duration": 14, "velocity": 120}, {"time": 3168, "pitch": 70, "duration": 2, "velocity": 118}, {"time": 3171, "pitch": 79, "duration": 2, "velocity": 120}, {"time": 3174, "pitch": 79, "duration": 15, "velocity": 120}, {"time": 3192, "pitch": 77, "duration": 4, "velocity": 99}, {"time": 3198, "pitch": 77, "duration": 13, "velocity": 106}, {"time": 3216, "pitch": 74, "duration": 4, "velocity": 107}, {"time": 3222, "pitch": 75, "duration": 4, "velocity": 115}, {"time": 3228, "pitch": 74, "duration": 4, "velocity": 120}, {"time": 3234, "pitch": 75, "duration": 4, "velocity": 112}, {"time": 3240, "pitch": 74, "duration": 2, "velocity": 120}, {"time": 3243, "pitch": 75, "duration": 7, "velocity": 112}, {"time": 3252, "pitch": 74, "duration": 4, "velocity": 120}, {"time": 3258, "pitch": 72, "duration": 4, "velocity": 112}, {"time": 3264, "pitch": 70, "duration": 4, "velocity": 112}, {"time": 3270, "pitch": 70, "duration": 5, "velocity": 114}, {"time": 3277, "pitch": 72, "duration": 15, "velocity": 109}, {"time": 3294, "pitch": 65, "duration": 5, "velocity": 112}, {"time": 3300, "pitch": 74, "duration": 5, "velocity": 113}, {"time": 3306, "pitch": 72, "duration": 4, "velocity": 106}, {"time": 3312, "pitch": 70, "duration": 16, "velocity": 112}, {"time": 3333, "pitch": 69, "duration": 6, "velocity": 112}, {"time": 3342, "pitch": 70, "duration": 27, "velocity": 101}, {"time": 3395, "pitch": 70, "duration": 4, "velocity": 118}, {"time": 3401, "pitch": 70, "duration": 4, "velocity": 118}, {"time": 3406, "pitch": 81, "duration": 4, "velocity": 120}, {"time": 3413, "pitch": 81, "duration": 19, "velocity": 123}, {"time": 3434, "pitch": 79, "duration": 4, "velocity": 120}, {"time": 3440, "pitch": 79, "duration": 17, "velocity": 120}, {"time": 3460, "pitch": 70, "duration": 2, "velocity": 104}, {"time": 3463, "pitch": 79, "duration": 1, "velocity": 117}, {"time": 3466, "pitch": 79, "duration": 13, "velocity": 120}, {"time": 3481, "pitch": 77, "duration": 4, "velocity": 106}, {"time": 3488, "pitch": 77, "duration": 22, "velocity": 104}]}, {"program": 0, "is_drum": false, "name": "PIANO", "notes": [{"time": 4, "pitch": 60, "duration": 22, "velocity": 94}, {"time": 5, "pitch": 65, "duration": 21, "velocity": 91}, {"time": 5, "pitch": 70, "duration": 21, "velocity": 101}, {"time": 29, "pitch": 60, "duration": 21, "velocity": 73}, {"time": 30, "pitch": 65, "duration": 20, "velocity": 91}, {"time": 31, "pitch": 69, "duration": 19, "velocity": 89}, {"time": 51, "pitch": 74, "duration": 3, "velocity": 89}, {"time": 53, "pitch": 79, "duration": 2, "velocity": 82}, {"time": 54, "pitch": 60, "duration": 20, "velocity": 104}, {"time": 54, "pitch": 76, "duration": 20, "velocity": 89}, {"time": 135, "pitch": 39, "duration": 59, "velocity": 91}, {"time": 140, "pitch": 55, "duration": 15, "velocity": 96}, {"time": 145, "pitch": 58, "duration": 10, "velocity": 99}, {"time": 150, "pitch": 63, "duration": 5, "velocity": 117}, {"time": 155, "pitch": 67, "duration": 3, "velocity": 104}, {"time": 160, "pitch": 70, "duration": 12, "velocity": 91}, {"time": 166, "pitch": 67, "duration": 6, "velocity": 39}, {"time": 171, "pitch": 75, "duration": 10, "velocity": 66}, {"time": 175, "pitch": 67, "duration": 12, "velocity": 4}, {"time": 181, "pitch": 79, "duration": 13, "velocity": 109}, {"time": 186, "pitch": 75, "duration": 7, "velocity": 65}, {"time": 193, "pitch": 48, "duration": 51, "velocity": 104}, {"time": 198, "pitch": 55, "duration": 16, "velocity": 82}, {"time": 203, "pitch": 60, "duration": 7, "velocity": 80}, {"time": 208, "pitch": 62, "duration": 9, "velocity": 106}, {"time": 217, "pitch": 55, "duration": 27, "velocity": 89}, {"time": 218, "pitch": 60, "duration": 36, "velocity": 87}, {"time": 220, "pitch": 63, "duration": 34, "velocity": 65}, {"time": 281, "pitch": 58, "duration": 11, "velocity": 78}, {"time": 282, "pitch": 62, "duration": 13, "velocity": 74}, {"time": 283, "pitch": 46, "duration": 45, "velocity": 101}, {"time": 289, "pitch": 53, "duration": 7, "velocity": 78}, {"time": 294, "pitch": 58, "duration": 9, "velocity": 94}, {"time": 300, "pitch": 53, "duration": 8, "velocity": 45}, {"time": 306, "pitch": 62, "duration": 10, "velocity": 104}, {"time": 306, "pitch": 58, "duration": 10, "velocity": 101}, {"time": 318, "pitch": 62, "duration": 7, "velocity": 88}, {"time": 318, "pitch": 58, "duration": 3, "velocity": 99}, {"time": 324, "pitch": 58, "duration": 5, "velocity": 91}, {"time": 330, "pitch": 46, "duration": 44, "velocity": 101}, {"time": 330, "pitch": 57, "duration": 10, "velocity": 91}, {"time": 330, "pitch": 62, "duration": 10, "velocity": 96}, {"time": 336, "pitch": 53, "duration": 18, "velocity": 62}, {"time": 342, "pitch": 62, "duration": 8, "velocity": 86}, {"time": 343, "pitch": 57, "duration": 8, "velocity": 65}, {"time": 354, "pitch": 62, "duration": 10, "velocity": 99}, {"time": 354, "pitch": 57, "duration": 9, "velocity": 77}, {"time": 366, "pitch": 62, "duration": 6, "velocity": 101}, {"time": 366, "pitch": 57, "duration": 3, "velocity": 107}, {"time": 377, "pitch": 58, "duration": 9, "velocity": 82}, {"time": 378, "pitch": 46, "duration": 45, "velocity": 104}, {"time": 379, "pitch": 62, "duration": 10, "velocity": 61}, {"time": 385, "pitch": 53, "duration": 6, "velocity": 51}, {"time": 391, "pitch": 58, "duration": 6, "velocity": 101}, {"time": 397, "pitch": 53, "duration": 6, "velocity": 48}, {"time": 402, "pitch": 62, "duration": 8, "velocity": 81}, {"time": 402, "pitch": 58, "duration": 9, "velocity": 89}, {"time": 408, "pitch": 53, "duration": 9, "velocity": 31}, {"time": 415, "pitch": 62, "duration": 8, "velocity": 117}, {"time": 415, "pitch": 58, "duration": 3, "velocity": 106}, {"time": 420, "pitch": 58, "duration": 3, "velocity": 104}, {"time": 426, "pitch": 62, "duration": 10, "velocity": 77}, {"time": 426, "pitch": 56, "duration": 9, "velocity": 101}, {"time": 426, "pitch": 44, "duration": 20, "velocity": 96}, {"time": 433, "pitch": 53, "duration": 7, "velocity": 56}, {"time": 438, "pitch": 62, "duration": 7, "velocity": 117}, {"time": 439, "pitch": 56, "duration": 5, "velocity": 109}, {"time": 445, "pitch": 53, "duration": 4, "velocity": 59}, {"time": 449, "pitch": 48, "duration": 24, "velocity": 80}, {"time": 450, "pitch": 58, "duration": 23, "velocity": 80}, {"time": 451, "pitch": 60, "duration": 22, "velocity": 91}, {"time": 452, "pitch": 55, "duration": 20, "velocity": 53}, {"time": 452, "pitch": 63, "duration": 21, "velocity": 91}, {"time": 473, "pitch": 58, "duration": 15, "velocity": 76}, {"time": 474, "pitch": 46, "duration": 46, "velocity": 99}, {"time": 474, "pitch": 62, "duration": 20, "velocity": 79}, {"time": 486, "pitch": 53, "duration": 33, "velocity": 40}, {"time": 492, "pitch": 58, "duration": 16, "velocity": 67}, {"time": 498, "pitch": 62, "duration": 11, "velocity": 101}, {"time": 498, "pitch": 65, "duration": 14, "velocity": 96}, {"time": 522, "pitch": 62, "duration": 15, "velocity": 83}, {"time": 522, "pitch": 57, "duration": 8, "velocity": 86}, {"time": 522, "pitch": 46, "duration": 37, "velocity": 87}, {"time": 528, "pitch": 53, "duration": 8, "velocity": 43}, {"time": 534, "pitch": 57, "duration": 9, "velocity": 79}, {"time": 540, "pitch": 62, "duration": 17, "velocity": 91}, {"time": 547, "pitch": 65, "duration": 13, "velocity": 64}, {"time": 568, "pitch": 55, "duration": 9, "velocity": 58}, {"time": 569, "pitch": 43, "duration": 35, "velocity": 101}, {"time": 570, "pitch": 58, "duration": 10, "velocity": 42}, {"time": 570, "pitch": 62, "duration": 13, "velocity": 96}, {"time": 576, "pitch": 50, "duration": 26, "velocity": 32}, {"time": 582, "pitch": 55, "duration": 23, "velocity": 120}, {"time": 588, "pitch": 58, "duration": 16, "velocity": 96}, {"time": 594, "pitch": 62, "duration": 11, "velocity": 59}, {"time": 618, "pitch": 38, "duration": 39, "velocity": 101}, {"time": 624, "pitch": 45, "duration": 32, "velocity": 68}, {"time": 630, "pitch": 53, "duration": 16, "velocity": 85}, {"time": 636, "pitch": 57, "duration": 10, "velocity": 99}, {"time": 642, "pitch": 62, "duration": 17, "velocity": 99}, {"time": 663, "pitch": 58, "duration": 4, "velocity": 80}, {"time": 664, "pitch": 63, "duration": 5, "velocity": 106}, {"time": 666, "pitch": 51, "duration": 33, "velocity": 91}, {"time": 666, "pitch": 67, "duration": 6, "velocity": 83}, {"time": 672, "pitch": 58, "duration": 7, "velocity": 76}, {"time": 678, "pitch": 63, "duration": 10, "velocity": 99}, {"time": 684, "pitch": 58, "duration": 16, "velocity": 73}, {"time": 690, "pitch": 67, "duration": 12, "velocity": 113}, {"time": 690, "pitch": 70, "duration": 14, "velocity": 101}, {"time": 713, "pitch": 58, "duration": 5, "velocity": 82}, {"time": 714, "pitch": 46, "duration": 38, "velocity": 96}, {"time": 714, "pitch": 62, "duration": 12, "velocity": 65}, {"time": 720, "pitch": 53, "duration": 7, "velocity": 74}, {"time": 726, "pitch": 60, "duration": 8, "velocity": 106}, {"time": 732, "pitch": 53, "duration": 21, "velocity": 61}, {"time": 738, "pitch": 65, "duration": 15, "velocity": 99}, {"time": 738, "pitch": 58, "duration": 13, "velocity": 87}, {"time": 761, "pitch": 58, "duration": 9, "velocity": 85}, {"time": 762, "pitch": 63, "duration": 13, "velocity": 104}, {"time": 762, "pitch": 48, "duration": 37, "velocity": 78}, {"time": 763, "pitch": 67, "duration": 35, "velocity": 70}, {"time": 768, "pitch": 55, "duration": 12, "velocity": 55}, {"time": 774, "pitch": 58, "duration": 30, "velocity": 101}, {"time": 780, "pitch": 63, "duration": 23, "velocity": 99}, {"time": 810, "pitch": 41, "duration": 40, "velocity": 101}, {"time": 816, "pitch": 51, "duration": 6, "velocity": 96}, {"time": 822, "pitch": 57, "duration": 2, "velocity": 117}, {"time": 828, "pitch": 60, "duration": 4, "velocity": 94}, {"time": 834, "pitch": 48, "duration": 16, "velocity": 82}, {"time": 834, "pitch": 65, "duration": 22, "velocity": 94}, {"time": 834, "pitch": 60, "duration": 22, "velocity": 89}, {"time": 858, "pitch": 46, "duration": 47, "velocity": 99}, {"time": 858, "pitch": 58, "duration": 8, "velocity": 80}, {"time": 858, "pitch": 62, "duration": 16, "velocity": 91}, {"time": 864, "pitch": 53, "duration": 6, "velocity": 59}, {"time": 870, "pitch": 58, "duration": 13, "velocity": 104}, {"time": 876, "pitch": 53, "duration": 7, "velocity": 46}, {"time": 882, "pitch": 62, "duration": 10, "velocity": 86}, {"time": 882, "pitch": 65, "duration": 10, "velocity": 94}, {"time": 888, "pitch": 53, "duration": 17, "velocity": 31}, {"time": 894, "pitch": 58, "duration": 3, "velocity": 101}, {"time": 894, "pitch": 62, "duration": 8, "velocity": 117}, {"time": 900, "pitch": 58, "duration": 2, "velocity": 74}, {"time": 906, "pitch": 46, "duration": 42, "velocity": 104}, {"time": 906, "pitch": 57, "duration": 7, "velocity": 93}, {"time": 906, "pitch": 62, "duration": 18, "velocity": 91}, {"time": 912, "pitch": 53, "duration": 8, "velocity": 71}, {"time": 918, "pitch": 57, "duration": 26, "velocity": 110}, {"time": 924, "pitch": 53, "duration": 7, "velocity": 52}, {"time": 930, "pitch": 62, "duration": 10, "velocity": 93}, {"time": 936, "pitch": 53, "duration": 12, "velocity": 45}, {"time": 942, "pitch": 62, "duration": 6, "velocity": 110}, {"time": 942, "pitch": 65, "duration": 7, "velocity": 101}, {"time": 954, "pitch": 43, "duration": 38, "velocity": 107}, {"time": 954, "pitch": 58, "duration": 13, "velocity": 96}, {"time": 954, "pitch": 62, "duration": 20, "velocity": 93}, {"time": 960, "pitch": 50, "duration": 19, "velocity": 61}, {"time": 966, "pitch": 67, "duration": 23, "velocity": 99}, {"time": 972, "pitch": 58, "duration": 9, "velocity": 73}, {"time": 978, "pitch": 62, "duration": 9, "velocity": 86}, {"time": 984, "pitch": 50, "duration": 8, "velocity": 13}, {"time": 990, "pitch": 58, "duration": 4, "velocity": 109}, {"time": 990, "pitch": 62, "duration": 3, "velocity": 110}, {"time": 1002, "pitch": 38, "duration": 37, "velocity": 99}, {"time": 1002, "pitch": 57, "duration": 14, "velocity": 83}, {"time": 1008, "pitch": 45, "duration": 18, "velocity": 58}, {"time": 1014, "pitch": 53, "duration": 13, "velocity": 109}, {"time": 1020, "pitch": 57, "duration": 13, "velocity": 110}, {"time": 1026, "pitch": 62, "duration": 11, "velocity": 117}, {"time": 1032, "pitch": 45, "duration": 5, "velocity": 2}, {"time": 1038, "pitch": 53, "duration": 3, "velocity": 101}, {"time": 1038, "pitch": 57, "duration": 4, "velocity": 93}, {"time": 1050, "pitch": 51, "duration": 43, "velocity": 101}, {"time": 1050, "pitch": 58, "duration": 4, "velocity": 96}, {"time": 1050, "pitch": 63, "duration": 13, "velocity": 101}, {"time": 1056, "pitch": 58, "duration": 7, "velocity": 87}, {"time": 1062, "pitch": 65, "duration": 6, "velocity": 101}, {"time": 1068, "pitch": 63, "duration": 4, "velocity": 82}, {"time": 1074, "pitch": 58, "duration": 13, "velocity": 101}, {"time": 1074, "pitch": 63, "duration": 14, "velocity": 104}, {"time": 1074, "pitch": 67, "duration": 18, "velocity": 107}, {"time": 1098, "pitch": 46, "duration": 43, "velocity": 104}, {"time": 1098, "pitch": 58, "duration": 13, "velocity": 99}, {"time": 1098, "pitch": 62, "duration": 8, "velocity": 93}, {"time": 1104, "pitch": 53, "duration": 8, "velocity": 87}, {"time": 1110, "pitch": 60, "duration": 9, "velocity": 109}, {"time": 1116, "pitch": 53, "duration": 28, "velocity": 82}, {"time": 1122, "pitch": 58, "duration": 10, "velocity": 99}, {"time": 1122, "pitch": 65, "duration": 11, "velocity": 104}, {"time": 1134, "pitch": 58, "duration": 7, "velocity": 104}, {"time": 1134, "pitch": 62, "duration": 6, "velocity": 113}, {"time": 1146, "pitch": 48, "duration": 38, "velocity": 96}, {"time": 1146, "pitch": 60, "duration": 8, "velocity": 89}, {"time": 1146, "pitch": 63, "duration": 12, "velocity": 101}, {"time": 1152, "pitch": 55, "duration": 12, "velocity": 77}, {"time": 1158, "pitch": 58, "duration": 20, "velocity": 115}, {"time": 1164, "pitch": 63, "duration": 15, "velocity": 106}, {"time": 1176, "pitch": 55, "duration": 7, "velocity": 21}, {"time": 1182, "pitch": 58, "duration": 3, "velocity": 109}, {"time": 1182, "pitch": 63, "duration": 12, "velocity": 109}, {"time": 1188, "pitch": 58, "duration": 7, "velocity": 96}, {"time": 1194, "pitch": 41, "duration": 22, "velocity": 101}, {"time": 1200, "pitch": 51, "duration": 6, "velocity": 101}, {"time": 1206, "pitch": 57, "duration": 2, "velocity": 123}, {"time": 1212, "pitch": 60, "duration": 5, "velocity": 112}, {"time": 1218, "pitch": 41, "duration": 21, "velocity": 106}, {"time": 1218, "pitch": 60, "duration": 10, "velocity": 101}, {"time": 1218, "pitch": 65, "duration": 10, "velocity": 109}, {"time": 1224, "pitch": 48, "duration": 13, "velocity": 71}, {"time": 1230, "pitch": 65, "duration": 11, "velocity": 104}, {"time": 1230, "pitch": 69, "duration": 11, "velocity": 101}, {"time": 1236, "pitch": 60, "duration": 5, "velocity": 80}, {"time": 1242, "pitch": 41, "duration": 38, "velocity": 101}, {"time": 1242, "pitch": 60, "duration": 14, "velocity": 94}, {"time": 1242, "pitch": 65, "duration": 14, "velocity": 99}, {"time": 1263, "pitch": 65, "duration": 22, "velocity": 76}, {"time": 1264, "pitch": 69, "duration": 21, "velocity": 93}, {"time": 1266, "pitch": 75, "duration": 10, "velocity": 97}, {"time": 1266, "pitch": 77, "duration": 20, "velocity": 101}, {"time": 1290, "pitch": 46, "duration": 42, "velocity": 101}, {"time": 1290, "pitch": 62, "duration": 13, "velocity": 88}, {"time": 1296, "pitch": 53, "duration": 6, "velocity": 76}, {"time": 1302, "pitch": 58, "duration": 13, "velocity": 112}, {"time": 1308, "pitch": 53, "duration": 8, "velocity": 51}, {"time": 1314, "pitch": 62, "duration": 10, "velocity": 117}, {"time": 1314, "pitch": 65, "duration": 13, "velocity": 101}, {"time": 1320, "pitch": 53, "duration": 10, "velocity": 56}, {"time": 1326, "pitch": 58, "duration": 5, "velocity": 109}, {"time": 1338, "pitch": 41, "duration": 40, "velocity": 94}, {"time": 1338, "pitch": 57, "duration": 12, "velocity": 117}, {"time": 1344, "pitch": 48, "duration": 8, "velocity": 66}, {"time": 1350, "pitch": 60, "duration": 21, "velocity": 106}, {"time": 1356, "pitch": 57, "duration": 6, "velocity": 29}, {"time": 1362, "pitch": 65, "duration": 12, "velocity": 104}, {"time": 1368, "pitch": 48, "duration": 8, "velocity": 40}, {"time": 1374, "pitch": 57, "duration": 4, "velocity": 117}, {"time": 1374, "pitch": 60, "duration": 5, "velocity": 106}, {"time": 1374, "pitch": 65, "duration": 3, "velocity": 82}, {"time": 1386, "pitch": 43, "duration": 14, "velocity": 99}, {"time": 1386, "pitch": 55, "duration": 13, "velocity": 86}, {"time": 1386, "pitch": 58, "duration": 9, "velocity": 106}, {"time": 1392, "pitch": 50, "duration": 9, "velocity": 70}, {"time": 1398, "pitch": 58, "duration": 3, "velocity": 109}, {"time": 1398, "pitch": 62, "duration": 5, "velocity": 104}, {"time": 1410, "pitch": 41, "duration": 16, "velocity": 101}, {"time": 1410, "pitch": 60, "duration": 9, "velocity": 96}, {"time": 1410, "pitch": 65, "duration": 10, "velocity": 99}, {"time": 1416, "pitch": 48, "duration": 8, "velocity": 47}, {"time": 1422, "pitch": 65, "duration": 6, "velocity": 106}, {"time": 1422, "pitch": 69, "duration": 6, "velocity": 117}, {"time": 1434, "pitch": 50, "duration": 36, "velocity": 110}, {"time": 1434, "pitch": 65, "duration": 14, "velocity": 104}, {"time": 1440, "pitch": 57, "duration": 8, "velocity": 81}, {"time": 1446, "pitch": 62, "duration": 9, "velocity": 110}, {"time": 1452, "pitch": 57, "duration": 17, "velocity": 61}, {"time": 1458, "pitch": 62, "duration": 10, "velocity": 113}, {"time": 1458, "pitch": 69, "duration": 11, "velocity": 107}, {"time": 1470, "pitch": 62, "duration": 4, "velocity": 110}, {"time": 1470, "pitch": 65, "duration": 4, "velocity": 106}, {"time": 1482, "pitch": 51, "duration": 38, "velocity": 106}, {"time": 1482, "pitch": 58, "duration": 5, "velocity": 104}, {"time": 1482, "pitch": 63, "duration": 9, "velocity": 106}, {"time": 1494, "pitch": 67, "duration": 12, "velocity": 120}, {"time": 1500, "pitch": 58, "duration": 4, "velocity": 66}, {"time": 1506, "pitch": 58, "duration": 9, "velocity": 106}, {"time": 1506, "pitch": 63, "duration": 10, "velocity": 109}, {"time": 1518, "pitch": 58, "duration": 7, "velocity": 109}, {"time": 1518, "pitch": 65, "duration": 8, "velocity": 104}, {"time": 1530, "pitch": 50, "duration": 16, "velocity": 113}, {"time": 1530, "pitch": 62, "duration": 10, "velocity": 110}, {"time": 1530, "pitch": 65, "duration": 10, "velocity": 101}, {"time": 1536, "pitch": 57, "duration": 8, "velocity": 77}, {"time": 1542, "pitch": 62, "duration": 10, "velocity": 113}, {"time": 1542, "pitch": 65, "duration": 17, "velocity": 104}, {"time": 1560, "pitch": 62, "duration": 5, "velocity": 93}, {"time": 1566, "pitch": 62, "duration": 6, "velocity": 113}, {"time": 1566, "pitch": 65, "duration": 12, "velocity": 106}, {"time": 1578, "pitch": 48, "duration": 38, "velocity": 94}, {"time": 1578, "pitch": 60, "duration": 10, "velocity": 94}, {"time": 1578, "pitch": 63, "duration": 10, "velocity": 104}, {"time": 1584, "pitch": 55, "duration": 8, "velocity": 49}, {"time": 1590, "pitch": 63, "duration": 1, "velocity": 28}, {"time": 1590, "pitch": 67, "duration": 17, "velocity": 120}, {"time": 1596, "pitch": 55, "duration": 9, "velocity": 47}, {"time": 1602, "pitch": 58, "duration": 13, "velocity": 101}, {"time": 1602, "pitch": 63, "duration": 9, "velocity": 104}, {"time": 1608, "pitch": 55, "duration": 6, "velocity": 52}, {"time": 1614, "pitch": 63, "duration": 6, "velocity": 109}, {"time": 1614, "pitch": 67, "duration": 6, "velocity": 117}, {"time": 1620, "pitch": 58, "duration": 2, "velocity": 101}, {"time": 1626, "pitch": 41, "duration": 22, "velocity": 101}, {"time": 1626, "pitch": 53, "duration": 14, "velocity": 99}, {"time": 1626, "pitch": 57, "duration": 11, "velocity": 96}, {"time": 1632, "pitch": 48, "duration": 9, "velocity": 96}, {"time": 1638, "pitch": 57, "duration": 2, "velocity": 46}, {"time": 1638, "pitch": 60, "duration": 11, "velocity": 109}, {"time": 1644, "pitch": 57, "duration": 4, "velocity": 113}, {"time": 1650, "pitch": 41, "duration": 20, "velocity": 101}, {"time": 1650, "pitch": 53, "duration": 4, "velocity": 104}, {"time": 1650, "pitch": 57, "duration": 8, "velocity": 117}, {"time": 1650, "pitch": 60, "duration": 7, "velocity": 109}, {"time": 1650, "pitch": 65, "duration": 6, "velocity": 109}, {"time": 1656, "pitch": 48, "duration": 7, "velocity": 71}, {"time": 1656, "pitch": 53, "duration": 5, "velocity": 96}, {"time": 1662, "pitch": 53, "duration": 5, "velocity": 115}, {"time": 1662, "pitch": 57, "duration": 7, "velocity": 120}, {"time": 1662, "pitch": 63, "duration": 12, "velocity": 112}, {"time": 1668, "pitch": 48, "duration": 5, "velocity": 106}, {"time": 1674, "pitch": 46, "duration": 42, "velocity": 101}, {"time": 1674, "pitch": 62, "duration": 13, "velocity": 88}, {"time": 1680, "pitch": 53, "duration": 6, "velocity": 76}, {"time": 1686, "pitch": 58, "duration": 13, "velocity": 112}, {"time": 1692, "pitch": 53, "duration": 8, "velocity": 51}, {"time": 1698, "pitch": 62, "duration": 10, "velocity": 117}, {"time": 1698, "pitch": 65, "duration": 13, "velocity": 101}, {"time": 1704, "pitch": 53, "duration": 10, "velocity": 56}, {"time": 1710, "pitch": 58, "duration": 5, "velocity": 109}, {"time": 1722, "pitch": 41, "duration": 40, "velocity": 94}, {"time": 1722, "pitch": 57, "duration": 12, "velocity": 117}, {"time": 1728, "pitch": 48, "duration": 8, "velocity": 66}, {"time": 1734, "pitch": 60, "duration": 21, "velocity": 106}, {"time": 1740, "pitch": 57, "duration": 6, "velocity": 29}, {"time": 1746, "pitch": 65, "duration": 12, "velocity": 104}, {"time": 1752, "pitch": 48, "duration": 8, "velocity": 40}, {"time": 1758, "pitch": 57, "duration": 4, "velocity": 117}, {"time": 1758, "pitch": 60, "duration": 5, "velocity": 106}, {"time": 1758, "pitch": 65, "duration": 3, "velocity": 82}, {"time": 1770, "pitch": 43, "duration": 14, "velocity": 99}, {"time": 1770, "pitch": 55, "duration": 13, "velocity": 86}, {"time": 1770, "pitch": 58, "duration": 9, "velocity": 106}, {"time": 1776, "pitch": 50, "duration": 9, "velocity": 70}, {"time": 1782, "pitch": 58, "duration": 3, "velocity": 109}, {"time": 1782, "pitch": 62, "duration": 5, "velocity": 104}, {"time": 1794, "pitch": 41, "duration": 16, "velocity": 101}, {"time": 1794, "pitch": 60, "duration": 9, "velocity": 96}, {"time": 1794, "pitch": 65, "duration": 10, "velocity": 99}, {"time": 1800, "pitch": 48, "duration": 8, "velocity": 47}, {"time": 1806, "pitch": 65, "duration": 6, "velocity": 106}, {"time": 1806, "pitch": 69, "duration": 6, "velocity": 117}, {"time": 1818, "pitch": 50, "duration": 36, "velocity": 110}, {"time": 1818, "pitch": 65, "duration": 14, "velocity": 104}, {"time": 1824, "pitch": 57, "duration": 8, "velocity": 81}, {"time": 1830, "pitch": 62, "duration": 9, "velocity": 110}, {"time": 1836, "pitch": 57, "duration": 17, "velocity": 61}, {"time": 1842, "pitch": 62, "duration": 10, "velocity": 113}, {"time": 1842, "pitch": 69, "duration": 11, "velocity": 107}, {"time": 1854, "pitch": 62, "duration": 4, "velocity": 110}, {"time": 1854, "pitch": 65, "duration": 4, "velocity": 106}, {"time": 1866, "pitch": 51, "duration": 38, "velocity": 106}, {"time": 1866, "pitch": 58, "duration": 5, "velocity": 104}, {"time": 1866, "pitch": 63, "duration": 9, "velocity": 106}, {"time": 1878, "pitch": 67, "duration": 12, "velocity": 120}, {"time": 1884, "pitch": 58, "duration": 4, "velocity": 66}, {"time": 1890, "pitch": 58, "duration": 9, "velocity": 106}, {"time": 1890, "pitch": 63, "duration": 10, "velocity": 109}, {"time": 1902, "pitch": 58, "duration": 7, "velocity": 109}, {"time": 1902, "pitch": 65, "duration": 8, "velocity": 104}, {"time": 1914, "pitch": 50, "duration": 16, "velocity": 113}, {"time": 1914, "pitch": 62, "duration": 10, "velocity": 110}, {"time": 1914, "pitch": 65, "duration": 10, "velocity": 101}, {"time": 1920, "pitch": 57, "duration": 8, "velocity": 77}, {"time": 1926, "pitch": 62, "duration": 10, "velocity": 113}, {"time": 1926, "pitch": 65, "duration": 17, "velocity": 104}, {"time": 1944, "pitch": 62, "duration": 5, "velocity": 93}, {"time": 1950, "pitch": 62, "duration": 6, "velocity": 113}, {"time": 1950, "pitch": 65, "duration": 12, "velocity": 106}, {"time": 1962, "pitch": 48, "duration": 38, "velocity": 94}, {"time": 1962, "pitch": 60, "duration": 10, "velocity": 94}, {"time": 1962, "pitch": 63, "duration": 10, "velocity": 104}, {"time": 1968, "pitch": 55, "duration": 8, "velocity": 49}, {"time": 1974, "pitch": 63, "duration": 1, "velocity": 28}, {"time": 1974, "pitch": 67, "duration": 17, "velocity": 120}, {"time": 1980, "pitch": 55, "duration": 9, "velocity": 47}, {"time": 1986, "pitch": 58, "duration": 13, "velocity": 101}, {"time": 1986, "pitch": 63, "duration": 9, "velocity": 104}, {"time": 1992, "pitch": 55, "duration": 6, "velocity": 52}, {"time": 1998, "pitch": 63, "duration": 6, "velocity": 109}, {"time": 1998, "pitch": 67, "duration": 6, "velocity": 117}, {"time": 2004, "pitch": 58, "duration": 2, "velocity": 101}, {"time": 2010, "pitch": 41, "duration": 22, "velocity": 101}, {"time": 2010, "pitch": 53, "duration": 14, "velocity": 99}, {"time": 2010, "pitch": 57, "duration": 11, "velocity": 96}, {"time": 2016, "pitch": 48, "duration": 9, "velocity": 96}, {"time": 2022, "pitch": 57, "duration": 2, "velocity": 46}, {"time": 2022, "pitch": 60, "duration": 11, "velocity": 109}, {"time": 2028, "pitch": 57, "duration": 4, "velocity": 113}, {"time": 2034, "pitch": 41, "duration": 20, "velocity": 101}, {"time": 2034, "pitch": 53, "duration": 4, "velocity": 104}, {"time": 2034, "pitch": 57, "duration": 8, "velocity": 117}, {"time": 2034, "pitch": 60, "duration": 7, "velocity": 109}, {"time": 2034, "pitch": 65, "duration": 6, "velocity": 109}, {"time": 2040, "pitch": 48, "duration": 7, "velocity": 71}, {"time": 2040, "pitch": 53, "duration": 5, "velocity": 96}, {"time": 2046, "pitch": 53, "duration": 5, "velocity": 115}, {"time": 2046, "pitch": 57, "duration": 7, "velocity": 120}, {"time": 2046, "pitch": 63, "duration": 12, "velocity": 112}, {"time": 2052, "pitch": 48, "duration": 5, "velocity": 106}, {"time": 2104, "pitch": 70, "duration": 20, "velocity": 69}, {"time": 2105, "pitch": 73, "duration": 19, "velocity": 58}, {"time": 2105, "pitch": 58, "duration": 25, "velocity": 96}, {"time": 2105, "pitch": 80, "duration": 23, "velocity": 80}, {"time": 2128, "pitch": 70, "duration": 25, "velocity": 74}, {"time": 2129, "pitch": 75, "duration": 23, "velocity": 59}, {"time": 2131, "pitch": 79, "duration": 22, "velocity": 79}, {"time": 2152, "pitch": 70, "duration": 1, "velocity": 74}, {"time": 2153, "pitch": 74, "duration": 46, "velocity": 68}, {"time": 2153, "pitch": 58, "duration": 47, "velocity": 96}, {"time": 2154, "pitch": 77, "duration": 46, "velocity": 80}, {"time": 2202, "pitch": 44, "duration": 19, "velocity": 101}, {"time": 2202, "pitch": 60, "duration": 13, "velocity": 82}, {"time": 2208, "pitch": 51, "duration": 13, "velocity": 91}, {"time": 2214, "pitch": 56, "duration": 7, "velocity": 109}, {"time": 2220, "pitch": 60, "duration": 7, "velocity": 99}, {"time": 2226, "pitch": 46, "duration": 20, "velocity": 106}, {"time": 2226, "pitch": 58, "duration": 9, "velocity": 82}, {"time": 2226, "pitch": 62, "duration": 10, "velocity": 113}, {"time": 2232, "pitch": 53, "duration": 12, "velocity": 91}, {"time": 2238, "pitch": 58, "duration": 8, "velocity": 115}, {"time": 2250, "pitch": 51, "duration": 19, "velocity": 104}, {"time": 2250, "pitch": 58, "duration": 4, "velocity": 104}, {"time": 2250, "pitch": 63, "duration": 9, "velocity": 106}, {"time": 2256, "pitch": 58, "duration": 7, "velocity": 85}, {"time": 2262, "pitch": 63, "duration": 7, "velocity": 112}, {"time": 2262, "pitch": 67, "duration": 10, "velocity": 120}, {"time": 2268, "pitch": 58, "duration": 2, "velocity": 106}, {"time": 2274, "pitch": 49, "duration": 17, "velocity": 104}, {"time": 2274, "pitch": 61, "duration": 9, "velocity": 96}, {"time": 2274, "pitch": 65, "duration": 9, "velocity": 106}, {"time": 2280, "pitch": 56, "duration": 10, "velocity": 96}, {"time": 2286, "pitch": 61, "duration": 4, "velocity": 109}, {"time": 2286, "pitch": 65, "duration": 10, "velocity": 115}, {"time": 2286, "pitch": 68, "duration": 11, "velocity": 112}, {"time": 2292, "pitch": 61, "duration": 5, "velocity": 96}, {"time": 2298, "pitch": 44, "duration": 20, "velocity": 104}, {"time": 2298, "pitch": 60, "duration": 12, "velocity": 104}, {"time": 2304, "pitch": 51, "duration": 15, "velocity": 91}, {"time": 2310, "pitch": 56, "duration": 7, "velocity": 115}, {"time": 2316, "pitch": 63, "duration": 6, "velocity": 109}, {"time": 2322, "pitch": 46, "duration": 17, "velocity": 106}, {"time": 2322, "pitch": 58, "duration": 11, "velocity": 104}, {"time": 2322, "pitch": 62, "duration": 15, "velocity": 113}, {"time": 2346, "pitch": 39, "duration": 15, "velocity": 89}, {"time": 2346, "pitch": 58, "duration": 14, "velocity": 104}, {"time": 2346, "pitch": 67, "duration": 18, "velocity": 96}, {"time": 2352, "pitch": 46, "duration": 8, "velocity": 58}, {"time": 2358, "pitch": 63, "duration": 7, "velocity": 109}, {"time": 2364, "pitch": 58, "duration": 3, "velocity": 109}, {"time": 2370, "pitch": 49, "duration": 16, "velocity": 101}, {"time": 2370, "pitch": 56, "duration": 4, "velocity": 101}, {"time": 2370, "pitch": 61, "duration": 9, "velocity": 99}, {"time": 2376, "pitch": 56, "duration": 7, "velocity": 64}, {"time": 2382, "pitch": 61, "duration": 4, "velocity": 101}, {"time": 2382, "pitch": 65, "duration": 5, "velocity": 104}, {"time": 2394, "pitch": 41, "duration": 40, "velocity": 96}, {"time": 2394, "pitch": 53, "duration": 13, "velocity": 91}, {"time": 2394, "pitch": 56, "duration": 13, "velocity": 96}, {"time": 2400, "pitch": 48, "duration": 8, "velocity": 30}, {"time": 2406, "pitch": 60, "duration": 10, "velocity": 109}, {"time": 2412, "pitch": 48, "duration": 8, "velocity": 45}, {"time": 2418, "pitch": 56, "duration": 7, "velocity": 96}, {"time": 2418, "pitch": 60, "duration": 7, "velocity": 91}, {"time": 2418, "pitch": 63, "duration": 5, "velocity": 94}, {"time": 2430, "pitch": 53, "duration": 4, "velocity": 96}, {"time": 2430, "pitch": 56, "duration": 5, "velocity": 109}, {"time": 2430, "pitch": 60, "duration": 5, "velocity": 101}, {"time": 2430, "pitch": 65, "duration": 7, "velocity": 104}, {"time": 2442, "pitch": 48, "duration": 39, "velocity": 99}, {"time": 2442, "pitch": 60, "duration": 10, "velocity": 94}, {"time": 2442, "pitch": 63, "duration": 11, "velocity": 104}, {"time": 2448, "pitch": 55, "duration": 8, "velocity": 79}, {"time": 2454, "pitch": 63, "duration": 17, "velocity": 99}, {"time": 2460, "pitch": 55, "duration": 7, "velocity": 61}, {"time": 2466, "pitch": 58, "duration": 13, "velocity": 109}, {"time": 2472, "pitch": 55, "duration": 7, "velocity": 59}, {"time": 2478, "pitch": 63, "duration": 5, "velocity": 99}, {"time": 2490, "pitch": 57, "duration": 15, "velocity": 113}, {"time": 2490, "pitch": 41, "duration": 43, "velocity": 106}, {"time": 2490, "pitch": 53, "duration": 22, "velocity": 101}, {"time": 2497, "pitch": 48, "duration": 9, "velocity": 99}, {"time": 2504, "pitch": 60, "duration": 9, "velocity": 106}, {"time": 2510, "pitch": 48, "duration": 21, "velocity": 106}, {"time": 2515, "pitch": 53, "duration": 13, "velocity": 82}, {"time": 2515, "pitch": 57, "duration": 13, "velocity": 117}, {"time": 2516, "pitch": 60, "duration": 12, "velocity": 104}, {"time": 2517, "pitch": 65, "duration": 12, "velocity": 101}, {"time": 2550, "pitch": 46, "duration": 42, "velocity": 101}, {"time": 2550, "pitch": 62, "duration": 13, "velocity": 88}, {"time": 2556, "pitch": 53, "duration": 6, "velocity": 76}, {"time": 2562, "pitch": 58, "duration": 13, "velocity": 112}, {"time": 2568, "pitch": 53, "duration": 8, "velocity": 51}, {"time": 2574, "pitch": 62, "duration": 10, "velocity": 117}, {"time": 2574, "pitch": 65, "duration": 13, "velocity": 101}, {"time": 2580, "pitch": 53, "duration": 10, "velocity": 56}, {"time": 2586, "pitch": 58, "duration": 5, "velocity": 109}, {"time": 2598, "pitch": 41, "duration": 40, "velocity": 94}, {"time": 2598, "pitch": 57, "duration": 12, "velocity": 117}, {"time": 2604, "pitch": 48, "duration": 8, "velocity": 66}, {"time": 2610, "pitch": 60, "duration": 21, "velocity": 106}, {"time": 2616, "pitch": 57, "duration": 6, "velocity": 29}, {"time": 2622, "pitch": 65, "duration": 12, "velocity": 104}, {"time": 2628, "pitch": 48, "duration": 8, "velocity": 40}, {"time": 2634, "pitch": 57, "duration": 4, "velocity": 117}, {"time": 2634, "pitch": 60, "duration": 5, "velocity": 106}, {"time": 2634, "pitch": 65, "duration": 3, "velocity": 82}, {"time": 2646, "pitch": 43, "duration": 14, "velocity": 99}, {"time": 2646, "pitch": 55, "duration": 13, "velocity": 86}, {"time": 2646, "pitch": 58, "duration": 9, "velocity": 106}, {"time": 2652, "pitch": 50, "duration": 9, "velocity": 70}, {"time": 2658, "pitch": 58, "duration": 3, "velocity": 109}, {"time": 2658, "pitch": 62, "duration": 5, "velocity": 104}, {"time": 2670, "pitch": 41, "duration": 16, "velocity": 101}, {"time": 2670, "pitch": 60, "duration": 9, "velocity": 96}, {"time": 2670, "pitch": 65, "duration": 10, "velocity": 99}, {"time": 2676, "pitch": 48, "duration": 8, "velocity": 47}, {"time": 2682, "pitch": 65, "duration": 6, "velocity": 106}, {"time": 2682, "pitch": 69, "duration": 6, "velocity": 117}, {"time": 2694, "pitch": 50, "duration": 36, "velocity": 110}, {"time": 2694, "pitch": 65, "duration": 14, "velocity": 104}, {"time": 2700, "pitch": 57, "duration": 8, "velocity": 81}, {"time": 2706, "pitch": 62, "duration": 9, "velocity": 110}, {"time": 2712, "pitch": 57, "duration": 17, "velocity": 61}, {"time": 2718, "pitch": 62, "duration": 10, "velocity": 113}, {"time": 2718, "pitch": 69, "duration": 11, "velocity": 107}, {"time": 2730, "pitch": 62, "duration": 4, "velocity": 110}, {"time": 2730, "pitch": 65, "duration": 4, "velocity": 106}, {"time": 2742, "pitch": 51, "duration": 38, "velocity": 106}, {"time": 2742, "pitch": 58, "duration": 5, "velocity": 104}, {"time": 2742, "pitch": 63, "duration": 9, "velocity": 106}, {"time": 2754, "pitch": 67, "duration": 12, "velocity": 120}, {"time": 2760, "pitch": 58, "duration": 4, "velocity": 66}, {"time": 2766, "pitch": 58, "duration": 9, "velocity": 106}, {"time": 2766, "pitch": 63, "duration": 10, "velocity": 109}, {"time": 2778, "pitch": 58, "duration": 7, "velocity": 109}, {"time": 2778, "pitch": 65, "duration": 8, "velocity": 104}, {"time": 2790, "pitch": 50, "duration": 16, "velocity": 113}, {"time": 2790, "pitch": 62, "duration": 10, "velocity": 110}, {"time": 2790, "pitch": 65, "duration": 10, "velocity": 101}, {"time": 2796, "pitch": 57, "duration": 8, "velocity": 77}, {"time": 2802, "pitch": 62, "duration": 10, "velocity": 113}, {"time": 2802, "pitch": 65, "duration": 17, "velocity": 104}, {"time": 2820, "pitch": 62, "duration": 5, "velocity": 93}, {"time": 2826, "pitch": 62, "duration": 6, "velocity": 113}, {"time": 2826, "pitch": 65, "duration": 12, "velocity": 106}, {"time": 2838, "pitch": 48, "duration": 38, "velocity": 94}, {"time": 2838, "pitch": 60, "duration": 10, "velocity": 94}, {"time": 2838, "pitch": 63, "duration": 10, "velocity": 104}, {"time": 2844, "pitch": 55, "duration": 8, "velocity": 49}, {"time": 2850, "pitch": 63, "duration": 1, "velocity": 28}, {"time": 2850, "pitch": 67, "duration": 17, "velocity": 120}, {"time": 2856, "pitch": 55, "duration": 9, "velocity": 47}, {"time": 2862, "pitch": 58, "duration": 13, "velocity": 101}, {"time": 2862, "pitch": 63, "duration": 9, "velocity": 104}, {"time": 2868, "pitch": 55, "duration": 6, "velocity": 52}, {"time": 2874, "pitch": 63, "duration": 6, "velocity": 109}, {"time": 2874, "pitch": 67, "duration": 6, "velocity": 117}, {"time": 2880, "pitch": 58, "duration": 2, "velocity": 101}, {"time": 2886, "pitch": 41, "duration": 22, "velocity": 101}, {"time": 2886, "pitch": 53, "duration": 14, "velocity": 99}, {"time": 2886, "pitch": 57, "duration": 11, "velocity": 96}, {"time": 2892, "pitch": 48, "duration": 9, "velocity": 96}, {"time": 2898, "pitch": 57, "duration": 2, "velocity": 46}, {"time": 2898, "pitch": 60, "duration": 11, "velocity": 109}, {"time": 2904, "pitch": 57, "duration": 4, "velocity": 113}, {"time": 2910, "pitch": 41, "duration": 20, "velocity": 101}, {"time": 2910, "pitch": 53, "duration": 4, "velocity": 104}, {"time": 2910, "pitch": 57, "duration": 8, "velocity": 117}, {"time": 2910, "pitch": 60, "duration": 7, "velocity": 109}, {"time": 2910, "pitch": 65, "duration": 6, "velocity": 109}, {"time": 2916, "pitch": 48, "duration": 7, "velocity": 71}, {"time": 2916, "pitch": 53, "duration": 5, "velocity": 96}, {"time": 2922, "pitch": 53, "duration": 5, "velocity": 115}, {"time": 2922, "pitch": 57, "duration": 7, "velocity": 120}, {"time": 2922, "pitch": 63, "duration": 12, "velocity": 112}, {"time": 2928, "pitch": 48, "duration": 5, "velocity": 106}, {"time": 2934, "pitch": 46, "duration": 42, "velocity": 101}, {"time": 2934, "pitch": 62, "duration": 13, "velocity": 88}, {"time": 2940, "pitch": 53, "duration": 6, "velocity": 76}, {"time": 2946, "pitch": 58, "duration": 13, "velocity": 112}, {"time": 2952, "pitch": 53, "duration": 8, "velocity": 51}, {"time": 2958, "pitch": 62, "duration": 10, "velocity": 117}, {"time": 2958, "pitch": 65, "duration": 13, "velocity": 101}, {"time": 2964, "pitch": 53, "duration": 10, "velocity": 56}, {"time": 2970, "pitch": 58, "duration": 5, "velocity": 109}, {"time": 2982, "pitch": 41, "duration": 40, "velocity": 94}, {"time": 2982, "pitch": 57, "duration": 12, "velocity": 117}, {"time": 2988, "pitch": 48, "duration": 8, "velocity": 66}, {"time": 2994, "pitch": 60, "duration": 21, "velocity": 106}, {"time": 3000, "pitch": 57, "duration": 6, "velocity": 29}, {"time": 3006, "pitch": 65, "duration": 12, "velocity": 104}, {"time": 3012, "pitch": 48, "duration": 8, "velocity": 40}, {"time": 3018, "pitch": 57, "duration": 4, "velocity": 117}, {"time": 3018, "pitch": 60, "duration": 5, "velocity": 106}, {"time": 3018, "pitch": 65, "duration": 3, "velocity": 82}, {"time": 3030, "pitch": 43, "duration": 14, "velocity": 99}, {"time": 3030, "pitch": 55, "duration": 13, "velocity": 86}, {"time": 3030, "pitch": 58, "duration": 9, "velocity": 106}, {"time": 3036, "pitch": 50, "duration": 9, "velocity": 70}, {"time": 3042, "pitch": 58, "duration": 3, "velocity": 109}, {"time": 3042, "pitch": 62, "duration": 5, "velocity": 104}, {"time": 3054, "pitch": 41, "duration": 16, "velocity": 101}, {"time": 3054, "pitch": 60, "duration": 9, "velocity": 96}, {"time": 3054, "pitch": 65, "duration": 10, "velocity": 99}, {"time": 3060, "pitch": 48, "duration": 8, "velocity": 47}, {"time": 3066, "pitch": 65, "duration": 6, "velocity": 106}, {"time": 3066, "pitch": 69, "duration": 6, "velocity": 117}, {"time": 3078, "pitch": 50, "duration": 36, "velocity": 110}, {"time": 3078, "pitch": 65, "duration": 14, "velocity": 104}, {"time": 3084, "pitch": 57, "duration": 8, "velocity": 81}, {"time": 3090, "pitch": 62, "duration": 9, "velocity": 110}, {"time": 3096, "pitch": 57, "duration": 17, "velocity": 61}, {"time": 3102, "pitch": 62, "duration": 10, "velocity": 113}, {"time": 3102, "pitch": 69, "duration": 11, "velocity": 107}, {"time": 3114, "pitch": 62, "duration": 4, "velocity": 110}, {"time": 3114, "pitch": 65, "duration": 4, "velocity": 106}, {"time": 3126, "pitch": 51, "duration": 38, "velocity": 106}, {"time": 3126, "pitch": 58, "duration": 5, "velocity": 104}, {"time": 3126, "pitch": 63, "duration": 9, "velocity": 106}, {"time": 3138, "pitch": 67, "duration": 12, "velocity": 120}, {"time": 3144, "pitch": 58, "duration": 4, "velocity": 66}, {"time": 3150, "pitch": 58, "duration": 9, "velocity": 106}, {"time": 3150, "pitch": 63, "duration": 10, "velocity": 109}, {"time": 3162, "pitch": 58, "duration": 7, "velocity": 109}, {"time": 3162, "pitch": 65, "duration": 8, "velocity": 104}, {"time": 3174, "pitch": 50, "duration": 16, "velocity": 113}, {"time": 3174, "pitch": 62, "duration": 10, "velocity": 110}, {"time": 3174, "pitch": 65, "duration": 10, "velocity": 101}, {"time": 3180, "pitch": 57, "duration": 8, "velocity": 77}, {"time": 3186, "pitch": 62, "duration": 10, "velocity": 113}, {"time": 3186, "pitch": 65, "duration": 17, "velocity": 104}, {"time": 3204, "pitch": 62, "duration": 5, "velocity": 93}, {"time": 3210, "pitch": 62, "duration": 6, "velocity": 113}, {"time": 3210, "pitch": 65, "duration": 12, "velocity": 106}, {"time": 3222, "pitch": 48, "duration": 38, "velocity": 94}, {"time": 3222, "pitch": 60, "duration": 10, "velocity": 94}, {"time": 3222, "pitch": 63, "duration": 10, "velocity": 104}, {"time": 3228, "pitch": 55, "duration": 8, "velocity": 49}, {"time": 3234, "pitch": 63, "duration": 1, "velocity": 28}, {"time": 3234, "pitch": 67, "duration": 17, "velocity": 120}, {"time": 3240, "pitch": 55, "duration": 9, "velocity": 47}, {"time": 3246, "pitch": 58, "duration": 13, "velocity": 101}, {"time": 3246, "pitch": 63, "duration": 9, "velocity": 104}, {"time": 3252, "pitch": 55, "duration": 6, "velocity": 52}, {"time": 3258, "pitch": 63, "duration": 6, "velocity": 109}, {"time": 3258, "pitch": 67, "duration": 6, "velocity": 117}, {"time": 3264, "pitch": 58, "duration": 2, "velocity": 101}, {"time": 3268, "pitch": 53, "duration": 9, "velocity": 76}, {"time": 3269, "pitch": 57, "duration": 14, "velocity": 86}, {"time": 3270, "pitch": 41, "duration": 37, "velocity": 99}, {"time": 3270, "pitch": 60, "duration": 21, "velocity": 89}, {"time": 3276, "pitch": 48, "duration": 26, "velocity": 47}, {"time": 3282, "pitch": 53, "duration": 32, "velocity": 89}, {"time": 3288, "pitch": 57, "duration": 5, "velocity": 113}, {"time": 3295, "pitch": 57, "duration": 19, "velocity": 88}, {"time": 3295, "pitch": 60, "duration": 20, "velocity": 78}, {"time": 3318, "pitch": 43, "duration": 19, "velocity": 110}, {"time": 3324, "pitch": 50, "duration": 13, "velocity": 81}, {"time": 3331, "pitch": 62, "duration": 27, "velocity": 101}, {"time": 3337, "pitch": 55, "duration": 7, "velocity": 88}, {"time": 3343, "pitch": 41, "duration": 16, "velocity": 96}, {"time": 3348, "pitch": 48, "duration": 11, "velocity": 80}, {"time": 3354, "pitch": 53, "duration": 6, "velocity": 101}, {"time": 3364, "pitch": 51, "duration": 2, "velocity": 82}, {"time": 3365, "pitch": 55, "duration": 2, "velocity": 68}, {"time": 3365, "pitch": 39, "duration": 2, "velocity": 101}, {"time": 3366, "pitch": 58, "duration": 2, "velocity": 87}, {"time": 3367, "pitch": 63, "duration": 8, "velocity": 101}, {"time": 3372, "pitch": 51, "duration": 13, "velocity": 91}, {"time": 3378, "pitch": 58, "duration": 7, "velocity": 104}, {"time": 3385, "pitch": 63, "duration": 1, "velocity": 115}, {"time": 3390, "pitch": 62, "duration": 10, "velocity": 104}, {"time": 3390, "pitch": 50, "duration": 23, "velocity": 110}, {"time": 3391, "pitch": 65, "duration": 6, "velocity": 104}, {"time": 3396, "pitch": 57, "duration": 9, "velocity": 117}, {"time": 3402, "pitch": 69, "duration": 11, "velocity": 113}, {"time": 3402, "pitch": 62, "duration": 11, "velocity": 117}, {"time": 3402, "pitch": 65, "duration": 11, "velocity": 112}, {"time": 3407, "pitch": 57, "duration": 6, "velocity": 120}, {"time": 3411, "pitch": 58, "duration": 10, "velocity": 85}, {"time": 3412, "pitch": 63, "duration": 14, "velocity": 99}, {"time": 3413, "pitch": 39, "duration": 42, "velocity": 106}, {"time": 3413, "pitch": 67, "duration": 16, "velocity": 99}, {"time": 3419, "pitch": 46, "duration": 35, "velocity": 91}, {"time": 3426, "pitch": 58, "duration": 9, "velocity": 112}, {"time": 3432, "pitch": 63, "duration": 4, "velocity": 94}, {"time": 3438, "pitch": 58, "duration": 24, "velocity": 82}, {"time": 3440, "pitch": 63, "duration": 17, "velocity": 96}, {"time": 3440, "pitch": 67, "duration": 21, "velocity": 91}, {"time": 3465, "pitch": 62, "duration": 44, "velocity": 91}, {"time": 3465, "pitch": 50, "duration": 21, "velocity": 110}, {"time": 3467, "pitch": 65, "duration": 47, "velocity": 94}, {"time": 3536, "pitch": 60, "duration": 29, "velocity": 73}, {"time": 3537, "pitch": 63, "duration": 29, "velocity": 89}, {"time": 3537, "pitch": 48, "duration": 29, "velocity": 76}, {"time": 3538, "pitch": 67, "duration": 28, "velocity": 88}, {"time": 3563, "pitch": 55, "duration": 2, "velocity": 42}, {"time": 3571, "pitch": 41, "duration": 16, "velocity": 87}, {"time": 3579, "pitch": 48, "duration": 9, "velocity": 55}, {"time": 3589, "pitch": 51, "duration": 29, "velocity": 80}, {"time": 3590, "pitch": 39, "duration": 11, "velocity": 80}, {"time": 3591, "pitch": 54, "duration": 31, "velocity": 74}, {"time": 3592, "pitch": 58, "duration": 38, "velocity": 82}, {"time": 3641, "pitch": 46, "duration": 101, "velocity": 104}, {"time": 3646, "pitch": 53, "duration": 14, "velocity": 71}, {"time": 3649, "pitch": 60, "duration": 9, "velocity": 76}, {"time": 3652, "pitch": 62, "duration": 8, "velocity": 110}, {"time": 3657, "pitch": 65, "duration": 10, "velocity": 99}, {"time": 3662, "pitch": 58, "duration": 9, "velocity": 74}, {"time": 3669, "pitch": 53, "duration": 8, "velocity": 28}, {"time": 3678, "pitch": 50, "duration": 63, "velocity": 44}, {"time": 3681, "pitch": 70, "duration": 2, "velocity": 43}, {"time": 3682, "pitch": 74, "duration": 4, "velocity": 93}, {"time": 3688, "pitch": 69, "duration": 3, "velocity": 107}, {"time": 3695, "pitch": 65, "duration": 3, "velocity": 87}, {"time": 3702, "pitch": 62, "duration": 7, "velocity": 70}, {"time": 3713, "pitch": 53, "duration": 28, "velocity": 20}, {"time": 3716, "pitch": 57, "duration": 4, "velocity": 74}, {"time": 3720, "pitch": 58, "duration": 9, "velocity": 91}, {"time": 3725, "pitch": 62, "duration": 6, "velocity": 40}, {"time": 3730, "pitch": 65, "duration": 10, "velocity": 62}, {"time": 3738, "pitch": 69, "duration": 5, "velocity": 59}, {"time": 3751, "pitch": 46, "duration": 41, "velocity": 44}, {"time": 3753, "pitch": 53, "duration": 39, "velocity": 54}, {"time": 3754, "pitch": 70, "duration": 43, "velocity": 74}, {"time": 3757, "pitch": 77, "duration": 41, "velocity": 8}], "annotations": [{"time": 139, "annotation": {"number": 64, "value": 127}, "group": "control_change"}, {"time": 193, "annotation": {"number": 64, "value": 0}, "group": "control_change"}, {"time": 215, "annotation": {"number": 64, "value": 127}, "group": "control_change"}, {"time": 295, "annotation": {"number": 64, "value": 127}, "group": "control_change"}, {"time": 329, "annotation": {"number": 64, "value": 0}, "group": "control_change"}, {"time": 330, "annotation": {"number": 1, "value": 94}, "group": "control_change"}, {"time": 339, "annotation": {"number": 64, "value": 127}, "group": "control_change"}, {"time": 340, "annotation": {"number": 64, "value": 0}, "group": "control_change"}, {"time": 340, "annotation": {"number": 64, "value": 127}, "group": "control_change"}, {"time": 377, "annotation": {"number": 64, "value": 0}, "group": "control_change"}, {"time": 385, "annotation": {"number": 64, "value": 127}, "group": "control_change"}, {"time": 425, "annotation": {"number": 64, "value": 0}, "group": "control_change"}, {"time": 430, "annotation": {"number": 64, "value": 127}, "group": "control_change"}, {"time": 451, "annotation": {"number": 64, "value": 0}, "group": "control_change"}, {"time": 455, "annotation": {"number": 64, "value": 127}, "group": "control_change"}, {"time": 474, "annotation": {"number": 64, "value": 0}, "group": "control_change"}, {"time": 486, "annotation": {"number": 64, "value": 127}, "group": "control_change"}, {"time": 521, "annotation": {"number": 64, "value": 0}, "group": "control_change"}, {"time": 535, "annotation": {"number": 64, "value": 127}, "group": "control_change"}, {"time": 569, "annotation": {"number": 64, "value": 0}, "group": "control_change"}, {"time": 574, "annotation": {"number": 64, "value": 127}, "group": "control_change"}, {"time": 619, "annotation": {"number": 64, "value": 0}, "group": "control_change"}, {"time": 622, "annotation": {"number": 64, "value": 127}, "group": "control_change"}, {"time": 663, "annotation": {"number": 64, "value": 0}, "group": "control_change"}, {"time": 668, "annotation": {"number": 64, "value": 127}, "group": "control_change"}, {"time": 713, "annotation": {"number": 64, "value": 0}, "group": "control_change"}, {"time": 721, "annotation": {"number": 64, "value": 127}, "group": "control_change"}, {"time": 761, "annotation": {"number": 64, "value": 0}, "group": "control_change"}, {"time": 767, "annotation": {"number": 64, "value": 127}, "group": "control_change"}, {"time": 811, "annotation": {"number": 64, "value": 0}, "group": "control_change"}, {"time": 813, "annotation": {"number": 64, "value": 127}, "group": "control_change"}, {"time": 838, "annotation": {"number": 64, "value": 0}, "group": "control_change"}, {"time": 841, "annotation": {"number": 64, "value": 127}, "group": "control_change"}, {"time": 855, "annotation": {"number": 64, "value": 0}, "group": "control_change"}, {"time": 863, "annotation": {"number": 64, "value": 127}, "group": "control_change"}, {"time": 905, "annotation": {"number": 64, "value": 0}, "group": "control_change"}, {"time": 946, "annotation": {"number": 64, "value": 127}, "group": "control_change"}, {"time": 953, "annotation": {"number": 64, "value": 0}, "group": "control_change"}, {"time": 967, "annotation": {"number": 64, "value": 127}, "group": "control_change"}, {"time": 1010, "annotation": {"number": 64, "value": 127}, "group": "control_change"}, {"time": 1051, "annotation": {"number": 64, "value": 0}, "group": "control_change"}, {"time": 1056, "annotation": {"number": 64, "value": 127}, "group": "control_change"}, {"time": 1098, "annotation": {"number": 64, "value": 0}, "group": "control_change"}, {"time": 1105, "annotation": {"number": 64, "value": 127}, "group": "control_change"}, {"time": 1147, "annotation": {"number": 64, "value": 0}, "group": "control_change"}, {"time": 1152, "annotation": {"number": 64, "value": 127}, "group": "control_change"}, {"time": 1193, "annotation": {"number": 64, "value": 0}, "group": "control_change"}, {"time": 1196, "annotation": {"number": 64, "value": 127}, "group": "control_change"}, {"time": 1219, "annotation": {"number": 64, "value": 0}, "group": "control_change"}, {"time": 1221, "annotation": {"number": 64, "value": 127}, "group": "control_change"}, {"time": 1243, "annotation": {"number": 64, "value": 0}, "group": "control_change"}, {"time": 1244, "annotation": {"number": 64, "value": 127}, "group": "control_change"}, {"time": 1302, "annotation": {"number": 64, "value": 127}, "group": "control_change"}, {"time": 1303, "annotation": {"number": 64, "value": 0}, "group": "control_change"}, {"time": 1303, "annotation": {"number": 64, "value": 127}, "group": "control_change"}, {"time": 1338, "annotation": {"number": 64, "value": 0}, "group": "control_change"}, {"time": 1344, "annotation": {"number": 64, "value": 127}, "group": "control_change"}, {"time": 1385, "annotation": {"number": 64, "value": 0}, "group": "control_change"}, {"time": 1392, "annotation": {"number": 64, "value": 127}, "group": "control_change"}, {"time": 1410, "annotation": {"number": 64, "value": 0}, "group": "control_change"}, {"time": 1415, "annotation": {"number": 64, "value": 127}, "group": "control_change"}, {"time": 1434, "annotation": {"number": 64, "value": 0}, "group": "control_change"}, {"time": 1442, "annotation": {"number": 64, "value": 127}, "group": "control_change"}, {"time": 1481, "annotation": {"number": 64, "value": 0}, "group": "control_change"}, {"time": 1487, "annotation": {"number": 64, "value": 127}, "group": "control_change"}, {"time": 1506, "annotation": {"number": 64, "value": 0}, "group": "control_change"}, {"time": 1507, "annotation": {"number": 64, "value": 127}, "group": "control_change"}, {"time": 1528, "annotation": {"number": 64, "value": 0}, "group": "control_change"}, {"time": 1532, "annotation": {"number": 64, "value": 127}, "group": "control_change"}, {"time": 1554, "annotation": {"number": 64, "value": 0}, "group": "control_change"}, {"time": 1565, "annotation": {"number": 64, "value": 127}, "group": "control_change"}, {"time": 1577, "annotation": {"number": 64, "value": 0}, "group": "control_change"}, {"time": 1582, "annotation": {"number": 64, "value": 127}, "group": "control_change"}, {"time": 1626, "annotation": {"number": 64, "value": 0}, "group": "control_change"}, {"time": 1629, "annotation": {"number": 64, "value": 127}, "group": "control_change"}, {"time": 1649, "annotation": {"number": 64, "value": 0}, "group": "control_change"}, {"time": 1651, "annotation": {"number": 64, "value": 127}, "group": "control_change"}, {"time": 1673, "annotation": {"number": 64, "value": 0}, "group": "control_change"}, {"time": 1686, "annotation": {"number": 64, "value": 127}, "group": "control_change"}, {"time": 1687, "annotation": {"number": 64, "value": 0}, "group": "control_change"}, {"time": 1687, "annotation": {"number": 64, "value": 127}, "group": "control_change"}, {"time": 1722, "annotation": {"number": 64, "value": 0}, "group": "control_change"}, {"time": 1728, "annotation": {"number": 64, "value": 127}, "group": "control_change"}, {"time": 1769, "annotation": {"number": 64, "value": 0}, "group": "control_change"}, {"time": 1776, "annotation": {"number": 64, "value": 127}, "group": "control_change"}, {"time": 1794, "annotation": {"number": 64, "value": 0}, "group": "control_change"}, {"time": 1799, "annotation": {"number": 64, "value": 127}, "group": "control_change"}, {"time": 1818, "annotation": {"number": 64, "value": 0}, "group": "control_change"}, {"time": 1826, "annotation": {"number": 64, "value": 127}, "group": "control_change"}, {"time": 1865, "annotation": {"number": 64, "value": 0}, "group": "control_change"}, {"time": 1871, "annotation": {"number": 64, "value": 127}, "group": "control_change"}, {"time": 1890, "annotation": {"number": 64, "value": 0}, "group": "control_change"}, {"time": 1891, "annotation": {"number": 64, "value": 127}, "group": "control_change"}, {"time": 1912, "annotation": {"number": 64, "value": 0}, "group": "control_change"}, {"time": 1916, "annotation": {"number": 64, "value": 127}, "group": "control_change"}, {"time": 1938, "annotation": {"number": 64, "value": 0}, "group": "control_change"}, {"time": 1949, "annotation": {"number": 64, "value": 127}, "group": "control_change"}, {"time": 1961, "annotation": {"number": 64, "value": 0}, "group": "control_change"}, {"time": 1966, "annotation": {"number": 64, "value": 127}, "group": "control_change"}, {"time": 2010, "annotation": {"number": 64, "value": 0}, "group": "control_change"}, {"time": 2013, "annotation": {"number": 64, "value": 127}, "group": "control_change"}, {"time": 2033, "annotation": {"number": 64, "value": 0}, "group": "control_change"}, {"time": 2035, "annotation": {"number": 64, "value": 127}, "group": "control_change"}, {"time": 2046, "annotation": {"number": 64, "value": 127}, "group": "control_change"}, {"time": 2057, "annotation": {"number": 64, "value": 0}, "group": "control_change"}, {"time": 2082, "annotation": {"number": 64, "value": 0}, "group": "control_change"}, {"time": 2209, "annotation": {"number": 64, "value": 127}, "group": "control_change"}, {"time": 2209, "annotation": {"number": 64, "value": 0}, "group": "control_change"}, {"time": 2225, "annotation": {"number": 64, "value": 0}, "group": "control_change"}, {"time": 2231, "annotation": {"number": 64, "value": 127}, "group": "control_change"}, {"time": 2248, "annotation": {"number": 64, "value": 0}, "group": "control_change"}, {"time": 2254, "annotation": {"number": 64, "value": 127}, "group": "control_change"}, {"time": 2274, "annotation": {"number": 64, "value": 0}, "group": "control_change"}, {"time": 2277, "annotation": {"number": 64, "value": 127}, "group": "control_change"}, {"time": 2297, "annotation": {"number": 64, "value": 0}, "group": "control_change"}, {"time": 2304, "annotation": {"number": 64, "value": 127}, "group": "control_change"}, {"time": 2321, "annotation": {"number": 64, "value": 0}, "group": "control_change"}, {"time": 2324, "annotation": {"number": 64, "value": 127}, "group": "control_change"}, {"time": 2344, "annotation": {"number": 64, "value": 0}, "group": "control_change"}, {"time": 2348, "annotation": {"number": 64, "value": 127}, "group": "control_change"}, {"time": 2369, "annotation": {"number": 64, "value": 0}, "group": "control_change"}, {"time": 2372, "annotation": {"number": 64, "value": 127}, "group": "control_change"}, {"time": 2393, "annotation": {"number": 64, "value": 0}, "group": "control_change"}, {"time": 2397, "annotation": {"number": 64, "value": 127}, "group": "control_change"}, {"time": 2443, "annotation": {"number": 64, "value": 0}, "group": "control_change"}, {"time": 2449, "annotation": {"number": 64, "value": 127}, "group": "control_change"}, {"time": 2489, "annotation": {"number": 64, "value": 0}, "group": "control_change"}, {"time": 2492, "annotation": {"number": 64, "value": 127}, "group": "control_change"}, {"time": 2546, "annotation": {"number": 64, "value": 0}, "group": "control_change"}, {"time": 2562, "annotation": {"number": 64, "value": 127}, "group": "control_change"}, {"time": 2563, "annotation": {"number": 64, "value": 0}, "group": "control_change"}, {"time": 2563, "annotation": {"number": 64, "value": 127}, "group": "control_change"}, {"time": 2598, "annotation": {"number": 64, "value": 0}, "group": "control_change"}, {"time": 2604, "annotation": {"number": 64, "value": 127}, "group": "control_change"}, {"time": 2645, "annotation": {"number": 64, "value": 0}, "group": "control_change"}, {"time": 2652, "annotation": {"number": 64, "value": 127}, "group": "control_change"}, {"time": 2670, "annotation": {"number": 64, "value": 0}, "group": "control_change"}, {"time": 2675, "annotation": {"number": 64, "value": 127}, "group": "control_change"}, {"time": 2694, "annotation": {"number": 64, "value": 0}, "group": "control_change"}, {"time": 2702, "annotation": {"number": 64, "value": 127}, "group": "control_change"}, {"time": 2741, "annotation": {"number": 64, "value": 0}, "group": "control_change"}, {"time": 2747, "annotation": {"number": 64, "value": 127}, "group": "control_change"}, {"time": 2766, "annotation": {"number": 64, "value": 0}, "group": "control_change"}, {"time": 2767, "annotation": {"number": 64, "value": 127}, "group": "control_change"}, {"time": 2788, "annotation": {"number": 64, "value": 0}, "group": "control_change"}, {"time": 2792, "annotation": {"number": 64, "value": 127}, "group": "control_change"}, {"time": 2814, "annotation": {"number": 64, "value": 0}, "group": "control_change"}, {"time": 2825, "annotation": {"number": 64, "value": 127}, "group": "control_change"}, {"time": 2837, "annotation": {"number": 64, "value": 0}, "group": "control_change"}, {"time": 2842, "annotation": {"number": 64, "value": 127}, "group": "control_change"}, {"time": 2886, "annotation": {"number": 64, "value": 0}, "group": "control_change"}, {"time": 2889, "annotation": {"number": 64, "value": 127}, "group": "control_change"}, {"time": 2909, "annotation": {"number": 64, "value": 0}, "group": "control_change"}, {"time": 2911, "annotation": {"number": 64, "value": 127}, "group": "control_change"}, {"time": 2933, "annotation": {"number": 64, "value": 0}, "group": "control_change"}, {"time": 2946, "annotation": {"number": 64, "value": 127}, "group": "control_change"}, {"time": 2947, "annotation": {"number": 64, "value": 0}, "group": "control_change"}, {"time": 2947, "annotation": {"number": 64, "value": 127}, "group": "control_change"}, {"time": 2982, "annotation": {"number": 64, "value": 0}, "group": "control_change"}, {"time": 2988, "annotation": {"number": 64, "value": 127}, "group": "control_change"}, {"time": 3029, "annotation": {"number": 64, "value": 0}, "group": "control_change"}, {"time": 3036, "annotation": {"number": 64, "value": 127}, "group": "control_change"}, {"time": 3054, "annotation": {"number": 64, "value": 0}, "group": "control_change"}, {"time": 3059, "annotation": {"number": 64, "value": 127}, "group": "control_change"}, {"time": 3078, "annotation": {"number": 64, "value": 0}, "group": "control_change"}, {"time": 3086, "annotation": {"number": 64, "value": 127}, "group": "control_change"}, {"time": 3125, "annotation": {"number": 64, "value": 0}, "group": "control_change"}, {"time": 3131, "annotation": {"number": 64, "value": 127}, "group": "control_change"}, {"time": 3150, "annotation": {"number": 64, "value": 0}, "group": "control_change"}, {"time": 3151, "annotation": {"number": 64, "value": 127}, "group": "control_change"}, {"time": 3172, "annotation": {"number": 64, "value": 0}, "group": "control_change"}, {"time": 3176, "annotation": {"number": 64, "value": 127}, "group": "control_change"}, {"time": 3198, "annotation": {"number": 64, "value": 0}, "group": "control_change"}, {"time": 3209, "annotation": {"number": 64, "value": 127}, "group": "control_change"}, {"time": 3221, "annotation": {"number": 64, "value": 0}, "group": "control_change"}, {"time": 3226, "annotation": {"number": 64, "value": 127}, "group": "control_change"}, {"time": 3270, "annotation": {"number": 64, "value": 0}, "group": "control_change"}, {"time": 3276, "annotation": {"number": 64, "value": 127}, "group": "control_change"}, {"time": 3277, "annotation": {"number": 64, "value": 0}, "group": "control_change"}, {"time": 3278, "annotation": {"number": 64, "value": 127}, "group": "control_change"}, {"time": 3316, "annotation": {"number": 64, "value": 0}, "group": "control_change"}, {"time": 3322, "annotation": {"number": 64, "value": 127}, "group": "control_change"}, {"time": 3345, "annotation": {"number": 64, "value": 0}, "group": "control_change"}, {"time": 3351, "annotation": {"number": 64, "value": 127}, "group": "control_change"}, {"time": 3364, "annotation": {"number": 64, "value": 0}, "group": "control_change"}, {"time": 3366, "annotation": {"number": 64, "value": 127}, "group": "control_change"}, {"time": 3389, "annotation": {"number": 64, "value": 0}, "group": "control_change"}, {"time": 3392, "annotation": {"number": 64, "value": 127}, "group": "control_change"}, {"time": 3412, "annotation": {"number": 64, "value": 0}, "group": "control_change"}, {"time": 3420, "annotation": {"number": 64, "value": 127}, "group": "control_change"}, {"time": 3466, "annotation": {"number": 64, "value": 0}, "group": "control_change"}, {"time": 3483, "annotation": {"number": 64, "value": 127}, "group": "control_change"}, {"time": 3486, "annotation": {"number": 64, "value": 0}, "group": "control_change"}, {"time": 3493, "annotation": {"number": 64, "value": 127}, "group": "control_change"}, {"time": 3534, "annotation": {"number": 64, "value": 0}, "group": "control_change"}, {"time": 3562, "annotation": {"number": 64, "value": 127}, "group": "control_change"}, {"time": 3572, "annotation": {"number": 64, "value": 0}, "group": "control_change"}, {"time": 3578, "annotation": {"number": 64, "value": 127}, "group": "control_change"}, {"time": 3639, "annotation": {"number": 64, "value": 0}, "group": "control_change"}, {"time": 3645, "annotation": {"number": 64, "value": 127}, "group": "control_change"}]}]}