{"metadata": {"schema_version": "0.2", "title": "None", "source_filename": "124.mid", "source_format": "midi"}, "resolution": 12, "tempos": [{"time": 0, "qpm": 92.00012880018032}, {"time": 132, "qpm": 93.000186000372}, {"time": 597, "qpm": 92.00012880018032}, {"time": 731, "qpm": 93.000186000372}, {"time": 1007, "qpm": 92.00012880018032}, {"time": 1380, "qpm": 93.000186000372}, {"time": 2112, "qpm": 94.00012846684224}, {"time": 2148, "qpm": 93.000186000372}, {"time": 2339, "qpm": 92.00012880018032}, {"time": 2505, "qpm": 93.000186000372}, {"time": 3016, "qpm": 89.00004005001803}, {"time": 3023, "qpm": 85.00004250002125}, {"time": 3027, "qpm": 81.000081000081}, {"time": 3035, "qpm": 78.00017940041262}, {"time": 3039, "qpm": 73.00007178340392}], "time_signatures": [{"time": 0, "numerator": 1, "denominator": 4}], "tracks": [{"program": 0, "is_drum": false, "name": "MELODY", "notes": [{"time": 423, "pitch": 67, "duration": 14, "velocity": 104}, {"time": 441, "pitch": 71, "duration": 4, "velocity": 106}, {"time": 447, "pitch": 59, "duration": 4, "velocity": 112}, {"time": 453, "pitch": 62, "duration": 3, "velocity": 109}, {"time": 459, "pitch": 64, "duration": 4, "velocity": 109}, {"time": 465, "pitch": 67, "duration": 4, "velocity": 112}, {"time": 471, "pitch": 71, "duration": 41, "velocity": 106}, {"time": 519, "pitch": 67, "duration": 14, "velocity": 112}, {"time": 537, "pitch": 71, "duration": 4, "velocity": 109}, {"time": 543, "pitch": 69, "duration": 4, "velocity": 106}, {"time": 549, "pitch": 67, "duration": 4, "velocity": 112}, {"time": 555, "pitch": 64, "duration": 4, "velocity": 112}, {"time": 561, "pitch": 67, "duration": 3, "velocity": 106}, {"time": 567, "pitch": 62, "duration": 41, "velocity": 115}, {"time": 615, "pitch": 67, "duration": 15, "velocity": 115}, {"time": 633, "pitch": 71, "duration": 3, "velocity": 109}, {"time": 639, "pitch": 59, "duration": 4, "velocity": 112}, {"time": 645, "pitch": 62, "duration": 3, "velocity": 112}, {"time": 651, "pitch": 64, "duration": 3, "velocity": 106}, {"time": 657, "pitch": 67, "duration": 4, "velocity": 109}, {"time": 663, "pitch": 69, "duration": 44, "velocity": 109}, {"time": 711, "pitch": 67, "duration": 14, "velocity": 109}, {"time": 729, "pitch": 69, "duration": 3, "velocity": 112}, {"time": 735, "pitch": 64, "duration": 4, "velocity": 112}, {"time": 741, "pitch": 67, "duration": 3, "velocity": 109}, {"time": 747, "pitch": 62, "duration": 5, "velocity": 118}, {"time": 753, "pitch": 59, "duration": 2, "velocity": 112}, {"time": 759, "pitch": 62, "duration": 45, "velocity": 112}, {"time": 807, "pitch": 59, "duration": 15, "velocity": 115}, {"time": 825, "pitch": 62, "duration": 4, "velocity": 109}, {"time": 831, "pitch": 59, "duration": 4, "velocity": 109}, {"time": 837, "pitch": 57, "duration": 3, "velocity": 115}, {"time": 843, "pitch": 55, "duration": 4, "velocity": 112}, {"time": 849, "pitch": 59, "duration": 4, "velocity": 112}, {"time": 855, "pitch": 57, "duration": 40, "velocity": 112}, {"time": 903, "pitch": 62, "duration": 15, "velocity": 115}, {"time": 921, "pitch": 64, "duration": 3, "velocity": 112}, {"time": 927, "pitch": 62, "duration": 4, "velocity": 112}, {"time": 933, "pitch": 59, "duration": 4, "velocity": 115}, {"time": 939, "pitch": 67, "duration": 3, "velocity": 109}, {"time": 945, "pitch": 69, "duration": 10, "velocity": 109}, {"time": 957, "pitch": 64, "duration": 37, "velocity": 115}, {"time": 999, "pitch": 67, "duration": 3, "velocity": 112}, {"time": 1005, "pitch": 71, "duration": 5, "velocity": 109}, {"time": 1017, "pitch": 67, "duration": 3, "velocity": 106}, {"time": 1023, "pitch": 59, "duration": 10, "velocity": 112}, {"time": 1035, "pitch": 62, "duration": 8, "velocity": 112}, {"time": 1047, "pitch": 64, "duration": 3, "velocity": 109}, {"time": 1053, "pitch": 67, "duration": 4, "velocity": 109}, {"time": 1065, "pitch": 64, "duration": 3, "velocity": 101}, {"time": 1071, "pitch": 57, "duration": 9, "velocity": 115}, {"time": 1083, "pitch": 59, "duration": 10, "velocity": 112}, {"time": 1107, "pitch": 62, "duration": 4, "velocity": 115}, {"time": 1113, "pitch": 64, "duration": 4, "velocity": 115}, {"time": 1119, "pitch": 67, "duration": 9, "velocity": 112}, {"time": 1131, "pitch": 69, "duration": 9, "velocity": 115}, {"time": 1143, "pitch": 71, "duration": 9, "velocity": 109}, {"time": 1155, "pitch": 64, "duration": 3, "velocity": 109}, {"time": 1161, "pitch": 67, "duration": 3, "velocity": 115}, {"time": 1167, "pitch": 69, "duration": 8, "velocity": 112}, {"time": 1179, "pitch": 71, "duration": 3, "velocity": 118}, {"time": 1185, "pitch": 74, "duration": 4, "velocity": 112}, {"time": 1197, "pitch": 71, "duration": 9, "velocity": 115}, {"time": 1209, "pitch": 74, "duration": 4, "velocity": 112}, {"time": 1215, "pitch": 71, "duration": 5, "velocity": 115}, {"time": 1221, "pitch": 69, "duration": 3, "velocity": 112}, {"time": 1227, "pitch": 67, "duration": 4, "velocity": 112}, {"time": 1233, "pitch": 71, "duration": 4, "velocity": 112}, {"time": 1239, "pitch": 69, "duration": 46, "velocity": 112}, {"time": 1293, "pitch": 62, "duration": 9, "velocity": 109}, {"time": 1305, "pitch": 64, "duration": 2, "velocity": 104}, {"time": 1311, "pitch": 62, "duration": 3, "velocity": 99}, {"time": 1317, "pitch": 59, "duration": 3, "velocity": 94}, {"time": 1323, "pitch": 67, "duration": 3, "velocity": 96}, {"time": 1329, "pitch": 69, "duration": 3, "velocity": 99}, {"time": 1335, "pitch": 64, "duration": 26, "velocity": 85}, {"time": 1383, "pitch": 67, "duration": 15, "velocity": 104}, {"time": 1401, "pitch": 71, "duration": 4, "velocity": 106}, {"time": 1407, "pitch": 59, "duration": 4, "velocity": 109}, {"time": 1413, "pitch": 62, "duration": 3, "velocity": 112}, {"time": 1419, "pitch": 64, "duration": 3, "velocity": 106}, {"time": 1425, "pitch": 67, "duration": 4, "velocity": 112}, {"time": 1431, "pitch": 69, "duration": 43, "velocity": 106}, {"time": 1479, "pitch": 67, "duration": 8, "velocity": 112}, {"time": 1491, "pitch": 64, "duration": 3, "velocity": 109}, {"time": 1497, "pitch": 67, "duration": 3, "velocity": 109}, {"time": 1503, "pitch": 62, "duration": 3, "velocity": 109}, {"time": 1509, "pitch": 59, "duration": 3, "velocity": 112}, {"time": 1515, "pitch": 62, "duration": 3, "velocity": 112}, {"time": 1521, "pitch": 69, "duration": 3, "velocity": 109}, {"time": 1527, "pitch": 67, "duration": 47, "velocity": 106}, {"time": 1767, "pitch": 67, "duration": 14, "velocity": 104}, {"time": 1785, "pitch": 71, "duration": 4, "velocity": 106}, {"time": 1791, "pitch": 59, "duration": 4, "velocity": 112}, {"time": 1797, "pitch": 62, "duration": 3, "velocity": 109}, {"time": 1803, "pitch": 64, "duration": 4, "velocity": 109}, {"time": 1809, "pitch": 67, "duration": 4, "velocity": 112}, {"time": 1815, "pitch": 71, "duration": 41, "velocity": 106}, {"time": 1863, "pitch": 67, "duration": 14, "velocity": 112}, {"time": 1881, "pitch": 71, "duration": 4, "velocity": 109}, {"time": 1887, "pitch": 69, "duration": 4, "velocity": 106}, {"time": 1893, "pitch": 67, "duration": 4, "velocity": 112}, {"time": 1899, "pitch": 64, "duration": 4, "velocity": 112}, {"time": 1905, "pitch": 67, "duration": 3, "velocity": 106}, {"time": 1911, "pitch": 62, "duration": 41, "velocity": 115}, {"time": 1959, "pitch": 67, "duration": 15, "velocity": 115}, {"time": 1977, "pitch": 71, "duration": 3, "velocity": 109}, {"time": 1983, "pitch": 59, "duration": 4, "velocity": 112}, {"time": 1989, "pitch": 62, "duration": 3, "velocity": 112}, {"time": 1995, "pitch": 64, "duration": 3, "velocity": 106}, {"time": 2001, "pitch": 67, "duration": 4, "velocity": 109}, {"time": 2007, "pitch": 69, "duration": 44, "velocity": 109}, {"time": 2055, "pitch": 67, "duration": 14, "velocity": 109}, {"time": 2073, "pitch": 69, "duration": 3, "velocity": 112}, {"time": 2079, "pitch": 64, "duration": 4, "velocity": 112}, {"time": 2085, "pitch": 67, "duration": 3, "velocity": 109}, {"time": 2091, "pitch": 62, "duration": 5, "velocity": 118}, {"time": 2097, "pitch": 59, "duration": 2, "velocity": 112}, {"time": 2103, "pitch": 62, "duration": 45, "velocity": 112}, {"time": 2151, "pitch": 59, "duration": 15, "velocity": 115}, {"time": 2169, "pitch": 62, "duration": 4, "velocity": 109}, {"time": 2175, "pitch": 59, "duration": 4, "velocity": 109}, {"time": 2181, "pitch": 57, "duration": 3, "velocity": 115}, {"time": 2187, "pitch": 55, "duration": 4, "velocity": 112}, {"time": 2193, "pitch": 59, "duration": 4, "velocity": 112}, {"time": 2199, "pitch": 57, "duration": 40, "velocity": 112}, {"time": 2247, "pitch": 62, "duration": 15, "velocity": 115}, {"time": 2265, "pitch": 64, "duration": 3, "velocity": 112}, {"time": 2271, "pitch": 62, "duration": 4, "velocity": 112}, {"time": 2277, "pitch": 59, "duration": 4, "velocity": 115}, {"time": 2283, "pitch": 67, "duration": 3, "velocity": 109}, {"time": 2289, "pitch": 69, "duration": 10, "velocity": 109}, {"time": 2301, "pitch": 64, "duration": 37, "velocity": 115}, {"time": 2343, "pitch": 67, "duration": 3, "velocity": 112}, {"time": 2349, "pitch": 71, "duration": 5, "velocity": 109}, {"time": 2361, "pitch": 67, "duration": 3, "velocity": 106}, {"time": 2367, "pitch": 59, "duration": 10, "velocity": 112}, {"time": 2379, "pitch": 62, "duration": 8, "velocity": 112}, {"time": 2391, "pitch": 64, "duration": 3, "velocity": 109}, {"time": 2397, "pitch": 67, "duration": 4, "velocity": 109}, {"time": 2409, "pitch": 64, "duration": 3, "velocity": 101}, {"time": 2415, "pitch": 57, "duration": 9, "velocity": 115}, {"time": 2427, "pitch": 59, "duration": 10, "velocity": 112}, {"time": 2451, "pitch": 62, "duration": 4, "velocity": 115}, {"time": 2457, "pitch": 64, "duration": 4, "velocity": 115}, {"time": 2463, "pitch": 67, "duration": 9, "velocity": 112}, {"time": 2475, "pitch": 69, "duration": 9, "velocity": 115}, {"time": 2487, "pitch": 71, "duration": 9, "velocity": 109}, {"time": 2499, "pitch": 64, "duration": 3, "velocity": 109}, {"time": 2505, "pitch": 67, "duration": 3, "velocity": 115}, {"time": 2511, "pitch": 69, "duration": 8, "velocity": 112}, {"time": 2523, "pitch": 71, "duration": 3, "velocity": 118}, {"time": 2529, "pitch": 74, "duration": 4, "velocity": 112}, {"time": 2541, "pitch": 71, "duration": 9, "velocity": 115}, {"time": 2553, "pitch": 74, "duration": 4, "velocity": 112}, {"time": 2559, "pitch": 71, "duration": 5, "velocity": 115}, {"time": 2565, "pitch": 69, "duration": 3, "velocity": 112}, {"time": 2571, "pitch": 67, "duration": 4, "velocity": 112}, {"time": 2577, "pitch": 71, "duration": 4, "velocity": 112}, {"time": 2583, "pitch": 69, "duration": 46, "velocity": 112}, {"time": 2637, "pitch": 62, "duration": 9, "velocity": 109}, {"time": 2649, "pitch": 64, "duration": 2, "velocity": 104}, {"time": 2655, "pitch": 62, "duration": 3, "velocity": 99}, {"time": 2661, "pitch": 59, "duration": 3, "velocity": 94}, {"time": 2667, "pitch": 67, "duration": 3, "velocity": 96}, {"time": 2673, "pitch": 69, "duration": 3, "velocity": 99}, {"time": 2679, "pitch": 64, "duration": 26, "velocity": 85}, {"time": 2727, "pitch": 67, "duration": 15, "velocity": 104}, {"time": 2745, "pitch": 71, "duration": 4, "velocity": 106}, {"time": 2751, "pitch": 59, "duration": 4, "velocity": 109}, {"time": 2757, "pitch": 62, "duration": 3, "velocity": 112}, {"time": 2763, "pitch": 64, "duration": 3, "velocity": 106}, {"time": 2769, "pitch": 67, "duration": 4, "velocity": 112}, {"time": 2775, "pitch": 69, "duration": 43, "velocity": 106}, {"time": 2823, "pitch": 67, "duration": 8, "velocity": 112}, {"time": 2835, "pitch": 64, "duration": 3, "velocity": 109}, {"time": 2841, "pitch": 67, "duration": 3, "velocity": 109}, {"time": 2847, "pitch": 62, "duration": 3, "velocity": 109}, {"time": 2853, "pitch": 59, "duration": 3, "velocity": 112}, {"time": 2859, "pitch": 62, "duration": 3, "velocity": 112}, {"time": 2865, "pitch": 69, "duration": 3, "velocity": 109}, {"time": 2871, "pitch": 67, "duration": 47, "velocity": 106}]}, {"program": 0, "is_drum": false, "name": "PIANO", "notes": [{"time": 39, "pitch": 43, "duration": 36, "velocity": 104}, {"time": 39, "pitch": 55, "duration": 9, "velocity": 96}, {"time": 39, "pitch": 59, "duration": 13, "velocity": 99}, {"time": 45, "pitch": 50, "duration": 12, "velocity": 47}, {"time": 51, "pitch": 55, "duration": 4, "velocity": 99}, {"time": 57, "pitch": 59, "duration": 15, "velocity": 109}, {"time": 57, "pitch": 62, "duration": 14, "velocity": 109}, {"time": 69, "pitch": 50, "duration": 5, "velocity": 34}, {"time": 75, "pitch": 55, "duration": 6, "velocity": 106}, {"time": 81, "pitch": 59, "duration": 3, "velocity": 104}, {"time": 87, "pitch": 48, "duration": 21, "velocity": 99}, {"time": 87, "pitch": 60, "duration": 8, "velocity": 94}, {"time": 87, "pitch": 64, "duration": 13, "velocity": 101}, {"time": 93, "pitch": 55, "duration": 12, "velocity": 62}, {"time": 99, "pitch": 60, "duration": 8, "velocity": 106}, {"time": 105, "pitch": 64, "duration": 4, "velocity": 94}, {"time": 111, "pitch": 60, "duration": 13, "velocity": 99}, {"time": 111, "pitch": 64, "duration": 21, "velocity": 109}, {"time": 111, "pitch": 68, "duration": 19, "velocity": 107}, {"time": 117, "pitch": 48, "duration": 17, "velocity": 3}, {"time": 123, "pitch": 56, "duration": 7, "velocity": 81}, {"time": 129, "pitch": 60, "duration": 6, "velocity": 106}, {"time": 135, "pitch": 45, "duration": 37, "velocity": 106}, {"time": 141, "pitch": 52, "duration": 20, "velocity": 76}, {"time": 147, "pitch": 57, "duration": 9, "velocity": 115}, {"time": 153, "pitch": 60, "duration": 3, "velocity": 112}, {"time": 159, "pitch": 57, "duration": 8, "velocity": 94}, {"time": 159, "pitch": 60, "duration": 13, "velocity": 82}, {"time": 159, "pitch": 64, "duration": 13, "velocity": 104}, {"time": 165, "pitch": 52, "duration": 6, "velocity": 66}, {"time": 171, "pitch": 57, "duration": 8, "velocity": 106}, {"time": 177, "pitch": 60, "duration": 7, "velocity": 87}, {"time": 183, "pitch": 50, "duration": 27, "velocity": 109}, {"time": 189, "pitch": 57, "duration": 19, "velocity": 89}, {"time": 195, "pitch": 60, "duration": 7, "velocity": 89}, {"time": 201, "pitch": 66, "duration": 3, "velocity": 120}, {"time": 207, "pitch": 62, "duration": 8, "velocity": 109}, {"time": 207, "pitch": 66, "duration": 8, "velocity": 117}, {"time": 207, "pitch": 69, "duration": 9, "velocity": 109}, {"time": 213, "pitch": 50, "duration": 6, "velocity": 18}, {"time": 213, "pitch": 57, "duration": 7, "velocity": 96}, {"time": 219, "pitch": 62, "duration": 8, "velocity": 112}, {"time": 225, "pitch": 66, "duration": 3, "velocity": 113}, {"time": 231, "pitch": 43, "duration": 35, "velocity": 104}, {"time": 231, "pitch": 62, "duration": 7, "velocity": 106}, {"time": 231, "pitch": 67, "duration": 13, "velocity": 106}, {"time": 237, "pitch": 50, "duration": 13, "velocity": 46}, {"time": 243, "pitch": 62, "duration": 5, "velocity": 89}, {"time": 249, "pitch": 67, "duration": 19, "velocity": 106}, {"time": 249, "pitch": 71, "duration": 19, "velocity": 99}, {"time": 261, "pitch": 50, "duration": 5, "velocity": 61}, {"time": 267, "pitch": 62, "duration": 8, "velocity": 112}, {"time": 273, "pitch": 67, "duration": 2, "velocity": 104}, {"time": 279, "pitch": 47, "duration": 36, "velocity": 85}, {"time": 279, "pitch": 59, "duration": 8, "velocity": 96}, {"time": 279, "pitch": 62, "duration": 14, "velocity": 106}, {"time": 285, "pitch": 54, "duration": 14, "velocity": 70}, {"time": 291, "pitch": 59, "duration": 4, "velocity": 91}, {"time": 297, "pitch": 59, "duration": 14, "velocity": 101}, {"time": 297, "pitch": 66, "duration": 16, "velocity": 99}, {"time": 309, "pitch": 54, "duration": 5, "velocity": 63}, {"time": 315, "pitch": 59, "duration": 2, "velocity": 104}, {"time": 315, "pitch": 62, "duration": 6, "velocity": 109}, {"time": 327, "pitch": 52, "duration": 16, "velocity": 104}, {"time": 327, "pitch": 64, "duration": 7, "velocity": 96}, {"time": 327, "pitch": 67, "duration": 13, "velocity": 101}, {"time": 333, "pitch": 59, "duration": 14, "velocity": 74}, {"time": 339, "pitch": 64, "duration": 7, "velocity": 106}, {"time": 345, "pitch": 67, "duration": 5, "velocity": 96}, {"time": 351, "pitch": 50, "duration": 15, "velocity": 109}, {"time": 351, "pitch": 62, "duration": 7, "velocity": 109}, {"time": 357, "pitch": 57, "duration": 7, "velocity": 89}, {"time": 363, "pitch": 62, "duration": 8, "velocity": 115}, {"time": 369, "pitch": 66, "duration": 6, "velocity": 117}, {"time": 375, "pitch": 43, "duration": 46, "velocity": 99}, {"time": 375, "pitch": 62, "duration": 5, "velocity": 96}, {"time": 375, "pitch": 67, "duration": 5, "velocity": 91}, {"time": 381, "pitch": 50, "duration": 8, "velocity": 61}, {"time": 387, "pitch": 55, "duration": 7, "velocity": 104}, {"time": 393, "pitch": 60, "duration": 6, "velocity": 94}, {"time": 399, "pitch": 59, "duration": 13, "velocity": 104}, {"time": 405, "pitch": 50, "duration": 15, "velocity": 73}, {"time": 411, "pitch": 55, "duration": 6, "velocity": 104}, {"time": 417, "pitch": 57, "duration": 5, "velocity": 112}, {"time": 423, "pitch": 43, "duration": 37, "velocity": 104}, {"time": 423, "pitch": 55, "duration": 8, "velocity": 101}, {"time": 429, "pitch": 50, "duration": 13, "velocity": 69}, {"time": 435, "pitch": 55, "duration": 4, "velocity": 55}, {"time": 441, "pitch": 59, "duration": 12, "velocity": 109}, {"time": 441, "pitch": 62, "duration": 17, "velocity": 106}, {"time": 453, "pitch": 50, "duration": 10, "velocity": 54}, {"time": 459, "pitch": 55, "duration": 18, "velocity": 104}, {"time": 471, "pitch": 43, "duration": 44, "velocity": 101}, {"time": 471, "pitch": 59, "duration": 13, "velocity": 101}, {"time": 477, "pitch": 50, "duration": 14, "velocity": 61}, {"time": 483, "pitch": 55, "duration": 11, "velocity": 27}, {"time": 489, "pitch": 67, "duration": 7, "velocity": 96}, {"time": 495, "pitch": 50, "duration": 16, "velocity": 54}, {"time": 501, "pitch": 55, "duration": 3, "velocity": 66}, {"time": 507, "pitch": 59, "duration": 6, "velocity": 109}, {"time": 507, "pitch": 62, "duration": 7, "velocity": 109}, {"time": 519, "pitch": 43, "duration": 15, "velocity": 94}, {"time": 519, "pitch": 55, "duration": 9, "velocity": 91}, {"time": 519, "pitch": 59, "duration": 9, "velocity": 96}, {"time": 525, "pitch": 50, "duration": 8, "velocity": 69}, {"time": 531, "pitch": 59, "duration": 5, "velocity": 104}, {"time": 531, "pitch": 62, "duration": 5, "velocity": 106}, {"time": 543, "pitch": 52, "duration": 14, "velocity": 96}, {"time": 543, "pitch": 59, "duration": 8, "velocity": 94}, {"time": 543, "pitch": 64, "duration": 14, "velocity": 101}, {"time": 549, "pitch": 55, "duration": 7, "velocity": 51}, {"time": 555, "pitch": 59, "duration": 8, "velocity": 106}, {"time": 561, "pitch": 67, "duration": 3, "velocity": 94}, {"time": 567, "pitch": 50, "duration": 40, "velocity": 96}, {"time": 567, "pitch": 57, "duration": 4, "velocity": 96}, {"time": 567, "pitch": 62, "duration": 8, "velocity": 94}, {"time": 573, "pitch": 57, "duration": 8, "velocity": 94}, {"time": 579, "pitch": 62, "duration": 1, "velocity": 76}, {"time": 585, "pitch": 66, "duration": 14, "velocity": 113}, {"time": 597, "pitch": 57, "duration": 3, "velocity": 94}, {"time": 603, "pitch": 57, "duration": 3, "velocity": 112}, {"time": 603, "pitch": 62, "duration": 5, "velocity": 115}, {"time": 609, "pitch": 57, "duration": 1, "velocity": 69}, {"time": 615, "pitch": 43, "duration": 23, "velocity": 106}, {"time": 615, "pitch": 55, "duration": 7, "velocity": 94}, {"time": 615, "pitch": 59, "duration": 13, "velocity": 101}, {"time": 621, "pitch": 50, "duration": 15, "velocity": 78}, {"time": 627, "pitch": 55, "duration": 3, "velocity": 33}, {"time": 633, "pitch": 59, "duration": 12, "velocity": 106}, {"time": 633, "pitch": 62, "duration": 13, "velocity": 104}, {"time": 645, "pitch": 55, "duration": 7, "velocity": 99}, {"time": 651, "pitch": 59, "duration": 8, "velocity": 104}, {"time": 651, "pitch": 64, "duration": 11, "velocity": 104}, {"time": 657, "pitch": 55, "duration": 3, "velocity": 74}, {"time": 663, "pitch": 50, "duration": 23, "velocity": 109}, {"time": 669, "pitch": 57, "duration": 9, "velocity": 87}, {"time": 675, "pitch": 62, "duration": 3, "velocity": 99}, {"time": 681, "pitch": 57, "duration": 13, "velocity": 104}, {"time": 681, "pitch": 62, "duration": 14, "velocity": 104}, {"time": 681, "pitch": 66, "duration": 19, "velocity": 113}, {"time": 693, "pitch": 50, "duration": 9, "velocity": 42}, {"time": 699, "pitch": 57, "duration": 8, "velocity": 106}, {"time": 705, "pitch": 62, "duration": 7, "velocity": 99}, {"time": 711, "pitch": 52, "duration": 21, "velocity": 96}, {"time": 711, "pitch": 59, "duration": 4, "velocity": 94}, {"time": 711, "pitch": 64, "duration": 8, "velocity": 101}, {"time": 717, "pitch": 59, "duration": 9, "velocity": 94}, {"time": 729, "pitch": 59, "duration": 14, "velocity": 106}, {"time": 729, "pitch": 67, "duration": 24, "velocity": 106}, {"time": 741, "pitch": 52, "duration": 8, "velocity": 78}, {"time": 747, "pitch": 59, "duration": 8, "velocity": 104}, {"time": 753, "pitch": 64, "duration": 4, "velocity": 96}, {"time": 759, "pitch": 50, "duration": 43, "velocity": 101}, {"time": 759, "pitch": 57, "duration": 5, "velocity": 96}, {"time": 759, "pitch": 62, "duration": 14, "velocity": 101}, {"time": 771, "pitch": 57, "duration": 2, "velocity": 59}, {"time": 777, "pitch": 57, "duration": 8, "velocity": 109}, {"time": 777, "pitch": 66, "duration": 9, "velocity": 110}, {"time": 789, "pitch": 57, "duration": 5, "velocity": 106}, {"time": 795, "pitch": 57, "duration": 1, "velocity": 71}, {"time": 795, "pitch": 62, "duration": 6, "velocity": 115}, {"time": 801, "pitch": 57, "duration": 3, "velocity": 87}, {"time": 807, "pitch": 43, "duration": 37, "velocity": 101}, {"time": 807, "pitch": 55, "duration": 7, "velocity": 101}, {"time": 807, "pitch": 59, "duration": 13, "velocity": 104}, {"time": 813, "pitch": 50, "duration": 14, "velocity": 87}, {"time": 819, "pitch": 55, "duration": 3, "velocity": 71}, {"time": 825, "pitch": 55, "duration": 15, "velocity": 104}, {"time": 825, "pitch": 62, "duration": 16, "velocity": 106}, {"time": 837, "pitch": 50, "duration": 8, "velocity": 59}, {"time": 843, "pitch": 59, "duration": 7, "velocity": 109}, {"time": 855, "pitch": 50, "duration": 33, "velocity": 96}, {"time": 855, "pitch": 57, "duration": 4, "velocity": 106}, {"time": 855, "pitch": 62, "duration": 8, "velocity": 106}, {"time": 861, "pitch": 57, "duration": 8, "velocity": 94}, {"time": 867, "pitch": 62, "duration": 3, "velocity": 94}, {"time": 873, "pitch": 57, "duration": 6, "velocity": 109}, {"time": 873, "pitch": 64, "duration": 6, "velocity": 101}, {"time": 879, "pitch": 62, "duration": 12, "velocity": 104}, {"time": 885, "pitch": 57, "duration": 9, "velocity": 106}, {"time": 891, "pitch": 50, "duration": 8, "velocity": 96}, {"time": 897, "pitch": 57, "duration": 12, "velocity": 101}, {"time": 903, "pitch": 43, "duration": 40, "velocity": 104}, {"time": 909, "pitch": 50, "duration": 13, "velocity": 80}, {"time": 915, "pitch": 55, "duration": 4, "velocity": 89}, {"time": 921, "pitch": 55, "duration": 6, "velocity": 106}, {"time": 921, "pitch": 62, "duration": 10, "velocity": 109}, {"time": 927, "pitch": 50, "duration": 16, "velocity": 85}, {"time": 933, "pitch": 55, "duration": 5, "velocity": 101}, {"time": 939, "pitch": 55, "duration": 1, "velocity": 69}, {"time": 939, "pitch": 59, "duration": 9, "velocity": 106}, {"time": 939, "pitch": 62, "duration": 9, "velocity": 106}, {"time": 939, "pitch": 65, "duration": 16, "velocity": 96}, {"time": 945, "pitch": 55, "duration": 4, "velocity": 101}, {"time": 951, "pitch": 48, "duration": 39, "velocity": 104}, {"time": 957, "pitch": 55, "duration": 14, "velocity": 71}, {"time": 963, "pitch": 62, "duration": 7, "velocity": 104}, {"time": 969, "pitch": 64, "duration": 13, "velocity": 104}, {"time": 975, "pitch": 55, "duration": 14, "velocity": 80}, {"time": 981, "pitch": 60, "duration": 3, "velocity": 76}, {"time": 987, "pitch": 60, "duration": 4, "velocity": 106}, {"time": 987, "pitch": 64, "duration": 4, "velocity": 106}, {"time": 999, "pitch": 43, "duration": 12, "velocity": 104}, {"time": 999, "pitch": 55, "duration": 10, "velocity": 101}, {"time": 999, "pitch": 59, "duration": 11, "velocity": 101}, {"time": 999, "pitch": 62, "duration": 11, "velocity": 109}, {"time": 1047, "pitch": 48, "duration": 12, "velocity": 104}, {"time": 1047, "pitch": 55, "duration": 10, "velocity": 94}, {"time": 1047, "pitch": 60, "duration": 11, "velocity": 96}, {"time": 1047, "pitch": 64, "duration": 11, "velocity": 94}, {"time": 1083, "pitch": 59, "duration": 9, "velocity": 106}, {"time": 1083, "pitch": 62, "duration": 9, "velocity": 115}, {"time": 1095, "pitch": 43, "duration": 39, "velocity": 101}, {"time": 1095, "pitch": 55, "duration": 6, "velocity": 99}, {"time": 1095, "pitch": 59, "duration": 13, "velocity": 101}, {"time": 1101, "pitch": 50, "duration": 14, "velocity": 39}, {"time": 1107, "pitch": 55, "duration": 3, "velocity": 99}, {"time": 1113, "pitch": 55, "duration": 10, "velocity": 99}, {"time": 1113, "pitch": 59, "duration": 11, "velocity": 101}, {"time": 1113, "pitch": 62, "duration": 10, "velocity": 104}, {"time": 1125, "pitch": 50, "duration": 9, "velocity": 42}, {"time": 1131, "pitch": 55, "duration": 1, "velocity": 96}, {"time": 1131, "pitch": 59, "duration": 7, "velocity": 109}, {"time": 1131, "pitch": 62, "duration": 8, "velocity": 109}, {"time": 1137, "pitch": 55, "duration": 2, "velocity": 101}, {"time": 1143, "pitch": 52, "duration": 20, "velocity": 101}, {"time": 1149, "pitch": 59, "duration": 15, "velocity": 91}, {"time": 1155, "pitch": 64, "duration": 3, "velocity": 112}, {"time": 1161, "pitch": 64, "duration": 7, "velocity": 104}, {"time": 1161, "pitch": 67, "duration": 14, "velocity": 104}, {"time": 1167, "pitch": 50, "duration": 13, "velocity": 109}, {"time": 1173, "pitch": 57, "duration": 6, "velocity": 99}, {"time": 1179, "pitch": 62, "duration": 9, "velocity": 112}, {"time": 1185, "pitch": 66, "duration": 4, "velocity": 110}, {"time": 1191, "pitch": 43, "duration": 37, "velocity": 104}, {"time": 1191, "pitch": 62, "duration": 7, "velocity": 96}, {"time": 1191, "pitch": 67, "duration": 13, "velocity": 99}, {"time": 1197, "pitch": 50, "duration": 14, "velocity": 61}, {"time": 1203, "pitch": 62, "duration": 3, "velocity": 89}, {"time": 1209, "pitch": 62, "duration": 13, "velocity": 109}, {"time": 1209, "pitch": 67, "duration": 15, "velocity": 91}, {"time": 1209, "pitch": 71, "duration": 16, "velocity": 91}, {"time": 1221, "pitch": 50, "duration": 6, "velocity": 74}, {"time": 1227, "pitch": 62, "duration": 10, "velocity": 109}, {"time": 1233, "pitch": 67, "duration": 6, "velocity": 85}, {"time": 1239, "pitch": 50, "duration": 38, "velocity": 109}, {"time": 1239, "pitch": 62, "duration": 6, "velocity": 101}, {"time": 1245, "pitch": 57, "duration": 14, "velocity": 99}, {"time": 1251, "pitch": 62, "duration": 4, "velocity": 101}, {"time": 1257, "pitch": 62, "duration": 4, "velocity": 106}, {"time": 1257, "pitch": 69, "duration": 6, "velocity": 106}, {"time": 1263, "pitch": 62, "duration": 6, "velocity": 106}, {"time": 1263, "pitch": 67, "duration": 7, "velocity": 109}, {"time": 1269, "pitch": 57, "duration": 9, "velocity": 99}, {"time": 1275, "pitch": 62, "duration": 9, "velocity": 104}, {"time": 1275, "pitch": 66, "duration": 6, "velocity": 113}, {"time": 1281, "pitch": 50, "duration": 2, "velocity": 74}, {"time": 1287, "pitch": 43, "duration": 39, "velocity": 101}, {"time": 1287, "pitch": 62, "duration": 5, "velocity": 94}, {"time": 1287, "pitch": 67, "duration": 8, "velocity": 91}, {"time": 1293, "pitch": 50, "duration": 13, "velocity": 58}, {"time": 1299, "pitch": 55, "duration": 3, "velocity": 96}, {"time": 1305, "pitch": 55, "duration": 8, "velocity": 106}, {"time": 1305, "pitch": 59, "duration": 9, "velocity": 106}, {"time": 1311, "pitch": 50, "duration": 14, "velocity": 89}, {"time": 1317, "pitch": 55, "duration": 6, "velocity": 85}, {"time": 1323, "pitch": 59, "duration": 7, "velocity": 104}, {"time": 1323, "pitch": 62, "duration": 8, "velocity": 106}, {"time": 1323, "pitch": 65, "duration": 19, "velocity": 104}, {"time": 1329, "pitch": 55, "duration": 3, "velocity": 106}, {"time": 1335, "pitch": 48, "duration": 41, "velocity": 101}, {"time": 1341, "pitch": 55, "duration": 14, "velocity": 89}, {"time": 1347, "pitch": 62, "duration": 7, "velocity": 99}, {"time": 1353, "pitch": 64, "duration": 14, "velocity": 99}, {"time": 1359, "pitch": 55, "duration": 15, "velocity": 99}, {"time": 1365, "pitch": 60, "duration": 4, "velocity": 85}, {"time": 1371, "pitch": 60, "duration": 4, "velocity": 101}, {"time": 1371, "pitch": 64, "duration": 12, "velocity": 99}, {"time": 1371, "pitch": 67, "duration": 14, "velocity": 101}, {"time": 1377, "pitch": 60, "duration": 7, "velocity": 46}, {"time": 1383, "pitch": 43, "duration": 15, "velocity": 101}, {"time": 1383, "pitch": 55, "duration": 7, "velocity": 89}, {"time": 1383, "pitch": 59, "duration": 12, "velocity": 94}, {"time": 1389, "pitch": 50, "duration": 8, "velocity": 82}, {"time": 1395, "pitch": 55, "duration": 7, "velocity": 106}, {"time": 1401, "pitch": 59, "duration": 2, "velocity": 109}, {"time": 1407, "pitch": 52, "duration": 14, "velocity": 91}, {"time": 1407, "pitch": 59, "duration": 8, "velocity": 91}, {"time": 1407, "pitch": 64, "duration": 15, "velocity": 94}, {"time": 1413, "pitch": 55, "duration": 8, "velocity": 66}, {"time": 1419, "pitch": 59, "duration": 8, "velocity": 104}, {"time": 1425, "pitch": 67, "duration": 5, "velocity": 99}, {"time": 1431, "pitch": 50, "duration": 39, "velocity": 101}, {"time": 1431, "pitch": 57, "duration": 4, "velocity": 104}, {"time": 1431, "pitch": 62, "duration": 8, "velocity": 101}, {"time": 1437, "pitch": 57, "duration": 7, "velocity": 87}, {"time": 1443, "pitch": 62, "duration": 3, "velocity": 85}, {"time": 1449, "pitch": 57, "duration": 6, "velocity": 106}, {"time": 1449, "pitch": 66, "duration": 13, "velocity": 113}, {"time": 1461, "pitch": 57, "duration": 1, "velocity": 80}, {"time": 1467, "pitch": 57, "duration": 2, "velocity": 109}, {"time": 1467, "pitch": 62, "duration": 4, "velocity": 109}, {"time": 1479, "pitch": 52, "duration": 13, "velocity": 94}, {"time": 1479, "pitch": 59, "duration": 4, "velocity": 96}, {"time": 1479, "pitch": 64, "duration": 8, "velocity": 104}, {"time": 1485, "pitch": 59, "duration": 4, "velocity": 78}, {"time": 1491, "pitch": 59, "duration": 1, "velocity": 96}, {"time": 1491, "pitch": 67, "duration": 9, "velocity": 101}, {"time": 1497, "pitch": 59, "duration": 3, "velocity": 101}, {"time": 1503, "pitch": 50, "duration": 14, "velocity": 91}, {"time": 1503, "pitch": 57, "duration": 3, "velocity": 85}, {"time": 1503, "pitch": 62, "duration": 9, "velocity": 101}, {"time": 1509, "pitch": 57, "duration": 3, "velocity": 74}, {"time": 1515, "pitch": 66, "duration": 7, "velocity": 110}, {"time": 1521, "pitch": 57, "duration": 1, "velocity": 80}, {"time": 1527, "pitch": 43, "duration": 48, "velocity": 99}, {"time": 1527, "pitch": 67, "duration": 14, "velocity": 104}, {"time": 1533, "pitch": 50, "duration": 17, "velocity": 66}, {"time": 1539, "pitch": 62, "duration": 3, "velocity": 101}, {"time": 1545, "pitch": 62, "duration": 14, "velocity": 106}, {"time": 1545, "pitch": 67, "duration": 20, "velocity": 106}, {"time": 1545, "pitch": 71, "duration": 17, "velocity": 101}, {"time": 1557, "pitch": 50, "duration": 17, "velocity": 56}, {"time": 1563, "pitch": 62, "duration": 4, "velocity": 104}, {"time": 1569, "pitch": 62, "duration": 4, "velocity": 96}, {"time": 1569, "pitch": 67, "duration": 4, "velocity": 89}, {"time": 1575, "pitch": 48, "duration": 34, "velocity": 96}, {"time": 1575, "pitch": 60, "duration": 6, "velocity": 96}, {"time": 1575, "pitch": 64, "duration": 12, "velocity": 99}, {"time": 1581, "pitch": 55, "duration": 12, "velocity": 71}, {"time": 1587, "pitch": 60, "duration": 3, "velocity": 89}, {"time": 1593, "pitch": 60, "duration": 12, "velocity": 106}, {"time": 1593, "pitch": 64, "duration": 12, "velocity": 112}, {"time": 1593, "pitch": 67, "duration": 14, "velocity": 106}, {"time": 1605, "pitch": 55, "duration": 5, "velocity": 87}, {"time": 1611, "pitch": 60, "duration": 7, "velocity": 115}, {"time": 1617, "pitch": 64, "duration": 2, "velocity": 91}, {"time": 1623, "pitch": 43, "duration": 20, "velocity": 94}, {"time": 1623, "pitch": 59, "duration": 6, "velocity": 96}, {"time": 1623, "pitch": 62, "duration": 13, "velocity": 101}, {"time": 1629, "pitch": 50, "duration": 13, "velocity": 58}, {"time": 1635, "pitch": 59, "duration": 3, "velocity": 82}, {"time": 1641, "pitch": 59, "duration": 4, "velocity": 101}, {"time": 1641, "pitch": 62, "duration": 5, "velocity": 106}, {"time": 1641, "pitch": 67, "duration": 11, "velocity": 104}, {"time": 1647, "pitch": 52, "duration": 17, "velocity": 104}, {"time": 1653, "pitch": 59, "duration": 8, "velocity": 94}, {"time": 1659, "pitch": 64, "duration": 10, "velocity": 109}, {"time": 1671, "pitch": 48, "duration": 19, "velocity": 85}, {"time": 1677, "pitch": 55, "duration": 15, "velocity": 101}, {"time": 1683, "pitch": 60, "duration": 7, "velocity": 112}, {"time": 1689, "pitch": 64, "duration": 6, "velocity": 94}, {"time": 1695, "pitch": 50, "duration": 15, "velocity": 109}, {"time": 1695, "pitch": 66, "duration": 12, "velocity": 113}, {"time": 1701, "pitch": 57, "duration": 6, "velocity": 94}, {"time": 1707, "pitch": 62, "duration": 6, "velocity": 112}, {"time": 1713, "pitch": 66, "duration": 7, "velocity": 107}, {"time": 1719, "pitch": 43, "duration": 45, "velocity": 104}, {"time": 1719, "pitch": 55, "duration": 2, "velocity": 96}, {"time": 1719, "pitch": 59, "duration": 2, "velocity": 101}, {"time": 1725, "pitch": 62, "duration": 3, "velocity": 112}, {"time": 1731, "pitch": 72, "duration": 6, "velocity": 109}, {"time": 1737, "pitch": 71, "duration": 3, "velocity": 112}, {"time": 1743, "pitch": 67, "duration": 2, "velocity": 109}, {"time": 1749, "pitch": 62, "duration": 2, "velocity": 118}, {"time": 1755, "pitch": 50, "duration": 8, "velocity": 66}, {"time": 1761, "pitch": 59, "duration": 6, "velocity": 91}, {"time": 1767, "pitch": 43, "duration": 37, "velocity": 104}, {"time": 1767, "pitch": 55, "duration": 8, "velocity": 101}, {"time": 1773, "pitch": 50, "duration": 13, "velocity": 69}, {"time": 1779, "pitch": 55, "duration": 4, "velocity": 55}, {"time": 1785, "pitch": 59, "duration": 12, "velocity": 109}, {"time": 1785, "pitch": 62, "duration": 17, "velocity": 106}, {"time": 1797, "pitch": 50, "duration": 10, "velocity": 54}, {"time": 1803, "pitch": 55, "duration": 18, "velocity": 104}, {"time": 1815, "pitch": 43, "duration": 44, "velocity": 101}, {"time": 1815, "pitch": 59, "duration": 13, "velocity": 101}, {"time": 1821, "pitch": 50, "duration": 14, "velocity": 61}, {"time": 1827, "pitch": 55, "duration": 11, "velocity": 27}, {"time": 1833, "pitch": 67, "duration": 7, "velocity": 96}, {"time": 1839, "pitch": 50, "duration": 16, "velocity": 54}, {"time": 1845, "pitch": 55, "duration": 3, "velocity": 66}, {"time": 1851, "pitch": 59, "duration": 6, "velocity": 109}, {"time": 1851, "pitch": 62, "duration": 7, "velocity": 109}, {"time": 1863, "pitch": 43, "duration": 15, "velocity": 94}, {"time": 1863, "pitch": 55, "duration": 9, "velocity": 91}, {"time": 1863, "pitch": 59, "duration": 9, "velocity": 96}, {"time": 1869, "pitch": 50, "duration": 8, "velocity": 69}, {"time": 1875, "pitch": 59, "duration": 5, "velocity": 104}, {"time": 1875, "pitch": 62, "duration": 5, "velocity": 106}, {"time": 1887, "pitch": 52, "duration": 14, "velocity": 96}, {"time": 1887, "pitch": 59, "duration": 8, "velocity": 94}, {"time": 1887, "pitch": 64, "duration": 14, "velocity": 101}, {"time": 1893, "pitch": 55, "duration": 7, "velocity": 51}, {"time": 1899, "pitch": 59, "duration": 8, "velocity": 106}, {"time": 1905, "pitch": 67, "duration": 3, "velocity": 94}, {"time": 1911, "pitch": 50, "duration": 40, "velocity": 96}, {"time": 1911, "pitch": 57, "duration": 4, "velocity": 96}, {"time": 1911, "pitch": 62, "duration": 8, "velocity": 94}, {"time": 1917, "pitch": 57, "duration": 8, "velocity": 94}, {"time": 1923, "pitch": 62, "duration": 1, "velocity": 76}, {"time": 1929, "pitch": 66, "duration": 14, "velocity": 113}, {"time": 1941, "pitch": 57, "duration": 3, "velocity": 94}, {"time": 1947, "pitch": 57, "duration": 3, "velocity": 112}, {"time": 1947, "pitch": 62, "duration": 5, "velocity": 115}, {"time": 1953, "pitch": 57, "duration": 1, "velocity": 69}, {"time": 1959, "pitch": 43, "duration": 23, "velocity": 106}, {"time": 1959, "pitch": 55, "duration": 7, "velocity": 94}, {"time": 1959, "pitch": 59, "duration": 13, "velocity": 101}, {"time": 1965, "pitch": 50, "duration": 15, "velocity": 78}, {"time": 1971, "pitch": 55, "duration": 3, "velocity": 33}, {"time": 1977, "pitch": 59, "duration": 12, "velocity": 106}, {"time": 1977, "pitch": 62, "duration": 13, "velocity": 104}, {"time": 1989, "pitch": 55, "duration": 7, "velocity": 99}, {"time": 1995, "pitch": 59, "duration": 8, "velocity": 104}, {"time": 1995, "pitch": 64, "duration": 11, "velocity": 104}, {"time": 2001, "pitch": 55, "duration": 3, "velocity": 74}, {"time": 2007, "pitch": 50, "duration": 23, "velocity": 109}, {"time": 2013, "pitch": 57, "duration": 9, "velocity": 87}, {"time": 2019, "pitch": 62, "duration": 3, "velocity": 99}, {"time": 2025, "pitch": 57, "duration": 13, "velocity": 104}, {"time": 2025, "pitch": 62, "duration": 14, "velocity": 104}, {"time": 2025, "pitch": 66, "duration": 19, "velocity": 113}, {"time": 2037, "pitch": 50, "duration": 9, "velocity": 42}, {"time": 2043, "pitch": 57, "duration": 8, "velocity": 106}, {"time": 2049, "pitch": 62, "duration": 7, "velocity": 99}, {"time": 2055, "pitch": 52, "duration": 21, "velocity": 96}, {"time": 2055, "pitch": 59, "duration": 4, "velocity": 94}, {"time": 2055, "pitch": 64, "duration": 8, "velocity": 101}, {"time": 2061, "pitch": 59, "duration": 9, "velocity": 94}, {"time": 2073, "pitch": 59, "duration": 14, "velocity": 106}, {"time": 2073, "pitch": 67, "duration": 24, "velocity": 106}, {"time": 2085, "pitch": 52, "duration": 8, "velocity": 78}, {"time": 2091, "pitch": 59, "duration": 8, "velocity": 104}, {"time": 2097, "pitch": 64, "duration": 4, "velocity": 96}, {"time": 2103, "pitch": 50, "duration": 43, "velocity": 101}, {"time": 2103, "pitch": 57, "duration": 5, "velocity": 96}, {"time": 2103, "pitch": 62, "duration": 14, "velocity": 101}, {"time": 2115, "pitch": 57, "duration": 2, "velocity": 59}, {"time": 2121, "pitch": 57, "duration": 8, "velocity": 109}, {"time": 2121, "pitch": 66, "duration": 9, "velocity": 110}, {"time": 2133, "pitch": 57, "duration": 5, "velocity": 106}, {"time": 2139, "pitch": 57, "duration": 1, "velocity": 71}, {"time": 2139, "pitch": 62, "duration": 6, "velocity": 115}, {"time": 2145, "pitch": 57, "duration": 3, "velocity": 87}, {"time": 2151, "pitch": 43, "duration": 37, "velocity": 101}, {"time": 2151, "pitch": 55, "duration": 7, "velocity": 101}, {"time": 2151, "pitch": 59, "duration": 13, "velocity": 104}, {"time": 2157, "pitch": 50, "duration": 14, "velocity": 87}, {"time": 2163, "pitch": 55, "duration": 3, "velocity": 71}, {"time": 2169, "pitch": 55, "duration": 15, "velocity": 104}, {"time": 2169, "pitch": 62, "duration": 16, "velocity": 106}, {"time": 2181, "pitch": 50, "duration": 8, "velocity": 59}, {"time": 2187, "pitch": 59, "duration": 7, "velocity": 109}, {"time": 2199, "pitch": 50, "duration": 33, "velocity": 96}, {"time": 2199, "pitch": 57, "duration": 4, "velocity": 106}, {"time": 2199, "pitch": 62, "duration": 8, "velocity": 106}, {"time": 2205, "pitch": 57, "duration": 8, "velocity": 94}, {"time": 2211, "pitch": 62, "duration": 3, "velocity": 94}, {"time": 2217, "pitch": 57, "duration": 6, "velocity": 109}, {"time": 2217, "pitch": 64, "duration": 6, "velocity": 101}, {"time": 2223, "pitch": 62, "duration": 12, "velocity": 104}, {"time": 2229, "pitch": 57, "duration": 9, "velocity": 106}, {"time": 2235, "pitch": 50, "duration": 8, "velocity": 96}, {"time": 2241, "pitch": 57, "duration": 12, "velocity": 101}, {"time": 2247, "pitch": 43, "duration": 40, "velocity": 104}, {"time": 2253, "pitch": 50, "duration": 13, "velocity": 80}, {"time": 2259, "pitch": 55, "duration": 4, "velocity": 89}, {"time": 2265, "pitch": 55, "duration": 6, "velocity": 106}, {"time": 2265, "pitch": 62, "duration": 10, "velocity": 109}, {"time": 2271, "pitch": 50, "duration": 16, "velocity": 85}, {"time": 2277, "pitch": 55, "duration": 5, "velocity": 101}, {"time": 2283, "pitch": 55, "duration": 1, "velocity": 69}, {"time": 2283, "pitch": 59, "duration": 9, "velocity": 106}, {"time": 2283, "pitch": 62, "duration": 9, "velocity": 106}, {"time": 2283, "pitch": 65, "duration": 16, "velocity": 96}, {"time": 2289, "pitch": 55, "duration": 4, "velocity": 101}, {"time": 2295, "pitch": 48, "duration": 39, "velocity": 104}, {"time": 2301, "pitch": 55, "duration": 14, "velocity": 71}, {"time": 2307, "pitch": 62, "duration": 7, "velocity": 104}, {"time": 2313, "pitch": 64, "duration": 13, "velocity": 104}, {"time": 2319, "pitch": 55, "duration": 14, "velocity": 80}, {"time": 2325, "pitch": 60, "duration": 3, "velocity": 76}, {"time": 2331, "pitch": 60, "duration": 4, "velocity": 106}, {"time": 2331, "pitch": 64, "duration": 4, "velocity": 106}, {"time": 2343, "pitch": 43, "duration": 12, "velocity": 104}, {"time": 2343, "pitch": 55, "duration": 10, "velocity": 101}, {"time": 2343, "pitch": 59, "duration": 11, "velocity": 101}, {"time": 2343, "pitch": 62, "duration": 11, "velocity": 109}, {"time": 2391, "pitch": 48, "duration": 12, "velocity": 104}, {"time": 2391, "pitch": 55, "duration": 10, "velocity": 94}, {"time": 2391, "pitch": 60, "duration": 11, "velocity": 96}, {"time": 2391, "pitch": 64, "duration": 11, "velocity": 94}, {"time": 2427, "pitch": 59, "duration": 9, "velocity": 106}, {"time": 2427, "pitch": 62, "duration": 9, "velocity": 115}, {"time": 2439, "pitch": 43, "duration": 39, "velocity": 101}, {"time": 2439, "pitch": 55, "duration": 6, "velocity": 99}, {"time": 2439, "pitch": 59, "duration": 13, "velocity": 101}, {"time": 2445, "pitch": 50, "duration": 14, "velocity": 39}, {"time": 2451, "pitch": 55, "duration": 3, "velocity": 99}, {"time": 2457, "pitch": 55, "duration": 10, "velocity": 99}, {"time": 2457, "pitch": 59, "duration": 11, "velocity": 101}, {"time": 2457, "pitch": 62, "duration": 10, "velocity": 104}, {"time": 2469, "pitch": 50, "duration": 9, "velocity": 42}, {"time": 2475, "pitch": 55, "duration": 1, "velocity": 96}, {"time": 2475, "pitch": 59, "duration": 7, "velocity": 109}, {"time": 2475, "pitch": 62, "duration": 8, "velocity": 109}, {"time": 2481, "pitch": 55, "duration": 2, "velocity": 101}, {"time": 2487, "pitch": 52, "duration": 20, "velocity": 101}, {"time": 2493, "pitch": 59, "duration": 15, "velocity": 91}, {"time": 2499, "pitch": 64, "duration": 3, "velocity": 112}, {"time": 2505, "pitch": 64, "duration": 7, "velocity": 104}, {"time": 2505, "pitch": 67, "duration": 14, "velocity": 104}, {"time": 2511, "pitch": 50, "duration": 13, "velocity": 109}, {"time": 2517, "pitch": 57, "duration": 6, "velocity": 99}, {"time": 2523, "pitch": 62, "duration": 9, "velocity": 112}, {"time": 2529, "pitch": 66, "duration": 4, "velocity": 110}, {"time": 2535, "pitch": 43, "duration": 37, "velocity": 104}, {"time": 2535, "pitch": 62, "duration": 7, "velocity": 96}, {"time": 2535, "pitch": 67, "duration": 13, "velocity": 99}, {"time": 2541, "pitch": 50, "duration": 14, "velocity": 61}, {"time": 2547, "pitch": 62, "duration": 3, "velocity": 89}, {"time": 2553, "pitch": 62, "duration": 13, "velocity": 109}, {"time": 2553, "pitch": 67, "duration": 15, "velocity": 91}, {"time": 2553, "pitch": 71, "duration": 16, "velocity": 91}, {"time": 2565, "pitch": 50, "duration": 6, "velocity": 74}, {"time": 2571, "pitch": 62, "duration": 10, "velocity": 109}, {"time": 2577, "pitch": 67, "duration": 6, "velocity": 85}, {"time": 2583, "pitch": 50, "duration": 38, "velocity": 109}, {"time": 2583, "pitch": 62, "duration": 6, "velocity": 101}, {"time": 2589, "pitch": 57, "duration": 14, "velocity": 99}, {"time": 2595, "pitch": 62, "duration": 4, "velocity": 101}, {"time": 2601, "pitch": 62, "duration": 4, "velocity": 106}, {"time": 2601, "pitch": 69, "duration": 6, "velocity": 106}, {"time": 2607, "pitch": 62, "duration": 6, "velocity": 106}, {"time": 2607, "pitch": 67, "duration": 7, "velocity": 109}, {"time": 2613, "pitch": 57, "duration": 9, "velocity": 99}, {"time": 2619, "pitch": 62, "duration": 9, "velocity": 104}, {"time": 2619, "pitch": 66, "duration": 6, "velocity": 113}, {"time": 2625, "pitch": 50, "duration": 2, "velocity": 74}, {"time": 2631, "pitch": 43, "duration": 39, "velocity": 101}, {"time": 2631, "pitch": 62, "duration": 5, "velocity": 94}, {"time": 2631, "pitch": 67, "duration": 8, "velocity": 91}, {"time": 2637, "pitch": 50, "duration": 13, "velocity": 58}, {"time": 2643, "pitch": 55, "duration": 3, "velocity": 96}, {"time": 2649, "pitch": 55, "duration": 8, "velocity": 106}, {"time": 2649, "pitch": 59, "duration": 9, "velocity": 106}, {"time": 2655, "pitch": 50, "duration": 14, "velocity": 89}, {"time": 2661, "pitch": 55, "duration": 6, "velocity": 85}, {"time": 2667, "pitch": 59, "duration": 7, "velocity": 104}, {"time": 2667, "pitch": 62, "duration": 8, "velocity": 106}, {"time": 2667, "pitch": 65, "duration": 19, "velocity": 104}, {"time": 2673, "pitch": 55, "duration": 3, "velocity": 106}, {"time": 2679, "pitch": 48, "duration": 41, "velocity": 101}, {"time": 2685, "pitch": 55, "duration": 14, "velocity": 89}, {"time": 2691, "pitch": 62, "duration": 7, "velocity": 99}, {"time": 2697, "pitch": 64, "duration": 14, "velocity": 99}, {"time": 2703, "pitch": 55, "duration": 15, "velocity": 99}, {"time": 2709, "pitch": 60, "duration": 4, "velocity": 85}, {"time": 2715, "pitch": 60, "duration": 4, "velocity": 101}, {"time": 2715, "pitch": 64, "duration": 12, "velocity": 99}, {"time": 2715, "pitch": 67, "duration": 14, "velocity": 101}, {"time": 2721, "pitch": 60, "duration": 7, "velocity": 46}, {"time": 2727, "pitch": 43, "duration": 15, "velocity": 101}, {"time": 2727, "pitch": 55, "duration": 7, "velocity": 89}, {"time": 2727, "pitch": 59, "duration": 12, "velocity": 94}, {"time": 2733, "pitch": 50, "duration": 8, "velocity": 82}, {"time": 2739, "pitch": 55, "duration": 7, "velocity": 106}, {"time": 2745, "pitch": 59, "duration": 2, "velocity": 109}, {"time": 2751, "pitch": 52, "duration": 14, "velocity": 91}, {"time": 2751, "pitch": 59, "duration": 8, "velocity": 91}, {"time": 2751, "pitch": 64, "duration": 15, "velocity": 94}, {"time": 2757, "pitch": 55, "duration": 8, "velocity": 66}, {"time": 2763, "pitch": 59, "duration": 8, "velocity": 104}, {"time": 2769, "pitch": 67, "duration": 5, "velocity": 99}, {"time": 2775, "pitch": 50, "duration": 39, "velocity": 101}, {"time": 2775, "pitch": 57, "duration": 4, "velocity": 104}, {"time": 2775, "pitch": 62, "duration": 8, "velocity": 101}, {"time": 2781, "pitch": 57, "duration": 7, "velocity": 87}, {"time": 2787, "pitch": 62, "duration": 3, "velocity": 85}, {"time": 2793, "pitch": 57, "duration": 6, "velocity": 106}, {"time": 2793, "pitch": 66, "duration": 13, "velocity": 113}, {"time": 2805, "pitch": 57, "duration": 1, "velocity": 80}, {"time": 2811, "pitch": 57, "duration": 2, "velocity": 109}, {"time": 2811, "pitch": 62, "duration": 4, "velocity": 109}, {"time": 2823, "pitch": 52, "duration": 13, "velocity": 94}, {"time": 2823, "pitch": 59, "duration": 4, "velocity": 96}, {"time": 2823, "pitch": 64, "duration": 8, "velocity": 104}, {"time": 2829, "pitch": 59, "duration": 4, "velocity": 78}, {"time": 2835, "pitch": 59, "duration": 1, "velocity": 96}, {"time": 2835, "pitch": 67, "duration": 9, "velocity": 101}, {"time": 2841, "pitch": 59, "duration": 3, "velocity": 101}, {"time": 2847, "pitch": 50, "duration": 14, "velocity": 91}, {"time": 2847, "pitch": 57, "duration": 3, "velocity": 85}, {"time": 2847, "pitch": 62, "duration": 9, "velocity": 101}, {"time": 2853, "pitch": 57, "duration": 3, "velocity": 74}, {"time": 2859, "pitch": 66, "duration": 7, "velocity": 110}, {"time": 2865, "pitch": 57, "duration": 1, "velocity": 80}, {"time": 2871, "pitch": 43, "duration": 48, "velocity": 99}, {"time": 2871, "pitch": 67, "duration": 14, "velocity": 104}, {"time": 2877, "pitch": 50, "duration": 17, "velocity": 66}, {"time": 2883, "pitch": 62, "duration": 3, "velocity": 101}, {"time": 2889, "pitch": 62, "duration": 14, "velocity": 106}, {"time": 2889, "pitch": 67, "duration": 20, "velocity": 106}, {"time": 2889, "pitch": 71, "duration": 17, "velocity": 101}, {"time": 2901, "pitch": 50, "duration": 17, "velocity": 56}, {"time": 2907, "pitch": 62, "duration": 4, "velocity": 104}, {"time": 2913, "pitch": 62, "duration": 4, "velocity": 96}, {"time": 2913, "pitch": 67, "duration": 4, "velocity": 89}, {"time": 2919, "pitch": 43, "duration": 35, "velocity": 104}, {"time": 2919, "pitch": 62, "duration": 7, "velocity": 106}, {"time": 2919, "pitch": 67, "duration": 13, "velocity": 106}, {"time": 2925, "pitch": 50, "duration": 13, "velocity": 46}, {"time": 2931, "pitch": 62, "duration": 5, "velocity": 89}, {"time": 2937, "pitch": 67, "duration": 19, "velocity": 106}, {"time": 2937, "pitch": 71, "duration": 19, "velocity": 99}, {"time": 2949, "pitch": 50, "duration": 5, "velocity": 61}, {"time": 2955, "pitch": 62, "duration": 8, "velocity": 112}, {"time": 2961, "pitch": 67, "duration": 2, "velocity": 104}, {"time": 2967, "pitch": 47, "duration": 36, "velocity": 85}, {"time": 2967, "pitch": 59, "duration": 8, "velocity": 96}, {"time": 2967, "pitch": 62, "duration": 14, "velocity": 106}, {"time": 2973, "pitch": 54, "duration": 14, "velocity": 70}, {"time": 2979, "pitch": 59, "duration": 4, "velocity": 91}, {"time": 2985, "pitch": 59, "duration": 14, "velocity": 101}, {"time": 2985, "pitch": 66, "duration": 16, "velocity": 99}, {"time": 2997, "pitch": 54, "duration": 5, "velocity": 63}, {"time": 3003, "pitch": 59, "duration": 2, "velocity": 104}, {"time": 3003, "pitch": 62, "duration": 6, "velocity": 109}, {"time": 3015, "pitch": 52, "duration": 16, "velocity": 104}, {"time": 3015, "pitch": 64, "duration": 7, "velocity": 96}, {"time": 3015, "pitch": 67, "duration": 13, "velocity": 101}, {"time": 3021, "pitch": 59, "duration": 14, "velocity": 74}, {"time": 3027, "pitch": 64, "duration": 7, "velocity": 106}, {"time": 3033, "pitch": 67, "duration": 5, "velocity": 96}, {"time": 3039, "pitch": 50, "duration": 15, "velocity": 109}, {"time": 3039, "pitch": 62, "duration": 7, "velocity": 109}, {"time": 3045, "pitch": 57, "duration": 7, "velocity": 89}, {"time": 3051, "pitch": 62, "duration": 8, "velocity": 115}, {"time": 3057, "pitch": 66, "duration": 6, "velocity": 117}, {"time": 3063, "pitch": 67, "duration": 5, "velocity": 91}, {"time": 3063, "pitch": 43, "duration": 68, "velocity": 101}, {"time": 3067, "pitch": 50, "duration": 60, "velocity": 85}, {"time": 3071, "pitch": 55, "duration": 9, "velocity": 104}, {"time": 3075, "pitch": 59, "duration": 9, "velocity": 91}, {"time": 3079, "pitch": 62, "duration": 5, "velocity": 99}, {"time": 3084, "pitch": 67, "duration": 2, "velocity": 91}, {"time": 3104, "pitch": 67, "duration": 31, "velocity": 67}, {"time": 3106, "pitch": 71, "duration": 29, "velocity": 18}, {"time": 3106, "pitch": 79, "duration": 29, "velocity": 91}], "annotations": [{"time": 49, "annotation": {"number": 64, "value": 127}, "group": "control_change"}, {"time": 85, "annotation": {"number": 64, "value": 0}, "group": "control_change"}, {"time": 88, "annotation": {"number": 64, "value": 127}, "group": "control_change"}, {"time": 109, "annotation": {"number": 64, "value": 0}, "group": "control_change"}, {"time": 111, "annotation": {"number": 64, "value": 127}, "group": "control_change"}, {"time": 133, "annotation": {"number": 64, "value": 0}, "group": "control_change"}, {"time": 139, "annotation": {"number": 64, "value": 127}, "group": "control_change"}, {"time": 180, "annotation": {"number": 64, "value": 0}, "group": "control_change"}, {"time": 183, "annotation": {"number": 64, "value": 127}, "group": "control_change"}, {"time": 189, "annotation": {"number": 64, "value": 0}, "group": "control_change"}, {"time": 192, "annotation": {"number": 64, "value": 127}, "group": "control_change"}, {"time": 228, "annotation": {"number": 64, "value": 0}, "group": "control_change"}, {"time": 231, "annotation": {"number": 64, "value": 127}, "group": "control_change"}, {"time": 277, "annotation": {"number": 64, "value": 0}, "group": "control_change"}, {"time": 283, "annotation": {"number": 64, "value": 127}, "group": "control_change"}, {"time": 325, "annotation": {"number": 64, "value": 0}, "group": "control_change"}, {"time": 328, "annotation": {"number": 64, "value": 127}, "group": "control_change"}, {"time": 348, "annotation": {"number": 64, "value": 0}, "group": "control_change"}, {"time": 354, "annotation": {"number": 64, "value": 127}, "group": "control_change"}, {"time": 371, "annotation": {"number": 64, "value": 0}, "group": "control_change"}, {"time": 375, "annotation": {"number": 64, "value": 127}, "group": "control_change"}, {"time": 420, "annotation": {"number": 64, "value": 0}, "group": "control_change"}, {"time": 425, "annotation": {"number": 64, "value": 127}, "group": "control_change"}, {"time": 469, "annotation": {"number": 64, "value": 0}, "group": "control_change"}, {"time": 477, "annotation": {"number": 64, "value": 127}, "group": "control_change"}, {"time": 518, "annotation": {"number": 64, "value": 0}, "group": "control_change"}, {"time": 522, "annotation": {"number": 64, "value": 127}, "group": "control_change"}, {"time": 543, "annotation": {"number": 64, "value": 0}, "group": "control_change"}, {"time": 547, "annotation": {"number": 64, "value": 127}, "group": "control_change"}, {"time": 565, "annotation": {"number": 64, "value": 0}, "group": "control_change"}, {"time": 569, "annotation": {"number": 64, "value": 127}, "group": "control_change"}, {"time": 612, "annotation": {"number": 64, "value": 0}, "group": "control_change"}, {"time": 621, "annotation": {"number": 64, "value": 127}, "group": "control_change"}, {"time": 638, "annotation": {"number": 64, "value": 0}, "group": "control_change"}, {"time": 639, "annotation": {"number": 64, "value": 127}, "group": "control_change"}, {"time": 661, "annotation": {"number": 64, "value": 0}, "group": "control_change"}, {"time": 664, "annotation": {"number": 64, "value": 127}, "group": "control_change"}, {"time": 709, "annotation": {"number": 64, "value": 0}, "group": "control_change"}, {"time": 712, "annotation": {"number": 64, "value": 127}, "group": "control_change"}, {"time": 756, "annotation": {"number": 64, "value": 0}, "group": "control_change"}, {"time": 762, "annotation": {"number": 64, "value": 127}, "group": "control_change"}, {"time": 804, "annotation": {"number": 64, "value": 0}, "group": "control_change"}, {"time": 813, "annotation": {"number": 64, "value": 127}, "group": "control_change"}, {"time": 854, "annotation": {"number": 64, "value": 0}, "group": "control_change"}, {"time": 859, "annotation": {"number": 64, "value": 127}, "group": "control_change"}, {"time": 902, "annotation": {"number": 64, "value": 0}, "group": "control_change"}, {"time": 907, "annotation": {"number": 64, "value": 127}, "group": "control_change"}, {"time": 948, "annotation": {"number": 64, "value": 0}, "group": "control_change"}, {"time": 952, "annotation": {"number": 64, "value": 127}, "group": "control_change"}, {"time": 998, "annotation": {"number": 64, "value": 0}, "group": "control_change"}, {"time": 1087, "annotation": {"number": 64, "value": 127}, "group": "control_change"}, {"time": 1089, "annotation": {"number": 64, "value": 0}, "group": "control_change"}, {"time": 1096, "annotation": {"number": 64, "value": 127}, "group": "control_change"}, {"time": 1141, "annotation": {"number": 64, "value": 0}, "group": "control_change"}, {"time": 1144, "annotation": {"number": 64, "value": 127}, "group": "control_change"}, {"time": 1166, "annotation": {"number": 64, "value": 0}, "group": "control_change"}, {"time": 1170, "annotation": {"number": 64, "value": 127}, "group": "control_change"}, {"time": 1187, "annotation": {"number": 64, "value": 0}, "group": "control_change"}, {"time": 1192, "annotation": {"number": 64, "value": 127}, "group": "control_change"}, {"time": 1222, "annotation": {"number": 1, "value": 85}, "group": "control_change"}, {"time": 1237, "annotation": {"number": 64, "value": 0}, "group": "control_change"}, {"time": 1241, "annotation": {"number": 64, "value": 127}, "group": "control_change"}, {"time": 1284, "annotation": {"number": 64, "value": 0}, "group": "control_change"}, {"time": 1287, "annotation": {"number": 64, "value": 127}, "group": "control_change"}, {"time": 1332, "annotation": {"number": 64, "value": 0}, "group": "control_change"}, {"time": 1336, "annotation": {"number": 64, "value": 127}, "group": "control_change"}, {"time": 1347, "annotation": {"number": 64, "value": 0}, "group": "control_change"}, {"time": 1349, "annotation": {"number": 64, "value": 127}, "group": "control_change"}, {"time": 1388, "annotation": {"number": 64, "value": 127}, "group": "control_change"}, {"time": 1406, "annotation": {"number": 64, "value": 0}, "group": "control_change"}, {"time": 1410, "annotation": {"number": 64, "value": 127}, "group": "control_change"}, {"time": 1429, "annotation": {"number": 64, "value": 0}, "group": "control_change"}, {"time": 1433, "annotation": {"number": 64, "value": 127}, "group": "control_change"}, {"time": 1478, "annotation": {"number": 64, "value": 0}, "group": "control_change"}, {"time": 1482, "annotation": {"number": 64, "value": 127}, "group": "control_change"}, {"time": 1501, "annotation": {"number": 64, "value": 0}, "group": "control_change"}, {"time": 1504, "annotation": {"number": 64, "value": 127}, "group": "control_change"}, {"time": 1525, "annotation": {"number": 64, "value": 0}, "group": "control_change"}, {"time": 1529, "annotation": {"number": 64, "value": 127}, "group": "control_change"}, {"time": 1572, "annotation": {"number": 64, "value": 0}, "group": "control_change"}, {"time": 1581, "annotation": {"number": 64, "value": 127}, "group": "control_change"}, {"time": 1622, "annotation": {"number": 64, "value": 0}, "group": "control_change"}, {"time": 1627, "annotation": {"number": 64, "value": 127}, "group": "control_change"}, {"time": 1645, "annotation": {"number": 64, "value": 0}, "group": "control_change"}, {"time": 1649, "annotation": {"number": 64, "value": 127}, "group": "control_change"}, {"time": 1670, "annotation": {"number": 64, "value": 0}, "group": "control_change"}, {"time": 1674, "annotation": {"number": 64, "value": 127}, "group": "control_change"}, {"time": 1693, "annotation": {"number": 64, "value": 0}, "group": "control_change"}, {"time": 1697, "annotation": {"number": 64, "value": 127}, "group": "control_change"}, {"time": 1715, "annotation": {"number": 64, "value": 0}, "group": "control_change"}, {"time": 1719, "annotation": {"number": 64, "value": 127}, "group": "control_change"}, {"time": 1765, "annotation": {"number": 64, "value": 0}, "group": "control_change"}, {"time": 1769, "annotation": {"number": 64, "value": 127}, "group": "control_change"}, {"time": 1813, "annotation": {"number": 64, "value": 0}, "group": "control_change"}, {"time": 1821, "annotation": {"number": 64, "value": 127}, "group": "control_change"}, {"time": 1862, "annotation": {"number": 64, "value": 0}, "group": "control_change"}, {"time": 1866, "annotation": {"number": 64, "value": 127}, "group": "control_change"}, {"time": 1887, "annotation": {"number": 64, "value": 0}, "group": "control_change"}, {"time": 1891, "annotation": {"number": 64, "value": 127}, "group": "control_change"}, {"time": 1909, "annotation": {"number": 64, "value": 0}, "group": "control_change"}, {"time": 1913, "annotation": {"number": 64, "value": 127}, "group": "control_change"}, {"time": 1956, "annotation": {"number": 64, "value": 0}, "group": "control_change"}, {"time": 1965, "annotation": {"number": 64, "value": 127}, "group": "control_change"}, {"time": 1982, "annotation": {"number": 64, "value": 0}, "group": "control_change"}, {"time": 1983, "annotation": {"number": 64, "value": 127}, "group": "control_change"}, {"time": 2005, "annotation": {"number": 64, "value": 0}, "group": "control_change"}, {"time": 2008, "annotation": {"number": 64, "value": 127}, "group": "control_change"}, {"time": 2053, "annotation": {"number": 64, "value": 0}, "group": "control_change"}, {"time": 2056, "annotation": {"number": 64, "value": 127}, "group": "control_change"}, {"time": 2100, "annotation": {"number": 64, "value": 0}, "group": "control_change"}, {"time": 2106, "annotation": {"number": 64, "value": 127}, "group": "control_change"}, {"time": 2148, "annotation": {"number": 64, "value": 0}, "group": "control_change"}, {"time": 2157, "annotation": {"number": 64, "value": 127}, "group": "control_change"}, {"time": 2198, "annotation": {"number": 64, "value": 0}, "group": "control_change"}, {"time": 2203, "annotation": {"number": 64, "value": 127}, "group": "control_change"}, {"time": 2246, "annotation": {"number": 64, "value": 0}, "group": "control_change"}, {"time": 2251, "annotation": {"number": 64, "value": 127}, "group": "control_change"}, {"time": 2292, "annotation": {"number": 64, "value": 0}, "group": "control_change"}, {"time": 2296, "annotation": {"number": 64, "value": 127}, "group": "control_change"}, {"time": 2342, "annotation": {"number": 64, "value": 0}, "group": "control_change"}, {"time": 2431, "annotation": {"number": 64, "value": 127}, "group": "control_change"}, {"time": 2433, "annotation": {"number": 64, "value": 0}, "group": "control_change"}, {"time": 2440, "annotation": {"number": 64, "value": 127}, "group": "control_change"}, {"time": 2485, "annotation": {"number": 64, "value": 0}, "group": "control_change"}, {"time": 2488, "annotation": {"number": 64, "value": 127}, "group": "control_change"}, {"time": 2510, "annotation": {"number": 64, "value": 0}, "group": "control_change"}, {"time": 2514, "annotation": {"number": 64, "value": 127}, "group": "control_change"}, {"time": 2531, "annotation": {"number": 64, "value": 0}, "group": "control_change"}, {"time": 2536, "annotation": {"number": 64, "value": 127}, "group": "control_change"}, {"time": 2566, "annotation": {"number": 1, "value": 85}, "group": "control_change"}, {"time": 2581, "annotation": {"number": 64, "value": 0}, "group": "control_change"}, {"time": 2585, "annotation": {"number": 64, "value": 127}, "group": "control_change"}, {"time": 2628, "annotation": {"number": 64, "value": 0}, "group": "control_change"}, {"time": 2631, "annotation": {"number": 64, "value": 127}, "group": "control_change"}, {"time": 2676, "annotation": {"number": 64, "value": 0}, "group": "control_change"}, {"time": 2680, "annotation": {"number": 64, "value": 127}, "group": "control_change"}, {"time": 2691, "annotation": {"number": 64, "value": 0}, "group": "control_change"}, {"time": 2693, "annotation": {"number": 64, "value": 127}, "group": "control_change"}, {"time": 2732, "annotation": {"number": 64, "value": 127}, "group": "control_change"}, {"time": 2750, "annotation": {"number": 64, "value": 0}, "group": "control_change"}, {"time": 2754, "annotation": {"number": 64, "value": 127}, "group": "control_change"}, {"time": 2773, "annotation": {"number": 64, "value": 0}, "group": "control_change"}, {"time": 2777, "annotation": {"number": 64, "value": 127}, "group": "control_change"}, {"time": 2822, "annotation": {"number": 64, "value": 0}, "group": "control_change"}, {"time": 2826, "annotation": {"number": 64, "value": 127}, "group": "control_change"}, {"time": 2845, "annotation": {"number": 64, "value": 0}, "group": "control_change"}, {"time": 2848, "annotation": {"number": 64, "value": 127}, "group": "control_change"}, {"time": 2869, "annotation": {"number": 64, "value": 0}, "group": "control_change"}, {"time": 2873, "annotation": {"number": 64, "value": 127}, "group": "control_change"}, {"time": 2916, "annotation": {"number": 64, "value": 0}, "group": "control_change"}, {"time": 2965, "annotation": {"number": 64, "value": 0}, "group": "control_change"}, {"time": 2971, "annotation": {"number": 64, "value": 127}, "group": "control_change"}, {"time": 3013, "annotation": {"number": 64, "value": 0}, "group": "control_change"}, {"time": 3016, "annotation": {"number": 64, "value": 127}, "group": "control_change"}, {"time": 3036, "annotation": {"number": 64, "value": 0}, "group": "control_change"}, {"time": 3042, "annotation": {"number": 64, "value": 127}, "group": "control_change"}, {"time": 3059, "annotation": {"number": 64, "value": 0}, "group": "control_change"}, {"time": 3063, "annotation": {"number": 64, "value": 127}, "group": "control_change"}, {"time": 3065, "annotation": {"number": 64, "value": 127}, "group": "control_change"}, {"time": 3108, "annotation": {"number": 64, "value": 0}, "group": "control_change"}]}]}