{"metadata": {"schema_version": "0.2", "title": "None", "source_filename": "125.mid", "source_format": "midi"}, "resolution": 12, "tempos": [{"time": 0, "qpm": 81.50014602109495}], "time_signatures": [{"time": 0, "numerator": 1, "denominator": 4}], "tracks": [{"program": 0, "is_drum": false, "name": "MELODY", "notes": [{"time": 423, "pitch": 62, "duration": 18, "velocity": 115}, {"time": 441, "pitch": 57, "duration": 6, "velocity": 118}, {"time": 447, "pitch": 62, "duration": 12, "velocity": 115}, {"time": 459, "pitch": 65, "duration": 12, "velocity": 112}, {"time": 471, "pitch": 67, "duration": 6, "velocity": 112}, {"time": 477, "pitch": 69, "duration": 3, "velocity": 112}, {"time": 480, "pitch": 67, "duration": 3, "velocity": 109}, {"time": 483, "pitch": 65, "duration": 6, "velocity": 112}, {"time": 489, "pitch": 67, "duration": 6, "velocity": 109}, {"time": 495, "pitch": 69, "duration": 24, "velocity": 112}, {"time": 519, "pitch": 74, "duration": 6, "velocity": 112}, {"time": 525, "pitch": 74, "duration": 3, "velocity": 109}, {"time": 528, "pitch": 72, "duration": 3, "velocity": 109}, {"time": 531, "pitch": 69, "duration": 6, "velocity": 115}, {"time": 537, "pitch": 67, "duration": 6, "velocity": 104}, {"time": 543, "pitch": 65, "duration": 6, "velocity": 115}, {"time": 549, "pitch": 62, "duration": 6, "velocity": 112}, {"time": 555, "pitch": 65, "duration": 6, "velocity": 112}, {"time": 561, "pitch": 67, "duration": 6, "velocity": 106}, {"time": 567, "pitch": 69, "duration": 48, "velocity": 112}, {"time": 615, "pitch": 69, "duration": 6, "velocity": 118}, {"time": 621, "pitch": 69, "duration": 12, "velocity": 115}, {"time": 633, "pitch": 74, "duration": 6, "velocity": 106}, {"time": 639, "pitch": 74, "duration": 6, "velocity": 109}, {"time": 645, "pitch": 72, "duration": 6, "velocity": 112}, {"time": 651, "pitch": 69, "duration": 6, "velocity": 115}, {"time": 657, "pitch": 69, "duration": 3, "velocity": 112}, {"time": 660, "pitch": 72, "duration": 3, "velocity": 106}, {"time": 663, "pitch": 65, "duration": 6, "velocity": 115}, {"time": 669, "pitch": 62, "duration": 12, "velocity": 112}, {"time": 681, "pitch": 69, "duration": 6, "velocity": 109}, {"time": 687, "pitch": 69, "duration": 6, "velocity": 112}, {"time": 693, "pitch": 67, "duration": 18, "velocity": 106}, {"time": 711, "pitch": 67, "duration": 6, "velocity": 101}, {"time": 717, "pitch": 67, "duration": 3, "velocity": 104}, {"time": 720, "pitch": 67, "duration": 3, "velocity": 106}, {"time": 723, "pitch": 69, "duration": 6, "velocity": 109}, {"time": 729, "pitch": 72, "duration": 6, "velocity": 106}, {"time": 735, "pitch": 65, "duration": 12, "velocity": 112}, {"time": 747, "pitch": 65, "duration": 6, "velocity": 112}, {"time": 753, "pitch": 67, "duration": 3, "velocity": 109}, {"time": 756, "pitch": 65, "duration": 9, "velocity": 114}, {"time": 765, "pitch": 62, "duration": 42, "velocity": 109}, {"time": 807, "pitch": 62, "duration": 18, "velocity": 115}, {"time": 825, "pitch": 57, "duration": 6, "velocity": 118}, {"time": 831, "pitch": 62, "duration": 6, "velocity": 115}, {"time": 837, "pitch": 62, "duration": 6, "velocity": 115}, {"time": 843, "pitch": 69, "duration": 12, "velocity": 112}, {"time": 855, "pitch": 67, "duration": 6, "velocity": 112}, {"time": 861, "pitch": 69, "duration": 3, "velocity": 112}, {"time": 864, "pitch": 67, "duration": 3, "velocity": 109}, {"time": 867, "pitch": 65, "duration": 6, "velocity": 112}, {"time": 873, "pitch": 67, "duration": 6, "velocity": 109}, {"time": 879, "pitch": 69, "duration": 24, "velocity": 112}, {"time": 903, "pitch": 74, "duration": 6, "velocity": 112}, {"time": 909, "pitch": 74, "duration": 3, "velocity": 109}, {"time": 912, "pitch": 72, "duration": 3, "velocity": 109}, {"time": 915, "pitch": 69, "duration": 6, "velocity": 115}, {"time": 921, "pitch": 67, "duration": 6, "velocity": 104}, {"time": 927, "pitch": 65, "duration": 6, "velocity": 115}, {"time": 933, "pitch": 62, "duration": 6, "velocity": 112}, {"time": 939, "pitch": 65, "duration": 6, "velocity": 112}, {"time": 945, "pitch": 67, "duration": 6, "velocity": 106}, {"time": 951, "pitch": 69, "duration": 48, "velocity": 112}, {"time": 999, "pitch": 69, "duration": 6, "velocity": 118}, {"time": 1005, "pitch": 69, "duration": 12, "velocity": 115}, {"time": 1017, "pitch": 74, "duration": 6, "velocity": 106}, {"time": 1023, "pitch": 74, "duration": 6, "velocity": 109}, {"time": 1029, "pitch": 72, "duration": 6, "velocity": 112}, {"time": 1035, "pitch": 69, "duration": 12, "velocity": 115}, {"time": 1047, "pitch": 65, "duration": 6, "velocity": 115}, {"time": 1053, "pitch": 62, "duration": 12, "velocity": 112}, {"time": 1065, "pitch": 69, "duration": 6, "velocity": 109}, {"time": 1071, "pitch": 69, "duration": 6, "velocity": 112}, {"time": 1077, "pitch": 67, "duration": 18, "velocity": 106}, {"time": 1095, "pitch": 67, "duration": 6, "velocity": 101}, {"time": 1101, "pitch": 67, "duration": 3, "velocity": 104}, {"time": 1104, "pitch": 67, "duration": 3, "velocity": 106}, {"time": 1107, "pitch": 69, "duration": 6, "velocity": 109}, {"time": 1113, "pitch": 72, "duration": 6, "velocity": 106}, {"time": 1119, "pitch": 65, "duration": 12, "velocity": 112}, {"time": 1131, "pitch": 65, "duration": 6, "velocity": 112}, {"time": 1137, "pitch": 67, "duration": 3, "velocity": 109}, {"time": 1140, "pitch": 65, "duration": 9, "velocity": 114}, {"time": 1149, "pitch": 62, "duration": 42, "velocity": 109}, {"time": 1191, "pitch": 74, "duration": 6, "velocity": 112}, {"time": 1197, "pitch": 74, "duration": 12, "velocity": 112}, {"time": 1209, "pitch": 72, "duration": 6, "velocity": 104}, {"time": 1215, "pitch": 74, "duration": 6, "velocity": 109}, {"time": 1221, "pitch": 72, "duration": 6, "velocity": 112}, {"time": 1227, "pitch": 69, "duration": 12, "velocity": 115}, {"time": 1239, "pitch": 72, "duration": 6, "velocity": 112}, {"time": 1245, "pitch": 69, "duration": 6, "velocity": 112}, {"time": 1251, "pitch": 67, "duration": 6, "velocity": 112}, {"time": 1257, "pitch": 65, "duration": 3, "velocity": 115}, {"time": 1260, "pitch": 67, "duration": 3, "velocity": 112}, {"time": 1263, "pitch": 69, "duration": 24, "velocity": 109}, {"time": 1287, "pitch": 74, "duration": 9, "velocity": 112}, {"time": 1296, "pitch": 72, "duration": 3, "velocity": 112}, {"time": 1299, "pitch": 74, "duration": 6, "velocity": 115}, {"time": 1305, "pitch": 72, "duration": 6, "velocity": 112}, {"time": 1311, "pitch": 70, "duration": 6, "velocity": 117}, {"time": 1317, "pitch": 62, "duration": 12, "velocity": 118}, {"time": 1329, "pitch": 67, "duration": 3, "velocity": 104}, {"time": 1332, "pitch": 69, "duration": 3, "velocity": 109}, {"time": 1335, "pitch": 67, "duration": 48, "velocity": 106}, {"time": 1383, "pitch": 67, "duration": 6, "velocity": 112}, {"time": 1389, "pitch": 67, "duration": 3, "velocity": 109}, {"time": 1392, "pitch": 69, "duration": 3, "velocity": 101}, {"time": 1395, "pitch": 67, "duration": 6, "velocity": 118}, {"time": 1401, "pitch": 65, "duration": 6, "velocity": 115}, {"time": 1407, "pitch": 67, "duration": 24, "velocity": 112}, {"time": 1431, "pitch": 62, "duration": 6, "velocity": 109}, {"time": 1437, "pitch": 62, "duration": 3, "velocity": 109}, {"time": 1440, "pitch": 65, "duration": 3, "velocity": 109}, {"time": 1443, "pitch": 62, "duration": 6, "velocity": 112}, {"time": 1449, "pitch": 60, "duration": 6, "velocity": 112}, {"time": 1455, "pitch": 57, "duration": 24, "velocity": 115}, {"time": 1479, "pitch": 57, "duration": 6, "velocity": 104}, {"time": 1485, "pitch": 67, "duration": 6, "velocity": 109}, {"time": 1491, "pitch": 67, "duration": 6, "velocity": 112}, {"time": 1497, "pitch": 69, "duration": 6, "velocity": 112}, {"time": 1503, "pitch": 65, "duration": 12, "velocity": 109}, {"time": 1515, "pitch": 62, "duration": 3, "velocity": 112}, {"time": 1518, "pitch": 65, "duration": 3, "velocity": 109}, {"time": 1521, "pitch": 62, "duration": 3, "velocity": 112}, {"time": 1524, "pitch": 60, "duration": 3, "velocity": 99}, {"time": 1527, "pitch": 62, "duration": 48, "velocity": 112}, {"time": 1575, "pitch": 74, "duration": 6, "velocity": 112}, {"time": 1581, "pitch": 74, "duration": 12, "velocity": 112}, {"time": 1593, "pitch": 72, "duration": 6, "velocity": 104}, {"time": 1599, "pitch": 74, "duration": 6, "velocity": 109}, {"time": 1605, "pitch": 72, "duration": 6, "velocity": 112}, {"time": 1611, "pitch": 69, "duration": 12, "velocity": 115}, {"time": 1623, "pitch": 72, "duration": 6, "velocity": 112}, {"time": 1629, "pitch": 69, "duration": 6, "velocity": 112}, {"time": 1635, "pitch": 67, "duration": 6, "velocity": 112}, {"time": 1641, "pitch": 65, "duration": 3, "velocity": 115}, {"time": 1644, "pitch": 67, "duration": 3, "velocity": 112}, {"time": 1647, "pitch": 69, "duration": 24, "velocity": 109}, {"time": 1671, "pitch": 74, "duration": 9, "velocity": 112}, {"time": 1680, "pitch": 72, "duration": 3, "velocity": 112}, {"time": 1683, "pitch": 74, "duration": 6, "velocity": 115}, {"time": 1689, "pitch": 72, "duration": 6, "velocity": 112}, {"time": 1695, "pitch": 70, "duration": 6, "velocity": 117}, {"time": 1701, "pitch": 62, "duration": 12, "velocity": 118}, {"time": 1713, "pitch": 67, "duration": 3, "velocity": 104}, {"time": 1716, "pitch": 69, "duration": 3, "velocity": 109}, {"time": 1719, "pitch": 67, "duration": 48, "velocity": 106}, {"time": 1767, "pitch": 67, "duration": 6, "velocity": 112}, {"time": 1773, "pitch": 67, "duration": 3, "velocity": 109}, {"time": 1776, "pitch": 69, "duration": 3, "velocity": 101}, {"time": 1779, "pitch": 67, "duration": 6, "velocity": 118}, {"time": 1785, "pitch": 65, "duration": 6, "velocity": 115}, {"time": 1791, "pitch": 67, "duration": 24, "velocity": 112}, {"time": 1815, "pitch": 62, "duration": 6, "velocity": 109}, {"time": 1821, "pitch": 62, "duration": 3, "velocity": 109}, {"time": 1824, "pitch": 65, "duration": 3, "velocity": 109}, {"time": 1827, "pitch": 62, "duration": 6, "velocity": 112}, {"time": 1833, "pitch": 60, "duration": 6, "velocity": 112}, {"time": 1839, "pitch": 57, "duration": 24, "velocity": 115}, {"time": 1863, "pitch": 57, "duration": 6, "velocity": 104}, {"time": 1869, "pitch": 67, "duration": 6, "velocity": 109}, {"time": 1875, "pitch": 67, "duration": 6, "velocity": 112}, {"time": 1881, "pitch": 69, "duration": 6, "velocity": 112}, {"time": 1887, "pitch": 65, "duration": 12, "velocity": 109}, {"time": 1899, "pitch": 62, "duration": 3, "velocity": 112}, {"time": 1902, "pitch": 65, "duration": 3, "velocity": 109}, {"time": 1905, "pitch": 62, "duration": 3, "velocity": 112}, {"time": 1908, "pitch": 60, "duration": 3, "velocity": 99}, {"time": 1911, "pitch": 62, "duration": 57, "velocity": 112}, {"time": 2343, "pitch": 62, "duration": 18, "velocity": 115}, {"time": 2361, "pitch": 57, "duration": 6, "velocity": 118}, {"time": 2367, "pitch": 62, "duration": 12, "velocity": 115}, {"time": 2379, "pitch": 65, "duration": 12, "velocity": 112}, {"time": 2391, "pitch": 67, "duration": 6, "velocity": 112}, {"time": 2397, "pitch": 69, "duration": 3, "velocity": 112}, {"time": 2400, "pitch": 67, "duration": 3, "velocity": 109}, {"time": 2403, "pitch": 65, "duration": 6, "velocity": 112}, {"time": 2409, "pitch": 67, "duration": 6, "velocity": 109}, {"time": 2415, "pitch": 69, "duration": 24, "velocity": 112}, {"time": 2439, "pitch": 74, "duration": 6, "velocity": 112}, {"time": 2445, "pitch": 74, "duration": 3, "velocity": 109}, {"time": 2448, "pitch": 72, "duration": 3, "velocity": 109}, {"time": 2451, "pitch": 69, "duration": 6, "velocity": 115}, {"time": 2457, "pitch": 67, "duration": 6, "velocity": 104}, {"time": 2463, "pitch": 65, "duration": 6, "velocity": 115}, {"time": 2469, "pitch": 62, "duration": 6, "velocity": 112}, {"time": 2475, "pitch": 65, "duration": 6, "velocity": 112}, {"time": 2481, "pitch": 67, "duration": 6, "velocity": 106}, {"time": 2487, "pitch": 69, "duration": 48, "velocity": 112}, {"time": 2535, "pitch": 69, "duration": 6, "velocity": 118}, {"time": 2541, "pitch": 69, "duration": 12, "velocity": 115}, {"time": 2553, "pitch": 74, "duration": 6, "velocity": 106}, {"time": 2559, "pitch": 74, "duration": 6, "velocity": 109}, {"time": 2565, "pitch": 72, "duration": 6, "velocity": 112}, {"time": 2571, "pitch": 69, "duration": 6, "velocity": 115}, {"time": 2577, "pitch": 69, "duration": 3, "velocity": 112}, {"time": 2580, "pitch": 72, "duration": 3, "velocity": 106}, {"time": 2583, "pitch": 65, "duration": 6, "velocity": 115}, {"time": 2589, "pitch": 62, "duration": 12, "velocity": 112}, {"time": 2601, "pitch": 69, "duration": 6, "velocity": 109}, {"time": 2607, "pitch": 69, "duration": 6, "velocity": 112}, {"time": 2613, "pitch": 67, "duration": 18, "velocity": 106}, {"time": 2631, "pitch": 67, "duration": 6, "velocity": 101}, {"time": 2637, "pitch": 67, "duration": 3, "velocity": 104}, {"time": 2640, "pitch": 67, "duration": 3, "velocity": 106}, {"time": 2643, "pitch": 69, "duration": 6, "velocity": 109}, {"time": 2649, "pitch": 72, "duration": 6, "velocity": 106}, {"time": 2655, "pitch": 65, "duration": 12, "velocity": 112}, {"time": 2667, "pitch": 65, "duration": 6, "velocity": 112}, {"time": 2673, "pitch": 67, "duration": 3, "velocity": 109}, {"time": 2676, "pitch": 65, "duration": 9, "velocity": 114}, {"time": 2685, "pitch": 62, "duration": 42, "velocity": 109}, {"time": 2727, "pitch": 62, "duration": 18, "velocity": 115}, {"time": 2745, "pitch": 57, "duration": 6, "velocity": 118}, {"time": 2751, "pitch": 62, "duration": 6, "velocity": 115}, {"time": 2757, "pitch": 62, "duration": 6, "velocity": 115}, {"time": 2763, "pitch": 69, "duration": 12, "velocity": 112}, {"time": 2775, "pitch": 67, "duration": 6, "velocity": 112}, {"time": 2781, "pitch": 69, "duration": 3, "velocity": 112}, {"time": 2784, "pitch": 67, "duration": 3, "velocity": 109}, {"time": 2787, "pitch": 65, "duration": 6, "velocity": 112}, {"time": 2793, "pitch": 67, "duration": 6, "velocity": 109}, {"time": 2799, "pitch": 69, "duration": 24, "velocity": 112}, {"time": 2823, "pitch": 74, "duration": 6, "velocity": 112}, {"time": 2829, "pitch": 74, "duration": 3, "velocity": 109}, {"time": 2832, "pitch": 72, "duration": 3, "velocity": 109}, {"time": 2835, "pitch": 69, "duration": 6, "velocity": 115}, {"time": 2841, "pitch": 67, "duration": 6, "velocity": 104}, {"time": 2847, "pitch": 65, "duration": 6, "velocity": 115}, {"time": 2853, "pitch": 62, "duration": 6, "velocity": 112}, {"time": 2859, "pitch": 65, "duration": 6, "velocity": 112}, {"time": 2865, "pitch": 67, "duration": 6, "velocity": 106}, {"time": 2871, "pitch": 69, "duration": 48, "velocity": 112}, {"time": 2919, "pitch": 69, "duration": 6, "velocity": 118}, {"time": 2925, "pitch": 69, "duration": 12, "velocity": 115}, {"time": 2937, "pitch": 74, "duration": 6, "velocity": 106}, {"time": 2943, "pitch": 74, "duration": 6, "velocity": 109}, {"time": 2949, "pitch": 72, "duration": 6, "velocity": 112}, {"time": 2955, "pitch": 69, "duration": 12, "velocity": 115}, {"time": 2967, "pitch": 65, "duration": 6, "velocity": 115}, {"time": 2973, "pitch": 62, "duration": 12, "velocity": 112}, {"time": 2985, "pitch": 69, "duration": 6, "velocity": 109}, {"time": 2991, "pitch": 69, "duration": 6, "velocity": 112}, {"time": 2997, "pitch": 67, "duration": 18, "velocity": 106}, {"time": 3015, "pitch": 67, "duration": 6, "velocity": 101}, {"time": 3021, "pitch": 67, "duration": 3, "velocity": 104}, {"time": 3024, "pitch": 67, "duration": 3, "velocity": 106}, {"time": 3027, "pitch": 69, "duration": 6, "velocity": 109}, {"time": 3033, "pitch": 72, "duration": 6, "velocity": 106}, {"time": 3039, "pitch": 65, "duration": 12, "velocity": 112}, {"time": 3051, "pitch": 65, "duration": 6, "velocity": 112}, {"time": 3057, "pitch": 67, "duration": 3, "velocity": 109}, {"time": 3060, "pitch": 65, "duration": 9, "velocity": 114}, {"time": 3069, "pitch": 62, "duration": 42, "velocity": 109}, {"time": 3111, "pitch": 74, "duration": 6, "velocity": 112}, {"time": 3117, "pitch": 74, "duration": 12, "velocity": 112}, {"time": 3129, "pitch": 72, "duration": 6, "velocity": 104}, {"time": 3135, "pitch": 74, "duration": 6, "velocity": 109}, {"time": 3141, "pitch": 72, "duration": 6, "velocity": 112}, {"time": 3147, "pitch": 69, "duration": 12, "velocity": 115}, {"time": 3159, "pitch": 72, "duration": 6, "velocity": 112}, {"time": 3165, "pitch": 69, "duration": 6, "velocity": 112}, {"time": 3171, "pitch": 67, "duration": 6, "velocity": 112}, {"time": 3177, "pitch": 65, "duration": 3, "velocity": 115}, {"time": 3180, "pitch": 67, "duration": 3, "velocity": 112}, {"time": 3183, "pitch": 69, "duration": 24, "velocity": 109}, {"time": 3207, "pitch": 74, "duration": 9, "velocity": 112}, {"time": 3216, "pitch": 72, "duration": 3, "velocity": 112}, {"time": 3219, "pitch": 74, "duration": 6, "velocity": 115}, {"time": 3225, "pitch": 72, "duration": 6, "velocity": 112}, {"time": 3231, "pitch": 70, "duration": 6, "velocity": 117}, {"time": 3237, "pitch": 62, "duration": 12, "velocity": 118}, {"time": 3249, "pitch": 67, "duration": 3, "velocity": 104}, {"time": 3252, "pitch": 69, "duration": 3, "velocity": 109}, {"time": 3255, "pitch": 67, "duration": 48, "velocity": 106}, {"time": 3303, "pitch": 67, "duration": 6, "velocity": 112}, {"time": 3309, "pitch": 67, "duration": 3, "velocity": 109}, {"time": 3312, "pitch": 69, "duration": 3, "velocity": 101}, {"time": 3315, "pitch": 67, "duration": 6, "velocity": 118}, {"time": 3321, "pitch": 65, "duration": 6, "velocity": 115}, {"time": 3327, "pitch": 67, "duration": 24, "velocity": 112}, {"time": 3351, "pitch": 62, "duration": 6, "velocity": 109}, {"time": 3357, "pitch": 62, "duration": 3, "velocity": 109}, {"time": 3360, "pitch": 65, "duration": 3, "velocity": 109}, {"time": 3363, "pitch": 62, "duration": 6, "velocity": 112}, {"time": 3369, "pitch": 60, "duration": 6, "velocity": 112}, {"time": 3375, "pitch": 57, "duration": 24, "velocity": 115}, {"time": 3399, "pitch": 57, "duration": 6, "velocity": 104}, {"time": 3405, "pitch": 67, "duration": 6, "velocity": 109}, {"time": 3411, "pitch": 67, "duration": 6, "velocity": 112}, {"time": 3417, "pitch": 69, "duration": 6, "velocity": 112}, {"time": 3423, "pitch": 65, "duration": 12, "velocity": 109}, {"time": 3435, "pitch": 62, "duration": 3, "velocity": 112}, {"time": 3438, "pitch": 65, "duration": 3, "velocity": 109}, {"time": 3441, "pitch": 62, "duration": 3, "velocity": 112}, {"time": 3444, "pitch": 60, "duration": 3, "velocity": 99}, {"time": 3447, "pitch": 62, "duration": 48, "velocity": 112}, {"time": 3495, "pitch": 74, "duration": 6, "velocity": 112}, {"time": 3501, "pitch": 74, "duration": 12, "velocity": 112}, {"time": 3513, "pitch": 72, "duration": 6, "velocity": 104}, {"time": 3519, "pitch": 74, "duration": 6, "velocity": 109}, {"time": 3525, "pitch": 72, "duration": 6, "velocity": 112}, {"time": 3531, "pitch": 69, "duration": 12, "velocity": 115}, {"time": 3543, "pitch": 72, "duration": 6, "velocity": 112}, {"time": 3549, "pitch": 69, "duration": 6, "velocity": 112}, {"time": 3555, "pitch": 67, "duration": 6, "velocity": 112}, {"time": 3561, "pitch": 65, "duration": 3, "velocity": 115}, {"time": 3564, "pitch": 67, "duration": 3, "velocity": 112}, {"time": 3567, "pitch": 69, "duration": 24, "velocity": 109}, {"time": 3591, "pitch": 74, "duration": 9, "velocity": 112}, {"time": 3600, "pitch": 72, "duration": 3, "velocity": 112}, {"time": 3603, "pitch": 74, "duration": 6, "velocity": 115}, {"time": 3609, "pitch": 72, "duration": 6, "velocity": 112}, {"time": 3615, "pitch": 70, "duration": 6, "velocity": 117}, {"time": 3621, "pitch": 62, "duration": 12, "velocity": 118}, {"time": 3633, "pitch": 67, "duration": 3, "velocity": 104}, {"time": 3636, "pitch": 69, "duration": 3, "velocity": 109}, {"time": 3639, "pitch": 67, "duration": 48, "velocity": 106}, {"time": 3687, "pitch": 67, "duration": 6, "velocity": 112}, {"time": 3693, "pitch": 67, "duration": 3, "velocity": 109}, {"time": 3696, "pitch": 69, "duration": 3, "velocity": 101}, {"time": 3699, "pitch": 67, "duration": 6, "velocity": 118}, {"time": 3705, "pitch": 65, "duration": 6, "velocity": 115}, {"time": 3711, "pitch": 67, "duration": 24, "velocity": 112}, {"time": 3735, "pitch": 62, "duration": 6, "velocity": 109}, {"time": 3741, "pitch": 62, "duration": 3, "velocity": 109}, {"time": 3744, "pitch": 65, "duration": 3, "velocity": 109}, {"time": 3747, "pitch": 62, "duration": 6, "velocity": 112}, {"time": 3753, "pitch": 60, "duration": 6, "velocity": 112}, {"time": 3759, "pitch": 57, "duration": 24, "velocity": 115}, {"time": 3783, "pitch": 57, "duration": 6, "velocity": 104}, {"time": 3789, "pitch": 67, "duration": 6, "velocity": 109}, {"time": 3795, "pitch": 67, "duration": 6, "velocity": 112}, {"time": 3801, "pitch": 69, "duration": 6, "velocity": 112}, {"time": 3807, "pitch": 65, "duration": 12, "velocity": 109}, {"time": 3819, "pitch": 62, "duration": 3, "velocity": 112}, {"time": 3822, "pitch": 65, "duration": 3, "velocity": 109}, {"time": 3825, "pitch": 62, "duration": 3, "velocity": 112}, {"time": 3828, "pitch": 60, "duration": 3, "velocity": 99}, {"time": 3831, "pitch": 62, "duration": 57, "velocity": 112}]}, {"program": 0, "is_drum": false, "name": "PIANO", "notes": [{"time": 15, "pitch": 45, "duration": 6, "velocity": 112}, {"time": 24, "pitch": 48, "duration": 2, "velocity": 115}, {"time": 27, "pitch": 50, "duration": 3, "velocity": 112}, {"time": 33, "pitch": 53, "duration": 4, "velocity": 115}, {"time": 39, "pitch": 50, "duration": 11, "velocity": 104}, {"time": 45, "pitch": 57, "duration": 6, "velocity": 99}, {"time": 45, "pitch": 62, "duration": 7, "velocity": 104}, {"time": 45, "pitch": 65, "duration": 7, "velocity": 104}, {"time": 51, "pitch": 45, "duration": 10, "velocity": 82}, {"time": 57, "pitch": 57, "duration": 3, "velocity": 99}, {"time": 57, "pitch": 62, "duration": 2, "velocity": 104}, {"time": 57, "pitch": 65, "duration": 4, "velocity": 104}, {"time": 63, "pitch": 50, "duration": 12, "velocity": 99}, {"time": 69, "pitch": 57, "duration": 9, "velocity": 106}, {"time": 69, "pitch": 62, "duration": 9, "velocity": 109}, {"time": 69, "pitch": 65, "duration": 9, "velocity": 104}, {"time": 75, "pitch": 45, "duration": 9, "velocity": 91}, {"time": 81, "pitch": 57, "duration": 5, "velocity": 109}, {"time": 81, "pitch": 62, "duration": 5, "velocity": 115}, {"time": 81, "pitch": 65, "duration": 6, "velocity": 106}, {"time": 87, "pitch": 45, "duration": 7, "velocity": 99}, {"time": 93, "pitch": 57, "duration": 8, "velocity": 101}, {"time": 93, "pitch": 60, "duration": 8, "velocity": 94}, {"time": 93, "pitch": 64, "duration": 8, "velocity": 106}, {"time": 99, "pitch": 52, "duration": 9, "velocity": 94}, {"time": 105, "pitch": 57, "duration": 3, "velocity": 96}, {"time": 105, "pitch": 60, "duration": 3, "velocity": 89}, {"time": 105, "pitch": 64, "duration": 3, "velocity": 99}, {"time": 111, "pitch": 45, "duration": 9, "velocity": 82}, {"time": 117, "pitch": 57, "duration": 9, "velocity": 106}, {"time": 117, "pitch": 60, "duration": 9, "velocity": 96}, {"time": 117, "pitch": 64, "duration": 9, "velocity": 101}, {"time": 123, "pitch": 52, "duration": 10, "velocity": 94}, {"time": 129, "pitch": 57, "duration": 5, "velocity": 104}, {"time": 129, "pitch": 60, "duration": 4, "velocity": 96}, {"time": 129, "pitch": 64, "duration": 10, "velocity": 104}, {"time": 135, "pitch": 46, "duration": 9, "velocity": 70}, {"time": 141, "pitch": 53, "duration": 9, "velocity": 99}, {"time": 141, "pitch": 58, "duration": 9, "velocity": 96}, {"time": 141, "pitch": 62, "duration": 9, "velocity": 101}, {"time": 147, "pitch": 41, "duration": 9, "velocity": 96}, {"time": 153, "pitch": 53, "duration": 4, "velocity": 104}, {"time": 153, "pitch": 58, "duration": 4, "velocity": 113}, {"time": 153, "pitch": 62, "duration": 4, "velocity": 106}, {"time": 159, "pitch": 46, "duration": 10, "velocity": 104}, {"time": 165, "pitch": 53, "duration": 8, "velocity": 106}, {"time": 165, "pitch": 58, "duration": 8, "velocity": 117}, {"time": 165, "pitch": 62, "duration": 8, "velocity": 106}, {"time": 171, "pitch": 41, "duration": 9, "velocity": 101}, {"time": 177, "pitch": 53, "duration": 3, "velocity": 96}, {"time": 177, "pitch": 58, "duration": 3, "velocity": 107}, {"time": 177, "pitch": 62, "duration": 4, "velocity": 106}, {"time": 183, "pitch": 48, "duration": 11, "velocity": 94}, {"time": 189, "pitch": 55, "duration": 7, "velocity": 91}, {"time": 189, "pitch": 60, "duration": 8, "velocity": 91}, {"time": 189, "pitch": 64, "duration": 8, "velocity": 101}, {"time": 195, "pitch": 43, "duration": 10, "velocity": 89}, {"time": 201, "pitch": 55, "duration": 5, "velocity": 87}, {"time": 201, "pitch": 60, "duration": 6, "velocity": 96}, {"time": 201, "pitch": 64, "duration": 6, "velocity": 101}, {"time": 207, "pitch": 48, "duration": 11, "velocity": 69}, {"time": 213, "pitch": 55, "duration": 9, "velocity": 99}, {"time": 213, "pitch": 60, "duration": 9, "velocity": 99}, {"time": 213, "pitch": 64, "duration": 9, "velocity": 101}, {"time": 219, "pitch": 43, "duration": 8, "velocity": 104}, {"time": 225, "pitch": 55, "duration": 5, "velocity": 106}, {"time": 225, "pitch": 60, "duration": 3, "velocity": 109}, {"time": 225, "pitch": 64, "duration": 6, "velocity": 106}, {"time": 231, "pitch": 43, "duration": 8, "velocity": 104}, {"time": 237, "pitch": 55, "duration": 8, "velocity": 101}, {"time": 237, "pitch": 58, "duration": 7, "velocity": 113}, {"time": 237, "pitch": 62, "duration": 8, "velocity": 104}, {"time": 243, "pitch": 50, "duration": 8, "velocity": 78}, {"time": 249, "pitch": 55, "duration": 2, "velocity": 94}, {"time": 249, "pitch": 58, "duration": 2, "velocity": 101}, {"time": 249, "pitch": 62, "duration": 2, "velocity": 104}, {"time": 255, "pitch": 43, "duration": 7, "velocity": 101}, {"time": 267, "pitch": 55, "duration": 4, "velocity": 94}, {"time": 267, "pitch": 58, "duration": 5, "velocity": 96}, {"time": 267, "pitch": 62, "duration": 5, "velocity": 106}, {"time": 279, "pitch": 45, "duration": 8, "velocity": 104}, {"time": 285, "pitch": 57, "duration": 8, "velocity": 104}, {"time": 285, "pitch": 60, "duration": 8, "velocity": 101}, {"time": 285, "pitch": 64, "duration": 8, "velocity": 101}, {"time": 291, "pitch": 52, "duration": 8, "velocity": 87}, {"time": 297, "pitch": 57, "duration": 3, "velocity": 94}, {"time": 297, "pitch": 60, "duration": 3, "velocity": 91}, {"time": 297, "pitch": 64, "duration": 3, "velocity": 96}, {"time": 303, "pitch": 45, "duration": 6, "velocity": 104}, {"time": 303, "pitch": 57, "duration": 4, "velocity": 89}, {"time": 303, "pitch": 60, "duration": 4, "velocity": 89}, {"time": 303, "pitch": 64, "duration": 4, "velocity": 96}, {"time": 327, "pitch": 48, "duration": 1, "velocity": 99}, {"time": 327, "pitch": 55, "duration": 1, "velocity": 96}, {"time": 327, "pitch": 60, "duration": 1, "velocity": 99}, {"time": 327, "pitch": 64, "duration": 1, "velocity": 101}, {"time": 333, "pitch": 48, "duration": 1, "velocity": 80}, {"time": 333, "pitch": 55, "duration": 1, "velocity": 82}, {"time": 333, "pitch": 60, "duration": 1, "velocity": 89}, {"time": 333, "pitch": 64, "duration": 1, "velocity": 91}, {"time": 336, "pitch": 48, "duration": 1, "velocity": 91}, {"time": 336, "pitch": 55, "duration": 1, "velocity": 82}, {"time": 336, "pitch": 60, "duration": 1, "velocity": 85}, {"time": 336, "pitch": 64, "duration": 1, "velocity": 96}, {"time": 339, "pitch": 48, "duration": 1, "velocity": 96}, {"time": 339, "pitch": 55, "duration": 1, "velocity": 89}, {"time": 339, "pitch": 60, "duration": 1, "velocity": 91}, {"time": 339, "pitch": 64, "duration": 1, "velocity": 99}, {"time": 345, "pitch": 48, "duration": 1, "velocity": 96}, {"time": 345, "pitch": 55, "duration": 1, "velocity": 91}, {"time": 345, "pitch": 60, "duration": 1, "velocity": 99}, {"time": 345, "pitch": 64, "duration": 1, "velocity": 99}, {"time": 351, "pitch": 48, "duration": 4, "velocity": 99}, {"time": 351, "pitch": 55, "duration": 3, "velocity": 99}, {"time": 351, "pitch": 60, "duration": 4, "velocity": 96}, {"time": 351, "pitch": 64, "duration": 4, "velocity": 101}, {"time": 375, "pitch": 50, "duration": 10, "velocity": 104}, {"time": 381, "pitch": 57, "duration": 7, "velocity": 104}, {"time": 381, "pitch": 62, "duration": 7, "velocity": 106}, {"time": 381, "pitch": 65, "duration": 7, "velocity": 104}, {"time": 387, "pitch": 45, "duration": 9, "velocity": 109}, {"time": 393, "pitch": 57, "duration": 7, "velocity": 101}, {"time": 393, "pitch": 62, "duration": 7, "velocity": 99}, {"time": 393, "pitch": 65, "duration": 7, "velocity": 101}, {"time": 399, "pitch": 50, "duration": 11, "velocity": 94}, {"time": 405, "pitch": 57, "duration": 8, "velocity": 101}, {"time": 405, "pitch": 62, "duration": 8, "velocity": 101}, {"time": 405, "pitch": 65, "duration": 8, "velocity": 101}, {"time": 411, "pitch": 45, "duration": 10, "velocity": 101}, {"time": 417, "pitch": 57, "duration": 4, "velocity": 109}, {"time": 417, "pitch": 62, "duration": 4, "velocity": 106}, {"time": 417, "pitch": 65, "duration": 4, "velocity": 104}, {"time": 423, "pitch": 50, "duration": 37, "velocity": 104}, {"time": 423, "pitch": 62, "duration": 12, "velocity": 104}, {"time": 423, "pitch": 65, "duration": 7, "velocity": 106}, {"time": 429, "pitch": 57, "duration": 8, "velocity": 74}, {"time": 435, "pitch": 65, "duration": 7, "velocity": 101}, {"time": 435, "pitch": 69, "duration": 8, "velocity": 106}, {"time": 441, "pitch": 57, "duration": 8, "velocity": 87}, {"time": 447, "pitch": 62, "duration": 9, "velocity": 96}, {"time": 447, "pitch": 65, "duration": 7, "velocity": 96}, {"time": 453, "pitch": 57, "duration": 6, "velocity": 80}, {"time": 459, "pitch": 65, "duration": 5, "velocity": 106}, {"time": 459, "pitch": 69, "duration": 7, "velocity": 104}, {"time": 465, "pitch": 62, "duration": 2, "velocity": 96}, {"time": 471, "pitch": 43, "duration": 19, "velocity": 101}, {"time": 471, "pitch": 55, "duration": 9, "velocity": 91}, {"time": 471, "pitch": 58, "duration": 7, "velocity": 96}, {"time": 471, "pitch": 62, "duration": 6, "velocity": 82}, {"time": 477, "pitch": 50, "duration": 11, "velocity": 67}, {"time": 483, "pitch": 58, "duration": 7, "velocity": 117}, {"time": 483, "pitch": 62, "duration": 10, "velocity": 104}, {"time": 489, "pitch": 55, "duration": 3, "velocity": 106}, {"time": 495, "pitch": 45, "duration": 15, "velocity": 101}, {"time": 495, "pitch": 57, "duration": 10, "velocity": 104}, {"time": 495, "pitch": 60, "duration": 7, "velocity": 99}, {"time": 501, "pitch": 52, "duration": 9, "velocity": 73}, {"time": 507, "pitch": 60, "duration": 5, "velocity": 106}, {"time": 507, "pitch": 64, "duration": 6, "velocity": 104}, {"time": 513, "pitch": 57, "duration": 5, "velocity": 87}, {"time": 519, "pitch": 46, "duration": 46, "velocity": 77}, {"time": 519, "pitch": 58, "duration": 3, "velocity": 93}, {"time": 519, "pitch": 62, "duration": 4, "velocity": 104}, {"time": 525, "pitch": 53, "duration": 8, "velocity": 35}, {"time": 531, "pitch": 58, "duration": 2, "velocity": 107}, {"time": 531, "pitch": 62, "duration": 9, "velocity": 106}, {"time": 537, "pitch": 58, "duration": 4, "velocity": 83}, {"time": 543, "pitch": 58, "duration": 4, "velocity": 81}, {"time": 543, "pitch": 62, "duration": 7, "velocity": 101}, {"time": 543, "pitch": 65, "duration": 6, "velocity": 101}, {"time": 549, "pitch": 53, "duration": 12, "velocity": 48}, {"time": 555, "pitch": 58, "duration": 1, "velocity": 93}, {"time": 555, "pitch": 62, "duration": 9, "velocity": 106}, {"time": 555, "pitch": 65, "duration": 7, "velocity": 99}, {"time": 561, "pitch": 58, "duration": 3, "velocity": 104}, {"time": 567, "pitch": 45, "duration": 21, "velocity": 96}, {"time": 567, "pitch": 57, "duration": 6, "velocity": 94}, {"time": 567, "pitch": 62, "duration": 6, "velocity": 96}, {"time": 573, "pitch": 52, "duration": 7, "velocity": 85}, {"time": 579, "pitch": 57, "duration": 9, "velocity": 106}, {"time": 579, "pitch": 64, "duration": 8, "velocity": 104}, {"time": 585, "pitch": 52, "duration": 5, "velocity": 87}, {"time": 591, "pitch": 45, "duration": 19, "velocity": 104}, {"time": 591, "pitch": 57, "duration": 9, "velocity": 96}, {"time": 591, "pitch": 61, "duration": 7, "velocity": 93}, {"time": 597, "pitch": 52, "duration": 7, "velocity": 82}, {"time": 603, "pitch": 57, "duration": 2, "velocity": 106}, {"time": 603, "pitch": 61, "duration": 7, "velocity": 117}, {"time": 603, "pitch": 69, "duration": 7, "velocity": 104}, {"time": 609, "pitch": 57, "duration": 3, "velocity": 115}, {"time": 615, "pitch": 50, "duration": 42, "velocity": 101}, {"time": 615, "pitch": 57, "duration": 3, "velocity": 101}, {"time": 615, "pitch": 62, "duration": 7, "velocity": 106}, {"time": 621, "pitch": 57, "duration": 7, "velocity": 91}, {"time": 627, "pitch": 62, "duration": 8, "velocity": 106}, {"time": 627, "pitch": 65, "duration": 8, "velocity": 106}, {"time": 633, "pitch": 57, "duration": 8, "velocity": 94}, {"time": 639, "pitch": 62, "duration": 8, "velocity": 106}, {"time": 639, "pitch": 65, "duration": 9, "velocity": 109}, {"time": 645, "pitch": 57, "duration": 7, "velocity": 99}, {"time": 651, "pitch": 62, "duration": 6, "velocity": 109}, {"time": 651, "pitch": 65, "duration": 7, "velocity": 112}, {"time": 657, "pitch": 57, "duration": 3, "velocity": 109}, {"time": 663, "pitch": 46, "duration": 18, "velocity": 70}, {"time": 663, "pitch": 58, "duration": 7, "velocity": 93}, {"time": 663, "pitch": 62, "duration": 8, "velocity": 104}, {"time": 669, "pitch": 53, "duration": 9, "velocity": 80}, {"time": 675, "pitch": 58, "duration": 1, "velocity": 86}, {"time": 675, "pitch": 62, "duration": 7, "velocity": 106}, {"time": 675, "pitch": 65, "duration": 7, "velocity": 106}, {"time": 681, "pitch": 58, "duration": 3, "velocity": 120}, {"time": 687, "pitch": 43, "duration": 21, "velocity": 101}, {"time": 687, "pitch": 58, "duration": 7, "velocity": 107}, {"time": 687, "pitch": 62, "duration": 7, "velocity": 101}, {"time": 693, "pitch": 55, "duration": 7, "velocity": 89}, {"time": 699, "pitch": 58, "duration": 7, "velocity": 113}, {"time": 699, "pitch": 62, "duration": 10, "velocity": 109}, {"time": 705, "pitch": 55, "duration": 3, "velocity": 91}, {"time": 711, "pitch": 43, "duration": 2, "velocity": 106}, {"time": 711, "pitch": 55, "duration": 2, "velocity": 101}, {"time": 711, "pitch": 62, "duration": 2, "velocity": 104}, {"time": 717, "pitch": 43, "duration": 1, "velocity": 99}, {"time": 717, "pitch": 55, "duration": 1, "velocity": 94}, {"time": 717, "pitch": 62, "duration": 1, "velocity": 101}, {"time": 720, "pitch": 43, "duration": 1, "velocity": 91}, {"time": 720, "pitch": 55, "duration": 1, "velocity": 91}, {"time": 720, "pitch": 62, "duration": 1, "velocity": 104}, {"time": 723, "pitch": 45, "duration": 3, "velocity": 106}, {"time": 723, "pitch": 57, "duration": 3, "velocity": 109}, {"time": 723, "pitch": 64, "duration": 3, "velocity": 101}, {"time": 729, "pitch": 43, "duration": 3, "velocity": 96}, {"time": 729, "pitch": 55, "duration": 3, "velocity": 99}, {"time": 729, "pitch": 62, "duration": 3, "velocity": 106}, {"time": 735, "pitch": 41, "duration": 5, "velocity": 99}, {"time": 735, "pitch": 53, "duration": 4, "velocity": 101}, {"time": 735, "pitch": 60, "duration": 3, "velocity": 91}, {"time": 759, "pitch": 50, "duration": 46, "velocity": 101}, {"time": 759, "pitch": 62, "duration": 7, "velocity": 104}, {"time": 759, "pitch": 65, "duration": 7, "velocity": 104}, {"time": 765, "pitch": 57, "duration": 5, "velocity": 74}, {"time": 771, "pitch": 62, "duration": 3, "velocity": 101}, {"time": 771, "pitch": 65, "duration": 3, "velocity": 106}, {"time": 777, "pitch": 57, "duration": 7, "velocity": 104}, {"time": 783, "pitch": 62, "duration": 9, "velocity": 106}, {"time": 783, "pitch": 65, "duration": 9, "velocity": 106}, {"time": 789, "pitch": 57, "duration": 4, "velocity": 39}, {"time": 795, "pitch": 62, "duration": 9, "velocity": 109}, {"time": 795, "pitch": 65, "duration": 8, "velocity": 109}, {"time": 801, "pitch": 57, "duration": 3, "velocity": 104}, {"time": 807, "pitch": 50, "duration": 37, "velocity": 104}, {"time": 807, "pitch": 62, "duration": 12, "velocity": 104}, {"time": 807, "pitch": 65, "duration": 7, "velocity": 106}, {"time": 813, "pitch": 57, "duration": 8, "velocity": 74}, {"time": 819, "pitch": 65, "duration": 7, "velocity": 101}, {"time": 819, "pitch": 69, "duration": 8, "velocity": 106}, {"time": 825, "pitch": 57, "duration": 8, "velocity": 87}, {"time": 831, "pitch": 62, "duration": 9, "velocity": 96}, {"time": 831, "pitch": 65, "duration": 7, "velocity": 96}, {"time": 837, "pitch": 57, "duration": 6, "velocity": 80}, {"time": 843, "pitch": 65, "duration": 5, "velocity": 106}, {"time": 843, "pitch": 69, "duration": 7, "velocity": 104}, {"time": 849, "pitch": 62, "duration": 2, "velocity": 96}, {"time": 855, "pitch": 43, "duration": 19, "velocity": 101}, {"time": 855, "pitch": 55, "duration": 9, "velocity": 91}, {"time": 855, "pitch": 58, "duration": 7, "velocity": 96}, {"time": 855, "pitch": 62, "duration": 6, "velocity": 82}, {"time": 861, "pitch": 50, "duration": 11, "velocity": 67}, {"time": 867, "pitch": 58, "duration": 7, "velocity": 117}, {"time": 867, "pitch": 62, "duration": 10, "velocity": 104}, {"time": 873, "pitch": 55, "duration": 3, "velocity": 106}, {"time": 879, "pitch": 45, "duration": 15, "velocity": 101}, {"time": 879, "pitch": 57, "duration": 10, "velocity": 104}, {"time": 879, "pitch": 60, "duration": 7, "velocity": 99}, {"time": 885, "pitch": 52, "duration": 9, "velocity": 73}, {"time": 891, "pitch": 60, "duration": 5, "velocity": 106}, {"time": 891, "pitch": 64, "duration": 6, "velocity": 104}, {"time": 897, "pitch": 57, "duration": 5, "velocity": 87}, {"time": 903, "pitch": 46, "duration": 46, "velocity": 77}, {"time": 903, "pitch": 58, "duration": 3, "velocity": 93}, {"time": 903, "pitch": 62, "duration": 4, "velocity": 104}, {"time": 909, "pitch": 53, "duration": 8, "velocity": 35}, {"time": 915, "pitch": 58, "duration": 2, "velocity": 107}, {"time": 915, "pitch": 62, "duration": 9, "velocity": 106}, {"time": 921, "pitch": 58, "duration": 4, "velocity": 83}, {"time": 927, "pitch": 58, "duration": 4, "velocity": 81}, {"time": 927, "pitch": 62, "duration": 7, "velocity": 101}, {"time": 927, "pitch": 65, "duration": 6, "velocity": 101}, {"time": 933, "pitch": 53, "duration": 12, "velocity": 48}, {"time": 939, "pitch": 58, "duration": 1, "velocity": 93}, {"time": 939, "pitch": 62, "duration": 9, "velocity": 106}, {"time": 939, "pitch": 65, "duration": 7, "velocity": 99}, {"time": 945, "pitch": 58, "duration": 3, "velocity": 104}, {"time": 951, "pitch": 45, "duration": 21, "velocity": 96}, {"time": 951, "pitch": 57, "duration": 6, "velocity": 94}, {"time": 951, "pitch": 62, "duration": 6, "velocity": 96}, {"time": 957, "pitch": 52, "duration": 7, "velocity": 85}, {"time": 963, "pitch": 57, "duration": 9, "velocity": 106}, {"time": 963, "pitch": 64, "duration": 8, "velocity": 104}, {"time": 969, "pitch": 52, "duration": 5, "velocity": 87}, {"time": 975, "pitch": 45, "duration": 19, "velocity": 104}, {"time": 975, "pitch": 57, "duration": 9, "velocity": 96}, {"time": 975, "pitch": 61, "duration": 7, "velocity": 93}, {"time": 981, "pitch": 52, "duration": 7, "velocity": 82}, {"time": 987, "pitch": 57, "duration": 2, "velocity": 106}, {"time": 987, "pitch": 61, "duration": 7, "velocity": 117}, {"time": 987, "pitch": 69, "duration": 7, "velocity": 104}, {"time": 993, "pitch": 57, "duration": 3, "velocity": 115}, {"time": 999, "pitch": 50, "duration": 42, "velocity": 101}, {"time": 999, "pitch": 57, "duration": 3, "velocity": 101}, {"time": 999, "pitch": 62, "duration": 7, "velocity": 106}, {"time": 1005, "pitch": 57, "duration": 7, "velocity": 91}, {"time": 1011, "pitch": 62, "duration": 8, "velocity": 106}, {"time": 1011, "pitch": 65, "duration": 8, "velocity": 106}, {"time": 1017, "pitch": 57, "duration": 8, "velocity": 94}, {"time": 1023, "pitch": 62, "duration": 8, "velocity": 106}, {"time": 1023, "pitch": 65, "duration": 9, "velocity": 109}, {"time": 1029, "pitch": 57, "duration": 7, "velocity": 99}, {"time": 1035, "pitch": 62, "duration": 6, "velocity": 109}, {"time": 1035, "pitch": 65, "duration": 7, "velocity": 112}, {"time": 1041, "pitch": 57, "duration": 3, "velocity": 109}, {"time": 1047, "pitch": 46, "duration": 18, "velocity": 70}, {"time": 1047, "pitch": 58, "duration": 7, "velocity": 93}, {"time": 1047, "pitch": 62, "duration": 8, "velocity": 104}, {"time": 1053, "pitch": 53, "duration": 9, "velocity": 80}, {"time": 1059, "pitch": 58, "duration": 1, "velocity": 86}, {"time": 1059, "pitch": 62, "duration": 7, "velocity": 106}, {"time": 1059, "pitch": 65, "duration": 7, "velocity": 106}, {"time": 1065, "pitch": 58, "duration": 3, "velocity": 120}, {"time": 1071, "pitch": 43, "duration": 21, "velocity": 101}, {"time": 1071, "pitch": 58, "duration": 7, "velocity": 107}, {"time": 1071, "pitch": 62, "duration": 7, "velocity": 101}, {"time": 1077, "pitch": 55, "duration": 7, "velocity": 89}, {"time": 1083, "pitch": 58, "duration": 7, "velocity": 113}, {"time": 1083, "pitch": 62, "duration": 10, "velocity": 109}, {"time": 1089, "pitch": 55, "duration": 3, "velocity": 91}, {"time": 1095, "pitch": 43, "duration": 2, "velocity": 106}, {"time": 1095, "pitch": 55, "duration": 2, "velocity": 101}, {"time": 1095, "pitch": 62, "duration": 2, "velocity": 104}, {"time": 1101, "pitch": 43, "duration": 1, "velocity": 99}, {"time": 1101, "pitch": 55, "duration": 1, "velocity": 94}, {"time": 1101, "pitch": 62, "duration": 1, "velocity": 101}, {"time": 1104, "pitch": 43, "duration": 1, "velocity": 91}, {"time": 1104, "pitch": 55, "duration": 1, "velocity": 91}, {"time": 1104, "pitch": 62, "duration": 1, "velocity": 104}, {"time": 1107, "pitch": 45, "duration": 3, "velocity": 106}, {"time": 1107, "pitch": 57, "duration": 3, "velocity": 109}, {"time": 1107, "pitch": 64, "duration": 3, "velocity": 101}, {"time": 1113, "pitch": 43, "duration": 3, "velocity": 96}, {"time": 1113, "pitch": 55, "duration": 3, "velocity": 99}, {"time": 1113, "pitch": 62, "duration": 3, "velocity": 106}, {"time": 1119, "pitch": 41, "duration": 5, "velocity": 99}, {"time": 1119, "pitch": 53, "duration": 4, "velocity": 101}, {"time": 1119, "pitch": 60, "duration": 3, "velocity": 91}, {"time": 1143, "pitch": 50, "duration": 46, "velocity": 101}, {"time": 1143, "pitch": 62, "duration": 7, "velocity": 104}, {"time": 1143, "pitch": 65, "duration": 7, "velocity": 104}, {"time": 1149, "pitch": 57, "duration": 5, "velocity": 74}, {"time": 1155, "pitch": 62, "duration": 3, "velocity": 101}, {"time": 1155, "pitch": 65, "duration": 3, "velocity": 106}, {"time": 1161, "pitch": 57, "duration": 7, "velocity": 104}, {"time": 1167, "pitch": 62, "duration": 9, "velocity": 106}, {"time": 1167, "pitch": 65, "duration": 9, "velocity": 106}, {"time": 1173, "pitch": 57, "duration": 4, "velocity": 39}, {"time": 1179, "pitch": 62, "duration": 9, "velocity": 109}, {"time": 1179, "pitch": 65, "duration": 8, "velocity": 109}, {"time": 1185, "pitch": 57, "duration": 3, "velocity": 104}, {"time": 1191, "pitch": 50, "duration": 10, "velocity": 104}, {"time": 1197, "pitch": 57, "duration": 7, "velocity": 104}, {"time": 1197, "pitch": 62, "duration": 7, "velocity": 112}, {"time": 1197, "pitch": 65, "duration": 7, "velocity": 112}, {"time": 1203, "pitch": 45, "duration": 10, "velocity": 106}, {"time": 1209, "pitch": 57, "duration": 7, "velocity": 109}, {"time": 1209, "pitch": 62, "duration": 7, "velocity": 106}, {"time": 1209, "pitch": 65, "duration": 8, "velocity": 104}, {"time": 1215, "pitch": 50, "duration": 11, "velocity": 104}, {"time": 1221, "pitch": 57, "duration": 10, "velocity": 104}, {"time": 1221, "pitch": 62, "duration": 10, "velocity": 109}, {"time": 1221, "pitch": 65, "duration": 10, "velocity": 106}, {"time": 1227, "pitch": 45, "duration": 9, "velocity": 109}, {"time": 1233, "pitch": 57, "duration": 5, "velocity": 112}, {"time": 1233, "pitch": 62, "duration": 4, "velocity": 118}, {"time": 1233, "pitch": 65, "duration": 5, "velocity": 109}, {"time": 1239, "pitch": 45, "duration": 8, "velocity": 99}, {"time": 1245, "pitch": 57, "duration": 9, "velocity": 106}, {"time": 1245, "pitch": 60, "duration": 9, "velocity": 104}, {"time": 1245, "pitch": 64, "duration": 9, "velocity": 106}, {"time": 1251, "pitch": 52, "duration": 9, "velocity": 101}, {"time": 1257, "pitch": 57, "duration": 4, "velocity": 106}, {"time": 1257, "pitch": 60, "duration": 4, "velocity": 106}, {"time": 1257, "pitch": 64, "duration": 4, "velocity": 101}, {"time": 1263, "pitch": 45, "duration": 13, "velocity": 104}, {"time": 1269, "pitch": 57, "duration": 9, "velocity": 109}, {"time": 1269, "pitch": 60, "duration": 8, "velocity": 106}, {"time": 1269, "pitch": 64, "duration": 8, "velocity": 104}, {"time": 1275, "pitch": 52, "duration": 7, "velocity": 99}, {"time": 1281, "pitch": 57, "duration": 4, "velocity": 104}, {"time": 1281, "pitch": 60, "duration": 3, "velocity": 104}, {"time": 1281, "pitch": 64, "duration": 4, "velocity": 104}, {"time": 1287, "pitch": 46, "duration": 9, "velocity": 79}, {"time": 1293, "pitch": 53, "duration": 8, "velocity": 104}, {"time": 1293, "pitch": 58, "duration": 8, "velocity": 117}, {"time": 1293, "pitch": 62, "duration": 7, "velocity": 106}, {"time": 1299, "pitch": 41, "duration": 8, "velocity": 96}, {"time": 1305, "pitch": 53, "duration": 3, "velocity": 106}, {"time": 1305, "pitch": 58, "duration": 3, "velocity": 120}, {"time": 1305, "pitch": 62, "duration": 3, "velocity": 106}, {"time": 1311, "pitch": 46, "duration": 11, "velocity": 101}, {"time": 1317, "pitch": 53, "duration": 8, "velocity": 106}, {"time": 1317, "pitch": 58, "duration": 9, "velocity": 117}, {"time": 1317, "pitch": 62, "duration": 9, "velocity": 109}, {"time": 1323, "pitch": 41, "duration": 10, "velocity": 104}, {"time": 1329, "pitch": 53, "duration": 5, "velocity": 106}, {"time": 1329, "pitch": 58, "duration": 5, "velocity": 117}, {"time": 1329, "pitch": 62, "duration": 6, "velocity": 109}, {"time": 1335, "pitch": 48, "duration": 12, "velocity": 104}, {"time": 1341, "pitch": 55, "duration": 9, "velocity": 104}, {"time": 1341, "pitch": 60, "duration": 10, "velocity": 104}, {"time": 1341, "pitch": 64, "duration": 10, "velocity": 104}, {"time": 1347, "pitch": 43, "duration": 13, "velocity": 99}, {"time": 1347, "pitch": 45, "duration": 3, "velocity": 76}, {"time": 1353, "pitch": 55, "duration": 5, "velocity": 106}, {"time": 1353, "pitch": 60, "duration": 6, "velocity": 106}, {"time": 1353, "pitch": 64, "duration": 6, "velocity": 104}, {"time": 1359, "pitch": 48, "duration": 11, "velocity": 99}, {"time": 1365, "pitch": 55, "duration": 9, "velocity": 104}, {"time": 1365, "pitch": 60, "duration": 9, "velocity": 104}, {"time": 1365, "pitch": 64, "duration": 9, "velocity": 101}, {"time": 1371, "pitch": 43, "duration": 10, "velocity": 104}, {"time": 1377, "pitch": 55, "duration": 5, "velocity": 109}, {"time": 1377, "pitch": 60, "duration": 5, "velocity": 112}, {"time": 1377, "pitch": 64, "duration": 6, "velocity": 106}, {"time": 1383, "pitch": 43, "duration": 7, "velocity": 106}, {"time": 1389, "pitch": 55, "duration": 9, "velocity": 104}, {"time": 1389, "pitch": 58, "duration": 9, "velocity": 113}, {"time": 1389, "pitch": 62, "duration": 10, "velocity": 106}, {"time": 1395, "pitch": 50, "duration": 10, "velocity": 94}, {"time": 1401, "pitch": 55, "duration": 4, "velocity": 109}, {"time": 1401, "pitch": 58, "duration": 4, "velocity": 117}, {"time": 1401, "pitch": 62, "duration": 4, "velocity": 109}, {"time": 1407, "pitch": 43, "duration": 15, "velocity": 104}, {"time": 1407, "pitch": 55, "duration": 13, "velocity": 104}, {"time": 1407, "pitch": 58, "duration": 13, "velocity": 117}, {"time": 1407, "pitch": 62, "duration": 13, "velocity": 109}, {"time": 1431, "pitch": 45, "duration": 10, "velocity": 106}, {"time": 1437, "pitch": 57, "duration": 9, "velocity": 106}, {"time": 1437, "pitch": 60, "duration": 9, "velocity": 104}, {"time": 1437, "pitch": 64, "duration": 8, "velocity": 104}, {"time": 1443, "pitch": 52, "duration": 10, "velocity": 94}, {"time": 1449, "pitch": 57, "duration": 4, "velocity": 99}, {"time": 1449, "pitch": 60, "duration": 4, "velocity": 96}, {"time": 1449, "pitch": 64, "duration": 4, "velocity": 96}, {"time": 1455, "pitch": 45, "duration": 17, "velocity": 106}, {"time": 1455, "pitch": 57, "duration": 16, "velocity": 101}, {"time": 1455, "pitch": 60, "duration": 15, "velocity": 101}, {"time": 1479, "pitch": 48, "duration": 1, "velocity": 104}, {"time": 1479, "pitch": 55, "duration": 2, "velocity": 96}, {"time": 1479, "pitch": 60, "duration": 2, "velocity": 101}, {"time": 1479, "pitch": 64, "duration": 2, "velocity": 101}, {"time": 1485, "pitch": 48, "duration": 1, "velocity": 85}, {"time": 1485, "pitch": 55, "duration": 1, "velocity": 78}, {"time": 1485, "pitch": 60, "duration": 1, "velocity": 91}, {"time": 1485, "pitch": 64, "duration": 1, "velocity": 94}, {"time": 1488, "pitch": 48, "duration": 1, "velocity": 94}, {"time": 1488, "pitch": 55, "duration": 1, "velocity": 89}, {"time": 1488, "pitch": 60, "duration": 1, "velocity": 89}, {"time": 1488, "pitch": 64, "duration": 1, "velocity": 99}, {"time": 1491, "pitch": 48, "duration": 1, "velocity": 99}, {"time": 1491, "pitch": 55, "duration": 1, "velocity": 99}, {"time": 1491, "pitch": 60, "duration": 1, "velocity": 96}, {"time": 1491, "pitch": 64, "duration": 1, "velocity": 104}, {"time": 1497, "pitch": 48, "duration": 2, "velocity": 99}, {"time": 1497, "pitch": 55, "duration": 1, "velocity": 106}, {"time": 1497, "pitch": 60, "duration": 1, "velocity": 106}, {"time": 1497, "pitch": 64, "duration": 2, "velocity": 106}, {"time": 1503, "pitch": 48, "duration": 20, "velocity": 104}, {"time": 1503, "pitch": 55, "duration": 21, "velocity": 106}, {"time": 1503, "pitch": 60, "duration": 22, "velocity": 106}, {"time": 1503, "pitch": 64, "duration": 22, "velocity": 104}, {"time": 1527, "pitch": 50, "duration": 10, "velocity": 109}, {"time": 1533, "pitch": 57, "duration": 8, "velocity": 101}, {"time": 1533, "pitch": 62, "duration": 9, "velocity": 104}, {"time": 1533, "pitch": 65, "duration": 9, "velocity": 101}, {"time": 1539, "pitch": 45, "duration": 9, "velocity": 104}, {"time": 1545, "pitch": 57, "duration": 8, "velocity": 106}, {"time": 1545, "pitch": 62, "duration": 8, "velocity": 112}, {"time": 1545, "pitch": 65, "duration": 8, "velocity": 104}, {"time": 1551, "pitch": 50, "duration": 11, "velocity": 104}, {"time": 1557, "pitch": 57, "duration": 9, "velocity": 104}, {"time": 1557, "pitch": 62, "duration": 9, "velocity": 106}, {"time": 1557, "pitch": 65, "duration": 9, "velocity": 106}, {"time": 1563, "pitch": 45, "duration": 9, "velocity": 109}, {"time": 1569, "pitch": 57, "duration": 4, "velocity": 104}, {"time": 1569, "pitch": 62, "duration": 5, "velocity": 106}, {"time": 1569, "pitch": 65, "duration": 5, "velocity": 104}, {"time": 1575, "pitch": 50, "duration": 10, "velocity": 104}, {"time": 1581, "pitch": 57, "duration": 7, "velocity": 104}, {"time": 1581, "pitch": 62, "duration": 7, "velocity": 112}, {"time": 1581, "pitch": 65, "duration": 7, "velocity": 112}, {"time": 1587, "pitch": 45, "duration": 10, "velocity": 106}, {"time": 1593, "pitch": 57, "duration": 7, "velocity": 109}, {"time": 1593, "pitch": 62, "duration": 7, "velocity": 106}, {"time": 1593, "pitch": 65, "duration": 8, "velocity": 104}, {"time": 1599, "pitch": 50, "duration": 11, "velocity": 104}, {"time": 1605, "pitch": 57, "duration": 10, "velocity": 104}, {"time": 1605, "pitch": 62, "duration": 10, "velocity": 109}, {"time": 1605, "pitch": 65, "duration": 10, "velocity": 106}, {"time": 1611, "pitch": 45, "duration": 9, "velocity": 109}, {"time": 1617, "pitch": 57, "duration": 5, "velocity": 112}, {"time": 1617, "pitch": 62, "duration": 4, "velocity": 118}, {"time": 1617, "pitch": 65, "duration": 5, "velocity": 109}, {"time": 1623, "pitch": 45, "duration": 8, "velocity": 99}, {"time": 1629, "pitch": 57, "duration": 9, "velocity": 106}, {"time": 1629, "pitch": 60, "duration": 9, "velocity": 104}, {"time": 1629, "pitch": 64, "duration": 9, "velocity": 106}, {"time": 1635, "pitch": 52, "duration": 9, "velocity": 101}, {"time": 1641, "pitch": 57, "duration": 4, "velocity": 106}, {"time": 1641, "pitch": 60, "duration": 4, "velocity": 106}, {"time": 1641, "pitch": 64, "duration": 4, "velocity": 101}, {"time": 1647, "pitch": 45, "duration": 13, "velocity": 104}, {"time": 1653, "pitch": 57, "duration": 9, "velocity": 109}, {"time": 1653, "pitch": 60, "duration": 8, "velocity": 106}, {"time": 1653, "pitch": 64, "duration": 8, "velocity": 104}, {"time": 1659, "pitch": 52, "duration": 7, "velocity": 99}, {"time": 1665, "pitch": 57, "duration": 4, "velocity": 104}, {"time": 1665, "pitch": 60, "duration": 3, "velocity": 104}, {"time": 1665, "pitch": 64, "duration": 4, "velocity": 104}, {"time": 1671, "pitch": 46, "duration": 9, "velocity": 79}, {"time": 1677, "pitch": 53, "duration": 8, "velocity": 104}, {"time": 1677, "pitch": 58, "duration": 8, "velocity": 117}, {"time": 1677, "pitch": 62, "duration": 7, "velocity": 106}, {"time": 1683, "pitch": 41, "duration": 8, "velocity": 96}, {"time": 1689, "pitch": 53, "duration": 3, "velocity": 106}, {"time": 1689, "pitch": 58, "duration": 3, "velocity": 120}, {"time": 1689, "pitch": 62, "duration": 3, "velocity": 106}, {"time": 1695, "pitch": 46, "duration": 11, "velocity": 101}, {"time": 1701, "pitch": 53, "duration": 8, "velocity": 106}, {"time": 1701, "pitch": 58, "duration": 9, "velocity": 117}, {"time": 1701, "pitch": 62, "duration": 9, "velocity": 109}, {"time": 1707, "pitch": 41, "duration": 10, "velocity": 104}, {"time": 1713, "pitch": 53, "duration": 5, "velocity": 106}, {"time": 1713, "pitch": 58, "duration": 5, "velocity": 117}, {"time": 1713, "pitch": 62, "duration": 6, "velocity": 109}, {"time": 1719, "pitch": 48, "duration": 12, "velocity": 104}, {"time": 1725, "pitch": 55, "duration": 9, "velocity": 104}, {"time": 1725, "pitch": 60, "duration": 10, "velocity": 104}, {"time": 1725, "pitch": 64, "duration": 10, "velocity": 104}, {"time": 1731, "pitch": 43, "duration": 13, "velocity": 99}, {"time": 1731, "pitch": 45, "duration": 3, "velocity": 76}, {"time": 1737, "pitch": 55, "duration": 5, "velocity": 106}, {"time": 1737, "pitch": 60, "duration": 6, "velocity": 106}, {"time": 1737, "pitch": 64, "duration": 6, "velocity": 104}, {"time": 1743, "pitch": 48, "duration": 11, "velocity": 99}, {"time": 1749, "pitch": 55, "duration": 9, "velocity": 104}, {"time": 1749, "pitch": 60, "duration": 9, "velocity": 104}, {"time": 1749, "pitch": 64, "duration": 9, "velocity": 101}, {"time": 1755, "pitch": 43, "duration": 10, "velocity": 104}, {"time": 1761, "pitch": 55, "duration": 5, "velocity": 109}, {"time": 1761, "pitch": 60, "duration": 5, "velocity": 112}, {"time": 1761, "pitch": 64, "duration": 6, "velocity": 106}, {"time": 1767, "pitch": 43, "duration": 7, "velocity": 106}, {"time": 1773, "pitch": 55, "duration": 9, "velocity": 104}, {"time": 1773, "pitch": 58, "duration": 9, "velocity": 113}, {"time": 1773, "pitch": 62, "duration": 10, "velocity": 106}, {"time": 1779, "pitch": 50, "duration": 10, "velocity": 94}, {"time": 1785, "pitch": 55, "duration": 4, "velocity": 109}, {"time": 1785, "pitch": 58, "duration": 4, "velocity": 117}, {"time": 1785, "pitch": 62, "duration": 4, "velocity": 109}, {"time": 1791, "pitch": 43, "duration": 15, "velocity": 104}, {"time": 1791, "pitch": 55, "duration": 13, "velocity": 104}, {"time": 1791, "pitch": 58, "duration": 13, "velocity": 117}, {"time": 1791, "pitch": 62, "duration": 13, "velocity": 109}, {"time": 1815, "pitch": 45, "duration": 10, "velocity": 106}, {"time": 1821, "pitch": 57, "duration": 9, "velocity": 106}, {"time": 1821, "pitch": 60, "duration": 9, "velocity": 104}, {"time": 1821, "pitch": 64, "duration": 8, "velocity": 104}, {"time": 1827, "pitch": 52, "duration": 10, "velocity": 94}, {"time": 1833, "pitch": 57, "duration": 4, "velocity": 99}, {"time": 1833, "pitch": 60, "duration": 4, "velocity": 96}, {"time": 1833, "pitch": 64, "duration": 4, "velocity": 96}, {"time": 1839, "pitch": 45, "duration": 17, "velocity": 106}, {"time": 1839, "pitch": 57, "duration": 16, "velocity": 101}, {"time": 1839, "pitch": 60, "duration": 15, "velocity": 101}, {"time": 1863, "pitch": 48, "duration": 1, "velocity": 104}, {"time": 1863, "pitch": 55, "duration": 2, "velocity": 96}, {"time": 1863, "pitch": 60, "duration": 2, "velocity": 101}, {"time": 1863, "pitch": 64, "duration": 2, "velocity": 101}, {"time": 1869, "pitch": 48, "duration": 1, "velocity": 85}, {"time": 1869, "pitch": 55, "duration": 1, "velocity": 78}, {"time": 1869, "pitch": 60, "duration": 1, "velocity": 91}, {"time": 1869, "pitch": 64, "duration": 1, "velocity": 94}, {"time": 1872, "pitch": 48, "duration": 1, "velocity": 94}, {"time": 1872, "pitch": 55, "duration": 1, "velocity": 89}, {"time": 1872, "pitch": 60, "duration": 1, "velocity": 89}, {"time": 1872, "pitch": 64, "duration": 1, "velocity": 99}, {"time": 1875, "pitch": 48, "duration": 1, "velocity": 99}, {"time": 1875, "pitch": 55, "duration": 1, "velocity": 99}, {"time": 1875, "pitch": 60, "duration": 1, "velocity": 96}, {"time": 1875, "pitch": 64, "duration": 1, "velocity": 104}, {"time": 1881, "pitch": 48, "duration": 2, "velocity": 99}, {"time": 1881, "pitch": 55, "duration": 1, "velocity": 106}, {"time": 1881, "pitch": 60, "duration": 1, "velocity": 106}, {"time": 1881, "pitch": 64, "duration": 2, "velocity": 106}, {"time": 1887, "pitch": 48, "duration": 20, "velocity": 104}, {"time": 1887, "pitch": 55, "duration": 21, "velocity": 106}, {"time": 1887, "pitch": 60, "duration": 22, "velocity": 106}, {"time": 1887, "pitch": 64, "duration": 22, "velocity": 104}, {"time": 1911, "pitch": 50, "duration": 10, "velocity": 109}, {"time": 1917, "pitch": 57, "duration": 8, "velocity": 101}, {"time": 1917, "pitch": 62, "duration": 9, "velocity": 104}, {"time": 1917, "pitch": 65, "duration": 9, "velocity": 101}, {"time": 1923, "pitch": 45, "duration": 9, "velocity": 104}, {"time": 1929, "pitch": 57, "duration": 8, "velocity": 106}, {"time": 1929, "pitch": 62, "duration": 8, "velocity": 112}, {"time": 1929, "pitch": 65, "duration": 8, "velocity": 104}, {"time": 1935, "pitch": 50, "duration": 11, "velocity": 104}, {"time": 1941, "pitch": 57, "duration": 9, "velocity": 104}, {"time": 1941, "pitch": 62, "duration": 9, "velocity": 106}, {"time": 1941, "pitch": 65, "duration": 9, "velocity": 106}, {"time": 1947, "pitch": 45, "duration": 9, "velocity": 109}, {"time": 1953, "pitch": 57, "duration": 4, "velocity": 104}, {"time": 1953, "pitch": 62, "duration": 5, "velocity": 106}, {"time": 1953, "pitch": 65, "duration": 5, "velocity": 104}, {"time": 1959, "pitch": 50, "duration": 11, "velocity": 104}, {"time": 1965, "pitch": 57, "duration": 6, "velocity": 99}, {"time": 1965, "pitch": 62, "duration": 7, "velocity": 104}, {"time": 1965, "pitch": 65, "duration": 7, "velocity": 104}, {"time": 1971, "pitch": 45, "duration": 10, "velocity": 82}, {"time": 1977, "pitch": 57, "duration": 3, "velocity": 99}, {"time": 1977, "pitch": 62, "duration": 2, "velocity": 104}, {"time": 1977, "pitch": 65, "duration": 4, "velocity": 104}, {"time": 1983, "pitch": 50, "duration": 12, "velocity": 99}, {"time": 1989, "pitch": 57, "duration": 9, "velocity": 106}, {"time": 1989, "pitch": 62, "duration": 9, "velocity": 109}, {"time": 1989, "pitch": 65, "duration": 9, "velocity": 104}, {"time": 1995, "pitch": 45, "duration": 9, "velocity": 91}, {"time": 2001, "pitch": 57, "duration": 5, "velocity": 109}, {"time": 2001, "pitch": 62, "duration": 5, "velocity": 115}, {"time": 2001, "pitch": 65, "duration": 6, "velocity": 106}, {"time": 2007, "pitch": 45, "duration": 7, "velocity": 99}, {"time": 2013, "pitch": 57, "duration": 8, "velocity": 101}, {"time": 2013, "pitch": 60, "duration": 8, "velocity": 94}, {"time": 2013, "pitch": 64, "duration": 8, "velocity": 106}, {"time": 2019, "pitch": 52, "duration": 9, "velocity": 94}, {"time": 2025, "pitch": 57, "duration": 3, "velocity": 96}, {"time": 2025, "pitch": 60, "duration": 3, "velocity": 89}, {"time": 2025, "pitch": 64, "duration": 3, "velocity": 99}, {"time": 2031, "pitch": 45, "duration": 9, "velocity": 82}, {"time": 2037, "pitch": 57, "duration": 9, "velocity": 106}, {"time": 2037, "pitch": 60, "duration": 9, "velocity": 96}, {"time": 2037, "pitch": 64, "duration": 9, "velocity": 101}, {"time": 2043, "pitch": 52, "duration": 10, "velocity": 94}, {"time": 2049, "pitch": 57, "duration": 5, "velocity": 104}, {"time": 2049, "pitch": 60, "duration": 4, "velocity": 96}, {"time": 2049, "pitch": 64, "duration": 10, "velocity": 104}, {"time": 2055, "pitch": 46, "duration": 9, "velocity": 70}, {"time": 2061, "pitch": 53, "duration": 9, "velocity": 99}, {"time": 2061, "pitch": 58, "duration": 9, "velocity": 96}, {"time": 2061, "pitch": 62, "duration": 9, "velocity": 101}, {"time": 2067, "pitch": 41, "duration": 9, "velocity": 96}, {"time": 2073, "pitch": 53, "duration": 4, "velocity": 104}, {"time": 2073, "pitch": 58, "duration": 4, "velocity": 113}, {"time": 2073, "pitch": 62, "duration": 4, "velocity": 106}, {"time": 2079, "pitch": 46, "duration": 10, "velocity": 104}, {"time": 2085, "pitch": 53, "duration": 8, "velocity": 106}, {"time": 2085, "pitch": 58, "duration": 8, "velocity": 117}, {"time": 2085, "pitch": 62, "duration": 8, "velocity": 106}, {"time": 2091, "pitch": 41, "duration": 9, "velocity": 101}, {"time": 2097, "pitch": 53, "duration": 3, "velocity": 96}, {"time": 2097, "pitch": 58, "duration": 3, "velocity": 107}, {"time": 2097, "pitch": 62, "duration": 4, "velocity": 106}, {"time": 2103, "pitch": 48, "duration": 11, "velocity": 94}, {"time": 2109, "pitch": 55, "duration": 7, "velocity": 91}, {"time": 2109, "pitch": 60, "duration": 8, "velocity": 91}, {"time": 2109, "pitch": 64, "duration": 8, "velocity": 101}, {"time": 2115, "pitch": 43, "duration": 10, "velocity": 89}, {"time": 2121, "pitch": 55, "duration": 5, "velocity": 87}, {"time": 2121, "pitch": 60, "duration": 6, "velocity": 96}, {"time": 2121, "pitch": 64, "duration": 6, "velocity": 101}, {"time": 2127, "pitch": 48, "duration": 11, "velocity": 69}, {"time": 2133, "pitch": 55, "duration": 9, "velocity": 99}, {"time": 2133, "pitch": 60, "duration": 9, "velocity": 99}, {"time": 2133, "pitch": 64, "duration": 9, "velocity": 101}, {"time": 2139, "pitch": 43, "duration": 8, "velocity": 104}, {"time": 2145, "pitch": 55, "duration": 5, "velocity": 106}, {"time": 2145, "pitch": 60, "duration": 3, "velocity": 109}, {"time": 2145, "pitch": 64, "duration": 6, "velocity": 106}, {"time": 2151, "pitch": 43, "duration": 8, "velocity": 104}, {"time": 2157, "pitch": 55, "duration": 8, "velocity": 101}, {"time": 2157, "pitch": 58, "duration": 7, "velocity": 113}, {"time": 2157, "pitch": 62, "duration": 8, "velocity": 104}, {"time": 2163, "pitch": 50, "duration": 8, "velocity": 78}, {"time": 2169, "pitch": 55, "duration": 2, "velocity": 94}, {"time": 2169, "pitch": 58, "duration": 2, "velocity": 101}, {"time": 2169, "pitch": 62, "duration": 2, "velocity": 104}, {"time": 2175, "pitch": 43, "duration": 7, "velocity": 101}, {"time": 2187, "pitch": 55, "duration": 4, "velocity": 94}, {"time": 2187, "pitch": 58, "duration": 5, "velocity": 96}, {"time": 2187, "pitch": 62, "duration": 5, "velocity": 106}, {"time": 2199, "pitch": 45, "duration": 8, "velocity": 104}, {"time": 2205, "pitch": 57, "duration": 8, "velocity": 104}, {"time": 2205, "pitch": 60, "duration": 8, "velocity": 101}, {"time": 2205, "pitch": 64, "duration": 8, "velocity": 101}, {"time": 2211, "pitch": 52, "duration": 8, "velocity": 87}, {"time": 2217, "pitch": 57, "duration": 3, "velocity": 94}, {"time": 2217, "pitch": 60, "duration": 3, "velocity": 91}, {"time": 2217, "pitch": 64, "duration": 3, "velocity": 96}, {"time": 2223, "pitch": 45, "duration": 6, "velocity": 104}, {"time": 2223, "pitch": 57, "duration": 4, "velocity": 89}, {"time": 2223, "pitch": 60, "duration": 4, "velocity": 89}, {"time": 2223, "pitch": 64, "duration": 4, "velocity": 96}, {"time": 2247, "pitch": 48, "duration": 1, "velocity": 99}, {"time": 2247, "pitch": 55, "duration": 1, "velocity": 96}, {"time": 2247, "pitch": 60, "duration": 1, "velocity": 99}, {"time": 2247, "pitch": 64, "duration": 1, "velocity": 101}, {"time": 2253, "pitch": 48, "duration": 1, "velocity": 80}, {"time": 2253, "pitch": 55, "duration": 1, "velocity": 82}, {"time": 2253, "pitch": 60, "duration": 1, "velocity": 89}, {"time": 2253, "pitch": 64, "duration": 1, "velocity": 91}, {"time": 2256, "pitch": 48, "duration": 1, "velocity": 91}, {"time": 2256, "pitch": 55, "duration": 1, "velocity": 82}, {"time": 2256, "pitch": 60, "duration": 1, "velocity": 85}, {"time": 2256, "pitch": 64, "duration": 1, "velocity": 96}, {"time": 2259, "pitch": 48, "duration": 1, "velocity": 96}, {"time": 2259, "pitch": 55, "duration": 1, "velocity": 89}, {"time": 2259, "pitch": 60, "duration": 1, "velocity": 91}, {"time": 2259, "pitch": 64, "duration": 1, "velocity": 99}, {"time": 2265, "pitch": 48, "duration": 1, "velocity": 96}, {"time": 2265, "pitch": 55, "duration": 1, "velocity": 91}, {"time": 2265, "pitch": 60, "duration": 1, "velocity": 99}, {"time": 2265, "pitch": 64, "duration": 1, "velocity": 99}, {"time": 2271, "pitch": 48, "duration": 4, "velocity": 99}, {"time": 2271, "pitch": 55, "duration": 3, "velocity": 99}, {"time": 2271, "pitch": 60, "duration": 4, "velocity": 96}, {"time": 2271, "pitch": 64, "duration": 4, "velocity": 101}, {"time": 2295, "pitch": 50, "duration": 10, "velocity": 104}, {"time": 2301, "pitch": 57, "duration": 7, "velocity": 104}, {"time": 2301, "pitch": 62, "duration": 7, "velocity": 106}, {"time": 2301, "pitch": 65, "duration": 7, "velocity": 104}, {"time": 2307, "pitch": 45, "duration": 9, "velocity": 109}, {"time": 2313, "pitch": 57, "duration": 7, "velocity": 101}, {"time": 2313, "pitch": 62, "duration": 7, "velocity": 99}, {"time": 2313, "pitch": 65, "duration": 7, "velocity": 101}, {"time": 2319, "pitch": 50, "duration": 11, "velocity": 94}, {"time": 2325, "pitch": 57, "duration": 8, "velocity": 101}, {"time": 2325, "pitch": 62, "duration": 8, "velocity": 101}, {"time": 2325, "pitch": 65, "duration": 8, "velocity": 101}, {"time": 2331, "pitch": 45, "duration": 10, "velocity": 101}, {"time": 2337, "pitch": 57, "duration": 4, "velocity": 109}, {"time": 2337, "pitch": 62, "duration": 4, "velocity": 106}, {"time": 2337, "pitch": 65, "duration": 4, "velocity": 104}, {"time": 2343, "pitch": 50, "duration": 37, "velocity": 104}, {"time": 2343, "pitch": 62, "duration": 12, "velocity": 104}, {"time": 2343, "pitch": 65, "duration": 7, "velocity": 106}, {"time": 2349, "pitch": 57, "duration": 8, "velocity": 74}, {"time": 2355, "pitch": 65, "duration": 7, "velocity": 101}, {"time": 2355, "pitch": 69, "duration": 8, "velocity": 106}, {"time": 2361, "pitch": 57, "duration": 8, "velocity": 87}, {"time": 2367, "pitch": 62, "duration": 9, "velocity": 96}, {"time": 2367, "pitch": 65, "duration": 7, "velocity": 96}, {"time": 2373, "pitch": 57, "duration": 6, "velocity": 80}, {"time": 2379, "pitch": 65, "duration": 5, "velocity": 106}, {"time": 2379, "pitch": 69, "duration": 7, "velocity": 104}, {"time": 2385, "pitch": 62, "duration": 2, "velocity": 96}, {"time": 2391, "pitch": 43, "duration": 19, "velocity": 101}, {"time": 2391, "pitch": 55, "duration": 9, "velocity": 91}, {"time": 2391, "pitch": 58, "duration": 7, "velocity": 96}, {"time": 2391, "pitch": 62, "duration": 6, "velocity": 82}, {"time": 2397, "pitch": 50, "duration": 11, "velocity": 67}, {"time": 2403, "pitch": 58, "duration": 7, "velocity": 117}, {"time": 2403, "pitch": 62, "duration": 10, "velocity": 104}, {"time": 2409, "pitch": 55, "duration": 3, "velocity": 106}, {"time": 2415, "pitch": 45, "duration": 15, "velocity": 101}, {"time": 2415, "pitch": 57, "duration": 10, "velocity": 104}, {"time": 2415, "pitch": 60, "duration": 7, "velocity": 99}, {"time": 2421, "pitch": 52, "duration": 9, "velocity": 73}, {"time": 2427, "pitch": 60, "duration": 5, "velocity": 106}, {"time": 2427, "pitch": 64, "duration": 6, "velocity": 104}, {"time": 2433, "pitch": 57, "duration": 5, "velocity": 87}, {"time": 2439, "pitch": 46, "duration": 46, "velocity": 77}, {"time": 2439, "pitch": 58, "duration": 3, "velocity": 93}, {"time": 2439, "pitch": 62, "duration": 4, "velocity": 104}, {"time": 2445, "pitch": 53, "duration": 8, "velocity": 35}, {"time": 2451, "pitch": 58, "duration": 2, "velocity": 107}, {"time": 2451, "pitch": 62, "duration": 9, "velocity": 106}, {"time": 2457, "pitch": 58, "duration": 4, "velocity": 83}, {"time": 2463, "pitch": 58, "duration": 4, "velocity": 81}, {"time": 2463, "pitch": 62, "duration": 7, "velocity": 101}, {"time": 2463, "pitch": 65, "duration": 6, "velocity": 101}, {"time": 2469, "pitch": 53, "duration": 12, "velocity": 48}, {"time": 2475, "pitch": 58, "duration": 1, "velocity": 93}, {"time": 2475, "pitch": 62, "duration": 9, "velocity": 106}, {"time": 2475, "pitch": 65, "duration": 7, "velocity": 99}, {"time": 2481, "pitch": 58, "duration": 3, "velocity": 104}, {"time": 2487, "pitch": 45, "duration": 21, "velocity": 96}, {"time": 2487, "pitch": 57, "duration": 6, "velocity": 94}, {"time": 2487, "pitch": 62, "duration": 6, "velocity": 96}, {"time": 2493, "pitch": 52, "duration": 7, "velocity": 85}, {"time": 2499, "pitch": 57, "duration": 9, "velocity": 106}, {"time": 2499, "pitch": 64, "duration": 8, "velocity": 104}, {"time": 2505, "pitch": 52, "duration": 5, "velocity": 87}, {"time": 2511, "pitch": 45, "duration": 19, "velocity": 104}, {"time": 2511, "pitch": 57, "duration": 9, "velocity": 96}, {"time": 2511, "pitch": 61, "duration": 7, "velocity": 93}, {"time": 2517, "pitch": 52, "duration": 7, "velocity": 82}, {"time": 2523, "pitch": 57, "duration": 2, "velocity": 106}, {"time": 2523, "pitch": 61, "duration": 7, "velocity": 117}, {"time": 2523, "pitch": 69, "duration": 7, "velocity": 104}, {"time": 2529, "pitch": 57, "duration": 3, "velocity": 115}, {"time": 2535, "pitch": 50, "duration": 42, "velocity": 101}, {"time": 2535, "pitch": 57, "duration": 3, "velocity": 101}, {"time": 2535, "pitch": 62, "duration": 7, "velocity": 106}, {"time": 2541, "pitch": 57, "duration": 7, "velocity": 91}, {"time": 2547, "pitch": 62, "duration": 8, "velocity": 106}, {"time": 2547, "pitch": 65, "duration": 8, "velocity": 106}, {"time": 2553, "pitch": 57, "duration": 8, "velocity": 94}, {"time": 2559, "pitch": 62, "duration": 8, "velocity": 106}, {"time": 2559, "pitch": 65, "duration": 9, "velocity": 109}, {"time": 2565, "pitch": 57, "duration": 7, "velocity": 99}, {"time": 2571, "pitch": 62, "duration": 6, "velocity": 109}, {"time": 2571, "pitch": 65, "duration": 7, "velocity": 112}, {"time": 2577, "pitch": 57, "duration": 3, "velocity": 109}, {"time": 2583, "pitch": 46, "duration": 18, "velocity": 70}, {"time": 2583, "pitch": 58, "duration": 7, "velocity": 93}, {"time": 2583, "pitch": 62, "duration": 8, "velocity": 104}, {"time": 2589, "pitch": 53, "duration": 9, "velocity": 80}, {"time": 2595, "pitch": 58, "duration": 1, "velocity": 86}, {"time": 2595, "pitch": 62, "duration": 7, "velocity": 106}, {"time": 2595, "pitch": 65, "duration": 7, "velocity": 106}, {"time": 2601, "pitch": 58, "duration": 3, "velocity": 120}, {"time": 2607, "pitch": 43, "duration": 21, "velocity": 101}, {"time": 2607, "pitch": 58, "duration": 7, "velocity": 107}, {"time": 2607, "pitch": 62, "duration": 7, "velocity": 101}, {"time": 2613, "pitch": 55, "duration": 7, "velocity": 89}, {"time": 2619, "pitch": 58, "duration": 7, "velocity": 113}, {"time": 2619, "pitch": 62, "duration": 10, "velocity": 109}, {"time": 2625, "pitch": 55, "duration": 3, "velocity": 91}, {"time": 2631, "pitch": 43, "duration": 2, "velocity": 106}, {"time": 2631, "pitch": 55, "duration": 2, "velocity": 101}, {"time": 2631, "pitch": 62, "duration": 2, "velocity": 104}, {"time": 2637, "pitch": 43, "duration": 1, "velocity": 99}, {"time": 2637, "pitch": 55, "duration": 1, "velocity": 94}, {"time": 2637, "pitch": 62, "duration": 1, "velocity": 101}, {"time": 2640, "pitch": 43, "duration": 1, "velocity": 91}, {"time": 2640, "pitch": 55, "duration": 1, "velocity": 91}, {"time": 2640, "pitch": 62, "duration": 1, "velocity": 104}, {"time": 2643, "pitch": 45, "duration": 3, "velocity": 106}, {"time": 2643, "pitch": 57, "duration": 3, "velocity": 109}, {"time": 2643, "pitch": 64, "duration": 3, "velocity": 101}, {"time": 2649, "pitch": 43, "duration": 3, "velocity": 96}, {"time": 2649, "pitch": 55, "duration": 3, "velocity": 99}, {"time": 2649, "pitch": 62, "duration": 3, "velocity": 106}, {"time": 2655, "pitch": 41, "duration": 5, "velocity": 99}, {"time": 2655, "pitch": 53, "duration": 4, "velocity": 101}, {"time": 2655, "pitch": 60, "duration": 3, "velocity": 91}, {"time": 2679, "pitch": 50, "duration": 46, "velocity": 101}, {"time": 2679, "pitch": 62, "duration": 7, "velocity": 104}, {"time": 2679, "pitch": 65, "duration": 7, "velocity": 104}, {"time": 2685, "pitch": 57, "duration": 5, "velocity": 74}, {"time": 2691, "pitch": 62, "duration": 3, "velocity": 101}, {"time": 2691, "pitch": 65, "duration": 3, "velocity": 106}, {"time": 2697, "pitch": 57, "duration": 7, "velocity": 104}, {"time": 2703, "pitch": 62, "duration": 9, "velocity": 106}, {"time": 2703, "pitch": 65, "duration": 9, "velocity": 106}, {"time": 2709, "pitch": 57, "duration": 4, "velocity": 39}, {"time": 2715, "pitch": 62, "duration": 9, "velocity": 109}, {"time": 2715, "pitch": 65, "duration": 8, "velocity": 109}, {"time": 2721, "pitch": 57, "duration": 3, "velocity": 104}, {"time": 2727, "pitch": 50, "duration": 37, "velocity": 104}, {"time": 2727, "pitch": 62, "duration": 12, "velocity": 104}, {"time": 2727, "pitch": 65, "duration": 7, "velocity": 106}, {"time": 2733, "pitch": 57, "duration": 8, "velocity": 74}, {"time": 2739, "pitch": 65, "duration": 7, "velocity": 101}, {"time": 2739, "pitch": 69, "duration": 8, "velocity": 106}, {"time": 2745, "pitch": 57, "duration": 8, "velocity": 87}, {"time": 2751, "pitch": 62, "duration": 9, "velocity": 96}, {"time": 2751, "pitch": 65, "duration": 7, "velocity": 96}, {"time": 2757, "pitch": 57, "duration": 6, "velocity": 80}, {"time": 2763, "pitch": 65, "duration": 5, "velocity": 106}, {"time": 2763, "pitch": 69, "duration": 7, "velocity": 104}, {"time": 2769, "pitch": 62, "duration": 2, "velocity": 96}, {"time": 2775, "pitch": 43, "duration": 19, "velocity": 101}, {"time": 2775, "pitch": 55, "duration": 9, "velocity": 91}, {"time": 2775, "pitch": 58, "duration": 7, "velocity": 96}, {"time": 2775, "pitch": 62, "duration": 6, "velocity": 82}, {"time": 2781, "pitch": 50, "duration": 11, "velocity": 67}, {"time": 2787, "pitch": 58, "duration": 7, "velocity": 117}, {"time": 2787, "pitch": 62, "duration": 10, "velocity": 104}, {"time": 2793, "pitch": 55, "duration": 3, "velocity": 106}, {"time": 2799, "pitch": 45, "duration": 15, "velocity": 101}, {"time": 2799, "pitch": 57, "duration": 10, "velocity": 104}, {"time": 2799, "pitch": 60, "duration": 7, "velocity": 99}, {"time": 2805, "pitch": 52, "duration": 9, "velocity": 73}, {"time": 2811, "pitch": 60, "duration": 5, "velocity": 106}, {"time": 2811, "pitch": 64, "duration": 6, "velocity": 104}, {"time": 2817, "pitch": 57, "duration": 5, "velocity": 87}, {"time": 2823, "pitch": 46, "duration": 46, "velocity": 77}, {"time": 2823, "pitch": 58, "duration": 3, "velocity": 93}, {"time": 2823, "pitch": 62, "duration": 4, "velocity": 104}, {"time": 2829, "pitch": 53, "duration": 8, "velocity": 35}, {"time": 2835, "pitch": 58, "duration": 2, "velocity": 107}, {"time": 2835, "pitch": 62, "duration": 9, "velocity": 106}, {"time": 2841, "pitch": 58, "duration": 4, "velocity": 83}, {"time": 2847, "pitch": 58, "duration": 4, "velocity": 81}, {"time": 2847, "pitch": 62, "duration": 7, "velocity": 101}, {"time": 2847, "pitch": 65, "duration": 6, "velocity": 101}, {"time": 2853, "pitch": 53, "duration": 12, "velocity": 48}, {"time": 2859, "pitch": 58, "duration": 1, "velocity": 93}, {"time": 2859, "pitch": 62, "duration": 9, "velocity": 106}, {"time": 2859, "pitch": 65, "duration": 7, "velocity": 99}, {"time": 2865, "pitch": 58, "duration": 3, "velocity": 104}, {"time": 2871, "pitch": 45, "duration": 21, "velocity": 96}, {"time": 2871, "pitch": 57, "duration": 6, "velocity": 94}, {"time": 2871, "pitch": 62, "duration": 6, "velocity": 96}, {"time": 2877, "pitch": 52, "duration": 7, "velocity": 85}, {"time": 2883, "pitch": 57, "duration": 9, "velocity": 106}, {"time": 2883, "pitch": 64, "duration": 8, "velocity": 104}, {"time": 2889, "pitch": 52, "duration": 5, "velocity": 87}, {"time": 2895, "pitch": 45, "duration": 19, "velocity": 104}, {"time": 2895, "pitch": 57, "duration": 9, "velocity": 96}, {"time": 2895, "pitch": 61, "duration": 7, "velocity": 93}, {"time": 2901, "pitch": 52, "duration": 7, "velocity": 82}, {"time": 2907, "pitch": 57, "duration": 2, "velocity": 106}, {"time": 2907, "pitch": 61, "duration": 7, "velocity": 117}, {"time": 2907, "pitch": 69, "duration": 7, "velocity": 104}, {"time": 2913, "pitch": 57, "duration": 3, "velocity": 115}, {"time": 2919, "pitch": 50, "duration": 42, "velocity": 101}, {"time": 2919, "pitch": 57, "duration": 3, "velocity": 101}, {"time": 2919, "pitch": 62, "duration": 7, "velocity": 106}, {"time": 2925, "pitch": 57, "duration": 7, "velocity": 91}, {"time": 2931, "pitch": 62, "duration": 8, "velocity": 106}, {"time": 2931, "pitch": 65, "duration": 8, "velocity": 106}, {"time": 2937, "pitch": 57, "duration": 8, "velocity": 94}, {"time": 2943, "pitch": 62, "duration": 8, "velocity": 106}, {"time": 2943, "pitch": 65, "duration": 9, "velocity": 109}, {"time": 2949, "pitch": 57, "duration": 7, "velocity": 99}, {"time": 2955, "pitch": 62, "duration": 6, "velocity": 109}, {"time": 2955, "pitch": 65, "duration": 7, "velocity": 112}, {"time": 2961, "pitch": 57, "duration": 3, "velocity": 109}, {"time": 2967, "pitch": 46, "duration": 18, "velocity": 70}, {"time": 2967, "pitch": 58, "duration": 7, "velocity": 93}, {"time": 2967, "pitch": 62, "duration": 8, "velocity": 104}, {"time": 2973, "pitch": 53, "duration": 9, "velocity": 80}, {"time": 2979, "pitch": 58, "duration": 1, "velocity": 86}, {"time": 2979, "pitch": 62, "duration": 7, "velocity": 106}, {"time": 2979, "pitch": 65, "duration": 7, "velocity": 106}, {"time": 2985, "pitch": 58, "duration": 3, "velocity": 120}, {"time": 2991, "pitch": 43, "duration": 21, "velocity": 101}, {"time": 2991, "pitch": 58, "duration": 7, "velocity": 107}, {"time": 2991, "pitch": 62, "duration": 7, "velocity": 101}, {"time": 2997, "pitch": 55, "duration": 7, "velocity": 89}, {"time": 3003, "pitch": 58, "duration": 7, "velocity": 113}, {"time": 3003, "pitch": 62, "duration": 10, "velocity": 109}, {"time": 3009, "pitch": 55, "duration": 3, "velocity": 91}, {"time": 3015, "pitch": 43, "duration": 2, "velocity": 106}, {"time": 3015, "pitch": 55, "duration": 2, "velocity": 101}, {"time": 3015, "pitch": 62, "duration": 2, "velocity": 104}, {"time": 3021, "pitch": 43, "duration": 1, "velocity": 99}, {"time": 3021, "pitch": 55, "duration": 1, "velocity": 94}, {"time": 3021, "pitch": 62, "duration": 1, "velocity": 101}, {"time": 3024, "pitch": 43, "duration": 1, "velocity": 91}, {"time": 3024, "pitch": 55, "duration": 1, "velocity": 91}, {"time": 3024, "pitch": 62, "duration": 1, "velocity": 104}, {"time": 3027, "pitch": 45, "duration": 3, "velocity": 106}, {"time": 3027, "pitch": 57, "duration": 3, "velocity": 109}, {"time": 3027, "pitch": 64, "duration": 3, "velocity": 101}, {"time": 3033, "pitch": 43, "duration": 3, "velocity": 96}, {"time": 3033, "pitch": 55, "duration": 3, "velocity": 99}, {"time": 3033, "pitch": 62, "duration": 3, "velocity": 106}, {"time": 3039, "pitch": 41, "duration": 5, "velocity": 99}, {"time": 3039, "pitch": 53, "duration": 4, "velocity": 101}, {"time": 3039, "pitch": 60, "duration": 3, "velocity": 91}, {"time": 3063, "pitch": 50, "duration": 46, "velocity": 101}, {"time": 3063, "pitch": 62, "duration": 7, "velocity": 104}, {"time": 3063, "pitch": 65, "duration": 7, "velocity": 104}, {"time": 3069, "pitch": 57, "duration": 5, "velocity": 74}, {"time": 3075, "pitch": 62, "duration": 3, "velocity": 101}, {"time": 3075, "pitch": 65, "duration": 3, "velocity": 106}, {"time": 3081, "pitch": 57, "duration": 7, "velocity": 104}, {"time": 3087, "pitch": 62, "duration": 9, "velocity": 106}, {"time": 3087, "pitch": 65, "duration": 9, "velocity": 106}, {"time": 3093, "pitch": 57, "duration": 4, "velocity": 39}, {"time": 3099, "pitch": 62, "duration": 9, "velocity": 109}, {"time": 3099, "pitch": 65, "duration": 8, "velocity": 109}, {"time": 3105, "pitch": 57, "duration": 3, "velocity": 104}, {"time": 3111, "pitch": 50, "duration": 10, "velocity": 104}, {"time": 3117, "pitch": 57, "duration": 7, "velocity": 104}, {"time": 3117, "pitch": 62, "duration": 7, "velocity": 112}, {"time": 3117, "pitch": 65, "duration": 7, "velocity": 112}, {"time": 3123, "pitch": 45, "duration": 10, "velocity": 106}, {"time": 3129, "pitch": 57, "duration": 7, "velocity": 109}, {"time": 3129, "pitch": 62, "duration": 7, "velocity": 106}, {"time": 3129, "pitch": 65, "duration": 8, "velocity": 104}, {"time": 3135, "pitch": 50, "duration": 11, "velocity": 104}, {"time": 3141, "pitch": 57, "duration": 10, "velocity": 104}, {"time": 3141, "pitch": 62, "duration": 10, "velocity": 109}, {"time": 3141, "pitch": 65, "duration": 10, "velocity": 106}, {"time": 3147, "pitch": 45, "duration": 9, "velocity": 109}, {"time": 3153, "pitch": 57, "duration": 5, "velocity": 112}, {"time": 3153, "pitch": 62, "duration": 4, "velocity": 118}, {"time": 3153, "pitch": 65, "duration": 5, "velocity": 109}, {"time": 3159, "pitch": 45, "duration": 8, "velocity": 99}, {"time": 3165, "pitch": 57, "duration": 9, "velocity": 106}, {"time": 3165, "pitch": 60, "duration": 9, "velocity": 104}, {"time": 3165, "pitch": 64, "duration": 9, "velocity": 106}, {"time": 3171, "pitch": 52, "duration": 9, "velocity": 101}, {"time": 3177, "pitch": 57, "duration": 4, "velocity": 106}, {"time": 3177, "pitch": 60, "duration": 4, "velocity": 106}, {"time": 3177, "pitch": 64, "duration": 4, "velocity": 101}, {"time": 3183, "pitch": 45, "duration": 13, "velocity": 104}, {"time": 3189, "pitch": 57, "duration": 9, "velocity": 109}, {"time": 3189, "pitch": 60, "duration": 8, "velocity": 106}, {"time": 3189, "pitch": 64, "duration": 8, "velocity": 104}, {"time": 3195, "pitch": 52, "duration": 7, "velocity": 99}, {"time": 3201, "pitch": 57, "duration": 4, "velocity": 104}, {"time": 3201, "pitch": 60, "duration": 3, "velocity": 104}, {"time": 3201, "pitch": 64, "duration": 4, "velocity": 104}, {"time": 3207, "pitch": 46, "duration": 9, "velocity": 79}, {"time": 3213, "pitch": 53, "duration": 8, "velocity": 104}, {"time": 3213, "pitch": 58, "duration": 8, "velocity": 117}, {"time": 3213, "pitch": 62, "duration": 7, "velocity": 106}, {"time": 3219, "pitch": 41, "duration": 8, "velocity": 96}, {"time": 3225, "pitch": 53, "duration": 3, "velocity": 106}, {"time": 3225, "pitch": 58, "duration": 3, "velocity": 120}, {"time": 3225, "pitch": 62, "duration": 3, "velocity": 106}, {"time": 3231, "pitch": 46, "duration": 11, "velocity": 101}, {"time": 3237, "pitch": 53, "duration": 8, "velocity": 106}, {"time": 3237, "pitch": 58, "duration": 9, "velocity": 117}, {"time": 3237, "pitch": 62, "duration": 9, "velocity": 109}, {"time": 3243, "pitch": 41, "duration": 10, "velocity": 104}, {"time": 3249, "pitch": 53, "duration": 5, "velocity": 106}, {"time": 3249, "pitch": 58, "duration": 5, "velocity": 117}, {"time": 3249, "pitch": 62, "duration": 6, "velocity": 109}, {"time": 3255, "pitch": 48, "duration": 12, "velocity": 104}, {"time": 3261, "pitch": 55, "duration": 9, "velocity": 104}, {"time": 3261, "pitch": 60, "duration": 10, "velocity": 104}, {"time": 3261, "pitch": 64, "duration": 10, "velocity": 104}, {"time": 3267, "pitch": 43, "duration": 13, "velocity": 99}, {"time": 3267, "pitch": 45, "duration": 3, "velocity": 76}, {"time": 3273, "pitch": 55, "duration": 5, "velocity": 106}, {"time": 3273, "pitch": 60, "duration": 6, "velocity": 106}, {"time": 3273, "pitch": 64, "duration": 6, "velocity": 104}, {"time": 3279, "pitch": 48, "duration": 11, "velocity": 99}, {"time": 3285, "pitch": 55, "duration": 9, "velocity": 104}, {"time": 3285, "pitch": 60, "duration": 9, "velocity": 104}, {"time": 3285, "pitch": 64, "duration": 9, "velocity": 101}, {"time": 3291, "pitch": 43, "duration": 10, "velocity": 104}, {"time": 3297, "pitch": 55, "duration": 5, "velocity": 109}, {"time": 3297, "pitch": 60, "duration": 5, "velocity": 112}, {"time": 3297, "pitch": 64, "duration": 6, "velocity": 106}, {"time": 3303, "pitch": 43, "duration": 7, "velocity": 106}, {"time": 3309, "pitch": 55, "duration": 9, "velocity": 104}, {"time": 3309, "pitch": 58, "duration": 9, "velocity": 113}, {"time": 3309, "pitch": 62, "duration": 10, "velocity": 106}, {"time": 3315, "pitch": 50, "duration": 10, "velocity": 94}, {"time": 3321, "pitch": 55, "duration": 4, "velocity": 109}, {"time": 3321, "pitch": 58, "duration": 4, "velocity": 117}, {"time": 3321, "pitch": 62, "duration": 4, "velocity": 109}, {"time": 3327, "pitch": 43, "duration": 15, "velocity": 104}, {"time": 3327, "pitch": 55, "duration": 13, "velocity": 104}, {"time": 3327, "pitch": 58, "duration": 13, "velocity": 117}, {"time": 3327, "pitch": 62, "duration": 13, "velocity": 109}, {"time": 3351, "pitch": 45, "duration": 10, "velocity": 106}, {"time": 3357, "pitch": 57, "duration": 9, "velocity": 106}, {"time": 3357, "pitch": 60, "duration": 9, "velocity": 104}, {"time": 3357, "pitch": 64, "duration": 8, "velocity": 104}, {"time": 3363, "pitch": 52, "duration": 10, "velocity": 94}, {"time": 3369, "pitch": 57, "duration": 4, "velocity": 99}, {"time": 3369, "pitch": 60, "duration": 4, "velocity": 96}, {"time": 3369, "pitch": 64, "duration": 4, "velocity": 96}, {"time": 3375, "pitch": 45, "duration": 17, "velocity": 106}, {"time": 3375, "pitch": 57, "duration": 16, "velocity": 101}, {"time": 3375, "pitch": 60, "duration": 15, "velocity": 101}, {"time": 3399, "pitch": 48, "duration": 1, "velocity": 104}, {"time": 3399, "pitch": 55, "duration": 2, "velocity": 96}, {"time": 3399, "pitch": 60, "duration": 2, "velocity": 101}, {"time": 3399, "pitch": 64, "duration": 2, "velocity": 101}, {"time": 3405, "pitch": 48, "duration": 1, "velocity": 85}, {"time": 3405, "pitch": 55, "duration": 1, "velocity": 78}, {"time": 3405, "pitch": 60, "duration": 1, "velocity": 91}, {"time": 3405, "pitch": 64, "duration": 1, "velocity": 94}, {"time": 3408, "pitch": 48, "duration": 1, "velocity": 94}, {"time": 3408, "pitch": 55, "duration": 1, "velocity": 89}, {"time": 3408, "pitch": 60, "duration": 1, "velocity": 89}, {"time": 3408, "pitch": 64, "duration": 1, "velocity": 99}, {"time": 3411, "pitch": 48, "duration": 1, "velocity": 99}, {"time": 3411, "pitch": 55, "duration": 1, "velocity": 99}, {"time": 3411, "pitch": 60, "duration": 1, "velocity": 96}, {"time": 3411, "pitch": 64, "duration": 1, "velocity": 104}, {"time": 3417, "pitch": 48, "duration": 2, "velocity": 99}, {"time": 3417, "pitch": 55, "duration": 1, "velocity": 106}, {"time": 3417, "pitch": 60, "duration": 1, "velocity": 106}, {"time": 3417, "pitch": 64, "duration": 2, "velocity": 106}, {"time": 3423, "pitch": 48, "duration": 20, "velocity": 104}, {"time": 3423, "pitch": 55, "duration": 21, "velocity": 106}, {"time": 3423, "pitch": 60, "duration": 22, "velocity": 106}, {"time": 3423, "pitch": 64, "duration": 22, "velocity": 104}, {"time": 3447, "pitch": 50, "duration": 10, "velocity": 109}, {"time": 3453, "pitch": 57, "duration": 8, "velocity": 101}, {"time": 3453, "pitch": 62, "duration": 9, "velocity": 104}, {"time": 3453, "pitch": 65, "duration": 9, "velocity": 101}, {"time": 3459, "pitch": 45, "duration": 9, "velocity": 104}, {"time": 3465, "pitch": 57, "duration": 8, "velocity": 106}, {"time": 3465, "pitch": 62, "duration": 8, "velocity": 112}, {"time": 3465, "pitch": 65, "duration": 8, "velocity": 104}, {"time": 3471, "pitch": 50, "duration": 11, "velocity": 104}, {"time": 3477, "pitch": 57, "duration": 9, "velocity": 104}, {"time": 3477, "pitch": 62, "duration": 9, "velocity": 106}, {"time": 3477, "pitch": 65, "duration": 9, "velocity": 106}, {"time": 3483, "pitch": 45, "duration": 9, "velocity": 109}, {"time": 3489, "pitch": 57, "duration": 4, "velocity": 104}, {"time": 3489, "pitch": 62, "duration": 5, "velocity": 106}, {"time": 3489, "pitch": 65, "duration": 5, "velocity": 104}, {"time": 3495, "pitch": 50, "duration": 10, "velocity": 104}, {"time": 3501, "pitch": 57, "duration": 7, "velocity": 104}, {"time": 3501, "pitch": 62, "duration": 7, "velocity": 112}, {"time": 3501, "pitch": 65, "duration": 7, "velocity": 112}, {"time": 3507, "pitch": 45, "duration": 10, "velocity": 106}, {"time": 3513, "pitch": 57, "duration": 7, "velocity": 109}, {"time": 3513, "pitch": 62, "duration": 7, "velocity": 106}, {"time": 3513, "pitch": 65, "duration": 8, "velocity": 104}, {"time": 3519, "pitch": 50, "duration": 11, "velocity": 104}, {"time": 3525, "pitch": 57, "duration": 10, "velocity": 104}, {"time": 3525, "pitch": 62, "duration": 10, "velocity": 109}, {"time": 3525, "pitch": 65, "duration": 10, "velocity": 106}, {"time": 3531, "pitch": 45, "duration": 9, "velocity": 109}, {"time": 3537, "pitch": 57, "duration": 5, "velocity": 112}, {"time": 3537, "pitch": 62, "duration": 4, "velocity": 118}, {"time": 3537, "pitch": 65, "duration": 5, "velocity": 109}, {"time": 3543, "pitch": 45, "duration": 8, "velocity": 99}, {"time": 3549, "pitch": 57, "duration": 9, "velocity": 106}, {"time": 3549, "pitch": 60, "duration": 9, "velocity": 104}, {"time": 3549, "pitch": 64, "duration": 9, "velocity": 106}, {"time": 3555, "pitch": 52, "duration": 9, "velocity": 101}, {"time": 3561, "pitch": 57, "duration": 4, "velocity": 106}, {"time": 3561, "pitch": 60, "duration": 4, "velocity": 106}, {"time": 3561, "pitch": 64, "duration": 4, "velocity": 101}, {"time": 3567, "pitch": 45, "duration": 13, "velocity": 104}, {"time": 3573, "pitch": 57, "duration": 9, "velocity": 109}, {"time": 3573, "pitch": 60, "duration": 8, "velocity": 106}, {"time": 3573, "pitch": 64, "duration": 8, "velocity": 104}, {"time": 3579, "pitch": 52, "duration": 7, "velocity": 99}, {"time": 3585, "pitch": 57, "duration": 4, "velocity": 104}, {"time": 3585, "pitch": 60, "duration": 3, "velocity": 104}, {"time": 3585, "pitch": 64, "duration": 4, "velocity": 104}, {"time": 3591, "pitch": 46, "duration": 9, "velocity": 79}, {"time": 3597, "pitch": 53, "duration": 8, "velocity": 104}, {"time": 3597, "pitch": 58, "duration": 8, "velocity": 117}, {"time": 3597, "pitch": 62, "duration": 7, "velocity": 106}, {"time": 3603, "pitch": 41, "duration": 8, "velocity": 96}, {"time": 3609, "pitch": 53, "duration": 3, "velocity": 106}, {"time": 3609, "pitch": 58, "duration": 3, "velocity": 120}, {"time": 3609, "pitch": 62, "duration": 3, "velocity": 106}, {"time": 3615, "pitch": 46, "duration": 11, "velocity": 101}, {"time": 3621, "pitch": 53, "duration": 8, "velocity": 106}, {"time": 3621, "pitch": 58, "duration": 9, "velocity": 117}, {"time": 3621, "pitch": 62, "duration": 9, "velocity": 109}, {"time": 3627, "pitch": 41, "duration": 10, "velocity": 104}, {"time": 3633, "pitch": 53, "duration": 5, "velocity": 106}, {"time": 3633, "pitch": 58, "duration": 5, "velocity": 117}, {"time": 3633, "pitch": 62, "duration": 6, "velocity": 109}, {"time": 3639, "pitch": 48, "duration": 12, "velocity": 104}, {"time": 3645, "pitch": 55, "duration": 9, "velocity": 104}, {"time": 3645, "pitch": 60, "duration": 10, "velocity": 104}, {"time": 3645, "pitch": 64, "duration": 10, "velocity": 104}, {"time": 3651, "pitch": 43, "duration": 13, "velocity": 99}, {"time": 3651, "pitch": 45, "duration": 3, "velocity": 76}, {"time": 3657, "pitch": 55, "duration": 5, "velocity": 106}, {"time": 3657, "pitch": 60, "duration": 6, "velocity": 106}, {"time": 3657, "pitch": 64, "duration": 6, "velocity": 104}, {"time": 3663, "pitch": 48, "duration": 11, "velocity": 99}, {"time": 3669, "pitch": 55, "duration": 9, "velocity": 104}, {"time": 3669, "pitch": 60, "duration": 9, "velocity": 104}, {"time": 3669, "pitch": 64, "duration": 9, "velocity": 101}, {"time": 3675, "pitch": 43, "duration": 10, "velocity": 104}, {"time": 3681, "pitch": 55, "duration": 5, "velocity": 109}, {"time": 3681, "pitch": 60, "duration": 5, "velocity": 112}, {"time": 3681, "pitch": 64, "duration": 6, "velocity": 106}, {"time": 3687, "pitch": 43, "duration": 7, "velocity": 106}, {"time": 3693, "pitch": 55, "duration": 9, "velocity": 104}, {"time": 3693, "pitch": 58, "duration": 9, "velocity": 113}, {"time": 3693, "pitch": 62, "duration": 10, "velocity": 106}, {"time": 3699, "pitch": 50, "duration": 10, "velocity": 94}, {"time": 3705, "pitch": 55, "duration": 4, "velocity": 109}, {"time": 3705, "pitch": 58, "duration": 4, "velocity": 117}, {"time": 3705, "pitch": 62, "duration": 4, "velocity": 109}, {"time": 3711, "pitch": 43, "duration": 15, "velocity": 104}, {"time": 3711, "pitch": 55, "duration": 13, "velocity": 104}, {"time": 3711, "pitch": 58, "duration": 13, "velocity": 117}, {"time": 3711, "pitch": 62, "duration": 13, "velocity": 109}, {"time": 3735, "pitch": 45, "duration": 10, "velocity": 106}, {"time": 3741, "pitch": 57, "duration": 9, "velocity": 106}, {"time": 3741, "pitch": 60, "duration": 9, "velocity": 104}, {"time": 3741, "pitch": 64, "duration": 8, "velocity": 104}, {"time": 3747, "pitch": 52, "duration": 10, "velocity": 94}, {"time": 3753, "pitch": 57, "duration": 4, "velocity": 99}, {"time": 3753, "pitch": 60, "duration": 4, "velocity": 96}, {"time": 3753, "pitch": 64, "duration": 4, "velocity": 96}, {"time": 3759, "pitch": 45, "duration": 17, "velocity": 106}, {"time": 3759, "pitch": 57, "duration": 16, "velocity": 101}, {"time": 3759, "pitch": 60, "duration": 15, "velocity": 101}, {"time": 3783, "pitch": 48, "duration": 1, "velocity": 104}, {"time": 3783, "pitch": 55, "duration": 2, "velocity": 96}, {"time": 3783, "pitch": 60, "duration": 2, "velocity": 101}, {"time": 3783, "pitch": 64, "duration": 2, "velocity": 101}, {"time": 3789, "pitch": 48, "duration": 1, "velocity": 85}, {"time": 3789, "pitch": 55, "duration": 1, "velocity": 78}, {"time": 3789, "pitch": 60, "duration": 1, "velocity": 91}, {"time": 3789, "pitch": 64, "duration": 1, "velocity": 94}, {"time": 3792, "pitch": 48, "duration": 1, "velocity": 94}, {"time": 3792, "pitch": 55, "duration": 1, "velocity": 89}, {"time": 3792, "pitch": 60, "duration": 1, "velocity": 89}, {"time": 3792, "pitch": 64, "duration": 1, "velocity": 99}, {"time": 3795, "pitch": 48, "duration": 1, "velocity": 99}, {"time": 3795, "pitch": 55, "duration": 1, "velocity": 99}, {"time": 3795, "pitch": 60, "duration": 1, "velocity": 96}, {"time": 3795, "pitch": 64, "duration": 1, "velocity": 104}, {"time": 3801, "pitch": 48, "duration": 2, "velocity": 99}, {"time": 3801, "pitch": 55, "duration": 1, "velocity": 106}, {"time": 3801, "pitch": 60, "duration": 1, "velocity": 106}, {"time": 3801, "pitch": 64, "duration": 2, "velocity": 106}, {"time": 3807, "pitch": 48, "duration": 20, "velocity": 104}, {"time": 3807, "pitch": 55, "duration": 21, "velocity": 106}, {"time": 3807, "pitch": 60, "duration": 22, "velocity": 106}, {"time": 3807, "pitch": 64, "duration": 22, "velocity": 104}, {"time": 3831, "pitch": 50, "duration": 10, "velocity": 109}, {"time": 3837, "pitch": 57, "duration": 8, "velocity": 101}, {"time": 3837, "pitch": 62, "duration": 9, "velocity": 104}, {"time": 3837, "pitch": 65, "duration": 9, "velocity": 101}, {"time": 3843, "pitch": 45, "duration": 9, "velocity": 104}, {"time": 3849, "pitch": 57, "duration": 8, "velocity": 106}, {"time": 3849, "pitch": 62, "duration": 8, "velocity": 112}, {"time": 3849, "pitch": 65, "duration": 8, "velocity": 104}, {"time": 3855, "pitch": 50, "duration": 11, "velocity": 104}, {"time": 3861, "pitch": 57, "duration": 9, "velocity": 104}, {"time": 3861, "pitch": 62, "duration": 9, "velocity": 106}, {"time": 3861, "pitch": 65, "duration": 9, "velocity": 106}, {"time": 3867, "pitch": 45, "duration": 9, "velocity": 109}, {"time": 3873, "pitch": 57, "duration": 4, "velocity": 104}, {"time": 3873, "pitch": 62, "duration": 5, "velocity": 106}, {"time": 3873, "pitch": 65, "duration": 5, "velocity": 104}, {"time": 3879, "pitch": 50, "duration": 11, "velocity": 104}, {"time": 3885, "pitch": 57, "duration": 6, "velocity": 99}, {"time": 3885, "pitch": 62, "duration": 7, "velocity": 104}, {"time": 3885, "pitch": 65, "duration": 7, "velocity": 104}, {"time": 3891, "pitch": 45, "duration": 10, "velocity": 82}, {"time": 3897, "pitch": 57, "duration": 3, "velocity": 99}, {"time": 3897, "pitch": 62, "duration": 2, "velocity": 104}, {"time": 3897, "pitch": 65, "duration": 4, "velocity": 104}, {"time": 3903, "pitch": 50, "duration": 12, "velocity": 99}, {"time": 3909, "pitch": 57, "duration": 9, "velocity": 106}, {"time": 3909, "pitch": 62, "duration": 9, "velocity": 109}, {"time": 3909, "pitch": 65, "duration": 9, "velocity": 104}, {"time": 3915, "pitch": 45, "duration": 9, "velocity": 91}, {"time": 3921, "pitch": 57, "duration": 5, "velocity": 109}, {"time": 3921, "pitch": 62, "duration": 5, "velocity": 115}, {"time": 3921, "pitch": 65, "duration": 6, "velocity": 106}, {"time": 3927, "pitch": 45, "duration": 7, "velocity": 99}, {"time": 3933, "pitch": 57, "duration": 8, "velocity": 101}, {"time": 3933, "pitch": 60, "duration": 8, "velocity": 94}, {"time": 3933, "pitch": 64, "duration": 8, "velocity": 106}, {"time": 3939, "pitch": 52, "duration": 9, "velocity": 94}, {"time": 3945, "pitch": 57, "duration": 3, "velocity": 96}, {"time": 3945, "pitch": 60, "duration": 3, "velocity": 89}, {"time": 3945, "pitch": 64, "duration": 3, "velocity": 99}, {"time": 3951, "pitch": 45, "duration": 9, "velocity": 82}, {"time": 3957, "pitch": 57, "duration": 9, "velocity": 106}, {"time": 3957, "pitch": 60, "duration": 9, "velocity": 96}, {"time": 3957, "pitch": 64, "duration": 9, "velocity": 101}, {"time": 3963, "pitch": 52, "duration": 10, "velocity": 94}, {"time": 3969, "pitch": 57, "duration": 5, "velocity": 104}, {"time": 3969, "pitch": 60, "duration": 4, "velocity": 96}, {"time": 3969, "pitch": 64, "duration": 10, "velocity": 104}, {"time": 3975, "pitch": 46, "duration": 9, "velocity": 70}, {"time": 3981, "pitch": 53, "duration": 9, "velocity": 99}, {"time": 3981, "pitch": 58, "duration": 9, "velocity": 96}, {"time": 3981, "pitch": 62, "duration": 9, "velocity": 101}, {"time": 3987, "pitch": 41, "duration": 9, "velocity": 96}, {"time": 3993, "pitch": 53, "duration": 4, "velocity": 104}, {"time": 3993, "pitch": 58, "duration": 4, "velocity": 113}, {"time": 3993, "pitch": 62, "duration": 4, "velocity": 106}, {"time": 3999, "pitch": 46, "duration": 10, "velocity": 104}, {"time": 4005, "pitch": 53, "duration": 8, "velocity": 106}, {"time": 4005, "pitch": 58, "duration": 8, "velocity": 117}, {"time": 4005, "pitch": 62, "duration": 8, "velocity": 106}, {"time": 4011, "pitch": 41, "duration": 9, "velocity": 101}, {"time": 4017, "pitch": 53, "duration": 3, "velocity": 96}, {"time": 4017, "pitch": 58, "duration": 3, "velocity": 107}, {"time": 4017, "pitch": 62, "duration": 4, "velocity": 106}, {"time": 4023, "pitch": 48, "duration": 11, "velocity": 94}, {"time": 4029, "pitch": 55, "duration": 7, "velocity": 91}, {"time": 4029, "pitch": 60, "duration": 8, "velocity": 91}, {"time": 4029, "pitch": 64, "duration": 8, "velocity": 101}, {"time": 4035, "pitch": 43, "duration": 10, "velocity": 89}, {"time": 4041, "pitch": 55, "duration": 5, "velocity": 87}, {"time": 4041, "pitch": 60, "duration": 6, "velocity": 96}, {"time": 4041, "pitch": 64, "duration": 6, "velocity": 101}, {"time": 4047, "pitch": 48, "duration": 11, "velocity": 69}, {"time": 4053, "pitch": 55, "duration": 9, "velocity": 99}, {"time": 4053, "pitch": 60, "duration": 9, "velocity": 99}, {"time": 4053, "pitch": 64, "duration": 9, "velocity": 101}, {"time": 4059, "pitch": 43, "duration": 8, "velocity": 104}, {"time": 4065, "pitch": 55, "duration": 5, "velocity": 106}, {"time": 4065, "pitch": 60, "duration": 3, "velocity": 109}, {"time": 4065, "pitch": 64, "duration": 6, "velocity": 106}, {"time": 4071, "pitch": 43, "duration": 8, "velocity": 104}, {"time": 4077, "pitch": 55, "duration": 8, "velocity": 101}, {"time": 4077, "pitch": 58, "duration": 7, "velocity": 113}, {"time": 4077, "pitch": 62, "duration": 8, "velocity": 104}, {"time": 4083, "pitch": 50, "duration": 8, "velocity": 78}, {"time": 4089, "pitch": 55, "duration": 2, "velocity": 94}, {"time": 4089, "pitch": 58, "duration": 2, "velocity": 101}, {"time": 4089, "pitch": 62, "duration": 2, "velocity": 104}, {"time": 4095, "pitch": 43, "duration": 7, "velocity": 101}, {"time": 4107, "pitch": 55, "duration": 4, "velocity": 94}, {"time": 4107, "pitch": 58, "duration": 5, "velocity": 96}, {"time": 4107, "pitch": 62, "duration": 5, "velocity": 106}, {"time": 4119, "pitch": 45, "duration": 8, "velocity": 104}, {"time": 4125, "pitch": 57, "duration": 8, "velocity": 104}, {"time": 4125, "pitch": 60, "duration": 8, "velocity": 101}, {"time": 4125, "pitch": 64, "duration": 8, "velocity": 101}, {"time": 4131, "pitch": 52, "duration": 8, "velocity": 87}, {"time": 4137, "pitch": 57, "duration": 3, "velocity": 94}, {"time": 4137, "pitch": 60, "duration": 3, "velocity": 91}, {"time": 4137, "pitch": 64, "duration": 3, "velocity": 96}, {"time": 4143, "pitch": 45, "duration": 6, "velocity": 104}, {"time": 4143, "pitch": 57, "duration": 4, "velocity": 89}, {"time": 4143, "pitch": 60, "duration": 4, "velocity": 89}, {"time": 4143, "pitch": 64, "duration": 4, "velocity": 96}, {"time": 4167, "pitch": 48, "duration": 1, "velocity": 99}, {"time": 4167, "pitch": 55, "duration": 1, "velocity": 96}, {"time": 4167, "pitch": 60, "duration": 1, "velocity": 99}, {"time": 4167, "pitch": 64, "duration": 1, "velocity": 101}, {"time": 4173, "pitch": 48, "duration": 1, "velocity": 80}, {"time": 4173, "pitch": 55, "duration": 1, "velocity": 82}, {"time": 4173, "pitch": 60, "duration": 1, "velocity": 89}, {"time": 4173, "pitch": 64, "duration": 1, "velocity": 91}, {"time": 4176, "pitch": 48, "duration": 1, "velocity": 91}, {"time": 4176, "pitch": 55, "duration": 1, "velocity": 82}, {"time": 4176, "pitch": 60, "duration": 1, "velocity": 85}, {"time": 4176, "pitch": 64, "duration": 1, "velocity": 96}, {"time": 4179, "pitch": 48, "duration": 1, "velocity": 96}, {"time": 4179, "pitch": 55, "duration": 1, "velocity": 89}, {"time": 4179, "pitch": 60, "duration": 1, "velocity": 91}, {"time": 4179, "pitch": 64, "duration": 1, "velocity": 99}, {"time": 4185, "pitch": 48, "duration": 1, "velocity": 96}, {"time": 4185, "pitch": 55, "duration": 1, "velocity": 91}, {"time": 4185, "pitch": 60, "duration": 1, "velocity": 99}, {"time": 4185, "pitch": 64, "duration": 1, "velocity": 99}, {"time": 4191, "pitch": 48, "duration": 4, "velocity": 99}, {"time": 4191, "pitch": 55, "duration": 3, "velocity": 99}, {"time": 4191, "pitch": 60, "duration": 4, "velocity": 96}, {"time": 4191, "pitch": 64, "duration": 4, "velocity": 101}, {"time": 4217, "pitch": 45, "duration": 21, "velocity": 104}, {"time": 4223, "pitch": 52, "duration": 15, "velocity": 78}, {"time": 4230, "pitch": 57, "duration": 9, "velocity": 96}, {"time": 4243, "pitch": 48, "duration": 20, "velocity": 96}, {"time": 4244, "pitch": 50, "duration": 2, "velocity": 26}, {"time": 4250, "pitch": 55, "duration": 10, "velocity": 101}, {"time": 4257, "pitch": 60, "duration": 9, "velocity": 115}, {"time": 4274, "pitch": 38, "duration": 31, "velocity": 104}, {"time": 4277, "pitch": 45, "duration": 26, "velocity": 76}, {"time": 4280, "pitch": 50, "duration": 52, "velocity": 48}, {"time": 4283, "pitch": 53, "duration": 49, "velocity": 78}, {"time": 4286, "pitch": 57, "duration": 46, "velocity": 89}, {"time": 4290, "pitch": 62, "duration": 42, "velocity": 62}], "annotations": [{"time": 429, "annotation": {"number": 64, "value": 127}, "group": "control_change"}, {"time": 469, "annotation": {"number": 64, "value": 0}, "group": "control_change"}, {"time": 472, "annotation": {"number": 64, "value": 127}, "group": "control_change"}, {"time": 494, "annotation": {"number": 64, "value": 0}, "group": "control_change"}, {"time": 499, "annotation": {"number": 64, "value": 127}, "group": "control_change"}, {"time": 515, "annotation": {"number": 64, "value": 0}, "group": "control_change"}, {"time": 521, "annotation": {"number": 64, "value": 127}, "group": "control_change"}, {"time": 542, "annotation": {"number": 64, "value": 0}, "group": "control_change"}, {"time": 544, "annotation": {"number": 64, "value": 127}, "group": "control_change"}, {"time": 565, "annotation": {"number": 64, "value": 0}, "group": "control_change"}, {"time": 569, "annotation": {"number": 64, "value": 127}, "group": "control_change"}, {"time": 589, "annotation": {"number": 64, "value": 0}, "group": "control_change"}, {"time": 592, "annotation": {"number": 64, "value": 127}, "group": "control_change"}, {"time": 612, "annotation": {"number": 64, "value": 0}, "group": "control_change"}, {"time": 616, "annotation": {"number": 64, "value": 127}, "group": "control_change"}, {"time": 627, "annotation": {"number": 64, "value": 0}, "group": "control_change"}, {"time": 650, "annotation": {"number": 64, "value": 127}, "group": "control_change"}, {"time": 662, "annotation": {"number": 64, "value": 0}, "group": "control_change"}, {"time": 667, "annotation": {"number": 64, "value": 127}, "group": "control_change"}, {"time": 684, "annotation": {"number": 64, "value": 0}, "group": "control_change"}, {"time": 691, "annotation": {"number": 64, "value": 127}, "group": "control_change"}, {"time": 709, "annotation": {"number": 64, "value": 0}, "group": "control_change"}, {"time": 761, "annotation": {"number": 64, "value": 127}, "group": "control_change"}, {"time": 782, "annotation": {"number": 64, "value": 0}, "group": "control_change"}, {"time": 785, "annotation": {"number": 64, "value": 127}, "group": "control_change"}, {"time": 802, "annotation": {"number": 64, "value": 0}, "group": "control_change"}, {"time": 813, "annotation": {"number": 64, "value": 127}, "group": "control_change"}, {"time": 853, "annotation": {"number": 64, "value": 0}, "group": "control_change"}, {"time": 856, "annotation": {"number": 64, "value": 127}, "group": "control_change"}, {"time": 878, "annotation": {"number": 64, "value": 0}, "group": "control_change"}, {"time": 883, "annotation": {"number": 64, "value": 127}, "group": "control_change"}, {"time": 899, "annotation": {"number": 64, "value": 0}, "group": "control_change"}, {"time": 905, "annotation": {"number": 64, "value": 127}, "group": "control_change"}, {"time": 926, "annotation": {"number": 64, "value": 0}, "group": "control_change"}, {"time": 928, "annotation": {"number": 64, "value": 127}, "group": "control_change"}, {"time": 949, "annotation": {"number": 64, "value": 0}, "group": "control_change"}, {"time": 953, "annotation": {"number": 64, "value": 127}, "group": "control_change"}, {"time": 973, "annotation": {"number": 64, "value": 0}, "group": "control_change"}, {"time": 976, "annotation": {"number": 64, "value": 127}, "group": "control_change"}, {"time": 996, "annotation": {"number": 64, "value": 0}, "group": "control_change"}, {"time": 1000, "annotation": {"number": 64, "value": 127}, "group": "control_change"}, {"time": 1011, "annotation": {"number": 64, "value": 0}, "group": "control_change"}, {"time": 1034, "annotation": {"number": 64, "value": 127}, "group": "control_change"}, {"time": 1046, "annotation": {"number": 64, "value": 0}, "group": "control_change"}, {"time": 1051, "annotation": {"number": 64, "value": 127}, "group": "control_change"}, {"time": 1068, "annotation": {"number": 64, "value": 0}, "group": "control_change"}, {"time": 1075, "annotation": {"number": 64, "value": 127}, "group": "control_change"}, {"time": 1093, "annotation": {"number": 64, "value": 0}, "group": "control_change"}, {"time": 1145, "annotation": {"number": 64, "value": 127}, "group": "control_change"}, {"time": 1166, "annotation": {"number": 64, "value": 0}, "group": "control_change"}, {"time": 1169, "annotation": {"number": 64, "value": 127}, "group": "control_change"}, {"time": 1186, "annotation": {"number": 64, "value": 0}, "group": "control_change"}, {"time": 1192, "annotation": {"number": 64, "value": 127}, "group": "control_change"}, {"time": 1192, "annotation": {"number": 64, "value": 0}, "group": "control_change"}, {"time": 1576, "annotation": {"number": 64, "value": 127}, "group": "control_change"}, {"time": 1576, "annotation": {"number": 64, "value": 0}, "group": "control_change"}, {"time": 2349, "annotation": {"number": 64, "value": 127}, "group": "control_change"}, {"time": 2389, "annotation": {"number": 64, "value": 0}, "group": "control_change"}, {"time": 2392, "annotation": {"number": 64, "value": 127}, "group": "control_change"}, {"time": 2414, "annotation": {"number": 64, "value": 0}, "group": "control_change"}, {"time": 2419, "annotation": {"number": 64, "value": 127}, "group": "control_change"}, {"time": 2435, "annotation": {"number": 64, "value": 0}, "group": "control_change"}, {"time": 2441, "annotation": {"number": 64, "value": 127}, "group": "control_change"}, {"time": 2462, "annotation": {"number": 64, "value": 0}, "group": "control_change"}, {"time": 2464, "annotation": {"number": 64, "value": 127}, "group": "control_change"}, {"time": 2485, "annotation": {"number": 64, "value": 0}, "group": "control_change"}, {"time": 2489, "annotation": {"number": 64, "value": 127}, "group": "control_change"}, {"time": 2509, "annotation": {"number": 64, "value": 0}, "group": "control_change"}, {"time": 2512, "annotation": {"number": 64, "value": 127}, "group": "control_change"}, {"time": 2532, "annotation": {"number": 64, "value": 0}, "group": "control_change"}, {"time": 2536, "annotation": {"number": 64, "value": 127}, "group": "control_change"}, {"time": 2547, "annotation": {"number": 64, "value": 0}, "group": "control_change"}, {"time": 2570, "annotation": {"number": 64, "value": 127}, "group": "control_change"}, {"time": 2582, "annotation": {"number": 64, "value": 0}, "group": "control_change"}, {"time": 2587, "annotation": {"number": 64, "value": 127}, "group": "control_change"}, {"time": 2604, "annotation": {"number": 64, "value": 0}, "group": "control_change"}, {"time": 2611, "annotation": {"number": 64, "value": 127}, "group": "control_change"}, {"time": 2629, "annotation": {"number": 64, "value": 0}, "group": "control_change"}, {"time": 2681, "annotation": {"number": 64, "value": 127}, "group": "control_change"}, {"time": 2702, "annotation": {"number": 64, "value": 0}, "group": "control_change"}, {"time": 2705, "annotation": {"number": 64, "value": 127}, "group": "control_change"}, {"time": 2722, "annotation": {"number": 64, "value": 0}, "group": "control_change"}, {"time": 2733, "annotation": {"number": 64, "value": 127}, "group": "control_change"}, {"time": 2773, "annotation": {"number": 64, "value": 0}, "group": "control_change"}, {"time": 2776, "annotation": {"number": 64, "value": 127}, "group": "control_change"}, {"time": 2798, "annotation": {"number": 64, "value": 0}, "group": "control_change"}, {"time": 2803, "annotation": {"number": 64, "value": 127}, "group": "control_change"}, {"time": 2819, "annotation": {"number": 64, "value": 0}, "group": "control_change"}, {"time": 2825, "annotation": {"number": 64, "value": 127}, "group": "control_change"}, {"time": 2846, "annotation": {"number": 64, "value": 0}, "group": "control_change"}, {"time": 2848, "annotation": {"number": 64, "value": 127}, "group": "control_change"}, {"time": 2869, "annotation": {"number": 64, "value": 0}, "group": "control_change"}, {"time": 2873, "annotation": {"number": 64, "value": 127}, "group": "control_change"}, {"time": 2893, "annotation": {"number": 64, "value": 0}, "group": "control_change"}, {"time": 2896, "annotation": {"number": 64, "value": 127}, "group": "control_change"}, {"time": 2916, "annotation": {"number": 64, "value": 0}, "group": "control_change"}, {"time": 2920, "annotation": {"number": 64, "value": 127}, "group": "control_change"}, {"time": 2931, "annotation": {"number": 64, "value": 0}, "group": "control_change"}, {"time": 2954, "annotation": {"number": 64, "value": 127}, "group": "control_change"}, {"time": 2966, "annotation": {"number": 64, "value": 0}, "group": "control_change"}, {"time": 2971, "annotation": {"number": 64, "value": 127}, "group": "control_change"}, {"time": 2988, "annotation": {"number": 64, "value": 0}, "group": "control_change"}, {"time": 2995, "annotation": {"number": 64, "value": 127}, "group": "control_change"}, {"time": 3013, "annotation": {"number": 64, "value": 0}, "group": "control_change"}, {"time": 3065, "annotation": {"number": 64, "value": 127}, "group": "control_change"}, {"time": 3086, "annotation": {"number": 64, "value": 0}, "group": "control_change"}, {"time": 3089, "annotation": {"number": 64, "value": 127}, "group": "control_change"}, {"time": 3106, "annotation": {"number": 64, "value": 0}, "group": "control_change"}, {"time": 3112, "annotation": {"number": 64, "value": 127}, "group": "control_change"}, {"time": 3112, "annotation": {"number": 64, "value": 0}, "group": "control_change"}, {"time": 3496, "annotation": {"number": 64, "value": 127}, "group": "control_change"}, {"time": 3496, "annotation": {"number": 64, "value": 0}, "group": "control_change"}, {"time": 4219, "annotation": {"number": 64, "value": 127}, "group": "control_change"}, {"time": 4244, "annotation": {"number": 64, "value": 0}, "group": "control_change"}, {"time": 4247, "annotation": {"number": 64, "value": 127}, "group": "control_change"}, {"time": 4273, "annotation": {"number": 64, "value": 0}, "group": "control_change"}, {"time": 4283, "annotation": {"number": 64, "value": 127}, "group": "control_change"}, {"time": 4331, "annotation": {"number": 64, "value": 0}, "group": "control_change"}]}]}