{"metadata": {"schema_version": "0.2", "title": "None", "source_filename": "126.mid", "source_format": "midi"}, "resolution": 12, "tempos": [{"time": 0, "qpm": 72.00011520018433}, {"time": 1246, "qpm": 65.00013541694878}, {"time": 1272, "qpm": 72.00011520018433}, {"time": 1851, "qpm": 72.00002880001152}, {"time": 1884, "qpm": 72.00011520018433}, {"time": 2012, "qpm": 73.00007178340392}, {"time": 2053, "qpm": 72.00011520018433}, {"time": 2766, "qpm": 73.00007178340392}, {"time": 2815, "qpm": 72.00011520018433}, {"time": 3455, "qpm": 71.00011951686785}, {"time": 3456, "qpm": 65.00013541694878}, {"time": 3479, "qpm": 70.00007000007}, {"time": 3516, "qpm": 73.00007178340392}, {"time": 3552, "qpm": 71.00003550001774}, {"time": 3639, "qpm": 73.00007178340392}, {"time": 3750, "qpm": 70.00007000007}, {"time": 3775, "qpm": 72.00002880001152}, {"time": 4329, "qpm": 72.00011520018433}, {"time": 4339, "qpm": 69.00009660013524}, {"time": 4351, "qpm": 66.000066000066}, {"time": 4375, "qpm": 64.0}, {"time": 4399, "qpm": 60.0}, {"time": 4423, "qpm": 72.00011520018433}], "time_signatures": [{"time": 0, "numerator": 1, "denominator": 4}], "tracks": [{"program": 4, "is_drum": false, "name": "MELODY", "notes": [{"time": 467, "pitch": 62, "duration": 5, "velocity": 115}, {"time": 473, "pitch": 67, "duration": 5, "velocity": 104}, {"time": 479, "pitch": 66, "duration": 5, "velocity": 117}, {"time": 485, "pitch": 64, "duration": 10, "velocity": 109}, {"time": 497, "pitch": 62, "duration": 2, "velocity": 109}, {"time": 500, "pitch": 60, "duration": 2, "velocity": 101}, {"time": 503, "pitch": 62, "duration": 9, "velocity": 104}, {"time": 521, "pitch": 57, "duration": 3, "velocity": 104}, {"time": 524, "pitch": 60, "duration": 3, "velocity": 89}, {"time": 527, "pitch": 59, "duration": 19, "velocity": 99}, {"time": 563, "pitch": 55, "duration": 5, "velocity": 106}, {"time": 569, "pitch": 64, "duration": 5, "velocity": 109}, {"time": 575, "pitch": 64, "duration": 5, "velocity": 106}, {"time": 581, "pitch": 62, "duration": 10, "velocity": 104}, {"time": 593, "pitch": 55, "duration": 3, "velocity": 104}, {"time": 596, "pitch": 57, "duration": 2, "velocity": 104}, {"time": 599, "pitch": 59, "duration": 37, "velocity": 104}, {"time": 659, "pitch": 59, "duration": 5, "velocity": 106}, {"time": 665, "pitch": 66, "duration": 5, "velocity": 110}, {"time": 671, "pitch": 66, "duration": 9, "velocity": 113}, {"time": 683, "pitch": 59, "duration": 5, "velocity": 109}, {"time": 689, "pitch": 59, "duration": 5, "velocity": 109}, {"time": 695, "pitch": 66, "duration": 5, "velocity": 107}, {"time": 701, "pitch": 67, "duration": 20, "velocity": 99}, {"time": 731, "pitch": 64, "duration": 5, "velocity": 112}, {"time": 737, "pitch": 66, "duration": 4, "velocity": 113}, {"time": 743, "pitch": 67, "duration": 4, "velocity": 109}, {"time": 749, "pitch": 64, "duration": 4, "velocity": 101}, {"time": 755, "pitch": 64, "duration": 5, "velocity": 99}, {"time": 761, "pitch": 62, "duration": 5, "velocity": 106}, {"time": 767, "pitch": 64, "duration": 15, "velocity": 101}, {"time": 779, "pitch": 62, "duration": 12, "velocity": 101}, {"time": 791, "pitch": 55, "duration": 6, "velocity": 104}, {"time": 797, "pitch": 59, "duration": 6, "velocity": 94}, {"time": 803, "pitch": 57, "duration": 20, "velocity": 101}, {"time": 851, "pitch": 62, "duration": 5, "velocity": 115}, {"time": 857, "pitch": 67, "duration": 5, "velocity": 104}, {"time": 863, "pitch": 66, "duration": 5, "velocity": 117}, {"time": 869, "pitch": 64, "duration": 10, "velocity": 109}, {"time": 881, "pitch": 62, "duration": 2, "velocity": 109}, {"time": 884, "pitch": 60, "duration": 2, "velocity": 101}, {"time": 887, "pitch": 62, "duration": 9, "velocity": 104}, {"time": 905, "pitch": 57, "duration": 3, "velocity": 104}, {"time": 908, "pitch": 60, "duration": 3, "velocity": 89}, {"time": 911, "pitch": 59, "duration": 19, "velocity": 99}, {"time": 947, "pitch": 55, "duration": 5, "velocity": 106}, {"time": 953, "pitch": 64, "duration": 5, "velocity": 109}, {"time": 959, "pitch": 64, "duration": 5, "velocity": 106}, {"time": 965, "pitch": 62, "duration": 10, "velocity": 104}, {"time": 977, "pitch": 55, "duration": 3, "velocity": 104}, {"time": 980, "pitch": 57, "duration": 2, "velocity": 104}, {"time": 983, "pitch": 59, "duration": 37, "velocity": 104}, {"time": 1043, "pitch": 59, "duration": 5, "velocity": 106}, {"time": 1049, "pitch": 66, "duration": 5, "velocity": 110}, {"time": 1055, "pitch": 66, "duration": 9, "velocity": 113}, {"time": 1067, "pitch": 59, "duration": 5, "velocity": 109}, {"time": 1073, "pitch": 59, "duration": 5, "velocity": 109}, {"time": 1079, "pitch": 66, "duration": 5, "velocity": 107}, {"time": 1085, "pitch": 67, "duration": 20, "velocity": 99}, {"time": 1115, "pitch": 64, "duration": 5, "velocity": 112}, {"time": 1121, "pitch": 66, "duration": 4, "velocity": 113}, {"time": 1127, "pitch": 67, "duration": 4, "velocity": 109}, {"time": 1133, "pitch": 64, "duration": 4, "velocity": 101}, {"time": 1139, "pitch": 64, "duration": 5, "velocity": 99}, {"time": 1145, "pitch": 62, "duration": 5, "velocity": 106}, {"time": 1151, "pitch": 64, "duration": 12, "velocity": 101}, {"time": 1169, "pitch": 64, "duration": 11, "velocity": 115}, {"time": 1179, "pitch": 67, "duration": 4, "velocity": 112}, {"time": 1183, "pitch": 64, "duration": 6, "velocity": 104}, {"time": 1189, "pitch": 62, "duration": 59, "velocity": 106}, {"time": 1253, "pitch": 62, "duration": 5, "velocity": 115}, {"time": 1259, "pitch": 69, "duration": 5, "velocity": 112}, {"time": 1265, "pitch": 72, "duration": 4, "velocity": 106}, {"time": 1271, "pitch": 72, "duration": 5, "velocity": 109}, {"time": 1277, "pitch": 71, "duration": 4, "velocity": 106}, {"time": 1283, "pitch": 71, "duration": 4, "velocity": 109}, {"time": 1289, "pitch": 69, "duration": 4, "velocity": 112}, {"time": 1295, "pitch": 71, "duration": 10, "velocity": 112}, {"time": 1307, "pitch": 67, "duration": 4, "velocity": 115}, {"time": 1313, "pitch": 71, "duration": 8, "velocity": 109}, {"time": 1325, "pitch": 69, "duration": 15, "velocity": 109}, {"time": 1343, "pitch": 69, "duration": 4, "velocity": 115}, {"time": 1349, "pitch": 71, "duration": 4, "velocity": 106}, {"time": 1355, "pitch": 71, "duration": 4, "velocity": 106}, {"time": 1361, "pitch": 66, "duration": 4, "velocity": 110}, {"time": 1367, "pitch": 67, "duration": 10, "velocity": 109}, {"time": 1379, "pitch": 64, "duration": 4, "velocity": 109}, {"time": 1385, "pitch": 66, "duration": 4, "velocity": 120}, {"time": 1391, "pitch": 67, "duration": 4, "velocity": 109}, {"time": 1397, "pitch": 71, "duration": 4, "velocity": 104}, {"time": 1403, "pitch": 69, "duration": 4, "velocity": 106}, {"time": 1409, "pitch": 67, "duration": 4, "velocity": 106}, {"time": 1415, "pitch": 66, "duration": 9, "velocity": 117}, {"time": 1439, "pitch": 67, "duration": 4, "velocity": 104}, {"time": 1445, "pitch": 66, "duration": 5, "velocity": 117}, {"time": 1451, "pitch": 62, "duration": 4, "velocity": 112}, {"time": 1457, "pitch": 66, "duration": 5, "velocity": 117}, {"time": 1463, "pitch": 64, "duration": 13, "velocity": 106}, {"time": 1481, "pitch": 64, "duration": 4, "velocity": 109}, {"time": 1487, "pitch": 64, "duration": 5, "velocity": 115}, {"time": 1493, "pitch": 74, "duration": 4, "velocity": 112}, {"time": 1499, "pitch": 72, "duration": 4, "velocity": 112}, {"time": 1505, "pitch": 71, "duration": 4, "velocity": 115}, {"time": 1511, "pitch": 72, "duration": 12, "velocity": 112}, {"time": 1529, "pitch": 67, "duration": 4, "velocity": 109}, {"time": 1535, "pitch": 69, "duration": 7, "velocity": 112}, {"time": 1544, "pitch": 62, "duration": 2, "velocity": 115}, {"time": 1548, "pitch": 69, "duration": 3, "velocity": 115}, {"time": 1553, "pitch": 72, "duration": 5, "velocity": 106}, {"time": 1559, "pitch": 72, "duration": 5, "velocity": 109}, {"time": 1565, "pitch": 71, "duration": 4, "velocity": 106}, {"time": 1571, "pitch": 71, "duration": 4, "velocity": 109}, {"time": 1577, "pitch": 69, "duration": 4, "velocity": 112}, {"time": 1583, "pitch": 71, "duration": 10, "velocity": 112}, {"time": 1595, "pitch": 67, "duration": 4, "velocity": 115}, {"time": 1601, "pitch": 71, "duration": 8, "velocity": 109}, {"time": 1613, "pitch": 69, "duration": 15, "velocity": 109}, {"time": 1631, "pitch": 69, "duration": 4, "velocity": 115}, {"time": 1637, "pitch": 71, "duration": 4, "velocity": 106}, {"time": 1643, "pitch": 71, "duration": 4, "velocity": 106}, {"time": 1649, "pitch": 66, "duration": 4, "velocity": 110}, {"time": 1655, "pitch": 67, "duration": 10, "velocity": 109}, {"time": 1667, "pitch": 64, "duration": 4, "velocity": 109}, {"time": 1673, "pitch": 66, "duration": 4, "velocity": 120}, {"time": 1679, "pitch": 67, "duration": 4, "velocity": 109}, {"time": 1685, "pitch": 71, "duration": 4, "velocity": 104}, {"time": 1691, "pitch": 69, "duration": 4, "velocity": 106}, {"time": 1697, "pitch": 67, "duration": 4, "velocity": 106}, {"time": 1703, "pitch": 66, "duration": 9, "velocity": 117}, {"time": 1727, "pitch": 67, "duration": 4, "velocity": 104}, {"time": 1733, "pitch": 66, "duration": 5, "velocity": 117}, {"time": 1739, "pitch": 62, "duration": 4, "velocity": 112}, {"time": 1745, "pitch": 66, "duration": 5, "velocity": 117}, {"time": 1751, "pitch": 64, "duration": 13, "velocity": 106}, {"time": 1769, "pitch": 64, "duration": 4, "velocity": 109}, {"time": 1775, "pitch": 64, "duration": 5, "velocity": 115}, {"time": 1781, "pitch": 74, "duration": 4, "velocity": 112}, {"time": 1787, "pitch": 72, "duration": 4, "velocity": 112}, {"time": 1793, "pitch": 71, "duration": 4, "velocity": 115}, {"time": 1799, "pitch": 69, "duration": 24, "velocity": 112}, {"time": 1835, "pitch": 67, "duration": 4, "velocity": 112}, {"time": 1841, "pitch": 66, "duration": 7, "velocity": 117}, {"time": 1848, "pitch": 67, "duration": 36, "velocity": 106}, {"time": 2051, "pitch": 62, "duration": 5, "velocity": 115}, {"time": 2057, "pitch": 67, "duration": 5, "velocity": 104}, {"time": 2063, "pitch": 66, "duration": 5, "velocity": 117}, {"time": 2069, "pitch": 64, "duration": 10, "velocity": 109}, {"time": 2081, "pitch": 62, "duration": 2, "velocity": 109}, {"time": 2084, "pitch": 60, "duration": 2, "velocity": 101}, {"time": 2087, "pitch": 62, "duration": 9, "velocity": 104}, {"time": 2105, "pitch": 57, "duration": 3, "velocity": 104}, {"time": 2108, "pitch": 60, "duration": 3, "velocity": 89}, {"time": 2111, "pitch": 59, "duration": 19, "velocity": 99}, {"time": 2147, "pitch": 55, "duration": 5, "velocity": 106}, {"time": 2153, "pitch": 64, "duration": 5, "velocity": 109}, {"time": 2159, "pitch": 64, "duration": 5, "velocity": 106}, {"time": 2165, "pitch": 62, "duration": 10, "velocity": 104}, {"time": 2177, "pitch": 55, "duration": 3, "velocity": 104}, {"time": 2180, "pitch": 57, "duration": 2, "velocity": 104}, {"time": 2183, "pitch": 59, "duration": 37, "velocity": 104}, {"time": 2243, "pitch": 59, "duration": 5, "velocity": 106}, {"time": 2249, "pitch": 66, "duration": 5, "velocity": 110}, {"time": 2255, "pitch": 66, "duration": 9, "velocity": 113}, {"time": 2267, "pitch": 59, "duration": 5, "velocity": 109}, {"time": 2273, "pitch": 59, "duration": 5, "velocity": 109}, {"time": 2279, "pitch": 66, "duration": 5, "velocity": 107}, {"time": 2285, "pitch": 67, "duration": 20, "velocity": 99}, {"time": 2315, "pitch": 64, "duration": 5, "velocity": 112}, {"time": 2321, "pitch": 66, "duration": 4, "velocity": 113}, {"time": 2327, "pitch": 67, "duration": 4, "velocity": 109}, {"time": 2333, "pitch": 64, "duration": 4, "velocity": 101}, {"time": 2339, "pitch": 64, "duration": 5, "velocity": 99}, {"time": 2345, "pitch": 62, "duration": 5, "velocity": 106}, {"time": 2351, "pitch": 64, "duration": 15, "velocity": 101}, {"time": 2363, "pitch": 62, "duration": 12, "velocity": 101}, {"time": 2375, "pitch": 55, "duration": 6, "velocity": 104}, {"time": 2381, "pitch": 59, "duration": 6, "velocity": 94}, {"time": 2387, "pitch": 57, "duration": 20, "velocity": 101}, {"time": 2435, "pitch": 62, "duration": 5, "velocity": 115}, {"time": 2441, "pitch": 67, "duration": 5, "velocity": 104}, {"time": 2447, "pitch": 66, "duration": 5, "velocity": 117}, {"time": 2453, "pitch": 64, "duration": 10, "velocity": 109}, {"time": 2465, "pitch": 62, "duration": 2, "velocity": 109}, {"time": 2468, "pitch": 60, "duration": 2, "velocity": 101}, {"time": 2471, "pitch": 62, "duration": 9, "velocity": 104}, {"time": 2489, "pitch": 57, "duration": 3, "velocity": 104}, {"time": 2492, "pitch": 60, "duration": 3, "velocity": 89}, {"time": 2495, "pitch": 59, "duration": 19, "velocity": 99}, {"time": 2531, "pitch": 55, "duration": 5, "velocity": 106}, {"time": 2537, "pitch": 64, "duration": 5, "velocity": 109}, {"time": 2543, "pitch": 64, "duration": 5, "velocity": 106}, {"time": 2549, "pitch": 62, "duration": 10, "velocity": 104}, {"time": 2561, "pitch": 55, "duration": 3, "velocity": 104}, {"time": 2564, "pitch": 57, "duration": 2, "velocity": 104}, {"time": 2567, "pitch": 59, "duration": 37, "velocity": 104}, {"time": 2627, "pitch": 59, "duration": 5, "velocity": 106}, {"time": 2633, "pitch": 66, "duration": 5, "velocity": 110}, {"time": 2639, "pitch": 66, "duration": 9, "velocity": 113}, {"time": 2651, "pitch": 59, "duration": 5, "velocity": 109}, {"time": 2657, "pitch": 59, "duration": 5, "velocity": 109}, {"time": 2663, "pitch": 66, "duration": 5, "velocity": 107}, {"time": 2669, "pitch": 67, "duration": 20, "velocity": 99}, {"time": 2699, "pitch": 64, "duration": 5, "velocity": 112}, {"time": 2705, "pitch": 66, "duration": 4, "velocity": 113}, {"time": 2711, "pitch": 67, "duration": 4, "velocity": 109}, {"time": 2717, "pitch": 64, "duration": 4, "velocity": 101}, {"time": 2723, "pitch": 64, "duration": 5, "velocity": 99}, {"time": 2729, "pitch": 62, "duration": 5, "velocity": 106}, {"time": 2735, "pitch": 64, "duration": 12, "velocity": 101}, {"time": 2747, "pitch": 64, "duration": 6, "velocity": 115}, {"time": 2753, "pitch": 67, "duration": 6, "velocity": 114}, {"time": 2759, "pitch": 64, "duration": 6, "velocity": 114}, {"time": 2765, "pitch": 62, "duration": 18, "velocity": 106}, {"time": 2789, "pitch": 62, "duration": 5, "velocity": 115}, {"time": 2795, "pitch": 69, "duration": 5, "velocity": 112}, {"time": 2801, "pitch": 72, "duration": 4, "velocity": 106}, {"time": 2807, "pitch": 72, "duration": 5, "velocity": 109}, {"time": 2813, "pitch": 71, "duration": 4, "velocity": 106}, {"time": 2819, "pitch": 71, "duration": 4, "velocity": 109}, {"time": 2825, "pitch": 69, "duration": 4, "velocity": 112}, {"time": 2831, "pitch": 71, "duration": 10, "velocity": 112}, {"time": 2843, "pitch": 67, "duration": 4, "velocity": 115}, {"time": 2849, "pitch": 71, "duration": 8, "velocity": 109}, {"time": 2861, "pitch": 69, "duration": 15, "velocity": 109}, {"time": 2879, "pitch": 69, "duration": 4, "velocity": 115}, {"time": 2885, "pitch": 71, "duration": 4, "velocity": 106}, {"time": 2891, "pitch": 71, "duration": 4, "velocity": 106}, {"time": 2897, "pitch": 66, "duration": 4, "velocity": 110}, {"time": 2903, "pitch": 67, "duration": 10, "velocity": 109}, {"time": 2915, "pitch": 64, "duration": 4, "velocity": 109}, {"time": 2921, "pitch": 66, "duration": 4, "velocity": 120}, {"time": 2927, "pitch": 67, "duration": 4, "velocity": 109}, {"time": 2933, "pitch": 71, "duration": 4, "velocity": 104}, {"time": 2939, "pitch": 69, "duration": 4, "velocity": 106}, {"time": 2945, "pitch": 67, "duration": 4, "velocity": 106}, {"time": 2951, "pitch": 66, "duration": 9, "velocity": 117}, {"time": 2975, "pitch": 67, "duration": 4, "velocity": 104}, {"time": 2981, "pitch": 66, "duration": 5, "velocity": 117}, {"time": 2987, "pitch": 62, "duration": 4, "velocity": 112}, {"time": 2993, "pitch": 66, "duration": 5, "velocity": 117}, {"time": 2999, "pitch": 64, "duration": 13, "velocity": 106}, {"time": 3017, "pitch": 64, "duration": 4, "velocity": 109}, {"time": 3023, "pitch": 64, "duration": 5, "velocity": 115}, {"time": 3029, "pitch": 74, "duration": 4, "velocity": 112}, {"time": 3035, "pitch": 72, "duration": 4, "velocity": 112}, {"time": 3041, "pitch": 71, "duration": 4, "velocity": 115}, {"time": 3047, "pitch": 72, "duration": 12, "velocity": 112}, {"time": 3065, "pitch": 67, "duration": 4, "velocity": 109}, {"time": 3071, "pitch": 69, "duration": 7, "velocity": 112}, {"time": 3080, "pitch": 62, "duration": 2, "velocity": 115}, {"time": 3084, "pitch": 69, "duration": 3, "velocity": 115}, {"time": 3089, "pitch": 72, "duration": 5, "velocity": 106}, {"time": 3095, "pitch": 72, "duration": 5, "velocity": 109}, {"time": 3101, "pitch": 71, "duration": 4, "velocity": 106}, {"time": 3107, "pitch": 71, "duration": 4, "velocity": 109}, {"time": 3113, "pitch": 69, "duration": 4, "velocity": 112}, {"time": 3119, "pitch": 71, "duration": 10, "velocity": 112}, {"time": 3131, "pitch": 67, "duration": 4, "velocity": 115}, {"time": 3137, "pitch": 71, "duration": 8, "velocity": 109}, {"time": 3149, "pitch": 69, "duration": 15, "velocity": 109}, {"time": 3167, "pitch": 69, "duration": 4, "velocity": 115}, {"time": 3173, "pitch": 71, "duration": 4, "velocity": 106}, {"time": 3179, "pitch": 71, "duration": 4, "velocity": 106}, {"time": 3185, "pitch": 66, "duration": 4, "velocity": 110}, {"time": 3191, "pitch": 67, "duration": 10, "velocity": 109}, {"time": 3203, "pitch": 64, "duration": 4, "velocity": 109}, {"time": 3209, "pitch": 66, "duration": 4, "velocity": 120}, {"time": 3215, "pitch": 67, "duration": 4, "velocity": 109}, {"time": 3221, "pitch": 71, "duration": 4, "velocity": 104}, {"time": 3227, "pitch": 69, "duration": 4, "velocity": 106}, {"time": 3233, "pitch": 67, "duration": 4, "velocity": 106}, {"time": 3239, "pitch": 66, "duration": 9, "velocity": 117}, {"time": 3263, "pitch": 67, "duration": 4, "velocity": 104}, {"time": 3269, "pitch": 66, "duration": 5, "velocity": 117}, {"time": 3275, "pitch": 62, "duration": 4, "velocity": 112}, {"time": 3281, "pitch": 66, "duration": 5, "velocity": 117}, {"time": 3287, "pitch": 64, "duration": 13, "velocity": 106}, {"time": 3305, "pitch": 64, "duration": 4, "velocity": 109}, {"time": 3311, "pitch": 64, "duration": 5, "velocity": 115}, {"time": 3317, "pitch": 74, "duration": 4, "velocity": 112}, {"time": 3323, "pitch": 72, "duration": 4, "velocity": 112}, {"time": 3329, "pitch": 71, "duration": 4, "velocity": 115}, {"time": 3335, "pitch": 69, "duration": 24, "velocity": 112}, {"time": 3371, "pitch": 67, "duration": 4, "velocity": 112}, {"time": 3377, "pitch": 66, "duration": 7, "velocity": 117}, {"time": 3384, "pitch": 67, "duration": 36, "velocity": 106}, {"time": 3461, "pitch": 64, "duration": 3, "velocity": 113}, {"time": 3467, "pitch": 71, "duration": 3, "velocity": 100}, {"time": 3473, "pitch": 74, "duration": 3, "velocity": 100}, {"time": 3479, "pitch": 74, "duration": 5, "velocity": 109}, {"time": 3485, "pitch": 73, "duration": 4, "velocity": 106}, {"time": 3491, "pitch": 73, "duration": 4, "velocity": 109}, {"time": 3497, "pitch": 71, "duration": 4, "velocity": 112}, {"time": 3503, "pitch": 73, "duration": 10, "velocity": 112}, {"time": 3515, "pitch": 69, "duration": 4, "velocity": 115}, {"time": 3521, "pitch": 73, "duration": 8, "velocity": 109}, {"time": 3533, "pitch": 71, "duration": 15, "velocity": 109}, {"time": 3551, "pitch": 71, "duration": 4, "velocity": 115}, {"time": 3557, "pitch": 73, "duration": 4, "velocity": 106}, {"time": 3563, "pitch": 73, "duration": 4, "velocity": 106}, {"time": 3569, "pitch": 68, "duration": 4, "velocity": 110}, {"time": 3575, "pitch": 69, "duration": 10, "velocity": 109}, {"time": 3587, "pitch": 66, "duration": 4, "velocity": 109}, {"time": 3593, "pitch": 68, "duration": 4, "velocity": 120}, {"time": 3599, "pitch": 69, "duration": 4, "velocity": 109}, {"time": 3605, "pitch": 73, "duration": 4, "velocity": 104}, {"time": 3611, "pitch": 71, "duration": 4, "velocity": 106}, {"time": 3617, "pitch": 69, "duration": 4, "velocity": 106}, {"time": 3623, "pitch": 68, "duration": 9, "velocity": 117}, {"time": 3647, "pitch": 69, "duration": 4, "velocity": 104}, {"time": 3653, "pitch": 68, "duration": 5, "velocity": 117}, {"time": 3659, "pitch": 64, "duration": 4, "velocity": 112}, {"time": 3665, "pitch": 68, "duration": 5, "velocity": 117}, {"time": 3671, "pitch": 66, "duration": 13, "velocity": 106}, {"time": 3689, "pitch": 66, "duration": 4, "velocity": 109}, {"time": 3695, "pitch": 66, "duration": 5, "velocity": 115}, {"time": 3701, "pitch": 76, "duration": 4, "velocity": 112}, {"time": 3707, "pitch": 74, "duration": 4, "velocity": 112}, {"time": 3713, "pitch": 73, "duration": 4, "velocity": 115}, {"time": 3719, "pitch": 74, "duration": 12, "velocity": 112}, {"time": 3737, "pitch": 69, "duration": 4, "velocity": 109}, {"time": 3743, "pitch": 71, "duration": 7, "velocity": 112}, {"time": 3752, "pitch": 64, "duration": 2, "velocity": 115}, {"time": 3756, "pitch": 71, "duration": 3, "velocity": 115}, {"time": 3761, "pitch": 74, "duration": 5, "velocity": 106}, {"time": 3767, "pitch": 74, "duration": 5, "velocity": 109}, {"time": 3773, "pitch": 73, "duration": 4, "velocity": 106}, {"time": 3779, "pitch": 73, "duration": 4, "velocity": 109}, {"time": 3785, "pitch": 71, "duration": 4, "velocity": 112}, {"time": 3791, "pitch": 73, "duration": 10, "velocity": 112}, {"time": 3803, "pitch": 69, "duration": 4, "velocity": 115}, {"time": 3809, "pitch": 73, "duration": 8, "velocity": 109}, {"time": 3821, "pitch": 71, "duration": 15, "velocity": 109}, {"time": 3839, "pitch": 71, "duration": 4, "velocity": 115}, {"time": 3845, "pitch": 73, "duration": 4, "velocity": 106}, {"time": 3851, "pitch": 73, "duration": 4, "velocity": 106}, {"time": 3857, "pitch": 68, "duration": 4, "velocity": 110}, {"time": 3863, "pitch": 69, "duration": 10, "velocity": 109}, {"time": 3875, "pitch": 66, "duration": 4, "velocity": 109}, {"time": 3881, "pitch": 68, "duration": 4, "velocity": 120}, {"time": 3887, "pitch": 69, "duration": 4, "velocity": 109}, {"time": 3893, "pitch": 73, "duration": 4, "velocity": 104}, {"time": 3899, "pitch": 71, "duration": 4, "velocity": 106}, {"time": 3905, "pitch": 69, "duration": 4, "velocity": 106}, {"time": 3911, "pitch": 68, "duration": 9, "velocity": 117}, {"time": 3935, "pitch": 69, "duration": 4, "velocity": 104}, {"time": 3941, "pitch": 68, "duration": 5, "velocity": 117}, {"time": 3947, "pitch": 64, "duration": 4, "velocity": 112}, {"time": 3953, "pitch": 68, "duration": 5, "velocity": 117}, {"time": 3959, "pitch": 66, "duration": 13, "velocity": 106}, {"time": 3977, "pitch": 66, "duration": 4, "velocity": 109}, {"time": 3983, "pitch": 66, "duration": 5, "velocity": 115}, {"time": 3989, "pitch": 76, "duration": 4, "velocity": 112}, {"time": 3995, "pitch": 74, "duration": 4, "velocity": 112}, {"time": 4001, "pitch": 73, "duration": 4, "velocity": 115}, {"time": 4007, "pitch": 71, "duration": 24, "velocity": 112}, {"time": 4043, "pitch": 69, "duration": 4, "velocity": 112}, {"time": 4049, "pitch": 68, "duration": 7, "velocity": 117}, {"time": 4056, "pitch": 69, "duration": 36, "velocity": 106}, {"time": 4143, "pitch": 69, "duration": 5, "velocity": 112}, {"time": 4150, "pitch": 68, "duration": 7, "velocity": 117}, {"time": 4158, "pitch": 71, "duration": 10, "velocity": 106}, {"time": 4170, "pitch": 69, "duration": 28, "velocity": 106}]}, {"program": 0, "is_drum": false, "name": "PIANO", "notes": [{"time": 71, "pitch": 55, "duration": 47, "velocity": 101}, {"time": 77, "pitch": 62, "duration": 8, "velocity": 96}, {"time": 83, "pitch": 66, "duration": 13, "velocity": 93}, {"time": 89, "pitch": 62, "duration": 7, "velocity": 66}, {"time": 95, "pitch": 67, "duration": 13, "velocity": 99}, {"time": 101, "pitch": 62, "duration": 9, "velocity": 47}, {"time": 107, "pitch": 66, "duration": 14, "velocity": 88}, {"time": 119, "pitch": 48, "duration": 44, "velocity": 99}, {"time": 125, "pitch": 55, "duration": 8, "velocity": 56}, {"time": 131, "pitch": 63, "duration": 25, "velocity": 88}, {"time": 137, "pitch": 55, "duration": 8, "velocity": 56}, {"time": 143, "pitch": 67, "duration": 14, "velocity": 96}, {"time": 149, "pitch": 55, "duration": 14, "velocity": 52}, {"time": 155, "pitch": 69, "duration": 27, "velocity": 101}, {"time": 161, "pitch": 60, "duration": 7, "velocity": 73}, {"time": 167, "pitch": 47, "duration": 42, "velocity": 96}, {"time": 173, "pitch": 54, "duration": 7, "velocity": 72}, {"time": 179, "pitch": 62, "duration": 15, "velocity": 104}, {"time": 185, "pitch": 54, "duration": 7, "velocity": 49}, {"time": 191, "pitch": 66, "duration": 25, "velocity": 104}, {"time": 197, "pitch": 54, "duration": 6, "velocity": 31}, {"time": 203, "pitch": 62, "duration": 13, "velocity": 104}, {"time": 209, "pitch": 59, "duration": 6, "velocity": 89}, {"time": 215, "pitch": 52, "duration": 41, "velocity": 104}, {"time": 221, "pitch": 59, "duration": 8, "velocity": 73}, {"time": 227, "pitch": 67, "duration": 19, "velocity": 96}, {"time": 233, "pitch": 59, "duration": 8, "velocity": 59}, {"time": 239, "pitch": 71, "duration": 17, "velocity": 99}, {"time": 245, "pitch": 59, "duration": 11, "velocity": 58}, {"time": 251, "pitch": 67, "duration": 8, "velocity": 99}, {"time": 257, "pitch": 64, "duration": 4, "velocity": 91}, {"time": 263, "pitch": 45, "duration": 44, "velocity": 87}, {"time": 269, "pitch": 52, "duration": 9, "velocity": 73}, {"time": 275, "pitch": 60, "duration": 20, "velocity": 96}, {"time": 281, "pitch": 52, "duration": 8, "velocity": 43}, {"time": 287, "pitch": 64, "duration": 13, "velocity": 96}, {"time": 293, "pitch": 52, "duration": 15, "velocity": 46}, {"time": 299, "pitch": 57, "duration": 11, "velocity": 99}, {"time": 299, "pitch": 60, "duration": 11, "velocity": 94}, {"time": 311, "pitch": 50, "duration": 45, "velocity": 104}, {"time": 317, "pitch": 57, "duration": 8, "velocity": 69}, {"time": 323, "pitch": 64, "duration": 26, "velocity": 89}, {"time": 329, "pitch": 57, "duration": 7, "velocity": 54}, {"time": 335, "pitch": 66, "duration": 25, "velocity": 74}, {"time": 341, "pitch": 57, "duration": 14, "velocity": 59}, {"time": 347, "pitch": 69, "duration": 13, "velocity": 101}, {"time": 353, "pitch": 62, "duration": 8, "velocity": 80}, {"time": 359, "pitch": 43, "duration": 46, "velocity": 89}, {"time": 365, "pitch": 50, "duration": 9, "velocity": 59}, {"time": 371, "pitch": 57, "duration": 18, "velocity": 74}, {"time": 377, "pitch": 50, "duration": 8, "velocity": 50}, {"time": 383, "pitch": 59, "duration": 25, "velocity": 89}, {"time": 389, "pitch": 50, "duration": 14, "velocity": 48}, {"time": 395, "pitch": 55, "duration": 3, "velocity": 82}, {"time": 395, "pitch": 62, "duration": 18, "velocity": 104}, {"time": 401, "pitch": 55, "duration": 14, "velocity": 80}, {"time": 407, "pitch": 43, "duration": 44, "velocity": 99}, {"time": 413, "pitch": 50, "duration": 10, "velocity": 62}, {"time": 419, "pitch": 57, "duration": 8, "velocity": 91}, {"time": 425, "pitch": 50, "duration": 7, "velocity": 74}, {"time": 431, "pitch": 55, "duration": 7, "velocity": 96}, {"time": 431, "pitch": 59, "duration": 6, "velocity": 96}, {"time": 437, "pitch": 50, "duration": 8, "velocity": 71}, {"time": 443, "pitch": 55, "duration": 12, "velocity": 101}, {"time": 443, "pitch": 62, "duration": 12, "velocity": 109}, {"time": 449, "pitch": 50, "duration": 5, "velocity": 99}, {"time": 455, "pitch": 43, "duration": 19, "velocity": 101}, {"time": 455, "pitch": 55, "duration": 13, "velocity": 91}, {"time": 455, "pitch": 59, "duration": 9, "velocity": 96}, {"time": 461, "pitch": 50, "duration": 10, "velocity": 74}, {"time": 467, "pitch": 59, "duration": 14, "velocity": 85}, {"time": 467, "pitch": 62, "duration": 21, "velocity": 104}, {"time": 479, "pitch": 48, "duration": 17, "velocity": 85}, {"time": 485, "pitch": 52, "duration": 12, "velocity": 82}, {"time": 491, "pitch": 62, "duration": 7, "velocity": 104}, {"time": 503, "pitch": 47, "duration": 21, "velocity": 87}, {"time": 503, "pitch": 59, "duration": 9, "velocity": 74}, {"time": 503, "pitch": 62, "duration": 12, "velocity": 80}, {"time": 509, "pitch": 54, "duration": 12, "velocity": 66}, {"time": 515, "pitch": 59, "duration": 10, "velocity": 99}, {"time": 527, "pitch": 52, "duration": 19, "velocity": 78}, {"time": 527, "pitch": 59, "duration": 17, "velocity": 82}, {"time": 527, "pitch": 64, "duration": 8, "velocity": 85}, {"time": 551, "pitch": 48, "duration": 17, "velocity": 96}, {"time": 551, "pitch": 60, "duration": 8, "velocity": 73}, {"time": 551, "pitch": 64, "duration": 12, "velocity": 87}, {"time": 557, "pitch": 55, "duration": 12, "velocity": 69}, {"time": 563, "pitch": 60, "duration": 8, "velocity": 106}, {"time": 575, "pitch": 50, "duration": 13, "velocity": 106}, {"time": 575, "pitch": 62, "duration": 8, "velocity": 99}, {"time": 581, "pitch": 57, "duration": 7, "velocity": 89}, {"time": 587, "pitch": 62, "duration": 4, "velocity": 101}, {"time": 587, "pitch": 66, "duration": 3, "velocity": 96}, {"time": 599, "pitch": 43, "duration": 40, "velocity": 91}, {"time": 599, "pitch": 55, "duration": 7, "velocity": 66}, {"time": 599, "pitch": 62, "duration": 8, "velocity": 96}, {"time": 605, "pitch": 50, "duration": 8, "velocity": 54}, {"time": 611, "pitch": 55, "duration": 8, "velocity": 76}, {"time": 611, "pitch": 60, "duration": 10, "velocity": 58}, {"time": 617, "pitch": 50, "duration": 8, "velocity": 78}, {"time": 623, "pitch": 55, "duration": 6, "velocity": 61}, {"time": 623, "pitch": 59, "duration": 13, "velocity": 104}, {"time": 629, "pitch": 50, "duration": 9, "velocity": 82}, {"time": 635, "pitch": 55, "duration": 7, "velocity": 104}, {"time": 641, "pitch": 57, "duration": 7, "velocity": 101}, {"time": 647, "pitch": 47, "duration": 21, "velocity": 96}, {"time": 647, "pitch": 59, "duration": 11, "velocity": 96}, {"time": 653, "pitch": 54, "duration": 8, "velocity": 63}, {"time": 659, "pitch": 64, "duration": 5, "velocity": 104}, {"time": 665, "pitch": 54, "duration": 6, "velocity": 70}, {"time": 671, "pitch": 47, "duration": 22, "velocity": 89}, {"time": 671, "pitch": 59, "duration": 13, "velocity": 94}, {"time": 671, "pitch": 63, "duration": 13, "velocity": 96}, {"time": 677, "pitch": 54, "duration": 11, "velocity": 28}, {"time": 683, "pitch": 66, "duration": 12, "velocity": 113}, {"time": 695, "pitch": 52, "duration": 40, "velocity": 99}, {"time": 695, "pitch": 64, "duration": 14, "velocity": 99}, {"time": 701, "pitch": 55, "duration": 33, "velocity": 64}, {"time": 707, "pitch": 67, "duration": 17, "velocity": 106}, {"time": 713, "pitch": 59, "duration": 5, "velocity": 64}, {"time": 716, "pitch": 64, "duration": 8, "velocity": 1}, {"time": 719, "pitch": 71, "duration": 11, "velocity": 89}, {"time": 725, "pitch": 59, "duration": 7, "velocity": 87}, {"time": 731, "pitch": 64, "duration": 7, "velocity": 104}, {"time": 731, "pitch": 67, "duration": 7, "velocity": 106}, {"time": 737, "pitch": 59, "duration": 3, "velocity": 101}, {"time": 743, "pitch": 45, "duration": 43, "velocity": 101}, {"time": 743, "pitch": 60, "duration": 16, "velocity": 94}, {"time": 749, "pitch": 52, "duration": 7, "velocity": 67}, {"time": 755, "pitch": 57, "duration": 21, "velocity": 106}, {"time": 761, "pitch": 52, "duration": 9, "velocity": 62}, {"time": 767, "pitch": 64, "duration": 14, "velocity": 99}, {"time": 773, "pitch": 52, "duration": 12, "velocity": 76}, {"time": 779, "pitch": 57, "duration": 7, "velocity": 109}, {"time": 779, "pitch": 60, "duration": 6, "velocity": 106}, {"time": 791, "pitch": 50, "duration": 39, "velocity": 96}, {"time": 791, "pitch": 57, "duration": 3, "velocity": 91}, {"time": 791, "pitch": 62, "duration": 13, "velocity": 99}, {"time": 797, "pitch": 57, "duration": 7, "velocity": 87}, {"time": 803, "pitch": 64, "duration": 7, "velocity": 101}, {"time": 809, "pitch": 62, "duration": 7, "velocity": 99}, {"time": 815, "pitch": 66, "duration": 7, "velocity": 110}, {"time": 821, "pitch": 57, "duration": 7, "velocity": 89}, {"time": 827, "pitch": 62, "duration": 11, "velocity": 109}, {"time": 839, "pitch": 43, "duration": 18, "velocity": 94}, {"time": 839, "pitch": 55, "duration": 11, "velocity": 78}, {"time": 839, "pitch": 59, "duration": 8, "velocity": 89}, {"time": 845, "pitch": 50, "duration": 10, "velocity": 69}, {"time": 851, "pitch": 59, "duration": 3, "velocity": 96}, {"time": 851, "pitch": 62, "duration": 4, "velocity": 104}, {"time": 863, "pitch": 48, "duration": 15, "velocity": 94}, {"time": 863, "pitch": 55, "duration": 7, "velocity": 71}, {"time": 863, "pitch": 60, "duration": 13, "velocity": 85}, {"time": 869, "pitch": 52, "duration": 9, "velocity": 76}, {"time": 875, "pitch": 55, "duration": 5, "velocity": 109}, {"time": 887, "pitch": 50, "duration": 14, "velocity": 96}, {"time": 887, "pitch": 57, "duration": 10, "velocity": 94}, {"time": 887, "pitch": 62, "duration": 13, "velocity": 101}, {"time": 899, "pitch": 66, "duration": 7, "velocity": 113}, {"time": 905, "pitch": 57, "duration": 2, "velocity": 99}, {"time": 911, "pitch": 43, "duration": 19, "velocity": 82}, {"time": 911, "pitch": 55, "duration": 12, "velocity": 76}, {"time": 911, "pitch": 59, "duration": 9, "velocity": 76}, {"time": 917, "pitch": 50, "duration": 12, "velocity": 42}, {"time": 923, "pitch": 62, "duration": 6, "velocity": 106}, {"time": 929, "pitch": 55, "duration": 7, "velocity": 109}, {"time": 935, "pitch": 48, "duration": 17, "velocity": 89}, {"time": 935, "pitch": 60, "duration": 13, "velocity": 94}, {"time": 941, "pitch": 52, "duration": 11, "velocity": 64}, {"time": 947, "pitch": 64, "duration": 14, "velocity": 96}, {"time": 953, "pitch": 55, "duration": 5, "velocity": 89}, {"time": 959, "pitch": 50, "duration": 16, "velocity": 101}, {"time": 959, "pitch": 62, "duration": 6, "velocity": 104}, {"time": 965, "pitch": 57, "duration": 7, "velocity": 96}, {"time": 971, "pitch": 66, "duration": 7, "velocity": 113}, {"time": 977, "pitch": 57, "duration": 2, "velocity": 112}, {"time": 983, "pitch": 43, "duration": 42, "velocity": 94}, {"time": 983, "pitch": 59, "duration": 12, "velocity": 87}, {"time": 989, "pitch": 50, "duration": 7, "velocity": 74}, {"time": 995, "pitch": 55, "duration": 9, "velocity": 96}, {"time": 1001, "pitch": 50, "duration": 8, "velocity": 82}, {"time": 1007, "pitch": 59, "duration": 13, "velocity": 99}, {"time": 1013, "pitch": 50, "duration": 9, "velocity": 71}, {"time": 1019, "pitch": 55, "duration": 5, "velocity": 106}, {"time": 1025, "pitch": 57, "duration": 6, "velocity": 112}, {"time": 1031, "pitch": 47, "duration": 46, "velocity": 101}, {"time": 1031, "pitch": 59, "duration": 13, "velocity": 94}, {"time": 1037, "pitch": 54, "duration": 7, "velocity": 70}, {"time": 1043, "pitch": 64, "duration": 5, "velocity": 101}, {"time": 1049, "pitch": 54, "duration": 6, "velocity": 81}, {"time": 1055, "pitch": 51, "duration": 18, "velocity": 79}, {"time": 1055, "pitch": 59, "duration": 9, "velocity": 101}, {"time": 1055, "pitch": 63, "duration": 10, "velocity": 104}, {"time": 1061, "pitch": 54, "duration": 12, "velocity": 81}, {"time": 1067, "pitch": 59, "duration": 4, "velocity": 104}, {"time": 1067, "pitch": 66, "duration": 12, "velocity": 107}, {"time": 1073, "pitch": 59, "duration": 5, "velocity": 82}, {"time": 1079, "pitch": 52, "duration": 36, "velocity": 91}, {"time": 1079, "pitch": 64, "duration": 13, "velocity": 96}, {"time": 1085, "pitch": 55, "duration": 30, "velocity": 56}, {"time": 1091, "pitch": 67, "duration": 8, "velocity": 101}, {"time": 1097, "pitch": 59, "duration": 8, "velocity": 96}, {"time": 1103, "pitch": 67, "duration": 12, "velocity": 104}, {"time": 1109, "pitch": 59, "duration": 5, "velocity": 76}, {"time": 1115, "pitch": 59, "duration": 3, "velocity": 96}, {"time": 1115, "pitch": 64, "duration": 7, "velocity": 99}, {"time": 1121, "pitch": 59, "duration": 3, "velocity": 96}, {"time": 1127, "pitch": 45, "duration": 40, "velocity": 96}, {"time": 1127, "pitch": 60, "duration": 14, "velocity": 78}, {"time": 1133, "pitch": 52, "duration": 8, "velocity": 69}, {"time": 1139, "pitch": 57, "duration": 13, "velocity": 112}, {"time": 1145, "pitch": 52, "duration": 8, "velocity": 78}, {"time": 1151, "pitch": 60, "duration": 9, "velocity": 91}, {"time": 1157, "pitch": 52, "duration": 9, "velocity": 56}, {"time": 1163, "pitch": 57, "duration": 4, "velocity": 109}, {"time": 1163, "pitch": 60, "duration": 5, "velocity": 109}, {"time": 1163, "pitch": 64, "duration": 6, "velocity": 104}, {"time": 1175, "pitch": 50, "duration": 44, "velocity": 104}, {"time": 1175, "pitch": 57, "duration": 4, "velocity": 99}, {"time": 1175, "pitch": 62, "duration": 14, "velocity": 101}, {"time": 1181, "pitch": 57, "duration": 8, "velocity": 89}, {"time": 1187, "pitch": 66, "duration": 7, "velocity": 110}, {"time": 1193, "pitch": 57, "duration": 7, "velocity": 87}, {"time": 1199, "pitch": 64, "duration": 7, "velocity": 91}, {"time": 1205, "pitch": 57, "duration": 6, "velocity": 67}, {"time": 1211, "pitch": 62, "duration": 7, "velocity": 104}, {"time": 1217, "pitch": 57, "duration": 3, "velocity": 112}, {"time": 1223, "pitch": 38, "duration": 15, "velocity": 109}, {"time": 1223, "pitch": 50, "duration": 7, "velocity": 99}, {"time": 1223, "pitch": 54, "duration": 10, "velocity": 91}, {"time": 1229, "pitch": 45, "duration": 9, "velocity": 106}, {"time": 1235, "pitch": 57, "duration": 6, "velocity": 104}, {"time": 1238, "pitch": 50, "duration": 4, "velocity": 99}, {"time": 1241, "pitch": 54, "duration": 5, "velocity": 104}, {"time": 1244, "pitch": 57, "duration": 3, "velocity": 109}, {"time": 1247, "pitch": 62, "duration": 12, "velocity": 115}, {"time": 1259, "pitch": 62, "duration": 12, "velocity": 101}, {"time": 1259, "pitch": 66, "duration": 12, "velocity": 113}, {"time": 1259, "pitch": 69, "duration": 13, "velocity": 106}, {"time": 1271, "pitch": 43, "duration": 39, "velocity": 101}, {"time": 1271, "pitch": 55, "duration": 12, "velocity": 94}, {"time": 1271, "pitch": 59, "duration": 7, "velocity": 96}, {"time": 1277, "pitch": 50, "duration": 8, "velocity": 69}, {"time": 1283, "pitch": 59, "duration": 7, "velocity": 89}, {"time": 1283, "pitch": 62, "duration": 7, "velocity": 101}, {"time": 1289, "pitch": 50, "duration": 8, "velocity": 44}, {"time": 1295, "pitch": 55, "duration": 9, "velocity": 91}, {"time": 1295, "pitch": 59, "duration": 10, "velocity": 99}, {"time": 1301, "pitch": 50, "duration": 15, "velocity": 40}, {"time": 1307, "pitch": 55, "duration": 3, "velocity": 106}, {"time": 1307, "pitch": 59, "duration": 3, "velocity": 109}, {"time": 1319, "pitch": 42, "duration": 14, "velocity": 101}, {"time": 1319, "pitch": 57, "duration": 8, "velocity": 112}, {"time": 1319, "pitch": 64, "duration": 9, "velocity": 104}, {"time": 1331, "pitch": 57, "duration": 6, "velocity": 101}, {"time": 1331, "pitch": 64, "duration": 11, "velocity": 101}, {"time": 1337, "pitch": 54, "duration": 2, "velocity": 113}, {"time": 1343, "pitch": 47, "duration": 15, "velocity": 104}, {"time": 1343, "pitch": 59, "duration": 9, "velocity": 99}, {"time": 1343, "pitch": 63, "duration": 6, "velocity": 96}, {"time": 1349, "pitch": 54, "duration": 7, "velocity": 96}, {"time": 1355, "pitch": 66, "duration": 7, "velocity": 120}, {"time": 1361, "pitch": 59, "duration": 5, "velocity": 109}, {"time": 1367, "pitch": 40, "duration": 39, "velocity": 101}, {"time": 1367, "pitch": 64, "duration": 7, "velocity": 94}, {"time": 1373, "pitch": 59, "duration": 8, "velocity": 94}, {"time": 1379, "pitch": 64, "duration": 8, "velocity": 112}, {"time": 1379, "pitch": 67, "duration": 8, "velocity": 106}, {"time": 1385, "pitch": 59, "duration": 7, "velocity": 91}, {"time": 1391, "pitch": 64, "duration": 9, "velocity": 101}, {"time": 1391, "pitch": 67, "duration": 9, "velocity": 101}, {"time": 1397, "pitch": 59, "duration": 5, "velocity": 58}, {"time": 1403, "pitch": 64, "duration": 5, "velocity": 106}, {"time": 1403, "pitch": 67, "duration": 9, "velocity": 109}, {"time": 1409, "pitch": 59, "duration": 3, "velocity": 76}, {"time": 1415, "pitch": 47, "duration": 38, "velocity": 85}, {"time": 1415, "pitch": 57, "duration": 5, "velocity": 101}, {"time": 1415, "pitch": 62, "duration": 9, "velocity": 106}, {"time": 1415, "pitch": 66, "duration": 10, "velocity": 96}, {"time": 1427, "pitch": 57, "duration": 3, "velocity": 109}, {"time": 1427, "pitch": 62, "duration": 10, "velocity": 112}, {"time": 1427, "pitch": 66, "duration": 22, "velocity": 113}, {"time": 1433, "pitch": 57, "duration": 7, "velocity": 73}, {"time": 1439, "pitch": 62, "duration": 9, "velocity": 96}, {"time": 1445, "pitch": 57, "duration": 6, "velocity": 44}, {"time": 1451, "pitch": 62, "duration": 6, "velocity": 106}, {"time": 1451, "pitch": 66, "duration": 6, "velocity": 117}, {"time": 1457, "pitch": 57, "duration": 2, "velocity": 96}, {"time": 1463, "pitch": 48, "duration": 43, "velocity": 94}, {"time": 1463, "pitch": 55, "duration": 3, "velocity": 96}, {"time": 1463, "pitch": 60, "duration": 8, "velocity": 94}, {"time": 1475, "pitch": 60, "duration": 6, "velocity": 26}, {"time": 1475, "pitch": 64, "duration": 8, "velocity": 99}, {"time": 1487, "pitch": 55, "duration": 3, "velocity": 94}, {"time": 1487, "pitch": 60, "duration": 7, "velocity": 99}, {"time": 1493, "pitch": 55, "duration": 3, "velocity": 74}, {"time": 1499, "pitch": 47, "duration": 9, "velocity": 99}, {"time": 1499, "pitch": 57, "duration": 9, "velocity": 106}, {"time": 1499, "pitch": 62, "duration": 7, "velocity": 106}, {"time": 1511, "pitch": 45, "duration": 22, "velocity": 106}, {"time": 1511, "pitch": 57, "duration": 9, "velocity": 99}, {"time": 1511, "pitch": 60, "duration": 8, "velocity": 96}, {"time": 1517, "pitch": 52, "duration": 13, "velocity": 61}, {"time": 1523, "pitch": 57, "duration": 7, "velocity": 115}, {"time": 1529, "pitch": 60, "duration": 5, "velocity": 112}, {"time": 1535, "pitch": 50, "duration": 15, "velocity": 104}, {"time": 1535, "pitch": 57, "duration": 5, "velocity": 106}, {"time": 1535, "pitch": 62, "duration": 5, "velocity": 109}, {"time": 1541, "pitch": 54, "duration": 11, "velocity": 107}, {"time": 1547, "pitch": 57, "duration": 3, "velocity": 112}, {"time": 1547, "pitch": 66, "duration": 8, "velocity": 117}, {"time": 1553, "pitch": 57, "duration": 4, "velocity": 115}, {"time": 1559, "pitch": 43, "duration": 38, "velocity": 104}, {"time": 1559, "pitch": 55, "duration": 13, "velocity": 104}, {"time": 1559, "pitch": 59, "duration": 7, "velocity": 99}, {"time": 1565, "pitch": 50, "duration": 8, "velocity": 55}, {"time": 1571, "pitch": 59, "duration": 5, "velocity": 99}, {"time": 1571, "pitch": 62, "duration": 6, "velocity": 106}, {"time": 1577, "pitch": 50, "duration": 8, "velocity": 62}, {"time": 1583, "pitch": 59, "duration": 7, "velocity": 106}, {"time": 1583, "pitch": 62, "duration": 8, "velocity": 106}, {"time": 1589, "pitch": 50, "duration": 9, "velocity": 61}, {"time": 1595, "pitch": 55, "duration": 3, "velocity": 106}, {"time": 1595, "pitch": 59, "duration": 2, "velocity": 112}, {"time": 1595, "pitch": 62, "duration": 3, "velocity": 109}, {"time": 1607, "pitch": 42, "duration": 16, "velocity": 107}, {"time": 1607, "pitch": 54, "duration": 4, "velocity": 83}, {"time": 1607, "pitch": 57, "duration": 9, "velocity": 104}, {"time": 1607, "pitch": 64, "duration": 8, "velocity": 94}, {"time": 1613, "pitch": 54, "duration": 4, "velocity": 74}, {"time": 1619, "pitch": 54, "duration": 2, "velocity": 101}, {"time": 1619, "pitch": 57, "duration": 6, "velocity": 106}, {"time": 1619, "pitch": 64, "duration": 12, "velocity": 106}, {"time": 1625, "pitch": 54, "duration": 3, "velocity": 120}, {"time": 1631, "pitch": 47, "duration": 14, "velocity": 104}, {"time": 1631, "pitch": 63, "duration": 7, "velocity": 117}, {"time": 1637, "pitch": 54, "duration": 9, "velocity": 91}, {"time": 1643, "pitch": 59, "duration": 4, "velocity": 104}, {"time": 1643, "pitch": 63, "duration": 5, "velocity": 113}, {"time": 1649, "pitch": 59, "duration": 6, "velocity": 82}, {"time": 1655, "pitch": 40, "duration": 38, "velocity": 99}, {"time": 1655, "pitch": 59, "duration": 3, "velocity": 99}, {"time": 1655, "pitch": 64, "duration": 7, "velocity": 101}, {"time": 1661, "pitch": 59, "duration": 4, "velocity": 91}, {"time": 1667, "pitch": 64, "duration": 9, "velocity": 112}, {"time": 1667, "pitch": 67, "duration": 9, "velocity": 109}, {"time": 1673, "pitch": 59, "duration": 8, "velocity": 101}, {"time": 1679, "pitch": 64, "duration": 8, "velocity": 101}, {"time": 1679, "pitch": 67, "duration": 8, "velocity": 101}, {"time": 1685, "pitch": 59, "duration": 3, "velocity": 85}, {"time": 1691, "pitch": 59, "duration": 3, "velocity": 106}, {"time": 1691, "pitch": 64, "duration": 7, "velocity": 112}, {"time": 1691, "pitch": 67, "duration": 8, "velocity": 104}, {"time": 1697, "pitch": 59, "duration": 3, "velocity": 94}, {"time": 1703, "pitch": 47, "duration": 39, "velocity": 99}, {"time": 1703, "pitch": 59, "duration": 3, "velocity": 74}, {"time": 1703, "pitch": 62, "duration": 10, "velocity": 99}, {"time": 1709, "pitch": 57, "duration": 8, "velocity": 101}, {"time": 1715, "pitch": 62, "duration": 8, "velocity": 104}, {"time": 1715, "pitch": 66, "duration": 9, "velocity": 113}, {"time": 1721, "pitch": 54, "duration": 8, "velocity": 38}, {"time": 1727, "pitch": 62, "duration": 6, "velocity": 99}, {"time": 1727, "pitch": 66, "duration": 7, "velocity": 99}, {"time": 1733, "pitch": 54, "duration": 7, "velocity": 30}, {"time": 1739, "pitch": 57, "duration": 3, "velocity": 109}, {"time": 1739, "pitch": 62, "duration": 7, "velocity": 109}, {"time": 1739, "pitch": 66, "duration": 7, "velocity": 113}, {"time": 1745, "pitch": 57, "duration": 3, "velocity": 101}, {"time": 1751, "pitch": 48, "duration": 43, "velocity": 99}, {"time": 1751, "pitch": 55, "duration": 3, "velocity": 96}, {"time": 1751, "pitch": 60, "duration": 7, "velocity": 96}, {"time": 1757, "pitch": 55, "duration": 7, "velocity": 89}, {"time": 1763, "pitch": 60, "duration": 7, "velocity": 109}, {"time": 1769, "pitch": 55, "duration": 7, "velocity": 96}, {"time": 1775, "pitch": 62, "duration": 8, "velocity": 112}, {"time": 1781, "pitch": 55, "duration": 4, "velocity": 62}, {"time": 1787, "pitch": 55, "duration": 7, "velocity": 106}, {"time": 1787, "pitch": 60, "duration": 7, "velocity": 104}, {"time": 1793, "pitch": 59, "duration": 5, "velocity": 109}, {"time": 1799, "pitch": 45, "duration": 19, "velocity": 96}, {"time": 1799, "pitch": 57, "duration": 6, "velocity": 101}, {"time": 1799, "pitch": 60, "duration": 13, "velocity": 91}, {"time": 1805, "pitch": 52, "duration": 13, "velocity": 96}, {"time": 1811, "pitch": 55, "duration": 7, "velocity": 112}, {"time": 1817, "pitch": 60, "duration": 7, "velocity": 109}, {"time": 1823, "pitch": 50, "duration": 24, "velocity": 94}, {"time": 1823, "pitch": 57, "duration": 24, "velocity": 101}, {"time": 1823, "pitch": 62, "duration": 24, "velocity": 99}, {"time": 1847, "pitch": 48, "duration": 16, "velocity": 94}, {"time": 1847, "pitch": 55, "duration": 3, "velocity": 99}, {"time": 1847, "pitch": 60, "duration": 7, "velocity": 96}, {"time": 1853, "pitch": 55, "duration": 10, "velocity": 96}, {"time": 1859, "pitch": 60, "duration": 10, "velocity": 94}, {"time": 1871, "pitch": 47, "duration": 17, "velocity": 76}, {"time": 1871, "pitch": 59, "duration": 9, "velocity": 87}, {"time": 1871, "pitch": 62, "duration": 12, "velocity": 94}, {"time": 1877, "pitch": 54, "duration": 9, "velocity": 44}, {"time": 1883, "pitch": 59, "duration": 5, "velocity": 66}, {"time": 1895, "pitch": 45, "duration": 19, "velocity": 89}, {"time": 1895, "pitch": 57, "duration": 7, "velocity": 82}, {"time": 1895, "pitch": 60, "duration": 12, "velocity": 87}, {"time": 1901, "pitch": 52, "duration": 13, "velocity": 29}, {"time": 1907, "pitch": 57, "duration": 5, "velocity": 71}, {"time": 1919, "pitch": 43, "duration": 21, "velocity": 85}, {"time": 1919, "pitch": 55, "duration": 8, "velocity": 76}, {"time": 1919, "pitch": 59, "duration": 9, "velocity": 87}, {"time": 1925, "pitch": 50, "duration": 14, "velocity": 59}, {"time": 1931, "pitch": 55, "duration": 7, "velocity": 104}, {"time": 1937, "pitch": 59, "duration": 5, "velocity": 101}, {"time": 1943, "pitch": 48, "duration": 15, "velocity": 87}, {"time": 1943, "pitch": 55, "duration": 12, "velocity": 91}, {"time": 1943, "pitch": 60, "duration": 18, "velocity": 89}, {"time": 1955, "pitch": 64, "duration": 10, "velocity": 66}, {"time": 1967, "pitch": 47, "duration": 21, "velocity": 78}, {"time": 1967, "pitch": 59, "duration": 7, "velocity": 89}, {"time": 1967, "pitch": 62, "duration": 9, "velocity": 101}, {"time": 1973, "pitch": 54, "duration": 13, "velocity": 79}, {"time": 1979, "pitch": 59, "duration": 8, "velocity": 96}, {"time": 1985, "pitch": 62, "duration": 7, "velocity": 76}, {"time": 1991, "pitch": 45, "duration": 21, "velocity": 74}, {"time": 1991, "pitch": 60, "duration": 14, "velocity": 96}, {"time": 1997, "pitch": 52, "duration": 13, "velocity": 76}, {"time": 2003, "pitch": 55, "duration": 7, "velocity": 89}, {"time": 2009, "pitch": 60, "duration": 4, "velocity": 80}, {"time": 2015, "pitch": 43, "duration": 22, "velocity": 89}, {"time": 2015, "pitch": 55, "duration": 10, "velocity": 78}, {"time": 2015, "pitch": 59, "duration": 8, "velocity": 80}, {"time": 2021, "pitch": 50, "duration": 15, "velocity": 64}, {"time": 2027, "pitch": 57, "duration": 7, "velocity": 112}, {"time": 2033, "pitch": 59, "duration": 6, "velocity": 112}, {"time": 2039, "pitch": 43, "duration": 19, "velocity": 101}, {"time": 2039, "pitch": 55, "duration": 13, "velocity": 91}, {"time": 2039, "pitch": 59, "duration": 9, "velocity": 96}, {"time": 2045, "pitch": 50, "duration": 10, "velocity": 74}, {"time": 2051, "pitch": 59, "duration": 14, "velocity": 85}, {"time": 2051, "pitch": 62, "duration": 21, "velocity": 104}, {"time": 2063, "pitch": 48, "duration": 17, "velocity": 85}, {"time": 2069, "pitch": 52, "duration": 12, "velocity": 82}, {"time": 2075, "pitch": 62, "duration": 7, "velocity": 104}, {"time": 2081, "pitch": 60, "duration": 3, "velocity": 96}, {"time": 2087, "pitch": 47, "duration": 21, "velocity": 87}, {"time": 2087, "pitch": 59, "duration": 9, "velocity": 74}, {"time": 2087, "pitch": 62, "duration": 12, "velocity": 80}, {"time": 2093, "pitch": 54, "duration": 12, "velocity": 66}, {"time": 2099, "pitch": 59, "duration": 10, "velocity": 99}, {"time": 2111, "pitch": 52, "duration": 19, "velocity": 78}, {"time": 2111, "pitch": 59, "duration": 17, "velocity": 82}, {"time": 2111, "pitch": 64, "duration": 8, "velocity": 85}, {"time": 2135, "pitch": 48, "duration": 17, "velocity": 96}, {"time": 2135, "pitch": 60, "duration": 8, "velocity": 73}, {"time": 2135, "pitch": 64, "duration": 12, "velocity": 87}, {"time": 2141, "pitch": 55, "duration": 12, "velocity": 69}, {"time": 2147, "pitch": 60, "duration": 8, "velocity": 106}, {"time": 2159, "pitch": 50, "duration": 13, "velocity": 106}, {"time": 2159, "pitch": 62, "duration": 8, "velocity": 99}, {"time": 2165, "pitch": 57, "duration": 7, "velocity": 89}, {"time": 2171, "pitch": 62, "duration": 4, "velocity": 101}, {"time": 2171, "pitch": 66, "duration": 3, "velocity": 96}, {"time": 2183, "pitch": 43, "duration": 40, "velocity": 91}, {"time": 2183, "pitch": 55, "duration": 7, "velocity": 66}, {"time": 2183, "pitch": 62, "duration": 8, "velocity": 96}, {"time": 2189, "pitch": 50, "duration": 8, "velocity": 54}, {"time": 2195, "pitch": 55, "duration": 8, "velocity": 76}, {"time": 2195, "pitch": 60, "duration": 10, "velocity": 58}, {"time": 2201, "pitch": 50, "duration": 8, "velocity": 78}, {"time": 2207, "pitch": 55, "duration": 6, "velocity": 61}, {"time": 2207, "pitch": 59, "duration": 13, "velocity": 104}, {"time": 2213, "pitch": 50, "duration": 9, "velocity": 82}, {"time": 2219, "pitch": 55, "duration": 7, "velocity": 104}, {"time": 2225, "pitch": 57, "duration": 7, "velocity": 101}, {"time": 2231, "pitch": 47, "duration": 21, "velocity": 96}, {"time": 2231, "pitch": 59, "duration": 11, "velocity": 96}, {"time": 2237, "pitch": 54, "duration": 8, "velocity": 63}, {"time": 2243, "pitch": 64, "duration": 5, "velocity": 104}, {"time": 2249, "pitch": 54, "duration": 6, "velocity": 70}, {"time": 2255, "pitch": 47, "duration": 22, "velocity": 89}, {"time": 2255, "pitch": 59, "duration": 13, "velocity": 94}, {"time": 2255, "pitch": 63, "duration": 13, "velocity": 96}, {"time": 2261, "pitch": 54, "duration": 11, "velocity": 28}, {"time": 2267, "pitch": 66, "duration": 12, "velocity": 113}, {"time": 2279, "pitch": 52, "duration": 40, "velocity": 99}, {"time": 2279, "pitch": 64, "duration": 14, "velocity": 99}, {"time": 2285, "pitch": 55, "duration": 33, "velocity": 64}, {"time": 2291, "pitch": 67, "duration": 17, "velocity": 106}, {"time": 2297, "pitch": 59, "duration": 5, "velocity": 64}, {"time": 2300, "pitch": 64, "duration": 8, "velocity": 1}, {"time": 2303, "pitch": 71, "duration": 11, "velocity": 89}, {"time": 2309, "pitch": 59, "duration": 7, "velocity": 87}, {"time": 2315, "pitch": 64, "duration": 7, "velocity": 104}, {"time": 2315, "pitch": 67, "duration": 7, "velocity": 106}, {"time": 2321, "pitch": 59, "duration": 3, "velocity": 101}, {"time": 2327, "pitch": 45, "duration": 43, "velocity": 101}, {"time": 2327, "pitch": 60, "duration": 16, "velocity": 94}, {"time": 2333, "pitch": 52, "duration": 7, "velocity": 67}, {"time": 2339, "pitch": 57, "duration": 21, "velocity": 106}, {"time": 2345, "pitch": 52, "duration": 9, "velocity": 62}, {"time": 2351, "pitch": 64, "duration": 14, "velocity": 99}, {"time": 2357, "pitch": 52, "duration": 12, "velocity": 76}, {"time": 2363, "pitch": 57, "duration": 7, "velocity": 109}, {"time": 2363, "pitch": 60, "duration": 6, "velocity": 106}, {"time": 2375, "pitch": 50, "duration": 39, "velocity": 96}, {"time": 2375, "pitch": 57, "duration": 3, "velocity": 91}, {"time": 2375, "pitch": 62, "duration": 13, "velocity": 99}, {"time": 2381, "pitch": 57, "duration": 7, "velocity": 87}, {"time": 2387, "pitch": 64, "duration": 7, "velocity": 101}, {"time": 2393, "pitch": 62, "duration": 7, "velocity": 99}, {"time": 2399, "pitch": 66, "duration": 7, "velocity": 110}, {"time": 2405, "pitch": 57, "duration": 7, "velocity": 89}, {"time": 2411, "pitch": 62, "duration": 11, "velocity": 109}, {"time": 2423, "pitch": 43, "duration": 18, "velocity": 94}, {"time": 2423, "pitch": 55, "duration": 11, "velocity": 78}, {"time": 2423, "pitch": 59, "duration": 8, "velocity": 89}, {"time": 2429, "pitch": 50, "duration": 10, "velocity": 69}, {"time": 2435, "pitch": 59, "duration": 3, "velocity": 96}, {"time": 2435, "pitch": 62, "duration": 4, "velocity": 104}, {"time": 2447, "pitch": 48, "duration": 15, "velocity": 94}, {"time": 2447, "pitch": 55, "duration": 7, "velocity": 71}, {"time": 2447, "pitch": 60, "duration": 13, "velocity": 85}, {"time": 2453, "pitch": 52, "duration": 9, "velocity": 76}, {"time": 2459, "pitch": 55, "duration": 5, "velocity": 109}, {"time": 2471, "pitch": 50, "duration": 14, "velocity": 96}, {"time": 2471, "pitch": 57, "duration": 10, "velocity": 94}, {"time": 2471, "pitch": 62, "duration": 13, "velocity": 101}, {"time": 2483, "pitch": 66, "duration": 7, "velocity": 113}, {"time": 2489, "pitch": 57, "duration": 2, "velocity": 99}, {"time": 2495, "pitch": 43, "duration": 19, "velocity": 82}, {"time": 2495, "pitch": 55, "duration": 12, "velocity": 76}, {"time": 2495, "pitch": 59, "duration": 9, "velocity": 76}, {"time": 2501, "pitch": 50, "duration": 12, "velocity": 42}, {"time": 2507, "pitch": 62, "duration": 6, "velocity": 106}, {"time": 2513, "pitch": 55, "duration": 7, "velocity": 109}, {"time": 2519, "pitch": 48, "duration": 17, "velocity": 89}, {"time": 2519, "pitch": 60, "duration": 13, "velocity": 94}, {"time": 2525, "pitch": 52, "duration": 11, "velocity": 64}, {"time": 2531, "pitch": 64, "duration": 14, "velocity": 96}, {"time": 2537, "pitch": 55, "duration": 5, "velocity": 89}, {"time": 2543, "pitch": 50, "duration": 16, "velocity": 101}, {"time": 2543, "pitch": 62, "duration": 6, "velocity": 104}, {"time": 2549, "pitch": 57, "duration": 7, "velocity": 96}, {"time": 2555, "pitch": 66, "duration": 7, "velocity": 113}, {"time": 2561, "pitch": 57, "duration": 2, "velocity": 112}, {"time": 2567, "pitch": 43, "duration": 42, "velocity": 94}, {"time": 2567, "pitch": 59, "duration": 12, "velocity": 87}, {"time": 2573, "pitch": 50, "duration": 7, "velocity": 74}, {"time": 2579, "pitch": 55, "duration": 9, "velocity": 96}, {"time": 2585, "pitch": 50, "duration": 8, "velocity": 82}, {"time": 2591, "pitch": 59, "duration": 13, "velocity": 99}, {"time": 2597, "pitch": 50, "duration": 9, "velocity": 71}, {"time": 2603, "pitch": 55, "duration": 5, "velocity": 106}, {"time": 2609, "pitch": 57, "duration": 6, "velocity": 112}, {"time": 2615, "pitch": 47, "duration": 46, "velocity": 101}, {"time": 2615, "pitch": 59, "duration": 13, "velocity": 94}, {"time": 2621, "pitch": 54, "duration": 7, "velocity": 70}, {"time": 2627, "pitch": 64, "duration": 5, "velocity": 101}, {"time": 2633, "pitch": 54, "duration": 6, "velocity": 81}, {"time": 2639, "pitch": 51, "duration": 18, "velocity": 79}, {"time": 2639, "pitch": 59, "duration": 9, "velocity": 101}, {"time": 2639, "pitch": 63, "duration": 10, "velocity": 104}, {"time": 2645, "pitch": 54, "duration": 12, "velocity": 81}, {"time": 2651, "pitch": 59, "duration": 4, "velocity": 104}, {"time": 2651, "pitch": 66, "duration": 12, "velocity": 107}, {"time": 2657, "pitch": 59, "duration": 5, "velocity": 82}, {"time": 2663, "pitch": 52, "duration": 36, "velocity": 91}, {"time": 2663, "pitch": 64, "duration": 13, "velocity": 96}, {"time": 2669, "pitch": 55, "duration": 30, "velocity": 56}, {"time": 2675, "pitch": 67, "duration": 8, "velocity": 101}, {"time": 2681, "pitch": 59, "duration": 8, "velocity": 96}, {"time": 2687, "pitch": 67, "duration": 12, "velocity": 104}, {"time": 2693, "pitch": 59, "duration": 5, "velocity": 76}, {"time": 2699, "pitch": 59, "duration": 3, "velocity": 96}, {"time": 2699, "pitch": 64, "duration": 7, "velocity": 99}, {"time": 2705, "pitch": 59, "duration": 3, "velocity": 96}, {"time": 2711, "pitch": 45, "duration": 40, "velocity": 96}, {"time": 2711, "pitch": 60, "duration": 14, "velocity": 78}, {"time": 2717, "pitch": 52, "duration": 8, "velocity": 69}, {"time": 2723, "pitch": 57, "duration": 13, "velocity": 112}, {"time": 2729, "pitch": 52, "duration": 8, "velocity": 78}, {"time": 2735, "pitch": 60, "duration": 9, "velocity": 91}, {"time": 2741, "pitch": 52, "duration": 9, "velocity": 56}, {"time": 2747, "pitch": 57, "duration": 4, "velocity": 109}, {"time": 2747, "pitch": 60, "duration": 5, "velocity": 109}, {"time": 2747, "pitch": 64, "duration": 6, "velocity": 104}, {"time": 2759, "pitch": 50, "duration": 44, "velocity": 104}, {"time": 2759, "pitch": 57, "duration": 4, "velocity": 99}, {"time": 2759, "pitch": 62, "duration": 14, "velocity": 101}, {"time": 2765, "pitch": 57, "duration": 8, "velocity": 89}, {"time": 2771, "pitch": 66, "duration": 7, "velocity": 110}, {"time": 2777, "pitch": 57, "duration": 7, "velocity": 87}, {"time": 2783, "pitch": 64, "duration": 7, "velocity": 91}, {"time": 2789, "pitch": 57, "duration": 6, "velocity": 67}, {"time": 2795, "pitch": 62, "duration": 7, "velocity": 104}, {"time": 2801, "pitch": 57, "duration": 3, "velocity": 112}, {"time": 2807, "pitch": 43, "duration": 39, "velocity": 101}, {"time": 2807, "pitch": 55, "duration": 12, "velocity": 94}, {"time": 2807, "pitch": 59, "duration": 7, "velocity": 96}, {"time": 2813, "pitch": 50, "duration": 8, "velocity": 69}, {"time": 2819, "pitch": 59, "duration": 7, "velocity": 89}, {"time": 2819, "pitch": 62, "duration": 7, "velocity": 101}, {"time": 2825, "pitch": 50, "duration": 8, "velocity": 44}, {"time": 2831, "pitch": 55, "duration": 9, "velocity": 91}, {"time": 2831, "pitch": 59, "duration": 10, "velocity": 99}, {"time": 2837, "pitch": 50, "duration": 15, "velocity": 40}, {"time": 2843, "pitch": 55, "duration": 3, "velocity": 106}, {"time": 2843, "pitch": 59, "duration": 3, "velocity": 109}, {"time": 2855, "pitch": 42, "duration": 14, "velocity": 101}, {"time": 2855, "pitch": 57, "duration": 8, "velocity": 112}, {"time": 2855, "pitch": 64, "duration": 9, "velocity": 104}, {"time": 2867, "pitch": 57, "duration": 6, "velocity": 101}, {"time": 2867, "pitch": 64, "duration": 11, "velocity": 101}, {"time": 2873, "pitch": 54, "duration": 2, "velocity": 113}, {"time": 2879, "pitch": 47, "duration": 15, "velocity": 104}, {"time": 2879, "pitch": 59, "duration": 9, "velocity": 99}, {"time": 2879, "pitch": 63, "duration": 6, "velocity": 96}, {"time": 2885, "pitch": 54, "duration": 7, "velocity": 96}, {"time": 2891, "pitch": 66, "duration": 7, "velocity": 120}, {"time": 2897, "pitch": 59, "duration": 5, "velocity": 109}, {"time": 2903, "pitch": 40, "duration": 39, "velocity": 101}, {"time": 2903, "pitch": 64, "duration": 7, "velocity": 94}, {"time": 2909, "pitch": 59, "duration": 8, "velocity": 94}, {"time": 2915, "pitch": 64, "duration": 8, "velocity": 112}, {"time": 2915, "pitch": 67, "duration": 8, "velocity": 106}, {"time": 2921, "pitch": 59, "duration": 7, "velocity": 91}, {"time": 2927, "pitch": 64, "duration": 9, "velocity": 101}, {"time": 2927, "pitch": 67, "duration": 9, "velocity": 101}, {"time": 2933, "pitch": 59, "duration": 5, "velocity": 58}, {"time": 2939, "pitch": 64, "duration": 5, "velocity": 106}, {"time": 2939, "pitch": 67, "duration": 9, "velocity": 109}, {"time": 2945, "pitch": 59, "duration": 3, "velocity": 76}, {"time": 2951, "pitch": 47, "duration": 38, "velocity": 85}, {"time": 2951, "pitch": 57, "duration": 5, "velocity": 101}, {"time": 2951, "pitch": 62, "duration": 9, "velocity": 106}, {"time": 2951, "pitch": 66, "duration": 10, "velocity": 96}, {"time": 2963, "pitch": 57, "duration": 3, "velocity": 109}, {"time": 2963, "pitch": 62, "duration": 10, "velocity": 112}, {"time": 2963, "pitch": 66, "duration": 22, "velocity": 113}, {"time": 2969, "pitch": 57, "duration": 7, "velocity": 73}, {"time": 2975, "pitch": 62, "duration": 9, "velocity": 96}, {"time": 2981, "pitch": 57, "duration": 6, "velocity": 44}, {"time": 2987, "pitch": 62, "duration": 6, "velocity": 106}, {"time": 2987, "pitch": 66, "duration": 6, "velocity": 117}, {"time": 2993, "pitch": 57, "duration": 2, "velocity": 96}, {"time": 2999, "pitch": 48, "duration": 43, "velocity": 94}, {"time": 2999, "pitch": 55, "duration": 3, "velocity": 96}, {"time": 2999, "pitch": 60, "duration": 8, "velocity": 94}, {"time": 3011, "pitch": 60, "duration": 6, "velocity": 26}, {"time": 3011, "pitch": 64, "duration": 8, "velocity": 99}, {"time": 3023, "pitch": 55, "duration": 3, "velocity": 94}, {"time": 3023, "pitch": 60, "duration": 7, "velocity": 99}, {"time": 3029, "pitch": 55, "duration": 3, "velocity": 74}, {"time": 3035, "pitch": 47, "duration": 9, "velocity": 99}, {"time": 3035, "pitch": 57, "duration": 9, "velocity": 106}, {"time": 3035, "pitch": 62, "duration": 7, "velocity": 106}, {"time": 3047, "pitch": 45, "duration": 22, "velocity": 106}, {"time": 3047, "pitch": 57, "duration": 9, "velocity": 99}, {"time": 3047, "pitch": 60, "duration": 8, "velocity": 96}, {"time": 3053, "pitch": 52, "duration": 13, "velocity": 61}, {"time": 3059, "pitch": 57, "duration": 7, "velocity": 115}, {"time": 3065, "pitch": 60, "duration": 5, "velocity": 112}, {"time": 3071, "pitch": 50, "duration": 15, "velocity": 104}, {"time": 3071, "pitch": 57, "duration": 5, "velocity": 106}, {"time": 3071, "pitch": 62, "duration": 5, "velocity": 109}, {"time": 3077, "pitch": 54, "duration": 11, "velocity": 107}, {"time": 3083, "pitch": 57, "duration": 3, "velocity": 112}, {"time": 3083, "pitch": 66, "duration": 8, "velocity": 117}, {"time": 3089, "pitch": 57, "duration": 4, "velocity": 115}, {"time": 3095, "pitch": 43, "duration": 38, "velocity": 104}, {"time": 3095, "pitch": 55, "duration": 13, "velocity": 104}, {"time": 3095, "pitch": 59, "duration": 7, "velocity": 99}, {"time": 3101, "pitch": 50, "duration": 8, "velocity": 55}, {"time": 3107, "pitch": 59, "duration": 5, "velocity": 99}, {"time": 3107, "pitch": 62, "duration": 6, "velocity": 106}, {"time": 3113, "pitch": 50, "duration": 8, "velocity": 62}, {"time": 3119, "pitch": 59, "duration": 7, "velocity": 106}, {"time": 3119, "pitch": 62, "duration": 8, "velocity": 106}, {"time": 3125, "pitch": 50, "duration": 9, "velocity": 61}, {"time": 3131, "pitch": 55, "duration": 3, "velocity": 106}, {"time": 3131, "pitch": 59, "duration": 2, "velocity": 112}, {"time": 3131, "pitch": 62, "duration": 3, "velocity": 109}, {"time": 3143, "pitch": 42, "duration": 16, "velocity": 107}, {"time": 3143, "pitch": 54, "duration": 4, "velocity": 83}, {"time": 3143, "pitch": 57, "duration": 9, "velocity": 104}, {"time": 3143, "pitch": 64, "duration": 8, "velocity": 94}, {"time": 3149, "pitch": 54, "duration": 4, "velocity": 74}, {"time": 3155, "pitch": 54, "duration": 2, "velocity": 101}, {"time": 3155, "pitch": 57, "duration": 6, "velocity": 106}, {"time": 3155, "pitch": 64, "duration": 12, "velocity": 106}, {"time": 3161, "pitch": 54, "duration": 3, "velocity": 120}, {"time": 3167, "pitch": 47, "duration": 14, "velocity": 104}, {"time": 3167, "pitch": 63, "duration": 7, "velocity": 117}, {"time": 3173, "pitch": 54, "duration": 9, "velocity": 91}, {"time": 3179, "pitch": 59, "duration": 4, "velocity": 104}, {"time": 3179, "pitch": 63, "duration": 5, "velocity": 113}, {"time": 3185, "pitch": 59, "duration": 6, "velocity": 82}, {"time": 3191, "pitch": 40, "duration": 38, "velocity": 99}, {"time": 3191, "pitch": 59, "duration": 3, "velocity": 99}, {"time": 3191, "pitch": 64, "duration": 7, "velocity": 101}, {"time": 3197, "pitch": 59, "duration": 4, "velocity": 91}, {"time": 3203, "pitch": 64, "duration": 9, "velocity": 112}, {"time": 3203, "pitch": 67, "duration": 9, "velocity": 109}, {"time": 3209, "pitch": 59, "duration": 8, "velocity": 101}, {"time": 3215, "pitch": 64, "duration": 8, "velocity": 101}, {"time": 3215, "pitch": 67, "duration": 8, "velocity": 101}, {"time": 3221, "pitch": 59, "duration": 3, "velocity": 85}, {"time": 3227, "pitch": 59, "duration": 3, "velocity": 106}, {"time": 3227, "pitch": 64, "duration": 7, "velocity": 112}, {"time": 3227, "pitch": 67, "duration": 8, "velocity": 104}, {"time": 3233, "pitch": 59, "duration": 3, "velocity": 94}, {"time": 3239, "pitch": 47, "duration": 39, "velocity": 99}, {"time": 3239, "pitch": 59, "duration": 3, "velocity": 74}, {"time": 3239, "pitch": 62, "duration": 10, "velocity": 99}, {"time": 3245, "pitch": 57, "duration": 8, "velocity": 101}, {"time": 3251, "pitch": 62, "duration": 8, "velocity": 104}, {"time": 3251, "pitch": 66, "duration": 9, "velocity": 113}, {"time": 3257, "pitch": 54, "duration": 8, "velocity": 38}, {"time": 3263, "pitch": 62, "duration": 6, "velocity": 99}, {"time": 3263, "pitch": 66, "duration": 7, "velocity": 99}, {"time": 3269, "pitch": 54, "duration": 7, "velocity": 30}, {"time": 3275, "pitch": 57, "duration": 3, "velocity": 109}, {"time": 3275, "pitch": 62, "duration": 7, "velocity": 109}, {"time": 3275, "pitch": 66, "duration": 7, "velocity": 113}, {"time": 3281, "pitch": 57, "duration": 3, "velocity": 101}, {"time": 3287, "pitch": 48, "duration": 43, "velocity": 99}, {"time": 3287, "pitch": 55, "duration": 3, "velocity": 96}, {"time": 3287, "pitch": 60, "duration": 7, "velocity": 96}, {"time": 3293, "pitch": 55, "duration": 7, "velocity": 89}, {"time": 3299, "pitch": 60, "duration": 7, "velocity": 109}, {"time": 3305, "pitch": 55, "duration": 7, "velocity": 96}, {"time": 3311, "pitch": 62, "duration": 8, "velocity": 112}, {"time": 3317, "pitch": 55, "duration": 4, "velocity": 62}, {"time": 3323, "pitch": 55, "duration": 7, "velocity": 106}, {"time": 3323, "pitch": 60, "duration": 7, "velocity": 104}, {"time": 3329, "pitch": 59, "duration": 5, "velocity": 109}, {"time": 3335, "pitch": 45, "duration": 19, "velocity": 96}, {"time": 3335, "pitch": 57, "duration": 6, "velocity": 101}, {"time": 3335, "pitch": 60, "duration": 13, "velocity": 91}, {"time": 3341, "pitch": 52, "duration": 13, "velocity": 96}, {"time": 3347, "pitch": 55, "duration": 7, "velocity": 112}, {"time": 3353, "pitch": 60, "duration": 7, "velocity": 109}, {"time": 3359, "pitch": 50, "duration": 24, "velocity": 94}, {"time": 3359, "pitch": 57, "duration": 24, "velocity": 101}, {"time": 3359, "pitch": 62, "duration": 24, "velocity": 99}, {"time": 3383, "pitch": 48, "duration": 21, "velocity": 99}, {"time": 3383, "pitch": 55, "duration": 7, "velocity": 104}, {"time": 3383, "pitch": 60, "duration": 8, "velocity": 101}, {"time": 3389, "pitch": 52, "duration": 14, "velocity": 67}, {"time": 3395, "pitch": 55, "duration": 3, "velocity": 109}, {"time": 3395, "pitch": 60, "duration": 5, "velocity": 112}, {"time": 3395, "pitch": 64, "duration": 8, "velocity": 112}, {"time": 3401, "pitch": 55, "duration": 4, "velocity": 104}, {"time": 3401, "pitch": 60, "duration": 5, "velocity": 99}, {"time": 3407, "pitch": 47, "duration": 19, "velocity": 104}, {"time": 3407, "pitch": 59, "duration": 4, "velocity": 96}, {"time": 3407, "pitch": 62, "duration": 4, "velocity": 106}, {"time": 3413, "pitch": 59, "duration": 4, "velocity": 85}, {"time": 3413, "pitch": 62, "duration": 4, "velocity": 99}, {"time": 3419, "pitch": 59, "duration": 4, "velocity": 115}, {"time": 3419, "pitch": 62, "duration": 4, "velocity": 118}, {"time": 3425, "pitch": 59, "duration": 3, "velocity": 87}, {"time": 3425, "pitch": 62, "duration": 2, "velocity": 94}, {"time": 3431, "pitch": 45, "duration": 21, "velocity": 109}, {"time": 3431, "pitch": 57, "duration": 4, "velocity": 104}, {"time": 3431, "pitch": 60, "duration": 4, "velocity": 106}, {"time": 3443, "pitch": 57, "duration": 3, "velocity": 112}, {"time": 3443, "pitch": 60, "duration": 3, "velocity": 112}, {"time": 3449, "pitch": 57, "duration": 3, "velocity": 99}, {"time": 3449, "pitch": 60, "duration": 4, "velocity": 101}, {"time": 3455, "pitch": 50, "duration": 11, "velocity": 118}, {"time": 3455, "pitch": 57, "duration": 4, "velocity": 115}, {"time": 3455, "pitch": 62, "duration": 5, "velocity": 115}, {"time": 3461, "pitch": 57, "duration": 4, "velocity": 109}, {"time": 3461, "pitch": 62, "duration": 4, "velocity": 109}, {"time": 3467, "pitch": 40, "duration": 12, "velocity": 106}, {"time": 3467, "pitch": 59, "duration": 9, "velocity": 106}, {"time": 3467, "pitch": 64, "duration": 9, "velocity": 104}, {"time": 3473, "pitch": 47, "duration": 6, "velocity": 99}, {"time": 3479, "pitch": 45, "duration": 39, "velocity": 101}, {"time": 3479, "pitch": 57, "duration": 12, "velocity": 94}, {"time": 3479, "pitch": 61, "duration": 7, "velocity": 96}, {"time": 3485, "pitch": 52, "duration": 8, "velocity": 69}, {"time": 3491, "pitch": 61, "duration": 7, "velocity": 89}, {"time": 3491, "pitch": 64, "duration": 7, "velocity": 101}, {"time": 3497, "pitch": 52, "duration": 8, "velocity": 44}, {"time": 3503, "pitch": 57, "duration": 9, "velocity": 91}, {"time": 3503, "pitch": 61, "duration": 10, "velocity": 99}, {"time": 3509, "pitch": 52, "duration": 15, "velocity": 40}, {"time": 3515, "pitch": 57, "duration": 3, "velocity": 106}, {"time": 3515, "pitch": 61, "duration": 3, "velocity": 109}, {"time": 3527, "pitch": 44, "duration": 14, "velocity": 101}, {"time": 3527, "pitch": 59, "duration": 8, "velocity": 112}, {"time": 3527, "pitch": 66, "duration": 9, "velocity": 104}, {"time": 3539, "pitch": 59, "duration": 6, "velocity": 101}, {"time": 3539, "pitch": 66, "duration": 11, "velocity": 101}, {"time": 3545, "pitch": 56, "duration": 2, "velocity": 113}, {"time": 3551, "pitch": 49, "duration": 15, "velocity": 104}, {"time": 3551, "pitch": 61, "duration": 9, "velocity": 99}, {"time": 3551, "pitch": 65, "duration": 6, "velocity": 96}, {"time": 3557, "pitch": 56, "duration": 7, "velocity": 96}, {"time": 3563, "pitch": 68, "duration": 7, "velocity": 120}, {"time": 3569, "pitch": 61, "duration": 5, "velocity": 109}, {"time": 3575, "pitch": 42, "duration": 39, "velocity": 101}, {"time": 3575, "pitch": 66, "duration": 7, "velocity": 94}, {"time": 3581, "pitch": 61, "duration": 8, "velocity": 94}, {"time": 3587, "pitch": 66, "duration": 8, "velocity": 112}, {"time": 3587, "pitch": 69, "duration": 8, "velocity": 106}, {"time": 3593, "pitch": 61, "duration": 7, "velocity": 91}, {"time": 3599, "pitch": 66, "duration": 9, "velocity": 101}, {"time": 3599, "pitch": 69, "duration": 9, "velocity": 101}, {"time": 3605, "pitch": 61, "duration": 5, "velocity": 58}, {"time": 3611, "pitch": 66, "duration": 5, "velocity": 106}, {"time": 3611, "pitch": 69, "duration": 9, "velocity": 109}, {"time": 3617, "pitch": 61, "duration": 3, "velocity": 76}, {"time": 3623, "pitch": 49, "duration": 38, "velocity": 85}, {"time": 3623, "pitch": 59, "duration": 5, "velocity": 101}, {"time": 3623, "pitch": 64, "duration": 9, "velocity": 106}, {"time": 3623, "pitch": 68, "duration": 10, "velocity": 96}, {"time": 3635, "pitch": 59, "duration": 3, "velocity": 109}, {"time": 3635, "pitch": 64, "duration": 10, "velocity": 112}, {"time": 3635, "pitch": 68, "duration": 22, "velocity": 113}, {"time": 3641, "pitch": 59, "duration": 7, "velocity": 73}, {"time": 3647, "pitch": 64, "duration": 9, "velocity": 96}, {"time": 3653, "pitch": 59, "duration": 6, "velocity": 44}, {"time": 3659, "pitch": 64, "duration": 6, "velocity": 106}, {"time": 3659, "pitch": 68, "duration": 6, "velocity": 117}, {"time": 3665, "pitch": 59, "duration": 2, "velocity": 96}, {"time": 3671, "pitch": 50, "duration": 43, "velocity": 94}, {"time": 3671, "pitch": 57, "duration": 3, "velocity": 96}, {"time": 3671, "pitch": 62, "duration": 8, "velocity": 94}, {"time": 3683, "pitch": 62, "duration": 6, "velocity": 26}, {"time": 3683, "pitch": 66, "duration": 8, "velocity": 99}, {"time": 3695, "pitch": 57, "duration": 3, "velocity": 94}, {"time": 3695, "pitch": 62, "duration": 7, "velocity": 99}, {"time": 3701, "pitch": 57, "duration": 3, "velocity": 74}, {"time": 3707, "pitch": 49, "duration": 9, "velocity": 99}, {"time": 3707, "pitch": 59, "duration": 9, "velocity": 106}, {"time": 3707, "pitch": 64, "duration": 7, "velocity": 106}, {"time": 3719, "pitch": 47, "duration": 22, "velocity": 106}, {"time": 3719, "pitch": 59, "duration": 9, "velocity": 99}, {"time": 3719, "pitch": 62, "duration": 8, "velocity": 96}, {"time": 3725, "pitch": 54, "duration": 13, "velocity": 61}, {"time": 3731, "pitch": 59, "duration": 7, "velocity": 115}, {"time": 3737, "pitch": 62, "duration": 5, "velocity": 112}, {"time": 3743, "pitch": 52, "duration": 15, "velocity": 104}, {"time": 3743, "pitch": 59, "duration": 5, "velocity": 106}, {"time": 3743, "pitch": 64, "duration": 5, "velocity": 109}, {"time": 3749, "pitch": 56, "duration": 11, "velocity": 107}, {"time": 3755, "pitch": 59, "duration": 3, "velocity": 112}, {"time": 3755, "pitch": 68, "duration": 8, "velocity": 117}, {"time": 3761, "pitch": 59, "duration": 4, "velocity": 115}, {"time": 3767, "pitch": 45, "duration": 38, "velocity": 104}, {"time": 3767, "pitch": 57, "duration": 13, "velocity": 104}, {"time": 3767, "pitch": 61, "duration": 7, "velocity": 99}, {"time": 3773, "pitch": 52, "duration": 8, "velocity": 55}, {"time": 3779, "pitch": 61, "duration": 5, "velocity": 99}, {"time": 3779, "pitch": 64, "duration": 6, "velocity": 106}, {"time": 3785, "pitch": 52, "duration": 8, "velocity": 62}, {"time": 3791, "pitch": 61, "duration": 7, "velocity": 106}, {"time": 3791, "pitch": 64, "duration": 8, "velocity": 106}, {"time": 3797, "pitch": 52, "duration": 9, "velocity": 61}, {"time": 3803, "pitch": 57, "duration": 3, "velocity": 106}, {"time": 3803, "pitch": 61, "duration": 2, "velocity": 112}, {"time": 3803, "pitch": 64, "duration": 3, "velocity": 109}, {"time": 3815, "pitch": 44, "duration": 16, "velocity": 107}, {"time": 3815, "pitch": 56, "duration": 4, "velocity": 83}, {"time": 3815, "pitch": 59, "duration": 9, "velocity": 104}, {"time": 3815, "pitch": 66, "duration": 8, "velocity": 94}, {"time": 3821, "pitch": 56, "duration": 4, "velocity": 74}, {"time": 3827, "pitch": 56, "duration": 2, "velocity": 101}, {"time": 3827, "pitch": 59, "duration": 6, "velocity": 106}, {"time": 3827, "pitch": 66, "duration": 12, "velocity": 106}, {"time": 3833, "pitch": 56, "duration": 3, "velocity": 120}, {"time": 3839, "pitch": 49, "duration": 14, "velocity": 104}, {"time": 3839, "pitch": 65, "duration": 7, "velocity": 117}, {"time": 3845, "pitch": 56, "duration": 9, "velocity": 91}, {"time": 3851, "pitch": 61, "duration": 4, "velocity": 104}, {"time": 3851, "pitch": 65, "duration": 5, "velocity": 113}, {"time": 3857, "pitch": 61, "duration": 6, "velocity": 82}, {"time": 3863, "pitch": 42, "duration": 38, "velocity": 99}, {"time": 3863, "pitch": 61, "duration": 3, "velocity": 99}, {"time": 3863, "pitch": 66, "duration": 7, "velocity": 101}, {"time": 3869, "pitch": 61, "duration": 4, "velocity": 91}, {"time": 3875, "pitch": 66, "duration": 9, "velocity": 112}, {"time": 3875, "pitch": 69, "duration": 9, "velocity": 109}, {"time": 3881, "pitch": 61, "duration": 8, "velocity": 101}, {"time": 3887, "pitch": 66, "duration": 8, "velocity": 101}, {"time": 3887, "pitch": 69, "duration": 8, "velocity": 101}, {"time": 3893, "pitch": 61, "duration": 3, "velocity": 85}, {"time": 3899, "pitch": 61, "duration": 3, "velocity": 106}, {"time": 3899, "pitch": 66, "duration": 7, "velocity": 112}, {"time": 3899, "pitch": 69, "duration": 8, "velocity": 104}, {"time": 3905, "pitch": 61, "duration": 3, "velocity": 94}, {"time": 3911, "pitch": 49, "duration": 39, "velocity": 99}, {"time": 3911, "pitch": 61, "duration": 3, "velocity": 74}, {"time": 3911, "pitch": 64, "duration": 10, "velocity": 99}, {"time": 3917, "pitch": 59, "duration": 8, "velocity": 101}, {"time": 3923, "pitch": 64, "duration": 8, "velocity": 104}, {"time": 3923, "pitch": 68, "duration": 9, "velocity": 113}, {"time": 3929, "pitch": 56, "duration": 8, "velocity": 38}, {"time": 3935, "pitch": 64, "duration": 6, "velocity": 99}, {"time": 3935, "pitch": 68, "duration": 7, "velocity": 99}, {"time": 3941, "pitch": 56, "duration": 7, "velocity": 30}, {"time": 3947, "pitch": 59, "duration": 3, "velocity": 109}, {"time": 3947, "pitch": 64, "duration": 7, "velocity": 109}, {"time": 3947, "pitch": 68, "duration": 7, "velocity": 113}, {"time": 3953, "pitch": 59, "duration": 3, "velocity": 101}, {"time": 3959, "pitch": 50, "duration": 43, "velocity": 99}, {"time": 3959, "pitch": 57, "duration": 3, "velocity": 96}, {"time": 3959, "pitch": 62, "duration": 7, "velocity": 96}, {"time": 3965, "pitch": 57, "duration": 7, "velocity": 89}, {"time": 3971, "pitch": 62, "duration": 7, "velocity": 109}, {"time": 3977, "pitch": 57, "duration": 7, "velocity": 96}, {"time": 3983, "pitch": 64, "duration": 8, "velocity": 112}, {"time": 3989, "pitch": 57, "duration": 4, "velocity": 62}, {"time": 3995, "pitch": 57, "duration": 7, "velocity": 106}, {"time": 3995, "pitch": 62, "duration": 7, "velocity": 104}, {"time": 4001, "pitch": 61, "duration": 5, "velocity": 109}, {"time": 4007, "pitch": 47, "duration": 19, "velocity": 96}, {"time": 4007, "pitch": 59, "duration": 6, "velocity": 101}, {"time": 4007, "pitch": 62, "duration": 13, "velocity": 91}, {"time": 4013, "pitch": 54, "duration": 13, "velocity": 96}, {"time": 4019, "pitch": 57, "duration": 7, "velocity": 112}, {"time": 4025, "pitch": 62, "duration": 7, "velocity": 109}, {"time": 4031, "pitch": 52, "duration": 24, "velocity": 94}, {"time": 4031, "pitch": 59, "duration": 24, "velocity": 101}, {"time": 4031, "pitch": 64, "duration": 24, "velocity": 99}, {"time": 4055, "pitch": 45, "duration": 44, "velocity": 99}, {"time": 4061, "pitch": 57, "duration": 8, "velocity": 91}, {"time": 4067, "pitch": 52, "duration": 14, "velocity": 28}, {"time": 4067, "pitch": 59, "duration": 7, "velocity": 106}, {"time": 4073, "pitch": 61, "duration": 7, "velocity": 101}, {"time": 4079, "pitch": 64, "duration": 39, "velocity": 101}, {"time": 4085, "pitch": 52, "duration": 13, "velocity": 31}, {"time": 4091, "pitch": 61, "duration": 14, "velocity": 65}, {"time": 4097, "pitch": 57, "duration": 7, "velocity": 91}, {"time": 4103, "pitch": 41, "duration": 40, "velocity": 96}, {"time": 4109, "pitch": 57, "duration": 7, "velocity": 96}, {"time": 4115, "pitch": 62, "duration": 6, "velocity": 101}, {"time": 4121, "pitch": 57, "duration": 8, "velocity": 85}, {"time": 4127, "pitch": 69, "duration": 20, "velocity": 104}, {"time": 4133, "pitch": 57, "duration": 11, "velocity": 94}, {"time": 4139, "pitch": 65, "duration": 9, "velocity": 87}, {"time": 4151, "pitch": 45, "duration": 37, "velocity": 87}, {"time": 4151, "pitch": 61, "duration": 13, "velocity": 68}, {"time": 4157, "pitch": 52, "duration": 30, "velocity": 89}, {"time": 4157, "pitch": 57, "duration": 18, "velocity": 87}, {"time": 4163, "pitch": 64, "duration": 28, "velocity": 91}, {"time": 4169, "pitch": 61, "duration": 15, "velocity": 72}, {"time": 4175, "pitch": 69, "duration": 16, "velocity": 89}, {"time": 4181, "pitch": 57, "duration": 9, "velocity": 74}, {"time": 4187, "pitch": 61, "duration": 5, "velocity": 79}, {"time": 4199, "pitch": 42, "duration": 16, "velocity": 49}, {"time": 4199, "pitch": 57, "duration": 14, "velocity": 104}, {"time": 4205, "pitch": 49, "duration": 12, "velocity": 83}, {"time": 4211, "pitch": 54, "duration": 7, "velocity": 110}, {"time": 4217, "pitch": 61, "duration": 19, "velocity": 93}, {"time": 4223, "pitch": 40, "duration": 17, "velocity": 74}, {"time": 4229, "pitch": 56, "duration": 9, "velocity": 72}, {"time": 4235, "pitch": 52, "duration": 7, "velocity": 99}, {"time": 4241, "pitch": 59, "duration": 3, "velocity": 91}, {"time": 4247, "pitch": 62, "duration": 13, "velocity": 104}, {"time": 4247, "pitch": 47, "duration": 16, "velocity": 78}, {"time": 4253, "pitch": 54, "duration": 8, "velocity": 70}, {"time": 4259, "pitch": 59, "duration": 12, "velocity": 96}, {"time": 4265, "pitch": 62, "duration": 7, "velocity": 82}, {"time": 4271, "pitch": 40, "duration": 17, "velocity": 78}, {"time": 4271, "pitch": 64, "duration": 19, "velocity": 89}, {"time": 4277, "pitch": 47, "duration": 9, "velocity": 54}, {"time": 4283, "pitch": 52, "duration": 12, "velocity": 96}, {"time": 4289, "pitch": 56, "duration": 7, "velocity": 113}, {"time": 4294, "pitch": 59, "duration": 4, "velocity": 89}, {"time": 4295, "pitch": 40, "duration": 2, "velocity": 73}, {"time": 4297, "pitch": 64, "duration": 6, "velocity": 104}, {"time": 4303, "pitch": 52, "duration": 30, "velocity": 19}, {"time": 4306, "pitch": 56, "duration": 6, "velocity": 41}, {"time": 4309, "pitch": 59, "duration": 22, "velocity": 78}, {"time": 4313, "pitch": 64, "duration": 33, "velocity": 64}, {"time": 4318, "pitch": 76, "duration": 26, "velocity": 51}, {"time": 4356, "pitch": 45, "duration": 66, "velocity": 76}, {"time": 4358, "pitch": 52, "duration": 12, "velocity": 74}, {"time": 4361, "pitch": 59, "duration": 4, "velocity": 85}, {"time": 4364, "pitch": 61, "duration": 3, "velocity": 99}, {"time": 4367, "pitch": 64, "duration": 3, "velocity": 101}, {"time": 4369, "pitch": 57, "duration": 5, "velocity": 71}, {"time": 4372, "pitch": 52, "duration": 49, "velocity": 59}, {"time": 4376, "pitch": 57, "duration": 1, "velocity": 85}, {"time": 4384, "pitch": 49, "duration": 10, "velocity": 26}, {"time": 4386, "pitch": 69, "duration": 2, "velocity": 38}, {"time": 4387, "pitch": 71, "duration": 2, "velocity": 37}, {"time": 4389, "pitch": 76, "duration": 2, "velocity": 87}, {"time": 4391, "pitch": 73, "duration": 1, "velocity": 49}, {"time": 4392, "pitch": 71, "duration": 1, "velocity": 87}, {"time": 4394, "pitch": 69, "duration": 6, "velocity": 48}, {"time": 4398, "pitch": 81, "duration": 28, "velocity": 80}], "annotations": [{"time": 414, "annotation": {"number": 64, "value": 127}, "group": "control_change"}, {"time": 454, "annotation": {"number": 64, "value": 0}, "group": "control_change"}, {"time": 463, "annotation": {"number": 64, "value": 127}, "group": "control_change"}, {"time": 480, "annotation": {"number": 64, "value": 0}, "group": "control_change"}, {"time": 488, "annotation": {"number": 64, "value": 127}, "group": "control_change"}, {"time": 503, "annotation": {"number": 64, "value": 0}, "group": "control_change"}, {"time": 510, "annotation": {"number": 64, "value": 127}, "group": "control_change"}, {"time": 526, "annotation": {"number": 64, "value": 0}, "group": "control_change"}, {"time": 530, "annotation": {"number": 64, "value": 127}, "group": "control_change"}, {"time": 549, "annotation": {"number": 64, "value": 0}, "group": "control_change"}, {"time": 554, "annotation": {"number": 64, "value": 127}, "group": "control_change"}, {"time": 575, "annotation": {"number": 64, "value": 0}, "group": "control_change"}, {"time": 578, "annotation": {"number": 64, "value": 127}, "group": "control_change"}, {"time": 598, "annotation": {"number": 64, "value": 0}, "group": "control_change"}, {"time": 603, "annotation": {"number": 64, "value": 127}, "group": "control_change"}, {"time": 627, "annotation": {"number": 64, "value": 0}, "group": "control_change"}, {"time": 629, "annotation": {"number": 64, "value": 127}, "group": "control_change"}, {"time": 646, "annotation": {"number": 64, "value": 0}, "group": "control_change"}, {"time": 649, "annotation": {"number": 64, "value": 127}, "group": "control_change"}, {"time": 670, "annotation": {"number": 64, "value": 0}, "group": "control_change"}, {"time": 672, "annotation": {"number": 64, "value": 127}, "group": "control_change"}, {"time": 696, "annotation": {"number": 64, "value": 0}, "group": "control_change"}, {"time": 701, "annotation": {"number": 64, "value": 127}, "group": "control_change"}, {"time": 744, "annotation": {"number": 64, "value": 0}, "group": "control_change"}, {"time": 750, "annotation": {"number": 64, "value": 127}, "group": "control_change"}, {"time": 777, "annotation": {"number": 64, "value": 0}, "group": "control_change"}, {"time": 781, "annotation": {"number": 64, "value": 127}, "group": "control_change"}, {"time": 789, "annotation": {"number": 64, "value": 0}, "group": "control_change"}, {"time": 793, "annotation": {"number": 64, "value": 127}, "group": "control_change"}, {"time": 814, "annotation": {"number": 64, "value": 0}, "group": "control_change"}, {"time": 815, "annotation": {"number": 64, "value": 127}, "group": "control_change"}, {"time": 839, "annotation": {"number": 64, "value": 0}, "group": "control_change"}, {"time": 845, "annotation": {"number": 64, "value": 127}, "group": "control_change"}, {"time": 861, "annotation": {"number": 64, "value": 0}, "group": "control_change"}, {"time": 867, "annotation": {"number": 64, "value": 127}, "group": "control_change"}, {"time": 886, "annotation": {"number": 64, "value": 0}, "group": "control_change"}, {"time": 893, "annotation": {"number": 64, "value": 127}, "group": "control_change"}, {"time": 911, "annotation": {"number": 64, "value": 0}, "group": "control_change"}, {"time": 916, "annotation": {"number": 64, "value": 127}, "group": "control_change"}, {"time": 935, "annotation": {"number": 64, "value": 0}, "group": "control_change"}, {"time": 942, "annotation": {"number": 64, "value": 127}, "group": "control_change"}, {"time": 958, "annotation": {"number": 64, "value": 0}, "group": "control_change"}, {"time": 962, "annotation": {"number": 64, "value": 127}, "group": "control_change"}, {"time": 983, "annotation": {"number": 64, "value": 0}, "group": "control_change"}, {"time": 990, "annotation": {"number": 64, "value": 127}, "group": "control_change"}, {"time": 1017, "annotation": {"number": 64, "value": 0}, "group": "control_change"}, {"time": 1018, "annotation": {"number": 64, "value": 127}, "group": "control_change"}, {"time": 1028, "annotation": {"number": 64, "value": 0}, "group": "control_change"}, {"time": 1032, "annotation": {"number": 64, "value": 127}, "group": "control_change"}, {"time": 1054, "annotation": {"number": 64, "value": 0}, "group": "control_change"}, {"time": 1056, "annotation": {"number": 64, "value": 127}, "group": "control_change"}, {"time": 1078, "annotation": {"number": 64, "value": 0}, "group": "control_change"}, {"time": 1085, "annotation": {"number": 64, "value": 127}, "group": "control_change"}, {"time": 1104, "annotation": {"number": 64, "value": 0}, "group": "control_change"}, {"time": 1109, "annotation": {"number": 64, "value": 127}, "group": "control_change"}, {"time": 1128, "annotation": {"number": 64, "value": 0}, "group": "control_change"}, {"time": 1139, "annotation": {"number": 64, "value": 127}, "group": "control_change"}, {"time": 1173, "annotation": {"number": 64, "value": 0}, "group": "control_change"}, {"time": 1181, "annotation": {"number": 64, "value": 127}, "group": "control_change"}, {"time": 1212, "annotation": {"number": 64, "value": 127}, "group": "control_change"}, {"time": 1219, "annotation": {"number": 64, "value": 0}, "group": "control_change"}, {"time": 1224, "annotation": {"number": 64, "value": 127}, "group": "control_change"}, {"time": 1228, "annotation": {"number": 64, "value": 0}, "group": "control_change"}, {"time": 1259, "annotation": {"number": 64, "value": 0}, "group": "control_change"}, {"time": 1260, "annotation": {"number": 64, "value": 127}, "group": "control_change"}, {"time": 1270, "annotation": {"number": 64, "value": 0}, "group": "control_change"}, {"time": 1274, "annotation": {"number": 64, "value": 127}, "group": "control_change"}, {"time": 1318, "annotation": {"number": 64, "value": 0}, "group": "control_change"}, {"time": 1322, "annotation": {"number": 64, "value": 127}, "group": "control_change"}, {"time": 1343, "annotation": {"number": 64, "value": 0}, "group": "control_change"}, {"time": 1346, "annotation": {"number": 64, "value": 127}, "group": "control_change"}, {"time": 1365, "annotation": {"number": 64, "value": 0}, "group": "control_change"}, {"time": 1367, "annotation": {"number": 64, "value": 127}, "group": "control_change"}, {"time": 1391, "annotation": {"number": 64, "value": 0}, "group": "control_change"}, {"time": 1392, "annotation": {"number": 64, "value": 127}, "group": "control_change"}, {"time": 1415, "annotation": {"number": 64, "value": 0}, "group": "control_change"}, {"time": 1417, "annotation": {"number": 64, "value": 127}, "group": "control_change"}, {"time": 1439, "annotation": {"number": 64, "value": 0}, "group": "control_change"}, {"time": 1440, "annotation": {"number": 64, "value": 127}, "group": "control_change"}, {"time": 1462, "annotation": {"number": 64, "value": 0}, "group": "control_change"}, {"time": 1465, "annotation": {"number": 64, "value": 127}, "group": "control_change"}, {"time": 1486, "annotation": {"number": 64, "value": 0}, "group": "control_change"}, {"time": 1487, "annotation": {"number": 64, "value": 127}, "group": "control_change"}, {"time": 1500, "annotation": {"number": 64, "value": 127}, "group": "control_change"}, {"time": 1509, "annotation": {"number": 64, "value": 0}, "group": "control_change"}, {"time": 1514, "annotation": {"number": 64, "value": 127}, "group": "control_change"}, {"time": 1532, "annotation": {"number": 64, "value": 0}, "group": "control_change"}, {"time": 1535, "annotation": {"number": 64, "value": 127}, "group": "control_change"}, {"time": 1559, "annotation": {"number": 64, "value": 0}, "group": "control_change"}, {"time": 1562, "annotation": {"number": 64, "value": 127}, "group": "control_change"}, {"time": 1607, "annotation": {"number": 64, "value": 0}, "group": "control_change"}, {"time": 1609, "annotation": {"number": 64, "value": 127}, "group": "control_change"}, {"time": 1630, "annotation": {"number": 64, "value": 0}, "group": "control_change"}, {"time": 1632, "annotation": {"number": 64, "value": 127}, "group": "control_change"}, {"time": 1654, "annotation": {"number": 64, "value": 0}, "group": "control_change"}, {"time": 1656, "annotation": {"number": 64, "value": 127}, "group": "control_change"}, {"time": 1678, "annotation": {"number": 64, "value": 0}, "group": "control_change"}, {"time": 1679, "annotation": {"number": 64, "value": 127}, "group": "control_change"}, {"time": 1703, "annotation": {"number": 64, "value": 0}, "group": "control_change"}, {"time": 1706, "annotation": {"number": 64, "value": 127}, "group": "control_change"}, {"time": 1750, "annotation": {"number": 64, "value": 0}, "group": "control_change"}, {"time": 1753, "annotation": {"number": 64, "value": 127}, "group": "control_change"}, {"time": 1775, "annotation": {"number": 64, "value": 0}, "group": "control_change"}, {"time": 1777, "annotation": {"number": 64, "value": 127}, "group": "control_change"}, {"time": 1797, "annotation": {"number": 64, "value": 0}, "group": "control_change"}, {"time": 1801, "annotation": {"number": 64, "value": 127}, "group": "control_change"}, {"time": 1821, "annotation": {"number": 64, "value": 0}, "group": "control_change"}, {"time": 1838, "annotation": {"number": 64, "value": 127}, "group": "control_change"}, {"time": 1845, "annotation": {"number": 64, "value": 0}, "group": "control_change"}, {"time": 1853, "annotation": {"number": 64, "value": 127}, "group": "control_change"}, {"time": 1871, "annotation": {"number": 64, "value": 0}, "group": "control_change"}, {"time": 1874, "annotation": {"number": 64, "value": 127}, "group": "control_change"}, {"time": 1893, "annotation": {"number": 64, "value": 0}, "group": "control_change"}, {"time": 1898, "annotation": {"number": 64, "value": 127}, "group": "control_change"}, {"time": 1918, "annotation": {"number": 64, "value": 0}, "group": "control_change"}, {"time": 1922, "annotation": {"number": 64, "value": 127}, "group": "control_change"}, {"time": 1941, "annotation": {"number": 64, "value": 0}, "group": "control_change"}, {"time": 1945, "annotation": {"number": 64, "value": 127}, "group": "control_change"}, {"time": 1966, "annotation": {"number": 64, "value": 0}, "group": "control_change"}, {"time": 1969, "annotation": {"number": 64, "value": 127}, "group": "control_change"}, {"time": 1991, "annotation": {"number": 64, "value": 0}, "group": "control_change"}, {"time": 1998, "annotation": {"number": 64, "value": 127}, "group": "control_change"}, {"time": 2015, "annotation": {"number": 64, "value": 0}, "group": "control_change"}, {"time": 2020, "annotation": {"number": 64, "value": 127}, "group": "control_change"}, {"time": 2039, "annotation": {"number": 64, "value": 0}, "group": "control_change"}, {"time": 2047, "annotation": {"number": 64, "value": 127}, "group": "control_change"}, {"time": 2064, "annotation": {"number": 64, "value": 0}, "group": "control_change"}, {"time": 2072, "annotation": {"number": 64, "value": 127}, "group": "control_change"}, {"time": 2087, "annotation": {"number": 64, "value": 0}, "group": "control_change"}, {"time": 2094, "annotation": {"number": 64, "value": 127}, "group": "control_change"}, {"time": 2110, "annotation": {"number": 64, "value": 0}, "group": "control_change"}, {"time": 2114, "annotation": {"number": 64, "value": 127}, "group": "control_change"}, {"time": 2133, "annotation": {"number": 64, "value": 0}, "group": "control_change"}, {"time": 2138, "annotation": {"number": 64, "value": 127}, "group": "control_change"}, {"time": 2159, "annotation": {"number": 64, "value": 0}, "group": "control_change"}, {"time": 2162, "annotation": {"number": 64, "value": 127}, "group": "control_change"}, {"time": 2182, "annotation": {"number": 64, "value": 0}, "group": "control_change"}, {"time": 2187, "annotation": {"number": 64, "value": 127}, "group": "control_change"}, {"time": 2211, "annotation": {"number": 64, "value": 0}, "group": "control_change"}, {"time": 2213, "annotation": {"number": 64, "value": 127}, "group": "control_change"}, {"time": 2230, "annotation": {"number": 64, "value": 0}, "group": "control_change"}, {"time": 2233, "annotation": {"number": 64, "value": 127}, "group": "control_change"}, {"time": 2254, "annotation": {"number": 64, "value": 0}, "group": "control_change"}, {"time": 2256, "annotation": {"number": 64, "value": 127}, "group": "control_change"}, {"time": 2280, "annotation": {"number": 64, "value": 0}, "group": "control_change"}, {"time": 2285, "annotation": {"number": 64, "value": 127}, "group": "control_change"}, {"time": 2328, "annotation": {"number": 64, "value": 0}, "group": "control_change"}, {"time": 2334, "annotation": {"number": 64, "value": 127}, "group": "control_change"}, {"time": 2361, "annotation": {"number": 64, "value": 0}, "group": "control_change"}, {"time": 2365, "annotation": {"number": 64, "value": 127}, "group": "control_change"}, {"time": 2373, "annotation": {"number": 64, "value": 0}, "group": "control_change"}, {"time": 2377, "annotation": {"number": 64, "value": 127}, "group": "control_change"}, {"time": 2398, "annotation": {"number": 64, "value": 0}, "group": "control_change"}, {"time": 2399, "annotation": {"number": 64, "value": 127}, "group": "control_change"}, {"time": 2423, "annotation": {"number": 64, "value": 0}, "group": "control_change"}, {"time": 2429, "annotation": {"number": 64, "value": 127}, "group": "control_change"}, {"time": 2445, "annotation": {"number": 64, "value": 0}, "group": "control_change"}, {"time": 2451, "annotation": {"number": 64, "value": 127}, "group": "control_change"}, {"time": 2470, "annotation": {"number": 64, "value": 0}, "group": "control_change"}, {"time": 2477, "annotation": {"number": 64, "value": 127}, "group": "control_change"}, {"time": 2495, "annotation": {"number": 64, "value": 0}, "group": "control_change"}, {"time": 2500, "annotation": {"number": 64, "value": 127}, "group": "control_change"}, {"time": 2519, "annotation": {"number": 64, "value": 0}, "group": "control_change"}, {"time": 2526, "annotation": {"number": 64, "value": 127}, "group": "control_change"}, {"time": 2542, "annotation": {"number": 64, "value": 0}, "group": "control_change"}, {"time": 2546, "annotation": {"number": 64, "value": 127}, "group": "control_change"}, {"time": 2567, "annotation": {"number": 64, "value": 0}, "group": "control_change"}, {"time": 2574, "annotation": {"number": 64, "value": 127}, "group": "control_change"}, {"time": 2601, "annotation": {"number": 64, "value": 0}, "group": "control_change"}, {"time": 2602, "annotation": {"number": 64, "value": 127}, "group": "control_change"}, {"time": 2612, "annotation": {"number": 64, "value": 0}, "group": "control_change"}, {"time": 2616, "annotation": {"number": 64, "value": 127}, "group": "control_change"}, {"time": 2638, "annotation": {"number": 64, "value": 0}, "group": "control_change"}, {"time": 2640, "annotation": {"number": 64, "value": 127}, "group": "control_change"}, {"time": 2662, "annotation": {"number": 64, "value": 0}, "group": "control_change"}, {"time": 2669, "annotation": {"number": 64, "value": 127}, "group": "control_change"}, {"time": 2688, "annotation": {"number": 64, "value": 0}, "group": "control_change"}, {"time": 2693, "annotation": {"number": 64, "value": 127}, "group": "control_change"}, {"time": 2712, "annotation": {"number": 64, "value": 0}, "group": "control_change"}, {"time": 2723, "annotation": {"number": 64, "value": 127}, "group": "control_change"}, {"time": 2757, "annotation": {"number": 64, "value": 0}, "group": "control_change"}, {"time": 2765, "annotation": {"number": 64, "value": 127}, "group": "control_change"}, {"time": 2796, "annotation": {"number": 64, "value": 127}, "group": "control_change"}, {"time": 2803, "annotation": {"number": 64, "value": 0}, "group": "control_change"}, {"time": 2810, "annotation": {"number": 64, "value": 127}, "group": "control_change"}, {"time": 2854, "annotation": {"number": 64, "value": 0}, "group": "control_change"}, {"time": 2858, "annotation": {"number": 64, "value": 127}, "group": "control_change"}, {"time": 2879, "annotation": {"number": 64, "value": 0}, "group": "control_change"}, {"time": 2882, "annotation": {"number": 64, "value": 127}, "group": "control_change"}, {"time": 2901, "annotation": {"number": 64, "value": 0}, "group": "control_change"}, {"time": 2903, "annotation": {"number": 64, "value": 127}, "group": "control_change"}, {"time": 2927, "annotation": {"number": 64, "value": 0}, "group": "control_change"}, {"time": 2928, "annotation": {"number": 64, "value": 127}, "group": "control_change"}, {"time": 2951, "annotation": {"number": 64, "value": 0}, "group": "control_change"}, {"time": 2953, "annotation": {"number": 64, "value": 127}, "group": "control_change"}, {"time": 2975, "annotation": {"number": 64, "value": 0}, "group": "control_change"}, {"time": 2976, "annotation": {"number": 64, "value": 127}, "group": "control_change"}, {"time": 2998, "annotation": {"number": 64, "value": 0}, "group": "control_change"}, {"time": 3001, "annotation": {"number": 64, "value": 127}, "group": "control_change"}, {"time": 3022, "annotation": {"number": 64, "value": 0}, "group": "control_change"}, {"time": 3023, "annotation": {"number": 64, "value": 127}, "group": "control_change"}, {"time": 3036, "annotation": {"number": 64, "value": 127}, "group": "control_change"}, {"time": 3045, "annotation": {"number": 64, "value": 0}, "group": "control_change"}, {"time": 3050, "annotation": {"number": 64, "value": 127}, "group": "control_change"}, {"time": 3068, "annotation": {"number": 64, "value": 0}, "group": "control_change"}, {"time": 3071, "annotation": {"number": 64, "value": 127}, "group": "control_change"}, {"time": 3095, "annotation": {"number": 64, "value": 0}, "group": "control_change"}, {"time": 3098, "annotation": {"number": 64, "value": 127}, "group": "control_change"}, {"time": 3143, "annotation": {"number": 64, "value": 0}, "group": "control_change"}, {"time": 3145, "annotation": {"number": 64, "value": 127}, "group": "control_change"}, {"time": 3166, "annotation": {"number": 64, "value": 0}, "group": "control_change"}, {"time": 3168, "annotation": {"number": 64, "value": 127}, "group": "control_change"}, {"time": 3190, "annotation": {"number": 64, "value": 0}, "group": "control_change"}, {"time": 3192, "annotation": {"number": 64, "value": 127}, "group": "control_change"}, {"time": 3214, "annotation": {"number": 64, "value": 0}, "group": "control_change"}, {"time": 3215, "annotation": {"number": 64, "value": 127}, "group": "control_change"}, {"time": 3239, "annotation": {"number": 64, "value": 0}, "group": "control_change"}, {"time": 3242, "annotation": {"number": 64, "value": 127}, "group": "control_change"}, {"time": 3286, "annotation": {"number": 64, "value": 0}, "group": "control_change"}, {"time": 3289, "annotation": {"number": 64, "value": 127}, "group": "control_change"}, {"time": 3311, "annotation": {"number": 64, "value": 0}, "group": "control_change"}, {"time": 3313, "annotation": {"number": 64, "value": 127}, "group": "control_change"}, {"time": 3333, "annotation": {"number": 64, "value": 0}, "group": "control_change"}, {"time": 3337, "annotation": {"number": 64, "value": 127}, "group": "control_change"}, {"time": 3357, "annotation": {"number": 64, "value": 0}, "group": "control_change"}, {"time": 3374, "annotation": {"number": 64, "value": 127}, "group": "control_change"}, {"time": 3381, "annotation": {"number": 64, "value": 0}, "group": "control_change"}, {"time": 3384, "annotation": {"number": 64, "value": 127}, "group": "control_change"}, {"time": 3406, "annotation": {"number": 64, "value": 0}, "group": "control_change"}, {"time": 3408, "annotation": {"number": 64, "value": 127}, "group": "control_change"}, {"time": 3430, "annotation": {"number": 64, "value": 0}, "group": "control_change"}, {"time": 3432, "annotation": {"number": 64, "value": 127}, "group": "control_change"}, {"time": 3452, "annotation": {"number": 64, "value": 0}, "group": "control_change"}, {"time": 3454, "annotation": {"number": 64, "value": 127}, "group": "control_change"}, {"time": 3468, "annotation": {"number": 64, "value": 127}, "group": "control_change"}, {"time": 3475, "annotation": {"number": 64, "value": 0}, "group": "control_change"}, {"time": 3482, "annotation": {"number": 64, "value": 127}, "group": "control_change"}, {"time": 3526, "annotation": {"number": 64, "value": 0}, "group": "control_change"}, {"time": 3530, "annotation": {"number": 64, "value": 127}, "group": "control_change"}, {"time": 3551, "annotation": {"number": 64, "value": 0}, "group": "control_change"}, {"time": 3554, "annotation": {"number": 64, "value": 127}, "group": "control_change"}, {"time": 3573, "annotation": {"number": 64, "value": 0}, "group": "control_change"}, {"time": 3575, "annotation": {"number": 64, "value": 127}, "group": "control_change"}, {"time": 3599, "annotation": {"number": 64, "value": 0}, "group": "control_change"}, {"time": 3600, "annotation": {"number": 64, "value": 127}, "group": "control_change"}, {"time": 3623, "annotation": {"number": 64, "value": 0}, "group": "control_change"}, {"time": 3625, "annotation": {"number": 64, "value": 127}, "group": "control_change"}, {"time": 3647, "annotation": {"number": 64, "value": 0}, "group": "control_change"}, {"time": 3648, "annotation": {"number": 64, "value": 127}, "group": "control_change"}, {"time": 3670, "annotation": {"number": 64, "value": 0}, "group": "control_change"}, {"time": 3673, "annotation": {"number": 64, "value": 127}, "group": "control_change"}, {"time": 3694, "annotation": {"number": 64, "value": 0}, "group": "control_change"}, {"time": 3695, "annotation": {"number": 64, "value": 127}, "group": "control_change"}, {"time": 3708, "annotation": {"number": 64, "value": 127}, "group": "control_change"}, {"time": 3717, "annotation": {"number": 64, "value": 0}, "group": "control_change"}, {"time": 3722, "annotation": {"number": 64, "value": 127}, "group": "control_change"}, {"time": 3740, "annotation": {"number": 64, "value": 0}, "group": "control_change"}, {"time": 3743, "annotation": {"number": 64, "value": 127}, "group": "control_change"}, {"time": 3767, "annotation": {"number": 64, "value": 0}, "group": "control_change"}, {"time": 3770, "annotation": {"number": 64, "value": 127}, "group": "control_change"}, {"time": 3815, "annotation": {"number": 64, "value": 0}, "group": "control_change"}, {"time": 3817, "annotation": {"number": 64, "value": 127}, "group": "control_change"}, {"time": 3838, "annotation": {"number": 64, "value": 0}, "group": "control_change"}, {"time": 3840, "annotation": {"number": 64, "value": 127}, "group": "control_change"}, {"time": 3862, "annotation": {"number": 64, "value": 0}, "group": "control_change"}, {"time": 3864, "annotation": {"number": 64, "value": 127}, "group": "control_change"}, {"time": 3886, "annotation": {"number": 64, "value": 0}, "group": "control_change"}, {"time": 3887, "annotation": {"number": 64, "value": 127}, "group": "control_change"}, {"time": 3911, "annotation": {"number": 64, "value": 0}, "group": "control_change"}, {"time": 3914, "annotation": {"number": 64, "value": 127}, "group": "control_change"}, {"time": 3958, "annotation": {"number": 64, "value": 0}, "group": "control_change"}, {"time": 3961, "annotation": {"number": 64, "value": 127}, "group": "control_change"}, {"time": 3983, "annotation": {"number": 64, "value": 0}, "group": "control_change"}, {"time": 3985, "annotation": {"number": 64, "value": 127}, "group": "control_change"}, {"time": 4005, "annotation": {"number": 64, "value": 0}, "group": "control_change"}, {"time": 4009, "annotation": {"number": 64, "value": 127}, "group": "control_change"}, {"time": 4029, "annotation": {"number": 64, "value": 0}, "group": "control_change"}, {"time": 4046, "annotation": {"number": 64, "value": 127}, "group": "control_change"}, {"time": 4053, "annotation": {"number": 64, "value": 0}, "group": "control_change"}, {"time": 4057, "annotation": {"number": 64, "value": 127}, "group": "control_change"}, {"time": 4082, "annotation": {"number": 64, "value": 0}, "group": "control_change"}, {"time": 4084, "annotation": {"number": 64, "value": 127}, "group": "control_change"}, {"time": 4103, "annotation": {"number": 64, "value": 0}, "group": "control_change"}, {"time": 4106, "annotation": {"number": 64, "value": 127}, "group": "control_change"}, {"time": 4107, "annotation": {"number": 64, "value": 0}, "group": "control_change"}, {"time": 4107, "annotation": {"number": 64, "value": 127}, "group": "control_change"}, {"time": 4127, "annotation": {"number": 64, "value": 0}, "group": "control_change"}, {"time": 4128, "annotation": {"number": 64, "value": 127}, "group": "control_change"}, {"time": 4150, "annotation": {"number": 64, "value": 0}, "group": "control_change"}, {"time": 4158, "annotation": {"number": 64, "value": 127}, "group": "control_change"}, {"time": 4174, "annotation": {"number": 64, "value": 0}, "group": "control_change"}, {"time": 4176, "annotation": {"number": 64, "value": 127}, "group": "control_change"}, {"time": 4200, "annotation": {"number": 64, "value": 0}, "group": "control_change"}, {"time": 4208, "annotation": {"number": 64, "value": 127}, "group": "control_change"}, {"time": 4222, "annotation": {"number": 64, "value": 0}, "group": "control_change"}, {"time": 4229, "annotation": {"number": 64, "value": 127}, "group": "control_change"}, {"time": 4247, "annotation": {"number": 64, "value": 0}, "group": "control_change"}, {"time": 4250, "annotation": {"number": 64, "value": 127}, "group": "control_change"}, {"time": 4268, "annotation": {"number": 64, "value": 0}, "group": "control_change"}, {"time": 4272, "annotation": {"number": 64, "value": 127}, "group": "control_change"}, {"time": 4293, "annotation": {"number": 64, "value": 0}, "group": "control_change"}, {"time": 4296, "annotation": {"number": 64, "value": 127}, "group": "control_change"}, {"time": 4360, "annotation": {"number": 64, "value": 0}, "group": "control_change"}, {"time": 4363, "annotation": {"number": 64, "value": 127}, "group": "control_change"}, {"time": 4458, "annotation": {"number": 64, "value": 0}, "group": "control_change"}]}]}