{"metadata": {"schema_version": "0.2", "title": "None", "source_filename": "127.mid", "source_format": "midi"}, "resolution": 12, "tempos": [{"time": 0, "qpm": 87.00002175000543}, {"time": 1117, "qpm": 86.00005160003096}, {"time": 1230, "qpm": 87.00002175000543}, {"time": 1505, "qpm": 88.00002346667293}, {"time": 1560, "qpm": 87.00002175000543}, {"time": 2827, "qpm": 86.00005160003096}, {"time": 2833, "qpm": 84.000084000084}, {"time": 2891, "qpm": 87.00002175000543}, {"time": 3053, "qpm": 83.0000650167176}, {"time": 3151, "qpm": 85.00004250002125}, {"time": 3169, "qpm": 87.00002175000543}, {"time": 4094, "qpm": 84.000084000084}, {"time": 4148, "qpm": 87.00002175000543}, {"time": 4287, "qpm": 86.00005160003096}, {"time": 4291, "qpm": 84.000084000084}, {"time": 4335, "qpm": 85.00004250002125}, {"time": 4438, "qpm": 88.00002346667293}, {"time": 4584, "qpm": 85.00004250002125}, {"time": 4600, "qpm": 83.0000650167176}, {"time": 4607, "qpm": 81.000081000081}, {"time": 4619, "qpm": 78.00017940041262}], "time_signatures": [{"time": 0, "numerator": 1, "denominator": 4}], "tracks": [{"program": 0, "is_drum": false, "name": "MELODY", "notes": [{"time": 123, "pitch": 77, "duration": 5, "velocity": 108}, {"time": 129, "pitch": 75, "duration": 2, "velocity": 92}, {"time": 135, "pitch": 75, "duration": 8, "velocity": 94}, {"time": 147, "pitch": 73, "duration": 4, "velocity": 97}, {"time": 153, "pitch": 75, "duration": 14, "velocity": 102}, {"time": 171, "pitch": 70, "duration": 2, "velocity": 94}, {"time": 177, "pitch": 70, "duration": 31, "velocity": 94}, {"time": 219, "pitch": 68, "duration": 4, "velocity": 102}, {"time": 225, "pitch": 73, "duration": 4, "velocity": 100}, {"time": 231, "pitch": 73, "duration": 10, "velocity": 100}, {"time": 243, "pitch": 75, "duration": 3, "velocity": 97}, {"time": 249, "pitch": 75, "duration": 35, "velocity": 97}, {"time": 315, "pitch": 77, "duration": 4, "velocity": 97}, {"time": 321, "pitch": 75, "duration": 4, "velocity": 97}, {"time": 327, "pitch": 75, "duration": 10, "velocity": 105}, {"time": 339, "pitch": 73, "duration": 4, "velocity": 94}, {"time": 345, "pitch": 75, "duration": 11, "velocity": 100}, {"time": 357, "pitch": 70, "duration": 4, "velocity": 80}, {"time": 363, "pitch": 70, "duration": 36, "velocity": 97}, {"time": 405, "pitch": 68, "duration": 3, "velocity": 92}, {"time": 411, "pitch": 68, "duration": 4, "velocity": 100}, {"time": 417, "pitch": 73, "duration": 10, "velocity": 102}, {"time": 429, "pitch": 73, "duration": 4, "velocity": 82}, {"time": 435, "pitch": 75, "duration": 4, "velocity": 89}, {"time": 441, "pitch": 75, "duration": 51, "velocity": 102}, {"time": 495, "pitch": 70, "duration": 4, "velocity": 108}, {"time": 501, "pitch": 73, "duration": 10, "velocity": 102}, {"time": 513, "pitch": 73, "duration": 15, "velocity": 100}, {"time": 531, "pitch": 68, "duration": 4, "velocity": 97}, {"time": 537, "pitch": 68, "duration": 5, "velocity": 89}, {"time": 543, "pitch": 75, "duration": 10, "velocity": 102}, {"time": 555, "pitch": 77, "duration": 3, "velocity": 92}, {"time": 562, "pitch": 73, "duration": 11, "velocity": 84}, {"time": 574, "pitch": 70, "duration": 13, "velocity": 97}, {"time": 591, "pitch": 70, "duration": 4, "velocity": 100}, {"time": 597, "pitch": 73, "duration": 10, "velocity": 97}, {"time": 609, "pitch": 73, "duration": 15, "velocity": 102}, {"time": 627, "pitch": 68, "duration": 4, "velocity": 94}, {"time": 633, "pitch": 68, "duration": 3, "velocity": 89}, {"time": 639, "pitch": 75, "duration": 10, "velocity": 105}, {"time": 651, "pitch": 77, "duration": 3, "velocity": 102}, {"time": 657, "pitch": 73, "duration": 27, "velocity": 102}, {"time": 687, "pitch": 70, "duration": 5, "velocity": 97}, {"time": 693, "pitch": 73, "duration": 10, "velocity": 100}, {"time": 705, "pitch": 73, "duration": 19, "velocity": 102}, {"time": 729, "pitch": 68, "duration": 5, "velocity": 100}, {"time": 735, "pitch": 75, "duration": 10, "velocity": 73}, {"time": 747, "pitch": 73, "duration": 5, "velocity": 84}, {"time": 753, "pitch": 77, "duration": 14, "velocity": 108}, {"time": 771, "pitch": 73, "duration": 4, "velocity": 105}, {"time": 777, "pitch": 73, "duration": 53, "velocity": 105}, {"time": 849, "pitch": 73, "duration": 5, "velocity": 105}, {"time": 855, "pitch": 77, "duration": 5, "velocity": 111}, {"time": 861, "pitch": 78, "duration": 3, "velocity": 105}, {"time": 867, "pitch": 80, "duration": 4, "velocity": 114}, {"time": 873, "pitch": 73, "duration": 4, "velocity": 102}, {"time": 879, "pitch": 82, "duration": 8, "velocity": 117}, {"time": 891, "pitch": 80, "duration": 3, "velocity": 102}, {"time": 897, "pitch": 80, "duration": 14, "velocity": 114}, {"time": 915, "pitch": 78, "duration": 4, "velocity": 105}, {"time": 921, "pitch": 77, "duration": 10, "velocity": 108}, {"time": 933, "pitch": 75, "duration": 9, "velocity": 108}, {"time": 945, "pitch": 68, "duration": 4, "velocity": 102}, {"time": 951, "pitch": 75, "duration": 4, "velocity": 105}, {"time": 957, "pitch": 77, "duration": 5, "velocity": 92}, {"time": 963, "pitch": 78, "duration": 3, "velocity": 114}, {"time": 969, "pitch": 68, "duration": 4, "velocity": 111}, {"time": 975, "pitch": 80, "duration": 8, "velocity": 114}, {"time": 987, "pitch": 78, "duration": 4, "velocity": 108}, {"time": 993, "pitch": 77, "duration": 13, "velocity": 102}, {"time": 1005, "pitch": 75, "duration": 9, "velocity": 105}, {"time": 1017, "pitch": 75, "duration": 10, "velocity": 102}, {"time": 1029, "pitch": 73, "duration": 10, "velocity": 102}, {"time": 1041, "pitch": 68, "duration": 4, "velocity": 105}, {"time": 1047, "pitch": 73, "duration": 3, "velocity": 105}, {"time": 1053, "pitch": 75, "duration": 4, "velocity": 94}, {"time": 1059, "pitch": 77, "duration": 4, "velocity": 102}, {"time": 1065, "pitch": 73, "duration": 4, "velocity": 97}, {"time": 1071, "pitch": 78, "duration": 8, "velocity": 108}, {"time": 1083, "pitch": 77, "duration": 4, "velocity": 89}, {"time": 1089, "pitch": 75, "duration": 10, "velocity": 102}, {"time": 1101, "pitch": 73, "duration": 13, "velocity": 108}, {"time": 1119, "pitch": 73, "duration": 10, "velocity": 117}, {"time": 1131, "pitch": 72, "duration": 4, "velocity": 100}, {"time": 1137, "pitch": 73, "duration": 11, "velocity": 105}, {"time": 1149, "pitch": 75, "duration": 14, "velocity": 108}, {"time": 1167, "pitch": 78, "duration": 9, "velocity": 108}, {"time": 1179, "pitch": 77, "duration": 3, "velocity": 100}, {"time": 1185, "pitch": 77, "duration": 9, "velocity": 102}, {"time": 1197, "pitch": 75, "duration": 8, "velocity": 102}, {"time": 1209, "pitch": 77, "duration": 19, "velocity": 102}, {"time": 1233, "pitch": 73, "duration": 5, "velocity": 105}, {"time": 1239, "pitch": 77, "duration": 5, "velocity": 111}, {"time": 1245, "pitch": 78, "duration": 3, "velocity": 105}, {"time": 1251, "pitch": 80, "duration": 4, "velocity": 114}, {"time": 1257, "pitch": 73, "duration": 4, "velocity": 102}, {"time": 1263, "pitch": 82, "duration": 8, "velocity": 117}, {"time": 1275, "pitch": 80, "duration": 3, "velocity": 102}, {"time": 1281, "pitch": 80, "duration": 14, "velocity": 114}, {"time": 1299, "pitch": 78, "duration": 4, "velocity": 105}, {"time": 1305, "pitch": 77, "duration": 10, "velocity": 108}, {"time": 1317, "pitch": 75, "duration": 9, "velocity": 108}, {"time": 1329, "pitch": 68, "duration": 4, "velocity": 102}, {"time": 1335, "pitch": 75, "duration": 4, "velocity": 105}, {"time": 1341, "pitch": 77, "duration": 5, "velocity": 92}, {"time": 1347, "pitch": 78, "duration": 3, "velocity": 114}, {"time": 1353, "pitch": 68, "duration": 4, "velocity": 111}, {"time": 1359, "pitch": 80, "duration": 8, "velocity": 114}, {"time": 1371, "pitch": 78, "duration": 4, "velocity": 108}, {"time": 1377, "pitch": 77, "duration": 13, "velocity": 102}, {"time": 1389, "pitch": 75, "duration": 9, "velocity": 105}, {"time": 1401, "pitch": 75, "duration": 10, "velocity": 102}, {"time": 1413, "pitch": 73, "duration": 39, "velocity": 102}, {"time": 1455, "pitch": 70, "duration": 9, "velocity": 108}, {"time": 1467, "pitch": 73, "duration": 4, "velocity": 100}, {"time": 1473, "pitch": 73, "duration": 20, "velocity": 105}, {"time": 1497, "pitch": 68, "duration": 4, "velocity": 102}, {"time": 1503, "pitch": 75, "duration": 9, "velocity": 108}, {"time": 1515, "pitch": 73, "duration": 3, "velocity": 102}, {"time": 1521, "pitch": 77, "duration": 9, "velocity": 111}, {"time": 1533, "pitch": 73, "duration": 15, "velocity": 102}, {"time": 1551, "pitch": 73, "duration": 42, "velocity": 94}, {"time": 1755, "pitch": 77, "duration": 5, "velocity": 108}, {"time": 1761, "pitch": 75, "duration": 2, "velocity": 92}, {"time": 1767, "pitch": 75, "duration": 8, "velocity": 94}, {"time": 1779, "pitch": 73, "duration": 4, "velocity": 97}, {"time": 1785, "pitch": 75, "duration": 14, "velocity": 102}, {"time": 1803, "pitch": 70, "duration": 2, "velocity": 94}, {"time": 1809, "pitch": 70, "duration": 31, "velocity": 94}, {"time": 1851, "pitch": 68, "duration": 4, "velocity": 102}, {"time": 1857, "pitch": 73, "duration": 4, "velocity": 100}, {"time": 1863, "pitch": 73, "duration": 10, "velocity": 100}, {"time": 1875, "pitch": 75, "duration": 3, "velocity": 97}, {"time": 1881, "pitch": 75, "duration": 35, "velocity": 97}, {"time": 1947, "pitch": 77, "duration": 4, "velocity": 97}, {"time": 1953, "pitch": 75, "duration": 4, "velocity": 97}, {"time": 1959, "pitch": 75, "duration": 10, "velocity": 105}, {"time": 1971, "pitch": 73, "duration": 4, "velocity": 94}, {"time": 1977, "pitch": 75, "duration": 11, "velocity": 100}, {"time": 1989, "pitch": 70, "duration": 4, "velocity": 80}, {"time": 1995, "pitch": 70, "duration": 36, "velocity": 97}, {"time": 2037, "pitch": 68, "duration": 3, "velocity": 92}, {"time": 2043, "pitch": 68, "duration": 4, "velocity": 100}, {"time": 2049, "pitch": 73, "duration": 10, "velocity": 102}, {"time": 2061, "pitch": 73, "duration": 4, "velocity": 82}, {"time": 2067, "pitch": 75, "duration": 4, "velocity": 89}, {"time": 2073, "pitch": 75, "duration": 51, "velocity": 102}, {"time": 2127, "pitch": 70, "duration": 4, "velocity": 108}, {"time": 2133, "pitch": 73, "duration": 10, "velocity": 102}, {"time": 2145, "pitch": 73, "duration": 15, "velocity": 100}, {"time": 2163, "pitch": 68, "duration": 4, "velocity": 97}, {"time": 2169, "pitch": 68, "duration": 5, "velocity": 89}, {"time": 2175, "pitch": 75, "duration": 10, "velocity": 102}, {"time": 2187, "pitch": 77, "duration": 3, "velocity": 92}, {"time": 2194, "pitch": 73, "duration": 11, "velocity": 84}, {"time": 2206, "pitch": 70, "duration": 13, "velocity": 97}, {"time": 2223, "pitch": 70, "duration": 4, "velocity": 100}, {"time": 2229, "pitch": 73, "duration": 10, "velocity": 97}, {"time": 2241, "pitch": 73, "duration": 15, "velocity": 102}, {"time": 2259, "pitch": 68, "duration": 4, "velocity": 94}, {"time": 2265, "pitch": 68, "duration": 3, "velocity": 89}, {"time": 2271, "pitch": 75, "duration": 10, "velocity": 105}, {"time": 2283, "pitch": 77, "duration": 3, "velocity": 102}, {"time": 2289, "pitch": 73, "duration": 27, "velocity": 102}, {"time": 2319, "pitch": 70, "duration": 5, "velocity": 97}, {"time": 2325, "pitch": 73, "duration": 10, "velocity": 100}, {"time": 2337, "pitch": 73, "duration": 19, "velocity": 102}, {"time": 2361, "pitch": 68, "duration": 5, "velocity": 100}, {"time": 2367, "pitch": 75, "duration": 10, "velocity": 73}, {"time": 2379, "pitch": 73, "duration": 5, "velocity": 84}, {"time": 2385, "pitch": 77, "duration": 14, "velocity": 108}, {"time": 2403, "pitch": 73, "duration": 4, "velocity": 105}, {"time": 2409, "pitch": 73, "duration": 53, "velocity": 105}, {"time": 2481, "pitch": 73, "duration": 5, "velocity": 105}, {"time": 2487, "pitch": 77, "duration": 5, "velocity": 111}, {"time": 2493, "pitch": 78, "duration": 3, "velocity": 105}, {"time": 2499, "pitch": 80, "duration": 4, "velocity": 114}, {"time": 2505, "pitch": 73, "duration": 4, "velocity": 102}, {"time": 2511, "pitch": 82, "duration": 8, "velocity": 117}, {"time": 2523, "pitch": 80, "duration": 3, "velocity": 102}, {"time": 2529, "pitch": 80, "duration": 14, "velocity": 114}, {"time": 2547, "pitch": 78, "duration": 4, "velocity": 105}, {"time": 2553, "pitch": 77, "duration": 10, "velocity": 108}, {"time": 2565, "pitch": 75, "duration": 9, "velocity": 108}, {"time": 2577, "pitch": 68, "duration": 4, "velocity": 102}, {"time": 2583, "pitch": 75, "duration": 4, "velocity": 105}, {"time": 2589, "pitch": 77, "duration": 5, "velocity": 92}, {"time": 2595, "pitch": 78, "duration": 3, "velocity": 114}, {"time": 2601, "pitch": 68, "duration": 4, "velocity": 111}, {"time": 2607, "pitch": 80, "duration": 8, "velocity": 114}, {"time": 2619, "pitch": 78, "duration": 4, "velocity": 108}, {"time": 2625, "pitch": 77, "duration": 13, "velocity": 102}, {"time": 2637, "pitch": 75, "duration": 9, "velocity": 105}, {"time": 2649, "pitch": 75, "duration": 10, "velocity": 102}, {"time": 2661, "pitch": 73, "duration": 10, "velocity": 102}, {"time": 2673, "pitch": 68, "duration": 4, "velocity": 105}, {"time": 2679, "pitch": 73, "duration": 3, "velocity": 105}, {"time": 2685, "pitch": 75, "duration": 4, "velocity": 94}, {"time": 2691, "pitch": 77, "duration": 4, "velocity": 102}, {"time": 2697, "pitch": 73, "duration": 4, "velocity": 97}, {"time": 2703, "pitch": 78, "duration": 8, "velocity": 108}, {"time": 2715, "pitch": 77, "duration": 4, "velocity": 89}, {"time": 2721, "pitch": 75, "duration": 10, "velocity": 102}, {"time": 2733, "pitch": 73, "duration": 13, "velocity": 108}, {"time": 2751, "pitch": 73, "duration": 10, "velocity": 117}, {"time": 2763, "pitch": 72, "duration": 4, "velocity": 100}, {"time": 2769, "pitch": 73, "duration": 11, "velocity": 105}, {"time": 2781, "pitch": 75, "duration": 14, "velocity": 108}, {"time": 2799, "pitch": 78, "duration": 9, "velocity": 108}, {"time": 2811, "pitch": 77, "duration": 3, "velocity": 100}, {"time": 2817, "pitch": 77, "duration": 9, "velocity": 102}, {"time": 2829, "pitch": 75, "duration": 8, "velocity": 102}, {"time": 2841, "pitch": 77, "duration": 19, "velocity": 102}, {"time": 2865, "pitch": 73, "duration": 5, "velocity": 105}, {"time": 2871, "pitch": 77, "duration": 5, "velocity": 111}, {"time": 2877, "pitch": 78, "duration": 3, "velocity": 105}, {"time": 2883, "pitch": 80, "duration": 4, "velocity": 114}, {"time": 2889, "pitch": 73, "duration": 4, "velocity": 102}, {"time": 2895, "pitch": 82, "duration": 8, "velocity": 117}, {"time": 2907, "pitch": 80, "duration": 3, "velocity": 102}, {"time": 2913, "pitch": 80, "duration": 14, "velocity": 114}, {"time": 2931, "pitch": 78, "duration": 4, "velocity": 105}, {"time": 2937, "pitch": 77, "duration": 10, "velocity": 108}, {"time": 2949, "pitch": 75, "duration": 9, "velocity": 108}, {"time": 2961, "pitch": 68, "duration": 4, "velocity": 102}, {"time": 2967, "pitch": 75, "duration": 4, "velocity": 105}, {"time": 2973, "pitch": 77, "duration": 5, "velocity": 92}, {"time": 2979, "pitch": 78, "duration": 3, "velocity": 114}, {"time": 2985, "pitch": 68, "duration": 4, "velocity": 111}, {"time": 2991, "pitch": 80, "duration": 8, "velocity": 114}, {"time": 3003, "pitch": 78, "duration": 4, "velocity": 108}, {"time": 3009, "pitch": 77, "duration": 13, "velocity": 102}, {"time": 3021, "pitch": 75, "duration": 9, "velocity": 105}, {"time": 3033, "pitch": 75, "duration": 10, "velocity": 102}, {"time": 3045, "pitch": 73, "duration": 39, "velocity": 102}, {"time": 3087, "pitch": 70, "duration": 9, "velocity": 108}, {"time": 3099, "pitch": 73, "duration": 4, "velocity": 100}, {"time": 3105, "pitch": 73, "duration": 20, "velocity": 105}, {"time": 3129, "pitch": 68, "duration": 4, "velocity": 102}, {"time": 3135, "pitch": 75, "duration": 9, "velocity": 108}, {"time": 3147, "pitch": 73, "duration": 3, "velocity": 102}, {"time": 3153, "pitch": 77, "duration": 9, "velocity": 111}, {"time": 3165, "pitch": 73, "duration": 15, "velocity": 102}, {"time": 3183, "pitch": 73, "duration": 42, "velocity": 94}, {"time": 3567, "pitch": 70, "duration": 5, "velocity": 97}, {"time": 3573, "pitch": 73, "duration": 10, "velocity": 100}, {"time": 3585, "pitch": 73, "duration": 19, "velocity": 102}, {"time": 3603, "pitch": 68, "duration": 4, "velocity": 108}, {"time": 3609, "pitch": 68, "duration": 5, "velocity": 111}, {"time": 3615, "pitch": 75, "duration": 11, "velocity": 111}, {"time": 3627, "pitch": 77, "duration": 4, "velocity": 111}, {"time": 3633, "pitch": 73, "duration": 12, "velocity": 108}, {"time": 3645, "pitch": 68, "duration": 30, "velocity": 108}, {"time": 3729, "pitch": 73, "duration": 5, "velocity": 105}, {"time": 3735, "pitch": 77, "duration": 5, "velocity": 111}, {"time": 3741, "pitch": 78, "duration": 3, "velocity": 105}, {"time": 3747, "pitch": 80, "duration": 4, "velocity": 114}, {"time": 3753, "pitch": 73, "duration": 4, "velocity": 102}, {"time": 3759, "pitch": 82, "duration": 8, "velocity": 117}, {"time": 3771, "pitch": 80, "duration": 3, "velocity": 102}, {"time": 3777, "pitch": 80, "duration": 14, "velocity": 114}, {"time": 3795, "pitch": 78, "duration": 4, "velocity": 105}, {"time": 3801, "pitch": 77, "duration": 10, "velocity": 108}, {"time": 3813, "pitch": 75, "duration": 9, "velocity": 108}, {"time": 3825, "pitch": 68, "duration": 4, "velocity": 102}, {"time": 3831, "pitch": 75, "duration": 4, "velocity": 105}, {"time": 3837, "pitch": 77, "duration": 5, "velocity": 92}, {"time": 3843, "pitch": 78, "duration": 3, "velocity": 114}, {"time": 3849, "pitch": 68, "duration": 4, "velocity": 111}, {"time": 3855, "pitch": 80, "duration": 8, "velocity": 114}, {"time": 3867, "pitch": 78, "duration": 4, "velocity": 108}, {"time": 3873, "pitch": 77, "duration": 13, "velocity": 102}, {"time": 3885, "pitch": 75, "duration": 9, "velocity": 105}, {"time": 3897, "pitch": 75, "duration": 10, "velocity": 102}, {"time": 3909, "pitch": 73, "duration": 10, "velocity": 102}, {"time": 3921, "pitch": 68, "duration": 4, "velocity": 105}, {"time": 3927, "pitch": 73, "duration": 3, "velocity": 105}, {"time": 3933, "pitch": 75, "duration": 4, "velocity": 94}, {"time": 3939, "pitch": 77, "duration": 4, "velocity": 102}, {"time": 3945, "pitch": 73, "duration": 4, "velocity": 97}, {"time": 3951, "pitch": 78, "duration": 8, "velocity": 108}, {"time": 3963, "pitch": 77, "duration": 4, "velocity": 89}, {"time": 3969, "pitch": 75, "duration": 10, "velocity": 102}, {"time": 3981, "pitch": 73, "duration": 13, "velocity": 108}, {"time": 3999, "pitch": 73, "duration": 10, "velocity": 117}, {"time": 4011, "pitch": 72, "duration": 4, "velocity": 100}, {"time": 4017, "pitch": 73, "duration": 11, "velocity": 105}, {"time": 4029, "pitch": 75, "duration": 14, "velocity": 108}, {"time": 4047, "pitch": 78, "duration": 9, "velocity": 108}, {"time": 4059, "pitch": 77, "duration": 3, "velocity": 100}, {"time": 4065, "pitch": 77, "duration": 9, "velocity": 102}, {"time": 4077, "pitch": 75, "duration": 8, "velocity": 102}, {"time": 4089, "pitch": 77, "duration": 19, "velocity": 102}, {"time": 4113, "pitch": 73, "duration": 5, "velocity": 105}, {"time": 4119, "pitch": 77, "duration": 5, "velocity": 111}, {"time": 4125, "pitch": 78, "duration": 3, "velocity": 105}, {"time": 4131, "pitch": 80, "duration": 4, "velocity": 114}, {"time": 4137, "pitch": 73, "duration": 4, "velocity": 102}, {"time": 4143, "pitch": 82, "duration": 8, "velocity": 117}, {"time": 4155, "pitch": 80, "duration": 3, "velocity": 102}, {"time": 4161, "pitch": 80, "duration": 14, "velocity": 114}, {"time": 4179, "pitch": 78, "duration": 4, "velocity": 105}, {"time": 4185, "pitch": 77, "duration": 10, "velocity": 108}, {"time": 4197, "pitch": 75, "duration": 9, "velocity": 108}, {"time": 4209, "pitch": 68, "duration": 4, "velocity": 102}, {"time": 4215, "pitch": 75, "duration": 4, "velocity": 105}, {"time": 4221, "pitch": 77, "duration": 5, "velocity": 92}, {"time": 4227, "pitch": 78, "duration": 3, "velocity": 114}, {"time": 4233, "pitch": 68, "duration": 4, "velocity": 111}, {"time": 4239, "pitch": 80, "duration": 8, "velocity": 114}, {"time": 4251, "pitch": 78, "duration": 4, "velocity": 108}, {"time": 4257, "pitch": 77, "duration": 13, "velocity": 102}, {"time": 4269, "pitch": 75, "duration": 9, "velocity": 105}, {"time": 4281, "pitch": 75, "duration": 10, "velocity": 102}, {"time": 4293, "pitch": 73, "duration": 39, "velocity": 102}, {"time": 4335, "pitch": 70, "duration": 9, "velocity": 108}, {"time": 4347, "pitch": 73, "duration": 4, "velocity": 100}, {"time": 4353, "pitch": 73, "duration": 20, "velocity": 105}, {"time": 4377, "pitch": 68, "duration": 4, "velocity": 102}, {"time": 4383, "pitch": 75, "duration": 9, "velocity": 108}, {"time": 4395, "pitch": 73, "duration": 3, "velocity": 102}, {"time": 4401, "pitch": 77, "duration": 9, "velocity": 111}, {"time": 4413, "pitch": 73, "duration": 15, "velocity": 102}, {"time": 4431, "pitch": 73, "duration": 42, "velocity": 94}]}, {"program": 0, "is_drum": false, "name": "PIANO", "notes": [{"time": 15, "pitch": 37, "duration": 38, "velocity": 71}, {"time": 15, "pitch": 44, "duration": 39, "velocity": 73}, {"time": 63, "pitch": 42, "duration": 35, "velocity": 96}, {"time": 63, "pitch": 49, "duration": 34, "velocity": 94}, {"time": 111, "pitch": 49, "duration": 41, "velocity": 61}, {"time": 111, "pitch": 56, "duration": 38, "velocity": 69}, {"time": 159, "pitch": 49, "duration": 38, "velocity": 87}, {"time": 159, "pitch": 54, "duration": 36, "velocity": 82}, {"time": 207, "pitch": 49, "duration": 44, "velocity": 85}, {"time": 207, "pitch": 56, "duration": 43, "velocity": 87}, {"time": 255, "pitch": 51, "duration": 44, "velocity": 82}, {"time": 255, "pitch": 56, "duration": 44, "velocity": 96}, {"time": 255, "pitch": 60, "duration": 44, "velocity": 89}, {"time": 303, "pitch": 49, "duration": 41, "velocity": 61}, {"time": 303, "pitch": 56, "duration": 38, "velocity": 69}, {"time": 351, "pitch": 49, "duration": 38, "velocity": 87}, {"time": 351, "pitch": 54, "duration": 36, "velocity": 82}, {"time": 399, "pitch": 49, "duration": 44, "velocity": 85}, {"time": 399, "pitch": 56, "duration": 43, "velocity": 87}, {"time": 447, "pitch": 51, "duration": 44, "velocity": 82}, {"time": 447, "pitch": 56, "duration": 44, "velocity": 96}, {"time": 447, "pitch": 60, "duration": 44, "velocity": 89}, {"time": 495, "pitch": 42, "duration": 46, "velocity": 96}, {"time": 495, "pitch": 54, "duration": 42, "velocity": 87}, {"time": 495, "pitch": 58, "duration": 46, "velocity": 94}, {"time": 543, "pitch": 44, "duration": 45, "velocity": 85}, {"time": 543, "pitch": 56, "duration": 41, "velocity": 87}, {"time": 543, "pitch": 60, "duration": 43, "velocity": 96}, {"time": 591, "pitch": 42, "duration": 45, "velocity": 87}, {"time": 591, "pitch": 54, "duration": 44, "velocity": 87}, {"time": 591, "pitch": 58, "duration": 48, "velocity": 96}, {"time": 639, "pitch": 44, "duration": 16, "velocity": 96}, {"time": 639, "pitch": 56, "duration": 14, "velocity": 80}, {"time": 639, "pitch": 60, "duration": 15, "velocity": 91}, {"time": 657, "pitch": 44, "duration": 26, "velocity": 82}, {"time": 657, "pitch": 56, "duration": 24, "velocity": 80}, {"time": 657, "pitch": 60, "duration": 27, "velocity": 89}, {"time": 687, "pitch": 42, "duration": 40, "velocity": 101}, {"time": 687, "pitch": 54, "duration": 44, "velocity": 91}, {"time": 687, "pitch": 58, "duration": 46, "velocity": 96}, {"time": 735, "pitch": 44, "duration": 46, "velocity": 99}, {"time": 735, "pitch": 56, "duration": 33, "velocity": 82}, {"time": 735, "pitch": 60, "duration": 37, "velocity": 96}, {"time": 765, "pitch": 51, "duration": 15, "velocity": 23}, {"time": 771, "pitch": 56, "duration": 9, "velocity": 99}, {"time": 783, "pitch": 49, "duration": 44, "velocity": 89}, {"time": 783, "pitch": 56, "duration": 20, "velocity": 94}, {"time": 783, "pitch": 61, "duration": 26, "velocity": 91}, {"time": 801, "pitch": 65, "duration": 13, "velocity": 101}, {"time": 807, "pitch": 56, "duration": 13, "velocity": 48}, {"time": 813, "pitch": 61, "duration": 10, "velocity": 89}, {"time": 819, "pitch": 65, "duration": 10, "velocity": 96}, {"time": 831, "pitch": 49, "duration": 9, "velocity": 109}, {"time": 831, "pitch": 56, "duration": 9, "velocity": 101}, {"time": 831, "pitch": 61, "duration": 12, "velocity": 99}, {"time": 843, "pitch": 49, "duration": 9, "velocity": 62}, {"time": 849, "pitch": 56, "duration": 4, "velocity": 82}, {"time": 855, "pitch": 49, "duration": 20, "velocity": 104}, {"time": 855, "pitch": 56, "duration": 9, "velocity": 106}, {"time": 855, "pitch": 61, "duration": 6, "velocity": 96}, {"time": 855, "pitch": 65, "duration": 5, "velocity": 101}, {"time": 867, "pitch": 56, "duration": 7, "velocity": 106}, {"time": 867, "pitch": 59, "duration": 10, "velocity": 113}, {"time": 879, "pitch": 42, "duration": 44, "velocity": 106}, {"time": 879, "pitch": 58, "duration": 13, "velocity": 101}, {"time": 885, "pitch": 49, "duration": 19, "velocity": 87}, {"time": 891, "pitch": 54, "duration": 6, "velocity": 104}, {"time": 897, "pitch": 61, "duration": 3, "velocity": 99}, {"time": 903, "pitch": 66, "duration": 13, "velocity": 112}, {"time": 909, "pitch": 49, "duration": 15, "velocity": 80}, {"time": 915, "pitch": 58, "duration": 7, "velocity": 99}, {"time": 921, "pitch": 61, "duration": 3, "velocity": 99}, {"time": 927, "pitch": 44, "duration": 38, "velocity": 109}, {"time": 927, "pitch": 56, "duration": 13, "velocity": 104}, {"time": 927, "pitch": 60, "duration": 13, "velocity": 106}, {"time": 933, "pitch": 51, "duration": 15, "velocity": 73}, {"time": 939, "pitch": 63, "duration": 4, "velocity": 99}, {"time": 945, "pitch": 56, "duration": 12, "velocity": 99}, {"time": 945, "pitch": 68, "duration": 13, "velocity": 109}, {"time": 951, "pitch": 51, "duration": 14, "velocity": 74}, {"time": 957, "pitch": 63, "duration": 10, "velocity": 104}, {"time": 963, "pitch": 56, "duration": 3, "velocity": 106}, {"time": 975, "pitch": 53, "duration": 33, "velocity": 112}, {"time": 975, "pitch": 60, "duration": 8, "velocity": 99}, {"time": 975, "pitch": 65, "duration": 13, "velocity": 99}, {"time": 981, "pitch": 56, "duration": 36, "velocity": 78}, {"time": 987, "pitch": 60, "duration": 3, "velocity": 112}, {"time": 993, "pitch": 60, "duration": 9, "velocity": 112}, {"time": 993, "pitch": 68, "duration": 11, "velocity": 109}, {"time": 1005, "pitch": 60, "duration": 8, "velocity": 99}, {"time": 1005, "pitch": 65, "duration": 15, "velocity": 101}, {"time": 1011, "pitch": 53, "duration": 10, "velocity": 82}, {"time": 1017, "pitch": 60, "duration": 4, "velocity": 99}, {"time": 1023, "pitch": 46, "duration": 43, "velocity": 106}, {"time": 1023, "pitch": 58, "duration": 7, "velocity": 104}, {"time": 1023, "pitch": 61, "duration": 14, "velocity": 89}, {"time": 1029, "pitch": 53, "duration": 15, "velocity": 94}, {"time": 1035, "pitch": 58, "duration": 18, "velocity": 115}, {"time": 1041, "pitch": 70, "duration": 24, "velocity": 112}, {"time": 1047, "pitch": 53, "duration": 17, "velocity": 96}, {"time": 1053, "pitch": 65, "duration": 16, "velocity": 106}, {"time": 1059, "pitch": 58, "duration": 8, "velocity": 112}, {"time": 1071, "pitch": 42, "duration": 44, "velocity": 106}, {"time": 1071, "pitch": 58, "duration": 7, "velocity": 106}, {"time": 1071, "pitch": 61, "duration": 13, "velocity": 101}, {"time": 1077, "pitch": 49, "duration": 14, "velocity": 74}, {"time": 1083, "pitch": 58, "duration": 8, "velocity": 96}, {"time": 1089, "pitch": 61, "duration": 5, "velocity": 99}, {"time": 1089, "pitch": 66, "duration": 20, "velocity": 106}, {"time": 1095, "pitch": 49, "duration": 21, "velocity": 91}, {"time": 1101, "pitch": 58, "duration": 7, "velocity": 89}, {"time": 1107, "pitch": 61, "duration": 7, "velocity": 106}, {"time": 1119, "pitch": 44, "duration": 45, "velocity": 106}, {"time": 1119, "pitch": 56, "duration": 11, "velocity": 94}, {"time": 1119, "pitch": 60, "duration": 14, "velocity": 99}, {"time": 1125, "pitch": 51, "duration": 15, "velocity": 85}, {"time": 1131, "pitch": 63, "duration": 22, "velocity": 101}, {"time": 1137, "pitch": 68, "duration": 16, "velocity": 112}, {"time": 1149, "pitch": 51, "duration": 15, "velocity": 89}, {"time": 1155, "pitch": 56, "duration": 3, "velocity": 96}, {"time": 1155, "pitch": 60, "duration": 7, "velocity": 106}, {"time": 1155, "pitch": 63, "duration": 11, "velocity": 106}, {"time": 1155, "pitch": 68, "duration": 9, "velocity": 101}, {"time": 1161, "pitch": 56, "duration": 4, "velocity": 115}, {"time": 1167, "pitch": 49, "duration": 46, "velocity": 106}, {"time": 1167, "pitch": 56, "duration": 6, "velocity": 109}, {"time": 1167, "pitch": 61, "duration": 13, "velocity": 106}, {"time": 1173, "pitch": 53, "duration": 40, "velocity": 82}, {"time": 1179, "pitch": 56, "duration": 3, "velocity": 101}, {"time": 1185, "pitch": 56, "duration": 8, "velocity": 115}, {"time": 1185, "pitch": 63, "duration": 20, "velocity": 115}, {"time": 1197, "pitch": 56, "duration": 8, "velocity": 99}, {"time": 1203, "pitch": 61, "duration": 7, "velocity": 115}, {"time": 1209, "pitch": 56, "duration": 4, "velocity": 115}, {"time": 1215, "pitch": 49, "duration": 23, "velocity": 120}, {"time": 1215, "pitch": 56, "duration": 3, "velocity": 104}, {"time": 1215, "pitch": 59, "duration": 12, "velocity": 120}, {"time": 1215, "pitch": 65, "duration": 11, "velocity": 106}, {"time": 1221, "pitch": 53, "duration": 17, "velocity": 80}, {"time": 1227, "pitch": 56, "duration": 12, "velocity": 115}, {"time": 1233, "pitch": 63, "duration": 5, "velocity": 120}, {"time": 1239, "pitch": 49, "duration": 21, "velocity": 115}, {"time": 1239, "pitch": 59, "duration": 8, "velocity": 107}, {"time": 1239, "pitch": 65, "duration": 13, "velocity": 112}, {"time": 1245, "pitch": 56, "duration": 12, "velocity": 96}, {"time": 1251, "pitch": 59, "duration": 7, "velocity": 107}, {"time": 1257, "pitch": 65, "duration": 6, "velocity": 106}, {"time": 1263, "pitch": 42, "duration": 44, "velocity": 106}, {"time": 1263, "pitch": 58, "duration": 13, "velocity": 101}, {"time": 1269, "pitch": 49, "duration": 19, "velocity": 87}, {"time": 1275, "pitch": 54, "duration": 6, "velocity": 104}, {"time": 1281, "pitch": 61, "duration": 3, "velocity": 99}, {"time": 1287, "pitch": 66, "duration": 13, "velocity": 112}, {"time": 1293, "pitch": 49, "duration": 15, "velocity": 80}, {"time": 1299, "pitch": 58, "duration": 7, "velocity": 99}, {"time": 1305, "pitch": 61, "duration": 3, "velocity": 99}, {"time": 1311, "pitch": 44, "duration": 38, "velocity": 109}, {"time": 1311, "pitch": 56, "duration": 13, "velocity": 104}, {"time": 1311, "pitch": 60, "duration": 13, "velocity": 106}, {"time": 1317, "pitch": 51, "duration": 15, "velocity": 73}, {"time": 1323, "pitch": 63, "duration": 4, "velocity": 99}, {"time": 1329, "pitch": 56, "duration": 12, "velocity": 99}, {"time": 1329, "pitch": 68, "duration": 13, "velocity": 109}, {"time": 1335, "pitch": 51, "duration": 14, "velocity": 74}, {"time": 1341, "pitch": 63, "duration": 10, "velocity": 104}, {"time": 1347, "pitch": 56, "duration": 3, "velocity": 106}, {"time": 1359, "pitch": 53, "duration": 33, "velocity": 112}, {"time": 1359, "pitch": 60, "duration": 8, "velocity": 99}, {"time": 1359, "pitch": 65, "duration": 13, "velocity": 99}, {"time": 1365, "pitch": 56, "duration": 36, "velocity": 78}, {"time": 1371, "pitch": 60, "duration": 3, "velocity": 112}, {"time": 1377, "pitch": 60, "duration": 9, "velocity": 112}, {"time": 1377, "pitch": 68, "duration": 11, "velocity": 109}, {"time": 1389, "pitch": 60, "duration": 8, "velocity": 99}, {"time": 1389, "pitch": 65, "duration": 15, "velocity": 101}, {"time": 1395, "pitch": 53, "duration": 10, "velocity": 82}, {"time": 1401, "pitch": 60, "duration": 4, "velocity": 99}, {"time": 1407, "pitch": 46, "duration": 43, "velocity": 106}, {"time": 1407, "pitch": 58, "duration": 7, "velocity": 104}, {"time": 1407, "pitch": 61, "duration": 14, "velocity": 89}, {"time": 1413, "pitch": 53, "duration": 15, "velocity": 94}, {"time": 1419, "pitch": 58, "duration": 18, "velocity": 115}, {"time": 1425, "pitch": 70, "duration": 24, "velocity": 112}, {"time": 1431, "pitch": 53, "duration": 17, "velocity": 96}, {"time": 1437, "pitch": 65, "duration": 16, "velocity": 106}, {"time": 1443, "pitch": 58, "duration": 8, "velocity": 112}, {"time": 1455, "pitch": 42, "duration": 44, "velocity": 106}, {"time": 1455, "pitch": 58, "duration": 7, "velocity": 106}, {"time": 1455, "pitch": 61, "duration": 13, "velocity": 101}, {"time": 1461, "pitch": 49, "duration": 14, "velocity": 74}, {"time": 1467, "pitch": 58, "duration": 8, "velocity": 96}, {"time": 1473, "pitch": 61, "duration": 5, "velocity": 99}, {"time": 1473, "pitch": 66, "duration": 20, "velocity": 106}, {"time": 1479, "pitch": 49, "duration": 21, "velocity": 91}, {"time": 1485, "pitch": 58, "duration": 7, "velocity": 89}, {"time": 1491, "pitch": 61, "duration": 7, "velocity": 106}, {"time": 1503, "pitch": 44, "duration": 45, "velocity": 106}, {"time": 1503, "pitch": 56, "duration": 11, "velocity": 94}, {"time": 1503, "pitch": 60, "duration": 14, "velocity": 99}, {"time": 1509, "pitch": 51, "duration": 15, "velocity": 85}, {"time": 1515, "pitch": 63, "duration": 22, "velocity": 101}, {"time": 1521, "pitch": 68, "duration": 16, "velocity": 112}, {"time": 1533, "pitch": 51, "duration": 15, "velocity": 89}, {"time": 1539, "pitch": 56, "duration": 3, "velocity": 96}, {"time": 1539, "pitch": 60, "duration": 7, "velocity": 106}, {"time": 1539, "pitch": 63, "duration": 11, "velocity": 106}, {"time": 1539, "pitch": 68, "duration": 9, "velocity": 101}, {"time": 1551, "pitch": 37, "duration": 38, "velocity": 71}, {"time": 1551, "pitch": 44, "duration": 39, "velocity": 73}, {"time": 1599, "pitch": 42, "duration": 35, "velocity": 96}, {"time": 1599, "pitch": 49, "duration": 34, "velocity": 94}, {"time": 1647, "pitch": 37, "duration": 38, "velocity": 71}, {"time": 1647, "pitch": 44, "duration": 39, "velocity": 73}, {"time": 1695, "pitch": 42, "duration": 35, "velocity": 96}, {"time": 1695, "pitch": 49, "duration": 34, "velocity": 94}, {"time": 1743, "pitch": 49, "duration": 41, "velocity": 61}, {"time": 1743, "pitch": 56, "duration": 38, "velocity": 69}, {"time": 1791, "pitch": 49, "duration": 38, "velocity": 87}, {"time": 1791, "pitch": 54, "duration": 36, "velocity": 82}, {"time": 1839, "pitch": 49, "duration": 44, "velocity": 85}, {"time": 1839, "pitch": 56, "duration": 43, "velocity": 87}, {"time": 1887, "pitch": 51, "duration": 44, "velocity": 82}, {"time": 1887, "pitch": 56, "duration": 44, "velocity": 96}, {"time": 1887, "pitch": 60, "duration": 44, "velocity": 89}, {"time": 1935, "pitch": 49, "duration": 41, "velocity": 61}, {"time": 1935, "pitch": 56, "duration": 38, "velocity": 69}, {"time": 1983, "pitch": 49, "duration": 38, "velocity": 87}, {"time": 1983, "pitch": 54, "duration": 36, "velocity": 82}, {"time": 2031, "pitch": 49, "duration": 44, "velocity": 85}, {"time": 2031, "pitch": 56, "duration": 43, "velocity": 87}, {"time": 2079, "pitch": 51, "duration": 44, "velocity": 82}, {"time": 2079, "pitch": 56, "duration": 44, "velocity": 96}, {"time": 2079, "pitch": 60, "duration": 44, "velocity": 89}, {"time": 2127, "pitch": 42, "duration": 46, "velocity": 96}, {"time": 2127, "pitch": 54, "duration": 42, "velocity": 87}, {"time": 2127, "pitch": 58, "duration": 46, "velocity": 94}, {"time": 2175, "pitch": 44, "duration": 45, "velocity": 85}, {"time": 2175, "pitch": 56, "duration": 41, "velocity": 87}, {"time": 2175, "pitch": 60, "duration": 43, "velocity": 96}, {"time": 2223, "pitch": 42, "duration": 45, "velocity": 87}, {"time": 2223, "pitch": 54, "duration": 44, "velocity": 87}, {"time": 2223, "pitch": 58, "duration": 48, "velocity": 96}, {"time": 2271, "pitch": 44, "duration": 16, "velocity": 96}, {"time": 2271, "pitch": 56, "duration": 14, "velocity": 80}, {"time": 2271, "pitch": 60, "duration": 15, "velocity": 91}, {"time": 2289, "pitch": 44, "duration": 26, "velocity": 82}, {"time": 2289, "pitch": 56, "duration": 24, "velocity": 80}, {"time": 2289, "pitch": 60, "duration": 27, "velocity": 89}, {"time": 2319, "pitch": 42, "duration": 40, "velocity": 101}, {"time": 2319, "pitch": 54, "duration": 44, "velocity": 91}, {"time": 2319, "pitch": 58, "duration": 46, "velocity": 96}, {"time": 2367, "pitch": 44, "duration": 46, "velocity": 99}, {"time": 2367, "pitch": 56, "duration": 33, "velocity": 82}, {"time": 2367, "pitch": 60, "duration": 37, "velocity": 96}, {"time": 2397, "pitch": 51, "duration": 15, "velocity": 23}, {"time": 2403, "pitch": 56, "duration": 9, "velocity": 99}, {"time": 2415, "pitch": 49, "duration": 44, "velocity": 89}, {"time": 2415, "pitch": 56, "duration": 20, "velocity": 94}, {"time": 2415, "pitch": 61, "duration": 26, "velocity": 91}, {"time": 2433, "pitch": 65, "duration": 13, "velocity": 101}, {"time": 2439, "pitch": 56, "duration": 13, "velocity": 48}, {"time": 2445, "pitch": 61, "duration": 10, "velocity": 89}, {"time": 2451, "pitch": 65, "duration": 10, "velocity": 96}, {"time": 2463, "pitch": 49, "duration": 9, "velocity": 109}, {"time": 2463, "pitch": 56, "duration": 9, "velocity": 101}, {"time": 2463, "pitch": 61, "duration": 12, "velocity": 99}, {"time": 2475, "pitch": 49, "duration": 9, "velocity": 62}, {"time": 2481, "pitch": 56, "duration": 4, "velocity": 82}, {"time": 2487, "pitch": 49, "duration": 20, "velocity": 104}, {"time": 2487, "pitch": 56, "duration": 9, "velocity": 106}, {"time": 2487, "pitch": 61, "duration": 6, "velocity": 96}, {"time": 2487, "pitch": 65, "duration": 5, "velocity": 101}, {"time": 2499, "pitch": 56, "duration": 7, "velocity": 106}, {"time": 2499, "pitch": 59, "duration": 10, "velocity": 113}, {"time": 2511, "pitch": 42, "duration": 44, "velocity": 106}, {"time": 2511, "pitch": 58, "duration": 13, "velocity": 101}, {"time": 2517, "pitch": 49, "duration": 19, "velocity": 87}, {"time": 2523, "pitch": 54, "duration": 6, "velocity": 104}, {"time": 2529, "pitch": 61, "duration": 3, "velocity": 99}, {"time": 2535, "pitch": 66, "duration": 13, "velocity": 112}, {"time": 2541, "pitch": 49, "duration": 15, "velocity": 80}, {"time": 2547, "pitch": 58, "duration": 7, "velocity": 99}, {"time": 2553, "pitch": 61, "duration": 3, "velocity": 99}, {"time": 2559, "pitch": 44, "duration": 38, "velocity": 109}, {"time": 2559, "pitch": 56, "duration": 13, "velocity": 104}, {"time": 2559, "pitch": 60, "duration": 13, "velocity": 106}, {"time": 2565, "pitch": 51, "duration": 15, "velocity": 73}, {"time": 2571, "pitch": 63, "duration": 4, "velocity": 99}, {"time": 2577, "pitch": 56, "duration": 12, "velocity": 99}, {"time": 2577, "pitch": 68, "duration": 13, "velocity": 109}, {"time": 2583, "pitch": 51, "duration": 14, "velocity": 74}, {"time": 2589, "pitch": 63, "duration": 10, "velocity": 104}, {"time": 2595, "pitch": 56, "duration": 3, "velocity": 106}, {"time": 2607, "pitch": 53, "duration": 33, "velocity": 112}, {"time": 2607, "pitch": 60, "duration": 8, "velocity": 99}, {"time": 2607, "pitch": 65, "duration": 13, "velocity": 99}, {"time": 2613, "pitch": 56, "duration": 36, "velocity": 78}, {"time": 2619, "pitch": 60, "duration": 3, "velocity": 112}, {"time": 2625, "pitch": 60, "duration": 9, "velocity": 112}, {"time": 2625, "pitch": 68, "duration": 11, "velocity": 109}, {"time": 2637, "pitch": 60, "duration": 8, "velocity": 99}, {"time": 2637, "pitch": 65, "duration": 15, "velocity": 101}, {"time": 2643, "pitch": 53, "duration": 10, "velocity": 82}, {"time": 2649, "pitch": 60, "duration": 4, "velocity": 99}, {"time": 2655, "pitch": 46, "duration": 43, "velocity": 106}, {"time": 2655, "pitch": 58, "duration": 7, "velocity": 104}, {"time": 2655, "pitch": 61, "duration": 14, "velocity": 89}, {"time": 2661, "pitch": 53, "duration": 15, "velocity": 94}, {"time": 2667, "pitch": 58, "duration": 18, "velocity": 115}, {"time": 2673, "pitch": 70, "duration": 24, "velocity": 112}, {"time": 2679, "pitch": 53, "duration": 17, "velocity": 96}, {"time": 2685, "pitch": 65, "duration": 16, "velocity": 106}, {"time": 2691, "pitch": 58, "duration": 8, "velocity": 112}, {"time": 2703, "pitch": 42, "duration": 44, "velocity": 106}, {"time": 2703, "pitch": 58, "duration": 7, "velocity": 106}, {"time": 2703, "pitch": 61, "duration": 13, "velocity": 101}, {"time": 2709, "pitch": 49, "duration": 14, "velocity": 74}, {"time": 2715, "pitch": 58, "duration": 8, "velocity": 96}, {"time": 2721, "pitch": 61, "duration": 5, "velocity": 99}, {"time": 2721, "pitch": 66, "duration": 20, "velocity": 106}, {"time": 2727, "pitch": 49, "duration": 21, "velocity": 91}, {"time": 2733, "pitch": 58, "duration": 7, "velocity": 89}, {"time": 2739, "pitch": 61, "duration": 7, "velocity": 106}, {"time": 2751, "pitch": 44, "duration": 45, "velocity": 106}, {"time": 2751, "pitch": 56, "duration": 11, "velocity": 94}, {"time": 2751, "pitch": 60, "duration": 14, "velocity": 99}, {"time": 2757, "pitch": 51, "duration": 15, "velocity": 85}, {"time": 2763, "pitch": 63, "duration": 22, "velocity": 101}, {"time": 2769, "pitch": 68, "duration": 16, "velocity": 112}, {"time": 2781, "pitch": 51, "duration": 15, "velocity": 89}, {"time": 2787, "pitch": 56, "duration": 3, "velocity": 96}, {"time": 2787, "pitch": 60, "duration": 7, "velocity": 106}, {"time": 2787, "pitch": 63, "duration": 11, "velocity": 106}, {"time": 2787, "pitch": 68, "duration": 9, "velocity": 101}, {"time": 2793, "pitch": 56, "duration": 4, "velocity": 115}, {"time": 2799, "pitch": 49, "duration": 46, "velocity": 106}, {"time": 2799, "pitch": 56, "duration": 6, "velocity": 109}, {"time": 2799, "pitch": 61, "duration": 13, "velocity": 106}, {"time": 2805, "pitch": 53, "duration": 40, "velocity": 82}, {"time": 2811, "pitch": 56, "duration": 3, "velocity": 101}, {"time": 2817, "pitch": 56, "duration": 8, "velocity": 115}, {"time": 2817, "pitch": 63, "duration": 20, "velocity": 115}, {"time": 2829, "pitch": 56, "duration": 8, "velocity": 99}, {"time": 2835, "pitch": 61, "duration": 7, "velocity": 115}, {"time": 2841, "pitch": 56, "duration": 4, "velocity": 115}, {"time": 2847, "pitch": 49, "duration": 23, "velocity": 120}, {"time": 2847, "pitch": 56, "duration": 3, "velocity": 104}, {"time": 2847, "pitch": 59, "duration": 12, "velocity": 120}, {"time": 2847, "pitch": 65, "duration": 11, "velocity": 106}, {"time": 2853, "pitch": 53, "duration": 17, "velocity": 80}, {"time": 2859, "pitch": 56, "duration": 12, "velocity": 115}, {"time": 2865, "pitch": 63, "duration": 5, "velocity": 120}, {"time": 2871, "pitch": 49, "duration": 21, "velocity": 115}, {"time": 2871, "pitch": 59, "duration": 8, "velocity": 107}, {"time": 2871, "pitch": 65, "duration": 13, "velocity": 112}, {"time": 2877, "pitch": 56, "duration": 12, "velocity": 96}, {"time": 2883, "pitch": 59, "duration": 7, "velocity": 107}, {"time": 2889, "pitch": 65, "duration": 6, "velocity": 106}, {"time": 2895, "pitch": 42, "duration": 44, "velocity": 106}, {"time": 2895, "pitch": 58, "duration": 13, "velocity": 101}, {"time": 2901, "pitch": 49, "duration": 19, "velocity": 87}, {"time": 2907, "pitch": 54, "duration": 6, "velocity": 104}, {"time": 2913, "pitch": 61, "duration": 3, "velocity": 99}, {"time": 2919, "pitch": 66, "duration": 13, "velocity": 112}, {"time": 2925, "pitch": 49, "duration": 15, "velocity": 80}, {"time": 2931, "pitch": 58, "duration": 7, "velocity": 99}, {"time": 2937, "pitch": 61, "duration": 3, "velocity": 99}, {"time": 2943, "pitch": 44, "duration": 38, "velocity": 109}, {"time": 2943, "pitch": 56, "duration": 13, "velocity": 104}, {"time": 2943, "pitch": 60, "duration": 13, "velocity": 106}, {"time": 2949, "pitch": 51, "duration": 15, "velocity": 73}, {"time": 2955, "pitch": 63, "duration": 4, "velocity": 99}, {"time": 2961, "pitch": 56, "duration": 12, "velocity": 99}, {"time": 2961, "pitch": 68, "duration": 13, "velocity": 109}, {"time": 2967, "pitch": 51, "duration": 14, "velocity": 74}, {"time": 2973, "pitch": 63, "duration": 10, "velocity": 104}, {"time": 2979, "pitch": 56, "duration": 3, "velocity": 106}, {"time": 2991, "pitch": 53, "duration": 33, "velocity": 112}, {"time": 2991, "pitch": 60, "duration": 8, "velocity": 99}, {"time": 2991, "pitch": 65, "duration": 13, "velocity": 99}, {"time": 2997, "pitch": 56, "duration": 36, "velocity": 78}, {"time": 3003, "pitch": 60, "duration": 3, "velocity": 112}, {"time": 3009, "pitch": 60, "duration": 9, "velocity": 112}, {"time": 3009, "pitch": 68, "duration": 11, "velocity": 109}, {"time": 3021, "pitch": 60, "duration": 8, "velocity": 99}, {"time": 3021, "pitch": 65, "duration": 15, "velocity": 101}, {"time": 3027, "pitch": 53, "duration": 10, "velocity": 82}, {"time": 3033, "pitch": 60, "duration": 4, "velocity": 99}, {"time": 3039, "pitch": 46, "duration": 43, "velocity": 106}, {"time": 3039, "pitch": 58, "duration": 7, "velocity": 104}, {"time": 3039, "pitch": 61, "duration": 14, "velocity": 89}, {"time": 3045, "pitch": 53, "duration": 15, "velocity": 94}, {"time": 3051, "pitch": 58, "duration": 18, "velocity": 115}, {"time": 3057, "pitch": 70, "duration": 24, "velocity": 112}, {"time": 3063, "pitch": 53, "duration": 17, "velocity": 96}, {"time": 3069, "pitch": 65, "duration": 16, "velocity": 106}, {"time": 3075, "pitch": 58, "duration": 8, "velocity": 112}, {"time": 3087, "pitch": 58, "duration": 13, "velocity": 96}, {"time": 3087, "pitch": 42, "duration": 37, "velocity": 104}, {"time": 3087, "pitch": 54, "duration": 7, "velocity": 96}, {"time": 3093, "pitch": 49, "duration": 31, "velocity": 62}, {"time": 3099, "pitch": 54, "duration": 23, "velocity": 76}, {"time": 3105, "pitch": 61, "duration": 18, "velocity": 99}, {"time": 3133, "pitch": 56, "duration": 5, "velocity": 69}, {"time": 3134, "pitch": 60, "duration": 3, "velocity": 94}, {"time": 3135, "pitch": 44, "duration": 46, "velocity": 104}, {"time": 3135, "pitch": 63, "duration": 15, "velocity": 99}, {"time": 3140, "pitch": 51, "duration": 26, "velocity": 82}, {"time": 3146, "pitch": 56, "duration": 11, "velocity": 99}, {"time": 3153, "pitch": 68, "duration": 30, "velocity": 104}, {"time": 3165, "pitch": 56, "duration": 7, "velocity": 85}, {"time": 3171, "pitch": 60, "duration": 11, "velocity": 101}, {"time": 3177, "pitch": 56, "duration": 5, "velocity": 89}, {"time": 3183, "pitch": 37, "duration": 37, "velocity": 94}, {"time": 3189, "pitch": 44, "duration": 29, "velocity": 59}, {"time": 3195, "pitch": 49, "duration": 16, "velocity": 99}, {"time": 3201, "pitch": 56, "duration": 15, "velocity": 80}, {"time": 3213, "pitch": 49, "duration": 6, "velocity": 82}, {"time": 3219, "pitch": 61, "duration": 14, "velocity": 101}, {"time": 3231, "pitch": 42, "duration": 40, "velocity": 99}, {"time": 3237, "pitch": 49, "duration": 16, "velocity": 56}, {"time": 3243, "pitch": 54, "duration": 25, "velocity": 89}, {"time": 3249, "pitch": 58, "duration": 19, "velocity": 91}, {"time": 3249, "pitch": 61, "duration": 20, "velocity": 96}, {"time": 3279, "pitch": 37, "duration": 31, "velocity": 96}, {"time": 3279, "pitch": 56, "duration": 8, "velocity": 69}, {"time": 3279, "pitch": 61, "duration": 13, "velocity": 89}, {"time": 3285, "pitch": 44, "duration": 22, "velocity": 54}, {"time": 3291, "pitch": 56, "duration": 22, "velocity": 82}, {"time": 3297, "pitch": 61, "duration": 15, "velocity": 99}, {"time": 3297, "pitch": 65, "duration": 15, "velocity": 101}, {"time": 3327, "pitch": 42, "duration": 44, "velocity": 99}, {"time": 3327, "pitch": 54, "duration": 7, "velocity": 80}, {"time": 3327, "pitch": 58, "duration": 15, "velocity": 89}, {"time": 3333, "pitch": 49, "duration": 26, "velocity": 61}, {"time": 3339, "pitch": 54, "duration": 4, "velocity": 71}, {"time": 3345, "pitch": 54, "duration": 28, "velocity": 91}, {"time": 3345, "pitch": 58, "duration": 28, "velocity": 101}, {"time": 3345, "pitch": 61, "duration": 29, "velocity": 94}, {"time": 3375, "pitch": 37, "duration": 38, "velocity": 99}, {"time": 3375, "pitch": 56, "duration": 7, "velocity": 85}, {"time": 3375, "pitch": 61, "duration": 13, "velocity": 91}, {"time": 3381, "pitch": 44, "duration": 20, "velocity": 48}, {"time": 3387, "pitch": 56, "duration": 18, "velocity": 99}, {"time": 3393, "pitch": 61, "duration": 12, "velocity": 101}, {"time": 3393, "pitch": 65, "duration": 16, "velocity": 101}, {"time": 3405, "pitch": 44, "duration": 6, "velocity": 64}, {"time": 3411, "pitch": 63, "duration": 7, "velocity": 112}, {"time": 3417, "pitch": 61, "duration": 4, "velocity": 91}, {"time": 3423, "pitch": 44, "duration": 44, "velocity": 101}, {"time": 3423, "pitch": 63, "duration": 14, "velocity": 91}, {"time": 3429, "pitch": 51, "duration": 13, "velocity": 67}, {"time": 3435, "pitch": 56, "duration": 3, "velocity": 91}, {"time": 3441, "pitch": 56, "duration": 15, "velocity": 101}, {"time": 3441, "pitch": 60, "duration": 19, "velocity": 101}, {"time": 3453, "pitch": 51, "duration": 11, "velocity": 48}, {"time": 3459, "pitch": 56, "duration": 11, "velocity": 99}, {"time": 3465, "pitch": 60, "duration": 5, "velocity": 96}, {"time": 3471, "pitch": 42, "duration": 43, "velocity": 101}, {"time": 3471, "pitch": 54, "duration": 7, "velocity": 96}, {"time": 3471, "pitch": 58, "duration": 13, "velocity": 101}, {"time": 3477, "pitch": 49, "duration": 14, "velocity": 67}, {"time": 3483, "pitch": 54, "duration": 16, "velocity": 69}, {"time": 3489, "pitch": 58, "duration": 5, "velocity": 71}, {"time": 3489, "pitch": 66, "duration": 28, "velocity": 106}, {"time": 3501, "pitch": 49, "duration": 12, "velocity": 43}, {"time": 3507, "pitch": 54, "duration": 7, "velocity": 99}, {"time": 3513, "pitch": 58, "duration": 4, "velocity": 101}, {"time": 3519, "pitch": 44, "duration": 49, "velocity": 101}, {"time": 3519, "pitch": 56, "duration": 7, "velocity": 87}, {"time": 3519, "pitch": 60, "duration": 13, "velocity": 96}, {"time": 3525, "pitch": 51, "duration": 14, "velocity": 78}, {"time": 3531, "pitch": 56, "duration": 4, "velocity": 89}, {"time": 3537, "pitch": 60, "duration": 19, "velocity": 99}, {"time": 3537, "pitch": 63, "duration": 29, "velocity": 101}, {"time": 3549, "pitch": 51, "duration": 18, "velocity": 82}, {"time": 3555, "pitch": 56, "duration": 12, "velocity": 87}, {"time": 3561, "pitch": 60, "duration": 6, "velocity": 94}, {"time": 3567, "pitch": 42, "duration": 40, "velocity": 101}, {"time": 3567, "pitch": 54, "duration": 44, "velocity": 91}, {"time": 3567, "pitch": 58, "duration": 46, "velocity": 96}, {"time": 3615, "pitch": 44, "duration": 46, "velocity": 99}, {"time": 3615, "pitch": 56, "duration": 33, "velocity": 82}, {"time": 3615, "pitch": 60, "duration": 37, "velocity": 96}, {"time": 3645, "pitch": 51, "duration": 15, "velocity": 23}, {"time": 3651, "pitch": 56, "duration": 9, "velocity": 99}, {"time": 3663, "pitch": 49, "duration": 44, "velocity": 89}, {"time": 3663, "pitch": 56, "duration": 20, "velocity": 94}, {"time": 3663, "pitch": 61, "duration": 26, "velocity": 91}, {"time": 3681, "pitch": 65, "duration": 13, "velocity": 101}, {"time": 3687, "pitch": 37, "duration": 23, "velocity": 99}, {"time": 3687, "pitch": 56, "duration": 13, "velocity": 48}, {"time": 3693, "pitch": 61, "duration": 10, "velocity": 89}, {"time": 3699, "pitch": 65, "duration": 10, "velocity": 96}, {"time": 3711, "pitch": 37, "duration": 22, "velocity": 99}, {"time": 3711, "pitch": 49, "duration": 9, "velocity": 109}, {"time": 3711, "pitch": 56, "duration": 9, "velocity": 101}, {"time": 3711, "pitch": 61, "duration": 12, "velocity": 99}, {"time": 3723, "pitch": 49, "duration": 9, "velocity": 62}, {"time": 3729, "pitch": 56, "duration": 4, "velocity": 82}, {"time": 3734, "pitch": 41, "duration": 22, "velocity": 109}, {"time": 3735, "pitch": 49, "duration": 20, "velocity": 104}, {"time": 3735, "pitch": 56, "duration": 9, "velocity": 106}, {"time": 3735, "pitch": 61, "duration": 6, "velocity": 96}, {"time": 3735, "pitch": 65, "duration": 5, "velocity": 101}, {"time": 3747, "pitch": 56, "duration": 7, "velocity": 106}, {"time": 3747, "pitch": 59, "duration": 10, "velocity": 113}, {"time": 3759, "pitch": 42, "duration": 44, "velocity": 106}, {"time": 3759, "pitch": 58, "duration": 13, "velocity": 101}, {"time": 3765, "pitch": 49, "duration": 19, "velocity": 87}, {"time": 3771, "pitch": 54, "duration": 6, "velocity": 104}, {"time": 3777, "pitch": 61, "duration": 3, "velocity": 99}, {"time": 3783, "pitch": 66, "duration": 13, "velocity": 112}, {"time": 3789, "pitch": 49, "duration": 15, "velocity": 80}, {"time": 3795, "pitch": 58, "duration": 7, "velocity": 99}, {"time": 3801, "pitch": 61, "duration": 3, "velocity": 99}, {"time": 3807, "pitch": 44, "duration": 38, "velocity": 109}, {"time": 3807, "pitch": 56, "duration": 13, "velocity": 104}, {"time": 3807, "pitch": 60, "duration": 13, "velocity": 106}, {"time": 3813, "pitch": 51, "duration": 15, "velocity": 73}, {"time": 3819, "pitch": 63, "duration": 4, "velocity": 99}, {"time": 3825, "pitch": 56, "duration": 12, "velocity": 99}, {"time": 3825, "pitch": 68, "duration": 13, "velocity": 109}, {"time": 3831, "pitch": 51, "duration": 14, "velocity": 74}, {"time": 3837, "pitch": 63, "duration": 10, "velocity": 104}, {"time": 3843, "pitch": 56, "duration": 3, "velocity": 106}, {"time": 3855, "pitch": 53, "duration": 33, "velocity": 112}, {"time": 3855, "pitch": 60, "duration": 8, "velocity": 99}, {"time": 3855, "pitch": 65, "duration": 13, "velocity": 99}, {"time": 3861, "pitch": 56, "duration": 36, "velocity": 78}, {"time": 3867, "pitch": 60, "duration": 3, "velocity": 112}, {"time": 3873, "pitch": 60, "duration": 9, "velocity": 112}, {"time": 3873, "pitch": 68, "duration": 11, "velocity": 109}, {"time": 3885, "pitch": 60, "duration": 8, "velocity": 99}, {"time": 3885, "pitch": 65, "duration": 15, "velocity": 101}, {"time": 3891, "pitch": 53, "duration": 10, "velocity": 82}, {"time": 3897, "pitch": 60, "duration": 4, "velocity": 99}, {"time": 3903, "pitch": 46, "duration": 43, "velocity": 106}, {"time": 3903, "pitch": 58, "duration": 7, "velocity": 104}, {"time": 3903, "pitch": 61, "duration": 14, "velocity": 89}, {"time": 3909, "pitch": 53, "duration": 15, "velocity": 94}, {"time": 3915, "pitch": 58, "duration": 18, "velocity": 115}, {"time": 3921, "pitch": 70, "duration": 24, "velocity": 112}, {"time": 3927, "pitch": 53, "duration": 17, "velocity": 96}, {"time": 3933, "pitch": 65, "duration": 16, "velocity": 106}, {"time": 3939, "pitch": 58, "duration": 8, "velocity": 112}, {"time": 3951, "pitch": 42, "duration": 44, "velocity": 106}, {"time": 3951, "pitch": 58, "duration": 7, "velocity": 106}, {"time": 3951, "pitch": 61, "duration": 13, "velocity": 101}, {"time": 3957, "pitch": 49, "duration": 14, "velocity": 74}, {"time": 3963, "pitch": 58, "duration": 8, "velocity": 96}, {"time": 3969, "pitch": 61, "duration": 5, "velocity": 99}, {"time": 3969, "pitch": 66, "duration": 20, "velocity": 106}, {"time": 3975, "pitch": 49, "duration": 21, "velocity": 91}, {"time": 3981, "pitch": 58, "duration": 7, "velocity": 89}, {"time": 3987, "pitch": 61, "duration": 7, "velocity": 106}, {"time": 3999, "pitch": 44, "duration": 45, "velocity": 106}, {"time": 3999, "pitch": 56, "duration": 11, "velocity": 94}, {"time": 3999, "pitch": 60, "duration": 14, "velocity": 99}, {"time": 4005, "pitch": 51, "duration": 15, "velocity": 85}, {"time": 4011, "pitch": 63, "duration": 22, "velocity": 101}, {"time": 4017, "pitch": 68, "duration": 16, "velocity": 112}, {"time": 4029, "pitch": 51, "duration": 15, "velocity": 89}, {"time": 4035, "pitch": 56, "duration": 3, "velocity": 96}, {"time": 4035, "pitch": 60, "duration": 7, "velocity": 106}, {"time": 4035, "pitch": 63, "duration": 11, "velocity": 106}, {"time": 4035, "pitch": 68, "duration": 9, "velocity": 101}, {"time": 4041, "pitch": 56, "duration": 4, "velocity": 115}, {"time": 4047, "pitch": 49, "duration": 46, "velocity": 106}, {"time": 4047, "pitch": 56, "duration": 6, "velocity": 109}, {"time": 4047, "pitch": 61, "duration": 13, "velocity": 106}, {"time": 4053, "pitch": 53, "duration": 40, "velocity": 82}, {"time": 4059, "pitch": 56, "duration": 3, "velocity": 101}, {"time": 4065, "pitch": 56, "duration": 8, "velocity": 115}, {"time": 4065, "pitch": 63, "duration": 20, "velocity": 115}, {"time": 4077, "pitch": 56, "duration": 8, "velocity": 99}, {"time": 4083, "pitch": 61, "duration": 7, "velocity": 115}, {"time": 4089, "pitch": 56, "duration": 4, "velocity": 115}, {"time": 4095, "pitch": 49, "duration": 23, "velocity": 120}, {"time": 4095, "pitch": 56, "duration": 3, "velocity": 104}, {"time": 4095, "pitch": 59, "duration": 12, "velocity": 120}, {"time": 4095, "pitch": 65, "duration": 11, "velocity": 106}, {"time": 4101, "pitch": 53, "duration": 17, "velocity": 80}, {"time": 4107, "pitch": 56, "duration": 12, "velocity": 115}, {"time": 4113, "pitch": 63, "duration": 5, "velocity": 120}, {"time": 4119, "pitch": 49, "duration": 21, "velocity": 115}, {"time": 4119, "pitch": 59, "duration": 8, "velocity": 107}, {"time": 4119, "pitch": 65, "duration": 13, "velocity": 112}, {"time": 4125, "pitch": 56, "duration": 12, "velocity": 96}, {"time": 4131, "pitch": 59, "duration": 7, "velocity": 107}, {"time": 4137, "pitch": 65, "duration": 6, "velocity": 106}, {"time": 4143, "pitch": 42, "duration": 44, "velocity": 106}, {"time": 4143, "pitch": 58, "duration": 13, "velocity": 101}, {"time": 4149, "pitch": 49, "duration": 19, "velocity": 87}, {"time": 4155, "pitch": 54, "duration": 6, "velocity": 104}, {"time": 4161, "pitch": 61, "duration": 3, "velocity": 99}, {"time": 4167, "pitch": 66, "duration": 13, "velocity": 112}, {"time": 4173, "pitch": 49, "duration": 15, "velocity": 80}, {"time": 4179, "pitch": 58, "duration": 7, "velocity": 99}, {"time": 4185, "pitch": 61, "duration": 3, "velocity": 99}, {"time": 4191, "pitch": 44, "duration": 38, "velocity": 109}, {"time": 4191, "pitch": 56, "duration": 13, "velocity": 104}, {"time": 4191, "pitch": 60, "duration": 13, "velocity": 106}, {"time": 4197, "pitch": 51, "duration": 15, "velocity": 73}, {"time": 4203, "pitch": 63, "duration": 4, "velocity": 99}, {"time": 4209, "pitch": 56, "duration": 12, "velocity": 99}, {"time": 4209, "pitch": 68, "duration": 13, "velocity": 109}, {"time": 4215, "pitch": 51, "duration": 14, "velocity": 74}, {"time": 4221, "pitch": 63, "duration": 10, "velocity": 104}, {"time": 4227, "pitch": 56, "duration": 3, "velocity": 106}, {"time": 4239, "pitch": 53, "duration": 33, "velocity": 112}, {"time": 4239, "pitch": 60, "duration": 8, "velocity": 99}, {"time": 4239, "pitch": 65, "duration": 13, "velocity": 99}, {"time": 4245, "pitch": 56, "duration": 36, "velocity": 78}, {"time": 4251, "pitch": 60, "duration": 3, "velocity": 112}, {"time": 4257, "pitch": 60, "duration": 9, "velocity": 112}, {"time": 4257, "pitch": 68, "duration": 11, "velocity": 109}, {"time": 4269, "pitch": 60, "duration": 8, "velocity": 99}, {"time": 4269, "pitch": 65, "duration": 15, "velocity": 101}, {"time": 4275, "pitch": 53, "duration": 10, "velocity": 82}, {"time": 4281, "pitch": 60, "duration": 4, "velocity": 99}, {"time": 4287, "pitch": 46, "duration": 43, "velocity": 106}, {"time": 4287, "pitch": 58, "duration": 7, "velocity": 104}, {"time": 4287, "pitch": 61, "duration": 14, "velocity": 89}, {"time": 4293, "pitch": 53, "duration": 15, "velocity": 94}, {"time": 4299, "pitch": 58, "duration": 18, "velocity": 115}, {"time": 4305, "pitch": 70, "duration": 24, "velocity": 112}, {"time": 4311, "pitch": 53, "duration": 17, "velocity": 96}, {"time": 4317, "pitch": 65, "duration": 16, "velocity": 106}, {"time": 4323, "pitch": 58, "duration": 8, "velocity": 112}, {"time": 4335, "pitch": 58, "duration": 13, "velocity": 96}, {"time": 4335, "pitch": 42, "duration": 37, "velocity": 104}, {"time": 4335, "pitch": 54, "duration": 7, "velocity": 96}, {"time": 4341, "pitch": 49, "duration": 31, "velocity": 62}, {"time": 4347, "pitch": 54, "duration": 23, "velocity": 76}, {"time": 4353, "pitch": 61, "duration": 18, "velocity": 99}, {"time": 4381, "pitch": 56, "duration": 5, "velocity": 69}, {"time": 4382, "pitch": 60, "duration": 3, "velocity": 94}, {"time": 4383, "pitch": 44, "duration": 46, "velocity": 104}, {"time": 4383, "pitch": 63, "duration": 15, "velocity": 99}, {"time": 4388, "pitch": 51, "duration": 26, "velocity": 82}, {"time": 4394, "pitch": 56, "duration": 11, "velocity": 99}, {"time": 4401, "pitch": 68, "duration": 30, "velocity": 104}, {"time": 4413, "pitch": 56, "duration": 7, "velocity": 85}, {"time": 4419, "pitch": 60, "duration": 11, "velocity": 101}, {"time": 4425, "pitch": 56, "duration": 5, "velocity": 89}, {"time": 4431, "pitch": 37, "duration": 37, "velocity": 94}, {"time": 4437, "pitch": 44, "duration": 29, "velocity": 59}, {"time": 4443, "pitch": 49, "duration": 16, "velocity": 99}, {"time": 4449, "pitch": 56, "duration": 15, "velocity": 80}, {"time": 4461, "pitch": 49, "duration": 6, "velocity": 82}, {"time": 4467, "pitch": 61, "duration": 14, "velocity": 101}, {"time": 4479, "pitch": 42, "duration": 40, "velocity": 99}, {"time": 4485, "pitch": 49, "duration": 16, "velocity": 56}, {"time": 4491, "pitch": 54, "duration": 25, "velocity": 89}, {"time": 4497, "pitch": 58, "duration": 19, "velocity": 91}, {"time": 4497, "pitch": 61, "duration": 20, "velocity": 96}, {"time": 4527, "pitch": 37, "duration": 31, "velocity": 96}, {"time": 4527, "pitch": 56, "duration": 8, "velocity": 69}, {"time": 4527, "pitch": 61, "duration": 13, "velocity": 89}, {"time": 4533, "pitch": 44, "duration": 22, "velocity": 54}, {"time": 4539, "pitch": 56, "duration": 22, "velocity": 82}, {"time": 4545, "pitch": 61, "duration": 15, "velocity": 99}, {"time": 4545, "pitch": 65, "duration": 15, "velocity": 101}, {"time": 4575, "pitch": 42, "duration": 44, "velocity": 99}, {"time": 4575, "pitch": 54, "duration": 7, "velocity": 80}, {"time": 4575, "pitch": 58, "duration": 15, "velocity": 89}, {"time": 4581, "pitch": 49, "duration": 26, "velocity": 61}, {"time": 4587, "pitch": 54, "duration": 4, "velocity": 71}, {"time": 4593, "pitch": 54, "duration": 28, "velocity": 91}, {"time": 4593, "pitch": 58, "duration": 28, "velocity": 101}, {"time": 4593, "pitch": 61, "duration": 29, "velocity": 94}, {"time": 4622, "pitch": 37, "duration": 84, "velocity": 96}, {"time": 4626, "pitch": 44, "duration": 33, "velocity": 85}, {"time": 4630, "pitch": 49, "duration": 3, "velocity": 82}, {"time": 4633, "pitch": 51, "duration": 2, "velocity": 89}, {"time": 4636, "pitch": 53, "duration": 5, "velocity": 96}, {"time": 4640, "pitch": 56, "duration": 5, "velocity": 99}, {"time": 4644, "pitch": 61, "duration": 6, "velocity": 87}, {"time": 4667, "pitch": 44, "duration": 38, "velocity": 6}, {"time": 4670, "pitch": 61, "duration": 39, "velocity": 73}, {"time": 4672, "pitch": 63, "duration": 4, "velocity": 46}, {"time": 4672, "pitch": 65, "duration": 4, "velocity": 32}, {"time": 4673, "pitch": 73, "duration": 36, "velocity": 66}], "annotations": [{"time": 48, "annotation": {"number": 64, "value": 127}, "group": "control_change"}, {"time": 62, "annotation": {"number": 64, "value": 0}, "group": "control_change"}, {"time": 89, "annotation": {"number": 64, "value": 127}, "group": "control_change"}, {"time": 109, "annotation": {"number": 64, "value": 0}, "group": "control_change"}, {"time": 138, "annotation": {"number": 64, "value": 127}, "group": "control_change"}, {"time": 156, "annotation": {"number": 64, "value": 0}, "group": "control_change"}, {"time": 184, "annotation": {"number": 64, "value": 127}, "group": "control_change"}, {"time": 204, "annotation": {"number": 64, "value": 0}, "group": "control_change"}, {"time": 330, "annotation": {"number": 64, "value": 127}, "group": "control_change"}, {"time": 348, "annotation": {"number": 64, "value": 0}, "group": "control_change"}, {"time": 376, "annotation": {"number": 64, "value": 127}, "group": "control_change"}, {"time": 396, "annotation": {"number": 64, "value": 0}, "group": "control_change"}, {"time": 820, "annotation": {"number": 64, "value": 127}, "group": "control_change"}, {"time": 828, "annotation": {"number": 64, "value": 0}, "group": "control_change"}, {"time": 833, "annotation": {"number": 64, "value": 127}, "group": "control_change"}, {"time": 854, "annotation": {"number": 64, "value": 0}, "group": "control_change"}, {"time": 856, "annotation": {"number": 64, "value": 127}, "group": "control_change"}, {"time": 875, "annotation": {"number": 64, "value": 0}, "group": "control_change"}, {"time": 881, "annotation": {"number": 64, "value": 127}, "group": "control_change"}, {"time": 925, "annotation": {"number": 64, "value": 0}, "group": "control_change"}, {"time": 929, "annotation": {"number": 64, "value": 127}, "group": "control_change"}, {"time": 973, "annotation": {"number": 64, "value": 0}, "group": "control_change"}, {"time": 977, "annotation": {"number": 64, "value": 127}, "group": "control_change"}, {"time": 1021, "annotation": {"number": 64, "value": 0}, "group": "control_change"}, {"time": 1025, "annotation": {"number": 64, "value": 127}, "group": "control_change"}, {"time": 1070, "annotation": {"number": 64, "value": 0}, "group": "control_change"}, {"time": 1071, "annotation": {"number": 64, "value": 127}, "group": "control_change"}, {"time": 1118, "annotation": {"number": 64, "value": 0}, "group": "control_change"}, {"time": 1123, "annotation": {"number": 64, "value": 127}, "group": "control_change"}, {"time": 1164, "annotation": {"number": 64, "value": 0}, "group": "control_change"}, {"time": 1169, "annotation": {"number": 64, "value": 127}, "group": "control_change"}, {"time": 1213, "annotation": {"number": 64, "value": 0}, "group": "control_change"}, {"time": 1215, "annotation": {"number": 64, "value": 127}, "group": "control_change"}, {"time": 1237, "annotation": {"number": 64, "value": 0}, "group": "control_change"}, {"time": 1239, "annotation": {"number": 64, "value": 127}, "group": "control_change"}, {"time": 1261, "annotation": {"number": 64, "value": 0}, "group": "control_change"}, {"time": 1265, "annotation": {"number": 64, "value": 127}, "group": "control_change"}, {"time": 1309, "annotation": {"number": 64, "value": 0}, "group": "control_change"}, {"time": 1313, "annotation": {"number": 64, "value": 127}, "group": "control_change"}, {"time": 1357, "annotation": {"number": 64, "value": 0}, "group": "control_change"}, {"time": 1361, "annotation": {"number": 64, "value": 127}, "group": "control_change"}, {"time": 1405, "annotation": {"number": 64, "value": 0}, "group": "control_change"}, {"time": 1409, "annotation": {"number": 64, "value": 127}, "group": "control_change"}, {"time": 1454, "annotation": {"number": 64, "value": 0}, "group": "control_change"}, {"time": 1455, "annotation": {"number": 64, "value": 127}, "group": "control_change"}, {"time": 1502, "annotation": {"number": 64, "value": 0}, "group": "control_change"}, {"time": 1507, "annotation": {"number": 64, "value": 127}, "group": "control_change"}, {"time": 1548, "annotation": {"number": 64, "value": 0}, "group": "control_change"}, {"time": 1584, "annotation": {"number": 64, "value": 127}, "group": "control_change"}, {"time": 1598, "annotation": {"number": 64, "value": 0}, "group": "control_change"}, {"time": 1625, "annotation": {"number": 64, "value": 127}, "group": "control_change"}, {"time": 1645, "annotation": {"number": 64, "value": 0}, "group": "control_change"}, {"time": 1680, "annotation": {"number": 64, "value": 127}, "group": "control_change"}, {"time": 1694, "annotation": {"number": 64, "value": 0}, "group": "control_change"}, {"time": 1721, "annotation": {"number": 64, "value": 127}, "group": "control_change"}, {"time": 1741, "annotation": {"number": 64, "value": 0}, "group": "control_change"}, {"time": 1770, "annotation": {"number": 64, "value": 127}, "group": "control_change"}, {"time": 1788, "annotation": {"number": 64, "value": 0}, "group": "control_change"}, {"time": 1816, "annotation": {"number": 64, "value": 127}, "group": "control_change"}, {"time": 1836, "annotation": {"number": 64, "value": 0}, "group": "control_change"}, {"time": 1962, "annotation": {"number": 64, "value": 127}, "group": "control_change"}, {"time": 1980, "annotation": {"number": 64, "value": 0}, "group": "control_change"}, {"time": 2008, "annotation": {"number": 64, "value": 127}, "group": "control_change"}, {"time": 2028, "annotation": {"number": 64, "value": 0}, "group": "control_change"}, {"time": 2452, "annotation": {"number": 64, "value": 127}, "group": "control_change"}, {"time": 2460, "annotation": {"number": 64, "value": 0}, "group": "control_change"}, {"time": 2465, "annotation": {"number": 64, "value": 127}, "group": "control_change"}, {"time": 2486, "annotation": {"number": 64, "value": 0}, "group": "control_change"}, {"time": 2488, "annotation": {"number": 64, "value": 127}, "group": "control_change"}, {"time": 2507, "annotation": {"number": 64, "value": 0}, "group": "control_change"}, {"time": 2513, "annotation": {"number": 64, "value": 127}, "group": "control_change"}, {"time": 2557, "annotation": {"number": 64, "value": 0}, "group": "control_change"}, {"time": 2561, "annotation": {"number": 64, "value": 127}, "group": "control_change"}, {"time": 2605, "annotation": {"number": 64, "value": 0}, "group": "control_change"}, {"time": 2609, "annotation": {"number": 64, "value": 127}, "group": "control_change"}, {"time": 2653, "annotation": {"number": 64, "value": 0}, "group": "control_change"}, {"time": 2657, "annotation": {"number": 64, "value": 127}, "group": "control_change"}, {"time": 2702, "annotation": {"number": 64, "value": 0}, "group": "control_change"}, {"time": 2703, "annotation": {"number": 64, "value": 127}, "group": "control_change"}, {"time": 2750, "annotation": {"number": 64, "value": 0}, "group": "control_change"}, {"time": 2755, "annotation": {"number": 64, "value": 127}, "group": "control_change"}, {"time": 2796, "annotation": {"number": 64, "value": 0}, "group": "control_change"}, {"time": 2801, "annotation": {"number": 64, "value": 127}, "group": "control_change"}, {"time": 2845, "annotation": {"number": 64, "value": 0}, "group": "control_change"}, {"time": 2847, "annotation": {"number": 64, "value": 127}, "group": "control_change"}, {"time": 2869, "annotation": {"number": 64, "value": 0}, "group": "control_change"}, {"time": 2871, "annotation": {"number": 64, "value": 127}, "group": "control_change"}, {"time": 2893, "annotation": {"number": 64, "value": 0}, "group": "control_change"}, {"time": 2897, "annotation": {"number": 64, "value": 127}, "group": "control_change"}, {"time": 2941, "annotation": {"number": 64, "value": 0}, "group": "control_change"}, {"time": 2945, "annotation": {"number": 64, "value": 127}, "group": "control_change"}, {"time": 2989, "annotation": {"number": 64, "value": 0}, "group": "control_change"}, {"time": 2993, "annotation": {"number": 64, "value": 127}, "group": "control_change"}, {"time": 3037, "annotation": {"number": 64, "value": 0}, "group": "control_change"}, {"time": 3041, "annotation": {"number": 64, "value": 127}, "group": "control_change"}, {"time": 3086, "annotation": {"number": 64, "value": 0}, "group": "control_change"}, {"time": 3091, "annotation": {"number": 64, "value": 127}, "group": "control_change"}, {"time": 3133, "annotation": {"number": 64, "value": 0}, "group": "control_change"}, {"time": 3140, "annotation": {"number": 64, "value": 127}, "group": "control_change"}, {"time": 3181, "annotation": {"number": 64, "value": 0}, "group": "control_change"}, {"time": 3201, "annotation": {"number": 64, "value": 127}, "group": "control_change"}, {"time": 3229, "annotation": {"number": 64, "value": 0}, "group": "control_change"}, {"time": 3238, "annotation": {"number": 64, "value": 127}, "group": "control_change"}, {"time": 3277, "annotation": {"number": 64, "value": 0}, "group": "control_change"}, {"time": 3280, "annotation": {"number": 64, "value": 127}, "group": "control_change"}, {"time": 3324, "annotation": {"number": 64, "value": 0}, "group": "control_change"}, {"time": 3335, "annotation": {"number": 64, "value": 127}, "group": "control_change"}, {"time": 3370, "annotation": {"number": 64, "value": 0}, "group": "control_change"}, {"time": 3377, "annotation": {"number": 64, "value": 127}, "group": "control_change"}, {"time": 3421, "annotation": {"number": 64, "value": 0}, "group": "control_change"}, {"time": 3429, "annotation": {"number": 64, "value": 127}, "group": "control_change"}, {"time": 3467, "annotation": {"number": 64, "value": 0}, "group": "control_change"}, {"time": 3475, "annotation": {"number": 64, "value": 127}, "group": "control_change"}, {"time": 3516, "annotation": {"number": 64, "value": 0}, "group": "control_change"}, {"time": 3525, "annotation": {"number": 64, "value": 127}, "group": "control_change"}, {"time": 3564, "annotation": {"number": 64, "value": 0}, "group": "control_change"}, {"time": 3700, "annotation": {"number": 64, "value": 127}, "group": "control_change"}, {"time": 3708, "annotation": {"number": 64, "value": 0}, "group": "control_change"}, {"time": 3713, "annotation": {"number": 64, "value": 127}, "group": "control_change"}, {"time": 3734, "annotation": {"number": 64, "value": 0}, "group": "control_change"}, {"time": 3736, "annotation": {"number": 64, "value": 127}, "group": "control_change"}, {"time": 3755, "annotation": {"number": 64, "value": 0}, "group": "control_change"}, {"time": 3761, "annotation": {"number": 64, "value": 127}, "group": "control_change"}, {"time": 3805, "annotation": {"number": 64, "value": 0}, "group": "control_change"}, {"time": 3809, "annotation": {"number": 64, "value": 127}, "group": "control_change"}, {"time": 3853, "annotation": {"number": 64, "value": 0}, "group": "control_change"}, {"time": 3857, "annotation": {"number": 64, "value": 127}, "group": "control_change"}, {"time": 3901, "annotation": {"number": 64, "value": 0}, "group": "control_change"}, {"time": 3905, "annotation": {"number": 64, "value": 127}, "group": "control_change"}, {"time": 3950, "annotation": {"number": 64, "value": 0}, "group": "control_change"}, {"time": 3951, "annotation": {"number": 64, "value": 127}, "group": "control_change"}, {"time": 3998, "annotation": {"number": 64, "value": 0}, "group": "control_change"}, {"time": 4003, "annotation": {"number": 64, "value": 127}, "group": "control_change"}, {"time": 4044, "annotation": {"number": 64, "value": 0}, "group": "control_change"}, {"time": 4049, "annotation": {"number": 64, "value": 127}, "group": "control_change"}, {"time": 4093, "annotation": {"number": 64, "value": 0}, "group": "control_change"}, {"time": 4095, "annotation": {"number": 64, "value": 127}, "group": "control_change"}, {"time": 4117, "annotation": {"number": 64, "value": 0}, "group": "control_change"}, {"time": 4119, "annotation": {"number": 64, "value": 127}, "group": "control_change"}, {"time": 4141, "annotation": {"number": 64, "value": 0}, "group": "control_change"}, {"time": 4145, "annotation": {"number": 64, "value": 127}, "group": "control_change"}, {"time": 4189, "annotation": {"number": 64, "value": 0}, "group": "control_change"}, {"time": 4193, "annotation": {"number": 64, "value": 127}, "group": "control_change"}, {"time": 4237, "annotation": {"number": 64, "value": 0}, "group": "control_change"}, {"time": 4241, "annotation": {"number": 64, "value": 127}, "group": "control_change"}, {"time": 4285, "annotation": {"number": 64, "value": 0}, "group": "control_change"}, {"time": 4289, "annotation": {"number": 64, "value": 127}, "group": "control_change"}, {"time": 4334, "annotation": {"number": 64, "value": 0}, "group": "control_change"}, {"time": 4339, "annotation": {"number": 64, "value": 127}, "group": "control_change"}, {"time": 4381, "annotation": {"number": 64, "value": 0}, "group": "control_change"}, {"time": 4388, "annotation": {"number": 64, "value": 127}, "group": "control_change"}, {"time": 4429, "annotation": {"number": 64, "value": 0}, "group": "control_change"}, {"time": 4449, "annotation": {"number": 64, "value": 127}, "group": "control_change"}, {"time": 4477, "annotation": {"number": 64, "value": 0}, "group": "control_change"}, {"time": 4486, "annotation": {"number": 64, "value": 127}, "group": "control_change"}, {"time": 4525, "annotation": {"number": 64, "value": 0}, "group": "control_change"}, {"time": 4528, "annotation": {"number": 64, "value": 127}, "group": "control_change"}, {"time": 4572, "annotation": {"number": 64, "value": 0}, "group": "control_change"}, {"time": 4583, "annotation": {"number": 64, "value": 127}, "group": "control_change"}, {"time": 4618, "annotation": {"number": 64, "value": 0}, "group": "control_change"}, {"time": 4624, "annotation": {"number": 64, "value": 127}, "group": "control_change"}, {"time": 4625, "annotation": {"number": 64, "value": 127}, "group": "control_change"}, {"time": 4669, "annotation": {"number": 64, "value": 0}, "group": "control_change"}, {"time": 4677, "annotation": {"number": 64, "value": 127}, "group": "control_change"}, {"time": 4715, "annotation": {"number": 64, "value": 0}, "group": "control_change"}, {"time": 4723, "annotation": {"number": 64, "value": 127}, "group": "control_change"}]}]}