{"metadata": {"schema_version": "0.2", "title": "None", "source_filename": "128.mid", "source_format": "midi"}, "resolution": 12, "tempos": [{"time": 0, "qpm": 61.000096583486254}], "time_signatures": [{"time": 0, "numerator": 1, "denominator": 4}], "tracks": [{"program": 4, "is_drum": false, "name": "MELODY", "notes": [{"time": 243, "pitch": 67, "duration": 3, "velocity": 109}, {"time": 246, "pitch": 70, "duration": 6, "velocity": 97}, {"time": 252, "pitch": 70, "duration": 3, "velocity": 97}, {"time": 255, "pitch": 70, "duration": 3, "velocity": 108}, {"time": 258, "pitch": 70, "duration": 3, "velocity": 102}, {"time": 261, "pitch": 67, "duration": 6, "velocity": 102}, {"time": 267, "pitch": 70, "duration": 24, "velocity": 108}, {"time": 291, "pitch": 72, "duration": 3, "velocity": 108}, {"time": 294, "pitch": 75, "duration": 6, "velocity": 108}, {"time": 300, "pitch": 77, "duration": 6, "velocity": 105}, {"time": 306, "pitch": 75, "duration": 3, "velocity": 111}, {"time": 309, "pitch": 67, "duration": 6, "velocity": 96}, {"time": 315, "pitch": 70, "duration": 24, "velocity": 100}, {"time": 339, "pitch": 72, "duration": 3, "velocity": 105}, {"time": 342, "pitch": 75, "duration": 6, "velocity": 100}, {"time": 348, "pitch": 75, "duration": 3, "velocity": 100}, {"time": 351, "pitch": 75, "duration": 12, "velocity": 102}, {"time": 363, "pitch": 70, "duration": 3, "velocity": 97}, {"time": 366, "pitch": 70, "duration": 6, "velocity": 108}, {"time": 372, "pitch": 72, "duration": 3, "velocity": 97}, {"time": 375, "pitch": 67, "duration": 12, "velocity": 105}, {"time": 387, "pitch": 65, "duration": 3, "velocity": 105}, {"time": 390, "pitch": 65, "duration": 6, "velocity": 111}, {"time": 396, "pitch": 63, "duration": 3, "velocity": 89}, {"time": 399, "pitch": 65, "duration": 3, "velocity": 105}, {"time": 402, "pitch": 63, "duration": 3, "velocity": 92}, {"time": 405, "pitch": 67, "duration": 6, "velocity": 102}, {"time": 411, "pitch": 65, "duration": 24, "velocity": 114}, {"time": 435, "pitch": 67, "duration": 3, "velocity": 109}, {"time": 438, "pitch": 70, "duration": 6, "velocity": 97}, {"time": 444, "pitch": 70, "duration": 3, "velocity": 97}, {"time": 447, "pitch": 70, "duration": 3, "velocity": 108}, {"time": 450, "pitch": 70, "duration": 3, "velocity": 102}, {"time": 453, "pitch": 67, "duration": 6, "velocity": 102}, {"time": 459, "pitch": 70, "duration": 24, "velocity": 108}, {"time": 483, "pitch": 72, "duration": 3, "velocity": 108}, {"time": 486, "pitch": 75, "duration": 6, "velocity": 108}, {"time": 492, "pitch": 75, "duration": 3, "velocity": 105}, {"time": 495, "pitch": 77, "duration": 3, "velocity": 114}, {"time": 498, "pitch": 75, "duration": 3, "velocity": 111}, {"time": 501, "pitch": 67, "duration": 6, "velocity": 96}, {"time": 507, "pitch": 70, "duration": 24, "velocity": 100}, {"time": 531, "pitch": 72, "duration": 3, "velocity": 105}, {"time": 534, "pitch": 75, "duration": 6, "velocity": 100}, {"time": 540, "pitch": 75, "duration": 3, "velocity": 100}, {"time": 543, "pitch": 77, "duration": 3, "velocity": 114}, {"time": 546, "pitch": 75, "duration": 9, "velocity": 102}, {"time": 555, "pitch": 70, "duration": 3, "velocity": 97}, {"time": 558, "pitch": 70, "duration": 6, "velocity": 108}, {"time": 564, "pitch": 70, "duration": 3, "velocity": 97}, {"time": 567, "pitch": 72, "duration": 3, "velocity": 114}, {"time": 570, "pitch": 75, "duration": 9, "velocity": 105}, {"time": 579, "pitch": 72, "duration": 6, "velocity": 114}, {"time": 585, "pitch": 75, "duration": 3, "velocity": 94}, {"time": 588, "pitch": 75, "duration": 3, "velocity": 97}, {"time": 591, "pitch": 77, "duration": 3, "velocity": 105}, {"time": 594, "pitch": 75, "duration": 3, "velocity": 111}, {"time": 597, "pitch": 72, "duration": 6, "velocity": 111}, {"time": 603, "pitch": 77, "duration": 18, "velocity": 111}, {"time": 621, "pitch": 75, "duration": 3, "velocity": 108}, {"time": 624, "pitch": 77, "duration": 3, "velocity": 100}, {"time": 627, "pitch": 79, "duration": 3, "velocity": 109}, {"time": 630, "pitch": 79, "duration": 3, "velocity": 96}, {"time": 633, "pitch": 79, "duration": 3, "velocity": 105}, {"time": 636, "pitch": 79, "duration": 3, "velocity": 105}, {"time": 639, "pitch": 77, "duration": 3, "velocity": 111}, {"time": 642, "pitch": 79, "duration": 3, "velocity": 112}, {"time": 645, "pitch": 77, "duration": 6, "velocity": 111}, {"time": 651, "pitch": 75, "duration": 18, "velocity": 111}, {"time": 669, "pitch": 79, "duration": 3, "velocity": 109}, {"time": 672, "pitch": 82, "duration": 3, "velocity": 111}, {"time": 675, "pitch": 84, "duration": 6, "velocity": 105}, {"time": 681, "pitch": 84, "duration": 3, "velocity": 111}, {"time": 684, "pitch": 84, "duration": 3, "velocity": 108}, {"time": 687, "pitch": 82, "duration": 3, "velocity": 114}, {"time": 690, "pitch": 84, "duration": 3, "velocity": 108}, {"time": 693, "pitch": 82, "duration": 6, "velocity": 120}, {"time": 699, "pitch": 79, "duration": 18, "velocity": 105}, {"time": 717, "pitch": 75, "duration": 3, "velocity": 108}, {"time": 720, "pitch": 77, "duration": 3, "velocity": 100}, {"time": 723, "pitch": 79, "duration": 3, "velocity": 109}, {"time": 726, "pitch": 79, "duration": 3, "velocity": 96}, {"time": 729, "pitch": 79, "duration": 3, "velocity": 105}, {"time": 732, "pitch": 79, "duration": 3, "velocity": 105}, {"time": 735, "pitch": 77, "duration": 3, "velocity": 111}, {"time": 738, "pitch": 79, "duration": 3, "velocity": 112}, {"time": 741, "pitch": 77, "duration": 6, "velocity": 111}, {"time": 747, "pitch": 75, "duration": 13, "velocity": 111}, {"time": 759, "pitch": 77, "duration": 3, "velocity": 105}, {"time": 762, "pitch": 79, "duration": 3, "velocity": 105}, {"time": 765, "pitch": 77, "duration": 3, "velocity": 114}, {"time": 768, "pitch": 75, "duration": 3, "velocity": 100}, {"time": 771, "pitch": 72, "duration": 6, "velocity": 108}, {"time": 777, "pitch": 72, "duration": 3, "velocity": 108}, {"time": 780, "pitch": 72, "duration": 3, "velocity": 108}, {"time": 783, "pitch": 75, "duration": 3, "velocity": 111}, {"time": 786, "pitch": 75, "duration": 3, "velocity": 100}, {"time": 789, "pitch": 77, "duration": 6, "velocity": 111}, {"time": 795, "pitch": 75, "duration": 18, "velocity": 114}, {"time": 813, "pitch": 75, "duration": 3, "velocity": 108}, {"time": 816, "pitch": 77, "duration": 3, "velocity": 100}, {"time": 819, "pitch": 79, "duration": 3, "velocity": 109}, {"time": 822, "pitch": 79, "duration": 3, "velocity": 96}, {"time": 825, "pitch": 79, "duration": 3, "velocity": 105}, {"time": 828, "pitch": 79, "duration": 3, "velocity": 105}, {"time": 831, "pitch": 77, "duration": 3, "velocity": 111}, {"time": 834, "pitch": 79, "duration": 3, "velocity": 112}, {"time": 837, "pitch": 77, "duration": 6, "velocity": 111}, {"time": 843, "pitch": 75, "duration": 18, "velocity": 111}, {"time": 861, "pitch": 79, "duration": 3, "velocity": 109}, {"time": 864, "pitch": 82, "duration": 3, "velocity": 111}, {"time": 867, "pitch": 84, "duration": 6, "velocity": 105}, {"time": 873, "pitch": 84, "duration": 3, "velocity": 111}, {"time": 876, "pitch": 84, "duration": 3, "velocity": 108}, {"time": 879, "pitch": 82, "duration": 3, "velocity": 114}, {"time": 882, "pitch": 84, "duration": 3, "velocity": 108}, {"time": 885, "pitch": 82, "duration": 6, "velocity": 120}, {"time": 891, "pitch": 79, "duration": 18, "velocity": 105}, {"time": 909, "pitch": 75, "duration": 3, "velocity": 108}, {"time": 912, "pitch": 77, "duration": 3, "velocity": 100}, {"time": 915, "pitch": 79, "duration": 3, "velocity": 109}, {"time": 918, "pitch": 79, "duration": 3, "velocity": 96}, {"time": 921, "pitch": 79, "duration": 3, "velocity": 105}, {"time": 924, "pitch": 79, "duration": 3, "velocity": 105}, {"time": 927, "pitch": 77, "duration": 3, "velocity": 111}, {"time": 930, "pitch": 79, "duration": 3, "velocity": 112}, {"time": 933, "pitch": 77, "duration": 6, "velocity": 111}, {"time": 939, "pitch": 75, "duration": 13, "velocity": 111}, {"time": 951, "pitch": 77, "duration": 3, "velocity": 105}, {"time": 954, "pitch": 79, "duration": 3, "velocity": 105}, {"time": 957, "pitch": 77, "duration": 3, "velocity": 114}, {"time": 960, "pitch": 75, "duration": 3, "velocity": 100}, {"time": 963, "pitch": 72, "duration": 6, "velocity": 108}, {"time": 969, "pitch": 72, "duration": 3, "velocity": 108}, {"time": 972, "pitch": 72, "duration": 3, "velocity": 108}, {"time": 975, "pitch": 75, "duration": 3, "velocity": 111}, {"time": 978, "pitch": 75, "duration": 3, "velocity": 100}, {"time": 981, "pitch": 77, "duration": 6, "velocity": 111}, {"time": 987, "pitch": 75, "duration": 29, "velocity": 114}, {"time": 1203, "pitch": 67, "duration": 3, "velocity": 109}, {"time": 1206, "pitch": 70, "duration": 6, "velocity": 97}, {"time": 1212, "pitch": 70, "duration": 3, "velocity": 97}, {"time": 1215, "pitch": 70, "duration": 3, "velocity": 108}, {"time": 1218, "pitch": 70, "duration": 3, "velocity": 102}, {"time": 1221, "pitch": 67, "duration": 6, "velocity": 102}, {"time": 1227, "pitch": 70, "duration": 24, "velocity": 108}, {"time": 1251, "pitch": 72, "duration": 3, "velocity": 108}, {"time": 1254, "pitch": 75, "duration": 6, "velocity": 108}, {"time": 1260, "pitch": 75, "duration": 3, "velocity": 105}, {"time": 1263, "pitch": 77, "duration": 3, "velocity": 114}, {"time": 1266, "pitch": 75, "duration": 3, "velocity": 111}, {"time": 1269, "pitch": 67, "duration": 6, "velocity": 96}, {"time": 1275, "pitch": 70, "duration": 24, "velocity": 100}, {"time": 1299, "pitch": 72, "duration": 3, "velocity": 105}, {"time": 1302, "pitch": 75, "duration": 6, "velocity": 100}, {"time": 1308, "pitch": 75, "duration": 3, "velocity": 100}, {"time": 1311, "pitch": 77, "duration": 3, "velocity": 114}, {"time": 1314, "pitch": 75, "duration": 9, "velocity": 102}, {"time": 1323, "pitch": 70, "duration": 3, "velocity": 97}, {"time": 1326, "pitch": 70, "duration": 6, "velocity": 108}, {"time": 1332, "pitch": 70, "duration": 3, "velocity": 97}, {"time": 1335, "pitch": 72, "duration": 3, "velocity": 114}, {"time": 1338, "pitch": 75, "duration": 9, "velocity": 105}, {"time": 1347, "pitch": 72, "duration": 6, "velocity": 114}, {"time": 1353, "pitch": 75, "duration": 3, "velocity": 94}, {"time": 1356, "pitch": 75, "duration": 3, "velocity": 97}, {"time": 1359, "pitch": 77, "duration": 3, "velocity": 105}, {"time": 1362, "pitch": 75, "duration": 3, "velocity": 111}, {"time": 1365, "pitch": 72, "duration": 6, "velocity": 111}, {"time": 1371, "pitch": 77, "duration": 42, "velocity": 111}, {"time": 1413, "pitch": 75, "duration": 3, "velocity": 108}, {"time": 1416, "pitch": 77, "duration": 3, "velocity": 100}, {"time": 1419, "pitch": 79, "duration": 3, "velocity": 109}, {"time": 1422, "pitch": 79, "duration": 3, "velocity": 96}, {"time": 1425, "pitch": 79, "duration": 3, "velocity": 105}, {"time": 1428, "pitch": 79, "duration": 3, "velocity": 105}, {"time": 1431, "pitch": 77, "duration": 3, "velocity": 111}, {"time": 1434, "pitch": 79, "duration": 3, "velocity": 112}, {"time": 1437, "pitch": 77, "duration": 6, "velocity": 111}, {"time": 1443, "pitch": 75, "duration": 18, "velocity": 111}, {"time": 1461, "pitch": 79, "duration": 3, "velocity": 109}, {"time": 1464, "pitch": 82, "duration": 3, "velocity": 111}, {"time": 1467, "pitch": 84, "duration": 6, "velocity": 105}, {"time": 1473, "pitch": 84, "duration": 3, "velocity": 111}, {"time": 1476, "pitch": 84, "duration": 3, "velocity": 108}, {"time": 1479, "pitch": 82, "duration": 3, "velocity": 114}, {"time": 1482, "pitch": 84, "duration": 3, "velocity": 108}, {"time": 1485, "pitch": 82, "duration": 6, "velocity": 120}, {"time": 1491, "pitch": 79, "duration": 18, "velocity": 105}, {"time": 1509, "pitch": 75, "duration": 3, "velocity": 108}, {"time": 1512, "pitch": 77, "duration": 3, "velocity": 100}, {"time": 1515, "pitch": 79, "duration": 3, "velocity": 109}, {"time": 1518, "pitch": 79, "duration": 3, "velocity": 96}, {"time": 1521, "pitch": 79, "duration": 3, "velocity": 105}, {"time": 1524, "pitch": 79, "duration": 3, "velocity": 105}, {"time": 1527, "pitch": 77, "duration": 3, "velocity": 111}, {"time": 1530, "pitch": 79, "duration": 3, "velocity": 112}, {"time": 1533, "pitch": 77, "duration": 6, "velocity": 111}, {"time": 1539, "pitch": 75, "duration": 13, "velocity": 111}, {"time": 1551, "pitch": 77, "duration": 3, "velocity": 105}, {"time": 1554, "pitch": 79, "duration": 3, "velocity": 105}, {"time": 1557, "pitch": 77, "duration": 3, "velocity": 114}, {"time": 1560, "pitch": 75, "duration": 3, "velocity": 100}, {"time": 1563, "pitch": 72, "duration": 6, "velocity": 108}, {"time": 1569, "pitch": 72, "duration": 3, "velocity": 108}, {"time": 1572, "pitch": 72, "duration": 3, "velocity": 108}, {"time": 1575, "pitch": 75, "duration": 3, "velocity": 111}, {"time": 1578, "pitch": 75, "duration": 3, "velocity": 100}, {"time": 1581, "pitch": 77, "duration": 6, "velocity": 111}, {"time": 1587, "pitch": 75, "duration": 18, "velocity": 114}, {"time": 1605, "pitch": 75, "duration": 3, "velocity": 108}, {"time": 1608, "pitch": 77, "duration": 3, "velocity": 100}, {"time": 1611, "pitch": 79, "duration": 3, "velocity": 109}, {"time": 1614, "pitch": 79, "duration": 3, "velocity": 96}, {"time": 1617, "pitch": 79, "duration": 3, "velocity": 105}, {"time": 1620, "pitch": 79, "duration": 3, "velocity": 105}, {"time": 1623, "pitch": 77, "duration": 3, "velocity": 111}, {"time": 1626, "pitch": 79, "duration": 3, "velocity": 112}, {"time": 1629, "pitch": 77, "duration": 6, "velocity": 111}, {"time": 1635, "pitch": 75, "duration": 18, "velocity": 111}, {"time": 1653, "pitch": 79, "duration": 3, "velocity": 109}, {"time": 1656, "pitch": 82, "duration": 3, "velocity": 111}, {"time": 1659, "pitch": 84, "duration": 6, "velocity": 105}, {"time": 1665, "pitch": 84, "duration": 3, "velocity": 111}, {"time": 1668, "pitch": 84, "duration": 3, "velocity": 108}, {"time": 1671, "pitch": 82, "duration": 3, "velocity": 114}, {"time": 1674, "pitch": 84, "duration": 3, "velocity": 108}, {"time": 1677, "pitch": 82, "duration": 6, "velocity": 120}, {"time": 1683, "pitch": 79, "duration": 18, "velocity": 105}, {"time": 1701, "pitch": 75, "duration": 3, "velocity": 108}, {"time": 1704, "pitch": 77, "duration": 3, "velocity": 100}, {"time": 1707, "pitch": 79, "duration": 3, "velocity": 109}, {"time": 1710, "pitch": 79, "duration": 3, "velocity": 96}, {"time": 1713, "pitch": 79, "duration": 3, "velocity": 105}, {"time": 1716, "pitch": 79, "duration": 3, "velocity": 105}, {"time": 1719, "pitch": 77, "duration": 3, "velocity": 111}, {"time": 1722, "pitch": 79, "duration": 3, "velocity": 112}, {"time": 1725, "pitch": 77, "duration": 6, "velocity": 111}, {"time": 1731, "pitch": 75, "duration": 13, "velocity": 111}, {"time": 1743, "pitch": 77, "duration": 3, "velocity": 105}, {"time": 1746, "pitch": 79, "duration": 3, "velocity": 105}, {"time": 1749, "pitch": 77, "duration": 3, "velocity": 114}, {"time": 1752, "pitch": 75, "duration": 3, "velocity": 100}, {"time": 1755, "pitch": 72, "duration": 6, "velocity": 108}, {"time": 1761, "pitch": 72, "duration": 3, "velocity": 108}, {"time": 1764, "pitch": 72, "duration": 3, "velocity": 108}, {"time": 1767, "pitch": 75, "duration": 3, "velocity": 111}, {"time": 1770, "pitch": 75, "duration": 3, "velocity": 100}, {"time": 1773, "pitch": 77, "duration": 6, "velocity": 111}, {"time": 1779, "pitch": 75, "duration": 21, "velocity": 114}, {"time": 2181, "pitch": 75, "duration": 2, "velocity": 108}, {"time": 2184, "pitch": 77, "duration": 2, "velocity": 100}, {"time": 2187, "pitch": 79, "duration": 2, "velocity": 109}, {"time": 2190, "pitch": 79, "duration": 1, "velocity": 96}, {"time": 2193, "pitch": 79, "duration": 2, "velocity": 105}, {"time": 2196, "pitch": 79, "duration": 2, "velocity": 105}, {"time": 2199, "pitch": 77, "duration": 2, "velocity": 111}, {"time": 2202, "pitch": 79, "duration": 2, "velocity": 112}, {"time": 2205, "pitch": 77, "duration": 4, "velocity": 111}, {"time": 2211, "pitch": 75, "duration": 13, "velocity": 111}, {"time": 2229, "pitch": 79, "duration": 2, "velocity": 109}, {"time": 2232, "pitch": 82, "duration": 1, "velocity": 111}, {"time": 2235, "pitch": 84, "duration": 5, "velocity": 105}, {"time": 2241, "pitch": 84, "duration": 2, "velocity": 111}, {"time": 2244, "pitch": 84, "duration": 2, "velocity": 108}, {"time": 2247, "pitch": 82, "duration": 1, "velocity": 114}, {"time": 2250, "pitch": 84, "duration": 2, "velocity": 108}, {"time": 2253, "pitch": 82, "duration": 4, "velocity": 120}, {"time": 2259, "pitch": 79, "duration": 14, "velocity": 105}, {"time": 2277, "pitch": 75, "duration": 2, "velocity": 108}, {"time": 2280, "pitch": 77, "duration": 2, "velocity": 100}, {"time": 2283, "pitch": 79, "duration": 2, "velocity": 109}, {"time": 2286, "pitch": 79, "duration": 1, "velocity": 96}, {"time": 2289, "pitch": 79, "duration": 2, "velocity": 105}, {"time": 2292, "pitch": 79, "duration": 2, "velocity": 105}, {"time": 2295, "pitch": 77, "duration": 2, "velocity": 111}, {"time": 2298, "pitch": 79, "duration": 2, "velocity": 112}, {"time": 2301, "pitch": 77, "duration": 4, "velocity": 111}, {"time": 2307, "pitch": 75, "duration": 13, "velocity": 111}, {"time": 2319, "pitch": 77, "duration": 2, "velocity": 105}, {"time": 2322, "pitch": 79, "duration": 1, "velocity": 105}, {"time": 2325, "pitch": 77, "duration": 2, "velocity": 114}, {"time": 2328, "pitch": 75, "duration": 2, "velocity": 100}, {"time": 2331, "pitch": 72, "duration": 4, "velocity": 108}, {"time": 2337, "pitch": 72, "duration": 2, "velocity": 108}, {"time": 2340, "pitch": 72, "duration": 2, "velocity": 108}, {"time": 2343, "pitch": 75, "duration": 2, "velocity": 111}, {"time": 2346, "pitch": 75, "duration": 2, "velocity": 100}, {"time": 2349, "pitch": 77, "duration": 4, "velocity": 111}, {"time": 2355, "pitch": 75, "duration": 14, "velocity": 114}, {"time": 2373, "pitch": 75, "duration": 2, "velocity": 108}, {"time": 2376, "pitch": 77, "duration": 2, "velocity": 100}, {"time": 2379, "pitch": 79, "duration": 2, "velocity": 109}, {"time": 2382, "pitch": 79, "duration": 1, "velocity": 96}, {"time": 2385, "pitch": 79, "duration": 2, "velocity": 105}, {"time": 2388, "pitch": 79, "duration": 2, "velocity": 105}, {"time": 2391, "pitch": 77, "duration": 2, "velocity": 111}, {"time": 2394, "pitch": 79, "duration": 2, "velocity": 112}, {"time": 2397, "pitch": 77, "duration": 4, "velocity": 111}, {"time": 2403, "pitch": 75, "duration": 13, "velocity": 111}, {"time": 2421, "pitch": 79, "duration": 2, "velocity": 109}, {"time": 2424, "pitch": 82, "duration": 1, "velocity": 111}, {"time": 2427, "pitch": 84, "duration": 5, "velocity": 105}, {"time": 2433, "pitch": 84, "duration": 2, "velocity": 111}, {"time": 2436, "pitch": 84, "duration": 2, "velocity": 108}, {"time": 2439, "pitch": 82, "duration": 1, "velocity": 114}, {"time": 2442, "pitch": 84, "duration": 2, "velocity": 108}, {"time": 2445, "pitch": 82, "duration": 4, "velocity": 120}, {"time": 2451, "pitch": 79, "duration": 14, "velocity": 105}, {"time": 2469, "pitch": 75, "duration": 2, "velocity": 108}, {"time": 2472, "pitch": 77, "duration": 2, "velocity": 100}, {"time": 2475, "pitch": 79, "duration": 2, "velocity": 109}, {"time": 2478, "pitch": 79, "duration": 1, "velocity": 96}, {"time": 2481, "pitch": 79, "duration": 2, "velocity": 105}, {"time": 2484, "pitch": 79, "duration": 2, "velocity": 105}, {"time": 2487, "pitch": 77, "duration": 2, "velocity": 111}, {"time": 2490, "pitch": 79, "duration": 2, "velocity": 112}, {"time": 2493, "pitch": 77, "duration": 4, "velocity": 111}, {"time": 2499, "pitch": 75, "duration": 13, "velocity": 111}, {"time": 2511, "pitch": 77, "duration": 2, "velocity": 105}, {"time": 2514, "pitch": 79, "duration": 1, "velocity": 105}, {"time": 2517, "pitch": 77, "duration": 2, "velocity": 114}, {"time": 2520, "pitch": 75, "duration": 2, "velocity": 100}, {"time": 2523, "pitch": 72, "duration": 4, "velocity": 108}, {"time": 2529, "pitch": 72, "duration": 2, "velocity": 108}, {"time": 2532, "pitch": 72, "duration": 2, "velocity": 108}, {"time": 2535, "pitch": 75, "duration": 2, "velocity": 111}, {"time": 2538, "pitch": 75, "duration": 2, "velocity": 100}, {"time": 2541, "pitch": 77, "duration": 4, "velocity": 111}, {"time": 2547, "pitch": 75, "duration": 14, "velocity": 114}, {"time": 2559, "pitch": 77, "duration": 2, "velocity": 111}, {"time": 2562, "pitch": 79, "duration": 2, "velocity": 105}, {"time": 2565, "pitch": 77, "duration": 2, "velocity": 111}, {"time": 2568, "pitch": 75, "duration": 2, "velocity": 111}, {"time": 2571, "pitch": 72, "duration": 5, "velocity": 114}, {"time": 2577, "pitch": 72, "duration": 12, "velocity": 108}, {"time": 2589, "pitch": 72, "duration": 5, "velocity": 111}, {"time": 2595, "pitch": 75, "duration": 5, "velocity": 105}, {"time": 2601, "pitch": 72, "duration": 5, "velocity": 117}, {"time": 2607, "pitch": 75, "duration": 4, "velocity": 105}, {"time": 2612, "pitch": 77, "duration": 25, "velocity": 111}, {"time": 2643, "pitch": 75, "duration": 33, "velocity": 97}]}, {"program": 0, "is_drum": false, "name": "PIANO", "notes": [{"time": 27, "pitch": 51, "duration": 17, "velocity": 106}, {"time": 33, "pitch": 58, "duration": 11, "velocity": 99}, {"time": 39, "pitch": 67, "duration": 6, "velocity": 120}, {"time": 45, "pitch": 63, "duration": 6, "velocity": 104}, {"time": 51, "pitch": 48, "duration": 22, "velocity": 101}, {"time": 57, "pitch": 55, "duration": 8, "velocity": 81}, {"time": 63, "pitch": 63, "duration": 13, "velocity": 106}, {"time": 69, "pitch": 55, "duration": 2, "velocity": 74}, {"time": 75, "pitch": 44, "duration": 15, "velocity": 101}, {"time": 75, "pitch": 60, "duration": 5, "velocity": 96}, {"time": 81, "pitch": 51, "duration": 7, "velocity": 87}, {"time": 87, "pitch": 56, "duration": 3, "velocity": 96}, {"time": 87, "pitch": 60, "duration": 7, "velocity": 104}, {"time": 87, "pitch": 63, "duration": 7, "velocity": 106}, {"time": 93, "pitch": 56, "duration": 2, "velocity": 99}, {"time": 99, "pitch": 51, "duration": 17, "velocity": 101}, {"time": 99, "pitch": 58, "duration": 3, "velocity": 99}, {"time": 99, "pitch": 63, "duration": 13, "velocity": 101}, {"time": 105, "pitch": 58, "duration": 7, "velocity": 89}, {"time": 111, "pitch": 67, "duration": 12, "velocity": 110}, {"time": 117, "pitch": 58, "duration": 7, "velocity": 106}, {"time": 123, "pitch": 51, "duration": 19, "velocity": 96}, {"time": 123, "pitch": 63, "duration": 8, "velocity": 101}, {"time": 129, "pitch": 58, "duration": 7, "velocity": 89}, {"time": 135, "pitch": 67, "duration": 11, "velocity": 117}, {"time": 141, "pitch": 58, "duration": 3, "velocity": 106}, {"time": 147, "pitch": 48, "duration": 15, "velocity": 96}, {"time": 147, "pitch": 60, "duration": 11, "velocity": 91}, {"time": 147, "pitch": 63, "duration": 8, "velocity": 101}, {"time": 153, "pitch": 55, "duration": 7, "velocity": 83}, {"time": 159, "pitch": 63, "duration": 6, "velocity": 104}, {"time": 159, "pitch": 67, "duration": 6, "velocity": 113}, {"time": 165, "pitch": 60, "duration": 2, "velocity": 106}, {"time": 171, "pitch": 44, "duration": 9, "velocity": 104}, {"time": 171, "pitch": 56, "duration": 7, "velocity": 101}, {"time": 171, "pitch": 60, "duration": 8, "velocity": 96}, {"time": 177, "pitch": 51, "duration": 5, "velocity": 91}, {"time": 183, "pitch": 46, "duration": 10, "velocity": 104}, {"time": 183, "pitch": 58, "duration": 7, "velocity": 99}, {"time": 183, "pitch": 62, "duration": 7, "velocity": 91}, {"time": 195, "pitch": 51, "duration": 21, "velocity": 91}, {"time": 195, "pitch": 58, "duration": 3, "velocity": 89}, {"time": 195, "pitch": 63, "duration": 9, "velocity": 101}, {"time": 201, "pitch": 58, "duration": 7, "velocity": 82}, {"time": 207, "pitch": 67, "duration": 12, "velocity": 117}, {"time": 213, "pitch": 58, "duration": 4, "velocity": 101}, {"time": 219, "pitch": 51, "duration": 18, "velocity": 101}, {"time": 219, "pitch": 58, "duration": 18, "velocity": 96}, {"time": 219, "pitch": 63, "duration": 18, "velocity": 101}, {"time": 243, "pitch": 51, "duration": 19, "velocity": 99}, {"time": 243, "pitch": 63, "duration": 13, "velocity": 104}, {"time": 249, "pitch": 58, "duration": 6, "velocity": 89}, {"time": 255, "pitch": 67, "duration": 13, "velocity": 113}, {"time": 261, "pitch": 58, "duration": 8, "velocity": 106}, {"time": 267, "pitch": 46, "duration": 21, "velocity": 89}, {"time": 267, "pitch": 62, "duration": 12, "velocity": 107}, {"time": 273, "pitch": 53, "duration": 16, "velocity": 55}, {"time": 279, "pitch": 65, "duration": 7, "velocity": 104}, {"time": 285, "pitch": 62, "duration": 5, "velocity": 113}, {"time": 291, "pitch": 48, "duration": 16, "velocity": 94}, {"time": 291, "pitch": 63, "duration": 6, "velocity": 101}, {"time": 297, "pitch": 55, "duration": 8, "velocity": 65}, {"time": 303, "pitch": 67, "duration": 7, "velocity": 117}, {"time": 309, "pitch": 60, "duration": 2, "velocity": 94}, {"time": 315, "pitch": 46, "duration": 19, "velocity": 89}, {"time": 315, "pitch": 58, "duration": 13, "velocity": 99}, {"time": 315, "pitch": 62, "duration": 11, "velocity": 77}, {"time": 321, "pitch": 53, "duration": 12, "velocity": 56}, {"time": 327, "pitch": 62, "duration": 6, "velocity": 86}, {"time": 327, "pitch": 65, "duration": 7, "velocity": 101}, {"time": 333, "pitch": 58, "duration": 4, "velocity": 112}, {"time": 339, "pitch": 44, "duration": 17, "velocity": 96}, {"time": 339, "pitch": 60, "duration": 13, "velocity": 99}, {"time": 345, "pitch": 51, "duration": 10, "velocity": 82}, {"time": 351, "pitch": 63, "duration": 7, "velocity": 106}, {"time": 357, "pitch": 56, "duration": 2, "velocity": 94}, {"time": 363, "pitch": 51, "duration": 18, "velocity": 99}, {"time": 363, "pitch": 58, "duration": 3, "velocity": 91}, {"time": 363, "pitch": 63, "duration": 13, "velocity": 96}, {"time": 369, "pitch": 58, "duration": 7, "velocity": 82}, {"time": 375, "pitch": 67, "duration": 7, "velocity": 113}, {"time": 381, "pitch": 58, "duration": 2, "velocity": 94}, {"time": 387, "pitch": 41, "duration": 17, "velocity": 101}, {"time": 387, "pitch": 60, "duration": 3, "velocity": 73}, {"time": 387, "pitch": 65, "duration": 25, "velocity": 99}, {"time": 393, "pitch": 48, "duration": 9, "velocity": 58}, {"time": 399, "pitch": 57, "duration": 7, "velocity": 107}, {"time": 405, "pitch": 53, "duration": 5, "velocity": 94}, {"time": 411, "pitch": 46, "duration": 21, "velocity": 106}, {"time": 411, "pitch": 58, "duration": 9, "velocity": 104}, {"time": 411, "pitch": 62, "duration": 8, "velocity": 104}, {"time": 417, "pitch": 53, "duration": 8, "velocity": 80}, {"time": 423, "pitch": 62, "duration": 9, "velocity": 104}, {"time": 423, "pitch": 65, "duration": 10, "velocity": 104}, {"time": 435, "pitch": 51, "duration": 23, "velocity": 104}, {"time": 435, "pitch": 58, "duration": 3, "velocity": 101}, {"time": 435, "pitch": 63, "duration": 9, "velocity": 106}, {"time": 441, "pitch": 58, "duration": 4, "velocity": 94}, {"time": 447, "pitch": 63, "duration": 7, "velocity": 109}, {"time": 447, "pitch": 67, "duration": 13, "velocity": 113}, {"time": 453, "pitch": 58, "duration": 8, "velocity": 112}, {"time": 459, "pitch": 46, "duration": 18, "velocity": 80}, {"time": 459, "pitch": 62, "duration": 10, "velocity": 110}, {"time": 465, "pitch": 53, "duration": 12, "velocity": 87}, {"time": 471, "pitch": 62, "duration": 6, "velocity": 117}, {"time": 477, "pitch": 58, "duration": 3, "velocity": 115}, {"time": 483, "pitch": 48, "duration": 20, "velocity": 91}, {"time": 483, "pitch": 60, "duration": 9, "velocity": 99}, {"time": 483, "pitch": 63, "duration": 9, "velocity": 104}, {"time": 489, "pitch": 55, "duration": 12, "velocity": 59}, {"time": 495, "pitch": 67, "duration": 8, "velocity": 113}, {"time": 501, "pitch": 60, "duration": 3, "velocity": 106}, {"time": 507, "pitch": 46, "duration": 20, "velocity": 99}, {"time": 507, "pitch": 58, "duration": 12, "velocity": 101}, {"time": 507, "pitch": 62, "duration": 10, "velocity": 96}, {"time": 513, "pitch": 53, "duration": 13, "velocity": 82}, {"time": 519, "pitch": 65, "duration": 7, "velocity": 106}, {"time": 525, "pitch": 58, "duration": 3, "velocity": 106}, {"time": 531, "pitch": 44, "duration": 17, "velocity": 96}, {"time": 531, "pitch": 56, "duration": 10, "velocity": 101}, {"time": 531, "pitch": 60, "duration": 8, "velocity": 99}, {"time": 537, "pitch": 51, "duration": 11, "velocity": 87}, {"time": 543, "pitch": 60, "duration": 7, "velocity": 106}, {"time": 543, "pitch": 63, "duration": 7, "velocity": 109}, {"time": 549, "pitch": 56, "duration": 2, "velocity": 112}, {"time": 555, "pitch": 51, "duration": 18, "velocity": 99}, {"time": 555, "pitch": 58, "duration": 3, "velocity": 104}, {"time": 555, "pitch": 63, "duration": 8, "velocity": 106}, {"time": 561, "pitch": 58, "duration": 5, "velocity": 85}, {"time": 567, "pitch": 63, "duration": 7, "velocity": 109}, {"time": 567, "pitch": 67, "duration": 7, "velocity": 113}, {"time": 573, "pitch": 58, "duration": 2, "velocity": 106}, {"time": 579, "pitch": 41, "duration": 14, "velocity": 104}, {"time": 579, "pitch": 60, "duration": 5, "velocity": 89}, {"time": 579, "pitch": 65, "duration": 5, "velocity": 96}, {"time": 585, "pitch": 48, "duration": 8, "velocity": 76}, {"time": 591, "pitch": 53, "duration": 2, "velocity": 104}, {"time": 591, "pitch": 57, "duration": 6, "velocity": 113}, {"time": 591, "pitch": 60, "duration": 7, "velocity": 106}, {"time": 597, "pitch": 53, "duration": 1, "velocity": 89}, {"time": 603, "pitch": 46, "duration": 18, "velocity": 106}, {"time": 603, "pitch": 58, "duration": 8, "velocity": 106}, {"time": 603, "pitch": 62, "duration": 8, "velocity": 110}, {"time": 609, "pitch": 53, "duration": 7, "velocity": 104}, {"time": 615, "pitch": 58, "duration": 11, "velocity": 118}, {"time": 615, "pitch": 62, "duration": 11, "velocity": 123}, {"time": 615, "pitch": 65, "duration": 11, "velocity": 115}, {"time": 615, "pitch": 70, "duration": 11, "velocity": 109}, {"time": 621, "pitch": 53, "duration": 5, "velocity": 104}, {"time": 627, "pitch": 51, "duration": 19, "velocity": 106}, {"time": 627, "pitch": 58, "duration": 3, "velocity": 104}, {"time": 627, "pitch": 63, "duration": 7, "velocity": 106}, {"time": 633, "pitch": 58, "duration": 4, "velocity": 94}, {"time": 639, "pitch": 58, "duration": 5, "velocity": 109}, {"time": 639, "pitch": 63, "duration": 3, "velocity": 112}, {"time": 639, "pitch": 67, "duration": 4, "velocity": 107}, {"time": 645, "pitch": 62, "duration": 5, "velocity": 117}, {"time": 651, "pitch": 48, "duration": 20, "velocity": 99}, {"time": 651, "pitch": 60, "duration": 5, "velocity": 99}, {"time": 651, "pitch": 63, "duration": 4, "velocity": 106}, {"time": 657, "pitch": 55, "duration": 13, "velocity": 83}, {"time": 663, "pitch": 60, "duration": 4, "velocity": 104}, {"time": 663, "pitch": 63, "duration": 4, "velocity": 109}, {"time": 663, "pitch": 67, "duration": 6, "velocity": 117}, {"time": 669, "pitch": 60, "duration": 4, "velocity": 106}, {"time": 675, "pitch": 44, "duration": 9, "velocity": 101}, {"time": 675, "pitch": 56, "duration": 7, "velocity": 104}, {"time": 675, "pitch": 60, "duration": 7, "velocity": 101}, {"time": 681, "pitch": 51, "duration": 4, "velocity": 80}, {"time": 687, "pitch": 46, "duration": 11, "velocity": 109}, {"time": 687, "pitch": 58, "duration": 5, "velocity": 104}, {"time": 687, "pitch": 62, "duration": 7, "velocity": 113}, {"time": 693, "pitch": 58, "duration": 4, "velocity": 104}, {"time": 699, "pitch": 51, "duration": 20, "velocity": 104}, {"time": 699, "pitch": 58, "duration": 3, "velocity": 99}, {"time": 699, "pitch": 63, "duration": 7, "velocity": 101}, {"time": 705, "pitch": 58, "duration": 4, "velocity": 96}, {"time": 711, "pitch": 63, "duration": 3, "velocity": 109}, {"time": 711, "pitch": 67, "duration": 5, "velocity": 120}, {"time": 717, "pitch": 65, "duration": 3, "velocity": 112}, {"time": 720, "pitch": 63, "duration": 2, "velocity": 104}, {"time": 723, "pitch": 51, "duration": 22, "velocity": 104}, {"time": 723, "pitch": 58, "duration": 3, "velocity": 99}, {"time": 723, "pitch": 67, "duration": 10, "velocity": 117}, {"time": 729, "pitch": 58, "duration": 3, "velocity": 104}, {"time": 735, "pitch": 58, "duration": 4, "velocity": 112}, {"time": 735, "pitch": 63, "duration": 3, "velocity": 115}, {"time": 741, "pitch": 62, "duration": 5, "velocity": 120}, {"time": 747, "pitch": 48, "duration": 19, "velocity": 101}, {"time": 747, "pitch": 60, "duration": 5, "velocity": 101}, {"time": 747, "pitch": 63, "duration": 5, "velocity": 106}, {"time": 753, "pitch": 55, "duration": 12, "velocity": 88}, {"time": 759, "pitch": 60, "duration": 4, "velocity": 109}, {"time": 759, "pitch": 67, "duration": 4, "velocity": 117}, {"time": 765, "pitch": 65, "duration": 3, "velocity": 112}, {"time": 768, "pitch": 63, "duration": 2, "velocity": 104}, {"time": 771, "pitch": 44, "duration": 8, "velocity": 106}, {"time": 771, "pitch": 60, "duration": 5, "velocity": 104}, {"time": 777, "pitch": 51, "duration": 4, "velocity": 96}, {"time": 783, "pitch": 46, "duration": 10, "velocity": 106}, {"time": 783, "pitch": 58, "duration": 6, "velocity": 106}, {"time": 783, "pitch": 62, "duration": 7, "velocity": 113}, {"time": 789, "pitch": 53, "duration": 4, "velocity": 85}, {"time": 792, "pitch": 58, "duration": 2, "velocity": 112}, {"time": 795, "pitch": 51, "duration": 22, "velocity": 101}, {"time": 795, "pitch": 58, "duration": 3, "velocity": 106}, {"time": 795, "pitch": 63, "duration": 8, "velocity": 112}, {"time": 801, "pitch": 58, "duration": 3, "velocity": 82}, {"time": 807, "pitch": 58, "duration": 2, "velocity": 109}, {"time": 807, "pitch": 63, "duration": 3, "velocity": 112}, {"time": 807, "pitch": 67, "duration": 5, "velocity": 120}, {"time": 810, "pitch": 58, "duration": 2, "velocity": 104}, {"time": 813, "pitch": 65, "duration": 4, "velocity": 106}, {"time": 816, "pitch": 58, "duration": 2, "velocity": 99}, {"time": 819, "pitch": 51, "duration": 19, "velocity": 106}, {"time": 819, "pitch": 58, "duration": 3, "velocity": 104}, {"time": 819, "pitch": 63, "duration": 7, "velocity": 106}, {"time": 825, "pitch": 58, "duration": 4, "velocity": 94}, {"time": 831, "pitch": 58, "duration": 5, "velocity": 109}, {"time": 831, "pitch": 63, "duration": 3, "velocity": 112}, {"time": 831, "pitch": 67, "duration": 4, "velocity": 107}, {"time": 837, "pitch": 62, "duration": 5, "velocity": 117}, {"time": 843, "pitch": 48, "duration": 20, "velocity": 99}, {"time": 843, "pitch": 60, "duration": 5, "velocity": 99}, {"time": 843, "pitch": 63, "duration": 4, "velocity": 106}, {"time": 849, "pitch": 55, "duration": 13, "velocity": 83}, {"time": 855, "pitch": 60, "duration": 4, "velocity": 104}, {"time": 855, "pitch": 63, "duration": 4, "velocity": 109}, {"time": 855, "pitch": 67, "duration": 6, "velocity": 117}, {"time": 861, "pitch": 60, "duration": 4, "velocity": 106}, {"time": 867, "pitch": 44, "duration": 9, "velocity": 101}, {"time": 867, "pitch": 56, "duration": 7, "velocity": 104}, {"time": 867, "pitch": 60, "duration": 7, "velocity": 101}, {"time": 873, "pitch": 51, "duration": 4, "velocity": 80}, {"time": 879, "pitch": 46, "duration": 11, "velocity": 109}, {"time": 879, "pitch": 58, "duration": 5, "velocity": 104}, {"time": 879, "pitch": 62, "duration": 7, "velocity": 113}, {"time": 885, "pitch": 58, "duration": 4, "velocity": 104}, {"time": 891, "pitch": 51, "duration": 20, "velocity": 104}, {"time": 891, "pitch": 58, "duration": 3, "velocity": 99}, {"time": 891, "pitch": 63, "duration": 7, "velocity": 101}, {"time": 897, "pitch": 58, "duration": 4, "velocity": 96}, {"time": 903, "pitch": 63, "duration": 3, "velocity": 109}, {"time": 903, "pitch": 67, "duration": 5, "velocity": 120}, {"time": 909, "pitch": 65, "duration": 3, "velocity": 112}, {"time": 912, "pitch": 63, "duration": 2, "velocity": 104}, {"time": 915, "pitch": 51, "duration": 22, "velocity": 104}, {"time": 915, "pitch": 58, "duration": 3, "velocity": 99}, {"time": 915, "pitch": 67, "duration": 10, "velocity": 117}, {"time": 921, "pitch": 58, "duration": 3, "velocity": 104}, {"time": 927, "pitch": 58, "duration": 4, "velocity": 112}, {"time": 927, "pitch": 63, "duration": 3, "velocity": 115}, {"time": 933, "pitch": 62, "duration": 5, "velocity": 120}, {"time": 939, "pitch": 48, "duration": 19, "velocity": 101}, {"time": 939, "pitch": 60, "duration": 5, "velocity": 101}, {"time": 939, "pitch": 63, "duration": 5, "velocity": 106}, {"time": 945, "pitch": 55, "duration": 12, "velocity": 88}, {"time": 951, "pitch": 60, "duration": 4, "velocity": 109}, {"time": 951, "pitch": 67, "duration": 4, "velocity": 117}, {"time": 957, "pitch": 65, "duration": 3, "velocity": 112}, {"time": 960, "pitch": 63, "duration": 2, "velocity": 104}, {"time": 963, "pitch": 44, "duration": 8, "velocity": 106}, {"time": 963, "pitch": 60, "duration": 5, "velocity": 104}, {"time": 969, "pitch": 51, "duration": 4, "velocity": 96}, {"time": 975, "pitch": 46, "duration": 10, "velocity": 106}, {"time": 975, "pitch": 58, "duration": 6, "velocity": 106}, {"time": 975, "pitch": 62, "duration": 7, "velocity": 113}, {"time": 981, "pitch": 53, "duration": 4, "velocity": 85}, {"time": 984, "pitch": 58, "duration": 2, "velocity": 112}, {"time": 987, "pitch": 51, "duration": 22, "velocity": 101}, {"time": 987, "pitch": 58, "duration": 3, "velocity": 106}, {"time": 987, "pitch": 63, "duration": 8, "velocity": 112}, {"time": 993, "pitch": 58, "duration": 3, "velocity": 82}, {"time": 999, "pitch": 58, "duration": 2, "velocity": 109}, {"time": 999, "pitch": 63, "duration": 3, "velocity": 112}, {"time": 999, "pitch": 67, "duration": 5, "velocity": 120}, {"time": 1002, "pitch": 58, "duration": 2, "velocity": 104}, {"time": 1005, "pitch": 65, "duration": 4, "velocity": 106}, {"time": 1008, "pitch": 58, "duration": 2, "velocity": 99}, {"time": 1011, "pitch": 51, "duration": 17, "velocity": 106}, {"time": 1017, "pitch": 58, "duration": 11, "velocity": 99}, {"time": 1023, "pitch": 67, "duration": 6, "velocity": 120}, {"time": 1029, "pitch": 63, "duration": 6, "velocity": 104}, {"time": 1035, "pitch": 48, "duration": 22, "velocity": 101}, {"time": 1041, "pitch": 55, "duration": 8, "velocity": 81}, {"time": 1047, "pitch": 63, "duration": 13, "velocity": 106}, {"time": 1053, "pitch": 55, "duration": 2, "velocity": 74}, {"time": 1059, "pitch": 44, "duration": 15, "velocity": 101}, {"time": 1059, "pitch": 60, "duration": 5, "velocity": 96}, {"time": 1065, "pitch": 51, "duration": 7, "velocity": 87}, {"time": 1071, "pitch": 56, "duration": 3, "velocity": 96}, {"time": 1071, "pitch": 60, "duration": 7, "velocity": 104}, {"time": 1071, "pitch": 63, "duration": 7, "velocity": 106}, {"time": 1077, "pitch": 56, "duration": 2, "velocity": 99}, {"time": 1083, "pitch": 51, "duration": 17, "velocity": 101}, {"time": 1083, "pitch": 58, "duration": 3, "velocity": 99}, {"time": 1083, "pitch": 63, "duration": 13, "velocity": 101}, {"time": 1089, "pitch": 58, "duration": 7, "velocity": 89}, {"time": 1095, "pitch": 67, "duration": 12, "velocity": 110}, {"time": 1101, "pitch": 58, "duration": 7, "velocity": 106}, {"time": 1107, "pitch": 51, "duration": 19, "velocity": 96}, {"time": 1107, "pitch": 63, "duration": 8, "velocity": 101}, {"time": 1113, "pitch": 58, "duration": 7, "velocity": 89}, {"time": 1119, "pitch": 67, "duration": 11, "velocity": 117}, {"time": 1125, "pitch": 58, "duration": 3, "velocity": 106}, {"time": 1131, "pitch": 48, "duration": 15, "velocity": 96}, {"time": 1131, "pitch": 60, "duration": 11, "velocity": 91}, {"time": 1131, "pitch": 63, "duration": 8, "velocity": 101}, {"time": 1137, "pitch": 55, "duration": 7, "velocity": 83}, {"time": 1143, "pitch": 63, "duration": 6, "velocity": 104}, {"time": 1143, "pitch": 67, "duration": 6, "velocity": 113}, {"time": 1149, "pitch": 60, "duration": 2, "velocity": 106}, {"time": 1155, "pitch": 44, "duration": 9, "velocity": 104}, {"time": 1155, "pitch": 56, "duration": 7, "velocity": 101}, {"time": 1155, "pitch": 60, "duration": 8, "velocity": 96}, {"time": 1161, "pitch": 51, "duration": 5, "velocity": 91}, {"time": 1167, "pitch": 46, "duration": 10, "velocity": 104}, {"time": 1167, "pitch": 58, "duration": 7, "velocity": 99}, {"time": 1167, "pitch": 62, "duration": 7, "velocity": 91}, {"time": 1179, "pitch": 51, "duration": 21, "velocity": 91}, {"time": 1179, "pitch": 58, "duration": 3, "velocity": 89}, {"time": 1179, "pitch": 63, "duration": 9, "velocity": 101}, {"time": 1185, "pitch": 58, "duration": 7, "velocity": 82}, {"time": 1191, "pitch": 67, "duration": 12, "velocity": 117}, {"time": 1197, "pitch": 58, "duration": 4, "velocity": 101}, {"time": 1203, "pitch": 51, "duration": 23, "velocity": 104}, {"time": 1203, "pitch": 58, "duration": 3, "velocity": 101}, {"time": 1203, "pitch": 63, "duration": 9, "velocity": 106}, {"time": 1209, "pitch": 58, "duration": 4, "velocity": 94}, {"time": 1215, "pitch": 63, "duration": 7, "velocity": 109}, {"time": 1215, "pitch": 67, "duration": 13, "velocity": 113}, {"time": 1221, "pitch": 58, "duration": 8, "velocity": 112}, {"time": 1227, "pitch": 46, "duration": 18, "velocity": 80}, {"time": 1227, "pitch": 62, "duration": 10, "velocity": 110}, {"time": 1233, "pitch": 53, "duration": 12, "velocity": 87}, {"time": 1239, "pitch": 62, "duration": 6, "velocity": 117}, {"time": 1245, "pitch": 58, "duration": 3, "velocity": 115}, {"time": 1251, "pitch": 48, "duration": 20, "velocity": 91}, {"time": 1251, "pitch": 60, "duration": 9, "velocity": 99}, {"time": 1251, "pitch": 63, "duration": 9, "velocity": 104}, {"time": 1257, "pitch": 55, "duration": 12, "velocity": 59}, {"time": 1263, "pitch": 67, "duration": 8, "velocity": 113}, {"time": 1269, "pitch": 60, "duration": 3, "velocity": 106}, {"time": 1275, "pitch": 46, "duration": 20, "velocity": 99}, {"time": 1275, "pitch": 58, "duration": 12, "velocity": 101}, {"time": 1275, "pitch": 62, "duration": 10, "velocity": 96}, {"time": 1281, "pitch": 53, "duration": 13, "velocity": 82}, {"time": 1287, "pitch": 65, "duration": 7, "velocity": 106}, {"time": 1293, "pitch": 58, "duration": 3, "velocity": 106}, {"time": 1299, "pitch": 44, "duration": 17, "velocity": 96}, {"time": 1299, "pitch": 56, "duration": 10, "velocity": 101}, {"time": 1299, "pitch": 60, "duration": 8, "velocity": 99}, {"time": 1305, "pitch": 51, "duration": 11, "velocity": 87}, {"time": 1311, "pitch": 60, "duration": 7, "velocity": 106}, {"time": 1311, "pitch": 63, "duration": 7, "velocity": 109}, {"time": 1317, "pitch": 56, "duration": 2, "velocity": 112}, {"time": 1323, "pitch": 51, "duration": 18, "velocity": 99}, {"time": 1323, "pitch": 58, "duration": 3, "velocity": 104}, {"time": 1323, "pitch": 63, "duration": 8, "velocity": 106}, {"time": 1329, "pitch": 58, "duration": 5, "velocity": 85}, {"time": 1335, "pitch": 63, "duration": 7, "velocity": 109}, {"time": 1335, "pitch": 67, "duration": 7, "velocity": 113}, {"time": 1341, "pitch": 58, "duration": 2, "velocity": 106}, {"time": 1347, "pitch": 41, "duration": 14, "velocity": 104}, {"time": 1347, "pitch": 60, "duration": 5, "velocity": 89}, {"time": 1347, "pitch": 65, "duration": 5, "velocity": 96}, {"time": 1353, "pitch": 48, "duration": 8, "velocity": 76}, {"time": 1359, "pitch": 53, "duration": 2, "velocity": 104}, {"time": 1359, "pitch": 57, "duration": 6, "velocity": 113}, {"time": 1359, "pitch": 60, "duration": 7, "velocity": 106}, {"time": 1365, "pitch": 53, "duration": 1, "velocity": 89}, {"time": 1371, "pitch": 46, "duration": 18, "velocity": 106}, {"time": 1371, "pitch": 58, "duration": 8, "velocity": 106}, {"time": 1371, "pitch": 62, "duration": 8, "velocity": 110}, {"time": 1377, "pitch": 53, "duration": 7, "velocity": 104}, {"time": 1383, "pitch": 58, "duration": 11, "velocity": 118}, {"time": 1383, "pitch": 62, "duration": 11, "velocity": 123}, {"time": 1383, "pitch": 65, "duration": 11, "velocity": 115}, {"time": 1383, "pitch": 70, "duration": 11, "velocity": 109}, {"time": 1389, "pitch": 53, "duration": 5, "velocity": 104}, {"time": 1395, "pitch": 44, "duration": 10, "velocity": 109}, {"time": 1395, "pitch": 56, "duration": 4, "velocity": 106}, {"time": 1395, "pitch": 60, "duration": 6, "velocity": 109}, {"time": 1398, "pitch": 51, "duration": 7, "velocity": 104}, {"time": 1401, "pitch": 56, "duration": 3, "velocity": 109}, {"time": 1404, "pitch": 60, "duration": 2, "velocity": 115}, {"time": 1407, "pitch": 46, "duration": 12, "velocity": 112}, {"time": 1407, "pitch": 58, "duration": 4, "velocity": 106}, {"time": 1407, "pitch": 62, "duration": 6, "velocity": 120}, {"time": 1410, "pitch": 53, "duration": 9, "velocity": 94}, {"time": 1413, "pitch": 58, "duration": 3, "velocity": 115}, {"time": 1416, "pitch": 62, "duration": 3, "velocity": 117}, {"time": 1419, "pitch": 51, "duration": 19, "velocity": 106}, {"time": 1419, "pitch": 58, "duration": 3, "velocity": 104}, {"time": 1419, "pitch": 63, "duration": 7, "velocity": 106}, {"time": 1425, "pitch": 58, "duration": 4, "velocity": 94}, {"time": 1431, "pitch": 58, "duration": 5, "velocity": 109}, {"time": 1431, "pitch": 63, "duration": 3, "velocity": 112}, {"time": 1431, "pitch": 67, "duration": 4, "velocity": 107}, {"time": 1437, "pitch": 62, "duration": 5, "velocity": 117}, {"time": 1443, "pitch": 48, "duration": 20, "velocity": 99}, {"time": 1443, "pitch": 60, "duration": 5, "velocity": 99}, {"time": 1443, "pitch": 63, "duration": 4, "velocity": 106}, {"time": 1449, "pitch": 55, "duration": 13, "velocity": 83}, {"time": 1455, "pitch": 60, "duration": 4, "velocity": 104}, {"time": 1455, "pitch": 63, "duration": 4, "velocity": 109}, {"time": 1455, "pitch": 67, "duration": 6, "velocity": 117}, {"time": 1461, "pitch": 60, "duration": 4, "velocity": 106}, {"time": 1467, "pitch": 44, "duration": 9, "velocity": 101}, {"time": 1467, "pitch": 56, "duration": 7, "velocity": 104}, {"time": 1467, "pitch": 60, "duration": 7, "velocity": 101}, {"time": 1473, "pitch": 51, "duration": 4, "velocity": 80}, {"time": 1479, "pitch": 46, "duration": 11, "velocity": 109}, {"time": 1479, "pitch": 58, "duration": 5, "velocity": 104}, {"time": 1479, "pitch": 62, "duration": 7, "velocity": 113}, {"time": 1485, "pitch": 58, "duration": 4, "velocity": 104}, {"time": 1491, "pitch": 51, "duration": 20, "velocity": 104}, {"time": 1491, "pitch": 58, "duration": 3, "velocity": 99}, {"time": 1491, "pitch": 63, "duration": 7, "velocity": 101}, {"time": 1497, "pitch": 58, "duration": 4, "velocity": 96}, {"time": 1503, "pitch": 63, "duration": 3, "velocity": 109}, {"time": 1503, "pitch": 67, "duration": 5, "velocity": 120}, {"time": 1509, "pitch": 65, "duration": 3, "velocity": 112}, {"time": 1512, "pitch": 63, "duration": 2, "velocity": 104}, {"time": 1515, "pitch": 51, "duration": 22, "velocity": 104}, {"time": 1515, "pitch": 58, "duration": 3, "velocity": 99}, {"time": 1515, "pitch": 67, "duration": 10, "velocity": 117}, {"time": 1521, "pitch": 58, "duration": 3, "velocity": 104}, {"time": 1527, "pitch": 58, "duration": 4, "velocity": 112}, {"time": 1527, "pitch": 63, "duration": 3, "velocity": 115}, {"time": 1533, "pitch": 62, "duration": 5, "velocity": 120}, {"time": 1539, "pitch": 48, "duration": 19, "velocity": 101}, {"time": 1539, "pitch": 60, "duration": 5, "velocity": 101}, {"time": 1539, "pitch": 63, "duration": 5, "velocity": 106}, {"time": 1545, "pitch": 55, "duration": 12, "velocity": 88}, {"time": 1551, "pitch": 60, "duration": 4, "velocity": 109}, {"time": 1551, "pitch": 67, "duration": 4, "velocity": 117}, {"time": 1557, "pitch": 65, "duration": 3, "velocity": 112}, {"time": 1560, "pitch": 63, "duration": 2, "velocity": 104}, {"time": 1563, "pitch": 44, "duration": 8, "velocity": 106}, {"time": 1563, "pitch": 60, "duration": 5, "velocity": 104}, {"time": 1569, "pitch": 51, "duration": 4, "velocity": 96}, {"time": 1575, "pitch": 46, "duration": 10, "velocity": 106}, {"time": 1575, "pitch": 58, "duration": 6, "velocity": 106}, {"time": 1575, "pitch": 62, "duration": 7, "velocity": 113}, {"time": 1581, "pitch": 53, "duration": 4, "velocity": 85}, {"time": 1584, "pitch": 58, "duration": 2, "velocity": 112}, {"time": 1587, "pitch": 51, "duration": 22, "velocity": 101}, {"time": 1587, "pitch": 58, "duration": 3, "velocity": 106}, {"time": 1587, "pitch": 63, "duration": 8, "velocity": 112}, {"time": 1593, "pitch": 58, "duration": 3, "velocity": 82}, {"time": 1599, "pitch": 58, "duration": 2, "velocity": 109}, {"time": 1599, "pitch": 63, "duration": 3, "velocity": 112}, {"time": 1599, "pitch": 67, "duration": 5, "velocity": 120}, {"time": 1602, "pitch": 58, "duration": 2, "velocity": 104}, {"time": 1605, "pitch": 65, "duration": 4, "velocity": 106}, {"time": 1608, "pitch": 58, "duration": 2, "velocity": 99}, {"time": 1611, "pitch": 51, "duration": 19, "velocity": 106}, {"time": 1611, "pitch": 58, "duration": 3, "velocity": 104}, {"time": 1611, "pitch": 63, "duration": 7, "velocity": 106}, {"time": 1617, "pitch": 58, "duration": 4, "velocity": 94}, {"time": 1623, "pitch": 58, "duration": 5, "velocity": 109}, {"time": 1623, "pitch": 63, "duration": 3, "velocity": 112}, {"time": 1623, "pitch": 67, "duration": 4, "velocity": 107}, {"time": 1629, "pitch": 62, "duration": 5, "velocity": 117}, {"time": 1635, "pitch": 48, "duration": 20, "velocity": 99}, {"time": 1635, "pitch": 60, "duration": 5, "velocity": 99}, {"time": 1635, "pitch": 63, "duration": 4, "velocity": 106}, {"time": 1641, "pitch": 55, "duration": 13, "velocity": 83}, {"time": 1647, "pitch": 60, "duration": 4, "velocity": 104}, {"time": 1647, "pitch": 63, "duration": 4, "velocity": 109}, {"time": 1647, "pitch": 67, "duration": 6, "velocity": 117}, {"time": 1653, "pitch": 60, "duration": 4, "velocity": 106}, {"time": 1659, "pitch": 44, "duration": 9, "velocity": 101}, {"time": 1659, "pitch": 56, "duration": 7, "velocity": 104}, {"time": 1659, "pitch": 60, "duration": 7, "velocity": 101}, {"time": 1665, "pitch": 51, "duration": 4, "velocity": 80}, {"time": 1671, "pitch": 46, "duration": 11, "velocity": 109}, {"time": 1671, "pitch": 58, "duration": 5, "velocity": 104}, {"time": 1671, "pitch": 62, "duration": 7, "velocity": 113}, {"time": 1677, "pitch": 58, "duration": 4, "velocity": 104}, {"time": 1683, "pitch": 51, "duration": 20, "velocity": 104}, {"time": 1683, "pitch": 58, "duration": 3, "velocity": 99}, {"time": 1683, "pitch": 63, "duration": 7, "velocity": 101}, {"time": 1689, "pitch": 58, "duration": 4, "velocity": 96}, {"time": 1695, "pitch": 63, "duration": 3, "velocity": 109}, {"time": 1695, "pitch": 67, "duration": 5, "velocity": 120}, {"time": 1701, "pitch": 65, "duration": 3, "velocity": 112}, {"time": 1704, "pitch": 63, "duration": 2, "velocity": 104}, {"time": 1707, "pitch": 51, "duration": 22, "velocity": 104}, {"time": 1707, "pitch": 58, "duration": 3, "velocity": 99}, {"time": 1707, "pitch": 67, "duration": 10, "velocity": 117}, {"time": 1713, "pitch": 58, "duration": 3, "velocity": 104}, {"time": 1719, "pitch": 58, "duration": 4, "velocity": 112}, {"time": 1719, "pitch": 63, "duration": 3, "velocity": 115}, {"time": 1725, "pitch": 62, "duration": 5, "velocity": 120}, {"time": 1731, "pitch": 48, "duration": 19, "velocity": 101}, {"time": 1731, "pitch": 60, "duration": 5, "velocity": 101}, {"time": 1731, "pitch": 63, "duration": 5, "velocity": 106}, {"time": 1737, "pitch": 55, "duration": 12, "velocity": 88}, {"time": 1743, "pitch": 60, "duration": 4, "velocity": 109}, {"time": 1743, "pitch": 67, "duration": 4, "velocity": 117}, {"time": 1749, "pitch": 65, "duration": 3, "velocity": 112}, {"time": 1752, "pitch": 63, "duration": 2, "velocity": 104}, {"time": 1755, "pitch": 44, "duration": 8, "velocity": 106}, {"time": 1755, "pitch": 60, "duration": 5, "velocity": 104}, {"time": 1761, "pitch": 51, "duration": 4, "velocity": 96}, {"time": 1767, "pitch": 46, "duration": 10, "velocity": 106}, {"time": 1767, "pitch": 58, "duration": 6, "velocity": 106}, {"time": 1767, "pitch": 62, "duration": 7, "velocity": 113}, {"time": 1773, "pitch": 53, "duration": 4, "velocity": 85}, {"time": 1776, "pitch": 58, "duration": 2, "velocity": 112}, {"time": 1779, "pitch": 51, "duration": 22, "velocity": 101}, {"time": 1779, "pitch": 58, "duration": 15, "velocity": 106}, {"time": 1779, "pitch": 63, "duration": 18, "velocity": 112}, {"time": 1803, "pitch": 46, "duration": 17, "velocity": 106}, {"time": 1809, "pitch": 53, "duration": 11, "velocity": 99}, {"time": 1815, "pitch": 62, "duration": 6, "velocity": 120}, {"time": 1821, "pitch": 58, "duration": 6, "velocity": 104}, {"time": 1827, "pitch": 43, "duration": 22, "velocity": 101}, {"time": 1833, "pitch": 50, "duration": 8, "velocity": 81}, {"time": 1839, "pitch": 58, "duration": 13, "velocity": 106}, {"time": 1845, "pitch": 50, "duration": 2, "velocity": 74}, {"time": 1851, "pitch": 39, "duration": 15, "velocity": 101}, {"time": 1851, "pitch": 55, "duration": 5, "velocity": 96}, {"time": 1857, "pitch": 46, "duration": 7, "velocity": 87}, {"time": 1863, "pitch": 51, "duration": 3, "velocity": 96}, {"time": 1863, "pitch": 55, "duration": 7, "velocity": 104}, {"time": 1863, "pitch": 58, "duration": 7, "velocity": 106}, {"time": 1869, "pitch": 51, "duration": 2, "velocity": 99}, {"time": 1875, "pitch": 46, "duration": 17, "velocity": 101}, {"time": 1875, "pitch": 53, "duration": 3, "velocity": 99}, {"time": 1875, "pitch": 58, "duration": 13, "velocity": 101}, {"time": 1881, "pitch": 53, "duration": 7, "velocity": 89}, {"time": 1887, "pitch": 62, "duration": 12, "velocity": 110}, {"time": 1893, "pitch": 53, "duration": 7, "velocity": 106}, {"time": 1899, "pitch": 46, "duration": 19, "velocity": 96}, {"time": 1899, "pitch": 58, "duration": 8, "velocity": 101}, {"time": 1905, "pitch": 53, "duration": 7, "velocity": 89}, {"time": 1911, "pitch": 62, "duration": 11, "velocity": 117}, {"time": 1917, "pitch": 53, "duration": 3, "velocity": 106}, {"time": 1923, "pitch": 43, "duration": 15, "velocity": 96}, {"time": 1923, "pitch": 55, "duration": 11, "velocity": 91}, {"time": 1923, "pitch": 58, "duration": 8, "velocity": 101}, {"time": 1929, "pitch": 50, "duration": 7, "velocity": 83}, {"time": 1935, "pitch": 58, "duration": 6, "velocity": 104}, {"time": 1935, "pitch": 62, "duration": 6, "velocity": 113}, {"time": 1941, "pitch": 55, "duration": 2, "velocity": 106}, {"time": 1947, "pitch": 39, "duration": 9, "velocity": 104}, {"time": 1947, "pitch": 51, "duration": 7, "velocity": 101}, {"time": 1947, "pitch": 55, "duration": 8, "velocity": 96}, {"time": 1953, "pitch": 46, "duration": 5, "velocity": 91}, {"time": 1959, "pitch": 41, "duration": 10, "velocity": 104}, {"time": 1959, "pitch": 53, "duration": 7, "velocity": 99}, {"time": 1959, "pitch": 57, "duration": 7, "velocity": 91}, {"time": 1971, "pitch": 46, "duration": 21, "velocity": 91}, {"time": 1971, "pitch": 53, "duration": 3, "velocity": 89}, {"time": 1971, "pitch": 58, "duration": 9, "velocity": 101}, {"time": 1977, "pitch": 53, "duration": 7, "velocity": 82}, {"time": 1983, "pitch": 62, "duration": 12, "velocity": 117}, {"time": 1989, "pitch": 53, "duration": 4, "velocity": 101}, {"time": 1995, "pitch": 51, "duration": 17, "velocity": 106}, {"time": 2001, "pitch": 58, "duration": 11, "velocity": 99}, {"time": 2007, "pitch": 67, "duration": 6, "velocity": 120}, {"time": 2013, "pitch": 63, "duration": 6, "velocity": 104}, {"time": 2019, "pitch": 48, "duration": 22, "velocity": 101}, {"time": 2025, "pitch": 55, "duration": 8, "velocity": 81}, {"time": 2031, "pitch": 63, "duration": 13, "velocity": 106}, {"time": 2037, "pitch": 55, "duration": 2, "velocity": 74}, {"time": 2043, "pitch": 44, "duration": 15, "velocity": 101}, {"time": 2043, "pitch": 60, "duration": 5, "velocity": 96}, {"time": 2049, "pitch": 51, "duration": 7, "velocity": 87}, {"time": 2055, "pitch": 56, "duration": 3, "velocity": 96}, {"time": 2055, "pitch": 60, "duration": 7, "velocity": 104}, {"time": 2055, "pitch": 63, "duration": 7, "velocity": 106}, {"time": 2061, "pitch": 56, "duration": 2, "velocity": 99}, {"time": 2067, "pitch": 51, "duration": 17, "velocity": 101}, {"time": 2067, "pitch": 58, "duration": 3, "velocity": 99}, {"time": 2067, "pitch": 63, "duration": 13, "velocity": 101}, {"time": 2073, "pitch": 58, "duration": 7, "velocity": 89}, {"time": 2079, "pitch": 67, "duration": 12, "velocity": 110}, {"time": 2085, "pitch": 58, "duration": 7, "velocity": 106}, {"time": 2091, "pitch": 51, "duration": 19, "velocity": 96}, {"time": 2091, "pitch": 63, "duration": 8, "velocity": 101}, {"time": 2097, "pitch": 58, "duration": 7, "velocity": 89}, {"time": 2103, "pitch": 67, "duration": 11, "velocity": 117}, {"time": 2109, "pitch": 58, "duration": 3, "velocity": 106}, {"time": 2115, "pitch": 48, "duration": 15, "velocity": 96}, {"time": 2115, "pitch": 60, "duration": 11, "velocity": 91}, {"time": 2115, "pitch": 63, "duration": 8, "velocity": 101}, {"time": 2121, "pitch": 55, "duration": 7, "velocity": 83}, {"time": 2127, "pitch": 63, "duration": 6, "velocity": 104}, {"time": 2127, "pitch": 67, "duration": 6, "velocity": 113}, {"time": 2133, "pitch": 60, "duration": 2, "velocity": 106}, {"time": 2139, "pitch": 44, "duration": 9, "velocity": 104}, {"time": 2139, "pitch": 56, "duration": 7, "velocity": 101}, {"time": 2139, "pitch": 60, "duration": 8, "velocity": 96}, {"time": 2145, "pitch": 51, "duration": 5, "velocity": 91}, {"time": 2151, "pitch": 46, "duration": 10, "velocity": 104}, {"time": 2151, "pitch": 58, "duration": 7, "velocity": 99}, {"time": 2151, "pitch": 62, "duration": 7, "velocity": 91}, {"time": 2163, "pitch": 51, "duration": 21, "velocity": 91}, {"time": 2163, "pitch": 58, "duration": 3, "velocity": 89}, {"time": 2163, "pitch": 63, "duration": 9, "velocity": 101}, {"time": 2169, "pitch": 58, "duration": 7, "velocity": 82}, {"time": 2175, "pitch": 67, "duration": 12, "velocity": 117}, {"time": 2181, "pitch": 58, "duration": 4, "velocity": 101}, {"time": 2187, "pitch": 51, "duration": 19, "velocity": 106}, {"time": 2187, "pitch": 58, "duration": 3, "velocity": 104}, {"time": 2187, "pitch": 63, "duration": 7, "velocity": 106}, {"time": 2193, "pitch": 58, "duration": 4, "velocity": 94}, {"time": 2199, "pitch": 58, "duration": 5, "velocity": 109}, {"time": 2199, "pitch": 63, "duration": 3, "velocity": 112}, {"time": 2199, "pitch": 67, "duration": 4, "velocity": 107}, {"time": 2205, "pitch": 62, "duration": 5, "velocity": 117}, {"time": 2211, "pitch": 48, "duration": 20, "velocity": 99}, {"time": 2211, "pitch": 60, "duration": 5, "velocity": 99}, {"time": 2211, "pitch": 63, "duration": 4, "velocity": 106}, {"time": 2217, "pitch": 55, "duration": 13, "velocity": 83}, {"time": 2223, "pitch": 60, "duration": 4, "velocity": 104}, {"time": 2223, "pitch": 63, "duration": 4, "velocity": 109}, {"time": 2223, "pitch": 67, "duration": 6, "velocity": 117}, {"time": 2229, "pitch": 60, "duration": 4, "velocity": 106}, {"time": 2235, "pitch": 44, "duration": 9, "velocity": 101}, {"time": 2235, "pitch": 56, "duration": 7, "velocity": 104}, {"time": 2235, "pitch": 60, "duration": 7, "velocity": 101}, {"time": 2241, "pitch": 51, "duration": 4, "velocity": 80}, {"time": 2247, "pitch": 46, "duration": 11, "velocity": 109}, {"time": 2247, "pitch": 58, "duration": 5, "velocity": 104}, {"time": 2247, "pitch": 62, "duration": 7, "velocity": 113}, {"time": 2253, "pitch": 58, "duration": 4, "velocity": 104}, {"time": 2259, "pitch": 51, "duration": 20, "velocity": 104}, {"time": 2259, "pitch": 58, "duration": 3, "velocity": 99}, {"time": 2259, "pitch": 63, "duration": 7, "velocity": 101}, {"time": 2265, "pitch": 58, "duration": 4, "velocity": 96}, {"time": 2271, "pitch": 63, "duration": 3, "velocity": 109}, {"time": 2271, "pitch": 67, "duration": 5, "velocity": 120}, {"time": 2277, "pitch": 65, "duration": 3, "velocity": 112}, {"time": 2280, "pitch": 63, "duration": 2, "velocity": 104}, {"time": 2283, "pitch": 51, "duration": 22, "velocity": 104}, {"time": 2283, "pitch": 58, "duration": 3, "velocity": 99}, {"time": 2283, "pitch": 67, "duration": 10, "velocity": 117}, {"time": 2289, "pitch": 58, "duration": 3, "velocity": 104}, {"time": 2295, "pitch": 58, "duration": 4, "velocity": 112}, {"time": 2295, "pitch": 63, "duration": 3, "velocity": 115}, {"time": 2301, "pitch": 62, "duration": 5, "velocity": 120}, {"time": 2307, "pitch": 48, "duration": 19, "velocity": 101}, {"time": 2307, "pitch": 60, "duration": 5, "velocity": 101}, {"time": 2307, "pitch": 63, "duration": 5, "velocity": 106}, {"time": 2313, "pitch": 55, "duration": 12, "velocity": 88}, {"time": 2319, "pitch": 60, "duration": 4, "velocity": 109}, {"time": 2319, "pitch": 67, "duration": 4, "velocity": 117}, {"time": 2325, "pitch": 65, "duration": 3, "velocity": 112}, {"time": 2328, "pitch": 63, "duration": 2, "velocity": 104}, {"time": 2331, "pitch": 44, "duration": 8, "velocity": 106}, {"time": 2331, "pitch": 60, "duration": 5, "velocity": 104}, {"time": 2337, "pitch": 51, "duration": 4, "velocity": 96}, {"time": 2343, "pitch": 46, "duration": 10, "velocity": 106}, {"time": 2343, "pitch": 58, "duration": 6, "velocity": 106}, {"time": 2343, "pitch": 62, "duration": 7, "velocity": 113}, {"time": 2349, "pitch": 53, "duration": 4, "velocity": 85}, {"time": 2352, "pitch": 58, "duration": 2, "velocity": 112}, {"time": 2355, "pitch": 51, "duration": 22, "velocity": 101}, {"time": 2355, "pitch": 58, "duration": 3, "velocity": 106}, {"time": 2355, "pitch": 63, "duration": 8, "velocity": 112}, {"time": 2361, "pitch": 58, "duration": 3, "velocity": 82}, {"time": 2367, "pitch": 58, "duration": 2, "velocity": 109}, {"time": 2367, "pitch": 63, "duration": 3, "velocity": 112}, {"time": 2367, "pitch": 67, "duration": 5, "velocity": 120}, {"time": 2370, "pitch": 58, "duration": 2, "velocity": 104}, {"time": 2373, "pitch": 65, "duration": 4, "velocity": 106}, {"time": 2376, "pitch": 58, "duration": 2, "velocity": 99}, {"time": 2379, "pitch": 51, "duration": 19, "velocity": 106}, {"time": 2379, "pitch": 58, "duration": 3, "velocity": 104}, {"time": 2379, "pitch": 63, "duration": 7, "velocity": 106}, {"time": 2385, "pitch": 58, "duration": 4, "velocity": 94}, {"time": 2391, "pitch": 58, "duration": 5, "velocity": 109}, {"time": 2391, "pitch": 63, "duration": 3, "velocity": 112}, {"time": 2391, "pitch": 67, "duration": 4, "velocity": 107}, {"time": 2397, "pitch": 62, "duration": 5, "velocity": 117}, {"time": 2403, "pitch": 48, "duration": 20, "velocity": 99}, {"time": 2403, "pitch": 60, "duration": 5, "velocity": 99}, {"time": 2403, "pitch": 63, "duration": 4, "velocity": 106}, {"time": 2409, "pitch": 55, "duration": 13, "velocity": 83}, {"time": 2415, "pitch": 60, "duration": 4, "velocity": 104}, {"time": 2415, "pitch": 63, "duration": 4, "velocity": 109}, {"time": 2415, "pitch": 67, "duration": 6, "velocity": 117}, {"time": 2421, "pitch": 60, "duration": 4, "velocity": 106}, {"time": 2427, "pitch": 44, "duration": 9, "velocity": 101}, {"time": 2427, "pitch": 56, "duration": 7, "velocity": 104}, {"time": 2427, "pitch": 60, "duration": 7, "velocity": 101}, {"time": 2433, "pitch": 51, "duration": 4, "velocity": 80}, {"time": 2439, "pitch": 46, "duration": 11, "velocity": 109}, {"time": 2439, "pitch": 58, "duration": 5, "velocity": 104}, {"time": 2439, "pitch": 62, "duration": 7, "velocity": 113}, {"time": 2445, "pitch": 58, "duration": 4, "velocity": 104}, {"time": 2451, "pitch": 51, "duration": 20, "velocity": 104}, {"time": 2451, "pitch": 58, "duration": 3, "velocity": 99}, {"time": 2451, "pitch": 63, "duration": 7, "velocity": 101}, {"time": 2457, "pitch": 58, "duration": 4, "velocity": 96}, {"time": 2463, "pitch": 63, "duration": 3, "velocity": 109}, {"time": 2463, "pitch": 67, "duration": 5, "velocity": 120}, {"time": 2469, "pitch": 65, "duration": 3, "velocity": 112}, {"time": 2472, "pitch": 63, "duration": 2, "velocity": 104}, {"time": 2475, "pitch": 51, "duration": 22, "velocity": 104}, {"time": 2475, "pitch": 58, "duration": 3, "velocity": 99}, {"time": 2475, "pitch": 67, "duration": 10, "velocity": 117}, {"time": 2481, "pitch": 58, "duration": 3, "velocity": 104}, {"time": 2487, "pitch": 58, "duration": 4, "velocity": 112}, {"time": 2487, "pitch": 63, "duration": 3, "velocity": 115}, {"time": 2493, "pitch": 62, "duration": 5, "velocity": 120}, {"time": 2499, "pitch": 48, "duration": 19, "velocity": 101}, {"time": 2499, "pitch": 60, "duration": 5, "velocity": 101}, {"time": 2499, "pitch": 63, "duration": 5, "velocity": 106}, {"time": 2505, "pitch": 55, "duration": 12, "velocity": 88}, {"time": 2511, "pitch": 60, "duration": 4, "velocity": 109}, {"time": 2511, "pitch": 67, "duration": 4, "velocity": 117}, {"time": 2517, "pitch": 65, "duration": 3, "velocity": 112}, {"time": 2520, "pitch": 63, "duration": 2, "velocity": 104}, {"time": 2523, "pitch": 44, "duration": 8, "velocity": 106}, {"time": 2523, "pitch": 60, "duration": 5, "velocity": 104}, {"time": 2529, "pitch": 51, "duration": 4, "velocity": 96}, {"time": 2535, "pitch": 46, "duration": 10, "velocity": 106}, {"time": 2535, "pitch": 58, "duration": 6, "velocity": 106}, {"time": 2535, "pitch": 62, "duration": 7, "velocity": 113}, {"time": 2541, "pitch": 53, "duration": 4, "velocity": 85}, {"time": 2544, "pitch": 58, "duration": 2, "velocity": 112}, {"time": 2547, "pitch": 51, "duration": 22, "velocity": 101}, {"time": 2547, "pitch": 58, "duration": 3, "velocity": 106}, {"time": 2547, "pitch": 63, "duration": 8, "velocity": 112}, {"time": 2553, "pitch": 58, "duration": 3, "velocity": 82}, {"time": 2559, "pitch": 58, "duration": 2, "velocity": 109}, {"time": 2559, "pitch": 63, "duration": 3, "velocity": 112}, {"time": 2559, "pitch": 67, "duration": 5, "velocity": 120}, {"time": 2562, "pitch": 58, "duration": 2, "velocity": 104}, {"time": 2565, "pitch": 65, "duration": 4, "velocity": 106}, {"time": 2568, "pitch": 58, "duration": 2, "velocity": 99}, {"time": 2571, "pitch": 44, "duration": 19, "velocity": 101}, {"time": 2571, "pitch": 56, "duration": 7, "velocity": 96}, {"time": 2571, "pitch": 60, "duration": 12, "velocity": 96}, {"time": 2577, "pitch": 51, "duration": 14, "velocity": 91}, {"time": 2583, "pitch": 56, "duration": 7, "velocity": 109}, {"time": 2595, "pitch": 46, "duration": 38, "velocity": 104}, {"time": 2595, "pitch": 58, "duration": 45, "velocity": 104}, {"time": 2595, "pitch": 62, "duration": 45, "velocity": 99}, {"time": 2643, "pitch": 51, "duration": 17, "velocity": 106}, {"time": 2649, "pitch": 58, "duration": 11, "velocity": 99}, {"time": 2655, "pitch": 67, "duration": 6, "velocity": 120}, {"time": 2661, "pitch": 63, "duration": 6, "velocity": 104}, {"time": 2667, "pitch": 48, "duration": 22, "velocity": 101}, {"time": 2673, "pitch": 55, "duration": 8, "velocity": 81}, {"time": 2679, "pitch": 63, "duration": 13, "velocity": 106}, {"time": 2685, "pitch": 55, "duration": 2, "velocity": 74}, {"time": 2691, "pitch": 44, "duration": 15, "velocity": 101}, {"time": 2691, "pitch": 60, "duration": 5, "velocity": 96}, {"time": 2697, "pitch": 51, "duration": 7, "velocity": 87}, {"time": 2703, "pitch": 56, "duration": 3, "velocity": 96}, {"time": 2703, "pitch": 60, "duration": 7, "velocity": 104}, {"time": 2703, "pitch": 63, "duration": 7, "velocity": 106}, {"time": 2709, "pitch": 56, "duration": 2, "velocity": 99}, {"time": 2715, "pitch": 51, "duration": 17, "velocity": 101}, {"time": 2715, "pitch": 58, "duration": 3, "velocity": 99}, {"time": 2715, "pitch": 63, "duration": 13, "velocity": 101}, {"time": 2721, "pitch": 58, "duration": 7, "velocity": 89}, {"time": 2727, "pitch": 67, "duration": 12, "velocity": 110}, {"time": 2733, "pitch": 58, "duration": 7, "velocity": 106}, {"time": 2739, "pitch": 51, "duration": 19, "velocity": 96}, {"time": 2739, "pitch": 63, "duration": 8, "velocity": 101}, {"time": 2745, "pitch": 58, "duration": 7, "velocity": 89}, {"time": 2751, "pitch": 67, "duration": 11, "velocity": 117}, {"time": 2757, "pitch": 58, "duration": 3, "velocity": 106}, {"time": 2763, "pitch": 48, "duration": 15, "velocity": 96}, {"time": 2763, "pitch": 60, "duration": 11, "velocity": 91}, {"time": 2763, "pitch": 63, "duration": 8, "velocity": 101}, {"time": 2769, "pitch": 55, "duration": 7, "velocity": 83}, {"time": 2775, "pitch": 63, "duration": 6, "velocity": 104}, {"time": 2775, "pitch": 67, "duration": 6, "velocity": 113}, {"time": 2781, "pitch": 60, "duration": 2, "velocity": 106}, {"time": 2787, "pitch": 44, "duration": 9, "velocity": 104}, {"time": 2787, "pitch": 56, "duration": 7, "velocity": 101}, {"time": 2787, "pitch": 60, "duration": 8, "velocity": 96}, {"time": 2793, "pitch": 51, "duration": 5, "velocity": 91}, {"time": 2799, "pitch": 46, "duration": 10, "velocity": 104}, {"time": 2799, "pitch": 58, "duration": 7, "velocity": 99}, {"time": 2799, "pitch": 62, "duration": 7, "velocity": 91}, {"time": 2811, "pitch": 51, "duration": 21, "velocity": 91}, {"time": 2811, "pitch": 58, "duration": 3, "velocity": 89}, {"time": 2811, "pitch": 63, "duration": 9, "velocity": 101}, {"time": 2817, "pitch": 58, "duration": 7, "velocity": 82}, {"time": 2823, "pitch": 67, "duration": 12, "velocity": 117}, {"time": 2829, "pitch": 58, "duration": 4, "velocity": 101}, {"time": 2835, "pitch": 51, "duration": 33, "velocity": 106}, {"time": 2838, "pitch": 58, "duration": 28, "velocity": 80}, {"time": 2841, "pitch": 63, "duration": 38, "velocity": 96}, {"time": 2846, "pitch": 67, "duration": 33, "velocity": 49}, {"time": 2850, "pitch": 70, "duration": 30, "velocity": 67}, {"time": 2855, "pitch": 75, "duration": 25, "velocity": 91}], "annotations": [{"time": 34, "annotation": {"number": 64, "value": 127}, "group": "control_change"}, {"time": 51, "annotation": {"number": 64, "value": 0}, "group": "control_change"}, {"time": 53, "annotation": {"number": 64, "value": 127}, "group": "control_change"}, {"time": 74, "annotation": {"number": 64, "value": 0}, "group": "control_change"}, {"time": 76, "annotation": {"number": 64, "value": 127}, "group": "control_change"}, {"time": 98, "annotation": {"number": 64, "value": 0}, "group": "control_change"}, {"time": 104, "annotation": {"number": 64, "value": 127}, "group": "control_change"}, {"time": 121, "annotation": {"number": 64, "value": 0}, "group": "control_change"}, {"time": 129, "annotation": {"number": 64, "value": 127}, "group": "control_change"}, {"time": 146, "annotation": {"number": 64, "value": 0}, "group": "control_change"}, {"time": 151, "annotation": {"number": 64, "value": 127}, "group": "control_change"}, {"time": 169, "annotation": {"number": 64, "value": 0}, "group": "control_change"}, {"time": 172, "annotation": {"number": 64, "value": 127}, "group": "control_change"}, {"time": 182, "annotation": {"number": 64, "value": 0}, "group": "control_change"}, {"time": 187, "annotation": {"number": 64, "value": 127}, "group": "control_change"}, {"time": 193, "annotation": {"number": 64, "value": 0}, "group": "control_change"}, {"time": 196, "annotation": {"number": 64, "value": 127}, "group": "control_change"}, {"time": 218, "annotation": {"number": 64, "value": 0}, "group": "control_change"}, {"time": 221, "annotation": {"number": 64, "value": 127}, "group": "control_change"}, {"time": 240, "annotation": {"number": 64, "value": 0}, "group": "control_change"}, {"time": 247, "annotation": {"number": 64, "value": 127}, "group": "control_change"}, {"time": 265, "annotation": {"number": 64, "value": 0}, "group": "control_change"}, {"time": 273, "annotation": {"number": 64, "value": 127}, "group": "control_change"}, {"time": 290, "annotation": {"number": 64, "value": 0}, "group": "control_change"}, {"time": 293, "annotation": {"number": 64, "value": 127}, "group": "control_change"}, {"time": 313, "annotation": {"number": 64, "value": 0}, "group": "control_change"}, {"time": 320, "annotation": {"number": 64, "value": 127}, "group": "control_change"}, {"time": 339, "annotation": {"number": 64, "value": 0}, "group": "control_change"}, {"time": 346, "annotation": {"number": 64, "value": 127}, "group": "control_change"}, {"time": 363, "annotation": {"number": 64, "value": 0}, "group": "control_change"}, {"time": 369, "annotation": {"number": 64, "value": 127}, "group": "control_change"}, {"time": 386, "annotation": {"number": 64, "value": 0}, "group": "control_change"}, {"time": 388, "annotation": {"number": 64, "value": 127}, "group": "control_change"}, {"time": 409, "annotation": {"number": 64, "value": 0}, "group": "control_change"}, {"time": 414, "annotation": {"number": 64, "value": 127}, "group": "control_change"}, {"time": 433, "annotation": {"number": 64, "value": 0}, "group": "control_change"}, {"time": 440, "annotation": {"number": 64, "value": 127}, "group": "control_change"}, {"time": 461, "annotation": {"number": 64, "value": 0}, "group": "control_change"}, {"time": 467, "annotation": {"number": 64, "value": 127}, "group": "control_change"}, {"time": 482, "annotation": {"number": 64, "value": 0}, "group": "control_change"}, {"time": 486, "annotation": {"number": 64, "value": 127}, "group": "control_change"}, {"time": 507, "annotation": {"number": 64, "value": 0}, "group": "control_change"}, {"time": 513, "annotation": {"number": 64, "value": 127}, "group": "control_change"}, {"time": 530, "annotation": {"number": 64, "value": 0}, "group": "control_change"}, {"time": 536, "annotation": {"number": 64, "value": 127}, "group": "control_change"}, {"time": 554, "annotation": {"number": 64, "value": 0}, "group": "control_change"}, {"time": 560, "annotation": {"number": 64, "value": 127}, "group": "control_change"}, {"time": 578, "annotation": {"number": 64, "value": 0}, "group": "control_change"}, {"time": 581, "annotation": {"number": 64, "value": 127}, "group": "control_change"}, {"time": 602, "annotation": {"number": 64, "value": 0}, "group": "control_change"}, {"time": 604, "annotation": {"number": 64, "value": 127}, "group": "control_change"}, {"time": 625, "annotation": {"number": 64, "value": 0}, "group": "control_change"}, {"time": 630, "annotation": {"number": 64, "value": 127}, "group": "control_change"}, {"time": 648, "annotation": {"number": 64, "value": 0}, "group": "control_change"}, {"time": 652, "annotation": {"number": 64, "value": 127}, "group": "control_change"}, {"time": 675, "annotation": {"number": 64, "value": 0}, "group": "control_change"}, {"time": 680, "annotation": {"number": 64, "value": 127}, "group": "control_change"}, {"time": 686, "annotation": {"number": 64, "value": 0}, "group": "control_change"}, {"time": 688, "annotation": {"number": 64, "value": 127}, "group": "control_change"}, {"time": 698, "annotation": {"number": 64, "value": 0}, "group": "control_change"}, {"time": 700, "annotation": {"number": 64, "value": 127}, "group": "control_change"}, {"time": 721, "annotation": {"number": 64, "value": 0}, "group": "control_change"}, {"time": 725, "annotation": {"number": 64, "value": 127}, "group": "control_change"}, {"time": 745, "annotation": {"number": 64, "value": 0}, "group": "control_change"}, {"time": 749, "annotation": {"number": 64, "value": 127}, "group": "control_change"}, {"time": 770, "annotation": {"number": 64, "value": 0}, "group": "control_change"}, {"time": 772, "annotation": {"number": 64, "value": 127}, "group": "control_change"}, {"time": 781, "annotation": {"number": 64, "value": 0}, "group": "control_change"}, {"time": 784, "annotation": {"number": 64, "value": 127}, "group": "control_change"}, {"time": 794, "annotation": {"number": 64, "value": 0}, "group": "control_change"}, {"time": 796, "annotation": {"number": 64, "value": 127}, "group": "control_change"}, {"time": 817, "annotation": {"number": 64, "value": 0}, "group": "control_change"}, {"time": 822, "annotation": {"number": 64, "value": 127}, "group": "control_change"}, {"time": 840, "annotation": {"number": 64, "value": 0}, "group": "control_change"}, {"time": 844, "annotation": {"number": 64, "value": 127}, "group": "control_change"}, {"time": 867, "annotation": {"number": 64, "value": 0}, "group": "control_change"}, {"time": 872, "annotation": {"number": 64, "value": 127}, "group": "control_change"}, {"time": 878, "annotation": {"number": 64, "value": 0}, "group": "control_change"}, {"time": 880, "annotation": {"number": 64, "value": 127}, "group": "control_change"}, {"time": 890, "annotation": {"number": 64, "value": 0}, "group": "control_change"}, {"time": 892, "annotation": {"number": 64, "value": 127}, "group": "control_change"}, {"time": 913, "annotation": {"number": 64, "value": 0}, "group": "control_change"}, {"time": 917, "annotation": {"number": 64, "value": 127}, "group": "control_change"}, {"time": 937, "annotation": {"number": 64, "value": 0}, "group": "control_change"}, {"time": 941, "annotation": {"number": 64, "value": 127}, "group": "control_change"}, {"time": 962, "annotation": {"number": 64, "value": 0}, "group": "control_change"}, {"time": 964, "annotation": {"number": 64, "value": 127}, "group": "control_change"}, {"time": 973, "annotation": {"number": 64, "value": 0}, "group": "control_change"}, {"time": 976, "annotation": {"number": 64, "value": 127}, "group": "control_change"}, {"time": 986, "annotation": {"number": 64, "value": 0}, "group": "control_change"}, {"time": 988, "annotation": {"number": 64, "value": 127}, "group": "control_change"}, {"time": 1009, "annotation": {"number": 64, "value": 0}, "group": "control_change"}, {"time": 1018, "annotation": {"number": 64, "value": 127}, "group": "control_change"}, {"time": 1035, "annotation": {"number": 64, "value": 0}, "group": "control_change"}, {"time": 1037, "annotation": {"number": 64, "value": 127}, "group": "control_change"}, {"time": 1058, "annotation": {"number": 64, "value": 0}, "group": "control_change"}, {"time": 1060, "annotation": {"number": 64, "value": 127}, "group": "control_change"}, {"time": 1082, "annotation": {"number": 64, "value": 0}, "group": "control_change"}, {"time": 1088, "annotation": {"number": 64, "value": 127}, "group": "control_change"}, {"time": 1105, "annotation": {"number": 64, "value": 0}, "group": "control_change"}, {"time": 1113, "annotation": {"number": 64, "value": 127}, "group": "control_change"}, {"time": 1130, "annotation": {"number": 64, "value": 0}, "group": "control_change"}, {"time": 1135, "annotation": {"number": 64, "value": 127}, "group": "control_change"}, {"time": 1153, "annotation": {"number": 64, "value": 0}, "group": "control_change"}, {"time": 1156, "annotation": {"number": 64, "value": 127}, "group": "control_change"}, {"time": 1166, "annotation": {"number": 64, "value": 0}, "group": "control_change"}, {"time": 1171, "annotation": {"number": 64, "value": 127}, "group": "control_change"}, {"time": 1177, "annotation": {"number": 64, "value": 0}, "group": "control_change"}, {"time": 1180, "annotation": {"number": 64, "value": 127}, "group": "control_change"}, {"time": 1202, "annotation": {"number": 64, "value": 0}, "group": "control_change"}, {"time": 1208, "annotation": {"number": 64, "value": 127}, "group": "control_change"}, {"time": 1229, "annotation": {"number": 64, "value": 0}, "group": "control_change"}, {"time": 1235, "annotation": {"number": 64, "value": 127}, "group": "control_change"}, {"time": 1250, "annotation": {"number": 64, "value": 0}, "group": "control_change"}, {"time": 1254, "annotation": {"number": 64, "value": 127}, "group": "control_change"}, {"time": 1275, "annotation": {"number": 64, "value": 0}, "group": "control_change"}, {"time": 1281, "annotation": {"number": 64, "value": 127}, "group": "control_change"}, {"time": 1298, "annotation": {"number": 64, "value": 0}, "group": "control_change"}, {"time": 1304, "annotation": {"number": 64, "value": 127}, "group": "control_change"}, {"time": 1322, "annotation": {"number": 64, "value": 0}, "group": "control_change"}, {"time": 1328, "annotation": {"number": 64, "value": 127}, "group": "control_change"}, {"time": 1346, "annotation": {"number": 64, "value": 0}, "group": "control_change"}, {"time": 1349, "annotation": {"number": 64, "value": 127}, "group": "control_change"}, {"time": 1370, "annotation": {"number": 64, "value": 0}, "group": "control_change"}, {"time": 1372, "annotation": {"number": 64, "value": 127}, "group": "control_change"}, {"time": 1393, "annotation": {"number": 64, "value": 0}, "group": "control_change"}, {"time": 1396, "annotation": {"number": 64, "value": 127}, "group": "control_change"}, {"time": 1406, "annotation": {"number": 64, "value": 0}, "group": "control_change"}, {"time": 1409, "annotation": {"number": 64, "value": 127}, "group": "control_change"}, {"time": 1418, "annotation": {"number": 64, "value": 0}, "group": "control_change"}, {"time": 1422, "annotation": {"number": 64, "value": 127}, "group": "control_change"}, {"time": 1440, "annotation": {"number": 64, "value": 0}, "group": "control_change"}, {"time": 1444, "annotation": {"number": 64, "value": 127}, "group": "control_change"}, {"time": 1467, "annotation": {"number": 64, "value": 0}, "group": "control_change"}, {"time": 1472, "annotation": {"number": 64, "value": 127}, "group": "control_change"}, {"time": 1478, "annotation": {"number": 64, "value": 0}, "group": "control_change"}, {"time": 1480, "annotation": {"number": 64, "value": 127}, "group": "control_change"}, {"time": 1490, "annotation": {"number": 64, "value": 0}, "group": "control_change"}, {"time": 1492, "annotation": {"number": 64, "value": 127}, "group": "control_change"}, {"time": 1513, "annotation": {"number": 64, "value": 0}, "group": "control_change"}, {"time": 1517, "annotation": {"number": 64, "value": 127}, "group": "control_change"}, {"time": 1537, "annotation": {"number": 64, "value": 0}, "group": "control_change"}, {"time": 1541, "annotation": {"number": 64, "value": 127}, "group": "control_change"}, {"time": 1562, "annotation": {"number": 64, "value": 0}, "group": "control_change"}, {"time": 1564, "annotation": {"number": 64, "value": 127}, "group": "control_change"}, {"time": 1573, "annotation": {"number": 64, "value": 0}, "group": "control_change"}, {"time": 1576, "annotation": {"number": 64, "value": 127}, "group": "control_change"}, {"time": 1586, "annotation": {"number": 64, "value": 0}, "group": "control_change"}, {"time": 1588, "annotation": {"number": 64, "value": 127}, "group": "control_change"}, {"time": 1609, "annotation": {"number": 64, "value": 0}, "group": "control_change"}, {"time": 1614, "annotation": {"number": 64, "value": 127}, "group": "control_change"}, {"time": 1632, "annotation": {"number": 64, "value": 0}, "group": "control_change"}, {"time": 1636, "annotation": {"number": 64, "value": 127}, "group": "control_change"}, {"time": 1659, "annotation": {"number": 64, "value": 0}, "group": "control_change"}, {"time": 1664, "annotation": {"number": 64, "value": 127}, "group": "control_change"}, {"time": 1670, "annotation": {"number": 64, "value": 0}, "group": "control_change"}, {"time": 1672, "annotation": {"number": 64, "value": 127}, "group": "control_change"}, {"time": 1682, "annotation": {"number": 64, "value": 0}, "group": "control_change"}, {"time": 1684, "annotation": {"number": 64, "value": 127}, "group": "control_change"}, {"time": 1705, "annotation": {"number": 64, "value": 0}, "group": "control_change"}, {"time": 1709, "annotation": {"number": 64, "value": 127}, "group": "control_change"}, {"time": 1729, "annotation": {"number": 64, "value": 0}, "group": "control_change"}, {"time": 1733, "annotation": {"number": 64, "value": 127}, "group": "control_change"}, {"time": 1754, "annotation": {"number": 64, "value": 0}, "group": "control_change"}, {"time": 1756, "annotation": {"number": 64, "value": 127}, "group": "control_change"}, {"time": 1765, "annotation": {"number": 64, "value": 0}, "group": "control_change"}, {"time": 1768, "annotation": {"number": 64, "value": 127}, "group": "control_change"}, {"time": 1778, "annotation": {"number": 64, "value": 0}, "group": "control_change"}, {"time": 1780, "annotation": {"number": 64, "value": 127}, "group": "control_change"}, {"time": 1801, "annotation": {"number": 64, "value": 0}, "group": "control_change"}, {"time": 1810, "annotation": {"number": 64, "value": 127}, "group": "control_change"}, {"time": 1827, "annotation": {"number": 64, "value": 0}, "group": "control_change"}, {"time": 1829, "annotation": {"number": 64, "value": 127}, "group": "control_change"}, {"time": 1850, "annotation": {"number": 64, "value": 0}, "group": "control_change"}, {"time": 1852, "annotation": {"number": 64, "value": 127}, "group": "control_change"}, {"time": 1874, "annotation": {"number": 64, "value": 0}, "group": "control_change"}, {"time": 1880, "annotation": {"number": 64, "value": 127}, "group": "control_change"}, {"time": 1897, "annotation": {"number": 64, "value": 0}, "group": "control_change"}, {"time": 1905, "annotation": {"number": 64, "value": 127}, "group": "control_change"}, {"time": 1922, "annotation": {"number": 64, "value": 0}, "group": "control_change"}, {"time": 1927, "annotation": {"number": 64, "value": 127}, "group": "control_change"}, {"time": 1945, "annotation": {"number": 64, "value": 0}, "group": "control_change"}, {"time": 1948, "annotation": {"number": 64, "value": 127}, "group": "control_change"}, {"time": 1958, "annotation": {"number": 64, "value": 0}, "group": "control_change"}, {"time": 1963, "annotation": {"number": 64, "value": 127}, "group": "control_change"}, {"time": 1969, "annotation": {"number": 64, "value": 0}, "group": "control_change"}, {"time": 1972, "annotation": {"number": 64, "value": 127}, "group": "control_change"}, {"time": 1994, "annotation": {"number": 64, "value": 0}, "group": "control_change"}, {"time": 2002, "annotation": {"number": 64, "value": 127}, "group": "control_change"}, {"time": 2019, "annotation": {"number": 64, "value": 0}, "group": "control_change"}, {"time": 2021, "annotation": {"number": 64, "value": 127}, "group": "control_change"}, {"time": 2042, "annotation": {"number": 64, "value": 0}, "group": "control_change"}, {"time": 2044, "annotation": {"number": 64, "value": 127}, "group": "control_change"}, {"time": 2066, "annotation": {"number": 64, "value": 0}, "group": "control_change"}, {"time": 2072, "annotation": {"number": 64, "value": 127}, "group": "control_change"}, {"time": 2089, "annotation": {"number": 64, "value": 0}, "group": "control_change"}, {"time": 2097, "annotation": {"number": 64, "value": 127}, "group": "control_change"}, {"time": 2114, "annotation": {"number": 64, "value": 0}, "group": "control_change"}, {"time": 2119, "annotation": {"number": 64, "value": 127}, "group": "control_change"}, {"time": 2137, "annotation": {"number": 64, "value": 0}, "group": "control_change"}, {"time": 2140, "annotation": {"number": 64, "value": 127}, "group": "control_change"}, {"time": 2150, "annotation": {"number": 64, "value": 0}, "group": "control_change"}, {"time": 2155, "annotation": {"number": 64, "value": 127}, "group": "control_change"}, {"time": 2161, "annotation": {"number": 64, "value": 0}, "group": "control_change"}, {"time": 2164, "annotation": {"number": 64, "value": 127}, "group": "control_change"}, {"time": 2186, "annotation": {"number": 64, "value": 0}, "group": "control_change"}, {"time": 2190, "annotation": {"number": 64, "value": 127}, "group": "control_change"}, {"time": 2208, "annotation": {"number": 64, "value": 0}, "group": "control_change"}, {"time": 2212, "annotation": {"number": 64, "value": 127}, "group": "control_change"}, {"time": 2235, "annotation": {"number": 64, "value": 0}, "group": "control_change"}, {"time": 2240, "annotation": {"number": 64, "value": 127}, "group": "control_change"}, {"time": 2246, "annotation": {"number": 64, "value": 0}, "group": "control_change"}, {"time": 2248, "annotation": {"number": 64, "value": 127}, "group": "control_change"}, {"time": 2258, "annotation": {"number": 64, "value": 0}, "group": "control_change"}, {"time": 2260, "annotation": {"number": 64, "value": 127}, "group": "control_change"}, {"time": 2281, "annotation": {"number": 64, "value": 0}, "group": "control_change"}, {"time": 2285, "annotation": {"number": 64, "value": 127}, "group": "control_change"}, {"time": 2305, "annotation": {"number": 64, "value": 0}, "group": "control_change"}, {"time": 2309, "annotation": {"number": 64, "value": 127}, "group": "control_change"}, {"time": 2330, "annotation": {"number": 64, "value": 0}, "group": "control_change"}, {"time": 2332, "annotation": {"number": 64, "value": 127}, "group": "control_change"}, {"time": 2341, "annotation": {"number": 64, "value": 0}, "group": "control_change"}, {"time": 2344, "annotation": {"number": 64, "value": 127}, "group": "control_change"}, {"time": 2354, "annotation": {"number": 64, "value": 0}, "group": "control_change"}, {"time": 2356, "annotation": {"number": 64, "value": 127}, "group": "control_change"}, {"time": 2377, "annotation": {"number": 64, "value": 0}, "group": "control_change"}, {"time": 2382, "annotation": {"number": 64, "value": 127}, "group": "control_change"}, {"time": 2400, "annotation": {"number": 64, "value": 0}, "group": "control_change"}, {"time": 2404, "annotation": {"number": 64, "value": 127}, "group": "control_change"}, {"time": 2427, "annotation": {"number": 64, "value": 0}, "group": "control_change"}, {"time": 2432, "annotation": {"number": 64, "value": 127}, "group": "control_change"}, {"time": 2438, "annotation": {"number": 64, "value": 0}, "group": "control_change"}, {"time": 2440, "annotation": {"number": 64, "value": 127}, "group": "control_change"}, {"time": 2450, "annotation": {"number": 64, "value": 0}, "group": "control_change"}, {"time": 2452, "annotation": {"number": 64, "value": 127}, "group": "control_change"}, {"time": 2473, "annotation": {"number": 64, "value": 0}, "group": "control_change"}, {"time": 2477, "annotation": {"number": 64, "value": 127}, "group": "control_change"}, {"time": 2497, "annotation": {"number": 64, "value": 0}, "group": "control_change"}, {"time": 2501, "annotation": {"number": 64, "value": 127}, "group": "control_change"}, {"time": 2522, "annotation": {"number": 64, "value": 0}, "group": "control_change"}, {"time": 2524, "annotation": {"number": 64, "value": 127}, "group": "control_change"}, {"time": 2533, "annotation": {"number": 64, "value": 0}, "group": "control_change"}, {"time": 2536, "annotation": {"number": 64, "value": 127}, "group": "control_change"}, {"time": 2546, "annotation": {"number": 64, "value": 0}, "group": "control_change"}, {"time": 2548, "annotation": {"number": 64, "value": 127}, "group": "control_change"}, {"time": 2569, "annotation": {"number": 64, "value": 0}, "group": "control_change"}, {"time": 2574, "annotation": {"number": 64, "value": 127}, "group": "control_change"}, {"time": 2594, "annotation": {"number": 64, "value": 0}, "group": "control_change"}, {"time": 2599, "annotation": {"number": 64, "value": 127}, "group": "control_change"}, {"time": 2641, "annotation": {"number": 64, "value": 0}, "group": "control_change"}, {"time": 2650, "annotation": {"number": 64, "value": 127}, "group": "control_change"}, {"time": 2667, "annotation": {"number": 64, "value": 0}, "group": "control_change"}, {"time": 2669, "annotation": {"number": 64, "value": 127}, "group": "control_change"}, {"time": 2690, "annotation": {"number": 64, "value": 0}, "group": "control_change"}, {"time": 2692, "annotation": {"number": 64, "value": 127}, "group": "control_change"}, {"time": 2714, "annotation": {"number": 64, "value": 0}, "group": "control_change"}, {"time": 2720, "annotation": {"number": 64, "value": 127}, "group": "control_change"}, {"time": 2737, "annotation": {"number": 64, "value": 0}, "group": "control_change"}, {"time": 2745, "annotation": {"number": 64, "value": 127}, "group": "control_change"}, {"time": 2762, "annotation": {"number": 64, "value": 0}, "group": "control_change"}, {"time": 2767, "annotation": {"number": 64, "value": 127}, "group": "control_change"}, {"time": 2785, "annotation": {"number": 64, "value": 0}, "group": "control_change"}, {"time": 2788, "annotation": {"number": 64, "value": 127}, "group": "control_change"}, {"time": 2798, "annotation": {"number": 64, "value": 0}, "group": "control_change"}, {"time": 2803, "annotation": {"number": 64, "value": 127}, "group": "control_change"}, {"time": 2809, "annotation": {"number": 64, "value": 0}, "group": "control_change"}, {"time": 2812, "annotation": {"number": 64, "value": 127}, "group": "control_change"}, {"time": 2834, "annotation": {"number": 64, "value": 0}, "group": "control_change"}, {"time": 2836, "annotation": {"number": 64, "value": 127}, "group": "control_change"}, {"time": 2894, "annotation": {"number": 64, "value": 0}, "group": "control_change"}]}]}