{"metadata": {"schema_version": "0.2", "title": "None", "source_filename": "129.mid", "source_format": "midi"}, "resolution": 12, "tempos": [{"time": 0, "qpm": 112.00026880064512}], "time_signatures": [{"time": 0, "numerator": 1, "denominator": 4}], "tracks": [{"program": 0, "is_drum": false, "name": "MELODY", "notes": [{"time": 399, "pitch": 69, "duration": 6, "velocity": 115}, {"time": 405, "pitch": 71, "duration": 6, "velocity": 112}, {"time": 411, "pitch": 73, "duration": 12, "velocity": 117}, {"time": 423, "pitch": 73, "duration": 6, "velocity": 120}, {"time": 429, "pitch": 73, "duration": 12, "velocity": 120}, {"time": 441, "pitch": 73, "duration": 6, "velocity": 120}, {"time": 447, "pitch": 71, "duration": 6, "velocity": 112}, {"time": 453, "pitch": 69, "duration": 6, "velocity": 115}, {"time": 459, "pitch": 71, "duration": 6, "velocity": 112}, {"time": 465, "pitch": 68, "duration": 12, "velocity": 120}, {"time": 477, "pitch": 64, "duration": 12, "velocity": 106}, {"time": 489, "pitch": 64, "duration": 6, "velocity": 109}, {"time": 495, "pitch": 64, "duration": 6, "velocity": 106}, {"time": 501, "pitch": 66, "duration": 6, "velocity": 117}, {"time": 507, "pitch": 69, "duration": 6, "velocity": 109}, {"time": 513, "pitch": 66, "duration": 6, "velocity": 117}, {"time": 519, "pitch": 69, "duration": 6, "velocity": 112}, {"time": 525, "pitch": 66, "duration": 6, "velocity": 120}, {"time": 531, "pitch": 69, "duration": 6, "velocity": 112}, {"time": 537, "pitch": 66, "duration": 6, "velocity": 120}, {"time": 543, "pitch": 71, "duration": 6, "velocity": 115}, {"time": 549, "pitch": 73, "duration": 42, "velocity": 117}, {"time": 591, "pitch": 64, "duration": 6, "velocity": 97}, {"time": 597, "pitch": 64, "duration": 6, "velocity": 105}, {"time": 603, "pitch": 66, "duration": 6, "velocity": 105}, {"time": 609, "pitch": 69, "duration": 12, "velocity": 111}, {"time": 621, "pitch": 69, "duration": 12, "velocity": 114}, {"time": 633, "pitch": 69, "duration": 6, "velocity": 114}, {"time": 639, "pitch": 66, "duration": 6, "velocity": 87}, {"time": 645, "pitch": 64, "duration": 6, "velocity": 92}, {"time": 651, "pitch": 64, "duration": 6, "velocity": 102}, {"time": 657, "pitch": 73, "duration": 12, "velocity": 109}, {"time": 669, "pitch": 73, "duration": 18, "velocity": 99}, {"time": 687, "pitch": 69, "duration": 6, "velocity": 111}, {"time": 693, "pitch": 69, "duration": 6, "velocity": 97}, {"time": 699, "pitch": 73, "duration": 6, "velocity": 102}, {"time": 705, "pitch": 71, "duration": 12, "velocity": 111}, {"time": 717, "pitch": 69, "duration": 6, "velocity": 111}, {"time": 723, "pitch": 69, "duration": 6, "velocity": 97}, {"time": 729, "pitch": 66, "duration": 6, "velocity": 109}, {"time": 735, "pitch": 69, "duration": 6, "velocity": 108}, {"time": 741, "pitch": 71, "duration": 42, "velocity": 105}, {"time": 783, "pitch": 69, "duration": 6, "velocity": 115}, {"time": 789, "pitch": 71, "duration": 6, "velocity": 112}, {"time": 795, "pitch": 73, "duration": 12, "velocity": 117}, {"time": 807, "pitch": 73, "duration": 6, "velocity": 120}, {"time": 813, "pitch": 73, "duration": 6, "velocity": 120}, {"time": 819, "pitch": 73, "duration": 12, "velocity": 120}, {"time": 831, "pitch": 69, "duration": 12, "velocity": 112}, {"time": 843, "pitch": 71, "duration": 6, "velocity": 112}, {"time": 849, "pitch": 68, "duration": 12, "velocity": 120}, {"time": 861, "pitch": 64, "duration": 18, "velocity": 106}, {"time": 879, "pitch": 64, "duration": 6, "velocity": 106}, {"time": 885, "pitch": 66, "duration": 6, "velocity": 117}, {"time": 891, "pitch": 69, "duration": 6, "velocity": 109}, {"time": 897, "pitch": 66, "duration": 6, "velocity": 117}, {"time": 903, "pitch": 69, "duration": 6, "velocity": 112}, {"time": 909, "pitch": 66, "duration": 6, "velocity": 120}, {"time": 915, "pitch": 69, "duration": 6, "velocity": 112}, {"time": 921, "pitch": 66, "duration": 6, "velocity": 120}, {"time": 927, "pitch": 71, "duration": 6, "velocity": 115}, {"time": 933, "pitch": 73, "duration": 42, "velocity": 117}, {"time": 975, "pitch": 64, "duration": 6, "velocity": 97}, {"time": 981, "pitch": 64, "duration": 6, "velocity": 105}, {"time": 987, "pitch": 66, "duration": 6, "velocity": 105}, {"time": 993, "pitch": 69, "duration": 12, "velocity": 111}, {"time": 1005, "pitch": 69, "duration": 18, "velocity": 114}, {"time": 1023, "pitch": 66, "duration": 6, "velocity": 87}, {"time": 1029, "pitch": 64, "duration": 6, "velocity": 92}, {"time": 1035, "pitch": 64, "duration": 6, "velocity": 102}, {"time": 1041, "pitch": 73, "duration": 12, "velocity": 109}, {"time": 1053, "pitch": 73, "duration": 18, "velocity": 99}, {"time": 1071, "pitch": 69, "duration": 6, "velocity": 111}, {"time": 1077, "pitch": 69, "duration": 6, "velocity": 97}, {"time": 1083, "pitch": 73, "duration": 6, "velocity": 102}, {"time": 1089, "pitch": 71, "duration": 12, "velocity": 111}, {"time": 1101, "pitch": 69, "duration": 6, "velocity": 111}, {"time": 1107, "pitch": 69, "duration": 6, "velocity": 97}, {"time": 1113, "pitch": 66, "duration": 6, "velocity": 109}, {"time": 1119, "pitch": 69, "duration": 6, "velocity": 108}, {"time": 1125, "pitch": 76, "duration": 90, "velocity": 105}, {"time": 1215, "pitch": 69, "duration": 6, "velocity": 120}, {"time": 1221, "pitch": 71, "duration": 6, "velocity": 108}, {"time": 1227, "pitch": 73, "duration": 24, "velocity": 102}, {"time": 1251, "pitch": 73, "duration": 12, "velocity": 112}, {"time": 1263, "pitch": 76, "duration": 12, "velocity": 105}, {"time": 1275, "pitch": 78, "duration": 6, "velocity": 112}, {"time": 1281, "pitch": 76, "duration": 12, "velocity": 114}, {"time": 1293, "pitch": 71, "duration": 12, "velocity": 114}, {"time": 1305, "pitch": 73, "duration": 6, "velocity": 102}, {"time": 1311, "pitch": 73, "duration": 6, "velocity": 102}, {"time": 1317, "pitch": 71, "duration": 6, "velocity": 111}, {"time": 1323, "pitch": 69, "duration": 6, "velocity": 108}, {"time": 1329, "pitch": 66, "duration": 6, "velocity": 105}, {"time": 1335, "pitch": 69, "duration": 6, "velocity": 105}, {"time": 1341, "pitch": 66, "duration": 6, "velocity": 109}, {"time": 1347, "pitch": 69, "duration": 6, "velocity": 108}, {"time": 1353, "pitch": 66, "duration": 6, "velocity": 112}, {"time": 1359, "pitch": 71, "duration": 6, "velocity": 111}, {"time": 1365, "pitch": 73, "duration": 42, "velocity": 109}, {"time": 1407, "pitch": 64, "duration": 6, "velocity": 120}, {"time": 1413, "pitch": 64, "duration": 6, "velocity": 97}, {"time": 1419, "pitch": 66, "duration": 12, "velocity": 105}, {"time": 1431, "pitch": 69, "duration": 12, "velocity": 114}, {"time": 1443, "pitch": 69, "duration": 12, "velocity": 111}, {"time": 1455, "pitch": 66, "duration": 12, "velocity": 105}, {"time": 1467, "pitch": 64, "duration": 12, "velocity": 94}, {"time": 1479, "pitch": 73, "duration": 6, "velocity": 109}, {"time": 1485, "pitch": 73, "duration": 18, "velocity": 109}, {"time": 1503, "pitch": 69, "duration": 6, "velocity": 117}, {"time": 1509, "pitch": 69, "duration": 6, "velocity": 108}, {"time": 1515, "pitch": 73, "duration": 6, "velocity": 105}, {"time": 1521, "pitch": 71, "duration": 6, "velocity": 111}, {"time": 1527, "pitch": 71, "duration": 6, "velocity": 117}, {"time": 1533, "pitch": 69, "duration": 6, "velocity": 117}, {"time": 1539, "pitch": 69, "duration": 6, "velocity": 111}, {"time": 1545, "pitch": 66, "duration": 6, "velocity": 109}, {"time": 1551, "pitch": 69, "duration": 6, "velocity": 111}, {"time": 1557, "pitch": 71, "duration": 42, "velocity": 105}, {"time": 1599, "pitch": 69, "duration": 6, "velocity": 120}, {"time": 1605, "pitch": 71, "duration": 6, "velocity": 108}, {"time": 1611, "pitch": 73, "duration": 24, "velocity": 102}, {"time": 1635, "pitch": 73, "duration": 12, "velocity": 112}, {"time": 1647, "pitch": 76, "duration": 12, "velocity": 105}, {"time": 1659, "pitch": 78, "duration": 6, "velocity": 112}, {"time": 1665, "pitch": 76, "duration": 12, "velocity": 114}, {"time": 1677, "pitch": 71, "duration": 12, "velocity": 114}, {"time": 1689, "pitch": 73, "duration": 6, "velocity": 102}, {"time": 1695, "pitch": 73, "duration": 6, "velocity": 102}, {"time": 1701, "pitch": 71, "duration": 6, "velocity": 111}, {"time": 1707, "pitch": 69, "duration": 6, "velocity": 108}, {"time": 1713, "pitch": 66, "duration": 6, "velocity": 105}, {"time": 1719, "pitch": 69, "duration": 6, "velocity": 105}, {"time": 1725, "pitch": 66, "duration": 6, "velocity": 109}, {"time": 1731, "pitch": 69, "duration": 6, "velocity": 108}, {"time": 1737, "pitch": 66, "duration": 6, "velocity": 112}, {"time": 1743, "pitch": 71, "duration": 6, "velocity": 111}, {"time": 1749, "pitch": 73, "duration": 42, "velocity": 109}, {"time": 1791, "pitch": 64, "duration": 6, "velocity": 120}, {"time": 1797, "pitch": 64, "duration": 6, "velocity": 97}, {"time": 1803, "pitch": 66, "duration": 12, "velocity": 105}, {"time": 1815, "pitch": 69, "duration": 12, "velocity": 114}, {"time": 1827, "pitch": 69, "duration": 12, "velocity": 111}, {"time": 1839, "pitch": 66, "duration": 12, "velocity": 105}, {"time": 1851, "pitch": 64, "duration": 12, "velocity": 94}, {"time": 1863, "pitch": 73, "duration": 6, "velocity": 109}, {"time": 1869, "pitch": 73, "duration": 18, "velocity": 109}, {"time": 1887, "pitch": 69, "duration": 6, "velocity": 117}, {"time": 1893, "pitch": 69, "duration": 6, "velocity": 108}, {"time": 1899, "pitch": 73, "duration": 6, "velocity": 105}, {"time": 1905, "pitch": 71, "duration": 6, "velocity": 111}, {"time": 1911, "pitch": 71, "duration": 6, "velocity": 117}, {"time": 1917, "pitch": 69, "duration": 6, "velocity": 117}, {"time": 1923, "pitch": 69, "duration": 6, "velocity": 111}, {"time": 1929, "pitch": 66, "duration": 6, "velocity": 109}, {"time": 1935, "pitch": 66, "duration": 6, "velocity": 111}, {"time": 1941, "pitch": 69, "duration": 27, "velocity": 105}, {"time": 2367, "pitch": 69, "duration": 6, "velocity": 115}, {"time": 2373, "pitch": 71, "duration": 6, "velocity": 112}, {"time": 2379, "pitch": 73, "duration": 12, "velocity": 117}, {"time": 2391, "pitch": 73, "duration": 6, "velocity": 120}, {"time": 2397, "pitch": 73, "duration": 12, "velocity": 120}, {"time": 2409, "pitch": 73, "duration": 6, "velocity": 120}, {"time": 2415, "pitch": 71, "duration": 6, "velocity": 112}, {"time": 2421, "pitch": 69, "duration": 6, "velocity": 115}, {"time": 2427, "pitch": 71, "duration": 6, "velocity": 112}, {"time": 2433, "pitch": 68, "duration": 12, "velocity": 120}, {"time": 2445, "pitch": 64, "duration": 12, "velocity": 106}, {"time": 2457, "pitch": 64, "duration": 6, "velocity": 109}, {"time": 2463, "pitch": 64, "duration": 6, "velocity": 106}, {"time": 2469, "pitch": 66, "duration": 6, "velocity": 117}, {"time": 2475, "pitch": 69, "duration": 6, "velocity": 109}, {"time": 2481, "pitch": 66, "duration": 6, "velocity": 117}, {"time": 2487, "pitch": 69, "duration": 6, "velocity": 112}, {"time": 2493, "pitch": 66, "duration": 6, "velocity": 120}, {"time": 2499, "pitch": 69, "duration": 6, "velocity": 112}, {"time": 2505, "pitch": 66, "duration": 6, "velocity": 120}, {"time": 2511, "pitch": 71, "duration": 6, "velocity": 115}, {"time": 2517, "pitch": 73, "duration": 42, "velocity": 117}, {"time": 2559, "pitch": 64, "duration": 6, "velocity": 97}, {"time": 2565, "pitch": 64, "duration": 6, "velocity": 105}, {"time": 2571, "pitch": 66, "duration": 6, "velocity": 105}, {"time": 2577, "pitch": 69, "duration": 12, "velocity": 111}, {"time": 2589, "pitch": 69, "duration": 12, "velocity": 114}, {"time": 2601, "pitch": 69, "duration": 6, "velocity": 114}, {"time": 2607, "pitch": 66, "duration": 6, "velocity": 87}, {"time": 2613, "pitch": 64, "duration": 6, "velocity": 92}, {"time": 2619, "pitch": 64, "duration": 6, "velocity": 102}, {"time": 2625, "pitch": 73, "duration": 12, "velocity": 109}, {"time": 2637, "pitch": 73, "duration": 18, "velocity": 99}, {"time": 2655, "pitch": 69, "duration": 6, "velocity": 111}, {"time": 2661, "pitch": 69, "duration": 6, "velocity": 97}, {"time": 2667, "pitch": 73, "duration": 6, "velocity": 102}, {"time": 2673, "pitch": 71, "duration": 12, "velocity": 111}, {"time": 2685, "pitch": 69, "duration": 6, "velocity": 111}, {"time": 2691, "pitch": 69, "duration": 6, "velocity": 97}, {"time": 2697, "pitch": 66, "duration": 6, "velocity": 109}, {"time": 2703, "pitch": 69, "duration": 6, "velocity": 108}, {"time": 2709, "pitch": 71, "duration": 42, "velocity": 105}, {"time": 2751, "pitch": 69, "duration": 6, "velocity": 115}, {"time": 2757, "pitch": 71, "duration": 6, "velocity": 112}, {"time": 2763, "pitch": 73, "duration": 12, "velocity": 117}, {"time": 2775, "pitch": 73, "duration": 6, "velocity": 120}, {"time": 2781, "pitch": 73, "duration": 6, "velocity": 120}, {"time": 2787, "pitch": 73, "duration": 12, "velocity": 120}, {"time": 2799, "pitch": 69, "duration": 12, "velocity": 112}, {"time": 2811, "pitch": 71, "duration": 6, "velocity": 112}, {"time": 2817, "pitch": 68, "duration": 12, "velocity": 120}, {"time": 2829, "pitch": 64, "duration": 18, "velocity": 106}, {"time": 2847, "pitch": 64, "duration": 6, "velocity": 106}, {"time": 2853, "pitch": 66, "duration": 6, "velocity": 117}, {"time": 2859, "pitch": 69, "duration": 6, "velocity": 109}, {"time": 2865, "pitch": 66, "duration": 6, "velocity": 117}, {"time": 2871, "pitch": 69, "duration": 6, "velocity": 112}, {"time": 2877, "pitch": 66, "duration": 6, "velocity": 120}, {"time": 2883, "pitch": 69, "duration": 6, "velocity": 112}, {"time": 2889, "pitch": 66, "duration": 6, "velocity": 120}, {"time": 2895, "pitch": 71, "duration": 6, "velocity": 115}, {"time": 2901, "pitch": 73, "duration": 42, "velocity": 117}, {"time": 2943, "pitch": 64, "duration": 6, "velocity": 97}, {"time": 2949, "pitch": 64, "duration": 6, "velocity": 105}, {"time": 2955, "pitch": 66, "duration": 6, "velocity": 105}, {"time": 2961, "pitch": 69, "duration": 12, "velocity": 111}, {"time": 2973, "pitch": 69, "duration": 18, "velocity": 114}, {"time": 2991, "pitch": 66, "duration": 6, "velocity": 87}, {"time": 2997, "pitch": 64, "duration": 6, "velocity": 92}, {"time": 3003, "pitch": 64, "duration": 6, "velocity": 102}, {"time": 3009, "pitch": 73, "duration": 12, "velocity": 109}, {"time": 3021, "pitch": 73, "duration": 18, "velocity": 99}, {"time": 3039, "pitch": 69, "duration": 6, "velocity": 111}, {"time": 3045, "pitch": 69, "duration": 6, "velocity": 97}, {"time": 3051, "pitch": 73, "duration": 6, "velocity": 102}, {"time": 3057, "pitch": 71, "duration": 12, "velocity": 111}, {"time": 3069, "pitch": 69, "duration": 6, "velocity": 111}, {"time": 3075, "pitch": 69, "duration": 6, "velocity": 97}, {"time": 3081, "pitch": 66, "duration": 6, "velocity": 109}, {"time": 3087, "pitch": 69, "duration": 6, "velocity": 108}, {"time": 3093, "pitch": 76, "duration": 90, "velocity": 105}, {"time": 3183, "pitch": 69, "duration": 6, "velocity": 120}, {"time": 3189, "pitch": 71, "duration": 6, "velocity": 108}, {"time": 3195, "pitch": 73, "duration": 24, "velocity": 102}, {"time": 3219, "pitch": 73, "duration": 12, "velocity": 112}, {"time": 3231, "pitch": 76, "duration": 12, "velocity": 105}, {"time": 3243, "pitch": 78, "duration": 6, "velocity": 112}, {"time": 3249, "pitch": 76, "duration": 12, "velocity": 114}, {"time": 3261, "pitch": 71, "duration": 12, "velocity": 114}, {"time": 3273, "pitch": 73, "duration": 6, "velocity": 102}, {"time": 3279, "pitch": 73, "duration": 6, "velocity": 102}, {"time": 3285, "pitch": 71, "duration": 6, "velocity": 111}, {"time": 3291, "pitch": 69, "duration": 6, "velocity": 108}, {"time": 3297, "pitch": 66, "duration": 6, "velocity": 105}, {"time": 3303, "pitch": 69, "duration": 6, "velocity": 105}, {"time": 3309, "pitch": 66, "duration": 6, "velocity": 109}, {"time": 3315, "pitch": 69, "duration": 6, "velocity": 108}, {"time": 3321, "pitch": 66, "duration": 6, "velocity": 112}, {"time": 3327, "pitch": 71, "duration": 6, "velocity": 111}, {"time": 3333, "pitch": 73, "duration": 42, "velocity": 109}, {"time": 3375, "pitch": 64, "duration": 6, "velocity": 120}, {"time": 3381, "pitch": 64, "duration": 6, "velocity": 97}, {"time": 3387, "pitch": 66, "duration": 12, "velocity": 105}, {"time": 3399, "pitch": 69, "duration": 12, "velocity": 114}, {"time": 3411, "pitch": 69, "duration": 12, "velocity": 111}, {"time": 3423, "pitch": 66, "duration": 12, "velocity": 105}, {"time": 3435, "pitch": 64, "duration": 12, "velocity": 94}, {"time": 3447, "pitch": 73, "duration": 6, "velocity": 109}, {"time": 3453, "pitch": 73, "duration": 18, "velocity": 109}, {"time": 3471, "pitch": 69, "duration": 6, "velocity": 117}, {"time": 3477, "pitch": 69, "duration": 6, "velocity": 108}, {"time": 3483, "pitch": 73, "duration": 6, "velocity": 105}, {"time": 3489, "pitch": 71, "duration": 6, "velocity": 111}, {"time": 3495, "pitch": 71, "duration": 6, "velocity": 117}, {"time": 3501, "pitch": 69, "duration": 6, "velocity": 117}, {"time": 3507, "pitch": 69, "duration": 6, "velocity": 111}, {"time": 3513, "pitch": 66, "duration": 6, "velocity": 109}, {"time": 3519, "pitch": 69, "duration": 6, "velocity": 111}, {"time": 3525, "pitch": 71, "duration": 42, "velocity": 105}, {"time": 3567, "pitch": 69, "duration": 6, "velocity": 120}, {"time": 3573, "pitch": 71, "duration": 6, "velocity": 108}, {"time": 3579, "pitch": 73, "duration": 24, "velocity": 102}, {"time": 3603, "pitch": 73, "duration": 12, "velocity": 112}, {"time": 3615, "pitch": 76, "duration": 12, "velocity": 105}, {"time": 3627, "pitch": 78, "duration": 6, "velocity": 112}, {"time": 3633, "pitch": 76, "duration": 12, "velocity": 114}, {"time": 3645, "pitch": 71, "duration": 12, "velocity": 114}, {"time": 3657, "pitch": 73, "duration": 6, "velocity": 102}, {"time": 3663, "pitch": 73, "duration": 6, "velocity": 102}, {"time": 3669, "pitch": 71, "duration": 6, "velocity": 111}, {"time": 3675, "pitch": 69, "duration": 6, "velocity": 108}, {"time": 3681, "pitch": 66, "duration": 6, "velocity": 105}, {"time": 3687, "pitch": 69, "duration": 6, "velocity": 105}, {"time": 3693, "pitch": 66, "duration": 6, "velocity": 109}, {"time": 3699, "pitch": 69, "duration": 6, "velocity": 108}, {"time": 3705, "pitch": 66, "duration": 6, "velocity": 112}, {"time": 3711, "pitch": 71, "duration": 6, "velocity": 111}, {"time": 3717, "pitch": 73, "duration": 42, "velocity": 109}, {"time": 3759, "pitch": 64, "duration": 6, "velocity": 120}, {"time": 3765, "pitch": 64, "duration": 6, "velocity": 97}, {"time": 3771, "pitch": 66, "duration": 12, "velocity": 105}, {"time": 3783, "pitch": 69, "duration": 12, "velocity": 114}, {"time": 3795, "pitch": 69, "duration": 12, "velocity": 111}, {"time": 3807, "pitch": 66, "duration": 12, "velocity": 105}, {"time": 3819, "pitch": 64, "duration": 12, "velocity": 94}, {"time": 3831, "pitch": 73, "duration": 6, "velocity": 109}, {"time": 3837, "pitch": 73, "duration": 18, "velocity": 109}, {"time": 3855, "pitch": 69, "duration": 6, "velocity": 117}, {"time": 3861, "pitch": 69, "duration": 6, "velocity": 108}, {"time": 3867, "pitch": 73, "duration": 6, "velocity": 105}, {"time": 3873, "pitch": 71, "duration": 6, "velocity": 111}, {"time": 3879, "pitch": 71, "duration": 6, "velocity": 117}, {"time": 3885, "pitch": 69, "duration": 6, "velocity": 117}, {"time": 3891, "pitch": 69, "duration": 6, "velocity": 111}, {"time": 3897, "pitch": 66, "duration": 6, "velocity": 109}, {"time": 3903, "pitch": 66, "duration": 6, "velocity": 111}, {"time": 3909, "pitch": 69, "duration": 90, "velocity": 105}, {"time": 3999, "pitch": 71, "duration": 6, "velocity": 120}, {"time": 4005, "pitch": 73, "duration": 6, "velocity": 108}, {"time": 4011, "pitch": 75, "duration": 24, "velocity": 102}, {"time": 4035, "pitch": 75, "duration": 12, "velocity": 112}, {"time": 4047, "pitch": 78, "duration": 12, "velocity": 105}, {"time": 4059, "pitch": 80, "duration": 6, "velocity": 112}, {"time": 4065, "pitch": 78, "duration": 12, "velocity": 114}, {"time": 4077, "pitch": 73, "duration": 12, "velocity": 114}, {"time": 4089, "pitch": 75, "duration": 6, "velocity": 102}, {"time": 4095, "pitch": 75, "duration": 6, "velocity": 102}, {"time": 4101, "pitch": 73, "duration": 6, "velocity": 111}, {"time": 4107, "pitch": 71, "duration": 6, "velocity": 108}, {"time": 4113, "pitch": 68, "duration": 6, "velocity": 105}, {"time": 4119, "pitch": 71, "duration": 6, "velocity": 105}, {"time": 4125, "pitch": 68, "duration": 6, "velocity": 109}, {"time": 4131, "pitch": 71, "duration": 6, "velocity": 108}, {"time": 4137, "pitch": 68, "duration": 6, "velocity": 112}, {"time": 4143, "pitch": 73, "duration": 6, "velocity": 111}, {"time": 4149, "pitch": 75, "duration": 42, "velocity": 109}, {"time": 4191, "pitch": 66, "duration": 6, "velocity": 120}, {"time": 4197, "pitch": 66, "duration": 6, "velocity": 97}, {"time": 4203, "pitch": 68, "duration": 12, "velocity": 105}, {"time": 4215, "pitch": 71, "duration": 12, "velocity": 114}, {"time": 4227, "pitch": 71, "duration": 12, "velocity": 111}, {"time": 4239, "pitch": 68, "duration": 12, "velocity": 105}, {"time": 4251, "pitch": 66, "duration": 12, "velocity": 94}, {"time": 4263, "pitch": 75, "duration": 6, "velocity": 109}, {"time": 4269, "pitch": 75, "duration": 18, "velocity": 109}, {"time": 4287, "pitch": 71, "duration": 6, "velocity": 117}, {"time": 4293, "pitch": 71, "duration": 6, "velocity": 108}, {"time": 4299, "pitch": 75, "duration": 6, "velocity": 105}, {"time": 4305, "pitch": 73, "duration": 6, "velocity": 111}, {"time": 4311, "pitch": 73, "duration": 6, "velocity": 117}, {"time": 4317, "pitch": 71, "duration": 6, "velocity": 117}, {"time": 4323, "pitch": 71, "duration": 6, "velocity": 111}, {"time": 4329, "pitch": 68, "duration": 6, "velocity": 109}, {"time": 4335, "pitch": 71, "duration": 6, "velocity": 111}, {"time": 4341, "pitch": 73, "duration": 42, "velocity": 105}, {"time": 4383, "pitch": 71, "duration": 6, "velocity": 120}, {"time": 4389, "pitch": 73, "duration": 6, "velocity": 108}, {"time": 4395, "pitch": 75, "duration": 24, "velocity": 102}, {"time": 4419, "pitch": 75, "duration": 12, "velocity": 112}, {"time": 4431, "pitch": 78, "duration": 12, "velocity": 105}, {"time": 4443, "pitch": 80, "duration": 6, "velocity": 112}, {"time": 4449, "pitch": 78, "duration": 12, "velocity": 114}, {"time": 4461, "pitch": 73, "duration": 12, "velocity": 114}, {"time": 4473, "pitch": 75, "duration": 6, "velocity": 102}, {"time": 4479, "pitch": 75, "duration": 6, "velocity": 102}, {"time": 4485, "pitch": 73, "duration": 6, "velocity": 111}, {"time": 4491, "pitch": 71, "duration": 6, "velocity": 108}, {"time": 4497, "pitch": 68, "duration": 6, "velocity": 105}, {"time": 4503, "pitch": 71, "duration": 6, "velocity": 105}, {"time": 4509, "pitch": 68, "duration": 6, "velocity": 109}, {"time": 4515, "pitch": 71, "duration": 6, "velocity": 108}, {"time": 4521, "pitch": 68, "duration": 6, "velocity": 112}, {"time": 4527, "pitch": 73, "duration": 6, "velocity": 111}, {"time": 4533, "pitch": 75, "duration": 42, "velocity": 109}, {"time": 4575, "pitch": 66, "duration": 6, "velocity": 120}, {"time": 4581, "pitch": 66, "duration": 6, "velocity": 97}, {"time": 4587, "pitch": 68, "duration": 12, "velocity": 105}, {"time": 4599, "pitch": 71, "duration": 12, "velocity": 114}, {"time": 4611, "pitch": 71, "duration": 12, "velocity": 111}, {"time": 4623, "pitch": 68, "duration": 12, "velocity": 105}, {"time": 4635, "pitch": 66, "duration": 12, "velocity": 94}, {"time": 4647, "pitch": 75, "duration": 6, "velocity": 109}, {"time": 4653, "pitch": 75, "duration": 18, "velocity": 109}, {"time": 4671, "pitch": 71, "duration": 6, "velocity": 117}, {"time": 4677, "pitch": 71, "duration": 6, "velocity": 108}, {"time": 4683, "pitch": 75, "duration": 6, "velocity": 105}, {"time": 4689, "pitch": 73, "duration": 6, "velocity": 111}, {"time": 4695, "pitch": 73, "duration": 6, "velocity": 117}, {"time": 4701, "pitch": 71, "duration": 6, "velocity": 117}, {"time": 4707, "pitch": 71, "duration": 6, "velocity": 111}, {"time": 4713, "pitch": 68, "duration": 6, "velocity": 109}, {"time": 4719, "pitch": 68, "duration": 6, "velocity": 111}, {"time": 4725, "pitch": 71, "duration": 42, "velocity": 105}, {"time": 4767, "pitch": 68, "duration": 6, "velocity": 112}, {"time": 4773, "pitch": 71, "duration": 6, "velocity": 100}, {"time": 4779, "pitch": 75, "duration": 6, "velocity": 116}, {"time": 4785, "pitch": 73, "duration": 6, "velocity": 112}, {"time": 4791, "pitch": 73, "duration": 6, "velocity": 112}, {"time": 4797, "pitch": 71, "duration": 6, "velocity": 111}, {"time": 4803, "pitch": 71, "duration": 6, "velocity": 111}, {"time": 4809, "pitch": 68, "duration": 18, "velocity": 102}, {"time": 4827, "pitch": 68, "duration": 49, "velocity": 112}, {"time": 4876, "pitch": 68, "duration": 6, "velocity": 112}, {"time": 4882, "pitch": 71, "duration": 86, "velocity": 111}]}, {"program": 0, "is_drum": false, "name": "PIANO", "notes": [{"time": 27, "pitch": 45, "duration": 44, "velocity": 97}, {"time": 27, "pitch": 57, "duration": 9, "velocity": 80}, {"time": 27, "pitch": 61, "duration": 9, "velocity": 79}, {"time": 27, "pitch": 64, "duration": 9, "velocity": 87}, {"time": 33, "pitch": 52, "duration": 10, "velocity": 71}, {"time": 39, "pitch": 61, "duration": 14, "velocity": 99}, {"time": 39, "pitch": 64, "duration": 15, "velocity": 97}, {"time": 45, "pitch": 57, "duration": 8, "velocity": 92}, {"time": 51, "pitch": 52, "duration": 23, "velocity": 76}, {"time": 57, "pitch": 57, "duration": 7, "velocity": 100}, {"time": 63, "pitch": 61, "duration": 11, "velocity": 105}, {"time": 63, "pitch": 64, "duration": 12, "velocity": 105}, {"time": 69, "pitch": 57, "duration": 6, "velocity": 105}, {"time": 75, "pitch": 44, "duration": 43, "velocity": 109}, {"time": 81, "pitch": 52, "duration": 12, "velocity": 66}, {"time": 81, "pitch": 64, "duration": 4, "velocity": 1}, {"time": 87, "pitch": 56, "duration": 13, "velocity": 99}, {"time": 87, "pitch": 59, "duration": 11, "velocity": 114}, {"time": 87, "pitch": 64, "duration": 13, "velocity": 102}, {"time": 99, "pitch": 52, "duration": 18, "velocity": 76}, {"time": 105, "pitch": 56, "duration": 7, "velocity": 99}, {"time": 111, "pitch": 59, "duration": 7, "velocity": 100}, {"time": 111, "pitch": 64, "duration": 13, "velocity": 102}, {"time": 117, "pitch": 56, "duration": 5, "velocity": 77}, {"time": 123, "pitch": 42, "duration": 42, "velocity": 109}, {"time": 129, "pitch": 49, "duration": 12, "velocity": 55}, {"time": 135, "pitch": 57, "duration": 9, "velocity": 105}, {"time": 135, "pitch": 61, "duration": 8, "velocity": 82}, {"time": 141, "pitch": 54, "duration": 6, "velocity": 109}, {"time": 147, "pitch": 49, "duration": 19, "velocity": 63}, {"time": 153, "pitch": 54, "duration": 7, "velocity": 99}, {"time": 159, "pitch": 57, "duration": 3, "velocity": 117}, {"time": 159, "pitch": 61, "duration": 7, "velocity": 99}, {"time": 159, "pitch": 66, "duration": 12, "velocity": 77}, {"time": 165, "pitch": 54, "duration": 5, "velocity": 109}, {"time": 165, "pitch": 57, "duration": 2, "velocity": 26}, {"time": 171, "pitch": 52, "duration": 44, "velocity": 105}, {"time": 177, "pitch": 59, "duration": 13, "velocity": 82}, {"time": 183, "pitch": 64, "duration": 2, "velocity": 94}, {"time": 183, "pitch": 68, "duration": 14, "velocity": 99}, {"time": 183, "pitch": 71, "duration": 19, "velocity": 94}, {"time": 189, "pitch": 64, "duration": 8, "velocity": 87}, {"time": 195, "pitch": 59, "duration": 20, "velocity": 51}, {"time": 201, "pitch": 64, "duration": 4, "velocity": 89}, {"time": 207, "pitch": 68, "duration": 8, "velocity": 109}, {"time": 207, "pitch": 71, "duration": 15, "velocity": 100}, {"time": 213, "pitch": 64, "duration": 6, "velocity": 78}, {"time": 219, "pitch": 50, "duration": 42, "velocity": 100}, {"time": 225, "pitch": 57, "duration": 13, "velocity": 84}, {"time": 231, "pitch": 62, "duration": 3, "velocity": 82}, {"time": 231, "pitch": 69, "duration": 19, "velocity": 97}, {"time": 237, "pitch": 62, "duration": 7, "velocity": 87}, {"time": 243, "pitch": 57, "duration": 16, "velocity": 97}, {"time": 249, "pitch": 62, "duration": 3, "velocity": 89}, {"time": 255, "pitch": 62, "duration": 2, "velocity": 82}, {"time": 255, "pitch": 66, "duration": 7, "velocity": 105}, {"time": 255, "pitch": 69, "duration": 14, "velocity": 97}, {"time": 261, "pitch": 62, "duration": 5, "velocity": 87}, {"time": 267, "pitch": 45, "duration": 45, "velocity": 97}, {"time": 273, "pitch": 52, "duration": 11, "velocity": 62}, {"time": 279, "pitch": 61, "duration": 10, "velocity": 102}, {"time": 279, "pitch": 64, "duration": 19, "velocity": 94}, {"time": 285, "pitch": 57, "duration": 8, "velocity": 102}, {"time": 291, "pitch": 52, "duration": 21, "velocity": 76}, {"time": 297, "pitch": 57, "duration": 4, "velocity": 84}, {"time": 303, "pitch": 57, "duration": 3, "velocity": 105}, {"time": 303, "pitch": 61, "duration": 9, "velocity": 102}, {"time": 303, "pitch": 64, "duration": 12, "velocity": 94}, {"time": 309, "pitch": 57, "duration": 4, "velocity": 105}, {"time": 315, "pitch": 47, "duration": 43, "velocity": 105}, {"time": 321, "pitch": 57, "duration": 4, "velocity": 82}, {"time": 327, "pitch": 57, "duration": 7, "velocity": 114}, {"time": 327, "pitch": 62, "duration": 13, "velocity": 102}, {"time": 333, "pitch": 54, "duration": 21, "velocity": 57}, {"time": 339, "pitch": 57, "duration": 8, "velocity": 92}, {"time": 345, "pitch": 62, "duration": 3, "velocity": 87}, {"time": 351, "pitch": 57, "duration": 3, "velocity": 100}, {"time": 351, "pitch": 62, "duration": 11, "velocity": 100}, {"time": 351, "pitch": 66, "duration": 12, "velocity": 93}, {"time": 357, "pitch": 57, "duration": 4, "velocity": 97}, {"time": 363, "pitch": 52, "duration": 45, "velocity": 87}, {"time": 369, "pitch": 59, "duration": 8, "velocity": 82}, {"time": 375, "pitch": 62, "duration": 13, "velocity": 105}, {"time": 375, "pitch": 68, "duration": 18, "velocity": 96}, {"time": 381, "pitch": 59, "duration": 8, "velocity": 82}, {"time": 387, "pitch": 56, "duration": 8, "velocity": 90}, {"time": 393, "pitch": 59, "duration": 15, "velocity": 100}, {"time": 399, "pitch": 64, "duration": 3, "velocity": 100}, {"time": 399, "pitch": 68, "duration": 9, "velocity": 105}, {"time": 399, "pitch": 71, "duration": 10, "velocity": 102}, {"time": 405, "pitch": 64, "duration": 4, "velocity": 71}, {"time": 411, "pitch": 45, "duration": 44, "velocity": 97}, {"time": 411, "pitch": 57, "duration": 9, "velocity": 80}, {"time": 411, "pitch": 61, "duration": 9, "velocity": 79}, {"time": 411, "pitch": 64, "duration": 9, "velocity": 87}, {"time": 417, "pitch": 52, "duration": 10, "velocity": 71}, {"time": 423, "pitch": 61, "duration": 14, "velocity": 99}, {"time": 423, "pitch": 64, "duration": 15, "velocity": 97}, {"time": 429, "pitch": 57, "duration": 8, "velocity": 92}, {"time": 435, "pitch": 52, "duration": 23, "velocity": 76}, {"time": 441, "pitch": 57, "duration": 7, "velocity": 100}, {"time": 447, "pitch": 61, "duration": 11, "velocity": 105}, {"time": 447, "pitch": 64, "duration": 12, "velocity": 105}, {"time": 453, "pitch": 57, "duration": 6, "velocity": 105}, {"time": 459, "pitch": 44, "duration": 43, "velocity": 109}, {"time": 465, "pitch": 52, "duration": 12, "velocity": 66}, {"time": 465, "pitch": 64, "duration": 4, "velocity": 1}, {"time": 471, "pitch": 56, "duration": 13, "velocity": 99}, {"time": 471, "pitch": 59, "duration": 11, "velocity": 114}, {"time": 471, "pitch": 64, "duration": 13, "velocity": 102}, {"time": 483, "pitch": 52, "duration": 18, "velocity": 76}, {"time": 489, "pitch": 56, "duration": 7, "velocity": 99}, {"time": 495, "pitch": 59, "duration": 7, "velocity": 100}, {"time": 495, "pitch": 64, "duration": 13, "velocity": 102}, {"time": 501, "pitch": 56, "duration": 5, "velocity": 77}, {"time": 507, "pitch": 42, "duration": 42, "velocity": 109}, {"time": 513, "pitch": 49, "duration": 12, "velocity": 55}, {"time": 519, "pitch": 57, "duration": 9, "velocity": 105}, {"time": 519, "pitch": 61, "duration": 8, "velocity": 82}, {"time": 525, "pitch": 54, "duration": 6, "velocity": 109}, {"time": 531, "pitch": 49, "duration": 19, "velocity": 63}, {"time": 537, "pitch": 54, "duration": 7, "velocity": 99}, {"time": 543, "pitch": 57, "duration": 3, "velocity": 117}, {"time": 543, "pitch": 61, "duration": 7, "velocity": 99}, {"time": 543, "pitch": 66, "duration": 12, "velocity": 77}, {"time": 549, "pitch": 54, "duration": 5, "velocity": 109}, {"time": 549, "pitch": 57, "duration": 2, "velocity": 26}, {"time": 555, "pitch": 52, "duration": 44, "velocity": 105}, {"time": 561, "pitch": 59, "duration": 13, "velocity": 82}, {"time": 567, "pitch": 64, "duration": 2, "velocity": 94}, {"time": 567, "pitch": 68, "duration": 14, "velocity": 99}, {"time": 567, "pitch": 71, "duration": 19, "velocity": 94}, {"time": 573, "pitch": 64, "duration": 8, "velocity": 87}, {"time": 579, "pitch": 59, "duration": 20, "velocity": 51}, {"time": 585, "pitch": 64, "duration": 4, "velocity": 89}, {"time": 591, "pitch": 68, "duration": 8, "velocity": 109}, {"time": 591, "pitch": 71, "duration": 15, "velocity": 100}, {"time": 597, "pitch": 64, "duration": 6, "velocity": 78}, {"time": 603, "pitch": 50, "duration": 42, "velocity": 100}, {"time": 609, "pitch": 57, "duration": 13, "velocity": 84}, {"time": 615, "pitch": 62, "duration": 3, "velocity": 82}, {"time": 615, "pitch": 69, "duration": 19, "velocity": 97}, {"time": 621, "pitch": 62, "duration": 7, "velocity": 87}, {"time": 627, "pitch": 57, "duration": 16, "velocity": 97}, {"time": 633, "pitch": 62, "duration": 3, "velocity": 89}, {"time": 639, "pitch": 62, "duration": 2, "velocity": 82}, {"time": 639, "pitch": 66, "duration": 7, "velocity": 105}, {"time": 639, "pitch": 69, "duration": 14, "velocity": 97}, {"time": 645, "pitch": 62, "duration": 5, "velocity": 87}, {"time": 651, "pitch": 45, "duration": 45, "velocity": 97}, {"time": 657, "pitch": 52, "duration": 11, "velocity": 62}, {"time": 663, "pitch": 61, "duration": 10, "velocity": 102}, {"time": 663, "pitch": 64, "duration": 19, "velocity": 94}, {"time": 669, "pitch": 57, "duration": 8, "velocity": 102}, {"time": 675, "pitch": 52, "duration": 21, "velocity": 76}, {"time": 681, "pitch": 57, "duration": 4, "velocity": 84}, {"time": 687, "pitch": 57, "duration": 3, "velocity": 105}, {"time": 687, "pitch": 61, "duration": 9, "velocity": 102}, {"time": 687, "pitch": 64, "duration": 12, "velocity": 94}, {"time": 693, "pitch": 57, "duration": 4, "velocity": 105}, {"time": 699, "pitch": 47, "duration": 43, "velocity": 105}, {"time": 705, "pitch": 57, "duration": 4, "velocity": 82}, {"time": 711, "pitch": 57, "duration": 7, "velocity": 114}, {"time": 711, "pitch": 62, "duration": 13, "velocity": 102}, {"time": 717, "pitch": 54, "duration": 21, "velocity": 57}, {"time": 723, "pitch": 57, "duration": 8, "velocity": 92}, {"time": 729, "pitch": 62, "duration": 3, "velocity": 87}, {"time": 735, "pitch": 57, "duration": 3, "velocity": 100}, {"time": 735, "pitch": 62, "duration": 11, "velocity": 100}, {"time": 735, "pitch": 66, "duration": 12, "velocity": 93}, {"time": 741, "pitch": 57, "duration": 4, "velocity": 97}, {"time": 747, "pitch": 52, "duration": 45, "velocity": 87}, {"time": 753, "pitch": 59, "duration": 8, "velocity": 82}, {"time": 759, "pitch": 62, "duration": 13, "velocity": 105}, {"time": 759, "pitch": 68, "duration": 18, "velocity": 96}, {"time": 765, "pitch": 59, "duration": 8, "velocity": 82}, {"time": 771, "pitch": 56, "duration": 8, "velocity": 90}, {"time": 777, "pitch": 59, "duration": 15, "velocity": 100}, {"time": 783, "pitch": 64, "duration": 3, "velocity": 100}, {"time": 783, "pitch": 68, "duration": 9, "velocity": 105}, {"time": 783, "pitch": 71, "duration": 10, "velocity": 102}, {"time": 789, "pitch": 64, "duration": 4, "velocity": 71}, {"time": 795, "pitch": 45, "duration": 44, "velocity": 97}, {"time": 795, "pitch": 57, "duration": 9, "velocity": 80}, {"time": 795, "pitch": 61, "duration": 9, "velocity": 79}, {"time": 795, "pitch": 64, "duration": 9, "velocity": 87}, {"time": 801, "pitch": 52, "duration": 10, "velocity": 71}, {"time": 807, "pitch": 61, "duration": 14, "velocity": 99}, {"time": 807, "pitch": 64, "duration": 15, "velocity": 97}, {"time": 813, "pitch": 57, "duration": 8, "velocity": 92}, {"time": 819, "pitch": 52, "duration": 23, "velocity": 76}, {"time": 825, "pitch": 57, "duration": 7, "velocity": 100}, {"time": 831, "pitch": 61, "duration": 11, "velocity": 105}, {"time": 831, "pitch": 64, "duration": 12, "velocity": 105}, {"time": 837, "pitch": 57, "duration": 6, "velocity": 105}, {"time": 843, "pitch": 44, "duration": 43, "velocity": 109}, {"time": 849, "pitch": 52, "duration": 12, "velocity": 66}, {"time": 849, "pitch": 64, "duration": 4, "velocity": 1}, {"time": 855, "pitch": 56, "duration": 13, "velocity": 99}, {"time": 855, "pitch": 59, "duration": 11, "velocity": 114}, {"time": 855, "pitch": 64, "duration": 13, "velocity": 102}, {"time": 867, "pitch": 52, "duration": 18, "velocity": 76}, {"time": 873, "pitch": 56, "duration": 7, "velocity": 99}, {"time": 879, "pitch": 59, "duration": 7, "velocity": 100}, {"time": 879, "pitch": 64, "duration": 13, "velocity": 102}, {"time": 885, "pitch": 56, "duration": 5, "velocity": 77}, {"time": 891, "pitch": 42, "duration": 42, "velocity": 109}, {"time": 897, "pitch": 49, "duration": 12, "velocity": 55}, {"time": 903, "pitch": 57, "duration": 9, "velocity": 105}, {"time": 903, "pitch": 61, "duration": 8, "velocity": 82}, {"time": 909, "pitch": 54, "duration": 6, "velocity": 109}, {"time": 915, "pitch": 49, "duration": 19, "velocity": 63}, {"time": 921, "pitch": 54, "duration": 7, "velocity": 99}, {"time": 927, "pitch": 57, "duration": 3, "velocity": 117}, {"time": 927, "pitch": 61, "duration": 7, "velocity": 99}, {"time": 927, "pitch": 66, "duration": 12, "velocity": 77}, {"time": 933, "pitch": 54, "duration": 5, "velocity": 109}, {"time": 933, "pitch": 57, "duration": 2, "velocity": 26}, {"time": 939, "pitch": 52, "duration": 44, "velocity": 105}, {"time": 945, "pitch": 59, "duration": 13, "velocity": 82}, {"time": 951, "pitch": 64, "duration": 2, "velocity": 94}, {"time": 951, "pitch": 68, "duration": 14, "velocity": 99}, {"time": 951, "pitch": 71, "duration": 19, "velocity": 94}, {"time": 957, "pitch": 64, "duration": 8, "velocity": 87}, {"time": 963, "pitch": 59, "duration": 20, "velocity": 51}, {"time": 969, "pitch": 64, "duration": 4, "velocity": 89}, {"time": 975, "pitch": 68, "duration": 8, "velocity": 109}, {"time": 975, "pitch": 71, "duration": 15, "velocity": 100}, {"time": 981, "pitch": 64, "duration": 6, "velocity": 78}, {"time": 987, "pitch": 50, "duration": 42, "velocity": 100}, {"time": 993, "pitch": 57, "duration": 13, "velocity": 84}, {"time": 999, "pitch": 62, "duration": 3, "velocity": 82}, {"time": 999, "pitch": 69, "duration": 19, "velocity": 97}, {"time": 1005, "pitch": 62, "duration": 7, "velocity": 87}, {"time": 1011, "pitch": 57, "duration": 16, "velocity": 97}, {"time": 1017, "pitch": 62, "duration": 3, "velocity": 89}, {"time": 1023, "pitch": 62, "duration": 2, "velocity": 82}, {"time": 1023, "pitch": 66, "duration": 7, "velocity": 105}, {"time": 1023, "pitch": 69, "duration": 14, "velocity": 97}, {"time": 1029, "pitch": 62, "duration": 5, "velocity": 87}, {"time": 1035, "pitch": 45, "duration": 45, "velocity": 97}, {"time": 1041, "pitch": 52, "duration": 11, "velocity": 62}, {"time": 1047, "pitch": 61, "duration": 10, "velocity": 102}, {"time": 1047, "pitch": 64, "duration": 19, "velocity": 94}, {"time": 1053, "pitch": 57, "duration": 8, "velocity": 102}, {"time": 1059, "pitch": 52, "duration": 21, "velocity": 76}, {"time": 1065, "pitch": 57, "duration": 4, "velocity": 84}, {"time": 1071, "pitch": 57, "duration": 3, "velocity": 105}, {"time": 1071, "pitch": 61, "duration": 9, "velocity": 102}, {"time": 1071, "pitch": 64, "duration": 12, "velocity": 94}, {"time": 1077, "pitch": 57, "duration": 4, "velocity": 105}, {"time": 1083, "pitch": 47, "duration": 43, "velocity": 105}, {"time": 1089, "pitch": 57, "duration": 4, "velocity": 82}, {"time": 1095, "pitch": 57, "duration": 7, "velocity": 114}, {"time": 1095, "pitch": 62, "duration": 13, "velocity": 102}, {"time": 1101, "pitch": 54, "duration": 21, "velocity": 57}, {"time": 1107, "pitch": 57, "duration": 8, "velocity": 92}, {"time": 1113, "pitch": 62, "duration": 3, "velocity": 87}, {"time": 1119, "pitch": 57, "duration": 3, "velocity": 100}, {"time": 1119, "pitch": 62, "duration": 11, "velocity": 100}, {"time": 1119, "pitch": 66, "duration": 12, "velocity": 93}, {"time": 1125, "pitch": 57, "duration": 4, "velocity": 97}, {"time": 1131, "pitch": 40, "duration": 45, "velocity": 102}, {"time": 1131, "pitch": 52, "duration": 9, "velocity": 100}, {"time": 1131, "pitch": 56, "duration": 9, "velocity": 99}, {"time": 1137, "pitch": 47, "duration": 9, "velocity": 76}, {"time": 1143, "pitch": 56, "duration": 17, "velocity": 112}, {"time": 1143, "pitch": 59, "duration": 18, "velocity": 111}, {"time": 1149, "pitch": 52, "duration": 8, "velocity": 94}, {"time": 1155, "pitch": 47, "duration": 22, "velocity": 82}, {"time": 1161, "pitch": 52, "duration": 7, "velocity": 92}, {"time": 1167, "pitch": 56, "duration": 15, "velocity": 109}, {"time": 1167, "pitch": 59, "duration": 15, "velocity": 105}, {"time": 1173, "pitch": 52, "duration": 9, "velocity": 94}, {"time": 1179, "pitch": 40, "duration": 8, "velocity": 108}, {"time": 1185, "pitch": 47, "duration": 2, "velocity": 78}, {"time": 1185, "pitch": 52, "duration": 2, "velocity": 84}, {"time": 1185, "pitch": 56, "duration": 2, "velocity": 87}, {"time": 1185, "pitch": 59, "duration": 2, "velocity": 94}, {"time": 1191, "pitch": 40, "duration": 2, "velocity": 100}, {"time": 1191, "pitch": 47, "duration": 2, "velocity": 89}, {"time": 1191, "pitch": 52, "duration": 2, "velocity": 84}, {"time": 1191, "pitch": 56, "duration": 2, "velocity": 79}, {"time": 1191, "pitch": 59, "duration": 2, "velocity": 84}, {"time": 1197, "pitch": 40, "duration": 2, "velocity": 100}, {"time": 1197, "pitch": 47, "duration": 3, "velocity": 84}, {"time": 1197, "pitch": 52, "duration": 2, "velocity": 94}, {"time": 1197, "pitch": 56, "duration": 2, "velocity": 93}, {"time": 1197, "pitch": 59, "duration": 2, "velocity": 92}, {"time": 1203, "pitch": 40, "duration": 4, "velocity": 111}, {"time": 1203, "pitch": 47, "duration": 3, "velocity": 111}, {"time": 1203, "pitch": 52, "duration": 13, "velocity": 108}, {"time": 1203, "pitch": 56, "duration": 13, "velocity": 105}, {"time": 1203, "pitch": 59, "duration": 13, "velocity": 108}, {"time": 1206, "pitch": 40, "duration": 1, "velocity": 80}, {"time": 1215, "pitch": 47, "duration": 11, "velocity": 100}, {"time": 1218, "pitch": 56, "duration": 6, "velocity": 112}, {"time": 1221, "pitch": 52, "duration": 6, "velocity": 102}, {"time": 1221, "pitch": 59, "duration": 6, "velocity": 100}, {"time": 1227, "pitch": 45, "duration": 20, "velocity": 100}, {"time": 1227, "pitch": 57, "duration": 8, "velocity": 100}, {"time": 1227, "pitch": 61, "duration": 7, "velocity": 90}, {"time": 1233, "pitch": 52, "duration": 7, "velocity": 52}, {"time": 1239, "pitch": 57, "duration": 8, "velocity": 105}, {"time": 1239, "pitch": 61, "duration": 6, "velocity": 109}, {"time": 1239, "pitch": 64, "duration": 5, "velocity": 108}, {"time": 1251, "pitch": 52, "duration": 7, "velocity": 67}, {"time": 1257, "pitch": 57, "duration": 7, "velocity": 114}, {"time": 1257, "pitch": 61, "duration": 6, "velocity": 116}, {"time": 1257, "pitch": 64, "duration": 5, "velocity": 108}, {"time": 1257, "pitch": 69, "duration": 6, "velocity": 100}, {"time": 1263, "pitch": 45, "duration": 1, "velocity": 71}, {"time": 1269, "pitch": 57, "duration": 7, "velocity": 105}, {"time": 1269, "pitch": 61, "duration": 6, "velocity": 112}, {"time": 1269, "pitch": 64, "duration": 6, "velocity": 100}, {"time": 1275, "pitch": 44, "duration": 14, "velocity": 105}, {"time": 1281, "pitch": 52, "duration": 7, "velocity": 46}, {"time": 1287, "pitch": 56, "duration": 3, "velocity": 105}, {"time": 1287, "pitch": 59, "duration": 8, "velocity": 111}, {"time": 1287, "pitch": 64, "duration": 9, "velocity": 105}, {"time": 1293, "pitch": 56, "duration": 3, "velocity": 50}, {"time": 1299, "pitch": 52, "duration": 12, "velocity": 69}, {"time": 1305, "pitch": 56, "duration": 4, "velocity": 102}, {"time": 1305, "pitch": 59, "duration": 5, "velocity": 123}, {"time": 1305, "pitch": 64, "duration": 8, "velocity": 108}, {"time": 1317, "pitch": 56, "duration": 3, "velocity": 93}, {"time": 1317, "pitch": 59, "duration": 1, "velocity": 67}, {"time": 1317, "pitch": 64, "duration": 4, "velocity": 97}, {"time": 1323, "pitch": 42, "duration": 16, "velocity": 96}, {"time": 1323, "pitch": 54, "duration": 8, "velocity": 70}, {"time": 1323, "pitch": 57, "duration": 7, "velocity": 94}, {"time": 1323, "pitch": 61, "duration": 8, "velocity": 39}, {"time": 1335, "pitch": 54, "duration": 4, "velocity": 105}, {"time": 1335, "pitch": 57, "duration": 4, "velocity": 111}, {"time": 1335, "pitch": 61, "duration": 4, "velocity": 96}, {"time": 1347, "pitch": 49, "duration": 7, "velocity": 55}, {"time": 1353, "pitch": 54, "duration": 7, "velocity": 90}, {"time": 1353, "pitch": 57, "duration": 6, "velocity": 117}, {"time": 1353, "pitch": 61, "duration": 5, "velocity": 90}, {"time": 1353, "pitch": 66, "duration": 8, "velocity": 77}, {"time": 1365, "pitch": 54, "duration": 3, "velocity": 102}, {"time": 1365, "pitch": 57, "duration": 1, "velocity": 102}, {"time": 1365, "pitch": 66, "duration": 6, "velocity": 52}, {"time": 1371, "pitch": 52, "duration": 17, "velocity": 108}, {"time": 1377, "pitch": 59, "duration": 8, "velocity": 58}, {"time": 1383, "pitch": 62, "duration": 9, "velocity": 114}, {"time": 1383, "pitch": 68, "duration": 14, "velocity": 109}, {"time": 1389, "pitch": 59, "duration": 2, "velocity": 45}, {"time": 1395, "pitch": 52, "duration": 14, "velocity": 92}, {"time": 1395, "pitch": 59, "duration": 8, "velocity": 87}, {"time": 1401, "pitch": 64, "duration": 8, "velocity": 111}, {"time": 1401, "pitch": 68, "duration": 8, "velocity": 109}, {"time": 1401, "pitch": 71, "duration": 8, "velocity": 108}, {"time": 1407, "pitch": 59, "duration": 2, "velocity": 66}, {"time": 1413, "pitch": 64, "duration": 2, "velocity": 100}, {"time": 1413, "pitch": 68, "duration": 2, "velocity": 102}, {"time": 1413, "pitch": 71, "duration": 2, "velocity": 92}, {"time": 1419, "pitch": 50, "duration": 18, "velocity": 102}, {"time": 1419, "pitch": 62, "duration": 8, "velocity": 92}, {"time": 1419, "pitch": 66, "duration": 8, "velocity": 99}, {"time": 1425, "pitch": 57, "duration": 7, "velocity": 55}, {"time": 1431, "pitch": 62, "duration": 13, "velocity": 108}, {"time": 1431, "pitch": 66, "duration": 13, "velocity": 112}, {"time": 1431, "pitch": 69, "duration": 14, "velocity": 111}, {"time": 1437, "pitch": 57, "duration": 2, "velocity": 76}, {"time": 1443, "pitch": 50, "duration": 2, "velocity": 94}, {"time": 1449, "pitch": 50, "duration": 9, "velocity": 102}, {"time": 1449, "pitch": 57, "duration": 6, "velocity": 117}, {"time": 1449, "pitch": 62, "duration": 4, "velocity": 84}, {"time": 1449, "pitch": 66, "duration": 7, "velocity": 102}, {"time": 1449, "pitch": 69, "duration": 8, "velocity": 100}, {"time": 1461, "pitch": 62, "duration": 7, "velocity": 111}, {"time": 1461, "pitch": 66, "duration": 6, "velocity": 116}, {"time": 1461, "pitch": 69, "duration": 9, "velocity": 108}, {"time": 1467, "pitch": 45, "duration": 18, "velocity": 100}, {"time": 1473, "pitch": 52, "duration": 7, "velocity": 66}, {"time": 1479, "pitch": 57, "duration": 11, "velocity": 111}, {"time": 1479, "pitch": 61, "duration": 13, "velocity": 105}, {"time": 1479, "pitch": 64, "duration": 11, "velocity": 108}, {"time": 1491, "pitch": 45, "duration": 8, "velocity": 97}, {"time": 1497, "pitch": 57, "duration": 8, "velocity": 117}, {"time": 1497, "pitch": 61, "duration": 9, "velocity": 105}, {"time": 1497, "pitch": 64, "duration": 9, "velocity": 111}, {"time": 1503, "pitch": 52, "duration": 1, "velocity": 34}, {"time": 1509, "pitch": 45, "duration": 3, "velocity": 102}, {"time": 1509, "pitch": 57, "duration": 3, "velocity": 108}, {"time": 1515, "pitch": 47, "duration": 16, "velocity": 111}, {"time": 1515, "pitch": 59, "duration": 9, "velocity": 102}, {"time": 1515, "pitch": 62, "duration": 9, "velocity": 84}, {"time": 1527, "pitch": 59, "duration": 9, "velocity": 105}, {"time": 1527, "pitch": 62, "duration": 10, "velocity": 94}, {"time": 1527, "pitch": 66, "duration": 13, "velocity": 102}, {"time": 1533, "pitch": 54, "duration": 3, "velocity": 72}, {"time": 1539, "pitch": 47, "duration": 9, "velocity": 94}, {"time": 1545, "pitch": 54, "duration": 3, "velocity": 102}, {"time": 1545, "pitch": 59, "duration": 8, "velocity": 108}, {"time": 1545, "pitch": 62, "duration": 8, "velocity": 105}, {"time": 1545, "pitch": 66, "duration": 8, "velocity": 109}, {"time": 1551, "pitch": 47, "duration": 1, "velocity": 43}, {"time": 1557, "pitch": 47, "duration": 3, "velocity": 97}, {"time": 1557, "pitch": 59, "duration": 4, "velocity": 102}, {"time": 1557, "pitch": 62, "duration": 4, "velocity": 100}, {"time": 1563, "pitch": 52, "duration": 15, "velocity": 105}, {"time": 1569, "pitch": 59, "duration": 3, "velocity": 62}, {"time": 1569, "pitch": 64, "duration": 3, "velocity": 84}, {"time": 1575, "pitch": 59, "duration": 8, "velocity": 120}, {"time": 1575, "pitch": 64, "duration": 8, "velocity": 117}, {"time": 1581, "pitch": 52, "duration": 14, "velocity": 92}, {"time": 1587, "pitch": 59, "duration": 2, "velocity": 108}, {"time": 1587, "pitch": 64, "duration": 2, "velocity": 108}, {"time": 1587, "pitch": 68, "duration": 2, "velocity": 105}, {"time": 1593, "pitch": 59, "duration": 9, "velocity": 114}, {"time": 1593, "pitch": 64, "duration": 9, "velocity": 117}, {"time": 1593, "pitch": 68, "duration": 10, "velocity": 109}, {"time": 1599, "pitch": 52, "duration": 11, "velocity": 102}, {"time": 1605, "pitch": 59, "duration": 4, "velocity": 111}, {"time": 1605, "pitch": 64, "duration": 4, "velocity": 100}, {"time": 1611, "pitch": 45, "duration": 20, "velocity": 100}, {"time": 1611, "pitch": 57, "duration": 8, "velocity": 100}, {"time": 1611, "pitch": 61, "duration": 7, "velocity": 90}, {"time": 1617, "pitch": 52, "duration": 7, "velocity": 52}, {"time": 1623, "pitch": 57, "duration": 8, "velocity": 105}, {"time": 1623, "pitch": 61, "duration": 6, "velocity": 109}, {"time": 1623, "pitch": 64, "duration": 5, "velocity": 108}, {"time": 1635, "pitch": 52, "duration": 7, "velocity": 67}, {"time": 1641, "pitch": 57, "duration": 7, "velocity": 114}, {"time": 1641, "pitch": 61, "duration": 6, "velocity": 116}, {"time": 1641, "pitch": 64, "duration": 5, "velocity": 108}, {"time": 1641, "pitch": 69, "duration": 6, "velocity": 100}, {"time": 1647, "pitch": 45, "duration": 1, "velocity": 71}, {"time": 1653, "pitch": 57, "duration": 7, "velocity": 105}, {"time": 1653, "pitch": 61, "duration": 6, "velocity": 112}, {"time": 1653, "pitch": 64, "duration": 6, "velocity": 100}, {"time": 1659, "pitch": 44, "duration": 14, "velocity": 105}, {"time": 1665, "pitch": 52, "duration": 7, "velocity": 46}, {"time": 1671, "pitch": 56, "duration": 3, "velocity": 105}, {"time": 1671, "pitch": 59, "duration": 8, "velocity": 111}, {"time": 1671, "pitch": 64, "duration": 9, "velocity": 105}, {"time": 1677, "pitch": 56, "duration": 3, "velocity": 50}, {"time": 1683, "pitch": 52, "duration": 12, "velocity": 69}, {"time": 1689, "pitch": 56, "duration": 4, "velocity": 102}, {"time": 1689, "pitch": 59, "duration": 5, "velocity": 123}, {"time": 1689, "pitch": 64, "duration": 8, "velocity": 108}, {"time": 1701, "pitch": 56, "duration": 3, "velocity": 93}, {"time": 1701, "pitch": 59, "duration": 1, "velocity": 67}, {"time": 1701, "pitch": 64, "duration": 4, "velocity": 97}, {"time": 1707, "pitch": 42, "duration": 16, "velocity": 96}, {"time": 1707, "pitch": 54, "duration": 8, "velocity": 70}, {"time": 1707, "pitch": 57, "duration": 7, "velocity": 94}, {"time": 1707, "pitch": 61, "duration": 8, "velocity": 39}, {"time": 1719, "pitch": 54, "duration": 4, "velocity": 105}, {"time": 1719, "pitch": 57, "duration": 4, "velocity": 111}, {"time": 1719, "pitch": 61, "duration": 4, "velocity": 96}, {"time": 1731, "pitch": 49, "duration": 7, "velocity": 55}, {"time": 1737, "pitch": 54, "duration": 7, "velocity": 90}, {"time": 1737, "pitch": 57, "duration": 6, "velocity": 117}, {"time": 1737, "pitch": 61, "duration": 5, "velocity": 90}, {"time": 1737, "pitch": 66, "duration": 8, "velocity": 77}, {"time": 1749, "pitch": 54, "duration": 3, "velocity": 102}, {"time": 1749, "pitch": 57, "duration": 1, "velocity": 102}, {"time": 1749, "pitch": 66, "duration": 6, "velocity": 52}, {"time": 1755, "pitch": 52, "duration": 17, "velocity": 108}, {"time": 1761, "pitch": 59, "duration": 8, "velocity": 58}, {"time": 1767, "pitch": 62, "duration": 9, "velocity": 114}, {"time": 1767, "pitch": 68, "duration": 14, "velocity": 109}, {"time": 1773, "pitch": 59, "duration": 2, "velocity": 45}, {"time": 1779, "pitch": 52, "duration": 14, "velocity": 92}, {"time": 1779, "pitch": 59, "duration": 8, "velocity": 87}, {"time": 1785, "pitch": 64, "duration": 8, "velocity": 111}, {"time": 1785, "pitch": 68, "duration": 8, "velocity": 109}, {"time": 1785, "pitch": 71, "duration": 8, "velocity": 108}, {"time": 1791, "pitch": 59, "duration": 2, "velocity": 66}, {"time": 1797, "pitch": 64, "duration": 2, "velocity": 100}, {"time": 1797, "pitch": 68, "duration": 2, "velocity": 102}, {"time": 1797, "pitch": 71, "duration": 2, "velocity": 92}, {"time": 1803, "pitch": 50, "duration": 18, "velocity": 102}, {"time": 1803, "pitch": 62, "duration": 8, "velocity": 92}, {"time": 1803, "pitch": 66, "duration": 8, "velocity": 99}, {"time": 1809, "pitch": 57, "duration": 7, "velocity": 55}, {"time": 1815, "pitch": 62, "duration": 13, "velocity": 108}, {"time": 1815, "pitch": 66, "duration": 13, "velocity": 112}, {"time": 1815, "pitch": 69, "duration": 14, "velocity": 111}, {"time": 1821, "pitch": 57, "duration": 2, "velocity": 76}, {"time": 1827, "pitch": 50, "duration": 2, "velocity": 94}, {"time": 1833, "pitch": 50, "duration": 9, "velocity": 102}, {"time": 1833, "pitch": 57, "duration": 6, "velocity": 117}, {"time": 1833, "pitch": 62, "duration": 4, "velocity": 84}, {"time": 1833, "pitch": 66, "duration": 7, "velocity": 102}, {"time": 1833, "pitch": 69, "duration": 8, "velocity": 100}, {"time": 1845, "pitch": 62, "duration": 7, "velocity": 111}, {"time": 1845, "pitch": 66, "duration": 6, "velocity": 116}, {"time": 1845, "pitch": 69, "duration": 9, "velocity": 108}, {"time": 1851, "pitch": 45, "duration": 18, "velocity": 100}, {"time": 1857, "pitch": 52, "duration": 7, "velocity": 66}, {"time": 1863, "pitch": 57, "duration": 11, "velocity": 111}, {"time": 1863, "pitch": 61, "duration": 13, "velocity": 105}, {"time": 1863, "pitch": 64, "duration": 11, "velocity": 108}, {"time": 1875, "pitch": 45, "duration": 8, "velocity": 97}, {"time": 1881, "pitch": 57, "duration": 8, "velocity": 117}, {"time": 1881, "pitch": 61, "duration": 9, "velocity": 105}, {"time": 1881, "pitch": 64, "duration": 9, "velocity": 111}, {"time": 1887, "pitch": 52, "duration": 1, "velocity": 34}, {"time": 1893, "pitch": 45, "duration": 3, "velocity": 102}, {"time": 1893, "pitch": 57, "duration": 3, "velocity": 108}, {"time": 1899, "pitch": 47, "duration": 20, "velocity": 100}, {"time": 1899, "pitch": 59, "duration": 8, "velocity": 97}, {"time": 1899, "pitch": 62, "duration": 8, "velocity": 92}, {"time": 1899, "pitch": 66, "duration": 9, "velocity": 96}, {"time": 1911, "pitch": 59, "duration": 3, "velocity": 111}, {"time": 1911, "pitch": 62, "duration": 7, "velocity": 117}, {"time": 1911, "pitch": 66, "duration": 7, "velocity": 112}, {"time": 1917, "pitch": 59, "duration": 9, "velocity": 111}, {"time": 1923, "pitch": 52, "duration": 15, "velocity": 108}, {"time": 1929, "pitch": 59, "duration": 7, "velocity": 114}, {"time": 1929, "pitch": 64, "duration": 7, "velocity": 111}, {"time": 1929, "pitch": 68, "duration": 7, "velocity": 105}, {"time": 1941, "pitch": 59, "duration": 2, "velocity": 111}, {"time": 1941, "pitch": 64, "duration": 2, "velocity": 97}, {"time": 1947, "pitch": 45, "duration": 48, "velocity": 97}, {"time": 1947, "pitch": 57, "duration": 6, "velocity": 80}, {"time": 1947, "pitch": 61, "duration": 6, "velocity": 93}, {"time": 1953, "pitch": 52, "duration": 8, "velocity": 48}, {"time": 1959, "pitch": 57, "duration": 3, "velocity": 111}, {"time": 1959, "pitch": 61, "duration": 6, "velocity": 112}, {"time": 1959, "pitch": 64, "duration": 10, "velocity": 108}, {"time": 1965, "pitch": 57, "duration": 4, "velocity": 100}, {"time": 1971, "pitch": 52, "duration": 8, "velocity": 89}, {"time": 1977, "pitch": 57, "duration": 8, "velocity": 105}, {"time": 1977, "pitch": 61, "duration": 8, "velocity": 109}, {"time": 1977, "pitch": 64, "duration": 8, "velocity": 97}, {"time": 1977, "pitch": 69, "duration": 7, "velocity": 87}, {"time": 1983, "pitch": 52, "duration": 12, "velocity": 92}, {"time": 1989, "pitch": 57, "duration": 5, "velocity": 105}, {"time": 1989, "pitch": 61, "duration": 6, "velocity": 109}, {"time": 1989, "pitch": 64, "duration": 6, "velocity": 100}, {"time": 1995, "pitch": 50, "duration": 20, "velocity": 102}, {"time": 1995, "pitch": 62, "duration": 6, "velocity": 97}, {"time": 1995, "pitch": 69, "duration": 8, "velocity": 102}, {"time": 2001, "pitch": 57, "duration": 13, "velocity": 80}, {"time": 2007, "pitch": 62, "duration": 2, "velocity": 111}, {"time": 2013, "pitch": 62, "duration": 13, "velocity": 111}, {"time": 2013, "pitch": 69, "duration": 14, "velocity": 105}, {"time": 2025, "pitch": 50, "duration": 9, "velocity": 100}, {"time": 2031, "pitch": 62, "duration": 2, "velocity": 111}, {"time": 2031, "pitch": 69, "duration": 8, "velocity": 108}, {"time": 2037, "pitch": 62, "duration": 2, "velocity": 94}, {"time": 2043, "pitch": 45, "duration": 19, "velocity": 105}, {"time": 2043, "pitch": 57, "duration": 7, "velocity": 102}, {"time": 2043, "pitch": 64, "duration": 8, "velocity": 97}, {"time": 2049, "pitch": 52, "duration": 12, "velocity": 38}, {"time": 2055, "pitch": 57, "duration": 2, "velocity": 108}, {"time": 2061, "pitch": 57, "duration": 7, "velocity": 111}, {"time": 2061, "pitch": 64, "duration": 7, "velocity": 108}, {"time": 2067, "pitch": 45, "duration": 14, "velocity": 48}, {"time": 2067, "pitch": 52, "duration": 13, "velocity": 45}, {"time": 2073, "pitch": 57, "duration": 3, "velocity": 102}, {"time": 2079, "pitch": 57, "duration": 2, "velocity": 105}, {"time": 2079, "pitch": 61, "duration": 5, "velocity": 109}, {"time": 2085, "pitch": 57, "duration": 2, "velocity": 102}, {"time": 2091, "pitch": 50, "duration": 21, "velocity": 102}, {"time": 2091, "pitch": 62, "duration": 7, "velocity": 87}, {"time": 2091, "pitch": 66, "duration": 8, "velocity": 90}, {"time": 2097, "pitch": 57, "duration": 13, "velocity": 67}, {"time": 2103, "pitch": 62, "duration": 2, "velocity": 84}, {"time": 2109, "pitch": 62, "duration": 8, "velocity": 114}, {"time": 2109, "pitch": 69, "duration": 7, "velocity": 108}, {"time": 2115, "pitch": 50, "duration": 7, "velocity": 45}, {"time": 2115, "pitch": 57, "duration": 6, "velocity": 73}, {"time": 2121, "pitch": 62, "duration": 5, "velocity": 114}, {"time": 2121, "pitch": 69, "duration": 13, "velocity": 105}, {"time": 2127, "pitch": 50, "duration": 2, "velocity": 80}, {"time": 2133, "pitch": 62, "duration": 2, "velocity": 87}, {"time": 2139, "pitch": 45, "duration": 32, "velocity": 105}, {"time": 2139, "pitch": 64, "duration": 4, "velocity": 82}, {"time": 2139, "pitch": 69, "duration": 15, "velocity": 100}, {"time": 2145, "pitch": 52, "duration": 14, "velocity": 58}, {"time": 2151, "pitch": 59, "duration": 3, "velocity": 80}, {"time": 2157, "pitch": 61, "duration": 6, "velocity": 96}, {"time": 2157, "pitch": 64, "duration": 8, "velocity": 84}, {"time": 2163, "pitch": 52, "duration": 6, "velocity": 87}, {"time": 2169, "pitch": 57, "duration": 7, "velocity": 108}, {"time": 2169, "pitch": 61, "duration": 7, "velocity": 109}, {"time": 2169, "pitch": 64, "duration": 8, "velocity": 108}, {"time": 2175, "pitch": 45, "duration": 6, "velocity": 38}, {"time": 2175, "pitch": 52, "duration": 9, "velocity": 94}, {"time": 2181, "pitch": 57, "duration": 3, "velocity": 102}, {"time": 2181, "pitch": 61, "duration": 1, "velocity": 65}, {"time": 2181, "pitch": 64, "duration": 4, "velocity": 87}, {"time": 2187, "pitch": 50, "duration": 21, "velocity": 105}, {"time": 2187, "pitch": 57, "duration": 4, "velocity": 105}, {"time": 2187, "pitch": 62, "duration": 8, "velocity": 105}, {"time": 2199, "pitch": 66, "duration": 2, "velocity": 77}, {"time": 2205, "pitch": 57, "duration": 8, "velocity": 102}, {"time": 2205, "pitch": 62, "duration": 8, "velocity": 108}, {"time": 2205, "pitch": 66, "duration": 9, "velocity": 102}, {"time": 2211, "pitch": 50, "duration": 14, "velocity": 76}, {"time": 2217, "pitch": 57, "duration": 3, "velocity": 100}, {"time": 2223, "pitch": 57, "duration": 3, "velocity": 117}, {"time": 2223, "pitch": 62, "duration": 4, "velocity": 108}, {"time": 2235, "pitch": 45, "duration": 31, "velocity": 108}, {"time": 2241, "pitch": 52, "duration": 13, "velocity": 53}, {"time": 2241, "pitch": 61, "duration": 3, "velocity": 77}, {"time": 2247, "pitch": 61, "duration": 2, "velocity": 46}, {"time": 2247, "pitch": 64, "duration": 2, "velocity": 80}, {"time": 2253, "pitch": 61, "duration": 6, "velocity": 102}, {"time": 2253, "pitch": 64, "duration": 6, "velocity": 97}, {"time": 2253, "pitch": 69, "duration": 7, "velocity": 105}, {"time": 2259, "pitch": 52, "duration": 7, "velocity": 82}, {"time": 2265, "pitch": 61, "duration": 5, "velocity": 109}, {"time": 2265, "pitch": 64, "duration": 6, "velocity": 108}, {"time": 2265, "pitch": 69, "duration": 7, "velocity": 100}, {"time": 2271, "pitch": 45, "duration": 2, "velocity": 89}, {"time": 2283, "pitch": 47, "duration": 31, "velocity": 102}, {"time": 2283, "pitch": 57, "duration": 12, "velocity": 69}, {"time": 2283, "pitch": 62, "duration": 14, "velocity": 87}, {"time": 2295, "pitch": 54, "duration": 9, "velocity": 85}, {"time": 2301, "pitch": 57, "duration": 9, "velocity": 108}, {"time": 2301, "pitch": 62, "duration": 9, "velocity": 105}, {"time": 2301, "pitch": 66, "duration": 9, "velocity": 102}, {"time": 2307, "pitch": 54, "duration": 6, "velocity": 46}, {"time": 2313, "pitch": 57, "duration": 5, "velocity": 108}, {"time": 2313, "pitch": 62, "duration": 6, "velocity": 102}, {"time": 2313, "pitch": 66, "duration": 6, "velocity": 105}, {"time": 2319, "pitch": 52, "duration": 9, "velocity": 105}, {"time": 2325, "pitch": 59, "duration": 7, "velocity": 105}, {"time": 2325, "pitch": 64, "duration": 8, "velocity": 108}, {"time": 2331, "pitch": 45, "duration": 21, "velocity": 108}, {"time": 2337, "pitch": 52, "duration": 12, "velocity": 66}, {"time": 2343, "pitch": 57, "duration": 3, "velocity": 92}, {"time": 2349, "pitch": 57, "duration": 7, "velocity": 105}, {"time": 2349, "pitch": 61, "duration": 6, "velocity": 105}, {"time": 2349, "pitch": 64, "duration": 7, "velocity": 105}, {"time": 2355, "pitch": 45, "duration": 6, "velocity": 20}, {"time": 2355, "pitch": 52, "duration": 5, "velocity": 76}, {"time": 2361, "pitch": 57, "duration": 6, "velocity": 114}, {"time": 2361, "pitch": 69, "duration": 7, "velocity": 105}, {"time": 2367, "pitch": 52, "duration": 6, "velocity": 84}, {"time": 2373, "pitch": 57, "duration": 5, "velocity": 97}, {"time": 2373, "pitch": 61, "duration": 5, "velocity": 99}, {"time": 2373, "pitch": 64, "duration": 6, "velocity": 92}, {"time": 2379, "pitch": 45, "duration": 44, "velocity": 97}, {"time": 2379, "pitch": 57, "duration": 9, "velocity": 80}, {"time": 2379, "pitch": 61, "duration": 9, "velocity": 79}, {"time": 2379, "pitch": 64, "duration": 9, "velocity": 87}, {"time": 2385, "pitch": 52, "duration": 10, "velocity": 71}, {"time": 2391, "pitch": 61, "duration": 14, "velocity": 99}, {"time": 2391, "pitch": 64, "duration": 15, "velocity": 97}, {"time": 2397, "pitch": 57, "duration": 8, "velocity": 92}, {"time": 2403, "pitch": 52, "duration": 23, "velocity": 76}, {"time": 2409, "pitch": 57, "duration": 7, "velocity": 100}, {"time": 2415, "pitch": 61, "duration": 11, "velocity": 105}, {"time": 2415, "pitch": 64, "duration": 12, "velocity": 105}, {"time": 2421, "pitch": 57, "duration": 6, "velocity": 105}, {"time": 2427, "pitch": 44, "duration": 43, "velocity": 109}, {"time": 2433, "pitch": 52, "duration": 12, "velocity": 66}, {"time": 2433, "pitch": 64, "duration": 4, "velocity": 1}, {"time": 2439, "pitch": 56, "duration": 13, "velocity": 99}, {"time": 2439, "pitch": 59, "duration": 11, "velocity": 114}, {"time": 2439, "pitch": 64, "duration": 13, "velocity": 102}, {"time": 2451, "pitch": 52, "duration": 18, "velocity": 76}, {"time": 2457, "pitch": 56, "duration": 7, "velocity": 99}, {"time": 2463, "pitch": 59, "duration": 7, "velocity": 100}, {"time": 2463, "pitch": 64, "duration": 13, "velocity": 102}, {"time": 2469, "pitch": 56, "duration": 5, "velocity": 77}, {"time": 2475, "pitch": 42, "duration": 42, "velocity": 109}, {"time": 2481, "pitch": 49, "duration": 12, "velocity": 55}, {"time": 2487, "pitch": 57, "duration": 9, "velocity": 105}, {"time": 2487, "pitch": 61, "duration": 8, "velocity": 82}, {"time": 2493, "pitch": 54, "duration": 6, "velocity": 109}, {"time": 2499, "pitch": 49, "duration": 19, "velocity": 63}, {"time": 2505, "pitch": 54, "duration": 7, "velocity": 99}, {"time": 2511, "pitch": 57, "duration": 3, "velocity": 117}, {"time": 2511, "pitch": 61, "duration": 7, "velocity": 99}, {"time": 2511, "pitch": 66, "duration": 12, "velocity": 77}, {"time": 2517, "pitch": 54, "duration": 5, "velocity": 109}, {"time": 2517, "pitch": 57, "duration": 2, "velocity": 26}, {"time": 2523, "pitch": 52, "duration": 44, "velocity": 105}, {"time": 2529, "pitch": 59, "duration": 13, "velocity": 82}, {"time": 2535, "pitch": 64, "duration": 2, "velocity": 94}, {"time": 2535, "pitch": 68, "duration": 14, "velocity": 99}, {"time": 2535, "pitch": 71, "duration": 19, "velocity": 94}, {"time": 2541, "pitch": 64, "duration": 8, "velocity": 87}, {"time": 2547, "pitch": 59, "duration": 20, "velocity": 51}, {"time": 2553, "pitch": 64, "duration": 4, "velocity": 89}, {"time": 2559, "pitch": 68, "duration": 8, "velocity": 109}, {"time": 2559, "pitch": 71, "duration": 15, "velocity": 100}, {"time": 2565, "pitch": 64, "duration": 6, "velocity": 78}, {"time": 2571, "pitch": 50, "duration": 42, "velocity": 100}, {"time": 2577, "pitch": 57, "duration": 13, "velocity": 84}, {"time": 2583, "pitch": 62, "duration": 3, "velocity": 82}, {"time": 2583, "pitch": 69, "duration": 19, "velocity": 97}, {"time": 2589, "pitch": 62, "duration": 7, "velocity": 87}, {"time": 2595, "pitch": 57, "duration": 16, "velocity": 97}, {"time": 2601, "pitch": 62, "duration": 3, "velocity": 89}, {"time": 2607, "pitch": 62, "duration": 2, "velocity": 82}, {"time": 2607, "pitch": 66, "duration": 7, "velocity": 105}, {"time": 2607, "pitch": 69, "duration": 14, "velocity": 97}, {"time": 2613, "pitch": 62, "duration": 5, "velocity": 87}, {"time": 2619, "pitch": 45, "duration": 45, "velocity": 97}, {"time": 2625, "pitch": 52, "duration": 11, "velocity": 62}, {"time": 2631, "pitch": 61, "duration": 10, "velocity": 102}, {"time": 2631, "pitch": 64, "duration": 19, "velocity": 94}, {"time": 2637, "pitch": 57, "duration": 8, "velocity": 102}, {"time": 2643, "pitch": 52, "duration": 21, "velocity": 76}, {"time": 2649, "pitch": 57, "duration": 4, "velocity": 84}, {"time": 2655, "pitch": 57, "duration": 3, "velocity": 105}, {"time": 2655, "pitch": 61, "duration": 9, "velocity": 102}, {"time": 2655, "pitch": 64, "duration": 12, "velocity": 94}, {"time": 2661, "pitch": 57, "duration": 4, "velocity": 105}, {"time": 2667, "pitch": 47, "duration": 43, "velocity": 105}, {"time": 2673, "pitch": 57, "duration": 4, "velocity": 82}, {"time": 2679, "pitch": 57, "duration": 7, "velocity": 114}, {"time": 2679, "pitch": 62, "duration": 13, "velocity": 102}, {"time": 2685, "pitch": 54, "duration": 21, "velocity": 57}, {"time": 2691, "pitch": 57, "duration": 8, "velocity": 92}, {"time": 2697, "pitch": 62, "duration": 3, "velocity": 87}, {"time": 2703, "pitch": 57, "duration": 3, "velocity": 100}, {"time": 2703, "pitch": 62, "duration": 11, "velocity": 100}, {"time": 2703, "pitch": 66, "duration": 12, "velocity": 93}, {"time": 2709, "pitch": 57, "duration": 4, "velocity": 97}, {"time": 2715, "pitch": 52, "duration": 45, "velocity": 87}, {"time": 2721, "pitch": 59, "duration": 8, "velocity": 82}, {"time": 2727, "pitch": 62, "duration": 13, "velocity": 105}, {"time": 2727, "pitch": 68, "duration": 18, "velocity": 96}, {"time": 2733, "pitch": 59, "duration": 8, "velocity": 82}, {"time": 2739, "pitch": 56, "duration": 8, "velocity": 90}, {"time": 2745, "pitch": 59, "duration": 15, "velocity": 100}, {"time": 2751, "pitch": 64, "duration": 3, "velocity": 100}, {"time": 2751, "pitch": 68, "duration": 9, "velocity": 105}, {"time": 2751, "pitch": 71, "duration": 10, "velocity": 102}, {"time": 2757, "pitch": 64, "duration": 4, "velocity": 71}, {"time": 2763, "pitch": 45, "duration": 44, "velocity": 97}, {"time": 2763, "pitch": 57, "duration": 9, "velocity": 80}, {"time": 2763, "pitch": 61, "duration": 9, "velocity": 79}, {"time": 2763, "pitch": 64, "duration": 9, "velocity": 87}, {"time": 2769, "pitch": 52, "duration": 10, "velocity": 71}, {"time": 2775, "pitch": 61, "duration": 14, "velocity": 99}, {"time": 2775, "pitch": 64, "duration": 15, "velocity": 97}, {"time": 2781, "pitch": 57, "duration": 8, "velocity": 92}, {"time": 2787, "pitch": 52, "duration": 23, "velocity": 76}, {"time": 2793, "pitch": 57, "duration": 7, "velocity": 100}, {"time": 2799, "pitch": 61, "duration": 11, "velocity": 105}, {"time": 2799, "pitch": 64, "duration": 12, "velocity": 105}, {"time": 2805, "pitch": 57, "duration": 6, "velocity": 105}, {"time": 2811, "pitch": 44, "duration": 43, "velocity": 109}, {"time": 2817, "pitch": 52, "duration": 12, "velocity": 66}, {"time": 2817, "pitch": 64, "duration": 4, "velocity": 1}, {"time": 2823, "pitch": 56, "duration": 13, "velocity": 99}, {"time": 2823, "pitch": 59, "duration": 11, "velocity": 114}, {"time": 2823, "pitch": 64, "duration": 13, "velocity": 102}, {"time": 2835, "pitch": 52, "duration": 18, "velocity": 76}, {"time": 2841, "pitch": 56, "duration": 7, "velocity": 99}, {"time": 2847, "pitch": 59, "duration": 7, "velocity": 100}, {"time": 2847, "pitch": 64, "duration": 13, "velocity": 102}, {"time": 2853, "pitch": 56, "duration": 5, "velocity": 77}, {"time": 2859, "pitch": 42, "duration": 42, "velocity": 109}, {"time": 2865, "pitch": 49, "duration": 12, "velocity": 55}, {"time": 2871, "pitch": 57, "duration": 9, "velocity": 105}, {"time": 2871, "pitch": 61, "duration": 8, "velocity": 82}, {"time": 2877, "pitch": 54, "duration": 6, "velocity": 109}, {"time": 2883, "pitch": 49, "duration": 19, "velocity": 63}, {"time": 2889, "pitch": 54, "duration": 7, "velocity": 99}, {"time": 2895, "pitch": 57, "duration": 3, "velocity": 117}, {"time": 2895, "pitch": 61, "duration": 7, "velocity": 99}, {"time": 2895, "pitch": 66, "duration": 12, "velocity": 77}, {"time": 2901, "pitch": 54, "duration": 5, "velocity": 109}, {"time": 2901, "pitch": 57, "duration": 2, "velocity": 26}, {"time": 2907, "pitch": 52, "duration": 44, "velocity": 105}, {"time": 2913, "pitch": 59, "duration": 13, "velocity": 82}, {"time": 2919, "pitch": 64, "duration": 2, "velocity": 94}, {"time": 2919, "pitch": 68, "duration": 14, "velocity": 99}, {"time": 2919, "pitch": 71, "duration": 19, "velocity": 94}, {"time": 2925, "pitch": 64, "duration": 8, "velocity": 87}, {"time": 2931, "pitch": 59, "duration": 20, "velocity": 51}, {"time": 2937, "pitch": 64, "duration": 4, "velocity": 89}, {"time": 2943, "pitch": 68, "duration": 8, "velocity": 109}, {"time": 2943, "pitch": 71, "duration": 15, "velocity": 100}, {"time": 2949, "pitch": 64, "duration": 6, "velocity": 78}, {"time": 2955, "pitch": 50, "duration": 42, "velocity": 100}, {"time": 2961, "pitch": 57, "duration": 13, "velocity": 84}, {"time": 2967, "pitch": 62, "duration": 3, "velocity": 82}, {"time": 2967, "pitch": 69, "duration": 19, "velocity": 97}, {"time": 2973, "pitch": 62, "duration": 7, "velocity": 87}, {"time": 2979, "pitch": 57, "duration": 16, "velocity": 97}, {"time": 2985, "pitch": 62, "duration": 3, "velocity": 89}, {"time": 2991, "pitch": 62, "duration": 2, "velocity": 82}, {"time": 2991, "pitch": 66, "duration": 7, "velocity": 105}, {"time": 2991, "pitch": 69, "duration": 14, "velocity": 97}, {"time": 2997, "pitch": 62, "duration": 5, "velocity": 87}, {"time": 3003, "pitch": 45, "duration": 45, "velocity": 97}, {"time": 3009, "pitch": 52, "duration": 11, "velocity": 62}, {"time": 3015, "pitch": 61, "duration": 10, "velocity": 102}, {"time": 3015, "pitch": 64, "duration": 19, "velocity": 94}, {"time": 3021, "pitch": 57, "duration": 8, "velocity": 102}, {"time": 3027, "pitch": 52, "duration": 21, "velocity": 76}, {"time": 3033, "pitch": 57, "duration": 4, "velocity": 84}, {"time": 3039, "pitch": 57, "duration": 3, "velocity": 105}, {"time": 3039, "pitch": 61, "duration": 9, "velocity": 102}, {"time": 3039, "pitch": 64, "duration": 12, "velocity": 94}, {"time": 3045, "pitch": 57, "duration": 4, "velocity": 105}, {"time": 3051, "pitch": 47, "duration": 43, "velocity": 105}, {"time": 3057, "pitch": 57, "duration": 4, "velocity": 82}, {"time": 3063, "pitch": 57, "duration": 7, "velocity": 114}, {"time": 3063, "pitch": 62, "duration": 13, "velocity": 102}, {"time": 3069, "pitch": 54, "duration": 21, "velocity": 57}, {"time": 3075, "pitch": 57, "duration": 8, "velocity": 92}, {"time": 3081, "pitch": 62, "duration": 3, "velocity": 87}, {"time": 3087, "pitch": 57, "duration": 3, "velocity": 100}, {"time": 3087, "pitch": 62, "duration": 11, "velocity": 100}, {"time": 3087, "pitch": 66, "duration": 12, "velocity": 93}, {"time": 3093, "pitch": 57, "duration": 4, "velocity": 97}, {"time": 3099, "pitch": 40, "duration": 45, "velocity": 102}, {"time": 3099, "pitch": 52, "duration": 9, "velocity": 100}, {"time": 3099, "pitch": 56, "duration": 9, "velocity": 99}, {"time": 3105, "pitch": 47, "duration": 9, "velocity": 76}, {"time": 3111, "pitch": 56, "duration": 17, "velocity": 112}, {"time": 3111, "pitch": 59, "duration": 18, "velocity": 111}, {"time": 3117, "pitch": 52, "duration": 8, "velocity": 94}, {"time": 3123, "pitch": 47, "duration": 22, "velocity": 82}, {"time": 3129, "pitch": 52, "duration": 7, "velocity": 92}, {"time": 3135, "pitch": 56, "duration": 15, "velocity": 109}, {"time": 3135, "pitch": 59, "duration": 15, "velocity": 105}, {"time": 3141, "pitch": 52, "duration": 9, "velocity": 94}, {"time": 3147, "pitch": 40, "duration": 8, "velocity": 108}, {"time": 3153, "pitch": 47, "duration": 2, "velocity": 78}, {"time": 3153, "pitch": 52, "duration": 2, "velocity": 84}, {"time": 3153, "pitch": 56, "duration": 2, "velocity": 87}, {"time": 3153, "pitch": 59, "duration": 2, "velocity": 94}, {"time": 3159, "pitch": 40, "duration": 2, "velocity": 100}, {"time": 3159, "pitch": 47, "duration": 2, "velocity": 89}, {"time": 3159, "pitch": 52, "duration": 2, "velocity": 84}, {"time": 3159, "pitch": 56, "duration": 2, "velocity": 79}, {"time": 3159, "pitch": 59, "duration": 2, "velocity": 84}, {"time": 3165, "pitch": 40, "duration": 2, "velocity": 100}, {"time": 3165, "pitch": 47, "duration": 3, "velocity": 84}, {"time": 3165, "pitch": 52, "duration": 2, "velocity": 94}, {"time": 3165, "pitch": 56, "duration": 2, "velocity": 93}, {"time": 3165, "pitch": 59, "duration": 2, "velocity": 92}, {"time": 3171, "pitch": 40, "duration": 4, "velocity": 111}, {"time": 3171, "pitch": 47, "duration": 3, "velocity": 111}, {"time": 3171, "pitch": 52, "duration": 13, "velocity": 108}, {"time": 3171, "pitch": 56, "duration": 13, "velocity": 105}, {"time": 3171, "pitch": 59, "duration": 13, "velocity": 108}, {"time": 3174, "pitch": 40, "duration": 1, "velocity": 80}, {"time": 3183, "pitch": 47, "duration": 11, "velocity": 100}, {"time": 3186, "pitch": 56, "duration": 6, "velocity": 112}, {"time": 3189, "pitch": 52, "duration": 6, "velocity": 102}, {"time": 3189, "pitch": 59, "duration": 6, "velocity": 100}, {"time": 3195, "pitch": 45, "duration": 20, "velocity": 100}, {"time": 3195, "pitch": 57, "duration": 8, "velocity": 100}, {"time": 3195, "pitch": 61, "duration": 7, "velocity": 90}, {"time": 3201, "pitch": 52, "duration": 7, "velocity": 52}, {"time": 3207, "pitch": 57, "duration": 8, "velocity": 105}, {"time": 3207, "pitch": 61, "duration": 6, "velocity": 109}, {"time": 3207, "pitch": 64, "duration": 5, "velocity": 108}, {"time": 3219, "pitch": 52, "duration": 7, "velocity": 67}, {"time": 3225, "pitch": 57, "duration": 7, "velocity": 114}, {"time": 3225, "pitch": 61, "duration": 6, "velocity": 116}, {"time": 3225, "pitch": 64, "duration": 5, "velocity": 108}, {"time": 3225, "pitch": 69, "duration": 6, "velocity": 100}, {"time": 3231, "pitch": 45, "duration": 1, "velocity": 71}, {"time": 3237, "pitch": 57, "duration": 7, "velocity": 105}, {"time": 3237, "pitch": 61, "duration": 6, "velocity": 112}, {"time": 3237, "pitch": 64, "duration": 6, "velocity": 100}, {"time": 3243, "pitch": 44, "duration": 14, "velocity": 105}, {"time": 3249, "pitch": 52, "duration": 7, "velocity": 46}, {"time": 3255, "pitch": 56, "duration": 3, "velocity": 105}, {"time": 3255, "pitch": 59, "duration": 8, "velocity": 111}, {"time": 3255, "pitch": 64, "duration": 9, "velocity": 105}, {"time": 3261, "pitch": 56, "duration": 3, "velocity": 50}, {"time": 3267, "pitch": 52, "duration": 12, "velocity": 69}, {"time": 3273, "pitch": 56, "duration": 4, "velocity": 102}, {"time": 3273, "pitch": 59, "duration": 5, "velocity": 123}, {"time": 3273, "pitch": 64, "duration": 8, "velocity": 108}, {"time": 3285, "pitch": 56, "duration": 3, "velocity": 93}, {"time": 3285, "pitch": 59, "duration": 1, "velocity": 67}, {"time": 3285, "pitch": 64, "duration": 4, "velocity": 97}, {"time": 3291, "pitch": 42, "duration": 16, "velocity": 96}, {"time": 3291, "pitch": 54, "duration": 8, "velocity": 70}, {"time": 3291, "pitch": 57, "duration": 7, "velocity": 94}, {"time": 3291, "pitch": 61, "duration": 8, "velocity": 39}, {"time": 3303, "pitch": 54, "duration": 4, "velocity": 105}, {"time": 3303, "pitch": 57, "duration": 4, "velocity": 111}, {"time": 3303, "pitch": 61, "duration": 4, "velocity": 96}, {"time": 3315, "pitch": 49, "duration": 7, "velocity": 55}, {"time": 3321, "pitch": 54, "duration": 7, "velocity": 90}, {"time": 3321, "pitch": 57, "duration": 6, "velocity": 117}, {"time": 3321, "pitch": 61, "duration": 5, "velocity": 90}, {"time": 3321, "pitch": 66, "duration": 8, "velocity": 77}, {"time": 3333, "pitch": 54, "duration": 3, "velocity": 102}, {"time": 3333, "pitch": 57, "duration": 1, "velocity": 102}, {"time": 3333, "pitch": 66, "duration": 6, "velocity": 52}, {"time": 3339, "pitch": 52, "duration": 17, "velocity": 108}, {"time": 3345, "pitch": 59, "duration": 8, "velocity": 58}, {"time": 3351, "pitch": 62, "duration": 9, "velocity": 114}, {"time": 3351, "pitch": 68, "duration": 14, "velocity": 109}, {"time": 3357, "pitch": 59, "duration": 2, "velocity": 45}, {"time": 3363, "pitch": 52, "duration": 14, "velocity": 92}, {"time": 3363, "pitch": 59, "duration": 8, "velocity": 87}, {"time": 3369, "pitch": 64, "duration": 8, "velocity": 111}, {"time": 3369, "pitch": 68, "duration": 8, "velocity": 109}, {"time": 3369, "pitch": 71, "duration": 8, "velocity": 108}, {"time": 3375, "pitch": 59, "duration": 2, "velocity": 66}, {"time": 3381, "pitch": 64, "duration": 2, "velocity": 100}, {"time": 3381, "pitch": 68, "duration": 2, "velocity": 102}, {"time": 3381, "pitch": 71, "duration": 2, "velocity": 92}, {"time": 3387, "pitch": 50, "duration": 18, "velocity": 102}, {"time": 3387, "pitch": 62, "duration": 8, "velocity": 92}, {"time": 3387, "pitch": 66, "duration": 8, "velocity": 99}, {"time": 3393, "pitch": 57, "duration": 7, "velocity": 55}, {"time": 3399, "pitch": 62, "duration": 13, "velocity": 108}, {"time": 3399, "pitch": 66, "duration": 13, "velocity": 112}, {"time": 3399, "pitch": 69, "duration": 14, "velocity": 111}, {"time": 3405, "pitch": 57, "duration": 2, "velocity": 76}, {"time": 3411, "pitch": 50, "duration": 2, "velocity": 94}, {"time": 3417, "pitch": 50, "duration": 9, "velocity": 102}, {"time": 3417, "pitch": 57, "duration": 6, "velocity": 117}, {"time": 3417, "pitch": 62, "duration": 4, "velocity": 84}, {"time": 3417, "pitch": 66, "duration": 7, "velocity": 102}, {"time": 3417, "pitch": 69, "duration": 8, "velocity": 100}, {"time": 3429, "pitch": 62, "duration": 7, "velocity": 111}, {"time": 3429, "pitch": 66, "duration": 6, "velocity": 116}, {"time": 3429, "pitch": 69, "duration": 9, "velocity": 108}, {"time": 3435, "pitch": 45, "duration": 18, "velocity": 100}, {"time": 3441, "pitch": 52, "duration": 7, "velocity": 66}, {"time": 3447, "pitch": 57, "duration": 11, "velocity": 111}, {"time": 3447, "pitch": 61, "duration": 13, "velocity": 105}, {"time": 3447, "pitch": 64, "duration": 11, "velocity": 108}, {"time": 3459, "pitch": 45, "duration": 8, "velocity": 97}, {"time": 3465, "pitch": 57, "duration": 8, "velocity": 117}, {"time": 3465, "pitch": 61, "duration": 9, "velocity": 105}, {"time": 3465, "pitch": 64, "duration": 9, "velocity": 111}, {"time": 3471, "pitch": 52, "duration": 1, "velocity": 34}, {"time": 3477, "pitch": 45, "duration": 3, "velocity": 102}, {"time": 3477, "pitch": 57, "duration": 3, "velocity": 108}, {"time": 3483, "pitch": 47, "duration": 16, "velocity": 111}, {"time": 3483, "pitch": 59, "duration": 9, "velocity": 102}, {"time": 3483, "pitch": 62, "duration": 9, "velocity": 84}, {"time": 3495, "pitch": 59, "duration": 9, "velocity": 105}, {"time": 3495, "pitch": 62, "duration": 10, "velocity": 94}, {"time": 3495, "pitch": 66, "duration": 13, "velocity": 102}, {"time": 3501, "pitch": 54, "duration": 3, "velocity": 72}, {"time": 3507, "pitch": 47, "duration": 9, "velocity": 94}, {"time": 3513, "pitch": 54, "duration": 3, "velocity": 102}, {"time": 3513, "pitch": 59, "duration": 8, "velocity": 108}, {"time": 3513, "pitch": 62, "duration": 8, "velocity": 105}, {"time": 3513, "pitch": 66, "duration": 8, "velocity": 109}, {"time": 3519, "pitch": 47, "duration": 1, "velocity": 43}, {"time": 3525, "pitch": 47, "duration": 3, "velocity": 97}, {"time": 3525, "pitch": 59, "duration": 4, "velocity": 102}, {"time": 3525, "pitch": 62, "duration": 4, "velocity": 100}, {"time": 3531, "pitch": 52, "duration": 15, "velocity": 105}, {"time": 3537, "pitch": 59, "duration": 3, "velocity": 62}, {"time": 3537, "pitch": 64, "duration": 3, "velocity": 84}, {"time": 3543, "pitch": 59, "duration": 8, "velocity": 120}, {"time": 3543, "pitch": 64, "duration": 8, "velocity": 117}, {"time": 3549, "pitch": 52, "duration": 14, "velocity": 92}, {"time": 3555, "pitch": 59, "duration": 2, "velocity": 108}, {"time": 3555, "pitch": 64, "duration": 2, "velocity": 108}, {"time": 3555, "pitch": 68, "duration": 2, "velocity": 105}, {"time": 3561, "pitch": 59, "duration": 9, "velocity": 114}, {"time": 3561, "pitch": 64, "duration": 9, "velocity": 117}, {"time": 3561, "pitch": 68, "duration": 10, "velocity": 109}, {"time": 3567, "pitch": 52, "duration": 11, "velocity": 102}, {"time": 3573, "pitch": 59, "duration": 4, "velocity": 111}, {"time": 3573, "pitch": 64, "duration": 4, "velocity": 100}, {"time": 3579, "pitch": 45, "duration": 20, "velocity": 100}, {"time": 3579, "pitch": 57, "duration": 8, "velocity": 100}, {"time": 3579, "pitch": 61, "duration": 7, "velocity": 90}, {"time": 3585, "pitch": 52, "duration": 7, "velocity": 52}, {"time": 3591, "pitch": 57, "duration": 8, "velocity": 105}, {"time": 3591, "pitch": 61, "duration": 6, "velocity": 109}, {"time": 3591, "pitch": 64, "duration": 5, "velocity": 108}, {"time": 3603, "pitch": 52, "duration": 7, "velocity": 67}, {"time": 3609, "pitch": 57, "duration": 7, "velocity": 114}, {"time": 3609, "pitch": 61, "duration": 6, "velocity": 116}, {"time": 3609, "pitch": 64, "duration": 5, "velocity": 108}, {"time": 3609, "pitch": 69, "duration": 6, "velocity": 100}, {"time": 3615, "pitch": 45, "duration": 1, "velocity": 71}, {"time": 3621, "pitch": 57, "duration": 7, "velocity": 105}, {"time": 3621, "pitch": 61, "duration": 6, "velocity": 112}, {"time": 3621, "pitch": 64, "duration": 6, "velocity": 100}, {"time": 3627, "pitch": 44, "duration": 14, "velocity": 105}, {"time": 3633, "pitch": 52, "duration": 7, "velocity": 46}, {"time": 3639, "pitch": 56, "duration": 3, "velocity": 105}, {"time": 3639, "pitch": 59, "duration": 8, "velocity": 111}, {"time": 3639, "pitch": 64, "duration": 9, "velocity": 105}, {"time": 3645, "pitch": 56, "duration": 3, "velocity": 50}, {"time": 3651, "pitch": 52, "duration": 12, "velocity": 69}, {"time": 3657, "pitch": 56, "duration": 4, "velocity": 102}, {"time": 3657, "pitch": 59, "duration": 5, "velocity": 123}, {"time": 3657, "pitch": 64, "duration": 8, "velocity": 108}, {"time": 3669, "pitch": 56, "duration": 3, "velocity": 93}, {"time": 3669, "pitch": 59, "duration": 1, "velocity": 67}, {"time": 3669, "pitch": 64, "duration": 4, "velocity": 97}, {"time": 3675, "pitch": 42, "duration": 16, "velocity": 96}, {"time": 3675, "pitch": 54, "duration": 8, "velocity": 70}, {"time": 3675, "pitch": 57, "duration": 7, "velocity": 94}, {"time": 3675, "pitch": 61, "duration": 8, "velocity": 39}, {"time": 3687, "pitch": 54, "duration": 4, "velocity": 105}, {"time": 3687, "pitch": 57, "duration": 4, "velocity": 111}, {"time": 3687, "pitch": 61, "duration": 4, "velocity": 96}, {"time": 3699, "pitch": 49, "duration": 7, "velocity": 55}, {"time": 3705, "pitch": 54, "duration": 7, "velocity": 90}, {"time": 3705, "pitch": 57, "duration": 6, "velocity": 117}, {"time": 3705, "pitch": 61, "duration": 5, "velocity": 90}, {"time": 3705, "pitch": 66, "duration": 8, "velocity": 77}, {"time": 3717, "pitch": 54, "duration": 3, "velocity": 102}, {"time": 3717, "pitch": 57, "duration": 1, "velocity": 102}, {"time": 3717, "pitch": 66, "duration": 6, "velocity": 52}, {"time": 3723, "pitch": 52, "duration": 17, "velocity": 108}, {"time": 3729, "pitch": 59, "duration": 8, "velocity": 58}, {"time": 3735, "pitch": 62, "duration": 9, "velocity": 114}, {"time": 3735, "pitch": 68, "duration": 14, "velocity": 109}, {"time": 3741, "pitch": 59, "duration": 2, "velocity": 45}, {"time": 3747, "pitch": 52, "duration": 14, "velocity": 92}, {"time": 3747, "pitch": 59, "duration": 8, "velocity": 87}, {"time": 3753, "pitch": 64, "duration": 8, "velocity": 111}, {"time": 3753, "pitch": 68, "duration": 8, "velocity": 109}, {"time": 3753, "pitch": 71, "duration": 8, "velocity": 108}, {"time": 3759, "pitch": 59, "duration": 2, "velocity": 66}, {"time": 3765, "pitch": 64, "duration": 2, "velocity": 100}, {"time": 3765, "pitch": 68, "duration": 2, "velocity": 102}, {"time": 3765, "pitch": 71, "duration": 2, "velocity": 92}, {"time": 3771, "pitch": 50, "duration": 18, "velocity": 102}, {"time": 3771, "pitch": 62, "duration": 8, "velocity": 92}, {"time": 3771, "pitch": 66, "duration": 8, "velocity": 99}, {"time": 3777, "pitch": 57, "duration": 7, "velocity": 55}, {"time": 3783, "pitch": 62, "duration": 13, "velocity": 108}, {"time": 3783, "pitch": 66, "duration": 13, "velocity": 112}, {"time": 3783, "pitch": 69, "duration": 14, "velocity": 111}, {"time": 3789, "pitch": 57, "duration": 2, "velocity": 76}, {"time": 3795, "pitch": 50, "duration": 2, "velocity": 94}, {"time": 3801, "pitch": 50, "duration": 9, "velocity": 102}, {"time": 3801, "pitch": 57, "duration": 6, "velocity": 117}, {"time": 3801, "pitch": 62, "duration": 4, "velocity": 84}, {"time": 3801, "pitch": 66, "duration": 7, "velocity": 102}, {"time": 3801, "pitch": 69, "duration": 8, "velocity": 100}, {"time": 3813, "pitch": 62, "duration": 7, "velocity": 111}, {"time": 3813, "pitch": 66, "duration": 6, "velocity": 116}, {"time": 3813, "pitch": 69, "duration": 9, "velocity": 108}, {"time": 3819, "pitch": 45, "duration": 18, "velocity": 100}, {"time": 3825, "pitch": 52, "duration": 7, "velocity": 66}, {"time": 3831, "pitch": 57, "duration": 11, "velocity": 111}, {"time": 3831, "pitch": 61, "duration": 13, "velocity": 105}, {"time": 3831, "pitch": 64, "duration": 11, "velocity": 108}, {"time": 3843, "pitch": 45, "duration": 8, "velocity": 97}, {"time": 3849, "pitch": 57, "duration": 8, "velocity": 117}, {"time": 3849, "pitch": 61, "duration": 9, "velocity": 105}, {"time": 3849, "pitch": 64, "duration": 9, "velocity": 111}, {"time": 3855, "pitch": 52, "duration": 1, "velocity": 34}, {"time": 3861, "pitch": 45, "duration": 3, "velocity": 102}, {"time": 3861, "pitch": 57, "duration": 3, "velocity": 108}, {"time": 3867, "pitch": 47, "duration": 20, "velocity": 100}, {"time": 3867, "pitch": 59, "duration": 8, "velocity": 97}, {"time": 3867, "pitch": 62, "duration": 8, "velocity": 92}, {"time": 3867, "pitch": 66, "duration": 9, "velocity": 96}, {"time": 3879, "pitch": 59, "duration": 3, "velocity": 111}, {"time": 3879, "pitch": 62, "duration": 7, "velocity": 117}, {"time": 3879, "pitch": 66, "duration": 7, "velocity": 112}, {"time": 3885, "pitch": 59, "duration": 9, "velocity": 111}, {"time": 3891, "pitch": 52, "duration": 15, "velocity": 108}, {"time": 3897, "pitch": 59, "duration": 7, "velocity": 114}, {"time": 3897, "pitch": 64, "duration": 7, "velocity": 111}, {"time": 3897, "pitch": 68, "duration": 7, "velocity": 105}, {"time": 3909, "pitch": 59, "duration": 2, "velocity": 111}, {"time": 3909, "pitch": 64, "duration": 2, "velocity": 97}, {"time": 3915, "pitch": 45, "duration": 48, "velocity": 97}, {"time": 3915, "pitch": 57, "duration": 6, "velocity": 80}, {"time": 3915, "pitch": 61, "duration": 6, "velocity": 93}, {"time": 3921, "pitch": 52, "duration": 8, "velocity": 48}, {"time": 3927, "pitch": 57, "duration": 3, "velocity": 111}, {"time": 3927, "pitch": 61, "duration": 6, "velocity": 112}, {"time": 3927, "pitch": 64, "duration": 10, "velocity": 108}, {"time": 3933, "pitch": 57, "duration": 4, "velocity": 100}, {"time": 3939, "pitch": 52, "duration": 8, "velocity": 89}, {"time": 3945, "pitch": 57, "duration": 8, "velocity": 105}, {"time": 3945, "pitch": 61, "duration": 8, "velocity": 109}, {"time": 3945, "pitch": 64, "duration": 8, "velocity": 97}, {"time": 3945, "pitch": 69, "duration": 7, "velocity": 87}, {"time": 3951, "pitch": 52, "duration": 12, "velocity": 92}, {"time": 3957, "pitch": 57, "duration": 5, "velocity": 105}, {"time": 3957, "pitch": 61, "duration": 6, "velocity": 109}, {"time": 3957, "pitch": 64, "duration": 6, "velocity": 100}, {"time": 3963, "pitch": 42, "duration": 4, "velocity": 93}, {"time": 3963, "pitch": 54, "duration": 4, "velocity": 68}, {"time": 3963, "pitch": 58, "duration": 2, "velocity": 63}, {"time": 3963, "pitch": 61, "duration": 1, "velocity": 52}, {"time": 3969, "pitch": 42, "duration": 3, "velocity": 70}, {"time": 3969, "pitch": 54, "duration": 3, "velocity": 38}, {"time": 3969, "pitch": 58, "duration": 2, "velocity": 63}, {"time": 3969, "pitch": 61, "duration": 3, "velocity": 54}, {"time": 3975, "pitch": 42, "duration": 3, "velocity": 82}, {"time": 3975, "pitch": 54, "duration": 3, "velocity": 59}, {"time": 3975, "pitch": 58, "duration": 2, "velocity": 32}, {"time": 3975, "pitch": 61, "duration": 3, "velocity": 57}, {"time": 3981, "pitch": 42, "duration": 3, "velocity": 102}, {"time": 3981, "pitch": 54, "duration": 3, "velocity": 85}, {"time": 3981, "pitch": 58, "duration": 2, "velocity": 36}, {"time": 3981, "pitch": 61, "duration": 3, "velocity": 57}, {"time": 3987, "pitch": 42, "duration": 3, "velocity": 96}, {"time": 3987, "pitch": 54, "duration": 3, "velocity": 87}, {"time": 3987, "pitch": 58, "duration": 2, "velocity": 41}, {"time": 3987, "pitch": 61, "duration": 3, "velocity": 85}, {"time": 3993, "pitch": 42, "duration": 3, "velocity": 99}, {"time": 3993, "pitch": 54, "duration": 3, "velocity": 96}, {"time": 3993, "pitch": 58, "duration": 3, "velocity": 48}, {"time": 3993, "pitch": 61, "duration": 3, "velocity": 90}, {"time": 3999, "pitch": 42, "duration": 3, "velocity": 105}, {"time": 3999, "pitch": 54, "duration": 3, "velocity": 102}, {"time": 3999, "pitch": 58, "duration": 2, "velocity": 93}, {"time": 3999, "pitch": 61, "duration": 3, "velocity": 90}, {"time": 4005, "pitch": 42, "duration": 5, "velocity": 109}, {"time": 4005, "pitch": 54, "duration": 5, "velocity": 96}, {"time": 4005, "pitch": 58, "duration": 5, "velocity": 93}, {"time": 4005, "pitch": 61, "duration": 6, "velocity": 93}, {"time": 4011, "pitch": 47, "duration": 20, "velocity": 100}, {"time": 4011, "pitch": 59, "duration": 8, "velocity": 100}, {"time": 4011, "pitch": 63, "duration": 7, "velocity": 90}, {"time": 4017, "pitch": 54, "duration": 7, "velocity": 52}, {"time": 4023, "pitch": 59, "duration": 8, "velocity": 105}, {"time": 4023, "pitch": 63, "duration": 6, "velocity": 109}, {"time": 4023, "pitch": 66, "duration": 5, "velocity": 108}, {"time": 4035, "pitch": 54, "duration": 7, "velocity": 67}, {"time": 4041, "pitch": 59, "duration": 7, "velocity": 114}, {"time": 4041, "pitch": 63, "duration": 6, "velocity": 116}, {"time": 4041, "pitch": 66, "duration": 5, "velocity": 108}, {"time": 4041, "pitch": 71, "duration": 6, "velocity": 100}, {"time": 4047, "pitch": 47, "duration": 1, "velocity": 71}, {"time": 4053, "pitch": 59, "duration": 7, "velocity": 105}, {"time": 4053, "pitch": 63, "duration": 6, "velocity": 112}, {"time": 4053, "pitch": 66, "duration": 6, "velocity": 100}, {"time": 4059, "pitch": 46, "duration": 14, "velocity": 105}, {"time": 4065, "pitch": 54, "duration": 7, "velocity": 46}, {"time": 4071, "pitch": 58, "duration": 3, "velocity": 105}, {"time": 4071, "pitch": 61, "duration": 8, "velocity": 111}, {"time": 4071, "pitch": 66, "duration": 9, "velocity": 105}, {"time": 4077, "pitch": 58, "duration": 3, "velocity": 50}, {"time": 4083, "pitch": 54, "duration": 12, "velocity": 69}, {"time": 4089, "pitch": 58, "duration": 4, "velocity": 102}, {"time": 4089, "pitch": 61, "duration": 5, "velocity": 123}, {"time": 4089, "pitch": 66, "duration": 8, "velocity": 108}, {"time": 4101, "pitch": 58, "duration": 3, "velocity": 93}, {"time": 4101, "pitch": 61, "duration": 1, "velocity": 67}, {"time": 4101, "pitch": 66, "duration": 4, "velocity": 97}, {"time": 4107, "pitch": 44, "duration": 16, "velocity": 96}, {"time": 4107, "pitch": 56, "duration": 8, "velocity": 70}, {"time": 4107, "pitch": 59, "duration": 7, "velocity": 94}, {"time": 4107, "pitch": 63, "duration": 8, "velocity": 39}, {"time": 4119, "pitch": 56, "duration": 4, "velocity": 105}, {"time": 4119, "pitch": 59, "duration": 4, "velocity": 111}, {"time": 4119, "pitch": 63, "duration": 4, "velocity": 96}, {"time": 4131, "pitch": 51, "duration": 7, "velocity": 55}, {"time": 4137, "pitch": 56, "duration": 7, "velocity": 90}, {"time": 4137, "pitch": 59, "duration": 6, "velocity": 117}, {"time": 4137, "pitch": 63, "duration": 5, "velocity": 90}, {"time": 4137, "pitch": 68, "duration": 8, "velocity": 77}, {"time": 4149, "pitch": 56, "duration": 3, "velocity": 102}, {"time": 4149, "pitch": 59, "duration": 1, "velocity": 102}, {"time": 4149, "pitch": 68, "duration": 6, "velocity": 52}, {"time": 4155, "pitch": 54, "duration": 17, "velocity": 108}, {"time": 4161, "pitch": 61, "duration": 8, "velocity": 58}, {"time": 4167, "pitch": 64, "duration": 9, "velocity": 114}, {"time": 4167, "pitch": 70, "duration": 14, "velocity": 109}, {"time": 4173, "pitch": 61, "duration": 2, "velocity": 45}, {"time": 4179, "pitch": 54, "duration": 14, "velocity": 92}, {"time": 4179, "pitch": 61, "duration": 8, "velocity": 87}, {"time": 4185, "pitch": 66, "duration": 8, "velocity": 111}, {"time": 4185, "pitch": 70, "duration": 8, "velocity": 109}, {"time": 4185, "pitch": 73, "duration": 8, "velocity": 108}, {"time": 4191, "pitch": 61, "duration": 2, "velocity": 66}, {"time": 4197, "pitch": 66, "duration": 2, "velocity": 100}, {"time": 4197, "pitch": 70, "duration": 2, "velocity": 102}, {"time": 4197, "pitch": 73, "duration": 2, "velocity": 92}, {"time": 4203, "pitch": 52, "duration": 18, "velocity": 102}, {"time": 4203, "pitch": 64, "duration": 8, "velocity": 92}, {"time": 4203, "pitch": 68, "duration": 8, "velocity": 99}, {"time": 4209, "pitch": 59, "duration": 7, "velocity": 55}, {"time": 4215, "pitch": 64, "duration": 13, "velocity": 108}, {"time": 4215, "pitch": 68, "duration": 13, "velocity": 112}, {"time": 4215, "pitch": 71, "duration": 14, "velocity": 111}, {"time": 4221, "pitch": 59, "duration": 2, "velocity": 76}, {"time": 4227, "pitch": 52, "duration": 2, "velocity": 94}, {"time": 4233, "pitch": 52, "duration": 9, "velocity": 102}, {"time": 4233, "pitch": 59, "duration": 6, "velocity": 117}, {"time": 4233, "pitch": 64, "duration": 4, "velocity": 84}, {"time": 4233, "pitch": 68, "duration": 7, "velocity": 102}, {"time": 4233, "pitch": 71, "duration": 8, "velocity": 100}, {"time": 4245, "pitch": 64, "duration": 7, "velocity": 111}, {"time": 4245, "pitch": 68, "duration": 6, "velocity": 116}, {"time": 4245, "pitch": 71, "duration": 9, "velocity": 108}, {"time": 4251, "pitch": 47, "duration": 18, "velocity": 100}, {"time": 4257, "pitch": 54, "duration": 7, "velocity": 66}, {"time": 4263, "pitch": 59, "duration": 11, "velocity": 111}, {"time": 4263, "pitch": 63, "duration": 13, "velocity": 105}, {"time": 4263, "pitch": 66, "duration": 11, "velocity": 108}, {"time": 4275, "pitch": 47, "duration": 8, "velocity": 97}, {"time": 4281, "pitch": 59, "duration": 8, "velocity": 117}, {"time": 4281, "pitch": 63, "duration": 9, "velocity": 105}, {"time": 4281, "pitch": 66, "duration": 9, "velocity": 111}, {"time": 4287, "pitch": 54, "duration": 1, "velocity": 34}, {"time": 4293, "pitch": 47, "duration": 3, "velocity": 102}, {"time": 4293, "pitch": 59, "duration": 3, "velocity": 108}, {"time": 4299, "pitch": 49, "duration": 16, "velocity": 111}, {"time": 4299, "pitch": 61, "duration": 9, "velocity": 102}, {"time": 4299, "pitch": 64, "duration": 9, "velocity": 84}, {"time": 4311, "pitch": 61, "duration": 9, "velocity": 105}, {"time": 4311, "pitch": 64, "duration": 10, "velocity": 94}, {"time": 4311, "pitch": 68, "duration": 13, "velocity": 102}, {"time": 4317, "pitch": 56, "duration": 3, "velocity": 72}, {"time": 4323, "pitch": 49, "duration": 9, "velocity": 94}, {"time": 4329, "pitch": 56, "duration": 3, "velocity": 102}, {"time": 4329, "pitch": 61, "duration": 8, "velocity": 108}, {"time": 4329, "pitch": 64, "duration": 8, "velocity": 105}, {"time": 4329, "pitch": 68, "duration": 8, "velocity": 109}, {"time": 4335, "pitch": 49, "duration": 1, "velocity": 43}, {"time": 4341, "pitch": 49, "duration": 3, "velocity": 97}, {"time": 4341, "pitch": 61, "duration": 4, "velocity": 102}, {"time": 4341, "pitch": 64, "duration": 4, "velocity": 100}, {"time": 4347, "pitch": 54, "duration": 15, "velocity": 105}, {"time": 4353, "pitch": 61, "duration": 3, "velocity": 62}, {"time": 4353, "pitch": 66, "duration": 3, "velocity": 84}, {"time": 4359, "pitch": 61, "duration": 8, "velocity": 120}, {"time": 4359, "pitch": 66, "duration": 8, "velocity": 117}, {"time": 4365, "pitch": 54, "duration": 14, "velocity": 92}, {"time": 4371, "pitch": 61, "duration": 2, "velocity": 108}, {"time": 4371, "pitch": 66, "duration": 2, "velocity": 108}, {"time": 4371, "pitch": 70, "duration": 2, "velocity": 105}, {"time": 4377, "pitch": 61, "duration": 9, "velocity": 114}, {"time": 4377, "pitch": 66, "duration": 9, "velocity": 117}, {"time": 4377, "pitch": 70, "duration": 10, "velocity": 109}, {"time": 4383, "pitch": 54, "duration": 11, "velocity": 102}, {"time": 4389, "pitch": 61, "duration": 4, "velocity": 111}, {"time": 4389, "pitch": 66, "duration": 4, "velocity": 100}, {"time": 4395, "pitch": 47, "duration": 20, "velocity": 100}, {"time": 4395, "pitch": 59, "duration": 8, "velocity": 100}, {"time": 4395, "pitch": 63, "duration": 7, "velocity": 90}, {"time": 4401, "pitch": 54, "duration": 7, "velocity": 52}, {"time": 4407, "pitch": 59, "duration": 8, "velocity": 105}, {"time": 4407, "pitch": 63, "duration": 6, "velocity": 109}, {"time": 4407, "pitch": 66, "duration": 5, "velocity": 108}, {"time": 4419, "pitch": 54, "duration": 7, "velocity": 67}, {"time": 4425, "pitch": 59, "duration": 7, "velocity": 114}, {"time": 4425, "pitch": 63, "duration": 6, "velocity": 116}, {"time": 4425, "pitch": 66, "duration": 5, "velocity": 108}, {"time": 4425, "pitch": 71, "duration": 6, "velocity": 100}, {"time": 4431, "pitch": 47, "duration": 1, "velocity": 71}, {"time": 4437, "pitch": 59, "duration": 7, "velocity": 105}, {"time": 4437, "pitch": 63, "duration": 6, "velocity": 112}, {"time": 4437, "pitch": 66, "duration": 6, "velocity": 100}, {"time": 4443, "pitch": 46, "duration": 14, "velocity": 105}, {"time": 4449, "pitch": 54, "duration": 7, "velocity": 46}, {"time": 4455, "pitch": 58, "duration": 3, "velocity": 105}, {"time": 4455, "pitch": 61, "duration": 8, "velocity": 111}, {"time": 4455, "pitch": 66, "duration": 9, "velocity": 105}, {"time": 4461, "pitch": 58, "duration": 3, "velocity": 50}, {"time": 4467, "pitch": 54, "duration": 12, "velocity": 69}, {"time": 4473, "pitch": 58, "duration": 4, "velocity": 102}, {"time": 4473, "pitch": 61, "duration": 5, "velocity": 123}, {"time": 4473, "pitch": 66, "duration": 8, "velocity": 108}, {"time": 4485, "pitch": 58, "duration": 3, "velocity": 93}, {"time": 4485, "pitch": 61, "duration": 1, "velocity": 67}, {"time": 4485, "pitch": 66, "duration": 4, "velocity": 97}, {"time": 4491, "pitch": 44, "duration": 16, "velocity": 96}, {"time": 4491, "pitch": 56, "duration": 8, "velocity": 70}, {"time": 4491, "pitch": 59, "duration": 7, "velocity": 94}, {"time": 4491, "pitch": 63, "duration": 8, "velocity": 39}, {"time": 4503, "pitch": 56, "duration": 4, "velocity": 105}, {"time": 4503, "pitch": 59, "duration": 4, "velocity": 111}, {"time": 4503, "pitch": 63, "duration": 4, "velocity": 96}, {"time": 4515, "pitch": 51, "duration": 7, "velocity": 55}, {"time": 4521, "pitch": 56, "duration": 7, "velocity": 90}, {"time": 4521, "pitch": 59, "duration": 6, "velocity": 117}, {"time": 4521, "pitch": 63, "duration": 5, "velocity": 90}, {"time": 4521, "pitch": 68, "duration": 8, "velocity": 77}, {"time": 4533, "pitch": 56, "duration": 3, "velocity": 102}, {"time": 4533, "pitch": 59, "duration": 1, "velocity": 102}, {"time": 4533, "pitch": 68, "duration": 6, "velocity": 52}, {"time": 4539, "pitch": 54, "duration": 17, "velocity": 108}, {"time": 4545, "pitch": 61, "duration": 8, "velocity": 58}, {"time": 4551, "pitch": 64, "duration": 9, "velocity": 114}, {"time": 4551, "pitch": 70, "duration": 14, "velocity": 109}, {"time": 4557, "pitch": 61, "duration": 2, "velocity": 45}, {"time": 4563, "pitch": 54, "duration": 14, "velocity": 92}, {"time": 4563, "pitch": 61, "duration": 8, "velocity": 87}, {"time": 4569, "pitch": 66, "duration": 8, "velocity": 111}, {"time": 4569, "pitch": 70, "duration": 8, "velocity": 109}, {"time": 4569, "pitch": 73, "duration": 8, "velocity": 108}, {"time": 4575, "pitch": 61, "duration": 2, "velocity": 66}, {"time": 4581, "pitch": 66, "duration": 2, "velocity": 100}, {"time": 4581, "pitch": 70, "duration": 2, "velocity": 102}, {"time": 4581, "pitch": 73, "duration": 2, "velocity": 92}, {"time": 4587, "pitch": 52, "duration": 18, "velocity": 102}, {"time": 4587, "pitch": 64, "duration": 8, "velocity": 92}, {"time": 4587, "pitch": 68, "duration": 8, "velocity": 99}, {"time": 4593, "pitch": 59, "duration": 7, "velocity": 55}, {"time": 4599, "pitch": 64, "duration": 13, "velocity": 108}, {"time": 4599, "pitch": 68, "duration": 13, "velocity": 112}, {"time": 4599, "pitch": 71, "duration": 14, "velocity": 111}, {"time": 4605, "pitch": 59, "duration": 2, "velocity": 76}, {"time": 4611, "pitch": 52, "duration": 2, "velocity": 94}, {"time": 4617, "pitch": 52, "duration": 9, "velocity": 102}, {"time": 4617, "pitch": 59, "duration": 6, "velocity": 117}, {"time": 4617, "pitch": 64, "duration": 4, "velocity": 84}, {"time": 4617, "pitch": 68, "duration": 7, "velocity": 102}, {"time": 4617, "pitch": 71, "duration": 8, "velocity": 100}, {"time": 4629, "pitch": 64, "duration": 7, "velocity": 111}, {"time": 4629, "pitch": 68, "duration": 6, "velocity": 116}, {"time": 4629, "pitch": 71, "duration": 9, "velocity": 108}, {"time": 4635, "pitch": 47, "duration": 18, "velocity": 100}, {"time": 4641, "pitch": 54, "duration": 7, "velocity": 66}, {"time": 4647, "pitch": 59, "duration": 11, "velocity": 111}, {"time": 4647, "pitch": 63, "duration": 13, "velocity": 105}, {"time": 4647, "pitch": 66, "duration": 11, "velocity": 108}, {"time": 4659, "pitch": 47, "duration": 8, "velocity": 97}, {"time": 4665, "pitch": 59, "duration": 8, "velocity": 117}, {"time": 4665, "pitch": 63, "duration": 9, "velocity": 105}, {"time": 4665, "pitch": 66, "duration": 9, "velocity": 111}, {"time": 4671, "pitch": 54, "duration": 1, "velocity": 34}, {"time": 4677, "pitch": 47, "duration": 3, "velocity": 102}, {"time": 4677, "pitch": 59, "duration": 3, "velocity": 108}, {"time": 4683, "pitch": 49, "duration": 20, "velocity": 100}, {"time": 4683, "pitch": 61, "duration": 8, "velocity": 97}, {"time": 4683, "pitch": 64, "duration": 8, "velocity": 92}, {"time": 4683, "pitch": 68, "duration": 9, "velocity": 96}, {"time": 4695, "pitch": 61, "duration": 3, "velocity": 111}, {"time": 4695, "pitch": 64, "duration": 7, "velocity": 117}, {"time": 4695, "pitch": 68, "duration": 7, "velocity": 112}, {"time": 4701, "pitch": 61, "duration": 9, "velocity": 111}, {"time": 4707, "pitch": 54, "duration": 15, "velocity": 108}, {"time": 4713, "pitch": 61, "duration": 7, "velocity": 114}, {"time": 4713, "pitch": 66, "duration": 7, "velocity": 111}, {"time": 4713, "pitch": 70, "duration": 7, "velocity": 105}, {"time": 4725, "pitch": 61, "duration": 2, "velocity": 111}, {"time": 4725, "pitch": 66, "duration": 2, "velocity": 97}, {"time": 4731, "pitch": 47, "duration": 48, "velocity": 97}, {"time": 4731, "pitch": 59, "duration": 6, "velocity": 80}, {"time": 4731, "pitch": 63, "duration": 6, "velocity": 93}, {"time": 4737, "pitch": 54, "duration": 8, "velocity": 48}, {"time": 4743, "pitch": 59, "duration": 3, "velocity": 111}, {"time": 4743, "pitch": 63, "duration": 6, "velocity": 112}, {"time": 4743, "pitch": 66, "duration": 10, "velocity": 108}, {"time": 4749, "pitch": 59, "duration": 4, "velocity": 100}, {"time": 4755, "pitch": 54, "duration": 8, "velocity": 89}, {"time": 4761, "pitch": 59, "duration": 8, "velocity": 105}, {"time": 4761, "pitch": 63, "duration": 8, "velocity": 109}, {"time": 4761, "pitch": 66, "duration": 8, "velocity": 97}, {"time": 4761, "pitch": 71, "duration": 7, "velocity": 87}, {"time": 4767, "pitch": 54, "duration": 12, "velocity": 92}, {"time": 4773, "pitch": 59, "duration": 5, "velocity": 105}, {"time": 4773, "pitch": 63, "duration": 6, "velocity": 109}, {"time": 4773, "pitch": 66, "duration": 6, "velocity": 100}, {"time": 4776, "pitch": 66, "duration": 3, "velocity": 89}, {"time": 4779, "pitch": 54, "duration": 1, "velocity": 102}, {"time": 4779, "pitch": 70, "duration": 9, "velocity": 109}, {"time": 4801, "pitch": 56, "duration": 70, "velocity": 59}, {"time": 4804, "pitch": 60, "duration": 67, "velocity": 70}, {"time": 4804, "pitch": 44, "duration": 67, "velocity": 79}, {"time": 4806, "pitch": 63, "duration": 65, "velocity": 82}, {"time": 4808, "pitch": 68, "duration": 64, "velocity": 74}, {"time": 4875, "pitch": 47, "duration": 44, "velocity": 97}, {"time": 4875, "pitch": 59, "duration": 9, "velocity": 80}, {"time": 4875, "pitch": 63, "duration": 9, "velocity": 79}, {"time": 4875, "pitch": 66, "duration": 9, "velocity": 87}, {"time": 4881, "pitch": 54, "duration": 10, "velocity": 71}, {"time": 4887, "pitch": 63, "duration": 14, "velocity": 99}, {"time": 4887, "pitch": 66, "duration": 15, "velocity": 97}, {"time": 4893, "pitch": 59, "duration": 8, "velocity": 92}, {"time": 4899, "pitch": 54, "duration": 23, "velocity": 76}, {"time": 4905, "pitch": 59, "duration": 7, "velocity": 100}, {"time": 4911, "pitch": 63, "duration": 11, "velocity": 105}, {"time": 4911, "pitch": 66, "duration": 12, "velocity": 105}, {"time": 4917, "pitch": 59, "duration": 6, "velocity": 105}, {"time": 4923, "pitch": 46, "duration": 43, "velocity": 109}, {"time": 4929, "pitch": 54, "duration": 12, "velocity": 66}, {"time": 4929, "pitch": 66, "duration": 4, "velocity": 1}, {"time": 4935, "pitch": 58, "duration": 13, "velocity": 99}, {"time": 4935, "pitch": 61, "duration": 11, "velocity": 114}, {"time": 4935, "pitch": 66, "duration": 13, "velocity": 102}, {"time": 4947, "pitch": 54, "duration": 18, "velocity": 76}, {"time": 4953, "pitch": 58, "duration": 7, "velocity": 99}, {"time": 4959, "pitch": 61, "duration": 7, "velocity": 100}, {"time": 4959, "pitch": 66, "duration": 13, "velocity": 102}, {"time": 4965, "pitch": 58, "duration": 5, "velocity": 77}, {"time": 4971, "pitch": 44, "duration": 42, "velocity": 109}, {"time": 4977, "pitch": 51, "duration": 12, "velocity": 55}, {"time": 4983, "pitch": 59, "duration": 9, "velocity": 105}, {"time": 4983, "pitch": 63, "duration": 8, "velocity": 82}, {"time": 4989, "pitch": 56, "duration": 6, "velocity": 109}, {"time": 4995, "pitch": 51, "duration": 19, "velocity": 63}, {"time": 5001, "pitch": 56, "duration": 7, "velocity": 99}, {"time": 5007, "pitch": 59, "duration": 3, "velocity": 117}, {"time": 5007, "pitch": 63, "duration": 7, "velocity": 99}, {"time": 5007, "pitch": 68, "duration": 12, "velocity": 77}, {"time": 5013, "pitch": 56, "duration": 5, "velocity": 109}, {"time": 5013, "pitch": 59, "duration": 2, "velocity": 26}, {"time": 5019, "pitch": 54, "duration": 44, "velocity": 105}, {"time": 5025, "pitch": 61, "duration": 13, "velocity": 82}, {"time": 5031, "pitch": 66, "duration": 2, "velocity": 94}, {"time": 5031, "pitch": 70, "duration": 14, "velocity": 99}, {"time": 5031, "pitch": 73, "duration": 19, "velocity": 94}, {"time": 5037, "pitch": 66, "duration": 8, "velocity": 87}, {"time": 5043, "pitch": 61, "duration": 20, "velocity": 51}, {"time": 5049, "pitch": 66, "duration": 4, "velocity": 89}, {"time": 5055, "pitch": 70, "duration": 8, "velocity": 109}, {"time": 5055, "pitch": 73, "duration": 15, "velocity": 100}, {"time": 5061, "pitch": 66, "duration": 6, "velocity": 78}, {"time": 5067, "pitch": 52, "duration": 42, "velocity": 100}, {"time": 5073, "pitch": 59, "duration": 13, "velocity": 84}, {"time": 5079, "pitch": 64, "duration": 3, "velocity": 82}, {"time": 5079, "pitch": 71, "duration": 19, "velocity": 97}, {"time": 5085, "pitch": 64, "duration": 7, "velocity": 87}, {"time": 5091, "pitch": 59, "duration": 16, "velocity": 97}, {"time": 5097, "pitch": 64, "duration": 3, "velocity": 89}, {"time": 5103, "pitch": 64, "duration": 2, "velocity": 82}, {"time": 5103, "pitch": 68, "duration": 7, "velocity": 105}, {"time": 5103, "pitch": 71, "duration": 14, "velocity": 97}, {"time": 5109, "pitch": 64, "duration": 5, "velocity": 87}, {"time": 5115, "pitch": 47, "duration": 45, "velocity": 97}, {"time": 5121, "pitch": 54, "duration": 11, "velocity": 62}, {"time": 5127, "pitch": 63, "duration": 10, "velocity": 102}, {"time": 5127, "pitch": 66, "duration": 19, "velocity": 94}, {"time": 5133, "pitch": 59, "duration": 8, "velocity": 102}, {"time": 5139, "pitch": 54, "duration": 21, "velocity": 76}, {"time": 5145, "pitch": 59, "duration": 4, "velocity": 84}, {"time": 5151, "pitch": 59, "duration": 3, "velocity": 105}, {"time": 5151, "pitch": 63, "duration": 9, "velocity": 102}, {"time": 5151, "pitch": 66, "duration": 12, "velocity": 94}, {"time": 5157, "pitch": 59, "duration": 4, "velocity": 105}, {"time": 5163, "pitch": 49, "duration": 43, "velocity": 105}, {"time": 5169, "pitch": 59, "duration": 4, "velocity": 82}, {"time": 5175, "pitch": 59, "duration": 7, "velocity": 114}, {"time": 5175, "pitch": 64, "duration": 13, "velocity": 102}, {"time": 5181, "pitch": 56, "duration": 21, "velocity": 57}, {"time": 5187, "pitch": 59, "duration": 8, "velocity": 92}, {"time": 5193, "pitch": 64, "duration": 3, "velocity": 87}, {"time": 5199, "pitch": 59, "duration": 3, "velocity": 100}, {"time": 5199, "pitch": 64, "duration": 11, "velocity": 100}, {"time": 5199, "pitch": 68, "duration": 12, "velocity": 93}, {"time": 5205, "pitch": 59, "duration": 4, "velocity": 97}, {"time": 5211, "pitch": 54, "duration": 45, "velocity": 87}, {"time": 5217, "pitch": 61, "duration": 8, "velocity": 82}, {"time": 5223, "pitch": 64, "duration": 13, "velocity": 105}, {"time": 5223, "pitch": 70, "duration": 18, "velocity": 96}, {"time": 5229, "pitch": 61, "duration": 8, "velocity": 82}, {"time": 5235, "pitch": 58, "duration": 8, "velocity": 90}, {"time": 5241, "pitch": 61, "duration": 15, "velocity": 100}, {"time": 5247, "pitch": 66, "duration": 3, "velocity": 100}, {"time": 5247, "pitch": 70, "duration": 9, "velocity": 105}, {"time": 5247, "pitch": 73, "duration": 10, "velocity": 102}, {"time": 5253, "pitch": 66, "duration": 4, "velocity": 71}, {"time": 5257, "pitch": 59, "duration": 108, "velocity": 84}, {"time": 5258, "pitch": 63, "duration": 107, "velocity": 99}, {"time": 5259, "pitch": 47, "duration": 106, "velocity": 97}, {"time": 5259, "pitch": 66, "duration": 106, "velocity": 63}, {"time": 5262, "pitch": 71, "duration": 103, "velocity": 94}], "annotations": [{"time": 1228, "annotation": {"number": 64, "value": 127}, "group": "control_change"}, {"time": 1274, "annotation": {"number": 64, "value": 0}, "group": "control_change"}, {"time": 1276, "annotation": {"number": 64, "value": 127}, "group": "control_change"}, {"time": 1322, "annotation": {"number": 64, "value": 0}, "group": "control_change"}, {"time": 1324, "annotation": {"number": 64, "value": 127}, "group": "control_change"}, {"time": 1371, "annotation": {"number": 64, "value": 0}, "group": "control_change"}, {"time": 1372, "annotation": {"number": 64, "value": 127}, "group": "control_change"}, {"time": 1418, "annotation": {"number": 64, "value": 0}, "group": "control_change"}, {"time": 1421, "annotation": {"number": 64, "value": 127}, "group": "control_change"}, {"time": 1466, "annotation": {"number": 64, "value": 0}, "group": "control_change"}, {"time": 1471, "annotation": {"number": 64, "value": 127}, "group": "control_change"}, {"time": 1512, "annotation": {"number": 64, "value": 0}, "group": "control_change"}, {"time": 1519, "annotation": {"number": 64, "value": 127}, "group": "control_change"}, {"time": 1561, "annotation": {"number": 64, "value": 0}, "group": "control_change"}, {"time": 1563, "annotation": {"number": 64, "value": 127}, "group": "control_change"}, {"time": 1598, "annotation": {"number": 64, "value": 0}, "group": "control_change"}, {"time": 1600, "annotation": {"number": 64, "value": 127}, "group": "control_change"}, {"time": 1609, "annotation": {"number": 64, "value": 0}, "group": "control_change"}, {"time": 1612, "annotation": {"number": 64, "value": 127}, "group": "control_change"}, {"time": 1658, "annotation": {"number": 64, "value": 0}, "group": "control_change"}, {"time": 1660, "annotation": {"number": 64, "value": 127}, "group": "control_change"}, {"time": 1706, "annotation": {"number": 64, "value": 0}, "group": "control_change"}, {"time": 1708, "annotation": {"number": 64, "value": 127}, "group": "control_change"}, {"time": 1755, "annotation": {"number": 64, "value": 0}, "group": "control_change"}, {"time": 1756, "annotation": {"number": 64, "value": 127}, "group": "control_change"}, {"time": 1802, "annotation": {"number": 64, "value": 0}, "group": "control_change"}, {"time": 1805, "annotation": {"number": 64, "value": 127}, "group": "control_change"}, {"time": 1850, "annotation": {"number": 64, "value": 0}, "group": "control_change"}, {"time": 1855, "annotation": {"number": 64, "value": 127}, "group": "control_change"}, {"time": 1896, "annotation": {"number": 64, "value": 0}, "group": "control_change"}, {"time": 1899, "annotation": {"number": 64, "value": 127}, "group": "control_change"}, {"time": 1922, "annotation": {"number": 64, "value": 0}, "group": "control_change"}, {"time": 1924, "annotation": {"number": 64, "value": 127}, "group": "control_change"}, {"time": 1946, "annotation": {"number": 64, "value": 0}, "group": "control_change"}, {"time": 1949, "annotation": {"number": 64, "value": 127}, "group": "control_change"}, {"time": 1992, "annotation": {"number": 64, "value": 0}, "group": "control_change"}, {"time": 1995, "annotation": {"number": 64, "value": 127}, "group": "control_change"}, {"time": 2043, "annotation": {"number": 64, "value": 0}, "group": "control_change"}, {"time": 2047, "annotation": {"number": 64, "value": 127}, "group": "control_change"}, {"time": 2090, "annotation": {"number": 64, "value": 0}, "group": "control_change"}, {"time": 2093, "annotation": {"number": 64, "value": 127}, "group": "control_change"}, {"time": 2137, "annotation": {"number": 64, "value": 0}, "group": "control_change"}, {"time": 2140, "annotation": {"number": 64, "value": 127}, "group": "control_change"}, {"time": 2188, "annotation": {"number": 64, "value": 0}, "group": "control_change"}, {"time": 2192, "annotation": {"number": 64, "value": 127}, "group": "control_change"}, {"time": 2236, "annotation": {"number": 64, "value": 0}, "group": "control_change"}, {"time": 2238, "annotation": {"number": 64, "value": 127}, "group": "control_change"}, {"time": 2282, "annotation": {"number": 64, "value": 0}, "group": "control_change"}, {"time": 2285, "annotation": {"number": 64, "value": 127}, "group": "control_change"}, {"time": 2301, "annotation": {"number": 64, "value": 0}, "group": "control_change"}, {"time": 2303, "annotation": {"number": 64, "value": 127}, "group": "control_change"}, {"time": 2330, "annotation": {"number": 64, "value": 0}, "group": "control_change"}, {"time": 2337, "annotation": {"number": 64, "value": 127}, "group": "control_change"}, {"time": 2376, "annotation": {"number": 64, "value": 0}, "group": "control_change"}, {"time": 3196, "annotation": {"number": 64, "value": 127}, "group": "control_change"}, {"time": 3242, "annotation": {"number": 64, "value": 0}, "group": "control_change"}, {"time": 3244, "annotation": {"number": 64, "value": 127}, "group": "control_change"}, {"time": 3290, "annotation": {"number": 64, "value": 0}, "group": "control_change"}, {"time": 3292, "annotation": {"number": 64, "value": 127}, "group": "control_change"}, {"time": 3339, "annotation": {"number": 64, "value": 0}, "group": "control_change"}, {"time": 3340, "annotation": {"number": 64, "value": 127}, "group": "control_change"}, {"time": 3386, "annotation": {"number": 64, "value": 0}, "group": "control_change"}, {"time": 3389, "annotation": {"number": 64, "value": 127}, "group": "control_change"}, {"time": 3434, "annotation": {"number": 64, "value": 0}, "group": "control_change"}, {"time": 3439, "annotation": {"number": 64, "value": 127}, "group": "control_change"}, {"time": 3480, "annotation": {"number": 64, "value": 0}, "group": "control_change"}, {"time": 3487, "annotation": {"number": 64, "value": 127}, "group": "control_change"}, {"time": 3529, "annotation": {"number": 64, "value": 0}, "group": "control_change"}, {"time": 3531, "annotation": {"number": 64, "value": 127}, "group": "control_change"}, {"time": 3566, "annotation": {"number": 64, "value": 0}, "group": "control_change"}, {"time": 3568, "annotation": {"number": 64, "value": 127}, "group": "control_change"}, {"time": 3577, "annotation": {"number": 64, "value": 0}, "group": "control_change"}, {"time": 3580, "annotation": {"number": 64, "value": 127}, "group": "control_change"}, {"time": 3626, "annotation": {"number": 64, "value": 0}, "group": "control_change"}, {"time": 3628, "annotation": {"number": 64, "value": 127}, "group": "control_change"}, {"time": 3674, "annotation": {"number": 64, "value": 0}, "group": "control_change"}, {"time": 3676, "annotation": {"number": 64, "value": 127}, "group": "control_change"}, {"time": 3723, "annotation": {"number": 64, "value": 0}, "group": "control_change"}, {"time": 3724, "annotation": {"number": 64, "value": 127}, "group": "control_change"}, {"time": 3770, "annotation": {"number": 64, "value": 0}, "group": "control_change"}, {"time": 3773, "annotation": {"number": 64, "value": 127}, "group": "control_change"}, {"time": 3818, "annotation": {"number": 64, "value": 0}, "group": "control_change"}, {"time": 3823, "annotation": {"number": 64, "value": 127}, "group": "control_change"}, {"time": 3864, "annotation": {"number": 64, "value": 0}, "group": "control_change"}, {"time": 3867, "annotation": {"number": 64, "value": 127}, "group": "control_change"}, {"time": 3890, "annotation": {"number": 64, "value": 0}, "group": "control_change"}, {"time": 3892, "annotation": {"number": 64, "value": 127}, "group": "control_change"}, {"time": 3914, "annotation": {"number": 64, "value": 0}, "group": "control_change"}, {"time": 3917, "annotation": {"number": 64, "value": 127}, "group": "control_change"}, {"time": 3960, "annotation": {"number": 64, "value": 0}, "group": "control_change"}, {"time": 4012, "annotation": {"number": 64, "value": 127}, "group": "control_change"}, {"time": 4058, "annotation": {"number": 64, "value": 0}, "group": "control_change"}, {"time": 4060, "annotation": {"number": 64, "value": 127}, "group": "control_change"}, {"time": 4106, "annotation": {"number": 64, "value": 0}, "group": "control_change"}, {"time": 4108, "annotation": {"number": 64, "value": 127}, "group": "control_change"}, {"time": 4155, "annotation": {"number": 64, "value": 0}, "group": "control_change"}, {"time": 4156, "annotation": {"number": 64, "value": 127}, "group": "control_change"}, {"time": 4202, "annotation": {"number": 64, "value": 0}, "group": "control_change"}, {"time": 4205, "annotation": {"number": 64, "value": 127}, "group": "control_change"}, {"time": 4250, "annotation": {"number": 64, "value": 0}, "group": "control_change"}, {"time": 4255, "annotation": {"number": 64, "value": 127}, "group": "control_change"}, {"time": 4296, "annotation": {"number": 64, "value": 0}, "group": "control_change"}, {"time": 4303, "annotation": {"number": 64, "value": 127}, "group": "control_change"}, {"time": 4345, "annotation": {"number": 64, "value": 0}, "group": "control_change"}, {"time": 4347, "annotation": {"number": 64, "value": 127}, "group": "control_change"}, {"time": 4382, "annotation": {"number": 64, "value": 0}, "group": "control_change"}, {"time": 4384, "annotation": {"number": 64, "value": 127}, "group": "control_change"}, {"time": 4393, "annotation": {"number": 64, "value": 0}, "group": "control_change"}, {"time": 4396, "annotation": {"number": 64, "value": 127}, "group": "control_change"}, {"time": 4442, "annotation": {"number": 64, "value": 0}, "group": "control_change"}, {"time": 4444, "annotation": {"number": 64, "value": 127}, "group": "control_change"}, {"time": 4490, "annotation": {"number": 64, "value": 0}, "group": "control_change"}, {"time": 4492, "annotation": {"number": 64, "value": 127}, "group": "control_change"}, {"time": 4539, "annotation": {"number": 64, "value": 0}, "group": "control_change"}, {"time": 4540, "annotation": {"number": 64, "value": 127}, "group": "control_change"}, {"time": 4586, "annotation": {"number": 64, "value": 0}, "group": "control_change"}, {"time": 4589, "annotation": {"number": 64, "value": 127}, "group": "control_change"}, {"time": 4634, "annotation": {"number": 64, "value": 0}, "group": "control_change"}, {"time": 4639, "annotation": {"number": 64, "value": 127}, "group": "control_change"}, {"time": 4680, "annotation": {"number": 64, "value": 0}, "group": "control_change"}, {"time": 4683, "annotation": {"number": 64, "value": 127}, "group": "control_change"}, {"time": 4706, "annotation": {"number": 64, "value": 0}, "group": "control_change"}, {"time": 4708, "annotation": {"number": 64, "value": 127}, "group": "control_change"}, {"time": 4730, "annotation": {"number": 64, "value": 0}, "group": "control_change"}, {"time": 4733, "annotation": {"number": 64, "value": 127}, "group": "control_change"}, {"time": 4776, "annotation": {"number": 64, "value": 0}, "group": "control_change"}, {"time": 4780, "annotation": {"number": 64, "value": 127}, "group": "control_change"}, {"time": 4801, "annotation": {"number": 64, "value": 0}, "group": "control_change"}, {"time": 4809, "annotation": {"number": 64, "value": 127}, "group": "control_change"}, {"time": 4859, "annotation": {"number": 64, "value": 0}, "group": "control_change"}]}]}