{"metadata": {"schema_version": "0.2", "title": "None", "source_filename": "130.mid", "source_format": "midi"}, "resolution": 12, "tempos": [{"time": 0, "qpm": 68.00014960032912}], "time_signatures": [{"time": 0, "numerator": 1, "denominator": 4}], "tracks": [{"program": 0, "is_drum": false, "name": "MELODY", "notes": [{"time": 339, "pitch": 64, "duration": 6, "velocity": 114}, {"time": 345, "pitch": 71, "duration": 6, "velocity": 120}, {"time": 351, "pitch": 69, "duration": 6, "velocity": 114}, {"time": 357, "pitch": 67, "duration": 3, "velocity": 114}, {"time": 360, "pitch": 64, "duration": 21, "velocity": 108}, {"time": 381, "pitch": 64, "duration": 3, "velocity": 105}, {"time": 384, "pitch": 66, "duration": 3, "velocity": 102}, {"time": 387, "pitch": 67, "duration": 6, "velocity": 102}, {"time": 393, "pitch": 66, "duration": 6, "velocity": 112}, {"time": 399, "pitch": 64, "duration": 3, "velocity": 111}, {"time": 402, "pitch": 62, "duration": 6, "velocity": 111}, {"time": 408, "pitch": 64, "duration": 27, "velocity": 111}, {"time": 435, "pitch": 64, "duration": 6, "velocity": 114}, {"time": 441, "pitch": 76, "duration": 6, "velocity": 114}, {"time": 447, "pitch": 76, "duration": 6, "velocity": 108}, {"time": 453, "pitch": 74, "duration": 3, "velocity": 97}, {"time": 456, "pitch": 74, "duration": 3, "velocity": 102}, {"time": 459, "pitch": 74, "duration": 6, "velocity": 117}, {"time": 465, "pitch": 69, "duration": 6, "velocity": 117}, {"time": 471, "pitch": 69, "duration": 3, "velocity": 108}, {"time": 474, "pitch": 74, "duration": 9, "velocity": 108}, {"time": 483, "pitch": 71, "duration": 42, "velocity": 108}, {"time": 525, "pitch": 71, "duration": 3, "velocity": 102}, {"time": 528, "pitch": 74, "duration": 3, "velocity": 105}, {"time": 531, "pitch": 76, "duration": 12, "velocity": 111}, {"time": 543, "pitch": 74, "duration": 6, "velocity": 111}, {"time": 549, "pitch": 71, "duration": 3, "velocity": 105}, {"time": 552, "pitch": 69, "duration": 21, "velocity": 108}, {"time": 573, "pitch": 67, "duration": 3, "velocity": 105}, {"time": 576, "pitch": 69, "duration": 3, "velocity": 108}, {"time": 579, "pitch": 71, "duration": 12, "velocity": 108}, {"time": 591, "pitch": 69, "duration": 6, "velocity": 114}, {"time": 597, "pitch": 71, "duration": 3, "velocity": 117}, {"time": 600, "pitch": 64, "duration": 21, "velocity": 111}, {"time": 621, "pitch": 64, "duration": 3, "velocity": 105}, {"time": 624, "pitch": 66, "duration": 3, "velocity": 105}, {"time": 627, "pitch": 67, "duration": 12, "velocity": 97}, {"time": 639, "pitch": 67, "duration": 3, "velocity": 102}, {"time": 642, "pitch": 69, "duration": 6, "velocity": 105}, {"time": 648, "pitch": 66, "duration": 15, "velocity": 109}, {"time": 663, "pitch": 62, "duration": 6, "velocity": 120}, {"time": 669, "pitch": 59, "duration": 3, "velocity": 111}, {"time": 672, "pitch": 64, "duration": 51, "velocity": 108}, {"time": 723, "pitch": 64, "duration": 6, "velocity": 114}, {"time": 729, "pitch": 71, "duration": 6, "velocity": 120}, {"time": 735, "pitch": 69, "duration": 6, "velocity": 114}, {"time": 741, "pitch": 67, "duration": 3, "velocity": 114}, {"time": 744, "pitch": 64, "duration": 21, "velocity": 108}, {"time": 765, "pitch": 64, "duration": 3, "velocity": 105}, {"time": 768, "pitch": 66, "duration": 3, "velocity": 102}, {"time": 771, "pitch": 67, "duration": 6, "velocity": 102}, {"time": 777, "pitch": 66, "duration": 6, "velocity": 112}, {"time": 783, "pitch": 64, "duration": 3, "velocity": 111}, {"time": 786, "pitch": 62, "duration": 6, "velocity": 111}, {"time": 792, "pitch": 64, "duration": 27, "velocity": 111}, {"time": 819, "pitch": 64, "duration": 6, "velocity": 114}, {"time": 825, "pitch": 76, "duration": 6, "velocity": 114}, {"time": 831, "pitch": 76, "duration": 6, "velocity": 108}, {"time": 837, "pitch": 74, "duration": 3, "velocity": 97}, {"time": 840, "pitch": 74, "duration": 3, "velocity": 102}, {"time": 843, "pitch": 74, "duration": 6, "velocity": 117}, {"time": 849, "pitch": 69, "duration": 6, "velocity": 117}, {"time": 855, "pitch": 69, "duration": 3, "velocity": 108}, {"time": 858, "pitch": 74, "duration": 9, "velocity": 108}, {"time": 867, "pitch": 71, "duration": 42, "velocity": 108}, {"time": 909, "pitch": 71, "duration": 3, "velocity": 102}, {"time": 912, "pitch": 74, "duration": 3, "velocity": 105}, {"time": 915, "pitch": 76, "duration": 12, "velocity": 111}, {"time": 927, "pitch": 74, "duration": 6, "velocity": 111}, {"time": 933, "pitch": 71, "duration": 3, "velocity": 105}, {"time": 936, "pitch": 69, "duration": 21, "velocity": 108}, {"time": 957, "pitch": 67, "duration": 3, "velocity": 105}, {"time": 960, "pitch": 69, "duration": 3, "velocity": 108}, {"time": 963, "pitch": 71, "duration": 12, "velocity": 108}, {"time": 975, "pitch": 69, "duration": 6, "velocity": 114}, {"time": 981, "pitch": 71, "duration": 3, "velocity": 117}, {"time": 984, "pitch": 64, "duration": 21, "velocity": 111}, {"time": 1005, "pitch": 64, "duration": 3, "velocity": 105}, {"time": 1008, "pitch": 66, "duration": 3, "velocity": 105}, {"time": 1011, "pitch": 67, "duration": 12, "velocity": 97}, {"time": 1023, "pitch": 67, "duration": 3, "velocity": 102}, {"time": 1026, "pitch": 69, "duration": 6, "velocity": 105}, {"time": 1032, "pitch": 66, "duration": 15, "velocity": 109}, {"time": 1047, "pitch": 62, "duration": 6, "velocity": 120}, {"time": 1053, "pitch": 59, "duration": 3, "velocity": 111}, {"time": 1056, "pitch": 64, "duration": 42, "velocity": 108}, {"time": 1098, "pitch": 71, "duration": 3, "velocity": 111}, {"time": 1101, "pitch": 71, "duration": 3, "velocity": 111}, {"time": 1104, "pitch": 71, "duration": 3, "velocity": 114}, {"time": 1107, "pitch": 79, "duration": 6, "velocity": 114}, {"time": 1113, "pitch": 78, "duration": 6, "velocity": 112}, {"time": 1119, "pitch": 76, "duration": 3, "velocity": 102}, {"time": 1122, "pitch": 74, "duration": 6, "velocity": 123}, {"time": 1128, "pitch": 71, "duration": 18, "velocity": 120}, {"time": 1146, "pitch": 71, "duration": 3, "velocity": 117}, {"time": 1149, "pitch": 74, "duration": 3, "velocity": 111}, {"time": 1152, "pitch": 71, "duration": 3, "velocity": 117}, {"time": 1155, "pitch": 76, "duration": 3, "velocity": 102}, {"time": 1158, "pitch": 76, "duration": 6, "velocity": 108}, {"time": 1164, "pitch": 74, "duration": 3, "velocity": 114}, {"time": 1167, "pitch": 67, "duration": 6, "velocity": 114}, {"time": 1173, "pitch": 69, "duration": 6, "velocity": 117}, {"time": 1179, "pitch": 71, "duration": 24, "velocity": 108}, {"time": 1203, "pitch": 69, "duration": 3, "velocity": 100}, {"time": 1206, "pitch": 69, "duration": 3, "velocity": 105}, {"time": 1209, "pitch": 69, "duration": 3, "velocity": 111}, {"time": 1212, "pitch": 67, "duration": 3, "velocity": 97}, {"time": 1215, "pitch": 69, "duration": 6, "velocity": 114}, {"time": 1221, "pitch": 67, "duration": 3, "velocity": 111}, {"time": 1224, "pitch": 64, "duration": 21, "velocity": 108}, {"time": 1245, "pitch": 64, "duration": 3, "velocity": 114}, {"time": 1248, "pitch": 64, "duration": 3, "velocity": 111}, {"time": 1251, "pitch": 76, "duration": 3, "velocity": 108}, {"time": 1254, "pitch": 76, "duration": 3, "velocity": 117}, {"time": 1257, "pitch": 76, "duration": 3, "velocity": 108}, {"time": 1260, "pitch": 76, "duration": 3, "velocity": 102}, {"time": 1263, "pitch": 76, "duration": 6, "velocity": 108}, {"time": 1269, "pitch": 71, "duration": 3, "velocity": 111}, {"time": 1272, "pitch": 76, "duration": 6, "velocity": 114}, {"time": 1278, "pitch": 74, "duration": 12, "velocity": 108}, {"time": 1290, "pitch": 71, "duration": 3, "velocity": 111}, {"time": 1293, "pitch": 74, "duration": 3, "velocity": 111}, {"time": 1296, "pitch": 71, "duration": 3, "velocity": 114}, {"time": 1299, "pitch": 79, "duration": 6, "velocity": 114}, {"time": 1305, "pitch": 78, "duration": 6, "velocity": 112}, {"time": 1311, "pitch": 76, "duration": 3, "velocity": 102}, {"time": 1314, "pitch": 74, "duration": 6, "velocity": 123}, {"time": 1320, "pitch": 71, "duration": 18, "velocity": 120}, {"time": 1338, "pitch": 71, "duration": 3, "velocity": 117}, {"time": 1341, "pitch": 74, "duration": 3, "velocity": 111}, {"time": 1344, "pitch": 71, "duration": 3, "velocity": 117}, {"time": 1347, "pitch": 76, "duration": 3, "velocity": 102}, {"time": 1350, "pitch": 76, "duration": 6, "velocity": 108}, {"time": 1356, "pitch": 74, "duration": 3, "velocity": 114}, {"time": 1359, "pitch": 67, "duration": 6, "velocity": 114}, {"time": 1365, "pitch": 69, "duration": 6, "velocity": 117}, {"time": 1371, "pitch": 71, "duration": 24, "velocity": 108}, {"time": 1395, "pitch": 69, "duration": 3, "velocity": 100}, {"time": 1398, "pitch": 69, "duration": 3, "velocity": 105}, {"time": 1401, "pitch": 69, "duration": 3, "velocity": 111}, {"time": 1404, "pitch": 67, "duration": 3, "velocity": 97}, {"time": 1407, "pitch": 69, "duration": 6, "velocity": 114}, {"time": 1413, "pitch": 67, "duration": 3, "velocity": 111}, {"time": 1416, "pitch": 67, "duration": 6, "velocity": 105}, {"time": 1422, "pitch": 64, "duration": 15, "velocity": 105}, {"time": 1437, "pitch": 76, "duration": 3, "velocity": 120}, {"time": 1440, "pitch": 78, "duration": 3, "velocity": 105}, {"time": 1443, "pitch": 79, "duration": 15, "velocity": 108}, {"time": 1458, "pitch": 79, "duration": 3, "velocity": 111}, {"time": 1461, "pitch": 81, "duration": 6, "velocity": 114}, {"time": 1467, "pitch": 78, "duration": 12, "velocity": 109}, {"time": 1479, "pitch": 74, "duration": 6, "velocity": 111}, {"time": 1485, "pitch": 71, "duration": 3, "velocity": 114}, {"time": 1488, "pitch": 76, "duration": 60, "velocity": 108}, {"time": 1923, "pitch": 64, "duration": 5, "velocity": 114}, {"time": 1929, "pitch": 71, "duration": 4, "velocity": 120}, {"time": 1935, "pitch": 69, "duration": 4, "velocity": 114}, {"time": 1941, "pitch": 67, "duration": 2, "velocity": 114}, {"time": 1944, "pitch": 64, "duration": 15, "velocity": 108}, {"time": 1965, "pitch": 64, "duration": 2, "velocity": 105}, {"time": 1968, "pitch": 66, "duration": 2, "velocity": 102}, {"time": 1971, "pitch": 67, "duration": 4, "velocity": 102}, {"time": 1977, "pitch": 66, "duration": 4, "velocity": 112}, {"time": 1983, "pitch": 64, "duration": 2, "velocity": 111}, {"time": 1986, "pitch": 62, "duration": 6, "velocity": 111}, {"time": 1992, "pitch": 64, "duration": 21, "velocity": 111}, {"time": 2019, "pitch": 64, "duration": 4, "velocity": 114}, {"time": 2025, "pitch": 76, "duration": 4, "velocity": 114}, {"time": 2031, "pitch": 76, "duration": 4, "velocity": 108}, {"time": 2037, "pitch": 74, "duration": 2, "velocity": 97}, {"time": 2040, "pitch": 74, "duration": 2, "velocity": 102}, {"time": 2043, "pitch": 74, "duration": 4, "velocity": 117}, {"time": 2049, "pitch": 69, "duration": 4, "velocity": 117}, {"time": 2055, "pitch": 69, "duration": 2, "velocity": 108}, {"time": 2058, "pitch": 74, "duration": 8, "velocity": 108}, {"time": 2067, "pitch": 71, "duration": 27, "velocity": 108}, {"time": 2109, "pitch": 71, "duration": 2, "velocity": 102}, {"time": 2112, "pitch": 74, "duration": 2, "velocity": 105}, {"time": 2115, "pitch": 76, "duration": 8, "velocity": 111}, {"time": 2127, "pitch": 74, "duration": 4, "velocity": 111}, {"time": 2133, "pitch": 71, "duration": 2, "velocity": 105}, {"time": 2136, "pitch": 69, "duration": 18, "velocity": 108}, {"time": 2157, "pitch": 67, "duration": 2, "velocity": 105}, {"time": 2160, "pitch": 69, "duration": 2, "velocity": 108}, {"time": 2163, "pitch": 71, "duration": 9, "velocity": 108}, {"time": 2175, "pitch": 69, "duration": 5, "velocity": 114}, {"time": 2181, "pitch": 71, "duration": 2, "velocity": 117}, {"time": 2184, "pitch": 64, "duration": 17, "velocity": 111}, {"time": 2205, "pitch": 64, "duration": 2, "velocity": 105}, {"time": 2208, "pitch": 66, "duration": 2, "velocity": 105}, {"time": 2211, "pitch": 67, "duration": 10, "velocity": 97}, {"time": 2223, "pitch": 67, "duration": 2, "velocity": 102}, {"time": 2226, "pitch": 69, "duration": 6, "velocity": 105}, {"time": 2232, "pitch": 66, "duration": 13, "velocity": 109}, {"time": 2247, "pitch": 62, "duration": 4, "velocity": 120}, {"time": 2253, "pitch": 59, "duration": 2, "velocity": 111}, {"time": 2256, "pitch": 64, "duration": 39, "velocity": 108}, {"time": 2298, "pitch": 71, "duration": 2, "velocity": 111}, {"time": 2301, "pitch": 71, "duration": 2, "velocity": 111}, {"time": 2304, "pitch": 71, "duration": 2, "velocity": 114}, {"time": 2307, "pitch": 79, "duration": 5, "velocity": 114}, {"time": 2313, "pitch": 78, "duration": 4, "velocity": 112}, {"time": 2319, "pitch": 76, "duration": 2, "velocity": 102}, {"time": 2322, "pitch": 74, "duration": 5, "velocity": 123}, {"time": 2328, "pitch": 71, "duration": 15, "velocity": 120}, {"time": 2346, "pitch": 71, "duration": 2, "velocity": 117}, {"time": 2349, "pitch": 74, "duration": 2, "velocity": 111}, {"time": 2352, "pitch": 71, "duration": 1, "velocity": 117}, {"time": 2355, "pitch": 76, "duration": 2, "velocity": 102}, {"time": 2358, "pitch": 76, "duration": 5, "velocity": 108}, {"time": 2364, "pitch": 74, "duration": 2, "velocity": 114}, {"time": 2367, "pitch": 67, "duration": 5, "velocity": 114}, {"time": 2373, "pitch": 69, "duration": 5, "velocity": 117}, {"time": 2379, "pitch": 71, "duration": 13, "velocity": 108}, {"time": 2403, "pitch": 69, "duration": 2, "velocity": 100}, {"time": 2406, "pitch": 69, "duration": 2, "velocity": 105}, {"time": 2409, "pitch": 69, "duration": 2, "velocity": 111}, {"time": 2412, "pitch": 67, "duration": 2, "velocity": 97}, {"time": 2415, "pitch": 69, "duration": 5, "velocity": 114}, {"time": 2421, "pitch": 67, "duration": 2, "velocity": 111}, {"time": 2424, "pitch": 64, "duration": 18, "velocity": 108}, {"time": 2445, "pitch": 64, "duration": 2, "velocity": 114}, {"time": 2448, "pitch": 64, "duration": 2, "velocity": 111}, {"time": 2451, "pitch": 76, "duration": 2, "velocity": 108}, {"time": 2454, "pitch": 76, "duration": 2, "velocity": 117}, {"time": 2457, "pitch": 76, "duration": 2, "velocity": 108}, {"time": 2460, "pitch": 76, "duration": 2, "velocity": 102}, {"time": 2463, "pitch": 76, "duration": 4, "velocity": 108}, {"time": 2469, "pitch": 71, "duration": 2, "velocity": 111}, {"time": 2472, "pitch": 76, "duration": 5, "velocity": 114}, {"time": 2478, "pitch": 74, "duration": 12, "velocity": 108}, {"time": 2490, "pitch": 71, "duration": 2, "velocity": 111}, {"time": 2493, "pitch": 74, "duration": 2, "velocity": 111}, {"time": 2496, "pitch": 71, "duration": 2, "velocity": 114}, {"time": 2499, "pitch": 79, "duration": 5, "velocity": 114}, {"time": 2505, "pitch": 78, "duration": 4, "velocity": 112}, {"time": 2511, "pitch": 76, "duration": 2, "velocity": 102}, {"time": 2514, "pitch": 74, "duration": 5, "velocity": 123}, {"time": 2520, "pitch": 71, "duration": 15, "velocity": 120}, {"time": 2538, "pitch": 71, "duration": 2, "velocity": 117}, {"time": 2541, "pitch": 74, "duration": 2, "velocity": 111}, {"time": 2544, "pitch": 71, "duration": 1, "velocity": 117}, {"time": 2547, "pitch": 76, "duration": 2, "velocity": 102}, {"time": 2550, "pitch": 76, "duration": 5, "velocity": 108}, {"time": 2556, "pitch": 74, "duration": 2, "velocity": 114}, {"time": 2559, "pitch": 67, "duration": 5, "velocity": 114}, {"time": 2565, "pitch": 69, "duration": 5, "velocity": 117}, {"time": 2571, "pitch": 71, "duration": 13, "velocity": 108}, {"time": 2595, "pitch": 69, "duration": 2, "velocity": 100}, {"time": 2598, "pitch": 69, "duration": 2, "velocity": 105}, {"time": 2601, "pitch": 69, "duration": 2, "velocity": 111}, {"time": 2604, "pitch": 67, "duration": 2, "velocity": 97}, {"time": 2607, "pitch": 69, "duration": 5, "velocity": 114}, {"time": 2613, "pitch": 67, "duration": 2, "velocity": 111}, {"time": 2616, "pitch": 67, "duration": 5, "velocity": 105}, {"time": 2622, "pitch": 64, "duration": 10, "velocity": 105}, {"time": 2637, "pitch": 76, "duration": 2, "velocity": 120}, {"time": 2640, "pitch": 78, "duration": 2, "velocity": 105}, {"time": 2643, "pitch": 79, "duration": 13, "velocity": 108}, {"time": 2658, "pitch": 79, "duration": 2, "velocity": 111}, {"time": 2661, "pitch": 81, "duration": 4, "velocity": 114}, {"time": 2667, "pitch": 78, "duration": 9, "velocity": 109}, {"time": 2679, "pitch": 74, "duration": 5, "velocity": 111}, {"time": 2685, "pitch": 71, "duration": 2, "velocity": 114}, {"time": 2688, "pitch": 76, "duration": 39, "velocity": 108}, {"time": 2730, "pitch": 71, "duration": 2, "velocity": 111}, {"time": 2733, "pitch": 71, "duration": 2, "velocity": 111}, {"time": 2736, "pitch": 71, "duration": 2, "velocity": 114}, {"time": 2739, "pitch": 79, "duration": 5, "velocity": 114}, {"time": 2745, "pitch": 78, "duration": 4, "velocity": 112}, {"time": 2751, "pitch": 76, "duration": 2, "velocity": 102}, {"time": 2754, "pitch": 74, "duration": 5, "velocity": 123}, {"time": 2760, "pitch": 71, "duration": 15, "velocity": 120}, {"time": 2778, "pitch": 71, "duration": 2, "velocity": 117}, {"time": 2781, "pitch": 74, "duration": 2, "velocity": 111}, {"time": 2784, "pitch": 71, "duration": 1, "velocity": 117}, {"time": 2787, "pitch": 76, "duration": 2, "velocity": 102}, {"time": 2790, "pitch": 76, "duration": 5, "velocity": 108}, {"time": 2796, "pitch": 74, "duration": 2, "velocity": 114}, {"time": 2799, "pitch": 67, "duration": 5, "velocity": 114}, {"time": 2805, "pitch": 69, "duration": 5, "velocity": 117}, {"time": 2811, "pitch": 71, "duration": 13, "velocity": 108}, {"time": 2835, "pitch": 69, "duration": 2, "velocity": 100}, {"time": 2838, "pitch": 69, "duration": 2, "velocity": 105}, {"time": 2841, "pitch": 69, "duration": 2, "velocity": 111}, {"time": 2844, "pitch": 67, "duration": 2, "velocity": 97}, {"time": 2847, "pitch": 69, "duration": 5, "velocity": 114}, {"time": 2853, "pitch": 67, "duration": 2, "velocity": 111}, {"time": 2856, "pitch": 64, "duration": 18, "velocity": 108}, {"time": 2877, "pitch": 64, "duration": 2, "velocity": 114}, {"time": 2880, "pitch": 64, "duration": 2, "velocity": 111}, {"time": 2883, "pitch": 76, "duration": 2, "velocity": 108}, {"time": 2886, "pitch": 76, "duration": 2, "velocity": 117}, {"time": 2889, "pitch": 76, "duration": 2, "velocity": 108}, {"time": 2892, "pitch": 76, "duration": 2, "velocity": 102}, {"time": 2895, "pitch": 76, "duration": 4, "velocity": 108}, {"time": 2901, "pitch": 71, "duration": 2, "velocity": 111}, {"time": 2904, "pitch": 76, "duration": 5, "velocity": 114}, {"time": 2910, "pitch": 74, "duration": 12, "velocity": 108}, {"time": 2922, "pitch": 71, "duration": 2, "velocity": 111}, {"time": 2925, "pitch": 74, "duration": 2, "velocity": 111}, {"time": 2928, "pitch": 71, "duration": 2, "velocity": 114}, {"time": 2931, "pitch": 79, "duration": 5, "velocity": 114}, {"time": 2937, "pitch": 78, "duration": 4, "velocity": 112}, {"time": 2943, "pitch": 76, "duration": 2, "velocity": 102}, {"time": 2946, "pitch": 74, "duration": 5, "velocity": 123}, {"time": 2952, "pitch": 71, "duration": 15, "velocity": 120}, {"time": 2970, "pitch": 71, "duration": 2, "velocity": 117}, {"time": 2973, "pitch": 74, "duration": 2, "velocity": 111}, {"time": 2976, "pitch": 71, "duration": 1, "velocity": 117}, {"time": 2979, "pitch": 76, "duration": 2, "velocity": 102}, {"time": 2982, "pitch": 76, "duration": 5, "velocity": 108}, {"time": 2988, "pitch": 74, "duration": 2, "velocity": 114}, {"time": 2991, "pitch": 67, "duration": 5, "velocity": 114}, {"time": 2997, "pitch": 69, "duration": 5, "velocity": 117}, {"time": 3003, "pitch": 71, "duration": 13, "velocity": 108}, {"time": 3027, "pitch": 69, "duration": 2, "velocity": 100}, {"time": 3030, "pitch": 69, "duration": 2, "velocity": 105}, {"time": 3033, "pitch": 69, "duration": 2, "velocity": 111}, {"time": 3036, "pitch": 67, "duration": 2, "velocity": 97}, {"time": 3039, "pitch": 69, "duration": 5, "velocity": 114}, {"time": 3045, "pitch": 67, "duration": 2, "velocity": 111}, {"time": 3048, "pitch": 67, "duration": 5, "velocity": 105}, {"time": 3054, "pitch": 64, "duration": 10, "velocity": 105}, {"time": 3069, "pitch": 76, "duration": 2, "velocity": 120}, {"time": 3072, "pitch": 78, "duration": 2, "velocity": 105}, {"time": 3075, "pitch": 79, "duration": 13, "velocity": 108}, {"time": 3090, "pitch": 79, "duration": 2, "velocity": 111}, {"time": 3093, "pitch": 81, "duration": 4, "velocity": 114}, {"time": 3099, "pitch": 78, "duration": 9, "velocity": 109}, {"time": 3111, "pitch": 74, "duration": 5, "velocity": 111}, {"time": 3117, "pitch": 71, "duration": 2, "velocity": 114}, {"time": 3120, "pitch": 76, "duration": 39, "velocity": 108}]}, {"program": 0, "is_drum": false, "name": "BRIDGE", "notes": [{"time": 88, "pitch": 88, "duration": 4, "velocity": 114}, {"time": 92, "pitch": 86, "duration": 4, "velocity": 102}, {"time": 96, "pitch": 81, "duration": 3, "velocity": 114}, {"time": 99, "pitch": 79, "duration": 6, "velocity": 117}, {"time": 105, "pitch": 78, "duration": 6, "velocity": 116}, {"time": 111, "pitch": 76, "duration": 3, "velocity": 114}, {"time": 114, "pitch": 74, "duration": 6, "velocity": 117}, {"time": 120, "pitch": 71, "duration": 18, "velocity": 117}, {"time": 138, "pitch": 71, "duration": 3, "velocity": 120}, {"time": 141, "pitch": 74, "duration": 3, "velocity": 117}, {"time": 144, "pitch": 71, "duration": 3, "velocity": 120}, {"time": 147, "pitch": 76, "duration": 6, "velocity": 117}, {"time": 153, "pitch": 74, "duration": 6, "velocity": 120}, {"time": 159, "pitch": 67, "duration": 3, "velocity": 111}, {"time": 162, "pitch": 69, "duration": 6, "velocity": 117}, {"time": 168, "pitch": 71, "duration": 18, "velocity": 120}, {"time": 186, "pitch": 83, "duration": 6, "velocity": 111}, {"time": 192, "pitch": 81, "duration": 3, "velocity": 108}, {"time": 195, "pitch": 79, "duration": 15, "velocity": 123}, {"time": 210, "pitch": 79, "duration": 3, "velocity": 117}, {"time": 213, "pitch": 81, "duration": 3, "velocity": 111}, {"time": 216, "pitch": 79, "duration": 3, "velocity": 117}, {"time": 219, "pitch": 81, "duration": 3, "velocity": 117}, {"time": 222, "pitch": 83, "duration": 3, "velocity": 108}, {"time": 225, "pitch": 86, "duration": 3, "velocity": 111}, {"time": 228, "pitch": 86, "duration": 12, "velocity": 114}, {"time": 240, "pitch": 86, "duration": 2, "velocity": 108}, {"time": 242, "pitch": 83, "duration": 2, "velocity": 114}, {"time": 244, "pitch": 88, "duration": 12, "velocity": 123}, {"time": 256, "pitch": 88, "duration": 4, "velocity": 120}, {"time": 260, "pitch": 90, "duration": 4, "velocity": 112}, {"time": 264, "pitch": 91, "duration": 4, "velocity": 114}, {"time": 268, "pitch": 93, "duration": 23, "velocity": 117}, {"time": 291, "pitch": 88, "duration": 40, "velocity": 89}, {"time": 291, "pitch": 83, "duration": 40, "velocity": 78}, {"time": 423, "pitch": 83, "duration": 5, "velocity": 105}, {"time": 429, "pitch": 81, "duration": 2, "velocity": 89}, {"time": 432, "pitch": 83, "duration": 2, "velocity": 97}, {"time": 435, "pitch": 76, "duration": 14, "velocity": 108}, {"time": 501, "pitch": 67, "duration": 2, "velocity": 105}, {"time": 504, "pitch": 69, "duration": 2, "velocity": 111}, {"time": 507, "pitch": 71, "duration": 21, "velocity": 111}, {"time": 621, "pitch": 69, "duration": 2, "velocity": 111}, {"time": 624, "pitch": 71, "duration": 2, "velocity": 108}, {"time": 627, "pitch": 72, "duration": 22, "velocity": 105}, {"time": 651, "pitch": 74, "duration": 21, "velocity": 87}, {"time": 705, "pitch": 67, "duration": 3, "velocity": 97}, {"time": 708, "pitch": 64, "duration": 3, "velocity": 80}, {"time": 711, "pitch": 69, "duration": 2, "velocity": 120}, {"time": 714, "pitch": 71, "duration": 2, "velocity": 102}, {"time": 717, "pitch": 74, "duration": 6, "velocity": 108}, {"time": 747, "pitch": 64, "duration": 3, "velocity": 100}, {"time": 750, "pitch": 59, "duration": 2, "velocity": 108}, {"time": 753, "pitch": 66, "duration": 2, "velocity": 109}, {"time": 756, "pitch": 67, "duration": 8, "velocity": 92}, {"time": 765, "pitch": 57, "duration": 2, "velocity": 105}, {"time": 768, "pitch": 59, "duration": 2, "velocity": 92}, {"time": 771, "pitch": 60, "duration": 11, "velocity": 89}, {"time": 804, "pitch": 71, "duration": 3, "velocity": 97}, {"time": 807, "pitch": 69, "duration": 2, "velocity": 117}, {"time": 810, "pitch": 71, "duration": 2, "velocity": 108}, {"time": 813, "pitch": 67, "duration": 2, "velocity": 69}, {"time": 816, "pitch": 66, "duration": 3, "velocity": 74}, {"time": 819, "pitch": 64, "duration": 14, "velocity": 100}, {"time": 885, "pitch": 67, "duration": 2, "velocity": 108}, {"time": 888, "pitch": 69, "duration": 2, "velocity": 97}, {"time": 891, "pitch": 88, "duration": 4, "velocity": 120}, {"time": 891, "pitch": 71, "duration": 15, "velocity": 94}, {"time": 895, "pitch": 86, "duration": 4, "velocity": 111}, {"time": 900, "pitch": 93, "duration": 2, "velocity": 117}, {"time": 904, "pitch": 90, "duration": 10, "velocity": 109}, {"time": 945, "pitch": 74, "duration": 6, "velocity": 114}, {"time": 951, "pitch": 69, "duration": 10, "velocity": 114}, {"time": 963, "pitch": 71, "duration": 15, "velocity": 92}, {"time": 993, "pitch": 64, "duration": 3, "velocity": 100}, {"time": 996, "pitch": 66, "duration": 3, "velocity": 74}, {"time": 999, "pitch": 67, "duration": 3, "velocity": 94}, {"time": 1002, "pitch": 71, "duration": 3, "velocity": 92}, {"time": 1005, "pitch": 76, "duration": 4, "velocity": 73}, {"time": 1008, "pitch": 78, "duration": 3, "velocity": 96}, {"time": 1011, "pitch": 79, "duration": 18, "velocity": 105}, {"time": 1044, "pitch": 74, "duration": 3, "velocity": 105}, {"time": 1047, "pitch": 78, "duration": 5, "velocity": 112}, {"time": 1053, "pitch": 76, "duration": 3, "velocity": 87}, {"time": 1056, "pitch": 74, "duration": 2, "velocity": 67}, {"time": 1059, "pitch": 76, "duration": 4, "velocity": 111}, {"time": 1065, "pitch": 64, "duration": 3, "velocity": 100}, {"time": 1068, "pitch": 66, "duration": 3, "velocity": 90}, {"time": 1071, "pitch": 67, "duration": 4, "velocity": 76}, {"time": 1074, "pitch": 71, "duration": 2, "velocity": 102}, {"time": 1077, "pitch": 76, "duration": 2, "velocity": 105}, {"time": 1080, "pitch": 78, "duration": 1, "velocity": 109}, {"time": 1083, "pitch": 79, "duration": 10, "velocity": 108}, {"time": 1095, "pitch": 69, "duration": 3, "velocity": 117}, {"time": 1098, "pitch": 71, "duration": 2, "velocity": 108}, {"time": 1101, "pitch": 74, "duration": 2, "velocity": 117}, {"time": 1104, "pitch": 71, "duration": 2, "velocity": 111}, {"time": 1107, "pitch": 76, "duration": 13, "velocity": 111}, {"time": 1107, "pitch": 79, "duration": 35, "velocity": 105}, {"time": 1143, "pitch": 78, "duration": 6, "velocity": 79}, {"time": 1149, "pitch": 74, "duration": 5, "velocity": 108}, {"time": 1155, "pitch": 76, "duration": 19, "velocity": 111}, {"time": 1173, "pitch": 74, "duration": 5, "velocity": 80}, {"time": 1179, "pitch": 71, "duration": 19, "velocity": 102}, {"time": 1236, "pitch": 76, "duration": 3, "velocity": 71}, {"time": 1239, "pitch": 79, "duration": 3, "velocity": 105}, {"time": 1242, "pitch": 76, "duration": 3, "velocity": 102}, {"time": 1245, "pitch": 74, "duration": 5, "velocity": 114}, {"time": 1251, "pitch": 76, "duration": 12, "velocity": 97}, {"time": 1269, "pitch": 76, "duration": 5, "velocity": 97}, {"time": 1275, "pitch": 74, "duration": 22, "velocity": 111}, {"time": 1299, "pitch": 76, "duration": 20, "velocity": 100}, {"time": 1335, "pitch": 79, "duration": 8, "velocity": 97}, {"time": 1347, "pitch": 72, "duration": 17, "velocity": 82}, {"time": 1347, "pitch": 76, "duration": 16, "velocity": 92}, {"time": 1365, "pitch": 74, "duration": 6, "velocity": 100}, {"time": 1371, "pitch": 71, "duration": 23, "velocity": 108}, {"time": 1395, "pitch": 69, "duration": 42, "velocity": 108}, {"time": 1443, "pitch": 76, "duration": 17, "velocity": 92}, {"time": 1443, "pitch": 79, "duration": 17, "velocity": 92}, {"time": 1467, "pitch": 74, "duration": 18, "velocity": 78}, {"time": 1467, "pitch": 78, "duration": 18, "velocity": 85}, {"time": 1491, "pitch": 76, "duration": 25, "velocity": 100}, {"time": 1527, "pitch": 69, "duration": 2, "velocity": 117}, {"time": 1530, "pitch": 71, "duration": 2, "velocity": 120}, {"time": 1533, "pitch": 74, "duration": 5, "velocity": 117}, {"time": 1546, "pitch": 74, "duration": 3, "velocity": 111}, {"time": 1548, "pitch": 76, "duration": 2, "velocity": 89}, {"time": 1551, "pitch": 76, "duration": 2, "velocity": 117}, {"time": 1554, "pitch": 76, "duration": 4, "velocity": 117}, {"time": 1560, "pitch": 79, "duration": 5, "velocity": 123}, {"time": 1566, "pitch": 78, "duration": 1, "velocity": 112}, {"time": 1568, "pitch": 79, "duration": 2, "velocity": 105}, {"time": 1570, "pitch": 78, "duration": 2, "velocity": 112}, {"time": 1573, "pitch": 76, "duration": 2, "velocity": 117}, {"time": 1576, "pitch": 78, "duration": 3, "velocity": 119}, {"time": 1579, "pitch": 76, "duration": 2, "velocity": 117}, {"time": 1582, "pitch": 74, "duration": 5, "velocity": 117}, {"time": 1588, "pitch": 76, "duration": 4, "velocity": 123}, {"time": 1595, "pitch": 83, "duration": 1, "velocity": 127}, {"time": 1597, "pitch": 86, "duration": 2, "velocity": 120}, {"time": 1600, "pitch": 83, "duration": 4, "velocity": 117}, {"time": 1605, "pitch": 81, "duration": 2, "velocity": 120}, {"time": 1608, "pitch": 79, "duration": 2, "velocity": 102}, {"time": 1611, "pitch": 78, "duration": 2, "velocity": 116}, {"time": 1614, "pitch": 79, "duration": 2, "velocity": 114}, {"time": 1617, "pitch": 78, "duration": 1, "velocity": 119}, {"time": 1620, "pitch": 74, "duration": 14, "velocity": 114}, {"time": 1641, "pitch": 88, "duration": 1, "velocity": 111}, {"time": 1644, "pitch": 88, "duration": 2, "velocity": 114}, {"time": 1647, "pitch": 86, "duration": 1, "velocity": 114}, {"time": 1649, "pitch": 88, "duration": 4, "velocity": 120}, {"time": 1653, "pitch": 86, "duration": 2, "velocity": 117}, {"time": 1656, "pitch": 83, "duration": 2, "velocity": 105}, {"time": 1659, "pitch": 84, "duration": 5, "velocity": 120}, {"time": 1665, "pitch": 83, "duration": 3, "velocity": 123}, {"time": 1668, "pitch": 81, "duration": 3, "velocity": 120}, {"time": 1672, "pitch": 79, "duration": 2, "velocity": 114}, {"time": 1675, "pitch": 76, "duration": 6, "velocity": 111}, {"time": 1681, "pitch": 83, "duration": 1, "velocity": 120}, {"time": 1684, "pitch": 84, "duration": 4, "velocity": 108}, {"time": 1688, "pitch": 83, "duration": 2, "velocity": 123}, {"time": 1692, "pitch": 79, "duration": 2, "velocity": 120}, {"time": 1695, "pitch": 74, "duration": 9, "velocity": 120}, {"time": 1708, "pitch": 71, "duration": 3, "velocity": 123}, {"time": 1712, "pitch": 72, "duration": 4, "velocity": 127}, {"time": 1716, "pitch": 71, "duration": 2, "velocity": 117}, {"time": 1720, "pitch": 78, "duration": 11, "velocity": 116}, {"time": 1734, "pitch": 82, "duration": 2, "velocity": 109}, {"time": 1736, "pitch": 83, "duration": 3, "velocity": 102}, {"time": 1740, "pitch": 83, "duration": 2, "velocity": 114}, {"time": 1743, "pitch": 83, "duration": 4, "velocity": 120}, {"time": 1748, "pitch": 83, "duration": 3, "velocity": 114}, {"time": 1752, "pitch": 83, "duration": 2, "velocity": 117}, {"time": 1755, "pitch": 83, "duration": 8, "velocity": 120}, {"time": 1764, "pitch": 81, "duration": 1, "velocity": 102}, {"time": 1766, "pitch": 78, "duration": 1, "velocity": 116}, {"time": 1768, "pitch": 79, "duration": 3, "velocity": 123}, {"time": 1771, "pitch": 78, "duration": 1, "velocity": 116}, {"time": 1774, "pitch": 74, "duration": 2, "velocity": 117}, {"time": 1776, "pitch": 76, "duration": 9, "velocity": 114}, {"time": 1785, "pitch": 78, "duration": 2, "velocity": 112}, {"time": 1788, "pitch": 79, "duration": 2, "velocity": 114}, {"time": 1791, "pitch": 78, "duration": 3, "velocity": 116}, {"time": 1795, "pitch": 74, "duration": 4, "velocity": 127}, {"time": 1800, "pitch": 71, "duration": 2, "velocity": 108}, {"time": 1804, "pitch": 72, "duration": 5, "velocity": 97}, {"time": 1809, "pitch": 71, "duration": 3, "velocity": 117}, {"time": 1812, "pitch": 69, "duration": 2, "velocity": 100}, {"time": 1815, "pitch": 69, "duration": 3, "velocity": 114}, {"time": 1818, "pitch": 67, "duration": 2, "velocity": 111}, {"time": 1821, "pitch": 67, "duration": 3, "velocity": 117}, {"time": 1824, "pitch": 71, "duration": 2, "velocity": 120}, {"time": 1827, "pitch": 72, "duration": 6, "velocity": 114}, {"time": 1833, "pitch": 71, "duration": 3, "velocity": 117}, {"time": 1836, "pitch": 67, "duration": 2, "velocity": 108}, {"time": 1839, "pitch": 72, "duration": 4, "velocity": 117}, {"time": 1844, "pitch": 71, "duration": 4, "velocity": 120}, {"time": 1848, "pitch": 67, "duration": 3, "velocity": 96}, {"time": 1851, "pitch": 67, "duration": 6, "velocity": 111}, {"time": 1858, "pitch": 66, "duration": 1, "velocity": 109}, {"time": 1861, "pitch": 66, "duration": 5, "velocity": 105}, {"time": 1866, "pitch": 64, "duration": 3, "velocity": 120}, {"time": 1869, "pitch": 62, "duration": 3, "velocity": 117}, {"time": 1872, "pitch": 64, "duration": 9, "velocity": 123}, {"time": 1884, "pitch": 67, "duration": 4, "velocity": 114}, {"time": 1887, "pitch": 69, "duration": 2, "velocity": 117}, {"time": 1890, "pitch": 71, "duration": 3, "velocity": 117}, {"time": 1893, "pitch": 74, "duration": 3, "velocity": 120}, {"time": 1896, "pitch": 76, "duration": 3, "velocity": 97}, {"time": 1899, "pitch": 79, "duration": 2, "velocity": 114}, {"time": 1903, "pitch": 81, "duration": 6, "velocity": 123}, {"time": 1908, "pitch": 79, "duration": 2, "velocity": 114}, {"time": 1911, "pitch": 81, "duration": 1, "velocity": 114}, {"time": 1912, "pitch": 83, "duration": 10, "velocity": 102}, {"time": 1947, "pitch": 64, "duration": 3, "velocity": 100}, {"time": 1950, "pitch": 59, "duration": 2, "velocity": 108}, {"time": 1953, "pitch": 66, "duration": 2, "velocity": 109}, {"time": 1956, "pitch": 67, "duration": 8, "velocity": 92}, {"time": 1965, "pitch": 57, "duration": 2, "velocity": 105}, {"time": 1968, "pitch": 59, "duration": 2, "velocity": 92}, {"time": 1971, "pitch": 60, "duration": 11, "velocity": 89}, {"time": 2004, "pitch": 71, "duration": 3, "velocity": 97}, {"time": 2007, "pitch": 69, "duration": 2, "velocity": 117}, {"time": 2010, "pitch": 71, "duration": 2, "velocity": 108}, {"time": 2013, "pitch": 67, "duration": 2, "velocity": 69}, {"time": 2016, "pitch": 66, "duration": 3, "velocity": 74}, {"time": 2019, "pitch": 64, "duration": 14, "velocity": 100}, {"time": 2085, "pitch": 67, "duration": 2, "velocity": 108}, {"time": 2088, "pitch": 69, "duration": 2, "velocity": 97}, {"time": 2091, "pitch": 88, "duration": 4, "velocity": 120}, {"time": 2091, "pitch": 71, "duration": 15, "velocity": 94}, {"time": 2095, "pitch": 86, "duration": 4, "velocity": 111}, {"time": 2100, "pitch": 93, "duration": 2, "velocity": 117}, {"time": 2104, "pitch": 90, "duration": 10, "velocity": 109}, {"time": 2145, "pitch": 74, "duration": 6, "velocity": 114}, {"time": 2151, "pitch": 69, "duration": 10, "velocity": 114}, {"time": 2163, "pitch": 71, "duration": 15, "velocity": 92}, {"time": 2193, "pitch": 64, "duration": 3, "velocity": 100}, {"time": 2196, "pitch": 66, "duration": 3, "velocity": 74}, {"time": 2199, "pitch": 67, "duration": 3, "velocity": 94}, {"time": 2202, "pitch": 71, "duration": 3, "velocity": 92}, {"time": 2205, "pitch": 76, "duration": 4, "velocity": 73}, {"time": 2208, "pitch": 78, "duration": 3, "velocity": 96}, {"time": 2211, "pitch": 79, "duration": 18, "velocity": 105}, {"time": 2244, "pitch": 74, "duration": 3, "velocity": 105}, {"time": 2247, "pitch": 78, "duration": 5, "velocity": 112}, {"time": 2253, "pitch": 76, "duration": 3, "velocity": 87}, {"time": 2256, "pitch": 74, "duration": 2, "velocity": 67}, {"time": 2259, "pitch": 76, "duration": 4, "velocity": 111}, {"time": 2265, "pitch": 64, "duration": 3, "velocity": 100}, {"time": 2268, "pitch": 66, "duration": 3, "velocity": 90}, {"time": 2271, "pitch": 67, "duration": 4, "velocity": 76}, {"time": 2274, "pitch": 71, "duration": 2, "velocity": 102}, {"time": 2277, "pitch": 76, "duration": 2, "velocity": 105}, {"time": 2280, "pitch": 78, "duration": 1, "velocity": 109}, {"time": 2283, "pitch": 79, "duration": 10, "velocity": 108}, {"time": 2295, "pitch": 69, "duration": 3, "velocity": 117}, {"time": 2298, "pitch": 71, "duration": 2, "velocity": 108}, {"time": 2301, "pitch": 74, "duration": 2, "velocity": 117}, {"time": 2304, "pitch": 71, "duration": 2, "velocity": 111}, {"time": 2307, "pitch": 76, "duration": 13, "velocity": 111}, {"time": 2307, "pitch": 79, "duration": 35, "velocity": 105}, {"time": 2343, "pitch": 78, "duration": 6, "velocity": 79}, {"time": 2349, "pitch": 74, "duration": 5, "velocity": 108}, {"time": 2355, "pitch": 76, "duration": 19, "velocity": 111}, {"time": 2373, "pitch": 74, "duration": 5, "velocity": 80}, {"time": 2379, "pitch": 71, "duration": 19, "velocity": 102}, {"time": 2436, "pitch": 76, "duration": 3, "velocity": 71}, {"time": 2439, "pitch": 79, "duration": 3, "velocity": 105}, {"time": 2442, "pitch": 76, "duration": 3, "velocity": 102}, {"time": 2445, "pitch": 74, "duration": 5, "velocity": 114}, {"time": 2451, "pitch": 76, "duration": 12, "velocity": 97}, {"time": 2469, "pitch": 76, "duration": 5, "velocity": 97}, {"time": 2475, "pitch": 74, "duration": 22, "velocity": 111}, {"time": 2499, "pitch": 76, "duration": 20, "velocity": 100}, {"time": 2535, "pitch": 79, "duration": 8, "velocity": 97}, {"time": 2547, "pitch": 72, "duration": 17, "velocity": 82}, {"time": 2547, "pitch": 76, "duration": 16, "velocity": 92}, {"time": 2565, "pitch": 74, "duration": 6, "velocity": 100}, {"time": 2571, "pitch": 71, "duration": 23, "velocity": 108}, {"time": 2595, "pitch": 69, "duration": 42, "velocity": 108}, {"time": 2643, "pitch": 76, "duration": 17, "velocity": 92}, {"time": 2643, "pitch": 79, "duration": 17, "velocity": 92}, {"time": 2667, "pitch": 74, "duration": 18, "velocity": 78}, {"time": 2667, "pitch": 78, "duration": 18, "velocity": 85}, {"time": 2691, "pitch": 76, "duration": 25, "velocity": 100}, {"time": 2727, "pitch": 69, "duration": 2, "velocity": 117}, {"time": 2730, "pitch": 71, "duration": 2, "velocity": 120}, {"time": 2733, "pitch": 74, "duration": 5, "velocity": 117}, {"time": 2739, "pitch": 76, "duration": 13, "velocity": 111}, {"time": 2739, "pitch": 79, "duration": 35, "velocity": 105}, {"time": 2775, "pitch": 78, "duration": 6, "velocity": 79}, {"time": 2781, "pitch": 74, "duration": 5, "velocity": 108}, {"time": 2787, "pitch": 76, "duration": 19, "velocity": 111}, {"time": 2805, "pitch": 74, "duration": 5, "velocity": 80}, {"time": 2811, "pitch": 71, "duration": 19, "velocity": 102}, {"time": 2868, "pitch": 76, "duration": 3, "velocity": 71}, {"time": 2871, "pitch": 79, "duration": 3, "velocity": 105}, {"time": 2874, "pitch": 76, "duration": 3, "velocity": 102}, {"time": 2877, "pitch": 74, "duration": 5, "velocity": 114}, {"time": 2883, "pitch": 76, "duration": 12, "velocity": 97}, {"time": 2901, "pitch": 76, "duration": 5, "velocity": 97}, {"time": 2907, "pitch": 74, "duration": 22, "velocity": 111}, {"time": 2931, "pitch": 76, "duration": 20, "velocity": 100}, {"time": 2967, "pitch": 79, "duration": 8, "velocity": 97}, {"time": 2979, "pitch": 72, "duration": 17, "velocity": 82}, {"time": 2979, "pitch": 76, "duration": 16, "velocity": 92}, {"time": 2997, "pitch": 74, "duration": 6, "velocity": 100}, {"time": 3003, "pitch": 71, "duration": 23, "velocity": 108}, {"time": 3027, "pitch": 69, "duration": 42, "velocity": 108}, {"time": 3075, "pitch": 76, "duration": 17, "velocity": 92}, {"time": 3075, "pitch": 79, "duration": 17, "velocity": 92}, {"time": 3099, "pitch": 74, "duration": 18, "velocity": 78}, {"time": 3099, "pitch": 78, "duration": 18, "velocity": 85}, {"time": 3123, "pitch": 76, "duration": 25, "velocity": 100}, {"time": 3171, "pitch": 69, "duration": 2, "velocity": 120}, {"time": 3172, "pitch": 71, "duration": 17, "velocity": 94}, {"time": 3189, "pitch": 71, "duration": 3, "velocity": 105}, {"time": 3192, "pitch": 71, "duration": 3, "velocity": 111}, {"time": 3195, "pitch": 71, "duration": 6, "velocity": 123}, {"time": 3201, "pitch": 69, "duration": 3, "velocity": 117}, {"time": 3204, "pitch": 67, "duration": 3, "velocity": 111}, {"time": 3207, "pitch": 64, "duration": 7, "velocity": 92}, {"time": 3214, "pitch": 64, "duration": 3, "velocity": 120}, {"time": 3217, "pitch": 67, "duration": 3, "velocity": 120}, {"time": 3220, "pitch": 74, "duration": 2, "velocity": 117}, {"time": 3221, "pitch": 76, "duration": 5, "velocity": 84}, {"time": 3226, "pitch": 74, "duration": 3, "velocity": 114}, {"time": 3229, "pitch": 71, "duration": 3, "velocity": 120}, {"time": 3232, "pitch": 72, "duration": 4, "velocity": 117}, {"time": 3236, "pitch": 71, "duration": 4, "velocity": 120}, {"time": 3240, "pitch": 69, "duration": 4, "velocity": 117}, {"time": 3244, "pitch": 69, "duration": 1, "velocity": 89}, {"time": 3244, "pitch": 71, "duration": 9, "velocity": 102}, {"time": 3252, "pitch": 69, "duration": 2, "velocity": 108}, {"time": 3253, "pitch": 67, "duration": 2, "velocity": 108}, {"time": 3255, "pitch": 62, "duration": 12, "velocity": 117}, {"time": 3267, "pitch": 76, "duration": 3, "velocity": 114}, {"time": 3270, "pitch": 78, "duration": 3, "velocity": 105}, {"time": 3273, "pitch": 79, "duration": 3, "velocity": 114}, {"time": 3276, "pitch": 81, "duration": 3, "velocity": 120}, {"time": 3279, "pitch": 81, "duration": 5, "velocity": 123}, {"time": 3284, "pitch": 78, "duration": 4, "velocity": 114}, {"time": 3288, "pitch": 79, "duration": 4, "velocity": 102}, {"time": 3292, "pitch": 86, "duration": 4, "velocity": 114}, {"time": 3296, "pitch": 86, "duration": 4, "velocity": 114}, {"time": 3300, "pitch": 86, "duration": 4, "velocity": 114}, {"time": 3304, "pitch": 86, "duration": 9, "velocity": 114}, {"time": 3313, "pitch": 91, "duration": 3, "velocity": 108}, {"time": 3316, "pitch": 91, "duration": 4, "velocity": 120}, {"time": 3320, "pitch": 90, "duration": 4, "velocity": 119}, {"time": 3324, "pitch": 83, "duration": 4, "velocity": 117}, {"time": 3328, "pitch": 84, "duration": 5, "velocity": 100}, {"time": 3333, "pitch": 83, "duration": 4, "velocity": 111}, {"time": 3337, "pitch": 79, "duration": 3, "velocity": 111}, {"time": 3340, "pitch": 81, "duration": 18, "velocity": 123}, {"time": 3358, "pitch": 86, "duration": 6, "velocity": 123}, {"time": 3364, "pitch": 88, "duration": 48, "velocity": 117}, {"time": 3364, "pitch": 83, "duration": 56, "velocity": 114}]}, {"program": 0, "is_drum": false, "name": "PIANO", "notes": [{"time": 51, "pitch": 40, "duration": 48, "velocity": 108}, {"time": 51, "pitch": 47, "duration": 48, "velocity": 97}, {"time": 51, "pitch": 52, "duration": 48, "velocity": 97}, {"time": 99, "pitch": 52, "duration": 16, "velocity": 114}, {"time": 99, "pitch": 64, "duration": 5, "velocity": 100}, {"time": 99, "pitch": 67, "duration": 8, "velocity": 117}, {"time": 111, "pitch": 64, "duration": 3, "velocity": 108}, {"time": 111, "pitch": 67, "duration": 7, "velocity": 123}, {"time": 111, "pitch": 71, "duration": 7, "velocity": 111}, {"time": 117, "pitch": 64, "duration": 5, "velocity": 66}, {"time": 123, "pitch": 52, "duration": 17, "velocity": 105}, {"time": 123, "pitch": 64, "duration": 6, "velocity": 89}, {"time": 123, "pitch": 67, "duration": 6, "velocity": 94}, {"time": 129, "pitch": 59, "duration": 8, "velocity": 89}, {"time": 135, "pitch": 64, "duration": 4, "velocity": 114}, {"time": 135, "pitch": 67, "duration": 4, "velocity": 123}, {"time": 138, "pitch": 59, "duration": 2, "velocity": 97}, {"time": 141, "pitch": 64, "duration": 3, "velocity": 111}, {"time": 144, "pitch": 67, "duration": 2, "velocity": 89}, {"time": 147, "pitch": 48, "duration": 7, "velocity": 105}, {"time": 147, "pitch": 60, "duration": 6, "velocity": 108}, {"time": 147, "pitch": 64, "duration": 6, "velocity": 102}, {"time": 153, "pitch": 55, "duration": 2, "velocity": 73}, {"time": 159, "pitch": 50, "duration": 6, "velocity": 102}, {"time": 159, "pitch": 62, "duration": 5, "velocity": 105}, {"time": 159, "pitch": 66, "duration": 5, "velocity": 105}, {"time": 171, "pitch": 43, "duration": 17, "velocity": 100}, {"time": 171, "pitch": 62, "duration": 7, "velocity": 94}, {"time": 171, "pitch": 67, "duration": 7, "velocity": 105}, {"time": 177, "pitch": 50, "duration": 7, "velocity": 57}, {"time": 183, "pitch": 62, "duration": 4, "velocity": 108}, {"time": 183, "pitch": 67, "duration": 4, "velocity": 117}, {"time": 183, "pitch": 71, "duration": 4, "velocity": 105}, {"time": 186, "pitch": 50, "duration": 2, "velocity": 92}, {"time": 189, "pitch": 62, "duration": 3, "velocity": 117}, {"time": 195, "pitch": 52, "duration": 15, "velocity": 100}, {"time": 195, "pitch": 64, "duration": 10, "velocity": 82}, {"time": 195, "pitch": 67, "duration": 10, "velocity": 100}, {"time": 207, "pitch": 64, "duration": 4, "velocity": 100}, {"time": 207, "pitch": 67, "duration": 4, "velocity": 117}, {"time": 207, "pitch": 71, "duration": 6, "velocity": 108}, {"time": 210, "pitch": 59, "duration": 2, "velocity": 84}, {"time": 213, "pitch": 64, "duration": 2, "velocity": 114}, {"time": 219, "pitch": 47, "duration": 15, "velocity": 100}, {"time": 219, "pitch": 57, "duration": 6, "velocity": 111}, {"time": 219, "pitch": 62, "duration": 8, "velocity": 100}, {"time": 225, "pitch": 54, "duration": 8, "velocity": 82}, {"time": 231, "pitch": 59, "duration": 5, "velocity": 114}, {"time": 231, "pitch": 62, "duration": 5, "velocity": 114}, {"time": 231, "pitch": 66, "duration": 6, "velocity": 112}, {"time": 237, "pitch": 47, "duration": 2, "velocity": 89}, {"time": 243, "pitch": 48, "duration": 17, "velocity": 111}, {"time": 243, "pitch": 60, "duration": 4, "velocity": 105}, {"time": 243, "pitch": 64, "duration": 4, "velocity": 111}, {"time": 246, "pitch": 55, "duration": 10, "velocity": 58}, {"time": 249, "pitch": 60, "duration": 4, "velocity": 94}, {"time": 255, "pitch": 60, "duration": 3, "velocity": 117}, {"time": 255, "pitch": 67, "duration": 4, "velocity": 108}, {"time": 258, "pitch": 55, "duration": 2, "velocity": 97}, {"time": 261, "pitch": 60, "duration": 2, "velocity": 114}, {"time": 267, "pitch": 50, "duration": 3, "velocity": 105}, {"time": 267, "pitch": 57, "duration": 2, "velocity": 100}, {"time": 267, "pitch": 62, "duration": 2, "velocity": 108}, {"time": 267, "pitch": 66, "duration": 2, "velocity": 105}, {"time": 270, "pitch": 50, "duration": 3, "velocity": 100}, {"time": 270, "pitch": 57, "duration": 3, "velocity": 111}, {"time": 270, "pitch": 62, "duration": 3, "velocity": 114}, {"time": 270, "pitch": 66, "duration": 3, "velocity": 105}, {"time": 279, "pitch": 50, "duration": 6, "velocity": 105}, {"time": 279, "pitch": 57, "duration": 4, "velocity": 100}, {"time": 279, "pitch": 62, "duration": 7, "velocity": 92}, {"time": 279, "pitch": 66, "duration": 7, "velocity": 87}, {"time": 279, "pitch": 69, "duration": 7, "velocity": 92}, {"time": 291, "pitch": 40, "duration": 47, "velocity": 102}, {"time": 291, "pitch": 47, "duration": 46, "velocity": 97}, {"time": 291, "pitch": 52, "duration": 46, "velocity": 97}, {"time": 291, "pitch": 59, "duration": 44, "velocity": 89}, {"time": 339, "pitch": 40, "duration": 39, "velocity": 84}, {"time": 339, "pitch": 47, "duration": 25, "velocity": 78}, {"time": 339, "pitch": 52, "duration": 11, "velocity": 76}, {"time": 351, "pitch": 52, "duration": 10, "velocity": 97}, {"time": 351, "pitch": 55, "duration": 11, "velocity": 97}, {"time": 363, "pitch": 52, "duration": 10, "velocity": 84}, {"time": 363, "pitch": 55, "duration": 10, "velocity": 94}, {"time": 375, "pitch": 52, "duration": 4, "velocity": 100}, {"time": 375, "pitch": 55, "duration": 5, "velocity": 105}, {"time": 387, "pitch": 36, "duration": 6, "velocity": 97}, {"time": 387, "pitch": 48, "duration": 5, "velocity": 92}, {"time": 387, "pitch": 55, "duration": 5, "velocity": 89}, {"time": 399, "pitch": 38, "duration": 7, "velocity": 102}, {"time": 399, "pitch": 50, "duration": 5, "velocity": 82}, {"time": 399, "pitch": 54, "duration": 6, "velocity": 96}, {"time": 399, "pitch": 57, "duration": 6, "velocity": 89}, {"time": 411, "pitch": 40, "duration": 26, "velocity": 94}, {"time": 411, "pitch": 47, "duration": 3, "velocity": 92}, {"time": 411, "pitch": 52, "duration": 7, "velocity": 92}, {"time": 417, "pitch": 47, "duration": 4, "velocity": 60}, {"time": 423, "pitch": 47, "duration": 3, "velocity": 111}, {"time": 423, "pitch": 55, "duration": 11, "velocity": 97}, {"time": 429, "pitch": 47, "duration": 6, "velocity": 87}, {"time": 435, "pitch": 36, "duration": 18, "velocity": 87}, {"time": 435, "pitch": 48, "duration": 9, "velocity": 92}, {"time": 435, "pitch": 52, "duration": 8, "velocity": 92}, {"time": 441, "pitch": 43, "duration": 13, "velocity": 71}, {"time": 447, "pitch": 48, "duration": 7, "velocity": 111}, {"time": 447, "pitch": 55, "duration": 6, "velocity": 97}, {"time": 453, "pitch": 52, "duration": 2, "velocity": 108}, {"time": 459, "pitch": 38, "duration": 18, "velocity": 102}, {"time": 459, "pitch": 50, "duration": 7, "velocity": 97}, {"time": 459, "pitch": 54, "duration": 5, "velocity": 93}, {"time": 465, "pitch": 45, "duration": 12, "velocity": 44}, {"time": 471, "pitch": 50, "duration": 5, "velocity": 97}, {"time": 471, "pitch": 54, "duration": 4, "velocity": 102}, {"time": 471, "pitch": 57, "duration": 4, "velocity": 102}, {"time": 483, "pitch": 43, "duration": 24, "velocity": 89}, {"time": 483, "pitch": 50, "duration": 4, "velocity": 92}, {"time": 483, "pitch": 55, "duration": 8, "velocity": 100}, {"time": 489, "pitch": 50, "duration": 4, "velocity": 48}, {"time": 495, "pitch": 50, "duration": 3, "velocity": 97}, {"time": 495, "pitch": 55, "duration": 11, "velocity": 108}, {"time": 495, "pitch": 59, "duration": 11, "velocity": 105}, {"time": 501, "pitch": 50, "duration": 6, "velocity": 82}, {"time": 507, "pitch": 47, "duration": 24, "velocity": 97}, {"time": 507, "pitch": 59, "duration": 9, "velocity": 87}, {"time": 507, "pitch": 63, "duration": 8, "velocity": 87}, {"time": 507, "pitch": 66, "duration": 9, "velocity": 63}, {"time": 513, "pitch": 54, "duration": 17, "velocity": 74}, {"time": 519, "pitch": 59, "duration": 4, "velocity": 114}, {"time": 519, "pitch": 71, "duration": 12, "velocity": 97}, {"time": 525, "pitch": 59, "duration": 6, "velocity": 97}, {"time": 531, "pitch": 48, "duration": 12, "velocity": 102}, {"time": 531, "pitch": 60, "duration": 8, "velocity": 92}, {"time": 531, "pitch": 67, "duration": 7, "velocity": 84}, {"time": 537, "pitch": 55, "duration": 6, "velocity": 57}, {"time": 543, "pitch": 60, "duration": 3, "velocity": 105}, {"time": 543, "pitch": 64, "duration": 5, "velocity": 105}, {"time": 555, "pitch": 50, "duration": 18, "velocity": 100}, {"time": 555, "pitch": 57, "duration": 4, "velocity": 100}, {"time": 555, "pitch": 66, "duration": 8, "velocity": 87}, {"time": 561, "pitch": 57, "duration": 5, "velocity": 97}, {"time": 567, "pitch": 62, "duration": 7, "velocity": 82}, {"time": 567, "pitch": 66, "duration": 7, "velocity": 102}, {"time": 573, "pitch": 57, "duration": 3, "velocity": 108}, {"time": 579, "pitch": 43, "duration": 7, "velocity": 102}, {"time": 579, "pitch": 55, "duration": 3, "velocity": 100}, {"time": 579, "pitch": 59, "duration": 7, "velocity": 102}, {"time": 585, "pitch": 55, "duration": 2, "velocity": 87}, {"time": 591, "pitch": 42, "duration": 7, "velocity": 93}, {"time": 591, "pitch": 57, "duration": 4, "velocity": 100}, {"time": 591, "pitch": 62, "duration": 8, "velocity": 97}, {"time": 597, "pitch": 57, "duration": 4, "velocity": 102}, {"time": 603, "pitch": 52, "duration": 21, "velocity": 108}, {"time": 603, "pitch": 59, "duration": 3, "velocity": 87}, {"time": 603, "pitch": 64, "duration": 8, "velocity": 89}, {"time": 609, "pitch": 59, "duration": 5, "velocity": 69}, {"time": 615, "pitch": 59, "duration": 3, "velocity": 114}, {"time": 615, "pitch": 67, "duration": 11, "velocity": 100}, {"time": 621, "pitch": 59, "duration": 3, "velocity": 89}, {"time": 627, "pitch": 48, "duration": 15, "velocity": 100}, {"time": 627, "pitch": 60, "duration": 10, "velocity": 97}, {"time": 627, "pitch": 64, "duration": 9, "velocity": 97}, {"time": 633, "pitch": 55, "duration": 9, "velocity": 76}, {"time": 639, "pitch": 60, "duration": 2, "velocity": 89}, {"time": 639, "pitch": 64, "duration": 5, "velocity": 97}, {"time": 639, "pitch": 67, "duration": 7, "velocity": 100}, {"time": 645, "pitch": 60, "duration": 2, "velocity": 80}, {"time": 651, "pitch": 50, "duration": 15, "velocity": 94}, {"time": 651, "pitch": 57, "duration": 4, "velocity": 66}, {"time": 651, "pitch": 62, "duration": 8, "velocity": 89}, {"time": 651, "pitch": 66, "duration": 8, "velocity": 55}, {"time": 657, "pitch": 57, "duration": 4, "velocity": 76}, {"time": 663, "pitch": 57, "duration": 5, "velocity": 105}, {"time": 663, "pitch": 62, "duration": 5, "velocity": 100}, {"time": 663, "pitch": 66, "duration": 6, "velocity": 87}, {"time": 675, "pitch": 52, "duration": 47, "velocity": 102}, {"time": 675, "pitch": 59, "duration": 3, "velocity": 100}, {"time": 675, "pitch": 64, "duration": 9, "velocity": 94}, {"time": 675, "pitch": 67, "duration": 9, "velocity": 97}, {"time": 681, "pitch": 59, "duration": 5, "velocity": 71}, {"time": 687, "pitch": 59, "duration": 3, "velocity": 108}, {"time": 687, "pitch": 64, "duration": 8, "velocity": 94}, {"time": 687, "pitch": 67, "duration": 8, "velocity": 94}, {"time": 693, "pitch": 59, "duration": 6, "velocity": 53}, {"time": 699, "pitch": 59, "duration": 1, "velocity": 7}, {"time": 699, "pitch": 64, "duration": 9, "velocity": 92}, {"time": 699, "pitch": 67, "duration": 9, "velocity": 100}, {"time": 705, "pitch": 59, "duration": 4, "velocity": 73}, {"time": 711, "pitch": 59, "duration": 4, "velocity": 108}, {"time": 711, "pitch": 64, "duration": 4, "velocity": 105}, {"time": 711, "pitch": 71, "duration": 4, "velocity": 87}, {"time": 717, "pitch": 69, "duration": 5, "velocity": 105}, {"time": 723, "pitch": 52, "duration": 22, "velocity": 100}, {"time": 723, "pitch": 64, "duration": 7, "velocity": 97}, {"time": 723, "pitch": 67, "duration": 7, "velocity": 102}, {"time": 729, "pitch": 59, "duration": 10, "velocity": 67}, {"time": 735, "pitch": 64, "duration": 6, "velocity": 114}, {"time": 735, "pitch": 71, "duration": 7, "velocity": 114}, {"time": 741, "pitch": 59, "duration": 5, "velocity": 73}, {"time": 744, "pitch": 64, "duration": 3, "velocity": 108}, {"time": 747, "pitch": 52, "duration": 20, "velocity": 102}, {"time": 747, "pitch": 64, "duration": 7, "velocity": 92}, {"time": 747, "pitch": 67, "duration": 7, "velocity": 100}, {"time": 753, "pitch": 59, "duration": 8, "velocity": 71}, {"time": 756, "pitch": 64, "duration": 1, "velocity": 57}, {"time": 759, "pitch": 71, "duration": 8, "velocity": 108}, {"time": 762, "pitch": 59, "duration": 5, "velocity": 89}, {"time": 765, "pitch": 64, "duration": 5, "velocity": 100}, {"time": 768, "pitch": 67, "duration": 2, "velocity": 67}, {"time": 771, "pitch": 48, "duration": 10, "velocity": 89}, {"time": 771, "pitch": 60, "duration": 4, "velocity": 89}, {"time": 771, "pitch": 64, "duration": 5, "velocity": 100}, {"time": 774, "pitch": 55, "duration": 7, "velocity": 58}, {"time": 777, "pitch": 60, "duration": 4, "velocity": 100}, {"time": 783, "pitch": 50, "duration": 10, "velocity": 100}, {"time": 783, "pitch": 62, "duration": 7, "velocity": 97}, {"time": 783, "pitch": 66, "duration": 7, "velocity": 102}, {"time": 789, "pitch": 57, "duration": 5, "velocity": 50}, {"time": 795, "pitch": 52, "duration": 18, "velocity": 102}, {"time": 795, "pitch": 64, "duration": 7, "velocity": 89}, {"time": 795, "pitch": 67, "duration": 9, "velocity": 89}, {"time": 801, "pitch": 59, "duration": 7, "velocity": 78}, {"time": 804, "pitch": 64, "duration": 2, "velocity": 76}, {"time": 807, "pitch": 64, "duration": 3, "velocity": 108}, {"time": 807, "pitch": 71, "duration": 8, "velocity": 102}, {"time": 810, "pitch": 59, "duration": 3, "velocity": 92}, {"time": 813, "pitch": 64, "duration": 4, "velocity": 97}, {"time": 816, "pitch": 67, "duration": 2, "velocity": 80}, {"time": 819, "pitch": 48, "duration": 19, "velocity": 97}, {"time": 819, "pitch": 60, "duration": 9, "velocity": 84}, {"time": 819, "pitch": 64, "duration": 8, "velocity": 97}, {"time": 825, "pitch": 55, "duration": 7, "velocity": 69}, {"time": 831, "pitch": 60, "duration": 4, "velocity": 117}, {"time": 831, "pitch": 67, "duration": 5, "velocity": 100}, {"time": 834, "pitch": 55, "duration": 5, "velocity": 87}, {"time": 837, "pitch": 60, "duration": 3, "velocity": 102}, {"time": 843, "pitch": 50, "duration": 22, "velocity": 102}, {"time": 843, "pitch": 62, "duration": 9, "velocity": 97}, {"time": 843, "pitch": 66, "duration": 8, "velocity": 102}, {"time": 849, "pitch": 57, "duration": 15, "velocity": 92}, {"time": 855, "pitch": 62, "duration": 3, "velocity": 105}, {"time": 855, "pitch": 66, "duration": 7, "velocity": 112}, {"time": 855, "pitch": 69, "duration": 8, "velocity": 102}, {"time": 861, "pitch": 62, "duration": 4, "velocity": 89}, {"time": 867, "pitch": 55, "duration": 14, "velocity": 94}, {"time": 867, "pitch": 62, "duration": 7, "velocity": 97}, {"time": 867, "pitch": 67, "duration": 10, "velocity": 97}, {"time": 873, "pitch": 59, "duration": 8, "velocity": 66}, {"time": 876, "pitch": 62, "duration": 2, "velocity": 84}, {"time": 879, "pitch": 62, "duration": 4, "velocity": 114}, {"time": 879, "pitch": 71, "duration": 7, "velocity": 102}, {"time": 882, "pitch": 59, "duration": 2, "velocity": 89}, {"time": 885, "pitch": 62, "duration": 2, "velocity": 105}, {"time": 891, "pitch": 47, "duration": 19, "velocity": 102}, {"time": 891, "pitch": 59, "duration": 10, "velocity": 92}, {"time": 891, "pitch": 66, "duration": 4, "velocity": 45}, {"time": 897, "pitch": 54, "duration": 7, "velocity": 85}, {"time": 903, "pitch": 59, "duration": 6, "velocity": 111}, {"time": 903, "pitch": 63, "duration": 11, "velocity": 109}, {"time": 903, "pitch": 66, "duration": 11, "velocity": 96}, {"time": 909, "pitch": 54, "duration": 2, "velocity": 93}, {"time": 912, "pitch": 59, "duration": 3, "velocity": 111}, {"time": 915, "pitch": 48, "duration": 15, "velocity": 100}, {"time": 915, "pitch": 60, "duration": 8, "velocity": 102}, {"time": 915, "pitch": 67, "duration": 8, "velocity": 97}, {"time": 921, "pitch": 55, "duration": 7, "velocity": 87}, {"time": 927, "pitch": 60, "duration": 6, "velocity": 102}, {"time": 927, "pitch": 64, "duration": 9, "velocity": 105}, {"time": 933, "pitch": 55, "duration": 4, "velocity": 87}, {"time": 936, "pitch": 60, "duration": 2, "velocity": 87}, {"time": 939, "pitch": 50, "duration": 22, "velocity": 97}, {"time": 939, "pitch": 62, "duration": 6, "velocity": 84}, {"time": 939, "pitch": 66, "duration": 6, "velocity": 82}, {"time": 945, "pitch": 57, "duration": 7, "velocity": 87}, {"time": 951, "pitch": 62, "duration": 4, "velocity": 105}, {"time": 951, "pitch": 66, "duration": 5, "velocity": 109}, {"time": 951, "pitch": 69, "duration": 5, "velocity": 105}, {"time": 954, "pitch": 57, "duration": 7, "velocity": 87}, {"time": 957, "pitch": 62, "duration": 4, "velocity": 102}, {"time": 963, "pitch": 55, "duration": 9, "velocity": 94}, {"time": 963, "pitch": 62, "duration": 4, "velocity": 108}, {"time": 963, "pitch": 67, "duration": 7, "velocity": 105}, {"time": 969, "pitch": 62, "duration": 2, "velocity": 105}, {"time": 975, "pitch": 50, "duration": 10, "velocity": 97}, {"time": 975, "pitch": 62, "duration": 4, "velocity": 108}, {"time": 975, "pitch": 66, "duration": 7, "velocity": 109}, {"time": 981, "pitch": 62, "duration": 3, "velocity": 94}, {"time": 987, "pitch": 52, "duration": 18, "velocity": 105}, {"time": 987, "pitch": 64, "duration": 8, "velocity": 97}, {"time": 987, "pitch": 67, "duration": 9, "velocity": 97}, {"time": 993, "pitch": 59, "duration": 7, "velocity": 80}, {"time": 999, "pitch": 64, "duration": 3, "velocity": 114}, {"time": 999, "pitch": 71, "duration": 5, "velocity": 105}, {"time": 1002, "pitch": 59, "duration": 4, "velocity": 94}, {"time": 1005, "pitch": 64, "duration": 3, "velocity": 97}, {"time": 1011, "pitch": 48, "duration": 21, "velocity": 100}, {"time": 1011, "pitch": 60, "duration": 10, "velocity": 92}, {"time": 1011, "pitch": 64, "duration": 9, "velocity": 97}, {"time": 1017, "pitch": 55, "duration": 7, "velocity": 80}, {"time": 1023, "pitch": 60, "duration": 6, "velocity": 102}, {"time": 1023, "pitch": 67, "duration": 7, "velocity": 97}, {"time": 1029, "pitch": 55, "duration": 5, "velocity": 76}, {"time": 1032, "pitch": 60, "duration": 2, "velocity": 92}, {"time": 1035, "pitch": 50, "duration": 16, "velocity": 105}, {"time": 1035, "pitch": 62, "duration": 7, "velocity": 87}, {"time": 1035, "pitch": 66, "duration": 7, "velocity": 54}, {"time": 1041, "pitch": 57, "duration": 8, "velocity": 87}, {"time": 1044, "pitch": 62, "duration": 2, "velocity": 78}, {"time": 1047, "pitch": 62, "duration": 7, "velocity": 108}, {"time": 1047, "pitch": 66, "duration": 7, "velocity": 105}, {"time": 1053, "pitch": 50, "duration": 4, "velocity": 100}, {"time": 1059, "pitch": 52, "duration": 17, "velocity": 102}, {"time": 1059, "pitch": 64, "duration": 10, "velocity": 89}, {"time": 1059, "pitch": 67, "duration": 9, "velocity": 97}, {"time": 1065, "pitch": 59, "duration": 8, "velocity": 80}, {"time": 1071, "pitch": 64, "duration": 6, "velocity": 102}, {"time": 1071, "pitch": 67, "duration": 7, "velocity": 114}, {"time": 1071, "pitch": 71, "duration": 7, "velocity": 111}, {"time": 1077, "pitch": 59, "duration": 4, "velocity": 84}, {"time": 1080, "pitch": 64, "duration": 2, "velocity": 82}, {"time": 1083, "pitch": 52, "duration": 2, "velocity": 105}, {"time": 1083, "pitch": 59, "duration": 2, "velocity": 97}, {"time": 1083, "pitch": 64, "duration": 2, "velocity": 92}, {"time": 1083, "pitch": 67, "duration": 2, "velocity": 102}, {"time": 1086, "pitch": 52, "duration": 5, "velocity": 100}, {"time": 1086, "pitch": 59, "duration": 4, "velocity": 105}, {"time": 1086, "pitch": 64, "duration": 4, "velocity": 97}, {"time": 1086, "pitch": 67, "duration": 4, "velocity": 102}, {"time": 1095, "pitch": 52, "duration": 8, "velocity": 111}, {"time": 1095, "pitch": 64, "duration": 4, "velocity": 97}, {"time": 1095, "pitch": 67, "duration": 5, "velocity": 102}, {"time": 1095, "pitch": 71, "duration": 5, "velocity": 100}, {"time": 1098, "pitch": 59, "duration": 5, "velocity": 100}, {"time": 1101, "pitch": 64, "duration": 2, "velocity": 114}, {"time": 1104, "pitch": 64, "duration": 2, "velocity": 58}, {"time": 1104, "pitch": 67, "duration": 2, "velocity": 111}, {"time": 1107, "pitch": 52, "duration": 20, "velocity": 120}, {"time": 1107, "pitch": 64, "duration": 3, "velocity": 102}, {"time": 1107, "pitch": 67, "duration": 6, "velocity": 114}, {"time": 1113, "pitch": 64, "duration": 3, "velocity": 94}, {"time": 1119, "pitch": 64, "duration": 2, "velocity": 120}, {"time": 1119, "pitch": 71, "duration": 4, "velocity": 114}, {"time": 1122, "pitch": 64, "duration": 2, "velocity": 100}, {"time": 1125, "pitch": 67, "duration": 2, "velocity": 111}, {"time": 1128, "pitch": 64, "duration": 2, "velocity": 73}, {"time": 1131, "pitch": 52, "duration": 17, "velocity": 97}, {"time": 1131, "pitch": 64, "duration": 4, "velocity": 97}, {"time": 1131, "pitch": 67, "duration": 4, "velocity": 100}, {"time": 1134, "pitch": 59, "duration": 11, "velocity": 35}, {"time": 1137, "pitch": 64, "duration": 4, "velocity": 82}, {"time": 1140, "pitch": 67, "duration": 1, "velocity": 55}, {"time": 1143, "pitch": 64, "duration": 4, "velocity": 111}, {"time": 1143, "pitch": 67, "duration": 4, "velocity": 114}, {"time": 1143, "pitch": 71, "duration": 4, "velocity": 111}, {"time": 1146, "pitch": 59, "duration": 3, "velocity": 102}, {"time": 1149, "pitch": 64, "duration": 5, "velocity": 111}, {"time": 1152, "pitch": 67, "duration": 2, "velocity": 50}, {"time": 1155, "pitch": 48, "duration": 10, "velocity": 102}, {"time": 1155, "pitch": 60, "duration": 4, "velocity": 105}, {"time": 1155, "pitch": 64, "duration": 5, "velocity": 117}, {"time": 1158, "pitch": 55, "duration": 8, "velocity": 89}, {"time": 1161, "pitch": 60, "duration": 4, "velocity": 97}, {"time": 1164, "pitch": 64, "duration": 2, "velocity": 84}, {"time": 1167, "pitch": 50, "duration": 11, "velocity": 102}, {"time": 1167, "pitch": 62, "duration": 4, "velocity": 102}, {"time": 1167, "pitch": 66, "duration": 7, "velocity": 112}, {"time": 1170, "pitch": 57, "duration": 8, "velocity": 92}, {"time": 1173, "pitch": 62, "duration": 4, "velocity": 102}, {"time": 1176, "pitch": 66, "duration": 2, "velocity": 99}, {"time": 1179, "pitch": 55, "duration": 14, "velocity": 94}, {"time": 1179, "pitch": 62, "duration": 8, "velocity": 94}, {"time": 1179, "pitch": 67, "duration": 8, "velocity": 105}, {"time": 1185, "pitch": 59, "duration": 9, "velocity": 67}, {"time": 1191, "pitch": 62, "duration": 3, "velocity": 111}, {"time": 1191, "pitch": 67, "duration": 6, "velocity": 114}, {"time": 1191, "pitch": 71, "duration": 6, "velocity": 105}, {"time": 1197, "pitch": 62, "duration": 2, "velocity": 82}, {"time": 1203, "pitch": 45, "duration": 23, "velocity": 105}, {"time": 1203, "pitch": 57, "duration": 6, "velocity": 94}, {"time": 1203, "pitch": 60, "duration": 7, "velocity": 100}, {"time": 1209, "pitch": 52, "duration": 8, "velocity": 69}, {"time": 1212, "pitch": 57, "duration": 1, "velocity": 69}, {"time": 1215, "pitch": 57, "duration": 5, "velocity": 105}, {"time": 1215, "pitch": 60, "duration": 5, "velocity": 108}, {"time": 1215, "pitch": 64, "duration": 5, "velocity": 102}, {"time": 1221, "pitch": 52, "duration": 5, "velocity": 80}, {"time": 1224, "pitch": 57, "duration": 2, "velocity": 97}, {"time": 1227, "pitch": 45, "duration": 16, "velocity": 94}, {"time": 1227, "pitch": 57, "duration": 7, "velocity": 100}, {"time": 1227, "pitch": 60, "duration": 7, "velocity": 102}, {"time": 1227, "pitch": 64, "duration": 7, "velocity": 94}, {"time": 1233, "pitch": 52, "duration": 7, "velocity": 50}, {"time": 1236, "pitch": 57, "duration": 2, "velocity": 87}, {"time": 1239, "pitch": 57, "duration": 3, "velocity": 117}, {"time": 1239, "pitch": 60, "duration": 4, "velocity": 114}, {"time": 1239, "pitch": 64, "duration": 4, "velocity": 105}, {"time": 1242, "pitch": 52, "duration": 2, "velocity": 114}, {"time": 1245, "pitch": 57, "duration": 4, "velocity": 117}, {"time": 1248, "pitch": 60, "duration": 2, "velocity": 94}, {"time": 1251, "pitch": 48, "duration": 17, "velocity": 102}, {"time": 1251, "pitch": 60, "duration": 6, "velocity": 87}, {"time": 1251, "pitch": 64, "duration": 6, "velocity": 105}, {"time": 1257, "pitch": 55, "duration": 7, "velocity": 84}, {"time": 1263, "pitch": 60, "duration": 4, "velocity": 105}, {"time": 1263, "pitch": 64, "duration": 4, "velocity": 102}, {"time": 1263, "pitch": 67, "duration": 5, "velocity": 114}, {"time": 1266, "pitch": 55, "duration": 4, "velocity": 97}, {"time": 1269, "pitch": 60, "duration": 4, "velocity": 105}, {"time": 1272, "pitch": 64, "duration": 3, "velocity": 108}, {"time": 1275, "pitch": 50, "duration": 13, "velocity": 108}, {"time": 1275, "pitch": 62, "duration": 4, "velocity": 108}, {"time": 1275, "pitch": 66, "duration": 5, "velocity": 112}, {"time": 1278, "pitch": 57, "duration": 8, "velocity": 100}, {"time": 1281, "pitch": 62, "duration": 1, "velocity": 94}, {"time": 1284, "pitch": 62, "duration": 5, "velocity": 114}, {"time": 1284, "pitch": 66, "duration": 6, "velocity": 116}, {"time": 1287, "pitch": 57, "duration": 4, "velocity": 111}, {"time": 1290, "pitch": 62, "duration": 5, "velocity": 111}, {"time": 1290, "pitch": 66, "duration": 5, "velocity": 79}, {"time": 1293, "pitch": 57, "duration": 3, "velocity": 87}, {"time": 1296, "pitch": 62, "duration": 2, "velocity": 100}, {"time": 1299, "pitch": 52, "duration": 22, "velocity": 111}, {"time": 1299, "pitch": 64, "duration": 9, "velocity": 111}, {"time": 1299, "pitch": 67, "duration": 8, "velocity": 120}, {"time": 1305, "pitch": 59, "duration": 8, "velocity": 94}, {"time": 1311, "pitch": 64, "duration": 6, "velocity": 108}, {"time": 1311, "pitch": 67, "duration": 6, "velocity": 123}, {"time": 1311, "pitch": 71, "duration": 5, "velocity": 108}, {"time": 1317, "pitch": 59, "duration": 5, "velocity": 82}, {"time": 1320, "pitch": 64, "duration": 2, "velocity": 97}, {"time": 1323, "pitch": 52, "duration": 16, "velocity": 108}, {"time": 1323, "pitch": 64, "duration": 6, "velocity": 80}, {"time": 1323, "pitch": 67, "duration": 7, "velocity": 100}, {"time": 1323, "pitch": 71, "duration": 7, "velocity": 108}, {"time": 1329, "pitch": 59, "duration": 6, "velocity": 97}, {"time": 1332, "pitch": 67, "duration": 2, "velocity": 100}, {"time": 1332, "pitch": 71, "duration": 2, "velocity": 100}, {"time": 1335, "pitch": 67, "duration": 4, "velocity": 123}, {"time": 1335, "pitch": 71, "duration": 5, "velocity": 117}, {"time": 1338, "pitch": 59, "duration": 2, "velocity": 111}, {"time": 1341, "pitch": 69, "duration": 5, "velocity": 108}, {"time": 1347, "pitch": 48, "duration": 10, "velocity": 105}, {"time": 1347, "pitch": 67, "duration": 4, "velocity": 117}, {"time": 1350, "pitch": 55, "duration": 7, "velocity": 73}, {"time": 1353, "pitch": 60, "duration": 4, "velocity": 100}, {"time": 1356, "pitch": 64, "duration": 2, "velocity": 100}, {"time": 1359, "pitch": 50, "duration": 12, "velocity": 102}, {"time": 1359, "pitch": 62, "duration": 7, "velocity": 100}, {"time": 1359, "pitch": 66, "duration": 9, "velocity": 109}, {"time": 1365, "pitch": 57, "duration": 5, "velocity": 111}, {"time": 1368, "pitch": 62, "duration": 2, "velocity": 102}, {"time": 1371, "pitch": 55, "duration": 14, "velocity": 114}, {"time": 1371, "pitch": 62, "duration": 7, "velocity": 100}, {"time": 1371, "pitch": 67, "duration": 7, "velocity": 108}, {"time": 1377, "pitch": 59, "duration": 8, "velocity": 94}, {"time": 1380, "pitch": 62, "duration": 2, "velocity": 78}, {"time": 1383, "pitch": 62, "duration": 4, "velocity": 105}, {"time": 1383, "pitch": 67, "duration": 6, "velocity": 105}, {"time": 1383, "pitch": 71, "duration": 8, "velocity": 102}, {"time": 1386, "pitch": 59, "duration": 5, "velocity": 58}, {"time": 1389, "pitch": 62, "duration": 4, "velocity": 111}, {"time": 1392, "pitch": 67, "duration": 2, "velocity": 105}, {"time": 1395, "pitch": 45, "duration": 23, "velocity": 100}, {"time": 1395, "pitch": 57, "duration": 6, "velocity": 92}, {"time": 1395, "pitch": 60, "duration": 7, "velocity": 92}, {"time": 1401, "pitch": 52, "duration": 8, "velocity": 100}, {"time": 1404, "pitch": 57, "duration": 2, "velocity": 102}, {"time": 1407, "pitch": 57, "duration": 7, "velocity": 97}, {"time": 1407, "pitch": 60, "duration": 7, "velocity": 117}, {"time": 1407, "pitch": 64, "duration": 7, "velocity": 111}, {"time": 1413, "pitch": 52, "duration": 5, "velocity": 80}, {"time": 1416, "pitch": 57, "duration": 4, "velocity": 62}, {"time": 1416, "pitch": 60, "duration": 10, "velocity": 97}, {"time": 1416, "pitch": 64, "duration": 8, "velocity": 102}, {"time": 1416, "pitch": 69, "duration": 10, "velocity": 92}, {"time": 1419, "pitch": 45, "duration": 19, "velocity": 89}, {"time": 1422, "pitch": 52, "duration": 11, "velocity": 80}, {"time": 1425, "pitch": 57, "duration": 5, "velocity": 80}, {"time": 1431, "pitch": 57, "duration": 4, "velocity": 111}, {"time": 1431, "pitch": 60, "duration": 5, "velocity": 111}, {"time": 1431, "pitch": 64, "duration": 5, "velocity": 108}, {"time": 1434, "pitch": 52, "duration": 5, "velocity": 87}, {"time": 1437, "pitch": 57, "duration": 4, "velocity": 114}, {"time": 1440, "pitch": 60, "duration": 2, "velocity": 94}, {"time": 1443, "pitch": 48, "duration": 21, "velocity": 105}, {"time": 1443, "pitch": 60, "duration": 7, "velocity": 84}, {"time": 1443, "pitch": 64, "duration": 7, "velocity": 97}, {"time": 1449, "pitch": 55, "duration": 7, "velocity": 76}, {"time": 1452, "pitch": 60, "duration": 2, "velocity": 97}, {"time": 1455, "pitch": 60, "duration": 4, "velocity": 120}, {"time": 1455, "pitch": 64, "duration": 4, "velocity": 117}, {"time": 1458, "pitch": 55, "duration": 7, "velocity": 84}, {"time": 1461, "pitch": 60, "duration": 4, "velocity": 97}, {"time": 1464, "pitch": 64, "duration": 2, "velocity": 84}, {"time": 1467, "pitch": 50, "duration": 11, "velocity": 105}, {"time": 1467, "pitch": 62, "duration": 4, "velocity": 100}, {"time": 1467, "pitch": 66, "duration": 5, "velocity": 105}, {"time": 1470, "pitch": 57, "duration": 7, "velocity": 82}, {"time": 1473, "pitch": 62, "duration": 2, "velocity": 84}, {"time": 1476, "pitch": 62, "duration": 4, "velocity": 114}, {"time": 1476, "pitch": 66, "duration": 5, "velocity": 109}, {"time": 1476, "pitch": 69, "duration": 4, "velocity": 105}, {"time": 1479, "pitch": 57, "duration": 5, "velocity": 102}, {"time": 1482, "pitch": 62, "duration": 5, "velocity": 114}, {"time": 1482, "pitch": 66, "duration": 8, "velocity": 112}, {"time": 1488, "pitch": 62, "duration": 2, "velocity": 100}, {"time": 1491, "pitch": 48, "duration": 23, "velocity": 108}, {"time": 1491, "pitch": 60, "duration": 7, "velocity": 102}, {"time": 1491, "pitch": 67, "duration": 7, "velocity": 105}, {"time": 1497, "pitch": 55, "duration": 5, "velocity": 60}, {"time": 1500, "pitch": 60, "duration": 4, "velocity": 108}, {"time": 1500, "pitch": 64, "duration": 4, "velocity": 111}, {"time": 1503, "pitch": 55, "duration": 5, "velocity": 71}, {"time": 1506, "pitch": 64, "duration": 8, "velocity": 97}, {"time": 1509, "pitch": 55, "duration": 6, "velocity": 87}, {"time": 1512, "pitch": 60, "duration": 10, "velocity": 108}, {"time": 1515, "pitch": 48, "duration": 24, "velocity": 102}, {"time": 1515, "pitch": 64, "duration": 7, "velocity": 111}, {"time": 1515, "pitch": 67, "duration": 7, "velocity": 100}, {"time": 1521, "pitch": 55, "duration": 7, "velocity": 73}, {"time": 1524, "pitch": 60, "duration": 2, "velocity": 55}, {"time": 1524, "pitch": 64, "duration": 2, "velocity": 71}, {"time": 1524, "pitch": 67, "duration": 2, "velocity": 73}, {"time": 1527, "pitch": 60, "duration": 3, "velocity": 108}, {"time": 1527, "pitch": 64, "duration": 4, "velocity": 108}, {"time": 1527, "pitch": 67, "duration": 4, "velocity": 105}, {"time": 1530, "pitch": 55, "duration": 9, "velocity": 92}, {"time": 1533, "pitch": 60, "duration": 5, "velocity": 114}, {"time": 1536, "pitch": 64, "duration": 3, "velocity": 82}, {"time": 1539, "pitch": 52, "duration": 17, "velocity": 108}, {"time": 1539, "pitch": 64, "duration": 8, "velocity": 97}, {"time": 1539, "pitch": 67, "duration": 7, "velocity": 108}, {"time": 1545, "pitch": 59, "duration": 7, "velocity": 84}, {"time": 1551, "pitch": 64, "duration": 4, "velocity": 111}, {"time": 1551, "pitch": 67, "duration": 4, "velocity": 117}, {"time": 1551, "pitch": 71, "duration": 4, "velocity": 108}, {"time": 1554, "pitch": 59, "duration": 2, "velocity": 87}, {"time": 1557, "pitch": 64, "duration": 2, "velocity": 89}, {"time": 1560, "pitch": 64, "duration": 7, "velocity": 108}, {"time": 1560, "pitch": 67, "duration": 8, "velocity": 111}, {"time": 1563, "pitch": 52, "duration": 16, "velocity": 102}, {"time": 1566, "pitch": 59, "duration": 10, "velocity": 78}, {"time": 1569, "pitch": 64, "duration": 4, "velocity": 80}, {"time": 1575, "pitch": 64, "duration": 3, "velocity": 111}, {"time": 1575, "pitch": 67, "duration": 4, "velocity": 117}, {"time": 1575, "pitch": 71, "duration": 5, "velocity": 108}, {"time": 1578, "pitch": 59, "duration": 2, "velocity": 102}, {"time": 1581, "pitch": 64, "duration": 5, "velocity": 114}, {"time": 1584, "pitch": 67, "duration": 2, "velocity": 80}, {"time": 1587, "pitch": 48, "duration": 10, "velocity": 102}, {"time": 1587, "pitch": 60, "duration": 5, "velocity": 111}, {"time": 1587, "pitch": 64, "duration": 6, "velocity": 114}, {"time": 1590, "pitch": 55, "duration": 8, "velocity": 67}, {"time": 1593, "pitch": 60, "duration": 4, "velocity": 84}, {"time": 1596, "pitch": 64, "duration": 2, "velocity": 89}, {"time": 1599, "pitch": 50, "duration": 11, "velocity": 94}, {"time": 1599, "pitch": 62, "duration": 4, "velocity": 100}, {"time": 1599, "pitch": 66, "duration": 7, "velocity": 109}, {"time": 1602, "pitch": 57, "duration": 8, "velocity": 80}, {"time": 1605, "pitch": 62, "duration": 4, "velocity": 100}, {"time": 1608, "pitch": 66, "duration": 2, "velocity": 105}, {"time": 1611, "pitch": 55, "duration": 14, "velocity": 100}, {"time": 1611, "pitch": 62, "duration": 8, "velocity": 87}, {"time": 1611, "pitch": 67, "duration": 7, "velocity": 78}, {"time": 1617, "pitch": 59, "duration": 8, "velocity": 84}, {"time": 1623, "pitch": 62, "duration": 3, "velocity": 114}, {"time": 1623, "pitch": 67, "duration": 4, "velocity": 117}, {"time": 1623, "pitch": 71, "duration": 4, "velocity": 105}, {"time": 1626, "pitch": 59, "duration": 2, "velocity": 82}, {"time": 1629, "pitch": 62, "duration": 2, "velocity": 114}, {"time": 1635, "pitch": 45, "duration": 23, "velocity": 105}, {"time": 1635, "pitch": 57, "duration": 7, "velocity": 105}, {"time": 1635, "pitch": 60, "duration": 7, "velocity": 97}, {"time": 1641, "pitch": 52, "duration": 7, "velocity": 66}, {"time": 1644, "pitch": 57, "duration": 2, "velocity": 84}, {"time": 1647, "pitch": 57, "duration": 3, "velocity": 114}, {"time": 1647, "pitch": 64, "duration": 5, "velocity": 97}, {"time": 1650, "pitch": 52, "duration": 8, "velocity": 73}, {"time": 1653, "pitch": 57, "duration": 2, "velocity": 80}, {"time": 1656, "pitch": 57, "duration": 7, "velocity": 111}, {"time": 1656, "pitch": 60, "duration": 8, "velocity": 105}, {"time": 1659, "pitch": 45, "duration": 22, "velocity": 94}, {"time": 1662, "pitch": 52, "duration": 8, "velocity": 76}, {"time": 1665, "pitch": 57, "duration": 2, "velocity": 92}, {"time": 1668, "pitch": 57, "duration": 8, "velocity": 111}, {"time": 1668, "pitch": 60, "duration": 8, "velocity": 111}, {"time": 1671, "pitch": 52, "duration": 9, "velocity": 84}, {"time": 1677, "pitch": 57, "duration": 3, "velocity": 108}, {"time": 1677, "pitch": 60, "duration": 3, "velocity": 111}, {"time": 1677, "pitch": 64, "duration": 3, "velocity": 105}, {"time": 1683, "pitch": 43, "duration": 17, "velocity": 92}, {"time": 1683, "pitch": 55, "duration": 10, "velocity": 78}, {"time": 1683, "pitch": 57, "duration": 2, "velocity": 71}, {"time": 1683, "pitch": 59, "duration": 9, "velocity": 69}, {"time": 1689, "pitch": 50, "duration": 8, "velocity": 78}, {"time": 1695, "pitch": 55, "duration": 4, "velocity": 108}, {"time": 1695, "pitch": 59, "duration": 4, "velocity": 117}, {"time": 1695, "pitch": 62, "duration": 5, "velocity": 111}, {"time": 1698, "pitch": 50, "duration": 2, "velocity": 92}, {"time": 1701, "pitch": 55, "duration": 4, "velocity": 100}, {"time": 1704, "pitch": 57, "duration": 3, "velocity": 102}, {"time": 1707, "pitch": 47, "duration": 16, "velocity": 105}, {"time": 1707, "pitch": 59, "duration": 4, "velocity": 108}, {"time": 1713, "pitch": 59, "duration": 2, "velocity": 89}, {"time": 1716, "pitch": 59, "duration": 2, "velocity": 105}, {"time": 1716, "pitch": 63, "duration": 2, "velocity": 109}, {"time": 1716, "pitch": 65, "duration": 1, "velocity": 94}, {"time": 1716, "pitch": 66, "duration": 2, "velocity": 79}, {"time": 1719, "pitch": 59, "duration": 4, "velocity": 111}, {"time": 1719, "pitch": 63, "duration": 5, "velocity": 109}, {"time": 1719, "pitch": 66, "duration": 5, "velocity": 96}, {"time": 1722, "pitch": 54, "duration": 3, "velocity": 72}, {"time": 1725, "pitch": 59, "duration": 5, "velocity": 114}, {"time": 1728, "pitch": 63, "duration": 2, "velocity": 109}, {"time": 1731, "pitch": 52, "duration": 22, "velocity": 102}, {"time": 1731, "pitch": 59, "duration": 4, "velocity": 87}, {"time": 1731, "pitch": 64, "duration": 6, "velocity": 80}, {"time": 1737, "pitch": 59, "duration": 8, "velocity": 89}, {"time": 1743, "pitch": 64, "duration": 5, "velocity": 114}, {"time": 1743, "pitch": 67, "duration": 6, "velocity": 127}, {"time": 1749, "pitch": 59, "duration": 5, "velocity": 73}, {"time": 1752, "pitch": 64, "duration": 6, "velocity": 111}, {"time": 1752, "pitch": 67, "duration": 7, "velocity": 117}, {"time": 1752, "pitch": 71, "duration": 8, "velocity": 111}, {"time": 1755, "pitch": 52, "duration": 13, "velocity": 105}, {"time": 1758, "pitch": 59, "duration": 9, "velocity": 82}, {"time": 1761, "pitch": 64, "duration": 2, "velocity": 73}, {"time": 1764, "pitch": 64, "duration": 2, "velocity": 111}, {"time": 1764, "pitch": 67, "duration": 2, "velocity": 108}, {"time": 1767, "pitch": 64, "duration": 4, "velocity": 120}, {"time": 1767, "pitch": 67, "duration": 4, "velocity": 120}, {"time": 1770, "pitch": 59, "duration": 2, "velocity": 102}, {"time": 1773, "pitch": 64, "duration": 2, "velocity": 111}, {"time": 1776, "pitch": 67, "duration": 2, "velocity": 73}, {"time": 1779, "pitch": 48, "duration": 10, "velocity": 102}, {"time": 1779, "pitch": 60, "duration": 6, "velocity": 89}, {"time": 1779, "pitch": 67, "duration": 7, "velocity": 100}, {"time": 1785, "pitch": 55, "duration": 4, "velocity": 84}, {"time": 1788, "pitch": 60, "duration": 2, "velocity": 108}, {"time": 1791, "pitch": 50, "duration": 11, "velocity": 100}, {"time": 1791, "pitch": 62, "duration": 4, "velocity": 100}, {"time": 1791, "pitch": 66, "duration": 7, "velocity": 87}, {"time": 1794, "pitch": 57, "duration": 6, "velocity": 82}, {"time": 1797, "pitch": 62, "duration": 5, "velocity": 84}, {"time": 1800, "pitch": 66, "duration": 2, "velocity": 109}, {"time": 1803, "pitch": 55, "duration": 14, "velocity": 108}, {"time": 1803, "pitch": 62, "duration": 6, "velocity": 102}, {"time": 1803, "pitch": 67, "duration": 7, "velocity": 105}, {"time": 1809, "pitch": 59, "duration": 7, "velocity": 71}, {"time": 1812, "pitch": 62, "duration": 2, "velocity": 73}, {"time": 1815, "pitch": 62, "duration": 4, "velocity": 108}, {"time": 1815, "pitch": 67, "duration": 7, "velocity": 111}, {"time": 1815, "pitch": 71, "duration": 6, "velocity": 108}, {"time": 1818, "pitch": 59, "duration": 2, "velocity": 87}, {"time": 1821, "pitch": 62, "duration": 2, "velocity": 108}, {"time": 1827, "pitch": 45, "duration": 20, "velocity": 105}, {"time": 1827, "pitch": 57, "duration": 9, "velocity": 97}, {"time": 1827, "pitch": 60, "duration": 7, "velocity": 92}, {"time": 1833, "pitch": 52, "duration": 8, "velocity": 69}, {"time": 1839, "pitch": 57, "duration": 4, "velocity": 108}, {"time": 1839, "pitch": 60, "duration": 4, "velocity": 120}, {"time": 1839, "pitch": 64, "duration": 4, "velocity": 105}, {"time": 1845, "pitch": 52, "duration": 4, "velocity": 87}, {"time": 1848, "pitch": 57, "duration": 6, "velocity": 102}, {"time": 1848, "pitch": 60, "duration": 7, "velocity": 67}, {"time": 1848, "pitch": 64, "duration": 8, "velocity": 97}, {"time": 1851, "pitch": 45, "duration": 18, "velocity": 92}, {"time": 1854, "pitch": 52, "duration": 10, "velocity": 80}, {"time": 1857, "pitch": 57, "duration": 2, "velocity": 92}, {"time": 1860, "pitch": 57, "duration": 2, "velocity": 53}, {"time": 1860, "pitch": 60, "duration": 2, "velocity": 94}, {"time": 1863, "pitch": 57, "duration": 5, "velocity": 108}, {"time": 1863, "pitch": 60, "duration": 5, "velocity": 111}, {"time": 1863, "pitch": 64, "duration": 4, "velocity": 105}, {"time": 1866, "pitch": 52, "duration": 3, "velocity": 87}, {"time": 1869, "pitch": 57, "duration": 2, "velocity": 105}, {"time": 1869, "pitch": 60, "duration": 2, "velocity": 87}, {"time": 1875, "pitch": 47, "duration": 16, "velocity": 102}, {"time": 1875, "pitch": 59, "duration": 4, "velocity": 97}, {"time": 1875, "pitch": 63, "duration": 4, "velocity": 99}, {"time": 1881, "pitch": 59, "duration": 4, "velocity": 105}, {"time": 1881, "pitch": 63, "duration": 3, "velocity": 105}, {"time": 1881, "pitch": 66, "duration": 3, "velocity": 63}, {"time": 1887, "pitch": 59, "duration": 6, "velocity": 114}, {"time": 1887, "pitch": 63, "duration": 7, "velocity": 116}, {"time": 1887, "pitch": 66, "duration": 7, "velocity": 109}, {"time": 1887, "pitch": 71, "duration": 6, "velocity": 100}, {"time": 1890, "pitch": 51, "duration": 3, "velocity": 28}, {"time": 1893, "pitch": 54, "duration": 5, "velocity": 79}, {"time": 1896, "pitch": 59, "duration": 2, "velocity": 114}, {"time": 1899, "pitch": 47, "duration": 24, "velocity": 100}, {"time": 1899, "pitch": 59, "duration": 5, "velocity": 92}, {"time": 1899, "pitch": 63, "duration": 5, "velocity": 109}, {"time": 1899, "pitch": 66, "duration": 5, "velocity": 99}, {"time": 1899, "pitch": 71, "duration": 5, "velocity": 92}, {"time": 1905, "pitch": 59, "duration": 4, "velocity": 62}, {"time": 1905, "pitch": 63, "duration": 3, "velocity": 65}, {"time": 1905, "pitch": 66, "duration": 3, "velocity": 61}, {"time": 1905, "pitch": 71, "duration": 3, "velocity": 78}, {"time": 1911, "pitch": 59, "duration": 11, "velocity": 120}, {"time": 1911, "pitch": 63, "duration": 11, "velocity": 116}, {"time": 1911, "pitch": 66, "duration": 11, "velocity": 105}, {"time": 1911, "pitch": 71, "duration": 12, "velocity": 100}, {"time": 1917, "pitch": 54, "duration": 5, "velocity": 82}, {"time": 1923, "pitch": 52, "duration": 22, "velocity": 100}, {"time": 1923, "pitch": 64, "duration": 7, "velocity": 97}, {"time": 1923, "pitch": 67, "duration": 7, "velocity": 102}, {"time": 1929, "pitch": 59, "duration": 10, "velocity": 67}, {"time": 1935, "pitch": 64, "duration": 6, "velocity": 114}, {"time": 1935, "pitch": 71, "duration": 7, "velocity": 114}, {"time": 1941, "pitch": 59, "duration": 5, "velocity": 73}, {"time": 1944, "pitch": 64, "duration": 3, "velocity": 108}, {"time": 1947, "pitch": 52, "duration": 20, "velocity": 102}, {"time": 1947, "pitch": 64, "duration": 7, "velocity": 92}, {"time": 1947, "pitch": 67, "duration": 7, "velocity": 100}, {"time": 1953, "pitch": 59, "duration": 8, "velocity": 71}, {"time": 1956, "pitch": 64, "duration": 1, "velocity": 57}, {"time": 1959, "pitch": 71, "duration": 8, "velocity": 108}, {"time": 1962, "pitch": 59, "duration": 5, "velocity": 89}, {"time": 1965, "pitch": 64, "duration": 5, "velocity": 100}, {"time": 1968, "pitch": 67, "duration": 2, "velocity": 67}, {"time": 1971, "pitch": 48, "duration": 10, "velocity": 89}, {"time": 1971, "pitch": 60, "duration": 4, "velocity": 89}, {"time": 1971, "pitch": 64, "duration": 5, "velocity": 100}, {"time": 1974, "pitch": 55, "duration": 7, "velocity": 58}, {"time": 1977, "pitch": 60, "duration": 4, "velocity": 100}, {"time": 1983, "pitch": 50, "duration": 10, "velocity": 100}, {"time": 1983, "pitch": 62, "duration": 7, "velocity": 97}, {"time": 1983, "pitch": 66, "duration": 7, "velocity": 102}, {"time": 1989, "pitch": 57, "duration": 5, "velocity": 50}, {"time": 1995, "pitch": 52, "duration": 18, "velocity": 102}, {"time": 1995, "pitch": 64, "duration": 7, "velocity": 89}, {"time": 1995, "pitch": 67, "duration": 9, "velocity": 89}, {"time": 2001, "pitch": 59, "duration": 7, "velocity": 78}, {"time": 2004, "pitch": 64, "duration": 2, "velocity": 76}, {"time": 2007, "pitch": 64, "duration": 3, "velocity": 108}, {"time": 2007, "pitch": 71, "duration": 8, "velocity": 102}, {"time": 2010, "pitch": 59, "duration": 3, "velocity": 92}, {"time": 2013, "pitch": 64, "duration": 4, "velocity": 97}, {"time": 2016, "pitch": 67, "duration": 2, "velocity": 80}, {"time": 2019, "pitch": 48, "duration": 19, "velocity": 97}, {"time": 2019, "pitch": 60, "duration": 9, "velocity": 84}, {"time": 2019, "pitch": 64, "duration": 8, "velocity": 97}, {"time": 2025, "pitch": 55, "duration": 7, "velocity": 69}, {"time": 2031, "pitch": 60, "duration": 4, "velocity": 117}, {"time": 2031, "pitch": 67, "duration": 5, "velocity": 100}, {"time": 2034, "pitch": 55, "duration": 5, "velocity": 87}, {"time": 2037, "pitch": 60, "duration": 3, "velocity": 102}, {"time": 2043, "pitch": 50, "duration": 22, "velocity": 102}, {"time": 2043, "pitch": 62, "duration": 9, "velocity": 97}, {"time": 2043, "pitch": 66, "duration": 8, "velocity": 102}, {"time": 2049, "pitch": 57, "duration": 15, "velocity": 92}, {"time": 2055, "pitch": 62, "duration": 3, "velocity": 105}, {"time": 2055, "pitch": 66, "duration": 7, "velocity": 112}, {"time": 2055, "pitch": 69, "duration": 8, "velocity": 102}, {"time": 2061, "pitch": 62, "duration": 4, "velocity": 89}, {"time": 2067, "pitch": 55, "duration": 14, "velocity": 94}, {"time": 2067, "pitch": 62, "duration": 7, "velocity": 97}, {"time": 2067, "pitch": 67, "duration": 10, "velocity": 97}, {"time": 2073, "pitch": 59, "duration": 8, "velocity": 66}, {"time": 2076, "pitch": 62, "duration": 2, "velocity": 84}, {"time": 2079, "pitch": 62, "duration": 4, "velocity": 114}, {"time": 2079, "pitch": 71, "duration": 7, "velocity": 102}, {"time": 2082, "pitch": 59, "duration": 2, "velocity": 89}, {"time": 2085, "pitch": 62, "duration": 2, "velocity": 105}, {"time": 2091, "pitch": 47, "duration": 19, "velocity": 102}, {"time": 2091, "pitch": 59, "duration": 10, "velocity": 92}, {"time": 2091, "pitch": 66, "duration": 4, "velocity": 45}, {"time": 2097, "pitch": 54, "duration": 7, "velocity": 85}, {"time": 2103, "pitch": 59, "duration": 6, "velocity": 111}, {"time": 2103, "pitch": 63, "duration": 11, "velocity": 109}, {"time": 2103, "pitch": 66, "duration": 11, "velocity": 96}, {"time": 2109, "pitch": 54, "duration": 2, "velocity": 93}, {"time": 2112, "pitch": 59, "duration": 3, "velocity": 111}, {"time": 2115, "pitch": 48, "duration": 15, "velocity": 100}, {"time": 2115, "pitch": 60, "duration": 8, "velocity": 102}, {"time": 2115, "pitch": 67, "duration": 8, "velocity": 97}, {"time": 2121, "pitch": 55, "duration": 7, "velocity": 87}, {"time": 2127, "pitch": 60, "duration": 6, "velocity": 102}, {"time": 2127, "pitch": 64, "duration": 9, "velocity": 105}, {"time": 2133, "pitch": 55, "duration": 4, "velocity": 87}, {"time": 2136, "pitch": 60, "duration": 2, "velocity": 87}, {"time": 2139, "pitch": 50, "duration": 22, "velocity": 97}, {"time": 2139, "pitch": 62, "duration": 6, "velocity": 84}, {"time": 2139, "pitch": 66, "duration": 6, "velocity": 82}, {"time": 2145, "pitch": 57, "duration": 7, "velocity": 87}, {"time": 2151, "pitch": 62, "duration": 4, "velocity": 105}, {"time": 2151, "pitch": 66, "duration": 5, "velocity": 109}, {"time": 2151, "pitch": 69, "duration": 5, "velocity": 105}, {"time": 2154, "pitch": 57, "duration": 7, "velocity": 87}, {"time": 2157, "pitch": 62, "duration": 4, "velocity": 102}, {"time": 2163, "pitch": 55, "duration": 9, "velocity": 94}, {"time": 2163, "pitch": 62, "duration": 4, "velocity": 108}, {"time": 2163, "pitch": 67, "duration": 7, "velocity": 105}, {"time": 2169, "pitch": 62, "duration": 2, "velocity": 105}, {"time": 2175, "pitch": 50, "duration": 10, "velocity": 97}, {"time": 2175, "pitch": 62, "duration": 4, "velocity": 108}, {"time": 2175, "pitch": 66, "duration": 7, "velocity": 109}, {"time": 2181, "pitch": 62, "duration": 3, "velocity": 94}, {"time": 2187, "pitch": 52, "duration": 18, "velocity": 105}, {"time": 2187, "pitch": 64, "duration": 8, "velocity": 97}, {"time": 2187, "pitch": 67, "duration": 9, "velocity": 97}, {"time": 2193, "pitch": 59, "duration": 7, "velocity": 80}, {"time": 2199, "pitch": 64, "duration": 3, "velocity": 114}, {"time": 2199, "pitch": 71, "duration": 5, "velocity": 105}, {"time": 2202, "pitch": 59, "duration": 4, "velocity": 94}, {"time": 2205, "pitch": 64, "duration": 3, "velocity": 97}, {"time": 2211, "pitch": 48, "duration": 21, "velocity": 100}, {"time": 2211, "pitch": 60, "duration": 10, "velocity": 92}, {"time": 2211, "pitch": 64, "duration": 9, "velocity": 97}, {"time": 2217, "pitch": 55, "duration": 7, "velocity": 80}, {"time": 2223, "pitch": 60, "duration": 6, "velocity": 102}, {"time": 2223, "pitch": 67, "duration": 7, "velocity": 97}, {"time": 2229, "pitch": 55, "duration": 5, "velocity": 76}, {"time": 2232, "pitch": 60, "duration": 2, "velocity": 92}, {"time": 2235, "pitch": 50, "duration": 16, "velocity": 105}, {"time": 2235, "pitch": 62, "duration": 7, "velocity": 87}, {"time": 2235, "pitch": 66, "duration": 7, "velocity": 54}, {"time": 2241, "pitch": 57, "duration": 8, "velocity": 87}, {"time": 2244, "pitch": 62, "duration": 2, "velocity": 78}, {"time": 2247, "pitch": 62, "duration": 7, "velocity": 108}, {"time": 2247, "pitch": 66, "duration": 7, "velocity": 105}, {"time": 2253, "pitch": 50, "duration": 4, "velocity": 100}, {"time": 2259, "pitch": 52, "duration": 17, "velocity": 102}, {"time": 2259, "pitch": 64, "duration": 10, "velocity": 89}, {"time": 2259, "pitch": 67, "duration": 9, "velocity": 97}, {"time": 2265, "pitch": 59, "duration": 8, "velocity": 80}, {"time": 2271, "pitch": 64, "duration": 6, "velocity": 102}, {"time": 2271, "pitch": 67, "duration": 7, "velocity": 114}, {"time": 2271, "pitch": 71, "duration": 7, "velocity": 111}, {"time": 2277, "pitch": 59, "duration": 4, "velocity": 84}, {"time": 2280, "pitch": 64, "duration": 2, "velocity": 82}, {"time": 2283, "pitch": 52, "duration": 2, "velocity": 105}, {"time": 2283, "pitch": 59, "duration": 2, "velocity": 97}, {"time": 2283, "pitch": 64, "duration": 2, "velocity": 92}, {"time": 2283, "pitch": 67, "duration": 2, "velocity": 102}, {"time": 2286, "pitch": 52, "duration": 5, "velocity": 100}, {"time": 2286, "pitch": 59, "duration": 4, "velocity": 105}, {"time": 2286, "pitch": 64, "duration": 4, "velocity": 97}, {"time": 2286, "pitch": 67, "duration": 4, "velocity": 102}, {"time": 2295, "pitch": 52, "duration": 8, "velocity": 111}, {"time": 2295, "pitch": 64, "duration": 4, "velocity": 97}, {"time": 2295, "pitch": 67, "duration": 5, "velocity": 102}, {"time": 2295, "pitch": 71, "duration": 5, "velocity": 100}, {"time": 2298, "pitch": 59, "duration": 5, "velocity": 100}, {"time": 2301, "pitch": 64, "duration": 2, "velocity": 114}, {"time": 2304, "pitch": 64, "duration": 2, "velocity": 58}, {"time": 2304, "pitch": 67, "duration": 2, "velocity": 111}, {"time": 2307, "pitch": 52, "duration": 20, "velocity": 120}, {"time": 2307, "pitch": 64, "duration": 3, "velocity": 102}, {"time": 2307, "pitch": 67, "duration": 6, "velocity": 114}, {"time": 2313, "pitch": 64, "duration": 3, "velocity": 94}, {"time": 2319, "pitch": 64, "duration": 2, "velocity": 120}, {"time": 2319, "pitch": 71, "duration": 4, "velocity": 114}, {"time": 2322, "pitch": 64, "duration": 2, "velocity": 100}, {"time": 2325, "pitch": 67, "duration": 2, "velocity": 111}, {"time": 2328, "pitch": 64, "duration": 2, "velocity": 73}, {"time": 2331, "pitch": 52, "duration": 17, "velocity": 97}, {"time": 2331, "pitch": 64, "duration": 4, "velocity": 97}, {"time": 2331, "pitch": 67, "duration": 4, "velocity": 100}, {"time": 2334, "pitch": 59, "duration": 11, "velocity": 35}, {"time": 2337, "pitch": 64, "duration": 4, "velocity": 82}, {"time": 2340, "pitch": 67, "duration": 1, "velocity": 55}, {"time": 2343, "pitch": 64, "duration": 4, "velocity": 111}, {"time": 2343, "pitch": 67, "duration": 4, "velocity": 114}, {"time": 2343, "pitch": 71, "duration": 4, "velocity": 111}, {"time": 2346, "pitch": 59, "duration": 3, "velocity": 102}, {"time": 2349, "pitch": 64, "duration": 5, "velocity": 111}, {"time": 2352, "pitch": 67, "duration": 2, "velocity": 50}, {"time": 2355, "pitch": 48, "duration": 10, "velocity": 102}, {"time": 2355, "pitch": 60, "duration": 4, "velocity": 105}, {"time": 2355, "pitch": 64, "duration": 5, "velocity": 117}, {"time": 2358, "pitch": 55, "duration": 8, "velocity": 89}, {"time": 2361, "pitch": 60, "duration": 4, "velocity": 97}, {"time": 2364, "pitch": 64, "duration": 2, "velocity": 84}, {"time": 2367, "pitch": 50, "duration": 11, "velocity": 102}, {"time": 2367, "pitch": 62, "duration": 4, "velocity": 102}, {"time": 2367, "pitch": 66, "duration": 7, "velocity": 112}, {"time": 2370, "pitch": 57, "duration": 8, "velocity": 92}, {"time": 2373, "pitch": 62, "duration": 4, "velocity": 102}, {"time": 2376, "pitch": 66, "duration": 2, "velocity": 99}, {"time": 2379, "pitch": 55, "duration": 14, "velocity": 94}, {"time": 2379, "pitch": 62, "duration": 8, "velocity": 94}, {"time": 2379, "pitch": 67, "duration": 8, "velocity": 105}, {"time": 2385, "pitch": 59, "duration": 9, "velocity": 67}, {"time": 2391, "pitch": 62, "duration": 3, "velocity": 111}, {"time": 2391, "pitch": 67, "duration": 6, "velocity": 114}, {"time": 2391, "pitch": 71, "duration": 6, "velocity": 105}, {"time": 2397, "pitch": 62, "duration": 2, "velocity": 82}, {"time": 2403, "pitch": 45, "duration": 23, "velocity": 105}, {"time": 2403, "pitch": 57, "duration": 6, "velocity": 94}, {"time": 2403, "pitch": 60, "duration": 7, "velocity": 100}, {"time": 2409, "pitch": 52, "duration": 8, "velocity": 69}, {"time": 2412, "pitch": 57, "duration": 1, "velocity": 69}, {"time": 2415, "pitch": 57, "duration": 5, "velocity": 105}, {"time": 2415, "pitch": 60, "duration": 5, "velocity": 108}, {"time": 2415, "pitch": 64, "duration": 5, "velocity": 102}, {"time": 2421, "pitch": 52, "duration": 5, "velocity": 80}, {"time": 2424, "pitch": 57, "duration": 2, "velocity": 97}, {"time": 2427, "pitch": 45, "duration": 16, "velocity": 94}, {"time": 2427, "pitch": 57, "duration": 7, "velocity": 100}, {"time": 2427, "pitch": 60, "duration": 7, "velocity": 102}, {"time": 2427, "pitch": 64, "duration": 7, "velocity": 94}, {"time": 2433, "pitch": 52, "duration": 7, "velocity": 50}, {"time": 2436, "pitch": 57, "duration": 2, "velocity": 87}, {"time": 2439, "pitch": 57, "duration": 3, "velocity": 117}, {"time": 2439, "pitch": 60, "duration": 4, "velocity": 114}, {"time": 2439, "pitch": 64, "duration": 4, "velocity": 105}, {"time": 2442, "pitch": 52, "duration": 2, "velocity": 114}, {"time": 2445, "pitch": 57, "duration": 4, "velocity": 117}, {"time": 2448, "pitch": 60, "duration": 2, "velocity": 94}, {"time": 2451, "pitch": 48, "duration": 17, "velocity": 102}, {"time": 2451, "pitch": 60, "duration": 6, "velocity": 87}, {"time": 2451, "pitch": 64, "duration": 6, "velocity": 105}, {"time": 2457, "pitch": 55, "duration": 7, "velocity": 84}, {"time": 2463, "pitch": 60, "duration": 4, "velocity": 105}, {"time": 2463, "pitch": 64, "duration": 4, "velocity": 102}, {"time": 2463, "pitch": 67, "duration": 5, "velocity": 114}, {"time": 2466, "pitch": 55, "duration": 4, "velocity": 97}, {"time": 2469, "pitch": 60, "duration": 4, "velocity": 105}, {"time": 2472, "pitch": 64, "duration": 3, "velocity": 108}, {"time": 2475, "pitch": 50, "duration": 13, "velocity": 108}, {"time": 2475, "pitch": 62, "duration": 4, "velocity": 108}, {"time": 2475, "pitch": 66, "duration": 5, "velocity": 112}, {"time": 2478, "pitch": 57, "duration": 8, "velocity": 100}, {"time": 2481, "pitch": 62, "duration": 1, "velocity": 94}, {"time": 2484, "pitch": 62, "duration": 5, "velocity": 114}, {"time": 2484, "pitch": 66, "duration": 6, "velocity": 116}, {"time": 2487, "pitch": 57, "duration": 4, "velocity": 111}, {"time": 2490, "pitch": 62, "duration": 5, "velocity": 111}, {"time": 2490, "pitch": 66, "duration": 5, "velocity": 79}, {"time": 2493, "pitch": 57, "duration": 3, "velocity": 87}, {"time": 2496, "pitch": 62, "duration": 2, "velocity": 100}, {"time": 2499, "pitch": 52, "duration": 22, "velocity": 111}, {"time": 2499, "pitch": 64, "duration": 9, "velocity": 111}, {"time": 2499, "pitch": 67, "duration": 8, "velocity": 120}, {"time": 2505, "pitch": 59, "duration": 8, "velocity": 94}, {"time": 2511, "pitch": 64, "duration": 6, "velocity": 108}, {"time": 2511, "pitch": 67, "duration": 6, "velocity": 123}, {"time": 2511, "pitch": 71, "duration": 5, "velocity": 108}, {"time": 2517, "pitch": 59, "duration": 5, "velocity": 82}, {"time": 2520, "pitch": 64, "duration": 2, "velocity": 97}, {"time": 2523, "pitch": 52, "duration": 16, "velocity": 108}, {"time": 2523, "pitch": 64, "duration": 6, "velocity": 80}, {"time": 2523, "pitch": 67, "duration": 7, "velocity": 100}, {"time": 2523, "pitch": 71, "duration": 7, "velocity": 108}, {"time": 2529, "pitch": 59, "duration": 6, "velocity": 97}, {"time": 2532, "pitch": 67, "duration": 2, "velocity": 100}, {"time": 2532, "pitch": 71, "duration": 2, "velocity": 100}, {"time": 2535, "pitch": 67, "duration": 4, "velocity": 123}, {"time": 2535, "pitch": 71, "duration": 5, "velocity": 117}, {"time": 2538, "pitch": 59, "duration": 2, "velocity": 111}, {"time": 2541, "pitch": 69, "duration": 5, "velocity": 108}, {"time": 2547, "pitch": 48, "duration": 10, "velocity": 105}, {"time": 2547, "pitch": 67, "duration": 4, "velocity": 117}, {"time": 2550, "pitch": 55, "duration": 7, "velocity": 73}, {"time": 2553, "pitch": 60, "duration": 4, "velocity": 100}, {"time": 2556, "pitch": 64, "duration": 2, "velocity": 100}, {"time": 2559, "pitch": 50, "duration": 12, "velocity": 102}, {"time": 2559, "pitch": 62, "duration": 7, "velocity": 100}, {"time": 2559, "pitch": 66, "duration": 9, "velocity": 109}, {"time": 2565, "pitch": 57, "duration": 5, "velocity": 111}, {"time": 2568, "pitch": 62, "duration": 2, "velocity": 102}, {"time": 2571, "pitch": 55, "duration": 14, "velocity": 114}, {"time": 2571, "pitch": 62, "duration": 7, "velocity": 100}, {"time": 2571, "pitch": 67, "duration": 7, "velocity": 108}, {"time": 2577, "pitch": 59, "duration": 8, "velocity": 94}, {"time": 2580, "pitch": 62, "duration": 2, "velocity": 78}, {"time": 2583, "pitch": 62, "duration": 4, "velocity": 105}, {"time": 2583, "pitch": 67, "duration": 6, "velocity": 105}, {"time": 2583, "pitch": 71, "duration": 8, "velocity": 102}, {"time": 2586, "pitch": 59, "duration": 5, "velocity": 58}, {"time": 2589, "pitch": 62, "duration": 4, "velocity": 111}, {"time": 2592, "pitch": 67, "duration": 2, "velocity": 105}, {"time": 2595, "pitch": 45, "duration": 23, "velocity": 100}, {"time": 2595, "pitch": 57, "duration": 6, "velocity": 92}, {"time": 2595, "pitch": 60, "duration": 7, "velocity": 92}, {"time": 2601, "pitch": 52, "duration": 8, "velocity": 100}, {"time": 2604, "pitch": 57, "duration": 2, "velocity": 102}, {"time": 2607, "pitch": 57, "duration": 7, "velocity": 97}, {"time": 2607, "pitch": 60, "duration": 7, "velocity": 117}, {"time": 2607, "pitch": 64, "duration": 7, "velocity": 111}, {"time": 2613, "pitch": 52, "duration": 5, "velocity": 80}, {"time": 2616, "pitch": 57, "duration": 4, "velocity": 62}, {"time": 2616, "pitch": 60, "duration": 10, "velocity": 97}, {"time": 2616, "pitch": 64, "duration": 8, "velocity": 102}, {"time": 2616, "pitch": 69, "duration": 10, "velocity": 92}, {"time": 2619, "pitch": 45, "duration": 19, "velocity": 89}, {"time": 2622, "pitch": 52, "duration": 11, "velocity": 80}, {"time": 2625, "pitch": 57, "duration": 5, "velocity": 80}, {"time": 2631, "pitch": 57, "duration": 4, "velocity": 111}, {"time": 2631, "pitch": 60, "duration": 5, "velocity": 111}, {"time": 2631, "pitch": 64, "duration": 5, "velocity": 108}, {"time": 2634, "pitch": 52, "duration": 5, "velocity": 87}, {"time": 2637, "pitch": 57, "duration": 4, "velocity": 114}, {"time": 2640, "pitch": 60, "duration": 2, "velocity": 94}, {"time": 2643, "pitch": 48, "duration": 21, "velocity": 105}, {"time": 2643, "pitch": 60, "duration": 7, "velocity": 84}, {"time": 2643, "pitch": 64, "duration": 7, "velocity": 97}, {"time": 2649, "pitch": 55, "duration": 7, "velocity": 76}, {"time": 2652, "pitch": 60, "duration": 2, "velocity": 97}, {"time": 2655, "pitch": 60, "duration": 4, "velocity": 120}, {"time": 2655, "pitch": 64, "duration": 4, "velocity": 117}, {"time": 2658, "pitch": 55, "duration": 7, "velocity": 84}, {"time": 2661, "pitch": 60, "duration": 4, "velocity": 97}, {"time": 2664, "pitch": 64, "duration": 2, "velocity": 84}, {"time": 2667, "pitch": 50, "duration": 11, "velocity": 105}, {"time": 2667, "pitch": 62, "duration": 4, "velocity": 100}, {"time": 2667, "pitch": 66, "duration": 5, "velocity": 105}, {"time": 2670, "pitch": 57, "duration": 7, "velocity": 82}, {"time": 2673, "pitch": 62, "duration": 2, "velocity": 84}, {"time": 2676, "pitch": 62, "duration": 4, "velocity": 114}, {"time": 2676, "pitch": 66, "duration": 5, "velocity": 109}, {"time": 2676, "pitch": 69, "duration": 4, "velocity": 105}, {"time": 2679, "pitch": 57, "duration": 5, "velocity": 102}, {"time": 2682, "pitch": 62, "duration": 5, "velocity": 114}, {"time": 2682, "pitch": 66, "duration": 8, "velocity": 112}, {"time": 2688, "pitch": 62, "duration": 2, "velocity": 100}, {"time": 2691, "pitch": 48, "duration": 23, "velocity": 108}, {"time": 2691, "pitch": 60, "duration": 7, "velocity": 102}, {"time": 2691, "pitch": 67, "duration": 7, "velocity": 105}, {"time": 2697, "pitch": 55, "duration": 5, "velocity": 60}, {"time": 2700, "pitch": 60, "duration": 4, "velocity": 108}, {"time": 2700, "pitch": 64, "duration": 4, "velocity": 111}, {"time": 2703, "pitch": 55, "duration": 5, "velocity": 71}, {"time": 2706, "pitch": 64, "duration": 8, "velocity": 97}, {"time": 2709, "pitch": 55, "duration": 6, "velocity": 87}, {"time": 2712, "pitch": 60, "duration": 10, "velocity": 108}, {"time": 2715, "pitch": 48, "duration": 24, "velocity": 102}, {"time": 2715, "pitch": 64, "duration": 7, "velocity": 111}, {"time": 2715, "pitch": 67, "duration": 7, "velocity": 100}, {"time": 2721, "pitch": 55, "duration": 7, "velocity": 73}, {"time": 2724, "pitch": 60, "duration": 2, "velocity": 55}, {"time": 2724, "pitch": 64, "duration": 2, "velocity": 71}, {"time": 2724, "pitch": 67, "duration": 2, "velocity": 73}, {"time": 2727, "pitch": 60, "duration": 3, "velocity": 108}, {"time": 2727, "pitch": 64, "duration": 4, "velocity": 108}, {"time": 2727, "pitch": 67, "duration": 4, "velocity": 105}, {"time": 2730, "pitch": 55, "duration": 9, "velocity": 92}, {"time": 2733, "pitch": 60, "duration": 5, "velocity": 114}, {"time": 2736, "pitch": 64, "duration": 3, "velocity": 82}, {"time": 2739, "pitch": 52, "duration": 20, "velocity": 120}, {"time": 2739, "pitch": 64, "duration": 3, "velocity": 102}, {"time": 2739, "pitch": 67, "duration": 6, "velocity": 114}, {"time": 2745, "pitch": 64, "duration": 3, "velocity": 94}, {"time": 2751, "pitch": 64, "duration": 2, "velocity": 120}, {"time": 2751, "pitch": 71, "duration": 4, "velocity": 114}, {"time": 2754, "pitch": 64, "duration": 2, "velocity": 100}, {"time": 2757, "pitch": 67, "duration": 2, "velocity": 111}, {"time": 2760, "pitch": 64, "duration": 2, "velocity": 73}, {"time": 2763, "pitch": 52, "duration": 17, "velocity": 97}, {"time": 2763, "pitch": 64, "duration": 4, "velocity": 97}, {"time": 2763, "pitch": 67, "duration": 4, "velocity": 100}, {"time": 2766, "pitch": 59, "duration": 11, "velocity": 35}, {"time": 2769, "pitch": 64, "duration": 4, "velocity": 82}, {"time": 2772, "pitch": 67, "duration": 1, "velocity": 55}, {"time": 2775, "pitch": 64, "duration": 4, "velocity": 111}, {"time": 2775, "pitch": 67, "duration": 4, "velocity": 114}, {"time": 2775, "pitch": 71, "duration": 4, "velocity": 111}, {"time": 2778, "pitch": 59, "duration": 3, "velocity": 102}, {"time": 2781, "pitch": 64, "duration": 5, "velocity": 111}, {"time": 2784, "pitch": 67, "duration": 2, "velocity": 50}, {"time": 2787, "pitch": 48, "duration": 10, "velocity": 102}, {"time": 2787, "pitch": 60, "duration": 4, "velocity": 105}, {"time": 2787, "pitch": 64, "duration": 5, "velocity": 117}, {"time": 2790, "pitch": 55, "duration": 8, "velocity": 89}, {"time": 2793, "pitch": 60, "duration": 4, "velocity": 97}, {"time": 2796, "pitch": 64, "duration": 2, "velocity": 84}, {"time": 2799, "pitch": 50, "duration": 11, "velocity": 102}, {"time": 2799, "pitch": 62, "duration": 4, "velocity": 102}, {"time": 2799, "pitch": 66, "duration": 7, "velocity": 112}, {"time": 2802, "pitch": 57, "duration": 8, "velocity": 92}, {"time": 2805, "pitch": 62, "duration": 4, "velocity": 102}, {"time": 2808, "pitch": 66, "duration": 2, "velocity": 99}, {"time": 2811, "pitch": 55, "duration": 14, "velocity": 94}, {"time": 2811, "pitch": 62, "duration": 8, "velocity": 94}, {"time": 2811, "pitch": 67, "duration": 8, "velocity": 105}, {"time": 2817, "pitch": 59, "duration": 9, "velocity": 67}, {"time": 2823, "pitch": 62, "duration": 3, "velocity": 111}, {"time": 2823, "pitch": 67, "duration": 6, "velocity": 114}, {"time": 2823, "pitch": 71, "duration": 6, "velocity": 105}, {"time": 2829, "pitch": 62, "duration": 2, "velocity": 82}, {"time": 2835, "pitch": 45, "duration": 23, "velocity": 105}, {"time": 2835, "pitch": 57, "duration": 6, "velocity": 94}, {"time": 2835, "pitch": 60, "duration": 7, "velocity": 100}, {"time": 2841, "pitch": 52, "duration": 8, "velocity": 69}, {"time": 2844, "pitch": 57, "duration": 1, "velocity": 69}, {"time": 2847, "pitch": 57, "duration": 5, "velocity": 105}, {"time": 2847, "pitch": 60, "duration": 5, "velocity": 108}, {"time": 2847, "pitch": 64, "duration": 5, "velocity": 102}, {"time": 2853, "pitch": 52, "duration": 5, "velocity": 80}, {"time": 2856, "pitch": 57, "duration": 2, "velocity": 97}, {"time": 2859, "pitch": 45, "duration": 16, "velocity": 94}, {"time": 2859, "pitch": 57, "duration": 7, "velocity": 100}, {"time": 2859, "pitch": 60, "duration": 7, "velocity": 102}, {"time": 2859, "pitch": 64, "duration": 7, "velocity": 94}, {"time": 2865, "pitch": 52, "duration": 7, "velocity": 50}, {"time": 2868, "pitch": 57, "duration": 2, "velocity": 87}, {"time": 2871, "pitch": 57, "duration": 3, "velocity": 117}, {"time": 2871, "pitch": 60, "duration": 4, "velocity": 114}, {"time": 2871, "pitch": 64, "duration": 4, "velocity": 105}, {"time": 2874, "pitch": 52, "duration": 2, "velocity": 114}, {"time": 2877, "pitch": 57, "duration": 4, "velocity": 117}, {"time": 2880, "pitch": 60, "duration": 2, "velocity": 94}, {"time": 2883, "pitch": 48, "duration": 17, "velocity": 102}, {"time": 2883, "pitch": 60, "duration": 6, "velocity": 87}, {"time": 2883, "pitch": 64, "duration": 6, "velocity": 105}, {"time": 2889, "pitch": 55, "duration": 7, "velocity": 84}, {"time": 2895, "pitch": 60, "duration": 4, "velocity": 105}, {"time": 2895, "pitch": 64, "duration": 4, "velocity": 102}, {"time": 2895, "pitch": 67, "duration": 5, "velocity": 114}, {"time": 2898, "pitch": 55, "duration": 4, "velocity": 97}, {"time": 2901, "pitch": 60, "duration": 4, "velocity": 105}, {"time": 2904, "pitch": 64, "duration": 3, "velocity": 108}, {"time": 2907, "pitch": 50, "duration": 13, "velocity": 108}, {"time": 2907, "pitch": 62, "duration": 4, "velocity": 108}, {"time": 2907, "pitch": 66, "duration": 5, "velocity": 112}, {"time": 2910, "pitch": 57, "duration": 8, "velocity": 100}, {"time": 2913, "pitch": 62, "duration": 1, "velocity": 94}, {"time": 2916, "pitch": 62, "duration": 5, "velocity": 114}, {"time": 2916, "pitch": 66, "duration": 6, "velocity": 116}, {"time": 2919, "pitch": 57, "duration": 4, "velocity": 111}, {"time": 2922, "pitch": 62, "duration": 5, "velocity": 111}, {"time": 2922, "pitch": 66, "duration": 5, "velocity": 79}, {"time": 2925, "pitch": 57, "duration": 3, "velocity": 87}, {"time": 2928, "pitch": 62, "duration": 2, "velocity": 100}, {"time": 2931, "pitch": 52, "duration": 22, "velocity": 111}, {"time": 2931, "pitch": 64, "duration": 9, "velocity": 111}, {"time": 2931, "pitch": 67, "duration": 8, "velocity": 120}, {"time": 2937, "pitch": 59, "duration": 8, "velocity": 94}, {"time": 2943, "pitch": 64, "duration": 6, "velocity": 108}, {"time": 2943, "pitch": 67, "duration": 6, "velocity": 123}, {"time": 2943, "pitch": 71, "duration": 5, "velocity": 108}, {"time": 2949, "pitch": 59, "duration": 5, "velocity": 82}, {"time": 2952, "pitch": 64, "duration": 2, "velocity": 97}, {"time": 2955, "pitch": 52, "duration": 16, "velocity": 108}, {"time": 2955, "pitch": 64, "duration": 6, "velocity": 80}, {"time": 2955, "pitch": 67, "duration": 7, "velocity": 100}, {"time": 2955, "pitch": 71, "duration": 7, "velocity": 108}, {"time": 2961, "pitch": 59, "duration": 6, "velocity": 97}, {"time": 2964, "pitch": 67, "duration": 2, "velocity": 100}, {"time": 2964, "pitch": 71, "duration": 2, "velocity": 100}, {"time": 2967, "pitch": 67, "duration": 4, "velocity": 123}, {"time": 2967, "pitch": 71, "duration": 5, "velocity": 117}, {"time": 2970, "pitch": 59, "duration": 2, "velocity": 111}, {"time": 2973, "pitch": 69, "duration": 5, "velocity": 108}, {"time": 2979, "pitch": 48, "duration": 10, "velocity": 105}, {"time": 2979, "pitch": 67, "duration": 4, "velocity": 117}, {"time": 2982, "pitch": 55, "duration": 7, "velocity": 73}, {"time": 2985, "pitch": 60, "duration": 4, "velocity": 100}, {"time": 2988, "pitch": 64, "duration": 2, "velocity": 100}, {"time": 2991, "pitch": 50, "duration": 12, "velocity": 102}, {"time": 2991, "pitch": 62, "duration": 7, "velocity": 100}, {"time": 2991, "pitch": 66, "duration": 9, "velocity": 109}, {"time": 2997, "pitch": 57, "duration": 5, "velocity": 111}, {"time": 3000, "pitch": 62, "duration": 2, "velocity": 102}, {"time": 3003, "pitch": 55, "duration": 14, "velocity": 114}, {"time": 3003, "pitch": 62, "duration": 7, "velocity": 100}, {"time": 3003, "pitch": 67, "duration": 7, "velocity": 108}, {"time": 3009, "pitch": 59, "duration": 8, "velocity": 94}, {"time": 3012, "pitch": 62, "duration": 2, "velocity": 78}, {"time": 3015, "pitch": 62, "duration": 4, "velocity": 105}, {"time": 3015, "pitch": 67, "duration": 6, "velocity": 105}, {"time": 3015, "pitch": 71, "duration": 8, "velocity": 102}, {"time": 3018, "pitch": 59, "duration": 5, "velocity": 58}, {"time": 3021, "pitch": 62, "duration": 4, "velocity": 111}, {"time": 3024, "pitch": 67, "duration": 2, "velocity": 105}, {"time": 3027, "pitch": 45, "duration": 23, "velocity": 100}, {"time": 3027, "pitch": 57, "duration": 6, "velocity": 92}, {"time": 3027, "pitch": 60, "duration": 7, "velocity": 92}, {"time": 3033, "pitch": 52, "duration": 8, "velocity": 100}, {"time": 3036, "pitch": 57, "duration": 2, "velocity": 102}, {"time": 3039, "pitch": 57, "duration": 7, "velocity": 97}, {"time": 3039, "pitch": 60, "duration": 7, "velocity": 117}, {"time": 3039, "pitch": 64, "duration": 7, "velocity": 111}, {"time": 3045, "pitch": 52, "duration": 5, "velocity": 80}, {"time": 3048, "pitch": 57, "duration": 4, "velocity": 62}, {"time": 3048, "pitch": 60, "duration": 10, "velocity": 97}, {"time": 3048, "pitch": 64, "duration": 8, "velocity": 102}, {"time": 3048, "pitch": 69, "duration": 10, "velocity": 92}, {"time": 3051, "pitch": 45, "duration": 19, "velocity": 89}, {"time": 3054, "pitch": 52, "duration": 11, "velocity": 80}, {"time": 3057, "pitch": 57, "duration": 5, "velocity": 80}, {"time": 3063, "pitch": 57, "duration": 4, "velocity": 111}, {"time": 3063, "pitch": 60, "duration": 5, "velocity": 111}, {"time": 3063, "pitch": 64, "duration": 5, "velocity": 108}, {"time": 3066, "pitch": 52, "duration": 5, "velocity": 87}, {"time": 3069, "pitch": 57, "duration": 4, "velocity": 114}, {"time": 3072, "pitch": 60, "duration": 2, "velocity": 94}, {"time": 3075, "pitch": 48, "duration": 21, "velocity": 105}, {"time": 3075, "pitch": 60, "duration": 7, "velocity": 84}, {"time": 3075, "pitch": 64, "duration": 7, "velocity": 97}, {"time": 3081, "pitch": 55, "duration": 7, "velocity": 76}, {"time": 3084, "pitch": 60, "duration": 2, "velocity": 97}, {"time": 3087, "pitch": 60, "duration": 4, "velocity": 120}, {"time": 3087, "pitch": 64, "duration": 4, "velocity": 117}, {"time": 3090, "pitch": 55, "duration": 7, "velocity": 84}, {"time": 3093, "pitch": 60, "duration": 4, "velocity": 97}, {"time": 3096, "pitch": 64, "duration": 2, "velocity": 84}, {"time": 3099, "pitch": 50, "duration": 11, "velocity": 105}, {"time": 3099, "pitch": 62, "duration": 4, "velocity": 100}, {"time": 3099, "pitch": 66, "duration": 5, "velocity": 105}, {"time": 3102, "pitch": 57, "duration": 7, "velocity": 82}, {"time": 3105, "pitch": 62, "duration": 2, "velocity": 84}, {"time": 3108, "pitch": 62, "duration": 4, "velocity": 114}, {"time": 3108, "pitch": 66, "duration": 5, "velocity": 109}, {"time": 3108, "pitch": 69, "duration": 4, "velocity": 105}, {"time": 3111, "pitch": 57, "duration": 5, "velocity": 102}, {"time": 3114, "pitch": 62, "duration": 5, "velocity": 114}, {"time": 3114, "pitch": 66, "duration": 8, "velocity": 112}, {"time": 3120, "pitch": 62, "duration": 2, "velocity": 100}, {"time": 3123, "pitch": 52, "duration": 48, "velocity": 114}, {"time": 3123, "pitch": 64, "duration": 3, "velocity": 97}, {"time": 3123, "pitch": 59, "duration": 4, "velocity": 105}, {"time": 3135, "pitch": 64, "duration": 9, "velocity": 94}, {"time": 3136, "pitch": 59, "duration": 8, "velocity": 97}, {"time": 3147, "pitch": 59, "duration": 8, "velocity": 82}, {"time": 3147, "pitch": 64, "duration": 7, "velocity": 89}, {"time": 3159, "pitch": 64, "duration": 11, "velocity": 105}, {"time": 3159, "pitch": 59, "duration": 11, "velocity": 114}, {"time": 3159, "pitch": 55, "duration": 3, "velocity": 105}, {"time": 3165, "pitch": 55, "duration": 5, "velocity": 87}, {"time": 3171, "pitch": 52, "duration": 16, "velocity": 114}, {"time": 3171, "pitch": 64, "duration": 5, "velocity": 100}, {"time": 3171, "pitch": 67, "duration": 8, "velocity": 117}, {"time": 3183, "pitch": 64, "duration": 3, "velocity": 108}, {"time": 3183, "pitch": 67, "duration": 7, "velocity": 123}, {"time": 3183, "pitch": 71, "duration": 7, "velocity": 111}, {"time": 3189, "pitch": 64, "duration": 5, "velocity": 66}, {"time": 3195, "pitch": 52, "duration": 17, "velocity": 105}, {"time": 3195, "pitch": 64, "duration": 6, "velocity": 89}, {"time": 3195, "pitch": 67, "duration": 6, "velocity": 94}, {"time": 3201, "pitch": 59, "duration": 8, "velocity": 89}, {"time": 3207, "pitch": 64, "duration": 4, "velocity": 114}, {"time": 3207, "pitch": 67, "duration": 4, "velocity": 123}, {"time": 3210, "pitch": 59, "duration": 2, "velocity": 97}, {"time": 3213, "pitch": 64, "duration": 3, "velocity": 111}, {"time": 3216, "pitch": 67, "duration": 2, "velocity": 89}, {"time": 3219, "pitch": 48, "duration": 7, "velocity": 105}, {"time": 3219, "pitch": 60, "duration": 6, "velocity": 108}, {"time": 3219, "pitch": 64, "duration": 6, "velocity": 102}, {"time": 3225, "pitch": 55, "duration": 2, "velocity": 73}, {"time": 3231, "pitch": 50, "duration": 6, "velocity": 102}, {"time": 3231, "pitch": 62, "duration": 5, "velocity": 105}, {"time": 3231, "pitch": 66, "duration": 5, "velocity": 105}, {"time": 3243, "pitch": 43, "duration": 17, "velocity": 100}, {"time": 3243, "pitch": 62, "duration": 7, "velocity": 94}, {"time": 3243, "pitch": 67, "duration": 7, "velocity": 105}, {"time": 3249, "pitch": 50, "duration": 7, "velocity": 57}, {"time": 3255, "pitch": 62, "duration": 4, "velocity": 108}, {"time": 3255, "pitch": 67, "duration": 4, "velocity": 117}, {"time": 3255, "pitch": 71, "duration": 4, "velocity": 105}, {"time": 3258, "pitch": 50, "duration": 2, "velocity": 92}, {"time": 3261, "pitch": 62, "duration": 3, "velocity": 117}, {"time": 3267, "pitch": 52, "duration": 15, "velocity": 100}, {"time": 3267, "pitch": 64, "duration": 10, "velocity": 82}, {"time": 3267, "pitch": 67, "duration": 10, "velocity": 100}, {"time": 3279, "pitch": 64, "duration": 4, "velocity": 100}, {"time": 3279, "pitch": 67, "duration": 4, "velocity": 117}, {"time": 3279, "pitch": 71, "duration": 6, "velocity": 108}, {"time": 3282, "pitch": 59, "duration": 2, "velocity": 84}, {"time": 3285, "pitch": 64, "duration": 2, "velocity": 114}, {"time": 3291, "pitch": 47, "duration": 15, "velocity": 100}, {"time": 3291, "pitch": 57, "duration": 6, "velocity": 111}, {"time": 3291, "pitch": 62, "duration": 8, "velocity": 100}, {"time": 3297, "pitch": 54, "duration": 8, "velocity": 82}, {"time": 3303, "pitch": 59, "duration": 5, "velocity": 114}, {"time": 3303, "pitch": 62, "duration": 5, "velocity": 114}, {"time": 3303, "pitch": 66, "duration": 6, "velocity": 112}, {"time": 3309, "pitch": 47, "duration": 2, "velocity": 89}, {"time": 3315, "pitch": 48, "duration": 17, "velocity": 111}, {"time": 3315, "pitch": 60, "duration": 4, "velocity": 105}, {"time": 3315, "pitch": 64, "duration": 4, "velocity": 111}, {"time": 3318, "pitch": 55, "duration": 10, "velocity": 58}, {"time": 3321, "pitch": 60, "duration": 4, "velocity": 94}, {"time": 3327, "pitch": 60, "duration": 3, "velocity": 117}, {"time": 3327, "pitch": 67, "duration": 4, "velocity": 108}, {"time": 3330, "pitch": 55, "duration": 2, "velocity": 97}, {"time": 3333, "pitch": 60, "duration": 2, "velocity": 114}, {"time": 3339, "pitch": 50, "duration": 3, "velocity": 105}, {"time": 3339, "pitch": 57, "duration": 2, "velocity": 100}, {"time": 3339, "pitch": 62, "duration": 2, "velocity": 108}, {"time": 3339, "pitch": 66, "duration": 2, "velocity": 105}, {"time": 3342, "pitch": 50, "duration": 3, "velocity": 100}, {"time": 3342, "pitch": 57, "duration": 3, "velocity": 111}, {"time": 3342, "pitch": 62, "duration": 3, "velocity": 114}, {"time": 3342, "pitch": 66, "duration": 3, "velocity": 105}, {"time": 3351, "pitch": 50, "duration": 6, "velocity": 105}, {"time": 3351, "pitch": 57, "duration": 4, "velocity": 100}, {"time": 3351, "pitch": 62, "duration": 7, "velocity": 92}, {"time": 3351, "pitch": 66, "duration": 7, "velocity": 87}, {"time": 3351, "pitch": 69, "duration": 7, "velocity": 92}, {"time": 3363, "pitch": 40, "duration": 47, "velocity": 102}, {"time": 3363, "pitch": 47, "duration": 46, "velocity": 97}, {"time": 3363, "pitch": 52, "duration": 46, "velocity": 97}, {"time": 3363, "pitch": 59, "duration": 44, "velocity": 89}], "annotations": [{"time": 98, "annotation": {"number": 64, "value": 127}, "group": "control_change"}, {"time": 123, "annotation": {"number": 64, "value": 0}, "group": "control_change"}, {"time": 124, "annotation": {"number": 64, "value": 127}, "group": "control_change"}, {"time": 147, "annotation": {"number": 64, "value": 0}, "group": "control_change"}, {"time": 149, "annotation": {"number": 64, "value": 127}, "group": "control_change"}, {"time": 158, "annotation": {"number": 64, "value": 0}, "group": "control_change"}, {"time": 160, "annotation": {"number": 64, "value": 127}, "group": "control_change"}, {"time": 170, "annotation": {"number": 64, "value": 0}, "group": "control_change"}, {"time": 172, "annotation": {"number": 64, "value": 127}, "group": "control_change"}, {"time": 196, "annotation": {"number": 64, "value": 0}, "group": "control_change"}, {"time": 202, "annotation": {"number": 64, "value": 127}, "group": "control_change"}, {"time": 219, "annotation": {"number": 64, "value": 0}, "group": "control_change"}, {"time": 221, "annotation": {"number": 64, "value": 127}, "group": "control_change"}, {"time": 242, "annotation": {"number": 64, "value": 0}, "group": "control_change"}, {"time": 244, "annotation": {"number": 64, "value": 127}, "group": "control_change"}, {"time": 267, "annotation": {"number": 64, "value": 0}, "group": "control_change"}, {"time": 269, "annotation": {"number": 64, "value": 127}, "group": "control_change"}, {"time": 272, "annotation": {"number": 64, "value": 0}, "group": "control_change"}, {"time": 281, "annotation": {"number": 64, "value": 127}, "group": "control_change"}, {"time": 293, "annotation": {"number": 64, "value": 127}, "group": "control_change"}, {"time": 337, "annotation": {"number": 64, "value": 0}, "group": "control_change"}, {"time": 368, "annotation": {"number": 64, "value": 127}, "group": "control_change"}, {"time": 387, "annotation": {"number": 64, "value": 0}, "group": "control_change"}, {"time": 389, "annotation": {"number": 64, "value": 127}, "group": "control_change"}, {"time": 399, "annotation": {"number": 64, "value": 0}, "group": "control_change"}, {"time": 401, "annotation": {"number": 64, "value": 127}, "group": "control_change"}, {"time": 410, "annotation": {"number": 64, "value": 0}, "group": "control_change"}, {"time": 413, "annotation": {"number": 64, "value": 127}, "group": "control_change"}, {"time": 435, "annotation": {"number": 64, "value": 0}, "group": "control_change"}, {"time": 440, "annotation": {"number": 64, "value": 127}, "group": "control_change"}, {"time": 458, "annotation": {"number": 64, "value": 0}, "group": "control_change"}, {"time": 464, "annotation": {"number": 64, "value": 127}, "group": "control_change"}, {"time": 482, "annotation": {"number": 64, "value": 0}, "group": "control_change"}, {"time": 486, "annotation": {"number": 64, "value": 127}, "group": "control_change"}, {"time": 507, "annotation": {"number": 64, "value": 0}, "group": "control_change"}, {"time": 509, "annotation": {"number": 64, "value": 127}, "group": "control_change"}, {"time": 530, "annotation": {"number": 64, "value": 0}, "group": "control_change"}, {"time": 533, "annotation": {"number": 64, "value": 127}, "group": "control_change"}, {"time": 555, "annotation": {"number": 64, "value": 0}, "group": "control_change"}, {"time": 560, "annotation": {"number": 64, "value": 127}, "group": "control_change"}, {"time": 578, "annotation": {"number": 64, "value": 0}, "group": "control_change"}, {"time": 581, "annotation": {"number": 64, "value": 127}, "group": "control_change"}, {"time": 591, "annotation": {"number": 64, "value": 0}, "group": "control_change"}, {"time": 592, "annotation": {"number": 64, "value": 127}, "group": "control_change"}, {"time": 605, "annotation": {"number": 64, "value": 127}, "group": "control_change"}, {"time": 627, "annotation": {"number": 64, "value": 0}, "group": "control_change"}, {"time": 633, "annotation": {"number": 64, "value": 127}, "group": "control_change"}, {"time": 650, "annotation": {"number": 64, "value": 0}, "group": "control_change"}, {"time": 657, "annotation": {"number": 64, "value": 127}, "group": "control_change"}, {"time": 675, "annotation": {"number": 64, "value": 0}, "group": "control_change"}, {"time": 680, "annotation": {"number": 64, "value": 127}, "group": "control_change"}, {"time": 698, "annotation": {"number": 64, "value": 0}, "group": "control_change"}, {"time": 699, "annotation": {"number": 64, "value": 127}, "group": "control_change"}, {"time": 721, "annotation": {"number": 64, "value": 0}, "group": "control_change"}, {"time": 726, "annotation": {"number": 64, "value": 127}, "group": "control_change"}, {"time": 746, "annotation": {"number": 64, "value": 0}, "group": "control_change"}, {"time": 749, "annotation": {"number": 64, "value": 127}, "group": "control_change"}, {"time": 772, "annotation": {"number": 64, "value": 0}, "group": "control_change"}, {"time": 775, "annotation": {"number": 64, "value": 127}, "group": "control_change"}, {"time": 784, "annotation": {"number": 64, "value": 0}, "group": "control_change"}, {"time": 788, "annotation": {"number": 64, "value": 127}, "group": "control_change"}, {"time": 795, "annotation": {"number": 64, "value": 0}, "group": "control_change"}, {"time": 801, "annotation": {"number": 64, "value": 127}, "group": "control_change"}, {"time": 820, "annotation": {"number": 64, "value": 0}, "group": "control_change"}, {"time": 826, "annotation": {"number": 64, "value": 127}, "group": "control_change"}, {"time": 844, "annotation": {"number": 64, "value": 0}, "group": "control_change"}, {"time": 849, "annotation": {"number": 64, "value": 127}, "group": "control_change"}, {"time": 866, "annotation": {"number": 64, "value": 0}, "group": "control_change"}, {"time": 872, "annotation": {"number": 64, "value": 127}, "group": "control_change"}, {"time": 892, "annotation": {"number": 64, "value": 0}, "group": "control_change"}, {"time": 897, "annotation": {"number": 64, "value": 127}, "group": "control_change"}, {"time": 915, "annotation": {"number": 64, "value": 0}, "group": "control_change"}, {"time": 916, "annotation": {"number": 64, "value": 127}, "group": "control_change"}, {"time": 938, "annotation": {"number": 64, "value": 0}, "group": "control_change"}, {"time": 943, "annotation": {"number": 64, "value": 127}, "group": "control_change"}, {"time": 962, "annotation": {"number": 64, "value": 0}, "group": "control_change"}, {"time": 965, "annotation": {"number": 64, "value": 127}, "group": "control_change"}, {"time": 975, "annotation": {"number": 64, "value": 0}, "group": "control_change"}, {"time": 978, "annotation": {"number": 64, "value": 127}, "group": "control_change"}, {"time": 986, "annotation": {"number": 64, "value": 0}, "group": "control_change"}, {"time": 992, "annotation": {"number": 64, "value": 127}, "group": "control_change"}, {"time": 1012, "annotation": {"number": 64, "value": 0}, "group": "control_change"}, {"time": 1017, "annotation": {"number": 64, "value": 127}, "group": "control_change"}, {"time": 1020, "annotation": {"number": 64, "value": 127}, "group": "control_change"}, {"time": 1024, "annotation": {"number": 64, "value": 0}, "group": "control_change"}, {"time": 1035, "annotation": {"number": 64, "value": 0}, "group": "control_change"}, {"time": 1040, "annotation": {"number": 64, "value": 127}, "group": "control_change"}, {"time": 1058, "annotation": {"number": 64, "value": 0}, "group": "control_change"}, {"time": 1061, "annotation": {"number": 64, "value": 127}, "group": "control_change"}, {"time": 1078, "annotation": {"number": 64, "value": 127}, "group": "control_change"}, {"time": 1083, "annotation": {"number": 64, "value": 0}, "group": "control_change"}, {"time": 1085, "annotation": {"number": 64, "value": 127}, "group": "control_change"}, {"time": 1098, "annotation": {"number": 64, "value": 127}, "group": "control_change"}, {"time": 1106, "annotation": {"number": 64, "value": 0}, "group": "control_change"}, {"time": 1108, "annotation": {"number": 64, "value": 127}, "group": "control_change"}, {"time": 1131, "annotation": {"number": 64, "value": 0}, "group": "control_change"}, {"time": 1133, "annotation": {"number": 64, "value": 127}, "group": "control_change"}, {"time": 1156, "annotation": {"number": 64, "value": 0}, "group": "control_change"}, {"time": 1160, "annotation": {"number": 64, "value": 127}, "group": "control_change"}, {"time": 1167, "annotation": {"number": 64, "value": 0}, "group": "control_change"}, {"time": 1173, "annotation": {"number": 64, "value": 127}, "group": "control_change"}, {"time": 1179, "annotation": {"number": 64, "value": 0}, "group": "control_change"}, {"time": 1181, "annotation": {"number": 64, "value": 127}, "group": "control_change"}, {"time": 1203, "annotation": {"number": 64, "value": 0}, "group": "control_change"}, {"time": 1208, "annotation": {"number": 64, "value": 127}, "group": "control_change"}, {"time": 1227, "annotation": {"number": 64, "value": 0}, "group": "control_change"}, {"time": 1233, "annotation": {"number": 64, "value": 127}, "group": "control_change"}, {"time": 1251, "annotation": {"number": 64, "value": 0}, "group": "control_change"}, {"time": 1256, "annotation": {"number": 64, "value": 127}, "group": "control_change"}, {"time": 1274, "annotation": {"number": 64, "value": 0}, "group": "control_change"}, {"time": 1278, "annotation": {"number": 64, "value": 127}, "group": "control_change"}, {"time": 1299, "annotation": {"number": 64, "value": 0}, "group": "control_change"}, {"time": 1305, "annotation": {"number": 64, "value": 127}, "group": "control_change"}, {"time": 1324, "annotation": {"number": 64, "value": 0}, "group": "control_change"}, {"time": 1329, "annotation": {"number": 64, "value": 127}, "group": "control_change"}, {"time": 1347, "annotation": {"number": 64, "value": 0}, "group": "control_change"}, {"time": 1350, "annotation": {"number": 64, "value": 127}, "group": "control_change"}, {"time": 1358, "annotation": {"number": 64, "value": 0}, "group": "control_change"}, {"time": 1363, "annotation": {"number": 64, "value": 127}, "group": "control_change"}, {"time": 1370, "annotation": {"number": 64, "value": 0}, "group": "control_change"}, {"time": 1376, "annotation": {"number": 64, "value": 127}, "group": "control_change"}, {"time": 1395, "annotation": {"number": 64, "value": 0}, "group": "control_change"}, {"time": 1398, "annotation": {"number": 64, "value": 127}, "group": "control_change"}, {"time": 1420, "annotation": {"number": 64, "value": 0}, "group": "control_change"}, {"time": 1422, "annotation": {"number": 64, "value": 127}, "group": "control_change"}, {"time": 1443, "annotation": {"number": 64, "value": 0}, "group": "control_change"}, {"time": 1448, "annotation": {"number": 64, "value": 127}, "group": "control_change"}, {"time": 1467, "annotation": {"number": 64, "value": 0}, "group": "control_change"}, {"time": 1470, "annotation": {"number": 64, "value": 127}, "group": "control_change"}, {"time": 1492, "annotation": {"number": 64, "value": 0}, "group": "control_change"}, {"time": 1492, "annotation": {"number": 64, "value": 127}, "group": "control_change"}, {"time": 1497, "annotation": {"number": 64, "value": 127}, "group": "control_change"}, {"time": 1505, "annotation": {"number": 64, "value": 0}, "group": "control_change"}, {"time": 1510, "annotation": {"number": 64, "value": 0}, "group": "control_change"}, {"time": 1516, "annotation": {"number": 64, "value": 127}, "group": "control_change"}, {"time": 1538, "annotation": {"number": 64, "value": 0}, "group": "control_change"}, {"time": 1540, "annotation": {"number": 64, "value": 127}, "group": "control_change"}, {"time": 1563, "annotation": {"number": 64, "value": 0}, "group": "control_change"}, {"time": 1565, "annotation": {"number": 64, "value": 127}, "group": "control_change"}, {"time": 1587, "annotation": {"number": 64, "value": 0}, "group": "control_change"}, {"time": 1589, "annotation": {"number": 64, "value": 127}, "group": "control_change"}, {"time": 1598, "annotation": {"number": 64, "value": 0}, "group": "control_change"}, {"time": 1602, "annotation": {"number": 64, "value": 127}, "group": "control_change"}, {"time": 1610, "annotation": {"number": 64, "value": 0}, "group": "control_change"}, {"time": 1613, "annotation": {"number": 64, "value": 127}, "group": "control_change"}, {"time": 1635, "annotation": {"number": 64, "value": 0}, "group": "control_change"}, {"time": 1639, "annotation": {"number": 64, "value": 127}, "group": "control_change"}, {"time": 1659, "annotation": {"number": 64, "value": 0}, "group": "control_change"}, {"time": 1661, "annotation": {"number": 64, "value": 127}, "group": "control_change"}, {"time": 1683, "annotation": {"number": 64, "value": 0}, "group": "control_change"}, {"time": 1688, "annotation": {"number": 64, "value": 127}, "group": "control_change"}, {"time": 1706, "annotation": {"number": 64, "value": 0}, "group": "control_change"}, {"time": 1709, "annotation": {"number": 64, "value": 127}, "group": "control_change"}, {"time": 1731, "annotation": {"number": 64, "value": 0}, "group": "control_change"}, {"time": 1734, "annotation": {"number": 64, "value": 127}, "group": "control_change"}, {"time": 1754, "annotation": {"number": 64, "value": 0}, "group": "control_change"}, {"time": 1756, "annotation": {"number": 64, "value": 127}, "group": "control_change"}, {"time": 1779, "annotation": {"number": 64, "value": 0}, "group": "control_change"}, {"time": 1784, "annotation": {"number": 64, "value": 127}, "group": "control_change"}, {"time": 1790, "annotation": {"number": 64, "value": 0}, "group": "control_change"}, {"time": 1794, "annotation": {"number": 64, "value": 127}, "group": "control_change"}, {"time": 1802, "annotation": {"number": 64, "value": 0}, "group": "control_change"}, {"time": 1808, "annotation": {"number": 64, "value": 127}, "group": "control_change"}, {"time": 1827, "annotation": {"number": 64, "value": 0}, "group": "control_change"}, {"time": 1833, "annotation": {"number": 64, "value": 127}, "group": "control_change"}, {"time": 1852, "annotation": {"number": 64, "value": 0}, "group": "control_change"}, {"time": 1855, "annotation": {"number": 64, "value": 127}, "group": "control_change"}, {"time": 1875, "annotation": {"number": 64, "value": 0}, "group": "control_change"}, {"time": 1879, "annotation": {"number": 64, "value": 127}, "group": "control_change"}, {"time": 1903, "annotation": {"number": 64, "value": 0}, "group": "control_change"}, {"time": 1905, "annotation": {"number": 64, "value": 127}, "group": "control_change"}, {"time": 1921, "annotation": {"number": 64, "value": 0}, "group": "control_change"}, {"time": 1926, "annotation": {"number": 64, "value": 127}, "group": "control_change"}, {"time": 1946, "annotation": {"number": 64, "value": 0}, "group": "control_change"}, {"time": 1949, "annotation": {"number": 64, "value": 127}, "group": "control_change"}, {"time": 1972, "annotation": {"number": 64, "value": 0}, "group": "control_change"}, {"time": 1975, "annotation": {"number": 64, "value": 127}, "group": "control_change"}, {"time": 1984, "annotation": {"number": 64, "value": 0}, "group": "control_change"}, {"time": 1988, "annotation": {"number": 64, "value": 127}, "group": "control_change"}, {"time": 1995, "annotation": {"number": 64, "value": 0}, "group": "control_change"}, {"time": 2001, "annotation": {"number": 64, "value": 127}, "group": "control_change"}, {"time": 2020, "annotation": {"number": 64, "value": 0}, "group": "control_change"}, {"time": 2026, "annotation": {"number": 64, "value": 127}, "group": "control_change"}, {"time": 2044, "annotation": {"number": 64, "value": 0}, "group": "control_change"}, {"time": 2049, "annotation": {"number": 64, "value": 127}, "group": "control_change"}, {"time": 2066, "annotation": {"number": 64, "value": 0}, "group": "control_change"}, {"time": 2072, "annotation": {"number": 64, "value": 127}, "group": "control_change"}, {"time": 2092, "annotation": {"number": 64, "value": 0}, "group": "control_change"}, {"time": 2097, "annotation": {"number": 64, "value": 127}, "group": "control_change"}, {"time": 2115, "annotation": {"number": 64, "value": 0}, "group": "control_change"}, {"time": 2116, "annotation": {"number": 64, "value": 127}, "group": "control_change"}, {"time": 2138, "annotation": {"number": 64, "value": 0}, "group": "control_change"}, {"time": 2143, "annotation": {"number": 64, "value": 127}, "group": "control_change"}, {"time": 2162, "annotation": {"number": 64, "value": 0}, "group": "control_change"}, {"time": 2165, "annotation": {"number": 64, "value": 127}, "group": "control_change"}, {"time": 2175, "annotation": {"number": 64, "value": 0}, "group": "control_change"}, {"time": 2178, "annotation": {"number": 64, "value": 127}, "group": "control_change"}, {"time": 2186, "annotation": {"number": 64, "value": 0}, "group": "control_change"}, {"time": 2192, "annotation": {"number": 64, "value": 127}, "group": "control_change"}, {"time": 2212, "annotation": {"number": 64, "value": 0}, "group": "control_change"}, {"time": 2217, "annotation": {"number": 64, "value": 127}, "group": "control_change"}, {"time": 2220, "annotation": {"number": 64, "value": 127}, "group": "control_change"}, {"time": 2224, "annotation": {"number": 64, "value": 0}, "group": "control_change"}, {"time": 2235, "annotation": {"number": 64, "value": 0}, "group": "control_change"}, {"time": 2240, "annotation": {"number": 64, "value": 127}, "group": "control_change"}, {"time": 2258, "annotation": {"number": 64, "value": 0}, "group": "control_change"}, {"time": 2261, "annotation": {"number": 64, "value": 127}, "group": "control_change"}, {"time": 2278, "annotation": {"number": 64, "value": 127}, "group": "control_change"}, {"time": 2283, "annotation": {"number": 64, "value": 0}, "group": "control_change"}, {"time": 2285, "annotation": {"number": 64, "value": 127}, "group": "control_change"}, {"time": 2298, "annotation": {"number": 64, "value": 127}, "group": "control_change"}, {"time": 2306, "annotation": {"number": 64, "value": 0}, "group": "control_change"}, {"time": 2308, "annotation": {"number": 64, "value": 127}, "group": "control_change"}, {"time": 2331, "annotation": {"number": 64, "value": 0}, "group": "control_change"}, {"time": 2333, "annotation": {"number": 64, "value": 127}, "group": "control_change"}, {"time": 2356, "annotation": {"number": 64, "value": 0}, "group": "control_change"}, {"time": 2360, "annotation": {"number": 64, "value": 127}, "group": "control_change"}, {"time": 2367, "annotation": {"number": 64, "value": 0}, "group": "control_change"}, {"time": 2373, "annotation": {"number": 64, "value": 127}, "group": "control_change"}, {"time": 2379, "annotation": {"number": 64, "value": 0}, "group": "control_change"}, {"time": 2381, "annotation": {"number": 64, "value": 127}, "group": "control_change"}, {"time": 2403, "annotation": {"number": 64, "value": 0}, "group": "control_change"}, {"time": 2408, "annotation": {"number": 64, "value": 127}, "group": "control_change"}, {"time": 2427, "annotation": {"number": 64, "value": 0}, "group": "control_change"}, {"time": 2433, "annotation": {"number": 64, "value": 127}, "group": "control_change"}, {"time": 2451, "annotation": {"number": 64, "value": 0}, "group": "control_change"}, {"time": 2456, "annotation": {"number": 64, "value": 127}, "group": "control_change"}, {"time": 2474, "annotation": {"number": 64, "value": 0}, "group": "control_change"}, {"time": 2478, "annotation": {"number": 64, "value": 127}, "group": "control_change"}, {"time": 2499, "annotation": {"number": 64, "value": 0}, "group": "control_change"}, {"time": 2505, "annotation": {"number": 64, "value": 127}, "group": "control_change"}, {"time": 2524, "annotation": {"number": 64, "value": 0}, "group": "control_change"}, {"time": 2529, "annotation": {"number": 64, "value": 127}, "group": "control_change"}, {"time": 2547, "annotation": {"number": 64, "value": 0}, "group": "control_change"}, {"time": 2550, "annotation": {"number": 64, "value": 127}, "group": "control_change"}, {"time": 2558, "annotation": {"number": 64, "value": 0}, "group": "control_change"}, {"time": 2563, "annotation": {"number": 64, "value": 127}, "group": "control_change"}, {"time": 2570, "annotation": {"number": 64, "value": 0}, "group": "control_change"}, {"time": 2576, "annotation": {"number": 64, "value": 127}, "group": "control_change"}, {"time": 2595, "annotation": {"number": 64, "value": 0}, "group": "control_change"}, {"time": 2598, "annotation": {"number": 64, "value": 127}, "group": "control_change"}, {"time": 2620, "annotation": {"number": 64, "value": 0}, "group": "control_change"}, {"time": 2622, "annotation": {"number": 64, "value": 127}, "group": "control_change"}, {"time": 2643, "annotation": {"number": 64, "value": 0}, "group": "control_change"}, {"time": 2648, "annotation": {"number": 64, "value": 127}, "group": "control_change"}, {"time": 2667, "annotation": {"number": 64, "value": 0}, "group": "control_change"}, {"time": 2670, "annotation": {"number": 64, "value": 127}, "group": "control_change"}, {"time": 2692, "annotation": {"number": 64, "value": 0}, "group": "control_change"}, {"time": 2692, "annotation": {"number": 64, "value": 127}, "group": "control_change"}, {"time": 2697, "annotation": {"number": 64, "value": 127}, "group": "control_change"}, {"time": 2705, "annotation": {"number": 64, "value": 0}, "group": "control_change"}, {"time": 2710, "annotation": {"number": 64, "value": 0}, "group": "control_change"}, {"time": 2716, "annotation": {"number": 64, "value": 127}, "group": "control_change"}, {"time": 2738, "annotation": {"number": 64, "value": 0}, "group": "control_change"}, {"time": 2740, "annotation": {"number": 64, "value": 127}, "group": "control_change"}, {"time": 2763, "annotation": {"number": 64, "value": 0}, "group": "control_change"}, {"time": 2765, "annotation": {"number": 64, "value": 127}, "group": "control_change"}, {"time": 2788, "annotation": {"number": 64, "value": 0}, "group": "control_change"}, {"time": 2792, "annotation": {"number": 64, "value": 127}, "group": "control_change"}, {"time": 2799, "annotation": {"number": 64, "value": 0}, "group": "control_change"}, {"time": 2805, "annotation": {"number": 64, "value": 127}, "group": "control_change"}, {"time": 2811, "annotation": {"number": 64, "value": 0}, "group": "control_change"}, {"time": 2813, "annotation": {"number": 64, "value": 127}, "group": "control_change"}, {"time": 2835, "annotation": {"number": 64, "value": 0}, "group": "control_change"}, {"time": 2840, "annotation": {"number": 64, "value": 127}, "group": "control_change"}, {"time": 2859, "annotation": {"number": 64, "value": 0}, "group": "control_change"}, {"time": 2865, "annotation": {"number": 64, "value": 127}, "group": "control_change"}, {"time": 2883, "annotation": {"number": 64, "value": 0}, "group": "control_change"}, {"time": 2888, "annotation": {"number": 64, "value": 127}, "group": "control_change"}, {"time": 2906, "annotation": {"number": 64, "value": 0}, "group": "control_change"}, {"time": 2910, "annotation": {"number": 64, "value": 127}, "group": "control_change"}, {"time": 2931, "annotation": {"number": 64, "value": 0}, "group": "control_change"}, {"time": 2937, "annotation": {"number": 64, "value": 127}, "group": "control_change"}, {"time": 2956, "annotation": {"number": 64, "value": 0}, "group": "control_change"}, {"time": 2961, "annotation": {"number": 64, "value": 127}, "group": "control_change"}, {"time": 2979, "annotation": {"number": 64, "value": 0}, "group": "control_change"}, {"time": 2982, "annotation": {"number": 64, "value": 127}, "group": "control_change"}, {"time": 2990, "annotation": {"number": 64, "value": 0}, "group": "control_change"}, {"time": 2995, "annotation": {"number": 64, "value": 127}, "group": "control_change"}, {"time": 3002, "annotation": {"number": 64, "value": 0}, "group": "control_change"}, {"time": 3008, "annotation": {"number": 64, "value": 127}, "group": "control_change"}, {"time": 3027, "annotation": {"number": 64, "value": 0}, "group": "control_change"}, {"time": 3030, "annotation": {"number": 64, "value": 127}, "group": "control_change"}, {"time": 3052, "annotation": {"number": 64, "value": 0}, "group": "control_change"}, {"time": 3054, "annotation": {"number": 64, "value": 127}, "group": "control_change"}, {"time": 3075, "annotation": {"number": 64, "value": 0}, "group": "control_change"}, {"time": 3080, "annotation": {"number": 64, "value": 127}, "group": "control_change"}, {"time": 3099, "annotation": {"number": 64, "value": 0}, "group": "control_change"}, {"time": 3102, "annotation": {"number": 64, "value": 127}, "group": "control_change"}, {"time": 3123, "annotation": {"number": 64, "value": 127}, "group": "control_change"}, {"time": 3170, "annotation": {"number": 64, "value": 0}, "group": "control_change"}, {"time": 3195, "annotation": {"number": 64, "value": 0}, "group": "control_change"}, {"time": 3196, "annotation": {"number": 64, "value": 127}, "group": "control_change"}, {"time": 3219, "annotation": {"number": 64, "value": 0}, "group": "control_change"}, {"time": 3221, "annotation": {"number": 64, "value": 127}, "group": "control_change"}, {"time": 3230, "annotation": {"number": 64, "value": 0}, "group": "control_change"}, {"time": 3232, "annotation": {"number": 64, "value": 127}, "group": "control_change"}, {"time": 3242, "annotation": {"number": 64, "value": 0}, "group": "control_change"}, {"time": 3244, "annotation": {"number": 64, "value": 127}, "group": "control_change"}, {"time": 3268, "annotation": {"number": 64, "value": 0}, "group": "control_change"}, {"time": 3274, "annotation": {"number": 64, "value": 127}, "group": "control_change"}, {"time": 3291, "annotation": {"number": 64, "value": 0}, "group": "control_change"}, {"time": 3293, "annotation": {"number": 64, "value": 127}, "group": "control_change"}, {"time": 3314, "annotation": {"number": 64, "value": 0}, "group": "control_change"}, {"time": 3316, "annotation": {"number": 64, "value": 127}, "group": "control_change"}, {"time": 3339, "annotation": {"number": 64, "value": 0}, "group": "control_change"}, {"time": 3341, "annotation": {"number": 64, "value": 127}, "group": "control_change"}, {"time": 3344, "annotation": {"number": 64, "value": 0}, "group": "control_change"}, {"time": 3353, "annotation": {"number": 64, "value": 127}, "group": "control_change"}, {"time": 3365, "annotation": {"number": 64, "value": 127}, "group": "control_change"}, {"time": 3409, "annotation": {"number": 64, "value": 0}, "group": "control_change"}]}]}