{"metadata": {"schema_version": "0.2", "title": "None", "source_filename": "131.mid", "source_format": "midi"}, "resolution": 12, "tempos": [{"time": 0, "qpm": 56.000029866682596}, {"time": 588, "qpm": 57.00008550012825}, {"time": 612, "qpm": 56.000029866682596}], "time_signatures": [{"time": 0, "numerator": 1, "denominator": 4}], "tracks": [{"program": 4, "is_drum": false, "name": "MELODY", "notes": [{"time": 233, "pitch": 67, "duration": 3, "velocity": 87}, {"time": 236, "pitch": 76, "duration": 6, "velocity": 105}, {"time": 242, "pitch": 74, "duration": 3, "velocity": 94}, {"time": 245, "pitch": 76, "duration": 3, "velocity": 84}, {"time": 248, "pitch": 74, "duration": 6, "velocity": 100}, {"time": 254, "pitch": 74, "duration": 6, "velocity": 76}, {"time": 260, "pitch": 74, "duration": 7, "velocity": 82}, {"time": 266, "pitch": 71, "duration": 3, "velocity": 100}, {"time": 269, "pitch": 71, "duration": 6, "velocity": 102}, {"time": 275, "pitch": 72, "duration": 37, "velocity": 92}, {"time": 329, "pitch": 67, "duration": 3, "velocity": 111}, {"time": 332, "pitch": 76, "duration": 6, "velocity": 105}, {"time": 338, "pitch": 74, "duration": 3, "velocity": 94}, {"time": 341, "pitch": 76, "duration": 3, "velocity": 102}, {"time": 344, "pitch": 74, "duration": 6, "velocity": 105}, {"time": 350, "pitch": 74, "duration": 7, "velocity": 100}, {"time": 357, "pitch": 74, "duration": 6, "velocity": 102}, {"time": 362, "pitch": 71, "duration": 3, "velocity": 117}, {"time": 366, "pitch": 71, "duration": 5, "velocity": 117}, {"time": 371, "pitch": 69, "duration": 26, "velocity": 117}, {"time": 414, "pitch": 67, "duration": 2, "velocity": 117}, {"time": 416, "pitch": 81, "duration": 6, "velocity": 114}, {"time": 422, "pitch": 79, "duration": 9, "velocity": 108}, {"time": 431, "pitch": 72, "duration": 6, "velocity": 117}, {"time": 437, "pitch": 74, "duration": 3, "velocity": 111}, {"time": 440, "pitch": 76, "duration": 19, "velocity": 97}, {"time": 459, "pitch": 74, "duration": 3, "velocity": 114}, {"time": 462, "pitch": 72, "duration": 3, "velocity": 111}, {"time": 465, "pitch": 76, "duration": 6, "velocity": 111}, {"time": 471, "pitch": 74, "duration": 3, "velocity": 105}, {"time": 474, "pitch": 74, "duration": 9, "velocity": 97}, {"time": 483, "pitch": 71, "duration": 3, "velocity": 105}, {"time": 486, "pitch": 72, "duration": 23, "velocity": 108}, {"time": 522, "pitch": 67, "duration": 3, "velocity": 105}, {"time": 525, "pitch": 76, "duration": 6, "velocity": 114}, {"time": 531, "pitch": 74, "duration": 3, "velocity": 97}, {"time": 534, "pitch": 76, "duration": 3, "velocity": 100}, {"time": 537, "pitch": 74, "duration": 6, "velocity": 97}, {"time": 543, "pitch": 74, "duration": 6, "velocity": 100}, {"time": 549, "pitch": 74, "duration": 6, "velocity": 102}, {"time": 555, "pitch": 71, "duration": 3, "velocity": 102}, {"time": 558, "pitch": 72, "duration": 41, "velocity": 102}, {"time": 617, "pitch": 67, "duration": 3, "velocity": 87}, {"time": 620, "pitch": 76, "duration": 6, "velocity": 105}, {"time": 626, "pitch": 74, "duration": 3, "velocity": 94}, {"time": 629, "pitch": 76, "duration": 3, "velocity": 84}, {"time": 632, "pitch": 74, "duration": 6, "velocity": 100}, {"time": 638, "pitch": 74, "duration": 6, "velocity": 76}, {"time": 644, "pitch": 74, "duration": 7, "velocity": 82}, {"time": 650, "pitch": 71, "duration": 3, "velocity": 100}, {"time": 653, "pitch": 72, "duration": 6, "velocity": 102}, {"time": 659, "pitch": 69, "duration": 36, "velocity": 92}, {"time": 713, "pitch": 67, "duration": 3, "velocity": 111}, {"time": 716, "pitch": 76, "duration": 6, "velocity": 105}, {"time": 722, "pitch": 74, "duration": 3, "velocity": 94}, {"time": 725, "pitch": 76, "duration": 3, "velocity": 102}, {"time": 728, "pitch": 74, "duration": 6, "velocity": 105}, {"time": 734, "pitch": 74, "duration": 7, "velocity": 100}, {"time": 741, "pitch": 74, "duration": 6, "velocity": 102}, {"time": 746, "pitch": 79, "duration": 3, "velocity": 117}, {"time": 750, "pitch": 79, "duration": 5, "velocity": 117}, {"time": 755, "pitch": 76, "duration": 26, "velocity": 117}, {"time": 795, "pitch": 72, "duration": 3, "velocity": 114}, {"time": 798, "pitch": 72, "duration": 3, "velocity": 114}, {"time": 800, "pitch": 81, "duration": 6, "velocity": 114}, {"time": 806, "pitch": 79, "duration": 3, "velocity": 108}, {"time": 809, "pitch": 79, "duration": 6, "velocity": 108}, {"time": 815, "pitch": 72, "duration": 6, "velocity": 117}, {"time": 821, "pitch": 74, "duration": 3, "velocity": 111}, {"time": 824, "pitch": 76, "duration": 19, "velocity": 97}, {"time": 843, "pitch": 74, "duration": 3, "velocity": 114}, {"time": 846, "pitch": 72, "duration": 3, "velocity": 111}, {"time": 849, "pitch": 76, "duration": 6, "velocity": 111}, {"time": 855, "pitch": 74, "duration": 3, "velocity": 105}, {"time": 858, "pitch": 74, "duration": 9, "velocity": 97}, {"time": 867, "pitch": 71, "duration": 3, "velocity": 105}, {"time": 870, "pitch": 72, "duration": 24, "velocity": 108}, {"time": 894, "pitch": 72, "duration": 3, "velocity": 92}, {"time": 897, "pitch": 76, "duration": 3, "velocity": 108}, {"time": 900, "pitch": 76, "duration": 9, "velocity": 108}, {"time": 909, "pitch": 74, "duration": 6, "velocity": 105}, {"time": 915, "pitch": 72, "duration": 3, "velocity": 114}, {"time": 918, "pitch": 74, "duration": 6, "velocity": 105}, {"time": 924, "pitch": 74, "duration": 9, "velocity": 105}, {"time": 933, "pitch": 74, "duration": 6, "velocity": 105}, {"time": 939, "pitch": 72, "duration": 3, "velocity": 117}, {"time": 942, "pitch": 72, "duration": 27, "velocity": 114}, {"time": 987, "pitch": 81, "duration": 3, "velocity": 108}, {"time": 990, "pitch": 83, "duration": 3, "velocity": 117}, {"time": 993, "pitch": 84, "duration": 3, "velocity": 111}, {"time": 996, "pitch": 83, "duration": 3, "velocity": 114}, {"time": 999, "pitch": 79, "duration": 3, "velocity": 114}, {"time": 1002, "pitch": 84, "duration": 6, "velocity": 117}, {"time": 1008, "pitch": 83, "duration": 6, "velocity": 117}, {"time": 1014, "pitch": 84, "duration": 6, "velocity": 108}, {"time": 1020, "pitch": 83, "duration": 3, "velocity": 111}, {"time": 1023, "pitch": 79, "duration": 3, "velocity": 114}, {"time": 1026, "pitch": 84, "duration": 6, "velocity": 117}, {"time": 1032, "pitch": 83, "duration": 6, "velocity": 120}, {"time": 1038, "pitch": 79, "duration": 6, "velocity": 114}, {"time": 1044, "pitch": 76, "duration": 6, "velocity": 108}, {"time": 1050, "pitch": 79, "duration": 33, "velocity": 102}, {"time": 1083, "pitch": 72, "duration": 3, "velocity": 105}, {"time": 1086, "pitch": 72, "duration": 3, "velocity": 111}, {"time": 1089, "pitch": 81, "duration": 3, "velocity": 111}, {"time": 1092, "pitch": 79, "duration": 3, "velocity": 108}, {"time": 1095, "pitch": 72, "duration": 3, "velocity": 117}, {"time": 1098, "pitch": 81, "duration": 6, "velocity": 111}, {"time": 1104, "pitch": 79, "duration": 6, "velocity": 111}, {"time": 1110, "pitch": 81, "duration": 6, "velocity": 111}, {"time": 1116, "pitch": 79, "duration": 3, "velocity": 100}, {"time": 1119, "pitch": 72, "duration": 3, "velocity": 117}, {"time": 1122, "pitch": 81, "duration": 6, "velocity": 111}, {"time": 1128, "pitch": 79, "duration": 3, "velocity": 102}, {"time": 1131, "pitch": 72, "duration": 3, "velocity": 111}, {"time": 1134, "pitch": 72, "duration": 6, "velocity": 114}, {"time": 1140, "pitch": 79, "duration": 6, "velocity": 108}, {"time": 1146, "pitch": 76, "duration": 39, "velocity": 114}, {"time": 1185, "pitch": 76, "duration": 3, "velocity": 114}, {"time": 1188, "pitch": 79, "duration": 12, "velocity": 111}, {"time": 1200, "pitch": 72, "duration": 6, "velocity": 114}, {"time": 1206, "pitch": 74, "duration": 3, "velocity": 102}, {"time": 1209, "pitch": 74, "duration": 18, "velocity": 105}, {"time": 1227, "pitch": 72, "duration": 3, "velocity": 111}, {"time": 1230, "pitch": 74, "duration": 3, "velocity": 102}, {"time": 1233, "pitch": 76, "duration": 6, "velocity": 111}, {"time": 1239, "pitch": 79, "duration": 6, "velocity": 114}, {"time": 1245, "pitch": 83, "duration": 6, "velocity": 120}, {"time": 1251, "pitch": 79, "duration": 3, "velocity": 105}, {"time": 1254, "pitch": 84, "duration": 27, "velocity": 111}, {"time": 1281, "pitch": 84, "duration": 3, "velocity": 111}, {"time": 1284, "pitch": 83, "duration": 3, "velocity": 114}, {"time": 1287, "pitch": 79, "duration": 3, "velocity": 117}, {"time": 1290, "pitch": 79, "duration": 6, "velocity": 108}, {"time": 1296, "pitch": 76, "duration": 6, "velocity": 108}, {"time": 1302, "pitch": 74, "duration": 6, "velocity": 111}, {"time": 1308, "pitch": 71, "duration": 6, "velocity": 102}, {"time": 1314, "pitch": 76, "duration": 15, "velocity": 117}, {"time": 1329, "pitch": 71, "duration": 3, "velocity": 117}, {"time": 1332, "pitch": 69, "duration": 68, "velocity": 92}, {"time": 1577, "pitch": 67, "duration": 3, "velocity": 87}, {"time": 1580, "pitch": 76, "duration": 6, "velocity": 105}, {"time": 1586, "pitch": 74, "duration": 3, "velocity": 94}, {"time": 1589, "pitch": 76, "duration": 3, "velocity": 84}, {"time": 1592, "pitch": 74, "duration": 6, "velocity": 100}, {"time": 1598, "pitch": 74, "duration": 6, "velocity": 76}, {"time": 1604, "pitch": 74, "duration": 7, "velocity": 82}, {"time": 1610, "pitch": 71, "duration": 3, "velocity": 100}, {"time": 1613, "pitch": 72, "duration": 6, "velocity": 102}, {"time": 1619, "pitch": 69, "duration": 54, "velocity": 92}, {"time": 1673, "pitch": 67, "duration": 3, "velocity": 111}, {"time": 1676, "pitch": 76, "duration": 6, "velocity": 105}, {"time": 1682, "pitch": 74, "duration": 3, "velocity": 94}, {"time": 1685, "pitch": 76, "duration": 3, "velocity": 102}, {"time": 1688, "pitch": 74, "duration": 6, "velocity": 105}, {"time": 1694, "pitch": 74, "duration": 7, "velocity": 100}, {"time": 1701, "pitch": 74, "duration": 6, "velocity": 102}, {"time": 1706, "pitch": 79, "duration": 3, "velocity": 117}, {"time": 1710, "pitch": 79, "duration": 5, "velocity": 117}, {"time": 1715, "pitch": 76, "duration": 40, "velocity": 117}, {"time": 1755, "pitch": 72, "duration": 3, "velocity": 114}, {"time": 1758, "pitch": 72, "duration": 3, "velocity": 114}, {"time": 1760, "pitch": 81, "duration": 6, "velocity": 114}, {"time": 1766, "pitch": 79, "duration": 3, "velocity": 108}, {"time": 1769, "pitch": 79, "duration": 6, "velocity": 108}, {"time": 1775, "pitch": 72, "duration": 6, "velocity": 117}, {"time": 1781, "pitch": 74, "duration": 3, "velocity": 111}, {"time": 1784, "pitch": 76, "duration": 19, "velocity": 97}, {"time": 1803, "pitch": 74, "duration": 3, "velocity": 114}, {"time": 1806, "pitch": 72, "duration": 3, "velocity": 111}, {"time": 1809, "pitch": 76, "duration": 6, "velocity": 111}, {"time": 1815, "pitch": 74, "duration": 3, "velocity": 105}, {"time": 1818, "pitch": 74, "duration": 9, "velocity": 97}, {"time": 1827, "pitch": 71, "duration": 3, "velocity": 105}, {"time": 1830, "pitch": 72, "duration": 24, "velocity": 108}, {"time": 1854, "pitch": 72, "duration": 3, "velocity": 92}, {"time": 1857, "pitch": 76, "duration": 3, "velocity": 108}, {"time": 1860, "pitch": 76, "duration": 9, "velocity": 108}, {"time": 1869, "pitch": 74, "duration": 6, "velocity": 105}, {"time": 1875, "pitch": 72, "duration": 3, "velocity": 114}, {"time": 1878, "pitch": 74, "duration": 6, "velocity": 105}, {"time": 1884, "pitch": 74, "duration": 9, "velocity": 105}, {"time": 1893, "pitch": 74, "duration": 6, "velocity": 105}, {"time": 1899, "pitch": 72, "duration": 3, "velocity": 117}, {"time": 1902, "pitch": 72, "duration": 28, "velocity": 114}, {"time": 1947, "pitch": 81, "duration": 3, "velocity": 108}, {"time": 1950, "pitch": 83, "duration": 3, "velocity": 117}, {"time": 1953, "pitch": 84, "duration": 3, "velocity": 111}, {"time": 1956, "pitch": 83, "duration": 3, "velocity": 114}, {"time": 1959, "pitch": 79, "duration": 3, "velocity": 114}, {"time": 1962, "pitch": 84, "duration": 6, "velocity": 117}, {"time": 1968, "pitch": 83, "duration": 6, "velocity": 117}, {"time": 1974, "pitch": 84, "duration": 6, "velocity": 108}, {"time": 1980, "pitch": 83, "duration": 3, "velocity": 111}, {"time": 1983, "pitch": 79, "duration": 3, "velocity": 114}, {"time": 1986, "pitch": 84, "duration": 6, "velocity": 117}, {"time": 1992, "pitch": 83, "duration": 6, "velocity": 120}, {"time": 1998, "pitch": 79, "duration": 6, "velocity": 114}, {"time": 2004, "pitch": 76, "duration": 6, "velocity": 108}, {"time": 2010, "pitch": 79, "duration": 33, "velocity": 102}, {"time": 2043, "pitch": 72, "duration": 3, "velocity": 105}, {"time": 2046, "pitch": 72, "duration": 3, "velocity": 111}, {"time": 2049, "pitch": 81, "duration": 3, "velocity": 111}, {"time": 2052, "pitch": 79, "duration": 3, "velocity": 108}, {"time": 2055, "pitch": 72, "duration": 3, "velocity": 117}, {"time": 2058, "pitch": 81, "duration": 6, "velocity": 111}, {"time": 2064, "pitch": 79, "duration": 6, "velocity": 111}, {"time": 2070, "pitch": 81, "duration": 6, "velocity": 111}, {"time": 2076, "pitch": 79, "duration": 3, "velocity": 100}, {"time": 2079, "pitch": 72, "duration": 3, "velocity": 117}, {"time": 2082, "pitch": 81, "duration": 6, "velocity": 111}, {"time": 2088, "pitch": 79, "duration": 3, "velocity": 102}, {"time": 2091, "pitch": 72, "duration": 3, "velocity": 111}, {"time": 2094, "pitch": 72, "duration": 6, "velocity": 114}, {"time": 2100, "pitch": 79, "duration": 6, "velocity": 108}, {"time": 2106, "pitch": 76, "duration": 39, "velocity": 114}, {"time": 2145, "pitch": 76, "duration": 3, "velocity": 114}, {"time": 2148, "pitch": 79, "duration": 12, "velocity": 111}, {"time": 2160, "pitch": 72, "duration": 6, "velocity": 114}, {"time": 2166, "pitch": 74, "duration": 3, "velocity": 102}, {"time": 2169, "pitch": 74, "duration": 18, "velocity": 105}, {"time": 2187, "pitch": 72, "duration": 3, "velocity": 111}, {"time": 2190, "pitch": 74, "duration": 3, "velocity": 102}, {"time": 2193, "pitch": 76, "duration": 6, "velocity": 111}, {"time": 2199, "pitch": 79, "duration": 6, "velocity": 114}, {"time": 2205, "pitch": 83, "duration": 6, "velocity": 120}, {"time": 2211, "pitch": 79, "duration": 3, "velocity": 105}, {"time": 2214, "pitch": 84, "duration": 27, "velocity": 111}, {"time": 2241, "pitch": 84, "duration": 3, "velocity": 111}, {"time": 2244, "pitch": 83, "duration": 3, "velocity": 114}, {"time": 2247, "pitch": 79, "duration": 3, "velocity": 117}, {"time": 2250, "pitch": 79, "duration": 6, "velocity": 108}, {"time": 2256, "pitch": 76, "duration": 6, "velocity": 108}, {"time": 2262, "pitch": 74, "duration": 6, "velocity": 111}, {"time": 2268, "pitch": 71, "duration": 6, "velocity": 102}, {"time": 2274, "pitch": 76, "duration": 15, "velocity": 117}, {"time": 2289, "pitch": 71, "duration": 3, "velocity": 117}, {"time": 2292, "pitch": 69, "duration": 33, "velocity": 92}, {"time": 2325, "pitch": 81, "duration": 6, "velocity": 120}, {"time": 2331, "pitch": 83, "duration": 3, "velocity": 114}, {"time": 2334, "pitch": 84, "duration": 6, "velocity": 114}, {"time": 2340, "pitch": 83, "duration": 33, "velocity": 117}, {"time": 2373, "pitch": 81, "duration": 6, "velocity": 117}, {"time": 2379, "pitch": 83, "duration": 3, "velocity": 114}, {"time": 2382, "pitch": 84, "duration": 31, "velocity": 111}, {"time": 2427, "pitch": 84, "duration": 3, "velocity": 114}, {"time": 2430, "pitch": 83, "duration": 20, "velocity": 111}, {"time": 2475, "pitch": 81, "duration": 3, "velocity": 117}, {"time": 2478, "pitch": 83, "duration": 3, "velocity": 108}, {"time": 2481, "pitch": 84, "duration": 3, "velocity": 114}, {"time": 2484, "pitch": 83, "duration": 3, "velocity": 114}, {"time": 2487, "pitch": 79, "duration": 3, "velocity": 114}, {"time": 2490, "pitch": 84, "duration": 6, "velocity": 114}, {"time": 2496, "pitch": 83, "duration": 6, "velocity": 114}, {"time": 2502, "pitch": 84, "duration": 6, "velocity": 108}, {"time": 2508, "pitch": 83, "duration": 3, "velocity": 108}, {"time": 2511, "pitch": 79, "duration": 3, "velocity": 114}, {"time": 2514, "pitch": 84, "duration": 6, "velocity": 111}, {"time": 2520, "pitch": 83, "duration": 9, "velocity": 111}, {"time": 2529, "pitch": 79, "duration": 6, "velocity": 111}, {"time": 2535, "pitch": 76, "duration": 3, "velocity": 102}, {"time": 2538, "pitch": 79, "duration": 33, "velocity": 108}, {"time": 2571, "pitch": 72, "duration": 3, "velocity": 111}, {"time": 2574, "pitch": 72, "duration": 3, "velocity": 111}, {"time": 2577, "pitch": 81, "duration": 3, "velocity": 114}, {"time": 2580, "pitch": 79, "duration": 3, "velocity": 100}, {"time": 2583, "pitch": 72, "duration": 3, "velocity": 111}, {"time": 2586, "pitch": 81, "duration": 6, "velocity": 108}, {"time": 2592, "pitch": 79, "duration": 6, "velocity": 108}, {"time": 2598, "pitch": 81, "duration": 6, "velocity": 111}, {"time": 2604, "pitch": 79, "duration": 3, "velocity": 120}, {"time": 2607, "pitch": 72, "duration": 3, "velocity": 117}, {"time": 2610, "pitch": 81, "duration": 6, "velocity": 108}, {"time": 2616, "pitch": 79, "duration": 6, "velocity": 111}, {"time": 2622, "pitch": 72, "duration": 6, "velocity": 108}, {"time": 2628, "pitch": 79, "duration": 6, "velocity": 97}, {"time": 2634, "pitch": 76, "duration": 39, "velocity": 108}, {"time": 2673, "pitch": 76, "duration": 3, "velocity": 117}, {"time": 2676, "pitch": 79, "duration": 9, "velocity": 114}, {"time": 2685, "pitch": 72, "duration": 9, "velocity": 94}, {"time": 2694, "pitch": 74, "duration": 6, "velocity": 102}, {"time": 2700, "pitch": 74, "duration": 15, "velocity": 100}, {"time": 2715, "pitch": 72, "duration": 3, "velocity": 108}, {"time": 2718, "pitch": 74, "duration": 3, "velocity": 105}, {"time": 2721, "pitch": 76, "duration": 6, "velocity": 111}, {"time": 2727, "pitch": 79, "duration": 6, "velocity": 111}, {"time": 2733, "pitch": 83, "duration": 6, "velocity": 117}, {"time": 2739, "pitch": 79, "duration": 3, "velocity": 108}, {"time": 2742, "pitch": 84, "duration": 27, "velocity": 117}, {"time": 2769, "pitch": 84, "duration": 3, "velocity": 114}, {"time": 2772, "pitch": 83, "duration": 3, "velocity": 102}, {"time": 2775, "pitch": 79, "duration": 3, "velocity": 108}, {"time": 2778, "pitch": 79, "duration": 6, "velocity": 108}, {"time": 2784, "pitch": 76, "duration": 6, "velocity": 114}, {"time": 2790, "pitch": 74, "duration": 6, "velocity": 100}, {"time": 2796, "pitch": 71, "duration": 6, "velocity": 114}, {"time": 2802, "pitch": 76, "duration": 15, "velocity": 105}, {"time": 2817, "pitch": 71, "duration": 6, "velocity": 114}, {"time": 2823, "pitch": 72, "duration": 6, "velocity": 105}, {"time": 2829, "pitch": 69, "duration": 39, "velocity": 108}]}, {"program": 0, "is_drum": false, "name": "PIANO", "notes": [{"time": 33, "pitch": 48, "duration": 21, "velocity": 105}, {"time": 33, "pitch": 55, "duration": 4, "velocity": 87}, {"time": 33, "pitch": 60, "duration": 4, "velocity": 87}, {"time": 39, "pitch": 55, "duration": 2, "velocity": 53}, {"time": 39, "pitch": 60, "duration": 2, "velocity": 67}, {"time": 45, "pitch": 55, "duration": 4, "velocity": 94}, {"time": 45, "pitch": 60, "duration": 3, "velocity": 100}, {"time": 51, "pitch": 59, "duration": 5, "velocity": 97}, {"time": 57, "pitch": 45, "duration": 20, "velocity": 100}, {"time": 57, "pitch": 57, "duration": 4, "velocity": 78}, {"time": 57, "pitch": 60, "duration": 4, "velocity": 92}, {"time": 63, "pitch": 57, "duration": 2, "velocity": 76}, {"time": 63, "pitch": 60, "duration": 2, "velocity": 66}, {"time": 69, "pitch": 57, "duration": 4, "velocity": 108}, {"time": 69, "pitch": 60, "duration": 3, "velocity": 108}, {"time": 75, "pitch": 62, "duration": 6, "velocity": 94}, {"time": 81, "pitch": 41, "duration": 24, "velocity": 94}, {"time": 81, "pitch": 57, "duration": 3, "velocity": 87}, {"time": 81, "pitch": 60, "duration": 4, "velocity": 82}, {"time": 87, "pitch": 53, "duration": 2, "velocity": 50}, {"time": 87, "pitch": 57, "duration": 2, "velocity": 52}, {"time": 87, "pitch": 60, "duration": 3, "velocity": 84}, {"time": 93, "pitch": 53, "duration": 4, "velocity": 97}, {"time": 93, "pitch": 57, "duration": 4, "velocity": 105}, {"time": 93, "pitch": 60, "duration": 4, "velocity": 100}, {"time": 99, "pitch": 53, "duration": 5, "velocity": 97}, {"time": 99, "pitch": 57, "duration": 5, "velocity": 102}, {"time": 99, "pitch": 60, "duration": 6, "velocity": 97}, {"time": 105, "pitch": 45, "duration": 20, "velocity": 100}, {"time": 105, "pitch": 57, "duration": 4, "velocity": 92}, {"time": 105, "pitch": 60, "duration": 4, "velocity": 97}, {"time": 111, "pitch": 57, "duration": 3, "velocity": 67}, {"time": 111, "pitch": 60, "duration": 3, "velocity": 82}, {"time": 117, "pitch": 57, "duration": 3, "velocity": 97}, {"time": 117, "pitch": 60, "duration": 3, "velocity": 94}, {"time": 123, "pitch": 57, "duration": 4, "velocity": 87}, {"time": 123, "pitch": 60, "duration": 4, "velocity": 92}, {"time": 129, "pitch": 41, "duration": 24, "velocity": 94}, {"time": 129, "pitch": 57, "duration": 4, "velocity": 94}, {"time": 129, "pitch": 60, "duration": 4, "velocity": 100}, {"time": 135, "pitch": 57, "duration": 4, "velocity": 80}, {"time": 135, "pitch": 60, "duration": 4, "velocity": 69}, {"time": 141, "pitch": 53, "duration": 4, "velocity": 89}, {"time": 141, "pitch": 57, "duration": 4, "velocity": 102}, {"time": 141, "pitch": 60, "duration": 4, "velocity": 100}, {"time": 147, "pitch": 53, "duration": 5, "velocity": 82}, {"time": 147, "pitch": 57, "duration": 5, "velocity": 92}, {"time": 147, "pitch": 60, "duration": 5, "velocity": 92}, {"time": 153, "pitch": 45, "duration": 21, "velocity": 97}, {"time": 153, "pitch": 57, "duration": 4, "velocity": 89}, {"time": 153, "pitch": 60, "duration": 4, "velocity": 92}, {"time": 159, "pitch": 57, "duration": 2, "velocity": 64}, {"time": 159, "pitch": 60, "duration": 2, "velocity": 66}, {"time": 165, "pitch": 57, "duration": 4, "velocity": 97}, {"time": 165, "pitch": 60, "duration": 4, "velocity": 108}, {"time": 171, "pitch": 57, "duration": 4, "velocity": 89}, {"time": 171, "pitch": 60, "duration": 4, "velocity": 94}, {"time": 177, "pitch": 41, "duration": 23, "velocity": 94}, {"time": 177, "pitch": 53, "duration": 4, "velocity": 94}, {"time": 177, "pitch": 60, "duration": 4, "velocity": 82}, {"time": 183, "pitch": 53, "duration": 4, "velocity": 78}, {"time": 183, "pitch": 60, "duration": 4, "velocity": 89}, {"time": 189, "pitch": 53, "duration": 4, "velocity": 97}, {"time": 189, "pitch": 60, "duration": 4, "velocity": 97}, {"time": 195, "pitch": 53, "duration": 4, "velocity": 87}, {"time": 195, "pitch": 60, "duration": 5, "velocity": 92}, {"time": 201, "pitch": 45, "duration": 22, "velocity": 97}, {"time": 201, "pitch": 57, "duration": 21, "velocity": 82}, {"time": 201, "pitch": 60, "duration": 20, "velocity": 84}, {"time": 225, "pitch": 48, "duration": 21, "velocity": 105}, {"time": 225, "pitch": 55, "duration": 4, "velocity": 80}, {"time": 225, "pitch": 60, "duration": 9, "velocity": 84}, {"time": 231, "pitch": 55, "duration": 4, "velocity": 82}, {"time": 237, "pitch": 55, "duration": 4, "velocity": 100}, {"time": 237, "pitch": 60, "duration": 4, "velocity": 102}, {"time": 237, "pitch": 64, "duration": 4, "velocity": 97}, {"time": 249, "pitch": 43, "duration": 21, "velocity": 102}, {"time": 249, "pitch": 55, "duration": 4, "velocity": 84}, {"time": 249, "pitch": 59, "duration": 4, "velocity": 92}, {"time": 255, "pitch": 55, "duration": 2, "velocity": 50}, {"time": 255, "pitch": 59, "duration": 3, "velocity": 80}, {"time": 261, "pitch": 55, "duration": 3, "velocity": 97}, {"time": 261, "pitch": 59, "duration": 4, "velocity": 108}, {"time": 261, "pitch": 62, "duration": 4, "velocity": 105}, {"time": 267, "pitch": 55, "duration": 3, "velocity": 46}, {"time": 267, "pitch": 59, "duration": 4, "velocity": 53}, {"time": 273, "pitch": 45, "duration": 22, "velocity": 92}, {"time": 273, "pitch": 57, "duration": 4, "velocity": 44}, {"time": 273, "pitch": 60, "duration": 4, "velocity": 89}, {"time": 279, "pitch": 57, "duration": 3, "velocity": 71}, {"time": 279, "pitch": 60, "duration": 2, "velocity": 76}, {"time": 285, "pitch": 52, "duration": 10, "velocity": 87}, {"time": 285, "pitch": 57, "duration": 3, "velocity": 89}, {"time": 285, "pitch": 60, "duration": 3, "velocity": 92}, {"time": 285, "pitch": 64, "duration": 3, "velocity": 97}, {"time": 291, "pitch": 57, "duration": 4, "velocity": 66}, {"time": 291, "pitch": 60, "duration": 3, "velocity": 69}, {"time": 297, "pitch": 45, "duration": 19, "velocity": 89}, {"time": 297, "pitch": 57, "duration": 4, "velocity": 76}, {"time": 297, "pitch": 60, "duration": 4, "velocity": 73}, {"time": 303, "pitch": 57, "duration": 4, "velocity": 53}, {"time": 303, "pitch": 60, "duration": 4, "velocity": 57}, {"time": 309, "pitch": 52, "duration": 6, "velocity": 48}, {"time": 309, "pitch": 57, "duration": 4, "velocity": 97}, {"time": 309, "pitch": 60, "duration": 4, "velocity": 100}, {"time": 309, "pitch": 64, "duration": 5, "velocity": 105}, {"time": 315, "pitch": 62, "duration": 5, "velocity": 80}, {"time": 321, "pitch": 48, "duration": 23, "velocity": 89}, {"time": 321, "pitch": 55, "duration": 5, "velocity": 87}, {"time": 321, "pitch": 60, "duration": 5, "velocity": 94}, {"time": 327, "pitch": 55, "duration": 2, "velocity": 51}, {"time": 327, "pitch": 60, "duration": 2, "velocity": 58}, {"time": 333, "pitch": 55, "duration": 3, "velocity": 102}, {"time": 333, "pitch": 64, "duration": 3, "velocity": 105}, {"time": 339, "pitch": 55, "duration": 3, "velocity": 80}, {"time": 339, "pitch": 60, "duration": 2, "velocity": 87}, {"time": 345, "pitch": 43, "duration": 22, "velocity": 94}, {"time": 345, "pitch": 55, "duration": 4, "velocity": 78}, {"time": 345, "pitch": 59, "duration": 3, "velocity": 84}, {"time": 351, "pitch": 59, "duration": 2, "velocity": 58}, {"time": 351, "pitch": 62, "duration": 2, "velocity": 67}, {"time": 357, "pitch": 55, "duration": 5, "velocity": 97}, {"time": 357, "pitch": 59, "duration": 4, "velocity": 105}, {"time": 357, "pitch": 62, "duration": 4, "velocity": 102}, {"time": 363, "pitch": 55, "duration": 3, "velocity": 64}, {"time": 363, "pitch": 59, "duration": 3, "velocity": 66}, {"time": 363, "pitch": 62, "duration": 4, "velocity": 78}, {"time": 369, "pitch": 45, "duration": 23, "velocity": 92}, {"time": 369, "pitch": 57, "duration": 4, "velocity": 78}, {"time": 369, "pitch": 60, "duration": 4, "velocity": 76}, {"time": 375, "pitch": 57, "duration": 4, "velocity": 69}, {"time": 375, "pitch": 60, "duration": 3, "velocity": 76}, {"time": 381, "pitch": 52, "duration": 11, "velocity": 49}, {"time": 381, "pitch": 57, "duration": 4, "velocity": 87}, {"time": 381, "pitch": 60, "duration": 4, "velocity": 94}, {"time": 381, "pitch": 64, "duration": 3, "velocity": 92}, {"time": 387, "pitch": 57, "duration": 4, "velocity": 57}, {"time": 387, "pitch": 60, "duration": 4, "velocity": 66}, {"time": 393, "pitch": 45, "duration": 22, "velocity": 89}, {"time": 393, "pitch": 57, "duration": 4, "velocity": 73}, {"time": 393, "pitch": 60, "duration": 4, "velocity": 78}, {"time": 399, "pitch": 57, "duration": 4, "velocity": 69}, {"time": 399, "pitch": 60, "duration": 5, "velocity": 73}, {"time": 405, "pitch": 57, "duration": 3, "velocity": 97}, {"time": 405, "pitch": 60, "duration": 4, "velocity": 108}, {"time": 405, "pitch": 64, "duration": 5, "velocity": 108}, {"time": 411, "pitch": 57, "duration": 4, "velocity": 108}, {"time": 411, "pitch": 60, "duration": 1, "velocity": 52}, {"time": 417, "pitch": 41, "duration": 16, "velocity": 102}, {"time": 417, "pitch": 57, "duration": 3, "velocity": 94}, {"time": 417, "pitch": 60, "duration": 3, "velocity": 92}, {"time": 423, "pitch": 57, "duration": 3, "velocity": 67}, {"time": 423, "pitch": 60, "duration": 3, "velocity": 71}, {"time": 429, "pitch": 53, "duration": 4, "velocity": 100}, {"time": 429, "pitch": 57, "duration": 4, "velocity": 111}, {"time": 429, "pitch": 60, "duration": 4, "velocity": 102}, {"time": 435, "pitch": 53, "duration": 2, "velocity": 80}, {"time": 435, "pitch": 57, "duration": 2, "velocity": 73}, {"time": 435, "pitch": 60, "duration": 3, "velocity": 84}, {"time": 441, "pitch": 48, "duration": 22, "velocity": 105}, {"time": 441, "pitch": 55, "duration": 4, "velocity": 87}, {"time": 441, "pitch": 60, "duration": 4, "velocity": 97}, {"time": 447, "pitch": 55, "duration": 3, "velocity": 69}, {"time": 447, "pitch": 60, "duration": 3, "velocity": 58}, {"time": 453, "pitch": 55, "duration": 4, "velocity": 94}, {"time": 453, "pitch": 60, "duration": 5, "velocity": 102}, {"time": 459, "pitch": 55, "duration": 5, "velocity": 92}, {"time": 459, "pitch": 60, "duration": 5, "velocity": 102}, {"time": 465, "pitch": 43, "duration": 21, "velocity": 100}, {"time": 465, "pitch": 55, "duration": 4, "velocity": 87}, {"time": 465, "pitch": 60, "duration": 4, "velocity": 94}, {"time": 471, "pitch": 55, "duration": 4, "velocity": 53}, {"time": 471, "pitch": 60, "duration": 4, "velocity": 71}, {"time": 477, "pitch": 55, "duration": 4, "velocity": 105}, {"time": 477, "pitch": 60, "duration": 4, "velocity": 111}, {"time": 483, "pitch": 55, "duration": 3, "velocity": 80}, {"time": 483, "pitch": 60, "duration": 4, "velocity": 67}, {"time": 489, "pitch": 45, "duration": 19, "velocity": 100}, {"time": 489, "pitch": 57, "duration": 4, "velocity": 84}, {"time": 489, "pitch": 60, "duration": 4, "velocity": 92}, {"time": 495, "pitch": 57, "duration": 4, "velocity": 71}, {"time": 495, "pitch": 60, "duration": 4, "velocity": 87}, {"time": 501, "pitch": 52, "duration": 6, "velocity": 89}, {"time": 501, "pitch": 60, "duration": 4, "velocity": 105}, {"time": 501, "pitch": 64, "duration": 5, "velocity": 108}, {"time": 507, "pitch": 57, "duration": 2, "velocity": 62}, {"time": 507, "pitch": 62, "duration": 2, "velocity": 69}, {"time": 513, "pitch": 41, "duration": 18, "velocity": 97}, {"time": 513, "pitch": 57, "duration": 3, "velocity": 87}, {"time": 513, "pitch": 60, "duration": 3, "velocity": 87}, {"time": 519, "pitch": 53, "duration": 1, "velocity": 24}, {"time": 519, "pitch": 57, "duration": 3, "velocity": 67}, {"time": 519, "pitch": 60, "duration": 3, "velocity": 67}, {"time": 525, "pitch": 53, "duration": 4, "velocity": 100}, {"time": 525, "pitch": 57, "duration": 4, "velocity": 105}, {"time": 525, "pitch": 60, "duration": 4, "velocity": 97}, {"time": 531, "pitch": 53, "duration": 2, "velocity": 82}, {"time": 531, "pitch": 57, "duration": 3, "velocity": 94}, {"time": 531, "pitch": 60, "duration": 3, "velocity": 92}, {"time": 537, "pitch": 43, "duration": 22, "velocity": 100}, {"time": 537, "pitch": 55, "duration": 4, "velocity": 87}, {"time": 537, "pitch": 60, "duration": 4, "velocity": 89}, {"time": 543, "pitch": 55, "duration": 4, "velocity": 71}, {"time": 543, "pitch": 60, "duration": 4, "velocity": 69}, {"time": 549, "pitch": 50, "duration": 10, "velocity": 73}, {"time": 549, "pitch": 55, "duration": 4, "velocity": 87}, {"time": 549, "pitch": 59, "duration": 4, "velocity": 102}, {"time": 555, "pitch": 55, "duration": 3, "velocity": 89}, {"time": 555, "pitch": 59, "duration": 4, "velocity": 89}, {"time": 561, "pitch": 45, "duration": 22, "velocity": 100}, {"time": 561, "pitch": 57, "duration": 4, "velocity": 89}, {"time": 561, "pitch": 60, "duration": 4, "velocity": 97}, {"time": 567, "pitch": 57, "duration": 4, "velocity": 55}, {"time": 567, "pitch": 60, "duration": 3, "velocity": 66}, {"time": 573, "pitch": 57, "duration": 3, "velocity": 100}, {"time": 573, "pitch": 60, "duration": 3, "velocity": 111}, {"time": 573, "pitch": 64, "duration": 4, "velocity": 105}, {"time": 579, "pitch": 57, "duration": 4, "velocity": 73}, {"time": 579, "pitch": 62, "duration": 5, "velocity": 66}, {"time": 585, "pitch": 45, "duration": 22, "velocity": 97}, {"time": 585, "pitch": 57, "duration": 22, "velocity": 89}, {"time": 585, "pitch": 60, "duration": 23, "velocity": 80}, {"time": 609, "pitch": 48, "duration": 21, "velocity": 105}, {"time": 609, "pitch": 55, "duration": 4, "velocity": 80}, {"time": 609, "pitch": 60, "duration": 9, "velocity": 84}, {"time": 615, "pitch": 55, "duration": 4, "velocity": 82}, {"time": 621, "pitch": 55, "duration": 4, "velocity": 100}, {"time": 621, "pitch": 60, "duration": 4, "velocity": 102}, {"time": 621, "pitch": 64, "duration": 4, "velocity": 97}, {"time": 633, "pitch": 43, "duration": 21, "velocity": 102}, {"time": 633, "pitch": 55, "duration": 4, "velocity": 84}, {"time": 633, "pitch": 59, "duration": 4, "velocity": 92}, {"time": 639, "pitch": 55, "duration": 2, "velocity": 50}, {"time": 639, "pitch": 59, "duration": 3, "velocity": 80}, {"time": 645, "pitch": 55, "duration": 3, "velocity": 97}, {"time": 645, "pitch": 59, "duration": 4, "velocity": 108}, {"time": 645, "pitch": 62, "duration": 4, "velocity": 105}, {"time": 651, "pitch": 55, "duration": 3, "velocity": 46}, {"time": 651, "pitch": 59, "duration": 4, "velocity": 53}, {"time": 657, "pitch": 45, "duration": 22, "velocity": 92}, {"time": 657, "pitch": 57, "duration": 4, "velocity": 44}, {"time": 657, "pitch": 60, "duration": 4, "velocity": 89}, {"time": 663, "pitch": 57, "duration": 3, "velocity": 71}, {"time": 663, "pitch": 60, "duration": 2, "velocity": 76}, {"time": 669, "pitch": 52, "duration": 10, "velocity": 87}, {"time": 669, "pitch": 57, "duration": 3, "velocity": 89}, {"time": 669, "pitch": 60, "duration": 3, "velocity": 92}, {"time": 669, "pitch": 64, "duration": 3, "velocity": 97}, {"time": 675, "pitch": 57, "duration": 4, "velocity": 66}, {"time": 675, "pitch": 60, "duration": 3, "velocity": 69}, {"time": 681, "pitch": 45, "duration": 19, "velocity": 89}, {"time": 681, "pitch": 57, "duration": 4, "velocity": 76}, {"time": 681, "pitch": 60, "duration": 4, "velocity": 73}, {"time": 687, "pitch": 57, "duration": 4, "velocity": 53}, {"time": 687, "pitch": 60, "duration": 4, "velocity": 57}, {"time": 693, "pitch": 52, "duration": 6, "velocity": 48}, {"time": 693, "pitch": 57, "duration": 4, "velocity": 97}, {"time": 693, "pitch": 60, "duration": 4, "velocity": 100}, {"time": 693, "pitch": 64, "duration": 5, "velocity": 105}, {"time": 699, "pitch": 62, "duration": 5, "velocity": 80}, {"time": 705, "pitch": 48, "duration": 23, "velocity": 89}, {"time": 705, "pitch": 55, "duration": 5, "velocity": 87}, {"time": 705, "pitch": 60, "duration": 5, "velocity": 94}, {"time": 711, "pitch": 55, "duration": 2, "velocity": 51}, {"time": 711, "pitch": 60, "duration": 2, "velocity": 58}, {"time": 717, "pitch": 55, "duration": 3, "velocity": 102}, {"time": 717, "pitch": 64, "duration": 3, "velocity": 105}, {"time": 723, "pitch": 55, "duration": 3, "velocity": 80}, {"time": 723, "pitch": 60, "duration": 2, "velocity": 87}, {"time": 729, "pitch": 43, "duration": 22, "velocity": 94}, {"time": 729, "pitch": 55, "duration": 4, "velocity": 78}, {"time": 729, "pitch": 59, "duration": 3, "velocity": 84}, {"time": 735, "pitch": 59, "duration": 2, "velocity": 58}, {"time": 735, "pitch": 62, "duration": 2, "velocity": 67}, {"time": 741, "pitch": 55, "duration": 5, "velocity": 97}, {"time": 741, "pitch": 59, "duration": 4, "velocity": 105}, {"time": 741, "pitch": 62, "duration": 4, "velocity": 102}, {"time": 747, "pitch": 55, "duration": 3, "velocity": 64}, {"time": 747, "pitch": 59, "duration": 3, "velocity": 66}, {"time": 747, "pitch": 62, "duration": 4, "velocity": 78}, {"time": 753, "pitch": 45, "duration": 23, "velocity": 92}, {"time": 753, "pitch": 57, "duration": 4, "velocity": 78}, {"time": 753, "pitch": 60, "duration": 4, "velocity": 76}, {"time": 759, "pitch": 57, "duration": 4, "velocity": 69}, {"time": 759, "pitch": 60, "duration": 3, "velocity": 76}, {"time": 765, "pitch": 52, "duration": 11, "velocity": 49}, {"time": 765, "pitch": 57, "duration": 4, "velocity": 87}, {"time": 765, "pitch": 60, "duration": 4, "velocity": 94}, {"time": 765, "pitch": 64, "duration": 3, "velocity": 92}, {"time": 771, "pitch": 57, "duration": 4, "velocity": 57}, {"time": 771, "pitch": 60, "duration": 4, "velocity": 66}, {"time": 777, "pitch": 45, "duration": 22, "velocity": 89}, {"time": 777, "pitch": 57, "duration": 4, "velocity": 73}, {"time": 777, "pitch": 60, "duration": 4, "velocity": 78}, {"time": 783, "pitch": 57, "duration": 4, "velocity": 69}, {"time": 783, "pitch": 60, "duration": 5, "velocity": 73}, {"time": 789, "pitch": 57, "duration": 3, "velocity": 97}, {"time": 789, "pitch": 60, "duration": 4, "velocity": 108}, {"time": 789, "pitch": 64, "duration": 5, "velocity": 108}, {"time": 795, "pitch": 57, "duration": 4, "velocity": 108}, {"time": 795, "pitch": 60, "duration": 1, "velocity": 52}, {"time": 801, "pitch": 41, "duration": 16, "velocity": 102}, {"time": 801, "pitch": 57, "duration": 3, "velocity": 94}, {"time": 801, "pitch": 60, "duration": 3, "velocity": 92}, {"time": 807, "pitch": 57, "duration": 3, "velocity": 67}, {"time": 807, "pitch": 60, "duration": 3, "velocity": 71}, {"time": 813, "pitch": 53, "duration": 4, "velocity": 100}, {"time": 813, "pitch": 57, "duration": 4, "velocity": 111}, {"time": 813, "pitch": 60, "duration": 4, "velocity": 102}, {"time": 819, "pitch": 53, "duration": 2, "velocity": 80}, {"time": 819, "pitch": 57, "duration": 2, "velocity": 73}, {"time": 819, "pitch": 60, "duration": 3, "velocity": 84}, {"time": 825, "pitch": 48, "duration": 22, "velocity": 105}, {"time": 825, "pitch": 55, "duration": 4, "velocity": 87}, {"time": 825, "pitch": 60, "duration": 4, "velocity": 97}, {"time": 831, "pitch": 55, "duration": 3, "velocity": 69}, {"time": 831, "pitch": 60, "duration": 3, "velocity": 58}, {"time": 837, "pitch": 55, "duration": 4, "velocity": 94}, {"time": 837, "pitch": 60, "duration": 5, "velocity": 102}, {"time": 843, "pitch": 55, "duration": 5, "velocity": 92}, {"time": 843, "pitch": 60, "duration": 5, "velocity": 102}, {"time": 849, "pitch": 43, "duration": 21, "velocity": 100}, {"time": 849, "pitch": 55, "duration": 4, "velocity": 87}, {"time": 849, "pitch": 60, "duration": 4, "velocity": 94}, {"time": 855, "pitch": 55, "duration": 4, "velocity": 53}, {"time": 855, "pitch": 60, "duration": 4, "velocity": 71}, {"time": 861, "pitch": 55, "duration": 4, "velocity": 105}, {"time": 861, "pitch": 60, "duration": 4, "velocity": 111}, {"time": 867, "pitch": 55, "duration": 3, "velocity": 80}, {"time": 867, "pitch": 60, "duration": 4, "velocity": 67}, {"time": 873, "pitch": 45, "duration": 19, "velocity": 100}, {"time": 873, "pitch": 57, "duration": 4, "velocity": 84}, {"time": 873, "pitch": 60, "duration": 4, "velocity": 92}, {"time": 879, "pitch": 57, "duration": 4, "velocity": 71}, {"time": 879, "pitch": 60, "duration": 4, "velocity": 87}, {"time": 885, "pitch": 52, "duration": 6, "velocity": 89}, {"time": 885, "pitch": 60, "duration": 4, "velocity": 105}, {"time": 885, "pitch": 64, "duration": 5, "velocity": 108}, {"time": 891, "pitch": 57, "duration": 2, "velocity": 62}, {"time": 891, "pitch": 62, "duration": 2, "velocity": 69}, {"time": 897, "pitch": 41, "duration": 18, "velocity": 97}, {"time": 897, "pitch": 57, "duration": 3, "velocity": 87}, {"time": 897, "pitch": 60, "duration": 3, "velocity": 87}, {"time": 903, "pitch": 53, "duration": 1, "velocity": 24}, {"time": 903, "pitch": 57, "duration": 3, "velocity": 67}, {"time": 903, "pitch": 60, "duration": 3, "velocity": 67}, {"time": 909, "pitch": 53, "duration": 4, "velocity": 100}, {"time": 909, "pitch": 57, "duration": 4, "velocity": 105}, {"time": 909, "pitch": 60, "duration": 4, "velocity": 97}, {"time": 915, "pitch": 53, "duration": 2, "velocity": 82}, {"time": 915, "pitch": 57, "duration": 3, "velocity": 94}, {"time": 915, "pitch": 60, "duration": 3, "velocity": 92}, {"time": 921, "pitch": 43, "duration": 22, "velocity": 100}, {"time": 921, "pitch": 55, "duration": 4, "velocity": 87}, {"time": 921, "pitch": 60, "duration": 4, "velocity": 89}, {"time": 927, "pitch": 55, "duration": 4, "velocity": 71}, {"time": 927, "pitch": 60, "duration": 4, "velocity": 69}, {"time": 933, "pitch": 50, "duration": 10, "velocity": 73}, {"time": 933, "pitch": 55, "duration": 4, "velocity": 87}, {"time": 933, "pitch": 59, "duration": 4, "velocity": 102}, {"time": 939, "pitch": 55, "duration": 3, "velocity": 89}, {"time": 939, "pitch": 59, "duration": 4, "velocity": 89}, {"time": 945, "pitch": 45, "duration": 22, "velocity": 100}, {"time": 945, "pitch": 57, "duration": 4, "velocity": 89}, {"time": 945, "pitch": 60, "duration": 4, "velocity": 97}, {"time": 951, "pitch": 57, "duration": 4, "velocity": 55}, {"time": 951, "pitch": 60, "duration": 3, "velocity": 66}, {"time": 957, "pitch": 57, "duration": 3, "velocity": 100}, {"time": 957, "pitch": 60, "duration": 3, "velocity": 111}, {"time": 957, "pitch": 64, "duration": 4, "velocity": 105}, {"time": 963, "pitch": 57, "duration": 4, "velocity": 73}, {"time": 963, "pitch": 62, "duration": 5, "velocity": 66}, {"time": 969, "pitch": 43, "duration": 20, "velocity": 102}, {"time": 969, "pitch": 55, "duration": 3, "velocity": 97}, {"time": 969, "pitch": 62, "duration": 4, "velocity": 84}, {"time": 975, "pitch": 50, "duration": 7, "velocity": 45}, {"time": 978, "pitch": 59, "duration": 1, "velocity": 67}, {"time": 978, "pitch": 67, "duration": 1, "velocity": 60}, {"time": 981, "pitch": 59, "duration": 3, "velocity": 108}, {"time": 981, "pitch": 67, "duration": 3, "velocity": 111}, {"time": 984, "pitch": 50, "duration": 5, "velocity": 71}, {"time": 987, "pitch": 59, "duration": 2, "velocity": 94}, {"time": 987, "pitch": 62, "duration": 2, "velocity": 111}, {"time": 993, "pitch": 41, "duration": 12, "velocity": 100}, {"time": 993, "pitch": 57, "duration": 3, "velocity": 97}, {"time": 993, "pitch": 60, "duration": 7, "velocity": 97}, {"time": 999, "pitch": 57, "duration": 5, "velocity": 66}, {"time": 1005, "pitch": 60, "duration": 8, "velocity": 105}, {"time": 1005, "pitch": 65, "duration": 8, "velocity": 102}, {"time": 1011, "pitch": 57, "duration": 7, "velocity": 87}, {"time": 1017, "pitch": 60, "duration": 6, "velocity": 102}, {"time": 1017, "pitch": 65, "duration": 6, "velocity": 102}, {"time": 1023, "pitch": 57, "duration": 1, "velocity": 89}, {"time": 1029, "pitch": 53, "duration": 6, "velocity": 108}, {"time": 1029, "pitch": 60, "duration": 2, "velocity": 97}, {"time": 1029, "pitch": 65, "duration": 6, "velocity": 97}, {"time": 1029, "pitch": 69, "duration": 6, "velocity": 97}, {"time": 1035, "pitch": 60, "duration": 2, "velocity": 100}, {"time": 1041, "pitch": 48, "duration": 23, "velocity": 102}, {"time": 1041, "pitch": 60, "duration": 9, "velocity": 102}, {"time": 1041, "pitch": 64, "duration": 7, "velocity": 97}, {"time": 1047, "pitch": 55, "duration": 18, "velocity": 71}, {"time": 1053, "pitch": 60, "duration": 3, "velocity": 102}, {"time": 1053, "pitch": 64, "duration": 3, "velocity": 108}, {"time": 1053, "pitch": 67, "duration": 3, "velocity": 108}, {"time": 1059, "pitch": 60, "duration": 15, "velocity": 87}, {"time": 1065, "pitch": 48, "duration": 18, "velocity": 92}, {"time": 1065, "pitch": 64, "duration": 7, "velocity": 105}, {"time": 1065, "pitch": 67, "duration": 7, "velocity": 102}, {"time": 1065, "pitch": 72, "duration": 7, "velocity": 100}, {"time": 1071, "pitch": 55, "duration": 8, "velocity": 44}, {"time": 1077, "pitch": 60, "duration": 3, "velocity": 105}, {"time": 1077, "pitch": 64, "duration": 6, "velocity": 117}, {"time": 1077, "pitch": 67, "duration": 6, "velocity": 114}, {"time": 1083, "pitch": 60, "duration": 1, "velocity": 108}, {"time": 1089, "pitch": 41, "duration": 18, "velocity": 100}, {"time": 1089, "pitch": 57, "duration": 3, "velocity": 94}, {"time": 1089, "pitch": 60, "duration": 9, "velocity": 105}, {"time": 1095, "pitch": 57, "duration": 4, "velocity": 69}, {"time": 1101, "pitch": 57, "duration": 2, "velocity": 102}, {"time": 1101, "pitch": 60, "duration": 6, "velocity": 108}, {"time": 1101, "pitch": 65, "duration": 9, "velocity": 94}, {"time": 1107, "pitch": 57, "duration": 2, "velocity": 94}, {"time": 1113, "pitch": 43, "duration": 16, "velocity": 102}, {"time": 1113, "pitch": 55, "duration": 9, "velocity": 84}, {"time": 1113, "pitch": 59, "duration": 7, "velocity": 89}, {"time": 1113, "pitch": 62, "duration": 7, "velocity": 87}, {"time": 1119, "pitch": 50, "duration": 10, "velocity": 60}, {"time": 1125, "pitch": 55, "duration": 3, "velocity": 108}, {"time": 1125, "pitch": 59, "duration": 6, "velocity": 120}, {"time": 1125, "pitch": 62, "duration": 6, "velocity": 111}, {"time": 1131, "pitch": 55, "duration": 2, "velocity": 108}, {"time": 1137, "pitch": 45, "duration": 22, "velocity": 100}, {"time": 1137, "pitch": 57, "duration": 10, "velocity": 102}, {"time": 1137, "pitch": 60, "duration": 7, "velocity": 92}, {"time": 1143, "pitch": 52, "duration": 7, "velocity": 58}, {"time": 1149, "pitch": 60, "duration": 1, "velocity": 114}, {"time": 1149, "pitch": 64, "duration": 2, "velocity": 108}, {"time": 1155, "pitch": 52, "duration": 4, "velocity": 60}, {"time": 1158, "pitch": 64, "duration": 1, "velocity": 78}, {"time": 1161, "pitch": 45, "duration": 22, "velocity": 92}, {"time": 1161, "pitch": 64, "duration": 7, "velocity": 108}, {"time": 1161, "pitch": 72, "duration": 9, "velocity": 105}, {"time": 1167, "pitch": 52, "duration": 7, "velocity": 64}, {"time": 1170, "pitch": 64, "duration": 1, "velocity": 84}, {"time": 1173, "pitch": 64, "duration": 4, "velocity": 114}, {"time": 1173, "pitch": 71, "duration": 5, "velocity": 114}, {"time": 1176, "pitch": 52, "duration": 6, "velocity": 73}, {"time": 1179, "pitch": 69, "duration": 4, "velocity": 89}, {"time": 1185, "pitch": 41, "duration": 16, "velocity": 100}, {"time": 1185, "pitch": 65, "duration": 5, "velocity": 97}, {"time": 1185, "pitch": 69, "duration": 6, "velocity": 108}, {"time": 1191, "pitch": 65, "duration": 4, "velocity": 33}, {"time": 1197, "pitch": 65, "duration": 2, "velocity": 102}, {"time": 1197, "pitch": 69, "duration": 6, "velocity": 111}, {"time": 1209, "pitch": 43, "duration": 16, "velocity": 100}, {"time": 1209, "pitch": 62, "duration": 7, "velocity": 84}, {"time": 1209, "pitch": 67, "duration": 6, "velocity": 100}, {"time": 1215, "pitch": 50, "duration": 9, "velocity": 62}, {"time": 1221, "pitch": 62, "duration": 2, "velocity": 97}, {"time": 1221, "pitch": 67, "duration": 5, "velocity": 117}, {"time": 1221, "pitch": 71, "duration": 6, "velocity": 108}, {"time": 1227, "pitch": 62, "duration": 1, "velocity": 80}, {"time": 1233, "pitch": 48, "duration": 10, "velocity": 105}, {"time": 1233, "pitch": 60, "duration": 3, "velocity": 102}, {"time": 1233, "pitch": 64, "duration": 6, "velocity": 111}, {"time": 1233, "pitch": 72, "duration": 7, "velocity": 100}, {"time": 1245, "pitch": 47, "duration": 6, "velocity": 105}, {"time": 1245, "pitch": 59, "duration": 5, "velocity": 102}, {"time": 1245, "pitch": 71, "duration": 4, "velocity": 97}, {"time": 1257, "pitch": 45, "duration": 16, "velocity": 100}, {"time": 1257, "pitch": 57, "duration": 9, "velocity": 97}, {"time": 1257, "pitch": 60, "duration": 7, "velocity": 100}, {"time": 1257, "pitch": 64, "duration": 7, "velocity": 94}, {"time": 1263, "pitch": 52, "duration": 7, "velocity": 60}, {"time": 1269, "pitch": 57, "duration": 3, "velocity": 117}, {"time": 1269, "pitch": 60, "duration": 3, "velocity": 120}, {"time": 1269, "pitch": 64, "duration": 4, "velocity": 111}, {"time": 1272, "pitch": 52, "duration": 2, "velocity": 67}, {"time": 1275, "pitch": 45, "duration": 2, "velocity": 89}, {"time": 1281, "pitch": 41, "duration": 22, "velocity": 105}, {"time": 1281, "pitch": 57, "duration": 11, "velocity": 80}, {"time": 1281, "pitch": 60, "duration": 10, "velocity": 89}, {"time": 1281, "pitch": 65, "duration": 11, "velocity": 94}, {"time": 1293, "pitch": 57, "duration": 3, "velocity": 105}, {"time": 1293, "pitch": 60, "duration": 7, "velocity": 108}, {"time": 1293, "pitch": 65, "duration": 11, "velocity": 105}, {"time": 1299, "pitch": 57, "duration": 3, "velocity": 78}, {"time": 1305, "pitch": 43, "duration": 14, "velocity": 102}, {"time": 1305, "pitch": 55, "duration": 9, "velocity": 82}, {"time": 1305, "pitch": 59, "duration": 9, "velocity": 92}, {"time": 1305, "pitch": 62, "duration": 8, "velocity": 82}, {"time": 1311, "pitch": 50, "duration": 9, "velocity": 53}, {"time": 1317, "pitch": 55, "duration": 5, "velocity": 97}, {"time": 1317, "pitch": 59, "duration": 4, "velocity": 111}, {"time": 1317, "pitch": 62, "duration": 5, "velocity": 100}, {"time": 1323, "pitch": 43, "duration": 4, "velocity": 100}, {"time": 1329, "pitch": 45, "duration": 22, "velocity": 100}, {"time": 1329, "pitch": 57, "duration": 10, "velocity": 82}, {"time": 1329, "pitch": 60, "duration": 8, "velocity": 84}, {"time": 1335, "pitch": 52, "duration": 9, "velocity": 44}, {"time": 1341, "pitch": 60, "duration": 6, "velocity": 111}, {"time": 1341, "pitch": 64, "duration": 5, "velocity": 100}, {"time": 1347, "pitch": 52, "duration": 4, "velocity": 62}, {"time": 1353, "pitch": 45, "duration": 21, "velocity": 87}, {"time": 1353, "pitch": 57, "duration": 10, "velocity": 62}, {"time": 1353, "pitch": 60, "duration": 7, "velocity": 73}, {"time": 1365, "pitch": 57, "duration": 3, "velocity": 92}, {"time": 1365, "pitch": 60, "duration": 6, "velocity": 108}, {"time": 1365, "pitch": 64, "duration": 6, "velocity": 102}, {"time": 1368, "pitch": 52, "duration": 4, "velocity": 49}, {"time": 1371, "pitch": 57, "duration": 3, "velocity": 89}, {"time": 1377, "pitch": 48, "duration": 42, "velocity": 97}, {"time": 1377, "pitch": 55, "duration": 3, "velocity": 87}, {"time": 1377, "pitch": 60, "duration": 7, "velocity": 89}, {"time": 1383, "pitch": 55, "duration": 7, "velocity": 50}, {"time": 1389, "pitch": 60, "duration": 7, "velocity": 100}, {"time": 1389, "pitch": 64, "duration": 6, "velocity": 102}, {"time": 1395, "pitch": 55, "duration": 3, "velocity": 42}, {"time": 1401, "pitch": 55, "duration": 4, "velocity": 62}, {"time": 1401, "pitch": 60, "duration": 7, "velocity": 58}, {"time": 1407, "pitch": 55, "duration": 3, "velocity": 55}, {"time": 1413, "pitch": 55, "duration": 7, "velocity": 105}, {"time": 1413, "pitch": 64, "duration": 5, "velocity": 102}, {"time": 1419, "pitch": 60, "duration": 1, "velocity": 84}, {"time": 1425, "pitch": 41, "duration": 43, "velocity": 92}, {"time": 1425, "pitch": 53, "duration": 11, "velocity": 73}, {"time": 1425, "pitch": 57, "duration": 7, "velocity": 67}, {"time": 1431, "pitch": 48, "duration": 31, "velocity": 26}, {"time": 1437, "pitch": 57, "duration": 1, "velocity": 100}, {"time": 1437, "pitch": 60, "duration": 1, "velocity": 76}, {"time": 1449, "pitch": 60, "duration": 6, "velocity": 92}, {"time": 1449, "pitch": 65, "duration": 5, "velocity": 97}, {"time": 1455, "pitch": 57, "duration": 4, "velocity": 84}, {"time": 1461, "pitch": 57, "duration": 4, "velocity": 94}, {"time": 1461, "pitch": 60, "duration": 4, "velocity": 89}, {"time": 1461, "pitch": 65, "duration": 6, "velocity": 82}, {"time": 1467, "pitch": 64, "duration": 1, "velocity": 102}, {"time": 1473, "pitch": 43, "duration": 44, "velocity": 102}, {"time": 1473, "pitch": 55, "duration": 9, "velocity": 76}, {"time": 1473, "pitch": 59, "duration": 7, "velocity": 92}, {"time": 1479, "pitch": 50, "duration": 8, "velocity": 49}, {"time": 1485, "pitch": 55, "duration": 12, "velocity": 102}, {"time": 1485, "pitch": 62, "duration": 3, "velocity": 92}, {"time": 1491, "pitch": 59, "duration": 9, "velocity": 97}, {"time": 1497, "pitch": 67, "duration": 18, "velocity": 97}, {"time": 1503, "pitch": 55, "duration": 4, "velocity": 53}, {"time": 1509, "pitch": 50, "duration": 11, "velocity": 69}, {"time": 1509, "pitch": 55, "duration": 2, "velocity": 97}, {"time": 1509, "pitch": 62, "duration": 8, "velocity": 89}, {"time": 1515, "pitch": 55, "duration": 2, "velocity": 105}, {"time": 1521, "pitch": 41, "duration": 21, "velocity": 94}, {"time": 1521, "pitch": 57, "duration": 3, "velocity": 92}, {"time": 1521, "pitch": 60, "duration": 14, "velocity": 89}, {"time": 1527, "pitch": 57, "duration": 7, "velocity": 73}, {"time": 1533, "pitch": 65, "duration": 7, "velocity": 105}, {"time": 1539, "pitch": 57, "duration": 4, "velocity": 69}, {"time": 1539, "pitch": 60, "duration": 2, "velocity": 15}, {"time": 1545, "pitch": 41, "duration": 19, "velocity": 94}, {"time": 1545, "pitch": 57, "duration": 10, "velocity": 92}, {"time": 1545, "pitch": 60, "duration": 10, "velocity": 82}, {"time": 1557, "pitch": 60, "duration": 10, "velocity": 84}, {"time": 1557, "pitch": 65, "duration": 10, "velocity": 89}, {"time": 1569, "pitch": 48, "duration": 21, "velocity": 105}, {"time": 1569, "pitch": 55, "duration": 4, "velocity": 80}, {"time": 1569, "pitch": 60, "duration": 9, "velocity": 84}, {"time": 1575, "pitch": 55, "duration": 4, "velocity": 82}, {"time": 1581, "pitch": 55, "duration": 4, "velocity": 100}, {"time": 1581, "pitch": 60, "duration": 4, "velocity": 102}, {"time": 1581, "pitch": 64, "duration": 4, "velocity": 97}, {"time": 1593, "pitch": 43, "duration": 21, "velocity": 102}, {"time": 1593, "pitch": 55, "duration": 4, "velocity": 84}, {"time": 1593, "pitch": 59, "duration": 4, "velocity": 92}, {"time": 1599, "pitch": 55, "duration": 2, "velocity": 50}, {"time": 1599, "pitch": 59, "duration": 3, "velocity": 80}, {"time": 1605, "pitch": 55, "duration": 3, "velocity": 97}, {"time": 1605, "pitch": 59, "duration": 4, "velocity": 108}, {"time": 1605, "pitch": 62, "duration": 4, "velocity": 105}, {"time": 1611, "pitch": 55, "duration": 3, "velocity": 46}, {"time": 1611, "pitch": 59, "duration": 4, "velocity": 53}, {"time": 1617, "pitch": 45, "duration": 22, "velocity": 92}, {"time": 1617, "pitch": 57, "duration": 4, "velocity": 44}, {"time": 1617, "pitch": 60, "duration": 4, "velocity": 89}, {"time": 1623, "pitch": 57, "duration": 3, "velocity": 71}, {"time": 1623, "pitch": 60, "duration": 2, "velocity": 76}, {"time": 1629, "pitch": 52, "duration": 10, "velocity": 87}, {"time": 1629, "pitch": 57, "duration": 3, "velocity": 89}, {"time": 1629, "pitch": 60, "duration": 3, "velocity": 92}, {"time": 1629, "pitch": 64, "duration": 3, "velocity": 97}, {"time": 1635, "pitch": 57, "duration": 4, "velocity": 66}, {"time": 1635, "pitch": 60, "duration": 3, "velocity": 69}, {"time": 1641, "pitch": 45, "duration": 19, "velocity": 89}, {"time": 1641, "pitch": 57, "duration": 4, "velocity": 76}, {"time": 1641, "pitch": 60, "duration": 4, "velocity": 73}, {"time": 1647, "pitch": 57, "duration": 4, "velocity": 53}, {"time": 1647, "pitch": 60, "duration": 4, "velocity": 57}, {"time": 1653, "pitch": 52, "duration": 6, "velocity": 48}, {"time": 1653, "pitch": 57, "duration": 4, "velocity": 97}, {"time": 1653, "pitch": 60, "duration": 4, "velocity": 100}, {"time": 1653, "pitch": 64, "duration": 5, "velocity": 105}, {"time": 1659, "pitch": 62, "duration": 5, "velocity": 80}, {"time": 1665, "pitch": 48, "duration": 23, "velocity": 89}, {"time": 1665, "pitch": 55, "duration": 5, "velocity": 87}, {"time": 1665, "pitch": 60, "duration": 5, "velocity": 94}, {"time": 1671, "pitch": 55, "duration": 2, "velocity": 51}, {"time": 1671, "pitch": 60, "duration": 2, "velocity": 58}, {"time": 1677, "pitch": 55, "duration": 3, "velocity": 102}, {"time": 1677, "pitch": 64, "duration": 3, "velocity": 105}, {"time": 1683, "pitch": 55, "duration": 3, "velocity": 80}, {"time": 1683, "pitch": 60, "duration": 2, "velocity": 87}, {"time": 1689, "pitch": 43, "duration": 22, "velocity": 94}, {"time": 1689, "pitch": 55, "duration": 4, "velocity": 78}, {"time": 1689, "pitch": 59, "duration": 3, "velocity": 84}, {"time": 1695, "pitch": 59, "duration": 2, "velocity": 58}, {"time": 1695, "pitch": 62, "duration": 2, "velocity": 67}, {"time": 1701, "pitch": 55, "duration": 5, "velocity": 97}, {"time": 1701, "pitch": 59, "duration": 4, "velocity": 105}, {"time": 1701, "pitch": 62, "duration": 4, "velocity": 102}, {"time": 1707, "pitch": 55, "duration": 3, "velocity": 64}, {"time": 1707, "pitch": 59, "duration": 3, "velocity": 66}, {"time": 1707, "pitch": 62, "duration": 4, "velocity": 78}, {"time": 1713, "pitch": 45, "duration": 23, "velocity": 92}, {"time": 1713, "pitch": 57, "duration": 4, "velocity": 78}, {"time": 1713, "pitch": 60, "duration": 4, "velocity": 76}, {"time": 1719, "pitch": 57, "duration": 4, "velocity": 69}, {"time": 1719, "pitch": 60, "duration": 3, "velocity": 76}, {"time": 1725, "pitch": 52, "duration": 11, "velocity": 49}, {"time": 1725, "pitch": 57, "duration": 4, "velocity": 87}, {"time": 1725, "pitch": 60, "duration": 4, "velocity": 94}, {"time": 1725, "pitch": 64, "duration": 3, "velocity": 92}, {"time": 1731, "pitch": 57, "duration": 4, "velocity": 57}, {"time": 1731, "pitch": 60, "duration": 4, "velocity": 66}, {"time": 1737, "pitch": 45, "duration": 22, "velocity": 89}, {"time": 1737, "pitch": 57, "duration": 4, "velocity": 73}, {"time": 1737, "pitch": 60, "duration": 4, "velocity": 78}, {"time": 1743, "pitch": 57, "duration": 4, "velocity": 69}, {"time": 1743, "pitch": 60, "duration": 5, "velocity": 73}, {"time": 1749, "pitch": 57, "duration": 3, "velocity": 97}, {"time": 1749, "pitch": 60, "duration": 4, "velocity": 108}, {"time": 1749, "pitch": 64, "duration": 5, "velocity": 108}, {"time": 1755, "pitch": 57, "duration": 4, "velocity": 108}, {"time": 1755, "pitch": 60, "duration": 1, "velocity": 52}, {"time": 1761, "pitch": 41, "duration": 16, "velocity": 102}, {"time": 1761, "pitch": 57, "duration": 3, "velocity": 94}, {"time": 1761, "pitch": 60, "duration": 3, "velocity": 92}, {"time": 1767, "pitch": 57, "duration": 3, "velocity": 67}, {"time": 1767, "pitch": 60, "duration": 3, "velocity": 71}, {"time": 1773, "pitch": 53, "duration": 4, "velocity": 100}, {"time": 1773, "pitch": 57, "duration": 4, "velocity": 111}, {"time": 1773, "pitch": 60, "duration": 4, "velocity": 102}, {"time": 1779, "pitch": 53, "duration": 2, "velocity": 80}, {"time": 1779, "pitch": 57, "duration": 2, "velocity": 73}, {"time": 1779, "pitch": 60, "duration": 3, "velocity": 84}, {"time": 1785, "pitch": 48, "duration": 22, "velocity": 105}, {"time": 1785, "pitch": 55, "duration": 4, "velocity": 87}, {"time": 1785, "pitch": 60, "duration": 4, "velocity": 97}, {"time": 1791, "pitch": 55, "duration": 3, "velocity": 69}, {"time": 1791, "pitch": 60, "duration": 3, "velocity": 58}, {"time": 1797, "pitch": 55, "duration": 4, "velocity": 94}, {"time": 1797, "pitch": 60, "duration": 5, "velocity": 102}, {"time": 1803, "pitch": 55, "duration": 5, "velocity": 92}, {"time": 1803, "pitch": 60, "duration": 5, "velocity": 102}, {"time": 1809, "pitch": 43, "duration": 21, "velocity": 100}, {"time": 1809, "pitch": 55, "duration": 4, "velocity": 87}, {"time": 1809, "pitch": 60, "duration": 4, "velocity": 94}, {"time": 1815, "pitch": 55, "duration": 4, "velocity": 53}, {"time": 1815, "pitch": 60, "duration": 4, "velocity": 71}, {"time": 1821, "pitch": 55, "duration": 4, "velocity": 105}, {"time": 1821, "pitch": 60, "duration": 4, "velocity": 111}, {"time": 1827, "pitch": 55, "duration": 3, "velocity": 80}, {"time": 1827, "pitch": 60, "duration": 4, "velocity": 67}, {"time": 1833, "pitch": 45, "duration": 19, "velocity": 100}, {"time": 1833, "pitch": 57, "duration": 4, "velocity": 84}, {"time": 1833, "pitch": 60, "duration": 4, "velocity": 92}, {"time": 1839, "pitch": 57, "duration": 4, "velocity": 71}, {"time": 1839, "pitch": 60, "duration": 4, "velocity": 87}, {"time": 1845, "pitch": 52, "duration": 6, "velocity": 89}, {"time": 1845, "pitch": 60, "duration": 4, "velocity": 105}, {"time": 1845, "pitch": 64, "duration": 5, "velocity": 108}, {"time": 1851, "pitch": 57, "duration": 2, "velocity": 62}, {"time": 1851, "pitch": 62, "duration": 2, "velocity": 69}, {"time": 1857, "pitch": 41, "duration": 18, "velocity": 97}, {"time": 1857, "pitch": 57, "duration": 3, "velocity": 87}, {"time": 1857, "pitch": 60, "duration": 3, "velocity": 87}, {"time": 1863, "pitch": 53, "duration": 1, "velocity": 24}, {"time": 1863, "pitch": 57, "duration": 3, "velocity": 67}, {"time": 1863, "pitch": 60, "duration": 3, "velocity": 67}, {"time": 1869, "pitch": 53, "duration": 4, "velocity": 100}, {"time": 1869, "pitch": 57, "duration": 4, "velocity": 105}, {"time": 1869, "pitch": 60, "duration": 4, "velocity": 97}, {"time": 1875, "pitch": 53, "duration": 2, "velocity": 82}, {"time": 1875, "pitch": 57, "duration": 3, "velocity": 94}, {"time": 1875, "pitch": 60, "duration": 3, "velocity": 92}, {"time": 1881, "pitch": 43, "duration": 22, "velocity": 100}, {"time": 1881, "pitch": 55, "duration": 4, "velocity": 87}, {"time": 1881, "pitch": 60, "duration": 4, "velocity": 89}, {"time": 1887, "pitch": 55, "duration": 4, "velocity": 71}, {"time": 1887, "pitch": 60, "duration": 4, "velocity": 69}, {"time": 1893, "pitch": 50, "duration": 10, "velocity": 73}, {"time": 1893, "pitch": 55, "duration": 4, "velocity": 87}, {"time": 1893, "pitch": 59, "duration": 4, "velocity": 102}, {"time": 1899, "pitch": 55, "duration": 3, "velocity": 89}, {"time": 1899, "pitch": 59, "duration": 4, "velocity": 89}, {"time": 1905, "pitch": 45, "duration": 22, "velocity": 100}, {"time": 1905, "pitch": 57, "duration": 4, "velocity": 89}, {"time": 1905, "pitch": 60, "duration": 4, "velocity": 97}, {"time": 1911, "pitch": 57, "duration": 4, "velocity": 55}, {"time": 1911, "pitch": 60, "duration": 3, "velocity": 66}, {"time": 1917, "pitch": 57, "duration": 3, "velocity": 100}, {"time": 1917, "pitch": 60, "duration": 3, "velocity": 111}, {"time": 1917, "pitch": 64, "duration": 4, "velocity": 105}, {"time": 1923, "pitch": 57, "duration": 4, "velocity": 73}, {"time": 1923, "pitch": 62, "duration": 5, "velocity": 66}, {"time": 1929, "pitch": 43, "duration": 20, "velocity": 102}, {"time": 1929, "pitch": 55, "duration": 3, "velocity": 97}, {"time": 1929, "pitch": 62, "duration": 4, "velocity": 84}, {"time": 1935, "pitch": 50, "duration": 7, "velocity": 45}, {"time": 1938, "pitch": 59, "duration": 1, "velocity": 67}, {"time": 1938, "pitch": 67, "duration": 1, "velocity": 60}, {"time": 1941, "pitch": 59, "duration": 3, "velocity": 108}, {"time": 1941, "pitch": 67, "duration": 3, "velocity": 111}, {"time": 1944, "pitch": 50, "duration": 5, "velocity": 71}, {"time": 1947, "pitch": 59, "duration": 2, "velocity": 94}, {"time": 1947, "pitch": 62, "duration": 2, "velocity": 111}, {"time": 1953, "pitch": 41, "duration": 12, "velocity": 100}, {"time": 1953, "pitch": 57, "duration": 3, "velocity": 97}, {"time": 1953, "pitch": 60, "duration": 7, "velocity": 97}, {"time": 1959, "pitch": 57, "duration": 5, "velocity": 66}, {"time": 1965, "pitch": 60, "duration": 8, "velocity": 105}, {"time": 1965, "pitch": 65, "duration": 8, "velocity": 102}, {"time": 1971, "pitch": 57, "duration": 7, "velocity": 87}, {"time": 1977, "pitch": 60, "duration": 6, "velocity": 102}, {"time": 1977, "pitch": 65, "duration": 6, "velocity": 102}, {"time": 1983, "pitch": 57, "duration": 1, "velocity": 89}, {"time": 1989, "pitch": 53, "duration": 6, "velocity": 108}, {"time": 1989, "pitch": 60, "duration": 2, "velocity": 97}, {"time": 1989, "pitch": 65, "duration": 6, "velocity": 97}, {"time": 1989, "pitch": 69, "duration": 6, "velocity": 97}, {"time": 1995, "pitch": 60, "duration": 2, "velocity": 100}, {"time": 2001, "pitch": 48, "duration": 23, "velocity": 102}, {"time": 2001, "pitch": 60, "duration": 9, "velocity": 102}, {"time": 2001, "pitch": 64, "duration": 7, "velocity": 97}, {"time": 2007, "pitch": 55, "duration": 18, "velocity": 71}, {"time": 2013, "pitch": 60, "duration": 3, "velocity": 102}, {"time": 2013, "pitch": 64, "duration": 3, "velocity": 108}, {"time": 2013, "pitch": 67, "duration": 3, "velocity": 108}, {"time": 2019, "pitch": 60, "duration": 15, "velocity": 87}, {"time": 2025, "pitch": 48, "duration": 18, "velocity": 92}, {"time": 2025, "pitch": 64, "duration": 7, "velocity": 105}, {"time": 2025, "pitch": 67, "duration": 7, "velocity": 102}, {"time": 2025, "pitch": 72, "duration": 7, "velocity": 100}, {"time": 2031, "pitch": 55, "duration": 8, "velocity": 44}, {"time": 2037, "pitch": 60, "duration": 3, "velocity": 105}, {"time": 2037, "pitch": 64, "duration": 6, "velocity": 117}, {"time": 2037, "pitch": 67, "duration": 6, "velocity": 114}, {"time": 2043, "pitch": 60, "duration": 1, "velocity": 108}, {"time": 2049, "pitch": 41, "duration": 18, "velocity": 100}, {"time": 2049, "pitch": 57, "duration": 3, "velocity": 94}, {"time": 2049, "pitch": 60, "duration": 9, "velocity": 105}, {"time": 2055, "pitch": 57, "duration": 4, "velocity": 69}, {"time": 2061, "pitch": 57, "duration": 2, "velocity": 102}, {"time": 2061, "pitch": 60, "duration": 6, "velocity": 108}, {"time": 2061, "pitch": 65, "duration": 9, "velocity": 94}, {"time": 2067, "pitch": 57, "duration": 2, "velocity": 94}, {"time": 2073, "pitch": 43, "duration": 16, "velocity": 102}, {"time": 2073, "pitch": 55, "duration": 9, "velocity": 84}, {"time": 2073, "pitch": 59, "duration": 7, "velocity": 89}, {"time": 2073, "pitch": 62, "duration": 7, "velocity": 87}, {"time": 2079, "pitch": 50, "duration": 10, "velocity": 60}, {"time": 2085, "pitch": 55, "duration": 3, "velocity": 108}, {"time": 2085, "pitch": 59, "duration": 6, "velocity": 120}, {"time": 2085, "pitch": 62, "duration": 6, "velocity": 111}, {"time": 2091, "pitch": 55, "duration": 2, "velocity": 108}, {"time": 2097, "pitch": 45, "duration": 22, "velocity": 100}, {"time": 2097, "pitch": 57, "duration": 10, "velocity": 102}, {"time": 2097, "pitch": 60, "duration": 7, "velocity": 92}, {"time": 2103, "pitch": 52, "duration": 7, "velocity": 58}, {"time": 2109, "pitch": 60, "duration": 1, "velocity": 114}, {"time": 2109, "pitch": 64, "duration": 2, "velocity": 108}, {"time": 2115, "pitch": 52, "duration": 4, "velocity": 60}, {"time": 2118, "pitch": 64, "duration": 1, "velocity": 78}, {"time": 2121, "pitch": 45, "duration": 22, "velocity": 92}, {"time": 2121, "pitch": 64, "duration": 7, "velocity": 108}, {"time": 2121, "pitch": 72, "duration": 9, "velocity": 105}, {"time": 2127, "pitch": 52, "duration": 7, "velocity": 64}, {"time": 2130, "pitch": 64, "duration": 1, "velocity": 84}, {"time": 2133, "pitch": 64, "duration": 4, "velocity": 114}, {"time": 2133, "pitch": 71, "duration": 5, "velocity": 114}, {"time": 2136, "pitch": 52, "duration": 6, "velocity": 73}, {"time": 2139, "pitch": 69, "duration": 4, "velocity": 89}, {"time": 2145, "pitch": 41, "duration": 16, "velocity": 100}, {"time": 2145, "pitch": 65, "duration": 5, "velocity": 97}, {"time": 2145, "pitch": 69, "duration": 6, "velocity": 108}, {"time": 2151, "pitch": 65, "duration": 4, "velocity": 33}, {"time": 2157, "pitch": 65, "duration": 2, "velocity": 102}, {"time": 2157, "pitch": 69, "duration": 6, "velocity": 111}, {"time": 2169, "pitch": 43, "duration": 16, "velocity": 100}, {"time": 2169, "pitch": 62, "duration": 7, "velocity": 84}, {"time": 2169, "pitch": 67, "duration": 6, "velocity": 100}, {"time": 2175, "pitch": 50, "duration": 9, "velocity": 62}, {"time": 2181, "pitch": 62, "duration": 2, "velocity": 97}, {"time": 2181, "pitch": 67, "duration": 5, "velocity": 117}, {"time": 2181, "pitch": 71, "duration": 6, "velocity": 108}, {"time": 2187, "pitch": 62, "duration": 1, "velocity": 80}, {"time": 2193, "pitch": 48, "duration": 10, "velocity": 105}, {"time": 2193, "pitch": 60, "duration": 3, "velocity": 102}, {"time": 2193, "pitch": 64, "duration": 6, "velocity": 111}, {"time": 2193, "pitch": 72, "duration": 7, "velocity": 100}, {"time": 2205, "pitch": 47, "duration": 6, "velocity": 105}, {"time": 2205, "pitch": 59, "duration": 5, "velocity": 102}, {"time": 2205, "pitch": 71, "duration": 4, "velocity": 97}, {"time": 2217, "pitch": 45, "duration": 16, "velocity": 100}, {"time": 2217, "pitch": 57, "duration": 9, "velocity": 97}, {"time": 2217, "pitch": 60, "duration": 7, "velocity": 100}, {"time": 2217, "pitch": 64, "duration": 7, "velocity": 94}, {"time": 2223, "pitch": 52, "duration": 7, "velocity": 60}, {"time": 2229, "pitch": 57, "duration": 3, "velocity": 117}, {"time": 2229, "pitch": 60, "duration": 3, "velocity": 120}, {"time": 2229, "pitch": 64, "duration": 4, "velocity": 111}, {"time": 2232, "pitch": 52, "duration": 2, "velocity": 67}, {"time": 2235, "pitch": 45, "duration": 2, "velocity": 89}, {"time": 2241, "pitch": 41, "duration": 22, "velocity": 105}, {"time": 2241, "pitch": 57, "duration": 11, "velocity": 80}, {"time": 2241, "pitch": 60, "duration": 10, "velocity": 89}, {"time": 2241, "pitch": 65, "duration": 11, "velocity": 94}, {"time": 2253, "pitch": 57, "duration": 3, "velocity": 105}, {"time": 2253, "pitch": 60, "duration": 7, "velocity": 108}, {"time": 2253, "pitch": 65, "duration": 11, "velocity": 105}, {"time": 2259, "pitch": 57, "duration": 3, "velocity": 78}, {"time": 2265, "pitch": 43, "duration": 14, "velocity": 102}, {"time": 2265, "pitch": 55, "duration": 9, "velocity": 82}, {"time": 2265, "pitch": 59, "duration": 9, "velocity": 92}, {"time": 2265, "pitch": 62, "duration": 8, "velocity": 82}, {"time": 2271, "pitch": 50, "duration": 9, "velocity": 53}, {"time": 2277, "pitch": 55, "duration": 5, "velocity": 97}, {"time": 2277, "pitch": 59, "duration": 4, "velocity": 111}, {"time": 2277, "pitch": 62, "duration": 5, "velocity": 100}, {"time": 2283, "pitch": 43, "duration": 4, "velocity": 100}, {"time": 2289, "pitch": 45, "duration": 22, "velocity": 100}, {"time": 2289, "pitch": 57, "duration": 10, "velocity": 82}, {"time": 2289, "pitch": 60, "duration": 8, "velocity": 84}, {"time": 2295, "pitch": 52, "duration": 9, "velocity": 44}, {"time": 2301, "pitch": 60, "duration": 6, "velocity": 111}, {"time": 2301, "pitch": 64, "duration": 5, "velocity": 100}, {"time": 2307, "pitch": 52, "duration": 4, "velocity": 62}, {"time": 2313, "pitch": 45, "duration": 21, "velocity": 87}, {"time": 2313, "pitch": 57, "duration": 10, "velocity": 62}, {"time": 2313, "pitch": 60, "duration": 7, "velocity": 73}, {"time": 2325, "pitch": 57, "duration": 3, "velocity": 92}, {"time": 2325, "pitch": 60, "duration": 6, "velocity": 108}, {"time": 2325, "pitch": 64, "duration": 6, "velocity": 102}, {"time": 2328, "pitch": 52, "duration": 4, "velocity": 49}, {"time": 2331, "pitch": 57, "duration": 3, "velocity": 89}, {"time": 2337, "pitch": 43, "duration": 22, "velocity": 102}, {"time": 2337, "pitch": 62, "duration": 4, "velocity": 92}, {"time": 2337, "pitch": 67, "duration": 4, "velocity": 100}, {"time": 2343, "pitch": 62, "duration": 2, "velocity": 69}, {"time": 2343, "pitch": 67, "duration": 2, "velocity": 84}, {"time": 2349, "pitch": 62, "duration": 4, "velocity": 97}, {"time": 2349, "pitch": 67, "duration": 4, "velocity": 108}, {"time": 2349, "pitch": 71, "duration": 3, "velocity": 114}, {"time": 2355, "pitch": 62, "duration": 5, "velocity": 60}, {"time": 2355, "pitch": 67, "duration": 5, "velocity": 69}, {"time": 2361, "pitch": 43, "duration": 20, "velocity": 105}, {"time": 2361, "pitch": 62, "duration": 4, "velocity": 84}, {"time": 2361, "pitch": 67, "duration": 4, "velocity": 100}, {"time": 2367, "pitch": 62, "duration": 4, "velocity": 100}, {"time": 2367, "pitch": 67, "duration": 4, "velocity": 108}, {"time": 2373, "pitch": 50, "duration": 9, "velocity": 69}, {"time": 2373, "pitch": 62, "duration": 4, "velocity": 100}, {"time": 2373, "pitch": 67, "duration": 4, "velocity": 108}, {"time": 2373, "pitch": 71, "duration": 3, "velocity": 105}, {"time": 2379, "pitch": 62, "duration": 2, "velocity": 97}, {"time": 2379, "pitch": 67, "duration": 2, "velocity": 100}, {"time": 2379, "pitch": 71, "duration": 3, "velocity": 97}, {"time": 2385, "pitch": 45, "duration": 22, "velocity": 100}, {"time": 2385, "pitch": 64, "duration": 4, "velocity": 97}, {"time": 2385, "pitch": 69, "duration": 4, "velocity": 100}, {"time": 2391, "pitch": 64, "duration": 2, "velocity": 62}, {"time": 2391, "pitch": 69, "duration": 2, "velocity": 64}, {"time": 2391, "pitch": 72, "duration": 2, "velocity": 80}, {"time": 2397, "pitch": 64, "duration": 2, "velocity": 108}, {"time": 2397, "pitch": 69, "duration": 2, "velocity": 111}, {"time": 2397, "pitch": 72, "duration": 2, "velocity": 111}, {"time": 2403, "pitch": 64, "duration": 1, "velocity": 94}, {"time": 2403, "pitch": 69, "duration": 1, "velocity": 105}, {"time": 2403, "pitch": 72, "duration": 1, "velocity": 92}, {"time": 2406, "pitch": 64, "duration": 1, "velocity": 89}, {"time": 2406, "pitch": 69, "duration": 1, "velocity": 50}, {"time": 2409, "pitch": 45, "duration": 10, "velocity": 102}, {"time": 2409, "pitch": 64, "duration": 4, "velocity": 94}, {"time": 2409, "pitch": 69, "duration": 4, "velocity": 100}, {"time": 2409, "pitch": 72, "duration": 4, "velocity": 94}, {"time": 2415, "pitch": 64, "duration": 1, "velocity": 82}, {"time": 2415, "pitch": 69, "duration": 2, "velocity": 92}, {"time": 2415, "pitch": 72, "duration": 1, "velocity": 87}, {"time": 2418, "pitch": 64, "duration": 2, "velocity": 78}, {"time": 2418, "pitch": 69, "duration": 1, "velocity": 12}, {"time": 2421, "pitch": 45, "duration": 7, "velocity": 100}, {"time": 2421, "pitch": 52, "duration": 6, "velocity": 111}, {"time": 2421, "pitch": 64, "duration": 4, "velocity": 108}, {"time": 2421, "pitch": 69, "duration": 3, "velocity": 102}, {"time": 2421, "pitch": 72, "duration": 3, "velocity": 105}, {"time": 2427, "pitch": 64, "duration": 1, "velocity": 100}, {"time": 2427, "pitch": 69, "duration": 2, "velocity": 105}, {"time": 2427, "pitch": 72, "duration": 2, "velocity": 105}, {"time": 2430, "pitch": 64, "duration": 1, "velocity": 34}, {"time": 2433, "pitch": 43, "duration": 21, "velocity": 105}, {"time": 2433, "pitch": 62, "duration": 5, "velocity": 100}, {"time": 2433, "pitch": 67, "duration": 4, "velocity": 92}, {"time": 2433, "pitch": 71, "duration": 5, "velocity": 97}, {"time": 2439, "pitch": 67, "duration": 2, "velocity": 87}, {"time": 2439, "pitch": 71, "duration": 2, "velocity": 78}, {"time": 2442, "pitch": 62, "duration": 1, "velocity": 67}, {"time": 2445, "pitch": 62, "duration": 4, "velocity": 108}, {"time": 2445, "pitch": 67, "duration": 3, "velocity": 111}, {"time": 2445, "pitch": 71, "duration": 3, "velocity": 100}, {"time": 2451, "pitch": 67, "duration": 1, "velocity": 80}, {"time": 2451, "pitch": 71, "duration": 1, "velocity": 76}, {"time": 2454, "pitch": 62, "duration": 2, "velocity": 92}, {"time": 2457, "pitch": 43, "duration": 20, "velocity": 102}, {"time": 2457, "pitch": 62, "duration": 4, "velocity": 105}, {"time": 2457, "pitch": 67, "duration": 4, "velocity": 100}, {"time": 2463, "pitch": 62, "duration": 1, "velocity": 60}, {"time": 2463, "pitch": 67, "duration": 4, "velocity": 92}, {"time": 2466, "pitch": 62, "duration": 2, "velocity": 89}, {"time": 2469, "pitch": 50, "duration": 7, "velocity": 92}, {"time": 2469, "pitch": 62, "duration": 3, "velocity": 108}, {"time": 2469, "pitch": 67, "duration": 3, "velocity": 111}, {"time": 2469, "pitch": 71, "duration": 3, "velocity": 108}, {"time": 2475, "pitch": 62, "duration": 1, "velocity": 94}, {"time": 2475, "pitch": 67, "duration": 1, "velocity": 92}, {"time": 2475, "pitch": 71, "duration": 1, "velocity": 82}, {"time": 2481, "pitch": 41, "duration": 1, "velocity": 105}, {"time": 2481, "pitch": 60, "duration": 7, "velocity": 102}, {"time": 2481, "pitch": 65, "duration": 9, "velocity": 100}, {"time": 2481, "pitch": 69, "duration": 17, "velocity": 97}, {"time": 2496, "pitch": 53, "duration": 22, "velocity": 18}, {"time": 2499, "pitch": 60, "duration": 19, "velocity": 102}, {"time": 2502, "pitch": 65, "duration": 1, "velocity": 92}, {"time": 2505, "pitch": 65, "duration": 14, "velocity": 58}, {"time": 2505, "pitch": 69, "duration": 14, "velocity": 76}, {"time": 2528, "pitch": 60, "duration": 10, "velocity": 55}, {"time": 2529, "pitch": 64, "duration": 8, "velocity": 78}, {"time": 2529, "pitch": 48, "duration": 29, "velocity": 102}, {"time": 2530, "pitch": 67, "duration": 6, "velocity": 82}, {"time": 2535, "pitch": 55, "duration": 7, "velocity": 24}, {"time": 2541, "pitch": 60, "duration": 5, "velocity": 100}, {"time": 2541, "pitch": 64, "duration": 5, "velocity": 105}, {"time": 2541, "pitch": 67, "duration": 6, "velocity": 97}, {"time": 2547, "pitch": 55, "duration": 10, "velocity": 34}, {"time": 2550, "pitch": 60, "duration": 1, "velocity": 69}, {"time": 2553, "pitch": 67, "duration": 5, "velocity": 108}, {"time": 2553, "pitch": 60, "duration": 5, "velocity": 105}, {"time": 2553, "pitch": 64, "duration": 5, "velocity": 114}, {"time": 2564, "pitch": 64, "duration": 3, "velocity": 108}, {"time": 2564, "pitch": 72, "duration": 3, "velocity": 102}, {"time": 2564, "pitch": 48, "duration": 3, "velocity": 108}, {"time": 2564, "pitch": 60, "duration": 3, "velocity": 89}, {"time": 2568, "pitch": 62, "duration": 3, "velocity": 97}, {"time": 2568, "pitch": 71, "duration": 3, "velocity": 102}, {"time": 2568, "pitch": 59, "duration": 3, "velocity": 100}, {"time": 2569, "pitch": 47, "duration": 2, "velocity": 108}, {"time": 2572, "pitch": 43, "duration": 4, "velocity": 111}, {"time": 2572, "pitch": 55, "duration": 4, "velocity": 102}, {"time": 2572, "pitch": 67, "duration": 4, "velocity": 84}, {"time": 2577, "pitch": 41, "duration": 18, "velocity": 100}, {"time": 2577, "pitch": 57, "duration": 3, "velocity": 94}, {"time": 2577, "pitch": 60, "duration": 9, "velocity": 105}, {"time": 2583, "pitch": 57, "duration": 4, "velocity": 69}, {"time": 2589, "pitch": 57, "duration": 2, "velocity": 102}, {"time": 2589, "pitch": 60, "duration": 6, "velocity": 108}, {"time": 2589, "pitch": 65, "duration": 9, "velocity": 94}, {"time": 2595, "pitch": 57, "duration": 2, "velocity": 94}, {"time": 2601, "pitch": 43, "duration": 16, "velocity": 102}, {"time": 2601, "pitch": 55, "duration": 9, "velocity": 84}, {"time": 2601, "pitch": 59, "duration": 7, "velocity": 89}, {"time": 2601, "pitch": 62, "duration": 7, "velocity": 87}, {"time": 2607, "pitch": 50, "duration": 10, "velocity": 60}, {"time": 2613, "pitch": 55, "duration": 3, "velocity": 108}, {"time": 2613, "pitch": 59, "duration": 6, "velocity": 120}, {"time": 2613, "pitch": 62, "duration": 6, "velocity": 111}, {"time": 2619, "pitch": 55, "duration": 2, "velocity": 108}, {"time": 2625, "pitch": 45, "duration": 22, "velocity": 100}, {"time": 2625, "pitch": 57, "duration": 10, "velocity": 102}, {"time": 2625, "pitch": 60, "duration": 7, "velocity": 92}, {"time": 2631, "pitch": 52, "duration": 7, "velocity": 58}, {"time": 2637, "pitch": 60, "duration": 1, "velocity": 114}, {"time": 2637, "pitch": 64, "duration": 2, "velocity": 108}, {"time": 2643, "pitch": 52, "duration": 4, "velocity": 60}, {"time": 2646, "pitch": 64, "duration": 1, "velocity": 78}, {"time": 2649, "pitch": 45, "duration": 22, "velocity": 92}, {"time": 2649, "pitch": 64, "duration": 7, "velocity": 108}, {"time": 2649, "pitch": 72, "duration": 9, "velocity": 105}, {"time": 2655, "pitch": 52, "duration": 7, "velocity": 64}, {"time": 2658, "pitch": 64, "duration": 1, "velocity": 84}, {"time": 2661, "pitch": 64, "duration": 4, "velocity": 114}, {"time": 2661, "pitch": 71, "duration": 5, "velocity": 114}, {"time": 2664, "pitch": 52, "duration": 6, "velocity": 73}, {"time": 2667, "pitch": 69, "duration": 4, "velocity": 89}, {"time": 2673, "pitch": 41, "duration": 16, "velocity": 100}, {"time": 2673, "pitch": 65, "duration": 5, "velocity": 97}, {"time": 2673, "pitch": 69, "duration": 6, "velocity": 108}, {"time": 2679, "pitch": 65, "duration": 4, "velocity": 33}, {"time": 2685, "pitch": 65, "duration": 2, "velocity": 102}, {"time": 2685, "pitch": 69, "duration": 6, "velocity": 111}, {"time": 2697, "pitch": 43, "duration": 16, "velocity": 100}, {"time": 2697, "pitch": 62, "duration": 7, "velocity": 84}, {"time": 2697, "pitch": 67, "duration": 6, "velocity": 100}, {"time": 2703, "pitch": 50, "duration": 9, "velocity": 62}, {"time": 2709, "pitch": 62, "duration": 2, "velocity": 97}, {"time": 2709, "pitch": 67, "duration": 5, "velocity": 117}, {"time": 2709, "pitch": 71, "duration": 6, "velocity": 108}, {"time": 2715, "pitch": 62, "duration": 1, "velocity": 80}, {"time": 2721, "pitch": 48, "duration": 10, "velocity": 105}, {"time": 2721, "pitch": 60, "duration": 3, "velocity": 102}, {"time": 2721, "pitch": 64, "duration": 6, "velocity": 111}, {"time": 2721, "pitch": 72, "duration": 7, "velocity": 100}, {"time": 2733, "pitch": 47, "duration": 6, "velocity": 105}, {"time": 2733, "pitch": 59, "duration": 5, "velocity": 102}, {"time": 2733, "pitch": 71, "duration": 4, "velocity": 97}, {"time": 2745, "pitch": 45, "duration": 16, "velocity": 100}, {"time": 2745, "pitch": 57, "duration": 9, "velocity": 97}, {"time": 2745, "pitch": 60, "duration": 7, "velocity": 100}, {"time": 2745, "pitch": 64, "duration": 7, "velocity": 94}, {"time": 2751, "pitch": 52, "duration": 7, "velocity": 60}, {"time": 2757, "pitch": 57, "duration": 3, "velocity": 117}, {"time": 2757, "pitch": 60, "duration": 3, "velocity": 120}, {"time": 2757, "pitch": 64, "duration": 4, "velocity": 111}, {"time": 2760, "pitch": 52, "duration": 2, "velocity": 67}, {"time": 2763, "pitch": 45, "duration": 2, "velocity": 89}, {"time": 2769, "pitch": 41, "duration": 22, "velocity": 105}, {"time": 2769, "pitch": 57, "duration": 11, "velocity": 80}, {"time": 2769, "pitch": 60, "duration": 10, "velocity": 89}, {"time": 2769, "pitch": 65, "duration": 11, "velocity": 94}, {"time": 2781, "pitch": 57, "duration": 3, "velocity": 105}, {"time": 2781, "pitch": 60, "duration": 7, "velocity": 108}, {"time": 2781, "pitch": 65, "duration": 11, "velocity": 105}, {"time": 2787, "pitch": 57, "duration": 3, "velocity": 78}, {"time": 2793, "pitch": 43, "duration": 14, "velocity": 102}, {"time": 2793, "pitch": 55, "duration": 9, "velocity": 82}, {"time": 2793, "pitch": 59, "duration": 9, "velocity": 92}, {"time": 2793, "pitch": 62, "duration": 8, "velocity": 82}, {"time": 2799, "pitch": 50, "duration": 9, "velocity": 53}, {"time": 2805, "pitch": 55, "duration": 5, "velocity": 97}, {"time": 2805, "pitch": 59, "duration": 4, "velocity": 111}, {"time": 2805, "pitch": 62, "duration": 5, "velocity": 100}, {"time": 2811, "pitch": 43, "duration": 4, "velocity": 100}, {"time": 2817, "pitch": 45, "duration": 22, "velocity": 100}, {"time": 2817, "pitch": 57, "duration": 10, "velocity": 82}, {"time": 2817, "pitch": 60, "duration": 8, "velocity": 84}, {"time": 2823, "pitch": 52, "duration": 9, "velocity": 44}, {"time": 2829, "pitch": 60, "duration": 6, "velocity": 111}, {"time": 2829, "pitch": 64, "duration": 5, "velocity": 100}, {"time": 2835, "pitch": 52, "duration": 4, "velocity": 62}, {"time": 2841, "pitch": 45, "duration": 21, "velocity": 87}, {"time": 2841, "pitch": 57, "duration": 10, "velocity": 62}, {"time": 2841, "pitch": 60, "duration": 7, "velocity": 73}, {"time": 2853, "pitch": 57, "duration": 3, "velocity": 92}, {"time": 2853, "pitch": 60, "duration": 6, "velocity": 108}, {"time": 2853, "pitch": 64, "duration": 6, "velocity": 102}, {"time": 2856, "pitch": 52, "duration": 4, "velocity": 49}, {"time": 2859, "pitch": 57, "duration": 3, "velocity": 89}, {"time": 2865, "pitch": 48, "duration": 21, "velocity": 105}, {"time": 2865, "pitch": 55, "duration": 4, "velocity": 87}, {"time": 2865, "pitch": 60, "duration": 4, "velocity": 87}, {"time": 2871, "pitch": 55, "duration": 2, "velocity": 53}, {"time": 2871, "pitch": 60, "duration": 2, "velocity": 67}, {"time": 2877, "pitch": 55, "duration": 4, "velocity": 94}, {"time": 2877, "pitch": 60, "duration": 3, "velocity": 100}, {"time": 2883, "pitch": 59, "duration": 5, "velocity": 97}, {"time": 2889, "pitch": 45, "duration": 20, "velocity": 100}, {"time": 2889, "pitch": 57, "duration": 4, "velocity": 78}, {"time": 2889, "pitch": 60, "duration": 4, "velocity": 92}, {"time": 2895, "pitch": 57, "duration": 2, "velocity": 76}, {"time": 2895, "pitch": 60, "duration": 2, "velocity": 66}, {"time": 2901, "pitch": 57, "duration": 4, "velocity": 108}, {"time": 2901, "pitch": 60, "duration": 3, "velocity": 108}, {"time": 2907, "pitch": 62, "duration": 6, "velocity": 94}, {"time": 2913, "pitch": 41, "duration": 24, "velocity": 94}, {"time": 2913, "pitch": 57, "duration": 3, "velocity": 87}, {"time": 2913, "pitch": 60, "duration": 4, "velocity": 82}, {"time": 2919, "pitch": 53, "duration": 2, "velocity": 50}, {"time": 2919, "pitch": 57, "duration": 2, "velocity": 52}, {"time": 2919, "pitch": 60, "duration": 3, "velocity": 84}, {"time": 2925, "pitch": 53, "duration": 4, "velocity": 97}, {"time": 2925, "pitch": 57, "duration": 4, "velocity": 105}, {"time": 2925, "pitch": 60, "duration": 4, "velocity": 100}, {"time": 2931, "pitch": 53, "duration": 5, "velocity": 97}, {"time": 2931, "pitch": 57, "duration": 5, "velocity": 102}, {"time": 2931, "pitch": 60, "duration": 6, "velocity": 97}, {"time": 2937, "pitch": 45, "duration": 20, "velocity": 100}, {"time": 2937, "pitch": 57, "duration": 4, "velocity": 92}, {"time": 2937, "pitch": 60, "duration": 4, "velocity": 97}, {"time": 2943, "pitch": 57, "duration": 3, "velocity": 67}, {"time": 2943, "pitch": 60, "duration": 3, "velocity": 82}, {"time": 2949, "pitch": 57, "duration": 3, "velocity": 97}, {"time": 2949, "pitch": 60, "duration": 3, "velocity": 94}, {"time": 2955, "pitch": 57, "duration": 4, "velocity": 87}, {"time": 2955, "pitch": 60, "duration": 4, "velocity": 92}, {"time": 2961, "pitch": 41, "duration": 24, "velocity": 94}, {"time": 2961, "pitch": 57, "duration": 4, "velocity": 94}, {"time": 2961, "pitch": 60, "duration": 4, "velocity": 100}, {"time": 2967, "pitch": 57, "duration": 4, "velocity": 80}, {"time": 2967, "pitch": 60, "duration": 4, "velocity": 69}, {"time": 2973, "pitch": 53, "duration": 4, "velocity": 89}, {"time": 2973, "pitch": 57, "duration": 4, "velocity": 102}, {"time": 2973, "pitch": 60, "duration": 4, "velocity": 100}, {"time": 2979, "pitch": 53, "duration": 5, "velocity": 82}, {"time": 2979, "pitch": 57, "duration": 5, "velocity": 92}, {"time": 2979, "pitch": 60, "duration": 5, "velocity": 92}, {"time": 2985, "pitch": 45, "duration": 21, "velocity": 97}, {"time": 2985, "pitch": 57, "duration": 4, "velocity": 89}, {"time": 2985, "pitch": 60, "duration": 4, "velocity": 92}, {"time": 2991, "pitch": 57, "duration": 2, "velocity": 64}, {"time": 2991, "pitch": 60, "duration": 2, "velocity": 66}, {"time": 2997, "pitch": 57, "duration": 4, "velocity": 97}, {"time": 2997, "pitch": 60, "duration": 4, "velocity": 108}, {"time": 3003, "pitch": 57, "duration": 4, "velocity": 89}, {"time": 3003, "pitch": 60, "duration": 4, "velocity": 94}, {"time": 3009, "pitch": 41, "duration": 23, "velocity": 94}, {"time": 3009, "pitch": 53, "duration": 4, "velocity": 94}, {"time": 3009, "pitch": 60, "duration": 4, "velocity": 82}, {"time": 3015, "pitch": 53, "duration": 4, "velocity": 78}, {"time": 3015, "pitch": 60, "duration": 4, "velocity": 89}, {"time": 3021, "pitch": 53, "duration": 4, "velocity": 97}, {"time": 3021, "pitch": 60, "duration": 4, "velocity": 97}, {"time": 3027, "pitch": 53, "duration": 4, "velocity": 87}, {"time": 3027, "pitch": 60, "duration": 5, "velocity": 92}, {"time": 3033, "pitch": 45, "duration": 22, "velocity": 97}, {"time": 3033, "pitch": 57, "duration": 21, "velocity": 82}, {"time": 3033, "pitch": 60, "duration": 20, "velocity": 84}], "annotations": [{"time": 35, "annotation": {"number": 64, "value": 127}, "group": "control_change"}, {"time": 55, "annotation": {"number": 64, "value": 0}, "group": "control_change"}, {"time": 58, "annotation": {"number": 64, "value": 127}, "group": "control_change"}, {"time": 79, "annotation": {"number": 64, "value": 0}, "group": "control_change"}, {"time": 83, "annotation": {"number": 64, "value": 127}, "group": "control_change"}, {"time": 102, "annotation": {"number": 64, "value": 0}, "group": "control_change"}, {"time": 106, "annotation": {"number": 64, "value": 127}, "group": "control_change"}, {"time": 128, "annotation": {"number": 64, "value": 0}, "group": "control_change"}, {"time": 132, "annotation": {"number": 64, "value": 127}, "group": "control_change"}, {"time": 150, "annotation": {"number": 64, "value": 0}, "group": "control_change"}, {"time": 154, "annotation": {"number": 64, "value": 127}, "group": "control_change"}, {"time": 176, "annotation": {"number": 64, "value": 0}, "group": "control_change"}, {"time": 180, "annotation": {"number": 64, "value": 127}, "group": "control_change"}, {"time": 201, "annotation": {"number": 64, "value": 0}, "group": "control_change"}, {"time": 202, "annotation": {"number": 64, "value": 127}, "group": "control_change"}, {"time": 221, "annotation": {"number": 64, "value": 0}, "group": "control_change"}, {"time": 229, "annotation": {"number": 64, "value": 127}, "group": "control_change"}, {"time": 248, "annotation": {"number": 64, "value": 0}, "group": "control_change"}, {"time": 251, "annotation": {"number": 64, "value": 127}, "group": "control_change"}, {"time": 272, "annotation": {"number": 64, "value": 0}, "group": "control_change"}, {"time": 276, "annotation": {"number": 64, "value": 127}, "group": "control_change"}, {"time": 297, "annotation": {"number": 64, "value": 0}, "group": "control_change"}, {"time": 302, "annotation": {"number": 64, "value": 127}, "group": "control_change"}, {"time": 320, "annotation": {"number": 64, "value": 0}, "group": "control_change"}, {"time": 324, "annotation": {"number": 64, "value": 127}, "group": "control_change"}, {"time": 344, "annotation": {"number": 64, "value": 0}, "group": "control_change"}, {"time": 348, "annotation": {"number": 64, "value": 127}, "group": "control_change"}, {"time": 368, "annotation": {"number": 64, "value": 0}, "group": "control_change"}, {"time": 372, "annotation": {"number": 64, "value": 127}, "group": "control_change"}, {"time": 393, "annotation": {"number": 64, "value": 0}, "group": "control_change"}, {"time": 396, "annotation": {"number": 64, "value": 127}, "group": "control_change"}, {"time": 419, "annotation": {"number": 64, "value": 127}, "group": "control_change"}, {"time": 441, "annotation": {"number": 64, "value": 0}, "group": "control_change"}, {"time": 445, "annotation": {"number": 64, "value": 127}, "group": "control_change"}, {"time": 463, "annotation": {"number": 64, "value": 0}, "group": "control_change"}, {"time": 467, "annotation": {"number": 64, "value": 127}, "group": "control_change"}, {"time": 488, "annotation": {"number": 64, "value": 0}, "group": "control_change"}, {"time": 491, "annotation": {"number": 64, "value": 127}, "group": "control_change"}, {"time": 512, "annotation": {"number": 64, "value": 0}, "group": "control_change"}, {"time": 515, "annotation": {"number": 64, "value": 127}, "group": "control_change"}, {"time": 537, "annotation": {"number": 64, "value": 0}, "group": "control_change"}, {"time": 540, "annotation": {"number": 64, "value": 127}, "group": "control_change"}, {"time": 560, "annotation": {"number": 64, "value": 0}, "group": "control_change"}, {"time": 563, "annotation": {"number": 64, "value": 127}, "group": "control_change"}, {"time": 585, "annotation": {"number": 64, "value": 0}, "group": "control_change"}, {"time": 613, "annotation": {"number": 64, "value": 127}, "group": "control_change"}, {"time": 632, "annotation": {"number": 64, "value": 0}, "group": "control_change"}, {"time": 635, "annotation": {"number": 64, "value": 127}, "group": "control_change"}, {"time": 656, "annotation": {"number": 64, "value": 0}, "group": "control_change"}, {"time": 660, "annotation": {"number": 64, "value": 127}, "group": "control_change"}, {"time": 681, "annotation": {"number": 64, "value": 0}, "group": "control_change"}, {"time": 686, "annotation": {"number": 64, "value": 127}, "group": "control_change"}, {"time": 704, "annotation": {"number": 64, "value": 0}, "group": "control_change"}, {"time": 708, "annotation": {"number": 64, "value": 127}, "group": "control_change"}, {"time": 728, "annotation": {"number": 64, "value": 0}, "group": "control_change"}, {"time": 732, "annotation": {"number": 64, "value": 127}, "group": "control_change"}, {"time": 752, "annotation": {"number": 64, "value": 0}, "group": "control_change"}, {"time": 756, "annotation": {"number": 64, "value": 127}, "group": "control_change"}, {"time": 777, "annotation": {"number": 64, "value": 0}, "group": "control_change"}, {"time": 780, "annotation": {"number": 64, "value": 127}, "group": "control_change"}, {"time": 803, "annotation": {"number": 64, "value": 127}, "group": "control_change"}, {"time": 825, "annotation": {"number": 64, "value": 0}, "group": "control_change"}, {"time": 829, "annotation": {"number": 64, "value": 127}, "group": "control_change"}, {"time": 847, "annotation": {"number": 64, "value": 0}, "group": "control_change"}, {"time": 851, "annotation": {"number": 64, "value": 127}, "group": "control_change"}, {"time": 872, "annotation": {"number": 64, "value": 0}, "group": "control_change"}, {"time": 873, "annotation": {"number": 64, "value": 127}, "group": "control_change"}, {"time": 894, "annotation": {"number": 64, "value": 0}, "group": "control_change"}, {"time": 897, "annotation": {"number": 64, "value": 127}, "group": "control_change"}, {"time": 918, "annotation": {"number": 64, "value": 0}, "group": "control_change"}, {"time": 921, "annotation": {"number": 64, "value": 127}, "group": "control_change"}, {"time": 942, "annotation": {"number": 64, "value": 0}, "group": "control_change"}, {"time": 945, "annotation": {"number": 64, "value": 127}, "group": "control_change"}, {"time": 966, "annotation": {"number": 64, "value": 0}, "group": "control_change"}, {"time": 969, "annotation": {"number": 64, "value": 127}, "group": "control_change"}, {"time": 991, "annotation": {"number": 64, "value": 0}, "group": "control_change"}, {"time": 993, "annotation": {"number": 64, "value": 127}, "group": "control_change"}, {"time": 1003, "annotation": {"number": 64, "value": 0}, "group": "control_change"}, {"time": 1004, "annotation": {"number": 64, "value": 127}, "group": "control_change"}, {"time": 1014, "annotation": {"number": 64, "value": 0}, "group": "control_change"}, {"time": 1017, "annotation": {"number": 64, "value": 127}, "group": "control_change"}, {"time": 1039, "annotation": {"number": 64, "value": 0}, "group": "control_change"}, {"time": 1041, "annotation": {"number": 64, "value": 127}, "group": "control_change"}, {"time": 1063, "annotation": {"number": 64, "value": 0}, "group": "control_change"}, {"time": 1065, "annotation": {"number": 64, "value": 127}, "group": "control_change"}, {"time": 1086, "annotation": {"number": 64, "value": 0}, "group": "control_change"}, {"time": 1089, "annotation": {"number": 64, "value": 127}, "group": "control_change"}, {"time": 1110, "annotation": {"number": 64, "value": 0}, "group": "control_change"}, {"time": 1113, "annotation": {"number": 64, "value": 127}, "group": "control_change"}, {"time": 1134, "annotation": {"number": 64, "value": 0}, "group": "control_change"}, {"time": 1137, "annotation": {"number": 64, "value": 127}, "group": "control_change"}, {"time": 1159, "annotation": {"number": 64, "value": 0}, "group": "control_change"}, {"time": 1161, "annotation": {"number": 64, "value": 127}, "group": "control_change"}, {"time": 1182, "annotation": {"number": 64, "value": 0}, "group": "control_change"}, {"time": 1185, "annotation": {"number": 64, "value": 127}, "group": "control_change"}, {"time": 1206, "annotation": {"number": 64, "value": 0}, "group": "control_change"}, {"time": 1209, "annotation": {"number": 64, "value": 127}, "group": "control_change"}, {"time": 1230, "annotation": {"number": 64, "value": 0}, "group": "control_change"}, {"time": 1233, "annotation": {"number": 64, "value": 127}, "group": "control_change"}, {"time": 1242, "annotation": {"number": 64, "value": 0}, "group": "control_change"}, {"time": 1244, "annotation": {"number": 64, "value": 127}, "group": "control_change"}, {"time": 1254, "annotation": {"number": 64, "value": 0}, "group": "control_change"}, {"time": 1256, "annotation": {"number": 64, "value": 127}, "group": "control_change"}, {"time": 1266, "annotation": {"number": 64, "value": 0}, "group": "control_change"}, {"time": 1269, "annotation": {"number": 64, "value": 127}, "group": "control_change"}, {"time": 1278, "annotation": {"number": 64, "value": 0}, "group": "control_change"}, {"time": 1281, "annotation": {"number": 64, "value": 127}, "group": "control_change"}, {"time": 1302, "annotation": {"number": 64, "value": 0}, "group": "control_change"}, {"time": 1305, "annotation": {"number": 64, "value": 127}, "group": "control_change"}, {"time": 1325, "annotation": {"number": 64, "value": 0}, "group": "control_change"}, {"time": 1329, "annotation": {"number": 64, "value": 127}, "group": "control_change"}, {"time": 1350, "annotation": {"number": 64, "value": 0}, "group": "control_change"}, {"time": 1353, "annotation": {"number": 64, "value": 127}, "group": "control_change"}, {"time": 1377, "annotation": {"number": 64, "value": 127}, "group": "control_change"}, {"time": 1386, "annotation": {"number": 64, "value": 0}, "group": "control_change"}, {"time": 1387, "annotation": {"number": 64, "value": 127}, "group": "control_change"}, {"time": 1425, "annotation": {"number": 64, "value": 0}, "group": "control_change"}, {"time": 1428, "annotation": {"number": 64, "value": 127}, "group": "control_change"}, {"time": 1448, "annotation": {"number": 64, "value": 0}, "group": "control_change"}, {"time": 1448, "annotation": {"number": 64, "value": 127}, "group": "control_change"}, {"time": 1472, "annotation": {"number": 64, "value": 0}, "group": "control_change"}, {"time": 1477, "annotation": {"number": 64, "value": 127}, "group": "control_change"}, {"time": 1508, "annotation": {"number": 64, "value": 0}, "group": "control_change"}, {"time": 1509, "annotation": {"number": 64, "value": 127}, "group": "control_change"}, {"time": 1521, "annotation": {"number": 64, "value": 0}, "group": "control_change"}, {"time": 1525, "annotation": {"number": 64, "value": 127}, "group": "control_change"}, {"time": 1568, "annotation": {"number": 64, "value": 0}, "group": "control_change"}, {"time": 1573, "annotation": {"number": 64, "value": 127}, "group": "control_change"}, {"time": 1592, "annotation": {"number": 64, "value": 0}, "group": "control_change"}, {"time": 1595, "annotation": {"number": 64, "value": 127}, "group": "control_change"}, {"time": 1616, "annotation": {"number": 64, "value": 0}, "group": "control_change"}, {"time": 1620, "annotation": {"number": 64, "value": 127}, "group": "control_change"}, {"time": 1641, "annotation": {"number": 64, "value": 0}, "group": "control_change"}, {"time": 1646, "annotation": {"number": 64, "value": 127}, "group": "control_change"}, {"time": 1664, "annotation": {"number": 64, "value": 0}, "group": "control_change"}, {"time": 1668, "annotation": {"number": 64, "value": 127}, "group": "control_change"}, {"time": 1688, "annotation": {"number": 64, "value": 0}, "group": "control_change"}, {"time": 1692, "annotation": {"number": 64, "value": 127}, "group": "control_change"}, {"time": 1712, "annotation": {"number": 64, "value": 0}, "group": "control_change"}, {"time": 1716, "annotation": {"number": 64, "value": 127}, "group": "control_change"}, {"time": 1737, "annotation": {"number": 64, "value": 0}, "group": "control_change"}, {"time": 1740, "annotation": {"number": 64, "value": 127}, "group": "control_change"}, {"time": 1763, "annotation": {"number": 64, "value": 127}, "group": "control_change"}, {"time": 1785, "annotation": {"number": 64, "value": 0}, "group": "control_change"}, {"time": 1789, "annotation": {"number": 64, "value": 127}, "group": "control_change"}, {"time": 1807, "annotation": {"number": 64, "value": 0}, "group": "control_change"}, {"time": 1811, "annotation": {"number": 64, "value": 127}, "group": "control_change"}, {"time": 1832, "annotation": {"number": 64, "value": 0}, "group": "control_change"}, {"time": 1833, "annotation": {"number": 64, "value": 127}, "group": "control_change"}, {"time": 1854, "annotation": {"number": 64, "value": 0}, "group": "control_change"}, {"time": 1857, "annotation": {"number": 64, "value": 127}, "group": "control_change"}, {"time": 1878, "annotation": {"number": 64, "value": 0}, "group": "control_change"}, {"time": 1881, "annotation": {"number": 64, "value": 127}, "group": "control_change"}, {"time": 1902, "annotation": {"number": 64, "value": 0}, "group": "control_change"}, {"time": 1905, "annotation": {"number": 64, "value": 127}, "group": "control_change"}, {"time": 1926, "annotation": {"number": 64, "value": 0}, "group": "control_change"}, {"time": 1929, "annotation": {"number": 64, "value": 127}, "group": "control_change"}, {"time": 1951, "annotation": {"number": 64, "value": 0}, "group": "control_change"}, {"time": 1953, "annotation": {"number": 64, "value": 127}, "group": "control_change"}, {"time": 1963, "annotation": {"number": 64, "value": 0}, "group": "control_change"}, {"time": 1964, "annotation": {"number": 64, "value": 127}, "group": "control_change"}, {"time": 1974, "annotation": {"number": 64, "value": 0}, "group": "control_change"}, {"time": 1977, "annotation": {"number": 64, "value": 127}, "group": "control_change"}, {"time": 1999, "annotation": {"number": 64, "value": 0}, "group": "control_change"}, {"time": 2001, "annotation": {"number": 64, "value": 127}, "group": "control_change"}, {"time": 2023, "annotation": {"number": 64, "value": 0}, "group": "control_change"}, {"time": 2025, "annotation": {"number": 64, "value": 127}, "group": "control_change"}, {"time": 2046, "annotation": {"number": 64, "value": 0}, "group": "control_change"}, {"time": 2049, "annotation": {"number": 64, "value": 127}, "group": "control_change"}, {"time": 2070, "annotation": {"number": 64, "value": 0}, "group": "control_change"}, {"time": 2073, "annotation": {"number": 64, "value": 127}, "group": "control_change"}, {"time": 2094, "annotation": {"number": 64, "value": 0}, "group": "control_change"}, {"time": 2097, "annotation": {"number": 64, "value": 127}, "group": "control_change"}, {"time": 2119, "annotation": {"number": 64, "value": 0}, "group": "control_change"}, {"time": 2121, "annotation": {"number": 64, "value": 127}, "group": "control_change"}, {"time": 2142, "annotation": {"number": 64, "value": 0}, "group": "control_change"}, {"time": 2145, "annotation": {"number": 64, "value": 127}, "group": "control_change"}, {"time": 2166, "annotation": {"number": 64, "value": 0}, "group": "control_change"}, {"time": 2169, "annotation": {"number": 64, "value": 127}, "group": "control_change"}, {"time": 2190, "annotation": {"number": 64, "value": 0}, "group": "control_change"}, {"time": 2193, "annotation": {"number": 64, "value": 127}, "group": "control_change"}, {"time": 2202, "annotation": {"number": 64, "value": 0}, "group": "control_change"}, {"time": 2204, "annotation": {"number": 64, "value": 127}, "group": "control_change"}, {"time": 2214, "annotation": {"number": 64, "value": 0}, "group": "control_change"}, {"time": 2216, "annotation": {"number": 64, "value": 127}, "group": "control_change"}, {"time": 2226, "annotation": {"number": 64, "value": 0}, "group": "control_change"}, {"time": 2229, "annotation": {"number": 64, "value": 127}, "group": "control_change"}, {"time": 2238, "annotation": {"number": 64, "value": 0}, "group": "control_change"}, {"time": 2241, "annotation": {"number": 64, "value": 127}, "group": "control_change"}, {"time": 2262, "annotation": {"number": 64, "value": 0}, "group": "control_change"}, {"time": 2265, "annotation": {"number": 64, "value": 127}, "group": "control_change"}, {"time": 2285, "annotation": {"number": 64, "value": 0}, "group": "control_change"}, {"time": 2289, "annotation": {"number": 64, "value": 127}, "group": "control_change"}, {"time": 2310, "annotation": {"number": 64, "value": 0}, "group": "control_change"}, {"time": 2313, "annotation": {"number": 64, "value": 127}, "group": "control_change"}, {"time": 2337, "annotation": {"number": 64, "value": 127}, "group": "control_change"}, {"time": 2361, "annotation": {"number": 64, "value": 0}, "group": "control_change"}, {"time": 2362, "annotation": {"number": 64, "value": 127}, "group": "control_change"}, {"time": 2385, "annotation": {"number": 64, "value": 0}, "group": "control_change"}, {"time": 2387, "annotation": {"number": 64, "value": 127}, "group": "control_change"}, {"time": 2408, "annotation": {"number": 64, "value": 0}, "group": "control_change"}, {"time": 2410, "annotation": {"number": 64, "value": 127}, "group": "control_change"}, {"time": 2433, "annotation": {"number": 64, "value": 0}, "group": "control_change"}, {"time": 2437, "annotation": {"number": 64, "value": 127}, "group": "control_change"}, {"time": 2456, "annotation": {"number": 64, "value": 0}, "group": "control_change"}, {"time": 2461, "annotation": {"number": 64, "value": 127}, "group": "control_change"}, {"time": 2479, "annotation": {"number": 64, "value": 0}, "group": "control_change"}, {"time": 2480, "annotation": {"number": 64, "value": 127}, "group": "control_change"}, {"time": 2527, "annotation": {"number": 64, "value": 0}, "group": "control_change"}, {"time": 2531, "annotation": {"number": 64, "value": 127}, "group": "control_change"}, {"time": 2563, "annotation": {"number": 64, "value": 0}, "group": "control_change"}, {"time": 2564, "annotation": {"number": 64, "value": 127}, "group": "control_change"}, {"time": 2576, "annotation": {"number": 64, "value": 0}, "group": "control_change"}, {"time": 2577, "annotation": {"number": 64, "value": 127}, "group": "control_change"}, {"time": 2598, "annotation": {"number": 64, "value": 0}, "group": "control_change"}, {"time": 2601, "annotation": {"number": 64, "value": 127}, "group": "control_change"}, {"time": 2622, "annotation": {"number": 64, "value": 0}, "group": "control_change"}, {"time": 2625, "annotation": {"number": 64, "value": 127}, "group": "control_change"}, {"time": 2647, "annotation": {"number": 64, "value": 0}, "group": "control_change"}, {"time": 2649, "annotation": {"number": 64, "value": 127}, "group": "control_change"}, {"time": 2670, "annotation": {"number": 64, "value": 0}, "group": "control_change"}, {"time": 2673, "annotation": {"number": 64, "value": 127}, "group": "control_change"}, {"time": 2694, "annotation": {"number": 64, "value": 0}, "group": "control_change"}, {"time": 2697, "annotation": {"number": 64, "value": 127}, "group": "control_change"}, {"time": 2718, "annotation": {"number": 64, "value": 0}, "group": "control_change"}, {"time": 2721, "annotation": {"number": 64, "value": 127}, "group": "control_change"}, {"time": 2730, "annotation": {"number": 64, "value": 0}, "group": "control_change"}, {"time": 2732, "annotation": {"number": 64, "value": 127}, "group": "control_change"}, {"time": 2742, "annotation": {"number": 64, "value": 0}, "group": "control_change"}, {"time": 2744, "annotation": {"number": 64, "value": 127}, "group": "control_change"}, {"time": 2754, "annotation": {"number": 64, "value": 0}, "group": "control_change"}, {"time": 2757, "annotation": {"number": 64, "value": 127}, "group": "control_change"}, {"time": 2766, "annotation": {"number": 64, "value": 0}, "group": "control_change"}, {"time": 2769, "annotation": {"number": 64, "value": 127}, "group": "control_change"}, {"time": 2790, "annotation": {"number": 64, "value": 0}, "group": "control_change"}, {"time": 2793, "annotation": {"number": 64, "value": 127}, "group": "control_change"}, {"time": 2813, "annotation": {"number": 64, "value": 0}, "group": "control_change"}, {"time": 2817, "annotation": {"number": 64, "value": 127}, "group": "control_change"}, {"time": 2838, "annotation": {"number": 64, "value": 0}, "group": "control_change"}, {"time": 2841, "annotation": {"number": 64, "value": 127}, "group": "control_change"}, {"time": 2867, "annotation": {"number": 64, "value": 127}, "group": "control_change"}, {"time": 2887, "annotation": {"number": 64, "value": 0}, "group": "control_change"}, {"time": 2890, "annotation": {"number": 64, "value": 127}, "group": "control_change"}, {"time": 2911, "annotation": {"number": 64, "value": 0}, "group": "control_change"}, {"time": 2915, "annotation": {"number": 64, "value": 127}, "group": "control_change"}, {"time": 2934, "annotation": {"number": 64, "value": 0}, "group": "control_change"}, {"time": 2938, "annotation": {"number": 64, "value": 127}, "group": "control_change"}, {"time": 2960, "annotation": {"number": 64, "value": 0}, "group": "control_change"}, {"time": 2964, "annotation": {"number": 64, "value": 127}, "group": "control_change"}, {"time": 2982, "annotation": {"number": 64, "value": 0}, "group": "control_change"}, {"time": 2986, "annotation": {"number": 64, "value": 127}, "group": "control_change"}, {"time": 3008, "annotation": {"number": 64, "value": 0}, "group": "control_change"}, {"time": 3012, "annotation": {"number": 64, "value": 127}, "group": "control_change"}, {"time": 3033, "annotation": {"number": 64, "value": 0}, "group": "control_change"}, {"time": 3034, "annotation": {"number": 64, "value": 127}, "group": "control_change"}, {"time": 3053, "annotation": {"number": 64, "value": 0}, "group": "control_change"}]}]}