{"metadata": {"schema_version": "0.2", "title": "None", "source_filename": "132.mid", "source_format": "midi"}, "resolution": 12, "tempos": [{"time": 0, "qpm": 68.50011017101052}, {"time": 348, "qpm": 67.00002903334591}, {"time": 396, "qpm": 68.00014960032912}, {"time": 660, "qpm": 69.00009660013524}, {"time": 756, "qpm": 68.00014960032912}, {"time": 1099, "qpm": 69.00009660013524}, {"time": 1140, "qpm": 68.00014960032912}, {"time": 1399, "qpm": 69.00009660013524}, {"time": 1426, "qpm": 68.00014960032912}, {"time": 1603, "qpm": 69.00009660013524}, {"time": 1659, "qpm": 68.00014960032912}, {"time": 1908, "qpm": 68.50011017101052}, {"time": 2076, "qpm": 68.00014960032912}, {"time": 2520, "qpm": 68.39999863200002}, {"time": 2791, "qpm": 68.00014960032912}], "time_signatures": [{"time": 0, "numerator": 1, "denominator": 4}], "tracks": [{"program": 0, "is_drum": false, "name": "MELODY", "notes": [{"time": 371, "pitch": 62, "duration": 9, "velocity": 102}, {"time": 380, "pitch": 60, "duration": 9, "velocity": 92}, {"time": 389, "pitch": 55, "duration": 24, "velocity": 94}, {"time": 413, "pitch": 52, "duration": 3, "velocity": 105}, {"time": 416, "pitch": 55, "duration": 3, "velocity": 100}, {"time": 419, "pitch": 59, "duration": 9, "velocity": 100}, {"time": 428, "pitch": 59, "duration": 9, "velocity": 102}, {"time": 437, "pitch": 60, "duration": 6, "velocity": 89}, {"time": 443, "pitch": 57, "duration": 21, "velocity": 94}, {"time": 464, "pitch": 57, "duration": 3, "velocity": 100}, {"time": 467, "pitch": 64, "duration": 6, "velocity": 97}, {"time": 473, "pitch": 62, "duration": 6, "velocity": 97}, {"time": 479, "pitch": 60, "duration": 6, "velocity": 102}, {"time": 485, "pitch": 57, "duration": 24, "velocity": 108}, {"time": 509, "pitch": 57, "duration": 3, "velocity": 105}, {"time": 512, "pitch": 59, "duration": 3, "velocity": 94}, {"time": 515, "pitch": 60, "duration": 12, "velocity": 92}, {"time": 527, "pitch": 60, "duration": 12, "velocity": 97}, {"time": 539, "pitch": 62, "duration": 24, "velocity": 89}, {"time": 563, "pitch": 62, "duration": 9, "velocity": 105}, {"time": 572, "pitch": 60, "duration": 9, "velocity": 108}, {"time": 581, "pitch": 55, "duration": 24, "velocity": 105}, {"time": 605, "pitch": 52, "duration": 3, "velocity": 111}, {"time": 608, "pitch": 55, "duration": 3, "velocity": 100}, {"time": 611, "pitch": 59, "duration": 9, "velocity": 102}, {"time": 620, "pitch": 59, "duration": 9, "velocity": 105}, {"time": 629, "pitch": 60, "duration": 6, "velocity": 94}, {"time": 635, "pitch": 57, "duration": 24, "velocity": 89}, {"time": 659, "pitch": 64, "duration": 9, "velocity": 80}, {"time": 668, "pitch": 62, "duration": 9, "velocity": 94}, {"time": 677, "pitch": 57, "duration": 24, "velocity": 111}, {"time": 701, "pitch": 57, "duration": 3, "velocity": 105}, {"time": 704, "pitch": 59, "duration": 3, "velocity": 89}, {"time": 707, "pitch": 60, "duration": 6, "velocity": 97}, {"time": 713, "pitch": 60, "duration": 3, "velocity": 84}, {"time": 716, "pitch": 60, "duration": 9, "velocity": 105}, {"time": 725, "pitch": 62, "duration": 6, "velocity": 108}, {"time": 731, "pitch": 62, "duration": 30, "velocity": 82}, {"time": 761, "pitch": 64, "duration": 6, "velocity": 102}, {"time": 767, "pitch": 64, "duration": 9, "velocity": 102}, {"time": 776, "pitch": 64, "duration": 3, "velocity": 94}, {"time": 779, "pitch": 65, "duration": 6, "velocity": 87}, {"time": 785, "pitch": 64, "duration": 6, "velocity": 105}, {"time": 791, "pitch": 64, "duration": 6, "velocity": 97}, {"time": 797, "pitch": 62, "duration": 3, "velocity": 100}, {"time": 800, "pitch": 62, "duration": 3, "velocity": 100}, {"time": 803, "pitch": 62, "duration": 6, "velocity": 108}, {"time": 809, "pitch": 60, "duration": 12, "velocity": 100}, {"time": 821, "pitch": 59, "duration": 6, "velocity": 105}, {"time": 827, "pitch": 60, "duration": 18, "velocity": 97}, {"time": 845, "pitch": 62, "duration": 3, "velocity": 114}, {"time": 848, "pitch": 64, "duration": 3, "velocity": 80}, {"time": 851, "pitch": 65, "duration": 6, "velocity": 102}, {"time": 857, "pitch": 64, "duration": 6, "velocity": 102}, {"time": 863, "pitch": 60, "duration": 3, "velocity": 108}, {"time": 866, "pitch": 57, "duration": 9, "velocity": 111}, {"time": 875, "pitch": 65, "duration": 6, "velocity": 111}, {"time": 881, "pitch": 64, "duration": 6, "velocity": 108}, {"time": 887, "pitch": 65, "duration": 6, "velocity": 92}, {"time": 893, "pitch": 64, "duration": 6, "velocity": 100}, {"time": 899, "pitch": 60, "duration": 24, "velocity": 111}, {"time": 923, "pitch": 62, "duration": 30, "velocity": 102}, {"time": 953, "pitch": 64, "duration": 6, "velocity": 108}, {"time": 959, "pitch": 64, "duration": 6, "velocity": 105}, {"time": 965, "pitch": 64, "duration": 6, "velocity": 105}, {"time": 971, "pitch": 65, "duration": 6, "velocity": 108}, {"time": 977, "pitch": 64, "duration": 6, "velocity": 105}, {"time": 983, "pitch": 64, "duration": 18, "velocity": 100}, {"time": 1001, "pitch": 64, "duration": 6, "velocity": 114}, {"time": 1007, "pitch": 64, "duration": 6, "velocity": 114}, {"time": 1013, "pitch": 69, "duration": 6, "velocity": 117}, {"time": 1019, "pitch": 64, "duration": 7, "velocity": 117}, {"time": 1025, "pitch": 62, "duration": 3, "velocity": 87}, {"time": 1028, "pitch": 62, "duration": 9, "velocity": 100}, {"time": 1037, "pitch": 62, "duration": 3, "velocity": 108}, {"time": 1040, "pitch": 64, "duration": 3, "velocity": 114}, {"time": 1043, "pitch": 65, "duration": 6, "velocity": 111}, {"time": 1049, "pitch": 64, "duration": 6, "velocity": 111}, {"time": 1055, "pitch": 60, "duration": 3, "velocity": 108}, {"time": 1058, "pitch": 57, "duration": 9, "velocity": 120}, {"time": 1067, "pitch": 65, "duration": 6, "velocity": 117}, {"time": 1073, "pitch": 64, "duration": 6, "velocity": 108}, {"time": 1079, "pitch": 65, "duration": 6, "velocity": 111}, {"time": 1085, "pitch": 67, "duration": 36, "velocity": 108}, {"time": 1121, "pitch": 55, "duration": 6, "velocity": 120}, {"time": 1127, "pitch": 60, "duration": 6, "velocity": 114}, {"time": 1133, "pitch": 67, "duration": 6, "velocity": 111}, {"time": 1139, "pitch": 67, "duration": 30, "velocity": 114}, {"time": 1169, "pitch": 55, "duration": 6, "velocity": 117}, {"time": 1175, "pitch": 60, "duration": 6, "velocity": 114}, {"time": 1181, "pitch": 67, "duration": 6, "velocity": 114}, {"time": 1187, "pitch": 67, "duration": 12, "velocity": 111}, {"time": 1199, "pitch": 65, "duration": 6, "velocity": 114}, {"time": 1205, "pitch": 64, "duration": 3, "velocity": 111}, {"time": 1208, "pitch": 65, "duration": 12, "velocity": 100}, {"time": 1220, "pitch": 57, "duration": 3, "velocity": 108}, {"time": 1223, "pitch": 60, "duration": 6, "velocity": 117}, {"time": 1229, "pitch": 69, "duration": 6, "velocity": 114}, {"time": 1235, "pitch": 69, "duration": 30, "velocity": 111}, {"time": 1265, "pitch": 65, "duration": 6, "velocity": 108}, {"time": 1271, "pitch": 67, "duration": 6, "velocity": 111}, {"time": 1277, "pitch": 69, "duration": 6, "velocity": 108}, {"time": 1283, "pitch": 69, "duration": 9, "velocity": 111}, {"time": 1292, "pitch": 67, "duration": 9, "velocity": 108}, {"time": 1301, "pitch": 65, "duration": 12, "velocity": 100}, {"time": 1313, "pitch": 55, "duration": 6, "velocity": 120}, {"time": 1319, "pitch": 60, "duration": 6, "velocity": 114}, {"time": 1325, "pitch": 67, "duration": 6, "velocity": 111}, {"time": 1331, "pitch": 67, "duration": 30, "velocity": 114}, {"time": 1361, "pitch": 55, "duration": 6, "velocity": 117}, {"time": 1367, "pitch": 60, "duration": 6, "velocity": 114}, {"time": 1373, "pitch": 67, "duration": 6, "velocity": 114}, {"time": 1379, "pitch": 67, "duration": 6, "velocity": 111}, {"time": 1385, "pitch": 65, "duration": 6, "velocity": 114}, {"time": 1391, "pitch": 65, "duration": 6, "velocity": 114}, {"time": 1397, "pitch": 64, "duration": 3, "velocity": 111}, {"time": 1400, "pitch": 65, "duration": 21, "velocity": 100}, {"time": 1421, "pitch": 62, "duration": 3, "velocity": 111}, {"time": 1424, "pitch": 64, "duration": 3, "velocity": 108}, {"time": 1427, "pitch": 65, "duration": 9, "velocity": 105}, {"time": 1436, "pitch": 64, "duration": 9, "velocity": 111}, {"time": 1445, "pitch": 57, "duration": 18, "velocity": 117}, {"time": 1463, "pitch": 59, "duration": 12, "velocity": 111}, {"time": 1475, "pitch": 59, "duration": 6, "velocity": 117}, {"time": 1481, "pitch": 60, "duration": 234, "velocity": 108}, {"time": 1715, "pitch": 62, "duration": 9, "velocity": 102}, {"time": 1724, "pitch": 60, "duration": 9, "velocity": 92}, {"time": 1733, "pitch": 55, "duration": 24, "velocity": 94}, {"time": 1757, "pitch": 52, "duration": 3, "velocity": 105}, {"time": 1760, "pitch": 55, "duration": 3, "velocity": 100}, {"time": 1763, "pitch": 59, "duration": 9, "velocity": 100}, {"time": 1772, "pitch": 59, "duration": 9, "velocity": 102}, {"time": 1781, "pitch": 60, "duration": 6, "velocity": 89}, {"time": 1787, "pitch": 57, "duration": 21, "velocity": 94}, {"time": 1808, "pitch": 57, "duration": 3, "velocity": 100}, {"time": 1811, "pitch": 64, "duration": 6, "velocity": 97}, {"time": 1817, "pitch": 62, "duration": 6, "velocity": 97}, {"time": 1823, "pitch": 60, "duration": 6, "velocity": 102}, {"time": 1829, "pitch": 57, "duration": 24, "velocity": 108}, {"time": 1853, "pitch": 57, "duration": 3, "velocity": 105}, {"time": 1856, "pitch": 59, "duration": 3, "velocity": 94}, {"time": 1859, "pitch": 60, "duration": 12, "velocity": 92}, {"time": 1871, "pitch": 60, "duration": 12, "velocity": 97}, {"time": 1883, "pitch": 62, "duration": 24, "velocity": 89}, {"time": 1907, "pitch": 62, "duration": 9, "velocity": 105}, {"time": 1916, "pitch": 60, "duration": 9, "velocity": 108}, {"time": 1925, "pitch": 55, "duration": 24, "velocity": 105}, {"time": 1949, "pitch": 52, "duration": 3, "velocity": 111}, {"time": 1952, "pitch": 55, "duration": 3, "velocity": 100}, {"time": 1955, "pitch": 59, "duration": 9, "velocity": 102}, {"time": 1964, "pitch": 59, "duration": 9, "velocity": 105}, {"time": 1973, "pitch": 60, "duration": 6, "velocity": 94}, {"time": 1979, "pitch": 57, "duration": 24, "velocity": 89}, {"time": 2003, "pitch": 64, "duration": 9, "velocity": 80}, {"time": 2012, "pitch": 62, "duration": 9, "velocity": 94}, {"time": 2021, "pitch": 57, "duration": 24, "velocity": 111}, {"time": 2045, "pitch": 57, "duration": 3, "velocity": 105}, {"time": 2048, "pitch": 59, "duration": 3, "velocity": 89}, {"time": 2051, "pitch": 60, "duration": 6, "velocity": 97}, {"time": 2057, "pitch": 60, "duration": 3, "velocity": 84}, {"time": 2060, "pitch": 60, "duration": 9, "velocity": 105}, {"time": 2069, "pitch": 62, "duration": 6, "velocity": 108}, {"time": 2075, "pitch": 62, "duration": 30, "velocity": 82}, {"time": 2105, "pitch": 64, "duration": 6, "velocity": 102}, {"time": 2111, "pitch": 64, "duration": 9, "velocity": 102}, {"time": 2120, "pitch": 64, "duration": 3, "velocity": 94}, {"time": 2123, "pitch": 65, "duration": 6, "velocity": 87}, {"time": 2129, "pitch": 64, "duration": 6, "velocity": 105}, {"time": 2135, "pitch": 64, "duration": 6, "velocity": 97}, {"time": 2141, "pitch": 62, "duration": 3, "velocity": 100}, {"time": 2144, "pitch": 62, "duration": 3, "velocity": 100}, {"time": 2147, "pitch": 62, "duration": 6, "velocity": 108}, {"time": 2153, "pitch": 60, "duration": 12, "velocity": 100}, {"time": 2165, "pitch": 59, "duration": 6, "velocity": 105}, {"time": 2171, "pitch": 60, "duration": 18, "velocity": 97}, {"time": 2189, "pitch": 62, "duration": 3, "velocity": 114}, {"time": 2192, "pitch": 64, "duration": 3, "velocity": 80}, {"time": 2195, "pitch": 65, "duration": 6, "velocity": 102}, {"time": 2201, "pitch": 64, "duration": 6, "velocity": 102}, {"time": 2207, "pitch": 60, "duration": 3, "velocity": 108}, {"time": 2210, "pitch": 57, "duration": 9, "velocity": 111}, {"time": 2219, "pitch": 65, "duration": 6, "velocity": 111}, {"time": 2225, "pitch": 64, "duration": 6, "velocity": 108}, {"time": 2231, "pitch": 65, "duration": 6, "velocity": 92}, {"time": 2237, "pitch": 64, "duration": 6, "velocity": 100}, {"time": 2243, "pitch": 60, "duration": 24, "velocity": 111}, {"time": 2267, "pitch": 62, "duration": 30, "velocity": 102}, {"time": 2297, "pitch": 64, "duration": 6, "velocity": 108}, {"time": 2303, "pitch": 64, "duration": 6, "velocity": 105}, {"time": 2309, "pitch": 64, "duration": 6, "velocity": 105}, {"time": 2315, "pitch": 65, "duration": 6, "velocity": 108}, {"time": 2321, "pitch": 64, "duration": 6, "velocity": 105}, {"time": 2327, "pitch": 64, "duration": 18, "velocity": 100}, {"time": 2345, "pitch": 64, "duration": 6, "velocity": 114}, {"time": 2351, "pitch": 64, "duration": 6, "velocity": 114}, {"time": 2357, "pitch": 69, "duration": 6, "velocity": 117}, {"time": 2363, "pitch": 64, "duration": 7, "velocity": 117}, {"time": 2369, "pitch": 62, "duration": 3, "velocity": 87}, {"time": 2372, "pitch": 62, "duration": 9, "velocity": 100}, {"time": 2381, "pitch": 62, "duration": 3, "velocity": 108}, {"time": 2384, "pitch": 64, "duration": 3, "velocity": 114}, {"time": 2387, "pitch": 65, "duration": 6, "velocity": 111}, {"time": 2393, "pitch": 64, "duration": 6, "velocity": 111}, {"time": 2399, "pitch": 60, "duration": 3, "velocity": 108}, {"time": 2402, "pitch": 57, "duration": 9, "velocity": 120}, {"time": 2411, "pitch": 65, "duration": 6, "velocity": 117}, {"time": 2417, "pitch": 64, "duration": 6, "velocity": 108}, {"time": 2423, "pitch": 65, "duration": 6, "velocity": 111}, {"time": 2429, "pitch": 67, "duration": 36, "velocity": 108}, {"time": 2465, "pitch": 55, "duration": 6, "velocity": 120}, {"time": 2471, "pitch": 60, "duration": 6, "velocity": 114}, {"time": 2477, "pitch": 67, "duration": 6, "velocity": 111}, {"time": 2483, "pitch": 67, "duration": 30, "velocity": 114}, {"time": 2513, "pitch": 55, "duration": 6, "velocity": 117}, {"time": 2519, "pitch": 60, "duration": 6, "velocity": 114}, {"time": 2525, "pitch": 67, "duration": 6, "velocity": 114}, {"time": 2531, "pitch": 67, "duration": 12, "velocity": 111}, {"time": 2543, "pitch": 65, "duration": 6, "velocity": 114}, {"time": 2549, "pitch": 64, "duration": 3, "velocity": 111}, {"time": 2552, "pitch": 65, "duration": 12, "velocity": 100}, {"time": 2564, "pitch": 57, "duration": 3, "velocity": 108}, {"time": 2567, "pitch": 60, "duration": 6, "velocity": 117}, {"time": 2573, "pitch": 69, "duration": 6, "velocity": 114}, {"time": 2579, "pitch": 69, "duration": 30, "velocity": 111}, {"time": 2609, "pitch": 65, "duration": 6, "velocity": 108}, {"time": 2615, "pitch": 67, "duration": 6, "velocity": 111}, {"time": 2621, "pitch": 69, "duration": 6, "velocity": 108}, {"time": 2627, "pitch": 69, "duration": 9, "velocity": 111}, {"time": 2636, "pitch": 67, "duration": 9, "velocity": 108}, {"time": 2645, "pitch": 65, "duration": 12, "velocity": 100}, {"time": 2657, "pitch": 55, "duration": 6, "velocity": 120}, {"time": 2663, "pitch": 60, "duration": 6, "velocity": 114}, {"time": 2669, "pitch": 67, "duration": 6, "velocity": 111}, {"time": 2675, "pitch": 67, "duration": 30, "velocity": 114}, {"time": 2705, "pitch": 55, "duration": 6, "velocity": 117}, {"time": 2711, "pitch": 60, "duration": 6, "velocity": 114}, {"time": 2717, "pitch": 67, "duration": 6, "velocity": 114}, {"time": 2723, "pitch": 67, "duration": 6, "velocity": 111}, {"time": 2729, "pitch": 65, "duration": 6, "velocity": 114}, {"time": 2735, "pitch": 65, "duration": 6, "velocity": 114}, {"time": 2741, "pitch": 64, "duration": 3, "velocity": 111}, {"time": 2744, "pitch": 65, "duration": 21, "velocity": 100}, {"time": 2765, "pitch": 62, "duration": 3, "velocity": 111}, {"time": 2768, "pitch": 64, "duration": 3, "velocity": 108}, {"time": 2771, "pitch": 65, "duration": 9, "velocity": 105}, {"time": 2780, "pitch": 64, "duration": 9, "velocity": 111}, {"time": 2789, "pitch": 57, "duration": 18, "velocity": 117}, {"time": 2807, "pitch": 59, "duration": 12, "velocity": 111}, {"time": 2819, "pitch": 59, "duration": 6, "velocity": 117}, {"time": 2825, "pitch": 60, "duration": 24, "velocity": 108}, {"time": 2849, "pitch": 55, "duration": 6, "velocity": 120}, {"time": 2855, "pitch": 60, "duration": 6, "velocity": 114}, {"time": 2861, "pitch": 67, "duration": 6, "velocity": 111}, {"time": 2867, "pitch": 67, "duration": 30, "velocity": 114}, {"time": 2897, "pitch": 55, "duration": 6, "velocity": 117}, {"time": 2903, "pitch": 60, "duration": 6, "velocity": 114}, {"time": 2909, "pitch": 67, "duration": 6, "velocity": 114}, {"time": 2915, "pitch": 67, "duration": 12, "velocity": 111}, {"time": 2927, "pitch": 65, "duration": 6, "velocity": 114}, {"time": 2933, "pitch": 64, "duration": 3, "velocity": 111}, {"time": 2936, "pitch": 65, "duration": 12, "velocity": 100}, {"time": 2948, "pitch": 57, "duration": 3, "velocity": 108}, {"time": 2951, "pitch": 60, "duration": 6, "velocity": 117}, {"time": 2957, "pitch": 69, "duration": 6, "velocity": 114}, {"time": 2963, "pitch": 69, "duration": 30, "velocity": 111}, {"time": 2993, "pitch": 65, "duration": 6, "velocity": 108}, {"time": 2999, "pitch": 67, "duration": 6, "velocity": 111}, {"time": 3005, "pitch": 69, "duration": 6, "velocity": 108}, {"time": 3011, "pitch": 69, "duration": 9, "velocity": 111}, {"time": 3020, "pitch": 67, "duration": 9, "velocity": 108}, {"time": 3029, "pitch": 65, "duration": 12, "velocity": 100}, {"time": 3041, "pitch": 55, "duration": 6, "velocity": 120}, {"time": 3047, "pitch": 60, "duration": 6, "velocity": 114}, {"time": 3053, "pitch": 67, "duration": 6, "velocity": 111}, {"time": 3059, "pitch": 67, "duration": 30, "velocity": 114}, {"time": 3089, "pitch": 55, "duration": 6, "velocity": 117}, {"time": 3095, "pitch": 60, "duration": 6, "velocity": 114}, {"time": 3101, "pitch": 67, "duration": 6, "velocity": 114}, {"time": 3107, "pitch": 67, "duration": 6, "velocity": 111}, {"time": 3113, "pitch": 65, "duration": 6, "velocity": 114}, {"time": 3119, "pitch": 65, "duration": 6, "velocity": 114}, {"time": 3125, "pitch": 64, "duration": 3, "velocity": 111}, {"time": 3128, "pitch": 65, "duration": 21, "velocity": 100}, {"time": 3149, "pitch": 62, "duration": 3, "velocity": 111}, {"time": 3152, "pitch": 64, "duration": 3, "velocity": 108}, {"time": 3155, "pitch": 65, "duration": 9, "velocity": 105}, {"time": 3164, "pitch": 64, "duration": 9, "velocity": 111}, {"time": 3173, "pitch": 57, "duration": 18, "velocity": 117}, {"time": 3191, "pitch": 59, "duration": 12, "velocity": 111}, {"time": 3203, "pitch": 59, "duration": 6, "velocity": 117}, {"time": 3209, "pitch": 60, "duration": 43, "velocity": 108}]}, {"program": 0, "is_drum": false, "name": "BRIDGE", "notes": [{"time": 37, "pitch": 67, "duration": 11, "velocity": 108}, {"time": 47, "pitch": 72, "duration": 12, "velocity": 111}, {"time": 58, "pitch": 79, "duration": 10, "velocity": 102}, {"time": 68, "pitch": 79, "duration": 7, "velocity": 114}, {"time": 74, "pitch": 67, "duration": 6, "velocity": 114}, {"time": 80, "pitch": 72, "duration": 26, "velocity": 108}, {"time": 106, "pitch": 67, "duration": 6, "velocity": 111}, {"time": 112, "pitch": 72, "duration": 5, "velocity": 127}, {"time": 117, "pitch": 79, "duration": 6, "velocity": 108}, {"time": 123, "pitch": 79, "duration": 10, "velocity": 117}, {"time": 132, "pitch": 72, "duration": 5, "velocity": 92}, {"time": 137, "pitch": 72, "duration": 37, "velocity": 114}, {"time": 171, "pitch": 62, "duration": 3, "velocity": 117}, {"time": 174, "pitch": 64, "duration": 3, "velocity": 108}, {"time": 177, "pitch": 65, "duration": 24, "velocity": 111}, {"time": 201, "pitch": 67, "duration": 25, "velocity": 108}, {"time": 225, "pitch": 55, "duration": 2, "velocity": 89}, {"time": 227, "pitch": 57, "duration": 35, "velocity": 105}, {"time": 262, "pitch": 65, "duration": 11, "velocity": 78}, {"time": 262, "pitch": 60, "duration": 10, "velocity": 71}, {"time": 272, "pitch": 55, "duration": 20, "velocity": 78}, {"time": 274, "pitch": 60, "duration": 18, "velocity": 67}, {"time": 275, "pitch": 64, "duration": 18, "velocity": 102}, {"time": 293, "pitch": 62, "duration": 20, "velocity": 89}, {"time": 293, "pitch": 59, "duration": 24, "velocity": 73}, {"time": 317, "pitch": 59, "duration": 3, "velocity": 87}, {"time": 317, "pitch": 62, "duration": 3, "velocity": 92}, {"time": 320, "pitch": 60, "duration": 3, "velocity": 92}, {"time": 320, "pitch": 64, "duration": 3, "velocity": 92}, {"time": 323, "pitch": 62, "duration": 17, "velocity": 71}, {"time": 324, "pitch": 65, "duration": 17, "velocity": 100}, {"time": 341, "pitch": 60, "duration": 23, "velocity": 80}, {"time": 341, "pitch": 64, "duration": 23, "velocity": 76}, {"time": 545, "pitch": 55, "duration": 6, "velocity": 94}, {"time": 551, "pitch": 53, "duration": 12, "velocity": 89}, {"time": 563, "pitch": 52, "duration": 22, "velocity": 78}, {"time": 635, "pitch": 69, "duration": 6, "velocity": 105}, {"time": 641, "pitch": 67, "duration": 12, "velocity": 114}, {"time": 653, "pitch": 64, "duration": 6, "velocity": 117}, {"time": 659, "pitch": 62, "duration": 19, "velocity": 108}, {"time": 731, "pitch": 74, "duration": 10, "velocity": 105}, {"time": 743, "pitch": 71, "duration": 11, "velocity": 108}, {"time": 755, "pitch": 68, "duration": 13, "velocity": 102}, {"time": 785, "pitch": 69, "duration": 3, "velocity": 94}, {"time": 788, "pitch": 71, "duration": 3, "velocity": 102}, {"time": 791, "pitch": 72, "duration": 3, "velocity": 100}, {"time": 794, "pitch": 71, "duration": 3, "velocity": 111}, {"time": 797, "pitch": 72, "duration": 3, "velocity": 100}, {"time": 800, "pitch": 74, "duration": 3, "velocity": 102}, {"time": 803, "pitch": 76, "duration": 42, "velocity": 102}, {"time": 845, "pitch": 69, "duration": 3, "velocity": 94}, {"time": 848, "pitch": 71, "duration": 3, "velocity": 102}, {"time": 851, "pitch": 72, "duration": 6, "velocity": 111}, {"time": 857, "pitch": 71, "duration": 6, "velocity": 80}, {"time": 863, "pitch": 72, "duration": 24, "velocity": 92}, {"time": 887, "pitch": 69, "duration": 6, "velocity": 105}, {"time": 893, "pitch": 67, "duration": 6, "velocity": 102}, {"time": 899, "pitch": 67, "duration": 24, "velocity": 108}, {"time": 923, "pitch": 62, "duration": 11, "velocity": 92}, {"time": 923, "pitch": 67, "duration": 12, "velocity": 92}, {"time": 932, "pitch": 57, "duration": 3, "velocity": 27}, {"time": 935, "pitch": 59, "duration": 3, "velocity": 102}, {"time": 938, "pitch": 57, "duration": 3, "velocity": 102}, {"time": 941, "pitch": 59, "duration": 6, "velocity": 111}, {"time": 947, "pitch": 64, "duration": 36, "velocity": 82}, {"time": 947, "pitch": 68, "duration": 36, "velocity": 57}, {"time": 983, "pitch": 64, "duration": 12, "velocity": 89}, {"time": 983, "pitch": 71, "duration": 12, "velocity": 89}, {"time": 995, "pitch": 69, "duration": 36, "velocity": 82}, {"time": 995, "pitch": 72, "duration": 36, "velocity": 92}, {"time": 1031, "pitch": 72, "duration": 3, "velocity": 114}, {"time": 1034, "pitch": 71, "duration": 3, "velocity": 105}, {"time": 1037, "pitch": 72, "duration": 3, "velocity": 111}, {"time": 1040, "pitch": 76, "duration": 3, "velocity": 89}, {"time": 1043, "pitch": 77, "duration": 36, "velocity": 105}, {"time": 1079, "pitch": 77, "duration": 12, "velocity": 114}, {"time": 1091, "pitch": 74, "duration": 48, "velocity": 87}, {"time": 1091, "pitch": 79, "duration": 48, "velocity": 117}, {"time": 1139, "pitch": 71, "duration": 30, "velocity": 87}, {"time": 1139, "pitch": 76, "duration": 30, "velocity": 89}, {"time": 1169, "pitch": 74, "duration": 6, "velocity": 78}, {"time": 1175, "pitch": 72, "duration": 6, "velocity": 82}, {"time": 1181, "pitch": 71, "duration": 6, "velocity": 97}, {"time": 1187, "pitch": 69, "duration": 30, "velocity": 92}, {"time": 1187, "pitch": 72, "duration": 30, "velocity": 92}, {"time": 1217, "pitch": 77, "duration": 6, "velocity": 102}, {"time": 1223, "pitch": 76, "duration": 6, "velocity": 114}, {"time": 1229, "pitch": 77, "duration": 6, "velocity": 87}, {"time": 1235, "pitch": 74, "duration": 36, "velocity": 102}, {"time": 1271, "pitch": 74, "duration": 12, "velocity": 105}, {"time": 1283, "pitch": 67, "duration": 18, "velocity": 78}, {"time": 1283, "pitch": 76, "duration": 18, "velocity": 100}, {"time": 1301, "pitch": 74, "duration": 6, "velocity": 67}, {"time": 1307, "pitch": 67, "duration": 12, "velocity": 78}, {"time": 1307, "pitch": 76, "duration": 12, "velocity": 92}, {"time": 1319, "pitch": 74, "duration": 12, "velocity": 97}, {"time": 1331, "pitch": 72, "duration": 36, "velocity": 84}, {"time": 1331, "pitch": 76, "duration": 36, "velocity": 84}, {"time": 1367, "pitch": 67, "duration": 8, "velocity": 102}, {"time": 1373, "pitch": 79, "duration": 6, "velocity": 100}, {"time": 1379, "pitch": 79, "duration": 1, "velocity": 108}, {"time": 1403, "pitch": 79, "duration": 6, "velocity": 111}, {"time": 1409, "pitch": 77, "duration": 6, "velocity": 111}, {"time": 1415, "pitch": 76, "duration": 6, "velocity": 108}, {"time": 1421, "pitch": 77, "duration": 6, "velocity": 94}, {"time": 1427, "pitch": 74, "duration": 24, "velocity": 100}, {"time": 1451, "pitch": 81, "duration": 12, "velocity": 105}, {"time": 1463, "pitch": 79, "duration": 12, "velocity": 102}, {"time": 1475, "pitch": 77, "duration": 6, "velocity": 94}, {"time": 1481, "pitch": 76, "duration": 6, "velocity": 111}, {"time": 1487, "pitch": 74, "duration": 6, "velocity": 89}, {"time": 1493, "pitch": 76, "duration": 24, "velocity": 114}, {"time": 1517, "pitch": 71, "duration": 3, "velocity": 108}, {"time": 1520, "pitch": 72, "duration": 3, "velocity": 100}, {"time": 1523, "pitch": 67, "duration": 40, "velocity": 100}, {"time": 1523, "pitch": 79, "duration": 41, "velocity": 94}, {"time": 1559, "pitch": 64, "duration": 3, "velocity": 111}, {"time": 1562, "pitch": 67, "duration": 1, "velocity": 102}, {"time": 1565, "pitch": 71, "duration": 4, "velocity": 105}, {"time": 1568, "pitch": 72, "duration": 3, "velocity": 94}, {"time": 1571, "pitch": 79, "duration": 21, "velocity": 117}, {"time": 1589, "pitch": 72, "duration": 12, "velocity": 117}, {"time": 1601, "pitch": 71, "duration": 3, "velocity": 108}, {"time": 1604, "pitch": 72, "duration": 9, "velocity": 82}, {"time": 1613, "pitch": 74, "duration": 3, "velocity": 102}, {"time": 1616, "pitch": 76, "duration": 3, "velocity": 105}, {"time": 1619, "pitch": 65, "duration": 24, "velocity": 73}, {"time": 1619, "pitch": 69, "duration": 24, "velocity": 92}, {"time": 1619, "pitch": 77, "duration": 24, "velocity": 108}, {"time": 1643, "pitch": 67, "duration": 24, "velocity": 73}, {"time": 1643, "pitch": 71, "duration": 12, "velocity": 87}, {"time": 1643, "pitch": 79, "duration": 12, "velocity": 111}, {"time": 1655, "pitch": 71, "duration": 6, "velocity": 111}, {"time": 1661, "pitch": 72, "duration": 6, "velocity": 102}, {"time": 1667, "pitch": 60, "duration": 24, "velocity": 100}, {"time": 1667, "pitch": 69, "duration": 24, "velocity": 108}, {"time": 1691, "pitch": 59, "duration": 25, "velocity": 80}, {"time": 1691, "pitch": 67, "duration": 25, "velocity": 102}, {"time": 1889, "pitch": 55, "duration": 6, "velocity": 94}, {"time": 1895, "pitch": 53, "duration": 12, "velocity": 89}, {"time": 1907, "pitch": 52, "duration": 18, "velocity": 78}, {"time": 1925, "pitch": 64, "duration": 3, "velocity": 82}, {"time": 1928, "pitch": 67, "duration": 3, "velocity": 80}, {"time": 1931, "pitch": 72, "duration": 6, "velocity": 100}, {"time": 1937, "pitch": 71, "duration": 3, "velocity": 69}, {"time": 1940, "pitch": 72, "duration": 3, "velocity": 87}, {"time": 1943, "pitch": 67, "duration": 36, "velocity": 82}, {"time": 1979, "pitch": 69, "duration": 6, "velocity": 105}, {"time": 1985, "pitch": 67, "duration": 12, "velocity": 114}, {"time": 1997, "pitch": 64, "duration": 6, "velocity": 117}, {"time": 2003, "pitch": 62, "duration": 19, "velocity": 108}, {"time": 2075, "pitch": 74, "duration": 12, "velocity": 105}, {"time": 2087, "pitch": 71, "duration": 12, "velocity": 108}, {"time": 2099, "pitch": 68, "duration": 30, "velocity": 102}, {"time": 2129, "pitch": 69, "duration": 3, "velocity": 94}, {"time": 2132, "pitch": 71, "duration": 3, "velocity": 102}, {"time": 2135, "pitch": 72, "duration": 3, "velocity": 100}, {"time": 2138, "pitch": 71, "duration": 3, "velocity": 111}, {"time": 2141, "pitch": 72, "duration": 3, "velocity": 100}, {"time": 2144, "pitch": 74, "duration": 3, "velocity": 102}, {"time": 2147, "pitch": 76, "duration": 18, "velocity": 102}, {"time": 2189, "pitch": 69, "duration": 1, "velocity": 94}, {"time": 2192, "pitch": 71, "duration": 1, "velocity": 102}, {"time": 2195, "pitch": 72, "duration": 6, "velocity": 111}, {"time": 2201, "pitch": 71, "duration": 6, "velocity": 80}, {"time": 2207, "pitch": 72, "duration": 24, "velocity": 92}, {"time": 2231, "pitch": 69, "duration": 6, "velocity": 105}, {"time": 2237, "pitch": 67, "duration": 6, "velocity": 102}, {"time": 2243, "pitch": 67, "duration": 24, "velocity": 108}, {"time": 2267, "pitch": 62, "duration": 11, "velocity": 92}, {"time": 2267, "pitch": 67, "duration": 12, "velocity": 92}, {"time": 2276, "pitch": 57, "duration": 3, "velocity": 27}, {"time": 2279, "pitch": 59, "duration": 3, "velocity": 102}, {"time": 2282, "pitch": 57, "duration": 3, "velocity": 102}, {"time": 2285, "pitch": 59, "duration": 6, "velocity": 111}, {"time": 2291, "pitch": 64, "duration": 36, "velocity": 82}, {"time": 2291, "pitch": 68, "duration": 36, "velocity": 57}, {"time": 2327, "pitch": 64, "duration": 12, "velocity": 89}, {"time": 2327, "pitch": 71, "duration": 12, "velocity": 89}, {"time": 2339, "pitch": 69, "duration": 36, "velocity": 82}, {"time": 2339, "pitch": 72, "duration": 36, "velocity": 92}, {"time": 2375, "pitch": 72, "duration": 3, "velocity": 114}, {"time": 2378, "pitch": 71, "duration": 3, "velocity": 105}, {"time": 2381, "pitch": 72, "duration": 3, "velocity": 111}, {"time": 2384, "pitch": 76, "duration": 3, "velocity": 89}, {"time": 2387, "pitch": 77, "duration": 36, "velocity": 105}, {"time": 2423, "pitch": 77, "duration": 12, "velocity": 114}, {"time": 2435, "pitch": 74, "duration": 48, "velocity": 87}, {"time": 2435, "pitch": 79, "duration": 48, "velocity": 117}, {"time": 2483, "pitch": 71, "duration": 30, "velocity": 87}, {"time": 2483, "pitch": 76, "duration": 30, "velocity": 89}, {"time": 2513, "pitch": 74, "duration": 6, "velocity": 78}, {"time": 2519, "pitch": 72, "duration": 6, "velocity": 82}, {"time": 2525, "pitch": 71, "duration": 6, "velocity": 97}, {"time": 2531, "pitch": 69, "duration": 30, "velocity": 92}, {"time": 2531, "pitch": 72, "duration": 30, "velocity": 92}, {"time": 2561, "pitch": 77, "duration": 6, "velocity": 102}, {"time": 2567, "pitch": 76, "duration": 6, "velocity": 114}, {"time": 2573, "pitch": 77, "duration": 6, "velocity": 87}, {"time": 2579, "pitch": 74, "duration": 36, "velocity": 102}, {"time": 2615, "pitch": 74, "duration": 12, "velocity": 105}, {"time": 2627, "pitch": 67, "duration": 18, "velocity": 78}, {"time": 2627, "pitch": 76, "duration": 18, "velocity": 100}, {"time": 2645, "pitch": 74, "duration": 6, "velocity": 67}, {"time": 2651, "pitch": 67, "duration": 12, "velocity": 78}, {"time": 2651, "pitch": 76, "duration": 12, "velocity": 92}, {"time": 2663, "pitch": 74, "duration": 12, "velocity": 97}, {"time": 2675, "pitch": 72, "duration": 36, "velocity": 84}, {"time": 2675, "pitch": 76, "duration": 36, "velocity": 84}, {"time": 2711, "pitch": 67, "duration": 8, "velocity": 102}, {"time": 2717, "pitch": 79, "duration": 6, "velocity": 100}, {"time": 2723, "pitch": 79, "duration": 1, "velocity": 108}, {"time": 2747, "pitch": 79, "duration": 6, "velocity": 111}, {"time": 2753, "pitch": 77, "duration": 6, "velocity": 111}, {"time": 2759, "pitch": 76, "duration": 6, "velocity": 108}, {"time": 2765, "pitch": 77, "duration": 6, "velocity": 94}, {"time": 2771, "pitch": 74, "duration": 23, "velocity": 100}, {"time": 2795, "pitch": 81, "duration": 12, "velocity": 105}, {"time": 2807, "pitch": 79, "duration": 12, "velocity": 102}, {"time": 2819, "pitch": 77, "duration": 5, "velocity": 94}, {"time": 2825, "pitch": 76, "duration": 6, "velocity": 111}, {"time": 2831, "pitch": 74, "duration": 5, "velocity": 89}, {"time": 2837, "pitch": 74, "duration": 18, "velocity": 114}, {"time": 2867, "pitch": 71, "duration": 8, "velocity": 87}, {"time": 2867, "pitch": 76, "duration": 8, "velocity": 89}, {"time": 2876, "pitch": 72, "duration": 3, "velocity": 87}, {"time": 2876, "pitch": 77, "duration": 3, "velocity": 89}, {"time": 2882, "pitch": 74, "duration": 3, "velocity": 87}, {"time": 2882, "pitch": 79, "duration": 3, "velocity": 89}, {"time": 2905, "pitch": 65, "duration": 1, "velocity": 83}, {"time": 2906, "pitch": 67, "duration": 2, "velocity": 90}, {"time": 2908, "pitch": 69, "duration": 1, "velocity": 97}, {"time": 2909, "pitch": 71, "duration": 1, "velocity": 102}, {"time": 2910, "pitch": 72, "duration": 2, "velocity": 107}, {"time": 2912, "pitch": 74, "duration": 1, "velocity": 111}, {"time": 2913, "pitch": 76, "duration": 2, "velocity": 116}, {"time": 2915, "pitch": 77, "duration": 6, "velocity": 127}, {"time": 2945, "pitch": 77, "duration": 5, "velocity": 102}, {"time": 2951, "pitch": 76, "duration": 5, "velocity": 114}, {"time": 2957, "pitch": 77, "duration": 6, "velocity": 87}, {"time": 2963, "pitch": 74, "duration": 22, "velocity": 102}, {"time": 2999, "pitch": 74, "duration": 10, "velocity": 105}, {"time": 3011, "pitch": 67, "duration": 17, "velocity": 78}, {"time": 3011, "pitch": 76, "duration": 17, "velocity": 100}, {"time": 3029, "pitch": 74, "duration": 4, "velocity": 67}, {"time": 3035, "pitch": 67, "duration": 12, "velocity": 78}, {"time": 3035, "pitch": 76, "duration": 12, "velocity": 92}, {"time": 3047, "pitch": 74, "duration": 10, "velocity": 97}, {"time": 3059, "pitch": 72, "duration": 35, "velocity": 84}, {"time": 3059, "pitch": 76, "duration": 36, "velocity": 84}, {"time": 3095, "pitch": 67, "duration": 8, "velocity": 102}, {"time": 3101, "pitch": 79, "duration": 6, "velocity": 100}, {"time": 3107, "pitch": 79, "duration": 1, "velocity": 108}, {"time": 3131, "pitch": 79, "duration": 6, "velocity": 111}, {"time": 3137, "pitch": 77, "duration": 6, "velocity": 111}, {"time": 3143, "pitch": 76, "duration": 6, "velocity": 108}, {"time": 3149, "pitch": 77, "duration": 6, "velocity": 94}, {"time": 3155, "pitch": 74, "duration": 23, "velocity": 100}, {"time": 3179, "pitch": 81, "duration": 12, "velocity": 105}, {"time": 3191, "pitch": 79, "duration": 12, "velocity": 102}, {"time": 3203, "pitch": 69, "duration": 5, "velocity": 80}, {"time": 3209, "pitch": 67, "duration": 6, "velocity": 71}, {"time": 3215, "pitch": 65, "duration": 6, "velocity": 69}, {"time": 3221, "pitch": 64, "duration": 25, "velocity": 89}, {"time": 3251, "pitch": 65, "duration": 18, "velocity": 94}, {"time": 3269, "pitch": 64, "duration": 6, "velocity": 67}, {"time": 3275, "pitch": 60, "duration": 23, "velocity": 64}, {"time": 3275, "pitch": 65, "duration": 23, "velocity": 78}, {"time": 3299, "pitch": 55, "duration": 46, "velocity": 76}, {"time": 3299, "pitch": 62, "duration": 46, "velocity": 80}, {"time": 3347, "pitch": 67, "duration": 8, "velocity": 102}, {"time": 3353, "pitch": 64, "duration": 7, "velocity": 94}, {"time": 3359, "pitch": 72, "duration": 6, "velocity": 100}, {"time": 3364, "pitch": 67, "duration": 4, "velocity": 102}, {"time": 3370, "pitch": 67, "duration": 2, "velocity": 92}, {"time": 3371, "pitch": 69, "duration": 18, "velocity": 84}, {"time": 3388, "pitch": 67, "duration": 41, "velocity": 82}, {"time": 3430, "pitch": 64, "duration": 74, "velocity": 69}]}, {"program": 0, "is_drum": false, "name": "PIANO", "notes": [{"time": 69, "pitch": 52, "duration": 15, "velocity": 82}, {"time": 75, "pitch": 60, "duration": 22, "velocity": 94}, {"time": 81, "pitch": 67, "duration": 24, "velocity": 92}, {"time": 101, "pitch": 60, "duration": 11, "velocity": 82}, {"time": 107, "pitch": 67, "duration": 20, "velocity": 94}, {"time": 113, "pitch": 72, "duration": 15, "velocity": 108}, {"time": 124, "pitch": 53, "duration": 52, "velocity": 89}, {"time": 130, "pitch": 60, "duration": 37, "velocity": 97}, {"time": 136, "pitch": 69, "duration": 35, "velocity": 87}, {"time": 177, "pitch": 50, "duration": 19, "velocity": 82}, {"time": 177, "pitch": 65, "duration": 13, "velocity": 82}, {"time": 177, "pitch": 60, "duration": 8, "velocity": 76}, {"time": 183, "pitch": 57, "duration": 13, "velocity": 87}, {"time": 189, "pitch": 60, "duration": 6, "velocity": 105}, {"time": 195, "pitch": 65, "duration": 5, "velocity": 82}, {"time": 201, "pitch": 67, "duration": 9, "velocity": 80}, {"time": 201, "pitch": 64, "duration": 9, "velocity": 78}, {"time": 202, "pitch": 52, "duration": 23, "velocity": 97}, {"time": 207, "pitch": 59, "duration": 19, "velocity": 82}, {"time": 214, "pitch": 64, "duration": 11, "velocity": 102}, {"time": 220, "pitch": 67, "duration": 5, "velocity": 94}, {"time": 225, "pitch": 53, "duration": 9, "velocity": 55}, {"time": 226, "pitch": 41, "duration": 28, "velocity": 89}, {"time": 226, "pitch": 57, "duration": 26, "velocity": 82}, {"time": 232, "pitch": 48, "duration": 22, "velocity": 60}, {"time": 238, "pitch": 53, "duration": 15, "velocity": 44}, {"time": 261, "pitch": 55, "duration": 14, "velocity": 53}, {"time": 262, "pitch": 59, "duration": 13, "velocity": 67}, {"time": 263, "pitch": 43, "duration": 13, "velocity": 100}, {"time": 263, "pitch": 62, "duration": 12, "velocity": 40}, {"time": 273, "pitch": 55, "duration": 2, "velocity": 62}, {"time": 274, "pitch": 60, "duration": 10, "velocity": 82}, {"time": 275, "pitch": 48, "duration": 46, "velocity": 89}, {"time": 275, "pitch": 64, "duration": 9, "velocity": 80}, {"time": 280, "pitch": 55, "duration": 11, "velocity": 52}, {"time": 286, "pitch": 60, "duration": 4, "velocity": 89}, {"time": 286, "pitch": 64, "duration": 6, "velocity": 92}, {"time": 293, "pitch": 59, "duration": 15, "velocity": 94}, {"time": 293, "pitch": 62, "duration": 15, "velocity": 80}, {"time": 293, "pitch": 55, "duration": 8, "velocity": 82}, {"time": 304, "pitch": 55, "duration": 7, "velocity": 38}, {"time": 311, "pitch": 59, "duration": 10, "velocity": 87}, {"time": 311, "pitch": 62, "duration": 11, "velocity": 76}, {"time": 316, "pitch": 55, "duration": 6, "velocity": 24}, {"time": 323, "pitch": 43, "duration": 18, "velocity": 100}, {"time": 323, "pitch": 55, "duration": 9, "velocity": 73}, {"time": 323, "pitch": 62, "duration": 9, "velocity": 89}, {"time": 329, "pitch": 50, "duration": 11, "velocity": 50}, {"time": 335, "pitch": 55, "duration": 4, "velocity": 66}, {"time": 335, "pitch": 62, "duration": 4, "velocity": 69}, {"time": 341, "pitch": 60, "duration": 14, "velocity": 87}, {"time": 341, "pitch": 64, "duration": 15, "velocity": 73}, {"time": 341, "pitch": 48, "duration": 29, "velocity": 76}, {"time": 341, "pitch": 55, "duration": 8, "velocity": 82}, {"time": 352, "pitch": 55, "duration": 18, "velocity": 69}, {"time": 358, "pitch": 64, "duration": 12, "velocity": 71}, {"time": 358, "pitch": 60, "duration": 12, "velocity": 62}, {"time": 371, "pitch": 36, "duration": 46, "velocity": 82}, {"time": 377, "pitch": 43, "duration": 41, "velocity": 52}, {"time": 383, "pitch": 48, "duration": 15, "velocity": 67}, {"time": 389, "pitch": 55, "duration": 15, "velocity": 73}, {"time": 389, "pitch": 60, "duration": 19, "velocity": 78}, {"time": 401, "pitch": 48, "duration": 12, "velocity": 55}, {"time": 407, "pitch": 52, "duration": 7, "velocity": 100}, {"time": 413, "pitch": 60, "duration": 7, "velocity": 94}, {"time": 419, "pitch": 45, "duration": 24, "velocity": 82}, {"time": 419, "pitch": 52, "duration": 14, "velocity": 69}, {"time": 419, "pitch": 57, "duration": 24, "velocity": 87}, {"time": 419, "pitch": 59, "duration": 24, "velocity": 84}, {"time": 425, "pitch": 52, "duration": 8, "velocity": 76}, {"time": 443, "pitch": 60, "duration": 24, "velocity": 92}, {"time": 449, "pitch": 52, "duration": 3, "velocity": 39}, {"time": 455, "pitch": 52, "duration": 12, "velocity": 73}, {"time": 455, "pitch": 57, "duration": 12, "velocity": 69}, {"time": 467, "pitch": 50, "duration": 40, "velocity": 94}, {"time": 467, "pitch": 62, "duration": 7, "velocity": 67}, {"time": 467, "pitch": 65, "duration": 12, "velocity": 78}, {"time": 473, "pitch": 57, "duration": 32, "velocity": 78}, {"time": 479, "pitch": 62, "duration": 27, "velocity": 71}, {"time": 485, "pitch": 65, "duration": 25, "velocity": 84}, {"time": 485, "pitch": 69, "duration": 26, "velocity": 94}, {"time": 509, "pitch": 62, "duration": 5, "velocity": 84}, {"time": 515, "pitch": 43, "duration": 48, "velocity": 78}, {"time": 515, "pitch": 62, "duration": 4, "velocity": 51}, {"time": 515, "pitch": 67, "duration": 5, "velocity": 80}, {"time": 521, "pitch": 50, "duration": 22, "velocity": 60}, {"time": 527, "pitch": 55, "duration": 9, "velocity": 97}, {"time": 533, "pitch": 62, "duration": 4, "velocity": 80}, {"time": 539, "pitch": 55, "duration": 10, "velocity": 94}, {"time": 539, "pitch": 62, "duration": 10, "velocity": 97}, {"time": 539, "pitch": 67, "duration": 10, "velocity": 84}, {"time": 545, "pitch": 50, "duration": 8, "velocity": 82}, {"time": 551, "pitch": 55, "duration": 11, "velocity": 92}, {"time": 551, "pitch": 62, "duration": 12, "velocity": 92}, {"time": 551, "pitch": 65, "duration": 9, "velocity": 89}, {"time": 557, "pitch": 50, "duration": 6, "velocity": 71}, {"time": 563, "pitch": 48, "duration": 40, "velocity": 87}, {"time": 563, "pitch": 55, "duration": 3, "velocity": 71}, {"time": 563, "pitch": 60, "duration": 7, "velocity": 73}, {"time": 563, "pitch": 64, "duration": 9, "velocity": 89}, {"time": 569, "pitch": 55, "duration": 17, "velocity": 58}, {"time": 575, "pitch": 62, "duration": 4, "velocity": 80}, {"time": 581, "pitch": 55, "duration": 5, "velocity": 84}, {"time": 581, "pitch": 60, "duration": 12, "velocity": 87}, {"time": 581, "pitch": 64, "duration": 14, "velocity": 94}, {"time": 581, "pitch": 67, "duration": 12, "velocity": 94}, {"time": 593, "pitch": 55, "duration": 9, "velocity": 23}, {"time": 599, "pitch": 55, "duration": 3, "velocity": 87}, {"time": 599, "pitch": 60, "duration": 3, "velocity": 80}, {"time": 599, "pitch": 64, "duration": 4, "velocity": 89}, {"time": 611, "pitch": 45, "duration": 46, "velocity": 89}, {"time": 611, "pitch": 57, "duration": 12, "velocity": 67}, {"time": 611, "pitch": 60, "duration": 7, "velocity": 80}, {"time": 617, "pitch": 52, "duration": 18, "velocity": 43}, {"time": 623, "pitch": 59, "duration": 6, "velocity": 76}, {"time": 629, "pitch": 60, "duration": 12, "velocity": 73}, {"time": 635, "pitch": 52, "duration": 1, "velocity": 69}, {"time": 641, "pitch": 52, "duration": 8, "velocity": 44}, {"time": 641, "pitch": 57, "duration": 2, "velocity": 47}, {"time": 647, "pitch": 57, "duration": 7, "velocity": 84}, {"time": 647, "pitch": 60, "duration": 8, "velocity": 89}, {"time": 647, "pitch": 64, "duration": 8, "velocity": 100}, {"time": 653, "pitch": 52, "duration": 4, "velocity": 46}, {"time": 659, "pitch": 50, "duration": 37, "velocity": 89}, {"time": 659, "pitch": 57, "duration": 8, "velocity": 80}, {"time": 659, "pitch": 62, "duration": 14, "velocity": 71}, {"time": 665, "pitch": 53, "duration": 32, "velocity": 47}, {"time": 671, "pitch": 57, "duration": 3, "velocity": 67}, {"time": 677, "pitch": 57, "duration": 11, "velocity": 92}, {"time": 677, "pitch": 65, "duration": 12, "velocity": 92}, {"time": 695, "pitch": 57, "duration": 3, "velocity": 97}, {"time": 695, "pitch": 62, "duration": 6, "velocity": 84}, {"time": 701, "pitch": 57, "duration": 1, "velocity": 51}, {"time": 707, "pitch": 43, "duration": 48, "velocity": 94}, {"time": 707, "pitch": 55, "duration": 8, "velocity": 78}, {"time": 707, "pitch": 62, "duration": 13, "velocity": 80}, {"time": 713, "pitch": 50, "duration": 21, "velocity": 76}, {"time": 719, "pitch": 55, "duration": 8, "velocity": 97}, {"time": 725, "pitch": 62, "duration": 4, "velocity": 67}, {"time": 731, "pitch": 55, "duration": 9, "velocity": 94}, {"time": 731, "pitch": 62, "duration": 9, "velocity": 92}, {"time": 731, "pitch": 67, "duration": 8, "velocity": 97}, {"time": 737, "pitch": 50, "duration": 18, "velocity": 60}, {"time": 743, "pitch": 55, "duration": 11, "velocity": 78}, {"time": 743, "pitch": 62, "duration": 8, "velocity": 82}, {"time": 749, "pitch": 60, "duration": 5, "velocity": 89}, {"time": 755, "pitch": 40, "duration": 44, "velocity": 100}, {"time": 755, "pitch": 52, "duration": 7, "velocity": 80}, {"time": 755, "pitch": 59, "duration": 12, "velocity": 87}, {"time": 761, "pitch": 47, "duration": 16, "velocity": 67}, {"time": 767, "pitch": 52, "duration": 3, "velocity": 97}, {"time": 773, "pitch": 52, "duration": 13, "velocity": 94}, {"time": 773, "pitch": 56, "duration": 12, "velocity": 90}, {"time": 785, "pitch": 47, "duration": 13, "velocity": 38}, {"time": 791, "pitch": 52, "duration": 4, "velocity": 92}, {"time": 791, "pitch": 59, "duration": 5, "velocity": 82}, {"time": 803, "pitch": 45, "duration": 42, "velocity": 89}, {"time": 803, "pitch": 52, "duration": 8, "velocity": 80}, {"time": 803, "pitch": 57, "duration": 13, "velocity": 87}, {"time": 809, "pitch": 48, "duration": 35, "velocity": 76}, {"time": 815, "pitch": 52, "duration": 2, "velocity": 78}, {"time": 821, "pitch": 52, "duration": 9, "velocity": 111}, {"time": 821, "pitch": 60, "duration": 16, "velocity": 105}, {"time": 839, "pitch": 52, "duration": 3, "velocity": 89}, {"time": 839, "pitch": 59, "duration": 5, "velocity": 92}, {"time": 851, "pitch": 38, "duration": 40, "velocity": 97}, {"time": 851, "pitch": 50, "duration": 10, "velocity": 64}, {"time": 851, "pitch": 53, "duration": 8, "velocity": 89}, {"time": 857, "pitch": 45, "duration": 34, "velocity": 73}, {"time": 863, "pitch": 57, "duration": 2, "velocity": 78}, {"time": 869, "pitch": 50, "duration": 12, "velocity": 94}, {"time": 869, "pitch": 60, "duration": 14, "velocity": 102}, {"time": 887, "pitch": 50, "duration": 4, "velocity": 100}, {"time": 887, "pitch": 57, "duration": 4, "velocity": 97}, {"time": 899, "pitch": 43, "duration": 48, "velocity": 84}, {"time": 899, "pitch": 50, "duration": 8, "velocity": 82}, {"time": 899, "pitch": 55, "duration": 13, "velocity": 84}, {"time": 899, "pitch": 59, "duration": 13, "velocity": 89}, {"time": 911, "pitch": 50, "duration": 2, "velocity": 47}, {"time": 917, "pitch": 50, "duration": 6, "velocity": 97}, {"time": 917, "pitch": 55, "duration": 12, "velocity": 92}, {"time": 917, "pitch": 59, "duration": 13, "velocity": 94}, {"time": 929, "pitch": 50, "duration": 5, "velocity": 97}, {"time": 935, "pitch": 50, "duration": 3, "velocity": 100}, {"time": 935, "pitch": 55, "duration": 11, "velocity": 105}, {"time": 941, "pitch": 50, "duration": 5, "velocity": 105}, {"time": 947, "pitch": 40, "duration": 43, "velocity": 102}, {"time": 947, "pitch": 50, "duration": 15, "velocity": 92}, {"time": 953, "pitch": 47, "duration": 20, "velocity": 78}, {"time": 959, "pitch": 56, "duration": 4, "velocity": 93}, {"time": 965, "pitch": 50, "duration": 7, "velocity": 89}, {"time": 965, "pitch": 59, "duration": 9, "velocity": 94}, {"time": 977, "pitch": 44, "duration": 10, "velocity": 29}, {"time": 983, "pitch": 52, "duration": 4, "velocity": 100}, {"time": 983, "pitch": 56, "duration": 4, "velocity": 99}, {"time": 983, "pitch": 59, "duration": 5, "velocity": 100}, {"time": 995, "pitch": 45, "duration": 22, "velocity": 97}, {"time": 995, "pitch": 52, "duration": 3, "velocity": 94}, {"time": 995, "pitch": 60, "duration": 9, "velocity": 94}, {"time": 1001, "pitch": 52, "duration": 7, "velocity": 55}, {"time": 1013, "pitch": 52, "duration": 7, "velocity": 92}, {"time": 1013, "pitch": 59, "duration": 8, "velocity": 89}, {"time": 1019, "pitch": 45, "duration": 15, "velocity": 71}, {"time": 1025, "pitch": 52, "duration": 3, "velocity": 89}, {"time": 1031, "pitch": 52, "duration": 6, "velocity": 105}, {"time": 1031, "pitch": 57, "duration": 6, "velocity": 100}, {"time": 1043, "pitch": 38, "duration": 36, "velocity": 94}, {"time": 1043, "pitch": 50, "duration": 10, "velocity": 82}, {"time": 1043, "pitch": 53, "duration": 8, "velocity": 84}, {"time": 1049, "pitch": 45, "duration": 15, "velocity": 64}, {"time": 1052, "pitch": 57, "duration": 4, "velocity": 67}, {"time": 1061, "pitch": 50, "duration": 12, "velocity": 100}, {"time": 1061, "pitch": 57, "duration": 12, "velocity": 92}, {"time": 1070, "pitch": 45, "duration": 10, "velocity": 36}, {"time": 1079, "pitch": 50, "duration": 3, "velocity": 87}, {"time": 1079, "pitch": 53, "duration": 3, "velocity": 87}, {"time": 1079, "pitch": 57, "duration": 4, "velocity": 97}, {"time": 1091, "pitch": 43, "duration": 14, "velocity": 78}, {"time": 1091, "pitch": 50, "duration": 3, "velocity": 89}, {"time": 1091, "pitch": 55, "duration": 3, "velocity": 89}, {"time": 1091, "pitch": 59, "duration": 6, "velocity": 94}, {"time": 1097, "pitch": 50, "duration": 3, "velocity": 84}, {"time": 1103, "pitch": 50, "duration": 1, "velocity": 84}, {"time": 1103, "pitch": 55, "duration": 1, "velocity": 76}, {"time": 1103, "pitch": 59, "duration": 2, "velocity": 87}, {"time": 1109, "pitch": 43, "duration": 2, "velocity": 82}, {"time": 1109, "pitch": 50, "duration": 2, "velocity": 82}, {"time": 1109, "pitch": 55, "duration": 2, "velocity": 80}, {"time": 1109, "pitch": 59, "duration": 2, "velocity": 87}, {"time": 1115, "pitch": 43, "duration": 6, "velocity": 105}, {"time": 1115, "pitch": 50, "duration": 4, "velocity": 92}, {"time": 1115, "pitch": 55, "duration": 5, "velocity": 87}, {"time": 1115, "pitch": 59, "duration": 5, "velocity": 92}, {"time": 1139, "pitch": 52, "duration": 26, "velocity": 102}, {"time": 1139, "pitch": 64, "duration": 7, "velocity": 89}, {"time": 1139, "pitch": 67, "duration": 13, "velocity": 97}, {"time": 1145, "pitch": 59, "duration": 18, "velocity": 87}, {"time": 1151, "pitch": 64, "duration": 3, "velocity": 94}, {"time": 1157, "pitch": 64, "duration": 14, "velocity": 102}, {"time": 1157, "pitch": 71, "duration": 16, "velocity": 89}, {"time": 1169, "pitch": 52, "duration": 3, "velocity": 64}, {"time": 1175, "pitch": 52, "duration": 6, "velocity": 97}, {"time": 1175, "pitch": 59, "duration": 6, "velocity": 87}, {"time": 1175, "pitch": 64, "duration": 3, "velocity": 76}, {"time": 1175, "pitch": 67, "duration": 6, "velocity": 87}, {"time": 1181, "pitch": 64, "duration": 2, "velocity": 76}, {"time": 1187, "pitch": 50, "duration": 38, "velocity": 97}, {"time": 1187, "pitch": 62, "duration": 7, "velocity": 89}, {"time": 1187, "pitch": 65, "duration": 12, "velocity": 89}, {"time": 1193, "pitch": 57, "duration": 18, "velocity": 66}, {"time": 1199, "pitch": 60, "duration": 3, "velocity": 94}, {"time": 1205, "pitch": 60, "duration": 2, "velocity": 35}, {"time": 1205, "pitch": 65, "duration": 15, "velocity": 92}, {"time": 1205, "pitch": 69, "duration": 15, "velocity": 92}, {"time": 1217, "pitch": 57, "duration": 11, "velocity": 71}, {"time": 1223, "pitch": 60, "duration": 3, "velocity": 87}, {"time": 1223, "pitch": 65, "duration": 3, "velocity": 94}, {"time": 1223, "pitch": 69, "duration": 4, "velocity": 94}, {"time": 1229, "pitch": 50, "duration": 2, "velocity": 49}, {"time": 1235, "pitch": 43, "duration": 5, "velocity": 100}, {"time": 1235, "pitch": 62, "duration": 19, "velocity": 87}, {"time": 1235, "pitch": 67, "duration": 18, "velocity": 94}, {"time": 1247, "pitch": 55, "duration": 15, "velocity": 62}, {"time": 1253, "pitch": 59, "duration": 10, "velocity": 78}, {"time": 1259, "pitch": 62, "duration": 10, "velocity": 108}, {"time": 1259, "pitch": 67, "duration": 9, "velocity": 105}, {"time": 1259, "pitch": 71, "duration": 10, "velocity": 105}, {"time": 1265, "pitch": 50, "duration": 11, "velocity": 44}, {"time": 1271, "pitch": 62, "duration": 3, "velocity": 105}, {"time": 1271, "pitch": 67, "duration": 6, "velocity": 114}, {"time": 1277, "pitch": 62, "duration": 2, "velocity": 94}, {"time": 1283, "pitch": 48, "duration": 34, "velocity": 102}, {"time": 1283, "pitch": 60, "duration": 7, "velocity": 92}, {"time": 1283, "pitch": 64, "duration": 7, "velocity": 89}, {"time": 1289, "pitch": 55, "duration": 7, "velocity": 64}, {"time": 1295, "pitch": 60, "duration": 10, "velocity": 97}, {"time": 1295, "pitch": 64, "duration": 9, "velocity": 97}, {"time": 1295, "pitch": 67, "duration": 10, "velocity": 100}, {"time": 1301, "pitch": 55, "duration": 29, "velocity": 62}, {"time": 1307, "pitch": 60, "duration": 3, "velocity": 92}, {"time": 1307, "pitch": 64, "duration": 9, "velocity": 102}, {"time": 1307, "pitch": 67, "duration": 10, "velocity": 102}, {"time": 1307, "pitch": 72, "duration": 5, "velocity": 100}, {"time": 1313, "pitch": 60, "duration": 4, "velocity": 92}, {"time": 1319, "pitch": 47, "duration": 9, "velocity": 102}, {"time": 1319, "pitch": 59, "duration": 4, "velocity": 67}, {"time": 1319, "pitch": 64, "duration": 8, "velocity": 82}, {"time": 1319, "pitch": 67, "duration": 8, "velocity": 80}, {"time": 1325, "pitch": 59, "duration": 3, "velocity": 46}, {"time": 1331, "pitch": 48, "duration": 17, "velocity": 102}, {"time": 1331, "pitch": 60, "duration": 6, "velocity": 76}, {"time": 1331, "pitch": 67, "duration": 10, "velocity": 89}, {"time": 1337, "pitch": 55, "duration": 12, "velocity": 69}, {"time": 1343, "pitch": 60, "duration": 6, "velocity": 114}, {"time": 1343, "pitch": 67, "duration": 1, "velocity": 20}, {"time": 1349, "pitch": 64, "duration": 1, "velocity": 67}, {"time": 1355, "pitch": 52, "duration": 15, "velocity": 102}, {"time": 1355, "pitch": 64, "duration": 8, "velocity": 78}, {"time": 1355, "pitch": 67, "duration": 7, "velocity": 94}, {"time": 1361, "pitch": 59, "duration": 9, "velocity": 73}, {"time": 1367, "pitch": 64, "duration": 3, "velocity": 92}, {"time": 1367, "pitch": 67, "duration": 5, "velocity": 105}, {"time": 1367, "pitch": 71, "duration": 6, "velocity": 97}, {"time": 1379, "pitch": 50, "duration": 47, "velocity": 97}, {"time": 1379, "pitch": 60, "duration": 7, "velocity": 89}, {"time": 1379, "pitch": 65, "duration": 8, "velocity": 92}, {"time": 1385, "pitch": 57, "duration": 9, "velocity": 55}, {"time": 1391, "pitch": 60, "duration": 5, "velocity": 89}, {"time": 1391, "pitch": 65, "duration": 9, "velocity": 89}, {"time": 1391, "pitch": 69, "duration": 10, "velocity": 94}, {"time": 1397, "pitch": 57, "duration": 9, "velocity": 60}, {"time": 1403, "pitch": 60, "duration": 9, "velocity": 105}, {"time": 1403, "pitch": 65, "duration": 9, "velocity": 97}, {"time": 1412, "pitch": 57, "duration": 5, "velocity": 15}, {"time": 1415, "pitch": 60, "duration": 2, "velocity": 114}, {"time": 1415, "pitch": 69, "duration": 9, "velocity": 105}, {"time": 1418, "pitch": 57, "duration": 6, "velocity": 84}, {"time": 1421, "pitch": 60, "duration": 3, "velocity": 89}, {"time": 1427, "pitch": 55, "duration": 43, "velocity": 100}, {"time": 1427, "pitch": 62, "duration": 8, "velocity": 94}, {"time": 1427, "pitch": 67, "duration": 8, "velocity": 92}, {"time": 1433, "pitch": 59, "duration": 37, "velocity": 58}, {"time": 1439, "pitch": 62, "duration": 3, "velocity": 102}, {"time": 1439, "pitch": 71, "duration": 10, "velocity": 102}, {"time": 1445, "pitch": 62, "duration": 4, "velocity": 69}, {"time": 1451, "pitch": 62, "duration": 9, "velocity": 84}, {"time": 1451, "pitch": 67, "duration": 8, "velocity": 84}, {"time": 1463, "pitch": 62, "duration": 3, "velocity": 100}, {"time": 1463, "pitch": 67, "duration": 7, "velocity": 97}, {"time": 1463, "pitch": 71, "duration": 9, "velocity": 100}, {"time": 1469, "pitch": 62, "duration": 3, "velocity": 60}, {"time": 1475, "pitch": 48, "duration": 15, "velocity": 102}, {"time": 1475, "pitch": 60, "duration": 5, "velocity": 78}, {"time": 1475, "pitch": 65, "duration": 5, "velocity": 92}, {"time": 1481, "pitch": 55, "duration": 4, "velocity": 47}, {"time": 1484, "pitch": 60, "duration": 3, "velocity": 76}, {"time": 1484, "pitch": 64, "duration": 3, "velocity": 76}, {"time": 1487, "pitch": 55, "duration": 3, "velocity": 50}, {"time": 1493, "pitch": 48, "duration": 30, "velocity": 89}, {"time": 1493, "pitch": 60, "duration": 29, "velocity": 82}, {"time": 1493, "pitch": 64, "duration": 29, "velocity": 92}, {"time": 1523, "pitch": 52, "duration": 38, "velocity": 82}, {"time": 1523, "pitch": 64, "duration": 14, "velocity": 78}, {"time": 1523, "pitch": 67, "duration": 14, "velocity": 80}, {"time": 1523, "pitch": 72, "duration": 19, "velocity": 84}, {"time": 1535, "pitch": 59, "duration": 10, "velocity": 41}, {"time": 1541, "pitch": 64, "duration": 9, "velocity": 73}, {"time": 1547, "pitch": 59, "duration": 13, "velocity": 12}, {"time": 1559, "pitch": 64, "duration": 3, "velocity": 94}, {"time": 1559, "pitch": 67, "duration": 6, "velocity": 97}, {"time": 1565, "pitch": 64, "duration": 1, "velocity": 60}, {"time": 1571, "pitch": 53, "duration": 41, "velocity": 55}, {"time": 1571, "pitch": 60, "duration": 7, "velocity": 60}, {"time": 1571, "pitch": 65, "duration": 12, "velocity": 73}, {"time": 1577, "pitch": 57, "duration": 36, "velocity": 46}, {"time": 1583, "pitch": 60, "duration": 4, "velocity": 47}, {"time": 1589, "pitch": 60, "duration": 6, "velocity": 89}, {"time": 1589, "pitch": 72, "duration": 13, "velocity": 84}, {"time": 1601, "pitch": 60, "duration": 2, "velocity": 28}, {"time": 1607, "pitch": 60, "duration": 4, "velocity": 92}, {"time": 1607, "pitch": 69, "duration": 7, "velocity": 92}, {"time": 1619, "pitch": 50, "duration": 17, "velocity": 97}, {"time": 1619, "pitch": 62, "duration": 7, "velocity": 80}, {"time": 1619, "pitch": 65, "duration": 12, "velocity": 87}, {"time": 1625, "pitch": 57, "duration": 13, "velocity": 53}, {"time": 1631, "pitch": 62, "duration": 7, "velocity": 87}, {"time": 1637, "pitch": 65, "duration": 5, "velocity": 97}, {"time": 1643, "pitch": 52, "duration": 22, "velocity": 100}, {"time": 1643, "pitch": 64, "duration": 8, "velocity": 92}, {"time": 1643, "pitch": 67, "duration": 13, "velocity": 92}, {"time": 1649, "pitch": 59, "duration": 17, "velocity": 73}, {"time": 1655, "pitch": 64, "duration": 7, "velocity": 108}, {"time": 1661, "pitch": 67, "duration": 4, "velocity": 78}, {"time": 1667, "pitch": 43, "duration": 22, "velocity": 100}, {"time": 1667, "pitch": 62, "duration": 7, "velocity": 84}, {"time": 1667, "pitch": 67, "duration": 13, "velocity": 92}, {"time": 1673, "pitch": 50, "duration": 16, "velocity": 50}, {"time": 1679, "pitch": 62, "duration": 10, "velocity": 78}, {"time": 1685, "pitch": 67, "duration": 4, "velocity": 78}, {"time": 1691, "pitch": 43, "duration": 24, "velocity": 69}, {"time": 1691, "pitch": 62, "duration": 24, "velocity": 76}, {"time": 1691, "pitch": 67, "duration": 24, "velocity": 84}, {"time": 1691, "pitch": 71, "duration": 24, "velocity": 92}, {"time": 1715, "pitch": 36, "duration": 46, "velocity": 82}, {"time": 1721, "pitch": 43, "duration": 41, "velocity": 52}, {"time": 1727, "pitch": 48, "duration": 15, "velocity": 67}, {"time": 1733, "pitch": 55, "duration": 15, "velocity": 73}, {"time": 1733, "pitch": 60, "duration": 19, "velocity": 78}, {"time": 1745, "pitch": 48, "duration": 12, "velocity": 55}, {"time": 1751, "pitch": 52, "duration": 7, "velocity": 100}, {"time": 1757, "pitch": 60, "duration": 7, "velocity": 94}, {"time": 1763, "pitch": 45, "duration": 24, "velocity": 82}, {"time": 1763, "pitch": 52, "duration": 14, "velocity": 69}, {"time": 1763, "pitch": 57, "duration": 24, "velocity": 87}, {"time": 1763, "pitch": 59, "duration": 24, "velocity": 84}, {"time": 1769, "pitch": 52, "duration": 8, "velocity": 76}, {"time": 1787, "pitch": 60, "duration": 24, "velocity": 92}, {"time": 1793, "pitch": 52, "duration": 3, "velocity": 39}, {"time": 1799, "pitch": 52, "duration": 12, "velocity": 73}, {"time": 1799, "pitch": 57, "duration": 12, "velocity": 69}, {"time": 1811, "pitch": 50, "duration": 40, "velocity": 94}, {"time": 1811, "pitch": 62, "duration": 7, "velocity": 67}, {"time": 1811, "pitch": 65, "duration": 12, "velocity": 78}, {"time": 1817, "pitch": 57, "duration": 32, "velocity": 78}, {"time": 1823, "pitch": 62, "duration": 27, "velocity": 71}, {"time": 1829, "pitch": 65, "duration": 25, "velocity": 84}, {"time": 1829, "pitch": 69, "duration": 26, "velocity": 94}, {"time": 1853, "pitch": 62, "duration": 5, "velocity": 84}, {"time": 1859, "pitch": 43, "duration": 48, "velocity": 78}, {"time": 1859, "pitch": 62, "duration": 4, "velocity": 51}, {"time": 1859, "pitch": 67, "duration": 5, "velocity": 80}, {"time": 1865, "pitch": 50, "duration": 22, "velocity": 60}, {"time": 1871, "pitch": 55, "duration": 9, "velocity": 97}, {"time": 1877, "pitch": 62, "duration": 4, "velocity": 80}, {"time": 1883, "pitch": 55, "duration": 10, "velocity": 94}, {"time": 1883, "pitch": 62, "duration": 10, "velocity": 97}, {"time": 1883, "pitch": 67, "duration": 10, "velocity": 84}, {"time": 1889, "pitch": 50, "duration": 8, "velocity": 82}, {"time": 1895, "pitch": 55, "duration": 11, "velocity": 92}, {"time": 1895, "pitch": 62, "duration": 12, "velocity": 92}, {"time": 1895, "pitch": 65, "duration": 9, "velocity": 89}, {"time": 1901, "pitch": 50, "duration": 6, "velocity": 71}, {"time": 1907, "pitch": 48, "duration": 40, "velocity": 87}, {"time": 1907, "pitch": 55, "duration": 3, "velocity": 71}, {"time": 1907, "pitch": 60, "duration": 7, "velocity": 73}, {"time": 1907, "pitch": 64, "duration": 9, "velocity": 89}, {"time": 1913, "pitch": 55, "duration": 17, "velocity": 58}, {"time": 1919, "pitch": 62, "duration": 4, "velocity": 80}, {"time": 1925, "pitch": 55, "duration": 5, "velocity": 84}, {"time": 1925, "pitch": 60, "duration": 12, "velocity": 87}, {"time": 1925, "pitch": 64, "duration": 14, "velocity": 94}, {"time": 1925, "pitch": 67, "duration": 12, "velocity": 94}, {"time": 1937, "pitch": 55, "duration": 9, "velocity": 23}, {"time": 1943, "pitch": 55, "duration": 3, "velocity": 87}, {"time": 1943, "pitch": 60, "duration": 3, "velocity": 80}, {"time": 1943, "pitch": 64, "duration": 4, "velocity": 89}, {"time": 1955, "pitch": 45, "duration": 46, "velocity": 89}, {"time": 1955, "pitch": 57, "duration": 12, "velocity": 67}, {"time": 1955, "pitch": 60, "duration": 7, "velocity": 80}, {"time": 1961, "pitch": 52, "duration": 18, "velocity": 43}, {"time": 1967, "pitch": 59, "duration": 6, "velocity": 76}, {"time": 1973, "pitch": 60, "duration": 12, "velocity": 73}, {"time": 1979, "pitch": 52, "duration": 1, "velocity": 69}, {"time": 1985, "pitch": 52, "duration": 8, "velocity": 44}, {"time": 1985, "pitch": 57, "duration": 2, "velocity": 47}, {"time": 1991, "pitch": 57, "duration": 7, "velocity": 84}, {"time": 1991, "pitch": 60, "duration": 8, "velocity": 89}, {"time": 1991, "pitch": 64, "duration": 8, "velocity": 100}, {"time": 1997, "pitch": 52, "duration": 4, "velocity": 46}, {"time": 2003, "pitch": 50, "duration": 37, "velocity": 89}, {"time": 2003, "pitch": 57, "duration": 8, "velocity": 80}, {"time": 2003, "pitch": 62, "duration": 14, "velocity": 71}, {"time": 2009, "pitch": 53, "duration": 32, "velocity": 47}, {"time": 2015, "pitch": 57, "duration": 3, "velocity": 67}, {"time": 2021, "pitch": 57, "duration": 11, "velocity": 92}, {"time": 2021, "pitch": 65, "duration": 12, "velocity": 92}, {"time": 2039, "pitch": 57, "duration": 3, "velocity": 97}, {"time": 2039, "pitch": 62, "duration": 6, "velocity": 84}, {"time": 2045, "pitch": 57, "duration": 1, "velocity": 51}, {"time": 2051, "pitch": 43, "duration": 48, "velocity": 94}, {"time": 2051, "pitch": 55, "duration": 8, "velocity": 78}, {"time": 2051, "pitch": 62, "duration": 13, "velocity": 80}, {"time": 2057, "pitch": 50, "duration": 21, "velocity": 76}, {"time": 2063, "pitch": 55, "duration": 8, "velocity": 97}, {"time": 2069, "pitch": 62, "duration": 4, "velocity": 67}, {"time": 2075, "pitch": 55, "duration": 9, "velocity": 94}, {"time": 2075, "pitch": 62, "duration": 9, "velocity": 92}, {"time": 2075, "pitch": 67, "duration": 8, "velocity": 97}, {"time": 2081, "pitch": 50, "duration": 18, "velocity": 60}, {"time": 2087, "pitch": 55, "duration": 11, "velocity": 78}, {"time": 2087, "pitch": 62, "duration": 8, "velocity": 82}, {"time": 2093, "pitch": 60, "duration": 5, "velocity": 89}, {"time": 2099, "pitch": 40, "duration": 44, "velocity": 100}, {"time": 2099, "pitch": 52, "duration": 7, "velocity": 80}, {"time": 2099, "pitch": 59, "duration": 12, "velocity": 87}, {"time": 2105, "pitch": 47, "duration": 16, "velocity": 67}, {"time": 2111, "pitch": 52, "duration": 3, "velocity": 97}, {"time": 2117, "pitch": 52, "duration": 13, "velocity": 94}, {"time": 2117, "pitch": 56, "duration": 12, "velocity": 90}, {"time": 2129, "pitch": 47, "duration": 13, "velocity": 38}, {"time": 2135, "pitch": 52, "duration": 4, "velocity": 92}, {"time": 2135, "pitch": 59, "duration": 5, "velocity": 82}, {"time": 2147, "pitch": 45, "duration": 42, "velocity": 89}, {"time": 2147, "pitch": 52, "duration": 8, "velocity": 80}, {"time": 2147, "pitch": 57, "duration": 13, "velocity": 87}, {"time": 2153, "pitch": 48, "duration": 35, "velocity": 76}, {"time": 2159, "pitch": 52, "duration": 2, "velocity": 78}, {"time": 2165, "pitch": 52, "duration": 9, "velocity": 111}, {"time": 2165, "pitch": 60, "duration": 16, "velocity": 105}, {"time": 2183, "pitch": 52, "duration": 3, "velocity": 89}, {"time": 2183, "pitch": 59, "duration": 5, "velocity": 92}, {"time": 2195, "pitch": 38, "duration": 40, "velocity": 97}, {"time": 2195, "pitch": 50, "duration": 10, "velocity": 64}, {"time": 2195, "pitch": 53, "duration": 8, "velocity": 89}, {"time": 2201, "pitch": 45, "duration": 34, "velocity": 73}, {"time": 2207, "pitch": 57, "duration": 2, "velocity": 78}, {"time": 2213, "pitch": 50, "duration": 12, "velocity": 94}, {"time": 2213, "pitch": 60, "duration": 14, "velocity": 102}, {"time": 2231, "pitch": 50, "duration": 4, "velocity": 100}, {"time": 2231, "pitch": 57, "duration": 4, "velocity": 97}, {"time": 2243, "pitch": 43, "duration": 48, "velocity": 84}, {"time": 2243, "pitch": 50, "duration": 8, "velocity": 82}, {"time": 2243, "pitch": 55, "duration": 13, "velocity": 84}, {"time": 2243, "pitch": 59, "duration": 13, "velocity": 89}, {"time": 2255, "pitch": 50, "duration": 2, "velocity": 47}, {"time": 2261, "pitch": 50, "duration": 6, "velocity": 97}, {"time": 2261, "pitch": 55, "duration": 12, "velocity": 92}, {"time": 2261, "pitch": 59, "duration": 13, "velocity": 94}, {"time": 2273, "pitch": 50, "duration": 5, "velocity": 97}, {"time": 2279, "pitch": 50, "duration": 3, "velocity": 100}, {"time": 2279, "pitch": 55, "duration": 11, "velocity": 105}, {"time": 2285, "pitch": 50, "duration": 5, "velocity": 105}, {"time": 2291, "pitch": 40, "duration": 43, "velocity": 102}, {"time": 2291, "pitch": 50, "duration": 15, "velocity": 92}, {"time": 2297, "pitch": 47, "duration": 20, "velocity": 78}, {"time": 2303, "pitch": 56, "duration": 4, "velocity": 93}, {"time": 2309, "pitch": 50, "duration": 7, "velocity": 89}, {"time": 2309, "pitch": 59, "duration": 9, "velocity": 94}, {"time": 2321, "pitch": 44, "duration": 10, "velocity": 29}, {"time": 2327, "pitch": 52, "duration": 4, "velocity": 100}, {"time": 2327, "pitch": 56, "duration": 4, "velocity": 99}, {"time": 2327, "pitch": 59, "duration": 5, "velocity": 100}, {"time": 2339, "pitch": 45, "duration": 22, "velocity": 97}, {"time": 2339, "pitch": 52, "duration": 3, "velocity": 94}, {"time": 2339, "pitch": 60, "duration": 9, "velocity": 94}, {"time": 2345, "pitch": 52, "duration": 7, "velocity": 55}, {"time": 2357, "pitch": 52, "duration": 7, "velocity": 92}, {"time": 2357, "pitch": 59, "duration": 8, "velocity": 89}, {"time": 2363, "pitch": 45, "duration": 15, "velocity": 71}, {"time": 2369, "pitch": 52, "duration": 3, "velocity": 89}, {"time": 2375, "pitch": 52, "duration": 6, "velocity": 105}, {"time": 2375, "pitch": 57, "duration": 6, "velocity": 100}, {"time": 2387, "pitch": 38, "duration": 36, "velocity": 94}, {"time": 2387, "pitch": 50, "duration": 10, "velocity": 82}, {"time": 2387, "pitch": 53, "duration": 8, "velocity": 84}, {"time": 2393, "pitch": 45, "duration": 15, "velocity": 64}, {"time": 2396, "pitch": 57, "duration": 4, "velocity": 67}, {"time": 2405, "pitch": 50, "duration": 12, "velocity": 100}, {"time": 2405, "pitch": 57, "duration": 12, "velocity": 92}, {"time": 2414, "pitch": 45, "duration": 10, "velocity": 36}, {"time": 2423, "pitch": 50, "duration": 3, "velocity": 87}, {"time": 2423, "pitch": 53, "duration": 3, "velocity": 87}, {"time": 2423, "pitch": 57, "duration": 4, "velocity": 97}, {"time": 2435, "pitch": 43, "duration": 14, "velocity": 78}, {"time": 2435, "pitch": 50, "duration": 3, "velocity": 89}, {"time": 2435, "pitch": 55, "duration": 3, "velocity": 89}, {"time": 2435, "pitch": 59, "duration": 6, "velocity": 94}, {"time": 2441, "pitch": 50, "duration": 3, "velocity": 84}, {"time": 2447, "pitch": 50, "duration": 1, "velocity": 84}, {"time": 2447, "pitch": 55, "duration": 1, "velocity": 76}, {"time": 2447, "pitch": 59, "duration": 2, "velocity": 87}, {"time": 2453, "pitch": 43, "duration": 2, "velocity": 82}, {"time": 2453, "pitch": 50, "duration": 2, "velocity": 82}, {"time": 2453, "pitch": 55, "duration": 2, "velocity": 80}, {"time": 2453, "pitch": 59, "duration": 2, "velocity": 87}, {"time": 2459, "pitch": 43, "duration": 6, "velocity": 105}, {"time": 2459, "pitch": 50, "duration": 4, "velocity": 92}, {"time": 2459, "pitch": 55, "duration": 5, "velocity": 87}, {"time": 2459, "pitch": 59, "duration": 5, "velocity": 92}, {"time": 2483, "pitch": 52, "duration": 26, "velocity": 102}, {"time": 2483, "pitch": 64, "duration": 7, "velocity": 89}, {"time": 2483, "pitch": 67, "duration": 13, "velocity": 97}, {"time": 2489, "pitch": 59, "duration": 18, "velocity": 87}, {"time": 2495, "pitch": 64, "duration": 3, "velocity": 94}, {"time": 2501, "pitch": 64, "duration": 14, "velocity": 102}, {"time": 2501, "pitch": 71, "duration": 16, "velocity": 89}, {"time": 2513, "pitch": 52, "duration": 3, "velocity": 64}, {"time": 2519, "pitch": 52, "duration": 6, "velocity": 97}, {"time": 2519, "pitch": 59, "duration": 6, "velocity": 87}, {"time": 2519, "pitch": 64, "duration": 3, "velocity": 76}, {"time": 2519, "pitch": 67, "duration": 6, "velocity": 87}, {"time": 2525, "pitch": 64, "duration": 2, "velocity": 76}, {"time": 2531, "pitch": 50, "duration": 38, "velocity": 97}, {"time": 2531, "pitch": 62, "duration": 7, "velocity": 89}, {"time": 2531, "pitch": 65, "duration": 12, "velocity": 89}, {"time": 2537, "pitch": 57, "duration": 18, "velocity": 66}, {"time": 2543, "pitch": 60, "duration": 3, "velocity": 94}, {"time": 2549, "pitch": 60, "duration": 2, "velocity": 35}, {"time": 2549, "pitch": 65, "duration": 15, "velocity": 92}, {"time": 2549, "pitch": 69, "duration": 15, "velocity": 92}, {"time": 2561, "pitch": 57, "duration": 11, "velocity": 71}, {"time": 2567, "pitch": 60, "duration": 3, "velocity": 87}, {"time": 2567, "pitch": 65, "duration": 3, "velocity": 94}, {"time": 2567, "pitch": 69, "duration": 4, "velocity": 94}, {"time": 2573, "pitch": 50, "duration": 2, "velocity": 49}, {"time": 2579, "pitch": 43, "duration": 5, "velocity": 100}, {"time": 2579, "pitch": 62, "duration": 19, "velocity": 87}, {"time": 2579, "pitch": 67, "duration": 18, "velocity": 94}, {"time": 2591, "pitch": 55, "duration": 15, "velocity": 62}, {"time": 2597, "pitch": 59, "duration": 10, "velocity": 78}, {"time": 2603, "pitch": 62, "duration": 10, "velocity": 108}, {"time": 2603, "pitch": 67, "duration": 9, "velocity": 105}, {"time": 2603, "pitch": 71, "duration": 10, "velocity": 105}, {"time": 2609, "pitch": 50, "duration": 11, "velocity": 44}, {"time": 2615, "pitch": 62, "duration": 3, "velocity": 105}, {"time": 2615, "pitch": 67, "duration": 6, "velocity": 114}, {"time": 2621, "pitch": 62, "duration": 2, "velocity": 94}, {"time": 2627, "pitch": 48, "duration": 34, "velocity": 102}, {"time": 2627, "pitch": 60, "duration": 7, "velocity": 92}, {"time": 2627, "pitch": 64, "duration": 7, "velocity": 89}, {"time": 2633, "pitch": 55, "duration": 7, "velocity": 64}, {"time": 2639, "pitch": 60, "duration": 10, "velocity": 97}, {"time": 2639, "pitch": 64, "duration": 9, "velocity": 97}, {"time": 2639, "pitch": 67, "duration": 10, "velocity": 100}, {"time": 2645, "pitch": 55, "duration": 29, "velocity": 62}, {"time": 2651, "pitch": 60, "duration": 3, "velocity": 92}, {"time": 2651, "pitch": 64, "duration": 9, "velocity": 102}, {"time": 2651, "pitch": 67, "duration": 10, "velocity": 102}, {"time": 2651, "pitch": 72, "duration": 5, "velocity": 100}, {"time": 2657, "pitch": 60, "duration": 4, "velocity": 92}, {"time": 2663, "pitch": 47, "duration": 9, "velocity": 102}, {"time": 2663, "pitch": 59, "duration": 4, "velocity": 67}, {"time": 2663, "pitch": 64, "duration": 8, "velocity": 82}, {"time": 2663, "pitch": 67, "duration": 8, "velocity": 80}, {"time": 2669, "pitch": 59, "duration": 3, "velocity": 46}, {"time": 2675, "pitch": 48, "duration": 17, "velocity": 102}, {"time": 2675, "pitch": 60, "duration": 6, "velocity": 76}, {"time": 2675, "pitch": 67, "duration": 10, "velocity": 89}, {"time": 2681, "pitch": 55, "duration": 12, "velocity": 69}, {"time": 2687, "pitch": 60, "duration": 6, "velocity": 114}, {"time": 2687, "pitch": 67, "duration": 1, "velocity": 20}, {"time": 2693, "pitch": 64, "duration": 1, "velocity": 67}, {"time": 2699, "pitch": 52, "duration": 15, "velocity": 102}, {"time": 2699, "pitch": 64, "duration": 8, "velocity": 78}, {"time": 2699, "pitch": 67, "duration": 7, "velocity": 94}, {"time": 2705, "pitch": 59, "duration": 9, "velocity": 73}, {"time": 2711, "pitch": 64, "duration": 3, "velocity": 92}, {"time": 2711, "pitch": 67, "duration": 5, "velocity": 105}, {"time": 2711, "pitch": 71, "duration": 6, "velocity": 97}, {"time": 2723, "pitch": 50, "duration": 47, "velocity": 97}, {"time": 2723, "pitch": 60, "duration": 7, "velocity": 89}, {"time": 2723, "pitch": 65, "duration": 8, "velocity": 92}, {"time": 2729, "pitch": 57, "duration": 9, "velocity": 55}, {"time": 2735, "pitch": 60, "duration": 5, "velocity": 89}, {"time": 2735, "pitch": 65, "duration": 9, "velocity": 89}, {"time": 2735, "pitch": 69, "duration": 10, "velocity": 94}, {"time": 2741, "pitch": 57, "duration": 9, "velocity": 60}, {"time": 2747, "pitch": 60, "duration": 9, "velocity": 105}, {"time": 2747, "pitch": 65, "duration": 9, "velocity": 97}, {"time": 2756, "pitch": 57, "duration": 5, "velocity": 15}, {"time": 2759, "pitch": 60, "duration": 2, "velocity": 114}, {"time": 2759, "pitch": 69, "duration": 9, "velocity": 105}, {"time": 2762, "pitch": 57, "duration": 6, "velocity": 84}, {"time": 2765, "pitch": 60, "duration": 3, "velocity": 89}, {"time": 2771, "pitch": 55, "duration": 43, "velocity": 100}, {"time": 2771, "pitch": 62, "duration": 8, "velocity": 94}, {"time": 2771, "pitch": 67, "duration": 8, "velocity": 92}, {"time": 2777, "pitch": 59, "duration": 37, "velocity": 58}, {"time": 2783, "pitch": 62, "duration": 3, "velocity": 102}, {"time": 2783, "pitch": 71, "duration": 10, "velocity": 102}, {"time": 2789, "pitch": 62, "duration": 4, "velocity": 69}, {"time": 2795, "pitch": 62, "duration": 9, "velocity": 84}, {"time": 2795, "pitch": 67, "duration": 8, "velocity": 84}, {"time": 2807, "pitch": 62, "duration": 3, "velocity": 100}, {"time": 2807, "pitch": 67, "duration": 7, "velocity": 97}, {"time": 2807, "pitch": 71, "duration": 9, "velocity": 100}, {"time": 2813, "pitch": 62, "duration": 3, "velocity": 60}, {"time": 2819, "pitch": 43, "duration": 16, "velocity": 105}, {"time": 2819, "pitch": 55, "duration": 7, "velocity": 73}, {"time": 2819, "pitch": 62, "duration": 9, "velocity": 82}, {"time": 2825, "pitch": 50, "duration": 10, "velocity": 78}, {"time": 2828, "pitch": 55, "duration": 6, "velocity": 97}, {"time": 2831, "pitch": 62, "duration": 4, "velocity": 76}, {"time": 2837, "pitch": 43, "duration": 31, "velocity": 102}, {"time": 2837, "pitch": 55, "duration": 14, "velocity": 84}, {"time": 2837, "pitch": 62, "duration": 17, "velocity": 102}, {"time": 2837, "pitch": 67, "duration": 17, "velocity": 102}, {"time": 2849, "pitch": 50, "duration": 9, "velocity": 66}, {"time": 2855, "pitch": 55, "duration": 11, "velocity": 100}, {"time": 2855, "pitch": 62, "duration": 11, "velocity": 105}, {"time": 2855, "pitch": 67, "duration": 12, "velocity": 97}, {"time": 2861, "pitch": 50, "duration": 6, "velocity": 87}, {"time": 2867, "pitch": 52, "duration": 6, "velocity": 102}, {"time": 2867, "pitch": 64, "duration": 7, "velocity": 89}, {"time": 2867, "pitch": 67, "duration": 1, "velocity": 97}, {"time": 2873, "pitch": 40, "duration": 3, "velocity": 127}, {"time": 2876, "pitch": 41, "duration": 5, "velocity": 127}, {"time": 2876, "pitch": 53, "duration": 5, "velocity": 87}, {"time": 2876, "pitch": 60, "duration": 3, "velocity": 100}, {"time": 2876, "pitch": 69, "duration": 3, "velocity": 100}, {"time": 2882, "pitch": 43, "duration": 9, "velocity": 127}, {"time": 2882, "pitch": 64, "duration": 15, "velocity": 102}, {"time": 2882, "pitch": 71, "duration": 16, "velocity": 89}, {"time": 2882, "pitch": 55, "duration": 9, "velocity": 100}, {"time": 2903, "pitch": 52, "duration": 6, "velocity": 97}, {"time": 2903, "pitch": 59, "duration": 6, "velocity": 87}, {"time": 2903, "pitch": 64, "duration": 3, "velocity": 76}, {"time": 2903, "pitch": 67, "duration": 6, "velocity": 87}, {"time": 2909, "pitch": 64, "duration": 2, "velocity": 76}, {"time": 2915, "pitch": 50, "duration": 38, "velocity": 97}, {"time": 2915, "pitch": 62, "duration": 7, "velocity": 89}, {"time": 2915, "pitch": 65, "duration": 12, "velocity": 89}, {"time": 2921, "pitch": 57, "duration": 18, "velocity": 66}, {"time": 2927, "pitch": 60, "duration": 3, "velocity": 94}, {"time": 2933, "pitch": 60, "duration": 2, "velocity": 35}, {"time": 2933, "pitch": 65, "duration": 15, "velocity": 92}, {"time": 2933, "pitch": 69, "duration": 15, "velocity": 92}, {"time": 2945, "pitch": 57, "duration": 11, "velocity": 71}, {"time": 2951, "pitch": 60, "duration": 3, "velocity": 87}, {"time": 2951, "pitch": 65, "duration": 3, "velocity": 94}, {"time": 2951, "pitch": 69, "duration": 4, "velocity": 94}, {"time": 2957, "pitch": 50, "duration": 2, "velocity": 49}, {"time": 2963, "pitch": 43, "duration": 5, "velocity": 100}, {"time": 2963, "pitch": 62, "duration": 19, "velocity": 87}, {"time": 2963, "pitch": 67, "duration": 18, "velocity": 94}, {"time": 2975, "pitch": 55, "duration": 15, "velocity": 62}, {"time": 2981, "pitch": 59, "duration": 10, "velocity": 78}, {"time": 2987, "pitch": 62, "duration": 10, "velocity": 108}, {"time": 2987, "pitch": 67, "duration": 9, "velocity": 105}, {"time": 2987, "pitch": 71, "duration": 10, "velocity": 105}, {"time": 2993, "pitch": 50, "duration": 11, "velocity": 44}, {"time": 2999, "pitch": 62, "duration": 3, "velocity": 105}, {"time": 2999, "pitch": 67, "duration": 6, "velocity": 114}, {"time": 3005, "pitch": 62, "duration": 2, "velocity": 94}, {"time": 3011, "pitch": 48, "duration": 34, "velocity": 102}, {"time": 3011, "pitch": 60, "duration": 7, "velocity": 92}, {"time": 3011, "pitch": 64, "duration": 7, "velocity": 89}, {"time": 3017, "pitch": 55, "duration": 7, "velocity": 64}, {"time": 3023, "pitch": 60, "duration": 10, "velocity": 97}, {"time": 3023, "pitch": 64, "duration": 9, "velocity": 97}, {"time": 3023, "pitch": 67, "duration": 10, "velocity": 100}, {"time": 3029, "pitch": 55, "duration": 29, "velocity": 62}, {"time": 3035, "pitch": 60, "duration": 3, "velocity": 92}, {"time": 3035, "pitch": 64, "duration": 9, "velocity": 102}, {"time": 3035, "pitch": 67, "duration": 10, "velocity": 102}, {"time": 3035, "pitch": 72, "duration": 5, "velocity": 100}, {"time": 3041, "pitch": 60, "duration": 4, "velocity": 92}, {"time": 3047, "pitch": 47, "duration": 9, "velocity": 102}, {"time": 3047, "pitch": 59, "duration": 4, "velocity": 67}, {"time": 3047, "pitch": 64, "duration": 8, "velocity": 82}, {"time": 3047, "pitch": 67, "duration": 8, "velocity": 80}, {"time": 3053, "pitch": 59, "duration": 3, "velocity": 46}, {"time": 3059, "pitch": 48, "duration": 17, "velocity": 102}, {"time": 3059, "pitch": 60, "duration": 6, "velocity": 76}, {"time": 3059, "pitch": 67, "duration": 10, "velocity": 89}, {"time": 3065, "pitch": 55, "duration": 12, "velocity": 69}, {"time": 3071, "pitch": 60, "duration": 6, "velocity": 114}, {"time": 3071, "pitch": 67, "duration": 1, "velocity": 20}, {"time": 3077, "pitch": 64, "duration": 1, "velocity": 67}, {"time": 3083, "pitch": 52, "duration": 15, "velocity": 102}, {"time": 3083, "pitch": 64, "duration": 8, "velocity": 78}, {"time": 3083, "pitch": 67, "duration": 7, "velocity": 94}, {"time": 3089, "pitch": 59, "duration": 9, "velocity": 73}, {"time": 3095, "pitch": 64, "duration": 3, "velocity": 92}, {"time": 3095, "pitch": 67, "duration": 5, "velocity": 105}, {"time": 3095, "pitch": 71, "duration": 6, "velocity": 97}, {"time": 3107, "pitch": 50, "duration": 47, "velocity": 97}, {"time": 3107, "pitch": 60, "duration": 7, "velocity": 89}, {"time": 3107, "pitch": 65, "duration": 8, "velocity": 92}, {"time": 3113, "pitch": 57, "duration": 9, "velocity": 55}, {"time": 3119, "pitch": 60, "duration": 5, "velocity": 89}, {"time": 3119, "pitch": 65, "duration": 9, "velocity": 89}, {"time": 3119, "pitch": 69, "duration": 10, "velocity": 94}, {"time": 3125, "pitch": 57, "duration": 9, "velocity": 60}, {"time": 3131, "pitch": 60, "duration": 9, "velocity": 105}, {"time": 3131, "pitch": 65, "duration": 9, "velocity": 97}, {"time": 3140, "pitch": 57, "duration": 5, "velocity": 15}, {"time": 3143, "pitch": 60, "duration": 2, "velocity": 114}, {"time": 3143, "pitch": 69, "duration": 9, "velocity": 105}, {"time": 3146, "pitch": 57, "duration": 6, "velocity": 84}, {"time": 3149, "pitch": 60, "duration": 3, "velocity": 89}, {"time": 3155, "pitch": 55, "duration": 43, "velocity": 100}, {"time": 3155, "pitch": 62, "duration": 8, "velocity": 94}, {"time": 3155, "pitch": 67, "duration": 8, "velocity": 92}, {"time": 3161, "pitch": 59, "duration": 37, "velocity": 58}, {"time": 3167, "pitch": 62, "duration": 3, "velocity": 102}, {"time": 3167, "pitch": 71, "duration": 10, "velocity": 102}, {"time": 3173, "pitch": 62, "duration": 4, "velocity": 69}, {"time": 3179, "pitch": 62, "duration": 9, "velocity": 84}, {"time": 3179, "pitch": 67, "duration": 8, "velocity": 84}, {"time": 3191, "pitch": 62, "duration": 3, "velocity": 100}, {"time": 3191, "pitch": 67, "duration": 7, "velocity": 97}, {"time": 3191, "pitch": 71, "duration": 9, "velocity": 100}, {"time": 3197, "pitch": 62, "duration": 3, "velocity": 60}, {"time": 3203, "pitch": 48, "duration": 15, "velocity": 97}, {"time": 3203, "pitch": 60, "duration": 4, "velocity": 78}, {"time": 3203, "pitch": 65, "duration": 4, "velocity": 94}, {"time": 3206, "pitch": 55, "duration": 11, "velocity": 67}, {"time": 3209, "pitch": 64, "duration": 4, "velocity": 82}, {"time": 3215, "pitch": 62, "duration": 3, "velocity": 97}, {"time": 3221, "pitch": 48, "duration": 30, "velocity": 100}, {"time": 3221, "pitch": 60, "duration": 29, "velocity": 71}, {"time": 3221, "pitch": 64, "duration": 29, "velocity": 84}, {"time": 3250, "pitch": 60, "duration": 1, "velocity": 57}, {"time": 3251, "pitch": 50, "duration": 18, "velocity": 97}, {"time": 3251, "pitch": 65, "duration": 17, "velocity": 89}, {"time": 3275, "pitch": 43, "duration": 60, "velocity": 51}, {"time": 3282, "pitch": 50, "duration": 52, "velocity": 64}, {"time": 3287, "pitch": 55, "duration": 48, "velocity": 108}, {"time": 3293, "pitch": 62, "duration": 42, "velocity": 78}, {"time": 3297, "pitch": 67, "duration": 38, "velocity": 33}, {"time": 3347, "pitch": 55, "duration": 12, "velocity": 84}, {"time": 3347, "pitch": 52, "duration": 7, "velocity": 78}, {"time": 3347, "pitch": 40, "duration": 19, "velocity": 100}, {"time": 3352, "pitch": 47, "duration": 14, "velocity": 78}, {"time": 3358, "pitch": 52, "duration": 7, "velocity": 100}, {"time": 3364, "pitch": 55, "duration": 5, "velocity": 62}, {"time": 3370, "pitch": 41, "duration": 2, "velocity": 100}, {"time": 3370, "pitch": 53, "duration": 11, "velocity": 89}, {"time": 3370, "pitch": 57, "duration": 11, "velocity": 94}, {"time": 3386, "pitch": 43, "duration": 29, "velocity": 100}, {"time": 3389, "pitch": 55, "duration": 13, "velocity": 48}, {"time": 3389, "pitch": 50, "duration": 24, "velocity": 55}, {"time": 3389, "pitch": 57, "duration": 13, "velocity": 31}, {"time": 3390, "pitch": 59, "duration": 28, "velocity": 44}, {"time": 3391, "pitch": 62, "duration": 29, "velocity": 29}, {"time": 3392, "pitch": 67, "duration": 28, "velocity": 32}, {"time": 3404, "pitch": 55, "duration": 15, "velocity": 5}, {"time": 3428, "pitch": 48, "duration": 96, "velocity": 100}, {"time": 3431, "pitch": 55, "duration": 92, "velocity": 64}, {"time": 3433, "pitch": 60, "duration": 3, "velocity": 50}, {"time": 3436, "pitch": 62, "duration": 2, "velocity": 71}, {"time": 3439, "pitch": 64, "duration": 5, "velocity": 58}, {"time": 3442, "pitch": 67, "duration": 81, "velocity": 62}, {"time": 3445, "pitch": 72, "duration": 79, "velocity": 80}, {"time": 3451, "pitch": 64, "duration": 72, "velocity": 1}], "annotations": [{"time": 188, "annotation": {"number": 64, "value": 127}, "group": "control_change"}, {"time": 201, "annotation": {"number": 64, "value": 0}, "group": "control_change"}, {"time": 208, "annotation": {"number": 64, "value": 127}, "group": "control_change"}, {"time": 226, "annotation": {"number": 64, "value": 0}, "group": "control_change"}, {"time": 238, "annotation": {"number": 64, "value": 127}, "group": "control_change"}, {"time": 261, "annotation": {"number": 64, "value": 0}, "group": "control_change"}, {"time": 287, "annotation": {"number": 64, "value": 127}, "group": "control_change"}, {"time": 295, "annotation": {"number": 64, "value": 0}, "group": "control_change"}, {"time": 306, "annotation": {"number": 64, "value": 127}, "group": "control_change"}, {"time": 321, "annotation": {"number": 64, "value": 0}, "group": "control_change"}, {"time": 329, "annotation": {"number": 64, "value": 127}, "group": "control_change"}, {"time": 342, "annotation": {"number": 64, "value": 0}, "group": "control_change"}, {"time": 375, "annotation": {"number": 64, "value": 127}, "group": "control_change"}, {"time": 422, "annotation": {"number": 64, "value": 0}, "group": "control_change"}, {"time": 461, "annotation": {"number": 64, "value": 0}, "group": "control_change"}, {"time": 466, "annotation": {"number": 64, "value": 127}, "group": "control_change"}, {"time": 473, "annotation": {"number": 64, "value": 127}, "group": "control_change"}, {"time": 487, "annotation": {"number": 64, "value": 0}, "group": "control_change"}, {"time": 491, "annotation": {"number": 64, "value": 127}, "group": "control_change"}, {"time": 510, "annotation": {"number": 64, "value": 0}, "group": "control_change"}, {"time": 514, "annotation": {"number": 64, "value": 0}, "group": "control_change"}, {"time": 514, "annotation": {"number": 64, "value": 127}, "group": "control_change"}, {"time": 517, "annotation": {"number": 64, "value": 127}, "group": "control_change"}, {"time": 536, "annotation": {"number": 64, "value": 0}, "group": "control_change"}, {"time": 538, "annotation": {"number": 64, "value": 127}, "group": "control_change"}, {"time": 561, "annotation": {"number": 64, "value": 0}, "group": "control_change"}, {"time": 571, "annotation": {"number": 64, "value": 127}, "group": "control_change"}, {"time": 609, "annotation": {"number": 64, "value": 0}, "group": "control_change"}, {"time": 618, "annotation": {"number": 64, "value": 127}, "group": "control_change"}, {"time": 658, "annotation": {"number": 64, "value": 0}, "group": "control_change"}, {"time": 669, "annotation": {"number": 64, "value": 127}, "group": "control_change"}, {"time": 707, "annotation": {"number": 64, "value": 0}, "group": "control_change"}, {"time": 719, "annotation": {"number": 64, "value": 127}, "group": "control_change"}, {"time": 752, "annotation": {"number": 64, "value": 0}, "group": "control_change"}, {"time": 762, "annotation": {"number": 64, "value": 127}, "group": "control_change"}, {"time": 801, "annotation": {"number": 64, "value": 0}, "group": "control_change"}, {"time": 811, "annotation": {"number": 64, "value": 127}, "group": "control_change"}, {"time": 851, "annotation": {"number": 64, "value": 0}, "group": "control_change"}, {"time": 859, "annotation": {"number": 64, "value": 127}, "group": "control_change"}, {"time": 898, "annotation": {"number": 64, "value": 0}, "group": "control_change"}, {"time": 904, "annotation": {"number": 64, "value": 127}, "group": "control_change"}, {"time": 944, "annotation": {"number": 64, "value": 0}, "group": "control_change"}, {"time": 958, "annotation": {"number": 64, "value": 127}, "group": "control_change"}, {"time": 994, "annotation": {"number": 64, "value": 0}, "group": "control_change"}, {"time": 999, "annotation": {"number": 64, "value": 127}, "group": "control_change"}, {"time": 1029, "annotation": {"number": 64, "value": 0}, "group": "control_change"}, {"time": 1030, "annotation": {"number": 64, "value": 127}, "group": "control_change"}, {"time": 1041, "annotation": {"number": 64, "value": 0}, "group": "control_change"}, {"time": 1048, "annotation": {"number": 64, "value": 127}, "group": "control_change"}, {"time": 1087, "annotation": {"number": 64, "value": 0}, "group": "control_change"}, {"time": 1091, "annotation": {"number": 64, "value": 127}, "group": "control_change"}, {"time": 1116, "annotation": {"number": 64, "value": 0}, "group": "control_change"}, {"time": 1142, "annotation": {"number": 64, "value": 127}, "group": "control_change"}, {"time": 1185, "annotation": {"number": 64, "value": 0}, "group": "control_change"}, {"time": 1193, "annotation": {"number": 64, "value": 127}, "group": "control_change"}, {"time": 1233, "annotation": {"number": 64, "value": 0}, "group": "control_change"}, {"time": 1236, "annotation": {"number": 64, "value": 127}, "group": "control_change"}, {"time": 1280, "annotation": {"number": 64, "value": 0}, "group": "control_change"}, {"time": 1286, "annotation": {"number": 64, "value": 127}, "group": "control_change"}, {"time": 1305, "annotation": {"number": 64, "value": 0}, "group": "control_change"}, {"time": 1306, "annotation": {"number": 64, "value": 127}, "group": "control_change"}, {"time": 1318, "annotation": {"number": 64, "value": 0}, "group": "control_change"}, {"time": 1320, "annotation": {"number": 64, "value": 127}, "group": "control_change"}, {"time": 1330, "annotation": {"number": 64, "value": 0}, "group": "control_change"}, {"time": 1335, "annotation": {"number": 64, "value": 127}, "group": "control_change"}, {"time": 1355, "annotation": {"number": 64, "value": 0}, "group": "control_change"}, {"time": 1360, "annotation": {"number": 64, "value": 127}, "group": "control_change"}, {"time": 1377, "annotation": {"number": 64, "value": 0}, "group": "control_change"}, {"time": 1384, "annotation": {"number": 64, "value": 127}, "group": "control_change"}, {"time": 1428, "annotation": {"number": 64, "value": 0}, "group": "control_change"}, {"time": 1434, "annotation": {"number": 64, "value": 127}, "group": "control_change"}, {"time": 1493, "annotation": {"number": 64, "value": 0}, "group": "control_change"}, {"time": 1534, "annotation": {"number": 64, "value": 127}, "group": "control_change"}, {"time": 1571, "annotation": {"number": 64, "value": 0}, "group": "control_change"}, {"time": 1579, "annotation": {"number": 64, "value": 127}, "group": "control_change"}, {"time": 1617, "annotation": {"number": 64, "value": 0}, "group": "control_change"}, {"time": 1625, "annotation": {"number": 64, "value": 127}, "group": "control_change"}, {"time": 1642, "annotation": {"number": 64, "value": 0}, "group": "control_change"}, {"time": 1649, "annotation": {"number": 64, "value": 127}, "group": "control_change"}, {"time": 1669, "annotation": {"number": 64, "value": 127}, "group": "control_change"}, {"time": 1693, "annotation": {"number": 64, "value": 0}, "group": "control_change"}, {"time": 1719, "annotation": {"number": 64, "value": 127}, "group": "control_change"}, {"time": 1766, "annotation": {"number": 64, "value": 0}, "group": "control_change"}, {"time": 1805, "annotation": {"number": 64, "value": 0}, "group": "control_change"}, {"time": 1810, "annotation": {"number": 64, "value": 127}, "group": "control_change"}, {"time": 1817, "annotation": {"number": 64, "value": 127}, "group": "control_change"}, {"time": 1831, "annotation": {"number": 64, "value": 0}, "group": "control_change"}, {"time": 1835, "annotation": {"number": 64, "value": 127}, "group": "control_change"}, {"time": 1854, "annotation": {"number": 64, "value": 0}, "group": "control_change"}, {"time": 1858, "annotation": {"number": 64, "value": 0}, "group": "control_change"}, {"time": 1858, "annotation": {"number": 64, "value": 127}, "group": "control_change"}, {"time": 1861, "annotation": {"number": 64, "value": 127}, "group": "control_change"}, {"time": 1880, "annotation": {"number": 64, "value": 0}, "group": "control_change"}, {"time": 1882, "annotation": {"number": 64, "value": 127}, "group": "control_change"}, {"time": 1905, "annotation": {"number": 64, "value": 0}, "group": "control_change"}, {"time": 1915, "annotation": {"number": 64, "value": 127}, "group": "control_change"}, {"time": 1953, "annotation": {"number": 64, "value": 0}, "group": "control_change"}, {"time": 1962, "annotation": {"number": 64, "value": 127}, "group": "control_change"}, {"time": 2002, "annotation": {"number": 64, "value": 0}, "group": "control_change"}, {"time": 2013, "annotation": {"number": 64, "value": 127}, "group": "control_change"}, {"time": 2051, "annotation": {"number": 64, "value": 0}, "group": "control_change"}, {"time": 2063, "annotation": {"number": 64, "value": 127}, "group": "control_change"}, {"time": 2096, "annotation": {"number": 64, "value": 0}, "group": "control_change"}, {"time": 2106, "annotation": {"number": 64, "value": 127}, "group": "control_change"}, {"time": 2145, "annotation": {"number": 64, "value": 0}, "group": "control_change"}, {"time": 2155, "annotation": {"number": 64, "value": 127}, "group": "control_change"}, {"time": 2195, "annotation": {"number": 64, "value": 0}, "group": "control_change"}, {"time": 2203, "annotation": {"number": 64, "value": 127}, "group": "control_change"}, {"time": 2242, "annotation": {"number": 64, "value": 0}, "group": "control_change"}, {"time": 2248, "annotation": {"number": 64, "value": 127}, "group": "control_change"}, {"time": 2288, "annotation": {"number": 64, "value": 0}, "group": "control_change"}, {"time": 2302, "annotation": {"number": 64, "value": 127}, "group": "control_change"}, {"time": 2338, "annotation": {"number": 64, "value": 0}, "group": "control_change"}, {"time": 2343, "annotation": {"number": 64, "value": 127}, "group": "control_change"}, {"time": 2373, "annotation": {"number": 64, "value": 0}, "group": "control_change"}, {"time": 2374, "annotation": {"number": 64, "value": 127}, "group": "control_change"}, {"time": 2385, "annotation": {"number": 64, "value": 0}, "group": "control_change"}, {"time": 2392, "annotation": {"number": 64, "value": 127}, "group": "control_change"}, {"time": 2431, "annotation": {"number": 64, "value": 0}, "group": "control_change"}, {"time": 2435, "annotation": {"number": 64, "value": 127}, "group": "control_change"}, {"time": 2460, "annotation": {"number": 64, "value": 0}, "group": "control_change"}, {"time": 2486, "annotation": {"number": 64, "value": 127}, "group": "control_change"}, {"time": 2529, "annotation": {"number": 64, "value": 0}, "group": "control_change"}, {"time": 2537, "annotation": {"number": 64, "value": 127}, "group": "control_change"}, {"time": 2577, "annotation": {"number": 64, "value": 0}, "group": "control_change"}, {"time": 2580, "annotation": {"number": 64, "value": 127}, "group": "control_change"}, {"time": 2624, "annotation": {"number": 64, "value": 0}, "group": "control_change"}, {"time": 2630, "annotation": {"number": 64, "value": 127}, "group": "control_change"}, {"time": 2649, "annotation": {"number": 64, "value": 0}, "group": "control_change"}, {"time": 2650, "annotation": {"number": 64, "value": 127}, "group": "control_change"}, {"time": 2662, "annotation": {"number": 64, "value": 0}, "group": "control_change"}, {"time": 2664, "annotation": {"number": 64, "value": 127}, "group": "control_change"}, {"time": 2674, "annotation": {"number": 64, "value": 0}, "group": "control_change"}, {"time": 2679, "annotation": {"number": 64, "value": 127}, "group": "control_change"}, {"time": 2699, "annotation": {"number": 64, "value": 0}, "group": "control_change"}, {"time": 2704, "annotation": {"number": 64, "value": 127}, "group": "control_change"}, {"time": 2721, "annotation": {"number": 64, "value": 0}, "group": "control_change"}, {"time": 2728, "annotation": {"number": 64, "value": 127}, "group": "control_change"}, {"time": 2772, "annotation": {"number": 64, "value": 0}, "group": "control_change"}, {"time": 2778, "annotation": {"number": 64, "value": 127}, "group": "control_change"}, {"time": 2824, "annotation": {"number": 64, "value": 127}, "group": "control_change"}, {"time": 2837, "annotation": {"number": 64, "value": 0}, "group": "control_change"}, {"time": 2838, "annotation": {"number": 64, "value": 127}, "group": "control_change"}, {"time": 2864, "annotation": {"number": 64, "value": 0}, "group": "control_change"}, {"time": 2870, "annotation": {"number": 64, "value": 127}, "group": "control_change"}, {"time": 2913, "annotation": {"number": 64, "value": 0}, "group": "control_change"}, {"time": 2921, "annotation": {"number": 64, "value": 127}, "group": "control_change"}, {"time": 2961, "annotation": {"number": 64, "value": 0}, "group": "control_change"}, {"time": 2964, "annotation": {"number": 64, "value": 127}, "group": "control_change"}, {"time": 3008, "annotation": {"number": 64, "value": 0}, "group": "control_change"}, {"time": 3014, "annotation": {"number": 64, "value": 127}, "group": "control_change"}, {"time": 3033, "annotation": {"number": 64, "value": 0}, "group": "control_change"}, {"time": 3034, "annotation": {"number": 64, "value": 127}, "group": "control_change"}, {"time": 3046, "annotation": {"number": 64, "value": 0}, "group": "control_change"}, {"time": 3048, "annotation": {"number": 64, "value": 127}, "group": "control_change"}, {"time": 3058, "annotation": {"number": 64, "value": 0}, "group": "control_change"}, {"time": 3063, "annotation": {"number": 64, "value": 127}, "group": "control_change"}, {"time": 3083, "annotation": {"number": 64, "value": 0}, "group": "control_change"}, {"time": 3088, "annotation": {"number": 64, "value": 127}, "group": "control_change"}, {"time": 3105, "annotation": {"number": 64, "value": 0}, "group": "control_change"}, {"time": 3112, "annotation": {"number": 64, "value": 127}, "group": "control_change"}, {"time": 3156, "annotation": {"number": 64, "value": 0}, "group": "control_change"}, {"time": 3162, "annotation": {"number": 64, "value": 127}, "group": "control_change"}, {"time": 3204, "annotation": {"number": 64, "value": 127}, "group": "control_change"}, {"time": 3220, "annotation": {"number": 64, "value": 0}, "group": "control_change"}, {"time": 3265, "annotation": {"number": 64, "value": 127}, "group": "control_change"}, {"time": 3300, "annotation": {"number": 64, "value": 0}, "group": "control_change"}, {"time": 3351, "annotation": {"number": 64, "value": 127}, "group": "control_change"}, {"time": 3369, "annotation": {"number": 64, "value": 0}, "group": "control_change"}, {"time": 3372, "annotation": {"number": 64, "value": 127}, "group": "control_change"}, {"time": 3390, "annotation": {"number": 64, "value": 0}, "group": "control_change"}, {"time": 3394, "annotation": {"number": 64, "value": 127}, "group": "control_change"}, {"time": 3429, "annotation": {"number": 64, "value": 0}, "group": "control_change"}, {"time": 3434, "annotation": {"number": 64, "value": 127}, "group": "control_change"}, {"time": 3533, "annotation": {"number": 64, "value": 0}, "group": "control_change"}]}]}