{"metadata": {"schema_version": "0.2", "title": "None", "source_filename": "133.mid", "source_format": "midi"}, "resolution": 12, "tempos": [{"time": 0, "qpm": 68.00014960032912}, {"time": 876, "qpm": 67.00002903334591}, {"time": 948, "qpm": 68.00014960032912}, {"time": 2243, "qpm": 67.00002903334591}, {"time": 2268, "qpm": 68.00014960032912}], "time_signatures": [{"time": 0, "numerator": 1, "denominator": 4}], "tracks": [{"program": 0, "is_drum": false, "name": "MELODY", "notes": [{"time": 568, "pitch": 59, "duration": 3, "velocity": 100}, {"time": 571, "pitch": 57, "duration": 3, "velocity": 100}, {"time": 574, "pitch": 59, "duration": 6, "velocity": 114}, {"time": 580, "pitch": 60, "duration": 3, "velocity": 94}, {"time": 583, "pitch": 57, "duration": 24, "velocity": 114}, {"time": 607, "pitch": 55, "duration": 9, "velocity": 108}, {"time": 616, "pitch": 57, "duration": 6, "velocity": 105}, {"time": 622, "pitch": 57, "duration": 6, "velocity": 105}, {"time": 628, "pitch": 52, "duration": 3, "velocity": 87}, {"time": 631, "pitch": 53, "duration": 33, "velocity": 76}, {"time": 664, "pitch": 59, "duration": 6, "velocity": 100}, {"time": 670, "pitch": 59, "duration": 6, "velocity": 102}, {"time": 676, "pitch": 57, "duration": 3, "velocity": 100}, {"time": 679, "pitch": 55, "duration": 10, "velocity": 100}, {"time": 688, "pitch": 55, "duration": 1, "velocity": 100}, {"time": 691, "pitch": 55, "duration": 3, "velocity": 97}, {"time": 694, "pitch": 57, "duration": 6, "velocity": 102}, {"time": 700, "pitch": 59, "duration": 6, "velocity": 108}, {"time": 706, "pitch": 52, "duration": 54, "velocity": 114}, {"time": 760, "pitch": 55, "duration": 6, "velocity": 102}, {"time": 766, "pitch": 53, "duration": 6, "velocity": 100}, {"time": 772, "pitch": 52, "duration": 3, "velocity": 94}, {"time": 775, "pitch": 53, "duration": 15, "velocity": 102}, {"time": 790, "pitch": 52, "duration": 6, "velocity": 111}, {"time": 796, "pitch": 64, "duration": 6, "velocity": 111}, {"time": 802, "pitch": 64, "duration": 12, "velocity": 108}, {"time": 814, "pitch": 64, "duration": 6, "velocity": 108}, {"time": 820, "pitch": 62, "duration": 3, "velocity": 100}, {"time": 823, "pitch": 62, "duration": 6, "velocity": 105}, {"time": 829, "pitch": 60, "duration": 15, "velocity": 105}, {"time": 844, "pitch": 60, "duration": 3, "velocity": 105}, {"time": 847, "pitch": 59, "duration": 3, "velocity": 108}, {"time": 850, "pitch": 62, "duration": 9, "velocity": 108}, {"time": 859, "pitch": 57, "duration": 9, "velocity": 108}, {"time": 868, "pitch": 57, "duration": 3, "velocity": 111}, {"time": 871, "pitch": 59, "duration": 3, "velocity": 82}, {"time": 874, "pitch": 60, "duration": 9, "velocity": 102}, {"time": 883, "pitch": 60, "duration": 9, "velocity": 100}, {"time": 892, "pitch": 57, "duration": 6, "velocity": 114}, {"time": 898, "pitch": 59, "duration": 9, "velocity": 111}, {"time": 907, "pitch": 59, "duration": 45, "velocity": 105}, {"time": 952, "pitch": 59, "duration": 3, "velocity": 100}, {"time": 955, "pitch": 57, "duration": 3, "velocity": 100}, {"time": 958, "pitch": 59, "duration": 6, "velocity": 114}, {"time": 964, "pitch": 60, "duration": 3, "velocity": 94}, {"time": 967, "pitch": 57, "duration": 24, "velocity": 114}, {"time": 991, "pitch": 55, "duration": 9, "velocity": 108}, {"time": 1000, "pitch": 57, "duration": 6, "velocity": 105}, {"time": 1006, "pitch": 57, "duration": 6, "velocity": 105}, {"time": 1012, "pitch": 52, "duration": 3, "velocity": 87}, {"time": 1015, "pitch": 53, "duration": 33, "velocity": 76}, {"time": 1048, "pitch": 59, "duration": 6, "velocity": 100}, {"time": 1054, "pitch": 59, "duration": 6, "velocity": 102}, {"time": 1060, "pitch": 57, "duration": 3, "velocity": 100}, {"time": 1063, "pitch": 55, "duration": 10, "velocity": 100}, {"time": 1072, "pitch": 55, "duration": 1, "velocity": 100}, {"time": 1075, "pitch": 55, "duration": 3, "velocity": 97}, {"time": 1078, "pitch": 57, "duration": 6, "velocity": 102}, {"time": 1084, "pitch": 59, "duration": 6, "velocity": 108}, {"time": 1090, "pitch": 52, "duration": 54, "velocity": 114}, {"time": 1144, "pitch": 55, "duration": 6, "velocity": 102}, {"time": 1150, "pitch": 53, "duration": 6, "velocity": 100}, {"time": 1156, "pitch": 52, "duration": 3, "velocity": 94}, {"time": 1159, "pitch": 53, "duration": 15, "velocity": 102}, {"time": 1174, "pitch": 52, "duration": 6, "velocity": 111}, {"time": 1180, "pitch": 64, "duration": 6, "velocity": 111}, {"time": 1186, "pitch": 64, "duration": 12, "velocity": 108}, {"time": 1198, "pitch": 64, "duration": 6, "velocity": 108}, {"time": 1204, "pitch": 62, "duration": 3, "velocity": 100}, {"time": 1207, "pitch": 62, "duration": 6, "velocity": 105}, {"time": 1213, "pitch": 60, "duration": 15, "velocity": 105}, {"time": 1228, "pitch": 60, "duration": 3, "velocity": 105}, {"time": 1231, "pitch": 59, "duration": 3, "velocity": 108}, {"time": 1234, "pitch": 62, "duration": 9, "velocity": 108}, {"time": 1243, "pitch": 57, "duration": 9, "velocity": 108}, {"time": 1252, "pitch": 57, "duration": 3, "velocity": 111}, {"time": 1255, "pitch": 57, "duration": 3, "velocity": 82}, {"time": 1258, "pitch": 59, "duration": 6, "velocity": 102}, {"time": 1264, "pitch": 59, "duration": 6, "velocity": 102}, {"time": 1270, "pitch": 60, "duration": 6, "velocity": 100}, {"time": 1276, "pitch": 59, "duration": 3, "velocity": 97}, {"time": 1279, "pitch": 59, "duration": 9, "velocity": 105}, {"time": 1288, "pitch": 57, "duration": 90, "velocity": 100}, {"time": 1378, "pitch": 65, "duration": 3, "velocity": 97}, {"time": 1381, "pitch": 65, "duration": 3, "velocity": 105}, {"time": 1384, "pitch": 65, "duration": 3, "velocity": 108}, {"time": 1387, "pitch": 64, "duration": 3, "velocity": 100}, {"time": 1390, "pitch": 65, "duration": 6, "velocity": 111}, {"time": 1396, "pitch": 64, "duration": 3, "velocity": 100}, {"time": 1399, "pitch": 64, "duration": 9, "velocity": 108}, {"time": 1408, "pitch": 62, "duration": 9, "velocity": 108}, {"time": 1417, "pitch": 62, "duration": 3, "velocity": 100}, {"time": 1420, "pitch": 62, "duration": 3, "velocity": 102}, {"time": 1423, "pitch": 62, "duration": 3, "velocity": 100}, {"time": 1426, "pitch": 64, "duration": 6, "velocity": 105}, {"time": 1432, "pitch": 64, "duration": 6, "velocity": 102}, {"time": 1438, "pitch": 64, "duration": 6, "velocity": 108}, {"time": 1444, "pitch": 62, "duration": 3, "velocity": 97}, {"time": 1447, "pitch": 62, "duration": 9, "velocity": 108}, {"time": 1456, "pitch": 60, "duration": 12, "velocity": 111}, {"time": 1468, "pitch": 64, "duration": 3, "velocity": 108}, {"time": 1471, "pitch": 60, "duration": 3, "velocity": 102}, {"time": 1474, "pitch": 62, "duration": 3, "velocity": 100}, {"time": 1477, "pitch": 62, "duration": 3, "velocity": 89}, {"time": 1480, "pitch": 62, "duration": 6, "velocity": 102}, {"time": 1486, "pitch": 62, "duration": 6, "velocity": 111}, {"time": 1492, "pitch": 57, "duration": 3, "velocity": 108}, {"time": 1495, "pitch": 59, "duration": 6, "velocity": 111}, {"time": 1501, "pitch": 59, "duration": 15, "velocity": 111}, {"time": 1516, "pitch": 57, "duration": 3, "velocity": 117}, {"time": 1519, "pitch": 59, "duration": 3, "velocity": 111}, {"time": 1522, "pitch": 60, "duration": 6, "velocity": 114}, {"time": 1528, "pitch": 60, "duration": 3, "velocity": 94}, {"time": 1531, "pitch": 60, "duration": 3, "velocity": 105}, {"time": 1534, "pitch": 60, "duration": 6, "velocity": 111}, {"time": 1540, "pitch": 62, "duration": 3, "velocity": 100}, {"time": 1543, "pitch": 64, "duration": 27, "velocity": 108}, {"time": 1570, "pitch": 65, "duration": 3, "velocity": 102}, {"time": 1573, "pitch": 65, "duration": 3, "velocity": 100}, {"time": 1576, "pitch": 65, "duration": 3, "velocity": 105}, {"time": 1579, "pitch": 64, "duration": 3, "velocity": 94}, {"time": 1582, "pitch": 65, "duration": 6, "velocity": 111}, {"time": 1588, "pitch": 65, "duration": 3, "velocity": 100}, {"time": 1591, "pitch": 67, "duration": 9, "velocity": 111}, {"time": 1600, "pitch": 62, "duration": 9, "velocity": 114}, {"time": 1609, "pitch": 62, "duration": 3, "velocity": 89}, {"time": 1612, "pitch": 62, "duration": 3, "velocity": 92}, {"time": 1615, "pitch": 62, "duration": 3, "velocity": 108}, {"time": 1618, "pitch": 64, "duration": 3, "velocity": 111}, {"time": 1621, "pitch": 64, "duration": 6, "velocity": 102}, {"time": 1627, "pitch": 67, "duration": 9, "velocity": 117}, {"time": 1636, "pitch": 64, "duration": 6, "velocity": 97}, {"time": 1642, "pitch": 62, "duration": 6, "velocity": 111}, {"time": 1648, "pitch": 60, "duration": 12, "velocity": 111}, {"time": 1660, "pitch": 60, "duration": 3, "velocity": 111}, {"time": 1663, "pitch": 60, "duration": 3, "velocity": 102}, {"time": 1666, "pitch": 62, "duration": 3, "velocity": 105}, {"time": 1669, "pitch": 62, "duration": 6, "velocity": 100}, {"time": 1675, "pitch": 62, "duration": 3, "velocity": 92}, {"time": 1678, "pitch": 62, "duration": 6, "velocity": 105}, {"time": 1684, "pitch": 60, "duration": 3, "velocity": 100}, {"time": 1687, "pitch": 59, "duration": 9, "velocity": 108}, {"time": 1696, "pitch": 59, "duration": 3, "velocity": 94}, {"time": 1699, "pitch": 59, "duration": 3, "velocity": 94}, {"time": 1702, "pitch": 59, "duration": 3, "velocity": 92}, {"time": 1705, "pitch": 59, "duration": 6, "velocity": 105}, {"time": 1711, "pitch": 59, "duration": 3, "velocity": 100}, {"time": 1714, "pitch": 60, "duration": 6, "velocity": 111}, {"time": 1720, "pitch": 59, "duration": 12, "velocity": 105}, {"time": 1732, "pitch": 57, "duration": 32, "velocity": 108}, {"time": 2272, "pitch": 59, "duration": 3, "velocity": 100}, {"time": 2275, "pitch": 57, "duration": 3, "velocity": 100}, {"time": 2278, "pitch": 59, "duration": 6, "velocity": 114}, {"time": 2284, "pitch": 60, "duration": 3, "velocity": 94}, {"time": 2287, "pitch": 57, "duration": 24, "velocity": 114}, {"time": 2311, "pitch": 55, "duration": 9, "velocity": 108}, {"time": 2320, "pitch": 57, "duration": 6, "velocity": 105}, {"time": 2326, "pitch": 57, "duration": 6, "velocity": 105}, {"time": 2332, "pitch": 52, "duration": 3, "velocity": 87}, {"time": 2335, "pitch": 53, "duration": 33, "velocity": 76}, {"time": 2368, "pitch": 59, "duration": 6, "velocity": 100}, {"time": 2374, "pitch": 59, "duration": 6, "velocity": 102}, {"time": 2380, "pitch": 57, "duration": 3, "velocity": 100}, {"time": 2383, "pitch": 55, "duration": 10, "velocity": 100}, {"time": 2392, "pitch": 55, "duration": 1, "velocity": 100}, {"time": 2395, "pitch": 55, "duration": 3, "velocity": 97}, {"time": 2398, "pitch": 57, "duration": 6, "velocity": 102}, {"time": 2404, "pitch": 59, "duration": 6, "velocity": 108}, {"time": 2410, "pitch": 52, "duration": 54, "velocity": 114}, {"time": 2464, "pitch": 55, "duration": 6, "velocity": 102}, {"time": 2470, "pitch": 53, "duration": 6, "velocity": 100}, {"time": 2476, "pitch": 52, "duration": 3, "velocity": 94}, {"time": 2479, "pitch": 53, "duration": 15, "velocity": 102}, {"time": 2494, "pitch": 52, "duration": 6, "velocity": 111}, {"time": 2500, "pitch": 64, "duration": 6, "velocity": 111}, {"time": 2506, "pitch": 64, "duration": 12, "velocity": 108}, {"time": 2518, "pitch": 64, "duration": 6, "velocity": 108}, {"time": 2524, "pitch": 62, "duration": 3, "velocity": 100}, {"time": 2527, "pitch": 62, "duration": 6, "velocity": 105}, {"time": 2533, "pitch": 60, "duration": 15, "velocity": 105}, {"time": 2548, "pitch": 60, "duration": 3, "velocity": 105}, {"time": 2551, "pitch": 59, "duration": 3, "velocity": 108}, {"time": 2554, "pitch": 62, "duration": 9, "velocity": 108}, {"time": 2563, "pitch": 57, "duration": 9, "velocity": 108}, {"time": 2572, "pitch": 57, "duration": 3, "velocity": 111}, {"time": 2575, "pitch": 59, "duration": 3, "velocity": 82}, {"time": 2578, "pitch": 60, "duration": 9, "velocity": 102}, {"time": 2587, "pitch": 60, "duration": 9, "velocity": 100}, {"time": 2596, "pitch": 57, "duration": 6, "velocity": 114}, {"time": 2602, "pitch": 59, "duration": 9, "velocity": 111}, {"time": 2611, "pitch": 59, "duration": 45, "velocity": 105}, {"time": 2656, "pitch": 59, "duration": 3, "velocity": 100}, {"time": 2659, "pitch": 57, "duration": 3, "velocity": 100}, {"time": 2662, "pitch": 59, "duration": 6, "velocity": 114}, {"time": 2668, "pitch": 60, "duration": 3, "velocity": 94}, {"time": 2671, "pitch": 57, "duration": 24, "velocity": 114}, {"time": 2695, "pitch": 55, "duration": 9, "velocity": 108}, {"time": 2704, "pitch": 57, "duration": 6, "velocity": 105}, {"time": 2710, "pitch": 57, "duration": 6, "velocity": 105}, {"time": 2716, "pitch": 52, "duration": 3, "velocity": 87}, {"time": 2719, "pitch": 53, "duration": 33, "velocity": 76}, {"time": 2752, "pitch": 59, "duration": 6, "velocity": 100}, {"time": 2758, "pitch": 59, "duration": 6, "velocity": 102}, {"time": 2764, "pitch": 57, "duration": 3, "velocity": 100}, {"time": 2767, "pitch": 55, "duration": 10, "velocity": 100}, {"time": 2776, "pitch": 55, "duration": 1, "velocity": 100}, {"time": 2779, "pitch": 55, "duration": 3, "velocity": 97}, {"time": 2782, "pitch": 57, "duration": 6, "velocity": 102}, {"time": 2788, "pitch": 59, "duration": 6, "velocity": 108}, {"time": 2794, "pitch": 52, "duration": 54, "velocity": 114}, {"time": 2848, "pitch": 55, "duration": 6, "velocity": 102}, {"time": 2854, "pitch": 53, "duration": 6, "velocity": 100}, {"time": 2860, "pitch": 52, "duration": 3, "velocity": 94}, {"time": 2863, "pitch": 53, "duration": 15, "velocity": 102}, {"time": 2878, "pitch": 52, "duration": 6, "velocity": 111}, {"time": 2884, "pitch": 64, "duration": 6, "velocity": 111}, {"time": 2890, "pitch": 64, "duration": 12, "velocity": 108}, {"time": 2902, "pitch": 64, "duration": 6, "velocity": 108}, {"time": 2908, "pitch": 62, "duration": 3, "velocity": 100}, {"time": 2911, "pitch": 62, "duration": 6, "velocity": 105}, {"time": 2917, "pitch": 60, "duration": 15, "velocity": 105}, {"time": 2932, "pitch": 60, "duration": 3, "velocity": 105}, {"time": 2935, "pitch": 59, "duration": 3, "velocity": 108}, {"time": 2938, "pitch": 62, "duration": 9, "velocity": 108}, {"time": 2947, "pitch": 57, "duration": 9, "velocity": 108}, {"time": 2956, "pitch": 57, "duration": 3, "velocity": 111}, {"time": 2959, "pitch": 57, "duration": 3, "velocity": 82}, {"time": 2962, "pitch": 59, "duration": 6, "velocity": 102}, {"time": 2968, "pitch": 59, "duration": 6, "velocity": 102}, {"time": 2974, "pitch": 60, "duration": 6, "velocity": 100}, {"time": 2980, "pitch": 59, "duration": 3, "velocity": 97}, {"time": 2983, "pitch": 59, "duration": 9, "velocity": 105}, {"time": 2992, "pitch": 57, "duration": 90, "velocity": 100}, {"time": 3082, "pitch": 65, "duration": 3, "velocity": 97}, {"time": 3085, "pitch": 65, "duration": 3, "velocity": 105}, {"time": 3088, "pitch": 65, "duration": 3, "velocity": 108}, {"time": 3091, "pitch": 64, "duration": 3, "velocity": 100}, {"time": 3094, "pitch": 65, "duration": 6, "velocity": 111}, {"time": 3100, "pitch": 64, "duration": 3, "velocity": 100}, {"time": 3103, "pitch": 64, "duration": 9, "velocity": 108}, {"time": 3112, "pitch": 62, "duration": 9, "velocity": 108}, {"time": 3121, "pitch": 62, "duration": 3, "velocity": 100}, {"time": 3124, "pitch": 62, "duration": 3, "velocity": 102}, {"time": 3127, "pitch": 62, "duration": 3, "velocity": 100}, {"time": 3130, "pitch": 64, "duration": 6, "velocity": 105}, {"time": 3136, "pitch": 64, "duration": 6, "velocity": 102}, {"time": 3142, "pitch": 64, "duration": 6, "velocity": 108}, {"time": 3148, "pitch": 62, "duration": 3, "velocity": 97}, {"time": 3151, "pitch": 62, "duration": 9, "velocity": 108}, {"time": 3160, "pitch": 60, "duration": 12, "velocity": 111}, {"time": 3172, "pitch": 64, "duration": 3, "velocity": 108}, {"time": 3175, "pitch": 60, "duration": 3, "velocity": 102}, {"time": 3178, "pitch": 62, "duration": 3, "velocity": 100}, {"time": 3181, "pitch": 62, "duration": 3, "velocity": 89}, {"time": 3184, "pitch": 62, "duration": 6, "velocity": 102}, {"time": 3190, "pitch": 62, "duration": 6, "velocity": 111}, {"time": 3196, "pitch": 57, "duration": 3, "velocity": 108}, {"time": 3199, "pitch": 59, "duration": 6, "velocity": 111}, {"time": 3205, "pitch": 59, "duration": 15, "velocity": 111}, {"time": 3220, "pitch": 57, "duration": 3, "velocity": 117}, {"time": 3223, "pitch": 59, "duration": 3, "velocity": 111}, {"time": 3226, "pitch": 60, "duration": 6, "velocity": 114}, {"time": 3232, "pitch": 60, "duration": 3, "velocity": 94}, {"time": 3235, "pitch": 60, "duration": 3, "velocity": 105}, {"time": 3238, "pitch": 60, "duration": 6, "velocity": 111}, {"time": 3244, "pitch": 62, "duration": 3, "velocity": 100}, {"time": 3247, "pitch": 64, "duration": 27, "velocity": 108}, {"time": 3274, "pitch": 65, "duration": 3, "velocity": 102}, {"time": 3277, "pitch": 65, "duration": 3, "velocity": 100}, {"time": 3280, "pitch": 65, "duration": 3, "velocity": 105}, {"time": 3283, "pitch": 64, "duration": 3, "velocity": 94}, {"time": 3286, "pitch": 65, "duration": 6, "velocity": 111}, {"time": 3292, "pitch": 65, "duration": 3, "velocity": 100}, {"time": 3295, "pitch": 67, "duration": 9, "velocity": 111}, {"time": 3304, "pitch": 62, "duration": 9, "velocity": 114}, {"time": 3313, "pitch": 62, "duration": 3, "velocity": 89}, {"time": 3316, "pitch": 62, "duration": 3, "velocity": 92}, {"time": 3319, "pitch": 62, "duration": 3, "velocity": 108}, {"time": 3322, "pitch": 64, "duration": 3, "velocity": 111}, {"time": 3325, "pitch": 64, "duration": 6, "velocity": 102}, {"time": 3331, "pitch": 67, "duration": 9, "velocity": 117}, {"time": 3340, "pitch": 64, "duration": 6, "velocity": 97}, {"time": 3346, "pitch": 62, "duration": 6, "velocity": 111}, {"time": 3352, "pitch": 60, "duration": 12, "velocity": 111}, {"time": 3364, "pitch": 60, "duration": 3, "velocity": 111}, {"time": 3367, "pitch": 60, "duration": 3, "velocity": 102}, {"time": 3370, "pitch": 62, "duration": 3, "velocity": 105}, {"time": 3373, "pitch": 62, "duration": 6, "velocity": 100}, {"time": 3379, "pitch": 62, "duration": 3, "velocity": 92}, {"time": 3382, "pitch": 62, "duration": 6, "velocity": 105}, {"time": 3388, "pitch": 60, "duration": 3, "velocity": 100}, {"time": 3391, "pitch": 59, "duration": 9, "velocity": 108}, {"time": 3400, "pitch": 59, "duration": 3, "velocity": 94}, {"time": 3403, "pitch": 59, "duration": 3, "velocity": 94}, {"time": 3406, "pitch": 59, "duration": 3, "velocity": 92}, {"time": 3409, "pitch": 59, "duration": 6, "velocity": 105}, {"time": 3415, "pitch": 59, "duration": 3, "velocity": 100}, {"time": 3418, "pitch": 60, "duration": 6, "velocity": 111}, {"time": 3424, "pitch": 59, "duration": 12, "velocity": 105}, {"time": 3436, "pitch": 57, "duration": 30, "velocity": 108}, {"time": 3466, "pitch": 65, "duration": 3, "velocity": 97}, {"time": 3469, "pitch": 65, "duration": 3, "velocity": 105}, {"time": 3472, "pitch": 65, "duration": 3, "velocity": 108}, {"time": 3475, "pitch": 64, "duration": 3, "velocity": 100}, {"time": 3478, "pitch": 65, "duration": 6, "velocity": 111}, {"time": 3484, "pitch": 64, "duration": 3, "velocity": 100}, {"time": 3487, "pitch": 64, "duration": 9, "velocity": 108}, {"time": 3496, "pitch": 62, "duration": 9, "velocity": 108}, {"time": 3505, "pitch": 62, "duration": 3, "velocity": 100}, {"time": 3508, "pitch": 62, "duration": 3, "velocity": 102}, {"time": 3511, "pitch": 62, "duration": 3, "velocity": 100}, {"time": 3514, "pitch": 64, "duration": 6, "velocity": 105}, {"time": 3520, "pitch": 64, "duration": 6, "velocity": 102}, {"time": 3526, "pitch": 64, "duration": 6, "velocity": 108}, {"time": 3532, "pitch": 62, "duration": 3, "velocity": 97}, {"time": 3535, "pitch": 62, "duration": 9, "velocity": 108}, {"time": 3544, "pitch": 60, "duration": 12, "velocity": 111}, {"time": 3556, "pitch": 64, "duration": 3, "velocity": 108}, {"time": 3559, "pitch": 60, "duration": 3, "velocity": 102}, {"time": 3562, "pitch": 62, "duration": 3, "velocity": 100}, {"time": 3565, "pitch": 62, "duration": 3, "velocity": 89}, {"time": 3568, "pitch": 62, "duration": 6, "velocity": 102}, {"time": 3574, "pitch": 62, "duration": 6, "velocity": 111}, {"time": 3580, "pitch": 57, "duration": 3, "velocity": 108}, {"time": 3583, "pitch": 59, "duration": 6, "velocity": 111}, {"time": 3589, "pitch": 59, "duration": 15, "velocity": 111}, {"time": 3604, "pitch": 57, "duration": 3, "velocity": 117}, {"time": 3607, "pitch": 59, "duration": 3, "velocity": 111}, {"time": 3610, "pitch": 60, "duration": 6, "velocity": 114}, {"time": 3616, "pitch": 60, "duration": 3, "velocity": 94}, {"time": 3619, "pitch": 60, "duration": 3, "velocity": 105}, {"time": 3622, "pitch": 60, "duration": 6, "velocity": 111}, {"time": 3628, "pitch": 62, "duration": 3, "velocity": 100}, {"time": 3631, "pitch": 64, "duration": 27, "velocity": 108}, {"time": 3658, "pitch": 65, "duration": 3, "velocity": 102}, {"time": 3661, "pitch": 65, "duration": 3, "velocity": 100}, {"time": 3664, "pitch": 65, "duration": 3, "velocity": 105}, {"time": 3667, "pitch": 64, "duration": 3, "velocity": 94}, {"time": 3670, "pitch": 65, "duration": 6, "velocity": 111}, {"time": 3676, "pitch": 65, "duration": 3, "velocity": 100}, {"time": 3679, "pitch": 67, "duration": 9, "velocity": 111}, {"time": 3688, "pitch": 62, "duration": 9, "velocity": 114}, {"time": 3697, "pitch": 62, "duration": 3, "velocity": 89}, {"time": 3700, "pitch": 62, "duration": 3, "velocity": 92}, {"time": 3703, "pitch": 62, "duration": 3, "velocity": 108}, {"time": 3706, "pitch": 64, "duration": 3, "velocity": 111}, {"time": 3709, "pitch": 64, "duration": 6, "velocity": 102}, {"time": 3715, "pitch": 67, "duration": 9, "velocity": 117}, {"time": 3724, "pitch": 64, "duration": 6, "velocity": 97}, {"time": 3730, "pitch": 62, "duration": 6, "velocity": 111}, {"time": 3736, "pitch": 60, "duration": 12, "velocity": 111}, {"time": 3748, "pitch": 60, "duration": 3, "velocity": 111}, {"time": 3751, "pitch": 60, "duration": 3, "velocity": 102}, {"time": 3754, "pitch": 62, "duration": 3, "velocity": 105}, {"time": 3757, "pitch": 62, "duration": 6, "velocity": 100}, {"time": 3763, "pitch": 62, "duration": 3, "velocity": 92}, {"time": 3766, "pitch": 62, "duration": 6, "velocity": 105}, {"time": 3772, "pitch": 60, "duration": 3, "velocity": 100}, {"time": 3775, "pitch": 59, "duration": 9, "velocity": 108}, {"time": 3784, "pitch": 59, "duration": 3, "velocity": 94}, {"time": 3787, "pitch": 59, "duration": 3, "velocity": 94}, {"time": 3790, "pitch": 59, "duration": 3, "velocity": 92}, {"time": 3793, "pitch": 59, "duration": 6, "velocity": 105}, {"time": 3799, "pitch": 59, "duration": 3, "velocity": 100}, {"time": 3802, "pitch": 60, "duration": 6, "velocity": 111}, {"time": 3808, "pitch": 59, "duration": 12, "velocity": 105}, {"time": 3820, "pitch": 57, "duration": 32, "velocity": 108}]}, {"program": 0, "is_drum": false, "name": "BRIDGE", "notes": [{"time": 106, "pitch": 76, "duration": 24, "velocity": 114}, {"time": 118, "pitch": 60, "duration": 4, "velocity": 92}, {"time": 121, "pitch": 52, "duration": 4, "velocity": 82}, {"time": 124, "pitch": 59, "duration": 4, "velocity": 84}, {"time": 127, "pitch": 52, "duration": 3, "velocity": 87}, {"time": 130, "pitch": 60, "duration": 18, "velocity": 92}, {"time": 130, "pitch": 81, "duration": 18, "velocity": 114}, {"time": 148, "pitch": 62, "duration": 6, "velocity": 87}, {"time": 148, "pitch": 76, "duration": 6, "velocity": 114}, {"time": 154, "pitch": 64, "duration": 6, "velocity": 100}, {"time": 154, "pitch": 79, "duration": 6, "velocity": 117}, {"time": 160, "pitch": 65, "duration": 6, "velocity": 97}, {"time": 160, "pitch": 81, "duration": 6, "velocity": 111}, {"time": 166, "pitch": 62, "duration": 6, "velocity": 100}, {"time": 166, "pitch": 77, "duration": 6, "velocity": 117}, {"time": 172, "pitch": 64, "duration": 6, "velocity": 97}, {"time": 172, "pitch": 79, "duration": 6, "velocity": 114}, {"time": 178, "pitch": 64, "duration": 6, "velocity": 97}, {"time": 178, "pitch": 77, "duration": 6, "velocity": 114}, {"time": 184, "pitch": 62, "duration": 12, "velocity": 100}, {"time": 184, "pitch": 74, "duration": 12, "velocity": 114}, {"time": 196, "pitch": 60, "duration": 6, "velocity": 97}, {"time": 196, "pitch": 72, "duration": 6, "velocity": 102}, {"time": 202, "pitch": 59, "duration": 6, "velocity": 105}, {"time": 202, "pitch": 71, "duration": 23, "velocity": 120}, {"time": 205, "pitch": 55, "duration": 3, "velocity": 97}, {"time": 208, "pitch": 59, "duration": 3, "velocity": 102}, {"time": 211, "pitch": 55, "duration": 3, "velocity": 94}, {"time": 214, "pitch": 62, "duration": 3, "velocity": 102}, {"time": 217, "pitch": 55, "duration": 3, "velocity": 92}, {"time": 220, "pitch": 65, "duration": 3, "velocity": 97}, {"time": 223, "pitch": 55, "duration": 3, "velocity": 100}, {"time": 226, "pitch": 67, "duration": 6, "velocity": 114}, {"time": 226, "pitch": 72, "duration": 12, "velocity": 117}, {"time": 232, "pitch": 69, "duration": 12, "velocity": 114}, {"time": 238, "pitch": 74, "duration": 6, "velocity": 111}, {"time": 244, "pitch": 67, "duration": 6, "velocity": 108}, {"time": 244, "pitch": 79, "duration": 6, "velocity": 117}, {"time": 250, "pitch": 65, "duration": 6, "velocity": 102}, {"time": 250, "pitch": 77, "duration": 6, "velocity": 111}, {"time": 256, "pitch": 64, "duration": 24, "velocity": 102}, {"time": 256, "pitch": 76, "duration": 24, "velocity": 114}, {"time": 280, "pitch": 62, "duration": 6, "velocity": 87}, {"time": 280, "pitch": 74, "duration": 6, "velocity": 111}, {"time": 286, "pitch": 60, "duration": 6, "velocity": 100}, {"time": 286, "pitch": 72, "duration": 6, "velocity": 114}, {"time": 292, "pitch": 62, "duration": 6, "velocity": 100}, {"time": 292, "pitch": 74, "duration": 6, "velocity": 105}, {"time": 298, "pitch": 62, "duration": 6, "velocity": 105}, {"time": 298, "pitch": 74, "duration": 6, "velocity": 108}, {"time": 304, "pitch": 69, "duration": 17, "velocity": 111}, {"time": 304, "pitch": 81, "duration": 15, "velocity": 111}, {"time": 319, "pitch": 64, "duration": 3, "velocity": 89}, {"time": 322, "pitch": 65, "duration": 3, "velocity": 105}, {"time": 322, "pitch": 72, "duration": 5, "velocity": 108}, {"time": 325, "pitch": 64, "duration": 3, "velocity": 94}, {"time": 328, "pitch": 65, "duration": 3, "velocity": 97}, {"time": 328, "pitch": 71, "duration": 4, "velocity": 114}, {"time": 331, "pitch": 64, "duration": 3, "velocity": 89}, {"time": 334, "pitch": 67, "duration": 3, "velocity": 108}, {"time": 334, "pitch": 74, "duration": 4, "velocity": 111}, {"time": 337, "pitch": 64, "duration": 3, "velocity": 84}, {"time": 340, "pitch": 65, "duration": 3, "velocity": 87}, {"time": 340, "pitch": 76, "duration": 4, "velocity": 108}, {"time": 343, "pitch": 64, "duration": 3, "velocity": 82}, {"time": 346, "pitch": 64, "duration": 6, "velocity": 84}, {"time": 346, "pitch": 72, "duration": 6, "velocity": 102}, {"time": 346, "pitch": 76, "duration": 6, "velocity": 111}, {"time": 352, "pitch": 62, "duration": 6, "velocity": 80}, {"time": 352, "pitch": 71, "duration": 6, "velocity": 80}, {"time": 352, "pitch": 74, "duration": 6, "velocity": 92}, {"time": 358, "pitch": 62, "duration": 6, "velocity": 89}, {"time": 358, "pitch": 71, "duration": 6, "velocity": 89}, {"time": 358, "pitch": 74, "duration": 6, "velocity": 100}, {"time": 364, "pitch": 60, "duration": 20, "velocity": 97}, {"time": 364, "pitch": 69, "duration": 22, "velocity": 100}, {"time": 364, "pitch": 72, "duration": 18, "velocity": 108}, {"time": 382, "pitch": 74, "duration": 3, "velocity": 111}, {"time": 385, "pitch": 72, "duration": 3, "velocity": 102}, {"time": 388, "pitch": 71, "duration": 3, "velocity": 108}, {"time": 391, "pitch": 72, "duration": 3, "velocity": 111}, {"time": 394, "pitch": 62, "duration": 18, "velocity": 84}, {"time": 394, "pitch": 74, "duration": 18, "velocity": 114}, {"time": 412, "pitch": 64, "duration": 6, "velocity": 94}, {"time": 412, "pitch": 76, "duration": 6, "velocity": 111}, {"time": 418, "pitch": 65, "duration": 18, "velocity": 87}, {"time": 418, "pitch": 77, "duration": 18, "velocity": 114}, {"time": 436, "pitch": 62, "duration": 6, "velocity": 92}, {"time": 436, "pitch": 74, "duration": 6, "velocity": 114}, {"time": 442, "pitch": 62, "duration": 3, "velocity": 89}, {"time": 442, "pitch": 76, "duration": 24, "velocity": 111}, {"time": 445, "pitch": 60, "duration": 3, "velocity": 50}, {"time": 448, "pitch": 59, "duration": 42, "velocity": 100}, {"time": 466, "pitch": 76, "duration": 3, "velocity": 102}, {"time": 469, "pitch": 77, "duration": 3, "velocity": 94}, {"time": 472, "pitch": 80, "duration": 3, "velocity": 105}, {"time": 475, "pitch": 74, "duration": 3, "velocity": 114}, {"time": 478, "pitch": 76, "duration": 3, "velocity": 114}, {"time": 481, "pitch": 71, "duration": 3, "velocity": 114}, {"time": 484, "pitch": 74, "duration": 3, "velocity": 114}, {"time": 487, "pitch": 68, "duration": 3, "velocity": 114}, {"time": 490, "pitch": 71, "duration": 3, "velocity": 114}, {"time": 493, "pitch": 65, "duration": 3, "velocity": 114}, {"time": 496, "pitch": 68, "duration": 3, "velocity": 114}, {"time": 499, "pitch": 62, "duration": 3, "velocity": 114}, {"time": 502, "pitch": 64, "duration": 3, "velocity": 114}, {"time": 505, "pitch": 68, "duration": 3, "velocity": 114}, {"time": 508, "pitch": 71, "duration": 3, "velocity": 114}, {"time": 511, "pitch": 65, "duration": 3, "velocity": 114}, {"time": 514, "pitch": 64, "duration": 30, "velocity": 114}, {"time": 544, "pitch": 56, "duration": 7, "velocity": 85}, {"time": 544, "pitch": 68, "duration": 7, "velocity": 96}, {"time": 550, "pitch": 59, "duration": 24, "velocity": 87}, {"time": 550, "pitch": 71, "duration": 24, "velocity": 100}, {"time": 640, "pitch": 69, "duration": 6, "velocity": 108}, {"time": 646, "pitch": 74, "duration": 6, "velocity": 114}, {"time": 652, "pitch": 77, "duration": 6, "velocity": 97}, {"time": 658, "pitch": 79, "duration": 30, "velocity": 108}, {"time": 688, "pitch": 71, "duration": 6, "velocity": 102}, {"time": 694, "pitch": 74, "duration": 6, "velocity": 100}, {"time": 700, "pitch": 77, "duration": 6, "velocity": 102}, {"time": 706, "pitch": 76, "duration": 18, "velocity": 102}, {"time": 724, "pitch": 72, "duration": 3, "velocity": 97}, {"time": 727, "pitch": 74, "duration": 3, "velocity": 94}, {"time": 730, "pitch": 76, "duration": 12, "velocity": 102}, {"time": 742, "pitch": 64, "duration": 6, "velocity": 100}, {"time": 748, "pitch": 67, "duration": 6, "velocity": 87}, {"time": 754, "pitch": 65, "duration": 30, "velocity": 92}, {"time": 784, "pitch": 69, "duration": 7, "velocity": 97}, {"time": 790, "pitch": 74, "duration": 6, "velocity": 94}, {"time": 796, "pitch": 77, "duration": 6, "velocity": 102}, {"time": 802, "pitch": 76, "duration": 36, "velocity": 100}, {"time": 838, "pitch": 81, "duration": 6, "velocity": 102}, {"time": 844, "pitch": 76, "duration": 6, "velocity": 105}, {"time": 850, "pitch": 74, "duration": 66, "velocity": 114}, {"time": 916, "pitch": 76, "duration": 6, "velocity": 108}, {"time": 922, "pitch": 74, "duration": 6, "velocity": 105}, {"time": 928, "pitch": 71, "duration": 6, "velocity": 108}, {"time": 934, "pitch": 68, "duration": 6, "velocity": 105}, {"time": 940, "pitch": 65, "duration": 6, "velocity": 114}, {"time": 946, "pitch": 64, "duration": 24, "velocity": 102}, {"time": 946, "pitch": 76, "duration": 24, "velocity": 100}, {"time": 970, "pitch": 81, "duration": 18, "velocity": 87}, {"time": 988, "pitch": 76, "duration": 1, "velocity": 89}, {"time": 988, "pitch": 76, "duration": 6, "velocity": 84}, {"time": 994, "pitch": 77, "duration": 23, "velocity": 89}, {"time": 1012, "pitch": 71, "duration": 6, "velocity": 94}, {"time": 1018, "pitch": 72, "duration": 6, "velocity": 92}, {"time": 1024, "pitch": 74, "duration": 7, "velocity": 94}, {"time": 1030, "pitch": 76, "duration": 6, "velocity": 111}, {"time": 1036, "pitch": 81, "duration": 6, "velocity": 97}, {"time": 1042, "pitch": 79, "duration": 24, "velocity": 117}, {"time": 1066, "pitch": 74, "duration": 24, "velocity": 92}, {"time": 1090, "pitch": 76, "duration": 18, "velocity": 97}, {"time": 1108, "pitch": 62, "duration": 6, "velocity": 94}, {"time": 1114, "pitch": 60, "duration": 6, "velocity": 102}, {"time": 1120, "pitch": 67, "duration": 6, "velocity": 108}, {"time": 1126, "pitch": 71, "duration": 6, "velocity": 111}, {"time": 1132, "pitch": 64, "duration": 6, "velocity": 84}, {"time": 1138, "pitch": 62, "duration": 48, "velocity": 89}, {"time": 1138, "pitch": 65, "duration": 48, "velocity": 71}, {"time": 1186, "pitch": 69, "duration": 24, "velocity": 84}, {"time": 1186, "pitch": 72, "duration": 24, "velocity": 92}, {"time": 1210, "pitch": 72, "duration": 12, "velocity": 82}, {"time": 1210, "pitch": 76, "duration": 13, "velocity": 100}, {"time": 1222, "pitch": 74, "duration": 6, "velocity": 97}, {"time": 1228, "pitch": 72, "duration": 6, "velocity": 84}, {"time": 1234, "pitch": 69, "duration": 24, "velocity": 94}, {"time": 1234, "pitch": 72, "duration": 24, "velocity": 94}, {"time": 1258, "pitch": 64, "duration": 24, "velocity": 87}, {"time": 1258, "pitch": 71, "duration": 24, "velocity": 94}, {"time": 1282, "pitch": 69, "duration": 27, "velocity": 87}, {"time": 1282, "pitch": 72, "duration": 27, "velocity": 92}, {"time": 1309, "pitch": 64, "duration": 3, "velocity": 114}, {"time": 1312, "pitch": 69, "duration": 3, "velocity": 114}, {"time": 1315, "pitch": 71, "duration": 3, "velocity": 114}, {"time": 1318, "pitch": 72, "duration": 3, "velocity": 114}, {"time": 1321, "pitch": 74, "duration": 3, "velocity": 114}, {"time": 1324, "pitch": 76, "duration": 3, "velocity": 114}, {"time": 1327, "pitch": 81, "duration": 3, "velocity": 114}, {"time": 1330, "pitch": 64, "duration": 3, "velocity": 114}, {"time": 1330, "pitch": 76, "duration": 3, "velocity": 114}, {"time": 1333, "pitch": 69, "duration": 3, "velocity": 114}, {"time": 1333, "pitch": 81, "duration": 3, "velocity": 114}, {"time": 1336, "pitch": 71, "duration": 3, "velocity": 114}, {"time": 1336, "pitch": 83, "duration": 3, "velocity": 114}, {"time": 1339, "pitch": 72, "duration": 3, "velocity": 114}, {"time": 1339, "pitch": 84, "duration": 3, "velocity": 114}, {"time": 1342, "pitch": 64, "duration": 3, "velocity": 114}, {"time": 1342, "pitch": 76, "duration": 3, "velocity": 114}, {"time": 1345, "pitch": 69, "duration": 3, "velocity": 114}, {"time": 1345, "pitch": 81, "duration": 3, "velocity": 114}, {"time": 1348, "pitch": 71, "duration": 3, "velocity": 114}, {"time": 1348, "pitch": 83, "duration": 3, "velocity": 114}, {"time": 1351, "pitch": 72, "duration": 3, "velocity": 114}, {"time": 1351, "pitch": 84, "duration": 3, "velocity": 114}, {"time": 1354, "pitch": 73, "duration": 12, "velocity": 114}, {"time": 1354, "pitch": 85, "duration": 12, "velocity": 114}, {"time": 1366, "pitch": 76, "duration": 12, "velocity": 111}, {"time": 1366, "pitch": 88, "duration": 12, "velocity": 111}, {"time": 1378, "pitch": 74, "duration": 24, "velocity": 92}, {"time": 1378, "pitch": 77, "duration": 24, "velocity": 94}, {"time": 1402, "pitch": 79, "duration": 12, "velocity": 92}, {"time": 1402, "pitch": 83, "duration": 12, "velocity": 97}, {"time": 1414, "pitch": 79, "duration": 7, "velocity": 94}, {"time": 1420, "pitch": 77, "duration": 6, "velocity": 80}, {"time": 1426, "pitch": 72, "duration": 24, "velocity": 89}, {"time": 1426, "pitch": 76, "duration": 24, "velocity": 100}, {"time": 1450, "pitch": 72, "duration": 24, "velocity": 87}, {"time": 1450, "pitch": 76, "duration": 24, "velocity": 94}, {"time": 1474, "pitch": 74, "duration": 24, "velocity": 92}, {"time": 1474, "pitch": 77, "duration": 24, "velocity": 100}, {"time": 1498, "pitch": 71, "duration": 18, "velocity": 111}, {"time": 1516, "pitch": 74, "duration": 6, "velocity": 89}, {"time": 1522, "pitch": 72, "duration": 12, "velocity": 102}, {"time": 1534, "pitch": 74, "duration": 12, "velocity": 97}, {"time": 1546, "pitch": 69, "duration": 9, "velocity": 84}, {"time": 1546, "pitch": 73, "duration": 9, "velocity": 74}, {"time": 1555, "pitch": 74, "duration": 10, "velocity": 108}, {"time": 1564, "pitch": 76, "duration": 6, "velocity": 114}, {"time": 1570, "pitch": 74, "duration": 24, "velocity": 100}, {"time": 1570, "pitch": 77, "duration": 24, "velocity": 108}, {"time": 1594, "pitch": 74, "duration": 14, "velocity": 87}, {"time": 1594, "pitch": 79, "duration": 12, "velocity": 94}, {"time": 1606, "pitch": 83, "duration": 12, "velocity": 108}, {"time": 1618, "pitch": 79, "duration": 12, "velocity": 108}, {"time": 1630, "pitch": 76, "duration": 12, "velocity": 102}, {"time": 1642, "pitch": 77, "duration": 24, "velocity": 97}, {"time": 1642, "pitch": 81, "duration": 24, "velocity": 105}, {"time": 1666, "pitch": 74, "duration": 18, "velocity": 105}, {"time": 1684, "pitch": 77, "duration": 7, "velocity": 92}, {"time": 1690, "pitch": 76, "duration": 13, "velocity": 102}, {"time": 1702, "pitch": 74, "duration": 12, "velocity": 80}, {"time": 1714, "pitch": 69, "duration": 48, "velocity": 73}, {"time": 1714, "pitch": 72, "duration": 48, "velocity": 80}, {"time": 1762, "pitch": 52, "duration": 3, "velocity": 114}, {"time": 1762, "pitch": 64, "duration": 3, "velocity": 114}, {"time": 1765, "pitch": 57, "duration": 3, "velocity": 105}, {"time": 1765, "pitch": 69, "duration": 3, "velocity": 105}, {"time": 1768, "pitch": 59, "duration": 3, "velocity": 102}, {"time": 1768, "pitch": 71, "duration": 3, "velocity": 102}, {"time": 1771, "pitch": 60, "duration": 3, "velocity": 117}, {"time": 1771, "pitch": 72, "duration": 3, "velocity": 117}, {"time": 1774, "pitch": 52, "duration": 3, "velocity": 114}, {"time": 1774, "pitch": 64, "duration": 3, "velocity": 114}, {"time": 1777, "pitch": 57, "duration": 3, "velocity": 108}, {"time": 1777, "pitch": 69, "duration": 3, "velocity": 108}, {"time": 1780, "pitch": 59, "duration": 3, "velocity": 108}, {"time": 1780, "pitch": 71, "duration": 3, "velocity": 108}, {"time": 1783, "pitch": 60, "duration": 3, "velocity": 102}, {"time": 1783, "pitch": 72, "duration": 3, "velocity": 102}, {"time": 1786, "pitch": 61, "duration": 23, "velocity": 116}, {"time": 1786, "pitch": 73, "duration": 12, "velocity": 116}, {"time": 1798, "pitch": 69, "duration": 2, "velocity": 120}, {"time": 1800, "pitch": 71, "duration": 2, "velocity": 117}, {"time": 1802, "pitch": 72, "duration": 2, "velocity": 87}, {"time": 1804, "pitch": 74, "duration": 2, "velocity": 94}, {"time": 1806, "pitch": 76, "duration": 1, "velocity": 76}, {"time": 1807, "pitch": 77, "duration": 2, "velocity": 102}, {"time": 1809, "pitch": 79, "duration": 2, "velocity": 111}, {"time": 1810, "pitch": 62, "duration": 24, "velocity": 82}, {"time": 1810, "pitch": 81, "duration": 18, "velocity": 105}, {"time": 1828, "pitch": 72, "duration": 6, "velocity": 108}, {"time": 1834, "pitch": 67, "duration": 18, "velocity": 87}, {"time": 1834, "pitch": 71, "duration": 3, "velocity": 117}, {"time": 1837, "pitch": 74, "duration": 3, "velocity": 114}, {"time": 1840, "pitch": 71, "duration": 14, "velocity": 114}, {"time": 1852, "pitch": 65, "duration": 6, "velocity": 62}, {"time": 1858, "pitch": 64, "duration": 18, "velocity": 102}, {"time": 1858, "pitch": 79, "duration": 18, "velocity": 114}, {"time": 1876, "pitch": 62, "duration": 6, "velocity": 92}, {"time": 1876, "pitch": 71, "duration": 6, "velocity": 120}, {"time": 1882, "pitch": 60, "duration": 20, "velocity": 102}, {"time": 1882, "pitch": 69, "duration": 3, "velocity": 117}, {"time": 1885, "pitch": 72, "duration": 3, "velocity": 105}, {"time": 1888, "pitch": 69, "duration": 9, "velocity": 120}, {"time": 1897, "pitch": 72, "duration": 3, "velocity": 114}, {"time": 1900, "pitch": 74, "duration": 3, "velocity": 97}, {"time": 1903, "pitch": 76, "duration": 3, "velocity": 114}, {"time": 1906, "pitch": 62, "duration": 18, "velocity": 87}, {"time": 1906, "pitch": 77, "duration": 18, "velocity": 114}, {"time": 1924, "pitch": 60, "duration": 6, "velocity": 89}, {"time": 1924, "pitch": 69, "duration": 6, "velocity": 120}, {"time": 1930, "pitch": 59, "duration": 21, "velocity": 100}, {"time": 1930, "pitch": 68, "duration": 3, "velocity": 109}, {"time": 1933, "pitch": 71, "duration": 3, "velocity": 110}, {"time": 1936, "pitch": 68, "duration": 12, "velocity": 116}, {"time": 1948, "pitch": 71, "duration": 6, "velocity": 111}, {"time": 1954, "pitch": 69, "duration": 24, "velocity": 123}, {"time": 1957, "pitch": 76, "duration": 3, "velocity": 111}, {"time": 1960, "pitch": 81, "duration": 3, "velocity": 102}, {"time": 1963, "pitch": 83, "duration": 3, "velocity": 102}, {"time": 1966, "pitch": 84, "duration": 4, "velocity": 117}, {"time": 1969, "pitch": 83, "duration": 3, "velocity": 100}, {"time": 1972, "pitch": 81, "duration": 3, "velocity": 102}, {"time": 1975, "pitch": 76, "duration": 3, "velocity": 105}, {"time": 1978, "pitch": 85, "duration": 12, "velocity": 114}, {"time": 1990, "pitch": 71, "duration": 6, "velocity": 105}, {"time": 1990, "pitch": 86, "duration": 6, "velocity": 105}, {"time": 1996, "pitch": 73, "duration": 7, "velocity": 102}, {"time": 1996, "pitch": 88, "duration": 6, "velocity": 102}, {"time": 2002, "pitch": 89, "duration": 24, "velocity": 102}, {"time": 2005, "pitch": 74, "duration": 3, "velocity": 100}, {"time": 2008, "pitch": 72, "duration": 3, "velocity": 92}, {"time": 2011, "pitch": 69, "duration": 3, "velocity": 105}, {"time": 2014, "pitch": 74, "duration": 3, "velocity": 105}, {"time": 2017, "pitch": 72, "duration": 3, "velocity": 97}, {"time": 2020, "pitch": 69, "duration": 3, "velocity": 105}, {"time": 2023, "pitch": 72, "duration": 3, "velocity": 105}, {"time": 2026, "pitch": 71, "duration": 24, "velocity": 108}, {"time": 2026, "pitch": 86, "duration": 24, "velocity": 100}, {"time": 2050, "pitch": 88, "duration": 17, "velocity": 100}, {"time": 2053, "pitch": 76, "duration": 3, "velocity": 102}, {"time": 2056, "pitch": 74, "duration": 3, "velocity": 97}, {"time": 2059, "pitch": 71, "duration": 3, "velocity": 102}, {"time": 2062, "pitch": 76, "duration": 3, "velocity": 114}, {"time": 2065, "pitch": 74, "duration": 3, "velocity": 100}, {"time": 2068, "pitch": 71, "duration": 3, "velocity": 87}, {"time": 2068, "pitch": 86, "duration": 5, "velocity": 92}, {"time": 2071, "pitch": 76, "duration": 3, "velocity": 108}, {"time": 2074, "pitch": 72, "duration": 18, "velocity": 94}, {"time": 2074, "pitch": 84, "duration": 22, "velocity": 97}, {"time": 2092, "pitch": 74, "duration": 2, "velocity": 111}, {"time": 2094, "pitch": 76, "duration": 2, "velocity": 102}, {"time": 2096, "pitch": 77, "duration": 2, "velocity": 100}, {"time": 2098, "pitch": 89, "duration": 22, "velocity": 82}, {"time": 2099, "pitch": 79, "duration": 14, "velocity": 114}, {"time": 2113, "pitch": 77, "duration": 3, "velocity": 102}, {"time": 2116, "pitch": 76, "duration": 3, "velocity": 102}, {"time": 2119, "pitch": 77, "duration": 3, "velocity": 102}, {"time": 2122, "pitch": 79, "duration": 14, "velocity": 108}, {"time": 2134, "pitch": 89, "duration": 10, "velocity": 94}, {"time": 2137, "pitch": 77, "duration": 3, "velocity": 94}, {"time": 2140, "pitch": 76, "duration": 3, "velocity": 94}, {"time": 2143, "pitch": 74, "duration": 3, "velocity": 102}, {"time": 2146, "pitch": 76, "duration": 24, "velocity": 114}, {"time": 2146, "pitch": 88, "duration": 24, "velocity": 105}, {"time": 2170, "pitch": 86, "duration": 3, "velocity": 114}, {"time": 2173, "pitch": 88, "duration": 3, "velocity": 114}, {"time": 2176, "pitch": 92, "duration": 3, "velocity": 114}, {"time": 2179, "pitch": 86, "duration": 3, "velocity": 114}, {"time": 2182, "pitch": 88, "duration": 3, "velocity": 114}, {"time": 2185, "pitch": 83, "duration": 3, "velocity": 114}, {"time": 2188, "pitch": 86, "duration": 3, "velocity": 114}, {"time": 2191, "pitch": 80, "duration": 3, "velocity": 114}, {"time": 2194, "pitch": 83, "duration": 3, "velocity": 114}, {"time": 2197, "pitch": 77, "duration": 3, "velocity": 114}, {"time": 2200, "pitch": 80, "duration": 3, "velocity": 114}, {"time": 2203, "pitch": 74, "duration": 3, "velocity": 114}, {"time": 2206, "pitch": 76, "duration": 3, "velocity": 114}, {"time": 2209, "pitch": 68, "duration": 3, "velocity": 114}, {"time": 2212, "pitch": 71, "duration": 3, "velocity": 114}, {"time": 2215, "pitch": 65, "duration": 3, "velocity": 114}, {"time": 2218, "pitch": 64, "duration": 24, "velocity": 114}, {"time": 2242, "pitch": 64, "duration": 6, "velocity": 105}, {"time": 2248, "pitch": 68, "duration": 6, "velocity": 112}, {"time": 2254, "pitch": 71, "duration": 90, "velocity": 111}, {"time": 2344, "pitch": 69, "duration": 6, "velocity": 108}, {"time": 2350, "pitch": 74, "duration": 6, "velocity": 114}, {"time": 2356, "pitch": 77, "duration": 6, "velocity": 97}, {"time": 2362, "pitch": 79, "duration": 30, "velocity": 108}, {"time": 2392, "pitch": 71, "duration": 6, "velocity": 102}, {"time": 2398, "pitch": 74, "duration": 6, "velocity": 100}, {"time": 2404, "pitch": 77, "duration": 6, "velocity": 102}, {"time": 2410, "pitch": 76, "duration": 18, "velocity": 102}, {"time": 2428, "pitch": 72, "duration": 3, "velocity": 97}, {"time": 2431, "pitch": 74, "duration": 3, "velocity": 94}, {"time": 2434, "pitch": 76, "duration": 12, "velocity": 102}, {"time": 2446, "pitch": 64, "duration": 6, "velocity": 100}, {"time": 2452, "pitch": 67, "duration": 6, "velocity": 87}, {"time": 2458, "pitch": 65, "duration": 30, "velocity": 92}, {"time": 2488, "pitch": 69, "duration": 7, "velocity": 97}, {"time": 2494, "pitch": 74, "duration": 6, "velocity": 94}, {"time": 2500, "pitch": 77, "duration": 6, "velocity": 102}, {"time": 2506, "pitch": 76, "duration": 36, "velocity": 100}, {"time": 2542, "pitch": 81, "duration": 6, "velocity": 102}, {"time": 2548, "pitch": 76, "duration": 6, "velocity": 105}, {"time": 2554, "pitch": 74, "duration": 66, "velocity": 114}, {"time": 2620, "pitch": 76, "duration": 6, "velocity": 108}, {"time": 2626, "pitch": 74, "duration": 6, "velocity": 105}, {"time": 2632, "pitch": 71, "duration": 6, "velocity": 108}, {"time": 2638, "pitch": 68, "duration": 6, "velocity": 105}, {"time": 2644, "pitch": 65, "duration": 6, "velocity": 114}, {"time": 2650, "pitch": 64, "duration": 24, "velocity": 102}, {"time": 2650, "pitch": 76, "duration": 24, "velocity": 100}, {"time": 2674, "pitch": 81, "duration": 18, "velocity": 87}, {"time": 2692, "pitch": 76, "duration": 1, "velocity": 89}, {"time": 2692, "pitch": 76, "duration": 6, "velocity": 84}, {"time": 2698, "pitch": 77, "duration": 23, "velocity": 89}, {"time": 2716, "pitch": 71, "duration": 6, "velocity": 94}, {"time": 2722, "pitch": 72, "duration": 6, "velocity": 92}, {"time": 2728, "pitch": 74, "duration": 7, "velocity": 94}, {"time": 2734, "pitch": 76, "duration": 6, "velocity": 111}, {"time": 2740, "pitch": 81, "duration": 6, "velocity": 97}, {"time": 2746, "pitch": 79, "duration": 24, "velocity": 117}, {"time": 2770, "pitch": 74, "duration": 24, "velocity": 92}, {"time": 2794, "pitch": 76, "duration": 18, "velocity": 97}, {"time": 2812, "pitch": 62, "duration": 6, "velocity": 94}, {"time": 2818, "pitch": 60, "duration": 6, "velocity": 102}, {"time": 2824, "pitch": 67, "duration": 6, "velocity": 108}, {"time": 2830, "pitch": 71, "duration": 6, "velocity": 111}, {"time": 2836, "pitch": 64, "duration": 6, "velocity": 84}, {"time": 2842, "pitch": 62, "duration": 48, "velocity": 89}, {"time": 2842, "pitch": 65, "duration": 48, "velocity": 71}, {"time": 2890, "pitch": 69, "duration": 24, "velocity": 84}, {"time": 2890, "pitch": 72, "duration": 24, "velocity": 92}, {"time": 2914, "pitch": 72, "duration": 12, "velocity": 82}, {"time": 2914, "pitch": 76, "duration": 13, "velocity": 100}, {"time": 2926, "pitch": 74, "duration": 6, "velocity": 97}, {"time": 2932, "pitch": 72, "duration": 6, "velocity": 84}, {"time": 2938, "pitch": 69, "duration": 24, "velocity": 94}, {"time": 2938, "pitch": 72, "duration": 24, "velocity": 94}, {"time": 2962, "pitch": 64, "duration": 24, "velocity": 87}, {"time": 2962, "pitch": 71, "duration": 24, "velocity": 94}, {"time": 2986, "pitch": 69, "duration": 27, "velocity": 87}, {"time": 2986, "pitch": 72, "duration": 27, "velocity": 92}, {"time": 3013, "pitch": 64, "duration": 3, "velocity": 114}, {"time": 3016, "pitch": 69, "duration": 3, "velocity": 114}, {"time": 3019, "pitch": 71, "duration": 3, "velocity": 114}, {"time": 3022, "pitch": 72, "duration": 3, "velocity": 114}, {"time": 3025, "pitch": 74, "duration": 3, "velocity": 114}, {"time": 3028, "pitch": 76, "duration": 3, "velocity": 114}, {"time": 3031, "pitch": 81, "duration": 3, "velocity": 114}, {"time": 3034, "pitch": 64, "duration": 3, "velocity": 114}, {"time": 3034, "pitch": 76, "duration": 3, "velocity": 114}, {"time": 3037, "pitch": 69, "duration": 3, "velocity": 114}, {"time": 3037, "pitch": 81, "duration": 3, "velocity": 114}, {"time": 3040, "pitch": 71, "duration": 3, "velocity": 114}, {"time": 3040, "pitch": 83, "duration": 3, "velocity": 114}, {"time": 3043, "pitch": 72, "duration": 3, "velocity": 114}, {"time": 3043, "pitch": 84, "duration": 3, "velocity": 114}, {"time": 3046, "pitch": 64, "duration": 3, "velocity": 114}, {"time": 3046, "pitch": 76, "duration": 3, "velocity": 114}, {"time": 3049, "pitch": 69, "duration": 3, "velocity": 114}, {"time": 3049, "pitch": 81, "duration": 3, "velocity": 114}, {"time": 3052, "pitch": 71, "duration": 3, "velocity": 114}, {"time": 3052, "pitch": 83, "duration": 3, "velocity": 114}, {"time": 3055, "pitch": 72, "duration": 3, "velocity": 114}, {"time": 3055, "pitch": 84, "duration": 3, "velocity": 114}, {"time": 3058, "pitch": 73, "duration": 12, "velocity": 114}, {"time": 3058, "pitch": 85, "duration": 12, "velocity": 114}, {"time": 3070, "pitch": 76, "duration": 12, "velocity": 111}, {"time": 3070, "pitch": 88, "duration": 12, "velocity": 111}, {"time": 3082, "pitch": 74, "duration": 24, "velocity": 92}, {"time": 3082, "pitch": 77, "duration": 24, "velocity": 94}, {"time": 3106, "pitch": 79, "duration": 12, "velocity": 92}, {"time": 3106, "pitch": 83, "duration": 12, "velocity": 97}, {"time": 3118, "pitch": 79, "duration": 7, "velocity": 94}, {"time": 3124, "pitch": 77, "duration": 6, "velocity": 80}, {"time": 3130, "pitch": 72, "duration": 24, "velocity": 89}, {"time": 3130, "pitch": 76, "duration": 24, "velocity": 100}, {"time": 3154, "pitch": 72, "duration": 24, "velocity": 87}, {"time": 3154, "pitch": 76, "duration": 24, "velocity": 94}, {"time": 3178, "pitch": 74, "duration": 24, "velocity": 92}, {"time": 3178, "pitch": 77, "duration": 24, "velocity": 100}, {"time": 3202, "pitch": 71, "duration": 18, "velocity": 111}, {"time": 3220, "pitch": 74, "duration": 6, "velocity": 89}, {"time": 3226, "pitch": 72, "duration": 12, "velocity": 102}, {"time": 3238, "pitch": 74, "duration": 12, "velocity": 97}, {"time": 3250, "pitch": 69, "duration": 9, "velocity": 84}, {"time": 3250, "pitch": 73, "duration": 9, "velocity": 74}, {"time": 3259, "pitch": 74, "duration": 10, "velocity": 108}, {"time": 3268, "pitch": 76, "duration": 6, "velocity": 114}, {"time": 3274, "pitch": 74, "duration": 24, "velocity": 100}, {"time": 3274, "pitch": 77, "duration": 24, "velocity": 108}, {"time": 3298, "pitch": 74, "duration": 14, "velocity": 87}, {"time": 3298, "pitch": 79, "duration": 12, "velocity": 94}, {"time": 3310, "pitch": 83, "duration": 12, "velocity": 108}, {"time": 3322, "pitch": 79, "duration": 12, "velocity": 108}, {"time": 3334, "pitch": 76, "duration": 12, "velocity": 102}, {"time": 3346, "pitch": 77, "duration": 24, "velocity": 97}, {"time": 3346, "pitch": 81, "duration": 24, "velocity": 105}, {"time": 3370, "pitch": 74, "duration": 18, "velocity": 105}, {"time": 3388, "pitch": 77, "duration": 7, "velocity": 92}, {"time": 3394, "pitch": 76, "duration": 13, "velocity": 102}, {"time": 3406, "pitch": 74, "duration": 12, "velocity": 80}, {"time": 3418, "pitch": 69, "duration": 48, "velocity": 73}, {"time": 3418, "pitch": 72, "duration": 48, "velocity": 80}, {"time": 3466, "pitch": 74, "duration": 24, "velocity": 92}, {"time": 3466, "pitch": 77, "duration": 24, "velocity": 94}, {"time": 3490, "pitch": 79, "duration": 12, "velocity": 92}, {"time": 3490, "pitch": 83, "duration": 12, "velocity": 97}, {"time": 3502, "pitch": 79, "duration": 7, "velocity": 94}, {"time": 3508, "pitch": 77, "duration": 6, "velocity": 80}, {"time": 3514, "pitch": 72, "duration": 24, "velocity": 89}, {"time": 3514, "pitch": 76, "duration": 24, "velocity": 100}, {"time": 3538, "pitch": 72, "duration": 24, "velocity": 87}, {"time": 3538, "pitch": 76, "duration": 24, "velocity": 94}, {"time": 3562, "pitch": 74, "duration": 24, "velocity": 92}, {"time": 3562, "pitch": 77, "duration": 24, "velocity": 100}, {"time": 3586, "pitch": 71, "duration": 18, "velocity": 111}, {"time": 3604, "pitch": 74, "duration": 6, "velocity": 89}, {"time": 3610, "pitch": 72, "duration": 12, "velocity": 102}, {"time": 3622, "pitch": 74, "duration": 12, "velocity": 97}, {"time": 3634, "pitch": 69, "duration": 9, "velocity": 84}, {"time": 3634, "pitch": 73, "duration": 9, "velocity": 74}, {"time": 3643, "pitch": 74, "duration": 10, "velocity": 108}, {"time": 3652, "pitch": 76, "duration": 6, "velocity": 114}, {"time": 3658, "pitch": 74, "duration": 24, "velocity": 100}, {"time": 3658, "pitch": 77, "duration": 24, "velocity": 108}, {"time": 3682, "pitch": 74, "duration": 14, "velocity": 87}, {"time": 3682, "pitch": 79, "duration": 12, "velocity": 94}, {"time": 3694, "pitch": 83, "duration": 12, "velocity": 108}, {"time": 3706, "pitch": 79, "duration": 12, "velocity": 108}, {"time": 3718, "pitch": 76, "duration": 12, "velocity": 102}, {"time": 3730, "pitch": 77, "duration": 24, "velocity": 97}, {"time": 3730, "pitch": 81, "duration": 24, "velocity": 105}, {"time": 3754, "pitch": 74, "duration": 18, "velocity": 105}, {"time": 3772, "pitch": 77, "duration": 7, "velocity": 92}, {"time": 3778, "pitch": 76, "duration": 13, "velocity": 102}, {"time": 3790, "pitch": 74, "duration": 12, "velocity": 80}, {"time": 3802, "pitch": 69, "duration": 84, "velocity": 73}, {"time": 3802, "pitch": 81, "duration": 84, "velocity": 80}, {"time": 3886, "pitch": 45, "duration": 55, "velocity": 92}, {"time": 3899, "pitch": 69, "duration": 49, "velocity": 94}]}, {"program": 0, "is_drum": false, "name": "PIANO", "notes": [{"time": 10, "pitch": 45, "duration": 46, "velocity": 94}, {"time": 10, "pitch": 57, "duration": 10, "velocity": 78}, {"time": 10, "pitch": 59, "duration": 10, "velocity": 92}, {"time": 10, "pitch": 64, "duration": 9, "velocity": 87}, {"time": 22, "pitch": 57, "duration": 6, "velocity": 89}, {"time": 22, "pitch": 59, "duration": 6, "velocity": 97}, {"time": 22, "pitch": 64, "duration": 6, "velocity": 97}, {"time": 34, "pitch": 59, "duration": 10, "velocity": 100}, {"time": 34, "pitch": 64, "duration": 8, "velocity": 92}, {"time": 46, "pitch": 59, "duration": 10, "velocity": 102}, {"time": 46, "pitch": 64, "duration": 9, "velocity": 105}, {"time": 58, "pitch": 45, "duration": 41, "velocity": 100}, {"time": 58, "pitch": 57, "duration": 10, "velocity": 80}, {"time": 58, "pitch": 59, "duration": 10, "velocity": 87}, {"time": 58, "pitch": 64, "duration": 10, "velocity": 89}, {"time": 70, "pitch": 57, "duration": 5, "velocity": 78}, {"time": 70, "pitch": 59, "duration": 6, "velocity": 89}, {"time": 70, "pitch": 64, "duration": 5, "velocity": 87}, {"time": 82, "pitch": 59, "duration": 8, "velocity": 87}, {"time": 82, "pitch": 64, "duration": 6, "velocity": 89}, {"time": 94, "pitch": 59, "duration": 5, "velocity": 102}, {"time": 94, "pitch": 64, "duration": 5, "velocity": 105}, {"time": 100, "pitch": 40, "duration": 6, "velocity": 114}, {"time": 106, "pitch": 45, "duration": 42, "velocity": 94}, {"time": 106, "pitch": 57, "duration": 10, "velocity": 78}, {"time": 106, "pitch": 59, "duration": 10, "velocity": 92}, {"time": 106, "pitch": 64, "duration": 9, "velocity": 87}, {"time": 118, "pitch": 57, "duration": 6, "velocity": 89}, {"time": 118, "pitch": 59, "duration": 6, "velocity": 97}, {"time": 118, "pitch": 64, "duration": 6, "velocity": 97}, {"time": 130, "pitch": 59, "duration": 10, "velocity": 100}, {"time": 130, "pitch": 64, "duration": 8, "velocity": 92}, {"time": 142, "pitch": 59, "duration": 10, "velocity": 102}, {"time": 142, "pitch": 64, "duration": 9, "velocity": 105}, {"time": 148, "pitch": 40, "duration": 6, "velocity": 114}, {"time": 154, "pitch": 50, "duration": 42, "velocity": 108}, {"time": 154, "pitch": 57, "duration": 7, "velocity": 97}, {"time": 154, "pitch": 62, "duration": 8, "velocity": 97}, {"time": 154, "pitch": 65, "duration": 8, "velocity": 89}, {"time": 166, "pitch": 62, "duration": 7, "velocity": 108}, {"time": 166, "pitch": 65, "duration": 8, "velocity": 97}, {"time": 172, "pitch": 57, "duration": 4, "velocity": 55}, {"time": 178, "pitch": 57, "duration": 10, "velocity": 97}, {"time": 178, "pitch": 62, "duration": 10, "velocity": 97}, {"time": 178, "pitch": 65, "duration": 10, "velocity": 92}, {"time": 190, "pitch": 57, "duration": 3, "velocity": 100}, {"time": 190, "pitch": 62, "duration": 11, "velocity": 105}, {"time": 190, "pitch": 65, "duration": 11, "velocity": 102}, {"time": 196, "pitch": 45, "duration": 6, "velocity": 114}, {"time": 196, "pitch": 57, "duration": 6, "velocity": 114}, {"time": 202, "pitch": 43, "duration": 39, "velocity": 102}, {"time": 202, "pitch": 55, "duration": 8, "velocity": 78}, {"time": 202, "pitch": 62, "duration": 8, "velocity": 87}, {"time": 208, "pitch": 50, "duration": 33, "velocity": 58}, {"time": 214, "pitch": 55, "duration": 7, "velocity": 100}, {"time": 214, "pitch": 62, "duration": 7, "velocity": 94}, {"time": 226, "pitch": 55, "duration": 9, "velocity": 89}, {"time": 226, "pitch": 59, "duration": 8, "velocity": 102}, {"time": 226, "pitch": 62, "duration": 8, "velocity": 100}, {"time": 238, "pitch": 55, "duration": 8, "velocity": 97}, {"time": 238, "pitch": 59, "duration": 7, "velocity": 108}, {"time": 238, "pitch": 62, "duration": 7, "velocity": 105}, {"time": 244, "pitch": 43, "duration": 6, "velocity": 111}, {"time": 250, "pitch": 48, "duration": 42, "velocity": 105}, {"time": 250, "pitch": 55, "duration": 9, "velocity": 82}, {"time": 250, "pitch": 60, "duration": 9, "velocity": 87}, {"time": 250, "pitch": 64, "duration": 9, "velocity": 94}, {"time": 262, "pitch": 55, "duration": 4, "velocity": 97}, {"time": 262, "pitch": 60, "duration": 6, "velocity": 102}, {"time": 262, "pitch": 64, "duration": 8, "velocity": 100}, {"time": 274, "pitch": 55, "duration": 4, "velocity": 102}, {"time": 274, "pitch": 60, "duration": 5, "velocity": 108}, {"time": 274, "pitch": 64, "duration": 10, "velocity": 100}, {"time": 286, "pitch": 55, "duration": 4, "velocity": 97}, {"time": 286, "pitch": 59, "duration": 11, "velocity": 108}, {"time": 286, "pitch": 64, "duration": 11, "velocity": 102}, {"time": 292, "pitch": 40, "duration": 6, "velocity": 114}, {"time": 292, "pitch": 55, "duration": 5, "velocity": 71}, {"time": 298, "pitch": 50, "duration": 39, "velocity": 102}, {"time": 298, "pitch": 57, "duration": 10, "velocity": 89}, {"time": 298, "pitch": 62, "duration": 10, "velocity": 84}, {"time": 298, "pitch": 65, "duration": 10, "velocity": 94}, {"time": 310, "pitch": 62, "duration": 4, "velocity": 100}, {"time": 310, "pitch": 65, "duration": 4, "velocity": 100}, {"time": 322, "pitch": 57, "duration": 5, "velocity": 100}, {"time": 322, "pitch": 62, "duration": 6, "velocity": 97}, {"time": 322, "pitch": 65, "duration": 5, "velocity": 97}, {"time": 334, "pitch": 57, "duration": 11, "velocity": 105}, {"time": 334, "pitch": 62, "duration": 11, "velocity": 108}, {"time": 334, "pitch": 65, "duration": 11, "velocity": 108}, {"time": 340, "pitch": 50, "duration": 5, "velocity": 117}, {"time": 346, "pitch": 45, "duration": 40, "velocity": 108}, {"time": 346, "pitch": 57, "duration": 10, "velocity": 89}, {"time": 346, "pitch": 60, "duration": 10, "velocity": 94}, {"time": 352, "pitch": 52, "duration": 34, "velocity": 78}, {"time": 358, "pitch": 57, "duration": 8, "velocity": 92}, {"time": 358, "pitch": 60, "duration": 7, "velocity": 97}, {"time": 358, "pitch": 64, "duration": 7, "velocity": 97}, {"time": 370, "pitch": 57, "duration": 8, "velocity": 97}, {"time": 370, "pitch": 60, "duration": 7, "velocity": 94}, {"time": 370, "pitch": 64, "duration": 7, "velocity": 97}, {"time": 382, "pitch": 57, "duration": 12, "velocity": 105}, {"time": 382, "pitch": 60, "duration": 12, "velocity": 102}, {"time": 382, "pitch": 64, "duration": 12, "velocity": 102}, {"time": 388, "pitch": 40, "duration": 6, "velocity": 111}, {"time": 394, "pitch": 41, "duration": 16, "velocity": 97}, {"time": 394, "pitch": 57, "duration": 10, "velocity": 84}, {"time": 394, "pitch": 60, "duration": 9, "velocity": 89}, {"time": 394, "pitch": 65, "duration": 9, "velocity": 94}, {"time": 406, "pitch": 57, "duration": 11, "velocity": 100}, {"time": 406, "pitch": 60, "duration": 11, "velocity": 108}, {"time": 406, "pitch": 65, "duration": 12, "velocity": 94}, {"time": 412, "pitch": 41, "duration": 6, "velocity": 97}, {"time": 418, "pitch": 46, "duration": 24, "velocity": 102}, {"time": 418, "pitch": 57, "duration": 10, "velocity": 92}, {"time": 418, "pitch": 62, "duration": 10, "velocity": 87}, {"time": 418, "pitch": 65, "duration": 11, "velocity": 94}, {"time": 430, "pitch": 57, "duration": 4, "velocity": 100}, {"time": 430, "pitch": 62, "duration": 11, "velocity": 100}, {"time": 430, "pitch": 65, "duration": 11, "velocity": 100}, {"time": 436, "pitch": 53, "duration": 6, "velocity": 111}, {"time": 442, "pitch": 40, "duration": 63, "velocity": 108}, {"time": 442, "pitch": 52, "duration": 22, "velocity": 108}, {"time": 442, "pitch": 59, "duration": 10, "velocity": 100}, {"time": 442, "pitch": 64, "duration": 10, "velocity": 100}, {"time": 454, "pitch": 59, "duration": 5, "velocity": 102}, {"time": 454, "pitch": 64, "duration": 5, "velocity": 102}, {"time": 454, "pitch": 68, "duration": 6, "velocity": 93}, {"time": 466, "pitch": 52, "duration": 46, "velocity": 100}, {"time": 466, "pitch": 59, "duration": 9, "velocity": 82}, {"time": 466, "pitch": 64, "duration": 9, "velocity": 84}, {"time": 466, "pitch": 68, "duration": 9, "velocity": 79}, {"time": 514, "pitch": 40, "duration": 39, "velocity": 114}, {"time": 514, "pitch": 52, "duration": 47, "velocity": 80}, {"time": 514, "pitch": 59, "duration": 46, "velocity": 53}, {"time": 514, "pitch": 64, "duration": 46, "velocity": 57}, {"time": 514, "pitch": 68, "duration": 46, "velocity": 38}, {"time": 562, "pitch": 45, "duration": 40, "velocity": 100}, {"time": 562, "pitch": 57, "duration": 7, "velocity": 73}, {"time": 562, "pitch": 59, "duration": 8, "velocity": 89}, {"time": 562, "pitch": 64, "duration": 8, "velocity": 89}, {"time": 568, "pitch": 52, "duration": 9, "velocity": 39}, {"time": 574, "pitch": 57, "duration": 2, "velocity": 82}, {"time": 574, "pitch": 59, "duration": 3, "velocity": 89}, {"time": 574, "pitch": 64, "duration": 3, "velocity": 89}, {"time": 580, "pitch": 52, "duration": 8, "velocity": 21}, {"time": 586, "pitch": 57, "duration": 5, "velocity": 94}, {"time": 586, "pitch": 64, "duration": 4, "velocity": 94}, {"time": 592, "pitch": 52, "duration": 8, "velocity": 30}, {"time": 598, "pitch": 57, "duration": 6, "velocity": 89}, {"time": 598, "pitch": 60, "duration": 5, "velocity": 94}, {"time": 598, "pitch": 64, "duration": 6, "velocity": 94}, {"time": 604, "pitch": 45, "duration": 4, "velocity": 87}, {"time": 610, "pitch": 50, "duration": 44, "velocity": 78}, {"time": 610, "pitch": 57, "duration": 9, "velocity": 80}, {"time": 610, "pitch": 62, "duration": 8, "velocity": 80}, {"time": 610, "pitch": 65, "duration": 8, "velocity": 89}, {"time": 622, "pitch": 62, "duration": 5, "velocity": 92}, {"time": 622, "pitch": 65, "duration": 5, "velocity": 89}, {"time": 634, "pitch": 62, "duration": 4, "velocity": 84}, {"time": 634, "pitch": 65, "duration": 5, "velocity": 84}, {"time": 646, "pitch": 57, "duration": 4, "velocity": 97}, {"time": 646, "pitch": 62, "duration": 7, "velocity": 100}, {"time": 646, "pitch": 65, "duration": 10, "velocity": 97}, {"time": 652, "pitch": 57, "duration": 3, "velocity": 97}, {"time": 658, "pitch": 43, "duration": 39, "velocity": 100}, {"time": 658, "pitch": 55, "duration": 8, "velocity": 78}, {"time": 658, "pitch": 59, "duration": 7, "velocity": 82}, {"time": 658, "pitch": 62, "duration": 8, "velocity": 82}, {"time": 664, "pitch": 50, "duration": 10, "velocity": 46}, {"time": 670, "pitch": 59, "duration": 6, "velocity": 84}, {"time": 670, "pitch": 62, "duration": 8, "velocity": 87}, {"time": 676, "pitch": 50, "duration": 8, "velocity": 30}, {"time": 682, "pitch": 59, "duration": 4, "velocity": 67}, {"time": 682, "pitch": 62, "duration": 5, "velocity": 67}, {"time": 688, "pitch": 50, "duration": 10, "velocity": 13}, {"time": 694, "pitch": 55, "duration": 6, "velocity": 102}, {"time": 694, "pitch": 59, "duration": 5, "velocity": 114}, {"time": 694, "pitch": 62, "duration": 7, "velocity": 111}, {"time": 700, "pitch": 43, "duration": 5, "velocity": 94}, {"time": 706, "pitch": 48, "duration": 40, "velocity": 100}, {"time": 706, "pitch": 55, "duration": 8, "velocity": 87}, {"time": 706, "pitch": 60, "duration": 7, "velocity": 78}, {"time": 718, "pitch": 60, "duration": 4, "velocity": 84}, {"time": 718, "pitch": 64, "duration": 7, "velocity": 87}, {"time": 730, "pitch": 60, "duration": 7, "velocity": 102}, {"time": 730, "pitch": 64, "duration": 5, "velocity": 97}, {"time": 742, "pitch": 55, "duration": 10, "velocity": 102}, {"time": 742, "pitch": 60, "duration": 11, "velocity": 105}, {"time": 742, "pitch": 64, "duration": 12, "velocity": 100}, {"time": 748, "pitch": 43, "duration": 6, "velocity": 105}, {"time": 754, "pitch": 50, "duration": 40, "velocity": 87}, {"time": 754, "pitch": 57, "duration": 11, "velocity": 82}, {"time": 754, "pitch": 62, "duration": 11, "velocity": 82}, {"time": 754, "pitch": 65, "duration": 11, "velocity": 87}, {"time": 766, "pitch": 62, "duration": 9, "velocity": 102}, {"time": 766, "pitch": 65, "duration": 9, "velocity": 105}, {"time": 778, "pitch": 57, "duration": 3, "velocity": 97}, {"time": 778, "pitch": 62, "duration": 8, "velocity": 100}, {"time": 778, "pitch": 65, "duration": 7, "velocity": 102}, {"time": 790, "pitch": 57, "duration": 10, "velocity": 105}, {"time": 790, "pitch": 62, "duration": 11, "velocity": 102}, {"time": 790, "pitch": 65, "duration": 11, "velocity": 97}, {"time": 796, "pitch": 50, "duration": 6, "velocity": 105}, {"time": 802, "pitch": 45, "duration": 40, "velocity": 108}, {"time": 802, "pitch": 57, "duration": 10, "velocity": 92}, {"time": 802, "pitch": 60, "duration": 9, "velocity": 84}, {"time": 808, "pitch": 52, "duration": 20, "velocity": 84}, {"time": 814, "pitch": 57, "duration": 7, "velocity": 97}, {"time": 814, "pitch": 60, "duration": 6, "velocity": 100}, {"time": 814, "pitch": 64, "duration": 5, "velocity": 97}, {"time": 826, "pitch": 57, "duration": 8, "velocity": 76}, {"time": 826, "pitch": 60, "duration": 7, "velocity": 80}, {"time": 826, "pitch": 64, "duration": 7, "velocity": 82}, {"time": 832, "pitch": 52, "duration": 11, "velocity": 36}, {"time": 838, "pitch": 57, "duration": 8, "velocity": 105}, {"time": 838, "pitch": 60, "duration": 7, "velocity": 111}, {"time": 838, "pitch": 64, "duration": 10, "velocity": 108}, {"time": 844, "pitch": 43, "duration": 4, "velocity": 89}, {"time": 850, "pitch": 41, "duration": 42, "velocity": 100}, {"time": 850, "pitch": 53, "duration": 11, "velocity": 87}, {"time": 850, "pitch": 57, "duration": 8, "velocity": 100}, {"time": 850, "pitch": 60, "duration": 9, "velocity": 94}, {"time": 856, "pitch": 48, "duration": 19, "velocity": 32}, {"time": 862, "pitch": 57, "duration": 9, "velocity": 114}, {"time": 862, "pitch": 60, "duration": 10, "velocity": 108}, {"time": 862, "pitch": 65, "duration": 10, "velocity": 89}, {"time": 874, "pitch": 57, "duration": 8, "velocity": 94}, {"time": 874, "pitch": 60, "duration": 9, "velocity": 92}, {"time": 874, "pitch": 65, "duration": 8, "velocity": 87}, {"time": 886, "pitch": 57, "duration": 6, "velocity": 108}, {"time": 886, "pitch": 60, "duration": 7, "velocity": 105}, {"time": 886, "pitch": 65, "duration": 9, "velocity": 97}, {"time": 892, "pitch": 53, "duration": 2, "velocity": 100}, {"time": 898, "pitch": 52, "duration": 44, "velocity": 117}, {"time": 898, "pitch": 59, "duration": 10, "velocity": 105}, {"time": 898, "pitch": 64, "duration": 10, "velocity": 100}, {"time": 910, "pitch": 59, "duration": 4, "velocity": 100}, {"time": 910, "pitch": 64, "duration": 10, "velocity": 100}, {"time": 910, "pitch": 68, "duration": 10, "velocity": 99}, {"time": 922, "pitch": 59, "duration": 9, "velocity": 100}, {"time": 922, "pitch": 64, "duration": 10, "velocity": 97}, {"time": 922, "pitch": 68, "duration": 10, "velocity": 102}, {"time": 934, "pitch": 59, "duration": 8, "velocity": 102}, {"time": 934, "pitch": 64, "duration": 7, "velocity": 92}, {"time": 934, "pitch": 71, "duration": 7, "velocity": 102}, {"time": 946, "pitch": 45, "duration": 40, "velocity": 105}, {"time": 946, "pitch": 57, "duration": 9, "velocity": 80}, {"time": 946, "pitch": 60, "duration": 9, "velocity": 82}, {"time": 946, "pitch": 64, "duration": 9, "velocity": 92}, {"time": 952, "pitch": 52, "duration": 9, "velocity": 49}, {"time": 958, "pitch": 57, "duration": 7, "velocity": 92}, {"time": 958, "pitch": 60, "duration": 7, "velocity": 89}, {"time": 958, "pitch": 64, "duration": 7, "velocity": 87}, {"time": 970, "pitch": 57, "duration": 6, "velocity": 102}, {"time": 970, "pitch": 60, "duration": 6, "velocity": 102}, {"time": 970, "pitch": 64, "duration": 6, "velocity": 97}, {"time": 976, "pitch": 52, "duration": 8, "velocity": 76}, {"time": 982, "pitch": 57, "duration": 5, "velocity": 97}, {"time": 982, "pitch": 60, "duration": 5, "velocity": 105}, {"time": 982, "pitch": 64, "duration": 5, "velocity": 100}, {"time": 988, "pitch": 45, "duration": 5, "velocity": 105}, {"time": 994, "pitch": 50, "duration": 39, "velocity": 97}, {"time": 994, "pitch": 57, "duration": 8, "velocity": 80}, {"time": 994, "pitch": 62, "duration": 8, "velocity": 87}, {"time": 994, "pitch": 65, "duration": 8, "velocity": 82}, {"time": 1006, "pitch": 62, "duration": 7, "velocity": 100}, {"time": 1006, "pitch": 65, "duration": 7, "velocity": 97}, {"time": 1012, "pitch": 57, "duration": 3, "velocity": 58}, {"time": 1018, "pitch": 57, "duration": 3, "velocity": 97}, {"time": 1018, "pitch": 62, "duration": 9, "velocity": 105}, {"time": 1018, "pitch": 65, "duration": 8, "velocity": 97}, {"time": 1024, "pitch": 57, "duration": 4, "velocity": 84}, {"time": 1030, "pitch": 57, "duration": 10, "velocity": 102}, {"time": 1030, "pitch": 62, "duration": 10, "velocity": 105}, {"time": 1030, "pitch": 65, "duration": 11, "velocity": 102}, {"time": 1036, "pitch": 50, "duration": 4, "velocity": 114}, {"time": 1042, "pitch": 43, "duration": 38, "velocity": 102}, {"time": 1042, "pitch": 53, "duration": 3, "velocity": 60}, {"time": 1042, "pitch": 55, "duration": 5, "velocity": 53}, {"time": 1042, "pitch": 59, "duration": 10, "velocity": 89}, {"time": 1042, "pitch": 62, "duration": 10, "velocity": 92}, {"time": 1045, "pitch": 50, "duration": 8, "velocity": 82}, {"time": 1054, "pitch": 55, "duration": 5, "velocity": 92}, {"time": 1054, "pitch": 59, "duration": 4, "velocity": 100}, {"time": 1054, "pitch": 62, "duration": 6, "velocity": 97}, {"time": 1060, "pitch": 50, "duration": 9, "velocity": 47}, {"time": 1066, "pitch": 55, "duration": 1, "velocity": 27}, {"time": 1066, "pitch": 59, "duration": 7, "velocity": 102}, {"time": 1066, "pitch": 62, "duration": 8, "velocity": 97}, {"time": 1066, "pitch": 67, "duration": 7, "velocity": 92}, {"time": 1072, "pitch": 50, "duration": 8, "velocity": 41}, {"time": 1078, "pitch": 55, "duration": 6, "velocity": 97}, {"time": 1078, "pitch": 59, "duration": 5, "velocity": 108}, {"time": 1078, "pitch": 62, "duration": 7, "velocity": 102}, {"time": 1078, "pitch": 67, "duration": 6, "velocity": 84}, {"time": 1084, "pitch": 43, "duration": 5, "velocity": 102}, {"time": 1090, "pitch": 48, "duration": 38, "velocity": 84}, {"time": 1090, "pitch": 55, "duration": 9, "velocity": 78}, {"time": 1090, "pitch": 60, "duration": 9, "velocity": 89}, {"time": 1090, "pitch": 64, "duration": 9, "velocity": 94}, {"time": 1102, "pitch": 55, "duration": 3, "velocity": 84}, {"time": 1102, "pitch": 60, "duration": 7, "velocity": 97}, {"time": 1102, "pitch": 64, "duration": 8, "velocity": 97}, {"time": 1108, "pitch": 55, "duration": 4, "velocity": 34}, {"time": 1114, "pitch": 55, "duration": 4, "velocity": 97}, {"time": 1114, "pitch": 60, "duration": 10, "velocity": 108}, {"time": 1114, "pitch": 64, "duration": 10, "velocity": 102}, {"time": 1120, "pitch": 55, "duration": 4, "velocity": 53}, {"time": 1126, "pitch": 55, "duration": 6, "velocity": 94}, {"time": 1126, "pitch": 60, "duration": 6, "velocity": 108}, {"time": 1126, "pitch": 64, "duration": 8, "velocity": 105}, {"time": 1132, "pitch": 48, "duration": 4, "velocity": 114}, {"time": 1138, "pitch": 50, "duration": 34, "velocity": 108}, {"time": 1138, "pitch": 57, "duration": 9, "velocity": 92}, {"time": 1138, "pitch": 62, "duration": 9, "velocity": 92}, {"time": 1138, "pitch": 65, "duration": 9, "velocity": 92}, {"time": 1150, "pitch": 57, "duration": 10, "velocity": 100}, {"time": 1150, "pitch": 62, "duration": 10, "velocity": 94}, {"time": 1150, "pitch": 65, "duration": 9, "velocity": 92}, {"time": 1162, "pitch": 62, "duration": 9, "velocity": 102}, {"time": 1162, "pitch": 65, "duration": 9, "velocity": 105}, {"time": 1168, "pitch": 57, "duration": 5, "velocity": 66}, {"time": 1174, "pitch": 50, "duration": 8, "velocity": 100}, {"time": 1174, "pitch": 57, "duration": 1, "velocity": 53}, {"time": 1174, "pitch": 62, "duration": 6, "velocity": 97}, {"time": 1174, "pitch": 65, "duration": 10, "velocity": 97}, {"time": 1180, "pitch": 57, "duration": 4, "velocity": 76}, {"time": 1186, "pitch": 45, "duration": 43, "velocity": 94}, {"time": 1186, "pitch": 57, "duration": 9, "velocity": 102}, {"time": 1186, "pitch": 60, "duration": 8, "velocity": 94}, {"time": 1186, "pitch": 64, "duration": 8, "velocity": 92}, {"time": 1192, "pitch": 52, "duration": 8, "velocity": 39}, {"time": 1198, "pitch": 60, "duration": 3, "velocity": 94}, {"time": 1198, "pitch": 64, "duration": 3, "velocity": 94}, {"time": 1204, "pitch": 52, "duration": 10, "velocity": 45}, {"time": 1210, "pitch": 57, "duration": 1, "velocity": 55}, {"time": 1210, "pitch": 60, "duration": 6, "velocity": 105}, {"time": 1210, "pitch": 64, "duration": 7, "velocity": 108}, {"time": 1210, "pitch": 69, "duration": 6, "velocity": 89}, {"time": 1216, "pitch": 52, "duration": 12, "velocity": 40}, {"time": 1216, "pitch": 57, "duration": 4, "velocity": 82}, {"time": 1222, "pitch": 57, "duration": 3, "velocity": 94}, {"time": 1222, "pitch": 60, "duration": 7, "velocity": 111}, {"time": 1222, "pitch": 64, "duration": 7, "velocity": 105}, {"time": 1222, "pitch": 69, "duration": 7, "velocity": 89}, {"time": 1228, "pitch": 57, "duration": 3, "velocity": 84}, {"time": 1234, "pitch": 41, "duration": 14, "velocity": 102}, {"time": 1234, "pitch": 53, "duration": 9, "velocity": 80}, {"time": 1234, "pitch": 57, "duration": 8, "velocity": 89}, {"time": 1240, "pitch": 48, "duration": 8, "velocity": 50}, {"time": 1246, "pitch": 53, "duration": 3, "velocity": 102}, {"time": 1246, "pitch": 57, "duration": 3, "velocity": 94}, {"time": 1246, "pitch": 60, "duration": 3, "velocity": 111}, {"time": 1246, "pitch": 65, "duration": 4, "velocity": 92}, {"time": 1258, "pitch": 52, "duration": 13, "velocity": 108}, {"time": 1258, "pitch": 59, "duration": 4, "velocity": 94}, {"time": 1258, "pitch": 64, "duration": 10, "velocity": 100}, {"time": 1258, "pitch": 68, "duration": 10, "velocity": 65}, {"time": 1264, "pitch": 59, "duration": 5, "velocity": 66}, {"time": 1270, "pitch": 59, "duration": 3, "velocity": 102}, {"time": 1270, "pitch": 64, "duration": 2, "velocity": 102}, {"time": 1270, "pitch": 68, "duration": 3, "velocity": 99}, {"time": 1282, "pitch": 45, "duration": 43, "velocity": 102}, {"time": 1282, "pitch": 57, "duration": 10, "velocity": 97}, {"time": 1282, "pitch": 60, "duration": 9, "velocity": 94}, {"time": 1288, "pitch": 52, "duration": 8, "velocity": 67}, {"time": 1294, "pitch": 57, "duration": 8, "velocity": 102}, {"time": 1294, "pitch": 60, "duration": 6, "velocity": 105}, {"time": 1300, "pitch": 52, "duration": 8, "velocity": 39}, {"time": 1306, "pitch": 57, "duration": 10, "velocity": 80}, {"time": 1306, "pitch": 60, "duration": 4, "velocity": 80}, {"time": 1306, "pitch": 64, "duration": 4, "velocity": 84}, {"time": 1312, "pitch": 52, "duration": 8, "velocity": 22}, {"time": 1318, "pitch": 57, "duration": 4, "velocity": 92}, {"time": 1318, "pitch": 60, "duration": 4, "velocity": 92}, {"time": 1318, "pitch": 64, "duration": 4, "velocity": 94}, {"time": 1324, "pitch": 52, "duration": 2, "velocity": 78}, {"time": 1330, "pitch": 45, "duration": 22, "velocity": 108}, {"time": 1330, "pitch": 57, "duration": 8, "velocity": 111}, {"time": 1330, "pitch": 69, "duration": 7, "velocity": 100}, {"time": 1336, "pitch": 52, "duration": 7, "velocity": 87}, {"time": 1342, "pitch": 57, "duration": 3, "velocity": 114}, {"time": 1342, "pitch": 60, "duration": 3, "velocity": 97}, {"time": 1342, "pitch": 64, "duration": 3, "velocity": 105}, {"time": 1345, "pitch": 52, "duration": 5, "velocity": 94}, {"time": 1348, "pitch": 57, "duration": 3, "velocity": 114}, {"time": 1351, "pitch": 59, "duration": 2, "velocity": 105}, {"time": 1354, "pitch": 45, "duration": 14, "velocity": 114}, {"time": 1354, "pitch": 52, "duration": 13, "velocity": 105}, {"time": 1354, "pitch": 57, "duration": 5, "velocity": 100}, {"time": 1354, "pitch": 61, "duration": 4, "velocity": 99}, {"time": 1360, "pitch": 57, "duration": 1, "velocity": 58}, {"time": 1363, "pitch": 61, "duration": 1, "velocity": 93}, {"time": 1363, "pitch": 64, "duration": 1, "velocity": 97}, {"time": 1366, "pitch": 57, "duration": 9, "velocity": 120}, {"time": 1366, "pitch": 61, "duration": 8, "velocity": 112}, {"time": 1366, "pitch": 64, "duration": 10, "velocity": 114}, {"time": 1378, "pitch": 50, "duration": 16, "velocity": 92}, {"time": 1378, "pitch": 57, "duration": 11, "velocity": 82}, {"time": 1378, "pitch": 62, "duration": 11, "velocity": 89}, {"time": 1378, "pitch": 65, "duration": 11, "velocity": 92}, {"time": 1390, "pitch": 57, "duration": 3, "velocity": 102}, {"time": 1390, "pitch": 62, "duration": 4, "velocity": 102}, {"time": 1390, "pitch": 65, "duration": 7, "velocity": 102}, {"time": 1396, "pitch": 57, "duration": 2, "velocity": 100}, {"time": 1402, "pitch": 43, "duration": 21, "velocity": 102}, {"time": 1402, "pitch": 55, "duration": 9, "velocity": 87}, {"time": 1402, "pitch": 59, "duration": 6, "velocity": 62}, {"time": 1402, "pitch": 62, "duration": 6, "velocity": 73}, {"time": 1408, "pitch": 50, "duration": 7, "velocity": 48}, {"time": 1414, "pitch": 55, "duration": 3, "velocity": 111}, {"time": 1414, "pitch": 62, "duration": 4, "velocity": 100}, {"time": 1414, "pitch": 67, "duration": 4, "velocity": 89}, {"time": 1417, "pitch": 50, "duration": 5, "velocity": 64}, {"time": 1420, "pitch": 55, "duration": 3, "velocity": 73}, {"time": 1426, "pitch": 48, "duration": 15, "velocity": 94}, {"time": 1426, "pitch": 55, "duration": 3, "velocity": 84}, {"time": 1426, "pitch": 60, "duration": 8, "velocity": 92}, {"time": 1432, "pitch": 55, "duration": 4, "velocity": 55}, {"time": 1438, "pitch": 55, "duration": 3, "velocity": 102}, {"time": 1438, "pitch": 60, "duration": 3, "velocity": 102}, {"time": 1438, "pitch": 64, "duration": 5, "velocity": 97}, {"time": 1450, "pitch": 41, "duration": 14, "velocity": 94}, {"time": 1450, "pitch": 57, "duration": 7, "velocity": 92}, {"time": 1450, "pitch": 60, "duration": 7, "velocity": 87}, {"time": 1450, "pitch": 65, "duration": 8, "velocity": 94}, {"time": 1456, "pitch": 48, "duration": 8, "velocity": 55}, {"time": 1462, "pitch": 57, "duration": 2, "velocity": 92}, {"time": 1462, "pitch": 60, "duration": 6, "velocity": 102}, {"time": 1462, "pitch": 65, "duration": 9, "velocity": 100}, {"time": 1468, "pitch": 57, "duration": 2, "velocity": 102}, {"time": 1474, "pitch": 47, "duration": 15, "velocity": 102}, {"time": 1474, "pitch": 59, "duration": 10, "velocity": 82}, {"time": 1474, "pitch": 62, "duration": 10, "velocity": 84}, {"time": 1480, "pitch": 53, "duration": 8, "velocity": 73}, {"time": 1486, "pitch": 59, "duration": 4, "velocity": 94}, {"time": 1486, "pitch": 62, "duration": 7, "velocity": 92}, {"time": 1486, "pitch": 69, "duration": 11, "velocity": 100}, {"time": 1492, "pitch": 47, "duration": 2, "velocity": 87}, {"time": 1492, "pitch": 59, "duration": 2, "velocity": 66}, {"time": 1498, "pitch": 52, "duration": 18, "velocity": 114}, {"time": 1498, "pitch": 59, "duration": 4, "velocity": 102}, {"time": 1498, "pitch": 64, "duration": 9, "velocity": 100}, {"time": 1504, "pitch": 59, "duration": 4, "velocity": 82}, {"time": 1510, "pitch": 59, "duration": 3, "velocity": 105}, {"time": 1510, "pitch": 64, "duration": 6, "velocity": 100}, {"time": 1510, "pitch": 68, "duration": 6, "velocity": 102}, {"time": 1516, "pitch": 59, "duration": 1, "velocity": 92}, {"time": 1522, "pitch": 45, "duration": 22, "velocity": 102}, {"time": 1522, "pitch": 57, "duration": 6, "velocity": 102}, {"time": 1522, "pitch": 60, "duration": 6, "velocity": 100}, {"time": 1528, "pitch": 52, "duration": 7, "velocity": 76}, {"time": 1531, "pitch": 57, "duration": 1, "velocity": 97}, {"time": 1534, "pitch": 57, "duration": 3, "velocity": 117}, {"time": 1534, "pitch": 64, "duration": 5, "velocity": 108}, {"time": 1537, "pitch": 52, "duration": 6, "velocity": 64}, {"time": 1540, "pitch": 57, "duration": 4, "velocity": 102}, {"time": 1543, "pitch": 64, "duration": 2, "velocity": 76}, {"time": 1546, "pitch": 45, "duration": 7, "velocity": 111}, {"time": 1546, "pitch": 52, "duration": 7, "velocity": 114}, {"time": 1546, "pitch": 57, "duration": 4, "velocity": 117}, {"time": 1552, "pitch": 57, "duration": 1, "velocity": 108}, {"time": 1555, "pitch": 47, "duration": 8, "velocity": 108}, {"time": 1555, "pitch": 59, "duration": 6, "velocity": 108}, {"time": 1561, "pitch": 57, "duration": 2, "velocity": 92}, {"time": 1564, "pitch": 49, "duration": 3, "velocity": 105}, {"time": 1564, "pitch": 57, "duration": 2, "velocity": 102}, {"time": 1564, "pitch": 61, "duration": 3, "velocity": 102}, {"time": 1567, "pitch": 57, "duration": 2, "velocity": 84}, {"time": 1570, "pitch": 50, "duration": 17, "velocity": 117}, {"time": 1570, "pitch": 57, "duration": 4, "velocity": 105}, {"time": 1570, "pitch": 62, "duration": 9, "velocity": 100}, {"time": 1570, "pitch": 65, "duration": 9, "velocity": 82}, {"time": 1576, "pitch": 57, "duration": 4, "velocity": 97}, {"time": 1582, "pitch": 57, "duration": 3, "velocity": 111}, {"time": 1582, "pitch": 65, "duration": 7, "velocity": 111}, {"time": 1585, "pitch": 53, "duration": 4, "velocity": 42}, {"time": 1588, "pitch": 57, "duration": 3, "velocity": 111}, {"time": 1594, "pitch": 43, "duration": 16, "velocity": 102}, {"time": 1594, "pitch": 55, "duration": 7, "velocity": 80}, {"time": 1594, "pitch": 59, "duration": 6, "velocity": 82}, {"time": 1594, "pitch": 62, "duration": 6, "velocity": 89}, {"time": 1600, "pitch": 50, "duration": 8, "velocity": 73}, {"time": 1606, "pitch": 55, "duration": 6, "velocity": 105}, {"time": 1606, "pitch": 59, "duration": 6, "velocity": 108}, {"time": 1606, "pitch": 62, "duration": 7, "velocity": 108}, {"time": 1612, "pitch": 43, "duration": 5, "velocity": 97}, {"time": 1618, "pitch": 48, "duration": 19, "velocity": 100}, {"time": 1618, "pitch": 55, "duration": 4, "velocity": 94}, {"time": 1618, "pitch": 60, "duration": 8, "velocity": 102}, {"time": 1618, "pitch": 64, "duration": 9, "velocity": 100}, {"time": 1624, "pitch": 55, "duration": 4, "velocity": 80}, {"time": 1630, "pitch": 64, "duration": 9, "velocity": 97}, {"time": 1636, "pitch": 52, "duration": 3, "velocity": 94}, {"time": 1642, "pitch": 41, "duration": 16, "velocity": 102}, {"time": 1642, "pitch": 57, "duration": 6, "velocity": 94}, {"time": 1642, "pitch": 60, "duration": 8, "velocity": 100}, {"time": 1642, "pitch": 65, "duration": 8, "velocity": 100}, {"time": 1648, "pitch": 48, "duration": 8, "velocity": 45}, {"time": 1654, "pitch": 57, "duration": 2, "velocity": 108}, {"time": 1654, "pitch": 60, "duration": 4, "velocity": 105}, {"time": 1654, "pitch": 65, "duration": 7, "velocity": 100}, {"time": 1657, "pitch": 57, "duration": 3, "velocity": 60}, {"time": 1660, "pitch": 60, "duration": 4, "velocity": 87}, {"time": 1666, "pitch": 47, "duration": 16, "velocity": 100}, {"time": 1666, "pitch": 59, "duration": 8, "velocity": 82}, {"time": 1666, "pitch": 62, "duration": 8, "velocity": 84}, {"time": 1672, "pitch": 53, "duration": 9, "velocity": 66}, {"time": 1678, "pitch": 59, "duration": 4, "velocity": 105}, {"time": 1678, "pitch": 62, "duration": 4, "velocity": 111}, {"time": 1690, "pitch": 52, "duration": 19, "velocity": 94}, {"time": 1690, "pitch": 59, "duration": 10, "velocity": 82}, {"time": 1690, "pitch": 68, "duration": 10, "velocity": 63}, {"time": 1702, "pitch": 59, "duration": 4, "velocity": 97}, {"time": 1702, "pitch": 64, "duration": 5, "velocity": 100}, {"time": 1702, "pitch": 68, "duration": 5, "velocity": 90}, {"time": 1714, "pitch": 45, "duration": 45, "velocity": 80}, {"time": 1714, "pitch": 57, "duration": 8, "velocity": 44}, {"time": 1714, "pitch": 60, "duration": 7, "velocity": 64}, {"time": 1714, "pitch": 64, "duration": 8, "velocity": 84}, {"time": 1720, "pitch": 52, "duration": 8, "velocity": 42}, {"time": 1726, "pitch": 57, "duration": 3, "velocity": 97}, {"time": 1726, "pitch": 60, "duration": 5, "velocity": 102}, {"time": 1726, "pitch": 64, "duration": 6, "velocity": 97}, {"time": 1732, "pitch": 52, "duration": 9, "velocity": 34}, {"time": 1738, "pitch": 57, "duration": 6, "velocity": 82}, {"time": 1738, "pitch": 60, "duration": 6, "velocity": 76}, {"time": 1738, "pitch": 64, "duration": 7, "velocity": 89}, {"time": 1744, "pitch": 52, "duration": 7, "velocity": 40}, {"time": 1750, "pitch": 57, "duration": 3, "velocity": 102}, {"time": 1750, "pitch": 60, "duration": 3, "velocity": 108}, {"time": 1750, "pitch": 64, "duration": 7, "velocity": 105}, {"time": 1753, "pitch": 52, "duration": 5, "velocity": 69}, {"time": 1756, "pitch": 57, "duration": 2, "velocity": 100}, {"time": 1762, "pitch": 45, "duration": 22, "velocity": 108}, {"time": 1762, "pitch": 52, "duration": 13, "velocity": 105}, {"time": 1762, "pitch": 57, "duration": 9, "velocity": 108}, {"time": 1762, "pitch": 64, "duration": 10, "velocity": 108}, {"time": 1774, "pitch": 57, "duration": 3, "velocity": 114}, {"time": 1774, "pitch": 64, "duration": 4, "velocity": 114}, {"time": 1777, "pitch": 52, "duration": 7, "velocity": 82}, {"time": 1780, "pitch": 57, "duration": 4, "velocity": 94}, {"time": 1783, "pitch": 69, "duration": 2, "velocity": 94}, {"time": 1786, "pitch": 45, "duration": 7, "velocity": 108}, {"time": 1786, "pitch": 52, "duration": 7, "velocity": 94}, {"time": 1786, "pitch": 57, "duration": 4, "velocity": 114}, {"time": 1786, "pitch": 69, "duration": 7, "velocity": 105}, {"time": 1792, "pitch": 57, "duration": 2, "velocity": 67}, {"time": 1795, "pitch": 47, "duration": 9, "velocity": 111}, {"time": 1795, "pitch": 59, "duration": 8, "velocity": 108}, {"time": 1804, "pitch": 49, "duration": 5, "velocity": 116}, {"time": 1804, "pitch": 57, "duration": 5, "velocity": 97}, {"time": 1804, "pitch": 61, "duration": 5, "velocity": 105}, {"time": 1810, "pitch": 50, "duration": 16, "velocity": 92}, {"time": 1810, "pitch": 57, "duration": 11, "velocity": 82}, {"time": 1810, "pitch": 62, "duration": 11, "velocity": 89}, {"time": 1810, "pitch": 65, "duration": 11, "velocity": 92}, {"time": 1822, "pitch": 57, "duration": 3, "velocity": 102}, {"time": 1822, "pitch": 62, "duration": 4, "velocity": 102}, {"time": 1822, "pitch": 65, "duration": 7, "velocity": 102}, {"time": 1828, "pitch": 57, "duration": 2, "velocity": 100}, {"time": 1834, "pitch": 43, "duration": 21, "velocity": 102}, {"time": 1834, "pitch": 55, "duration": 9, "velocity": 87}, {"time": 1834, "pitch": 59, "duration": 6, "velocity": 62}, {"time": 1834, "pitch": 62, "duration": 6, "velocity": 73}, {"time": 1840, "pitch": 50, "duration": 7, "velocity": 48}, {"time": 1846, "pitch": 55, "duration": 3, "velocity": 111}, {"time": 1846, "pitch": 62, "duration": 4, "velocity": 100}, {"time": 1846, "pitch": 67, "duration": 4, "velocity": 89}, {"time": 1849, "pitch": 50, "duration": 5, "velocity": 64}, {"time": 1852, "pitch": 55, "duration": 3, "velocity": 73}, {"time": 1858, "pitch": 48, "duration": 15, "velocity": 94}, {"time": 1858, "pitch": 55, "duration": 3, "velocity": 84}, {"time": 1858, "pitch": 60, "duration": 8, "velocity": 92}, {"time": 1864, "pitch": 55, "duration": 4, "velocity": 55}, {"time": 1870, "pitch": 55, "duration": 3, "velocity": 102}, {"time": 1870, "pitch": 60, "duration": 3, "velocity": 102}, {"time": 1870, "pitch": 64, "duration": 5, "velocity": 97}, {"time": 1882, "pitch": 41, "duration": 14, "velocity": 94}, {"time": 1882, "pitch": 57, "duration": 7, "velocity": 92}, {"time": 1882, "pitch": 60, "duration": 7, "velocity": 87}, {"time": 1882, "pitch": 65, "duration": 8, "velocity": 94}, {"time": 1888, "pitch": 48, "duration": 8, "velocity": 55}, {"time": 1894, "pitch": 57, "duration": 2, "velocity": 92}, {"time": 1894, "pitch": 60, "duration": 6, "velocity": 102}, {"time": 1894, "pitch": 65, "duration": 9, "velocity": 100}, {"time": 1900, "pitch": 57, "duration": 2, "velocity": 102}, {"time": 1906, "pitch": 47, "duration": 15, "velocity": 102}, {"time": 1906, "pitch": 59, "duration": 10, "velocity": 82}, {"time": 1906, "pitch": 62, "duration": 10, "velocity": 84}, {"time": 1912, "pitch": 53, "duration": 8, "velocity": 73}, {"time": 1918, "pitch": 59, "duration": 4, "velocity": 94}, {"time": 1918, "pitch": 62, "duration": 7, "velocity": 92}, {"time": 1918, "pitch": 69, "duration": 11, "velocity": 100}, {"time": 1924, "pitch": 47, "duration": 2, "velocity": 87}, {"time": 1924, "pitch": 59, "duration": 2, "velocity": 66}, {"time": 1930, "pitch": 52, "duration": 18, "velocity": 114}, {"time": 1930, "pitch": 59, "duration": 4, "velocity": 102}, {"time": 1930, "pitch": 64, "duration": 9, "velocity": 100}, {"time": 1936, "pitch": 59, "duration": 4, "velocity": 82}, {"time": 1942, "pitch": 59, "duration": 3, "velocity": 105}, {"time": 1942, "pitch": 64, "duration": 6, "velocity": 100}, {"time": 1942, "pitch": 68, "duration": 6, "velocity": 102}, {"time": 1948, "pitch": 59, "duration": 1, "velocity": 92}, {"time": 1954, "pitch": 45, "duration": 22, "velocity": 102}, {"time": 1954, "pitch": 57, "duration": 6, "velocity": 102}, {"time": 1954, "pitch": 60, "duration": 6, "velocity": 100}, {"time": 1960, "pitch": 52, "duration": 7, "velocity": 76}, {"time": 1963, "pitch": 57, "duration": 1, "velocity": 97}, {"time": 1966, "pitch": 57, "duration": 3, "velocity": 117}, {"time": 1966, "pitch": 64, "duration": 5, "velocity": 108}, {"time": 1969, "pitch": 52, "duration": 6, "velocity": 64}, {"time": 1972, "pitch": 57, "duration": 4, "velocity": 102}, {"time": 1975, "pitch": 64, "duration": 2, "velocity": 76}, {"time": 1978, "pitch": 45, "duration": 7, "velocity": 111}, {"time": 1978, "pitch": 52, "duration": 7, "velocity": 114}, {"time": 1978, "pitch": 57, "duration": 4, "velocity": 117}, {"time": 1984, "pitch": 57, "duration": 1, "velocity": 108}, {"time": 1987, "pitch": 47, "duration": 8, "velocity": 108}, {"time": 1987, "pitch": 59, "duration": 6, "velocity": 108}, {"time": 1993, "pitch": 57, "duration": 2, "velocity": 92}, {"time": 1996, "pitch": 49, "duration": 3, "velocity": 105}, {"time": 1996, "pitch": 57, "duration": 2, "velocity": 102}, {"time": 1996, "pitch": 61, "duration": 3, "velocity": 102}, {"time": 1999, "pitch": 57, "duration": 2, "velocity": 84}, {"time": 2002, "pitch": 50, "duration": 17, "velocity": 117}, {"time": 2002, "pitch": 57, "duration": 4, "velocity": 105}, {"time": 2002, "pitch": 62, "duration": 9, "velocity": 100}, {"time": 2002, "pitch": 65, "duration": 9, "velocity": 82}, {"time": 2008, "pitch": 57, "duration": 4, "velocity": 97}, {"time": 2014, "pitch": 57, "duration": 3, "velocity": 111}, {"time": 2014, "pitch": 65, "duration": 7, "velocity": 111}, {"time": 2017, "pitch": 53, "duration": 4, "velocity": 42}, {"time": 2020, "pitch": 57, "duration": 3, "velocity": 111}, {"time": 2026, "pitch": 43, "duration": 16, "velocity": 102}, {"time": 2026, "pitch": 55, "duration": 7, "velocity": 80}, {"time": 2026, "pitch": 59, "duration": 6, "velocity": 82}, {"time": 2026, "pitch": 62, "duration": 6, "velocity": 89}, {"time": 2032, "pitch": 50, "duration": 8, "velocity": 73}, {"time": 2038, "pitch": 55, "duration": 6, "velocity": 105}, {"time": 2038, "pitch": 59, "duration": 6, "velocity": 108}, {"time": 2038, "pitch": 62, "duration": 7, "velocity": 108}, {"time": 2044, "pitch": 43, "duration": 5, "velocity": 97}, {"time": 2050, "pitch": 52, "duration": 14, "velocity": 92}, {"time": 2050, "pitch": 59, "duration": 3, "velocity": 92}, {"time": 2050, "pitch": 64, "duration": 10, "velocity": 92}, {"time": 2050, "pitch": 68, "duration": 10, "velocity": 77}, {"time": 2056, "pitch": 59, "duration": 4, "velocity": 73}, {"time": 2062, "pitch": 59, "duration": 4, "velocity": 108}, {"time": 2062, "pitch": 64, "duration": 4, "velocity": 114}, {"time": 2062, "pitch": 68, "duration": 5, "velocity": 109}, {"time": 2074, "pitch": 45, "duration": 16, "velocity": 102}, {"time": 2074, "pitch": 64, "duration": 7, "velocity": 94}, {"time": 2074, "pitch": 69, "duration": 7, "velocity": 108}, {"time": 2080, "pitch": 52, "duration": 8, "velocity": 78}, {"time": 2086, "pitch": 64, "duration": 10, "velocity": 108}, {"time": 2086, "pitch": 69, "duration": 11, "velocity": 114}, {"time": 2086, "pitch": 72, "duration": 11, "velocity": 114}, {"time": 2092, "pitch": 45, "duration": 6, "velocity": 76}, {"time": 2092, "pitch": 52, "duration": 6, "velocity": 80}, {"time": 2098, "pitch": 46, "duration": 16, "velocity": 105}, {"time": 2098, "pitch": 65, "duration": 7, "velocity": 84}, {"time": 2098, "pitch": 70, "duration": 8, "velocity": 102}, {"time": 2104, "pitch": 53, "duration": 8, "velocity": 49}, {"time": 2110, "pitch": 65, "duration": 4, "velocity": 102}, {"time": 2110, "pitch": 70, "duration": 7, "velocity": 109}, {"time": 2113, "pitch": 53, "duration": 5, "velocity": 76}, {"time": 2116, "pitch": 65, "duration": 5, "velocity": 102}, {"time": 2119, "pitch": 70, "duration": 2, "velocity": 79}, {"time": 2122, "pitch": 46, "duration": 15, "velocity": 65}, {"time": 2122, "pitch": 53, "duration": 15, "velocity": 71}, {"time": 2122, "pitch": 65, "duration": 8, "velocity": 82}, {"time": 2122, "pitch": 70, "duration": 9, "velocity": 90}, {"time": 2134, "pitch": 65, "duration": 4, "velocity": 100}, {"time": 2134, "pitch": 70, "duration": 6, "velocity": 112}, {"time": 2146, "pitch": 52, "duration": 22, "velocity": 89}, {"time": 2146, "pitch": 59, "duration": 9, "velocity": 66}, {"time": 2146, "pitch": 64, "duration": 10, "velocity": 80}, {"time": 2146, "pitch": 65, "duration": 2, "velocity": 71}, {"time": 2158, "pitch": 59, "duration": 3, "velocity": 100}, {"time": 2158, "pitch": 64, "duration": 11, "velocity": 100}, {"time": 2158, "pitch": 68, "duration": 7, "velocity": 99}, {"time": 2164, "pitch": 59, "duration": 5, "velocity": 94}, {"time": 2170, "pitch": 52, "duration": 22, "velocity": 105}, {"time": 2170, "pitch": 59, "duration": 22, "velocity": 92}, {"time": 2170, "pitch": 64, "duration": 22, "velocity": 94}, {"time": 2170, "pitch": 71, "duration": 23, "velocity": 105}, {"time": 2194, "pitch": 52, "duration": 5, "velocity": 100}, {"time": 2194, "pitch": 64, "duration": 5, "velocity": 80}, {"time": 2200, "pitch": 50, "duration": 3, "velocity": 105}, {"time": 2200, "pitch": 62, "duration": 3, "velocity": 105}, {"time": 2206, "pitch": 47, "duration": 4, "velocity": 97}, {"time": 2206, "pitch": 59, "duration": 7, "velocity": 105}, {"time": 2212, "pitch": 45, "duration": 4, "velocity": 87}, {"time": 2212, "pitch": 57, "duration": 4, "velocity": 97}, {"time": 2218, "pitch": 44, "duration": 47, "velocity": 96}, {"time": 2218, "pitch": 52, "duration": 46, "velocity": 87}, {"time": 2218, "pitch": 56, "duration": 46, "velocity": 82}, {"time": 2266, "pitch": 45, "duration": 40, "velocity": 100}, {"time": 2266, "pitch": 57, "duration": 7, "velocity": 73}, {"time": 2266, "pitch": 59, "duration": 8, "velocity": 89}, {"time": 2266, "pitch": 64, "duration": 8, "velocity": 89}, {"time": 2272, "pitch": 52, "duration": 9, "velocity": 39}, {"time": 2278, "pitch": 57, "duration": 2, "velocity": 82}, {"time": 2278, "pitch": 59, "duration": 3, "velocity": 89}, {"time": 2278, "pitch": 64, "duration": 3, "velocity": 89}, {"time": 2284, "pitch": 52, "duration": 8, "velocity": 21}, {"time": 2290, "pitch": 57, "duration": 5, "velocity": 94}, {"time": 2290, "pitch": 64, "duration": 4, "velocity": 94}, {"time": 2296, "pitch": 52, "duration": 8, "velocity": 30}, {"time": 2302, "pitch": 57, "duration": 6, "velocity": 89}, {"time": 2302, "pitch": 60, "duration": 5, "velocity": 94}, {"time": 2302, "pitch": 64, "duration": 6, "velocity": 94}, {"time": 2308, "pitch": 45, "duration": 4, "velocity": 87}, {"time": 2314, "pitch": 50, "duration": 44, "velocity": 78}, {"time": 2314, "pitch": 57, "duration": 9, "velocity": 80}, {"time": 2314, "pitch": 62, "duration": 8, "velocity": 80}, {"time": 2314, "pitch": 65, "duration": 8, "velocity": 89}, {"time": 2326, "pitch": 62, "duration": 5, "velocity": 92}, {"time": 2326, "pitch": 65, "duration": 5, "velocity": 89}, {"time": 2338, "pitch": 62, "duration": 4, "velocity": 84}, {"time": 2338, "pitch": 65, "duration": 5, "velocity": 84}, {"time": 2350, "pitch": 57, "duration": 4, "velocity": 97}, {"time": 2350, "pitch": 62, "duration": 7, "velocity": 100}, {"time": 2350, "pitch": 65, "duration": 10, "velocity": 97}, {"time": 2356, "pitch": 57, "duration": 3, "velocity": 97}, {"time": 2362, "pitch": 43, "duration": 39, "velocity": 100}, {"time": 2362, "pitch": 55, "duration": 8, "velocity": 78}, {"time": 2362, "pitch": 59, "duration": 7, "velocity": 82}, {"time": 2362, "pitch": 62, "duration": 8, "velocity": 82}, {"time": 2368, "pitch": 50, "duration": 10, "velocity": 46}, {"time": 2374, "pitch": 59, "duration": 6, "velocity": 84}, {"time": 2374, "pitch": 62, "duration": 8, "velocity": 87}, {"time": 2380, "pitch": 50, "duration": 8, "velocity": 30}, {"time": 2386, "pitch": 59, "duration": 4, "velocity": 67}, {"time": 2386, "pitch": 62, "duration": 5, "velocity": 67}, {"time": 2392, "pitch": 50, "duration": 10, "velocity": 13}, {"time": 2398, "pitch": 55, "duration": 6, "velocity": 102}, {"time": 2398, "pitch": 59, "duration": 5, "velocity": 114}, {"time": 2398, "pitch": 62, "duration": 7, "velocity": 111}, {"time": 2404, "pitch": 43, "duration": 5, "velocity": 94}, {"time": 2410, "pitch": 48, "duration": 40, "velocity": 100}, {"time": 2410, "pitch": 55, "duration": 8, "velocity": 87}, {"time": 2410, "pitch": 60, "duration": 7, "velocity": 78}, {"time": 2422, "pitch": 60, "duration": 4, "velocity": 84}, {"time": 2422, "pitch": 64, "duration": 7, "velocity": 87}, {"time": 2434, "pitch": 60, "duration": 7, "velocity": 102}, {"time": 2434, "pitch": 64, "duration": 5, "velocity": 97}, {"time": 2446, "pitch": 55, "duration": 10, "velocity": 102}, {"time": 2446, "pitch": 60, "duration": 11, "velocity": 105}, {"time": 2446, "pitch": 64, "duration": 12, "velocity": 100}, {"time": 2452, "pitch": 43, "duration": 6, "velocity": 105}, {"time": 2458, "pitch": 50, "duration": 40, "velocity": 87}, {"time": 2458, "pitch": 57, "duration": 11, "velocity": 82}, {"time": 2458, "pitch": 62, "duration": 11, "velocity": 82}, {"time": 2458, "pitch": 65, "duration": 11, "velocity": 87}, {"time": 2470, "pitch": 62, "duration": 9, "velocity": 102}, {"time": 2470, "pitch": 65, "duration": 9, "velocity": 105}, {"time": 2482, "pitch": 57, "duration": 3, "velocity": 97}, {"time": 2482, "pitch": 62, "duration": 8, "velocity": 100}, {"time": 2482, "pitch": 65, "duration": 7, "velocity": 102}, {"time": 2494, "pitch": 57, "duration": 10, "velocity": 105}, {"time": 2494, "pitch": 62, "duration": 11, "velocity": 102}, {"time": 2494, "pitch": 65, "duration": 11, "velocity": 97}, {"time": 2500, "pitch": 50, "duration": 6, "velocity": 105}, {"time": 2506, "pitch": 45, "duration": 40, "velocity": 108}, {"time": 2506, "pitch": 57, "duration": 10, "velocity": 92}, {"time": 2506, "pitch": 60, "duration": 9, "velocity": 84}, {"time": 2512, "pitch": 52, "duration": 20, "velocity": 84}, {"time": 2518, "pitch": 57, "duration": 7, "velocity": 97}, {"time": 2518, "pitch": 60, "duration": 6, "velocity": 100}, {"time": 2518, "pitch": 64, "duration": 5, "velocity": 97}, {"time": 2530, "pitch": 57, "duration": 8, "velocity": 76}, {"time": 2530, "pitch": 60, "duration": 7, "velocity": 80}, {"time": 2530, "pitch": 64, "duration": 7, "velocity": 82}, {"time": 2536, "pitch": 52, "duration": 11, "velocity": 36}, {"time": 2542, "pitch": 57, "duration": 8, "velocity": 105}, {"time": 2542, "pitch": 60, "duration": 7, "velocity": 111}, {"time": 2542, "pitch": 64, "duration": 10, "velocity": 108}, {"time": 2548, "pitch": 43, "duration": 4, "velocity": 89}, {"time": 2554, "pitch": 41, "duration": 42, "velocity": 100}, {"time": 2554, "pitch": 53, "duration": 11, "velocity": 87}, {"time": 2554, "pitch": 57, "duration": 8, "velocity": 100}, {"time": 2554, "pitch": 60, "duration": 9, "velocity": 94}, {"time": 2560, "pitch": 48, "duration": 19, "velocity": 32}, {"time": 2566, "pitch": 57, "duration": 9, "velocity": 114}, {"time": 2566, "pitch": 60, "duration": 10, "velocity": 108}, {"time": 2566, "pitch": 65, "duration": 10, "velocity": 89}, {"time": 2578, "pitch": 57, "duration": 8, "velocity": 94}, {"time": 2578, "pitch": 60, "duration": 9, "velocity": 92}, {"time": 2578, "pitch": 65, "duration": 8, "velocity": 87}, {"time": 2590, "pitch": 57, "duration": 6, "velocity": 108}, {"time": 2590, "pitch": 60, "duration": 7, "velocity": 105}, {"time": 2590, "pitch": 65, "duration": 9, "velocity": 97}, {"time": 2596, "pitch": 53, "duration": 2, "velocity": 100}, {"time": 2602, "pitch": 52, "duration": 44, "velocity": 117}, {"time": 2602, "pitch": 59, "duration": 10, "velocity": 105}, {"time": 2602, "pitch": 64, "duration": 10, "velocity": 100}, {"time": 2614, "pitch": 59, "duration": 4, "velocity": 100}, {"time": 2614, "pitch": 64, "duration": 10, "velocity": 100}, {"time": 2614, "pitch": 68, "duration": 10, "velocity": 99}, {"time": 2626, "pitch": 59, "duration": 9, "velocity": 100}, {"time": 2626, "pitch": 64, "duration": 10, "velocity": 97}, {"time": 2626, "pitch": 68, "duration": 10, "velocity": 102}, {"time": 2638, "pitch": 59, "duration": 8, "velocity": 102}, {"time": 2638, "pitch": 64, "duration": 7, "velocity": 92}, {"time": 2638, "pitch": 71, "duration": 7, "velocity": 102}, {"time": 2650, "pitch": 45, "duration": 40, "velocity": 105}, {"time": 2650, "pitch": 57, "duration": 9, "velocity": 80}, {"time": 2650, "pitch": 60, "duration": 9, "velocity": 82}, {"time": 2650, "pitch": 64, "duration": 9, "velocity": 92}, {"time": 2656, "pitch": 52, "duration": 9, "velocity": 49}, {"time": 2662, "pitch": 57, "duration": 7, "velocity": 92}, {"time": 2662, "pitch": 60, "duration": 7, "velocity": 89}, {"time": 2662, "pitch": 64, "duration": 7, "velocity": 87}, {"time": 2674, "pitch": 57, "duration": 6, "velocity": 102}, {"time": 2674, "pitch": 60, "duration": 6, "velocity": 102}, {"time": 2674, "pitch": 64, "duration": 6, "velocity": 97}, {"time": 2680, "pitch": 52, "duration": 8, "velocity": 76}, {"time": 2686, "pitch": 57, "duration": 5, "velocity": 97}, {"time": 2686, "pitch": 60, "duration": 5, "velocity": 105}, {"time": 2686, "pitch": 64, "duration": 5, "velocity": 100}, {"time": 2692, "pitch": 45, "duration": 5, "velocity": 105}, {"time": 2698, "pitch": 50, "duration": 39, "velocity": 97}, {"time": 2698, "pitch": 57, "duration": 8, "velocity": 80}, {"time": 2698, "pitch": 62, "duration": 8, "velocity": 87}, {"time": 2698, "pitch": 65, "duration": 8, "velocity": 82}, {"time": 2710, "pitch": 62, "duration": 7, "velocity": 100}, {"time": 2710, "pitch": 65, "duration": 7, "velocity": 97}, {"time": 2716, "pitch": 57, "duration": 3, "velocity": 58}, {"time": 2722, "pitch": 57, "duration": 3, "velocity": 97}, {"time": 2722, "pitch": 62, "duration": 9, "velocity": 105}, {"time": 2722, "pitch": 65, "duration": 8, "velocity": 97}, {"time": 2728, "pitch": 57, "duration": 4, "velocity": 84}, {"time": 2734, "pitch": 57, "duration": 10, "velocity": 102}, {"time": 2734, "pitch": 62, "duration": 10, "velocity": 105}, {"time": 2734, "pitch": 65, "duration": 11, "velocity": 102}, {"time": 2740, "pitch": 50, "duration": 4, "velocity": 114}, {"time": 2746, "pitch": 43, "duration": 38, "velocity": 102}, {"time": 2746, "pitch": 53, "duration": 3, "velocity": 60}, {"time": 2746, "pitch": 55, "duration": 5, "velocity": 53}, {"time": 2746, "pitch": 59, "duration": 10, "velocity": 89}, {"time": 2746, "pitch": 62, "duration": 10, "velocity": 92}, {"time": 2749, "pitch": 50, "duration": 8, "velocity": 82}, {"time": 2758, "pitch": 55, "duration": 5, "velocity": 92}, {"time": 2758, "pitch": 59, "duration": 4, "velocity": 100}, {"time": 2758, "pitch": 62, "duration": 6, "velocity": 97}, {"time": 2764, "pitch": 50, "duration": 9, "velocity": 47}, {"time": 2770, "pitch": 55, "duration": 1, "velocity": 27}, {"time": 2770, "pitch": 59, "duration": 7, "velocity": 102}, {"time": 2770, "pitch": 62, "duration": 8, "velocity": 97}, {"time": 2770, "pitch": 67, "duration": 7, "velocity": 92}, {"time": 2776, "pitch": 50, "duration": 8, "velocity": 41}, {"time": 2782, "pitch": 55, "duration": 6, "velocity": 97}, {"time": 2782, "pitch": 59, "duration": 5, "velocity": 108}, {"time": 2782, "pitch": 62, "duration": 7, "velocity": 102}, {"time": 2782, "pitch": 67, "duration": 6, "velocity": 84}, {"time": 2788, "pitch": 43, "duration": 5, "velocity": 102}, {"time": 2794, "pitch": 48, "duration": 38, "velocity": 84}, {"time": 2794, "pitch": 55, "duration": 9, "velocity": 78}, {"time": 2794, "pitch": 60, "duration": 9, "velocity": 89}, {"time": 2794, "pitch": 64, "duration": 9, "velocity": 94}, {"time": 2806, "pitch": 55, "duration": 3, "velocity": 84}, {"time": 2806, "pitch": 60, "duration": 7, "velocity": 97}, {"time": 2806, "pitch": 64, "duration": 8, "velocity": 97}, {"time": 2812, "pitch": 55, "duration": 4, "velocity": 34}, {"time": 2818, "pitch": 55, "duration": 4, "velocity": 97}, {"time": 2818, "pitch": 60, "duration": 10, "velocity": 108}, {"time": 2818, "pitch": 64, "duration": 10, "velocity": 102}, {"time": 2824, "pitch": 55, "duration": 4, "velocity": 53}, {"time": 2830, "pitch": 55, "duration": 6, "velocity": 94}, {"time": 2830, "pitch": 60, "duration": 6, "velocity": 108}, {"time": 2830, "pitch": 64, "duration": 8, "velocity": 105}, {"time": 2836, "pitch": 48, "duration": 4, "velocity": 114}, {"time": 2842, "pitch": 50, "duration": 34, "velocity": 108}, {"time": 2842, "pitch": 57, "duration": 9, "velocity": 92}, {"time": 2842, "pitch": 62, "duration": 9, "velocity": 92}, {"time": 2842, "pitch": 65, "duration": 9, "velocity": 92}, {"time": 2854, "pitch": 57, "duration": 10, "velocity": 100}, {"time": 2854, "pitch": 62, "duration": 10, "velocity": 94}, {"time": 2854, "pitch": 65, "duration": 9, "velocity": 92}, {"time": 2866, "pitch": 62, "duration": 9, "velocity": 102}, {"time": 2866, "pitch": 65, "duration": 9, "velocity": 105}, {"time": 2872, "pitch": 57, "duration": 5, "velocity": 66}, {"time": 2878, "pitch": 50, "duration": 8, "velocity": 100}, {"time": 2878, "pitch": 57, "duration": 1, "velocity": 53}, {"time": 2878, "pitch": 62, "duration": 6, "velocity": 97}, {"time": 2878, "pitch": 65, "duration": 10, "velocity": 97}, {"time": 2884, "pitch": 57, "duration": 4, "velocity": 76}, {"time": 2890, "pitch": 45, "duration": 43, "velocity": 94}, {"time": 2890, "pitch": 57, "duration": 9, "velocity": 102}, {"time": 2890, "pitch": 60, "duration": 8, "velocity": 94}, {"time": 2890, "pitch": 64, "duration": 8, "velocity": 92}, {"time": 2896, "pitch": 52, "duration": 8, "velocity": 39}, {"time": 2902, "pitch": 60, "duration": 3, "velocity": 94}, {"time": 2902, "pitch": 64, "duration": 3, "velocity": 94}, {"time": 2908, "pitch": 52, "duration": 10, "velocity": 45}, {"time": 2914, "pitch": 57, "duration": 1, "velocity": 55}, {"time": 2914, "pitch": 60, "duration": 6, "velocity": 105}, {"time": 2914, "pitch": 64, "duration": 7, "velocity": 108}, {"time": 2914, "pitch": 69, "duration": 6, "velocity": 89}, {"time": 2920, "pitch": 52, "duration": 12, "velocity": 40}, {"time": 2920, "pitch": 57, "duration": 4, "velocity": 82}, {"time": 2926, "pitch": 57, "duration": 3, "velocity": 94}, {"time": 2926, "pitch": 60, "duration": 7, "velocity": 111}, {"time": 2926, "pitch": 64, "duration": 7, "velocity": 105}, {"time": 2926, "pitch": 69, "duration": 7, "velocity": 89}, {"time": 2932, "pitch": 57, "duration": 3, "velocity": 84}, {"time": 2938, "pitch": 41, "duration": 14, "velocity": 102}, {"time": 2938, "pitch": 53, "duration": 9, "velocity": 80}, {"time": 2938, "pitch": 57, "duration": 8, "velocity": 89}, {"time": 2944, "pitch": 48, "duration": 8, "velocity": 50}, {"time": 2950, "pitch": 53, "duration": 3, "velocity": 102}, {"time": 2950, "pitch": 57, "duration": 3, "velocity": 94}, {"time": 2950, "pitch": 60, "duration": 3, "velocity": 111}, {"time": 2950, "pitch": 65, "duration": 4, "velocity": 92}, {"time": 2962, "pitch": 52, "duration": 13, "velocity": 108}, {"time": 2962, "pitch": 59, "duration": 4, "velocity": 94}, {"time": 2962, "pitch": 64, "duration": 10, "velocity": 100}, {"time": 2962, "pitch": 68, "duration": 10, "velocity": 65}, {"time": 2968, "pitch": 59, "duration": 5, "velocity": 66}, {"time": 2974, "pitch": 59, "duration": 3, "velocity": 102}, {"time": 2974, "pitch": 64, "duration": 2, "velocity": 102}, {"time": 2974, "pitch": 68, "duration": 3, "velocity": 99}, {"time": 2986, "pitch": 45, "duration": 43, "velocity": 102}, {"time": 2986, "pitch": 57, "duration": 10, "velocity": 97}, {"time": 2986, "pitch": 60, "duration": 9, "velocity": 94}, {"time": 2992, "pitch": 52, "duration": 8, "velocity": 67}, {"time": 2998, "pitch": 57, "duration": 8, "velocity": 102}, {"time": 2998, "pitch": 60, "duration": 6, "velocity": 105}, {"time": 3004, "pitch": 52, "duration": 8, "velocity": 39}, {"time": 3010, "pitch": 57, "duration": 10, "velocity": 80}, {"time": 3010, "pitch": 60, "duration": 4, "velocity": 80}, {"time": 3010, "pitch": 64, "duration": 4, "velocity": 84}, {"time": 3016, "pitch": 52, "duration": 8, "velocity": 22}, {"time": 3022, "pitch": 57, "duration": 4, "velocity": 92}, {"time": 3022, "pitch": 60, "duration": 4, "velocity": 92}, {"time": 3022, "pitch": 64, "duration": 4, "velocity": 94}, {"time": 3028, "pitch": 52, "duration": 2, "velocity": 78}, {"time": 3034, "pitch": 45, "duration": 22, "velocity": 108}, {"time": 3034, "pitch": 57, "duration": 8, "velocity": 111}, {"time": 3034, "pitch": 69, "duration": 7, "velocity": 100}, {"time": 3040, "pitch": 52, "duration": 7, "velocity": 87}, {"time": 3046, "pitch": 57, "duration": 3, "velocity": 114}, {"time": 3046, "pitch": 60, "duration": 3, "velocity": 97}, {"time": 3046, "pitch": 64, "duration": 3, "velocity": 105}, {"time": 3049, "pitch": 52, "duration": 5, "velocity": 94}, {"time": 3052, "pitch": 57, "duration": 3, "velocity": 114}, {"time": 3055, "pitch": 59, "duration": 2, "velocity": 105}, {"time": 3058, "pitch": 45, "duration": 14, "velocity": 114}, {"time": 3058, "pitch": 52, "duration": 13, "velocity": 105}, {"time": 3058, "pitch": 57, "duration": 5, "velocity": 100}, {"time": 3058, "pitch": 61, "duration": 4, "velocity": 99}, {"time": 3064, "pitch": 57, "duration": 1, "velocity": 58}, {"time": 3067, "pitch": 61, "duration": 1, "velocity": 93}, {"time": 3067, "pitch": 64, "duration": 1, "velocity": 97}, {"time": 3070, "pitch": 57, "duration": 9, "velocity": 120}, {"time": 3070, "pitch": 61, "duration": 8, "velocity": 112}, {"time": 3070, "pitch": 64, "duration": 10, "velocity": 114}, {"time": 3082, "pitch": 50, "duration": 16, "velocity": 92}, {"time": 3082, "pitch": 57, "duration": 11, "velocity": 82}, {"time": 3082, "pitch": 62, "duration": 11, "velocity": 89}, {"time": 3082, "pitch": 65, "duration": 11, "velocity": 92}, {"time": 3094, "pitch": 57, "duration": 3, "velocity": 102}, {"time": 3094, "pitch": 62, "duration": 4, "velocity": 102}, {"time": 3094, "pitch": 65, "duration": 7, "velocity": 102}, {"time": 3100, "pitch": 57, "duration": 2, "velocity": 100}, {"time": 3106, "pitch": 43, "duration": 21, "velocity": 102}, {"time": 3106, "pitch": 55, "duration": 9, "velocity": 87}, {"time": 3106, "pitch": 59, "duration": 6, "velocity": 62}, {"time": 3106, "pitch": 62, "duration": 6, "velocity": 73}, {"time": 3112, "pitch": 50, "duration": 7, "velocity": 48}, {"time": 3118, "pitch": 55, "duration": 3, "velocity": 111}, {"time": 3118, "pitch": 62, "duration": 4, "velocity": 100}, {"time": 3118, "pitch": 67, "duration": 4, "velocity": 89}, {"time": 3121, "pitch": 50, "duration": 5, "velocity": 64}, {"time": 3124, "pitch": 55, "duration": 3, "velocity": 73}, {"time": 3130, "pitch": 48, "duration": 15, "velocity": 94}, {"time": 3130, "pitch": 55, "duration": 3, "velocity": 84}, {"time": 3130, "pitch": 60, "duration": 8, "velocity": 92}, {"time": 3136, "pitch": 55, "duration": 4, "velocity": 55}, {"time": 3142, "pitch": 55, "duration": 3, "velocity": 102}, {"time": 3142, "pitch": 60, "duration": 3, "velocity": 102}, {"time": 3142, "pitch": 64, "duration": 5, "velocity": 97}, {"time": 3154, "pitch": 41, "duration": 14, "velocity": 94}, {"time": 3154, "pitch": 57, "duration": 7, "velocity": 92}, {"time": 3154, "pitch": 60, "duration": 7, "velocity": 87}, {"time": 3154, "pitch": 65, "duration": 8, "velocity": 94}, {"time": 3160, "pitch": 48, "duration": 8, "velocity": 55}, {"time": 3166, "pitch": 57, "duration": 2, "velocity": 92}, {"time": 3166, "pitch": 60, "duration": 6, "velocity": 102}, {"time": 3166, "pitch": 65, "duration": 9, "velocity": 100}, {"time": 3172, "pitch": 57, "duration": 2, "velocity": 102}, {"time": 3178, "pitch": 47, "duration": 15, "velocity": 102}, {"time": 3178, "pitch": 59, "duration": 10, "velocity": 82}, {"time": 3178, "pitch": 62, "duration": 10, "velocity": 84}, {"time": 3184, "pitch": 53, "duration": 8, "velocity": 73}, {"time": 3190, "pitch": 59, "duration": 4, "velocity": 94}, {"time": 3190, "pitch": 62, "duration": 7, "velocity": 92}, {"time": 3190, "pitch": 69, "duration": 11, "velocity": 100}, {"time": 3196, "pitch": 47, "duration": 2, "velocity": 87}, {"time": 3196, "pitch": 59, "duration": 2, "velocity": 66}, {"time": 3202, "pitch": 52, "duration": 18, "velocity": 114}, {"time": 3202, "pitch": 59, "duration": 4, "velocity": 102}, {"time": 3202, "pitch": 64, "duration": 9, "velocity": 100}, {"time": 3208, "pitch": 59, "duration": 4, "velocity": 82}, {"time": 3214, "pitch": 59, "duration": 3, "velocity": 105}, {"time": 3214, "pitch": 64, "duration": 6, "velocity": 100}, {"time": 3214, "pitch": 68, "duration": 6, "velocity": 102}, {"time": 3220, "pitch": 59, "duration": 1, "velocity": 92}, {"time": 3226, "pitch": 45, "duration": 22, "velocity": 102}, {"time": 3226, "pitch": 57, "duration": 6, "velocity": 102}, {"time": 3226, "pitch": 60, "duration": 6, "velocity": 100}, {"time": 3232, "pitch": 52, "duration": 7, "velocity": 76}, {"time": 3235, "pitch": 57, "duration": 1, "velocity": 97}, {"time": 3238, "pitch": 57, "duration": 3, "velocity": 117}, {"time": 3238, "pitch": 64, "duration": 5, "velocity": 108}, {"time": 3241, "pitch": 52, "duration": 6, "velocity": 64}, {"time": 3244, "pitch": 57, "duration": 4, "velocity": 102}, {"time": 3247, "pitch": 64, "duration": 2, "velocity": 76}, {"time": 3250, "pitch": 45, "duration": 7, "velocity": 111}, {"time": 3250, "pitch": 52, "duration": 7, "velocity": 114}, {"time": 3250, "pitch": 57, "duration": 4, "velocity": 117}, {"time": 3256, "pitch": 57, "duration": 1, "velocity": 108}, {"time": 3259, "pitch": 47, "duration": 8, "velocity": 108}, {"time": 3259, "pitch": 59, "duration": 6, "velocity": 108}, {"time": 3265, "pitch": 57, "duration": 2, "velocity": 92}, {"time": 3268, "pitch": 49, "duration": 3, "velocity": 105}, {"time": 3268, "pitch": 57, "duration": 2, "velocity": 102}, {"time": 3268, "pitch": 61, "duration": 3, "velocity": 102}, {"time": 3271, "pitch": 57, "duration": 2, "velocity": 84}, {"time": 3274, "pitch": 50, "duration": 17, "velocity": 117}, {"time": 3274, "pitch": 57, "duration": 4, "velocity": 105}, {"time": 3274, "pitch": 62, "duration": 9, "velocity": 100}, {"time": 3274, "pitch": 65, "duration": 9, "velocity": 82}, {"time": 3280, "pitch": 57, "duration": 4, "velocity": 97}, {"time": 3286, "pitch": 57, "duration": 3, "velocity": 111}, {"time": 3286, "pitch": 65, "duration": 7, "velocity": 111}, {"time": 3289, "pitch": 53, "duration": 4, "velocity": 42}, {"time": 3292, "pitch": 57, "duration": 3, "velocity": 111}, {"time": 3298, "pitch": 43, "duration": 16, "velocity": 102}, {"time": 3298, "pitch": 55, "duration": 7, "velocity": 80}, {"time": 3298, "pitch": 59, "duration": 6, "velocity": 82}, {"time": 3298, "pitch": 62, "duration": 6, "velocity": 89}, {"time": 3304, "pitch": 50, "duration": 8, "velocity": 73}, {"time": 3310, "pitch": 55, "duration": 6, "velocity": 105}, {"time": 3310, "pitch": 59, "duration": 6, "velocity": 108}, {"time": 3310, "pitch": 62, "duration": 7, "velocity": 108}, {"time": 3316, "pitch": 43, "duration": 5, "velocity": 97}, {"time": 3322, "pitch": 48, "duration": 19, "velocity": 100}, {"time": 3322, "pitch": 55, "duration": 4, "velocity": 94}, {"time": 3322, "pitch": 60, "duration": 8, "velocity": 102}, {"time": 3322, "pitch": 64, "duration": 9, "velocity": 100}, {"time": 3328, "pitch": 55, "duration": 4, "velocity": 80}, {"time": 3334, "pitch": 64, "duration": 9, "velocity": 97}, {"time": 3340, "pitch": 52, "duration": 3, "velocity": 94}, {"time": 3346, "pitch": 41, "duration": 16, "velocity": 102}, {"time": 3346, "pitch": 57, "duration": 6, "velocity": 94}, {"time": 3346, "pitch": 60, "duration": 8, "velocity": 100}, {"time": 3346, "pitch": 65, "duration": 8, "velocity": 100}, {"time": 3352, "pitch": 48, "duration": 8, "velocity": 45}, {"time": 3358, "pitch": 57, "duration": 2, "velocity": 108}, {"time": 3358, "pitch": 60, "duration": 4, "velocity": 105}, {"time": 3358, "pitch": 65, "duration": 7, "velocity": 100}, {"time": 3361, "pitch": 57, "duration": 3, "velocity": 60}, {"time": 3364, "pitch": 60, "duration": 4, "velocity": 87}, {"time": 3370, "pitch": 47, "duration": 16, "velocity": 100}, {"time": 3370, "pitch": 59, "duration": 8, "velocity": 82}, {"time": 3370, "pitch": 62, "duration": 8, "velocity": 84}, {"time": 3376, "pitch": 53, "duration": 9, "velocity": 66}, {"time": 3382, "pitch": 59, "duration": 4, "velocity": 105}, {"time": 3382, "pitch": 62, "duration": 4, "velocity": 111}, {"time": 3394, "pitch": 52, "duration": 19, "velocity": 94}, {"time": 3394, "pitch": 59, "duration": 10, "velocity": 82}, {"time": 3394, "pitch": 68, "duration": 10, "velocity": 63}, {"time": 3406, "pitch": 59, "duration": 4, "velocity": 97}, {"time": 3406, "pitch": 64, "duration": 5, "velocity": 100}, {"time": 3406, "pitch": 68, "duration": 5, "velocity": 90}, {"time": 3418, "pitch": 45, "duration": 22, "velocity": 108}, {"time": 3418, "pitch": 52, "duration": 13, "velocity": 105}, {"time": 3418, "pitch": 57, "duration": 9, "velocity": 108}, {"time": 3418, "pitch": 64, "duration": 10, "velocity": 108}, {"time": 3430, "pitch": 57, "duration": 3, "velocity": 114}, {"time": 3430, "pitch": 64, "duration": 4, "velocity": 114}, {"time": 3433, "pitch": 52, "duration": 7, "velocity": 82}, {"time": 3436, "pitch": 57, "duration": 4, "velocity": 94}, {"time": 3439, "pitch": 69, "duration": 2, "velocity": 94}, {"time": 3442, "pitch": 45, "duration": 7, "velocity": 108}, {"time": 3442, "pitch": 52, "duration": 7, "velocity": 94}, {"time": 3442, "pitch": 57, "duration": 4, "velocity": 114}, {"time": 3442, "pitch": 69, "duration": 7, "velocity": 105}, {"time": 3448, "pitch": 57, "duration": 2, "velocity": 67}, {"time": 3451, "pitch": 47, "duration": 9, "velocity": 111}, {"time": 3451, "pitch": 59, "duration": 8, "velocity": 108}, {"time": 3460, "pitch": 49, "duration": 5, "velocity": 116}, {"time": 3460, "pitch": 57, "duration": 5, "velocity": 97}, {"time": 3460, "pitch": 61, "duration": 5, "velocity": 105}, {"time": 3466, "pitch": 50, "duration": 16, "velocity": 92}, {"time": 3466, "pitch": 57, "duration": 11, "velocity": 82}, {"time": 3466, "pitch": 62, "duration": 11, "velocity": 89}, {"time": 3466, "pitch": 65, "duration": 11, "velocity": 92}, {"time": 3478, "pitch": 57, "duration": 3, "velocity": 102}, {"time": 3478, "pitch": 62, "duration": 4, "velocity": 102}, {"time": 3478, "pitch": 65, "duration": 7, "velocity": 102}, {"time": 3484, "pitch": 57, "duration": 2, "velocity": 100}, {"time": 3490, "pitch": 43, "duration": 21, "velocity": 102}, {"time": 3490, "pitch": 55, "duration": 9, "velocity": 87}, {"time": 3490, "pitch": 59, "duration": 6, "velocity": 62}, {"time": 3490, "pitch": 62, "duration": 6, "velocity": 73}, {"time": 3496, "pitch": 50, "duration": 7, "velocity": 48}, {"time": 3502, "pitch": 55, "duration": 3, "velocity": 111}, {"time": 3502, "pitch": 62, "duration": 4, "velocity": 100}, {"time": 3502, "pitch": 67, "duration": 4, "velocity": 89}, {"time": 3505, "pitch": 50, "duration": 5, "velocity": 64}, {"time": 3508, "pitch": 55, "duration": 3, "velocity": 73}, {"time": 3514, "pitch": 48, "duration": 15, "velocity": 94}, {"time": 3514, "pitch": 55, "duration": 3, "velocity": 84}, {"time": 3514, "pitch": 60, "duration": 8, "velocity": 92}, {"time": 3520, "pitch": 55, "duration": 4, "velocity": 55}, {"time": 3526, "pitch": 55, "duration": 3, "velocity": 102}, {"time": 3526, "pitch": 60, "duration": 3, "velocity": 102}, {"time": 3526, "pitch": 64, "duration": 5, "velocity": 97}, {"time": 3538, "pitch": 41, "duration": 14, "velocity": 94}, {"time": 3538, "pitch": 57, "duration": 7, "velocity": 92}, {"time": 3538, "pitch": 60, "duration": 7, "velocity": 87}, {"time": 3538, "pitch": 65, "duration": 8, "velocity": 94}, {"time": 3544, "pitch": 48, "duration": 8, "velocity": 55}, {"time": 3550, "pitch": 57, "duration": 2, "velocity": 92}, {"time": 3550, "pitch": 60, "duration": 6, "velocity": 102}, {"time": 3550, "pitch": 65, "duration": 9, "velocity": 100}, {"time": 3556, "pitch": 57, "duration": 2, "velocity": 102}, {"time": 3562, "pitch": 47, "duration": 15, "velocity": 102}, {"time": 3562, "pitch": 59, "duration": 10, "velocity": 82}, {"time": 3562, "pitch": 62, "duration": 10, "velocity": 84}, {"time": 3568, "pitch": 53, "duration": 8, "velocity": 73}, {"time": 3574, "pitch": 59, "duration": 4, "velocity": 94}, {"time": 3574, "pitch": 62, "duration": 7, "velocity": 92}, {"time": 3574, "pitch": 69, "duration": 11, "velocity": 100}, {"time": 3580, "pitch": 47, "duration": 2, "velocity": 87}, {"time": 3580, "pitch": 59, "duration": 2, "velocity": 66}, {"time": 3586, "pitch": 52, "duration": 18, "velocity": 114}, {"time": 3586, "pitch": 59, "duration": 4, "velocity": 102}, {"time": 3586, "pitch": 64, "duration": 9, "velocity": 100}, {"time": 3592, "pitch": 59, "duration": 4, "velocity": 82}, {"time": 3598, "pitch": 59, "duration": 3, "velocity": 105}, {"time": 3598, "pitch": 64, "duration": 6, "velocity": 100}, {"time": 3598, "pitch": 68, "duration": 6, "velocity": 102}, {"time": 3604, "pitch": 59, "duration": 1, "velocity": 92}, {"time": 3610, "pitch": 45, "duration": 22, "velocity": 102}, {"time": 3610, "pitch": 57, "duration": 6, "velocity": 102}, {"time": 3610, "pitch": 60, "duration": 6, "velocity": 100}, {"time": 3616, "pitch": 52, "duration": 7, "velocity": 76}, {"time": 3619, "pitch": 57, "duration": 1, "velocity": 97}, {"time": 3622, "pitch": 57, "duration": 3, "velocity": 117}, {"time": 3622, "pitch": 64, "duration": 5, "velocity": 108}, {"time": 3625, "pitch": 52, "duration": 6, "velocity": 64}, {"time": 3628, "pitch": 57, "duration": 4, "velocity": 102}, {"time": 3631, "pitch": 64, "duration": 2, "velocity": 76}, {"time": 3634, "pitch": 45, "duration": 7, "velocity": 111}, {"time": 3634, "pitch": 52, "duration": 7, "velocity": 114}, {"time": 3634, "pitch": 57, "duration": 4, "velocity": 117}, {"time": 3640, "pitch": 57, "duration": 1, "velocity": 108}, {"time": 3643, "pitch": 47, "duration": 8, "velocity": 108}, {"time": 3643, "pitch": 59, "duration": 6, "velocity": 108}, {"time": 3649, "pitch": 57, "duration": 2, "velocity": 92}, {"time": 3652, "pitch": 49, "duration": 3, "velocity": 105}, {"time": 3652, "pitch": 57, "duration": 2, "velocity": 102}, {"time": 3652, "pitch": 61, "duration": 3, "velocity": 102}, {"time": 3655, "pitch": 57, "duration": 2, "velocity": 84}, {"time": 3658, "pitch": 50, "duration": 17, "velocity": 117}, {"time": 3658, "pitch": 57, "duration": 4, "velocity": 105}, {"time": 3658, "pitch": 62, "duration": 9, "velocity": 100}, {"time": 3658, "pitch": 65, "duration": 9, "velocity": 82}, {"time": 3664, "pitch": 57, "duration": 4, "velocity": 97}, {"time": 3670, "pitch": 57, "duration": 3, "velocity": 111}, {"time": 3670, "pitch": 65, "duration": 7, "velocity": 111}, {"time": 3673, "pitch": 53, "duration": 4, "velocity": 42}, {"time": 3676, "pitch": 57, "duration": 3, "velocity": 111}, {"time": 3682, "pitch": 43, "duration": 16, "velocity": 102}, {"time": 3682, "pitch": 55, "duration": 7, "velocity": 80}, {"time": 3682, "pitch": 59, "duration": 6, "velocity": 82}, {"time": 3682, "pitch": 62, "duration": 6, "velocity": 89}, {"time": 3688, "pitch": 50, "duration": 8, "velocity": 73}, {"time": 3694, "pitch": 55, "duration": 6, "velocity": 105}, {"time": 3694, "pitch": 59, "duration": 6, "velocity": 108}, {"time": 3694, "pitch": 62, "duration": 7, "velocity": 108}, {"time": 3700, "pitch": 43, "duration": 5, "velocity": 97}, {"time": 3706, "pitch": 48, "duration": 19, "velocity": 100}, {"time": 3706, "pitch": 55, "duration": 4, "velocity": 94}, {"time": 3706, "pitch": 60, "duration": 8, "velocity": 102}, {"time": 3706, "pitch": 64, "duration": 9, "velocity": 100}, {"time": 3712, "pitch": 55, "duration": 4, "velocity": 80}, {"time": 3718, "pitch": 64, "duration": 9, "velocity": 97}, {"time": 3724, "pitch": 52, "duration": 3, "velocity": 94}, {"time": 3730, "pitch": 41, "duration": 16, "velocity": 102}, {"time": 3730, "pitch": 57, "duration": 6, "velocity": 94}, {"time": 3730, "pitch": 60, "duration": 8, "velocity": 100}, {"time": 3730, "pitch": 65, "duration": 8, "velocity": 100}, {"time": 3736, "pitch": 48, "duration": 8, "velocity": 45}, {"time": 3742, "pitch": 57, "duration": 2, "velocity": 108}, {"time": 3742, "pitch": 60, "duration": 4, "velocity": 105}, {"time": 3742, "pitch": 65, "duration": 7, "velocity": 100}, {"time": 3745, "pitch": 57, "duration": 3, "velocity": 60}, {"time": 3748, "pitch": 60, "duration": 4, "velocity": 87}, {"time": 3754, "pitch": 47, "duration": 16, "velocity": 100}, {"time": 3754, "pitch": 59, "duration": 8, "velocity": 82}, {"time": 3754, "pitch": 62, "duration": 8, "velocity": 84}, {"time": 3760, "pitch": 53, "duration": 9, "velocity": 66}, {"time": 3766, "pitch": 59, "duration": 4, "velocity": 105}, {"time": 3766, "pitch": 62, "duration": 4, "velocity": 111}, {"time": 3778, "pitch": 52, "duration": 19, "velocity": 94}, {"time": 3778, "pitch": 59, "duration": 10, "velocity": 82}, {"time": 3778, "pitch": 68, "duration": 10, "velocity": 63}, {"time": 3790, "pitch": 59, "duration": 4, "velocity": 97}, {"time": 3790, "pitch": 64, "duration": 5, "velocity": 100}, {"time": 3790, "pitch": 68, "duration": 5, "velocity": 90}, {"time": 3802, "pitch": 45, "duration": 46, "velocity": 94}, {"time": 3802, "pitch": 57, "duration": 10, "velocity": 78}, {"time": 3802, "pitch": 59, "duration": 10, "velocity": 92}, {"time": 3802, "pitch": 64, "duration": 9, "velocity": 87}, {"time": 3814, "pitch": 57, "duration": 6, "velocity": 89}, {"time": 3814, "pitch": 59, "duration": 6, "velocity": 97}, {"time": 3814, "pitch": 64, "duration": 6, "velocity": 97}, {"time": 3826, "pitch": 59, "duration": 10, "velocity": 100}, {"time": 3826, "pitch": 64, "duration": 8, "velocity": 92}, {"time": 3838, "pitch": 59, "duration": 10, "velocity": 102}, {"time": 3838, "pitch": 64, "duration": 9, "velocity": 105}, {"time": 3850, "pitch": 45, "duration": 41, "velocity": 100}, {"time": 3850, "pitch": 57, "duration": 10, "velocity": 80}, {"time": 3850, "pitch": 59, "duration": 10, "velocity": 87}, {"time": 3850, "pitch": 64, "duration": 10, "velocity": 89}, {"time": 3862, "pitch": 57, "duration": 5, "velocity": 78}, {"time": 3862, "pitch": 59, "duration": 6, "velocity": 89}, {"time": 3862, "pitch": 64, "duration": 5, "velocity": 87}, {"time": 3874, "pitch": 59, "duration": 8, "velocity": 87}, {"time": 3874, "pitch": 64, "duration": 6, "velocity": 89}, {"time": 3886, "pitch": 59, "duration": 5, "velocity": 102}, {"time": 3886, "pitch": 64, "duration": 5, "velocity": 105}, {"time": 3892, "pitch": 40, "duration": 6, "velocity": 114}, {"time": 3897, "pitch": 45, "duration": 50, "velocity": 92}, {"time": 3897, "pitch": 57, "duration": 51, "velocity": 47}, {"time": 3899, "pitch": 60, "duration": 49, "velocity": 78}, {"time": 3900, "pitch": 64, "duration": 48, "velocity": 66}, {"time": 3901, "pitch": 69, "duration": 47, "velocity": 94}], "annotations": [{"time": 14, "annotation": {"number": 64, "value": 127}, "group": "control_change"}, {"time": 57, "annotation": {"number": 64, "value": 0}, "group": "control_change"}, {"time": 64, "annotation": {"number": 64, "value": 127}, "group": "control_change"}, {"time": 100, "annotation": {"number": 64, "value": 0}, "group": "control_change"}, {"time": 110, "annotation": {"number": 64, "value": 127}, "group": "control_change"}, {"time": 153, "annotation": {"number": 64, "value": 0}, "group": "control_change"}, {"time": 156, "annotation": {"number": 64, "value": 127}, "group": "control_change"}, {"time": 198, "annotation": {"number": 64, "value": 0}, "group": "control_change"}, {"time": 204, "annotation": {"number": 64, "value": 127}, "group": "control_change"}, {"time": 249, "annotation": {"number": 64, "value": 0}, "group": "control_change"}, {"time": 253, "annotation": {"number": 64, "value": 127}, "group": "control_change"}, {"time": 285, "annotation": {"number": 64, "value": 0}, "group": "control_change"}, {"time": 286, "annotation": {"number": 64, "value": 127}, "group": "control_change"}, {"time": 295, "annotation": {"number": 64, "value": 0}, "group": "control_change"}, {"time": 301, "annotation": {"number": 64, "value": 127}, "group": "control_change"}, {"time": 338, "annotation": {"number": 64, "value": 0}, "group": "control_change"}, {"time": 352, "annotation": {"number": 64, "value": 127}, "group": "control_change"}, {"time": 387, "annotation": {"number": 64, "value": 0}, "group": "control_change"}, {"time": 395, "annotation": {"number": 64, "value": 127}, "group": "control_change"}, {"time": 417, "annotation": {"number": 64, "value": 0}, "group": "control_change"}, {"time": 424, "annotation": {"number": 64, "value": 127}, "group": "control_change"}, {"time": 440, "annotation": {"number": 64, "value": 0}, "group": "control_change"}, {"time": 444, "annotation": {"number": 64, "value": 127}, "group": "control_change"}, {"time": 466, "annotation": {"number": 64, "value": 0}, "group": "control_change"}, {"time": 468, "annotation": {"number": 64, "value": 127}, "group": "control_change"}, {"time": 558, "annotation": {"number": 64, "value": 0}, "group": "control_change"}, {"time": 564, "annotation": {"number": 64, "value": 127}, "group": "control_change"}, {"time": 609, "annotation": {"number": 64, "value": 0}, "group": "control_change"}, {"time": 614, "annotation": {"number": 64, "value": 127}, "group": "control_change"}, {"time": 646, "annotation": {"number": 64, "value": 0}, "group": "control_change"}, {"time": 650, "annotation": {"number": 64, "value": 127}, "group": "control_change"}, {"time": 658, "annotation": {"number": 64, "value": 0}, "group": "control_change"}, {"time": 664, "annotation": {"number": 64, "value": 127}, "group": "control_change"}, {"time": 705, "annotation": {"number": 64, "value": 0}, "group": "control_change"}, {"time": 710, "annotation": {"number": 64, "value": 127}, "group": "control_change"}, {"time": 750, "annotation": {"number": 64, "value": 0}, "group": "control_change"}, {"time": 762, "annotation": {"number": 64, "value": 127}, "group": "control_change"}, {"time": 762, "annotation": {"number": 64, "value": 0}, "group": "control_change"}, {"time": 771, "annotation": {"number": 64, "value": 127}, "group": "control_change"}, {"time": 803, "annotation": {"number": 64, "value": 0}, "group": "control_change"}, {"time": 808, "annotation": {"number": 64, "value": 127}, "group": "control_change"}, {"time": 850, "annotation": {"number": 64, "value": 0}, "group": "control_change"}, {"time": 855, "annotation": {"number": 64, "value": 127}, "group": "control_change"}, {"time": 886, "annotation": {"number": 64, "value": 0}, "group": "control_change"}, {"time": 887, "annotation": {"number": 64, "value": 127}, "group": "control_change"}, {"time": 899, "annotation": {"number": 64, "value": 0}, "group": "control_change"}, {"time": 903, "annotation": {"number": 64, "value": 127}, "group": "control_change"}, {"time": 946, "annotation": {"number": 64, "value": 0}, "group": "control_change"}, {"time": 953, "annotation": {"number": 64, "value": 127}, "group": "control_change"}, {"time": 993, "annotation": {"number": 64, "value": 0}, "group": "control_change"}, {"time": 998, "annotation": {"number": 64, "value": 127}, "group": "control_change"}, {"time": 1019, "annotation": {"number": 64, "value": 0}, "group": "control_change"}, {"time": 1021, "annotation": {"number": 64, "value": 127}, "group": "control_change"}, {"time": 1043, "annotation": {"number": 64, "value": 0}, "group": "control_change"}, {"time": 1049, "annotation": {"number": 64, "value": 127}, "group": "control_change"}, {"time": 1066, "annotation": {"number": 64, "value": 0}, "group": "control_change"}, {"time": 1069, "annotation": {"number": 64, "value": 127}, "group": "control_change"}, {"time": 1089, "annotation": {"number": 64, "value": 0}, "group": "control_change"}, {"time": 1095, "annotation": {"number": 64, "value": 127}, "group": "control_change"}, {"time": 1116, "annotation": {"number": 64, "value": 0}, "group": "control_change"}, {"time": 1120, "annotation": {"number": 64, "value": 127}, "group": "control_change"}, {"time": 1138, "annotation": {"number": 64, "value": 0}, "group": "control_change"}, {"time": 1142, "annotation": {"number": 64, "value": 127}, "group": "control_change"}, {"time": 1164, "annotation": {"number": 64, "value": 0}, "group": "control_change"}, {"time": 1168, "annotation": {"number": 64, "value": 127}, "group": "control_change"}, {"time": 1186, "annotation": {"number": 64, "value": 0}, "group": "control_change"}, {"time": 1192, "annotation": {"number": 64, "value": 127}, "group": "control_change"}, {"time": 1236, "annotation": {"number": 64, "value": 0}, "group": "control_change"}, {"time": 1240, "annotation": {"number": 64, "value": 127}, "group": "control_change"}, {"time": 1258, "annotation": {"number": 64, "value": 0}, "group": "control_change"}, {"time": 1263, "annotation": {"number": 64, "value": 127}, "group": "control_change"}, {"time": 1281, "annotation": {"number": 64, "value": 0}, "group": "control_change"}, {"time": 1287, "annotation": {"number": 64, "value": 127}, "group": "control_change"}, {"time": 1330, "annotation": {"number": 64, "value": 0}, "group": "control_change"}, {"time": 1332, "annotation": {"number": 64, "value": 127}, "group": "control_change"}, {"time": 1353, "annotation": {"number": 64, "value": 0}, "group": "control_change"}, {"time": 1357, "annotation": {"number": 64, "value": 127}, "group": "control_change"}, {"time": 1378, "annotation": {"number": 64, "value": 0}, "group": "control_change"}, {"time": 1389, "annotation": {"number": 64, "value": 127}, "group": "control_change"}, {"time": 1402, "annotation": {"number": 64, "value": 0}, "group": "control_change"}, {"time": 1409, "annotation": {"number": 64, "value": 127}, "group": "control_change"}, {"time": 1426, "annotation": {"number": 64, "value": 0}, "group": "control_change"}, {"time": 1431, "annotation": {"number": 64, "value": 127}, "group": "control_change"}, {"time": 1449, "annotation": {"number": 64, "value": 0}, "group": "control_change"}, {"time": 1455, "annotation": {"number": 64, "value": 127}, "group": "control_change"}, {"time": 1476, "annotation": {"number": 64, "value": 0}, "group": "control_change"}, {"time": 1480, "annotation": {"number": 64, "value": 127}, "group": "control_change"}, {"time": 1504, "annotation": {"number": 64, "value": 127}, "group": "control_change"}, {"time": 1522, "annotation": {"number": 64, "value": 0}, "group": "control_change"}, {"time": 1528, "annotation": {"number": 64, "value": 127}, "group": "control_change"}, {"time": 1546, "annotation": {"number": 64, "value": 0}, "group": "control_change"}, {"time": 1549, "annotation": {"number": 64, "value": 127}, "group": "control_change"}, {"time": 1555, "annotation": {"number": 64, "value": 0}, "group": "control_change"}, {"time": 1558, "annotation": {"number": 64, "value": 127}, "group": "control_change"}, {"time": 1563, "annotation": {"number": 64, "value": 0}, "group": "control_change"}, {"time": 1565, "annotation": {"number": 64, "value": 127}, "group": "control_change"}, {"time": 1569, "annotation": {"number": 64, "value": 0}, "group": "control_change"}, {"time": 1575, "annotation": {"number": 64, "value": 127}, "group": "control_change"}, {"time": 1594, "annotation": {"number": 64, "value": 0}, "group": "control_change"}, {"time": 1601, "annotation": {"number": 64, "value": 127}, "group": "control_change"}, {"time": 1618, "annotation": {"number": 64, "value": 0}, "group": "control_change"}, {"time": 1624, "annotation": {"number": 64, "value": 127}, "group": "control_change"}, {"time": 1642, "annotation": {"number": 64, "value": 0}, "group": "control_change"}, {"time": 1647, "annotation": {"number": 64, "value": 127}, "group": "control_change"}, {"time": 1668, "annotation": {"number": 64, "value": 0}, "group": "control_change"}, {"time": 1672, "annotation": {"number": 64, "value": 127}, "group": "control_change"}, {"time": 1690, "annotation": {"number": 64, "value": 0}, "group": "control_change"}, {"time": 1696, "annotation": {"number": 64, "value": 127}, "group": "control_change"}, {"time": 1714, "annotation": {"number": 64, "value": 0}, "group": "control_change"}, {"time": 1721, "annotation": {"number": 64, "value": 127}, "group": "control_change"}, {"time": 1763, "annotation": {"number": 64, "value": 0}, "group": "control_change"}, {"time": 1768, "annotation": {"number": 64, "value": 127}, "group": "control_change"}, {"time": 1786, "annotation": {"number": 64, "value": 0}, "group": "control_change"}, {"time": 1790, "annotation": {"number": 64, "value": 127}, "group": "control_change"}, {"time": 1795, "annotation": {"number": 64, "value": 0}, "group": "control_change"}, {"time": 1821, "annotation": {"number": 64, "value": 127}, "group": "control_change"}, {"time": 1834, "annotation": {"number": 64, "value": 0}, "group": "control_change"}, {"time": 1841, "annotation": {"number": 64, "value": 127}, "group": "control_change"}, {"time": 1858, "annotation": {"number": 64, "value": 0}, "group": "control_change"}, {"time": 1863, "annotation": {"number": 64, "value": 127}, "group": "control_change"}, {"time": 1881, "annotation": {"number": 64, "value": 0}, "group": "control_change"}, {"time": 1887, "annotation": {"number": 64, "value": 127}, "group": "control_change"}, {"time": 1908, "annotation": {"number": 64, "value": 0}, "group": "control_change"}, {"time": 1912, "annotation": {"number": 64, "value": 127}, "group": "control_change"}, {"time": 1936, "annotation": {"number": 64, "value": 127}, "group": "control_change"}, {"time": 1954, "annotation": {"number": 64, "value": 0}, "group": "control_change"}, {"time": 1960, "annotation": {"number": 64, "value": 127}, "group": "control_change"}, {"time": 1978, "annotation": {"number": 64, "value": 0}, "group": "control_change"}, {"time": 1981, "annotation": {"number": 64, "value": 127}, "group": "control_change"}, {"time": 1987, "annotation": {"number": 64, "value": 0}, "group": "control_change"}, {"time": 1990, "annotation": {"number": 64, "value": 127}, "group": "control_change"}, {"time": 1995, "annotation": {"number": 64, "value": 0}, "group": "control_change"}, {"time": 1997, "annotation": {"number": 64, "value": 127}, "group": "control_change"}, {"time": 2001, "annotation": {"number": 64, "value": 0}, "group": "control_change"}, {"time": 2007, "annotation": {"number": 64, "value": 127}, "group": "control_change"}, {"time": 2026, "annotation": {"number": 64, "value": 0}, "group": "control_change"}, {"time": 2033, "annotation": {"number": 64, "value": 127}, "group": "control_change"}, {"time": 2053, "annotation": {"number": 64, "value": 127}, "group": "control_change"}, {"time": 2075, "annotation": {"number": 64, "value": 0}, "group": "control_change"}, {"time": 2078, "annotation": {"number": 64, "value": 127}, "group": "control_change"}, {"time": 2097, "annotation": {"number": 64, "value": 0}, "group": "control_change"}, {"time": 2099, "annotation": {"number": 64, "value": 127}, "group": "control_change"}, {"time": 2123, "annotation": {"number": 64, "value": 0}, "group": "control_change"}, {"time": 2125, "annotation": {"number": 64, "value": 127}, "group": "control_change"}, {"time": 2147, "annotation": {"number": 64, "value": 0}, "group": "control_change"}, {"time": 2152, "annotation": {"number": 64, "value": 127}, "group": "control_change"}, {"time": 2181, "annotation": {"number": 64, "value": 0}, "group": "control_change"}, {"time": 2256, "annotation": {"number": 64, "value": 127}, "group": "control_change"}, {"time": 2264, "annotation": {"number": 64, "value": 0}, "group": "control_change"}, {"time": 2268, "annotation": {"number": 64, "value": 127}, "group": "control_change"}, {"time": 2313, "annotation": {"number": 64, "value": 0}, "group": "control_change"}, {"time": 2318, "annotation": {"number": 64, "value": 127}, "group": "control_change"}, {"time": 2350, "annotation": {"number": 64, "value": 0}, "group": "control_change"}, {"time": 2354, "annotation": {"number": 64, "value": 127}, "group": "control_change"}, {"time": 2362, "annotation": {"number": 64, "value": 0}, "group": "control_change"}, {"time": 2368, "annotation": {"number": 64, "value": 127}, "group": "control_change"}, {"time": 2409, "annotation": {"number": 64, "value": 0}, "group": "control_change"}, {"time": 2414, "annotation": {"number": 64, "value": 127}, "group": "control_change"}, {"time": 2454, "annotation": {"number": 64, "value": 0}, "group": "control_change"}, {"time": 2466, "annotation": {"number": 64, "value": 127}, "group": "control_change"}, {"time": 2466, "annotation": {"number": 64, "value": 0}, "group": "control_change"}, {"time": 2475, "annotation": {"number": 64, "value": 127}, "group": "control_change"}, {"time": 2507, "annotation": {"number": 64, "value": 0}, "group": "control_change"}, {"time": 2512, "annotation": {"number": 64, "value": 127}, "group": "control_change"}, {"time": 2554, "annotation": {"number": 64, "value": 0}, "group": "control_change"}, {"time": 2559, "annotation": {"number": 64, "value": 127}, "group": "control_change"}, {"time": 2590, "annotation": {"number": 64, "value": 0}, "group": "control_change"}, {"time": 2591, "annotation": {"number": 64, "value": 127}, "group": "control_change"}, {"time": 2603, "annotation": {"number": 64, "value": 0}, "group": "control_change"}, {"time": 2607, "annotation": {"number": 64, "value": 127}, "group": "control_change"}, {"time": 2650, "annotation": {"number": 64, "value": 0}, "group": "control_change"}, {"time": 2657, "annotation": {"number": 64, "value": 127}, "group": "control_change"}, {"time": 2697, "annotation": {"number": 64, "value": 0}, "group": "control_change"}, {"time": 2702, "annotation": {"number": 64, "value": 127}, "group": "control_change"}, {"time": 2723, "annotation": {"number": 64, "value": 0}, "group": "control_change"}, {"time": 2725, "annotation": {"number": 64, "value": 127}, "group": "control_change"}, {"time": 2747, "annotation": {"number": 64, "value": 0}, "group": "control_change"}, {"time": 2753, "annotation": {"number": 64, "value": 127}, "group": "control_change"}, {"time": 2770, "annotation": {"number": 64, "value": 0}, "group": "control_change"}, {"time": 2773, "annotation": {"number": 64, "value": 127}, "group": "control_change"}, {"time": 2793, "annotation": {"number": 64, "value": 0}, "group": "control_change"}, {"time": 2799, "annotation": {"number": 64, "value": 127}, "group": "control_change"}, {"time": 2820, "annotation": {"number": 64, "value": 0}, "group": "control_change"}, {"time": 2824, "annotation": {"number": 64, "value": 127}, "group": "control_change"}, {"time": 2842, "annotation": {"number": 64, "value": 0}, "group": "control_change"}, {"time": 2846, "annotation": {"number": 64, "value": 127}, "group": "control_change"}, {"time": 2868, "annotation": {"number": 64, "value": 0}, "group": "control_change"}, {"time": 2872, "annotation": {"number": 64, "value": 127}, "group": "control_change"}, {"time": 2890, "annotation": {"number": 64, "value": 0}, "group": "control_change"}, {"time": 2896, "annotation": {"number": 64, "value": 127}, "group": "control_change"}, {"time": 2940, "annotation": {"number": 64, "value": 0}, "group": "control_change"}, {"time": 2944, "annotation": {"number": 64, "value": 127}, "group": "control_change"}, {"time": 2962, "annotation": {"number": 64, "value": 0}, "group": "control_change"}, {"time": 2967, "annotation": {"number": 64, "value": 127}, "group": "control_change"}, {"time": 2985, "annotation": {"number": 64, "value": 0}, "group": "control_change"}, {"time": 2991, "annotation": {"number": 64, "value": 127}, "group": "control_change"}, {"time": 3034, "annotation": {"number": 64, "value": 0}, "group": "control_change"}, {"time": 3036, "annotation": {"number": 64, "value": 127}, "group": "control_change"}, {"time": 3057, "annotation": {"number": 64, "value": 0}, "group": "control_change"}, {"time": 3061, "annotation": {"number": 64, "value": 127}, "group": "control_change"}, {"time": 3082, "annotation": {"number": 64, "value": 0}, "group": "control_change"}, {"time": 3093, "annotation": {"number": 64, "value": 127}, "group": "control_change"}, {"time": 3106, "annotation": {"number": 64, "value": 0}, "group": "control_change"}, {"time": 3113, "annotation": {"number": 64, "value": 127}, "group": "control_change"}, {"time": 3130, "annotation": {"number": 64, "value": 0}, "group": "control_change"}, {"time": 3135, "annotation": {"number": 64, "value": 127}, "group": "control_change"}, {"time": 3153, "annotation": {"number": 64, "value": 0}, "group": "control_change"}, {"time": 3159, "annotation": {"number": 64, "value": 127}, "group": "control_change"}, {"time": 3180, "annotation": {"number": 64, "value": 0}, "group": "control_change"}, {"time": 3184, "annotation": {"number": 64, "value": 127}, "group": "control_change"}, {"time": 3208, "annotation": {"number": 64, "value": 127}, "group": "control_change"}, {"time": 3226, "annotation": {"number": 64, "value": 0}, "group": "control_change"}, {"time": 3232, "annotation": {"number": 64, "value": 127}, "group": "control_change"}, {"time": 3250, "annotation": {"number": 64, "value": 0}, "group": "control_change"}, {"time": 3253, "annotation": {"number": 64, "value": 127}, "group": "control_change"}, {"time": 3259, "annotation": {"number": 64, "value": 0}, "group": "control_change"}, {"time": 3262, "annotation": {"number": 64, "value": 127}, "group": "control_change"}, {"time": 3267, "annotation": {"number": 64, "value": 0}, "group": "control_change"}, {"time": 3269, "annotation": {"number": 64, "value": 127}, "group": "control_change"}, {"time": 3273, "annotation": {"number": 64, "value": 0}, "group": "control_change"}, {"time": 3279, "annotation": {"number": 64, "value": 127}, "group": "control_change"}, {"time": 3298, "annotation": {"number": 64, "value": 0}, "group": "control_change"}, {"time": 3305, "annotation": {"number": 64, "value": 127}, "group": "control_change"}, {"time": 3322, "annotation": {"number": 64, "value": 0}, "group": "control_change"}, {"time": 3328, "annotation": {"number": 64, "value": 127}, "group": "control_change"}, {"time": 3346, "annotation": {"number": 64, "value": 0}, "group": "control_change"}, {"time": 3351, "annotation": {"number": 64, "value": 127}, "group": "control_change"}, {"time": 3372, "annotation": {"number": 64, "value": 0}, "group": "control_change"}, {"time": 3376, "annotation": {"number": 64, "value": 127}, "group": "control_change"}, {"time": 3394, "annotation": {"number": 64, "value": 0}, "group": "control_change"}, {"time": 3400, "annotation": {"number": 64, "value": 127}, "group": "control_change"}, {"time": 3419, "annotation": {"number": 64, "value": 0}, "group": "control_change"}, {"time": 3424, "annotation": {"number": 64, "value": 127}, "group": "control_change"}, {"time": 3442, "annotation": {"number": 64, "value": 0}, "group": "control_change"}, {"time": 3446, "annotation": {"number": 64, "value": 127}, "group": "control_change"}, {"time": 3451, "annotation": {"number": 64, "value": 0}, "group": "control_change"}, {"time": 3477, "annotation": {"number": 64, "value": 127}, "group": "control_change"}, {"time": 3490, "annotation": {"number": 64, "value": 0}, "group": "control_change"}, {"time": 3497, "annotation": {"number": 64, "value": 127}, "group": "control_change"}, {"time": 3514, "annotation": {"number": 64, "value": 0}, "group": "control_change"}, {"time": 3519, "annotation": {"number": 64, "value": 127}, "group": "control_change"}, {"time": 3537, "annotation": {"number": 64, "value": 0}, "group": "control_change"}, {"time": 3543, "annotation": {"number": 64, "value": 127}, "group": "control_change"}, {"time": 3564, "annotation": {"number": 64, "value": 0}, "group": "control_change"}, {"time": 3568, "annotation": {"number": 64, "value": 127}, "group": "control_change"}, {"time": 3592, "annotation": {"number": 64, "value": 127}, "group": "control_change"}, {"time": 3610, "annotation": {"number": 64, "value": 0}, "group": "control_change"}, {"time": 3616, "annotation": {"number": 64, "value": 127}, "group": "control_change"}, {"time": 3634, "annotation": {"number": 64, "value": 0}, "group": "control_change"}, {"time": 3637, "annotation": {"number": 64, "value": 127}, "group": "control_change"}, {"time": 3643, "annotation": {"number": 64, "value": 0}, "group": "control_change"}, {"time": 3646, "annotation": {"number": 64, "value": 127}, "group": "control_change"}, {"time": 3651, "annotation": {"number": 64, "value": 0}, "group": "control_change"}, {"time": 3653, "annotation": {"number": 64, "value": 127}, "group": "control_change"}, {"time": 3657, "annotation": {"number": 64, "value": 0}, "group": "control_change"}, {"time": 3663, "annotation": {"number": 64, "value": 127}, "group": "control_change"}, {"time": 3682, "annotation": {"number": 64, "value": 0}, "group": "control_change"}, {"time": 3689, "annotation": {"number": 64, "value": 127}, "group": "control_change"}, {"time": 3706, "annotation": {"number": 64, "value": 0}, "group": "control_change"}, {"time": 3712, "annotation": {"number": 64, "value": 127}, "group": "control_change"}, {"time": 3730, "annotation": {"number": 64, "value": 0}, "group": "control_change"}, {"time": 3735, "annotation": {"number": 64, "value": 127}, "group": "control_change"}, {"time": 3756, "annotation": {"number": 64, "value": 0}, "group": "control_change"}, {"time": 3760, "annotation": {"number": 64, "value": 127}, "group": "control_change"}, {"time": 3778, "annotation": {"number": 64, "value": 0}, "group": "control_change"}, {"time": 3784, "annotation": {"number": 64, "value": 127}, "group": "control_change"}, {"time": 3806, "annotation": {"number": 64, "value": 127}, "group": "control_change"}, {"time": 3849, "annotation": {"number": 64, "value": 0}, "group": "control_change"}, {"time": 3856, "annotation": {"number": 64, "value": 127}, "group": "control_change"}, {"time": 3892, "annotation": {"number": 64, "value": 0}, "group": "control_change"}]}]}