{"metadata": {"schema_version": "0.2", "title": "None", "source_filename": "134.mid", "source_format": "midi"}, "resolution": 12, "tempos": [{"time": 0, "qpm": 100.0}, {"time": 4332, "qpm": 96.0}, {"time": 4334, "qpm": 93.000186000372}, {"time": 4344, "qpm": 92.00012880018032}, {"time": 4350, "qpm": 89.00004005001803}, {"time": 4356, "qpm": 55.00000458333371}, {"time": 4380, "qpm": 89.00004005001803}], "time_signatures": [{"time": 0, "numerator": 1, "denominator": 4}], "tracks": [{"program": 0, "is_drum": false, "name": "MELODY", "notes": [{"time": 632, "pitch": 55, "duration": 5, "velocity": 87}, {"time": 632, "pitch": 67, "duration": 5, "velocity": 87}, {"time": 638, "pitch": 63, "duration": 4, "velocity": 90}, {"time": 644, "pitch": 63, "duration": 4, "velocity": 105}, {"time": 650, "pitch": 62, "duration": 3, "velocity": 100}, {"time": 656, "pitch": 60, "duration": 8, "velocity": 102}, {"time": 668, "pitch": 55, "duration": 3, "velocity": 100}, {"time": 674, "pitch": 55, "duration": 3, "velocity": 100}, {"time": 680, "pitch": 55, "duration": 3, "velocity": 94}, {"time": 686, "pitch": 62, "duration": 3, "velocity": 97}, {"time": 692, "pitch": 62, "duration": 3, "velocity": 102}, {"time": 698, "pitch": 60, "duration": 4, "velocity": 94}, {"time": 704, "pitch": 58, "duration": 10, "velocity": 99}, {"time": 728, "pitch": 60, "duration": 4, "velocity": 89}, {"time": 734, "pitch": 58, "duration": 3, "velocity": 102}, {"time": 740, "pitch": 58, "duration": 3, "velocity": 87}, {"time": 746, "pitch": 56, "duration": 4, "velocity": 102}, {"time": 752, "pitch": 58, "duration": 6, "velocity": 99}, {"time": 764, "pitch": 51, "duration": 3, "velocity": 85}, {"time": 770, "pitch": 51, "duration": 3, "velocity": 87}, {"time": 776, "pitch": 55, "duration": 3, "velocity": 94}, {"time": 782, "pitch": 56, "duration": 4, "velocity": 105}, {"time": 788, "pitch": 55, "duration": 2, "velocity": 94}, {"time": 794, "pitch": 51, "duration": 3, "velocity": 105}, {"time": 800, "pitch": 53, "duration": 9, "velocity": 100}, {"time": 812, "pitch": 53, "duration": 7, "velocity": 97}, {"time": 824, "pitch": 51, "duration": 5, "velocity": 85}, {"time": 824, "pitch": 63, "duration": 5, "velocity": 85}, {"time": 830, "pitch": 63, "duration": 4, "velocity": 87}, {"time": 836, "pitch": 63, "duration": 3, "velocity": 93}, {"time": 842, "pitch": 62, "duration": 4, "velocity": 94}, {"time": 848, "pitch": 60, "duration": 7, "velocity": 89}, {"time": 860, "pitch": 55, "duration": 3, "velocity": 92}, {"time": 866, "pitch": 55, "duration": 3, "velocity": 84}, {"time": 872, "pitch": 55, "duration": 3, "velocity": 92}, {"time": 878, "pitch": 62, "duration": 3, "velocity": 97}, {"time": 884, "pitch": 62, "duration": 3, "velocity": 100}, {"time": 890, "pitch": 60, "duration": 3, "velocity": 87}, {"time": 896, "pitch": 58, "duration": 8, "velocity": 105}, {"time": 920, "pitch": 60, "duration": 4, "velocity": 92}, {"time": 926, "pitch": 58, "duration": 3, "velocity": 99}, {"time": 932, "pitch": 58, "duration": 3, "velocity": 93}, {"time": 938, "pitch": 56, "duration": 3, "velocity": 102}, {"time": 944, "pitch": 58, "duration": 6, "velocity": 109}, {"time": 956, "pitch": 51, "duration": 3, "velocity": 93}, {"time": 962, "pitch": 51, "duration": 3, "velocity": 105}, {"time": 968, "pitch": 56, "duration": 6, "velocity": 100}, {"time": 992, "pitch": 55, "duration": 6, "velocity": 100}, {"time": 1004, "pitch": 50, "duration": 8, "velocity": 100}, {"time": 1016, "pitch": 51, "duration": 15, "velocity": 93}, {"time": 1112, "pitch": 60, "duration": 4, "velocity": 102}, {"time": 1118, "pitch": 67, "duration": 3, "velocity": 92}, {"time": 1124, "pitch": 67, "duration": 3, "velocity": 97}, {"time": 1130, "pitch": 65, "duration": 2, "velocity": 94}, {"time": 1136, "pitch": 67, "duration": 9, "velocity": 97}, {"time": 1148, "pitch": 67, "duration": 7, "velocity": 102}, {"time": 1160, "pitch": 60, "duration": 4, "velocity": 92}, {"time": 1166, "pitch": 65, "duration": 3, "velocity": 89}, {"time": 1172, "pitch": 65, "duration": 3, "velocity": 94}, {"time": 1178, "pitch": 63, "duration": 4, "velocity": 93}, {"time": 1184, "pitch": 65, "duration": 16, "velocity": 97}, {"time": 1208, "pitch": 60, "duration": 4, "velocity": 102}, {"time": 1214, "pitch": 65, "duration": 3, "velocity": 97}, {"time": 1220, "pitch": 65, "duration": 3, "velocity": 94}, {"time": 1226, "pitch": 63, "duration": 3, "velocity": 96}, {"time": 1232, "pitch": 65, "duration": 8, "velocity": 97}, {"time": 1244, "pitch": 65, "duration": 7, "velocity": 97}, {"time": 1256, "pitch": 65, "duration": 3, "velocity": 105}, {"time": 1262, "pitch": 65, "duration": 2, "velocity": 100}, {"time": 1268, "pitch": 65, "duration": 2, "velocity": 94}, {"time": 1274, "pitch": 67, "duration": 3, "velocity": 105}, {"time": 1280, "pitch": 63, "duration": 4, "velocity": 99}, {"time": 1286, "pitch": 60, "duration": 15, "velocity": 111}, {"time": 1304, "pitch": 60, "duration": 4, "velocity": 102}, {"time": 1310, "pitch": 67, "duration": 3, "velocity": 92}, {"time": 1316, "pitch": 67, "duration": 3, "velocity": 97}, {"time": 1322, "pitch": 65, "duration": 2, "velocity": 94}, {"time": 1328, "pitch": 67, "duration": 9, "velocity": 97}, {"time": 1340, "pitch": 67, "duration": 7, "velocity": 102}, {"time": 1352, "pitch": 60, "duration": 4, "velocity": 92}, {"time": 1358, "pitch": 65, "duration": 3, "velocity": 89}, {"time": 1364, "pitch": 65, "duration": 3, "velocity": 94}, {"time": 1370, "pitch": 63, "duration": 4, "velocity": 93}, {"time": 1376, "pitch": 65, "duration": 16, "velocity": 97}, {"time": 1400, "pitch": 60, "duration": 4, "velocity": 102}, {"time": 1406, "pitch": 65, "duration": 3, "velocity": 97}, {"time": 1412, "pitch": 65, "duration": 3, "velocity": 94}, {"time": 1418, "pitch": 63, "duration": 3, "velocity": 96}, {"time": 1424, "pitch": 65, "duration": 8, "velocity": 97}, {"time": 1436, "pitch": 65, "duration": 7, "velocity": 97}, {"time": 1448, "pitch": 65, "duration": 3, "velocity": 105}, {"time": 1454, "pitch": 65, "duration": 2, "velocity": 100}, {"time": 1460, "pitch": 65, "duration": 3, "velocity": 94}, {"time": 1466, "pitch": 65, "duration": 3, "velocity": 97}, {"time": 1472, "pitch": 65, "duration": 3, "velocity": 100}, {"time": 1478, "pitch": 67, "duration": 3, "velocity": 105}, {"time": 1484, "pitch": 68, "duration": 6, "velocity": 105}, {"time": 1496, "pitch": 67, "duration": 3, "velocity": 100}, {"time": 1502, "pitch": 65, "duration": 38, "velocity": 100}, {"time": 1556, "pitch": 63, "duration": 4, "velocity": 109}, {"time": 1562, "pitch": 65, "duration": 3, "velocity": 94}, {"time": 1568, "pitch": 63, "duration": 4, "velocity": 105}, {"time": 1574, "pitch": 60, "duration": 43, "velocity": 100}, {"time": 1952, "pitch": 55, "duration": 5, "velocity": 87}, {"time": 1958, "pitch": 63, "duration": 4, "velocity": 90}, {"time": 1964, "pitch": 63, "duration": 4, "velocity": 105}, {"time": 1970, "pitch": 62, "duration": 3, "velocity": 100}, {"time": 1976, "pitch": 60, "duration": 8, "velocity": 102}, {"time": 1988, "pitch": 55, "duration": 3, "velocity": 100}, {"time": 1994, "pitch": 55, "duration": 3, "velocity": 100}, {"time": 2000, "pitch": 55, "duration": 3, "velocity": 94}, {"time": 2006, "pitch": 62, "duration": 3, "velocity": 97}, {"time": 2012, "pitch": 62, "duration": 3, "velocity": 102}, {"time": 2018, "pitch": 60, "duration": 4, "velocity": 94}, {"time": 2024, "pitch": 58, "duration": 10, "velocity": 99}, {"time": 2048, "pitch": 60, "duration": 4, "velocity": 89}, {"time": 2054, "pitch": 58, "duration": 3, "velocity": 102}, {"time": 2060, "pitch": 58, "duration": 3, "velocity": 87}, {"time": 2066, "pitch": 56, "duration": 4, "velocity": 102}, {"time": 2072, "pitch": 58, "duration": 6, "velocity": 99}, {"time": 2084, "pitch": 51, "duration": 3, "velocity": 85}, {"time": 2090, "pitch": 51, "duration": 3, "velocity": 87}, {"time": 2096, "pitch": 55, "duration": 3, "velocity": 94}, {"time": 2102, "pitch": 56, "duration": 4, "velocity": 105}, {"time": 2108, "pitch": 55, "duration": 2, "velocity": 94}, {"time": 2114, "pitch": 51, "duration": 3, "velocity": 105}, {"time": 2120, "pitch": 53, "duration": 9, "velocity": 100}, {"time": 2132, "pitch": 53, "duration": 7, "velocity": 97}, {"time": 2144, "pitch": 51, "duration": 5, "velocity": 85}, {"time": 2144, "pitch": 63, "duration": 5, "velocity": 85}, {"time": 2150, "pitch": 63, "duration": 4, "velocity": 87}, {"time": 2156, "pitch": 63, "duration": 3, "velocity": 93}, {"time": 2162, "pitch": 62, "duration": 4, "velocity": 94}, {"time": 2168, "pitch": 60, "duration": 7, "velocity": 89}, {"time": 2180, "pitch": 55, "duration": 3, "velocity": 92}, {"time": 2186, "pitch": 55, "duration": 3, "velocity": 84}, {"time": 2192, "pitch": 55, "duration": 3, "velocity": 92}, {"time": 2198, "pitch": 62, "duration": 3, "velocity": 97}, {"time": 2204, "pitch": 62, "duration": 3, "velocity": 100}, {"time": 2210, "pitch": 60, "duration": 3, "velocity": 87}, {"time": 2216, "pitch": 58, "duration": 8, "velocity": 105}, {"time": 2240, "pitch": 60, "duration": 4, "velocity": 92}, {"time": 2246, "pitch": 58, "duration": 3, "velocity": 99}, {"time": 2252, "pitch": 58, "duration": 3, "velocity": 93}, {"time": 2258, "pitch": 56, "duration": 3, "velocity": 102}, {"time": 2264, "pitch": 58, "duration": 6, "velocity": 109}, {"time": 2276, "pitch": 51, "duration": 3, "velocity": 93}, {"time": 2282, "pitch": 51, "duration": 3, "velocity": 105}, {"time": 2288, "pitch": 56, "duration": 6, "velocity": 100}, {"time": 2312, "pitch": 55, "duration": 6, "velocity": 100}, {"time": 2324, "pitch": 50, "duration": 8, "velocity": 100}, {"time": 2336, "pitch": 51, "duration": 15, "velocity": 93}, {"time": 2432, "pitch": 60, "duration": 4, "velocity": 102}, {"time": 2438, "pitch": 67, "duration": 3, "velocity": 92}, {"time": 2444, "pitch": 67, "duration": 3, "velocity": 97}, {"time": 2450, "pitch": 65, "duration": 2, "velocity": 94}, {"time": 2456, "pitch": 67, "duration": 9, "velocity": 97}, {"time": 2468, "pitch": 67, "duration": 7, "velocity": 102}, {"time": 2480, "pitch": 60, "duration": 4, "velocity": 92}, {"time": 2486, "pitch": 65, "duration": 3, "velocity": 89}, {"time": 2492, "pitch": 65, "duration": 3, "velocity": 94}, {"time": 2498, "pitch": 63, "duration": 4, "velocity": 93}, {"time": 2504, "pitch": 65, "duration": 16, "velocity": 97}, {"time": 2528, "pitch": 60, "duration": 4, "velocity": 102}, {"time": 2534, "pitch": 65, "duration": 3, "velocity": 97}, {"time": 2540, "pitch": 65, "duration": 3, "velocity": 94}, {"time": 2546, "pitch": 63, "duration": 3, "velocity": 96}, {"time": 2552, "pitch": 65, "duration": 8, "velocity": 97}, {"time": 2564, "pitch": 65, "duration": 7, "velocity": 97}, {"time": 2576, "pitch": 65, "duration": 3, "velocity": 105}, {"time": 2582, "pitch": 65, "duration": 2, "velocity": 100}, {"time": 2588, "pitch": 65, "duration": 2, "velocity": 94}, {"time": 2594, "pitch": 67, "duration": 3, "velocity": 105}, {"time": 2600, "pitch": 63, "duration": 4, "velocity": 99}, {"time": 2606, "pitch": 60, "duration": 15, "velocity": 111}, {"time": 2624, "pitch": 60, "duration": 4, "velocity": 102}, {"time": 2630, "pitch": 67, "duration": 3, "velocity": 92}, {"time": 2636, "pitch": 67, "duration": 3, "velocity": 97}, {"time": 2642, "pitch": 65, "duration": 2, "velocity": 94}, {"time": 2648, "pitch": 67, "duration": 9, "velocity": 97}, {"time": 2660, "pitch": 67, "duration": 7, "velocity": 102}, {"time": 2672, "pitch": 60, "duration": 4, "velocity": 92}, {"time": 2678, "pitch": 65, "duration": 3, "velocity": 89}, {"time": 2684, "pitch": 65, "duration": 3, "velocity": 94}, {"time": 2690, "pitch": 63, "duration": 4, "velocity": 93}, {"time": 2696, "pitch": 65, "duration": 16, "velocity": 97}, {"time": 2720, "pitch": 60, "duration": 4, "velocity": 102}, {"time": 2726, "pitch": 65, "duration": 3, "velocity": 97}, {"time": 2732, "pitch": 65, "duration": 3, "velocity": 94}, {"time": 2738, "pitch": 63, "duration": 3, "velocity": 96}, {"time": 2744, "pitch": 65, "duration": 8, "velocity": 97}, {"time": 2756, "pitch": 65, "duration": 7, "velocity": 97}, {"time": 2768, "pitch": 65, "duration": 3, "velocity": 105}, {"time": 2774, "pitch": 65, "duration": 2, "velocity": 100}, {"time": 2780, "pitch": 65, "duration": 3, "velocity": 94}, {"time": 2786, "pitch": 65, "duration": 3, "velocity": 97}, {"time": 2792, "pitch": 65, "duration": 3, "velocity": 100}, {"time": 2798, "pitch": 67, "duration": 3, "velocity": 105}, {"time": 2804, "pitch": 68, "duration": 6, "velocity": 105}, {"time": 2816, "pitch": 67, "duration": 3, "velocity": 100}, {"time": 2822, "pitch": 65, "duration": 38, "velocity": 100}, {"time": 2876, "pitch": 63, "duration": 4, "velocity": 109}, {"time": 2882, "pitch": 65, "duration": 3, "velocity": 94}, {"time": 2888, "pitch": 63, "duration": 4, "velocity": 105}, {"time": 2894, "pitch": 60, "duration": 43, "velocity": 100}, {"time": 2948, "pitch": 63, "duration": 5, "velocity": 99}, {"time": 2954, "pitch": 65, "duration": 3, "velocity": 87}, {"time": 2960, "pitch": 67, "duration": 3, "velocity": 60}, {"time": 2966, "pitch": 65, "duration": 19, "velocity": 100}, {"time": 2996, "pitch": 63, "duration": 4, "velocity": 105}, {"time": 3002, "pitch": 65, "duration": 3, "velocity": 92}, {"time": 3008, "pitch": 63, "duration": 5, "velocity": 102}, {"time": 3014, "pitch": 60, "duration": 18, "velocity": 108}, {"time": 3044, "pitch": 63, "duration": 4, "velocity": 99}, {"time": 3050, "pitch": 65, "duration": 3, "velocity": 94}, {"time": 3056, "pitch": 67, "duration": 3, "velocity": 87}, {"time": 3062, "pitch": 65, "duration": 20, "velocity": 94}, {"time": 3086, "pitch": 63, "duration": 3, "velocity": 99}, {"time": 3092, "pitch": 65, "duration": 3, "velocity": 89}, {"time": 3098, "pitch": 63, "duration": 4, "velocity": 102}, {"time": 3104, "pitch": 65, "duration": 9, "velocity": 92}, {"time": 3116, "pitch": 63, "duration": 10, "velocity": 105}, {"time": 3128, "pitch": 67, "duration": 40, "velocity": 102}, {"time": 3224, "pitch": 60, "duration": 4, "velocity": 102}, {"time": 3230, "pitch": 67, "duration": 3, "velocity": 92}, {"time": 3236, "pitch": 67, "duration": 3, "velocity": 97}, {"time": 3242, "pitch": 65, "duration": 2, "velocity": 94}, {"time": 3248, "pitch": 67, "duration": 9, "velocity": 97}, {"time": 3260, "pitch": 67, "duration": 7, "velocity": 102}, {"time": 3272, "pitch": 60, "duration": 4, "velocity": 92}, {"time": 3278, "pitch": 65, "duration": 3, "velocity": 89}, {"time": 3284, "pitch": 65, "duration": 3, "velocity": 94}, {"time": 3290, "pitch": 63, "duration": 4, "velocity": 93}, {"time": 3296, "pitch": 65, "duration": 16, "velocity": 97}, {"time": 3320, "pitch": 60, "duration": 4, "velocity": 102}, {"time": 3326, "pitch": 65, "duration": 3, "velocity": 97}, {"time": 3332, "pitch": 65, "duration": 3, "velocity": 94}, {"time": 3338, "pitch": 63, "duration": 3, "velocity": 96}, {"time": 3344, "pitch": 65, "duration": 8, "velocity": 97}, {"time": 3356, "pitch": 65, "duration": 7, "velocity": 97}, {"time": 3368, "pitch": 65, "duration": 3, "velocity": 105}, {"time": 3374, "pitch": 65, "duration": 2, "velocity": 100}, {"time": 3380, "pitch": 65, "duration": 2, "velocity": 94}, {"time": 3386, "pitch": 67, "duration": 3, "velocity": 105}, {"time": 3392, "pitch": 63, "duration": 4, "velocity": 99}, {"time": 3398, "pitch": 60, "duration": 15, "velocity": 111}, {"time": 3416, "pitch": 60, "duration": 4, "velocity": 102}, {"time": 3422, "pitch": 67, "duration": 3, "velocity": 92}, {"time": 3428, "pitch": 67, "duration": 3, "velocity": 97}, {"time": 3434, "pitch": 65, "duration": 2, "velocity": 94}, {"time": 3440, "pitch": 67, "duration": 9, "velocity": 97}, {"time": 3452, "pitch": 67, "duration": 7, "velocity": 102}, {"time": 3464, "pitch": 60, "duration": 4, "velocity": 92}, {"time": 3470, "pitch": 65, "duration": 3, "velocity": 89}, {"time": 3476, "pitch": 65, "duration": 3, "velocity": 94}, {"time": 3482, "pitch": 63, "duration": 4, "velocity": 93}, {"time": 3488, "pitch": 65, "duration": 16, "velocity": 97}, {"time": 3512, "pitch": 60, "duration": 4, "velocity": 102}, {"time": 3518, "pitch": 65, "duration": 3, "velocity": 97}, {"time": 3524, "pitch": 65, "duration": 3, "velocity": 94}, {"time": 3530, "pitch": 63, "duration": 3, "velocity": 96}, {"time": 3536, "pitch": 65, "duration": 8, "velocity": 97}, {"time": 3548, "pitch": 65, "duration": 7, "velocity": 97}, {"time": 3560, "pitch": 65, "duration": 3, "velocity": 105}, {"time": 3566, "pitch": 65, "duration": 2, "velocity": 100}, {"time": 3572, "pitch": 65, "duration": 2, "velocity": 94}, {"time": 3578, "pitch": 67, "duration": 3, "velocity": 105}, {"time": 3584, "pitch": 63, "duration": 4, "velocity": 99}, {"time": 3590, "pitch": 60, "duration": 15, "velocity": 111}, {"time": 3608, "pitch": 60, "duration": 4, "velocity": 102}, {"time": 3614, "pitch": 67, "duration": 3, "velocity": 92}, {"time": 3620, "pitch": 67, "duration": 3, "velocity": 97}, {"time": 3626, "pitch": 65, "duration": 2, "velocity": 94}, {"time": 3632, "pitch": 67, "duration": 9, "velocity": 97}, {"time": 3644, "pitch": 67, "duration": 7, "velocity": 102}, {"time": 3656, "pitch": 60, "duration": 4, "velocity": 92}, {"time": 3662, "pitch": 65, "duration": 3, "velocity": 89}, {"time": 3668, "pitch": 65, "duration": 3, "velocity": 94}, {"time": 3674, "pitch": 63, "duration": 4, "velocity": 93}, {"time": 3680, "pitch": 65, "duration": 16, "velocity": 97}, {"time": 3704, "pitch": 60, "duration": 4, "velocity": 102}, {"time": 3710, "pitch": 65, "duration": 3, "velocity": 97}, {"time": 3716, "pitch": 65, "duration": 3, "velocity": 94}, {"time": 3722, "pitch": 63, "duration": 3, "velocity": 96}, {"time": 3728, "pitch": 65, "duration": 8, "velocity": 97}, {"time": 3740, "pitch": 65, "duration": 7, "velocity": 97}, {"time": 3752, "pitch": 65, "duration": 3, "velocity": 105}, {"time": 3758, "pitch": 65, "duration": 2, "velocity": 100}, {"time": 3764, "pitch": 65, "duration": 2, "velocity": 94}, {"time": 3770, "pitch": 67, "duration": 3, "velocity": 105}, {"time": 3776, "pitch": 63, "duration": 4, "velocity": 99}, {"time": 3782, "pitch": 60, "duration": 15, "velocity": 111}, {"time": 3800, "pitch": 60, "duration": 4, "velocity": 102}, {"time": 3806, "pitch": 67, "duration": 3, "velocity": 92}, {"time": 3812, "pitch": 67, "duration": 3, "velocity": 97}, {"time": 3818, "pitch": 65, "duration": 2, "velocity": 94}, {"time": 3824, "pitch": 67, "duration": 9, "velocity": 97}, {"time": 3836, "pitch": 67, "duration": 7, "velocity": 102}, {"time": 3848, "pitch": 60, "duration": 4, "velocity": 92}, {"time": 3854, "pitch": 65, "duration": 3, "velocity": 89}, {"time": 3860, "pitch": 65, "duration": 3, "velocity": 94}, {"time": 3866, "pitch": 63, "duration": 4, "velocity": 93}, {"time": 3872, "pitch": 65, "duration": 16, "velocity": 97}, {"time": 3896, "pitch": 60, "duration": 4, "velocity": 102}, {"time": 3902, "pitch": 65, "duration": 3, "velocity": 97}, {"time": 3908, "pitch": 65, "duration": 3, "velocity": 94}, {"time": 3914, "pitch": 63, "duration": 3, "velocity": 96}, {"time": 3920, "pitch": 65, "duration": 8, "velocity": 97}, {"time": 3932, "pitch": 65, "duration": 7, "velocity": 97}, {"time": 3944, "pitch": 65, "duration": 3, "velocity": 105}, {"time": 3950, "pitch": 65, "duration": 2, "velocity": 100}, {"time": 3956, "pitch": 65, "duration": 3, "velocity": 94}, {"time": 3962, "pitch": 65, "duration": 3, "velocity": 97}, {"time": 3968, "pitch": 65, "duration": 3, "velocity": 100}, {"time": 3974, "pitch": 67, "duration": 3, "velocity": 105}, {"time": 3980, "pitch": 68, "duration": 6, "velocity": 105}, {"time": 3992, "pitch": 67, "duration": 3, "velocity": 100}, {"time": 3998, "pitch": 65, "duration": 38, "velocity": 100}, {"time": 4064, "pitch": 63, "duration": 9, "velocity": 109}, {"time": 4076, "pitch": 65, "duration": 8, "velocity": 97}, {"time": 4088, "pitch": 63, "duration": 3, "velocity": 109}, {"time": 4094, "pitch": 60, "duration": 38, "velocity": 89}]}, {"program": 0, "is_drum": false, "name": "PIANO", "notes": [{"time": 104, "pitch": 48, "duration": 3, "velocity": 76}, {"time": 104, "pitch": 67, "duration": 45, "velocity": 79}, {"time": 104, "pitch": 72, "duration": 45, "velocity": 83}, {"time": 110, "pitch": 43, "duration": 2, "velocity": 92}, {"time": 116, "pitch": 46, "duration": 2, "velocity": 102}, {"time": 122, "pitch": 48, "duration": 2, "velocity": 76}, {"time": 128, "pitch": 46, "duration": 2, "velocity": 99}, {"time": 134, "pitch": 48, "duration": 2, "velocity": 80}, {"time": 140, "pitch": 46, "duration": 2, "velocity": 87}, {"time": 146, "pitch": 43, "duration": 3, "velocity": 100}, {"time": 152, "pitch": 48, "duration": 2, "velocity": 84}, {"time": 152, "pitch": 60, "duration": 40, "velocity": 74}, {"time": 152, "pitch": 67, "duration": 38, "velocity": 76}, {"time": 152, "pitch": 72, "duration": 38, "velocity": 80}, {"time": 152, "pitch": 75, "duration": 37, "velocity": 73}, {"time": 158, "pitch": 43, "duration": 3, "velocity": 84}, {"time": 164, "pitch": 46, "duration": 3, "velocity": 82}, {"time": 170, "pitch": 48, "duration": 2, "velocity": 84}, {"time": 176, "pitch": 46, "duration": 3, "velocity": 102}, {"time": 182, "pitch": 43, "duration": 3, "velocity": 97}, {"time": 188, "pitch": 41, "duration": 3, "velocity": 94}, {"time": 194, "pitch": 43, "duration": 3, "velocity": 94}, {"time": 200, "pitch": 48, "duration": 3, "velocity": 76}, {"time": 200, "pitch": 60, "duration": 44, "velocity": 77}, {"time": 200, "pitch": 67, "duration": 42, "velocity": 75}, {"time": 200, "pitch": 72, "duration": 42, "velocity": 69}, {"time": 206, "pitch": 43, "duration": 2, "velocity": 92}, {"time": 212, "pitch": 46, "duration": 2, "velocity": 102}, {"time": 218, "pitch": 48, "duration": 2, "velocity": 76}, {"time": 224, "pitch": 46, "duration": 2, "velocity": 99}, {"time": 230, "pitch": 48, "duration": 2, "velocity": 80}, {"time": 236, "pitch": 46, "duration": 2, "velocity": 87}, {"time": 242, "pitch": 43, "duration": 3, "velocity": 100}, {"time": 248, "pitch": 48, "duration": 2, "velocity": 84}, {"time": 248, "pitch": 60, "duration": 45, "velocity": 76}, {"time": 248, "pitch": 67, "duration": 29, "velocity": 71}, {"time": 248, "pitch": 72, "duration": 33, "velocity": 79}, {"time": 254, "pitch": 43, "duration": 3, "velocity": 84}, {"time": 260, "pitch": 46, "duration": 3, "velocity": 82}, {"time": 266, "pitch": 48, "duration": 2, "velocity": 84}, {"time": 272, "pitch": 46, "duration": 3, "velocity": 102}, {"time": 278, "pitch": 43, "duration": 3, "velocity": 97}, {"time": 278, "pitch": 67, "duration": 4, "velocity": 65}, {"time": 284, "pitch": 41, "duration": 3, "velocity": 94}, {"time": 284, "pitch": 67, "duration": 4, "velocity": 76}, {"time": 284, "pitch": 72, "duration": 10, "velocity": 86}, {"time": 284, "pitch": 75, "duration": 9, "velocity": 86}, {"time": 290, "pitch": 43, "duration": 3, "velocity": 94}, {"time": 290, "pitch": 67, "duration": 6, "velocity": 77}, {"time": 296, "pitch": 48, "duration": 3, "velocity": 76}, {"time": 296, "pitch": 60, "duration": 43, "velocity": 85}, {"time": 302, "pitch": 43, "duration": 2, "velocity": 92}, {"time": 308, "pitch": 46, "duration": 2, "velocity": 102}, {"time": 308, "pitch": 67, "duration": 15, "velocity": 80}, {"time": 308, "pitch": 72, "duration": 19, "velocity": 84}, {"time": 314, "pitch": 48, "duration": 2, "velocity": 76}, {"time": 320, "pitch": 46, "duration": 2, "velocity": 99}, {"time": 326, "pitch": 48, "duration": 2, "velocity": 80}, {"time": 326, "pitch": 67, "duration": 3, "velocity": 73}, {"time": 332, "pitch": 46, "duration": 2, "velocity": 87}, {"time": 332, "pitch": 67, "duration": 1, "velocity": 58}, {"time": 332, "pitch": 72, "duration": 7, "velocity": 85}, {"time": 332, "pitch": 75, "duration": 7, "velocity": 84}, {"time": 338, "pitch": 43, "duration": 3, "velocity": 100}, {"time": 338, "pitch": 67, "duration": 1, "velocity": 52}, {"time": 344, "pitch": 48, "duration": 2, "velocity": 84}, {"time": 344, "pitch": 60, "duration": 46, "velocity": 83}, {"time": 344, "pitch": 67, "duration": 27, "velocity": 73}, {"time": 344, "pitch": 72, "duration": 32, "velocity": 80}, {"time": 350, "pitch": 43, "duration": 3, "velocity": 84}, {"time": 356, "pitch": 46, "duration": 3, "velocity": 82}, {"time": 362, "pitch": 48, "duration": 2, "velocity": 84}, {"time": 368, "pitch": 46, "duration": 3, "velocity": 102}, {"time": 374, "pitch": 43, "duration": 3, "velocity": 97}, {"time": 374, "pitch": 67, "duration": 2, "velocity": 73}, {"time": 380, "pitch": 41, "duration": 3, "velocity": 94}, {"time": 380, "pitch": 67, "duration": 3, "velocity": 81}, {"time": 380, "pitch": 72, "duration": 10, "velocity": 86}, {"time": 380, "pitch": 75, "duration": 10, "velocity": 84}, {"time": 386, "pitch": 43, "duration": 3, "velocity": 94}, {"time": 386, "pitch": 67, "duration": 4, "velocity": 83}, {"time": 392, "pitch": 48, "duration": 3, "velocity": 76}, {"time": 392, "pitch": 67, "duration": 45, "velocity": 79}, {"time": 392, "pitch": 72, "duration": 45, "velocity": 83}, {"time": 398, "pitch": 43, "duration": 2, "velocity": 92}, {"time": 404, "pitch": 46, "duration": 2, "velocity": 102}, {"time": 410, "pitch": 48, "duration": 2, "velocity": 76}, {"time": 416, "pitch": 46, "duration": 2, "velocity": 99}, {"time": 422, "pitch": 48, "duration": 2, "velocity": 80}, {"time": 428, "pitch": 46, "duration": 2, "velocity": 87}, {"time": 434, "pitch": 43, "duration": 3, "velocity": 100}, {"time": 440, "pitch": 48, "duration": 2, "velocity": 84}, {"time": 440, "pitch": 60, "duration": 40, "velocity": 74}, {"time": 440, "pitch": 67, "duration": 38, "velocity": 76}, {"time": 440, "pitch": 72, "duration": 38, "velocity": 80}, {"time": 440, "pitch": 75, "duration": 37, "velocity": 73}, {"time": 446, "pitch": 43, "duration": 3, "velocity": 84}, {"time": 452, "pitch": 46, "duration": 3, "velocity": 82}, {"time": 458, "pitch": 48, "duration": 2, "velocity": 84}, {"time": 464, "pitch": 46, "duration": 3, "velocity": 102}, {"time": 470, "pitch": 43, "duration": 3, "velocity": 97}, {"time": 476, "pitch": 41, "duration": 3, "velocity": 94}, {"time": 482, "pitch": 43, "duration": 3, "velocity": 94}, {"time": 488, "pitch": 48, "duration": 3, "velocity": 76}, {"time": 488, "pitch": 60, "duration": 44, "velocity": 77}, {"time": 488, "pitch": 67, "duration": 42, "velocity": 75}, {"time": 488, "pitch": 72, "duration": 42, "velocity": 69}, {"time": 494, "pitch": 43, "duration": 2, "velocity": 92}, {"time": 500, "pitch": 46, "duration": 2, "velocity": 102}, {"time": 506, "pitch": 48, "duration": 2, "velocity": 76}, {"time": 512, "pitch": 46, "duration": 2, "velocity": 99}, {"time": 518, "pitch": 48, "duration": 2, "velocity": 80}, {"time": 524, "pitch": 46, "duration": 2, "velocity": 87}, {"time": 530, "pitch": 43, "duration": 3, "velocity": 100}, {"time": 536, "pitch": 48, "duration": 2, "velocity": 84}, {"time": 536, "pitch": 60, "duration": 45, "velocity": 76}, {"time": 536, "pitch": 67, "duration": 29, "velocity": 71}, {"time": 536, "pitch": 72, "duration": 33, "velocity": 79}, {"time": 542, "pitch": 43, "duration": 3, "velocity": 84}, {"time": 548, "pitch": 46, "duration": 3, "velocity": 82}, {"time": 554, "pitch": 48, "duration": 2, "velocity": 84}, {"time": 560, "pitch": 46, "duration": 3, "velocity": 102}, {"time": 566, "pitch": 43, "duration": 3, "velocity": 97}, {"time": 566, "pitch": 67, "duration": 4, "velocity": 65}, {"time": 572, "pitch": 41, "duration": 3, "velocity": 94}, {"time": 572, "pitch": 67, "duration": 4, "velocity": 76}, {"time": 572, "pitch": 72, "duration": 10, "velocity": 86}, {"time": 572, "pitch": 75, "duration": 9, "velocity": 86}, {"time": 578, "pitch": 43, "duration": 3, "velocity": 94}, {"time": 578, "pitch": 67, "duration": 6, "velocity": 77}, {"time": 582, "pitch": 39, "duration": 48, "velocity": 68}, {"time": 582, "pitch": 51, "duration": 48, "velocity": 68}, {"time": 583, "pitch": 27, "duration": 47, "velocity": 65}, {"time": 583, "pitch": 39, "duration": 47, "velocity": 65}, {"time": 584, "pitch": 43, "duration": 46, "velocity": 78}, {"time": 584, "pitch": 55, "duration": 46, "velocity": 78}, {"time": 585, "pitch": 46, "duration": 45, "velocity": 57}, {"time": 585, "pitch": 58, "duration": 45, "velocity": 57}, {"time": 586, "pitch": 51, "duration": 44, "velocity": 63}, {"time": 586, "pitch": 63, "duration": 45, "velocity": 63}, {"time": 632, "pitch": 48, "duration": 3, "velocity": 92}, {"time": 632, "pitch": 63, "duration": 32, "velocity": 83}, {"time": 632, "pitch": 67, "duration": 33, "velocity": 80}, {"time": 638, "pitch": 43, "duration": 3, "velocity": 102}, {"time": 644, "pitch": 46, "duration": 3, "velocity": 99}, {"time": 650, "pitch": 48, "duration": 3, "velocity": 92}, {"time": 656, "pitch": 46, "duration": 3, "velocity": 105}, {"time": 662, "pitch": 43, "duration": 3, "velocity": 73}, {"time": 668, "pitch": 63, "duration": 7, "velocity": 82}, {"time": 668, "pitch": 67, "duration": 8, "velocity": 81}, {"time": 668, "pitch": 72, "duration": 8, "velocity": 78}, {"time": 668, "pitch": 46, "duration": 3, "velocity": 105}, {"time": 674, "pitch": 43, "duration": 2, "velocity": 105}, {"time": 680, "pitch": 62, "duration": 33, "velocity": 75}, {"time": 680, "pitch": 67, "duration": 33, "velocity": 82}, {"time": 680, "pitch": 70, "duration": 33, "velocity": 83}, {"time": 680, "pitch": 43, "duration": 3, "velocity": 87}, {"time": 686, "pitch": 38, "duration": 2, "velocity": 97}, {"time": 692, "pitch": 41, "duration": 2, "velocity": 100}, {"time": 698, "pitch": 43, "duration": 2, "velocity": 94}, {"time": 704, "pitch": 41, "duration": 2, "velocity": 100}, {"time": 710, "pitch": 43, "duration": 2, "velocity": 92}, {"time": 716, "pitch": 62, "duration": 7, "velocity": 82}, {"time": 716, "pitch": 67, "duration": 6, "velocity": 83}, {"time": 716, "pitch": 70, "duration": 8, "velocity": 84}, {"time": 716, "pitch": 46, "duration": 3, "velocity": 105}, {"time": 722, "pitch": 43, "duration": 2, "velocity": 92}, {"time": 728, "pitch": 63, "duration": 33, "velocity": 79}, {"time": 728, "pitch": 68, "duration": 33, "velocity": 76}, {"time": 728, "pitch": 44, "duration": 3, "velocity": 93}, {"time": 734, "pitch": 39, "duration": 3, "velocity": 102}, {"time": 740, "pitch": 44, "duration": 2, "velocity": 102}, {"time": 746, "pitch": 46, "duration": 2, "velocity": 96}, {"time": 752, "pitch": 44, "duration": 2, "velocity": 96}, {"time": 758, "pitch": 39, "duration": 2, "velocity": 96}, {"time": 764, "pitch": 63, "duration": 5, "velocity": 85}, {"time": 764, "pitch": 68, "duration": 4, "velocity": 84}, {"time": 764, "pitch": 44, "duration": 3, "velocity": 93}, {"time": 770, "pitch": 39, "duration": 3, "velocity": 85}, {"time": 776, "pitch": 62, "duration": 21, "velocity": 86}, {"time": 776, "pitch": 67, "duration": 21, "velocity": 85}, {"time": 776, "pitch": 43, "duration": 3, "velocity": 82}, {"time": 782, "pitch": 38, "duration": 2, "velocity": 94}, {"time": 788, "pitch": 41, "duration": 2, "velocity": 92}, {"time": 794, "pitch": 43, "duration": 2, "velocity": 80}, {"time": 800, "pitch": 62, "duration": 10, "velocity": 81}, {"time": 800, "pitch": 67, "duration": 10, "velocity": 82}, {"time": 800, "pitch": 71, "duration": 10, "velocity": 83}, {"time": 800, "pitch": 41, "duration": 2, "velocity": 94}, {"time": 806, "pitch": 38, "duration": 2, "velocity": 92}, {"time": 812, "pitch": 62, "duration": 9, "velocity": 81}, {"time": 812, "pitch": 67, "duration": 9, "velocity": 82}, {"time": 812, "pitch": 41, "duration": 3, "velocity": 84}, {"time": 818, "pitch": 43, "duration": 2, "velocity": 84}, {"time": 824, "pitch": 63, "duration": 32, "velocity": 83}, {"time": 824, "pitch": 67, "duration": 33, "velocity": 80}, {"time": 824, "pitch": 48, "duration": 3, "velocity": 92}, {"time": 830, "pitch": 43, "duration": 3, "velocity": 102}, {"time": 836, "pitch": 46, "duration": 3, "velocity": 99}, {"time": 842, "pitch": 48, "duration": 3, "velocity": 92}, {"time": 848, "pitch": 46, "duration": 3, "velocity": 105}, {"time": 854, "pitch": 43, "duration": 3, "velocity": 73}, {"time": 860, "pitch": 63, "duration": 7, "velocity": 82}, {"time": 860, "pitch": 67, "duration": 8, "velocity": 81}, {"time": 860, "pitch": 72, "duration": 8, "velocity": 78}, {"time": 860, "pitch": 46, "duration": 3, "velocity": 105}, {"time": 866, "pitch": 43, "duration": 2, "velocity": 105}, {"time": 872, "pitch": 62, "duration": 33, "velocity": 75}, {"time": 872, "pitch": 67, "duration": 33, "velocity": 82}, {"time": 872, "pitch": 70, "duration": 33, "velocity": 83}, {"time": 872, "pitch": 43, "duration": 3, "velocity": 87}, {"time": 878, "pitch": 38, "duration": 2, "velocity": 97}, {"time": 884, "pitch": 41, "duration": 2, "velocity": 100}, {"time": 890, "pitch": 43, "duration": 2, "velocity": 94}, {"time": 896, "pitch": 41, "duration": 2, "velocity": 100}, {"time": 902, "pitch": 43, "duration": 2, "velocity": 92}, {"time": 908, "pitch": 62, "duration": 7, "velocity": 82}, {"time": 908, "pitch": 67, "duration": 6, "velocity": 83}, {"time": 908, "pitch": 70, "duration": 8, "velocity": 84}, {"time": 908, "pitch": 46, "duration": 3, "velocity": 105}, {"time": 914, "pitch": 43, "duration": 2, "velocity": 92}, {"time": 920, "pitch": 63, "duration": 33, "velocity": 79}, {"time": 920, "pitch": 68, "duration": 33, "velocity": 76}, {"time": 920, "pitch": 44, "duration": 3, "velocity": 93}, {"time": 926, "pitch": 39, "duration": 3, "velocity": 102}, {"time": 932, "pitch": 44, "duration": 2, "velocity": 102}, {"time": 938, "pitch": 46, "duration": 2, "velocity": 96}, {"time": 944, "pitch": 44, "duration": 2, "velocity": 96}, {"time": 950, "pitch": 39, "duration": 2, "velocity": 96}, {"time": 956, "pitch": 63, "duration": 5, "velocity": 85}, {"time": 956, "pitch": 68, "duration": 4, "velocity": 84}, {"time": 956, "pitch": 44, "duration": 3, "velocity": 93}, {"time": 962, "pitch": 46, "duration": 3, "velocity": 85}, {"time": 968, "pitch": 62, "duration": 21, "velocity": 86}, {"time": 968, "pitch": 67, "duration": 21, "velocity": 85}, {"time": 968, "pitch": 43, "duration": 3, "velocity": 102}, {"time": 974, "pitch": 38, "duration": 3, "velocity": 105}, {"time": 980, "pitch": 41, "duration": 3, "velocity": 97}, {"time": 986, "pitch": 43, "duration": 2, "velocity": 87}, {"time": 992, "pitch": 62, "duration": 10, "velocity": 81}, {"time": 992, "pitch": 67, "duration": 10, "velocity": 82}, {"time": 992, "pitch": 71, "duration": 10, "velocity": 83}, {"time": 992, "pitch": 41, "duration": 2, "velocity": 97}, {"time": 998, "pitch": 38, "duration": 2, "velocity": 94}, {"time": 1004, "pitch": 62, "duration": 9, "velocity": 81}, {"time": 1004, "pitch": 67, "duration": 9, "velocity": 82}, {"time": 1004, "pitch": 36, "duration": 3, "velocity": 105}, {"time": 1010, "pitch": 38, "duration": 3, "velocity": 84}, {"time": 1016, "pitch": 67, "duration": 5, "velocity": 76}, {"time": 1016, "pitch": 72, "duration": 5, "velocity": 79}, {"time": 1016, "pitch": 75, "duration": 5, "velocity": 78}, {"time": 1016, "pitch": 36, "duration": 3, "velocity": 92}, {"time": 1022, "pitch": 31, "duration": 2, "velocity": 82}, {"time": 1025, "pitch": 67, "duration": 2, "velocity": 74}, {"time": 1025, "pitch": 72, "duration": 1, "velocity": 81}, {"time": 1025, "pitch": 75, "duration": 1, "velocity": 81}, {"time": 1028, "pitch": 34, "duration": 3, "velocity": 96}, {"time": 1034, "pitch": 67, "duration": 7, "velocity": 73}, {"time": 1034, "pitch": 72, "duration": 7, "velocity": 79}, {"time": 1034, "pitch": 75, "duration": 7, "velocity": 79}, {"time": 1034, "pitch": 36, "duration": 3, "velocity": 89}, {"time": 1040, "pitch": 36, "duration": 3, "velocity": 97}, {"time": 1043, "pitch": 67, "duration": 2, "velocity": 74}, {"time": 1043, "pitch": 72, "duration": 2, "velocity": 79}, {"time": 1043, "pitch": 75, "duration": 2, "velocity": 80}, {"time": 1046, "pitch": 34, "duration": 3, "velocity": 96}, {"time": 1052, "pitch": 67, "duration": 9, "velocity": 78}, {"time": 1052, "pitch": 72, "duration": 9, "velocity": 81}, {"time": 1052, "pitch": 75, "duration": 9, "velocity": 80}, {"time": 1052, "pitch": 36, "duration": 5, "velocity": 108}, {"time": 1064, "pitch": 43, "duration": 9, "velocity": 111}, {"time": 1064, "pitch": 55, "duration": 6, "velocity": 92}, {"time": 1064, "pitch": 67, "duration": 7, "velocity": 94}, {"time": 1076, "pitch": 44, "duration": 10, "velocity": 116}, {"time": 1076, "pitch": 56, "duration": 9, "velocity": 99}, {"time": 1076, "pitch": 68, "duration": 9, "velocity": 90}, {"time": 1088, "pitch": 45, "duration": 9, "velocity": 114}, {"time": 1088, "pitch": 57, "duration": 9, "velocity": 100}, {"time": 1088, "pitch": 69, "duration": 9, "velocity": 108}, {"time": 1100, "pitch": 47, "duration": 10, "velocity": 117}, {"time": 1100, "pitch": 59, "duration": 10, "velocity": 102}, {"time": 1100, "pitch": 71, "duration": 10, "velocity": 102}, {"time": 1112, "pitch": 36, "duration": 2, "velocity": 94}, {"time": 1112, "pitch": 48, "duration": 39, "velocity": 100}, {"time": 1112, "pitch": 55, "duration": 10, "velocity": 87}, {"time": 1112, "pitch": 60, "duration": 9, "velocity": 97}, {"time": 1112, "pitch": 63, "duration": 10, "velocity": 90}, {"time": 1118, "pitch": 31, "duration": 3, "velocity": 85}, {"time": 1124, "pitch": 34, "duration": 3, "velocity": 99}, {"time": 1124, "pitch": 60, "duration": 7, "velocity": 92}, {"time": 1124, "pitch": 63, "duration": 7, "velocity": 93}, {"time": 1130, "pitch": 36, "duration": 2, "velocity": 85}, {"time": 1130, "pitch": 55, "duration": 2, "velocity": 33}, {"time": 1136, "pitch": 34, "duration": 3, "velocity": 105}, {"time": 1136, "pitch": 55, "duration": 1, "velocity": 66}, {"time": 1136, "pitch": 60, "duration": 2, "velocity": 94}, {"time": 1136, "pitch": 63, "duration": 2, "velocity": 79}, {"time": 1142, "pitch": 31, "duration": 3, "velocity": 89}, {"time": 1142, "pitch": 55, "duration": 2, "velocity": 37}, {"time": 1148, "pitch": 34, "duration": 3, "velocity": 105}, {"time": 1148, "pitch": 55, "duration": 2, "velocity": 97}, {"time": 1148, "pitch": 60, "duration": 6, "velocity": 111}, {"time": 1148, "pitch": 63, "duration": 7, "velocity": 102}, {"time": 1154, "pitch": 31, "duration": 3, "velocity": 97}, {"time": 1154, "pitch": 55, "duration": 2, "velocity": 80}, {"time": 1160, "pitch": 41, "duration": 14, "velocity": 94}, {"time": 1160, "pitch": 53, "duration": 10, "velocity": 82}, {"time": 1160, "pitch": 56, "duration": 10, "velocity": 90}, {"time": 1160, "pitch": 60, "duration": 10, "velocity": 94}, {"time": 1166, "pitch": 36, "duration": 2, "velocity": 84}, {"time": 1172, "pitch": 39, "duration": 2, "velocity": 99}, {"time": 1172, "pitch": 56, "duration": 8, "velocity": 102}, {"time": 1172, "pitch": 60, "duration": 8, "velocity": 100}, {"time": 1178, "pitch": 41, "duration": 2, "velocity": 87}, {"time": 1178, "pitch": 53, "duration": 4, "velocity": 49}, {"time": 1184, "pitch": 39, "duration": 2, "velocity": 105}, {"time": 1184, "pitch": 53, "duration": 1, "velocity": 40}, {"time": 1184, "pitch": 56, "duration": 10, "velocity": 79}, {"time": 1184, "pitch": 60, "duration": 9, "velocity": 89}, {"time": 1190, "pitch": 36, "duration": 2, "velocity": 92}, {"time": 1190, "pitch": 53, "duration": 4, "velocity": 52}, {"time": 1196, "pitch": 39, "duration": 3, "velocity": 99}, {"time": 1196, "pitch": 53, "duration": 3, "velocity": 94}, {"time": 1196, "pitch": 56, "duration": 8, "velocity": 105}, {"time": 1196, "pitch": 60, "duration": 10, "velocity": 105}, {"time": 1202, "pitch": 36, "duration": 3, "velocity": 100}, {"time": 1202, "pitch": 53, "duration": 4, "velocity": 73}, {"time": 1208, "pitch": 44, "duration": 4, "velocity": 91}, {"time": 1208, "pitch": 56, "duration": 6, "velocity": 79}, {"time": 1208, "pitch": 60, "duration": 6, "velocity": 89}, {"time": 1214, "pitch": 39, "duration": 3, "velocity": 87}, {"time": 1214, "pitch": 51, "duration": 16, "velocity": 32}, {"time": 1220, "pitch": 44, "duration": 3, "velocity": 72}, {"time": 1220, "pitch": 56, "duration": 17, "velocity": 99}, {"time": 1220, "pitch": 60, "duration": 16, "velocity": 100}, {"time": 1220, "pitch": 63, "duration": 20, "velocity": 96}, {"time": 1226, "pitch": 39, "duration": 2, "velocity": 63}, {"time": 1232, "pitch": 44, "duration": 3, "velocity": 90}, {"time": 1238, "pitch": 39, "duration": 2, "velocity": 87}, {"time": 1238, "pitch": 51, "duration": 15, "velocity": 41}, {"time": 1244, "pitch": 44, "duration": 3, "velocity": 96}, {"time": 1244, "pitch": 56, "duration": 3, "velocity": 99}, {"time": 1244, "pitch": 60, "duration": 10, "velocity": 100}, {"time": 1244, "pitch": 63, "duration": 11, "velocity": 102}, {"time": 1250, "pitch": 39, "duration": 3, "velocity": 96}, {"time": 1250, "pitch": 56, "duration": 4, "velocity": 70}, {"time": 1256, "pitch": 43, "duration": 3, "velocity": 89}, {"time": 1262, "pitch": 38, "duration": 3, "velocity": 84}, {"time": 1262, "pitch": 50, "duration": 8, "velocity": 47}, {"time": 1268, "pitch": 41, "duration": 2, "velocity": 100}, {"time": 1268, "pitch": 55, "duration": 9, "velocity": 97}, {"time": 1268, "pitch": 59, "duration": 9, "velocity": 105}, {"time": 1268, "pitch": 62, "duration": 10, "velocity": 102}, {"time": 1274, "pitch": 43, "duration": 2, "velocity": 97}, {"time": 1274, "pitch": 50, "duration": 20, "velocity": 66}, {"time": 1280, "pitch": 41, "duration": 2, "velocity": 108}, {"time": 1280, "pitch": 55, "duration": 2, "velocity": 64}, {"time": 1286, "pitch": 38, "duration": 2, "velocity": 94}, {"time": 1286, "pitch": 55, "duration": 3, "velocity": 82}, {"time": 1292, "pitch": 41, "duration": 3, "velocity": 105}, {"time": 1292, "pitch": 55, "duration": 7, "velocity": 100}, {"time": 1292, "pitch": 59, "duration": 7, "velocity": 105}, {"time": 1292, "pitch": 62, "duration": 8, "velocity": 105}, {"time": 1298, "pitch": 43, "duration": 3, "velocity": 94}, {"time": 1298, "pitch": 50, "duration": 3, "velocity": 78}, {"time": 1304, "pitch": 36, "duration": 3, "velocity": 94}, {"time": 1304, "pitch": 48, "duration": 44, "velocity": 97}, {"time": 1304, "pitch": 55, "duration": 4, "velocity": 82}, {"time": 1304, "pitch": 60, "duration": 9, "velocity": 94}, {"time": 1310, "pitch": 31, "duration": 3, "velocity": 53}, {"time": 1310, "pitch": 55, "duration": 4, "velocity": 51}, {"time": 1316, "pitch": 34, "duration": 3, "velocity": 85}, {"time": 1316, "pitch": 55, "duration": 4, "velocity": 80}, {"time": 1316, "pitch": 60, "duration": 8, "velocity": 111}, {"time": 1316, "pitch": 63, "duration": 9, "velocity": 99}, {"time": 1322, "pitch": 36, "duration": 2, "velocity": 87}, {"time": 1322, "pitch": 55, "duration": 3, "velocity": 51}, {"time": 1328, "pitch": 34, "duration": 3, "velocity": 96}, {"time": 1328, "pitch": 55, "duration": 1, "velocity": 49}, {"time": 1328, "pitch": 60, "duration": 9, "velocity": 92}, {"time": 1328, "pitch": 63, "duration": 9, "velocity": 72}, {"time": 1334, "pitch": 31, "duration": 3, "velocity": 80}, {"time": 1334, "pitch": 55, "duration": 4, "velocity": 48}, {"time": 1340, "pitch": 34, "duration": 3, "velocity": 99}, {"time": 1340, "pitch": 55, "duration": 2, "velocity": 100}, {"time": 1340, "pitch": 60, "duration": 6, "velocity": 111}, {"time": 1340, "pitch": 63, "duration": 7, "velocity": 99}, {"time": 1346, "pitch": 31, "duration": 2, "velocity": 94}, {"time": 1346, "pitch": 55, "duration": 3, "velocity": 76}, {"time": 1352, "pitch": 41, "duration": 3, "velocity": 82}, {"time": 1352, "pitch": 53, "duration": 8, "velocity": 60}, {"time": 1352, "pitch": 56, "duration": 8, "velocity": 82}, {"time": 1352, "pitch": 60, "duration": 8, "velocity": 80}, {"time": 1358, "pitch": 36, "duration": 2, "velocity": 94}, {"time": 1358, "pitch": 48, "duration": 12, "velocity": 44}, {"time": 1364, "pitch": 39, "duration": 3, "velocity": 99}, {"time": 1364, "pitch": 56, "duration": 19, "velocity": 105}, {"time": 1364, "pitch": 60, "duration": 19, "velocity": 102}, {"time": 1370, "pitch": 41, "duration": 3, "velocity": 82}, {"time": 1370, "pitch": 53, "duration": 7, "velocity": 37}, {"time": 1376, "pitch": 39, "duration": 3, "velocity": 102}, {"time": 1376, "pitch": 48, "duration": 18, "velocity": 52}, {"time": 1382, "pitch": 36, "duration": 2, "velocity": 89}, {"time": 1382, "pitch": 53, "duration": 3, "velocity": 67}, {"time": 1388, "pitch": 39, "duration": 3, "velocity": 90}, {"time": 1388, "pitch": 53, "duration": 3, "velocity": 89}, {"time": 1388, "pitch": 56, "duration": 10, "velocity": 102}, {"time": 1388, "pitch": 60, "duration": 9, "velocity": 100}, {"time": 1394, "pitch": 36, "duration": 2, "velocity": 87}, {"time": 1394, "pitch": 53, "duration": 5, "velocity": 82}, {"time": 1400, "pitch": 44, "duration": 3, "velocity": 59}, {"time": 1406, "pitch": 39, "duration": 3, "velocity": 70}, {"time": 1406, "pitch": 51, "duration": 39, "velocity": 54}, {"time": 1412, "pitch": 44, "duration": 3, "velocity": 90}, {"time": 1412, "pitch": 56, "duration": 14, "velocity": 93}, {"time": 1412, "pitch": 60, "duration": 14, "velocity": 92}, {"time": 1412, "pitch": 63, "duration": 15, "velocity": 87}, {"time": 1418, "pitch": 39, "duration": 2, "velocity": 82}, {"time": 1424, "pitch": 44, "duration": 2, "velocity": 93}, {"time": 1430, "pitch": 39, "duration": 2, "velocity": 79}, {"time": 1430, "pitch": 56, "duration": 4, "velocity": 68}, {"time": 1430, "pitch": 63, "duration": 1, "velocity": 1}, {"time": 1436, "pitch": 44, "duration": 3, "velocity": 85}, {"time": 1436, "pitch": 56, "duration": 3, "velocity": 96}, {"time": 1436, "pitch": 60, "duration": 8, "velocity": 100}, {"time": 1436, "pitch": 63, "duration": 9, "velocity": 96}, {"time": 1442, "pitch": 39, "duration": 2, "velocity": 99}, {"time": 1442, "pitch": 56, "duration": 3, "velocity": 48}, {"time": 1448, "pitch": 43, "duration": 2, "velocity": 92}, {"time": 1448, "pitch": 55, "duration": 9, "velocity": 87}, {"time": 1448, "pitch": 59, "duration": 10, "velocity": 102}, {"time": 1448, "pitch": 62, "duration": 9, "velocity": 46}, {"time": 1454, "pitch": 38, "duration": 2, "velocity": 92}, {"time": 1460, "pitch": 41, "duration": 2, "velocity": 94}, {"time": 1460, "pitch": 55, "duration": 4, "velocity": 87}, {"time": 1460, "pitch": 59, "duration": 20, "velocity": 105}, {"time": 1460, "pitch": 62, "duration": 18, "velocity": 94}, {"time": 1466, "pitch": 43, "duration": 3, "velocity": 82}, {"time": 1466, "pitch": 55, "duration": 7, "velocity": 71}, {"time": 1472, "pitch": 41, "duration": 3, "velocity": 94}, {"time": 1472, "pitch": 50, "duration": 21, "velocity": 53}, {"time": 1478, "pitch": 38, "duration": 3, "velocity": 82}, {"time": 1478, "pitch": 55, "duration": 3, "velocity": 52}, {"time": 1484, "pitch": 41, "duration": 3, "velocity": 89}, {"time": 1484, "pitch": 55, "duration": 3, "velocity": 94}, {"time": 1484, "pitch": 59, "duration": 9, "velocity": 105}, {"time": 1484, "pitch": 62, "duration": 9, "velocity": 100}, {"time": 1490, "pitch": 38, "duration": 2, "velocity": 89}, {"time": 1490, "pitch": 55, "duration": 3, "velocity": 58}, {"time": 1496, "pitch": 43, "duration": 3, "velocity": 67}, {"time": 1496, "pitch": 55, "duration": 8, "velocity": 71}, {"time": 1496, "pitch": 59, "duration": 8, "velocity": 89}, {"time": 1496, "pitch": 62, "duration": 8, "velocity": 89}, {"time": 1502, "pitch": 38, "duration": 2, "velocity": 84}, {"time": 1502, "pitch": 50, "duration": 9, "velocity": 52}, {"time": 1508, "pitch": 41, "duration": 2, "velocity": 94}, {"time": 1508, "pitch": 55, "duration": 3, "velocity": 84}, {"time": 1508, "pitch": 59, "duration": 21, "velocity": 97}, {"time": 1508, "pitch": 62, "duration": 20, "velocity": 92}, {"time": 1514, "pitch": 43, "duration": 2, "velocity": 87}, {"time": 1514, "pitch": 55, "duration": 8, "velocity": 78}, {"time": 1520, "pitch": 41, "duration": 2, "velocity": 94}, {"time": 1520, "pitch": 50, "duration": 22, "velocity": 58}, {"time": 1526, "pitch": 38, "duration": 2, "velocity": 92}, {"time": 1526, "pitch": 55, "duration": 4, "velocity": 48}, {"time": 1532, "pitch": 41, "duration": 3, "velocity": 94}, {"time": 1532, "pitch": 59, "duration": 10, "velocity": 94}, {"time": 1532, "pitch": 62, "duration": 10, "velocity": 92}, {"time": 1538, "pitch": 38, "duration": 4, "velocity": 92}, {"time": 1538, "pitch": 55, "duration": 4, "velocity": 47}, {"time": 1544, "pitch": 43, "duration": 4, "velocity": 94}, {"time": 1544, "pitch": 55, "duration": 3, "velocity": 69}, {"time": 1544, "pitch": 59, "duration": 3, "velocity": 84}, {"time": 1544, "pitch": 62, "duration": 3, "velocity": 84}, {"time": 1568, "pitch": 36, "duration": 45, "velocity": 85}, {"time": 1568, "pitch": 48, "duration": 46, "velocity": 92}, {"time": 1568, "pitch": 55, "duration": 45, "velocity": 80}, {"time": 1568, "pitch": 60, "duration": 46, "velocity": 97}, {"time": 1616, "pitch": 36, "duration": 43, "velocity": 80}, {"time": 1616, "pitch": 60, "duration": 7, "velocity": 75}, {"time": 1616, "pitch": 63, "duration": 7, "velocity": 73}, {"time": 1616, "pitch": 48, "duration": 3, "velocity": 76}, {"time": 1622, "pitch": 43, "duration": 2, "velocity": 92}, {"time": 1628, "pitch": 60, "duration": 4, "velocity": 76}, {"time": 1628, "pitch": 63, "duration": 5, "velocity": 83}, {"time": 1628, "pitch": 67, "duration": 4, "velocity": 76}, {"time": 1628, "pitch": 46, "duration": 3, "velocity": 102}, {"time": 1634, "pitch": 48, "duration": 2, "velocity": 76}, {"time": 1640, "pitch": 60, "duration": 3, "velocity": 76}, {"time": 1640, "pitch": 63, "duration": 2, "velocity": 77}, {"time": 1640, "pitch": 46, "duration": 2, "velocity": 99}, {"time": 1646, "pitch": 48, "duration": 2, "velocity": 80}, {"time": 1652, "pitch": 60, "duration": 3, "velocity": 77}, {"time": 1652, "pitch": 63, "duration": 5, "velocity": 85}, {"time": 1652, "pitch": 67, "duration": 6, "velocity": 77}, {"time": 1652, "pitch": 46, "duration": 3, "velocity": 87}, {"time": 1658, "pitch": 55, "duration": 3, "velocity": 75}, {"time": 1658, "pitch": 43, "duration": 3, "velocity": 100}, {"time": 1664, "pitch": 36, "duration": 45, "velocity": 80}, {"time": 1664, "pitch": 60, "duration": 8, "velocity": 77}, {"time": 1664, "pitch": 63, "duration": 8, "velocity": 81}, {"time": 1664, "pitch": 67, "duration": 8, "velocity": 76}, {"time": 1664, "pitch": 48, "duration": 2, "velocity": 84}, {"time": 1670, "pitch": 43, "duration": 3, "velocity": 84}, {"time": 1676, "pitch": 60, "duration": 3, "velocity": 77}, {"time": 1676, "pitch": 63, "duration": 6, "velocity": 82}, {"time": 1676, "pitch": 67, "duration": 7, "velocity": 78}, {"time": 1676, "pitch": 46, "duration": 3, "velocity": 82}, {"time": 1682, "pitch": 60, "duration": 6, "velocity": 77}, {"time": 1682, "pitch": 48, "duration": 2, "velocity": 84}, {"time": 1688, "pitch": 55, "duration": 20, "velocity": 71}, {"time": 1688, "pitch": 46, "duration": 3, "velocity": 102}, {"time": 1694, "pitch": 60, "duration": 2, "velocity": 72}, {"time": 1694, "pitch": 43, "duration": 3, "velocity": 97}, {"time": 1700, "pitch": 60, "duration": 2, "velocity": 73}, {"time": 1700, "pitch": 63, "duration": 6, "velocity": 78}, {"time": 1700, "pitch": 67, "duration": 7, "velocity": 75}, {"time": 1700, "pitch": 41, "duration": 3, "velocity": 94}, {"time": 1706, "pitch": 60, "duration": 3, "velocity": 75}, {"time": 1706, "pitch": 43, "duration": 3, "velocity": 94}, {"time": 1712, "pitch": 41, "duration": 24, "velocity": 78}, {"time": 1712, "pitch": 60, "duration": 8, "velocity": 76}, {"time": 1712, "pitch": 65, "duration": 8, "velocity": 76}, {"time": 1712, "pitch": 53, "duration": 5, "velocity": 80}, {"time": 1718, "pitch": 48, "duration": 2, "velocity": 94}, {"time": 1724, "pitch": 65, "duration": 6, "velocity": 83}, {"time": 1724, "pitch": 68, "duration": 7, "velocity": 81}, {"time": 1724, "pitch": 51, "duration": 3, "velocity": 102}, {"time": 1730, "pitch": 60, "duration": 7, "velocity": 80}, {"time": 1730, "pitch": 53, "duration": 3, "velocity": 89}, {"time": 1736, "pitch": 65, "duration": 7, "velocity": 72}, {"time": 1736, "pitch": 51, "duration": 3, "velocity": 96}, {"time": 1742, "pitch": 60, "duration": 4, "velocity": 76}, {"time": 1742, "pitch": 53, "duration": 2, "velocity": 92}, {"time": 1748, "pitch": 41, "duration": 8, "velocity": 81}, {"time": 1748, "pitch": 60, "duration": 2, "velocity": 77}, {"time": 1748, "pitch": 65, "duration": 7, "velocity": 82}, {"time": 1748, "pitch": 68, "duration": 8, "velocity": 78}, {"time": 1748, "pitch": 51, "duration": 2, "velocity": 102}, {"time": 1754, "pitch": 60, "duration": 4, "velocity": 80}, {"time": 1754, "pitch": 48, "duration": 3, "velocity": 92}, {"time": 1760, "pitch": 41, "duration": 20, "velocity": 77}, {"time": 1760, "pitch": 60, "duration": 9, "velocity": 77}, {"time": 1760, "pitch": 65, "duration": 9, "velocity": 77}, {"time": 1760, "pitch": 53, "duration": 2, "velocity": 100}, {"time": 1766, "pitch": 48, "duration": 2, "velocity": 87}, {"time": 1772, "pitch": 60, "duration": 1, "velocity": 70}, {"time": 1772, "pitch": 65, "duration": 7, "velocity": 81}, {"time": 1772, "pitch": 68, "duration": 8, "velocity": 77}, {"time": 1772, "pitch": 51, "duration": 2, "velocity": 102}, {"time": 1778, "pitch": 60, "duration": 3, "velocity": 76}, {"time": 1778, "pitch": 53, "duration": 2, "velocity": 87}, {"time": 1784, "pitch": 41, "duration": 22, "velocity": 73}, {"time": 1784, "pitch": 60, "duration": 2, "velocity": 76}, {"time": 1784, "pitch": 65, "duration": 9, "velocity": 76}, {"time": 1784, "pitch": 51, "duration": 3, "velocity": 99}, {"time": 1790, "pitch": 60, "duration": 3, "velocity": 67}, {"time": 1790, "pitch": 48, "duration": 3, "velocity": 80}, {"time": 1796, "pitch": 60, "duration": 1, "velocity": 77}, {"time": 1796, "pitch": 65, "duration": 9, "velocity": 83}, {"time": 1796, "pitch": 68, "duration": 9, "velocity": 81}, {"time": 1796, "pitch": 51, "duration": 3, "velocity": 102}, {"time": 1802, "pitch": 60, "duration": 3, "velocity": 78}, {"time": 1802, "pitch": 53, "duration": 3, "velocity": 89}, {"time": 1808, "pitch": 48, "duration": 8, "velocity": 105}, {"time": 1808, "pitch": 55, "duration": 8, "velocity": 94}, {"time": 1808, "pitch": 60, "duration": 8, "velocity": 97}, {"time": 1808, "pitch": 63, "duration": 8, "velocity": 87}, {"time": 1808, "pitch": 67, "duration": 8, "velocity": 82}, {"time": 1838, "pitch": 48, "duration": 3, "velocity": 111}, {"time": 1838, "pitch": 55, "duration": 4, "velocity": 89}, {"time": 1838, "pitch": 60, "duration": 4, "velocity": 94}, {"time": 1838, "pitch": 63, "duration": 4, "velocity": 96}, {"time": 1838, "pitch": 67, "duration": 4, "velocity": 84}, {"time": 1844, "pitch": 48, "duration": 4, "velocity": 114}, {"time": 1844, "pitch": 55, "duration": 5, "velocity": 94}, {"time": 1844, "pitch": 60, "duration": 4, "velocity": 100}, {"time": 1844, "pitch": 63, "duration": 4, "velocity": 102}, {"time": 1844, "pitch": 67, "duration": 4, "velocity": 94}, {"time": 1856, "pitch": 41, "duration": 20, "velocity": 105}, {"time": 1856, "pitch": 53, "duration": 18, "velocity": 76}, {"time": 1856, "pitch": 56, "duration": 18, "velocity": 57}, {"time": 1856, "pitch": 60, "duration": 18, "velocity": 100}, {"time": 1880, "pitch": 43, "duration": 22, "velocity": 108}, {"time": 1880, "pitch": 55, "duration": 19, "velocity": 78}, {"time": 1880, "pitch": 59, "duration": 15, "velocity": 100}, {"time": 1880, "pitch": 62, "duration": 15, "velocity": 87}, {"time": 1904, "pitch": 48, "duration": 46, "velocity": 114}, {"time": 1904, "pitch": 55, "duration": 46, "velocity": 87}, {"time": 1904, "pitch": 60, "duration": 46, "velocity": 94}, {"time": 1904, "pitch": 63, "duration": 46, "velocity": 79}, {"time": 1904, "pitch": 67, "duration": 46, "velocity": 89}, {"time": 1952, "pitch": 48, "duration": 3, "velocity": 92}, {"time": 1952, "pitch": 63, "duration": 32, "velocity": 83}, {"time": 1952, "pitch": 67, "duration": 33, "velocity": 80}, {"time": 1958, "pitch": 43, "duration": 3, "velocity": 102}, {"time": 1964, "pitch": 46, "duration": 3, "velocity": 99}, {"time": 1970, "pitch": 48, "duration": 3, "velocity": 92}, {"time": 1976, "pitch": 46, "duration": 3, "velocity": 105}, {"time": 1982, "pitch": 43, "duration": 3, "velocity": 73}, {"time": 1988, "pitch": 63, "duration": 7, "velocity": 82}, {"time": 1988, "pitch": 67, "duration": 8, "velocity": 81}, {"time": 1988, "pitch": 72, "duration": 8, "velocity": 78}, {"time": 1988, "pitch": 46, "duration": 3, "velocity": 105}, {"time": 1994, "pitch": 43, "duration": 2, "velocity": 105}, {"time": 2000, "pitch": 62, "duration": 33, "velocity": 75}, {"time": 2000, "pitch": 67, "duration": 33, "velocity": 82}, {"time": 2000, "pitch": 70, "duration": 33, "velocity": 83}, {"time": 2000, "pitch": 43, "duration": 3, "velocity": 87}, {"time": 2006, "pitch": 38, "duration": 2, "velocity": 97}, {"time": 2012, "pitch": 41, "duration": 2, "velocity": 100}, {"time": 2018, "pitch": 43, "duration": 2, "velocity": 94}, {"time": 2024, "pitch": 41, "duration": 2, "velocity": 100}, {"time": 2030, "pitch": 43, "duration": 2, "velocity": 92}, {"time": 2036, "pitch": 62, "duration": 7, "velocity": 82}, {"time": 2036, "pitch": 67, "duration": 6, "velocity": 83}, {"time": 2036, "pitch": 70, "duration": 8, "velocity": 84}, {"time": 2036, "pitch": 46, "duration": 3, "velocity": 105}, {"time": 2042, "pitch": 43, "duration": 2, "velocity": 92}, {"time": 2048, "pitch": 63, "duration": 33, "velocity": 79}, {"time": 2048, "pitch": 68, "duration": 33, "velocity": 76}, {"time": 2048, "pitch": 44, "duration": 3, "velocity": 93}, {"time": 2054, "pitch": 39, "duration": 3, "velocity": 102}, {"time": 2060, "pitch": 44, "duration": 2, "velocity": 102}, {"time": 2066, "pitch": 46, "duration": 2, "velocity": 96}, {"time": 2072, "pitch": 44, "duration": 2, "velocity": 96}, {"time": 2078, "pitch": 39, "duration": 2, "velocity": 96}, {"time": 2084, "pitch": 63, "duration": 5, "velocity": 85}, {"time": 2084, "pitch": 68, "duration": 4, "velocity": 84}, {"time": 2084, "pitch": 44, "duration": 3, "velocity": 93}, {"time": 2090, "pitch": 39, "duration": 3, "velocity": 85}, {"time": 2096, "pitch": 62, "duration": 21, "velocity": 86}, {"time": 2096, "pitch": 67, "duration": 21, "velocity": 85}, {"time": 2096, "pitch": 43, "duration": 3, "velocity": 82}, {"time": 2102, "pitch": 38, "duration": 2, "velocity": 94}, {"time": 2108, "pitch": 41, "duration": 2, "velocity": 92}, {"time": 2114, "pitch": 43, "duration": 2, "velocity": 80}, {"time": 2120, "pitch": 62, "duration": 10, "velocity": 81}, {"time": 2120, "pitch": 67, "duration": 10, "velocity": 82}, {"time": 2120, "pitch": 71, "duration": 10, "velocity": 83}, {"time": 2120, "pitch": 41, "duration": 2, "velocity": 94}, {"time": 2126, "pitch": 38, "duration": 2, "velocity": 92}, {"time": 2132, "pitch": 62, "duration": 9, "velocity": 81}, {"time": 2132, "pitch": 67, "duration": 9, "velocity": 82}, {"time": 2132, "pitch": 41, "duration": 3, "velocity": 84}, {"time": 2138, "pitch": 43, "duration": 2, "velocity": 84}, {"time": 2144, "pitch": 63, "duration": 32, "velocity": 83}, {"time": 2144, "pitch": 67, "duration": 33, "velocity": 80}, {"time": 2144, "pitch": 48, "duration": 3, "velocity": 92}, {"time": 2150, "pitch": 43, "duration": 3, "velocity": 102}, {"time": 2156, "pitch": 46, "duration": 3, "velocity": 99}, {"time": 2162, "pitch": 48, "duration": 3, "velocity": 92}, {"time": 2168, "pitch": 46, "duration": 3, "velocity": 105}, {"time": 2174, "pitch": 43, "duration": 3, "velocity": 73}, {"time": 2180, "pitch": 63, "duration": 7, "velocity": 82}, {"time": 2180, "pitch": 67, "duration": 8, "velocity": 81}, {"time": 2180, "pitch": 72, "duration": 8, "velocity": 78}, {"time": 2180, "pitch": 46, "duration": 3, "velocity": 105}, {"time": 2186, "pitch": 43, "duration": 2, "velocity": 105}, {"time": 2192, "pitch": 62, "duration": 33, "velocity": 75}, {"time": 2192, "pitch": 67, "duration": 33, "velocity": 82}, {"time": 2192, "pitch": 70, "duration": 33, "velocity": 83}, {"time": 2192, "pitch": 43, "duration": 3, "velocity": 87}, {"time": 2198, "pitch": 38, "duration": 2, "velocity": 97}, {"time": 2204, "pitch": 41, "duration": 2, "velocity": 100}, {"time": 2210, "pitch": 43, "duration": 2, "velocity": 94}, {"time": 2216, "pitch": 41, "duration": 2, "velocity": 100}, {"time": 2222, "pitch": 43, "duration": 2, "velocity": 92}, {"time": 2228, "pitch": 62, "duration": 7, "velocity": 82}, {"time": 2228, "pitch": 67, "duration": 6, "velocity": 83}, {"time": 2228, "pitch": 70, "duration": 8, "velocity": 84}, {"time": 2228, "pitch": 46, "duration": 3, "velocity": 105}, {"time": 2234, "pitch": 43, "duration": 2, "velocity": 92}, {"time": 2240, "pitch": 63, "duration": 33, "velocity": 79}, {"time": 2240, "pitch": 68, "duration": 33, "velocity": 76}, {"time": 2240, "pitch": 44, "duration": 3, "velocity": 93}, {"time": 2246, "pitch": 39, "duration": 3, "velocity": 102}, {"time": 2252, "pitch": 44, "duration": 2, "velocity": 102}, {"time": 2258, "pitch": 46, "duration": 2, "velocity": 96}, {"time": 2264, "pitch": 44, "duration": 2, "velocity": 96}, {"time": 2270, "pitch": 39, "duration": 2, "velocity": 96}, {"time": 2276, "pitch": 63, "duration": 5, "velocity": 85}, {"time": 2276, "pitch": 68, "duration": 4, "velocity": 84}, {"time": 2276, "pitch": 44, "duration": 3, "velocity": 93}, {"time": 2282, "pitch": 46, "duration": 3, "velocity": 85}, {"time": 2288, "pitch": 62, "duration": 21, "velocity": 86}, {"time": 2288, "pitch": 67, "duration": 21, "velocity": 85}, {"time": 2288, "pitch": 43, "duration": 3, "velocity": 102}, {"time": 2294, "pitch": 38, "duration": 3, "velocity": 105}, {"time": 2300, "pitch": 41, "duration": 3, "velocity": 97}, {"time": 2306, "pitch": 43, "duration": 2, "velocity": 87}, {"time": 2312, "pitch": 62, "duration": 10, "velocity": 81}, {"time": 2312, "pitch": 67, "duration": 10, "velocity": 82}, {"time": 2312, "pitch": 71, "duration": 10, "velocity": 83}, {"time": 2312, "pitch": 41, "duration": 2, "velocity": 97}, {"time": 2318, "pitch": 38, "duration": 2, "velocity": 94}, {"time": 2324, "pitch": 62, "duration": 9, "velocity": 81}, {"time": 2324, "pitch": 67, "duration": 9, "velocity": 82}, {"time": 2324, "pitch": 36, "duration": 3, "velocity": 105}, {"time": 2330, "pitch": 38, "duration": 3, "velocity": 84}, {"time": 2336, "pitch": 67, "duration": 5, "velocity": 76}, {"time": 2336, "pitch": 72, "duration": 5, "velocity": 79}, {"time": 2336, "pitch": 75, "duration": 5, "velocity": 78}, {"time": 2336, "pitch": 36, "duration": 3, "velocity": 92}, {"time": 2342, "pitch": 31, "duration": 2, "velocity": 82}, {"time": 2345, "pitch": 67, "duration": 2, "velocity": 74}, {"time": 2345, "pitch": 72, "duration": 1, "velocity": 81}, {"time": 2345, "pitch": 75, "duration": 1, "velocity": 81}, {"time": 2348, "pitch": 34, "duration": 3, "velocity": 96}, {"time": 2354, "pitch": 67, "duration": 7, "velocity": 73}, {"time": 2354, "pitch": 72, "duration": 7, "velocity": 79}, {"time": 2354, "pitch": 75, "duration": 7, "velocity": 79}, {"time": 2354, "pitch": 36, "duration": 3, "velocity": 89}, {"time": 2360, "pitch": 36, "duration": 3, "velocity": 97}, {"time": 2363, "pitch": 67, "duration": 2, "velocity": 74}, {"time": 2363, "pitch": 72, "duration": 2, "velocity": 79}, {"time": 2363, "pitch": 75, "duration": 2, "velocity": 80}, {"time": 2366, "pitch": 34, "duration": 3, "velocity": 96}, {"time": 2372, "pitch": 67, "duration": 9, "velocity": 78}, {"time": 2372, "pitch": 72, "duration": 9, "velocity": 81}, {"time": 2372, "pitch": 75, "duration": 9, "velocity": 80}, {"time": 2372, "pitch": 36, "duration": 5, "velocity": 108}, {"time": 2384, "pitch": 43, "duration": 9, "velocity": 111}, {"time": 2384, "pitch": 55, "duration": 6, "velocity": 92}, {"time": 2384, "pitch": 67, "duration": 7, "velocity": 94}, {"time": 2396, "pitch": 44, "duration": 10, "velocity": 116}, {"time": 2396, "pitch": 56, "duration": 9, "velocity": 99}, {"time": 2396, "pitch": 68, "duration": 9, "velocity": 90}, {"time": 2408, "pitch": 45, "duration": 9, "velocity": 114}, {"time": 2408, "pitch": 57, "duration": 9, "velocity": 100}, {"time": 2408, "pitch": 69, "duration": 9, "velocity": 108}, {"time": 2420, "pitch": 47, "duration": 10, "velocity": 117}, {"time": 2420, "pitch": 59, "duration": 10, "velocity": 102}, {"time": 2420, "pitch": 71, "duration": 10, "velocity": 102}, {"time": 2432, "pitch": 36, "duration": 2, "velocity": 94}, {"time": 2432, "pitch": 48, "duration": 39, "velocity": 100}, {"time": 2432, "pitch": 55, "duration": 10, "velocity": 87}, {"time": 2432, "pitch": 60, "duration": 9, "velocity": 97}, {"time": 2432, "pitch": 63, "duration": 10, "velocity": 90}, {"time": 2438, "pitch": 31, "duration": 3, "velocity": 85}, {"time": 2444, "pitch": 34, "duration": 3, "velocity": 99}, {"time": 2444, "pitch": 60, "duration": 7, "velocity": 92}, {"time": 2444, "pitch": 63, "duration": 7, "velocity": 93}, {"time": 2450, "pitch": 36, "duration": 2, "velocity": 85}, {"time": 2450, "pitch": 55, "duration": 2, "velocity": 33}, {"time": 2456, "pitch": 34, "duration": 3, "velocity": 105}, {"time": 2456, "pitch": 55, "duration": 1, "velocity": 66}, {"time": 2456, "pitch": 60, "duration": 2, "velocity": 94}, {"time": 2456, "pitch": 63, "duration": 2, "velocity": 79}, {"time": 2462, "pitch": 31, "duration": 3, "velocity": 89}, {"time": 2462, "pitch": 55, "duration": 2, "velocity": 37}, {"time": 2468, "pitch": 34, "duration": 3, "velocity": 105}, {"time": 2468, "pitch": 55, "duration": 2, "velocity": 97}, {"time": 2468, "pitch": 60, "duration": 6, "velocity": 111}, {"time": 2468, "pitch": 63, "duration": 7, "velocity": 102}, {"time": 2474, "pitch": 31, "duration": 3, "velocity": 97}, {"time": 2474, "pitch": 55, "duration": 2, "velocity": 80}, {"time": 2480, "pitch": 41, "duration": 14, "velocity": 94}, {"time": 2480, "pitch": 53, "duration": 10, "velocity": 82}, {"time": 2480, "pitch": 56, "duration": 10, "velocity": 90}, {"time": 2480, "pitch": 60, "duration": 10, "velocity": 94}, {"time": 2486, "pitch": 36, "duration": 2, "velocity": 84}, {"time": 2492, "pitch": 39, "duration": 2, "velocity": 99}, {"time": 2492, "pitch": 56, "duration": 8, "velocity": 102}, {"time": 2492, "pitch": 60, "duration": 8, "velocity": 100}, {"time": 2498, "pitch": 41, "duration": 2, "velocity": 87}, {"time": 2498, "pitch": 53, "duration": 4, "velocity": 49}, {"time": 2504, "pitch": 39, "duration": 2, "velocity": 105}, {"time": 2504, "pitch": 53, "duration": 1, "velocity": 40}, {"time": 2504, "pitch": 56, "duration": 10, "velocity": 79}, {"time": 2504, "pitch": 60, "duration": 9, "velocity": 89}, {"time": 2510, "pitch": 36, "duration": 2, "velocity": 92}, {"time": 2510, "pitch": 53, "duration": 4, "velocity": 52}, {"time": 2516, "pitch": 39, "duration": 3, "velocity": 99}, {"time": 2516, "pitch": 53, "duration": 3, "velocity": 94}, {"time": 2516, "pitch": 56, "duration": 8, "velocity": 105}, {"time": 2516, "pitch": 60, "duration": 10, "velocity": 105}, {"time": 2522, "pitch": 36, "duration": 3, "velocity": 100}, {"time": 2522, "pitch": 53, "duration": 4, "velocity": 73}, {"time": 2528, "pitch": 44, "duration": 4, "velocity": 91}, {"time": 2528, "pitch": 56, "duration": 6, "velocity": 79}, {"time": 2528, "pitch": 60, "duration": 6, "velocity": 89}, {"time": 2534, "pitch": 39, "duration": 3, "velocity": 87}, {"time": 2534, "pitch": 51, "duration": 16, "velocity": 32}, {"time": 2540, "pitch": 44, "duration": 3, "velocity": 72}, {"time": 2540, "pitch": 56, "duration": 17, "velocity": 99}, {"time": 2540, "pitch": 60, "duration": 16, "velocity": 100}, {"time": 2540, "pitch": 63, "duration": 20, "velocity": 96}, {"time": 2546, "pitch": 39, "duration": 2, "velocity": 63}, {"time": 2552, "pitch": 44, "duration": 3, "velocity": 90}, {"time": 2558, "pitch": 39, "duration": 2, "velocity": 87}, {"time": 2558, "pitch": 51, "duration": 15, "velocity": 41}, {"time": 2564, "pitch": 44, "duration": 3, "velocity": 96}, {"time": 2564, "pitch": 56, "duration": 3, "velocity": 99}, {"time": 2564, "pitch": 60, "duration": 10, "velocity": 100}, {"time": 2564, "pitch": 63, "duration": 11, "velocity": 102}, {"time": 2570, "pitch": 39, "duration": 3, "velocity": 96}, {"time": 2570, "pitch": 56, "duration": 4, "velocity": 70}, {"time": 2576, "pitch": 43, "duration": 3, "velocity": 89}, {"time": 2582, "pitch": 38, "duration": 3, "velocity": 84}, {"time": 2582, "pitch": 50, "duration": 8, "velocity": 47}, {"time": 2588, "pitch": 41, "duration": 2, "velocity": 100}, {"time": 2588, "pitch": 55, "duration": 9, "velocity": 97}, {"time": 2588, "pitch": 59, "duration": 9, "velocity": 105}, {"time": 2588, "pitch": 62, "duration": 10, "velocity": 102}, {"time": 2594, "pitch": 43, "duration": 2, "velocity": 97}, {"time": 2594, "pitch": 50, "duration": 20, "velocity": 66}, {"time": 2600, "pitch": 41, "duration": 2, "velocity": 108}, {"time": 2600, "pitch": 55, "duration": 2, "velocity": 64}, {"time": 2606, "pitch": 38, "duration": 2, "velocity": 94}, {"time": 2606, "pitch": 55, "duration": 3, "velocity": 82}, {"time": 2612, "pitch": 41, "duration": 3, "velocity": 105}, {"time": 2612, "pitch": 55, "duration": 7, "velocity": 100}, {"time": 2612, "pitch": 59, "duration": 7, "velocity": 105}, {"time": 2612, "pitch": 62, "duration": 8, "velocity": 105}, {"time": 2618, "pitch": 43, "duration": 3, "velocity": 94}, {"time": 2618, "pitch": 50, "duration": 3, "velocity": 78}, {"time": 2624, "pitch": 36, "duration": 3, "velocity": 94}, {"time": 2624, "pitch": 48, "duration": 44, "velocity": 97}, {"time": 2624, "pitch": 55, "duration": 4, "velocity": 82}, {"time": 2624, "pitch": 60, "duration": 9, "velocity": 94}, {"time": 2630, "pitch": 31, "duration": 3, "velocity": 53}, {"time": 2630, "pitch": 55, "duration": 4, "velocity": 51}, {"time": 2636, "pitch": 34, "duration": 3, "velocity": 85}, {"time": 2636, "pitch": 55, "duration": 4, "velocity": 80}, {"time": 2636, "pitch": 60, "duration": 8, "velocity": 111}, {"time": 2636, "pitch": 63, "duration": 9, "velocity": 99}, {"time": 2642, "pitch": 36, "duration": 2, "velocity": 87}, {"time": 2642, "pitch": 55, "duration": 3, "velocity": 51}, {"time": 2648, "pitch": 34, "duration": 3, "velocity": 96}, {"time": 2648, "pitch": 55, "duration": 1, "velocity": 49}, {"time": 2648, "pitch": 60, "duration": 9, "velocity": 92}, {"time": 2648, "pitch": 63, "duration": 9, "velocity": 72}, {"time": 2654, "pitch": 31, "duration": 3, "velocity": 80}, {"time": 2654, "pitch": 55, "duration": 4, "velocity": 48}, {"time": 2660, "pitch": 34, "duration": 3, "velocity": 99}, {"time": 2660, "pitch": 55, "duration": 2, "velocity": 100}, {"time": 2660, "pitch": 60, "duration": 6, "velocity": 111}, {"time": 2660, "pitch": 63, "duration": 7, "velocity": 99}, {"time": 2666, "pitch": 31, "duration": 2, "velocity": 94}, {"time": 2666, "pitch": 55, "duration": 3, "velocity": 76}, {"time": 2672, "pitch": 41, "duration": 3, "velocity": 82}, {"time": 2672, "pitch": 53, "duration": 8, "velocity": 60}, {"time": 2672, "pitch": 56, "duration": 8, "velocity": 82}, {"time": 2672, "pitch": 60, "duration": 8, "velocity": 80}, {"time": 2678, "pitch": 36, "duration": 2, "velocity": 94}, {"time": 2678, "pitch": 48, "duration": 12, "velocity": 44}, {"time": 2684, "pitch": 39, "duration": 3, "velocity": 99}, {"time": 2684, "pitch": 56, "duration": 19, "velocity": 105}, {"time": 2684, "pitch": 60, "duration": 19, "velocity": 102}, {"time": 2690, "pitch": 41, "duration": 3, "velocity": 82}, {"time": 2690, "pitch": 53, "duration": 7, "velocity": 37}, {"time": 2696, "pitch": 39, "duration": 3, "velocity": 102}, {"time": 2696, "pitch": 48, "duration": 18, "velocity": 52}, {"time": 2702, "pitch": 36, "duration": 2, "velocity": 89}, {"time": 2702, "pitch": 53, "duration": 3, "velocity": 67}, {"time": 2708, "pitch": 39, "duration": 3, "velocity": 90}, {"time": 2708, "pitch": 53, "duration": 3, "velocity": 89}, {"time": 2708, "pitch": 56, "duration": 10, "velocity": 102}, {"time": 2708, "pitch": 60, "duration": 9, "velocity": 100}, {"time": 2714, "pitch": 36, "duration": 2, "velocity": 87}, {"time": 2714, "pitch": 53, "duration": 5, "velocity": 82}, {"time": 2720, "pitch": 44, "duration": 3, "velocity": 59}, {"time": 2726, "pitch": 39, "duration": 3, "velocity": 70}, {"time": 2726, "pitch": 51, "duration": 39, "velocity": 54}, {"time": 2732, "pitch": 44, "duration": 3, "velocity": 90}, {"time": 2732, "pitch": 56, "duration": 14, "velocity": 93}, {"time": 2732, "pitch": 60, "duration": 14, "velocity": 92}, {"time": 2732, "pitch": 63, "duration": 15, "velocity": 87}, {"time": 2738, "pitch": 39, "duration": 2, "velocity": 82}, {"time": 2744, "pitch": 44, "duration": 2, "velocity": 93}, {"time": 2750, "pitch": 39, "duration": 2, "velocity": 79}, {"time": 2750, "pitch": 56, "duration": 4, "velocity": 68}, {"time": 2750, "pitch": 63, "duration": 1, "velocity": 1}, {"time": 2756, "pitch": 44, "duration": 3, "velocity": 85}, {"time": 2756, "pitch": 56, "duration": 3, "velocity": 96}, {"time": 2756, "pitch": 60, "duration": 8, "velocity": 100}, {"time": 2756, "pitch": 63, "duration": 9, "velocity": 96}, {"time": 2762, "pitch": 39, "duration": 2, "velocity": 99}, {"time": 2762, "pitch": 56, "duration": 3, "velocity": 48}, {"time": 2768, "pitch": 43, "duration": 2, "velocity": 92}, {"time": 2768, "pitch": 55, "duration": 9, "velocity": 87}, {"time": 2768, "pitch": 59, "duration": 10, "velocity": 102}, {"time": 2768, "pitch": 62, "duration": 9, "velocity": 46}, {"time": 2774, "pitch": 38, "duration": 2, "velocity": 92}, {"time": 2780, "pitch": 41, "duration": 2, "velocity": 94}, {"time": 2780, "pitch": 55, "duration": 4, "velocity": 87}, {"time": 2780, "pitch": 59, "duration": 20, "velocity": 105}, {"time": 2780, "pitch": 62, "duration": 18, "velocity": 94}, {"time": 2786, "pitch": 43, "duration": 3, "velocity": 82}, {"time": 2786, "pitch": 55, "duration": 7, "velocity": 71}, {"time": 2792, "pitch": 41, "duration": 3, "velocity": 94}, {"time": 2792, "pitch": 50, "duration": 21, "velocity": 53}, {"time": 2798, "pitch": 38, "duration": 3, "velocity": 82}, {"time": 2798, "pitch": 55, "duration": 3, "velocity": 52}, {"time": 2804, "pitch": 41, "duration": 3, "velocity": 89}, {"time": 2804, "pitch": 55, "duration": 3, "velocity": 94}, {"time": 2804, "pitch": 59, "duration": 9, "velocity": 105}, {"time": 2804, "pitch": 62, "duration": 9, "velocity": 100}, {"time": 2810, "pitch": 38, "duration": 2, "velocity": 89}, {"time": 2810, "pitch": 55, "duration": 3, "velocity": 58}, {"time": 2816, "pitch": 43, "duration": 3, "velocity": 67}, {"time": 2816, "pitch": 55, "duration": 8, "velocity": 71}, {"time": 2816, "pitch": 59, "duration": 8, "velocity": 89}, {"time": 2816, "pitch": 62, "duration": 8, "velocity": 89}, {"time": 2822, "pitch": 38, "duration": 2, "velocity": 84}, {"time": 2822, "pitch": 50, "duration": 9, "velocity": 52}, {"time": 2828, "pitch": 41, "duration": 2, "velocity": 94}, {"time": 2828, "pitch": 55, "duration": 3, "velocity": 84}, {"time": 2828, "pitch": 59, "duration": 21, "velocity": 97}, {"time": 2828, "pitch": 62, "duration": 20, "velocity": 92}, {"time": 2834, "pitch": 43, "duration": 2, "velocity": 87}, {"time": 2834, "pitch": 55, "duration": 8, "velocity": 78}, {"time": 2840, "pitch": 41, "duration": 2, "velocity": 94}, {"time": 2840, "pitch": 50, "duration": 22, "velocity": 58}, {"time": 2846, "pitch": 38, "duration": 2, "velocity": 92}, {"time": 2846, "pitch": 55, "duration": 4, "velocity": 48}, {"time": 2852, "pitch": 41, "duration": 3, "velocity": 94}, {"time": 2852, "pitch": 59, "duration": 10, "velocity": 94}, {"time": 2852, "pitch": 62, "duration": 10, "velocity": 92}, {"time": 2858, "pitch": 38, "duration": 4, "velocity": 92}, {"time": 2858, "pitch": 55, "duration": 4, "velocity": 47}, {"time": 2864, "pitch": 43, "duration": 4, "velocity": 94}, {"time": 2864, "pitch": 55, "duration": 3, "velocity": 69}, {"time": 2864, "pitch": 59, "duration": 3, "velocity": 84}, {"time": 2864, "pitch": 62, "duration": 3, "velocity": 84}, {"time": 2888, "pitch": 36, "duration": 45, "velocity": 85}, {"time": 2888, "pitch": 48, "duration": 46, "velocity": 92}, {"time": 2888, "pitch": 55, "duration": 45, "velocity": 80}, {"time": 2888, "pitch": 60, "duration": 46, "velocity": 97}, {"time": 2936, "pitch": 39, "duration": 6, "velocity": 109}, {"time": 2936, "pitch": 51, "duration": 2, "velocity": 90}, {"time": 2936, "pitch": 55, "duration": 2, "velocity": 102}, {"time": 2936, "pitch": 58, "duration": 3, "velocity": 87}, {"time": 2942, "pitch": 51, "duration": 2, "velocity": 74}, {"time": 2942, "pitch": 55, "duration": 2, "velocity": 94}, {"time": 2942, "pitch": 58, "duration": 2, "velocity": 79}, {"time": 2948, "pitch": 39, "duration": 2, "velocity": 99}, {"time": 2948, "pitch": 51, "duration": 2, "velocity": 87}, {"time": 2948, "pitch": 55, "duration": 1, "velocity": 97}, {"time": 2948, "pitch": 58, "duration": 2, "velocity": 90}, {"time": 2954, "pitch": 51, "duration": 2, "velocity": 96}, {"time": 2954, "pitch": 55, "duration": 2, "velocity": 100}, {"time": 2954, "pitch": 58, "duration": 2, "velocity": 96}, {"time": 2960, "pitch": 39, "duration": 5, "velocity": 102}, {"time": 2960, "pitch": 51, "duration": 2, "velocity": 93}, {"time": 2960, "pitch": 55, "duration": 2, "velocity": 97}, {"time": 2960, "pitch": 58, "duration": 2, "velocity": 90}, {"time": 2966, "pitch": 51, "duration": 2, "velocity": 85}, {"time": 2966, "pitch": 55, "duration": 1, "velocity": 100}, {"time": 2966, "pitch": 58, "duration": 2, "velocity": 85}, {"time": 2972, "pitch": 39, "duration": 2, "velocity": 102}, {"time": 2972, "pitch": 51, "duration": 1, "velocity": 96}, {"time": 2972, "pitch": 55, "duration": 1, "velocity": 100}, {"time": 2972, "pitch": 58, "duration": 2, "velocity": 96}, {"time": 2978, "pitch": 51, "duration": 2, "velocity": 90}, {"time": 2978, "pitch": 55, "duration": 2, "velocity": 100}, {"time": 2978, "pitch": 58, "duration": 2, "velocity": 85}, {"time": 2984, "pitch": 44, "duration": 3, "velocity": 85}, {"time": 2984, "pitch": 51, "duration": 2, "velocity": 79}, {"time": 2984, "pitch": 56, "duration": 2, "velocity": 72}, {"time": 2984, "pitch": 60, "duration": 2, "velocity": 87}, {"time": 2990, "pitch": 51, "duration": 2, "velocity": 85}, {"time": 2990, "pitch": 56, "duration": 2, "velocity": 68}, {"time": 2990, "pitch": 60, "duration": 2, "velocity": 73}, {"time": 2996, "pitch": 44, "duration": 2, "velocity": 99}, {"time": 2996, "pitch": 51, "duration": 2, "velocity": 90}, {"time": 2996, "pitch": 56, "duration": 2, "velocity": 87}, {"time": 2996, "pitch": 60, "duration": 2, "velocity": 92}, {"time": 3002, "pitch": 51, "duration": 2, "velocity": 82}, {"time": 3002, "pitch": 56, "duration": 2, "velocity": 68}, {"time": 3002, "pitch": 60, "duration": 2, "velocity": 78}, {"time": 3008, "pitch": 44, "duration": 5, "velocity": 99}, {"time": 3008, "pitch": 51, "duration": 2, "velocity": 99}, {"time": 3008, "pitch": 56, "duration": 2, "velocity": 87}, {"time": 3008, "pitch": 60, "duration": 2, "velocity": 87}, {"time": 3014, "pitch": 51, "duration": 2, "velocity": 90}, {"time": 3014, "pitch": 56, "duration": 1, "velocity": 87}, {"time": 3014, "pitch": 60, "duration": 2, "velocity": 80}, {"time": 3020, "pitch": 44, "duration": 2, "velocity": 105}, {"time": 3020, "pitch": 51, "duration": 2, "velocity": 82}, {"time": 3020, "pitch": 56, "duration": 1, "velocity": 77}, {"time": 3020, "pitch": 60, "duration": 2, "velocity": 80}, {"time": 3026, "pitch": 51, "duration": 2, "velocity": 93}, {"time": 3026, "pitch": 56, "duration": 2, "velocity": 93}, {"time": 3026, "pitch": 60, "duration": 2, "velocity": 89}, {"time": 3032, "pitch": 41, "duration": 2, "velocity": 92}, {"time": 3032, "pitch": 53, "duration": 2, "velocity": 76}, {"time": 3032, "pitch": 56, "duration": 2, "velocity": 93}, {"time": 3032, "pitch": 60, "duration": 2, "velocity": 92}, {"time": 3038, "pitch": 53, "duration": 2, "velocity": 82}, {"time": 3038, "pitch": 56, "duration": 2, "velocity": 102}, {"time": 3038, "pitch": 60, "duration": 2, "velocity": 87}, {"time": 3044, "pitch": 41, "duration": 4, "velocity": 102}, {"time": 3044, "pitch": 53, "duration": 2, "velocity": 94}, {"time": 3044, "pitch": 56, "duration": 2, "velocity": 102}, {"time": 3044, "pitch": 60, "duration": 2, "velocity": 94}, {"time": 3050, "pitch": 53, "duration": 2, "velocity": 87}, {"time": 3050, "pitch": 56, "duration": 2, "velocity": 102}, {"time": 3050, "pitch": 60, "duration": 2, "velocity": 87}, {"time": 3056, "pitch": 41, "duration": 2, "velocity": 97}, {"time": 3056, "pitch": 53, "duration": 2, "velocity": 92}, {"time": 3056, "pitch": 56, "duration": 1, "velocity": 99}, {"time": 3056, "pitch": 60, "duration": 2, "velocity": 87}, {"time": 3062, "pitch": 53, "duration": 2, "velocity": 89}, {"time": 3062, "pitch": 56, "duration": 2, "velocity": 102}, {"time": 3062, "pitch": 60, "duration": 2, "velocity": 80}, {"time": 3068, "pitch": 41, "duration": 3, "velocity": 97}, {"time": 3068, "pitch": 53, "duration": 2, "velocity": 92}, {"time": 3068, "pitch": 56, "duration": 2, "velocity": 99}, {"time": 3068, "pitch": 60, "duration": 2, "velocity": 97}, {"time": 3074, "pitch": 53, "duration": 2, "velocity": 102}, {"time": 3074, "pitch": 56, "duration": 2, "velocity": 109}, {"time": 3074, "pitch": 60, "duration": 2, "velocity": 102}, {"time": 3080, "pitch": 44, "duration": 1, "velocity": 116}, {"time": 3080, "pitch": 51, "duration": 2, "velocity": 74}, {"time": 3080, "pitch": 56, "duration": 2, "velocity": 59}, {"time": 3080, "pitch": 60, "duration": 3, "velocity": 92}, {"time": 3086, "pitch": 51, "duration": 2, "velocity": 85}, {"time": 3086, "pitch": 56, "duration": 2, "velocity": 82}, {"time": 3086, "pitch": 60, "duration": 2, "velocity": 94}, {"time": 3092, "pitch": 44, "duration": 2, "velocity": 112}, {"time": 3092, "pitch": 51, "duration": 2, "velocity": 99}, {"time": 3092, "pitch": 56, "duration": 2, "velocity": 99}, {"time": 3092, "pitch": 60, "duration": 2, "velocity": 92}, {"time": 3098, "pitch": 51, "duration": 2, "velocity": 87}, {"time": 3098, "pitch": 56, "duration": 2, "velocity": 77}, {"time": 3098, "pitch": 60, "duration": 2, "velocity": 87}, {"time": 3104, "pitch": 43, "duration": 3, "velocity": 105}, {"time": 3104, "pitch": 50, "duration": 3, "velocity": 92}, {"time": 3104, "pitch": 55, "duration": 3, "velocity": 102}, {"time": 3110, "pitch": 50, "duration": 2, "velocity": 87}, {"time": 3110, "pitch": 55, "duration": 2, "velocity": 94}, {"time": 3110, "pitch": 59, "duration": 3, "velocity": 80}, {"time": 3116, "pitch": 43, "duration": 2, "velocity": 111}, {"time": 3116, "pitch": 50, "duration": 2, "velocity": 102}, {"time": 3116, "pitch": 55, "duration": 1, "velocity": 102}, {"time": 3116, "pitch": 59, "duration": 2, "velocity": 100}, {"time": 3122, "pitch": 50, "duration": 2, "velocity": 105}, {"time": 3122, "pitch": 55, "duration": 2, "velocity": 108}, {"time": 3122, "pitch": 59, "duration": 3, "velocity": 105}, {"time": 3128, "pitch": 43, "duration": 3, "velocity": 108}, {"time": 3128, "pitch": 50, "duration": 2, "velocity": 76}, {"time": 3128, "pitch": 55, "duration": 2, "velocity": 73}, {"time": 3128, "pitch": 59, "duration": 2, "velocity": 84}, {"time": 3134, "pitch": 50, "duration": 2, "velocity": 94}, {"time": 3134, "pitch": 55, "duration": 1, "velocity": 97}, {"time": 3134, "pitch": 59, "duration": 2, "velocity": 92}, {"time": 3140, "pitch": 43, "duration": 2, "velocity": 111}, {"time": 3140, "pitch": 50, "duration": 2, "velocity": 92}, {"time": 3140, "pitch": 55, "duration": 1, "velocity": 97}, {"time": 3140, "pitch": 59, "duration": 2, "velocity": 97}, {"time": 3146, "pitch": 50, "duration": 1, "velocity": 102}, {"time": 3146, "pitch": 55, "duration": 1, "velocity": 102}, {"time": 3146, "pitch": 59, "duration": 2, "velocity": 102}, {"time": 3152, "pitch": 43, "duration": 1, "velocity": 120}, {"time": 3152, "pitch": 50, "duration": 1, "velocity": 94}, {"time": 3152, "pitch": 55, "duration": 1, "velocity": 102}, {"time": 3152, "pitch": 59, "duration": 1, "velocity": 105}, {"time": 3155, "pitch": 43, "duration": 2, "velocity": 108}, {"time": 3155, "pitch": 50, "duration": 2, "velocity": 102}, {"time": 3155, "pitch": 55, "duration": 2, "velocity": 111}, {"time": 3155, "pitch": 59, "duration": 2, "velocity": 114}, {"time": 3176, "pitch": 43, "duration": 9, "velocity": 111}, {"time": 3176, "pitch": 55, "duration": 6, "velocity": 92}, {"time": 3176, "pitch": 67, "duration": 7, "velocity": 94}, {"time": 3188, "pitch": 44, "duration": 10, "velocity": 116}, {"time": 3188, "pitch": 56, "duration": 9, "velocity": 99}, {"time": 3188, "pitch": 68, "duration": 9, "velocity": 90}, {"time": 3200, "pitch": 45, "duration": 9, "velocity": 114}, {"time": 3200, "pitch": 57, "duration": 9, "velocity": 100}, {"time": 3200, "pitch": 69, "duration": 9, "velocity": 108}, {"time": 3212, "pitch": 47, "duration": 10, "velocity": 117}, {"time": 3212, "pitch": 59, "duration": 10, "velocity": 102}, {"time": 3212, "pitch": 71, "duration": 10, "velocity": 102}, {"time": 3224, "pitch": 36, "duration": 2, "velocity": 94}, {"time": 3224, "pitch": 48, "duration": 39, "velocity": 100}, {"time": 3224, "pitch": 55, "duration": 10, "velocity": 87}, {"time": 3224, "pitch": 60, "duration": 9, "velocity": 97}, {"time": 3224, "pitch": 63, "duration": 10, "velocity": 90}, {"time": 3230, "pitch": 31, "duration": 3, "velocity": 85}, {"time": 3236, "pitch": 34, "duration": 3, "velocity": 99}, {"time": 3236, "pitch": 60, "duration": 7, "velocity": 92}, {"time": 3236, "pitch": 63, "duration": 7, "velocity": 93}, {"time": 3242, "pitch": 36, "duration": 2, "velocity": 85}, {"time": 3242, "pitch": 55, "duration": 2, "velocity": 33}, {"time": 3248, "pitch": 34, "duration": 3, "velocity": 105}, {"time": 3248, "pitch": 55, "duration": 1, "velocity": 66}, {"time": 3248, "pitch": 60, "duration": 2, "velocity": 94}, {"time": 3248, "pitch": 63, "duration": 2, "velocity": 79}, {"time": 3254, "pitch": 31, "duration": 3, "velocity": 89}, {"time": 3254, "pitch": 55, "duration": 2, "velocity": 37}, {"time": 3260, "pitch": 34, "duration": 3, "velocity": 105}, {"time": 3260, "pitch": 55, "duration": 2, "velocity": 97}, {"time": 3260, "pitch": 60, "duration": 6, "velocity": 111}, {"time": 3260, "pitch": 63, "duration": 7, "velocity": 102}, {"time": 3266, "pitch": 31, "duration": 3, "velocity": 97}, {"time": 3266, "pitch": 55, "duration": 2, "velocity": 80}, {"time": 3272, "pitch": 41, "duration": 14, "velocity": 94}, {"time": 3272, "pitch": 53, "duration": 10, "velocity": 82}, {"time": 3272, "pitch": 56, "duration": 10, "velocity": 90}, {"time": 3272, "pitch": 60, "duration": 10, "velocity": 94}, {"time": 3278, "pitch": 36, "duration": 2, "velocity": 84}, {"time": 3284, "pitch": 39, "duration": 2, "velocity": 99}, {"time": 3284, "pitch": 56, "duration": 8, "velocity": 102}, {"time": 3284, "pitch": 60, "duration": 8, "velocity": 100}, {"time": 3290, "pitch": 41, "duration": 2, "velocity": 87}, {"time": 3290, "pitch": 53, "duration": 4, "velocity": 49}, {"time": 3296, "pitch": 39, "duration": 2, "velocity": 105}, {"time": 3296, "pitch": 53, "duration": 1, "velocity": 40}, {"time": 3296, "pitch": 56, "duration": 10, "velocity": 79}, {"time": 3296, "pitch": 60, "duration": 9, "velocity": 89}, {"time": 3302, "pitch": 36, "duration": 2, "velocity": 92}, {"time": 3302, "pitch": 53, "duration": 4, "velocity": 52}, {"time": 3308, "pitch": 39, "duration": 3, "velocity": 99}, {"time": 3308, "pitch": 53, "duration": 3, "velocity": 94}, {"time": 3308, "pitch": 56, "duration": 8, "velocity": 105}, {"time": 3308, "pitch": 60, "duration": 10, "velocity": 105}, {"time": 3314, "pitch": 36, "duration": 3, "velocity": 100}, {"time": 3314, "pitch": 53, "duration": 4, "velocity": 73}, {"time": 3320, "pitch": 44, "duration": 4, "velocity": 91}, {"time": 3320, "pitch": 56, "duration": 6, "velocity": 79}, {"time": 3320, "pitch": 60, "duration": 6, "velocity": 89}, {"time": 3326, "pitch": 39, "duration": 3, "velocity": 87}, {"time": 3326, "pitch": 51, "duration": 16, "velocity": 32}, {"time": 3332, "pitch": 44, "duration": 3, "velocity": 72}, {"time": 3332, "pitch": 56, "duration": 17, "velocity": 99}, {"time": 3332, "pitch": 60, "duration": 16, "velocity": 100}, {"time": 3332, "pitch": 63, "duration": 20, "velocity": 96}, {"time": 3338, "pitch": 39, "duration": 2, "velocity": 63}, {"time": 3344, "pitch": 44, "duration": 3, "velocity": 90}, {"time": 3350, "pitch": 39, "duration": 2, "velocity": 87}, {"time": 3350, "pitch": 51, "duration": 15, "velocity": 41}, {"time": 3356, "pitch": 44, "duration": 3, "velocity": 96}, {"time": 3356, "pitch": 56, "duration": 3, "velocity": 99}, {"time": 3356, "pitch": 60, "duration": 10, "velocity": 100}, {"time": 3356, "pitch": 63, "duration": 11, "velocity": 102}, {"time": 3362, "pitch": 39, "duration": 3, "velocity": 96}, {"time": 3362, "pitch": 56, "duration": 4, "velocity": 70}, {"time": 3368, "pitch": 43, "duration": 3, "velocity": 89}, {"time": 3374, "pitch": 38, "duration": 3, "velocity": 84}, {"time": 3374, "pitch": 50, "duration": 8, "velocity": 47}, {"time": 3380, "pitch": 41, "duration": 2, "velocity": 100}, {"time": 3380, "pitch": 55, "duration": 9, "velocity": 97}, {"time": 3380, "pitch": 59, "duration": 9, "velocity": 105}, {"time": 3380, "pitch": 62, "duration": 10, "velocity": 102}, {"time": 3386, "pitch": 43, "duration": 2, "velocity": 97}, {"time": 3386, "pitch": 50, "duration": 20, "velocity": 66}, {"time": 3392, "pitch": 41, "duration": 2, "velocity": 108}, {"time": 3392, "pitch": 55, "duration": 2, "velocity": 64}, {"time": 3398, "pitch": 38, "duration": 2, "velocity": 94}, {"time": 3398, "pitch": 55, "duration": 3, "velocity": 82}, {"time": 3404, "pitch": 41, "duration": 3, "velocity": 105}, {"time": 3404, "pitch": 55, "duration": 7, "velocity": 100}, {"time": 3404, "pitch": 59, "duration": 7, "velocity": 105}, {"time": 3404, "pitch": 62, "duration": 8, "velocity": 105}, {"time": 3410, "pitch": 43, "duration": 3, "velocity": 94}, {"time": 3410, "pitch": 50, "duration": 3, "velocity": 78}, {"time": 3416, "pitch": 36, "duration": 3, "velocity": 94}, {"time": 3416, "pitch": 48, "duration": 44, "velocity": 97}, {"time": 3416, "pitch": 55, "duration": 4, "velocity": 82}, {"time": 3416, "pitch": 60, "duration": 9, "velocity": 94}, {"time": 3422, "pitch": 31, "duration": 3, "velocity": 53}, {"time": 3422, "pitch": 55, "duration": 4, "velocity": 51}, {"time": 3428, "pitch": 34, "duration": 3, "velocity": 85}, {"time": 3428, "pitch": 55, "duration": 4, "velocity": 80}, {"time": 3428, "pitch": 60, "duration": 8, "velocity": 111}, {"time": 3428, "pitch": 63, "duration": 9, "velocity": 99}, {"time": 3434, "pitch": 36, "duration": 2, "velocity": 87}, {"time": 3434, "pitch": 55, "duration": 3, "velocity": 51}, {"time": 3440, "pitch": 34, "duration": 3, "velocity": 96}, {"time": 3440, "pitch": 55, "duration": 1, "velocity": 49}, {"time": 3440, "pitch": 60, "duration": 9, "velocity": 92}, {"time": 3440, "pitch": 63, "duration": 9, "velocity": 72}, {"time": 3446, "pitch": 31, "duration": 3, "velocity": 80}, {"time": 3446, "pitch": 55, "duration": 4, "velocity": 48}, {"time": 3452, "pitch": 34, "duration": 3, "velocity": 99}, {"time": 3452, "pitch": 55, "duration": 2, "velocity": 100}, {"time": 3452, "pitch": 60, "duration": 6, "velocity": 111}, {"time": 3452, "pitch": 63, "duration": 7, "velocity": 99}, {"time": 3458, "pitch": 31, "duration": 2, "velocity": 94}, {"time": 3458, "pitch": 55, "duration": 3, "velocity": 76}, {"time": 3464, "pitch": 41, "duration": 3, "velocity": 82}, {"time": 3464, "pitch": 53, "duration": 8, "velocity": 60}, {"time": 3464, "pitch": 56, "duration": 8, "velocity": 82}, {"time": 3464, "pitch": 60, "duration": 8, "velocity": 80}, {"time": 3470, "pitch": 36, "duration": 2, "velocity": 94}, {"time": 3470, "pitch": 48, "duration": 12, "velocity": 44}, {"time": 3476, "pitch": 39, "duration": 3, "velocity": 99}, {"time": 3476, "pitch": 56, "duration": 19, "velocity": 105}, {"time": 3476, "pitch": 60, "duration": 19, "velocity": 102}, {"time": 3482, "pitch": 41, "duration": 3, "velocity": 82}, {"time": 3482, "pitch": 53, "duration": 7, "velocity": 37}, {"time": 3488, "pitch": 39, "duration": 3, "velocity": 102}, {"time": 3488, "pitch": 48, "duration": 18, "velocity": 52}, {"time": 3494, "pitch": 36, "duration": 2, "velocity": 89}, {"time": 3494, "pitch": 53, "duration": 3, "velocity": 67}, {"time": 3500, "pitch": 39, "duration": 3, "velocity": 90}, {"time": 3500, "pitch": 53, "duration": 3, "velocity": 89}, {"time": 3500, "pitch": 56, "duration": 10, "velocity": 102}, {"time": 3500, "pitch": 60, "duration": 9, "velocity": 100}, {"time": 3506, "pitch": 36, "duration": 2, "velocity": 87}, {"time": 3506, "pitch": 53, "duration": 5, "velocity": 82}, {"time": 3512, "pitch": 44, "duration": 3, "velocity": 59}, {"time": 3518, "pitch": 39, "duration": 3, "velocity": 70}, {"time": 3518, "pitch": 51, "duration": 39, "velocity": 54}, {"time": 3524, "pitch": 44, "duration": 3, "velocity": 90}, {"time": 3524, "pitch": 56, "duration": 14, "velocity": 93}, {"time": 3524, "pitch": 60, "duration": 14, "velocity": 92}, {"time": 3524, "pitch": 63, "duration": 15, "velocity": 87}, {"time": 3530, "pitch": 39, "duration": 2, "velocity": 82}, {"time": 3536, "pitch": 44, "duration": 2, "velocity": 93}, {"time": 3542, "pitch": 39, "duration": 2, "velocity": 79}, {"time": 3542, "pitch": 56, "duration": 4, "velocity": 68}, {"time": 3542, "pitch": 63, "duration": 1, "velocity": 1}, {"time": 3548, "pitch": 44, "duration": 3, "velocity": 85}, {"time": 3548, "pitch": 56, "duration": 3, "velocity": 96}, {"time": 3548, "pitch": 60, "duration": 8, "velocity": 100}, {"time": 3548, "pitch": 63, "duration": 9, "velocity": 96}, {"time": 3554, "pitch": 39, "duration": 2, "velocity": 99}, {"time": 3554, "pitch": 56, "duration": 3, "velocity": 48}, {"time": 3560, "pitch": 43, "duration": 2, "velocity": 92}, {"time": 3560, "pitch": 55, "duration": 9, "velocity": 87}, {"time": 3560, "pitch": 59, "duration": 10, "velocity": 102}, {"time": 3560, "pitch": 62, "duration": 9, "velocity": 46}, {"time": 3566, "pitch": 38, "duration": 2, "velocity": 92}, {"time": 3572, "pitch": 41, "duration": 2, "velocity": 94}, {"time": 3572, "pitch": 55, "duration": 4, "velocity": 87}, {"time": 3572, "pitch": 59, "duration": 20, "velocity": 105}, {"time": 3572, "pitch": 62, "duration": 18, "velocity": 94}, {"time": 3578, "pitch": 43, "duration": 3, "velocity": 82}, {"time": 3578, "pitch": 55, "duration": 7, "velocity": 71}, {"time": 3584, "pitch": 41, "duration": 3, "velocity": 94}, {"time": 3584, "pitch": 50, "duration": 21, "velocity": 53}, {"time": 3590, "pitch": 38, "duration": 3, "velocity": 82}, {"time": 3590, "pitch": 55, "duration": 3, "velocity": 52}, {"time": 3596, "pitch": 41, "duration": 3, "velocity": 89}, {"time": 3596, "pitch": 55, "duration": 3, "velocity": 94}, {"time": 3596, "pitch": 59, "duration": 9, "velocity": 105}, {"time": 3596, "pitch": 62, "duration": 9, "velocity": 100}, {"time": 3602, "pitch": 38, "duration": 2, "velocity": 89}, {"time": 3602, "pitch": 55, "duration": 3, "velocity": 58}, {"time": 3608, "pitch": 36, "duration": 2, "velocity": 94}, {"time": 3608, "pitch": 48, "duration": 39, "velocity": 100}, {"time": 3608, "pitch": 55, "duration": 10, "velocity": 87}, {"time": 3608, "pitch": 60, "duration": 9, "velocity": 97}, {"time": 3608, "pitch": 63, "duration": 10, "velocity": 90}, {"time": 3614, "pitch": 31, "duration": 3, "velocity": 85}, {"time": 3620, "pitch": 34, "duration": 3, "velocity": 99}, {"time": 3620, "pitch": 60, "duration": 7, "velocity": 92}, {"time": 3620, "pitch": 63, "duration": 7, "velocity": 93}, {"time": 3626, "pitch": 36, "duration": 2, "velocity": 85}, {"time": 3626, "pitch": 55, "duration": 2, "velocity": 33}, {"time": 3632, "pitch": 34, "duration": 3, "velocity": 105}, {"time": 3632, "pitch": 55, "duration": 1, "velocity": 66}, {"time": 3632, "pitch": 60, "duration": 2, "velocity": 94}, {"time": 3632, "pitch": 63, "duration": 2, "velocity": 79}, {"time": 3638, "pitch": 31, "duration": 3, "velocity": 89}, {"time": 3638, "pitch": 55, "duration": 2, "velocity": 37}, {"time": 3644, "pitch": 34, "duration": 3, "velocity": 105}, {"time": 3644, "pitch": 55, "duration": 2, "velocity": 97}, {"time": 3644, "pitch": 60, "duration": 6, "velocity": 111}, {"time": 3644, "pitch": 63, "duration": 7, "velocity": 102}, {"time": 3650, "pitch": 31, "duration": 3, "velocity": 97}, {"time": 3650, "pitch": 55, "duration": 2, "velocity": 80}, {"time": 3656, "pitch": 41, "duration": 14, "velocity": 94}, {"time": 3656, "pitch": 53, "duration": 10, "velocity": 82}, {"time": 3656, "pitch": 56, "duration": 10, "velocity": 90}, {"time": 3656, "pitch": 60, "duration": 10, "velocity": 94}, {"time": 3662, "pitch": 36, "duration": 2, "velocity": 84}, {"time": 3668, "pitch": 39, "duration": 2, "velocity": 99}, {"time": 3668, "pitch": 56, "duration": 8, "velocity": 102}, {"time": 3668, "pitch": 60, "duration": 8, "velocity": 100}, {"time": 3674, "pitch": 41, "duration": 2, "velocity": 87}, {"time": 3674, "pitch": 53, "duration": 4, "velocity": 49}, {"time": 3680, "pitch": 39, "duration": 2, "velocity": 105}, {"time": 3680, "pitch": 53, "duration": 1, "velocity": 40}, {"time": 3680, "pitch": 56, "duration": 10, "velocity": 79}, {"time": 3680, "pitch": 60, "duration": 9, "velocity": 89}, {"time": 3686, "pitch": 36, "duration": 2, "velocity": 92}, {"time": 3686, "pitch": 53, "duration": 4, "velocity": 52}, {"time": 3692, "pitch": 39, "duration": 3, "velocity": 99}, {"time": 3692, "pitch": 53, "duration": 3, "velocity": 94}, {"time": 3692, "pitch": 56, "duration": 8, "velocity": 105}, {"time": 3692, "pitch": 60, "duration": 10, "velocity": 105}, {"time": 3698, "pitch": 36, "duration": 3, "velocity": 100}, {"time": 3698, "pitch": 53, "duration": 4, "velocity": 73}, {"time": 3704, "pitch": 44, "duration": 4, "velocity": 91}, {"time": 3704, "pitch": 56, "duration": 6, "velocity": 79}, {"time": 3704, "pitch": 60, "duration": 6, "velocity": 89}, {"time": 3710, "pitch": 39, "duration": 3, "velocity": 87}, {"time": 3710, "pitch": 51, "duration": 16, "velocity": 32}, {"time": 3716, "pitch": 44, "duration": 3, "velocity": 72}, {"time": 3716, "pitch": 56, "duration": 17, "velocity": 99}, {"time": 3716, "pitch": 60, "duration": 16, "velocity": 100}, {"time": 3716, "pitch": 63, "duration": 20, "velocity": 96}, {"time": 3722, "pitch": 39, "duration": 2, "velocity": 63}, {"time": 3728, "pitch": 44, "duration": 3, "velocity": 90}, {"time": 3734, "pitch": 39, "duration": 2, "velocity": 87}, {"time": 3734, "pitch": 51, "duration": 15, "velocity": 41}, {"time": 3740, "pitch": 44, "duration": 3, "velocity": 96}, {"time": 3740, "pitch": 56, "duration": 3, "velocity": 99}, {"time": 3740, "pitch": 60, "duration": 10, "velocity": 100}, {"time": 3740, "pitch": 63, "duration": 11, "velocity": 102}, {"time": 3746, "pitch": 39, "duration": 3, "velocity": 96}, {"time": 3746, "pitch": 56, "duration": 4, "velocity": 70}, {"time": 3752, "pitch": 43, "duration": 3, "velocity": 89}, {"time": 3758, "pitch": 38, "duration": 3, "velocity": 84}, {"time": 3758, "pitch": 50, "duration": 8, "velocity": 47}, {"time": 3764, "pitch": 41, "duration": 2, "velocity": 100}, {"time": 3764, "pitch": 55, "duration": 9, "velocity": 97}, {"time": 3764, "pitch": 59, "duration": 9, "velocity": 105}, {"time": 3764, "pitch": 62, "duration": 10, "velocity": 102}, {"time": 3770, "pitch": 43, "duration": 2, "velocity": 97}, {"time": 3770, "pitch": 50, "duration": 20, "velocity": 66}, {"time": 3776, "pitch": 41, "duration": 2, "velocity": 108}, {"time": 3776, "pitch": 55, "duration": 2, "velocity": 64}, {"time": 3782, "pitch": 38, "duration": 2, "velocity": 94}, {"time": 3782, "pitch": 55, "duration": 3, "velocity": 82}, {"time": 3788, "pitch": 41, "duration": 3, "velocity": 105}, {"time": 3788, "pitch": 55, "duration": 7, "velocity": 100}, {"time": 3788, "pitch": 59, "duration": 7, "velocity": 105}, {"time": 3788, "pitch": 62, "duration": 8, "velocity": 105}, {"time": 3794, "pitch": 43, "duration": 3, "velocity": 94}, {"time": 3794, "pitch": 50, "duration": 3, "velocity": 78}, {"time": 3800, "pitch": 36, "duration": 3, "velocity": 94}, {"time": 3800, "pitch": 48, "duration": 44, "velocity": 97}, {"time": 3800, "pitch": 55, "duration": 4, "velocity": 82}, {"time": 3800, "pitch": 60, "duration": 9, "velocity": 94}, {"time": 3806, "pitch": 31, "duration": 3, "velocity": 53}, {"time": 3806, "pitch": 55, "duration": 4, "velocity": 51}, {"time": 3812, "pitch": 34, "duration": 3, "velocity": 85}, {"time": 3812, "pitch": 55, "duration": 4, "velocity": 80}, {"time": 3812, "pitch": 60, "duration": 8, "velocity": 111}, {"time": 3812, "pitch": 63, "duration": 9, "velocity": 99}, {"time": 3818, "pitch": 36, "duration": 2, "velocity": 87}, {"time": 3818, "pitch": 55, "duration": 3, "velocity": 51}, {"time": 3824, "pitch": 34, "duration": 3, "velocity": 96}, {"time": 3824, "pitch": 55, "duration": 1, "velocity": 49}, {"time": 3824, "pitch": 60, "duration": 9, "velocity": 92}, {"time": 3824, "pitch": 63, "duration": 9, "velocity": 72}, {"time": 3830, "pitch": 31, "duration": 3, "velocity": 80}, {"time": 3830, "pitch": 55, "duration": 4, "velocity": 48}, {"time": 3836, "pitch": 34, "duration": 3, "velocity": 99}, {"time": 3836, "pitch": 55, "duration": 2, "velocity": 100}, {"time": 3836, "pitch": 60, "duration": 6, "velocity": 111}, {"time": 3836, "pitch": 63, "duration": 7, "velocity": 99}, {"time": 3842, "pitch": 31, "duration": 2, "velocity": 94}, {"time": 3842, "pitch": 55, "duration": 3, "velocity": 76}, {"time": 3848, "pitch": 41, "duration": 3, "velocity": 82}, {"time": 3848, "pitch": 53, "duration": 8, "velocity": 60}, {"time": 3848, "pitch": 56, "duration": 8, "velocity": 82}, {"time": 3848, "pitch": 60, "duration": 8, "velocity": 80}, {"time": 3854, "pitch": 36, "duration": 2, "velocity": 94}, {"time": 3854, "pitch": 48, "duration": 12, "velocity": 44}, {"time": 3860, "pitch": 39, "duration": 3, "velocity": 99}, {"time": 3860, "pitch": 56, "duration": 19, "velocity": 105}, {"time": 3860, "pitch": 60, "duration": 19, "velocity": 102}, {"time": 3866, "pitch": 41, "duration": 3, "velocity": 82}, {"time": 3866, "pitch": 53, "duration": 7, "velocity": 37}, {"time": 3872, "pitch": 39, "duration": 3, "velocity": 102}, {"time": 3872, "pitch": 48, "duration": 18, "velocity": 52}, {"time": 3878, "pitch": 36, "duration": 2, "velocity": 89}, {"time": 3878, "pitch": 53, "duration": 3, "velocity": 67}, {"time": 3884, "pitch": 39, "duration": 3, "velocity": 90}, {"time": 3884, "pitch": 53, "duration": 3, "velocity": 89}, {"time": 3884, "pitch": 56, "duration": 10, "velocity": 102}, {"time": 3884, "pitch": 60, "duration": 9, "velocity": 100}, {"time": 3890, "pitch": 36, "duration": 2, "velocity": 87}, {"time": 3890, "pitch": 53, "duration": 5, "velocity": 82}, {"time": 3896, "pitch": 44, "duration": 3, "velocity": 59}, {"time": 3902, "pitch": 39, "duration": 3, "velocity": 70}, {"time": 3902, "pitch": 51, "duration": 39, "velocity": 54}, {"time": 3908, "pitch": 44, "duration": 3, "velocity": 90}, {"time": 3908, "pitch": 56, "duration": 14, "velocity": 93}, {"time": 3908, "pitch": 60, "duration": 14, "velocity": 92}, {"time": 3908, "pitch": 63, "duration": 15, "velocity": 87}, {"time": 3914, "pitch": 39, "duration": 2, "velocity": 82}, {"time": 3920, "pitch": 44, "duration": 2, "velocity": 93}, {"time": 3926, "pitch": 39, "duration": 2, "velocity": 79}, {"time": 3926, "pitch": 56, "duration": 4, "velocity": 68}, {"time": 3926, "pitch": 63, "duration": 1, "velocity": 1}, {"time": 3932, "pitch": 44, "duration": 3, "velocity": 85}, {"time": 3932, "pitch": 56, "duration": 3, "velocity": 96}, {"time": 3932, "pitch": 60, "duration": 8, "velocity": 100}, {"time": 3932, "pitch": 63, "duration": 9, "velocity": 96}, {"time": 3938, "pitch": 39, "duration": 2, "velocity": 99}, {"time": 3938, "pitch": 56, "duration": 3, "velocity": 48}, {"time": 3944, "pitch": 43, "duration": 2, "velocity": 92}, {"time": 3944, "pitch": 55, "duration": 9, "velocity": 87}, {"time": 3944, "pitch": 59, "duration": 10, "velocity": 102}, {"time": 3944, "pitch": 62, "duration": 9, "velocity": 46}, {"time": 3950, "pitch": 38, "duration": 2, "velocity": 92}, {"time": 3956, "pitch": 41, "duration": 2, "velocity": 94}, {"time": 3956, "pitch": 55, "duration": 4, "velocity": 87}, {"time": 3956, "pitch": 59, "duration": 20, "velocity": 105}, {"time": 3956, "pitch": 62, "duration": 18, "velocity": 94}, {"time": 3962, "pitch": 43, "duration": 3, "velocity": 82}, {"time": 3962, "pitch": 55, "duration": 7, "velocity": 71}, {"time": 3968, "pitch": 41, "duration": 3, "velocity": 94}, {"time": 3968, "pitch": 50, "duration": 21, "velocity": 53}, {"time": 3974, "pitch": 38, "duration": 3, "velocity": 82}, {"time": 3974, "pitch": 55, "duration": 3, "velocity": 52}, {"time": 3980, "pitch": 41, "duration": 3, "velocity": 89}, {"time": 3980, "pitch": 55, "duration": 3, "velocity": 94}, {"time": 3980, "pitch": 59, "duration": 9, "velocity": 105}, {"time": 3980, "pitch": 62, "duration": 9, "velocity": 100}, {"time": 3986, "pitch": 38, "duration": 2, "velocity": 89}, {"time": 3986, "pitch": 55, "duration": 3, "velocity": 58}, {"time": 3992, "pitch": 43, "duration": 3, "velocity": 67}, {"time": 3992, "pitch": 55, "duration": 8, "velocity": 71}, {"time": 3992, "pitch": 59, "duration": 8, "velocity": 89}, {"time": 3992, "pitch": 62, "duration": 8, "velocity": 89}, {"time": 3998, "pitch": 38, "duration": 2, "velocity": 84}, {"time": 3998, "pitch": 50, "duration": 9, "velocity": 52}, {"time": 4004, "pitch": 41, "duration": 2, "velocity": 94}, {"time": 4004, "pitch": 55, "duration": 3, "velocity": 84}, {"time": 4004, "pitch": 59, "duration": 21, "velocity": 97}, {"time": 4004, "pitch": 62, "duration": 20, "velocity": 92}, {"time": 4010, "pitch": 43, "duration": 2, "velocity": 87}, {"time": 4010, "pitch": 55, "duration": 8, "velocity": 78}, {"time": 4016, "pitch": 41, "duration": 2, "velocity": 94}, {"time": 4016, "pitch": 50, "duration": 22, "velocity": 58}, {"time": 4022, "pitch": 38, "duration": 2, "velocity": 92}, {"time": 4022, "pitch": 55, "duration": 4, "velocity": 48}, {"time": 4028, "pitch": 41, "duration": 3, "velocity": 94}, {"time": 4028, "pitch": 59, "duration": 10, "velocity": 94}, {"time": 4028, "pitch": 62, "duration": 10, "velocity": 92}, {"time": 4034, "pitch": 38, "duration": 4, "velocity": 92}, {"time": 4034, "pitch": 55, "duration": 4, "velocity": 47}, {"time": 4040, "pitch": 43, "duration": 4, "velocity": 94}, {"time": 4040, "pitch": 55, "duration": 3, "velocity": 69}, {"time": 4040, "pitch": 59, "duration": 3, "velocity": 84}, {"time": 4040, "pitch": 62, "duration": 3, "velocity": 84}, {"time": 4088, "pitch": 36, "duration": 43, "velocity": 80}, {"time": 4088, "pitch": 60, "duration": 7, "velocity": 75}, {"time": 4088, "pitch": 63, "duration": 7, "velocity": 73}, {"time": 4088, "pitch": 48, "duration": 3, "velocity": 76}, {"time": 4094, "pitch": 43, "duration": 2, "velocity": 92}, {"time": 4100, "pitch": 60, "duration": 4, "velocity": 76}, {"time": 4100, "pitch": 63, "duration": 5, "velocity": 83}, {"time": 4100, "pitch": 67, "duration": 4, "velocity": 76}, {"time": 4100, "pitch": 46, "duration": 3, "velocity": 102}, {"time": 4106, "pitch": 48, "duration": 2, "velocity": 76}, {"time": 4112, "pitch": 60, "duration": 3, "velocity": 76}, {"time": 4112, "pitch": 63, "duration": 2, "velocity": 77}, {"time": 4112, "pitch": 46, "duration": 2, "velocity": 99}, {"time": 4118, "pitch": 48, "duration": 2, "velocity": 80}, {"time": 4124, "pitch": 60, "duration": 3, "velocity": 77}, {"time": 4124, "pitch": 63, "duration": 5, "velocity": 85}, {"time": 4124, "pitch": 67, "duration": 6, "velocity": 77}, {"time": 4124, "pitch": 46, "duration": 3, "velocity": 87}, {"time": 4130, "pitch": 55, "duration": 3, "velocity": 75}, {"time": 4130, "pitch": 43, "duration": 3, "velocity": 100}, {"time": 4136, "pitch": 36, "duration": 45, "velocity": 80}, {"time": 4136, "pitch": 60, "duration": 8, "velocity": 77}, {"time": 4136, "pitch": 63, "duration": 8, "velocity": 81}, {"time": 4136, "pitch": 67, "duration": 8, "velocity": 76}, {"time": 4136, "pitch": 48, "duration": 2, "velocity": 84}, {"time": 4142, "pitch": 43, "duration": 3, "velocity": 84}, {"time": 4148, "pitch": 60, "duration": 3, "velocity": 77}, {"time": 4148, "pitch": 63, "duration": 6, "velocity": 82}, {"time": 4148, "pitch": 67, "duration": 7, "velocity": 78}, {"time": 4148, "pitch": 46, "duration": 3, "velocity": 82}, {"time": 4154, "pitch": 60, "duration": 6, "velocity": 77}, {"time": 4154, "pitch": 48, "duration": 2, "velocity": 84}, {"time": 4160, "pitch": 55, "duration": 20, "velocity": 71}, {"time": 4160, "pitch": 46, "duration": 3, "velocity": 102}, {"time": 4166, "pitch": 60, "duration": 2, "velocity": 72}, {"time": 4166, "pitch": 43, "duration": 3, "velocity": 97}, {"time": 4172, "pitch": 60, "duration": 2, "velocity": 73}, {"time": 4172, "pitch": 63, "duration": 6, "velocity": 78}, {"time": 4172, "pitch": 67, "duration": 7, "velocity": 75}, {"time": 4172, "pitch": 41, "duration": 3, "velocity": 94}, {"time": 4178, "pitch": 60, "duration": 3, "velocity": 75}, {"time": 4178, "pitch": 43, "duration": 3, "velocity": 94}, {"time": 4184, "pitch": 41, "duration": 24, "velocity": 78}, {"time": 4184, "pitch": 60, "duration": 8, "velocity": 76}, {"time": 4184, "pitch": 65, "duration": 8, "velocity": 76}, {"time": 4184, "pitch": 53, "duration": 5, "velocity": 80}, {"time": 4190, "pitch": 48, "duration": 2, "velocity": 94}, {"time": 4196, "pitch": 65, "duration": 6, "velocity": 83}, {"time": 4196, "pitch": 68, "duration": 7, "velocity": 81}, {"time": 4196, "pitch": 51, "duration": 3, "velocity": 102}, {"time": 4202, "pitch": 60, "duration": 7, "velocity": 80}, {"time": 4202, "pitch": 53, "duration": 3, "velocity": 89}, {"time": 4208, "pitch": 65, "duration": 7, "velocity": 72}, {"time": 4208, "pitch": 51, "duration": 3, "velocity": 96}, {"time": 4214, "pitch": 60, "duration": 4, "velocity": 76}, {"time": 4214, "pitch": 53, "duration": 2, "velocity": 92}, {"time": 4220, "pitch": 41, "duration": 8, "velocity": 81}, {"time": 4220, "pitch": 60, "duration": 2, "velocity": 77}, {"time": 4220, "pitch": 65, "duration": 7, "velocity": 82}, {"time": 4220, "pitch": 68, "duration": 8, "velocity": 78}, {"time": 4220, "pitch": 51, "duration": 2, "velocity": 102}, {"time": 4226, "pitch": 60, "duration": 4, "velocity": 80}, {"time": 4226, "pitch": 48, "duration": 3, "velocity": 92}, {"time": 4232, "pitch": 41, "duration": 20, "velocity": 77}, {"time": 4232, "pitch": 60, "duration": 9, "velocity": 77}, {"time": 4232, "pitch": 65, "duration": 9, "velocity": 77}, {"time": 4232, "pitch": 53, "duration": 2, "velocity": 100}, {"time": 4238, "pitch": 48, "duration": 2, "velocity": 87}, {"time": 4244, "pitch": 60, "duration": 1, "velocity": 70}, {"time": 4244, "pitch": 65, "duration": 7, "velocity": 81}, {"time": 4244, "pitch": 68, "duration": 8, "velocity": 77}, {"time": 4244, "pitch": 51, "duration": 2, "velocity": 102}, {"time": 4250, "pitch": 60, "duration": 3, "velocity": 76}, {"time": 4250, "pitch": 53, "duration": 2, "velocity": 87}, {"time": 4256, "pitch": 41, "duration": 22, "velocity": 73}, {"time": 4256, "pitch": 60, "duration": 2, "velocity": 76}, {"time": 4256, "pitch": 65, "duration": 9, "velocity": 76}, {"time": 4256, "pitch": 51, "duration": 3, "velocity": 99}, {"time": 4262, "pitch": 60, "duration": 3, "velocity": 67}, {"time": 4262, "pitch": 48, "duration": 3, "velocity": 80}, {"time": 4268, "pitch": 60, "duration": 1, "velocity": 77}, {"time": 4268, "pitch": 65, "duration": 9, "velocity": 83}, {"time": 4268, "pitch": 68, "duration": 9, "velocity": 81}, {"time": 4268, "pitch": 51, "duration": 3, "velocity": 102}, {"time": 4274, "pitch": 60, "duration": 3, "velocity": 78}, {"time": 4274, "pitch": 53, "duration": 3, "velocity": 89}, {"time": 4280, "pitch": 48, "duration": 8, "velocity": 105}, {"time": 4280, "pitch": 55, "duration": 8, "velocity": 94}, {"time": 4280, "pitch": 60, "duration": 8, "velocity": 97}, {"time": 4280, "pitch": 63, "duration": 8, "velocity": 87}, {"time": 4280, "pitch": 67, "duration": 8, "velocity": 82}, {"time": 4310, "pitch": 48, "duration": 3, "velocity": 111}, {"time": 4310, "pitch": 55, "duration": 4, "velocity": 89}, {"time": 4310, "pitch": 60, "duration": 4, "velocity": 94}, {"time": 4310, "pitch": 63, "duration": 4, "velocity": 96}, {"time": 4310, "pitch": 67, "duration": 4, "velocity": 84}, {"time": 4316, "pitch": 48, "duration": 4, "velocity": 114}, {"time": 4316, "pitch": 55, "duration": 5, "velocity": 94}, {"time": 4316, "pitch": 60, "duration": 4, "velocity": 100}, {"time": 4316, "pitch": 63, "duration": 4, "velocity": 102}, {"time": 4316, "pitch": 67, "duration": 4, "velocity": 94}, {"time": 4324, "pitch": 53, "duration": 16, "velocity": 85}, {"time": 4325, "pitch": 56, "duration": 15, "velocity": 95}, {"time": 4327, "pitch": 41, "duration": 16, "velocity": 99}, {"time": 4327, "pitch": 60, "duration": 14, "velocity": 97}, {"time": 4327, "pitch": 65, "duration": 16, "velocity": 94}, {"time": 4349, "pitch": 55, "duration": 10, "velocity": 82}, {"time": 4350, "pitch": 59, "duration": 12, "velocity": 91}, {"time": 4351, "pitch": 62, "duration": 11, "velocity": 90}, {"time": 4351, "pitch": 43, "duration": 17, "velocity": 97}, {"time": 4352, "pitch": 67, "duration": 8, "velocity": 89}, {"time": 4356, "pitch": 50, "duration": 11, "velocity": 87}, {"time": 4361, "pitch": 55, "duration": 10, "velocity": 98}, {"time": 4376, "pitch": 55, "duration": 16, "velocity": 84}, {"time": 4377, "pitch": 60, "duration": 16, "velocity": 93}, {"time": 4377, "pitch": 36, "duration": 10, "velocity": 98}, {"time": 4379, "pitch": 63, "duration": 15, "velocity": 89}, {"time": 4394, "pitch": 48, "duration": 40, "velocity": 70}, {"time": 4399, "pitch": 55, "duration": 34, "velocity": 78}, {"time": 4404, "pitch": 60, "duration": 29, "velocity": 81}, {"time": 4409, "pitch": 67, "duration": 24, "velocity": 81}, {"time": 4414, "pitch": 72, "duration": 19, "velocity": 88}], "annotations": [{"time": 1067, "annotation": {"number": 64, "value": 127}, "group": "control_change"}, {"time": 1075, "annotation": {"number": 64, "value": 0}, "group": "control_change"}, {"time": 2387, "annotation": {"number": 64, "value": 127}, "group": "control_change"}, {"time": 2395, "annotation": {"number": 64, "value": 0}, "group": "control_change"}, {"time": 3179, "annotation": {"number": 64, "value": 127}, "group": "control_change"}, {"time": 3187, "annotation": {"number": 64, "value": 0}, "group": "control_change"}, {"time": 4041, "annotation": {"number": 64, "value": 127}, "group": "control_change"}, {"time": 4076, "annotation": {"number": 64, "value": 127}, "group": "control_change"}, {"time": 4084, "annotation": {"number": 64, "value": 0}, "group": "control_change"}]}]}