{"metadata": {"schema_version": "0.2", "title": "None", "source_filename": "135.mid", "source_format": "midi"}, "resolution": 12, "tempos": [{"time": 0, "qpm": 78.00017940041262}, {"time": 2496, "qpm": 77.000077000077}, {"time": 2629, "qpm": 78.00017940041262}, {"time": 4335, "qpm": 77.000077000077}, {"time": 4338, "qpm": 74.000074000074}, {"time": 4343, "qpm": 71.00011951686785}], "time_signatures": [{"time": 0, "numerator": 1, "denominator": 4}], "tracks": [{"program": 0, "is_drum": false, "name": "MELODY", "notes": [{"time": 487, "pitch": 62, "duration": 3, "velocity": 94}, {"time": 490, "pitch": 62, "duration": 3, "velocity": 92}, {"time": 493, "pitch": 62, "duration": 3, "velocity": 92}, {"time": 496, "pitch": 62, "duration": 12, "velocity": 102}, {"time": 508, "pitch": 59, "duration": 3, "velocity": 100}, {"time": 511, "pitch": 64, "duration": 6, "velocity": 102}, {"time": 517, "pitch": 62, "duration": 6, "velocity": 105}, {"time": 523, "pitch": 59, "duration": 3, "velocity": 108}, {"time": 526, "pitch": 57, "duration": 3, "velocity": 102}, {"time": 529, "pitch": 55, "duration": 6, "velocity": 102}, {"time": 535, "pitch": 57, "duration": 30, "velocity": 117}, {"time": 565, "pitch": 62, "duration": 6, "velocity": 108}, {"time": 571, "pitch": 64, "duration": 6, "velocity": 105}, {"time": 577, "pitch": 66, "duration": 6, "velocity": 105}, {"time": 583, "pitch": 67, "duration": 6, "velocity": 102}, {"time": 589, "pitch": 67, "duration": 3, "velocity": 94}, {"time": 592, "pitch": 67, "duration": 12, "velocity": 108}, {"time": 604, "pitch": 67, "duration": 3, "velocity": 92}, {"time": 607, "pitch": 69, "duration": 6, "velocity": 105}, {"time": 613, "pitch": 67, "duration": 6, "velocity": 108}, {"time": 619, "pitch": 66, "duration": 6, "velocity": 112}, {"time": 625, "pitch": 59, "duration": 6, "velocity": 108}, {"time": 631, "pitch": 64, "duration": 6, "velocity": 102}, {"time": 637, "pitch": 62, "duration": 24, "velocity": 105}, {"time": 661, "pitch": 62, "duration": 6, "velocity": 102}, {"time": 667, "pitch": 67, "duration": 6, "velocity": 100}, {"time": 673, "pitch": 62, "duration": 6, "velocity": 102}, {"time": 679, "pitch": 64, "duration": 9, "velocity": 105}, {"time": 688, "pitch": 67, "duration": 7, "velocity": 108}, {"time": 694, "pitch": 64, "duration": 6, "velocity": 105}, {"time": 700, "pitch": 64, "duration": 3, "velocity": 92}, {"time": 703, "pitch": 62, "duration": 6, "velocity": 100}, {"time": 709, "pitch": 62, "duration": 3, "velocity": 100}, {"time": 712, "pitch": 69, "duration": 6, "velocity": 100}, {"time": 718, "pitch": 62, "duration": 3, "velocity": 87}, {"time": 721, "pitch": 62, "duration": 3, "velocity": 100}, {"time": 724, "pitch": 59, "duration": 3, "velocity": 100}, {"time": 727, "pitch": 62, "duration": 6, "velocity": 69}, {"time": 733, "pitch": 62, "duration": 3, "velocity": 89}, {"time": 736, "pitch": 62, "duration": 3, "velocity": 92}, {"time": 739, "pitch": 69, "duration": 6, "velocity": 100}, {"time": 745, "pitch": 66, "duration": 3, "velocity": 102}, {"time": 748, "pitch": 67, "duration": 15, "velocity": 105}, {"time": 763, "pitch": 59, "duration": 3, "velocity": 100}, {"time": 766, "pitch": 57, "duration": 3, "velocity": 108}, {"time": 769, "pitch": 55, "duration": 3, "velocity": 100}, {"time": 772, "pitch": 59, "duration": 6, "velocity": 108}, {"time": 778, "pitch": 57, "duration": 18, "velocity": 97}, {"time": 796, "pitch": 55, "duration": 3, "velocity": 92}, {"time": 799, "pitch": 59, "duration": 6, "velocity": 97}, {"time": 805, "pitch": 57, "duration": 6, "velocity": 102}, {"time": 811, "pitch": 57, "duration": 6, "velocity": 111}, {"time": 817, "pitch": 55, "duration": 6, "velocity": 102}, {"time": 823, "pitch": 59, "duration": 18, "velocity": 92}, {"time": 841, "pitch": 57, "duration": 6, "velocity": 108}, {"time": 847, "pitch": 57, "duration": 24, "velocity": 102}, {"time": 871, "pitch": 62, "duration": 3, "velocity": 94}, {"time": 874, "pitch": 62, "duration": 3, "velocity": 92}, {"time": 877, "pitch": 62, "duration": 3, "velocity": 92}, {"time": 880, "pitch": 62, "duration": 12, "velocity": 102}, {"time": 892, "pitch": 59, "duration": 3, "velocity": 100}, {"time": 895, "pitch": 64, "duration": 6, "velocity": 102}, {"time": 901, "pitch": 62, "duration": 6, "velocity": 105}, {"time": 907, "pitch": 59, "duration": 3, "velocity": 108}, {"time": 910, "pitch": 57, "duration": 3, "velocity": 102}, {"time": 913, "pitch": 55, "duration": 6, "velocity": 102}, {"time": 919, "pitch": 57, "duration": 30, "velocity": 117}, {"time": 949, "pitch": 62, "duration": 6, "velocity": 108}, {"time": 955, "pitch": 64, "duration": 6, "velocity": 105}, {"time": 961, "pitch": 66, "duration": 6, "velocity": 105}, {"time": 967, "pitch": 67, "duration": 6, "velocity": 102}, {"time": 973, "pitch": 67, "duration": 3, "velocity": 94}, {"time": 976, "pitch": 67, "duration": 12, "velocity": 108}, {"time": 988, "pitch": 67, "duration": 3, "velocity": 92}, {"time": 991, "pitch": 69, "duration": 6, "velocity": 105}, {"time": 997, "pitch": 67, "duration": 6, "velocity": 108}, {"time": 1003, "pitch": 66, "duration": 6, "velocity": 112}, {"time": 1009, "pitch": 59, "duration": 6, "velocity": 108}, {"time": 1015, "pitch": 64, "duration": 6, "velocity": 102}, {"time": 1021, "pitch": 62, "duration": 24, "velocity": 105}, {"time": 1045, "pitch": 62, "duration": 6, "velocity": 102}, {"time": 1051, "pitch": 67, "duration": 6, "velocity": 100}, {"time": 1057, "pitch": 62, "duration": 6, "velocity": 102}, {"time": 1063, "pitch": 64, "duration": 9, "velocity": 105}, {"time": 1072, "pitch": 67, "duration": 7, "velocity": 108}, {"time": 1078, "pitch": 64, "duration": 6, "velocity": 105}, {"time": 1084, "pitch": 64, "duration": 3, "velocity": 92}, {"time": 1087, "pitch": 62, "duration": 6, "velocity": 100}, {"time": 1093, "pitch": 62, "duration": 3, "velocity": 100}, {"time": 1096, "pitch": 69, "duration": 6, "velocity": 100}, {"time": 1102, "pitch": 62, "duration": 3, "velocity": 87}, {"time": 1105, "pitch": 62, "duration": 3, "velocity": 100}, {"time": 1108, "pitch": 59, "duration": 3, "velocity": 100}, {"time": 1111, "pitch": 62, "duration": 6, "velocity": 69}, {"time": 1117, "pitch": 62, "duration": 3, "velocity": 89}, {"time": 1120, "pitch": 62, "duration": 3, "velocity": 92}, {"time": 1123, "pitch": 69, "duration": 6, "velocity": 100}, {"time": 1129, "pitch": 66, "duration": 3, "velocity": 102}, {"time": 1132, "pitch": 67, "duration": 15, "velocity": 105}, {"time": 1147, "pitch": 59, "duration": 3, "velocity": 100}, {"time": 1150, "pitch": 57, "duration": 3, "velocity": 108}, {"time": 1153, "pitch": 55, "duration": 3, "velocity": 100}, {"time": 1156, "pitch": 59, "duration": 6, "velocity": 108}, {"time": 1162, "pitch": 57, "duration": 18, "velocity": 97}, {"time": 1180, "pitch": 55, "duration": 3, "velocity": 92}, {"time": 1183, "pitch": 59, "duration": 6, "velocity": 97}, {"time": 1189, "pitch": 57, "duration": 6, "velocity": 102}, {"time": 1195, "pitch": 57, "duration": 6, "velocity": 111}, {"time": 1201, "pitch": 55, "duration": 6, "velocity": 102}, {"time": 1207, "pitch": 55, "duration": 36, "velocity": 92}, {"time": 1243, "pitch": 59, "duration": 6, "velocity": 117}, {"time": 1249, "pitch": 62, "duration": 6, "velocity": 108}, {"time": 1255, "pitch": 64, "duration": 3, "velocity": 97}, {"time": 1258, "pitch": 63, "duration": 3, "velocity": 109}, {"time": 1261, "pitch": 64, "duration": 3, "velocity": 89}, {"time": 1264, "pitch": 63, "duration": 3, "velocity": 109}, {"time": 1267, "pitch": 64, "duration": 3, "velocity": 92}, {"time": 1270, "pitch": 63, "duration": 3, "velocity": 109}, {"time": 1273, "pitch": 64, "duration": 3, "velocity": 97}, {"time": 1276, "pitch": 64, "duration": 3, "velocity": 105}, {"time": 1279, "pitch": 66, "duration": 3, "velocity": 89}, {"time": 1282, "pitch": 64, "duration": 3, "velocity": 102}, {"time": 1285, "pitch": 66, "duration": 3, "velocity": 84}, {"time": 1288, "pitch": 64, "duration": 3, "velocity": 105}, {"time": 1291, "pitch": 66, "duration": 3, "velocity": 92}, {"time": 1294, "pitch": 64, "duration": 3, "velocity": 89}, {"time": 1297, "pitch": 66, "duration": 3, "velocity": 109}, {"time": 1300, "pitch": 64, "duration": 3, "velocity": 94}, {"time": 1303, "pitch": 67, "duration": 3, "velocity": 97}, {"time": 1306, "pitch": 66, "duration": 3, "velocity": 59}, {"time": 1309, "pitch": 67, "duration": 3, "velocity": 84}, {"time": 1312, "pitch": 66, "duration": 3, "velocity": 77}, {"time": 1315, "pitch": 67, "duration": 3, "velocity": 87}, {"time": 1318, "pitch": 69, "duration": 6, "velocity": 108}, {"time": 1324, "pitch": 67, "duration": 21, "velocity": 100}, {"time": 1345, "pitch": 64, "duration": 3, "velocity": 94}, {"time": 1348, "pitch": 66, "duration": 3, "velocity": 102}, {"time": 1351, "pitch": 67, "duration": 6, "velocity": 108}, {"time": 1357, "pitch": 66, "duration": 6, "velocity": 93}, {"time": 1363, "pitch": 66, "duration": 6, "velocity": 112}, {"time": 1369, "pitch": 64, "duration": 3, "velocity": 97}, {"time": 1372, "pitch": 64, "duration": 9, "velocity": 100}, {"time": 1381, "pitch": 62, "duration": 6, "velocity": 97}, {"time": 1387, "pitch": 57, "duration": 6, "velocity": 105}, {"time": 1393, "pitch": 60, "duration": 3, "velocity": 100}, {"time": 1396, "pitch": 59, "duration": 39, "velocity": 102}, {"time": 1435, "pitch": 59, "duration": 6, "velocity": 117}, {"time": 1441, "pitch": 62, "duration": 6, "velocity": 108}, {"time": 1447, "pitch": 64, "duration": 3, "velocity": 97}, {"time": 1450, "pitch": 63, "duration": 3, "velocity": 109}, {"time": 1453, "pitch": 64, "duration": 3, "velocity": 89}, {"time": 1456, "pitch": 63, "duration": 3, "velocity": 109}, {"time": 1459, "pitch": 64, "duration": 3, "velocity": 92}, {"time": 1462, "pitch": 63, "duration": 3, "velocity": 109}, {"time": 1465, "pitch": 64, "duration": 3, "velocity": 97}, {"time": 1468, "pitch": 64, "duration": 3, "velocity": 105}, {"time": 1471, "pitch": 66, "duration": 3, "velocity": 89}, {"time": 1474, "pitch": 64, "duration": 3, "velocity": 102}, {"time": 1477, "pitch": 66, "duration": 3, "velocity": 84}, {"time": 1480, "pitch": 64, "duration": 3, "velocity": 105}, {"time": 1483, "pitch": 66, "duration": 3, "velocity": 92}, {"time": 1486, "pitch": 64, "duration": 3, "velocity": 89}, {"time": 1489, "pitch": 66, "duration": 3, "velocity": 109}, {"time": 1492, "pitch": 64, "duration": 3, "velocity": 94}, {"time": 1495, "pitch": 67, "duration": 3, "velocity": 97}, {"time": 1498, "pitch": 66, "duration": 3, "velocity": 59}, {"time": 1501, "pitch": 67, "duration": 3, "velocity": 84}, {"time": 1504, "pitch": 66, "duration": 3, "velocity": 77}, {"time": 1507, "pitch": 67, "duration": 3, "velocity": 87}, {"time": 1510, "pitch": 69, "duration": 6, "velocity": 108}, {"time": 1516, "pitch": 71, "duration": 18, "velocity": 100}, {"time": 1534, "pitch": 64, "duration": 3, "velocity": 92}, {"time": 1537, "pitch": 67, "duration": 3, "velocity": 89}, {"time": 1540, "pitch": 66, "duration": 3, "velocity": 102}, {"time": 1543, "pitch": 67, "duration": 6, "velocity": 108}, {"time": 1549, "pitch": 67, "duration": 6, "velocity": 100}, {"time": 1555, "pitch": 67, "duration": 6, "velocity": 105}, {"time": 1561, "pitch": 67, "duration": 3, "velocity": 108}, {"time": 1564, "pitch": 67, "duration": 3, "velocity": 94}, {"time": 1567, "pitch": 67, "duration": 6, "velocity": 102}, {"time": 1573, "pitch": 66, "duration": 6, "velocity": 105}, {"time": 1579, "pitch": 66, "duration": 6, "velocity": 112}, {"time": 1585, "pitch": 64, "duration": 4, "velocity": 108}, {"time": 1588, "pitch": 66, "duration": 39, "velocity": 82}, {"time": 1627, "pitch": 59, "duration": 6, "velocity": 114}, {"time": 1633, "pitch": 63, "duration": 6, "velocity": 109}, {"time": 1639, "pitch": 64, "duration": 12, "velocity": 108}, {"time": 1651, "pitch": 59, "duration": 12, "velocity": 108}, {"time": 1663, "pitch": 66, "duration": 6, "velocity": 112}, {"time": 1669, "pitch": 64, "duration": 6, "velocity": 89}, {"time": 1675, "pitch": 63, "duration": 6, "velocity": 112}, {"time": 1681, "pitch": 64, "duration": 6, "velocity": 105}, {"time": 1687, "pitch": 59, "duration": 6, "velocity": 111}, {"time": 1693, "pitch": 66, "duration": 3, "velocity": 109}, {"time": 1696, "pitch": 66, "duration": 6, "velocity": 102}, {"time": 1702, "pitch": 68, "duration": 6, "velocity": 99}, {"time": 1708, "pitch": 66, "duration": 15, "velocity": 105}, {"time": 1723, "pitch": 59, "duration": 6, "velocity": 111}, {"time": 1729, "pitch": 63, "duration": 6, "velocity": 105}, {"time": 1735, "pitch": 64, "duration": 12, "velocity": 102}, {"time": 1747, "pitch": 64, "duration": 12, "velocity": 102}, {"time": 1759, "pitch": 66, "duration": 6, "velocity": 96}, {"time": 1765, "pitch": 64, "duration": 6, "velocity": 105}, {"time": 1771, "pitch": 63, "duration": 6, "velocity": 102}, {"time": 1777, "pitch": 64, "duration": 6, "velocity": 100}, {"time": 1783, "pitch": 66, "duration": 6, "velocity": 108}, {"time": 1789, "pitch": 68, "duration": 3, "velocity": 109}, {"time": 1792, "pitch": 68, "duration": 6, "velocity": 102}, {"time": 1798, "pitch": 69, "duration": 6, "velocity": 102}, {"time": 1804, "pitch": 68, "duration": 21, "velocity": 109}, {"time": 1825, "pitch": 71, "duration": 6, "velocity": 100}, {"time": 1831, "pitch": 71, "duration": 6, "velocity": 102}, {"time": 1837, "pitch": 64, "duration": 6, "velocity": 92}, {"time": 1843, "pitch": 64, "duration": 6, "velocity": 97}, {"time": 1849, "pitch": 66, "duration": 6, "velocity": 102}, {"time": 1855, "pitch": 66, "duration": 12, "velocity": 102}, {"time": 1867, "pitch": 68, "duration": 6, "velocity": 99}, {"time": 1873, "pitch": 71, "duration": 6, "velocity": 97}, {"time": 1879, "pitch": 71, "duration": 6, "velocity": 100}, {"time": 1885, "pitch": 63, "duration": 6, "velocity": 102}, {"time": 1891, "pitch": 63, "duration": 6, "velocity": 105}, {"time": 1897, "pitch": 64, "duration": 6, "velocity": 89}, {"time": 1903, "pitch": 64, "duration": 12, "velocity": 102}, {"time": 1915, "pitch": 64, "duration": 3, "velocity": 105}, {"time": 1918, "pitch": 66, "duration": 3, "velocity": 102}, {"time": 1921, "pitch": 68, "duration": 6, "velocity": 109}, {"time": 1927, "pitch": 66, "duration": 9, "velocity": 109}, {"time": 1936, "pitch": 64, "duration": 9, "velocity": 102}, {"time": 1945, "pitch": 61, "duration": 18, "velocity": 105}, {"time": 1963, "pitch": 64, "duration": 3, "velocity": 94}, {"time": 1966, "pitch": 66, "duration": 3, "velocity": 99}, {"time": 1969, "pitch": 68, "duration": 6, "velocity": 105}, {"time": 1975, "pitch": 68, "duration": 9, "velocity": 109}, {"time": 1984, "pitch": 66, "duration": 9, "velocity": 102}, {"time": 1993, "pitch": 64, "duration": 6, "velocity": 100}, {"time": 1999, "pitch": 64, "duration": 6, "velocity": 102}, {"time": 2005, "pitch": 66, "duration": 6, "velocity": 109}, {"time": 2011, "pitch": 59, "duration": 6, "velocity": 114}, {"time": 2017, "pitch": 63, "duration": 6, "velocity": 109}, {"time": 2023, "pitch": 64, "duration": 12, "velocity": 108}, {"time": 2035, "pitch": 59, "duration": 12, "velocity": 108}, {"time": 2047, "pitch": 66, "duration": 6, "velocity": 112}, {"time": 2053, "pitch": 64, "duration": 6, "velocity": 89}, {"time": 2059, "pitch": 63, "duration": 6, "velocity": 112}, {"time": 2065, "pitch": 64, "duration": 6, "velocity": 105}, {"time": 2071, "pitch": 59, "duration": 6, "velocity": 111}, {"time": 2077, "pitch": 66, "duration": 3, "velocity": 109}, {"time": 2080, "pitch": 66, "duration": 6, "velocity": 102}, {"time": 2086, "pitch": 68, "duration": 6, "velocity": 99}, {"time": 2092, "pitch": 66, "duration": 15, "velocity": 105}, {"time": 2107, "pitch": 59, "duration": 6, "velocity": 111}, {"time": 2113, "pitch": 63, "duration": 6, "velocity": 105}, {"time": 2119, "pitch": 64, "duration": 12, "velocity": 102}, {"time": 2131, "pitch": 64, "duration": 6, "velocity": 102}, {"time": 2137, "pitch": 64, "duration": 6, "velocity": 114}, {"time": 2143, "pitch": 66, "duration": 6, "velocity": 96}, {"time": 2149, "pitch": 64, "duration": 3, "velocity": 105}, {"time": 2152, "pitch": 63, "duration": 9, "velocity": 102}, {"time": 2161, "pitch": 64, "duration": 6, "velocity": 100}, {"time": 2167, "pitch": 66, "duration": 6, "velocity": 108}, {"time": 2173, "pitch": 68, "duration": 3, "velocity": 109}, {"time": 2176, "pitch": 68, "duration": 6, "velocity": 102}, {"time": 2182, "pitch": 69, "duration": 6, "velocity": 102}, {"time": 2188, "pitch": 68, "duration": 21, "velocity": 109}, {"time": 2209, "pitch": 71, "duration": 6, "velocity": 100}, {"time": 2215, "pitch": 71, "duration": 6, "velocity": 102}, {"time": 2221, "pitch": 64, "duration": 6, "velocity": 92}, {"time": 2227, "pitch": 64, "duration": 6, "velocity": 97}, {"time": 2233, "pitch": 66, "duration": 6, "velocity": 102}, {"time": 2239, "pitch": 66, "duration": 12, "velocity": 102}, {"time": 2251, "pitch": 68, "duration": 6, "velocity": 99}, {"time": 2257, "pitch": 71, "duration": 6, "velocity": 97}, {"time": 2263, "pitch": 71, "duration": 6, "velocity": 100}, {"time": 2269, "pitch": 63, "duration": 6, "velocity": 102}, {"time": 2275, "pitch": 63, "duration": 6, "velocity": 105}, {"time": 2281, "pitch": 64, "duration": 6, "velocity": 89}, {"time": 2287, "pitch": 64, "duration": 12, "velocity": 102}, {"time": 2299, "pitch": 64, "duration": 3, "velocity": 105}, {"time": 2302, "pitch": 66, "duration": 3, "velocity": 102}, {"time": 2305, "pitch": 68, "duration": 6, "velocity": 109}, {"time": 2311, "pitch": 66, "duration": 6, "velocity": 112}, {"time": 2317, "pitch": 64, "duration": 6, "velocity": 102}, {"time": 2323, "pitch": 64, "duration": 6, "velocity": 100}, {"time": 2329, "pitch": 61, "duration": 6, "velocity": 105}, {"time": 2335, "pitch": 63, "duration": 6, "velocity": 109}, {"time": 2341, "pitch": 63, "duration": 6, "velocity": 92}, {"time": 2347, "pitch": 63, "duration": 6, "velocity": 89}, {"time": 2353, "pitch": 64, "duration": 6, "velocity": 109}, {"time": 2359, "pitch": 64, "duration": 20, "velocity": 97}, {"time": 2623, "pitch": 62, "duration": 3, "velocity": 94}, {"time": 2626, "pitch": 62, "duration": 3, "velocity": 92}, {"time": 2629, "pitch": 62, "duration": 3, "velocity": 92}, {"time": 2632, "pitch": 62, "duration": 12, "velocity": 102}, {"time": 2644, "pitch": 59, "duration": 3, "velocity": 100}, {"time": 2647, "pitch": 64, "duration": 6, "velocity": 102}, {"time": 2653, "pitch": 62, "duration": 6, "velocity": 105}, {"time": 2659, "pitch": 59, "duration": 3, "velocity": 108}, {"time": 2662, "pitch": 57, "duration": 3, "velocity": 102}, {"time": 2665, "pitch": 55, "duration": 6, "velocity": 102}, {"time": 2671, "pitch": 57, "duration": 30, "velocity": 117}, {"time": 2701, "pitch": 62, "duration": 6, "velocity": 108}, {"time": 2707, "pitch": 64, "duration": 6, "velocity": 105}, {"time": 2713, "pitch": 66, "duration": 6, "velocity": 105}, {"time": 2719, "pitch": 67, "duration": 6, "velocity": 102}, {"time": 2725, "pitch": 67, "duration": 3, "velocity": 94}, {"time": 2728, "pitch": 67, "duration": 12, "velocity": 108}, {"time": 2740, "pitch": 67, "duration": 3, "velocity": 92}, {"time": 2743, "pitch": 69, "duration": 6, "velocity": 105}, {"time": 2749, "pitch": 67, "duration": 6, "velocity": 108}, {"time": 2755, "pitch": 66, "duration": 6, "velocity": 112}, {"time": 2761, "pitch": 59, "duration": 6, "velocity": 108}, {"time": 2767, "pitch": 64, "duration": 6, "velocity": 102}, {"time": 2773, "pitch": 62, "duration": 24, "velocity": 105}, {"time": 2797, "pitch": 62, "duration": 6, "velocity": 102}, {"time": 2803, "pitch": 67, "duration": 6, "velocity": 100}, {"time": 2809, "pitch": 62, "duration": 6, "velocity": 102}, {"time": 2815, "pitch": 64, "duration": 9, "velocity": 105}, {"time": 2824, "pitch": 67, "duration": 7, "velocity": 108}, {"time": 2830, "pitch": 64, "duration": 6, "velocity": 105}, {"time": 2836, "pitch": 64, "duration": 3, "velocity": 92}, {"time": 2839, "pitch": 62, "duration": 6, "velocity": 100}, {"time": 2845, "pitch": 62, "duration": 3, "velocity": 100}, {"time": 2848, "pitch": 69, "duration": 6, "velocity": 100}, {"time": 2854, "pitch": 62, "duration": 3, "velocity": 87}, {"time": 2857, "pitch": 62, "duration": 3, "velocity": 100}, {"time": 2860, "pitch": 59, "duration": 3, "velocity": 100}, {"time": 2863, "pitch": 62, "duration": 6, "velocity": 69}, {"time": 2869, "pitch": 62, "duration": 3, "velocity": 89}, {"time": 2872, "pitch": 62, "duration": 3, "velocity": 92}, {"time": 2875, "pitch": 69, "duration": 6, "velocity": 100}, {"time": 2881, "pitch": 66, "duration": 3, "velocity": 102}, {"time": 2884, "pitch": 67, "duration": 15, "velocity": 105}, {"time": 2899, "pitch": 59, "duration": 3, "velocity": 100}, {"time": 2902, "pitch": 57, "duration": 3, "velocity": 108}, {"time": 2905, "pitch": 55, "duration": 3, "velocity": 100}, {"time": 2908, "pitch": 59, "duration": 6, "velocity": 108}, {"time": 2914, "pitch": 57, "duration": 18, "velocity": 97}, {"time": 2932, "pitch": 55, "duration": 3, "velocity": 92}, {"time": 2935, "pitch": 59, "duration": 6, "velocity": 97}, {"time": 2941, "pitch": 57, "duration": 6, "velocity": 102}, {"time": 2947, "pitch": 57, "duration": 6, "velocity": 111}, {"time": 2953, "pitch": 55, "duration": 6, "velocity": 102}, {"time": 2959, "pitch": 55, "duration": 36, "velocity": 92}, {"time": 2995, "pitch": 59, "duration": 6, "velocity": 117}, {"time": 3001, "pitch": 62, "duration": 6, "velocity": 108}, {"time": 3007, "pitch": 64, "duration": 3, "velocity": 97}, {"time": 3010, "pitch": 63, "duration": 3, "velocity": 109}, {"time": 3013, "pitch": 64, "duration": 3, "velocity": 89}, {"time": 3016, "pitch": 63, "duration": 3, "velocity": 109}, {"time": 3019, "pitch": 64, "duration": 3, "velocity": 92}, {"time": 3022, "pitch": 63, "duration": 3, "velocity": 109}, {"time": 3025, "pitch": 64, "duration": 3, "velocity": 97}, {"time": 3028, "pitch": 64, "duration": 3, "velocity": 105}, {"time": 3031, "pitch": 66, "duration": 3, "velocity": 89}, {"time": 3034, "pitch": 64, "duration": 3, "velocity": 102}, {"time": 3037, "pitch": 66, "duration": 3, "velocity": 84}, {"time": 3040, "pitch": 64, "duration": 3, "velocity": 105}, {"time": 3043, "pitch": 66, "duration": 3, "velocity": 92}, {"time": 3046, "pitch": 64, "duration": 3, "velocity": 89}, {"time": 3049, "pitch": 66, "duration": 3, "velocity": 109}, {"time": 3052, "pitch": 64, "duration": 3, "velocity": 94}, {"time": 3055, "pitch": 67, "duration": 3, "velocity": 97}, {"time": 3058, "pitch": 66, "duration": 3, "velocity": 59}, {"time": 3061, "pitch": 67, "duration": 3, "velocity": 84}, {"time": 3064, "pitch": 66, "duration": 3, "velocity": 77}, {"time": 3067, "pitch": 67, "duration": 3, "velocity": 87}, {"time": 3070, "pitch": 69, "duration": 6, "velocity": 108}, {"time": 3076, "pitch": 67, "duration": 21, "velocity": 100}, {"time": 3097, "pitch": 64, "duration": 3, "velocity": 94}, {"time": 3100, "pitch": 66, "duration": 3, "velocity": 102}, {"time": 3103, "pitch": 67, "duration": 6, "velocity": 108}, {"time": 3109, "pitch": 66, "duration": 6, "velocity": 93}, {"time": 3115, "pitch": 66, "duration": 6, "velocity": 112}, {"time": 3121, "pitch": 64, "duration": 3, "velocity": 97}, {"time": 3124, "pitch": 64, "duration": 9, "velocity": 100}, {"time": 3133, "pitch": 62, "duration": 6, "velocity": 97}, {"time": 3139, "pitch": 57, "duration": 6, "velocity": 105}, {"time": 3145, "pitch": 60, "duration": 3, "velocity": 100}, {"time": 3148, "pitch": 59, "duration": 39, "velocity": 102}, {"time": 3187, "pitch": 59, "duration": 6, "velocity": 117}, {"time": 3193, "pitch": 62, "duration": 6, "velocity": 108}, {"time": 3199, "pitch": 64, "duration": 3, "velocity": 97}, {"time": 3202, "pitch": 63, "duration": 3, "velocity": 109}, {"time": 3205, "pitch": 64, "duration": 3, "velocity": 89}, {"time": 3208, "pitch": 63, "duration": 3, "velocity": 109}, {"time": 3211, "pitch": 64, "duration": 3, "velocity": 92}, {"time": 3214, "pitch": 63, "duration": 3, "velocity": 109}, {"time": 3217, "pitch": 64, "duration": 3, "velocity": 97}, {"time": 3220, "pitch": 64, "duration": 3, "velocity": 105}, {"time": 3223, "pitch": 66, "duration": 3, "velocity": 89}, {"time": 3226, "pitch": 64, "duration": 3, "velocity": 102}, {"time": 3229, "pitch": 66, "duration": 3, "velocity": 84}, {"time": 3232, "pitch": 64, "duration": 3, "velocity": 105}, {"time": 3235, "pitch": 66, "duration": 3, "velocity": 92}, {"time": 3238, "pitch": 64, "duration": 3, "velocity": 89}, {"time": 3241, "pitch": 66, "duration": 3, "velocity": 109}, {"time": 3244, "pitch": 64, "duration": 3, "velocity": 94}, {"time": 3247, "pitch": 67, "duration": 3, "velocity": 97}, {"time": 3250, "pitch": 66, "duration": 3, "velocity": 59}, {"time": 3253, "pitch": 67, "duration": 3, "velocity": 84}, {"time": 3256, "pitch": 66, "duration": 3, "velocity": 77}, {"time": 3259, "pitch": 67, "duration": 3, "velocity": 87}, {"time": 3262, "pitch": 69, "duration": 6, "velocity": 108}, {"time": 3268, "pitch": 71, "duration": 18, "velocity": 100}, {"time": 3286, "pitch": 64, "duration": 3, "velocity": 92}, {"time": 3289, "pitch": 67, "duration": 3, "velocity": 89}, {"time": 3292, "pitch": 66, "duration": 3, "velocity": 102}, {"time": 3295, "pitch": 67, "duration": 6, "velocity": 108}, {"time": 3301, "pitch": 67, "duration": 6, "velocity": 100}, {"time": 3307, "pitch": 67, "duration": 6, "velocity": 105}, {"time": 3313, "pitch": 67, "duration": 3, "velocity": 108}, {"time": 3316, "pitch": 67, "duration": 3, "velocity": 94}, {"time": 3319, "pitch": 67, "duration": 6, "velocity": 102}, {"time": 3325, "pitch": 66, "duration": 6, "velocity": 105}, {"time": 3331, "pitch": 66, "duration": 6, "velocity": 112}, {"time": 3337, "pitch": 64, "duration": 4, "velocity": 108}, {"time": 3340, "pitch": 66, "duration": 39, "velocity": 82}, {"time": 3379, "pitch": 59, "duration": 6, "velocity": 114}, {"time": 3385, "pitch": 63, "duration": 6, "velocity": 109}, {"time": 3391, "pitch": 64, "duration": 12, "velocity": 108}, {"time": 3403, "pitch": 59, "duration": 12, "velocity": 108}, {"time": 3415, "pitch": 66, "duration": 6, "velocity": 112}, {"time": 3421, "pitch": 64, "duration": 6, "velocity": 89}, {"time": 3427, "pitch": 63, "duration": 6, "velocity": 112}, {"time": 3433, "pitch": 64, "duration": 6, "velocity": 105}, {"time": 3439, "pitch": 59, "duration": 6, "velocity": 111}, {"time": 3445, "pitch": 66, "duration": 3, "velocity": 109}, {"time": 3448, "pitch": 66, "duration": 6, "velocity": 102}, {"time": 3454, "pitch": 68, "duration": 6, "velocity": 99}, {"time": 3460, "pitch": 66, "duration": 15, "velocity": 105}, {"time": 3475, "pitch": 59, "duration": 6, "velocity": 111}, {"time": 3481, "pitch": 63, "duration": 6, "velocity": 105}, {"time": 3487, "pitch": 64, "duration": 12, "velocity": 102}, {"time": 3499, "pitch": 64, "duration": 12, "velocity": 102}, {"time": 3511, "pitch": 66, "duration": 6, "velocity": 96}, {"time": 3517, "pitch": 64, "duration": 6, "velocity": 105}, {"time": 3523, "pitch": 63, "duration": 6, "velocity": 102}, {"time": 3529, "pitch": 64, "duration": 6, "velocity": 100}, {"time": 3535, "pitch": 66, "duration": 6, "velocity": 108}, {"time": 3541, "pitch": 68, "duration": 3, "velocity": 109}, {"time": 3544, "pitch": 68, "duration": 6, "velocity": 102}, {"time": 3550, "pitch": 69, "duration": 6, "velocity": 102}, {"time": 3556, "pitch": 68, "duration": 21, "velocity": 109}, {"time": 3577, "pitch": 71, "duration": 6, "velocity": 100}, {"time": 3583, "pitch": 71, "duration": 6, "velocity": 102}, {"time": 3589, "pitch": 64, "duration": 6, "velocity": 92}, {"time": 3595, "pitch": 64, "duration": 6, "velocity": 97}, {"time": 3601, "pitch": 66, "duration": 6, "velocity": 102}, {"time": 3607, "pitch": 66, "duration": 12, "velocity": 102}, {"time": 3619, "pitch": 68, "duration": 6, "velocity": 99}, {"time": 3625, "pitch": 71, "duration": 6, "velocity": 97}, {"time": 3631, "pitch": 71, "duration": 6, "velocity": 100}, {"time": 3637, "pitch": 63, "duration": 6, "velocity": 102}, {"time": 3643, "pitch": 63, "duration": 6, "velocity": 105}, {"time": 3649, "pitch": 64, "duration": 6, "velocity": 89}, {"time": 3655, "pitch": 64, "duration": 12, "velocity": 102}, {"time": 3667, "pitch": 64, "duration": 3, "velocity": 105}, {"time": 3670, "pitch": 66, "duration": 3, "velocity": 102}, {"time": 3673, "pitch": 68, "duration": 6, "velocity": 109}, {"time": 3679, "pitch": 66, "duration": 9, "velocity": 109}, {"time": 3688, "pitch": 64, "duration": 9, "velocity": 102}, {"time": 3697, "pitch": 61, "duration": 18, "velocity": 105}, {"time": 3715, "pitch": 64, "duration": 3, "velocity": 94}, {"time": 3718, "pitch": 66, "duration": 3, "velocity": 99}, {"time": 3721, "pitch": 68, "duration": 6, "velocity": 105}, {"time": 3727, "pitch": 68, "duration": 9, "velocity": 109}, {"time": 3736, "pitch": 66, "duration": 9, "velocity": 102}, {"time": 3745, "pitch": 64, "duration": 6, "velocity": 100}, {"time": 3751, "pitch": 64, "duration": 6, "velocity": 102}, {"time": 3757, "pitch": 66, "duration": 6, "velocity": 109}, {"time": 3763, "pitch": 59, "duration": 6, "velocity": 114}, {"time": 3769, "pitch": 63, "duration": 6, "velocity": 109}, {"time": 3775, "pitch": 64, "duration": 12, "velocity": 108}, {"time": 3787, "pitch": 59, "duration": 12, "velocity": 108}, {"time": 3799, "pitch": 66, "duration": 6, "velocity": 112}, {"time": 3805, "pitch": 64, "duration": 6, "velocity": 89}, {"time": 3811, "pitch": 63, "duration": 6, "velocity": 112}, {"time": 3817, "pitch": 64, "duration": 6, "velocity": 105}, {"time": 3823, "pitch": 59, "duration": 6, "velocity": 111}, {"time": 3829, "pitch": 66, "duration": 3, "velocity": 109}, {"time": 3832, "pitch": 66, "duration": 6, "velocity": 102}, {"time": 3838, "pitch": 68, "duration": 6, "velocity": 99}, {"time": 3844, "pitch": 66, "duration": 15, "velocity": 105}, {"time": 3859, "pitch": 59, "duration": 6, "velocity": 111}, {"time": 3865, "pitch": 63, "duration": 6, "velocity": 105}, {"time": 3871, "pitch": 64, "duration": 12, "velocity": 102}, {"time": 3883, "pitch": 64, "duration": 6, "velocity": 102}, {"time": 3889, "pitch": 64, "duration": 6, "velocity": 114}, {"time": 3895, "pitch": 66, "duration": 6, "velocity": 96}, {"time": 3901, "pitch": 64, "duration": 3, "velocity": 105}, {"time": 3904, "pitch": 63, "duration": 9, "velocity": 102}, {"time": 3913, "pitch": 64, "duration": 6, "velocity": 100}, {"time": 3919, "pitch": 66, "duration": 6, "velocity": 108}, {"time": 3925, "pitch": 68, "duration": 3, "velocity": 109}, {"time": 3928, "pitch": 68, "duration": 6, "velocity": 102}, {"time": 3934, "pitch": 69, "duration": 6, "velocity": 102}, {"time": 3940, "pitch": 68, "duration": 21, "velocity": 109}, {"time": 3961, "pitch": 71, "duration": 6, "velocity": 100}, {"time": 3967, "pitch": 71, "duration": 6, "velocity": 102}, {"time": 3973, "pitch": 64, "duration": 6, "velocity": 92}, {"time": 3979, "pitch": 64, "duration": 6, "velocity": 97}, {"time": 3985, "pitch": 66, "duration": 6, "velocity": 102}, {"time": 3991, "pitch": 66, "duration": 12, "velocity": 102}, {"time": 4003, "pitch": 68, "duration": 6, "velocity": 99}, {"time": 4009, "pitch": 71, "duration": 6, "velocity": 97}, {"time": 4015, "pitch": 71, "duration": 6, "velocity": 100}, {"time": 4021, "pitch": 63, "duration": 6, "velocity": 102}, {"time": 4027, "pitch": 63, "duration": 6, "velocity": 105}, {"time": 4033, "pitch": 64, "duration": 6, "velocity": 89}, {"time": 4039, "pitch": 64, "duration": 12, "velocity": 102}, {"time": 4051, "pitch": 64, "duration": 3, "velocity": 105}, {"time": 4054, "pitch": 66, "duration": 3, "velocity": 102}, {"time": 4057, "pitch": 68, "duration": 6, "velocity": 109}, {"time": 4063, "pitch": 66, "duration": 6, "velocity": 112}, {"time": 4069, "pitch": 64, "duration": 6, "velocity": 102}, {"time": 4075, "pitch": 64, "duration": 6, "velocity": 100}, {"time": 4081, "pitch": 61, "duration": 6, "velocity": 105}, {"time": 4087, "pitch": 63, "duration": 6, "velocity": 109}, {"time": 4093, "pitch": 63, "duration": 6, "velocity": 92}, {"time": 4099, "pitch": 63, "duration": 6, "velocity": 89}, {"time": 4105, "pitch": 64, "duration": 6, "velocity": 109}, {"time": 4111, "pitch": 64, "duration": 41, "velocity": 97}]}, {"program": 0, "is_drum": false, "name": "PIANO", "notes": [{"time": 295, "pitch": 43, "duration": 38, "velocity": 89}, {"time": 295, "pitch": 55, "duration": 6, "velocity": 73}, {"time": 295, "pitch": 62, "duration": 5, "velocity": 78}, {"time": 301, "pitch": 50, "duration": 8, "velocity": 30}, {"time": 307, "pitch": 55, "duration": 4, "velocity": 87}, {"time": 307, "pitch": 59, "duration": 3, "velocity": 89}, {"time": 307, "pitch": 62, "duration": 4, "velocity": 84}, {"time": 313, "pitch": 50, "duration": 3, "velocity": 21}, {"time": 316, "pitch": 55, "duration": 2, "velocity": 84}, {"time": 316, "pitch": 62, "duration": 3, "velocity": 80}, {"time": 319, "pitch": 50, "duration": 2, "velocity": 33}, {"time": 322, "pitch": 55, "duration": 3, "velocity": 67}, {"time": 325, "pitch": 50, "duration": 8, "velocity": 58}, {"time": 331, "pitch": 55, "duration": 2, "velocity": 87}, {"time": 331, "pitch": 59, "duration": 2, "velocity": 94}, {"time": 331, "pitch": 62, "duration": 3, "velocity": 92}, {"time": 343, "pitch": 50, "duration": 22, "velocity": 73}, {"time": 343, "pitch": 57, "duration": 7, "velocity": 58}, {"time": 343, "pitch": 62, "duration": 6, "velocity": 71}, {"time": 355, "pitch": 57, "duration": 2, "velocity": 97}, {"time": 355, "pitch": 66, "duration": 2, "velocity": 79}, {"time": 364, "pitch": 57, "duration": 4, "velocity": 69}, {"time": 364, "pitch": 62, "duration": 4, "velocity": 84}, {"time": 367, "pitch": 50, "duration": 2, "velocity": 51}, {"time": 370, "pitch": 57, "duration": 4, "velocity": 87}, {"time": 373, "pitch": 50, "duration": 11, "velocity": 82}, {"time": 376, "pitch": 57, "duration": 2, "velocity": 100}, {"time": 379, "pitch": 57, "duration": 4, "velocity": 108}, {"time": 379, "pitch": 62, "duration": 4, "velocity": 108}, {"time": 391, "pitch": 52, "duration": 22, "velocity": 87}, {"time": 391, "pitch": 59, "duration": 7, "velocity": 80}, {"time": 391, "pitch": 64, "duration": 7, "velocity": 82}, {"time": 403, "pitch": 59, "duration": 3, "velocity": 89}, {"time": 403, "pitch": 67, "duration": 3, "velocity": 94}, {"time": 412, "pitch": 59, "duration": 4, "velocity": 67}, {"time": 412, "pitch": 64, "duration": 5, "velocity": 73}, {"time": 415, "pitch": 52, "duration": 11, "velocity": 60}, {"time": 418, "pitch": 59, "duration": 4, "velocity": 67}, {"time": 421, "pitch": 64, "duration": 2, "velocity": 42}, {"time": 427, "pitch": 52, "duration": 5, "velocity": 82}, {"time": 427, "pitch": 59, "duration": 3, "velocity": 84}, {"time": 427, "pitch": 64, "duration": 4, "velocity": 78}, {"time": 427, "pitch": 67, "duration": 5, "velocity": 84}, {"time": 433, "pitch": 59, "duration": 2, "velocity": 67}, {"time": 439, "pitch": 48, "duration": 14, "velocity": 97}, {"time": 439, "pitch": 60, "duration": 7, "velocity": 78}, {"time": 439, "pitch": 64, "duration": 7, "velocity": 87}, {"time": 445, "pitch": 55, "duration": 8, "velocity": 48}, {"time": 451, "pitch": 60, "duration": 3, "velocity": 97}, {"time": 451, "pitch": 67, "duration": 2, "velocity": 89}, {"time": 460, "pitch": 60, "duration": 3, "velocity": 78}, {"time": 460, "pitch": 64, "duration": 2, "velocity": 84}, {"time": 463, "pitch": 48, "duration": 11, "velocity": 60}, {"time": 466, "pitch": 55, "duration": 7, "velocity": 73}, {"time": 469, "pitch": 60, "duration": 3, "velocity": 100}, {"time": 475, "pitch": 48, "duration": 12, "velocity": 80}, {"time": 475, "pitch": 55, "duration": 12, "velocity": 84}, {"time": 475, "pitch": 60, "duration": 3, "velocity": 82}, {"time": 475, "pitch": 64, "duration": 4, "velocity": 94}, {"time": 481, "pitch": 60, "duration": 5, "velocity": 89}, {"time": 487, "pitch": 43, "duration": 45, "velocity": 94}, {"time": 487, "pitch": 55, "duration": 7, "velocity": 73}, {"time": 487, "pitch": 59, "duration": 6, "velocity": 89}, {"time": 499, "pitch": 55, "duration": 3, "velocity": 78}, {"time": 499, "pitch": 62, "duration": 3, "velocity": 80}, {"time": 505, "pitch": 50, "duration": 3, "velocity": 7}, {"time": 508, "pitch": 55, "duration": 4, "velocity": 62}, {"time": 508, "pitch": 59, "duration": 4, "velocity": 73}, {"time": 520, "pitch": 55, "duration": 2, "velocity": 76}, {"time": 523, "pitch": 50, "duration": 7, "velocity": 82}, {"time": 523, "pitch": 55, "duration": 4, "velocity": 84}, {"time": 523, "pitch": 59, "duration": 4, "velocity": 97}, {"time": 523, "pitch": 62, "duration": 5, "velocity": 87}, {"time": 535, "pitch": 50, "duration": 27, "velocity": 51}, {"time": 535, "pitch": 57, "duration": 9, "velocity": 76}, {"time": 535, "pitch": 62, "duration": 8, "velocity": 84}, {"time": 547, "pitch": 57, "duration": 2, "velocity": 84}, {"time": 547, "pitch": 66, "duration": 4, "velocity": 61}, {"time": 556, "pitch": 57, "duration": 1, "velocity": 78}, {"time": 559, "pitch": 57, "duration": 7, "velocity": 94}, {"time": 559, "pitch": 62, "duration": 7, "velocity": 87}, {"time": 565, "pitch": 50, "duration": 5, "velocity": 76}, {"time": 568, "pitch": 57, "duration": 5, "velocity": 102}, {"time": 568, "pitch": 62, "duration": 7, "velocity": 97}, {"time": 571, "pitch": 50, "duration": 9, "velocity": 71}, {"time": 577, "pitch": 57, "duration": 2, "velocity": 80}, {"time": 583, "pitch": 52, "duration": 14, "velocity": 80}, {"time": 583, "pitch": 59, "duration": 6, "velocity": 87}, {"time": 583, "pitch": 64, "duration": 6, "velocity": 84}, {"time": 595, "pitch": 59, "duration": 3, "velocity": 89}, {"time": 595, "pitch": 64, "duration": 3, "velocity": 89}, {"time": 595, "pitch": 67, "duration": 4, "velocity": 94}, {"time": 607, "pitch": 52, "duration": 13, "velocity": 94}, {"time": 607, "pitch": 59, "duration": 5, "velocity": 78}, {"time": 607, "pitch": 67, "duration": 8, "velocity": 97}, {"time": 613, "pitch": 59, "duration": 3, "velocity": 50}, {"time": 619, "pitch": 59, "duration": 2, "velocity": 89}, {"time": 619, "pitch": 64, "duration": 3, "velocity": 87}, {"time": 619, "pitch": 67, "duration": 5, "velocity": 89}, {"time": 631, "pitch": 47, "duration": 38, "velocity": 100}, {"time": 631, "pitch": 57, "duration": 8, "velocity": 73}, {"time": 631, "pitch": 62, "duration": 8, "velocity": 82}, {"time": 643, "pitch": 62, "duration": 6, "velocity": 80}, {"time": 643, "pitch": 66, "duration": 7, "velocity": 65}, {"time": 649, "pitch": 54, "duration": 4, "velocity": 9}, {"time": 652, "pitch": 59, "duration": 4, "velocity": 84}, {"time": 652, "pitch": 62, "duration": 7, "velocity": 82}, {"time": 652, "pitch": 66, "duration": 10, "velocity": 63}, {"time": 655, "pitch": 54, "duration": 13, "velocity": 52}, {"time": 658, "pitch": 59, "duration": 6, "velocity": 82}, {"time": 661, "pitch": 62, "duration": 4, "velocity": 84}, {"time": 667, "pitch": 59, "duration": 3, "velocity": 100}, {"time": 667, "pitch": 62, "duration": 4, "velocity": 89}, {"time": 667, "pitch": 66, "duration": 4, "velocity": 99}, {"time": 673, "pitch": 47, "duration": 3, "velocity": 89}, {"time": 679, "pitch": 48, "duration": 19, "velocity": 100}, {"time": 679, "pitch": 60, "duration": 8, "velocity": 76}, {"time": 679, "pitch": 64, "duration": 7, "velocity": 80}, {"time": 679, "pitch": 67, "duration": 7, "velocity": 87}, {"time": 685, "pitch": 55, "duration": 7, "velocity": 55}, {"time": 691, "pitch": 60, "duration": 5, "velocity": 100}, {"time": 691, "pitch": 64, "duration": 5, "velocity": 100}, {"time": 691, "pitch": 67, "duration": 5, "velocity": 100}, {"time": 697, "pitch": 55, "duration": 2, "velocity": 52}, {"time": 703, "pitch": 50, "duration": 15, "velocity": 102}, {"time": 703, "pitch": 62, "duration": 6, "velocity": 80}, {"time": 703, "pitch": 66, "duration": 9, "velocity": 74}, {"time": 709, "pitch": 57, "duration": 7, "velocity": 57}, {"time": 712, "pitch": 62, "duration": 2, "velocity": 73}, {"time": 715, "pitch": 62, "duration": 4, "velocity": 89}, {"time": 715, "pitch": 66, "duration": 4, "velocity": 96}, {"time": 727, "pitch": 47, "duration": 16, "velocity": 94}, {"time": 727, "pitch": 59, "duration": 8, "velocity": 80}, {"time": 727, "pitch": 62, "duration": 9, "velocity": 84}, {"time": 733, "pitch": 54, "duration": 8, "velocity": 29}, {"time": 739, "pitch": 59, "duration": 4, "velocity": 92}, {"time": 739, "pitch": 62, "duration": 4, "velocity": 82}, {"time": 739, "pitch": 66, "duration": 5, "velocity": 65}, {"time": 745, "pitch": 47, "duration": 5, "velocity": 87}, {"time": 751, "pitch": 52, "duration": 20, "velocity": 87}, {"time": 751, "pitch": 59, "duration": 9, "velocity": 69}, {"time": 751, "pitch": 64, "duration": 8, "velocity": 87}, {"time": 751, "pitch": 67, "duration": 9, "velocity": 82}, {"time": 763, "pitch": 59, "duration": 3, "velocity": 89}, {"time": 763, "pitch": 64, "duration": 5, "velocity": 84}, {"time": 763, "pitch": 67, "duration": 7, "velocity": 92}, {"time": 769, "pitch": 59, "duration": 2, "velocity": 82}, {"time": 775, "pitch": 45, "duration": 23, "velocity": 97}, {"time": 775, "pitch": 57, "duration": 8, "velocity": 64}, {"time": 775, "pitch": 60, "duration": 8, "velocity": 78}, {"time": 781, "pitch": 52, "duration": 7, "velocity": 58}, {"time": 787, "pitch": 57, "duration": 6, "velocity": 105}, {"time": 787, "pitch": 64, "duration": 5, "velocity": 94}, {"time": 793, "pitch": 52, "duration": 6, "velocity": 71}, {"time": 796, "pitch": 57, "duration": 2, "velocity": 76}, {"time": 799, "pitch": 45, "duration": 15, "velocity": 76}, {"time": 799, "pitch": 57, "duration": 9, "velocity": 97}, {"time": 799, "pitch": 60, "duration": 9, "velocity": 89}, {"time": 811, "pitch": 57, "duration": 4, "velocity": 100}, {"time": 811, "pitch": 60, "duration": 3, "velocity": 100}, {"time": 811, "pitch": 64, "duration": 4, "velocity": 100}, {"time": 817, "pitch": 45, "duration": 5, "velocity": 97}, {"time": 823, "pitch": 50, "duration": 30, "velocity": 97}, {"time": 823, "pitch": 57, "duration": 9, "velocity": 67}, {"time": 823, "pitch": 62, "duration": 9, "velocity": 89}, {"time": 835, "pitch": 57, "duration": 3, "velocity": 87}, {"time": 835, "pitch": 62, "duration": 5, "velocity": 92}, {"time": 835, "pitch": 66, "duration": 7, "velocity": 85}, {"time": 847, "pitch": 57, "duration": 11, "velocity": 102}, {"time": 847, "pitch": 62, "duration": 11, "velocity": 94}, {"time": 847, "pitch": 66, "duration": 16, "velocity": 61}, {"time": 856, "pitch": 50, "duration": 14, "velocity": 76}, {"time": 859, "pitch": 57, "duration": 6, "velocity": 102}, {"time": 862, "pitch": 62, "duration": 4, "velocity": 87}, {"time": 865, "pitch": 66, "duration": 5, "velocity": 96}, {"time": 871, "pitch": 43, "duration": 45, "velocity": 94}, {"time": 871, "pitch": 55, "duration": 7, "velocity": 73}, {"time": 871, "pitch": 59, "duration": 6, "velocity": 89}, {"time": 883, "pitch": 55, "duration": 3, "velocity": 78}, {"time": 883, "pitch": 62, "duration": 3, "velocity": 80}, {"time": 889, "pitch": 50, "duration": 3, "velocity": 7}, {"time": 892, "pitch": 55, "duration": 4, "velocity": 62}, {"time": 892, "pitch": 59, "duration": 4, "velocity": 73}, {"time": 904, "pitch": 55, "duration": 2, "velocity": 76}, {"time": 907, "pitch": 50, "duration": 7, "velocity": 82}, {"time": 907, "pitch": 55, "duration": 4, "velocity": 84}, {"time": 907, "pitch": 59, "duration": 4, "velocity": 97}, {"time": 907, "pitch": 62, "duration": 5, "velocity": 87}, {"time": 919, "pitch": 50, "duration": 27, "velocity": 51}, {"time": 919, "pitch": 57, "duration": 9, "velocity": 76}, {"time": 919, "pitch": 62, "duration": 8, "velocity": 84}, {"time": 931, "pitch": 57, "duration": 2, "velocity": 84}, {"time": 931, "pitch": 66, "duration": 4, "velocity": 61}, {"time": 940, "pitch": 57, "duration": 1, "velocity": 78}, {"time": 943, "pitch": 57, "duration": 7, "velocity": 94}, {"time": 943, "pitch": 62, "duration": 7, "velocity": 87}, {"time": 949, "pitch": 50, "duration": 5, "velocity": 76}, {"time": 952, "pitch": 57, "duration": 5, "velocity": 102}, {"time": 952, "pitch": 62, "duration": 7, "velocity": 97}, {"time": 955, "pitch": 50, "duration": 9, "velocity": 71}, {"time": 961, "pitch": 57, "duration": 2, "velocity": 80}, {"time": 967, "pitch": 52, "duration": 14, "velocity": 80}, {"time": 967, "pitch": 59, "duration": 6, "velocity": 87}, {"time": 967, "pitch": 64, "duration": 6, "velocity": 84}, {"time": 979, "pitch": 59, "duration": 3, "velocity": 89}, {"time": 979, "pitch": 64, "duration": 3, "velocity": 89}, {"time": 979, "pitch": 67, "duration": 4, "velocity": 94}, {"time": 991, "pitch": 52, "duration": 13, "velocity": 94}, {"time": 991, "pitch": 59, "duration": 5, "velocity": 78}, {"time": 991, "pitch": 67, "duration": 8, "velocity": 97}, {"time": 997, "pitch": 59, "duration": 3, "velocity": 50}, {"time": 1003, "pitch": 59, "duration": 2, "velocity": 89}, {"time": 1003, "pitch": 64, "duration": 3, "velocity": 87}, {"time": 1003, "pitch": 67, "duration": 5, "velocity": 89}, {"time": 1015, "pitch": 47, "duration": 38, "velocity": 100}, {"time": 1015, "pitch": 57, "duration": 8, "velocity": 73}, {"time": 1015, "pitch": 62, "duration": 8, "velocity": 82}, {"time": 1027, "pitch": 62, "duration": 6, "velocity": 80}, {"time": 1027, "pitch": 66, "duration": 7, "velocity": 65}, {"time": 1033, "pitch": 54, "duration": 4, "velocity": 9}, {"time": 1036, "pitch": 59, "duration": 4, "velocity": 84}, {"time": 1036, "pitch": 62, "duration": 7, "velocity": 82}, {"time": 1036, "pitch": 66, "duration": 10, "velocity": 63}, {"time": 1039, "pitch": 54, "duration": 13, "velocity": 52}, {"time": 1042, "pitch": 59, "duration": 6, "velocity": 82}, {"time": 1045, "pitch": 62, "duration": 4, "velocity": 84}, {"time": 1051, "pitch": 59, "duration": 3, "velocity": 100}, {"time": 1051, "pitch": 62, "duration": 4, "velocity": 89}, {"time": 1051, "pitch": 66, "duration": 4, "velocity": 99}, {"time": 1057, "pitch": 47, "duration": 3, "velocity": 89}, {"time": 1063, "pitch": 48, "duration": 19, "velocity": 100}, {"time": 1063, "pitch": 60, "duration": 8, "velocity": 76}, {"time": 1063, "pitch": 64, "duration": 7, "velocity": 80}, {"time": 1063, "pitch": 67, "duration": 7, "velocity": 87}, {"time": 1069, "pitch": 55, "duration": 7, "velocity": 55}, {"time": 1075, "pitch": 60, "duration": 5, "velocity": 100}, {"time": 1075, "pitch": 64, "duration": 5, "velocity": 100}, {"time": 1075, "pitch": 67, "duration": 5, "velocity": 100}, {"time": 1081, "pitch": 55, "duration": 2, "velocity": 52}, {"time": 1087, "pitch": 50, "duration": 15, "velocity": 102}, {"time": 1087, "pitch": 62, "duration": 6, "velocity": 80}, {"time": 1087, "pitch": 66, "duration": 9, "velocity": 74}, {"time": 1093, "pitch": 57, "duration": 7, "velocity": 57}, {"time": 1096, "pitch": 62, "duration": 2, "velocity": 73}, {"time": 1099, "pitch": 62, "duration": 4, "velocity": 89}, {"time": 1099, "pitch": 66, "duration": 4, "velocity": 96}, {"time": 1111, "pitch": 43, "duration": 9, "velocity": 100}, {"time": 1111, "pitch": 62, "duration": 6, "velocity": 80}, {"time": 1111, "pitch": 67, "duration": 7, "velocity": 89}, {"time": 1117, "pitch": 50, "duration": 4, "velocity": 47}, {"time": 1120, "pitch": 62, "duration": 2, "velocity": 92}, {"time": 1123, "pitch": 42, "duration": 12, "velocity": 87}, {"time": 1123, "pitch": 62, "duration": 11, "velocity": 89}, {"time": 1123, "pitch": 66, "duration": 12, "velocity": 105}, {"time": 1135, "pitch": 52, "duration": 15, "velocity": 97}, {"time": 1135, "pitch": 59, "duration": 4, "velocity": 78}, {"time": 1135, "pitch": 64, "duration": 7, "velocity": 87}, {"time": 1135, "pitch": 67, "duration": 7, "velocity": 87}, {"time": 1141, "pitch": 59, "duration": 3, "velocity": 71}, {"time": 1147, "pitch": 59, "duration": 2, "velocity": 92}, {"time": 1147, "pitch": 64, "duration": 11, "velocity": 94}, {"time": 1147, "pitch": 67, "duration": 12, "velocity": 94}, {"time": 1153, "pitch": 59, "duration": 6, "velocity": 67}, {"time": 1159, "pitch": 53, "duration": 16, "velocity": 100}, {"time": 1159, "pitch": 60, "duration": 4, "velocity": 89}, {"time": 1159, "pitch": 65, "duration": 7, "velocity": 92}, {"time": 1165, "pitch": 60, "duration": 4, "velocity": 82}, {"time": 1171, "pitch": 60, "duration": 3, "velocity": 102}, {"time": 1171, "pitch": 65, "duration": 4, "velocity": 102}, {"time": 1171, "pitch": 69, "duration": 7, "velocity": 100}, {"time": 1177, "pitch": 60, "duration": 4, "velocity": 82}, {"time": 1180, "pitch": 65, "duration": 2, "velocity": 82}, {"time": 1183, "pitch": 50, "duration": 15, "velocity": 89}, {"time": 1183, "pitch": 62, "duration": 7, "velocity": 69}, {"time": 1183, "pitch": 66, "duration": 8, "velocity": 93}, {"time": 1189, "pitch": 57, "duration": 9, "velocity": 69}, {"time": 1195, "pitch": 62, "duration": 3, "velocity": 100}, {"time": 1195, "pitch": 66, "duration": 6, "velocity": 105}, {"time": 1201, "pitch": 62, "duration": 4, "velocity": 76}, {"time": 1207, "pitch": 43, "duration": 22, "velocity": 100}, {"time": 1207, "pitch": 62, "duration": 3, "velocity": 80}, {"time": 1207, "pitch": 67, "duration": 3, "velocity": 84}, {"time": 1213, "pitch": 50, "duration": 9, "velocity": 46}, {"time": 1219, "pitch": 55, "duration": 6, "velocity": 82}, {"time": 1219, "pitch": 60, "duration": 7, "velocity": 73}, {"time": 1225, "pitch": 50, "duration": 5, "velocity": 87}, {"time": 1231, "pitch": 43, "duration": 15, "velocity": 94}, {"time": 1231, "pitch": 55, "duration": 6, "velocity": 94}, {"time": 1231, "pitch": 59, "duration": 6, "velocity": 100}, {"time": 1237, "pitch": 50, "duration": 7, "velocity": 67}, {"time": 1240, "pitch": 55, "duration": 2, "velocity": 82}, {"time": 1243, "pitch": 55, "duration": 11, "velocity": 94}, {"time": 1243, "pitch": 59, "duration": 11, "velocity": 111}, {"time": 1243, "pitch": 62, "duration": 12, "velocity": 100}, {"time": 1249, "pitch": 50, "duration": 6, "velocity": 100}, {"time": 1255, "pitch": 37, "duration": 4, "velocity": 82}, {"time": 1255, "pitch": 49, "duration": 4, "velocity": 82}, {"time": 1255, "pitch": 55, "duration": 4, "velocity": 100}, {"time": 1255, "pitch": 61, "duration": 2, "velocity": 68}, {"time": 1255, "pitch": 64, "duration": 2, "velocity": 97}, {"time": 1255, "pitch": 67, "duration": 2, "velocity": 102}, {"time": 1261, "pitch": 61, "duration": 2, "velocity": 55}, {"time": 1261, "pitch": 64, "duration": 2, "velocity": 78}, {"time": 1261, "pitch": 67, "duration": 2, "velocity": 82}, {"time": 1267, "pitch": 37, "duration": 3, "velocity": 96}, {"time": 1267, "pitch": 49, "duration": 3, "velocity": 96}, {"time": 1267, "pitch": 55, "duration": 3, "velocity": 94}, {"time": 1267, "pitch": 61, "duration": 2, "velocity": 70}, {"time": 1267, "pitch": 64, "duration": 2, "velocity": 87}, {"time": 1267, "pitch": 67, "duration": 2, "velocity": 94}, {"time": 1273, "pitch": 61, "duration": 2, "velocity": 61}, {"time": 1273, "pitch": 64, "duration": 1, "velocity": 89}, {"time": 1273, "pitch": 67, "duration": 3, "velocity": 89}, {"time": 1279, "pitch": 35, "duration": 4, "velocity": 100}, {"time": 1279, "pitch": 47, "duration": 4, "velocity": 100}, {"time": 1279, "pitch": 59, "duration": 2, "velocity": 94}, {"time": 1279, "pitch": 63, "duration": 2, "velocity": 96}, {"time": 1279, "pitch": 66, "duration": 3, "velocity": 74}, {"time": 1285, "pitch": 59, "duration": 3, "velocity": 78}, {"time": 1285, "pitch": 63, "duration": 2, "velocity": 79}, {"time": 1285, "pitch": 66, "duration": 2, "velocity": 72}, {"time": 1291, "pitch": 35, "duration": 6, "velocity": 100}, {"time": 1291, "pitch": 47, "duration": 6, "velocity": 100}, {"time": 1291, "pitch": 59, "duration": 2, "velocity": 102}, {"time": 1291, "pitch": 63, "duration": 2, "velocity": 105}, {"time": 1291, "pitch": 66, "duration": 2, "velocity": 90}, {"time": 1297, "pitch": 59, "duration": 2, "velocity": 71}, {"time": 1297, "pitch": 63, "duration": 2, "velocity": 55}, {"time": 1297, "pitch": 66, "duration": 3, "velocity": 74}, {"time": 1303, "pitch": 40, "duration": 6, "velocity": 105}, {"time": 1303, "pitch": 52, "duration": 6, "velocity": 105}, {"time": 1303, "pitch": 59, "duration": 2, "velocity": 94}, {"time": 1303, "pitch": 64, "duration": 2, "velocity": 100}, {"time": 1303, "pitch": 67, "duration": 2, "velocity": 97}, {"time": 1309, "pitch": 59, "duration": 2, "velocity": 71}, {"time": 1309, "pitch": 64, "duration": 2, "velocity": 87}, {"time": 1309, "pitch": 67, "duration": 2, "velocity": 82}, {"time": 1315, "pitch": 40, "duration": 7, "velocity": 94}, {"time": 1315, "pitch": 52, "duration": 7, "velocity": 94}, {"time": 1315, "pitch": 59, "duration": 2, "velocity": 94}, {"time": 1315, "pitch": 64, "duration": 2, "velocity": 97}, {"time": 1315, "pitch": 67, "duration": 2, "velocity": 94}, {"time": 1321, "pitch": 59, "duration": 2, "velocity": 92}, {"time": 1321, "pitch": 64, "duration": 1, "velocity": 94}, {"time": 1321, "pitch": 67, "duration": 2, "velocity": 82}, {"time": 1327, "pitch": 33, "duration": 8, "velocity": 100}, {"time": 1327, "pitch": 45, "duration": 8, "velocity": 100}, {"time": 1327, "pitch": 57, "duration": 3, "velocity": 82}, {"time": 1327, "pitch": 61, "duration": 2, "velocity": 65}, {"time": 1327, "pitch": 64, "duration": 3, "velocity": 43}, {"time": 1333, "pitch": 57, "duration": 2, "velocity": 84}, {"time": 1333, "pitch": 61, "duration": 1, "velocity": 93}, {"time": 1333, "pitch": 64, "duration": 2, "velocity": 92}, {"time": 1339, "pitch": 33, "duration": 8, "velocity": 102}, {"time": 1339, "pitch": 45, "duration": 8, "velocity": 102}, {"time": 1339, "pitch": 57, "duration": 2, "velocity": 97}, {"time": 1339, "pitch": 61, "duration": 2, "velocity": 102}, {"time": 1339, "pitch": 64, "duration": 2, "velocity": 100}, {"time": 1345, "pitch": 57, "duration": 2, "velocity": 82}, {"time": 1345, "pitch": 61, "duration": 2, "velocity": 74}, {"time": 1345, "pitch": 64, "duration": 2, "velocity": 87}, {"time": 1351, "pitch": 36, "duration": 8, "velocity": 71}, {"time": 1351, "pitch": 48, "duration": 8, "velocity": 71}, {"time": 1351, "pitch": 55, "duration": 3, "velocity": 100}, {"time": 1351, "pitch": 60, "duration": 3, "velocity": 100}, {"time": 1351, "pitch": 64, "duration": 2, "velocity": 97}, {"time": 1357, "pitch": 55, "duration": 1, "velocity": 82}, {"time": 1357, "pitch": 60, "duration": 1, "velocity": 94}, {"time": 1357, "pitch": 64, "duration": 1, "velocity": 84}, {"time": 1363, "pitch": 36, "duration": 9, "velocity": 102}, {"time": 1363, "pitch": 48, "duration": 9, "velocity": 102}, {"time": 1363, "pitch": 55, "duration": 2, "velocity": 87}, {"time": 1363, "pitch": 60, "duration": 2, "velocity": 94}, {"time": 1363, "pitch": 64, "duration": 2, "velocity": 92}, {"time": 1369, "pitch": 55, "duration": 2, "velocity": 80}, {"time": 1369, "pitch": 60, "duration": 2, "velocity": 82}, {"time": 1369, "pitch": 64, "duration": 2, "velocity": 82}, {"time": 1375, "pitch": 38, "duration": 9, "velocity": 97}, {"time": 1375, "pitch": 50, "duration": 9, "velocity": 97}, {"time": 1375, "pitch": 57, "duration": 3, "velocity": 92}, {"time": 1375, "pitch": 62, "duration": 3, "velocity": 105}, {"time": 1381, "pitch": 57, "duration": 2, "velocity": 55}, {"time": 1381, "pitch": 62, "duration": 2, "velocity": 78}, {"time": 1381, "pitch": 66, "duration": 2, "velocity": 40}, {"time": 1387, "pitch": 38, "duration": 7, "velocity": 102}, {"time": 1387, "pitch": 50, "duration": 7, "velocity": 102}, {"time": 1387, "pitch": 57, "duration": 2, "velocity": 100}, {"time": 1387, "pitch": 62, "duration": 2, "velocity": 105}, {"time": 1387, "pitch": 66, "duration": 3, "velocity": 102}, {"time": 1393, "pitch": 57, "duration": 2, "velocity": 84}, {"time": 1393, "pitch": 62, "duration": 2, "velocity": 89}, {"time": 1393, "pitch": 66, "duration": 2, "velocity": 82}, {"time": 1399, "pitch": 31, "duration": 9, "velocity": 105}, {"time": 1399, "pitch": 43, "duration": 9, "velocity": 105}, {"time": 1399, "pitch": 55, "duration": 2, "velocity": 80}, {"time": 1399, "pitch": 59, "duration": 2, "velocity": 92}, {"time": 1399, "pitch": 62, "duration": 2, "velocity": 89}, {"time": 1405, "pitch": 55, "duration": 2, "velocity": 52}, {"time": 1405, "pitch": 59, "duration": 2, "velocity": 62}, {"time": 1405, "pitch": 62, "duration": 2, "velocity": 80}, {"time": 1411, "pitch": 31, "duration": 9, "velocity": 102}, {"time": 1411, "pitch": 43, "duration": 9, "velocity": 102}, {"time": 1411, "pitch": 55, "duration": 3, "velocity": 92}, {"time": 1411, "pitch": 59, "duration": 3, "velocity": 100}, {"time": 1411, "pitch": 62, "duration": 3, "velocity": 92}, {"time": 1417, "pitch": 55, "duration": 2, "velocity": 60}, {"time": 1417, "pitch": 59, "duration": 2, "velocity": 66}, {"time": 1417, "pitch": 62, "duration": 2, "velocity": 64}, {"time": 1423, "pitch": 31, "duration": 4, "velocity": 100}, {"time": 1423, "pitch": 43, "duration": 4, "velocity": 100}, {"time": 1423, "pitch": 55, "duration": 2, "velocity": 84}, {"time": 1423, "pitch": 59, "duration": 2, "velocity": 97}, {"time": 1423, "pitch": 62, "duration": 2, "velocity": 87}, {"time": 1423, "pitch": 67, "duration": 3, "velocity": 87}, {"time": 1429, "pitch": 55, "duration": 2, "velocity": 78}, {"time": 1429, "pitch": 59, "duration": 2, "velocity": 87}, {"time": 1429, "pitch": 62, "duration": 2, "velocity": 71}, {"time": 1429, "pitch": 67, "duration": 3, "velocity": 69}, {"time": 1435, "pitch": 31, "duration": 7, "velocity": 108}, {"time": 1435, "pitch": 43, "duration": 7, "velocity": 108}, {"time": 1435, "pitch": 55, "duration": 3, "velocity": 89}, {"time": 1435, "pitch": 59, "duration": 3, "velocity": 108}, {"time": 1435, "pitch": 62, "duration": 3, "velocity": 100}, {"time": 1435, "pitch": 67, "duration": 3, "velocity": 87}, {"time": 1441, "pitch": 55, "duration": 3, "velocity": 84}, {"time": 1441, "pitch": 59, "duration": 3, "velocity": 105}, {"time": 1441, "pitch": 62, "duration": 3, "velocity": 89}, {"time": 1441, "pitch": 67, "duration": 3, "velocity": 87}, {"time": 1447, "pitch": 37, "duration": 4, "velocity": 82}, {"time": 1447, "pitch": 49, "duration": 4, "velocity": 82}, {"time": 1447, "pitch": 55, "duration": 4, "velocity": 100}, {"time": 1447, "pitch": 61, "duration": 2, "velocity": 68}, {"time": 1447, "pitch": 64, "duration": 2, "velocity": 97}, {"time": 1447, "pitch": 67, "duration": 2, "velocity": 102}, {"time": 1453, "pitch": 61, "duration": 2, "velocity": 55}, {"time": 1453, "pitch": 64, "duration": 2, "velocity": 78}, {"time": 1453, "pitch": 67, "duration": 2, "velocity": 82}, {"time": 1459, "pitch": 37, "duration": 3, "velocity": 96}, {"time": 1459, "pitch": 49, "duration": 3, "velocity": 96}, {"time": 1459, "pitch": 55, "duration": 3, "velocity": 94}, {"time": 1459, "pitch": 61, "duration": 2, "velocity": 70}, {"time": 1459, "pitch": 64, "duration": 2, "velocity": 87}, {"time": 1459, "pitch": 67, "duration": 2, "velocity": 94}, {"time": 1465, "pitch": 61, "duration": 2, "velocity": 61}, {"time": 1465, "pitch": 64, "duration": 1, "velocity": 89}, {"time": 1465, "pitch": 67, "duration": 3, "velocity": 89}, {"time": 1471, "pitch": 35, "duration": 4, "velocity": 100}, {"time": 1471, "pitch": 47, "duration": 4, "velocity": 100}, {"time": 1471, "pitch": 59, "duration": 2, "velocity": 94}, {"time": 1471, "pitch": 63, "duration": 2, "velocity": 96}, {"time": 1471, "pitch": 66, "duration": 3, "velocity": 74}, {"time": 1477, "pitch": 59, "duration": 3, "velocity": 78}, {"time": 1477, "pitch": 63, "duration": 2, "velocity": 79}, {"time": 1477, "pitch": 66, "duration": 2, "velocity": 72}, {"time": 1483, "pitch": 35, "duration": 6, "velocity": 100}, {"time": 1483, "pitch": 47, "duration": 6, "velocity": 100}, {"time": 1483, "pitch": 59, "duration": 2, "velocity": 102}, {"time": 1483, "pitch": 63, "duration": 2, "velocity": 105}, {"time": 1483, "pitch": 66, "duration": 2, "velocity": 90}, {"time": 1489, "pitch": 59, "duration": 2, "velocity": 71}, {"time": 1489, "pitch": 63, "duration": 2, "velocity": 55}, {"time": 1489, "pitch": 66, "duration": 3, "velocity": 74}, {"time": 1495, "pitch": 40, "duration": 6, "velocity": 105}, {"time": 1495, "pitch": 52, "duration": 6, "velocity": 105}, {"time": 1495, "pitch": 59, "duration": 2, "velocity": 94}, {"time": 1495, "pitch": 64, "duration": 2, "velocity": 100}, {"time": 1495, "pitch": 67, "duration": 2, "velocity": 97}, {"time": 1501, "pitch": 59, "duration": 2, "velocity": 71}, {"time": 1501, "pitch": 64, "duration": 2, "velocity": 87}, {"time": 1501, "pitch": 67, "duration": 2, "velocity": 82}, {"time": 1507, "pitch": 40, "duration": 7, "velocity": 94}, {"time": 1507, "pitch": 52, "duration": 7, "velocity": 94}, {"time": 1507, "pitch": 59, "duration": 2, "velocity": 94}, {"time": 1507, "pitch": 64, "duration": 2, "velocity": 97}, {"time": 1507, "pitch": 67, "duration": 2, "velocity": 94}, {"time": 1513, "pitch": 59, "duration": 2, "velocity": 92}, {"time": 1513, "pitch": 64, "duration": 1, "velocity": 94}, {"time": 1513, "pitch": 67, "duration": 2, "velocity": 82}, {"time": 1519, "pitch": 31, "duration": 8, "velocity": 102}, {"time": 1519, "pitch": 43, "duration": 8, "velocity": 102}, {"time": 1519, "pitch": 55, "duration": 2, "velocity": 76}, {"time": 1519, "pitch": 59, "duration": 2, "velocity": 87}, {"time": 1519, "pitch": 62, "duration": 2, "velocity": 87}, {"time": 1525, "pitch": 55, "duration": 2, "velocity": 78}, {"time": 1525, "pitch": 59, "duration": 2, "velocity": 92}, {"time": 1525, "pitch": 62, "duration": 2, "velocity": 87}, {"time": 1531, "pitch": 31, "duration": 8, "velocity": 102}, {"time": 1531, "pitch": 43, "duration": 8, "velocity": 102}, {"time": 1531, "pitch": 55, "duration": 3, "velocity": 94}, {"time": 1531, "pitch": 59, "duration": 3, "velocity": 102}, {"time": 1531, "pitch": 62, "duration": 3, "velocity": 94}, {"time": 1537, "pitch": 55, "duration": 2, "velocity": 92}, {"time": 1537, "pitch": 59, "duration": 2, "velocity": 97}, {"time": 1537, "pitch": 62, "duration": 2, "velocity": 94}, {"time": 1543, "pitch": 37, "duration": 4, "velocity": 63}, {"time": 1543, "pitch": 49, "duration": 4, "velocity": 63}, {"time": 1543, "pitch": 55, "duration": 4, "velocity": 80}, {"time": 1543, "pitch": 61, "duration": 2, "velocity": 70}, {"time": 1543, "pitch": 64, "duration": 2, "velocity": 97}, {"time": 1543, "pitch": 67, "duration": 2, "velocity": 100}, {"time": 1549, "pitch": 61, "duration": 2, "velocity": 79}, {"time": 1549, "pitch": 64, "duration": 2, "velocity": 94}, {"time": 1549, "pitch": 67, "duration": 3, "velocity": 94}, {"time": 1555, "pitch": 37, "duration": 3, "velocity": 85}, {"time": 1555, "pitch": 49, "duration": 3, "velocity": 85}, {"time": 1555, "pitch": 55, "duration": 3, "velocity": 94}, {"time": 1555, "pitch": 61, "duration": 2, "velocity": 85}, {"time": 1555, "pitch": 64, "duration": 2, "velocity": 92}, {"time": 1555, "pitch": 67, "duration": 2, "velocity": 97}, {"time": 1561, "pitch": 61, "duration": 3, "velocity": 87}, {"time": 1561, "pitch": 64, "duration": 2, "velocity": 92}, {"time": 1561, "pitch": 67, "duration": 3, "velocity": 100}, {"time": 1567, "pitch": 37, "duration": 4, "velocity": 57}, {"time": 1567, "pitch": 49, "duration": 4, "velocity": 57}, {"time": 1567, "pitch": 55, "duration": 4, "velocity": 80}, {"time": 1567, "pitch": 61, "duration": 2, "velocity": 59}, {"time": 1567, "pitch": 64, "duration": 2, "velocity": 100}, {"time": 1567, "pitch": 67, "duration": 2, "velocity": 102}, {"time": 1573, "pitch": 61, "duration": 2, "velocity": 70}, {"time": 1573, "pitch": 64, "duration": 2, "velocity": 92}, {"time": 1573, "pitch": 67, "duration": 2, "velocity": 94}, {"time": 1579, "pitch": 37, "duration": 4, "velocity": 68}, {"time": 1579, "pitch": 49, "duration": 4, "velocity": 68}, {"time": 1579, "pitch": 55, "duration": 3, "velocity": 87}, {"time": 1579, "pitch": 61, "duration": 3, "velocity": 82}, {"time": 1579, "pitch": 64, "duration": 3, "velocity": 97}, {"time": 1579, "pitch": 67, "duration": 3, "velocity": 97}, {"time": 1585, "pitch": 61, "duration": 2, "velocity": 87}, {"time": 1585, "pitch": 64, "duration": 1, "velocity": 92}, {"time": 1585, "pitch": 67, "duration": 3, "velocity": 102}, {"time": 1591, "pitch": 35, "duration": 8, "velocity": 105}, {"time": 1591, "pitch": 47, "duration": 8, "velocity": 105}, {"time": 1591, "pitch": 59, "duration": 2, "velocity": 89}, {"time": 1591, "pitch": 63, "duration": 2, "velocity": 99}, {"time": 1591, "pitch": 66, "duration": 2, "velocity": 96}, {"time": 1597, "pitch": 59, "duration": 2, "velocity": 94}, {"time": 1597, "pitch": 63, "duration": 2, "velocity": 93}, {"time": 1597, "pitch": 66, "duration": 2, "velocity": 85}, {"time": 1603, "pitch": 35, "duration": 8, "velocity": 102}, {"time": 1603, "pitch": 47, "duration": 8, "velocity": 102}, {"time": 1603, "pitch": 59, "duration": 2, "velocity": 97}, {"time": 1603, "pitch": 63, "duration": 2, "velocity": 99}, {"time": 1603, "pitch": 66, "duration": 3, "velocity": 96}, {"time": 1609, "pitch": 59, "duration": 2, "velocity": 92}, {"time": 1609, "pitch": 63, "duration": 2, "velocity": 90}, {"time": 1609, "pitch": 66, "duration": 3, "velocity": 93}, {"time": 1615, "pitch": 35, "duration": 9, "velocity": 108}, {"time": 1615, "pitch": 47, "duration": 9, "velocity": 108}, {"time": 1615, "pitch": 59, "duration": 2, "velocity": 94}, {"time": 1615, "pitch": 63, "duration": 2, "velocity": 93}, {"time": 1615, "pitch": 66, "duration": 3, "velocity": 87}, {"time": 1621, "pitch": 59, "duration": 2, "velocity": 100}, {"time": 1621, "pitch": 63, "duration": 2, "velocity": 102}, {"time": 1621, "pitch": 66, "duration": 3, "velocity": 93}, {"time": 1627, "pitch": 35, "duration": 11, "velocity": 105}, {"time": 1627, "pitch": 47, "duration": 11, "velocity": 105}, {"time": 1627, "pitch": 59, "duration": 2, "velocity": 100}, {"time": 1627, "pitch": 63, "duration": 3, "velocity": 102}, {"time": 1627, "pitch": 66, "duration": 3, "velocity": 102}, {"time": 1633, "pitch": 59, "duration": 5, "velocity": 105}, {"time": 1633, "pitch": 63, "duration": 5, "velocity": 112}, {"time": 1633, "pitch": 66, "duration": 5, "velocity": 109}, {"time": 1639, "pitch": 52, "duration": 44, "velocity": 117}, {"time": 1639, "pitch": 59, "duration": 3, "velocity": 100}, {"time": 1639, "pitch": 64, "duration": 6, "velocity": 105}, {"time": 1639, "pitch": 68, "duration": 7, "velocity": 93}, {"time": 1645, "pitch": 59, "duration": 3, "velocity": 80}, {"time": 1651, "pitch": 59, "duration": 3, "velocity": 108}, {"time": 1651, "pitch": 64, "duration": 8, "velocity": 108}, {"time": 1651, "pitch": 68, "duration": 9, "velocity": 105}, {"time": 1657, "pitch": 59, "duration": 5, "velocity": 80}, {"time": 1663, "pitch": 59, "duration": 3, "velocity": 89}, {"time": 1663, "pitch": 64, "duration": 8, "velocity": 102}, {"time": 1663, "pitch": 68, "duration": 9, "velocity": 90}, {"time": 1669, "pitch": 59, "duration": 4, "velocity": 84}, {"time": 1675, "pitch": 59, "duration": 3, "velocity": 108}, {"time": 1675, "pitch": 64, "duration": 7, "velocity": 108}, {"time": 1675, "pitch": 68, "duration": 7, "velocity": 99}, {"time": 1681, "pitch": 59, "duration": 4, "velocity": 84}, {"time": 1687, "pitch": 47, "duration": 13, "velocity": 105}, {"time": 1687, "pitch": 59, "duration": 3, "velocity": 105}, {"time": 1687, "pitch": 63, "duration": 7, "velocity": 99}, {"time": 1687, "pitch": 66, "duration": 7, "velocity": 93}, {"time": 1693, "pitch": 59, "duration": 4, "velocity": 69}, {"time": 1699, "pitch": 59, "duration": 4, "velocity": 108}, {"time": 1699, "pitch": 63, "duration": 9, "velocity": 105}, {"time": 1699, "pitch": 66, "duration": 9, "velocity": 85}, {"time": 1705, "pitch": 54, "duration": 10, "velocity": 72}, {"time": 1711, "pitch": 59, "duration": 4, "velocity": 108}, {"time": 1711, "pitch": 63, "duration": 7, "velocity": 109}, {"time": 1711, "pitch": 66, "duration": 10, "velocity": 90}, {"time": 1711, "pitch": 71, "duration": 8, "velocity": 87}, {"time": 1717, "pitch": 47, "duration": 10, "velocity": 58}, {"time": 1717, "pitch": 59, "duration": 4, "velocity": 67}, {"time": 1723, "pitch": 59, "duration": 2, "velocity": 111}, {"time": 1723, "pitch": 63, "duration": 6, "velocity": 112}, {"time": 1723, "pitch": 66, "duration": 6, "velocity": 109}, {"time": 1723, "pitch": 71, "duration": 5, "velocity": 94}, {"time": 1729, "pitch": 59, "duration": 2, "velocity": 108}, {"time": 1735, "pitch": 49, "duration": 16, "velocity": 102}, {"time": 1735, "pitch": 61, "duration": 8, "velocity": 90}, {"time": 1735, "pitch": 64, "duration": 6, "velocity": 100}, {"time": 1735, "pitch": 68, "duration": 7, "velocity": 72}, {"time": 1741, "pitch": 56, "duration": 9, "velocity": 45}, {"time": 1747, "pitch": 61, "duration": 3, "velocity": 102}, {"time": 1747, "pitch": 64, "duration": 5, "velocity": 111}, {"time": 1747, "pitch": 68, "duration": 7, "velocity": 96}, {"time": 1753, "pitch": 61, "duration": 4, "velocity": 87}, {"time": 1759, "pitch": 49, "duration": 14, "velocity": 77}, {"time": 1759, "pitch": 61, "duration": 4, "velocity": 90}, {"time": 1759, "pitch": 64, "duration": 7, "velocity": 108}, {"time": 1759, "pitch": 68, "duration": 10, "velocity": 82}, {"time": 1765, "pitch": 61, "duration": 4, "velocity": 72}, {"time": 1771, "pitch": 61, "duration": 2, "velocity": 99}, {"time": 1771, "pitch": 64, "duration": 4, "velocity": 108}, {"time": 1771, "pitch": 68, "duration": 7, "velocity": 96}, {"time": 1777, "pitch": 61, "duration": 2, "velocity": 93}, {"time": 1783, "pitch": 44, "duration": 23, "velocity": 102}, {"time": 1783, "pitch": 56, "duration": 10, "velocity": 82}, {"time": 1783, "pitch": 59, "duration": 7, "velocity": 94}, {"time": 1783, "pitch": 63, "duration": 7, "velocity": 65}, {"time": 1789, "pitch": 51, "duration": 17, "velocity": 50}, {"time": 1795, "pitch": 56, "duration": 3, "velocity": 99}, {"time": 1795, "pitch": 59, "duration": 4, "velocity": 108}, {"time": 1795, "pitch": 63, "duration": 5, "velocity": 99}, {"time": 1801, "pitch": 56, "duration": 4, "velocity": 102}, {"time": 1801, "pitch": 63, "duration": 1, "velocity": 38}, {"time": 1807, "pitch": 44, "duration": 10, "velocity": 102}, {"time": 1807, "pitch": 56, "duration": 3, "velocity": 99}, {"time": 1807, "pitch": 59, "duration": 4, "velocity": 111}, {"time": 1807, "pitch": 63, "duration": 7, "velocity": 90}, {"time": 1813, "pitch": 56, "duration": 3, "velocity": 96}, {"time": 1819, "pitch": 44, "duration": 9, "velocity": 109}, {"time": 1819, "pitch": 56, "duration": 3, "velocity": 102}, {"time": 1819, "pitch": 59, "duration": 4, "velocity": 108}, {"time": 1819, "pitch": 63, "duration": 9, "velocity": 93}, {"time": 1825, "pitch": 56, "duration": 5, "velocity": 102}, {"time": 1825, "pitch": 59, "duration": 1, "velocity": 37}, {"time": 1831, "pitch": 45, "duration": 20, "velocity": 105}, {"time": 1831, "pitch": 57, "duration": 8, "velocity": 94}, {"time": 1831, "pitch": 61, "duration": 9, "velocity": 102}, {"time": 1831, "pitch": 64, "duration": 8, "velocity": 97}, {"time": 1837, "pitch": 52, "duration": 9, "velocity": 94}, {"time": 1843, "pitch": 57, "duration": 6, "velocity": 100}, {"time": 1843, "pitch": 61, "duration": 6, "velocity": 102}, {"time": 1843, "pitch": 64, "duration": 6, "velocity": 100}, {"time": 1849, "pitch": 52, "duration": 5, "velocity": 97}, {"time": 1855, "pitch": 47, "duration": 11, "velocity": 105}, {"time": 1855, "pitch": 59, "duration": 4, "velocity": 97}, {"time": 1855, "pitch": 63, "duration": 8, "velocity": 77}, {"time": 1855, "pitch": 66, "duration": 11, "velocity": 85}, {"time": 1861, "pitch": 59, "duration": 4, "velocity": 92}, {"time": 1867, "pitch": 47, "duration": 7, "velocity": 97}, {"time": 1867, "pitch": 54, "duration": 6, "velocity": 93}, {"time": 1867, "pitch": 59, "duration": 3, "velocity": 111}, {"time": 1867, "pitch": 63, "duration": 6, "velocity": 112}, {"time": 1867, "pitch": 66, "duration": 7, "velocity": 102}, {"time": 1873, "pitch": 59, "duration": 2, "velocity": 102}, {"time": 1879, "pitch": 44, "duration": 15, "velocity": 105}, {"time": 1879, "pitch": 56, "duration": 7, "velocity": 59}, {"time": 1879, "pitch": 59, "duration": 6, "velocity": 89}, {"time": 1879, "pitch": 63, "duration": 7, "velocity": 63}, {"time": 1885, "pitch": 51, "duration": 11, "velocity": 96}, {"time": 1891, "pitch": 56, "duration": 3, "velocity": 105}, {"time": 1891, "pitch": 59, "duration": 4, "velocity": 117}, {"time": 1891, "pitch": 63, "duration": 7, "velocity": 99}, {"time": 1897, "pitch": 44, "duration": 2, "velocity": 96}, {"time": 1897, "pitch": 56, "duration": 1, "velocity": 96}, {"time": 1903, "pitch": 49, "duration": 15, "velocity": 109}, {"time": 1903, "pitch": 61, "duration": 9, "velocity": 61}, {"time": 1903, "pitch": 64, "duration": 7, "velocity": 92}, {"time": 1903, "pitch": 68, "duration": 9, "velocity": 63}, {"time": 1909, "pitch": 56, "duration": 10, "velocity": 93}, {"time": 1915, "pitch": 61, "duration": 3, "velocity": 99}, {"time": 1915, "pitch": 64, "duration": 4, "velocity": 114}, {"time": 1915, "pitch": 68, "duration": 11, "velocity": 102}, {"time": 1921, "pitch": 61, "duration": 6, "velocity": 102}, {"time": 1921, "pitch": 64, "duration": 1, "velocity": 49}, {"time": 1927, "pitch": 42, "duration": 23, "velocity": 93}, {"time": 1927, "pitch": 54, "duration": 5, "velocity": 90}, {"time": 1927, "pitch": 57, "duration": 5, "velocity": 105}, {"time": 1927, "pitch": 61, "duration": 5, "velocity": 93}, {"time": 1933, "pitch": 49, "duration": 10, "velocity": 61}, {"time": 1939, "pitch": 54, "duration": 3, "velocity": 93}, {"time": 1939, "pitch": 57, "duration": 4, "velocity": 105}, {"time": 1939, "pitch": 61, "duration": 3, "velocity": 77}, {"time": 1939, "pitch": 66, "duration": 7, "velocity": 72}, {"time": 1945, "pitch": 54, "duration": 5, "velocity": 87}, {"time": 1951, "pitch": 42, "duration": 13, "velocity": 102}, {"time": 1951, "pitch": 54, "duration": 4, "velocity": 82}, {"time": 1951, "pitch": 57, "duration": 4, "velocity": 102}, {"time": 1951, "pitch": 61, "duration": 7, "velocity": 68}, {"time": 1957, "pitch": 54, "duration": 4, "velocity": 90}, {"time": 1963, "pitch": 54, "duration": 3, "velocity": 99}, {"time": 1963, "pitch": 57, "duration": 3, "velocity": 114}, {"time": 1963, "pitch": 61, "duration": 3, "velocity": 102}, {"time": 1963, "pitch": 66, "duration": 5, "velocity": 79}, {"time": 1975, "pitch": 47, "duration": 22, "velocity": 108}, {"time": 1975, "pitch": 59, "duration": 4, "velocity": 92}, {"time": 1975, "pitch": 63, "duration": 6, "velocity": 96}, {"time": 1975, "pitch": 66, "duration": 9, "velocity": 72}, {"time": 1981, "pitch": 59, "duration": 4, "velocity": 89}, {"time": 1987, "pitch": 59, "duration": 4, "velocity": 117}, {"time": 1987, "pitch": 63, "duration": 6, "velocity": 116}, {"time": 1987, "pitch": 66, "duration": 4, "velocity": 109}, {"time": 1993, "pitch": 54, "duration": 5, "velocity": 74}, {"time": 1996, "pitch": 59, "duration": 2, "velocity": 100}, {"time": 1999, "pitch": 47, "duration": 23, "velocity": 108}, {"time": 1999, "pitch": 59, "duration": 6, "velocity": 114}, {"time": 1999, "pitch": 63, "duration": 6, "velocity": 112}, {"time": 1999, "pitch": 66, "duration": 6, "velocity": 105}, {"time": 1999, "pitch": 71, "duration": 7, "velocity": 97}, {"time": 2005, "pitch": 54, "duration": 8, "velocity": 82}, {"time": 2011, "pitch": 59, "duration": 11, "velocity": 111}, {"time": 2011, "pitch": 63, "duration": 11, "velocity": 112}, {"time": 2011, "pitch": 66, "duration": 11, "velocity": 99}, {"time": 2017, "pitch": 54, "duration": 5, "velocity": 102}, {"time": 2023, "pitch": 52, "duration": 44, "velocity": 117}, {"time": 2023, "pitch": 59, "duration": 3, "velocity": 100}, {"time": 2023, "pitch": 64, "duration": 6, "velocity": 105}, {"time": 2023, "pitch": 68, "duration": 7, "velocity": 93}, {"time": 2029, "pitch": 59, "duration": 3, "velocity": 80}, {"time": 2035, "pitch": 59, "duration": 3, "velocity": 108}, {"time": 2035, "pitch": 64, "duration": 8, "velocity": 108}, {"time": 2035, "pitch": 68, "duration": 9, "velocity": 105}, {"time": 2041, "pitch": 59, "duration": 5, "velocity": 80}, {"time": 2047, "pitch": 59, "duration": 3, "velocity": 89}, {"time": 2047, "pitch": 64, "duration": 8, "velocity": 102}, {"time": 2047, "pitch": 68, "duration": 9, "velocity": 90}, {"time": 2053, "pitch": 59, "duration": 4, "velocity": 84}, {"time": 2059, "pitch": 59, "duration": 3, "velocity": 108}, {"time": 2059, "pitch": 64, "duration": 7, "velocity": 108}, {"time": 2059, "pitch": 68, "duration": 7, "velocity": 99}, {"time": 2065, "pitch": 59, "duration": 4, "velocity": 84}, {"time": 2071, "pitch": 47, "duration": 13, "velocity": 105}, {"time": 2071, "pitch": 59, "duration": 3, "velocity": 105}, {"time": 2071, "pitch": 63, "duration": 7, "velocity": 99}, {"time": 2071, "pitch": 66, "duration": 7, "velocity": 93}, {"time": 2077, "pitch": 59, "duration": 4, "velocity": 69}, {"time": 2083, "pitch": 59, "duration": 4, "velocity": 108}, {"time": 2083, "pitch": 63, "duration": 9, "velocity": 105}, {"time": 2083, "pitch": 66, "duration": 9, "velocity": 85}, {"time": 2089, "pitch": 54, "duration": 10, "velocity": 72}, {"time": 2095, "pitch": 59, "duration": 4, "velocity": 108}, {"time": 2095, "pitch": 63, "duration": 7, "velocity": 109}, {"time": 2095, "pitch": 66, "duration": 10, "velocity": 90}, {"time": 2095, "pitch": 71, "duration": 8, "velocity": 87}, {"time": 2101, "pitch": 47, "duration": 10, "velocity": 58}, {"time": 2101, "pitch": 59, "duration": 4, "velocity": 67}, {"time": 2107, "pitch": 59, "duration": 2, "velocity": 111}, {"time": 2107, "pitch": 63, "duration": 6, "velocity": 112}, {"time": 2107, "pitch": 66, "duration": 6, "velocity": 109}, {"time": 2107, "pitch": 71, "duration": 5, "velocity": 94}, {"time": 2113, "pitch": 59, "duration": 2, "velocity": 108}, {"time": 2119, "pitch": 49, "duration": 16, "velocity": 102}, {"time": 2119, "pitch": 61, "duration": 8, "velocity": 90}, {"time": 2119, "pitch": 64, "duration": 6, "velocity": 100}, {"time": 2119, "pitch": 68, "duration": 7, "velocity": 72}, {"time": 2125, "pitch": 56, "duration": 9, "velocity": 45}, {"time": 2131, "pitch": 61, "duration": 3, "velocity": 102}, {"time": 2131, "pitch": 64, "duration": 5, "velocity": 111}, {"time": 2131, "pitch": 68, "duration": 7, "velocity": 96}, {"time": 2137, "pitch": 61, "duration": 4, "velocity": 87}, {"time": 2143, "pitch": 49, "duration": 14, "velocity": 77}, {"time": 2143, "pitch": 61, "duration": 4, "velocity": 90}, {"time": 2143, "pitch": 64, "duration": 7, "velocity": 108}, {"time": 2143, "pitch": 68, "duration": 10, "velocity": 82}, {"time": 2149, "pitch": 61, "duration": 4, "velocity": 72}, {"time": 2155, "pitch": 61, "duration": 2, "velocity": 99}, {"time": 2155, "pitch": 64, "duration": 4, "velocity": 108}, {"time": 2155, "pitch": 68, "duration": 7, "velocity": 96}, {"time": 2161, "pitch": 61, "duration": 2, "velocity": 93}, {"time": 2167, "pitch": 44, "duration": 23, "velocity": 102}, {"time": 2167, "pitch": 56, "duration": 10, "velocity": 82}, {"time": 2167, "pitch": 59, "duration": 7, "velocity": 94}, {"time": 2167, "pitch": 63, "duration": 7, "velocity": 65}, {"time": 2173, "pitch": 51, "duration": 17, "velocity": 50}, {"time": 2179, "pitch": 56, "duration": 3, "velocity": 99}, {"time": 2179, "pitch": 59, "duration": 4, "velocity": 108}, {"time": 2179, "pitch": 63, "duration": 5, "velocity": 99}, {"time": 2185, "pitch": 56, "duration": 4, "velocity": 102}, {"time": 2185, "pitch": 63, "duration": 1, "velocity": 38}, {"time": 2191, "pitch": 44, "duration": 10, "velocity": 102}, {"time": 2191, "pitch": 56, "duration": 3, "velocity": 99}, {"time": 2191, "pitch": 59, "duration": 4, "velocity": 111}, {"time": 2191, "pitch": 63, "duration": 7, "velocity": 90}, {"time": 2197, "pitch": 56, "duration": 3, "velocity": 96}, {"time": 2203, "pitch": 44, "duration": 9, "velocity": 109}, {"time": 2203, "pitch": 56, "duration": 3, "velocity": 102}, {"time": 2203, "pitch": 59, "duration": 4, "velocity": 108}, {"time": 2203, "pitch": 63, "duration": 9, "velocity": 93}, {"time": 2209, "pitch": 56, "duration": 5, "velocity": 102}, {"time": 2209, "pitch": 59, "duration": 1, "velocity": 37}, {"time": 2215, "pitch": 45, "duration": 20, "velocity": 105}, {"time": 2215, "pitch": 57, "duration": 8, "velocity": 94}, {"time": 2215, "pitch": 61, "duration": 9, "velocity": 102}, {"time": 2215, "pitch": 64, "duration": 8, "velocity": 97}, {"time": 2221, "pitch": 52, "duration": 9, "velocity": 94}, {"time": 2227, "pitch": 57, "duration": 6, "velocity": 100}, {"time": 2227, "pitch": 61, "duration": 6, "velocity": 102}, {"time": 2227, "pitch": 64, "duration": 6, "velocity": 100}, {"time": 2233, "pitch": 52, "duration": 5, "velocity": 97}, {"time": 2239, "pitch": 47, "duration": 11, "velocity": 105}, {"time": 2239, "pitch": 59, "duration": 4, "velocity": 97}, {"time": 2239, "pitch": 63, "duration": 8, "velocity": 77}, {"time": 2239, "pitch": 66, "duration": 11, "velocity": 85}, {"time": 2245, "pitch": 59, "duration": 4, "velocity": 92}, {"time": 2251, "pitch": 47, "duration": 7, "velocity": 97}, {"time": 2251, "pitch": 54, "duration": 6, "velocity": 93}, {"time": 2251, "pitch": 59, "duration": 3, "velocity": 111}, {"time": 2251, "pitch": 63, "duration": 6, "velocity": 112}, {"time": 2251, "pitch": 66, "duration": 7, "velocity": 102}, {"time": 2257, "pitch": 59, "duration": 2, "velocity": 102}, {"time": 2263, "pitch": 44, "duration": 15, "velocity": 105}, {"time": 2263, "pitch": 56, "duration": 7, "velocity": 59}, {"time": 2263, "pitch": 59, "duration": 6, "velocity": 89}, {"time": 2263, "pitch": 63, "duration": 7, "velocity": 63}, {"time": 2269, "pitch": 51, "duration": 11, "velocity": 96}, {"time": 2275, "pitch": 56, "duration": 3, "velocity": 105}, {"time": 2275, "pitch": 59, "duration": 4, "velocity": 117}, {"time": 2275, "pitch": 63, "duration": 7, "velocity": 99}, {"time": 2281, "pitch": 44, "duration": 2, "velocity": 96}, {"time": 2281, "pitch": 56, "duration": 1, "velocity": 96}, {"time": 2287, "pitch": 49, "duration": 15, "velocity": 109}, {"time": 2287, "pitch": 61, "duration": 9, "velocity": 61}, {"time": 2287, "pitch": 64, "duration": 7, "velocity": 92}, {"time": 2287, "pitch": 68, "duration": 9, "velocity": 63}, {"time": 2293, "pitch": 56, "duration": 10, "velocity": 93}, {"time": 2299, "pitch": 61, "duration": 3, "velocity": 99}, {"time": 2299, "pitch": 64, "duration": 4, "velocity": 114}, {"time": 2299, "pitch": 68, "duration": 11, "velocity": 102}, {"time": 2305, "pitch": 61, "duration": 6, "velocity": 102}, {"time": 2305, "pitch": 64, "duration": 1, "velocity": 49}, {"time": 2311, "pitch": 42, "duration": 23, "velocity": 93}, {"time": 2311, "pitch": 54, "duration": 5, "velocity": 90}, {"time": 2311, "pitch": 57, "duration": 5, "velocity": 105}, {"time": 2311, "pitch": 61, "duration": 5, "velocity": 93}, {"time": 2317, "pitch": 49, "duration": 10, "velocity": 61}, {"time": 2323, "pitch": 54, "duration": 3, "velocity": 93}, {"time": 2323, "pitch": 57, "duration": 4, "velocity": 105}, {"time": 2323, "pitch": 61, "duration": 3, "velocity": 77}, {"time": 2323, "pitch": 66, "duration": 7, "velocity": 72}, {"time": 2329, "pitch": 54, "duration": 5, "velocity": 87}, {"time": 2335, "pitch": 47, "duration": 16, "velocity": 105}, {"time": 2335, "pitch": 59, "duration": 4, "velocity": 84}, {"time": 2335, "pitch": 63, "duration": 9, "velocity": 57}, {"time": 2335, "pitch": 66, "duration": 10, "velocity": 65}, {"time": 2335, "pitch": 71, "duration": 9, "velocity": 92}, {"time": 2341, "pitch": 54, "duration": 8, "velocity": 61}, {"time": 2347, "pitch": 59, "duration": 2, "velocity": 102}, {"time": 2347, "pitch": 63, "duration": 5, "velocity": 109}, {"time": 2347, "pitch": 66, "duration": 7, "velocity": 102}, {"time": 2347, "pitch": 71, "duration": 6, "velocity": 94}, {"time": 2353, "pitch": 59, "duration": 5, "velocity": 105}, {"time": 2359, "pitch": 52, "duration": 20, "velocity": 100}, {"time": 2359, "pitch": 59, "duration": 3, "velocity": 94}, {"time": 2359, "pitch": 64, "duration": 9, "velocity": 100}, {"time": 2359, "pitch": 68, "duration": 8, "velocity": 70}, {"time": 2365, "pitch": 59, "duration": 4, "velocity": 71}, {"time": 2371, "pitch": 59, "duration": 2, "velocity": 105}, {"time": 2371, "pitch": 64, "duration": 3, "velocity": 102}, {"time": 2371, "pitch": 68, "duration": 4, "velocity": 96}, {"time": 2377, "pitch": 59, "duration": 5, "velocity": 100}, {"time": 2383, "pitch": 52, "duration": 11, "velocity": 105}, {"time": 2383, "pitch": 59, "duration": 3, "velocity": 105}, {"time": 2383, "pitch": 64, "duration": 7, "velocity": 100}, {"time": 2383, "pitch": 68, "duration": 10, "velocity": 70}, {"time": 2389, "pitch": 59, "duration": 4, "velocity": 89}, {"time": 2395, "pitch": 64, "duration": 11, "velocity": 87}, {"time": 2395, "pitch": 68, "duration": 12, "velocity": 63}, {"time": 2401, "pitch": 59, "duration": 6, "velocity": 97}, {"time": 2455, "pitch": 43, "duration": 38, "velocity": 89}, {"time": 2455, "pitch": 55, "duration": 6, "velocity": 73}, {"time": 2455, "pitch": 62, "duration": 5, "velocity": 78}, {"time": 2461, "pitch": 50, "duration": 8, "velocity": 30}, {"time": 2467, "pitch": 55, "duration": 4, "velocity": 87}, {"time": 2467, "pitch": 59, "duration": 3, "velocity": 89}, {"time": 2467, "pitch": 62, "duration": 4, "velocity": 84}, {"time": 2473, "pitch": 50, "duration": 3, "velocity": 21}, {"time": 2476, "pitch": 55, "duration": 2, "velocity": 84}, {"time": 2476, "pitch": 62, "duration": 3, "velocity": 80}, {"time": 2479, "pitch": 50, "duration": 2, "velocity": 33}, {"time": 2482, "pitch": 55, "duration": 3, "velocity": 67}, {"time": 2485, "pitch": 50, "duration": 8, "velocity": 58}, {"time": 2491, "pitch": 55, "duration": 2, "velocity": 87}, {"time": 2491, "pitch": 59, "duration": 2, "velocity": 94}, {"time": 2491, "pitch": 62, "duration": 3, "velocity": 92}, {"time": 2503, "pitch": 50, "duration": 22, "velocity": 73}, {"time": 2503, "pitch": 57, "duration": 7, "velocity": 58}, {"time": 2503, "pitch": 62, "duration": 6, "velocity": 71}, {"time": 2515, "pitch": 57, "duration": 2, "velocity": 97}, {"time": 2515, "pitch": 66, "duration": 2, "velocity": 79}, {"time": 2524, "pitch": 57, "duration": 4, "velocity": 69}, {"time": 2524, "pitch": 62, "duration": 4, "velocity": 84}, {"time": 2527, "pitch": 50, "duration": 2, "velocity": 51}, {"time": 2530, "pitch": 57, "duration": 4, "velocity": 87}, {"time": 2533, "pitch": 50, "duration": 11, "velocity": 82}, {"time": 2536, "pitch": 57, "duration": 2, "velocity": 100}, {"time": 2539, "pitch": 57, "duration": 4, "velocity": 108}, {"time": 2539, "pitch": 62, "duration": 4, "velocity": 108}, {"time": 2551, "pitch": 52, "duration": 22, "velocity": 87}, {"time": 2551, "pitch": 59, "duration": 7, "velocity": 80}, {"time": 2551, "pitch": 64, "duration": 7, "velocity": 82}, {"time": 2563, "pitch": 59, "duration": 3, "velocity": 89}, {"time": 2563, "pitch": 67, "duration": 3, "velocity": 94}, {"time": 2572, "pitch": 59, "duration": 4, "velocity": 67}, {"time": 2572, "pitch": 64, "duration": 5, "velocity": 73}, {"time": 2575, "pitch": 52, "duration": 11, "velocity": 60}, {"time": 2578, "pitch": 59, "duration": 4, "velocity": 67}, {"time": 2581, "pitch": 64, "duration": 2, "velocity": 42}, {"time": 2587, "pitch": 52, "duration": 5, "velocity": 82}, {"time": 2587, "pitch": 59, "duration": 3, "velocity": 84}, {"time": 2587, "pitch": 64, "duration": 4, "velocity": 78}, {"time": 2587, "pitch": 67, "duration": 5, "velocity": 84}, {"time": 2593, "pitch": 59, "duration": 2, "velocity": 67}, {"time": 2599, "pitch": 50, "duration": 24, "velocity": 87}, {"time": 2599, "pitch": 57, "duration": 9, "velocity": 78}, {"time": 2599, "pitch": 62, "duration": 9, "velocity": 87}, {"time": 2599, "pitch": 66, "duration": 9, "velocity": 65}, {"time": 2611, "pitch": 62, "duration": 11, "velocity": 97}, {"time": 2611, "pitch": 66, "duration": 12, "velocity": 99}, {"time": 2617, "pitch": 57, "duration": 5, "velocity": 87}, {"time": 2623, "pitch": 43, "duration": 45, "velocity": 94}, {"time": 2623, "pitch": 55, "duration": 7, "velocity": 73}, {"time": 2623, "pitch": 59, "duration": 6, "velocity": 89}, {"time": 2635, "pitch": 55, "duration": 3, "velocity": 78}, {"time": 2635, "pitch": 62, "duration": 3, "velocity": 80}, {"time": 2641, "pitch": 50, "duration": 3, "velocity": 7}, {"time": 2644, "pitch": 55, "duration": 4, "velocity": 62}, {"time": 2644, "pitch": 59, "duration": 4, "velocity": 73}, {"time": 2656, "pitch": 55, "duration": 2, "velocity": 76}, {"time": 2659, "pitch": 50, "duration": 7, "velocity": 82}, {"time": 2659, "pitch": 55, "duration": 4, "velocity": 84}, {"time": 2659, "pitch": 59, "duration": 4, "velocity": 97}, {"time": 2659, "pitch": 62, "duration": 5, "velocity": 87}, {"time": 2671, "pitch": 50, "duration": 27, "velocity": 51}, {"time": 2671, "pitch": 57, "duration": 9, "velocity": 76}, {"time": 2671, "pitch": 62, "duration": 8, "velocity": 84}, {"time": 2683, "pitch": 57, "duration": 2, "velocity": 84}, {"time": 2683, "pitch": 66, "duration": 4, "velocity": 61}, {"time": 2692, "pitch": 57, "duration": 1, "velocity": 78}, {"time": 2695, "pitch": 57, "duration": 7, "velocity": 94}, {"time": 2695, "pitch": 62, "duration": 7, "velocity": 87}, {"time": 2701, "pitch": 50, "duration": 5, "velocity": 76}, {"time": 2704, "pitch": 57, "duration": 5, "velocity": 102}, {"time": 2704, "pitch": 62, "duration": 7, "velocity": 97}, {"time": 2707, "pitch": 50, "duration": 9, "velocity": 71}, {"time": 2713, "pitch": 57, "duration": 2, "velocity": 80}, {"time": 2719, "pitch": 52, "duration": 14, "velocity": 80}, {"time": 2719, "pitch": 59, "duration": 6, "velocity": 87}, {"time": 2719, "pitch": 64, "duration": 6, "velocity": 84}, {"time": 2731, "pitch": 59, "duration": 3, "velocity": 89}, {"time": 2731, "pitch": 64, "duration": 3, "velocity": 89}, {"time": 2731, "pitch": 67, "duration": 4, "velocity": 94}, {"time": 2743, "pitch": 52, "duration": 13, "velocity": 94}, {"time": 2743, "pitch": 59, "duration": 5, "velocity": 78}, {"time": 2743, "pitch": 67, "duration": 8, "velocity": 97}, {"time": 2749, "pitch": 59, "duration": 3, "velocity": 50}, {"time": 2755, "pitch": 59, "duration": 2, "velocity": 89}, {"time": 2755, "pitch": 64, "duration": 3, "velocity": 87}, {"time": 2755, "pitch": 67, "duration": 5, "velocity": 89}, {"time": 2767, "pitch": 47, "duration": 38, "velocity": 100}, {"time": 2767, "pitch": 57, "duration": 8, "velocity": 73}, {"time": 2767, "pitch": 62, "duration": 8, "velocity": 82}, {"time": 2779, "pitch": 62, "duration": 6, "velocity": 80}, {"time": 2779, "pitch": 66, "duration": 7, "velocity": 65}, {"time": 2785, "pitch": 54, "duration": 4, "velocity": 9}, {"time": 2788, "pitch": 59, "duration": 4, "velocity": 84}, {"time": 2788, "pitch": 62, "duration": 7, "velocity": 82}, {"time": 2788, "pitch": 66, "duration": 10, "velocity": 63}, {"time": 2791, "pitch": 54, "duration": 13, "velocity": 52}, {"time": 2794, "pitch": 59, "duration": 6, "velocity": 82}, {"time": 2797, "pitch": 62, "duration": 4, "velocity": 84}, {"time": 2803, "pitch": 59, "duration": 3, "velocity": 100}, {"time": 2803, "pitch": 62, "duration": 4, "velocity": 89}, {"time": 2803, "pitch": 66, "duration": 4, "velocity": 99}, {"time": 2809, "pitch": 47, "duration": 3, "velocity": 89}, {"time": 2815, "pitch": 48, "duration": 19, "velocity": 100}, {"time": 2815, "pitch": 60, "duration": 8, "velocity": 76}, {"time": 2815, "pitch": 64, "duration": 7, "velocity": 80}, {"time": 2815, "pitch": 67, "duration": 7, "velocity": 87}, {"time": 2821, "pitch": 55, "duration": 7, "velocity": 55}, {"time": 2827, "pitch": 60, "duration": 5, "velocity": 100}, {"time": 2827, "pitch": 64, "duration": 5, "velocity": 100}, {"time": 2827, "pitch": 67, "duration": 5, "velocity": 100}, {"time": 2833, "pitch": 55, "duration": 2, "velocity": 52}, {"time": 2839, "pitch": 50, "duration": 15, "velocity": 102}, {"time": 2839, "pitch": 62, "duration": 6, "velocity": 80}, {"time": 2839, "pitch": 66, "duration": 9, "velocity": 74}, {"time": 2845, "pitch": 57, "duration": 7, "velocity": 57}, {"time": 2848, "pitch": 62, "duration": 2, "velocity": 73}, {"time": 2851, "pitch": 62, "duration": 4, "velocity": 89}, {"time": 2851, "pitch": 66, "duration": 4, "velocity": 96}, {"time": 2863, "pitch": 43, "duration": 9, "velocity": 100}, {"time": 2863, "pitch": 62, "duration": 6, "velocity": 80}, {"time": 2863, "pitch": 67, "duration": 7, "velocity": 89}, {"time": 2869, "pitch": 50, "duration": 4, "velocity": 47}, {"time": 2872, "pitch": 62, "duration": 2, "velocity": 92}, {"time": 2875, "pitch": 42, "duration": 12, "velocity": 87}, {"time": 2875, "pitch": 62, "duration": 11, "velocity": 89}, {"time": 2875, "pitch": 66, "duration": 12, "velocity": 105}, {"time": 2887, "pitch": 52, "duration": 15, "velocity": 97}, {"time": 2887, "pitch": 59, "duration": 4, "velocity": 78}, {"time": 2887, "pitch": 64, "duration": 7, "velocity": 87}, {"time": 2887, "pitch": 67, "duration": 7, "velocity": 87}, {"time": 2893, "pitch": 59, "duration": 3, "velocity": 71}, {"time": 2899, "pitch": 59, "duration": 2, "velocity": 92}, {"time": 2899, "pitch": 64, "duration": 11, "velocity": 94}, {"time": 2899, "pitch": 67, "duration": 12, "velocity": 94}, {"time": 2905, "pitch": 59, "duration": 6, "velocity": 67}, {"time": 2911, "pitch": 53, "duration": 16, "velocity": 100}, {"time": 2911, "pitch": 60, "duration": 4, "velocity": 89}, {"time": 2911, "pitch": 65, "duration": 7, "velocity": 92}, {"time": 2917, "pitch": 60, "duration": 4, "velocity": 82}, {"time": 2923, "pitch": 60, "duration": 3, "velocity": 102}, {"time": 2923, "pitch": 65, "duration": 4, "velocity": 102}, {"time": 2923, "pitch": 69, "duration": 7, "velocity": 100}, {"time": 2929, "pitch": 60, "duration": 4, "velocity": 82}, {"time": 2932, "pitch": 65, "duration": 2, "velocity": 82}, {"time": 2935, "pitch": 50, "duration": 15, "velocity": 89}, {"time": 2935, "pitch": 62, "duration": 7, "velocity": 69}, {"time": 2935, "pitch": 66, "duration": 8, "velocity": 93}, {"time": 2941, "pitch": 57, "duration": 9, "velocity": 69}, {"time": 2947, "pitch": 62, "duration": 3, "velocity": 100}, {"time": 2947, "pitch": 66, "duration": 6, "velocity": 105}, {"time": 2953, "pitch": 62, "duration": 4, "velocity": 76}, {"time": 2959, "pitch": 43, "duration": 22, "velocity": 100}, {"time": 2959, "pitch": 62, "duration": 3, "velocity": 80}, {"time": 2959, "pitch": 67, "duration": 3, "velocity": 84}, {"time": 2965, "pitch": 50, "duration": 9, "velocity": 46}, {"time": 2971, "pitch": 55, "duration": 6, "velocity": 82}, {"time": 2971, "pitch": 60, "duration": 7, "velocity": 73}, {"time": 2977, "pitch": 50, "duration": 5, "velocity": 87}, {"time": 2983, "pitch": 43, "duration": 15, "velocity": 94}, {"time": 2983, "pitch": 55, "duration": 6, "velocity": 94}, {"time": 2983, "pitch": 59, "duration": 6, "velocity": 100}, {"time": 2989, "pitch": 50, "duration": 7, "velocity": 67}, {"time": 2992, "pitch": 55, "duration": 2, "velocity": 82}, {"time": 2995, "pitch": 55, "duration": 11, "velocity": 94}, {"time": 2995, "pitch": 59, "duration": 11, "velocity": 111}, {"time": 2995, "pitch": 62, "duration": 12, "velocity": 100}, {"time": 3001, "pitch": 50, "duration": 6, "velocity": 100}, {"time": 3007, "pitch": 37, "duration": 4, "velocity": 82}, {"time": 3007, "pitch": 49, "duration": 4, "velocity": 82}, {"time": 3007, "pitch": 55, "duration": 4, "velocity": 100}, {"time": 3007, "pitch": 61, "duration": 2, "velocity": 68}, {"time": 3007, "pitch": 64, "duration": 2, "velocity": 97}, {"time": 3007, "pitch": 67, "duration": 2, "velocity": 102}, {"time": 3013, "pitch": 61, "duration": 2, "velocity": 55}, {"time": 3013, "pitch": 64, "duration": 2, "velocity": 78}, {"time": 3013, "pitch": 67, "duration": 2, "velocity": 82}, {"time": 3019, "pitch": 37, "duration": 3, "velocity": 96}, {"time": 3019, "pitch": 49, "duration": 3, "velocity": 96}, {"time": 3019, "pitch": 55, "duration": 3, "velocity": 94}, {"time": 3019, "pitch": 61, "duration": 2, "velocity": 70}, {"time": 3019, "pitch": 64, "duration": 2, "velocity": 87}, {"time": 3019, "pitch": 67, "duration": 2, "velocity": 94}, {"time": 3025, "pitch": 61, "duration": 2, "velocity": 61}, {"time": 3025, "pitch": 64, "duration": 1, "velocity": 89}, {"time": 3025, "pitch": 67, "duration": 3, "velocity": 89}, {"time": 3031, "pitch": 35, "duration": 4, "velocity": 100}, {"time": 3031, "pitch": 47, "duration": 4, "velocity": 100}, {"time": 3031, "pitch": 59, "duration": 2, "velocity": 94}, {"time": 3031, "pitch": 63, "duration": 2, "velocity": 96}, {"time": 3031, "pitch": 66, "duration": 3, "velocity": 74}, {"time": 3037, "pitch": 59, "duration": 3, "velocity": 78}, {"time": 3037, "pitch": 63, "duration": 2, "velocity": 79}, {"time": 3037, "pitch": 66, "duration": 2, "velocity": 72}, {"time": 3043, "pitch": 35, "duration": 6, "velocity": 100}, {"time": 3043, "pitch": 47, "duration": 6, "velocity": 100}, {"time": 3043, "pitch": 59, "duration": 2, "velocity": 102}, {"time": 3043, "pitch": 63, "duration": 2, "velocity": 105}, {"time": 3043, "pitch": 66, "duration": 2, "velocity": 90}, {"time": 3049, "pitch": 59, "duration": 2, "velocity": 71}, {"time": 3049, "pitch": 63, "duration": 2, "velocity": 55}, {"time": 3049, "pitch": 66, "duration": 3, "velocity": 74}, {"time": 3055, "pitch": 40, "duration": 6, "velocity": 105}, {"time": 3055, "pitch": 52, "duration": 6, "velocity": 105}, {"time": 3055, "pitch": 59, "duration": 2, "velocity": 94}, {"time": 3055, "pitch": 64, "duration": 2, "velocity": 100}, {"time": 3055, "pitch": 67, "duration": 2, "velocity": 97}, {"time": 3061, "pitch": 59, "duration": 2, "velocity": 71}, {"time": 3061, "pitch": 64, "duration": 2, "velocity": 87}, {"time": 3061, "pitch": 67, "duration": 2, "velocity": 82}, {"time": 3067, "pitch": 40, "duration": 7, "velocity": 94}, {"time": 3067, "pitch": 52, "duration": 7, "velocity": 94}, {"time": 3067, "pitch": 59, "duration": 2, "velocity": 94}, {"time": 3067, "pitch": 64, "duration": 2, "velocity": 97}, {"time": 3067, "pitch": 67, "duration": 2, "velocity": 94}, {"time": 3073, "pitch": 59, "duration": 2, "velocity": 92}, {"time": 3073, "pitch": 64, "duration": 1, "velocity": 94}, {"time": 3073, "pitch": 67, "duration": 2, "velocity": 82}, {"time": 3079, "pitch": 33, "duration": 8, "velocity": 100}, {"time": 3079, "pitch": 45, "duration": 8, "velocity": 100}, {"time": 3079, "pitch": 57, "duration": 3, "velocity": 82}, {"time": 3079, "pitch": 61, "duration": 2, "velocity": 65}, {"time": 3079, "pitch": 64, "duration": 3, "velocity": 43}, {"time": 3085, "pitch": 57, "duration": 2, "velocity": 84}, {"time": 3085, "pitch": 61, "duration": 1, "velocity": 93}, {"time": 3085, "pitch": 64, "duration": 2, "velocity": 92}, {"time": 3091, "pitch": 33, "duration": 8, "velocity": 102}, {"time": 3091, "pitch": 45, "duration": 8, "velocity": 102}, {"time": 3091, "pitch": 57, "duration": 2, "velocity": 97}, {"time": 3091, "pitch": 61, "duration": 2, "velocity": 102}, {"time": 3091, "pitch": 64, "duration": 2, "velocity": 100}, {"time": 3097, "pitch": 57, "duration": 2, "velocity": 82}, {"time": 3097, "pitch": 61, "duration": 2, "velocity": 74}, {"time": 3097, "pitch": 64, "duration": 2, "velocity": 87}, {"time": 3103, "pitch": 36, "duration": 8, "velocity": 71}, {"time": 3103, "pitch": 48, "duration": 8, "velocity": 71}, {"time": 3103, "pitch": 55, "duration": 3, "velocity": 100}, {"time": 3103, "pitch": 60, "duration": 3, "velocity": 100}, {"time": 3103, "pitch": 64, "duration": 2, "velocity": 97}, {"time": 3109, "pitch": 55, "duration": 1, "velocity": 82}, {"time": 3109, "pitch": 60, "duration": 1, "velocity": 94}, {"time": 3109, "pitch": 64, "duration": 1, "velocity": 84}, {"time": 3115, "pitch": 36, "duration": 9, "velocity": 102}, {"time": 3115, "pitch": 48, "duration": 9, "velocity": 102}, {"time": 3115, "pitch": 55, "duration": 2, "velocity": 87}, {"time": 3115, "pitch": 60, "duration": 2, "velocity": 94}, {"time": 3115, "pitch": 64, "duration": 2, "velocity": 92}, {"time": 3121, "pitch": 55, "duration": 2, "velocity": 80}, {"time": 3121, "pitch": 60, "duration": 2, "velocity": 82}, {"time": 3121, "pitch": 64, "duration": 2, "velocity": 82}, {"time": 3127, "pitch": 38, "duration": 9, "velocity": 97}, {"time": 3127, "pitch": 50, "duration": 9, "velocity": 97}, {"time": 3127, "pitch": 57, "duration": 3, "velocity": 92}, {"time": 3127, "pitch": 62, "duration": 3, "velocity": 105}, {"time": 3133, "pitch": 57, "duration": 2, "velocity": 55}, {"time": 3133, "pitch": 62, "duration": 2, "velocity": 78}, {"time": 3133, "pitch": 66, "duration": 2, "velocity": 40}, {"time": 3139, "pitch": 38, "duration": 7, "velocity": 102}, {"time": 3139, "pitch": 50, "duration": 7, "velocity": 102}, {"time": 3139, "pitch": 57, "duration": 2, "velocity": 100}, {"time": 3139, "pitch": 62, "duration": 2, "velocity": 105}, {"time": 3139, "pitch": 66, "duration": 3, "velocity": 102}, {"time": 3145, "pitch": 57, "duration": 2, "velocity": 84}, {"time": 3145, "pitch": 62, "duration": 2, "velocity": 89}, {"time": 3145, "pitch": 66, "duration": 2, "velocity": 82}, {"time": 3151, "pitch": 31, "duration": 9, "velocity": 105}, {"time": 3151, "pitch": 43, "duration": 9, "velocity": 105}, {"time": 3151, "pitch": 55, "duration": 2, "velocity": 80}, {"time": 3151, "pitch": 59, "duration": 2, "velocity": 92}, {"time": 3151, "pitch": 62, "duration": 2, "velocity": 89}, {"time": 3157, "pitch": 55, "duration": 2, "velocity": 52}, {"time": 3157, "pitch": 59, "duration": 2, "velocity": 62}, {"time": 3157, "pitch": 62, "duration": 2, "velocity": 80}, {"time": 3163, "pitch": 31, "duration": 9, "velocity": 102}, {"time": 3163, "pitch": 43, "duration": 9, "velocity": 102}, {"time": 3163, "pitch": 55, "duration": 3, "velocity": 92}, {"time": 3163, "pitch": 59, "duration": 3, "velocity": 100}, {"time": 3163, "pitch": 62, "duration": 3, "velocity": 92}, {"time": 3169, "pitch": 55, "duration": 2, "velocity": 60}, {"time": 3169, "pitch": 59, "duration": 2, "velocity": 66}, {"time": 3169, "pitch": 62, "duration": 2, "velocity": 64}, {"time": 3175, "pitch": 31, "duration": 4, "velocity": 100}, {"time": 3175, "pitch": 43, "duration": 4, "velocity": 100}, {"time": 3175, "pitch": 55, "duration": 2, "velocity": 84}, {"time": 3175, "pitch": 59, "duration": 2, "velocity": 97}, {"time": 3175, "pitch": 62, "duration": 2, "velocity": 87}, {"time": 3175, "pitch": 67, "duration": 3, "velocity": 87}, {"time": 3181, "pitch": 55, "duration": 2, "velocity": 78}, {"time": 3181, "pitch": 59, "duration": 2, "velocity": 87}, {"time": 3181, "pitch": 62, "duration": 2, "velocity": 71}, {"time": 3181, "pitch": 67, "duration": 3, "velocity": 69}, {"time": 3187, "pitch": 31, "duration": 7, "velocity": 108}, {"time": 3187, "pitch": 43, "duration": 7, "velocity": 108}, {"time": 3187, "pitch": 55, "duration": 3, "velocity": 89}, {"time": 3187, "pitch": 59, "duration": 3, "velocity": 108}, {"time": 3187, "pitch": 62, "duration": 3, "velocity": 100}, {"time": 3187, "pitch": 67, "duration": 3, "velocity": 87}, {"time": 3193, "pitch": 55, "duration": 3, "velocity": 84}, {"time": 3193, "pitch": 59, "duration": 3, "velocity": 105}, {"time": 3193, "pitch": 62, "duration": 3, "velocity": 89}, {"time": 3193, "pitch": 67, "duration": 3, "velocity": 87}, {"time": 3199, "pitch": 37, "duration": 4, "velocity": 82}, {"time": 3199, "pitch": 49, "duration": 4, "velocity": 82}, {"time": 3199, "pitch": 55, "duration": 4, "velocity": 100}, {"time": 3199, "pitch": 61, "duration": 2, "velocity": 68}, {"time": 3199, "pitch": 64, "duration": 2, "velocity": 97}, {"time": 3199, "pitch": 67, "duration": 2, "velocity": 102}, {"time": 3205, "pitch": 61, "duration": 2, "velocity": 55}, {"time": 3205, "pitch": 64, "duration": 2, "velocity": 78}, {"time": 3205, "pitch": 67, "duration": 2, "velocity": 82}, {"time": 3211, "pitch": 37, "duration": 3, "velocity": 96}, {"time": 3211, "pitch": 49, "duration": 3, "velocity": 96}, {"time": 3211, "pitch": 55, "duration": 3, "velocity": 94}, {"time": 3211, "pitch": 61, "duration": 2, "velocity": 70}, {"time": 3211, "pitch": 64, "duration": 2, "velocity": 87}, {"time": 3211, "pitch": 67, "duration": 2, "velocity": 94}, {"time": 3217, "pitch": 61, "duration": 2, "velocity": 61}, {"time": 3217, "pitch": 64, "duration": 1, "velocity": 89}, {"time": 3217, "pitch": 67, "duration": 3, "velocity": 89}, {"time": 3223, "pitch": 35, "duration": 4, "velocity": 100}, {"time": 3223, "pitch": 47, "duration": 4, "velocity": 100}, {"time": 3223, "pitch": 59, "duration": 2, "velocity": 94}, {"time": 3223, "pitch": 63, "duration": 2, "velocity": 96}, {"time": 3223, "pitch": 66, "duration": 3, "velocity": 74}, {"time": 3229, "pitch": 59, "duration": 3, "velocity": 78}, {"time": 3229, "pitch": 63, "duration": 2, "velocity": 79}, {"time": 3229, "pitch": 66, "duration": 2, "velocity": 72}, {"time": 3235, "pitch": 35, "duration": 6, "velocity": 100}, {"time": 3235, "pitch": 47, "duration": 6, "velocity": 100}, {"time": 3235, "pitch": 59, "duration": 2, "velocity": 102}, {"time": 3235, "pitch": 63, "duration": 2, "velocity": 105}, {"time": 3235, "pitch": 66, "duration": 2, "velocity": 90}, {"time": 3241, "pitch": 59, "duration": 2, "velocity": 71}, {"time": 3241, "pitch": 63, "duration": 2, "velocity": 55}, {"time": 3241, "pitch": 66, "duration": 3, "velocity": 74}, {"time": 3247, "pitch": 40, "duration": 6, "velocity": 105}, {"time": 3247, "pitch": 52, "duration": 6, "velocity": 105}, {"time": 3247, "pitch": 59, "duration": 2, "velocity": 94}, {"time": 3247, "pitch": 64, "duration": 2, "velocity": 100}, {"time": 3247, "pitch": 67, "duration": 2, "velocity": 97}, {"time": 3253, "pitch": 59, "duration": 2, "velocity": 71}, {"time": 3253, "pitch": 64, "duration": 2, "velocity": 87}, {"time": 3253, "pitch": 67, "duration": 2, "velocity": 82}, {"time": 3259, "pitch": 40, "duration": 7, "velocity": 94}, {"time": 3259, "pitch": 52, "duration": 7, "velocity": 94}, {"time": 3259, "pitch": 59, "duration": 2, "velocity": 94}, {"time": 3259, "pitch": 64, "duration": 2, "velocity": 97}, {"time": 3259, "pitch": 67, "duration": 2, "velocity": 94}, {"time": 3265, "pitch": 59, "duration": 2, "velocity": 92}, {"time": 3265, "pitch": 64, "duration": 1, "velocity": 94}, {"time": 3265, "pitch": 67, "duration": 2, "velocity": 82}, {"time": 3271, "pitch": 31, "duration": 8, "velocity": 102}, {"time": 3271, "pitch": 43, "duration": 8, "velocity": 102}, {"time": 3271, "pitch": 55, "duration": 2, "velocity": 76}, {"time": 3271, "pitch": 59, "duration": 2, "velocity": 87}, {"time": 3271, "pitch": 62, "duration": 2, "velocity": 87}, {"time": 3277, "pitch": 55, "duration": 2, "velocity": 78}, {"time": 3277, "pitch": 59, "duration": 2, "velocity": 92}, {"time": 3277, "pitch": 62, "duration": 2, "velocity": 87}, {"time": 3283, "pitch": 31, "duration": 8, "velocity": 102}, {"time": 3283, "pitch": 43, "duration": 8, "velocity": 102}, {"time": 3283, "pitch": 55, "duration": 3, "velocity": 94}, {"time": 3283, "pitch": 59, "duration": 3, "velocity": 102}, {"time": 3283, "pitch": 62, "duration": 3, "velocity": 94}, {"time": 3289, "pitch": 55, "duration": 2, "velocity": 92}, {"time": 3289, "pitch": 59, "duration": 2, "velocity": 97}, {"time": 3289, "pitch": 62, "duration": 2, "velocity": 94}, {"time": 3295, "pitch": 37, "duration": 4, "velocity": 63}, {"time": 3295, "pitch": 49, "duration": 4, "velocity": 63}, {"time": 3295, "pitch": 55, "duration": 4, "velocity": 80}, {"time": 3295, "pitch": 61, "duration": 2, "velocity": 70}, {"time": 3295, "pitch": 64, "duration": 2, "velocity": 97}, {"time": 3295, "pitch": 67, "duration": 2, "velocity": 100}, {"time": 3301, "pitch": 61, "duration": 2, "velocity": 79}, {"time": 3301, "pitch": 64, "duration": 2, "velocity": 94}, {"time": 3301, "pitch": 67, "duration": 3, "velocity": 94}, {"time": 3307, "pitch": 37, "duration": 3, "velocity": 85}, {"time": 3307, "pitch": 49, "duration": 3, "velocity": 85}, {"time": 3307, "pitch": 55, "duration": 3, "velocity": 94}, {"time": 3307, "pitch": 61, "duration": 2, "velocity": 85}, {"time": 3307, "pitch": 64, "duration": 2, "velocity": 92}, {"time": 3307, "pitch": 67, "duration": 2, "velocity": 97}, {"time": 3313, "pitch": 61, "duration": 3, "velocity": 87}, {"time": 3313, "pitch": 64, "duration": 2, "velocity": 92}, {"time": 3313, "pitch": 67, "duration": 3, "velocity": 100}, {"time": 3319, "pitch": 37, "duration": 4, "velocity": 57}, {"time": 3319, "pitch": 49, "duration": 4, "velocity": 57}, {"time": 3319, "pitch": 55, "duration": 4, "velocity": 80}, {"time": 3319, "pitch": 61, "duration": 2, "velocity": 59}, {"time": 3319, "pitch": 64, "duration": 2, "velocity": 100}, {"time": 3319, "pitch": 67, "duration": 2, "velocity": 102}, {"time": 3325, "pitch": 61, "duration": 2, "velocity": 70}, {"time": 3325, "pitch": 64, "duration": 2, "velocity": 92}, {"time": 3325, "pitch": 67, "duration": 2, "velocity": 94}, {"time": 3331, "pitch": 37, "duration": 4, "velocity": 68}, {"time": 3331, "pitch": 49, "duration": 4, "velocity": 68}, {"time": 3331, "pitch": 55, "duration": 3, "velocity": 87}, {"time": 3331, "pitch": 61, "duration": 3, "velocity": 82}, {"time": 3331, "pitch": 64, "duration": 3, "velocity": 97}, {"time": 3331, "pitch": 67, "duration": 3, "velocity": 97}, {"time": 3337, "pitch": 61, "duration": 2, "velocity": 87}, {"time": 3337, "pitch": 64, "duration": 1, "velocity": 92}, {"time": 3337, "pitch": 67, "duration": 3, "velocity": 102}, {"time": 3343, "pitch": 35, "duration": 8, "velocity": 105}, {"time": 3343, "pitch": 47, "duration": 8, "velocity": 105}, {"time": 3343, "pitch": 59, "duration": 2, "velocity": 89}, {"time": 3343, "pitch": 63, "duration": 2, "velocity": 99}, {"time": 3343, "pitch": 66, "duration": 2, "velocity": 96}, {"time": 3349, "pitch": 59, "duration": 2, "velocity": 94}, {"time": 3349, "pitch": 63, "duration": 2, "velocity": 93}, {"time": 3349, "pitch": 66, "duration": 2, "velocity": 85}, {"time": 3355, "pitch": 35, "duration": 8, "velocity": 102}, {"time": 3355, "pitch": 47, "duration": 8, "velocity": 102}, {"time": 3355, "pitch": 59, "duration": 2, "velocity": 97}, {"time": 3355, "pitch": 63, "duration": 2, "velocity": 99}, {"time": 3355, "pitch": 66, "duration": 3, "velocity": 96}, {"time": 3361, "pitch": 59, "duration": 2, "velocity": 92}, {"time": 3361, "pitch": 63, "duration": 2, "velocity": 90}, {"time": 3361, "pitch": 66, "duration": 3, "velocity": 93}, {"time": 3367, "pitch": 35, "duration": 9, "velocity": 108}, {"time": 3367, "pitch": 47, "duration": 9, "velocity": 108}, {"time": 3367, "pitch": 59, "duration": 2, "velocity": 94}, {"time": 3367, "pitch": 63, "duration": 2, "velocity": 93}, {"time": 3367, "pitch": 66, "duration": 3, "velocity": 87}, {"time": 3373, "pitch": 59, "duration": 2, "velocity": 100}, {"time": 3373, "pitch": 63, "duration": 2, "velocity": 102}, {"time": 3373, "pitch": 66, "duration": 3, "velocity": 93}, {"time": 3379, "pitch": 35, "duration": 11, "velocity": 105}, {"time": 3379, "pitch": 47, "duration": 11, "velocity": 105}, {"time": 3379, "pitch": 59, "duration": 2, "velocity": 100}, {"time": 3379, "pitch": 63, "duration": 3, "velocity": 102}, {"time": 3379, "pitch": 66, "duration": 3, "velocity": 102}, {"time": 3385, "pitch": 59, "duration": 5, "velocity": 105}, {"time": 3385, "pitch": 63, "duration": 5, "velocity": 112}, {"time": 3385, "pitch": 66, "duration": 5, "velocity": 109}, {"time": 3391, "pitch": 52, "duration": 44, "velocity": 117}, {"time": 3391, "pitch": 59, "duration": 3, "velocity": 100}, {"time": 3391, "pitch": 64, "duration": 6, "velocity": 105}, {"time": 3391, "pitch": 68, "duration": 7, "velocity": 93}, {"time": 3397, "pitch": 59, "duration": 3, "velocity": 80}, {"time": 3403, "pitch": 59, "duration": 3, "velocity": 108}, {"time": 3403, "pitch": 64, "duration": 8, "velocity": 108}, {"time": 3403, "pitch": 68, "duration": 9, "velocity": 105}, {"time": 3409, "pitch": 59, "duration": 5, "velocity": 80}, {"time": 3415, "pitch": 59, "duration": 3, "velocity": 89}, {"time": 3415, "pitch": 64, "duration": 8, "velocity": 102}, {"time": 3415, "pitch": 68, "duration": 9, "velocity": 90}, {"time": 3421, "pitch": 59, "duration": 4, "velocity": 84}, {"time": 3427, "pitch": 59, "duration": 3, "velocity": 108}, {"time": 3427, "pitch": 64, "duration": 7, "velocity": 108}, {"time": 3427, "pitch": 68, "duration": 7, "velocity": 99}, {"time": 3433, "pitch": 59, "duration": 4, "velocity": 84}, {"time": 3439, "pitch": 47, "duration": 13, "velocity": 105}, {"time": 3439, "pitch": 59, "duration": 3, "velocity": 105}, {"time": 3439, "pitch": 63, "duration": 7, "velocity": 99}, {"time": 3439, "pitch": 66, "duration": 7, "velocity": 93}, {"time": 3445, "pitch": 59, "duration": 4, "velocity": 69}, {"time": 3451, "pitch": 59, "duration": 4, "velocity": 108}, {"time": 3451, "pitch": 63, "duration": 9, "velocity": 105}, {"time": 3451, "pitch": 66, "duration": 9, "velocity": 85}, {"time": 3457, "pitch": 54, "duration": 10, "velocity": 72}, {"time": 3463, "pitch": 59, "duration": 4, "velocity": 108}, {"time": 3463, "pitch": 63, "duration": 7, "velocity": 109}, {"time": 3463, "pitch": 66, "duration": 10, "velocity": 90}, {"time": 3463, "pitch": 71, "duration": 8, "velocity": 87}, {"time": 3469, "pitch": 47, "duration": 10, "velocity": 58}, {"time": 3469, "pitch": 59, "duration": 4, "velocity": 67}, {"time": 3475, "pitch": 59, "duration": 2, "velocity": 111}, {"time": 3475, "pitch": 63, "duration": 6, "velocity": 112}, {"time": 3475, "pitch": 66, "duration": 6, "velocity": 109}, {"time": 3475, "pitch": 71, "duration": 5, "velocity": 94}, {"time": 3481, "pitch": 59, "duration": 2, "velocity": 108}, {"time": 3487, "pitch": 49, "duration": 16, "velocity": 102}, {"time": 3487, "pitch": 61, "duration": 8, "velocity": 90}, {"time": 3487, "pitch": 64, "duration": 6, "velocity": 100}, {"time": 3487, "pitch": 68, "duration": 7, "velocity": 72}, {"time": 3493, "pitch": 56, "duration": 9, "velocity": 45}, {"time": 3499, "pitch": 61, "duration": 3, "velocity": 102}, {"time": 3499, "pitch": 64, "duration": 5, "velocity": 111}, {"time": 3499, "pitch": 68, "duration": 7, "velocity": 96}, {"time": 3505, "pitch": 61, "duration": 4, "velocity": 87}, {"time": 3511, "pitch": 49, "duration": 14, "velocity": 77}, {"time": 3511, "pitch": 61, "duration": 4, "velocity": 90}, {"time": 3511, "pitch": 64, "duration": 7, "velocity": 108}, {"time": 3511, "pitch": 68, "duration": 10, "velocity": 82}, {"time": 3517, "pitch": 61, "duration": 4, "velocity": 72}, {"time": 3523, "pitch": 61, "duration": 2, "velocity": 99}, {"time": 3523, "pitch": 64, "duration": 4, "velocity": 108}, {"time": 3523, "pitch": 68, "duration": 7, "velocity": 96}, {"time": 3529, "pitch": 61, "duration": 2, "velocity": 93}, {"time": 3535, "pitch": 44, "duration": 23, "velocity": 102}, {"time": 3535, "pitch": 56, "duration": 10, "velocity": 82}, {"time": 3535, "pitch": 59, "duration": 7, "velocity": 94}, {"time": 3535, "pitch": 63, "duration": 7, "velocity": 65}, {"time": 3541, "pitch": 51, "duration": 17, "velocity": 50}, {"time": 3547, "pitch": 56, "duration": 3, "velocity": 99}, {"time": 3547, "pitch": 59, "duration": 4, "velocity": 108}, {"time": 3547, "pitch": 63, "duration": 5, "velocity": 99}, {"time": 3553, "pitch": 56, "duration": 4, "velocity": 102}, {"time": 3553, "pitch": 63, "duration": 1, "velocity": 38}, {"time": 3559, "pitch": 44, "duration": 10, "velocity": 102}, {"time": 3559, "pitch": 56, "duration": 3, "velocity": 99}, {"time": 3559, "pitch": 59, "duration": 4, "velocity": 111}, {"time": 3559, "pitch": 63, "duration": 7, "velocity": 90}, {"time": 3565, "pitch": 56, "duration": 3, "velocity": 96}, {"time": 3571, "pitch": 44, "duration": 9, "velocity": 109}, {"time": 3571, "pitch": 56, "duration": 3, "velocity": 102}, {"time": 3571, "pitch": 59, "duration": 4, "velocity": 108}, {"time": 3571, "pitch": 63, "duration": 9, "velocity": 93}, {"time": 3577, "pitch": 56, "duration": 5, "velocity": 102}, {"time": 3577, "pitch": 59, "duration": 1, "velocity": 37}, {"time": 3583, "pitch": 45, "duration": 20, "velocity": 105}, {"time": 3583, "pitch": 57, "duration": 8, "velocity": 94}, {"time": 3583, "pitch": 61, "duration": 9, "velocity": 102}, {"time": 3583, "pitch": 64, "duration": 8, "velocity": 97}, {"time": 3589, "pitch": 52, "duration": 9, "velocity": 94}, {"time": 3595, "pitch": 57, "duration": 6, "velocity": 100}, {"time": 3595, "pitch": 61, "duration": 6, "velocity": 102}, {"time": 3595, "pitch": 64, "duration": 6, "velocity": 100}, {"time": 3601, "pitch": 52, "duration": 5, "velocity": 97}, {"time": 3607, "pitch": 47, "duration": 11, "velocity": 105}, {"time": 3607, "pitch": 59, "duration": 4, "velocity": 97}, {"time": 3607, "pitch": 63, "duration": 8, "velocity": 77}, {"time": 3607, "pitch": 66, "duration": 11, "velocity": 85}, {"time": 3613, "pitch": 59, "duration": 4, "velocity": 92}, {"time": 3619, "pitch": 47, "duration": 7, "velocity": 97}, {"time": 3619, "pitch": 54, "duration": 6, "velocity": 93}, {"time": 3619, "pitch": 59, "duration": 3, "velocity": 111}, {"time": 3619, "pitch": 63, "duration": 6, "velocity": 112}, {"time": 3619, "pitch": 66, "duration": 7, "velocity": 102}, {"time": 3625, "pitch": 59, "duration": 2, "velocity": 102}, {"time": 3631, "pitch": 44, "duration": 15, "velocity": 105}, {"time": 3631, "pitch": 56, "duration": 7, "velocity": 59}, {"time": 3631, "pitch": 59, "duration": 6, "velocity": 89}, {"time": 3631, "pitch": 63, "duration": 7, "velocity": 63}, {"time": 3637, "pitch": 51, "duration": 11, "velocity": 96}, {"time": 3643, "pitch": 56, "duration": 3, "velocity": 105}, {"time": 3643, "pitch": 59, "duration": 4, "velocity": 117}, {"time": 3643, "pitch": 63, "duration": 7, "velocity": 99}, {"time": 3649, "pitch": 44, "duration": 2, "velocity": 96}, {"time": 3649, "pitch": 56, "duration": 1, "velocity": 96}, {"time": 3655, "pitch": 49, "duration": 15, "velocity": 109}, {"time": 3655, "pitch": 61, "duration": 9, "velocity": 61}, {"time": 3655, "pitch": 64, "duration": 7, "velocity": 92}, {"time": 3655, "pitch": 68, "duration": 9, "velocity": 63}, {"time": 3661, "pitch": 56, "duration": 10, "velocity": 93}, {"time": 3667, "pitch": 61, "duration": 3, "velocity": 99}, {"time": 3667, "pitch": 64, "duration": 4, "velocity": 114}, {"time": 3667, "pitch": 68, "duration": 11, "velocity": 102}, {"time": 3673, "pitch": 61, "duration": 6, "velocity": 102}, {"time": 3673, "pitch": 64, "duration": 1, "velocity": 49}, {"time": 3679, "pitch": 42, "duration": 23, "velocity": 93}, {"time": 3679, "pitch": 54, "duration": 5, "velocity": 90}, {"time": 3679, "pitch": 57, "duration": 5, "velocity": 105}, {"time": 3679, "pitch": 61, "duration": 5, "velocity": 93}, {"time": 3685, "pitch": 49, "duration": 10, "velocity": 61}, {"time": 3691, "pitch": 54, "duration": 3, "velocity": 93}, {"time": 3691, "pitch": 57, "duration": 4, "velocity": 105}, {"time": 3691, "pitch": 61, "duration": 3, "velocity": 77}, {"time": 3691, "pitch": 66, "duration": 7, "velocity": 72}, {"time": 3697, "pitch": 54, "duration": 5, "velocity": 87}, {"time": 3703, "pitch": 42, "duration": 13, "velocity": 102}, {"time": 3703, "pitch": 54, "duration": 4, "velocity": 82}, {"time": 3703, "pitch": 57, "duration": 4, "velocity": 102}, {"time": 3703, "pitch": 61, "duration": 7, "velocity": 68}, {"time": 3709, "pitch": 54, "duration": 4, "velocity": 90}, {"time": 3715, "pitch": 54, "duration": 3, "velocity": 99}, {"time": 3715, "pitch": 57, "duration": 3, "velocity": 114}, {"time": 3715, "pitch": 61, "duration": 3, "velocity": 102}, {"time": 3715, "pitch": 66, "duration": 5, "velocity": 79}, {"time": 3727, "pitch": 47, "duration": 22, "velocity": 108}, {"time": 3727, "pitch": 59, "duration": 4, "velocity": 92}, {"time": 3727, "pitch": 63, "duration": 6, "velocity": 96}, {"time": 3727, "pitch": 66, "duration": 9, "velocity": 72}, {"time": 3733, "pitch": 59, "duration": 4, "velocity": 89}, {"time": 3739, "pitch": 59, "duration": 4, "velocity": 117}, {"time": 3739, "pitch": 63, "duration": 6, "velocity": 116}, {"time": 3739, "pitch": 66, "duration": 4, "velocity": 109}, {"time": 3745, "pitch": 54, "duration": 5, "velocity": 74}, {"time": 3748, "pitch": 59, "duration": 2, "velocity": 100}, {"time": 3751, "pitch": 47, "duration": 23, "velocity": 108}, {"time": 3751, "pitch": 59, "duration": 6, "velocity": 114}, {"time": 3751, "pitch": 63, "duration": 6, "velocity": 112}, {"time": 3751, "pitch": 66, "duration": 6, "velocity": 105}, {"time": 3751, "pitch": 71, "duration": 7, "velocity": 97}, {"time": 3757, "pitch": 54, "duration": 8, "velocity": 82}, {"time": 3763, "pitch": 59, "duration": 11, "velocity": 111}, {"time": 3763, "pitch": 63, "duration": 11, "velocity": 112}, {"time": 3763, "pitch": 66, "duration": 11, "velocity": 99}, {"time": 3769, "pitch": 54, "duration": 5, "velocity": 102}, {"time": 3775, "pitch": 52, "duration": 44, "velocity": 117}, {"time": 3775, "pitch": 59, "duration": 3, "velocity": 100}, {"time": 3775, "pitch": 64, "duration": 6, "velocity": 105}, {"time": 3775, "pitch": 68, "duration": 7, "velocity": 93}, {"time": 3781, "pitch": 59, "duration": 3, "velocity": 80}, {"time": 3787, "pitch": 59, "duration": 3, "velocity": 108}, {"time": 3787, "pitch": 64, "duration": 8, "velocity": 108}, {"time": 3787, "pitch": 68, "duration": 9, "velocity": 105}, {"time": 3793, "pitch": 59, "duration": 5, "velocity": 80}, {"time": 3799, "pitch": 59, "duration": 3, "velocity": 89}, {"time": 3799, "pitch": 64, "duration": 8, "velocity": 102}, {"time": 3799, "pitch": 68, "duration": 9, "velocity": 90}, {"time": 3805, "pitch": 59, "duration": 4, "velocity": 84}, {"time": 3811, "pitch": 59, "duration": 3, "velocity": 108}, {"time": 3811, "pitch": 64, "duration": 7, "velocity": 108}, {"time": 3811, "pitch": 68, "duration": 7, "velocity": 99}, {"time": 3817, "pitch": 59, "duration": 4, "velocity": 84}, {"time": 3823, "pitch": 47, "duration": 13, "velocity": 105}, {"time": 3823, "pitch": 59, "duration": 3, "velocity": 105}, {"time": 3823, "pitch": 63, "duration": 7, "velocity": 99}, {"time": 3823, "pitch": 66, "duration": 7, "velocity": 93}, {"time": 3829, "pitch": 59, "duration": 4, "velocity": 69}, {"time": 3835, "pitch": 59, "duration": 4, "velocity": 108}, {"time": 3835, "pitch": 63, "duration": 9, "velocity": 105}, {"time": 3835, "pitch": 66, "duration": 9, "velocity": 85}, {"time": 3841, "pitch": 54, "duration": 10, "velocity": 72}, {"time": 3847, "pitch": 59, "duration": 4, "velocity": 108}, {"time": 3847, "pitch": 63, "duration": 7, "velocity": 109}, {"time": 3847, "pitch": 66, "duration": 10, "velocity": 90}, {"time": 3847, "pitch": 71, "duration": 8, "velocity": 87}, {"time": 3853, "pitch": 47, "duration": 10, "velocity": 58}, {"time": 3853, "pitch": 59, "duration": 4, "velocity": 67}, {"time": 3859, "pitch": 59, "duration": 2, "velocity": 111}, {"time": 3859, "pitch": 63, "duration": 6, "velocity": 112}, {"time": 3859, "pitch": 66, "duration": 6, "velocity": 109}, {"time": 3859, "pitch": 71, "duration": 5, "velocity": 94}, {"time": 3865, "pitch": 59, "duration": 2, "velocity": 108}, {"time": 3871, "pitch": 49, "duration": 16, "velocity": 102}, {"time": 3871, "pitch": 61, "duration": 8, "velocity": 90}, {"time": 3871, "pitch": 64, "duration": 6, "velocity": 100}, {"time": 3871, "pitch": 68, "duration": 7, "velocity": 72}, {"time": 3877, "pitch": 56, "duration": 9, "velocity": 45}, {"time": 3883, "pitch": 61, "duration": 3, "velocity": 102}, {"time": 3883, "pitch": 64, "duration": 5, "velocity": 111}, {"time": 3883, "pitch": 68, "duration": 7, "velocity": 96}, {"time": 3889, "pitch": 61, "duration": 4, "velocity": 87}, {"time": 3895, "pitch": 49, "duration": 14, "velocity": 77}, {"time": 3895, "pitch": 61, "duration": 4, "velocity": 90}, {"time": 3895, "pitch": 64, "duration": 7, "velocity": 108}, {"time": 3895, "pitch": 68, "duration": 10, "velocity": 82}, {"time": 3901, "pitch": 61, "duration": 4, "velocity": 72}, {"time": 3907, "pitch": 61, "duration": 2, "velocity": 99}, {"time": 3907, "pitch": 64, "duration": 4, "velocity": 108}, {"time": 3907, "pitch": 68, "duration": 7, "velocity": 96}, {"time": 3913, "pitch": 61, "duration": 2, "velocity": 93}, {"time": 3919, "pitch": 44, "duration": 23, "velocity": 102}, {"time": 3919, "pitch": 56, "duration": 10, "velocity": 82}, {"time": 3919, "pitch": 59, "duration": 7, "velocity": 94}, {"time": 3919, "pitch": 63, "duration": 7, "velocity": 65}, {"time": 3925, "pitch": 51, "duration": 17, "velocity": 50}, {"time": 3931, "pitch": 56, "duration": 3, "velocity": 99}, {"time": 3931, "pitch": 59, "duration": 4, "velocity": 108}, {"time": 3931, "pitch": 63, "duration": 5, "velocity": 99}, {"time": 3937, "pitch": 56, "duration": 4, "velocity": 102}, {"time": 3937, "pitch": 63, "duration": 1, "velocity": 38}, {"time": 3943, "pitch": 44, "duration": 10, "velocity": 102}, {"time": 3943, "pitch": 56, "duration": 3, "velocity": 99}, {"time": 3943, "pitch": 59, "duration": 4, "velocity": 111}, {"time": 3943, "pitch": 63, "duration": 7, "velocity": 90}, {"time": 3949, "pitch": 56, "duration": 3, "velocity": 96}, {"time": 3955, "pitch": 44, "duration": 9, "velocity": 109}, {"time": 3955, "pitch": 56, "duration": 3, "velocity": 102}, {"time": 3955, "pitch": 59, "duration": 4, "velocity": 108}, {"time": 3955, "pitch": 63, "duration": 9, "velocity": 93}, {"time": 3961, "pitch": 56, "duration": 5, "velocity": 102}, {"time": 3961, "pitch": 59, "duration": 1, "velocity": 37}, {"time": 3967, "pitch": 45, "duration": 20, "velocity": 105}, {"time": 3967, "pitch": 57, "duration": 8, "velocity": 94}, {"time": 3967, "pitch": 61, "duration": 9, "velocity": 102}, {"time": 3967, "pitch": 64, "duration": 8, "velocity": 97}, {"time": 3973, "pitch": 52, "duration": 9, "velocity": 94}, {"time": 3979, "pitch": 57, "duration": 6, "velocity": 100}, {"time": 3979, "pitch": 61, "duration": 6, "velocity": 102}, {"time": 3979, "pitch": 64, "duration": 6, "velocity": 100}, {"time": 3985, "pitch": 52, "duration": 5, "velocity": 97}, {"time": 3991, "pitch": 47, "duration": 11, "velocity": 105}, {"time": 3991, "pitch": 59, "duration": 4, "velocity": 97}, {"time": 3991, "pitch": 63, "duration": 8, "velocity": 77}, {"time": 3991, "pitch": 66, "duration": 11, "velocity": 85}, {"time": 3997, "pitch": 59, "duration": 4, "velocity": 92}, {"time": 4003, "pitch": 47, "duration": 7, "velocity": 97}, {"time": 4003, "pitch": 54, "duration": 6, "velocity": 93}, {"time": 4003, "pitch": 59, "duration": 3, "velocity": 111}, {"time": 4003, "pitch": 63, "duration": 6, "velocity": 112}, {"time": 4003, "pitch": 66, "duration": 7, "velocity": 102}, {"time": 4009, "pitch": 59, "duration": 2, "velocity": 102}, {"time": 4015, "pitch": 44, "duration": 15, "velocity": 105}, {"time": 4015, "pitch": 56, "duration": 7, "velocity": 59}, {"time": 4015, "pitch": 59, "duration": 6, "velocity": 89}, {"time": 4015, "pitch": 63, "duration": 7, "velocity": 63}, {"time": 4021, "pitch": 51, "duration": 11, "velocity": 96}, {"time": 4027, "pitch": 56, "duration": 3, "velocity": 105}, {"time": 4027, "pitch": 59, "duration": 4, "velocity": 117}, {"time": 4027, "pitch": 63, "duration": 7, "velocity": 99}, {"time": 4033, "pitch": 44, "duration": 2, "velocity": 96}, {"time": 4033, "pitch": 56, "duration": 1, "velocity": 96}, {"time": 4039, "pitch": 49, "duration": 15, "velocity": 109}, {"time": 4039, "pitch": 61, "duration": 9, "velocity": 61}, {"time": 4039, "pitch": 64, "duration": 7, "velocity": 92}, {"time": 4039, "pitch": 68, "duration": 9, "velocity": 63}, {"time": 4045, "pitch": 56, "duration": 10, "velocity": 93}, {"time": 4051, "pitch": 61, "duration": 3, "velocity": 99}, {"time": 4051, "pitch": 64, "duration": 4, "velocity": 114}, {"time": 4051, "pitch": 68, "duration": 11, "velocity": 102}, {"time": 4057, "pitch": 61, "duration": 6, "velocity": 102}, {"time": 4057, "pitch": 64, "duration": 1, "velocity": 49}, {"time": 4063, "pitch": 42, "duration": 13, "velocity": 102}, {"time": 4063, "pitch": 54, "duration": 10, "velocity": 68}, {"time": 4063, "pitch": 57, "duration": 7, "velocity": 87}, {"time": 4063, "pitch": 61, "duration": 8, "velocity": 55}, {"time": 4069, "pitch": 49, "duration": 7, "velocity": 50}, {"time": 4075, "pitch": 54, "duration": 3, "velocity": 87}, {"time": 4075, "pitch": 57, "duration": 3, "velocity": 102}, {"time": 4075, "pitch": 61, "duration": 4, "velocity": 57}, {"time": 4075, "pitch": 66, "duration": 7, "velocity": 61}, {"time": 4087, "pitch": 66, "duration": 13, "velocity": 65}, {"time": 4087, "pitch": 63, "duration": 12, "velocity": 63}, {"time": 4087, "pitch": 47, "duration": 65, "velocity": 102}, {"time": 4087, "pitch": 59, "duration": 8, "velocity": 84}, {"time": 4093, "pitch": 54, "duration": 22, "velocity": 61}, {"time": 4099, "pitch": 59, "duration": 16, "velocity": 114}, {"time": 4105, "pitch": 63, "duration": 51, "velocity": 109}, {"time": 4110, "pitch": 66, "duration": 45, "velocity": 1}, {"time": 4112, "pitch": 71, "duration": 45, "velocity": 92}, {"time": 4117, "pitch": 51, "duration": 8, "velocity": 57}, {"time": 4123, "pitch": 54, "duration": 29, "velocity": 39}, {"time": 4159, "pitch": 40, "duration": 38, "velocity": 89}, {"time": 4159, "pitch": 52, "duration": 6, "velocity": 73}, {"time": 4159, "pitch": 59, "duration": 5, "velocity": 78}, {"time": 4165, "pitch": 47, "duration": 8, "velocity": 30}, {"time": 4171, "pitch": 52, "duration": 4, "velocity": 87}, {"time": 4171, "pitch": 56, "duration": 3, "velocity": 89}, {"time": 4171, "pitch": 59, "duration": 4, "velocity": 84}, {"time": 4177, "pitch": 47, "duration": 3, "velocity": 21}, {"time": 4180, "pitch": 52, "duration": 2, "velocity": 84}, {"time": 4180, "pitch": 59, "duration": 3, "velocity": 80}, {"time": 4183, "pitch": 47, "duration": 2, "velocity": 33}, {"time": 4186, "pitch": 52, "duration": 3, "velocity": 67}, {"time": 4189, "pitch": 47, "duration": 8, "velocity": 58}, {"time": 4195, "pitch": 52, "duration": 2, "velocity": 87}, {"time": 4195, "pitch": 56, "duration": 2, "velocity": 94}, {"time": 4195, "pitch": 59, "duration": 3, "velocity": 92}, {"time": 4207, "pitch": 47, "duration": 22, "velocity": 73}, {"time": 4207, "pitch": 54, "duration": 7, "velocity": 58}, {"time": 4207, "pitch": 59, "duration": 6, "velocity": 71}, {"time": 4219, "pitch": 54, "duration": 2, "velocity": 97}, {"time": 4219, "pitch": 63, "duration": 2, "velocity": 79}, {"time": 4228, "pitch": 54, "duration": 4, "velocity": 69}, {"time": 4228, "pitch": 59, "duration": 4, "velocity": 84}, {"time": 4231, "pitch": 47, "duration": 2, "velocity": 51}, {"time": 4234, "pitch": 54, "duration": 4, "velocity": 87}, {"time": 4237, "pitch": 47, "duration": 11, "velocity": 82}, {"time": 4240, "pitch": 54, "duration": 2, "velocity": 100}, {"time": 4243, "pitch": 54, "duration": 4, "velocity": 108}, {"time": 4243, "pitch": 59, "duration": 4, "velocity": 108}, {"time": 4255, "pitch": 49, "duration": 22, "velocity": 87}, {"time": 4255, "pitch": 56, "duration": 7, "velocity": 80}, {"time": 4255, "pitch": 61, "duration": 7, "velocity": 82}, {"time": 4267, "pitch": 56, "duration": 3, "velocity": 89}, {"time": 4267, "pitch": 64, "duration": 3, "velocity": 94}, {"time": 4276, "pitch": 56, "duration": 4, "velocity": 67}, {"time": 4276, "pitch": 61, "duration": 5, "velocity": 73}, {"time": 4279, "pitch": 49, "duration": 11, "velocity": 60}, {"time": 4282, "pitch": 56, "duration": 4, "velocity": 67}, {"time": 4285, "pitch": 61, "duration": 2, "velocity": 42}, {"time": 4291, "pitch": 49, "duration": 5, "velocity": 82}, {"time": 4291, "pitch": 56, "duration": 3, "velocity": 84}, {"time": 4291, "pitch": 61, "duration": 4, "velocity": 78}, {"time": 4291, "pitch": 64, "duration": 5, "velocity": 84}, {"time": 4297, "pitch": 56, "duration": 2, "velocity": 67}, {"time": 4303, "pitch": 45, "duration": 14, "velocity": 97}, {"time": 4303, "pitch": 57, "duration": 7, "velocity": 78}, {"time": 4303, "pitch": 61, "duration": 7, "velocity": 87}, {"time": 4309, "pitch": 52, "duration": 8, "velocity": 48}, {"time": 4315, "pitch": 57, "duration": 3, "velocity": 97}, {"time": 4315, "pitch": 64, "duration": 2, "velocity": 89}, {"time": 4324, "pitch": 57, "duration": 3, "velocity": 78}, {"time": 4324, "pitch": 61, "duration": 2, "velocity": 84}, {"time": 4327, "pitch": 45, "duration": 11, "velocity": 60}, {"time": 4330, "pitch": 52, "duration": 7, "velocity": 73}, {"time": 4333, "pitch": 57, "duration": 3, "velocity": 100}, {"time": 4339, "pitch": 45, "duration": 12, "velocity": 80}, {"time": 4339, "pitch": 52, "duration": 12, "velocity": 84}, {"time": 4339, "pitch": 57, "duration": 3, "velocity": 82}, {"time": 4339, "pitch": 61, "duration": 4, "velocity": 94}, {"time": 4345, "pitch": 57, "duration": 5, "velocity": 89}, {"time": 4352, "pitch": 40, "duration": 44, "velocity": 102}, {"time": 4356, "pitch": 47, "duration": 40, "velocity": 57}, {"time": 4359, "pitch": 52, "duration": 16, "velocity": 66}, {"time": 4364, "pitch": 56, "duration": 34, "velocity": 102}, {"time": 4369, "pitch": 59, "duration": 29, "velocity": 80}], "annotations": [{"time": 297, "annotation": {"number": 64, "value": 127}, "group": "control_change"}, {"time": 341, "annotation": {"number": 64, "value": 0}, "group": "control_change"}, {"time": 344, "annotation": {"number": 64, "value": 127}, "group": "control_change"}, {"time": 375, "annotation": {"number": 64, "value": 0}, "group": "control_change"}, {"time": 376, "annotation": {"number": 64, "value": 127}, "group": "control_change"}, {"time": 390, "annotation": {"number": 64, "value": 0}, "group": "control_change"}, {"time": 392, "annotation": {"number": 64, "value": 127}, "group": "control_change"}, {"time": 439, "annotation": {"number": 64, "value": 0}, "group": "control_change"}, {"time": 444, "annotation": {"number": 64, "value": 127}, "group": "control_change"}, {"time": 484, "annotation": {"number": 64, "value": 0}, "group": "control_change"}, {"time": 490, "annotation": {"number": 64, "value": 127}, "group": "control_change"}, {"time": 536, "annotation": {"number": 64, "value": 0}, "group": "control_change"}, {"time": 541, "annotation": {"number": 64, "value": 127}, "group": "control_change"}, {"time": 583, "annotation": {"number": 64, "value": 0}, "group": "control_change"}, {"time": 586, "annotation": {"number": 64, "value": 127}, "group": "control_change"}, {"time": 608, "annotation": {"number": 64, "value": 0}, "group": "control_change"}, {"time": 608, "annotation": {"number": 64, "value": 127}, "group": "control_change"}, {"time": 630, "annotation": {"number": 64, "value": 0}, "group": "control_change"}, {"time": 635, "annotation": {"number": 64, "value": 127}, "group": "control_change"}, {"time": 656, "annotation": {"number": 64, "value": 0}, "group": "control_change"}, {"time": 657, "annotation": {"number": 64, "value": 127}, "group": "control_change"}, {"time": 677, "annotation": {"number": 64, "value": 0}, "group": "control_change"}, {"time": 679, "annotation": {"number": 64, "value": 127}, "group": "control_change"}, {"time": 702, "annotation": {"number": 64, "value": 0}, "group": "control_change"}, {"time": 708, "annotation": {"number": 64, "value": 127}, "group": "control_change"}, {"time": 725, "annotation": {"number": 64, "value": 0}, "group": "control_change"}, {"time": 732, "annotation": {"number": 64, "value": 127}, "group": "control_change"}, {"time": 749, "annotation": {"number": 64, "value": 0}, "group": "control_change"}, {"time": 756, "annotation": {"number": 64, "value": 127}, "group": "control_change"}, {"time": 776, "annotation": {"number": 64, "value": 0}, "group": "control_change"}, {"time": 782, "annotation": {"number": 64, "value": 127}, "group": "control_change"}, {"time": 822, "annotation": {"number": 64, "value": 0}, "group": "control_change"}, {"time": 829, "annotation": {"number": 64, "value": 127}, "group": "control_change"}, {"time": 857, "annotation": {"number": 64, "value": 0}, "group": "control_change"}, {"time": 857, "annotation": {"number": 64, "value": 127}, "group": "control_change"}, {"time": 874, "annotation": {"number": 64, "value": 127}, "group": "control_change"}, {"time": 920, "annotation": {"number": 64, "value": 0}, "group": "control_change"}, {"time": 925, "annotation": {"number": 64, "value": 127}, "group": "control_change"}, {"time": 967, "annotation": {"number": 64, "value": 0}, "group": "control_change"}, {"time": 970, "annotation": {"number": 64, "value": 127}, "group": "control_change"}, {"time": 992, "annotation": {"number": 64, "value": 0}, "group": "control_change"}, {"time": 992, "annotation": {"number": 64, "value": 127}, "group": "control_change"}, {"time": 1014, "annotation": {"number": 64, "value": 0}, "group": "control_change"}, {"time": 1019, "annotation": {"number": 64, "value": 127}, "group": "control_change"}, {"time": 1040, "annotation": {"number": 64, "value": 0}, "group": "control_change"}, {"time": 1041, "annotation": {"number": 64, "value": 127}, "group": "control_change"}, {"time": 1061, "annotation": {"number": 64, "value": 0}, "group": "control_change"}, {"time": 1063, "annotation": {"number": 64, "value": 127}, "group": "control_change"}, {"time": 1086, "annotation": {"number": 64, "value": 0}, "group": "control_change"}, {"time": 1092, "annotation": {"number": 64, "value": 127}, "group": "control_change"}, {"time": 1109, "annotation": {"number": 64, "value": 0}, "group": "control_change"}, {"time": 1112, "annotation": {"number": 64, "value": 127}, "group": "control_change"}, {"time": 1122, "annotation": {"number": 64, "value": 0}, "group": "control_change"}, {"time": 1137, "annotation": {"number": 64, "value": 127}, "group": "control_change"}, {"time": 1156, "annotation": {"number": 64, "value": 0}, "group": "control_change"}, {"time": 1160, "annotation": {"number": 64, "value": 127}, "group": "control_change"}, {"time": 1183, "annotation": {"number": 64, "value": 0}, "group": "control_change"}, {"time": 1189, "annotation": {"number": 64, "value": 127}, "group": "control_change"}, {"time": 1205, "annotation": {"number": 64, "value": 0}, "group": "control_change"}, {"time": 1209, "annotation": {"number": 64, "value": 127}, "group": "control_change"}, {"time": 1230, "annotation": {"number": 64, "value": 0}, "group": "control_change"}, {"time": 1234, "annotation": {"number": 64, "value": 127}, "group": "control_change"}, {"time": 1251, "annotation": {"number": 64, "value": 0}, "group": "control_change"}, {"time": 1640, "annotation": {"number": 64, "value": 127}, "group": "control_change"}, {"time": 1662, "annotation": {"number": 64, "value": 0}, "group": "control_change"}, {"time": 1663, "annotation": {"number": 64, "value": 127}, "group": "control_change"}, {"time": 1686, "annotation": {"number": 64, "value": 0}, "group": "control_change"}, {"time": 1689, "annotation": {"number": 64, "value": 127}, "group": "control_change"}, {"time": 1734, "annotation": {"number": 64, "value": 0}, "group": "control_change"}, {"time": 1740, "annotation": {"number": 64, "value": 127}, "group": "control_change"}, {"time": 1759, "annotation": {"number": 64, "value": 0}, "group": "control_change"}, {"time": 1759, "annotation": {"number": 64, "value": 127}, "group": "control_change"}, {"time": 1771, "annotation": {"number": 64, "value": 127}, "group": "control_change"}, {"time": 1779, "annotation": {"number": 64, "value": 0}, "group": "control_change"}, {"time": 1784, "annotation": {"number": 64, "value": 127}, "group": "control_change"}, {"time": 1790, "annotation": {"number": 64, "value": 0}, "group": "control_change"}, {"time": 1794, "annotation": {"number": 64, "value": 127}, "group": "control_change"}, {"time": 1807, "annotation": {"number": 64, "value": 0}, "group": "control_change"}, {"time": 1809, "annotation": {"number": 64, "value": 127}, "group": "control_change"}, {"time": 1830, "annotation": {"number": 64, "value": 0}, "group": "control_change"}, {"time": 1832, "annotation": {"number": 64, "value": 127}, "group": "control_change"}, {"time": 1837, "annotation": {"number": 64, "value": 0}, "group": "control_change"}, {"time": 1843, "annotation": {"number": 64, "value": 127}, "group": "control_change"}, {"time": 1853, "annotation": {"number": 64, "value": 0}, "group": "control_change"}, {"time": 1858, "annotation": {"number": 64, "value": 127}, "group": "control_change"}, {"time": 1879, "annotation": {"number": 64, "value": 0}, "group": "control_change"}, {"time": 1886, "annotation": {"number": 64, "value": 127}, "group": "control_change"}, {"time": 1902, "annotation": {"number": 64, "value": 0}, "group": "control_change"}, {"time": 1908, "annotation": {"number": 64, "value": 127}, "group": "control_change"}, {"time": 1924, "annotation": {"number": 64, "value": 0}, "group": "control_change"}, {"time": 1931, "annotation": {"number": 64, "value": 127}, "group": "control_change"}, {"time": 1950, "annotation": {"number": 64, "value": 0}, "group": "control_change"}, {"time": 1955, "annotation": {"number": 64, "value": 127}, "group": "control_change"}, {"time": 1976, "annotation": {"number": 64, "value": 0}, "group": "control_change"}, {"time": 1980, "annotation": {"number": 64, "value": 127}, "group": "control_change"}, {"time": 1999, "annotation": {"number": 64, "value": 0}, "group": "control_change"}, {"time": 2002, "annotation": {"number": 64, "value": 127}, "group": "control_change"}, {"time": 2020, "annotation": {"number": 64, "value": 0}, "group": "control_change"}, {"time": 2024, "annotation": {"number": 64, "value": 127}, "group": "control_change"}, {"time": 2046, "annotation": {"number": 64, "value": 0}, "group": "control_change"}, {"time": 2047, "annotation": {"number": 64, "value": 127}, "group": "control_change"}, {"time": 2070, "annotation": {"number": 64, "value": 0}, "group": "control_change"}, {"time": 2073, "annotation": {"number": 64, "value": 127}, "group": "control_change"}, {"time": 2118, "annotation": {"number": 64, "value": 0}, "group": "control_change"}, {"time": 2124, "annotation": {"number": 64, "value": 127}, "group": "control_change"}, {"time": 2143, "annotation": {"number": 64, "value": 0}, "group": "control_change"}, {"time": 2143, "annotation": {"number": 64, "value": 127}, "group": "control_change"}, {"time": 2155, "annotation": {"number": 64, "value": 127}, "group": "control_change"}, {"time": 2163, "annotation": {"number": 64, "value": 0}, "group": "control_change"}, {"time": 2168, "annotation": {"number": 64, "value": 127}, "group": "control_change"}, {"time": 2174, "annotation": {"number": 64, "value": 0}, "group": "control_change"}, {"time": 2178, "annotation": {"number": 64, "value": 127}, "group": "control_change"}, {"time": 2191, "annotation": {"number": 64, "value": 0}, "group": "control_change"}, {"time": 2193, "annotation": {"number": 64, "value": 127}, "group": "control_change"}, {"time": 2214, "annotation": {"number": 64, "value": 0}, "group": "control_change"}, {"time": 2216, "annotation": {"number": 64, "value": 127}, "group": "control_change"}, {"time": 2221, "annotation": {"number": 64, "value": 0}, "group": "control_change"}, {"time": 2227, "annotation": {"number": 64, "value": 127}, "group": "control_change"}, {"time": 2237, "annotation": {"number": 64, "value": 0}, "group": "control_change"}, {"time": 2242, "annotation": {"number": 64, "value": 127}, "group": "control_change"}, {"time": 2263, "annotation": {"number": 64, "value": 0}, "group": "control_change"}, {"time": 2270, "annotation": {"number": 64, "value": 127}, "group": "control_change"}, {"time": 2286, "annotation": {"number": 64, "value": 0}, "group": "control_change"}, {"time": 2292, "annotation": {"number": 64, "value": 127}, "group": "control_change"}, {"time": 2308, "annotation": {"number": 64, "value": 0}, "group": "control_change"}, {"time": 2315, "annotation": {"number": 64, "value": 127}, "group": "control_change"}, {"time": 2334, "annotation": {"number": 64, "value": 0}, "group": "control_change"}, {"time": 2341, "annotation": {"number": 64, "value": 127}, "group": "control_change"}, {"time": 2357, "annotation": {"number": 64, "value": 0}, "group": "control_change"}, {"time": 2363, "annotation": {"number": 64, "value": 127}, "group": "control_change"}, {"time": 2381, "annotation": {"number": 64, "value": 0}, "group": "control_change"}, {"time": 2383, "annotation": {"number": 64, "value": 127}, "group": "control_change"}, {"time": 2457, "annotation": {"number": 64, "value": 127}, "group": "control_change"}, {"time": 2501, "annotation": {"number": 64, "value": 0}, "group": "control_change"}, {"time": 2504, "annotation": {"number": 64, "value": 127}, "group": "control_change"}, {"time": 2535, "annotation": {"number": 64, "value": 0}, "group": "control_change"}, {"time": 2536, "annotation": {"number": 64, "value": 127}, "group": "control_change"}, {"time": 2550, "annotation": {"number": 64, "value": 0}, "group": "control_change"}, {"time": 2552, "annotation": {"number": 64, "value": 127}, "group": "control_change"}, {"time": 2602, "annotation": {"number": 64, "value": 127}, "group": "control_change"}, {"time": 2622, "annotation": {"number": 64, "value": 0}, "group": "control_change"}, {"time": 2626, "annotation": {"number": 64, "value": 127}, "group": "control_change"}, {"time": 2672, "annotation": {"number": 64, "value": 0}, "group": "control_change"}, {"time": 2677, "annotation": {"number": 64, "value": 127}, "group": "control_change"}, {"time": 2719, "annotation": {"number": 64, "value": 0}, "group": "control_change"}, {"time": 2722, "annotation": {"number": 64, "value": 127}, "group": "control_change"}, {"time": 2744, "annotation": {"number": 64, "value": 0}, "group": "control_change"}, {"time": 2744, "annotation": {"number": 64, "value": 127}, "group": "control_change"}, {"time": 2766, "annotation": {"number": 64, "value": 0}, "group": "control_change"}, {"time": 2771, "annotation": {"number": 64, "value": 127}, "group": "control_change"}, {"time": 2792, "annotation": {"number": 64, "value": 0}, "group": "control_change"}, {"time": 2793, "annotation": {"number": 64, "value": 127}, "group": "control_change"}, {"time": 2813, "annotation": {"number": 64, "value": 0}, "group": "control_change"}, {"time": 2815, "annotation": {"number": 64, "value": 127}, "group": "control_change"}, {"time": 2838, "annotation": {"number": 64, "value": 0}, "group": "control_change"}, {"time": 2844, "annotation": {"number": 64, "value": 127}, "group": "control_change"}, {"time": 2861, "annotation": {"number": 64, "value": 0}, "group": "control_change"}, {"time": 2864, "annotation": {"number": 64, "value": 127}, "group": "control_change"}, {"time": 2874, "annotation": {"number": 64, "value": 0}, "group": "control_change"}, {"time": 2889, "annotation": {"number": 64, "value": 127}, "group": "control_change"}, {"time": 2908, "annotation": {"number": 64, "value": 0}, "group": "control_change"}, {"time": 2912, "annotation": {"number": 64, "value": 127}, "group": "control_change"}, {"time": 2935, "annotation": {"number": 64, "value": 0}, "group": "control_change"}, {"time": 2941, "annotation": {"number": 64, "value": 127}, "group": "control_change"}, {"time": 2957, "annotation": {"number": 64, "value": 0}, "group": "control_change"}, {"time": 2961, "annotation": {"number": 64, "value": 127}, "group": "control_change"}, {"time": 2982, "annotation": {"number": 64, "value": 0}, "group": "control_change"}, {"time": 2986, "annotation": {"number": 64, "value": 127}, "group": "control_change"}, {"time": 3003, "annotation": {"number": 64, "value": 0}, "group": "control_change"}, {"time": 3392, "annotation": {"number": 64, "value": 127}, "group": "control_change"}, {"time": 3414, "annotation": {"number": 64, "value": 0}, "group": "control_change"}, {"time": 3415, "annotation": {"number": 64, "value": 127}, "group": "control_change"}, {"time": 3438, "annotation": {"number": 64, "value": 0}, "group": "control_change"}, {"time": 3441, "annotation": {"number": 64, "value": 127}, "group": "control_change"}, {"time": 3486, "annotation": {"number": 64, "value": 0}, "group": "control_change"}, {"time": 3492, "annotation": {"number": 64, "value": 127}, "group": "control_change"}, {"time": 3511, "annotation": {"number": 64, "value": 0}, "group": "control_change"}, {"time": 3511, "annotation": {"number": 64, "value": 127}, "group": "control_change"}, {"time": 3523, "annotation": {"number": 64, "value": 127}, "group": "control_change"}, {"time": 3531, "annotation": {"number": 64, "value": 0}, "group": "control_change"}, {"time": 3536, "annotation": {"number": 64, "value": 127}, "group": "control_change"}, {"time": 3542, "annotation": {"number": 64, "value": 0}, "group": "control_change"}, {"time": 3546, "annotation": {"number": 64, "value": 127}, "group": "control_change"}, {"time": 3559, "annotation": {"number": 64, "value": 0}, "group": "control_change"}, {"time": 3561, "annotation": {"number": 64, "value": 127}, "group": "control_change"}, {"time": 3582, "annotation": {"number": 64, "value": 0}, "group": "control_change"}, {"time": 3584, "annotation": {"number": 64, "value": 127}, "group": "control_change"}, {"time": 3589, "annotation": {"number": 64, "value": 0}, "group": "control_change"}, {"time": 3595, "annotation": {"number": 64, "value": 127}, "group": "control_change"}, {"time": 3605, "annotation": {"number": 64, "value": 0}, "group": "control_change"}, {"time": 3610, "annotation": {"number": 64, "value": 127}, "group": "control_change"}, {"time": 3631, "annotation": {"number": 64, "value": 0}, "group": "control_change"}, {"time": 3638, "annotation": {"number": 64, "value": 127}, "group": "control_change"}, {"time": 3654, "annotation": {"number": 64, "value": 0}, "group": "control_change"}, {"time": 3660, "annotation": {"number": 64, "value": 127}, "group": "control_change"}, {"time": 3676, "annotation": {"number": 64, "value": 0}, "group": "control_change"}, {"time": 3683, "annotation": {"number": 64, "value": 127}, "group": "control_change"}, {"time": 3702, "annotation": {"number": 64, "value": 0}, "group": "control_change"}, {"time": 3707, "annotation": {"number": 64, "value": 127}, "group": "control_change"}, {"time": 3728, "annotation": {"number": 64, "value": 0}, "group": "control_change"}, {"time": 3732, "annotation": {"number": 64, "value": 127}, "group": "control_change"}, {"time": 3751, "annotation": {"number": 64, "value": 0}, "group": "control_change"}, {"time": 3754, "annotation": {"number": 64, "value": 127}, "group": "control_change"}, {"time": 3772, "annotation": {"number": 64, "value": 0}, "group": "control_change"}, {"time": 3776, "annotation": {"number": 64, "value": 127}, "group": "control_change"}, {"time": 3798, "annotation": {"number": 64, "value": 0}, "group": "control_change"}, {"time": 3799, "annotation": {"number": 64, "value": 127}, "group": "control_change"}, {"time": 3822, "annotation": {"number": 64, "value": 0}, "group": "control_change"}, {"time": 3825, "annotation": {"number": 64, "value": 127}, "group": "control_change"}, {"time": 3870, "annotation": {"number": 64, "value": 0}, "group": "control_change"}, {"time": 3876, "annotation": {"number": 64, "value": 127}, "group": "control_change"}, {"time": 3895, "annotation": {"number": 64, "value": 0}, "group": "control_change"}, {"time": 3895, "annotation": {"number": 64, "value": 127}, "group": "control_change"}, {"time": 3907, "annotation": {"number": 64, "value": 127}, "group": "control_change"}, {"time": 3915, "annotation": {"number": 64, "value": 0}, "group": "control_change"}, {"time": 3920, "annotation": {"number": 64, "value": 127}, "group": "control_change"}, {"time": 3926, "annotation": {"number": 64, "value": 0}, "group": "control_change"}, {"time": 3930, "annotation": {"number": 64, "value": 127}, "group": "control_change"}, {"time": 3943, "annotation": {"number": 64, "value": 0}, "group": "control_change"}, {"time": 3945, "annotation": {"number": 64, "value": 127}, "group": "control_change"}, {"time": 3966, "annotation": {"number": 64, "value": 0}, "group": "control_change"}, {"time": 3968, "annotation": {"number": 64, "value": 127}, "group": "control_change"}, {"time": 3973, "annotation": {"number": 64, "value": 0}, "group": "control_change"}, {"time": 3979, "annotation": {"number": 64, "value": 127}, "group": "control_change"}, {"time": 3989, "annotation": {"number": 64, "value": 0}, "group": "control_change"}, {"time": 3994, "annotation": {"number": 64, "value": 127}, "group": "control_change"}, {"time": 4015, "annotation": {"number": 64, "value": 0}, "group": "control_change"}, {"time": 4022, "annotation": {"number": 64, "value": 127}, "group": "control_change"}, {"time": 4038, "annotation": {"number": 64, "value": 0}, "group": "control_change"}, {"time": 4044, "annotation": {"number": 64, "value": 127}, "group": "control_change"}, {"time": 4060, "annotation": {"number": 64, "value": 0}, "group": "control_change"}, {"time": 4067, "annotation": {"number": 64, "value": 127}, "group": "control_change"}, {"time": 4098, "annotation": {"number": 64, "value": 127}, "group": "control_change"}, {"time": 4109, "annotation": {"number": 64, "value": 0}, "group": "control_change"}, {"time": 4112, "annotation": {"number": 64, "value": 127}, "group": "control_change"}, {"time": 4157, "annotation": {"number": 64, "value": 0}, "group": "control_change"}, {"time": 4161, "annotation": {"number": 64, "value": 127}, "group": "control_change"}, {"time": 4205, "annotation": {"number": 64, "value": 0}, "group": "control_change"}, {"time": 4208, "annotation": {"number": 64, "value": 127}, "group": "control_change"}, {"time": 4239, "annotation": {"number": 64, "value": 0}, "group": "control_change"}, {"time": 4240, "annotation": {"number": 64, "value": 127}, "group": "control_change"}, {"time": 4254, "annotation": {"number": 64, "value": 0}, "group": "control_change"}, {"time": 4256, "annotation": {"number": 64, "value": 127}, "group": "control_change"}, {"time": 4303, "annotation": {"number": 64, "value": 0}, "group": "control_change"}, {"time": 4308, "annotation": {"number": 64, "value": 127}, "group": "control_change"}, {"time": 4348, "annotation": {"number": 64, "value": 0}, "group": "control_change"}, {"time": 4358, "annotation": {"number": 64, "value": 127}, "group": "control_change"}, {"time": 4430, "annotation": {"number": 64, "value": 0}, "group": "control_change"}]}]}