{"metadata": {"schema_version": "0.2", "title": "None", "source_filename": "136.mid", "source_format": "midi"}, "resolution": 12, "tempos": [{"time": 0, "qpm": 89.00004005001803}, {"time": 1464, "qpm": 88.00002346667293}, {"time": 1524, "qpm": 89.00004005001803}, {"time": 2400, "qpm": 88.00002346667293}, {"time": 2517, "qpm": 89.00004005001803}], "time_signatures": [{"time": 0, "numerator": 1, "denominator": 4}], "tracks": [{"program": 4, "is_drum": false, "name": "MELODY", "notes": [{"time": 322, "pitch": 64, "duration": 3, "velocity": 100}, {"time": 325, "pitch": 62, "duration": 3, "velocity": 84}, {"time": 328, "pitch": 64, "duration": 4, "velocity": 94}, {"time": 331, "pitch": 67, "duration": 3, "velocity": 105}, {"time": 334, "pitch": 60, "duration": 12, "velocity": 111}, {"time": 346, "pitch": 57, "duration": 12, "velocity": 111}, {"time": 358, "pitch": 55, "duration": 12, "velocity": 105}, {"time": 370, "pitch": 64, "duration": 3, "velocity": 108}, {"time": 373, "pitch": 62, "duration": 3, "velocity": 82}, {"time": 376, "pitch": 64, "duration": 3, "velocity": 108}, {"time": 379, "pitch": 67, "duration": 3, "velocity": 114}, {"time": 382, "pitch": 60, "duration": 12, "velocity": 105}, {"time": 394, "pitch": 69, "duration": 12, "velocity": 117}, {"time": 406, "pitch": 67, "duration": 12, "velocity": 105}, {"time": 418, "pitch": 69, "duration": 6, "velocity": 111}, {"time": 424, "pitch": 72, "duration": 6, "velocity": 117}, {"time": 430, "pitch": 64, "duration": 12, "velocity": 111}, {"time": 442, "pitch": 67, "duration": 6, "velocity": 111}, {"time": 448, "pitch": 69, "duration": 6, "velocity": 111}, {"time": 454, "pitch": 62, "duration": 9, "velocity": 108}, {"time": 463, "pitch": 64, "duration": 3, "velocity": 92}, {"time": 466, "pitch": 60, "duration": 6, "velocity": 100}, {"time": 472, "pitch": 57, "duration": 6, "velocity": 111}, {"time": 478, "pitch": 55, "duration": 36, "velocity": 92}, {"time": 514, "pitch": 64, "duration": 3, "velocity": 100}, {"time": 517, "pitch": 62, "duration": 3, "velocity": 84}, {"time": 520, "pitch": 64, "duration": 4, "velocity": 94}, {"time": 523, "pitch": 67, "duration": 3, "velocity": 105}, {"time": 526, "pitch": 60, "duration": 12, "velocity": 111}, {"time": 538, "pitch": 57, "duration": 12, "velocity": 111}, {"time": 550, "pitch": 55, "duration": 12, "velocity": 105}, {"time": 562, "pitch": 64, "duration": 3, "velocity": 108}, {"time": 565, "pitch": 62, "duration": 3, "velocity": 82}, {"time": 568, "pitch": 64, "duration": 3, "velocity": 108}, {"time": 571, "pitch": 67, "duration": 3, "velocity": 114}, {"time": 574, "pitch": 60, "duration": 12, "velocity": 105}, {"time": 586, "pitch": 69, "duration": 12, "velocity": 117}, {"time": 598, "pitch": 67, "duration": 12, "velocity": 105}, {"time": 610, "pitch": 69, "duration": 6, "velocity": 111}, {"time": 616, "pitch": 72, "duration": 6, "velocity": 117}, {"time": 622, "pitch": 64, "duration": 12, "velocity": 111}, {"time": 634, "pitch": 67, "duration": 6, "velocity": 111}, {"time": 640, "pitch": 69, "duration": 6, "velocity": 111}, {"time": 646, "pitch": 62, "duration": 9, "velocity": 108}, {"time": 655, "pitch": 64, "duration": 3, "velocity": 92}, {"time": 658, "pitch": 55, "duration": 3, "velocity": 105}, {"time": 661, "pitch": 57, "duration": 3, "velocity": 84}, {"time": 664, "pitch": 55, "duration": 3, "velocity": 97}, {"time": 667, "pitch": 57, "duration": 3, "velocity": 111}, {"time": 670, "pitch": 60, "duration": 36, "velocity": 108}, {"time": 706, "pitch": 64, "duration": 6, "velocity": 102}, {"time": 712, "pitch": 67, "duration": 6, "velocity": 108}, {"time": 718, "pitch": 69, "duration": 12, "velocity": 108}, {"time": 730, "pitch": 72, "duration": 6, "velocity": 114}, {"time": 736, "pitch": 69, "duration": 6, "velocity": 108}, {"time": 742, "pitch": 69, "duration": 12, "velocity": 108}, {"time": 754, "pitch": 64, "duration": 6, "velocity": 114}, {"time": 760, "pitch": 69, "duration": 6, "velocity": 102}, {"time": 766, "pitch": 67, "duration": 9, "velocity": 114}, {"time": 775, "pitch": 67, "duration": 3, "velocity": 114}, {"time": 778, "pitch": 69, "duration": 6, "velocity": 105}, {"time": 784, "pitch": 67, "duration": 3, "velocity": 117}, {"time": 787, "pitch": 64, "duration": 3, "velocity": 94}, {"time": 790, "pitch": 67, "duration": 12, "velocity": 114}, {"time": 802, "pitch": 67, "duration": 6, "velocity": 111}, {"time": 808, "pitch": 69, "duration": 6, "velocity": 108}, {"time": 814, "pitch": 72, "duration": 6, "velocity": 108}, {"time": 820, "pitch": 72, "duration": 6, "velocity": 108}, {"time": 826, "pitch": 72, "duration": 6, "velocity": 111}, {"time": 832, "pitch": 74, "duration": 6, "velocity": 111}, {"time": 838, "pitch": 72, "duration": 9, "velocity": 111}, {"time": 847, "pitch": 72, "duration": 3, "velocity": 105}, {"time": 850, "pitch": 69, "duration": 6, "velocity": 117}, {"time": 856, "pitch": 67, "duration": 3, "velocity": 105}, {"time": 859, "pitch": 69, "duration": 3, "velocity": 108}, {"time": 862, "pitch": 67, "duration": 36, "velocity": 108}, {"time": 898, "pitch": 64, "duration": 6, "velocity": 105}, {"time": 904, "pitch": 67, "duration": 6, "velocity": 108}, {"time": 910, "pitch": 69, "duration": 12, "velocity": 105}, {"time": 922, "pitch": 69, "duration": 3, "velocity": 111}, {"time": 925, "pitch": 72, "duration": 3, "velocity": 100}, {"time": 928, "pitch": 69, "duration": 3, "velocity": 108}, {"time": 931, "pitch": 67, "duration": 3, "velocity": 97}, {"time": 934, "pitch": 69, "duration": 15, "velocity": 100}, {"time": 949, "pitch": 64, "duration": 3, "velocity": 111}, {"time": 952, "pitch": 69, "duration": 6, "velocity": 105}, {"time": 958, "pitch": 67, "duration": 12, "velocity": 105}, {"time": 970, "pitch": 67, "duration": 3, "velocity": 108}, {"time": 973, "pitch": 69, "duration": 3, "velocity": 89}, {"time": 976, "pitch": 67, "duration": 3, "velocity": 105}, {"time": 979, "pitch": 64, "duration": 3, "velocity": 102}, {"time": 982, "pitch": 67, "duration": 12, "velocity": 111}, {"time": 994, "pitch": 67, "duration": 6, "velocity": 89}, {"time": 1000, "pitch": 69, "duration": 6, "velocity": 105}, {"time": 1006, "pitch": 62, "duration": 12, "velocity": 105}, {"time": 1018, "pitch": 62, "duration": 6, "velocity": 102}, {"time": 1024, "pitch": 64, "duration": 6, "velocity": 100}, {"time": 1030, "pitch": 60, "duration": 10, "velocity": 111}, {"time": 1039, "pitch": 62, "duration": 3, "velocity": 84}, {"time": 1042, "pitch": 60, "duration": 3, "velocity": 92}, {"time": 1045, "pitch": 62, "duration": 3, "velocity": 92}, {"time": 1048, "pitch": 60, "duration": 3, "velocity": 78}, {"time": 1051, "pitch": 57, "duration": 3, "velocity": 97}, {"time": 1054, "pitch": 55, "duration": 36, "velocity": 111}, {"time": 1090, "pitch": 64, "duration": 3, "velocity": 100}, {"time": 1093, "pitch": 62, "duration": 3, "velocity": 84}, {"time": 1096, "pitch": 64, "duration": 4, "velocity": 94}, {"time": 1099, "pitch": 67, "duration": 3, "velocity": 105}, {"time": 1102, "pitch": 60, "duration": 12, "velocity": 111}, {"time": 1114, "pitch": 57, "duration": 12, "velocity": 111}, {"time": 1126, "pitch": 55, "duration": 12, "velocity": 105}, {"time": 1138, "pitch": 64, "duration": 3, "velocity": 108}, {"time": 1141, "pitch": 62, "duration": 3, "velocity": 82}, {"time": 1144, "pitch": 64, "duration": 3, "velocity": 108}, {"time": 1147, "pitch": 67, "duration": 3, "velocity": 114}, {"time": 1150, "pitch": 60, "duration": 12, "velocity": 105}, {"time": 1162, "pitch": 69, "duration": 12, "velocity": 117}, {"time": 1174, "pitch": 67, "duration": 12, "velocity": 105}, {"time": 1186, "pitch": 69, "duration": 6, "velocity": 111}, {"time": 1192, "pitch": 72, "duration": 6, "velocity": 117}, {"time": 1198, "pitch": 64, "duration": 12, "velocity": 111}, {"time": 1210, "pitch": 67, "duration": 6, "velocity": 111}, {"time": 1216, "pitch": 69, "duration": 6, "velocity": 111}, {"time": 1222, "pitch": 62, "duration": 9, "velocity": 108}, {"time": 1231, "pitch": 64, "duration": 3, "velocity": 92}, {"time": 1234, "pitch": 55, "duration": 3, "velocity": 105}, {"time": 1237, "pitch": 57, "duration": 3, "velocity": 84}, {"time": 1240, "pitch": 55, "duration": 3, "velocity": 97}, {"time": 1243, "pitch": 57, "duration": 3, "velocity": 111}, {"time": 1246, "pitch": 60, "duration": 45, "velocity": 108}, {"time": 1474, "pitch": 64, "duration": 3, "velocity": 100}, {"time": 1477, "pitch": 62, "duration": 3, "velocity": 84}, {"time": 1480, "pitch": 64, "duration": 4, "velocity": 94}, {"time": 1483, "pitch": 67, "duration": 3, "velocity": 105}, {"time": 1486, "pitch": 60, "duration": 12, "velocity": 111}, {"time": 1498, "pitch": 57, "duration": 12, "velocity": 111}, {"time": 1510, "pitch": 55, "duration": 12, "velocity": 105}, {"time": 1522, "pitch": 64, "duration": 3, "velocity": 108}, {"time": 1525, "pitch": 62, "duration": 3, "velocity": 82}, {"time": 1528, "pitch": 64, "duration": 3, "velocity": 108}, {"time": 1531, "pitch": 67, "duration": 3, "velocity": 114}, {"time": 1534, "pitch": 60, "duration": 12, "velocity": 105}, {"time": 1546, "pitch": 69, "duration": 12, "velocity": 117}, {"time": 1558, "pitch": 67, "duration": 12, "velocity": 105}, {"time": 1570, "pitch": 69, "duration": 6, "velocity": 111}, {"time": 1576, "pitch": 72, "duration": 6, "velocity": 117}, {"time": 1582, "pitch": 64, "duration": 12, "velocity": 111}, {"time": 1594, "pitch": 67, "duration": 6, "velocity": 111}, {"time": 1600, "pitch": 69, "duration": 6, "velocity": 111}, {"time": 1606, "pitch": 62, "duration": 9, "velocity": 108}, {"time": 1615, "pitch": 64, "duration": 3, "velocity": 92}, {"time": 1618, "pitch": 60, "duration": 6, "velocity": 100}, {"time": 1624, "pitch": 57, "duration": 6, "velocity": 111}, {"time": 1630, "pitch": 55, "duration": 36, "velocity": 92}, {"time": 1666, "pitch": 64, "duration": 3, "velocity": 100}, {"time": 1669, "pitch": 62, "duration": 3, "velocity": 84}, {"time": 1672, "pitch": 64, "duration": 4, "velocity": 94}, {"time": 1675, "pitch": 67, "duration": 3, "velocity": 105}, {"time": 1678, "pitch": 60, "duration": 12, "velocity": 111}, {"time": 1690, "pitch": 57, "duration": 12, "velocity": 111}, {"time": 1702, "pitch": 55, "duration": 12, "velocity": 105}, {"time": 1714, "pitch": 64, "duration": 3, "velocity": 108}, {"time": 1717, "pitch": 62, "duration": 3, "velocity": 82}, {"time": 1720, "pitch": 64, "duration": 3, "velocity": 108}, {"time": 1723, "pitch": 67, "duration": 3, "velocity": 114}, {"time": 1726, "pitch": 60, "duration": 12, "velocity": 105}, {"time": 1738, "pitch": 69, "duration": 12, "velocity": 117}, {"time": 1750, "pitch": 67, "duration": 12, "velocity": 105}, {"time": 1762, "pitch": 69, "duration": 6, "velocity": 111}, {"time": 1768, "pitch": 72, "duration": 6, "velocity": 117}, {"time": 1774, "pitch": 64, "duration": 12, "velocity": 111}, {"time": 1786, "pitch": 67, "duration": 6, "velocity": 111}, {"time": 1792, "pitch": 69, "duration": 6, "velocity": 111}, {"time": 1798, "pitch": 62, "duration": 9, "velocity": 108}, {"time": 1807, "pitch": 64, "duration": 3, "velocity": 92}, {"time": 1810, "pitch": 55, "duration": 3, "velocity": 105}, {"time": 1813, "pitch": 57, "duration": 3, "velocity": 84}, {"time": 1816, "pitch": 55, "duration": 3, "velocity": 97}, {"time": 1819, "pitch": 57, "duration": 3, "velocity": 111}, {"time": 1822, "pitch": 60, "duration": 36, "velocity": 108}, {"time": 1858, "pitch": 64, "duration": 6, "velocity": 102}, {"time": 1864, "pitch": 67, "duration": 6, "velocity": 108}, {"time": 1870, "pitch": 69, "duration": 12, "velocity": 108}, {"time": 1882, "pitch": 72, "duration": 6, "velocity": 114}, {"time": 1888, "pitch": 69, "duration": 6, "velocity": 108}, {"time": 1894, "pitch": 69, "duration": 12, "velocity": 108}, {"time": 1906, "pitch": 64, "duration": 6, "velocity": 114}, {"time": 1912, "pitch": 69, "duration": 6, "velocity": 102}, {"time": 1918, "pitch": 67, "duration": 9, "velocity": 114}, {"time": 1927, "pitch": 67, "duration": 3, "velocity": 114}, {"time": 1930, "pitch": 69, "duration": 6, "velocity": 105}, {"time": 1936, "pitch": 67, "duration": 3, "velocity": 117}, {"time": 1939, "pitch": 64, "duration": 3, "velocity": 94}, {"time": 1942, "pitch": 67, "duration": 12, "velocity": 114}, {"time": 1954, "pitch": 67, "duration": 6, "velocity": 111}, {"time": 1960, "pitch": 69, "duration": 6, "velocity": 108}, {"time": 1966, "pitch": 72, "duration": 6, "velocity": 108}, {"time": 1972, "pitch": 72, "duration": 6, "velocity": 108}, {"time": 1978, "pitch": 72, "duration": 6, "velocity": 111}, {"time": 1984, "pitch": 74, "duration": 6, "velocity": 111}, {"time": 1990, "pitch": 72, "duration": 9, "velocity": 111}, {"time": 1999, "pitch": 72, "duration": 3, "velocity": 105}, {"time": 2002, "pitch": 69, "duration": 6, "velocity": 117}, {"time": 2008, "pitch": 67, "duration": 3, "velocity": 105}, {"time": 2011, "pitch": 69, "duration": 3, "velocity": 108}, {"time": 2014, "pitch": 67, "duration": 36, "velocity": 108}, {"time": 2050, "pitch": 64, "duration": 6, "velocity": 105}, {"time": 2056, "pitch": 67, "duration": 6, "velocity": 108}, {"time": 2062, "pitch": 69, "duration": 12, "velocity": 105}, {"time": 2074, "pitch": 69, "duration": 3, "velocity": 111}, {"time": 2077, "pitch": 72, "duration": 3, "velocity": 100}, {"time": 2080, "pitch": 69, "duration": 3, "velocity": 108}, {"time": 2083, "pitch": 67, "duration": 3, "velocity": 97}, {"time": 2086, "pitch": 69, "duration": 15, "velocity": 100}, {"time": 2101, "pitch": 64, "duration": 3, "velocity": 111}, {"time": 2104, "pitch": 69, "duration": 6, "velocity": 105}, {"time": 2110, "pitch": 67, "duration": 12, "velocity": 105}, {"time": 2122, "pitch": 67, "duration": 3, "velocity": 108}, {"time": 2125, "pitch": 69, "duration": 3, "velocity": 89}, {"time": 2128, "pitch": 67, "duration": 3, "velocity": 105}, {"time": 2131, "pitch": 64, "duration": 3, "velocity": 102}, {"time": 2134, "pitch": 67, "duration": 12, "velocity": 111}, {"time": 2146, "pitch": 67, "duration": 6, "velocity": 89}, {"time": 2152, "pitch": 69, "duration": 6, "velocity": 105}, {"time": 2158, "pitch": 62, "duration": 12, "velocity": 105}, {"time": 2170, "pitch": 62, "duration": 6, "velocity": 102}, {"time": 2176, "pitch": 64, "duration": 6, "velocity": 100}, {"time": 2182, "pitch": 60, "duration": 10, "velocity": 111}, {"time": 2191, "pitch": 62, "duration": 3, "velocity": 84}, {"time": 2194, "pitch": 60, "duration": 3, "velocity": 92}, {"time": 2197, "pitch": 62, "duration": 3, "velocity": 92}, {"time": 2200, "pitch": 60, "duration": 3, "velocity": 78}, {"time": 2203, "pitch": 57, "duration": 3, "velocity": 97}, {"time": 2206, "pitch": 55, "duration": 36, "velocity": 111}, {"time": 2242, "pitch": 64, "duration": 3, "velocity": 100}, {"time": 2245, "pitch": 62, "duration": 3, "velocity": 84}, {"time": 2248, "pitch": 64, "duration": 4, "velocity": 94}, {"time": 2251, "pitch": 67, "duration": 3, "velocity": 105}, {"time": 2254, "pitch": 60, "duration": 12, "velocity": 111}, {"time": 2266, "pitch": 57, "duration": 12, "velocity": 111}, {"time": 2278, "pitch": 55, "duration": 12, "velocity": 105}, {"time": 2290, "pitch": 64, "duration": 3, "velocity": 108}, {"time": 2293, "pitch": 62, "duration": 3, "velocity": 82}, {"time": 2296, "pitch": 64, "duration": 3, "velocity": 108}, {"time": 2299, "pitch": 67, "duration": 3, "velocity": 114}, {"time": 2302, "pitch": 60, "duration": 12, "velocity": 105}, {"time": 2314, "pitch": 69, "duration": 12, "velocity": 117}, {"time": 2326, "pitch": 67, "duration": 12, "velocity": 105}, {"time": 2338, "pitch": 69, "duration": 6, "velocity": 111}, {"time": 2344, "pitch": 72, "duration": 6, "velocity": 117}, {"time": 2350, "pitch": 64, "duration": 12, "velocity": 111}, {"time": 2362, "pitch": 67, "duration": 6, "velocity": 111}, {"time": 2368, "pitch": 69, "duration": 6, "velocity": 111}, {"time": 2374, "pitch": 62, "duration": 9, "velocity": 108}, {"time": 2383, "pitch": 64, "duration": 3, "velocity": 92}, {"time": 2386, "pitch": 55, "duration": 3, "velocity": 105}, {"time": 2389, "pitch": 57, "duration": 3, "velocity": 84}, {"time": 2392, "pitch": 55, "duration": 3, "velocity": 97}, {"time": 2395, "pitch": 57, "duration": 3, "velocity": 111}, {"time": 2398, "pitch": 60, "duration": 38, "velocity": 108}, {"time": 2818, "pitch": 64, "duration": 4, "velocity": 102}, {"time": 2824, "pitch": 67, "duration": 4, "velocity": 108}, {"time": 2830, "pitch": 69, "duration": 10, "velocity": 108}, {"time": 2842, "pitch": 72, "duration": 5, "velocity": 114}, {"time": 2848, "pitch": 69, "duration": 5, "velocity": 108}, {"time": 2854, "pitch": 69, "duration": 10, "velocity": 108}, {"time": 2866, "pitch": 64, "duration": 5, "velocity": 114}, {"time": 2872, "pitch": 69, "duration": 4, "velocity": 102}, {"time": 2878, "pitch": 67, "duration": 7, "velocity": 114}, {"time": 2887, "pitch": 67, "duration": 2, "velocity": 114}, {"time": 2890, "pitch": 69, "duration": 4, "velocity": 105}, {"time": 2896, "pitch": 67, "duration": 2, "velocity": 117}, {"time": 2899, "pitch": 64, "duration": 2, "velocity": 94}, {"time": 2902, "pitch": 67, "duration": 8, "velocity": 114}, {"time": 2914, "pitch": 67, "duration": 4, "velocity": 111}, {"time": 2920, "pitch": 69, "duration": 4, "velocity": 108}, {"time": 2926, "pitch": 72, "duration": 4, "velocity": 108}, {"time": 2932, "pitch": 72, "duration": 3, "velocity": 108}, {"time": 2938, "pitch": 72, "duration": 4, "velocity": 111}, {"time": 2944, "pitch": 74, "duration": 4, "velocity": 111}, {"time": 2950, "pitch": 72, "duration": 7, "velocity": 111}, {"time": 2959, "pitch": 72, "duration": 2, "velocity": 105}, {"time": 2962, "pitch": 69, "duration": 5, "velocity": 117}, {"time": 2968, "pitch": 67, "duration": 2, "velocity": 105}, {"time": 2971, "pitch": 69, "duration": 2, "velocity": 108}, {"time": 2974, "pitch": 67, "duration": 29, "velocity": 108}, {"time": 3010, "pitch": 64, "duration": 4, "velocity": 105}, {"time": 3016, "pitch": 67, "duration": 5, "velocity": 108}, {"time": 3022, "pitch": 69, "duration": 9, "velocity": 105}, {"time": 3034, "pitch": 69, "duration": 2, "velocity": 111}, {"time": 3037, "pitch": 72, "duration": 2, "velocity": 100}, {"time": 3040, "pitch": 69, "duration": 2, "velocity": 108}, {"time": 3043, "pitch": 67, "duration": 2, "velocity": 97}, {"time": 3046, "pitch": 69, "duration": 8, "velocity": 100}, {"time": 3061, "pitch": 64, "duration": 2, "velocity": 111}, {"time": 3064, "pitch": 69, "duration": 3, "velocity": 105}, {"time": 3070, "pitch": 67, "duration": 8, "velocity": 105}, {"time": 3082, "pitch": 67, "duration": 2, "velocity": 108}, {"time": 3085, "pitch": 69, "duration": 2, "velocity": 89}, {"time": 3088, "pitch": 67, "duration": 2, "velocity": 105}, {"time": 3091, "pitch": 64, "duration": 2, "velocity": 102}, {"time": 3094, "pitch": 67, "duration": 8, "velocity": 111}, {"time": 3106, "pitch": 67, "duration": 4, "velocity": 89}, {"time": 3112, "pitch": 69, "duration": 3, "velocity": 105}, {"time": 3118, "pitch": 62, "duration": 8, "velocity": 105}, {"time": 3130, "pitch": 62, "duration": 5, "velocity": 102}, {"time": 3136, "pitch": 64, "duration": 5, "velocity": 100}, {"time": 3142, "pitch": 60, "duration": 10, "velocity": 111}, {"time": 3151, "pitch": 62, "duration": 3, "velocity": 84}, {"time": 3154, "pitch": 60, "duration": 2, "velocity": 92}, {"time": 3157, "pitch": 62, "duration": 2, "velocity": 92}, {"time": 3160, "pitch": 60, "duration": 2, "velocity": 78}, {"time": 3163, "pitch": 57, "duration": 2, "velocity": 97}, {"time": 3166, "pitch": 55, "duration": 33, "velocity": 111}, {"time": 3202, "pitch": 64, "duration": 3, "velocity": 100}, {"time": 3205, "pitch": 62, "duration": 3, "velocity": 84}, {"time": 3208, "pitch": 64, "duration": 4, "velocity": 94}, {"time": 3211, "pitch": 67, "duration": 3, "velocity": 105}, {"time": 3214, "pitch": 60, "duration": 9, "velocity": 111}, {"time": 3226, "pitch": 57, "duration": 10, "velocity": 111}, {"time": 3238, "pitch": 55, "duration": 9, "velocity": 105}, {"time": 3250, "pitch": 64, "duration": 2, "velocity": 108}, {"time": 3253, "pitch": 62, "duration": 2, "velocity": 82}, {"time": 3256, "pitch": 64, "duration": 2, "velocity": 108}, {"time": 3259, "pitch": 67, "duration": 2, "velocity": 114}, {"time": 3262, "pitch": 60, "duration": 9, "velocity": 105}, {"time": 3274, "pitch": 69, "duration": 10, "velocity": 117}, {"time": 3286, "pitch": 67, "duration": 8, "velocity": 105}, {"time": 3298, "pitch": 69, "duration": 4, "velocity": 111}, {"time": 3304, "pitch": 72, "duration": 3, "velocity": 117}, {"time": 3310, "pitch": 64, "duration": 10, "velocity": 111}, {"time": 3322, "pitch": 67, "duration": 4, "velocity": 111}, {"time": 3328, "pitch": 69, "duration": 4, "velocity": 111}, {"time": 3334, "pitch": 62, "duration": 9, "velocity": 108}, {"time": 3343, "pitch": 64, "duration": 2, "velocity": 92}, {"time": 3346, "pitch": 55, "duration": 2, "velocity": 105}, {"time": 3349, "pitch": 57, "duration": 2, "velocity": 84}, {"time": 3352, "pitch": 55, "duration": 3, "velocity": 97}, {"time": 3355, "pitch": 57, "duration": 2, "velocity": 111}, {"time": 3358, "pitch": 60, "duration": 33, "velocity": 108}]}, {"program": 0, "is_drum": false, "name": "PIANO", "notes": [{"time": 46, "pitch": 48, "duration": 10, "velocity": 100}, {"time": 52, "pitch": 55, "duration": 7, "velocity": 80}, {"time": 52, "pitch": 60, "duration": 7, "velocity": 87}, {"time": 52, "pitch": 64, "duration": 8, "velocity": 100}, {"time": 58, "pitch": 43, "duration": 8, "velocity": 100}, {"time": 64, "pitch": 55, "duration": 3, "velocity": 84}, {"time": 64, "pitch": 60, "duration": 3, "velocity": 84}, {"time": 64, "pitch": 64, "duration": 4, "velocity": 87}, {"time": 70, "pitch": 48, "duration": 9, "velocity": 62}, {"time": 76, "pitch": 55, "duration": 4, "velocity": 87}, {"time": 76, "pitch": 60, "duration": 4, "velocity": 92}, {"time": 76, "pitch": 64, "duration": 4, "velocity": 94}, {"time": 82, "pitch": 43, "duration": 8, "velocity": 100}, {"time": 88, "pitch": 55, "duration": 3, "velocity": 87}, {"time": 88, "pitch": 60, "duration": 3, "velocity": 105}, {"time": 88, "pitch": 64, "duration": 3, "velocity": 100}, {"time": 94, "pitch": 48, "duration": 9, "velocity": 89}, {"time": 100, "pitch": 55, "duration": 8, "velocity": 84}, {"time": 100, "pitch": 60, "duration": 8, "velocity": 94}, {"time": 100, "pitch": 64, "duration": 8, "velocity": 97}, {"time": 106, "pitch": 43, "duration": 8, "velocity": 97}, {"time": 112, "pitch": 55, "duration": 4, "velocity": 82}, {"time": 112, "pitch": 60, "duration": 4, "velocity": 105}, {"time": 112, "pitch": 64, "duration": 4, "velocity": 100}, {"time": 118, "pitch": 48, "duration": 12, "velocity": 78}, {"time": 124, "pitch": 55, "duration": 10, "velocity": 102}, {"time": 124, "pitch": 60, "duration": 10, "velocity": 114}, {"time": 124, "pitch": 64, "duration": 9, "velocity": 102}, {"time": 130, "pitch": 43, "duration": 8, "velocity": 105}, {"time": 136, "pitch": 55, "duration": 3, "velocity": 102}, {"time": 136, "pitch": 60, "duration": 3, "velocity": 111}, {"time": 136, "pitch": 64, "duration": 2, "velocity": 102}, {"time": 142, "pitch": 41, "duration": 9, "velocity": 105}, {"time": 148, "pitch": 57, "duration": 3, "velocity": 97}, {"time": 148, "pitch": 60, "duration": 3, "velocity": 102}, {"time": 148, "pitch": 65, "duration": 3, "velocity": 92}, {"time": 154, "pitch": 48, "duration": 11, "velocity": 97}, {"time": 160, "pitch": 57, "duration": 7, "velocity": 100}, {"time": 160, "pitch": 60, "duration": 6, "velocity": 102}, {"time": 160, "pitch": 65, "duration": 6, "velocity": 94}, {"time": 166, "pitch": 41, "duration": 9, "velocity": 87}, {"time": 172, "pitch": 57, "duration": 3, "velocity": 100}, {"time": 172, "pitch": 60, "duration": 2, "velocity": 102}, {"time": 172, "pitch": 65, "duration": 3, "velocity": 100}, {"time": 178, "pitch": 48, "duration": 9, "velocity": 92}, {"time": 184, "pitch": 57, "duration": 5, "velocity": 97}, {"time": 184, "pitch": 60, "duration": 4, "velocity": 97}, {"time": 184, "pitch": 65, "duration": 6, "velocity": 100}, {"time": 190, "pitch": 48, "duration": 11, "velocity": 105}, {"time": 196, "pitch": 55, "duration": 5, "velocity": 97}, {"time": 196, "pitch": 60, "duration": 5, "velocity": 92}, {"time": 196, "pitch": 64, "duration": 5, "velocity": 97}, {"time": 202, "pitch": 43, "duration": 8, "velocity": 97}, {"time": 208, "pitch": 55, "duration": 3, "velocity": 92}, {"time": 208, "pitch": 60, "duration": 3, "velocity": 94}, {"time": 208, "pitch": 64, "duration": 3, "velocity": 92}, {"time": 214, "pitch": 48, "duration": 12, "velocity": 92}, {"time": 220, "pitch": 55, "duration": 8, "velocity": 97}, {"time": 220, "pitch": 60, "duration": 8, "velocity": 97}, {"time": 220, "pitch": 64, "duration": 8, "velocity": 94}, {"time": 226, "pitch": 43, "duration": 9, "velocity": 97}, {"time": 232, "pitch": 55, "duration": 4, "velocity": 100}, {"time": 232, "pitch": 60, "duration": 4, "velocity": 102}, {"time": 232, "pitch": 64, "duration": 4, "velocity": 94}, {"time": 238, "pitch": 43, "duration": 8, "velocity": 97}, {"time": 244, "pitch": 55, "duration": 7, "velocity": 80}, {"time": 244, "pitch": 59, "duration": 6, "velocity": 89}, {"time": 244, "pitch": 62, "duration": 6, "velocity": 94}, {"time": 250, "pitch": 50, "duration": 8, "velocity": 97}, {"time": 256, "pitch": 55, "duration": 4, "velocity": 89}, {"time": 256, "pitch": 59, "duration": 3, "velocity": 94}, {"time": 256, "pitch": 62, "duration": 3, "velocity": 92}, {"time": 262, "pitch": 43, "duration": 14, "velocity": 97}, {"time": 268, "pitch": 55, "duration": 8, "velocity": 92}, {"time": 268, "pitch": 59, "duration": 8, "velocity": 100}, {"time": 268, "pitch": 62, "duration": 8, "velocity": 97}, {"time": 274, "pitch": 50, "duration": 8, "velocity": 80}, {"time": 280, "pitch": 55, "duration": 5, "velocity": 100}, {"time": 280, "pitch": 59, "duration": 4, "velocity": 102}, {"time": 280, "pitch": 62, "duration": 5, "velocity": 97}, {"time": 286, "pitch": 48, "duration": 11, "velocity": 92}, {"time": 292, "pitch": 55, "duration": 9, "velocity": 102}, {"time": 292, "pitch": 60, "duration": 9, "velocity": 102}, {"time": 292, "pitch": 64, "duration": 9, "velocity": 100}, {"time": 298, "pitch": 43, "duration": 10, "velocity": 100}, {"time": 304, "pitch": 55, "duration": 3, "velocity": 92}, {"time": 304, "pitch": 60, "duration": 3, "velocity": 94}, {"time": 304, "pitch": 64, "duration": 3, "velocity": 92}, {"time": 310, "pitch": 48, "duration": 22, "velocity": 102}, {"time": 310, "pitch": 55, "duration": 24, "velocity": 97}, {"time": 310, "pitch": 60, "duration": 23, "velocity": 97}, {"time": 310, "pitch": 64, "duration": 23, "velocity": 97}, {"time": 334, "pitch": 48, "duration": 8, "velocity": 111}, {"time": 340, "pitch": 55, "duration": 4, "velocity": 102}, {"time": 340, "pitch": 60, "duration": 3, "velocity": 108}, {"time": 340, "pitch": 64, "duration": 4, "velocity": 105}, {"time": 346, "pitch": 41, "duration": 8, "velocity": 100}, {"time": 352, "pitch": 53, "duration": 4, "velocity": 94}, {"time": 352, "pitch": 57, "duration": 4, "velocity": 100}, {"time": 352, "pitch": 60, "duration": 4, "velocity": 100}, {"time": 358, "pitch": 48, "duration": 11, "velocity": 102}, {"time": 364, "pitch": 55, "duration": 7, "velocity": 100}, {"time": 364, "pitch": 60, "duration": 7, "velocity": 105}, {"time": 364, "pitch": 64, "duration": 7, "velocity": 102}, {"time": 370, "pitch": 43, "duration": 8, "velocity": 84}, {"time": 376, "pitch": 55, "duration": 3, "velocity": 102}, {"time": 376, "pitch": 60, "duration": 2, "velocity": 102}, {"time": 376, "pitch": 64, "duration": 4, "velocity": 105}, {"time": 382, "pitch": 48, "duration": 8, "velocity": 108}, {"time": 388, "pitch": 55, "duration": 4, "velocity": 97}, {"time": 388, "pitch": 60, "duration": 3, "velocity": 108}, {"time": 388, "pitch": 64, "duration": 5, "velocity": 102}, {"time": 394, "pitch": 41, "duration": 9, "velocity": 100}, {"time": 400, "pitch": 53, "duration": 4, "velocity": 97}, {"time": 400, "pitch": 57, "duration": 4, "velocity": 102}, {"time": 400, "pitch": 60, "duration": 4, "velocity": 97}, {"time": 406, "pitch": 43, "duration": 9, "velocity": 102}, {"time": 412, "pitch": 55, "duration": 8, "velocity": 94}, {"time": 412, "pitch": 59, "duration": 6, "velocity": 102}, {"time": 412, "pitch": 62, "duration": 5, "velocity": 100}, {"time": 418, "pitch": 50, "duration": 8, "velocity": 94}, {"time": 424, "pitch": 55, "duration": 3, "velocity": 89}, {"time": 424, "pitch": 59, "duration": 3, "velocity": 102}, {"time": 424, "pitch": 62, "duration": 3, "velocity": 100}, {"time": 424, "pitch": 67, "duration": 3, "velocity": 84}, {"time": 430, "pitch": 48, "duration": 11, "velocity": 108}, {"time": 436, "pitch": 55, "duration": 9, "velocity": 89}, {"time": 436, "pitch": 60, "duration": 8, "velocity": 97}, {"time": 436, "pitch": 64, "duration": 8, "velocity": 94}, {"time": 442, "pitch": 43, "duration": 9, "velocity": 92}, {"time": 448, "pitch": 55, "duration": 3, "velocity": 97}, {"time": 448, "pitch": 60, "duration": 3, "velocity": 105}, {"time": 448, "pitch": 64, "duration": 4, "velocity": 100}, {"time": 454, "pitch": 50, "duration": 11, "velocity": 57}, {"time": 460, "pitch": 57, "duration": 9, "velocity": 100}, {"time": 460, "pitch": 62, "duration": 9, "velocity": 97}, {"time": 466, "pitch": 45, "duration": 9, "velocity": 100}, {"time": 472, "pitch": 57, "duration": 4, "velocity": 114}, {"time": 472, "pitch": 62, "duration": 3, "velocity": 114}, {"time": 478, "pitch": 43, "duration": 9, "velocity": 102}, {"time": 484, "pitch": 55, "duration": 9, "velocity": 94}, {"time": 484, "pitch": 59, "duration": 8, "velocity": 102}, {"time": 484, "pitch": 62, "duration": 8, "velocity": 97}, {"time": 490, "pitch": 50, "duration": 9, "velocity": 82}, {"time": 496, "pitch": 55, "duration": 3, "velocity": 87}, {"time": 496, "pitch": 59, "duration": 3, "velocity": 89}, {"time": 496, "pitch": 62, "duration": 3, "velocity": 84}, {"time": 502, "pitch": 43, "duration": 22, "velocity": 102}, {"time": 502, "pitch": 55, "duration": 22, "velocity": 78}, {"time": 502, "pitch": 59, "duration": 22, "velocity": 92}, {"time": 502, "pitch": 62, "duration": 22, "velocity": 78}, {"time": 502, "pitch": 67, "duration": 23, "velocity": 94}, {"time": 526, "pitch": 48, "duration": 8, "velocity": 111}, {"time": 532, "pitch": 55, "duration": 4, "velocity": 102}, {"time": 532, "pitch": 60, "duration": 3, "velocity": 108}, {"time": 532, "pitch": 64, "duration": 4, "velocity": 105}, {"time": 538, "pitch": 41, "duration": 8, "velocity": 100}, {"time": 544, "pitch": 53, "duration": 4, "velocity": 94}, {"time": 544, "pitch": 57, "duration": 4, "velocity": 100}, {"time": 544, "pitch": 60, "duration": 4, "velocity": 100}, {"time": 550, "pitch": 48, "duration": 11, "velocity": 102}, {"time": 556, "pitch": 55, "duration": 7, "velocity": 100}, {"time": 556, "pitch": 60, "duration": 7, "velocity": 105}, {"time": 556, "pitch": 64, "duration": 7, "velocity": 102}, {"time": 562, "pitch": 43, "duration": 8, "velocity": 84}, {"time": 568, "pitch": 55, "duration": 3, "velocity": 102}, {"time": 568, "pitch": 60, "duration": 2, "velocity": 102}, {"time": 568, "pitch": 64, "duration": 4, "velocity": 105}, {"time": 574, "pitch": 48, "duration": 8, "velocity": 108}, {"time": 580, "pitch": 55, "duration": 4, "velocity": 97}, {"time": 580, "pitch": 60, "duration": 3, "velocity": 108}, {"time": 580, "pitch": 64, "duration": 5, "velocity": 102}, {"time": 586, "pitch": 41, "duration": 9, "velocity": 100}, {"time": 592, "pitch": 53, "duration": 4, "velocity": 97}, {"time": 592, "pitch": 57, "duration": 4, "velocity": 102}, {"time": 592, "pitch": 60, "duration": 4, "velocity": 97}, {"time": 598, "pitch": 43, "duration": 9, "velocity": 102}, {"time": 604, "pitch": 55, "duration": 8, "velocity": 94}, {"time": 604, "pitch": 59, "duration": 6, "velocity": 102}, {"time": 604, "pitch": 62, "duration": 5, "velocity": 100}, {"time": 610, "pitch": 50, "duration": 8, "velocity": 94}, {"time": 616, "pitch": 55, "duration": 3, "velocity": 89}, {"time": 616, "pitch": 59, "duration": 3, "velocity": 102}, {"time": 616, "pitch": 62, "duration": 3, "velocity": 100}, {"time": 616, "pitch": 67, "duration": 3, "velocity": 84}, {"time": 622, "pitch": 48, "duration": 11, "velocity": 108}, {"time": 628, "pitch": 55, "duration": 9, "velocity": 89}, {"time": 628, "pitch": 60, "duration": 8, "velocity": 97}, {"time": 628, "pitch": 64, "duration": 8, "velocity": 94}, {"time": 634, "pitch": 43, "duration": 9, "velocity": 92}, {"time": 640, "pitch": 55, "duration": 3, "velocity": 97}, {"time": 640, "pitch": 60, "duration": 3, "velocity": 105}, {"time": 640, "pitch": 64, "duration": 4, "velocity": 100}, {"time": 646, "pitch": 43, "duration": 21, "velocity": 105}, {"time": 652, "pitch": 55, "duration": 10, "velocity": 89}, {"time": 652, "pitch": 59, "duration": 10, "velocity": 105}, {"time": 652, "pitch": 62, "duration": 10, "velocity": 105}, {"time": 658, "pitch": 50, "duration": 9, "velocity": 87}, {"time": 664, "pitch": 55, "duration": 4, "velocity": 94}, {"time": 664, "pitch": 59, "duration": 3, "velocity": 94}, {"time": 664, "pitch": 62, "duration": 4, "velocity": 92}, {"time": 670, "pitch": 48, "duration": 12, "velocity": 102}, {"time": 676, "pitch": 55, "duration": 8, "velocity": 84}, {"time": 676, "pitch": 60, "duration": 8, "velocity": 100}, {"time": 676, "pitch": 64, "duration": 8, "velocity": 100}, {"time": 682, "pitch": 43, "duration": 10, "velocity": 92}, {"time": 688, "pitch": 55, "duration": 5, "velocity": 87}, {"time": 688, "pitch": 60, "duration": 4, "velocity": 100}, {"time": 688, "pitch": 64, "duration": 5, "velocity": 97}, {"time": 694, "pitch": 48, "duration": 12, "velocity": 97}, {"time": 700, "pitch": 55, "duration": 10, "velocity": 100}, {"time": 700, "pitch": 60, "duration": 10, "velocity": 94}, {"time": 700, "pitch": 64, "duration": 10, "velocity": 97}, {"time": 706, "pitch": 43, "duration": 9, "velocity": 108}, {"time": 712, "pitch": 55, "duration": 4, "velocity": 102}, {"time": 712, "pitch": 60, "duration": 4, "velocity": 100}, {"time": 712, "pitch": 64, "duration": 4, "velocity": 100}, {"time": 718, "pitch": 45, "duration": 9, "velocity": 94}, {"time": 718, "pitch": 57, "duration": 4, "velocity": 78}, {"time": 718, "pitch": 60, "duration": 4, "velocity": 84}, {"time": 724, "pitch": 57, "duration": 3, "velocity": 89}, {"time": 724, "pitch": 60, "duration": 3, "velocity": 100}, {"time": 724, "pitch": 64, "duration": 3, "velocity": 100}, {"time": 730, "pitch": 52, "duration": 10, "velocity": 80}, {"time": 736, "pitch": 57, "duration": 3, "velocity": 94}, {"time": 736, "pitch": 60, "duration": 3, "velocity": 102}, {"time": 736, "pitch": 64, "duration": 3, "velocity": 100}, {"time": 742, "pitch": 45, "duration": 9, "velocity": 92}, {"time": 742, "pitch": 57, "duration": 5, "velocity": 80}, {"time": 742, "pitch": 60, "duration": 5, "velocity": 84}, {"time": 748, "pitch": 57, "duration": 4, "velocity": 108}, {"time": 748, "pitch": 60, "duration": 4, "velocity": 111}, {"time": 748, "pitch": 64, "duration": 4, "velocity": 102}, {"time": 754, "pitch": 52, "duration": 10, "velocity": 100}, {"time": 760, "pitch": 57, "duration": 5, "velocity": 102}, {"time": 760, "pitch": 60, "duration": 5, "velocity": 105}, {"time": 760, "pitch": 64, "duration": 5, "velocity": 100}, {"time": 766, "pitch": 48, "duration": 12, "velocity": 97}, {"time": 772, "pitch": 55, "duration": 3, "velocity": 97}, {"time": 772, "pitch": 60, "duration": 3, "velocity": 100}, {"time": 772, "pitch": 64, "duration": 3, "velocity": 102}, {"time": 778, "pitch": 43, "duration": 9, "velocity": 105}, {"time": 784, "pitch": 55, "duration": 3, "velocity": 102}, {"time": 784, "pitch": 60, "duration": 3, "velocity": 102}, {"time": 784, "pitch": 64, "duration": 3, "velocity": 102}, {"time": 790, "pitch": 48, "duration": 13, "velocity": 97}, {"time": 790, "pitch": 55, "duration": 5, "velocity": 92}, {"time": 790, "pitch": 60, "duration": 5, "velocity": 97}, {"time": 796, "pitch": 55, "duration": 9, "velocity": 102}, {"time": 796, "pitch": 60, "duration": 9, "velocity": 108}, {"time": 796, "pitch": 64, "duration": 8, "velocity": 108}, {"time": 802, "pitch": 43, "duration": 9, "velocity": 102}, {"time": 808, "pitch": 55, "duration": 3, "velocity": 102}, {"time": 808, "pitch": 60, "duration": 2, "velocity": 100}, {"time": 808, "pitch": 64, "duration": 2, "velocity": 94}, {"time": 814, "pitch": 41, "duration": 8, "velocity": 94}, {"time": 814, "pitch": 53, "duration": 5, "velocity": 76}, {"time": 814, "pitch": 57, "duration": 4, "velocity": 89}, {"time": 820, "pitch": 53, "duration": 4, "velocity": 89}, {"time": 820, "pitch": 57, "duration": 4, "velocity": 108}, {"time": 820, "pitch": 60, "duration": 4, "velocity": 108}, {"time": 826, "pitch": 48, "duration": 11, "velocity": 78}, {"time": 832, "pitch": 53, "duration": 6, "velocity": 94}, {"time": 832, "pitch": 57, "duration": 6, "velocity": 111}, {"time": 832, "pitch": 60, "duration": 6, "velocity": 105}, {"time": 838, "pitch": 41, "duration": 10, "velocity": 100}, {"time": 838, "pitch": 53, "duration": 3, "velocity": 102}, {"time": 838, "pitch": 57, "duration": 3, "velocity": 114}, {"time": 838, "pitch": 60, "duration": 1, "velocity": 87}, {"time": 844, "pitch": 53, "duration": 4, "velocity": 80}, {"time": 844, "pitch": 57, "duration": 5, "velocity": 97}, {"time": 844, "pitch": 60, "duration": 4, "velocity": 97}, {"time": 850, "pitch": 48, "duration": 9, "velocity": 87}, {"time": 856, "pitch": 53, "duration": 3, "velocity": 94}, {"time": 856, "pitch": 57, "duration": 3, "velocity": 102}, {"time": 856, "pitch": 60, "duration": 4, "velocity": 102}, {"time": 862, "pitch": 43, "duration": 11, "velocity": 102}, {"time": 862, "pitch": 55, "duration": 4, "velocity": 80}, {"time": 862, "pitch": 59, "duration": 4, "velocity": 94}, {"time": 868, "pitch": 55, "duration": 9, "velocity": 100}, {"time": 868, "pitch": 59, "duration": 9, "velocity": 105}, {"time": 868, "pitch": 62, "duration": 9, "velocity": 105}, {"time": 874, "pitch": 50, "duration": 9, "velocity": 87}, {"time": 880, "pitch": 55, "duration": 3, "velocity": 82}, {"time": 880, "pitch": 59, "duration": 3, "velocity": 97}, {"time": 880, "pitch": 62, "duration": 3, "velocity": 92}, {"time": 886, "pitch": 43, "duration": 12, "velocity": 100}, {"time": 886, "pitch": 55, "duration": 5, "velocity": 80}, {"time": 886, "pitch": 59, "duration": 5, "velocity": 94}, {"time": 892, "pitch": 55, "duration": 9, "velocity": 89}, {"time": 892, "pitch": 59, "duration": 8, "velocity": 97}, {"time": 892, "pitch": 62, "duration": 8, "velocity": 89}, {"time": 898, "pitch": 50, "duration": 9, "velocity": 94}, {"time": 904, "pitch": 55, "duration": 3, "velocity": 69}, {"time": 904, "pitch": 59, "duration": 2, "velocity": 66}, {"time": 904, "pitch": 62, "duration": 3, "velocity": 78}, {"time": 910, "pitch": 45, "duration": 9, "velocity": 94}, {"time": 910, "pitch": 57, "duration": 4, "velocity": 78}, {"time": 910, "pitch": 60, "duration": 4, "velocity": 84}, {"time": 916, "pitch": 57, "duration": 3, "velocity": 89}, {"time": 916, "pitch": 60, "duration": 3, "velocity": 100}, {"time": 916, "pitch": 64, "duration": 3, "velocity": 100}, {"time": 922, "pitch": 52, "duration": 10, "velocity": 80}, {"time": 928, "pitch": 57, "duration": 3, "velocity": 94}, {"time": 928, "pitch": 60, "duration": 3, "velocity": 102}, {"time": 928, "pitch": 64, "duration": 3, "velocity": 100}, {"time": 934, "pitch": 45, "duration": 9, "velocity": 92}, {"time": 934, "pitch": 57, "duration": 5, "velocity": 80}, {"time": 934, "pitch": 60, "duration": 5, "velocity": 84}, {"time": 940, "pitch": 57, "duration": 4, "velocity": 108}, {"time": 940, "pitch": 60, "duration": 4, "velocity": 111}, {"time": 940, "pitch": 64, "duration": 4, "velocity": 102}, {"time": 946, "pitch": 52, "duration": 10, "velocity": 100}, {"time": 952, "pitch": 57, "duration": 5, "velocity": 102}, {"time": 952, "pitch": 60, "duration": 5, "velocity": 105}, {"time": 952, "pitch": 64, "duration": 5, "velocity": 100}, {"time": 958, "pitch": 48, "duration": 12, "velocity": 97}, {"time": 964, "pitch": 55, "duration": 3, "velocity": 97}, {"time": 964, "pitch": 60, "duration": 3, "velocity": 100}, {"time": 964, "pitch": 64, "duration": 3, "velocity": 102}, {"time": 970, "pitch": 43, "duration": 9, "velocity": 105}, {"time": 976, "pitch": 55, "duration": 3, "velocity": 102}, {"time": 976, "pitch": 60, "duration": 3, "velocity": 102}, {"time": 976, "pitch": 64, "duration": 3, "velocity": 102}, {"time": 982, "pitch": 48, "duration": 13, "velocity": 97}, {"time": 982, "pitch": 55, "duration": 5, "velocity": 92}, {"time": 982, "pitch": 60, "duration": 5, "velocity": 97}, {"time": 988, "pitch": 55, "duration": 9, "velocity": 102}, {"time": 988, "pitch": 60, "duration": 9, "velocity": 108}, {"time": 988, "pitch": 64, "duration": 8, "velocity": 108}, {"time": 994, "pitch": 43, "duration": 9, "velocity": 102}, {"time": 1000, "pitch": 55, "duration": 3, "velocity": 102}, {"time": 1000, "pitch": 60, "duration": 2, "velocity": 100}, {"time": 1000, "pitch": 64, "duration": 2, "velocity": 94}, {"time": 1006, "pitch": 50, "duration": 12, "velocity": 100}, {"time": 1006, "pitch": 57, "duration": 5, "velocity": 97}, {"time": 1006, "pitch": 62, "duration": 5, "velocity": 94}, {"time": 1012, "pitch": 57, "duration": 10, "velocity": 105}, {"time": 1012, "pitch": 62, "duration": 9, "velocity": 111}, {"time": 1012, "pitch": 65, "duration": 9, "velocity": 108}, {"time": 1018, "pitch": 45, "duration": 10, "velocity": 105}, {"time": 1024, "pitch": 57, "duration": 3, "velocity": 97}, {"time": 1024, "pitch": 62, "duration": 2, "velocity": 97}, {"time": 1024, "pitch": 65, "duration": 2, "velocity": 108}, {"time": 1030, "pitch": 50, "duration": 11, "velocity": 92}, {"time": 1030, "pitch": 57, "duration": 5, "velocity": 66}, {"time": 1030, "pitch": 62, "duration": 5, "velocity": 94}, {"time": 1030, "pitch": 66, "duration": 5, "velocity": 99}, {"time": 1036, "pitch": 57, "duration": 10, "velocity": 102}, {"time": 1036, "pitch": 62, "duration": 9, "velocity": 105}, {"time": 1036, "pitch": 66, "duration": 10, "velocity": 99}, {"time": 1042, "pitch": 50, "duration": 8, "velocity": 89}, {"time": 1048, "pitch": 57, "duration": 4, "velocity": 114}, {"time": 1048, "pitch": 62, "duration": 3, "velocity": 111}, {"time": 1048, "pitch": 66, "duration": 4, "velocity": 112}, {"time": 1054, "pitch": 43, "duration": 11, "velocity": 102}, {"time": 1054, "pitch": 55, "duration": 4, "velocity": 80}, {"time": 1054, "pitch": 59, "duration": 4, "velocity": 94}, {"time": 1060, "pitch": 55, "duration": 9, "velocity": 100}, {"time": 1060, "pitch": 59, "duration": 9, "velocity": 105}, {"time": 1060, "pitch": 62, "duration": 9, "velocity": 105}, {"time": 1066, "pitch": 50, "duration": 9, "velocity": 87}, {"time": 1072, "pitch": 55, "duration": 3, "velocity": 82}, {"time": 1072, "pitch": 59, "duration": 3, "velocity": 97}, {"time": 1072, "pitch": 62, "duration": 3, "velocity": 92}, {"time": 1078, "pitch": 43, "duration": 20, "velocity": 105}, {"time": 1078, "pitch": 55, "duration": 23, "velocity": 84}, {"time": 1078, "pitch": 59, "duration": 23, "velocity": 92}, {"time": 1078, "pitch": 62, "duration": 23, "velocity": 97}, {"time": 1102, "pitch": 48, "duration": 8, "velocity": 111}, {"time": 1108, "pitch": 55, "duration": 4, "velocity": 102}, {"time": 1108, "pitch": 60, "duration": 3, "velocity": 108}, {"time": 1108, "pitch": 64, "duration": 4, "velocity": 105}, {"time": 1114, "pitch": 41, "duration": 8, "velocity": 100}, {"time": 1120, "pitch": 53, "duration": 4, "velocity": 94}, {"time": 1120, "pitch": 57, "duration": 4, "velocity": 100}, {"time": 1120, "pitch": 60, "duration": 4, "velocity": 100}, {"time": 1126, "pitch": 48, "duration": 11, "velocity": 102}, {"time": 1132, "pitch": 55, "duration": 7, "velocity": 100}, {"time": 1132, "pitch": 60, "duration": 7, "velocity": 105}, {"time": 1132, "pitch": 64, "duration": 7, "velocity": 102}, {"time": 1138, "pitch": 43, "duration": 8, "velocity": 84}, {"time": 1144, "pitch": 55, "duration": 3, "velocity": 102}, {"time": 1144, "pitch": 60, "duration": 2, "velocity": 102}, {"time": 1144, "pitch": 64, "duration": 4, "velocity": 105}, {"time": 1150, "pitch": 48, "duration": 8, "velocity": 108}, {"time": 1156, "pitch": 55, "duration": 4, "velocity": 97}, {"time": 1156, "pitch": 60, "duration": 3, "velocity": 108}, {"time": 1156, "pitch": 64, "duration": 5, "velocity": 102}, {"time": 1162, "pitch": 41, "duration": 9, "velocity": 100}, {"time": 1168, "pitch": 53, "duration": 4, "velocity": 97}, {"time": 1168, "pitch": 57, "duration": 4, "velocity": 102}, {"time": 1168, "pitch": 60, "duration": 4, "velocity": 97}, {"time": 1174, "pitch": 43, "duration": 9, "velocity": 102}, {"time": 1180, "pitch": 55, "duration": 8, "velocity": 94}, {"time": 1180, "pitch": 59, "duration": 6, "velocity": 102}, {"time": 1180, "pitch": 62, "duration": 5, "velocity": 100}, {"time": 1186, "pitch": 50, "duration": 8, "velocity": 94}, {"time": 1192, "pitch": 55, "duration": 3, "velocity": 89}, {"time": 1192, "pitch": 59, "duration": 3, "velocity": 102}, {"time": 1192, "pitch": 62, "duration": 3, "velocity": 100}, {"time": 1192, "pitch": 67, "duration": 3, "velocity": 84}, {"time": 1198, "pitch": 48, "duration": 11, "velocity": 108}, {"time": 1204, "pitch": 55, "duration": 9, "velocity": 89}, {"time": 1204, "pitch": 60, "duration": 8, "velocity": 97}, {"time": 1204, "pitch": 64, "duration": 8, "velocity": 94}, {"time": 1210, "pitch": 43, "duration": 9, "velocity": 92}, {"time": 1216, "pitch": 55, "duration": 3, "velocity": 97}, {"time": 1216, "pitch": 60, "duration": 3, "velocity": 105}, {"time": 1216, "pitch": 64, "duration": 4, "velocity": 100}, {"time": 1222, "pitch": 43, "duration": 21, "velocity": 105}, {"time": 1228, "pitch": 55, "duration": 10, "velocity": 89}, {"time": 1228, "pitch": 59, "duration": 10, "velocity": 105}, {"time": 1228, "pitch": 62, "duration": 10, "velocity": 105}, {"time": 1234, "pitch": 50, "duration": 9, "velocity": 87}, {"time": 1240, "pitch": 55, "duration": 4, "velocity": 94}, {"time": 1240, "pitch": 59, "duration": 3, "velocity": 94}, {"time": 1240, "pitch": 62, "duration": 4, "velocity": 92}, {"time": 1246, "pitch": 48, "duration": 12, "velocity": 102}, {"time": 1252, "pitch": 55, "duration": 8, "velocity": 84}, {"time": 1252, "pitch": 60, "duration": 8, "velocity": 100}, {"time": 1252, "pitch": 64, "duration": 8, "velocity": 100}, {"time": 1258, "pitch": 43, "duration": 10, "velocity": 92}, {"time": 1264, "pitch": 55, "duration": 5, "velocity": 87}, {"time": 1264, "pitch": 60, "duration": 4, "velocity": 100}, {"time": 1264, "pitch": 64, "duration": 5, "velocity": 97}, {"time": 1270, "pitch": 48, "duration": 12, "velocity": 97}, {"time": 1276, "pitch": 55, "duration": 10, "velocity": 100}, {"time": 1276, "pitch": 60, "duration": 10, "velocity": 94}, {"time": 1276, "pitch": 64, "duration": 10, "velocity": 97}, {"time": 1282, "pitch": 43, "duration": 9, "velocity": 108}, {"time": 1288, "pitch": 55, "duration": 4, "velocity": 102}, {"time": 1288, "pitch": 60, "duration": 4, "velocity": 100}, {"time": 1288, "pitch": 64, "duration": 4, "velocity": 100}, {"time": 1294, "pitch": 41, "duration": 9, "velocity": 105}, {"time": 1300, "pitch": 57, "duration": 3, "velocity": 97}, {"time": 1300, "pitch": 60, "duration": 3, "velocity": 102}, {"time": 1300, "pitch": 65, "duration": 3, "velocity": 92}, {"time": 1306, "pitch": 48, "duration": 11, "velocity": 97}, {"time": 1312, "pitch": 57, "duration": 7, "velocity": 100}, {"time": 1312, "pitch": 60, "duration": 6, "velocity": 102}, {"time": 1312, "pitch": 65, "duration": 6, "velocity": 94}, {"time": 1318, "pitch": 41, "duration": 9, "velocity": 87}, {"time": 1324, "pitch": 57, "duration": 3, "velocity": 100}, {"time": 1324, "pitch": 60, "duration": 2, "velocity": 102}, {"time": 1324, "pitch": 65, "duration": 3, "velocity": 100}, {"time": 1330, "pitch": 48, "duration": 9, "velocity": 92}, {"time": 1336, "pitch": 57, "duration": 5, "velocity": 97}, {"time": 1336, "pitch": 60, "duration": 4, "velocity": 97}, {"time": 1336, "pitch": 65, "duration": 6, "velocity": 100}, {"time": 1342, "pitch": 48, "duration": 11, "velocity": 105}, {"time": 1348, "pitch": 55, "duration": 5, "velocity": 97}, {"time": 1348, "pitch": 60, "duration": 5, "velocity": 92}, {"time": 1348, "pitch": 64, "duration": 5, "velocity": 97}, {"time": 1354, "pitch": 43, "duration": 8, "velocity": 97}, {"time": 1360, "pitch": 55, "duration": 3, "velocity": 92}, {"time": 1360, "pitch": 60, "duration": 3, "velocity": 94}, {"time": 1360, "pitch": 64, "duration": 3, "velocity": 92}, {"time": 1366, "pitch": 48, "duration": 12, "velocity": 92}, {"time": 1372, "pitch": 55, "duration": 8, "velocity": 97}, {"time": 1372, "pitch": 60, "duration": 8, "velocity": 97}, {"time": 1372, "pitch": 64, "duration": 8, "velocity": 94}, {"time": 1378, "pitch": 43, "duration": 9, "velocity": 97}, {"time": 1384, "pitch": 55, "duration": 4, "velocity": 100}, {"time": 1384, "pitch": 60, "duration": 4, "velocity": 102}, {"time": 1384, "pitch": 64, "duration": 4, "velocity": 94}, {"time": 1390, "pitch": 43, "duration": 8, "velocity": 97}, {"time": 1396, "pitch": 55, "duration": 7, "velocity": 80}, {"time": 1396, "pitch": 59, "duration": 6, "velocity": 89}, {"time": 1396, "pitch": 62, "duration": 6, "velocity": 94}, {"time": 1402, "pitch": 50, "duration": 8, "velocity": 97}, {"time": 1408, "pitch": 55, "duration": 4, "velocity": 89}, {"time": 1408, "pitch": 59, "duration": 3, "velocity": 94}, {"time": 1408, "pitch": 62, "duration": 3, "velocity": 92}, {"time": 1414, "pitch": 43, "duration": 14, "velocity": 97}, {"time": 1420, "pitch": 55, "duration": 8, "velocity": 92}, {"time": 1420, "pitch": 59, "duration": 8, "velocity": 100}, {"time": 1420, "pitch": 62, "duration": 8, "velocity": 97}, {"time": 1426, "pitch": 50, "duration": 8, "velocity": 80}, {"time": 1432, "pitch": 55, "duration": 5, "velocity": 100}, {"time": 1432, "pitch": 59, "duration": 4, "velocity": 102}, {"time": 1432, "pitch": 62, "duration": 5, "velocity": 97}, {"time": 1438, "pitch": 48, "duration": 11, "velocity": 92}, {"time": 1444, "pitch": 55, "duration": 9, "velocity": 102}, {"time": 1444, "pitch": 60, "duration": 9, "velocity": 102}, {"time": 1444, "pitch": 64, "duration": 9, "velocity": 100}, {"time": 1450, "pitch": 43, "duration": 10, "velocity": 100}, {"time": 1456, "pitch": 55, "duration": 3, "velocity": 92}, {"time": 1456, "pitch": 60, "duration": 3, "velocity": 94}, {"time": 1456, "pitch": 64, "duration": 3, "velocity": 92}, {"time": 1462, "pitch": 48, "duration": 22, "velocity": 102}, {"time": 1462, "pitch": 55, "duration": 24, "velocity": 97}, {"time": 1462, "pitch": 60, "duration": 23, "velocity": 97}, {"time": 1462, "pitch": 64, "duration": 23, "velocity": 97}, {"time": 1486, "pitch": 48, "duration": 8, "velocity": 111}, {"time": 1492, "pitch": 55, "duration": 4, "velocity": 102}, {"time": 1492, "pitch": 60, "duration": 3, "velocity": 108}, {"time": 1492, "pitch": 64, "duration": 4, "velocity": 105}, {"time": 1498, "pitch": 41, "duration": 8, "velocity": 100}, {"time": 1504, "pitch": 53, "duration": 4, "velocity": 94}, {"time": 1504, "pitch": 57, "duration": 4, "velocity": 100}, {"time": 1504, "pitch": 60, "duration": 4, "velocity": 100}, {"time": 1510, "pitch": 48, "duration": 11, "velocity": 102}, {"time": 1516, "pitch": 55, "duration": 7, "velocity": 100}, {"time": 1516, "pitch": 60, "duration": 7, "velocity": 105}, {"time": 1516, "pitch": 64, "duration": 7, "velocity": 102}, {"time": 1522, "pitch": 43, "duration": 8, "velocity": 84}, {"time": 1528, "pitch": 55, "duration": 3, "velocity": 102}, {"time": 1528, "pitch": 60, "duration": 2, "velocity": 102}, {"time": 1528, "pitch": 64, "duration": 4, "velocity": 105}, {"time": 1534, "pitch": 48, "duration": 8, "velocity": 108}, {"time": 1540, "pitch": 55, "duration": 4, "velocity": 97}, {"time": 1540, "pitch": 60, "duration": 3, "velocity": 108}, {"time": 1540, "pitch": 64, "duration": 5, "velocity": 102}, {"time": 1546, "pitch": 41, "duration": 9, "velocity": 100}, {"time": 1552, "pitch": 53, "duration": 4, "velocity": 97}, {"time": 1552, "pitch": 57, "duration": 4, "velocity": 102}, {"time": 1552, "pitch": 60, "duration": 4, "velocity": 97}, {"time": 1558, "pitch": 43, "duration": 9, "velocity": 102}, {"time": 1564, "pitch": 55, "duration": 8, "velocity": 94}, {"time": 1564, "pitch": 59, "duration": 6, "velocity": 102}, {"time": 1564, "pitch": 62, "duration": 5, "velocity": 100}, {"time": 1570, "pitch": 50, "duration": 8, "velocity": 94}, {"time": 1576, "pitch": 55, "duration": 3, "velocity": 89}, {"time": 1576, "pitch": 59, "duration": 3, "velocity": 102}, {"time": 1576, "pitch": 62, "duration": 3, "velocity": 100}, {"time": 1576, "pitch": 67, "duration": 3, "velocity": 84}, {"time": 1582, "pitch": 48, "duration": 11, "velocity": 108}, {"time": 1588, "pitch": 55, "duration": 9, "velocity": 89}, {"time": 1588, "pitch": 60, "duration": 8, "velocity": 97}, {"time": 1588, "pitch": 64, "duration": 8, "velocity": 94}, {"time": 1594, "pitch": 43, "duration": 9, "velocity": 92}, {"time": 1600, "pitch": 55, "duration": 3, "velocity": 97}, {"time": 1600, "pitch": 60, "duration": 3, "velocity": 105}, {"time": 1600, "pitch": 64, "duration": 4, "velocity": 100}, {"time": 1606, "pitch": 50, "duration": 11, "velocity": 57}, {"time": 1612, "pitch": 57, "duration": 9, "velocity": 100}, {"time": 1612, "pitch": 62, "duration": 9, "velocity": 97}, {"time": 1618, "pitch": 45, "duration": 9, "velocity": 100}, {"time": 1624, "pitch": 57, "duration": 4, "velocity": 114}, {"time": 1624, "pitch": 62, "duration": 3, "velocity": 114}, {"time": 1630, "pitch": 43, "duration": 9, "velocity": 102}, {"time": 1636, "pitch": 55, "duration": 9, "velocity": 94}, {"time": 1636, "pitch": 59, "duration": 8, "velocity": 102}, {"time": 1636, "pitch": 62, "duration": 8, "velocity": 97}, {"time": 1642, "pitch": 50, "duration": 9, "velocity": 82}, {"time": 1648, "pitch": 55, "duration": 3, "velocity": 87}, {"time": 1648, "pitch": 59, "duration": 3, "velocity": 89}, {"time": 1648, "pitch": 62, "duration": 3, "velocity": 84}, {"time": 1654, "pitch": 43, "duration": 22, "velocity": 102}, {"time": 1654, "pitch": 55, "duration": 22, "velocity": 78}, {"time": 1654, "pitch": 59, "duration": 22, "velocity": 92}, {"time": 1654, "pitch": 62, "duration": 22, "velocity": 78}, {"time": 1654, "pitch": 67, "duration": 23, "velocity": 94}, {"time": 1678, "pitch": 48, "duration": 8, "velocity": 111}, {"time": 1684, "pitch": 55, "duration": 4, "velocity": 102}, {"time": 1684, "pitch": 60, "duration": 3, "velocity": 108}, {"time": 1684, "pitch": 64, "duration": 4, "velocity": 105}, {"time": 1690, "pitch": 41, "duration": 8, "velocity": 100}, {"time": 1696, "pitch": 53, "duration": 4, "velocity": 94}, {"time": 1696, "pitch": 57, "duration": 4, "velocity": 100}, {"time": 1696, "pitch": 60, "duration": 4, "velocity": 100}, {"time": 1702, "pitch": 48, "duration": 11, "velocity": 102}, {"time": 1708, "pitch": 55, "duration": 7, "velocity": 100}, {"time": 1708, "pitch": 60, "duration": 7, "velocity": 105}, {"time": 1708, "pitch": 64, "duration": 7, "velocity": 102}, {"time": 1714, "pitch": 43, "duration": 8, "velocity": 84}, {"time": 1720, "pitch": 55, "duration": 3, "velocity": 102}, {"time": 1720, "pitch": 60, "duration": 2, "velocity": 102}, {"time": 1720, "pitch": 64, "duration": 4, "velocity": 105}, {"time": 1726, "pitch": 48, "duration": 8, "velocity": 108}, {"time": 1732, "pitch": 55, "duration": 4, "velocity": 97}, {"time": 1732, "pitch": 60, "duration": 3, "velocity": 108}, {"time": 1732, "pitch": 64, "duration": 5, "velocity": 102}, {"time": 1738, "pitch": 41, "duration": 9, "velocity": 100}, {"time": 1744, "pitch": 53, "duration": 4, "velocity": 97}, {"time": 1744, "pitch": 57, "duration": 4, "velocity": 102}, {"time": 1744, "pitch": 60, "duration": 4, "velocity": 97}, {"time": 1750, "pitch": 43, "duration": 9, "velocity": 102}, {"time": 1756, "pitch": 55, "duration": 8, "velocity": 94}, {"time": 1756, "pitch": 59, "duration": 6, "velocity": 102}, {"time": 1756, "pitch": 62, "duration": 5, "velocity": 100}, {"time": 1762, "pitch": 50, "duration": 8, "velocity": 94}, {"time": 1768, "pitch": 55, "duration": 3, "velocity": 89}, {"time": 1768, "pitch": 59, "duration": 3, "velocity": 102}, {"time": 1768, "pitch": 62, "duration": 3, "velocity": 100}, {"time": 1768, "pitch": 67, "duration": 3, "velocity": 84}, {"time": 1774, "pitch": 48, "duration": 11, "velocity": 108}, {"time": 1780, "pitch": 55, "duration": 9, "velocity": 89}, {"time": 1780, "pitch": 60, "duration": 8, "velocity": 97}, {"time": 1780, "pitch": 64, "duration": 8, "velocity": 94}, {"time": 1786, "pitch": 43, "duration": 9, "velocity": 92}, {"time": 1792, "pitch": 55, "duration": 3, "velocity": 97}, {"time": 1792, "pitch": 60, "duration": 3, "velocity": 105}, {"time": 1792, "pitch": 64, "duration": 4, "velocity": 100}, {"time": 1798, "pitch": 43, "duration": 21, "velocity": 105}, {"time": 1804, "pitch": 55, "duration": 10, "velocity": 89}, {"time": 1804, "pitch": 59, "duration": 10, "velocity": 105}, {"time": 1804, "pitch": 62, "duration": 10, "velocity": 105}, {"time": 1810, "pitch": 50, "duration": 9, "velocity": 87}, {"time": 1816, "pitch": 55, "duration": 4, "velocity": 94}, {"time": 1816, "pitch": 59, "duration": 3, "velocity": 94}, {"time": 1816, "pitch": 62, "duration": 4, "velocity": 92}, {"time": 1822, "pitch": 48, "duration": 12, "velocity": 102}, {"time": 1828, "pitch": 55, "duration": 8, "velocity": 84}, {"time": 1828, "pitch": 60, "duration": 8, "velocity": 100}, {"time": 1828, "pitch": 64, "duration": 8, "velocity": 100}, {"time": 1834, "pitch": 43, "duration": 10, "velocity": 92}, {"time": 1840, "pitch": 55, "duration": 5, "velocity": 87}, {"time": 1840, "pitch": 60, "duration": 4, "velocity": 100}, {"time": 1840, "pitch": 64, "duration": 5, "velocity": 97}, {"time": 1846, "pitch": 48, "duration": 12, "velocity": 97}, {"time": 1852, "pitch": 55, "duration": 10, "velocity": 100}, {"time": 1852, "pitch": 60, "duration": 10, "velocity": 94}, {"time": 1852, "pitch": 64, "duration": 10, "velocity": 97}, {"time": 1858, "pitch": 43, "duration": 9, "velocity": 108}, {"time": 1864, "pitch": 55, "duration": 4, "velocity": 102}, {"time": 1864, "pitch": 60, "duration": 4, "velocity": 100}, {"time": 1864, "pitch": 64, "duration": 4, "velocity": 100}, {"time": 1870, "pitch": 45, "duration": 9, "velocity": 94}, {"time": 1870, "pitch": 57, "duration": 4, "velocity": 78}, {"time": 1870, "pitch": 60, "duration": 4, "velocity": 84}, {"time": 1876, "pitch": 57, "duration": 3, "velocity": 89}, {"time": 1876, "pitch": 60, "duration": 3, "velocity": 100}, {"time": 1876, "pitch": 64, "duration": 3, "velocity": 100}, {"time": 1882, "pitch": 52, "duration": 10, "velocity": 80}, {"time": 1888, "pitch": 57, "duration": 3, "velocity": 94}, {"time": 1888, "pitch": 60, "duration": 3, "velocity": 102}, {"time": 1888, "pitch": 64, "duration": 3, "velocity": 100}, {"time": 1894, "pitch": 45, "duration": 9, "velocity": 92}, {"time": 1894, "pitch": 57, "duration": 5, "velocity": 80}, {"time": 1894, "pitch": 60, "duration": 5, "velocity": 84}, {"time": 1900, "pitch": 57, "duration": 4, "velocity": 108}, {"time": 1900, "pitch": 60, "duration": 4, "velocity": 111}, {"time": 1900, "pitch": 64, "duration": 4, "velocity": 102}, {"time": 1906, "pitch": 52, "duration": 10, "velocity": 100}, {"time": 1912, "pitch": 57, "duration": 5, "velocity": 102}, {"time": 1912, "pitch": 60, "duration": 5, "velocity": 105}, {"time": 1912, "pitch": 64, "duration": 5, "velocity": 100}, {"time": 1918, "pitch": 48, "duration": 12, "velocity": 97}, {"time": 1924, "pitch": 55, "duration": 3, "velocity": 97}, {"time": 1924, "pitch": 60, "duration": 3, "velocity": 100}, {"time": 1924, "pitch": 64, "duration": 3, "velocity": 102}, {"time": 1930, "pitch": 43, "duration": 9, "velocity": 105}, {"time": 1936, "pitch": 55, "duration": 3, "velocity": 102}, {"time": 1936, "pitch": 60, "duration": 3, "velocity": 102}, {"time": 1936, "pitch": 64, "duration": 3, "velocity": 102}, {"time": 1942, "pitch": 48, "duration": 13, "velocity": 97}, {"time": 1942, "pitch": 55, "duration": 5, "velocity": 92}, {"time": 1942, "pitch": 60, "duration": 5, "velocity": 97}, {"time": 1948, "pitch": 55, "duration": 9, "velocity": 102}, {"time": 1948, "pitch": 60, "duration": 9, "velocity": 108}, {"time": 1948, "pitch": 64, "duration": 8, "velocity": 108}, {"time": 1954, "pitch": 43, "duration": 9, "velocity": 102}, {"time": 1960, "pitch": 55, "duration": 3, "velocity": 102}, {"time": 1960, "pitch": 60, "duration": 2, "velocity": 100}, {"time": 1960, "pitch": 64, "duration": 2, "velocity": 94}, {"time": 1966, "pitch": 41, "duration": 8, "velocity": 94}, {"time": 1966, "pitch": 53, "duration": 5, "velocity": 76}, {"time": 1966, "pitch": 57, "duration": 4, "velocity": 89}, {"time": 1972, "pitch": 53, "duration": 4, "velocity": 89}, {"time": 1972, "pitch": 57, "duration": 4, "velocity": 108}, {"time": 1972, "pitch": 60, "duration": 4, "velocity": 108}, {"time": 1978, "pitch": 48, "duration": 11, "velocity": 78}, {"time": 1984, "pitch": 53, "duration": 6, "velocity": 94}, {"time": 1984, "pitch": 57, "duration": 6, "velocity": 111}, {"time": 1984, "pitch": 60, "duration": 6, "velocity": 105}, {"time": 1990, "pitch": 41, "duration": 10, "velocity": 100}, {"time": 1990, "pitch": 53, "duration": 3, "velocity": 102}, {"time": 1990, "pitch": 57, "duration": 3, "velocity": 114}, {"time": 1990, "pitch": 60, "duration": 1, "velocity": 87}, {"time": 1996, "pitch": 53, "duration": 4, "velocity": 80}, {"time": 1996, "pitch": 57, "duration": 5, "velocity": 97}, {"time": 1996, "pitch": 60, "duration": 4, "velocity": 97}, {"time": 2002, "pitch": 48, "duration": 9, "velocity": 87}, {"time": 2008, "pitch": 53, "duration": 3, "velocity": 94}, {"time": 2008, "pitch": 57, "duration": 3, "velocity": 102}, {"time": 2008, "pitch": 60, "duration": 4, "velocity": 102}, {"time": 2014, "pitch": 43, "duration": 11, "velocity": 102}, {"time": 2014, "pitch": 55, "duration": 4, "velocity": 80}, {"time": 2014, "pitch": 59, "duration": 4, "velocity": 94}, {"time": 2020, "pitch": 55, "duration": 9, "velocity": 100}, {"time": 2020, "pitch": 59, "duration": 9, "velocity": 105}, {"time": 2020, "pitch": 62, "duration": 9, "velocity": 105}, {"time": 2026, "pitch": 50, "duration": 9, "velocity": 87}, {"time": 2032, "pitch": 55, "duration": 3, "velocity": 82}, {"time": 2032, "pitch": 59, "duration": 3, "velocity": 97}, {"time": 2032, "pitch": 62, "duration": 3, "velocity": 92}, {"time": 2038, "pitch": 43, "duration": 12, "velocity": 100}, {"time": 2038, "pitch": 55, "duration": 5, "velocity": 80}, {"time": 2038, "pitch": 59, "duration": 5, "velocity": 94}, {"time": 2044, "pitch": 55, "duration": 9, "velocity": 89}, {"time": 2044, "pitch": 59, "duration": 8, "velocity": 97}, {"time": 2044, "pitch": 62, "duration": 8, "velocity": 89}, {"time": 2050, "pitch": 50, "duration": 9, "velocity": 94}, {"time": 2056, "pitch": 55, "duration": 3, "velocity": 69}, {"time": 2056, "pitch": 59, "duration": 2, "velocity": 66}, {"time": 2056, "pitch": 62, "duration": 3, "velocity": 78}, {"time": 2062, "pitch": 45, "duration": 9, "velocity": 94}, {"time": 2062, "pitch": 57, "duration": 4, "velocity": 78}, {"time": 2062, "pitch": 60, "duration": 4, "velocity": 84}, {"time": 2068, "pitch": 57, "duration": 3, "velocity": 89}, {"time": 2068, "pitch": 60, "duration": 3, "velocity": 100}, {"time": 2068, "pitch": 64, "duration": 3, "velocity": 100}, {"time": 2074, "pitch": 52, "duration": 10, "velocity": 80}, {"time": 2080, "pitch": 57, "duration": 3, "velocity": 94}, {"time": 2080, "pitch": 60, "duration": 3, "velocity": 102}, {"time": 2080, "pitch": 64, "duration": 3, "velocity": 100}, {"time": 2086, "pitch": 45, "duration": 9, "velocity": 92}, {"time": 2086, "pitch": 57, "duration": 5, "velocity": 80}, {"time": 2086, "pitch": 60, "duration": 5, "velocity": 84}, {"time": 2092, "pitch": 57, "duration": 4, "velocity": 108}, {"time": 2092, "pitch": 60, "duration": 4, "velocity": 111}, {"time": 2092, "pitch": 64, "duration": 4, "velocity": 102}, {"time": 2098, "pitch": 52, "duration": 10, "velocity": 100}, {"time": 2104, "pitch": 57, "duration": 5, "velocity": 102}, {"time": 2104, "pitch": 60, "duration": 5, "velocity": 105}, {"time": 2104, "pitch": 64, "duration": 5, "velocity": 100}, {"time": 2110, "pitch": 48, "duration": 12, "velocity": 97}, {"time": 2116, "pitch": 55, "duration": 3, "velocity": 97}, {"time": 2116, "pitch": 60, "duration": 3, "velocity": 100}, {"time": 2116, "pitch": 64, "duration": 3, "velocity": 102}, {"time": 2122, "pitch": 43, "duration": 9, "velocity": 105}, {"time": 2128, "pitch": 55, "duration": 3, "velocity": 102}, {"time": 2128, "pitch": 60, "duration": 3, "velocity": 102}, {"time": 2128, "pitch": 64, "duration": 3, "velocity": 102}, {"time": 2134, "pitch": 48, "duration": 13, "velocity": 97}, {"time": 2134, "pitch": 55, "duration": 5, "velocity": 92}, {"time": 2134, "pitch": 60, "duration": 5, "velocity": 97}, {"time": 2140, "pitch": 55, "duration": 9, "velocity": 102}, {"time": 2140, "pitch": 60, "duration": 9, "velocity": 108}, {"time": 2140, "pitch": 64, "duration": 8, "velocity": 108}, {"time": 2146, "pitch": 43, "duration": 9, "velocity": 102}, {"time": 2152, "pitch": 55, "duration": 3, "velocity": 102}, {"time": 2152, "pitch": 60, "duration": 2, "velocity": 100}, {"time": 2152, "pitch": 64, "duration": 2, "velocity": 94}, {"time": 2158, "pitch": 50, "duration": 12, "velocity": 100}, {"time": 2158, "pitch": 57, "duration": 5, "velocity": 97}, {"time": 2158, "pitch": 62, "duration": 5, "velocity": 94}, {"time": 2164, "pitch": 57, "duration": 10, "velocity": 105}, {"time": 2164, "pitch": 62, "duration": 9, "velocity": 111}, {"time": 2164, "pitch": 65, "duration": 9, "velocity": 108}, {"time": 2170, "pitch": 45, "duration": 10, "velocity": 105}, {"time": 2176, "pitch": 57, "duration": 3, "velocity": 97}, {"time": 2176, "pitch": 62, "duration": 2, "velocity": 97}, {"time": 2176, "pitch": 65, "duration": 2, "velocity": 108}, {"time": 2182, "pitch": 50, "duration": 11, "velocity": 92}, {"time": 2182, "pitch": 57, "duration": 5, "velocity": 66}, {"time": 2182, "pitch": 62, "duration": 5, "velocity": 94}, {"time": 2182, "pitch": 66, "duration": 5, "velocity": 99}, {"time": 2188, "pitch": 57, "duration": 10, "velocity": 102}, {"time": 2188, "pitch": 62, "duration": 9, "velocity": 105}, {"time": 2188, "pitch": 66, "duration": 10, "velocity": 99}, {"time": 2194, "pitch": 50, "duration": 8, "velocity": 89}, {"time": 2200, "pitch": 57, "duration": 4, "velocity": 114}, {"time": 2200, "pitch": 62, "duration": 3, "velocity": 111}, {"time": 2200, "pitch": 66, "duration": 4, "velocity": 112}, {"time": 2206, "pitch": 43, "duration": 11, "velocity": 102}, {"time": 2206, "pitch": 55, "duration": 4, "velocity": 80}, {"time": 2206, "pitch": 59, "duration": 4, "velocity": 94}, {"time": 2212, "pitch": 55, "duration": 9, "velocity": 100}, {"time": 2212, "pitch": 59, "duration": 9, "velocity": 105}, {"time": 2212, "pitch": 62, "duration": 9, "velocity": 105}, {"time": 2218, "pitch": 50, "duration": 9, "velocity": 87}, {"time": 2224, "pitch": 55, "duration": 3, "velocity": 82}, {"time": 2224, "pitch": 59, "duration": 3, "velocity": 97}, {"time": 2224, "pitch": 62, "duration": 3, "velocity": 92}, {"time": 2230, "pitch": 43, "duration": 20, "velocity": 105}, {"time": 2230, "pitch": 55, "duration": 23, "velocity": 84}, {"time": 2230, "pitch": 59, "duration": 23, "velocity": 92}, {"time": 2230, "pitch": 62, "duration": 23, "velocity": 97}, {"time": 2254, "pitch": 48, "duration": 8, "velocity": 111}, {"time": 2260, "pitch": 55, "duration": 4, "velocity": 102}, {"time": 2260, "pitch": 60, "duration": 3, "velocity": 108}, {"time": 2260, "pitch": 64, "duration": 4, "velocity": 105}, {"time": 2266, "pitch": 41, "duration": 8, "velocity": 100}, {"time": 2272, "pitch": 53, "duration": 4, "velocity": 94}, {"time": 2272, "pitch": 57, "duration": 4, "velocity": 100}, {"time": 2272, "pitch": 60, "duration": 4, "velocity": 100}, {"time": 2278, "pitch": 48, "duration": 11, "velocity": 102}, {"time": 2284, "pitch": 55, "duration": 7, "velocity": 100}, {"time": 2284, "pitch": 60, "duration": 7, "velocity": 105}, {"time": 2284, "pitch": 64, "duration": 7, "velocity": 102}, {"time": 2290, "pitch": 43, "duration": 8, "velocity": 84}, {"time": 2296, "pitch": 55, "duration": 3, "velocity": 102}, {"time": 2296, "pitch": 60, "duration": 2, "velocity": 102}, {"time": 2296, "pitch": 64, "duration": 4, "velocity": 105}, {"time": 2302, "pitch": 48, "duration": 8, "velocity": 108}, {"time": 2308, "pitch": 55, "duration": 4, "velocity": 97}, {"time": 2308, "pitch": 60, "duration": 3, "velocity": 108}, {"time": 2308, "pitch": 64, "duration": 5, "velocity": 102}, {"time": 2314, "pitch": 41, "duration": 9, "velocity": 100}, {"time": 2320, "pitch": 53, "duration": 4, "velocity": 97}, {"time": 2320, "pitch": 57, "duration": 4, "velocity": 102}, {"time": 2320, "pitch": 60, "duration": 4, "velocity": 97}, {"time": 2326, "pitch": 43, "duration": 9, "velocity": 102}, {"time": 2332, "pitch": 55, "duration": 8, "velocity": 94}, {"time": 2332, "pitch": 59, "duration": 6, "velocity": 102}, {"time": 2332, "pitch": 62, "duration": 5, "velocity": 100}, {"time": 2338, "pitch": 50, "duration": 8, "velocity": 94}, {"time": 2344, "pitch": 55, "duration": 3, "velocity": 89}, {"time": 2344, "pitch": 59, "duration": 3, "velocity": 102}, {"time": 2344, "pitch": 62, "duration": 3, "velocity": 100}, {"time": 2344, "pitch": 67, "duration": 3, "velocity": 84}, {"time": 2350, "pitch": 48, "duration": 11, "velocity": 108}, {"time": 2356, "pitch": 55, "duration": 9, "velocity": 89}, {"time": 2356, "pitch": 60, "duration": 8, "velocity": 97}, {"time": 2356, "pitch": 64, "duration": 8, "velocity": 94}, {"time": 2362, "pitch": 43, "duration": 9, "velocity": 92}, {"time": 2368, "pitch": 55, "duration": 3, "velocity": 97}, {"time": 2368, "pitch": 60, "duration": 3, "velocity": 105}, {"time": 2368, "pitch": 64, "duration": 4, "velocity": 100}, {"time": 2374, "pitch": 43, "duration": 21, "velocity": 105}, {"time": 2380, "pitch": 55, "duration": 10, "velocity": 89}, {"time": 2380, "pitch": 59, "duration": 10, "velocity": 105}, {"time": 2380, "pitch": 62, "duration": 10, "velocity": 105}, {"time": 2386, "pitch": 50, "duration": 9, "velocity": 87}, {"time": 2392, "pitch": 55, "duration": 4, "velocity": 94}, {"time": 2392, "pitch": 59, "duration": 3, "velocity": 94}, {"time": 2392, "pitch": 62, "duration": 4, "velocity": 92}, {"time": 2398, "pitch": 48, "duration": 12, "velocity": 102}, {"time": 2404, "pitch": 55, "duration": 8, "velocity": 84}, {"time": 2404, "pitch": 60, "duration": 8, "velocity": 100}, {"time": 2404, "pitch": 64, "duration": 8, "velocity": 100}, {"time": 2410, "pitch": 43, "duration": 10, "velocity": 92}, {"time": 2416, "pitch": 55, "duration": 5, "velocity": 87}, {"time": 2416, "pitch": 60, "duration": 4, "velocity": 100}, {"time": 2416, "pitch": 64, "duration": 5, "velocity": 97}, {"time": 2422, "pitch": 48, "duration": 12, "velocity": 97}, {"time": 2428, "pitch": 55, "duration": 10, "velocity": 100}, {"time": 2428, "pitch": 60, "duration": 10, "velocity": 94}, {"time": 2428, "pitch": 64, "duration": 10, "velocity": 97}, {"time": 2434, "pitch": 43, "duration": 9, "velocity": 108}, {"time": 2440, "pitch": 55, "duration": 4, "velocity": 102}, {"time": 2440, "pitch": 60, "duration": 4, "velocity": 100}, {"time": 2440, "pitch": 64, "duration": 4, "velocity": 100}, {"time": 2446, "pitch": 48, "duration": 8, "velocity": 111}, {"time": 2452, "pitch": 55, "duration": 4, "velocity": 102}, {"time": 2452, "pitch": 60, "duration": 3, "velocity": 108}, {"time": 2452, "pitch": 64, "duration": 4, "velocity": 105}, {"time": 2458, "pitch": 41, "duration": 8, "velocity": 100}, {"time": 2464, "pitch": 53, "duration": 4, "velocity": 94}, {"time": 2464, "pitch": 57, "duration": 4, "velocity": 100}, {"time": 2464, "pitch": 60, "duration": 4, "velocity": 100}, {"time": 2470, "pitch": 48, "duration": 11, "velocity": 102}, {"time": 2476, "pitch": 55, "duration": 7, "velocity": 100}, {"time": 2476, "pitch": 60, "duration": 7, "velocity": 105}, {"time": 2476, "pitch": 64, "duration": 7, "velocity": 102}, {"time": 2482, "pitch": 43, "duration": 8, "velocity": 84}, {"time": 2488, "pitch": 55, "duration": 3, "velocity": 102}, {"time": 2488, "pitch": 60, "duration": 2, "velocity": 102}, {"time": 2488, "pitch": 64, "duration": 4, "velocity": 105}, {"time": 2494, "pitch": 48, "duration": 8, "velocity": 108}, {"time": 2500, "pitch": 55, "duration": 4, "velocity": 97}, {"time": 2500, "pitch": 60, "duration": 3, "velocity": 108}, {"time": 2500, "pitch": 64, "duration": 5, "velocity": 102}, {"time": 2506, "pitch": 41, "duration": 9, "velocity": 100}, {"time": 2512, "pitch": 53, "duration": 4, "velocity": 97}, {"time": 2512, "pitch": 57, "duration": 4, "velocity": 102}, {"time": 2512, "pitch": 60, "duration": 4, "velocity": 97}, {"time": 2518, "pitch": 43, "duration": 9, "velocity": 102}, {"time": 2524, "pitch": 55, "duration": 8, "velocity": 94}, {"time": 2524, "pitch": 59, "duration": 6, "velocity": 102}, {"time": 2524, "pitch": 62, "duration": 5, "velocity": 100}, {"time": 2530, "pitch": 50, "duration": 8, "velocity": 94}, {"time": 2536, "pitch": 55, "duration": 3, "velocity": 89}, {"time": 2536, "pitch": 59, "duration": 3, "velocity": 102}, {"time": 2536, "pitch": 62, "duration": 3, "velocity": 100}, {"time": 2536, "pitch": 67, "duration": 3, "velocity": 84}, {"time": 2542, "pitch": 48, "duration": 11, "velocity": 108}, {"time": 2548, "pitch": 55, "duration": 9, "velocity": 89}, {"time": 2548, "pitch": 60, "duration": 8, "velocity": 97}, {"time": 2548, "pitch": 64, "duration": 8, "velocity": 94}, {"time": 2554, "pitch": 43, "duration": 9, "velocity": 92}, {"time": 2560, "pitch": 55, "duration": 3, "velocity": 97}, {"time": 2560, "pitch": 60, "duration": 3, "velocity": 105}, {"time": 2560, "pitch": 64, "duration": 4, "velocity": 100}, {"time": 2566, "pitch": 50, "duration": 11, "velocity": 57}, {"time": 2572, "pitch": 57, "duration": 9, "velocity": 100}, {"time": 2572, "pitch": 62, "duration": 9, "velocity": 97}, {"time": 2578, "pitch": 45, "duration": 9, "velocity": 100}, {"time": 2584, "pitch": 57, "duration": 4, "velocity": 114}, {"time": 2584, "pitch": 62, "duration": 3, "velocity": 114}, {"time": 2590, "pitch": 43, "duration": 9, "velocity": 102}, {"time": 2596, "pitch": 55, "duration": 9, "velocity": 94}, {"time": 2596, "pitch": 59, "duration": 8, "velocity": 102}, {"time": 2596, "pitch": 62, "duration": 8, "velocity": 97}, {"time": 2602, "pitch": 50, "duration": 9, "velocity": 82}, {"time": 2608, "pitch": 55, "duration": 3, "velocity": 87}, {"time": 2608, "pitch": 59, "duration": 3, "velocity": 89}, {"time": 2608, "pitch": 62, "duration": 3, "velocity": 84}, {"time": 2614, "pitch": 43, "duration": 22, "velocity": 102}, {"time": 2614, "pitch": 55, "duration": 22, "velocity": 78}, {"time": 2614, "pitch": 59, "duration": 22, "velocity": 92}, {"time": 2614, "pitch": 62, "duration": 22, "velocity": 78}, {"time": 2614, "pitch": 67, "duration": 23, "velocity": 94}, {"time": 2638, "pitch": 48, "duration": 8, "velocity": 111}, {"time": 2644, "pitch": 55, "duration": 4, "velocity": 102}, {"time": 2644, "pitch": 60, "duration": 3, "velocity": 108}, {"time": 2644, "pitch": 64, "duration": 4, "velocity": 105}, {"time": 2650, "pitch": 41, "duration": 8, "velocity": 100}, {"time": 2656, "pitch": 53, "duration": 4, "velocity": 94}, {"time": 2656, "pitch": 57, "duration": 4, "velocity": 100}, {"time": 2656, "pitch": 60, "duration": 4, "velocity": 100}, {"time": 2662, "pitch": 48, "duration": 11, "velocity": 102}, {"time": 2668, "pitch": 55, "duration": 7, "velocity": 100}, {"time": 2668, "pitch": 60, "duration": 7, "velocity": 105}, {"time": 2668, "pitch": 64, "duration": 7, "velocity": 102}, {"time": 2674, "pitch": 43, "duration": 8, "velocity": 84}, {"time": 2680, "pitch": 55, "duration": 3, "velocity": 102}, {"time": 2680, "pitch": 60, "duration": 2, "velocity": 102}, {"time": 2680, "pitch": 64, "duration": 4, "velocity": 105}, {"time": 2686, "pitch": 48, "duration": 8, "velocity": 108}, {"time": 2692, "pitch": 55, "duration": 4, "velocity": 97}, {"time": 2692, "pitch": 60, "duration": 3, "velocity": 108}, {"time": 2692, "pitch": 64, "duration": 5, "velocity": 102}, {"time": 2698, "pitch": 41, "duration": 9, "velocity": 100}, {"time": 2704, "pitch": 53, "duration": 4, "velocity": 97}, {"time": 2704, "pitch": 57, "duration": 4, "velocity": 102}, {"time": 2704, "pitch": 60, "duration": 4, "velocity": 97}, {"time": 2710, "pitch": 43, "duration": 9, "velocity": 102}, {"time": 2716, "pitch": 55, "duration": 8, "velocity": 94}, {"time": 2716, "pitch": 59, "duration": 6, "velocity": 102}, {"time": 2716, "pitch": 62, "duration": 5, "velocity": 100}, {"time": 2722, "pitch": 50, "duration": 8, "velocity": 94}, {"time": 2728, "pitch": 55, "duration": 3, "velocity": 89}, {"time": 2728, "pitch": 59, "duration": 3, "velocity": 102}, {"time": 2728, "pitch": 62, "duration": 3, "velocity": 100}, {"time": 2728, "pitch": 67, "duration": 3, "velocity": 84}, {"time": 2734, "pitch": 48, "duration": 11, "velocity": 108}, {"time": 2740, "pitch": 55, "duration": 9, "velocity": 89}, {"time": 2740, "pitch": 60, "duration": 8, "velocity": 97}, {"time": 2740, "pitch": 64, "duration": 8, "velocity": 94}, {"time": 2746, "pitch": 43, "duration": 9, "velocity": 92}, {"time": 2752, "pitch": 55, "duration": 3, "velocity": 97}, {"time": 2752, "pitch": 60, "duration": 3, "velocity": 105}, {"time": 2752, "pitch": 64, "duration": 4, "velocity": 100}, {"time": 2758, "pitch": 43, "duration": 21, "velocity": 105}, {"time": 2764, "pitch": 55, "duration": 10, "velocity": 89}, {"time": 2764, "pitch": 59, "duration": 10, "velocity": 105}, {"time": 2764, "pitch": 62, "duration": 10, "velocity": 105}, {"time": 2770, "pitch": 50, "duration": 9, "velocity": 87}, {"time": 2776, "pitch": 55, "duration": 4, "velocity": 94}, {"time": 2776, "pitch": 59, "duration": 3, "velocity": 94}, {"time": 2776, "pitch": 62, "duration": 4, "velocity": 92}, {"time": 2782, "pitch": 48, "duration": 12, "velocity": 102}, {"time": 2788, "pitch": 55, "duration": 8, "velocity": 84}, {"time": 2788, "pitch": 60, "duration": 8, "velocity": 100}, {"time": 2788, "pitch": 64, "duration": 8, "velocity": 100}, {"time": 2794, "pitch": 43, "duration": 10, "velocity": 92}, {"time": 2800, "pitch": 55, "duration": 5, "velocity": 87}, {"time": 2800, "pitch": 60, "duration": 4, "velocity": 100}, {"time": 2800, "pitch": 64, "duration": 5, "velocity": 97}, {"time": 2806, "pitch": 48, "duration": 12, "velocity": 97}, {"time": 2812, "pitch": 55, "duration": 10, "velocity": 100}, {"time": 2812, "pitch": 60, "duration": 10, "velocity": 94}, {"time": 2812, "pitch": 64, "duration": 10, "velocity": 97}, {"time": 2818, "pitch": 43, "duration": 9, "velocity": 108}, {"time": 2824, "pitch": 55, "duration": 4, "velocity": 102}, {"time": 2824, "pitch": 60, "duration": 4, "velocity": 100}, {"time": 2824, "pitch": 64, "duration": 4, "velocity": 100}, {"time": 2830, "pitch": 45, "duration": 9, "velocity": 94}, {"time": 2830, "pitch": 57, "duration": 4, "velocity": 78}, {"time": 2830, "pitch": 60, "duration": 4, "velocity": 84}, {"time": 2836, "pitch": 57, "duration": 3, "velocity": 89}, {"time": 2836, "pitch": 60, "duration": 3, "velocity": 100}, {"time": 2836, "pitch": 64, "duration": 3, "velocity": 100}, {"time": 2842, "pitch": 52, "duration": 10, "velocity": 80}, {"time": 2848, "pitch": 57, "duration": 3, "velocity": 94}, {"time": 2848, "pitch": 60, "duration": 3, "velocity": 102}, {"time": 2848, "pitch": 64, "duration": 3, "velocity": 100}, {"time": 2854, "pitch": 45, "duration": 9, "velocity": 92}, {"time": 2854, "pitch": 57, "duration": 5, "velocity": 80}, {"time": 2854, "pitch": 60, "duration": 5, "velocity": 84}, {"time": 2860, "pitch": 57, "duration": 4, "velocity": 108}, {"time": 2860, "pitch": 60, "duration": 4, "velocity": 111}, {"time": 2860, "pitch": 64, "duration": 4, "velocity": 102}, {"time": 2866, "pitch": 52, "duration": 10, "velocity": 100}, {"time": 2872, "pitch": 57, "duration": 5, "velocity": 102}, {"time": 2872, "pitch": 60, "duration": 5, "velocity": 105}, {"time": 2872, "pitch": 64, "duration": 5, "velocity": 100}, {"time": 2878, "pitch": 48, "duration": 12, "velocity": 97}, {"time": 2884, "pitch": 55, "duration": 3, "velocity": 97}, {"time": 2884, "pitch": 60, "duration": 3, "velocity": 100}, {"time": 2884, "pitch": 64, "duration": 3, "velocity": 102}, {"time": 2890, "pitch": 43, "duration": 9, "velocity": 105}, {"time": 2896, "pitch": 55, "duration": 3, "velocity": 102}, {"time": 2896, "pitch": 60, "duration": 3, "velocity": 102}, {"time": 2896, "pitch": 64, "duration": 3, "velocity": 102}, {"time": 2902, "pitch": 48, "duration": 13, "velocity": 97}, {"time": 2902, "pitch": 55, "duration": 5, "velocity": 92}, {"time": 2902, "pitch": 60, "duration": 5, "velocity": 97}, {"time": 2908, "pitch": 55, "duration": 9, "velocity": 102}, {"time": 2908, "pitch": 60, "duration": 9, "velocity": 108}, {"time": 2908, "pitch": 64, "duration": 8, "velocity": 108}, {"time": 2914, "pitch": 43, "duration": 9, "velocity": 102}, {"time": 2920, "pitch": 55, "duration": 3, "velocity": 102}, {"time": 2920, "pitch": 60, "duration": 2, "velocity": 100}, {"time": 2920, "pitch": 64, "duration": 2, "velocity": 94}, {"time": 2926, "pitch": 41, "duration": 8, "velocity": 94}, {"time": 2926, "pitch": 53, "duration": 5, "velocity": 76}, {"time": 2926, "pitch": 57, "duration": 4, "velocity": 89}, {"time": 2932, "pitch": 53, "duration": 4, "velocity": 89}, {"time": 2932, "pitch": 57, "duration": 4, "velocity": 108}, {"time": 2932, "pitch": 60, "duration": 4, "velocity": 108}, {"time": 2938, "pitch": 48, "duration": 11, "velocity": 78}, {"time": 2944, "pitch": 53, "duration": 6, "velocity": 94}, {"time": 2944, "pitch": 57, "duration": 6, "velocity": 111}, {"time": 2944, "pitch": 60, "duration": 6, "velocity": 105}, {"time": 2950, "pitch": 41, "duration": 10, "velocity": 100}, {"time": 2950, "pitch": 53, "duration": 3, "velocity": 102}, {"time": 2950, "pitch": 57, "duration": 3, "velocity": 114}, {"time": 2950, "pitch": 60, "duration": 1, "velocity": 87}, {"time": 2956, "pitch": 53, "duration": 4, "velocity": 80}, {"time": 2956, "pitch": 57, "duration": 5, "velocity": 97}, {"time": 2956, "pitch": 60, "duration": 4, "velocity": 97}, {"time": 2962, "pitch": 48, "duration": 9, "velocity": 87}, {"time": 2968, "pitch": 53, "duration": 3, "velocity": 94}, {"time": 2968, "pitch": 57, "duration": 3, "velocity": 102}, {"time": 2968, "pitch": 60, "duration": 4, "velocity": 102}, {"time": 2974, "pitch": 43, "duration": 11, "velocity": 102}, {"time": 2974, "pitch": 55, "duration": 4, "velocity": 80}, {"time": 2974, "pitch": 59, "duration": 4, "velocity": 94}, {"time": 2980, "pitch": 55, "duration": 9, "velocity": 100}, {"time": 2980, "pitch": 59, "duration": 9, "velocity": 105}, {"time": 2980, "pitch": 62, "duration": 9, "velocity": 105}, {"time": 2986, "pitch": 50, "duration": 9, "velocity": 87}, {"time": 2992, "pitch": 55, "duration": 3, "velocity": 82}, {"time": 2992, "pitch": 59, "duration": 3, "velocity": 97}, {"time": 2992, "pitch": 62, "duration": 3, "velocity": 92}, {"time": 2998, "pitch": 43, "duration": 12, "velocity": 100}, {"time": 2998, "pitch": 55, "duration": 5, "velocity": 80}, {"time": 2998, "pitch": 59, "duration": 5, "velocity": 94}, {"time": 3004, "pitch": 55, "duration": 9, "velocity": 89}, {"time": 3004, "pitch": 59, "duration": 8, "velocity": 97}, {"time": 3004, "pitch": 62, "duration": 8, "velocity": 89}, {"time": 3010, "pitch": 50, "duration": 9, "velocity": 94}, {"time": 3016, "pitch": 55, "duration": 3, "velocity": 69}, {"time": 3016, "pitch": 59, "duration": 2, "velocity": 66}, {"time": 3016, "pitch": 62, "duration": 3, "velocity": 78}, {"time": 3022, "pitch": 45, "duration": 9, "velocity": 94}, {"time": 3022, "pitch": 57, "duration": 4, "velocity": 78}, {"time": 3022, "pitch": 60, "duration": 4, "velocity": 84}, {"time": 3028, "pitch": 57, "duration": 3, "velocity": 89}, {"time": 3028, "pitch": 60, "duration": 3, "velocity": 100}, {"time": 3028, "pitch": 64, "duration": 3, "velocity": 100}, {"time": 3034, "pitch": 52, "duration": 10, "velocity": 80}, {"time": 3040, "pitch": 57, "duration": 3, "velocity": 94}, {"time": 3040, "pitch": 60, "duration": 3, "velocity": 102}, {"time": 3040, "pitch": 64, "duration": 3, "velocity": 100}, {"time": 3046, "pitch": 45, "duration": 9, "velocity": 92}, {"time": 3046, "pitch": 57, "duration": 5, "velocity": 80}, {"time": 3046, "pitch": 60, "duration": 5, "velocity": 84}, {"time": 3052, "pitch": 57, "duration": 4, "velocity": 108}, {"time": 3052, "pitch": 60, "duration": 4, "velocity": 111}, {"time": 3052, "pitch": 64, "duration": 4, "velocity": 102}, {"time": 3058, "pitch": 52, "duration": 10, "velocity": 100}, {"time": 3064, "pitch": 57, "duration": 5, "velocity": 102}, {"time": 3064, "pitch": 60, "duration": 5, "velocity": 105}, {"time": 3064, "pitch": 64, "duration": 5, "velocity": 100}, {"time": 3070, "pitch": 48, "duration": 12, "velocity": 97}, {"time": 3076, "pitch": 55, "duration": 3, "velocity": 97}, {"time": 3076, "pitch": 60, "duration": 3, "velocity": 100}, {"time": 3076, "pitch": 64, "duration": 3, "velocity": 102}, {"time": 3082, "pitch": 43, "duration": 9, "velocity": 105}, {"time": 3088, "pitch": 55, "duration": 3, "velocity": 102}, {"time": 3088, "pitch": 60, "duration": 3, "velocity": 102}, {"time": 3088, "pitch": 64, "duration": 3, "velocity": 102}, {"time": 3094, "pitch": 48, "duration": 13, "velocity": 97}, {"time": 3094, "pitch": 55, "duration": 5, "velocity": 92}, {"time": 3094, "pitch": 60, "duration": 5, "velocity": 97}, {"time": 3100, "pitch": 55, "duration": 9, "velocity": 102}, {"time": 3100, "pitch": 60, "duration": 9, "velocity": 108}, {"time": 3100, "pitch": 64, "duration": 8, "velocity": 108}, {"time": 3106, "pitch": 43, "duration": 9, "velocity": 102}, {"time": 3112, "pitch": 55, "duration": 3, "velocity": 102}, {"time": 3112, "pitch": 60, "duration": 2, "velocity": 100}, {"time": 3112, "pitch": 64, "duration": 2, "velocity": 94}, {"time": 3118, "pitch": 50, "duration": 12, "velocity": 100}, {"time": 3118, "pitch": 57, "duration": 5, "velocity": 97}, {"time": 3118, "pitch": 62, "duration": 5, "velocity": 94}, {"time": 3124, "pitch": 57, "duration": 10, "velocity": 105}, {"time": 3124, "pitch": 62, "duration": 9, "velocity": 111}, {"time": 3124, "pitch": 65, "duration": 9, "velocity": 108}, {"time": 3130, "pitch": 45, "duration": 10, "velocity": 105}, {"time": 3136, "pitch": 57, "duration": 3, "velocity": 97}, {"time": 3136, "pitch": 62, "duration": 2, "velocity": 97}, {"time": 3136, "pitch": 65, "duration": 2, "velocity": 108}, {"time": 3142, "pitch": 50, "duration": 11, "velocity": 92}, {"time": 3142, "pitch": 57, "duration": 5, "velocity": 66}, {"time": 3142, "pitch": 62, "duration": 5, "velocity": 94}, {"time": 3142, "pitch": 66, "duration": 5, "velocity": 99}, {"time": 3148, "pitch": 57, "duration": 10, "velocity": 102}, {"time": 3148, "pitch": 62, "duration": 9, "velocity": 105}, {"time": 3148, "pitch": 66, "duration": 10, "velocity": 99}, {"time": 3154, "pitch": 50, "duration": 8, "velocity": 89}, {"time": 3160, "pitch": 57, "duration": 4, "velocity": 114}, {"time": 3160, "pitch": 62, "duration": 3, "velocity": 111}, {"time": 3160, "pitch": 66, "duration": 4, "velocity": 112}, {"time": 3166, "pitch": 43, "duration": 11, "velocity": 102}, {"time": 3166, "pitch": 55, "duration": 4, "velocity": 80}, {"time": 3166, "pitch": 59, "duration": 4, "velocity": 94}, {"time": 3172, "pitch": 55, "duration": 9, "velocity": 100}, {"time": 3172, "pitch": 59, "duration": 9, "velocity": 105}, {"time": 3172, "pitch": 62, "duration": 9, "velocity": 105}, {"time": 3178, "pitch": 50, "duration": 9, "velocity": 87}, {"time": 3184, "pitch": 55, "duration": 3, "velocity": 82}, {"time": 3184, "pitch": 59, "duration": 3, "velocity": 97}, {"time": 3184, "pitch": 62, "duration": 3, "velocity": 92}, {"time": 3190, "pitch": 43, "duration": 20, "velocity": 105}, {"time": 3190, "pitch": 55, "duration": 23, "velocity": 84}, {"time": 3190, "pitch": 59, "duration": 23, "velocity": 92}, {"time": 3190, "pitch": 62, "duration": 23, "velocity": 97}, {"time": 3214, "pitch": 48, "duration": 8, "velocity": 111}, {"time": 3220, "pitch": 55, "duration": 4, "velocity": 102}, {"time": 3220, "pitch": 60, "duration": 3, "velocity": 108}, {"time": 3220, "pitch": 64, "duration": 4, "velocity": 105}, {"time": 3226, "pitch": 41, "duration": 8, "velocity": 100}, {"time": 3232, "pitch": 53, "duration": 4, "velocity": 94}, {"time": 3232, "pitch": 57, "duration": 4, "velocity": 100}, {"time": 3232, "pitch": 60, "duration": 4, "velocity": 100}, {"time": 3238, "pitch": 48, "duration": 11, "velocity": 102}, {"time": 3244, "pitch": 55, "duration": 7, "velocity": 100}, {"time": 3244, "pitch": 60, "duration": 7, "velocity": 105}, {"time": 3244, "pitch": 64, "duration": 7, "velocity": 102}, {"time": 3250, "pitch": 43, "duration": 8, "velocity": 84}, {"time": 3256, "pitch": 55, "duration": 3, "velocity": 102}, {"time": 3256, "pitch": 60, "duration": 2, "velocity": 102}, {"time": 3256, "pitch": 64, "duration": 4, "velocity": 105}, {"time": 3262, "pitch": 48, "duration": 8, "velocity": 108}, {"time": 3268, "pitch": 55, "duration": 4, "velocity": 97}, {"time": 3268, "pitch": 60, "duration": 3, "velocity": 108}, {"time": 3268, "pitch": 64, "duration": 5, "velocity": 102}, {"time": 3274, "pitch": 41, "duration": 9, "velocity": 100}, {"time": 3280, "pitch": 53, "duration": 4, "velocity": 97}, {"time": 3280, "pitch": 57, "duration": 4, "velocity": 102}, {"time": 3280, "pitch": 60, "duration": 4, "velocity": 97}, {"time": 3286, "pitch": 43, "duration": 9, "velocity": 102}, {"time": 3292, "pitch": 55, "duration": 8, "velocity": 94}, {"time": 3292, "pitch": 59, "duration": 6, "velocity": 102}, {"time": 3292, "pitch": 62, "duration": 5, "velocity": 100}, {"time": 3298, "pitch": 50, "duration": 8, "velocity": 94}, {"time": 3304, "pitch": 55, "duration": 3, "velocity": 89}, {"time": 3304, "pitch": 59, "duration": 3, "velocity": 102}, {"time": 3304, "pitch": 62, "duration": 3, "velocity": 100}, {"time": 3304, "pitch": 67, "duration": 3, "velocity": 84}, {"time": 3310, "pitch": 48, "duration": 11, "velocity": 108}, {"time": 3316, "pitch": 55, "duration": 9, "velocity": 89}, {"time": 3316, "pitch": 60, "duration": 8, "velocity": 97}, {"time": 3316, "pitch": 64, "duration": 8, "velocity": 94}, {"time": 3322, "pitch": 43, "duration": 9, "velocity": 92}, {"time": 3328, "pitch": 55, "duration": 3, "velocity": 97}, {"time": 3328, "pitch": 60, "duration": 3, "velocity": 105}, {"time": 3328, "pitch": 64, "duration": 4, "velocity": 100}, {"time": 3334, "pitch": 43, "duration": 21, "velocity": 105}, {"time": 3340, "pitch": 55, "duration": 10, "velocity": 89}, {"time": 3340, "pitch": 59, "duration": 10, "velocity": 105}, {"time": 3340, "pitch": 62, "duration": 10, "velocity": 105}, {"time": 3346, "pitch": 50, "duration": 9, "velocity": 87}, {"time": 3352, "pitch": 55, "duration": 4, "velocity": 94}, {"time": 3352, "pitch": 59, "duration": 3, "velocity": 94}, {"time": 3352, "pitch": 62, "duration": 4, "velocity": 92}, {"time": 3358, "pitch": 48, "duration": 12, "velocity": 102}, {"time": 3364, "pitch": 55, "duration": 8, "velocity": 84}, {"time": 3364, "pitch": 60, "duration": 8, "velocity": 100}, {"time": 3364, "pitch": 64, "duration": 8, "velocity": 100}, {"time": 3370, "pitch": 43, "duration": 10, "velocity": 92}, {"time": 3376, "pitch": 55, "duration": 5, "velocity": 87}, {"time": 3376, "pitch": 60, "duration": 4, "velocity": 100}, {"time": 3376, "pitch": 64, "duration": 5, "velocity": 97}, {"time": 3382, "pitch": 48, "duration": 12, "velocity": 97}, {"time": 3388, "pitch": 55, "duration": 10, "velocity": 100}, {"time": 3388, "pitch": 60, "duration": 10, "velocity": 94}, {"time": 3388, "pitch": 64, "duration": 10, "velocity": 97}, {"time": 3394, "pitch": 43, "duration": 9, "velocity": 108}, {"time": 3400, "pitch": 55, "duration": 4, "velocity": 102}, {"time": 3400, "pitch": 60, "duration": 4, "velocity": 100}, {"time": 3400, "pitch": 64, "duration": 4, "velocity": 100}, {"time": 3406, "pitch": 41, "duration": 9, "velocity": 105}, {"time": 3412, "pitch": 57, "duration": 3, "velocity": 97}, {"time": 3412, "pitch": 60, "duration": 3, "velocity": 102}, {"time": 3412, "pitch": 65, "duration": 3, "velocity": 92}, {"time": 3418, "pitch": 48, "duration": 11, "velocity": 97}, {"time": 3424, "pitch": 57, "duration": 7, "velocity": 100}, {"time": 3424, "pitch": 60, "duration": 6, "velocity": 102}, {"time": 3424, "pitch": 65, "duration": 6, "velocity": 94}, {"time": 3430, "pitch": 41, "duration": 9, "velocity": 87}, {"time": 3436, "pitch": 57, "duration": 3, "velocity": 100}, {"time": 3436, "pitch": 60, "duration": 2, "velocity": 102}, {"time": 3436, "pitch": 65, "duration": 3, "velocity": 100}, {"time": 3442, "pitch": 48, "duration": 9, "velocity": 92}, {"time": 3448, "pitch": 57, "duration": 5, "velocity": 97}, {"time": 3448, "pitch": 60, "duration": 4, "velocity": 97}, {"time": 3448, "pitch": 65, "duration": 6, "velocity": 100}, {"time": 3454, "pitch": 48, "duration": 11, "velocity": 105}, {"time": 3460, "pitch": 55, "duration": 5, "velocity": 97}, {"time": 3460, "pitch": 60, "duration": 5, "velocity": 92}, {"time": 3460, "pitch": 64, "duration": 5, "velocity": 97}, {"time": 3466, "pitch": 43, "duration": 8, "velocity": 97}, {"time": 3472, "pitch": 55, "duration": 3, "velocity": 92}, {"time": 3472, "pitch": 60, "duration": 3, "velocity": 94}, {"time": 3472, "pitch": 64, "duration": 3, "velocity": 92}, {"time": 3478, "pitch": 48, "duration": 12, "velocity": 92}, {"time": 3484, "pitch": 55, "duration": 8, "velocity": 97}, {"time": 3484, "pitch": 60, "duration": 8, "velocity": 97}, {"time": 3484, "pitch": 64, "duration": 8, "velocity": 94}, {"time": 3490, "pitch": 43, "duration": 9, "velocity": 97}, {"time": 3496, "pitch": 55, "duration": 4, "velocity": 100}, {"time": 3496, "pitch": 60, "duration": 4, "velocity": 102}, {"time": 3496, "pitch": 64, "duration": 4, "velocity": 94}, {"time": 3502, "pitch": 43, "duration": 8, "velocity": 97}, {"time": 3508, "pitch": 55, "duration": 7, "velocity": 80}, {"time": 3508, "pitch": 59, "duration": 6, "velocity": 89}, {"time": 3508, "pitch": 62, "duration": 6, "velocity": 94}, {"time": 3514, "pitch": 50, "duration": 8, "velocity": 97}, {"time": 3520, "pitch": 55, "duration": 4, "velocity": 89}, {"time": 3520, "pitch": 59, "duration": 3, "velocity": 94}, {"time": 3520, "pitch": 62, "duration": 3, "velocity": 92}, {"time": 3526, "pitch": 43, "duration": 14, "velocity": 97}, {"time": 3532, "pitch": 55, "duration": 8, "velocity": 92}, {"time": 3532, "pitch": 59, "duration": 8, "velocity": 100}, {"time": 3532, "pitch": 62, "duration": 8, "velocity": 97}, {"time": 3538, "pitch": 50, "duration": 8, "velocity": 80}, {"time": 3544, "pitch": 55, "duration": 5, "velocity": 100}, {"time": 3544, "pitch": 59, "duration": 4, "velocity": 102}, {"time": 3544, "pitch": 62, "duration": 5, "velocity": 97}, {"time": 3550, "pitch": 48, "duration": 11, "velocity": 92}, {"time": 3556, "pitch": 55, "duration": 9, "velocity": 102}, {"time": 3556, "pitch": 60, "duration": 9, "velocity": 102}, {"time": 3556, "pitch": 64, "duration": 9, "velocity": 100}, {"time": 3562, "pitch": 43, "duration": 10, "velocity": 100}, {"time": 3568, "pitch": 55, "duration": 3, "velocity": 92}, {"time": 3568, "pitch": 60, "duration": 3, "velocity": 94}, {"time": 3568, "pitch": 64, "duration": 3, "velocity": 92}, {"time": 3574, "pitch": 48, "duration": 9, "velocity": 102}, {"time": 3574, "pitch": 55, "duration": 10, "velocity": 97}, {"time": 3574, "pitch": 60, "duration": 9, "velocity": 97}, {"time": 3574, "pitch": 64, "duration": 9, "velocity": 97}, {"time": 3586, "pitch": 36, "duration": 9, "velocity": 102}, {"time": 3586, "pitch": 60, "duration": 7, "velocity": 102}, {"time": 3586, "pitch": 72, "duration": 7, "velocity": 89}, {"time": 3586, "pitch": 76, "duration": 7, "velocity": 92}, {"time": 3586, "pitch": 84, "duration": 7, "velocity": 97}]}]}