{"metadata": {"schema_version": "0.2", "title": "None", "source_filename": "137.mid", "source_format": "midi"}, "resolution": 12, "tempos": [{"time": 0, "qpm": 63.000063000063}, {"time": 84, "qpm": 64.0}, {"time": 228, "qpm": 63.000063000063}, {"time": 276, "qpm": 63.460031285795424}, {"time": 1464, "qpm": 63.72003963386465}, {"time": 1596, "qpm": 63.460031285795424}, {"time": 2325, "qpm": 63.74007646684507}, {"time": 2399, "qpm": 63.540004257180286}, {"time": 2655, "qpm": 63.520025746783766}], "time_signatures": [{"time": 0, "numerator": 1, "denominator": 4}], "tracks": [{"program": 4, "is_drum": false, "name": "MELODY", "notes": [{"time": 256, "pitch": 60, "duration": 3, "velocity": 111}, {"time": 259, "pitch": 62, "duration": 2, "velocity": 97}, {"time": 262, "pitch": 65, "duration": 2, "velocity": 108}, {"time": 265, "pitch": 67, "duration": 2, "velocity": 100}, {"time": 268, "pitch": 67, "duration": 6, "velocity": 105}, {"time": 274, "pitch": 69, "duration": 18, "velocity": 97}, {"time": 301, "pitch": 60, "duration": 3, "velocity": 94}, {"time": 304, "pitch": 69, "duration": 2, "velocity": 111}, {"time": 307, "pitch": 67, "duration": 2, "velocity": 114}, {"time": 310, "pitch": 67, "duration": 2, "velocity": 100}, {"time": 313, "pitch": 69, "duration": 2, "velocity": 92}, {"time": 316, "pitch": 67, "duration": 5, "velocity": 108}, {"time": 322, "pitch": 65, "duration": 14, "velocity": 108}, {"time": 352, "pitch": 65, "duration": 2, "velocity": 114}, {"time": 355, "pitch": 67, "duration": 2, "velocity": 108}, {"time": 358, "pitch": 69, "duration": 2, "velocity": 108}, {"time": 361, "pitch": 72, "duration": 2, "velocity": 108}, {"time": 364, "pitch": 74, "duration": 5, "velocity": 102}, {"time": 370, "pitch": 74, "duration": 2, "velocity": 102}, {"time": 373, "pitch": 74, "duration": 16, "velocity": 114}, {"time": 397, "pitch": 74, "duration": 3, "velocity": 97}, {"time": 400, "pitch": 72, "duration": 3, "velocity": 111}, {"time": 403, "pitch": 70, "duration": 3, "velocity": 105}, {"time": 406, "pitch": 69, "duration": 2, "velocity": 111}, {"time": 409, "pitch": 70, "duration": 2, "velocity": 109}, {"time": 412, "pitch": 69, "duration": 23, "velocity": 114}, {"time": 448, "pitch": 69, "duration": 5, "velocity": 123}, {"time": 454, "pitch": 72, "duration": 4, "velocity": 111}, {"time": 460, "pitch": 74, "duration": 5, "velocity": 105}, {"time": 466, "pitch": 74, "duration": 2, "velocity": 100}, {"time": 469, "pitch": 74, "duration": 18, "velocity": 108}, {"time": 496, "pitch": 74, "duration": 5, "velocity": 111}, {"time": 502, "pitch": 74, "duration": 2, "velocity": 111}, {"time": 505, "pitch": 69, "duration": 2, "velocity": 111}, {"time": 508, "pitch": 72, "duration": 10, "velocity": 108}, {"time": 520, "pitch": 72, "duration": 5, "velocity": 108}, {"time": 526, "pitch": 74, "duration": 2, "velocity": 105}, {"time": 529, "pitch": 69, "duration": 17, "velocity": 108}, {"time": 562, "pitch": 65, "duration": 5, "velocity": 87}, {"time": 568, "pitch": 65, "duration": 6, "velocity": 111}, {"time": 574, "pitch": 62, "duration": 2, "velocity": 105}, {"time": 577, "pitch": 62, "duration": 5, "velocity": 105}, {"time": 583, "pitch": 65, "duration": 15, "velocity": 97}, {"time": 601, "pitch": 62, "duration": 3, "velocity": 108}, {"time": 604, "pitch": 67, "duration": 29, "velocity": 105}, {"time": 640, "pitch": 60, "duration": 3, "velocity": 111}, {"time": 643, "pitch": 62, "duration": 2, "velocity": 97}, {"time": 646, "pitch": 65, "duration": 2, "velocity": 108}, {"time": 649, "pitch": 67, "duration": 2, "velocity": 100}, {"time": 652, "pitch": 67, "duration": 6, "velocity": 105}, {"time": 658, "pitch": 69, "duration": 18, "velocity": 97}, {"time": 685, "pitch": 60, "duration": 3, "velocity": 94}, {"time": 688, "pitch": 69, "duration": 2, "velocity": 111}, {"time": 691, "pitch": 67, "duration": 2, "velocity": 114}, {"time": 694, "pitch": 67, "duration": 2, "velocity": 100}, {"time": 697, "pitch": 69, "duration": 2, "velocity": 92}, {"time": 700, "pitch": 67, "duration": 5, "velocity": 108}, {"time": 706, "pitch": 65, "duration": 14, "velocity": 108}, {"time": 736, "pitch": 65, "duration": 2, "velocity": 114}, {"time": 739, "pitch": 67, "duration": 2, "velocity": 108}, {"time": 742, "pitch": 69, "duration": 2, "velocity": 108}, {"time": 745, "pitch": 72, "duration": 2, "velocity": 108}, {"time": 748, "pitch": 74, "duration": 5, "velocity": 102}, {"time": 754, "pitch": 74, "duration": 2, "velocity": 102}, {"time": 757, "pitch": 74, "duration": 16, "velocity": 114}, {"time": 781, "pitch": 74, "duration": 3, "velocity": 97}, {"time": 784, "pitch": 72, "duration": 3, "velocity": 111}, {"time": 787, "pitch": 70, "duration": 3, "velocity": 105}, {"time": 790, "pitch": 69, "duration": 2, "velocity": 111}, {"time": 793, "pitch": 70, "duration": 2, "velocity": 109}, {"time": 796, "pitch": 69, "duration": 23, "velocity": 114}, {"time": 832, "pitch": 69, "duration": 5, "velocity": 123}, {"time": 838, "pitch": 72, "duration": 4, "velocity": 111}, {"time": 844, "pitch": 74, "duration": 5, "velocity": 105}, {"time": 850, "pitch": 74, "duration": 2, "velocity": 100}, {"time": 853, "pitch": 74, "duration": 18, "velocity": 108}, {"time": 880, "pitch": 74, "duration": 5, "velocity": 111}, {"time": 886, "pitch": 74, "duration": 2, "velocity": 111}, {"time": 889, "pitch": 69, "duration": 2, "velocity": 111}, {"time": 892, "pitch": 72, "duration": 10, "velocity": 108}, {"time": 904, "pitch": 72, "duration": 5, "velocity": 108}, {"time": 910, "pitch": 74, "duration": 2, "velocity": 105}, {"time": 913, "pitch": 69, "duration": 17, "velocity": 108}, {"time": 946, "pitch": 65, "duration": 5, "velocity": 87}, {"time": 952, "pitch": 65, "duration": 6, "velocity": 111}, {"time": 958, "pitch": 62, "duration": 2, "velocity": 105}, {"time": 961, "pitch": 69, "duration": 5, "velocity": 105}, {"time": 967, "pitch": 67, "duration": 15, "velocity": 97}, {"time": 982, "pitch": 69, "duration": 6, "velocity": 108}, {"time": 988, "pitch": 65, "duration": 29, "velocity": 105}, {"time": 1042, "pitch": 70, "duration": 4, "velocity": 112}, {"time": 1048, "pitch": 70, "duration": 5, "velocity": 112}, {"time": 1054, "pitch": 72, "duration": 2, "velocity": 97}, {"time": 1057, "pitch": 69, "duration": 24, "velocity": 108}, {"time": 1090, "pitch": 67, "duration": 4, "velocity": 105}, {"time": 1096, "pitch": 67, "duration": 5, "velocity": 111}, {"time": 1102, "pitch": 65, "duration": 2, "velocity": 100}, {"time": 1105, "pitch": 65, "duration": 16, "velocity": 114}, {"time": 1126, "pitch": 65, "duration": 2, "velocity": 108}, {"time": 1129, "pitch": 64, "duration": 2, "velocity": 105}, {"time": 1132, "pitch": 62, "duration": 4, "velocity": 105}, {"time": 1138, "pitch": 62, "duration": 2, "velocity": 94}, {"time": 1141, "pitch": 60, "duration": 3, "velocity": 102}, {"time": 1144, "pitch": 62, "duration": 4, "velocity": 102}, {"time": 1150, "pitch": 62, "duration": 2, "velocity": 114}, {"time": 1153, "pitch": 65, "duration": 2, "velocity": 100}, {"time": 1156, "pitch": 64, "duration": 2, "velocity": 117}, {"time": 1159, "pitch": 64, "duration": 2, "velocity": 97}, {"time": 1162, "pitch": 64, "duration": 2, "velocity": 94}, {"time": 1165, "pitch": 64, "duration": 5, "velocity": 105}, {"time": 1174, "pitch": 62, "duration": 2, "velocity": 111}, {"time": 1177, "pitch": 64, "duration": 2, "velocity": 108}, {"time": 1180, "pitch": 65, "duration": 2, "velocity": 94}, {"time": 1183, "pitch": 65, "duration": 2, "velocity": 89}, {"time": 1186, "pitch": 65, "duration": 2, "velocity": 94}, {"time": 1189, "pitch": 65, "duration": 6, "velocity": 100}, {"time": 1195, "pitch": 65, "duration": 2, "velocity": 100}, {"time": 1198, "pitch": 65, "duration": 2, "velocity": 100}, {"time": 1201, "pitch": 69, "duration": 2, "velocity": 108}, {"time": 1204, "pitch": 67, "duration": 2, "velocity": 105}, {"time": 1210, "pitch": 67, "duration": 2, "velocity": 114}, {"time": 1213, "pitch": 67, "duration": 2, "velocity": 100}, {"time": 1216, "pitch": 67, "duration": 5, "velocity": 108}, {"time": 1222, "pitch": 65, "duration": 3, "velocity": 105}, {"time": 1225, "pitch": 72, "duration": 36, "velocity": 108}, {"time": 1264, "pitch": 74, "duration": 2, "velocity": 111}, {"time": 1267, "pitch": 76, "duration": 11, "velocity": 111}, {"time": 1282, "pitch": 77, "duration": 10, "velocity": 114}, {"time": 1294, "pitch": 69, "duration": 4, "velocity": 114}, {"time": 1300, "pitch": 72, "duration": 5, "velocity": 114}, {"time": 1306, "pitch": 74, "duration": 2, "velocity": 97}, {"time": 1309, "pitch": 72, "duration": 6, "velocity": 114}, {"time": 1318, "pitch": 69, "duration": 2, "velocity": 117}, {"time": 1321, "pitch": 67, "duration": 2, "velocity": 105}, {"time": 1324, "pitch": 65, "duration": 4, "velocity": 105}, {"time": 1330, "pitch": 65, "duration": 4, "velocity": 105}, {"time": 1336, "pitch": 65, "duration": 5, "velocity": 108}, {"time": 1342, "pitch": 69, "duration": 5, "velocity": 111}, {"time": 1348, "pitch": 67, "duration": 5, "velocity": 108}, {"time": 1354, "pitch": 69, "duration": 2, "velocity": 100}, {"time": 1357, "pitch": 67, "duration": 6, "velocity": 111}, {"time": 1372, "pitch": 74, "duration": 3, "velocity": 108}, {"time": 1376, "pitch": 74, "duration": 4, "velocity": 97}, {"time": 1381, "pitch": 72, "duration": 1, "velocity": 105}, {"time": 1384, "pitch": 72, "duration": 3, "velocity": 111}, {"time": 1388, "pitch": 69, "duration": 3, "velocity": 111}, {"time": 1393, "pitch": 67, "duration": 2, "velocity": 105}, {"time": 1396, "pitch": 69, "duration": 3, "velocity": 114}, {"time": 1399, "pitch": 72, "duration": 9, "velocity": 102}, {"time": 1411, "pitch": 69, "duration": 3, "velocity": 105}, {"time": 1414, "pitch": 67, "duration": 2, "velocity": 108}, {"time": 1417, "pitch": 65, "duration": 3, "velocity": 111}, {"time": 1420, "pitch": 67, "duration": 4, "velocity": 108}, {"time": 1426, "pitch": 67, "duration": 2, "velocity": 105}, {"time": 1429, "pitch": 65, "duration": 2, "velocity": 105}, {"time": 1432, "pitch": 67, "duration": 5, "velocity": 111}, {"time": 1438, "pitch": 65, "duration": 2, "velocity": 108}, {"time": 1441, "pitch": 65, "duration": 3, "velocity": 105}, {"time": 1444, "pitch": 72, "duration": 4, "velocity": 117}, {"time": 1450, "pitch": 72, "duration": 4, "velocity": 114}, {"time": 1456, "pitch": 72, "duration": 2, "velocity": 111}, {"time": 1459, "pitch": 74, "duration": 2, "velocity": 102}, {"time": 1462, "pitch": 76, "duration": 7, "velocity": 114}, {"time": 1474, "pitch": 77, "duration": 8, "velocity": 108}, {"time": 1486, "pitch": 69, "duration": 4, "velocity": 108}, {"time": 1492, "pitch": 72, "duration": 5, "velocity": 108}, {"time": 1498, "pitch": 74, "duration": 2, "velocity": 100}, {"time": 1501, "pitch": 72, "duration": 5, "velocity": 117}, {"time": 1510, "pitch": 69, "duration": 2, "velocity": 105}, {"time": 1513, "pitch": 67, "duration": 2, "velocity": 108}, {"time": 1516, "pitch": 65, "duration": 5, "velocity": 108}, {"time": 1522, "pitch": 65, "duration": 2, "velocity": 108}, {"time": 1525, "pitch": 65, "duration": 8, "velocity": 111}, {"time": 1537, "pitch": 65, "duration": 2, "velocity": 105}, {"time": 1540, "pitch": 72, "duration": 5, "velocity": 108}, {"time": 1546, "pitch": 74, "duration": 2, "velocity": 100}, {"time": 1549, "pitch": 72, "duration": 13, "velocity": 108}, {"time": 1564, "pitch": 69, "duration": 3, "velocity": 108}, {"time": 1567, "pitch": 67, "duration": 2, "velocity": 97}, {"time": 1570, "pitch": 65, "duration": 11, "velocity": 111}, {"time": 1582, "pitch": 67, "duration": 3, "velocity": 102}, {"time": 1585, "pitch": 65, "duration": 2, "velocity": 105}, {"time": 1588, "pitch": 67, "duration": 4, "velocity": 105}, {"time": 1594, "pitch": 69, "duration": 2, "velocity": 108}, {"time": 1597, "pitch": 60, "duration": 6, "velocity": 105}, {"time": 1603, "pitch": 67, "duration": 11, "velocity": 108}, {"time": 1618, "pitch": 67, "duration": 10, "velocity": 111}, {"time": 1630, "pitch": 65, "duration": 5, "velocity": 117}, {"time": 1636, "pitch": 65, "duration": 34, "velocity": 105}, {"time": 1936, "pitch": 60, "duration": 3, "velocity": 111}, {"time": 1939, "pitch": 62, "duration": 2, "velocity": 97}, {"time": 1942, "pitch": 65, "duration": 2, "velocity": 108}, {"time": 1945, "pitch": 67, "duration": 2, "velocity": 100}, {"time": 1948, "pitch": 67, "duration": 6, "velocity": 105}, {"time": 1954, "pitch": 69, "duration": 18, "velocity": 97}, {"time": 1981, "pitch": 60, "duration": 3, "velocity": 94}, {"time": 1984, "pitch": 69, "duration": 2, "velocity": 111}, {"time": 1987, "pitch": 67, "duration": 2, "velocity": 114}, {"time": 1990, "pitch": 67, "duration": 2, "velocity": 100}, {"time": 1993, "pitch": 69, "duration": 2, "velocity": 92}, {"time": 1996, "pitch": 67, "duration": 5, "velocity": 108}, {"time": 2002, "pitch": 65, "duration": 14, "velocity": 108}, {"time": 2032, "pitch": 65, "duration": 2, "velocity": 114}, {"time": 2035, "pitch": 67, "duration": 2, "velocity": 108}, {"time": 2038, "pitch": 69, "duration": 2, "velocity": 108}, {"time": 2041, "pitch": 72, "duration": 2, "velocity": 108}, {"time": 2044, "pitch": 74, "duration": 5, "velocity": 102}, {"time": 2050, "pitch": 74, "duration": 2, "velocity": 102}, {"time": 2053, "pitch": 74, "duration": 16, "velocity": 114}, {"time": 2077, "pitch": 74, "duration": 3, "velocity": 97}, {"time": 2080, "pitch": 72, "duration": 3, "velocity": 111}, {"time": 2083, "pitch": 70, "duration": 3, "velocity": 105}, {"time": 2086, "pitch": 69, "duration": 2, "velocity": 111}, {"time": 2089, "pitch": 70, "duration": 2, "velocity": 109}, {"time": 2092, "pitch": 69, "duration": 23, "velocity": 114}, {"time": 2128, "pitch": 69, "duration": 5, "velocity": 123}, {"time": 2134, "pitch": 72, "duration": 4, "velocity": 111}, {"time": 2140, "pitch": 74, "duration": 5, "velocity": 105}, {"time": 2146, "pitch": 74, "duration": 2, "velocity": 100}, {"time": 2149, "pitch": 74, "duration": 18, "velocity": 108}, {"time": 2176, "pitch": 74, "duration": 5, "velocity": 111}, {"time": 2182, "pitch": 74, "duration": 2, "velocity": 111}, {"time": 2185, "pitch": 69, "duration": 2, "velocity": 111}, {"time": 2188, "pitch": 72, "duration": 10, "velocity": 108}, {"time": 2200, "pitch": 72, "duration": 5, "velocity": 108}, {"time": 2206, "pitch": 74, "duration": 2, "velocity": 105}, {"time": 2209, "pitch": 69, "duration": 17, "velocity": 108}, {"time": 2242, "pitch": 65, "duration": 5, "velocity": 87}, {"time": 2248, "pitch": 65, "duration": 6, "velocity": 111}, {"time": 2254, "pitch": 62, "duration": 2, "velocity": 105}, {"time": 2257, "pitch": 69, "duration": 5, "velocity": 105}, {"time": 2263, "pitch": 67, "duration": 15, "velocity": 97}, {"time": 2278, "pitch": 69, "duration": 6, "velocity": 108}, {"time": 2284, "pitch": 65, "duration": 29, "velocity": 105}, {"time": 2338, "pitch": 70, "duration": 4, "velocity": 112}, {"time": 2344, "pitch": 70, "duration": 5, "velocity": 112}, {"time": 2350, "pitch": 72, "duration": 2, "velocity": 97}, {"time": 2353, "pitch": 69, "duration": 24, "velocity": 108}, {"time": 2386, "pitch": 67, "duration": 4, "velocity": 105}, {"time": 2392, "pitch": 67, "duration": 5, "velocity": 111}, {"time": 2398, "pitch": 65, "duration": 2, "velocity": 100}, {"time": 2401, "pitch": 65, "duration": 16, "velocity": 114}, {"time": 2422, "pitch": 65, "duration": 2, "velocity": 108}, {"time": 2425, "pitch": 64, "duration": 2, "velocity": 105}, {"time": 2428, "pitch": 62, "duration": 4, "velocity": 105}, {"time": 2434, "pitch": 62, "duration": 2, "velocity": 94}, {"time": 2437, "pitch": 60, "duration": 3, "velocity": 102}, {"time": 2440, "pitch": 62, "duration": 4, "velocity": 102}, {"time": 2446, "pitch": 62, "duration": 2, "velocity": 114}, {"time": 2449, "pitch": 65, "duration": 2, "velocity": 100}, {"time": 2452, "pitch": 64, "duration": 2, "velocity": 117}, {"time": 2455, "pitch": 64, "duration": 2, "velocity": 97}, {"time": 2458, "pitch": 64, "duration": 2, "velocity": 94}, {"time": 2461, "pitch": 64, "duration": 5, "velocity": 105}, {"time": 2470, "pitch": 62, "duration": 2, "velocity": 111}, {"time": 2473, "pitch": 64, "duration": 2, "velocity": 108}, {"time": 2476, "pitch": 65, "duration": 2, "velocity": 94}, {"time": 2479, "pitch": 65, "duration": 2, "velocity": 89}, {"time": 2482, "pitch": 65, "duration": 2, "velocity": 94}, {"time": 2485, "pitch": 65, "duration": 6, "velocity": 100}, {"time": 2491, "pitch": 65, "duration": 2, "velocity": 100}, {"time": 2494, "pitch": 65, "duration": 2, "velocity": 100}, {"time": 2497, "pitch": 69, "duration": 2, "velocity": 108}, {"time": 2500, "pitch": 67, "duration": 2, "velocity": 105}, {"time": 2506, "pitch": 67, "duration": 2, "velocity": 114}, {"time": 2509, "pitch": 67, "duration": 2, "velocity": 100}, {"time": 2512, "pitch": 67, "duration": 5, "velocity": 108}, {"time": 2518, "pitch": 65, "duration": 3, "velocity": 105}, {"time": 2521, "pitch": 72, "duration": 36, "velocity": 108}, {"time": 2560, "pitch": 74, "duration": 2, "velocity": 111}, {"time": 2563, "pitch": 76, "duration": 11, "velocity": 111}, {"time": 2578, "pitch": 77, "duration": 10, "velocity": 114}, {"time": 2590, "pitch": 69, "duration": 4, "velocity": 114}, {"time": 2596, "pitch": 72, "duration": 5, "velocity": 114}, {"time": 2602, "pitch": 74, "duration": 2, "velocity": 97}, {"time": 2605, "pitch": 72, "duration": 6, "velocity": 114}, {"time": 2614, "pitch": 69, "duration": 2, "velocity": 117}, {"time": 2617, "pitch": 67, "duration": 2, "velocity": 105}, {"time": 2620, "pitch": 65, "duration": 4, "velocity": 105}, {"time": 2626, "pitch": 65, "duration": 4, "velocity": 105}, {"time": 2632, "pitch": 65, "duration": 5, "velocity": 108}, {"time": 2638, "pitch": 69, "duration": 5, "velocity": 111}, {"time": 2644, "pitch": 67, "duration": 5, "velocity": 108}, {"time": 2650, "pitch": 69, "duration": 2, "velocity": 100}, {"time": 2653, "pitch": 67, "duration": 6, "velocity": 111}, {"time": 2668, "pitch": 74, "duration": 3, "velocity": 108}, {"time": 2672, "pitch": 74, "duration": 4, "velocity": 97}, {"time": 2677, "pitch": 72, "duration": 1, "velocity": 105}, {"time": 2680, "pitch": 72, "duration": 3, "velocity": 111}, {"time": 2684, "pitch": 69, "duration": 3, "velocity": 111}, {"time": 2689, "pitch": 67, "duration": 2, "velocity": 105}, {"time": 2692, "pitch": 69, "duration": 3, "velocity": 114}, {"time": 2695, "pitch": 72, "duration": 9, "velocity": 102}, {"time": 2707, "pitch": 69, "duration": 3, "velocity": 105}, {"time": 2710, "pitch": 67, "duration": 2, "velocity": 108}, {"time": 2713, "pitch": 65, "duration": 3, "velocity": 111}, {"time": 2716, "pitch": 67, "duration": 4, "velocity": 108}, {"time": 2722, "pitch": 67, "duration": 2, "velocity": 105}, {"time": 2725, "pitch": 65, "duration": 2, "velocity": 105}, {"time": 2728, "pitch": 67, "duration": 5, "velocity": 111}, {"time": 2734, "pitch": 65, "duration": 2, "velocity": 108}, {"time": 2737, "pitch": 65, "duration": 3, "velocity": 105}, {"time": 2740, "pitch": 72, "duration": 4, "velocity": 117}, {"time": 2746, "pitch": 72, "duration": 4, "velocity": 114}, {"time": 2752, "pitch": 72, "duration": 2, "velocity": 111}, {"time": 2755, "pitch": 74, "duration": 2, "velocity": 102}, {"time": 2758, "pitch": 76, "duration": 7, "velocity": 114}, {"time": 2770, "pitch": 77, "duration": 8, "velocity": 108}, {"time": 2782, "pitch": 69, "duration": 4, "velocity": 108}, {"time": 2788, "pitch": 72, "duration": 5, "velocity": 108}, {"time": 2794, "pitch": 74, "duration": 2, "velocity": 100}, {"time": 2797, "pitch": 72, "duration": 5, "velocity": 117}, {"time": 2806, "pitch": 69, "duration": 2, "velocity": 105}, {"time": 2809, "pitch": 67, "duration": 2, "velocity": 108}, {"time": 2812, "pitch": 65, "duration": 5, "velocity": 108}, {"time": 2818, "pitch": 65, "duration": 2, "velocity": 108}, {"time": 2821, "pitch": 65, "duration": 8, "velocity": 111}, {"time": 2833, "pitch": 65, "duration": 2, "velocity": 105}, {"time": 2836, "pitch": 72, "duration": 5, "velocity": 108}, {"time": 2842, "pitch": 74, "duration": 2, "velocity": 100}, {"time": 2845, "pitch": 72, "duration": 13, "velocity": 108}, {"time": 2860, "pitch": 69, "duration": 3, "velocity": 108}, {"time": 2863, "pitch": 67, "duration": 2, "velocity": 97}, {"time": 2866, "pitch": 65, "duration": 11, "velocity": 111}, {"time": 2878, "pitch": 67, "duration": 3, "velocity": 102}, {"time": 2881, "pitch": 65, "duration": 2, "velocity": 105}, {"time": 2884, "pitch": 67, "duration": 4, "velocity": 105}, {"time": 2890, "pitch": 69, "duration": 2, "velocity": 108}, {"time": 2893, "pitch": 60, "duration": 6, "velocity": 105}, {"time": 2899, "pitch": 67, "duration": 11, "velocity": 108}, {"time": 2914, "pitch": 67, "duration": 10, "velocity": 111}, {"time": 2926, "pitch": 65, "duration": 5, "velocity": 117}, {"time": 2932, "pitch": 65, "duration": 34, "velocity": 105}]}, {"program": 0, "is_drum": false, "name": "PIANO", "notes": [{"time": 28, "pitch": 46, "duration": 16, "velocity": 96}, {"time": 28, "pitch": 58, "duration": 6, "velocity": 96}, {"time": 28, "pitch": 62, "duration": 6, "velocity": 92}, {"time": 28, "pitch": 65, "duration": 6, "velocity": 92}, {"time": 34, "pitch": 53, "duration": 9, "velocity": 34}, {"time": 40, "pitch": 62, "duration": 6, "velocity": 102}, {"time": 40, "pitch": 70, "duration": 9, "velocity": 102}, {"time": 46, "pitch": 53, "duration": 4, "velocity": 67}, {"time": 49, "pitch": 62, "duration": 2, "velocity": 94}, {"time": 52, "pitch": 45, "duration": 18, "velocity": 100}, {"time": 52, "pitch": 69, "duration": 7, "velocity": 100}, {"time": 58, "pitch": 52, "duration": 7, "velocity": 62}, {"time": 61, "pitch": 60, "duration": 2, "velocity": 94}, {"time": 64, "pitch": 60, "duration": 2, "velocity": 108}, {"time": 64, "pitch": 69, "duration": 5, "velocity": 100}, {"time": 67, "pitch": 52, "duration": 3, "velocity": 71}, {"time": 70, "pitch": 67, "duration": 4, "velocity": 105}, {"time": 73, "pitch": 65, "duration": 2, "velocity": 80}, {"time": 76, "pitch": 43, "duration": 2, "velocity": 94}, {"time": 76, "pitch": 67, "duration": 6, "velocity": 97}, {"time": 82, "pitch": 50, "duration": 8, "velocity": 80}, {"time": 88, "pitch": 58, "duration": 5, "velocity": 46}, {"time": 88, "pitch": 62, "duration": 8, "velocity": 94}, {"time": 88, "pitch": 70, "duration": 8, "velocity": 93}, {"time": 94, "pitch": 50, "duration": 2, "velocity": 76}, {"time": 100, "pitch": 41, "duration": 1, "velocity": 100}, {"time": 100, "pitch": 69, "duration": 10, "velocity": 100}, {"time": 103, "pitch": 53, "duration": 1, "velocity": 31}, {"time": 106, "pitch": 53, "duration": 11, "velocity": 22}, {"time": 109, "pitch": 60, "duration": 4, "velocity": 114}, {"time": 112, "pitch": 65, "duration": 4, "velocity": 97}, {"time": 112, "pitch": 69, "duration": 5, "velocity": 94}, {"time": 115, "pitch": 60, "duration": 2, "velocity": 89}, {"time": 118, "pitch": 67, "duration": 6, "velocity": 105}, {"time": 124, "pitch": 46, "duration": 15, "velocity": 85}, {"time": 124, "pitch": 65, "duration": 11, "velocity": 78}, {"time": 130, "pitch": 53, "duration": 7, "velocity": 82}, {"time": 136, "pitch": 58, "duration": 5, "velocity": 109}, {"time": 136, "pitch": 62, "duration": 6, "velocity": 105}, {"time": 136, "pitch": 65, "duration": 7, "velocity": 89}, {"time": 139, "pitch": 53, "duration": 3, "velocity": 71}, {"time": 142, "pitch": 46, "duration": 2, "velocity": 109}, {"time": 148, "pitch": 45, "duration": 16, "velocity": 100}, {"time": 148, "pitch": 57, "duration": 6, "velocity": 100}, {"time": 148, "pitch": 69, "duration": 8, "velocity": 94}, {"time": 154, "pitch": 52, "duration": 7, "velocity": 87}, {"time": 160, "pitch": 57, "duration": 2, "velocity": 108}, {"time": 160, "pitch": 69, "duration": 7, "velocity": 102}, {"time": 163, "pitch": 52, "duration": 2, "velocity": 89}, {"time": 166, "pitch": 67, "duration": 3, "velocity": 97}, {"time": 169, "pitch": 65, "duration": 3, "velocity": 87}, {"time": 172, "pitch": 43, "duration": 1, "velocity": 97}, {"time": 172, "pitch": 67, "duration": 7, "velocity": 97}, {"time": 178, "pitch": 50, "duration": 8, "velocity": 80}, {"time": 184, "pitch": 58, "duration": 5, "velocity": 90}, {"time": 184, "pitch": 62, "duration": 8, "velocity": 102}, {"time": 184, "pitch": 67, "duration": 11, "velocity": 111}, {"time": 190, "pitch": 50, "duration": 3, "velocity": 82}, {"time": 196, "pitch": 43, "duration": 16, "velocity": 102}, {"time": 196, "pitch": 55, "duration": 4, "velocity": 78}, {"time": 196, "pitch": 58, "duration": 4, "velocity": 72}, {"time": 196, "pitch": 62, "duration": 5, "velocity": 89}, {"time": 202, "pitch": 50, "duration": 7, "velocity": 67}, {"time": 208, "pitch": 62, "duration": 3, "velocity": 102}, {"time": 208, "pitch": 70, "duration": 4, "velocity": 105}, {"time": 211, "pitch": 50, "duration": 2, "velocity": 84}, {"time": 214, "pitch": 62, "duration": 3, "velocity": 84}, {"time": 214, "pitch": 67, "duration": 3, "velocity": 97}, {"time": 220, "pitch": 48, "duration": 19, "velocity": 108}, {"time": 220, "pitch": 62, "duration": 1, "velocity": 57}, {"time": 220, "pitch": 67, "duration": 10, "velocity": 105}, {"time": 226, "pitch": 55, "duration": 7, "velocity": 80}, {"time": 232, "pitch": 60, "duration": 3, "velocity": 100}, {"time": 232, "pitch": 64, "duration": 4, "velocity": 102}, {"time": 235, "pitch": 55, "duration": 5, "velocity": 82}, {"time": 238, "pitch": 60, "duration": 4, "velocity": 92}, {"time": 241, "pitch": 64, "duration": 2, "velocity": 82}, {"time": 244, "pitch": 48, "duration": 22, "velocity": 97}, {"time": 244, "pitch": 60, "duration": 21, "velocity": 80}, {"time": 244, "pitch": 64, "duration": 21, "velocity": 87}, {"time": 244, "pitch": 67, "duration": 21, "velocity": 84}, {"time": 268, "pitch": 41, "duration": 40, "velocity": 87}, {"time": 268, "pitch": 53, "duration": 11, "velocity": 78}, {"time": 268, "pitch": 57, "duration": 9, "velocity": 94}, {"time": 274, "pitch": 48, "duration": 8, "velocity": 42}, {"time": 280, "pitch": 57, "duration": 2, "velocity": 102}, {"time": 280, "pitch": 60, "duration": 2, "velocity": 92}, {"time": 286, "pitch": 48, "duration": 10, "velocity": 64}, {"time": 292, "pitch": 57, "duration": 1, "velocity": 1}, {"time": 292, "pitch": 60, "duration": 9, "velocity": 84}, {"time": 292, "pitch": 65, "duration": 7, "velocity": 89}, {"time": 298, "pitch": 48, "duration": 7, "velocity": 21}, {"time": 298, "pitch": 57, "duration": 5, "velocity": 42}, {"time": 304, "pitch": 57, "duration": 3, "velocity": 100}, {"time": 304, "pitch": 60, "duration": 3, "velocity": 108}, {"time": 304, "pitch": 65, "duration": 3, "velocity": 94}, {"time": 307, "pitch": 48, "duration": 2, "velocity": 76}, {"time": 310, "pitch": 57, "duration": 3, "velocity": 89}, {"time": 316, "pitch": 50, "duration": 27, "velocity": 67}, {"time": 316, "pitch": 57, "duration": 4, "velocity": 87}, {"time": 316, "pitch": 62, "duration": 9, "velocity": 80}, {"time": 322, "pitch": 57, "duration": 4, "velocity": 64}, {"time": 328, "pitch": 57, "duration": 3, "velocity": 108}, {"time": 328, "pitch": 65, "duration": 6, "velocity": 94}, {"time": 334, "pitch": 57, "duration": 3, "velocity": 82}, {"time": 340, "pitch": 57, "duration": 5, "velocity": 94}, {"time": 340, "pitch": 65, "duration": 5, "velocity": 84}, {"time": 346, "pitch": 50, "duration": 8, "velocity": 52}, {"time": 349, "pitch": 57, "duration": 2, "velocity": 92}, {"time": 352, "pitch": 57, "duration": 4, "velocity": 108}, {"time": 352, "pitch": 65, "duration": 4, "velocity": 102}, {"time": 355, "pitch": 50, "duration": 2, "velocity": 82}, {"time": 358, "pitch": 60, "duration": 6, "velocity": 92}, {"time": 364, "pitch": 46, "duration": 23, "velocity": 93}, {"time": 364, "pitch": 62, "duration": 8, "velocity": 80}, {"time": 370, "pitch": 53, "duration": 8, "velocity": 41}, {"time": 376, "pitch": 58, "duration": 6, "velocity": 93}, {"time": 376, "pitch": 62, "duration": 7, "velocity": 92}, {"time": 376, "pitch": 65, "duration": 7, "velocity": 84}, {"time": 382, "pitch": 53, "duration": 21, "velocity": 50}, {"time": 385, "pitch": 58, "duration": 3, "velocity": 65}, {"time": 388, "pitch": 46, "duration": 15, "velocity": 79}, {"time": 388, "pitch": 58, "duration": 9, "velocity": 48}, {"time": 388, "pitch": 62, "duration": 9, "velocity": 80}, {"time": 388, "pitch": 65, "duration": 8, "velocity": 80}, {"time": 400, "pitch": 58, "duration": 3, "velocity": 109}, {"time": 400, "pitch": 62, "duration": 4, "velocity": 100}, {"time": 400, "pitch": 65, "duration": 4, "velocity": 97}, {"time": 406, "pitch": 46, "duration": 2, "velocity": 54}, {"time": 412, "pitch": 41, "duration": 16, "velocity": 92}, {"time": 412, "pitch": 57, "duration": 8, "velocity": 89}, {"time": 412, "pitch": 65, "duration": 8, "velocity": 82}, {"time": 418, "pitch": 48, "duration": 8, "velocity": 39}, {"time": 424, "pitch": 57, "duration": 7, "velocity": 114}, {"time": 424, "pitch": 65, "duration": 8, "velocity": 105}, {"time": 430, "pitch": 41, "duration": 22, "velocity": 66}, {"time": 436, "pitch": 57, "duration": 8, "velocity": 89}, {"time": 436, "pitch": 65, "duration": 8, "velocity": 89}, {"time": 442, "pitch": 48, "duration": 6, "velocity": 51}, {"time": 448, "pitch": 57, "duration": 4, "velocity": 114}, {"time": 448, "pitch": 65, "duration": 7, "velocity": 102}, {"time": 451, "pitch": 48, "duration": 2, "velocity": 64}, {"time": 454, "pitch": 41, "duration": 4, "velocity": 71}, {"time": 460, "pitch": 46, "duration": 24, "velocity": 70}, {"time": 460, "pitch": 58, "duration": 11, "velocity": 65}, {"time": 460, "pitch": 62, "duration": 9, "velocity": 97}, {"time": 466, "pitch": 53, "duration": 8, "velocity": 46}, {"time": 472, "pitch": 58, "duration": 5, "velocity": 74}, {"time": 472, "pitch": 62, "duration": 4, "velocity": 94}, {"time": 472, "pitch": 65, "duration": 4, "velocity": 102}, {"time": 478, "pitch": 53, "duration": 8, "velocity": 51}, {"time": 481, "pitch": 58, "duration": 2, "velocity": 45}, {"time": 484, "pitch": 46, "duration": 15, "velocity": 55}, {"time": 484, "pitch": 58, "duration": 11, "velocity": 99}, {"time": 484, "pitch": 62, "duration": 6, "velocity": 92}, {"time": 484, "pitch": 70, "duration": 6, "velocity": 70}, {"time": 490, "pitch": 53, "duration": 8, "velocity": 37}, {"time": 496, "pitch": 58, "duration": 4, "velocity": 68}, {"time": 496, "pitch": 62, "duration": 4, "velocity": 78}, {"time": 496, "pitch": 65, "duration": 5, "velocity": 66}, {"time": 502, "pitch": 46, "duration": 5, "velocity": 72}, {"time": 508, "pitch": 41, "duration": 8, "velocity": 94}, {"time": 508, "pitch": 57, "duration": 4, "velocity": 92}, {"time": 508, "pitch": 60, "duration": 7, "velocity": 94}, {"time": 508, "pitch": 65, "duration": 11, "velocity": 87}, {"time": 514, "pitch": 57, "duration": 3, "velocity": 100}, {"time": 520, "pitch": 48, "duration": 6, "velocity": 100}, {"time": 520, "pitch": 55, "duration": 4, "velocity": 94}, {"time": 520, "pitch": 60, "duration": 7, "velocity": 97}, {"time": 520, "pitch": 64, "duration": 7, "velocity": 89}, {"time": 526, "pitch": 55, "duration": 1, "velocity": 40}, {"time": 532, "pitch": 50, "duration": 16, "velocity": 84}, {"time": 532, "pitch": 57, "duration": 4, "velocity": 89}, {"time": 532, "pitch": 62, "duration": 7, "velocity": 87}, {"time": 532, "pitch": 65, "duration": 8, "velocity": 89}, {"time": 538, "pitch": 57, "duration": 2, "velocity": 53}, {"time": 544, "pitch": 57, "duration": 2, "velocity": 105}, {"time": 544, "pitch": 65, "duration": 4, "velocity": 97}, {"time": 547, "pitch": 64, "duration": 3, "velocity": 100}, {"time": 550, "pitch": 62, "duration": 2, "velocity": 92}, {"time": 556, "pitch": 43, "duration": 43, "velocity": 97}, {"time": 556, "pitch": 55, "duration": 6, "velocity": 76}, {"time": 556, "pitch": 58, "duration": 6, "velocity": 70}, {"time": 556, "pitch": 62, "duration": 7, "velocity": 89}, {"time": 562, "pitch": 50, "duration": 10, "velocity": 42}, {"time": 568, "pitch": 55, "duration": 2, "velocity": 102}, {"time": 568, "pitch": 62, "duration": 2, "velocity": 92}, {"time": 580, "pitch": 55, "duration": 5, "velocity": 94}, {"time": 580, "pitch": 58, "duration": 5, "velocity": 99}, {"time": 586, "pitch": 50, "duration": 7, "velocity": 40}, {"time": 592, "pitch": 55, "duration": 3, "velocity": 108}, {"time": 592, "pitch": 62, "duration": 3, "velocity": 100}, {"time": 595, "pitch": 50, "duration": 3, "velocity": 87}, {"time": 598, "pitch": 55, "duration": 4, "velocity": 105}, {"time": 604, "pitch": 48, "duration": 22, "velocity": 94}, {"time": 604, "pitch": 55, "duration": 4, "velocity": 94}, {"time": 604, "pitch": 60, "duration": 8, "velocity": 102}, {"time": 610, "pitch": 55, "duration": 5, "velocity": 69}, {"time": 616, "pitch": 55, "duration": 2, "velocity": 97}, {"time": 616, "pitch": 60, "duration": 7, "velocity": 105}, {"time": 616, "pitch": 64, "duration": 6, "velocity": 102}, {"time": 622, "pitch": 55, "duration": 3, "velocity": 50}, {"time": 628, "pitch": 48, "duration": 23, "velocity": 100}, {"time": 628, "pitch": 55, "duration": 2, "velocity": 92}, {"time": 628, "pitch": 60, "duration": 7, "velocity": 94}, {"time": 628, "pitch": 64, "duration": 7, "velocity": 92}, {"time": 634, "pitch": 55, "duration": 3, "velocity": 69}, {"time": 640, "pitch": 55, "duration": 2, "velocity": 105}, {"time": 640, "pitch": 64, "duration": 4, "velocity": 108}, {"time": 643, "pitch": 62, "duration": 4, "velocity": 89}, {"time": 646, "pitch": 60, "duration": 5, "velocity": 100}, {"time": 652, "pitch": 41, "duration": 40, "velocity": 87}, {"time": 652, "pitch": 53, "duration": 11, "velocity": 78}, {"time": 652, "pitch": 57, "duration": 9, "velocity": 94}, {"time": 658, "pitch": 48, "duration": 8, "velocity": 42}, {"time": 664, "pitch": 57, "duration": 2, "velocity": 102}, {"time": 664, "pitch": 60, "duration": 2, "velocity": 92}, {"time": 670, "pitch": 48, "duration": 10, "velocity": 64}, {"time": 676, "pitch": 57, "duration": 1, "velocity": 1}, {"time": 676, "pitch": 60, "duration": 9, "velocity": 84}, {"time": 676, "pitch": 65, "duration": 7, "velocity": 89}, {"time": 682, "pitch": 48, "duration": 7, "velocity": 21}, {"time": 682, "pitch": 57, "duration": 5, "velocity": 42}, {"time": 688, "pitch": 57, "duration": 3, "velocity": 100}, {"time": 688, "pitch": 60, "duration": 3, "velocity": 108}, {"time": 688, "pitch": 65, "duration": 3, "velocity": 94}, {"time": 691, "pitch": 48, "duration": 2, "velocity": 76}, {"time": 694, "pitch": 57, "duration": 3, "velocity": 89}, {"time": 700, "pitch": 50, "duration": 27, "velocity": 67}, {"time": 700, "pitch": 57, "duration": 4, "velocity": 87}, {"time": 700, "pitch": 62, "duration": 9, "velocity": 80}, {"time": 706, "pitch": 57, "duration": 4, "velocity": 64}, {"time": 712, "pitch": 57, "duration": 3, "velocity": 108}, {"time": 712, "pitch": 65, "duration": 6, "velocity": 94}, {"time": 718, "pitch": 57, "duration": 3, "velocity": 82}, {"time": 724, "pitch": 57, "duration": 5, "velocity": 94}, {"time": 724, "pitch": 65, "duration": 5, "velocity": 84}, {"time": 730, "pitch": 50, "duration": 8, "velocity": 52}, {"time": 733, "pitch": 57, "duration": 2, "velocity": 92}, {"time": 736, "pitch": 57, "duration": 4, "velocity": 108}, {"time": 736, "pitch": 65, "duration": 4, "velocity": 102}, {"time": 739, "pitch": 50, "duration": 2, "velocity": 82}, {"time": 742, "pitch": 60, "duration": 6, "velocity": 92}, {"time": 748, "pitch": 46, "duration": 23, "velocity": 93}, {"time": 748, "pitch": 62, "duration": 8, "velocity": 80}, {"time": 754, "pitch": 53, "duration": 8, "velocity": 41}, {"time": 760, "pitch": 58, "duration": 6, "velocity": 93}, {"time": 760, "pitch": 62, "duration": 7, "velocity": 92}, {"time": 760, "pitch": 65, "duration": 7, "velocity": 84}, {"time": 766, "pitch": 53, "duration": 21, "velocity": 50}, {"time": 769, "pitch": 58, "duration": 3, "velocity": 65}, {"time": 772, "pitch": 46, "duration": 15, "velocity": 79}, {"time": 772, "pitch": 58, "duration": 9, "velocity": 48}, {"time": 772, "pitch": 62, "duration": 9, "velocity": 80}, {"time": 772, "pitch": 65, "duration": 8, "velocity": 80}, {"time": 784, "pitch": 58, "duration": 3, "velocity": 109}, {"time": 784, "pitch": 62, "duration": 4, "velocity": 100}, {"time": 784, "pitch": 65, "duration": 4, "velocity": 97}, {"time": 790, "pitch": 46, "duration": 2, "velocity": 54}, {"time": 796, "pitch": 41, "duration": 16, "velocity": 92}, {"time": 796, "pitch": 57, "duration": 8, "velocity": 89}, {"time": 796, "pitch": 65, "duration": 8, "velocity": 82}, {"time": 802, "pitch": 48, "duration": 8, "velocity": 39}, {"time": 808, "pitch": 57, "duration": 7, "velocity": 114}, {"time": 808, "pitch": 65, "duration": 8, "velocity": 105}, {"time": 814, "pitch": 41, "duration": 22, "velocity": 66}, {"time": 820, "pitch": 57, "duration": 8, "velocity": 89}, {"time": 820, "pitch": 65, "duration": 8, "velocity": 89}, {"time": 826, "pitch": 48, "duration": 6, "velocity": 51}, {"time": 832, "pitch": 57, "duration": 4, "velocity": 114}, {"time": 832, "pitch": 65, "duration": 7, "velocity": 102}, {"time": 835, "pitch": 48, "duration": 2, "velocity": 64}, {"time": 838, "pitch": 41, "duration": 4, "velocity": 71}, {"time": 844, "pitch": 46, "duration": 24, "velocity": 70}, {"time": 844, "pitch": 58, "duration": 11, "velocity": 65}, {"time": 844, "pitch": 62, "duration": 9, "velocity": 97}, {"time": 850, "pitch": 53, "duration": 8, "velocity": 46}, {"time": 856, "pitch": 58, "duration": 5, "velocity": 74}, {"time": 856, "pitch": 62, "duration": 4, "velocity": 94}, {"time": 856, "pitch": 65, "duration": 4, "velocity": 102}, {"time": 862, "pitch": 53, "duration": 8, "velocity": 51}, {"time": 865, "pitch": 58, "duration": 2, "velocity": 45}, {"time": 868, "pitch": 46, "duration": 15, "velocity": 55}, {"time": 868, "pitch": 58, "duration": 11, "velocity": 99}, {"time": 868, "pitch": 62, "duration": 6, "velocity": 92}, {"time": 868, "pitch": 70, "duration": 6, "velocity": 70}, {"time": 874, "pitch": 53, "duration": 8, "velocity": 37}, {"time": 880, "pitch": 58, "duration": 4, "velocity": 68}, {"time": 880, "pitch": 62, "duration": 4, "velocity": 78}, {"time": 880, "pitch": 65, "duration": 5, "velocity": 66}, {"time": 886, "pitch": 46, "duration": 5, "velocity": 72}, {"time": 892, "pitch": 41, "duration": 8, "velocity": 94}, {"time": 892, "pitch": 57, "duration": 4, "velocity": 92}, {"time": 892, "pitch": 60, "duration": 7, "velocity": 94}, {"time": 892, "pitch": 65, "duration": 11, "velocity": 87}, {"time": 898, "pitch": 57, "duration": 3, "velocity": 100}, {"time": 904, "pitch": 48, "duration": 6, "velocity": 100}, {"time": 904, "pitch": 55, "duration": 4, "velocity": 94}, {"time": 904, "pitch": 60, "duration": 7, "velocity": 97}, {"time": 904, "pitch": 64, "duration": 7, "velocity": 89}, {"time": 910, "pitch": 55, "duration": 1, "velocity": 40}, {"time": 916, "pitch": 50, "duration": 16, "velocity": 84}, {"time": 916, "pitch": 57, "duration": 4, "velocity": 89}, {"time": 916, "pitch": 62, "duration": 7, "velocity": 87}, {"time": 916, "pitch": 65, "duration": 8, "velocity": 89}, {"time": 922, "pitch": 57, "duration": 2, "velocity": 53}, {"time": 928, "pitch": 57, "duration": 2, "velocity": 105}, {"time": 928, "pitch": 65, "duration": 4, "velocity": 97}, {"time": 931, "pitch": 64, "duration": 3, "velocity": 100}, {"time": 934, "pitch": 62, "duration": 2, "velocity": 92}, {"time": 940, "pitch": 43, "duration": 22, "velocity": 89}, {"time": 940, "pitch": 55, "duration": 10, "velocity": 76}, {"time": 940, "pitch": 58, "duration": 8, "velocity": 55}, {"time": 940, "pitch": 62, "duration": 9, "velocity": 84}, {"time": 946, "pitch": 50, "duration": 8, "velocity": 94}, {"time": 952, "pitch": 55, "duration": 6, "velocity": 100}, {"time": 952, "pitch": 58, "duration": 7, "velocity": 112}, {"time": 952, "pitch": 65, "duration": 11, "velocity": 102}, {"time": 958, "pitch": 50, "duration": 4, "velocity": 87}, {"time": 961, "pitch": 55, "duration": 2, "velocity": 78}, {"time": 964, "pitch": 48, "duration": 14, "velocity": 108}, {"time": 964, "pitch": 55, "duration": 6, "velocity": 89}, {"time": 964, "pitch": 60, "duration": 7, "velocity": 97}, {"time": 970, "pitch": 52, "duration": 10, "velocity": 44}, {"time": 976, "pitch": 55, "duration": 3, "velocity": 102}, {"time": 976, "pitch": 64, "duration": 3, "velocity": 100}, {"time": 982, "pitch": 55, "duration": 2, "velocity": 92}, {"time": 982, "pitch": 60, "duration": 3, "velocity": 100}, {"time": 988, "pitch": 41, "duration": 22, "velocity": 102}, {"time": 988, "pitch": 57, "duration": 11, "velocity": 69}, {"time": 988, "pitch": 60, "duration": 11, "velocity": 92}, {"time": 988, "pitch": 67, "duration": 11, "velocity": 55}, {"time": 994, "pitch": 48, "duration": 8, "velocity": 42}, {"time": 1000, "pitch": 57, "duration": 6, "velocity": 105}, {"time": 1000, "pitch": 60, "duration": 6, "velocity": 114}, {"time": 1000, "pitch": 67, "duration": 6, "velocity": 100}, {"time": 1006, "pitch": 48, "duration": 4, "velocity": 58}, {"time": 1009, "pitch": 57, "duration": 2, "velocity": 76}, {"time": 1012, "pitch": 41, "duration": 23, "velocity": 94}, {"time": 1012, "pitch": 57, "duration": 6, "velocity": 92}, {"time": 1012, "pitch": 60, "duration": 7, "velocity": 89}, {"time": 1012, "pitch": 65, "duration": 7, "velocity": 100}, {"time": 1018, "pitch": 48, "duration": 6, "velocity": 48}, {"time": 1021, "pitch": 57, "duration": 2, "velocity": 73}, {"time": 1024, "pitch": 57, "duration": 4, "velocity": 105}, {"time": 1024, "pitch": 60, "duration": 4, "velocity": 111}, {"time": 1024, "pitch": 65, "duration": 7, "velocity": 100}, {"time": 1027, "pitch": 48, "duration": 8, "velocity": 111}, {"time": 1030, "pitch": 57, "duration": 2, "velocity": 108}, {"time": 1030, "pitch": 60, "duration": 1, "velocity": 46}, {"time": 1033, "pitch": 57, "duration": 3, "velocity": 100}, {"time": 1033, "pitch": 60, "duration": 3, "velocity": 102}, {"time": 1033, "pitch": 65, "duration": 3, "velocity": 102}, {"time": 1036, "pitch": 46, "duration": 10, "velocity": 102}, {"time": 1036, "pitch": 58, "duration": 5, "velocity": 72}, {"time": 1036, "pitch": 62, "duration": 7, "velocity": 100}, {"time": 1036, "pitch": 70, "duration": 7, "velocity": 63}, {"time": 1042, "pitch": 53, "duration": 4, "velocity": 38}, {"time": 1048, "pitch": 46, "duration": 4, "velocity": 99}, {"time": 1048, "pitch": 53, "duration": 8, "velocity": 97}, {"time": 1048, "pitch": 58, "duration": 7, "velocity": 93}, {"time": 1048, "pitch": 62, "duration": 7, "velocity": 97}, {"time": 1054, "pitch": 46, "duration": 5, "velocity": 70}, {"time": 1060, "pitch": 45, "duration": 10, "velocity": 105}, {"time": 1060, "pitch": 57, "duration": 7, "velocity": 80}, {"time": 1060, "pitch": 60, "duration": 7, "velocity": 97}, {"time": 1066, "pitch": 52, "duration": 4, "velocity": 78}, {"time": 1072, "pitch": 45, "duration": 8, "velocity": 97}, {"time": 1072, "pitch": 57, "duration": 4, "velocity": 89}, {"time": 1072, "pitch": 60, "duration": 7, "velocity": 102}, {"time": 1072, "pitch": 64, "duration": 11, "velocity": 94}, {"time": 1078, "pitch": 57, "duration": 3, "velocity": 108}, {"time": 1084, "pitch": 43, "duration": 15, "velocity": 102}, {"time": 1084, "pitch": 55, "duration": 7, "velocity": 82}, {"time": 1084, "pitch": 58, "duration": 7, "velocity": 82}, {"time": 1084, "pitch": 62, "duration": 7, "velocity": 92}, {"time": 1090, "pitch": 50, "duration": 10, "velocity": 55}, {"time": 1096, "pitch": 55, "duration": 6, "velocity": 105}, {"time": 1096, "pitch": 58, "duration": 6, "velocity": 112}, {"time": 1096, "pitch": 62, "duration": 6, "velocity": 105}, {"time": 1102, "pitch": 43, "duration": 5, "velocity": 100}, {"time": 1108, "pitch": 41, "duration": 17, "velocity": 97}, {"time": 1108, "pitch": 53, "duration": 10, "velocity": 84}, {"time": 1108, "pitch": 57, "duration": 7, "velocity": 92}, {"time": 1114, "pitch": 60, "duration": 4, "velocity": 92}, {"time": 1120, "pitch": 48, "duration": 6, "velocity": 87}, {"time": 1120, "pitch": 53, "duration": 4, "velocity": 100}, {"time": 1120, "pitch": 57, "duration": 4, "velocity": 117}, {"time": 1120, "pitch": 60, "duration": 4, "velocity": 108}, {"time": 1120, "pitch": 65, "duration": 7, "velocity": 97}, {"time": 1126, "pitch": 64, "duration": 6, "velocity": 102}, {"time": 1132, "pitch": 50, "duration": 23, "velocity": 105}, {"time": 1132, "pitch": 57, "duration": 3, "velocity": 97}, {"time": 1132, "pitch": 62, "duration": 9, "velocity": 92}, {"time": 1138, "pitch": 57, "duration": 4, "velocity": 87}, {"time": 1144, "pitch": 57, "duration": 4, "velocity": 102}, {"time": 1144, "pitch": 62, "duration": 10, "velocity": 105}, {"time": 1144, "pitch": 65, "duration": 9, "velocity": 102}, {"time": 1150, "pitch": 57, "duration": 5, "velocity": 84}, {"time": 1156, "pitch": 45, "duration": 16, "velocity": 105}, {"time": 1156, "pitch": 57, "duration": 7, "velocity": 94}, {"time": 1156, "pitch": 60, "duration": 6, "velocity": 89}, {"time": 1162, "pitch": 52, "duration": 10, "velocity": 76}, {"time": 1168, "pitch": 57, "duration": 4, "velocity": 111}, {"time": 1168, "pitch": 60, "duration": 4, "velocity": 114}, {"time": 1168, "pitch": 64, "duration": 7, "velocity": 108}, {"time": 1174, "pitch": 45, "duration": 4, "velocity": 102}, {"time": 1174, "pitch": 57, "duration": 2, "velocity": 108}, {"time": 1180, "pitch": 46, "duration": 17, "velocity": 102}, {"time": 1180, "pitch": 58, "duration": 4, "velocity": 87}, {"time": 1180, "pitch": 62, "duration": 4, "velocity": 105}, {"time": 1186, "pitch": 62, "duration": 4, "velocity": 82}, {"time": 1186, "pitch": 65, "duration": 4, "velocity": 47}, {"time": 1192, "pitch": 53, "duration": 6, "velocity": 55}, {"time": 1192, "pitch": 58, "duration": 4, "velocity": 96}, {"time": 1192, "pitch": 62, "duration": 5, "velocity": 108}, {"time": 1192, "pitch": 65, "duration": 5, "velocity": 108}, {"time": 1198, "pitch": 46, "duration": 2, "velocity": 99}, {"time": 1198, "pitch": 58, "duration": 2, "velocity": 90}, {"time": 1198, "pitch": 62, "duration": 1, "velocity": 97}, {"time": 1198, "pitch": 65, "duration": 3, "velocity": 80}, {"time": 1204, "pitch": 48, "duration": 21, "velocity": 105}, {"time": 1204, "pitch": 55, "duration": 4, "velocity": 92}, {"time": 1204, "pitch": 60, "duration": 4, "velocity": 94}, {"time": 1204, "pitch": 64, "duration": 4, "velocity": 97}, {"time": 1210, "pitch": 55, "duration": 2, "velocity": 69}, {"time": 1210, "pitch": 60, "duration": 2, "velocity": 84}, {"time": 1210, "pitch": 64, "duration": 2, "velocity": 80}, {"time": 1216, "pitch": 55, "duration": 2, "velocity": 117}, {"time": 1216, "pitch": 64, "duration": 4, "velocity": 117}, {"time": 1219, "pitch": 60, "duration": 2, "velocity": 92}, {"time": 1222, "pitch": 55, "duration": 4, "velocity": 92}, {"time": 1225, "pitch": 60, "duration": 2, "velocity": 82}, {"time": 1228, "pitch": 48, "duration": 4, "velocity": 117}, {"time": 1228, "pitch": 55, "duration": 4, "velocity": 102}, {"time": 1228, "pitch": 60, "duration": 4, "velocity": 108}, {"time": 1234, "pitch": 48, "duration": 2, "velocity": 73}, {"time": 1234, "pitch": 55, "duration": 2, "velocity": 64}, {"time": 1234, "pitch": 60, "duration": 2, "velocity": 80}, {"time": 1234, "pitch": 64, "duration": 2, "velocity": 80}, {"time": 1240, "pitch": 48, "duration": 11, "velocity": 108}, {"time": 1240, "pitch": 55, "duration": 2, "velocity": 97}, {"time": 1240, "pitch": 60, "duration": 4, "velocity": 102}, {"time": 1240, "pitch": 64, "duration": 6, "velocity": 89}, {"time": 1243, "pitch": 55, "duration": 6, "velocity": 97}, {"time": 1246, "pitch": 60, "duration": 4, "velocity": 78}, {"time": 1249, "pitch": 64, "duration": 2, "velocity": 82}, {"time": 1252, "pitch": 48, "duration": 5, "velocity": 111}, {"time": 1252, "pitch": 55, "duration": 2, "velocity": 100}, {"time": 1252, "pitch": 60, "duration": 2, "velocity": 105}, {"time": 1252, "pitch": 64, "duration": 8, "velocity": 102}, {"time": 1255, "pitch": 55, "duration": 5, "velocity": 102}, {"time": 1255, "pitch": 60, "duration": 5, "velocity": 52}, {"time": 1258, "pitch": 48, "duration": 18, "velocity": 97}, {"time": 1261, "pitch": 55, "duration": 2, "velocity": 94}, {"time": 1264, "pitch": 55, "duration": 5, "velocity": 114}, {"time": 1264, "pitch": 60, "duration": 11, "velocity": 117}, {"time": 1264, "pitch": 64, "duration": 11, "velocity": 111}, {"time": 1270, "pitch": 55, "duration": 5, "velocity": 108}, {"time": 1276, "pitch": 41, "duration": 2, "velocity": 105}, {"time": 1276, "pitch": 57, "duration": 2, "velocity": 84}, {"time": 1276, "pitch": 60, "duration": 2, "velocity": 84}, {"time": 1276, "pitch": 65, "duration": 2, "velocity": 97}, {"time": 1282, "pitch": 41, "duration": 13, "velocity": 108}, {"time": 1282, "pitch": 57, "duration": 10, "velocity": 102}, {"time": 1282, "pitch": 60, "duration": 10, "velocity": 105}, {"time": 1282, "pitch": 65, "duration": 11, "velocity": 100}, {"time": 1294, "pitch": 57, "duration": 3, "velocity": 82}, {"time": 1294, "pitch": 64, "duration": 4, "velocity": 89}, {"time": 1300, "pitch": 50, "duration": 17, "velocity": 97}, {"time": 1300, "pitch": 57, "duration": 4, "velocity": 84}, {"time": 1300, "pitch": 62, "duration": 9, "velocity": 89}, {"time": 1306, "pitch": 57, "duration": 3, "velocity": 82}, {"time": 1312, "pitch": 57, "duration": 3, "velocity": 108}, {"time": 1312, "pitch": 62, "duration": 6, "velocity": 111}, {"time": 1312, "pitch": 65, "duration": 8, "velocity": 100}, {"time": 1318, "pitch": 57, "duration": 2, "velocity": 66}, {"time": 1324, "pitch": 46, "duration": 16, "velocity": 99}, {"time": 1324, "pitch": 58, "duration": 8, "velocity": 96}, {"time": 1324, "pitch": 62, "duration": 10, "velocity": 89}, {"time": 1330, "pitch": 53, "duration": 12, "velocity": 25}, {"time": 1336, "pitch": 58, "duration": 6, "velocity": 99}, {"time": 1336, "pitch": 62, "duration": 11, "velocity": 102}, {"time": 1336, "pitch": 65, "duration": 9, "velocity": 87}, {"time": 1342, "pitch": 46, "duration": 4, "velocity": 54}, {"time": 1348, "pitch": 48, "duration": 14, "velocity": 66}, {"time": 1348, "pitch": 55, "duration": 3, "velocity": 84}, {"time": 1348, "pitch": 60, "duration": 8, "velocity": 94}, {"time": 1348, "pitch": 64, "duration": 8, "velocity": 94}, {"time": 1354, "pitch": 55, "duration": 3, "velocity": 55}, {"time": 1360, "pitch": 55, "duration": 2, "velocity": 111}, {"time": 1360, "pitch": 60, "duration": 3, "velocity": 114}, {"time": 1360, "pitch": 64, "duration": 5, "velocity": 108}, {"time": 1363, "pitch": 48, "duration": 2, "velocity": 89}, {"time": 1366, "pitch": 55, "duration": 5, "velocity": 108}, {"time": 1366, "pitch": 64, "duration": 2, "velocity": 20}, {"time": 1369, "pitch": 60, "duration": 2, "velocity": 62}, {"time": 1369, "pitch": 61, "duration": 1, "velocity": 11}, {"time": 1372, "pitch": 46, "duration": 13, "velocity": 85}, {"time": 1372, "pitch": 58, "duration": 10, "velocity": 77}, {"time": 1372, "pitch": 62, "duration": 10, "velocity": 97}, {"time": 1378, "pitch": 53, "duration": 8, "velocity": 58}, {"time": 1384, "pitch": 58, "duration": 5, "velocity": 105}, {"time": 1384, "pitch": 62, "duration": 4, "velocity": 108}, {"time": 1384, "pitch": 70, "duration": 5, "velocity": 74}, {"time": 1390, "pitch": 46, "duration": 2, "velocity": 112}, {"time": 1396, "pitch": 45, "duration": 16, "velocity": 100}, {"time": 1396, "pitch": 57, "duration": 9, "velocity": 97}, {"time": 1396, "pitch": 60, "duration": 7, "velocity": 102}, {"time": 1402, "pitch": 52, "duration": 8, "velocity": 66}, {"time": 1408, "pitch": 57, "duration": 4, "velocity": 111}, {"time": 1408, "pitch": 60, "duration": 3, "velocity": 114}, {"time": 1408, "pitch": 64, "duration": 4, "velocity": 105}, {"time": 1411, "pitch": 52, "duration": 2, "velocity": 97}, {"time": 1414, "pitch": 57, "duration": 2, "velocity": 102}, {"time": 1420, "pitch": 43, "duration": 21, "velocity": 102}, {"time": 1420, "pitch": 55, "duration": 8, "velocity": 100}, {"time": 1420, "pitch": 58, "duration": 7, "velocity": 96}, {"time": 1426, "pitch": 50, "duration": 8, "velocity": 80}, {"time": 1432, "pitch": 55, "duration": 3, "velocity": 100}, {"time": 1432, "pitch": 58, "duration": 3, "velocity": 112}, {"time": 1432, "pitch": 62, "duration": 4, "velocity": 100}, {"time": 1435, "pitch": 50, "duration": 5, "velocity": 89}, {"time": 1438, "pitch": 55, "duration": 5, "velocity": 100}, {"time": 1438, "pitch": 62, "duration": 1, "velocity": 64}, {"time": 1441, "pitch": 58, "duration": 2, "velocity": 105}, {"time": 1444, "pitch": 48, "duration": 21, "velocity": 105}, {"time": 1444, "pitch": 55, "duration": 4, "velocity": 94}, {"time": 1444, "pitch": 60, "duration": 7, "velocity": 102}, {"time": 1450, "pitch": 55, "duration": 2, "velocity": 53}, {"time": 1453, "pitch": 55, "duration": 2, "velocity": 94}, {"time": 1453, "pitch": 64, "duration": 2, "velocity": 100}, {"time": 1456, "pitch": 55, "duration": 2, "velocity": 111}, {"time": 1456, "pitch": 64, "duration": 4, "velocity": 102}, {"time": 1462, "pitch": 55, "duration": 4, "velocity": 105}, {"time": 1462, "pitch": 60, "duration": 3, "velocity": 114}, {"time": 1468, "pitch": 41, "duration": 2, "velocity": 105}, {"time": 1468, "pitch": 57, "duration": 2, "velocity": 84}, {"time": 1468, "pitch": 60, "duration": 2, "velocity": 84}, {"time": 1468, "pitch": 65, "duration": 2, "velocity": 97}, {"time": 1474, "pitch": 41, "duration": 13, "velocity": 108}, {"time": 1474, "pitch": 57, "duration": 10, "velocity": 102}, {"time": 1474, "pitch": 60, "duration": 10, "velocity": 105}, {"time": 1474, "pitch": 65, "duration": 11, "velocity": 100}, {"time": 1486, "pitch": 57, "duration": 3, "velocity": 82}, {"time": 1486, "pitch": 64, "duration": 4, "velocity": 89}, {"time": 1492, "pitch": 50, "duration": 17, "velocity": 97}, {"time": 1492, "pitch": 57, "duration": 4, "velocity": 84}, {"time": 1492, "pitch": 62, "duration": 9, "velocity": 89}, {"time": 1498, "pitch": 57, "duration": 3, "velocity": 82}, {"time": 1504, "pitch": 57, "duration": 3, "velocity": 108}, {"time": 1504, "pitch": 62, "duration": 6, "velocity": 111}, {"time": 1504, "pitch": 65, "duration": 8, "velocity": 100}, {"time": 1510, "pitch": 57, "duration": 2, "velocity": 66}, {"time": 1516, "pitch": 46, "duration": 16, "velocity": 99}, {"time": 1516, "pitch": 58, "duration": 8, "velocity": 96}, {"time": 1516, "pitch": 62, "duration": 10, "velocity": 89}, {"time": 1522, "pitch": 53, "duration": 12, "velocity": 25}, {"time": 1528, "pitch": 58, "duration": 6, "velocity": 99}, {"time": 1528, "pitch": 62, "duration": 11, "velocity": 102}, {"time": 1528, "pitch": 65, "duration": 9, "velocity": 87}, {"time": 1534, "pitch": 46, "duration": 4, "velocity": 54}, {"time": 1540, "pitch": 48, "duration": 14, "velocity": 66}, {"time": 1540, "pitch": 55, "duration": 3, "velocity": 84}, {"time": 1540, "pitch": 60, "duration": 8, "velocity": 94}, {"time": 1540, "pitch": 64, "duration": 8, "velocity": 94}, {"time": 1546, "pitch": 55, "duration": 3, "velocity": 55}, {"time": 1552, "pitch": 55, "duration": 2, "velocity": 111}, {"time": 1552, "pitch": 60, "duration": 3, "velocity": 114}, {"time": 1552, "pitch": 64, "duration": 5, "velocity": 108}, {"time": 1555, "pitch": 48, "duration": 2, "velocity": 89}, {"time": 1558, "pitch": 55, "duration": 5, "velocity": 108}, {"time": 1558, "pitch": 64, "duration": 2, "velocity": 20}, {"time": 1561, "pitch": 60, "duration": 2, "velocity": 62}, {"time": 1561, "pitch": 61, "duration": 1, "velocity": 11}, {"time": 1564, "pitch": 46, "duration": 13, "velocity": 85}, {"time": 1564, "pitch": 58, "duration": 10, "velocity": 77}, {"time": 1564, "pitch": 62, "duration": 10, "velocity": 97}, {"time": 1570, "pitch": 53, "duration": 8, "velocity": 58}, {"time": 1576, "pitch": 58, "duration": 5, "velocity": 105}, {"time": 1576, "pitch": 62, "duration": 4, "velocity": 108}, {"time": 1576, "pitch": 70, "duration": 5, "velocity": 74}, {"time": 1582, "pitch": 46, "duration": 2, "velocity": 112}, {"time": 1588, "pitch": 45, "duration": 11, "velocity": 97}, {"time": 1588, "pitch": 57, "duration": 6, "velocity": 102}, {"time": 1588, "pitch": 60, "duration": 6, "velocity": 108}, {"time": 1594, "pitch": 52, "duration": 5, "velocity": 84}, {"time": 1600, "pitch": 50, "duration": 7, "velocity": 105}, {"time": 1600, "pitch": 57, "duration": 3, "velocity": 94}, {"time": 1600, "pitch": 62, "duration": 6, "velocity": 97}, {"time": 1600, "pitch": 65, "duration": 7, "velocity": 94}, {"time": 1606, "pitch": 57, "duration": 2, "velocity": 92}, {"time": 1612, "pitch": 43, "duration": 11, "velocity": 100}, {"time": 1612, "pitch": 55, "duration": 7, "velocity": 89}, {"time": 1612, "pitch": 58, "duration": 7, "velocity": 105}, {"time": 1612, "pitch": 62, "duration": 7, "velocity": 89}, {"time": 1618, "pitch": 50, "duration": 4, "velocity": 55}, {"time": 1624, "pitch": 48, "duration": 6, "velocity": 97}, {"time": 1624, "pitch": 55, "duration": 3, "velocity": 92}, {"time": 1624, "pitch": 60, "duration": 7, "velocity": 94}, {"time": 1624, "pitch": 64, "duration": 7, "velocity": 97}, {"time": 1630, "pitch": 55, "duration": 2, "velocity": 94}, {"time": 1636, "pitch": 41, "duration": 20, "velocity": 97}, {"time": 1636, "pitch": 57, "duration": 9, "velocity": 87}, {"time": 1636, "pitch": 60, "duration": 10, "velocity": 89}, {"time": 1636, "pitch": 65, "duration": 8, "velocity": 92}, {"time": 1642, "pitch": 48, "duration": 8, "velocity": 46}, {"time": 1648, "pitch": 57, "duration": 5, "velocity": 108}, {"time": 1648, "pitch": 60, "duration": 8, "velocity": 105}, {"time": 1654, "pitch": 48, "duration": 6, "velocity": 55}, {"time": 1660, "pitch": 41, "duration": 49, "velocity": 92}, {"time": 1660, "pitch": 57, "duration": 3, "velocity": 82}, {"time": 1660, "pitch": 60, "duration": 9, "velocity": 80}, {"time": 1660, "pitch": 65, "duration": 9, "velocity": 92}, {"time": 1666, "pitch": 57, "duration": 8, "velocity": 80}, {"time": 1672, "pitch": 60, "duration": 6, "velocity": 105}, {"time": 1672, "pitch": 65, "duration": 7, "velocity": 100}, {"time": 1678, "pitch": 57, "duration": 3, "velocity": 67}, {"time": 1684, "pitch": 57, "duration": 3, "velocity": 114}, {"time": 1684, "pitch": 65, "duration": 8, "velocity": 100}, {"time": 1696, "pitch": 57, "duration": 4, "velocity": 108}, {"time": 1696, "pitch": 60, "duration": 11, "velocity": 114}, {"time": 1702, "pitch": 57, "duration": 6, "velocity": 111}, {"time": 1708, "pitch": 46, "duration": 16, "velocity": 96}, {"time": 1708, "pitch": 58, "duration": 6, "velocity": 96}, {"time": 1708, "pitch": 62, "duration": 6, "velocity": 92}, {"time": 1708, "pitch": 65, "duration": 6, "velocity": 92}, {"time": 1714, "pitch": 53, "duration": 9, "velocity": 34}, {"time": 1720, "pitch": 62, "duration": 6, "velocity": 102}, {"time": 1720, "pitch": 70, "duration": 9, "velocity": 102}, {"time": 1726, "pitch": 53, "duration": 4, "velocity": 67}, {"time": 1729, "pitch": 62, "duration": 2, "velocity": 94}, {"time": 1732, "pitch": 45, "duration": 18, "velocity": 100}, {"time": 1732, "pitch": 69, "duration": 7, "velocity": 100}, {"time": 1738, "pitch": 52, "duration": 7, "velocity": 62}, {"time": 1741, "pitch": 60, "duration": 2, "velocity": 94}, {"time": 1744, "pitch": 60, "duration": 2, "velocity": 108}, {"time": 1744, "pitch": 69, "duration": 5, "velocity": 100}, {"time": 1747, "pitch": 52, "duration": 3, "velocity": 71}, {"time": 1750, "pitch": 67, "duration": 4, "velocity": 105}, {"time": 1753, "pitch": 65, "duration": 2, "velocity": 80}, {"time": 1756, "pitch": 43, "duration": 2, "velocity": 94}, {"time": 1756, "pitch": 67, "duration": 6, "velocity": 97}, {"time": 1762, "pitch": 50, "duration": 8, "velocity": 80}, {"time": 1768, "pitch": 58, "duration": 5, "velocity": 46}, {"time": 1768, "pitch": 62, "duration": 8, "velocity": 94}, {"time": 1768, "pitch": 70, "duration": 8, "velocity": 93}, {"time": 1774, "pitch": 50, "duration": 2, "velocity": 76}, {"time": 1780, "pitch": 41, "duration": 1, "velocity": 100}, {"time": 1780, "pitch": 69, "duration": 10, "velocity": 100}, {"time": 1783, "pitch": 53, "duration": 1, "velocity": 31}, {"time": 1786, "pitch": 53, "duration": 11, "velocity": 22}, {"time": 1789, "pitch": 60, "duration": 4, "velocity": 114}, {"time": 1792, "pitch": 65, "duration": 4, "velocity": 97}, {"time": 1792, "pitch": 69, "duration": 5, "velocity": 94}, {"time": 1795, "pitch": 60, "duration": 2, "velocity": 89}, {"time": 1798, "pitch": 67, "duration": 6, "velocity": 105}, {"time": 1804, "pitch": 46, "duration": 15, "velocity": 85}, {"time": 1804, "pitch": 65, "duration": 11, "velocity": 78}, {"time": 1810, "pitch": 53, "duration": 7, "velocity": 82}, {"time": 1816, "pitch": 58, "duration": 5, "velocity": 109}, {"time": 1816, "pitch": 62, "duration": 6, "velocity": 105}, {"time": 1816, "pitch": 65, "duration": 7, "velocity": 89}, {"time": 1819, "pitch": 53, "duration": 3, "velocity": 71}, {"time": 1822, "pitch": 46, "duration": 2, "velocity": 109}, {"time": 1828, "pitch": 45, "duration": 16, "velocity": 100}, {"time": 1828, "pitch": 57, "duration": 6, "velocity": 100}, {"time": 1828, "pitch": 69, "duration": 8, "velocity": 94}, {"time": 1834, "pitch": 52, "duration": 7, "velocity": 87}, {"time": 1840, "pitch": 57, "duration": 2, "velocity": 108}, {"time": 1840, "pitch": 69, "duration": 7, "velocity": 102}, {"time": 1843, "pitch": 52, "duration": 2, "velocity": 89}, {"time": 1846, "pitch": 67, "duration": 3, "velocity": 97}, {"time": 1849, "pitch": 65, "duration": 3, "velocity": 87}, {"time": 1852, "pitch": 43, "duration": 1, "velocity": 97}, {"time": 1852, "pitch": 67, "duration": 7, "velocity": 97}, {"time": 1858, "pitch": 50, "duration": 8, "velocity": 80}, {"time": 1864, "pitch": 58, "duration": 5, "velocity": 90}, {"time": 1864, "pitch": 62, "duration": 8, "velocity": 102}, {"time": 1864, "pitch": 67, "duration": 11, "velocity": 111}, {"time": 1870, "pitch": 50, "duration": 3, "velocity": 82}, {"time": 1876, "pitch": 43, "duration": 16, "velocity": 102}, {"time": 1876, "pitch": 55, "duration": 4, "velocity": 78}, {"time": 1876, "pitch": 58, "duration": 4, "velocity": 72}, {"time": 1876, "pitch": 62, "duration": 5, "velocity": 89}, {"time": 1882, "pitch": 50, "duration": 7, "velocity": 67}, {"time": 1888, "pitch": 62, "duration": 3, "velocity": 102}, {"time": 1888, "pitch": 70, "duration": 4, "velocity": 105}, {"time": 1891, "pitch": 50, "duration": 2, "velocity": 84}, {"time": 1894, "pitch": 62, "duration": 3, "velocity": 84}, {"time": 1894, "pitch": 67, "duration": 3, "velocity": 97}, {"time": 1900, "pitch": 48, "duration": 19, "velocity": 108}, {"time": 1900, "pitch": 62, "duration": 1, "velocity": 57}, {"time": 1900, "pitch": 67, "duration": 10, "velocity": 105}, {"time": 1906, "pitch": 55, "duration": 7, "velocity": 80}, {"time": 1912, "pitch": 60, "duration": 3, "velocity": 100}, {"time": 1912, "pitch": 64, "duration": 4, "velocity": 102}, {"time": 1915, "pitch": 55, "duration": 5, "velocity": 82}, {"time": 1918, "pitch": 60, "duration": 4, "velocity": 92}, {"time": 1921, "pitch": 64, "duration": 2, "velocity": 82}, {"time": 1924, "pitch": 48, "duration": 22, "velocity": 97}, {"time": 1924, "pitch": 60, "duration": 21, "velocity": 80}, {"time": 1924, "pitch": 64, "duration": 21, "velocity": 87}, {"time": 1924, "pitch": 67, "duration": 21, "velocity": 84}, {"time": 1948, "pitch": 41, "duration": 40, "velocity": 87}, {"time": 1948, "pitch": 53, "duration": 11, "velocity": 78}, {"time": 1948, "pitch": 57, "duration": 9, "velocity": 94}, {"time": 1954, "pitch": 48, "duration": 8, "velocity": 42}, {"time": 1960, "pitch": 57, "duration": 2, "velocity": 102}, {"time": 1960, "pitch": 60, "duration": 2, "velocity": 92}, {"time": 1966, "pitch": 48, "duration": 10, "velocity": 64}, {"time": 1972, "pitch": 57, "duration": 1, "velocity": 1}, {"time": 1972, "pitch": 60, "duration": 9, "velocity": 84}, {"time": 1972, "pitch": 65, "duration": 7, "velocity": 89}, {"time": 1978, "pitch": 48, "duration": 7, "velocity": 21}, {"time": 1978, "pitch": 57, "duration": 5, "velocity": 42}, {"time": 1984, "pitch": 57, "duration": 3, "velocity": 100}, {"time": 1984, "pitch": 60, "duration": 3, "velocity": 108}, {"time": 1984, "pitch": 65, "duration": 3, "velocity": 94}, {"time": 1987, "pitch": 48, "duration": 2, "velocity": 76}, {"time": 1990, "pitch": 57, "duration": 3, "velocity": 89}, {"time": 1996, "pitch": 50, "duration": 27, "velocity": 67}, {"time": 1996, "pitch": 57, "duration": 4, "velocity": 87}, {"time": 1996, "pitch": 62, "duration": 9, "velocity": 80}, {"time": 2002, "pitch": 57, "duration": 4, "velocity": 64}, {"time": 2008, "pitch": 57, "duration": 3, "velocity": 108}, {"time": 2008, "pitch": 65, "duration": 6, "velocity": 94}, {"time": 2014, "pitch": 57, "duration": 3, "velocity": 82}, {"time": 2020, "pitch": 57, "duration": 5, "velocity": 94}, {"time": 2020, "pitch": 65, "duration": 5, "velocity": 84}, {"time": 2026, "pitch": 50, "duration": 8, "velocity": 52}, {"time": 2029, "pitch": 57, "duration": 2, "velocity": 92}, {"time": 2032, "pitch": 57, "duration": 4, "velocity": 108}, {"time": 2032, "pitch": 65, "duration": 4, "velocity": 102}, {"time": 2035, "pitch": 50, "duration": 2, "velocity": 82}, {"time": 2038, "pitch": 60, "duration": 6, "velocity": 92}, {"time": 2044, "pitch": 46, "duration": 23, "velocity": 93}, {"time": 2044, "pitch": 62, "duration": 8, "velocity": 80}, {"time": 2050, "pitch": 53, "duration": 8, "velocity": 41}, {"time": 2056, "pitch": 58, "duration": 6, "velocity": 93}, {"time": 2056, "pitch": 62, "duration": 7, "velocity": 92}, {"time": 2056, "pitch": 65, "duration": 7, "velocity": 84}, {"time": 2062, "pitch": 53, "duration": 21, "velocity": 50}, {"time": 2065, "pitch": 58, "duration": 3, "velocity": 65}, {"time": 2068, "pitch": 46, "duration": 15, "velocity": 79}, {"time": 2068, "pitch": 58, "duration": 9, "velocity": 48}, {"time": 2068, "pitch": 62, "duration": 9, "velocity": 80}, {"time": 2068, "pitch": 65, "duration": 8, "velocity": 80}, {"time": 2080, "pitch": 58, "duration": 3, "velocity": 109}, {"time": 2080, "pitch": 62, "duration": 4, "velocity": 100}, {"time": 2080, "pitch": 65, "duration": 4, "velocity": 97}, {"time": 2086, "pitch": 46, "duration": 2, "velocity": 54}, {"time": 2092, "pitch": 41, "duration": 16, "velocity": 92}, {"time": 2092, "pitch": 57, "duration": 8, "velocity": 89}, {"time": 2092, "pitch": 65, "duration": 8, "velocity": 82}, {"time": 2098, "pitch": 48, "duration": 8, "velocity": 39}, {"time": 2104, "pitch": 57, "duration": 7, "velocity": 114}, {"time": 2104, "pitch": 65, "duration": 8, "velocity": 105}, {"time": 2110, "pitch": 41, "duration": 22, "velocity": 66}, {"time": 2116, "pitch": 57, "duration": 8, "velocity": 89}, {"time": 2116, "pitch": 65, "duration": 8, "velocity": 89}, {"time": 2122, "pitch": 48, "duration": 6, "velocity": 51}, {"time": 2128, "pitch": 57, "duration": 4, "velocity": 114}, {"time": 2128, "pitch": 65, "duration": 7, "velocity": 102}, {"time": 2131, "pitch": 48, "duration": 2, "velocity": 64}, {"time": 2134, "pitch": 41, "duration": 4, "velocity": 71}, {"time": 2140, "pitch": 46, "duration": 24, "velocity": 70}, {"time": 2140, "pitch": 58, "duration": 11, "velocity": 65}, {"time": 2140, "pitch": 62, "duration": 9, "velocity": 97}, {"time": 2146, "pitch": 53, "duration": 8, "velocity": 46}, {"time": 2152, "pitch": 58, "duration": 5, "velocity": 74}, {"time": 2152, "pitch": 62, "duration": 4, "velocity": 94}, {"time": 2152, "pitch": 65, "duration": 4, "velocity": 102}, {"time": 2158, "pitch": 53, "duration": 8, "velocity": 51}, {"time": 2161, "pitch": 58, "duration": 2, "velocity": 45}, {"time": 2164, "pitch": 46, "duration": 15, "velocity": 55}, {"time": 2164, "pitch": 58, "duration": 11, "velocity": 99}, {"time": 2164, "pitch": 62, "duration": 6, "velocity": 92}, {"time": 2164, "pitch": 70, "duration": 6, "velocity": 70}, {"time": 2170, "pitch": 53, "duration": 8, "velocity": 37}, {"time": 2176, "pitch": 58, "duration": 4, "velocity": 68}, {"time": 2176, "pitch": 62, "duration": 4, "velocity": 78}, {"time": 2176, "pitch": 65, "duration": 5, "velocity": 66}, {"time": 2182, "pitch": 46, "duration": 5, "velocity": 72}, {"time": 2188, "pitch": 41, "duration": 8, "velocity": 94}, {"time": 2188, "pitch": 57, "duration": 4, "velocity": 92}, {"time": 2188, "pitch": 60, "duration": 7, "velocity": 94}, {"time": 2188, "pitch": 65, "duration": 11, "velocity": 87}, {"time": 2194, "pitch": 57, "duration": 3, "velocity": 100}, {"time": 2200, "pitch": 48, "duration": 6, "velocity": 100}, {"time": 2200, "pitch": 55, "duration": 4, "velocity": 94}, {"time": 2200, "pitch": 60, "duration": 7, "velocity": 97}, {"time": 2200, "pitch": 64, "duration": 7, "velocity": 89}, {"time": 2206, "pitch": 55, "duration": 1, "velocity": 40}, {"time": 2212, "pitch": 50, "duration": 16, "velocity": 84}, {"time": 2212, "pitch": 57, "duration": 4, "velocity": 89}, {"time": 2212, "pitch": 62, "duration": 7, "velocity": 87}, {"time": 2212, "pitch": 65, "duration": 8, "velocity": 89}, {"time": 2218, "pitch": 57, "duration": 2, "velocity": 53}, {"time": 2224, "pitch": 57, "duration": 2, "velocity": 105}, {"time": 2224, "pitch": 65, "duration": 4, "velocity": 97}, {"time": 2227, "pitch": 64, "duration": 3, "velocity": 100}, {"time": 2230, "pitch": 62, "duration": 2, "velocity": 92}, {"time": 2236, "pitch": 43, "duration": 22, "velocity": 89}, {"time": 2236, "pitch": 55, "duration": 10, "velocity": 76}, {"time": 2236, "pitch": 58, "duration": 8, "velocity": 55}, {"time": 2236, "pitch": 62, "duration": 9, "velocity": 84}, {"time": 2242, "pitch": 50, "duration": 8, "velocity": 94}, {"time": 2248, "pitch": 55, "duration": 6, "velocity": 100}, {"time": 2248, "pitch": 58, "duration": 7, "velocity": 112}, {"time": 2248, "pitch": 65, "duration": 11, "velocity": 102}, {"time": 2254, "pitch": 50, "duration": 4, "velocity": 87}, {"time": 2257, "pitch": 55, "duration": 2, "velocity": 78}, {"time": 2260, "pitch": 48, "duration": 14, "velocity": 108}, {"time": 2260, "pitch": 55, "duration": 6, "velocity": 89}, {"time": 2260, "pitch": 60, "duration": 7, "velocity": 97}, {"time": 2266, "pitch": 52, "duration": 10, "velocity": 44}, {"time": 2272, "pitch": 55, "duration": 3, "velocity": 102}, {"time": 2272, "pitch": 64, "duration": 3, "velocity": 100}, {"time": 2278, "pitch": 55, "duration": 2, "velocity": 92}, {"time": 2278, "pitch": 60, "duration": 3, "velocity": 100}, {"time": 2284, "pitch": 41, "duration": 22, "velocity": 102}, {"time": 2284, "pitch": 57, "duration": 11, "velocity": 69}, {"time": 2284, "pitch": 60, "duration": 11, "velocity": 92}, {"time": 2284, "pitch": 67, "duration": 11, "velocity": 55}, {"time": 2290, "pitch": 48, "duration": 8, "velocity": 42}, {"time": 2296, "pitch": 57, "duration": 6, "velocity": 105}, {"time": 2296, "pitch": 60, "duration": 6, "velocity": 114}, {"time": 2296, "pitch": 67, "duration": 6, "velocity": 100}, {"time": 2302, "pitch": 48, "duration": 4, "velocity": 58}, {"time": 2305, "pitch": 57, "duration": 2, "velocity": 76}, {"time": 2308, "pitch": 41, "duration": 23, "velocity": 94}, {"time": 2308, "pitch": 57, "duration": 6, "velocity": 92}, {"time": 2308, "pitch": 60, "duration": 7, "velocity": 89}, {"time": 2308, "pitch": 65, "duration": 7, "velocity": 100}, {"time": 2314, "pitch": 48, "duration": 6, "velocity": 48}, {"time": 2317, "pitch": 57, "duration": 2, "velocity": 73}, {"time": 2320, "pitch": 57, "duration": 4, "velocity": 105}, {"time": 2320, "pitch": 60, "duration": 4, "velocity": 111}, {"time": 2320, "pitch": 65, "duration": 7, "velocity": 100}, {"time": 2323, "pitch": 48, "duration": 8, "velocity": 111}, {"time": 2326, "pitch": 57, "duration": 2, "velocity": 108}, {"time": 2326, "pitch": 60, "duration": 1, "velocity": 46}, {"time": 2329, "pitch": 57, "duration": 3, "velocity": 100}, {"time": 2329, "pitch": 60, "duration": 3, "velocity": 102}, {"time": 2329, "pitch": 65, "duration": 3, "velocity": 102}, {"time": 2332, "pitch": 46, "duration": 10, "velocity": 102}, {"time": 2332, "pitch": 58, "duration": 5, "velocity": 72}, {"time": 2332, "pitch": 62, "duration": 7, "velocity": 100}, {"time": 2332, "pitch": 70, "duration": 7, "velocity": 63}, {"time": 2338, "pitch": 53, "duration": 4, "velocity": 38}, {"time": 2344, "pitch": 46, "duration": 4, "velocity": 99}, {"time": 2344, "pitch": 53, "duration": 8, "velocity": 97}, {"time": 2344, "pitch": 58, "duration": 7, "velocity": 93}, {"time": 2344, "pitch": 62, "duration": 7, "velocity": 97}, {"time": 2350, "pitch": 46, "duration": 5, "velocity": 70}, {"time": 2356, "pitch": 45, "duration": 10, "velocity": 105}, {"time": 2356, "pitch": 57, "duration": 7, "velocity": 80}, {"time": 2356, "pitch": 60, "duration": 7, "velocity": 97}, {"time": 2362, "pitch": 52, "duration": 4, "velocity": 78}, {"time": 2368, "pitch": 45, "duration": 8, "velocity": 97}, {"time": 2368, "pitch": 57, "duration": 4, "velocity": 89}, {"time": 2368, "pitch": 60, "duration": 7, "velocity": 102}, {"time": 2368, "pitch": 64, "duration": 11, "velocity": 94}, {"time": 2374, "pitch": 57, "duration": 3, "velocity": 108}, {"time": 2380, "pitch": 43, "duration": 15, "velocity": 102}, {"time": 2380, "pitch": 55, "duration": 7, "velocity": 82}, {"time": 2380, "pitch": 58, "duration": 7, "velocity": 82}, {"time": 2380, "pitch": 62, "duration": 7, "velocity": 92}, {"time": 2386, "pitch": 50, "duration": 10, "velocity": 55}, {"time": 2392, "pitch": 55, "duration": 6, "velocity": 105}, {"time": 2392, "pitch": 58, "duration": 6, "velocity": 112}, {"time": 2392, "pitch": 62, "duration": 6, "velocity": 105}, {"time": 2398, "pitch": 43, "duration": 5, "velocity": 100}, {"time": 2404, "pitch": 41, "duration": 17, "velocity": 97}, {"time": 2404, "pitch": 53, "duration": 10, "velocity": 84}, {"time": 2404, "pitch": 57, "duration": 7, "velocity": 92}, {"time": 2410, "pitch": 60, "duration": 4, "velocity": 92}, {"time": 2416, "pitch": 48, "duration": 6, "velocity": 87}, {"time": 2416, "pitch": 53, "duration": 4, "velocity": 100}, {"time": 2416, "pitch": 57, "duration": 4, "velocity": 117}, {"time": 2416, "pitch": 60, "duration": 4, "velocity": 108}, {"time": 2416, "pitch": 65, "duration": 7, "velocity": 97}, {"time": 2422, "pitch": 64, "duration": 6, "velocity": 102}, {"time": 2428, "pitch": 50, "duration": 23, "velocity": 105}, {"time": 2428, "pitch": 57, "duration": 3, "velocity": 97}, {"time": 2428, "pitch": 62, "duration": 9, "velocity": 92}, {"time": 2434, "pitch": 57, "duration": 4, "velocity": 87}, {"time": 2440, "pitch": 57, "duration": 4, "velocity": 102}, {"time": 2440, "pitch": 62, "duration": 10, "velocity": 105}, {"time": 2440, "pitch": 65, "duration": 9, "velocity": 102}, {"time": 2446, "pitch": 57, "duration": 5, "velocity": 84}, {"time": 2452, "pitch": 45, "duration": 16, "velocity": 105}, {"time": 2452, "pitch": 57, "duration": 7, "velocity": 94}, {"time": 2452, "pitch": 60, "duration": 6, "velocity": 89}, {"time": 2458, "pitch": 52, "duration": 10, "velocity": 76}, {"time": 2464, "pitch": 57, "duration": 4, "velocity": 111}, {"time": 2464, "pitch": 60, "duration": 4, "velocity": 114}, {"time": 2464, "pitch": 64, "duration": 7, "velocity": 108}, {"time": 2470, "pitch": 45, "duration": 4, "velocity": 102}, {"time": 2470, "pitch": 57, "duration": 2, "velocity": 108}, {"time": 2476, "pitch": 46, "duration": 17, "velocity": 102}, {"time": 2476, "pitch": 58, "duration": 4, "velocity": 87}, {"time": 2476, "pitch": 62, "duration": 4, "velocity": 105}, {"time": 2482, "pitch": 62, "duration": 4, "velocity": 82}, {"time": 2482, "pitch": 65, "duration": 4, "velocity": 47}, {"time": 2488, "pitch": 53, "duration": 6, "velocity": 55}, {"time": 2488, "pitch": 58, "duration": 4, "velocity": 96}, {"time": 2488, "pitch": 62, "duration": 5, "velocity": 108}, {"time": 2488, "pitch": 65, "duration": 5, "velocity": 108}, {"time": 2494, "pitch": 46, "duration": 2, "velocity": 99}, {"time": 2494, "pitch": 58, "duration": 2, "velocity": 90}, {"time": 2494, "pitch": 62, "duration": 1, "velocity": 97}, {"time": 2494, "pitch": 65, "duration": 3, "velocity": 80}, {"time": 2500, "pitch": 48, "duration": 21, "velocity": 105}, {"time": 2500, "pitch": 55, "duration": 4, "velocity": 92}, {"time": 2500, "pitch": 60, "duration": 4, "velocity": 94}, {"time": 2500, "pitch": 64, "duration": 4, "velocity": 97}, {"time": 2506, "pitch": 55, "duration": 2, "velocity": 69}, {"time": 2506, "pitch": 60, "duration": 2, "velocity": 84}, {"time": 2506, "pitch": 64, "duration": 2, "velocity": 80}, {"time": 2512, "pitch": 55, "duration": 2, "velocity": 117}, {"time": 2512, "pitch": 64, "duration": 4, "velocity": 117}, {"time": 2515, "pitch": 60, "duration": 2, "velocity": 92}, {"time": 2518, "pitch": 55, "duration": 4, "velocity": 92}, {"time": 2521, "pitch": 60, "duration": 2, "velocity": 82}, {"time": 2524, "pitch": 48, "duration": 4, "velocity": 117}, {"time": 2524, "pitch": 55, "duration": 4, "velocity": 102}, {"time": 2524, "pitch": 60, "duration": 4, "velocity": 108}, {"time": 2530, "pitch": 48, "duration": 2, "velocity": 73}, {"time": 2530, "pitch": 55, "duration": 2, "velocity": 64}, {"time": 2530, "pitch": 60, "duration": 2, "velocity": 80}, {"time": 2530, "pitch": 64, "duration": 2, "velocity": 80}, {"time": 2536, "pitch": 48, "duration": 11, "velocity": 108}, {"time": 2536, "pitch": 55, "duration": 2, "velocity": 97}, {"time": 2536, "pitch": 60, "duration": 4, "velocity": 102}, {"time": 2536, "pitch": 64, "duration": 6, "velocity": 89}, {"time": 2539, "pitch": 55, "duration": 6, "velocity": 97}, {"time": 2542, "pitch": 60, "duration": 4, "velocity": 78}, {"time": 2545, "pitch": 64, "duration": 2, "velocity": 82}, {"time": 2548, "pitch": 48, "duration": 5, "velocity": 111}, {"time": 2548, "pitch": 55, "duration": 2, "velocity": 100}, {"time": 2548, "pitch": 60, "duration": 2, "velocity": 105}, {"time": 2548, "pitch": 64, "duration": 8, "velocity": 102}, {"time": 2551, "pitch": 55, "duration": 5, "velocity": 102}, {"time": 2551, "pitch": 60, "duration": 5, "velocity": 52}, {"time": 2554, "pitch": 48, "duration": 18, "velocity": 97}, {"time": 2557, "pitch": 55, "duration": 2, "velocity": 94}, {"time": 2560, "pitch": 55, "duration": 5, "velocity": 114}, {"time": 2560, "pitch": 60, "duration": 11, "velocity": 117}, {"time": 2560, "pitch": 64, "duration": 11, "velocity": 111}, {"time": 2566, "pitch": 55, "duration": 5, "velocity": 108}, {"time": 2572, "pitch": 41, "duration": 2, "velocity": 105}, {"time": 2572, "pitch": 57, "duration": 2, "velocity": 84}, {"time": 2572, "pitch": 60, "duration": 2, "velocity": 84}, {"time": 2572, "pitch": 65, "duration": 2, "velocity": 97}, {"time": 2578, "pitch": 41, "duration": 13, "velocity": 108}, {"time": 2578, "pitch": 57, "duration": 10, "velocity": 102}, {"time": 2578, "pitch": 60, "duration": 10, "velocity": 105}, {"time": 2578, "pitch": 65, "duration": 11, "velocity": 100}, {"time": 2590, "pitch": 57, "duration": 3, "velocity": 82}, {"time": 2590, "pitch": 64, "duration": 4, "velocity": 89}, {"time": 2596, "pitch": 50, "duration": 17, "velocity": 97}, {"time": 2596, "pitch": 57, "duration": 4, "velocity": 84}, {"time": 2596, "pitch": 62, "duration": 9, "velocity": 89}, {"time": 2602, "pitch": 57, "duration": 3, "velocity": 82}, {"time": 2608, "pitch": 57, "duration": 3, "velocity": 108}, {"time": 2608, "pitch": 62, "duration": 6, "velocity": 111}, {"time": 2608, "pitch": 65, "duration": 8, "velocity": 100}, {"time": 2614, "pitch": 57, "duration": 2, "velocity": 66}, {"time": 2620, "pitch": 46, "duration": 16, "velocity": 99}, {"time": 2620, "pitch": 58, "duration": 8, "velocity": 96}, {"time": 2620, "pitch": 62, "duration": 10, "velocity": 89}, {"time": 2626, "pitch": 53, "duration": 12, "velocity": 25}, {"time": 2632, "pitch": 58, "duration": 6, "velocity": 99}, {"time": 2632, "pitch": 62, "duration": 11, "velocity": 102}, {"time": 2632, "pitch": 65, "duration": 9, "velocity": 87}, {"time": 2638, "pitch": 46, "duration": 4, "velocity": 54}, {"time": 2644, "pitch": 48, "duration": 14, "velocity": 66}, {"time": 2644, "pitch": 55, "duration": 3, "velocity": 84}, {"time": 2644, "pitch": 60, "duration": 8, "velocity": 94}, {"time": 2644, "pitch": 64, "duration": 8, "velocity": 94}, {"time": 2650, "pitch": 55, "duration": 3, "velocity": 55}, {"time": 2656, "pitch": 55, "duration": 2, "velocity": 111}, {"time": 2656, "pitch": 60, "duration": 3, "velocity": 114}, {"time": 2656, "pitch": 64, "duration": 5, "velocity": 108}, {"time": 2659, "pitch": 48, "duration": 2, "velocity": 89}, {"time": 2662, "pitch": 55, "duration": 5, "velocity": 108}, {"time": 2662, "pitch": 64, "duration": 2, "velocity": 20}, {"time": 2665, "pitch": 60, "duration": 2, "velocity": 62}, {"time": 2665, "pitch": 61, "duration": 1, "velocity": 11}, {"time": 2668, "pitch": 46, "duration": 13, "velocity": 85}, {"time": 2668, "pitch": 58, "duration": 10, "velocity": 77}, {"time": 2668, "pitch": 62, "duration": 10, "velocity": 97}, {"time": 2674, "pitch": 53, "duration": 8, "velocity": 58}, {"time": 2680, "pitch": 58, "duration": 5, "velocity": 105}, {"time": 2680, "pitch": 62, "duration": 4, "velocity": 108}, {"time": 2680, "pitch": 70, "duration": 5, "velocity": 74}, {"time": 2686, "pitch": 46, "duration": 2, "velocity": 112}, {"time": 2692, "pitch": 45, "duration": 16, "velocity": 100}, {"time": 2692, "pitch": 57, "duration": 9, "velocity": 97}, {"time": 2692, "pitch": 60, "duration": 7, "velocity": 102}, {"time": 2698, "pitch": 52, "duration": 8, "velocity": 66}, {"time": 2704, "pitch": 57, "duration": 4, "velocity": 111}, {"time": 2704, "pitch": 60, "duration": 3, "velocity": 114}, {"time": 2704, "pitch": 64, "duration": 4, "velocity": 105}, {"time": 2707, "pitch": 52, "duration": 2, "velocity": 97}, {"time": 2710, "pitch": 57, "duration": 2, "velocity": 102}, {"time": 2716, "pitch": 43, "duration": 21, "velocity": 102}, {"time": 2716, "pitch": 55, "duration": 8, "velocity": 100}, {"time": 2716, "pitch": 58, "duration": 7, "velocity": 96}, {"time": 2722, "pitch": 50, "duration": 8, "velocity": 80}, {"time": 2728, "pitch": 55, "duration": 3, "velocity": 100}, {"time": 2728, "pitch": 58, "duration": 3, "velocity": 112}, {"time": 2728, "pitch": 62, "duration": 4, "velocity": 100}, {"time": 2731, "pitch": 50, "duration": 5, "velocity": 89}, {"time": 2734, "pitch": 55, "duration": 5, "velocity": 100}, {"time": 2734, "pitch": 62, "duration": 1, "velocity": 64}, {"time": 2737, "pitch": 58, "duration": 2, "velocity": 105}, {"time": 2740, "pitch": 48, "duration": 21, "velocity": 105}, {"time": 2740, "pitch": 55, "duration": 4, "velocity": 94}, {"time": 2740, "pitch": 60, "duration": 7, "velocity": 102}, {"time": 2746, "pitch": 55, "duration": 2, "velocity": 53}, {"time": 2749, "pitch": 55, "duration": 2, "velocity": 94}, {"time": 2749, "pitch": 64, "duration": 2, "velocity": 100}, {"time": 2752, "pitch": 55, "duration": 2, "velocity": 111}, {"time": 2752, "pitch": 64, "duration": 4, "velocity": 102}, {"time": 2758, "pitch": 55, "duration": 4, "velocity": 105}, {"time": 2758, "pitch": 60, "duration": 3, "velocity": 114}, {"time": 2764, "pitch": 41, "duration": 2, "velocity": 105}, {"time": 2764, "pitch": 57, "duration": 2, "velocity": 84}, {"time": 2764, "pitch": 60, "duration": 2, "velocity": 84}, {"time": 2764, "pitch": 65, "duration": 2, "velocity": 97}, {"time": 2770, "pitch": 41, "duration": 13, "velocity": 108}, {"time": 2770, "pitch": 57, "duration": 10, "velocity": 102}, {"time": 2770, "pitch": 60, "duration": 10, "velocity": 105}, {"time": 2770, "pitch": 65, "duration": 11, "velocity": 100}, {"time": 2782, "pitch": 57, "duration": 3, "velocity": 82}, {"time": 2782, "pitch": 64, "duration": 4, "velocity": 89}, {"time": 2788, "pitch": 50, "duration": 17, "velocity": 97}, {"time": 2788, "pitch": 57, "duration": 4, "velocity": 84}, {"time": 2788, "pitch": 62, "duration": 9, "velocity": 89}, {"time": 2794, "pitch": 57, "duration": 3, "velocity": 82}, {"time": 2800, "pitch": 57, "duration": 3, "velocity": 108}, {"time": 2800, "pitch": 62, "duration": 6, "velocity": 111}, {"time": 2800, "pitch": 65, "duration": 8, "velocity": 100}, {"time": 2806, "pitch": 57, "duration": 2, "velocity": 66}, {"time": 2812, "pitch": 46, "duration": 16, "velocity": 99}, {"time": 2812, "pitch": 58, "duration": 8, "velocity": 96}, {"time": 2812, "pitch": 62, "duration": 10, "velocity": 89}, {"time": 2818, "pitch": 53, "duration": 12, "velocity": 25}, {"time": 2824, "pitch": 58, "duration": 6, "velocity": 99}, {"time": 2824, "pitch": 62, "duration": 11, "velocity": 102}, {"time": 2824, "pitch": 65, "duration": 9, "velocity": 87}, {"time": 2830, "pitch": 46, "duration": 4, "velocity": 54}, {"time": 2836, "pitch": 48, "duration": 14, "velocity": 66}, {"time": 2836, "pitch": 55, "duration": 3, "velocity": 84}, {"time": 2836, "pitch": 60, "duration": 8, "velocity": 94}, {"time": 2836, "pitch": 64, "duration": 8, "velocity": 94}, {"time": 2842, "pitch": 55, "duration": 3, "velocity": 55}, {"time": 2848, "pitch": 55, "duration": 2, "velocity": 111}, {"time": 2848, "pitch": 60, "duration": 3, "velocity": 114}, {"time": 2848, "pitch": 64, "duration": 5, "velocity": 108}, {"time": 2851, "pitch": 48, "duration": 2, "velocity": 89}, {"time": 2854, "pitch": 55, "duration": 5, "velocity": 108}, {"time": 2854, "pitch": 64, "duration": 2, "velocity": 20}, {"time": 2857, "pitch": 60, "duration": 2, "velocity": 62}, {"time": 2857, "pitch": 61, "duration": 1, "velocity": 11}, {"time": 2860, "pitch": 46, "duration": 13, "velocity": 85}, {"time": 2860, "pitch": 58, "duration": 10, "velocity": 77}, {"time": 2860, "pitch": 62, "duration": 10, "velocity": 97}, {"time": 2866, "pitch": 53, "duration": 8, "velocity": 58}, {"time": 2872, "pitch": 58, "duration": 5, "velocity": 105}, {"time": 2872, "pitch": 62, "duration": 4, "velocity": 108}, {"time": 2872, "pitch": 70, "duration": 5, "velocity": 74}, {"time": 2878, "pitch": 46, "duration": 2, "velocity": 112}, {"time": 2884, "pitch": 45, "duration": 11, "velocity": 97}, {"time": 2884, "pitch": 57, "duration": 6, "velocity": 102}, {"time": 2884, "pitch": 60, "duration": 6, "velocity": 108}, {"time": 2890, "pitch": 52, "duration": 5, "velocity": 84}, {"time": 2896, "pitch": 50, "duration": 7, "velocity": 105}, {"time": 2896, "pitch": 57, "duration": 3, "velocity": 94}, {"time": 2896, "pitch": 62, "duration": 6, "velocity": 97}, {"time": 2896, "pitch": 65, "duration": 7, "velocity": 94}, {"time": 2902, "pitch": 57, "duration": 2, "velocity": 92}, {"time": 2908, "pitch": 43, "duration": 11, "velocity": 100}, {"time": 2908, "pitch": 55, "duration": 7, "velocity": 89}, {"time": 2908, "pitch": 58, "duration": 7, "velocity": 105}, {"time": 2908, "pitch": 62, "duration": 7, "velocity": 89}, {"time": 2914, "pitch": 50, "duration": 4, "velocity": 55}, {"time": 2920, "pitch": 48, "duration": 6, "velocity": 97}, {"time": 2920, "pitch": 55, "duration": 3, "velocity": 92}, {"time": 2920, "pitch": 60, "duration": 7, "velocity": 94}, {"time": 2920, "pitch": 64, "duration": 7, "velocity": 97}, {"time": 2926, "pitch": 55, "duration": 2, "velocity": 94}, {"time": 2932, "pitch": 41, "duration": 20, "velocity": 97}, {"time": 2932, "pitch": 57, "duration": 9, "velocity": 87}, {"time": 2932, "pitch": 60, "duration": 10, "velocity": 89}, {"time": 2932, "pitch": 65, "duration": 8, "velocity": 92}, {"time": 2938, "pitch": 48, "duration": 8, "velocity": 46}, {"time": 2944, "pitch": 57, "duration": 5, "velocity": 108}, {"time": 2944, "pitch": 60, "duration": 8, "velocity": 105}, {"time": 2950, "pitch": 48, "duration": 6, "velocity": 55}, {"time": 2956, "pitch": 41, "duration": 49, "velocity": 92}, {"time": 2956, "pitch": 57, "duration": 3, "velocity": 82}, {"time": 2956, "pitch": 60, "duration": 9, "velocity": 80}, {"time": 2956, "pitch": 65, "duration": 9, "velocity": 92}, {"time": 2962, "pitch": 57, "duration": 8, "velocity": 80}, {"time": 2968, "pitch": 60, "duration": 6, "velocity": 105}, {"time": 2968, "pitch": 65, "duration": 7, "velocity": 100}, {"time": 2974, "pitch": 57, "duration": 3, "velocity": 67}, {"time": 2980, "pitch": 57, "duration": 3, "velocity": 114}, {"time": 2980, "pitch": 65, "duration": 8, "velocity": 100}, {"time": 2992, "pitch": 57, "duration": 4, "velocity": 108}, {"time": 2992, "pitch": 60, "duration": 11, "velocity": 114}, {"time": 2998, "pitch": 57, "duration": 6, "velocity": 111}, {"time": 3004, "pitch": 46, "duration": 16, "velocity": 96}, {"time": 3004, "pitch": 58, "duration": 6, "velocity": 96}, {"time": 3004, "pitch": 62, "duration": 6, "velocity": 92}, {"time": 3004, "pitch": 65, "duration": 6, "velocity": 92}, {"time": 3010, "pitch": 53, "duration": 9, "velocity": 34}, {"time": 3016, "pitch": 62, "duration": 6, "velocity": 102}, {"time": 3016, "pitch": 70, "duration": 9, "velocity": 102}, {"time": 3022, "pitch": 53, "duration": 4, "velocity": 67}, {"time": 3025, "pitch": 62, "duration": 2, "velocity": 94}, {"time": 3028, "pitch": 45, "duration": 18, "velocity": 100}, {"time": 3028, "pitch": 69, "duration": 7, "velocity": 100}, {"time": 3034, "pitch": 52, "duration": 7, "velocity": 62}, {"time": 3037, "pitch": 60, "duration": 2, "velocity": 94}, {"time": 3040, "pitch": 60, "duration": 2, "velocity": 108}, {"time": 3040, "pitch": 69, "duration": 5, "velocity": 100}, {"time": 3043, "pitch": 52, "duration": 3, "velocity": 71}, {"time": 3046, "pitch": 67, "duration": 4, "velocity": 105}, {"time": 3049, "pitch": 65, "duration": 2, "velocity": 80}, {"time": 3052, "pitch": 43, "duration": 2, "velocity": 94}, {"time": 3052, "pitch": 67, "duration": 6, "velocity": 97}, {"time": 3058, "pitch": 50, "duration": 8, "velocity": 80}, {"time": 3064, "pitch": 58, "duration": 5, "velocity": 46}, {"time": 3064, "pitch": 62, "duration": 8, "velocity": 94}, {"time": 3064, "pitch": 70, "duration": 8, "velocity": 93}, {"time": 3070, "pitch": 50, "duration": 2, "velocity": 76}, {"time": 3076, "pitch": 41, "duration": 1, "velocity": 100}, {"time": 3076, "pitch": 69, "duration": 10, "velocity": 100}, {"time": 3079, "pitch": 53, "duration": 1, "velocity": 31}, {"time": 3082, "pitch": 53, "duration": 11, "velocity": 22}, {"time": 3085, "pitch": 60, "duration": 4, "velocity": 114}, {"time": 3088, "pitch": 65, "duration": 4, "velocity": 97}, {"time": 3088, "pitch": 69, "duration": 5, "velocity": 94}, {"time": 3091, "pitch": 60, "duration": 2, "velocity": 89}, {"time": 3094, "pitch": 67, "duration": 6, "velocity": 105}, {"time": 3100, "pitch": 46, "duration": 15, "velocity": 85}, {"time": 3100, "pitch": 65, "duration": 11, "velocity": 78}, {"time": 3106, "pitch": 53, "duration": 7, "velocity": 82}, {"time": 3112, "pitch": 58, "duration": 5, "velocity": 109}, {"time": 3112, "pitch": 62, "duration": 6, "velocity": 105}, {"time": 3112, "pitch": 65, "duration": 7, "velocity": 89}, {"time": 3115, "pitch": 53, "duration": 3, "velocity": 71}, {"time": 3118, "pitch": 46, "duration": 2, "velocity": 109}, {"time": 3124, "pitch": 45, "duration": 16, "velocity": 100}, {"time": 3124, "pitch": 57, "duration": 6, "velocity": 100}, {"time": 3124, "pitch": 69, "duration": 8, "velocity": 94}, {"time": 3130, "pitch": 52, "duration": 7, "velocity": 87}, {"time": 3136, "pitch": 57, "duration": 2, "velocity": 108}, {"time": 3136, "pitch": 69, "duration": 7, "velocity": 102}, {"time": 3139, "pitch": 52, "duration": 2, "velocity": 89}, {"time": 3142, "pitch": 67, "duration": 3, "velocity": 97}, {"time": 3145, "pitch": 65, "duration": 3, "velocity": 87}, {"time": 3148, "pitch": 43, "duration": 1, "velocity": 97}, {"time": 3148, "pitch": 67, "duration": 7, "velocity": 97}, {"time": 3154, "pitch": 50, "duration": 8, "velocity": 80}, {"time": 3160, "pitch": 58, "duration": 5, "velocity": 90}, {"time": 3160, "pitch": 62, "duration": 8, "velocity": 102}, {"time": 3160, "pitch": 67, "duration": 11, "velocity": 111}, {"time": 3166, "pitch": 50, "duration": 3, "velocity": 82}, {"time": 3172, "pitch": 43, "duration": 16, "velocity": 102}, {"time": 3172, "pitch": 55, "duration": 4, "velocity": 78}, {"time": 3172, "pitch": 58, "duration": 4, "velocity": 72}, {"time": 3172, "pitch": 62, "duration": 5, "velocity": 89}, {"time": 3178, "pitch": 50, "duration": 7, "velocity": 67}, {"time": 3184, "pitch": 62, "duration": 3, "velocity": 102}, {"time": 3184, "pitch": 70, "duration": 4, "velocity": 105}, {"time": 3187, "pitch": 50, "duration": 2, "velocity": 84}, {"time": 3190, "pitch": 62, "duration": 3, "velocity": 84}, {"time": 3190, "pitch": 67, "duration": 3, "velocity": 97}, {"time": 3196, "pitch": 46, "duration": 16, "velocity": 96}, {"time": 3196, "pitch": 58, "duration": 6, "velocity": 96}, {"time": 3196, "pitch": 62, "duration": 6, "velocity": 92}, {"time": 3196, "pitch": 65, "duration": 6, "velocity": 92}, {"time": 3202, "pitch": 53, "duration": 9, "velocity": 34}, {"time": 3208, "pitch": 62, "duration": 6, "velocity": 102}, {"time": 3208, "pitch": 70, "duration": 9, "velocity": 102}, {"time": 3214, "pitch": 53, "duration": 4, "velocity": 67}, {"time": 3217, "pitch": 62, "duration": 2, "velocity": 94}, {"time": 3220, "pitch": 45, "duration": 18, "velocity": 100}, {"time": 3220, "pitch": 69, "duration": 7, "velocity": 100}, {"time": 3226, "pitch": 52, "duration": 7, "velocity": 62}, {"time": 3229, "pitch": 60, "duration": 2, "velocity": 94}, {"time": 3232, "pitch": 60, "duration": 2, "velocity": 108}, {"time": 3232, "pitch": 69, "duration": 5, "velocity": 100}, {"time": 3235, "pitch": 52, "duration": 3, "velocity": 71}, {"time": 3238, "pitch": 67, "duration": 4, "velocity": 105}, {"time": 3241, "pitch": 65, "duration": 2, "velocity": 80}, {"time": 3244, "pitch": 43, "duration": 2, "velocity": 94}, {"time": 3244, "pitch": 67, "duration": 6, "velocity": 97}, {"time": 3250, "pitch": 50, "duration": 8, "velocity": 80}, {"time": 3256, "pitch": 58, "duration": 5, "velocity": 46}, {"time": 3256, "pitch": 62, "duration": 8, "velocity": 94}, {"time": 3256, "pitch": 70, "duration": 8, "velocity": 93}, {"time": 3262, "pitch": 50, "duration": 2, "velocity": 76}, {"time": 3268, "pitch": 41, "duration": 1, "velocity": 100}, {"time": 3268, "pitch": 69, "duration": 10, "velocity": 100}, {"time": 3271, "pitch": 53, "duration": 1, "velocity": 31}, {"time": 3274, "pitch": 53, "duration": 11, "velocity": 22}, {"time": 3277, "pitch": 60, "duration": 4, "velocity": 114}, {"time": 3280, "pitch": 65, "duration": 4, "velocity": 97}, {"time": 3280, "pitch": 69, "duration": 5, "velocity": 94}, {"time": 3283, "pitch": 60, "duration": 2, "velocity": 89}, {"time": 3286, "pitch": 67, "duration": 6, "velocity": 105}, {"time": 3292, "pitch": 46, "duration": 15, "velocity": 85}, {"time": 3292, "pitch": 65, "duration": 11, "velocity": 78}, {"time": 3298, "pitch": 53, "duration": 7, "velocity": 82}, {"time": 3304, "pitch": 58, "duration": 5, "velocity": 109}, {"time": 3304, "pitch": 62, "duration": 6, "velocity": 105}, {"time": 3304, "pitch": 65, "duration": 7, "velocity": 89}, {"time": 3307, "pitch": 53, "duration": 3, "velocity": 71}, {"time": 3310, "pitch": 46, "duration": 2, "velocity": 109}, {"time": 3316, "pitch": 45, "duration": 16, "velocity": 100}, {"time": 3316, "pitch": 57, "duration": 6, "velocity": 100}, {"time": 3316, "pitch": 69, "duration": 8, "velocity": 94}, {"time": 3322, "pitch": 52, "duration": 7, "velocity": 87}, {"time": 3328, "pitch": 57, "duration": 2, "velocity": 108}, {"time": 3328, "pitch": 69, "duration": 7, "velocity": 102}, {"time": 3331, "pitch": 52, "duration": 2, "velocity": 89}, {"time": 3334, "pitch": 67, "duration": 3, "velocity": 97}, {"time": 3337, "pitch": 65, "duration": 3, "velocity": 87}, {"time": 3340, "pitch": 43, "duration": 1, "velocity": 97}, {"time": 3340, "pitch": 67, "duration": 7, "velocity": 97}, {"time": 3346, "pitch": 50, "duration": 8, "velocity": 80}, {"time": 3352, "pitch": 58, "duration": 5, "velocity": 90}, {"time": 3352, "pitch": 62, "duration": 8, "velocity": 102}, {"time": 3352, "pitch": 67, "duration": 11, "velocity": 111}, {"time": 3358, "pitch": 50, "duration": 3, "velocity": 82}, {"time": 3364, "pitch": 43, "duration": 16, "velocity": 102}, {"time": 3364, "pitch": 55, "duration": 4, "velocity": 78}, {"time": 3364, "pitch": 58, "duration": 4, "velocity": 72}, {"time": 3364, "pitch": 62, "duration": 5, "velocity": 89}, {"time": 3370, "pitch": 50, "duration": 7, "velocity": 67}, {"time": 3376, "pitch": 62, "duration": 3, "velocity": 102}, {"time": 3376, "pitch": 70, "duration": 4, "velocity": 105}, {"time": 3379, "pitch": 50, "duration": 2, "velocity": 84}, {"time": 3382, "pitch": 62, "duration": 3, "velocity": 84}, {"time": 3382, "pitch": 67, "duration": 3, "velocity": 97}, {"time": 3388, "pitch": 48, "duration": 19, "velocity": 108}, {"time": 3388, "pitch": 62, "duration": 1, "velocity": 57}, {"time": 3388, "pitch": 67, "duration": 10, "velocity": 105}, {"time": 3394, "pitch": 55, "duration": 7, "velocity": 80}, {"time": 3400, "pitch": 60, "duration": 3, "velocity": 100}, {"time": 3400, "pitch": 64, "duration": 4, "velocity": 102}, {"time": 3403, "pitch": 55, "duration": 5, "velocity": 82}, {"time": 3406, "pitch": 60, "duration": 4, "velocity": 92}, {"time": 3409, "pitch": 64, "duration": 2, "velocity": 82}, {"time": 3412, "pitch": 48, "duration": 22, "velocity": 97}, {"time": 3412, "pitch": 60, "duration": 21, "velocity": 80}, {"time": 3412, "pitch": 64, "duration": 21, "velocity": 87}, {"time": 3412, "pitch": 67, "duration": 21, "velocity": 84}, {"time": 3434, "pitch": 41, "duration": 29, "velocity": 92}, {"time": 3436, "pitch": 53, "duration": 31, "velocity": 50}, {"time": 3436, "pitch": 48, "duration": 26, "velocity": 52}, {"time": 3438, "pitch": 57, "duration": 30, "velocity": 62}, {"time": 3439, "pitch": 60, "duration": 29, "velocity": 44}, {"time": 3439, "pitch": 65, "duration": 29, "velocity": 66}], "annotations": [{"time": 32, "annotation": {"number": 64, "value": 127}, "group": "control_change"}, {"time": 51, "annotation": {"number": 64, "value": 0}, "group": "control_change"}, {"time": 53, "annotation": {"number": 64, "value": 127}, "group": "control_change"}, {"time": 73, "annotation": {"number": 64, "value": 0}, "group": "control_change"}, {"time": 76, "annotation": {"number": 64, "value": 127}, "group": "control_change"}, {"time": 99, "annotation": {"number": 64, "value": 0}, "group": "control_change"}, {"time": 101, "annotation": {"number": 64, "value": 127}, "group": "control_change"}, {"time": 123, "annotation": {"number": 64, "value": 0}, "group": "control_change"}, {"time": 126, "annotation": {"number": 64, "value": 127}, "group": "control_change"}, {"time": 148, "annotation": {"number": 64, "value": 0}, "group": "control_change"}, {"time": 152, "annotation": {"number": 64, "value": 127}, "group": "control_change"}, {"time": 170, "annotation": {"number": 64, "value": 0}, "group": "control_change"}, {"time": 173, "annotation": {"number": 64, "value": 127}, "group": "control_change"}, {"time": 197, "annotation": {"number": 64, "value": 127}, "group": "control_change"}, {"time": 220, "annotation": {"number": 64, "value": 0}, "group": "control_change"}, {"time": 222, "annotation": {"number": 64, "value": 127}, "group": "control_change"}, {"time": 246, "annotation": {"number": 64, "value": 0}, "group": "control_change"}, {"time": 275, "annotation": {"number": 64, "value": 127}, "group": "control_change"}, {"time": 316, "annotation": {"number": 64, "value": 0}, "group": "control_change"}, {"time": 321, "annotation": {"number": 64, "value": 127}, "group": "control_change"}, {"time": 352, "annotation": {"number": 64, "value": 0}, "group": "control_change"}, {"time": 353, "annotation": {"number": 64, "value": 127}, "group": "control_change"}, {"time": 364, "annotation": {"number": 64, "value": 0}, "group": "control_change"}, {"time": 366, "annotation": {"number": 64, "value": 127}, "group": "control_change"}, {"time": 389, "annotation": {"number": 64, "value": 0}, "group": "control_change"}, {"time": 390, "annotation": {"number": 64, "value": 127}, "group": "control_change"}, {"time": 411, "annotation": {"number": 64, "value": 0}, "group": "control_change"}, {"time": 413, "annotation": {"number": 64, "value": 127}, "group": "control_change"}, {"time": 461, "annotation": {"number": 64, "value": 0}, "group": "control_change"}, {"time": 465, "annotation": {"number": 64, "value": 127}, "group": "control_change"}, {"time": 508, "annotation": {"number": 64, "value": 0}, "group": "control_change"}, {"time": 509, "annotation": {"number": 64, "value": 127}, "group": "control_change"}, {"time": 520, "annotation": {"number": 64, "value": 0}, "group": "control_change"}, {"time": 522, "annotation": {"number": 64, "value": 127}, "group": "control_change"}, {"time": 532, "annotation": {"number": 64, "value": 0}, "group": "control_change"}, {"time": 536, "annotation": {"number": 64, "value": 127}, "group": "control_change"}, {"time": 555, "annotation": {"number": 64, "value": 0}, "group": "control_change"}, {"time": 562, "annotation": {"number": 64, "value": 127}, "group": "control_change"}, {"time": 603, "annotation": {"number": 64, "value": 0}, "group": "control_change"}, {"time": 609, "annotation": {"number": 64, "value": 127}, "group": "control_change"}, {"time": 628, "annotation": {"number": 64, "value": 0}, "group": "control_change"}, {"time": 629, "annotation": {"number": 64, "value": 127}, "group": "control_change"}, {"time": 650, "annotation": {"number": 64, "value": 0}, "group": "control_change"}, {"time": 659, "annotation": {"number": 64, "value": 127}, "group": "control_change"}, {"time": 700, "annotation": {"number": 64, "value": 0}, "group": "control_change"}, {"time": 705, "annotation": {"number": 64, "value": 127}, "group": "control_change"}, {"time": 736, "annotation": {"number": 64, "value": 0}, "group": "control_change"}, {"time": 737, "annotation": {"number": 64, "value": 127}, "group": "control_change"}, {"time": 748, "annotation": {"number": 64, "value": 0}, "group": "control_change"}, {"time": 750, "annotation": {"number": 64, "value": 127}, "group": "control_change"}, {"time": 773, "annotation": {"number": 64, "value": 0}, "group": "control_change"}, {"time": 774, "annotation": {"number": 64, "value": 127}, "group": "control_change"}, {"time": 795, "annotation": {"number": 64, "value": 0}, "group": "control_change"}, {"time": 797, "annotation": {"number": 64, "value": 127}, "group": "control_change"}, {"time": 845, "annotation": {"number": 64, "value": 0}, "group": "control_change"}, {"time": 849, "annotation": {"number": 64, "value": 127}, "group": "control_change"}, {"time": 892, "annotation": {"number": 64, "value": 0}, "group": "control_change"}, {"time": 893, "annotation": {"number": 64, "value": 127}, "group": "control_change"}, {"time": 904, "annotation": {"number": 64, "value": 0}, "group": "control_change"}, {"time": 906, "annotation": {"number": 64, "value": 127}, "group": "control_change"}, {"time": 916, "annotation": {"number": 64, "value": 0}, "group": "control_change"}, {"time": 920, "annotation": {"number": 64, "value": 127}, "group": "control_change"}, {"time": 939, "annotation": {"number": 64, "value": 0}, "group": "control_change"}, {"time": 944, "annotation": {"number": 64, "value": 127}, "group": "control_change"}, {"time": 963, "annotation": {"number": 64, "value": 0}, "group": "control_change"}, {"time": 966, "annotation": {"number": 64, "value": 127}, "group": "control_change"}, {"time": 987, "annotation": {"number": 64, "value": 0}, "group": "control_change"}, {"time": 990, "annotation": {"number": 64, "value": 127}, "group": "control_change"}, {"time": 1012, "annotation": {"number": 64, "value": 0}, "group": "control_change"}, {"time": 1013, "annotation": {"number": 64, "value": 127}, "group": "control_change"}, {"time": 1035, "annotation": {"number": 64, "value": 0}, "group": "control_change"}, {"time": 1039, "annotation": {"number": 64, "value": 127}, "group": "control_change"}, {"time": 1060, "annotation": {"number": 64, "value": 0}, "group": "control_change"}, {"time": 1065, "annotation": {"number": 64, "value": 127}, "group": "control_change"}, {"time": 1083, "annotation": {"number": 64, "value": 0}, "group": "control_change"}, {"time": 1089, "annotation": {"number": 64, "value": 127}, "group": "control_change"}, {"time": 1107, "annotation": {"number": 64, "value": 0}, "group": "control_change"}, {"time": 1112, "annotation": {"number": 64, "value": 127}, "group": "control_change"}, {"time": 1131, "annotation": {"number": 64, "value": 0}, "group": "control_change"}, {"time": 1135, "annotation": {"number": 64, "value": 127}, "group": "control_change"}, {"time": 1155, "annotation": {"number": 64, "value": 0}, "group": "control_change"}, {"time": 1160, "annotation": {"number": 64, "value": 127}, "group": "control_change"}, {"time": 1179, "annotation": {"number": 64, "value": 0}, "group": "control_change"}, {"time": 1184, "annotation": {"number": 64, "value": 127}, "group": "control_change"}, {"time": 1203, "annotation": {"number": 64, "value": 0}, "group": "control_change"}, {"time": 1206, "annotation": {"number": 64, "value": 127}, "group": "control_change"}, {"time": 1227, "annotation": {"number": 64, "value": 0}, "group": "control_change"}, {"time": 1229, "annotation": {"number": 64, "value": 127}, "group": "control_change"}, {"time": 1252, "annotation": {"number": 64, "value": 0}, "group": "control_change"}, {"time": 1253, "annotation": {"number": 64, "value": 127}, "group": "control_change"}, {"time": 1265, "annotation": {"number": 64, "value": 0}, "group": "control_change"}, {"time": 1270, "annotation": {"number": 64, "value": 127}, "group": "control_change"}, {"time": 1274, "annotation": {"number": 64, "value": 0}, "group": "control_change"}, {"time": 1287, "annotation": {"number": 64, "value": 127}, "group": "control_change"}, {"time": 1298, "annotation": {"number": 64, "value": 0}, "group": "control_change"}, {"time": 1305, "annotation": {"number": 64, "value": 127}, "group": "control_change"}, {"time": 1323, "annotation": {"number": 64, "value": 0}, "group": "control_change"}, {"time": 1327, "annotation": {"number": 64, "value": 127}, "group": "control_change"}, {"time": 1349, "annotation": {"number": 64, "value": 0}, "group": "control_change"}, {"time": 1353, "annotation": {"number": 64, "value": 127}, "group": "control_change"}, {"time": 1372, "annotation": {"number": 64, "value": 0}, "group": "control_change"}, {"time": 1379, "annotation": {"number": 64, "value": 127}, "group": "control_change"}, {"time": 1395, "annotation": {"number": 64, "value": 0}, "group": "control_change"}, {"time": 1400, "annotation": {"number": 64, "value": 127}, "group": "control_change"}, {"time": 1419, "annotation": {"number": 64, "value": 0}, "group": "control_change"}, {"time": 1423, "annotation": {"number": 64, "value": 127}, "group": "control_change"}, {"time": 1444, "annotation": {"number": 64, "value": 0}, "group": "control_change"}, {"time": 1448, "annotation": {"number": 64, "value": 127}, "group": "control_change"}, {"time": 1468, "annotation": {"number": 64, "value": 0}, "group": "control_change"}, {"time": 1479, "annotation": {"number": 64, "value": 127}, "group": "control_change"}, {"time": 1490, "annotation": {"number": 64, "value": 0}, "group": "control_change"}, {"time": 1497, "annotation": {"number": 64, "value": 127}, "group": "control_change"}, {"time": 1515, "annotation": {"number": 64, "value": 0}, "group": "control_change"}, {"time": 1519, "annotation": {"number": 64, "value": 127}, "group": "control_change"}, {"time": 1541, "annotation": {"number": 64, "value": 0}, "group": "control_change"}, {"time": 1545, "annotation": {"number": 64, "value": 127}, "group": "control_change"}, {"time": 1564, "annotation": {"number": 64, "value": 0}, "group": "control_change"}, {"time": 1571, "annotation": {"number": 64, "value": 127}, "group": "control_change"}, {"time": 1587, "annotation": {"number": 64, "value": 0}, "group": "control_change"}, {"time": 1590, "annotation": {"number": 64, "value": 127}, "group": "control_change"}, {"time": 1600, "annotation": {"number": 64, "value": 0}, "group": "control_change"}, {"time": 1603, "annotation": {"number": 64, "value": 127}, "group": "control_change"}, {"time": 1612, "annotation": {"number": 64, "value": 0}, "group": "control_change"}, {"time": 1615, "annotation": {"number": 64, "value": 127}, "group": "control_change"}, {"time": 1623, "annotation": {"number": 64, "value": 0}, "group": "control_change"}, {"time": 1625, "annotation": {"number": 64, "value": 127}, "group": "control_change"}, {"time": 1635, "annotation": {"number": 64, "value": 0}, "group": "control_change"}, {"time": 1641, "annotation": {"number": 64, "value": 127}, "group": "control_change"}, {"time": 1667, "annotation": {"number": 64, "value": 127}, "group": "control_change"}, {"time": 1707, "annotation": {"number": 64, "value": 0}, "group": "control_change"}, {"time": 1712, "annotation": {"number": 64, "value": 127}, "group": "control_change"}, {"time": 1731, "annotation": {"number": 64, "value": 0}, "group": "control_change"}, {"time": 1733, "annotation": {"number": 64, "value": 127}, "group": "control_change"}, {"time": 1753, "annotation": {"number": 64, "value": 0}, "group": "control_change"}, {"time": 1756, "annotation": {"number": 64, "value": 127}, "group": "control_change"}, {"time": 1779, "annotation": {"number": 64, "value": 0}, "group": "control_change"}, {"time": 1781, "annotation": {"number": 64, "value": 127}, "group": "control_change"}, {"time": 1803, "annotation": {"number": 64, "value": 0}, "group": "control_change"}, {"time": 1806, "annotation": {"number": 64, "value": 127}, "group": "control_change"}, {"time": 1828, "annotation": {"number": 64, "value": 0}, "group": "control_change"}, {"time": 1832, "annotation": {"number": 64, "value": 127}, "group": "control_change"}, {"time": 1850, "annotation": {"number": 64, "value": 0}, "group": "control_change"}, {"time": 1853, "annotation": {"number": 64, "value": 127}, "group": "control_change"}, {"time": 1877, "annotation": {"number": 64, "value": 127}, "group": "control_change"}, {"time": 1900, "annotation": {"number": 64, "value": 0}, "group": "control_change"}, {"time": 1902, "annotation": {"number": 64, "value": 127}, "group": "control_change"}, {"time": 1926, "annotation": {"number": 64, "value": 0}, "group": "control_change"}, {"time": 1955, "annotation": {"number": 64, "value": 127}, "group": "control_change"}, {"time": 1996, "annotation": {"number": 64, "value": 0}, "group": "control_change"}, {"time": 2001, "annotation": {"number": 64, "value": 127}, "group": "control_change"}, {"time": 2032, "annotation": {"number": 64, "value": 0}, "group": "control_change"}, {"time": 2033, "annotation": {"number": 64, "value": 127}, "group": "control_change"}, {"time": 2044, "annotation": {"number": 64, "value": 0}, "group": "control_change"}, {"time": 2046, "annotation": {"number": 64, "value": 127}, "group": "control_change"}, {"time": 2069, "annotation": {"number": 64, "value": 0}, "group": "control_change"}, {"time": 2070, "annotation": {"number": 64, "value": 127}, "group": "control_change"}, {"time": 2091, "annotation": {"number": 64, "value": 0}, "group": "control_change"}, {"time": 2093, "annotation": {"number": 64, "value": 127}, "group": "control_change"}, {"time": 2141, "annotation": {"number": 64, "value": 0}, "group": "control_change"}, {"time": 2145, "annotation": {"number": 64, "value": 127}, "group": "control_change"}, {"time": 2188, "annotation": {"number": 64, "value": 0}, "group": "control_change"}, {"time": 2189, "annotation": {"number": 64, "value": 127}, "group": "control_change"}, {"time": 2200, "annotation": {"number": 64, "value": 0}, "group": "control_change"}, {"time": 2202, "annotation": {"number": 64, "value": 127}, "group": "control_change"}, {"time": 2212, "annotation": {"number": 64, "value": 0}, "group": "control_change"}, {"time": 2216, "annotation": {"number": 64, "value": 127}, "group": "control_change"}, {"time": 2235, "annotation": {"number": 64, "value": 0}, "group": "control_change"}, {"time": 2240, "annotation": {"number": 64, "value": 127}, "group": "control_change"}, {"time": 2259, "annotation": {"number": 64, "value": 0}, "group": "control_change"}, {"time": 2262, "annotation": {"number": 64, "value": 127}, "group": "control_change"}, {"time": 2283, "annotation": {"number": 64, "value": 0}, "group": "control_change"}, {"time": 2286, "annotation": {"number": 64, "value": 127}, "group": "control_change"}, {"time": 2308, "annotation": {"number": 64, "value": 0}, "group": "control_change"}, {"time": 2309, "annotation": {"number": 64, "value": 127}, "group": "control_change"}, {"time": 2331, "annotation": {"number": 64, "value": 0}, "group": "control_change"}, {"time": 2335, "annotation": {"number": 64, "value": 127}, "group": "control_change"}, {"time": 2356, "annotation": {"number": 64, "value": 0}, "group": "control_change"}, {"time": 2361, "annotation": {"number": 64, "value": 127}, "group": "control_change"}, {"time": 2379, "annotation": {"number": 64, "value": 0}, "group": "control_change"}, {"time": 2385, "annotation": {"number": 64, "value": 127}, "group": "control_change"}, {"time": 2403, "annotation": {"number": 64, "value": 0}, "group": "control_change"}, {"time": 2408, "annotation": {"number": 64, "value": 127}, "group": "control_change"}, {"time": 2427, "annotation": {"number": 64, "value": 0}, "group": "control_change"}, {"time": 2431, "annotation": {"number": 64, "value": 127}, "group": "control_change"}, {"time": 2451, "annotation": {"number": 64, "value": 0}, "group": "control_change"}, {"time": 2456, "annotation": {"number": 64, "value": 127}, "group": "control_change"}, {"time": 2475, "annotation": {"number": 64, "value": 0}, "group": "control_change"}, {"time": 2480, "annotation": {"number": 64, "value": 127}, "group": "control_change"}, {"time": 2499, "annotation": {"number": 64, "value": 0}, "group": "control_change"}, {"time": 2502, "annotation": {"number": 64, "value": 127}, "group": "control_change"}, {"time": 2523, "annotation": {"number": 64, "value": 0}, "group": "control_change"}, {"time": 2525, "annotation": {"number": 64, "value": 127}, "group": "control_change"}, {"time": 2548, "annotation": {"number": 64, "value": 0}, "group": "control_change"}, {"time": 2549, "annotation": {"number": 64, "value": 127}, "group": "control_change"}, {"time": 2561, "annotation": {"number": 64, "value": 0}, "group": "control_change"}, {"time": 2566, "annotation": {"number": 64, "value": 127}, "group": "control_change"}, {"time": 2570, "annotation": {"number": 64, "value": 0}, "group": "control_change"}, {"time": 2583, "annotation": {"number": 64, "value": 127}, "group": "control_change"}, {"time": 2594, "annotation": {"number": 64, "value": 0}, "group": "control_change"}, {"time": 2601, "annotation": {"number": 64, "value": 127}, "group": "control_change"}, {"time": 2619, "annotation": {"number": 64, "value": 0}, "group": "control_change"}, {"time": 2623, "annotation": {"number": 64, "value": 127}, "group": "control_change"}, {"time": 2645, "annotation": {"number": 64, "value": 0}, "group": "control_change"}, {"time": 2649, "annotation": {"number": 64, "value": 127}, "group": "control_change"}, {"time": 2668, "annotation": {"number": 64, "value": 0}, "group": "control_change"}, {"time": 2675, "annotation": {"number": 64, "value": 127}, "group": "control_change"}, {"time": 2691, "annotation": {"number": 64, "value": 0}, "group": "control_change"}, {"time": 2696, "annotation": {"number": 64, "value": 127}, "group": "control_change"}, {"time": 2715, "annotation": {"number": 64, "value": 0}, "group": "control_change"}, {"time": 2719, "annotation": {"number": 64, "value": 127}, "group": "control_change"}, {"time": 2740, "annotation": {"number": 64, "value": 0}, "group": "control_change"}, {"time": 2744, "annotation": {"number": 64, "value": 127}, "group": "control_change"}, {"time": 2764, "annotation": {"number": 64, "value": 0}, "group": "control_change"}, {"time": 2775, "annotation": {"number": 64, "value": 127}, "group": "control_change"}, {"time": 2786, "annotation": {"number": 64, "value": 0}, "group": "control_change"}, {"time": 2793, "annotation": {"number": 64, "value": 127}, "group": "control_change"}, {"time": 2811, "annotation": {"number": 64, "value": 0}, "group": "control_change"}, {"time": 2815, "annotation": {"number": 64, "value": 127}, "group": "control_change"}, {"time": 2837, "annotation": {"number": 64, "value": 0}, "group": "control_change"}, {"time": 2841, "annotation": {"number": 64, "value": 127}, "group": "control_change"}, {"time": 2860, "annotation": {"number": 64, "value": 0}, "group": "control_change"}, {"time": 2867, "annotation": {"number": 64, "value": 127}, "group": "control_change"}, {"time": 2883, "annotation": {"number": 64, "value": 0}, "group": "control_change"}, {"time": 2886, "annotation": {"number": 64, "value": 127}, "group": "control_change"}, {"time": 2896, "annotation": {"number": 64, "value": 0}, "group": "control_change"}, {"time": 2899, "annotation": {"number": 64, "value": 127}, "group": "control_change"}, {"time": 2908, "annotation": {"number": 64, "value": 0}, "group": "control_change"}, {"time": 2911, "annotation": {"number": 64, "value": 127}, "group": "control_change"}, {"time": 2919, "annotation": {"number": 64, "value": 0}, "group": "control_change"}, {"time": 2921, "annotation": {"number": 64, "value": 127}, "group": "control_change"}, {"time": 2931, "annotation": {"number": 64, "value": 0}, "group": "control_change"}, {"time": 2937, "annotation": {"number": 64, "value": 127}, "group": "control_change"}, {"time": 2963, "annotation": {"number": 64, "value": 127}, "group": "control_change"}, {"time": 3003, "annotation": {"number": 64, "value": 0}, "group": "control_change"}, {"time": 3008, "annotation": {"number": 64, "value": 127}, "group": "control_change"}, {"time": 3027, "annotation": {"number": 64, "value": 0}, "group": "control_change"}, {"time": 3029, "annotation": {"number": 64, "value": 127}, "group": "control_change"}, {"time": 3049, "annotation": {"number": 64, "value": 0}, "group": "control_change"}, {"time": 3052, "annotation": {"number": 64, "value": 127}, "group": "control_change"}, {"time": 3075, "annotation": {"number": 64, "value": 0}, "group": "control_change"}, {"time": 3077, "annotation": {"number": 64, "value": 127}, "group": "control_change"}, {"time": 3099, "annotation": {"number": 64, "value": 0}, "group": "control_change"}, {"time": 3102, "annotation": {"number": 64, "value": 127}, "group": "control_change"}, {"time": 3124, "annotation": {"number": 64, "value": 0}, "group": "control_change"}, {"time": 3128, "annotation": {"number": 64, "value": 127}, "group": "control_change"}, {"time": 3146, "annotation": {"number": 64, "value": 0}, "group": "control_change"}, {"time": 3149, "annotation": {"number": 64, "value": 127}, "group": "control_change"}, {"time": 3173, "annotation": {"number": 64, "value": 127}, "group": "control_change"}, {"time": 3196, "annotation": {"number": 64, "value": 0}, "group": "control_change"}, {"time": 3200, "annotation": {"number": 64, "value": 127}, "group": "control_change"}, {"time": 3219, "annotation": {"number": 64, "value": 0}, "group": "control_change"}, {"time": 3221, "annotation": {"number": 64, "value": 127}, "group": "control_change"}, {"time": 3241, "annotation": {"number": 64, "value": 0}, "group": "control_change"}, {"time": 3244, "annotation": {"number": 64, "value": 127}, "group": "control_change"}, {"time": 3267, "annotation": {"number": 64, "value": 0}, "group": "control_change"}, {"time": 3269, "annotation": {"number": 64, "value": 127}, "group": "control_change"}, {"time": 3291, "annotation": {"number": 64, "value": 0}, "group": "control_change"}, {"time": 3294, "annotation": {"number": 64, "value": 127}, "group": "control_change"}, {"time": 3316, "annotation": {"number": 64, "value": 0}, "group": "control_change"}, {"time": 3320, "annotation": {"number": 64, "value": 127}, "group": "control_change"}, {"time": 3338, "annotation": {"number": 64, "value": 0}, "group": "control_change"}, {"time": 3341, "annotation": {"number": 64, "value": 127}, "group": "control_change"}, {"time": 3365, "annotation": {"number": 64, "value": 127}, "group": "control_change"}, {"time": 3388, "annotation": {"number": 64, "value": 0}, "group": "control_change"}, {"time": 3390, "annotation": {"number": 64, "value": 127}, "group": "control_change"}, {"time": 3414, "annotation": {"number": 64, "value": 0}, "group": "control_change"}, {"time": 3433, "annotation": {"number": 64, "value": 127}, "group": "control_change"}]}]}