{"metadata": {"schema_version": "0.2", "title": "None", "source_filename": "138.mid", "source_format": "midi"}, "resolution": 12, "tempos": [{"time": 0, "qpm": 130.00041166797027}], "time_signatures": [{"time": 0, "numerator": 1, "denominator": 4}], "tracks": [{"program": 0, "is_drum": false, "name": "MELODY", "notes": [{"time": 507, "pitch": 68, "duration": 6, "velocity": 108}, {"time": 513, "pitch": 75, "duration": 6, "velocity": 102}, {"time": 519, "pitch": 75, "duration": 6, "velocity": 114}, {"time": 525, "pitch": 73, "duration": 6, "velocity": 84}, {"time": 531, "pitch": 71, "duration": 12, "velocity": 102}, {"time": 543, "pitch": 73, "duration": 6, "velocity": 102}, {"time": 549, "pitch": 71, "duration": 6, "velocity": 105}, {"time": 555, "pitch": 68, "duration": 48, "velocity": 111}, {"time": 603, "pitch": 68, "duration": 7, "velocity": 111}, {"time": 609, "pitch": 80, "duration": 6, "velocity": 102}, {"time": 615, "pitch": 80, "duration": 6, "velocity": 105}, {"time": 621, "pitch": 78, "duration": 6, "velocity": 108}, {"time": 627, "pitch": 78, "duration": 12, "velocity": 105}, {"time": 639, "pitch": 80, "duration": 6, "velocity": 108}, {"time": 645, "pitch": 78, "duration": 6, "velocity": 102}, {"time": 651, "pitch": 75, "duration": 48, "velocity": 105}, {"time": 699, "pitch": 75, "duration": 6, "velocity": 100}, {"time": 705, "pitch": 80, "duration": 6, "velocity": 114}, {"time": 711, "pitch": 80, "duration": 6, "velocity": 108}, {"time": 717, "pitch": 78, "duration": 6, "velocity": 105}, {"time": 723, "pitch": 80, "duration": 12, "velocity": 114}, {"time": 735, "pitch": 68, "duration": 6, "velocity": 108}, {"time": 741, "pitch": 71, "duration": 6, "velocity": 105}, {"time": 747, "pitch": 73, "duration": 12, "velocity": 102}, {"time": 759, "pitch": 73, "duration": 36, "velocity": 105}, {"time": 795, "pitch": 73, "duration": 6, "velocity": 114}, {"time": 801, "pitch": 73, "duration": 6, "velocity": 105}, {"time": 807, "pitch": 73, "duration": 6, "velocity": 102}, {"time": 813, "pitch": 75, "duration": 6, "velocity": 105}, {"time": 819, "pitch": 78, "duration": 6, "velocity": 114}, {"time": 825, "pitch": 75, "duration": 6, "velocity": 108}, {"time": 831, "pitch": 73, "duration": 6, "velocity": 105}, {"time": 837, "pitch": 71, "duration": 6, "velocity": 108}, {"time": 843, "pitch": 75, "duration": 12, "velocity": 108}, {"time": 855, "pitch": 75, "duration": 36, "velocity": 114}, {"time": 891, "pitch": 68, "duration": 6, "velocity": 120}, {"time": 897, "pitch": 75, "duration": 6, "velocity": 105}, {"time": 903, "pitch": 75, "duration": 6, "velocity": 111}, {"time": 909, "pitch": 73, "duration": 6, "velocity": 97}, {"time": 915, "pitch": 71, "duration": 12, "velocity": 105}, {"time": 927, "pitch": 73, "duration": 6, "velocity": 108}, {"time": 933, "pitch": 71, "duration": 6, "velocity": 111}, {"time": 939, "pitch": 68, "duration": 48, "velocity": 117}, {"time": 987, "pitch": 68, "duration": 6, "velocity": 117}, {"time": 993, "pitch": 80, "duration": 6, "velocity": 87}, {"time": 999, "pitch": 80, "duration": 6, "velocity": 111}, {"time": 1005, "pitch": 78, "duration": 6, "velocity": 108}, {"time": 1011, "pitch": 78, "duration": 12, "velocity": 111}, {"time": 1023, "pitch": 80, "duration": 6, "velocity": 111}, {"time": 1029, "pitch": 78, "duration": 6, "velocity": 102}, {"time": 1035, "pitch": 75, "duration": 48, "velocity": 111}, {"time": 1083, "pitch": 75, "duration": 6, "velocity": 102}, {"time": 1089, "pitch": 80, "duration": 6, "velocity": 97}, {"time": 1095, "pitch": 80, "duration": 6, "velocity": 108}, {"time": 1101, "pitch": 78, "duration": 6, "velocity": 108}, {"time": 1107, "pitch": 80, "duration": 12, "velocity": 114}, {"time": 1119, "pitch": 68, "duration": 6, "velocity": 111}, {"time": 1125, "pitch": 71, "duration": 6, "velocity": 108}, {"time": 1131, "pitch": 73, "duration": 12, "velocity": 102}, {"time": 1143, "pitch": 73, "duration": 36, "velocity": 105}, {"time": 1179, "pitch": 73, "duration": 6, "velocity": 114}, {"time": 1185, "pitch": 73, "duration": 6, "velocity": 105}, {"time": 1191, "pitch": 73, "duration": 6, "velocity": 111}, {"time": 1197, "pitch": 75, "duration": 6, "velocity": 108}, {"time": 1203, "pitch": 78, "duration": 6, "velocity": 111}, {"time": 1209, "pitch": 78, "duration": 6, "velocity": 105}, {"time": 1215, "pitch": 78, "duration": 6, "velocity": 102}, {"time": 1221, "pitch": 75, "duration": 6, "velocity": 111}, {"time": 1227, "pitch": 80, "duration": 12, "velocity": 127}, {"time": 1239, "pitch": 80, "duration": 78, "velocity": 117}, {"time": 1317, "pitch": 75, "duration": 6, "velocity": 114}, {"time": 1323, "pitch": 83, "duration": 12, "velocity": 114}, {"time": 1335, "pitch": 75, "duration": 6, "velocity": 87}, {"time": 1341, "pitch": 83, "duration": 6, "velocity": 114}, {"time": 1347, "pitch": 80, "duration": 18, "velocity": 108}, {"time": 1365, "pitch": 75, "duration": 6, "velocity": 92}, {"time": 1371, "pitch": 83, "duration": 12, "velocity": 117}, {"time": 1383, "pitch": 75, "duration": 6, "velocity": 100}, {"time": 1389, "pitch": 83, "duration": 6, "velocity": 120}, {"time": 1395, "pitch": 80, "duration": 24, "velocity": 111}, {"time": 1419, "pitch": 83, "duration": 6, "velocity": 108}, {"time": 1425, "pitch": 83, "duration": 6, "velocity": 114}, {"time": 1431, "pitch": 80, "duration": 6, "velocity": 105}, {"time": 1437, "pitch": 78, "duration": 6, "velocity": 108}, {"time": 1443, "pitch": 78, "duration": 6, "velocity": 108}, {"time": 1449, "pitch": 80, "duration": 6, "velocity": 102}, {"time": 1455, "pitch": 80, "duration": 6, "velocity": 114}, {"time": 1461, "pitch": 78, "duration": 6, "velocity": 108}, {"time": 1467, "pitch": 71, "duration": 6, "velocity": 111}, {"time": 1473, "pitch": 73, "duration": 6, "velocity": 105}, {"time": 1479, "pitch": 78, "duration": 12, "velocity": 111}, {"time": 1491, "pitch": 75, "duration": 18, "velocity": 105}, {"time": 1509, "pitch": 75, "duration": 6, "velocity": 52}, {"time": 1515, "pitch": 75, "duration": 12, "velocity": 111}, {"time": 1527, "pitch": 68, "duration": 6, "velocity": 108}, {"time": 1533, "pitch": 75, "duration": 6, "velocity": 108}, {"time": 1539, "pitch": 73, "duration": 18, "velocity": 114}, {"time": 1557, "pitch": 75, "duration": 6, "velocity": 111}, {"time": 1563, "pitch": 78, "duration": 12, "velocity": 117}, {"time": 1575, "pitch": 75, "duration": 6, "velocity": 108}, {"time": 1581, "pitch": 83, "duration": 6, "velocity": 111}, {"time": 1587, "pitch": 80, "duration": 24, "velocity": 102}, {"time": 1611, "pitch": 80, "duration": 6, "velocity": 114}, {"time": 1617, "pitch": 83, "duration": 6, "velocity": 108}, {"time": 1623, "pitch": 83, "duration": 6, "velocity": 105}, {"time": 1629, "pitch": 80, "duration": 6, "velocity": 105}, {"time": 1635, "pitch": 85, "duration": 12, "velocity": 114}, {"time": 1647, "pitch": 85, "duration": 6, "velocity": 111}, {"time": 1653, "pitch": 83, "duration": 6, "velocity": 89}, {"time": 1659, "pitch": 82, "duration": 6, "velocity": 97}, {"time": 1665, "pitch": 82, "duration": 6, "velocity": 105}, {"time": 1671, "pitch": 80, "duration": 6, "velocity": 108}, {"time": 1677, "pitch": 82, "duration": 24, "velocity": 105}, {"time": 1701, "pitch": 75, "duration": 6, "velocity": 114}, {"time": 1707, "pitch": 83, "duration": 12, "velocity": 114}, {"time": 1719, "pitch": 75, "duration": 6, "velocity": 87}, {"time": 1725, "pitch": 83, "duration": 6, "velocity": 114}, {"time": 1731, "pitch": 80, "duration": 18, "velocity": 108}, {"time": 1749, "pitch": 75, "duration": 6, "velocity": 92}, {"time": 1755, "pitch": 83, "duration": 12, "velocity": 117}, {"time": 1767, "pitch": 75, "duration": 6, "velocity": 100}, {"time": 1773, "pitch": 83, "duration": 6, "velocity": 120}, {"time": 1779, "pitch": 80, "duration": 24, "velocity": 111}, {"time": 1803, "pitch": 83, "duration": 6, "velocity": 108}, {"time": 1809, "pitch": 83, "duration": 6, "velocity": 114}, {"time": 1815, "pitch": 80, "duration": 6, "velocity": 105}, {"time": 1821, "pitch": 78, "duration": 6, "velocity": 108}, {"time": 1827, "pitch": 78, "duration": 6, "velocity": 108}, {"time": 1833, "pitch": 80, "duration": 6, "velocity": 102}, {"time": 1839, "pitch": 80, "duration": 6, "velocity": 114}, {"time": 1845, "pitch": 78, "duration": 6, "velocity": 108}, {"time": 1851, "pitch": 71, "duration": 6, "velocity": 111}, {"time": 1857, "pitch": 73, "duration": 6, "velocity": 105}, {"time": 1863, "pitch": 78, "duration": 12, "velocity": 111}, {"time": 1875, "pitch": 75, "duration": 18, "velocity": 105}, {"time": 1893, "pitch": 75, "duration": 6, "velocity": 52}, {"time": 1899, "pitch": 75, "duration": 12, "velocity": 111}, {"time": 1911, "pitch": 68, "duration": 6, "velocity": 108}, {"time": 1917, "pitch": 75, "duration": 6, "velocity": 108}, {"time": 1923, "pitch": 73, "duration": 18, "velocity": 114}, {"time": 1941, "pitch": 75, "duration": 6, "velocity": 111}, {"time": 1947, "pitch": 78, "duration": 12, "velocity": 117}, {"time": 1959, "pitch": 75, "duration": 6, "velocity": 108}, {"time": 1965, "pitch": 83, "duration": 6, "velocity": 111}, {"time": 1971, "pitch": 80, "duration": 24, "velocity": 102}, {"time": 1995, "pitch": 80, "duration": 6, "velocity": 114}, {"time": 2001, "pitch": 83, "duration": 6, "velocity": 108}, {"time": 2007, "pitch": 83, "duration": 6, "velocity": 105}, {"time": 2013, "pitch": 80, "duration": 6, "velocity": 105}, {"time": 2019, "pitch": 85, "duration": 12, "velocity": 114}, {"time": 2031, "pitch": 85, "duration": 6, "velocity": 111}, {"time": 2037, "pitch": 83, "duration": 6, "velocity": 89}, {"time": 2043, "pitch": 75, "duration": 6, "velocity": 114}, {"time": 2049, "pitch": 78, "duration": 6, "velocity": 108}, {"time": 2055, "pitch": 82, "duration": 12, "velocity": 120}, {"time": 2067, "pitch": 80, "duration": 41, "velocity": 102}, {"time": 2475, "pitch": 68, "duration": 6, "velocity": 108}, {"time": 2481, "pitch": 75, "duration": 6, "velocity": 102}, {"time": 2487, "pitch": 75, "duration": 6, "velocity": 114}, {"time": 2493, "pitch": 73, "duration": 6, "velocity": 84}, {"time": 2499, "pitch": 71, "duration": 12, "velocity": 102}, {"time": 2511, "pitch": 73, "duration": 6, "velocity": 102}, {"time": 2517, "pitch": 71, "duration": 6, "velocity": 105}, {"time": 2523, "pitch": 68, "duration": 48, "velocity": 111}, {"time": 2571, "pitch": 68, "duration": 7, "velocity": 111}, {"time": 2577, "pitch": 80, "duration": 6, "velocity": 102}, {"time": 2583, "pitch": 80, "duration": 6, "velocity": 105}, {"time": 2589, "pitch": 78, "duration": 6, "velocity": 108}, {"time": 2595, "pitch": 78, "duration": 12, "velocity": 105}, {"time": 2607, "pitch": 80, "duration": 6, "velocity": 108}, {"time": 2613, "pitch": 78, "duration": 6, "velocity": 102}, {"time": 2619, "pitch": 75, "duration": 48, "velocity": 105}, {"time": 2667, "pitch": 75, "duration": 6, "velocity": 100}, {"time": 2673, "pitch": 80, "duration": 6, "velocity": 114}, {"time": 2679, "pitch": 80, "duration": 6, "velocity": 108}, {"time": 2685, "pitch": 78, "duration": 6, "velocity": 105}, {"time": 2691, "pitch": 80, "duration": 12, "velocity": 114}, {"time": 2703, "pitch": 68, "duration": 6, "velocity": 108}, {"time": 2709, "pitch": 71, "duration": 6, "velocity": 105}, {"time": 2715, "pitch": 73, "duration": 12, "velocity": 102}, {"time": 2727, "pitch": 73, "duration": 36, "velocity": 105}, {"time": 2763, "pitch": 73, "duration": 6, "velocity": 114}, {"time": 2769, "pitch": 73, "duration": 6, "velocity": 105}, {"time": 2775, "pitch": 73, "duration": 6, "velocity": 102}, {"time": 2781, "pitch": 75, "duration": 6, "velocity": 105}, {"time": 2787, "pitch": 78, "duration": 6, "velocity": 114}, {"time": 2793, "pitch": 75, "duration": 6, "velocity": 108}, {"time": 2799, "pitch": 73, "duration": 6, "velocity": 105}, {"time": 2805, "pitch": 71, "duration": 6, "velocity": 108}, {"time": 2811, "pitch": 75, "duration": 12, "velocity": 108}, {"time": 2823, "pitch": 75, "duration": 36, "velocity": 114}, {"time": 2859, "pitch": 68, "duration": 6, "velocity": 120}, {"time": 2865, "pitch": 75, "duration": 6, "velocity": 105}, {"time": 2871, "pitch": 75, "duration": 6, "velocity": 111}, {"time": 2877, "pitch": 73, "duration": 6, "velocity": 97}, {"time": 2883, "pitch": 71, "duration": 12, "velocity": 105}, {"time": 2895, "pitch": 73, "duration": 6, "velocity": 108}, {"time": 2901, "pitch": 71, "duration": 6, "velocity": 111}, {"time": 2907, "pitch": 68, "duration": 48, "velocity": 117}, {"time": 2955, "pitch": 68, "duration": 6, "velocity": 117}, {"time": 2961, "pitch": 80, "duration": 6, "velocity": 87}, {"time": 2967, "pitch": 80, "duration": 6, "velocity": 111}, {"time": 2973, "pitch": 78, "duration": 6, "velocity": 108}, {"time": 2979, "pitch": 78, "duration": 12, "velocity": 111}, {"time": 2991, "pitch": 80, "duration": 6, "velocity": 111}, {"time": 2997, "pitch": 78, "duration": 6, "velocity": 102}, {"time": 3003, "pitch": 75, "duration": 48, "velocity": 111}, {"time": 3051, "pitch": 75, "duration": 6, "velocity": 102}, {"time": 3057, "pitch": 80, "duration": 6, "velocity": 97}, {"time": 3063, "pitch": 80, "duration": 6, "velocity": 108}, {"time": 3069, "pitch": 78, "duration": 6, "velocity": 108}, {"time": 3075, "pitch": 80, "duration": 12, "velocity": 114}, {"time": 3087, "pitch": 68, "duration": 6, "velocity": 111}, {"time": 3093, "pitch": 71, "duration": 6, "velocity": 108}, {"time": 3099, "pitch": 73, "duration": 12, "velocity": 102}, {"time": 3111, "pitch": 73, "duration": 36, "velocity": 105}, {"time": 3147, "pitch": 73, "duration": 6, "velocity": 114}, {"time": 3153, "pitch": 73, "duration": 6, "velocity": 105}, {"time": 3159, "pitch": 73, "duration": 6, "velocity": 111}, {"time": 3165, "pitch": 75, "duration": 6, "velocity": 108}, {"time": 3171, "pitch": 78, "duration": 6, "velocity": 111}, {"time": 3177, "pitch": 78, "duration": 6, "velocity": 105}, {"time": 3183, "pitch": 78, "duration": 6, "velocity": 102}, {"time": 3189, "pitch": 75, "duration": 6, "velocity": 111}, {"time": 3195, "pitch": 80, "duration": 12, "velocity": 127}, {"time": 3207, "pitch": 80, "duration": 78, "velocity": 117}, {"time": 3285, "pitch": 75, "duration": 6, "velocity": 114}, {"time": 3291, "pitch": 83, "duration": 12, "velocity": 114}, {"time": 3303, "pitch": 75, "duration": 6, "velocity": 87}, {"time": 3309, "pitch": 83, "duration": 6, "velocity": 114}, {"time": 3315, "pitch": 80, "duration": 18, "velocity": 108}, {"time": 3333, "pitch": 75, "duration": 6, "velocity": 92}, {"time": 3339, "pitch": 83, "duration": 12, "velocity": 117}, {"time": 3351, "pitch": 75, "duration": 6, "velocity": 100}, {"time": 3357, "pitch": 83, "duration": 6, "velocity": 120}, {"time": 3363, "pitch": 80, "duration": 24, "velocity": 111}, {"time": 3387, "pitch": 83, "duration": 6, "velocity": 108}, {"time": 3393, "pitch": 83, "duration": 6, "velocity": 114}, {"time": 3399, "pitch": 80, "duration": 6, "velocity": 105}, {"time": 3405, "pitch": 78, "duration": 6, "velocity": 108}, {"time": 3411, "pitch": 78, "duration": 6, "velocity": 108}, {"time": 3417, "pitch": 80, "duration": 6, "velocity": 102}, {"time": 3423, "pitch": 80, "duration": 6, "velocity": 114}, {"time": 3429, "pitch": 78, "duration": 6, "velocity": 108}, {"time": 3435, "pitch": 71, "duration": 6, "velocity": 111}, {"time": 3441, "pitch": 73, "duration": 6, "velocity": 105}, {"time": 3447, "pitch": 78, "duration": 12, "velocity": 111}, {"time": 3459, "pitch": 75, "duration": 18, "velocity": 105}, {"time": 3477, "pitch": 75, "duration": 6, "velocity": 52}, {"time": 3483, "pitch": 75, "duration": 12, "velocity": 111}, {"time": 3495, "pitch": 68, "duration": 6, "velocity": 108}, {"time": 3501, "pitch": 75, "duration": 6, "velocity": 108}, {"time": 3507, "pitch": 73, "duration": 18, "velocity": 114}, {"time": 3525, "pitch": 75, "duration": 6, "velocity": 111}, {"time": 3531, "pitch": 78, "duration": 12, "velocity": 117}, {"time": 3543, "pitch": 75, "duration": 6, "velocity": 108}, {"time": 3549, "pitch": 83, "duration": 6, "velocity": 111}, {"time": 3555, "pitch": 80, "duration": 24, "velocity": 102}, {"time": 3579, "pitch": 80, "duration": 6, "velocity": 114}, {"time": 3585, "pitch": 83, "duration": 6, "velocity": 108}, {"time": 3591, "pitch": 83, "duration": 6, "velocity": 105}, {"time": 3597, "pitch": 80, "duration": 6, "velocity": 105}, {"time": 3603, "pitch": 85, "duration": 12, "velocity": 114}, {"time": 3615, "pitch": 85, "duration": 6, "velocity": 111}, {"time": 3621, "pitch": 83, "duration": 6, "velocity": 89}, {"time": 3627, "pitch": 82, "duration": 6, "velocity": 97}, {"time": 3633, "pitch": 82, "duration": 6, "velocity": 105}, {"time": 3639, "pitch": 80, "duration": 6, "velocity": 108}, {"time": 3645, "pitch": 82, "duration": 24, "velocity": 105}, {"time": 3669, "pitch": 75, "duration": 6, "velocity": 114}, {"time": 3675, "pitch": 83, "duration": 12, "velocity": 114}, {"time": 3687, "pitch": 75, "duration": 6, "velocity": 87}, {"time": 3693, "pitch": 83, "duration": 6, "velocity": 114}, {"time": 3699, "pitch": 80, "duration": 18, "velocity": 108}, {"time": 3717, "pitch": 75, "duration": 6, "velocity": 92}, {"time": 3723, "pitch": 83, "duration": 12, "velocity": 117}, {"time": 3735, "pitch": 75, "duration": 6, "velocity": 100}, {"time": 3741, "pitch": 83, "duration": 6, "velocity": 120}, {"time": 3747, "pitch": 80, "duration": 24, "velocity": 111}, {"time": 3771, "pitch": 83, "duration": 6, "velocity": 108}, {"time": 3777, "pitch": 83, "duration": 6, "velocity": 114}, {"time": 3783, "pitch": 80, "duration": 6, "velocity": 105}, {"time": 3789, "pitch": 78, "duration": 6, "velocity": 108}, {"time": 3795, "pitch": 78, "duration": 6, "velocity": 108}, {"time": 3801, "pitch": 80, "duration": 6, "velocity": 102}, {"time": 3807, "pitch": 80, "duration": 6, "velocity": 114}, {"time": 3813, "pitch": 78, "duration": 6, "velocity": 108}, {"time": 3819, "pitch": 71, "duration": 6, "velocity": 111}, {"time": 3825, "pitch": 73, "duration": 6, "velocity": 105}, {"time": 3831, "pitch": 78, "duration": 12, "velocity": 111}, {"time": 3843, "pitch": 75, "duration": 18, "velocity": 105}, {"time": 3861, "pitch": 75, "duration": 6, "velocity": 52}, {"time": 3867, "pitch": 75, "duration": 12, "velocity": 111}, {"time": 3879, "pitch": 68, "duration": 6, "velocity": 108}, {"time": 3885, "pitch": 75, "duration": 6, "velocity": 108}, {"time": 3891, "pitch": 73, "duration": 18, "velocity": 114}, {"time": 3909, "pitch": 75, "duration": 6, "velocity": 111}, {"time": 3915, "pitch": 78, "duration": 12, "velocity": 117}, {"time": 3927, "pitch": 75, "duration": 6, "velocity": 108}, {"time": 3933, "pitch": 83, "duration": 6, "velocity": 111}, {"time": 3939, "pitch": 80, "duration": 24, "velocity": 102}, {"time": 3963, "pitch": 80, "duration": 6, "velocity": 114}, {"time": 3969, "pitch": 83, "duration": 6, "velocity": 108}, {"time": 3975, "pitch": 83, "duration": 6, "velocity": 105}, {"time": 3981, "pitch": 80, "duration": 6, "velocity": 105}, {"time": 3987, "pitch": 85, "duration": 12, "velocity": 114}, {"time": 3999, "pitch": 85, "duration": 6, "velocity": 111}, {"time": 4005, "pitch": 83, "duration": 6, "velocity": 89}, {"time": 4011, "pitch": 75, "duration": 6, "velocity": 114}, {"time": 4017, "pitch": 78, "duration": 6, "velocity": 108}, {"time": 4023, "pitch": 82, "duration": 12, "velocity": 120}, {"time": 4035, "pitch": 80, "duration": 24, "velocity": 102}, {"time": 4059, "pitch": 68, "duration": 6, "velocity": 114}, {"time": 4065, "pitch": 68, "duration": 6, "velocity": 100}, {"time": 4071, "pitch": 68, "duration": 6, "velocity": 94}, {"time": 4077, "pitch": 68, "duration": 4, "velocity": 92}, {"time": 4080, "pitch": 66, "duration": 9, "velocity": 102}, {"time": 4089, "pitch": 68, "duration": 6, "velocity": 105}, {"time": 4095, "pitch": 68, "duration": 18, "velocity": 105}, {"time": 4113, "pitch": 66, "duration": 3, "velocity": 97}, {"time": 4116, "pitch": 68, "duration": 3, "velocity": 97}, {"time": 4119, "pitch": 68, "duration": 6, "velocity": 97}, {"time": 4125, "pitch": 68, "duration": 3, "velocity": 89}, {"time": 4128, "pitch": 68, "duration": 3, "velocity": 84}, {"time": 4131, "pitch": 68, "duration": 6, "velocity": 80}, {"time": 4137, "pitch": 68, "duration": 6, "velocity": 100}, {"time": 4143, "pitch": 71, "duration": 18, "velocity": 93}, {"time": 4161, "pitch": 68, "duration": 3, "velocity": 71}, {"time": 4164, "pitch": 68, "duration": 3, "velocity": 84}, {"time": 4167, "pitch": 68, "duration": 6, "velocity": 105}, {"time": 4173, "pitch": 68, "duration": 6, "velocity": 100}, {"time": 4179, "pitch": 68, "duration": 6, "velocity": 100}, {"time": 4185, "pitch": 66, "duration": 6, "velocity": 97}, {"time": 4191, "pitch": 68, "duration": 12, "velocity": 114}, {"time": 4203, "pitch": 75, "duration": 6, "velocity": 92}, {"time": 4209, "pitch": 75, "duration": 6, "velocity": 94}, {"time": 4215, "pitch": 75, "duration": 6, "velocity": 97}, {"time": 4221, "pitch": 75, "duration": 6, "velocity": 102}, {"time": 4227, "pitch": 75, "duration": 6, "velocity": 97}, {"time": 4233, "pitch": 75, "duration": 6, "velocity": 94}, {"time": 4239, "pitch": 71, "duration": 18, "velocity": 111}, {"time": 4257, "pitch": 68, "duration": 3, "velocity": 71}, {"time": 4260, "pitch": 68, "duration": 3, "velocity": 84}, {"time": 4263, "pitch": 68, "duration": 6, "velocity": 105}, {"time": 4269, "pitch": 68, "duration": 6, "velocity": 100}, {"time": 4275, "pitch": 68, "duration": 6, "velocity": 100}, {"time": 4281, "pitch": 66, "duration": 6, "velocity": 97}, {"time": 4287, "pitch": 68, "duration": 18, "velocity": 114}, {"time": 4305, "pitch": 68, "duration": 3, "velocity": 71}, {"time": 4308, "pitch": 68, "duration": 3, "velocity": 84}, {"time": 4311, "pitch": 68, "duration": 6, "velocity": 105}, {"time": 4317, "pitch": 68, "duration": 6, "velocity": 100}, {"time": 4323, "pitch": 68, "duration": 6, "velocity": 100}, {"time": 4329, "pitch": 68, "duration": 6, "velocity": 97}, {"time": 4335, "pitch": 71, "duration": 18, "velocity": 114}, {"time": 4353, "pitch": 68, "duration": 6, "velocity": 94}, {"time": 4359, "pitch": 68, "duration": 6, "velocity": 92}, {"time": 4365, "pitch": 68, "duration": 6, "velocity": 102}, {"time": 4371, "pitch": 68, "duration": 6, "velocity": 105}, {"time": 4377, "pitch": 66, "duration": 6, "velocity": 100}, {"time": 4383, "pitch": 68, "duration": 6, "velocity": 100}, {"time": 4389, "pitch": 68, "duration": 6, "velocity": 102}, {"time": 4395, "pitch": 75, "duration": 6, "velocity": 66}, {"time": 4401, "pitch": 75, "duration": 6, "velocity": 73}, {"time": 4407, "pitch": 75, "duration": 6, "velocity": 94}, {"time": 4413, "pitch": 75, "duration": 6, "velocity": 94}, {"time": 4419, "pitch": 73, "duration": 6, "velocity": 100}, {"time": 4425, "pitch": 71, "duration": 6, "velocity": 114}, {"time": 4431, "pitch": 68, "duration": 54, "velocity": 105}, {"time": 4485, "pitch": 75, "duration": 6, "velocity": 114}, {"time": 4491, "pitch": 83, "duration": 12, "velocity": 114}, {"time": 4503, "pitch": 75, "duration": 6, "velocity": 87}, {"time": 4509, "pitch": 83, "duration": 6, "velocity": 114}, {"time": 4515, "pitch": 80, "duration": 18, "velocity": 108}, {"time": 4533, "pitch": 75, "duration": 6, "velocity": 92}, {"time": 4539, "pitch": 83, "duration": 12, "velocity": 117}, {"time": 4551, "pitch": 75, "duration": 6, "velocity": 100}, {"time": 4557, "pitch": 83, "duration": 6, "velocity": 120}, {"time": 4563, "pitch": 80, "duration": 24, "velocity": 111}, {"time": 4587, "pitch": 83, "duration": 6, "velocity": 108}, {"time": 4593, "pitch": 83, "duration": 6, "velocity": 114}, {"time": 4599, "pitch": 80, "duration": 6, "velocity": 105}, {"time": 4605, "pitch": 78, "duration": 6, "velocity": 108}, {"time": 4611, "pitch": 78, "duration": 6, "velocity": 108}, {"time": 4617, "pitch": 80, "duration": 6, "velocity": 102}, {"time": 4623, "pitch": 80, "duration": 6, "velocity": 114}, {"time": 4629, "pitch": 78, "duration": 6, "velocity": 108}, {"time": 4635, "pitch": 71, "duration": 6, "velocity": 111}, {"time": 4641, "pitch": 73, "duration": 6, "velocity": 105}, {"time": 4647, "pitch": 78, "duration": 12, "velocity": 111}, {"time": 4659, "pitch": 75, "duration": 18, "velocity": 105}, {"time": 4677, "pitch": 75, "duration": 6, "velocity": 52}, {"time": 4683, "pitch": 75, "duration": 12, "velocity": 111}, {"time": 4695, "pitch": 68, "duration": 6, "velocity": 108}, {"time": 4701, "pitch": 75, "duration": 6, "velocity": 108}, {"time": 4707, "pitch": 73, "duration": 18, "velocity": 114}, {"time": 4725, "pitch": 75, "duration": 6, "velocity": 111}, {"time": 4731, "pitch": 78, "duration": 12, "velocity": 117}, {"time": 4743, "pitch": 75, "duration": 6, "velocity": 108}, {"time": 4749, "pitch": 83, "duration": 6, "velocity": 111}, {"time": 4755, "pitch": 80, "duration": 24, "velocity": 102}, {"time": 4779, "pitch": 80, "duration": 6, "velocity": 114}, {"time": 4785, "pitch": 83, "duration": 6, "velocity": 108}, {"time": 4791, "pitch": 83, "duration": 6, "velocity": 105}, {"time": 4797, "pitch": 80, "duration": 6, "velocity": 105}, {"time": 4803, "pitch": 85, "duration": 12, "velocity": 114}, {"time": 4815, "pitch": 85, "duration": 6, "velocity": 111}, {"time": 4821, "pitch": 83, "duration": 6, "velocity": 89}, {"time": 4827, "pitch": 82, "duration": 6, "velocity": 97}, {"time": 4833, "pitch": 82, "duration": 6, "velocity": 105}, {"time": 4839, "pitch": 80, "duration": 6, "velocity": 108}, {"time": 4845, "pitch": 82, "duration": 24, "velocity": 105}, {"time": 4869, "pitch": 75, "duration": 6, "velocity": 114}, {"time": 4875, "pitch": 83, "duration": 12, "velocity": 114}, {"time": 4887, "pitch": 75, "duration": 6, "velocity": 87}, {"time": 4893, "pitch": 83, "duration": 6, "velocity": 114}, {"time": 4899, "pitch": 80, "duration": 18, "velocity": 108}, {"time": 4917, "pitch": 75, "duration": 6, "velocity": 92}, {"time": 4923, "pitch": 83, "duration": 12, "velocity": 117}, {"time": 4935, "pitch": 75, "duration": 6, "velocity": 100}, {"time": 4941, "pitch": 83, "duration": 6, "velocity": 120}, {"time": 4947, "pitch": 80, "duration": 24, "velocity": 111}, {"time": 4971, "pitch": 83, "duration": 6, "velocity": 108}, {"time": 4977, "pitch": 83, "duration": 6, "velocity": 114}, {"time": 4983, "pitch": 80, "duration": 6, "velocity": 105}, {"time": 4989, "pitch": 78, "duration": 6, "velocity": 108}, {"time": 4995, "pitch": 78, "duration": 6, "velocity": 108}, {"time": 5001, "pitch": 80, "duration": 6, "velocity": 102}, {"time": 5007, "pitch": 80, "duration": 6, "velocity": 114}, {"time": 5013, "pitch": 78, "duration": 6, "velocity": 108}, {"time": 5019, "pitch": 71, "duration": 6, "velocity": 111}, {"time": 5025, "pitch": 73, "duration": 6, "velocity": 105}, {"time": 5031, "pitch": 78, "duration": 12, "velocity": 111}, {"time": 5043, "pitch": 75, "duration": 18, "velocity": 105}, {"time": 5061, "pitch": 75, "duration": 6, "velocity": 52}, {"time": 5067, "pitch": 75, "duration": 12, "velocity": 111}, {"time": 5079, "pitch": 68, "duration": 6, "velocity": 108}, {"time": 5085, "pitch": 75, "duration": 6, "velocity": 108}, {"time": 5091, "pitch": 73, "duration": 18, "velocity": 114}, {"time": 5109, "pitch": 75, "duration": 6, "velocity": 111}, {"time": 5115, "pitch": 78, "duration": 12, "velocity": 117}, {"time": 5127, "pitch": 75, "duration": 6, "velocity": 108}, {"time": 5133, "pitch": 83, "duration": 6, "velocity": 111}, {"time": 5139, "pitch": 80, "duration": 24, "velocity": 102}, {"time": 5163, "pitch": 80, "duration": 6, "velocity": 114}, {"time": 5169, "pitch": 83, "duration": 6, "velocity": 108}, {"time": 5175, "pitch": 83, "duration": 6, "velocity": 105}, {"time": 5181, "pitch": 80, "duration": 6, "velocity": 105}, {"time": 5187, "pitch": 85, "duration": 12, "velocity": 114}, {"time": 5199, "pitch": 85, "duration": 6, "velocity": 111}, {"time": 5205, "pitch": 83, "duration": 6, "velocity": 89}, {"time": 5211, "pitch": 75, "duration": 6, "velocity": 114}, {"time": 5217, "pitch": 78, "duration": 6, "velocity": 108}, {"time": 5223, "pitch": 82, "duration": 12, "velocity": 120}, {"time": 5235, "pitch": 80, "duration": 24, "velocity": 102}, {"time": 5259, "pitch": 80, "duration": 6, "velocity": 114}, {"time": 5265, "pitch": 83, "duration": 6, "velocity": 108}, {"time": 5271, "pitch": 83, "duration": 6, "velocity": 105}, {"time": 5277, "pitch": 80, "duration": 6, "velocity": 105}, {"time": 5283, "pitch": 85, "duration": 12, "velocity": 114}, {"time": 5295, "pitch": 85, "duration": 6, "velocity": 111}, {"time": 5301, "pitch": 83, "duration": 6, "velocity": 89}, {"time": 5307, "pitch": 75, "duration": 6, "velocity": 114}, {"time": 5313, "pitch": 78, "duration": 6, "velocity": 108}, {"time": 5319, "pitch": 82, "duration": 12, "velocity": 120}, {"time": 5331, "pitch": 80, "duration": 29, "velocity": 102}]}, {"program": 0, "is_drum": false, "name": "PIANO", "notes": [{"time": 23, "pitch": 44, "duration": 96, "velocity": 80}, {"time": 26, "pitch": 32, "duration": 93, "velocity": 100}, {"time": 26, "pitch": 51, "duration": 93, "velocity": 94}, {"time": 28, "pitch": 56, "duration": 91, "velocity": 100}, {"time": 123, "pitch": 44, "duration": 9, "velocity": 102}, {"time": 123, "pitch": 56, "duration": 8, "velocity": 108}, {"time": 135, "pitch": 44, "duration": 10, "velocity": 102}, {"time": 135, "pitch": 56, "duration": 9, "velocity": 100}, {"time": 135, "pitch": 63, "duration": 9, "velocity": 94}, {"time": 147, "pitch": 44, "duration": 8, "velocity": 100}, {"time": 147, "pitch": 56, "duration": 7, "velocity": 114}, {"time": 147, "pitch": 64, "duration": 1, "velocity": 47}, {"time": 156, "pitch": 47, "duration": 7, "velocity": 102}, {"time": 156, "pitch": 59, "duration": 5, "velocity": 111}, {"time": 165, "pitch": 51, "duration": 5, "velocity": 82}, {"time": 165, "pitch": 56, "duration": 5, "velocity": 97}, {"time": 165, "pitch": 59, "duration": 5, "velocity": 105}, {"time": 165, "pitch": 63, "duration": 5, "velocity": 100}, {"time": 177, "pitch": 51, "duration": 3, "velocity": 117}, {"time": 177, "pitch": 63, "duration": 3, "velocity": 108}, {"time": 183, "pitch": 44, "duration": 4, "velocity": 102}, {"time": 183, "pitch": 56, "duration": 3, "velocity": 111}, {"time": 189, "pitch": 47, "duration": 3, "velocity": 114}, {"time": 189, "pitch": 59, "duration": 3, "velocity": 108}, {"time": 195, "pitch": 52, "duration": 4, "velocity": 105}, {"time": 195, "pitch": 64, "duration": 4, "velocity": 111}, {"time": 201, "pitch": 51, "duration": 4, "velocity": 111}, {"time": 201, "pitch": 63, "duration": 4, "velocity": 89}, {"time": 207, "pitch": 50, "duration": 3, "velocity": 116}, {"time": 207, "pitch": 62, "duration": 3, "velocity": 105}, {"time": 213, "pitch": 51, "duration": 4, "velocity": 97}, {"time": 213, "pitch": 63, "duration": 4, "velocity": 82}, {"time": 219, "pitch": 44, "duration": 9, "velocity": 102}, {"time": 219, "pitch": 56, "duration": 8, "velocity": 108}, {"time": 231, "pitch": 44, "duration": 10, "velocity": 102}, {"time": 231, "pitch": 56, "duration": 9, "velocity": 100}, {"time": 231, "pitch": 63, "duration": 9, "velocity": 94}, {"time": 243, "pitch": 44, "duration": 8, "velocity": 100}, {"time": 243, "pitch": 56, "duration": 7, "velocity": 114}, {"time": 243, "pitch": 64, "duration": 1, "velocity": 47}, {"time": 252, "pitch": 47, "duration": 7, "velocity": 102}, {"time": 252, "pitch": 59, "duration": 5, "velocity": 111}, {"time": 261, "pitch": 43, "duration": 8, "velocity": 90}, {"time": 261, "pitch": 58, "duration": 7, "velocity": 97}, {"time": 261, "pitch": 63, "duration": 8, "velocity": 92}, {"time": 273, "pitch": 44, "duration": 4, "velocity": 105}, {"time": 273, "pitch": 56, "duration": 3, "velocity": 111}, {"time": 279, "pitch": 47, "duration": 3, "velocity": 111}, {"time": 279, "pitch": 59, "duration": 4, "velocity": 117}, {"time": 285, "pitch": 49, "duration": 4, "velocity": 111}, {"time": 285, "pitch": 61, "duration": 3, "velocity": 108}, {"time": 291, "pitch": 46, "duration": 4, "velocity": 105}, {"time": 291, "pitch": 58, "duration": 3, "velocity": 123}, {"time": 297, "pitch": 39, "duration": 3, "velocity": 105}, {"time": 297, "pitch": 51, "duration": 4, "velocity": 92}, {"time": 303, "pitch": 39, "duration": 4, "velocity": 100}, {"time": 303, "pitch": 51, "duration": 9, "velocity": 117}, {"time": 315, "pitch": 44, "duration": 9, "velocity": 102}, {"time": 315, "pitch": 56, "duration": 8, "velocity": 108}, {"time": 327, "pitch": 44, "duration": 10, "velocity": 102}, {"time": 327, "pitch": 56, "duration": 9, "velocity": 100}, {"time": 327, "pitch": 63, "duration": 9, "velocity": 94}, {"time": 339, "pitch": 44, "duration": 8, "velocity": 100}, {"time": 339, "pitch": 56, "duration": 7, "velocity": 114}, {"time": 339, "pitch": 64, "duration": 1, "velocity": 47}, {"time": 348, "pitch": 47, "duration": 7, "velocity": 102}, {"time": 348, "pitch": 59, "duration": 5, "velocity": 111}, {"time": 357, "pitch": 51, "duration": 5, "velocity": 82}, {"time": 357, "pitch": 56, "duration": 5, "velocity": 97}, {"time": 357, "pitch": 59, "duration": 5, "velocity": 105}, {"time": 357, "pitch": 63, "duration": 5, "velocity": 100}, {"time": 369, "pitch": 51, "duration": 3, "velocity": 117}, {"time": 369, "pitch": 63, "duration": 3, "velocity": 108}, {"time": 375, "pitch": 44, "duration": 4, "velocity": 102}, {"time": 375, "pitch": 56, "duration": 3, "velocity": 111}, {"time": 381, "pitch": 47, "duration": 3, "velocity": 114}, {"time": 381, "pitch": 59, "duration": 3, "velocity": 108}, {"time": 387, "pitch": 52, "duration": 4, "velocity": 105}, {"time": 387, "pitch": 64, "duration": 4, "velocity": 111}, {"time": 393, "pitch": 51, "duration": 4, "velocity": 111}, {"time": 393, "pitch": 63, "duration": 4, "velocity": 89}, {"time": 399, "pitch": 50, "duration": 3, "velocity": 116}, {"time": 399, "pitch": 62, "duration": 3, "velocity": 105}, {"time": 405, "pitch": 51, "duration": 4, "velocity": 97}, {"time": 405, "pitch": 63, "duration": 4, "velocity": 82}, {"time": 411, "pitch": 44, "duration": 9, "velocity": 102}, {"time": 411, "pitch": 56, "duration": 8, "velocity": 108}, {"time": 423, "pitch": 44, "duration": 10, "velocity": 102}, {"time": 423, "pitch": 56, "duration": 9, "velocity": 100}, {"time": 423, "pitch": 63, "duration": 9, "velocity": 94}, {"time": 435, "pitch": 44, "duration": 8, "velocity": 100}, {"time": 435, "pitch": 56, "duration": 7, "velocity": 114}, {"time": 435, "pitch": 64, "duration": 1, "velocity": 47}, {"time": 444, "pitch": 47, "duration": 7, "velocity": 102}, {"time": 444, "pitch": 59, "duration": 5, "velocity": 111}, {"time": 453, "pitch": 43, "duration": 8, "velocity": 90}, {"time": 453, "pitch": 58, "duration": 7, "velocity": 97}, {"time": 453, "pitch": 63, "duration": 8, "velocity": 92}, {"time": 465, "pitch": 44, "duration": 4, "velocity": 105}, {"time": 465, "pitch": 56, "duration": 3, "velocity": 111}, {"time": 471, "pitch": 47, "duration": 3, "velocity": 111}, {"time": 471, "pitch": 59, "duration": 4, "velocity": 117}, {"time": 477, "pitch": 49, "duration": 4, "velocity": 111}, {"time": 477, "pitch": 61, "duration": 3, "velocity": 108}, {"time": 483, "pitch": 46, "duration": 4, "velocity": 105}, {"time": 483, "pitch": 58, "duration": 3, "velocity": 123}, {"time": 489, "pitch": 39, "duration": 3, "velocity": 105}, {"time": 489, "pitch": 51, "duration": 4, "velocity": 92}, {"time": 495, "pitch": 39, "duration": 4, "velocity": 100}, {"time": 495, "pitch": 51, "duration": 9, "velocity": 117}, {"time": 507, "pitch": 44, "duration": 14, "velocity": 100}, {"time": 507, "pitch": 56, "duration": 12, "velocity": 80}, {"time": 507, "pitch": 59, "duration": 12, "velocity": 87}, {"time": 525, "pitch": 44, "duration": 25, "velocity": 102}, {"time": 525, "pitch": 56, "duration": 6, "velocity": 92}, {"time": 525, "pitch": 59, "duration": 6, "velocity": 105}, {"time": 525, "pitch": 63, "duration": 7, "velocity": 100}, {"time": 543, "pitch": 59, "duration": 4, "velocity": 114}, {"time": 543, "pitch": 63, "duration": 4, "velocity": 111}, {"time": 549, "pitch": 56, "duration": 3, "velocity": 100}, {"time": 555, "pitch": 44, "duration": 16, "velocity": 108}, {"time": 555, "pitch": 56, "duration": 8, "velocity": 100}, {"time": 555, "pitch": 59, "duration": 9, "velocity": 97}, {"time": 573, "pitch": 44, "duration": 26, "velocity": 105}, {"time": 573, "pitch": 56, "duration": 13, "velocity": 82}, {"time": 573, "pitch": 59, "duration": 14, "velocity": 87}, {"time": 573, "pitch": 63, "duration": 12, "velocity": 89}, {"time": 585, "pitch": 51, "duration": 5, "velocity": 48}, {"time": 591, "pitch": 56, "duration": 3, "velocity": 100}, {"time": 591, "pitch": 59, "duration": 4, "velocity": 117}, {"time": 591, "pitch": 63, "duration": 5, "velocity": 108}, {"time": 597, "pitch": 56, "duration": 2, "velocity": 87}, {"time": 603, "pitch": 44, "duration": 43, "velocity": 102}, {"time": 603, "pitch": 56, "duration": 14, "velocity": 84}, {"time": 603, "pitch": 59, "duration": 13, "velocity": 89}, {"time": 615, "pitch": 51, "duration": 26, "velocity": 71}, {"time": 621, "pitch": 56, "duration": 16, "velocity": 108}, {"time": 621, "pitch": 59, "duration": 16, "velocity": 114}, {"time": 621, "pitch": 63, "duration": 15, "velocity": 105}, {"time": 639, "pitch": 59, "duration": 8, "velocity": 117}, {"time": 639, "pitch": 63, "duration": 8, "velocity": 111}, {"time": 645, "pitch": 56, "duration": 4, "velocity": 111}, {"time": 651, "pitch": 51, "duration": 11, "velocity": 105}, {"time": 651, "pitch": 58, "duration": 10, "velocity": 97}, {"time": 651, "pitch": 63, "duration": 9, "velocity": 108}, {"time": 669, "pitch": 51, "duration": 27, "velocity": 102}, {"time": 669, "pitch": 58, "duration": 10, "velocity": 102}, {"time": 669, "pitch": 63, "duration": 15, "velocity": 102}, {"time": 681, "pitch": 58, "duration": 4, "velocity": 92}, {"time": 687, "pitch": 58, "duration": 2, "velocity": 94}, {"time": 687, "pitch": 63, "duration": 8, "velocity": 108}, {"time": 687, "pitch": 67, "duration": 9, "velocity": 93}, {"time": 693, "pitch": 58, "duration": 4, "velocity": 84}, {"time": 699, "pitch": 44, "duration": 45, "velocity": 100}, {"time": 699, "pitch": 56, "duration": 12, "velocity": 92}, {"time": 699, "pitch": 59, "duration": 12, "velocity": 92}, {"time": 717, "pitch": 56, "duration": 5, "velocity": 102}, {"time": 717, "pitch": 59, "duration": 5, "velocity": 102}, {"time": 717, "pitch": 63, "duration": 5, "velocity": 102}, {"time": 729, "pitch": 51, "duration": 14, "velocity": 69}, {"time": 735, "pitch": 56, "duration": 3, "velocity": 111}, {"time": 735, "pitch": 59, "duration": 7, "velocity": 114}, {"time": 735, "pitch": 63, "duration": 8, "velocity": 105}, {"time": 741, "pitch": 56, "duration": 3, "velocity": 100}, {"time": 747, "pitch": 49, "duration": 41, "velocity": 87}, {"time": 747, "pitch": 56, "duration": 16, "velocity": 89}, {"time": 747, "pitch": 61, "duration": 16, "velocity": 97}, {"time": 765, "pitch": 56, "duration": 9, "velocity": 108}, {"time": 765, "pitch": 61, "duration": 15, "velocity": 108}, {"time": 765, "pitch": 64, "duration": 14, "velocity": 102}, {"time": 777, "pitch": 56, "duration": 4, "velocity": 80}, {"time": 783, "pitch": 56, "duration": 3, "velocity": 105}, {"time": 783, "pitch": 61, "duration": 10, "velocity": 108}, {"time": 783, "pitch": 64, "duration": 9, "velocity": 105}, {"time": 789, "pitch": 56, "duration": 6, "velocity": 111}, {"time": 795, "pitch": 42, "duration": 45, "velocity": 105}, {"time": 807, "pitch": 49, "duration": 8, "velocity": 44}, {"time": 813, "pitch": 54, "duration": 5, "velocity": 108}, {"time": 813, "pitch": 58, "duration": 6, "velocity": 111}, {"time": 813, "pitch": 61, "duration": 6, "velocity": 94}, {"time": 825, "pitch": 49, "duration": 12, "velocity": 66}, {"time": 831, "pitch": 54, "duration": 3, "velocity": 105}, {"time": 831, "pitch": 58, "duration": 8, "velocity": 117}, {"time": 831, "pitch": 61, "duration": 10, "velocity": 102}, {"time": 837, "pitch": 54, "duration": 3, "velocity": 73}, {"time": 843, "pitch": 39, "duration": 4, "velocity": 108}, {"time": 843, "pitch": 51, "duration": 5, "velocity": 105}, {"time": 843, "pitch": 58, "duration": 6, "velocity": 94}, {"time": 855, "pitch": 39, "duration": 10, "velocity": 111}, {"time": 855, "pitch": 51, "duration": 9, "velocity": 108}, {"time": 855, "pitch": 58, "duration": 9, "velocity": 100}, {"time": 867, "pitch": 51, "duration": 3, "velocity": 105}, {"time": 873, "pitch": 55, "duration": 3, "velocity": 109}, {"time": 879, "pitch": 58, "duration": 4, "velocity": 97}, {"time": 885, "pitch": 63, "duration": 3, "velocity": 64}, {"time": 891, "pitch": 44, "duration": 14, "velocity": 100}, {"time": 891, "pitch": 56, "duration": 12, "velocity": 80}, {"time": 891, "pitch": 59, "duration": 12, "velocity": 87}, {"time": 909, "pitch": 44, "duration": 25, "velocity": 102}, {"time": 909, "pitch": 56, "duration": 6, "velocity": 92}, {"time": 909, "pitch": 59, "duration": 6, "velocity": 105}, {"time": 909, "pitch": 63, "duration": 7, "velocity": 100}, {"time": 927, "pitch": 59, "duration": 4, "velocity": 114}, {"time": 927, "pitch": 63, "duration": 4, "velocity": 111}, {"time": 933, "pitch": 56, "duration": 3, "velocity": 100}, {"time": 939, "pitch": 44, "duration": 16, "velocity": 108}, {"time": 939, "pitch": 56, "duration": 8, "velocity": 100}, {"time": 939, "pitch": 59, "duration": 9, "velocity": 97}, {"time": 957, "pitch": 44, "duration": 26, "velocity": 105}, {"time": 957, "pitch": 56, "duration": 13, "velocity": 82}, {"time": 957, "pitch": 59, "duration": 14, "velocity": 87}, {"time": 957, "pitch": 63, "duration": 12, "velocity": 89}, {"time": 969, "pitch": 51, "duration": 5, "velocity": 48}, {"time": 975, "pitch": 56, "duration": 3, "velocity": 100}, {"time": 975, "pitch": 59, "duration": 4, "velocity": 117}, {"time": 975, "pitch": 63, "duration": 5, "velocity": 108}, {"time": 981, "pitch": 56, "duration": 2, "velocity": 87}, {"time": 987, "pitch": 44, "duration": 43, "velocity": 102}, {"time": 987, "pitch": 56, "duration": 14, "velocity": 84}, {"time": 987, "pitch": 59, "duration": 13, "velocity": 89}, {"time": 999, "pitch": 51, "duration": 26, "velocity": 71}, {"time": 1005, "pitch": 56, "duration": 16, "velocity": 108}, {"time": 1005, "pitch": 59, "duration": 16, "velocity": 114}, {"time": 1005, "pitch": 63, "duration": 15, "velocity": 105}, {"time": 1023, "pitch": 59, "duration": 8, "velocity": 117}, {"time": 1023, "pitch": 63, "duration": 8, "velocity": 111}, {"time": 1029, "pitch": 56, "duration": 4, "velocity": 111}, {"time": 1035, "pitch": 51, "duration": 11, "velocity": 105}, {"time": 1035, "pitch": 58, "duration": 10, "velocity": 97}, {"time": 1035, "pitch": 63, "duration": 9, "velocity": 108}, {"time": 1053, "pitch": 51, "duration": 27, "velocity": 102}, {"time": 1053, "pitch": 58, "duration": 10, "velocity": 102}, {"time": 1053, "pitch": 63, "duration": 15, "velocity": 102}, {"time": 1065, "pitch": 58, "duration": 4, "velocity": 92}, {"time": 1071, "pitch": 58, "duration": 2, "velocity": 94}, {"time": 1071, "pitch": 63, "duration": 8, "velocity": 108}, {"time": 1071, "pitch": 67, "duration": 9, "velocity": 93}, {"time": 1077, "pitch": 58, "duration": 4, "velocity": 84}, {"time": 1083, "pitch": 44, "duration": 45, "velocity": 100}, {"time": 1083, "pitch": 56, "duration": 12, "velocity": 92}, {"time": 1083, "pitch": 59, "duration": 12, "velocity": 92}, {"time": 1101, "pitch": 56, "duration": 5, "velocity": 102}, {"time": 1101, "pitch": 59, "duration": 5, "velocity": 102}, {"time": 1101, "pitch": 63, "duration": 5, "velocity": 102}, {"time": 1113, "pitch": 51, "duration": 14, "velocity": 69}, {"time": 1119, "pitch": 56, "duration": 3, "velocity": 111}, {"time": 1119, "pitch": 59, "duration": 7, "velocity": 114}, {"time": 1119, "pitch": 63, "duration": 8, "velocity": 105}, {"time": 1125, "pitch": 56, "duration": 3, "velocity": 100}, {"time": 1131, "pitch": 49, "duration": 41, "velocity": 87}, {"time": 1131, "pitch": 56, "duration": 16, "velocity": 89}, {"time": 1131, "pitch": 61, "duration": 16, "velocity": 97}, {"time": 1149, "pitch": 56, "duration": 9, "velocity": 108}, {"time": 1149, "pitch": 61, "duration": 15, "velocity": 108}, {"time": 1149, "pitch": 64, "duration": 14, "velocity": 102}, {"time": 1161, "pitch": 56, "duration": 4, "velocity": 80}, {"time": 1167, "pitch": 56, "duration": 3, "velocity": 105}, {"time": 1167, "pitch": 61, "duration": 10, "velocity": 108}, {"time": 1167, "pitch": 64, "duration": 9, "velocity": 105}, {"time": 1173, "pitch": 56, "duration": 6, "velocity": 111}, {"time": 1179, "pitch": 42, "duration": 45, "velocity": 105}, {"time": 1191, "pitch": 49, "duration": 8, "velocity": 44}, {"time": 1197, "pitch": 54, "duration": 5, "velocity": 108}, {"time": 1197, "pitch": 58, "duration": 6, "velocity": 111}, {"time": 1197, "pitch": 61, "duration": 6, "velocity": 94}, {"time": 1206, "pitch": 49, "duration": 15, "velocity": 66}, {"time": 1215, "pitch": 54, "duration": 3, "velocity": 105}, {"time": 1215, "pitch": 58, "duration": 8, "velocity": 117}, {"time": 1215, "pitch": 61, "duration": 10, "velocity": 102}, {"time": 1221, "pitch": 54, "duration": 3, "velocity": 73}, {"time": 1227, "pitch": 39, "duration": 6, "velocity": 114}, {"time": 1227, "pitch": 51, "duration": 6, "velocity": 114}, {"time": 1227, "pitch": 58, "duration": 6, "velocity": 100}, {"time": 1227, "pitch": 63, "duration": 5, "velocity": 105}, {"time": 1239, "pitch": 44, "duration": 35, "velocity": 108}, {"time": 1239, "pitch": 56, "duration": 15, "velocity": 97}, {"time": 1239, "pitch": 59, "duration": 15, "velocity": 100}, {"time": 1239, "pitch": 63, "duration": 15, "velocity": 97}, {"time": 1251, "pitch": 51, "duration": 22, "velocity": 57}, {"time": 1257, "pitch": 56, "duration": 3, "velocity": 71}, {"time": 1257, "pitch": 59, "duration": 2, "velocity": 69}, {"time": 1257, "pitch": 63, "duration": 3, "velocity": 87}, {"time": 1263, "pitch": 56, "duration": 3, "velocity": 84}, {"time": 1263, "pitch": 59, "duration": 3, "velocity": 97}, {"time": 1263, "pitch": 63, "duration": 4, "velocity": 97}, {"time": 1269, "pitch": 56, "duration": 3, "velocity": 102}, {"time": 1269, "pitch": 59, "duration": 3, "velocity": 100}, {"time": 1269, "pitch": 63, "duration": 3, "velocity": 97}, {"time": 1275, "pitch": 44, "duration": 45, "velocity": 108}, {"time": 1275, "pitch": 56, "duration": 8, "velocity": 100}, {"time": 1275, "pitch": 59, "duration": 8, "velocity": 111}, {"time": 1275, "pitch": 63, "duration": 7, "velocity": 105}, {"time": 1287, "pitch": 56, "duration": 3, "velocity": 64}, {"time": 1287, "pitch": 59, "duration": 3, "velocity": 92}, {"time": 1287, "pitch": 63, "duration": 4, "velocity": 89}, {"time": 1293, "pitch": 56, "duration": 2, "velocity": 64}, {"time": 1299, "pitch": 51, "duration": 21, "velocity": 97}, {"time": 1299, "pitch": 56, "duration": 2, "velocity": 73}, {"time": 1299, "pitch": 59, "duration": 4, "velocity": 114}, {"time": 1299, "pitch": 63, "duration": 4, "velocity": 105}, {"time": 1305, "pitch": 56, "duration": 4, "velocity": 105}, {"time": 1311, "pitch": 56, "duration": 2, "velocity": 94}, {"time": 1311, "pitch": 59, "duration": 3, "velocity": 123}, {"time": 1311, "pitch": 63, "duration": 4, "velocity": 123}, {"time": 1317, "pitch": 56, "duration": 4, "velocity": 120}, {"time": 1317, "pitch": 59, "duration": 2, "velocity": 92}, {"time": 1317, "pitch": 63, "duration": 2, "velocity": 82}, {"time": 1323, "pitch": 32, "duration": 6, "velocity": 111}, {"time": 1323, "pitch": 56, "duration": 9, "velocity": 97}, {"time": 1323, "pitch": 59, "duration": 9, "velocity": 102}, {"time": 1329, "pitch": 44, "duration": 6, "velocity": 108}, {"time": 1335, "pitch": 32, "duration": 6, "velocity": 102}, {"time": 1335, "pitch": 56, "duration": 7, "velocity": 102}, {"time": 1335, "pitch": 59, "duration": 7, "velocity": 108}, {"time": 1335, "pitch": 63, "duration": 7, "velocity": 102}, {"time": 1341, "pitch": 44, "duration": 5, "velocity": 117}, {"time": 1347, "pitch": 32, "duration": 7, "velocity": 100}, {"time": 1347, "pitch": 56, "duration": 7, "velocity": 94}, {"time": 1347, "pitch": 59, "duration": 7, "velocity": 100}, {"time": 1347, "pitch": 63, "duration": 7, "velocity": 97}, {"time": 1353, "pitch": 44, "duration": 6, "velocity": 108}, {"time": 1356, "pitch": 56, "duration": 5, "velocity": 102}, {"time": 1356, "pitch": 59, "duration": 5, "velocity": 108}, {"time": 1356, "pitch": 63, "duration": 4, "velocity": 100}, {"time": 1359, "pitch": 32, "duration": 5, "velocity": 97}, {"time": 1365, "pitch": 44, "duration": 4, "velocity": 111}, {"time": 1365, "pitch": 56, "duration": 4, "velocity": 105}, {"time": 1365, "pitch": 59, "duration": 3, "velocity": 102}, {"time": 1365, "pitch": 63, "duration": 3, "velocity": 100}, {"time": 1371, "pitch": 40, "duration": 7, "velocity": 102}, {"time": 1371, "pitch": 52, "duration": 10, "velocity": 94}, {"time": 1371, "pitch": 56, "duration": 10, "velocity": 100}, {"time": 1377, "pitch": 52, "duration": 4, "velocity": 111}, {"time": 1383, "pitch": 40, "duration": 6, "velocity": 97}, {"time": 1383, "pitch": 52, "duration": 9, "velocity": 102}, {"time": 1383, "pitch": 56, "duration": 9, "velocity": 111}, {"time": 1383, "pitch": 59, "duration": 9, "velocity": 105}, {"time": 1389, "pitch": 52, "duration": 3, "velocity": 114}, {"time": 1395, "pitch": 40, "duration": 7, "velocity": 100}, {"time": 1395, "pitch": 52, "duration": 7, "velocity": 105}, {"time": 1395, "pitch": 56, "duration": 7, "velocity": 114}, {"time": 1395, "pitch": 59, "duration": 7, "velocity": 105}, {"time": 1401, "pitch": 52, "duration": 1, "velocity": 111}, {"time": 1404, "pitch": 52, "duration": 3, "velocity": 97}, {"time": 1404, "pitch": 56, "duration": 4, "velocity": 108}, {"time": 1404, "pitch": 59, "duration": 4, "velocity": 102}, {"time": 1407, "pitch": 40, "duration": 6, "velocity": 105}, {"time": 1413, "pitch": 52, "duration": 3, "velocity": 94}, {"time": 1413, "pitch": 52, "duration": 3, "velocity": 114}, {"time": 1413, "pitch": 56, "duration": 3, "velocity": 105}, {"time": 1413, "pitch": 59, "duration": 4, "velocity": 100}, {"time": 1419, "pitch": 37, "duration": 6, "velocity": 97}, {"time": 1419, "pitch": 56, "duration": 10, "velocity": 84}, {"time": 1419, "pitch": 59, "duration": 3, "velocity": 80}, {"time": 1419, "pitch": 61, "duration": 10, "velocity": 80}, {"time": 1419, "pitch": 63, "duration": 4, "velocity": 64}, {"time": 1419, "pitch": 64, "duration": 10, "velocity": 67}, {"time": 1425, "pitch": 49, "duration": 4, "velocity": 105}, {"time": 1431, "pitch": 37, "duration": 6, "velocity": 100}, {"time": 1431, "pitch": 56, "duration": 8, "velocity": 114}, {"time": 1431, "pitch": 61, "duration": 6, "velocity": 111}, {"time": 1431, "pitch": 64, "duration": 8, "velocity": 108}, {"time": 1437, "pitch": 49, "duration": 5, "velocity": 108}, {"time": 1443, "pitch": 42, "duration": 7, "velocity": 82}, {"time": 1443, "pitch": 54, "duration": 7, "velocity": 87}, {"time": 1443, "pitch": 58, "duration": 7, "velocity": 105}, {"time": 1443, "pitch": 61, "duration": 7, "velocity": 97}, {"time": 1449, "pitch": 54, "duration": 1, "velocity": 111}, {"time": 1452, "pitch": 54, "duration": 2, "velocity": 87}, {"time": 1452, "pitch": 58, "duration": 4, "velocity": 105}, {"time": 1452, "pitch": 61, "duration": 4, "velocity": 94}, {"time": 1455, "pitch": 42, "duration": 4, "velocity": 102}, {"time": 1461, "pitch": 54, "duration": 3, "velocity": 78}, {"time": 1461, "pitch": 54, "duration": 3, "velocity": 114}, {"time": 1461, "pitch": 58, "duration": 4, "velocity": 94}, {"time": 1461, "pitch": 61, "duration": 4, "velocity": 87}, {"time": 1467, "pitch": 35, "duration": 6, "velocity": 100}, {"time": 1467, "pitch": 54, "duration": 9, "velocity": 84}, {"time": 1467, "pitch": 59, "duration": 9, "velocity": 94}, {"time": 1467, "pitch": 63, "duration": 9, "velocity": 92}, {"time": 1473, "pitch": 47, "duration": 4, "velocity": 102}, {"time": 1479, "pitch": 35, "duration": 6, "velocity": 89}, {"time": 1479, "pitch": 54, "duration": 9, "velocity": 105}, {"time": 1479, "pitch": 59, "duration": 9, "velocity": 111}, {"time": 1479, "pitch": 63, "duration": 9, "velocity": 100}, {"time": 1485, "pitch": 47, "duration": 5, "velocity": 97}, {"time": 1491, "pitch": 35, "duration": 6, "velocity": 87}, {"time": 1491, "pitch": 54, "duration": 7, "velocity": 102}, {"time": 1491, "pitch": 59, "duration": 7, "velocity": 108}, {"time": 1491, "pitch": 63, "duration": 7, "velocity": 100}, {"time": 1497, "pitch": 47, "duration": 6, "velocity": 108}, {"time": 1500, "pitch": 54, "duration": 4, "velocity": 89}, {"time": 1500, "pitch": 59, "duration": 4, "velocity": 97}, {"time": 1500, "pitch": 63, "duration": 4, "velocity": 92}, {"time": 1503, "pitch": 35, "duration": 8, "velocity": 97}, {"time": 1509, "pitch": 47, "duration": 4, "velocity": 108}, {"time": 1509, "pitch": 54, "duration": 3, "velocity": 97}, {"time": 1509, "pitch": 59, "duration": 3, "velocity": 102}, {"time": 1509, "pitch": 63, "duration": 4, "velocity": 97}, {"time": 1515, "pitch": 37, "duration": 7, "velocity": 105}, {"time": 1515, "pitch": 56, "duration": 10, "velocity": 89}, {"time": 1515, "pitch": 61, "duration": 10, "velocity": 100}, {"time": 1515, "pitch": 64, "duration": 9, "velocity": 105}, {"time": 1521, "pitch": 47, "duration": 3, "velocity": 82}, {"time": 1521, "pitch": 49, "duration": 4, "velocity": 89}, {"time": 1527, "pitch": 37, "duration": 6, "velocity": 100}, {"time": 1527, "pitch": 56, "duration": 9, "velocity": 94}, {"time": 1527, "pitch": 61, "duration": 9, "velocity": 100}, {"time": 1527, "pitch": 64, "duration": 9, "velocity": 100}, {"time": 1533, "pitch": 49, "duration": 5, "velocity": 108}, {"time": 1539, "pitch": 37, "duration": 7, "velocity": 97}, {"time": 1539, "pitch": 56, "duration": 7, "velocity": 100}, {"time": 1539, "pitch": 61, "duration": 7, "velocity": 97}, {"time": 1539, "pitch": 64, "duration": 7, "velocity": 92}, {"time": 1545, "pitch": 49, "duration": 6, "velocity": 105}, {"time": 1548, "pitch": 56, "duration": 5, "velocity": 102}, {"time": 1548, "pitch": 61, "duration": 5, "velocity": 97}, {"time": 1548, "pitch": 64, "duration": 4, "velocity": 94}, {"time": 1551, "pitch": 37, "duration": 7, "velocity": 100}, {"time": 1557, "pitch": 49, "duration": 4, "velocity": 108}, {"time": 1557, "pitch": 56, "duration": 5, "velocity": 92}, {"time": 1557, "pitch": 61, "duration": 4, "velocity": 89}, {"time": 1557, "pitch": 64, "duration": 4, "velocity": 82}, {"time": 1563, "pitch": 39, "duration": 7, "velocity": 102}, {"time": 1563, "pitch": 58, "duration": 10, "velocity": 94}, {"time": 1563, "pitch": 63, "duration": 10, "velocity": 97}, {"time": 1563, "pitch": 66, "duration": 10, "velocity": 94}, {"time": 1569, "pitch": 51, "duration": 6, "velocity": 114}, {"time": 1575, "pitch": 39, "duration": 5, "velocity": 102}, {"time": 1575, "pitch": 58, "duration": 9, "velocity": 105}, {"time": 1575, "pitch": 63, "duration": 8, "velocity": 108}, {"time": 1575, "pitch": 66, "duration": 7, "velocity": 108}, {"time": 1581, "pitch": 51, "duration": 5, "velocity": 97}, {"time": 1587, "pitch": 32, "duration": 6, "velocity": 84}, {"time": 1587, "pitch": 56, "duration": 7, "velocity": 94}, {"time": 1587, "pitch": 59, "duration": 7, "velocity": 100}, {"time": 1593, "pitch": 44, "duration": 5, "velocity": 114}, {"time": 1596, "pitch": 56, "duration": 6, "velocity": 97}, {"time": 1596, "pitch": 59, "duration": 6, "velocity": 102}, {"time": 1596, "pitch": 63, "duration": 4, "velocity": 97}, {"time": 1599, "pitch": 32, "duration": 6, "velocity": 105}, {"time": 1605, "pitch": 44, "duration": 5, "velocity": 117}, {"time": 1605, "pitch": 56, "duration": 4, "velocity": 102}, {"time": 1605, "pitch": 59, "duration": 4, "velocity": 111}, {"time": 1605, "pitch": 63, "duration": 4, "velocity": 100}, {"time": 1611, "pitch": 40, "duration": 6, "velocity": 89}, {"time": 1611, "pitch": 56, "duration": 11, "velocity": 92}, {"time": 1611, "pitch": 59, "duration": 11, "velocity": 97}, {"time": 1611, "pitch": 64, "duration": 11, "velocity": 97}, {"time": 1617, "pitch": 52, "duration": 4, "velocity": 102}, {"time": 1623, "pitch": 40, "duration": 6, "velocity": 78}, {"time": 1623, "pitch": 56, "duration": 10, "velocity": 105}, {"time": 1623, "pitch": 59, "duration": 10, "velocity": 111}, {"time": 1623, "pitch": 64, "duration": 10, "velocity": 105}, {"time": 1629, "pitch": 52, "duration": 5, "velocity": 80}, {"time": 1635, "pitch": 40, "duration": 6, "velocity": 78}, {"time": 1635, "pitch": 56, "duration": 8, "velocity": 102}, {"time": 1635, "pitch": 59, "duration": 7, "velocity": 105}, {"time": 1635, "pitch": 64, "duration": 7, "velocity": 102}, {"time": 1641, "pitch": 52, "duration": 5, "velocity": 102}, {"time": 1644, "pitch": 56, "duration": 6, "velocity": 100}, {"time": 1644, "pitch": 59, "duration": 6, "velocity": 94}, {"time": 1644, "pitch": 64, "duration": 6, "velocity": 102}, {"time": 1647, "pitch": 40, "duration": 6, "velocity": 87}, {"time": 1653, "pitch": 52, "duration": 5, "velocity": 97}, {"time": 1653, "pitch": 56, "duration": 4, "velocity": 100}, {"time": 1653, "pitch": 59, "duration": 5, "velocity": 97}, {"time": 1653, "pitch": 64, "duration": 4, "velocity": 89}, {"time": 1659, "pitch": 39, "duration": 5, "velocity": 45}, {"time": 1659, "pitch": 58, "duration": 9, "velocity": 102}, {"time": 1659, "pitch": 63, "duration": 9, "velocity": 100}, {"time": 1665, "pitch": 51, "duration": 5, "velocity": 105}, {"time": 1671, "pitch": 39, "duration": 6, "velocity": 82}, {"time": 1671, "pitch": 58, "duration": 10, "velocity": 108}, {"time": 1671, "pitch": 63, "duration": 10, "velocity": 105}, {"time": 1677, "pitch": 51, "duration": 5, "velocity": 102}, {"time": 1683, "pitch": 39, "duration": 6, "velocity": 92}, {"time": 1683, "pitch": 58, "duration": 7, "velocity": 105}, {"time": 1683, "pitch": 63, "duration": 7, "velocity": 111}, {"time": 1689, "pitch": 51, "duration": 6, "velocity": 100}, {"time": 1692, "pitch": 58, "duration": 6, "velocity": 97}, {"time": 1692, "pitch": 63, "duration": 6, "velocity": 94}, {"time": 1695, "pitch": 39, "duration": 7, "velocity": 97}, {"time": 1701, "pitch": 51, "duration": 5, "velocity": 102}, {"time": 1701, "pitch": 58, "duration": 6, "velocity": 102}, {"time": 1701, "pitch": 63, "duration": 5, "velocity": 102}, {"time": 1707, "pitch": 32, "duration": 6, "velocity": 111}, {"time": 1707, "pitch": 56, "duration": 9, "velocity": 97}, {"time": 1707, "pitch": 59, "duration": 9, "velocity": 102}, {"time": 1713, "pitch": 44, "duration": 6, "velocity": 108}, {"time": 1719, "pitch": 32, "duration": 6, "velocity": 102}, {"time": 1719, "pitch": 56, "duration": 7, "velocity": 102}, {"time": 1719, "pitch": 59, "duration": 7, "velocity": 108}, {"time": 1719, "pitch": 63, "duration": 7, "velocity": 102}, {"time": 1725, "pitch": 44, "duration": 5, "velocity": 117}, {"time": 1731, "pitch": 32, "duration": 7, "velocity": 100}, {"time": 1731, "pitch": 56, "duration": 7, "velocity": 94}, {"time": 1731, "pitch": 59, "duration": 7, "velocity": 100}, {"time": 1731, "pitch": 63, "duration": 7, "velocity": 97}, {"time": 1737, "pitch": 44, "duration": 6, "velocity": 108}, {"time": 1740, "pitch": 56, "duration": 5, "velocity": 102}, {"time": 1740, "pitch": 59, "duration": 5, "velocity": 108}, {"time": 1740, "pitch": 63, "duration": 4, "velocity": 100}, {"time": 1743, "pitch": 32, "duration": 5, "velocity": 97}, {"time": 1749, "pitch": 44, "duration": 4, "velocity": 111}, {"time": 1749, "pitch": 56, "duration": 4, "velocity": 105}, {"time": 1749, "pitch": 59, "duration": 3, "velocity": 102}, {"time": 1749, "pitch": 63, "duration": 3, "velocity": 100}, {"time": 1755, "pitch": 40, "duration": 7, "velocity": 102}, {"time": 1755, "pitch": 52, "duration": 10, "velocity": 94}, {"time": 1755, "pitch": 56, "duration": 10, "velocity": 100}, {"time": 1761, "pitch": 52, "duration": 4, "velocity": 111}, {"time": 1767, "pitch": 40, "duration": 6, "velocity": 97}, {"time": 1767, "pitch": 52, "duration": 9, "velocity": 102}, {"time": 1767, "pitch": 56, "duration": 9, "velocity": 111}, {"time": 1767, "pitch": 59, "duration": 9, "velocity": 105}, {"time": 1773, "pitch": 52, "duration": 3, "velocity": 114}, {"time": 1779, "pitch": 40, "duration": 7, "velocity": 100}, {"time": 1779, "pitch": 52, "duration": 7, "velocity": 105}, {"time": 1779, "pitch": 56, "duration": 7, "velocity": 114}, {"time": 1779, "pitch": 59, "duration": 7, "velocity": 105}, {"time": 1785, "pitch": 52, "duration": 1, "velocity": 111}, {"time": 1788, "pitch": 52, "duration": 3, "velocity": 97}, {"time": 1788, "pitch": 56, "duration": 4, "velocity": 108}, {"time": 1788, "pitch": 59, "duration": 4, "velocity": 102}, {"time": 1791, "pitch": 40, "duration": 6, "velocity": 105}, {"time": 1797, "pitch": 52, "duration": 3, "velocity": 94}, {"time": 1797, "pitch": 52, "duration": 3, "velocity": 114}, {"time": 1797, "pitch": 56, "duration": 3, "velocity": 105}, {"time": 1797, "pitch": 59, "duration": 4, "velocity": 100}, {"time": 1803, "pitch": 37, "duration": 6, "velocity": 97}, {"time": 1803, "pitch": 56, "duration": 10, "velocity": 84}, {"time": 1803, "pitch": 59, "duration": 3, "velocity": 80}, {"time": 1803, "pitch": 61, "duration": 10, "velocity": 80}, {"time": 1803, "pitch": 63, "duration": 4, "velocity": 64}, {"time": 1803, "pitch": 64, "duration": 10, "velocity": 67}, {"time": 1809, "pitch": 49, "duration": 4, "velocity": 105}, {"time": 1815, "pitch": 37, "duration": 6, "velocity": 100}, {"time": 1815, "pitch": 56, "duration": 8, "velocity": 114}, {"time": 1815, "pitch": 61, "duration": 6, "velocity": 111}, {"time": 1815, "pitch": 64, "duration": 8, "velocity": 108}, {"time": 1821, "pitch": 49, "duration": 5, "velocity": 108}, {"time": 1827, "pitch": 42, "duration": 7, "velocity": 82}, {"time": 1827, "pitch": 54, "duration": 7, "velocity": 87}, {"time": 1827, "pitch": 58, "duration": 7, "velocity": 105}, {"time": 1827, "pitch": 61, "duration": 7, "velocity": 97}, {"time": 1833, "pitch": 54, "duration": 1, "velocity": 111}, {"time": 1836, "pitch": 54, "duration": 2, "velocity": 87}, {"time": 1836, "pitch": 58, "duration": 4, "velocity": 105}, {"time": 1836, "pitch": 61, "duration": 4, "velocity": 94}, {"time": 1839, "pitch": 42, "duration": 4, "velocity": 102}, {"time": 1845, "pitch": 54, "duration": 3, "velocity": 78}, {"time": 1845, "pitch": 54, "duration": 3, "velocity": 114}, {"time": 1845, "pitch": 58, "duration": 4, "velocity": 94}, {"time": 1845, "pitch": 61, "duration": 4, "velocity": 87}, {"time": 1851, "pitch": 35, "duration": 6, "velocity": 100}, {"time": 1851, "pitch": 54, "duration": 9, "velocity": 84}, {"time": 1851, "pitch": 59, "duration": 9, "velocity": 94}, {"time": 1851, "pitch": 63, "duration": 9, "velocity": 92}, {"time": 1857, "pitch": 47, "duration": 4, "velocity": 102}, {"time": 1863, "pitch": 35, "duration": 6, "velocity": 89}, {"time": 1863, "pitch": 54, "duration": 9, "velocity": 105}, {"time": 1863, "pitch": 59, "duration": 9, "velocity": 111}, {"time": 1863, "pitch": 63, "duration": 9, "velocity": 100}, {"time": 1869, "pitch": 47, "duration": 5, "velocity": 97}, {"time": 1875, "pitch": 35, "duration": 6, "velocity": 87}, {"time": 1875, "pitch": 54, "duration": 7, "velocity": 102}, {"time": 1875, "pitch": 59, "duration": 7, "velocity": 108}, {"time": 1875, "pitch": 63, "duration": 7, "velocity": 100}, {"time": 1881, "pitch": 47, "duration": 6, "velocity": 108}, {"time": 1884, "pitch": 54, "duration": 4, "velocity": 89}, {"time": 1884, "pitch": 59, "duration": 4, "velocity": 97}, {"time": 1884, "pitch": 63, "duration": 4, "velocity": 92}, {"time": 1887, "pitch": 35, "duration": 8, "velocity": 97}, {"time": 1893, "pitch": 47, "duration": 4, "velocity": 108}, {"time": 1893, "pitch": 54, "duration": 3, "velocity": 97}, {"time": 1893, "pitch": 59, "duration": 3, "velocity": 102}, {"time": 1893, "pitch": 63, "duration": 4, "velocity": 97}, {"time": 1899, "pitch": 37, "duration": 7, "velocity": 105}, {"time": 1899, "pitch": 56, "duration": 10, "velocity": 89}, {"time": 1899, "pitch": 61, "duration": 10, "velocity": 100}, {"time": 1899, "pitch": 64, "duration": 9, "velocity": 105}, {"time": 1905, "pitch": 47, "duration": 3, "velocity": 82}, {"time": 1905, "pitch": 49, "duration": 4, "velocity": 89}, {"time": 1911, "pitch": 37, "duration": 6, "velocity": 100}, {"time": 1911, "pitch": 56, "duration": 9, "velocity": 94}, {"time": 1911, "pitch": 61, "duration": 9, "velocity": 100}, {"time": 1911, "pitch": 64, "duration": 9, "velocity": 100}, {"time": 1917, "pitch": 49, "duration": 5, "velocity": 108}, {"time": 1923, "pitch": 37, "duration": 7, "velocity": 97}, {"time": 1923, "pitch": 56, "duration": 7, "velocity": 100}, {"time": 1923, "pitch": 61, "duration": 7, "velocity": 97}, {"time": 1923, "pitch": 64, "duration": 7, "velocity": 92}, {"time": 1929, "pitch": 49, "duration": 6, "velocity": 105}, {"time": 1932, "pitch": 56, "duration": 5, "velocity": 102}, {"time": 1932, "pitch": 61, "duration": 5, "velocity": 97}, {"time": 1932, "pitch": 64, "duration": 4, "velocity": 94}, {"time": 1935, "pitch": 37, "duration": 7, "velocity": 100}, {"time": 1941, "pitch": 49, "duration": 4, "velocity": 108}, {"time": 1941, "pitch": 56, "duration": 5, "velocity": 92}, {"time": 1941, "pitch": 61, "duration": 4, "velocity": 89}, {"time": 1941, "pitch": 64, "duration": 4, "velocity": 82}, {"time": 1947, "pitch": 39, "duration": 7, "velocity": 102}, {"time": 1947, "pitch": 58, "duration": 10, "velocity": 94}, {"time": 1947, "pitch": 63, "duration": 10, "velocity": 97}, {"time": 1947, "pitch": 66, "duration": 10, "velocity": 94}, {"time": 1953, "pitch": 51, "duration": 6, "velocity": 114}, {"time": 1959, "pitch": 39, "duration": 5, "velocity": 102}, {"time": 1959, "pitch": 58, "duration": 9, "velocity": 105}, {"time": 1959, "pitch": 63, "duration": 8, "velocity": 108}, {"time": 1959, "pitch": 66, "duration": 7, "velocity": 108}, {"time": 1965, "pitch": 51, "duration": 5, "velocity": 97}, {"time": 1971, "pitch": 32, "duration": 6, "velocity": 84}, {"time": 1971, "pitch": 56, "duration": 7, "velocity": 94}, {"time": 1971, "pitch": 59, "duration": 7, "velocity": 100}, {"time": 1977, "pitch": 44, "duration": 5, "velocity": 114}, {"time": 1980, "pitch": 56, "duration": 6, "velocity": 97}, {"time": 1980, "pitch": 59, "duration": 6, "velocity": 102}, {"time": 1980, "pitch": 63, "duration": 4, "velocity": 97}, {"time": 1983, "pitch": 32, "duration": 6, "velocity": 105}, {"time": 1989, "pitch": 44, "duration": 5, "velocity": 117}, {"time": 1989, "pitch": 56, "duration": 4, "velocity": 102}, {"time": 1989, "pitch": 59, "duration": 4, "velocity": 111}, {"time": 1989, "pitch": 63, "duration": 4, "velocity": 100}, {"time": 1995, "pitch": 40, "duration": 6, "velocity": 89}, {"time": 1995, "pitch": 56, "duration": 11, "velocity": 92}, {"time": 1995, "pitch": 59, "duration": 11, "velocity": 97}, {"time": 1995, "pitch": 64, "duration": 11, "velocity": 97}, {"time": 2001, "pitch": 52, "duration": 4, "velocity": 102}, {"time": 2007, "pitch": 40, "duration": 6, "velocity": 78}, {"time": 2007, "pitch": 56, "duration": 10, "velocity": 105}, {"time": 2007, "pitch": 59, "duration": 10, "velocity": 111}, {"time": 2007, "pitch": 64, "duration": 10, "velocity": 105}, {"time": 2013, "pitch": 52, "duration": 5, "velocity": 80}, {"time": 2019, "pitch": 40, "duration": 6, "velocity": 78}, {"time": 2019, "pitch": 56, "duration": 8, "velocity": 102}, {"time": 2019, "pitch": 59, "duration": 7, "velocity": 105}, {"time": 2019, "pitch": 64, "duration": 7, "velocity": 102}, {"time": 2025, "pitch": 52, "duration": 5, "velocity": 102}, {"time": 2028, "pitch": 56, "duration": 6, "velocity": 100}, {"time": 2028, "pitch": 59, "duration": 6, "velocity": 94}, {"time": 2028, "pitch": 64, "duration": 6, "velocity": 102}, {"time": 2031, "pitch": 40, "duration": 6, "velocity": 87}, {"time": 2037, "pitch": 52, "duration": 5, "velocity": 97}, {"time": 2037, "pitch": 56, "duration": 4, "velocity": 100}, {"time": 2037, "pitch": 59, "duration": 5, "velocity": 97}, {"time": 2037, "pitch": 64, "duration": 4, "velocity": 89}, {"time": 2043, "pitch": 39, "duration": 5, "velocity": 45}, {"time": 2043, "pitch": 58, "duration": 9, "velocity": 102}, {"time": 2043, "pitch": 63, "duration": 9, "velocity": 100}, {"time": 2049, "pitch": 51, "duration": 5, "velocity": 105}, {"time": 2055, "pitch": 39, "duration": 6, "velocity": 82}, {"time": 2055, "pitch": 58, "duration": 10, "velocity": 108}, {"time": 2055, "pitch": 63, "duration": 10, "velocity": 105}, {"time": 2061, "pitch": 51, "duration": 5, "velocity": 102}, {"time": 2067, "pitch": 44, "duration": 7, "velocity": 97}, {"time": 2067, "pitch": 59, "duration": 8, "velocity": 94}, {"time": 2067, "pitch": 63, "duration": 8, "velocity": 108}, {"time": 2067, "pitch": 68, "duration": 8, "velocity": 97}, {"time": 2073, "pitch": 56, "duration": 9, "velocity": 92}, {"time": 2076, "pitch": 59, "duration": 6, "velocity": 87}, {"time": 2076, "pitch": 63, "duration": 6, "velocity": 97}, {"time": 2076, "pitch": 68, "duration": 6, "velocity": 105}, {"time": 2079, "pitch": 44, "duration": 9, "velocity": 89}, {"time": 2085, "pitch": 56, "duration": 5, "velocity": 111}, {"time": 2085, "pitch": 59, "duration": 5, "velocity": 89}, {"time": 2085, "pitch": 63, "duration": 5, "velocity": 97}, {"time": 2085, "pitch": 68, "duration": 5, "velocity": 97}, {"time": 2091, "pitch": 44, "duration": 9, "velocity": 102}, {"time": 2091, "pitch": 56, "duration": 8, "velocity": 108}, {"time": 2103, "pitch": 44, "duration": 10, "velocity": 102}, {"time": 2103, "pitch": 56, "duration": 9, "velocity": 100}, {"time": 2103, "pitch": 63, "duration": 9, "velocity": 94}, {"time": 2115, "pitch": 44, "duration": 8, "velocity": 100}, {"time": 2115, "pitch": 56, "duration": 7, "velocity": 114}, {"time": 2115, "pitch": 64, "duration": 1, "velocity": 47}, {"time": 2124, "pitch": 47, "duration": 7, "velocity": 102}, {"time": 2124, "pitch": 59, "duration": 5, "velocity": 111}, {"time": 2133, "pitch": 51, "duration": 5, "velocity": 82}, {"time": 2133, "pitch": 56, "duration": 5, "velocity": 97}, {"time": 2133, "pitch": 59, "duration": 5, "velocity": 105}, {"time": 2133, "pitch": 63, "duration": 5, "velocity": 100}, {"time": 2145, "pitch": 51, "duration": 3, "velocity": 117}, {"time": 2145, "pitch": 63, "duration": 3, "velocity": 108}, {"time": 2151, "pitch": 44, "duration": 4, "velocity": 102}, {"time": 2151, "pitch": 56, "duration": 3, "velocity": 111}, {"time": 2157, "pitch": 47, "duration": 3, "velocity": 114}, {"time": 2157, "pitch": 59, "duration": 3, "velocity": 108}, {"time": 2163, "pitch": 52, "duration": 4, "velocity": 105}, {"time": 2163, "pitch": 64, "duration": 4, "velocity": 111}, {"time": 2169, "pitch": 51, "duration": 4, "velocity": 111}, {"time": 2169, "pitch": 63, "duration": 4, "velocity": 89}, {"time": 2175, "pitch": 50, "duration": 3, "velocity": 116}, {"time": 2175, "pitch": 62, "duration": 3, "velocity": 105}, {"time": 2181, "pitch": 51, "duration": 4, "velocity": 97}, {"time": 2181, "pitch": 63, "duration": 4, "velocity": 82}, {"time": 2187, "pitch": 44, "duration": 9, "velocity": 102}, {"time": 2187, "pitch": 56, "duration": 8, "velocity": 108}, {"time": 2199, "pitch": 44, "duration": 10, "velocity": 102}, {"time": 2199, "pitch": 56, "duration": 9, "velocity": 100}, {"time": 2199, "pitch": 63, "duration": 9, "velocity": 94}, {"time": 2211, "pitch": 44, "duration": 8, "velocity": 100}, {"time": 2211, "pitch": 56, "duration": 7, "velocity": 114}, {"time": 2211, "pitch": 64, "duration": 1, "velocity": 47}, {"time": 2220, "pitch": 47, "duration": 7, "velocity": 102}, {"time": 2220, "pitch": 59, "duration": 5, "velocity": 111}, {"time": 2229, "pitch": 43, "duration": 8, "velocity": 90}, {"time": 2229, "pitch": 58, "duration": 7, "velocity": 97}, {"time": 2229, "pitch": 63, "duration": 8, "velocity": 92}, {"time": 2241, "pitch": 44, "duration": 4, "velocity": 105}, {"time": 2241, "pitch": 56, "duration": 3, "velocity": 111}, {"time": 2247, "pitch": 47, "duration": 3, "velocity": 111}, {"time": 2247, "pitch": 59, "duration": 4, "velocity": 117}, {"time": 2253, "pitch": 49, "duration": 4, "velocity": 111}, {"time": 2253, "pitch": 61, "duration": 3, "velocity": 108}, {"time": 2259, "pitch": 46, "duration": 4, "velocity": 105}, {"time": 2259, "pitch": 58, "duration": 3, "velocity": 123}, {"time": 2265, "pitch": 39, "duration": 3, "velocity": 105}, {"time": 2265, "pitch": 51, "duration": 4, "velocity": 92}, {"time": 2271, "pitch": 39, "duration": 4, "velocity": 100}, {"time": 2271, "pitch": 51, "duration": 9, "velocity": 117}, {"time": 2283, "pitch": 44, "duration": 9, "velocity": 102}, {"time": 2283, "pitch": 56, "duration": 8, "velocity": 108}, {"time": 2295, "pitch": 44, "duration": 10, "velocity": 102}, {"time": 2295, "pitch": 56, "duration": 9, "velocity": 100}, {"time": 2295, "pitch": 63, "duration": 9, "velocity": 94}, {"time": 2307, "pitch": 44, "duration": 8, "velocity": 100}, {"time": 2307, "pitch": 56, "duration": 7, "velocity": 114}, {"time": 2307, "pitch": 64, "duration": 1, "velocity": 47}, {"time": 2316, "pitch": 47, "duration": 7, "velocity": 102}, {"time": 2316, "pitch": 59, "duration": 5, "velocity": 111}, {"time": 2325, "pitch": 51, "duration": 5, "velocity": 82}, {"time": 2325, "pitch": 56, "duration": 5, "velocity": 97}, {"time": 2325, "pitch": 59, "duration": 5, "velocity": 105}, {"time": 2325, "pitch": 63, "duration": 5, "velocity": 100}, {"time": 2337, "pitch": 51, "duration": 3, "velocity": 117}, {"time": 2337, "pitch": 63, "duration": 3, "velocity": 108}, {"time": 2343, "pitch": 44, "duration": 4, "velocity": 102}, {"time": 2343, "pitch": 56, "duration": 3, "velocity": 111}, {"time": 2349, "pitch": 47, "duration": 3, "velocity": 114}, {"time": 2349, "pitch": 59, "duration": 3, "velocity": 108}, {"time": 2355, "pitch": 52, "duration": 4, "velocity": 105}, {"time": 2355, "pitch": 64, "duration": 4, "velocity": 111}, {"time": 2361, "pitch": 51, "duration": 4, "velocity": 111}, {"time": 2361, "pitch": 63, "duration": 4, "velocity": 89}, {"time": 2367, "pitch": 50, "duration": 3, "velocity": 116}, {"time": 2367, "pitch": 62, "duration": 3, "velocity": 105}, {"time": 2373, "pitch": 51, "duration": 4, "velocity": 97}, {"time": 2373, "pitch": 63, "duration": 4, "velocity": 82}, {"time": 2379, "pitch": 44, "duration": 9, "velocity": 102}, {"time": 2379, "pitch": 56, "duration": 8, "velocity": 108}, {"time": 2391, "pitch": 44, "duration": 10, "velocity": 102}, {"time": 2391, "pitch": 56, "duration": 9, "velocity": 100}, {"time": 2391, "pitch": 63, "duration": 9, "velocity": 94}, {"time": 2403, "pitch": 44, "duration": 8, "velocity": 100}, {"time": 2403, "pitch": 56, "duration": 7, "velocity": 114}, {"time": 2403, "pitch": 64, "duration": 1, "velocity": 47}, {"time": 2412, "pitch": 47, "duration": 7, "velocity": 102}, {"time": 2412, "pitch": 59, "duration": 5, "velocity": 111}, {"time": 2421, "pitch": 51, "duration": 7, "velocity": 111}, {"time": 2421, "pitch": 58, "duration": 8, "velocity": 94}, {"time": 2421, "pitch": 63, "duration": 7, "velocity": 100}, {"time": 2421, "pitch": 67, "duration": 8, "velocity": 82}, {"time": 2433, "pitch": 39, "duration": 4, "velocity": 100}, {"time": 2433, "pitch": 51, "duration": 3, "velocity": 102}, {"time": 2433, "pitch": 63, "duration": 4, "velocity": 100}, {"time": 2439, "pitch": 39, "duration": 3, "velocity": 94}, {"time": 2439, "pitch": 51, "duration": 4, "velocity": 100}, {"time": 2439, "pitch": 63, "duration": 4, "velocity": 102}, {"time": 2445, "pitch": 43, "duration": 3, "velocity": 99}, {"time": 2445, "pitch": 55, "duration": 3, "velocity": 116}, {"time": 2445, "pitch": 67, "duration": 4, "velocity": 105}, {"time": 2451, "pitch": 44, "duration": 17, "velocity": 102}, {"time": 2451, "pitch": 56, "duration": 20, "velocity": 117}, {"time": 2451, "pitch": 68, "duration": 19, "velocity": 100}, {"time": 2475, "pitch": 44, "duration": 14, "velocity": 100}, {"time": 2475, "pitch": 56, "duration": 12, "velocity": 80}, {"time": 2475, "pitch": 59, "duration": 12, "velocity": 87}, {"time": 2493, "pitch": 44, "duration": 25, "velocity": 102}, {"time": 2493, "pitch": 56, "duration": 6, "velocity": 92}, {"time": 2493, "pitch": 59, "duration": 6, "velocity": 105}, {"time": 2493, "pitch": 63, "duration": 7, "velocity": 100}, {"time": 2511, "pitch": 59, "duration": 4, "velocity": 114}, {"time": 2511, "pitch": 63, "duration": 4, "velocity": 111}, {"time": 2517, "pitch": 56, "duration": 3, "velocity": 100}, {"time": 2523, "pitch": 44, "duration": 16, "velocity": 108}, {"time": 2523, "pitch": 56, "duration": 8, "velocity": 100}, {"time": 2523, "pitch": 59, "duration": 9, "velocity": 97}, {"time": 2541, "pitch": 44, "duration": 26, "velocity": 105}, {"time": 2541, "pitch": 56, "duration": 13, "velocity": 82}, {"time": 2541, "pitch": 59, "duration": 14, "velocity": 87}, {"time": 2541, "pitch": 63, "duration": 12, "velocity": 89}, {"time": 2553, "pitch": 51, "duration": 5, "velocity": 48}, {"time": 2559, "pitch": 56, "duration": 3, "velocity": 100}, {"time": 2559, "pitch": 59, "duration": 4, "velocity": 117}, {"time": 2559, "pitch": 63, "duration": 5, "velocity": 108}, {"time": 2565, "pitch": 56, "duration": 2, "velocity": 87}, {"time": 2571, "pitch": 44, "duration": 43, "velocity": 102}, {"time": 2571, "pitch": 56, "duration": 14, "velocity": 84}, {"time": 2571, "pitch": 59, "duration": 13, "velocity": 89}, {"time": 2583, "pitch": 51, "duration": 26, "velocity": 71}, {"time": 2589, "pitch": 56, "duration": 16, "velocity": 108}, {"time": 2589, "pitch": 59, "duration": 16, "velocity": 114}, {"time": 2589, "pitch": 63, "duration": 15, "velocity": 105}, {"time": 2607, "pitch": 59, "duration": 8, "velocity": 117}, {"time": 2607, "pitch": 63, "duration": 8, "velocity": 111}, {"time": 2613, "pitch": 56, "duration": 4, "velocity": 111}, {"time": 2619, "pitch": 51, "duration": 11, "velocity": 105}, {"time": 2619, "pitch": 58, "duration": 10, "velocity": 97}, {"time": 2619, "pitch": 63, "duration": 9, "velocity": 108}, {"time": 2637, "pitch": 51, "duration": 27, "velocity": 102}, {"time": 2637, "pitch": 58, "duration": 10, "velocity": 102}, {"time": 2637, "pitch": 63, "duration": 15, "velocity": 102}, {"time": 2649, "pitch": 58, "duration": 4, "velocity": 92}, {"time": 2655, "pitch": 58, "duration": 2, "velocity": 94}, {"time": 2655, "pitch": 63, "duration": 8, "velocity": 108}, {"time": 2655, "pitch": 67, "duration": 9, "velocity": 93}, {"time": 2661, "pitch": 58, "duration": 4, "velocity": 84}, {"time": 2667, "pitch": 44, "duration": 45, "velocity": 100}, {"time": 2667, "pitch": 56, "duration": 12, "velocity": 92}, {"time": 2667, "pitch": 59, "duration": 12, "velocity": 92}, {"time": 2685, "pitch": 56, "duration": 5, "velocity": 102}, {"time": 2685, "pitch": 59, "duration": 5, "velocity": 102}, {"time": 2685, "pitch": 63, "duration": 5, "velocity": 102}, {"time": 2697, "pitch": 51, "duration": 14, "velocity": 69}, {"time": 2703, "pitch": 56, "duration": 3, "velocity": 111}, {"time": 2703, "pitch": 59, "duration": 7, "velocity": 114}, {"time": 2703, "pitch": 63, "duration": 8, "velocity": 105}, {"time": 2709, "pitch": 56, "duration": 3, "velocity": 100}, {"time": 2715, "pitch": 49, "duration": 41, "velocity": 87}, {"time": 2715, "pitch": 56, "duration": 16, "velocity": 89}, {"time": 2715, "pitch": 61, "duration": 16, "velocity": 97}, {"time": 2733, "pitch": 56, "duration": 9, "velocity": 108}, {"time": 2733, "pitch": 61, "duration": 15, "velocity": 108}, {"time": 2733, "pitch": 64, "duration": 14, "velocity": 102}, {"time": 2745, "pitch": 56, "duration": 4, "velocity": 80}, {"time": 2751, "pitch": 56, "duration": 3, "velocity": 105}, {"time": 2751, "pitch": 61, "duration": 10, "velocity": 108}, {"time": 2751, "pitch": 64, "duration": 9, "velocity": 105}, {"time": 2757, "pitch": 56, "duration": 6, "velocity": 111}, {"time": 2763, "pitch": 42, "duration": 45, "velocity": 105}, {"time": 2775, "pitch": 49, "duration": 8, "velocity": 44}, {"time": 2781, "pitch": 54, "duration": 5, "velocity": 108}, {"time": 2781, "pitch": 58, "duration": 6, "velocity": 111}, {"time": 2781, "pitch": 61, "duration": 6, "velocity": 94}, {"time": 2790, "pitch": 49, "duration": 15, "velocity": 66}, {"time": 2799, "pitch": 54, "duration": 3, "velocity": 105}, {"time": 2799, "pitch": 58, "duration": 8, "velocity": 117}, {"time": 2799, "pitch": 61, "duration": 10, "velocity": 102}, {"time": 2805, "pitch": 54, "duration": 3, "velocity": 73}, {"time": 2811, "pitch": 39, "duration": 4, "velocity": 108}, {"time": 2811, "pitch": 51, "duration": 5, "velocity": 105}, {"time": 2811, "pitch": 58, "duration": 6, "velocity": 94}, {"time": 2823, "pitch": 39, "duration": 10, "velocity": 111}, {"time": 2823, "pitch": 51, "duration": 9, "velocity": 108}, {"time": 2823, "pitch": 58, "duration": 9, "velocity": 100}, {"time": 2835, "pitch": 51, "duration": 3, "velocity": 105}, {"time": 2841, "pitch": 55, "duration": 3, "velocity": 109}, {"time": 2847, "pitch": 58, "duration": 4, "velocity": 97}, {"time": 2853, "pitch": 63, "duration": 3, "velocity": 64}, {"time": 2859, "pitch": 44, "duration": 14, "velocity": 100}, {"time": 2859, "pitch": 56, "duration": 12, "velocity": 80}, {"time": 2859, "pitch": 59, "duration": 12, "velocity": 87}, {"time": 2877, "pitch": 44, "duration": 25, "velocity": 102}, {"time": 2877, "pitch": 56, "duration": 6, "velocity": 92}, {"time": 2877, "pitch": 59, "duration": 6, "velocity": 105}, {"time": 2877, "pitch": 63, "duration": 7, "velocity": 100}, {"time": 2895, "pitch": 59, "duration": 4, "velocity": 114}, {"time": 2895, "pitch": 63, "duration": 4, "velocity": 111}, {"time": 2901, "pitch": 56, "duration": 3, "velocity": 100}, {"time": 2907, "pitch": 44, "duration": 16, "velocity": 108}, {"time": 2907, "pitch": 56, "duration": 8, "velocity": 100}, {"time": 2907, "pitch": 59, "duration": 9, "velocity": 97}, {"time": 2925, "pitch": 44, "duration": 26, "velocity": 105}, {"time": 2925, "pitch": 56, "duration": 13, "velocity": 82}, {"time": 2925, "pitch": 59, "duration": 14, "velocity": 87}, {"time": 2925, "pitch": 63, "duration": 12, "velocity": 89}, {"time": 2937, "pitch": 51, "duration": 5, "velocity": 48}, {"time": 2943, "pitch": 56, "duration": 3, "velocity": 100}, {"time": 2943, "pitch": 59, "duration": 4, "velocity": 117}, {"time": 2943, "pitch": 63, "duration": 5, "velocity": 108}, {"time": 2949, "pitch": 56, "duration": 2, "velocity": 87}, {"time": 2955, "pitch": 44, "duration": 43, "velocity": 102}, {"time": 2955, "pitch": 56, "duration": 14, "velocity": 84}, {"time": 2955, "pitch": 59, "duration": 13, "velocity": 89}, {"time": 2967, "pitch": 51, "duration": 26, "velocity": 71}, {"time": 2973, "pitch": 56, "duration": 16, "velocity": 108}, {"time": 2973, "pitch": 59, "duration": 16, "velocity": 114}, {"time": 2973, "pitch": 63, "duration": 15, "velocity": 105}, {"time": 2991, "pitch": 59, "duration": 8, "velocity": 117}, {"time": 2991, "pitch": 63, "duration": 8, "velocity": 111}, {"time": 2997, "pitch": 56, "duration": 4, "velocity": 111}, {"time": 3003, "pitch": 51, "duration": 11, "velocity": 105}, {"time": 3003, "pitch": 58, "duration": 10, "velocity": 97}, {"time": 3003, "pitch": 63, "duration": 9, "velocity": 108}, {"time": 3021, "pitch": 51, "duration": 27, "velocity": 102}, {"time": 3021, "pitch": 58, "duration": 10, "velocity": 102}, {"time": 3021, "pitch": 63, "duration": 15, "velocity": 102}, {"time": 3033, "pitch": 58, "duration": 4, "velocity": 92}, {"time": 3039, "pitch": 58, "duration": 2, "velocity": 94}, {"time": 3039, "pitch": 63, "duration": 8, "velocity": 108}, {"time": 3039, "pitch": 67, "duration": 9, "velocity": 93}, {"time": 3045, "pitch": 58, "duration": 4, "velocity": 84}, {"time": 3051, "pitch": 44, "duration": 45, "velocity": 100}, {"time": 3051, "pitch": 56, "duration": 12, "velocity": 92}, {"time": 3051, "pitch": 59, "duration": 12, "velocity": 92}, {"time": 3069, "pitch": 56, "duration": 5, "velocity": 102}, {"time": 3069, "pitch": 59, "duration": 5, "velocity": 102}, {"time": 3069, "pitch": 63, "duration": 5, "velocity": 102}, {"time": 3081, "pitch": 51, "duration": 14, "velocity": 69}, {"time": 3087, "pitch": 56, "duration": 3, "velocity": 111}, {"time": 3087, "pitch": 59, "duration": 7, "velocity": 114}, {"time": 3087, "pitch": 63, "duration": 8, "velocity": 105}, {"time": 3093, "pitch": 56, "duration": 3, "velocity": 100}, {"time": 3099, "pitch": 49, "duration": 41, "velocity": 87}, {"time": 3099, "pitch": 56, "duration": 16, "velocity": 89}, {"time": 3099, "pitch": 61, "duration": 16, "velocity": 97}, {"time": 3117, "pitch": 56, "duration": 9, "velocity": 108}, {"time": 3117, "pitch": 61, "duration": 15, "velocity": 108}, {"time": 3117, "pitch": 64, "duration": 14, "velocity": 102}, {"time": 3129, "pitch": 56, "duration": 4, "velocity": 80}, {"time": 3135, "pitch": 56, "duration": 3, "velocity": 105}, {"time": 3135, "pitch": 61, "duration": 10, "velocity": 108}, {"time": 3135, "pitch": 64, "duration": 9, "velocity": 105}, {"time": 3141, "pitch": 56, "duration": 6, "velocity": 111}, {"time": 3147, "pitch": 42, "duration": 45, "velocity": 105}, {"time": 3159, "pitch": 49, "duration": 8, "velocity": 44}, {"time": 3165, "pitch": 54, "duration": 5, "velocity": 108}, {"time": 3165, "pitch": 58, "duration": 6, "velocity": 111}, {"time": 3165, "pitch": 61, "duration": 6, "velocity": 94}, {"time": 3174, "pitch": 49, "duration": 15, "velocity": 66}, {"time": 3183, "pitch": 54, "duration": 3, "velocity": 105}, {"time": 3183, "pitch": 58, "duration": 8, "velocity": 117}, {"time": 3183, "pitch": 61, "duration": 10, "velocity": 102}, {"time": 3189, "pitch": 54, "duration": 3, "velocity": 73}, {"time": 3195, "pitch": 39, "duration": 6, "velocity": 114}, {"time": 3195, "pitch": 51, "duration": 6, "velocity": 114}, {"time": 3195, "pitch": 58, "duration": 6, "velocity": 100}, {"time": 3195, "pitch": 63, "duration": 5, "velocity": 105}, {"time": 3207, "pitch": 44, "duration": 35, "velocity": 108}, {"time": 3207, "pitch": 56, "duration": 15, "velocity": 97}, {"time": 3207, "pitch": 59, "duration": 15, "velocity": 100}, {"time": 3207, "pitch": 63, "duration": 15, "velocity": 97}, {"time": 3219, "pitch": 51, "duration": 22, "velocity": 57}, {"time": 3225, "pitch": 56, "duration": 3, "velocity": 71}, {"time": 3225, "pitch": 59, "duration": 2, "velocity": 69}, {"time": 3225, "pitch": 63, "duration": 3, "velocity": 87}, {"time": 3231, "pitch": 56, "duration": 3, "velocity": 84}, {"time": 3231, "pitch": 59, "duration": 3, "velocity": 97}, {"time": 3231, "pitch": 63, "duration": 4, "velocity": 97}, {"time": 3237, "pitch": 56, "duration": 3, "velocity": 102}, {"time": 3237, "pitch": 59, "duration": 3, "velocity": 100}, {"time": 3237, "pitch": 63, "duration": 3, "velocity": 97}, {"time": 3243, "pitch": 44, "duration": 45, "velocity": 108}, {"time": 3243, "pitch": 56, "duration": 8, "velocity": 100}, {"time": 3243, "pitch": 59, "duration": 8, "velocity": 111}, {"time": 3243, "pitch": 63, "duration": 7, "velocity": 105}, {"time": 3255, "pitch": 56, "duration": 3, "velocity": 64}, {"time": 3255, "pitch": 59, "duration": 3, "velocity": 92}, {"time": 3255, "pitch": 63, "duration": 4, "velocity": 89}, {"time": 3261, "pitch": 56, "duration": 2, "velocity": 64}, {"time": 3267, "pitch": 51, "duration": 21, "velocity": 97}, {"time": 3267, "pitch": 56, "duration": 2, "velocity": 73}, {"time": 3267, "pitch": 59, "duration": 4, "velocity": 114}, {"time": 3267, "pitch": 63, "duration": 4, "velocity": 105}, {"time": 3273, "pitch": 56, "duration": 4, "velocity": 105}, {"time": 3279, "pitch": 56, "duration": 2, "velocity": 94}, {"time": 3279, "pitch": 59, "duration": 3, "velocity": 123}, {"time": 3279, "pitch": 63, "duration": 4, "velocity": 123}, {"time": 3285, "pitch": 56, "duration": 4, "velocity": 120}, {"time": 3285, "pitch": 59, "duration": 2, "velocity": 92}, {"time": 3285, "pitch": 63, "duration": 2, "velocity": 82}, {"time": 3291, "pitch": 32, "duration": 6, "velocity": 111}, {"time": 3291, "pitch": 56, "duration": 9, "velocity": 97}, {"time": 3291, "pitch": 59, "duration": 9, "velocity": 102}, {"time": 3297, "pitch": 44, "duration": 6, "velocity": 108}, {"time": 3303, "pitch": 32, "duration": 6, "velocity": 102}, {"time": 3303, "pitch": 56, "duration": 7, "velocity": 102}, {"time": 3303, "pitch": 59, "duration": 7, "velocity": 108}, {"time": 3303, "pitch": 63, "duration": 7, "velocity": 102}, {"time": 3309, "pitch": 44, "duration": 5, "velocity": 117}, {"time": 3315, "pitch": 32, "duration": 7, "velocity": 100}, {"time": 3315, "pitch": 56, "duration": 7, "velocity": 94}, {"time": 3315, "pitch": 59, "duration": 7, "velocity": 100}, {"time": 3315, "pitch": 63, "duration": 7, "velocity": 97}, {"time": 3321, "pitch": 44, "duration": 6, "velocity": 108}, {"time": 3324, "pitch": 56, "duration": 5, "velocity": 102}, {"time": 3324, "pitch": 59, "duration": 5, "velocity": 108}, {"time": 3324, "pitch": 63, "duration": 4, "velocity": 100}, {"time": 3327, "pitch": 32, "duration": 5, "velocity": 97}, {"time": 3333, "pitch": 44, "duration": 4, "velocity": 111}, {"time": 3333, "pitch": 56, "duration": 4, "velocity": 105}, {"time": 3333, "pitch": 59, "duration": 3, "velocity": 102}, {"time": 3333, "pitch": 63, "duration": 3, "velocity": 100}, {"time": 3339, "pitch": 40, "duration": 7, "velocity": 102}, {"time": 3339, "pitch": 52, "duration": 10, "velocity": 94}, {"time": 3339, "pitch": 56, "duration": 10, "velocity": 100}, {"time": 3345, "pitch": 52, "duration": 4, "velocity": 111}, {"time": 3351, "pitch": 40, "duration": 6, "velocity": 97}, {"time": 3351, "pitch": 52, "duration": 9, "velocity": 102}, {"time": 3351, "pitch": 56, "duration": 9, "velocity": 111}, {"time": 3351, "pitch": 59, "duration": 9, "velocity": 105}, {"time": 3357, "pitch": 52, "duration": 3, "velocity": 114}, {"time": 3363, "pitch": 40, "duration": 7, "velocity": 100}, {"time": 3363, "pitch": 52, "duration": 7, "velocity": 105}, {"time": 3363, "pitch": 56, "duration": 7, "velocity": 114}, {"time": 3363, "pitch": 59, "duration": 7, "velocity": 105}, {"time": 3369, "pitch": 52, "duration": 1, "velocity": 111}, {"time": 3372, "pitch": 52, "duration": 3, "velocity": 97}, {"time": 3372, "pitch": 56, "duration": 4, "velocity": 108}, {"time": 3372, "pitch": 59, "duration": 4, "velocity": 102}, {"time": 3375, "pitch": 40, "duration": 6, "velocity": 105}, {"time": 3381, "pitch": 52, "duration": 3, "velocity": 94}, {"time": 3381, "pitch": 52, "duration": 3, "velocity": 114}, {"time": 3381, "pitch": 56, "duration": 3, "velocity": 105}, {"time": 3381, "pitch": 59, "duration": 4, "velocity": 100}, {"time": 3387, "pitch": 37, "duration": 6, "velocity": 97}, {"time": 3387, "pitch": 56, "duration": 10, "velocity": 84}, {"time": 3387, "pitch": 59, "duration": 3, "velocity": 80}, {"time": 3387, "pitch": 61, "duration": 10, "velocity": 80}, {"time": 3387, "pitch": 63, "duration": 4, "velocity": 64}, {"time": 3387, "pitch": 64, "duration": 10, "velocity": 67}, {"time": 3393, "pitch": 49, "duration": 4, "velocity": 105}, {"time": 3399, "pitch": 37, "duration": 6, "velocity": 100}, {"time": 3399, "pitch": 56, "duration": 8, "velocity": 114}, {"time": 3399, "pitch": 61, "duration": 6, "velocity": 111}, {"time": 3399, "pitch": 64, "duration": 8, "velocity": 108}, {"time": 3405, "pitch": 49, "duration": 5, "velocity": 108}, {"time": 3411, "pitch": 42, "duration": 7, "velocity": 82}, {"time": 3411, "pitch": 54, "duration": 7, "velocity": 87}, {"time": 3411, "pitch": 58, "duration": 7, "velocity": 105}, {"time": 3411, "pitch": 61, "duration": 7, "velocity": 97}, {"time": 3417, "pitch": 54, "duration": 1, "velocity": 111}, {"time": 3420, "pitch": 54, "duration": 2, "velocity": 87}, {"time": 3420, "pitch": 58, "duration": 4, "velocity": 105}, {"time": 3420, "pitch": 61, "duration": 4, "velocity": 94}, {"time": 3423, "pitch": 42, "duration": 4, "velocity": 102}, {"time": 3429, "pitch": 54, "duration": 3, "velocity": 78}, {"time": 3429, "pitch": 54, "duration": 3, "velocity": 114}, {"time": 3429, "pitch": 58, "duration": 4, "velocity": 94}, {"time": 3429, "pitch": 61, "duration": 4, "velocity": 87}, {"time": 3435, "pitch": 35, "duration": 6, "velocity": 100}, {"time": 3435, "pitch": 54, "duration": 9, "velocity": 84}, {"time": 3435, "pitch": 59, "duration": 9, "velocity": 94}, {"time": 3435, "pitch": 63, "duration": 9, "velocity": 92}, {"time": 3441, "pitch": 47, "duration": 4, "velocity": 102}, {"time": 3447, "pitch": 35, "duration": 6, "velocity": 89}, {"time": 3447, "pitch": 54, "duration": 9, "velocity": 105}, {"time": 3447, "pitch": 59, "duration": 9, "velocity": 111}, {"time": 3447, "pitch": 63, "duration": 9, "velocity": 100}, {"time": 3453, "pitch": 47, "duration": 5, "velocity": 97}, {"time": 3459, "pitch": 35, "duration": 6, "velocity": 87}, {"time": 3459, "pitch": 54, "duration": 7, "velocity": 102}, {"time": 3459, "pitch": 59, "duration": 7, "velocity": 108}, {"time": 3459, "pitch": 63, "duration": 7, "velocity": 100}, {"time": 3465, "pitch": 47, "duration": 6, "velocity": 108}, {"time": 3468, "pitch": 54, "duration": 4, "velocity": 89}, {"time": 3468, "pitch": 59, "duration": 4, "velocity": 97}, {"time": 3468, "pitch": 63, "duration": 4, "velocity": 92}, {"time": 3471, "pitch": 35, "duration": 8, "velocity": 97}, {"time": 3477, "pitch": 47, "duration": 4, "velocity": 108}, {"time": 3477, "pitch": 54, "duration": 3, "velocity": 97}, {"time": 3477, "pitch": 59, "duration": 3, "velocity": 102}, {"time": 3477, "pitch": 63, "duration": 4, "velocity": 97}, {"time": 3483, "pitch": 37, "duration": 7, "velocity": 105}, {"time": 3483, "pitch": 56, "duration": 10, "velocity": 89}, {"time": 3483, "pitch": 61, "duration": 10, "velocity": 100}, {"time": 3483, "pitch": 64, "duration": 9, "velocity": 105}, {"time": 3489, "pitch": 47, "duration": 3, "velocity": 82}, {"time": 3489, "pitch": 49, "duration": 4, "velocity": 89}, {"time": 3495, "pitch": 37, "duration": 6, "velocity": 100}, {"time": 3495, "pitch": 56, "duration": 9, "velocity": 94}, {"time": 3495, "pitch": 61, "duration": 9, "velocity": 100}, {"time": 3495, "pitch": 64, "duration": 9, "velocity": 100}, {"time": 3501, "pitch": 49, "duration": 5, "velocity": 108}, {"time": 3507, "pitch": 37, "duration": 7, "velocity": 97}, {"time": 3507, "pitch": 56, "duration": 7, "velocity": 100}, {"time": 3507, "pitch": 61, "duration": 7, "velocity": 97}, {"time": 3507, "pitch": 64, "duration": 7, "velocity": 92}, {"time": 3513, "pitch": 49, "duration": 6, "velocity": 105}, {"time": 3516, "pitch": 56, "duration": 5, "velocity": 102}, {"time": 3516, "pitch": 61, "duration": 5, "velocity": 97}, {"time": 3516, "pitch": 64, "duration": 4, "velocity": 94}, {"time": 3519, "pitch": 37, "duration": 7, "velocity": 100}, {"time": 3525, "pitch": 49, "duration": 4, "velocity": 108}, {"time": 3525, "pitch": 56, "duration": 5, "velocity": 92}, {"time": 3525, "pitch": 61, "duration": 4, "velocity": 89}, {"time": 3525, "pitch": 64, "duration": 4, "velocity": 82}, {"time": 3531, "pitch": 39, "duration": 7, "velocity": 102}, {"time": 3531, "pitch": 58, "duration": 10, "velocity": 94}, {"time": 3531, "pitch": 63, "duration": 10, "velocity": 97}, {"time": 3531, "pitch": 66, "duration": 10, "velocity": 94}, {"time": 3537, "pitch": 51, "duration": 6, "velocity": 114}, {"time": 3543, "pitch": 39, "duration": 5, "velocity": 102}, {"time": 3543, "pitch": 58, "duration": 9, "velocity": 105}, {"time": 3543, "pitch": 63, "duration": 8, "velocity": 108}, {"time": 3543, "pitch": 66, "duration": 7, "velocity": 108}, {"time": 3549, "pitch": 51, "duration": 5, "velocity": 97}, {"time": 3555, "pitch": 32, "duration": 6, "velocity": 84}, {"time": 3555, "pitch": 56, "duration": 7, "velocity": 94}, {"time": 3555, "pitch": 59, "duration": 7, "velocity": 100}, {"time": 3561, "pitch": 44, "duration": 5, "velocity": 114}, {"time": 3564, "pitch": 56, "duration": 6, "velocity": 97}, {"time": 3564, "pitch": 59, "duration": 6, "velocity": 102}, {"time": 3564, "pitch": 63, "duration": 4, "velocity": 97}, {"time": 3567, "pitch": 32, "duration": 6, "velocity": 105}, {"time": 3573, "pitch": 44, "duration": 5, "velocity": 117}, {"time": 3573, "pitch": 56, "duration": 4, "velocity": 102}, {"time": 3573, "pitch": 59, "duration": 4, "velocity": 111}, {"time": 3573, "pitch": 63, "duration": 4, "velocity": 100}, {"time": 3579, "pitch": 40, "duration": 6, "velocity": 89}, {"time": 3579, "pitch": 56, "duration": 11, "velocity": 92}, {"time": 3579, "pitch": 59, "duration": 11, "velocity": 97}, {"time": 3579, "pitch": 64, "duration": 11, "velocity": 97}, {"time": 3585, "pitch": 52, "duration": 4, "velocity": 102}, {"time": 3591, "pitch": 40, "duration": 6, "velocity": 78}, {"time": 3591, "pitch": 56, "duration": 10, "velocity": 105}, {"time": 3591, "pitch": 59, "duration": 10, "velocity": 111}, {"time": 3591, "pitch": 64, "duration": 10, "velocity": 105}, {"time": 3597, "pitch": 52, "duration": 5, "velocity": 80}, {"time": 3603, "pitch": 40, "duration": 6, "velocity": 78}, {"time": 3603, "pitch": 56, "duration": 8, "velocity": 102}, {"time": 3603, "pitch": 59, "duration": 7, "velocity": 105}, {"time": 3603, "pitch": 64, "duration": 7, "velocity": 102}, {"time": 3609, "pitch": 52, "duration": 5, "velocity": 102}, {"time": 3612, "pitch": 56, "duration": 6, "velocity": 100}, {"time": 3612, "pitch": 59, "duration": 6, "velocity": 94}, {"time": 3612, "pitch": 64, "duration": 6, "velocity": 102}, {"time": 3615, "pitch": 40, "duration": 6, "velocity": 87}, {"time": 3621, "pitch": 52, "duration": 5, "velocity": 97}, {"time": 3621, "pitch": 56, "duration": 4, "velocity": 100}, {"time": 3621, "pitch": 59, "duration": 5, "velocity": 97}, {"time": 3621, "pitch": 64, "duration": 4, "velocity": 89}, {"time": 3627, "pitch": 39, "duration": 5, "velocity": 45}, {"time": 3627, "pitch": 58, "duration": 9, "velocity": 102}, {"time": 3627, "pitch": 63, "duration": 9, "velocity": 100}, {"time": 3633, "pitch": 51, "duration": 5, "velocity": 105}, {"time": 3639, "pitch": 39, "duration": 6, "velocity": 82}, {"time": 3639, "pitch": 58, "duration": 10, "velocity": 108}, {"time": 3639, "pitch": 63, "duration": 10, "velocity": 105}, {"time": 3645, "pitch": 51, "duration": 5, "velocity": 102}, {"time": 3651, "pitch": 39, "duration": 6, "velocity": 92}, {"time": 3651, "pitch": 58, "duration": 7, "velocity": 105}, {"time": 3651, "pitch": 63, "duration": 7, "velocity": 111}, {"time": 3657, "pitch": 51, "duration": 6, "velocity": 100}, {"time": 3660, "pitch": 58, "duration": 6, "velocity": 97}, {"time": 3660, "pitch": 63, "duration": 6, "velocity": 94}, {"time": 3663, "pitch": 39, "duration": 7, "velocity": 97}, {"time": 3669, "pitch": 51, "duration": 5, "velocity": 102}, {"time": 3669, "pitch": 58, "duration": 6, "velocity": 102}, {"time": 3669, "pitch": 63, "duration": 5, "velocity": 102}, {"time": 3675, "pitch": 32, "duration": 6, "velocity": 111}, {"time": 3675, "pitch": 56, "duration": 9, "velocity": 97}, {"time": 3675, "pitch": 59, "duration": 9, "velocity": 102}, {"time": 3681, "pitch": 44, "duration": 6, "velocity": 108}, {"time": 3687, "pitch": 32, "duration": 6, "velocity": 102}, {"time": 3687, "pitch": 56, "duration": 7, "velocity": 102}, {"time": 3687, "pitch": 59, "duration": 7, "velocity": 108}, {"time": 3687, "pitch": 63, "duration": 7, "velocity": 102}, {"time": 3693, "pitch": 44, "duration": 5, "velocity": 117}, {"time": 3699, "pitch": 32, "duration": 7, "velocity": 100}, {"time": 3699, "pitch": 56, "duration": 7, "velocity": 94}, {"time": 3699, "pitch": 59, "duration": 7, "velocity": 100}, {"time": 3699, "pitch": 63, "duration": 7, "velocity": 97}, {"time": 3705, "pitch": 44, "duration": 6, "velocity": 108}, {"time": 3708, "pitch": 56, "duration": 5, "velocity": 102}, {"time": 3708, "pitch": 59, "duration": 5, "velocity": 108}, {"time": 3708, "pitch": 63, "duration": 4, "velocity": 100}, {"time": 3711, "pitch": 32, "duration": 5, "velocity": 97}, {"time": 3717, "pitch": 44, "duration": 4, "velocity": 111}, {"time": 3717, "pitch": 56, "duration": 4, "velocity": 105}, {"time": 3717, "pitch": 59, "duration": 3, "velocity": 102}, {"time": 3717, "pitch": 63, "duration": 3, "velocity": 100}, {"time": 3723, "pitch": 40, "duration": 7, "velocity": 102}, {"time": 3723, "pitch": 52, "duration": 10, "velocity": 94}, {"time": 3723, "pitch": 56, "duration": 10, "velocity": 100}, {"time": 3729, "pitch": 52, "duration": 4, "velocity": 111}, {"time": 3735, "pitch": 40, "duration": 6, "velocity": 97}, {"time": 3735, "pitch": 52, "duration": 9, "velocity": 102}, {"time": 3735, "pitch": 56, "duration": 9, "velocity": 111}, {"time": 3735, "pitch": 59, "duration": 9, "velocity": 105}, {"time": 3741, "pitch": 52, "duration": 3, "velocity": 114}, {"time": 3747, "pitch": 40, "duration": 7, "velocity": 100}, {"time": 3747, "pitch": 52, "duration": 7, "velocity": 105}, {"time": 3747, "pitch": 56, "duration": 7, "velocity": 114}, {"time": 3747, "pitch": 59, "duration": 7, "velocity": 105}, {"time": 3753, "pitch": 52, "duration": 1, "velocity": 111}, {"time": 3756, "pitch": 52, "duration": 3, "velocity": 97}, {"time": 3756, "pitch": 56, "duration": 4, "velocity": 108}, {"time": 3756, "pitch": 59, "duration": 4, "velocity": 102}, {"time": 3759, "pitch": 40, "duration": 6, "velocity": 105}, {"time": 3765, "pitch": 52, "duration": 3, "velocity": 94}, {"time": 3765, "pitch": 52, "duration": 3, "velocity": 114}, {"time": 3765, "pitch": 56, "duration": 3, "velocity": 105}, {"time": 3765, "pitch": 59, "duration": 4, "velocity": 100}, {"time": 3771, "pitch": 37, "duration": 6, "velocity": 97}, {"time": 3771, "pitch": 56, "duration": 10, "velocity": 84}, {"time": 3771, "pitch": 59, "duration": 3, "velocity": 80}, {"time": 3771, "pitch": 61, "duration": 10, "velocity": 80}, {"time": 3771, "pitch": 63, "duration": 4, "velocity": 64}, {"time": 3771, "pitch": 64, "duration": 10, "velocity": 67}, {"time": 3777, "pitch": 49, "duration": 4, "velocity": 105}, {"time": 3783, "pitch": 37, "duration": 6, "velocity": 100}, {"time": 3783, "pitch": 56, "duration": 8, "velocity": 114}, {"time": 3783, "pitch": 61, "duration": 6, "velocity": 111}, {"time": 3783, "pitch": 64, "duration": 8, "velocity": 108}, {"time": 3789, "pitch": 49, "duration": 5, "velocity": 108}, {"time": 3795, "pitch": 42, "duration": 7, "velocity": 82}, {"time": 3795, "pitch": 54, "duration": 7, "velocity": 87}, {"time": 3795, "pitch": 58, "duration": 7, "velocity": 105}, {"time": 3795, "pitch": 61, "duration": 7, "velocity": 97}, {"time": 3801, "pitch": 54, "duration": 1, "velocity": 111}, {"time": 3804, "pitch": 54, "duration": 2, "velocity": 87}, {"time": 3804, "pitch": 58, "duration": 4, "velocity": 105}, {"time": 3804, "pitch": 61, "duration": 4, "velocity": 94}, {"time": 3807, "pitch": 42, "duration": 4, "velocity": 102}, {"time": 3813, "pitch": 54, "duration": 3, "velocity": 78}, {"time": 3813, "pitch": 54, "duration": 3, "velocity": 114}, {"time": 3813, "pitch": 58, "duration": 4, "velocity": 94}, {"time": 3813, "pitch": 61, "duration": 4, "velocity": 87}, {"time": 3819, "pitch": 35, "duration": 6, "velocity": 100}, {"time": 3819, "pitch": 54, "duration": 9, "velocity": 84}, {"time": 3819, "pitch": 59, "duration": 9, "velocity": 94}, {"time": 3819, "pitch": 63, "duration": 9, "velocity": 92}, {"time": 3825, "pitch": 47, "duration": 4, "velocity": 102}, {"time": 3831, "pitch": 35, "duration": 6, "velocity": 89}, {"time": 3831, "pitch": 54, "duration": 9, "velocity": 105}, {"time": 3831, "pitch": 59, "duration": 9, "velocity": 111}, {"time": 3831, "pitch": 63, "duration": 9, "velocity": 100}, {"time": 3837, "pitch": 47, "duration": 5, "velocity": 97}, {"time": 3843, "pitch": 35, "duration": 6, "velocity": 87}, {"time": 3843, "pitch": 54, "duration": 7, "velocity": 102}, {"time": 3843, "pitch": 59, "duration": 7, "velocity": 108}, {"time": 3843, "pitch": 63, "duration": 7, "velocity": 100}, {"time": 3849, "pitch": 47, "duration": 6, "velocity": 108}, {"time": 3852, "pitch": 54, "duration": 4, "velocity": 89}, {"time": 3852, "pitch": 59, "duration": 4, "velocity": 97}, {"time": 3852, "pitch": 63, "duration": 4, "velocity": 92}, {"time": 3855, "pitch": 35, "duration": 8, "velocity": 97}, {"time": 3861, "pitch": 47, "duration": 4, "velocity": 108}, {"time": 3861, "pitch": 54, "duration": 3, "velocity": 97}, {"time": 3861, "pitch": 59, "duration": 3, "velocity": 102}, {"time": 3861, "pitch": 63, "duration": 4, "velocity": 97}, {"time": 3867, "pitch": 37, "duration": 7, "velocity": 105}, {"time": 3867, "pitch": 56, "duration": 10, "velocity": 89}, {"time": 3867, "pitch": 61, "duration": 10, "velocity": 100}, {"time": 3867, "pitch": 64, "duration": 9, "velocity": 105}, {"time": 3873, "pitch": 47, "duration": 3, "velocity": 82}, {"time": 3873, "pitch": 49, "duration": 4, "velocity": 89}, {"time": 3879, "pitch": 37, "duration": 6, "velocity": 100}, {"time": 3879, "pitch": 56, "duration": 9, "velocity": 94}, {"time": 3879, "pitch": 61, "duration": 9, "velocity": 100}, {"time": 3879, "pitch": 64, "duration": 9, "velocity": 100}, {"time": 3885, "pitch": 49, "duration": 5, "velocity": 108}, {"time": 3891, "pitch": 37, "duration": 7, "velocity": 97}, {"time": 3891, "pitch": 56, "duration": 7, "velocity": 100}, {"time": 3891, "pitch": 61, "duration": 7, "velocity": 97}, {"time": 3891, "pitch": 64, "duration": 7, "velocity": 92}, {"time": 3897, "pitch": 49, "duration": 6, "velocity": 105}, {"time": 3900, "pitch": 56, "duration": 5, "velocity": 102}, {"time": 3900, "pitch": 61, "duration": 5, "velocity": 97}, {"time": 3900, "pitch": 64, "duration": 4, "velocity": 94}, {"time": 3903, "pitch": 37, "duration": 7, "velocity": 100}, {"time": 3909, "pitch": 49, "duration": 4, "velocity": 108}, {"time": 3909, "pitch": 56, "duration": 5, "velocity": 92}, {"time": 3909, "pitch": 61, "duration": 4, "velocity": 89}, {"time": 3909, "pitch": 64, "duration": 4, "velocity": 82}, {"time": 3915, "pitch": 39, "duration": 7, "velocity": 102}, {"time": 3915, "pitch": 58, "duration": 10, "velocity": 94}, {"time": 3915, "pitch": 63, "duration": 10, "velocity": 97}, {"time": 3915, "pitch": 66, "duration": 10, "velocity": 94}, {"time": 3921, "pitch": 51, "duration": 6, "velocity": 114}, {"time": 3927, "pitch": 39, "duration": 5, "velocity": 102}, {"time": 3927, "pitch": 58, "duration": 9, "velocity": 105}, {"time": 3927, "pitch": 63, "duration": 8, "velocity": 108}, {"time": 3927, "pitch": 66, "duration": 7, "velocity": 108}, {"time": 3933, "pitch": 51, "duration": 5, "velocity": 97}, {"time": 3939, "pitch": 32, "duration": 6, "velocity": 84}, {"time": 3939, "pitch": 56, "duration": 7, "velocity": 94}, {"time": 3939, "pitch": 59, "duration": 7, "velocity": 100}, {"time": 3945, "pitch": 44, "duration": 5, "velocity": 114}, {"time": 3948, "pitch": 56, "duration": 6, "velocity": 97}, {"time": 3948, "pitch": 59, "duration": 6, "velocity": 102}, {"time": 3948, "pitch": 63, "duration": 4, "velocity": 97}, {"time": 3951, "pitch": 32, "duration": 6, "velocity": 105}, {"time": 3957, "pitch": 44, "duration": 5, "velocity": 117}, {"time": 3957, "pitch": 56, "duration": 4, "velocity": 102}, {"time": 3957, "pitch": 59, "duration": 4, "velocity": 111}, {"time": 3957, "pitch": 63, "duration": 4, "velocity": 100}, {"time": 3963, "pitch": 40, "duration": 6, "velocity": 89}, {"time": 3963, "pitch": 56, "duration": 11, "velocity": 92}, {"time": 3963, "pitch": 59, "duration": 11, "velocity": 97}, {"time": 3963, "pitch": 64, "duration": 11, "velocity": 97}, {"time": 3969, "pitch": 52, "duration": 4, "velocity": 102}, {"time": 3975, "pitch": 40, "duration": 6, "velocity": 78}, {"time": 3975, "pitch": 56, "duration": 10, "velocity": 105}, {"time": 3975, "pitch": 59, "duration": 10, "velocity": 111}, {"time": 3975, "pitch": 64, "duration": 10, "velocity": 105}, {"time": 3981, "pitch": 52, "duration": 5, "velocity": 80}, {"time": 3987, "pitch": 40, "duration": 6, "velocity": 78}, {"time": 3987, "pitch": 56, "duration": 8, "velocity": 102}, {"time": 3987, "pitch": 59, "duration": 7, "velocity": 105}, {"time": 3987, "pitch": 64, "duration": 7, "velocity": 102}, {"time": 3993, "pitch": 52, "duration": 5, "velocity": 102}, {"time": 3996, "pitch": 56, "duration": 6, "velocity": 100}, {"time": 3996, "pitch": 59, "duration": 6, "velocity": 94}, {"time": 3996, "pitch": 64, "duration": 6, "velocity": 102}, {"time": 3999, "pitch": 40, "duration": 6, "velocity": 87}, {"time": 4005, "pitch": 52, "duration": 5, "velocity": 97}, {"time": 4005, "pitch": 56, "duration": 4, "velocity": 100}, {"time": 4005, "pitch": 59, "duration": 5, "velocity": 97}, {"time": 4005, "pitch": 64, "duration": 4, "velocity": 89}, {"time": 4011, "pitch": 39, "duration": 5, "velocity": 45}, {"time": 4011, "pitch": 58, "duration": 9, "velocity": 102}, {"time": 4011, "pitch": 63, "duration": 9, "velocity": 100}, {"time": 4017, "pitch": 51, "duration": 5, "velocity": 105}, {"time": 4023, "pitch": 39, "duration": 6, "velocity": 82}, {"time": 4023, "pitch": 58, "duration": 10, "velocity": 108}, {"time": 4023, "pitch": 63, "duration": 10, "velocity": 105}, {"time": 4029, "pitch": 51, "duration": 5, "velocity": 102}, {"time": 4035, "pitch": 44, "duration": 7, "velocity": 97}, {"time": 4035, "pitch": 59, "duration": 8, "velocity": 94}, {"time": 4035, "pitch": 63, "duration": 8, "velocity": 108}, {"time": 4035, "pitch": 68, "duration": 8, "velocity": 97}, {"time": 4041, "pitch": 56, "duration": 9, "velocity": 92}, {"time": 4044, "pitch": 59, "duration": 6, "velocity": 87}, {"time": 4044, "pitch": 63, "duration": 6, "velocity": 97}, {"time": 4044, "pitch": 68, "duration": 6, "velocity": 105}, {"time": 4047, "pitch": 44, "duration": 9, "velocity": 89}, {"time": 4053, "pitch": 56, "duration": 5, "velocity": 111}, {"time": 4053, "pitch": 59, "duration": 5, "velocity": 89}, {"time": 4053, "pitch": 63, "duration": 5, "velocity": 97}, {"time": 4053, "pitch": 68, "duration": 5, "velocity": 97}, {"time": 4059, "pitch": 32, "duration": 6, "velocity": 105}, {"time": 4065, "pitch": 44, "duration": 5, "velocity": 97}, {"time": 4065, "pitch": 59, "duration": 5, "velocity": 94}, {"time": 4065, "pitch": 63, "duration": 4, "velocity": 94}, {"time": 4065, "pitch": 68, "duration": 5, "velocity": 94}, {"time": 4071, "pitch": 32, "duration": 6, "velocity": 82}, {"time": 4077, "pitch": 44, "duration": 5, "velocity": 100}, {"time": 4077, "pitch": 59, "duration": 5, "velocity": 69}, {"time": 4077, "pitch": 63, "duration": 5, "velocity": 80}, {"time": 4077, "pitch": 68, "duration": 6, "velocity": 87}, {"time": 4083, "pitch": 32, "duration": 6, "velocity": 100}, {"time": 4089, "pitch": 44, "duration": 5, "velocity": 97}, {"time": 4089, "pitch": 59, "duration": 6, "velocity": 78}, {"time": 4089, "pitch": 63, "duration": 5, "velocity": 87}, {"time": 4089, "pitch": 68, "duration": 6, "velocity": 80}, {"time": 4095, "pitch": 32, "duration": 6, "velocity": 89}, {"time": 4101, "pitch": 44, "duration": 5, "velocity": 92}, {"time": 4101, "pitch": 59, "duration": 8, "velocity": 87}, {"time": 4101, "pitch": 63, "duration": 8, "velocity": 92}, {"time": 4101, "pitch": 68, "duration": 8, "velocity": 92}, {"time": 4107, "pitch": 32, "duration": 5, "velocity": 78}, {"time": 4113, "pitch": 44, "duration": 5, "velocity": 89}, {"time": 4113, "pitch": 59, "duration": 7, "velocity": 89}, {"time": 4113, "pitch": 63, "duration": 7, "velocity": 94}, {"time": 4113, "pitch": 68, "duration": 8, "velocity": 94}, {"time": 4119, "pitch": 32, "duration": 6, "velocity": 84}, {"time": 4125, "pitch": 44, "duration": 5, "velocity": 97}, {"time": 4125, "pitch": 59, "duration": 6, "velocity": 80}, {"time": 4125, "pitch": 63, "duration": 6, "velocity": 89}, {"time": 4125, "pitch": 68, "duration": 6, "velocity": 94}, {"time": 4131, "pitch": 32, "duration": 5, "velocity": 87}, {"time": 4137, "pitch": 44, "duration": 6, "velocity": 89}, {"time": 4137, "pitch": 59, "duration": 7, "velocity": 80}, {"time": 4137, "pitch": 63, "duration": 7, "velocity": 87}, {"time": 4137, "pitch": 68, "duration": 8, "velocity": 94}, {"time": 4143, "pitch": 32, "duration": 6, "velocity": 82}, {"time": 4149, "pitch": 44, "duration": 5, "velocity": 102}, {"time": 4149, "pitch": 59, "duration": 6, "velocity": 84}, {"time": 4149, "pitch": 63, "duration": 5, "velocity": 94}, {"time": 4149, "pitch": 68, "duration": 5, "velocity": 92}, {"time": 4155, "pitch": 32, "duration": 6, "velocity": 105}, {"time": 4161, "pitch": 44, "duration": 5, "velocity": 97}, {"time": 4161, "pitch": 59, "duration": 5, "velocity": 94}, {"time": 4161, "pitch": 63, "duration": 4, "velocity": 94}, {"time": 4161, "pitch": 68, "duration": 5, "velocity": 94}, {"time": 4167, "pitch": 32, "duration": 6, "velocity": 82}, {"time": 4173, "pitch": 44, "duration": 5, "velocity": 100}, {"time": 4173, "pitch": 59, "duration": 5, "velocity": 69}, {"time": 4173, "pitch": 63, "duration": 5, "velocity": 80}, {"time": 4173, "pitch": 68, "duration": 6, "velocity": 87}, {"time": 4179, "pitch": 32, "duration": 6, "velocity": 100}, {"time": 4185, "pitch": 44, "duration": 5, "velocity": 97}, {"time": 4185, "pitch": 59, "duration": 6, "velocity": 78}, {"time": 4185, "pitch": 63, "duration": 5, "velocity": 87}, {"time": 4185, "pitch": 68, "duration": 6, "velocity": 80}, {"time": 4191, "pitch": 32, "duration": 6, "velocity": 89}, {"time": 4197, "pitch": 44, "duration": 5, "velocity": 92}, {"time": 4197, "pitch": 59, "duration": 8, "velocity": 87}, {"time": 4197, "pitch": 63, "duration": 8, "velocity": 92}, {"time": 4197, "pitch": 68, "duration": 8, "velocity": 92}, {"time": 4203, "pitch": 32, "duration": 5, "velocity": 78}, {"time": 4209, "pitch": 44, "duration": 5, "velocity": 89}, {"time": 4209, "pitch": 59, "duration": 7, "velocity": 89}, {"time": 4209, "pitch": 63, "duration": 7, "velocity": 94}, {"time": 4209, "pitch": 68, "duration": 8, "velocity": 94}, {"time": 4215, "pitch": 32, "duration": 6, "velocity": 84}, {"time": 4221, "pitch": 44, "duration": 5, "velocity": 97}, {"time": 4221, "pitch": 59, "duration": 6, "velocity": 80}, {"time": 4221, "pitch": 63, "duration": 6, "velocity": 89}, {"time": 4221, "pitch": 68, "duration": 6, "velocity": 94}, {"time": 4227, "pitch": 32, "duration": 5, "velocity": 87}, {"time": 4233, "pitch": 44, "duration": 6, "velocity": 89}, {"time": 4233, "pitch": 59, "duration": 7, "velocity": 80}, {"time": 4233, "pitch": 63, "duration": 7, "velocity": 87}, {"time": 4233, "pitch": 68, "duration": 8, "velocity": 94}, {"time": 4239, "pitch": 32, "duration": 6, "velocity": 82}, {"time": 4245, "pitch": 44, "duration": 5, "velocity": 102}, {"time": 4245, "pitch": 59, "duration": 6, "velocity": 84}, {"time": 4245, "pitch": 63, "duration": 5, "velocity": 94}, {"time": 4245, "pitch": 68, "duration": 5, "velocity": 92}, {"time": 4251, "pitch": 32, "duration": 6, "velocity": 105}, {"time": 4257, "pitch": 44, "duration": 5, "velocity": 97}, {"time": 4257, "pitch": 59, "duration": 5, "velocity": 94}, {"time": 4257, "pitch": 63, "duration": 4, "velocity": 94}, {"time": 4257, "pitch": 68, "duration": 5, "velocity": 94}, {"time": 4263, "pitch": 32, "duration": 6, "velocity": 82}, {"time": 4269, "pitch": 44, "duration": 5, "velocity": 100}, {"time": 4269, "pitch": 59, "duration": 5, "velocity": 69}, {"time": 4269, "pitch": 63, "duration": 5, "velocity": 80}, {"time": 4269, "pitch": 68, "duration": 6, "velocity": 87}, {"time": 4275, "pitch": 32, "duration": 6, "velocity": 100}, {"time": 4281, "pitch": 44, "duration": 5, "velocity": 97}, {"time": 4281, "pitch": 59, "duration": 6, "velocity": 78}, {"time": 4281, "pitch": 63, "duration": 5, "velocity": 87}, {"time": 4281, "pitch": 68, "duration": 6, "velocity": 80}, {"time": 4287, "pitch": 32, "duration": 6, "velocity": 89}, {"time": 4293, "pitch": 44, "duration": 5, "velocity": 92}, {"time": 4293, "pitch": 59, "duration": 8, "velocity": 87}, {"time": 4293, "pitch": 63, "duration": 8, "velocity": 92}, {"time": 4293, "pitch": 68, "duration": 8, "velocity": 92}, {"time": 4299, "pitch": 32, "duration": 5, "velocity": 78}, {"time": 4305, "pitch": 44, "duration": 5, "velocity": 89}, {"time": 4305, "pitch": 59, "duration": 7, "velocity": 89}, {"time": 4305, "pitch": 63, "duration": 7, "velocity": 94}, {"time": 4305, "pitch": 68, "duration": 8, "velocity": 94}, {"time": 4311, "pitch": 32, "duration": 6, "velocity": 84}, {"time": 4317, "pitch": 44, "duration": 5, "velocity": 97}, {"time": 4317, "pitch": 59, "duration": 6, "velocity": 80}, {"time": 4317, "pitch": 63, "duration": 6, "velocity": 89}, {"time": 4317, "pitch": 68, "duration": 6, "velocity": 94}, {"time": 4323, "pitch": 32, "duration": 5, "velocity": 87}, {"time": 4329, "pitch": 44, "duration": 6, "velocity": 89}, {"time": 4329, "pitch": 59, "duration": 7, "velocity": 80}, {"time": 4329, "pitch": 63, "duration": 7, "velocity": 87}, {"time": 4329, "pitch": 68, "duration": 8, "velocity": 94}, {"time": 4335, "pitch": 32, "duration": 6, "velocity": 82}, {"time": 4341, "pitch": 44, "duration": 5, "velocity": 102}, {"time": 4341, "pitch": 59, "duration": 6, "velocity": 84}, {"time": 4341, "pitch": 63, "duration": 5, "velocity": 94}, {"time": 4341, "pitch": 68, "duration": 5, "velocity": 92}, {"time": 4347, "pitch": 32, "duration": 6, "velocity": 105}, {"time": 4353, "pitch": 44, "duration": 5, "velocity": 97}, {"time": 4353, "pitch": 59, "duration": 5, "velocity": 94}, {"time": 4353, "pitch": 63, "duration": 4, "velocity": 94}, {"time": 4353, "pitch": 68, "duration": 5, "velocity": 94}, {"time": 4359, "pitch": 32, "duration": 6, "velocity": 82}, {"time": 4365, "pitch": 44, "duration": 5, "velocity": 100}, {"time": 4365, "pitch": 59, "duration": 5, "velocity": 69}, {"time": 4365, "pitch": 63, "duration": 5, "velocity": 80}, {"time": 4365, "pitch": 68, "duration": 6, "velocity": 87}, {"time": 4371, "pitch": 32, "duration": 6, "velocity": 100}, {"time": 4377, "pitch": 44, "duration": 5, "velocity": 97}, {"time": 4377, "pitch": 59, "duration": 6, "velocity": 78}, {"time": 4377, "pitch": 63, "duration": 5, "velocity": 87}, {"time": 4377, "pitch": 68, "duration": 6, "velocity": 80}, {"time": 4383, "pitch": 32, "duration": 6, "velocity": 89}, {"time": 4389, "pitch": 44, "duration": 5, "velocity": 92}, {"time": 4389, "pitch": 59, "duration": 8, "velocity": 87}, {"time": 4389, "pitch": 63, "duration": 8, "velocity": 92}, {"time": 4389, "pitch": 68, "duration": 8, "velocity": 92}, {"time": 4395, "pitch": 32, "duration": 5, "velocity": 78}, {"time": 4401, "pitch": 44, "duration": 5, "velocity": 89}, {"time": 4401, "pitch": 59, "duration": 7, "velocity": 89}, {"time": 4401, "pitch": 63, "duration": 7, "velocity": 94}, {"time": 4401, "pitch": 68, "duration": 8, "velocity": 94}, {"time": 4407, "pitch": 32, "duration": 6, "velocity": 84}, {"time": 4413, "pitch": 44, "duration": 5, "velocity": 97}, {"time": 4413, "pitch": 59, "duration": 6, "velocity": 80}, {"time": 4413, "pitch": 63, "duration": 6, "velocity": 89}, {"time": 4413, "pitch": 68, "duration": 6, "velocity": 94}, {"time": 4419, "pitch": 32, "duration": 5, "velocity": 87}, {"time": 4425, "pitch": 44, "duration": 6, "velocity": 89}, {"time": 4425, "pitch": 59, "duration": 7, "velocity": 80}, {"time": 4425, "pitch": 63, "duration": 7, "velocity": 87}, {"time": 4425, "pitch": 68, "duration": 8, "velocity": 94}, {"time": 4431, "pitch": 32, "duration": 6, "velocity": 82}, {"time": 4437, "pitch": 44, "duration": 5, "velocity": 102}, {"time": 4437, "pitch": 59, "duration": 6, "velocity": 84}, {"time": 4437, "pitch": 63, "duration": 5, "velocity": 94}, {"time": 4437, "pitch": 68, "duration": 5, "velocity": 92}, {"time": 4443, "pitch": 32, "duration": 48, "velocity": 105}, {"time": 4443, "pitch": 44, "duration": 48, "velocity": 97}, {"time": 4443, "pitch": 63, "duration": 47, "velocity": 92}, {"time": 4443, "pitch": 68, "duration": 48, "velocity": 97}, {"time": 4443, "pitch": 71, "duration": 48, "velocity": 100}, {"time": 4491, "pitch": 32, "duration": 6, "velocity": 111}, {"time": 4491, "pitch": 56, "duration": 9, "velocity": 97}, {"time": 4491, "pitch": 59, "duration": 9, "velocity": 102}, {"time": 4497, "pitch": 44, "duration": 6, "velocity": 108}, {"time": 4503, "pitch": 32, "duration": 6, "velocity": 102}, {"time": 4503, "pitch": 56, "duration": 7, "velocity": 102}, {"time": 4503, "pitch": 59, "duration": 7, "velocity": 108}, {"time": 4503, "pitch": 63, "duration": 7, "velocity": 102}, {"time": 4509, "pitch": 44, "duration": 5, "velocity": 117}, {"time": 4515, "pitch": 32, "duration": 7, "velocity": 100}, {"time": 4515, "pitch": 56, "duration": 7, "velocity": 94}, {"time": 4515, "pitch": 59, "duration": 7, "velocity": 100}, {"time": 4515, "pitch": 63, "duration": 7, "velocity": 97}, {"time": 4521, "pitch": 44, "duration": 6, "velocity": 108}, {"time": 4524, "pitch": 56, "duration": 5, "velocity": 102}, {"time": 4524, "pitch": 59, "duration": 5, "velocity": 108}, {"time": 4524, "pitch": 63, "duration": 4, "velocity": 100}, {"time": 4527, "pitch": 32, "duration": 5, "velocity": 97}, {"time": 4533, "pitch": 44, "duration": 4, "velocity": 111}, {"time": 4533, "pitch": 56, "duration": 4, "velocity": 105}, {"time": 4533, "pitch": 59, "duration": 3, "velocity": 102}, {"time": 4533, "pitch": 63, "duration": 3, "velocity": 100}, {"time": 4539, "pitch": 40, "duration": 7, "velocity": 102}, {"time": 4539, "pitch": 52, "duration": 10, "velocity": 94}, {"time": 4539, "pitch": 56, "duration": 10, "velocity": 100}, {"time": 4545, "pitch": 52, "duration": 4, "velocity": 111}, {"time": 4551, "pitch": 40, "duration": 6, "velocity": 97}, {"time": 4551, "pitch": 52, "duration": 9, "velocity": 102}, {"time": 4551, "pitch": 56, "duration": 9, "velocity": 111}, {"time": 4551, "pitch": 59, "duration": 9, "velocity": 105}, {"time": 4557, "pitch": 52, "duration": 3, "velocity": 114}, {"time": 4563, "pitch": 40, "duration": 7, "velocity": 100}, {"time": 4563, "pitch": 52, "duration": 7, "velocity": 105}, {"time": 4563, "pitch": 56, "duration": 7, "velocity": 114}, {"time": 4563, "pitch": 59, "duration": 7, "velocity": 105}, {"time": 4569, "pitch": 52, "duration": 1, "velocity": 111}, {"time": 4572, "pitch": 52, "duration": 3, "velocity": 97}, {"time": 4572, "pitch": 56, "duration": 4, "velocity": 108}, {"time": 4572, "pitch": 59, "duration": 4, "velocity": 102}, {"time": 4575, "pitch": 40, "duration": 6, "velocity": 105}, {"time": 4581, "pitch": 52, "duration": 3, "velocity": 94}, {"time": 4581, "pitch": 52, "duration": 3, "velocity": 114}, {"time": 4581, "pitch": 56, "duration": 3, "velocity": 105}, {"time": 4581, "pitch": 59, "duration": 4, "velocity": 100}, {"time": 4587, "pitch": 37, "duration": 6, "velocity": 97}, {"time": 4587, "pitch": 56, "duration": 10, "velocity": 84}, {"time": 4587, "pitch": 59, "duration": 3, "velocity": 80}, {"time": 4587, "pitch": 61, "duration": 10, "velocity": 80}, {"time": 4587, "pitch": 63, "duration": 4, "velocity": 64}, {"time": 4587, "pitch": 64, "duration": 10, "velocity": 67}, {"time": 4593, "pitch": 49, "duration": 4, "velocity": 105}, {"time": 4599, "pitch": 37, "duration": 6, "velocity": 100}, {"time": 4599, "pitch": 56, "duration": 8, "velocity": 114}, {"time": 4599, "pitch": 61, "duration": 6, "velocity": 111}, {"time": 4599, "pitch": 64, "duration": 8, "velocity": 108}, {"time": 4605, "pitch": 49, "duration": 5, "velocity": 108}, {"time": 4611, "pitch": 42, "duration": 7, "velocity": 82}, {"time": 4611, "pitch": 54, "duration": 7, "velocity": 87}, {"time": 4611, "pitch": 58, "duration": 7, "velocity": 105}, {"time": 4611, "pitch": 61, "duration": 7, "velocity": 97}, {"time": 4617, "pitch": 54, "duration": 1, "velocity": 111}, {"time": 4620, "pitch": 54, "duration": 2, "velocity": 87}, {"time": 4620, "pitch": 58, "duration": 4, "velocity": 105}, {"time": 4620, "pitch": 61, "duration": 4, "velocity": 94}, {"time": 4623, "pitch": 42, "duration": 4, "velocity": 102}, {"time": 4629, "pitch": 54, "duration": 3, "velocity": 78}, {"time": 4629, "pitch": 54, "duration": 3, "velocity": 114}, {"time": 4629, "pitch": 58, "duration": 4, "velocity": 94}, {"time": 4629, "pitch": 61, "duration": 4, "velocity": 87}, {"time": 4635, "pitch": 35, "duration": 6, "velocity": 100}, {"time": 4635, "pitch": 54, "duration": 9, "velocity": 84}, {"time": 4635, "pitch": 59, "duration": 9, "velocity": 94}, {"time": 4635, "pitch": 63, "duration": 9, "velocity": 92}, {"time": 4641, "pitch": 47, "duration": 4, "velocity": 102}, {"time": 4647, "pitch": 35, "duration": 6, "velocity": 89}, {"time": 4647, "pitch": 54, "duration": 9, "velocity": 105}, {"time": 4647, "pitch": 59, "duration": 9, "velocity": 111}, {"time": 4647, "pitch": 63, "duration": 9, "velocity": 100}, {"time": 4653, "pitch": 47, "duration": 5, "velocity": 97}, {"time": 4659, "pitch": 35, "duration": 6, "velocity": 87}, {"time": 4659, "pitch": 54, "duration": 7, "velocity": 102}, {"time": 4659, "pitch": 59, "duration": 7, "velocity": 108}, {"time": 4659, "pitch": 63, "duration": 7, "velocity": 100}, {"time": 4665, "pitch": 47, "duration": 6, "velocity": 108}, {"time": 4668, "pitch": 54, "duration": 4, "velocity": 89}, {"time": 4668, "pitch": 59, "duration": 4, "velocity": 97}, {"time": 4668, "pitch": 63, "duration": 4, "velocity": 92}, {"time": 4671, "pitch": 35, "duration": 8, "velocity": 97}, {"time": 4677, "pitch": 47, "duration": 4, "velocity": 108}, {"time": 4677, "pitch": 54, "duration": 3, "velocity": 97}, {"time": 4677, "pitch": 59, "duration": 3, "velocity": 102}, {"time": 4677, "pitch": 63, "duration": 4, "velocity": 97}, {"time": 4683, "pitch": 37, "duration": 7, "velocity": 105}, {"time": 4683, "pitch": 56, "duration": 10, "velocity": 89}, {"time": 4683, "pitch": 61, "duration": 10, "velocity": 100}, {"time": 4683, "pitch": 64, "duration": 9, "velocity": 105}, {"time": 4689, "pitch": 47, "duration": 3, "velocity": 82}, {"time": 4689, "pitch": 49, "duration": 4, "velocity": 89}, {"time": 4695, "pitch": 37, "duration": 6, "velocity": 100}, {"time": 4695, "pitch": 56, "duration": 9, "velocity": 94}, {"time": 4695, "pitch": 61, "duration": 9, "velocity": 100}, {"time": 4695, "pitch": 64, "duration": 9, "velocity": 100}, {"time": 4701, "pitch": 49, "duration": 5, "velocity": 108}, {"time": 4707, "pitch": 37, "duration": 7, "velocity": 97}, {"time": 4707, "pitch": 56, "duration": 7, "velocity": 100}, {"time": 4707, "pitch": 61, "duration": 7, "velocity": 97}, {"time": 4707, "pitch": 64, "duration": 7, "velocity": 92}, {"time": 4713, "pitch": 49, "duration": 6, "velocity": 105}, {"time": 4716, "pitch": 56, "duration": 5, "velocity": 102}, {"time": 4716, "pitch": 61, "duration": 5, "velocity": 97}, {"time": 4716, "pitch": 64, "duration": 4, "velocity": 94}, {"time": 4719, "pitch": 37, "duration": 7, "velocity": 100}, {"time": 4725, "pitch": 49, "duration": 4, "velocity": 108}, {"time": 4725, "pitch": 56, "duration": 5, "velocity": 92}, {"time": 4725, "pitch": 61, "duration": 4, "velocity": 89}, {"time": 4725, "pitch": 64, "duration": 4, "velocity": 82}, {"time": 4731, "pitch": 39, "duration": 7, "velocity": 102}, {"time": 4731, "pitch": 58, "duration": 10, "velocity": 94}, {"time": 4731, "pitch": 63, "duration": 10, "velocity": 97}, {"time": 4731, "pitch": 66, "duration": 10, "velocity": 94}, {"time": 4737, "pitch": 51, "duration": 6, "velocity": 114}, {"time": 4743, "pitch": 39, "duration": 5, "velocity": 102}, {"time": 4743, "pitch": 58, "duration": 9, "velocity": 105}, {"time": 4743, "pitch": 63, "duration": 8, "velocity": 108}, {"time": 4743, "pitch": 66, "duration": 7, "velocity": 108}, {"time": 4749, "pitch": 51, "duration": 5, "velocity": 97}, {"time": 4755, "pitch": 32, "duration": 6, "velocity": 84}, {"time": 4755, "pitch": 56, "duration": 7, "velocity": 94}, {"time": 4755, "pitch": 59, "duration": 7, "velocity": 100}, {"time": 4761, "pitch": 44, "duration": 5, "velocity": 114}, {"time": 4764, "pitch": 56, "duration": 6, "velocity": 97}, {"time": 4764, "pitch": 59, "duration": 6, "velocity": 102}, {"time": 4764, "pitch": 63, "duration": 4, "velocity": 97}, {"time": 4767, "pitch": 32, "duration": 6, "velocity": 105}, {"time": 4773, "pitch": 44, "duration": 5, "velocity": 117}, {"time": 4773, "pitch": 56, "duration": 4, "velocity": 102}, {"time": 4773, "pitch": 59, "duration": 4, "velocity": 111}, {"time": 4773, "pitch": 63, "duration": 4, "velocity": 100}, {"time": 4779, "pitch": 40, "duration": 6, "velocity": 89}, {"time": 4779, "pitch": 56, "duration": 11, "velocity": 92}, {"time": 4779, "pitch": 59, "duration": 11, "velocity": 97}, {"time": 4779, "pitch": 64, "duration": 11, "velocity": 97}, {"time": 4785, "pitch": 52, "duration": 4, "velocity": 102}, {"time": 4791, "pitch": 40, "duration": 6, "velocity": 78}, {"time": 4791, "pitch": 56, "duration": 10, "velocity": 105}, {"time": 4791, "pitch": 59, "duration": 10, "velocity": 111}, {"time": 4791, "pitch": 64, "duration": 10, "velocity": 105}, {"time": 4797, "pitch": 52, "duration": 5, "velocity": 80}, {"time": 4803, "pitch": 40, "duration": 6, "velocity": 78}, {"time": 4803, "pitch": 56, "duration": 8, "velocity": 102}, {"time": 4803, "pitch": 59, "duration": 7, "velocity": 105}, {"time": 4803, "pitch": 64, "duration": 7, "velocity": 102}, {"time": 4809, "pitch": 52, "duration": 5, "velocity": 102}, {"time": 4812, "pitch": 56, "duration": 6, "velocity": 100}, {"time": 4812, "pitch": 59, "duration": 6, "velocity": 94}, {"time": 4812, "pitch": 64, "duration": 6, "velocity": 102}, {"time": 4815, "pitch": 40, "duration": 6, "velocity": 87}, {"time": 4821, "pitch": 52, "duration": 5, "velocity": 97}, {"time": 4821, "pitch": 56, "duration": 4, "velocity": 100}, {"time": 4821, "pitch": 59, "duration": 5, "velocity": 97}, {"time": 4821, "pitch": 64, "duration": 4, "velocity": 89}, {"time": 4827, "pitch": 39, "duration": 5, "velocity": 45}, {"time": 4827, "pitch": 58, "duration": 9, "velocity": 102}, {"time": 4827, "pitch": 63, "duration": 9, "velocity": 100}, {"time": 4833, "pitch": 51, "duration": 5, "velocity": 105}, {"time": 4839, "pitch": 39, "duration": 6, "velocity": 82}, {"time": 4839, "pitch": 58, "duration": 10, "velocity": 108}, {"time": 4839, "pitch": 63, "duration": 10, "velocity": 105}, {"time": 4845, "pitch": 51, "duration": 5, "velocity": 102}, {"time": 4851, "pitch": 39, "duration": 6, "velocity": 92}, {"time": 4851, "pitch": 58, "duration": 7, "velocity": 105}, {"time": 4851, "pitch": 63, "duration": 7, "velocity": 111}, {"time": 4857, "pitch": 51, "duration": 6, "velocity": 100}, {"time": 4860, "pitch": 58, "duration": 6, "velocity": 97}, {"time": 4860, "pitch": 63, "duration": 6, "velocity": 94}, {"time": 4863, "pitch": 39, "duration": 7, "velocity": 97}, {"time": 4869, "pitch": 51, "duration": 5, "velocity": 102}, {"time": 4869, "pitch": 58, "duration": 6, "velocity": 102}, {"time": 4869, "pitch": 63, "duration": 5, "velocity": 102}, {"time": 4875, "pitch": 32, "duration": 6, "velocity": 111}, {"time": 4875, "pitch": 56, "duration": 9, "velocity": 97}, {"time": 4875, "pitch": 59, "duration": 9, "velocity": 102}, {"time": 4881, "pitch": 44, "duration": 6, "velocity": 108}, {"time": 4887, "pitch": 32, "duration": 6, "velocity": 102}, {"time": 4887, "pitch": 56, "duration": 7, "velocity": 102}, {"time": 4887, "pitch": 59, "duration": 7, "velocity": 108}, {"time": 4887, "pitch": 63, "duration": 7, "velocity": 102}, {"time": 4893, "pitch": 44, "duration": 5, "velocity": 117}, {"time": 4899, "pitch": 32, "duration": 7, "velocity": 100}, {"time": 4899, "pitch": 56, "duration": 7, "velocity": 94}, {"time": 4899, "pitch": 59, "duration": 7, "velocity": 100}, {"time": 4899, "pitch": 63, "duration": 7, "velocity": 97}, {"time": 4905, "pitch": 44, "duration": 6, "velocity": 108}, {"time": 4908, "pitch": 56, "duration": 5, "velocity": 102}, {"time": 4908, "pitch": 59, "duration": 5, "velocity": 108}, {"time": 4908, "pitch": 63, "duration": 4, "velocity": 100}, {"time": 4911, "pitch": 32, "duration": 5, "velocity": 97}, {"time": 4917, "pitch": 44, "duration": 4, "velocity": 111}, {"time": 4917, "pitch": 56, "duration": 4, "velocity": 105}, {"time": 4917, "pitch": 59, "duration": 3, "velocity": 102}, {"time": 4917, "pitch": 63, "duration": 3, "velocity": 100}, {"time": 4923, "pitch": 40, "duration": 7, "velocity": 102}, {"time": 4923, "pitch": 52, "duration": 10, "velocity": 94}, {"time": 4923, "pitch": 56, "duration": 10, "velocity": 100}, {"time": 4929, "pitch": 52, "duration": 4, "velocity": 111}, {"time": 4935, "pitch": 40, "duration": 6, "velocity": 97}, {"time": 4935, "pitch": 52, "duration": 9, "velocity": 102}, {"time": 4935, "pitch": 56, "duration": 9, "velocity": 111}, {"time": 4935, "pitch": 59, "duration": 9, "velocity": 105}, {"time": 4941, "pitch": 52, "duration": 3, "velocity": 114}, {"time": 4947, "pitch": 40, "duration": 7, "velocity": 100}, {"time": 4947, "pitch": 52, "duration": 7, "velocity": 105}, {"time": 4947, "pitch": 56, "duration": 7, "velocity": 114}, {"time": 4947, "pitch": 59, "duration": 7, "velocity": 105}, {"time": 4953, "pitch": 52, "duration": 1, "velocity": 111}, {"time": 4956, "pitch": 52, "duration": 3, "velocity": 97}, {"time": 4956, "pitch": 56, "duration": 4, "velocity": 108}, {"time": 4956, "pitch": 59, "duration": 4, "velocity": 102}, {"time": 4959, "pitch": 40, "duration": 6, "velocity": 105}, {"time": 4965, "pitch": 52, "duration": 3, "velocity": 94}, {"time": 4965, "pitch": 52, "duration": 3, "velocity": 114}, {"time": 4965, "pitch": 56, "duration": 3, "velocity": 105}, {"time": 4965, "pitch": 59, "duration": 4, "velocity": 100}, {"time": 4971, "pitch": 37, "duration": 6, "velocity": 97}, {"time": 4971, "pitch": 56, "duration": 10, "velocity": 84}, {"time": 4971, "pitch": 59, "duration": 3, "velocity": 80}, {"time": 4971, "pitch": 61, "duration": 10, "velocity": 80}, {"time": 4971, "pitch": 63, "duration": 4, "velocity": 64}, {"time": 4971, "pitch": 64, "duration": 10, "velocity": 67}, {"time": 4977, "pitch": 49, "duration": 4, "velocity": 105}, {"time": 4983, "pitch": 37, "duration": 6, "velocity": 100}, {"time": 4983, "pitch": 56, "duration": 8, "velocity": 114}, {"time": 4983, "pitch": 61, "duration": 6, "velocity": 111}, {"time": 4983, "pitch": 64, "duration": 8, "velocity": 108}, {"time": 4989, "pitch": 49, "duration": 5, "velocity": 108}, {"time": 4995, "pitch": 42, "duration": 7, "velocity": 82}, {"time": 4995, "pitch": 54, "duration": 7, "velocity": 87}, {"time": 4995, "pitch": 58, "duration": 7, "velocity": 105}, {"time": 4995, "pitch": 61, "duration": 7, "velocity": 97}, {"time": 5001, "pitch": 54, "duration": 1, "velocity": 111}, {"time": 5004, "pitch": 54, "duration": 2, "velocity": 87}, {"time": 5004, "pitch": 58, "duration": 4, "velocity": 105}, {"time": 5004, "pitch": 61, "duration": 4, "velocity": 94}, {"time": 5007, "pitch": 42, "duration": 4, "velocity": 102}, {"time": 5013, "pitch": 54, "duration": 3, "velocity": 78}, {"time": 5013, "pitch": 54, "duration": 3, "velocity": 114}, {"time": 5013, "pitch": 58, "duration": 4, "velocity": 94}, {"time": 5013, "pitch": 61, "duration": 4, "velocity": 87}, {"time": 5019, "pitch": 35, "duration": 6, "velocity": 100}, {"time": 5019, "pitch": 54, "duration": 9, "velocity": 84}, {"time": 5019, "pitch": 59, "duration": 9, "velocity": 94}, {"time": 5019, "pitch": 63, "duration": 9, "velocity": 92}, {"time": 5025, "pitch": 47, "duration": 4, "velocity": 102}, {"time": 5031, "pitch": 35, "duration": 6, "velocity": 89}, {"time": 5031, "pitch": 54, "duration": 9, "velocity": 105}, {"time": 5031, "pitch": 59, "duration": 9, "velocity": 111}, {"time": 5031, "pitch": 63, "duration": 9, "velocity": 100}, {"time": 5037, "pitch": 47, "duration": 5, "velocity": 97}, {"time": 5043, "pitch": 35, "duration": 6, "velocity": 87}, {"time": 5043, "pitch": 54, "duration": 7, "velocity": 102}, {"time": 5043, "pitch": 59, "duration": 7, "velocity": 108}, {"time": 5043, "pitch": 63, "duration": 7, "velocity": 100}, {"time": 5049, "pitch": 47, "duration": 6, "velocity": 108}, {"time": 5052, "pitch": 54, "duration": 4, "velocity": 89}, {"time": 5052, "pitch": 59, "duration": 4, "velocity": 97}, {"time": 5052, "pitch": 63, "duration": 4, "velocity": 92}, {"time": 5055, "pitch": 35, "duration": 8, "velocity": 97}, {"time": 5061, "pitch": 47, "duration": 4, "velocity": 108}, {"time": 5061, "pitch": 54, "duration": 3, "velocity": 97}, {"time": 5061, "pitch": 59, "duration": 3, "velocity": 102}, {"time": 5061, "pitch": 63, "duration": 4, "velocity": 97}, {"time": 5067, "pitch": 37, "duration": 7, "velocity": 105}, {"time": 5067, "pitch": 56, "duration": 10, "velocity": 89}, {"time": 5067, "pitch": 61, "duration": 10, "velocity": 100}, {"time": 5067, "pitch": 64, "duration": 9, "velocity": 105}, {"time": 5073, "pitch": 47, "duration": 3, "velocity": 82}, {"time": 5073, "pitch": 49, "duration": 4, "velocity": 89}, {"time": 5079, "pitch": 37, "duration": 6, "velocity": 100}, {"time": 5079, "pitch": 56, "duration": 9, "velocity": 94}, {"time": 5079, "pitch": 61, "duration": 9, "velocity": 100}, {"time": 5079, "pitch": 64, "duration": 9, "velocity": 100}, {"time": 5085, "pitch": 49, "duration": 5, "velocity": 108}, {"time": 5091, "pitch": 37, "duration": 7, "velocity": 97}, {"time": 5091, "pitch": 56, "duration": 7, "velocity": 100}, {"time": 5091, "pitch": 61, "duration": 7, "velocity": 97}, {"time": 5091, "pitch": 64, "duration": 7, "velocity": 92}, {"time": 5097, "pitch": 49, "duration": 6, "velocity": 105}, {"time": 5100, "pitch": 56, "duration": 5, "velocity": 102}, {"time": 5100, "pitch": 61, "duration": 5, "velocity": 97}, {"time": 5100, "pitch": 64, "duration": 4, "velocity": 94}, {"time": 5103, "pitch": 37, "duration": 7, "velocity": 100}, {"time": 5109, "pitch": 49, "duration": 4, "velocity": 108}, {"time": 5109, "pitch": 56, "duration": 5, "velocity": 92}, {"time": 5109, "pitch": 61, "duration": 4, "velocity": 89}, {"time": 5109, "pitch": 64, "duration": 4, "velocity": 82}, {"time": 5115, "pitch": 39, "duration": 7, "velocity": 102}, {"time": 5115, "pitch": 58, "duration": 10, "velocity": 94}, {"time": 5115, "pitch": 63, "duration": 10, "velocity": 97}, {"time": 5115, "pitch": 66, "duration": 10, "velocity": 94}, {"time": 5121, "pitch": 51, "duration": 6, "velocity": 114}, {"time": 5127, "pitch": 39, "duration": 5, "velocity": 102}, {"time": 5127, "pitch": 58, "duration": 9, "velocity": 105}, {"time": 5127, "pitch": 63, "duration": 8, "velocity": 108}, {"time": 5127, "pitch": 66, "duration": 7, "velocity": 108}, {"time": 5133, "pitch": 51, "duration": 5, "velocity": 97}, {"time": 5139, "pitch": 32, "duration": 6, "velocity": 84}, {"time": 5139, "pitch": 56, "duration": 7, "velocity": 94}, {"time": 5139, "pitch": 59, "duration": 7, "velocity": 100}, {"time": 5145, "pitch": 44, "duration": 5, "velocity": 114}, {"time": 5148, "pitch": 56, "duration": 6, "velocity": 97}, {"time": 5148, "pitch": 59, "duration": 6, "velocity": 102}, {"time": 5148, "pitch": 63, "duration": 4, "velocity": 97}, {"time": 5151, "pitch": 32, "duration": 6, "velocity": 105}, {"time": 5157, "pitch": 44, "duration": 5, "velocity": 117}, {"time": 5157, "pitch": 56, "duration": 4, "velocity": 102}, {"time": 5157, "pitch": 59, "duration": 4, "velocity": 111}, {"time": 5157, "pitch": 63, "duration": 4, "velocity": 100}, {"time": 5163, "pitch": 40, "duration": 6, "velocity": 89}, {"time": 5163, "pitch": 56, "duration": 11, "velocity": 92}, {"time": 5163, "pitch": 59, "duration": 11, "velocity": 97}, {"time": 5163, "pitch": 64, "duration": 11, "velocity": 97}, {"time": 5169, "pitch": 52, "duration": 4, "velocity": 102}, {"time": 5175, "pitch": 40, "duration": 6, "velocity": 78}, {"time": 5175, "pitch": 56, "duration": 10, "velocity": 105}, {"time": 5175, "pitch": 59, "duration": 10, "velocity": 111}, {"time": 5175, "pitch": 64, "duration": 10, "velocity": 105}, {"time": 5181, "pitch": 52, "duration": 5, "velocity": 80}, {"time": 5187, "pitch": 40, "duration": 6, "velocity": 78}, {"time": 5187, "pitch": 56, "duration": 8, "velocity": 102}, {"time": 5187, "pitch": 59, "duration": 7, "velocity": 105}, {"time": 5187, "pitch": 64, "duration": 7, "velocity": 102}, {"time": 5193, "pitch": 52, "duration": 5, "velocity": 102}, {"time": 5196, "pitch": 56, "duration": 6, "velocity": 100}, {"time": 5196, "pitch": 59, "duration": 6, "velocity": 94}, {"time": 5196, "pitch": 64, "duration": 6, "velocity": 102}, {"time": 5199, "pitch": 40, "duration": 6, "velocity": 87}, {"time": 5205, "pitch": 52, "duration": 5, "velocity": 97}, {"time": 5205, "pitch": 56, "duration": 4, "velocity": 100}, {"time": 5205, "pitch": 59, "duration": 5, "velocity": 97}, {"time": 5205, "pitch": 64, "duration": 4, "velocity": 89}, {"time": 5211, "pitch": 39, "duration": 5, "velocity": 45}, {"time": 5211, "pitch": 58, "duration": 9, "velocity": 102}, {"time": 5211, "pitch": 63, "duration": 9, "velocity": 100}, {"time": 5217, "pitch": 51, "duration": 5, "velocity": 105}, {"time": 5223, "pitch": 39, "duration": 6, "velocity": 82}, {"time": 5223, "pitch": 58, "duration": 10, "velocity": 108}, {"time": 5223, "pitch": 63, "duration": 10, "velocity": 105}, {"time": 5229, "pitch": 51, "duration": 5, "velocity": 102}, {"time": 5235, "pitch": 44, "duration": 7, "velocity": 97}, {"time": 5235, "pitch": 59, "duration": 8, "velocity": 94}, {"time": 5235, "pitch": 63, "duration": 8, "velocity": 108}, {"time": 5235, "pitch": 68, "duration": 8, "velocity": 97}, {"time": 5241, "pitch": 56, "duration": 9, "velocity": 92}, {"time": 5244, "pitch": 59, "duration": 6, "velocity": 87}, {"time": 5244, "pitch": 63, "duration": 6, "velocity": 97}, {"time": 5244, "pitch": 68, "duration": 6, "velocity": 105}, {"time": 5247, "pitch": 44, "duration": 9, "velocity": 89}, {"time": 5253, "pitch": 56, "duration": 5, "velocity": 111}, {"time": 5253, "pitch": 59, "duration": 5, "velocity": 89}, {"time": 5253, "pitch": 63, "duration": 5, "velocity": 97}, {"time": 5253, "pitch": 68, "duration": 5, "velocity": 97}, {"time": 5259, "pitch": 40, "duration": 6, "velocity": 89}, {"time": 5259, "pitch": 56, "duration": 11, "velocity": 92}, {"time": 5259, "pitch": 59, "duration": 11, "velocity": 97}, {"time": 5259, "pitch": 64, "duration": 11, "velocity": 97}, {"time": 5265, "pitch": 52, "duration": 4, "velocity": 102}, {"time": 5271, "pitch": 40, "duration": 6, "velocity": 78}, {"time": 5271, "pitch": 56, "duration": 10, "velocity": 105}, {"time": 5271, "pitch": 59, "duration": 10, "velocity": 111}, {"time": 5271, "pitch": 64, "duration": 10, "velocity": 105}, {"time": 5277, "pitch": 52, "duration": 5, "velocity": 80}, {"time": 5283, "pitch": 40, "duration": 6, "velocity": 78}, {"time": 5283, "pitch": 56, "duration": 8, "velocity": 102}, {"time": 5283, "pitch": 59, "duration": 7, "velocity": 105}, {"time": 5283, "pitch": 64, "duration": 7, "velocity": 102}, {"time": 5289, "pitch": 52, "duration": 5, "velocity": 102}, {"time": 5292, "pitch": 56, "duration": 6, "velocity": 100}, {"time": 5292, "pitch": 59, "duration": 6, "velocity": 94}, {"time": 5292, "pitch": 64, "duration": 6, "velocity": 102}, {"time": 5295, "pitch": 40, "duration": 6, "velocity": 87}, {"time": 5301, "pitch": 52, "duration": 5, "velocity": 97}, {"time": 5301, "pitch": 56, "duration": 4, "velocity": 100}, {"time": 5301, "pitch": 59, "duration": 5, "velocity": 97}, {"time": 5301, "pitch": 64, "duration": 4, "velocity": 89}, {"time": 5307, "pitch": 39, "duration": 4, "velocity": 102}, {"time": 5307, "pitch": 51, "duration": 3, "velocity": 100}, {"time": 5307, "pitch": 63, "duration": 5, "velocity": 94}, {"time": 5313, "pitch": 42, "duration": 3, "velocity": 114}, {"time": 5313, "pitch": 54, "duration": 3, "velocity": 87}, {"time": 5313, "pitch": 66, "duration": 4, "velocity": 105}, {"time": 5319, "pitch": 47, "duration": 3, "velocity": 100}, {"time": 5319, "pitch": 59, "duration": 3, "velocity": 120}, {"time": 5319, "pitch": 71, "duration": 5, "velocity": 111}, {"time": 5325, "pitch": 44, "duration": 3, "velocity": 114}, {"time": 5325, "pitch": 56, "duration": 2, "velocity": 123}, {"time": 5325, "pitch": 68, "duration": 4, "velocity": 76}, {"time": 5331, "pitch": 44, "duration": 49, "velocity": 114}, {"time": 5331, "pitch": 56, "duration": 27, "velocity": 120}, {"time": 5331, "pitch": 68, "duration": 28, "velocity": 100}], "annotations": [{"time": 777, "annotation": {"number": 64, "value": 127}, "group": "control_change"}, {"time": 790, "annotation": {"number": 64, "value": 0}, "group": "control_change"}, {"time": 1161, "annotation": {"number": 64, "value": 127}, "group": "control_change"}, {"time": 1174, "annotation": {"number": 64, "value": 0}, "group": "control_change"}, {"time": 1254, "annotation": {"number": 64, "value": 127}, "group": "control_change"}, {"time": 1276, "annotation": {"number": 64, "value": 0}, "group": "control_change"}, {"time": 1281, "annotation": {"number": 64, "value": 127}, "group": "control_change"}, {"time": 1319, "annotation": {"number": 64, "value": 0}, "group": "control_change"}, {"time": 1384, "annotation": {"number": 64, "value": 127}, "group": "control_change"}, {"time": 1415, "annotation": {"number": 64, "value": 0}, "group": "control_change"}, {"time": 1428, "annotation": {"number": 64, "value": 127}, "group": "control_change"}, {"time": 1444, "annotation": {"number": 64, "value": 0}, "group": "control_change"}, {"time": 1452, "annotation": {"number": 64, "value": 127}, "group": "control_change"}, {"time": 1463, "annotation": {"number": 64, "value": 0}, "group": "control_change"}, {"time": 1496, "annotation": {"number": 64, "value": 127}, "group": "control_change"}, {"time": 1508, "annotation": {"number": 64, "value": 0}, "group": "control_change"}, {"time": 1768, "annotation": {"number": 64, "value": 127}, "group": "control_change"}, {"time": 1799, "annotation": {"number": 64, "value": 0}, "group": "control_change"}, {"time": 1812, "annotation": {"number": 64, "value": 127}, "group": "control_change"}, {"time": 1828, "annotation": {"number": 64, "value": 0}, "group": "control_change"}, {"time": 1836, "annotation": {"number": 64, "value": 127}, "group": "control_change"}, {"time": 1847, "annotation": {"number": 64, "value": 0}, "group": "control_change"}, {"time": 1880, "annotation": {"number": 64, "value": 127}, "group": "control_change"}, {"time": 1892, "annotation": {"number": 64, "value": 0}, "group": "control_change"}, {"time": 2745, "annotation": {"number": 64, "value": 127}, "group": "control_change"}, {"time": 2758, "annotation": {"number": 64, "value": 0}, "group": "control_change"}, {"time": 3129, "annotation": {"number": 64, "value": 127}, "group": "control_change"}, {"time": 3142, "annotation": {"number": 64, "value": 0}, "group": "control_change"}, {"time": 3222, "annotation": {"number": 64, "value": 127}, "group": "control_change"}, {"time": 3244, "annotation": {"number": 64, "value": 0}, "group": "control_change"}, {"time": 3249, "annotation": {"number": 64, "value": 127}, "group": "control_change"}, {"time": 3287, "annotation": {"number": 64, "value": 0}, "group": "control_change"}, {"time": 3352, "annotation": {"number": 64, "value": 127}, "group": "control_change"}, {"time": 3383, "annotation": {"number": 64, "value": 0}, "group": "control_change"}, {"time": 3396, "annotation": {"number": 64, "value": 127}, "group": "control_change"}, {"time": 3412, "annotation": {"number": 64, "value": 0}, "group": "control_change"}, {"time": 3420, "annotation": {"number": 64, "value": 127}, "group": "control_change"}, {"time": 3431, "annotation": {"number": 64, "value": 0}, "group": "control_change"}, {"time": 3464, "annotation": {"number": 64, "value": 127}, "group": "control_change"}, {"time": 3476, "annotation": {"number": 64, "value": 0}, "group": "control_change"}, {"time": 3736, "annotation": {"number": 64, "value": 127}, "group": "control_change"}, {"time": 3767, "annotation": {"number": 64, "value": 0}, "group": "control_change"}, {"time": 3780, "annotation": {"number": 64, "value": 127}, "group": "control_change"}, {"time": 3796, "annotation": {"number": 64, "value": 0}, "group": "control_change"}, {"time": 3804, "annotation": {"number": 64, "value": 127}, "group": "control_change"}, {"time": 3815, "annotation": {"number": 64, "value": 0}, "group": "control_change"}, {"time": 3848, "annotation": {"number": 64, "value": 127}, "group": "control_change"}, {"time": 3860, "annotation": {"number": 64, "value": 0}, "group": "control_change"}, {"time": 4552, "annotation": {"number": 64, "value": 127}, "group": "control_change"}, {"time": 4583, "annotation": {"number": 64, "value": 0}, "group": "control_change"}, {"time": 4596, "annotation": {"number": 64, "value": 127}, "group": "control_change"}, {"time": 4612, "annotation": {"number": 64, "value": 0}, "group": "control_change"}, {"time": 4620, "annotation": {"number": 64, "value": 127}, "group": "control_change"}, {"time": 4631, "annotation": {"number": 64, "value": 0}, "group": "control_change"}, {"time": 4664, "annotation": {"number": 64, "value": 127}, "group": "control_change"}, {"time": 4676, "annotation": {"number": 64, "value": 0}, "group": "control_change"}, {"time": 4936, "annotation": {"number": 64, "value": 127}, "group": "control_change"}, {"time": 4967, "annotation": {"number": 64, "value": 0}, "group": "control_change"}, {"time": 4980, "annotation": {"number": 64, "value": 127}, "group": "control_change"}, {"time": 4996, "annotation": {"number": 64, "value": 0}, "group": "control_change"}, {"time": 5004, "annotation": {"number": 64, "value": 127}, "group": "control_change"}, {"time": 5015, "annotation": {"number": 64, "value": 0}, "group": "control_change"}, {"time": 5048, "annotation": {"number": 64, "value": 127}, "group": "control_change"}, {"time": 5060, "annotation": {"number": 64, "value": 0}, "group": "control_change"}]}]}