{"metadata": {"schema_version": "0.2", "title": "None", "source_filename": "139.mid", "source_format": "midi"}, "resolution": 12, "tempos": [{"time": 0, "qpm": 68.00014960032912}, {"time": 606, "qpm": 67.00002903334591}, {"time": 636, "qpm": 68.00014960032912}, {"time": 1466, "qpm": 67.00002903334591}, {"time": 1509, "qpm": 68.00014960032912}, {"time": 2334, "qpm": 67.40012985758352}, {"time": 2399, "qpm": 68.00014960032912}], "time_signatures": [{"time": 0, "numerator": 1, "denominator": 4}], "tracks": [{"program": 4, "is_drum": false, "name": "MELODY", "notes": [{"time": 195, "pitch": 71, "duration": 2, "velocity": 120}, {"time": 198, "pitch": 76, "duration": 5, "velocity": 117}, {"time": 204, "pitch": 76, "duration": 4, "velocity": 114}, {"time": 210, "pitch": 76, "duration": 4, "velocity": 111}, {"time": 216, "pitch": 76, "duration": 3, "velocity": 108}, {"time": 219, "pitch": 76, "duration": 3, "velocity": 108}, {"time": 222, "pitch": 74, "duration": 1, "velocity": 111}, {"time": 225, "pitch": 76, "duration": 1, "velocity": 111}, {"time": 228, "pitch": 78, "duration": 2, "velocity": 116}, {"time": 231, "pitch": 76, "duration": 7, "velocity": 114}, {"time": 240, "pitch": 76, "duration": 2, "velocity": 112}, {"time": 243, "pitch": 76, "duration": 1, "velocity": 108}, {"time": 246, "pitch": 74, "duration": 2, "velocity": 102}, {"time": 249, "pitch": 71, "duration": 1, "velocity": 100}, {"time": 252, "pitch": 71, "duration": 1, "velocity": 100}, {"time": 255, "pitch": 71, "duration": 1, "velocity": 102}, {"time": 258, "pitch": 71, "duration": 1, "velocity": 102}, {"time": 261, "pitch": 71, "duration": 1, "velocity": 100}, {"time": 264, "pitch": 69, "duration": 2, "velocity": 94}, {"time": 267, "pitch": 71, "duration": 19, "velocity": 105}, {"time": 291, "pitch": 64, "duration": 2, "velocity": 105}, {"time": 294, "pitch": 76, "duration": 4, "velocity": 111}, {"time": 300, "pitch": 76, "duration": 3, "velocity": 111}, {"time": 306, "pitch": 76, "duration": 4, "velocity": 105}, {"time": 312, "pitch": 76, "duration": 2, "velocity": 108}, {"time": 315, "pitch": 76, "duration": 2, "velocity": 100}, {"time": 318, "pitch": 74, "duration": 1, "velocity": 111}, {"time": 321, "pitch": 76, "duration": 1, "velocity": 111}, {"time": 324, "pitch": 78, "duration": 2, "velocity": 112}, {"time": 327, "pitch": 76, "duration": 6, "velocity": 117}, {"time": 333, "pitch": 76, "duration": 6, "velocity": 111}, {"time": 339, "pitch": 76, "duration": 2, "velocity": 105}, {"time": 342, "pitch": 74, "duration": 3, "velocity": 105}, {"time": 345, "pitch": 71, "duration": 3, "velocity": 114}, {"time": 348, "pitch": 71, "duration": 2, "velocity": 108}, {"time": 351, "pitch": 71, "duration": 1, "velocity": 97}, {"time": 354, "pitch": 71, "duration": 1, "velocity": 108}, {"time": 357, "pitch": 71, "duration": 1, "velocity": 102}, {"time": 360, "pitch": 69, "duration": 1, "velocity": 111}, {"time": 363, "pitch": 71, "duration": 15, "velocity": 111}, {"time": 384, "pitch": 74, "duration": 2, "velocity": 114}, {"time": 387, "pitch": 71, "duration": 2, "velocity": 108}, {"time": 390, "pitch": 69, "duration": 4, "velocity": 114}, {"time": 396, "pitch": 69, "duration": 1, "velocity": 108}, {"time": 399, "pitch": 69, "duration": 2, "velocity": 111}, {"time": 402, "pitch": 71, "duration": 4, "velocity": 117}, {"time": 408, "pitch": 69, "duration": 2, "velocity": 111}, {"time": 411, "pitch": 67, "duration": 1, "velocity": 114}, {"time": 414, "pitch": 71, "duration": 2, "velocity": 108}, {"time": 417, "pitch": 74, "duration": 9, "velocity": 108}, {"time": 435, "pitch": 64, "duration": 2, "velocity": 117}, {"time": 438, "pitch": 76, "duration": 1, "velocity": 108}, {"time": 441, "pitch": 76, "duration": 1, "velocity": 111}, {"time": 444, "pitch": 76, "duration": 1, "velocity": 102}, {"time": 447, "pitch": 76, "duration": 1, "velocity": 105}, {"time": 450, "pitch": 76, "duration": 1, "velocity": 105}, {"time": 453, "pitch": 78, "duration": 2, "velocity": 112}, {"time": 456, "pitch": 76, "duration": 2, "velocity": 111}, {"time": 459, "pitch": 74, "duration": 2, "velocity": 114}, {"time": 462, "pitch": 71, "duration": 15, "velocity": 117}, {"time": 480, "pitch": 74, "duration": 2, "velocity": 105}, {"time": 483, "pitch": 71, "duration": 2, "velocity": 102}, {"time": 486, "pitch": 69, "duration": 4, "velocity": 114}, {"time": 492, "pitch": 69, "duration": 2, "velocity": 108}, {"time": 495, "pitch": 69, "duration": 5, "velocity": 120}, {"time": 501, "pitch": 69, "duration": 4, "velocity": 117}, {"time": 507, "pitch": 67, "duration": 1, "velocity": 108}, {"time": 510, "pitch": 71, "duration": 2, "velocity": 108}, {"time": 513, "pitch": 66, "duration": 6, "velocity": 111}, {"time": 519, "pitch": 66, "duration": 4, "velocity": 109}, {"time": 525, "pitch": 66, "duration": 1, "velocity": 105}, {"time": 528, "pitch": 66, "duration": 2, "velocity": 105}, {"time": 531, "pitch": 62, "duration": 2, "velocity": 102}, {"time": 534, "pitch": 64, "duration": 1, "velocity": 111}, {"time": 537, "pitch": 64, "duration": 1, "velocity": 108}, {"time": 540, "pitch": 64, "duration": 1, "velocity": 105}, {"time": 543, "pitch": 64, "duration": 1, "velocity": 108}, {"time": 546, "pitch": 62, "duration": 2, "velocity": 102}, {"time": 549, "pitch": 64, "duration": 1, "velocity": 111}, {"time": 552, "pitch": 66, "duration": 6, "velocity": 102}, {"time": 558, "pitch": 64, "duration": 18, "velocity": 114}, {"time": 579, "pitch": 71, "duration": 2, "velocity": 120}, {"time": 582, "pitch": 76, "duration": 5, "velocity": 117}, {"time": 588, "pitch": 76, "duration": 4, "velocity": 114}, {"time": 594, "pitch": 76, "duration": 4, "velocity": 111}, {"time": 600, "pitch": 76, "duration": 3, "velocity": 108}, {"time": 603, "pitch": 76, "duration": 3, "velocity": 108}, {"time": 606, "pitch": 74, "duration": 1, "velocity": 111}, {"time": 609, "pitch": 76, "duration": 1, "velocity": 111}, {"time": 612, "pitch": 78, "duration": 2, "velocity": 116}, {"time": 615, "pitch": 76, "duration": 7, "velocity": 114}, {"time": 624, "pitch": 76, "duration": 2, "velocity": 112}, {"time": 627, "pitch": 76, "duration": 1, "velocity": 108}, {"time": 630, "pitch": 74, "duration": 2, "velocity": 102}, {"time": 633, "pitch": 71, "duration": 1, "velocity": 100}, {"time": 636, "pitch": 71, "duration": 1, "velocity": 100}, {"time": 639, "pitch": 71, "duration": 1, "velocity": 102}, {"time": 642, "pitch": 71, "duration": 1, "velocity": 102}, {"time": 645, "pitch": 71, "duration": 1, "velocity": 100}, {"time": 648, "pitch": 69, "duration": 2, "velocity": 94}, {"time": 651, "pitch": 71, "duration": 19, "velocity": 105}, {"time": 675, "pitch": 64, "duration": 2, "velocity": 105}, {"time": 678, "pitch": 76, "duration": 4, "velocity": 111}, {"time": 684, "pitch": 76, "duration": 3, "velocity": 111}, {"time": 690, "pitch": 76, "duration": 4, "velocity": 105}, {"time": 696, "pitch": 76, "duration": 2, "velocity": 108}, {"time": 699, "pitch": 76, "duration": 2, "velocity": 100}, {"time": 702, "pitch": 74, "duration": 1, "velocity": 111}, {"time": 705, "pitch": 76, "duration": 1, "velocity": 111}, {"time": 708, "pitch": 78, "duration": 2, "velocity": 112}, {"time": 711, "pitch": 76, "duration": 6, "velocity": 117}, {"time": 717, "pitch": 76, "duration": 6, "velocity": 111}, {"time": 723, "pitch": 76, "duration": 2, "velocity": 105}, {"time": 726, "pitch": 74, "duration": 3, "velocity": 105}, {"time": 729, "pitch": 71, "duration": 3, "velocity": 114}, {"time": 732, "pitch": 71, "duration": 2, "velocity": 108}, {"time": 735, "pitch": 71, "duration": 1, "velocity": 97}, {"time": 738, "pitch": 71, "duration": 1, "velocity": 108}, {"time": 741, "pitch": 71, "duration": 1, "velocity": 102}, {"time": 744, "pitch": 69, "duration": 1, "velocity": 111}, {"time": 747, "pitch": 71, "duration": 15, "velocity": 111}, {"time": 768, "pitch": 74, "duration": 2, "velocity": 114}, {"time": 771, "pitch": 71, "duration": 2, "velocity": 108}, {"time": 774, "pitch": 69, "duration": 4, "velocity": 114}, {"time": 780, "pitch": 69, "duration": 1, "velocity": 108}, {"time": 783, "pitch": 69, "duration": 2, "velocity": 111}, {"time": 786, "pitch": 71, "duration": 4, "velocity": 117}, {"time": 792, "pitch": 69, "duration": 2, "velocity": 111}, {"time": 795, "pitch": 67, "duration": 1, "velocity": 114}, {"time": 798, "pitch": 71, "duration": 2, "velocity": 108}, {"time": 801, "pitch": 74, "duration": 9, "velocity": 108}, {"time": 819, "pitch": 64, "duration": 2, "velocity": 117}, {"time": 822, "pitch": 76, "duration": 1, "velocity": 108}, {"time": 825, "pitch": 76, "duration": 1, "velocity": 111}, {"time": 828, "pitch": 76, "duration": 1, "velocity": 102}, {"time": 831, "pitch": 76, "duration": 1, "velocity": 105}, {"time": 834, "pitch": 76, "duration": 1, "velocity": 105}, {"time": 837, "pitch": 78, "duration": 2, "velocity": 112}, {"time": 840, "pitch": 76, "duration": 2, "velocity": 111}, {"time": 843, "pitch": 74, "duration": 2, "velocity": 114}, {"time": 846, "pitch": 71, "duration": 15, "velocity": 117}, {"time": 864, "pitch": 74, "duration": 2, "velocity": 105}, {"time": 867, "pitch": 71, "duration": 2, "velocity": 102}, {"time": 870, "pitch": 69, "duration": 4, "velocity": 114}, {"time": 876, "pitch": 69, "duration": 2, "velocity": 108}, {"time": 879, "pitch": 69, "duration": 5, "velocity": 120}, {"time": 885, "pitch": 69, "duration": 4, "velocity": 117}, {"time": 891, "pitch": 67, "duration": 1, "velocity": 108}, {"time": 894, "pitch": 71, "duration": 2, "velocity": 108}, {"time": 897, "pitch": 66, "duration": 6, "velocity": 111}, {"time": 903, "pitch": 66, "duration": 4, "velocity": 109}, {"time": 909, "pitch": 66, "duration": 1, "velocity": 105}, {"time": 912, "pitch": 66, "duration": 2, "velocity": 105}, {"time": 915, "pitch": 62, "duration": 2, "velocity": 102}, {"time": 918, "pitch": 64, "duration": 1, "velocity": 111}, {"time": 921, "pitch": 64, "duration": 1, "velocity": 108}, {"time": 924, "pitch": 64, "duration": 1, "velocity": 105}, {"time": 927, "pitch": 64, "duration": 1, "velocity": 108}, {"time": 930, "pitch": 62, "duration": 2, "velocity": 102}, {"time": 933, "pitch": 64, "duration": 1, "velocity": 111}, {"time": 936, "pitch": 66, "duration": 6, "velocity": 102}, {"time": 942, "pitch": 64, "duration": 18, "velocity": 114}, {"time": 966, "pitch": 80, "duration": 15, "velocity": 116}, {"time": 984, "pitch": 79, "duration": 2, "velocity": 108}, {"time": 987, "pitch": 77, "duration": 3, "velocity": 117}, {"time": 990, "pitch": 72, "duration": 13, "velocity": 114}, {"time": 1005, "pitch": 77, "duration": 3, "velocity": 114}, {"time": 1008, "pitch": 77, "duration": 2, "velocity": 105}, {"time": 1011, "pitch": 75, "duration": 1, "velocity": 116}, {"time": 1014, "pitch": 72, "duration": 1, "velocity": 108}, {"time": 1020, "pitch": 72, "duration": 1, "velocity": 102}, {"time": 1023, "pitch": 70, "duration": 1, "velocity": 97}, {"time": 1026, "pitch": 68, "duration": 2, "velocity": 100}, {"time": 1029, "pitch": 70, "duration": 4, "velocity": 112}, {"time": 1035, "pitch": 72, "duration": 24, "velocity": 111}, {"time": 1062, "pitch": 77, "duration": 12, "velocity": 111}, {"time": 1077, "pitch": 75, "duration": 4, "velocity": 116}, {"time": 1083, "pitch": 72, "duration": 2, "velocity": 102}, {"time": 1086, "pitch": 70, "duration": 4, "velocity": 112}, {"time": 1092, "pitch": 72, "duration": 6, "velocity": 111}, {"time": 1104, "pitch": 68, "duration": 3, "velocity": 116}, {"time": 1107, "pitch": 70, "duration": 1, "velocity": 116}, {"time": 1110, "pitch": 72, "duration": 4, "velocity": 108}, {"time": 1116, "pitch": 72, "duration": 2, "velocity": 105}, {"time": 1119, "pitch": 70, "duration": 1, "velocity": 112}, {"time": 1122, "pitch": 68, "duration": 2, "velocity": 112}, {"time": 1125, "pitch": 70, "duration": 4, "velocity": 116}, {"time": 1131, "pitch": 67, "duration": 26, "velocity": 120}, {"time": 1158, "pitch": 80, "duration": 15, "velocity": 116}, {"time": 1176, "pitch": 79, "duration": 2, "velocity": 108}, {"time": 1179, "pitch": 77, "duration": 3, "velocity": 117}, {"time": 1182, "pitch": 72, "duration": 13, "velocity": 114}, {"time": 1197, "pitch": 77, "duration": 3, "velocity": 114}, {"time": 1200, "pitch": 77, "duration": 2, "velocity": 105}, {"time": 1203, "pitch": 75, "duration": 1, "velocity": 116}, {"time": 1206, "pitch": 72, "duration": 1, "velocity": 108}, {"time": 1212, "pitch": 72, "duration": 1, "velocity": 102}, {"time": 1215, "pitch": 70, "duration": 1, "velocity": 97}, {"time": 1218, "pitch": 68, "duration": 2, "velocity": 100}, {"time": 1221, "pitch": 70, "duration": 4, "velocity": 112}, {"time": 1227, "pitch": 72, "duration": 24, "velocity": 111}, {"time": 1254, "pitch": 77, "duration": 12, "velocity": 111}, {"time": 1269, "pitch": 75, "duration": 4, "velocity": 116}, {"time": 1275, "pitch": 72, "duration": 2, "velocity": 102}, {"time": 1278, "pitch": 70, "duration": 4, "velocity": 112}, {"time": 1284, "pitch": 72, "duration": 6, "velocity": 111}, {"time": 1296, "pitch": 68, "duration": 3, "velocity": 116}, {"time": 1299, "pitch": 70, "duration": 1, "velocity": 116}, {"time": 1302, "pitch": 72, "duration": 4, "velocity": 108}, {"time": 1308, "pitch": 72, "duration": 2, "velocity": 105}, {"time": 1311, "pitch": 70, "duration": 1, "velocity": 112}, {"time": 1314, "pitch": 68, "duration": 2, "velocity": 112}, {"time": 1317, "pitch": 70, "duration": 4, "velocity": 116}, {"time": 1323, "pitch": 67, "duration": 26, "velocity": 120}, {"time": 1851, "pitch": 71, "duration": 2, "velocity": 120}, {"time": 1854, "pitch": 76, "duration": 5, "velocity": 117}, {"time": 1860, "pitch": 76, "duration": 4, "velocity": 114}, {"time": 1866, "pitch": 76, "duration": 4, "velocity": 111}, {"time": 1872, "pitch": 76, "duration": 3, "velocity": 108}, {"time": 1875, "pitch": 76, "duration": 3, "velocity": 108}, {"time": 1878, "pitch": 74, "duration": 1, "velocity": 111}, {"time": 1881, "pitch": 76, "duration": 1, "velocity": 111}, {"time": 1884, "pitch": 78, "duration": 2, "velocity": 116}, {"time": 1887, "pitch": 76, "duration": 7, "velocity": 114}, {"time": 1896, "pitch": 76, "duration": 2, "velocity": 112}, {"time": 1899, "pitch": 76, "duration": 1, "velocity": 108}, {"time": 1902, "pitch": 74, "duration": 2, "velocity": 102}, {"time": 1905, "pitch": 71, "duration": 1, "velocity": 100}, {"time": 1908, "pitch": 71, "duration": 1, "velocity": 100}, {"time": 1911, "pitch": 71, "duration": 1, "velocity": 102}, {"time": 1914, "pitch": 71, "duration": 1, "velocity": 102}, {"time": 1917, "pitch": 71, "duration": 1, "velocity": 100}, {"time": 1920, "pitch": 69, "duration": 2, "velocity": 94}, {"time": 1923, "pitch": 71, "duration": 19, "velocity": 105}, {"time": 1947, "pitch": 64, "duration": 2, "velocity": 105}, {"time": 1950, "pitch": 76, "duration": 4, "velocity": 111}, {"time": 1956, "pitch": 76, "duration": 3, "velocity": 111}, {"time": 1962, "pitch": 76, "duration": 4, "velocity": 105}, {"time": 1968, "pitch": 76, "duration": 2, "velocity": 108}, {"time": 1971, "pitch": 76, "duration": 2, "velocity": 100}, {"time": 1974, "pitch": 74, "duration": 1, "velocity": 111}, {"time": 1977, "pitch": 76, "duration": 1, "velocity": 111}, {"time": 1980, "pitch": 78, "duration": 2, "velocity": 112}, {"time": 1983, "pitch": 76, "duration": 6, "velocity": 117}, {"time": 1989, "pitch": 76, "duration": 6, "velocity": 111}, {"time": 1995, "pitch": 76, "duration": 2, "velocity": 105}, {"time": 1998, "pitch": 74, "duration": 3, "velocity": 105}, {"time": 2001, "pitch": 71, "duration": 3, "velocity": 114}, {"time": 2004, "pitch": 71, "duration": 2, "velocity": 108}, {"time": 2007, "pitch": 71, "duration": 1, "velocity": 97}, {"time": 2010, "pitch": 71, "duration": 1, "velocity": 108}, {"time": 2013, "pitch": 71, "duration": 1, "velocity": 102}, {"time": 2016, "pitch": 69, "duration": 1, "velocity": 111}, {"time": 2019, "pitch": 71, "duration": 15, "velocity": 111}, {"time": 2040, "pitch": 74, "duration": 2, "velocity": 114}, {"time": 2043, "pitch": 71, "duration": 2, "velocity": 108}, {"time": 2046, "pitch": 69, "duration": 4, "velocity": 114}, {"time": 2052, "pitch": 69, "duration": 1, "velocity": 108}, {"time": 2055, "pitch": 69, "duration": 2, "velocity": 111}, {"time": 2058, "pitch": 71, "duration": 4, "velocity": 117}, {"time": 2064, "pitch": 69, "duration": 2, "velocity": 111}, {"time": 2067, "pitch": 67, "duration": 1, "velocity": 114}, {"time": 2070, "pitch": 71, "duration": 2, "velocity": 108}, {"time": 2073, "pitch": 74, "duration": 9, "velocity": 108}, {"time": 2091, "pitch": 64, "duration": 2, "velocity": 117}, {"time": 2094, "pitch": 76, "duration": 1, "velocity": 108}, {"time": 2097, "pitch": 76, "duration": 1, "velocity": 111}, {"time": 2100, "pitch": 76, "duration": 1, "velocity": 102}, {"time": 2103, "pitch": 76, "duration": 1, "velocity": 105}, {"time": 2106, "pitch": 76, "duration": 1, "velocity": 105}, {"time": 2109, "pitch": 78, "duration": 2, "velocity": 112}, {"time": 2112, "pitch": 76, "duration": 2, "velocity": 111}, {"time": 2115, "pitch": 74, "duration": 2, "velocity": 114}, {"time": 2118, "pitch": 71, "duration": 15, "velocity": 117}, {"time": 2136, "pitch": 74, "duration": 2, "velocity": 105}, {"time": 2139, "pitch": 71, "duration": 2, "velocity": 102}, {"time": 2142, "pitch": 69, "duration": 4, "velocity": 114}, {"time": 2148, "pitch": 69, "duration": 2, "velocity": 108}, {"time": 2151, "pitch": 69, "duration": 5, "velocity": 120}, {"time": 2157, "pitch": 69, "duration": 4, "velocity": 117}, {"time": 2163, "pitch": 67, "duration": 1, "velocity": 108}, {"time": 2166, "pitch": 71, "duration": 2, "velocity": 108}, {"time": 2169, "pitch": 66, "duration": 6, "velocity": 111}, {"time": 2175, "pitch": 66, "duration": 4, "velocity": 109}, {"time": 2181, "pitch": 66, "duration": 1, "velocity": 105}, {"time": 2184, "pitch": 66, "duration": 2, "velocity": 105}, {"time": 2187, "pitch": 62, "duration": 2, "velocity": 102}, {"time": 2190, "pitch": 64, "duration": 1, "velocity": 111}, {"time": 2193, "pitch": 64, "duration": 1, "velocity": 108}, {"time": 2196, "pitch": 64, "duration": 1, "velocity": 105}, {"time": 2199, "pitch": 64, "duration": 1, "velocity": 108}, {"time": 2202, "pitch": 62, "duration": 2, "velocity": 102}, {"time": 2205, "pitch": 64, "duration": 1, "velocity": 111}, {"time": 2208, "pitch": 66, "duration": 6, "velocity": 102}, {"time": 2214, "pitch": 64, "duration": 18, "velocity": 114}, {"time": 2235, "pitch": 71, "duration": 2, "velocity": 120}, {"time": 2238, "pitch": 76, "duration": 5, "velocity": 117}, {"time": 2244, "pitch": 76, "duration": 4, "velocity": 114}, {"time": 2250, "pitch": 76, "duration": 4, "velocity": 111}, {"time": 2256, "pitch": 76, "duration": 3, "velocity": 108}, {"time": 2259, "pitch": 76, "duration": 3, "velocity": 108}, {"time": 2262, "pitch": 74, "duration": 1, "velocity": 111}, {"time": 2265, "pitch": 76, "duration": 1, "velocity": 111}, {"time": 2268, "pitch": 78, "duration": 2, "velocity": 116}, {"time": 2271, "pitch": 76, "duration": 7, "velocity": 114}, {"time": 2280, "pitch": 76, "duration": 2, "velocity": 112}, {"time": 2283, "pitch": 76, "duration": 1, "velocity": 108}, {"time": 2286, "pitch": 74, "duration": 2, "velocity": 102}, {"time": 2289, "pitch": 71, "duration": 1, "velocity": 100}, {"time": 2292, "pitch": 71, "duration": 1, "velocity": 100}, {"time": 2295, "pitch": 71, "duration": 1, "velocity": 102}, {"time": 2298, "pitch": 71, "duration": 1, "velocity": 102}, {"time": 2301, "pitch": 71, "duration": 1, "velocity": 100}, {"time": 2304, "pitch": 69, "duration": 2, "velocity": 94}, {"time": 2307, "pitch": 71, "duration": 19, "velocity": 105}, {"time": 2331, "pitch": 64, "duration": 2, "velocity": 105}, {"time": 2334, "pitch": 76, "duration": 4, "velocity": 111}, {"time": 2340, "pitch": 76, "duration": 3, "velocity": 111}, {"time": 2346, "pitch": 76, "duration": 4, "velocity": 105}, {"time": 2352, "pitch": 76, "duration": 2, "velocity": 108}, {"time": 2355, "pitch": 76, "duration": 2, "velocity": 100}, {"time": 2358, "pitch": 74, "duration": 1, "velocity": 111}, {"time": 2361, "pitch": 76, "duration": 1, "velocity": 111}, {"time": 2364, "pitch": 78, "duration": 2, "velocity": 112}, {"time": 2367, "pitch": 76, "duration": 6, "velocity": 117}, {"time": 2373, "pitch": 76, "duration": 6, "velocity": 111}, {"time": 2379, "pitch": 76, "duration": 2, "velocity": 105}, {"time": 2382, "pitch": 74, "duration": 3, "velocity": 105}, {"time": 2385, "pitch": 71, "duration": 3, "velocity": 114}, {"time": 2388, "pitch": 71, "duration": 2, "velocity": 108}, {"time": 2391, "pitch": 71, "duration": 1, "velocity": 97}, {"time": 2394, "pitch": 71, "duration": 1, "velocity": 108}, {"time": 2397, "pitch": 71, "duration": 1, "velocity": 102}, {"time": 2400, "pitch": 69, "duration": 1, "velocity": 111}, {"time": 2403, "pitch": 71, "duration": 15, "velocity": 111}, {"time": 2424, "pitch": 74, "duration": 2, "velocity": 114}, {"time": 2427, "pitch": 71, "duration": 2, "velocity": 108}, {"time": 2430, "pitch": 69, "duration": 4, "velocity": 114}, {"time": 2436, "pitch": 69, "duration": 1, "velocity": 108}, {"time": 2439, "pitch": 69, "duration": 2, "velocity": 111}, {"time": 2442, "pitch": 71, "duration": 4, "velocity": 117}, {"time": 2448, "pitch": 69, "duration": 2, "velocity": 111}, {"time": 2451, "pitch": 67, "duration": 1, "velocity": 114}, {"time": 2454, "pitch": 71, "duration": 2, "velocity": 108}, {"time": 2457, "pitch": 74, "duration": 9, "velocity": 108}, {"time": 2475, "pitch": 64, "duration": 2, "velocity": 117}, {"time": 2478, "pitch": 76, "duration": 1, "velocity": 108}, {"time": 2481, "pitch": 76, "duration": 1, "velocity": 111}, {"time": 2484, "pitch": 76, "duration": 1, "velocity": 102}, {"time": 2487, "pitch": 76, "duration": 1, "velocity": 105}, {"time": 2490, "pitch": 76, "duration": 1, "velocity": 105}, {"time": 2493, "pitch": 78, "duration": 2, "velocity": 112}, {"time": 2496, "pitch": 76, "duration": 2, "velocity": 111}, {"time": 2499, "pitch": 74, "duration": 2, "velocity": 114}, {"time": 2502, "pitch": 71, "duration": 15, "velocity": 117}, {"time": 2520, "pitch": 74, "duration": 2, "velocity": 105}, {"time": 2523, "pitch": 71, "duration": 2, "velocity": 102}, {"time": 2526, "pitch": 69, "duration": 4, "velocity": 114}, {"time": 2532, "pitch": 69, "duration": 2, "velocity": 108}, {"time": 2535, "pitch": 69, "duration": 5, "velocity": 120}, {"time": 2541, "pitch": 69, "duration": 4, "velocity": 117}, {"time": 2547, "pitch": 67, "duration": 1, "velocity": 108}, {"time": 2550, "pitch": 71, "duration": 2, "velocity": 108}, {"time": 2553, "pitch": 66, "duration": 6, "velocity": 111}, {"time": 2559, "pitch": 66, "duration": 4, "velocity": 109}, {"time": 2565, "pitch": 66, "duration": 1, "velocity": 105}, {"time": 2568, "pitch": 66, "duration": 2, "velocity": 105}, {"time": 2571, "pitch": 62, "duration": 2, "velocity": 102}, {"time": 2574, "pitch": 64, "duration": 1, "velocity": 111}, {"time": 2577, "pitch": 64, "duration": 1, "velocity": 108}, {"time": 2580, "pitch": 64, "duration": 1, "velocity": 105}, {"time": 2583, "pitch": 64, "duration": 1, "velocity": 108}, {"time": 2586, "pitch": 62, "duration": 2, "velocity": 102}, {"time": 2589, "pitch": 64, "duration": 1, "velocity": 111}, {"time": 2592, "pitch": 66, "duration": 6, "velocity": 102}, {"time": 2598, "pitch": 64, "duration": 18, "velocity": 114}, {"time": 2622, "pitch": 80, "duration": 15, "velocity": 116}, {"time": 2640, "pitch": 79, "duration": 2, "velocity": 108}, {"time": 2643, "pitch": 77, "duration": 3, "velocity": 117}, {"time": 2646, "pitch": 72, "duration": 13, "velocity": 114}, {"time": 2661, "pitch": 77, "duration": 3, "velocity": 114}, {"time": 2664, "pitch": 77, "duration": 2, "velocity": 105}, {"time": 2667, "pitch": 75, "duration": 1, "velocity": 116}, {"time": 2670, "pitch": 72, "duration": 1, "velocity": 108}, {"time": 2676, "pitch": 72, "duration": 1, "velocity": 102}, {"time": 2679, "pitch": 70, "duration": 1, "velocity": 97}, {"time": 2682, "pitch": 68, "duration": 2, "velocity": 100}, {"time": 2685, "pitch": 70, "duration": 4, "velocity": 112}, {"time": 2691, "pitch": 72, "duration": 24, "velocity": 111}, {"time": 2718, "pitch": 77, "duration": 12, "velocity": 111}, {"time": 2733, "pitch": 75, "duration": 4, "velocity": 116}, {"time": 2739, "pitch": 72, "duration": 2, "velocity": 102}, {"time": 2742, "pitch": 70, "duration": 4, "velocity": 112}, {"time": 2748, "pitch": 72, "duration": 6, "velocity": 111}, {"time": 2760, "pitch": 68, "duration": 3, "velocity": 116}, {"time": 2763, "pitch": 70, "duration": 1, "velocity": 116}, {"time": 2766, "pitch": 72, "duration": 4, "velocity": 108}, {"time": 2772, "pitch": 72, "duration": 2, "velocity": 105}, {"time": 2775, "pitch": 70, "duration": 1, "velocity": 112}, {"time": 2778, "pitch": 68, "duration": 2, "velocity": 112}, {"time": 2781, "pitch": 70, "duration": 4, "velocity": 116}, {"time": 2787, "pitch": 67, "duration": 26, "velocity": 120}, {"time": 2814, "pitch": 80, "duration": 15, "velocity": 116}, {"time": 2832, "pitch": 79, "duration": 2, "velocity": 108}, {"time": 2835, "pitch": 77, "duration": 3, "velocity": 117}, {"time": 2838, "pitch": 72, "duration": 13, "velocity": 114}, {"time": 2853, "pitch": 77, "duration": 3, "velocity": 114}, {"time": 2856, "pitch": 77, "duration": 2, "velocity": 105}, {"time": 2859, "pitch": 75, "duration": 1, "velocity": 116}, {"time": 2862, "pitch": 72, "duration": 1, "velocity": 108}, {"time": 2868, "pitch": 72, "duration": 1, "velocity": 102}, {"time": 2871, "pitch": 70, "duration": 1, "velocity": 97}, {"time": 2874, "pitch": 68, "duration": 2, "velocity": 100}, {"time": 2877, "pitch": 70, "duration": 4, "velocity": 112}, {"time": 2883, "pitch": 72, "duration": 24, "velocity": 111}, {"time": 2910, "pitch": 77, "duration": 12, "velocity": 111}, {"time": 2925, "pitch": 75, "duration": 4, "velocity": 116}, {"time": 2931, "pitch": 72, "duration": 2, "velocity": 102}, {"time": 2934, "pitch": 70, "duration": 4, "velocity": 112}, {"time": 2940, "pitch": 72, "duration": 6, "velocity": 111}, {"time": 2952, "pitch": 68, "duration": 3, "velocity": 116}, {"time": 2955, "pitch": 70, "duration": 1, "velocity": 116}, {"time": 2958, "pitch": 72, "duration": 4, "velocity": 108}, {"time": 2964, "pitch": 72, "duration": 2, "velocity": 105}, {"time": 2967, "pitch": 70, "duration": 1, "velocity": 112}, {"time": 2970, "pitch": 68, "duration": 2, "velocity": 112}, {"time": 2973, "pitch": 70, "duration": 4, "velocity": 116}, {"time": 2979, "pitch": 67, "duration": 26, "velocity": 120}]}, {"program": 0, "is_drum": false, "name": "PIANO", "notes": [{"time": 6, "pitch": 40, "duration": 45, "velocity": 93}, {"time": 6, "pitch": 52, "duration": 46, "velocity": 105}, {"time": 6, "pitch": 64, "duration": 3, "velocity": 100}, {"time": 9, "pitch": 59, "duration": 6, "velocity": 84}, {"time": 12, "pitch": 64, "duration": 1, "velocity": 108}, {"time": 15, "pitch": 64, "duration": 4, "velocity": 92}, {"time": 18, "pitch": 59, "duration": 3, "velocity": 71}, {"time": 21, "pitch": 64, "duration": 3, "velocity": 78}, {"time": 24, "pitch": 59, "duration": 7, "velocity": 82}, {"time": 27, "pitch": 64, "duration": 1, "velocity": 94}, {"time": 30, "pitch": 66, "duration": 5, "velocity": 116}, {"time": 33, "pitch": 59, "duration": 7, "velocity": 78}, {"time": 36, "pitch": 64, "duration": 1, "velocity": 82}, {"time": 39, "pitch": 66, "duration": 3, "velocity": 109}, {"time": 42, "pitch": 59, "duration": 1, "velocity": 67}, {"time": 45, "pitch": 59, "duration": 8, "velocity": 73}, {"time": 48, "pitch": 64, "duration": 3, "velocity": 102}, {"time": 51, "pitch": 66, "duration": 1, "velocity": 109}, {"time": 54, "pitch": 40, "duration": 45, "velocity": 93}, {"time": 54, "pitch": 52, "duration": 22, "velocity": 100}, {"time": 54, "pitch": 67, "duration": 4, "velocity": 102}, {"time": 57, "pitch": 59, "duration": 7, "velocity": 45}, {"time": 60, "pitch": 64, "duration": 1, "velocity": 76}, {"time": 63, "pitch": 64, "duration": 5, "velocity": 94}, {"time": 63, "pitch": 67, "duration": 7, "velocity": 100}, {"time": 69, "pitch": 59, "duration": 8, "velocity": 84}, {"time": 72, "pitch": 64, "duration": 3, "velocity": 105}, {"time": 75, "pitch": 67, "duration": 2, "velocity": 97}, {"time": 78, "pitch": 52, "duration": 24, "velocity": 94}, {"time": 78, "pitch": 66, "duration": 6, "velocity": 112}, {"time": 81, "pitch": 59, "duration": 6, "velocity": 66}, {"time": 84, "pitch": 62, "duration": 1, "velocity": 82}, {"time": 87, "pitch": 66, "duration": 9, "velocity": 116}, {"time": 93, "pitch": 59, "duration": 8, "velocity": 80}, {"time": 96, "pitch": 62, "duration": 2, "velocity": 71}, {"time": 99, "pitch": 66, "duration": 2, "velocity": 93}, {"time": 102, "pitch": 40, "duration": 45, "velocity": 93}, {"time": 102, "pitch": 52, "duration": 1, "velocity": 105}, {"time": 102, "pitch": 64, "duration": 3, "velocity": 100}, {"time": 105, "pitch": 59, "duration": 6, "velocity": 84}, {"time": 108, "pitch": 64, "duration": 1, "velocity": 108}, {"time": 111, "pitch": 64, "duration": 4, "velocity": 92}, {"time": 114, "pitch": 59, "duration": 3, "velocity": 71}, {"time": 117, "pitch": 64, "duration": 3, "velocity": 78}, {"time": 120, "pitch": 59, "duration": 7, "velocity": 82}, {"time": 123, "pitch": 64, "duration": 1, "velocity": 94}, {"time": 126, "pitch": 66, "duration": 5, "velocity": 116}, {"time": 129, "pitch": 59, "duration": 7, "velocity": 78}, {"time": 132, "pitch": 64, "duration": 1, "velocity": 82}, {"time": 135, "pitch": 66, "duration": 3, "velocity": 109}, {"time": 138, "pitch": 59, "duration": 1, "velocity": 67}, {"time": 141, "pitch": 59, "duration": 8, "velocity": 73}, {"time": 144, "pitch": 64, "duration": 3, "velocity": 102}, {"time": 147, "pitch": 66, "duration": 1, "velocity": 109}, {"time": 150, "pitch": 40, "duration": 45, "velocity": 93}, {"time": 150, "pitch": 52, "duration": 22, "velocity": 100}, {"time": 150, "pitch": 67, "duration": 4, "velocity": 102}, {"time": 153, "pitch": 59, "duration": 7, "velocity": 45}, {"time": 156, "pitch": 64, "duration": 1, "velocity": 76}, {"time": 159, "pitch": 64, "duration": 5, "velocity": 94}, {"time": 159, "pitch": 67, "duration": 7, "velocity": 100}, {"time": 165, "pitch": 59, "duration": 8, "velocity": 84}, {"time": 168, "pitch": 64, "duration": 3, "velocity": 105}, {"time": 171, "pitch": 67, "duration": 2, "velocity": 97}, {"time": 174, "pitch": 52, "duration": 24, "velocity": 94}, {"time": 174, "pitch": 66, "duration": 6, "velocity": 112}, {"time": 177, "pitch": 59, "duration": 6, "velocity": 66}, {"time": 180, "pitch": 62, "duration": 1, "velocity": 82}, {"time": 183, "pitch": 66, "duration": 9, "velocity": 116}, {"time": 189, "pitch": 59, "duration": 8, "velocity": 80}, {"time": 192, "pitch": 62, "duration": 2, "velocity": 71}, {"time": 195, "pitch": 66, "duration": 2, "velocity": 93}, {"time": 198, "pitch": 40, "duration": 22, "velocity": 97}, {"time": 198, "pitch": 52, "duration": 1, "velocity": 97}, {"time": 198, "pitch": 59, "duration": 2, "velocity": 92}, {"time": 198, "pitch": 67, "duration": 4, "velocity": 89}, {"time": 201, "pitch": 59, "duration": 4, "velocity": 84}, {"time": 204, "pitch": 64, "duration": 2, "velocity": 76}, {"time": 207, "pitch": 67, "duration": 4, "velocity": 108}, {"time": 219, "pitch": 59, "duration": 4, "velocity": 84}, {"time": 222, "pitch": 40, "duration": 16, "velocity": 111}, {"time": 222, "pitch": 52, "duration": 16, "velocity": 111}, {"time": 222, "pitch": 67, "duration": 4, "velocity": 100}, {"time": 225, "pitch": 59, "duration": 4, "velocity": 84}, {"time": 228, "pitch": 64, "duration": 1, "velocity": 92}, {"time": 231, "pitch": 67, "duration": 7, "velocity": 108}, {"time": 237, "pitch": 64, "duration": 3, "velocity": 114}, {"time": 240, "pitch": 59, "duration": 2, "velocity": 100}, {"time": 246, "pitch": 31, "duration": 22, "velocity": 102}, {"time": 246, "pitch": 43, "duration": 22, "velocity": 102}, {"time": 246, "pitch": 55, "duration": 3, "velocity": 82}, {"time": 246, "pitch": 62, "duration": 4, "velocity": 87}, {"time": 249, "pitch": 50, "duration": 7, "velocity": 64}, {"time": 252, "pitch": 55, "duration": 2, "velocity": 87}, {"time": 255, "pitch": 67, "duration": 6, "velocity": 117}, {"time": 258, "pitch": 50, "duration": 11, "velocity": 57}, {"time": 261, "pitch": 62, "duration": 4, "velocity": 84}, {"time": 264, "pitch": 55, "duration": 4, "velocity": 60}, {"time": 267, "pitch": 62, "duration": 11, "velocity": 84}, {"time": 270, "pitch": 31, "duration": 16, "velocity": 94}, {"time": 270, "pitch": 43, "duration": 16, "velocity": 94}, {"time": 270, "pitch": 55, "duration": 3, "velocity": 9}, {"time": 273, "pitch": 50, "duration": 7, "velocity": 52}, {"time": 276, "pitch": 55, "duration": 1, "velocity": 57}, {"time": 279, "pitch": 55, "duration": 4, "velocity": 97}, {"time": 279, "pitch": 62, "duration": 4, "velocity": 92}, {"time": 279, "pitch": 67, "duration": 7, "velocity": 100}, {"time": 282, "pitch": 50, "duration": 5, "velocity": 69}, {"time": 285, "pitch": 55, "duration": 3, "velocity": 92}, {"time": 288, "pitch": 62, "duration": 1, "velocity": 80}, {"time": 294, "pitch": 40, "duration": 22, "velocity": 97}, {"time": 294, "pitch": 52, "duration": 22, "velocity": 97}, {"time": 294, "pitch": 59, "duration": 2, "velocity": 89}, {"time": 294, "pitch": 64, "duration": 4, "velocity": 89}, {"time": 297, "pitch": 59, "duration": 4, "velocity": 87}, {"time": 300, "pitch": 64, "duration": 4, "velocity": 80}, {"time": 303, "pitch": 67, "duration": 6, "velocity": 102}, {"time": 309, "pitch": 64, "duration": 4, "velocity": 97}, {"time": 312, "pitch": 59, "duration": 4, "velocity": 78}, {"time": 315, "pitch": 67, "duration": 9, "velocity": 100}, {"time": 318, "pitch": 40, "duration": 19, "velocity": 102}, {"time": 318, "pitch": 52, "duration": 19, "velocity": 102}, {"time": 321, "pitch": 59, "duration": 4, "velocity": 78}, {"time": 324, "pitch": 64, "duration": 4, "velocity": 76}, {"time": 327, "pitch": 59, "duration": 1, "velocity": 67}, {"time": 330, "pitch": 59, "duration": 2, "velocity": 102}, {"time": 330, "pitch": 67, "duration": 6, "velocity": 102}, {"time": 333, "pitch": 59, "duration": 3, "velocity": 80}, {"time": 336, "pitch": 64, "duration": 1, "velocity": 100}, {"time": 342, "pitch": 31, "duration": 22, "velocity": 102}, {"time": 342, "pitch": 43, "duration": 22, "velocity": 102}, {"time": 342, "pitch": 55, "duration": 3, "velocity": 89}, {"time": 342, "pitch": 59, "duration": 5, "velocity": 87}, {"time": 345, "pitch": 50, "duration": 7, "velocity": 66}, {"time": 348, "pitch": 55, "duration": 2, "velocity": 84}, {"time": 351, "pitch": 62, "duration": 4, "velocity": 102}, {"time": 354, "pitch": 50, "duration": 11, "velocity": 76}, {"time": 357, "pitch": 62, "duration": 1, "velocity": 14}, {"time": 357, "pitch": 67, "duration": 27, "velocity": 100}, {"time": 360, "pitch": 55, "duration": 1, "velocity": 52}, {"time": 363, "pitch": 62, "duration": 10, "velocity": 97}, {"time": 366, "pitch": 31, "duration": 21, "velocity": 94}, {"time": 366, "pitch": 43, "duration": 21, "velocity": 94}, {"time": 369, "pitch": 50, "duration": 7, "velocity": 64}, {"time": 372, "pitch": 55, "duration": 2, "velocity": 47}, {"time": 375, "pitch": 62, "duration": 10, "velocity": 84}, {"time": 378, "pitch": 50, "duration": 10, "velocity": 82}, {"time": 381, "pitch": 55, "duration": 3, "velocity": 84}, {"time": 384, "pitch": 59, "duration": 3, "velocity": 80}, {"time": 387, "pitch": 55, "duration": 1, "velocity": 57}, {"time": 390, "pitch": 33, "duration": 20, "velocity": 108}, {"time": 390, "pitch": 45, "duration": 20, "velocity": 108}, {"time": 390, "pitch": 57, "duration": 6, "velocity": 89}, {"time": 390, "pitch": 60, "duration": 7, "velocity": 94}, {"time": 396, "pitch": 52, "duration": 4, "velocity": 66}, {"time": 399, "pitch": 57, "duration": 6, "velocity": 105}, {"time": 402, "pitch": 52, "duration": 10, "velocity": 58}, {"time": 405, "pitch": 60, "duration": 4, "velocity": 111}, {"time": 414, "pitch": 35, "duration": 17, "velocity": 102}, {"time": 414, "pitch": 47, "duration": 17, "velocity": 102}, {"time": 414, "pitch": 59, "duration": 7, "velocity": 92}, {"time": 414, "pitch": 62, "duration": 9, "velocity": 97}, {"time": 420, "pitch": 54, "duration": 4, "velocity": 19}, {"time": 423, "pitch": 66, "duration": 7, "velocity": 105}, {"time": 426, "pitch": 54, "duration": 3, "velocity": 63}, {"time": 429, "pitch": 62, "duration": 3, "velocity": 114}, {"time": 432, "pitch": 59, "duration": 4, "velocity": 84}, {"time": 435, "pitch": 62, "duration": 1, "velocity": 84}, {"time": 438, "pitch": 40, "duration": 21, "velocity": 97}, {"time": 438, "pitch": 52, "duration": 21, "velocity": 97}, {"time": 438, "pitch": 64, "duration": 9, "velocity": 92}, {"time": 444, "pitch": 59, "duration": 3, "velocity": 58}, {"time": 447, "pitch": 67, "duration": 7, "velocity": 105}, {"time": 453, "pitch": 64, "duration": 7, "velocity": 105}, {"time": 456, "pitch": 59, "duration": 3, "velocity": 82}, {"time": 462, "pitch": 35, "duration": 19, "velocity": 102}, {"time": 462, "pitch": 47, "duration": 19, "velocity": 102}, {"time": 462, "pitch": 59, "duration": 4, "velocity": 94}, {"time": 462, "pitch": 62, "duration": 10, "velocity": 87}, {"time": 468, "pitch": 54, "duration": 7, "velocity": 65}, {"time": 471, "pitch": 59, "duration": 4, "velocity": 100}, {"time": 474, "pitch": 66, "duration": 8, "velocity": 109}, {"time": 477, "pitch": 54, "duration": 3, "velocity": 87}, {"time": 480, "pitch": 59, "duration": 4, "velocity": 94}, {"time": 483, "pitch": 62, "duration": 1, "velocity": 80}, {"time": 486, "pitch": 33, "duration": 19, "velocity": 102}, {"time": 486, "pitch": 45, "duration": 19, "velocity": 102}, {"time": 486, "pitch": 57, "duration": 3, "velocity": 82}, {"time": 486, "pitch": 60, "duration": 5, "velocity": 84}, {"time": 489, "pitch": 52, "duration": 7, "velocity": 52}, {"time": 492, "pitch": 57, "duration": 2, "velocity": 71}, {"time": 495, "pitch": 69, "duration": 9, "velocity": 102}, {"time": 498, "pitch": 52, "duration": 7, "velocity": 76}, {"time": 501, "pitch": 64, "duration": 4, "velocity": 105}, {"time": 504, "pitch": 60, "duration": 2, "velocity": 89}, {"time": 507, "pitch": 57, "duration": 1, "velocity": 76}, {"time": 510, "pitch": 35, "duration": 18, "velocity": 94}, {"time": 510, "pitch": 47, "duration": 18, "velocity": 94}, {"time": 510, "pitch": 59, "duration": 7, "velocity": 87}, {"time": 510, "pitch": 62, "duration": 7, "velocity": 87}, {"time": 519, "pitch": 66, "duration": 7, "velocity": 102}, {"time": 522, "pitch": 54, "duration": 3, "velocity": 79}, {"time": 525, "pitch": 62, "duration": 3, "velocity": 105}, {"time": 528, "pitch": 59, "duration": 3, "velocity": 92}, {"time": 534, "pitch": 40, "duration": 22, "velocity": 100}, {"time": 534, "pitch": 52, "duration": 22, "velocity": 100}, {"time": 534, "pitch": 59, "duration": 3, "velocity": 92}, {"time": 534, "pitch": 64, "duration": 8, "velocity": 100}, {"time": 540, "pitch": 59, "duration": 2, "velocity": 58}, {"time": 543, "pitch": 67, "duration": 6, "velocity": 114}, {"time": 549, "pitch": 64, "duration": 3, "velocity": 92}, {"time": 552, "pitch": 59, "duration": 5, "velocity": 100}, {"time": 558, "pitch": 40, "duration": 10, "velocity": 97}, {"time": 558, "pitch": 52, "duration": 10, "velocity": 97}, {"time": 558, "pitch": 59, "duration": 2, "velocity": 78}, {"time": 558, "pitch": 64, "duration": 6, "velocity": 84}, {"time": 564, "pitch": 59, "duration": 2, "velocity": 92}, {"time": 567, "pitch": 59, "duration": 4, "velocity": 97}, {"time": 567, "pitch": 67, "duration": 4, "velocity": 108}, {"time": 570, "pitch": 40, "duration": 10, "velocity": 89}, {"time": 570, "pitch": 52, "duration": 10, "velocity": 89}, {"time": 573, "pitch": 67, "duration": 4, "velocity": 108}, {"time": 579, "pitch": 59, "duration": 3, "velocity": 71}, {"time": 582, "pitch": 40, "duration": 22, "velocity": 97}, {"time": 582, "pitch": 52, "duration": 22, "velocity": 97}, {"time": 582, "pitch": 59, "duration": 2, "velocity": 92}, {"time": 582, "pitch": 67, "duration": 4, "velocity": 89}, {"time": 585, "pitch": 59, "duration": 4, "velocity": 84}, {"time": 588, "pitch": 64, "duration": 2, "velocity": 76}, {"time": 591, "pitch": 67, "duration": 4, "velocity": 108}, {"time": 603, "pitch": 59, "duration": 4, "velocity": 84}, {"time": 606, "pitch": 40, "duration": 16, "velocity": 111}, {"time": 606, "pitch": 52, "duration": 16, "velocity": 111}, {"time": 606, "pitch": 67, "duration": 4, "velocity": 100}, {"time": 609, "pitch": 59, "duration": 4, "velocity": 84}, {"time": 612, "pitch": 64, "duration": 1, "velocity": 92}, {"time": 615, "pitch": 67, "duration": 7, "velocity": 108}, {"time": 621, "pitch": 64, "duration": 3, "velocity": 114}, {"time": 624, "pitch": 59, "duration": 2, "velocity": 100}, {"time": 630, "pitch": 31, "duration": 22, "velocity": 102}, {"time": 630, "pitch": 43, "duration": 22, "velocity": 102}, {"time": 630, "pitch": 55, "duration": 3, "velocity": 82}, {"time": 630, "pitch": 62, "duration": 4, "velocity": 87}, {"time": 633, "pitch": 50, "duration": 7, "velocity": 64}, {"time": 636, "pitch": 55, "duration": 2, "velocity": 87}, {"time": 639, "pitch": 67, "duration": 6, "velocity": 117}, {"time": 642, "pitch": 50, "duration": 11, "velocity": 57}, {"time": 645, "pitch": 62, "duration": 4, "velocity": 84}, {"time": 648, "pitch": 55, "duration": 4, "velocity": 60}, {"time": 651, "pitch": 62, "duration": 11, "velocity": 84}, {"time": 654, "pitch": 31, "duration": 16, "velocity": 94}, {"time": 654, "pitch": 43, "duration": 16, "velocity": 94}, {"time": 654, "pitch": 55, "duration": 3, "velocity": 9}, {"time": 657, "pitch": 50, "duration": 7, "velocity": 52}, {"time": 660, "pitch": 55, "duration": 1, "velocity": 57}, {"time": 663, "pitch": 55, "duration": 4, "velocity": 97}, {"time": 663, "pitch": 62, "duration": 4, "velocity": 92}, {"time": 663, "pitch": 67, "duration": 7, "velocity": 100}, {"time": 666, "pitch": 50, "duration": 5, "velocity": 69}, {"time": 669, "pitch": 55, "duration": 3, "velocity": 92}, {"time": 672, "pitch": 62, "duration": 1, "velocity": 80}, {"time": 678, "pitch": 40, "duration": 22, "velocity": 97}, {"time": 678, "pitch": 52, "duration": 22, "velocity": 97}, {"time": 678, "pitch": 59, "duration": 2, "velocity": 89}, {"time": 678, "pitch": 64, "duration": 4, "velocity": 89}, {"time": 681, "pitch": 59, "duration": 4, "velocity": 87}, {"time": 684, "pitch": 64, "duration": 4, "velocity": 80}, {"time": 687, "pitch": 67, "duration": 6, "velocity": 102}, {"time": 693, "pitch": 64, "duration": 4, "velocity": 97}, {"time": 696, "pitch": 59, "duration": 4, "velocity": 78}, {"time": 699, "pitch": 67, "duration": 9, "velocity": 100}, {"time": 702, "pitch": 40, "duration": 19, "velocity": 102}, {"time": 702, "pitch": 52, "duration": 19, "velocity": 102}, {"time": 705, "pitch": 59, "duration": 4, "velocity": 78}, {"time": 708, "pitch": 64, "duration": 4, "velocity": 76}, {"time": 711, "pitch": 59, "duration": 1, "velocity": 67}, {"time": 714, "pitch": 59, "duration": 2, "velocity": 102}, {"time": 714, "pitch": 67, "duration": 6, "velocity": 102}, {"time": 717, "pitch": 59, "duration": 3, "velocity": 80}, {"time": 720, "pitch": 64, "duration": 1, "velocity": 100}, {"time": 726, "pitch": 31, "duration": 22, "velocity": 102}, {"time": 726, "pitch": 43, "duration": 22, "velocity": 102}, {"time": 726, "pitch": 55, "duration": 3, "velocity": 89}, {"time": 726, "pitch": 59, "duration": 5, "velocity": 87}, {"time": 729, "pitch": 50, "duration": 7, "velocity": 66}, {"time": 732, "pitch": 55, "duration": 2, "velocity": 84}, {"time": 735, "pitch": 62, "duration": 4, "velocity": 102}, {"time": 738, "pitch": 50, "duration": 11, "velocity": 76}, {"time": 741, "pitch": 62, "duration": 1, "velocity": 14}, {"time": 741, "pitch": 67, "duration": 27, "velocity": 100}, {"time": 744, "pitch": 55, "duration": 1, "velocity": 52}, {"time": 747, "pitch": 62, "duration": 10, "velocity": 97}, {"time": 750, "pitch": 31, "duration": 21, "velocity": 94}, {"time": 750, "pitch": 43, "duration": 21, "velocity": 94}, {"time": 753, "pitch": 50, "duration": 7, "velocity": 64}, {"time": 756, "pitch": 55, "duration": 2, "velocity": 47}, {"time": 759, "pitch": 62, "duration": 10, "velocity": 84}, {"time": 762, "pitch": 50, "duration": 10, "velocity": 82}, {"time": 765, "pitch": 55, "duration": 3, "velocity": 84}, {"time": 768, "pitch": 59, "duration": 3, "velocity": 80}, {"time": 771, "pitch": 55, "duration": 1, "velocity": 57}, {"time": 774, "pitch": 33, "duration": 20, "velocity": 108}, {"time": 774, "pitch": 45, "duration": 20, "velocity": 108}, {"time": 774, "pitch": 57, "duration": 6, "velocity": 89}, {"time": 774, "pitch": 60, "duration": 7, "velocity": 94}, {"time": 780, "pitch": 52, "duration": 4, "velocity": 66}, {"time": 783, "pitch": 57, "duration": 6, "velocity": 105}, {"time": 786, "pitch": 52, "duration": 10, "velocity": 58}, {"time": 789, "pitch": 60, "duration": 4, "velocity": 111}, {"time": 798, "pitch": 35, "duration": 17, "velocity": 102}, {"time": 798, "pitch": 47, "duration": 17, "velocity": 102}, {"time": 798, "pitch": 59, "duration": 7, "velocity": 92}, {"time": 798, "pitch": 62, "duration": 9, "velocity": 97}, {"time": 804, "pitch": 54, "duration": 4, "velocity": 19}, {"time": 807, "pitch": 66, "duration": 7, "velocity": 105}, {"time": 810, "pitch": 54, "duration": 3, "velocity": 63}, {"time": 813, "pitch": 62, "duration": 3, "velocity": 114}, {"time": 816, "pitch": 59, "duration": 4, "velocity": 84}, {"time": 819, "pitch": 62, "duration": 1, "velocity": 84}, {"time": 822, "pitch": 40, "duration": 21, "velocity": 97}, {"time": 822, "pitch": 52, "duration": 21, "velocity": 97}, {"time": 822, "pitch": 64, "duration": 9, "velocity": 92}, {"time": 828, "pitch": 59, "duration": 3, "velocity": 58}, {"time": 831, "pitch": 67, "duration": 7, "velocity": 105}, {"time": 837, "pitch": 64, "duration": 7, "velocity": 105}, {"time": 840, "pitch": 59, "duration": 3, "velocity": 82}, {"time": 846, "pitch": 35, "duration": 19, "velocity": 102}, {"time": 846, "pitch": 47, "duration": 19, "velocity": 102}, {"time": 846, "pitch": 59, "duration": 4, "velocity": 94}, {"time": 846, "pitch": 62, "duration": 10, "velocity": 87}, {"time": 852, "pitch": 54, "duration": 7, "velocity": 65}, {"time": 855, "pitch": 59, "duration": 4, "velocity": 100}, {"time": 858, "pitch": 66, "duration": 8, "velocity": 109}, {"time": 861, "pitch": 54, "duration": 3, "velocity": 87}, {"time": 864, "pitch": 59, "duration": 4, "velocity": 94}, {"time": 867, "pitch": 62, "duration": 1, "velocity": 80}, {"time": 870, "pitch": 33, "duration": 19, "velocity": 102}, {"time": 870, "pitch": 45, "duration": 19, "velocity": 102}, {"time": 870, "pitch": 57, "duration": 3, "velocity": 82}, {"time": 870, "pitch": 60, "duration": 5, "velocity": 84}, {"time": 873, "pitch": 52, "duration": 7, "velocity": 52}, {"time": 876, "pitch": 57, "duration": 2, "velocity": 71}, {"time": 879, "pitch": 69, "duration": 9, "velocity": 102}, {"time": 882, "pitch": 52, "duration": 7, "velocity": 76}, {"time": 885, "pitch": 64, "duration": 4, "velocity": 105}, {"time": 888, "pitch": 60, "duration": 2, "velocity": 89}, {"time": 891, "pitch": 57, "duration": 1, "velocity": 76}, {"time": 894, "pitch": 35, "duration": 18, "velocity": 94}, {"time": 894, "pitch": 47, "duration": 18, "velocity": 94}, {"time": 894, "pitch": 59, "duration": 7, "velocity": 87}, {"time": 894, "pitch": 62, "duration": 7, "velocity": 87}, {"time": 903, "pitch": 66, "duration": 7, "velocity": 102}, {"time": 906, "pitch": 54, "duration": 3, "velocity": 79}, {"time": 909, "pitch": 62, "duration": 3, "velocity": 105}, {"time": 912, "pitch": 59, "duration": 3, "velocity": 92}, {"time": 918, "pitch": 40, "duration": 22, "velocity": 100}, {"time": 918, "pitch": 52, "duration": 22, "velocity": 100}, {"time": 918, "pitch": 59, "duration": 3, "velocity": 92}, {"time": 918, "pitch": 64, "duration": 8, "velocity": 100}, {"time": 924, "pitch": 59, "duration": 2, "velocity": 58}, {"time": 927, "pitch": 67, "duration": 6, "velocity": 114}, {"time": 933, "pitch": 64, "duration": 3, "velocity": 92}, {"time": 936, "pitch": 59, "duration": 5, "velocity": 100}, {"time": 942, "pitch": 40, "duration": 10, "velocity": 97}, {"time": 942, "pitch": 52, "duration": 10, "velocity": 97}, {"time": 942, "pitch": 59, "duration": 2, "velocity": 78}, {"time": 942, "pitch": 64, "duration": 6, "velocity": 84}, {"time": 948, "pitch": 59, "duration": 2, "velocity": 92}, {"time": 951, "pitch": 59, "duration": 4, "velocity": 97}, {"time": 951, "pitch": 67, "duration": 4, "velocity": 108}, {"time": 954, "pitch": 40, "duration": 10, "velocity": 89}, {"time": 954, "pitch": 52, "duration": 10, "velocity": 89}, {"time": 957, "pitch": 67, "duration": 4, "velocity": 108}, {"time": 963, "pitch": 59, "duration": 3, "velocity": 71}, {"time": 966, "pitch": 29, "duration": 23, "velocity": 105}, {"time": 966, "pitch": 41, "duration": 23, "velocity": 105}, {"time": 966, "pitch": 53, "duration": 7, "velocity": 92}, {"time": 966, "pitch": 60, "duration": 8, "velocity": 92}, {"time": 972, "pitch": 48, "duration": 7, "velocity": 80}, {"time": 975, "pitch": 53, "duration": 2, "velocity": 29}, {"time": 975, "pitch": 56, "duration": 2, "velocity": 102}, {"time": 978, "pitch": 53, "duration": 1, "velocity": 41}, {"time": 978, "pitch": 65, "duration": 7, "velocity": 111}, {"time": 981, "pitch": 48, "duration": 7, "velocity": 62}, {"time": 984, "pitch": 53, "duration": 4, "velocity": 87}, {"time": 987, "pitch": 56, "duration": 2, "velocity": 93}, {"time": 990, "pitch": 29, "duration": 18, "velocity": 97}, {"time": 990, "pitch": 41, "duration": 18, "velocity": 97}, {"time": 990, "pitch": 53, "duration": 6, "velocity": 71}, {"time": 990, "pitch": 56, "duration": 7, "velocity": 79}, {"time": 990, "pitch": 60, "duration": 7, "velocity": 102}, {"time": 996, "pitch": 48, "duration": 4, "velocity": 45}, {"time": 999, "pitch": 53, "duration": 3, "velocity": 87}, {"time": 999, "pitch": 56, "duration": 4, "velocity": 96}, {"time": 999, "pitch": 60, "duration": 4, "velocity": 97}, {"time": 999, "pitch": 65, "duration": 5, "velocity": 97}, {"time": 1002, "pitch": 48, "duration": 5, "velocity": 64}, {"time": 1005, "pitch": 53, "duration": 3, "velocity": 97}, {"time": 1008, "pitch": 55, "duration": 5, "velocity": 120}, {"time": 1014, "pitch": 32, "duration": 14, "velocity": 96}, {"time": 1014, "pitch": 44, "duration": 14, "velocity": 96}, {"time": 1014, "pitch": 56, "duration": 1, "velocity": 112}, {"time": 1017, "pitch": 51, "duration": 7, "velocity": 63}, {"time": 1020, "pitch": 56, "duration": 2, "velocity": 63}, {"time": 1023, "pitch": 56, "duration": 2, "velocity": 82}, {"time": 1023, "pitch": 60, "duration": 2, "velocity": 102}, {"time": 1032, "pitch": 56, "duration": 2, "velocity": 87}, {"time": 1032, "pitch": 60, "duration": 10, "velocity": 92}, {"time": 1032, "pitch": 63, "duration": 12, "velocity": 96}, {"time": 1035, "pitch": 56, "duration": 5, "velocity": 25}, {"time": 1038, "pitch": 32, "duration": 10, "velocity": 105}, {"time": 1038, "pitch": 44, "duration": 10, "velocity": 105}, {"time": 1041, "pitch": 51, "duration": 7, "velocity": 68}, {"time": 1044, "pitch": 56, "duration": 1, "velocity": 96}, {"time": 1047, "pitch": 56, "duration": 4, "velocity": 102}, {"time": 1047, "pitch": 60, "duration": 3, "velocity": 108}, {"time": 1047, "pitch": 63, "duration": 4, "velocity": 93}, {"time": 1050, "pitch": 51, "duration": 2, "velocity": 72}, {"time": 1053, "pitch": 56, "duration": 1, "velocity": 99}, {"time": 1053, "pitch": 60, "duration": 2, "velocity": 105}, {"time": 1053, "pitch": 63, "duration": 2, "velocity": 105}, {"time": 1062, "pitch": 29, "duration": 21, "velocity": 102}, {"time": 1062, "pitch": 41, "duration": 21, "velocity": 102}, {"time": 1062, "pitch": 53, "duration": 3, "velocity": 89}, {"time": 1062, "pitch": 56, "duration": 4, "velocity": 90}, {"time": 1062, "pitch": 60, "duration": 5, "velocity": 73}, {"time": 1065, "pitch": 48, "duration": 6, "velocity": 71}, {"time": 1068, "pitch": 53, "duration": 1, "velocity": 105}, {"time": 1071, "pitch": 55, "duration": 3, "velocity": 114}, {"time": 1074, "pitch": 48, "duration": 3, "velocity": 58}, {"time": 1077, "pitch": 53, "duration": 2, "velocity": 92}, {"time": 1077, "pitch": 56, "duration": 2, "velocity": 109}, {"time": 1080, "pitch": 48, "duration": 3, "velocity": 58}, {"time": 1083, "pitch": 53, "duration": 5, "velocity": 89}, {"time": 1083, "pitch": 60, "duration": 4, "velocity": 108}, {"time": 1086, "pitch": 29, "duration": 18, "velocity": 97}, {"time": 1086, "pitch": 41, "duration": 18, "velocity": 97}, {"time": 1089, "pitch": 48, "duration": 7, "velocity": 64}, {"time": 1092, "pitch": 53, "duration": 1, "velocity": 69}, {"time": 1095, "pitch": 53, "duration": 4, "velocity": 97}, {"time": 1095, "pitch": 56, "duration": 3, "velocity": 112}, {"time": 1095, "pitch": 65, "duration": 3, "velocity": 97}, {"time": 1098, "pitch": 48, "duration": 1, "velocity": 84}, {"time": 1101, "pitch": 48, "duration": 2, "velocity": 94}, {"time": 1104, "pitch": 53, "duration": 2, "velocity": 120}, {"time": 1107, "pitch": 55, "duration": 3, "velocity": 100}, {"time": 1110, "pitch": 32, "duration": 15, "velocity": 109}, {"time": 1110, "pitch": 44, "duration": 15, "velocity": 109}, {"time": 1110, "pitch": 56, "duration": 1, "velocity": 112}, {"time": 1116, "pitch": 51, "duration": 9, "velocity": 102}, {"time": 1119, "pitch": 56, "duration": 2, "velocity": 102}, {"time": 1125, "pitch": 56, "duration": 2, "velocity": 109}, {"time": 1125, "pitch": 60, "duration": 2, "velocity": 114}, {"time": 1125, "pitch": 63, "duration": 3, "velocity": 112}, {"time": 1128, "pitch": 51, "duration": 1, "velocity": 93}, {"time": 1134, "pitch": 48, "duration": 16, "velocity": 102}, {"time": 1134, "pitch": 60, "duration": 3, "velocity": 102}, {"time": 1134, "pitch": 64, "duration": 4, "velocity": 105}, {"time": 1137, "pitch": 55, "duration": 6, "velocity": 71}, {"time": 1140, "pitch": 60, "duration": 1, "velocity": 97}, {"time": 1143, "pitch": 60, "duration": 3, "velocity": 120}, {"time": 1143, "pitch": 67, "duration": 3, "velocity": 114}, {"time": 1146, "pitch": 55, "duration": 4, "velocity": 105}, {"time": 1149, "pitch": 60, "duration": 2, "velocity": 117}, {"time": 1149, "pitch": 64, "duration": 4, "velocity": 120}, {"time": 1149, "pitch": 67, "duration": 6, "velocity": 114}, {"time": 1152, "pitch": 60, "duration": 3, "velocity": 89}, {"time": 1155, "pitch": 64, "duration": 3, "velocity": 100}, {"time": 1158, "pitch": 29, "duration": 22, "velocity": 105}, {"time": 1158, "pitch": 41, "duration": 22, "velocity": 105}, {"time": 1161, "pitch": 48, "duration": 7, "velocity": 87}, {"time": 1164, "pitch": 53, "duration": 2, "velocity": 102}, {"time": 1167, "pitch": 53, "duration": 4, "velocity": 94}, {"time": 1167, "pitch": 65, "duration": 3, "velocity": 100}, {"time": 1170, "pitch": 48, "duration": 9, "velocity": 69}, {"time": 1173, "pitch": 60, "duration": 7, "velocity": 105}, {"time": 1179, "pitch": 53, "duration": 2, "velocity": 69}, {"time": 1182, "pitch": 29, "duration": 18, "velocity": 92}, {"time": 1182, "pitch": 41, "duration": 18, "velocity": 92}, {"time": 1182, "pitch": 53, "duration": 6, "velocity": 82}, {"time": 1182, "pitch": 65, "duration": 8, "velocity": 94}, {"time": 1188, "pitch": 48, "duration": 7, "velocity": 66}, {"time": 1191, "pitch": 53, "duration": 2, "velocity": 89}, {"time": 1194, "pitch": 53, "duration": 1, "velocity": 80}, {"time": 1194, "pitch": 56, "duration": 3, "velocity": 116}, {"time": 1194, "pitch": 60, "duration": 3, "velocity": 120}, {"time": 1194, "pitch": 65, "duration": 3, "velocity": 102}, {"time": 1197, "pitch": 48, "duration": 3, "velocity": 76}, {"time": 1200, "pitch": 55, "duration": 4, "velocity": 120}, {"time": 1206, "pitch": 32, "duration": 22, "velocity": 96}, {"time": 1206, "pitch": 44, "duration": 22, "velocity": 96}, {"time": 1206, "pitch": 56, "duration": 1, "velocity": 105}, {"time": 1209, "pitch": 51, "duration": 22, "velocity": 87}, {"time": 1212, "pitch": 56, "duration": 1, "velocity": 82}, {"time": 1215, "pitch": 56, "duration": 4, "velocity": 90}, {"time": 1215, "pitch": 63, "duration": 2, "velocity": 99}, {"time": 1221, "pitch": 56, "duration": 2, "velocity": 93}, {"time": 1221, "pitch": 60, "duration": 1, "velocity": 89}, {"time": 1221, "pitch": 63, "duration": 2, "velocity": 96}, {"time": 1227, "pitch": 56, "duration": 6, "velocity": 112}, {"time": 1227, "pitch": 68, "duration": 9, "velocity": 96}, {"time": 1230, "pitch": 32, "duration": 12, "velocity": 99}, {"time": 1230, "pitch": 44, "duration": 12, "velocity": 99}, {"time": 1233, "pitch": 51, "duration": 7, "velocity": 63}, {"time": 1236, "pitch": 56, "duration": 2, "velocity": 99}, {"time": 1239, "pitch": 56, "duration": 6, "velocity": 99}, {"time": 1239, "pitch": 60, "duration": 4, "velocity": 108}, {"time": 1239, "pitch": 63, "duration": 5, "velocity": 109}, {"time": 1239, "pitch": 68, "duration": 6, "velocity": 93}, {"time": 1242, "pitch": 51, "duration": 4, "velocity": 77}, {"time": 1245, "pitch": 32, "duration": 1, "velocity": 82}, {"time": 1245, "pitch": 44, "duration": 1, "velocity": 82}, {"time": 1251, "pitch": 55, "duration": 3, "velocity": 97}, {"time": 1254, "pitch": 29, "duration": 18, "velocity": 97}, {"time": 1254, "pitch": 41, "duration": 18, "velocity": 97}, {"time": 1254, "pitch": 53, "duration": 4, "velocity": 89}, {"time": 1257, "pitch": 48, "duration": 15, "velocity": 82}, {"time": 1260, "pitch": 53, "duration": 3, "velocity": 92}, {"time": 1263, "pitch": 53, "duration": 4, "velocity": 57}, {"time": 1263, "pitch": 65, "duration": 4, "velocity": 108}, {"time": 1269, "pitch": 60, "duration": 3, "velocity": 100}, {"time": 1272, "pitch": 56, "duration": 4, "velocity": 96}, {"time": 1275, "pitch": 53, "duration": 2, "velocity": 105}, {"time": 1278, "pitch": 32, "duration": 12, "velocity": 102}, {"time": 1278, "pitch": 44, "duration": 12, "velocity": 102}, {"time": 1281, "pitch": 51, "duration": 7, "velocity": 87}, {"time": 1284, "pitch": 56, "duration": 1, "velocity": 93}, {"time": 1287, "pitch": 56, "duration": 4, "velocity": 105}, {"time": 1287, "pitch": 60, "duration": 3, "velocity": 105}, {"time": 1287, "pitch": 63, "duration": 4, "velocity": 105}, {"time": 1290, "pitch": 51, "duration": 5, "velocity": 48}, {"time": 1293, "pitch": 56, "duration": 3, "velocity": 102}, {"time": 1293, "pitch": 60, "duration": 2, "velocity": 102}, {"time": 1293, "pitch": 63, "duration": 4, "velocity": 102}, {"time": 1302, "pitch": 32, "duration": 12, "velocity": 99}, {"time": 1302, "pitch": 44, "duration": 12, "velocity": 99}, {"time": 1302, "pitch": 56, "duration": 3, "velocity": 85}, {"time": 1302, "pitch": 60, "duration": 3, "velocity": 94}, {"time": 1302, "pitch": 63, "duration": 6, "velocity": 87}, {"time": 1305, "pitch": 51, "duration": 7, "velocity": 61}, {"time": 1308, "pitch": 56, "duration": 2, "velocity": 96}, {"time": 1311, "pitch": 56, "duration": 3, "velocity": 19}, {"time": 1311, "pitch": 68, "duration": 4, "velocity": 109}, {"time": 1314, "pitch": 51, "duration": 1, "velocity": 90}, {"time": 1317, "pitch": 60, "duration": 1, "velocity": 105}, {"time": 1317, "pitch": 63, "duration": 4, "velocity": 102}, {"time": 1320, "pitch": 56, "duration": 1, "velocity": 99}, {"time": 1326, "pitch": 36, "duration": 21, "velocity": 105}, {"time": 1326, "pitch": 48, "duration": 21, "velocity": 105}, {"time": 1326, "pitch": 60, "duration": 3, "velocity": 100}, {"time": 1326, "pitch": 64, "duration": 4, "velocity": 97}, {"time": 1329, "pitch": 55, "duration": 7, "velocity": 73}, {"time": 1332, "pitch": 60, "duration": 2, "velocity": 82}, {"time": 1335, "pitch": 60, "duration": 1, "velocity": 38}, {"time": 1335, "pitch": 72, "duration": 2, "velocity": 123}, {"time": 1338, "pitch": 55, "duration": 4, "velocity": 76}, {"time": 1341, "pitch": 60, "duration": 2, "velocity": 108}, {"time": 1341, "pitch": 67, "duration": 2, "velocity": 105}, {"time": 1344, "pitch": 55, "duration": 3, "velocity": 50}, {"time": 1347, "pitch": 60, "duration": 1, "velocity": 82}, {"time": 1350, "pitch": 36, "duration": 20, "velocity": 102}, {"time": 1350, "pitch": 48, "duration": 20, "velocity": 102}, {"time": 1350, "pitch": 60, "duration": 3, "velocity": 92}, {"time": 1350, "pitch": 64, "duration": 4, "velocity": 102}, {"time": 1353, "pitch": 55, "duration": 7, "velocity": 58}, {"time": 1356, "pitch": 60, "duration": 1, "velocity": 67}, {"time": 1359, "pitch": 60, "duration": 3, "velocity": 100}, {"time": 1359, "pitch": 67, "duration": 3, "velocity": 100}, {"time": 1362, "pitch": 55, "duration": 4, "velocity": 73}, {"time": 1365, "pitch": 60, "duration": 2, "velocity": 114}, {"time": 1365, "pitch": 64, "duration": 3, "velocity": 111}, {"time": 1368, "pitch": 55, "duration": 3, "velocity": 76}, {"time": 1371, "pitch": 60, "duration": 1, "velocity": 87}, {"time": 1374, "pitch": 36, "duration": 20, "velocity": 102}, {"time": 1374, "pitch": 48, "duration": 20, "velocity": 102}, {"time": 1374, "pitch": 60, "duration": 6, "velocity": 100}, {"time": 1374, "pitch": 64, "duration": 7, "velocity": 102}, {"time": 1380, "pitch": 55, "duration": 3, "velocity": 78}, {"time": 1383, "pitch": 60, "duration": 3, "velocity": 44}, {"time": 1383, "pitch": 64, "duration": 3, "velocity": 73}, {"time": 1383, "pitch": 67, "duration": 3, "velocity": 100}, {"time": 1386, "pitch": 55, "duration": 3, "velocity": 80}, {"time": 1389, "pitch": 60, "duration": 2, "velocity": 100}, {"time": 1389, "pitch": 64, "duration": 3, "velocity": 102}, {"time": 1389, "pitch": 67, "duration": 3, "velocity": 100}, {"time": 1389, "pitch": 72, "duration": 3, "velocity": 111}, {"time": 1392, "pitch": 55, "duration": 4, "velocity": 69}, {"time": 1395, "pitch": 60, "duration": 2, "velocity": 87}, {"time": 1398, "pitch": 36, "duration": 24, "velocity": 100}, {"time": 1398, "pitch": 48, "duration": 24, "velocity": 100}, {"time": 1398, "pitch": 60, "duration": 7, "velocity": 92}, {"time": 1398, "pitch": 64, "duration": 8, "velocity": 97}, {"time": 1398, "pitch": 67, "duration": 10, "velocity": 97}, {"time": 1404, "pitch": 55, "duration": 6, "velocity": 51}, {"time": 1407, "pitch": 60, "duration": 1, "velocity": 108}, {"time": 1407, "pitch": 64, "duration": 1, "velocity": 25}, {"time": 1410, "pitch": 60, "duration": 3, "velocity": 111}, {"time": 1410, "pitch": 64, "duration": 4, "velocity": 114}, {"time": 1410, "pitch": 67, "duration": 4, "velocity": 120}, {"time": 1410, "pitch": 72, "duration": 3, "velocity": 108}, {"time": 1413, "pitch": 55, "duration": 9, "velocity": 111}, {"time": 1416, "pitch": 60, "duration": 5, "velocity": 102}, {"time": 1416, "pitch": 64, "duration": 1, "velocity": 49}, {"time": 1416, "pitch": 67, "duration": 1, "velocity": 25}, {"time": 1422, "pitch": 42, "duration": 18, "velocity": 109}, {"time": 1425, "pitch": 49, "duration": 7, "velocity": 93}, {"time": 1428, "pitch": 54, "duration": 6, "velocity": 93}, {"time": 1431, "pitch": 57, "duration": 3, "velocity": 105}, {"time": 1434, "pitch": 49, "duration": 4, "velocity": 61}, {"time": 1437, "pitch": 54, "duration": 2, "velocity": 96}, {"time": 1437, "pitch": 57, "duration": 2, "velocity": 117}, {"time": 1437, "pitch": 61, "duration": 2, "velocity": 93}, {"time": 1446, "pitch": 42, "duration": 18, "velocity": 87}, {"time": 1446, "pitch": 54, "duration": 7, "velocity": 105}, {"time": 1446, "pitch": 66, "duration": 6, "velocity": 63}, {"time": 1452, "pitch": 49, "duration": 3, "velocity": 20}, {"time": 1455, "pitch": 54, "duration": 3, "velocity": 96}, {"time": 1455, "pitch": 61, "duration": 2, "velocity": 99}, {"time": 1458, "pitch": 49, "duration": 10, "velocity": 54}, {"time": 1461, "pitch": 54, "duration": 1, "velocity": 99}, {"time": 1461, "pitch": 57, "duration": 2, "velocity": 102}, {"time": 1461, "pitch": 61, "duration": 5, "velocity": 82}, {"time": 1467, "pitch": 54, "duration": 6, "velocity": 102}, {"time": 1470, "pitch": 42, "duration": 30, "velocity": 96}, {"time": 1473, "pitch": 49, "duration": 19, "velocity": 77}, {"time": 1476, "pitch": 54, "duration": 4, "velocity": 82}, {"time": 1482, "pitch": 54, "duration": 6, "velocity": 102}, {"time": 1482, "pitch": 61, "duration": 2, "velocity": 90}, {"time": 1491, "pitch": 54, "duration": 3, "velocity": 85}, {"time": 1491, "pitch": 57, "duration": 3, "velocity": 100}, {"time": 1491, "pitch": 61, "duration": 3, "velocity": 87}, {"time": 1494, "pitch": 49, "duration": 3, "velocity": 63}, {"time": 1497, "pitch": 54, "duration": 1, "velocity": 82}, {"time": 1497, "pitch": 57, "duration": 1, "velocity": 100}, {"time": 1497, "pitch": 66, "duration": 7, "velocity": 105}, {"time": 1500, "pitch": 49, "duration": 8, "velocity": 82}, {"time": 1503, "pitch": 54, "duration": 2, "velocity": 90}, {"time": 1506, "pitch": 54, "duration": 2, "velocity": 96}, {"time": 1506, "pitch": 57, "duration": 2, "velocity": 105}, {"time": 1506, "pitch": 61, "duration": 2, "velocity": 96}, {"time": 1506, "pitch": 66, "duration": 5, "velocity": 82}, {"time": 1509, "pitch": 42, "duration": 1, "velocity": 85}, {"time": 1512, "pitch": 54, "duration": 1, "velocity": 112}, {"time": 1512, "pitch": 66, "duration": 2, "velocity": 2}, {"time": 1518, "pitch": 39, "duration": 21, "velocity": 102}, {"time": 1518, "pitch": 51, "duration": 21, "velocity": 102}, {"time": 1518, "pitch": 63, "duration": 6, "velocity": 68}, {"time": 1518, "pitch": 66, "duration": 7, "velocity": 105}, {"time": 1518, "pitch": 70, "duration": 8, "velocity": 72}, {"time": 1524, "pitch": 58, "duration": 7, "velocity": 72}, {"time": 1527, "pitch": 63, "duration": 1, "velocity": 105}, {"time": 1530, "pitch": 63, "duration": 2, "velocity": 105}, {"time": 1530, "pitch": 70, "duration": 3, "velocity": 99}, {"time": 1533, "pitch": 58, "duration": 7, "velocity": 59}, {"time": 1536, "pitch": 63, "duration": 1, "velocity": 79}, {"time": 1536, "pitch": 66, "duration": 1, "velocity": 105}, {"time": 1539, "pitch": 63, "duration": 7, "velocity": 105}, {"time": 1539, "pitch": 66, "duration": 7, "velocity": 119}, {"time": 1542, "pitch": 39, "duration": 19, "velocity": 93}, {"time": 1542, "pitch": 51, "duration": 19, "velocity": 93}, {"time": 1545, "pitch": 58, "duration": 7, "velocity": 90}, {"time": 1548, "pitch": 63, "duration": 2, "velocity": 87}, {"time": 1551, "pitch": 58, "duration": 1, "velocity": 59}, {"time": 1551, "pitch": 63, "duration": 2, "velocity": 63}, {"time": 1551, "pitch": 66, "duration": 2, "velocity": 112}, {"time": 1557, "pitch": 63, "duration": 2, "velocity": 102}, {"time": 1557, "pitch": 70, "duration": 1, "velocity": 102}, {"time": 1560, "pitch": 58, "duration": 2, "velocity": 40}, {"time": 1563, "pitch": 63, "duration": 1, "velocity": 93}, {"time": 1566, "pitch": 39, "duration": 22, "velocity": 96}, {"time": 1566, "pitch": 51, "duration": 22, "velocity": 96}, {"time": 1566, "pitch": 63, "duration": 9, "velocity": 96}, {"time": 1566, "pitch": 66, "duration": 8, "velocity": 102}, {"time": 1572, "pitch": 58, "duration": 8, "velocity": 39}, {"time": 1578, "pitch": 63, "duration": 2, "velocity": 109}, {"time": 1578, "pitch": 70, "duration": 2, "velocity": 99}, {"time": 1581, "pitch": 58, "duration": 7, "velocity": 59}, {"time": 1584, "pitch": 63, "duration": 1, "velocity": 68}, {"time": 1587, "pitch": 63, "duration": 3, "velocity": 96}, {"time": 1587, "pitch": 66, "duration": 2, "velocity": 112}, {"time": 1590, "pitch": 39, "duration": 4, "velocity": 99}, {"time": 1590, "pitch": 51, "duration": 4, "velocity": 99}, {"time": 1593, "pitch": 63, "duration": 2, "velocity": 102}, {"time": 1593, "pitch": 70, "duration": 2, "velocity": 96}, {"time": 1596, "pitch": 58, "duration": 7, "velocity": 93}, {"time": 1599, "pitch": 63, "duration": 1, "velocity": 93}, {"time": 1602, "pitch": 63, "duration": 2, "velocity": 102}, {"time": 1602, "pitch": 66, "duration": 3, "velocity": 109}, {"time": 1605, "pitch": 39, "duration": 1, "velocity": 70}, {"time": 1605, "pitch": 51, "duration": 1, "velocity": 70}, {"time": 1608, "pitch": 63, "duration": 1, "velocity": 116}, {"time": 1614, "pitch": 34, "duration": 13, "velocity": 102}, {"time": 1614, "pitch": 46, "duration": 13, "velocity": 102}, {"time": 1614, "pitch": 53, "duration": 4, "velocity": 73}, {"time": 1614, "pitch": 58, "duration": 7, "velocity": 79}, {"time": 1614, "pitch": 61, "duration": 9, "velocity": 99}, {"time": 1620, "pitch": 53, "duration": 4, "velocity": 66}, {"time": 1626, "pitch": 53, "duration": 2, "velocity": 108}, {"time": 1626, "pitch": 61, "duration": 3, "velocity": 102}, {"time": 1632, "pitch": 53, "duration": 1, "velocity": 84}, {"time": 1635, "pitch": 53, "duration": 4, "velocity": 78}, {"time": 1635, "pitch": 58, "duration": 4, "velocity": 57}, {"time": 1635, "pitch": 61, "duration": 4, "velocity": 59}, {"time": 1635, "pitch": 65, "duration": 5, "velocity": 97}, {"time": 1638, "pitch": 34, "duration": 16, "velocity": 109}, {"time": 1638, "pitch": 46, "duration": 16, "velocity": 109}, {"time": 1641, "pitch": 61, "duration": 4, "velocity": 112}, {"time": 1644, "pitch": 58, "duration": 3, "velocity": 36}, {"time": 1647, "pitch": 53, "duration": 2, "velocity": 92}, {"time": 1650, "pitch": 53, "duration": 5, "velocity": 108}, {"time": 1650, "pitch": 58, "duration": 7, "velocity": 112}, {"time": 1650, "pitch": 61, "duration": 8, "velocity": 99}, {"time": 1656, "pitch": 53, "duration": 4, "velocity": 66}, {"time": 1662, "pitch": 34, "duration": 16, "velocity": 93}, {"time": 1662, "pitch": 46, "duration": 16, "velocity": 93}, {"time": 1662, "pitch": 53, "duration": 3, "velocity": 89}, {"time": 1662, "pitch": 58, "duration": 7, "velocity": 85}, {"time": 1662, "pitch": 61, "duration": 8, "velocity": 74}, {"time": 1668, "pitch": 53, "duration": 3, "velocity": 55}, {"time": 1674, "pitch": 53, "duration": 4, "velocity": 114}, {"time": 1674, "pitch": 58, "duration": 6, "velocity": 116}, {"time": 1674, "pitch": 61, "duration": 6, "velocity": 99}, {"time": 1674, "pitch": 65, "duration": 6, "velocity": 92}, {"time": 1680, "pitch": 34, "duration": 4, "velocity": 70}, {"time": 1680, "pitch": 46, "duration": 4, "velocity": 70}, {"time": 1683, "pitch": 53, "duration": 3, "velocity": 100}, {"time": 1683, "pitch": 58, "duration": 4, "velocity": 109}, {"time": 1683, "pitch": 61, "duration": 13, "velocity": 99}, {"time": 1689, "pitch": 53, "duration": 5, "velocity": 92}, {"time": 1692, "pitch": 34, "duration": 8, "velocity": 40}, {"time": 1692, "pitch": 46, "duration": 8, "velocity": 40}, {"time": 1698, "pitch": 53, "duration": 3, "velocity": 105}, {"time": 1698, "pitch": 58, "duration": 3, "velocity": 112}, {"time": 1698, "pitch": 61, "duration": 3, "velocity": 99}, {"time": 1698, "pitch": 65, "duration": 4, "velocity": 105}, {"time": 1704, "pitch": 34, "duration": 1, "velocity": 116}, {"time": 1704, "pitch": 46, "duration": 1, "velocity": 116}, {"time": 1710, "pitch": 35, "duration": 22, "velocity": 105}, {"time": 1710, "pitch": 47, "duration": 22, "velocity": 105}, {"time": 1710, "pitch": 59, "duration": 5, "velocity": 97}, {"time": 1710, "pitch": 62, "duration": 7, "velocity": 97}, {"time": 1710, "pitch": 66, "duration": 8, "velocity": 93}, {"time": 1722, "pitch": 59, "duration": 3, "velocity": 102}, {"time": 1722, "pitch": 62, "duration": 3, "velocity": 108}, {"time": 1722, "pitch": 66, "duration": 3, "velocity": 109}, {"time": 1725, "pitch": 54, "duration": 8, "velocity": 72}, {"time": 1728, "pitch": 59, "duration": 2, "velocity": 105}, {"time": 1731, "pitch": 59, "duration": 5, "velocity": 100}, {"time": 1731, "pitch": 62, "duration": 5, "velocity": 94}, {"time": 1731, "pitch": 66, "duration": 5, "velocity": 82}, {"time": 1731, "pitch": 71, "duration": 6, "velocity": 100}, {"time": 1734, "pitch": 35, "duration": 18, "velocity": 87}, {"time": 1734, "pitch": 47, "duration": 18, "velocity": 87}, {"time": 1737, "pitch": 54, "duration": 8, "velocity": 90}, {"time": 1740, "pitch": 59, "duration": 1, "velocity": 92}, {"time": 1743, "pitch": 59, "duration": 3, "velocity": 102}, {"time": 1743, "pitch": 62, "duration": 3, "velocity": 105}, {"time": 1746, "pitch": 54, "duration": 4, "velocity": 57}, {"time": 1749, "pitch": 59, "duration": 2, "velocity": 97}, {"time": 1749, "pitch": 62, "duration": 2, "velocity": 100}, {"time": 1749, "pitch": 66, "duration": 2, "velocity": 93}, {"time": 1758, "pitch": 35, "duration": 22, "velocity": 102}, {"time": 1758, "pitch": 47, "duration": 22, "velocity": 102}, {"time": 1758, "pitch": 59, "duration": 8, "velocity": 92}, {"time": 1758, "pitch": 62, "duration": 8, "velocity": 100}, {"time": 1764, "pitch": 54, "duration": 7, "velocity": 65}, {"time": 1770, "pitch": 59, "duration": 7, "velocity": 105}, {"time": 1770, "pitch": 66, "duration": 6, "velocity": 109}, {"time": 1776, "pitch": 54, "duration": 4, "velocity": 68}, {"time": 1779, "pitch": 59, "duration": 3, "velocity": 94}, {"time": 1779, "pitch": 62, "duration": 3, "velocity": 97}, {"time": 1779, "pitch": 66, "duration": 4, "velocity": 105}, {"time": 1782, "pitch": 35, "duration": 18, "velocity": 52}, {"time": 1782, "pitch": 47, "duration": 18, "velocity": 52}, {"time": 1785, "pitch": 59, "duration": 3, "velocity": 97}, {"time": 1785, "pitch": 62, "duration": 3, "velocity": 100}, {"time": 1785, "pitch": 66, "duration": 3, "velocity": 102}, {"time": 1788, "pitch": 54, "duration": 7, "velocity": 87}, {"time": 1791, "pitch": 59, "duration": 2, "velocity": 100}, {"time": 1794, "pitch": 59, "duration": 3, "velocity": 102}, {"time": 1794, "pitch": 62, "duration": 3, "velocity": 102}, {"time": 1794, "pitch": 66, "duration": 3, "velocity": 96}, {"time": 1794, "pitch": 71, "duration": 4, "velocity": 102}, {"time": 1797, "pitch": 54, "duration": 3, "velocity": 85}, {"time": 1800, "pitch": 59, "duration": 2, "velocity": 111}, {"time": 1806, "pitch": 35, "duration": 21, "velocity": 102}, {"time": 1806, "pitch": 47, "duration": 21, "velocity": 102}, {"time": 1806, "pitch": 59, "duration": 3, "velocity": 100}, {"time": 1806, "pitch": 63, "duration": 7, "velocity": 82}, {"time": 1806, "pitch": 66, "duration": 9, "velocity": 74}, {"time": 1812, "pitch": 59, "duration": 4, "velocity": 78}, {"time": 1818, "pitch": 59, "duration": 2, "velocity": 105}, {"time": 1818, "pitch": 63, "duration": 2, "velocity": 109}, {"time": 1818, "pitch": 66, "duration": 2, "velocity": 102}, {"time": 1824, "pitch": 59, "duration": 3, "velocity": 87}, {"time": 1824, "pitch": 63, "duration": 3, "velocity": 77}, {"time": 1824, "pitch": 66, "duration": 4, "velocity": 54}, {"time": 1830, "pitch": 35, "duration": 24, "velocity": 102}, {"time": 1830, "pitch": 47, "duration": 24, "velocity": 102}, {"time": 1830, "pitch": 59, "duration": 7, "velocity": 102}, {"time": 1830, "pitch": 63, "duration": 9, "velocity": 96}, {"time": 1830, "pitch": 66, "duration": 10, "velocity": 87}, {"time": 1830, "pitch": 71, "duration": 10, "velocity": 97}, {"time": 1836, "pitch": 54, "duration": 7, "velocity": 99}, {"time": 1839, "pitch": 59, "duration": 1, "velocity": 111}, {"time": 1842, "pitch": 59, "duration": 4, "velocity": 117}, {"time": 1842, "pitch": 63, "duration": 11, "velocity": 116}, {"time": 1842, "pitch": 66, "duration": 11, "velocity": 109}, {"time": 1845, "pitch": 54, "duration": 9, "velocity": 79}, {"time": 1848, "pitch": 59, "duration": 5, "velocity": 120}, {"time": 1854, "pitch": 40, "duration": 22, "velocity": 97}, {"time": 1854, "pitch": 52, "duration": 22, "velocity": 97}, {"time": 1854, "pitch": 59, "duration": 2, "velocity": 92}, {"time": 1854, "pitch": 67, "duration": 4, "velocity": 89}, {"time": 1857, "pitch": 59, "duration": 4, "velocity": 84}, {"time": 1860, "pitch": 64, "duration": 2, "velocity": 76}, {"time": 1863, "pitch": 67, "duration": 4, "velocity": 108}, {"time": 1875, "pitch": 59, "duration": 4, "velocity": 84}, {"time": 1878, "pitch": 40, "duration": 16, "velocity": 111}, {"time": 1878, "pitch": 52, "duration": 16, "velocity": 111}, {"time": 1878, "pitch": 67, "duration": 4, "velocity": 100}, {"time": 1881, "pitch": 59, "duration": 4, "velocity": 84}, {"time": 1884, "pitch": 64, "duration": 1, "velocity": 92}, {"time": 1887, "pitch": 67, "duration": 7, "velocity": 108}, {"time": 1893, "pitch": 64, "duration": 3, "velocity": 114}, {"time": 1896, "pitch": 59, "duration": 2, "velocity": 100}, {"time": 1902, "pitch": 31, "duration": 22, "velocity": 102}, {"time": 1902, "pitch": 43, "duration": 22, "velocity": 102}, {"time": 1902, "pitch": 55, "duration": 3, "velocity": 82}, {"time": 1902, "pitch": 62, "duration": 4, "velocity": 87}, {"time": 1905, "pitch": 50, "duration": 7, "velocity": 64}, {"time": 1908, "pitch": 55, "duration": 2, "velocity": 87}, {"time": 1911, "pitch": 67, "duration": 6, "velocity": 117}, {"time": 1914, "pitch": 50, "duration": 11, "velocity": 57}, {"time": 1917, "pitch": 62, "duration": 4, "velocity": 84}, {"time": 1920, "pitch": 55, "duration": 4, "velocity": 60}, {"time": 1923, "pitch": 62, "duration": 11, "velocity": 84}, {"time": 1926, "pitch": 31, "duration": 16, "velocity": 94}, {"time": 1926, "pitch": 43, "duration": 16, "velocity": 94}, {"time": 1926, "pitch": 55, "duration": 3, "velocity": 9}, {"time": 1929, "pitch": 50, "duration": 7, "velocity": 52}, {"time": 1932, "pitch": 55, "duration": 1, "velocity": 57}, {"time": 1935, "pitch": 55, "duration": 4, "velocity": 97}, {"time": 1935, "pitch": 62, "duration": 4, "velocity": 92}, {"time": 1935, "pitch": 67, "duration": 7, "velocity": 100}, {"time": 1938, "pitch": 50, "duration": 5, "velocity": 69}, {"time": 1941, "pitch": 55, "duration": 3, "velocity": 92}, {"time": 1944, "pitch": 62, "duration": 1, "velocity": 80}, {"time": 1950, "pitch": 40, "duration": 22, "velocity": 97}, {"time": 1950, "pitch": 52, "duration": 22, "velocity": 97}, {"time": 1950, "pitch": 59, "duration": 2, "velocity": 89}, {"time": 1950, "pitch": 64, "duration": 4, "velocity": 89}, {"time": 1953, "pitch": 59, "duration": 4, "velocity": 87}, {"time": 1956, "pitch": 64, "duration": 4, "velocity": 80}, {"time": 1959, "pitch": 67, "duration": 6, "velocity": 102}, {"time": 1965, "pitch": 64, "duration": 4, "velocity": 97}, {"time": 1968, "pitch": 59, "duration": 4, "velocity": 78}, {"time": 1971, "pitch": 67, "duration": 9, "velocity": 100}, {"time": 1974, "pitch": 40, "duration": 19, "velocity": 102}, {"time": 1974, "pitch": 52, "duration": 19, "velocity": 102}, {"time": 1977, "pitch": 59, "duration": 4, "velocity": 78}, {"time": 1980, "pitch": 64, "duration": 4, "velocity": 76}, {"time": 1983, "pitch": 59, "duration": 1, "velocity": 67}, {"time": 1986, "pitch": 59, "duration": 2, "velocity": 102}, {"time": 1986, "pitch": 67, "duration": 6, "velocity": 102}, {"time": 1989, "pitch": 59, "duration": 3, "velocity": 80}, {"time": 1992, "pitch": 64, "duration": 1, "velocity": 100}, {"time": 1998, "pitch": 31, "duration": 22, "velocity": 102}, {"time": 1998, "pitch": 43, "duration": 22, "velocity": 102}, {"time": 1998, "pitch": 55, "duration": 3, "velocity": 89}, {"time": 1998, "pitch": 59, "duration": 5, "velocity": 87}, {"time": 2001, "pitch": 50, "duration": 7, "velocity": 66}, {"time": 2004, "pitch": 55, "duration": 2, "velocity": 84}, {"time": 2007, "pitch": 62, "duration": 4, "velocity": 102}, {"time": 2010, "pitch": 50, "duration": 11, "velocity": 76}, {"time": 2013, "pitch": 62, "duration": 1, "velocity": 14}, {"time": 2013, "pitch": 67, "duration": 27, "velocity": 100}, {"time": 2016, "pitch": 55, "duration": 1, "velocity": 52}, {"time": 2019, "pitch": 62, "duration": 10, "velocity": 97}, {"time": 2022, "pitch": 31, "duration": 21, "velocity": 94}, {"time": 2022, "pitch": 43, "duration": 21, "velocity": 94}, {"time": 2025, "pitch": 50, "duration": 7, "velocity": 64}, {"time": 2028, "pitch": 55, "duration": 2, "velocity": 47}, {"time": 2031, "pitch": 62, "duration": 10, "velocity": 84}, {"time": 2034, "pitch": 50, "duration": 10, "velocity": 82}, {"time": 2037, "pitch": 55, "duration": 3, "velocity": 84}, {"time": 2040, "pitch": 59, "duration": 3, "velocity": 80}, {"time": 2043, "pitch": 55, "duration": 1, "velocity": 57}, {"time": 2046, "pitch": 33, "duration": 20, "velocity": 108}, {"time": 2046, "pitch": 45, "duration": 20, "velocity": 108}, {"time": 2046, "pitch": 57, "duration": 6, "velocity": 89}, {"time": 2046, "pitch": 60, "duration": 7, "velocity": 94}, {"time": 2052, "pitch": 52, "duration": 4, "velocity": 66}, {"time": 2055, "pitch": 57, "duration": 6, "velocity": 105}, {"time": 2058, "pitch": 52, "duration": 10, "velocity": 58}, {"time": 2061, "pitch": 60, "duration": 4, "velocity": 111}, {"time": 2070, "pitch": 35, "duration": 17, "velocity": 102}, {"time": 2070, "pitch": 47, "duration": 17, "velocity": 102}, {"time": 2070, "pitch": 59, "duration": 7, "velocity": 92}, {"time": 2070, "pitch": 62, "duration": 9, "velocity": 97}, {"time": 2076, "pitch": 54, "duration": 4, "velocity": 19}, {"time": 2079, "pitch": 66, "duration": 7, "velocity": 105}, {"time": 2082, "pitch": 54, "duration": 3, "velocity": 63}, {"time": 2085, "pitch": 62, "duration": 3, "velocity": 114}, {"time": 2088, "pitch": 59, "duration": 4, "velocity": 84}, {"time": 2091, "pitch": 62, "duration": 1, "velocity": 84}, {"time": 2094, "pitch": 40, "duration": 21, "velocity": 97}, {"time": 2094, "pitch": 52, "duration": 21, "velocity": 97}, {"time": 2094, "pitch": 64, "duration": 9, "velocity": 92}, {"time": 2100, "pitch": 59, "duration": 3, "velocity": 58}, {"time": 2103, "pitch": 67, "duration": 7, "velocity": 105}, {"time": 2109, "pitch": 64, "duration": 7, "velocity": 105}, {"time": 2112, "pitch": 59, "duration": 3, "velocity": 82}, {"time": 2118, "pitch": 35, "duration": 19, "velocity": 102}, {"time": 2118, "pitch": 47, "duration": 19, "velocity": 102}, {"time": 2118, "pitch": 59, "duration": 4, "velocity": 94}, {"time": 2118, "pitch": 62, "duration": 10, "velocity": 87}, {"time": 2124, "pitch": 54, "duration": 7, "velocity": 65}, {"time": 2127, "pitch": 59, "duration": 4, "velocity": 100}, {"time": 2130, "pitch": 66, "duration": 8, "velocity": 109}, {"time": 2133, "pitch": 54, "duration": 3, "velocity": 87}, {"time": 2136, "pitch": 59, "duration": 4, "velocity": 94}, {"time": 2139, "pitch": 62, "duration": 1, "velocity": 80}, {"time": 2142, "pitch": 33, "duration": 19, "velocity": 102}, {"time": 2142, "pitch": 45, "duration": 19, "velocity": 102}, {"time": 2142, "pitch": 57, "duration": 3, "velocity": 82}, {"time": 2142, "pitch": 60, "duration": 5, "velocity": 84}, {"time": 2145, "pitch": 52, "duration": 7, "velocity": 52}, {"time": 2148, "pitch": 57, "duration": 2, "velocity": 71}, {"time": 2151, "pitch": 69, "duration": 9, "velocity": 102}, {"time": 2154, "pitch": 52, "duration": 7, "velocity": 76}, {"time": 2157, "pitch": 64, "duration": 4, "velocity": 105}, {"time": 2160, "pitch": 60, "duration": 2, "velocity": 89}, {"time": 2163, "pitch": 57, "duration": 1, "velocity": 76}, {"time": 2166, "pitch": 35, "duration": 18, "velocity": 94}, {"time": 2166, "pitch": 47, "duration": 18, "velocity": 94}, {"time": 2166, "pitch": 59, "duration": 7, "velocity": 87}, {"time": 2166, "pitch": 62, "duration": 7, "velocity": 87}, {"time": 2175, "pitch": 66, "duration": 7, "velocity": 102}, {"time": 2178, "pitch": 54, "duration": 3, "velocity": 79}, {"time": 2181, "pitch": 62, "duration": 3, "velocity": 105}, {"time": 2184, "pitch": 59, "duration": 3, "velocity": 92}, {"time": 2190, "pitch": 40, "duration": 22, "velocity": 100}, {"time": 2190, "pitch": 52, "duration": 22, "velocity": 100}, {"time": 2190, "pitch": 59, "duration": 3, "velocity": 92}, {"time": 2190, "pitch": 64, "duration": 8, "velocity": 100}, {"time": 2196, "pitch": 59, "duration": 2, "velocity": 58}, {"time": 2199, "pitch": 67, "duration": 6, "velocity": 114}, {"time": 2205, "pitch": 64, "duration": 3, "velocity": 92}, {"time": 2208, "pitch": 59, "duration": 5, "velocity": 100}, {"time": 2214, "pitch": 40, "duration": 10, "velocity": 97}, {"time": 2214, "pitch": 52, "duration": 10, "velocity": 97}, {"time": 2214, "pitch": 59, "duration": 2, "velocity": 78}, {"time": 2214, "pitch": 64, "duration": 6, "velocity": 84}, {"time": 2220, "pitch": 59, "duration": 2, "velocity": 92}, {"time": 2223, "pitch": 59, "duration": 4, "velocity": 97}, {"time": 2223, "pitch": 67, "duration": 4, "velocity": 108}, {"time": 2226, "pitch": 40, "duration": 10, "velocity": 89}, {"time": 2226, "pitch": 52, "duration": 10, "velocity": 89}, {"time": 2229, "pitch": 67, "duration": 4, "velocity": 108}, {"time": 2235, "pitch": 59, "duration": 3, "velocity": 71}, {"time": 2238, "pitch": 40, "duration": 22, "velocity": 97}, {"time": 2238, "pitch": 52, "duration": 22, "velocity": 97}, {"time": 2238, "pitch": 59, "duration": 2, "velocity": 92}, {"time": 2238, "pitch": 67, "duration": 4, "velocity": 89}, {"time": 2241, "pitch": 59, "duration": 4, "velocity": 84}, {"time": 2244, "pitch": 64, "duration": 2, "velocity": 76}, {"time": 2247, "pitch": 67, "duration": 4, "velocity": 108}, {"time": 2259, "pitch": 59, "duration": 4, "velocity": 84}, {"time": 2262, "pitch": 40, "duration": 16, "velocity": 111}, {"time": 2262, "pitch": 52, "duration": 16, "velocity": 111}, {"time": 2262, "pitch": 67, "duration": 4, "velocity": 100}, {"time": 2265, "pitch": 59, "duration": 4, "velocity": 84}, {"time": 2268, "pitch": 64, "duration": 1, "velocity": 92}, {"time": 2271, "pitch": 67, "duration": 7, "velocity": 108}, {"time": 2277, "pitch": 64, "duration": 3, "velocity": 114}, {"time": 2280, "pitch": 59, "duration": 2, "velocity": 100}, {"time": 2286, "pitch": 31, "duration": 22, "velocity": 102}, {"time": 2286, "pitch": 43, "duration": 22, "velocity": 102}, {"time": 2286, "pitch": 55, "duration": 3, "velocity": 82}, {"time": 2286, "pitch": 62, "duration": 4, "velocity": 87}, {"time": 2289, "pitch": 50, "duration": 7, "velocity": 64}, {"time": 2292, "pitch": 55, "duration": 2, "velocity": 87}, {"time": 2295, "pitch": 67, "duration": 6, "velocity": 117}, {"time": 2298, "pitch": 50, "duration": 11, "velocity": 57}, {"time": 2301, "pitch": 62, "duration": 4, "velocity": 84}, {"time": 2304, "pitch": 55, "duration": 4, "velocity": 60}, {"time": 2307, "pitch": 62, "duration": 11, "velocity": 84}, {"time": 2310, "pitch": 31, "duration": 16, "velocity": 94}, {"time": 2310, "pitch": 43, "duration": 16, "velocity": 94}, {"time": 2310, "pitch": 55, "duration": 3, "velocity": 9}, {"time": 2313, "pitch": 50, "duration": 7, "velocity": 52}, {"time": 2316, "pitch": 55, "duration": 1, "velocity": 57}, {"time": 2319, "pitch": 55, "duration": 4, "velocity": 97}, {"time": 2319, "pitch": 62, "duration": 4, "velocity": 92}, {"time": 2319, "pitch": 67, "duration": 7, "velocity": 100}, {"time": 2322, "pitch": 50, "duration": 5, "velocity": 69}, {"time": 2325, "pitch": 55, "duration": 3, "velocity": 92}, {"time": 2328, "pitch": 62, "duration": 1, "velocity": 80}, {"time": 2334, "pitch": 40, "duration": 22, "velocity": 97}, {"time": 2334, "pitch": 52, "duration": 22, "velocity": 97}, {"time": 2334, "pitch": 59, "duration": 2, "velocity": 89}, {"time": 2334, "pitch": 64, "duration": 4, "velocity": 89}, {"time": 2337, "pitch": 59, "duration": 4, "velocity": 87}, {"time": 2340, "pitch": 64, "duration": 4, "velocity": 80}, {"time": 2343, "pitch": 67, "duration": 6, "velocity": 102}, {"time": 2349, "pitch": 64, "duration": 4, "velocity": 97}, {"time": 2352, "pitch": 59, "duration": 4, "velocity": 78}, {"time": 2355, "pitch": 67, "duration": 9, "velocity": 100}, {"time": 2358, "pitch": 40, "duration": 19, "velocity": 102}, {"time": 2358, "pitch": 52, "duration": 19, "velocity": 102}, {"time": 2361, "pitch": 59, "duration": 4, "velocity": 78}, {"time": 2364, "pitch": 64, "duration": 4, "velocity": 76}, {"time": 2367, "pitch": 59, "duration": 1, "velocity": 67}, {"time": 2370, "pitch": 59, "duration": 2, "velocity": 102}, {"time": 2370, "pitch": 67, "duration": 6, "velocity": 102}, {"time": 2373, "pitch": 59, "duration": 3, "velocity": 80}, {"time": 2376, "pitch": 64, "duration": 1, "velocity": 100}, {"time": 2382, "pitch": 31, "duration": 22, "velocity": 102}, {"time": 2382, "pitch": 43, "duration": 22, "velocity": 102}, {"time": 2382, "pitch": 55, "duration": 3, "velocity": 89}, {"time": 2382, "pitch": 59, "duration": 5, "velocity": 87}, {"time": 2385, "pitch": 50, "duration": 7, "velocity": 66}, {"time": 2388, "pitch": 55, "duration": 2, "velocity": 84}, {"time": 2391, "pitch": 62, "duration": 4, "velocity": 102}, {"time": 2394, "pitch": 50, "duration": 11, "velocity": 76}, {"time": 2397, "pitch": 62, "duration": 1, "velocity": 14}, {"time": 2397, "pitch": 67, "duration": 27, "velocity": 100}, {"time": 2400, "pitch": 55, "duration": 1, "velocity": 52}, {"time": 2403, "pitch": 62, "duration": 10, "velocity": 97}, {"time": 2406, "pitch": 31, "duration": 21, "velocity": 94}, {"time": 2406, "pitch": 43, "duration": 21, "velocity": 94}, {"time": 2409, "pitch": 50, "duration": 7, "velocity": 64}, {"time": 2412, "pitch": 55, "duration": 2, "velocity": 47}, {"time": 2415, "pitch": 62, "duration": 10, "velocity": 84}, {"time": 2418, "pitch": 50, "duration": 10, "velocity": 82}, {"time": 2421, "pitch": 55, "duration": 3, "velocity": 84}, {"time": 2424, "pitch": 59, "duration": 3, "velocity": 80}, {"time": 2427, "pitch": 55, "duration": 1, "velocity": 57}, {"time": 2430, "pitch": 33, "duration": 20, "velocity": 108}, {"time": 2430, "pitch": 45, "duration": 20, "velocity": 108}, {"time": 2430, "pitch": 57, "duration": 6, "velocity": 89}, {"time": 2430, "pitch": 60, "duration": 7, "velocity": 94}, {"time": 2436, "pitch": 52, "duration": 4, "velocity": 66}, {"time": 2439, "pitch": 57, "duration": 6, "velocity": 105}, {"time": 2442, "pitch": 52, "duration": 10, "velocity": 58}, {"time": 2445, "pitch": 60, "duration": 4, "velocity": 111}, {"time": 2454, "pitch": 35, "duration": 17, "velocity": 102}, {"time": 2454, "pitch": 47, "duration": 17, "velocity": 102}, {"time": 2454, "pitch": 59, "duration": 7, "velocity": 92}, {"time": 2454, "pitch": 62, "duration": 9, "velocity": 97}, {"time": 2460, "pitch": 54, "duration": 4, "velocity": 19}, {"time": 2463, "pitch": 66, "duration": 7, "velocity": 105}, {"time": 2466, "pitch": 54, "duration": 3, "velocity": 63}, {"time": 2469, "pitch": 62, "duration": 3, "velocity": 114}, {"time": 2472, "pitch": 59, "duration": 4, "velocity": 84}, {"time": 2475, "pitch": 62, "duration": 1, "velocity": 84}, {"time": 2478, "pitch": 40, "duration": 21, "velocity": 97}, {"time": 2478, "pitch": 52, "duration": 21, "velocity": 97}, {"time": 2478, "pitch": 64, "duration": 9, "velocity": 92}, {"time": 2484, "pitch": 59, "duration": 3, "velocity": 58}, {"time": 2487, "pitch": 67, "duration": 7, "velocity": 105}, {"time": 2493, "pitch": 64, "duration": 7, "velocity": 105}, {"time": 2496, "pitch": 59, "duration": 3, "velocity": 82}, {"time": 2502, "pitch": 35, "duration": 19, "velocity": 102}, {"time": 2502, "pitch": 47, "duration": 19, "velocity": 102}, {"time": 2502, "pitch": 59, "duration": 4, "velocity": 94}, {"time": 2502, "pitch": 62, "duration": 10, "velocity": 87}, {"time": 2508, "pitch": 54, "duration": 7, "velocity": 65}, {"time": 2511, "pitch": 59, "duration": 4, "velocity": 100}, {"time": 2514, "pitch": 66, "duration": 8, "velocity": 109}, {"time": 2517, "pitch": 54, "duration": 3, "velocity": 87}, {"time": 2520, "pitch": 59, "duration": 4, "velocity": 94}, {"time": 2523, "pitch": 62, "duration": 1, "velocity": 80}, {"time": 2526, "pitch": 33, "duration": 19, "velocity": 102}, {"time": 2526, "pitch": 45, "duration": 19, "velocity": 102}, {"time": 2526, "pitch": 57, "duration": 3, "velocity": 82}, {"time": 2526, "pitch": 60, "duration": 5, "velocity": 84}, {"time": 2529, "pitch": 52, "duration": 7, "velocity": 52}, {"time": 2532, "pitch": 57, "duration": 2, "velocity": 71}, {"time": 2535, "pitch": 69, "duration": 9, "velocity": 102}, {"time": 2538, "pitch": 52, "duration": 7, "velocity": 76}, {"time": 2541, "pitch": 64, "duration": 4, "velocity": 105}, {"time": 2544, "pitch": 60, "duration": 2, "velocity": 89}, {"time": 2547, "pitch": 57, "duration": 1, "velocity": 76}, {"time": 2550, "pitch": 35, "duration": 18, "velocity": 94}, {"time": 2550, "pitch": 47, "duration": 18, "velocity": 94}, {"time": 2550, "pitch": 59, "duration": 7, "velocity": 87}, {"time": 2550, "pitch": 62, "duration": 7, "velocity": 87}, {"time": 2559, "pitch": 66, "duration": 7, "velocity": 102}, {"time": 2562, "pitch": 54, "duration": 3, "velocity": 79}, {"time": 2565, "pitch": 62, "duration": 3, "velocity": 105}, {"time": 2568, "pitch": 59, "duration": 3, "velocity": 92}, {"time": 2574, "pitch": 40, "duration": 22, "velocity": 100}, {"time": 2574, "pitch": 52, "duration": 22, "velocity": 100}, {"time": 2574, "pitch": 59, "duration": 3, "velocity": 92}, {"time": 2574, "pitch": 64, "duration": 8, "velocity": 100}, {"time": 2580, "pitch": 59, "duration": 2, "velocity": 58}, {"time": 2583, "pitch": 67, "duration": 6, "velocity": 114}, {"time": 2589, "pitch": 64, "duration": 3, "velocity": 92}, {"time": 2592, "pitch": 59, "duration": 5, "velocity": 100}, {"time": 2598, "pitch": 40, "duration": 10, "velocity": 97}, {"time": 2598, "pitch": 52, "duration": 10, "velocity": 97}, {"time": 2598, "pitch": 59, "duration": 2, "velocity": 78}, {"time": 2598, "pitch": 64, "duration": 6, "velocity": 84}, {"time": 2604, "pitch": 59, "duration": 2, "velocity": 92}, {"time": 2607, "pitch": 59, "duration": 4, "velocity": 97}, {"time": 2607, "pitch": 67, "duration": 4, "velocity": 108}, {"time": 2610, "pitch": 40, "duration": 10, "velocity": 89}, {"time": 2610, "pitch": 52, "duration": 10, "velocity": 89}, {"time": 2613, "pitch": 67, "duration": 4, "velocity": 108}, {"time": 2619, "pitch": 59, "duration": 3, "velocity": 71}, {"time": 2622, "pitch": 29, "duration": 23, "velocity": 105}, {"time": 2622, "pitch": 41, "duration": 23, "velocity": 105}, {"time": 2622, "pitch": 53, "duration": 7, "velocity": 92}, {"time": 2622, "pitch": 60, "duration": 8, "velocity": 92}, {"time": 2628, "pitch": 48, "duration": 7, "velocity": 80}, {"time": 2631, "pitch": 53, "duration": 2, "velocity": 29}, {"time": 2631, "pitch": 56, "duration": 2, "velocity": 102}, {"time": 2634, "pitch": 53, "duration": 1, "velocity": 41}, {"time": 2634, "pitch": 65, "duration": 7, "velocity": 111}, {"time": 2637, "pitch": 48, "duration": 7, "velocity": 62}, {"time": 2640, "pitch": 53, "duration": 4, "velocity": 87}, {"time": 2643, "pitch": 56, "duration": 2, "velocity": 93}, {"time": 2646, "pitch": 29, "duration": 18, "velocity": 97}, {"time": 2646, "pitch": 41, "duration": 18, "velocity": 97}, {"time": 2646, "pitch": 53, "duration": 6, "velocity": 71}, {"time": 2646, "pitch": 56, "duration": 7, "velocity": 79}, {"time": 2646, "pitch": 60, "duration": 7, "velocity": 102}, {"time": 2652, "pitch": 48, "duration": 4, "velocity": 45}, {"time": 2655, "pitch": 53, "duration": 3, "velocity": 87}, {"time": 2655, "pitch": 56, "duration": 4, "velocity": 96}, {"time": 2655, "pitch": 60, "duration": 4, "velocity": 97}, {"time": 2655, "pitch": 65, "duration": 5, "velocity": 97}, {"time": 2658, "pitch": 48, "duration": 5, "velocity": 64}, {"time": 2661, "pitch": 53, "duration": 3, "velocity": 97}, {"time": 2664, "pitch": 55, "duration": 5, "velocity": 120}, {"time": 2670, "pitch": 32, "duration": 14, "velocity": 96}, {"time": 2670, "pitch": 44, "duration": 14, "velocity": 96}, {"time": 2670, "pitch": 56, "duration": 1, "velocity": 112}, {"time": 2673, "pitch": 51, "duration": 7, "velocity": 63}, {"time": 2676, "pitch": 56, "duration": 2, "velocity": 63}, {"time": 2679, "pitch": 56, "duration": 2, "velocity": 82}, {"time": 2679, "pitch": 60, "duration": 2, "velocity": 102}, {"time": 2688, "pitch": 56, "duration": 2, "velocity": 87}, {"time": 2688, "pitch": 60, "duration": 10, "velocity": 92}, {"time": 2688, "pitch": 63, "duration": 12, "velocity": 96}, {"time": 2691, "pitch": 56, "duration": 5, "velocity": 25}, {"time": 2694, "pitch": 32, "duration": 10, "velocity": 105}, {"time": 2694, "pitch": 44, "duration": 10, "velocity": 105}, {"time": 2697, "pitch": 51, "duration": 7, "velocity": 68}, {"time": 2700, "pitch": 56, "duration": 1, "velocity": 96}, {"time": 2703, "pitch": 56, "duration": 4, "velocity": 102}, {"time": 2703, "pitch": 60, "duration": 3, "velocity": 108}, {"time": 2703, "pitch": 63, "duration": 4, "velocity": 93}, {"time": 2706, "pitch": 51, "duration": 2, "velocity": 72}, {"time": 2709, "pitch": 56, "duration": 1, "velocity": 99}, {"time": 2709, "pitch": 60, "duration": 2, "velocity": 105}, {"time": 2709, "pitch": 63, "duration": 2, "velocity": 105}, {"time": 2718, "pitch": 29, "duration": 21, "velocity": 102}, {"time": 2718, "pitch": 41, "duration": 21, "velocity": 102}, {"time": 2718, "pitch": 53, "duration": 3, "velocity": 89}, {"time": 2718, "pitch": 56, "duration": 4, "velocity": 90}, {"time": 2718, "pitch": 60, "duration": 5, "velocity": 73}, {"time": 2721, "pitch": 48, "duration": 6, "velocity": 71}, {"time": 2724, "pitch": 53, "duration": 1, "velocity": 105}, {"time": 2727, "pitch": 55, "duration": 3, "velocity": 114}, {"time": 2730, "pitch": 48, "duration": 3, "velocity": 58}, {"time": 2733, "pitch": 53, "duration": 2, "velocity": 92}, {"time": 2733, "pitch": 56, "duration": 2, "velocity": 109}, {"time": 2736, "pitch": 48, "duration": 3, "velocity": 58}, {"time": 2739, "pitch": 53, "duration": 5, "velocity": 89}, {"time": 2739, "pitch": 60, "duration": 4, "velocity": 108}, {"time": 2742, "pitch": 29, "duration": 18, "velocity": 97}, {"time": 2742, "pitch": 41, "duration": 18, "velocity": 97}, {"time": 2745, "pitch": 48, "duration": 7, "velocity": 64}, {"time": 2748, "pitch": 53, "duration": 1, "velocity": 69}, {"time": 2751, "pitch": 53, "duration": 4, "velocity": 97}, {"time": 2751, "pitch": 56, "duration": 3, "velocity": 112}, {"time": 2751, "pitch": 65, "duration": 3, "velocity": 97}, {"time": 2754, "pitch": 48, "duration": 1, "velocity": 84}, {"time": 2757, "pitch": 48, "duration": 2, "velocity": 94}, {"time": 2760, "pitch": 53, "duration": 2, "velocity": 120}, {"time": 2763, "pitch": 55, "duration": 3, "velocity": 100}, {"time": 2766, "pitch": 32, "duration": 15, "velocity": 109}, {"time": 2766, "pitch": 44, "duration": 15, "velocity": 109}, {"time": 2766, "pitch": 56, "duration": 1, "velocity": 112}, {"time": 2772, "pitch": 51, "duration": 9, "velocity": 102}, {"time": 2775, "pitch": 56, "duration": 2, "velocity": 102}, {"time": 2781, "pitch": 56, "duration": 2, "velocity": 109}, {"time": 2781, "pitch": 60, "duration": 2, "velocity": 114}, {"time": 2781, "pitch": 63, "duration": 3, "velocity": 112}, {"time": 2784, "pitch": 51, "duration": 1, "velocity": 93}, {"time": 2790, "pitch": 48, "duration": 16, "velocity": 102}, {"time": 2790, "pitch": 60, "duration": 3, "velocity": 102}, {"time": 2790, "pitch": 64, "duration": 4, "velocity": 105}, {"time": 2793, "pitch": 55, "duration": 6, "velocity": 71}, {"time": 2796, "pitch": 60, "duration": 1, "velocity": 97}, {"time": 2799, "pitch": 60, "duration": 3, "velocity": 120}, {"time": 2799, "pitch": 67, "duration": 3, "velocity": 114}, {"time": 2802, "pitch": 55, "duration": 4, "velocity": 105}, {"time": 2805, "pitch": 60, "duration": 2, "velocity": 117}, {"time": 2805, "pitch": 64, "duration": 4, "velocity": 120}, {"time": 2805, "pitch": 67, "duration": 6, "velocity": 114}, {"time": 2808, "pitch": 60, "duration": 3, "velocity": 89}, {"time": 2811, "pitch": 64, "duration": 3, "velocity": 100}, {"time": 2814, "pitch": 29, "duration": 22, "velocity": 105}, {"time": 2814, "pitch": 41, "duration": 22, "velocity": 105}, {"time": 2817, "pitch": 48, "duration": 7, "velocity": 87}, {"time": 2820, "pitch": 53, "duration": 2, "velocity": 102}, {"time": 2823, "pitch": 53, "duration": 4, "velocity": 94}, {"time": 2823, "pitch": 65, "duration": 3, "velocity": 100}, {"time": 2826, "pitch": 48, "duration": 9, "velocity": 69}, {"time": 2829, "pitch": 60, "duration": 7, "velocity": 105}, {"time": 2835, "pitch": 53, "duration": 2, "velocity": 69}, {"time": 2838, "pitch": 29, "duration": 18, "velocity": 92}, {"time": 2838, "pitch": 41, "duration": 18, "velocity": 92}, {"time": 2838, "pitch": 53, "duration": 6, "velocity": 82}, {"time": 2838, "pitch": 65, "duration": 8, "velocity": 94}, {"time": 2844, "pitch": 48, "duration": 7, "velocity": 66}, {"time": 2847, "pitch": 53, "duration": 2, "velocity": 89}, {"time": 2850, "pitch": 53, "duration": 1, "velocity": 80}, {"time": 2850, "pitch": 56, "duration": 3, "velocity": 116}, {"time": 2850, "pitch": 60, "duration": 3, "velocity": 120}, {"time": 2850, "pitch": 65, "duration": 3, "velocity": 102}, {"time": 2853, "pitch": 48, "duration": 3, "velocity": 76}, {"time": 2856, "pitch": 55, "duration": 4, "velocity": 120}, {"time": 2862, "pitch": 32, "duration": 22, "velocity": 96}, {"time": 2862, "pitch": 44, "duration": 22, "velocity": 96}, {"time": 2862, "pitch": 56, "duration": 1, "velocity": 105}, {"time": 2865, "pitch": 51, "duration": 22, "velocity": 87}, {"time": 2868, "pitch": 56, "duration": 1, "velocity": 82}, {"time": 2871, "pitch": 56, "duration": 4, "velocity": 90}, {"time": 2871, "pitch": 63, "duration": 2, "velocity": 99}, {"time": 2877, "pitch": 56, "duration": 2, "velocity": 93}, {"time": 2877, "pitch": 60, "duration": 1, "velocity": 89}, {"time": 2877, "pitch": 63, "duration": 2, "velocity": 96}, {"time": 2883, "pitch": 56, "duration": 6, "velocity": 112}, {"time": 2883, "pitch": 68, "duration": 9, "velocity": 96}, {"time": 2886, "pitch": 32, "duration": 12, "velocity": 99}, {"time": 2886, "pitch": 44, "duration": 12, "velocity": 99}, {"time": 2889, "pitch": 51, "duration": 7, "velocity": 63}, {"time": 2892, "pitch": 56, "duration": 2, "velocity": 99}, {"time": 2895, "pitch": 56, "duration": 6, "velocity": 99}, {"time": 2895, "pitch": 60, "duration": 4, "velocity": 108}, {"time": 2895, "pitch": 63, "duration": 5, "velocity": 109}, {"time": 2895, "pitch": 68, "duration": 6, "velocity": 93}, {"time": 2898, "pitch": 51, "duration": 4, "velocity": 77}, {"time": 2901, "pitch": 32, "duration": 1, "velocity": 82}, {"time": 2901, "pitch": 44, "duration": 1, "velocity": 82}, {"time": 2907, "pitch": 55, "duration": 3, "velocity": 97}, {"time": 2910, "pitch": 29, "duration": 18, "velocity": 97}, {"time": 2910, "pitch": 41, "duration": 18, "velocity": 97}, {"time": 2910, "pitch": 53, "duration": 4, "velocity": 89}, {"time": 2913, "pitch": 48, "duration": 15, "velocity": 82}, {"time": 2916, "pitch": 53, "duration": 3, "velocity": 92}, {"time": 2919, "pitch": 53, "duration": 4, "velocity": 57}, {"time": 2919, "pitch": 65, "duration": 4, "velocity": 108}, {"time": 2925, "pitch": 60, "duration": 3, "velocity": 100}, {"time": 2928, "pitch": 56, "duration": 4, "velocity": 96}, {"time": 2931, "pitch": 53, "duration": 2, "velocity": 105}, {"time": 2934, "pitch": 32, "duration": 12, "velocity": 102}, {"time": 2934, "pitch": 44, "duration": 12, "velocity": 102}, {"time": 2937, "pitch": 51, "duration": 7, "velocity": 87}, {"time": 2940, "pitch": 56, "duration": 1, "velocity": 93}, {"time": 2943, "pitch": 56, "duration": 4, "velocity": 105}, {"time": 2943, "pitch": 60, "duration": 3, "velocity": 105}, {"time": 2943, "pitch": 63, "duration": 4, "velocity": 105}, {"time": 2946, "pitch": 51, "duration": 5, "velocity": 48}, {"time": 2949, "pitch": 56, "duration": 3, "velocity": 102}, {"time": 2949, "pitch": 60, "duration": 2, "velocity": 102}, {"time": 2949, "pitch": 63, "duration": 4, "velocity": 102}, {"time": 2958, "pitch": 32, "duration": 12, "velocity": 99}, {"time": 2958, "pitch": 44, "duration": 12, "velocity": 99}, {"time": 2958, "pitch": 56, "duration": 3, "velocity": 85}, {"time": 2958, "pitch": 60, "duration": 3, "velocity": 94}, {"time": 2958, "pitch": 63, "duration": 6, "velocity": 87}, {"time": 2961, "pitch": 51, "duration": 7, "velocity": 61}, {"time": 2964, "pitch": 56, "duration": 2, "velocity": 96}, {"time": 2967, "pitch": 56, "duration": 3, "velocity": 19}, {"time": 2967, "pitch": 68, "duration": 4, "velocity": 109}, {"time": 2970, "pitch": 51, "duration": 1, "velocity": 90}, {"time": 2973, "pitch": 60, "duration": 1, "velocity": 105}, {"time": 2973, "pitch": 63, "duration": 4, "velocity": 102}, {"time": 2976, "pitch": 56, "duration": 1, "velocity": 99}, {"time": 2982, "pitch": 36, "duration": 21, "velocity": 105}, {"time": 2982, "pitch": 48, "duration": 21, "velocity": 105}, {"time": 2982, "pitch": 60, "duration": 3, "velocity": 100}, {"time": 2982, "pitch": 64, "duration": 4, "velocity": 97}, {"time": 2985, "pitch": 55, "duration": 7, "velocity": 73}, {"time": 2988, "pitch": 60, "duration": 2, "velocity": 82}, {"time": 2991, "pitch": 60, "duration": 1, "velocity": 38}, {"time": 2991, "pitch": 72, "duration": 2, "velocity": 123}, {"time": 2994, "pitch": 55, "duration": 4, "velocity": 76}, {"time": 2997, "pitch": 60, "duration": 2, "velocity": 108}, {"time": 2997, "pitch": 67, "duration": 2, "velocity": 105}, {"time": 3000, "pitch": 55, "duration": 3, "velocity": 50}, {"time": 3003, "pitch": 60, "duration": 1, "velocity": 82}, {"time": 3006, "pitch": 36, "duration": 20, "velocity": 102}, {"time": 3006, "pitch": 48, "duration": 20, "velocity": 102}, {"time": 3006, "pitch": 60, "duration": 3, "velocity": 92}, {"time": 3006, "pitch": 64, "duration": 4, "velocity": 102}, {"time": 3009, "pitch": 55, "duration": 7, "velocity": 58}, {"time": 3012, "pitch": 60, "duration": 1, "velocity": 67}, {"time": 3015, "pitch": 60, "duration": 3, "velocity": 100}, {"time": 3015, "pitch": 67, "duration": 3, "velocity": 100}, {"time": 3018, "pitch": 55, "duration": 4, "velocity": 73}, {"time": 3021, "pitch": 60, "duration": 2, "velocity": 114}, {"time": 3021, "pitch": 64, "duration": 3, "velocity": 111}, {"time": 3024, "pitch": 55, "duration": 3, "velocity": 76}, {"time": 3027, "pitch": 60, "duration": 1, "velocity": 87}, {"time": 3030, "pitch": 36, "duration": 20, "velocity": 102}, {"time": 3030, "pitch": 48, "duration": 20, "velocity": 102}, {"time": 3030, "pitch": 60, "duration": 6, "velocity": 100}, {"time": 3030, "pitch": 64, "duration": 7, "velocity": 102}, {"time": 3036, "pitch": 55, "duration": 3, "velocity": 78}, {"time": 3039, "pitch": 60, "duration": 3, "velocity": 44}, {"time": 3039, "pitch": 64, "duration": 3, "velocity": 73}, {"time": 3039, "pitch": 67, "duration": 3, "velocity": 100}, {"time": 3042, "pitch": 55, "duration": 3, "velocity": 80}, {"time": 3045, "pitch": 60, "duration": 2, "velocity": 100}, {"time": 3045, "pitch": 64, "duration": 3, "velocity": 102}, {"time": 3045, "pitch": 67, "duration": 3, "velocity": 100}, {"time": 3045, "pitch": 72, "duration": 3, "velocity": 111}, {"time": 3048, "pitch": 55, "duration": 4, "velocity": 69}, {"time": 3051, "pitch": 60, "duration": 2, "velocity": 87}, {"time": 3054, "pitch": 36, "duration": 24, "velocity": 100}, {"time": 3054, "pitch": 48, "duration": 24, "velocity": 100}, {"time": 3054, "pitch": 60, "duration": 7, "velocity": 92}, {"time": 3054, "pitch": 64, "duration": 8, "velocity": 97}, {"time": 3054, "pitch": 67, "duration": 10, "velocity": 97}, {"time": 3060, "pitch": 55, "duration": 6, "velocity": 51}, {"time": 3063, "pitch": 60, "duration": 1, "velocity": 108}, {"time": 3063, "pitch": 64, "duration": 1, "velocity": 25}, {"time": 3066, "pitch": 60, "duration": 3, "velocity": 111}, {"time": 3066, "pitch": 64, "duration": 4, "velocity": 114}, {"time": 3066, "pitch": 67, "duration": 4, "velocity": 120}, {"time": 3066, "pitch": 72, "duration": 3, "velocity": 108}, {"time": 3069, "pitch": 55, "duration": 9, "velocity": 111}, {"time": 3072, "pitch": 60, "duration": 5, "velocity": 102}, {"time": 3072, "pitch": 64, "duration": 1, "velocity": 49}, {"time": 3072, "pitch": 67, "duration": 1, "velocity": 25}, {"time": 3078, "pitch": 41, "duration": 45, "velocity": 93}, {"time": 3078, "pitch": 53, "duration": 46, "velocity": 105}, {"time": 3078, "pitch": 65, "duration": 3, "velocity": 100}, {"time": 3081, "pitch": 60, "duration": 6, "velocity": 84}, {"time": 3084, "pitch": 65, "duration": 1, "velocity": 108}, {"time": 3087, "pitch": 65, "duration": 4, "velocity": 92}, {"time": 3090, "pitch": 60, "duration": 3, "velocity": 71}, {"time": 3093, "pitch": 65, "duration": 3, "velocity": 78}, {"time": 3096, "pitch": 60, "duration": 7, "velocity": 82}, {"time": 3099, "pitch": 65, "duration": 1, "velocity": 94}, {"time": 3102, "pitch": 67, "duration": 5, "velocity": 116}, {"time": 3105, "pitch": 60, "duration": 7, "velocity": 78}, {"time": 3108, "pitch": 65, "duration": 1, "velocity": 82}, {"time": 3111, "pitch": 67, "duration": 3, "velocity": 109}, {"time": 3114, "pitch": 60, "duration": 1, "velocity": 67}, {"time": 3117, "pitch": 60, "duration": 8, "velocity": 73}, {"time": 3120, "pitch": 65, "duration": 3, "velocity": 102}, {"time": 3123, "pitch": 67, "duration": 1, "velocity": 109}, {"time": 3126, "pitch": 41, "duration": 45, "velocity": 93}, {"time": 3126, "pitch": 53, "duration": 22, "velocity": 100}, {"time": 3126, "pitch": 68, "duration": 4, "velocity": 102}, {"time": 3129, "pitch": 60, "duration": 7, "velocity": 45}, {"time": 3132, "pitch": 65, "duration": 1, "velocity": 76}, {"time": 3135, "pitch": 65, "duration": 5, "velocity": 94}, {"time": 3135, "pitch": 68, "duration": 7, "velocity": 100}, {"time": 3141, "pitch": 60, "duration": 8, "velocity": 84}, {"time": 3144, "pitch": 65, "duration": 3, "velocity": 105}, {"time": 3147, "pitch": 68, "duration": 2, "velocity": 97}, {"time": 3150, "pitch": 53, "duration": 24, "velocity": 94}, {"time": 3150, "pitch": 67, "duration": 6, "velocity": 112}, {"time": 3153, "pitch": 60, "duration": 6, "velocity": 66}, {"time": 3156, "pitch": 63, "duration": 1, "velocity": 82}, {"time": 3159, "pitch": 67, "duration": 9, "velocity": 116}, {"time": 3165, "pitch": 60, "duration": 8, "velocity": 80}, {"time": 3168, "pitch": 63, "duration": 2, "velocity": 71}, {"time": 3171, "pitch": 67, "duration": 2, "velocity": 93}, {"time": 3174, "pitch": 41, "duration": 45, "velocity": 93}, {"time": 3174, "pitch": 53, "duration": 1, "velocity": 105}, {"time": 3174, "pitch": 65, "duration": 3, "velocity": 100}, {"time": 3177, "pitch": 60, "duration": 6, "velocity": 84}, {"time": 3180, "pitch": 65, "duration": 1, "velocity": 108}, {"time": 3183, "pitch": 65, "duration": 4, "velocity": 92}, {"time": 3186, "pitch": 60, "duration": 3, "velocity": 71}, {"time": 3189, "pitch": 65, "duration": 3, "velocity": 78}, {"time": 3192, "pitch": 60, "duration": 7, "velocity": 82}, {"time": 3195, "pitch": 65, "duration": 1, "velocity": 94}, {"time": 3198, "pitch": 67, "duration": 5, "velocity": 116}, {"time": 3201, "pitch": 60, "duration": 7, "velocity": 78}, {"time": 3204, "pitch": 65, "duration": 1, "velocity": 82}, {"time": 3207, "pitch": 67, "duration": 3, "velocity": 109}, {"time": 3210, "pitch": 60, "duration": 1, "velocity": 67}, {"time": 3213, "pitch": 60, "duration": 8, "velocity": 73}, {"time": 3216, "pitch": 65, "duration": 3, "velocity": 102}, {"time": 3219, "pitch": 67, "duration": 1, "velocity": 109}, {"time": 3222, "pitch": 41, "duration": 45, "velocity": 93}, {"time": 3222, "pitch": 53, "duration": 22, "velocity": 100}, {"time": 3222, "pitch": 68, "duration": 4, "velocity": 102}, {"time": 3225, "pitch": 60, "duration": 7, "velocity": 45}, {"time": 3228, "pitch": 65, "duration": 1, "velocity": 76}, {"time": 3231, "pitch": 65, "duration": 5, "velocity": 94}, {"time": 3231, "pitch": 68, "duration": 7, "velocity": 100}, {"time": 3237, "pitch": 60, "duration": 8, "velocity": 84}, {"time": 3240, "pitch": 65, "duration": 3, "velocity": 105}, {"time": 3243, "pitch": 68, "duration": 2, "velocity": 97}, {"time": 3246, "pitch": 53, "duration": 24, "velocity": 94}, {"time": 3246, "pitch": 67, "duration": 6, "velocity": 112}, {"time": 3249, "pitch": 60, "duration": 6, "velocity": 66}, {"time": 3252, "pitch": 63, "duration": 1, "velocity": 82}, {"time": 3255, "pitch": 67, "duration": 9, "velocity": 116}, {"time": 3261, "pitch": 60, "duration": 8, "velocity": 80}, {"time": 3264, "pitch": 63, "duration": 2, "velocity": 71}, {"time": 3267, "pitch": 67, "duration": 2, "velocity": 93}, {"time": 3270, "pitch": 41, "duration": 45, "velocity": 93}, {"time": 3270, "pitch": 53, "duration": 1, "velocity": 105}, {"time": 3270, "pitch": 65, "duration": 3, "velocity": 100}, {"time": 3273, "pitch": 60, "duration": 6, "velocity": 84}, {"time": 3276, "pitch": 65, "duration": 1, "velocity": 108}, {"time": 3279, "pitch": 65, "duration": 4, "velocity": 92}, {"time": 3282, "pitch": 60, "duration": 3, "velocity": 71}, {"time": 3285, "pitch": 65, "duration": 3, "velocity": 78}, {"time": 3288, "pitch": 60, "duration": 7, "velocity": 82}, {"time": 3291, "pitch": 65, "duration": 1, "velocity": 94}, {"time": 3294, "pitch": 67, "duration": 5, "velocity": 116}, {"time": 3297, "pitch": 60, "duration": 7, "velocity": 78}, {"time": 3300, "pitch": 65, "duration": 1, "velocity": 82}, {"time": 3303, "pitch": 67, "duration": 3, "velocity": 109}, {"time": 3306, "pitch": 60, "duration": 1, "velocity": 67}, {"time": 3309, "pitch": 60, "duration": 8, "velocity": 73}, {"time": 3312, "pitch": 65, "duration": 3, "velocity": 102}, {"time": 3315, "pitch": 67, "duration": 1, "velocity": 109}, {"time": 3318, "pitch": 41, "duration": 45, "velocity": 93}, {"time": 3318, "pitch": 53, "duration": 22, "velocity": 100}, {"time": 3318, "pitch": 68, "duration": 4, "velocity": 102}, {"time": 3321, "pitch": 60, "duration": 7, "velocity": 45}, {"time": 3324, "pitch": 65, "duration": 1, "velocity": 76}, {"time": 3327, "pitch": 65, "duration": 5, "velocity": 94}, {"time": 3327, "pitch": 68, "duration": 7, "velocity": 100}, {"time": 3333, "pitch": 60, "duration": 8, "velocity": 84}, {"time": 3336, "pitch": 65, "duration": 3, "velocity": 105}, {"time": 3339, "pitch": 68, "duration": 2, "velocity": 97}, {"time": 3342, "pitch": 53, "duration": 24, "velocity": 94}, {"time": 3342, "pitch": 67, "duration": 6, "velocity": 112}, {"time": 3345, "pitch": 60, "duration": 6, "velocity": 66}, {"time": 3348, "pitch": 63, "duration": 1, "velocity": 82}, {"time": 3351, "pitch": 67, "duration": 9, "velocity": 116}, {"time": 3357, "pitch": 60, "duration": 8, "velocity": 80}, {"time": 3360, "pitch": 63, "duration": 2, "velocity": 71}, {"time": 3363, "pitch": 67, "duration": 2, "velocity": 93}, {"time": 3366, "pitch": 41, "duration": 45, "velocity": 93}, {"time": 3366, "pitch": 53, "duration": 1, "velocity": 105}, {"time": 3366, "pitch": 65, "duration": 3, "velocity": 100}, {"time": 3369, "pitch": 60, "duration": 6, "velocity": 84}, {"time": 3372, "pitch": 65, "duration": 1, "velocity": 108}, {"time": 3375, "pitch": 65, "duration": 4, "velocity": 92}, {"time": 3378, "pitch": 60, "duration": 3, "velocity": 71}, {"time": 3381, "pitch": 65, "duration": 3, "velocity": 78}, {"time": 3384, "pitch": 60, "duration": 7, "velocity": 82}, {"time": 3387, "pitch": 65, "duration": 1, "velocity": 94}, {"time": 3390, "pitch": 67, "duration": 5, "velocity": 116}, {"time": 3393, "pitch": 60, "duration": 7, "velocity": 78}, {"time": 3396, "pitch": 65, "duration": 1, "velocity": 82}, {"time": 3399, "pitch": 67, "duration": 3, "velocity": 109}, {"time": 3402, "pitch": 60, "duration": 1, "velocity": 67}, {"time": 3405, "pitch": 60, "duration": 8, "velocity": 73}, {"time": 3408, "pitch": 65, "duration": 3, "velocity": 102}, {"time": 3411, "pitch": 67, "duration": 1, "velocity": 109}, {"time": 3414, "pitch": 41, "duration": 45, "velocity": 93}, {"time": 3414, "pitch": 53, "duration": 22, "velocity": 100}, {"time": 3414, "pitch": 68, "duration": 4, "velocity": 102}, {"time": 3417, "pitch": 60, "duration": 7, "velocity": 45}, {"time": 3420, "pitch": 65, "duration": 1, "velocity": 76}, {"time": 3423, "pitch": 65, "duration": 5, "velocity": 94}, {"time": 3423, "pitch": 68, "duration": 7, "velocity": 100}, {"time": 3429, "pitch": 60, "duration": 8, "velocity": 84}, {"time": 3432, "pitch": 65, "duration": 3, "velocity": 105}, {"time": 3435, "pitch": 68, "duration": 2, "velocity": 97}, {"time": 3438, "pitch": 53, "duration": 24, "velocity": 94}, {"time": 3438, "pitch": 67, "duration": 6, "velocity": 112}, {"time": 3441, "pitch": 60, "duration": 6, "velocity": 66}, {"time": 3444, "pitch": 63, "duration": 1, "velocity": 82}, {"time": 3447, "pitch": 67, "duration": 9, "velocity": 116}, {"time": 3453, "pitch": 60, "duration": 8, "velocity": 80}, {"time": 3456, "pitch": 63, "duration": 2, "velocity": 71}, {"time": 3459, "pitch": 67, "duration": 2, "velocity": 93}, {"time": 3462, "pitch": 41, "duration": 42, "velocity": 100}, {"time": 3465, "pitch": 48, "duration": 39, "velocity": 66}, {"time": 3467, "pitch": 53, "duration": 45, "velocity": 52}, {"time": 3468, "pitch": 56, "duration": 44, "velocity": 44}, {"time": 3470, "pitch": 60, "duration": 42, "velocity": 64}, {"time": 3471, "pitch": 65, "duration": 42, "velocity": 40}], "annotations": [{"time": 8, "annotation": {"number": 64, "value": 127}, "group": "control_change"}, {"time": 29, "annotation": {"number": 64, "value": 0}, "group": "control_change"}, {"time": 32, "annotation": {"number": 64, "value": 127}, "group": "control_change"}, {"time": 53, "annotation": {"number": 64, "value": 0}, "group": "control_change"}, {"time": 55, "annotation": {"number": 64, "value": 127}, "group": "control_change"}, {"time": 76, "annotation": {"number": 64, "value": 0}, "group": "control_change"}, {"time": 78, "annotation": {"number": 64, "value": 127}, "group": "control_change"}, {"time": 100, "annotation": {"number": 64, "value": 0}, "group": "control_change"}, {"time": 104, "annotation": {"number": 64, "value": 127}, "group": "control_change"}, {"time": 125, "annotation": {"number": 64, "value": 0}, "group": "control_change"}, {"time": 128, "annotation": {"number": 64, "value": 127}, "group": "control_change"}, {"time": 149, "annotation": {"number": 64, "value": 0}, "group": "control_change"}, {"time": 151, "annotation": {"number": 64, "value": 127}, "group": "control_change"}, {"time": 172, "annotation": {"number": 64, "value": 0}, "group": "control_change"}, {"time": 174, "annotation": {"number": 64, "value": 127}, "group": "control_change"}, {"time": 196, "annotation": {"number": 64, "value": 0}, "group": "control_change"}, {"time": 199, "annotation": {"number": 64, "value": 127}, "group": "control_change"}, {"time": 221, "annotation": {"number": 64, "value": 0}, "group": "control_change"}, {"time": 222, "annotation": {"number": 64, "value": 127}, "group": "control_change"}, {"time": 246, "annotation": {"number": 64, "value": 0}, "group": "control_change"}, {"time": 250, "annotation": {"number": 64, "value": 127}, "group": "control_change"}, {"time": 269, "annotation": {"number": 64, "value": 0}, "group": "control_change"}, {"time": 274, "annotation": {"number": 64, "value": 127}, "group": "control_change"}, {"time": 294, "annotation": {"number": 64, "value": 0}, "group": "control_change"}, {"time": 298, "annotation": {"number": 64, "value": 127}, "group": "control_change"}, {"time": 317, "annotation": {"number": 64, "value": 0}, "group": "control_change"}, {"time": 321, "annotation": {"number": 64, "value": 127}, "group": "control_change"}, {"time": 342, "annotation": {"number": 64, "value": 0}, "group": "control_change"}, {"time": 347, "annotation": {"number": 64, "value": 127}, "group": "control_change"}, {"time": 365, "annotation": {"number": 64, "value": 0}, "group": "control_change"}, {"time": 370, "annotation": {"number": 64, "value": 127}, "group": "control_change"}, {"time": 390, "annotation": {"number": 64, "value": 0}, "group": "control_change"}, {"time": 394, "annotation": {"number": 64, "value": 127}, "group": "control_change"}, {"time": 414, "annotation": {"number": 64, "value": 0}, "group": "control_change"}, {"time": 418, "annotation": {"number": 64, "value": 127}, "group": "control_change"}, {"time": 438, "annotation": {"number": 64, "value": 0}, "group": "control_change"}, {"time": 443, "annotation": {"number": 64, "value": 127}, "group": "control_change"}, {"time": 461, "annotation": {"number": 64, "value": 0}, "group": "control_change"}, {"time": 466, "annotation": {"number": 64, "value": 127}, "group": "control_change"}, {"time": 486, "annotation": {"number": 64, "value": 0}, "group": "control_change"}, {"time": 490, "annotation": {"number": 64, "value": 127}, "group": "control_change"}, {"time": 509, "annotation": {"number": 64, "value": 0}, "group": "control_change"}, {"time": 513, "annotation": {"number": 64, "value": 127}, "group": "control_change"}, {"time": 532, "annotation": {"number": 64, "value": 0}, "group": "control_change"}, {"time": 538, "annotation": {"number": 64, "value": 127}, "group": "control_change"}, {"time": 558, "annotation": {"number": 64, "value": 0}, "group": "control_change"}, {"time": 560, "annotation": {"number": 64, "value": 127}, "group": "control_change"}, {"time": 580, "annotation": {"number": 64, "value": 0}, "group": "control_change"}, {"time": 583, "annotation": {"number": 64, "value": 127}, "group": "control_change"}, {"time": 605, "annotation": {"number": 64, "value": 0}, "group": "control_change"}, {"time": 606, "annotation": {"number": 64, "value": 127}, "group": "control_change"}, {"time": 630, "annotation": {"number": 64, "value": 0}, "group": "control_change"}, {"time": 634, "annotation": {"number": 64, "value": 127}, "group": "control_change"}, {"time": 653, "annotation": {"number": 64, "value": 0}, "group": "control_change"}, {"time": 658, "annotation": {"number": 64, "value": 127}, "group": "control_change"}, {"time": 678, "annotation": {"number": 64, "value": 0}, "group": "control_change"}, {"time": 682, "annotation": {"number": 64, "value": 127}, "group": "control_change"}, {"time": 701, "annotation": {"number": 64, "value": 0}, "group": "control_change"}, {"time": 705, "annotation": {"number": 64, "value": 127}, "group": "control_change"}, {"time": 726, "annotation": {"number": 64, "value": 0}, "group": "control_change"}, {"time": 731, "annotation": {"number": 64, "value": 127}, "group": "control_change"}, {"time": 749, "annotation": {"number": 64, "value": 0}, "group": "control_change"}, {"time": 754, "annotation": {"number": 64, "value": 127}, "group": "control_change"}, {"time": 774, "annotation": {"number": 64, "value": 0}, "group": "control_change"}, {"time": 778, "annotation": {"number": 64, "value": 127}, "group": "control_change"}, {"time": 798, "annotation": {"number": 64, "value": 0}, "group": "control_change"}, {"time": 802, "annotation": {"number": 64, "value": 127}, "group": "control_change"}, {"time": 822, "annotation": {"number": 64, "value": 0}, "group": "control_change"}, {"time": 827, "annotation": {"number": 64, "value": 127}, "group": "control_change"}, {"time": 845, "annotation": {"number": 64, "value": 0}, "group": "control_change"}, {"time": 850, "annotation": {"number": 64, "value": 127}, "group": "control_change"}, {"time": 870, "annotation": {"number": 64, "value": 0}, "group": "control_change"}, {"time": 874, "annotation": {"number": 64, "value": 127}, "group": "control_change"}, {"time": 893, "annotation": {"number": 64, "value": 0}, "group": "control_change"}, {"time": 897, "annotation": {"number": 64, "value": 127}, "group": "control_change"}, {"time": 916, "annotation": {"number": 64, "value": 0}, "group": "control_change"}, {"time": 922, "annotation": {"number": 64, "value": 127}, "group": "control_change"}, {"time": 942, "annotation": {"number": 64, "value": 0}, "group": "control_change"}, {"time": 944, "annotation": {"number": 64, "value": 127}, "group": "control_change"}, {"time": 964, "annotation": {"number": 64, "value": 0}, "group": "control_change"}, {"time": 967, "annotation": {"number": 64, "value": 127}, "group": "control_change"}, {"time": 990, "annotation": {"number": 64, "value": 0}, "group": "control_change"}, {"time": 994, "annotation": {"number": 64, "value": 127}, "group": "control_change"}, {"time": 1012, "annotation": {"number": 64, "value": 0}, "group": "control_change"}, {"time": 1015, "annotation": {"number": 64, "value": 127}, "group": "control_change"}, {"time": 1039, "annotation": {"number": 64, "value": 0}, "group": "control_change"}, {"time": 1043, "annotation": {"number": 64, "value": 127}, "group": "control_change"}, {"time": 1061, "annotation": {"number": 64, "value": 0}, "group": "control_change"}, {"time": 1066, "annotation": {"number": 64, "value": 127}, "group": "control_change"}, {"time": 1085, "annotation": {"number": 64, "value": 0}, "group": "control_change"}, {"time": 1087, "annotation": {"number": 64, "value": 127}, "group": "control_change"}, {"time": 1108, "annotation": {"number": 64, "value": 0}, "group": "control_change"}, {"time": 1111, "annotation": {"number": 64, "value": 127}, "group": "control_change"}, {"time": 1134, "annotation": {"number": 64, "value": 0}, "group": "control_change"}, {"time": 1138, "annotation": {"number": 64, "value": 127}, "group": "control_change"}, {"time": 1156, "annotation": {"number": 64, "value": 0}, "group": "control_change"}, {"time": 1160, "annotation": {"number": 64, "value": 127}, "group": "control_change"}, {"time": 1181, "annotation": {"number": 64, "value": 0}, "group": "control_change"}, {"time": 1187, "annotation": {"number": 64, "value": 127}, "group": "control_change"}, {"time": 1205, "annotation": {"number": 64, "value": 0}, "group": "control_change"}, {"time": 1208, "annotation": {"number": 64, "value": 127}, "group": "control_change"}, {"time": 1229, "annotation": {"number": 64, "value": 0}, "group": "control_change"}, {"time": 1233, "annotation": {"number": 64, "value": 127}, "group": "control_change"}, {"time": 1254, "annotation": {"number": 64, "value": 0}, "group": "control_change"}, {"time": 1258, "annotation": {"number": 64, "value": 127}, "group": "control_change"}, {"time": 1277, "annotation": {"number": 64, "value": 0}, "group": "control_change"}, {"time": 1280, "annotation": {"number": 64, "value": 127}, "group": "control_change"}, {"time": 1302, "annotation": {"number": 64, "value": 0}, "group": "control_change"}, {"time": 1307, "annotation": {"number": 64, "value": 127}, "group": "control_change"}, {"time": 1326, "annotation": {"number": 64, "value": 0}, "group": "control_change"}, {"time": 1330, "annotation": {"number": 64, "value": 127}, "group": "control_change"}, {"time": 1350, "annotation": {"number": 64, "value": 0}, "group": "control_change"}, {"time": 1352, "annotation": {"number": 64, "value": 127}, "group": "control_change"}, {"time": 1373, "annotation": {"number": 64, "value": 0}, "group": "control_change"}, {"time": 1375, "annotation": {"number": 64, "value": 127}, "group": "control_change"}, {"time": 1400, "annotation": {"number": 64, "value": 0}, "group": "control_change"}, {"time": 1403, "annotation": {"number": 64, "value": 127}, "group": "control_change"}, {"time": 1418, "annotation": {"number": 64, "value": 0}, "group": "control_change"}, {"time": 1428, "annotation": {"number": 64, "value": 127}, "group": "control_change"}, {"time": 1446, "annotation": {"number": 64, "value": 0}, "group": "control_change"}, {"time": 1451, "annotation": {"number": 64, "value": 127}, "group": "control_change"}, {"time": 1470, "annotation": {"number": 64, "value": 0}, "group": "control_change"}, {"time": 1475, "annotation": {"number": 64, "value": 127}, "group": "control_change"}, {"time": 1522, "annotation": {"number": 64, "value": 127}, "group": "control_change"}, {"time": 1544, "annotation": {"number": 64, "value": 0}, "group": "control_change"}, {"time": 1546, "annotation": {"number": 64, "value": 127}, "group": "control_change"}, {"time": 1565, "annotation": {"number": 64, "value": 0}, "group": "control_change"}, {"time": 1571, "annotation": {"number": 64, "value": 127}, "group": "control_change"}, {"time": 1614, "annotation": {"number": 64, "value": 0}, "group": "control_change"}, {"time": 1619, "annotation": {"number": 64, "value": 127}, "group": "control_change"}, {"time": 1637, "annotation": {"number": 64, "value": 0}, "group": "control_change"}, {"time": 1640, "annotation": {"number": 64, "value": 127}, "group": "control_change"}, {"time": 1661, "annotation": {"number": 64, "value": 0}, "group": "control_change"}, {"time": 1667, "annotation": {"number": 64, "value": 127}, "group": "control_change"}, {"time": 1709, "annotation": {"number": 64, "value": 0}, "group": "control_change"}, {"time": 1712, "annotation": {"number": 64, "value": 127}, "group": "control_change"}, {"time": 1732, "annotation": {"number": 64, "value": 0}, "group": "control_change"}, {"time": 1734, "annotation": {"number": 64, "value": 127}, "group": "control_change"}, {"time": 1757, "annotation": {"number": 64, "value": 0}, "group": "control_change"}, {"time": 1764, "annotation": {"number": 64, "value": 127}, "group": "control_change"}, {"time": 1805, "annotation": {"number": 64, "value": 0}, "group": "control_change"}, {"time": 1808, "annotation": {"number": 64, "value": 127}, "group": "control_change"}, {"time": 1849, "annotation": {"number": 64, "value": 0}, "group": "control_change"}, {"time": 1855, "annotation": {"number": 64, "value": 127}, "group": "control_change"}, {"time": 1877, "annotation": {"number": 64, "value": 0}, "group": "control_change"}, {"time": 1878, "annotation": {"number": 64, "value": 127}, "group": "control_change"}, {"time": 1902, "annotation": {"number": 64, "value": 0}, "group": "control_change"}, {"time": 1906, "annotation": {"number": 64, "value": 127}, "group": "control_change"}, {"time": 1925, "annotation": {"number": 64, "value": 0}, "group": "control_change"}, {"time": 1930, "annotation": {"number": 64, "value": 127}, "group": "control_change"}, {"time": 1950, "annotation": {"number": 64, "value": 0}, "group": "control_change"}, {"time": 1954, "annotation": {"number": 64, "value": 127}, "group": "control_change"}, {"time": 1973, "annotation": {"number": 64, "value": 0}, "group": "control_change"}, {"time": 1977, "annotation": {"number": 64, "value": 127}, "group": "control_change"}, {"time": 1998, "annotation": {"number": 64, "value": 0}, "group": "control_change"}, {"time": 2003, "annotation": {"number": 64, "value": 127}, "group": "control_change"}, {"time": 2021, "annotation": {"number": 64, "value": 0}, "group": "control_change"}, {"time": 2026, "annotation": {"number": 64, "value": 127}, "group": "control_change"}, {"time": 2046, "annotation": {"number": 64, "value": 0}, "group": "control_change"}, {"time": 2050, "annotation": {"number": 64, "value": 127}, "group": "control_change"}, {"time": 2070, "annotation": {"number": 64, "value": 0}, "group": "control_change"}, {"time": 2074, "annotation": {"number": 64, "value": 127}, "group": "control_change"}, {"time": 2094, "annotation": {"number": 64, "value": 0}, "group": "control_change"}, {"time": 2099, "annotation": {"number": 64, "value": 127}, "group": "control_change"}, {"time": 2117, "annotation": {"number": 64, "value": 0}, "group": "control_change"}, {"time": 2122, "annotation": {"number": 64, "value": 127}, "group": "control_change"}, {"time": 2142, "annotation": {"number": 64, "value": 0}, "group": "control_change"}, {"time": 2146, "annotation": {"number": 64, "value": 127}, "group": "control_change"}, {"time": 2165, "annotation": {"number": 64, "value": 0}, "group": "control_change"}, {"time": 2169, "annotation": {"number": 64, "value": 127}, "group": "control_change"}, {"time": 2188, "annotation": {"number": 64, "value": 0}, "group": "control_change"}, {"time": 2194, "annotation": {"number": 64, "value": 127}, "group": "control_change"}, {"time": 2214, "annotation": {"number": 64, "value": 0}, "group": "control_change"}, {"time": 2216, "annotation": {"number": 64, "value": 127}, "group": "control_change"}, {"time": 2236, "annotation": {"number": 64, "value": 0}, "group": "control_change"}, {"time": 2239, "annotation": {"number": 64, "value": 127}, "group": "control_change"}, {"time": 2261, "annotation": {"number": 64, "value": 0}, "group": "control_change"}, {"time": 2262, "annotation": {"number": 64, "value": 127}, "group": "control_change"}, {"time": 2286, "annotation": {"number": 64, "value": 0}, "group": "control_change"}, {"time": 2290, "annotation": {"number": 64, "value": 127}, "group": "control_change"}, {"time": 2309, "annotation": {"number": 64, "value": 0}, "group": "control_change"}, {"time": 2314, "annotation": {"number": 64, "value": 127}, "group": "control_change"}, {"time": 2334, "annotation": {"number": 64, "value": 0}, "group": "control_change"}, {"time": 2338, "annotation": {"number": 64, "value": 127}, "group": "control_change"}, {"time": 2357, "annotation": {"number": 64, "value": 0}, "group": "control_change"}, {"time": 2361, "annotation": {"number": 64, "value": 127}, "group": "control_change"}, {"time": 2382, "annotation": {"number": 64, "value": 0}, "group": "control_change"}, {"time": 2387, "annotation": {"number": 64, "value": 127}, "group": "control_change"}, {"time": 2405, "annotation": {"number": 64, "value": 0}, "group": "control_change"}, {"time": 2410, "annotation": {"number": 64, "value": 127}, "group": "control_change"}, {"time": 2430, "annotation": {"number": 64, "value": 0}, "group": "control_change"}, {"time": 2434, "annotation": {"number": 64, "value": 127}, "group": "control_change"}, {"time": 2454, "annotation": {"number": 64, "value": 0}, "group": "control_change"}, {"time": 2458, "annotation": {"number": 64, "value": 127}, "group": "control_change"}, {"time": 2478, "annotation": {"number": 64, "value": 0}, "group": "control_change"}, {"time": 2483, "annotation": {"number": 64, "value": 127}, "group": "control_change"}, {"time": 2501, "annotation": {"number": 64, "value": 0}, "group": "control_change"}, {"time": 2506, "annotation": {"number": 64, "value": 127}, "group": "control_change"}, {"time": 2526, "annotation": {"number": 64, "value": 0}, "group": "control_change"}, {"time": 2530, "annotation": {"number": 64, "value": 127}, "group": "control_change"}, {"time": 2549, "annotation": {"number": 64, "value": 0}, "group": "control_change"}, {"time": 2553, "annotation": {"number": 64, "value": 127}, "group": "control_change"}, {"time": 2572, "annotation": {"number": 64, "value": 0}, "group": "control_change"}, {"time": 2578, "annotation": {"number": 64, "value": 127}, "group": "control_change"}, {"time": 2598, "annotation": {"number": 64, "value": 0}, "group": "control_change"}, {"time": 2600, "annotation": {"number": 64, "value": 127}, "group": "control_change"}, {"time": 2620, "annotation": {"number": 64, "value": 0}, "group": "control_change"}, {"time": 2623, "annotation": {"number": 64, "value": 127}, "group": "control_change"}, {"time": 2646, "annotation": {"number": 64, "value": 0}, "group": "control_change"}, {"time": 2650, "annotation": {"number": 64, "value": 127}, "group": "control_change"}, {"time": 2668, "annotation": {"number": 64, "value": 0}, "group": "control_change"}, {"time": 2671, "annotation": {"number": 64, "value": 127}, "group": "control_change"}, {"time": 2695, "annotation": {"number": 64, "value": 0}, "group": "control_change"}, {"time": 2699, "annotation": {"number": 64, "value": 127}, "group": "control_change"}, {"time": 2717, "annotation": {"number": 64, "value": 0}, "group": "control_change"}, {"time": 2722, "annotation": {"number": 64, "value": 127}, "group": "control_change"}, {"time": 2741, "annotation": {"number": 64, "value": 0}, "group": "control_change"}, {"time": 2743, "annotation": {"number": 64, "value": 127}, "group": "control_change"}, {"time": 2764, "annotation": {"number": 64, "value": 0}, "group": "control_change"}, {"time": 2767, "annotation": {"number": 64, "value": 127}, "group": "control_change"}, {"time": 2790, "annotation": {"number": 64, "value": 0}, "group": "control_change"}, {"time": 2794, "annotation": {"number": 64, "value": 127}, "group": "control_change"}, {"time": 2812, "annotation": {"number": 64, "value": 0}, "group": "control_change"}, {"time": 2816, "annotation": {"number": 64, "value": 127}, "group": "control_change"}, {"time": 2837, "annotation": {"number": 64, "value": 0}, "group": "control_change"}, {"time": 2843, "annotation": {"number": 64, "value": 127}, "group": "control_change"}, {"time": 2861, "annotation": {"number": 64, "value": 0}, "group": "control_change"}, {"time": 2864, "annotation": {"number": 64, "value": 127}, "group": "control_change"}, {"time": 2885, "annotation": {"number": 64, "value": 0}, "group": "control_change"}, {"time": 2889, "annotation": {"number": 64, "value": 127}, "group": "control_change"}, {"time": 2910, "annotation": {"number": 64, "value": 0}, "group": "control_change"}, {"time": 2914, "annotation": {"number": 64, "value": 127}, "group": "control_change"}, {"time": 2933, "annotation": {"number": 64, "value": 0}, "group": "control_change"}, {"time": 2936, "annotation": {"number": 64, "value": 127}, "group": "control_change"}, {"time": 2958, "annotation": {"number": 64, "value": 0}, "group": "control_change"}, {"time": 2963, "annotation": {"number": 64, "value": 127}, "group": "control_change"}, {"time": 2982, "annotation": {"number": 64, "value": 0}, "group": "control_change"}, {"time": 2986, "annotation": {"number": 64, "value": 127}, "group": "control_change"}, {"time": 3006, "annotation": {"number": 64, "value": 0}, "group": "control_change"}, {"time": 3008, "annotation": {"number": 64, "value": 127}, "group": "control_change"}, {"time": 3029, "annotation": {"number": 64, "value": 0}, "group": "control_change"}, {"time": 3031, "annotation": {"number": 64, "value": 127}, "group": "control_change"}, {"time": 3056, "annotation": {"number": 64, "value": 0}, "group": "control_change"}, {"time": 3059, "annotation": {"number": 64, "value": 127}, "group": "control_change"}, {"time": 3074, "annotation": {"number": 64, "value": 0}, "group": "control_change"}, {"time": 3080, "annotation": {"number": 64, "value": 127}, "group": "control_change"}, {"time": 3101, "annotation": {"number": 64, "value": 0}, "group": "control_change"}, {"time": 3104, "annotation": {"number": 64, "value": 127}, "group": "control_change"}, {"time": 3125, "annotation": {"number": 64, "value": 0}, "group": "control_change"}, {"time": 3127, "annotation": {"number": 64, "value": 127}, "group": "control_change"}, {"time": 3148, "annotation": {"number": 64, "value": 0}, "group": "control_change"}, {"time": 3150, "annotation": {"number": 64, "value": 127}, "group": "control_change"}, {"time": 3172, "annotation": {"number": 64, "value": 0}, "group": "control_change"}, {"time": 3176, "annotation": {"number": 64, "value": 127}, "group": "control_change"}, {"time": 3197, "annotation": {"number": 64, "value": 0}, "group": "control_change"}, {"time": 3200, "annotation": {"number": 64, "value": 127}, "group": "control_change"}, {"time": 3221, "annotation": {"number": 64, "value": 0}, "group": "control_change"}, {"time": 3223, "annotation": {"number": 64, "value": 127}, "group": "control_change"}, {"time": 3244, "annotation": {"number": 64, "value": 0}, "group": "control_change"}, {"time": 3246, "annotation": {"number": 64, "value": 127}, "group": "control_change"}, {"time": 3268, "annotation": {"number": 64, "value": 0}, "group": "control_change"}, {"time": 3272, "annotation": {"number": 64, "value": 127}, "group": "control_change"}, {"time": 3293, "annotation": {"number": 64, "value": 0}, "group": "control_change"}, {"time": 3296, "annotation": {"number": 64, "value": 127}, "group": "control_change"}, {"time": 3317, "annotation": {"number": 64, "value": 0}, "group": "control_change"}, {"time": 3319, "annotation": {"number": 64, "value": 127}, "group": "control_change"}, {"time": 3340, "annotation": {"number": 64, "value": 0}, "group": "control_change"}, {"time": 3342, "annotation": {"number": 64, "value": 127}, "group": "control_change"}, {"time": 3364, "annotation": {"number": 64, "value": 0}, "group": "control_change"}, {"time": 3368, "annotation": {"number": 64, "value": 127}, "group": "control_change"}, {"time": 3389, "annotation": {"number": 64, "value": 0}, "group": "control_change"}, {"time": 3392, "annotation": {"number": 64, "value": 127}, "group": "control_change"}, {"time": 3413, "annotation": {"number": 64, "value": 0}, "group": "control_change"}, {"time": 3415, "annotation": {"number": 64, "value": 127}, "group": "control_change"}, {"time": 3436, "annotation": {"number": 64, "value": 0}, "group": "control_change"}, {"time": 3438, "annotation": {"number": 64, "value": 127}, "group": "control_change"}, {"time": 3460, "annotation": {"number": 64, "value": 0}, "group": "control_change"}, {"time": 3467, "annotation": {"number": 64, "value": 127}, "group": "control_change"}]}]}