{"metadata": {"schema_version": "0.2", "title": "None", "source_filename": "140.mid", "source_format": "midi"}, "resolution": 12, "tempos": [{"time": 0, "qpm": 122.0000691333725}, {"time": 960, "qpm": 121.60001297066805}, {"time": 1324, "qpm": 122.0000691333725}, {"time": 2328, "qpm": 121.20012362412609}, {"time": 2578, "qpm": 121.90018000593247}, {"time": 2641, "qpm": 122.0000691333725}, {"time": 4241, "qpm": 121.40023025577005}, {"time": 4423, "qpm": 122.0000691333725}, {"time": 5044, "qpm": 121.30009441190681}, {"time": 5059, "qpm": 120.30002827050664}, {"time": 5089, "qpm": 119.20016688023364}, {"time": 5106, "qpm": 118.20004964402085}, {"time": 5112, "qpm": 118.0001337334849}, {"time": 5118, "qpm": 117.40005830869562}, {"time": 5125, "qpm": 116.20002672600614}, {"time": 5136, "qpm": 115.1001851194644}, {"time": 5144, "qpm": 113.70010460409624}, {"time": 5155, "qpm": 112.3000357488447}, {"time": 5162, "qpm": 110.90019536917751}, {"time": 5298, "qpm": 109.60005114669053}, {"time": 5311, "qpm": 108.10031709426347}, {"time": 5320, "qpm": 105.90004447801869}, {"time": 5335, "qpm": 104.10015823224052}, {"time": 5352, "qpm": 101.80016627360492}, {"time": 5364, "qpm": 100.60007947406278}, {"time": 5375, "qpm": 99.000099000099}, {"time": 5382, "qpm": 98.00030380094178}], "time_signatures": [{"time": 0, "numerator": 1, "denominator": 4}], "tracks": [{"program": 0, "is_drum": false, "name": "MELODY", "notes": [{"time": 1026, "pitch": 62, "duration": 3, "velocity": 94}, {"time": 1032, "pitch": 62, "duration": 4, "velocity": 97}, {"time": 1038, "pitch": 64, "duration": 3, "velocity": 102}, {"time": 1044, "pitch": 67, "duration": 20, "velocity": 111}, {"time": 1068, "pitch": 67, "duration": 38, "velocity": 108}, {"time": 1110, "pitch": 67, "duration": 4, "velocity": 111}, {"time": 1116, "pitch": 66, "duration": 3, "velocity": 112}, {"time": 1122, "pitch": 64, "duration": 3, "velocity": 105}, {"time": 1128, "pitch": 62, "duration": 3, "velocity": 100}, {"time": 1134, "pitch": 60, "duration": 6, "velocity": 114}, {"time": 1140, "pitch": 62, "duration": 23, "velocity": 100}, {"time": 1206, "pitch": 67, "duration": 4, "velocity": 105}, {"time": 1212, "pitch": 66, "duration": 4, "velocity": 109}, {"time": 1218, "pitch": 64, "duration": 3, "velocity": 105}, {"time": 1224, "pitch": 62, "duration": 3, "velocity": 100}, {"time": 1230, "pitch": 64, "duration": 3, "velocity": 111}, {"time": 1236, "pitch": 67, "duration": 9, "velocity": 108}, {"time": 1248, "pitch": 62, "duration": 12, "velocity": 111}, {"time": 1260, "pitch": 64, "duration": 10, "velocity": 100}, {"time": 1272, "pitch": 62, "duration": 5, "velocity": 108}, {"time": 1278, "pitch": 59, "duration": 4, "velocity": 100}, {"time": 1284, "pitch": 62, "duration": 10, "velocity": 108}, {"time": 1296, "pitch": 59, "duration": 4, "velocity": 102}, {"time": 1302, "pitch": 57, "duration": 3, "velocity": 87}, {"time": 1308, "pitch": 59, "duration": 3, "velocity": 108}, {"time": 1314, "pitch": 59, "duration": 3, "velocity": 105}, {"time": 1320, "pitch": 57, "duration": 3, "velocity": 102}, {"time": 1326, "pitch": 55, "duration": 48, "velocity": 97}, {"time": 1410, "pitch": 62, "duration": 3, "velocity": 94}, {"time": 1416, "pitch": 62, "duration": 4, "velocity": 97}, {"time": 1422, "pitch": 64, "duration": 3, "velocity": 102}, {"time": 1428, "pitch": 67, "duration": 20, "velocity": 111}, {"time": 1452, "pitch": 67, "duration": 38, "velocity": 108}, {"time": 1494, "pitch": 67, "duration": 4, "velocity": 111}, {"time": 1500, "pitch": 66, "duration": 3, "velocity": 112}, {"time": 1506, "pitch": 64, "duration": 3, "velocity": 105}, {"time": 1512, "pitch": 62, "duration": 3, "velocity": 100}, {"time": 1518, "pitch": 60, "duration": 6, "velocity": 114}, {"time": 1524, "pitch": 62, "duration": 23, "velocity": 100}, {"time": 1590, "pitch": 67, "duration": 4, "velocity": 105}, {"time": 1596, "pitch": 66, "duration": 4, "velocity": 109}, {"time": 1602, "pitch": 64, "duration": 3, "velocity": 105}, {"time": 1608, "pitch": 62, "duration": 3, "velocity": 100}, {"time": 1614, "pitch": 64, "duration": 3, "velocity": 111}, {"time": 1620, "pitch": 67, "duration": 9, "velocity": 108}, {"time": 1632, "pitch": 62, "duration": 12, "velocity": 111}, {"time": 1644, "pitch": 64, "duration": 10, "velocity": 100}, {"time": 1656, "pitch": 62, "duration": 5, "velocity": 108}, {"time": 1662, "pitch": 59, "duration": 4, "velocity": 100}, {"time": 1668, "pitch": 62, "duration": 10, "velocity": 108}, {"time": 1680, "pitch": 59, "duration": 4, "velocity": 102}, {"time": 1686, "pitch": 57, "duration": 3, "velocity": 87}, {"time": 1692, "pitch": 59, "duration": 3, "velocity": 108}, {"time": 1698, "pitch": 59, "duration": 3, "velocity": 105}, {"time": 1704, "pitch": 57, "duration": 3, "velocity": 102}, {"time": 1710, "pitch": 55, "duration": 48, "velocity": 97}, {"time": 1794, "pitch": 67, "duration": 3, "velocity": 97}, {"time": 1800, "pitch": 67, "duration": 3, "velocity": 100}, {"time": 1806, "pitch": 67, "duration": 4, "velocity": 108}, {"time": 1812, "pitch": 69, "duration": 4, "velocity": 92}, {"time": 1818, "pitch": 69, "duration": 3, "velocity": 102}, {"time": 1824, "pitch": 69, "duration": 3, "velocity": 114}, {"time": 1830, "pitch": 64, "duration": 3, "velocity": 114}, {"time": 1836, "pitch": 62, "duration": 12, "velocity": 114}, {"time": 1854, "pitch": 69, "duration": 9, "velocity": 111}, {"time": 1866, "pitch": 69, "duration": 3, "velocity": 114}, {"time": 1872, "pitch": 69, "duration": 3, "velocity": 102}, {"time": 1878, "pitch": 64, "duration": 3, "velocity": 105}, {"time": 1884, "pitch": 62, "duration": 3, "velocity": 105}, {"time": 1890, "pitch": 62, "duration": 3, "velocity": 102}, {"time": 1896, "pitch": 62, "duration": 3, "velocity": 100}, {"time": 1902, "pitch": 64, "duration": 3, "velocity": 114}, {"time": 1908, "pitch": 67, "duration": 3, "velocity": 94}, {"time": 1914, "pitch": 67, "duration": 4, "velocity": 102}, {"time": 1920, "pitch": 65, "duration": 3, "velocity": 97}, {"time": 1926, "pitch": 64, "duration": 3, "velocity": 111}, {"time": 1932, "pitch": 62, "duration": 11, "velocity": 114}, {"time": 1950, "pitch": 67, "duration": 9, "velocity": 111}, {"time": 1962, "pitch": 67, "duration": 3, "velocity": 108}, {"time": 1968, "pitch": 65, "duration": 4, "velocity": 105}, {"time": 1974, "pitch": 64, "duration": 3, "velocity": 111}, {"time": 1980, "pitch": 62, "duration": 5, "velocity": 105}, {"time": 1986, "pitch": 67, "duration": 3, "velocity": 89}, {"time": 1992, "pitch": 67, "duration": 3, "velocity": 94}, {"time": 1998, "pitch": 67, "duration": 3, "velocity": 97}, {"time": 2004, "pitch": 69, "duration": 3, "velocity": 84}, {"time": 2010, "pitch": 69, "duration": 3, "velocity": 100}, {"time": 2016, "pitch": 69, "duration": 3, "velocity": 100}, {"time": 2022, "pitch": 67, "duration": 3, "velocity": 114}, {"time": 2028, "pitch": 64, "duration": 11, "velocity": 111}, {"time": 2046, "pitch": 64, "duration": 3, "velocity": 102}, {"time": 2052, "pitch": 69, "duration": 3, "velocity": 102}, {"time": 2058, "pitch": 69, "duration": 3, "velocity": 105}, {"time": 2064, "pitch": 69, "duration": 3, "velocity": 100}, {"time": 2070, "pitch": 67, "duration": 3, "velocity": 105}, {"time": 2076, "pitch": 64, "duration": 3, "velocity": 108}, {"time": 2082, "pitch": 64, "duration": 3, "velocity": 97}, {"time": 2088, "pitch": 64, "duration": 3, "velocity": 102}, {"time": 2094, "pitch": 64, "duration": 3, "velocity": 108}, {"time": 2100, "pitch": 65, "duration": 3, "velocity": 100}, {"time": 2106, "pitch": 65, "duration": 3, "velocity": 100}, {"time": 2112, "pitch": 65, "duration": 3, "velocity": 105}, {"time": 2118, "pitch": 67, "duration": 3, "velocity": 105}, {"time": 2124, "pitch": 65, "duration": 3, "velocity": 105}, {"time": 2130, "pitch": 64, "duration": 3, "velocity": 105}, {"time": 2136, "pitch": 62, "duration": 3, "velocity": 102}, {"time": 2142, "pitch": 62, "duration": 3, "velocity": 100}, {"time": 2148, "pitch": 66, "duration": 3, "velocity": 102}, {"time": 2154, "pitch": 66, "duration": 3, "velocity": 99}, {"time": 2160, "pitch": 66, "duration": 3, "velocity": 96}, {"time": 2166, "pitch": 66, "duration": 6, "velocity": 102}, {"time": 2178, "pitch": 62, "duration": 3, "velocity": 94}, {"time": 2184, "pitch": 62, "duration": 4, "velocity": 97}, {"time": 2190, "pitch": 64, "duration": 3, "velocity": 102}, {"time": 2196, "pitch": 67, "duration": 20, "velocity": 111}, {"time": 2220, "pitch": 67, "duration": 38, "velocity": 108}, {"time": 2262, "pitch": 67, "duration": 4, "velocity": 111}, {"time": 2268, "pitch": 66, "duration": 3, "velocity": 112}, {"time": 2274, "pitch": 64, "duration": 3, "velocity": 105}, {"time": 2280, "pitch": 62, "duration": 3, "velocity": 100}, {"time": 2286, "pitch": 60, "duration": 6, "velocity": 114}, {"time": 2292, "pitch": 62, "duration": 23, "velocity": 100}, {"time": 2358, "pitch": 67, "duration": 4, "velocity": 105}, {"time": 2364, "pitch": 66, "duration": 4, "velocity": 109}, {"time": 2370, "pitch": 64, "duration": 3, "velocity": 105}, {"time": 2376, "pitch": 62, "duration": 3, "velocity": 100}, {"time": 2382, "pitch": 64, "duration": 3, "velocity": 111}, {"time": 2388, "pitch": 67, "duration": 9, "velocity": 108}, {"time": 2400, "pitch": 62, "duration": 12, "velocity": 111}, {"time": 2412, "pitch": 64, "duration": 10, "velocity": 100}, {"time": 2424, "pitch": 62, "duration": 5, "velocity": 108}, {"time": 2430, "pitch": 59, "duration": 4, "velocity": 100}, {"time": 2436, "pitch": 62, "duration": 10, "velocity": 108}, {"time": 2448, "pitch": 59, "duration": 4, "velocity": 102}, {"time": 2454, "pitch": 57, "duration": 3, "velocity": 87}, {"time": 2460, "pitch": 59, "duration": 3, "velocity": 108}, {"time": 2466, "pitch": 59, "duration": 3, "velocity": 105}, {"time": 2472, "pitch": 57, "duration": 3, "velocity": 102}, {"time": 2478, "pitch": 55, "duration": 48, "velocity": 97}, {"time": 3138, "pitch": 62, "duration": 3, "velocity": 94}, {"time": 3144, "pitch": 62, "duration": 4, "velocity": 97}, {"time": 3150, "pitch": 64, "duration": 3, "velocity": 102}, {"time": 3156, "pitch": 67, "duration": 20, "velocity": 111}, {"time": 3180, "pitch": 67, "duration": 38, "velocity": 108}, {"time": 3222, "pitch": 67, "duration": 4, "velocity": 111}, {"time": 3228, "pitch": 66, "duration": 3, "velocity": 112}, {"time": 3234, "pitch": 64, "duration": 3, "velocity": 105}, {"time": 3240, "pitch": 62, "duration": 3, "velocity": 100}, {"time": 3246, "pitch": 60, "duration": 6, "velocity": 114}, {"time": 3252, "pitch": 62, "duration": 23, "velocity": 100}, {"time": 3318, "pitch": 67, "duration": 4, "velocity": 105}, {"time": 3324, "pitch": 66, "duration": 4, "velocity": 109}, {"time": 3330, "pitch": 64, "duration": 3, "velocity": 105}, {"time": 3336, "pitch": 62, "duration": 3, "velocity": 100}, {"time": 3342, "pitch": 64, "duration": 3, "velocity": 111}, {"time": 3348, "pitch": 67, "duration": 9, "velocity": 108}, {"time": 3360, "pitch": 62, "duration": 12, "velocity": 111}, {"time": 3372, "pitch": 64, "duration": 10, "velocity": 100}, {"time": 3384, "pitch": 62, "duration": 5, "velocity": 108}, {"time": 3390, "pitch": 59, "duration": 4, "velocity": 100}, {"time": 3396, "pitch": 62, "duration": 10, "velocity": 108}, {"time": 3408, "pitch": 59, "duration": 4, "velocity": 102}, {"time": 3414, "pitch": 57, "duration": 3, "velocity": 87}, {"time": 3420, "pitch": 59, "duration": 3, "velocity": 108}, {"time": 3426, "pitch": 59, "duration": 3, "velocity": 105}, {"time": 3432, "pitch": 57, "duration": 3, "velocity": 102}, {"time": 3438, "pitch": 55, "duration": 48, "velocity": 97}, {"time": 3522, "pitch": 62, "duration": 3, "velocity": 94}, {"time": 3528, "pitch": 62, "duration": 4, "velocity": 97}, {"time": 3534, "pitch": 64, "duration": 3, "velocity": 102}, {"time": 3540, "pitch": 67, "duration": 20, "velocity": 111}, {"time": 3564, "pitch": 67, "duration": 38, "velocity": 108}, {"time": 3606, "pitch": 67, "duration": 4, "velocity": 111}, {"time": 3612, "pitch": 66, "duration": 3, "velocity": 112}, {"time": 3618, "pitch": 64, "duration": 3, "velocity": 105}, {"time": 3624, "pitch": 62, "duration": 3, "velocity": 100}, {"time": 3630, "pitch": 60, "duration": 6, "velocity": 114}, {"time": 3636, "pitch": 62, "duration": 23, "velocity": 100}, {"time": 3702, "pitch": 67, "duration": 4, "velocity": 105}, {"time": 3708, "pitch": 66, "duration": 4, "velocity": 109}, {"time": 3714, "pitch": 64, "duration": 3, "velocity": 105}, {"time": 3720, "pitch": 62, "duration": 3, "velocity": 100}, {"time": 3726, "pitch": 64, "duration": 3, "velocity": 111}, {"time": 3732, "pitch": 67, "duration": 9, "velocity": 108}, {"time": 3744, "pitch": 62, "duration": 12, "velocity": 111}, {"time": 3756, "pitch": 64, "duration": 10, "velocity": 100}, {"time": 3768, "pitch": 62, "duration": 5, "velocity": 108}, {"time": 3774, "pitch": 59, "duration": 4, "velocity": 100}, {"time": 3780, "pitch": 62, "duration": 10, "velocity": 108}, {"time": 3792, "pitch": 59, "duration": 4, "velocity": 102}, {"time": 3798, "pitch": 57, "duration": 3, "velocity": 87}, {"time": 3804, "pitch": 59, "duration": 3, "velocity": 108}, {"time": 3810, "pitch": 59, "duration": 3, "velocity": 105}, {"time": 3816, "pitch": 57, "duration": 3, "velocity": 102}, {"time": 3822, "pitch": 55, "duration": 48, "velocity": 97}, {"time": 3906, "pitch": 67, "duration": 3, "velocity": 97}, {"time": 3912, "pitch": 67, "duration": 3, "velocity": 100}, {"time": 3918, "pitch": 67, "duration": 4, "velocity": 108}, {"time": 3924, "pitch": 69, "duration": 4, "velocity": 92}, {"time": 3930, "pitch": 69, "duration": 3, "velocity": 102}, {"time": 3936, "pitch": 69, "duration": 3, "velocity": 114}, {"time": 3942, "pitch": 64, "duration": 3, "velocity": 114}, {"time": 3948, "pitch": 62, "duration": 12, "velocity": 114}, {"time": 3966, "pitch": 69, "duration": 9, "velocity": 111}, {"time": 3978, "pitch": 69, "duration": 3, "velocity": 114}, {"time": 3984, "pitch": 69, "duration": 3, "velocity": 102}, {"time": 3990, "pitch": 64, "duration": 3, "velocity": 105}, {"time": 3996, "pitch": 62, "duration": 3, "velocity": 105}, {"time": 4002, "pitch": 62, "duration": 3, "velocity": 102}, {"time": 4008, "pitch": 62, "duration": 3, "velocity": 100}, {"time": 4014, "pitch": 64, "duration": 3, "velocity": 114}, {"time": 4020, "pitch": 67, "duration": 3, "velocity": 94}, {"time": 4026, "pitch": 67, "duration": 4, "velocity": 102}, {"time": 4032, "pitch": 65, "duration": 3, "velocity": 97}, {"time": 4038, "pitch": 64, "duration": 3, "velocity": 111}, {"time": 4044, "pitch": 62, "duration": 11, "velocity": 114}, {"time": 4062, "pitch": 67, "duration": 9, "velocity": 111}, {"time": 4074, "pitch": 67, "duration": 3, "velocity": 108}, {"time": 4080, "pitch": 65, "duration": 4, "velocity": 105}, {"time": 4086, "pitch": 64, "duration": 3, "velocity": 111}, {"time": 4092, "pitch": 62, "duration": 5, "velocity": 105}, {"time": 4098, "pitch": 67, "duration": 3, "velocity": 89}, {"time": 4104, "pitch": 67, "duration": 3, "velocity": 94}, {"time": 4110, "pitch": 67, "duration": 3, "velocity": 97}, {"time": 4116, "pitch": 69, "duration": 3, "velocity": 84}, {"time": 4122, "pitch": 69, "duration": 3, "velocity": 100}, {"time": 4128, "pitch": 69, "duration": 3, "velocity": 100}, {"time": 4134, "pitch": 67, "duration": 3, "velocity": 114}, {"time": 4140, "pitch": 64, "duration": 11, "velocity": 111}, {"time": 4158, "pitch": 64, "duration": 3, "velocity": 102}, {"time": 4164, "pitch": 69, "duration": 3, "velocity": 102}, {"time": 4170, "pitch": 69, "duration": 3, "velocity": 105}, {"time": 4176, "pitch": 69, "duration": 3, "velocity": 100}, {"time": 4182, "pitch": 67, "duration": 3, "velocity": 105}, {"time": 4188, "pitch": 64, "duration": 3, "velocity": 108}, {"time": 4194, "pitch": 64, "duration": 3, "velocity": 97}, {"time": 4200, "pitch": 64, "duration": 3, "velocity": 102}, {"time": 4206, "pitch": 64, "duration": 3, "velocity": 108}, {"time": 4212, "pitch": 65, "duration": 3, "velocity": 100}, {"time": 4218, "pitch": 65, "duration": 3, "velocity": 100}, {"time": 4224, "pitch": 65, "duration": 3, "velocity": 105}, {"time": 4230, "pitch": 67, "duration": 3, "velocity": 105}, {"time": 4236, "pitch": 65, "duration": 3, "velocity": 105}, {"time": 4242, "pitch": 64, "duration": 3, "velocity": 105}, {"time": 4248, "pitch": 62, "duration": 3, "velocity": 102}, {"time": 4254, "pitch": 62, "duration": 3, "velocity": 100}, {"time": 4260, "pitch": 66, "duration": 3, "velocity": 102}, {"time": 4266, "pitch": 66, "duration": 3, "velocity": 99}, {"time": 4272, "pitch": 66, "duration": 3, "velocity": 96}, {"time": 4278, "pitch": 66, "duration": 6, "velocity": 102}, {"time": 4314, "pitch": 62, "duration": 3, "velocity": 94}, {"time": 4320, "pitch": 62, "duration": 4, "velocity": 97}, {"time": 4326, "pitch": 64, "duration": 3, "velocity": 102}, {"time": 4332, "pitch": 67, "duration": 20, "velocity": 111}, {"time": 4356, "pitch": 67, "duration": 38, "velocity": 108}, {"time": 4398, "pitch": 67, "duration": 4, "velocity": 111}, {"time": 4404, "pitch": 66, "duration": 3, "velocity": 112}, {"time": 4410, "pitch": 64, "duration": 3, "velocity": 105}, {"time": 4416, "pitch": 62, "duration": 3, "velocity": 100}, {"time": 4422, "pitch": 60, "duration": 6, "velocity": 114}, {"time": 4428, "pitch": 62, "duration": 23, "velocity": 100}, {"time": 4494, "pitch": 67, "duration": 4, "velocity": 105}, {"time": 4500, "pitch": 66, "duration": 4, "velocity": 109}, {"time": 4506, "pitch": 64, "duration": 3, "velocity": 105}, {"time": 4512, "pitch": 62, "duration": 3, "velocity": 100}, {"time": 4518, "pitch": 64, "duration": 3, "velocity": 111}, {"time": 4524, "pitch": 67, "duration": 9, "velocity": 108}, {"time": 4536, "pitch": 62, "duration": 12, "velocity": 111}, {"time": 4548, "pitch": 64, "duration": 10, "velocity": 100}, {"time": 4560, "pitch": 62, "duration": 5, "velocity": 108}, {"time": 4566, "pitch": 59, "duration": 4, "velocity": 100}, {"time": 4572, "pitch": 62, "duration": 10, "velocity": 108}, {"time": 4584, "pitch": 59, "duration": 4, "velocity": 102}, {"time": 4590, "pitch": 57, "duration": 3, "velocity": 87}, {"time": 4596, "pitch": 59, "duration": 3, "velocity": 108}, {"time": 4602, "pitch": 59, "duration": 3, "velocity": 105}, {"time": 4608, "pitch": 57, "duration": 3, "velocity": 102}, {"time": 4614, "pitch": 55, "duration": 48, "velocity": 97}, {"time": 4698, "pitch": 62, "duration": 3, "velocity": 94}, {"time": 4704, "pitch": 62, "duration": 4, "velocity": 97}, {"time": 4710, "pitch": 64, "duration": 3, "velocity": 102}, {"time": 4716, "pitch": 67, "duration": 20, "velocity": 111}, {"time": 4740, "pitch": 67, "duration": 38, "velocity": 108}, {"time": 4782, "pitch": 67, "duration": 4, "velocity": 111}, {"time": 4788, "pitch": 66, "duration": 3, "velocity": 112}, {"time": 4794, "pitch": 64, "duration": 3, "velocity": 105}, {"time": 4800, "pitch": 62, "duration": 3, "velocity": 100}, {"time": 4806, "pitch": 60, "duration": 6, "velocity": 114}, {"time": 4812, "pitch": 62, "duration": 23, "velocity": 100}, {"time": 4878, "pitch": 67, "duration": 4, "velocity": 105}, {"time": 4884, "pitch": 66, "duration": 4, "velocity": 109}, {"time": 4890, "pitch": 64, "duration": 3, "velocity": 105}, {"time": 4896, "pitch": 62, "duration": 3, "velocity": 100}, {"time": 4902, "pitch": 64, "duration": 3, "velocity": 111}, {"time": 4908, "pitch": 67, "duration": 9, "velocity": 108}, {"time": 4920, "pitch": 62, "duration": 12, "velocity": 111}, {"time": 4932, "pitch": 64, "duration": 10, "velocity": 100}, {"time": 4944, "pitch": 62, "duration": 5, "velocity": 108}, {"time": 4950, "pitch": 59, "duration": 4, "velocity": 100}, {"time": 4956, "pitch": 62, "duration": 10, "velocity": 108}, {"time": 4968, "pitch": 59, "duration": 4, "velocity": 102}, {"time": 4974, "pitch": 57, "duration": 3, "velocity": 87}, {"time": 4980, "pitch": 59, "duration": 3, "velocity": 108}, {"time": 4986, "pitch": 59, "duration": 3, "velocity": 105}, {"time": 4992, "pitch": 57, "duration": 3, "velocity": 102}, {"time": 4998, "pitch": 55, "duration": 48, "velocity": 97}, {"time": 5070, "pitch": 67, "duration": 4, "velocity": 105}, {"time": 5076, "pitch": 66, "duration": 4, "velocity": 109}, {"time": 5082, "pitch": 64, "duration": 3, "velocity": 105}, {"time": 5088, "pitch": 62, "duration": 3, "velocity": 100}, {"time": 5094, "pitch": 64, "duration": 3, "velocity": 111}, {"time": 5100, "pitch": 67, "duration": 9, "velocity": 108}, {"time": 5112, "pitch": 62, "duration": 12, "velocity": 111}, {"time": 5124, "pitch": 64, "duration": 10, "velocity": 100}, {"time": 5136, "pitch": 62, "duration": 5, "velocity": 108}, {"time": 5142, "pitch": 59, "duration": 4, "velocity": 100}, {"time": 5148, "pitch": 62, "duration": 10, "velocity": 108}, {"time": 5160, "pitch": 59, "duration": 4, "velocity": 102}, {"time": 5166, "pitch": 57, "duration": 3, "velocity": 87}, {"time": 5172, "pitch": 59, "duration": 3, "velocity": 108}, {"time": 5178, "pitch": 59, "duration": 3, "velocity": 105}, {"time": 5184, "pitch": 57, "duration": 3, "velocity": 102}, {"time": 5190, "pitch": 55, "duration": 48, "velocity": 97}, {"time": 5250, "pitch": 67, "duration": 4, "velocity": 105}, {"time": 5256, "pitch": 66, "duration": 4, "velocity": 109}, {"time": 5262, "pitch": 64, "duration": 3, "velocity": 105}, {"time": 5268, "pitch": 62, "duration": 3, "velocity": 100}, {"time": 5274, "pitch": 64, "duration": 3, "velocity": 111}, {"time": 5280, "pitch": 67, "duration": 9, "velocity": 108}, {"time": 5292, "pitch": 62, "duration": 12, "velocity": 111}, {"time": 5304, "pitch": 64, "duration": 10, "velocity": 100}, {"time": 5316, "pitch": 62, "duration": 5, "velocity": 108}, {"time": 5322, "pitch": 59, "duration": 4, "velocity": 100}, {"time": 5328, "pitch": 62, "duration": 10, "velocity": 108}, {"time": 5340, "pitch": 59, "duration": 4, "velocity": 102}, {"time": 5346, "pitch": 57, "duration": 3, "velocity": 87}, {"time": 5352, "pitch": 59, "duration": 7, "velocity": 108}, {"time": 5360, "pitch": 59, "duration": 8, "velocity": 105}, {"time": 5369, "pitch": 57, "duration": 7, "velocity": 102}, {"time": 5379, "pitch": 55, "duration": 48, "velocity": 97}]}, {"program": 0, "is_drum": false, "name": "BRIDGE", "notes": [{"time": 48, "pitch": 62, "duration": 9, "velocity": 94}, {"time": 48, "pitch": 67, "duration": 8, "velocity": 105}, {"time": 66, "pitch": 62, "duration": 4, "velocity": 84}, {"time": 66, "pitch": 65, "duration": 3, "velocity": 97}, {"time": 78, "pitch": 60, "duration": 21, "velocity": 87}, {"time": 78, "pitch": 64, "duration": 21, "velocity": 100}, {"time": 114, "pitch": 62, "duration": 4, "velocity": 69}, {"time": 114, "pitch": 66, "duration": 4, "velocity": 90}, {"time": 126, "pitch": 62, "duration": 30, "velocity": 89}, {"time": 126, "pitch": 67, "duration": 29, "velocity": 105}, {"time": 162, "pitch": 62, "duration": 3, "velocity": 87}, {"time": 162, "pitch": 65, "duration": 3, "velocity": 97}, {"time": 174, "pitch": 60, "duration": 36, "velocity": 89}, {"time": 174, "pitch": 64, "duration": 36, "velocity": 97}, {"time": 222, "pitch": 62, "duration": 49, "velocity": 78}, {"time": 222, "pitch": 66, "duration": 49, "velocity": 68}, {"time": 288, "pitch": 71, "duration": 13, "velocity": 97}, {"time": 288, "pitch": 74, "duration": 12, "velocity": 105}, {"time": 306, "pitch": 71, "duration": 4, "velocity": 89}, {"time": 306, "pitch": 74, "duration": 4, "velocity": 89}, {"time": 318, "pitch": 69, "duration": 16, "velocity": 89}, {"time": 318, "pitch": 72, "duration": 16, "velocity": 87}, {"time": 336, "pitch": 69, "duration": 10, "velocity": 100}, {"time": 336, "pitch": 72, "duration": 11, "velocity": 94}, {"time": 354, "pitch": 69, "duration": 5, "velocity": 82}, {"time": 354, "pitch": 74, "duration": 5, "velocity": 82}, {"time": 366, "pitch": 69, "duration": 6, "velocity": 87}, {"time": 366, "pitch": 74, "duration": 4, "velocity": 78}, {"time": 384, "pitch": 71, "duration": 12, "velocity": 87}, {"time": 384, "pitch": 74, "duration": 11, "velocity": 87}, {"time": 402, "pitch": 71, "duration": 4, "velocity": 84}, {"time": 402, "pitch": 74, "duration": 4, "velocity": 80}, {"time": 414, "pitch": 69, "duration": 16, "velocity": 84}, {"time": 414, "pitch": 72, "duration": 16, "velocity": 82}, {"time": 432, "pitch": 69, "duration": 8, "velocity": 84}, {"time": 432, "pitch": 72, "duration": 8, "velocity": 92}, {"time": 450, "pitch": 69, "duration": 4, "velocity": 89}, {"time": 450, "pitch": 74, "duration": 4, "velocity": 84}, {"time": 462, "pitch": 69, "duration": 5, "velocity": 82}, {"time": 462, "pitch": 74, "duration": 5, "velocity": 87}, {"time": 480, "pitch": 71, "duration": 7, "velocity": 92}, {"time": 480, "pitch": 74, "duration": 6, "velocity": 100}, {"time": 489, "pitch": 71, "duration": 3, "velocity": 84}, {"time": 489, "pitch": 74, "duration": 3, "velocity": 84}, {"time": 498, "pitch": 74, "duration": 4, "velocity": 92}, {"time": 498, "pitch": 77, "duration": 4, "velocity": 97}, {"time": 510, "pitch": 72, "duration": 14, "velocity": 82}, {"time": 510, "pitch": 76, "duration": 14, "velocity": 89}, {"time": 528, "pitch": 72, "duration": 6, "velocity": 84}, {"time": 528, "pitch": 76, "duration": 6, "velocity": 100}, {"time": 537, "pitch": 72, "duration": 3, "velocity": 76}, {"time": 537, "pitch": 76, "duration": 3, "velocity": 92}, {"time": 546, "pitch": 69, "duration": 4, "velocity": 87}, {"time": 546, "pitch": 74, "duration": 4, "velocity": 87}, {"time": 558, "pitch": 69, "duration": 4, "velocity": 94}, {"time": 558, "pitch": 74, "duration": 4, "velocity": 100}, {"time": 576, "pitch": 71, "duration": 13, "velocity": 97}, {"time": 576, "pitch": 74, "duration": 12, "velocity": 105}, {"time": 594, "pitch": 71, "duration": 4, "velocity": 89}, {"time": 594, "pitch": 74, "duration": 4, "velocity": 89}, {"time": 606, "pitch": 69, "duration": 16, "velocity": 89}, {"time": 606, "pitch": 72, "duration": 16, "velocity": 87}, {"time": 624, "pitch": 69, "duration": 10, "velocity": 100}, {"time": 624, "pitch": 72, "duration": 11, "velocity": 94}, {"time": 642, "pitch": 69, "duration": 5, "velocity": 82}, {"time": 642, "pitch": 74, "duration": 5, "velocity": 82}, {"time": 654, "pitch": 69, "duration": 6, "velocity": 87}, {"time": 654, "pitch": 74, "duration": 4, "velocity": 78}, {"time": 672, "pitch": 71, "duration": 12, "velocity": 87}, {"time": 672, "pitch": 74, "duration": 11, "velocity": 87}, {"time": 672, "pitch": 79, "duration": 8, "velocity": 97}, {"time": 684, "pitch": 83, "duration": 9, "velocity": 108}, {"time": 690, "pitch": 71, "duration": 4, "velocity": 84}, {"time": 690, "pitch": 74, "duration": 4, "velocity": 80}, {"time": 696, "pitch": 86, "duration": 10, "velocity": 111}, {"time": 702, "pitch": 69, "duration": 16, "velocity": 84}, {"time": 702, "pitch": 72, "duration": 16, "velocity": 82}, {"time": 708, "pitch": 84, "duration": 12, "velocity": 111}, {"time": 720, "pitch": 69, "duration": 8, "velocity": 84}, {"time": 720, "pitch": 72, "duration": 8, "velocity": 92}, {"time": 720, "pitch": 83, "duration": 10, "velocity": 105}, {"time": 732, "pitch": 81, "duration": 8, "velocity": 105}, {"time": 738, "pitch": 69, "duration": 4, "velocity": 89}, {"time": 738, "pitch": 74, "duration": 4, "velocity": 84}, {"time": 744, "pitch": 79, "duration": 9, "velocity": 105}, {"time": 750, "pitch": 69, "duration": 5, "velocity": 82}, {"time": 750, "pitch": 74, "duration": 5, "velocity": 87}, {"time": 756, "pitch": 83, "duration": 11, "velocity": 105}, {"time": 768, "pitch": 71, "duration": 7, "velocity": 92}, {"time": 768, "pitch": 74, "duration": 6, "velocity": 100}, {"time": 774, "pitch": 74, "duration": 1, "velocity": 105}, {"time": 777, "pitch": 71, "duration": 3, "velocity": 84}, {"time": 777, "pitch": 74, "duration": 3, "velocity": 84}, {"time": 786, "pitch": 74, "duration": 4, "velocity": 92}, {"time": 786, "pitch": 77, "duration": 4, "velocity": 97}, {"time": 798, "pitch": 72, "duration": 14, "velocity": 82}, {"time": 798, "pitch": 76, "duration": 14, "velocity": 89}, {"time": 816, "pitch": 72, "duration": 6, "velocity": 84}, {"time": 816, "pitch": 76, "duration": 6, "velocity": 100}, {"time": 825, "pitch": 72, "duration": 3, "velocity": 76}, {"time": 825, "pitch": 76, "duration": 3, "velocity": 92}, {"time": 834, "pitch": 69, "duration": 4, "velocity": 87}, {"time": 834, "pitch": 74, "duration": 4, "velocity": 87}, {"time": 846, "pitch": 69, "duration": 4, "velocity": 94}, {"time": 846, "pitch": 74, "duration": 4, "velocity": 100}, {"time": 852, "pitch": 74, "duration": 9, "velocity": 102}, {"time": 864, "pitch": 71, "duration": 13, "velocity": 97}, {"time": 864, "pitch": 74, "duration": 12, "velocity": 105}, {"time": 864, "pitch": 79, "duration": 8, "velocity": 111}, {"time": 876, "pitch": 83, "duration": 9, "velocity": 102}, {"time": 882, "pitch": 71, "duration": 4, "velocity": 89}, {"time": 882, "pitch": 74, "duration": 4, "velocity": 89}, {"time": 888, "pitch": 86, "duration": 9, "velocity": 97}, {"time": 894, "pitch": 69, "duration": 16, "velocity": 89}, {"time": 894, "pitch": 72, "duration": 16, "velocity": 87}, {"time": 900, "pitch": 84, "duration": 9, "velocity": 105}, {"time": 912, "pitch": 69, "duration": 10, "velocity": 100}, {"time": 912, "pitch": 72, "duration": 11, "velocity": 94}, {"time": 912, "pitch": 83, "duration": 9, "velocity": 105}, {"time": 924, "pitch": 81, "duration": 9, "velocity": 111}, {"time": 930, "pitch": 69, "duration": 5, "velocity": 82}, {"time": 930, "pitch": 74, "duration": 5, "velocity": 82}, {"time": 936, "pitch": 79, "duration": 11, "velocity": 108}, {"time": 942, "pitch": 69, "duration": 6, "velocity": 87}, {"time": 942, "pitch": 74, "duration": 4, "velocity": 78}, {"time": 948, "pitch": 79, "duration": 47, "velocity": 111}, {"time": 960, "pitch": 71, "duration": 12, "velocity": 87}, {"time": 960, "pitch": 74, "duration": 11, "velocity": 87}, {"time": 978, "pitch": 71, "duration": 4, "velocity": 84}, {"time": 978, "pitch": 74, "duration": 4, "velocity": 80}, {"time": 990, "pitch": 69, "duration": 16, "velocity": 84}, {"time": 990, "pitch": 72, "duration": 16, "velocity": 82}, {"time": 1008, "pitch": 69, "duration": 8, "velocity": 84}, {"time": 1008, "pitch": 72, "duration": 8, "velocity": 92}, {"time": 1248, "pitch": 71, "duration": 6, "velocity": 84}, {"time": 1248, "pitch": 74, "duration": 6, "velocity": 92}, {"time": 1257, "pitch": 71, "duration": 4, "velocity": 78}, {"time": 1257, "pitch": 74, "duration": 4, "velocity": 71}, {"time": 1266, "pitch": 74, "duration": 3, "velocity": 84}, {"time": 1266, "pitch": 77, "duration": 3, "velocity": 84}, {"time": 1278, "pitch": 72, "duration": 14, "velocity": 76}, {"time": 1278, "pitch": 76, "duration": 14, "velocity": 82}, {"time": 1296, "pitch": 72, "duration": 6, "velocity": 84}, {"time": 1296, "pitch": 76, "duration": 6, "velocity": 82}, {"time": 1305, "pitch": 72, "duration": 3, "velocity": 80}, {"time": 1305, "pitch": 76, "duration": 3, "velocity": 73}, {"time": 1314, "pitch": 69, "duration": 4, "velocity": 94}, {"time": 1314, "pitch": 74, "duration": 4, "velocity": 82}, {"time": 1326, "pitch": 69, "duration": 6, "velocity": 94}, {"time": 1326, "pitch": 74, "duration": 6, "velocity": 80}, {"time": 1344, "pitch": 71, "duration": 6, "velocity": 80}, {"time": 1344, "pitch": 74, "duration": 6, "velocity": 89}, {"time": 1353, "pitch": 71, "duration": 4, "velocity": 71}, {"time": 1353, "pitch": 74, "duration": 4, "velocity": 82}, {"time": 1362, "pitch": 71, "duration": 3, "velocity": 87}, {"time": 1362, "pitch": 74, "duration": 3, "velocity": 87}, {"time": 1374, "pitch": 74, "duration": 3, "velocity": 97}, {"time": 1392, "pitch": 72, "duration": 7, "velocity": 87}, {"time": 1392, "pitch": 76, "duration": 7, "velocity": 97}, {"time": 1401, "pitch": 72, "duration": 3, "velocity": 78}, {"time": 1401, "pitch": 76, "duration": 2, "velocity": 76}, {"time": 1410, "pitch": 72, "duration": 3, "velocity": 78}, {"time": 1410, "pitch": 76, "duration": 3, "velocity": 87}, {"time": 1422, "pitch": 69, "duration": 5, "velocity": 80}, {"time": 1422, "pitch": 74, "duration": 5, "velocity": 66}, {"time": 1446, "pitch": 62, "duration": 3, "velocity": 48}, {"time": 1449, "pitch": 64, "duration": 3, "velocity": 67}, {"time": 1452, "pitch": 67, "duration": 3, "velocity": 82}, {"time": 1458, "pitch": 67, "duration": 3, "velocity": 108}, {"time": 1464, "pitch": 64, "duration": 3, "velocity": 87}, {"time": 1470, "pitch": 67, "duration": 3, "velocity": 92}, {"time": 1476, "pitch": 69, "duration": 6, "velocity": 84}, {"time": 1542, "pitch": 62, "duration": 4, "velocity": 82}, {"time": 1545, "pitch": 64, "duration": 3, "velocity": 82}, {"time": 1548, "pitch": 67, "duration": 3, "velocity": 80}, {"time": 1554, "pitch": 64, "duration": 3, "velocity": 97}, {"time": 1560, "pitch": 67, "duration": 3, "velocity": 67}, {"time": 1566, "pitch": 64, "duration": 3, "velocity": 87}, {"time": 1572, "pitch": 69, "duration": 13, "velocity": 92}, {"time": 1632, "pitch": 71, "duration": 6, "velocity": 84}, {"time": 1632, "pitch": 74, "duration": 6, "velocity": 92}, {"time": 1641, "pitch": 71, "duration": 4, "velocity": 78}, {"time": 1641, "pitch": 74, "duration": 4, "velocity": 71}, {"time": 1650, "pitch": 74, "duration": 3, "velocity": 84}, {"time": 1650, "pitch": 77, "duration": 3, "velocity": 84}, {"time": 1662, "pitch": 72, "duration": 14, "velocity": 76}, {"time": 1662, "pitch": 76, "duration": 14, "velocity": 82}, {"time": 1680, "pitch": 72, "duration": 6, "velocity": 84}, {"time": 1680, "pitch": 76, "duration": 6, "velocity": 82}, {"time": 1689, "pitch": 72, "duration": 3, "velocity": 80}, {"time": 1689, "pitch": 76, "duration": 3, "velocity": 73}, {"time": 1698, "pitch": 69, "duration": 4, "velocity": 94}, {"time": 1698, "pitch": 74, "duration": 4, "velocity": 82}, {"time": 1710, "pitch": 69, "duration": 6, "velocity": 94}, {"time": 1710, "pitch": 74, "duration": 6, "velocity": 80}, {"time": 1728, "pitch": 71, "duration": 6, "velocity": 80}, {"time": 1728, "pitch": 74, "duration": 6, "velocity": 89}, {"time": 1737, "pitch": 71, "duration": 4, "velocity": 71}, {"time": 1737, "pitch": 74, "duration": 4, "velocity": 82}, {"time": 1746, "pitch": 71, "duration": 3, "velocity": 87}, {"time": 1746, "pitch": 74, "duration": 3, "velocity": 87}, {"time": 1758, "pitch": 74, "duration": 3, "velocity": 97}, {"time": 1776, "pitch": 72, "duration": 7, "velocity": 87}, {"time": 1776, "pitch": 76, "duration": 7, "velocity": 97}, {"time": 1785, "pitch": 72, "duration": 3, "velocity": 78}, {"time": 1785, "pitch": 76, "duration": 2, "velocity": 76}, {"time": 1794, "pitch": 72, "duration": 3, "velocity": 78}, {"time": 1794, "pitch": 76, "duration": 3, "velocity": 87}, {"time": 1806, "pitch": 69, "duration": 5, "velocity": 80}, {"time": 1806, "pitch": 74, "duration": 5, "velocity": 66}, {"time": 1812, "pitch": 52, "duration": 4, "velocity": 82}, {"time": 1812, "pitch": 57, "duration": 3, "velocity": 100}, {"time": 1812, "pitch": 60, "duration": 4, "velocity": 100}, {"time": 1824, "pitch": 57, "duration": 3, "velocity": 89}, {"time": 1824, "pitch": 60, "duration": 3, "velocity": 92}, {"time": 1830, "pitch": 52, "duration": 3, "velocity": 94}, {"time": 1836, "pitch": 57, "duration": 3, "velocity": 92}, {"time": 1836, "pitch": 60, "duration": 3, "velocity": 92}, {"time": 1848, "pitch": 57, "duration": 3, "velocity": 89}, {"time": 1848, "pitch": 60, "duration": 3, "velocity": 89}, {"time": 1854, "pitch": 52, "duration": 2, "velocity": 62}, {"time": 1860, "pitch": 57, "duration": 3, "velocity": 94}, {"time": 1860, "pitch": 60, "duration": 3, "velocity": 92}, {"time": 1872, "pitch": 57, "duration": 4, "velocity": 94}, {"time": 1872, "pitch": 60, "duration": 6, "velocity": 94}, {"time": 1878, "pitch": 52, "duration": 3, "velocity": 89}, {"time": 1884, "pitch": 54, "duration": 3, "velocity": 99}, {"time": 1884, "pitch": 57, "duration": 3, "velocity": 92}, {"time": 1896, "pitch": 54, "duration": 3, "velocity": 102}, {"time": 1896, "pitch": 57, "duration": 4, "velocity": 92}, {"time": 1902, "pitch": 50, "duration": 3, "velocity": 94}, {"time": 1908, "pitch": 53, "duration": 4, "velocity": 97}, {"time": 1908, "pitch": 59, "duration": 4, "velocity": 92}, {"time": 1914, "pitch": 50, "duration": 2, "velocity": 71}, {"time": 1920, "pitch": 53, "duration": 3, "velocity": 92}, {"time": 1920, "pitch": 59, "duration": 3, "velocity": 92}, {"time": 1926, "pitch": 50, "duration": 2, "velocity": 82}, {"time": 1932, "pitch": 53, "duration": 3, "velocity": 94}, {"time": 1932, "pitch": 59, "duration": 3, "velocity": 84}, {"time": 1944, "pitch": 53, "duration": 3, "velocity": 92}, {"time": 1944, "pitch": 59, "duration": 3, "velocity": 100}, {"time": 1950, "pitch": 50, "duration": 3, "velocity": 94}, {"time": 1956, "pitch": 53, "duration": 3, "velocity": 92}, {"time": 1956, "pitch": 59, "duration": 3, "velocity": 92}, {"time": 1968, "pitch": 53, "duration": 3, "velocity": 94}, {"time": 1968, "pitch": 59, "duration": 3, "velocity": 100}, {"time": 1974, "pitch": 50, "duration": 3, "velocity": 89}, {"time": 1980, "pitch": 53, "duration": 3, "velocity": 100}, {"time": 1980, "pitch": 59, "duration": 3, "velocity": 94}, {"time": 1986, "pitch": 50, "duration": 2, "velocity": 89}, {"time": 1992, "pitch": 53, "duration": 3, "velocity": 102}, {"time": 1992, "pitch": 59, "duration": 3, "velocity": 100}, {"time": 1998, "pitch": 50, "duration": 2, "velocity": 105}, {"time": 1998, "pitch": 55, "duration": 1, "velocity": 58}, {"time": 1998, "pitch": 59, "duration": 1, "velocity": 42}, {"time": 2004, "pitch": 57, "duration": 3, "velocity": 102}, {"time": 2004, "pitch": 60, "duration": 3, "velocity": 100}, {"time": 2016, "pitch": 57, "duration": 2, "velocity": 100}, {"time": 2016, "pitch": 60, "duration": 3, "velocity": 102}, {"time": 2022, "pitch": 52, "duration": 3, "velocity": 92}, {"time": 2028, "pitch": 57, "duration": 2, "velocity": 100}, {"time": 2028, "pitch": 60, "duration": 3, "velocity": 102}, {"time": 2040, "pitch": 57, "duration": 2, "velocity": 97}, {"time": 2040, "pitch": 60, "duration": 3, "velocity": 105}, {"time": 2046, "pitch": 52, "duration": 2, "velocity": 80}, {"time": 2052, "pitch": 57, "duration": 3, "velocity": 94}, {"time": 2052, "pitch": 60, "duration": 3, "velocity": 92}, {"time": 2058, "pitch": 52, "duration": 2, "velocity": 21}, {"time": 2064, "pitch": 57, "duration": 3, "velocity": 100}, {"time": 2064, "pitch": 60, "duration": 3, "velocity": 97}, {"time": 2070, "pitch": 52, "duration": 2, "velocity": 73}, {"time": 2076, "pitch": 57, "duration": 3, "velocity": 92}, {"time": 2076, "pitch": 60, "duration": 3, "velocity": 87}, {"time": 2082, "pitch": 52, "duration": 3, "velocity": 76}, {"time": 2088, "pitch": 57, "duration": 3, "velocity": 97}, {"time": 2088, "pitch": 60, "duration": 3, "velocity": 100}, {"time": 2094, "pitch": 52, "duration": 3, "velocity": 92}, {"time": 2094, "pitch": 57, "duration": 2, "velocity": 73}, {"time": 2094, "pitch": 60, "duration": 1, "velocity": 53}, {"time": 2100, "pitch": 57, "duration": 3, "velocity": 87}, {"time": 2100, "pitch": 60, "duration": 3, "velocity": 94}, {"time": 2106, "pitch": 53, "duration": 3, "velocity": 94}, {"time": 2112, "pitch": 57, "duration": 2, "velocity": 100}, {"time": 2112, "pitch": 60, "duration": 3, "velocity": 97}, {"time": 2118, "pitch": 53, "duration": 2, "velocity": 94}, {"time": 2124, "pitch": 57, "duration": 2, "velocity": 100}, {"time": 2124, "pitch": 60, "duration": 3, "velocity": 102}, {"time": 2130, "pitch": 53, "duration": 2, "velocity": 80}, {"time": 2136, "pitch": 57, "duration": 3, "velocity": 105}, {"time": 2136, "pitch": 60, "duration": 3, "velocity": 108}, {"time": 2142, "pitch": 53, "duration": 2, "velocity": 82}, {"time": 2148, "pitch": 50, "duration": 3, "velocity": 80}, {"time": 2148, "pitch": 54, "duration": 3, "velocity": 96}, {"time": 2148, "pitch": 62, "duration": 3, "velocity": 89}, {"time": 2154, "pitch": 50, "duration": 2, "velocity": 80}, {"time": 2154, "pitch": 54, "duration": 3, "velocity": 96}, {"time": 2154, "pitch": 62, "duration": 3, "velocity": 97}, {"time": 2160, "pitch": 50, "duration": 3, "velocity": 84}, {"time": 2160, "pitch": 54, "duration": 3, "velocity": 96}, {"time": 2160, "pitch": 62, "duration": 3, "velocity": 94}, {"time": 2166, "pitch": 50, "duration": 7, "velocity": 92}, {"time": 2166, "pitch": 54, "duration": 7, "velocity": 99}, {"time": 2166, "pitch": 62, "duration": 7, "velocity": 97}, {"time": 2232, "pitch": 71, "duration": 8, "velocity": 105}, {"time": 2232, "pitch": 74, "duration": 8, "velocity": 97}, {"time": 2244, "pitch": 69, "duration": 9, "velocity": 89}, {"time": 2244, "pitch": 72, "duration": 9, "velocity": 92}, {"time": 2256, "pitch": 69, "duration": 8, "velocity": 89}, {"time": 2256, "pitch": 72, "duration": 9, "velocity": 89}, {"time": 2268, "pitch": 71, "duration": 4, "velocity": 94}, {"time": 2274, "pitch": 69, "duration": 4, "velocity": 102}, {"time": 2280, "pitch": 67, "duration": 9, "velocity": 84}, {"time": 2310, "pitch": 62, "duration": 4, "velocity": 82}, {"time": 2313, "pitch": 64, "duration": 3, "velocity": 82}, {"time": 2316, "pitch": 67, "duration": 3, "velocity": 80}, {"time": 2322, "pitch": 64, "duration": 3, "velocity": 97}, {"time": 2328, "pitch": 67, "duration": 3, "velocity": 67}, {"time": 2334, "pitch": 64, "duration": 3, "velocity": 87}, {"time": 2340, "pitch": 69, "duration": 13, "velocity": 92}, {"time": 2400, "pitch": 71, "duration": 6, "velocity": 84}, {"time": 2400, "pitch": 74, "duration": 6, "velocity": 92}, {"time": 2409, "pitch": 71, "duration": 4, "velocity": 78}, {"time": 2409, "pitch": 74, "duration": 4, "velocity": 71}, {"time": 2418, "pitch": 74, "duration": 3, "velocity": 84}, {"time": 2418, "pitch": 77, "duration": 3, "velocity": 84}, {"time": 2430, "pitch": 72, "duration": 14, "velocity": 76}, {"time": 2430, "pitch": 76, "duration": 14, "velocity": 82}, {"time": 2448, "pitch": 72, "duration": 6, "velocity": 84}, {"time": 2448, "pitch": 76, "duration": 6, "velocity": 82}, {"time": 2457, "pitch": 72, "duration": 3, "velocity": 80}, {"time": 2457, "pitch": 76, "duration": 3, "velocity": 73}, {"time": 2466, "pitch": 69, "duration": 4, "velocity": 94}, {"time": 2466, "pitch": 74, "duration": 4, "velocity": 82}, {"time": 2478, "pitch": 69, "duration": 6, "velocity": 94}, {"time": 2478, "pitch": 74, "duration": 6, "velocity": 80}, {"time": 2496, "pitch": 71, "duration": 6, "velocity": 80}, {"time": 2496, "pitch": 74, "duration": 6, "velocity": 89}, {"time": 2505, "pitch": 71, "duration": 4, "velocity": 71}, {"time": 2505, "pitch": 74, "duration": 4, "velocity": 82}, {"time": 2514, "pitch": 71, "duration": 3, "velocity": 87}, {"time": 2514, "pitch": 74, "duration": 3, "velocity": 87}, {"time": 2526, "pitch": 74, "duration": 3, "velocity": 97}, {"time": 2544, "pitch": 72, "duration": 7, "velocity": 87}, {"time": 2544, "pitch": 76, "duration": 7, "velocity": 97}, {"time": 2553, "pitch": 72, "duration": 3, "velocity": 78}, {"time": 2553, "pitch": 76, "duration": 2, "velocity": 76}, {"time": 2562, "pitch": 72, "duration": 3, "velocity": 78}, {"time": 2562, "pitch": 76, "duration": 3, "velocity": 87}, {"time": 2574, "pitch": 69, "duration": 5, "velocity": 80}, {"time": 2574, "pitch": 74, "duration": 5, "velocity": 66}, {"time": 2586, "pitch": 71, "duration": 3, "velocity": 114}, {"time": 2589, "pitch": 72, "duration": 3, "velocity": 114}, {"time": 2592, "pitch": 69, "duration": 3, "velocity": 114}, {"time": 2595, "pitch": 71, "duration": 3, "velocity": 114}, {"time": 2598, "pitch": 68, "duration": 3, "velocity": 114}, {"time": 2601, "pitch": 69, "duration": 3, "velocity": 114}, {"time": 2604, "pitch": 71, "duration": 3, "velocity": 114}, {"time": 2607, "pitch": 72, "duration": 3, "velocity": 114}, {"time": 2610, "pitch": 74, "duration": 3, "velocity": 114}, {"time": 2613, "pitch": 76, "duration": 3, "velocity": 114}, {"time": 2616, "pitch": 78, "duration": 3, "velocity": 114}, {"time": 2619, "pitch": 79, "duration": 3, "velocity": 114}, {"time": 2622, "pitch": 81, "duration": 3, "velocity": 114}, {"time": 2625, "pitch": 82, "duration": 3, "velocity": 114}, {"time": 2628, "pitch": 86, "duration": 12, "velocity": 114}, {"time": 2640, "pitch": 75, "duration": 3, "velocity": 114}, {"time": 2643, "pitch": 74, "duration": 3, "velocity": 114}, {"time": 2646, "pitch": 72, "duration": 3, "velocity": 114}, {"time": 2649, "pitch": 70, "duration": 3, "velocity": 114}, {"time": 2652, "pitch": 67, "duration": 3, "velocity": 114}, {"time": 2655, "pitch": 65, "duration": 3, "velocity": 114}, {"time": 2658, "pitch": 63, "duration": 3, "velocity": 114}, {"time": 2661, "pitch": 65, "duration": 3, "velocity": 114}, {"time": 2664, "pitch": 62, "duration": 6, "velocity": 114}, {"time": 2670, "pitch": 65, "duration": 6, "velocity": 114}, {"time": 2682, "pitch": 62, "duration": 3, "velocity": 114}, {"time": 2685, "pitch": 63, "duration": 3, "velocity": 114}, {"time": 2688, "pitch": 65, "duration": 3, "velocity": 114}, {"time": 2691, "pitch": 67, "duration": 3, "velocity": 114}, {"time": 2694, "pitch": 69, "duration": 3, "velocity": 114}, {"time": 2697, "pitch": 70, "duration": 3, "velocity": 114}, {"time": 2700, "pitch": 72, "duration": 3, "velocity": 114}, {"time": 2703, "pitch": 73, "duration": 3, "velocity": 114}, {"time": 2706, "pitch": 75, "duration": 3, "velocity": 114}, {"time": 2709, "pitch": 77, "duration": 3, "velocity": 114}, {"time": 2712, "pitch": 80, "duration": 3, "velocity": 114}, {"time": 2715, "pitch": 77, "duration": 3, "velocity": 114}, {"time": 2718, "pitch": 78, "duration": 6, "velocity": 114}, {"time": 2730, "pitch": 73, "duration": 3, "velocity": 114}, {"time": 2733, "pitch": 70, "duration": 3, "velocity": 114}, {"time": 2736, "pitch": 72, "duration": 6, "velocity": 114}, {"time": 2742, "pitch": 77, "duration": 3, "velocity": 114}, {"time": 2745, "pitch": 75, "duration": 3, "velocity": 114}, {"time": 2748, "pitch": 76, "duration": 6, "velocity": 114}, {"time": 2754, "pitch": 82, "duration": 3, "velocity": 114}, {"time": 2757, "pitch": 79, "duration": 3, "velocity": 114}, {"time": 2760, "pitch": 81, "duration": 3, "velocity": 114}, {"time": 2763, "pitch": 82, "duration": 3, "velocity": 114}, {"time": 2766, "pitch": 86, "duration": 6, "velocity": 114}, {"time": 2784, "pitch": 83, "duration": 6, "velocity": 114}, {"time": 2790, "pitch": 84, "duration": 6, "velocity": 114}, {"time": 2796, "pitch": 86, "duration": 6, "velocity": 114}, {"time": 2802, "pitch": 83, "duration": 6, "velocity": 114}, {"time": 2808, "pitch": 79, "duration": 6, "velocity": 114}, {"time": 2814, "pitch": 76, "duration": 12, "velocity": 114}, {"time": 2826, "pitch": 74, "duration": 6, "velocity": 114}, {"time": 2832, "pitch": 72, "duration": 3, "velocity": 114}, {"time": 2835, "pitch": 74, "duration": 3, "velocity": 114}, {"time": 2838, "pitch": 71, "duration": 3, "velocity": 114}, {"time": 2841, "pitch": 72, "duration": 3, "velocity": 114}, {"time": 2844, "pitch": 74, "duration": 3, "velocity": 114}, {"time": 2847, "pitch": 76, "duration": 3, "velocity": 114}, {"time": 2850, "pitch": 78, "duration": 3, "velocity": 114}, {"time": 2853, "pitch": 79, "duration": 3, "velocity": 114}, {"time": 2856, "pitch": 82, "duration": 6, "velocity": 114}, {"time": 2862, "pitch": 84, "duration": 6, "velocity": 114}, {"time": 2868, "pitch": 82, "duration": 3, "velocity": 114}, {"time": 2871, "pitch": 83, "duration": 3, "velocity": 114}, {"time": 2874, "pitch": 86, "duration": 6, "velocity": 114}, {"time": 2880, "pitch": 84, "duration": 3, "velocity": 114}, {"time": 2883, "pitch": 86, "duration": 3, "velocity": 114}, {"time": 2886, "pitch": 83, "duration": 6, "velocity": 114}, {"time": 2892, "pitch": 74, "duration": 6, "velocity": 114}, {"time": 2898, "pitch": 74, "duration": 6, "velocity": 114}, {"time": 2904, "pitch": 74, "duration": 3, "velocity": 114}, {"time": 2907, "pitch": 76, "duration": 3, "velocity": 114}, {"time": 2910, "pitch": 79, "duration": 6, "velocity": 114}, {"time": 2916, "pitch": 82, "duration": 3, "velocity": 114}, {"time": 2919, "pitch": 83, "duration": 3, "velocity": 114}, {"time": 2922, "pitch": 84, "duration": 3, "velocity": 114}, {"time": 2925, "pitch": 86, "duration": 3, "velocity": 114}, {"time": 2928, "pitch": 83, "duration": 6, "velocity": 114}, {"time": 2934, "pitch": 76, "duration": 3, "velocity": 114}, {"time": 2937, "pitch": 76, "duration": 3, "velocity": 114}, {"time": 2940, "pitch": 79, "duration": 6, "velocity": 114}, {"time": 2946, "pitch": 76, "duration": 3, "velocity": 114}, {"time": 2949, "pitch": 76, "duration": 3, "velocity": 114}, {"time": 2952, "pitch": 81, "duration": 3, "velocity": 114}, {"time": 2955, "pitch": 81, "duration": 3, "velocity": 114}, {"time": 2958, "pitch": 79, "duration": 12, "velocity": 114}, {"time": 2976, "pitch": 87, "duration": 3, "velocity": 114}, {"time": 2979, "pitch": 90, "duration": 3, "velocity": 114}, {"time": 2982, "pitch": 88, "duration": 6, "velocity": 114}, {"time": 2988, "pitch": 91, "duration": 6, "velocity": 114}, {"time": 2994, "pitch": 88, "duration": 6, "velocity": 114}, {"time": 3000, "pitch": 90, "duration": 6, "velocity": 114}, {"time": 3006, "pitch": 88, "duration": 6, "velocity": 114}, {"time": 3012, "pitch": 84, "duration": 3, "velocity": 114}, {"time": 3015, "pitch": 85, "duration": 3, "velocity": 114}, {"time": 3018, "pitch": 88, "duration": 6, "velocity": 114}, {"time": 3024, "pitch": 81, "duration": 3, "velocity": 114}, {"time": 3027, "pitch": 81, "duration": 3, "velocity": 114}, {"time": 3030, "pitch": 79, "duration": 6, "velocity": 114}, {"time": 3036, "pitch": 76, "duration": 6, "velocity": 114}, {"time": 3042, "pitch": 79, "duration": 6, "velocity": 114}, {"time": 3048, "pitch": 81, "duration": 9, "velocity": 114}, {"time": 3066, "pitch": 79, "duration": 3, "velocity": 114}, {"time": 3069, "pitch": 81, "duration": 3, "velocity": 114}, {"time": 3072, "pitch": 78, "duration": 6, "velocity": 114}, {"time": 3078, "pitch": 69, "duration": 6, "velocity": 114}, {"time": 3084, "pitch": 68, "duration": 6, "velocity": 114}, {"time": 3090, "pitch": 67, "duration": 6, "velocity": 114}, {"time": 3096, "pitch": 66, "duration": 12, "velocity": 114}, {"time": 3114, "pitch": 74, "duration": 6, "velocity": 114}, {"time": 3120, "pitch": 76, "duration": 6, "velocity": 114}, {"time": 3126, "pitch": 74, "duration": 3, "velocity": 114}, {"time": 3129, "pitch": 77, "duration": 3, "velocity": 114}, {"time": 3135, "pitch": 74, "duration": 3, "velocity": 114}, {"time": 3138, "pitch": 78, "duration": 18, "velocity": 114}, {"time": 3360, "pitch": 71, "duration": 6, "velocity": 84}, {"time": 3360, "pitch": 74, "duration": 6, "velocity": 92}, {"time": 3369, "pitch": 71, "duration": 4, "velocity": 78}, {"time": 3369, "pitch": 74, "duration": 4, "velocity": 71}, {"time": 3378, "pitch": 74, "duration": 3, "velocity": 84}, {"time": 3378, "pitch": 77, "duration": 3, "velocity": 84}, {"time": 3390, "pitch": 72, "duration": 14, "velocity": 76}, {"time": 3390, "pitch": 76, "duration": 14, "velocity": 82}, {"time": 3408, "pitch": 72, "duration": 6, "velocity": 84}, {"time": 3408, "pitch": 76, "duration": 6, "velocity": 82}, {"time": 3417, "pitch": 72, "duration": 3, "velocity": 80}, {"time": 3417, "pitch": 76, "duration": 3, "velocity": 73}, {"time": 3426, "pitch": 69, "duration": 4, "velocity": 94}, {"time": 3426, "pitch": 74, "duration": 4, "velocity": 82}, {"time": 3438, "pitch": 69, "duration": 6, "velocity": 94}, {"time": 3438, "pitch": 74, "duration": 6, "velocity": 80}, {"time": 3456, "pitch": 71, "duration": 6, "velocity": 80}, {"time": 3456, "pitch": 74, "duration": 6, "velocity": 89}, {"time": 3465, "pitch": 71, "duration": 4, "velocity": 71}, {"time": 3465, "pitch": 74, "duration": 4, "velocity": 82}, {"time": 3474, "pitch": 71, "duration": 3, "velocity": 87}, {"time": 3474, "pitch": 74, "duration": 3, "velocity": 87}, {"time": 3486, "pitch": 74, "duration": 3, "velocity": 97}, {"time": 3504, "pitch": 72, "duration": 7, "velocity": 87}, {"time": 3504, "pitch": 76, "duration": 7, "velocity": 97}, {"time": 3513, "pitch": 72, "duration": 3, "velocity": 78}, {"time": 3513, "pitch": 76, "duration": 2, "velocity": 76}, {"time": 3522, "pitch": 72, "duration": 3, "velocity": 78}, {"time": 3522, "pitch": 76, "duration": 3, "velocity": 87}, {"time": 3534, "pitch": 69, "duration": 5, "velocity": 80}, {"time": 3534, "pitch": 74, "duration": 5, "velocity": 66}, {"time": 3558, "pitch": 62, "duration": 3, "velocity": 48}, {"time": 3561, "pitch": 64, "duration": 3, "velocity": 67}, {"time": 3564, "pitch": 67, "duration": 3, "velocity": 82}, {"time": 3570, "pitch": 67, "duration": 3, "velocity": 108}, {"time": 3576, "pitch": 64, "duration": 3, "velocity": 87}, {"time": 3582, "pitch": 67, "duration": 3, "velocity": 92}, {"time": 3588, "pitch": 69, "duration": 6, "velocity": 84}, {"time": 3654, "pitch": 62, "duration": 4, "velocity": 82}, {"time": 3657, "pitch": 64, "duration": 3, "velocity": 82}, {"time": 3660, "pitch": 67, "duration": 3, "velocity": 80}, {"time": 3666, "pitch": 64, "duration": 3, "velocity": 97}, {"time": 3672, "pitch": 67, "duration": 3, "velocity": 67}, {"time": 3678, "pitch": 64, "duration": 3, "velocity": 87}, {"time": 3684, "pitch": 69, "duration": 13, "velocity": 92}, {"time": 3744, "pitch": 71, "duration": 6, "velocity": 84}, {"time": 3744, "pitch": 74, "duration": 6, "velocity": 92}, {"time": 3753, "pitch": 71, "duration": 4, "velocity": 78}, {"time": 3753, "pitch": 74, "duration": 4, "velocity": 71}, {"time": 3762, "pitch": 74, "duration": 3, "velocity": 84}, {"time": 3762, "pitch": 77, "duration": 3, "velocity": 84}, {"time": 3774, "pitch": 72, "duration": 14, "velocity": 76}, {"time": 3774, "pitch": 76, "duration": 14, "velocity": 82}, {"time": 3792, "pitch": 72, "duration": 6, "velocity": 84}, {"time": 3792, "pitch": 76, "duration": 6, "velocity": 82}, {"time": 3801, "pitch": 72, "duration": 3, "velocity": 80}, {"time": 3801, "pitch": 76, "duration": 3, "velocity": 73}, {"time": 3810, "pitch": 69, "duration": 4, "velocity": 94}, {"time": 3810, "pitch": 74, "duration": 4, "velocity": 82}, {"time": 3822, "pitch": 69, "duration": 6, "velocity": 94}, {"time": 3822, "pitch": 74, "duration": 6, "velocity": 80}, {"time": 3840, "pitch": 71, "duration": 6, "velocity": 80}, {"time": 3840, "pitch": 74, "duration": 6, "velocity": 89}, {"time": 3849, "pitch": 71, "duration": 4, "velocity": 71}, {"time": 3849, "pitch": 74, "duration": 4, "velocity": 82}, {"time": 3858, "pitch": 71, "duration": 3, "velocity": 87}, {"time": 3858, "pitch": 74, "duration": 3, "velocity": 87}, {"time": 3870, "pitch": 74, "duration": 3, "velocity": 97}, {"time": 3888, "pitch": 72, "duration": 7, "velocity": 87}, {"time": 3888, "pitch": 76, "duration": 7, "velocity": 97}, {"time": 3897, "pitch": 72, "duration": 3, "velocity": 78}, {"time": 3897, "pitch": 76, "duration": 2, "velocity": 76}, {"time": 3906, "pitch": 72, "duration": 3, "velocity": 78}, {"time": 3906, "pitch": 76, "duration": 3, "velocity": 87}, {"time": 3918, "pitch": 69, "duration": 5, "velocity": 80}, {"time": 3918, "pitch": 74, "duration": 5, "velocity": 66}, {"time": 3924, "pitch": 52, "duration": 4, "velocity": 82}, {"time": 3924, "pitch": 57, "duration": 3, "velocity": 100}, {"time": 3924, "pitch": 60, "duration": 4, "velocity": 100}, {"time": 3936, "pitch": 57, "duration": 3, "velocity": 89}, {"time": 3936, "pitch": 60, "duration": 3, "velocity": 92}, {"time": 3942, "pitch": 52, "duration": 3, "velocity": 94}, {"time": 3948, "pitch": 57, "duration": 3, "velocity": 92}, {"time": 3948, "pitch": 60, "duration": 3, "velocity": 92}, {"time": 3960, "pitch": 57, "duration": 3, "velocity": 89}, {"time": 3960, "pitch": 60, "duration": 3, "velocity": 89}, {"time": 3966, "pitch": 52, "duration": 2, "velocity": 62}, {"time": 3972, "pitch": 57, "duration": 3, "velocity": 94}, {"time": 3972, "pitch": 60, "duration": 3, "velocity": 92}, {"time": 3984, "pitch": 57, "duration": 4, "velocity": 94}, {"time": 3984, "pitch": 60, "duration": 6, "velocity": 94}, {"time": 3990, "pitch": 52, "duration": 3, "velocity": 89}, {"time": 3996, "pitch": 54, "duration": 3, "velocity": 99}, {"time": 3996, "pitch": 57, "duration": 3, "velocity": 92}, {"time": 4008, "pitch": 54, "duration": 3, "velocity": 102}, {"time": 4008, "pitch": 57, "duration": 4, "velocity": 92}, {"time": 4014, "pitch": 50, "duration": 3, "velocity": 94}, {"time": 4020, "pitch": 53, "duration": 4, "velocity": 97}, {"time": 4020, "pitch": 59, "duration": 4, "velocity": 92}, {"time": 4026, "pitch": 50, "duration": 2, "velocity": 71}, {"time": 4032, "pitch": 53, "duration": 3, "velocity": 92}, {"time": 4032, "pitch": 59, "duration": 3, "velocity": 92}, {"time": 4038, "pitch": 50, "duration": 2, "velocity": 82}, {"time": 4044, "pitch": 53, "duration": 3, "velocity": 94}, {"time": 4044, "pitch": 59, "duration": 3, "velocity": 84}, {"time": 4056, "pitch": 53, "duration": 3, "velocity": 92}, {"time": 4056, "pitch": 59, "duration": 3, "velocity": 100}, {"time": 4062, "pitch": 50, "duration": 3, "velocity": 94}, {"time": 4068, "pitch": 53, "duration": 3, "velocity": 92}, {"time": 4068, "pitch": 59, "duration": 3, "velocity": 92}, {"time": 4080, "pitch": 53, "duration": 3, "velocity": 94}, {"time": 4080, "pitch": 59, "duration": 3, "velocity": 100}, {"time": 4086, "pitch": 50, "duration": 3, "velocity": 89}, {"time": 4092, "pitch": 53, "duration": 3, "velocity": 100}, {"time": 4092, "pitch": 59, "duration": 3, "velocity": 94}, {"time": 4098, "pitch": 50, "duration": 2, "velocity": 89}, {"time": 4104, "pitch": 53, "duration": 3, "velocity": 102}, {"time": 4104, "pitch": 59, "duration": 3, "velocity": 100}, {"time": 4110, "pitch": 50, "duration": 2, "velocity": 105}, {"time": 4110, "pitch": 55, "duration": 1, "velocity": 58}, {"time": 4110, "pitch": 59, "duration": 1, "velocity": 42}, {"time": 4116, "pitch": 57, "duration": 3, "velocity": 102}, {"time": 4116, "pitch": 60, "duration": 3, "velocity": 100}, {"time": 4128, "pitch": 57, "duration": 2, "velocity": 100}, {"time": 4128, "pitch": 60, "duration": 3, "velocity": 102}, {"time": 4134, "pitch": 52, "duration": 3, "velocity": 92}, {"time": 4140, "pitch": 57, "duration": 2, "velocity": 100}, {"time": 4140, "pitch": 60, "duration": 3, "velocity": 102}, {"time": 4152, "pitch": 57, "duration": 2, "velocity": 97}, {"time": 4152, "pitch": 60, "duration": 3, "velocity": 105}, {"time": 4158, "pitch": 52, "duration": 2, "velocity": 80}, {"time": 4164, "pitch": 57, "duration": 3, "velocity": 94}, {"time": 4164, "pitch": 60, "duration": 3, "velocity": 92}, {"time": 4170, "pitch": 52, "duration": 2, "velocity": 21}, {"time": 4176, "pitch": 57, "duration": 3, "velocity": 100}, {"time": 4176, "pitch": 60, "duration": 3, "velocity": 97}, {"time": 4182, "pitch": 52, "duration": 2, "velocity": 73}, {"time": 4188, "pitch": 57, "duration": 3, "velocity": 92}, {"time": 4188, "pitch": 60, "duration": 3, "velocity": 87}, {"time": 4194, "pitch": 52, "duration": 3, "velocity": 76}, {"time": 4200, "pitch": 57, "duration": 3, "velocity": 97}, {"time": 4200, "pitch": 60, "duration": 3, "velocity": 100}, {"time": 4206, "pitch": 52, "duration": 3, "velocity": 92}, {"time": 4206, "pitch": 57, "duration": 2, "velocity": 73}, {"time": 4206, "pitch": 60, "duration": 1, "velocity": 53}, {"time": 4212, "pitch": 57, "duration": 3, "velocity": 87}, {"time": 4212, "pitch": 60, "duration": 3, "velocity": 94}, {"time": 4218, "pitch": 53, "duration": 3, "velocity": 94}, {"time": 4224, "pitch": 57, "duration": 2, "velocity": 100}, {"time": 4224, "pitch": 60, "duration": 3, "velocity": 97}, {"time": 4230, "pitch": 53, "duration": 2, "velocity": 94}, {"time": 4236, "pitch": 57, "duration": 2, "velocity": 100}, {"time": 4236, "pitch": 60, "duration": 3, "velocity": 102}, {"time": 4242, "pitch": 53, "duration": 2, "velocity": 80}, {"time": 4248, "pitch": 57, "duration": 3, "velocity": 105}, {"time": 4248, "pitch": 60, "duration": 3, "velocity": 108}, {"time": 4254, "pitch": 53, "duration": 2, "velocity": 82}, {"time": 4260, "pitch": 50, "duration": 3, "velocity": 80}, {"time": 4260, "pitch": 54, "duration": 3, "velocity": 96}, {"time": 4260, "pitch": 62, "duration": 3, "velocity": 89}, {"time": 4266, "pitch": 50, "duration": 2, "velocity": 80}, {"time": 4266, "pitch": 54, "duration": 3, "velocity": 96}, {"time": 4266, "pitch": 62, "duration": 3, "velocity": 97}, {"time": 4272, "pitch": 50, "duration": 3, "velocity": 84}, {"time": 4272, "pitch": 54, "duration": 3, "velocity": 96}, {"time": 4272, "pitch": 62, "duration": 3, "velocity": 94}, {"time": 4278, "pitch": 50, "duration": 7, "velocity": 92}, {"time": 4278, "pitch": 54, "duration": 7, "velocity": 99}, {"time": 4278, "pitch": 62, "duration": 7, "velocity": 97}, {"time": 4368, "pitch": 71, "duration": 8, "velocity": 105}, {"time": 4368, "pitch": 74, "duration": 8, "velocity": 97}, {"time": 4380, "pitch": 69, "duration": 9, "velocity": 89}, {"time": 4380, "pitch": 72, "duration": 9, "velocity": 92}, {"time": 4392, "pitch": 69, "duration": 8, "velocity": 89}, {"time": 4392, "pitch": 72, "duration": 9, "velocity": 89}, {"time": 4404, "pitch": 71, "duration": 4, "velocity": 94}, {"time": 4410, "pitch": 69, "duration": 4, "velocity": 102}, {"time": 4416, "pitch": 67, "duration": 9, "velocity": 84}, {"time": 4446, "pitch": 62, "duration": 4, "velocity": 82}, {"time": 4449, "pitch": 64, "duration": 3, "velocity": 82}, {"time": 4452, "pitch": 67, "duration": 3, "velocity": 80}, {"time": 4458, "pitch": 64, "duration": 3, "velocity": 97}, {"time": 4464, "pitch": 67, "duration": 3, "velocity": 67}, {"time": 4470, "pitch": 64, "duration": 3, "velocity": 87}, {"time": 4476, "pitch": 69, "duration": 13, "velocity": 92}, {"time": 4536, "pitch": 71, "duration": 6, "velocity": 84}, {"time": 4536, "pitch": 74, "duration": 6, "velocity": 92}, {"time": 4545, "pitch": 71, "duration": 4, "velocity": 78}, {"time": 4545, "pitch": 74, "duration": 4, "velocity": 71}, {"time": 4554, "pitch": 74, "duration": 3, "velocity": 84}, {"time": 4554, "pitch": 77, "duration": 3, "velocity": 84}, {"time": 4566, "pitch": 72, "duration": 14, "velocity": 76}, {"time": 4566, "pitch": 76, "duration": 14, "velocity": 82}, {"time": 4584, "pitch": 72, "duration": 6, "velocity": 84}, {"time": 4584, "pitch": 76, "duration": 6, "velocity": 82}, {"time": 4593, "pitch": 72, "duration": 3, "velocity": 80}, {"time": 4593, "pitch": 76, "duration": 3, "velocity": 73}, {"time": 4602, "pitch": 69, "duration": 4, "velocity": 94}, {"time": 4602, "pitch": 74, "duration": 4, "velocity": 82}, {"time": 4614, "pitch": 69, "duration": 6, "velocity": 94}, {"time": 4614, "pitch": 74, "duration": 6, "velocity": 80}, {"time": 4632, "pitch": 71, "duration": 6, "velocity": 80}, {"time": 4632, "pitch": 74, "duration": 6, "velocity": 89}, {"time": 4641, "pitch": 71, "duration": 4, "velocity": 71}, {"time": 4641, "pitch": 74, "duration": 4, "velocity": 82}, {"time": 4650, "pitch": 71, "duration": 3, "velocity": 87}, {"time": 4650, "pitch": 74, "duration": 3, "velocity": 87}, {"time": 4662, "pitch": 74, "duration": 3, "velocity": 97}, {"time": 4680, "pitch": 72, "duration": 7, "velocity": 87}, {"time": 4680, "pitch": 76, "duration": 7, "velocity": 97}, {"time": 4689, "pitch": 72, "duration": 3, "velocity": 78}, {"time": 4689, "pitch": 76, "duration": 2, "velocity": 76}, {"time": 4698, "pitch": 72, "duration": 3, "velocity": 78}, {"time": 4698, "pitch": 76, "duration": 3, "velocity": 87}, {"time": 4710, "pitch": 69, "duration": 5, "velocity": 80}, {"time": 4710, "pitch": 74, "duration": 5, "velocity": 66}, {"time": 4752, "pitch": 71, "duration": 8, "velocity": 105}, {"time": 4752, "pitch": 74, "duration": 8, "velocity": 97}, {"time": 4764, "pitch": 69, "duration": 9, "velocity": 89}, {"time": 4764, "pitch": 72, "duration": 9, "velocity": 92}, {"time": 4776, "pitch": 69, "duration": 8, "velocity": 89}, {"time": 4776, "pitch": 72, "duration": 9, "velocity": 89}, {"time": 4788, "pitch": 71, "duration": 4, "velocity": 94}, {"time": 4794, "pitch": 69, "duration": 4, "velocity": 102}, {"time": 4800, "pitch": 67, "duration": 9, "velocity": 84}, {"time": 4830, "pitch": 62, "duration": 4, "velocity": 82}, {"time": 4833, "pitch": 64, "duration": 3, "velocity": 82}, {"time": 4836, "pitch": 67, "duration": 3, "velocity": 80}, {"time": 4842, "pitch": 64, "duration": 3, "velocity": 97}, {"time": 4848, "pitch": 67, "duration": 3, "velocity": 67}, {"time": 4854, "pitch": 64, "duration": 3, "velocity": 87}, {"time": 4860, "pitch": 69, "duration": 13, "velocity": 92}, {"time": 4920, "pitch": 71, "duration": 6, "velocity": 84}, {"time": 4920, "pitch": 74, "duration": 6, "velocity": 92}, {"time": 4929, "pitch": 71, "duration": 4, "velocity": 78}, {"time": 4929, "pitch": 74, "duration": 4, "velocity": 71}, {"time": 4938, "pitch": 74, "duration": 3, "velocity": 84}, {"time": 4938, "pitch": 77, "duration": 3, "velocity": 84}, {"time": 4950, "pitch": 72, "duration": 14, "velocity": 76}, {"time": 4950, "pitch": 76, "duration": 14, "velocity": 82}, {"time": 4968, "pitch": 72, "duration": 6, "velocity": 84}, {"time": 4968, "pitch": 76, "duration": 6, "velocity": 82}, {"time": 4977, "pitch": 72, "duration": 3, "velocity": 80}, {"time": 4977, "pitch": 76, "duration": 3, "velocity": 73}, {"time": 4986, "pitch": 69, "duration": 4, "velocity": 94}, {"time": 4986, "pitch": 74, "duration": 4, "velocity": 82}, {"time": 4998, "pitch": 69, "duration": 6, "velocity": 94}, {"time": 4998, "pitch": 74, "duration": 6, "velocity": 80}, {"time": 5016, "pitch": 71, "duration": 6, "velocity": 80}, {"time": 5016, "pitch": 74, "duration": 6, "velocity": 89}, {"time": 5025, "pitch": 71, "duration": 4, "velocity": 71}, {"time": 5025, "pitch": 74, "duration": 4, "velocity": 82}, {"time": 5034, "pitch": 71, "duration": 3, "velocity": 87}, {"time": 5034, "pitch": 74, "duration": 3, "velocity": 87}, {"time": 5046, "pitch": 74, "duration": 3, "velocity": 97}, {"time": 5064, "pitch": 72, "duration": 7, "velocity": 87}, {"time": 5064, "pitch": 76, "duration": 7, "velocity": 97}, {"time": 5073, "pitch": 72, "duration": 3, "velocity": 78}, {"time": 5073, "pitch": 76, "duration": 2, "velocity": 76}, {"time": 5082, "pitch": 72, "duration": 3, "velocity": 78}, {"time": 5082, "pitch": 76, "duration": 3, "velocity": 87}, {"time": 5094, "pitch": 69, "duration": 5, "velocity": 80}, {"time": 5094, "pitch": 74, "duration": 5, "velocity": 66}, {"time": 5209, "pitch": 69, "duration": 4, "velocity": 69}, {"time": 5211, "pitch": 70, "duration": 2, "velocity": 68}, {"time": 5213, "pitch": 71, "duration": 4, "velocity": 97}, {"time": 5220, "pitch": 74, "duration": 3, "velocity": 102}, {"time": 5223, "pitch": 79, "duration": 4, "velocity": 111}, {"time": 5230, "pitch": 76, "duration": 24, "velocity": 102}, {"time": 5255, "pitch": 74, "duration": 12, "velocity": 94}, {"time": 5267, "pitch": 72, "duration": 9, "velocity": 55}, {"time": 5277, "pitch": 71, "duration": 20, "velocity": 73}]}, {"program": 0, "is_drum": false, "name": "PIANO", "notes": [{"time": 18, "pitch": 38, "duration": 7, "velocity": 89}, {"time": 18, "pitch": 50, "duration": 7, "velocity": 82}, {"time": 24, "pitch": 40, "duration": 6, "velocity": 92}, {"time": 24, "pitch": 52, "duration": 6, "velocity": 87}, {"time": 30, "pitch": 42, "duration": 4, "velocity": 99}, {"time": 30, "pitch": 54, "duration": 5, "velocity": 96}, {"time": 36, "pitch": 43, "duration": 18, "velocity": 84}, {"time": 36, "pitch": 50, "duration": 23, "velocity": 77}, {"time": 36, "pitch": 59, "duration": 10, "velocity": 84}, {"time": 36, "pitch": 62, "duration": 10, "velocity": 89}, {"time": 48, "pitch": 59, "duration": 8, "velocity": 89}, {"time": 48, "pitch": 62, "duration": 8, "velocity": 89}, {"time": 57, "pitch": 62, "duration": 8, "velocity": 89}, {"time": 60, "pitch": 40, "duration": 16, "velocity": 92}, {"time": 60, "pitch": 59, "duration": 6, "velocity": 89}, {"time": 66, "pitch": 59, "duration": 4, "velocity": 89}, {"time": 66, "pitch": 62, "duration": 4, "velocity": 88}, {"time": 78, "pitch": 60, "duration": 16, "velocity": 89}, {"time": 78, "pitch": 64, "duration": 16, "velocity": 90}, {"time": 84, "pitch": 45, "duration": 16, "velocity": 89}, {"time": 84, "pitch": 52, "duration": 23, "velocity": 77}, {"time": 96, "pitch": 60, "duration": 7, "velocity": 90}, {"time": 96, "pitch": 64, "duration": 6, "velocity": 99}, {"time": 105, "pitch": 60, "duration": 3, "velocity": 89}, {"time": 105, "pitch": 64, "duration": 3, "velocity": 93}, {"time": 108, "pitch": 38, "duration": 18, "velocity": 90}, {"time": 108, "pitch": 50, "duration": 18, "velocity": 90}, {"time": 114, "pitch": 57, "duration": 6, "velocity": 89}, {"time": 114, "pitch": 62, "duration": 7, "velocity": 83}, {"time": 126, "pitch": 57, "duration": 6, "velocity": 89}, {"time": 126, "pitch": 62, "duration": 6, "velocity": 89}, {"time": 132, "pitch": 43, "duration": 18, "velocity": 84}, {"time": 132, "pitch": 50, "duration": 23, "velocity": 77}, {"time": 132, "pitch": 59, "duration": 10, "velocity": 84}, {"time": 132, "pitch": 62, "duration": 10, "velocity": 89}, {"time": 144, "pitch": 59, "duration": 8, "velocity": 89}, {"time": 144, "pitch": 62, "duration": 8, "velocity": 89}, {"time": 153, "pitch": 62, "duration": 8, "velocity": 89}, {"time": 156, "pitch": 40, "duration": 16, "velocity": 92}, {"time": 162, "pitch": 59, "duration": 4, "velocity": 89}, {"time": 162, "pitch": 62, "duration": 4, "velocity": 88}, {"time": 174, "pitch": 60, "duration": 16, "velocity": 89}, {"time": 174, "pitch": 64, "duration": 16, "velocity": 90}, {"time": 180, "pitch": 45, "duration": 16, "velocity": 89}, {"time": 180, "pitch": 52, "duration": 23, "velocity": 77}, {"time": 192, "pitch": 60, "duration": 7, "velocity": 90}, {"time": 192, "pitch": 64, "duration": 6, "velocity": 99}, {"time": 201, "pitch": 60, "duration": 3, "velocity": 89}, {"time": 201, "pitch": 64, "duration": 3, "velocity": 93}, {"time": 204, "pitch": 38, "duration": 12, "velocity": 90}, {"time": 204, "pitch": 50, "duration": 9, "velocity": 90}, {"time": 210, "pitch": 57, "duration": 11, "velocity": 89}, {"time": 210, "pitch": 62, "duration": 12, "velocity": 83}, {"time": 225, "pitch": 38, "duration": 51, "velocity": 92}, {"time": 227, "pitch": 50, "duration": 48, "velocity": 73}, {"time": 228, "pitch": 54, "duration": 47, "velocity": 72}, {"time": 229, "pitch": 57, "duration": 47, "velocity": 97}, {"time": 276, "pitch": 43, "duration": 18, "velocity": 84}, {"time": 276, "pitch": 50, "duration": 23, "velocity": 77}, {"time": 276, "pitch": 59, "duration": 10, "velocity": 84}, {"time": 276, "pitch": 62, "duration": 10, "velocity": 89}, {"time": 288, "pitch": 59, "duration": 8, "velocity": 89}, {"time": 288, "pitch": 62, "duration": 8, "velocity": 89}, {"time": 297, "pitch": 62, "duration": 8, "velocity": 89}, {"time": 300, "pitch": 40, "duration": 16, "velocity": 92}, {"time": 300, "pitch": 59, "duration": 6, "velocity": 89}, {"time": 306, "pitch": 59, "duration": 4, "velocity": 89}, {"time": 306, "pitch": 62, "duration": 4, "velocity": 88}, {"time": 318, "pitch": 60, "duration": 16, "velocity": 89}, {"time": 318, "pitch": 64, "duration": 16, "velocity": 90}, {"time": 324, "pitch": 45, "duration": 16, "velocity": 89}, {"time": 324, "pitch": 52, "duration": 23, "velocity": 77}, {"time": 336, "pitch": 60, "duration": 7, "velocity": 90}, {"time": 336, "pitch": 64, "duration": 6, "velocity": 99}, {"time": 345, "pitch": 60, "duration": 3, "velocity": 89}, {"time": 345, "pitch": 64, "duration": 3, "velocity": 93}, {"time": 348, "pitch": 38, "duration": 18, "velocity": 90}, {"time": 348, "pitch": 50, "duration": 18, "velocity": 90}, {"time": 354, "pitch": 57, "duration": 6, "velocity": 89}, {"time": 354, "pitch": 62, "duration": 7, "velocity": 83}, {"time": 366, "pitch": 57, "duration": 6, "velocity": 89}, {"time": 366, "pitch": 62, "duration": 6, "velocity": 89}, {"time": 372, "pitch": 43, "duration": 18, "velocity": 84}, {"time": 372, "pitch": 50, "duration": 23, "velocity": 77}, {"time": 372, "pitch": 59, "duration": 10, "velocity": 84}, {"time": 372, "pitch": 62, "duration": 10, "velocity": 89}, {"time": 384, "pitch": 59, "duration": 8, "velocity": 89}, {"time": 384, "pitch": 62, "duration": 8, "velocity": 89}, {"time": 393, "pitch": 62, "duration": 8, "velocity": 89}, {"time": 396, "pitch": 40, "duration": 16, "velocity": 92}, {"time": 402, "pitch": 59, "duration": 4, "velocity": 89}, {"time": 402, "pitch": 62, "duration": 4, "velocity": 88}, {"time": 414, "pitch": 60, "duration": 16, "velocity": 89}, {"time": 414, "pitch": 64, "duration": 16, "velocity": 90}, {"time": 420, "pitch": 45, "duration": 16, "velocity": 89}, {"time": 420, "pitch": 52, "duration": 23, "velocity": 77}, {"time": 432, "pitch": 60, "duration": 7, "velocity": 90}, {"time": 432, "pitch": 64, "duration": 6, "velocity": 99}, {"time": 441, "pitch": 60, "duration": 3, "velocity": 89}, {"time": 441, "pitch": 64, "duration": 3, "velocity": 93}, {"time": 444, "pitch": 38, "duration": 6, "velocity": 90}, {"time": 444, "pitch": 50, "duration": 9, "velocity": 90}, {"time": 450, "pitch": 38, "duration": 5, "velocity": 79}, {"time": 450, "pitch": 57, "duration": 6, "velocity": 89}, {"time": 450, "pitch": 62, "duration": 7, "velocity": 83}, {"time": 456, "pitch": 40, "duration": 3, "velocity": 77}, {"time": 462, "pitch": 42, "duration": 5, "velocity": 75}, {"time": 462, "pitch": 57, "duration": 6, "velocity": 89}, {"time": 462, "pitch": 62, "duration": 6, "velocity": 89}, {"time": 468, "pitch": 43, "duration": 18, "velocity": 84}, {"time": 468, "pitch": 50, "duration": 23, "velocity": 77}, {"time": 468, "pitch": 59, "duration": 10, "velocity": 84}, {"time": 468, "pitch": 62, "duration": 10, "velocity": 89}, {"time": 480, "pitch": 59, "duration": 8, "velocity": 89}, {"time": 480, "pitch": 62, "duration": 8, "velocity": 89}, {"time": 489, "pitch": 62, "duration": 8, "velocity": 89}, {"time": 492, "pitch": 40, "duration": 16, "velocity": 92}, {"time": 492, "pitch": 59, "duration": 6, "velocity": 89}, {"time": 498, "pitch": 59, "duration": 4, "velocity": 89}, {"time": 498, "pitch": 62, "duration": 4, "velocity": 88}, {"time": 510, "pitch": 60, "duration": 16, "velocity": 89}, {"time": 510, "pitch": 64, "duration": 16, "velocity": 90}, {"time": 516, "pitch": 45, "duration": 16, "velocity": 89}, {"time": 516, "pitch": 52, "duration": 23, "velocity": 77}, {"time": 528, "pitch": 60, "duration": 7, "velocity": 90}, {"time": 528, "pitch": 64, "duration": 6, "velocity": 99}, {"time": 537, "pitch": 60, "duration": 3, "velocity": 89}, {"time": 537, "pitch": 64, "duration": 3, "velocity": 93}, {"time": 540, "pitch": 38, "duration": 18, "velocity": 90}, {"time": 540, "pitch": 50, "duration": 18, "velocity": 90}, {"time": 546, "pitch": 57, "duration": 6, "velocity": 89}, {"time": 546, "pitch": 62, "duration": 7, "velocity": 83}, {"time": 558, "pitch": 57, "duration": 6, "velocity": 89}, {"time": 558, "pitch": 62, "duration": 6, "velocity": 89}, {"time": 564, "pitch": 43, "duration": 18, "velocity": 84}, {"time": 564, "pitch": 50, "duration": 23, "velocity": 77}, {"time": 564, "pitch": 59, "duration": 10, "velocity": 84}, {"time": 564, "pitch": 62, "duration": 10, "velocity": 89}, {"time": 576, "pitch": 59, "duration": 8, "velocity": 89}, {"time": 576, "pitch": 62, "duration": 8, "velocity": 89}, {"time": 585, "pitch": 62, "duration": 8, "velocity": 89}, {"time": 588, "pitch": 40, "duration": 16, "velocity": 92}, {"time": 594, "pitch": 59, "duration": 4, "velocity": 89}, {"time": 594, "pitch": 62, "duration": 4, "velocity": 88}, {"time": 606, "pitch": 60, "duration": 16, "velocity": 89}, {"time": 606, "pitch": 64, "duration": 16, "velocity": 90}, {"time": 612, "pitch": 45, "duration": 16, "velocity": 89}, {"time": 612, "pitch": 52, "duration": 23, "velocity": 77}, {"time": 624, "pitch": 60, "duration": 7, "velocity": 90}, {"time": 624, "pitch": 64, "duration": 6, "velocity": 99}, {"time": 633, "pitch": 60, "duration": 3, "velocity": 89}, {"time": 633, "pitch": 64, "duration": 3, "velocity": 93}, {"time": 636, "pitch": 38, "duration": 6, "velocity": 90}, {"time": 636, "pitch": 50, "duration": 9, "velocity": 90}, {"time": 642, "pitch": 38, "duration": 5, "velocity": 79}, {"time": 642, "pitch": 57, "duration": 6, "velocity": 89}, {"time": 642, "pitch": 62, "duration": 7, "velocity": 83}, {"time": 648, "pitch": 40, "duration": 3, "velocity": 77}, {"time": 654, "pitch": 42, "duration": 5, "velocity": 75}, {"time": 654, "pitch": 57, "duration": 6, "velocity": 89}, {"time": 654, "pitch": 62, "duration": 6, "velocity": 89}, {"time": 660, "pitch": 43, "duration": 18, "velocity": 84}, {"time": 660, "pitch": 50, "duration": 23, "velocity": 77}, {"time": 660, "pitch": 59, "duration": 10, "velocity": 84}, {"time": 660, "pitch": 62, "duration": 10, "velocity": 89}, {"time": 672, "pitch": 59, "duration": 8, "velocity": 89}, {"time": 672, "pitch": 62, "duration": 8, "velocity": 89}, {"time": 681, "pitch": 62, "duration": 8, "velocity": 89}, {"time": 684, "pitch": 40, "duration": 16, "velocity": 92}, {"time": 684, "pitch": 59, "duration": 6, "velocity": 89}, {"time": 690, "pitch": 59, "duration": 4, "velocity": 89}, {"time": 690, "pitch": 62, "duration": 4, "velocity": 88}, {"time": 702, "pitch": 60, "duration": 16, "velocity": 89}, {"time": 702, "pitch": 64, "duration": 16, "velocity": 90}, {"time": 708, "pitch": 45, "duration": 16, "velocity": 89}, {"time": 708, "pitch": 52, "duration": 23, "velocity": 77}, {"time": 720, "pitch": 60, "duration": 7, "velocity": 90}, {"time": 720, "pitch": 64, "duration": 6, "velocity": 99}, {"time": 729, "pitch": 60, "duration": 3, "velocity": 89}, {"time": 729, "pitch": 64, "duration": 3, "velocity": 93}, {"time": 732, "pitch": 38, "duration": 18, "velocity": 90}, {"time": 732, "pitch": 50, "duration": 18, "velocity": 90}, {"time": 738, "pitch": 57, "duration": 6, "velocity": 89}, {"time": 738, "pitch": 62, "duration": 7, "velocity": 83}, {"time": 750, "pitch": 57, "duration": 6, "velocity": 89}, {"time": 750, "pitch": 62, "duration": 6, "velocity": 89}, {"time": 756, "pitch": 43, "duration": 18, "velocity": 84}, {"time": 756, "pitch": 50, "duration": 23, "velocity": 77}, {"time": 756, "pitch": 59, "duration": 10, "velocity": 84}, {"time": 756, "pitch": 62, "duration": 10, "velocity": 89}, {"time": 768, "pitch": 59, "duration": 8, "velocity": 89}, {"time": 768, "pitch": 62, "duration": 8, "velocity": 89}, {"time": 777, "pitch": 62, "duration": 8, "velocity": 89}, {"time": 780, "pitch": 40, "duration": 16, "velocity": 92}, {"time": 786, "pitch": 59, "duration": 4, "velocity": 89}, {"time": 786, "pitch": 62, "duration": 4, "velocity": 88}, {"time": 798, "pitch": 60, "duration": 16, "velocity": 89}, {"time": 798, "pitch": 64, "duration": 16, "velocity": 90}, {"time": 804, "pitch": 45, "duration": 16, "velocity": 89}, {"time": 804, "pitch": 52, "duration": 23, "velocity": 77}, {"time": 816, "pitch": 60, "duration": 7, "velocity": 90}, {"time": 816, "pitch": 64, "duration": 6, "velocity": 99}, {"time": 825, "pitch": 60, "duration": 3, "velocity": 89}, {"time": 825, "pitch": 64, "duration": 3, "velocity": 93}, {"time": 828, "pitch": 38, "duration": 6, "velocity": 90}, {"time": 828, "pitch": 50, "duration": 9, "velocity": 90}, {"time": 834, "pitch": 38, "duration": 5, "velocity": 79}, {"time": 834, "pitch": 57, "duration": 6, "velocity": 89}, {"time": 834, "pitch": 62, "duration": 7, "velocity": 83}, {"time": 840, "pitch": 40, "duration": 3, "velocity": 77}, {"time": 846, "pitch": 42, "duration": 5, "velocity": 75}, {"time": 846, "pitch": 57, "duration": 6, "velocity": 89}, {"time": 846, "pitch": 62, "duration": 6, "velocity": 89}, {"time": 852, "pitch": 43, "duration": 18, "velocity": 84}, {"time": 852, "pitch": 50, "duration": 23, "velocity": 77}, {"time": 852, "pitch": 59, "duration": 10, "velocity": 84}, {"time": 852, "pitch": 62, "duration": 10, "velocity": 89}, {"time": 864, "pitch": 59, "duration": 8, "velocity": 89}, {"time": 864, "pitch": 62, "duration": 8, "velocity": 89}, {"time": 873, "pitch": 62, "duration": 8, "velocity": 89}, {"time": 876, "pitch": 40, "duration": 16, "velocity": 92}, {"time": 876, "pitch": 59, "duration": 6, "velocity": 89}, {"time": 882, "pitch": 59, "duration": 4, "velocity": 89}, {"time": 882, "pitch": 62, "duration": 4, "velocity": 88}, {"time": 894, "pitch": 60, "duration": 16, "velocity": 89}, {"time": 894, "pitch": 64, "duration": 16, "velocity": 90}, {"time": 900, "pitch": 45, "duration": 16, "velocity": 89}, {"time": 900, "pitch": 52, "duration": 23, "velocity": 77}, {"time": 912, "pitch": 60, "duration": 7, "velocity": 90}, {"time": 912, "pitch": 64, "duration": 6, "velocity": 99}, {"time": 921, "pitch": 60, "duration": 3, "velocity": 89}, {"time": 921, "pitch": 64, "duration": 3, "velocity": 93}, {"time": 924, "pitch": 38, "duration": 18, "velocity": 90}, {"time": 924, "pitch": 50, "duration": 18, "velocity": 90}, {"time": 930, "pitch": 57, "duration": 6, "velocity": 89}, {"time": 930, "pitch": 62, "duration": 7, "velocity": 83}, {"time": 942, "pitch": 57, "duration": 6, "velocity": 89}, {"time": 942, "pitch": 62, "duration": 6, "velocity": 89}, {"time": 948, "pitch": 43, "duration": 18, "velocity": 84}, {"time": 948, "pitch": 50, "duration": 23, "velocity": 77}, {"time": 948, "pitch": 59, "duration": 10, "velocity": 84}, {"time": 948, "pitch": 62, "duration": 10, "velocity": 89}, {"time": 960, "pitch": 59, "duration": 8, "velocity": 89}, {"time": 960, "pitch": 62, "duration": 8, "velocity": 89}, {"time": 969, "pitch": 62, "duration": 8, "velocity": 89}, {"time": 972, "pitch": 40, "duration": 16, "velocity": 92}, {"time": 978, "pitch": 59, "duration": 4, "velocity": 89}, {"time": 978, "pitch": 62, "duration": 4, "velocity": 88}, {"time": 990, "pitch": 60, "duration": 16, "velocity": 89}, {"time": 990, "pitch": 64, "duration": 16, "velocity": 90}, {"time": 996, "pitch": 45, "duration": 16, "velocity": 89}, {"time": 996, "pitch": 52, "duration": 23, "velocity": 77}, {"time": 1008, "pitch": 60, "duration": 7, "velocity": 90}, {"time": 1008, "pitch": 64, "duration": 6, "velocity": 99}, {"time": 1017, "pitch": 60, "duration": 3, "velocity": 89}, {"time": 1017, "pitch": 64, "duration": 3, "velocity": 93}, {"time": 1020, "pitch": 38, "duration": 6, "velocity": 90}, {"time": 1020, "pitch": 50, "duration": 9, "velocity": 90}, {"time": 1026, "pitch": 38, "duration": 5, "velocity": 79}, {"time": 1026, "pitch": 57, "duration": 6, "velocity": 89}, {"time": 1026, "pitch": 62, "duration": 7, "velocity": 83}, {"time": 1032, "pitch": 40, "duration": 3, "velocity": 77}, {"time": 1038, "pitch": 42, "duration": 5, "velocity": 75}, {"time": 1038, "pitch": 57, "duration": 6, "velocity": 89}, {"time": 1038, "pitch": 62, "duration": 6, "velocity": 89}, {"time": 1044, "pitch": 43, "duration": 22, "velocity": 73}, {"time": 1056, "pitch": 50, "duration": 10, "velocity": 87}, {"time": 1056, "pitch": 55, "duration": 11, "velocity": 94}, {"time": 1056, "pitch": 59, "duration": 12, "velocity": 97}, {"time": 1068, "pitch": 40, "duration": 25, "velocity": 78}, {"time": 1074, "pitch": 52, "duration": 4, "velocity": 82}, {"time": 1074, "pitch": 55, "duration": 4, "velocity": 94}, {"time": 1074, "pitch": 59, "duration": 4, "velocity": 89}, {"time": 1086, "pitch": 52, "duration": 7, "velocity": 57}, {"time": 1086, "pitch": 55, "duration": 7, "velocity": 50}, {"time": 1086, "pitch": 59, "duration": 7, "velocity": 78}, {"time": 1092, "pitch": 45, "duration": 20, "velocity": 89}, {"time": 1104, "pitch": 52, "duration": 12, "velocity": 89}, {"time": 1104, "pitch": 57, "duration": 11, "velocity": 94}, {"time": 1104, "pitch": 60, "duration": 16, "velocity": 100}, {"time": 1116, "pitch": 38, "duration": 19, "velocity": 78}, {"time": 1122, "pitch": 50, "duration": 3, "velocity": 71}, {"time": 1122, "pitch": 54, "duration": 4, "velocity": 65}, {"time": 1122, "pitch": 57, "duration": 4, "velocity": 94}, {"time": 1134, "pitch": 50, "duration": 8, "velocity": 73}, {"time": 1134, "pitch": 54, "duration": 7, "velocity": 74}, {"time": 1134, "pitch": 57, "duration": 7, "velocity": 80}, {"time": 1140, "pitch": 43, "duration": 21, "velocity": 73}, {"time": 1152, "pitch": 50, "duration": 12, "velocity": 76}, {"time": 1152, "pitch": 55, "duration": 13, "velocity": 89}, {"time": 1152, "pitch": 59, "duration": 13, "velocity": 92}, {"time": 1164, "pitch": 40, "duration": 20, "velocity": 58}, {"time": 1170, "pitch": 52, "duration": 3, "velocity": 73}, {"time": 1170, "pitch": 55, "duration": 3, "velocity": 84}, {"time": 1170, "pitch": 59, "duration": 4, "velocity": 89}, {"time": 1182, "pitch": 52, "duration": 5, "velocity": 87}, {"time": 1182, "pitch": 55, "duration": 5, "velocity": 89}, {"time": 1182, "pitch": 59, "duration": 6, "velocity": 89}, {"time": 1188, "pitch": 45, "duration": 23, "velocity": 76}, {"time": 1200, "pitch": 52, "duration": 12, "velocity": 84}, {"time": 1200, "pitch": 57, "duration": 11, "velocity": 89}, {"time": 1200, "pitch": 60, "duration": 15, "velocity": 89}, {"time": 1212, "pitch": 38, "duration": 8, "velocity": 66}, {"time": 1218, "pitch": 50, "duration": 4, "velocity": 100}, {"time": 1218, "pitch": 54, "duration": 4, "velocity": 96}, {"time": 1218, "pitch": 57, "duration": 4, "velocity": 94}, {"time": 1230, "pitch": 50, "duration": 5, "velocity": 82}, {"time": 1230, "pitch": 54, "duration": 5, "velocity": 93}, {"time": 1230, "pitch": 57, "duration": 6, "velocity": 92}, {"time": 1236, "pitch": 43, "duration": 22, "velocity": 73}, {"time": 1248, "pitch": 50, "duration": 10, "velocity": 87}, {"time": 1248, "pitch": 55, "duration": 11, "velocity": 94}, {"time": 1248, "pitch": 59, "duration": 12, "velocity": 97}, {"time": 1260, "pitch": 40, "duration": 25, "velocity": 78}, {"time": 1266, "pitch": 52, "duration": 4, "velocity": 82}, {"time": 1266, "pitch": 55, "duration": 4, "velocity": 94}, {"time": 1266, "pitch": 59, "duration": 4, "velocity": 89}, {"time": 1278, "pitch": 52, "duration": 7, "velocity": 57}, {"time": 1278, "pitch": 55, "duration": 7, "velocity": 50}, {"time": 1278, "pitch": 59, "duration": 7, "velocity": 78}, {"time": 1284, "pitch": 45, "duration": 20, "velocity": 89}, {"time": 1296, "pitch": 52, "duration": 12, "velocity": 89}, {"time": 1296, "pitch": 57, "duration": 11, "velocity": 94}, {"time": 1296, "pitch": 60, "duration": 16, "velocity": 100}, {"time": 1308, "pitch": 38, "duration": 19, "velocity": 78}, {"time": 1314, "pitch": 50, "duration": 3, "velocity": 71}, {"time": 1314, "pitch": 54, "duration": 4, "velocity": 65}, {"time": 1314, "pitch": 57, "duration": 4, "velocity": 94}, {"time": 1326, "pitch": 50, "duration": 8, "velocity": 73}, {"time": 1326, "pitch": 54, "duration": 7, "velocity": 74}, {"time": 1326, "pitch": 57, "duration": 7, "velocity": 80}, {"time": 1332, "pitch": 43, "duration": 21, "velocity": 73}, {"time": 1344, "pitch": 50, "duration": 12, "velocity": 76}, {"time": 1344, "pitch": 55, "duration": 13, "velocity": 89}, {"time": 1344, "pitch": 59, "duration": 13, "velocity": 92}, {"time": 1356, "pitch": 40, "duration": 20, "velocity": 58}, {"time": 1362, "pitch": 52, "duration": 3, "velocity": 73}, {"time": 1362, "pitch": 55, "duration": 3, "velocity": 84}, {"time": 1362, "pitch": 59, "duration": 4, "velocity": 89}, {"time": 1374, "pitch": 52, "duration": 5, "velocity": 87}, {"time": 1374, "pitch": 55, "duration": 5, "velocity": 89}, {"time": 1374, "pitch": 59, "duration": 6, "velocity": 89}, {"time": 1380, "pitch": 45, "duration": 23, "velocity": 76}, {"time": 1392, "pitch": 52, "duration": 12, "velocity": 84}, {"time": 1392, "pitch": 57, "duration": 11, "velocity": 89}, {"time": 1392, "pitch": 60, "duration": 15, "velocity": 89}, {"time": 1404, "pitch": 38, "duration": 8, "velocity": 66}, {"time": 1410, "pitch": 50, "duration": 4, "velocity": 100}, {"time": 1410, "pitch": 54, "duration": 4, "velocity": 96}, {"time": 1410, "pitch": 57, "duration": 4, "velocity": 94}, {"time": 1422, "pitch": 50, "duration": 5, "velocity": 82}, {"time": 1422, "pitch": 54, "duration": 5, "velocity": 93}, {"time": 1422, "pitch": 57, "duration": 6, "velocity": 92}, {"time": 1428, "pitch": 43, "duration": 22, "velocity": 73}, {"time": 1440, "pitch": 50, "duration": 10, "velocity": 87}, {"time": 1440, "pitch": 55, "duration": 11, "velocity": 94}, {"time": 1440, "pitch": 59, "duration": 12, "velocity": 97}, {"time": 1452, "pitch": 40, "duration": 25, "velocity": 78}, {"time": 1458, "pitch": 52, "duration": 4, "velocity": 82}, {"time": 1458, "pitch": 55, "duration": 4, "velocity": 94}, {"time": 1458, "pitch": 59, "duration": 4, "velocity": 89}, {"time": 1470, "pitch": 52, "duration": 7, "velocity": 57}, {"time": 1470, "pitch": 55, "duration": 7, "velocity": 50}, {"time": 1470, "pitch": 59, "duration": 7, "velocity": 78}, {"time": 1476, "pitch": 45, "duration": 20, "velocity": 89}, {"time": 1488, "pitch": 52, "duration": 12, "velocity": 89}, {"time": 1488, "pitch": 57, "duration": 11, "velocity": 94}, {"time": 1488, "pitch": 60, "duration": 16, "velocity": 100}, {"time": 1500, "pitch": 38, "duration": 19, "velocity": 78}, {"time": 1506, "pitch": 50, "duration": 3, "velocity": 71}, {"time": 1506, "pitch": 54, "duration": 4, "velocity": 65}, {"time": 1506, "pitch": 57, "duration": 4, "velocity": 94}, {"time": 1518, "pitch": 50, "duration": 8, "velocity": 73}, {"time": 1518, "pitch": 54, "duration": 7, "velocity": 74}, {"time": 1518, "pitch": 57, "duration": 7, "velocity": 80}, {"time": 1524, "pitch": 43, "duration": 21, "velocity": 73}, {"time": 1536, "pitch": 50, "duration": 12, "velocity": 76}, {"time": 1536, "pitch": 55, "duration": 13, "velocity": 89}, {"time": 1536, "pitch": 59, "duration": 13, "velocity": 92}, {"time": 1548, "pitch": 40, "duration": 20, "velocity": 58}, {"time": 1554, "pitch": 52, "duration": 3, "velocity": 73}, {"time": 1554, "pitch": 55, "duration": 3, "velocity": 84}, {"time": 1554, "pitch": 59, "duration": 4, "velocity": 89}, {"time": 1566, "pitch": 52, "duration": 5, "velocity": 87}, {"time": 1566, "pitch": 55, "duration": 5, "velocity": 89}, {"time": 1566, "pitch": 59, "duration": 6, "velocity": 89}, {"time": 1572, "pitch": 45, "duration": 23, "velocity": 76}, {"time": 1584, "pitch": 52, "duration": 12, "velocity": 84}, {"time": 1584, "pitch": 57, "duration": 11, "velocity": 89}, {"time": 1584, "pitch": 60, "duration": 15, "velocity": 89}, {"time": 1596, "pitch": 38, "duration": 8, "velocity": 66}, {"time": 1602, "pitch": 50, "duration": 4, "velocity": 100}, {"time": 1602, "pitch": 54, "duration": 4, "velocity": 96}, {"time": 1602, "pitch": 57, "duration": 4, "velocity": 94}, {"time": 1614, "pitch": 50, "duration": 5, "velocity": 82}, {"time": 1614, "pitch": 54, "duration": 5, "velocity": 93}, {"time": 1614, "pitch": 57, "duration": 6, "velocity": 92}, {"time": 1620, "pitch": 43, "duration": 22, "velocity": 73}, {"time": 1632, "pitch": 50, "duration": 10, "velocity": 87}, {"time": 1632, "pitch": 55, "duration": 11, "velocity": 94}, {"time": 1632, "pitch": 59, "duration": 12, "velocity": 97}, {"time": 1644, "pitch": 40, "duration": 25, "velocity": 78}, {"time": 1650, "pitch": 52, "duration": 4, "velocity": 82}, {"time": 1650, "pitch": 55, "duration": 4, "velocity": 94}, {"time": 1650, "pitch": 59, "duration": 4, "velocity": 89}, {"time": 1662, "pitch": 52, "duration": 7, "velocity": 57}, {"time": 1662, "pitch": 55, "duration": 7, "velocity": 50}, {"time": 1662, "pitch": 59, "duration": 7, "velocity": 78}, {"time": 1668, "pitch": 45, "duration": 20, "velocity": 89}, {"time": 1680, "pitch": 52, "duration": 12, "velocity": 89}, {"time": 1680, "pitch": 57, "duration": 11, "velocity": 94}, {"time": 1680, "pitch": 60, "duration": 16, "velocity": 100}, {"time": 1692, "pitch": 38, "duration": 19, "velocity": 78}, {"time": 1698, "pitch": 50, "duration": 3, "velocity": 71}, {"time": 1698, "pitch": 54, "duration": 4, "velocity": 65}, {"time": 1698, "pitch": 57, "duration": 4, "velocity": 94}, {"time": 1710, "pitch": 50, "duration": 8, "velocity": 73}, {"time": 1710, "pitch": 54, "duration": 7, "velocity": 74}, {"time": 1710, "pitch": 57, "duration": 7, "velocity": 80}, {"time": 1716, "pitch": 43, "duration": 21, "velocity": 73}, {"time": 1728, "pitch": 50, "duration": 12, "velocity": 76}, {"time": 1728, "pitch": 55, "duration": 13, "velocity": 89}, {"time": 1728, "pitch": 59, "duration": 13, "velocity": 92}, {"time": 1740, "pitch": 40, "duration": 20, "velocity": 58}, {"time": 1746, "pitch": 52, "duration": 3, "velocity": 73}, {"time": 1746, "pitch": 55, "duration": 3, "velocity": 84}, {"time": 1746, "pitch": 59, "duration": 4, "velocity": 89}, {"time": 1758, "pitch": 52, "duration": 5, "velocity": 87}, {"time": 1758, "pitch": 55, "duration": 5, "velocity": 89}, {"time": 1758, "pitch": 59, "duration": 6, "velocity": 89}, {"time": 1764, "pitch": 45, "duration": 23, "velocity": 76}, {"time": 1776, "pitch": 52, "duration": 12, "velocity": 84}, {"time": 1776, "pitch": 57, "duration": 11, "velocity": 89}, {"time": 1776, "pitch": 60, "duration": 15, "velocity": 89}, {"time": 1788, "pitch": 38, "duration": 8, "velocity": 66}, {"time": 1794, "pitch": 50, "duration": 4, "velocity": 100}, {"time": 1794, "pitch": 54, "duration": 4, "velocity": 96}, {"time": 1794, "pitch": 57, "duration": 4, "velocity": 94}, {"time": 1806, "pitch": 50, "duration": 5, "velocity": 82}, {"time": 1806, "pitch": 54, "duration": 5, "velocity": 93}, {"time": 1806, "pitch": 57, "duration": 6, "velocity": 92}, {"time": 1812, "pitch": 33, "duration": 3, "velocity": 97}, {"time": 1812, "pitch": 45, "duration": 3, "velocity": 97}, {"time": 1818, "pitch": 28, "duration": 3, "velocity": 94}, {"time": 1818, "pitch": 40, "duration": 3, "velocity": 94}, {"time": 1824, "pitch": 33, "duration": 3, "velocity": 105}, {"time": 1824, "pitch": 45, "duration": 3, "velocity": 105}, {"time": 1830, "pitch": 28, "duration": 3, "velocity": 100}, {"time": 1830, "pitch": 40, "duration": 3, "velocity": 100}, {"time": 1836, "pitch": 33, "duration": 3, "velocity": 100}, {"time": 1836, "pitch": 45, "duration": 3, "velocity": 100}, {"time": 1842, "pitch": 28, "duration": 3, "velocity": 87}, {"time": 1842, "pitch": 40, "duration": 3, "velocity": 87}, {"time": 1848, "pitch": 33, "duration": 3, "velocity": 102}, {"time": 1848, "pitch": 45, "duration": 3, "velocity": 102}, {"time": 1854, "pitch": 28, "duration": 3, "velocity": 89}, {"time": 1854, "pitch": 40, "duration": 3, "velocity": 89}, {"time": 1860, "pitch": 33, "duration": 3, "velocity": 100}, {"time": 1860, "pitch": 45, "duration": 3, "velocity": 100}, {"time": 1866, "pitch": 28, "duration": 3, "velocity": 89}, {"time": 1866, "pitch": 40, "duration": 3, "velocity": 89}, {"time": 1872, "pitch": 33, "duration": 4, "velocity": 102}, {"time": 1872, "pitch": 45, "duration": 4, "velocity": 102}, {"time": 1878, "pitch": 28, "duration": 3, "velocity": 82}, {"time": 1878, "pitch": 40, "duration": 3, "velocity": 82}, {"time": 1884, "pitch": 26, "duration": 3, "velocity": 102}, {"time": 1884, "pitch": 38, "duration": 3, "velocity": 102}, {"time": 1890, "pitch": 26, "duration": 3, "velocity": 94}, {"time": 1890, "pitch": 38, "duration": 3, "velocity": 94}, {"time": 1896, "pitch": 30, "duration": 4, "velocity": 109}, {"time": 1896, "pitch": 42, "duration": 4, "velocity": 109}, {"time": 1902, "pitch": 26, "duration": 4, "velocity": 97}, {"time": 1902, "pitch": 38, "duration": 4, "velocity": 97}, {"time": 1908, "pitch": 31, "duration": 3, "velocity": 100}, {"time": 1908, "pitch": 43, "duration": 3, "velocity": 100}, {"time": 1914, "pitch": 26, "duration": 3, "velocity": 97}, {"time": 1914, "pitch": 38, "duration": 3, "velocity": 97}, {"time": 1920, "pitch": 31, "duration": 4, "velocity": 105}, {"time": 1920, "pitch": 43, "duration": 4, "velocity": 105}, {"time": 1926, "pitch": 26, "duration": 3, "velocity": 82}, {"time": 1926, "pitch": 38, "duration": 3, "velocity": 82}, {"time": 1932, "pitch": 31, "duration": 4, "velocity": 94}, {"time": 1932, "pitch": 43, "duration": 4, "velocity": 94}, {"time": 1938, "pitch": 26, "duration": 3, "velocity": 82}, {"time": 1938, "pitch": 38, "duration": 3, "velocity": 82}, {"time": 1944, "pitch": 31, "duration": 4, "velocity": 97}, {"time": 1944, "pitch": 43, "duration": 4, "velocity": 97}, {"time": 1950, "pitch": 26, "duration": 4, "velocity": 76}, {"time": 1950, "pitch": 38, "duration": 4, "velocity": 76}, {"time": 1956, "pitch": 31, "duration": 3, "velocity": 102}, {"time": 1956, "pitch": 41, "duration": 5, "velocity": 105}, {"time": 1956, "pitch": 43, "duration": 3, "velocity": 102}, {"time": 1962, "pitch": 26, "duration": 3, "velocity": 73}, {"time": 1962, "pitch": 38, "duration": 3, "velocity": 73}, {"time": 1968, "pitch": 26, "duration": 3, "velocity": 73}, {"time": 1968, "pitch": 31, "duration": 4, "velocity": 80}, {"time": 1968, "pitch": 38, "duration": 3, "velocity": 73}, {"time": 1968, "pitch": 43, "duration": 4, "velocity": 80}, {"time": 1974, "pitch": 26, "duration": 3, "velocity": 64}, {"time": 1974, "pitch": 38, "duration": 3, "velocity": 64}, {"time": 1980, "pitch": 31, "duration": 3, "velocity": 105}, {"time": 1980, "pitch": 43, "duration": 3, "velocity": 105}, {"time": 1986, "pitch": 26, "duration": 3, "velocity": 94}, {"time": 1986, "pitch": 38, "duration": 3, "velocity": 94}, {"time": 1992, "pitch": 31, "duration": 4, "velocity": 102}, {"time": 1992, "pitch": 43, "duration": 4, "velocity": 102}, {"time": 1998, "pitch": 26, "duration": 3, "velocity": 92}, {"time": 1998, "pitch": 38, "duration": 3, "velocity": 92}, {"time": 2004, "pitch": 33, "duration": 4, "velocity": 108}, {"time": 2004, "pitch": 45, "duration": 4, "velocity": 108}, {"time": 2010, "pitch": 28, "duration": 3, "velocity": 97}, {"time": 2010, "pitch": 40, "duration": 3, "velocity": 97}, {"time": 2016, "pitch": 33, "duration": 4, "velocity": 108}, {"time": 2016, "pitch": 45, "duration": 4, "velocity": 108}, {"time": 2022, "pitch": 28, "duration": 3, "velocity": 84}, {"time": 2022, "pitch": 40, "duration": 3, "velocity": 84}, {"time": 2028, "pitch": 33, "duration": 4, "velocity": 108}, {"time": 2028, "pitch": 45, "duration": 4, "velocity": 108}, {"time": 2034, "pitch": 28, "duration": 3, "velocity": 78}, {"time": 2034, "pitch": 40, "duration": 3, "velocity": 78}, {"time": 2040, "pitch": 33, "duration": 4, "velocity": 97}, {"time": 2040, "pitch": 45, "duration": 4, "velocity": 97}, {"time": 2046, "pitch": 28, "duration": 3, "velocity": 87}, {"time": 2046, "pitch": 40, "duration": 3, "velocity": 87}, {"time": 2052, "pitch": 33, "duration": 4, "velocity": 100}, {"time": 2052, "pitch": 45, "duration": 4, "velocity": 100}, {"time": 2058, "pitch": 28, "duration": 3, "velocity": 82}, {"time": 2058, "pitch": 40, "duration": 3, "velocity": 82}, {"time": 2064, "pitch": 33, "duration": 4, "velocity": 97}, {"time": 2064, "pitch": 45, "duration": 4, "velocity": 97}, {"time": 2070, "pitch": 28, "duration": 4, "velocity": 87}, {"time": 2070, "pitch": 40, "duration": 4, "velocity": 87}, {"time": 2076, "pitch": 33, "duration": 3, "velocity": 100}, {"time": 2076, "pitch": 45, "duration": 3, "velocity": 100}, {"time": 2082, "pitch": 28, "duration": 3, "velocity": 100}, {"time": 2082, "pitch": 40, "duration": 3, "velocity": 100}, {"time": 2088, "pitch": 33, "duration": 4, "velocity": 94}, {"time": 2088, "pitch": 45, "duration": 4, "velocity": 94}, {"time": 2094, "pitch": 28, "duration": 3, "velocity": 89}, {"time": 2094, "pitch": 40, "duration": 3, "velocity": 89}, {"time": 2100, "pitch": 29, "duration": 3, "velocity": 111}, {"time": 2100, "pitch": 41, "duration": 3, "velocity": 111}, {"time": 2106, "pitch": 24, "duration": 3, "velocity": 105}, {"time": 2106, "pitch": 36, "duration": 3, "velocity": 105}, {"time": 2112, "pitch": 29, "duration": 3, "velocity": 108}, {"time": 2112, "pitch": 41, "duration": 3, "velocity": 108}, {"time": 2118, "pitch": 24, "duration": 3, "velocity": 108}, {"time": 2118, "pitch": 36, "duration": 3, "velocity": 108}, {"time": 2124, "pitch": 29, "duration": 3, "velocity": 111}, {"time": 2124, "pitch": 41, "duration": 3, "velocity": 111}, {"time": 2130, "pitch": 24, "duration": 4, "velocity": 105}, {"time": 2130, "pitch": 36, "duration": 4, "velocity": 105}, {"time": 2136, "pitch": 29, "duration": 4, "velocity": 105}, {"time": 2136, "pitch": 41, "duration": 4, "velocity": 105}, {"time": 2142, "pitch": 24, "duration": 3, "velocity": 108}, {"time": 2142, "pitch": 36, "duration": 3, "velocity": 108}, {"time": 2148, "pitch": 26, "duration": 3, "velocity": 71}, {"time": 2148, "pitch": 38, "duration": 3, "velocity": 71}, {"time": 2148, "pitch": 42, "duration": 3, "velocity": 79}, {"time": 2154, "pitch": 26, "duration": 3, "velocity": 94}, {"time": 2154, "pitch": 38, "duration": 3, "velocity": 94}, {"time": 2154, "pitch": 42, "duration": 3, "velocity": 93}, {"time": 2160, "pitch": 26, "duration": 3, "velocity": 92}, {"time": 2160, "pitch": 38, "duration": 3, "velocity": 92}, {"time": 2160, "pitch": 42, "duration": 3, "velocity": 102}, {"time": 2166, "pitch": 26, "duration": 3, "velocity": 89}, {"time": 2166, "pitch": 38, "duration": 3, "velocity": 89}, {"time": 2166, "pitch": 42, "duration": 3, "velocity": 93}, {"time": 2196, "pitch": 43, "duration": 22, "velocity": 73}, {"time": 2208, "pitch": 50, "duration": 10, "velocity": 87}, {"time": 2208, "pitch": 55, "duration": 11, "velocity": 94}, {"time": 2208, "pitch": 59, "duration": 12, "velocity": 97}, {"time": 2220, "pitch": 40, "duration": 25, "velocity": 78}, {"time": 2226, "pitch": 52, "duration": 4, "velocity": 82}, {"time": 2226, "pitch": 55, "duration": 4, "velocity": 94}, {"time": 2226, "pitch": 59, "duration": 4, "velocity": 89}, {"time": 2238, "pitch": 52, "duration": 7, "velocity": 57}, {"time": 2238, "pitch": 55, "duration": 7, "velocity": 50}, {"time": 2238, "pitch": 59, "duration": 7, "velocity": 78}, {"time": 2244, "pitch": 45, "duration": 20, "velocity": 89}, {"time": 2256, "pitch": 52, "duration": 12, "velocity": 89}, {"time": 2256, "pitch": 57, "duration": 11, "velocity": 94}, {"time": 2256, "pitch": 60, "duration": 16, "velocity": 100}, {"time": 2268, "pitch": 38, "duration": 19, "velocity": 78}, {"time": 2274, "pitch": 50, "duration": 3, "velocity": 71}, {"time": 2274, "pitch": 54, "duration": 4, "velocity": 65}, {"time": 2274, "pitch": 57, "duration": 4, "velocity": 94}, {"time": 2286, "pitch": 50, "duration": 8, "velocity": 73}, {"time": 2286, "pitch": 54, "duration": 7, "velocity": 74}, {"time": 2286, "pitch": 57, "duration": 7, "velocity": 80}, {"time": 2292, "pitch": 43, "duration": 21, "velocity": 73}, {"time": 2304, "pitch": 50, "duration": 12, "velocity": 76}, {"time": 2304, "pitch": 55, "duration": 13, "velocity": 89}, {"time": 2304, "pitch": 59, "duration": 13, "velocity": 92}, {"time": 2316, "pitch": 40, "duration": 20, "velocity": 58}, {"time": 2322, "pitch": 52, "duration": 3, "velocity": 73}, {"time": 2322, "pitch": 55, "duration": 3, "velocity": 84}, {"time": 2322, "pitch": 59, "duration": 4, "velocity": 89}, {"time": 2334, "pitch": 52, "duration": 5, "velocity": 87}, {"time": 2334, "pitch": 55, "duration": 5, "velocity": 89}, {"time": 2334, "pitch": 59, "duration": 6, "velocity": 89}, {"time": 2340, "pitch": 45, "duration": 23, "velocity": 76}, {"time": 2352, "pitch": 52, "duration": 12, "velocity": 84}, {"time": 2352, "pitch": 57, "duration": 11, "velocity": 89}, {"time": 2352, "pitch": 60, "duration": 15, "velocity": 89}, {"time": 2364, "pitch": 38, "duration": 8, "velocity": 66}, {"time": 2370, "pitch": 50, "duration": 4, "velocity": 100}, {"time": 2370, "pitch": 54, "duration": 4, "velocity": 96}, {"time": 2370, "pitch": 57, "duration": 4, "velocity": 94}, {"time": 2382, "pitch": 50, "duration": 5, "velocity": 82}, {"time": 2382, "pitch": 54, "duration": 5, "velocity": 93}, {"time": 2382, "pitch": 57, "duration": 6, "velocity": 92}, {"time": 2388, "pitch": 43, "duration": 22, "velocity": 73}, {"time": 2400, "pitch": 50, "duration": 10, "velocity": 87}, {"time": 2400, "pitch": 55, "duration": 11, "velocity": 94}, {"time": 2400, "pitch": 59, "duration": 12, "velocity": 97}, {"time": 2412, "pitch": 40, "duration": 25, "velocity": 78}, {"time": 2418, "pitch": 52, "duration": 4, "velocity": 82}, {"time": 2418, "pitch": 55, "duration": 4, "velocity": 94}, {"time": 2418, "pitch": 59, "duration": 4, "velocity": 89}, {"time": 2430, "pitch": 52, "duration": 7, "velocity": 57}, {"time": 2430, "pitch": 55, "duration": 7, "velocity": 50}, {"time": 2430, "pitch": 59, "duration": 7, "velocity": 78}, {"time": 2436, "pitch": 45, "duration": 20, "velocity": 89}, {"time": 2448, "pitch": 52, "duration": 12, "velocity": 89}, {"time": 2448, "pitch": 57, "duration": 11, "velocity": 94}, {"time": 2448, "pitch": 60, "duration": 16, "velocity": 100}, {"time": 2460, "pitch": 38, "duration": 19, "velocity": 78}, {"time": 2466, "pitch": 50, "duration": 3, "velocity": 71}, {"time": 2466, "pitch": 54, "duration": 4, "velocity": 65}, {"time": 2466, "pitch": 57, "duration": 4, "velocity": 94}, {"time": 2478, "pitch": 50, "duration": 8, "velocity": 73}, {"time": 2478, "pitch": 54, "duration": 7, "velocity": 74}, {"time": 2478, "pitch": 57, "duration": 7, "velocity": 80}, {"time": 2484, "pitch": 43, "duration": 21, "velocity": 73}, {"time": 2496, "pitch": 50, "duration": 12, "velocity": 76}, {"time": 2496, "pitch": 55, "duration": 13, "velocity": 89}, {"time": 2496, "pitch": 59, "duration": 13, "velocity": 92}, {"time": 2508, "pitch": 40, "duration": 20, "velocity": 58}, {"time": 2514, "pitch": 52, "duration": 3, "velocity": 73}, {"time": 2514, "pitch": 55, "duration": 3, "velocity": 84}, {"time": 2514, "pitch": 59, "duration": 4, "velocity": 89}, {"time": 2526, "pitch": 52, "duration": 5, "velocity": 87}, {"time": 2526, "pitch": 55, "duration": 5, "velocity": 89}, {"time": 2526, "pitch": 59, "duration": 6, "velocity": 89}, {"time": 2532, "pitch": 45, "duration": 23, "velocity": 76}, {"time": 2544, "pitch": 52, "duration": 12, "velocity": 84}, {"time": 2544, "pitch": 57, "duration": 11, "velocity": 89}, {"time": 2544, "pitch": 60, "duration": 15, "velocity": 89}, {"time": 2556, "pitch": 38, "duration": 8, "velocity": 66}, {"time": 2562, "pitch": 50, "duration": 4, "velocity": 100}, {"time": 2562, "pitch": 54, "duration": 4, "velocity": 96}, {"time": 2562, "pitch": 57, "duration": 4, "velocity": 94}, {"time": 2574, "pitch": 50, "duration": 5, "velocity": 82}, {"time": 2574, "pitch": 54, "duration": 5, "velocity": 93}, {"time": 2574, "pitch": 57, "duration": 6, "velocity": 92}, {"time": 2580, "pitch": 43, "duration": 48, "velocity": 100}, {"time": 2580, "pitch": 55, "duration": 28, "velocity": 87}, {"time": 2580, "pitch": 59, "duration": 26, "velocity": 94}, {"time": 2604, "pitch": 50, "duration": 8, "velocity": 48}, {"time": 2610, "pitch": 55, "duration": 9, "velocity": 73}, {"time": 2610, "pitch": 59, "duration": 10, "velocity": 102}, {"time": 2610, "pitch": 62, "duration": 10, "velocity": 89}, {"time": 2616, "pitch": 50, "duration": 12, "velocity": 76}, {"time": 2622, "pitch": 55, "duration": 6, "velocity": 82}, {"time": 2622, "pitch": 59, "duration": 7, "velocity": 94}, {"time": 2622, "pitch": 62, "duration": 7, "velocity": 84}, {"time": 2628, "pitch": 41, "duration": 46, "velocity": 89}, {"time": 2628, "pitch": 53, "duration": 26, "velocity": 62}, {"time": 2628, "pitch": 57, "duration": 27, "velocity": 97}, {"time": 2628, "pitch": 62, "duration": 1, "velocity": 82}, {"time": 2658, "pitch": 53, "duration": 16, "velocity": 76}, {"time": 2658, "pitch": 57, "duration": 16, "velocity": 89}, {"time": 2658, "pitch": 62, "duration": 17, "velocity": 94}, {"time": 2673, "pitch": 56, "duration": 18, "velocity": 50}, {"time": 2675, "pitch": 44, "duration": 48, "velocity": 87}, {"time": 2675, "pitch": 60, "duration": 14, "velocity": 97}, {"time": 2676, "pitch": 63, "duration": 14, "velocity": 72}, {"time": 2687, "pitch": 51, "duration": 36, "velocity": 45}, {"time": 2692, "pitch": 56, "duration": 30, "velocity": 68}, {"time": 2692, "pitch": 63, "duration": 31, "velocity": 77}, {"time": 2693, "pitch": 60, "duration": 29, "velocity": 100}, {"time": 2723, "pitch": 58, "duration": 25, "velocity": 96}, {"time": 2724, "pitch": 43, "duration": 47, "velocity": 97}, {"time": 2724, "pitch": 55, "duration": 25, "velocity": 62}, {"time": 2753, "pitch": 62, "duration": 18, "velocity": 92}, {"time": 2753, "pitch": 55, "duration": 17, "velocity": 94}, {"time": 2772, "pitch": 45, "duration": 47, "velocity": 94}, {"time": 2772, "pitch": 60, "duration": 14, "velocity": 71}, {"time": 2772, "pitch": 55, "duration": 14, "velocity": 47}, {"time": 2789, "pitch": 60, "duration": 10, "velocity": 92}, {"time": 2789, "pitch": 55, "duration": 10, "velocity": 87}, {"time": 2795, "pitch": 52, "duration": 24, "velocity": 64}, {"time": 2801, "pitch": 64, "duration": 17, "velocity": 97}, {"time": 2801, "pitch": 60, "duration": 17, "velocity": 92}, {"time": 2801, "pitch": 55, "duration": 17, "velocity": 89}, {"time": 2819, "pitch": 58, "duration": 20, "velocity": 57}, {"time": 2819, "pitch": 63, "duration": 14, "velocity": 54}, {"time": 2820, "pitch": 51, "duration": 19, "velocity": 41}, {"time": 2820, "pitch": 67, "duration": 13, "velocity": 92}, {"time": 2837, "pitch": 63, "duration": 13, "velocity": 82}, {"time": 2837, "pitch": 70, "duration": 9, "velocity": 70}, {"time": 2855, "pitch": 63, "duration": 5, "velocity": 82}, {"time": 2855, "pitch": 70, "duration": 12, "velocity": 93}, {"time": 2855, "pitch": 67, "duration": 9, "velocity": 100}, {"time": 2861, "pitch": 63, "duration": 6, "velocity": 55}, {"time": 2867, "pitch": 43, "duration": 47, "velocity": 100}, {"time": 2867, "pitch": 67, "duration": 13, "velocity": 89}, {"time": 2867, "pitch": 71, "duration": 13, "velocity": 89}, {"time": 2868, "pitch": 62, "duration": 12, "velocity": 80}, {"time": 2878, "pitch": 50, "duration": 31, "velocity": 48}, {"time": 2885, "pitch": 62, "duration": 7, "velocity": 92}, {"time": 2885, "pitch": 71, "duration": 6, "velocity": 84}, {"time": 2897, "pitch": 67, "duration": 7, "velocity": 87}, {"time": 2897, "pitch": 62, "duration": 2, "velocity": 51}, {"time": 2903, "pitch": 62, "duration": 5, "velocity": 102}, {"time": 2909, "pitch": 67, "duration": 3, "velocity": 87}, {"time": 2916, "pitch": 43, "duration": 46, "velocity": 102}, {"time": 2919, "pitch": 62, "duration": 7, "velocity": 64}, {"time": 2928, "pitch": 50, "duration": 32, "velocity": 46}, {"time": 2928, "pitch": 64, "duration": 7, "velocity": 92}, {"time": 2934, "pitch": 62, "duration": 3, "velocity": 76}, {"time": 2940, "pitch": 62, "duration": 4, "velocity": 84}, {"time": 2940, "pitch": 67, "duration": 9, "velocity": 76}, {"time": 2946, "pitch": 62, "duration": 5, "velocity": 73}, {"time": 2952, "pitch": 64, "duration": 8, "velocity": 108}, {"time": 2958, "pitch": 62, "duration": 3, "velocity": 67}, {"time": 2964, "pitch": 45, "duration": 22, "velocity": 108}, {"time": 2964, "pitch": 57, "duration": 5, "velocity": 87}, {"time": 2970, "pitch": 52, "duration": 3, "velocity": 80}, {"time": 2976, "pitch": 55, "duration": 5, "velocity": 105}, {"time": 2982, "pitch": 52, "duration": 4, "velocity": 97}, {"time": 2988, "pitch": 45, "duration": 13, "velocity": 66}, {"time": 2988, "pitch": 57, "duration": 7, "velocity": 100}, {"time": 2994, "pitch": 52, "duration": 3, "velocity": 94}, {"time": 3000, "pitch": 55, "duration": 5, "velocity": 111}, {"time": 3006, "pitch": 52, "duration": 3, "velocity": 89}, {"time": 3012, "pitch": 45, "duration": 21, "velocity": 100}, {"time": 3012, "pitch": 57, "duration": 7, "velocity": 97}, {"time": 3018, "pitch": 52, "duration": 4, "velocity": 89}, {"time": 3024, "pitch": 55, "duration": 7, "velocity": 108}, {"time": 3030, "pitch": 52, "duration": 3, "velocity": 94}, {"time": 3036, "pitch": 45, "duration": 19, "velocity": 100}, {"time": 3036, "pitch": 52, "duration": 4, "velocity": 102}, {"time": 3036, "pitch": 57, "duration": 7, "velocity": 102}, {"time": 3042, "pitch": 52, "duration": 3, "velocity": 84}, {"time": 3048, "pitch": 52, "duration": 3, "velocity": 67}, {"time": 3048, "pitch": 55, "duration": 4, "velocity": 108}, {"time": 3054, "pitch": 52, "duration": 3, "velocity": 105}, {"time": 3060, "pitch": 50, "duration": 9, "velocity": 89}, {"time": 3060, "pitch": 57, "duration": 3, "velocity": 94}, {"time": 3060, "pitch": 62, "duration": 4, "velocity": 87}, {"time": 3066, "pitch": 57, "duration": 3, "velocity": 87}, {"time": 3072, "pitch": 50, "duration": 4, "velocity": 89}, {"time": 3072, "pitch": 60, "duration": 3, "velocity": 111}, {"time": 3078, "pitch": 57, "duration": 2, "velocity": 105}, {"time": 3084, "pitch": 50, "duration": 4, "velocity": 89}, {"time": 3084, "pitch": 57, "duration": 3, "velocity": 87}, {"time": 3084, "pitch": 62, "duration": 3, "velocity": 102}, {"time": 3090, "pitch": 57, "duration": 2, "velocity": 100}, {"time": 3096, "pitch": 50, "duration": 5, "velocity": 82}, {"time": 3096, "pitch": 57, "duration": 2, "velocity": 89}, {"time": 3096, "pitch": 60, "duration": 3, "velocity": 102}, {"time": 3102, "pitch": 57, "duration": 2, "velocity": 102}, {"time": 3108, "pitch": 50, "duration": 7, "velocity": 94}, {"time": 3108, "pitch": 57, "duration": 3, "velocity": 100}, {"time": 3108, "pitch": 62, "duration": 3, "velocity": 97}, {"time": 3114, "pitch": 57, "duration": 2, "velocity": 92}, {"time": 3120, "pitch": 50, "duration": 7, "velocity": 84}, {"time": 3120, "pitch": 60, "duration": 3, "velocity": 108}, {"time": 3126, "pitch": 57, "duration": 2, "velocity": 94}, {"time": 3132, "pitch": 50, "duration": 4, "velocity": 67}, {"time": 3132, "pitch": 57, "duration": 2, "velocity": 78}, {"time": 3132, "pitch": 62, "duration": 3, "velocity": 57}, {"time": 3138, "pitch": 50, "duration": 3, "velocity": 78}, {"time": 3138, "pitch": 57, "duration": 3, "velocity": 73}, {"time": 3138, "pitch": 62, "duration": 3, "velocity": 69}, {"time": 3144, "pitch": 50, "duration": 6, "velocity": 108}, {"time": 3144, "pitch": 57, "duration": 4, "velocity": 105}, {"time": 3144, "pitch": 62, "duration": 4, "velocity": 102}, {"time": 3150, "pitch": 50, "duration": 3, "velocity": 100}, {"time": 3150, "pitch": 57, "duration": 4, "velocity": 102}, {"time": 3150, "pitch": 62, "duration": 4, "velocity": 97}, {"time": 3156, "pitch": 43, "duration": 22, "velocity": 73}, {"time": 3168, "pitch": 50, "duration": 10, "velocity": 87}, {"time": 3168, "pitch": 55, "duration": 11, "velocity": 94}, {"time": 3168, "pitch": 59, "duration": 12, "velocity": 97}, {"time": 3180, "pitch": 40, "duration": 25, "velocity": 78}, {"time": 3186, "pitch": 52, "duration": 4, "velocity": 82}, {"time": 3186, "pitch": 55, "duration": 4, "velocity": 94}, {"time": 3186, "pitch": 59, "duration": 4, "velocity": 89}, {"time": 3198, "pitch": 52, "duration": 7, "velocity": 57}, {"time": 3198, "pitch": 55, "duration": 7, "velocity": 50}, {"time": 3198, "pitch": 59, "duration": 7, "velocity": 78}, {"time": 3204, "pitch": 45, "duration": 20, "velocity": 89}, {"time": 3216, "pitch": 52, "duration": 12, "velocity": 89}, {"time": 3216, "pitch": 57, "duration": 11, "velocity": 94}, {"time": 3216, "pitch": 60, "duration": 16, "velocity": 100}, {"time": 3228, "pitch": 38, "duration": 19, "velocity": 78}, {"time": 3234, "pitch": 50, "duration": 3, "velocity": 71}, {"time": 3234, "pitch": 54, "duration": 4, "velocity": 65}, {"time": 3234, "pitch": 57, "duration": 4, "velocity": 94}, {"time": 3246, "pitch": 50, "duration": 8, "velocity": 73}, {"time": 3246, "pitch": 54, "duration": 7, "velocity": 74}, {"time": 3246, "pitch": 57, "duration": 7, "velocity": 80}, {"time": 3252, "pitch": 43, "duration": 21, "velocity": 73}, {"time": 3264, "pitch": 50, "duration": 12, "velocity": 76}, {"time": 3264, "pitch": 55, "duration": 13, "velocity": 89}, {"time": 3264, "pitch": 59, "duration": 13, "velocity": 92}, {"time": 3276, "pitch": 40, "duration": 20, "velocity": 58}, {"time": 3282, "pitch": 52, "duration": 3, "velocity": 73}, {"time": 3282, "pitch": 55, "duration": 3, "velocity": 84}, {"time": 3282, "pitch": 59, "duration": 4, "velocity": 89}, {"time": 3294, "pitch": 52, "duration": 5, "velocity": 87}, {"time": 3294, "pitch": 55, "duration": 5, "velocity": 89}, {"time": 3294, "pitch": 59, "duration": 6, "velocity": 89}, {"time": 3300, "pitch": 45, "duration": 23, "velocity": 76}, {"time": 3312, "pitch": 52, "duration": 12, "velocity": 84}, {"time": 3312, "pitch": 57, "duration": 11, "velocity": 89}, {"time": 3312, "pitch": 60, "duration": 15, "velocity": 89}, {"time": 3324, "pitch": 38, "duration": 8, "velocity": 66}, {"time": 3330, "pitch": 50, "duration": 4, "velocity": 100}, {"time": 3330, "pitch": 54, "duration": 4, "velocity": 96}, {"time": 3330, "pitch": 57, "duration": 4, "velocity": 94}, {"time": 3342, "pitch": 50, "duration": 5, "velocity": 82}, {"time": 3342, "pitch": 54, "duration": 5, "velocity": 93}, {"time": 3342, "pitch": 57, "duration": 6, "velocity": 92}, {"time": 3348, "pitch": 43, "duration": 22, "velocity": 73}, {"time": 3360, "pitch": 50, "duration": 10, "velocity": 87}, {"time": 3360, "pitch": 55, "duration": 11, "velocity": 94}, {"time": 3360, "pitch": 59, "duration": 12, "velocity": 97}, {"time": 3372, "pitch": 40, "duration": 25, "velocity": 78}, {"time": 3378, "pitch": 52, "duration": 4, "velocity": 82}, {"time": 3378, "pitch": 55, "duration": 4, "velocity": 94}, {"time": 3378, "pitch": 59, "duration": 4, "velocity": 89}, {"time": 3390, "pitch": 52, "duration": 7, "velocity": 57}, {"time": 3390, "pitch": 55, "duration": 7, "velocity": 50}, {"time": 3390, "pitch": 59, "duration": 7, "velocity": 78}, {"time": 3396, "pitch": 45, "duration": 20, "velocity": 89}, {"time": 3408, "pitch": 52, "duration": 12, "velocity": 89}, {"time": 3408, "pitch": 57, "duration": 11, "velocity": 94}, {"time": 3408, "pitch": 60, "duration": 16, "velocity": 100}, {"time": 3420, "pitch": 38, "duration": 19, "velocity": 78}, {"time": 3426, "pitch": 50, "duration": 3, "velocity": 71}, {"time": 3426, "pitch": 54, "duration": 4, "velocity": 65}, {"time": 3426, "pitch": 57, "duration": 4, "velocity": 94}, {"time": 3438, "pitch": 50, "duration": 8, "velocity": 73}, {"time": 3438, "pitch": 54, "duration": 7, "velocity": 74}, {"time": 3438, "pitch": 57, "duration": 7, "velocity": 80}, {"time": 3444, "pitch": 43, "duration": 21, "velocity": 73}, {"time": 3456, "pitch": 50, "duration": 12, "velocity": 76}, {"time": 3456, "pitch": 55, "duration": 13, "velocity": 89}, {"time": 3456, "pitch": 59, "duration": 13, "velocity": 92}, {"time": 3468, "pitch": 40, "duration": 20, "velocity": 58}, {"time": 3474, "pitch": 52, "duration": 3, "velocity": 73}, {"time": 3474, "pitch": 55, "duration": 3, "velocity": 84}, {"time": 3474, "pitch": 59, "duration": 4, "velocity": 89}, {"time": 3486, "pitch": 52, "duration": 5, "velocity": 87}, {"time": 3486, "pitch": 55, "duration": 5, "velocity": 89}, {"time": 3486, "pitch": 59, "duration": 6, "velocity": 89}, {"time": 3492, "pitch": 45, "duration": 23, "velocity": 76}, {"time": 3504, "pitch": 52, "duration": 12, "velocity": 84}, {"time": 3504, "pitch": 57, "duration": 11, "velocity": 89}, {"time": 3504, "pitch": 60, "duration": 15, "velocity": 89}, {"time": 3516, "pitch": 38, "duration": 8, "velocity": 66}, {"time": 3522, "pitch": 50, "duration": 4, "velocity": 100}, {"time": 3522, "pitch": 54, "duration": 4, "velocity": 96}, {"time": 3522, "pitch": 57, "duration": 4, "velocity": 94}, {"time": 3534, "pitch": 50, "duration": 5, "velocity": 82}, {"time": 3534, "pitch": 54, "duration": 5, "velocity": 93}, {"time": 3534, "pitch": 57, "duration": 6, "velocity": 92}, {"time": 3540, "pitch": 43, "duration": 22, "velocity": 73}, {"time": 3552, "pitch": 50, "duration": 10, "velocity": 87}, {"time": 3552, "pitch": 55, "duration": 11, "velocity": 94}, {"time": 3552, "pitch": 59, "duration": 12, "velocity": 97}, {"time": 3564, "pitch": 40, "duration": 25, "velocity": 78}, {"time": 3570, "pitch": 52, "duration": 4, "velocity": 82}, {"time": 3570, "pitch": 55, "duration": 4, "velocity": 94}, {"time": 3570, "pitch": 59, "duration": 4, "velocity": 89}, {"time": 3582, "pitch": 52, "duration": 7, "velocity": 57}, {"time": 3582, "pitch": 55, "duration": 7, "velocity": 50}, {"time": 3582, "pitch": 59, "duration": 7, "velocity": 78}, {"time": 3588, "pitch": 45, "duration": 20, "velocity": 89}, {"time": 3600, "pitch": 52, "duration": 12, "velocity": 89}, {"time": 3600, "pitch": 57, "duration": 11, "velocity": 94}, {"time": 3600, "pitch": 60, "duration": 16, "velocity": 100}, {"time": 3612, "pitch": 38, "duration": 19, "velocity": 78}, {"time": 3618, "pitch": 50, "duration": 3, "velocity": 71}, {"time": 3618, "pitch": 54, "duration": 4, "velocity": 65}, {"time": 3618, "pitch": 57, "duration": 4, "velocity": 94}, {"time": 3630, "pitch": 50, "duration": 8, "velocity": 73}, {"time": 3630, "pitch": 54, "duration": 7, "velocity": 74}, {"time": 3630, "pitch": 57, "duration": 7, "velocity": 80}, {"time": 3636, "pitch": 43, "duration": 21, "velocity": 73}, {"time": 3648, "pitch": 50, "duration": 12, "velocity": 76}, {"time": 3648, "pitch": 55, "duration": 13, "velocity": 89}, {"time": 3648, "pitch": 59, "duration": 13, "velocity": 92}, {"time": 3660, "pitch": 40, "duration": 20, "velocity": 58}, {"time": 3666, "pitch": 52, "duration": 3, "velocity": 73}, {"time": 3666, "pitch": 55, "duration": 3, "velocity": 84}, {"time": 3666, "pitch": 59, "duration": 4, "velocity": 89}, {"time": 3678, "pitch": 52, "duration": 5, "velocity": 87}, {"time": 3678, "pitch": 55, "duration": 5, "velocity": 89}, {"time": 3678, "pitch": 59, "duration": 6, "velocity": 89}, {"time": 3684, "pitch": 45, "duration": 23, "velocity": 76}, {"time": 3696, "pitch": 52, "duration": 12, "velocity": 84}, {"time": 3696, "pitch": 57, "duration": 11, "velocity": 89}, {"time": 3696, "pitch": 60, "duration": 15, "velocity": 89}, {"time": 3708, "pitch": 38, "duration": 8, "velocity": 66}, {"time": 3714, "pitch": 50, "duration": 4, "velocity": 100}, {"time": 3714, "pitch": 54, "duration": 4, "velocity": 96}, {"time": 3714, "pitch": 57, "duration": 4, "velocity": 94}, {"time": 3726, "pitch": 50, "duration": 5, "velocity": 82}, {"time": 3726, "pitch": 54, "duration": 5, "velocity": 93}, {"time": 3726, "pitch": 57, "duration": 6, "velocity": 92}, {"time": 3732, "pitch": 43, "duration": 22, "velocity": 73}, {"time": 3744, "pitch": 50, "duration": 10, "velocity": 87}, {"time": 3744, "pitch": 55, "duration": 11, "velocity": 94}, {"time": 3744, "pitch": 59, "duration": 12, "velocity": 97}, {"time": 3756, "pitch": 40, "duration": 25, "velocity": 78}, {"time": 3762, "pitch": 52, "duration": 4, "velocity": 82}, {"time": 3762, "pitch": 55, "duration": 4, "velocity": 94}, {"time": 3762, "pitch": 59, "duration": 4, "velocity": 89}, {"time": 3774, "pitch": 52, "duration": 7, "velocity": 57}, {"time": 3774, "pitch": 55, "duration": 7, "velocity": 50}, {"time": 3774, "pitch": 59, "duration": 7, "velocity": 78}, {"time": 3780, "pitch": 45, "duration": 20, "velocity": 89}, {"time": 3792, "pitch": 52, "duration": 12, "velocity": 89}, {"time": 3792, "pitch": 57, "duration": 11, "velocity": 94}, {"time": 3792, "pitch": 60, "duration": 16, "velocity": 100}, {"time": 3804, "pitch": 38, "duration": 19, "velocity": 78}, {"time": 3810, "pitch": 50, "duration": 3, "velocity": 71}, {"time": 3810, "pitch": 54, "duration": 4, "velocity": 65}, {"time": 3810, "pitch": 57, "duration": 4, "velocity": 94}, {"time": 3822, "pitch": 50, "duration": 8, "velocity": 73}, {"time": 3822, "pitch": 54, "duration": 7, "velocity": 74}, {"time": 3822, "pitch": 57, "duration": 7, "velocity": 80}, {"time": 3828, "pitch": 43, "duration": 21, "velocity": 73}, {"time": 3840, "pitch": 50, "duration": 12, "velocity": 76}, {"time": 3840, "pitch": 55, "duration": 13, "velocity": 89}, {"time": 3840, "pitch": 59, "duration": 13, "velocity": 92}, {"time": 3852, "pitch": 40, "duration": 20, "velocity": 58}, {"time": 3858, "pitch": 52, "duration": 3, "velocity": 73}, {"time": 3858, "pitch": 55, "duration": 3, "velocity": 84}, {"time": 3858, "pitch": 59, "duration": 4, "velocity": 89}, {"time": 3870, "pitch": 52, "duration": 5, "velocity": 87}, {"time": 3870, "pitch": 55, "duration": 5, "velocity": 89}, {"time": 3870, "pitch": 59, "duration": 6, "velocity": 89}, {"time": 3876, "pitch": 45, "duration": 23, "velocity": 76}, {"time": 3888, "pitch": 52, "duration": 12, "velocity": 84}, {"time": 3888, "pitch": 57, "duration": 11, "velocity": 89}, {"time": 3888, "pitch": 60, "duration": 15, "velocity": 89}, {"time": 3900, "pitch": 38, "duration": 8, "velocity": 66}, {"time": 3906, "pitch": 50, "duration": 4, "velocity": 100}, {"time": 3906, "pitch": 54, "duration": 4, "velocity": 96}, {"time": 3906, "pitch": 57, "duration": 4, "velocity": 94}, {"time": 3918, "pitch": 50, "duration": 5, "velocity": 82}, {"time": 3918, "pitch": 54, "duration": 5, "velocity": 93}, {"time": 3918, "pitch": 57, "duration": 6, "velocity": 92}, {"time": 3924, "pitch": 33, "duration": 3, "velocity": 97}, {"time": 3924, "pitch": 45, "duration": 3, "velocity": 97}, {"time": 3930, "pitch": 28, "duration": 3, "velocity": 94}, {"time": 3930, "pitch": 40, "duration": 3, "velocity": 94}, {"time": 3936, "pitch": 33, "duration": 3, "velocity": 105}, {"time": 3936, "pitch": 45, "duration": 3, "velocity": 105}, {"time": 3942, "pitch": 28, "duration": 3, "velocity": 100}, {"time": 3942, "pitch": 40, "duration": 3, "velocity": 100}, {"time": 3948, "pitch": 33, "duration": 3, "velocity": 100}, {"time": 3948, "pitch": 45, "duration": 3, "velocity": 100}, {"time": 3954, "pitch": 28, "duration": 3, "velocity": 87}, {"time": 3954, "pitch": 40, "duration": 3, "velocity": 87}, {"time": 3960, "pitch": 33, "duration": 3, "velocity": 102}, {"time": 3960, "pitch": 45, "duration": 3, "velocity": 102}, {"time": 3966, "pitch": 28, "duration": 3, "velocity": 89}, {"time": 3966, "pitch": 40, "duration": 3, "velocity": 89}, {"time": 3972, "pitch": 33, "duration": 3, "velocity": 100}, {"time": 3972, "pitch": 45, "duration": 3, "velocity": 100}, {"time": 3978, "pitch": 28, "duration": 3, "velocity": 89}, {"time": 3978, "pitch": 40, "duration": 3, "velocity": 89}, {"time": 3984, "pitch": 33, "duration": 4, "velocity": 102}, {"time": 3984, "pitch": 45, "duration": 4, "velocity": 102}, {"time": 3990, "pitch": 28, "duration": 3, "velocity": 82}, {"time": 3990, "pitch": 40, "duration": 3, "velocity": 82}, {"time": 3996, "pitch": 30, "duration": 3, "velocity": 102}, {"time": 3996, "pitch": 42, "duration": 3, "velocity": 102}, {"time": 4002, "pitch": 26, "duration": 3, "velocity": 94}, {"time": 4002, "pitch": 38, "duration": 3, "velocity": 94}, {"time": 4008, "pitch": 30, "duration": 4, "velocity": 109}, {"time": 4008, "pitch": 42, "duration": 4, "velocity": 109}, {"time": 4014, "pitch": 26, "duration": 4, "velocity": 97}, {"time": 4014, "pitch": 38, "duration": 4, "velocity": 97}, {"time": 4020, "pitch": 31, "duration": 3, "velocity": 100}, {"time": 4020, "pitch": 43, "duration": 3, "velocity": 100}, {"time": 4026, "pitch": 26, "duration": 3, "velocity": 97}, {"time": 4026, "pitch": 38, "duration": 3, "velocity": 97}, {"time": 4032, "pitch": 31, "duration": 4, "velocity": 105}, {"time": 4032, "pitch": 43, "duration": 4, "velocity": 105}, {"time": 4038, "pitch": 26, "duration": 3, "velocity": 82}, {"time": 4038, "pitch": 38, "duration": 3, "velocity": 82}, {"time": 4044, "pitch": 31, "duration": 4, "velocity": 94}, {"time": 4044, "pitch": 43, "duration": 4, "velocity": 94}, {"time": 4050, "pitch": 26, "duration": 3, "velocity": 82}, {"time": 4050, "pitch": 38, "duration": 3, "velocity": 82}, {"time": 4056, "pitch": 31, "duration": 4, "velocity": 97}, {"time": 4056, "pitch": 43, "duration": 4, "velocity": 97}, {"time": 4062, "pitch": 26, "duration": 4, "velocity": 76}, {"time": 4062, "pitch": 38, "duration": 4, "velocity": 76}, {"time": 4068, "pitch": 31, "duration": 3, "velocity": 102}, {"time": 4068, "pitch": 41, "duration": 5, "velocity": 105}, {"time": 4068, "pitch": 43, "duration": 3, "velocity": 102}, {"time": 4074, "pitch": 26, "duration": 3, "velocity": 73}, {"time": 4074, "pitch": 38, "duration": 3, "velocity": 73}, {"time": 4080, "pitch": 26, "duration": 3, "velocity": 73}, {"time": 4080, "pitch": 31, "duration": 4, "velocity": 80}, {"time": 4080, "pitch": 38, "duration": 3, "velocity": 73}, {"time": 4080, "pitch": 43, "duration": 4, "velocity": 80}, {"time": 4086, "pitch": 26, "duration": 3, "velocity": 64}, {"time": 4086, "pitch": 38, "duration": 3, "velocity": 64}, {"time": 4092, "pitch": 31, "duration": 3, "velocity": 105}, {"time": 4092, "pitch": 43, "duration": 3, "velocity": 105}, {"time": 4098, "pitch": 26, "duration": 3, "velocity": 94}, {"time": 4098, "pitch": 38, "duration": 3, "velocity": 94}, {"time": 4104, "pitch": 31, "duration": 4, "velocity": 102}, {"time": 4104, "pitch": 43, "duration": 4, "velocity": 102}, {"time": 4110, "pitch": 26, "duration": 3, "velocity": 92}, {"time": 4110, "pitch": 38, "duration": 3, "velocity": 92}, {"time": 4116, "pitch": 33, "duration": 4, "velocity": 108}, {"time": 4116, "pitch": 45, "duration": 4, "velocity": 108}, {"time": 4122, "pitch": 28, "duration": 3, "velocity": 97}, {"time": 4122, "pitch": 40, "duration": 3, "velocity": 97}, {"time": 4128, "pitch": 33, "duration": 4, "velocity": 108}, {"time": 4128, "pitch": 45, "duration": 4, "velocity": 108}, {"time": 4134, "pitch": 28, "duration": 3, "velocity": 84}, {"time": 4134, "pitch": 40, "duration": 3, "velocity": 84}, {"time": 4140, "pitch": 33, "duration": 4, "velocity": 108}, {"time": 4140, "pitch": 45, "duration": 4, "velocity": 108}, {"time": 4146, "pitch": 28, "duration": 3, "velocity": 78}, {"time": 4146, "pitch": 40, "duration": 3, "velocity": 78}, {"time": 4152, "pitch": 33, "duration": 4, "velocity": 97}, {"time": 4152, "pitch": 45, "duration": 4, "velocity": 97}, {"time": 4158, "pitch": 28, "duration": 3, "velocity": 87}, {"time": 4158, "pitch": 40, "duration": 3, "velocity": 87}, {"time": 4164, "pitch": 33, "duration": 4, "velocity": 100}, {"time": 4164, "pitch": 45, "duration": 4, "velocity": 100}, {"time": 4170, "pitch": 28, "duration": 3, "velocity": 82}, {"time": 4170, "pitch": 40, "duration": 3, "velocity": 82}, {"time": 4176, "pitch": 33, "duration": 4, "velocity": 97}, {"time": 4176, "pitch": 45, "duration": 4, "velocity": 97}, {"time": 4182, "pitch": 28, "duration": 4, "velocity": 87}, {"time": 4182, "pitch": 40, "duration": 4, "velocity": 87}, {"time": 4188, "pitch": 33, "duration": 3, "velocity": 100}, {"time": 4188, "pitch": 45, "duration": 3, "velocity": 100}, {"time": 4194, "pitch": 28, "duration": 3, "velocity": 100}, {"time": 4194, "pitch": 40, "duration": 3, "velocity": 100}, {"time": 4200, "pitch": 33, "duration": 4, "velocity": 94}, {"time": 4200, "pitch": 45, "duration": 4, "velocity": 94}, {"time": 4206, "pitch": 28, "duration": 3, "velocity": 89}, {"time": 4206, "pitch": 40, "duration": 3, "velocity": 89}, {"time": 4212, "pitch": 29, "duration": 3, "velocity": 111}, {"time": 4212, "pitch": 41, "duration": 3, "velocity": 111}, {"time": 4218, "pitch": 24, "duration": 3, "velocity": 105}, {"time": 4218, "pitch": 36, "duration": 3, "velocity": 105}, {"time": 4224, "pitch": 29, "duration": 3, "velocity": 108}, {"time": 4224, "pitch": 41, "duration": 3, "velocity": 108}, {"time": 4230, "pitch": 24, "duration": 3, "velocity": 108}, {"time": 4230, "pitch": 36, "duration": 3, "velocity": 108}, {"time": 4236, "pitch": 29, "duration": 3, "velocity": 111}, {"time": 4236, "pitch": 41, "duration": 3, "velocity": 111}, {"time": 4242, "pitch": 24, "duration": 4, "velocity": 105}, {"time": 4242, "pitch": 36, "duration": 4, "velocity": 105}, {"time": 4248, "pitch": 29, "duration": 4, "velocity": 105}, {"time": 4248, "pitch": 41, "duration": 4, "velocity": 105}, {"time": 4254, "pitch": 24, "duration": 3, "velocity": 108}, {"time": 4254, "pitch": 36, "duration": 3, "velocity": 108}, {"time": 4260, "pitch": 26, "duration": 3, "velocity": 71}, {"time": 4260, "pitch": 38, "duration": 3, "velocity": 71}, {"time": 4260, "pitch": 42, "duration": 3, "velocity": 79}, {"time": 4266, "pitch": 26, "duration": 3, "velocity": 94}, {"time": 4266, "pitch": 38, "duration": 3, "velocity": 94}, {"time": 4266, "pitch": 42, "duration": 3, "velocity": 93}, {"time": 4272, "pitch": 26, "duration": 3, "velocity": 92}, {"time": 4272, "pitch": 38, "duration": 3, "velocity": 92}, {"time": 4272, "pitch": 42, "duration": 3, "velocity": 102}, {"time": 4278, "pitch": 26, "duration": 3, "velocity": 89}, {"time": 4278, "pitch": 38, "duration": 3, "velocity": 89}, {"time": 4278, "pitch": 42, "duration": 3, "velocity": 93}, {"time": 4332, "pitch": 43, "duration": 22, "velocity": 73}, {"time": 4344, "pitch": 50, "duration": 10, "velocity": 87}, {"time": 4344, "pitch": 55, "duration": 11, "velocity": 94}, {"time": 4344, "pitch": 59, "duration": 12, "velocity": 97}, {"time": 4356, "pitch": 40, "duration": 25, "velocity": 78}, {"time": 4362, "pitch": 52, "duration": 4, "velocity": 82}, {"time": 4362, "pitch": 55, "duration": 4, "velocity": 94}, {"time": 4362, "pitch": 59, "duration": 4, "velocity": 89}, {"time": 4374, "pitch": 52, "duration": 7, "velocity": 57}, {"time": 4374, "pitch": 55, "duration": 7, "velocity": 50}, {"time": 4374, "pitch": 59, "duration": 7, "velocity": 78}, {"time": 4380, "pitch": 45, "duration": 20, "velocity": 89}, {"time": 4392, "pitch": 52, "duration": 12, "velocity": 89}, {"time": 4392, "pitch": 57, "duration": 11, "velocity": 94}, {"time": 4392, "pitch": 60, "duration": 16, "velocity": 100}, {"time": 4404, "pitch": 38, "duration": 19, "velocity": 78}, {"time": 4410, "pitch": 50, "duration": 3, "velocity": 71}, {"time": 4410, "pitch": 54, "duration": 4, "velocity": 65}, {"time": 4410, "pitch": 57, "duration": 4, "velocity": 94}, {"time": 4422, "pitch": 50, "duration": 8, "velocity": 73}, {"time": 4422, "pitch": 54, "duration": 7, "velocity": 74}, {"time": 4422, "pitch": 57, "duration": 7, "velocity": 80}, {"time": 4428, "pitch": 43, "duration": 21, "velocity": 73}, {"time": 4440, "pitch": 50, "duration": 12, "velocity": 76}, {"time": 4440, "pitch": 55, "duration": 13, "velocity": 89}, {"time": 4440, "pitch": 59, "duration": 13, "velocity": 92}, {"time": 4452, "pitch": 40, "duration": 20, "velocity": 58}, {"time": 4458, "pitch": 52, "duration": 3, "velocity": 73}, {"time": 4458, "pitch": 55, "duration": 3, "velocity": 84}, {"time": 4458, "pitch": 59, "duration": 4, "velocity": 89}, {"time": 4470, "pitch": 52, "duration": 5, "velocity": 87}, {"time": 4470, "pitch": 55, "duration": 5, "velocity": 89}, {"time": 4470, "pitch": 59, "duration": 6, "velocity": 89}, {"time": 4476, "pitch": 45, "duration": 23, "velocity": 76}, {"time": 4488, "pitch": 52, "duration": 12, "velocity": 84}, {"time": 4488, "pitch": 57, "duration": 11, "velocity": 89}, {"time": 4488, "pitch": 60, "duration": 15, "velocity": 89}, {"time": 4500, "pitch": 38, "duration": 8, "velocity": 66}, {"time": 4506, "pitch": 50, "duration": 4, "velocity": 100}, {"time": 4506, "pitch": 54, "duration": 4, "velocity": 96}, {"time": 4506, "pitch": 57, "duration": 4, "velocity": 94}, {"time": 4518, "pitch": 50, "duration": 5, "velocity": 82}, {"time": 4518, "pitch": 54, "duration": 5, "velocity": 93}, {"time": 4518, "pitch": 57, "duration": 6, "velocity": 92}, {"time": 4524, "pitch": 43, "duration": 22, "velocity": 73}, {"time": 4536, "pitch": 50, "duration": 10, "velocity": 87}, {"time": 4536, "pitch": 55, "duration": 11, "velocity": 94}, {"time": 4536, "pitch": 59, "duration": 12, "velocity": 97}, {"time": 4548, "pitch": 40, "duration": 25, "velocity": 78}, {"time": 4554, "pitch": 52, "duration": 4, "velocity": 82}, {"time": 4554, "pitch": 55, "duration": 4, "velocity": 94}, {"time": 4554, "pitch": 59, "duration": 4, "velocity": 89}, {"time": 4566, "pitch": 52, "duration": 7, "velocity": 57}, {"time": 4566, "pitch": 55, "duration": 7, "velocity": 50}, {"time": 4566, "pitch": 59, "duration": 7, "velocity": 78}, {"time": 4572, "pitch": 45, "duration": 20, "velocity": 89}, {"time": 4584, "pitch": 52, "duration": 12, "velocity": 89}, {"time": 4584, "pitch": 57, "duration": 11, "velocity": 94}, {"time": 4584, "pitch": 60, "duration": 16, "velocity": 100}, {"time": 4596, "pitch": 38, "duration": 19, "velocity": 78}, {"time": 4602, "pitch": 50, "duration": 3, "velocity": 71}, {"time": 4602, "pitch": 54, "duration": 4, "velocity": 65}, {"time": 4602, "pitch": 57, "duration": 4, "velocity": 94}, {"time": 4614, "pitch": 50, "duration": 8, "velocity": 73}, {"time": 4614, "pitch": 54, "duration": 7, "velocity": 74}, {"time": 4614, "pitch": 57, "duration": 7, "velocity": 80}, {"time": 4620, "pitch": 43, "duration": 21, "velocity": 73}, {"time": 4632, "pitch": 50, "duration": 12, "velocity": 76}, {"time": 4632, "pitch": 55, "duration": 13, "velocity": 89}, {"time": 4632, "pitch": 59, "duration": 13, "velocity": 92}, {"time": 4644, "pitch": 40, "duration": 20, "velocity": 58}, {"time": 4650, "pitch": 52, "duration": 3, "velocity": 73}, {"time": 4650, "pitch": 55, "duration": 3, "velocity": 84}, {"time": 4650, "pitch": 59, "duration": 4, "velocity": 89}, {"time": 4662, "pitch": 52, "duration": 5, "velocity": 87}, {"time": 4662, "pitch": 55, "duration": 5, "velocity": 89}, {"time": 4662, "pitch": 59, "duration": 6, "velocity": 89}, {"time": 4668, "pitch": 45, "duration": 23, "velocity": 76}, {"time": 4680, "pitch": 52, "duration": 12, "velocity": 84}, {"time": 4680, "pitch": 57, "duration": 11, "velocity": 89}, {"time": 4680, "pitch": 60, "duration": 15, "velocity": 89}, {"time": 4692, "pitch": 38, "duration": 8, "velocity": 66}, {"time": 4698, "pitch": 50, "duration": 4, "velocity": 100}, {"time": 4698, "pitch": 54, "duration": 4, "velocity": 96}, {"time": 4698, "pitch": 57, "duration": 4, "velocity": 94}, {"time": 4710, "pitch": 50, "duration": 5, "velocity": 82}, {"time": 4710, "pitch": 54, "duration": 5, "velocity": 93}, {"time": 4710, "pitch": 57, "duration": 6, "velocity": 92}, {"time": 4716, "pitch": 43, "duration": 22, "velocity": 73}, {"time": 4728, "pitch": 50, "duration": 10, "velocity": 87}, {"time": 4728, "pitch": 55, "duration": 11, "velocity": 94}, {"time": 4728, "pitch": 59, "duration": 12, "velocity": 97}, {"time": 4740, "pitch": 40, "duration": 25, "velocity": 78}, {"time": 4746, "pitch": 52, "duration": 4, "velocity": 82}, {"time": 4746, "pitch": 55, "duration": 4, "velocity": 94}, {"time": 4746, "pitch": 59, "duration": 4, "velocity": 89}, {"time": 4758, "pitch": 52, "duration": 7, "velocity": 57}, {"time": 4758, "pitch": 55, "duration": 7, "velocity": 50}, {"time": 4758, "pitch": 59, "duration": 7, "velocity": 78}, {"time": 4764, "pitch": 45, "duration": 20, "velocity": 89}, {"time": 4776, "pitch": 52, "duration": 12, "velocity": 89}, {"time": 4776, "pitch": 57, "duration": 11, "velocity": 94}, {"time": 4776, "pitch": 60, "duration": 16, "velocity": 100}, {"time": 4788, "pitch": 38, "duration": 19, "velocity": 78}, {"time": 4794, "pitch": 50, "duration": 3, "velocity": 71}, {"time": 4794, "pitch": 54, "duration": 4, "velocity": 65}, {"time": 4794, "pitch": 57, "duration": 4, "velocity": 94}, {"time": 4806, "pitch": 50, "duration": 8, "velocity": 73}, {"time": 4806, "pitch": 54, "duration": 7, "velocity": 74}, {"time": 4806, "pitch": 57, "duration": 7, "velocity": 80}, {"time": 4812, "pitch": 43, "duration": 21, "velocity": 73}, {"time": 4824, "pitch": 50, "duration": 12, "velocity": 76}, {"time": 4824, "pitch": 55, "duration": 13, "velocity": 89}, {"time": 4824, "pitch": 59, "duration": 13, "velocity": 92}, {"time": 4836, "pitch": 40, "duration": 20, "velocity": 58}, {"time": 4842, "pitch": 52, "duration": 3, "velocity": 73}, {"time": 4842, "pitch": 55, "duration": 3, "velocity": 84}, {"time": 4842, "pitch": 59, "duration": 4, "velocity": 89}, {"time": 4854, "pitch": 52, "duration": 5, "velocity": 87}, {"time": 4854, "pitch": 55, "duration": 5, "velocity": 89}, {"time": 4854, "pitch": 59, "duration": 6, "velocity": 89}, {"time": 4860, "pitch": 45, "duration": 23, "velocity": 76}, {"time": 4872, "pitch": 52, "duration": 12, "velocity": 84}, {"time": 4872, "pitch": 57, "duration": 11, "velocity": 89}, {"time": 4872, "pitch": 60, "duration": 15, "velocity": 89}, {"time": 4884, "pitch": 38, "duration": 8, "velocity": 66}, {"time": 4890, "pitch": 50, "duration": 4, "velocity": 100}, {"time": 4890, "pitch": 54, "duration": 4, "velocity": 96}, {"time": 4890, "pitch": 57, "duration": 4, "velocity": 94}, {"time": 4902, "pitch": 50, "duration": 5, "velocity": 82}, {"time": 4902, "pitch": 54, "duration": 5, "velocity": 93}, {"time": 4902, "pitch": 57, "duration": 6, "velocity": 92}, {"time": 4908, "pitch": 43, "duration": 22, "velocity": 73}, {"time": 4920, "pitch": 50, "duration": 10, "velocity": 87}, {"time": 4920, "pitch": 55, "duration": 11, "velocity": 94}, {"time": 4920, "pitch": 59, "duration": 12, "velocity": 97}, {"time": 4932, "pitch": 40, "duration": 25, "velocity": 78}, {"time": 4938, "pitch": 52, "duration": 4, "velocity": 82}, {"time": 4938, "pitch": 55, "duration": 4, "velocity": 94}, {"time": 4938, "pitch": 59, "duration": 4, "velocity": 89}, {"time": 4950, "pitch": 52, "duration": 7, "velocity": 57}, {"time": 4950, "pitch": 55, "duration": 7, "velocity": 50}, {"time": 4950, "pitch": 59, "duration": 7, "velocity": 78}, {"time": 4956, "pitch": 45, "duration": 20, "velocity": 89}, {"time": 4968, "pitch": 52, "duration": 12, "velocity": 89}, {"time": 4968, "pitch": 57, "duration": 11, "velocity": 94}, {"time": 4968, "pitch": 60, "duration": 16, "velocity": 100}, {"time": 4980, "pitch": 38, "duration": 19, "velocity": 78}, {"time": 4986, "pitch": 50, "duration": 3, "velocity": 71}, {"time": 4986, "pitch": 54, "duration": 4, "velocity": 65}, {"time": 4986, "pitch": 57, "duration": 4, "velocity": 94}, {"time": 4998, "pitch": 50, "duration": 8, "velocity": 73}, {"time": 4998, "pitch": 54, "duration": 7, "velocity": 74}, {"time": 4998, "pitch": 57, "duration": 7, "velocity": 80}, {"time": 5004, "pitch": 43, "duration": 21, "velocity": 73}, {"time": 5016, "pitch": 50, "duration": 12, "velocity": 76}, {"time": 5016, "pitch": 55, "duration": 13, "velocity": 89}, {"time": 5016, "pitch": 59, "duration": 13, "velocity": 92}, {"time": 5028, "pitch": 40, "duration": 20, "velocity": 58}, {"time": 5034, "pitch": 52, "duration": 3, "velocity": 73}, {"time": 5034, "pitch": 55, "duration": 3, "velocity": 84}, {"time": 5034, "pitch": 59, "duration": 4, "velocity": 89}, {"time": 5046, "pitch": 52, "duration": 5, "velocity": 87}, {"time": 5046, "pitch": 55, "duration": 5, "velocity": 89}, {"time": 5046, "pitch": 59, "duration": 6, "velocity": 89}, {"time": 5052, "pitch": 45, "duration": 23, "velocity": 76}, {"time": 5064, "pitch": 52, "duration": 12, "velocity": 84}, {"time": 5064, "pitch": 57, "duration": 11, "velocity": 89}, {"time": 5064, "pitch": 60, "duration": 15, "velocity": 89}, {"time": 5076, "pitch": 38, "duration": 8, "velocity": 66}, {"time": 5082, "pitch": 50, "duration": 4, "velocity": 100}, {"time": 5082, "pitch": 54, "duration": 4, "velocity": 96}, {"time": 5082, "pitch": 57, "duration": 4, "velocity": 94}, {"time": 5094, "pitch": 50, "duration": 5, "velocity": 82}, {"time": 5094, "pitch": 54, "duration": 5, "velocity": 93}, {"time": 5094, "pitch": 57, "duration": 6, "velocity": 92}, {"time": 5098, "pitch": 50, "duration": 1, "velocity": 39}, {"time": 5099, "pitch": 55, "duration": 14, "velocity": 82}, {"time": 5100, "pitch": 43, "duration": 17, "velocity": 92}, {"time": 5101, "pitch": 59, "duration": 12, "velocity": 94}, {"time": 5120, "pitch": 52, "duration": 15, "velocity": 47}, {"time": 5121, "pitch": 55, "duration": 14, "velocity": 89}, {"time": 5122, "pitch": 40, "duration": 17, "velocity": 105}, {"time": 5123, "pitch": 59, "duration": 13, "velocity": 87}, {"time": 5145, "pitch": 52, "duration": 13, "velocity": 41}, {"time": 5146, "pitch": 57, "duration": 11, "velocity": 80}, {"time": 5146, "pitch": 45, "duration": 13, "velocity": 97}, {"time": 5147, "pitch": 60, "duration": 12, "velocity": 60}, {"time": 5168, "pitch": 50, "duration": 24, "velocity": 46}, {"time": 5168, "pitch": 54, "duration": 24, "velocity": 102}, {"time": 5170, "pitch": 38, "duration": 22, "velocity": 97}, {"time": 5171, "pitch": 57, "duration": 21, "velocity": 51}, {"time": 5190, "pitch": 50, "duration": 2, "velocity": 55}, {"time": 5192, "pitch": 55, "duration": 18, "velocity": 80}, {"time": 5192, "pitch": 43, "duration": 19, "velocity": 76}, {"time": 5194, "pitch": 59, "duration": 18, "velocity": 84}, {"time": 5212, "pitch": 52, "duration": 18, "velocity": 73}, {"time": 5213, "pitch": 40, "duration": 22, "velocity": 100}, {"time": 5213, "pitch": 55, "duration": 16, "velocity": 69}, {"time": 5214, "pitch": 59, "duration": 17, "velocity": 57}, {"time": 5232, "pitch": 52, "duration": 17, "velocity": 55}, {"time": 5233, "pitch": 57, "duration": 16, "velocity": 78}, {"time": 5233, "pitch": 45, "duration": 18, "velocity": 97}, {"time": 5235, "pitch": 60, "duration": 14, "velocity": 43}, {"time": 5251, "pitch": 60, "duration": 3, "velocity": 87}, {"time": 5251, "pitch": 57, "duration": 3, "velocity": 76}, {"time": 5252, "pitch": 52, "duration": 3, "velocity": 71}, {"time": 5254, "pitch": 38, "duration": 22, "velocity": 58}, {"time": 5266, "pitch": 54, "duration": 8, "velocity": 96}, {"time": 5266, "pitch": 57, "duration": 9, "velocity": 92}, {"time": 5266, "pitch": 50, "duration": 9, "velocity": 80}, {"time": 5278, "pitch": 50, "duration": 21, "velocity": 71}, {"time": 5278, "pitch": 55, "duration": 22, "velocity": 82}, {"time": 5278, "pitch": 43, "duration": 23, "velocity": 67}, {"time": 5303, "pitch": 52, "duration": 20, "velocity": 62}, {"time": 5304, "pitch": 40, "duration": 23, "velocity": 100}, {"time": 5304, "pitch": 55, "duration": 19, "velocity": 50}, {"time": 5305, "pitch": 59, "duration": 17, "velocity": 76}, {"time": 5328, "pitch": 52, "duration": 22, "velocity": 51}, {"time": 5329, "pitch": 57, "duration": 17, "velocity": 62}, {"time": 5329, "pitch": 45, "duration": 25, "velocity": 100}, {"time": 5331, "pitch": 60, "duration": 27, "velocity": 67}, {"time": 5356, "pitch": 50, "duration": 30, "velocity": 51}, {"time": 5357, "pitch": 54, "duration": 29, "velocity": 57}, {"time": 5357, "pitch": 38, "duration": 26, "velocity": 97}, {"time": 5358, "pitch": 57, "duration": 27, "velocity": 45}, {"time": 5388, "pitch": 43, "duration": 69, "velocity": 84}, {"time": 5391, "pitch": 50, "duration": 69, "velocity": 66}, {"time": 5393, "pitch": 55, "duration": 67, "velocity": 73}, {"time": 5394, "pitch": 59, "duration": 66, "velocity": 71}], "annotations": [{"time": 1055, "annotation": {"number": 64, "value": 127}, "group": "control_change"}, {"time": 1066, "annotation": {"number": 64, "value": 0}, "group": "control_change"}, {"time": 1102, "annotation": {"number": 64, "value": 127}, "group": "control_change"}, {"time": 1114, "annotation": {"number": 64, "value": 0}, "group": "control_change"}, {"time": 1247, "annotation": {"number": 64, "value": 127}, "group": "control_change"}, {"time": 1258, "annotation": {"number": 64, "value": 0}, "group": "control_change"}, {"time": 1294, "annotation": {"number": 64, "value": 127}, "group": "control_change"}, {"time": 1306, "annotation": {"number": 64, "value": 0}, "group": "control_change"}, {"time": 1439, "annotation": {"number": 64, "value": 127}, "group": "control_change"}, {"time": 1450, "annotation": {"number": 64, "value": 0}, "group": "control_change"}, {"time": 1486, "annotation": {"number": 64, "value": 127}, "group": "control_change"}, {"time": 1498, "annotation": {"number": 64, "value": 0}, "group": "control_change"}, {"time": 1631, "annotation": {"number": 64, "value": 127}, "group": "control_change"}, {"time": 1642, "annotation": {"number": 64, "value": 0}, "group": "control_change"}, {"time": 1678, "annotation": {"number": 64, "value": 127}, "group": "control_change"}, {"time": 1690, "annotation": {"number": 64, "value": 0}, "group": "control_change"}, {"time": 2207, "annotation": {"number": 64, "value": 127}, "group": "control_change"}, {"time": 2218, "annotation": {"number": 64, "value": 0}, "group": "control_change"}, {"time": 2254, "annotation": {"number": 64, "value": 127}, "group": "control_change"}, {"time": 2266, "annotation": {"number": 64, "value": 0}, "group": "control_change"}, {"time": 2399, "annotation": {"number": 64, "value": 127}, "group": "control_change"}, {"time": 2410, "annotation": {"number": 64, "value": 0}, "group": "control_change"}, {"time": 2446, "annotation": {"number": 64, "value": 127}, "group": "control_change"}, {"time": 2458, "annotation": {"number": 64, "value": 0}, "group": "control_change"}, {"time": 2805, "annotation": {"number": 64, "value": 127}, "group": "control_change"}, {"time": 2818, "annotation": {"number": 64, "value": 0}, "group": "control_change"}, {"time": 2832, "annotation": {"number": 64, "value": 127}, "group": "control_change"}, {"time": 2862, "annotation": {"number": 64, "value": 0}, "group": "control_change"}, {"time": 2880, "annotation": {"number": 64, "value": 127}, "group": "control_change"}, {"time": 2917, "annotation": {"number": 64, "value": 0}, "group": "control_change"}, {"time": 2929, "annotation": {"number": 64, "value": 127}, "group": "control_change"}, {"time": 2937, "annotation": {"number": 64, "value": 0}, "group": "control_change"}, {"time": 3167, "annotation": {"number": 64, "value": 127}, "group": "control_change"}, {"time": 3178, "annotation": {"number": 64, "value": 0}, "group": "control_change"}, {"time": 3214, "annotation": {"number": 64, "value": 127}, "group": "control_change"}, {"time": 3226, "annotation": {"number": 64, "value": 0}, "group": "control_change"}, {"time": 3359, "annotation": {"number": 64, "value": 127}, "group": "control_change"}, {"time": 3370, "annotation": {"number": 64, "value": 0}, "group": "control_change"}, {"time": 3406, "annotation": {"number": 64, "value": 127}, "group": "control_change"}, {"time": 3418, "annotation": {"number": 64, "value": 0}, "group": "control_change"}, {"time": 3551, "annotation": {"number": 64, "value": 127}, "group": "control_change"}, {"time": 3562, "annotation": {"number": 64, "value": 0}, "group": "control_change"}, {"time": 3598, "annotation": {"number": 64, "value": 127}, "group": "control_change"}, {"time": 3610, "annotation": {"number": 64, "value": 0}, "group": "control_change"}, {"time": 3743, "annotation": {"number": 64, "value": 127}, "group": "control_change"}, {"time": 3754, "annotation": {"number": 64, "value": 0}, "group": "control_change"}, {"time": 3790, "annotation": {"number": 64, "value": 127}, "group": "control_change"}, {"time": 3802, "annotation": {"number": 64, "value": 0}, "group": "control_change"}, {"time": 4343, "annotation": {"number": 64, "value": 127}, "group": "control_change"}, {"time": 4354, "annotation": {"number": 64, "value": 0}, "group": "control_change"}, {"time": 4390, "annotation": {"number": 64, "value": 127}, "group": "control_change"}, {"time": 4402, "annotation": {"number": 64, "value": 0}, "group": "control_change"}, {"time": 4535, "annotation": {"number": 64, "value": 127}, "group": "control_change"}, {"time": 4546, "annotation": {"number": 64, "value": 0}, "group": "control_change"}, {"time": 4582, "annotation": {"number": 64, "value": 127}, "group": "control_change"}, {"time": 4594, "annotation": {"number": 64, "value": 0}, "group": "control_change"}, {"time": 4727, "annotation": {"number": 64, "value": 127}, "group": "control_change"}, {"time": 4738, "annotation": {"number": 64, "value": 0}, "group": "control_change"}, {"time": 4774, "annotation": {"number": 64, "value": 127}, "group": "control_change"}, {"time": 4786, "annotation": {"number": 64, "value": 0}, "group": "control_change"}, {"time": 4919, "annotation": {"number": 64, "value": 127}, "group": "control_change"}, {"time": 4930, "annotation": {"number": 64, "value": 0}, "group": "control_change"}, {"time": 4966, "annotation": {"number": 64, "value": 127}, "group": "control_change"}, {"time": 4978, "annotation": {"number": 64, "value": 0}, "group": "control_change"}, {"time": 5102, "annotation": {"number": 64, "value": 127}, "group": "control_change"}, {"time": 5121, "annotation": {"number": 64, "value": 0}, "group": "control_change"}, {"time": 5127, "annotation": {"number": 64, "value": 127}, "group": "control_change"}, {"time": 5143, "annotation": {"number": 64, "value": 0}, "group": "control_change"}, {"time": 5149, "annotation": {"number": 64, "value": 127}, "group": "control_change"}, {"time": 5165, "annotation": {"number": 64, "value": 0}, "group": "control_change"}, {"time": 5245, "annotation": {"number": 64, "value": 127}, "group": "control_change"}, {"time": 5254, "annotation": {"number": 64, "value": 0}, "group": "control_change"}, {"time": 5395, "annotation": {"number": 64, "value": 127}, "group": "control_change"}, {"time": 5487, "annotation": {"number": 64, "value": 0}, "group": "control_change"}]}]}