{"metadata": {"schema_version": "0.2", "title": "None", "source_filename": "141.mid", "source_format": "midi"}, "resolution": 12, "tempos": [{"time": 0, "qpm": 80.0}, {"time": 180, "qpm": 79.70000916550106}, {"time": 588, "qpm": 79.4499941736671}, {"time": 751, "qpm": 79.60030035846668}, {"time": 1076, "qpm": 79.4499941736671}, {"time": 1206, "qpm": 79.60030035846668}, {"time": 1232, "qpm": 79.8001803484076}, {"time": 1512, "qpm": 80.0}, {"time": 1625, "qpm": 79.85020102288108}, {"time": 1667, "qpm": 79.40005319803564}, {"time": 1894, "qpm": 79.2000792000792}, {"time": 1933, "qpm": 79.40005319803564}, {"time": 2241, "qpm": 79.49999801250004}, {"time": 2283, "qpm": 79.8001803484076}, {"time": 2493, "qpm": 79.65007068943774}, {"time": 2585, "qpm": 79.55006483330284}], "time_signatures": [{"time": 0, "numerator": 1, "denominator": 4}], "tracks": [{"program": 0, "is_drum": false, "name": "MELODY", "notes": [{"time": 586, "pitch": 62, "duration": 12, "velocity": 94}, {"time": 598, "pitch": 62, "duration": 6, "velocity": 80}, {"time": 604, "pitch": 60, "duration": 6, "velocity": 100}, {"time": 610, "pitch": 62, "duration": 6, "velocity": 92}, {"time": 616, "pitch": 64, "duration": 6, "velocity": 97}, {"time": 622, "pitch": 65, "duration": 12, "velocity": 92}, {"time": 634, "pitch": 58, "duration": 6, "velocity": 105}, {"time": 640, "pitch": 65, "duration": 6, "velocity": 97}, {"time": 646, "pitch": 64, "duration": 6, "velocity": 105}, {"time": 652, "pitch": 65, "duration": 6, "velocity": 100}, {"time": 658, "pitch": 64, "duration": 24, "velocity": 97}, {"time": 682, "pitch": 64, "duration": 12, "velocity": 100}, {"time": 694, "pitch": 64, "duration": 6, "velocity": 94}, {"time": 700, "pitch": 62, "duration": 6, "velocity": 89}, {"time": 706, "pitch": 61, "duration": 9, "velocity": 85}, {"time": 715, "pitch": 57, "duration": 10, "velocity": 111}, {"time": 724, "pitch": 64, "duration": 12, "velocity": 108}, {"time": 736, "pitch": 62, "duration": 42, "velocity": 92}, {"time": 778, "pitch": 62, "duration": 12, "velocity": 89}, {"time": 790, "pitch": 62, "duration": 6, "velocity": 92}, {"time": 796, "pitch": 60, "duration": 6, "velocity": 111}, {"time": 802, "pitch": 62, "duration": 6, "velocity": 102}, {"time": 808, "pitch": 64, "duration": 6, "velocity": 100}, {"time": 814, "pitch": 65, "duration": 12, "velocity": 105}, {"time": 826, "pitch": 58, "duration": 18, "velocity": 93}, {"time": 844, "pitch": 65, "duration": 6, "velocity": 105}, {"time": 850, "pitch": 64, "duration": 18, "velocity": 102}, {"time": 868, "pitch": 65, "duration": 6, "velocity": 114}, {"time": 874, "pitch": 67, "duration": 18, "velocity": 105}, {"time": 892, "pitch": 67, "duration": 6, "velocity": 102}, {"time": 898, "pitch": 64, "duration": 9, "velocity": 92}, {"time": 907, "pitch": 64, "duration": 9, "velocity": 92}, {"time": 916, "pitch": 60, "duration": 6, "velocity": 94}, {"time": 922, "pitch": 62, "duration": 90, "velocity": 100}, {"time": 1012, "pitch": 62, "duration": 6, "velocity": 100}, {"time": 1018, "pitch": 65, "duration": 18, "velocity": 102}, {"time": 1036, "pitch": 64, "duration": 6, "velocity": 111}, {"time": 1042, "pitch": 62, "duration": 18, "velocity": 111}, {"time": 1060, "pitch": 69, "duration": 12, "velocity": 100}, {"time": 1072, "pitch": 67, "duration": 36, "velocity": 102}, {"time": 1108, "pitch": 65, "duration": 6, "velocity": 94}, {"time": 1114, "pitch": 67, "duration": 24, "velocity": 102}, {"time": 1138, "pitch": 67, "duration": 18, "velocity": 108}, {"time": 1156, "pitch": 67, "duration": 6, "velocity": 102}, {"time": 1162, "pitch": 65, "duration": 18, "velocity": 102}, {"time": 1180, "pitch": 62, "duration": 30, "velocity": 100}, {"time": 1210, "pitch": 69, "duration": 9, "velocity": 102}, {"time": 1219, "pitch": 67, "duration": 3, "velocity": 94}, {"time": 1222, "pitch": 69, "duration": 6, "velocity": 108}, {"time": 1228, "pitch": 67, "duration": 6, "velocity": 102}, {"time": 1234, "pitch": 65, "duration": 12, "velocity": 105}, {"time": 1246, "pitch": 62, "duration": 12, "velocity": 105}, {"time": 1258, "pitch": 67, "duration": 6, "velocity": 50}, {"time": 1264, "pitch": 65, "duration": 6, "velocity": 100}, {"time": 1270, "pitch": 67, "duration": 6, "velocity": 105}, {"time": 1276, "pitch": 65, "duration": 6, "velocity": 97}, {"time": 1282, "pitch": 64, "duration": 12, "velocity": 105}, {"time": 1294, "pitch": 62, "duration": 12, "velocity": 102}, {"time": 1306, "pitch": 65, "duration": 18, "velocity": 100}, {"time": 1324, "pitch": 64, "duration": 6, "velocity": 100}, {"time": 1330, "pitch": 65, "duration": 18, "velocity": 100}, {"time": 1348, "pitch": 65, "duration": 6, "velocity": 100}, {"time": 1354, "pitch": 67, "duration": 18, "velocity": 108}, {"time": 1372, "pitch": 65, "duration": 6, "velocity": 82}, {"time": 1378, "pitch": 67, "duration": 36, "velocity": 108}, {"time": 1414, "pitch": 67, "duration": 6, "velocity": 102}, {"time": 1420, "pitch": 69, "duration": 6, "velocity": 100}, {"time": 1426, "pitch": 67, "duration": 18, "velocity": 108}, {"time": 1444, "pitch": 60, "duration": 6, "velocity": 105}, {"time": 1450, "pitch": 62, "duration": 74, "velocity": 102}, {"time": 1930, "pitch": 62, "duration": 12, "velocity": 94}, {"time": 1942, "pitch": 62, "duration": 6, "velocity": 80}, {"time": 1948, "pitch": 60, "duration": 6, "velocity": 100}, {"time": 1954, "pitch": 62, "duration": 6, "velocity": 92}, {"time": 1960, "pitch": 64, "duration": 6, "velocity": 97}, {"time": 1966, "pitch": 65, "duration": 12, "velocity": 92}, {"time": 1978, "pitch": 58, "duration": 6, "velocity": 105}, {"time": 1984, "pitch": 65, "duration": 6, "velocity": 97}, {"time": 1990, "pitch": 64, "duration": 6, "velocity": 105}, {"time": 1996, "pitch": 65, "duration": 6, "velocity": 100}, {"time": 2002, "pitch": 64, "duration": 24, "velocity": 97}, {"time": 2026, "pitch": 64, "duration": 12, "velocity": 100}, {"time": 2038, "pitch": 64, "duration": 6, "velocity": 94}, {"time": 2044, "pitch": 62, "duration": 6, "velocity": 89}, {"time": 2050, "pitch": 61, "duration": 9, "velocity": 85}, {"time": 2059, "pitch": 57, "duration": 10, "velocity": 111}, {"time": 2068, "pitch": 64, "duration": 12, "velocity": 108}, {"time": 2080, "pitch": 62, "duration": 42, "velocity": 92}, {"time": 2122, "pitch": 62, "duration": 12, "velocity": 89}, {"time": 2134, "pitch": 62, "duration": 6, "velocity": 92}, {"time": 2140, "pitch": 60, "duration": 6, "velocity": 111}, {"time": 2146, "pitch": 62, "duration": 6, "velocity": 102}, {"time": 2152, "pitch": 64, "duration": 6, "velocity": 100}, {"time": 2158, "pitch": 65, "duration": 12, "velocity": 105}, {"time": 2170, "pitch": 58, "duration": 18, "velocity": 93}, {"time": 2188, "pitch": 65, "duration": 6, "velocity": 105}, {"time": 2194, "pitch": 64, "duration": 18, "velocity": 102}, {"time": 2212, "pitch": 65, "duration": 6, "velocity": 114}, {"time": 2218, "pitch": 67, "duration": 18, "velocity": 105}, {"time": 2236, "pitch": 67, "duration": 6, "velocity": 102}, {"time": 2242, "pitch": 64, "duration": 9, "velocity": 92}, {"time": 2251, "pitch": 64, "duration": 9, "velocity": 92}, {"time": 2260, "pitch": 60, "duration": 6, "velocity": 94}, {"time": 2266, "pitch": 62, "duration": 90, "velocity": 100}, {"time": 2356, "pitch": 62, "duration": 6, "velocity": 100}, {"time": 2362, "pitch": 65, "duration": 18, "velocity": 102}, {"time": 2380, "pitch": 64, "duration": 6, "velocity": 111}, {"time": 2386, "pitch": 62, "duration": 18, "velocity": 111}, {"time": 2404, "pitch": 69, "duration": 12, "velocity": 100}, {"time": 2416, "pitch": 67, "duration": 36, "velocity": 102}, {"time": 2452, "pitch": 65, "duration": 6, "velocity": 94}, {"time": 2458, "pitch": 67, "duration": 24, "velocity": 102}, {"time": 2482, "pitch": 67, "duration": 18, "velocity": 108}, {"time": 2500, "pitch": 67, "duration": 6, "velocity": 102}, {"time": 2506, "pitch": 65, "duration": 18, "velocity": 102}, {"time": 2524, "pitch": 62, "duration": 30, "velocity": 100}, {"time": 2554, "pitch": 69, "duration": 9, "velocity": 102}, {"time": 2563, "pitch": 67, "duration": 3, "velocity": 94}, {"time": 2566, "pitch": 69, "duration": 6, "velocity": 108}, {"time": 2572, "pitch": 67, "duration": 6, "velocity": 102}, {"time": 2578, "pitch": 65, "duration": 12, "velocity": 105}, {"time": 2590, "pitch": 62, "duration": 12, "velocity": 105}, {"time": 2602, "pitch": 67, "duration": 6, "velocity": 50}, {"time": 2608, "pitch": 65, "duration": 6, "velocity": 100}, {"time": 2614, "pitch": 67, "duration": 6, "velocity": 105}, {"time": 2620, "pitch": 65, "duration": 6, "velocity": 97}, {"time": 2626, "pitch": 64, "duration": 12, "velocity": 105}, {"time": 2638, "pitch": 62, "duration": 12, "velocity": 102}, {"time": 2650, "pitch": 65, "duration": 18, "velocity": 100}, {"time": 2668, "pitch": 64, "duration": 6, "velocity": 100}, {"time": 2674, "pitch": 65, "duration": 18, "velocity": 100}, {"time": 2692, "pitch": 65, "duration": 6, "velocity": 100}, {"time": 2698, "pitch": 67, "duration": 18, "velocity": 108}, {"time": 2716, "pitch": 65, "duration": 6, "velocity": 82}, {"time": 2722, "pitch": 67, "duration": 36, "velocity": 108}, {"time": 2758, "pitch": 67, "duration": 6, "velocity": 102}, {"time": 2764, "pitch": 69, "duration": 6, "velocity": 100}, {"time": 2770, "pitch": 67, "duration": 18, "velocity": 108}, {"time": 2788, "pitch": 60, "duration": 6, "velocity": 105}, {"time": 2794, "pitch": 62, "duration": 74, "velocity": 102}, {"time": 3268, "pitch": 62, "duration": 6, "velocity": 100}, {"time": 3274, "pitch": 65, "duration": 18, "velocity": 102}, {"time": 3292, "pitch": 64, "duration": 6, "velocity": 111}, {"time": 3298, "pitch": 62, "duration": 18, "velocity": 111}, {"time": 3316, "pitch": 69, "duration": 12, "velocity": 100}, {"time": 3328, "pitch": 67, "duration": 36, "velocity": 102}, {"time": 3364, "pitch": 65, "duration": 6, "velocity": 94}, {"time": 3370, "pitch": 67, "duration": 24, "velocity": 102}, {"time": 3394, "pitch": 67, "duration": 18, "velocity": 108}, {"time": 3412, "pitch": 67, "duration": 6, "velocity": 102}, {"time": 3418, "pitch": 65, "duration": 18, "velocity": 102}, {"time": 3436, "pitch": 62, "duration": 30, "velocity": 100}, {"time": 3466, "pitch": 69, "duration": 9, "velocity": 102}, {"time": 3475, "pitch": 67, "duration": 3, "velocity": 94}, {"time": 3478, "pitch": 69, "duration": 6, "velocity": 108}, {"time": 3484, "pitch": 67, "duration": 6, "velocity": 102}, {"time": 3490, "pitch": 65, "duration": 12, "velocity": 105}, {"time": 3502, "pitch": 62, "duration": 12, "velocity": 105}, {"time": 3514, "pitch": 67, "duration": 6, "velocity": 50}, {"time": 3520, "pitch": 65, "duration": 6, "velocity": 100}, {"time": 3526, "pitch": 67, "duration": 6, "velocity": 105}, {"time": 3532, "pitch": 65, "duration": 6, "velocity": 97}, {"time": 3538, "pitch": 64, "duration": 12, "velocity": 105}, {"time": 3550, "pitch": 62, "duration": 12, "velocity": 102}, {"time": 3562, "pitch": 65, "duration": 18, "velocity": 100}, {"time": 3580, "pitch": 64, "duration": 6, "velocity": 100}, {"time": 3586, "pitch": 65, "duration": 18, "velocity": 100}, {"time": 3604, "pitch": 65, "duration": 6, "velocity": 100}, {"time": 3610, "pitch": 67, "duration": 18, "velocity": 108}, {"time": 3628, "pitch": 65, "duration": 6, "velocity": 82}, {"time": 3634, "pitch": 67, "duration": 36, "velocity": 108}, {"time": 3670, "pitch": 67, "duration": 6, "velocity": 102}, {"time": 3676, "pitch": 69, "duration": 6, "velocity": 100}, {"time": 3682, "pitch": 67, "duration": 18, "velocity": 108}, {"time": 3700, "pitch": 60, "duration": 6, "velocity": 105}, {"time": 3706, "pitch": 62, "duration": 74, "velocity": 102}]}, {"program": 0, "is_drum": false, "name": "BRIDGE", "notes": [{"time": 10, "pitch": 77, "duration": 6, "velocity": 102}, {"time": 16, "pitch": 69, "duration": 6, "velocity": 102}, {"time": 22, "pitch": 76, "duration": 6, "velocity": 97}, {"time": 28, "pitch": 69, "duration": 4, "velocity": 92}, {"time": 31, "pitch": 77, "duration": 7, "velocity": 102}, {"time": 37, "pitch": 69, "duration": 4, "velocity": 94}, {"time": 40, "pitch": 76, "duration": 6, "velocity": 97}, {"time": 46, "pitch": 69, "duration": 6, "velocity": 102}, {"time": 52, "pitch": 77, "duration": 6, "velocity": 102}, {"time": 58, "pitch": 76, "duration": 6, "velocity": 87}, {"time": 64, "pitch": 67, "duration": 6, "velocity": 94}, {"time": 70, "pitch": 74, "duration": 6, "velocity": 87}, {"time": 76, "pitch": 67, "duration": 4, "velocity": 60}, {"time": 79, "pitch": 76, "duration": 6, "velocity": 100}, {"time": 85, "pitch": 67, "duration": 3, "velocity": 92}, {"time": 88, "pitch": 74, "duration": 7, "velocity": 94}, {"time": 94, "pitch": 67, "duration": 6, "velocity": 100}, {"time": 100, "pitch": 72, "duration": 6, "velocity": 100}, {"time": 106, "pitch": 74, "duration": 6, "velocity": 97}, {"time": 112, "pitch": 65, "duration": 6, "velocity": 97}, {"time": 118, "pitch": 72, "duration": 6, "velocity": 87}, {"time": 124, "pitch": 65, "duration": 4, "velocity": 82}, {"time": 127, "pitch": 74, "duration": 7, "velocity": 100}, {"time": 133, "pitch": 65, "duration": 4, "velocity": 73}, {"time": 136, "pitch": 72, "duration": 6, "velocity": 84}, {"time": 142, "pitch": 70, "duration": 6, "velocity": 87}, {"time": 148, "pitch": 74, "duration": 6, "velocity": 102}, {"time": 154, "pitch": 72, "duration": 6, "velocity": 84}, {"time": 160, "pitch": 65, "duration": 6, "velocity": 82}, {"time": 166, "pitch": 74, "duration": 7, "velocity": 94}, {"time": 172, "pitch": 65, "duration": 3, "velocity": 73}, {"time": 175, "pitch": 72, "duration": 12, "velocity": 87}, {"time": 187, "pitch": 67, "duration": 3, "velocity": 108}, {"time": 190, "pitch": 69, "duration": 3, "velocity": 105}, {"time": 193, "pitch": 72, "duration": 3, "velocity": 100}, {"time": 196, "pitch": 77, "duration": 3, "velocity": 84}, {"time": 199, "pitch": 76, "duration": 3, "velocity": 114}, {"time": 202, "pitch": 74, "duration": 27, "velocity": 117}, {"time": 202, "pitch": 89, "duration": 6, "velocity": 102}, {"time": 208, "pitch": 81, "duration": 6, "velocity": 102}, {"time": 214, "pitch": 88, "duration": 6, "velocity": 97}, {"time": 220, "pitch": 81, "duration": 4, "velocity": 92}, {"time": 223, "pitch": 89, "duration": 7, "velocity": 102}, {"time": 229, "pitch": 81, "duration": 4, "velocity": 94}, {"time": 232, "pitch": 88, "duration": 6, "velocity": 97}, {"time": 238, "pitch": 81, "duration": 6, "velocity": 102}, {"time": 241, "pitch": 72, "duration": 3, "velocity": 108}, {"time": 244, "pitch": 74, "duration": 3, "velocity": 105}, {"time": 244, "pitch": 89, "duration": 6, "velocity": 102}, {"time": 247, "pitch": 77, "duration": 3, "velocity": 102}, {"time": 250, "pitch": 79, "duration": 12, "velocity": 117}, {"time": 250, "pitch": 88, "duration": 6, "velocity": 87}, {"time": 256, "pitch": 79, "duration": 6, "velocity": 94}, {"time": 262, "pitch": 86, "duration": 6, "velocity": 87}, {"time": 265, "pitch": 77, "duration": 3, "velocity": 108}, {"time": 268, "pitch": 79, "duration": 3, "velocity": 60}, {"time": 268, "pitch": 79, "duration": 3, "velocity": 111}, {"time": 271, "pitch": 81, "duration": 10, "velocity": 114}, {"time": 271, "pitch": 88, "duration": 6, "velocity": 100}, {"time": 277, "pitch": 79, "duration": 3, "velocity": 92}, {"time": 280, "pitch": 86, "duration": 7, "velocity": 94}, {"time": 286, "pitch": 79, "duration": 6, "velocity": 100}, {"time": 292, "pitch": 84, "duration": 6, "velocity": 100}, {"time": 298, "pitch": 86, "duration": 5, "velocity": 97}, {"time": 301, "pitch": 74, "duration": 3, "velocity": 108}, {"time": 304, "pitch": 77, "duration": 3, "velocity": 97}, {"time": 304, "pitch": 77, "duration": 3, "velocity": 102}, {"time": 307, "pitch": 79, "duration": 3, "velocity": 111}, {"time": 310, "pitch": 81, "duration": 6, "velocity": 117}, {"time": 310, "pitch": 84, "duration": 6, "velocity": 87}, {"time": 316, "pitch": 77, "duration": 4, "velocity": 82}, {"time": 316, "pitch": 79, "duration": 3, "velocity": 117}, {"time": 319, "pitch": 84, "duration": 6, "velocity": 123}, {"time": 319, "pitch": 86, "duration": 7, "velocity": 100}, {"time": 325, "pitch": 77, "duration": 4, "velocity": 73}, {"time": 325, "pitch": 82, "duration": 3, "velocity": 112}, {"time": 328, "pitch": 81, "duration": 6, "velocity": 114}, {"time": 328, "pitch": 84, "duration": 6, "velocity": 84}, {"time": 334, "pitch": 79, "duration": 3, "velocity": 105}, {"time": 334, "pitch": 82, "duration": 5, "velocity": 87}, {"time": 337, "pitch": 77, "duration": 4, "velocity": 111}, {"time": 340, "pitch": 86, "duration": 6, "velocity": 102}, {"time": 346, "pitch": 76, "duration": 3, "velocity": 114}, {"time": 346, "pitch": 84, "duration": 6, "velocity": 84}, {"time": 349, "pitch": 74, "duration": 9, "velocity": 108}, {"time": 352, "pitch": 77, "duration": 6, "velocity": 82}, {"time": 358, "pitch": 69, "duration": 4, "velocity": 117}, {"time": 358, "pitch": 86, "duration": 7, "velocity": 94}, {"time": 361, "pitch": 67, "duration": 3, "velocity": 94}, {"time": 364, "pitch": 65, "duration": 6, "velocity": 105}, {"time": 364, "pitch": 77, "duration": 3, "velocity": 73}, {"time": 367, "pitch": 85, "duration": 12, "velocity": 87}, {"time": 370, "pitch": 69, "duration": 18, "velocity": 117}, {"time": 388, "pitch": 74, "duration": 3, "velocity": 100}, {"time": 391, "pitch": 74, "duration": 3, "velocity": 105}, {"time": 394, "pitch": 79, "duration": 6, "velocity": 114}, {"time": 394, "pitch": 89, "duration": 6, "velocity": 102}, {"time": 400, "pitch": 77, "duration": 7, "velocity": 120}, {"time": 400, "pitch": 81, "duration": 6, "velocity": 102}, {"time": 406, "pitch": 76, "duration": 6, "velocity": 108}, {"time": 406, "pitch": 88, "duration": 6, "velocity": 97}, {"time": 412, "pitch": 81, "duration": 4, "velocity": 92}, {"time": 415, "pitch": 76, "duration": 3, "velocity": 100}, {"time": 415, "pitch": 89, "duration": 7, "velocity": 102}, {"time": 418, "pitch": 74, "duration": 15, "velocity": 100}, {"time": 421, "pitch": 81, "duration": 4, "velocity": 94}, {"time": 424, "pitch": 88, "duration": 6, "velocity": 97}, {"time": 430, "pitch": 81, "duration": 6, "velocity": 102}, {"time": 433, "pitch": 72, "duration": 4, "velocity": 111}, {"time": 436, "pitch": 74, "duration": 3, "velocity": 108}, {"time": 436, "pitch": 89, "duration": 6, "velocity": 102}, {"time": 439, "pitch": 77, "duration": 3, "velocity": 105}, {"time": 442, "pitch": 79, "duration": 3, "velocity": 111}, {"time": 442, "pitch": 88, "duration": 4, "velocity": 87}, {"time": 445, "pitch": 79, "duration": 3, "velocity": 97}, {"time": 448, "pitch": 77, "duration": 6, "velocity": 117}, {"time": 448, "pitch": 79, "duration": 6, "velocity": 94}, {"time": 454, "pitch": 86, "duration": 6, "velocity": 87}, {"time": 457, "pitch": 74, "duration": 5, "velocity": 117}, {"time": 460, "pitch": 79, "duration": 4, "velocity": 60}, {"time": 463, "pitch": 84, "duration": 3, "velocity": 117}, {"time": 463, "pitch": 88, "duration": 6, "velocity": 100}, {"time": 466, "pitch": 81, "duration": 12, "velocity": 114}, {"time": 469, "pitch": 79, "duration": 3, "velocity": 92}, {"time": 472, "pitch": 86, "duration": 7, "velocity": 94}, {"time": 478, "pitch": 79, "duration": 6, "velocity": 100}, {"time": 484, "pitch": 84, "duration": 6, "velocity": 100}, {"time": 490, "pitch": 86, "duration": 6, "velocity": 97}, {"time": 496, "pitch": 77, "duration": 5, "velocity": 97}, {"time": 499, "pitch": 86, "duration": 3, "velocity": 117}, {"time": 502, "pitch": 84, "duration": 3, "velocity": 87}, {"time": 502, "pitch": 84, "duration": 3, "velocity": 117}, {"time": 505, "pitch": 81, "duration": 3, "velocity": 102}, {"time": 508, "pitch": 77, "duration": 4, "velocity": 82}, {"time": 508, "pitch": 79, "duration": 3, "velocity": 92}, {"time": 511, "pitch": 77, "duration": 1, "velocity": 114}, {"time": 511, "pitch": 86, "duration": 7, "velocity": 100}, {"time": 514, "pitch": 79, "duration": 3, "velocity": 123}, {"time": 517, "pitch": 77, "duration": 3, "velocity": 73}, {"time": 517, "pitch": 77, "duration": 3, "velocity": 92}, {"time": 520, "pitch": 74, "duration": 6, "velocity": 102}, {"time": 520, "pitch": 84, "duration": 6, "velocity": 84}, {"time": 526, "pitch": 72, "duration": 3, "velocity": 105}, {"time": 526, "pitch": 82, "duration": 5, "velocity": 87}, {"time": 529, "pitch": 69, "duration": 3, "velocity": 100}, {"time": 532, "pitch": 67, "duration": 3, "velocity": 97}, {"time": 532, "pitch": 86, "duration": 5, "velocity": 102}, {"time": 535, "pitch": 65, "duration": 3, "velocity": 92}, {"time": 538, "pitch": 67, "duration": 6, "velocity": 111}, {"time": 538, "pitch": 84, "duration": 6, "velocity": 84}, {"time": 544, "pitch": 69, "duration": 3, "velocity": 100}, {"time": 544, "pitch": 81, "duration": 6, "velocity": 82}, {"time": 547, "pitch": 69, "duration": 6, "velocity": 114}, {"time": 550, "pitch": 86, "duration": 7, "velocity": 94}, {"time": 553, "pitch": 67, "duration": 5, "velocity": 120}, {"time": 556, "pitch": 81, "duration": 3, "velocity": 73}, {"time": 559, "pitch": 72, "duration": 3, "velocity": 108}, {"time": 559, "pitch": 88, "duration": 9, "velocity": 87}, {"time": 562, "pitch": 69, "duration": 24, "velocity": 120}, {"time": 568, "pitch": 86, "duration": 6, "velocity": 97}, {"time": 574, "pitch": 93, "duration": 6, "velocity": 100}, {"time": 580, "pitch": 85, "duration": 6, "velocity": 82}, {"time": 586, "pitch": 86, "duration": 78, "velocity": 92}, {"time": 664, "pitch": 67, "duration": 7, "velocity": 84}, {"time": 670, "pitch": 77, "duration": 6, "velocity": 100}, {"time": 676, "pitch": 74, "duration": 5, "velocity": 92}, {"time": 682, "pitch": 76, "duration": 16, "velocity": 94}, {"time": 736, "pitch": 69, "duration": 5, "velocity": 108}, {"time": 742, "pitch": 77, "duration": 5, "velocity": 89}, {"time": 742, "pitch": 81, "duration": 5, "velocity": 105}, {"time": 748, "pitch": 69, "duration": 4, "velocity": 89}, {"time": 751, "pitch": 76, "duration": 6, "velocity": 89}, {"time": 751, "pitch": 79, "duration": 7, "velocity": 102}, {"time": 757, "pitch": 69, "duration": 3, "velocity": 76}, {"time": 760, "pitch": 77, "duration": 15, "velocity": 89}, {"time": 760, "pitch": 81, "duration": 16, "velocity": 84}, {"time": 856, "pitch": 69, "duration": 10, "velocity": 94}, {"time": 862, "pitch": 70, "duration": 6, "velocity": 112}, {"time": 868, "pitch": 77, "duration": 6, "velocity": 100}, {"time": 874, "pitch": 76, "duration": 14, "velocity": 105}, {"time": 922, "pitch": 74, "duration": 14, "velocity": 82}, {"time": 922, "pitch": 79, "duration": 14, "velocity": 105}, {"time": 940, "pitch": 74, "duration": 21, "velocity": 82}, {"time": 940, "pitch": 78, "duration": 21, "velocity": 96}, {"time": 964, "pitch": 74, "duration": 18, "velocity": 94}, {"time": 964, "pitch": 77, "duration": 18, "velocity": 100}, {"time": 982, "pitch": 74, "duration": 4, "velocity": 108}, {"time": 988, "pitch": 76, "duration": 4, "velocity": 111}, {"time": 994, "pitch": 76, "duration": 5, "velocity": 111}, {"time": 1000, "pitch": 77, "duration": 4, "velocity": 97}, {"time": 1006, "pitch": 77, "duration": 4, "velocity": 105}, {"time": 1012, "pitch": 79, "duration": 5, "velocity": 114}, {"time": 1018, "pitch": 81, "duration": 42, "velocity": 105}, {"time": 1069, "pitch": 62, "duration": 8, "velocity": 94}, {"time": 1078, "pitch": 67, "duration": 6, "velocity": 89}, {"time": 1078, "pitch": 70, "duration": 7, "velocity": 85}, {"time": 1084, "pitch": 62, "duration": 5, "velocity": 53}, {"time": 1087, "pitch": 69, "duration": 6, "velocity": 92}, {"time": 1093, "pitch": 62, "duration": 2, "velocity": 82}, {"time": 1096, "pitch": 70, "duration": 13, "velocity": 109}, {"time": 1108, "pitch": 69, "duration": 7, "velocity": 82}, {"time": 1114, "pitch": 67, "duration": 15, "velocity": 73}, {"time": 1126, "pitch": 76, "duration": 33, "velocity": 67}, {"time": 1162, "pitch": 74, "duration": 13, "velocity": 78}, {"time": 1174, "pitch": 67, "duration": 4, "velocity": 111}, {"time": 1177, "pitch": 69, "duration": 3, "velocity": 108}, {"time": 1183, "pitch": 77, "duration": 4, "velocity": 102}, {"time": 1186, "pitch": 76, "duration": 2, "velocity": 102}, {"time": 1189, "pitch": 72, "duration": 2, "velocity": 92}, {"time": 1192, "pitch": 74, "duration": 3, "velocity": 105}, {"time": 1195, "pitch": 67, "duration": 5, "velocity": 102}, {"time": 1201, "pitch": 72, "duration": 2, "velocity": 97}, {"time": 1204, "pitch": 69, "duration": 3, "velocity": 87}, {"time": 1207, "pitch": 67, "duration": 1, "velocity": 64}, {"time": 1210, "pitch": 69, "duration": 6, "velocity": 100}, {"time": 1210, "pitch": 81, "duration": 44, "velocity": 105}, {"time": 1258, "pitch": 82, "duration": 31, "velocity": 87}, {"time": 1288, "pitch": 81, "duration": 7, "velocity": 80}, {"time": 1294, "pitch": 79, "duration": 10, "velocity": 94}, {"time": 1306, "pitch": 77, "duration": 30, "velocity": 92}, {"time": 1336, "pitch": 76, "duration": 7, "velocity": 78}, {"time": 1342, "pitch": 77, "duration": 6, "velocity": 78}, {"time": 1348, "pitch": 81, "duration": 6, "velocity": 82}, {"time": 1354, "pitch": 79, "duration": 30, "velocity": 92}, {"time": 1390, "pitch": 79, "duration": 3, "velocity": 100}, {"time": 1396, "pitch": 81, "duration": 5, "velocity": 108}, {"time": 1402, "pitch": 79, "duration": 44, "velocity": 84}, {"time": 1450, "pitch": 74, "duration": 15, "velocity": 92}, {"time": 1450, "pitch": 79, "duration": 15, "velocity": 102}, {"time": 1468, "pitch": 74, "duration": 20, "velocity": 92}, {"time": 1468, "pitch": 79, "duration": 19, "velocity": 100}, {"time": 1492, "pitch": 74, "duration": 20, "velocity": 92}, {"time": 1492, "pitch": 78, "duration": 20, "velocity": 93}, {"time": 1522, "pitch": 74, "duration": 5, "velocity": 100}, {"time": 1528, "pitch": 72, "duration": 10, "velocity": 108}, {"time": 1540, "pitch": 70, "duration": 2, "velocity": 109}, {"time": 1543, "pitch": 69, "duration": 3, "velocity": 102}, {"time": 1546, "pitch": 70, "duration": 18, "velocity": 112}, {"time": 1564, "pitch": 69, "duration": 6, "velocity": 114}, {"time": 1570, "pitch": 70, "duration": 4, "velocity": 116}, {"time": 1576, "pitch": 74, "duration": 12, "velocity": 117}, {"time": 1588, "pitch": 81, "duration": 5, "velocity": 117}, {"time": 1594, "pitch": 79, "duration": 18, "velocity": 120}, {"time": 1612, "pitch": 72, "duration": 3, "velocity": 100}, {"time": 1615, "pitch": 74, "duration": 2, "velocity": 94}, {"time": 1618, "pitch": 84, "duration": 7, "velocity": 114}, {"time": 1627, "pitch": 82, "duration": 8, "velocity": 105}, {"time": 1636, "pitch": 81, "duration": 2, "velocity": 111}, {"time": 1639, "pitch": 79, "duration": 2, "velocity": 84}, {"time": 1642, "pitch": 81, "duration": 13, "velocity": 94}, {"time": 1654, "pitch": 60, "duration": 5, "velocity": 111}, {"time": 1660, "pitch": 72, "duration": 5, "velocity": 111}, {"time": 1666, "pitch": 69, "duration": 21, "velocity": 114}, {"time": 1690, "pitch": 69, "duration": 6, "velocity": 108}, {"time": 1696, "pitch": 67, "duration": 2, "velocity": 87}, {"time": 1699, "pitch": 69, "duration": 2, "velocity": 105}, {"time": 1702, "pitch": 70, "duration": 5, "velocity": 105}, {"time": 1708, "pitch": 62, "duration": 3, "velocity": 84}, {"time": 1711, "pitch": 60, "duration": 2, "velocity": 64}, {"time": 1714, "pitch": 62, "duration": 23, "velocity": 94}, {"time": 1756, "pitch": 53, "duration": 3, "velocity": 87}, {"time": 1759, "pitch": 55, "duration": 3, "velocity": 102}, {"time": 1762, "pitch": 57, "duration": 3, "velocity": 102}, {"time": 1765, "pitch": 58, "duration": 2, "velocity": 97}, {"time": 1768, "pitch": 60, "duration": 3, "velocity": 100}, {"time": 1771, "pitch": 62, "duration": 2, "velocity": 105}, {"time": 1774, "pitch": 65, "duration": 2, "velocity": 100}, {"time": 1777, "pitch": 69, "duration": 6, "velocity": 107}, {"time": 1783, "pitch": 69, "duration": 2, "velocity": 111}, {"time": 1786, "pitch": 67, "duration": 10, "velocity": 108}, {"time": 1798, "pitch": 65, "duration": 5, "velocity": 117}, {"time": 1804, "pitch": 62, "duration": 27, "velocity": 120}, {"time": 1846, "pitch": 64, "duration": 5, "velocity": 120}, {"time": 1852, "pitch": 69, "duration": 16, "velocity": 117}, {"time": 1870, "pitch": 70, "duration": 3, "velocity": 112}, {"time": 1873, "pitch": 69, "duration": 2, "velocity": 100}, {"time": 1876, "pitch": 67, "duration": 1, "velocity": 108}, {"time": 1878, "pitch": 72, "duration": 2, "velocity": 114}, {"time": 1883, "pitch": 69, "duration": 47, "velocity": 111}, {"time": 2008, "pitch": 67, "duration": 7, "velocity": 84}, {"time": 2014, "pitch": 77, "duration": 6, "velocity": 100}, {"time": 2020, "pitch": 74, "duration": 5, "velocity": 92}, {"time": 2026, "pitch": 76, "duration": 16, "velocity": 94}, {"time": 2080, "pitch": 69, "duration": 5, "velocity": 108}, {"time": 2086, "pitch": 77, "duration": 5, "velocity": 89}, {"time": 2086, "pitch": 81, "duration": 5, "velocity": 105}, {"time": 2092, "pitch": 69, "duration": 4, "velocity": 89}, {"time": 2095, "pitch": 76, "duration": 6, "velocity": 89}, {"time": 2095, "pitch": 79, "duration": 7, "velocity": 102}, {"time": 2101, "pitch": 69, "duration": 3, "velocity": 76}, {"time": 2104, "pitch": 77, "duration": 15, "velocity": 89}, {"time": 2104, "pitch": 81, "duration": 16, "velocity": 84}, {"time": 2200, "pitch": 69, "duration": 10, "velocity": 94}, {"time": 2206, "pitch": 70, "duration": 6, "velocity": 112}, {"time": 2212, "pitch": 77, "duration": 6, "velocity": 100}, {"time": 2218, "pitch": 76, "duration": 14, "velocity": 105}, {"time": 2266, "pitch": 74, "duration": 14, "velocity": 82}, {"time": 2266, "pitch": 79, "duration": 14, "velocity": 105}, {"time": 2284, "pitch": 74, "duration": 21, "velocity": 82}, {"time": 2284, "pitch": 78, "duration": 21, "velocity": 96}, {"time": 2308, "pitch": 74, "duration": 18, "velocity": 94}, {"time": 2308, "pitch": 77, "duration": 18, "velocity": 100}, {"time": 2326, "pitch": 74, "duration": 4, "velocity": 108}, {"time": 2332, "pitch": 76, "duration": 4, "velocity": 111}, {"time": 2338, "pitch": 76, "duration": 5, "velocity": 111}, {"time": 2344, "pitch": 77, "duration": 4, "velocity": 97}, {"time": 2350, "pitch": 77, "duration": 4, "velocity": 105}, {"time": 2356, "pitch": 79, "duration": 5, "velocity": 114}, {"time": 2362, "pitch": 81, "duration": 42, "velocity": 105}, {"time": 2413, "pitch": 62, "duration": 8, "velocity": 94}, {"time": 2422, "pitch": 67, "duration": 6, "velocity": 89}, {"time": 2422, "pitch": 70, "duration": 7, "velocity": 85}, {"time": 2428, "pitch": 62, "duration": 5, "velocity": 53}, {"time": 2431, "pitch": 69, "duration": 6, "velocity": 92}, {"time": 2437, "pitch": 62, "duration": 2, "velocity": 82}, {"time": 2440, "pitch": 70, "duration": 13, "velocity": 109}, {"time": 2452, "pitch": 69, "duration": 7, "velocity": 82}, {"time": 2458, "pitch": 67, "duration": 15, "velocity": 73}, {"time": 2470, "pitch": 76, "duration": 33, "velocity": 67}, {"time": 2506, "pitch": 74, "duration": 13, "velocity": 78}, {"time": 2518, "pitch": 67, "duration": 4, "velocity": 111}, {"time": 2521, "pitch": 69, "duration": 3, "velocity": 108}, {"time": 2527, "pitch": 77, "duration": 4, "velocity": 102}, {"time": 2530, "pitch": 76, "duration": 2, "velocity": 102}, {"time": 2533, "pitch": 72, "duration": 2, "velocity": 92}, {"time": 2536, "pitch": 74, "duration": 3, "velocity": 105}, {"time": 2539, "pitch": 67, "duration": 5, "velocity": 102}, {"time": 2545, "pitch": 72, "duration": 2, "velocity": 97}, {"time": 2548, "pitch": 69, "duration": 3, "velocity": 87}, {"time": 2551, "pitch": 67, "duration": 1, "velocity": 64}, {"time": 2554, "pitch": 69, "duration": 6, "velocity": 100}, {"time": 2554, "pitch": 81, "duration": 44, "velocity": 105}, {"time": 2602, "pitch": 82, "duration": 31, "velocity": 87}, {"time": 2632, "pitch": 81, "duration": 7, "velocity": 80}, {"time": 2638, "pitch": 79, "duration": 10, "velocity": 94}, {"time": 2650, "pitch": 77, "duration": 30, "velocity": 92}, {"time": 2680, "pitch": 76, "duration": 7, "velocity": 78}, {"time": 2686, "pitch": 77, "duration": 6, "velocity": 78}, {"time": 2692, "pitch": 81, "duration": 6, "velocity": 82}, {"time": 2698, "pitch": 79, "duration": 30, "velocity": 92}, {"time": 2734, "pitch": 79, "duration": 3, "velocity": 100}, {"time": 2740, "pitch": 81, "duration": 5, "velocity": 108}, {"time": 2746, "pitch": 79, "duration": 44, "velocity": 84}, {"time": 2794, "pitch": 74, "duration": 15, "velocity": 92}, {"time": 2794, "pitch": 79, "duration": 15, "velocity": 102}, {"time": 2812, "pitch": 74, "duration": 20, "velocity": 92}, {"time": 2812, "pitch": 79, "duration": 19, "velocity": 100}, {"time": 2836, "pitch": 69, "duration": 5, "velocity": 123}, {"time": 2836, "pitch": 74, "duration": 16, "velocity": 92}, {"time": 2836, "pitch": 78, "duration": 20, "velocity": 93}, {"time": 2842, "pitch": 74, "duration": 10, "velocity": 117}, {"time": 2854, "pitch": 74, "duration": 2, "velocity": 102}, {"time": 2860, "pitch": 73, "duration": 5, "velocity": 112}, {"time": 2866, "pitch": 74, "duration": 5, "velocity": 114}, {"time": 2872, "pitch": 76, "duration": 4, "velocity": 111}, {"time": 2878, "pitch": 77, "duration": 12, "velocity": 120}, {"time": 2890, "pitch": 70, "duration": 5, "velocity": 112}, {"time": 2896, "pitch": 77, "duration": 5, "velocity": 117}, {"time": 2902, "pitch": 76, "duration": 5, "velocity": 117}, {"time": 2908, "pitch": 77, "duration": 6, "velocity": 105}, {"time": 2914, "pitch": 76, "duration": 15, "velocity": 114}, {"time": 2938, "pitch": 76, "duration": 17, "velocity": 117}, {"time": 2956, "pitch": 74, "duration": 5, "velocity": 114}, {"time": 2962, "pitch": 73, "duration": 5, "velocity": 112}, {"time": 2968, "pitch": 69, "duration": 11, "velocity": 120}, {"time": 2980, "pitch": 77, "duration": 2, "velocity": 114}, {"time": 2983, "pitch": 76, "duration": 2, "velocity": 114}, {"time": 2986, "pitch": 74, "duration": 37, "velocity": 123}, {"time": 2992, "pitch": 69, "duration": 5, "velocity": 108}, {"time": 2998, "pitch": 77, "duration": 5, "velocity": 89}, {"time": 2998, "pitch": 81, "duration": 5, "velocity": 105}, {"time": 3004, "pitch": 69, "duration": 4, "velocity": 89}, {"time": 3007, "pitch": 76, "duration": 6, "velocity": 89}, {"time": 3007, "pitch": 79, "duration": 7, "velocity": 102}, {"time": 3013, "pitch": 69, "duration": 3, "velocity": 76}, {"time": 3016, "pitch": 77, "duration": 15, "velocity": 89}, {"time": 3016, "pitch": 81, "duration": 16, "velocity": 84}, {"time": 3028, "pitch": 69, "duration": 4, "velocity": 117}, {"time": 3034, "pitch": 74, "duration": 10, "velocity": 114}, {"time": 3046, "pitch": 74, "duration": 5, "velocity": 105}, {"time": 3052, "pitch": 73, "duration": 5, "velocity": 116}, {"time": 3058, "pitch": 74, "duration": 5, "velocity": 114}, {"time": 3064, "pitch": 76, "duration": 4, "velocity": 117}, {"time": 3070, "pitch": 77, "duration": 9, "velocity": 108}, {"time": 3082, "pitch": 70, "duration": 5, "velocity": 116}, {"time": 3088, "pitch": 77, "duration": 6, "velocity": 111}, {"time": 3094, "pitch": 76, "duration": 6, "velocity": 108}, {"time": 3100, "pitch": 77, "duration": 21, "velocity": 102}, {"time": 3112, "pitch": 69, "duration": 10, "velocity": 94}, {"time": 3118, "pitch": 70, "duration": 6, "velocity": 112}, {"time": 3124, "pitch": 77, "duration": 5, "velocity": 100}, {"time": 3124, "pitch": 77, "duration": 5, "velocity": 117}, {"time": 3130, "pitch": 76, "duration": 14, "velocity": 105}, {"time": 3130, "pitch": 79, "duration": 17, "velocity": 117}, {"time": 3148, "pitch": 72, "duration": 4, "velocity": 97}, {"time": 3154, "pitch": 76, "duration": 8, "velocity": 111}, {"time": 3163, "pitch": 76, "duration": 8, "velocity": 114}, {"time": 3172, "pitch": 72, "duration": 5, "velocity": 117}, {"time": 3178, "pitch": 74, "duration": 14, "velocity": 82}, {"time": 3178, "pitch": 74, "duration": 14, "velocity": 108}, {"time": 3178, "pitch": 79, "duration": 14, "velocity": 105}, {"time": 3196, "pitch": 74, "duration": 21, "velocity": 82}, {"time": 3196, "pitch": 78, "duration": 21, "velocity": 96}, {"time": 3220, "pitch": 74, "duration": 5, "velocity": 94}, {"time": 3220, "pitch": 77, "duration": 18, "velocity": 100}, {"time": 3238, "pitch": 74, "duration": 4, "velocity": 108}, {"time": 3244, "pitch": 76, "duration": 4, "velocity": 111}, {"time": 3250, "pitch": 76, "duration": 5, "velocity": 111}, {"time": 3256, "pitch": 77, "duration": 4, "velocity": 97}, {"time": 3262, "pitch": 77, "duration": 4, "velocity": 105}, {"time": 3268, "pitch": 79, "duration": 5, "velocity": 114}, {"time": 3274, "pitch": 81, "duration": 42, "velocity": 105}, {"time": 3325, "pitch": 62, "duration": 8, "velocity": 94}, {"time": 3334, "pitch": 67, "duration": 6, "velocity": 89}, {"time": 3334, "pitch": 70, "duration": 7, "velocity": 85}, {"time": 3340, "pitch": 62, "duration": 5, "velocity": 53}, {"time": 3343, "pitch": 69, "duration": 6, "velocity": 92}, {"time": 3349, "pitch": 62, "duration": 2, "velocity": 82}, {"time": 3352, "pitch": 70, "duration": 13, "velocity": 109}, {"time": 3364, "pitch": 69, "duration": 7, "velocity": 82}, {"time": 3370, "pitch": 67, "duration": 15, "velocity": 73}, {"time": 3382, "pitch": 76, "duration": 33, "velocity": 67}, {"time": 3418, "pitch": 74, "duration": 13, "velocity": 78}, {"time": 3430, "pitch": 67, "duration": 4, "velocity": 111}, {"time": 3433, "pitch": 69, "duration": 3, "velocity": 108}, {"time": 3439, "pitch": 77, "duration": 4, "velocity": 102}, {"time": 3442, "pitch": 76, "duration": 2, "velocity": 102}, {"time": 3445, "pitch": 72, "duration": 2, "velocity": 92}, {"time": 3448, "pitch": 74, "duration": 3, "velocity": 105}, {"time": 3451, "pitch": 67, "duration": 5, "velocity": 102}, {"time": 3457, "pitch": 72, "duration": 2, "velocity": 97}, {"time": 3460, "pitch": 69, "duration": 3, "velocity": 87}, {"time": 3463, "pitch": 67, "duration": 1, "velocity": 64}, {"time": 3466, "pitch": 69, "duration": 6, "velocity": 100}, {"time": 3466, "pitch": 81, "duration": 44, "velocity": 105}, {"time": 3514, "pitch": 82, "duration": 31, "velocity": 87}, {"time": 3544, "pitch": 81, "duration": 7, "velocity": 80}, {"time": 3550, "pitch": 79, "duration": 10, "velocity": 94}, {"time": 3562, "pitch": 77, "duration": 30, "velocity": 92}, {"time": 3592, "pitch": 76, "duration": 7, "velocity": 78}, {"time": 3598, "pitch": 77, "duration": 6, "velocity": 78}, {"time": 3604, "pitch": 81, "duration": 6, "velocity": 82}, {"time": 3610, "pitch": 79, "duration": 30, "velocity": 92}, {"time": 3646, "pitch": 79, "duration": 3, "velocity": 100}, {"time": 3652, "pitch": 81, "duration": 5, "velocity": 108}, {"time": 3658, "pitch": 79, "duration": 44, "velocity": 84}, {"time": 3706, "pitch": 74, "duration": 15, "velocity": 92}, {"time": 3706, "pitch": 79, "duration": 15, "velocity": 102}, {"time": 3724, "pitch": 74, "duration": 20, "velocity": 92}, {"time": 3724, "pitch": 79, "duration": 19, "velocity": 100}, {"time": 3748, "pitch": 74, "duration": 20, "velocity": 92}, {"time": 3748, "pitch": 77, "duration": 12, "velocity": 93}, {"time": 3760, "pitch": 79, "duration": 5, "velocity": 105}, {"time": 3767, "pitch": 81, "duration": 5, "velocity": 117}, {"time": 3773, "pitch": 79, "duration": 18, "velocity": 120}, {"time": 3793, "pitch": 84, "duration": 16, "velocity": 87}, {"time": 3808, "pitch": 86, "duration": 59, "velocity": 111}]}, {"program": 0, "is_drum": false, "name": "PIANO", "notes": [{"time": 7, "pitch": 57, "duration": 41, "velocity": 55}, {"time": 8, "pitch": 62, "duration": 38, "velocity": 46}, {"time": 8, "pitch": 50, "duration": 47, "velocity": 51}, {"time": 9, "pitch": 65, "duration": 47, "velocity": 57}, {"time": 56, "pitch": 55, "duration": 46, "velocity": 44}, {"time": 57, "pitch": 60, "duration": 37, "velocity": 60}, {"time": 58, "pitch": 48, "duration": 43, "velocity": 71}, {"time": 58, "pitch": 64, "duration": 44, "velocity": 22}, {"time": 104, "pitch": 55, "duration": 5, "velocity": 57}, {"time": 105, "pitch": 58, "duration": 69, "velocity": 45}, {"time": 106, "pitch": 46, "duration": 68, "velocity": 68}, {"time": 106, "pitch": 62, "duration": 68, "velocity": 50}, {"time": 107, "pitch": 65, "duration": 67, "velocity": 34}, {"time": 178, "pitch": 43, "duration": 6, "velocity": 102}, {"time": 178, "pitch": 55, "duration": 5, "velocity": 87}, {"time": 178, "pitch": 62, "duration": 5, "velocity": 89}, {"time": 190, "pitch": 45, "duration": 10, "velocity": 105}, {"time": 190, "pitch": 57, "duration": 11, "velocity": 92}, {"time": 190, "pitch": 60, "duration": 11, "velocity": 87}, {"time": 190, "pitch": 64, "duration": 11, "velocity": 97}, {"time": 202, "pitch": 38, "duration": 39, "velocity": 100}, {"time": 202, "pitch": 50, "duration": 39, "velocity": 100}, {"time": 202, "pitch": 62, "duration": 7, "velocity": 84}, {"time": 202, "pitch": 65, "duration": 6, "velocity": 97}, {"time": 208, "pitch": 57, "duration": 9, "velocity": 69}, {"time": 214, "pitch": 62, "duration": 6, "velocity": 84}, {"time": 214, "pitch": 65, "duration": 6, "velocity": 100}, {"time": 214, "pitch": 69, "duration": 5, "velocity": 102}, {"time": 220, "pitch": 57, "duration": 4, "velocity": 40}, {"time": 223, "pitch": 62, "duration": 3, "velocity": 89}, {"time": 223, "pitch": 65, "duration": 4, "velocity": 89}, {"time": 226, "pitch": 57, "duration": 3, "velocity": 55}, {"time": 229, "pitch": 62, "duration": 5, "velocity": 94}, {"time": 232, "pitch": 57, "duration": 9, "velocity": 92}, {"time": 238, "pitch": 62, "duration": 6, "velocity": 105}, {"time": 238, "pitch": 65, "duration": 5, "velocity": 105}, {"time": 244, "pitch": 38, "duration": 6, "velocity": 97}, {"time": 244, "pitch": 50, "duration": 6, "velocity": 97}, {"time": 250, "pitch": 43, "duration": 14, "velocity": 92}, {"time": 250, "pitch": 55, "duration": 14, "velocity": 92}, {"time": 250, "pitch": 62, "duration": 7, "velocity": 78}, {"time": 250, "pitch": 67, "duration": 7, "velocity": 89}, {"time": 262, "pitch": 62, "duration": 6, "velocity": 94}, {"time": 262, "pitch": 67, "duration": 6, "velocity": 105}, {"time": 262, "pitch": 70, "duration": 6, "velocity": 102}, {"time": 271, "pitch": 62, "duration": 4, "velocity": 84}, {"time": 271, "pitch": 67, "duration": 4, "velocity": 94}, {"time": 274, "pitch": 43, "duration": 10, "velocity": 49}, {"time": 274, "pitch": 55, "duration": 10, "velocity": 49}, {"time": 277, "pitch": 62, "duration": 2, "velocity": 94}, {"time": 280, "pitch": 62, "duration": 9, "velocity": 84}, {"time": 280, "pitch": 67, "duration": 9, "velocity": 105}, {"time": 286, "pitch": 43, "duration": 3, "velocity": 82}, {"time": 286, "pitch": 55, "duration": 3, "velocity": 82}, {"time": 292, "pitch": 65, "duration": 3, "velocity": 97}, {"time": 295, "pitch": 64, "duration": 2, "velocity": 67}, {"time": 298, "pitch": 34, "duration": 15, "velocity": 99}, {"time": 298, "pitch": 46, "duration": 15, "velocity": 99}, {"time": 298, "pitch": 65, "duration": 10, "velocity": 89}, {"time": 304, "pitch": 53, "duration": 8, "velocity": 40}, {"time": 310, "pitch": 58, "duration": 7, "velocity": 82}, {"time": 310, "pitch": 62, "duration": 7, "velocity": 84}, {"time": 310, "pitch": 65, "duration": 7, "velocity": 97}, {"time": 316, "pitch": 34, "duration": 4, "velocity": 28}, {"time": 316, "pitch": 46, "duration": 4, "velocity": 28}, {"time": 316, "pitch": 53, "duration": 7, "velocity": 53}, {"time": 319, "pitch": 58, "duration": 4, "velocity": 85}, {"time": 319, "pitch": 62, "duration": 5, "velocity": 89}, {"time": 319, "pitch": 65, "duration": 6, "velocity": 102}, {"time": 328, "pitch": 58, "duration": 9, "velocity": 99}, {"time": 328, "pitch": 62, "duration": 9, "velocity": 97}, {"time": 328, "pitch": 65, "duration": 9, "velocity": 102}, {"time": 334, "pitch": 34, "duration": 8, "velocity": 39}, {"time": 334, "pitch": 46, "duration": 8, "velocity": 39}, {"time": 337, "pitch": 53, "duration": 7, "velocity": 87}, {"time": 340, "pitch": 58, "duration": 5, "velocity": 109}, {"time": 343, "pitch": 62, "duration": 2, "velocity": 80}, {"time": 346, "pitch": 33, "duration": 15, "velocity": 105}, {"time": 346, "pitch": 45, "duration": 15, "velocity": 105}, {"time": 352, "pitch": 52, "duration": 8, "velocity": 80}, {"time": 358, "pitch": 57, "duration": 6, "velocity": 102}, {"time": 358, "pitch": 61, "duration": 5, "velocity": 102}, {"time": 358, "pitch": 64, "duration": 6, "velocity": 94}, {"time": 367, "pitch": 57, "duration": 3, "velocity": 100}, {"time": 367, "pitch": 62, "duration": 3, "velocity": 97}, {"time": 370, "pitch": 33, "duration": 3, "velocity": 51}, {"time": 370, "pitch": 45, "duration": 3, "velocity": 51}, {"time": 373, "pitch": 57, "duration": 6, "velocity": 94}, {"time": 373, "pitch": 61, "duration": 6, "velocity": 105}, {"time": 376, "pitch": 33, "duration": 13, "velocity": 82}, {"time": 376, "pitch": 45, "duration": 13, "velocity": 82}, {"time": 379, "pitch": 52, "duration": 4, "velocity": 92}, {"time": 382, "pitch": 57, "duration": 4, "velocity": 111}, {"time": 382, "pitch": 61, "duration": 4, "velocity": 102}, {"time": 382, "pitch": 64, "duration": 4, "velocity": 102}, {"time": 385, "pitch": 52, "duration": 3, "velocity": 71}, {"time": 388, "pitch": 57, "duration": 4, "velocity": 114}, {"time": 394, "pitch": 38, "duration": 14, "velocity": 94}, {"time": 394, "pitch": 50, "duration": 14, "velocity": 94}, {"time": 394, "pitch": 57, "duration": 8, "velocity": 105}, {"time": 394, "pitch": 62, "duration": 8, "velocity": 105}, {"time": 406, "pitch": 57, "duration": 6, "velocity": 111}, {"time": 406, "pitch": 62, "duration": 6, "velocity": 111}, {"time": 406, "pitch": 65, "duration": 7, "velocity": 111}, {"time": 412, "pitch": 38, "duration": 22, "velocity": 78}, {"time": 412, "pitch": 50, "duration": 22, "velocity": 78}, {"time": 415, "pitch": 57, "duration": 3, "velocity": 105}, {"time": 415, "pitch": 64, "duration": 3, "velocity": 102}, {"time": 421, "pitch": 57, "duration": 4, "velocity": 105}, {"time": 421, "pitch": 62, "duration": 6, "velocity": 105}, {"time": 421, "pitch": 65, "duration": 7, "velocity": 102}, {"time": 427, "pitch": 57, "duration": 2, "velocity": 89}, {"time": 430, "pitch": 57, "duration": 6, "velocity": 108}, {"time": 430, "pitch": 62, "duration": 7, "velocity": 108}, {"time": 436, "pitch": 38, "duration": 3, "velocity": 94}, {"time": 436, "pitch": 50, "duration": 3, "velocity": 94}, {"time": 439, "pitch": 57, "duration": 1, "velocity": 108}, {"time": 442, "pitch": 31, "duration": 43, "velocity": 74}, {"time": 442, "pitch": 43, "duration": 43, "velocity": 105}, {"time": 442, "pitch": 55, "duration": 7, "velocity": 82}, {"time": 442, "pitch": 58, "duration": 6, "velocity": 72}, {"time": 448, "pitch": 38, "duration": 7, "velocity": 62}, {"time": 448, "pitch": 50, "duration": 7, "velocity": 62}, {"time": 454, "pitch": 55, "duration": 6, "velocity": 100}, {"time": 454, "pitch": 58, "duration": 5, "velocity": 109}, {"time": 454, "pitch": 62, "duration": 4, "velocity": 97}, {"time": 460, "pitch": 38, "duration": 5, "velocity": 43}, {"time": 460, "pitch": 50, "duration": 5, "velocity": 43}, {"time": 463, "pitch": 55, "duration": 4, "velocity": 97}, {"time": 463, "pitch": 67, "duration": 4, "velocity": 94}, {"time": 466, "pitch": 38, "duration": 4, "velocity": 62}, {"time": 466, "pitch": 50, "duration": 4, "velocity": 62}, {"time": 469, "pitch": 55, "duration": 4, "velocity": 108}, {"time": 469, "pitch": 62, "duration": 4, "velocity": 102}, {"time": 472, "pitch": 38, "duration": 8, "velocity": 82}, {"time": 472, "pitch": 50, "duration": 8, "velocity": 82}, {"time": 478, "pitch": 55, "duration": 5, "velocity": 84}, {"time": 478, "pitch": 58, "duration": 5, "velocity": 96}, {"time": 478, "pitch": 62, "duration": 6, "velocity": 97}, {"time": 484, "pitch": 50, "duration": 2, "velocity": 82}, {"time": 490, "pitch": 34, "duration": 39, "velocity": 96}, {"time": 490, "pitch": 46, "duration": 39, "velocity": 96}, {"time": 490, "pitch": 58, "duration": 10, "velocity": 90}, {"time": 490, "pitch": 62, "duration": 9, "velocity": 97}, {"time": 496, "pitch": 53, "duration": 8, "velocity": 34}, {"time": 502, "pitch": 58, "duration": 7, "velocity": 79}, {"time": 502, "pitch": 62, "duration": 6, "velocity": 92}, {"time": 502, "pitch": 65, "duration": 5, "velocity": 105}, {"time": 508, "pitch": 53, "duration": 5, "velocity": 33}, {"time": 511, "pitch": 58, "duration": 6, "velocity": 90}, {"time": 511, "pitch": 62, "duration": 8, "velocity": 100}, {"time": 517, "pitch": 53, "duration": 10, "velocity": 94}, {"time": 520, "pitch": 58, "duration": 5, "velocity": 102}, {"time": 526, "pitch": 58, "duration": 5, "velocity": 90}, {"time": 526, "pitch": 62, "duration": 5, "velocity": 97}, {"time": 526, "pitch": 65, "duration": 6, "velocity": 105}, {"time": 532, "pitch": 34, "duration": 2, "velocity": 99}, {"time": 532, "pitch": 46, "duration": 2, "velocity": 99}, {"time": 538, "pitch": 33, "duration": 23, "velocity": 100}, {"time": 538, "pitch": 45, "duration": 23, "velocity": 100}, {"time": 538, "pitch": 57, "duration": 9, "velocity": 97}, {"time": 538, "pitch": 61, "duration": 9, "velocity": 77}, {"time": 538, "pitch": 64, "duration": 9, "velocity": 94}, {"time": 550, "pitch": 57, "duration": 3, "velocity": 111}, {"time": 550, "pitch": 69, "duration": 3, "velocity": 100}, {"time": 553, "pitch": 52, "duration": 8, "velocity": 73}, {"time": 556, "pitch": 57, "duration": 4, "velocity": 97}, {"time": 559, "pitch": 61, "duration": 2, "velocity": 87}, {"time": 562, "pitch": 33, "duration": 22, "velocity": 97}, {"time": 562, "pitch": 45, "duration": 22, "velocity": 97}, {"time": 562, "pitch": 57, "duration": 21, "velocity": 92}, {"time": 562, "pitch": 61, "duration": 21, "velocity": 85}, {"time": 562, "pitch": 64, "duration": 21, "velocity": 92}, {"time": 586, "pitch": 38, "duration": 37, "velocity": 92}, {"time": 586, "pitch": 50, "duration": 37, "velocity": 92}, {"time": 586, "pitch": 65, "duration": 12, "velocity": 94}, {"time": 592, "pitch": 57, "duration": 8, "velocity": 60}, {"time": 598, "pitch": 62, "duration": 9, "velocity": 102}, {"time": 604, "pitch": 57, "duration": 8, "velocity": 73}, {"time": 610, "pitch": 62, "duration": 9, "velocity": 105}, {"time": 610, "pitch": 69, "duration": 12, "velocity": 94}, {"time": 616, "pitch": 57, "duration": 7, "velocity": 47}, {"time": 622, "pitch": 62, "duration": 2, "velocity": 87}, {"time": 622, "pitch": 65, "duration": 1, "velocity": 84}, {"time": 634, "pitch": 31, "duration": 41, "velocity": 97}, {"time": 634, "pitch": 43, "duration": 41, "velocity": 97}, {"time": 634, "pitch": 55, "duration": 13, "velocity": 69}, {"time": 634, "pitch": 58, "duration": 13, "velocity": 61}, {"time": 640, "pitch": 50, "duration": 8, "velocity": 45}, {"time": 646, "pitch": 62, "duration": 8, "velocity": 100}, {"time": 652, "pitch": 50, "duration": 8, "velocity": 52}, {"time": 658, "pitch": 55, "duration": 13, "velocity": 78}, {"time": 658, "pitch": 67, "duration": 13, "velocity": 94}, {"time": 664, "pitch": 50, "duration": 13, "velocity": 52}, {"time": 670, "pitch": 58, "duration": 5, "velocity": 99}, {"time": 670, "pitch": 62, "duration": 8, "velocity": 92}, {"time": 676, "pitch": 55, "duration": 2, "velocity": 49}, {"time": 682, "pitch": 33, "duration": 47, "velocity": 94}, {"time": 682, "pitch": 45, "duration": 47, "velocity": 94}, {"time": 682, "pitch": 57, "duration": 13, "velocity": 87}, {"time": 682, "pitch": 61, "duration": 10, "velocity": 55}, {"time": 688, "pitch": 52, "duration": 8, "velocity": 64}, {"time": 694, "pitch": 64, "duration": 5, "velocity": 108}, {"time": 700, "pitch": 52, "duration": 28, "velocity": 76}, {"time": 706, "pitch": 55, "duration": 6, "velocity": 89}, {"time": 706, "pitch": 61, "duration": 8, "velocity": 85}, {"time": 712, "pitch": 49, "duration": 12, "velocity": 57}, {"time": 718, "pitch": 57, "duration": 6, "velocity": 94}, {"time": 718, "pitch": 64, "duration": 5, "velocity": 89}, {"time": 730, "pitch": 38, "duration": 45, "velocity": 92}, {"time": 730, "pitch": 50, "duration": 45, "velocity": 92}, {"time": 730, "pitch": 57, "duration": 2, "velocity": 62}, {"time": 730, "pitch": 65, "duration": 13, "velocity": 92}, {"time": 736, "pitch": 57, "duration": 8, "velocity": 73}, {"time": 742, "pitch": 62, "duration": 10, "velocity": 84}, {"time": 748, "pitch": 57, "duration": 7, "velocity": 80}, {"time": 754, "pitch": 65, "duration": 10, "velocity": 94}, {"time": 760, "pitch": 57, "duration": 7, "velocity": 69}, {"time": 766, "pitch": 64, "duration": 9, "velocity": 97}, {"time": 772, "pitch": 57, "duration": 4, "velocity": 92}, {"time": 778, "pitch": 38, "duration": 40, "velocity": 100}, {"time": 778, "pitch": 50, "duration": 40, "velocity": 100}, {"time": 778, "pitch": 57, "duration": 4, "velocity": 92}, {"time": 778, "pitch": 62, "duration": 13, "velocity": 84}, {"time": 784, "pitch": 57, "duration": 7, "velocity": 69}, {"time": 790, "pitch": 65, "duration": 9, "velocity": 100}, {"time": 796, "pitch": 57, "duration": 4, "velocity": 97}, {"time": 802, "pitch": 57, "duration": 3, "velocity": 111}, {"time": 802, "pitch": 64, "duration": 10, "velocity": 94}, {"time": 808, "pitch": 57, "duration": 9, "velocity": 62}, {"time": 814, "pitch": 62, "duration": 10, "velocity": 117}, {"time": 814, "pitch": 64, "duration": 1, "velocity": 78}, {"time": 820, "pitch": 33, "duration": 4, "velocity": 102}, {"time": 820, "pitch": 45, "duration": 4, "velocity": 102}, {"time": 826, "pitch": 31, "duration": 40, "velocity": 102}, {"time": 826, "pitch": 43, "duration": 40, "velocity": 102}, {"time": 826, "pitch": 55, "duration": 12, "velocity": 78}, {"time": 826, "pitch": 58, "duration": 8, "velocity": 46}, {"time": 832, "pitch": 50, "duration": 9, "velocity": 60}, {"time": 838, "pitch": 62, "duration": 21, "velocity": 94}, {"time": 844, "pitch": 50, "duration": 9, "velocity": 60}, {"time": 847, "pitch": 55, "duration": 2, "velocity": 1}, {"time": 850, "pitch": 67, "duration": 9, "velocity": 97}, {"time": 856, "pitch": 50, "duration": 11, "velocity": 28}, {"time": 862, "pitch": 58, "duration": 8, "velocity": 87}, {"time": 862, "pitch": 62, "duration": 10, "velocity": 97}, {"time": 862, "pitch": 67, "duration": 9, "velocity": 92}, {"time": 868, "pitch": 31, "duration": 4, "velocity": 100}, {"time": 868, "pitch": 43, "duration": 4, "velocity": 100}, {"time": 874, "pitch": 36, "duration": 38, "velocity": 89}, {"time": 874, "pitch": 48, "duration": 38, "velocity": 89}, {"time": 874, "pitch": 55, "duration": 3, "velocity": 84}, {"time": 874, "pitch": 60, "duration": 12, "velocity": 94}, {"time": 880, "pitch": 55, "duration": 6, "velocity": 66}, {"time": 886, "pitch": 64, "duration": 10, "velocity": 102}, {"time": 892, "pitch": 55, "duration": 4, "velocity": 73}, {"time": 898, "pitch": 55, "duration": 3, "velocity": 87}, {"time": 898, "pitch": 60, "duration": 8, "velocity": 92}, {"time": 904, "pitch": 55, "duration": 4, "velocity": 64}, {"time": 910, "pitch": 55, "duration": 2, "velocity": 102}, {"time": 910, "pitch": 60, "duration": 2, "velocity": 102}, {"time": 910, "pitch": 64, "duration": 3, "velocity": 102}, {"time": 922, "pitch": 38, "duration": 16, "velocity": 102}, {"time": 922, "pitch": 50, "duration": 16, "velocity": 102}, {"time": 922, "pitch": 62, "duration": 8, "velocity": 94}, {"time": 922, "pitch": 67, "duration": 10, "velocity": 100}, {"time": 928, "pitch": 57, "duration": 10, "velocity": 71}, {"time": 934, "pitch": 62, "duration": 2, "velocity": 114}, {"time": 940, "pitch": 38, "duration": 20, "velocity": 100}, {"time": 940, "pitch": 50, "duration": 20, "velocity": 100}, {"time": 940, "pitch": 57, "duration": 20, "velocity": 100}, {"time": 940, "pitch": 62, "duration": 10, "velocity": 102}, {"time": 940, "pitch": 66, "duration": 13, "velocity": 105}, {"time": 952, "pitch": 62, "duration": 5, "velocity": 76}, {"time": 964, "pitch": 38, "duration": 33, "velocity": 102}, {"time": 964, "pitch": 50, "duration": 33, "velocity": 102}, {"time": 964, "pitch": 57, "duration": 15, "velocity": 84}, {"time": 964, "pitch": 62, "duration": 21, "velocity": 97}, {"time": 964, "pitch": 65, "duration": 21, "velocity": 108}, {"time": 982, "pitch": 57, "duration": 15, "velocity": 89}, {"time": 988, "pitch": 62, "duration": 4, "velocity": 92}, {"time": 994, "pitch": 62, "duration": 9, "velocity": 92}, {"time": 994, "pitch": 65, "duration": 9, "velocity": 105}, {"time": 994, "pitch": 69, "duration": 8, "velocity": 100}, {"time": 1000, "pitch": 50, "duration": 14, "velocity": 67}, {"time": 1000, "pitch": 57, "duration": 12, "velocity": 78}, {"time": 1006, "pitch": 62, "duration": 3, "velocity": 100}, {"time": 1006, "pitch": 65, "duration": 3, "velocity": 111}, {"time": 1006, "pitch": 69, "duration": 4, "velocity": 111}, {"time": 1012, "pitch": 62, "duration": 4, "velocity": 84}, {"time": 1012, "pitch": 67, "duration": 5, "velocity": 89}, {"time": 1018, "pitch": 50, "duration": 40, "velocity": 105}, {"time": 1018, "pitch": 62, "duration": 7, "velocity": 87}, {"time": 1018, "pitch": 65, "duration": 7, "velocity": 94}, {"time": 1021, "pitch": 38, "duration": 40, "velocity": 93}, {"time": 1024, "pitch": 57, "duration": 8, "velocity": 78}, {"time": 1030, "pitch": 62, "duration": 8, "velocity": 105}, {"time": 1030, "pitch": 65, "duration": 8, "velocity": 102}, {"time": 1036, "pitch": 57, "duration": 8, "velocity": 84}, {"time": 1042, "pitch": 62, "duration": 8, "velocity": 100}, {"time": 1042, "pitch": 65, "duration": 7, "velocity": 100}, {"time": 1048, "pitch": 57, "duration": 7, "velocity": 71}, {"time": 1054, "pitch": 62, "duration": 5, "velocity": 105}, {"time": 1054, "pitch": 65, "duration": 7, "velocity": 105}, {"time": 1060, "pitch": 57, "duration": 2, "velocity": 100}, {"time": 1066, "pitch": 43, "duration": 27, "velocity": 100}, {"time": 1066, "pitch": 55, "duration": 3, "velocity": 82}, {"time": 1066, "pitch": 58, "duration": 7, "velocity": 85}, {"time": 1066, "pitch": 62, "duration": 6, "velocity": 87}, {"time": 1069, "pitch": 31, "duration": 27, "velocity": 88}, {"time": 1072, "pitch": 55, "duration": 5, "velocity": 62}, {"time": 1078, "pitch": 55, "duration": 1, "velocity": 27}, {"time": 1078, "pitch": 58, "duration": 7, "velocity": 102}, {"time": 1078, "pitch": 62, "duration": 8, "velocity": 102}, {"time": 1078, "pitch": 67, "duration": 7, "velocity": 94}, {"time": 1084, "pitch": 55, "duration": 4, "velocity": 71}, {"time": 1090, "pitch": 55, "duration": 6, "velocity": 92}, {"time": 1090, "pitch": 58, "duration": 7, "velocity": 102}, {"time": 1090, "pitch": 62, "duration": 8, "velocity": 102}, {"time": 1096, "pitch": 50, "duration": 8, "velocity": 89}, {"time": 1099, "pitch": 55, "duration": 2, "velocity": 92}, {"time": 1099, "pitch": 38, "duration": 8, "velocity": 77}, {"time": 1102, "pitch": 55, "duration": 5, "velocity": 102}, {"time": 1102, "pitch": 58, "duration": 6, "velocity": 105}, {"time": 1102, "pitch": 62, "duration": 10, "velocity": 105}, {"time": 1108, "pitch": 43, "duration": 5, "velocity": 105}, {"time": 1111, "pitch": 55, "duration": 2, "velocity": 105}, {"time": 1111, "pitch": 31, "duration": 5, "velocity": 93}, {"time": 1114, "pitch": 48, "duration": 16, "velocity": 111}, {"time": 1114, "pitch": 55, "duration": 3, "velocity": 94}, {"time": 1114, "pitch": 60, "duration": 7, "velocity": 97}, {"time": 1117, "pitch": 36, "duration": 16, "velocity": 99}, {"time": 1120, "pitch": 55, "duration": 2, "velocity": 58}, {"time": 1126, "pitch": 55, "duration": 4, "velocity": 108}, {"time": 1126, "pitch": 64, "duration": 8, "velocity": 92}, {"time": 1132, "pitch": 48, "duration": 5, "velocity": 76}, {"time": 1135, "pitch": 55, "duration": 2, "velocity": 92}, {"time": 1135, "pitch": 36, "duration": 5, "velocity": 64}, {"time": 1138, "pitch": 48, "duration": 16, "velocity": 92}, {"time": 1138, "pitch": 55, "duration": 4, "velocity": 94}, {"time": 1138, "pitch": 60, "duration": 7, "velocity": 102}, {"time": 1141, "pitch": 36, "duration": 16, "velocity": 80}, {"time": 1144, "pitch": 55, "duration": 2, "velocity": 100}, {"time": 1150, "pitch": 55, "duration": 3, "velocity": 100}, {"time": 1150, "pitch": 60, "duration": 4, "velocity": 111}, {"time": 1150, "pitch": 64, "duration": 6, "velocity": 102}, {"time": 1156, "pitch": 55, "duration": 2, "velocity": 92}, {"time": 1162, "pitch": 50, "duration": 47, "velocity": 94}, {"time": 1162, "pitch": 57, "duration": 3, "velocity": 102}, {"time": 1162, "pitch": 62, "duration": 7, "velocity": 102}, {"time": 1165, "pitch": 38, "duration": 47, "velocity": 82}, {"time": 1168, "pitch": 57, "duration": 3, "velocity": 82}, {"time": 1174, "pitch": 57, "duration": 2, "velocity": 105}, {"time": 1174, "pitch": 62, "duration": 9, "velocity": 108}, {"time": 1174, "pitch": 65, "duration": 11, "velocity": 100}, {"time": 1180, "pitch": 57, "duration": 5, "velocity": 76}, {"time": 1186, "pitch": 57, "duration": 3, "velocity": 105}, {"time": 1186, "pitch": 64, "duration": 6, "velocity": 102}, {"time": 1192, "pitch": 57, "duration": 2, "velocity": 82}, {"time": 1195, "pitch": 57, "duration": 1, "velocity": 97}, {"time": 1195, "pitch": 65, "duration": 2, "velocity": 105}, {"time": 1198, "pitch": 57, "duration": 4, "velocity": 111}, {"time": 1198, "pitch": 65, "duration": 4, "velocity": 105}, {"time": 1204, "pitch": 57, "duration": 4, "velocity": 111}, {"time": 1204, "pitch": 64, "duration": 4, "velocity": 108}, {"time": 1210, "pitch": 50, "duration": 14, "velocity": 97}, {"time": 1210, "pitch": 57, "duration": 3, "velocity": 94}, {"time": 1210, "pitch": 62, "duration": 8, "velocity": 84}, {"time": 1213, "pitch": 38, "duration": 14, "velocity": 85}, {"time": 1216, "pitch": 57, "duration": 3, "velocity": 87}, {"time": 1222, "pitch": 57, "duration": 3, "velocity": 111}, {"time": 1222, "pitch": 62, "duration": 8, "velocity": 108}, {"time": 1222, "pitch": 65, "duration": 8, "velocity": 105}, {"time": 1228, "pitch": 57, "duration": 4, "velocity": 80}, {"time": 1234, "pitch": 50, "duration": 13, "velocity": 67}, {"time": 1234, "pitch": 57, "duration": 4, "velocity": 89}, {"time": 1234, "pitch": 62, "duration": 9, "velocity": 87}, {"time": 1237, "pitch": 38, "duration": 13, "velocity": 55}, {"time": 1240, "pitch": 57, "duration": 8, "velocity": 87}, {"time": 1246, "pitch": 62, "duration": 4, "velocity": 100}, {"time": 1246, "pitch": 65, "duration": 7, "velocity": 102}, {"time": 1252, "pitch": 57, "duration": 2, "velocity": 80}, {"time": 1258, "pitch": 43, "duration": 18, "velocity": 102}, {"time": 1258, "pitch": 55, "duration": 10, "velocity": 80}, {"time": 1258, "pitch": 58, "duration": 6, "velocity": 72}, {"time": 1258, "pitch": 62, "duration": 8, "velocity": 94}, {"time": 1261, "pitch": 31, "duration": 18, "velocity": 90}, {"time": 1264, "pitch": 50, "duration": 9, "velocity": 73}, {"time": 1267, "pitch": 38, "duration": 9, "velocity": 61}, {"time": 1270, "pitch": 55, "duration": 3, "velocity": 87}, {"time": 1270, "pitch": 58, "duration": 8, "velocity": 99}, {"time": 1270, "pitch": 62, "duration": 8, "velocity": 100}, {"time": 1276, "pitch": 50, "duration": 10, "velocity": 62}, {"time": 1279, "pitch": 38, "duration": 10, "velocity": 50}, {"time": 1282, "pitch": 55, "duration": 5, "velocity": 102}, {"time": 1282, "pitch": 58, "duration": 10, "velocity": 109}, {"time": 1282, "pitch": 62, "duration": 9, "velocity": 105}, {"time": 1282, "pitch": 67, "duration": 9, "velocity": 97}, {"time": 1288, "pitch": 55, "duration": 4, "velocity": 82}, {"time": 1294, "pitch": 58, "duration": 7, "velocity": 109}, {"time": 1294, "pitch": 62, "duration": 7, "velocity": 108}, {"time": 1300, "pitch": 55, "duration": 4, "velocity": 89}, {"time": 1306, "pitch": 46, "duration": 16, "velocity": 96}, {"time": 1306, "pitch": 58, "duration": 9, "velocity": 96}, {"time": 1306, "pitch": 62, "duration": 9, "velocity": 92}, {"time": 1309, "pitch": 34, "duration": 16, "velocity": 84}, {"time": 1312, "pitch": 53, "duration": 9, "velocity": 30}, {"time": 1318, "pitch": 58, "duration": 10, "velocity": 102}, {"time": 1318, "pitch": 62, "duration": 10, "velocity": 100}, {"time": 1318, "pitch": 65, "duration": 10, "velocity": 87}, {"time": 1324, "pitch": 46, "duration": 4, "velocity": 90}, {"time": 1327, "pitch": 34, "duration": 4, "velocity": 78}, {"time": 1330, "pitch": 46, "duration": 15, "velocity": 96}, {"time": 1330, "pitch": 58, "duration": 4, "velocity": 87}, {"time": 1330, "pitch": 62, "duration": 10, "velocity": 82}, {"time": 1330, "pitch": 65, "duration": 9, "velocity": 87}, {"time": 1333, "pitch": 34, "duration": 15, "velocity": 84}, {"time": 1336, "pitch": 58, "duration": 4, "velocity": 70}, {"time": 1342, "pitch": 58, "duration": 5, "velocity": 112}, {"time": 1342, "pitch": 62, "duration": 6, "velocity": 108}, {"time": 1342, "pitch": 65, "duration": 7, "velocity": 100}, {"time": 1348, "pitch": 46, "duration": 2, "velocity": 77}, {"time": 1351, "pitch": 34, "duration": 3, "velocity": 65}, {"time": 1354, "pitch": 48, "duration": 15, "velocity": 111}, {"time": 1354, "pitch": 60, "duration": 8, "velocity": 80}, {"time": 1354, "pitch": 64, "duration": 8, "velocity": 82}, {"time": 1357, "pitch": 36, "duration": 15, "velocity": 99}, {"time": 1360, "pitch": 55, "duration": 9, "velocity": 76}, {"time": 1366, "pitch": 60, "duration": 6, "velocity": 108}, {"time": 1366, "pitch": 64, "duration": 6, "velocity": 117}, {"time": 1366, "pitch": 67, "duration": 6, "velocity": 111}, {"time": 1372, "pitch": 55, "duration": 4, "velocity": 80}, {"time": 1378, "pitch": 48, "duration": 9, "velocity": 108}, {"time": 1378, "pitch": 60, "duration": 8, "velocity": 100}, {"time": 1378, "pitch": 64, "duration": 8, "velocity": 105}, {"time": 1378, "pitch": 67, "duration": 7, "velocity": 105}, {"time": 1378, "pitch": 72, "duration": 7, "velocity": 92}, {"time": 1381, "pitch": 36, "duration": 9, "velocity": 96}, {"time": 1384, "pitch": 55, "duration": 4, "velocity": 73}, {"time": 1390, "pitch": 48, "duration": 8, "velocity": 108}, {"time": 1390, "pitch": 60, "duration": 4, "velocity": 89}, {"time": 1390, "pitch": 64, "duration": 10, "velocity": 102}, {"time": 1390, "pitch": 67, "duration": 10, "velocity": 100}, {"time": 1393, "pitch": 36, "duration": 8, "velocity": 96}, {"time": 1396, "pitch": 60, "duration": 4, "velocity": 102}, {"time": 1402, "pitch": 48, "duration": 14, "velocity": 105}, {"time": 1402, "pitch": 60, "duration": 14, "velocity": 84}, {"time": 1402, "pitch": 64, "duration": 13, "velocity": 97}, {"time": 1402, "pitch": 67, "duration": 14, "velocity": 97}, {"time": 1405, "pitch": 36, "duration": 15, "velocity": 93}, {"time": 1414, "pitch": 55, "duration": 4, "velocity": 57}, {"time": 1420, "pitch": 48, "duration": 21, "velocity": 105}, {"time": 1420, "pitch": 60, "duration": 13, "velocity": 102}, {"time": 1420, "pitch": 64, "duration": 13, "velocity": 102}, {"time": 1420, "pitch": 67, "duration": 13, "velocity": 97}, {"time": 1423, "pitch": 36, "duration": 21, "velocity": 93}, {"time": 1432, "pitch": 55, "duration": 8, "velocity": 69}, {"time": 1438, "pitch": 60, "duration": 3, "velocity": 102}, {"time": 1438, "pitch": 64, "duration": 3, "velocity": 102}, {"time": 1438, "pitch": 67, "duration": 4, "velocity": 100}, {"time": 1444, "pitch": 48, "duration": 2, "velocity": 100}, {"time": 1447, "pitch": 36, "duration": 3, "velocity": 88}, {"time": 1450, "pitch": 50, "duration": 16, "velocity": 105}, {"time": 1450, "pitch": 62, "duration": 16, "velocity": 97}, {"time": 1450, "pitch": 67, "duration": 17, "velocity": 97}, {"time": 1453, "pitch": 38, "duration": 16, "velocity": 93}, {"time": 1462, "pitch": 57, "duration": 4, "velocity": 62}, {"time": 1468, "pitch": 50, "duration": 20, "velocity": 102}, {"time": 1468, "pitch": 62, "duration": 14, "velocity": 108}, {"time": 1468, "pitch": 66, "duration": 15, "velocity": 109}, {"time": 1471, "pitch": 38, "duration": 20, "velocity": 90}, {"time": 1480, "pitch": 57, "duration": 8, "velocity": 92}, {"time": 1486, "pitch": 62, "duration": 3, "velocity": 102}, {"time": 1486, "pitch": 66, "duration": 3, "velocity": 112}, {"time": 1492, "pitch": 50, "duration": 33, "velocity": 108}, {"time": 1492, "pitch": 62, "duration": 20, "velocity": 105}, {"time": 1492, "pitch": 65, "duration": 21, "velocity": 114}, {"time": 1495, "pitch": 38, "duration": 33, "velocity": 96}, {"time": 1510, "pitch": 57, "duration": 15, "velocity": 94}, {"time": 1516, "pitch": 62, "duration": 3, "velocity": 71}, {"time": 1522, "pitch": 62, "duration": 7, "velocity": 66}, {"time": 1522, "pitch": 65, "duration": 6, "velocity": 64}, {"time": 1528, "pitch": 50, "duration": 10, "velocity": 89}, {"time": 1531, "pitch": 38, "duration": 10, "velocity": 77}, {"time": 1534, "pitch": 62, "duration": 3, "velocity": 105}, {"time": 1534, "pitch": 65, "duration": 3, "velocity": 111}, {"time": 1534, "pitch": 69, "duration": 3, "velocity": 114}, {"time": 1537, "pitch": 57, "duration": 5, "velocity": 97}, {"time": 1540, "pitch": 62, "duration": 5, "velocity": 100}, {"time": 1544, "pitch": 55, "duration": 7, "velocity": 57}, {"time": 1545, "pitch": 58, "duration": 10, "velocity": 85}, {"time": 1546, "pitch": 43, "duration": 45, "velocity": 100}, {"time": 1546, "pitch": 62, "duration": 9, "velocity": 87}, {"time": 1551, "pitch": 50, "duration": 22, "velocity": 52}, {"time": 1557, "pitch": 55, "duration": 22, "velocity": 100}, {"time": 1563, "pitch": 58, "duration": 16, "velocity": 82}, {"time": 1563, "pitch": 62, "duration": 16, "velocity": 73}, {"time": 1564, "pitch": 67, "duration": 15, "velocity": 92}, {"time": 1576, "pitch": 50, "duration": 10, "velocity": 34}, {"time": 1582, "pitch": 58, "duration": 3, "velocity": 99}, {"time": 1582, "pitch": 62, "duration": 5, "velocity": 97}, {"time": 1582, "pitch": 55, "duration": 4, "velocity": 92}, {"time": 1591, "pitch": 55, "duration": 7, "velocity": 51}, {"time": 1593, "pitch": 60, "duration": 29, "velocity": 78}, {"time": 1594, "pitch": 48, "duration": 44, "velocity": 87}, {"time": 1594, "pitch": 64, "duration": 22, "velocity": 94}, {"time": 1612, "pitch": 55, "duration": 11, "velocity": 73}, {"time": 1624, "pitch": 65, "duration": 7, "velocity": 102}, {"time": 1630, "pitch": 64, "duration": 7, "velocity": 105}, {"time": 1636, "pitch": 60, "duration": 3, "velocity": 100}, {"time": 1642, "pitch": 57, "duration": 12, "velocity": 89}, {"time": 1642, "pitch": 41, "duration": 37, "velocity": 89}, {"time": 1642, "pitch": 53, "duration": 8, "velocity": 71}, {"time": 1647, "pitch": 48, "duration": 33, "velocity": 60}, {"time": 1653, "pitch": 53, "duration": 26, "velocity": 102}, {"time": 1660, "pitch": 60, "duration": 14, "velocity": 97}, {"time": 1678, "pitch": 65, "duration": 6, "velocity": 102}, {"time": 1688, "pitch": 58, "duration": 7, "velocity": 59}, {"time": 1690, "pitch": 46, "duration": 38, "velocity": 105}, {"time": 1690, "pitch": 62, "duration": 6, "velocity": 82}, {"time": 1695, "pitch": 53, "duration": 17, "velocity": 37}, {"time": 1701, "pitch": 58, "duration": 5, "velocity": 36}, {"time": 1707, "pitch": 70, "duration": 6, "velocity": 77}, {"time": 1707, "pitch": 58, "duration": 16, "velocity": 72}, {"time": 1707, "pitch": 62, "duration": 8, "velocity": 100}, {"time": 1720, "pitch": 53, "duration": 8, "velocity": 53}, {"time": 1725, "pitch": 69, "duration": 4, "velocity": 100}, {"time": 1725, "pitch": 58, "duration": 4, "velocity": 96}, {"time": 1726, "pitch": 62, "duration": 2, "velocity": 100}, {"time": 1735, "pitch": 55, "duration": 11, "velocity": 82}, {"time": 1736, "pitch": 58, "duration": 14, "velocity": 40}, {"time": 1738, "pitch": 43, "duration": 43, "velocity": 102}, {"time": 1738, "pitch": 62, "duration": 12, "velocity": 100}, {"time": 1739, "pitch": 67, "duration": 11, "velocity": 92}, {"time": 1744, "pitch": 50, "duration": 26, "velocity": 67}, {"time": 1750, "pitch": 55, "duration": 3, "velocity": 80}, {"time": 1756, "pitch": 57, "duration": 6, "velocity": 108}, {"time": 1762, "pitch": 58, "duration": 9, "velocity": 112}, {"time": 1767, "pitch": 62, "duration": 13, "velocity": 94}, {"time": 1773, "pitch": 50, "duration": 9, "velocity": 60}, {"time": 1786, "pitch": 46, "duration": 38, "velocity": 105}, {"time": 1792, "pitch": 53, "duration": 31, "velocity": 84}, {"time": 1798, "pitch": 58, "duration": 4, "velocity": 116}, {"time": 1803, "pitch": 58, "duration": 4, "velocity": 90}, {"time": 1804, "pitch": 62, "duration": 3, "velocity": 89}, {"time": 1822, "pitch": 58, "duration": 2, "velocity": 68}, {"time": 1822, "pitch": 62, "duration": 2, "velocity": 87}, {"time": 1822, "pitch": 65, "duration": 4, "velocity": 97}, {"time": 1832, "pitch": 55, "duration": 9, "velocity": 57}, {"time": 1833, "pitch": 61, "duration": 14, "velocity": 63}, {"time": 1834, "pitch": 45, "duration": 43, "velocity": 100}, {"time": 1835, "pitch": 64, "duration": 12, "velocity": 71}, {"time": 1840, "pitch": 52, "duration": 35, "velocity": 87}, {"time": 1846, "pitch": 55, "duration": 5, "velocity": 111}, {"time": 1852, "pitch": 61, "duration": 20, "velocity": 82}, {"time": 1852, "pitch": 55, "duration": 7, "velocity": 89}, {"time": 1878, "pitch": 57, "duration": 6, "velocity": 58}, {"time": 1879, "pitch": 61, "duration": 16, "velocity": 77}, {"time": 1881, "pitch": 64, "duration": 9, "velocity": 67}, {"time": 1882, "pitch": 45, "duration": 28, "velocity": 100}, {"time": 1882, "pitch": 69, "duration": 14, "velocity": 89}, {"time": 1887, "pitch": 52, "duration": 15, "velocity": 78}, {"time": 1893, "pitch": 55, "duration": 4, "velocity": 87}, {"time": 1900, "pitch": 61, "duration": 15, "velocity": 105}, {"time": 1900, "pitch": 64, "duration": 15, "velocity": 105}, {"time": 1911, "pitch": 57, "duration": 5, "velocity": 60}, {"time": 1918, "pitch": 61, "duration": 9, "velocity": 96}, {"time": 1918, "pitch": 64, "duration": 9, "velocity": 92}, {"time": 1918, "pitch": 69, "duration": 9, "velocity": 87}, {"time": 1918, "pitch": 57, "duration": 9, "velocity": 89}, {"time": 1930, "pitch": 38, "duration": 37, "velocity": 92}, {"time": 1930, "pitch": 50, "duration": 37, "velocity": 92}, {"time": 1930, "pitch": 65, "duration": 12, "velocity": 94}, {"time": 1936, "pitch": 57, "duration": 8, "velocity": 60}, {"time": 1942, "pitch": 62, "duration": 9, "velocity": 102}, {"time": 1948, "pitch": 57, "duration": 8, "velocity": 73}, {"time": 1954, "pitch": 62, "duration": 9, "velocity": 105}, {"time": 1954, "pitch": 69, "duration": 12, "velocity": 94}, {"time": 1960, "pitch": 57, "duration": 7, "velocity": 47}, {"time": 1966, "pitch": 62, "duration": 2, "velocity": 87}, {"time": 1966, "pitch": 65, "duration": 1, "velocity": 84}, {"time": 1978, "pitch": 31, "duration": 41, "velocity": 97}, {"time": 1978, "pitch": 43, "duration": 41, "velocity": 97}, {"time": 1978, "pitch": 55, "duration": 13, "velocity": 69}, {"time": 1978, "pitch": 58, "duration": 13, "velocity": 61}, {"time": 1984, "pitch": 50, "duration": 8, "velocity": 45}, {"time": 1990, "pitch": 62, "duration": 8, "velocity": 100}, {"time": 1996, "pitch": 50, "duration": 8, "velocity": 52}, {"time": 2002, "pitch": 55, "duration": 13, "velocity": 78}, {"time": 2002, "pitch": 67, "duration": 13, "velocity": 94}, {"time": 2008, "pitch": 50, "duration": 13, "velocity": 52}, {"time": 2014, "pitch": 58, "duration": 5, "velocity": 99}, {"time": 2014, "pitch": 62, "duration": 8, "velocity": 92}, {"time": 2020, "pitch": 55, "duration": 2, "velocity": 49}, {"time": 2026, "pitch": 33, "duration": 47, "velocity": 94}, {"time": 2026, "pitch": 45, "duration": 47, "velocity": 94}, {"time": 2026, "pitch": 57, "duration": 13, "velocity": 87}, {"time": 2026, "pitch": 61, "duration": 10, "velocity": 55}, {"time": 2032, "pitch": 52, "duration": 8, "velocity": 64}, {"time": 2038, "pitch": 64, "duration": 5, "velocity": 108}, {"time": 2044, "pitch": 52, "duration": 28, "velocity": 76}, {"time": 2050, "pitch": 55, "duration": 6, "velocity": 89}, {"time": 2050, "pitch": 61, "duration": 8, "velocity": 85}, {"time": 2056, "pitch": 49, "duration": 12, "velocity": 57}, {"time": 2062, "pitch": 57, "duration": 6, "velocity": 94}, {"time": 2062, "pitch": 64, "duration": 5, "velocity": 89}, {"time": 2074, "pitch": 38, "duration": 45, "velocity": 92}, {"time": 2074, "pitch": 50, "duration": 45, "velocity": 92}, {"time": 2074, "pitch": 57, "duration": 2, "velocity": 62}, {"time": 2074, "pitch": 65, "duration": 13, "velocity": 92}, {"time": 2080, "pitch": 57, "duration": 8, "velocity": 73}, {"time": 2086, "pitch": 62, "duration": 10, "velocity": 84}, {"time": 2092, "pitch": 57, "duration": 7, "velocity": 80}, {"time": 2098, "pitch": 65, "duration": 10, "velocity": 94}, {"time": 2104, "pitch": 57, "duration": 7, "velocity": 69}, {"time": 2110, "pitch": 64, "duration": 9, "velocity": 97}, {"time": 2116, "pitch": 57, "duration": 4, "velocity": 92}, {"time": 2122, "pitch": 38, "duration": 40, "velocity": 100}, {"time": 2122, "pitch": 50, "duration": 40, "velocity": 100}, {"time": 2122, "pitch": 57, "duration": 4, "velocity": 92}, {"time": 2122, "pitch": 62, "duration": 13, "velocity": 84}, {"time": 2128, "pitch": 57, "duration": 7, "velocity": 69}, {"time": 2134, "pitch": 65, "duration": 9, "velocity": 100}, {"time": 2140, "pitch": 57, "duration": 4, "velocity": 97}, {"time": 2146, "pitch": 57, "duration": 3, "velocity": 111}, {"time": 2146, "pitch": 64, "duration": 10, "velocity": 94}, {"time": 2152, "pitch": 57, "duration": 9, "velocity": 62}, {"time": 2158, "pitch": 62, "duration": 10, "velocity": 117}, {"time": 2158, "pitch": 64, "duration": 1, "velocity": 78}, {"time": 2164, "pitch": 33, "duration": 4, "velocity": 102}, {"time": 2164, "pitch": 45, "duration": 4, "velocity": 102}, {"time": 2170, "pitch": 31, "duration": 40, "velocity": 102}, {"time": 2170, "pitch": 43, "duration": 40, "velocity": 102}, {"time": 2170, "pitch": 55, "duration": 12, "velocity": 78}, {"time": 2170, "pitch": 58, "duration": 8, "velocity": 46}, {"time": 2176, "pitch": 50, "duration": 9, "velocity": 60}, {"time": 2182, "pitch": 62, "duration": 21, "velocity": 94}, {"time": 2188, "pitch": 50, "duration": 9, "velocity": 60}, {"time": 2191, "pitch": 55, "duration": 2, "velocity": 1}, {"time": 2194, "pitch": 67, "duration": 9, "velocity": 97}, {"time": 2200, "pitch": 50, "duration": 11, "velocity": 28}, {"time": 2206, "pitch": 58, "duration": 8, "velocity": 87}, {"time": 2206, "pitch": 62, "duration": 10, "velocity": 97}, {"time": 2206, "pitch": 67, "duration": 9, "velocity": 92}, {"time": 2212, "pitch": 31, "duration": 4, "velocity": 100}, {"time": 2212, "pitch": 43, "duration": 4, "velocity": 100}, {"time": 2218, "pitch": 36, "duration": 38, "velocity": 89}, {"time": 2218, "pitch": 48, "duration": 38, "velocity": 89}, {"time": 2218, "pitch": 55, "duration": 3, "velocity": 84}, {"time": 2218, "pitch": 60, "duration": 12, "velocity": 94}, {"time": 2224, "pitch": 55, "duration": 6, "velocity": 66}, {"time": 2230, "pitch": 64, "duration": 10, "velocity": 102}, {"time": 2236, "pitch": 55, "duration": 4, "velocity": 73}, {"time": 2242, "pitch": 55, "duration": 3, "velocity": 87}, {"time": 2242, "pitch": 60, "duration": 8, "velocity": 92}, {"time": 2248, "pitch": 55, "duration": 4, "velocity": 64}, {"time": 2254, "pitch": 55, "duration": 2, "velocity": 102}, {"time": 2254, "pitch": 60, "duration": 2, "velocity": 102}, {"time": 2254, "pitch": 64, "duration": 3, "velocity": 102}, {"time": 2266, "pitch": 38, "duration": 16, "velocity": 102}, {"time": 2266, "pitch": 50, "duration": 16, "velocity": 102}, {"time": 2266, "pitch": 62, "duration": 8, "velocity": 94}, {"time": 2266, "pitch": 67, "duration": 10, "velocity": 100}, {"time": 2272, "pitch": 57, "duration": 10, "velocity": 71}, {"time": 2278, "pitch": 62, "duration": 2, "velocity": 114}, {"time": 2284, "pitch": 38, "duration": 20, "velocity": 100}, {"time": 2284, "pitch": 50, "duration": 20, "velocity": 100}, {"time": 2284, "pitch": 57, "duration": 20, "velocity": 100}, {"time": 2284, "pitch": 62, "duration": 10, "velocity": 102}, {"time": 2284, "pitch": 66, "duration": 13, "velocity": 105}, {"time": 2296, "pitch": 62, "duration": 5, "velocity": 76}, {"time": 2308, "pitch": 38, "duration": 33, "velocity": 102}, {"time": 2308, "pitch": 50, "duration": 33, "velocity": 102}, {"time": 2308, "pitch": 57, "duration": 15, "velocity": 84}, {"time": 2308, "pitch": 62, "duration": 21, "velocity": 97}, {"time": 2308, "pitch": 65, "duration": 21, "velocity": 108}, {"time": 2326, "pitch": 57, "duration": 15, "velocity": 89}, {"time": 2332, "pitch": 62, "duration": 4, "velocity": 92}, {"time": 2338, "pitch": 62, "duration": 9, "velocity": 92}, {"time": 2338, "pitch": 65, "duration": 9, "velocity": 105}, {"time": 2338, "pitch": 69, "duration": 8, "velocity": 100}, {"time": 2344, "pitch": 50, "duration": 14, "velocity": 67}, {"time": 2344, "pitch": 57, "duration": 12, "velocity": 78}, {"time": 2350, "pitch": 62, "duration": 3, "velocity": 100}, {"time": 2350, "pitch": 65, "duration": 3, "velocity": 111}, {"time": 2350, "pitch": 69, "duration": 4, "velocity": 111}, {"time": 2356, "pitch": 62, "duration": 4, "velocity": 84}, {"time": 2356, "pitch": 67, "duration": 5, "velocity": 89}, {"time": 2362, "pitch": 50, "duration": 40, "velocity": 105}, {"time": 2362, "pitch": 62, "duration": 7, "velocity": 87}, {"time": 2362, "pitch": 65, "duration": 7, "velocity": 94}, {"time": 2365, "pitch": 38, "duration": 40, "velocity": 93}, {"time": 2368, "pitch": 57, "duration": 8, "velocity": 78}, {"time": 2374, "pitch": 62, "duration": 8, "velocity": 105}, {"time": 2374, "pitch": 65, "duration": 8, "velocity": 102}, {"time": 2380, "pitch": 57, "duration": 8, "velocity": 84}, {"time": 2386, "pitch": 62, "duration": 8, "velocity": 100}, {"time": 2386, "pitch": 65, "duration": 7, "velocity": 100}, {"time": 2392, "pitch": 57, "duration": 7, "velocity": 71}, {"time": 2398, "pitch": 62, "duration": 5, "velocity": 105}, {"time": 2398, "pitch": 65, "duration": 7, "velocity": 105}, {"time": 2404, "pitch": 57, "duration": 2, "velocity": 100}, {"time": 2410, "pitch": 43, "duration": 27, "velocity": 100}, {"time": 2410, "pitch": 55, "duration": 3, "velocity": 82}, {"time": 2410, "pitch": 58, "duration": 7, "velocity": 85}, {"time": 2410, "pitch": 62, "duration": 6, "velocity": 87}, {"time": 2413, "pitch": 31, "duration": 27, "velocity": 88}, {"time": 2416, "pitch": 55, "duration": 5, "velocity": 62}, {"time": 2422, "pitch": 55, "duration": 1, "velocity": 27}, {"time": 2422, "pitch": 58, "duration": 7, "velocity": 102}, {"time": 2422, "pitch": 62, "duration": 8, "velocity": 102}, {"time": 2422, "pitch": 67, "duration": 7, "velocity": 94}, {"time": 2428, "pitch": 55, "duration": 4, "velocity": 71}, {"time": 2434, "pitch": 55, "duration": 6, "velocity": 92}, {"time": 2434, "pitch": 58, "duration": 7, "velocity": 102}, {"time": 2434, "pitch": 62, "duration": 8, "velocity": 102}, {"time": 2440, "pitch": 50, "duration": 8, "velocity": 89}, {"time": 2443, "pitch": 55, "duration": 2, "velocity": 92}, {"time": 2443, "pitch": 38, "duration": 8, "velocity": 77}, {"time": 2446, "pitch": 55, "duration": 5, "velocity": 102}, {"time": 2446, "pitch": 58, "duration": 6, "velocity": 105}, {"time": 2446, "pitch": 62, "duration": 10, "velocity": 105}, {"time": 2452, "pitch": 43, "duration": 5, "velocity": 105}, {"time": 2455, "pitch": 55, "duration": 2, "velocity": 105}, {"time": 2455, "pitch": 31, "duration": 5, "velocity": 93}, {"time": 2458, "pitch": 48, "duration": 16, "velocity": 111}, {"time": 2458, "pitch": 55, "duration": 3, "velocity": 94}, {"time": 2458, "pitch": 60, "duration": 7, "velocity": 97}, {"time": 2461, "pitch": 36, "duration": 16, "velocity": 99}, {"time": 2464, "pitch": 55, "duration": 2, "velocity": 58}, {"time": 2470, "pitch": 55, "duration": 4, "velocity": 108}, {"time": 2470, "pitch": 64, "duration": 8, "velocity": 92}, {"time": 2476, "pitch": 48, "duration": 5, "velocity": 76}, {"time": 2479, "pitch": 55, "duration": 2, "velocity": 92}, {"time": 2479, "pitch": 36, "duration": 5, "velocity": 64}, {"time": 2482, "pitch": 48, "duration": 16, "velocity": 92}, {"time": 2482, "pitch": 55, "duration": 4, "velocity": 94}, {"time": 2482, "pitch": 60, "duration": 7, "velocity": 102}, {"time": 2485, "pitch": 36, "duration": 16, "velocity": 80}, {"time": 2488, "pitch": 55, "duration": 2, "velocity": 100}, {"time": 2494, "pitch": 55, "duration": 3, "velocity": 100}, {"time": 2494, "pitch": 60, "duration": 4, "velocity": 111}, {"time": 2494, "pitch": 64, "duration": 6, "velocity": 102}, {"time": 2500, "pitch": 55, "duration": 2, "velocity": 92}, {"time": 2506, "pitch": 50, "duration": 47, "velocity": 94}, {"time": 2506, "pitch": 57, "duration": 3, "velocity": 102}, {"time": 2506, "pitch": 62, "duration": 7, "velocity": 102}, {"time": 2509, "pitch": 38, "duration": 47, "velocity": 82}, {"time": 2512, "pitch": 57, "duration": 3, "velocity": 82}, {"time": 2518, "pitch": 57, "duration": 2, "velocity": 105}, {"time": 2518, "pitch": 62, "duration": 9, "velocity": 108}, {"time": 2518, "pitch": 65, "duration": 11, "velocity": 100}, {"time": 2524, "pitch": 57, "duration": 5, "velocity": 76}, {"time": 2530, "pitch": 57, "duration": 3, "velocity": 105}, {"time": 2530, "pitch": 64, "duration": 6, "velocity": 102}, {"time": 2536, "pitch": 57, "duration": 2, "velocity": 82}, {"time": 2539, "pitch": 57, "duration": 1, "velocity": 97}, {"time": 2539, "pitch": 65, "duration": 2, "velocity": 105}, {"time": 2542, "pitch": 57, "duration": 4, "velocity": 111}, {"time": 2542, "pitch": 65, "duration": 4, "velocity": 105}, {"time": 2548, "pitch": 57, "duration": 4, "velocity": 111}, {"time": 2548, "pitch": 64, "duration": 4, "velocity": 108}, {"time": 2554, "pitch": 50, "duration": 14, "velocity": 97}, {"time": 2554, "pitch": 57, "duration": 3, "velocity": 94}, {"time": 2554, "pitch": 62, "duration": 8, "velocity": 84}, {"time": 2557, "pitch": 38, "duration": 14, "velocity": 85}, {"time": 2560, "pitch": 57, "duration": 3, "velocity": 87}, {"time": 2566, "pitch": 57, "duration": 3, "velocity": 111}, {"time": 2566, "pitch": 62, "duration": 8, "velocity": 108}, {"time": 2566, "pitch": 65, "duration": 8, "velocity": 105}, {"time": 2572, "pitch": 57, "duration": 4, "velocity": 80}, {"time": 2578, "pitch": 50, "duration": 13, "velocity": 67}, {"time": 2578, "pitch": 57, "duration": 4, "velocity": 89}, {"time": 2578, "pitch": 62, "duration": 9, "velocity": 87}, {"time": 2581, "pitch": 38, "duration": 13, "velocity": 55}, {"time": 2584, "pitch": 57, "duration": 8, "velocity": 87}, {"time": 2590, "pitch": 62, "duration": 4, "velocity": 100}, {"time": 2590, "pitch": 65, "duration": 7, "velocity": 102}, {"time": 2596, "pitch": 57, "duration": 2, "velocity": 80}, {"time": 2602, "pitch": 43, "duration": 18, "velocity": 102}, {"time": 2602, "pitch": 55, "duration": 10, "velocity": 80}, {"time": 2602, "pitch": 58, "duration": 6, "velocity": 72}, {"time": 2602, "pitch": 62, "duration": 8, "velocity": 94}, {"time": 2605, "pitch": 31, "duration": 18, "velocity": 90}, {"time": 2608, "pitch": 50, "duration": 9, "velocity": 73}, {"time": 2611, "pitch": 38, "duration": 9, "velocity": 61}, {"time": 2614, "pitch": 55, "duration": 3, "velocity": 87}, {"time": 2614, "pitch": 58, "duration": 8, "velocity": 99}, {"time": 2614, "pitch": 62, "duration": 8, "velocity": 100}, {"time": 2620, "pitch": 50, "duration": 10, "velocity": 62}, {"time": 2623, "pitch": 38, "duration": 10, "velocity": 50}, {"time": 2626, "pitch": 55, "duration": 5, "velocity": 102}, {"time": 2626, "pitch": 58, "duration": 10, "velocity": 109}, {"time": 2626, "pitch": 62, "duration": 9, "velocity": 105}, {"time": 2626, "pitch": 67, "duration": 9, "velocity": 97}, {"time": 2632, "pitch": 55, "duration": 4, "velocity": 82}, {"time": 2638, "pitch": 58, "duration": 7, "velocity": 109}, {"time": 2638, "pitch": 62, "duration": 7, "velocity": 108}, {"time": 2644, "pitch": 55, "duration": 4, "velocity": 89}, {"time": 2650, "pitch": 46, "duration": 16, "velocity": 96}, {"time": 2650, "pitch": 58, "duration": 9, "velocity": 96}, {"time": 2650, "pitch": 62, "duration": 9, "velocity": 92}, {"time": 2653, "pitch": 34, "duration": 16, "velocity": 84}, {"time": 2656, "pitch": 53, "duration": 9, "velocity": 30}, {"time": 2662, "pitch": 58, "duration": 10, "velocity": 102}, {"time": 2662, "pitch": 62, "duration": 10, "velocity": 100}, {"time": 2662, "pitch": 65, "duration": 10, "velocity": 87}, {"time": 2668, "pitch": 46, "duration": 4, "velocity": 90}, {"time": 2671, "pitch": 34, "duration": 4, "velocity": 78}, {"time": 2674, "pitch": 46, "duration": 15, "velocity": 96}, {"time": 2674, "pitch": 58, "duration": 4, "velocity": 87}, {"time": 2674, "pitch": 62, "duration": 10, "velocity": 82}, {"time": 2674, "pitch": 65, "duration": 9, "velocity": 87}, {"time": 2677, "pitch": 34, "duration": 15, "velocity": 84}, {"time": 2680, "pitch": 58, "duration": 4, "velocity": 70}, {"time": 2686, "pitch": 58, "duration": 5, "velocity": 112}, {"time": 2686, "pitch": 62, "duration": 6, "velocity": 108}, {"time": 2686, "pitch": 65, "duration": 7, "velocity": 100}, {"time": 2692, "pitch": 46, "duration": 2, "velocity": 77}, {"time": 2695, "pitch": 34, "duration": 3, "velocity": 65}, {"time": 2698, "pitch": 48, "duration": 15, "velocity": 111}, {"time": 2698, "pitch": 60, "duration": 8, "velocity": 80}, {"time": 2698, "pitch": 64, "duration": 8, "velocity": 82}, {"time": 2701, "pitch": 36, "duration": 15, "velocity": 99}, {"time": 2704, "pitch": 55, "duration": 9, "velocity": 76}, {"time": 2710, "pitch": 60, "duration": 6, "velocity": 108}, {"time": 2710, "pitch": 64, "duration": 6, "velocity": 117}, {"time": 2710, "pitch": 67, "duration": 6, "velocity": 111}, {"time": 2716, "pitch": 55, "duration": 4, "velocity": 80}, {"time": 2722, "pitch": 48, "duration": 9, "velocity": 108}, {"time": 2722, "pitch": 60, "duration": 8, "velocity": 100}, {"time": 2722, "pitch": 64, "duration": 8, "velocity": 105}, {"time": 2722, "pitch": 67, "duration": 7, "velocity": 105}, {"time": 2722, "pitch": 72, "duration": 7, "velocity": 92}, {"time": 2725, "pitch": 36, "duration": 9, "velocity": 96}, {"time": 2728, "pitch": 55, "duration": 4, "velocity": 73}, {"time": 2734, "pitch": 48, "duration": 8, "velocity": 108}, {"time": 2734, "pitch": 60, "duration": 4, "velocity": 89}, {"time": 2734, "pitch": 64, "duration": 10, "velocity": 102}, {"time": 2734, "pitch": 67, "duration": 10, "velocity": 100}, {"time": 2737, "pitch": 36, "duration": 8, "velocity": 96}, {"time": 2740, "pitch": 60, "duration": 4, "velocity": 102}, {"time": 2746, "pitch": 48, "duration": 14, "velocity": 105}, {"time": 2746, "pitch": 60, "duration": 14, "velocity": 84}, {"time": 2746, "pitch": 64, "duration": 13, "velocity": 97}, {"time": 2746, "pitch": 67, "duration": 14, "velocity": 97}, {"time": 2749, "pitch": 36, "duration": 15, "velocity": 93}, {"time": 2758, "pitch": 55, "duration": 4, "velocity": 57}, {"time": 2764, "pitch": 48, "duration": 21, "velocity": 105}, {"time": 2764, "pitch": 60, "duration": 13, "velocity": 102}, {"time": 2764, "pitch": 64, "duration": 13, "velocity": 102}, {"time": 2764, "pitch": 67, "duration": 13, "velocity": 97}, {"time": 2767, "pitch": 36, "duration": 21, "velocity": 93}, {"time": 2776, "pitch": 55, "duration": 8, "velocity": 69}, {"time": 2782, "pitch": 60, "duration": 3, "velocity": 102}, {"time": 2782, "pitch": 64, "duration": 3, "velocity": 102}, {"time": 2782, "pitch": 67, "duration": 4, "velocity": 100}, {"time": 2788, "pitch": 48, "duration": 2, "velocity": 100}, {"time": 2791, "pitch": 36, "duration": 3, "velocity": 88}, {"time": 2794, "pitch": 38, "duration": 48, "velocity": 102}, {"time": 2806, "pitch": 57, "duration": 3, "velocity": 57}, {"time": 2812, "pitch": 57, "duration": 9, "velocity": 102}, {"time": 2812, "pitch": 65, "duration": 15, "velocity": 97}, {"time": 2824, "pitch": 57, "duration": 3, "velocity": 87}, {"time": 2830, "pitch": 57, "duration": 2, "velocity": 102}, {"time": 2830, "pitch": 65, "duration": 12, "velocity": 102}, {"time": 2836, "pitch": 57, "duration": 6, "velocity": 92}, {"time": 2842, "pitch": 38, "duration": 1, "velocity": 92}, {"time": 2842, "pitch": 50, "duration": 37, "velocity": 92}, {"time": 2842, "pitch": 65, "duration": 12, "velocity": 94}, {"time": 2848, "pitch": 57, "duration": 8, "velocity": 60}, {"time": 2854, "pitch": 62, "duration": 9, "velocity": 102}, {"time": 2860, "pitch": 57, "duration": 8, "velocity": 73}, {"time": 2866, "pitch": 62, "duration": 9, "velocity": 105}, {"time": 2866, "pitch": 69, "duration": 12, "velocity": 94}, {"time": 2872, "pitch": 57, "duration": 7, "velocity": 47}, {"time": 2878, "pitch": 62, "duration": 2, "velocity": 87}, {"time": 2878, "pitch": 65, "duration": 1, "velocity": 84}, {"time": 2890, "pitch": 31, "duration": 41, "velocity": 97}, {"time": 2890, "pitch": 43, "duration": 41, "velocity": 97}, {"time": 2890, "pitch": 55, "duration": 13, "velocity": 69}, {"time": 2890, "pitch": 58, "duration": 13, "velocity": 61}, {"time": 2896, "pitch": 50, "duration": 8, "velocity": 45}, {"time": 2902, "pitch": 62, "duration": 8, "velocity": 100}, {"time": 2908, "pitch": 50, "duration": 8, "velocity": 52}, {"time": 2914, "pitch": 55, "duration": 13, "velocity": 78}, {"time": 2914, "pitch": 67, "duration": 13, "velocity": 94}, {"time": 2920, "pitch": 50, "duration": 13, "velocity": 52}, {"time": 2926, "pitch": 58, "duration": 5, "velocity": 99}, {"time": 2926, "pitch": 62, "duration": 8, "velocity": 92}, {"time": 2932, "pitch": 55, "duration": 2, "velocity": 49}, {"time": 2938, "pitch": 33, "duration": 47, "velocity": 94}, {"time": 2938, "pitch": 45, "duration": 47, "velocity": 94}, {"time": 2938, "pitch": 57, "duration": 13, "velocity": 87}, {"time": 2938, "pitch": 61, "duration": 10, "velocity": 55}, {"time": 2944, "pitch": 52, "duration": 8, "velocity": 64}, {"time": 2950, "pitch": 64, "duration": 5, "velocity": 108}, {"time": 2956, "pitch": 52, "duration": 28, "velocity": 76}, {"time": 2962, "pitch": 55, "duration": 6, "velocity": 89}, {"time": 2962, "pitch": 61, "duration": 8, "velocity": 85}, {"time": 2968, "pitch": 49, "duration": 12, "velocity": 57}, {"time": 2974, "pitch": 57, "duration": 6, "velocity": 94}, {"time": 2974, "pitch": 64, "duration": 5, "velocity": 89}, {"time": 2986, "pitch": 38, "duration": 45, "velocity": 92}, {"time": 2986, "pitch": 50, "duration": 45, "velocity": 92}, {"time": 2986, "pitch": 57, "duration": 2, "velocity": 62}, {"time": 2986, "pitch": 65, "duration": 13, "velocity": 92}, {"time": 2992, "pitch": 57, "duration": 8, "velocity": 73}, {"time": 2998, "pitch": 62, "duration": 10, "velocity": 84}, {"time": 3004, "pitch": 57, "duration": 7, "velocity": 80}, {"time": 3010, "pitch": 65, "duration": 10, "velocity": 94}, {"time": 3016, "pitch": 57, "duration": 7, "velocity": 69}, {"time": 3022, "pitch": 64, "duration": 9, "velocity": 97}, {"time": 3028, "pitch": 57, "duration": 4, "velocity": 92}, {"time": 3034, "pitch": 38, "duration": 40, "velocity": 100}, {"time": 3034, "pitch": 50, "duration": 40, "velocity": 100}, {"time": 3034, "pitch": 57, "duration": 4, "velocity": 92}, {"time": 3034, "pitch": 62, "duration": 13, "velocity": 84}, {"time": 3040, "pitch": 57, "duration": 7, "velocity": 69}, {"time": 3046, "pitch": 65, "duration": 9, "velocity": 100}, {"time": 3052, "pitch": 57, "duration": 4, "velocity": 97}, {"time": 3058, "pitch": 57, "duration": 3, "velocity": 111}, {"time": 3058, "pitch": 64, "duration": 10, "velocity": 94}, {"time": 3064, "pitch": 57, "duration": 9, "velocity": 62}, {"time": 3070, "pitch": 62, "duration": 10, "velocity": 117}, {"time": 3070, "pitch": 64, "duration": 1, "velocity": 78}, {"time": 3076, "pitch": 33, "duration": 4, "velocity": 102}, {"time": 3076, "pitch": 45, "duration": 4, "velocity": 102}, {"time": 3082, "pitch": 31, "duration": 40, "velocity": 102}, {"time": 3082, "pitch": 43, "duration": 40, "velocity": 102}, {"time": 3082, "pitch": 55, "duration": 12, "velocity": 78}, {"time": 3082, "pitch": 58, "duration": 8, "velocity": 46}, {"time": 3088, "pitch": 50, "duration": 9, "velocity": 60}, {"time": 3094, "pitch": 62, "duration": 21, "velocity": 94}, {"time": 3100, "pitch": 50, "duration": 9, "velocity": 60}, {"time": 3103, "pitch": 55, "duration": 2, "velocity": 1}, {"time": 3106, "pitch": 67, "duration": 9, "velocity": 97}, {"time": 3112, "pitch": 50, "duration": 11, "velocity": 28}, {"time": 3118, "pitch": 58, "duration": 8, "velocity": 87}, {"time": 3118, "pitch": 62, "duration": 10, "velocity": 97}, {"time": 3118, "pitch": 67, "duration": 9, "velocity": 92}, {"time": 3124, "pitch": 31, "duration": 4, "velocity": 100}, {"time": 3124, "pitch": 43, "duration": 4, "velocity": 100}, {"time": 3130, "pitch": 36, "duration": 38, "velocity": 89}, {"time": 3130, "pitch": 48, "duration": 38, "velocity": 89}, {"time": 3130, "pitch": 55, "duration": 3, "velocity": 84}, {"time": 3130, "pitch": 60, "duration": 12, "velocity": 94}, {"time": 3136, "pitch": 55, "duration": 6, "velocity": 66}, {"time": 3142, "pitch": 64, "duration": 10, "velocity": 102}, {"time": 3148, "pitch": 55, "duration": 4, "velocity": 73}, {"time": 3154, "pitch": 55, "duration": 3, "velocity": 87}, {"time": 3154, "pitch": 60, "duration": 8, "velocity": 92}, {"time": 3160, "pitch": 55, "duration": 4, "velocity": 64}, {"time": 3166, "pitch": 55, "duration": 2, "velocity": 102}, {"time": 3166, "pitch": 60, "duration": 2, "velocity": 102}, {"time": 3166, "pitch": 64, "duration": 3, "velocity": 102}, {"time": 3178, "pitch": 38, "duration": 16, "velocity": 102}, {"time": 3178, "pitch": 50, "duration": 16, "velocity": 102}, {"time": 3178, "pitch": 62, "duration": 8, "velocity": 94}, {"time": 3178, "pitch": 67, "duration": 10, "velocity": 100}, {"time": 3184, "pitch": 57, "duration": 10, "velocity": 71}, {"time": 3190, "pitch": 62, "duration": 2, "velocity": 114}, {"time": 3196, "pitch": 38, "duration": 20, "velocity": 100}, {"time": 3196, "pitch": 50, "duration": 20, "velocity": 100}, {"time": 3196, "pitch": 57, "duration": 20, "velocity": 100}, {"time": 3196, "pitch": 62, "duration": 10, "velocity": 102}, {"time": 3196, "pitch": 66, "duration": 13, "velocity": 105}, {"time": 3208, "pitch": 62, "duration": 5, "velocity": 76}, {"time": 3220, "pitch": 38, "duration": 33, "velocity": 102}, {"time": 3220, "pitch": 50, "duration": 33, "velocity": 102}, {"time": 3220, "pitch": 57, "duration": 15, "velocity": 84}, {"time": 3220, "pitch": 62, "duration": 21, "velocity": 97}, {"time": 3220, "pitch": 65, "duration": 21, "velocity": 108}, {"time": 3238, "pitch": 57, "duration": 15, "velocity": 89}, {"time": 3244, "pitch": 62, "duration": 4, "velocity": 92}, {"time": 3250, "pitch": 62, "duration": 9, "velocity": 92}, {"time": 3250, "pitch": 65, "duration": 9, "velocity": 105}, {"time": 3250, "pitch": 69, "duration": 8, "velocity": 100}, {"time": 3256, "pitch": 50, "duration": 14, "velocity": 67}, {"time": 3256, "pitch": 57, "duration": 12, "velocity": 78}, {"time": 3262, "pitch": 62, "duration": 3, "velocity": 100}, {"time": 3262, "pitch": 65, "duration": 3, "velocity": 111}, {"time": 3262, "pitch": 69, "duration": 4, "velocity": 111}, {"time": 3268, "pitch": 62, "duration": 4, "velocity": 84}, {"time": 3268, "pitch": 67, "duration": 5, "velocity": 89}, {"time": 3274, "pitch": 50, "duration": 40, "velocity": 105}, {"time": 3274, "pitch": 62, "duration": 7, "velocity": 87}, {"time": 3274, "pitch": 65, "duration": 7, "velocity": 94}, {"time": 3277, "pitch": 38, "duration": 40, "velocity": 93}, {"time": 3280, "pitch": 57, "duration": 8, "velocity": 78}, {"time": 3286, "pitch": 62, "duration": 8, "velocity": 105}, {"time": 3286, "pitch": 65, "duration": 8, "velocity": 102}, {"time": 3292, "pitch": 57, "duration": 8, "velocity": 84}, {"time": 3298, "pitch": 62, "duration": 8, "velocity": 100}, {"time": 3298, "pitch": 65, "duration": 7, "velocity": 100}, {"time": 3304, "pitch": 57, "duration": 7, "velocity": 71}, {"time": 3310, "pitch": 62, "duration": 5, "velocity": 105}, {"time": 3310, "pitch": 65, "duration": 7, "velocity": 105}, {"time": 3316, "pitch": 57, "duration": 2, "velocity": 100}, {"time": 3322, "pitch": 43, "duration": 27, "velocity": 100}, {"time": 3322, "pitch": 55, "duration": 3, "velocity": 82}, {"time": 3322, "pitch": 58, "duration": 7, "velocity": 85}, {"time": 3322, "pitch": 62, "duration": 6, "velocity": 87}, {"time": 3325, "pitch": 31, "duration": 27, "velocity": 88}, {"time": 3328, "pitch": 55, "duration": 5, "velocity": 62}, {"time": 3334, "pitch": 55, "duration": 1, "velocity": 27}, {"time": 3334, "pitch": 58, "duration": 7, "velocity": 102}, {"time": 3334, "pitch": 62, "duration": 8, "velocity": 102}, {"time": 3334, "pitch": 67, "duration": 7, "velocity": 94}, {"time": 3340, "pitch": 55, "duration": 4, "velocity": 71}, {"time": 3346, "pitch": 55, "duration": 6, "velocity": 92}, {"time": 3346, "pitch": 58, "duration": 7, "velocity": 102}, {"time": 3346, "pitch": 62, "duration": 8, "velocity": 102}, {"time": 3352, "pitch": 50, "duration": 8, "velocity": 89}, {"time": 3355, "pitch": 55, "duration": 2, "velocity": 92}, {"time": 3355, "pitch": 38, "duration": 8, "velocity": 77}, {"time": 3358, "pitch": 55, "duration": 5, "velocity": 102}, {"time": 3358, "pitch": 58, "duration": 6, "velocity": 105}, {"time": 3358, "pitch": 62, "duration": 10, "velocity": 105}, {"time": 3364, "pitch": 43, "duration": 5, "velocity": 105}, {"time": 3367, "pitch": 55, "duration": 2, "velocity": 105}, {"time": 3367, "pitch": 31, "duration": 5, "velocity": 93}, {"time": 3370, "pitch": 48, "duration": 16, "velocity": 111}, {"time": 3370, "pitch": 55, "duration": 3, "velocity": 94}, {"time": 3370, "pitch": 60, "duration": 7, "velocity": 97}, {"time": 3373, "pitch": 36, "duration": 16, "velocity": 99}, {"time": 3376, "pitch": 55, "duration": 2, "velocity": 58}, {"time": 3382, "pitch": 55, "duration": 4, "velocity": 108}, {"time": 3382, "pitch": 64, "duration": 8, "velocity": 92}, {"time": 3388, "pitch": 48, "duration": 5, "velocity": 76}, {"time": 3391, "pitch": 55, "duration": 2, "velocity": 92}, {"time": 3391, "pitch": 36, "duration": 5, "velocity": 64}, {"time": 3394, "pitch": 48, "duration": 16, "velocity": 92}, {"time": 3394, "pitch": 55, "duration": 4, "velocity": 94}, {"time": 3394, "pitch": 60, "duration": 7, "velocity": 102}, {"time": 3397, "pitch": 36, "duration": 16, "velocity": 80}, {"time": 3400, "pitch": 55, "duration": 2, "velocity": 100}, {"time": 3406, "pitch": 55, "duration": 3, "velocity": 100}, {"time": 3406, "pitch": 60, "duration": 4, "velocity": 111}, {"time": 3406, "pitch": 64, "duration": 6, "velocity": 102}, {"time": 3412, "pitch": 55, "duration": 2, "velocity": 92}, {"time": 3418, "pitch": 50, "duration": 47, "velocity": 94}, {"time": 3418, "pitch": 57, "duration": 3, "velocity": 102}, {"time": 3418, "pitch": 62, "duration": 7, "velocity": 102}, {"time": 3421, "pitch": 38, "duration": 47, "velocity": 82}, {"time": 3424, "pitch": 57, "duration": 3, "velocity": 82}, {"time": 3430, "pitch": 57, "duration": 2, "velocity": 105}, {"time": 3430, "pitch": 62, "duration": 9, "velocity": 108}, {"time": 3430, "pitch": 65, "duration": 11, "velocity": 100}, {"time": 3436, "pitch": 57, "duration": 5, "velocity": 76}, {"time": 3442, "pitch": 57, "duration": 3, "velocity": 105}, {"time": 3442, "pitch": 64, "duration": 6, "velocity": 102}, {"time": 3448, "pitch": 57, "duration": 2, "velocity": 82}, {"time": 3451, "pitch": 57, "duration": 1, "velocity": 97}, {"time": 3451, "pitch": 65, "duration": 2, "velocity": 105}, {"time": 3454, "pitch": 57, "duration": 4, "velocity": 111}, {"time": 3454, "pitch": 65, "duration": 4, "velocity": 105}, {"time": 3460, "pitch": 57, "duration": 4, "velocity": 111}, {"time": 3460, "pitch": 64, "duration": 4, "velocity": 108}, {"time": 3466, "pitch": 50, "duration": 14, "velocity": 97}, {"time": 3466, "pitch": 57, "duration": 3, "velocity": 94}, {"time": 3466, "pitch": 62, "duration": 8, "velocity": 84}, {"time": 3469, "pitch": 38, "duration": 14, "velocity": 85}, {"time": 3472, "pitch": 57, "duration": 3, "velocity": 87}, {"time": 3478, "pitch": 57, "duration": 3, "velocity": 111}, {"time": 3478, "pitch": 62, "duration": 8, "velocity": 108}, {"time": 3478, "pitch": 65, "duration": 8, "velocity": 105}, {"time": 3484, "pitch": 57, "duration": 4, "velocity": 80}, {"time": 3490, "pitch": 50, "duration": 13, "velocity": 67}, {"time": 3490, "pitch": 57, "duration": 4, "velocity": 89}, {"time": 3490, "pitch": 62, "duration": 9, "velocity": 87}, {"time": 3493, "pitch": 38, "duration": 13, "velocity": 55}, {"time": 3496, "pitch": 57, "duration": 8, "velocity": 87}, {"time": 3502, "pitch": 62, "duration": 4, "velocity": 100}, {"time": 3502, "pitch": 65, "duration": 7, "velocity": 102}, {"time": 3508, "pitch": 57, "duration": 2, "velocity": 80}, {"time": 3514, "pitch": 43, "duration": 18, "velocity": 102}, {"time": 3514, "pitch": 55, "duration": 10, "velocity": 80}, {"time": 3514, "pitch": 58, "duration": 6, "velocity": 72}, {"time": 3514, "pitch": 62, "duration": 8, "velocity": 94}, {"time": 3517, "pitch": 31, "duration": 18, "velocity": 90}, {"time": 3520, "pitch": 50, "duration": 9, "velocity": 73}, {"time": 3523, "pitch": 38, "duration": 9, "velocity": 61}, {"time": 3526, "pitch": 55, "duration": 3, "velocity": 87}, {"time": 3526, "pitch": 58, "duration": 8, "velocity": 99}, {"time": 3526, "pitch": 62, "duration": 8, "velocity": 100}, {"time": 3532, "pitch": 50, "duration": 10, "velocity": 62}, {"time": 3535, "pitch": 38, "duration": 10, "velocity": 50}, {"time": 3538, "pitch": 55, "duration": 5, "velocity": 102}, {"time": 3538, "pitch": 58, "duration": 10, "velocity": 109}, {"time": 3538, "pitch": 62, "duration": 9, "velocity": 105}, {"time": 3538, "pitch": 67, "duration": 9, "velocity": 97}, {"time": 3544, "pitch": 55, "duration": 4, "velocity": 82}, {"time": 3550, "pitch": 58, "duration": 7, "velocity": 109}, {"time": 3550, "pitch": 62, "duration": 7, "velocity": 108}, {"time": 3556, "pitch": 55, "duration": 4, "velocity": 89}, {"time": 3562, "pitch": 46, "duration": 16, "velocity": 96}, {"time": 3562, "pitch": 58, "duration": 9, "velocity": 96}, {"time": 3562, "pitch": 62, "duration": 9, "velocity": 92}, {"time": 3565, "pitch": 34, "duration": 16, "velocity": 84}, {"time": 3568, "pitch": 53, "duration": 9, "velocity": 30}, {"time": 3574, "pitch": 58, "duration": 10, "velocity": 102}, {"time": 3574, "pitch": 62, "duration": 10, "velocity": 100}, {"time": 3574, "pitch": 65, "duration": 10, "velocity": 87}, {"time": 3580, "pitch": 46, "duration": 4, "velocity": 90}, {"time": 3583, "pitch": 34, "duration": 4, "velocity": 78}, {"time": 3586, "pitch": 46, "duration": 15, "velocity": 96}, {"time": 3586, "pitch": 58, "duration": 4, "velocity": 87}, {"time": 3586, "pitch": 62, "duration": 10, "velocity": 82}, {"time": 3586, "pitch": 65, "duration": 9, "velocity": 87}, {"time": 3589, "pitch": 34, "duration": 15, "velocity": 84}, {"time": 3592, "pitch": 58, "duration": 4, "velocity": 70}, {"time": 3598, "pitch": 58, "duration": 5, "velocity": 112}, {"time": 3598, "pitch": 62, "duration": 6, "velocity": 108}, {"time": 3598, "pitch": 65, "duration": 7, "velocity": 100}, {"time": 3604, "pitch": 46, "duration": 2, "velocity": 77}, {"time": 3607, "pitch": 34, "duration": 3, "velocity": 65}, {"time": 3610, "pitch": 48, "duration": 15, "velocity": 111}, {"time": 3610, "pitch": 60, "duration": 8, "velocity": 80}, {"time": 3610, "pitch": 64, "duration": 8, "velocity": 82}, {"time": 3613, "pitch": 36, "duration": 15, "velocity": 99}, {"time": 3616, "pitch": 55, "duration": 9, "velocity": 76}, {"time": 3622, "pitch": 60, "duration": 6, "velocity": 108}, {"time": 3622, "pitch": 64, "duration": 6, "velocity": 117}, {"time": 3622, "pitch": 67, "duration": 6, "velocity": 111}, {"time": 3628, "pitch": 55, "duration": 4, "velocity": 80}, {"time": 3634, "pitch": 48, "duration": 9, "velocity": 108}, {"time": 3634, "pitch": 60, "duration": 8, "velocity": 100}, {"time": 3634, "pitch": 64, "duration": 8, "velocity": 105}, {"time": 3634, "pitch": 67, "duration": 7, "velocity": 105}, {"time": 3634, "pitch": 72, "duration": 7, "velocity": 92}, {"time": 3637, "pitch": 36, "duration": 9, "velocity": 96}, {"time": 3640, "pitch": 55, "duration": 4, "velocity": 73}, {"time": 3646, "pitch": 48, "duration": 8, "velocity": 108}, {"time": 3646, "pitch": 60, "duration": 4, "velocity": 89}, {"time": 3646, "pitch": 64, "duration": 10, "velocity": 102}, {"time": 3646, "pitch": 67, "duration": 10, "velocity": 100}, {"time": 3649, "pitch": 36, "duration": 8, "velocity": 96}, {"time": 3652, "pitch": 60, "duration": 4, "velocity": 102}, {"time": 3658, "pitch": 48, "duration": 14, "velocity": 105}, {"time": 3658, "pitch": 60, "duration": 14, "velocity": 84}, {"time": 3658, "pitch": 64, "duration": 13, "velocity": 97}, {"time": 3658, "pitch": 67, "duration": 14, "velocity": 97}, {"time": 3661, "pitch": 36, "duration": 15, "velocity": 93}, {"time": 3670, "pitch": 55, "duration": 4, "velocity": 57}, {"time": 3676, "pitch": 48, "duration": 21, "velocity": 105}, {"time": 3676, "pitch": 60, "duration": 13, "velocity": 102}, {"time": 3676, "pitch": 64, "duration": 13, "velocity": 102}, {"time": 3676, "pitch": 67, "duration": 13, "velocity": 97}, {"time": 3679, "pitch": 36, "duration": 21, "velocity": 93}, {"time": 3688, "pitch": 55, "duration": 8, "velocity": 69}, {"time": 3694, "pitch": 60, "duration": 3, "velocity": 102}, {"time": 3694, "pitch": 64, "duration": 3, "velocity": 102}, {"time": 3694, "pitch": 67, "duration": 4, "velocity": 100}, {"time": 3700, "pitch": 48, "duration": 2, "velocity": 100}, {"time": 3703, "pitch": 36, "duration": 3, "velocity": 88}, {"time": 3705, "pitch": 38, "duration": 17, "velocity": 105}, {"time": 3706, "pitch": 50, "duration": 16, "velocity": 105}, {"time": 3706, "pitch": 62, "duration": 8, "velocity": 108}, {"time": 3711, "pitch": 57, "duration": 12, "velocity": 47}, {"time": 3717, "pitch": 62, "duration": 4, "velocity": 89}, {"time": 3724, "pitch": 36, "duration": 16, "velocity": 105}, {"time": 3724, "pitch": 48, "duration": 16, "velocity": 105}, {"time": 3724, "pitch": 60, "duration": 18, "velocity": 114}, {"time": 3748, "pitch": 34, "duration": 27, "velocity": 105}, {"time": 3748, "pitch": 46, "duration": 28, "velocity": 105}, {"time": 3748, "pitch": 58, "duration": 10, "velocity": 105}, {"time": 3748, "pitch": 62, "duration": 15, "velocity": 89}, {"time": 3759, "pitch": 58, "duration": 3, "velocity": 63}, {"time": 3766, "pitch": 58, "duration": 3, "velocity": 105}, {"time": 3766, "pitch": 62, "duration": 13, "velocity": 92}, {"time": 3772, "pitch": 58, "duration": 4, "velocity": 46}, {"time": 3778, "pitch": 33, "duration": 26, "velocity": 94}, {"time": 3778, "pitch": 45, "duration": 26, "velocity": 94}, {"time": 3778, "pitch": 57, "duration": 10, "velocity": 58}, {"time": 3779, "pitch": 60, "duration": 15, "velocity": 87}, {"time": 3785, "pitch": 40, "duration": 17, "velocity": 71}, {"time": 3786, "pitch": 52, "duration": 16, "velocity": 71}, {"time": 3793, "pitch": 55, "duration": 16, "velocity": 97}, {"time": 3801, "pitch": 60, "duration": 11, "velocity": 69}, {"time": 3811, "pitch": 38, "duration": 40, "velocity": 80}, {"time": 3811, "pitch": 50, "duration": 40, "velocity": 80}, {"time": 3815, "pitch": 57, "duration": 36, "velocity": 58}, {"time": 3819, "pitch": 62, "duration": 36, "velocity": 78}, {"time": 3837, "pitch": 69, "duration": 17, "velocity": 57}], "annotations": [{"time": 179, "annotation": {"number": 64, "value": 127}, "group": "control_change"}, {"time": 189, "annotation": {"number": 64, "value": 0}, "group": "control_change"}, {"time": 193, "annotation": {"number": 64, "value": 127}, "group": "control_change"}, {"time": 199, "annotation": {"number": 64, "value": 0}, "group": "control_change"}, {"time": 203, "annotation": {"number": 64, "value": 127}, "group": "control_change"}, {"time": 247, "annotation": {"number": 64, "value": 0}, "group": "control_change"}, {"time": 251, "annotation": {"number": 64, "value": 127}, "group": "control_change"}, {"time": 296, "annotation": {"number": 64, "value": 0}, "group": "control_change"}, {"time": 300, "annotation": {"number": 64, "value": 127}, "group": "control_change"}, {"time": 332, "annotation": {"number": 64, "value": 0}, "group": "control_change"}, {"time": 334, "annotation": {"number": 64, "value": 127}, "group": "control_change"}, {"time": 345, "annotation": {"number": 64, "value": 0}, "group": "control_change"}, {"time": 349, "annotation": {"number": 64, "value": 127}, "group": "control_change"}, {"time": 374, "annotation": {"number": 64, "value": 0}, "group": "control_change"}, {"time": 376, "annotation": {"number": 64, "value": 127}, "group": "control_change"}, {"time": 392, "annotation": {"number": 64, "value": 0}, "group": "control_change"}, {"time": 395, "annotation": {"number": 64, "value": 127}, "group": "control_change"}, {"time": 420, "annotation": {"number": 64, "value": 0}, "group": "control_change"}, {"time": 422, "annotation": {"number": 64, "value": 127}, "group": "control_change"}, {"time": 441, "annotation": {"number": 64, "value": 0}, "group": "control_change"}, {"time": 443, "annotation": {"number": 64, "value": 127}, "group": "control_change"}, {"time": 462, "annotation": {"number": 64, "value": 0}, "group": "control_change"}, {"time": 464, "annotation": {"number": 64, "value": 127}, "group": "control_change"}, {"time": 477, "annotation": {"number": 64, "value": 0}, "group": "control_change"}, {"time": 480, "annotation": {"number": 64, "value": 127}, "group": "control_change"}, {"time": 488, "annotation": {"number": 64, "value": 0}, "group": "control_change"}, {"time": 495, "annotation": {"number": 64, "value": 127}, "group": "control_change"}, {"time": 511, "annotation": {"number": 64, "value": 0}, "group": "control_change"}, {"time": 515, "annotation": {"number": 64, "value": 127}, "group": "control_change"}, {"time": 537, "annotation": {"number": 64, "value": 0}, "group": "control_change"}, {"time": 544, "annotation": {"number": 64, "value": 127}, "group": "control_change"}, {"time": 584, "annotation": {"number": 64, "value": 0}, "group": "control_change"}, {"time": 591, "annotation": {"number": 64, "value": 127}, "group": "control_change"}, {"time": 632, "annotation": {"number": 64, "value": 0}, "group": "control_change"}, {"time": 639, "annotation": {"number": 64, "value": 127}, "group": "control_change"}, {"time": 661, "annotation": {"number": 64, "value": 0}, "group": "control_change"}, {"time": 663, "annotation": {"number": 64, "value": 127}, "group": "control_change"}, {"time": 682, "annotation": {"number": 64, "value": 0}, "group": "control_change"}, {"time": 689, "annotation": {"number": 64, "value": 127}, "group": "control_change"}, {"time": 729, "annotation": {"number": 64, "value": 0}, "group": "control_change"}, {"time": 735, "annotation": {"number": 64, "value": 127}, "group": "control_change"}, {"time": 765, "annotation": {"number": 64, "value": 0}, "group": "control_change"}, {"time": 767, "annotation": {"number": 64, "value": 127}, "group": "control_change"}, {"time": 776, "annotation": {"number": 64, "value": 0}, "group": "control_change"}, {"time": 782, "annotation": {"number": 64, "value": 127}, "group": "control_change"}, {"time": 825, "annotation": {"number": 64, "value": 0}, "group": "control_change"}, {"time": 827, "annotation": {"number": 64, "value": 127}, "group": "control_change"}, {"time": 848, "annotation": {"number": 64, "value": 0}, "group": "control_change"}, {"time": 851, "annotation": {"number": 64, "value": 127}, "group": "control_change"}, {"time": 874, "annotation": {"number": 64, "value": 0}, "group": "control_change"}, {"time": 880, "annotation": {"number": 64, "value": 127}, "group": "control_change"}, {"time": 921, "annotation": {"number": 64, "value": 0}, "group": "control_change"}, {"time": 924, "annotation": {"number": 64, "value": 127}, "group": "control_change"}, {"time": 939, "annotation": {"number": 64, "value": 0}, "group": "control_change"}, {"time": 948, "annotation": {"number": 64, "value": 127}, "group": "control_change"}, {"time": 963, "annotation": {"number": 64, "value": 0}, "group": "control_change"}, {"time": 974, "annotation": {"number": 64, "value": 127}, "group": "control_change"}, {"time": 1016, "annotation": {"number": 64, "value": 0}, "group": "control_change"}, {"time": 1022, "annotation": {"number": 64, "value": 127}, "group": "control_change"}, {"time": 1028, "annotation": {"number": 64, "value": 0}, "group": "control_change"}, {"time": 1034, "annotation": {"number": 64, "value": 127}, "group": "control_change"}, {"time": 1050, "annotation": {"number": 64, "value": 0}, "group": "control_change"}, {"time": 1053, "annotation": {"number": 64, "value": 127}, "group": "control_change"}, {"time": 1065, "annotation": {"number": 64, "value": 0}, "group": "control_change"}, {"time": 1071, "annotation": {"number": 64, "value": 127}, "group": "control_change"}, {"time": 1111, "annotation": {"number": 64, "value": 0}, "group": "control_change"}, {"time": 1117, "annotation": {"number": 64, "value": 127}, "group": "control_change"}, {"time": 1138, "annotation": {"number": 64, "value": 0}, "group": "control_change"}, {"time": 1138, "annotation": {"number": 64, "value": 127}, "group": "control_change"}, {"time": 1162, "annotation": {"number": 64, "value": 0}, "group": "control_change"}, {"time": 1165, "annotation": {"number": 64, "value": 127}, "group": "control_change"}, {"time": 1184, "annotation": {"number": 64, "value": 0}, "group": "control_change"}, {"time": 1187, "annotation": {"number": 64, "value": 127}, "group": "control_change"}, {"time": 1208, "annotation": {"number": 64, "value": 0}, "group": "control_change"}, {"time": 1214, "annotation": {"number": 64, "value": 127}, "group": "control_change"}, {"time": 1236, "annotation": {"number": 64, "value": 0}, "group": "control_change"}, {"time": 1241, "annotation": {"number": 64, "value": 127}, "group": "control_change"}, {"time": 1257, "annotation": {"number": 64, "value": 0}, "group": "control_change"}, {"time": 1265, "annotation": {"number": 64, "value": 127}, "group": "control_change"}, {"time": 1296, "annotation": {"number": 64, "value": 0}, "group": "control_change"}, {"time": 1297, "annotation": {"number": 64, "value": 127}, "group": "control_change"}, {"time": 1304, "annotation": {"number": 64, "value": 0}, "group": "control_change"}, {"time": 1308, "annotation": {"number": 64, "value": 127}, "group": "control_change"}, {"time": 1331, "annotation": {"number": 64, "value": 0}, "group": "control_change"}, {"time": 1332, "annotation": {"number": 64, "value": 127}, "group": "control_change"}, {"time": 1353, "annotation": {"number": 64, "value": 0}, "group": "control_change"}, {"time": 1359, "annotation": {"number": 64, "value": 127}, "group": "control_change"}, {"time": 1378, "annotation": {"number": 64, "value": 0}, "group": "control_change"}, {"time": 1380, "annotation": {"number": 64, "value": 127}, "group": "control_change"}, {"time": 1400, "annotation": {"number": 64, "value": 0}, "group": "control_change"}, {"time": 1404, "annotation": {"number": 64, "value": 127}, "group": "control_change"}, {"time": 1418, "annotation": {"number": 64, "value": 0}, "group": "control_change"}, {"time": 1422, "annotation": {"number": 64, "value": 127}, "group": "control_change"}, {"time": 1447, "annotation": {"number": 64, "value": 0}, "group": "control_change"}, {"time": 1452, "annotation": {"number": 64, "value": 127}, "group": "control_change"}, {"time": 1466, "annotation": {"number": 64, "value": 0}, "group": "control_change"}, {"time": 1472, "annotation": {"number": 64, "value": 127}, "group": "control_change"}, {"time": 1491, "annotation": {"number": 64, "value": 0}, "group": "control_change"}, {"time": 1509, "annotation": {"number": 64, "value": 127}, "group": "control_change"}, {"time": 1543, "annotation": {"number": 64, "value": 0}, "group": "control_change"}, {"time": 1548, "annotation": {"number": 64, "value": 127}, "group": "control_change"}, {"time": 1593, "annotation": {"number": 64, "value": 0}, "group": "control_change"}, {"time": 1599, "annotation": {"number": 64, "value": 127}, "group": "control_change"}, {"time": 1628, "annotation": {"number": 64, "value": 0}, "group": "control_change"}, {"time": 1629, "annotation": {"number": 64, "value": 127}, "group": "control_change"}, {"time": 1644, "annotation": {"number": 64, "value": 0}, "group": "control_change"}, {"time": 1650, "annotation": {"number": 64, "value": 127}, "group": "control_change"}, {"time": 1689, "annotation": {"number": 64, "value": 0}, "group": "control_change"}, {"time": 1694, "annotation": {"number": 64, "value": 127}, "group": "control_change"}, {"time": 1736, "annotation": {"number": 64, "value": 0}, "group": "control_change"}, {"time": 1746, "annotation": {"number": 64, "value": 127}, "group": "control_change"}, {"time": 1787, "annotation": {"number": 64, "value": 0}, "group": "control_change"}, {"time": 1791, "annotation": {"number": 64, "value": 127}, "group": "control_change"}, {"time": 1833, "annotation": {"number": 64, "value": 0}, "group": "control_change"}, {"time": 1841, "annotation": {"number": 64, "value": 127}, "group": "control_change"}, {"time": 1881, "annotation": {"number": 64, "value": 0}, "group": "control_change"}, {"time": 1888, "annotation": {"number": 64, "value": 127}, "group": "control_change"}, {"time": 1913, "annotation": {"number": 64, "value": 127}, "group": "control_change"}, {"time": 1928, "annotation": {"number": 64, "value": 0}, "group": "control_change"}, {"time": 1935, "annotation": {"number": 64, "value": 127}, "group": "control_change"}, {"time": 1976, "annotation": {"number": 64, "value": 0}, "group": "control_change"}, {"time": 1983, "annotation": {"number": 64, "value": 127}, "group": "control_change"}, {"time": 2005, "annotation": {"number": 64, "value": 0}, "group": "control_change"}, {"time": 2007, "annotation": {"number": 64, "value": 127}, "group": "control_change"}, {"time": 2026, "annotation": {"number": 64, "value": 0}, "group": "control_change"}, {"time": 2033, "annotation": {"number": 64, "value": 127}, "group": "control_change"}, {"time": 2073, "annotation": {"number": 64, "value": 0}, "group": "control_change"}, {"time": 2079, "annotation": {"number": 64, "value": 127}, "group": "control_change"}, {"time": 2109, "annotation": {"number": 64, "value": 0}, "group": "control_change"}, {"time": 2111, "annotation": {"number": 64, "value": 127}, "group": "control_change"}, {"time": 2120, "annotation": {"number": 64, "value": 0}, "group": "control_change"}, {"time": 2126, "annotation": {"number": 64, "value": 127}, "group": "control_change"}, {"time": 2169, "annotation": {"number": 64, "value": 0}, "group": "control_change"}, {"time": 2171, "annotation": {"number": 64, "value": 127}, "group": "control_change"}, {"time": 2192, "annotation": {"number": 64, "value": 0}, "group": "control_change"}, {"time": 2195, "annotation": {"number": 64, "value": 127}, "group": "control_change"}, {"time": 2218, "annotation": {"number": 64, "value": 0}, "group": "control_change"}, {"time": 2224, "annotation": {"number": 64, "value": 127}, "group": "control_change"}, {"time": 2265, "annotation": {"number": 64, "value": 0}, "group": "control_change"}, {"time": 2268, "annotation": {"number": 64, "value": 127}, "group": "control_change"}, {"time": 2283, "annotation": {"number": 64, "value": 0}, "group": "control_change"}, {"time": 2292, "annotation": {"number": 64, "value": 127}, "group": "control_change"}, {"time": 2307, "annotation": {"number": 64, "value": 0}, "group": "control_change"}, {"time": 2318, "annotation": {"number": 64, "value": 127}, "group": "control_change"}, {"time": 2360, "annotation": {"number": 64, "value": 0}, "group": "control_change"}, {"time": 2366, "annotation": {"number": 64, "value": 127}, "group": "control_change"}, {"time": 2372, "annotation": {"number": 64, "value": 0}, "group": "control_change"}, {"time": 2378, "annotation": {"number": 64, "value": 127}, "group": "control_change"}, {"time": 2394, "annotation": {"number": 64, "value": 0}, "group": "control_change"}, {"time": 2397, "annotation": {"number": 64, "value": 127}, "group": "control_change"}, {"time": 2409, "annotation": {"number": 64, "value": 0}, "group": "control_change"}, {"time": 2415, "annotation": {"number": 64, "value": 127}, "group": "control_change"}, {"time": 2455, "annotation": {"number": 64, "value": 0}, "group": "control_change"}, {"time": 2461, "annotation": {"number": 64, "value": 127}, "group": "control_change"}, {"time": 2482, "annotation": {"number": 64, "value": 0}, "group": "control_change"}, {"time": 2482, "annotation": {"number": 64, "value": 127}, "group": "control_change"}, {"time": 2506, "annotation": {"number": 64, "value": 0}, "group": "control_change"}, {"time": 2509, "annotation": {"number": 64, "value": 127}, "group": "control_change"}, {"time": 2528, "annotation": {"number": 64, "value": 0}, "group": "control_change"}, {"time": 2531, "annotation": {"number": 64, "value": 127}, "group": "control_change"}, {"time": 2552, "annotation": {"number": 64, "value": 0}, "group": "control_change"}, {"time": 2558, "annotation": {"number": 64, "value": 127}, "group": "control_change"}, {"time": 2580, "annotation": {"number": 64, "value": 0}, "group": "control_change"}, {"time": 2585, "annotation": {"number": 64, "value": 127}, "group": "control_change"}, {"time": 2601, "annotation": {"number": 64, "value": 0}, "group": "control_change"}, {"time": 2609, "annotation": {"number": 64, "value": 127}, "group": "control_change"}, {"time": 2640, "annotation": {"number": 64, "value": 0}, "group": "control_change"}, {"time": 2641, "annotation": {"number": 64, "value": 127}, "group": "control_change"}, {"time": 2648, "annotation": {"number": 64, "value": 0}, "group": "control_change"}, {"time": 2652, "annotation": {"number": 64, "value": 127}, "group": "control_change"}, {"time": 2675, "annotation": {"number": 64, "value": 0}, "group": "control_change"}, {"time": 2676, "annotation": {"number": 64, "value": 127}, "group": "control_change"}, {"time": 2697, "annotation": {"number": 64, "value": 0}, "group": "control_change"}, {"time": 2703, "annotation": {"number": 64, "value": 127}, "group": "control_change"}, {"time": 2722, "annotation": {"number": 64, "value": 0}, "group": "control_change"}, {"time": 2724, "annotation": {"number": 64, "value": 127}, "group": "control_change"}, {"time": 2744, "annotation": {"number": 64, "value": 0}, "group": "control_change"}, {"time": 2748, "annotation": {"number": 64, "value": 127}, "group": "control_change"}, {"time": 2762, "annotation": {"number": 64, "value": 0}, "group": "control_change"}, {"time": 2766, "annotation": {"number": 64, "value": 127}, "group": "control_change"}, {"time": 2791, "annotation": {"number": 64, "value": 0}, "group": "control_change"}, {"time": 2796, "annotation": {"number": 64, "value": 127}, "group": "control_change"}, {"time": 2837, "annotation": {"number": 64, "value": 0}, "group": "control_change"}, {"time": 2847, "annotation": {"number": 64, "value": 127}, "group": "control_change"}, {"time": 2888, "annotation": {"number": 64, "value": 0}, "group": "control_change"}, {"time": 2895, "annotation": {"number": 64, "value": 127}, "group": "control_change"}, {"time": 2917, "annotation": {"number": 64, "value": 0}, "group": "control_change"}, {"time": 2919, "annotation": {"number": 64, "value": 127}, "group": "control_change"}, {"time": 2938, "annotation": {"number": 64, "value": 0}, "group": "control_change"}, {"time": 2945, "annotation": {"number": 64, "value": 127}, "group": "control_change"}, {"time": 2985, "annotation": {"number": 64, "value": 0}, "group": "control_change"}, {"time": 2991, "annotation": {"number": 64, "value": 127}, "group": "control_change"}, {"time": 3021, "annotation": {"number": 64, "value": 0}, "group": "control_change"}, {"time": 3023, "annotation": {"number": 64, "value": 127}, "group": "control_change"}, {"time": 3032, "annotation": {"number": 64, "value": 0}, "group": "control_change"}, {"time": 3038, "annotation": {"number": 64, "value": 127}, "group": "control_change"}, {"time": 3081, "annotation": {"number": 64, "value": 0}, "group": "control_change"}, {"time": 3083, "annotation": {"number": 64, "value": 127}, "group": "control_change"}, {"time": 3104, "annotation": {"number": 64, "value": 0}, "group": "control_change"}, {"time": 3107, "annotation": {"number": 64, "value": 127}, "group": "control_change"}, {"time": 3130, "annotation": {"number": 64, "value": 0}, "group": "control_change"}, {"time": 3136, "annotation": {"number": 64, "value": 127}, "group": "control_change"}, {"time": 3177, "annotation": {"number": 64, "value": 0}, "group": "control_change"}, {"time": 3180, "annotation": {"number": 64, "value": 127}, "group": "control_change"}, {"time": 3195, "annotation": {"number": 64, "value": 0}, "group": "control_change"}, {"time": 3204, "annotation": {"number": 64, "value": 127}, "group": "control_change"}, {"time": 3219, "annotation": {"number": 64, "value": 0}, "group": "control_change"}, {"time": 3230, "annotation": {"number": 64, "value": 127}, "group": "control_change"}, {"time": 3272, "annotation": {"number": 64, "value": 0}, "group": "control_change"}, {"time": 3278, "annotation": {"number": 64, "value": 127}, "group": "control_change"}, {"time": 3284, "annotation": {"number": 64, "value": 0}, "group": "control_change"}, {"time": 3290, "annotation": {"number": 64, "value": 127}, "group": "control_change"}, {"time": 3306, "annotation": {"number": 64, "value": 0}, "group": "control_change"}, {"time": 3309, "annotation": {"number": 64, "value": 127}, "group": "control_change"}, {"time": 3321, "annotation": {"number": 64, "value": 0}, "group": "control_change"}, {"time": 3327, "annotation": {"number": 64, "value": 127}, "group": "control_change"}, {"time": 3367, "annotation": {"number": 64, "value": 0}, "group": "control_change"}, {"time": 3373, "annotation": {"number": 64, "value": 127}, "group": "control_change"}, {"time": 3394, "annotation": {"number": 64, "value": 0}, "group": "control_change"}, {"time": 3394, "annotation": {"number": 64, "value": 127}, "group": "control_change"}, {"time": 3418, "annotation": {"number": 64, "value": 0}, "group": "control_change"}, {"time": 3421, "annotation": {"number": 64, "value": 127}, "group": "control_change"}, {"time": 3440, "annotation": {"number": 64, "value": 0}, "group": "control_change"}, {"time": 3443, "annotation": {"number": 64, "value": 127}, "group": "control_change"}, {"time": 3464, "annotation": {"number": 64, "value": 0}, "group": "control_change"}, {"time": 3470, "annotation": {"number": 64, "value": 127}, "group": "control_change"}, {"time": 3492, "annotation": {"number": 64, "value": 0}, "group": "control_change"}, {"time": 3497, "annotation": {"number": 64, "value": 127}, "group": "control_change"}, {"time": 3513, "annotation": {"number": 64, "value": 0}, "group": "control_change"}, {"time": 3521, "annotation": {"number": 64, "value": 127}, "group": "control_change"}, {"time": 3552, "annotation": {"number": 64, "value": 0}, "group": "control_change"}, {"time": 3553, "annotation": {"number": 64, "value": 127}, "group": "control_change"}, {"time": 3560, "annotation": {"number": 64, "value": 0}, "group": "control_change"}, {"time": 3564, "annotation": {"number": 64, "value": 127}, "group": "control_change"}, {"time": 3587, "annotation": {"number": 64, "value": 0}, "group": "control_change"}, {"time": 3588, "annotation": {"number": 64, "value": 127}, "group": "control_change"}, {"time": 3609, "annotation": {"number": 64, "value": 0}, "group": "control_change"}, {"time": 3615, "annotation": {"number": 64, "value": 127}, "group": "control_change"}, {"time": 3634, "annotation": {"number": 64, "value": 0}, "group": "control_change"}, {"time": 3636, "annotation": {"number": 64, "value": 127}, "group": "control_change"}, {"time": 3656, "annotation": {"number": 64, "value": 0}, "group": "control_change"}, {"time": 3660, "annotation": {"number": 64, "value": 127}, "group": "control_change"}, {"time": 3674, "annotation": {"number": 64, "value": 0}, "group": "control_change"}, {"time": 3678, "annotation": {"number": 64, "value": 127}, "group": "control_change"}, {"time": 3703, "annotation": {"number": 64, "value": 0}, "group": "control_change"}, {"time": 3707, "annotation": {"number": 64, "value": 127}, "group": "control_change"}, {"time": 3724, "annotation": {"number": 64, "value": 0}, "group": "control_change"}, {"time": 3731, "annotation": {"number": 64, "value": 127}, "group": "control_change"}, {"time": 3749, "annotation": {"number": 64, "value": 0}, "group": "control_change"}, {"time": 3756, "annotation": {"number": 64, "value": 127}, "group": "control_change"}, {"time": 3778, "annotation": {"number": 64, "value": 0}, "group": "control_change"}, {"time": 3787, "annotation": {"number": 64, "value": 127}, "group": "control_change"}, {"time": 3809, "annotation": {"number": 64, "value": 0}, "group": "control_change"}, {"time": 3812, "annotation": {"number": 64, "value": 127}, "group": "control_change"}]}]}