{"metadata": {"schema_version": "0.2", "title": "None", "source_filename": "142.mid", "source_format": "midi"}, "resolution": 12, "tempos": [{"time": 0, "qpm": 68.00022666742223}], "time_signatures": [{"time": 0, "numerator": 1, "denominator": 4}], "tracks": [{"program": 4, "is_drum": false, "name": "MELODY", "notes": [{"time": 275, "pitch": 63, "duration": 2, "velocity": 92}, {"time": 278, "pitch": 63, "duration": 2, "velocity": 94}, {"time": 281, "pitch": 63, "duration": 7, "velocity": 102}, {"time": 290, "pitch": 65, "duration": 2, "velocity": 102}, {"time": 293, "pitch": 67, "duration": 5, "velocity": 96}, {"time": 299, "pitch": 70, "duration": 4, "velocity": 105}, {"time": 305, "pitch": 67, "duration": 3, "velocity": 105}, {"time": 308, "pitch": 65, "duration": 2, "velocity": 100}, {"time": 311, "pitch": 63, "duration": 5, "velocity": 108}, {"time": 317, "pitch": 60, "duration": 33, "velocity": 108}, {"time": 371, "pitch": 63, "duration": 2, "velocity": 97}, {"time": 374, "pitch": 63, "duration": 2, "velocity": 97}, {"time": 377, "pitch": 63, "duration": 7, "velocity": 100}, {"time": 386, "pitch": 65, "duration": 2, "velocity": 92}, {"time": 389, "pitch": 67, "duration": 5, "velocity": 109}, {"time": 395, "pitch": 70, "duration": 4, "velocity": 100}, {"time": 401, "pitch": 67, "duration": 3, "velocity": 105}, {"time": 404, "pitch": 65, "duration": 2, "velocity": 97}, {"time": 407, "pitch": 63, "duration": 5, "velocity": 97}, {"time": 413, "pitch": 65, "duration": 20, "velocity": 105}, {"time": 468, "pitch": 72, "duration": 2, "velocity": 105}, {"time": 471, "pitch": 72, "duration": 1, "velocity": 97}, {"time": 474, "pitch": 72, "duration": 1, "velocity": 97}, {"time": 477, "pitch": 72, "duration": 4, "velocity": 102}, {"time": 482, "pitch": 70, "duration": 2, "velocity": 100}, {"time": 485, "pitch": 72, "duration": 5, "velocity": 111}, {"time": 491, "pitch": 75, "duration": 11, "velocity": 111}, {"time": 504, "pitch": 72, "duration": 2, "velocity": 105}, {"time": 507, "pitch": 72, "duration": 2, "velocity": 94}, {"time": 509, "pitch": 70, "duration": 4, "velocity": 102}, {"time": 515, "pitch": 70, "duration": 4, "velocity": 114}, {"time": 527, "pitch": 67, "duration": 4, "velocity": 105}, {"time": 530, "pitch": 65, "duration": 3, "velocity": 105}, {"time": 533, "pitch": 63, "duration": 13, "velocity": 97}, {"time": 563, "pitch": 65, "duration": 2, "velocity": 105}, {"time": 566, "pitch": 65, "duration": 2, "velocity": 89}, {"time": 569, "pitch": 65, "duration": 2, "velocity": 97}, {"time": 572, "pitch": 65, "duration": 5, "velocity": 100}, {"time": 578, "pitch": 63, "duration": 2, "velocity": 100}, {"time": 581, "pitch": 67, "duration": 5, "velocity": 102}, {"time": 587, "pitch": 65, "duration": 2, "velocity": 105}, {"time": 590, "pitch": 65, "duration": 3, "velocity": 114}, {"time": 593, "pitch": 63, "duration": 5, "velocity": 105}, {"time": 599, "pitch": 60, "duration": 3, "velocity": 94}, {"time": 602, "pitch": 63, "duration": 2, "velocity": 108}, {"time": 605, "pitch": 65, "duration": 47, "velocity": 105}, {"time": 659, "pitch": 63, "duration": 2, "velocity": 92}, {"time": 662, "pitch": 63, "duration": 2, "velocity": 94}, {"time": 665, "pitch": 63, "duration": 7, "velocity": 102}, {"time": 674, "pitch": 65, "duration": 2, "velocity": 102}, {"time": 677, "pitch": 67, "duration": 5, "velocity": 96}, {"time": 683, "pitch": 70, "duration": 4, "velocity": 105}, {"time": 689, "pitch": 67, "duration": 3, "velocity": 105}, {"time": 692, "pitch": 65, "duration": 2, "velocity": 100}, {"time": 695, "pitch": 63, "duration": 5, "velocity": 108}, {"time": 701, "pitch": 60, "duration": 33, "velocity": 108}, {"time": 755, "pitch": 63, "duration": 2, "velocity": 97}, {"time": 758, "pitch": 63, "duration": 2, "velocity": 97}, {"time": 761, "pitch": 63, "duration": 7, "velocity": 100}, {"time": 770, "pitch": 65, "duration": 2, "velocity": 92}, {"time": 773, "pitch": 67, "duration": 5, "velocity": 109}, {"time": 779, "pitch": 70, "duration": 4, "velocity": 100}, {"time": 785, "pitch": 67, "duration": 3, "velocity": 105}, {"time": 788, "pitch": 65, "duration": 2, "velocity": 97}, {"time": 791, "pitch": 63, "duration": 5, "velocity": 97}, {"time": 797, "pitch": 65, "duration": 20, "velocity": 105}, {"time": 851, "pitch": 72, "duration": 2, "velocity": 105}, {"time": 854, "pitch": 72, "duration": 2, "velocity": 97}, {"time": 857, "pitch": 72, "duration": 2, "velocity": 97}, {"time": 860, "pitch": 72, "duration": 5, "velocity": 102}, {"time": 866, "pitch": 70, "duration": 3, "velocity": 100}, {"time": 869, "pitch": 72, "duration": 5, "velocity": 111}, {"time": 875, "pitch": 75, "duration": 11, "velocity": 111}, {"time": 887, "pitch": 72, "duration": 2, "velocity": 105}, {"time": 890, "pitch": 72, "duration": 2, "velocity": 94}, {"time": 893, "pitch": 70, "duration": 4, "velocity": 102}, {"time": 899, "pitch": 70, "duration": 5, "velocity": 114}, {"time": 911, "pitch": 67, "duration": 4, "velocity": 105}, {"time": 914, "pitch": 65, "duration": 3, "velocity": 105}, {"time": 917, "pitch": 63, "duration": 13, "velocity": 97}, {"time": 947, "pitch": 65, "duration": 2, "velocity": 105}, {"time": 950, "pitch": 65, "duration": 2, "velocity": 89}, {"time": 953, "pitch": 65, "duration": 2, "velocity": 97}, {"time": 956, "pitch": 65, "duration": 5, "velocity": 100}, {"time": 962, "pitch": 67, "duration": 2, "velocity": 100}, {"time": 965, "pitch": 68, "duration": 5, "velocity": 102}, {"time": 971, "pitch": 75, "duration": 6, "velocity": 105}, {"time": 977, "pitch": 72, "duration": 3, "velocity": 114}, {"time": 980, "pitch": 70, "duration": 3, "velocity": 105}, {"time": 986, "pitch": 72, "duration": 3, "velocity": 108}, {"time": 989, "pitch": 70, "duration": 47, "velocity": 105}, {"time": 1043, "pitch": 79, "duration": 2, "velocity": 112}, {"time": 1046, "pitch": 79, "duration": 2, "velocity": 93}, {"time": 1049, "pitch": 79, "duration": 2, "velocity": 93}, {"time": 1052, "pitch": 79, "duration": 4, "velocity": 109}, {"time": 1061, "pitch": 79, "duration": 5, "velocity": 112}, {"time": 1067, "pitch": 77, "duration": 5, "velocity": 111}, {"time": 1073, "pitch": 75, "duration": 2, "velocity": 108}, {"time": 1076, "pitch": 77, "duration": 7, "velocity": 111}, {"time": 1085, "pitch": 75, "duration": 2, "velocity": 105}, {"time": 1088, "pitch": 72, "duration": 36, "velocity": 114}, {"time": 1139, "pitch": 77, "duration": 2, "velocity": 105}, {"time": 1142, "pitch": 77, "duration": 2, "velocity": 105}, {"time": 1145, "pitch": 77, "duration": 2, "velocity": 102}, {"time": 1148, "pitch": 77, "duration": 5, "velocity": 108}, {"time": 1154, "pitch": 75, "duration": 3, "velocity": 94}, {"time": 1157, "pitch": 79, "duration": 4, "velocity": 116}, {"time": 1163, "pitch": 77, "duration": 4, "velocity": 105}, {"time": 1169, "pitch": 75, "duration": 2, "velocity": 111}, {"time": 1172, "pitch": 72, "duration": 5, "velocity": 108}, {"time": 1178, "pitch": 75, "duration": 2, "velocity": 102}, {"time": 1181, "pitch": 77, "duration": 42, "velocity": 100}, {"time": 1235, "pitch": 79, "duration": 2, "velocity": 109}, {"time": 1238, "pitch": 79, "duration": 2, "velocity": 96}, {"time": 1241, "pitch": 79, "duration": 4, "velocity": 109}, {"time": 1247, "pitch": 79, "duration": 2, "velocity": 109}, {"time": 1250, "pitch": 79, "duration": 2, "velocity": 109}, {"time": 1253, "pitch": 77, "duration": 7, "velocity": 114}, {"time": 1262, "pitch": 79, "duration": 5, "velocity": 112}, {"time": 1271, "pitch": 77, "duration": 2, "velocity": 102}, {"time": 1274, "pitch": 79, "duration": 2, "velocity": 112}, {"time": 1277, "pitch": 82, "duration": 6, "velocity": 108}, {"time": 1286, "pitch": 79, "duration": 5, "velocity": 109}, {"time": 1292, "pitch": 77, "duration": 4, "velocity": 105}, {"time": 1298, "pitch": 75, "duration": 2, "velocity": 105}, {"time": 1301, "pitch": 72, "duration": 24, "velocity": 111}, {"time": 1331, "pitch": 77, "duration": 2, "velocity": 102}, {"time": 1334, "pitch": 77, "duration": 2, "velocity": 94}, {"time": 1337, "pitch": 77, "duration": 5, "velocity": 114}, {"time": 1343, "pitch": 77, "duration": 2, "velocity": 108}, {"time": 1346, "pitch": 75, "duration": 2, "velocity": 89}, {"time": 1349, "pitch": 79, "duration": 4, "velocity": 116}, {"time": 1355, "pitch": 77, "duration": 2, "velocity": 94}, {"time": 1358, "pitch": 77, "duration": 2, "velocity": 94}, {"time": 1361, "pitch": 75, "duration": 5, "velocity": 108}, {"time": 1367, "pitch": 72, "duration": 2, "velocity": 108}, {"time": 1370, "pitch": 75, "duration": 2, "velocity": 94}, {"time": 1373, "pitch": 72, "duration": 5, "velocity": 114}, {"time": 1379, "pitch": 70, "duration": 41, "velocity": 111}, {"time": 1427, "pitch": 79, "duration": 2, "velocity": 112}, {"time": 1430, "pitch": 79, "duration": 2, "velocity": 93}, {"time": 1433, "pitch": 79, "duration": 2, "velocity": 93}, {"time": 1436, "pitch": 79, "duration": 4, "velocity": 109}, {"time": 1445, "pitch": 79, "duration": 5, "velocity": 112}, {"time": 1451, "pitch": 77, "duration": 5, "velocity": 111}, {"time": 1457, "pitch": 75, "duration": 2, "velocity": 108}, {"time": 1460, "pitch": 77, "duration": 7, "velocity": 111}, {"time": 1469, "pitch": 75, "duration": 2, "velocity": 105}, {"time": 1472, "pitch": 72, "duration": 36, "velocity": 114}, {"time": 1523, "pitch": 77, "duration": 2, "velocity": 105}, {"time": 1526, "pitch": 77, "duration": 2, "velocity": 105}, {"time": 1529, "pitch": 77, "duration": 2, "velocity": 102}, {"time": 1532, "pitch": 77, "duration": 5, "velocity": 108}, {"time": 1538, "pitch": 75, "duration": 3, "velocity": 94}, {"time": 1541, "pitch": 79, "duration": 4, "velocity": 116}, {"time": 1547, "pitch": 77, "duration": 4, "velocity": 105}, {"time": 1553, "pitch": 75, "duration": 2, "velocity": 111}, {"time": 1556, "pitch": 72, "duration": 5, "velocity": 108}, {"time": 1562, "pitch": 75, "duration": 2, "velocity": 102}, {"time": 1565, "pitch": 77, "duration": 42, "velocity": 100}, {"time": 1619, "pitch": 79, "duration": 2, "velocity": 109}, {"time": 1622, "pitch": 79, "duration": 2, "velocity": 96}, {"time": 1625, "pitch": 79, "duration": 4, "velocity": 109}, {"time": 1631, "pitch": 79, "duration": 2, "velocity": 109}, {"time": 1634, "pitch": 79, "duration": 2, "velocity": 109}, {"time": 1637, "pitch": 77, "duration": 7, "velocity": 114}, {"time": 1646, "pitch": 79, "duration": 5, "velocity": 112}, {"time": 1655, "pitch": 77, "duration": 2, "velocity": 102}, {"time": 1658, "pitch": 79, "duration": 2, "velocity": 112}, {"time": 1661, "pitch": 82, "duration": 6, "velocity": 108}, {"time": 1670, "pitch": 79, "duration": 5, "velocity": 109}, {"time": 1676, "pitch": 77, "duration": 4, "velocity": 105}, {"time": 1682, "pitch": 75, "duration": 2, "velocity": 105}, {"time": 1685, "pitch": 72, "duration": 24, "velocity": 111}, {"time": 1715, "pitch": 77, "duration": 2, "velocity": 102}, {"time": 1718, "pitch": 77, "duration": 2, "velocity": 94}, {"time": 1721, "pitch": 77, "duration": 5, "velocity": 114}, {"time": 1727, "pitch": 77, "duration": 2, "velocity": 108}, {"time": 1730, "pitch": 75, "duration": 2, "velocity": 89}, {"time": 1733, "pitch": 79, "duration": 4, "velocity": 116}, {"time": 1739, "pitch": 77, "duration": 6, "velocity": 94}, {"time": 1745, "pitch": 75, "duration": 5, "velocity": 108}, {"time": 1751, "pitch": 72, "duration": 2, "velocity": 108}, {"time": 1754, "pitch": 75, "duration": 6, "velocity": 94}, {"time": 1763, "pitch": 75, "duration": 42, "velocity": 114}, {"time": 2243, "pitch": 63, "duration": 2, "velocity": 92}, {"time": 2246, "pitch": 63, "duration": 2, "velocity": 94}, {"time": 2249, "pitch": 63, "duration": 7, "velocity": 102}, {"time": 2258, "pitch": 65, "duration": 2, "velocity": 102}, {"time": 2261, "pitch": 67, "duration": 5, "velocity": 96}, {"time": 2267, "pitch": 70, "duration": 4, "velocity": 105}, {"time": 2273, "pitch": 67, "duration": 3, "velocity": 105}, {"time": 2276, "pitch": 65, "duration": 2, "velocity": 100}, {"time": 2279, "pitch": 63, "duration": 5, "velocity": 108}, {"time": 2285, "pitch": 60, "duration": 33, "velocity": 108}, {"time": 2339, "pitch": 63, "duration": 2, "velocity": 97}, {"time": 2342, "pitch": 63, "duration": 2, "velocity": 97}, {"time": 2345, "pitch": 63, "duration": 7, "velocity": 100}, {"time": 2354, "pitch": 65, "duration": 2, "velocity": 92}, {"time": 2357, "pitch": 67, "duration": 5, "velocity": 109}, {"time": 2363, "pitch": 70, "duration": 4, "velocity": 100}, {"time": 2369, "pitch": 67, "duration": 3, "velocity": 105}, {"time": 2372, "pitch": 65, "duration": 2, "velocity": 97}, {"time": 2375, "pitch": 63, "duration": 5, "velocity": 97}, {"time": 2381, "pitch": 65, "duration": 20, "velocity": 105}, {"time": 2435, "pitch": 72, "duration": 2, "velocity": 105}, {"time": 2438, "pitch": 72, "duration": 2, "velocity": 97}, {"time": 2441, "pitch": 72, "duration": 2, "velocity": 97}, {"time": 2444, "pitch": 72, "duration": 5, "velocity": 102}, {"time": 2450, "pitch": 70, "duration": 3, "velocity": 100}, {"time": 2453, "pitch": 72, "duration": 5, "velocity": 111}, {"time": 2459, "pitch": 75, "duration": 11, "velocity": 111}, {"time": 2471, "pitch": 72, "duration": 2, "velocity": 105}, {"time": 2474, "pitch": 72, "duration": 2, "velocity": 94}, {"time": 2477, "pitch": 70, "duration": 4, "velocity": 102}, {"time": 2483, "pitch": 70, "duration": 5, "velocity": 114}, {"time": 2495, "pitch": 67, "duration": 4, "velocity": 105}, {"time": 2498, "pitch": 65, "duration": 3, "velocity": 105}, {"time": 2501, "pitch": 63, "duration": 13, "velocity": 97}, {"time": 2531, "pitch": 65, "duration": 2, "velocity": 105}, {"time": 2534, "pitch": 65, "duration": 2, "velocity": 89}, {"time": 2537, "pitch": 65, "duration": 2, "velocity": 97}, {"time": 2540, "pitch": 65, "duration": 5, "velocity": 100}, {"time": 2546, "pitch": 67, "duration": 2, "velocity": 100}, {"time": 2549, "pitch": 68, "duration": 5, "velocity": 102}, {"time": 2555, "pitch": 75, "duration": 6, "velocity": 105}, {"time": 2561, "pitch": 72, "duration": 3, "velocity": 114}, {"time": 2564, "pitch": 70, "duration": 3, "velocity": 105}, {"time": 2570, "pitch": 72, "duration": 3, "velocity": 108}, {"time": 2573, "pitch": 70, "duration": 47, "velocity": 105}, {"time": 2627, "pitch": 79, "duration": 2, "velocity": 112}, {"time": 2630, "pitch": 79, "duration": 2, "velocity": 93}, {"time": 2633, "pitch": 79, "duration": 2, "velocity": 93}, {"time": 2636, "pitch": 79, "duration": 4, "velocity": 109}, {"time": 2645, "pitch": 79, "duration": 5, "velocity": 112}, {"time": 2651, "pitch": 77, "duration": 5, "velocity": 111}, {"time": 2657, "pitch": 75, "duration": 2, "velocity": 108}, {"time": 2660, "pitch": 77, "duration": 7, "velocity": 111}, {"time": 2669, "pitch": 75, "duration": 2, "velocity": 105}, {"time": 2672, "pitch": 72, "duration": 36, "velocity": 114}, {"time": 2723, "pitch": 77, "duration": 2, "velocity": 105}, {"time": 2726, "pitch": 77, "duration": 2, "velocity": 105}, {"time": 2729, "pitch": 77, "duration": 2, "velocity": 102}, {"time": 2732, "pitch": 77, "duration": 5, "velocity": 108}, {"time": 2738, "pitch": 75, "duration": 3, "velocity": 94}, {"time": 2741, "pitch": 79, "duration": 4, "velocity": 116}, {"time": 2747, "pitch": 77, "duration": 4, "velocity": 105}, {"time": 2753, "pitch": 75, "duration": 2, "velocity": 111}, {"time": 2756, "pitch": 72, "duration": 5, "velocity": 108}, {"time": 2762, "pitch": 75, "duration": 2, "velocity": 102}, {"time": 2765, "pitch": 77, "duration": 42, "velocity": 100}, {"time": 2819, "pitch": 79, "duration": 2, "velocity": 109}, {"time": 2822, "pitch": 79, "duration": 2, "velocity": 96}, {"time": 2825, "pitch": 79, "duration": 4, "velocity": 109}, {"time": 2831, "pitch": 79, "duration": 2, "velocity": 109}, {"time": 2834, "pitch": 79, "duration": 2, "velocity": 109}, {"time": 2837, "pitch": 77, "duration": 7, "velocity": 114}, {"time": 2846, "pitch": 79, "duration": 5, "velocity": 112}, {"time": 2855, "pitch": 77, "duration": 2, "velocity": 102}, {"time": 2858, "pitch": 79, "duration": 2, "velocity": 112}, {"time": 2861, "pitch": 82, "duration": 6, "velocity": 108}, {"time": 2870, "pitch": 79, "duration": 5, "velocity": 109}, {"time": 2876, "pitch": 77, "duration": 4, "velocity": 105}, {"time": 2882, "pitch": 75, "duration": 2, "velocity": 105}, {"time": 2885, "pitch": 72, "duration": 24, "velocity": 111}, {"time": 2915, "pitch": 77, "duration": 2, "velocity": 102}, {"time": 2918, "pitch": 77, "duration": 2, "velocity": 94}, {"time": 2921, "pitch": 77, "duration": 5, "velocity": 114}, {"time": 2927, "pitch": 77, "duration": 2, "velocity": 108}, {"time": 2930, "pitch": 75, "duration": 2, "velocity": 89}, {"time": 2933, "pitch": 79, "duration": 4, "velocity": 116}, {"time": 2939, "pitch": 77, "duration": 2, "velocity": 94}, {"time": 2942, "pitch": 77, "duration": 2, "velocity": 94}, {"time": 2945, "pitch": 75, "duration": 5, "velocity": 108}, {"time": 2951, "pitch": 72, "duration": 2, "velocity": 108}, {"time": 2954, "pitch": 75, "duration": 2, "velocity": 94}, {"time": 2957, "pitch": 72, "duration": 5, "velocity": 114}, {"time": 2963, "pitch": 70, "duration": 41, "velocity": 111}, {"time": 3011, "pitch": 79, "duration": 2, "velocity": 112}, {"time": 3014, "pitch": 79, "duration": 2, "velocity": 93}, {"time": 3017, "pitch": 79, "duration": 2, "velocity": 93}, {"time": 3020, "pitch": 79, "duration": 4, "velocity": 109}, {"time": 3029, "pitch": 79, "duration": 5, "velocity": 112}, {"time": 3035, "pitch": 77, "duration": 5, "velocity": 111}, {"time": 3041, "pitch": 75, "duration": 2, "velocity": 108}, {"time": 3044, "pitch": 77, "duration": 7, "velocity": 111}, {"time": 3053, "pitch": 75, "duration": 2, "velocity": 105}, {"time": 3056, "pitch": 72, "duration": 36, "velocity": 114}, {"time": 3107, "pitch": 77, "duration": 2, "velocity": 105}, {"time": 3110, "pitch": 77, "duration": 2, "velocity": 105}, {"time": 3113, "pitch": 77, "duration": 2, "velocity": 102}, {"time": 3116, "pitch": 77, "duration": 5, "velocity": 108}, {"time": 3122, "pitch": 75, "duration": 3, "velocity": 94}, {"time": 3125, "pitch": 79, "duration": 4, "velocity": 116}, {"time": 3131, "pitch": 77, "duration": 4, "velocity": 105}, {"time": 3137, "pitch": 75, "duration": 2, "velocity": 111}, {"time": 3140, "pitch": 72, "duration": 5, "velocity": 108}, {"time": 3146, "pitch": 75, "duration": 2, "velocity": 102}, {"time": 3149, "pitch": 77, "duration": 42, "velocity": 100}, {"time": 3203, "pitch": 79, "duration": 2, "velocity": 109}, {"time": 3206, "pitch": 79, "duration": 2, "velocity": 96}, {"time": 3209, "pitch": 79, "duration": 4, "velocity": 109}, {"time": 3215, "pitch": 79, "duration": 2, "velocity": 109}, {"time": 3218, "pitch": 79, "duration": 2, "velocity": 109}, {"time": 3221, "pitch": 77, "duration": 7, "velocity": 114}, {"time": 3230, "pitch": 79, "duration": 5, "velocity": 112}, {"time": 3239, "pitch": 77, "duration": 2, "velocity": 102}, {"time": 3242, "pitch": 79, "duration": 2, "velocity": 112}, {"time": 3245, "pitch": 82, "duration": 6, "velocity": 108}, {"time": 3254, "pitch": 79, "duration": 5, "velocity": 109}, {"time": 3260, "pitch": 77, "duration": 4, "velocity": 105}, {"time": 3266, "pitch": 75, "duration": 2, "velocity": 105}, {"time": 3269, "pitch": 72, "duration": 24, "velocity": 111}, {"time": 3299, "pitch": 77, "duration": 2, "velocity": 102}, {"time": 3302, "pitch": 77, "duration": 2, "velocity": 94}, {"time": 3305, "pitch": 77, "duration": 5, "velocity": 114}, {"time": 3311, "pitch": 77, "duration": 2, "velocity": 108}, {"time": 3314, "pitch": 75, "duration": 2, "velocity": 89}, {"time": 3317, "pitch": 79, "duration": 4, "velocity": 116}, {"time": 3323, "pitch": 77, "duration": 6, "velocity": 94}, {"time": 3329, "pitch": 75, "duration": 5, "velocity": 108}, {"time": 3335, "pitch": 72, "duration": 2, "velocity": 108}, {"time": 3338, "pitch": 75, "duration": 6, "velocity": 94}, {"time": 3347, "pitch": 75, "duration": 42, "velocity": 114}, {"time": 3396, "pitch": 77, "duration": 2, "velocity": 100}, {"time": 3399, "pitch": 77, "duration": 2, "velocity": 105}, {"time": 3403, "pitch": 77, "duration": 3, "velocity": 114}, {"time": 3407, "pitch": 77, "duration": 3, "velocity": 102}, {"time": 3411, "pitch": 75, "duration": 3, "velocity": 102}, {"time": 3415, "pitch": 79, "duration": 8, "velocity": 99}, {"time": 3424, "pitch": 77, "duration": 34, "velocity": 111}, {"time": 3467, "pitch": 75, "duration": 9, "velocity": 105}, {"time": 3476, "pitch": 72, "duration": 7, "velocity": 108}, {"time": 3482, "pitch": 75, "duration": 12, "velocity": 111}, {"time": 3497, "pitch": 75, "duration": 60, "velocity": 117}]}, {"program": 0, "is_drum": false, "name": "PIANO", "notes": [{"time": 29, "pitch": 39, "duration": 39, "velocity": 92}, {"time": 29, "pitch": 51, "duration": 39, "velocity": 102}, {"time": 29, "pitch": 63, "duration": 7, "velocity": 87}, {"time": 29, "pitch": 67, "duration": 8, "velocity": 99}, {"time": 29, "pitch": 70, "duration": 7, "velocity": 94}, {"time": 35, "pitch": 58, "duration": 9, "velocity": 71}, {"time": 41, "pitch": 63, "duration": 6, "velocity": 102}, {"time": 41, "pitch": 70, "duration": 6, "velocity": 102}, {"time": 47, "pitch": 58, "duration": 10, "velocity": 62}, {"time": 53, "pitch": 63, "duration": 7, "velocity": 105}, {"time": 53, "pitch": 70, "duration": 7, "velocity": 94}, {"time": 59, "pitch": 58, "duration": 8, "velocity": 66}, {"time": 62, "pitch": 63, "duration": 2, "velocity": 66}, {"time": 65, "pitch": 63, "duration": 4, "velocity": 102}, {"time": 65, "pitch": 67, "duration": 4, "velocity": 112}, {"time": 65, "pitch": 70, "duration": 4, "velocity": 100}, {"time": 71, "pitch": 39, "duration": 2, "velocity": 87}, {"time": 71, "pitch": 51, "duration": 2, "velocity": 97}, {"time": 77, "pitch": 36, "duration": 46, "velocity": 84}, {"time": 77, "pitch": 48, "duration": 46, "velocity": 94}, {"time": 77, "pitch": 60, "duration": 5, "velocity": 87}, {"time": 77, "pitch": 63, "duration": 6, "velocity": 78}, {"time": 77, "pitch": 67, "duration": 6, "velocity": 63}, {"time": 83, "pitch": 55, "duration": 8, "velocity": 68}, {"time": 89, "pitch": 60, "duration": 6, "velocity": 102}, {"time": 89, "pitch": 63, "duration": 10, "velocity": 102}, {"time": 89, "pitch": 67, "duration": 10, "velocity": 96}, {"time": 95, "pitch": 55, "duration": 9, "velocity": 45}, {"time": 98, "pitch": 60, "duration": 2, "velocity": 66}, {"time": 101, "pitch": 60, "duration": 7, "velocity": 97}, {"time": 101, "pitch": 63, "duration": 6, "velocity": 94}, {"time": 101, "pitch": 67, "duration": 6, "velocity": 72}, {"time": 101, "pitch": 70, "duration": 6, "velocity": 97}, {"time": 107, "pitch": 55, "duration": 8, "velocity": 38}, {"time": 110, "pitch": 60, "duration": 2, "velocity": 58}, {"time": 113, "pitch": 60, "duration": 5, "velocity": 100}, {"time": 113, "pitch": 67, "duration": 7, "velocity": 102}, {"time": 119, "pitch": 60, "duration": 3, "velocity": 89}, {"time": 119, "pitch": 63, "duration": 3, "velocity": 92}, {"time": 125, "pitch": 41, "duration": 23, "velocity": 95}, {"time": 125, "pitch": 53, "duration": 23, "velocity": 105}, {"time": 125, "pitch": 60, "duration": 4, "velocity": 89}, {"time": 125, "pitch": 65, "duration": 8, "velocity": 92}, {"time": 131, "pitch": 60, "duration": 3, "velocity": 69}, {"time": 137, "pitch": 60, "duration": 3, "velocity": 102}, {"time": 137, "pitch": 65, "duration": 10, "velocity": 108}, {"time": 137, "pitch": 68, "duration": 8, "velocity": 105}, {"time": 143, "pitch": 60, "duration": 5, "velocity": 64}, {"time": 149, "pitch": 41, "duration": 20, "velocity": 82}, {"time": 149, "pitch": 53, "duration": 20, "velocity": 92}, {"time": 149, "pitch": 60, "duration": 4, "velocity": 89}, {"time": 149, "pitch": 65, "duration": 9, "velocity": 97}, {"time": 149, "pitch": 68, "duration": 8, "velocity": 94}, {"time": 155, "pitch": 60, "duration": 4, "velocity": 48}, {"time": 161, "pitch": 60, "duration": 6, "velocity": 100}, {"time": 161, "pitch": 65, "duration": 3, "velocity": 105}, {"time": 161, "pitch": 68, "duration": 3, "velocity": 100}, {"time": 173, "pitch": 34, "duration": 20, "velocity": 84}, {"time": 173, "pitch": 46, "duration": 20, "velocity": 94}, {"time": 173, "pitch": 58, "duration": 8, "velocity": 100}, {"time": 173, "pitch": 65, "duration": 8, "velocity": 97}, {"time": 179, "pitch": 53, "duration": 8, "velocity": 62}, {"time": 185, "pitch": 58, "duration": 4, "velocity": 114}, {"time": 185, "pitch": 65, "duration": 4, "velocity": 102}, {"time": 191, "pitch": 63, "duration": 4, "velocity": 57}, {"time": 197, "pitch": 34, "duration": 22, "velocity": 87}, {"time": 197, "pitch": 46, "duration": 22, "velocity": 97}, {"time": 197, "pitch": 58, "duration": 6, "velocity": 82}, {"time": 197, "pitch": 65, "duration": 6, "velocity": 92}, {"time": 203, "pitch": 53, "duration": 16, "velocity": 58}, {"time": 209, "pitch": 58, "duration": 4, "velocity": 108}, {"time": 209, "pitch": 62, "duration": 10, "velocity": 105}, {"time": 209, "pitch": 65, "duration": 11, "velocity": 100}, {"time": 215, "pitch": 58, "duration": 5, "velocity": 78}, {"time": 221, "pitch": 34, "duration": 46, "velocity": 84}, {"time": 221, "pitch": 46, "duration": 46, "velocity": 94}, {"time": 221, "pitch": 58, "duration": 23, "velocity": 89}, {"time": 221, "pitch": 62, "duration": 22, "velocity": 72}, {"time": 221, "pitch": 65, "duration": 23, "velocity": 92}, {"time": 245, "pitch": 58, "duration": 19, "velocity": 87}, {"time": 245, "pitch": 62, "duration": 16, "velocity": 57}, {"time": 245, "pitch": 70, "duration": 18, "velocity": 97}, {"time": 269, "pitch": 51, "duration": 46, "velocity": 80}, {"time": 269, "pitch": 58, "duration": 7, "velocity": 82}, {"time": 269, "pitch": 63, "duration": 8, "velocity": 87}, {"time": 281, "pitch": 63, "duration": 5, "velocity": 80}, {"time": 281, "pitch": 67, "duration": 5, "velocity": 93}, {"time": 293, "pitch": 58, "duration": 3, "velocity": 84}, {"time": 293, "pitch": 63, "duration": 8, "velocity": 94}, {"time": 293, "pitch": 67, "duration": 8, "velocity": 93}, {"time": 305, "pitch": 58, "duration": 4, "velocity": 94}, {"time": 305, "pitch": 63, "duration": 3, "velocity": 102}, {"time": 305, "pitch": 67, "duration": 5, "velocity": 105}, {"time": 317, "pitch": 48, "duration": 46, "velocity": 82}, {"time": 317, "pitch": 60, "duration": 10, "velocity": 76}, {"time": 317, "pitch": 63, "duration": 9, "velocity": 87}, {"time": 329, "pitch": 63, "duration": 5, "velocity": 76}, {"time": 329, "pitch": 67, "duration": 6, "velocity": 93}, {"time": 341, "pitch": 60, "duration": 4, "velocity": 71}, {"time": 341, "pitch": 63, "duration": 8, "velocity": 92}, {"time": 341, "pitch": 67, "duration": 8, "velocity": 102}, {"time": 347, "pitch": 60, "duration": 4, "velocity": 60}, {"time": 353, "pitch": 60, "duration": 3, "velocity": 97}, {"time": 353, "pitch": 63, "duration": 3, "velocity": 82}, {"time": 353, "pitch": 67, "duration": 3, "velocity": 96}, {"time": 359, "pitch": 58, "duration": 4, "velocity": 105}, {"time": 365, "pitch": 51, "duration": 48, "velocity": 76}, {"time": 365, "pitch": 58, "duration": 11, "velocity": 92}, {"time": 365, "pitch": 63, "duration": 10, "velocity": 84}, {"time": 377, "pitch": 63, "duration": 6, "velocity": 92}, {"time": 377, "pitch": 67, "duration": 6, "velocity": 102}, {"time": 389, "pitch": 63, "duration": 9, "velocity": 87}, {"time": 389, "pitch": 67, "duration": 9, "velocity": 87}, {"time": 395, "pitch": 58, "duration": 2, "velocity": 37}, {"time": 401, "pitch": 58, "duration": 3, "velocity": 100}, {"time": 401, "pitch": 63, "duration": 7, "velocity": 102}, {"time": 401, "pitch": 67, "duration": 8, "velocity": 102}, {"time": 407, "pitch": 58, "duration": 2, "velocity": 58}, {"time": 413, "pitch": 53, "duration": 44, "velocity": 87}, {"time": 413, "pitch": 60, "duration": 4, "velocity": 82}, {"time": 413, "pitch": 65, "duration": 9, "velocity": 89}, {"time": 419, "pitch": 60, "duration": 8, "velocity": 64}, {"time": 425, "pitch": 65, "duration": 6, "velocity": 87}, {"time": 425, "pitch": 68, "duration": 7, "velocity": 87}, {"time": 437, "pitch": 65, "duration": 7, "velocity": 64}, {"time": 437, "pitch": 68, "duration": 8, "velocity": 73}, {"time": 443, "pitch": 60, "duration": 5, "velocity": 64}, {"time": 449, "pitch": 60, "duration": 1, "velocity": 32}, {"time": 449, "pitch": 65, "duration": 2, "velocity": 102}, {"time": 449, "pitch": 68, "duration": 2, "velocity": 100}, {"time": 455, "pitch": 55, "duration": 3, "velocity": 105}, {"time": 461, "pitch": 44, "duration": 43, "velocity": 92}, {"time": 461, "pitch": 56, "duration": 10, "velocity": 52}, {"time": 461, "pitch": 60, "duration": 9, "velocity": 80}, {"time": 467, "pitch": 51, "duration": 38, "velocity": 44}, {"time": 473, "pitch": 60, "duration": 2, "velocity": 87}, {"time": 473, "pitch": 63, "duration": 3, "velocity": 87}, {"time": 485, "pitch": 60, "duration": 5, "velocity": 89}, {"time": 485, "pitch": 63, "duration": 6, "velocity": 84}, {"time": 497, "pitch": 56, "duration": 2, "velocity": 92}, {"time": 497, "pitch": 60, "duration": 4, "velocity": 117}, {"time": 497, "pitch": 63, "duration": 5, "velocity": 102}, {"time": 497, "pitch": 68, "duration": 7, "velocity": 89}, {"time": 509, "pitch": 51, "duration": 11, "velocity": 92}, {"time": 509, "pitch": 58, "duration": 7, "velocity": 76}, {"time": 509, "pitch": 63, "duration": 6, "velocity": 92}, {"time": 521, "pitch": 46, "duration": 11, "velocity": 92}, {"time": 521, "pitch": 58, "duration": 9, "velocity": 94}, {"time": 521, "pitch": 62, "duration": 8, "velocity": 99}, {"time": 533, "pitch": 48, "duration": 22, "velocity": 94}, {"time": 533, "pitch": 60, "duration": 4, "velocity": 82}, {"time": 533, "pitch": 63, "duration": 9, "velocity": 84}, {"time": 539, "pitch": 60, "duration": 4, "velocity": 57}, {"time": 545, "pitch": 60, "duration": 3, "velocity": 94}, {"time": 545, "pitch": 63, "duration": 6, "velocity": 94}, {"time": 545, "pitch": 67, "duration": 6, "velocity": 105}, {"time": 551, "pitch": 60, "duration": 2, "velocity": 52}, {"time": 557, "pitch": 53, "duration": 41, "velocity": 102}, {"time": 557, "pitch": 60, "duration": 4, "velocity": 73}, {"time": 557, "pitch": 65, "duration": 8, "velocity": 87}, {"time": 557, "pitch": 68, "duration": 8, "velocity": 89}, {"time": 569, "pitch": 60, "duration": 3, "velocity": 100}, {"time": 569, "pitch": 65, "duration": 5, "velocity": 105}, {"time": 569, "pitch": 68, "duration": 3, "velocity": 97}, {"time": 581, "pitch": 60, "duration": 4, "velocity": 100}, {"time": 581, "pitch": 65, "duration": 8, "velocity": 108}, {"time": 581, "pitch": 69, "duration": 9, "velocity": 99}, {"time": 593, "pitch": 60, "duration": 3, "velocity": 82}, {"time": 593, "pitch": 65, "duration": 3, "velocity": 92}, {"time": 593, "pitch": 69, "duration": 4, "velocity": 79}, {"time": 605, "pitch": 46, "duration": 22, "velocity": 92}, {"time": 605, "pitch": 58, "duration": 4, "velocity": 80}, {"time": 605, "pitch": 62, "duration": 7, "velocity": 70}, {"time": 605, "pitch": 65, "duration": 9, "velocity": 87}, {"time": 611, "pitch": 58, "duration": 3, "velocity": 69}, {"time": 617, "pitch": 58, "duration": 3, "velocity": 94}, {"time": 617, "pitch": 62, "duration": 3, "velocity": 99}, {"time": 617, "pitch": 65, "duration": 4, "velocity": 92}, {"time": 623, "pitch": 63, "duration": 5, "velocity": 87}, {"time": 629, "pitch": 46, "duration": 23, "velocity": 94}, {"time": 629, "pitch": 58, "duration": 5, "velocity": 84}, {"time": 629, "pitch": 62, "duration": 5, "velocity": 68}, {"time": 635, "pitch": 53, "duration": 10, "velocity": 76}, {"time": 641, "pitch": 58, "duration": 10, "velocity": 105}, {"time": 641, "pitch": 62, "duration": 9, "velocity": 105}, {"time": 641, "pitch": 70, "duration": 12, "velocity": 94}, {"time": 647, "pitch": 53, "duration": 6, "velocity": 92}, {"time": 653, "pitch": 39, "duration": 46, "velocity": 69}, {"time": 653, "pitch": 51, "duration": 46, "velocity": 80}, {"time": 653, "pitch": 58, "duration": 7, "velocity": 82}, {"time": 653, "pitch": 63, "duration": 8, "velocity": 87}, {"time": 665, "pitch": 63, "duration": 5, "velocity": 80}, {"time": 665, "pitch": 67, "duration": 5, "velocity": 93}, {"time": 677, "pitch": 58, "duration": 3, "velocity": 84}, {"time": 677, "pitch": 63, "duration": 8, "velocity": 94}, {"time": 677, "pitch": 67, "duration": 8, "velocity": 93}, {"time": 689, "pitch": 58, "duration": 4, "velocity": 94}, {"time": 689, "pitch": 63, "duration": 3, "velocity": 102}, {"time": 689, "pitch": 67, "duration": 5, "velocity": 105}, {"time": 695, "pitch": 62, "duration": 4, "velocity": 102}, {"time": 701, "pitch": 36, "duration": 46, "velocity": 71}, {"time": 701, "pitch": 48, "duration": 46, "velocity": 82}, {"time": 701, "pitch": 60, "duration": 10, "velocity": 76}, {"time": 701, "pitch": 63, "duration": 9, "velocity": 87}, {"time": 713, "pitch": 63, "duration": 5, "velocity": 76}, {"time": 713, "pitch": 67, "duration": 6, "velocity": 93}, {"time": 725, "pitch": 60, "duration": 4, "velocity": 71}, {"time": 725, "pitch": 63, "duration": 8, "velocity": 92}, {"time": 725, "pitch": 67, "duration": 8, "velocity": 102}, {"time": 731, "pitch": 60, "duration": 4, "velocity": 60}, {"time": 737, "pitch": 60, "duration": 3, "velocity": 97}, {"time": 737, "pitch": 63, "duration": 3, "velocity": 82}, {"time": 737, "pitch": 67, "duration": 3, "velocity": 96}, {"time": 743, "pitch": 58, "duration": 4, "velocity": 105}, {"time": 749, "pitch": 39, "duration": 48, "velocity": 65}, {"time": 749, "pitch": 51, "duration": 48, "velocity": 76}, {"time": 749, "pitch": 58, "duration": 11, "velocity": 92}, {"time": 749, "pitch": 63, "duration": 10, "velocity": 84}, {"time": 761, "pitch": 63, "duration": 6, "velocity": 92}, {"time": 761, "pitch": 67, "duration": 6, "velocity": 102}, {"time": 773, "pitch": 63, "duration": 9, "velocity": 87}, {"time": 773, "pitch": 67, "duration": 9, "velocity": 87}, {"time": 779, "pitch": 58, "duration": 2, "velocity": 37}, {"time": 785, "pitch": 58, "duration": 3, "velocity": 100}, {"time": 785, "pitch": 63, "duration": 7, "velocity": 102}, {"time": 785, "pitch": 67, "duration": 8, "velocity": 102}, {"time": 791, "pitch": 58, "duration": 2, "velocity": 58}, {"time": 797, "pitch": 41, "duration": 44, "velocity": 76}, {"time": 797, "pitch": 53, "duration": 44, "velocity": 87}, {"time": 797, "pitch": 60, "duration": 4, "velocity": 82}, {"time": 797, "pitch": 65, "duration": 9, "velocity": 89}, {"time": 803, "pitch": 60, "duration": 8, "velocity": 64}, {"time": 809, "pitch": 65, "duration": 6, "velocity": 87}, {"time": 809, "pitch": 68, "duration": 7, "velocity": 87}, {"time": 821, "pitch": 65, "duration": 7, "velocity": 64}, {"time": 821, "pitch": 68, "duration": 8, "velocity": 73}, {"time": 827, "pitch": 60, "duration": 5, "velocity": 64}, {"time": 833, "pitch": 60, "duration": 1, "velocity": 32}, {"time": 833, "pitch": 65, "duration": 2, "velocity": 102}, {"time": 833, "pitch": 68, "duration": 2, "velocity": 100}, {"time": 839, "pitch": 55, "duration": 3, "velocity": 105}, {"time": 845, "pitch": 32, "duration": 43, "velocity": 81}, {"time": 845, "pitch": 44, "duration": 43, "velocity": 92}, {"time": 845, "pitch": 56, "duration": 10, "velocity": 52}, {"time": 845, "pitch": 60, "duration": 9, "velocity": 80}, {"time": 851, "pitch": 39, "duration": 38, "velocity": 33}, {"time": 851, "pitch": 51, "duration": 38, "velocity": 44}, {"time": 857, "pitch": 60, "duration": 2, "velocity": 87}, {"time": 857, "pitch": 63, "duration": 3, "velocity": 87}, {"time": 869, "pitch": 60, "duration": 5, "velocity": 89}, {"time": 869, "pitch": 63, "duration": 6, "velocity": 84}, {"time": 881, "pitch": 56, "duration": 2, "velocity": 92}, {"time": 881, "pitch": 60, "duration": 4, "velocity": 117}, {"time": 881, "pitch": 63, "duration": 5, "velocity": 102}, {"time": 881, "pitch": 68, "duration": 7, "velocity": 89}, {"time": 893, "pitch": 39, "duration": 11, "velocity": 81}, {"time": 893, "pitch": 51, "duration": 11, "velocity": 92}, {"time": 893, "pitch": 58, "duration": 7, "velocity": 76}, {"time": 893, "pitch": 63, "duration": 6, "velocity": 92}, {"time": 905, "pitch": 34, "duration": 11, "velocity": 81}, {"time": 905, "pitch": 46, "duration": 11, "velocity": 92}, {"time": 905, "pitch": 58, "duration": 9, "velocity": 94}, {"time": 905, "pitch": 62, "duration": 8, "velocity": 99}, {"time": 917, "pitch": 36, "duration": 22, "velocity": 83}, {"time": 917, "pitch": 48, "duration": 22, "velocity": 94}, {"time": 917, "pitch": 60, "duration": 4, "velocity": 82}, {"time": 917, "pitch": 63, "duration": 9, "velocity": 84}, {"time": 923, "pitch": 60, "duration": 4, "velocity": 57}, {"time": 929, "pitch": 60, "duration": 3, "velocity": 94}, {"time": 929, "pitch": 63, "duration": 6, "velocity": 94}, {"time": 929, "pitch": 67, "duration": 6, "velocity": 105}, {"time": 935, "pitch": 60, "duration": 2, "velocity": 52}, {"time": 941, "pitch": 41, "duration": 41, "velocity": 91}, {"time": 941, "pitch": 53, "duration": 41, "velocity": 102}, {"time": 941, "pitch": 60, "duration": 4, "velocity": 73}, {"time": 941, "pitch": 65, "duration": 8, "velocity": 87}, {"time": 941, "pitch": 68, "duration": 8, "velocity": 89}, {"time": 953, "pitch": 60, "duration": 3, "velocity": 100}, {"time": 953, "pitch": 65, "duration": 5, "velocity": 105}, {"time": 953, "pitch": 68, "duration": 3, "velocity": 97}, {"time": 965, "pitch": 60, "duration": 4, "velocity": 100}, {"time": 965, "pitch": 65, "duration": 8, "velocity": 108}, {"time": 965, "pitch": 69, "duration": 9, "velocity": 99}, {"time": 977, "pitch": 60, "duration": 3, "velocity": 82}, {"time": 977, "pitch": 65, "duration": 3, "velocity": 92}, {"time": 977, "pitch": 69, "duration": 4, "velocity": 79}, {"time": 989, "pitch": 34, "duration": 22, "velocity": 81}, {"time": 989, "pitch": 46, "duration": 22, "velocity": 92}, {"time": 989, "pitch": 58, "duration": 4, "velocity": 80}, {"time": 989, "pitch": 62, "duration": 7, "velocity": 70}, {"time": 989, "pitch": 65, "duration": 9, "velocity": 87}, {"time": 995, "pitch": 58, "duration": 3, "velocity": 69}, {"time": 1001, "pitch": 58, "duration": 3, "velocity": 94}, {"time": 1001, "pitch": 62, "duration": 3, "velocity": 99}, {"time": 1001, "pitch": 65, "duration": 4, "velocity": 92}, {"time": 1007, "pitch": 63, "duration": 5, "velocity": 87}, {"time": 1013, "pitch": 34, "duration": 23, "velocity": 83}, {"time": 1013, "pitch": 46, "duration": 23, "velocity": 94}, {"time": 1013, "pitch": 58, "duration": 5, "velocity": 84}, {"time": 1013, "pitch": 62, "duration": 5, "velocity": 68}, {"time": 1019, "pitch": 53, "duration": 10, "velocity": 76}, {"time": 1025, "pitch": 58, "duration": 10, "velocity": 105}, {"time": 1025, "pitch": 62, "duration": 9, "velocity": 105}, {"time": 1025, "pitch": 70, "duration": 12, "velocity": 94}, {"time": 1031, "pitch": 53, "duration": 6, "velocity": 92}, {"time": 1037, "pitch": 39, "duration": 23, "velocity": 100}, {"time": 1037, "pitch": 51, "duration": 23, "velocity": 100}, {"time": 1037, "pitch": 63, "duration": 6, "velocity": 82}, {"time": 1037, "pitch": 67, "duration": 7, "velocity": 99}, {"time": 1037, "pitch": 70, "duration": 7, "velocity": 94}, {"time": 1043, "pitch": 58, "duration": 8, "velocity": 50}, {"time": 1049, "pitch": 63, "duration": 5, "velocity": 97}, {"time": 1049, "pitch": 67, "duration": 6, "velocity": 109}, {"time": 1049, "pitch": 70, "duration": 6, "velocity": 102}, {"time": 1055, "pitch": 58, "duration": 5, "velocity": 64}, {"time": 1058, "pitch": 63, "duration": 3, "velocity": 87}, {"time": 1061, "pitch": 39, "duration": 20, "velocity": 102}, {"time": 1061, "pitch": 51, "duration": 20, "velocity": 102}, {"time": 1061, "pitch": 63, "duration": 7, "velocity": 78}, {"time": 1061, "pitch": 67, "duration": 7, "velocity": 99}, {"time": 1061, "pitch": 70, "duration": 8, "velocity": 87}, {"time": 1067, "pitch": 58, "duration": 8, "velocity": 58}, {"time": 1070, "pitch": 63, "duration": 2, "velocity": 76}, {"time": 1073, "pitch": 63, "duration": 4, "velocity": 97}, {"time": 1073, "pitch": 67, "duration": 5, "velocity": 102}, {"time": 1073, "pitch": 70, "duration": 7, "velocity": 100}, {"time": 1076, "pitch": 58, "duration": 4, "velocity": 80}, {"time": 1079, "pitch": 63, "duration": 2, "velocity": 100}, {"time": 1085, "pitch": 36, "duration": 15, "velocity": 105}, {"time": 1085, "pitch": 48, "duration": 15, "velocity": 105}, {"time": 1085, "pitch": 60, "duration": 4, "velocity": 76}, {"time": 1085, "pitch": 63, "duration": 7, "velocity": 87}, {"time": 1091, "pitch": 60, "duration": 3, "velocity": 73}, {"time": 1097, "pitch": 60, "duration": 5, "velocity": 111}, {"time": 1097, "pitch": 63, "duration": 6, "velocity": 102}, {"time": 1097, "pitch": 67, "duration": 11, "velocity": 105}, {"time": 1103, "pitch": 55, "duration": 11, "velocity": 39}, {"time": 1106, "pitch": 60, "duration": 2, "velocity": 66}, {"time": 1109, "pitch": 60, "duration": 7, "velocity": 100}, {"time": 1109, "pitch": 63, "duration": 8, "velocity": 102}, {"time": 1115, "pitch": 36, "duration": 17, "velocity": 57}, {"time": 1115, "pitch": 48, "duration": 17, "velocity": 57}, {"time": 1118, "pitch": 60, "duration": 2, "velocity": 80}, {"time": 1121, "pitch": 60, "duration": 4, "velocity": 111}, {"time": 1121, "pitch": 63, "duration": 5, "velocity": 108}, {"time": 1127, "pitch": 60, "duration": 4, "velocity": 102}, {"time": 1133, "pitch": 41, "duration": 13, "velocity": 92}, {"time": 1133, "pitch": 53, "duration": 13, "velocity": 92}, {"time": 1133, "pitch": 60, "duration": 3, "velocity": 92}, {"time": 1133, "pitch": 65, "duration": 8, "velocity": 92}, {"time": 1139, "pitch": 60, "duration": 3, "velocity": 69}, {"time": 1145, "pitch": 60, "duration": 3, "velocity": 97}, {"time": 1145, "pitch": 65, "duration": 7, "velocity": 108}, {"time": 1145, "pitch": 68, "duration": 7, "velocity": 102}, {"time": 1151, "pitch": 60, "duration": 5, "velocity": 89}, {"time": 1157, "pitch": 41, "duration": 14, "velocity": 76}, {"time": 1157, "pitch": 53, "duration": 14, "velocity": 76}, {"time": 1157, "pitch": 60, "duration": 3, "velocity": 76}, {"time": 1157, "pitch": 65, "duration": 7, "velocity": 82}, {"time": 1157, "pitch": 68, "duration": 8, "velocity": 87}, {"time": 1163, "pitch": 60, "duration": 3, "velocity": 71}, {"time": 1169, "pitch": 60, "duration": 2, "velocity": 105}, {"time": 1169, "pitch": 65, "duration": 3, "velocity": 114}, {"time": 1169, "pitch": 68, "duration": 7, "velocity": 102}, {"time": 1175, "pitch": 60, "duration": 2, "velocity": 84}, {"time": 1181, "pitch": 34, "duration": 14, "velocity": 97}, {"time": 1181, "pitch": 46, "duration": 14, "velocity": 97}, {"time": 1181, "pitch": 58, "duration": 4, "velocity": 89}, {"time": 1181, "pitch": 62, "duration": 4, "velocity": 96}, {"time": 1181, "pitch": 65, "duration": 3, "velocity": 84}, {"time": 1187, "pitch": 41, "duration": 7, "velocity": 24}, {"time": 1187, "pitch": 53, "duration": 7, "velocity": 24}, {"time": 1193, "pitch": 58, "duration": 4, "velocity": 108}, {"time": 1193, "pitch": 62, "duration": 6, "velocity": 109}, {"time": 1193, "pitch": 65, "duration": 5, "velocity": 105}, {"time": 1193, "pitch": 70, "duration": 6, "velocity": 87}, {"time": 1199, "pitch": 41, "duration": 2, "velocity": 84}, {"time": 1199, "pitch": 53, "duration": 2, "velocity": 84}, {"time": 1202, "pitch": 58, "duration": 3, "velocity": 114}, {"time": 1205, "pitch": 34, "duration": 13, "velocity": 102}, {"time": 1205, "pitch": 46, "duration": 13, "velocity": 102}, {"time": 1205, "pitch": 58, "duration": 9, "velocity": 92}, {"time": 1205, "pitch": 62, "duration": 9, "velocity": 96}, {"time": 1205, "pitch": 65, "duration": 9, "velocity": 97}, {"time": 1211, "pitch": 41, "duration": 6, "velocity": 67}, {"time": 1211, "pitch": 53, "duration": 6, "velocity": 67}, {"time": 1217, "pitch": 58, "duration": 3, "velocity": 108}, {"time": 1217, "pitch": 62, "duration": 5, "velocity": 112}, {"time": 1217, "pitch": 65, "duration": 7, "velocity": 108}, {"time": 1217, "pitch": 70, "duration": 8, "velocity": 84}, {"time": 1223, "pitch": 58, "duration": 2, "velocity": 102}, {"time": 1229, "pitch": 39, "duration": 15, "velocity": 94}, {"time": 1229, "pitch": 51, "duration": 15, "velocity": 94}, {"time": 1229, "pitch": 63, "duration": 7, "velocity": 80}, {"time": 1229, "pitch": 67, "duration": 8, "velocity": 96}, {"time": 1235, "pitch": 58, "duration": 10, "velocity": 71}, {"time": 1241, "pitch": 63, "duration": 10, "velocity": 92}, {"time": 1241, "pitch": 67, "duration": 10, "velocity": 112}, {"time": 1241, "pitch": 70, "duration": 10, "velocity": 105}, {"time": 1247, "pitch": 58, "duration": 6, "velocity": 94}, {"time": 1253, "pitch": 39, "duration": 16, "velocity": 102}, {"time": 1253, "pitch": 51, "duration": 16, "velocity": 102}, {"time": 1253, "pitch": 63, "duration": 8, "velocity": 82}, {"time": 1253, "pitch": 67, "duration": 9, "velocity": 70}, {"time": 1253, "pitch": 70, "duration": 9, "velocity": 89}, {"time": 1259, "pitch": 58, "duration": 11, "velocity": 66}, {"time": 1265, "pitch": 63, "duration": 6, "velocity": 97}, {"time": 1265, "pitch": 67, "duration": 4, "velocity": 109}, {"time": 1265, "pitch": 70, "duration": 7, "velocity": 102}, {"time": 1271, "pitch": 38, "duration": 2, "velocity": 102}, {"time": 1271, "pitch": 50, "duration": 2, "velocity": 102}, {"time": 1277, "pitch": 36, "duration": 17, "velocity": 105}, {"time": 1277, "pitch": 48, "duration": 17, "velocity": 105}, {"time": 1277, "pitch": 60, "duration": 4, "velocity": 71}, {"time": 1277, "pitch": 63, "duration": 9, "velocity": 71}, {"time": 1283, "pitch": 60, "duration": 4, "velocity": 76}, {"time": 1289, "pitch": 60, "duration": 10, "velocity": 108}, {"time": 1289, "pitch": 63, "duration": 10, "velocity": 105}, {"time": 1289, "pitch": 67, "duration": 10, "velocity": 105}, {"time": 1301, "pitch": 36, "duration": 16, "velocity": 94}, {"time": 1301, "pitch": 48, "duration": 16, "velocity": 94}, {"time": 1301, "pitch": 60, "duration": 9, "velocity": 87}, {"time": 1301, "pitch": 63, "duration": 9, "velocity": 82}, {"time": 1301, "pitch": 67, "duration": 10, "velocity": 85}, {"time": 1307, "pitch": 55, "duration": 8, "velocity": 31}, {"time": 1313, "pitch": 60, "duration": 7, "velocity": 100}, {"time": 1313, "pitch": 63, "duration": 7, "velocity": 102}, {"time": 1313, "pitch": 67, "duration": 7, "velocity": 102}, {"time": 1319, "pitch": 39, "duration": 2, "velocity": 82}, {"time": 1319, "pitch": 51, "duration": 2, "velocity": 82}, {"time": 1325, "pitch": 41, "duration": 19, "velocity": 108}, {"time": 1325, "pitch": 53, "duration": 19, "velocity": 108}, {"time": 1325, "pitch": 65, "duration": 9, "velocity": 78}, {"time": 1325, "pitch": 68, "duration": 9, "velocity": 87}, {"time": 1331, "pitch": 60, "duration": 14, "velocity": 71}, {"time": 1337, "pitch": 65, "duration": 3, "velocity": 97}, {"time": 1337, "pitch": 68, "duration": 8, "velocity": 94}, {"time": 1337, "pitch": 72, "duration": 8, "velocity": 94}, {"time": 1343, "pitch": 65, "duration": 5, "velocity": 60}, {"time": 1349, "pitch": 41, "duration": 13, "velocity": 102}, {"time": 1349, "pitch": 53, "duration": 13, "velocity": 102}, {"time": 1349, "pitch": 65, "duration": 8, "velocity": 97}, {"time": 1349, "pitch": 69, "duration": 9, "velocity": 109}, {"time": 1355, "pitch": 60, "duration": 7, "velocity": 73}, {"time": 1361, "pitch": 65, "duration": 3, "velocity": 102}, {"time": 1361, "pitch": 69, "duration": 7, "velocity": 109}, {"time": 1361, "pitch": 72, "duration": 7, "velocity": 100}, {"time": 1367, "pitch": 65, "duration": 4, "velocity": 92}, {"time": 1373, "pitch": 34, "duration": 15, "velocity": 102}, {"time": 1373, "pitch": 46, "duration": 15, "velocity": 102}, {"time": 1373, "pitch": 58, "duration": 7, "velocity": 73}, {"time": 1373, "pitch": 62, "duration": 6, "velocity": 41}, {"time": 1373, "pitch": 65, "duration": 6, "velocity": 89}, {"time": 1379, "pitch": 53, "duration": 9, "velocity": 67}, {"time": 1385, "pitch": 62, "duration": 9, "velocity": 109}, {"time": 1385, "pitch": 65, "duration": 9, "velocity": 97}, {"time": 1385, "pitch": 70, "duration": 7, "velocity": 92}, {"time": 1391, "pitch": 53, "duration": 7, "velocity": 92}, {"time": 1397, "pitch": 34, "duration": 17, "velocity": 94}, {"time": 1397, "pitch": 46, "duration": 17, "velocity": 94}, {"time": 1397, "pitch": 58, "duration": 10, "velocity": 82}, {"time": 1397, "pitch": 62, "duration": 9, "velocity": 77}, {"time": 1397, "pitch": 65, "duration": 9, "velocity": 92}, {"time": 1403, "pitch": 53, "duration": 8, "velocity": 60}, {"time": 1409, "pitch": 58, "duration": 11, "velocity": 102}, {"time": 1409, "pitch": 62, "duration": 11, "velocity": 112}, {"time": 1409, "pitch": 65, "duration": 11, "velocity": 100}, {"time": 1409, "pitch": 70, "duration": 11, "velocity": 87}, {"time": 1415, "pitch": 53, "duration": 6, "velocity": 94}, {"time": 1421, "pitch": 39, "duration": 23, "velocity": 100}, {"time": 1421, "pitch": 51, "duration": 23, "velocity": 100}, {"time": 1421, "pitch": 63, "duration": 6, "velocity": 82}, {"time": 1421, "pitch": 67, "duration": 7, "velocity": 99}, {"time": 1421, "pitch": 70, "duration": 7, "velocity": 94}, {"time": 1427, "pitch": 58, "duration": 8, "velocity": 50}, {"time": 1433, "pitch": 63, "duration": 5, "velocity": 97}, {"time": 1433, "pitch": 67, "duration": 6, "velocity": 109}, {"time": 1433, "pitch": 70, "duration": 6, "velocity": 102}, {"time": 1439, "pitch": 58, "duration": 5, "velocity": 64}, {"time": 1442, "pitch": 63, "duration": 3, "velocity": 87}, {"time": 1445, "pitch": 39, "duration": 20, "velocity": 102}, {"time": 1445, "pitch": 51, "duration": 20, "velocity": 102}, {"time": 1445, "pitch": 63, "duration": 7, "velocity": 78}, {"time": 1445, "pitch": 67, "duration": 7, "velocity": 99}, {"time": 1445, "pitch": 70, "duration": 8, "velocity": 87}, {"time": 1451, "pitch": 58, "duration": 8, "velocity": 58}, {"time": 1454, "pitch": 63, "duration": 2, "velocity": 76}, {"time": 1457, "pitch": 63, "duration": 4, "velocity": 97}, {"time": 1457, "pitch": 67, "duration": 5, "velocity": 102}, {"time": 1457, "pitch": 70, "duration": 7, "velocity": 100}, {"time": 1460, "pitch": 58, "duration": 4, "velocity": 80}, {"time": 1463, "pitch": 63, "duration": 2, "velocity": 100}, {"time": 1469, "pitch": 36, "duration": 15, "velocity": 105}, {"time": 1469, "pitch": 48, "duration": 15, "velocity": 105}, {"time": 1469, "pitch": 60, "duration": 4, "velocity": 76}, {"time": 1469, "pitch": 63, "duration": 7, "velocity": 87}, {"time": 1475, "pitch": 60, "duration": 3, "velocity": 73}, {"time": 1481, "pitch": 60, "duration": 5, "velocity": 111}, {"time": 1481, "pitch": 63, "duration": 6, "velocity": 102}, {"time": 1481, "pitch": 67, "duration": 11, "velocity": 105}, {"time": 1487, "pitch": 55, "duration": 11, "velocity": 39}, {"time": 1490, "pitch": 60, "duration": 2, "velocity": 66}, {"time": 1493, "pitch": 60, "duration": 7, "velocity": 100}, {"time": 1493, "pitch": 63, "duration": 8, "velocity": 102}, {"time": 1499, "pitch": 36, "duration": 17, "velocity": 57}, {"time": 1499, "pitch": 48, "duration": 17, "velocity": 57}, {"time": 1502, "pitch": 60, "duration": 2, "velocity": 80}, {"time": 1505, "pitch": 60, "duration": 4, "velocity": 111}, {"time": 1505, "pitch": 63, "duration": 5, "velocity": 108}, {"time": 1511, "pitch": 60, "duration": 4, "velocity": 102}, {"time": 1517, "pitch": 41, "duration": 13, "velocity": 92}, {"time": 1517, "pitch": 53, "duration": 13, "velocity": 92}, {"time": 1517, "pitch": 60, "duration": 3, "velocity": 92}, {"time": 1517, "pitch": 65, "duration": 8, "velocity": 92}, {"time": 1523, "pitch": 60, "duration": 3, "velocity": 69}, {"time": 1529, "pitch": 60, "duration": 3, "velocity": 97}, {"time": 1529, "pitch": 65, "duration": 7, "velocity": 108}, {"time": 1529, "pitch": 68, "duration": 7, "velocity": 102}, {"time": 1535, "pitch": 60, "duration": 5, "velocity": 89}, {"time": 1541, "pitch": 41, "duration": 14, "velocity": 76}, {"time": 1541, "pitch": 53, "duration": 14, "velocity": 76}, {"time": 1541, "pitch": 60, "duration": 3, "velocity": 76}, {"time": 1541, "pitch": 65, "duration": 7, "velocity": 82}, {"time": 1541, "pitch": 68, "duration": 8, "velocity": 87}, {"time": 1547, "pitch": 60, "duration": 3, "velocity": 71}, {"time": 1553, "pitch": 60, "duration": 2, "velocity": 105}, {"time": 1553, "pitch": 65, "duration": 3, "velocity": 114}, {"time": 1553, "pitch": 68, "duration": 7, "velocity": 102}, {"time": 1559, "pitch": 60, "duration": 2, "velocity": 84}, {"time": 1565, "pitch": 34, "duration": 14, "velocity": 97}, {"time": 1565, "pitch": 46, "duration": 14, "velocity": 97}, {"time": 1565, "pitch": 58, "duration": 4, "velocity": 89}, {"time": 1565, "pitch": 62, "duration": 4, "velocity": 96}, {"time": 1565, "pitch": 65, "duration": 3, "velocity": 84}, {"time": 1571, "pitch": 41, "duration": 7, "velocity": 24}, {"time": 1571, "pitch": 53, "duration": 7, "velocity": 24}, {"time": 1577, "pitch": 58, "duration": 4, "velocity": 108}, {"time": 1577, "pitch": 62, "duration": 6, "velocity": 109}, {"time": 1577, "pitch": 65, "duration": 5, "velocity": 105}, {"time": 1577, "pitch": 70, "duration": 6, "velocity": 87}, {"time": 1583, "pitch": 41, "duration": 2, "velocity": 84}, {"time": 1583, "pitch": 53, "duration": 2, "velocity": 84}, {"time": 1586, "pitch": 58, "duration": 3, "velocity": 114}, {"time": 1589, "pitch": 34, "duration": 13, "velocity": 102}, {"time": 1589, "pitch": 46, "duration": 13, "velocity": 102}, {"time": 1589, "pitch": 58, "duration": 9, "velocity": 92}, {"time": 1589, "pitch": 62, "duration": 9, "velocity": 96}, {"time": 1589, "pitch": 65, "duration": 9, "velocity": 97}, {"time": 1595, "pitch": 41, "duration": 6, "velocity": 67}, {"time": 1595, "pitch": 53, "duration": 6, "velocity": 67}, {"time": 1601, "pitch": 58, "duration": 3, "velocity": 108}, {"time": 1601, "pitch": 62, "duration": 5, "velocity": 112}, {"time": 1601, "pitch": 65, "duration": 7, "velocity": 108}, {"time": 1601, "pitch": 70, "duration": 8, "velocity": 84}, {"time": 1607, "pitch": 58, "duration": 2, "velocity": 102}, {"time": 1613, "pitch": 39, "duration": 15, "velocity": 94}, {"time": 1613, "pitch": 51, "duration": 15, "velocity": 94}, {"time": 1613, "pitch": 63, "duration": 7, "velocity": 80}, {"time": 1613, "pitch": 67, "duration": 8, "velocity": 96}, {"time": 1619, "pitch": 58, "duration": 10, "velocity": 71}, {"time": 1625, "pitch": 63, "duration": 10, "velocity": 92}, {"time": 1625, "pitch": 67, "duration": 10, "velocity": 112}, {"time": 1625, "pitch": 70, "duration": 10, "velocity": 105}, {"time": 1631, "pitch": 58, "duration": 6, "velocity": 94}, {"time": 1637, "pitch": 39, "duration": 16, "velocity": 102}, {"time": 1637, "pitch": 51, "duration": 16, "velocity": 102}, {"time": 1637, "pitch": 63, "duration": 8, "velocity": 82}, {"time": 1637, "pitch": 67, "duration": 9, "velocity": 70}, {"time": 1637, "pitch": 70, "duration": 9, "velocity": 89}, {"time": 1643, "pitch": 58, "duration": 11, "velocity": 66}, {"time": 1649, "pitch": 63, "duration": 6, "velocity": 97}, {"time": 1649, "pitch": 67, "duration": 4, "velocity": 109}, {"time": 1649, "pitch": 70, "duration": 7, "velocity": 102}, {"time": 1655, "pitch": 38, "duration": 2, "velocity": 102}, {"time": 1655, "pitch": 50, "duration": 2, "velocity": 102}, {"time": 1661, "pitch": 36, "duration": 17, "velocity": 105}, {"time": 1661, "pitch": 48, "duration": 17, "velocity": 105}, {"time": 1661, "pitch": 60, "duration": 4, "velocity": 71}, {"time": 1661, "pitch": 63, "duration": 9, "velocity": 71}, {"time": 1667, "pitch": 60, "duration": 4, "velocity": 76}, {"time": 1673, "pitch": 60, "duration": 10, "velocity": 108}, {"time": 1673, "pitch": 63, "duration": 10, "velocity": 105}, {"time": 1673, "pitch": 67, "duration": 10, "velocity": 105}, {"time": 1685, "pitch": 36, "duration": 16, "velocity": 94}, {"time": 1685, "pitch": 48, "duration": 16, "velocity": 94}, {"time": 1685, "pitch": 60, "duration": 9, "velocity": 87}, {"time": 1685, "pitch": 63, "duration": 9, "velocity": 82}, {"time": 1685, "pitch": 67, "duration": 10, "velocity": 85}, {"time": 1691, "pitch": 55, "duration": 8, "velocity": 31}, {"time": 1697, "pitch": 60, "duration": 7, "velocity": 100}, {"time": 1697, "pitch": 63, "duration": 7, "velocity": 102}, {"time": 1697, "pitch": 67, "duration": 7, "velocity": 102}, {"time": 1703, "pitch": 39, "duration": 2, "velocity": 82}, {"time": 1703, "pitch": 51, "duration": 2, "velocity": 82}, {"time": 1709, "pitch": 41, "duration": 19, "velocity": 108}, {"time": 1709, "pitch": 53, "duration": 19, "velocity": 108}, {"time": 1709, "pitch": 65, "duration": 9, "velocity": 78}, {"time": 1709, "pitch": 68, "duration": 9, "velocity": 87}, {"time": 1715, "pitch": 60, "duration": 14, "velocity": 71}, {"time": 1721, "pitch": 65, "duration": 3, "velocity": 97}, {"time": 1721, "pitch": 68, "duration": 8, "velocity": 94}, {"time": 1721, "pitch": 72, "duration": 8, "velocity": 94}, {"time": 1727, "pitch": 65, "duration": 5, "velocity": 60}, {"time": 1733, "pitch": 34, "duration": 15, "velocity": 97}, {"time": 1733, "pitch": 46, "duration": 15, "velocity": 97}, {"time": 1733, "pitch": 58, "duration": 8, "velocity": 97}, {"time": 1733, "pitch": 65, "duration": 7, "velocity": 89}, {"time": 1739, "pitch": 53, "duration": 9, "velocity": 78}, {"time": 1745, "pitch": 58, "duration": 3, "velocity": 105}, {"time": 1745, "pitch": 62, "duration": 5, "velocity": 105}, {"time": 1745, "pitch": 65, "duration": 7, "velocity": 102}, {"time": 1751, "pitch": 58, "duration": 4, "velocity": 111}, {"time": 1757, "pitch": 39, "duration": 48, "velocity": 94}, {"time": 1757, "pitch": 51, "duration": 48, "velocity": 94}, {"time": 1757, "pitch": 58, "duration": 3, "velocity": 100}, {"time": 1757, "pitch": 63, "duration": 8, "velocity": 92}, {"time": 1763, "pitch": 58, "duration": 3, "velocity": 82}, {"time": 1769, "pitch": 58, "duration": 3, "velocity": 102}, {"time": 1769, "pitch": 63, "duration": 10, "velocity": 111}, {"time": 1769, "pitch": 67, "duration": 9, "velocity": 109}, {"time": 1775, "pitch": 58, "duration": 5, "velocity": 55}, {"time": 1781, "pitch": 58, "duration": 3, "velocity": 84}, {"time": 1781, "pitch": 63, "duration": 8, "velocity": 84}, {"time": 1787, "pitch": 58, "duration": 18, "velocity": 52}, {"time": 1793, "pitch": 63, "duration": 11, "velocity": 100}, {"time": 1793, "pitch": 67, "duration": 12, "velocity": 112}, {"time": 1805, "pitch": 51, "duration": 38, "velocity": 78}, {"time": 1811, "pitch": 58, "duration": 32, "velocity": 80}, {"time": 1817, "pitch": 65, "duration": 7, "velocity": 69}, {"time": 1823, "pitch": 67, "duration": 17, "velocity": 87}, {"time": 1853, "pitch": 48, "duration": 37, "velocity": 84}, {"time": 1859, "pitch": 55, "duration": 26, "velocity": 38}, {"time": 1865, "pitch": 58, "duration": 5, "velocity": 108}, {"time": 1871, "pitch": 58, "duration": 4, "velocity": 32}, {"time": 1871, "pitch": 63, "duration": 7, "velocity": 76}, {"time": 1877, "pitch": 67, "duration": 14, "velocity": 48}, {"time": 1901, "pitch": 53, "duration": 31, "velocity": 92}, {"time": 1901, "pitch": 68, "duration": 13, "velocity": 73}, {"time": 1907, "pitch": 60, "duration": 25, "velocity": 64}, {"time": 1913, "pitch": 63, "duration": 18, "velocity": 92}, {"time": 1919, "pitch": 68, "duration": 13, "velocity": 51}, {"time": 1949, "pitch": 46, "duration": 17, "velocity": 92}, {"time": 1949, "pitch": 58, "duration": 9, "velocity": 71}, {"time": 1949, "pitch": 65, "duration": 8, "velocity": 82}, {"time": 1955, "pitch": 53, "duration": 9, "velocity": 82}, {"time": 1961, "pitch": 58, "duration": 6, "velocity": 111}, {"time": 1961, "pitch": 62, "duration": 7, "velocity": 112}, {"time": 1961, "pitch": 65, "duration": 8, "velocity": 108}, {"time": 1967, "pitch": 53, "duration": 5, "velocity": 76}, {"time": 1970, "pitch": 58, "duration": 2, "velocity": 92}, {"time": 1973, "pitch": 46, "duration": 10, "velocity": 108}, {"time": 1973, "pitch": 53, "duration": 10, "velocity": 102}, {"time": 1973, "pitch": 58, "duration": 5, "velocity": 89}, {"time": 1973, "pitch": 62, "duration": 5, "velocity": 96}, {"time": 1973, "pitch": 65, "duration": 5, "velocity": 102}, {"time": 1973, "pitch": 70, "duration": 4, "velocity": 102}, {"time": 1979, "pitch": 58, "duration": 4, "velocity": 84}, {"time": 1979, "pitch": 62, "duration": 4, "velocity": 96}, {"time": 1979, "pitch": 65, "duration": 4, "velocity": 94}, {"time": 1979, "pitch": 70, "duration": 4, "velocity": 82}, {"time": 1985, "pitch": 46, "duration": 12, "velocity": 108}, {"time": 1985, "pitch": 53, "duration": 12, "velocity": 108}, {"time": 1985, "pitch": 58, "duration": 6, "velocity": 105}, {"time": 1985, "pitch": 62, "duration": 10, "velocity": 109}, {"time": 1985, "pitch": 70, "duration": 11, "velocity": 100}, {"time": 1991, "pitch": 50, "duration": 7, "velocity": 96}, {"time": 1997, "pitch": 39, "duration": 39, "velocity": 92}, {"time": 1997, "pitch": 51, "duration": 39, "velocity": 102}, {"time": 1997, "pitch": 63, "duration": 7, "velocity": 87}, {"time": 1997, "pitch": 67, "duration": 8, "velocity": 99}, {"time": 1997, "pitch": 70, "duration": 7, "velocity": 94}, {"time": 2003, "pitch": 58, "duration": 9, "velocity": 71}, {"time": 2009, "pitch": 63, "duration": 6, "velocity": 102}, {"time": 2009, "pitch": 70, "duration": 6, "velocity": 102}, {"time": 2015, "pitch": 58, "duration": 10, "velocity": 62}, {"time": 2021, "pitch": 63, "duration": 7, "velocity": 105}, {"time": 2021, "pitch": 70, "duration": 7, "velocity": 94}, {"time": 2027, "pitch": 58, "duration": 8, "velocity": 66}, {"time": 2030, "pitch": 63, "duration": 2, "velocity": 66}, {"time": 2033, "pitch": 63, "duration": 4, "velocity": 102}, {"time": 2033, "pitch": 67, "duration": 4, "velocity": 112}, {"time": 2033, "pitch": 70, "duration": 4, "velocity": 100}, {"time": 2039, "pitch": 39, "duration": 2, "velocity": 87}, {"time": 2039, "pitch": 51, "duration": 2, "velocity": 97}, {"time": 2045, "pitch": 36, "duration": 46, "velocity": 84}, {"time": 2045, "pitch": 48, "duration": 46, "velocity": 94}, {"time": 2045, "pitch": 60, "duration": 5, "velocity": 87}, {"time": 2045, "pitch": 63, "duration": 6, "velocity": 78}, {"time": 2045, "pitch": 67, "duration": 6, "velocity": 63}, {"time": 2051, "pitch": 55, "duration": 8, "velocity": 68}, {"time": 2057, "pitch": 60, "duration": 6, "velocity": 102}, {"time": 2057, "pitch": 63, "duration": 10, "velocity": 102}, {"time": 2057, "pitch": 67, "duration": 10, "velocity": 96}, {"time": 2063, "pitch": 55, "duration": 9, "velocity": 45}, {"time": 2066, "pitch": 60, "duration": 2, "velocity": 66}, {"time": 2069, "pitch": 60, "duration": 7, "velocity": 97}, {"time": 2069, "pitch": 63, "duration": 6, "velocity": 94}, {"time": 2069, "pitch": 67, "duration": 6, "velocity": 72}, {"time": 2069, "pitch": 70, "duration": 6, "velocity": 97}, {"time": 2075, "pitch": 55, "duration": 8, "velocity": 38}, {"time": 2078, "pitch": 60, "duration": 2, "velocity": 58}, {"time": 2081, "pitch": 60, "duration": 5, "velocity": 100}, {"time": 2081, "pitch": 67, "duration": 7, "velocity": 102}, {"time": 2087, "pitch": 60, "duration": 3, "velocity": 89}, {"time": 2087, "pitch": 63, "duration": 3, "velocity": 92}, {"time": 2093, "pitch": 41, "duration": 23, "velocity": 95}, {"time": 2093, "pitch": 53, "duration": 23, "velocity": 105}, {"time": 2093, "pitch": 60, "duration": 4, "velocity": 89}, {"time": 2093, "pitch": 65, "duration": 8, "velocity": 92}, {"time": 2099, "pitch": 60, "duration": 3, "velocity": 69}, {"time": 2105, "pitch": 60, "duration": 3, "velocity": 102}, {"time": 2105, "pitch": 65, "duration": 10, "velocity": 108}, {"time": 2105, "pitch": 68, "duration": 8, "velocity": 105}, {"time": 2111, "pitch": 60, "duration": 5, "velocity": 64}, {"time": 2117, "pitch": 41, "duration": 20, "velocity": 82}, {"time": 2117, "pitch": 53, "duration": 20, "velocity": 92}, {"time": 2117, "pitch": 60, "duration": 4, "velocity": 89}, {"time": 2117, "pitch": 65, "duration": 9, "velocity": 97}, {"time": 2117, "pitch": 68, "duration": 8, "velocity": 94}, {"time": 2123, "pitch": 60, "duration": 4, "velocity": 48}, {"time": 2129, "pitch": 60, "duration": 6, "velocity": 100}, {"time": 2129, "pitch": 65, "duration": 3, "velocity": 105}, {"time": 2129, "pitch": 68, "duration": 3, "velocity": 100}, {"time": 2141, "pitch": 34, "duration": 20, "velocity": 84}, {"time": 2141, "pitch": 46, "duration": 20, "velocity": 94}, {"time": 2141, "pitch": 58, "duration": 8, "velocity": 100}, {"time": 2141, "pitch": 65, "duration": 8, "velocity": 97}, {"time": 2147, "pitch": 53, "duration": 8, "velocity": 62}, {"time": 2153, "pitch": 58, "duration": 4, "velocity": 114}, {"time": 2153, "pitch": 65, "duration": 4, "velocity": 102}, {"time": 2159, "pitch": 63, "duration": 4, "velocity": 57}, {"time": 2165, "pitch": 34, "duration": 22, "velocity": 87}, {"time": 2165, "pitch": 46, "duration": 22, "velocity": 97}, {"time": 2165, "pitch": 58, "duration": 6, "velocity": 82}, {"time": 2165, "pitch": 65, "duration": 6, "velocity": 92}, {"time": 2171, "pitch": 53, "duration": 16, "velocity": 58}, {"time": 2177, "pitch": 58, "duration": 4, "velocity": 108}, {"time": 2177, "pitch": 62, "duration": 10, "velocity": 105}, {"time": 2177, "pitch": 65, "duration": 11, "velocity": 100}, {"time": 2183, "pitch": 58, "duration": 5, "velocity": 78}, {"time": 2189, "pitch": 34, "duration": 46, "velocity": 84}, {"time": 2189, "pitch": 46, "duration": 46, "velocity": 94}, {"time": 2189, "pitch": 58, "duration": 23, "velocity": 89}, {"time": 2189, "pitch": 62, "duration": 22, "velocity": 72}, {"time": 2189, "pitch": 65, "duration": 23, "velocity": 92}, {"time": 2213, "pitch": 58, "duration": 19, "velocity": 87}, {"time": 2213, "pitch": 62, "duration": 16, "velocity": 57}, {"time": 2213, "pitch": 70, "duration": 18, "velocity": 97}, {"time": 2237, "pitch": 39, "duration": 46, "velocity": 69}, {"time": 2237, "pitch": 51, "duration": 46, "velocity": 80}, {"time": 2237, "pitch": 58, "duration": 7, "velocity": 82}, {"time": 2237, "pitch": 63, "duration": 8, "velocity": 87}, {"time": 2249, "pitch": 63, "duration": 5, "velocity": 80}, {"time": 2249, "pitch": 67, "duration": 5, "velocity": 93}, {"time": 2261, "pitch": 58, "duration": 3, "velocity": 84}, {"time": 2261, "pitch": 63, "duration": 8, "velocity": 94}, {"time": 2261, "pitch": 67, "duration": 8, "velocity": 93}, {"time": 2273, "pitch": 58, "duration": 4, "velocity": 94}, {"time": 2273, "pitch": 63, "duration": 3, "velocity": 102}, {"time": 2273, "pitch": 67, "duration": 5, "velocity": 105}, {"time": 2285, "pitch": 36, "duration": 46, "velocity": 71}, {"time": 2285, "pitch": 48, "duration": 46, "velocity": 82}, {"time": 2285, "pitch": 60, "duration": 10, "velocity": 76}, {"time": 2285, "pitch": 63, "duration": 9, "velocity": 87}, {"time": 2297, "pitch": 63, "duration": 5, "velocity": 76}, {"time": 2297, "pitch": 67, "duration": 6, "velocity": 93}, {"time": 2309, "pitch": 60, "duration": 4, "velocity": 71}, {"time": 2309, "pitch": 63, "duration": 8, "velocity": 92}, {"time": 2309, "pitch": 67, "duration": 8, "velocity": 102}, {"time": 2315, "pitch": 60, "duration": 4, "velocity": 60}, {"time": 2321, "pitch": 60, "duration": 3, "velocity": 97}, {"time": 2321, "pitch": 63, "duration": 3, "velocity": 82}, {"time": 2321, "pitch": 67, "duration": 3, "velocity": 96}, {"time": 2327, "pitch": 58, "duration": 4, "velocity": 105}, {"time": 2333, "pitch": 39, "duration": 48, "velocity": 65}, {"time": 2333, "pitch": 51, "duration": 48, "velocity": 76}, {"time": 2333, "pitch": 58, "duration": 11, "velocity": 92}, {"time": 2333, "pitch": 63, "duration": 10, "velocity": 84}, {"time": 2345, "pitch": 63, "duration": 6, "velocity": 92}, {"time": 2345, "pitch": 67, "duration": 6, "velocity": 102}, {"time": 2357, "pitch": 63, "duration": 9, "velocity": 87}, {"time": 2357, "pitch": 67, "duration": 9, "velocity": 87}, {"time": 2363, "pitch": 58, "duration": 2, "velocity": 37}, {"time": 2369, "pitch": 58, "duration": 3, "velocity": 100}, {"time": 2369, "pitch": 63, "duration": 7, "velocity": 102}, {"time": 2369, "pitch": 67, "duration": 8, "velocity": 102}, {"time": 2375, "pitch": 58, "duration": 2, "velocity": 58}, {"time": 2381, "pitch": 41, "duration": 44, "velocity": 76}, {"time": 2381, "pitch": 53, "duration": 44, "velocity": 87}, {"time": 2381, "pitch": 60, "duration": 4, "velocity": 82}, {"time": 2381, "pitch": 65, "duration": 9, "velocity": 89}, {"time": 2387, "pitch": 60, "duration": 8, "velocity": 64}, {"time": 2393, "pitch": 65, "duration": 6, "velocity": 87}, {"time": 2393, "pitch": 68, "duration": 7, "velocity": 87}, {"time": 2405, "pitch": 65, "duration": 7, "velocity": 64}, {"time": 2405, "pitch": 68, "duration": 8, "velocity": 73}, {"time": 2411, "pitch": 60, "duration": 5, "velocity": 64}, {"time": 2417, "pitch": 60, "duration": 1, "velocity": 32}, {"time": 2417, "pitch": 65, "duration": 2, "velocity": 102}, {"time": 2417, "pitch": 68, "duration": 2, "velocity": 100}, {"time": 2423, "pitch": 55, "duration": 3, "velocity": 105}, {"time": 2429, "pitch": 32, "duration": 43, "velocity": 81}, {"time": 2429, "pitch": 44, "duration": 43, "velocity": 92}, {"time": 2429, "pitch": 56, "duration": 10, "velocity": 52}, {"time": 2429, "pitch": 60, "duration": 9, "velocity": 80}, {"time": 2435, "pitch": 39, "duration": 38, "velocity": 33}, {"time": 2435, "pitch": 51, "duration": 38, "velocity": 44}, {"time": 2441, "pitch": 60, "duration": 2, "velocity": 87}, {"time": 2441, "pitch": 63, "duration": 3, "velocity": 87}, {"time": 2453, "pitch": 60, "duration": 5, "velocity": 89}, {"time": 2453, "pitch": 63, "duration": 6, "velocity": 84}, {"time": 2465, "pitch": 56, "duration": 2, "velocity": 92}, {"time": 2465, "pitch": 60, "duration": 4, "velocity": 117}, {"time": 2465, "pitch": 63, "duration": 5, "velocity": 102}, {"time": 2465, "pitch": 68, "duration": 7, "velocity": 89}, {"time": 2477, "pitch": 39, "duration": 11, "velocity": 81}, {"time": 2477, "pitch": 51, "duration": 11, "velocity": 92}, {"time": 2477, "pitch": 58, "duration": 7, "velocity": 76}, {"time": 2477, "pitch": 63, "duration": 6, "velocity": 92}, {"time": 2489, "pitch": 34, "duration": 11, "velocity": 81}, {"time": 2489, "pitch": 46, "duration": 11, "velocity": 92}, {"time": 2489, "pitch": 58, "duration": 9, "velocity": 94}, {"time": 2489, "pitch": 62, "duration": 8, "velocity": 99}, {"time": 2501, "pitch": 36, "duration": 22, "velocity": 83}, {"time": 2501, "pitch": 48, "duration": 22, "velocity": 94}, {"time": 2501, "pitch": 60, "duration": 4, "velocity": 82}, {"time": 2501, "pitch": 63, "duration": 9, "velocity": 84}, {"time": 2507, "pitch": 60, "duration": 4, "velocity": 57}, {"time": 2513, "pitch": 60, "duration": 3, "velocity": 94}, {"time": 2513, "pitch": 63, "duration": 6, "velocity": 94}, {"time": 2513, "pitch": 67, "duration": 6, "velocity": 105}, {"time": 2519, "pitch": 60, "duration": 2, "velocity": 52}, {"time": 2525, "pitch": 41, "duration": 41, "velocity": 91}, {"time": 2525, "pitch": 53, "duration": 41, "velocity": 102}, {"time": 2525, "pitch": 60, "duration": 4, "velocity": 73}, {"time": 2525, "pitch": 65, "duration": 8, "velocity": 87}, {"time": 2525, "pitch": 68, "duration": 8, "velocity": 89}, {"time": 2537, "pitch": 60, "duration": 3, "velocity": 100}, {"time": 2537, "pitch": 65, "duration": 5, "velocity": 105}, {"time": 2537, "pitch": 68, "duration": 3, "velocity": 97}, {"time": 2549, "pitch": 60, "duration": 4, "velocity": 100}, {"time": 2549, "pitch": 65, "duration": 8, "velocity": 108}, {"time": 2549, "pitch": 69, "duration": 9, "velocity": 99}, {"time": 2561, "pitch": 60, "duration": 3, "velocity": 82}, {"time": 2561, "pitch": 65, "duration": 3, "velocity": 92}, {"time": 2561, "pitch": 69, "duration": 4, "velocity": 79}, {"time": 2573, "pitch": 34, "duration": 22, "velocity": 81}, {"time": 2573, "pitch": 46, "duration": 22, "velocity": 92}, {"time": 2573, "pitch": 58, "duration": 4, "velocity": 80}, {"time": 2573, "pitch": 62, "duration": 7, "velocity": 70}, {"time": 2573, "pitch": 65, "duration": 9, "velocity": 87}, {"time": 2579, "pitch": 58, "duration": 3, "velocity": 69}, {"time": 2585, "pitch": 58, "duration": 3, "velocity": 94}, {"time": 2585, "pitch": 62, "duration": 3, "velocity": 99}, {"time": 2585, "pitch": 65, "duration": 4, "velocity": 92}, {"time": 2591, "pitch": 63, "duration": 5, "velocity": 87}, {"time": 2597, "pitch": 34, "duration": 23, "velocity": 83}, {"time": 2597, "pitch": 46, "duration": 23, "velocity": 94}, {"time": 2597, "pitch": 58, "duration": 5, "velocity": 84}, {"time": 2597, "pitch": 62, "duration": 5, "velocity": 68}, {"time": 2603, "pitch": 53, "duration": 10, "velocity": 76}, {"time": 2609, "pitch": 58, "duration": 10, "velocity": 105}, {"time": 2609, "pitch": 62, "duration": 9, "velocity": 105}, {"time": 2609, "pitch": 70, "duration": 12, "velocity": 94}, {"time": 2615, "pitch": 53, "duration": 6, "velocity": 92}, {"time": 2621, "pitch": 39, "duration": 23, "velocity": 100}, {"time": 2621, "pitch": 51, "duration": 23, "velocity": 100}, {"time": 2621, "pitch": 63, "duration": 6, "velocity": 82}, {"time": 2621, "pitch": 67, "duration": 7, "velocity": 99}, {"time": 2621, "pitch": 70, "duration": 7, "velocity": 94}, {"time": 2627, "pitch": 58, "duration": 8, "velocity": 50}, {"time": 2633, "pitch": 63, "duration": 5, "velocity": 97}, {"time": 2633, "pitch": 67, "duration": 6, "velocity": 109}, {"time": 2633, "pitch": 70, "duration": 6, "velocity": 102}, {"time": 2639, "pitch": 58, "duration": 5, "velocity": 64}, {"time": 2642, "pitch": 63, "duration": 3, "velocity": 87}, {"time": 2645, "pitch": 39, "duration": 20, "velocity": 102}, {"time": 2645, "pitch": 51, "duration": 20, "velocity": 102}, {"time": 2645, "pitch": 63, "duration": 7, "velocity": 78}, {"time": 2645, "pitch": 67, "duration": 7, "velocity": 99}, {"time": 2645, "pitch": 70, "duration": 8, "velocity": 87}, {"time": 2651, "pitch": 58, "duration": 8, "velocity": 58}, {"time": 2654, "pitch": 63, "duration": 2, "velocity": 76}, {"time": 2657, "pitch": 63, "duration": 4, "velocity": 97}, {"time": 2657, "pitch": 67, "duration": 5, "velocity": 102}, {"time": 2657, "pitch": 70, "duration": 7, "velocity": 100}, {"time": 2660, "pitch": 58, "duration": 4, "velocity": 80}, {"time": 2663, "pitch": 63, "duration": 2, "velocity": 100}, {"time": 2669, "pitch": 36, "duration": 15, "velocity": 105}, {"time": 2669, "pitch": 48, "duration": 15, "velocity": 105}, {"time": 2669, "pitch": 60, "duration": 4, "velocity": 76}, {"time": 2669, "pitch": 63, "duration": 7, "velocity": 87}, {"time": 2675, "pitch": 60, "duration": 3, "velocity": 73}, {"time": 2681, "pitch": 60, "duration": 5, "velocity": 111}, {"time": 2681, "pitch": 63, "duration": 6, "velocity": 102}, {"time": 2681, "pitch": 67, "duration": 11, "velocity": 105}, {"time": 2687, "pitch": 55, "duration": 11, "velocity": 39}, {"time": 2690, "pitch": 60, "duration": 2, "velocity": 66}, {"time": 2693, "pitch": 60, "duration": 7, "velocity": 100}, {"time": 2693, "pitch": 63, "duration": 8, "velocity": 102}, {"time": 2699, "pitch": 36, "duration": 17, "velocity": 57}, {"time": 2699, "pitch": 48, "duration": 17, "velocity": 57}, {"time": 2702, "pitch": 60, "duration": 2, "velocity": 80}, {"time": 2705, "pitch": 60, "duration": 4, "velocity": 111}, {"time": 2705, "pitch": 63, "duration": 5, "velocity": 108}, {"time": 2711, "pitch": 60, "duration": 4, "velocity": 102}, {"time": 2717, "pitch": 41, "duration": 13, "velocity": 92}, {"time": 2717, "pitch": 53, "duration": 13, "velocity": 92}, {"time": 2717, "pitch": 60, "duration": 3, "velocity": 92}, {"time": 2717, "pitch": 65, "duration": 8, "velocity": 92}, {"time": 2723, "pitch": 60, "duration": 3, "velocity": 69}, {"time": 2729, "pitch": 60, "duration": 3, "velocity": 97}, {"time": 2729, "pitch": 65, "duration": 7, "velocity": 108}, {"time": 2729, "pitch": 68, "duration": 7, "velocity": 102}, {"time": 2735, "pitch": 60, "duration": 5, "velocity": 89}, {"time": 2741, "pitch": 41, "duration": 14, "velocity": 76}, {"time": 2741, "pitch": 53, "duration": 14, "velocity": 76}, {"time": 2741, "pitch": 60, "duration": 3, "velocity": 76}, {"time": 2741, "pitch": 65, "duration": 7, "velocity": 82}, {"time": 2741, "pitch": 68, "duration": 8, "velocity": 87}, {"time": 2747, "pitch": 60, "duration": 3, "velocity": 71}, {"time": 2753, "pitch": 60, "duration": 2, "velocity": 105}, {"time": 2753, "pitch": 65, "duration": 3, "velocity": 114}, {"time": 2753, "pitch": 68, "duration": 7, "velocity": 102}, {"time": 2759, "pitch": 60, "duration": 2, "velocity": 84}, {"time": 2765, "pitch": 34, "duration": 14, "velocity": 97}, {"time": 2765, "pitch": 46, "duration": 14, "velocity": 97}, {"time": 2765, "pitch": 58, "duration": 4, "velocity": 89}, {"time": 2765, "pitch": 62, "duration": 4, "velocity": 96}, {"time": 2765, "pitch": 65, "duration": 3, "velocity": 84}, {"time": 2771, "pitch": 41, "duration": 7, "velocity": 24}, {"time": 2771, "pitch": 53, "duration": 7, "velocity": 24}, {"time": 2777, "pitch": 58, "duration": 4, "velocity": 108}, {"time": 2777, "pitch": 62, "duration": 6, "velocity": 109}, {"time": 2777, "pitch": 65, "duration": 5, "velocity": 105}, {"time": 2777, "pitch": 70, "duration": 6, "velocity": 87}, {"time": 2783, "pitch": 41, "duration": 2, "velocity": 84}, {"time": 2783, "pitch": 53, "duration": 2, "velocity": 84}, {"time": 2786, "pitch": 58, "duration": 3, "velocity": 114}, {"time": 2789, "pitch": 34, "duration": 13, "velocity": 102}, {"time": 2789, "pitch": 46, "duration": 13, "velocity": 102}, {"time": 2789, "pitch": 58, "duration": 9, "velocity": 92}, {"time": 2789, "pitch": 62, "duration": 9, "velocity": 96}, {"time": 2789, "pitch": 65, "duration": 9, "velocity": 97}, {"time": 2795, "pitch": 41, "duration": 6, "velocity": 67}, {"time": 2795, "pitch": 53, "duration": 6, "velocity": 67}, {"time": 2801, "pitch": 58, "duration": 3, "velocity": 108}, {"time": 2801, "pitch": 62, "duration": 5, "velocity": 112}, {"time": 2801, "pitch": 65, "duration": 7, "velocity": 108}, {"time": 2801, "pitch": 70, "duration": 8, "velocity": 84}, {"time": 2807, "pitch": 58, "duration": 2, "velocity": 102}, {"time": 2813, "pitch": 39, "duration": 15, "velocity": 94}, {"time": 2813, "pitch": 51, "duration": 15, "velocity": 94}, {"time": 2813, "pitch": 63, "duration": 7, "velocity": 80}, {"time": 2813, "pitch": 67, "duration": 8, "velocity": 96}, {"time": 2819, "pitch": 58, "duration": 10, "velocity": 71}, {"time": 2825, "pitch": 63, "duration": 10, "velocity": 92}, {"time": 2825, "pitch": 67, "duration": 10, "velocity": 112}, {"time": 2825, "pitch": 70, "duration": 10, "velocity": 105}, {"time": 2831, "pitch": 58, "duration": 6, "velocity": 94}, {"time": 2837, "pitch": 39, "duration": 16, "velocity": 102}, {"time": 2837, "pitch": 51, "duration": 16, "velocity": 102}, {"time": 2837, "pitch": 63, "duration": 8, "velocity": 82}, {"time": 2837, "pitch": 67, "duration": 9, "velocity": 70}, {"time": 2837, "pitch": 70, "duration": 9, "velocity": 89}, {"time": 2843, "pitch": 58, "duration": 11, "velocity": 66}, {"time": 2849, "pitch": 63, "duration": 6, "velocity": 97}, {"time": 2849, "pitch": 67, "duration": 4, "velocity": 109}, {"time": 2849, "pitch": 70, "duration": 7, "velocity": 102}, {"time": 2855, "pitch": 38, "duration": 2, "velocity": 102}, {"time": 2855, "pitch": 50, "duration": 2, "velocity": 102}, {"time": 2861, "pitch": 36, "duration": 17, "velocity": 105}, {"time": 2861, "pitch": 48, "duration": 17, "velocity": 105}, {"time": 2861, "pitch": 60, "duration": 4, "velocity": 71}, {"time": 2861, "pitch": 63, "duration": 9, "velocity": 71}, {"time": 2867, "pitch": 60, "duration": 4, "velocity": 76}, {"time": 2873, "pitch": 60, "duration": 10, "velocity": 108}, {"time": 2873, "pitch": 63, "duration": 10, "velocity": 105}, {"time": 2873, "pitch": 67, "duration": 10, "velocity": 105}, {"time": 2885, "pitch": 36, "duration": 16, "velocity": 94}, {"time": 2885, "pitch": 48, "duration": 16, "velocity": 94}, {"time": 2885, "pitch": 60, "duration": 9, "velocity": 87}, {"time": 2885, "pitch": 63, "duration": 9, "velocity": 82}, {"time": 2885, "pitch": 67, "duration": 10, "velocity": 85}, {"time": 2891, "pitch": 55, "duration": 8, "velocity": 31}, {"time": 2897, "pitch": 60, "duration": 7, "velocity": 100}, {"time": 2897, "pitch": 63, "duration": 7, "velocity": 102}, {"time": 2897, "pitch": 67, "duration": 7, "velocity": 102}, {"time": 2903, "pitch": 39, "duration": 2, "velocity": 82}, {"time": 2903, "pitch": 51, "duration": 2, "velocity": 82}, {"time": 2909, "pitch": 41, "duration": 19, "velocity": 108}, {"time": 2909, "pitch": 53, "duration": 19, "velocity": 108}, {"time": 2909, "pitch": 65, "duration": 9, "velocity": 78}, {"time": 2909, "pitch": 68, "duration": 9, "velocity": 87}, {"time": 2915, "pitch": 60, "duration": 14, "velocity": 71}, {"time": 2921, "pitch": 65, "duration": 3, "velocity": 97}, {"time": 2921, "pitch": 68, "duration": 8, "velocity": 94}, {"time": 2921, "pitch": 72, "duration": 8, "velocity": 94}, {"time": 2927, "pitch": 65, "duration": 5, "velocity": 60}, {"time": 2933, "pitch": 41, "duration": 13, "velocity": 102}, {"time": 2933, "pitch": 53, "duration": 13, "velocity": 102}, {"time": 2933, "pitch": 65, "duration": 8, "velocity": 97}, {"time": 2933, "pitch": 69, "duration": 9, "velocity": 109}, {"time": 2939, "pitch": 60, "duration": 7, "velocity": 73}, {"time": 2945, "pitch": 65, "duration": 3, "velocity": 102}, {"time": 2945, "pitch": 69, "duration": 7, "velocity": 109}, {"time": 2945, "pitch": 72, "duration": 7, "velocity": 100}, {"time": 2951, "pitch": 65, "duration": 4, "velocity": 92}, {"time": 2957, "pitch": 34, "duration": 15, "velocity": 102}, {"time": 2957, "pitch": 46, "duration": 15, "velocity": 102}, {"time": 2957, "pitch": 58, "duration": 7, "velocity": 73}, {"time": 2957, "pitch": 62, "duration": 6, "velocity": 41}, {"time": 2957, "pitch": 65, "duration": 6, "velocity": 89}, {"time": 2963, "pitch": 53, "duration": 9, "velocity": 67}, {"time": 2969, "pitch": 62, "duration": 9, "velocity": 109}, {"time": 2969, "pitch": 65, "duration": 9, "velocity": 97}, {"time": 2969, "pitch": 70, "duration": 7, "velocity": 92}, {"time": 2975, "pitch": 53, "duration": 7, "velocity": 92}, {"time": 2981, "pitch": 34, "duration": 17, "velocity": 94}, {"time": 2981, "pitch": 46, "duration": 17, "velocity": 94}, {"time": 2981, "pitch": 58, "duration": 10, "velocity": 82}, {"time": 2981, "pitch": 62, "duration": 9, "velocity": 77}, {"time": 2981, "pitch": 65, "duration": 9, "velocity": 92}, {"time": 2987, "pitch": 53, "duration": 8, "velocity": 60}, {"time": 2993, "pitch": 58, "duration": 11, "velocity": 102}, {"time": 2993, "pitch": 62, "duration": 11, "velocity": 112}, {"time": 2993, "pitch": 65, "duration": 11, "velocity": 100}, {"time": 2993, "pitch": 70, "duration": 11, "velocity": 87}, {"time": 2999, "pitch": 53, "duration": 6, "velocity": 94}, {"time": 3005, "pitch": 39, "duration": 23, "velocity": 100}, {"time": 3005, "pitch": 51, "duration": 23, "velocity": 100}, {"time": 3005, "pitch": 63, "duration": 6, "velocity": 82}, {"time": 3005, "pitch": 67, "duration": 7, "velocity": 99}, {"time": 3005, "pitch": 70, "duration": 7, "velocity": 94}, {"time": 3011, "pitch": 58, "duration": 8, "velocity": 50}, {"time": 3017, "pitch": 63, "duration": 5, "velocity": 97}, {"time": 3017, "pitch": 67, "duration": 6, "velocity": 109}, {"time": 3017, "pitch": 70, "duration": 6, "velocity": 102}, {"time": 3023, "pitch": 58, "duration": 5, "velocity": 64}, {"time": 3026, "pitch": 63, "duration": 3, "velocity": 87}, {"time": 3029, "pitch": 39, "duration": 20, "velocity": 102}, {"time": 3029, "pitch": 51, "duration": 20, "velocity": 102}, {"time": 3029, "pitch": 63, "duration": 7, "velocity": 78}, {"time": 3029, "pitch": 67, "duration": 7, "velocity": 99}, {"time": 3029, "pitch": 70, "duration": 8, "velocity": 87}, {"time": 3035, "pitch": 58, "duration": 8, "velocity": 58}, {"time": 3038, "pitch": 63, "duration": 2, "velocity": 76}, {"time": 3041, "pitch": 63, "duration": 4, "velocity": 97}, {"time": 3041, "pitch": 67, "duration": 5, "velocity": 102}, {"time": 3041, "pitch": 70, "duration": 7, "velocity": 100}, {"time": 3044, "pitch": 58, "duration": 4, "velocity": 80}, {"time": 3047, "pitch": 63, "duration": 2, "velocity": 100}, {"time": 3053, "pitch": 36, "duration": 15, "velocity": 105}, {"time": 3053, "pitch": 48, "duration": 15, "velocity": 105}, {"time": 3053, "pitch": 60, "duration": 4, "velocity": 76}, {"time": 3053, "pitch": 63, "duration": 7, "velocity": 87}, {"time": 3059, "pitch": 60, "duration": 3, "velocity": 73}, {"time": 3065, "pitch": 60, "duration": 5, "velocity": 111}, {"time": 3065, "pitch": 63, "duration": 6, "velocity": 102}, {"time": 3065, "pitch": 67, "duration": 11, "velocity": 105}, {"time": 3071, "pitch": 55, "duration": 11, "velocity": 39}, {"time": 3074, "pitch": 60, "duration": 2, "velocity": 66}, {"time": 3077, "pitch": 60, "duration": 7, "velocity": 100}, {"time": 3077, "pitch": 63, "duration": 8, "velocity": 102}, {"time": 3083, "pitch": 36, "duration": 17, "velocity": 57}, {"time": 3083, "pitch": 48, "duration": 17, "velocity": 57}, {"time": 3086, "pitch": 60, "duration": 2, "velocity": 80}, {"time": 3089, "pitch": 60, "duration": 4, "velocity": 111}, {"time": 3089, "pitch": 63, "duration": 5, "velocity": 108}, {"time": 3095, "pitch": 60, "duration": 4, "velocity": 102}, {"time": 3101, "pitch": 41, "duration": 13, "velocity": 92}, {"time": 3101, "pitch": 53, "duration": 13, "velocity": 92}, {"time": 3101, "pitch": 60, "duration": 3, "velocity": 92}, {"time": 3101, "pitch": 65, "duration": 8, "velocity": 92}, {"time": 3107, "pitch": 60, "duration": 3, "velocity": 69}, {"time": 3113, "pitch": 60, "duration": 3, "velocity": 97}, {"time": 3113, "pitch": 65, "duration": 7, "velocity": 108}, {"time": 3113, "pitch": 68, "duration": 7, "velocity": 102}, {"time": 3119, "pitch": 60, "duration": 5, "velocity": 89}, {"time": 3125, "pitch": 41, "duration": 14, "velocity": 76}, {"time": 3125, "pitch": 53, "duration": 14, "velocity": 76}, {"time": 3125, "pitch": 60, "duration": 3, "velocity": 76}, {"time": 3125, "pitch": 65, "duration": 7, "velocity": 82}, {"time": 3125, "pitch": 68, "duration": 8, "velocity": 87}, {"time": 3131, "pitch": 60, "duration": 3, "velocity": 71}, {"time": 3137, "pitch": 60, "duration": 2, "velocity": 105}, {"time": 3137, "pitch": 65, "duration": 3, "velocity": 114}, {"time": 3137, "pitch": 68, "duration": 7, "velocity": 102}, {"time": 3143, "pitch": 60, "duration": 2, "velocity": 84}, {"time": 3149, "pitch": 34, "duration": 14, "velocity": 97}, {"time": 3149, "pitch": 46, "duration": 14, "velocity": 97}, {"time": 3149, "pitch": 58, "duration": 4, "velocity": 89}, {"time": 3149, "pitch": 62, "duration": 4, "velocity": 96}, {"time": 3149, "pitch": 65, "duration": 3, "velocity": 84}, {"time": 3155, "pitch": 41, "duration": 7, "velocity": 24}, {"time": 3155, "pitch": 53, "duration": 7, "velocity": 24}, {"time": 3161, "pitch": 58, "duration": 4, "velocity": 108}, {"time": 3161, "pitch": 62, "duration": 6, "velocity": 109}, {"time": 3161, "pitch": 65, "duration": 5, "velocity": 105}, {"time": 3161, "pitch": 70, "duration": 6, "velocity": 87}, {"time": 3167, "pitch": 41, "duration": 2, "velocity": 84}, {"time": 3167, "pitch": 53, "duration": 2, "velocity": 84}, {"time": 3170, "pitch": 58, "duration": 3, "velocity": 114}, {"time": 3173, "pitch": 34, "duration": 13, "velocity": 102}, {"time": 3173, "pitch": 46, "duration": 13, "velocity": 102}, {"time": 3173, "pitch": 58, "duration": 9, "velocity": 92}, {"time": 3173, "pitch": 62, "duration": 9, "velocity": 96}, {"time": 3173, "pitch": 65, "duration": 9, "velocity": 97}, {"time": 3179, "pitch": 41, "duration": 6, "velocity": 67}, {"time": 3179, "pitch": 53, "duration": 6, "velocity": 67}, {"time": 3185, "pitch": 58, "duration": 3, "velocity": 108}, {"time": 3185, "pitch": 62, "duration": 5, "velocity": 112}, {"time": 3185, "pitch": 65, "duration": 7, "velocity": 108}, {"time": 3185, "pitch": 70, "duration": 8, "velocity": 84}, {"time": 3191, "pitch": 58, "duration": 2, "velocity": 102}, {"time": 3197, "pitch": 39, "duration": 15, "velocity": 94}, {"time": 3197, "pitch": 51, "duration": 15, "velocity": 94}, {"time": 3197, "pitch": 63, "duration": 7, "velocity": 80}, {"time": 3197, "pitch": 67, "duration": 8, "velocity": 96}, {"time": 3203, "pitch": 58, "duration": 10, "velocity": 71}, {"time": 3209, "pitch": 63, "duration": 10, "velocity": 92}, {"time": 3209, "pitch": 67, "duration": 10, "velocity": 112}, {"time": 3209, "pitch": 70, "duration": 10, "velocity": 105}, {"time": 3215, "pitch": 58, "duration": 6, "velocity": 94}, {"time": 3221, "pitch": 39, "duration": 16, "velocity": 102}, {"time": 3221, "pitch": 51, "duration": 16, "velocity": 102}, {"time": 3221, "pitch": 63, "duration": 8, "velocity": 82}, {"time": 3221, "pitch": 67, "duration": 9, "velocity": 70}, {"time": 3221, "pitch": 70, "duration": 9, "velocity": 89}, {"time": 3227, "pitch": 58, "duration": 11, "velocity": 66}, {"time": 3233, "pitch": 63, "duration": 6, "velocity": 97}, {"time": 3233, "pitch": 67, "duration": 4, "velocity": 109}, {"time": 3233, "pitch": 70, "duration": 7, "velocity": 102}, {"time": 3239, "pitch": 38, "duration": 2, "velocity": 102}, {"time": 3239, "pitch": 50, "duration": 2, "velocity": 102}, {"time": 3245, "pitch": 36, "duration": 17, "velocity": 105}, {"time": 3245, "pitch": 48, "duration": 17, "velocity": 105}, {"time": 3245, "pitch": 60, "duration": 4, "velocity": 71}, {"time": 3245, "pitch": 63, "duration": 9, "velocity": 71}, {"time": 3251, "pitch": 60, "duration": 4, "velocity": 76}, {"time": 3257, "pitch": 60, "duration": 10, "velocity": 108}, {"time": 3257, "pitch": 63, "duration": 10, "velocity": 105}, {"time": 3257, "pitch": 67, "duration": 10, "velocity": 105}, {"time": 3269, "pitch": 36, "duration": 16, "velocity": 94}, {"time": 3269, "pitch": 48, "duration": 16, "velocity": 94}, {"time": 3269, "pitch": 60, "duration": 9, "velocity": 87}, {"time": 3269, "pitch": 63, "duration": 9, "velocity": 82}, {"time": 3269, "pitch": 67, "duration": 10, "velocity": 85}, {"time": 3275, "pitch": 55, "duration": 8, "velocity": 31}, {"time": 3281, "pitch": 60, "duration": 7, "velocity": 100}, {"time": 3281, "pitch": 63, "duration": 7, "velocity": 102}, {"time": 3281, "pitch": 67, "duration": 7, "velocity": 102}, {"time": 3287, "pitch": 39, "duration": 2, "velocity": 82}, {"time": 3287, "pitch": 51, "duration": 2, "velocity": 82}, {"time": 3293, "pitch": 41, "duration": 19, "velocity": 108}, {"time": 3293, "pitch": 53, "duration": 19, "velocity": 108}, {"time": 3293, "pitch": 65, "duration": 9, "velocity": 78}, {"time": 3293, "pitch": 68, "duration": 9, "velocity": 87}, {"time": 3299, "pitch": 60, "duration": 14, "velocity": 71}, {"time": 3305, "pitch": 65, "duration": 3, "velocity": 97}, {"time": 3305, "pitch": 68, "duration": 8, "velocity": 94}, {"time": 3305, "pitch": 72, "duration": 8, "velocity": 94}, {"time": 3311, "pitch": 65, "duration": 5, "velocity": 60}, {"time": 3317, "pitch": 34, "duration": 15, "velocity": 97}, {"time": 3317, "pitch": 46, "duration": 15, "velocity": 97}, {"time": 3317, "pitch": 58, "duration": 8, "velocity": 97}, {"time": 3317, "pitch": 65, "duration": 7, "velocity": 89}, {"time": 3323, "pitch": 53, "duration": 9, "velocity": 78}, {"time": 3329, "pitch": 58, "duration": 3, "velocity": 105}, {"time": 3329, "pitch": 62, "duration": 5, "velocity": 105}, {"time": 3329, "pitch": 65, "duration": 7, "velocity": 102}, {"time": 3335, "pitch": 58, "duration": 4, "velocity": 111}, {"time": 3341, "pitch": 39, "duration": 48, "velocity": 94}, {"time": 3341, "pitch": 51, "duration": 48, "velocity": 94}, {"time": 3341, "pitch": 58, "duration": 3, "velocity": 100}, {"time": 3341, "pitch": 63, "duration": 8, "velocity": 92}, {"time": 3347, "pitch": 58, "duration": 3, "velocity": 82}, {"time": 3353, "pitch": 58, "duration": 3, "velocity": 102}, {"time": 3353, "pitch": 63, "duration": 10, "velocity": 111}, {"time": 3353, "pitch": 67, "duration": 9, "velocity": 109}, {"time": 3359, "pitch": 58, "duration": 5, "velocity": 55}, {"time": 3365, "pitch": 58, "duration": 3, "velocity": 84}, {"time": 3365, "pitch": 63, "duration": 8, "velocity": 84}, {"time": 3371, "pitch": 58, "duration": 18, "velocity": 52}, {"time": 3377, "pitch": 63, "duration": 11, "velocity": 100}, {"time": 3377, "pitch": 67, "duration": 12, "velocity": 112}, {"time": 3391, "pitch": 53, "duration": 15, "velocity": 102}, {"time": 3391, "pitch": 65, "duration": 18, "velocity": 71}, {"time": 3393, "pitch": 68, "duration": 16, "velocity": 92}, {"time": 3394, "pitch": 60, "duration": 12, "velocity": 58}, {"time": 3414, "pitch": 46, "duration": 70, "velocity": 53}, {"time": 3416, "pitch": 53, "duration": 68, "velocity": 46}, {"time": 3418, "pitch": 58, "duration": 72, "velocity": 66}, {"time": 3419, "pitch": 62, "duration": 71, "velocity": 37}, {"time": 3421, "pitch": 65, "duration": 70, "velocity": 57}, {"time": 3423, "pitch": 70, "duration": 79, "velocity": 78}, {"time": 3491, "pitch": 51, "duration": 56, "velocity": 87}, {"time": 3496, "pitch": 58, "duration": 38, "velocity": 67}, {"time": 3501, "pitch": 63, "duration": 5, "velocity": 87}, {"time": 3506, "pitch": 65, "duration": 4, "velocity": 105}, {"time": 3511, "pitch": 65, "duration": 1, "velocity": 12}, {"time": 3511, "pitch": 67, "duration": 5, "velocity": 105}, {"time": 3517, "pitch": 70, "duration": 5, "velocity": 84}, {"time": 3518, "pitch": 63, "duration": 4, "velocity": 62}, {"time": 3524, "pitch": 70, "duration": 9, "velocity": 67}, {"time": 3524, "pitch": 63, "duration": 5, "velocity": 43}, {"time": 3532, "pitch": 68, "duration": 7, "velocity": 53}, {"time": 3533, "pitch": 63, "duration": 5, "velocity": 29}, {"time": 3540, "pitch": 65, "duration": 12, "velocity": 94}, {"time": 3551, "pitch": 51, "duration": 45, "velocity": 66}, {"time": 3553, "pitch": 58, "duration": 43, "velocity": 49}, {"time": 3554, "pitch": 63, "duration": 45, "velocity": 39}, {"time": 3555, "pitch": 65, "duration": 44, "velocity": 69}, {"time": 3557, "pitch": 70, "duration": 42, "velocity": 62}], "annotations": [{"time": 31, "annotation": {"number": 64, "value": 127}, "group": "control_change"}, {"time": 76, "annotation": {"number": 64, "value": 0}, "group": "control_change"}, {"time": 79, "annotation": {"number": 64, "value": 127}, "group": "control_change"}, {"time": 101, "annotation": {"number": 64, "value": 0}, "group": "control_change"}, {"time": 102, "annotation": {"number": 64, "value": 127}, "group": "control_change"}, {"time": 124, "annotation": {"number": 64, "value": 0}, "group": "control_change"}, {"time": 127, "annotation": {"number": 64, "value": 127}, "group": "control_change"}, {"time": 149, "annotation": {"number": 64, "value": 0}, "group": "control_change"}, {"time": 152, "annotation": {"number": 64, "value": 127}, "group": "control_change"}, {"time": 174, "annotation": {"number": 64, "value": 0}, "group": "control_change"}, {"time": 180, "annotation": {"number": 64, "value": 127}, "group": "control_change"}, {"time": 197, "annotation": {"number": 64, "value": 0}, "group": "control_change"}, {"time": 200, "annotation": {"number": 64, "value": 127}, "group": "control_change"}, {"time": 222, "annotation": {"number": 64, "value": 0}, "group": "control_change"}, {"time": 241, "annotation": {"number": 64, "value": 127}, "group": "control_change"}, {"time": 269, "annotation": {"number": 64, "value": 0}, "group": "control_change"}, {"time": 272, "annotation": {"number": 64, "value": 127}, "group": "control_change"}, {"time": 317, "annotation": {"number": 64, "value": 0}, "group": "control_change"}, {"time": 322, "annotation": {"number": 64, "value": 127}, "group": "control_change"}, {"time": 365, "annotation": {"number": 64, "value": 0}, "group": "control_change"}, {"time": 370, "annotation": {"number": 64, "value": 127}, "group": "control_change"}, {"time": 413, "annotation": {"number": 64, "value": 0}, "group": "control_change"}, {"time": 419, "annotation": {"number": 64, "value": 127}, "group": "control_change"}, {"time": 462, "annotation": {"number": 64, "value": 0}, "group": "control_change"}, {"time": 467, "annotation": {"number": 64, "value": 127}, "group": "control_change"}, {"time": 509, "annotation": {"number": 64, "value": 0}, "group": "control_change"}, {"time": 512, "annotation": {"number": 64, "value": 127}, "group": "control_change"}, {"time": 521, "annotation": {"number": 64, "value": 0}, "group": "control_change"}, {"time": 523, "annotation": {"number": 64, "value": 127}, "group": "control_change"}, {"time": 533, "annotation": {"number": 64, "value": 0}, "group": "control_change"}, {"time": 535, "annotation": {"number": 64, "value": 127}, "group": "control_change"}, {"time": 556, "annotation": {"number": 64, "value": 0}, "group": "control_change"}, {"time": 562, "annotation": {"number": 64, "value": 127}, "group": "control_change"}, {"time": 581, "annotation": {"number": 64, "value": 0}, "group": "control_change"}, {"time": 583, "annotation": {"number": 64, "value": 127}, "group": "control_change"}, {"time": 605, "annotation": {"number": 64, "value": 0}, "group": "control_change"}, {"time": 608, "annotation": {"number": 64, "value": 127}, "group": "control_change"}, {"time": 629, "annotation": {"number": 64, "value": 0}, "group": "control_change"}, {"time": 632, "annotation": {"number": 64, "value": 127}, "group": "control_change"}, {"time": 652, "annotation": {"number": 64, "value": 0}, "group": "control_change"}, {"time": 656, "annotation": {"number": 64, "value": 127}, "group": "control_change"}, {"time": 701, "annotation": {"number": 64, "value": 0}, "group": "control_change"}, {"time": 706, "annotation": {"number": 64, "value": 127}, "group": "control_change"}, {"time": 749, "annotation": {"number": 64, "value": 0}, "group": "control_change"}, {"time": 754, "annotation": {"number": 64, "value": 127}, "group": "control_change"}, {"time": 797, "annotation": {"number": 64, "value": 0}, "group": "control_change"}, {"time": 803, "annotation": {"number": 64, "value": 127}, "group": "control_change"}, {"time": 846, "annotation": {"number": 64, "value": 0}, "group": "control_change"}, {"time": 851, "annotation": {"number": 64, "value": 127}, "group": "control_change"}, {"time": 893, "annotation": {"number": 64, "value": 0}, "group": "control_change"}, {"time": 896, "annotation": {"number": 64, "value": 127}, "group": "control_change"}, {"time": 905, "annotation": {"number": 64, "value": 0}, "group": "control_change"}, {"time": 907, "annotation": {"number": 64, "value": 127}, "group": "control_change"}, {"time": 917, "annotation": {"number": 64, "value": 0}, "group": "control_change"}, {"time": 919, "annotation": {"number": 64, "value": 127}, "group": "control_change"}, {"time": 940, "annotation": {"number": 64, "value": 0}, "group": "control_change"}, {"time": 946, "annotation": {"number": 64, "value": 127}, "group": "control_change"}, {"time": 965, "annotation": {"number": 64, "value": 0}, "group": "control_change"}, {"time": 967, "annotation": {"number": 64, "value": 127}, "group": "control_change"}, {"time": 989, "annotation": {"number": 64, "value": 0}, "group": "control_change"}, {"time": 992, "annotation": {"number": 64, "value": 127}, "group": "control_change"}, {"time": 1013, "annotation": {"number": 64, "value": 0}, "group": "control_change"}, {"time": 1016, "annotation": {"number": 64, "value": 127}, "group": "control_change"}, {"time": 1036, "annotation": {"number": 64, "value": 0}, "group": "control_change"}, {"time": 1038, "annotation": {"number": 64, "value": 127}, "group": "control_change"}, {"time": 1060, "annotation": {"number": 64, "value": 0}, "group": "control_change"}, {"time": 1064, "annotation": {"number": 64, "value": 127}, "group": "control_change"}, {"time": 1085, "annotation": {"number": 64, "value": 0}, "group": "control_change"}, {"time": 1088, "annotation": {"number": 64, "value": 127}, "group": "control_change"}, {"time": 1109, "annotation": {"number": 64, "value": 0}, "group": "control_change"}, {"time": 1110, "annotation": {"number": 64, "value": 127}, "group": "control_change"}, {"time": 1131, "annotation": {"number": 64, "value": 0}, "group": "control_change"}, {"time": 1136, "annotation": {"number": 64, "value": 127}, "group": "control_change"}, {"time": 1156, "annotation": {"number": 64, "value": 0}, "group": "control_change"}, {"time": 1158, "annotation": {"number": 64, "value": 127}, "group": "control_change"}, {"time": 1179, "annotation": {"number": 64, "value": 0}, "group": "control_change"}, {"time": 1183, "annotation": {"number": 64, "value": 127}, "group": "control_change"}, {"time": 1205, "annotation": {"number": 64, "value": 0}, "group": "control_change"}, {"time": 1210, "annotation": {"number": 64, "value": 127}, "group": "control_change"}, {"time": 1228, "annotation": {"number": 64, "value": 0}, "group": "control_change"}, {"time": 1232, "annotation": {"number": 64, "value": 127}, "group": "control_change"}, {"time": 1251, "annotation": {"number": 64, "value": 0}, "group": "control_change"}, {"time": 1254, "annotation": {"number": 64, "value": 127}, "group": "control_change"}, {"time": 1277, "annotation": {"number": 64, "value": 0}, "group": "control_change"}, {"time": 1282, "annotation": {"number": 64, "value": 127}, "group": "control_change"}, {"time": 1300, "annotation": {"number": 64, "value": 0}, "group": "control_change"}, {"time": 1304, "annotation": {"number": 64, "value": 127}, "group": "control_change"}, {"time": 1324, "annotation": {"number": 64, "value": 0}, "group": "control_change"}, {"time": 1330, "annotation": {"number": 64, "value": 127}, "group": "control_change"}, {"time": 1349, "annotation": {"number": 64, "value": 0}, "group": "control_change"}, {"time": 1352, "annotation": {"number": 64, "value": 127}, "group": "control_change"}, {"time": 1374, "annotation": {"number": 64, "value": 0}, "group": "control_change"}, {"time": 1380, "annotation": {"number": 64, "value": 127}, "group": "control_change"}, {"time": 1398, "annotation": {"number": 64, "value": 0}, "group": "control_change"}, {"time": 1404, "annotation": {"number": 64, "value": 127}, "group": "control_change"}, {"time": 1419, "annotation": {"number": 64, "value": 0}, "group": "control_change"}, {"time": 1422, "annotation": {"number": 64, "value": 127}, "group": "control_change"}, {"time": 1444, "annotation": {"number": 64, "value": 0}, "group": "control_change"}, {"time": 1448, "annotation": {"number": 64, "value": 127}, "group": "control_change"}, {"time": 1469, "annotation": {"number": 64, "value": 0}, "group": "control_change"}, {"time": 1472, "annotation": {"number": 64, "value": 127}, "group": "control_change"}, {"time": 1493, "annotation": {"number": 64, "value": 0}, "group": "control_change"}, {"time": 1494, "annotation": {"number": 64, "value": 127}, "group": "control_change"}, {"time": 1515, "annotation": {"number": 64, "value": 0}, "group": "control_change"}, {"time": 1520, "annotation": {"number": 64, "value": 127}, "group": "control_change"}, {"time": 1540, "annotation": {"number": 64, "value": 0}, "group": "control_change"}, {"time": 1542, "annotation": {"number": 64, "value": 127}, "group": "control_change"}, {"time": 1563, "annotation": {"number": 64, "value": 0}, "group": "control_change"}, {"time": 1567, "annotation": {"number": 64, "value": 127}, "group": "control_change"}, {"time": 1589, "annotation": {"number": 64, "value": 0}, "group": "control_change"}, {"time": 1594, "annotation": {"number": 64, "value": 127}, "group": "control_change"}, {"time": 1612, "annotation": {"number": 64, "value": 0}, "group": "control_change"}, {"time": 1616, "annotation": {"number": 64, "value": 127}, "group": "control_change"}, {"time": 1635, "annotation": {"number": 64, "value": 0}, "group": "control_change"}, {"time": 1638, "annotation": {"number": 64, "value": 127}, "group": "control_change"}, {"time": 1661, "annotation": {"number": 64, "value": 0}, "group": "control_change"}, {"time": 1666, "annotation": {"number": 64, "value": 127}, "group": "control_change"}, {"time": 1684, "annotation": {"number": 64, "value": 0}, "group": "control_change"}, {"time": 1688, "annotation": {"number": 64, "value": 127}, "group": "control_change"}, {"time": 1708, "annotation": {"number": 64, "value": 0}, "group": "control_change"}, {"time": 1714, "annotation": {"number": 64, "value": 127}, "group": "control_change"}, {"time": 1733, "annotation": {"number": 64, "value": 0}, "group": "control_change"}, {"time": 1734, "annotation": {"number": 64, "value": 127}, "group": "control_change"}, {"time": 1755, "annotation": {"number": 64, "value": 0}, "group": "control_change"}, {"time": 1759, "annotation": {"number": 64, "value": 127}, "group": "control_change"}, {"time": 1804, "annotation": {"number": 64, "value": 0}, "group": "control_change"}, {"time": 1816, "annotation": {"number": 64, "value": 127}, "group": "control_change"}, {"time": 1853, "annotation": {"number": 64, "value": 0}, "group": "control_change"}, {"time": 1860, "annotation": {"number": 64, "value": 127}, "group": "control_change"}, {"time": 1901, "annotation": {"number": 64, "value": 0}, "group": "control_change"}, {"time": 1922, "annotation": {"number": 64, "value": 127}, "group": "control_change"}, {"time": 1948, "annotation": {"number": 64, "value": 0}, "group": "control_change"}, {"time": 1952, "annotation": {"number": 64, "value": 127}, "group": "control_change"}, {"time": 1973, "annotation": {"number": 64, "value": 0}, "group": "control_change"}, {"time": 1975, "annotation": {"number": 64, "value": 127}, "group": "control_change"}, {"time": 1995, "annotation": {"number": 64, "value": 0}, "group": "control_change"}, {"time": 1999, "annotation": {"number": 64, "value": 127}, "group": "control_change"}, {"time": 2044, "annotation": {"number": 64, "value": 0}, "group": "control_change"}, {"time": 2047, "annotation": {"number": 64, "value": 127}, "group": "control_change"}, {"time": 2069, "annotation": {"number": 64, "value": 0}, "group": "control_change"}, {"time": 2070, "annotation": {"number": 64, "value": 127}, "group": "control_change"}, {"time": 2092, "annotation": {"number": 64, "value": 0}, "group": "control_change"}, {"time": 2095, "annotation": {"number": 64, "value": 127}, "group": "control_change"}, {"time": 2117, "annotation": {"number": 64, "value": 0}, "group": "control_change"}, {"time": 2120, "annotation": {"number": 64, "value": 127}, "group": "control_change"}, {"time": 2142, "annotation": {"number": 64, "value": 0}, "group": "control_change"}, {"time": 2148, "annotation": {"number": 64, "value": 127}, "group": "control_change"}, {"time": 2165, "annotation": {"number": 64, "value": 0}, "group": "control_change"}, {"time": 2168, "annotation": {"number": 64, "value": 127}, "group": "control_change"}, {"time": 2190, "annotation": {"number": 64, "value": 0}, "group": "control_change"}, {"time": 2209, "annotation": {"number": 64, "value": 127}, "group": "control_change"}, {"time": 2237, "annotation": {"number": 64, "value": 0}, "group": "control_change"}, {"time": 2240, "annotation": {"number": 64, "value": 127}, "group": "control_change"}, {"time": 2285, "annotation": {"number": 64, "value": 0}, "group": "control_change"}, {"time": 2290, "annotation": {"number": 64, "value": 127}, "group": "control_change"}, {"time": 2333, "annotation": {"number": 64, "value": 0}, "group": "control_change"}, {"time": 2338, "annotation": {"number": 64, "value": 127}, "group": "control_change"}, {"time": 2381, "annotation": {"number": 64, "value": 0}, "group": "control_change"}, {"time": 2387, "annotation": {"number": 64, "value": 127}, "group": "control_change"}, {"time": 2430, "annotation": {"number": 64, "value": 0}, "group": "control_change"}, {"time": 2435, "annotation": {"number": 64, "value": 127}, "group": "control_change"}, {"time": 2477, "annotation": {"number": 64, "value": 0}, "group": "control_change"}, {"time": 2480, "annotation": {"number": 64, "value": 127}, "group": "control_change"}, {"time": 2489, "annotation": {"number": 64, "value": 0}, "group": "control_change"}, {"time": 2491, "annotation": {"number": 64, "value": 127}, "group": "control_change"}, {"time": 2501, "annotation": {"number": 64, "value": 0}, "group": "control_change"}, {"time": 2503, "annotation": {"number": 64, "value": 127}, "group": "control_change"}, {"time": 2524, "annotation": {"number": 64, "value": 0}, "group": "control_change"}, {"time": 2530, "annotation": {"number": 64, "value": 127}, "group": "control_change"}, {"time": 2549, "annotation": {"number": 64, "value": 0}, "group": "control_change"}, {"time": 2551, "annotation": {"number": 64, "value": 127}, "group": "control_change"}, {"time": 2573, "annotation": {"number": 64, "value": 0}, "group": "control_change"}, {"time": 2576, "annotation": {"number": 64, "value": 127}, "group": "control_change"}, {"time": 2597, "annotation": {"number": 64, "value": 0}, "group": "control_change"}, {"time": 2600, "annotation": {"number": 64, "value": 127}, "group": "control_change"}, {"time": 2620, "annotation": {"number": 64, "value": 0}, "group": "control_change"}, {"time": 2622, "annotation": {"number": 64, "value": 127}, "group": "control_change"}, {"time": 2644, "annotation": {"number": 64, "value": 0}, "group": "control_change"}, {"time": 2648, "annotation": {"number": 64, "value": 127}, "group": "control_change"}, {"time": 2669, "annotation": {"number": 64, "value": 0}, "group": "control_change"}, {"time": 2672, "annotation": {"number": 64, "value": 127}, "group": "control_change"}, {"time": 2693, "annotation": {"number": 64, "value": 0}, "group": "control_change"}, {"time": 2694, "annotation": {"number": 64, "value": 127}, "group": "control_change"}, {"time": 2715, "annotation": {"number": 64, "value": 0}, "group": "control_change"}, {"time": 2720, "annotation": {"number": 64, "value": 127}, "group": "control_change"}, {"time": 2740, "annotation": {"number": 64, "value": 0}, "group": "control_change"}, {"time": 2742, "annotation": {"number": 64, "value": 127}, "group": "control_change"}, {"time": 2763, "annotation": {"number": 64, "value": 0}, "group": "control_change"}, {"time": 2767, "annotation": {"number": 64, "value": 127}, "group": "control_change"}, {"time": 2789, "annotation": {"number": 64, "value": 0}, "group": "control_change"}, {"time": 2794, "annotation": {"number": 64, "value": 127}, "group": "control_change"}, {"time": 2812, "annotation": {"number": 64, "value": 0}, "group": "control_change"}, {"time": 2816, "annotation": {"number": 64, "value": 127}, "group": "control_change"}, {"time": 2835, "annotation": {"number": 64, "value": 0}, "group": "control_change"}, {"time": 2838, "annotation": {"number": 64, "value": 127}, "group": "control_change"}, {"time": 2861, "annotation": {"number": 64, "value": 0}, "group": "control_change"}, {"time": 2866, "annotation": {"number": 64, "value": 127}, "group": "control_change"}, {"time": 2884, "annotation": {"number": 64, "value": 0}, "group": "control_change"}, {"time": 2888, "annotation": {"number": 64, "value": 127}, "group": "control_change"}, {"time": 2908, "annotation": {"number": 64, "value": 0}, "group": "control_change"}, {"time": 2914, "annotation": {"number": 64, "value": 127}, "group": "control_change"}, {"time": 2933, "annotation": {"number": 64, "value": 0}, "group": "control_change"}, {"time": 2936, "annotation": {"number": 64, "value": 127}, "group": "control_change"}, {"time": 2958, "annotation": {"number": 64, "value": 0}, "group": "control_change"}, {"time": 2964, "annotation": {"number": 64, "value": 127}, "group": "control_change"}, {"time": 2982, "annotation": {"number": 64, "value": 0}, "group": "control_change"}, {"time": 2988, "annotation": {"number": 64, "value": 127}, "group": "control_change"}, {"time": 3003, "annotation": {"number": 64, "value": 0}, "group": "control_change"}, {"time": 3006, "annotation": {"number": 64, "value": 127}, "group": "control_change"}, {"time": 3028, "annotation": {"number": 64, "value": 0}, "group": "control_change"}, {"time": 3032, "annotation": {"number": 64, "value": 127}, "group": "control_change"}, {"time": 3053, "annotation": {"number": 64, "value": 0}, "group": "control_change"}, {"time": 3056, "annotation": {"number": 64, "value": 127}, "group": "control_change"}, {"time": 3077, "annotation": {"number": 64, "value": 0}, "group": "control_change"}, {"time": 3078, "annotation": {"number": 64, "value": 127}, "group": "control_change"}, {"time": 3099, "annotation": {"number": 64, "value": 0}, "group": "control_change"}, {"time": 3104, "annotation": {"number": 64, "value": 127}, "group": "control_change"}, {"time": 3124, "annotation": {"number": 64, "value": 0}, "group": "control_change"}, {"time": 3126, "annotation": {"number": 64, "value": 127}, "group": "control_change"}, {"time": 3147, "annotation": {"number": 64, "value": 0}, "group": "control_change"}, {"time": 3151, "annotation": {"number": 64, "value": 127}, "group": "control_change"}, {"time": 3173, "annotation": {"number": 64, "value": 0}, "group": "control_change"}, {"time": 3178, "annotation": {"number": 64, "value": 127}, "group": "control_change"}, {"time": 3196, "annotation": {"number": 64, "value": 0}, "group": "control_change"}, {"time": 3200, "annotation": {"number": 64, "value": 127}, "group": "control_change"}, {"time": 3219, "annotation": {"number": 64, "value": 0}, "group": "control_change"}, {"time": 3222, "annotation": {"number": 64, "value": 127}, "group": "control_change"}, {"time": 3245, "annotation": {"number": 64, "value": 0}, "group": "control_change"}, {"time": 3250, "annotation": {"number": 64, "value": 127}, "group": "control_change"}, {"time": 3268, "annotation": {"number": 64, "value": 0}, "group": "control_change"}, {"time": 3272, "annotation": {"number": 64, "value": 127}, "group": "control_change"}, {"time": 3292, "annotation": {"number": 64, "value": 0}, "group": "control_change"}, {"time": 3298, "annotation": {"number": 64, "value": 127}, "group": "control_change"}, {"time": 3317, "annotation": {"number": 64, "value": 0}, "group": "control_change"}, {"time": 3318, "annotation": {"number": 64, "value": 127}, "group": "control_change"}, {"time": 3339, "annotation": {"number": 64, "value": 0}, "group": "control_change"}, {"time": 3343, "annotation": {"number": 64, "value": 127}, "group": "control_change"}, {"time": 3388, "annotation": {"number": 64, "value": 0}, "group": "control_change"}, {"time": 3395, "annotation": {"number": 64, "value": 127}, "group": "control_change"}, {"time": 3415, "annotation": {"number": 64, "value": 0}, "group": "control_change"}, {"time": 3419, "annotation": {"number": 64, "value": 127}, "group": "control_change"}, {"time": 3473, "annotation": {"number": 64, "value": 0}, "group": "control_change"}, {"time": 3500, "annotation": {"number": 64, "value": 127}, "group": "control_change"}, {"time": 3554, "annotation": {"number": 64, "value": 0}, "group": "control_change"}]}]}