{"metadata": {"schema_version": "0.2", "title": "None", "source_filename": "143.mid", "source_format": "midi"}, "resolution": 12, "tempos": [{"time": 0, "qpm": 116.00008506672904}], "time_signatures": [{"time": 0, "numerator": 1, "denominator": 4}], "tracks": [{"program": 4, "is_drum": false, "name": "MELODY", "notes": [{"time": 604, "pitch": 59, "duration": 12, "velocity": 90}, {"time": 616, "pitch": 58, "duration": 12, "velocity": 114}, {"time": 628, "pitch": 56, "duration": 6, "velocity": 92}, {"time": 634, "pitch": 56, "duration": 6, "velocity": 92}, {"time": 640, "pitch": 56, "duration": 6, "velocity": 105}, {"time": 646, "pitch": 54, "duration": 6, "velocity": 100}, {"time": 652, "pitch": 56, "duration": 12, "velocity": 105}, {"time": 664, "pitch": 63, "duration": 12, "velocity": 100}, {"time": 676, "pitch": 63, "duration": 24, "velocity": 105}, {"time": 700, "pitch": 59, "duration": 12, "velocity": 112}, {"time": 712, "pitch": 63, "duration": 12, "velocity": 102}, {"time": 724, "pitch": 61, "duration": 12, "velocity": 100}, {"time": 736, "pitch": 61, "duration": 6, "velocity": 97}, {"time": 742, "pitch": 59, "duration": 6, "velocity": 102}, {"time": 748, "pitch": 61, "duration": 12, "velocity": 102}, {"time": 760, "pitch": 59, "duration": 12, "velocity": 105}, {"time": 772, "pitch": 56, "duration": 24, "velocity": 108}, {"time": 796, "pitch": 56, "duration": 12, "velocity": 105}, {"time": 808, "pitch": 54, "duration": 12, "velocity": 108}, {"time": 820, "pitch": 56, "duration": 6, "velocity": 94}, {"time": 826, "pitch": 59, "duration": 6, "velocity": 85}, {"time": 832, "pitch": 59, "duration": 6, "velocity": 99}, {"time": 838, "pitch": 59, "duration": 6, "velocity": 99}, {"time": 844, "pitch": 61, "duration": 12, "velocity": 102}, {"time": 856, "pitch": 63, "duration": 12, "velocity": 105}, {"time": 868, "pitch": 61, "duration": 24, "velocity": 102}, {"time": 892, "pitch": 61, "duration": 12, "velocity": 111}, {"time": 904, "pitch": 63, "duration": 12, "velocity": 105}, {"time": 916, "pitch": 66, "duration": 6, "velocity": 108}, {"time": 922, "pitch": 66, "duration": 6, "velocity": 105}, {"time": 928, "pitch": 66, "duration": 6, "velocity": 102}, {"time": 934, "pitch": 66, "duration": 6, "velocity": 102}, {"time": 940, "pitch": 63, "duration": 12, "velocity": 105}, {"time": 952, "pitch": 61, "duration": 12, "velocity": 108}, {"time": 964, "pitch": 63, "duration": 24, "velocity": 108}, {"time": 988, "pitch": 59, "duration": 12, "velocity": 90}, {"time": 1000, "pitch": 58, "duration": 12, "velocity": 114}, {"time": 1012, "pitch": 56, "duration": 6, "velocity": 92}, {"time": 1018, "pitch": 56, "duration": 6, "velocity": 92}, {"time": 1024, "pitch": 56, "duration": 6, "velocity": 105}, {"time": 1030, "pitch": 54, "duration": 6, "velocity": 100}, {"time": 1036, "pitch": 56, "duration": 12, "velocity": 105}, {"time": 1048, "pitch": 63, "duration": 12, "velocity": 100}, {"time": 1060, "pitch": 63, "duration": 24, "velocity": 105}, {"time": 1084, "pitch": 59, "duration": 12, "velocity": 112}, {"time": 1096, "pitch": 63, "duration": 12, "velocity": 102}, {"time": 1108, "pitch": 61, "duration": 6, "velocity": 100}, {"time": 1114, "pitch": 61, "duration": 6, "velocity": 100}, {"time": 1120, "pitch": 61, "duration": 6, "velocity": 97}, {"time": 1126, "pitch": 59, "duration": 6, "velocity": 102}, {"time": 1132, "pitch": 58, "duration": 12, "velocity": 102}, {"time": 1144, "pitch": 59, "duration": 12, "velocity": 105}, {"time": 1156, "pitch": 56, "duration": 24, "velocity": 108}, {"time": 1180, "pitch": 56, "duration": 12, "velocity": 105}, {"time": 1192, "pitch": 54, "duration": 12, "velocity": 108}, {"time": 1204, "pitch": 56, "duration": 6, "velocity": 94}, {"time": 1210, "pitch": 59, "duration": 6, "velocity": 85}, {"time": 1216, "pitch": 59, "duration": 6, "velocity": 99}, {"time": 1222, "pitch": 59, "duration": 6, "velocity": 99}, {"time": 1228, "pitch": 66, "duration": 12, "velocity": 102}, {"time": 1240, "pitch": 63, "duration": 12, "velocity": 105}, {"time": 1252, "pitch": 61, "duration": 24, "velocity": 102}, {"time": 1276, "pitch": 61, "duration": 12, "velocity": 111}, {"time": 1288, "pitch": 63, "duration": 12, "velocity": 105}, {"time": 1300, "pitch": 66, "duration": 12, "velocity": 108}, {"time": 1312, "pitch": 66, "duration": 24, "velocity": 111}, {"time": 1336, "pitch": 63, "duration": 12, "velocity": 100}, {"time": 1348, "pitch": 61, "duration": 18, "velocity": 108}, {"time": 1366, "pitch": 59, "duration": 6, "velocity": 105}, {"time": 1372, "pitch": 58, "duration": 18, "velocity": 117}, {"time": 1390, "pitch": 59, "duration": 6, "velocity": 99}, {"time": 1396, "pitch": 56, "duration": 72, "velocity": 108}, {"time": 1468, "pitch": 63, "duration": 12, "velocity": 114}, {"time": 1480, "pitch": 66, "duration": 12, "velocity": 117}, {"time": 1492, "pitch": 68, "duration": 6, "velocity": 105}, {"time": 1498, "pitch": 68, "duration": 6, "velocity": 105}, {"time": 1504, "pitch": 68, "duration": 6, "velocity": 111}, {"time": 1510, "pitch": 66, "duration": 6, "velocity": 111}, {"time": 1516, "pitch": 68, "duration": 12, "velocity": 114}, {"time": 1528, "pitch": 71, "duration": 12, "velocity": 105}, {"time": 1540, "pitch": 70, "duration": 24, "velocity": 111}, {"time": 1564, "pitch": 70, "duration": 12, "velocity": 108}, {"time": 1576, "pitch": 68, "duration": 12, "velocity": 111}, {"time": 1588, "pitch": 66, "duration": 6, "velocity": 100}, {"time": 1594, "pitch": 66, "duration": 6, "velocity": 105}, {"time": 1600, "pitch": 66, "duration": 6, "velocity": 111}, {"time": 1606, "pitch": 63, "duration": 6, "velocity": 114}, {"time": 1612, "pitch": 66, "duration": 12, "velocity": 117}, {"time": 1624, "pitch": 70, "duration": 12, "velocity": 108}, {"time": 1636, "pitch": 68, "duration": 24, "velocity": 108}, {"time": 1660, "pitch": 63, "duration": 12, "velocity": 114}, {"time": 1672, "pitch": 66, "duration": 12, "velocity": 108}, {"time": 1684, "pitch": 68, "duration": 6, "velocity": 97}, {"time": 1690, "pitch": 68, "duration": 6, "velocity": 102}, {"time": 1696, "pitch": 68, "duration": 6, "velocity": 108}, {"time": 1702, "pitch": 66, "duration": 6, "velocity": 108}, {"time": 1708, "pitch": 63, "duration": 12, "velocity": 111}, {"time": 1720, "pitch": 59, "duration": 6, "velocity": 102}, {"time": 1726, "pitch": 63, "duration": 6, "velocity": 97}, {"time": 1732, "pitch": 61, "duration": 24, "velocity": 84}, {"time": 1756, "pitch": 61, "duration": 12, "velocity": 111}, {"time": 1768, "pitch": 63, "duration": 12, "velocity": 97}, {"time": 1780, "pitch": 66, "duration": 6, "velocity": 100}, {"time": 1786, "pitch": 66, "duration": 6, "velocity": 102}, {"time": 1792, "pitch": 66, "duration": 6, "velocity": 102}, {"time": 1798, "pitch": 63, "duration": 6, "velocity": 100}, {"time": 1804, "pitch": 66, "duration": 6, "velocity": 105}, {"time": 1810, "pitch": 68, "duration": 6, "velocity": 105}, {"time": 1816, "pitch": 66, "duration": 12, "velocity": 105}, {"time": 1828, "pitch": 63, "duration": 24, "velocity": 111}, {"time": 1852, "pitch": 63, "duration": 12, "velocity": 105}, {"time": 1864, "pitch": 66, "duration": 12, "velocity": 105}, {"time": 1876, "pitch": 68, "duration": 6, "velocity": 105}, {"time": 1882, "pitch": 68, "duration": 6, "velocity": 94}, {"time": 1888, "pitch": 68, "duration": 6, "velocity": 108}, {"time": 1894, "pitch": 66, "duration": 6, "velocity": 111}, {"time": 1900, "pitch": 68, "duration": 12, "velocity": 114}, {"time": 1912, "pitch": 71, "duration": 12, "velocity": 105}, {"time": 1924, "pitch": 70, "duration": 24, "velocity": 108}, {"time": 1948, "pitch": 70, "duration": 12, "velocity": 111}, {"time": 1960, "pitch": 68, "duration": 12, "velocity": 108}, {"time": 1972, "pitch": 66, "duration": 6, "velocity": 97}, {"time": 1978, "pitch": 66, "duration": 6, "velocity": 97}, {"time": 1984, "pitch": 66, "duration": 6, "velocity": 105}, {"time": 1990, "pitch": 63, "duration": 6, "velocity": 105}, {"time": 1996, "pitch": 66, "duration": 6, "velocity": 108}, {"time": 2002, "pitch": 68, "duration": 6, "velocity": 92}, {"time": 2008, "pitch": 70, "duration": 12, "velocity": 102}, {"time": 2020, "pitch": 68, "duration": 24, "velocity": 111}, {"time": 2044, "pitch": 63, "duration": 12, "velocity": 105}, {"time": 2056, "pitch": 66, "duration": 12, "velocity": 111}, {"time": 2068, "pitch": 68, "duration": 6, "velocity": 102}, {"time": 2074, "pitch": 68, "duration": 6, "velocity": 100}, {"time": 2080, "pitch": 68, "duration": 6, "velocity": 97}, {"time": 2086, "pitch": 66, "duration": 6, "velocity": 111}, {"time": 2092, "pitch": 63, "duration": 12, "velocity": 108}, {"time": 2104, "pitch": 59, "duration": 6, "velocity": 102}, {"time": 2110, "pitch": 63, "duration": 6, "velocity": 102}, {"time": 2116, "pitch": 61, "duration": 24, "velocity": 108}, {"time": 2140, "pitch": 61, "duration": 12, "velocity": 114}, {"time": 2152, "pitch": 63, "duration": 12, "velocity": 102}, {"time": 2164, "pitch": 66, "duration": 12, "velocity": 97}, {"time": 2176, "pitch": 66, "duration": 24, "velocity": 100}, {"time": 2200, "pitch": 63, "duration": 12, "velocity": 108}, {"time": 2212, "pitch": 66, "duration": 18, "velocity": 92}, {"time": 2230, "pitch": 63, "duration": 6, "velocity": 111}, {"time": 2236, "pitch": 66, "duration": 6, "velocity": 102}, {"time": 2242, "pitch": 68, "duration": 12, "velocity": 111}, {"time": 2254, "pitch": 66, "duration": 6, "velocity": 100}, {"time": 2260, "pitch": 68, "duration": 68, "velocity": 111}, {"time": 2716, "pitch": 59, "duration": 12, "velocity": 90}, {"time": 2728, "pitch": 58, "duration": 12, "velocity": 114}, {"time": 2740, "pitch": 56, "duration": 6, "velocity": 92}, {"time": 2746, "pitch": 56, "duration": 6, "velocity": 92}, {"time": 2752, "pitch": 56, "duration": 6, "velocity": 105}, {"time": 2758, "pitch": 54, "duration": 6, "velocity": 100}, {"time": 2764, "pitch": 56, "duration": 12, "velocity": 105}, {"time": 2776, "pitch": 63, "duration": 12, "velocity": 100}, {"time": 2788, "pitch": 63, "duration": 24, "velocity": 105}, {"time": 2812, "pitch": 59, "duration": 12, "velocity": 112}, {"time": 2824, "pitch": 63, "duration": 12, "velocity": 102}, {"time": 2836, "pitch": 61, "duration": 12, "velocity": 100}, {"time": 2848, "pitch": 61, "duration": 6, "velocity": 97}, {"time": 2854, "pitch": 59, "duration": 6, "velocity": 102}, {"time": 2860, "pitch": 61, "duration": 12, "velocity": 102}, {"time": 2872, "pitch": 59, "duration": 12, "velocity": 105}, {"time": 2884, "pitch": 56, "duration": 24, "velocity": 108}, {"time": 2908, "pitch": 56, "duration": 12, "velocity": 105}, {"time": 2920, "pitch": 54, "duration": 12, "velocity": 108}, {"time": 2932, "pitch": 56, "duration": 6, "velocity": 94}, {"time": 2938, "pitch": 59, "duration": 6, "velocity": 85}, {"time": 2944, "pitch": 59, "duration": 6, "velocity": 99}, {"time": 2950, "pitch": 59, "duration": 6, "velocity": 99}, {"time": 2956, "pitch": 61, "duration": 12, "velocity": 102}, {"time": 2968, "pitch": 63, "duration": 12, "velocity": 105}, {"time": 2980, "pitch": 61, "duration": 24, "velocity": 102}, {"time": 3004, "pitch": 61, "duration": 12, "velocity": 111}, {"time": 3016, "pitch": 63, "duration": 12, "velocity": 105}, {"time": 3028, "pitch": 66, "duration": 6, "velocity": 108}, {"time": 3034, "pitch": 66, "duration": 6, "velocity": 105}, {"time": 3040, "pitch": 66, "duration": 6, "velocity": 102}, {"time": 3046, "pitch": 66, "duration": 6, "velocity": 102}, {"time": 3052, "pitch": 63, "duration": 12, "velocity": 105}, {"time": 3064, "pitch": 61, "duration": 12, "velocity": 108}, {"time": 3076, "pitch": 63, "duration": 24, "velocity": 108}, {"time": 3100, "pitch": 59, "duration": 12, "velocity": 90}, {"time": 3112, "pitch": 58, "duration": 12, "velocity": 114}, {"time": 3124, "pitch": 56, "duration": 6, "velocity": 92}, {"time": 3130, "pitch": 56, "duration": 6, "velocity": 92}, {"time": 3136, "pitch": 56, "duration": 6, "velocity": 105}, {"time": 3142, "pitch": 54, "duration": 6, "velocity": 100}, {"time": 3148, "pitch": 56, "duration": 12, "velocity": 105}, {"time": 3160, "pitch": 63, "duration": 12, "velocity": 100}, {"time": 3172, "pitch": 63, "duration": 24, "velocity": 105}, {"time": 3196, "pitch": 59, "duration": 12, "velocity": 112}, {"time": 3208, "pitch": 63, "duration": 12, "velocity": 102}, {"time": 3220, "pitch": 61, "duration": 6, "velocity": 100}, {"time": 3226, "pitch": 61, "duration": 6, "velocity": 100}, {"time": 3232, "pitch": 61, "duration": 6, "velocity": 97}, {"time": 3238, "pitch": 59, "duration": 6, "velocity": 102}, {"time": 3244, "pitch": 58, "duration": 12, "velocity": 102}, {"time": 3256, "pitch": 59, "duration": 12, "velocity": 105}, {"time": 3268, "pitch": 56, "duration": 24, "velocity": 108}, {"time": 3292, "pitch": 56, "duration": 12, "velocity": 105}, {"time": 3304, "pitch": 54, "duration": 12, "velocity": 108}, {"time": 3316, "pitch": 56, "duration": 6, "velocity": 94}, {"time": 3322, "pitch": 59, "duration": 6, "velocity": 85}, {"time": 3328, "pitch": 59, "duration": 6, "velocity": 99}, {"time": 3334, "pitch": 59, "duration": 6, "velocity": 99}, {"time": 3340, "pitch": 66, "duration": 12, "velocity": 102}, {"time": 3352, "pitch": 63, "duration": 12, "velocity": 105}, {"time": 3364, "pitch": 61, "duration": 24, "velocity": 102}, {"time": 3388, "pitch": 61, "duration": 12, "velocity": 111}, {"time": 3400, "pitch": 63, "duration": 12, "velocity": 105}, {"time": 3412, "pitch": 66, "duration": 12, "velocity": 108}, {"time": 3424, "pitch": 66, "duration": 24, "velocity": 111}, {"time": 3448, "pitch": 63, "duration": 12, "velocity": 100}, {"time": 3460, "pitch": 61, "duration": 18, "velocity": 108}, {"time": 3478, "pitch": 59, "duration": 6, "velocity": 105}, {"time": 3484, "pitch": 58, "duration": 18, "velocity": 117}, {"time": 3502, "pitch": 59, "duration": 6, "velocity": 99}, {"time": 3508, "pitch": 56, "duration": 72, "velocity": 108}, {"time": 3580, "pitch": 63, "duration": 12, "velocity": 114}, {"time": 3592, "pitch": 66, "duration": 12, "velocity": 117}, {"time": 3604, "pitch": 68, "duration": 6, "velocity": 105}, {"time": 3610, "pitch": 68, "duration": 6, "velocity": 105}, {"time": 3616, "pitch": 68, "duration": 6, "velocity": 111}, {"time": 3622, "pitch": 66, "duration": 6, "velocity": 111}, {"time": 3628, "pitch": 68, "duration": 12, "velocity": 114}, {"time": 3640, "pitch": 71, "duration": 12, "velocity": 105}, {"time": 3652, "pitch": 70, "duration": 24, "velocity": 111}, {"time": 3676, "pitch": 70, "duration": 12, "velocity": 108}, {"time": 3688, "pitch": 68, "duration": 12, "velocity": 111}, {"time": 3700, "pitch": 66, "duration": 6, "velocity": 100}, {"time": 3706, "pitch": 66, "duration": 6, "velocity": 105}, {"time": 3712, "pitch": 66, "duration": 6, "velocity": 111}, {"time": 3718, "pitch": 63, "duration": 6, "velocity": 114}, {"time": 3724, "pitch": 66, "duration": 12, "velocity": 117}, {"time": 3736, "pitch": 70, "duration": 12, "velocity": 108}, {"time": 3748, "pitch": 68, "duration": 24, "velocity": 108}, {"time": 3772, "pitch": 63, "duration": 12, "velocity": 114}, {"time": 3784, "pitch": 66, "duration": 12, "velocity": 108}, {"time": 3796, "pitch": 68, "duration": 6, "velocity": 97}, {"time": 3802, "pitch": 68, "duration": 6, "velocity": 102}, {"time": 3808, "pitch": 68, "duration": 6, "velocity": 108}, {"time": 3814, "pitch": 66, "duration": 6, "velocity": 108}, {"time": 3820, "pitch": 63, "duration": 12, "velocity": 111}, {"time": 3832, "pitch": 59, "duration": 6, "velocity": 102}, {"time": 3838, "pitch": 63, "duration": 6, "velocity": 97}, {"time": 3844, "pitch": 61, "duration": 24, "velocity": 84}, {"time": 3868, "pitch": 61, "duration": 12, "velocity": 111}, {"time": 3880, "pitch": 63, "duration": 12, "velocity": 97}, {"time": 3892, "pitch": 66, "duration": 6, "velocity": 100}, {"time": 3898, "pitch": 66, "duration": 6, "velocity": 102}, {"time": 3904, "pitch": 66, "duration": 6, "velocity": 102}, {"time": 3910, "pitch": 63, "duration": 6, "velocity": 100}, {"time": 3916, "pitch": 66, "duration": 6, "velocity": 105}, {"time": 3922, "pitch": 68, "duration": 6, "velocity": 105}, {"time": 3928, "pitch": 66, "duration": 12, "velocity": 105}, {"time": 3940, "pitch": 63, "duration": 24, "velocity": 111}, {"time": 3964, "pitch": 63, "duration": 12, "velocity": 105}, {"time": 3976, "pitch": 66, "duration": 12, "velocity": 105}, {"time": 3988, "pitch": 68, "duration": 6, "velocity": 105}, {"time": 3994, "pitch": 68, "duration": 6, "velocity": 94}, {"time": 4000, "pitch": 68, "duration": 6, "velocity": 108}, {"time": 4006, "pitch": 66, "duration": 6, "velocity": 111}, {"time": 4012, "pitch": 68, "duration": 12, "velocity": 114}, {"time": 4024, "pitch": 71, "duration": 12, "velocity": 105}, {"time": 4036, "pitch": 70, "duration": 24, "velocity": 108}, {"time": 4060, "pitch": 70, "duration": 12, "velocity": 111}, {"time": 4072, "pitch": 68, "duration": 12, "velocity": 108}, {"time": 4084, "pitch": 66, "duration": 6, "velocity": 97}, {"time": 4090, "pitch": 66, "duration": 6, "velocity": 97}, {"time": 4096, "pitch": 66, "duration": 6, "velocity": 105}, {"time": 4102, "pitch": 63, "duration": 6, "velocity": 105}, {"time": 4108, "pitch": 66, "duration": 6, "velocity": 108}, {"time": 4114, "pitch": 68, "duration": 6, "velocity": 92}, {"time": 4120, "pitch": 70, "duration": 12, "velocity": 102}, {"time": 4132, "pitch": 68, "duration": 24, "velocity": 111}, {"time": 4156, "pitch": 63, "duration": 12, "velocity": 105}, {"time": 4168, "pitch": 66, "duration": 12, "velocity": 111}, {"time": 4180, "pitch": 68, "duration": 6, "velocity": 102}, {"time": 4186, "pitch": 68, "duration": 6, "velocity": 100}, {"time": 4192, "pitch": 68, "duration": 6, "velocity": 97}, {"time": 4198, "pitch": 66, "duration": 6, "velocity": 111}, {"time": 4204, "pitch": 63, "duration": 12, "velocity": 108}, {"time": 4216, "pitch": 59, "duration": 6, "velocity": 102}, {"time": 4222, "pitch": 63, "duration": 6, "velocity": 102}, {"time": 4228, "pitch": 61, "duration": 24, "velocity": 108}, {"time": 4252, "pitch": 61, "duration": 12, "velocity": 114}, {"time": 4264, "pitch": 63, "duration": 12, "velocity": 102}, {"time": 4276, "pitch": 66, "duration": 12, "velocity": 97}, {"time": 4288, "pitch": 66, "duration": 24, "velocity": 100}, {"time": 4312, "pitch": 63, "duration": 12, "velocity": 108}, {"time": 4324, "pitch": 66, "duration": 18, "velocity": 92}, {"time": 4342, "pitch": 63, "duration": 6, "velocity": 111}, {"time": 4348, "pitch": 66, "duration": 6, "velocity": 102}, {"time": 4354, "pitch": 68, "duration": 12, "velocity": 111}, {"time": 4366, "pitch": 66, "duration": 6, "velocity": 100}, {"time": 4372, "pitch": 68, "duration": 72, "velocity": 111}, {"time": 4444, "pitch": 63, "duration": 12, "velocity": 114}, {"time": 4456, "pitch": 66, "duration": 12, "velocity": 117}, {"time": 4468, "pitch": 68, "duration": 6, "velocity": 105}, {"time": 4474, "pitch": 68, "duration": 6, "velocity": 105}, {"time": 4480, "pitch": 68, "duration": 6, "velocity": 111}, {"time": 4486, "pitch": 66, "duration": 6, "velocity": 111}, {"time": 4492, "pitch": 68, "duration": 12, "velocity": 114}, {"time": 4504, "pitch": 71, "duration": 12, "velocity": 105}, {"time": 4516, "pitch": 70, "duration": 24, "velocity": 111}, {"time": 4540, "pitch": 70, "duration": 12, "velocity": 108}, {"time": 4552, "pitch": 68, "duration": 12, "velocity": 111}, {"time": 4564, "pitch": 66, "duration": 6, "velocity": 100}, {"time": 4570, "pitch": 66, "duration": 6, "velocity": 105}, {"time": 4576, "pitch": 66, "duration": 6, "velocity": 111}, {"time": 4582, "pitch": 63, "duration": 6, "velocity": 114}, {"time": 4588, "pitch": 66, "duration": 12, "velocity": 117}, {"time": 4600, "pitch": 70, "duration": 12, "velocity": 108}, {"time": 4612, "pitch": 68, "duration": 24, "velocity": 108}, {"time": 4636, "pitch": 63, "duration": 12, "velocity": 114}, {"time": 4648, "pitch": 66, "duration": 12, "velocity": 108}, {"time": 4660, "pitch": 68, "duration": 6, "velocity": 97}, {"time": 4666, "pitch": 68, "duration": 6, "velocity": 102}, {"time": 4672, "pitch": 68, "duration": 6, "velocity": 108}, {"time": 4678, "pitch": 66, "duration": 6, "velocity": 108}, {"time": 4684, "pitch": 63, "duration": 12, "velocity": 111}, {"time": 4696, "pitch": 59, "duration": 6, "velocity": 102}, {"time": 4702, "pitch": 63, "duration": 6, "velocity": 97}, {"time": 4708, "pitch": 61, "duration": 24, "velocity": 84}, {"time": 4732, "pitch": 61, "duration": 12, "velocity": 111}, {"time": 4744, "pitch": 63, "duration": 12, "velocity": 97}, {"time": 4756, "pitch": 66, "duration": 6, "velocity": 100}, {"time": 4762, "pitch": 66, "duration": 6, "velocity": 102}, {"time": 4768, "pitch": 66, "duration": 6, "velocity": 102}, {"time": 4774, "pitch": 63, "duration": 6, "velocity": 100}, {"time": 4780, "pitch": 66, "duration": 6, "velocity": 105}, {"time": 4786, "pitch": 68, "duration": 6, "velocity": 105}, {"time": 4792, "pitch": 66, "duration": 12, "velocity": 105}, {"time": 4804, "pitch": 63, "duration": 24, "velocity": 111}, {"time": 4828, "pitch": 63, "duration": 12, "velocity": 105}, {"time": 4840, "pitch": 66, "duration": 12, "velocity": 105}, {"time": 4852, "pitch": 68, "duration": 6, "velocity": 105}, {"time": 4858, "pitch": 68, "duration": 6, "velocity": 94}, {"time": 4864, "pitch": 68, "duration": 6, "velocity": 108}, {"time": 4870, "pitch": 66, "duration": 6, "velocity": 111}, {"time": 4876, "pitch": 68, "duration": 12, "velocity": 114}, {"time": 4888, "pitch": 71, "duration": 12, "velocity": 105}, {"time": 4900, "pitch": 70, "duration": 24, "velocity": 108}, {"time": 4924, "pitch": 70, "duration": 12, "velocity": 111}, {"time": 4936, "pitch": 68, "duration": 12, "velocity": 108}, {"time": 4948, "pitch": 66, "duration": 6, "velocity": 97}, {"time": 4954, "pitch": 66, "duration": 6, "velocity": 97}, {"time": 4960, "pitch": 66, "duration": 6, "velocity": 105}, {"time": 4966, "pitch": 63, "duration": 6, "velocity": 105}, {"time": 4972, "pitch": 66, "duration": 6, "velocity": 108}, {"time": 4978, "pitch": 68, "duration": 6, "velocity": 92}, {"time": 4984, "pitch": 70, "duration": 12, "velocity": 102}, {"time": 4996, "pitch": 68, "duration": 24, "velocity": 111}, {"time": 5020, "pitch": 63, "duration": 12, "velocity": 105}, {"time": 5032, "pitch": 66, "duration": 12, "velocity": 111}, {"time": 5044, "pitch": 68, "duration": 6, "velocity": 102}, {"time": 5050, "pitch": 68, "duration": 6, "velocity": 100}, {"time": 5056, "pitch": 68, "duration": 6, "velocity": 97}, {"time": 5062, "pitch": 66, "duration": 6, "velocity": 111}, {"time": 5068, "pitch": 63, "duration": 12, "velocity": 108}, {"time": 5080, "pitch": 59, "duration": 6, "velocity": 102}, {"time": 5086, "pitch": 63, "duration": 6, "velocity": 102}, {"time": 5092, "pitch": 61, "duration": 24, "velocity": 108}, {"time": 5116, "pitch": 61, "duration": 12, "velocity": 114}, {"time": 5128, "pitch": 63, "duration": 12, "velocity": 102}, {"time": 5140, "pitch": 66, "duration": 12, "velocity": 97}, {"time": 5152, "pitch": 66, "duration": 24, "velocity": 100}, {"time": 5176, "pitch": 63, "duration": 12, "velocity": 108}, {"time": 5188, "pitch": 66, "duration": 18, "velocity": 92}, {"time": 5206, "pitch": 63, "duration": 6, "velocity": 111}, {"time": 5212, "pitch": 66, "duration": 6, "velocity": 102}, {"time": 5218, "pitch": 68, "duration": 12, "velocity": 111}, {"time": 5230, "pitch": 66, "duration": 6, "velocity": 100}, {"time": 5236, "pitch": 68, "duration": 68, "velocity": 111}]}, {"program": 0, "is_drum": false, "name": "PIANO", "notes": [{"time": 52, "pitch": 32, "duration": 5, "velocity": 100}, {"time": 52, "pitch": 44, "duration": 5, "velocity": 100}, {"time": 52, "pitch": 56, "duration": 5, "velocity": 84}, {"time": 52, "pitch": 59, "duration": 4, "velocity": 99}, {"time": 52, "pitch": 63, "duration": 6, "velocity": 94}, {"time": 70, "pitch": 30, "duration": 3, "velocity": 92}, {"time": 70, "pitch": 42, "duration": 3, "velocity": 92}, {"time": 70, "pitch": 54, "duration": 2, "velocity": 73}, {"time": 70, "pitch": 58, "duration": 4, "velocity": 92}, {"time": 76, "pitch": 32, "duration": 5, "velocity": 100}, {"time": 76, "pitch": 44, "duration": 5, "velocity": 100}, {"time": 76, "pitch": 56, "duration": 5, "velocity": 69}, {"time": 76, "pitch": 59, "duration": 5, "velocity": 72}, {"time": 76, "pitch": 63, "duration": 2, "velocity": 2}, {"time": 100, "pitch": 32, "duration": 5, "velocity": 97}, {"time": 100, "pitch": 44, "duration": 5, "velocity": 97}, {"time": 100, "pitch": 56, "duration": 4, "velocity": 87}, {"time": 100, "pitch": 59, "duration": 4, "velocity": 102}, {"time": 100, "pitch": 63, "duration": 5, "velocity": 94}, {"time": 118, "pitch": 30, "duration": 3, "velocity": 94}, {"time": 118, "pitch": 42, "duration": 3, "velocity": 94}, {"time": 118, "pitch": 54, "duration": 3, "velocity": 66}, {"time": 118, "pitch": 58, "duration": 4, "velocity": 78}, {"time": 124, "pitch": 32, "duration": 7, "velocity": 105}, {"time": 124, "pitch": 44, "duration": 7, "velocity": 105}, {"time": 124, "pitch": 56, "duration": 6, "velocity": 76}, {"time": 124, "pitch": 59, "duration": 6, "velocity": 90}, {"time": 124, "pitch": 63, "duration": 6, "velocity": 89}, {"time": 136, "pitch": 30, "duration": 11, "velocity": 92}, {"time": 136, "pitch": 44, "duration": 11, "velocity": 92}, {"time": 136, "pitch": 56, "duration": 11, "velocity": 84}, {"time": 136, "pitch": 66, "duration": 11, "velocity": 100}, {"time": 148, "pitch": 39, "duration": 5, "velocity": 100}, {"time": 148, "pitch": 51, "duration": 5, "velocity": 100}, {"time": 148, "pitch": 63, "duration": 5, "velocity": 89}, {"time": 148, "pitch": 66, "duration": 5, "velocity": 94}, {"time": 166, "pitch": 37, "duration": 3, "velocity": 97}, {"time": 166, "pitch": 49, "duration": 3, "velocity": 97}, {"time": 166, "pitch": 61, "duration": 3, "velocity": 84}, {"time": 166, "pitch": 66, "duration": 3, "velocity": 80}, {"time": 172, "pitch": 39, "duration": 5, "velocity": 97}, {"time": 172, "pitch": 51, "duration": 5, "velocity": 97}, {"time": 172, "pitch": 63, "duration": 4, "velocity": 84}, {"time": 172, "pitch": 66, "duration": 4, "velocity": 94}, {"time": 196, "pitch": 39, "duration": 6, "velocity": 100}, {"time": 196, "pitch": 51, "duration": 6, "velocity": 100}, {"time": 196, "pitch": 63, "duration": 5, "velocity": 94}, {"time": 196, "pitch": 66, "duration": 5, "velocity": 92}, {"time": 214, "pitch": 37, "duration": 3, "velocity": 92}, {"time": 214, "pitch": 49, "duration": 3, "velocity": 92}, {"time": 214, "pitch": 61, "duration": 3, "velocity": 84}, {"time": 214, "pitch": 66, "duration": 3, "velocity": 82}, {"time": 220, "pitch": 39, "duration": 9, "velocity": 105}, {"time": 220, "pitch": 51, "duration": 9, "velocity": 105}, {"time": 220, "pitch": 63, "duration": 8, "velocity": 89}, {"time": 220, "pitch": 66, "duration": 8, "velocity": 97}, {"time": 232, "pitch": 42, "duration": 11, "velocity": 108}, {"time": 232, "pitch": 54, "duration": 11, "velocity": 108}, {"time": 232, "pitch": 63, "duration": 10, "velocity": 84}, {"time": 232, "pitch": 66, "duration": 10, "velocity": 92}, {"time": 232, "pitch": 71, "duration": 11, "velocity": 87}, {"time": 244, "pitch": 32, "duration": 15, "velocity": 117}, {"time": 244, "pitch": 44, "duration": 15, "velocity": 117}, {"time": 256, "pitch": 51, "duration": 11, "velocity": 100}, {"time": 256, "pitch": 56, "duration": 11, "velocity": 111}, {"time": 256, "pitch": 59, "duration": 12, "velocity": 105}, {"time": 262, "pitch": 30, "duration": 4, "velocity": 111}, {"time": 262, "pitch": 42, "duration": 4, "velocity": 111}, {"time": 268, "pitch": 32, "duration": 20, "velocity": 117}, {"time": 268, "pitch": 44, "duration": 20, "velocity": 117}, {"time": 280, "pitch": 51, "duration": 11, "velocity": 92}, {"time": 280, "pitch": 56, "duration": 10, "velocity": 111}, {"time": 280, "pitch": 59, "duration": 11, "velocity": 99}, {"time": 292, "pitch": 32, "duration": 14, "velocity": 114}, {"time": 292, "pitch": 44, "duration": 14, "velocity": 114}, {"time": 304, "pitch": 51, "duration": 10, "velocity": 94}, {"time": 304, "pitch": 56, "duration": 9, "velocity": 111}, {"time": 304, "pitch": 59, "duration": 10, "velocity": 102}, {"time": 310, "pitch": 30, "duration": 3, "velocity": 114}, {"time": 310, "pitch": 42, "duration": 3, "velocity": 114}, {"time": 316, "pitch": 32, "duration": 12, "velocity": 114}, {"time": 316, "pitch": 44, "duration": 12, "velocity": 114}, {"time": 328, "pitch": 30, "duration": 9, "velocity": 114}, {"time": 328, "pitch": 42, "duration": 9, "velocity": 114}, {"time": 328, "pitch": 51, "duration": 11, "velocity": 89}, {"time": 328, "pitch": 56, "duration": 10, "velocity": 97}, {"time": 328, "pitch": 59, "duration": 10, "velocity": 93}, {"time": 340, "pitch": 27, "duration": 14, "velocity": 111}, {"time": 340, "pitch": 39, "duration": 14, "velocity": 111}, {"time": 352, "pitch": 51, "duration": 20, "velocity": 94}, {"time": 352, "pitch": 54, "duration": 20, "velocity": 105}, {"time": 352, "pitch": 58, "duration": 21, "velocity": 105}, {"time": 358, "pitch": 25, "duration": 3, "velocity": 105}, {"time": 358, "pitch": 37, "duration": 3, "velocity": 105}, {"time": 364, "pitch": 27, "duration": 20, "velocity": 97}, {"time": 364, "pitch": 39, "duration": 20, "velocity": 97}, {"time": 376, "pitch": 51, "duration": 13, "velocity": 94}, {"time": 376, "pitch": 54, "duration": 13, "velocity": 105}, {"time": 376, "pitch": 58, "duration": 12, "velocity": 105}, {"time": 388, "pitch": 27, "duration": 14, "velocity": 108}, {"time": 388, "pitch": 39, "duration": 14, "velocity": 108}, {"time": 400, "pitch": 51, "duration": 13, "velocity": 100}, {"time": 400, "pitch": 54, "duration": 14, "velocity": 102}, {"time": 400, "pitch": 58, "duration": 14, "velocity": 100}, {"time": 406, "pitch": 25, "duration": 4, "velocity": 100}, {"time": 406, "pitch": 37, "duration": 4, "velocity": 100}, {"time": 412, "pitch": 27, "duration": 16, "velocity": 114}, {"time": 412, "pitch": 39, "duration": 16, "velocity": 114}, {"time": 424, "pitch": 51, "duration": 7, "velocity": 89}, {"time": 424, "pitch": 54, "duration": 7, "velocity": 102}, {"time": 424, "pitch": 58, "duration": 7, "velocity": 97}, {"time": 430, "pitch": 30, "duration": 5, "velocity": 114}, {"time": 430, "pitch": 42, "duration": 5, "velocity": 114}, {"time": 436, "pitch": 37, "duration": 8, "velocity": 94}, {"time": 436, "pitch": 49, "duration": 8, "velocity": 94}, {"time": 436, "pitch": 52, "duration": 8, "velocity": 82}, {"time": 436, "pitch": 56, "duration": 7, "velocity": 80}, {"time": 436, "pitch": 61, "duration": 7, "velocity": 92}, {"time": 448, "pitch": 37, "duration": 4, "velocity": 100}, {"time": 448, "pitch": 49, "duration": 4, "velocity": 100}, {"time": 448, "pitch": 52, "duration": 6, "velocity": 93}, {"time": 448, "pitch": 56, "duration": 5, "velocity": 105}, {"time": 448, "pitch": 61, "duration": 6, "velocity": 105}, {"time": 454, "pitch": 35, "duration": 3, "velocity": 105}, {"time": 454, "pitch": 47, "duration": 3, "velocity": 105}, {"time": 460, "pitch": 37, "duration": 7, "velocity": 105}, {"time": 460, "pitch": 49, "duration": 7, "velocity": 105}, {"time": 460, "pitch": 52, "duration": 7, "velocity": 90}, {"time": 460, "pitch": 56, "duration": 7, "velocity": 92}, {"time": 460, "pitch": 61, "duration": 7, "velocity": 100}, {"time": 472, "pitch": 37, "duration": 4, "velocity": 108}, {"time": 472, "pitch": 49, "duration": 4, "velocity": 108}, {"time": 472, "pitch": 52, "duration": 4, "velocity": 90}, {"time": 472, "pitch": 56, "duration": 3, "velocity": 89}, {"time": 472, "pitch": 61, "duration": 4, "velocity": 89}, {"time": 478, "pitch": 35, "duration": 3, "velocity": 105}, {"time": 478, "pitch": 47, "duration": 3, "velocity": 105}, {"time": 484, "pitch": 39, "duration": 15, "velocity": 108}, {"time": 484, "pitch": 51, "duration": 15, "velocity": 108}, {"time": 484, "pitch": 54, "duration": 7, "velocity": 76}, {"time": 484, "pitch": 58, "duration": 8, "velocity": 94}, {"time": 484, "pitch": 63, "duration": 8, "velocity": 89}, {"time": 496, "pitch": 54, "duration": 6, "velocity": 105}, {"time": 496, "pitch": 58, "duration": 6, "velocity": 117}, {"time": 496, "pitch": 63, "duration": 6, "velocity": 105}, {"time": 502, "pitch": 37, "duration": 3, "velocity": 108}, {"time": 502, "pitch": 49, "duration": 3, "velocity": 108}, {"time": 508, "pitch": 39, "duration": 16, "velocity": 114}, {"time": 508, "pitch": 51, "duration": 16, "velocity": 114}, {"time": 508, "pitch": 54, "duration": 7, "velocity": 87}, {"time": 508, "pitch": 58, "duration": 7, "velocity": 102}, {"time": 508, "pitch": 63, "duration": 7, "velocity": 89}, {"time": 520, "pitch": 54, "duration": 5, "velocity": 105}, {"time": 520, "pitch": 58, "duration": 6, "velocity": 117}, {"time": 520, "pitch": 63, "duration": 5, "velocity": 97}, {"time": 526, "pitch": 37, "duration": 4, "velocity": 108}, {"time": 526, "pitch": 49, "duration": 4, "velocity": 108}, {"time": 532, "pitch": 39, "duration": 15, "velocity": 117}, {"time": 532, "pitch": 51, "duration": 15, "velocity": 117}, {"time": 532, "pitch": 58, "duration": 7, "velocity": 76}, {"time": 532, "pitch": 63, "duration": 7, "velocity": 92}, {"time": 532, "pitch": 67, "duration": 8, "velocity": 93}, {"time": 544, "pitch": 58, "duration": 7, "velocity": 108}, {"time": 544, "pitch": 63, "duration": 7, "velocity": 114}, {"time": 544, "pitch": 67, "duration": 7, "velocity": 116}, {"time": 550, "pitch": 37, "duration": 3, "velocity": 111}, {"time": 550, "pitch": 49, "duration": 3, "velocity": 111}, {"time": 556, "pitch": 43, "duration": 4, "velocity": 119}, {"time": 556, "pitch": 55, "duration": 4, "velocity": 119}, {"time": 562, "pitch": 46, "duration": 3, "velocity": 89}, {"time": 562, "pitch": 58, "duration": 3, "velocity": 89}, {"time": 568, "pitch": 47, "duration": 3, "velocity": 108}, {"time": 568, "pitch": 59, "duration": 3, "velocity": 108}, {"time": 574, "pitch": 51, "duration": 31, "velocity": 100}, {"time": 574, "pitch": 63, "duration": 31, "velocity": 100}, {"time": 628, "pitch": 44, "duration": 45, "velocity": 100}, {"time": 628, "pitch": 56, "duration": 6, "velocity": 71}, {"time": 628, "pitch": 59, "duration": 8, "velocity": 85}, {"time": 628, "pitch": 63, "duration": 8, "velocity": 80}, {"time": 634, "pitch": 51, "duration": 39, "velocity": 60}, {"time": 640, "pitch": 56, "duration": 2, "velocity": 43}, {"time": 646, "pitch": 56, "duration": 22, "velocity": 94}, {"time": 646, "pitch": 63, "duration": 17, "velocity": 100}, {"time": 676, "pitch": 44, "duration": 44, "velocity": 89}, {"time": 676, "pitch": 59, "duration": 14, "velocity": 68}, {"time": 676, "pitch": 63, "duration": 15, "velocity": 82}, {"time": 688, "pitch": 51, "duration": 8, "velocity": 41}, {"time": 694, "pitch": 56, "duration": 3, "velocity": 66}, {"time": 694, "pitch": 59, "duration": 14, "velocity": 102}, {"time": 694, "pitch": 63, "duration": 18, "velocity": 94}, {"time": 706, "pitch": 51, "duration": 16, "velocity": 62}, {"time": 712, "pitch": 56, "duration": 6, "velocity": 100}, {"time": 724, "pitch": 42, "duration": 40, "velocity": 100}, {"time": 724, "pitch": 54, "duration": 6, "velocity": 94}, {"time": 724, "pitch": 58, "duration": 9, "velocity": 102}, {"time": 730, "pitch": 49, "duration": 15, "velocity": 58}, {"time": 736, "pitch": 54, "duration": 4, "velocity": 71}, {"time": 742, "pitch": 54, "duration": 7, "velocity": 84}, {"time": 742, "pitch": 58, "duration": 7, "velocity": 89}, {"time": 742, "pitch": 61, "duration": 8, "velocity": 94}, {"time": 748, "pitch": 49, "duration": 5, "velocity": 30}, {"time": 754, "pitch": 54, "duration": 2, "velocity": 97}, {"time": 754, "pitch": 58, "duration": 7, "velocity": 87}, {"time": 754, "pitch": 61, "duration": 9, "velocity": 89}, {"time": 760, "pitch": 49, "duration": 9, "velocity": 76}, {"time": 772, "pitch": 44, "duration": 35, "velocity": 97}, {"time": 772, "pitch": 56, "duration": 14, "velocity": 78}, {"time": 772, "pitch": 59, "duration": 14, "velocity": 65}, {"time": 784, "pitch": 51, "duration": 8, "velocity": 67}, {"time": 790, "pitch": 56, "duration": 11, "velocity": 87}, {"time": 790, "pitch": 59, "duration": 19, "velocity": 102}, {"time": 790, "pitch": 63, "duration": 19, "velocity": 100}, {"time": 802, "pitch": 51, "duration": 8, "velocity": 84}, {"time": 808, "pitch": 56, "duration": 4, "velocity": 105}, {"time": 820, "pitch": 52, "duration": 31, "velocity": 96}, {"time": 820, "pitch": 64, "duration": 6, "velocity": 48}, {"time": 820, "pitch": 68, "duration": 7, "velocity": 89}, {"time": 826, "pitch": 59, "duration": 16, "velocity": 77}, {"time": 832, "pitch": 64, "duration": 2, "velocity": 77}, {"time": 838, "pitch": 64, "duration": 10, "velocity": 102}, {"time": 838, "pitch": 71, "duration": 14, "velocity": 63}, {"time": 844, "pitch": 59, "duration": 8, "velocity": 44}, {"time": 850, "pitch": 64, "duration": 8, "velocity": 87}, {"time": 850, "pitch": 68, "duration": 7, "velocity": 97}, {"time": 868, "pitch": 42, "duration": 33, "velocity": 97}, {"time": 874, "pitch": 49, "duration": 13, "velocity": 69}, {"time": 880, "pitch": 54, "duration": 4, "velocity": 111}, {"time": 886, "pitch": 54, "duration": 7, "velocity": 94}, {"time": 886, "pitch": 58, "duration": 7, "velocity": 105}, {"time": 886, "pitch": 61, "duration": 7, "velocity": 97}, {"time": 892, "pitch": 49, "duration": 8, "velocity": 60}, {"time": 898, "pitch": 54, "duration": 6, "velocity": 66}, {"time": 898, "pitch": 58, "duration": 6, "velocity": 89}, {"time": 898, "pitch": 61, "duration": 8, "velocity": 89}, {"time": 904, "pitch": 42, "duration": 4, "velocity": 33}, {"time": 916, "pitch": 51, "duration": 40, "velocity": 64}, {"time": 916, "pitch": 58, "duration": 6, "velocity": 94}, {"time": 916, "pitch": 63, "duration": 14, "velocity": 94}, {"time": 928, "pitch": 58, "duration": 13, "velocity": 84}, {"time": 934, "pitch": 66, "duration": 8, "velocity": 108}, {"time": 946, "pitch": 63, "duration": 7, "velocity": 94}, {"time": 952, "pitch": 58, "duration": 5, "velocity": 80}, {"time": 964, "pitch": 44, "duration": 46, "velocity": 94}, {"time": 964, "pitch": 56, "duration": 6, "velocity": 80}, {"time": 964, "pitch": 59, "duration": 7, "velocity": 87}, {"time": 964, "pitch": 63, "duration": 13, "velocity": 84}, {"time": 970, "pitch": 51, "duration": 15, "velocity": 60}, {"time": 976, "pitch": 56, "duration": 3, "velocity": 62}, {"time": 982, "pitch": 56, "duration": 6, "velocity": 92}, {"time": 982, "pitch": 63, "duration": 6, "velocity": 89}, {"time": 988, "pitch": 51, "duration": 8, "velocity": 64}, {"time": 994, "pitch": 56, "duration": 5, "velocity": 89}, {"time": 994, "pitch": 59, "duration": 15, "velocity": 96}, {"time": 1000, "pitch": 51, "duration": 10, "velocity": 97}, {"time": 1006, "pitch": 56, "duration": 5, "velocity": 105}, {"time": 1012, "pitch": 44, "duration": 45, "velocity": 100}, {"time": 1012, "pitch": 56, "duration": 6, "velocity": 71}, {"time": 1012, "pitch": 59, "duration": 8, "velocity": 85}, {"time": 1012, "pitch": 63, "duration": 8, "velocity": 80}, {"time": 1018, "pitch": 51, "duration": 39, "velocity": 60}, {"time": 1024, "pitch": 56, "duration": 2, "velocity": 43}, {"time": 1030, "pitch": 56, "duration": 22, "velocity": 94}, {"time": 1030, "pitch": 63, "duration": 17, "velocity": 100}, {"time": 1060, "pitch": 44, "duration": 44, "velocity": 89}, {"time": 1060, "pitch": 59, "duration": 14, "velocity": 68}, {"time": 1060, "pitch": 63, "duration": 15, "velocity": 82}, {"time": 1072, "pitch": 51, "duration": 8, "velocity": 41}, {"time": 1078, "pitch": 56, "duration": 3, "velocity": 66}, {"time": 1078, "pitch": 59, "duration": 14, "velocity": 102}, {"time": 1078, "pitch": 63, "duration": 18, "velocity": 94}, {"time": 1090, "pitch": 51, "duration": 16, "velocity": 62}, {"time": 1096, "pitch": 56, "duration": 6, "velocity": 100}, {"time": 1108, "pitch": 42, "duration": 40, "velocity": 100}, {"time": 1108, "pitch": 54, "duration": 6, "velocity": 94}, {"time": 1108, "pitch": 58, "duration": 9, "velocity": 102}, {"time": 1114, "pitch": 49, "duration": 15, "velocity": 58}, {"time": 1120, "pitch": 54, "duration": 4, "velocity": 71}, {"time": 1126, "pitch": 54, "duration": 7, "velocity": 84}, {"time": 1126, "pitch": 58, "duration": 7, "velocity": 89}, {"time": 1126, "pitch": 61, "duration": 8, "velocity": 94}, {"time": 1132, "pitch": 49, "duration": 5, "velocity": 30}, {"time": 1138, "pitch": 54, "duration": 2, "velocity": 97}, {"time": 1138, "pitch": 58, "duration": 7, "velocity": 87}, {"time": 1138, "pitch": 61, "duration": 9, "velocity": 89}, {"time": 1144, "pitch": 49, "duration": 9, "velocity": 76}, {"time": 1156, "pitch": 44, "duration": 35, "velocity": 97}, {"time": 1156, "pitch": 56, "duration": 14, "velocity": 78}, {"time": 1156, "pitch": 59, "duration": 14, "velocity": 65}, {"time": 1168, "pitch": 51, "duration": 8, "velocity": 67}, {"time": 1174, "pitch": 56, "duration": 11, "velocity": 87}, {"time": 1174, "pitch": 59, "duration": 19, "velocity": 102}, {"time": 1174, "pitch": 63, "duration": 19, "velocity": 100}, {"time": 1186, "pitch": 51, "duration": 8, "velocity": 84}, {"time": 1192, "pitch": 56, "duration": 4, "velocity": 105}, {"time": 1204, "pitch": 52, "duration": 31, "velocity": 96}, {"time": 1204, "pitch": 64, "duration": 6, "velocity": 48}, {"time": 1204, "pitch": 68, "duration": 7, "velocity": 89}, {"time": 1210, "pitch": 59, "duration": 16, "velocity": 77}, {"time": 1216, "pitch": 64, "duration": 2, "velocity": 77}, {"time": 1222, "pitch": 64, "duration": 10, "velocity": 102}, {"time": 1222, "pitch": 71, "duration": 14, "velocity": 63}, {"time": 1228, "pitch": 59, "duration": 8, "velocity": 44}, {"time": 1234, "pitch": 64, "duration": 8, "velocity": 87}, {"time": 1234, "pitch": 68, "duration": 7, "velocity": 97}, {"time": 1252, "pitch": 42, "duration": 33, "velocity": 97}, {"time": 1258, "pitch": 49, "duration": 13, "velocity": 69}, {"time": 1264, "pitch": 54, "duration": 4, "velocity": 111}, {"time": 1270, "pitch": 54, "duration": 7, "velocity": 94}, {"time": 1270, "pitch": 58, "duration": 7, "velocity": 105}, {"time": 1270, "pitch": 61, "duration": 7, "velocity": 97}, {"time": 1276, "pitch": 49, "duration": 8, "velocity": 60}, {"time": 1282, "pitch": 54, "duration": 6, "velocity": 66}, {"time": 1282, "pitch": 58, "duration": 6, "velocity": 89}, {"time": 1282, "pitch": 61, "duration": 8, "velocity": 89}, {"time": 1288, "pitch": 42, "duration": 4, "velocity": 33}, {"time": 1300, "pitch": 51, "duration": 40, "velocity": 64}, {"time": 1300, "pitch": 58, "duration": 6, "velocity": 94}, {"time": 1300, "pitch": 63, "duration": 14, "velocity": 94}, {"time": 1312, "pitch": 58, "duration": 13, "velocity": 84}, {"time": 1318, "pitch": 66, "duration": 8, "velocity": 108}, {"time": 1330, "pitch": 63, "duration": 7, "velocity": 94}, {"time": 1336, "pitch": 58, "duration": 5, "velocity": 80}, {"time": 1348, "pitch": 49, "duration": 18, "velocity": 105}, {"time": 1348, "pitch": 61, "duration": 6, "velocity": 76}, {"time": 1348, "pitch": 64, "duration": 12, "velocity": 87}, {"time": 1354, "pitch": 56, "duration": 14, "velocity": 84}, {"time": 1360, "pitch": 61, "duration": 7, "velocity": 114}, {"time": 1366, "pitch": 64, "duration": 4, "velocity": 85}, {"time": 1372, "pitch": 51, "duration": 17, "velocity": 102}, {"time": 1378, "pitch": 58, "duration": 8, "velocity": 89}, {"time": 1384, "pitch": 63, "duration": 8, "velocity": 102}, {"time": 1390, "pitch": 70, "duration": 10, "velocity": 84}, {"time": 1396, "pitch": 44, "duration": 45, "velocity": 100}, {"time": 1402, "pitch": 51, "duration": 13, "velocity": 49}, {"time": 1408, "pitch": 56, "duration": 3, "velocity": 87}, {"time": 1414, "pitch": 56, "duration": 7, "velocity": 87}, {"time": 1414, "pitch": 59, "duration": 6, "velocity": 99}, {"time": 1414, "pitch": 63, "duration": 7, "velocity": 100}, {"time": 1420, "pitch": 51, "duration": 9, "velocity": 76}, {"time": 1426, "pitch": 56, "duration": 6, "velocity": 102}, {"time": 1426, "pitch": 63, "duration": 13, "velocity": 89}, {"time": 1432, "pitch": 51, "duration": 9, "velocity": 76}, {"time": 1438, "pitch": 56, "duration": 3, "velocity": 57}, {"time": 1444, "pitch": 44, "duration": 48, "velocity": 102}, {"time": 1444, "pitch": 56, "duration": 6, "velocity": 84}, {"time": 1444, "pitch": 59, "duration": 7, "velocity": 77}, {"time": 1444, "pitch": 63, "duration": 13, "velocity": 94}, {"time": 1450, "pitch": 51, "duration": 14, "velocity": 66}, {"time": 1456, "pitch": 56, "duration": 2, "velocity": 76}, {"time": 1462, "pitch": 56, "duration": 7, "velocity": 97}, {"time": 1462, "pitch": 59, "duration": 8, "velocity": 105}, {"time": 1462, "pitch": 63, "duration": 7, "velocity": 97}, {"time": 1462, "pitch": 68, "duration": 6, "velocity": 84}, {"time": 1468, "pitch": 51, "duration": 24, "velocity": 87}, {"time": 1474, "pitch": 56, "duration": 3, "velocity": 100}, {"time": 1480, "pitch": 56, "duration": 2, "velocity": 102}, {"time": 1480, "pitch": 59, "duration": 9, "velocity": 102}, {"time": 1480, "pitch": 63, "duration": 9, "velocity": 105}, {"time": 1486, "pitch": 56, "duration": 5, "velocity": 108}, {"time": 1492, "pitch": 40, "duration": 20, "velocity": 92}, {"time": 1492, "pitch": 52, "duration": 20, "velocity": 102}, {"time": 1492, "pitch": 64, "duration": 7, "velocity": 93}, {"time": 1492, "pitch": 68, "duration": 9, "velocity": 92}, {"time": 1498, "pitch": 59, "duration": 14, "velocity": 52}, {"time": 1504, "pitch": 64, "duration": 3, "velocity": 99}, {"time": 1510, "pitch": 64, "duration": 7, "velocity": 96}, {"time": 1510, "pitch": 68, "duration": 7, "velocity": 102}, {"time": 1516, "pitch": 40, "duration": 8, "velocity": 75}, {"time": 1516, "pitch": 52, "duration": 8, "velocity": 85}, {"time": 1516, "pitch": 59, "duration": 8, "velocity": 79}, {"time": 1522, "pitch": 64, "duration": 3, "velocity": 96}, {"time": 1528, "pitch": 64, "duration": 3, "velocity": 82}, {"time": 1528, "pitch": 68, "duration": 3, "velocity": 89}, {"time": 1528, "pitch": 71, "duration": 4, "velocity": 65}, {"time": 1540, "pitch": 42, "duration": 38, "velocity": 92}, {"time": 1540, "pitch": 54, "duration": 38, "velocity": 102}, {"time": 1540, "pitch": 61, "duration": 7, "velocity": 84}, {"time": 1540, "pitch": 66, "duration": 13, "velocity": 89}, {"time": 1546, "pitch": 58, "duration": 16, "velocity": 100}, {"time": 1552, "pitch": 61, "duration": 3, "velocity": 105}, {"time": 1558, "pitch": 61, "duration": 7, "velocity": 105}, {"time": 1558, "pitch": 66, "duration": 9, "velocity": 114}, {"time": 1564, "pitch": 58, "duration": 13, "velocity": 37}, {"time": 1570, "pitch": 61, "duration": 3, "velocity": 94}, {"time": 1570, "pitch": 66, "duration": 1, "velocity": 8}, {"time": 1576, "pitch": 61, "duration": 1, "velocity": 57}, {"time": 1576, "pitch": 66, "duration": 4, "velocity": 97}, {"time": 1576, "pitch": 70, "duration": 5, "velocity": 97}, {"time": 1588, "pitch": 39, "duration": 33, "velocity": 84}, {"time": 1588, "pitch": 51, "duration": 33, "velocity": 94}, {"time": 1588, "pitch": 63, "duration": 6, "velocity": 87}, {"time": 1588, "pitch": 66, "duration": 8, "velocity": 92}, {"time": 1594, "pitch": 58, "duration": 14, "velocity": 87}, {"time": 1600, "pitch": 63, "duration": 2, "velocity": 69}, {"time": 1606, "pitch": 63, "duration": 6, "velocity": 105}, {"time": 1606, "pitch": 70, "duration": 6, "velocity": 100}, {"time": 1612, "pitch": 58, "duration": 14, "velocity": 82}, {"time": 1618, "pitch": 63, "duration": 5, "velocity": 92}, {"time": 1618, "pitch": 66, "duration": 6, "velocity": 94}, {"time": 1624, "pitch": 39, "duration": 1, "velocity": 7}, {"time": 1624, "pitch": 51, "duration": 1, "velocity": 17}, {"time": 1630, "pitch": 63, "duration": 3, "velocity": 94}, {"time": 1636, "pitch": 32, "duration": 36, "velocity": 90}, {"time": 1636, "pitch": 44, "duration": 36, "velocity": 100}, {"time": 1636, "pitch": 63, "duration": 4, "velocity": 94}, {"time": 1636, "pitch": 68, "duration": 8, "velocity": 100}, {"time": 1642, "pitch": 51, "duration": 16, "velocity": 67}, {"time": 1648, "pitch": 63, "duration": 3, "velocity": 94}, {"time": 1654, "pitch": 63, "duration": 5, "velocity": 102}, {"time": 1654, "pitch": 68, "duration": 6, "velocity": 111}, {"time": 1654, "pitch": 71, "duration": 13, "velocity": 96}, {"time": 1660, "pitch": 51, "duration": 12, "velocity": 47}, {"time": 1666, "pitch": 63, "duration": 2, "velocity": 97}, {"time": 1672, "pitch": 63, "duration": 3, "velocity": 108}, {"time": 1672, "pitch": 68, "duration": 2, "velocity": 111}, {"time": 1684, "pitch": 37, "duration": 39, "velocity": 90}, {"time": 1684, "pitch": 49, "duration": 39, "velocity": 100}, {"time": 1684, "pitch": 61, "duration": 6, "velocity": 92}, {"time": 1684, "pitch": 68, "duration": 14, "velocity": 92}, {"time": 1690, "pitch": 56, "duration": 31, "velocity": 60}, {"time": 1696, "pitch": 61, "duration": 3, "velocity": 82}, {"time": 1702, "pitch": 61, "duration": 9, "velocity": 97}, {"time": 1702, "pitch": 64, "duration": 13, "velocity": 109}, {"time": 1702, "pitch": 68, "duration": 14, "velocity": 97}, {"time": 1720, "pitch": 61, "duration": 3, "velocity": 97}, {"time": 1720, "pitch": 64, "duration": 5, "velocity": 105}, {"time": 1720, "pitch": 68, "duration": 7, "velocity": 97}, {"time": 1732, "pitch": 30, "duration": 46, "velocity": 90}, {"time": 1732, "pitch": 42, "duration": 46, "velocity": 100}, {"time": 1732, "pitch": 54, "duration": 7, "velocity": 89}, {"time": 1732, "pitch": 58, "duration": 9, "velocity": 94}, {"time": 1738, "pitch": 37, "duration": 40, "velocity": 59}, {"time": 1738, "pitch": 49, "duration": 40, "velocity": 69}, {"time": 1744, "pitch": 54, "duration": 3, "velocity": 89}, {"time": 1750, "pitch": 54, "duration": 6, "velocity": 105}, {"time": 1750, "pitch": 66, "duration": 4, "velocity": 97}, {"time": 1762, "pitch": 54, "duration": 3, "velocity": 89}, {"time": 1762, "pitch": 58, "duration": 15, "velocity": 108}, {"time": 1762, "pitch": 61, "duration": 16, "velocity": 100}, {"time": 1768, "pitch": 54, "duration": 10, "velocity": 84}, {"time": 1780, "pitch": 39, "duration": 41, "velocity": 87}, {"time": 1780, "pitch": 51, "duration": 41, "velocity": 97}, {"time": 1780, "pitch": 63, "duration": 8, "velocity": 87}, {"time": 1780, "pitch": 66, "duration": 13, "velocity": 97}, {"time": 1786, "pitch": 58, "duration": 15, "velocity": 94}, {"time": 1792, "pitch": 63, "duration": 3, "velocity": 92}, {"time": 1798, "pitch": 63, "duration": 9, "velocity": 102}, {"time": 1798, "pitch": 66, "duration": 12, "velocity": 105}, {"time": 1798, "pitch": 70, "duration": 13, "velocity": 102}, {"time": 1804, "pitch": 58, "duration": 14, "velocity": 84}, {"time": 1816, "pitch": 63, "duration": 4, "velocity": 108}, {"time": 1816, "pitch": 66, "duration": 6, "velocity": 111}, {"time": 1822, "pitch": 63, "duration": 3, "velocity": 78}, {"time": 1828, "pitch": 32, "duration": 47, "velocity": 90}, {"time": 1828, "pitch": 44, "duration": 47, "velocity": 100}, {"time": 1828, "pitch": 63, "duration": 6, "velocity": 84}, {"time": 1828, "pitch": 68, "duration": 5, "velocity": 97}, {"time": 1834, "pitch": 51, "duration": 14, "velocity": 78}, {"time": 1840, "pitch": 56, "duration": 3, "velocity": 100}, {"time": 1846, "pitch": 56, "duration": 6, "velocity": 92}, {"time": 1846, "pitch": 59, "duration": 6, "velocity": 105}, {"time": 1846, "pitch": 63, "duration": 6, "velocity": 105}, {"time": 1852, "pitch": 51, "duration": 23, "velocity": 80}, {"time": 1858, "pitch": 56, "duration": 3, "velocity": 94}, {"time": 1864, "pitch": 59, "duration": 10, "velocity": 112}, {"time": 1864, "pitch": 63, "duration": 11, "velocity": 111}, {"time": 1864, "pitch": 68, "duration": 11, "velocity": 97}, {"time": 1870, "pitch": 56, "duration": 5, "velocity": 102}, {"time": 1876, "pitch": 40, "duration": 20, "velocity": 92}, {"time": 1876, "pitch": 52, "duration": 20, "velocity": 102}, {"time": 1876, "pitch": 64, "duration": 7, "velocity": 93}, {"time": 1876, "pitch": 68, "duration": 9, "velocity": 92}, {"time": 1882, "pitch": 59, "duration": 14, "velocity": 52}, {"time": 1888, "pitch": 64, "duration": 3, "velocity": 99}, {"time": 1894, "pitch": 64, "duration": 7, "velocity": 96}, {"time": 1894, "pitch": 68, "duration": 7, "velocity": 102}, {"time": 1900, "pitch": 40, "duration": 8, "velocity": 75}, {"time": 1900, "pitch": 52, "duration": 8, "velocity": 85}, {"time": 1900, "pitch": 59, "duration": 8, "velocity": 79}, {"time": 1906, "pitch": 64, "duration": 3, "velocity": 96}, {"time": 1912, "pitch": 64, "duration": 3, "velocity": 82}, {"time": 1912, "pitch": 68, "duration": 3, "velocity": 89}, {"time": 1912, "pitch": 71, "duration": 4, "velocity": 65}, {"time": 1924, "pitch": 42, "duration": 38, "velocity": 92}, {"time": 1924, "pitch": 54, "duration": 38, "velocity": 102}, {"time": 1924, "pitch": 61, "duration": 7, "velocity": 84}, {"time": 1924, "pitch": 66, "duration": 13, "velocity": 89}, {"time": 1930, "pitch": 58, "duration": 16, "velocity": 100}, {"time": 1936, "pitch": 61, "duration": 3, "velocity": 105}, {"time": 1942, "pitch": 61, "duration": 7, "velocity": 105}, {"time": 1942, "pitch": 66, "duration": 9, "velocity": 114}, {"time": 1948, "pitch": 58, "duration": 13, "velocity": 37}, {"time": 1954, "pitch": 61, "duration": 3, "velocity": 94}, {"time": 1954, "pitch": 66, "duration": 1, "velocity": 8}, {"time": 1960, "pitch": 61, "duration": 1, "velocity": 57}, {"time": 1960, "pitch": 66, "duration": 4, "velocity": 97}, {"time": 1960, "pitch": 70, "duration": 5, "velocity": 97}, {"time": 1972, "pitch": 39, "duration": 33, "velocity": 84}, {"time": 1972, "pitch": 51, "duration": 33, "velocity": 94}, {"time": 1972, "pitch": 63, "duration": 6, "velocity": 87}, {"time": 1972, "pitch": 66, "duration": 8, "velocity": 92}, {"time": 1978, "pitch": 58, "duration": 14, "velocity": 87}, {"time": 1984, "pitch": 63, "duration": 2, "velocity": 69}, {"time": 1990, "pitch": 63, "duration": 6, "velocity": 105}, {"time": 1990, "pitch": 70, "duration": 6, "velocity": 100}, {"time": 1996, "pitch": 58, "duration": 14, "velocity": 82}, {"time": 2002, "pitch": 63, "duration": 5, "velocity": 92}, {"time": 2002, "pitch": 66, "duration": 6, "velocity": 94}, {"time": 2008, "pitch": 39, "duration": 1, "velocity": 7}, {"time": 2008, "pitch": 51, "duration": 1, "velocity": 17}, {"time": 2014, "pitch": 63, "duration": 3, "velocity": 94}, {"time": 2020, "pitch": 32, "duration": 36, "velocity": 90}, {"time": 2020, "pitch": 44, "duration": 36, "velocity": 100}, {"time": 2020, "pitch": 63, "duration": 4, "velocity": 94}, {"time": 2020, "pitch": 68, "duration": 8, "velocity": 100}, {"time": 2026, "pitch": 51, "duration": 16, "velocity": 67}, {"time": 2032, "pitch": 63, "duration": 3, "velocity": 94}, {"time": 2038, "pitch": 63, "duration": 5, "velocity": 102}, {"time": 2038, "pitch": 68, "duration": 6, "velocity": 111}, {"time": 2038, "pitch": 71, "duration": 13, "velocity": 96}, {"time": 2044, "pitch": 51, "duration": 12, "velocity": 47}, {"time": 2050, "pitch": 63, "duration": 2, "velocity": 97}, {"time": 2056, "pitch": 63, "duration": 3, "velocity": 108}, {"time": 2056, "pitch": 68, "duration": 2, "velocity": 111}, {"time": 2068, "pitch": 37, "duration": 39, "velocity": 90}, {"time": 2068, "pitch": 49, "duration": 39, "velocity": 100}, {"time": 2068, "pitch": 61, "duration": 6, "velocity": 92}, {"time": 2068, "pitch": 68, "duration": 14, "velocity": 92}, {"time": 2074, "pitch": 56, "duration": 31, "velocity": 60}, {"time": 2080, "pitch": 61, "duration": 3, "velocity": 82}, {"time": 2086, "pitch": 61, "duration": 9, "velocity": 97}, {"time": 2086, "pitch": 64, "duration": 13, "velocity": 109}, {"time": 2086, "pitch": 68, "duration": 14, "velocity": 97}, {"time": 2104, "pitch": 61, "duration": 3, "velocity": 97}, {"time": 2104, "pitch": 64, "duration": 5, "velocity": 105}, {"time": 2104, "pitch": 68, "duration": 7, "velocity": 97}, {"time": 2116, "pitch": 30, "duration": 46, "velocity": 90}, {"time": 2116, "pitch": 42, "duration": 46, "velocity": 100}, {"time": 2116, "pitch": 54, "duration": 7, "velocity": 89}, {"time": 2116, "pitch": 58, "duration": 9, "velocity": 94}, {"time": 2122, "pitch": 37, "duration": 40, "velocity": 59}, {"time": 2122, "pitch": 49, "duration": 40, "velocity": 69}, {"time": 2128, "pitch": 54, "duration": 3, "velocity": 89}, {"time": 2134, "pitch": 54, "duration": 6, "velocity": 105}, {"time": 2134, "pitch": 66, "duration": 4, "velocity": 97}, {"time": 2146, "pitch": 54, "duration": 3, "velocity": 89}, {"time": 2146, "pitch": 58, "duration": 15, "velocity": 108}, {"time": 2146, "pitch": 61, "duration": 16, "velocity": 100}, {"time": 2152, "pitch": 54, "duration": 10, "velocity": 84}, {"time": 2164, "pitch": 39, "duration": 44, "velocity": 94}, {"time": 2164, "pitch": 51, "duration": 44, "velocity": 102}, {"time": 2164, "pitch": 63, "duration": 6, "velocity": 89}, {"time": 2164, "pitch": 66, "duration": 7, "velocity": 100}, {"time": 2170, "pitch": 58, "duration": 14, "velocity": 67}, {"time": 2176, "pitch": 63, "duration": 3, "velocity": 92}, {"time": 2182, "pitch": 63, "duration": 5, "velocity": 108}, {"time": 2182, "pitch": 70, "duration": 5, "velocity": 100}, {"time": 2188, "pitch": 58, "duration": 9, "velocity": 92}, {"time": 2194, "pitch": 63, "duration": 9, "velocity": 108}, {"time": 2194, "pitch": 66, "duration": 10, "velocity": 117}, {"time": 2206, "pitch": 63, "duration": 3, "velocity": 84}, {"time": 2212, "pitch": 39, "duration": 32, "velocity": 94}, {"time": 2212, "pitch": 51, "duration": 32, "velocity": 102}, {"time": 2212, "pitch": 63, "duration": 13, "velocity": 87}, {"time": 2212, "pitch": 66, "duration": 12, "velocity": 94}, {"time": 2224, "pitch": 58, "duration": 18, "velocity": 60}, {"time": 2230, "pitch": 63, "duration": 8, "velocity": 108}, {"time": 2230, "pitch": 70, "duration": 8, "velocity": 105}, {"time": 2242, "pitch": 63, "duration": 7, "velocity": 97}, {"time": 2242, "pitch": 66, "duration": 7, "velocity": 105}, {"time": 2248, "pitch": 58, "duration": 3, "velocity": 89}, {"time": 2254, "pitch": 63, "duration": 3, "velocity": 87}, {"time": 2260, "pitch": 32, "duration": 45, "velocity": 89}, {"time": 2260, "pitch": 44, "duration": 45, "velocity": 97}, {"time": 2260, "pitch": 63, "duration": 14, "velocity": 92}, {"time": 2260, "pitch": 68, "duration": 13, "velocity": 97}, {"time": 2272, "pitch": 51, "duration": 8, "velocity": 64}, {"time": 2278, "pitch": 63, "duration": 6, "velocity": 94}, {"time": 2278, "pitch": 71, "duration": 6, "velocity": 102}, {"time": 2284, "pitch": 51, "duration": 8, "velocity": 73}, {"time": 2290, "pitch": 63, "duration": 4, "velocity": 92}, {"time": 2290, "pitch": 68, "duration": 4, "velocity": 111}, {"time": 2302, "pitch": 63, "duration": 1, "velocity": 35}, {"time": 2308, "pitch": 32, "duration": 22, "velocity": 92}, {"time": 2308, "pitch": 44, "duration": 22, "velocity": 100}, {"time": 2308, "pitch": 63, "duration": 5, "velocity": 97}, {"time": 2308, "pitch": 68, "duration": 6, "velocity": 102}, {"time": 2314, "pitch": 51, "duration": 15, "velocity": 76}, {"time": 2320, "pitch": 63, "duration": 2, "velocity": 80}, {"time": 2326, "pitch": 63, "duration": 23, "velocity": 108}, {"time": 2326, "pitch": 68, "duration": 23, "velocity": 111}, {"time": 2356, "pitch": 32, "duration": 25, "velocity": 87}, {"time": 2356, "pitch": 44, "duration": 44, "velocity": 82}, {"time": 2362, "pitch": 51, "duration": 26, "velocity": 84}, {"time": 2368, "pitch": 56, "duration": 3, "velocity": 87}, {"time": 2374, "pitch": 56, "duration": 8, "velocity": 100}, {"time": 2374, "pitch": 59, "duration": 7, "velocity": 105}, {"time": 2374, "pitch": 63, "duration": 7, "velocity": 100}, {"time": 2398, "pitch": 39, "duration": 6, "velocity": 92}, {"time": 2398, "pitch": 56, "duration": 9, "velocity": 73}, {"time": 2404, "pitch": 32, "duration": 36, "velocity": 73}, {"time": 2404, "pitch": 44, "duration": 40, "velocity": 100}, {"time": 2404, "pitch": 59, "duration": 8, "velocity": 35}, {"time": 2404, "pitch": 68, "duration": 13, "velocity": 105}, {"time": 2410, "pitch": 51, "duration": 34, "velocity": 58}, {"time": 2416, "pitch": 56, "duration": 2, "velocity": 58}, {"time": 2422, "pitch": 56, "duration": 7, "velocity": 92}, {"time": 2422, "pitch": 63, "duration": 4, "velocity": 92}, {"time": 2452, "pitch": 39, "duration": 38, "velocity": 87}, {"time": 2452, "pitch": 51, "duration": 39, "velocity": 102}, {"time": 2452, "pitch": 63, "duration": 7, "velocity": 49}, {"time": 2452, "pitch": 66, "duration": 11, "velocity": 84}, {"time": 2458, "pitch": 58, "duration": 26, "velocity": 76}, {"time": 2464, "pitch": 63, "duration": 2, "velocity": 46}, {"time": 2470, "pitch": 63, "duration": 19, "velocity": 100}, {"time": 2470, "pitch": 66, "duration": 19, "velocity": 105}, {"time": 2494, "pitch": 42, "duration": 7, "velocity": 87}, {"time": 2494, "pitch": 63, "duration": 4, "velocity": 82}, {"time": 2500, "pitch": 39, "duration": 46, "velocity": 80}, {"time": 2500, "pitch": 51, "duration": 15, "velocity": 82}, {"time": 2500, "pitch": 63, "duration": 1, "velocity": 46}, {"time": 2500, "pitch": 66, "duration": 13, "velocity": 71}, {"time": 2500, "pitch": 70, "duration": 13, "velocity": 87}, {"time": 2506, "pitch": 58, "duration": 10, "velocity": 78}, {"time": 2512, "pitch": 63, "duration": 4, "velocity": 66}, {"time": 2518, "pitch": 63, "duration": 22, "velocity": 89}, {"time": 2518, "pitch": 66, "duration": 21, "velocity": 89}, {"time": 2518, "pitch": 70, "duration": 22, "velocity": 89}, {"time": 2548, "pitch": 37, "duration": 23, "velocity": 100}, {"time": 2548, "pitch": 49, "duration": 38, "velocity": 97}, {"time": 2548, "pitch": 61, "duration": 8, "velocity": 76}, {"time": 2548, "pitch": 68, "duration": 13, "velocity": 76}, {"time": 2554, "pitch": 56, "duration": 14, "velocity": 89}, {"time": 2560, "pitch": 61, "duration": 2, "velocity": 73}, {"time": 2566, "pitch": 61, "duration": 9, "velocity": 105}, {"time": 2566, "pitch": 64, "duration": 13, "velocity": 109}, {"time": 2566, "pitch": 68, "duration": 13, "velocity": 100}, {"time": 2572, "pitch": 56, "duration": 3, "velocity": 47}, {"time": 2578, "pitch": 37, "duration": 15, "velocity": 87}, {"time": 2578, "pitch": 56, "duration": 9, "velocity": 64}, {"time": 2584, "pitch": 61, "duration": 3, "velocity": 102}, {"time": 2584, "pitch": 64, "duration": 3, "velocity": 109}, {"time": 2584, "pitch": 68, "duration": 5, "velocity": 102}, {"time": 2596, "pitch": 39, "duration": 27, "velocity": 100}, {"time": 2596, "pitch": 51, "duration": 31, "velocity": 100}, {"time": 2596, "pitch": 63, "duration": 7, "velocity": 92}, {"time": 2596, "pitch": 66, "duration": 12, "velocity": 100}, {"time": 2602, "pitch": 58, "duration": 13, "velocity": 80}, {"time": 2608, "pitch": 63, "duration": 2, "velocity": 66}, {"time": 2614, "pitch": 63, "duration": 7, "velocity": 97}, {"time": 2614, "pitch": 66, "duration": 7, "velocity": 105}, {"time": 2614, "pitch": 70, "duration": 7, "velocity": 100}, {"time": 2620, "pitch": 58, "duration": 8, "velocity": 82}, {"time": 2626, "pitch": 39, "duration": 14, "velocity": 82}, {"time": 2626, "pitch": 63, "duration": 6, "velocity": 100}, {"time": 2626, "pitch": 66, "duration": 8, "velocity": 102}, {"time": 2632, "pitch": 51, "duration": 8, "velocity": 94}, {"time": 2638, "pitch": 63, "duration": 5, "velocity": 108}, {"time": 2644, "pitch": 51, "duration": 6, "velocity": 114}, {"time": 2644, "pitch": 58, "duration": 7, "velocity": 100}, {"time": 2644, "pitch": 63, "duration": 6, "velocity": 97}, {"time": 2656, "pitch": 51, "duration": 9, "velocity": 114}, {"time": 2656, "pitch": 58, "duration": 8, "velocity": 97}, {"time": 2656, "pitch": 63, "duration": 8, "velocity": 102}, {"time": 2668, "pitch": 51, "duration": 4, "velocity": 108}, {"time": 2668, "pitch": 58, "duration": 4, "velocity": 92}, {"time": 2668, "pitch": 63, "duration": 4, "velocity": 102}, {"time": 2674, "pitch": 39, "duration": 3, "velocity": 94}, {"time": 2674, "pitch": 51, "duration": 4, "velocity": 108}, {"time": 2674, "pitch": 58, "duration": 4, "velocity": 102}, {"time": 2674, "pitch": 63, "duration": 4, "velocity": 108}, {"time": 2686, "pitch": 39, "duration": 45, "velocity": 100}, {"time": 2686, "pitch": 51, "duration": 54, "velocity": 117}, {"time": 2686, "pitch": 58, "duration": 54, "velocity": 102}, {"time": 2686, "pitch": 63, "duration": 54, "velocity": 105}, {"time": 2686, "pitch": 67, "duration": 55, "velocity": 99}, {"time": 2740, "pitch": 44, "duration": 45, "velocity": 100}, {"time": 2740, "pitch": 56, "duration": 6, "velocity": 71}, {"time": 2740, "pitch": 59, "duration": 8, "velocity": 85}, {"time": 2740, "pitch": 63, "duration": 1, "velocity": 80}, {"time": 2746, "pitch": 51, "duration": 39, "velocity": 60}, {"time": 2752, "pitch": 56, "duration": 2, "velocity": 43}, {"time": 2758, "pitch": 56, "duration": 22, "velocity": 94}, {"time": 2758, "pitch": 63, "duration": 17, "velocity": 100}, {"time": 2788, "pitch": 44, "duration": 44, "velocity": 89}, {"time": 2788, "pitch": 59, "duration": 14, "velocity": 68}, {"time": 2788, "pitch": 63, "duration": 15, "velocity": 82}, {"time": 2800, "pitch": 51, "duration": 8, "velocity": 41}, {"time": 2806, "pitch": 56, "duration": 3, "velocity": 66}, {"time": 2806, "pitch": 59, "duration": 14, "velocity": 102}, {"time": 2806, "pitch": 63, "duration": 18, "velocity": 94}, {"time": 2818, "pitch": 51, "duration": 16, "velocity": 62}, {"time": 2824, "pitch": 56, "duration": 6, "velocity": 100}, {"time": 2836, "pitch": 42, "duration": 40, "velocity": 100}, {"time": 2836, "pitch": 54, "duration": 6, "velocity": 94}, {"time": 2836, "pitch": 58, "duration": 9, "velocity": 102}, {"time": 2842, "pitch": 49, "duration": 15, "velocity": 58}, {"time": 2848, "pitch": 54, "duration": 4, "velocity": 71}, {"time": 2854, "pitch": 54, "duration": 7, "velocity": 84}, {"time": 2854, "pitch": 58, "duration": 7, "velocity": 89}, {"time": 2854, "pitch": 61, "duration": 8, "velocity": 94}, {"time": 2860, "pitch": 49, "duration": 5, "velocity": 30}, {"time": 2866, "pitch": 54, "duration": 2, "velocity": 97}, {"time": 2866, "pitch": 58, "duration": 7, "velocity": 87}, {"time": 2866, "pitch": 61, "duration": 9, "velocity": 89}, {"time": 2872, "pitch": 49, "duration": 9, "velocity": 76}, {"time": 2884, "pitch": 44, "duration": 35, "velocity": 97}, {"time": 2884, "pitch": 56, "duration": 14, "velocity": 78}, {"time": 2884, "pitch": 59, "duration": 14, "velocity": 65}, {"time": 2896, "pitch": 51, "duration": 8, "velocity": 67}, {"time": 2902, "pitch": 56, "duration": 11, "velocity": 87}, {"time": 2902, "pitch": 59, "duration": 19, "velocity": 102}, {"time": 2902, "pitch": 63, "duration": 19, "velocity": 100}, {"time": 2914, "pitch": 51, "duration": 8, "velocity": 84}, {"time": 2920, "pitch": 56, "duration": 4, "velocity": 105}, {"time": 2932, "pitch": 52, "duration": 31, "velocity": 96}, {"time": 2932, "pitch": 64, "duration": 6, "velocity": 48}, {"time": 2932, "pitch": 68, "duration": 7, "velocity": 89}, {"time": 2938, "pitch": 59, "duration": 16, "velocity": 77}, {"time": 2944, "pitch": 64, "duration": 2, "velocity": 77}, {"time": 2950, "pitch": 64, "duration": 10, "velocity": 102}, {"time": 2950, "pitch": 71, "duration": 14, "velocity": 63}, {"time": 2956, "pitch": 59, "duration": 8, "velocity": 44}, {"time": 2962, "pitch": 64, "duration": 8, "velocity": 87}, {"time": 2962, "pitch": 68, "duration": 7, "velocity": 97}, {"time": 2980, "pitch": 42, "duration": 33, "velocity": 97}, {"time": 2986, "pitch": 49, "duration": 13, "velocity": 69}, {"time": 2992, "pitch": 54, "duration": 4, "velocity": 111}, {"time": 2998, "pitch": 54, "duration": 7, "velocity": 94}, {"time": 2998, "pitch": 58, "duration": 7, "velocity": 105}, {"time": 2998, "pitch": 61, "duration": 7, "velocity": 97}, {"time": 3004, "pitch": 49, "duration": 8, "velocity": 60}, {"time": 3010, "pitch": 54, "duration": 6, "velocity": 66}, {"time": 3010, "pitch": 58, "duration": 6, "velocity": 89}, {"time": 3010, "pitch": 61, "duration": 8, "velocity": 89}, {"time": 3016, "pitch": 42, "duration": 4, "velocity": 33}, {"time": 3028, "pitch": 51, "duration": 40, "velocity": 64}, {"time": 3028, "pitch": 58, "duration": 6, "velocity": 94}, {"time": 3028, "pitch": 63, "duration": 14, "velocity": 94}, {"time": 3040, "pitch": 58, "duration": 13, "velocity": 84}, {"time": 3046, "pitch": 66, "duration": 8, "velocity": 108}, {"time": 3058, "pitch": 63, "duration": 7, "velocity": 94}, {"time": 3064, "pitch": 58, "duration": 5, "velocity": 80}, {"time": 3076, "pitch": 44, "duration": 46, "velocity": 94}, {"time": 3076, "pitch": 56, "duration": 6, "velocity": 80}, {"time": 3076, "pitch": 59, "duration": 7, "velocity": 87}, {"time": 3076, "pitch": 63, "duration": 13, "velocity": 84}, {"time": 3082, "pitch": 51, "duration": 15, "velocity": 60}, {"time": 3088, "pitch": 56, "duration": 3, "velocity": 62}, {"time": 3094, "pitch": 56, "duration": 6, "velocity": 92}, {"time": 3094, "pitch": 63, "duration": 6, "velocity": 89}, {"time": 3100, "pitch": 51, "duration": 8, "velocity": 64}, {"time": 3106, "pitch": 56, "duration": 5, "velocity": 89}, {"time": 3106, "pitch": 59, "duration": 15, "velocity": 96}, {"time": 3112, "pitch": 51, "duration": 10, "velocity": 97}, {"time": 3118, "pitch": 56, "duration": 5, "velocity": 105}, {"time": 3124, "pitch": 44, "duration": 45, "velocity": 100}, {"time": 3124, "pitch": 56, "duration": 6, "velocity": 71}, {"time": 3124, "pitch": 59, "duration": 8, "velocity": 85}, {"time": 3124, "pitch": 63, "duration": 8, "velocity": 80}, {"time": 3130, "pitch": 51, "duration": 39, "velocity": 60}, {"time": 3136, "pitch": 56, "duration": 2, "velocity": 43}, {"time": 3142, "pitch": 56, "duration": 22, "velocity": 94}, {"time": 3142, "pitch": 63, "duration": 17, "velocity": 100}, {"time": 3172, "pitch": 44, "duration": 44, "velocity": 89}, {"time": 3172, "pitch": 59, "duration": 14, "velocity": 68}, {"time": 3172, "pitch": 63, "duration": 15, "velocity": 82}, {"time": 3184, "pitch": 51, "duration": 8, "velocity": 41}, {"time": 3190, "pitch": 56, "duration": 3, "velocity": 66}, {"time": 3190, "pitch": 59, "duration": 14, "velocity": 102}, {"time": 3190, "pitch": 63, "duration": 18, "velocity": 94}, {"time": 3202, "pitch": 51, "duration": 16, "velocity": 62}, {"time": 3208, "pitch": 56, "duration": 6, "velocity": 100}, {"time": 3220, "pitch": 42, "duration": 40, "velocity": 100}, {"time": 3220, "pitch": 54, "duration": 6, "velocity": 94}, {"time": 3220, "pitch": 58, "duration": 9, "velocity": 102}, {"time": 3226, "pitch": 49, "duration": 15, "velocity": 58}, {"time": 3232, "pitch": 54, "duration": 4, "velocity": 71}, {"time": 3238, "pitch": 54, "duration": 7, "velocity": 84}, {"time": 3238, "pitch": 58, "duration": 7, "velocity": 89}, {"time": 3238, "pitch": 61, "duration": 8, "velocity": 94}, {"time": 3244, "pitch": 49, "duration": 5, "velocity": 30}, {"time": 3250, "pitch": 54, "duration": 2, "velocity": 97}, {"time": 3250, "pitch": 58, "duration": 7, "velocity": 87}, {"time": 3250, "pitch": 61, "duration": 9, "velocity": 89}, {"time": 3256, "pitch": 49, "duration": 9, "velocity": 76}, {"time": 3268, "pitch": 44, "duration": 35, "velocity": 97}, {"time": 3268, "pitch": 56, "duration": 14, "velocity": 78}, {"time": 3268, "pitch": 59, "duration": 14, "velocity": 65}, {"time": 3280, "pitch": 51, "duration": 8, "velocity": 67}, {"time": 3286, "pitch": 56, "duration": 11, "velocity": 87}, {"time": 3286, "pitch": 59, "duration": 19, "velocity": 102}, {"time": 3286, "pitch": 63, "duration": 19, "velocity": 100}, {"time": 3298, "pitch": 51, "duration": 8, "velocity": 84}, {"time": 3304, "pitch": 56, "duration": 4, "velocity": 105}, {"time": 3316, "pitch": 52, "duration": 31, "velocity": 96}, {"time": 3316, "pitch": 64, "duration": 6, "velocity": 48}, {"time": 3316, "pitch": 68, "duration": 7, "velocity": 89}, {"time": 3322, "pitch": 59, "duration": 16, "velocity": 77}, {"time": 3328, "pitch": 64, "duration": 2, "velocity": 77}, {"time": 3334, "pitch": 64, "duration": 10, "velocity": 102}, {"time": 3334, "pitch": 71, "duration": 14, "velocity": 63}, {"time": 3340, "pitch": 59, "duration": 8, "velocity": 44}, {"time": 3346, "pitch": 64, "duration": 8, "velocity": 87}, {"time": 3346, "pitch": 68, "duration": 7, "velocity": 97}, {"time": 3364, "pitch": 42, "duration": 33, "velocity": 97}, {"time": 3370, "pitch": 49, "duration": 13, "velocity": 69}, {"time": 3376, "pitch": 54, "duration": 4, "velocity": 111}, {"time": 3382, "pitch": 54, "duration": 7, "velocity": 94}, {"time": 3382, "pitch": 58, "duration": 7, "velocity": 105}, {"time": 3382, "pitch": 61, "duration": 7, "velocity": 97}, {"time": 3388, "pitch": 49, "duration": 8, "velocity": 60}, {"time": 3394, "pitch": 54, "duration": 6, "velocity": 66}, {"time": 3394, "pitch": 58, "duration": 6, "velocity": 89}, {"time": 3394, "pitch": 61, "duration": 8, "velocity": 89}, {"time": 3400, "pitch": 42, "duration": 4, "velocity": 33}, {"time": 3412, "pitch": 51, "duration": 40, "velocity": 64}, {"time": 3412, "pitch": 58, "duration": 6, "velocity": 94}, {"time": 3412, "pitch": 63, "duration": 14, "velocity": 94}, {"time": 3424, "pitch": 58, "duration": 13, "velocity": 84}, {"time": 3430, "pitch": 66, "duration": 8, "velocity": 108}, {"time": 3442, "pitch": 63, "duration": 7, "velocity": 94}, {"time": 3448, "pitch": 58, "duration": 5, "velocity": 80}, {"time": 3460, "pitch": 49, "duration": 18, "velocity": 105}, {"time": 3460, "pitch": 61, "duration": 6, "velocity": 76}, {"time": 3460, "pitch": 64, "duration": 12, "velocity": 87}, {"time": 3466, "pitch": 56, "duration": 14, "velocity": 84}, {"time": 3472, "pitch": 61, "duration": 7, "velocity": 114}, {"time": 3478, "pitch": 64, "duration": 4, "velocity": 85}, {"time": 3484, "pitch": 51, "duration": 17, "velocity": 102}, {"time": 3490, "pitch": 58, "duration": 8, "velocity": 89}, {"time": 3496, "pitch": 63, "duration": 8, "velocity": 102}, {"time": 3502, "pitch": 70, "duration": 10, "velocity": 84}, {"time": 3508, "pitch": 44, "duration": 45, "velocity": 100}, {"time": 3514, "pitch": 51, "duration": 13, "velocity": 49}, {"time": 3520, "pitch": 56, "duration": 3, "velocity": 87}, {"time": 3526, "pitch": 56, "duration": 7, "velocity": 87}, {"time": 3526, "pitch": 59, "duration": 6, "velocity": 99}, {"time": 3526, "pitch": 63, "duration": 7, "velocity": 100}, {"time": 3532, "pitch": 51, "duration": 9, "velocity": 76}, {"time": 3538, "pitch": 56, "duration": 6, "velocity": 102}, {"time": 3538, "pitch": 63, "duration": 13, "velocity": 89}, {"time": 3544, "pitch": 51, "duration": 9, "velocity": 76}, {"time": 3550, "pitch": 56, "duration": 3, "velocity": 57}, {"time": 3556, "pitch": 44, "duration": 48, "velocity": 102}, {"time": 3556, "pitch": 56, "duration": 6, "velocity": 84}, {"time": 3556, "pitch": 59, "duration": 7, "velocity": 77}, {"time": 3556, "pitch": 63, "duration": 13, "velocity": 94}, {"time": 3562, "pitch": 51, "duration": 14, "velocity": 66}, {"time": 3568, "pitch": 56, "duration": 2, "velocity": 76}, {"time": 3574, "pitch": 56, "duration": 7, "velocity": 97}, {"time": 3574, "pitch": 59, "duration": 8, "velocity": 105}, {"time": 3574, "pitch": 63, "duration": 7, "velocity": 97}, {"time": 3574, "pitch": 68, "duration": 6, "velocity": 84}, {"time": 3580, "pitch": 51, "duration": 24, "velocity": 87}, {"time": 3586, "pitch": 56, "duration": 3, "velocity": 100}, {"time": 3592, "pitch": 56, "duration": 2, "velocity": 102}, {"time": 3592, "pitch": 59, "duration": 9, "velocity": 102}, {"time": 3592, "pitch": 63, "duration": 9, "velocity": 105}, {"time": 3598, "pitch": 56, "duration": 5, "velocity": 108}, {"time": 3604, "pitch": 40, "duration": 20, "velocity": 92}, {"time": 3604, "pitch": 52, "duration": 20, "velocity": 102}, {"time": 3604, "pitch": 64, "duration": 7, "velocity": 93}, {"time": 3604, "pitch": 68, "duration": 9, "velocity": 92}, {"time": 3610, "pitch": 59, "duration": 14, "velocity": 52}, {"time": 3616, "pitch": 64, "duration": 3, "velocity": 99}, {"time": 3622, "pitch": 64, "duration": 7, "velocity": 96}, {"time": 3622, "pitch": 68, "duration": 7, "velocity": 102}, {"time": 3628, "pitch": 40, "duration": 8, "velocity": 75}, {"time": 3628, "pitch": 52, "duration": 8, "velocity": 85}, {"time": 3628, "pitch": 59, "duration": 8, "velocity": 79}, {"time": 3634, "pitch": 64, "duration": 3, "velocity": 96}, {"time": 3640, "pitch": 64, "duration": 3, "velocity": 82}, {"time": 3640, "pitch": 68, "duration": 3, "velocity": 89}, {"time": 3640, "pitch": 71, "duration": 4, "velocity": 65}, {"time": 3652, "pitch": 42, "duration": 38, "velocity": 92}, {"time": 3652, "pitch": 54, "duration": 38, "velocity": 102}, {"time": 3652, "pitch": 61, "duration": 7, "velocity": 84}, {"time": 3652, "pitch": 66, "duration": 13, "velocity": 89}, {"time": 3658, "pitch": 58, "duration": 16, "velocity": 100}, {"time": 3664, "pitch": 61, "duration": 3, "velocity": 105}, {"time": 3670, "pitch": 61, "duration": 7, "velocity": 105}, {"time": 3670, "pitch": 66, "duration": 9, "velocity": 114}, {"time": 3676, "pitch": 58, "duration": 13, "velocity": 37}, {"time": 3682, "pitch": 61, "duration": 3, "velocity": 94}, {"time": 3682, "pitch": 66, "duration": 1, "velocity": 8}, {"time": 3688, "pitch": 61, "duration": 1, "velocity": 57}, {"time": 3688, "pitch": 66, "duration": 4, "velocity": 97}, {"time": 3688, "pitch": 70, "duration": 5, "velocity": 97}, {"time": 3700, "pitch": 39, "duration": 33, "velocity": 84}, {"time": 3700, "pitch": 51, "duration": 33, "velocity": 94}, {"time": 3700, "pitch": 63, "duration": 6, "velocity": 87}, {"time": 3700, "pitch": 66, "duration": 8, "velocity": 92}, {"time": 3706, "pitch": 58, "duration": 14, "velocity": 87}, {"time": 3712, "pitch": 63, "duration": 2, "velocity": 69}, {"time": 3718, "pitch": 63, "duration": 6, "velocity": 105}, {"time": 3718, "pitch": 70, "duration": 6, "velocity": 100}, {"time": 3724, "pitch": 58, "duration": 14, "velocity": 82}, {"time": 3730, "pitch": 63, "duration": 5, "velocity": 92}, {"time": 3730, "pitch": 66, "duration": 6, "velocity": 94}, {"time": 3736, "pitch": 39, "duration": 1, "velocity": 7}, {"time": 3736, "pitch": 51, "duration": 1, "velocity": 17}, {"time": 3742, "pitch": 63, "duration": 3, "velocity": 94}, {"time": 3748, "pitch": 32, "duration": 36, "velocity": 90}, {"time": 3748, "pitch": 44, "duration": 36, "velocity": 100}, {"time": 3748, "pitch": 63, "duration": 4, "velocity": 94}, {"time": 3748, "pitch": 68, "duration": 8, "velocity": 100}, {"time": 3754, "pitch": 51, "duration": 16, "velocity": 67}, {"time": 3760, "pitch": 63, "duration": 3, "velocity": 94}, {"time": 3766, "pitch": 63, "duration": 5, "velocity": 102}, {"time": 3766, "pitch": 68, "duration": 6, "velocity": 111}, {"time": 3766, "pitch": 71, "duration": 13, "velocity": 96}, {"time": 3772, "pitch": 51, "duration": 12, "velocity": 47}, {"time": 3778, "pitch": 63, "duration": 2, "velocity": 97}, {"time": 3784, "pitch": 63, "duration": 3, "velocity": 108}, {"time": 3784, "pitch": 68, "duration": 2, "velocity": 111}, {"time": 3796, "pitch": 37, "duration": 39, "velocity": 90}, {"time": 3796, "pitch": 49, "duration": 39, "velocity": 100}, {"time": 3796, "pitch": 61, "duration": 6, "velocity": 92}, {"time": 3796, "pitch": 68, "duration": 14, "velocity": 92}, {"time": 3802, "pitch": 56, "duration": 31, "velocity": 60}, {"time": 3808, "pitch": 61, "duration": 3, "velocity": 82}, {"time": 3814, "pitch": 61, "duration": 9, "velocity": 97}, {"time": 3814, "pitch": 64, "duration": 13, "velocity": 109}, {"time": 3814, "pitch": 68, "duration": 14, "velocity": 97}, {"time": 3832, "pitch": 61, "duration": 3, "velocity": 97}, {"time": 3832, "pitch": 64, "duration": 5, "velocity": 105}, {"time": 3832, "pitch": 68, "duration": 7, "velocity": 97}, {"time": 3844, "pitch": 30, "duration": 46, "velocity": 90}, {"time": 3844, "pitch": 42, "duration": 46, "velocity": 100}, {"time": 3844, "pitch": 54, "duration": 7, "velocity": 89}, {"time": 3844, "pitch": 58, "duration": 9, "velocity": 94}, {"time": 3850, "pitch": 37, "duration": 40, "velocity": 59}, {"time": 3850, "pitch": 49, "duration": 40, "velocity": 69}, {"time": 3856, "pitch": 54, "duration": 3, "velocity": 89}, {"time": 3862, "pitch": 54, "duration": 6, "velocity": 105}, {"time": 3862, "pitch": 66, "duration": 4, "velocity": 97}, {"time": 3874, "pitch": 54, "duration": 3, "velocity": 89}, {"time": 3874, "pitch": 58, "duration": 15, "velocity": 108}, {"time": 3874, "pitch": 61, "duration": 16, "velocity": 100}, {"time": 3880, "pitch": 54, "duration": 10, "velocity": 84}, {"time": 3892, "pitch": 39, "duration": 41, "velocity": 87}, {"time": 3892, "pitch": 51, "duration": 41, "velocity": 97}, {"time": 3892, "pitch": 63, "duration": 8, "velocity": 87}, {"time": 3892, "pitch": 66, "duration": 13, "velocity": 97}, {"time": 3898, "pitch": 58, "duration": 15, "velocity": 94}, {"time": 3904, "pitch": 63, "duration": 3, "velocity": 92}, {"time": 3910, "pitch": 63, "duration": 9, "velocity": 102}, {"time": 3910, "pitch": 66, "duration": 12, "velocity": 105}, {"time": 3910, "pitch": 70, "duration": 13, "velocity": 102}, {"time": 3916, "pitch": 58, "duration": 14, "velocity": 84}, {"time": 3928, "pitch": 63, "duration": 4, "velocity": 108}, {"time": 3928, "pitch": 66, "duration": 6, "velocity": 111}, {"time": 3934, "pitch": 63, "duration": 3, "velocity": 78}, {"time": 3940, "pitch": 32, "duration": 47, "velocity": 90}, {"time": 3940, "pitch": 44, "duration": 47, "velocity": 100}, {"time": 3940, "pitch": 63, "duration": 6, "velocity": 84}, {"time": 3940, "pitch": 68, "duration": 5, "velocity": 97}, {"time": 3946, "pitch": 51, "duration": 14, "velocity": 78}, {"time": 3952, "pitch": 56, "duration": 3, "velocity": 100}, {"time": 3958, "pitch": 56, "duration": 6, "velocity": 92}, {"time": 3958, "pitch": 59, "duration": 6, "velocity": 105}, {"time": 3958, "pitch": 63, "duration": 6, "velocity": 105}, {"time": 3964, "pitch": 51, "duration": 23, "velocity": 80}, {"time": 3970, "pitch": 56, "duration": 3, "velocity": 94}, {"time": 3976, "pitch": 59, "duration": 10, "velocity": 112}, {"time": 3976, "pitch": 63, "duration": 11, "velocity": 111}, {"time": 3976, "pitch": 68, "duration": 11, "velocity": 97}, {"time": 3982, "pitch": 56, "duration": 5, "velocity": 102}, {"time": 3988, "pitch": 40, "duration": 20, "velocity": 92}, {"time": 3988, "pitch": 52, "duration": 20, "velocity": 102}, {"time": 3988, "pitch": 64, "duration": 7, "velocity": 93}, {"time": 3988, "pitch": 68, "duration": 9, "velocity": 92}, {"time": 3994, "pitch": 59, "duration": 14, "velocity": 52}, {"time": 4000, "pitch": 64, "duration": 3, "velocity": 99}, {"time": 4006, "pitch": 64, "duration": 7, "velocity": 96}, {"time": 4006, "pitch": 68, "duration": 7, "velocity": 102}, {"time": 4012, "pitch": 40, "duration": 8, "velocity": 75}, {"time": 4012, "pitch": 52, "duration": 8, "velocity": 85}, {"time": 4012, "pitch": 59, "duration": 8, "velocity": 79}, {"time": 4018, "pitch": 64, "duration": 3, "velocity": 96}, {"time": 4024, "pitch": 64, "duration": 3, "velocity": 82}, {"time": 4024, "pitch": 68, "duration": 3, "velocity": 89}, {"time": 4024, "pitch": 71, "duration": 4, "velocity": 65}, {"time": 4036, "pitch": 42, "duration": 38, "velocity": 92}, {"time": 4036, "pitch": 54, "duration": 38, "velocity": 102}, {"time": 4036, "pitch": 61, "duration": 7, "velocity": 84}, {"time": 4036, "pitch": 66, "duration": 13, "velocity": 89}, {"time": 4042, "pitch": 58, "duration": 16, "velocity": 100}, {"time": 4048, "pitch": 61, "duration": 3, "velocity": 105}, {"time": 4054, "pitch": 61, "duration": 7, "velocity": 105}, {"time": 4054, "pitch": 66, "duration": 9, "velocity": 114}, {"time": 4060, "pitch": 58, "duration": 13, "velocity": 37}, {"time": 4066, "pitch": 61, "duration": 3, "velocity": 94}, {"time": 4066, "pitch": 66, "duration": 1, "velocity": 8}, {"time": 4072, "pitch": 61, "duration": 1, "velocity": 57}, {"time": 4072, "pitch": 66, "duration": 4, "velocity": 97}, {"time": 4072, "pitch": 70, "duration": 5, "velocity": 97}, {"time": 4084, "pitch": 39, "duration": 33, "velocity": 84}, {"time": 4084, "pitch": 51, "duration": 33, "velocity": 94}, {"time": 4084, "pitch": 63, "duration": 6, "velocity": 87}, {"time": 4084, "pitch": 66, "duration": 8, "velocity": 92}, {"time": 4090, "pitch": 58, "duration": 14, "velocity": 87}, {"time": 4096, "pitch": 63, "duration": 2, "velocity": 69}, {"time": 4102, "pitch": 63, "duration": 6, "velocity": 105}, {"time": 4102, "pitch": 70, "duration": 6, "velocity": 100}, {"time": 4108, "pitch": 58, "duration": 14, "velocity": 82}, {"time": 4114, "pitch": 63, "duration": 5, "velocity": 92}, {"time": 4114, "pitch": 66, "duration": 6, "velocity": 94}, {"time": 4120, "pitch": 39, "duration": 1, "velocity": 7}, {"time": 4120, "pitch": 51, "duration": 1, "velocity": 17}, {"time": 4126, "pitch": 63, "duration": 3, "velocity": 94}, {"time": 4132, "pitch": 32, "duration": 36, "velocity": 90}, {"time": 4132, "pitch": 44, "duration": 36, "velocity": 100}, {"time": 4132, "pitch": 63, "duration": 4, "velocity": 94}, {"time": 4132, "pitch": 68, "duration": 8, "velocity": 100}, {"time": 4138, "pitch": 51, "duration": 16, "velocity": 67}, {"time": 4144, "pitch": 63, "duration": 3, "velocity": 94}, {"time": 4150, "pitch": 63, "duration": 5, "velocity": 102}, {"time": 4150, "pitch": 68, "duration": 6, "velocity": 111}, {"time": 4150, "pitch": 71, "duration": 13, "velocity": 96}, {"time": 4156, "pitch": 51, "duration": 12, "velocity": 47}, {"time": 4162, "pitch": 63, "duration": 2, "velocity": 97}, {"time": 4168, "pitch": 63, "duration": 3, "velocity": 108}, {"time": 4168, "pitch": 68, "duration": 2, "velocity": 111}, {"time": 4180, "pitch": 37, "duration": 39, "velocity": 90}, {"time": 4180, "pitch": 49, "duration": 39, "velocity": 100}, {"time": 4180, "pitch": 61, "duration": 6, "velocity": 92}, {"time": 4180, "pitch": 68, "duration": 14, "velocity": 92}, {"time": 4186, "pitch": 56, "duration": 31, "velocity": 60}, {"time": 4192, "pitch": 61, "duration": 3, "velocity": 82}, {"time": 4198, "pitch": 61, "duration": 9, "velocity": 97}, {"time": 4198, "pitch": 64, "duration": 13, "velocity": 109}, {"time": 4198, "pitch": 68, "duration": 14, "velocity": 97}, {"time": 4216, "pitch": 61, "duration": 3, "velocity": 97}, {"time": 4216, "pitch": 64, "duration": 5, "velocity": 105}, {"time": 4216, "pitch": 68, "duration": 7, "velocity": 97}, {"time": 4228, "pitch": 30, "duration": 46, "velocity": 90}, {"time": 4228, "pitch": 42, "duration": 46, "velocity": 100}, {"time": 4228, "pitch": 54, "duration": 7, "velocity": 89}, {"time": 4228, "pitch": 58, "duration": 9, "velocity": 94}, {"time": 4234, "pitch": 37, "duration": 40, "velocity": 59}, {"time": 4234, "pitch": 49, "duration": 40, "velocity": 69}, {"time": 4240, "pitch": 54, "duration": 3, "velocity": 89}, {"time": 4246, "pitch": 54, "duration": 6, "velocity": 105}, {"time": 4246, "pitch": 66, "duration": 4, "velocity": 97}, {"time": 4258, "pitch": 54, "duration": 3, "velocity": 89}, {"time": 4258, "pitch": 58, "duration": 15, "velocity": 108}, {"time": 4258, "pitch": 61, "duration": 16, "velocity": 100}, {"time": 4264, "pitch": 54, "duration": 10, "velocity": 84}, {"time": 4276, "pitch": 39, "duration": 44, "velocity": 94}, {"time": 4276, "pitch": 51, "duration": 44, "velocity": 102}, {"time": 4276, "pitch": 63, "duration": 6, "velocity": 89}, {"time": 4276, "pitch": 66, "duration": 7, "velocity": 100}, {"time": 4282, "pitch": 58, "duration": 14, "velocity": 67}, {"time": 4288, "pitch": 63, "duration": 3, "velocity": 92}, {"time": 4294, "pitch": 63, "duration": 5, "velocity": 108}, {"time": 4294, "pitch": 70, "duration": 5, "velocity": 100}, {"time": 4300, "pitch": 58, "duration": 9, "velocity": 92}, {"time": 4306, "pitch": 63, "duration": 9, "velocity": 108}, {"time": 4306, "pitch": 66, "duration": 10, "velocity": 117}, {"time": 4318, "pitch": 63, "duration": 3, "velocity": 84}, {"time": 4324, "pitch": 39, "duration": 32, "velocity": 94}, {"time": 4324, "pitch": 51, "duration": 32, "velocity": 102}, {"time": 4324, "pitch": 63, "duration": 13, "velocity": 87}, {"time": 4324, "pitch": 66, "duration": 12, "velocity": 94}, {"time": 4336, "pitch": 58, "duration": 18, "velocity": 60}, {"time": 4342, "pitch": 63, "duration": 8, "velocity": 108}, {"time": 4342, "pitch": 70, "duration": 8, "velocity": 105}, {"time": 4354, "pitch": 63, "duration": 7, "velocity": 97}, {"time": 4354, "pitch": 66, "duration": 7, "velocity": 105}, {"time": 4360, "pitch": 58, "duration": 3, "velocity": 89}, {"time": 4366, "pitch": 63, "duration": 3, "velocity": 87}, {"time": 4372, "pitch": 32, "duration": 45, "velocity": 89}, {"time": 4372, "pitch": 44, "duration": 45, "velocity": 97}, {"time": 4372, "pitch": 63, "duration": 14, "velocity": 92}, {"time": 4372, "pitch": 68, "duration": 13, "velocity": 97}, {"time": 4384, "pitch": 51, "duration": 8, "velocity": 64}, {"time": 4390, "pitch": 63, "duration": 6, "velocity": 94}, {"time": 4390, "pitch": 71, "duration": 6, "velocity": 102}, {"time": 4396, "pitch": 51, "duration": 8, "velocity": 73}, {"time": 4402, "pitch": 63, "duration": 4, "velocity": 92}, {"time": 4402, "pitch": 68, "duration": 4, "velocity": 111}, {"time": 4414, "pitch": 63, "duration": 1, "velocity": 35}, {"time": 4420, "pitch": 32, "duration": 22, "velocity": 92}, {"time": 4420, "pitch": 44, "duration": 22, "velocity": 100}, {"time": 4420, "pitch": 63, "duration": 5, "velocity": 97}, {"time": 4420, "pitch": 68, "duration": 6, "velocity": 102}, {"time": 4426, "pitch": 51, "duration": 15, "velocity": 76}, {"time": 4432, "pitch": 63, "duration": 2, "velocity": 80}, {"time": 4438, "pitch": 63, "duration": 23, "velocity": 108}, {"time": 4438, "pitch": 68, "duration": 23, "velocity": 111}, {"time": 4468, "pitch": 40, "duration": 8, "velocity": 89}, {"time": 4468, "pitch": 68, "duration": 12, "velocity": 89}, {"time": 4474, "pitch": 47, "duration": 3, "velocity": 7}, {"time": 4480, "pitch": 64, "duration": 3, "velocity": 84}, {"time": 4486, "pitch": 64, "duration": 18, "velocity": 92}, {"time": 4486, "pitch": 68, "duration": 18, "velocity": 102}, {"time": 4516, "pitch": 42, "duration": 6, "velocity": 84}, {"time": 4516, "pitch": 61, "duration": 6, "velocity": 66}, {"time": 4516, "pitch": 66, "duration": 8, "velocity": 87}, {"time": 4522, "pitch": 49, "duration": 3, "velocity": 62}, {"time": 4528, "pitch": 61, "duration": 4, "velocity": 105}, {"time": 4534, "pitch": 61, "duration": 8, "velocity": 73}, {"time": 4534, "pitch": 70, "duration": 18, "velocity": 92}, {"time": 4564, "pitch": 51, "duration": 26, "velocity": 89}, {"time": 4564, "pitch": 66, "duration": 9, "velocity": 58}, {"time": 4570, "pitch": 58, "duration": 18, "velocity": 78}, {"time": 4576, "pitch": 63, "duration": 3, "velocity": 102}, {"time": 4582, "pitch": 63, "duration": 17, "velocity": 94}, {"time": 4582, "pitch": 66, "duration": 17, "velocity": 105}, {"time": 4612, "pitch": 44, "duration": 41, "velocity": 80}, {"time": 4612, "pitch": 63, "duration": 7, "velocity": 89}, {"time": 4612, "pitch": 68, "duration": 8, "velocity": 89}, {"time": 4618, "pitch": 51, "duration": 34, "velocity": 60}, {"time": 4624, "pitch": 63, "duration": 3, "velocity": 97}, {"time": 4630, "pitch": 63, "duration": 22, "velocity": 100}, {"time": 4630, "pitch": 71, "duration": 21, "velocity": 97}, {"time": 4660, "pitch": 49, "duration": 37, "velocity": 76}, {"time": 4660, "pitch": 61, "duration": 7, "velocity": 82}, {"time": 4660, "pitch": 64, "duration": 13, "velocity": 87}, {"time": 4666, "pitch": 56, "duration": 14, "velocity": 78}, {"time": 4672, "pitch": 61, "duration": 3, "velocity": 94}, {"time": 4678, "pitch": 61, "duration": 14, "velocity": 92}, {"time": 4678, "pitch": 68, "duration": 19, "velocity": 92}, {"time": 4696, "pitch": 64, "duration": 5, "velocity": 87}, {"time": 4708, "pitch": 42, "duration": 46, "velocity": 89}, {"time": 4714, "pitch": 49, "duration": 14, "velocity": 64}, {"time": 4720, "pitch": 54, "duration": 7, "velocity": 94}, {"time": 4726, "pitch": 61, "duration": 10, "velocity": 102}, {"time": 4732, "pitch": 49, "duration": 22, "velocity": 66}, {"time": 4738, "pitch": 54, "duration": 4, "velocity": 84}, {"time": 4744, "pitch": 61, "duration": 10, "velocity": 92}, {"time": 4744, "pitch": 66, "duration": 11, "velocity": 97}, {"time": 4750, "pitch": 54, "duration": 4, "velocity": 97}, {"time": 4756, "pitch": 51, "duration": 36, "velocity": 71}, {"time": 4756, "pitch": 63, "duration": 7, "velocity": 94}, {"time": 4756, "pitch": 66, "duration": 12, "velocity": 94}, {"time": 4762, "pitch": 58, "duration": 14, "velocity": 57}, {"time": 4768, "pitch": 63, "duration": 2, "velocity": 102}, {"time": 4774, "pitch": 63, "duration": 13, "velocity": 94}, {"time": 4774, "pitch": 66, "duration": 18, "velocity": 105}, {"time": 4786, "pitch": 58, "duration": 6, "velocity": 62}, {"time": 4792, "pitch": 63, "duration": 7, "velocity": 111}, {"time": 4798, "pitch": 66, "duration": 4, "velocity": 102}, {"time": 4804, "pitch": 44, "duration": 22, "velocity": 53}, {"time": 4804, "pitch": 68, "duration": 8, "velocity": 92}, {"time": 4810, "pitch": 51, "duration": 13, "velocity": 100}, {"time": 4816, "pitch": 56, "duration": 3, "velocity": 114}, {"time": 4822, "pitch": 56, "duration": 7, "velocity": 105}, {"time": 4822, "pitch": 59, "duration": 7, "velocity": 120}, {"time": 4828, "pitch": 44, "duration": 24, "velocity": 34}, {"time": 4828, "pitch": 51, "duration": 24, "velocity": 94}, {"time": 4834, "pitch": 56, "duration": 3, "velocity": 117}, {"time": 4840, "pitch": 56, "duration": 3, "velocity": 111}, {"time": 4840, "pitch": 59, "duration": 4, "velocity": 114}, {"time": 4846, "pitch": 54, "duration": 5, "velocity": 108}, {"time": 4846, "pitch": 58, "duration": 5, "velocity": 117}, {"time": 4852, "pitch": 40, "duration": 21, "velocity": 100}, {"time": 4852, "pitch": 52, "duration": 7, "velocity": 105}, {"time": 4852, "pitch": 59, "duration": 12, "velocity": 102}, {"time": 4858, "pitch": 47, "duration": 14, "velocity": 35}, {"time": 4864, "pitch": 52, "duration": 2, "velocity": 105}, {"time": 4870, "pitch": 52, "duration": 17, "velocity": 108}, {"time": 4870, "pitch": 59, "duration": 16, "velocity": 114}, {"time": 4882, "pitch": 40, "duration": 10, "velocity": 76}, {"time": 4888, "pitch": 47, "duration": 6, "velocity": 100}, {"time": 4894, "pitch": 52, "duration": 3, "velocity": 105}, {"time": 4894, "pitch": 59, "duration": 4, "velocity": 102}, {"time": 4900, "pitch": 42, "duration": 39, "velocity": 111}, {"time": 4900, "pitch": 54, "duration": 7, "velocity": 94}, {"time": 4900, "pitch": 58, "duration": 8, "velocity": 111}, {"time": 4906, "pitch": 49, "duration": 15, "velocity": 84}, {"time": 4912, "pitch": 54, "duration": 3, "velocity": 97}, {"time": 4918, "pitch": 54, "duration": 7, "velocity": 111}, {"time": 4918, "pitch": 61, "duration": 12, "velocity": 111}, {"time": 4924, "pitch": 49, "duration": 15, "velocity": 80}, {"time": 4927, "pitch": 54, "duration": 3, "velocity": 89}, {"time": 4936, "pitch": 54, "duration": 2, "velocity": 111}, {"time": 4936, "pitch": 61, "duration": 9, "velocity": 105}, {"time": 4936, "pitch": 66, "duration": 8, "velocity": 100}, {"time": 4942, "pitch": 54, "duration": 4, "velocity": 82}, {"time": 4948, "pitch": 51, "duration": 21, "velocity": 108}, {"time": 4948, "pitch": 58, "duration": 4, "velocity": 105}, {"time": 4948, "pitch": 66, "duration": 10, "velocity": 102}, {"time": 4954, "pitch": 58, "duration": 7, "velocity": 94}, {"time": 4960, "pitch": 63, "duration": 3, "velocity": 84}, {"time": 4966, "pitch": 58, "duration": 7, "velocity": 108}, {"time": 4966, "pitch": 63, "duration": 7, "velocity": 114}, {"time": 4966, "pitch": 66, "duration": 10, "velocity": 114}, {"time": 4972, "pitch": 51, "duration": 11, "velocity": 92}, {"time": 4978, "pitch": 58, "duration": 2, "velocity": 114}, {"time": 4984, "pitch": 58, "duration": 2, "velocity": 105}, {"time": 4984, "pitch": 63, "duration": 6, "velocity": 111}, {"time": 4990, "pitch": 58, "duration": 3, "velocity": 97}, {"time": 4996, "pitch": 44, "duration": 45, "velocity": 94}, {"time": 4996, "pitch": 56, "duration": 7, "velocity": 111}, {"time": 4996, "pitch": 59, "duration": 12, "velocity": 108}, {"time": 5002, "pitch": 51, "duration": 14, "velocity": 80}, {"time": 5008, "pitch": 56, "duration": 2, "velocity": 105}, {"time": 5014, "pitch": 56, "duration": 7, "velocity": 114}, {"time": 5014, "pitch": 59, "duration": 8, "velocity": 102}, {"time": 5014, "pitch": 63, "duration": 10, "velocity": 111}, {"time": 5020, "pitch": 51, "duration": 21, "velocity": 84}, {"time": 5026, "pitch": 56, "duration": 3, "velocity": 114}, {"time": 5032, "pitch": 56, "duration": 3, "velocity": 108}, {"time": 5032, "pitch": 59, "duration": 7, "velocity": 111}, {"time": 5032, "pitch": 63, "duration": 7, "velocity": 108}, {"time": 5038, "pitch": 56, "duration": 3, "velocity": 97}, {"time": 5044, "pitch": 49, "duration": 36, "velocity": 108}, {"time": 5044, "pitch": 56, "duration": 5, "velocity": 114}, {"time": 5044, "pitch": 61, "duration": 12, "velocity": 105}, {"time": 5050, "pitch": 52, "duration": 16, "velocity": 31}, {"time": 5056, "pitch": 56, "duration": 3, "velocity": 100}, {"time": 5062, "pitch": 56, "duration": 7, "velocity": 120}, {"time": 5062, "pitch": 64, "duration": 9, "velocity": 111}, {"time": 5068, "pitch": 52, "duration": 12, "velocity": 78}, {"time": 5074, "pitch": 56, "duration": 2, "velocity": 111}, {"time": 5080, "pitch": 56, "duration": 3, "velocity": 117}, {"time": 5080, "pitch": 61, "duration": 5, "velocity": 114}, {"time": 5086, "pitch": 56, "duration": 3, "velocity": 87}, {"time": 5092, "pitch": 42, "duration": 32, "velocity": 100}, {"time": 5092, "pitch": 54, "duration": 8, "velocity": 94}, {"time": 5092, "pitch": 58, "duration": 11, "velocity": 102}, {"time": 5098, "pitch": 49, "duration": 15, "velocity": 67}, {"time": 5104, "pitch": 54, "duration": 2, "velocity": 82}, {"time": 5110, "pitch": 54, "duration": 8, "velocity": 114}, {"time": 5110, "pitch": 61, "duration": 8, "velocity": 105}, {"time": 5116, "pitch": 49, "duration": 8, "velocity": 73}, {"time": 5122, "pitch": 54, "duration": 7, "velocity": 102}, {"time": 5122, "pitch": 58, "duration": 8, "velocity": 108}, {"time": 5122, "pitch": 61, "duration": 9, "velocity": 102}, {"time": 5128, "pitch": 42, "duration": 9, "velocity": 97}, {"time": 5134, "pitch": 54, "duration": 4, "velocity": 114}, {"time": 5134, "pitch": 58, "duration": 3, "velocity": 84}, {"time": 5134, "pitch": 61, "duration": 3, "velocity": 67}, {"time": 5140, "pitch": 51, "duration": 40, "velocity": 111}, {"time": 5140, "pitch": 58, "duration": 3, "velocity": 102}, {"time": 5140, "pitch": 63, "duration": 7, "velocity": 108}, {"time": 5146, "pitch": 58, "duration": 7, "velocity": 97}, {"time": 5152, "pitch": 63, "duration": 3, "velocity": 82}, {"time": 5158, "pitch": 58, "duration": 4, "velocity": 108}, {"time": 5158, "pitch": 66, "duration": 4, "velocity": 114}, {"time": 5170, "pitch": 58, "duration": 3, "velocity": 123}, {"time": 5170, "pitch": 63, "duration": 5, "velocity": 120}, {"time": 5182, "pitch": 58, "duration": 4, "velocity": 105}, {"time": 5188, "pitch": 51, "duration": 21, "velocity": 117}, {"time": 5188, "pitch": 58, "duration": 3, "velocity": 117}, {"time": 5188, "pitch": 63, "duration": 6, "velocity": 105}, {"time": 5194, "pitch": 58, "duration": 7, "velocity": 94}, {"time": 5200, "pitch": 63, "duration": 2, "velocity": 80}, {"time": 5206, "pitch": 58, "duration": 5, "velocity": 108}, {"time": 5206, "pitch": 66, "duration": 6, "velocity": 114}, {"time": 5212, "pitch": 51, "duration": 10, "velocity": 100}, {"time": 5218, "pitch": 58, "duration": 4, "velocity": 117}, {"time": 5218, "pitch": 63, "duration": 8, "velocity": 120}, {"time": 5230, "pitch": 58, "duration": 3, "velocity": 117}, {"time": 5236, "pitch": 44, "duration": 48, "velocity": 111}, {"time": 5236, "pitch": 56, "duration": 7, "velocity": 108}, {"time": 5236, "pitch": 59, "duration": 7, "velocity": 108}, {"time": 5242, "pitch": 51, "duration": 14, "velocity": 53}, {"time": 5248, "pitch": 56, "duration": 2, "velocity": 105}, {"time": 5254, "pitch": 56, "duration": 6, "velocity": 114}, {"time": 5254, "pitch": 63, "duration": 5, "velocity": 108}, {"time": 5260, "pitch": 51, "duration": 8, "velocity": 89}, {"time": 5266, "pitch": 56, "duration": 9, "velocity": 111}, {"time": 5266, "pitch": 59, "duration": 16, "velocity": 114}, {"time": 5266, "pitch": 63, "duration": 17, "velocity": 114}, {"time": 5272, "pitch": 51, "duration": 12, "velocity": 87}, {"time": 5284, "pitch": 32, "duration": 22, "velocity": 92}, {"time": 5284, "pitch": 44, "duration": 1, "velocity": 100}, {"time": 5284, "pitch": 63, "duration": 5, "velocity": 97}, {"time": 5284, "pitch": 68, "duration": 6, "velocity": 102}, {"time": 5290, "pitch": 51, "duration": 15, "velocity": 76}, {"time": 5296, "pitch": 63, "duration": 2, "velocity": 80}, {"time": 5302, "pitch": 63, "duration": 23, "velocity": 108}, {"time": 5302, "pitch": 68, "duration": 23, "velocity": 111}, {"time": 5332, "pitch": 32, "duration": 5, "velocity": 100}, {"time": 5332, "pitch": 44, "duration": 5, "velocity": 100}, {"time": 5332, "pitch": 56, "duration": 5, "velocity": 84}, {"time": 5332, "pitch": 59, "duration": 4, "velocity": 99}, {"time": 5332, "pitch": 63, "duration": 6, "velocity": 94}, {"time": 5350, "pitch": 30, "duration": 3, "velocity": 92}, {"time": 5350, "pitch": 42, "duration": 3, "velocity": 92}, {"time": 5350, "pitch": 54, "duration": 2, "velocity": 73}, {"time": 5350, "pitch": 58, "duration": 4, "velocity": 92}, {"time": 5356, "pitch": 32, "duration": 5, "velocity": 100}, {"time": 5356, "pitch": 44, "duration": 5, "velocity": 100}, {"time": 5356, "pitch": 56, "duration": 5, "velocity": 69}, {"time": 5356, "pitch": 59, "duration": 5, "velocity": 72}, {"time": 5356, "pitch": 63, "duration": 2, "velocity": 2}, {"time": 5380, "pitch": 32, "duration": 5, "velocity": 97}, {"time": 5380, "pitch": 44, "duration": 5, "velocity": 97}, {"time": 5380, "pitch": 56, "duration": 4, "velocity": 87}, {"time": 5380, "pitch": 59, "duration": 4, "velocity": 102}, {"time": 5380, "pitch": 63, "duration": 5, "velocity": 94}, {"time": 5398, "pitch": 30, "duration": 3, "velocity": 94}, {"time": 5398, "pitch": 42, "duration": 3, "velocity": 94}, {"time": 5398, "pitch": 54, "duration": 3, "velocity": 66}, {"time": 5398, "pitch": 58, "duration": 4, "velocity": 78}, {"time": 5404, "pitch": 32, "duration": 7, "velocity": 105}, {"time": 5404, "pitch": 44, "duration": 7, "velocity": 105}, {"time": 5404, "pitch": 56, "duration": 6, "velocity": 76}, {"time": 5404, "pitch": 59, "duration": 6, "velocity": 90}, {"time": 5404, "pitch": 63, "duration": 6, "velocity": 89}, {"time": 5416, "pitch": 30, "duration": 11, "velocity": 92}, {"time": 5416, "pitch": 44, "duration": 11, "velocity": 92}, {"time": 5416, "pitch": 56, "duration": 11, "velocity": 84}, {"time": 5416, "pitch": 66, "duration": 11, "velocity": 100}, {"time": 5428, "pitch": 39, "duration": 5, "velocity": 100}, {"time": 5428, "pitch": 51, "duration": 5, "velocity": 100}, {"time": 5428, "pitch": 63, "duration": 5, "velocity": 89}, {"time": 5428, "pitch": 66, "duration": 5, "velocity": 94}, {"time": 5446, "pitch": 37, "duration": 3, "velocity": 97}, {"time": 5446, "pitch": 49, "duration": 3, "velocity": 97}, {"time": 5446, "pitch": 61, "duration": 3, "velocity": 84}, {"time": 5446, "pitch": 66, "duration": 3, "velocity": 80}, {"time": 5452, "pitch": 39, "duration": 5, "velocity": 97}, {"time": 5452, "pitch": 51, "duration": 5, "velocity": 97}, {"time": 5452, "pitch": 63, "duration": 4, "velocity": 84}, {"time": 5452, "pitch": 66, "duration": 4, "velocity": 94}, {"time": 5476, "pitch": 39, "duration": 6, "velocity": 100}, {"time": 5476, "pitch": 51, "duration": 6, "velocity": 100}, {"time": 5476, "pitch": 63, "duration": 5, "velocity": 94}, {"time": 5476, "pitch": 66, "duration": 5, "velocity": 92}, {"time": 5494, "pitch": 37, "duration": 3, "velocity": 92}, {"time": 5494, "pitch": 49, "duration": 3, "velocity": 92}, {"time": 5494, "pitch": 61, "duration": 3, "velocity": 84}, {"time": 5494, "pitch": 66, "duration": 3, "velocity": 82}, {"time": 5500, "pitch": 39, "duration": 9, "velocity": 105}, {"time": 5500, "pitch": 51, "duration": 9, "velocity": 105}, {"time": 5500, "pitch": 63, "duration": 8, "velocity": 89}, {"time": 5500, "pitch": 66, "duration": 8, "velocity": 97}, {"time": 5512, "pitch": 42, "duration": 11, "velocity": 108}, {"time": 5512, "pitch": 54, "duration": 11, "velocity": 108}, {"time": 5512, "pitch": 63, "duration": 10, "velocity": 84}, {"time": 5512, "pitch": 66, "duration": 10, "velocity": 92}, {"time": 5512, "pitch": 71, "duration": 11, "velocity": 87}, {"time": 5524, "pitch": 32, "duration": 23, "velocity": 100}, {"time": 5524, "pitch": 44, "duration": 23, "velocity": 100}, {"time": 5524, "pitch": 56, "duration": 22, "velocity": 84}, {"time": 5524, "pitch": 59, "duration": 22, "velocity": 99}, {"time": 5524, "pitch": 63, "duration": 24, "velocity": 94}], "annotations": [{"time": 634, "annotation": {"number": 64, "value": 127}, "group": "control_change"}, {"time": 669, "annotation": {"number": 64, "value": 0}, "group": "control_change"}, {"time": 690, "annotation": {"number": 64, "value": 127}, "group": "control_change"}, {"time": 721, "annotation": {"number": 64, "value": 0}, "group": "control_change"}, {"time": 729, "annotation": {"number": 64, "value": 127}, "group": "control_change"}, {"time": 769, "annotation": {"number": 64, "value": 0}, "group": "control_change"}, {"time": 785, "annotation": {"number": 64, "value": 127}, "group": "control_change"}, {"time": 820, "annotation": {"number": 64, "value": 0}, "group": "control_change"}, {"time": 827, "annotation": {"number": 64, "value": 127}, "group": "control_change"}, {"time": 867, "annotation": {"number": 64, "value": 0}, "group": "control_change"}, {"time": 877, "annotation": {"number": 64, "value": 127}, "group": "control_change"}, {"time": 916, "annotation": {"number": 64, "value": 0}, "group": "control_change"}, {"time": 927, "annotation": {"number": 64, "value": 127}, "group": "control_change"}, {"time": 963, "annotation": {"number": 64, "value": 0}, "group": "control_change"}, {"time": 973, "annotation": {"number": 64, "value": 127}, "group": "control_change"}, {"time": 1009, "annotation": {"number": 64, "value": 0}, "group": "control_change"}, {"time": 1018, "annotation": {"number": 64, "value": 127}, "group": "control_change"}, {"time": 1053, "annotation": {"number": 64, "value": 0}, "group": "control_change"}, {"time": 1074, "annotation": {"number": 64, "value": 127}, "group": "control_change"}, {"time": 1105, "annotation": {"number": 64, "value": 0}, "group": "control_change"}, {"time": 1113, "annotation": {"number": 64, "value": 127}, "group": "control_change"}, {"time": 1153, "annotation": {"number": 64, "value": 0}, "group": "control_change"}, {"time": 1169, "annotation": {"number": 64, "value": 127}, "group": "control_change"}, {"time": 1204, "annotation": {"number": 64, "value": 0}, "group": "control_change"}, {"time": 1211, "annotation": {"number": 64, "value": 127}, "group": "control_change"}, {"time": 1251, "annotation": {"number": 64, "value": 0}, "group": "control_change"}, {"time": 1261, "annotation": {"number": 64, "value": 127}, "group": "control_change"}, {"time": 1300, "annotation": {"number": 64, "value": 0}, "group": "control_change"}, {"time": 1311, "annotation": {"number": 64, "value": 127}, "group": "control_change"}, {"time": 1347, "annotation": {"number": 64, "value": 0}, "group": "control_change"}, {"time": 1350, "annotation": {"number": 64, "value": 127}, "group": "control_change"}, {"time": 1372, "annotation": {"number": 64, "value": 0}, "group": "control_change"}, {"time": 1377, "annotation": {"number": 64, "value": 127}, "group": "control_change"}, {"time": 1394, "annotation": {"number": 64, "value": 0}, "group": "control_change"}, {"time": 1401, "annotation": {"number": 64, "value": 127}, "group": "control_change"}, {"time": 1442, "annotation": {"number": 64, "value": 0}, "group": "control_change"}, {"time": 1447, "annotation": {"number": 64, "value": 127}, "group": "control_change"}, {"time": 1488, "annotation": {"number": 64, "value": 0}, "group": "control_change"}, {"time": 1498, "annotation": {"number": 64, "value": 127}, "group": "control_change"}, {"time": 1540, "annotation": {"number": 64, "value": 0}, "group": "control_change"}, {"time": 1549, "annotation": {"number": 64, "value": 127}, "group": "control_change"}, {"time": 1585, "annotation": {"number": 64, "value": 0}, "group": "control_change"}, {"time": 1594, "annotation": {"number": 64, "value": 127}, "group": "control_change"}, {"time": 1634, "annotation": {"number": 64, "value": 0}, "group": "control_change"}, {"time": 1640, "annotation": {"number": 64, "value": 127}, "group": "control_change"}, {"time": 1681, "annotation": {"number": 64, "value": 0}, "group": "control_change"}, {"time": 1693, "annotation": {"number": 64, "value": 127}, "group": "control_change"}, {"time": 1729, "annotation": {"number": 64, "value": 0}, "group": "control_change"}, {"time": 1740, "annotation": {"number": 64, "value": 127}, "group": "control_change"}, {"time": 1776, "annotation": {"number": 64, "value": 0}, "group": "control_change"}, {"time": 1791, "annotation": {"number": 64, "value": 127}, "group": "control_change"}, {"time": 1824, "annotation": {"number": 64, "value": 0}, "group": "control_change"}, {"time": 1833, "annotation": {"number": 64, "value": 127}, "group": "control_change"}, {"time": 1872, "annotation": {"number": 64, "value": 0}, "group": "control_change"}, {"time": 1882, "annotation": {"number": 64, "value": 127}, "group": "control_change"}, {"time": 1924, "annotation": {"number": 64, "value": 0}, "group": "control_change"}, {"time": 1933, "annotation": {"number": 64, "value": 127}, "group": "control_change"}, {"time": 1969, "annotation": {"number": 64, "value": 0}, "group": "control_change"}, {"time": 1978, "annotation": {"number": 64, "value": 127}, "group": "control_change"}, {"time": 2018, "annotation": {"number": 64, "value": 0}, "group": "control_change"}, {"time": 2024, "annotation": {"number": 64, "value": 127}, "group": "control_change"}, {"time": 2065, "annotation": {"number": 64, "value": 0}, "group": "control_change"}, {"time": 2077, "annotation": {"number": 64, "value": 127}, "group": "control_change"}, {"time": 2113, "annotation": {"number": 64, "value": 0}, "group": "control_change"}, {"time": 2124, "annotation": {"number": 64, "value": 127}, "group": "control_change"}, {"time": 2160, "annotation": {"number": 64, "value": 0}, "group": "control_change"}, {"time": 2166, "annotation": {"number": 64, "value": 127}, "group": "control_change"}, {"time": 2209, "annotation": {"number": 64, "value": 0}, "group": "control_change"}, {"time": 2235, "annotation": {"number": 64, "value": 127}, "group": "control_change"}, {"time": 2257, "annotation": {"number": 64, "value": 0}, "group": "control_change"}, {"time": 2271, "annotation": {"number": 64, "value": 127}, "group": "control_change"}, {"time": 2306, "annotation": {"number": 64, "value": 0}, "group": "control_change"}, {"time": 2310, "annotation": {"number": 64, "value": 127}, "group": "control_change"}, {"time": 2364, "annotation": {"number": 64, "value": 127}, "group": "control_change"}, {"time": 2403, "annotation": {"number": 64, "value": 0}, "group": "control_change"}, {"time": 2412, "annotation": {"number": 64, "value": 127}, "group": "control_change"}, {"time": 2450, "annotation": {"number": 64, "value": 0}, "group": "control_change"}, {"time": 2460, "annotation": {"number": 64, "value": 127}, "group": "control_change"}, {"time": 2496, "annotation": {"number": 64, "value": 0}, "group": "control_change"}, {"time": 2507, "annotation": {"number": 64, "value": 127}, "group": "control_change"}, {"time": 2545, "annotation": {"number": 64, "value": 0}, "group": "control_change"}, {"time": 2556, "annotation": {"number": 64, "value": 127}, "group": "control_change"}, {"time": 2593, "annotation": {"number": 64, "value": 0}, "group": "control_change"}, {"time": 2607, "annotation": {"number": 64, "value": 127}, "group": "control_change"}, {"time": 2641, "annotation": {"number": 64, "value": 0}, "group": "control_change"}, {"time": 2746, "annotation": {"number": 64, "value": 127}, "group": "control_change"}, {"time": 2781, "annotation": {"number": 64, "value": 0}, "group": "control_change"}, {"time": 2802, "annotation": {"number": 64, "value": 127}, "group": "control_change"}, {"time": 2833, "annotation": {"number": 64, "value": 0}, "group": "control_change"}, {"time": 2841, "annotation": {"number": 64, "value": 127}, "group": "control_change"}, {"time": 2881, "annotation": {"number": 64, "value": 0}, "group": "control_change"}, {"time": 2897, "annotation": {"number": 64, "value": 127}, "group": "control_change"}, {"time": 2932, "annotation": {"number": 64, "value": 0}, "group": "control_change"}, {"time": 2939, "annotation": {"number": 64, "value": 127}, "group": "control_change"}, {"time": 2979, "annotation": {"number": 64, "value": 0}, "group": "control_change"}, {"time": 2989, "annotation": {"number": 64, "value": 127}, "group": "control_change"}, {"time": 3028, "annotation": {"number": 64, "value": 0}, "group": "control_change"}, {"time": 3039, "annotation": {"number": 64, "value": 127}, "group": "control_change"}, {"time": 3075, "annotation": {"number": 64, "value": 0}, "group": "control_change"}, {"time": 3085, "annotation": {"number": 64, "value": 127}, "group": "control_change"}, {"time": 3121, "annotation": {"number": 64, "value": 0}, "group": "control_change"}, {"time": 3130, "annotation": {"number": 64, "value": 127}, "group": "control_change"}, {"time": 3165, "annotation": {"number": 64, "value": 0}, "group": "control_change"}, {"time": 3186, "annotation": {"number": 64, "value": 127}, "group": "control_change"}, {"time": 3217, "annotation": {"number": 64, "value": 0}, "group": "control_change"}, {"time": 3225, "annotation": {"number": 64, "value": 127}, "group": "control_change"}, {"time": 3265, "annotation": {"number": 64, "value": 0}, "group": "control_change"}, {"time": 3281, "annotation": {"number": 64, "value": 127}, "group": "control_change"}, {"time": 3316, "annotation": {"number": 64, "value": 0}, "group": "control_change"}, {"time": 3323, "annotation": {"number": 64, "value": 127}, "group": "control_change"}, {"time": 3363, "annotation": {"number": 64, "value": 0}, "group": "control_change"}, {"time": 3373, "annotation": {"number": 64, "value": 127}, "group": "control_change"}, {"time": 3412, "annotation": {"number": 64, "value": 0}, "group": "control_change"}, {"time": 3423, "annotation": {"number": 64, "value": 127}, "group": "control_change"}, {"time": 3459, "annotation": {"number": 64, "value": 0}, "group": "control_change"}, {"time": 3462, "annotation": {"number": 64, "value": 127}, "group": "control_change"}, {"time": 3484, "annotation": {"number": 64, "value": 0}, "group": "control_change"}, {"time": 3489, "annotation": {"number": 64, "value": 127}, "group": "control_change"}, {"time": 3506, "annotation": {"number": 64, "value": 0}, "group": "control_change"}, {"time": 3513, "annotation": {"number": 64, "value": 127}, "group": "control_change"}, {"time": 3554, "annotation": {"number": 64, "value": 0}, "group": "control_change"}, {"time": 3559, "annotation": {"number": 64, "value": 127}, "group": "control_change"}, {"time": 3600, "annotation": {"number": 64, "value": 0}, "group": "control_change"}, {"time": 3610, "annotation": {"number": 64, "value": 127}, "group": "control_change"}, {"time": 3652, "annotation": {"number": 64, "value": 0}, "group": "control_change"}, {"time": 3661, "annotation": {"number": 64, "value": 127}, "group": "control_change"}, {"time": 3697, "annotation": {"number": 64, "value": 0}, "group": "control_change"}, {"time": 3706, "annotation": {"number": 64, "value": 127}, "group": "control_change"}, {"time": 3746, "annotation": {"number": 64, "value": 0}, "group": "control_change"}, {"time": 3752, "annotation": {"number": 64, "value": 127}, "group": "control_change"}, {"time": 3793, "annotation": {"number": 64, "value": 0}, "group": "control_change"}, {"time": 3805, "annotation": {"number": 64, "value": 127}, "group": "control_change"}, {"time": 3841, "annotation": {"number": 64, "value": 0}, "group": "control_change"}, {"time": 3852, "annotation": {"number": 64, "value": 127}, "group": "control_change"}, {"time": 3888, "annotation": {"number": 64, "value": 0}, "group": "control_change"}, {"time": 3903, "annotation": {"number": 64, "value": 127}, "group": "control_change"}, {"time": 3936, "annotation": {"number": 64, "value": 0}, "group": "control_change"}, {"time": 3945, "annotation": {"number": 64, "value": 127}, "group": "control_change"}, {"time": 3984, "annotation": {"number": 64, "value": 0}, "group": "control_change"}, {"time": 3994, "annotation": {"number": 64, "value": 127}, "group": "control_change"}, {"time": 4036, "annotation": {"number": 64, "value": 0}, "group": "control_change"}, {"time": 4045, "annotation": {"number": 64, "value": 127}, "group": "control_change"}, {"time": 4081, "annotation": {"number": 64, "value": 0}, "group": "control_change"}, {"time": 4090, "annotation": {"number": 64, "value": 127}, "group": "control_change"}, {"time": 4130, "annotation": {"number": 64, "value": 0}, "group": "control_change"}, {"time": 4136, "annotation": {"number": 64, "value": 127}, "group": "control_change"}, {"time": 4177, "annotation": {"number": 64, "value": 0}, "group": "control_change"}, {"time": 4189, "annotation": {"number": 64, "value": 127}, "group": "control_change"}, {"time": 4225, "annotation": {"number": 64, "value": 0}, "group": "control_change"}, {"time": 4236, "annotation": {"number": 64, "value": 127}, "group": "control_change"}, {"time": 4272, "annotation": {"number": 64, "value": 0}, "group": "control_change"}, {"time": 4278, "annotation": {"number": 64, "value": 127}, "group": "control_change"}, {"time": 4321, "annotation": {"number": 64, "value": 0}, "group": "control_change"}, {"time": 4347, "annotation": {"number": 64, "value": 127}, "group": "control_change"}, {"time": 4369, "annotation": {"number": 64, "value": 0}, "group": "control_change"}, {"time": 4383, "annotation": {"number": 64, "value": 127}, "group": "control_change"}, {"time": 4418, "annotation": {"number": 64, "value": 0}, "group": "control_change"}, {"time": 4422, "annotation": {"number": 64, "value": 127}, "group": "control_change"}, {"time": 4470, "annotation": {"number": 64, "value": 127}, "group": "control_change"}, {"time": 4514, "annotation": {"number": 64, "value": 0}, "group": "control_change"}, {"time": 4519, "annotation": {"number": 64, "value": 127}, "group": "control_change"}, {"time": 4564, "annotation": {"number": 64, "value": 0}, "group": "control_change"}, {"time": 4568, "annotation": {"number": 64, "value": 127}, "group": "control_change"}, {"time": 4610, "annotation": {"number": 64, "value": 0}, "group": "control_change"}, {"time": 4617, "annotation": {"number": 64, "value": 127}, "group": "control_change"}, {"time": 4654, "annotation": {"number": 64, "value": 0}, "group": "control_change"}, {"time": 4668, "annotation": {"number": 64, "value": 127}, "group": "control_change"}, {"time": 4706, "annotation": {"number": 64, "value": 0}, "group": "control_change"}, {"time": 4711, "annotation": {"number": 64, "value": 127}, "group": "control_change"}, {"time": 4756, "annotation": {"number": 64, "value": 0}, "group": "control_change"}, {"time": 4763, "annotation": {"number": 64, "value": 127}, "group": "control_change"}, {"time": 4803, "annotation": {"number": 64, "value": 0}, "group": "control_change"}, {"time": 4810, "annotation": {"number": 64, "value": 127}, "group": "control_change"}, {"time": 4850, "annotation": {"number": 64, "value": 0}, "group": "control_change"}, {"time": 4855, "annotation": {"number": 64, "value": 127}, "group": "control_change"}, {"time": 4900, "annotation": {"number": 64, "value": 0}, "group": "control_change"}, {"time": 4908, "annotation": {"number": 64, "value": 127}, "group": "control_change"}, {"time": 4946, "annotation": {"number": 64, "value": 0}, "group": "control_change"}, {"time": 4950, "annotation": {"number": 64, "value": 127}, "group": "control_change"}, {"time": 4995, "annotation": {"number": 64, "value": 0}, "group": "control_change"}, {"time": 5004, "annotation": {"number": 64, "value": 127}, "group": "control_change"}, {"time": 5042, "annotation": {"number": 64, "value": 0}, "group": "control_change"}, {"time": 5048, "annotation": {"number": 64, "value": 127}, "group": "control_change"}, {"time": 5091, "annotation": {"number": 64, "value": 0}, "group": "control_change"}, {"time": 5100, "annotation": {"number": 64, "value": 127}, "group": "control_change"}, {"time": 5138, "annotation": {"number": 64, "value": 0}, "group": "control_change"}, {"time": 5144, "annotation": {"number": 64, "value": 127}, "group": "control_change"}, {"time": 5185, "annotation": {"number": 64, "value": 0}, "group": "control_change"}, {"time": 5190, "annotation": {"number": 64, "value": 127}, "group": "control_change"}, {"time": 5235, "annotation": {"number": 64, "value": 0}, "group": "control_change"}, {"time": 5242, "annotation": {"number": 64, "value": 127}, "group": "control_change"}, {"time": 5286, "annotation": {"number": 64, "value": 127}, "group": "control_change"}, {"time": 5318, "annotation": {"number": 64, "value": 127}, "group": "control_change"}, {"time": 5326, "annotation": {"number": 64, "value": 0}, "group": "control_change"}]}]}