{"metadata": {"schema_version": "0.2", "title": "None", "source_filename": "144.mid", "source_format": "midi"}, "resolution": 12, "tempos": [{"time": 0, "qpm": 69.00009660013524}], "key_signatures": [{"time": 0, "root": 0, "mode": "major"}], "time_signatures": [{"time": 0, "numerator": 4, "denominator": 4}, {"time": 0, "numerator": 1, "denominator": 4}], "tracks": [{"program": 0, "is_drum": false, "name": "MELODY", "notes": [{"time": 186, "pitch": 72, "duration": 1, "velocity": 92}, {"time": 189, "pitch": 72, "duration": 1, "velocity": 87}, {"time": 192, "pitch": 72, "duration": 2, "velocity": 92}, {"time": 195, "pitch": 77, "duration": 1, "velocity": 87}, {"time": 198, "pitch": 77, "duration": 1, "velocity": 94}, {"time": 201, "pitch": 77, "duration": 1, "velocity": 92}, {"time": 204, "pitch": 75, "duration": 1, "velocity": 80}, {"time": 207, "pitch": 77, "duration": 6, "velocity": 94}, {"time": 216, "pitch": 75, "duration": 2, "velocity": 87}, {"time": 219, "pitch": 75, "duration": 5, "velocity": 84}, {"time": 225, "pitch": 72, "duration": 7, "velocity": 105}, {"time": 234, "pitch": 70, "duration": 1, "velocity": 84}, {"time": 237, "pitch": 70, "duration": 2, "velocity": 94}, {"time": 240, "pitch": 68, "duration": 1, "velocity": 92}, {"time": 243, "pitch": 70, "duration": 1, "velocity": 100}, {"time": 246, "pitch": 70, "duration": 1, "velocity": 94}, {"time": 249, "pitch": 70, "duration": 1, "velocity": 100}, {"time": 252, "pitch": 70, "duration": 1, "velocity": 97}, {"time": 255, "pitch": 70, "duration": 4, "velocity": 102}, {"time": 261, "pitch": 70, "duration": 2, "velocity": 89}, {"time": 264, "pitch": 72, "duration": 2, "velocity": 84}, {"time": 267, "pitch": 68, "duration": 4, "velocity": 100}, {"time": 273, "pitch": 65, "duration": 6, "velocity": 105}, {"time": 288, "pitch": 65, "duration": 2, "velocity": 97}, {"time": 291, "pitch": 68, "duration": 15, "velocity": 100}, {"time": 312, "pitch": 65, "duration": 2, "velocity": 108}, {"time": 315, "pitch": 77, "duration": 4, "velocity": 105}, {"time": 321, "pitch": 75, "duration": 1, "velocity": 94}, {"time": 324, "pitch": 75, "duration": 1, "velocity": 87}, {"time": 327, "pitch": 75, "duration": 4, "velocity": 100}, {"time": 333, "pitch": 75, "duration": 2, "velocity": 105}, {"time": 336, "pitch": 77, "duration": 1, "velocity": 94}, {"time": 339, "pitch": 75, "duration": 4, "velocity": 111}, {"time": 345, "pitch": 70, "duration": 1, "velocity": 100}, {"time": 348, "pitch": 72, "duration": 24, "velocity": 102}, {"time": 381, "pitch": 72, "duration": 2, "velocity": 102}, {"time": 384, "pitch": 75, "duration": 1, "velocity": 97}, {"time": 387, "pitch": 77, "duration": 4, "velocity": 105}, {"time": 393, "pitch": 77, "duration": 1, "velocity": 102}, {"time": 396, "pitch": 75, "duration": 1, "velocity": 100}, {"time": 399, "pitch": 77, "duration": 7, "velocity": 105}, {"time": 408, "pitch": 75, "duration": 1, "velocity": 100}, {"time": 411, "pitch": 75, "duration": 5, "velocity": 102}, {"time": 417, "pitch": 72, "duration": 7, "velocity": 108}, {"time": 429, "pitch": 70, "duration": 2, "velocity": 100}, {"time": 432, "pitch": 68, "duration": 2, "velocity": 82}, {"time": 435, "pitch": 70, "duration": 1, "velocity": 94}, {"time": 438, "pitch": 70, "duration": 1, "velocity": 94}, {"time": 441, "pitch": 70, "duration": 2, "velocity": 102}, {"time": 444, "pitch": 68, "duration": 1, "velocity": 92}, {"time": 447, "pitch": 70, "duration": 8, "velocity": 102}, {"time": 456, "pitch": 75, "duration": 2, "velocity": 100}, {"time": 459, "pitch": 70, "duration": 4, "velocity": 82}, {"time": 465, "pitch": 72, "duration": 7, "velocity": 100}, {"time": 477, "pitch": 65, "duration": 2, "velocity": 97}, {"time": 480, "pitch": 67, "duration": 1, "velocity": 102}, {"time": 483, "pitch": 68, "duration": 6, "velocity": 80}, {"time": 489, "pitch": 68, "duration": 6, "velocity": 93}, {"time": 501, "pitch": 70, "duration": 1, "velocity": 89}, {"time": 504, "pitch": 72, "duration": 2, "velocity": 94}, {"time": 507, "pitch": 70, "duration": 8, "velocity": 114}, {"time": 519, "pitch": 67, "duration": 4, "velocity": 99}, {"time": 525, "pitch": 63, "duration": 1, "velocity": 92}, {"time": 528, "pitch": 65, "duration": 39, "velocity": 97}, {"time": 573, "pitch": 72, "duration": 1, "velocity": 105}, {"time": 576, "pitch": 72, "duration": 2, "velocity": 97}, {"time": 579, "pitch": 77, "duration": 3, "velocity": 100}, {"time": 585, "pitch": 77, "duration": 9, "velocity": 105}, {"time": 597, "pitch": 77, "duration": 2, "velocity": 111}, {"time": 600, "pitch": 75, "duration": 1, "velocity": 94}, {"time": 603, "pitch": 77, "duration": 5, "velocity": 105}, {"time": 615, "pitch": 75, "duration": 2, "velocity": 87}, {"time": 618, "pitch": 70, "duration": 6, "velocity": 102}, {"time": 627, "pitch": 72, "duration": 2, "velocity": 108}, {"time": 630, "pitch": 70, "duration": 3, "velocity": 78}, {"time": 633, "pitch": 72, "duration": 29, "velocity": 100}, {"time": 669, "pitch": 72, "duration": 1, "velocity": 92}, {"time": 672, "pitch": 72, "duration": 2, "velocity": 97}, {"time": 675, "pitch": 77, "duration": 9, "velocity": 105}, {"time": 687, "pitch": 77, "duration": 8, "velocity": 111}, {"time": 696, "pitch": 75, "duration": 1, "velocity": 53}, {"time": 699, "pitch": 77, "duration": 8, "velocity": 102}, {"time": 711, "pitch": 75, "duration": 3, "velocity": 105}, {"time": 717, "pitch": 75, "duration": 2, "velocity": 100}, {"time": 720, "pitch": 77, "duration": 2, "velocity": 102}, {"time": 723, "pitch": 75, "duration": 4, "velocity": 105}, {"time": 729, "pitch": 70, "duration": 1, "velocity": 100}, {"time": 732, "pitch": 72, "duration": 28, "velocity": 97}, {"time": 765, "pitch": 72, "duration": 2, "velocity": 108}, {"time": 768, "pitch": 70, "duration": 1, "velocity": 105}, {"time": 771, "pitch": 68, "duration": 1, "velocity": 100}, {"time": 774, "pitch": 68, "duration": 5, "velocity": 100}, {"time": 783, "pitch": 68, "duration": 4, "velocity": 108}, {"time": 789, "pitch": 68, "duration": 2, "velocity": 102}, {"time": 792, "pitch": 65, "duration": 1, "velocity": 92}, {"time": 795, "pitch": 70, "duration": 3, "velocity": 102}, {"time": 801, "pitch": 75, "duration": 2, "velocity": 87}, {"time": 804, "pitch": 70, "duration": 5, "velocity": 102}, {"time": 813, "pitch": 68, "duration": 1, "velocity": 102}, {"time": 816, "pitch": 70, "duration": 1, "velocity": 105}, {"time": 819, "pitch": 72, "duration": 4, "velocity": 105}, {"time": 825, "pitch": 75, "duration": 3, "velocity": 92}, {"time": 831, "pitch": 70, "duration": 4, "velocity": 108}, {"time": 837, "pitch": 70, "duration": 2, "velocity": 105}, {"time": 840, "pitch": 72, "duration": 2, "velocity": 92}, {"time": 843, "pitch": 70, "duration": 4, "velocity": 114}, {"time": 849, "pitch": 68, "duration": 7, "velocity": 105}, {"time": 861, "pitch": 65, "duration": 1, "velocity": 105}, {"time": 864, "pitch": 68, "duration": 1, "velocity": 100}, {"time": 867, "pitch": 72, "duration": 4, "velocity": 102}, {"time": 873, "pitch": 70, "duration": 1, "velocity": 87}, {"time": 876, "pitch": 70, "duration": 11, "velocity": 100}, {"time": 891, "pitch": 70, "duration": 6, "velocity": 105}, {"time": 897, "pitch": 70, "duration": 1, "velocity": 89}, {"time": 900, "pitch": 72, "duration": 7, "velocity": 102}, {"time": 909, "pitch": 68, "duration": 5, "velocity": 111}, {"time": 915, "pitch": 65, "duration": 31, "velocity": 108}, {"time": 951, "pitch": 72, "duration": 2, "velocity": 102}, {"time": 954, "pitch": 80, "duration": 4, "velocity": 111}, {"time": 960, "pitch": 72, "duration": 1, "velocity": 117}, {"time": 963, "pitch": 77, "duration": 9, "velocity": 97}, {"time": 975, "pitch": 77, "duration": 4, "velocity": 105}, {"time": 981, "pitch": 75, "duration": 1, "velocity": 97}, {"time": 984, "pitch": 77, "duration": 12, "velocity": 108}, {"time": 996, "pitch": 72, "duration": 2, "velocity": 105}, {"time": 999, "pitch": 80, "duration": 4, "velocity": 105}, {"time": 1005, "pitch": 77, "duration": 1, "velocity": 94}, {"time": 1008, "pitch": 75, "duration": 1, "velocity": 102}, {"time": 1011, "pitch": 77, "duration": 4, "velocity": 105}, {"time": 1017, "pitch": 75, "duration": 3, "velocity": 111}, {"time": 1020, "pitch": 72, "duration": 15, "velocity": 114}, {"time": 1047, "pitch": 64, "duration": 4, "velocity": 111}, {"time": 1053, "pitch": 72, "duration": 2, "velocity": 108}, {"time": 1056, "pitch": 68, "duration": 2, "velocity": 73}, {"time": 1059, "pitch": 70, "duration": 7, "velocity": 105}, {"time": 1068, "pitch": 70, "duration": 1, "velocity": 92}, {"time": 1071, "pitch": 70, "duration": 4, "velocity": 102}, {"time": 1077, "pitch": 70, "duration": 2, "velocity": 102}, {"time": 1080, "pitch": 68, "duration": 2, "velocity": 89}, {"time": 1083, "pitch": 70, "duration": 8, "velocity": 114}, {"time": 1095, "pitch": 75, "duration": 4, "velocity": 102}, {"time": 1101, "pitch": 77, "duration": 2, "velocity": 100}, {"time": 1104, "pitch": 75, "duration": 1, "velocity": 108}, {"time": 1107, "pitch": 72, "duration": 32, "velocity": 111}, {"time": 1143, "pitch": 72, "duration": 2, "velocity": 102}, {"time": 1146, "pitch": 80, "duration": 4, "velocity": 111}, {"time": 1152, "pitch": 72, "duration": 1, "velocity": 117}, {"time": 1155, "pitch": 77, "duration": 9, "velocity": 97}, {"time": 1167, "pitch": 77, "duration": 4, "velocity": 105}, {"time": 1173, "pitch": 75, "duration": 1, "velocity": 97}, {"time": 1176, "pitch": 77, "duration": 11, "velocity": 108}, {"time": 1188, "pitch": 72, "duration": 2, "velocity": 105}, {"time": 1191, "pitch": 80, "duration": 4, "velocity": 105}, {"time": 1197, "pitch": 77, "duration": 1, "velocity": 94}, {"time": 1200, "pitch": 75, "duration": 1, "velocity": 102}, {"time": 1203, "pitch": 77, "duration": 4, "velocity": 105}, {"time": 1209, "pitch": 75, "duration": 3, "velocity": 111}, {"time": 1212, "pitch": 72, "duration": 21, "velocity": 114}, {"time": 1239, "pitch": 64, "duration": 4, "velocity": 111}, {"time": 1245, "pitch": 72, "duration": 2, "velocity": 108}, {"time": 1248, "pitch": 68, "duration": 2, "velocity": 73}, {"time": 1251, "pitch": 70, "duration": 7, "velocity": 105}, {"time": 1263, "pitch": 70, "duration": 4, "velocity": 102}, {"time": 1269, "pitch": 68, "duration": 2, "velocity": 102}, {"time": 1272, "pitch": 70, "duration": 11, "velocity": 114}, {"time": 1287, "pitch": 68, "duration": 4, "velocity": 108}, {"time": 1293, "pitch": 70, "duration": 2, "velocity": 94}, {"time": 1296, "pitch": 68, "duration": 2, "velocity": 94}, {"time": 1299, "pitch": 65, "duration": 44, "velocity": 102}, {"time": 1530, "pitch": 70, "duration": 1, "velocity": 92}, {"time": 1533, "pitch": 72, "duration": 1, "velocity": 87}, {"time": 1536, "pitch": 72, "duration": 2, "velocity": 92}, {"time": 1539, "pitch": 77, "duration": 1, "velocity": 87}, {"time": 1542, "pitch": 77, "duration": 1, "velocity": 94}, {"time": 1545, "pitch": 77, "duration": 1, "velocity": 92}, {"time": 1548, "pitch": 75, "duration": 1, "velocity": 80}, {"time": 1551, "pitch": 77, "duration": 6, "velocity": 94}, {"time": 1560, "pitch": 75, "duration": 2, "velocity": 87}, {"time": 1563, "pitch": 75, "duration": 5, "velocity": 84}, {"time": 1565, "pitch": 72, "duration": 8, "velocity": 105}, {"time": 1578, "pitch": 70, "duration": 1, "velocity": 84}, {"time": 1581, "pitch": 70, "duration": 2, "velocity": 94}, {"time": 1584, "pitch": 68, "duration": 1, "velocity": 92}, {"time": 1587, "pitch": 70, "duration": 1, "velocity": 100}, {"time": 1590, "pitch": 70, "duration": 1, "velocity": 94}, {"time": 1593, "pitch": 70, "duration": 1, "velocity": 100}, {"time": 1596, "pitch": 70, "duration": 1, "velocity": 97}, {"time": 1599, "pitch": 70, "duration": 4, "velocity": 102}, {"time": 1605, "pitch": 70, "duration": 2, "velocity": 89}, {"time": 1608, "pitch": 72, "duration": 2, "velocity": 84}, {"time": 1611, "pitch": 68, "duration": 4, "velocity": 100}, {"time": 1617, "pitch": 65, "duration": 6, "velocity": 105}, {"time": 1632, "pitch": 65, "duration": 2, "velocity": 97}, {"time": 1635, "pitch": 68, "duration": 15, "velocity": 100}, {"time": 1656, "pitch": 65, "duration": 2, "velocity": 108}, {"time": 1659, "pitch": 77, "duration": 4, "velocity": 105}, {"time": 1665, "pitch": 75, "duration": 1, "velocity": 94}, {"time": 1668, "pitch": 75, "duration": 1, "velocity": 87}, {"time": 1671, "pitch": 75, "duration": 4, "velocity": 100}, {"time": 1677, "pitch": 75, "duration": 2, "velocity": 105}, {"time": 1680, "pitch": 77, "duration": 1, "velocity": 94}, {"time": 1683, "pitch": 75, "duration": 4, "velocity": 111}, {"time": 1689, "pitch": 70, "duration": 1, "velocity": 100}, {"time": 1692, "pitch": 72, "duration": 24, "velocity": 102}, {"time": 1725, "pitch": 72, "duration": 2, "velocity": 102}, {"time": 1728, "pitch": 75, "duration": 1, "velocity": 97}, {"time": 1731, "pitch": 77, "duration": 4, "velocity": 105}, {"time": 1737, "pitch": 77, "duration": 1, "velocity": 102}, {"time": 1740, "pitch": 75, "duration": 1, "velocity": 100}, {"time": 1743, "pitch": 77, "duration": 7, "velocity": 105}, {"time": 1752, "pitch": 75, "duration": 1, "velocity": 100}, {"time": 1755, "pitch": 75, "duration": 5, "velocity": 102}, {"time": 1761, "pitch": 72, "duration": 7, "velocity": 108}, {"time": 1773, "pitch": 70, "duration": 2, "velocity": 100}, {"time": 1776, "pitch": 68, "duration": 2, "velocity": 82}, {"time": 1779, "pitch": 70, "duration": 1, "velocity": 94}, {"time": 1782, "pitch": 70, "duration": 1, "velocity": 94}, {"time": 1785, "pitch": 70, "duration": 2, "velocity": 102}, {"time": 1788, "pitch": 68, "duration": 1, "velocity": 92}, {"time": 1791, "pitch": 70, "duration": 8, "velocity": 102}, {"time": 1800, "pitch": 75, "duration": 2, "velocity": 100}, {"time": 1803, "pitch": 70, "duration": 4, "velocity": 82}, {"time": 1809, "pitch": 72, "duration": 7, "velocity": 100}, {"time": 1820, "pitch": 65, "duration": 2, "velocity": 97}, {"time": 1824, "pitch": 67, "duration": 1, "velocity": 102}, {"time": 1827, "pitch": 68, "duration": 6, "velocity": 80}, {"time": 1833, "pitch": 68, "duration": 6, "velocity": 93}, {"time": 1845, "pitch": 70, "duration": 1, "velocity": 89}, {"time": 1848, "pitch": 72, "duration": 2, "velocity": 94}, {"time": 1851, "pitch": 70, "duration": 8, "velocity": 114}, {"time": 1863, "pitch": 67, "duration": 4, "velocity": 99}, {"time": 1869, "pitch": 63, "duration": 1, "velocity": 92}, {"time": 1872, "pitch": 65, "duration": 39, "velocity": 97}, {"time": 1917, "pitch": 72, "duration": 1, "velocity": 105}, {"time": 1920, "pitch": 72, "duration": 2, "velocity": 97}, {"time": 1923, "pitch": 77, "duration": 3, "velocity": 100}, {"time": 1929, "pitch": 77, "duration": 9, "velocity": 105}, {"time": 1941, "pitch": 77, "duration": 2, "velocity": 111}, {"time": 1944, "pitch": 75, "duration": 1, "velocity": 94}, {"time": 1947, "pitch": 77, "duration": 5, "velocity": 105}, {"time": 1959, "pitch": 75, "duration": 2, "velocity": 87}, {"time": 1962, "pitch": 70, "duration": 6, "velocity": 102}, {"time": 1971, "pitch": 72, "duration": 2, "velocity": 108}, {"time": 1974, "pitch": 70, "duration": 3, "velocity": 78}, {"time": 1977, "pitch": 72, "duration": 29, "velocity": 100}, {"time": 2013, "pitch": 72, "duration": 1, "velocity": 92}, {"time": 2016, "pitch": 72, "duration": 2, "velocity": 97}, {"time": 2019, "pitch": 77, "duration": 9, "velocity": 105}, {"time": 2031, "pitch": 77, "duration": 8, "velocity": 111}, {"time": 2040, "pitch": 75, "duration": 1, "velocity": 53}, {"time": 2043, "pitch": 77, "duration": 8, "velocity": 102}, {"time": 2055, "pitch": 75, "duration": 3, "velocity": 105}, {"time": 2061, "pitch": 75, "duration": 2, "velocity": 100}, {"time": 2064, "pitch": 77, "duration": 2, "velocity": 102}, {"time": 2067, "pitch": 75, "duration": 4, "velocity": 105}, {"time": 2073, "pitch": 70, "duration": 1, "velocity": 100}, {"time": 2076, "pitch": 72, "duration": 28, "velocity": 97}, {"time": 2109, "pitch": 72, "duration": 2, "velocity": 108}, {"time": 2112, "pitch": 70, "duration": 1, "velocity": 105}, {"time": 2115, "pitch": 68, "duration": 1, "velocity": 100}, {"time": 2118, "pitch": 68, "duration": 5, "velocity": 100}, {"time": 2127, "pitch": 68, "duration": 4, "velocity": 108}, {"time": 2133, "pitch": 68, "duration": 2, "velocity": 102}, {"time": 2136, "pitch": 65, "duration": 1, "velocity": 92}, {"time": 2139, "pitch": 70, "duration": 3, "velocity": 102}, {"time": 2145, "pitch": 75, "duration": 2, "velocity": 87}, {"time": 2148, "pitch": 70, "duration": 5, "velocity": 102}, {"time": 2157, "pitch": 68, "duration": 1, "velocity": 102}, {"time": 2160, "pitch": 70, "duration": 1, "velocity": 105}, {"time": 2163, "pitch": 72, "duration": 4, "velocity": 105}, {"time": 2169, "pitch": 75, "duration": 3, "velocity": 92}, {"time": 2175, "pitch": 70, "duration": 4, "velocity": 108}, {"time": 2181, "pitch": 70, "duration": 2, "velocity": 105}, {"time": 2184, "pitch": 72, "duration": 2, "velocity": 92}, {"time": 2187, "pitch": 70, "duration": 4, "velocity": 114}, {"time": 2193, "pitch": 68, "duration": 7, "velocity": 105}, {"time": 2205, "pitch": 65, "duration": 1, "velocity": 105}, {"time": 2208, "pitch": 68, "duration": 1, "velocity": 100}, {"time": 2211, "pitch": 72, "duration": 4, "velocity": 102}, {"time": 2217, "pitch": 70, "duration": 1, "velocity": 87}, {"time": 2220, "pitch": 70, "duration": 11, "velocity": 100}, {"time": 2235, "pitch": 70, "duration": 6, "velocity": 105}, {"time": 2241, "pitch": 70, "duration": 1, "velocity": 89}, {"time": 2244, "pitch": 72, "duration": 7, "velocity": 102}, {"time": 2253, "pitch": 68, "duration": 5, "velocity": 111}, {"time": 2259, "pitch": 65, "duration": 31, "velocity": 108}, {"time": 2295, "pitch": 72, "duration": 2, "velocity": 102}, {"time": 2298, "pitch": 80, "duration": 4, "velocity": 111}, {"time": 2304, "pitch": 72, "duration": 1, "velocity": 117}, {"time": 2307, "pitch": 77, "duration": 9, "velocity": 97}, {"time": 2319, "pitch": 77, "duration": 4, "velocity": 105}, {"time": 2325, "pitch": 75, "duration": 1, "velocity": 97}, {"time": 2328, "pitch": 77, "duration": 11, "velocity": 108}, {"time": 2340, "pitch": 72, "duration": 2, "velocity": 105}, {"time": 2343, "pitch": 80, "duration": 4, "velocity": 105}, {"time": 2349, "pitch": 77, "duration": 1, "velocity": 94}, {"time": 2352, "pitch": 75, "duration": 1, "velocity": 102}, {"time": 2355, "pitch": 77, "duration": 4, "velocity": 105}, {"time": 2361, "pitch": 75, "duration": 3, "velocity": 111}, {"time": 2364, "pitch": 72, "duration": 15, "velocity": 114}, {"time": 2391, "pitch": 64, "duration": 4, "velocity": 111}, {"time": 2397, "pitch": 72, "duration": 2, "velocity": 108}, {"time": 2400, "pitch": 68, "duration": 2, "velocity": 73}, {"time": 2403, "pitch": 70, "duration": 7, "velocity": 105}, {"time": 2412, "pitch": 70, "duration": 1, "velocity": 92}, {"time": 2415, "pitch": 70, "duration": 4, "velocity": 102}, {"time": 2421, "pitch": 70, "duration": 2, "velocity": 102}, {"time": 2424, "pitch": 68, "duration": 2, "velocity": 89}, {"time": 2427, "pitch": 70, "duration": 8, "velocity": 114}, {"time": 2439, "pitch": 75, "duration": 4, "velocity": 102}, {"time": 2445, "pitch": 77, "duration": 2, "velocity": 100}, {"time": 2448, "pitch": 75, "duration": 1, "velocity": 108}, {"time": 2451, "pitch": 72, "duration": 32, "velocity": 111}, {"time": 2487, "pitch": 72, "duration": 2, "velocity": 102}, {"time": 2490, "pitch": 80, "duration": 4, "velocity": 111}, {"time": 2496, "pitch": 72, "duration": 1, "velocity": 117}, {"time": 2499, "pitch": 77, "duration": 9, "velocity": 97}, {"time": 2511, "pitch": 77, "duration": 4, "velocity": 105}, {"time": 2517, "pitch": 75, "duration": 1, "velocity": 97}, {"time": 2520, "pitch": 77, "duration": 11, "velocity": 108}, {"time": 2532, "pitch": 72, "duration": 2, "velocity": 105}, {"time": 2535, "pitch": 80, "duration": 4, "velocity": 105}, {"time": 2541, "pitch": 77, "duration": 1, "velocity": 94}, {"time": 2544, "pitch": 75, "duration": 1, "velocity": 102}, {"time": 2547, "pitch": 77, "duration": 4, "velocity": 105}, {"time": 2553, "pitch": 75, "duration": 3, "velocity": 111}, {"time": 2556, "pitch": 72, "duration": 21, "velocity": 114}, {"time": 2583, "pitch": 64, "duration": 4, "velocity": 111}, {"time": 2589, "pitch": 72, "duration": 2, "velocity": 108}, {"time": 2592, "pitch": 68, "duration": 2, "velocity": 73}, {"time": 2595, "pitch": 70, "duration": 7, "velocity": 105}, {"time": 2607, "pitch": 70, "duration": 4, "velocity": 102}, {"time": 2613, "pitch": 68, "duration": 2, "velocity": 102}, {"time": 2616, "pitch": 70, "duration": 11, "velocity": 114}, {"time": 2631, "pitch": 67, "duration": 4, "velocity": 108}, {"time": 2637, "pitch": 70, "duration": 2, "velocity": 94}, {"time": 2640, "pitch": 68, "duration": 2, "velocity": 94}, {"time": 2643, "pitch": 65, "duration": 36, "velocity": 102}, {"time": 2679, "pitch": 72, "duration": 2, "velocity": 102}, {"time": 2682, "pitch": 80, "duration": 4, "velocity": 111}, {"time": 2688, "pitch": 72, "duration": 1, "velocity": 117}, {"time": 2691, "pitch": 77, "duration": 9, "velocity": 97}, {"time": 2703, "pitch": 77, "duration": 4, "velocity": 105}, {"time": 2709, "pitch": 75, "duration": 1, "velocity": 97}, {"time": 2712, "pitch": 77, "duration": 11, "velocity": 108}, {"time": 2724, "pitch": 72, "duration": 2, "velocity": 105}, {"time": 2727, "pitch": 80, "duration": 4, "velocity": 105}, {"time": 2733, "pitch": 77, "duration": 1, "velocity": 94}, {"time": 2736, "pitch": 75, "duration": 1, "velocity": 102}, {"time": 2739, "pitch": 77, "duration": 4, "velocity": 105}, {"time": 2745, "pitch": 75, "duration": 3, "velocity": 111}, {"time": 2748, "pitch": 72, "duration": 15, "velocity": 114}, {"time": 2775, "pitch": 64, "duration": 4, "velocity": 111}, {"time": 2781, "pitch": 72, "duration": 2, "velocity": 108}, {"time": 2784, "pitch": 68, "duration": 2, "velocity": 73}, {"time": 2787, "pitch": 70, "duration": 7, "velocity": 105}, {"time": 2796, "pitch": 70, "duration": 1, "velocity": 92}, {"time": 2799, "pitch": 70, "duration": 4, "velocity": 102}, {"time": 2805, "pitch": 70, "duration": 2, "velocity": 102}, {"time": 2808, "pitch": 68, "duration": 2, "velocity": 89}, {"time": 2811, "pitch": 70, "duration": 8, "velocity": 114}, {"time": 2823, "pitch": 75, "duration": 4, "velocity": 102}, {"time": 2829, "pitch": 77, "duration": 2, "velocity": 100}, {"time": 2832, "pitch": 75, "duration": 1, "velocity": 108}, {"time": 2835, "pitch": 72, "duration": 32, "velocity": 111}, {"time": 2871, "pitch": 72, "duration": 2, "velocity": 102}, {"time": 2874, "pitch": 80, "duration": 4, "velocity": 111}, {"time": 2880, "pitch": 72, "duration": 1, "velocity": 117}, {"time": 2883, "pitch": 77, "duration": 9, "velocity": 97}, {"time": 2895, "pitch": 77, "duration": 4, "velocity": 105}, {"time": 2901, "pitch": 75, "duration": 1, "velocity": 97}, {"time": 2904, "pitch": 77, "duration": 11, "velocity": 108}, {"time": 2916, "pitch": 72, "duration": 2, "velocity": 105}, {"time": 2919, "pitch": 80, "duration": 4, "velocity": 105}, {"time": 2925, "pitch": 77, "duration": 1, "velocity": 94}, {"time": 2928, "pitch": 75, "duration": 1, "velocity": 102}, {"time": 2931, "pitch": 77, "duration": 4, "velocity": 105}, {"time": 2937, "pitch": 75, "duration": 3, "velocity": 111}, {"time": 2940, "pitch": 72, "duration": 21, "velocity": 114}, {"time": 2967, "pitch": 64, "duration": 4, "velocity": 111}, {"time": 2973, "pitch": 72, "duration": 2, "velocity": 108}, {"time": 2976, "pitch": 68, "duration": 2, "velocity": 73}, {"time": 2979, "pitch": 70, "duration": 7, "velocity": 105}, {"time": 2991, "pitch": 70, "duration": 4, "velocity": 102}, {"time": 2997, "pitch": 68, "duration": 2, "velocity": 102}, {"time": 3000, "pitch": 70, "duration": 11, "velocity": 114}, {"time": 3015, "pitch": 67, "duration": 4, "velocity": 108}, {"time": 3021, "pitch": 70, "duration": 2, "velocity": 94}, {"time": 3024, "pitch": 68, "duration": 2, "velocity": 94}, {"time": 3027, "pitch": 65, "duration": 44, "velocity": 102}]}, {"program": 0, "is_drum": false, "name": "PIANO", "notes": [{"time": 27, "pitch": 48, "duration": 23, "velocity": 62}, {"time": 27, "pitch": 60, "duration": 8, "velocity": 69}, {"time": 27, "pitch": 63, "duration": 8, "velocity": 76}, {"time": 33, "pitch": 55, "duration": 9, "velocity": 37}, {"time": 39, "pitch": 67, "duration": 11, "velocity": 82}, {"time": 45, "pitch": 60, "duration": 5, "velocity": 58}, {"time": 51, "pitch": 49, "duration": 21, "velocity": 76}, {"time": 57, "pitch": 56, "duration": 8, "velocity": 53}, {"time": 63, "pitch": 61, "duration": 12, "velocity": 82}, {"time": 69, "pitch": 56, "duration": 10, "velocity": 60}, {"time": 75, "pitch": 44, "duration": 23, "velocity": 57}, {"time": 81, "pitch": 51, "duration": 7, "velocity": 45}, {"time": 87, "pitch": 60, "duration": 4, "velocity": 87}, {"time": 90, "pitch": 51, "duration": 7, "velocity": 71}, {"time": 93, "pitch": 56, "duration": 5, "velocity": 69}, {"time": 96, "pitch": 63, "duration": 3, "velocity": 73}, {"time": 99, "pitch": 48, "duration": 20, "velocity": 80}, {"time": 99, "pitch": 63, "duration": 9, "velocity": 78}, {"time": 105, "pitch": 55, "duration": 8, "velocity": 48}, {"time": 111, "pitch": 60, "duration": 4, "velocity": 84}, {"time": 111, "pitch": 67, "duration": 7, "velocity": 52}, {"time": 117, "pitch": 60, "duration": 4, "velocity": 46}, {"time": 117, "pitch": 63, "duration": 4, "velocity": 84}, {"time": 123, "pitch": 49, "duration": 17, "velocity": 87}, {"time": 123, "pitch": 61, "duration": 8, "velocity": 62}, {"time": 123, "pitch": 65, "duration": 9, "velocity": 73}, {"time": 129, "pitch": 56, "duration": 9, "velocity": 62}, {"time": 135, "pitch": 61, "duration": 4, "velocity": 78}, {"time": 135, "pitch": 68, "duration": 6, "velocity": 84}, {"time": 141, "pitch": 61, "duration": 2, "velocity": 73}, {"time": 147, "pitch": 48, "duration": 20, "velocity": 84}, {"time": 147, "pitch": 60, "duration": 10, "velocity": 62}, {"time": 147, "pitch": 64, "duration": 10, "velocity": 57}, {"time": 153, "pitch": 55, "duration": 11, "velocity": 61}, {"time": 159, "pitch": 60, "duration": 9, "velocity": 76}, {"time": 159, "pitch": 67, "duration": 8, "velocity": 31}, {"time": 171, "pitch": 48, "duration": 23, "velocity": 76}, {"time": 171, "pitch": 60, "duration": 8, "velocity": 64}, {"time": 171, "pitch": 64, "duration": 7, "velocity": 52}, {"time": 171, "pitch": 67, "duration": 7, "velocity": 48}, {"time": 171, "pitch": 72, "duration": 7, "velocity": 73}, {"time": 177, "pitch": 55, "duration": 16, "velocity": 34}, {"time": 183, "pitch": 60, "duration": 11, "velocity": 67}, {"time": 183, "pitch": 64, "duration": 11, "velocity": 38}, {"time": 183, "pitch": 67, "duration": 11, "velocity": 59}, {"time": 195, "pitch": 41, "duration": 20, "velocity": 89}, {"time": 201, "pitch": 48, "duration": 15, "velocity": 71}, {"time": 207, "pitch": 53, "duration": 11, "velocity": 67}, {"time": 207, "pitch": 60, "duration": 11, "velocity": 80}, {"time": 219, "pitch": 44, "duration": 19, "velocity": 67}, {"time": 225, "pitch": 51, "duration": 15, "velocity": 80}, {"time": 231, "pitch": 56, "duration": 9, "velocity": 71}, {"time": 231, "pitch": 60, "duration": 10, "velocity": 92}, {"time": 243, "pitch": 46, "duration": 22, "velocity": 64}, {"time": 249, "pitch": 53, "duration": 7, "velocity": 80}, {"time": 255, "pitch": 58, "duration": 13, "velocity": 80}, {"time": 255, "pitch": 61, "duration": 12, "velocity": 92}, {"time": 261, "pitch": 53, "duration": 6, "velocity": 66}, {"time": 267, "pitch": 41, "duration": 18, "velocity": 80}, {"time": 273, "pitch": 48, "duration": 12, "velocity": 76}, {"time": 279, "pitch": 53, "duration": 6, "velocity": 67}, {"time": 279, "pitch": 56, "duration": 6, "velocity": 69}, {"time": 279, "pitch": 60, "duration": 6, "velocity": 84}, {"time": 291, "pitch": 37, "duration": 17, "velocity": 87}, {"time": 291, "pitch": 53, "duration": 14, "velocity": 82}, {"time": 297, "pitch": 44, "duration": 12, "velocity": 55}, {"time": 303, "pitch": 49, "duration": 6, "velocity": 84}, {"time": 309, "pitch": 56, "duration": 6, "velocity": 67}, {"time": 315, "pitch": 39, "duration": 20, "velocity": 84}, {"time": 315, "pitch": 55, "duration": 18, "velocity": 61}, {"time": 321, "pitch": 46, "duration": 15, "velocity": 67}, {"time": 327, "pitch": 51, "duration": 7, "velocity": 78}, {"time": 333, "pitch": 58, "duration": 3, "velocity": 89}, {"time": 339, "pitch": 44, "duration": 21, "velocity": 73}, {"time": 339, "pitch": 56, "duration": 21, "velocity": 76}, {"time": 345, "pitch": 48, "duration": 16, "velocity": 37}, {"time": 351, "pitch": 60, "duration": 13, "velocity": 97}, {"time": 357, "pitch": 51, "duration": 5, "velocity": 69}, {"time": 363, "pitch": 36, "duration": 24, "velocity": 92}, {"time": 369, "pitch": 52, "duration": 6, "velocity": 102}, {"time": 375, "pitch": 60, "duration": 6, "velocity": 100}, {"time": 381, "pitch": 58, "duration": 5, "velocity": 84}, {"time": 387, "pitch": 41, "duration": 20, "velocity": 89}, {"time": 393, "pitch": 48, "duration": 15, "velocity": 71}, {"time": 399, "pitch": 53, "duration": 11, "velocity": 67}, {"time": 399, "pitch": 60, "duration": 11, "velocity": 80}, {"time": 411, "pitch": 44, "duration": 19, "velocity": 67}, {"time": 417, "pitch": 51, "duration": 15, "velocity": 80}, {"time": 423, "pitch": 56, "duration": 9, "velocity": 71}, {"time": 423, "pitch": 60, "duration": 10, "velocity": 92}, {"time": 435, "pitch": 46, "duration": 22, "velocity": 64}, {"time": 441, "pitch": 53, "duration": 7, "velocity": 80}, {"time": 447, "pitch": 58, "duration": 13, "velocity": 80}, {"time": 447, "pitch": 61, "duration": 12, "velocity": 92}, {"time": 453, "pitch": 53, "duration": 6, "velocity": 66}, {"time": 459, "pitch": 41, "duration": 18, "velocity": 80}, {"time": 465, "pitch": 48, "duration": 12, "velocity": 76}, {"time": 471, "pitch": 53, "duration": 6, "velocity": 67}, {"time": 471, "pitch": 56, "duration": 6, "velocity": 69}, {"time": 471, "pitch": 60, "duration": 6, "velocity": 84}, {"time": 483, "pitch": 37, "duration": 17, "velocity": 87}, {"time": 483, "pitch": 53, "duration": 14, "velocity": 82}, {"time": 489, "pitch": 44, "duration": 12, "velocity": 55}, {"time": 495, "pitch": 49, "duration": 6, "velocity": 84}, {"time": 501, "pitch": 56, "duration": 6, "velocity": 67}, {"time": 507, "pitch": 39, "duration": 20, "velocity": 84}, {"time": 507, "pitch": 55, "duration": 18, "velocity": 61}, {"time": 513, "pitch": 46, "duration": 15, "velocity": 67}, {"time": 519, "pitch": 51, "duration": 7, "velocity": 78}, {"time": 525, "pitch": 58, "duration": 3, "velocity": 89}, {"time": 531, "pitch": 41, "duration": 47, "velocity": 97}, {"time": 531, "pitch": 53, "duration": 10, "velocity": 82}, {"time": 531, "pitch": 56, "duration": 9, "velocity": 89}, {"time": 537, "pitch": 48, "duration": 8, "velocity": 52}, {"time": 543, "pitch": 53, "duration": 7, "velocity": 82}, {"time": 543, "pitch": 60, "duration": 6, "velocity": 82}, {"time": 549, "pitch": 48, "duration": 7, "velocity": 62}, {"time": 555, "pitch": 53, "duration": 7, "velocity": 78}, {"time": 555, "pitch": 60, "duration": 6, "velocity": 80}, {"time": 561, "pitch": 48, "duration": 7, "velocity": 71}, {"time": 567, "pitch": 53, "duration": 3, "velocity": 102}, {"time": 567, "pitch": 56, "duration": 3, "velocity": 111}, {"time": 570, "pitch": 48, "duration": 8, "velocity": 84}, {"time": 573, "pitch": 55, "duration": 5, "velocity": 105}, {"time": 579, "pitch": 37, "duration": 7, "velocity": 86}, {"time": 579, "pitch": 68, "duration": 5, "velocity": 84}, {"time": 582, "pitch": 44, "duration": 4, "velocity": 77}, {"time": 585, "pitch": 61, "duration": 4, "velocity": 85}, {"time": 588, "pitch": 65, "duration": 3, "velocity": 76}, {"time": 591, "pitch": 68, "duration": 4, "velocity": 85}, {"time": 594, "pitch": 61, "duration": 6, "velocity": 85}, {"time": 597, "pitch": 65, "duration": 3, "velocity": 70}, {"time": 600, "pitch": 68, "duration": 3, "velocity": 79}, {"time": 603, "pitch": 51, "duration": 13, "velocity": 98}, {"time": 606, "pitch": 58, "duration": 7, "velocity": 77}, {"time": 609, "pitch": 63, "duration": 3, "velocity": 86}, {"time": 612, "pitch": 70, "duration": 6, "velocity": 86}, {"time": 615, "pitch": 58, "duration": 4, "velocity": 83}, {"time": 618, "pitch": 63, "duration": 3, "velocity": 88}, {"time": 621, "pitch": 70, "duration": 4, "velocity": 78}, {"time": 624, "pitch": 63, "duration": 3, "velocity": 89}, {"time": 627, "pitch": 41, "duration": 22, "velocity": 86}, {"time": 630, "pitch": 48, "duration": 19, "velocity": 76}, {"time": 633, "pitch": 53, "duration": 3, "velocity": 87}, {"time": 636, "pitch": 60, "duration": 4, "velocity": 80}, {"time": 639, "pitch": 56, "duration": 3, "velocity": 72}, {"time": 642, "pitch": 53, "duration": 4, "velocity": 88}, {"time": 645, "pitch": 60, "duration": 6, "velocity": 84}, {"time": 648, "pitch": 56, "duration": 1, "velocity": 86}, {"time": 651, "pitch": 41, "duration": 20, "velocity": 85}, {"time": 651, "pitch": 65, "duration": 9, "velocity": 87}, {"time": 654, "pitch": 48, "duration": 17, "velocity": 79}, {"time": 657, "pitch": 53, "duration": 4, "velocity": 89}, {"time": 660, "pitch": 60, "duration": 6, "velocity": 86}, {"time": 663, "pitch": 56, "duration": 3, "velocity": 85}, {"time": 666, "pitch": 53, "duration": 3, "velocity": 86}, {"time": 669, "pitch": 65, "duration": 5, "velocity": 86}, {"time": 672, "pitch": 53, "duration": 2, "velocity": 88}, {"time": 675, "pitch": 37, "duration": 17, "velocity": 90}, {"time": 678, "pitch": 44, "duration": 15, "velocity": 83}, {"time": 681, "pitch": 49, "duration": 4, "velocity": 84}, {"time": 684, "pitch": 56, "duration": 6, "velocity": 80}, {"time": 687, "pitch": 53, "duration": 3, "velocity": 69}, {"time": 690, "pitch": 49, "duration": 2, "velocity": 90}, {"time": 693, "pitch": 61, "duration": 6, "velocity": 85}, {"time": 696, "pitch": 49, "duration": 2, "velocity": 91}, {"time": 699, "pitch": 39, "duration": 18, "velocity": 98}, {"time": 702, "pitch": 46, "duration": 15, "velocity": 79}, {"time": 705, "pitch": 51, "duration": 6, "velocity": 89}, {"time": 708, "pitch": 55, "duration": 3, "velocity": 81}, {"time": 711, "pitch": 63, "duration": 3, "velocity": 86}, {"time": 714, "pitch": 55, "duration": 2, "velocity": 84}, {"time": 717, "pitch": 51, "duration": 3, "velocity": 95}, {"time": 720, "pitch": 55, "duration": 2, "velocity": 78}, {"time": 723, "pitch": 41, "duration": 22, "velocity": 87}, {"time": 726, "pitch": 48, "duration": 19, "velocity": 83}, {"time": 729, "pitch": 56, "duration": 2, "velocity": 89}, {"time": 732, "pitch": 53, "duration": 3, "velocity": 87}, {"time": 735, "pitch": 60, "duration": 4, "velocity": 85}, {"time": 738, "pitch": 56, "duration": 3, "velocity": 85}, {"time": 741, "pitch": 53, "duration": 4, "velocity": 85}, {"time": 744, "pitch": 65, "duration": 11, "velocity": 90}, {"time": 747, "pitch": 41, "duration": 21, "velocity": 87}, {"time": 750, "pitch": 48, "duration": 10, "velocity": 84}, {"time": 753, "pitch": 56, "duration": 2, "velocity": 85}, {"time": 756, "pitch": 53, "duration": 1, "velocity": 85}, {"time": 759, "pitch": 56, "duration": 5, "velocity": 95}, {"time": 759, "pitch": 60, "duration": 9, "velocity": 91}, {"time": 762, "pitch": 48, "duration": 6, "velocity": 84}, {"time": 765, "pitch": 53, "duration": 4, "velocity": 85}, {"time": 768, "pitch": 56, "duration": 2, "velocity": 87}, {"time": 771, "pitch": 37, "duration": 18, "velocity": 95}, {"time": 774, "pitch": 44, "duration": 16, "velocity": 80}, {"time": 777, "pitch": 49, "duration": 5, "velocity": 86}, {"time": 780, "pitch": 53, "duration": 3, "velocity": 75}, {"time": 783, "pitch": 61, "duration": 3, "velocity": 88}, {"time": 786, "pitch": 56, "duration": 4, "velocity": 83}, {"time": 789, "pitch": 53, "duration": 3, "velocity": 84}, {"time": 792, "pitch": 49, "duration": 2, "velocity": 93}, {"time": 795, "pitch": 39, "duration": 22, "velocity": 91}, {"time": 798, "pitch": 46, "duration": 19, "velocity": 72}, {"time": 801, "pitch": 51, "duration": 4, "velocity": 86}, {"time": 804, "pitch": 55, "duration": 3, "velocity": 79}, {"time": 807, "pitch": 63, "duration": 3, "velocity": 85}, {"time": 810, "pitch": 58, "duration": 5, "velocity": 78}, {"time": 813, "pitch": 55, "duration": 3, "velocity": 79}, {"time": 816, "pitch": 51, "duration": 2, "velocity": 88}, {"time": 819, "pitch": 44, "duration": 6, "velocity": 89}, {"time": 819, "pitch": 56, "duration": 4, "velocity": 75}, {"time": 819, "pitch": 63, "duration": 6, "velocity": 80}, {"time": 822, "pitch": 51, "duration": 8, "velocity": 86}, {"time": 825, "pitch": 56, "duration": 4, "velocity": 85}, {"time": 828, "pitch": 63, "duration": 4, "velocity": 78}, {"time": 831, "pitch": 43, "duration": 10, "velocity": 84}, {"time": 834, "pitch": 51, "duration": 6, "velocity": 77}, {"time": 837, "pitch": 55, "duration": 4, "velocity": 83}, {"time": 840, "pitch": 58, "duration": 3, "velocity": 71}, {"time": 843, "pitch": 41, "duration": 26, "velocity": 87}, {"time": 846, "pitch": 48, "duration": 23, "velocity": 80}, {"time": 849, "pitch": 53, "duration": 7, "velocity": 87}, {"time": 852, "pitch": 56, "duration": 2, "velocity": 87}, {"time": 855, "pitch": 65, "duration": 3, "velocity": 86}, {"time": 858, "pitch": 60, "duration": 3, "velocity": 73}, {"time": 861, "pitch": 56, "duration": 4, "velocity": 82}, {"time": 864, "pitch": 53, "duration": 3, "velocity": 84}, {"time": 867, "pitch": 46, "duration": 20, "velocity": 88}, {"time": 867, "pitch": 58, "duration": 4, "velocity": 88}, {"time": 870, "pitch": 53, "duration": 11, "velocity": 85}, {"time": 873, "pitch": 58, "duration": 6, "velocity": 75}, {"time": 876, "pitch": 61, "duration": 3, "velocity": 86}, {"time": 879, "pitch": 65, "duration": 5, "velocity": 86}, {"time": 882, "pitch": 61, "duration": 3, "velocity": 85}, {"time": 885, "pitch": 58, "duration": 4, "velocity": 84}, {"time": 888, "pitch": 53, "duration": 4, "velocity": 89}, {"time": 891, "pitch": 39, "duration": 15, "velocity": 84}, {"time": 894, "pitch": 46, "duration": 13, "velocity": 84}, {"time": 897, "pitch": 51, "duration": 5, "velocity": 84}, {"time": 900, "pitch": 55, "duration": 3, "velocity": 76}, {"time": 903, "pitch": 63, "duration": 6, "velocity": 84}, {"time": 906, "pitch": 55, "duration": 3, "velocity": 85}, {"time": 909, "pitch": 51, "duration": 1, "velocity": 91}, {"time": 915, "pitch": 41, "duration": 47, "velocity": 85}, {"time": 915, "pitch": 53, "duration": 11, "velocity": 84}, {"time": 915, "pitch": 56, "duration": 10, "velocity": 84}, {"time": 921, "pitch": 48, "duration": 40, "velocity": 85}, {"time": 927, "pitch": 60, "duration": 4, "velocity": 83}, {"time": 930, "pitch": 53, "duration": 12, "velocity": 84}, {"time": 933, "pitch": 56, "duration": 5, "velocity": 87}, {"time": 936, "pitch": 60, "duration": 10, "velocity": 84}, {"time": 939, "pitch": 56, "duration": 5, "velocity": 30}, {"time": 939, "pitch": 65, "duration": 8, "velocity": 87}, {"time": 942, "pitch": 53, "duration": 1, "velocity": 77}, {"time": 951, "pitch": 56, "duration": 10, "velocity": 85}, {"time": 951, "pitch": 60, "duration": 11, "velocity": 83}, {"time": 951, "pitch": 65, "duration": 11, "velocity": 85}, {"time": 957, "pitch": 53, "duration": 5, "velocity": 88}, {"time": 963, "pitch": 53, "duration": 16, "velocity": 105}, {"time": 963, "pitch": 65, "duration": 6, "velocity": 94}, {"time": 963, "pitch": 68, "duration": 6, "velocity": 100}, {"time": 963, "pitch": 41, "duration": 16, "velocity": 92}, {"time": 969, "pitch": 60, "duration": 6, "velocity": 89}, {"time": 972, "pitch": 65, "duration": 1, "velocity": 51}, {"time": 975, "pitch": 65, "duration": 3, "velocity": 102}, {"time": 975, "pitch": 68, "duration": 3, "velocity": 108}, {"time": 975, "pitch": 72, "duration": 4, "velocity": 100}, {"time": 978, "pitch": 60, "duration": 2, "velocity": 80}, {"time": 981, "pitch": 65, "duration": 3, "velocity": 92}, {"time": 984, "pitch": 68, "duration": 1, "velocity": 82}, {"time": 987, "pitch": 49, "duration": 7, "velocity": 94}, {"time": 987, "pitch": 61, "duration": 7, "velocity": 100}, {"time": 987, "pitch": 65, "duration": 7, "velocity": 105}, {"time": 987, "pitch": 37, "duration": 7, "velocity": 81}, {"time": 993, "pitch": 56, "duration": 6, "velocity": 80}, {"time": 999, "pitch": 61, "duration": 6, "velocity": 102}, {"time": 999, "pitch": 65, "duration": 6, "velocity": 111}, {"time": 999, "pitch": 68, "duration": 7, "velocity": 105}, {"time": 1005, "pitch": 49, "duration": 2, "velocity": 82}, {"time": 1005, "pitch": 37, "duration": 3, "velocity": 69}, {"time": 1008, "pitch": 61, "duration": 1, "velocity": 94}, {"time": 1011, "pitch": 44, "duration": 13, "velocity": 80}, {"time": 1011, "pitch": 56, "duration": 13, "velocity": 80}, {"time": 1011, "pitch": 63, "duration": 3, "velocity": 94}, {"time": 1011, "pitch": 68, "duration": 8, "velocity": 100}, {"time": 1017, "pitch": 63, "duration": 3, "velocity": 76}, {"time": 1023, "pitch": 63, "duration": 3, "velocity": 108}, {"time": 1023, "pitch": 68, "duration": 4, "velocity": 111}, {"time": 1023, "pitch": 72, "duration": 4, "velocity": 102}, {"time": 1026, "pitch": 56, "duration": 1, "velocity": 73}, {"time": 1029, "pitch": 63, "duration": 4, "velocity": 102}, {"time": 1032, "pitch": 68, "duration": 1, "velocity": 100}, {"time": 1035, "pitch": 48, "duration": 10, "velocity": 100}, {"time": 1035, "pitch": 60, "duration": 4, "velocity": 97}, {"time": 1035, "pitch": 64, "duration": 4, "velocity": 102}, {"time": 1035, "pitch": 36, "duration": 10, "velocity": 87}, {"time": 1041, "pitch": 60, "duration": 3, "velocity": 100}, {"time": 1047, "pitch": 60, "duration": 3, "velocity": 102}, {"time": 1047, "pitch": 64, "duration": 4, "velocity": 112}, {"time": 1047, "pitch": 67, "duration": 7, "velocity": 102}, {"time": 1050, "pitch": 55, "duration": 2, "velocity": 87}, {"time": 1053, "pitch": 60, "duration": 4, "velocity": 108}, {"time": 1056, "pitch": 64, "duration": 1, "velocity": 44}, {"time": 1059, "pitch": 46, "duration": 14, "velocity": 94}, {"time": 1059, "pitch": 58, "duration": 7, "velocity": 87}, {"time": 1059, "pitch": 61, "duration": 6, "velocity": 94}, {"time": 1059, "pitch": 34, "duration": 14, "velocity": 81}, {"time": 1065, "pitch": 53, "duration": 6, "velocity": 69}, {"time": 1071, "pitch": 58, "duration": 4, "velocity": 100}, {"time": 1071, "pitch": 61, "duration": 5, "velocity": 108}, {"time": 1071, "pitch": 65, "duration": 5, "velocity": 97}, {"time": 1077, "pitch": 53, "duration": 1, "velocity": 92}, {"time": 1083, "pitch": 51, "duration": 15, "velocity": 102}, {"time": 1083, "pitch": 63, "duration": 6, "velocity": 92}, {"time": 1083, "pitch": 67, "duration": 7, "velocity": 85}, {"time": 1083, "pitch": 39, "duration": 15, "velocity": 89}, {"time": 1089, "pitch": 58, "duration": 6, "velocity": 105}, {"time": 1092, "pitch": 63, "duration": 1, "velocity": 89}, {"time": 1095, "pitch": 63, "duration": 3, "velocity": 105}, {"time": 1095, "pitch": 70, "duration": 3, "velocity": 105}, {"time": 1098, "pitch": 58, "duration": 1, "velocity": 102}, {"time": 1101, "pitch": 63, "duration": 3, "velocity": 87}, {"time": 1107, "pitch": 32, "duration": 2, "velocity": 87}, {"time": 1107, "pitch": 44, "duration": 2, "velocity": 100}, {"time": 1107, "pitch": 63, "duration": 12, "velocity": 94}, {"time": 1107, "pitch": 68, "duration": 13, "velocity": 97}, {"time": 1113, "pitch": 51, "duration": 8, "velocity": 71}, {"time": 1116, "pitch": 56, "duration": 4, "velocity": 60}, {"time": 1119, "pitch": 60, "duration": 3, "velocity": 117}, {"time": 1122, "pitch": 63, "duration": 5, "velocity": 114}, {"time": 1125, "pitch": 68, "duration": 3, "velocity": 111}, {"time": 1128, "pitch": 72, "duration": 1, "velocity": 94}, {"time": 1131, "pitch": 36, "duration": 17, "velocity": 92}, {"time": 1131, "pitch": 48, "duration": 17, "velocity": 105}, {"time": 1131, "pitch": 60, "duration": 7, "velocity": 92}, {"time": 1131, "pitch": 64, "duration": 6, "velocity": 93}, {"time": 1131, "pitch": 67, "duration": 7, "velocity": 93}, {"time": 1137, "pitch": 55, "duration": 7, "velocity": 70}, {"time": 1140, "pitch": 60, "duration": 1, "velocity": 82}, {"time": 1140, "pitch": 64, "duration": 1, "velocity": 72}, {"time": 1140, "pitch": 67, "duration": 1, "velocity": 35}, {"time": 1140, "pitch": 72, "duration": 1, "velocity": 84}, {"time": 1143, "pitch": 60, "duration": 3, "velocity": 111}, {"time": 1143, "pitch": 64, "duration": 3, "velocity": 109}, {"time": 1143, "pitch": 67, "duration": 3, "velocity": 105}, {"time": 1143, "pitch": 72, "duration": 2, "velocity": 97}, {"time": 1146, "pitch": 55, "duration": 4, "velocity": 74}, {"time": 1149, "pitch": 60, "duration": 4, "velocity": 100}, {"time": 1149, "pitch": 64, "duration": 4, "velocity": 105}, {"time": 1149, "pitch": 70, "duration": 5, "velocity": 97}, {"time": 1155, "pitch": 53, "duration": 16, "velocity": 105}, {"time": 1155, "pitch": 65, "duration": 6, "velocity": 94}, {"time": 1155, "pitch": 68, "duration": 6, "velocity": 100}, {"time": 1155, "pitch": 41, "duration": 16, "velocity": 92}, {"time": 1161, "pitch": 60, "duration": 6, "velocity": 89}, {"time": 1164, "pitch": 65, "duration": 1, "velocity": 51}, {"time": 1167, "pitch": 65, "duration": 3, "velocity": 102}, {"time": 1167, "pitch": 68, "duration": 3, "velocity": 108}, {"time": 1167, "pitch": 72, "duration": 4, "velocity": 100}, {"time": 1170, "pitch": 60, "duration": 2, "velocity": 80}, {"time": 1173, "pitch": 65, "duration": 3, "velocity": 92}, {"time": 1176, "pitch": 68, "duration": 1, "velocity": 82}, {"time": 1179, "pitch": 49, "duration": 7, "velocity": 94}, {"time": 1179, "pitch": 61, "duration": 7, "velocity": 100}, {"time": 1179, "pitch": 65, "duration": 7, "velocity": 105}, {"time": 1179, "pitch": 37, "duration": 7, "velocity": 81}, {"time": 1185, "pitch": 56, "duration": 6, "velocity": 80}, {"time": 1191, "pitch": 61, "duration": 6, "velocity": 102}, {"time": 1191, "pitch": 65, "duration": 6, "velocity": 111}, {"time": 1191, "pitch": 68, "duration": 7, "velocity": 105}, {"time": 1197, "pitch": 49, "duration": 2, "velocity": 82}, {"time": 1197, "pitch": 37, "duration": 3, "velocity": 69}, {"time": 1200, "pitch": 61, "duration": 1, "velocity": 94}, {"time": 1203, "pitch": 44, "duration": 13, "velocity": 80}, {"time": 1203, "pitch": 56, "duration": 13, "velocity": 80}, {"time": 1203, "pitch": 63, "duration": 3, "velocity": 94}, {"time": 1203, "pitch": 68, "duration": 8, "velocity": 100}, {"time": 1209, "pitch": 63, "duration": 3, "velocity": 76}, {"time": 1215, "pitch": 63, "duration": 3, "velocity": 108}, {"time": 1215, "pitch": 68, "duration": 4, "velocity": 111}, {"time": 1215, "pitch": 72, "duration": 4, "velocity": 102}, {"time": 1218, "pitch": 56, "duration": 1, "velocity": 73}, {"time": 1221, "pitch": 63, "duration": 4, "velocity": 102}, {"time": 1224, "pitch": 68, "duration": 1, "velocity": 100}, {"time": 1227, "pitch": 36, "duration": 10, "velocity": 87}, {"time": 1227, "pitch": 48, "duration": 10, "velocity": 100}, {"time": 1227, "pitch": 60, "duration": 4, "velocity": 97}, {"time": 1227, "pitch": 64, "duration": 4, "velocity": 102}, {"time": 1233, "pitch": 60, "duration": 3, "velocity": 100}, {"time": 1239, "pitch": 60, "duration": 3, "velocity": 102}, {"time": 1239, "pitch": 64, "duration": 4, "velocity": 112}, {"time": 1239, "pitch": 67, "duration": 7, "velocity": 102}, {"time": 1242, "pitch": 55, "duration": 2, "velocity": 87}, {"time": 1245, "pitch": 60, "duration": 4, "velocity": 108}, {"time": 1248, "pitch": 64, "duration": 1, "velocity": 44}, {"time": 1251, "pitch": 46, "duration": 14, "velocity": 94}, {"time": 1251, "pitch": 58, "duration": 7, "velocity": 87}, {"time": 1251, "pitch": 61, "duration": 6, "velocity": 94}, {"time": 1251, "pitch": 34, "duration": 14, "velocity": 81}, {"time": 1257, "pitch": 53, "duration": 6, "velocity": 69}, {"time": 1263, "pitch": 58, "duration": 4, "velocity": 100}, {"time": 1263, "pitch": 61, "duration": 5, "velocity": 108}, {"time": 1263, "pitch": 65, "duration": 5, "velocity": 97}, {"time": 1269, "pitch": 53, "duration": 1, "velocity": 92}, {"time": 1275, "pitch": 51, "duration": 15, "velocity": 102}, {"time": 1275, "pitch": 63, "duration": 6, "velocity": 92}, {"time": 1275, "pitch": 67, "duration": 7, "velocity": 85}, {"time": 1275, "pitch": 39, "duration": 16, "velocity": 89}, {"time": 1281, "pitch": 58, "duration": 6, "velocity": 105}, {"time": 1284, "pitch": 63, "duration": 1, "velocity": 89}, {"time": 1287, "pitch": 63, "duration": 3, "velocity": 105}, {"time": 1287, "pitch": 68, "duration": 3, "velocity": 105}, {"time": 1290, "pitch": 58, "duration": 1, "velocity": 102}, {"time": 1293, "pitch": 63, "duration": 3, "velocity": 87}, {"time": 1299, "pitch": 53, "duration": 9, "velocity": 102}, {"time": 1299, "pitch": 60, "duration": 3, "velocity": 92}, {"time": 1299, "pitch": 65, "duration": 3, "velocity": 82}, {"time": 1299, "pitch": 68, "duration": 3, "velocity": 94}, {"time": 1299, "pitch": 41, "duration": 9, "velocity": 92}, {"time": 1305, "pitch": 65, "duration": 3, "velocity": 78}, {"time": 1311, "pitch": 65, "duration": 5, "velocity": 105}, {"time": 1311, "pitch": 68, "duration": 5, "velocity": 114}, {"time": 1311, "pitch": 72, "duration": 6, "velocity": 105}, {"time": 1314, "pitch": 41, "duration": 1, "velocity": 50}, {"time": 1314, "pitch": 53, "duration": 1, "velocity": 60}, {"time": 1317, "pitch": 60, "duration": 4, "velocity": 84}, {"time": 1320, "pitch": 65, "duration": 1, "velocity": 100}, {"time": 1323, "pitch": 41, "duration": 15, "velocity": 92}, {"time": 1323, "pitch": 53, "duration": 15, "velocity": 102}, {"time": 1323, "pitch": 65, "duration": 7, "velocity": 94}, {"time": 1323, "pitch": 68, "duration": 7, "velocity": 94}, {"time": 1329, "pitch": 60, "duration": 8, "velocity": 76}, {"time": 1335, "pitch": 65, "duration": 11, "velocity": 100}, {"time": 1335, "pitch": 68, "duration": 11, "velocity": 108}, {"time": 1335, "pitch": 72, "duration": 11, "velocity": 102}, {"time": 1341, "pitch": 41, "duration": 5, "velocity": 87}, {"time": 1341, "pitch": 53, "duration": 5, "velocity": 97}, {"time": 1341, "pitch": 60, "duration": 5, "velocity": 94}, {"time": 1347, "pitch": 37, "duration": 22, "velocity": 94}, {"time": 1347, "pitch": 56, "duration": 10, "velocity": 82}, {"time": 1347, "pitch": 61, "duration": 10, "velocity": 92}, {"time": 1359, "pitch": 56, "duration": 7, "velocity": 105}, {"time": 1359, "pitch": 61, "duration": 7, "velocity": 102}, {"time": 1365, "pitch": 53, "duration": 7, "velocity": 60}, {"time": 1371, "pitch": 37, "duration": 19, "velocity": 84}, {"time": 1371, "pitch": 56, "duration": 8, "velocity": 78}, {"time": 1371, "pitch": 61, "duration": 8, "velocity": 97}, {"time": 1383, "pitch": 53, "duration": 3, "velocity": 84}, {"time": 1383, "pitch": 56, "duration": 6, "velocity": 94}, {"time": 1383, "pitch": 61, "duration": 9, "velocity": 94}, {"time": 1389, "pitch": 53, "duration": 2, "velocity": 67}, {"time": 1395, "pitch": 44, "duration": 16, "velocity": 78}, {"time": 1395, "pitch": 51, "duration": 10, "velocity": 94}, {"time": 1395, "pitch": 56, "duration": 9, "velocity": 92}, {"time": 1395, "pitch": 60, "duration": 9, "velocity": 94}, {"time": 1407, "pitch": 56, "duration": 9, "velocity": 100}, {"time": 1407, "pitch": 60, "duration": 9, "velocity": 105}, {"time": 1413, "pitch": 39, "duration": 5, "velocity": 53}, {"time": 1419, "pitch": 44, "duration": 19, "velocity": 82}, {"time": 1419, "pitch": 51, "duration": 9, "velocity": 80}, {"time": 1419, "pitch": 56, "duration": 9, "velocity": 89}, {"time": 1419, "pitch": 60, "duration": 9, "velocity": 94}, {"time": 1431, "pitch": 51, "duration": 3, "velocity": 100}, {"time": 1431, "pitch": 56, "duration": 4, "velocity": 108}, {"time": 1431, "pitch": 60, "duration": 4, "velocity": 100}, {"time": 1443, "pitch": 46, "duration": 13, "velocity": 94}, {"time": 1443, "pitch": 58, "duration": 7, "velocity": 94}, {"time": 1443, "pitch": 61, "duration": 8, "velocity": 92}, {"time": 1455, "pitch": 53, "duration": 9, "velocity": 97}, {"time": 1455, "pitch": 58, "duration": 9, "velocity": 111}, {"time": 1455, "pitch": 61, "duration": 9, "velocity": 100}, {"time": 1461, "pitch": 41, "duration": 6, "velocity": 100}, {"time": 1467, "pitch": 46, "duration": 13, "velocity": 102}, {"time": 1467, "pitch": 53, "duration": 9, "velocity": 84}, {"time": 1467, "pitch": 58, "duration": 9, "velocity": 92}, {"time": 1467, "pitch": 61, "duration": 9, "velocity": 94}, {"time": 1479, "pitch": 53, "duration": 3, "velocity": 105}, {"time": 1479, "pitch": 58, "duration": 3, "velocity": 105}, {"time": 1479, "pitch": 61, "duration": 3, "velocity": 102}, {"time": 1491, "pitch": 36, "duration": 22, "velocity": 94}, {"time": 1491, "pitch": 48, "duration": 10, "velocity": 89}, {"time": 1491, "pitch": 55, "duration": 9, "velocity": 85}, {"time": 1503, "pitch": 52, "duration": 4, "velocity": 105}, {"time": 1503, "pitch": 55, "duration": 5, "velocity": 105}, {"time": 1503, "pitch": 60, "duration": 6, "velocity": 94}, {"time": 1509, "pitch": 48, "duration": 28, "velocity": 108}, {"time": 1515, "pitch": 36, "duration": 22, "velocity": 97}, {"time": 1515, "pitch": 60, "duration": 23, "velocity": 102}, {"time": 1539, "pitch": 41, "duration": 20, "velocity": 89}, {"time": 1545, "pitch": 48, "duration": 15, "velocity": 71}, {"time": 1551, "pitch": 53, "duration": 11, "velocity": 67}, {"time": 1551, "pitch": 60, "duration": 11, "velocity": 80}, {"time": 1563, "pitch": 44, "duration": 19, "velocity": 67}, {"time": 1569, "pitch": 51, "duration": 15, "velocity": 80}, {"time": 1575, "pitch": 56, "duration": 9, "velocity": 71}, {"time": 1575, "pitch": 60, "duration": 10, "velocity": 92}, {"time": 1587, "pitch": 46, "duration": 22, "velocity": 64}, {"time": 1593, "pitch": 53, "duration": 7, "velocity": 80}, {"time": 1599, "pitch": 58, "duration": 13, "velocity": 80}, {"time": 1599, "pitch": 61, "duration": 12, "velocity": 92}, {"time": 1605, "pitch": 53, "duration": 6, "velocity": 66}, {"time": 1611, "pitch": 41, "duration": 18, "velocity": 80}, {"time": 1617, "pitch": 48, "duration": 12, "velocity": 76}, {"time": 1623, "pitch": 53, "duration": 6, "velocity": 67}, {"time": 1623, "pitch": 56, "duration": 6, "velocity": 69}, {"time": 1623, "pitch": 60, "duration": 6, "velocity": 84}, {"time": 1635, "pitch": 37, "duration": 17, "velocity": 87}, {"time": 1635, "pitch": 53, "duration": 14, "velocity": 82}, {"time": 1641, "pitch": 44, "duration": 12, "velocity": 55}, {"time": 1647, "pitch": 49, "duration": 6, "velocity": 84}, {"time": 1653, "pitch": 56, "duration": 6, "velocity": 67}, {"time": 1659, "pitch": 39, "duration": 20, "velocity": 84}, {"time": 1659, "pitch": 55, "duration": 18, "velocity": 61}, {"time": 1665, "pitch": 46, "duration": 15, "velocity": 67}, {"time": 1671, "pitch": 51, "duration": 7, "velocity": 78}, {"time": 1677, "pitch": 58, "duration": 3, "velocity": 89}, {"time": 1683, "pitch": 44, "duration": 21, "velocity": 73}, {"time": 1683, "pitch": 56, "duration": 21, "velocity": 76}, {"time": 1689, "pitch": 48, "duration": 16, "velocity": 37}, {"time": 1695, "pitch": 60, "duration": 13, "velocity": 97}, {"time": 1701, "pitch": 51, "duration": 5, "velocity": 69}, {"time": 1707, "pitch": 36, "duration": 24, "velocity": 92}, {"time": 1713, "pitch": 52, "duration": 6, "velocity": 102}, {"time": 1719, "pitch": 60, "duration": 6, "velocity": 100}, {"time": 1725, "pitch": 58, "duration": 5, "velocity": 84}, {"time": 1731, "pitch": 41, "duration": 20, "velocity": 89}, {"time": 1737, "pitch": 48, "duration": 15, "velocity": 71}, {"time": 1743, "pitch": 53, "duration": 11, "velocity": 67}, {"time": 1743, "pitch": 60, "duration": 11, "velocity": 80}, {"time": 1755, "pitch": 44, "duration": 19, "velocity": 67}, {"time": 1761, "pitch": 51, "duration": 15, "velocity": 80}, {"time": 1767, "pitch": 56, "duration": 9, "velocity": 71}, {"time": 1767, "pitch": 60, "duration": 10, "velocity": 92}, {"time": 1779, "pitch": 46, "duration": 22, "velocity": 64}, {"time": 1785, "pitch": 53, "duration": 7, "velocity": 80}, {"time": 1791, "pitch": 58, "duration": 13, "velocity": 80}, {"time": 1791, "pitch": 61, "duration": 12, "velocity": 92}, {"time": 1797, "pitch": 53, "duration": 6, "velocity": 66}, {"time": 1803, "pitch": 41, "duration": 18, "velocity": 80}, {"time": 1809, "pitch": 48, "duration": 12, "velocity": 76}, {"time": 1815, "pitch": 53, "duration": 6, "velocity": 67}, {"time": 1815, "pitch": 56, "duration": 6, "velocity": 69}, {"time": 1815, "pitch": 60, "duration": 6, "velocity": 84}, {"time": 1827, "pitch": 37, "duration": 17, "velocity": 87}, {"time": 1827, "pitch": 53, "duration": 14, "velocity": 82}, {"time": 1833, "pitch": 44, "duration": 12, "velocity": 55}, {"time": 1839, "pitch": 49, "duration": 6, "velocity": 84}, {"time": 1845, "pitch": 56, "duration": 6, "velocity": 67}, {"time": 1851, "pitch": 39, "duration": 20, "velocity": 84}, {"time": 1851, "pitch": 55, "duration": 18, "velocity": 61}, {"time": 1857, "pitch": 46, "duration": 15, "velocity": 67}, {"time": 1863, "pitch": 51, "duration": 7, "velocity": 78}, {"time": 1869, "pitch": 58, "duration": 3, "velocity": 89}, {"time": 1875, "pitch": 41, "duration": 47, "velocity": 97}, {"time": 1875, "pitch": 53, "duration": 10, "velocity": 82}, {"time": 1875, "pitch": 56, "duration": 9, "velocity": 89}, {"time": 1881, "pitch": 48, "duration": 8, "velocity": 52}, {"time": 1887, "pitch": 53, "duration": 7, "velocity": 82}, {"time": 1887, "pitch": 60, "duration": 6, "velocity": 82}, {"time": 1893, "pitch": 48, "duration": 7, "velocity": 62}, {"time": 1899, "pitch": 53, "duration": 7, "velocity": 78}, {"time": 1899, "pitch": 60, "duration": 6, "velocity": 80}, {"time": 1905, "pitch": 48, "duration": 7, "velocity": 71}, {"time": 1911, "pitch": 53, "duration": 3, "velocity": 102}, {"time": 1911, "pitch": 56, "duration": 3, "velocity": 111}, {"time": 1914, "pitch": 48, "duration": 8, "velocity": 84}, {"time": 1917, "pitch": 55, "duration": 5, "velocity": 105}, {"time": 1923, "pitch": 37, "duration": 7, "velocity": 86}, {"time": 1923, "pitch": 68, "duration": 5, "velocity": 84}, {"time": 1926, "pitch": 44, "duration": 4, "velocity": 77}, {"time": 1929, "pitch": 61, "duration": 4, "velocity": 85}, {"time": 1932, "pitch": 65, "duration": 3, "velocity": 76}, {"time": 1935, "pitch": 68, "duration": 4, "velocity": 85}, {"time": 1938, "pitch": 61, "duration": 6, "velocity": 85}, {"time": 1941, "pitch": 65, "duration": 3, "velocity": 70}, {"time": 1944, "pitch": 68, "duration": 3, "velocity": 79}, {"time": 1947, "pitch": 51, "duration": 13, "velocity": 98}, {"time": 1950, "pitch": 58, "duration": 7, "velocity": 77}, {"time": 1953, "pitch": 63, "duration": 3, "velocity": 86}, {"time": 1956, "pitch": 70, "duration": 6, "velocity": 86}, {"time": 1959, "pitch": 58, "duration": 4, "velocity": 83}, {"time": 1962, "pitch": 63, "duration": 3, "velocity": 88}, {"time": 1965, "pitch": 70, "duration": 4, "velocity": 78}, {"time": 1968, "pitch": 63, "duration": 3, "velocity": 89}, {"time": 1971, "pitch": 41, "duration": 22, "velocity": 86}, {"time": 1974, "pitch": 48, "duration": 19, "velocity": 76}, {"time": 1977, "pitch": 53, "duration": 3, "velocity": 87}, {"time": 1980, "pitch": 60, "duration": 4, "velocity": 80}, {"time": 1983, "pitch": 56, "duration": 3, "velocity": 72}, {"time": 1986, "pitch": 53, "duration": 4, "velocity": 88}, {"time": 1989, "pitch": 60, "duration": 6, "velocity": 84}, {"time": 1992, "pitch": 56, "duration": 1, "velocity": 86}, {"time": 1995, "pitch": 41, "duration": 20, "velocity": 85}, {"time": 1995, "pitch": 65, "duration": 9, "velocity": 87}, {"time": 1998, "pitch": 48, "duration": 17, "velocity": 79}, {"time": 2001, "pitch": 53, "duration": 4, "velocity": 89}, {"time": 2004, "pitch": 60, "duration": 6, "velocity": 86}, {"time": 2007, "pitch": 56, "duration": 3, "velocity": 85}, {"time": 2010, "pitch": 53, "duration": 3, "velocity": 86}, {"time": 2013, "pitch": 65, "duration": 5, "velocity": 86}, {"time": 2016, "pitch": 53, "duration": 2, "velocity": 88}, {"time": 2019, "pitch": 37, "duration": 17, "velocity": 90}, {"time": 2022, "pitch": 44, "duration": 15, "velocity": 83}, {"time": 2025, "pitch": 49, "duration": 4, "velocity": 84}, {"time": 2028, "pitch": 56, "duration": 6, "velocity": 80}, {"time": 2031, "pitch": 53, "duration": 3, "velocity": 69}, {"time": 2034, "pitch": 49, "duration": 2, "velocity": 90}, {"time": 2037, "pitch": 61, "duration": 6, "velocity": 85}, {"time": 2040, "pitch": 49, "duration": 2, "velocity": 91}, {"time": 2043, "pitch": 39, "duration": 18, "velocity": 98}, {"time": 2046, "pitch": 46, "duration": 15, "velocity": 79}, {"time": 2049, "pitch": 51, "duration": 6, "velocity": 89}, {"time": 2052, "pitch": 55, "duration": 3, "velocity": 81}, {"time": 2055, "pitch": 63, "duration": 3, "velocity": 86}, {"time": 2058, "pitch": 55, "duration": 2, "velocity": 84}, {"time": 2061, "pitch": 51, "duration": 3, "velocity": 95}, {"time": 2064, "pitch": 55, "duration": 2, "velocity": 78}, {"time": 2067, "pitch": 41, "duration": 22, "velocity": 87}, {"time": 2070, "pitch": 48, "duration": 19, "velocity": 83}, {"time": 2073, "pitch": 56, "duration": 2, "velocity": 89}, {"time": 2076, "pitch": 53, "duration": 3, "velocity": 87}, {"time": 2079, "pitch": 60, "duration": 4, "velocity": 85}, {"time": 2082, "pitch": 56, "duration": 3, "velocity": 85}, {"time": 2085, "pitch": 53, "duration": 4, "velocity": 85}, {"time": 2088, "pitch": 65, "duration": 11, "velocity": 90}, {"time": 2091, "pitch": 41, "duration": 21, "velocity": 87}, {"time": 2094, "pitch": 48, "duration": 10, "velocity": 84}, {"time": 2097, "pitch": 56, "duration": 2, "velocity": 85}, {"time": 2100, "pitch": 53, "duration": 1, "velocity": 85}, {"time": 2103, "pitch": 56, "duration": 5, "velocity": 95}, {"time": 2103, "pitch": 60, "duration": 9, "velocity": 91}, {"time": 2106, "pitch": 48, "duration": 6, "velocity": 84}, {"time": 2109, "pitch": 53, "duration": 4, "velocity": 85}, {"time": 2112, "pitch": 56, "duration": 2, "velocity": 87}, {"time": 2115, "pitch": 37, "duration": 18, "velocity": 95}, {"time": 2118, "pitch": 44, "duration": 16, "velocity": 80}, {"time": 2121, "pitch": 49, "duration": 5, "velocity": 86}, {"time": 2124, "pitch": 53, "duration": 3, "velocity": 75}, {"time": 2127, "pitch": 61, "duration": 3, "velocity": 88}, {"time": 2130, "pitch": 56, "duration": 4, "velocity": 83}, {"time": 2133, "pitch": 53, "duration": 3, "velocity": 84}, {"time": 2136, "pitch": 49, "duration": 2, "velocity": 93}, {"time": 2139, "pitch": 39, "duration": 22, "velocity": 91}, {"time": 2142, "pitch": 46, "duration": 19, "velocity": 72}, {"time": 2145, "pitch": 51, "duration": 4, "velocity": 86}, {"time": 2148, "pitch": 55, "duration": 3, "velocity": 79}, {"time": 2151, "pitch": 63, "duration": 3, "velocity": 85}, {"time": 2154, "pitch": 58, "duration": 5, "velocity": 78}, {"time": 2157, "pitch": 55, "duration": 3, "velocity": 79}, {"time": 2160, "pitch": 51, "duration": 2, "velocity": 88}, {"time": 2163, "pitch": 44, "duration": 6, "velocity": 89}, {"time": 2163, "pitch": 56, "duration": 4, "velocity": 75}, {"time": 2163, "pitch": 63, "duration": 6, "velocity": 80}, {"time": 2166, "pitch": 51, "duration": 8, "velocity": 86}, {"time": 2169, "pitch": 56, "duration": 4, "velocity": 85}, {"time": 2172, "pitch": 63, "duration": 4, "velocity": 78}, {"time": 2175, "pitch": 43, "duration": 10, "velocity": 84}, {"time": 2178, "pitch": 51, "duration": 6, "velocity": 77}, {"time": 2181, "pitch": 55, "duration": 4, "velocity": 83}, {"time": 2184, "pitch": 58, "duration": 3, "velocity": 71}, {"time": 2187, "pitch": 41, "duration": 26, "velocity": 87}, {"time": 2190, "pitch": 48, "duration": 23, "velocity": 80}, {"time": 2193, "pitch": 53, "duration": 7, "velocity": 87}, {"time": 2196, "pitch": 56, "duration": 2, "velocity": 87}, {"time": 2199, "pitch": 65, "duration": 3, "velocity": 86}, {"time": 2202, "pitch": 60, "duration": 3, "velocity": 73}, {"time": 2205, "pitch": 56, "duration": 4, "velocity": 82}, {"time": 2208, "pitch": 53, "duration": 3, "velocity": 84}, {"time": 2211, "pitch": 46, "duration": 20, "velocity": 88}, {"time": 2211, "pitch": 58, "duration": 4, "velocity": 88}, {"time": 2214, "pitch": 53, "duration": 11, "velocity": 85}, {"time": 2217, "pitch": 58, "duration": 6, "velocity": 75}, {"time": 2220, "pitch": 61, "duration": 3, "velocity": 86}, {"time": 2223, "pitch": 65, "duration": 5, "velocity": 86}, {"time": 2226, "pitch": 61, "duration": 3, "velocity": 85}, {"time": 2229, "pitch": 58, "duration": 4, "velocity": 84}, {"time": 2232, "pitch": 53, "duration": 4, "velocity": 89}, {"time": 2235, "pitch": 39, "duration": 15, "velocity": 84}, {"time": 2238, "pitch": 46, "duration": 13, "velocity": 84}, {"time": 2241, "pitch": 51, "duration": 5, "velocity": 84}, {"time": 2244, "pitch": 55, "duration": 3, "velocity": 76}, {"time": 2247, "pitch": 63, "duration": 6, "velocity": 84}, {"time": 2250, "pitch": 55, "duration": 3, "velocity": 85}, {"time": 2253, "pitch": 51, "duration": 1, "velocity": 91}, {"time": 2259, "pitch": 41, "duration": 47, "velocity": 85}, {"time": 2259, "pitch": 53, "duration": 11, "velocity": 84}, {"time": 2259, "pitch": 56, "duration": 10, "velocity": 84}, {"time": 2265, "pitch": 48, "duration": 40, "velocity": 85}, {"time": 2271, "pitch": 60, "duration": 4, "velocity": 83}, {"time": 2274, "pitch": 53, "duration": 12, "velocity": 84}, {"time": 2277, "pitch": 56, "duration": 5, "velocity": 87}, {"time": 2280, "pitch": 60, "duration": 10, "velocity": 84}, {"time": 2283, "pitch": 56, "duration": 5, "velocity": 30}, {"time": 2283, "pitch": 65, "duration": 8, "velocity": 87}, {"time": 2286, "pitch": 53, "duration": 1, "velocity": 77}, {"time": 2295, "pitch": 56, "duration": 10, "velocity": 85}, {"time": 2295, "pitch": 60, "duration": 11, "velocity": 83}, {"time": 2295, "pitch": 65, "duration": 11, "velocity": 85}, {"time": 2301, "pitch": 53, "duration": 5, "velocity": 88}, {"time": 2307, "pitch": 53, "duration": 16, "velocity": 105}, {"time": 2307, "pitch": 65, "duration": 6, "velocity": 94}, {"time": 2307, "pitch": 68, "duration": 6, "velocity": 100}, {"time": 2307, "pitch": 41, "duration": 16, "velocity": 92}, {"time": 2313, "pitch": 60, "duration": 6, "velocity": 89}, {"time": 2316, "pitch": 65, "duration": 1, "velocity": 51}, {"time": 2319, "pitch": 65, "duration": 3, "velocity": 102}, {"time": 2319, "pitch": 68, "duration": 3, "velocity": 108}, {"time": 2319, "pitch": 72, "duration": 4, "velocity": 100}, {"time": 2322, "pitch": 60, "duration": 2, "velocity": 80}, {"time": 2325, "pitch": 65, "duration": 3, "velocity": 92}, {"time": 2328, "pitch": 68, "duration": 1, "velocity": 82}, {"time": 2331, "pitch": 49, "duration": 7, "velocity": 94}, {"time": 2331, "pitch": 61, "duration": 7, "velocity": 100}, {"time": 2331, "pitch": 65, "duration": 7, "velocity": 105}, {"time": 2331, "pitch": 37, "duration": 7, "velocity": 81}, {"time": 2337, "pitch": 56, "duration": 6, "velocity": 80}, {"time": 2343, "pitch": 61, "duration": 6, "velocity": 102}, {"time": 2343, "pitch": 65, "duration": 6, "velocity": 111}, {"time": 2343, "pitch": 68, "duration": 7, "velocity": 105}, {"time": 2349, "pitch": 49, "duration": 2, "velocity": 82}, {"time": 2349, "pitch": 37, "duration": 2, "velocity": 69}, {"time": 2352, "pitch": 61, "duration": 1, "velocity": 94}, {"time": 2355, "pitch": 56, "duration": 13, "velocity": 80}, {"time": 2355, "pitch": 63, "duration": 3, "velocity": 94}, {"time": 2355, "pitch": 68, "duration": 8, "velocity": 100}, {"time": 2361, "pitch": 63, "duration": 3, "velocity": 76}, {"time": 2367, "pitch": 63, "duration": 3, "velocity": 108}, {"time": 2367, "pitch": 68, "duration": 4, "velocity": 111}, {"time": 2367, "pitch": 72, "duration": 4, "velocity": 102}, {"time": 2370, "pitch": 56, "duration": 1, "velocity": 73}, {"time": 2373, "pitch": 63, "duration": 4, "velocity": 102}, {"time": 2376, "pitch": 68, "duration": 1, "velocity": 100}, {"time": 2379, "pitch": 48, "duration": 10, "velocity": 100}, {"time": 2379, "pitch": 60, "duration": 4, "velocity": 97}, {"time": 2379, "pitch": 64, "duration": 4, "velocity": 102}, {"time": 2379, "pitch": 36, "duration": 10, "velocity": 87}, {"time": 2385, "pitch": 60, "duration": 3, "velocity": 100}, {"time": 2391, "pitch": 60, "duration": 3, "velocity": 102}, {"time": 2391, "pitch": 64, "duration": 4, "velocity": 112}, {"time": 2391, "pitch": 67, "duration": 7, "velocity": 102}, {"time": 2394, "pitch": 55, "duration": 2, "velocity": 87}, {"time": 2397, "pitch": 60, "duration": 4, "velocity": 108}, {"time": 2400, "pitch": 64, "duration": 1, "velocity": 44}, {"time": 2403, "pitch": 46, "duration": 14, "velocity": 94}, {"time": 2403, "pitch": 58, "duration": 7, "velocity": 87}, {"time": 2403, "pitch": 61, "duration": 6, "velocity": 94}, {"time": 2403, "pitch": 34, "duration": 14, "velocity": 81}, {"time": 2409, "pitch": 53, "duration": 6, "velocity": 69}, {"time": 2415, "pitch": 58, "duration": 4, "velocity": 100}, {"time": 2415, "pitch": 61, "duration": 5, "velocity": 108}, {"time": 2415, "pitch": 65, "duration": 5, "velocity": 97}, {"time": 2421, "pitch": 53, "duration": 1, "velocity": 92}, {"time": 2427, "pitch": 51, "duration": 15, "velocity": 102}, {"time": 2427, "pitch": 63, "duration": 6, "velocity": 92}, {"time": 2427, "pitch": 67, "duration": 7, "velocity": 85}, {"time": 2427, "pitch": 39, "duration": 15, "velocity": 89}, {"time": 2433, "pitch": 58, "duration": 6, "velocity": 105}, {"time": 2436, "pitch": 63, "duration": 1, "velocity": 89}, {"time": 2439, "pitch": 63, "duration": 3, "velocity": 105}, {"time": 2439, "pitch": 70, "duration": 3, "velocity": 105}, {"time": 2442, "pitch": 58, "duration": 1, "velocity": 102}, {"time": 2445, "pitch": 63, "duration": 3, "velocity": 87}, {"time": 2451, "pitch": 44, "duration": 2, "velocity": 100}, {"time": 2451, "pitch": 63, "duration": 12, "velocity": 94}, {"time": 2451, "pitch": 68, "duration": 13, "velocity": 97}, {"time": 2451, "pitch": 32, "duration": 2, "velocity": 87}, {"time": 2457, "pitch": 51, "duration": 8, "velocity": 71}, {"time": 2460, "pitch": 56, "duration": 4, "velocity": 60}, {"time": 2463, "pitch": 60, "duration": 3, "velocity": 117}, {"time": 2466, "pitch": 63, "duration": 5, "velocity": 114}, {"time": 2469, "pitch": 68, "duration": 3, "velocity": 111}, {"time": 2472, "pitch": 72, "duration": 1, "velocity": 94}, {"time": 2475, "pitch": 48, "duration": 17, "velocity": 105}, {"time": 2475, "pitch": 60, "duration": 7, "velocity": 92}, {"time": 2475, "pitch": 64, "duration": 6, "velocity": 93}, {"time": 2475, "pitch": 67, "duration": 7, "velocity": 93}, {"time": 2475, "pitch": 36, "duration": 17, "velocity": 92}, {"time": 2481, "pitch": 55, "duration": 7, "velocity": 70}, {"time": 2484, "pitch": 60, "duration": 1, "velocity": 82}, {"time": 2484, "pitch": 64, "duration": 1, "velocity": 72}, {"time": 2484, "pitch": 67, "duration": 1, "velocity": 35}, {"time": 2484, "pitch": 72, "duration": 1, "velocity": 84}, {"time": 2487, "pitch": 60, "duration": 3, "velocity": 111}, {"time": 2487, "pitch": 64, "duration": 3, "velocity": 109}, {"time": 2487, "pitch": 67, "duration": 3, "velocity": 105}, {"time": 2487, "pitch": 72, "duration": 2, "velocity": 97}, {"time": 2490, "pitch": 55, "duration": 4, "velocity": 74}, {"time": 2493, "pitch": 60, "duration": 4, "velocity": 100}, {"time": 2493, "pitch": 64, "duration": 4, "velocity": 105}, {"time": 2493, "pitch": 70, "duration": 5, "velocity": 97}, {"time": 2499, "pitch": 53, "duration": 16, "velocity": 105}, {"time": 2499, "pitch": 65, "duration": 6, "velocity": 94}, {"time": 2499, "pitch": 68, "duration": 6, "velocity": 100}, {"time": 2499, "pitch": 41, "duration": 16, "velocity": 92}, {"time": 2505, "pitch": 60, "duration": 6, "velocity": 89}, {"time": 2508, "pitch": 65, "duration": 1, "velocity": 51}, {"time": 2511, "pitch": 65, "duration": 3, "velocity": 102}, {"time": 2511, "pitch": 68, "duration": 3, "velocity": 108}, {"time": 2511, "pitch": 72, "duration": 4, "velocity": 100}, {"time": 2514, "pitch": 60, "duration": 2, "velocity": 80}, {"time": 2517, "pitch": 65, "duration": 3, "velocity": 92}, {"time": 2520, "pitch": 68, "duration": 1, "velocity": 82}, {"time": 2523, "pitch": 49, "duration": 7, "velocity": 94}, {"time": 2523, "pitch": 61, "duration": 7, "velocity": 100}, {"time": 2523, "pitch": 65, "duration": 7, "velocity": 105}, {"time": 2523, "pitch": 37, "duration": 7, "velocity": 81}, {"time": 2529, "pitch": 56, "duration": 6, "velocity": 80}, {"time": 2535, "pitch": 61, "duration": 6, "velocity": 102}, {"time": 2535, "pitch": 65, "duration": 6, "velocity": 111}, {"time": 2535, "pitch": 68, "duration": 7, "velocity": 105}, {"time": 2541, "pitch": 49, "duration": 2, "velocity": 82}, {"time": 2541, "pitch": 37, "duration": 2, "velocity": 69}, {"time": 2544, "pitch": 61, "duration": 1, "velocity": 94}, {"time": 2547, "pitch": 56, "duration": 13, "velocity": 80}, {"time": 2547, "pitch": 63, "duration": 3, "velocity": 94}, {"time": 2547, "pitch": 68, "duration": 8, "velocity": 100}, {"time": 2553, "pitch": 63, "duration": 3, "velocity": 76}, {"time": 2559, "pitch": 63, "duration": 3, "velocity": 108}, {"time": 2559, "pitch": 68, "duration": 4, "velocity": 111}, {"time": 2559, "pitch": 72, "duration": 4, "velocity": 102}, {"time": 2562, "pitch": 56, "duration": 1, "velocity": 73}, {"time": 2565, "pitch": 63, "duration": 4, "velocity": 102}, {"time": 2568, "pitch": 68, "duration": 1, "velocity": 100}, {"time": 2571, "pitch": 48, "duration": 10, "velocity": 100}, {"time": 2571, "pitch": 60, "duration": 4, "velocity": 97}, {"time": 2571, "pitch": 64, "duration": 4, "velocity": 102}, {"time": 2571, "pitch": 36, "duration": 10, "velocity": 87}, {"time": 2577, "pitch": 60, "duration": 3, "velocity": 100}, {"time": 2583, "pitch": 60, "duration": 3, "velocity": 102}, {"time": 2583, "pitch": 64, "duration": 4, "velocity": 112}, {"time": 2583, "pitch": 67, "duration": 7, "velocity": 102}, {"time": 2586, "pitch": 55, "duration": 2, "velocity": 87}, {"time": 2589, "pitch": 60, "duration": 4, "velocity": 108}, {"time": 2592, "pitch": 64, "duration": 1, "velocity": 44}, {"time": 2595, "pitch": 46, "duration": 14, "velocity": 94}, {"time": 2595, "pitch": 58, "duration": 7, "velocity": 87}, {"time": 2595, "pitch": 61, "duration": 6, "velocity": 94}, {"time": 2595, "pitch": 34, "duration": 14, "velocity": 81}, {"time": 2601, "pitch": 53, "duration": 6, "velocity": 69}, {"time": 2607, "pitch": 58, "duration": 4, "velocity": 100}, {"time": 2607, "pitch": 61, "duration": 5, "velocity": 108}, {"time": 2607, "pitch": 65, "duration": 5, "velocity": 97}, {"time": 2613, "pitch": 53, "duration": 1, "velocity": 92}, {"time": 2619, "pitch": 51, "duration": 15, "velocity": 102}, {"time": 2619, "pitch": 63, "duration": 6, "velocity": 92}, {"time": 2619, "pitch": 67, "duration": 7, "velocity": 85}, {"time": 2619, "pitch": 39, "duration": 15, "velocity": 89}, {"time": 2625, "pitch": 58, "duration": 6, "velocity": 105}, {"time": 2628, "pitch": 63, "duration": 1, "velocity": 89}, {"time": 2631, "pitch": 70, "duration": 3, "velocity": 105}, {"time": 2631, "pitch": 63, "duration": 3, "velocity": 105}, {"time": 2634, "pitch": 58, "duration": 1, "velocity": 102}, {"time": 2637, "pitch": 63, "duration": 3, "velocity": 87}, {"time": 2643, "pitch": 41, "duration": 9, "velocity": 92}, {"time": 2643, "pitch": 53, "duration": 9, "velocity": 102}, {"time": 2643, "pitch": 60, "duration": 3, "velocity": 92}, {"time": 2643, "pitch": 65, "duration": 3, "velocity": 82}, {"time": 2643, "pitch": 68, "duration": 3, "velocity": 94}, {"time": 2649, "pitch": 65, "duration": 3, "velocity": 78}, {"time": 2655, "pitch": 65, "duration": 5, "velocity": 105}, {"time": 2655, "pitch": 68, "duration": 5, "velocity": 114}, {"time": 2655, "pitch": 72, "duration": 6, "velocity": 105}, {"time": 2658, "pitch": 41, "duration": 1, "velocity": 50}, {"time": 2658, "pitch": 53, "duration": 1, "velocity": 60}, {"time": 2661, "pitch": 60, "duration": 4, "velocity": 84}, {"time": 2664, "pitch": 65, "duration": 1, "velocity": 100}, {"time": 2667, "pitch": 41, "duration": 15, "velocity": 92}, {"time": 2667, "pitch": 53, "duration": 15, "velocity": 102}, {"time": 2667, "pitch": 65, "duration": 7, "velocity": 94}, {"time": 2667, "pitch": 68, "duration": 7, "velocity": 94}, {"time": 2673, "pitch": 60, "duration": 8, "velocity": 76}, {"time": 2679, "pitch": 65, "duration": 11, "velocity": 100}, {"time": 2679, "pitch": 68, "duration": 11, "velocity": 108}, {"time": 2679, "pitch": 72, "duration": 11, "velocity": 102}, {"time": 2685, "pitch": 41, "duration": 5, "velocity": 87}, {"time": 2685, "pitch": 53, "duration": 5, "velocity": 97}, {"time": 2685, "pitch": 60, "duration": 5, "velocity": 94}, {"time": 2691, "pitch": 53, "duration": 16, "velocity": 105}, {"time": 2691, "pitch": 65, "duration": 6, "velocity": 94}, {"time": 2691, "pitch": 68, "duration": 6, "velocity": 100}, {"time": 2691, "pitch": 41, "duration": 16, "velocity": 92}, {"time": 2697, "pitch": 60, "duration": 6, "velocity": 89}, {"time": 2700, "pitch": 65, "duration": 1, "velocity": 51}, {"time": 2703, "pitch": 65, "duration": 3, "velocity": 102}, {"time": 2703, "pitch": 68, "duration": 3, "velocity": 108}, {"time": 2703, "pitch": 72, "duration": 4, "velocity": 100}, {"time": 2706, "pitch": 60, "duration": 2, "velocity": 80}, {"time": 2709, "pitch": 65, "duration": 3, "velocity": 92}, {"time": 2712, "pitch": 68, "duration": 1, "velocity": 82}, {"time": 2715, "pitch": 49, "duration": 7, "velocity": 94}, {"time": 2715, "pitch": 61, "duration": 7, "velocity": 100}, {"time": 2715, "pitch": 65, "duration": 7, "velocity": 105}, {"time": 2715, "pitch": 37, "duration": 7, "velocity": 81}, {"time": 2721, "pitch": 56, "duration": 6, "velocity": 80}, {"time": 2727, "pitch": 61, "duration": 6, "velocity": 102}, {"time": 2727, "pitch": 65, "duration": 6, "velocity": 111}, {"time": 2727, "pitch": 68, "duration": 7, "velocity": 105}, {"time": 2733, "pitch": 49, "duration": 2, "velocity": 82}, {"time": 2733, "pitch": 37, "duration": 2, "velocity": 69}, {"time": 2736, "pitch": 61, "duration": 1, "velocity": 94}, {"time": 2739, "pitch": 56, "duration": 13, "velocity": 80}, {"time": 2739, "pitch": 63, "duration": 3, "velocity": 94}, {"time": 2739, "pitch": 68, "duration": 8, "velocity": 100}, {"time": 2745, "pitch": 63, "duration": 3, "velocity": 76}, {"time": 2751, "pitch": 63, "duration": 3, "velocity": 108}, {"time": 2751, "pitch": 68, "duration": 4, "velocity": 111}, {"time": 2751, "pitch": 72, "duration": 4, "velocity": 102}, {"time": 2754, "pitch": 56, "duration": 1, "velocity": 73}, {"time": 2757, "pitch": 63, "duration": 4, "velocity": 102}, {"time": 2760, "pitch": 68, "duration": 1, "velocity": 100}, {"time": 2763, "pitch": 48, "duration": 10, "velocity": 100}, {"time": 2763, "pitch": 60, "duration": 4, "velocity": 97}, {"time": 2763, "pitch": 64, "duration": 4, "velocity": 102}, {"time": 2763, "pitch": 36, "duration": 10, "velocity": 87}, {"time": 2769, "pitch": 60, "duration": 3, "velocity": 100}, {"time": 2775, "pitch": 60, "duration": 3, "velocity": 102}, {"time": 2775, "pitch": 64, "duration": 4, "velocity": 112}, {"time": 2775, "pitch": 67, "duration": 7, "velocity": 102}, {"time": 2778, "pitch": 55, "duration": 2, "velocity": 87}, {"time": 2781, "pitch": 60, "duration": 4, "velocity": 108}, {"time": 2784, "pitch": 64, "duration": 1, "velocity": 44}, {"time": 2787, "pitch": 46, "duration": 14, "velocity": 94}, {"time": 2787, "pitch": 58, "duration": 7, "velocity": 87}, {"time": 2787, "pitch": 61, "duration": 6, "velocity": 94}, {"time": 2787, "pitch": 34, "duration": 14, "velocity": 81}, {"time": 2793, "pitch": 53, "duration": 6, "velocity": 69}, {"time": 2799, "pitch": 58, "duration": 4, "velocity": 100}, {"time": 2799, "pitch": 61, "duration": 5, "velocity": 108}, {"time": 2799, "pitch": 65, "duration": 5, "velocity": 97}, {"time": 2805, "pitch": 53, "duration": 1, "velocity": 92}, {"time": 2811, "pitch": 51, "duration": 15, "velocity": 102}, {"time": 2811, "pitch": 63, "duration": 6, "velocity": 92}, {"time": 2811, "pitch": 67, "duration": 7, "velocity": 85}, {"time": 2811, "pitch": 39, "duration": 15, "velocity": 89}, {"time": 2817, "pitch": 58, "duration": 6, "velocity": 105}, {"time": 2820, "pitch": 63, "duration": 1, "velocity": 89}, {"time": 2823, "pitch": 63, "duration": 3, "velocity": 105}, {"time": 2823, "pitch": 70, "duration": 3, "velocity": 105}, {"time": 2826, "pitch": 58, "duration": 1, "velocity": 102}, {"time": 2829, "pitch": 63, "duration": 3, "velocity": 87}, {"time": 2835, "pitch": 44, "duration": 2, "velocity": 100}, {"time": 2835, "pitch": 63, "duration": 12, "velocity": 94}, {"time": 2835, "pitch": 68, "duration": 13, "velocity": 97}, {"time": 2835, "pitch": 32, "duration": 2, "velocity": 87}, {"time": 2841, "pitch": 51, "duration": 8, "velocity": 71}, {"time": 2844, "pitch": 56, "duration": 4, "velocity": 60}, {"time": 2847, "pitch": 60, "duration": 3, "velocity": 117}, {"time": 2850, "pitch": 63, "duration": 5, "velocity": 114}, {"time": 2853, "pitch": 68, "duration": 3, "velocity": 111}, {"time": 2856, "pitch": 72, "duration": 1, "velocity": 94}, {"time": 2859, "pitch": 48, "duration": 17, "velocity": 105}, {"time": 2859, "pitch": 60, "duration": 7, "velocity": 92}, {"time": 2859, "pitch": 64, "duration": 6, "velocity": 93}, {"time": 2859, "pitch": 67, "duration": 7, "velocity": 93}, {"time": 2859, "pitch": 36, "duration": 17, "velocity": 92}, {"time": 2865, "pitch": 55, "duration": 7, "velocity": 70}, {"time": 2868, "pitch": 60, "duration": 1, "velocity": 82}, {"time": 2868, "pitch": 64, "duration": 1, "velocity": 72}, {"time": 2868, "pitch": 67, "duration": 1, "velocity": 35}, {"time": 2868, "pitch": 72, "duration": 1, "velocity": 84}, {"time": 2871, "pitch": 60, "duration": 3, "velocity": 111}, {"time": 2871, "pitch": 64, "duration": 3, "velocity": 109}, {"time": 2871, "pitch": 67, "duration": 3, "velocity": 105}, {"time": 2871, "pitch": 72, "duration": 2, "velocity": 97}, {"time": 2874, "pitch": 55, "duration": 4, "velocity": 74}, {"time": 2877, "pitch": 60, "duration": 4, "velocity": 100}, {"time": 2877, "pitch": 64, "duration": 4, "velocity": 105}, {"time": 2877, "pitch": 70, "duration": 5, "velocity": 97}, {"time": 2883, "pitch": 53, "duration": 16, "velocity": 105}, {"time": 2883, "pitch": 65, "duration": 6, "velocity": 94}, {"time": 2883, "pitch": 68, "duration": 6, "velocity": 100}, {"time": 2883, "pitch": 41, "duration": 16, "velocity": 92}, {"time": 2889, "pitch": 60, "duration": 6, "velocity": 89}, {"time": 2892, "pitch": 65, "duration": 1, "velocity": 51}, {"time": 2895, "pitch": 65, "duration": 3, "velocity": 102}, {"time": 2895, "pitch": 68, "duration": 3, "velocity": 108}, {"time": 2895, "pitch": 72, "duration": 4, "velocity": 100}, {"time": 2898, "pitch": 60, "duration": 2, "velocity": 80}, {"time": 2901, "pitch": 65, "duration": 3, "velocity": 92}, {"time": 2904, "pitch": 68, "duration": 1, "velocity": 82}, {"time": 2907, "pitch": 49, "duration": 7, "velocity": 94}, {"time": 2907, "pitch": 61, "duration": 7, "velocity": 100}, {"time": 2907, "pitch": 65, "duration": 7, "velocity": 105}, {"time": 2907, "pitch": 37, "duration": 7, "velocity": 81}, {"time": 2913, "pitch": 56, "duration": 6, "velocity": 80}, {"time": 2919, "pitch": 61, "duration": 6, "velocity": 102}, {"time": 2919, "pitch": 65, "duration": 6, "velocity": 111}, {"time": 2919, "pitch": 68, "duration": 7, "velocity": 105}, {"time": 2925, "pitch": 49, "duration": 2, "velocity": 82}, {"time": 2925, "pitch": 37, "duration": 2, "velocity": 69}, {"time": 2928, "pitch": 61, "duration": 1, "velocity": 94}, {"time": 2931, "pitch": 56, "duration": 13, "velocity": 80}, {"time": 2931, "pitch": 63, "duration": 3, "velocity": 94}, {"time": 2931, "pitch": 68, "duration": 8, "velocity": 100}, {"time": 2937, "pitch": 63, "duration": 3, "velocity": 76}, {"time": 2943, "pitch": 63, "duration": 3, "velocity": 108}, {"time": 2943, "pitch": 68, "duration": 4, "velocity": 111}, {"time": 2943, "pitch": 72, "duration": 4, "velocity": 102}, {"time": 2946, "pitch": 56, "duration": 1, "velocity": 73}, {"time": 2949, "pitch": 63, "duration": 4, "velocity": 102}, {"time": 2952, "pitch": 68, "duration": 1, "velocity": 100}, {"time": 2955, "pitch": 48, "duration": 10, "velocity": 100}, {"time": 2955, "pitch": 60, "duration": 4, "velocity": 97}, {"time": 2955, "pitch": 64, "duration": 4, "velocity": 102}, {"time": 2955, "pitch": 36, "duration": 10, "velocity": 87}, {"time": 2961, "pitch": 60, "duration": 3, "velocity": 100}, {"time": 2967, "pitch": 60, "duration": 3, "velocity": 102}, {"time": 2967, "pitch": 64, "duration": 4, "velocity": 112}, {"time": 2967, "pitch": 67, "duration": 7, "velocity": 102}, {"time": 2970, "pitch": 55, "duration": 2, "velocity": 87}, {"time": 2973, "pitch": 60, "duration": 4, "velocity": 108}, {"time": 2976, "pitch": 64, "duration": 1, "velocity": 44}, {"time": 2979, "pitch": 46, "duration": 14, "velocity": 94}, {"time": 2979, "pitch": 58, "duration": 7, "velocity": 87}, {"time": 2979, "pitch": 61, "duration": 6, "velocity": 94}, {"time": 2979, "pitch": 34, "duration": 14, "velocity": 81}, {"time": 2985, "pitch": 53, "duration": 6, "velocity": 69}, {"time": 2991, "pitch": 58, "duration": 4, "velocity": 100}, {"time": 2991, "pitch": 61, "duration": 5, "velocity": 108}, {"time": 2991, "pitch": 65, "duration": 5, "velocity": 97}, {"time": 2997, "pitch": 53, "duration": 1, "velocity": 92}, {"time": 3003, "pitch": 51, "duration": 15, "velocity": 102}, {"time": 3003, "pitch": 63, "duration": 6, "velocity": 92}, {"time": 3003, "pitch": 67, "duration": 7, "velocity": 85}, {"time": 3003, "pitch": 39, "duration": 15, "velocity": 89}, {"time": 3009, "pitch": 58, "duration": 6, "velocity": 105}, {"time": 3012, "pitch": 63, "duration": 1, "velocity": 89}, {"time": 3015, "pitch": 63, "duration": 3, "velocity": 105}, {"time": 3015, "pitch": 70, "duration": 3, "velocity": 105}, {"time": 3018, "pitch": 58, "duration": 1, "velocity": 102}, {"time": 3021, "pitch": 63, "duration": 3, "velocity": 87}, {"time": 3027, "pitch": 41, "duration": 9, "velocity": 92}, {"time": 3027, "pitch": 53, "duration": 9, "velocity": 102}, {"time": 3027, "pitch": 60, "duration": 3, "velocity": 92}, {"time": 3027, "pitch": 65, "duration": 3, "velocity": 82}, {"time": 3027, "pitch": 68, "duration": 3, "velocity": 94}, {"time": 3033, "pitch": 65, "duration": 3, "velocity": 78}, {"time": 3039, "pitch": 65, "duration": 5, "velocity": 105}, {"time": 3039, "pitch": 68, "duration": 5, "velocity": 114}, {"time": 3039, "pitch": 72, "duration": 6, "velocity": 105}, {"time": 3042, "pitch": 41, "duration": 1, "velocity": 50}, {"time": 3042, "pitch": 53, "duration": 1, "velocity": 60}, {"time": 3045, "pitch": 60, "duration": 4, "velocity": 84}, {"time": 3048, "pitch": 65, "duration": 1, "velocity": 100}, {"time": 3051, "pitch": 41, "duration": 15, "velocity": 92}, {"time": 3051, "pitch": 53, "duration": 15, "velocity": 102}, {"time": 3051, "pitch": 65, "duration": 7, "velocity": 94}, {"time": 3051, "pitch": 68, "duration": 7, "velocity": 94}, {"time": 3057, "pitch": 60, "duration": 8, "velocity": 76}, {"time": 3063, "pitch": 65, "duration": 11, "velocity": 100}, {"time": 3063, "pitch": 68, "duration": 11, "velocity": 108}, {"time": 3063, "pitch": 72, "duration": 11, "velocity": 102}, {"time": 3069, "pitch": 41, "duration": 5, "velocity": 87}, {"time": 3069, "pitch": 53, "duration": 5, "velocity": 97}, {"time": 3069, "pitch": 60, "duration": 5, "velocity": 94}, {"time": 3075, "pitch": 37, "duration": 22, "velocity": 94}, {"time": 3075, "pitch": 56, "duration": 10, "velocity": 82}, {"time": 3075, "pitch": 61, "duration": 10, "velocity": 92}, {"time": 3087, "pitch": 56, "duration": 7, "velocity": 105}, {"time": 3087, "pitch": 61, "duration": 7, "velocity": 102}, {"time": 3093, "pitch": 53, "duration": 7, "velocity": 60}, {"time": 3099, "pitch": 37, "duration": 19, "velocity": 84}, {"time": 3099, "pitch": 56, "duration": 8, "velocity": 78}, {"time": 3099, "pitch": 61, "duration": 8, "velocity": 97}, {"time": 3111, "pitch": 53, "duration": 3, "velocity": 84}, {"time": 3111, "pitch": 56, "duration": 6, "velocity": 94}, {"time": 3111, "pitch": 61, "duration": 9, "velocity": 94}, {"time": 3117, "pitch": 53, "duration": 2, "velocity": 67}, {"time": 3123, "pitch": 44, "duration": 16, "velocity": 78}, {"time": 3123, "pitch": 51, "duration": 10, "velocity": 94}, {"time": 3123, "pitch": 56, "duration": 9, "velocity": 92}, {"time": 3123, "pitch": 60, "duration": 9, "velocity": 94}, {"time": 3135, "pitch": 56, "duration": 9, "velocity": 100}, {"time": 3135, "pitch": 60, "duration": 9, "velocity": 105}, {"time": 3141, "pitch": 39, "duration": 5, "velocity": 53}, {"time": 3147, "pitch": 44, "duration": 19, "velocity": 82}, {"time": 3147, "pitch": 51, "duration": 9, "velocity": 80}, {"time": 3147, "pitch": 56, "duration": 9, "velocity": 89}, {"time": 3147, "pitch": 60, "duration": 9, "velocity": 94}, {"time": 3159, "pitch": 51, "duration": 3, "velocity": 100}, {"time": 3159, "pitch": 56, "duration": 4, "velocity": 108}, {"time": 3159, "pitch": 60, "duration": 4, "velocity": 100}, {"time": 3171, "pitch": 46, "duration": 13, "velocity": 94}, {"time": 3171, "pitch": 58, "duration": 7, "velocity": 94}, {"time": 3171, "pitch": 61, "duration": 8, "velocity": 92}, {"time": 3183, "pitch": 53, "duration": 9, "velocity": 97}, {"time": 3183, "pitch": 58, "duration": 9, "velocity": 111}, {"time": 3183, "pitch": 61, "duration": 9, "velocity": 100}, {"time": 3189, "pitch": 41, "duration": 6, "velocity": 100}, {"time": 3195, "pitch": 46, "duration": 13, "velocity": 102}, {"time": 3195, "pitch": 53, "duration": 9, "velocity": 84}, {"time": 3195, "pitch": 58, "duration": 9, "velocity": 92}, {"time": 3195, "pitch": 61, "duration": 9, "velocity": 94}, {"time": 3207, "pitch": 53, "duration": 3, "velocity": 105}, {"time": 3207, "pitch": 58, "duration": 3, "velocity": 105}, {"time": 3207, "pitch": 61, "duration": 3, "velocity": 102}, {"time": 3219, "pitch": 36, "duration": 22, "velocity": 94}, {"time": 3219, "pitch": 48, "duration": 10, "velocity": 89}, {"time": 3219, "pitch": 55, "duration": 9, "velocity": 85}, {"time": 3231, "pitch": 52, "duration": 4, "velocity": 105}, {"time": 3231, "pitch": 55, "duration": 5, "velocity": 105}, {"time": 3231, "pitch": 60, "duration": 6, "velocity": 94}, {"time": 3237, "pitch": 48, "duration": 28, "velocity": 108}, {"time": 3243, "pitch": 36, "duration": 22, "velocity": 97}, {"time": 3243, "pitch": 60, "duration": 23, "velocity": 102}, {"time": 3265, "pitch": 65, "duration": 38, "velocity": 47}, {"time": 3266, "pitch": 53, "duration": 36, "velocity": 92}, {"time": 3266, "pitch": 68, "duration": 37, "velocity": 71}, {"time": 3267, "pitch": 41, "duration": 39, "velocity": 92}, {"time": 3268, "pitch": 72, "duration": 35, "velocity": 80}], "annotations": [{"time": 33, "annotation": {"number": 64, "value": 127}, "group": "control_change"}, {"time": 49, "annotation": {"number": 64, "value": 0}, "group": "control_change"}, {"time": 83, "annotation": {"number": 64, "value": 127}, "group": "control_change"}, {"time": 98, "annotation": {"number": 64, "value": 0}, "group": "control_change"}, {"time": 105, "annotation": {"number": 64, "value": 127}, "group": "control_change"}, {"time": 121, "annotation": {"number": 64, "value": 0}, "group": "control_change"}, {"time": 130, "annotation": {"number": 64, "value": 127}, "group": "control_change"}, {"time": 146, "annotation": {"number": 64, "value": 0}, "group": "control_change"}, {"time": 158, "annotation": {"number": 64, "value": 127}, "group": "control_change"}, {"time": 172, "annotation": {"number": 64, "value": 0}, "group": "control_change"}, {"time": 207, "annotation": {"number": 64, "value": 127}, "group": "control_change"}, {"time": 218, "annotation": {"number": 64, "value": 0}, "group": "control_change"}, {"time": 226, "annotation": {"number": 64, "value": 127}, "group": "control_change"}, {"time": 243, "annotation": {"number": 64, "value": 0}, "group": "control_change"}, {"time": 250, "annotation": {"number": 64, "value": 127}, "group": "control_change"}, {"time": 266, "annotation": {"number": 64, "value": 0}, "group": "control_change"}, {"time": 282, "annotation": {"number": 64, "value": 127}, "group": "control_change"}, {"time": 290, "annotation": {"number": 64, "value": 0}, "group": "control_change"}, {"time": 303, "annotation": {"number": 64, "value": 127}, "group": "control_change"}, {"time": 312, "annotation": {"number": 64, "value": 0}, "group": "control_change"}, {"time": 321, "annotation": {"number": 64, "value": 127}, "group": "control_change"}, {"time": 337, "annotation": {"number": 64, "value": 0}, "group": "control_change"}, {"time": 364, "annotation": {"number": 64, "value": 127}, "group": "control_change"}, {"time": 384, "annotation": {"number": 64, "value": 0}, "group": "control_change"}, {"time": 399, "annotation": {"number": 64, "value": 127}, "group": "control_change"}, {"time": 410, "annotation": {"number": 64, "value": 0}, "group": "control_change"}, {"time": 418, "annotation": {"number": 64, "value": 127}, "group": "control_change"}, {"time": 435, "annotation": {"number": 64, "value": 0}, "group": "control_change"}, {"time": 442, "annotation": {"number": 64, "value": 127}, "group": "control_change"}, {"time": 458, "annotation": {"number": 64, "value": 0}, "group": "control_change"}, {"time": 474, "annotation": {"number": 64, "value": 127}, "group": "control_change"}, {"time": 482, "annotation": {"number": 64, "value": 0}, "group": "control_change"}, {"time": 495, "annotation": {"number": 64, "value": 127}, "group": "control_change"}, {"time": 504, "annotation": {"number": 64, "value": 0}, "group": "control_change"}, {"time": 513, "annotation": {"number": 64, "value": 127}, "group": "control_change"}, {"time": 529, "annotation": {"number": 64, "value": 0}, "group": "control_change"}, {"time": 533, "annotation": {"number": 64, "value": 127}, "group": "control_change"}, {"time": 577, "annotation": {"number": 64, "value": 0}, "group": "control_change"}, {"time": 968, "annotation": {"number": 64, "value": 127}, "group": "control_change"}, {"time": 987, "annotation": {"number": 64, "value": 0}, "group": "control_change"}, {"time": 991, "annotation": {"number": 64, "value": 127}, "group": "control_change"}, {"time": 1010, "annotation": {"number": 64, "value": 0}, "group": "control_change"}, {"time": 1016, "annotation": {"number": 64, "value": 127}, "group": "control_change"}, {"time": 1034, "annotation": {"number": 64, "value": 0}, "group": "control_change"}, {"time": 1038, "annotation": {"number": 64, "value": 127}, "group": "control_change"}, {"time": 1058, "annotation": {"number": 64, "value": 0}, "group": "control_change"}, {"time": 1064, "annotation": {"number": 64, "value": 127}, "group": "control_change"}, {"time": 1081, "annotation": {"number": 64, "value": 0}, "group": "control_change"}, {"time": 1088, "annotation": {"number": 64, "value": 127}, "group": "control_change"}, {"time": 1105, "annotation": {"number": 64, "value": 0}, "group": "control_change"}, {"time": 1107, "annotation": {"number": 64, "value": 127}, "group": "control_change"}, {"time": 1130, "annotation": {"number": 64, "value": 0}, "group": "control_change"}, {"time": 1132, "annotation": {"number": 64, "value": 127}, "group": "control_change"}, {"time": 1153, "annotation": {"number": 64, "value": 0}, "group": "control_change"}, {"time": 1160, "annotation": {"number": 64, "value": 127}, "group": "control_change"}, {"time": 1179, "annotation": {"number": 64, "value": 0}, "group": "control_change"}, {"time": 1183, "annotation": {"number": 64, "value": 127}, "group": "control_change"}, {"time": 1202, "annotation": {"number": 64, "value": 0}, "group": "control_change"}, {"time": 1208, "annotation": {"number": 64, "value": 127}, "group": "control_change"}, {"time": 1226, "annotation": {"number": 64, "value": 0}, "group": "control_change"}, {"time": 1230, "annotation": {"number": 64, "value": 127}, "group": "control_change"}, {"time": 1250, "annotation": {"number": 64, "value": 0}, "group": "control_change"}, {"time": 1256, "annotation": {"number": 64, "value": 127}, "group": "control_change"}, {"time": 1273, "annotation": {"number": 64, "value": 0}, "group": "control_change"}, {"time": 1280, "annotation": {"number": 64, "value": 127}, "group": "control_change"}, {"time": 1297, "annotation": {"number": 64, "value": 0}, "group": "control_change"}, {"time": 1299, "annotation": {"number": 64, "value": 127}, "group": "control_change"}, {"time": 1322, "annotation": {"number": 64, "value": 0}, "group": "control_change"}, {"time": 1324, "annotation": {"number": 64, "value": 127}, "group": "control_change"}, {"time": 1343, "annotation": {"number": 64, "value": 0}, "group": "control_change"}, {"time": 1352, "annotation": {"number": 64, "value": 127}, "group": "control_change"}, {"time": 1369, "annotation": {"number": 64, "value": 0}, "group": "control_change"}, {"time": 1373, "annotation": {"number": 64, "value": 127}, "group": "control_change"}, {"time": 1393, "annotation": {"number": 64, "value": 0}, "group": "control_change"}, {"time": 1400, "annotation": {"number": 64, "value": 127}, "group": "control_change"}, {"time": 1418, "annotation": {"number": 64, "value": 0}, "group": "control_change"}, {"time": 1424, "annotation": {"number": 64, "value": 127}, "group": "control_change"}, {"time": 1440, "annotation": {"number": 64, "value": 0}, "group": "control_change"}, {"time": 1446, "annotation": {"number": 64, "value": 127}, "group": "control_change"}, {"time": 1461, "annotation": {"number": 64, "value": 0}, "group": "control_change"}, {"time": 1472, "annotation": {"number": 64, "value": 127}, "group": "control_change"}, {"time": 1489, "annotation": {"number": 64, "value": 0}, "group": "control_change"}, {"time": 1496, "annotation": {"number": 64, "value": 127}, "group": "control_change"}, {"time": 1513, "annotation": {"number": 64, "value": 0}, "group": "control_change"}, {"time": 1551, "annotation": {"number": 64, "value": 127}, "group": "control_change"}, {"time": 1562, "annotation": {"number": 64, "value": 0}, "group": "control_change"}, {"time": 1570, "annotation": {"number": 64, "value": 127}, "group": "control_change"}, {"time": 1587, "annotation": {"number": 64, "value": 0}, "group": "control_change"}, {"time": 1594, "annotation": {"number": 64, "value": 127}, "group": "control_change"}, {"time": 1610, "annotation": {"number": 64, "value": 0}, "group": "control_change"}, {"time": 1626, "annotation": {"number": 64, "value": 127}, "group": "control_change"}, {"time": 1634, "annotation": {"number": 64, "value": 0}, "group": "control_change"}, {"time": 1647, "annotation": {"number": 64, "value": 127}, "group": "control_change"}, {"time": 1656, "annotation": {"number": 64, "value": 0}, "group": "control_change"}, {"time": 1665, "annotation": {"number": 64, "value": 127}, "group": "control_change"}, {"time": 1681, "annotation": {"number": 64, "value": 0}, "group": "control_change"}, {"time": 1708, "annotation": {"number": 64, "value": 127}, "group": "control_change"}, {"time": 1728, "annotation": {"number": 64, "value": 0}, "group": "control_change"}, {"time": 1743, "annotation": {"number": 64, "value": 127}, "group": "control_change"}, {"time": 1754, "annotation": {"number": 64, "value": 0}, "group": "control_change"}, {"time": 1762, "annotation": {"number": 64, "value": 127}, "group": "control_change"}, {"time": 1779, "annotation": {"number": 64, "value": 0}, "group": "control_change"}, {"time": 1786, "annotation": {"number": 64, "value": 127}, "group": "control_change"}, {"time": 1802, "annotation": {"number": 64, "value": 0}, "group": "control_change"}, {"time": 1818, "annotation": {"number": 64, "value": 127}, "group": "control_change"}, {"time": 1826, "annotation": {"number": 64, "value": 0}, "group": "control_change"}, {"time": 1839, "annotation": {"number": 64, "value": 127}, "group": "control_change"}, {"time": 1848, "annotation": {"number": 64, "value": 0}, "group": "control_change"}, {"time": 1857, "annotation": {"number": 64, "value": 127}, "group": "control_change"}, {"time": 1873, "annotation": {"number": 64, "value": 0}, "group": "control_change"}, {"time": 1877, "annotation": {"number": 64, "value": 127}, "group": "control_change"}, {"time": 1921, "annotation": {"number": 64, "value": 0}, "group": "control_change"}, {"time": 2312, "annotation": {"number": 64, "value": 127}, "group": "control_change"}, {"time": 2331, "annotation": {"number": 64, "value": 0}, "group": "control_change"}, {"time": 2335, "annotation": {"number": 64, "value": 127}, "group": "control_change"}, {"time": 2354, "annotation": {"number": 64, "value": 0}, "group": "control_change"}, {"time": 2360, "annotation": {"number": 64, "value": 127}, "group": "control_change"}, {"time": 2378, "annotation": {"number": 64, "value": 0}, "group": "control_change"}, {"time": 2382, "annotation": {"number": 64, "value": 127}, "group": "control_change"}, {"time": 2402, "annotation": {"number": 64, "value": 0}, "group": "control_change"}, {"time": 2408, "annotation": {"number": 64, "value": 127}, "group": "control_change"}, {"time": 2425, "annotation": {"number": 64, "value": 0}, "group": "control_change"}, {"time": 2432, "annotation": {"number": 64, "value": 127}, "group": "control_change"}, {"time": 2449, "annotation": {"number": 64, "value": 0}, "group": "control_change"}, {"time": 2451, "annotation": {"number": 64, "value": 127}, "group": "control_change"}, {"time": 2474, "annotation": {"number": 64, "value": 0}, "group": "control_change"}, {"time": 2476, "annotation": {"number": 64, "value": 127}, "group": "control_change"}, {"time": 2497, "annotation": {"number": 64, "value": 0}, "group": "control_change"}, {"time": 2504, "annotation": {"number": 64, "value": 127}, "group": "control_change"}, {"time": 2523, "annotation": {"number": 64, "value": 0}, "group": "control_change"}, {"time": 2527, "annotation": {"number": 64, "value": 127}, "group": "control_change"}, {"time": 2546, "annotation": {"number": 64, "value": 0}, "group": "control_change"}, {"time": 2552, "annotation": {"number": 64, "value": 127}, "group": "control_change"}, {"time": 2570, "annotation": {"number": 64, "value": 0}, "group": "control_change"}, {"time": 2574, "annotation": {"number": 64, "value": 127}, "group": "control_change"}, {"time": 2594, "annotation": {"number": 64, "value": 0}, "group": "control_change"}, {"time": 2600, "annotation": {"number": 64, "value": 127}, "group": "control_change"}, {"time": 2617, "annotation": {"number": 64, "value": 0}, "group": "control_change"}, {"time": 2624, "annotation": {"number": 64, "value": 127}, "group": "control_change"}, {"time": 2641, "annotation": {"number": 64, "value": 0}, "group": "control_change"}, {"time": 2643, "annotation": {"number": 64, "value": 127}, "group": "control_change"}, {"time": 2666, "annotation": {"number": 64, "value": 0}, "group": "control_change"}, {"time": 2668, "annotation": {"number": 64, "value": 127}, "group": "control_change"}, {"time": 2687, "annotation": {"number": 64, "value": 0}, "group": "control_change"}, {"time": 2696, "annotation": {"number": 64, "value": 127}, "group": "control_change"}, {"time": 2715, "annotation": {"number": 64, "value": 0}, "group": "control_change"}, {"time": 2719, "annotation": {"number": 64, "value": 127}, "group": "control_change"}, {"time": 2738, "annotation": {"number": 64, "value": 0}, "group": "control_change"}, {"time": 2744, "annotation": {"number": 64, "value": 127}, "group": "control_change"}, {"time": 2762, "annotation": {"number": 64, "value": 0}, "group": "control_change"}, {"time": 2766, "annotation": {"number": 64, "value": 127}, "group": "control_change"}, {"time": 2786, "annotation": {"number": 64, "value": 0}, "group": "control_change"}, {"time": 2792, "annotation": {"number": 64, "value": 127}, "group": "control_change"}, {"time": 2809, "annotation": {"number": 64, "value": 0}, "group": "control_change"}, {"time": 2816, "annotation": {"number": 64, "value": 127}, "group": "control_change"}, {"time": 2833, "annotation": {"number": 64, "value": 0}, "group": "control_change"}, {"time": 2835, "annotation": {"number": 64, "value": 127}, "group": "control_change"}, {"time": 2858, "annotation": {"number": 64, "value": 0}, "group": "control_change"}, {"time": 2860, "annotation": {"number": 64, "value": 127}, "group": "control_change"}, {"time": 2881, "annotation": {"number": 64, "value": 0}, "group": "control_change"}, {"time": 2888, "annotation": {"number": 64, "value": 127}, "group": "control_change"}, {"time": 2907, "annotation": {"number": 64, "value": 0}, "group": "control_change"}, {"time": 2911, "annotation": {"number": 64, "value": 127}, "group": "control_change"}, {"time": 2930, "annotation": {"number": 64, "value": 0}, "group": "control_change"}, {"time": 2936, "annotation": {"number": 64, "value": 127}, "group": "control_change"}, {"time": 2954, "annotation": {"number": 64, "value": 0}, "group": "control_change"}, {"time": 2958, "annotation": {"number": 64, "value": 127}, "group": "control_change"}, {"time": 2978, "annotation": {"number": 64, "value": 0}, "group": "control_change"}, {"time": 2984, "annotation": {"number": 64, "value": 127}, "group": "control_change"}, {"time": 3001, "annotation": {"number": 64, "value": 0}, "group": "control_change"}, {"time": 3008, "annotation": {"number": 64, "value": 127}, "group": "control_change"}, {"time": 3025, "annotation": {"number": 64, "value": 0}, "group": "control_change"}, {"time": 3027, "annotation": {"number": 64, "value": 127}, "group": "control_change"}, {"time": 3050, "annotation": {"number": 64, "value": 0}, "group": "control_change"}, {"time": 3052, "annotation": {"number": 64, "value": 127}, "group": "control_change"}, {"time": 3071, "annotation": {"number": 64, "value": 0}, "group": "control_change"}, {"time": 3080, "annotation": {"number": 64, "value": 127}, "group": "control_change"}, {"time": 3097, "annotation": {"number": 64, "value": 0}, "group": "control_change"}, {"time": 3101, "annotation": {"number": 64, "value": 127}, "group": "control_change"}, {"time": 3121, "annotation": {"number": 64, "value": 0}, "group": "control_change"}, {"time": 3128, "annotation": {"number": 64, "value": 127}, "group": "control_change"}, {"time": 3146, "annotation": {"number": 64, "value": 0}, "group": "control_change"}, {"time": 3152, "annotation": {"number": 64, "value": 127}, "group": "control_change"}, {"time": 3168, "annotation": {"number": 64, "value": 0}, "group": "control_change"}, {"time": 3174, "annotation": {"number": 64, "value": 127}, "group": "control_change"}, {"time": 3189, "annotation": {"number": 64, "value": 0}, "group": "control_change"}, {"time": 3200, "annotation": {"number": 64, "value": 127}, "group": "control_change"}, {"time": 3217, "annotation": {"number": 64, "value": 0}, "group": "control_change"}, {"time": 3224, "annotation": {"number": 64, "value": 127}, "group": "control_change"}, {"time": 3241, "annotation": {"number": 64, "value": 0}, "group": "control_change"}, {"time": 3263, "annotation": {"number": 64, "value": 127}, "group": "control_change"}, {"time": 3265, "annotation": {"number": 64, "value": 0}, "group": "control_change"}, {"time": 3267, "annotation": {"number": 64, "value": 127}, "group": "control_change"}]}]}