{"metadata": {"schema_version": "0.2", "title": "None", "source_filename": "145.mid", "source_format": "midi"}, "resolution": 12, "tempos": [{"time": 0, "qpm": 66.20003001068027}, {"time": 289, "qpm": 67.23999973104}, {"time": 324, "qpm": 66.20003001068027}, {"time": 647, "qpm": 66.02003708125416}, {"time": 804, "qpm": 65.68000700586741}, {"time": 890, "qpm": 65.86002768316497}, {"time": 925, "qpm": 66.000066000066}, {"time": 972, "qpm": 66.50004710420004}, {"time": 1099, "qpm": 66.36008308282402}, {"time": 1106, "qpm": 66.14004493113718}, {"time": 1139, "qpm": 65.96001503888343}, {"time": 1146, "qpm": 65.64005618788809}, {"time": 1331, "qpm": 66.12007405448294}, {"time": 1380, "qpm": 65.94008024907767}], "time_signatures": [{"time": 0, "numerator": 1, "denominator": 4}], "tracks": [{"program": 0, "is_drum": false, "name": "MELODY", "notes": [{"time": 368, "pitch": 70, "duration": 3, "velocity": 97}, {"time": 372, "pitch": 70, "duration": 3, "velocity": 97}, {"time": 376, "pitch": 70, "duration": 3, "velocity": 97}, {"time": 380, "pitch": 70, "duration": 3, "velocity": 94}, {"time": 384, "pitch": 67, "duration": 3, "velocity": 70}, {"time": 388, "pitch": 68, "duration": 3, "velocity": 82}, {"time": 392, "pitch": 70, "duration": 20, "velocity": 105}, {"time": 416, "pitch": 67, "duration": 3, "velocity": 79}, {"time": 420, "pitch": 67, "duration": 3, "velocity": 99}, {"time": 424, "pitch": 67, "duration": 4, "velocity": 105}, {"time": 428, "pitch": 79, "duration": 3, "velocity": 102}, {"time": 432, "pitch": 79, "duration": 3, "velocity": 90}, {"time": 436, "pitch": 77, "duration": 3, "velocity": 89}, {"time": 440, "pitch": 75, "duration": 14, "velocity": 82}, {"time": 460, "pitch": 72, "duration": 3, "velocity": 94}, {"time": 464, "pitch": 79, "duration": 3, "velocity": 99}, {"time": 468, "pitch": 80, "duration": 2, "velocity": 100}, {"time": 472, "pitch": 72, "duration": 6, "velocity": 102}, {"time": 488, "pitch": 79, "duration": 6, "velocity": 102}, {"time": 496, "pitch": 80, "duration": 4, "velocity": 108}, {"time": 500, "pitch": 72, "duration": 8, "velocity": 92}, {"time": 508, "pitch": 75, "duration": 4, "velocity": 94}, {"time": 512, "pitch": 77, "duration": 23, "velocity": 89}, {"time": 560, "pitch": 70, "duration": 3, "velocity": 97}, {"time": 564, "pitch": 70, "duration": 3, "velocity": 97}, {"time": 568, "pitch": 70, "duration": 3, "velocity": 97}, {"time": 572, "pitch": 70, "duration": 3, "velocity": 94}, {"time": 576, "pitch": 67, "duration": 3, "velocity": 70}, {"time": 580, "pitch": 68, "duration": 3, "velocity": 82}, {"time": 584, "pitch": 70, "duration": 20, "velocity": 105}, {"time": 608, "pitch": 67, "duration": 3, "velocity": 79}, {"time": 612, "pitch": 67, "duration": 3, "velocity": 99}, {"time": 616, "pitch": 67, "duration": 4, "velocity": 105}, {"time": 620, "pitch": 79, "duration": 3, "velocity": 102}, {"time": 624, "pitch": 79, "duration": 3, "velocity": 90}, {"time": 628, "pitch": 77, "duration": 3, "velocity": 89}, {"time": 632, "pitch": 75, "duration": 14, "velocity": 82}, {"time": 652, "pitch": 72, "duration": 3, "velocity": 94}, {"time": 656, "pitch": 79, "duration": 3, "velocity": 99}, {"time": 660, "pitch": 80, "duration": 2, "velocity": 100}, {"time": 664, "pitch": 72, "duration": 6, "velocity": 102}, {"time": 676, "pitch": 72, "duration": 4, "velocity": 114}, {"time": 680, "pitch": 79, "duration": 6, "velocity": 102}, {"time": 688, "pitch": 80, "duration": 4, "velocity": 108}, {"time": 692, "pitch": 72, "duration": 8, "velocity": 92}, {"time": 700, "pitch": 75, "duration": 4, "velocity": 94}, {"time": 704, "pitch": 77, "duration": 23, "velocity": 89}, {"time": 798, "pitch": 70, "duration": 2, "velocity": 105}, {"time": 800, "pitch": 79, "duration": 3, "velocity": 109}, {"time": 804, "pitch": 77, "duration": 2, "velocity": 100}, {"time": 806, "pitch": 79, "duration": 3, "velocity": 109}, {"time": 810, "pitch": 77, "duration": 2, "velocity": 102}, {"time": 812, "pitch": 79, "duration": 4, "velocity": 112}, {"time": 818, "pitch": 70, "duration": 3, "velocity": 100}, {"time": 822, "pitch": 79, "duration": 8, "velocity": 112}, {"time": 846, "pitch": 70, "duration": 2, "velocity": 105}, {"time": 848, "pitch": 77, "duration": 3, "velocity": 105}, {"time": 852, "pitch": 75, "duration": 2, "velocity": 73}, {"time": 854, "pitch": 77, "duration": 2, "velocity": 100}, {"time": 858, "pitch": 75, "duration": 2, "velocity": 94}, {"time": 860, "pitch": 74, "duration": 4, "velocity": 109}, {"time": 866, "pitch": 67, "duration": 2, "velocity": 116}, {"time": 870, "pitch": 72, "duration": 10, "velocity": 105}, {"time": 894, "pitch": 72, "duration": 2, "velocity": 111}, {"time": 896, "pitch": 79, "duration": 2, "velocity": 112}, {"time": 900, "pitch": 79, "duration": 2, "velocity": 96}, {"time": 902, "pitch": 79, "duration": 2, "velocity": 72}, {"time": 906, "pitch": 79, "duration": 1, "velocity": 105}, {"time": 908, "pitch": 79, "duration": 4, "velocity": 99}, {"time": 914, "pitch": 79, "duration": 2, "velocity": 105}, {"time": 918, "pitch": 79, "duration": 7, "velocity": 109}, {"time": 926, "pitch": 80, "duration": 5, "velocity": 114}, {"time": 932, "pitch": 72, "duration": 5, "velocity": 114}, {"time": 936, "pitch": 75, "duration": 7, "velocity": 108}, {"time": 944, "pitch": 77, "duration": 24, "velocity": 114}, {"time": 990, "pitch": 70, "duration": 2, "velocity": 105}, {"time": 992, "pitch": 79, "duration": 3, "velocity": 109}, {"time": 996, "pitch": 79, "duration": 2, "velocity": 100}, {"time": 998, "pitch": 79, "duration": 3, "velocity": 109}, {"time": 1002, "pitch": 79, "duration": 2, "velocity": 102}, {"time": 1004, "pitch": 79, "duration": 4, "velocity": 112}, {"time": 1010, "pitch": 70, "duration": 3, "velocity": 100}, {"time": 1014, "pitch": 79, "duration": 8, "velocity": 112}, {"time": 1038, "pitch": 70, "duration": 2, "velocity": 105}, {"time": 1040, "pitch": 77, "duration": 3, "velocity": 105}, {"time": 1044, "pitch": 75, "duration": 2, "velocity": 73}, {"time": 1046, "pitch": 77, "duration": 2, "velocity": 100}, {"time": 1050, "pitch": 75, "duration": 2, "velocity": 94}, {"time": 1052, "pitch": 74, "duration": 4, "velocity": 109}, {"time": 1058, "pitch": 75, "duration": 2, "velocity": 116}, {"time": 1062, "pitch": 72, "duration": 10, "velocity": 105}, {"time": 1086, "pitch": 72, "duration": 2, "velocity": 111}, {"time": 1088, "pitch": 79, "duration": 2, "velocity": 112}, {"time": 1092, "pitch": 79, "duration": 2, "velocity": 96}, {"time": 1094, "pitch": 79, "duration": 2, "velocity": 72}, {"time": 1098, "pitch": 79, "duration": 1, "velocity": 105}, {"time": 1100, "pitch": 79, "duration": 4, "velocity": 99}, {"time": 1106, "pitch": 79, "duration": 2, "velocity": 105}, {"time": 1110, "pitch": 79, "duration": 7, "velocity": 109}, {"time": 1118, "pitch": 80, "duration": 5, "velocity": 114}, {"time": 1124, "pitch": 72, "duration": 5, "velocity": 114}, {"time": 1128, "pitch": 75, "duration": 7, "velocity": 108}, {"time": 1136, "pitch": 79, "duration": 5, "velocity": 105}, {"time": 1142, "pitch": 77, "duration": 32, "velocity": 108}, {"time": 1184, "pitch": 68, "duration": 3, "velocity": 108}, {"time": 1187, "pitch": 70, "duration": 4, "velocity": 92}, {"time": 1196, "pitch": 70, "duration": 2, "velocity": 100}, {"time": 1199, "pitch": 68, "duration": 2, "velocity": 67}, {"time": 1202, "pitch": 67, "duration": 2, "velocity": 109}, {"time": 1205, "pitch": 68, "duration": 2, "velocity": 97}, {"time": 1208, "pitch": 70, "duration": 18, "velocity": 97}, {"time": 1232, "pitch": 67, "duration": 4, "velocity": 105}, {"time": 1238, "pitch": 67, "duration": 1, "velocity": 112}, {"time": 1241, "pitch": 67, "duration": 2, "velocity": 102}, {"time": 1244, "pitch": 79, "duration": 4, "velocity": 93}, {"time": 1250, "pitch": 77, "duration": 6, "velocity": 112}, {"time": 1256, "pitch": 75, "duration": 12, "velocity": 92}, {"time": 1277, "pitch": 70, "duration": 4, "velocity": 105}, {"time": 1280, "pitch": 79, "duration": 5, "velocity": 109}, {"time": 1286, "pitch": 80, "duration": 2, "velocity": 97}, {"time": 1289, "pitch": 72, "duration": 9, "velocity": 82}, {"time": 1304, "pitch": 79, "duration": 4, "velocity": 99}, {"time": 1310, "pitch": 80, "duration": 4, "velocity": 97}, {"time": 1316, "pitch": 80, "duration": 4, "velocity": 100}, {"time": 1322, "pitch": 79, "duration": 4, "velocity": 102}, {"time": 1328, "pitch": 77, "duration": 2, "velocity": 100}, {"time": 1331, "pitch": 75, "duration": 39, "velocity": 94}, {"time": 1374, "pitch": 70, "duration": 2, "velocity": 105}, {"time": 1376, "pitch": 79, "duration": 3, "velocity": 109}, {"time": 1380, "pitch": 77, "duration": 2, "velocity": 100}, {"time": 1382, "pitch": 79, "duration": 3, "velocity": 109}, {"time": 1386, "pitch": 77, "duration": 2, "velocity": 102}, {"time": 1388, "pitch": 79, "duration": 4, "velocity": 112}, {"time": 1394, "pitch": 70, "duration": 3, "velocity": 100}, {"time": 1398, "pitch": 79, "duration": 8, "velocity": 112}, {"time": 1422, "pitch": 70, "duration": 2, "velocity": 105}, {"time": 1424, "pitch": 77, "duration": 3, "velocity": 105}, {"time": 1428, "pitch": 75, "duration": 2, "velocity": 73}, {"time": 1430, "pitch": 77, "duration": 2, "velocity": 100}, {"time": 1434, "pitch": 75, "duration": 2, "velocity": 94}, {"time": 1436, "pitch": 74, "duration": 4, "velocity": 109}, {"time": 1442, "pitch": 67, "duration": 2, "velocity": 116}, {"time": 1446, "pitch": 72, "duration": 10, "velocity": 105}, {"time": 1470, "pitch": 72, "duration": 2, "velocity": 111}, {"time": 1472, "pitch": 79, "duration": 2, "velocity": 112}, {"time": 1476, "pitch": 79, "duration": 2, "velocity": 96}, {"time": 1478, "pitch": 79, "duration": 2, "velocity": 72}, {"time": 1482, "pitch": 79, "duration": 1, "velocity": 105}, {"time": 1484, "pitch": 79, "duration": 4, "velocity": 99}, {"time": 1490, "pitch": 79, "duration": 2, "velocity": 105}, {"time": 1494, "pitch": 79, "duration": 7, "velocity": 109}, {"time": 1502, "pitch": 80, "duration": 5, "velocity": 114}, {"time": 1508, "pitch": 72, "duration": 5, "velocity": 114}, {"time": 1512, "pitch": 75, "duration": 7, "velocity": 108}, {"time": 1520, "pitch": 77, "duration": 24, "velocity": 114}, {"time": 1566, "pitch": 70, "duration": 2, "velocity": 105}, {"time": 1568, "pitch": 79, "duration": 3, "velocity": 109}, {"time": 1572, "pitch": 79, "duration": 2, "velocity": 100}, {"time": 1574, "pitch": 79, "duration": 3, "velocity": 109}, {"time": 1578, "pitch": 79, "duration": 2, "velocity": 102}, {"time": 1580, "pitch": 79, "duration": 4, "velocity": 112}, {"time": 1586, "pitch": 70, "duration": 3, "velocity": 100}, {"time": 1590, "pitch": 79, "duration": 8, "velocity": 112}, {"time": 1614, "pitch": 70, "duration": 2, "velocity": 105}, {"time": 1616, "pitch": 77, "duration": 3, "velocity": 105}, {"time": 1620, "pitch": 75, "duration": 2, "velocity": 73}, {"time": 1622, "pitch": 77, "duration": 2, "velocity": 100}, {"time": 1626, "pitch": 75, "duration": 2, "velocity": 94}, {"time": 1628, "pitch": 74, "duration": 4, "velocity": 109}, {"time": 1634, "pitch": 75, "duration": 2, "velocity": 116}, {"time": 1638, "pitch": 72, "duration": 10, "velocity": 105}, {"time": 1662, "pitch": 72, "duration": 2, "velocity": 111}, {"time": 1664, "pitch": 79, "duration": 2, "velocity": 112}, {"time": 1668, "pitch": 79, "duration": 2, "velocity": 96}, {"time": 1670, "pitch": 79, "duration": 2, "velocity": 72}, {"time": 1674, "pitch": 79, "duration": 1, "velocity": 105}, {"time": 1676, "pitch": 79, "duration": 4, "velocity": 99}, {"time": 1682, "pitch": 79, "duration": 2, "velocity": 105}, {"time": 1686, "pitch": 79, "duration": 7, "velocity": 109}, {"time": 1694, "pitch": 80, "duration": 5, "velocity": 114}, {"time": 1700, "pitch": 72, "duration": 5, "velocity": 114}, {"time": 1704, "pitch": 75, "duration": 7, "velocity": 108}, {"time": 1712, "pitch": 79, "duration": 5, "velocity": 105}, {"time": 1718, "pitch": 77, "duration": 32, "velocity": 108}, {"time": 1760, "pitch": 68, "duration": 3, "velocity": 108}, {"time": 1763, "pitch": 70, "duration": 4, "velocity": 92}, {"time": 1772, "pitch": 70, "duration": 2, "velocity": 100}, {"time": 1775, "pitch": 68, "duration": 2, "velocity": 67}, {"time": 1778, "pitch": 67, "duration": 2, "velocity": 109}, {"time": 1781, "pitch": 68, "duration": 2, "velocity": 97}, {"time": 1784, "pitch": 70, "duration": 18, "velocity": 97}, {"time": 1808, "pitch": 67, "duration": 4, "velocity": 105}, {"time": 1814, "pitch": 67, "duration": 1, "velocity": 112}, {"time": 1817, "pitch": 67, "duration": 2, "velocity": 102}, {"time": 1820, "pitch": 79, "duration": 4, "velocity": 93}, {"time": 1826, "pitch": 77, "duration": 6, "velocity": 112}, {"time": 1832, "pitch": 75, "duration": 12, "velocity": 92}, {"time": 1853, "pitch": 70, "duration": 4, "velocity": 105}, {"time": 1856, "pitch": 79, "duration": 5, "velocity": 109}, {"time": 1862, "pitch": 80, "duration": 2, "velocity": 97}, {"time": 1865, "pitch": 72, "duration": 9, "velocity": 82}, {"time": 1880, "pitch": 79, "duration": 4, "velocity": 99}, {"time": 1886, "pitch": 80, "duration": 4, "velocity": 97}, {"time": 1892, "pitch": 80, "duration": 4, "velocity": 100}, {"time": 1898, "pitch": 79, "duration": 4, "velocity": 102}, {"time": 1904, "pitch": 77, "duration": 2, "velocity": 100}, {"time": 1907, "pitch": 75, "duration": 39, "velocity": 94}]}, {"program": 0, "is_drum": false, "name": "PIANO", "notes": [{"time": 30, "pitch": 56, "duration": 10, "velocity": 49}, {"time": 31, "pitch": 60, "duration": 8, "velocity": 78}, {"time": 32, "pitch": 44, "duration": 15, "velocity": 92}, {"time": 32, "pitch": 63, "duration": 8, "velocity": 66}, {"time": 38, "pitch": 51, "duration": 9, "velocity": 44}, {"time": 44, "pitch": 56, "duration": 3, "velocity": 87}, {"time": 44, "pitch": 60, "duration": 3, "velocity": 97}, {"time": 44, "pitch": 63, "duration": 3, "velocity": 89}, {"time": 54, "pitch": 55, "duration": 13, "velocity": 36}, {"time": 56, "pitch": 58, "duration": 10, "velocity": 71}, {"time": 56, "pitch": 43, "duration": 11, "velocity": 46}, {"time": 56, "pitch": 62, "duration": 11, "velocity": 57}, {"time": 68, "pitch": 55, "duration": 8, "velocity": 90}, {"time": 68, "pitch": 43, "duration": 12, "velocity": 96}, {"time": 68, "pitch": 58, "duration": 9, "velocity": 82}, {"time": 74, "pitch": 50, "duration": 6, "velocity": 85}, {"time": 80, "pitch": 63, "duration": 5, "velocity": 89}, {"time": 80, "pitch": 60, "duration": 5, "velocity": 87}, {"time": 80, "pitch": 48, "duration": 6, "velocity": 97}, {"time": 85, "pitch": 55, "duration": 3, "velocity": 50}, {"time": 92, "pitch": 62, "duration": 5, "velocity": 90}, {"time": 92, "pitch": 46, "duration": 7, "velocity": 100}, {"time": 92, "pitch": 58, "duration": 5, "velocity": 97}, {"time": 97, "pitch": 53, "duration": 3, "velocity": 82}, {"time": 104, "pitch": 45, "duration": 58, "velocity": 85}, {"time": 104, "pitch": 57, "duration": 5, "velocity": 59}, {"time": 104, "pitch": 60, "duration": 8, "velocity": 97}, {"time": 111, "pitch": 57, "duration": 1, "velocity": 12}, {"time": 116, "pitch": 60, "duration": 8, "velocity": 94}, {"time": 116, "pitch": 57, "duration": 3, "velocity": 48}, {"time": 116, "pitch": 63, "duration": 8, "velocity": 94}, {"time": 122, "pitch": 57, "duration": 40, "velocity": 44}, {"time": 128, "pitch": 63, "duration": 34, "velocity": 73}, {"time": 128, "pitch": 60, "duration": 34, "velocity": 80}, {"time": 162, "pitch": 56, "duration": 7, "velocity": 53}, {"time": 163, "pitch": 60, "duration": 5, "velocity": 76}, {"time": 164, "pitch": 44, "duration": 8, "velocity": 87}, {"time": 164, "pitch": 63, "duration": 4, "velocity": 52}, {"time": 174, "pitch": 56, "duration": 25, "velocity": 37}, {"time": 175, "pitch": 60, "duration": 24, "velocity": 73}, {"time": 176, "pitch": 65, "duration": 23, "velocity": 71}, {"time": 176, "pitch": 53, "duration": 23, "velocity": 39}, {"time": 198, "pitch": 56, "duration": 1, "velocity": 41}, {"time": 199, "pitch": 60, "duration": 1, "velocity": 78}, {"time": 199, "pitch": 49, "duration": 25, "velocity": 66}, {"time": 200, "pitch": 61, "duration": 24, "velocity": 76}, {"time": 201, "pitch": 65, "duration": 23, "velocity": 89}, {"time": 222, "pitch": 58, "duration": 10, "velocity": 41}, {"time": 223, "pitch": 62, "duration": 14, "velocity": 36}, {"time": 223, "pitch": 46, "duration": 49, "velocity": 57}, {"time": 224, "pitch": 65, "duration": 1, "velocity": 47}, {"time": 230, "pitch": 53, "duration": 41, "velocity": 64}, {"time": 236, "pitch": 58, "duration": 10, "velocity": 84}, {"time": 248, "pitch": 62, "duration": 23, "velocity": 70}, {"time": 248, "pitch": 70, "duration": 24, "velocity": 80}, {"time": 248, "pitch": 58, "duration": 24, "velocity": 82}, {"time": 271, "pitch": 58, "duration": 1, "velocity": 60}, {"time": 271, "pitch": 46, "duration": 1, "velocity": 66}, {"time": 272, "pitch": 62, "duration": 11, "velocity": 52}, {"time": 273, "pitch": 64, "duration": 10, "velocity": 68}, {"time": 285, "pitch": 62, "duration": 11, "velocity": 44}, {"time": 285, "pitch": 64, "duration": 11, "velocity": 38}, {"time": 285, "pitch": 58, "duration": 10, "velocity": 62}, {"time": 298, "pitch": 62, "duration": 2, "velocity": 5}, {"time": 298, "pitch": 64, "duration": 3, "velocity": 3}, {"time": 319, "pitch": 56, "duration": 7, "velocity": 45}, {"time": 319, "pitch": 62, "duration": 8, "velocity": 45}, {"time": 320, "pitch": 46, "duration": 16, "velocity": 97}, {"time": 320, "pitch": 65, "duration": 6, "velocity": 89}, {"time": 325, "pitch": 53, "duration": 9, "velocity": 53}, {"time": 332, "pitch": 62, "duration": 8, "velocity": 96}, {"time": 332, "pitch": 56, "duration": 1, "velocity": 78}, {"time": 332, "pitch": 65, "duration": 8, "velocity": 94}, {"time": 337, "pitch": 56, "duration": 4, "velocity": 89}, {"time": 343, "pitch": 62, "duration": 10, "velocity": 44}, {"time": 343, "pitch": 46, "duration": 17, "velocity": 84}, {"time": 343, "pitch": 56, "duration": 8, "velocity": 58}, {"time": 349, "pitch": 53, "duration": 8, "velocity": 46}, {"time": 356, "pitch": 62, "duration": 11, "velocity": 72}, {"time": 356, "pitch": 58, "duration": 11, "velocity": 87}, {"time": 362, "pitch": 53, "duration": 5, "velocity": 58}, {"time": 367, "pitch": 58, "duration": 1, "velocity": 51}, {"time": 367, "pitch": 63, "duration": 16, "velocity": 76}, {"time": 368, "pitch": 51, "duration": 22, "velocity": 58}, {"time": 368, "pitch": 67, "duration": 19, "velocity": 48}, {"time": 385, "pitch": 62, "duration": 5, "velocity": 41}, {"time": 392, "pitch": 67, "duration": 14, "velocity": 46}, {"time": 392, "pitch": 58, "duration": 4, "velocity": 47}, {"time": 392, "pitch": 51, "duration": 20, "velocity": 73}, {"time": 398, "pitch": 58, "duration": 4, "velocity": 53}, {"time": 404, "pitch": 63, "duration": 4, "velocity": 69}, {"time": 415, "pitch": 58, "duration": 18, "velocity": 52}, {"time": 415, "pitch": 62, "duration": 16, "velocity": 79}, {"time": 416, "pitch": 67, "duration": 18, "velocity": 55}, {"time": 416, "pitch": 51, "duration": 18, "velocity": 62}, {"time": 438, "pitch": 58, "duration": 3, "velocity": 52}, {"time": 439, "pitch": 61, "duration": 8, "velocity": 80}, {"time": 440, "pitch": 51, "duration": 18, "velocity": 66}, {"time": 440, "pitch": 67, "duration": 7, "velocity": 57}, {"time": 446, "pitch": 58, "duration": 9, "velocity": 64}, {"time": 452, "pitch": 67, "duration": 5, "velocity": 112}, {"time": 455, "pitch": 61, "duration": 3, "velocity": 87}, {"time": 458, "pitch": 58, "duration": 2, "velocity": 62}, {"time": 464, "pitch": 60, "duration": 16, "velocity": 78}, {"time": 464, "pitch": 56, "duration": 16, "velocity": 62}, {"time": 464, "pitch": 44, "duration": 20, "velocity": 87}, {"time": 476, "pitch": 68, "duration": 10, "velocity": 105}, {"time": 487, "pitch": 60, "duration": 9, "velocity": 57}, {"time": 488, "pitch": 65, "duration": 8, "velocity": 80}, {"time": 488, "pitch": 53, "duration": 17, "velocity": 73}, {"time": 489, "pitch": 68, "duration": 9, "velocity": 84}, {"time": 500, "pitch": 60, "duration": 6, "velocity": 82}, {"time": 500, "pitch": 63, "duration": 5, "velocity": 82}, {"time": 500, "pitch": 68, "duration": 11, "velocity": 89}, {"time": 512, "pitch": 46, "duration": 21, "velocity": 92}, {"time": 512, "pitch": 58, "duration": 6, "velocity": 67}, {"time": 512, "pitch": 62, "duration": 8, "velocity": 52}, {"time": 512, "pitch": 65, "duration": 10, "velocity": 44}, {"time": 516, "pitch": 53, "duration": 13, "velocity": 66}, {"time": 520, "pitch": 58, "duration": 13, "velocity": 51}, {"time": 524, "pitch": 62, "duration": 9, "velocity": 102}, {"time": 528, "pitch": 50, "duration": 8, "velocity": 96}, {"time": 532, "pitch": 65, "duration": 11, "velocity": 78}, {"time": 536, "pitch": 46, "duration": 20, "velocity": 100}, {"time": 536, "pitch": 58, "duration": 8, "velocity": 60}, {"time": 536, "pitch": 62, "duration": 8, "velocity": 41}, {"time": 536, "pitch": 70, "duration": 8, "velocity": 82}, {"time": 544, "pitch": 53, "duration": 6, "velocity": 67}, {"time": 548, "pitch": 56, "duration": 6, "velocity": 84}, {"time": 548, "pitch": 62, "duration": 12, "velocity": 59}, {"time": 552, "pitch": 53, "duration": 8, "velocity": 64}, {"time": 556, "pitch": 56, "duration": 4, "velocity": 57}, {"time": 560, "pitch": 51, "duration": 21, "velocity": 94}, {"time": 564, "pitch": 58, "duration": 5, "velocity": 89}, {"time": 568, "pitch": 67, "duration": 9, "velocity": 99}, {"time": 572, "pitch": 55, "duration": 11, "velocity": 27}, {"time": 576, "pitch": 63, "duration": 3, "velocity": 71}, {"time": 584, "pitch": 51, "duration": 21, "velocity": 82}, {"time": 584, "pitch": 63, "duration": 5, "velocity": 67}, {"time": 584, "pitch": 67, "duration": 9, "velocity": 55}, {"time": 588, "pitch": 58, "duration": 7, "velocity": 41}, {"time": 592, "pitch": 63, "duration": 1, "velocity": 24}, {"time": 596, "pitch": 55, "duration": 8, "velocity": 54}, {"time": 600, "pitch": 58, "duration": 5, "velocity": 114}, {"time": 604, "pitch": 63, "duration": 2, "velocity": 89}, {"time": 604, "pitch": 67, "duration": 1, "velocity": 87}, {"time": 608, "pitch": 51, "duration": 19, "velocity": 84}, {"time": 608, "pitch": 62, "duration": 8, "velocity": 82}, {"time": 612, "pitch": 55, "duration": 10, "velocity": 48}, {"time": 616, "pitch": 58, "duration": 3, "velocity": 71}, {"time": 620, "pitch": 58, "duration": 4, "velocity": 82}, {"time": 620, "pitch": 62, "duration": 7, "velocity": 77}, {"time": 620, "pitch": 67, "duration": 8, "velocity": 85}, {"time": 624, "pitch": 55, "duration": 3, "velocity": 46}, {"time": 628, "pitch": 58, "duration": 1, "velocity": 38}, {"time": 632, "pitch": 44, "duration": 23, "velocity": 92}, {"time": 632, "pitch": 56, "duration": 5, "velocity": 73}, {"time": 632, "pitch": 67, "duration": 15, "velocity": 41}, {"time": 636, "pitch": 51, "duration": 14, "velocity": 52}, {"time": 640, "pitch": 56, "duration": 3, "velocity": 52}, {"time": 648, "pitch": 56, "duration": 3, "velocity": 94}, {"time": 648, "pitch": 63, "duration": 5, "velocity": 89}, {"time": 648, "pitch": 67, "duration": 6, "velocity": 21}, {"time": 652, "pitch": 51, "duration": 3, "velocity": 66}, {"time": 656, "pitch": 53, "duration": 23, "velocity": 89}, {"time": 656, "pitch": 60, "duration": 3, "velocity": 84}, {"time": 656, "pitch": 68, "duration": 9, "velocity": 92}, {"time": 660, "pitch": 60, "duration": 6, "velocity": 80}, {"time": 664, "pitch": 65, "duration": 6, "velocity": 94}, {"time": 668, "pitch": 60, "duration": 2, "velocity": 22}, {"time": 672, "pitch": 60, "duration": 2, "velocity": 84}, {"time": 672, "pitch": 65, "duration": 3, "velocity": 87}, {"time": 672, "pitch": 68, "duration": 7, "velocity": 87}, {"time": 676, "pitch": 60, "duration": 3, "velocity": 47}, {"time": 680, "pitch": 53, "duration": 18, "velocity": 84}, {"time": 680, "pitch": 60, "duration": 2, "velocity": 73}, {"time": 680, "pitch": 63, "duration": 5, "velocity": 73}, {"time": 684, "pitch": 60, "duration": 6, "velocity": 67}, {"time": 688, "pitch": 63, "duration": 5, "velocity": 71}, {"time": 692, "pitch": 68, "duration": 13, "velocity": 97}, {"time": 704, "pitch": 51, "duration": 10, "velocity": 87}, {"time": 704, "pitch": 63, "duration": 5, "velocity": 69}, {"time": 704, "pitch": 67, "duration": 15, "velocity": 55}, {"time": 708, "pitch": 58, "duration": 9, "velocity": 69}, {"time": 712, "pitch": 63, "duration": 6, "velocity": 80}, {"time": 716, "pitch": 49, "duration": 8, "velocity": 97}, {"time": 720, "pitch": 58, "duration": 6, "velocity": 71}, {"time": 724, "pitch": 61, "duration": 3, "velocity": 100}, {"time": 728, "pitch": 48, "duration": 24, "velocity": 100}, {"time": 728, "pitch": 60, "duration": 6, "velocity": 89}, {"time": 728, "pitch": 67, "duration": 6, "velocity": 59}, {"time": 732, "pitch": 55, "duration": 10, "velocity": 57}, {"time": 736, "pitch": 60, "duration": 8, "velocity": 80}, {"time": 740, "pitch": 70, "duration": 11, "velocity": 100}, {"time": 744, "pitch": 55, "duration": 8, "velocity": 59}, {"time": 748, "pitch": 60, "duration": 4, "velocity": 87}, {"time": 752, "pitch": 53, "duration": 7, "velocity": 89}, {"time": 752, "pitch": 60, "duration": 2, "velocity": 84}, {"time": 752, "pitch": 65, "duration": 5, "velocity": 87}, {"time": 752, "pitch": 68, "duration": 6, "velocity": 53}, {"time": 756, "pitch": 60, "duration": 5, "velocity": 78}, {"time": 760, "pitch": 65, "duration": 2, "velocity": 66}, {"time": 764, "pitch": 47, "duration": 2, "velocity": 77}, {"time": 764, "pitch": 59, "duration": 3, "velocity": 77}, {"time": 764, "pitch": 62, "duration": 3, "velocity": 90}, {"time": 764, "pitch": 65, "duration": 3, "velocity": 97}, {"time": 768, "pitch": 47, "duration": 2, "velocity": 48}, {"time": 768, "pitch": 59, "duration": 2, "velocity": 74}, {"time": 768, "pitch": 62, "duration": 2, "velocity": 85}, {"time": 768, "pitch": 65, "duration": 2, "velocity": 92}, {"time": 772, "pitch": 47, "duration": 3, "velocity": 74}, {"time": 772, "pitch": 59, "duration": 2, "velocity": 59}, {"time": 772, "pitch": 62, "duration": 2, "velocity": 74}, {"time": 772, "pitch": 65, "duration": 2, "velocity": 94}, {"time": 776, "pitch": 46, "duration": 24, "velocity": 105}, {"time": 776, "pitch": 58, "duration": 14, "velocity": 80}, {"time": 776, "pitch": 62, "duration": 15, "velocity": 65}, {"time": 776, "pitch": 65, "duration": 15, "velocity": 80}, {"time": 788, "pitch": 53, "duration": 11, "velocity": 89}, {"time": 791, "pitch": 58, "duration": 9, "velocity": 73}, {"time": 794, "pitch": 62, "duration": 6, "velocity": 102}, {"time": 800, "pitch": 39, "duration": 16, "velocity": 97}, {"time": 800, "pitch": 51, "duration": 16, "velocity": 97}, {"time": 800, "pitch": 63, "duration": 6, "velocity": 84}, {"time": 800, "pitch": 67, "duration": 8, "velocity": 102}, {"time": 806, "pitch": 58, "duration": 9, "velocity": 111}, {"time": 812, "pitch": 63, "duration": 10, "velocity": 92}, {"time": 812, "pitch": 67, "duration": 7, "velocity": 99}, {"time": 812, "pitch": 70, "duration": 7, "velocity": 102}, {"time": 818, "pitch": 39, "duration": 5, "velocity": 12}, {"time": 818, "pitch": 51, "duration": 5, "velocity": 12}, {"time": 818, "pitch": 58, "duration": 5, "velocity": 80}, {"time": 824, "pitch": 39, "duration": 14, "velocity": 97}, {"time": 824, "pitch": 51, "duration": 14, "velocity": 97}, {"time": 824, "pitch": 62, "duration": 7, "velocity": 61}, {"time": 824, "pitch": 67, "duration": 7, "velocity": 99}, {"time": 830, "pitch": 58, "duration": 8, "velocity": 82}, {"time": 836, "pitch": 62, "duration": 5, "velocity": 109}, {"time": 836, "pitch": 67, "duration": 7, "velocity": 112}, {"time": 842, "pitch": 39, "duration": 2, "velocity": 105}, {"time": 842, "pitch": 51, "duration": 2, "velocity": 105}, {"time": 848, "pitch": 36, "duration": 17, "velocity": 97}, {"time": 848, "pitch": 48, "duration": 17, "velocity": 97}, {"time": 848, "pitch": 60, "duration": 8, "velocity": 94}, {"time": 848, "pitch": 63, "duration": 8, "velocity": 92}, {"time": 848, "pitch": 67, "duration": 8, "velocity": 82}, {"time": 854, "pitch": 55, "duration": 8, "velocity": 77}, {"time": 860, "pitch": 60, "duration": 5, "velocity": 114}, {"time": 860, "pitch": 63, "duration": 6, "velocity": 117}, {"time": 860, "pitch": 67, "duration": 5, "velocity": 112}, {"time": 866, "pitch": 36, "duration": 2, "velocity": 18}, {"time": 866, "pitch": 48, "duration": 2, "velocity": 18}, {"time": 866, "pitch": 55, "duration": 4, "velocity": 85}, {"time": 869, "pitch": 60, "duration": 2, "velocity": 94}, {"time": 872, "pitch": 36, "duration": 11, "velocity": 97}, {"time": 872, "pitch": 48, "duration": 11, "velocity": 97}, {"time": 872, "pitch": 60, "duration": 4, "velocity": 100}, {"time": 872, "pitch": 63, "duration": 6, "velocity": 105}, {"time": 872, "pitch": 67, "duration": 6, "velocity": 90}, {"time": 878, "pitch": 55, "duration": 5, "velocity": 90}, {"time": 881, "pitch": 60, "duration": 2, "velocity": 105}, {"time": 884, "pitch": 40, "duration": 7, "velocity": 116}, {"time": 884, "pitch": 52, "duration": 7, "velocity": 116}, {"time": 884, "pitch": 60, "duration": 7, "velocity": 100}, {"time": 884, "pitch": 64, "duration": 7, "velocity": 112}, {"time": 884, "pitch": 67, "duration": 8, "velocity": 96}, {"time": 890, "pitch": 55, "duration": 2, "velocity": 74}, {"time": 896, "pitch": 41, "duration": 23, "velocity": 108}, {"time": 896, "pitch": 53, "duration": 23, "velocity": 108}, {"time": 896, "pitch": 60, "duration": 3, "velocity": 97}, {"time": 896, "pitch": 65, "duration": 8, "velocity": 102}, {"time": 902, "pitch": 60, "duration": 3, "velocity": 71}, {"time": 908, "pitch": 60, "duration": 3, "velocity": 108}, {"time": 908, "pitch": 65, "duration": 8, "velocity": 114}, {"time": 908, "pitch": 68, "duration": 10, "velocity": 102}, {"time": 914, "pitch": 60, "duration": 5, "velocity": 102}, {"time": 920, "pitch": 41, "duration": 15, "velocity": 92}, {"time": 920, "pitch": 53, "duration": 15, "velocity": 92}, {"time": 920, "pitch": 60, "duration": 3, "velocity": 94}, {"time": 920, "pitch": 63, "duration": 9, "velocity": 105}, {"time": 920, "pitch": 68, "duration": 8, "velocity": 97}, {"time": 926, "pitch": 60, "duration": 4, "velocity": 67}, {"time": 932, "pitch": 60, "duration": 3, "velocity": 108}, {"time": 932, "pitch": 63, "duration": 5, "velocity": 114}, {"time": 932, "pitch": 68, "duration": 8, "velocity": 102}, {"time": 938, "pitch": 60, "duration": 2, "velocity": 66}, {"time": 944, "pitch": 38, "duration": 9, "velocity": 102}, {"time": 944, "pitch": 50, "duration": 9, "velocity": 102}, {"time": 944, "pitch": 62, "duration": 9, "velocity": 109}, {"time": 944, "pitch": 65, "duration": 9, "velocity": 100}, {"time": 956, "pitch": 37, "duration": 6, "velocity": 102}, {"time": 956, "pitch": 49, "duration": 6, "velocity": 102}, {"time": 956, "pitch": 61, "duration": 6, "velocity": 102}, {"time": 956, "pitch": 65, "duration": 6, "velocity": 102}, {"time": 968, "pitch": 35, "duration": 3, "velocity": 102}, {"time": 968, "pitch": 47, "duration": 3, "velocity": 102}, {"time": 968, "pitch": 59, "duration": 4, "velocity": 96}, {"time": 968, "pitch": 63, "duration": 5, "velocity": 94}, {"time": 980, "pitch": 34, "duration": 12, "velocity": 108}, {"time": 980, "pitch": 46, "duration": 12, "velocity": 108}, {"time": 980, "pitch": 58, "duration": 4, "velocity": 105}, {"time": 980, "pitch": 62, "duration": 5, "velocity": 109}, {"time": 980, "pitch": 65, "duration": 5, "velocity": 105}, {"time": 980, "pitch": 70, "duration": 5, "velocity": 92}, {"time": 983, "pitch": 53, "duration": 9, "velocity": 84}, {"time": 986, "pitch": 58, "duration": 6, "velocity": 117}, {"time": 989, "pitch": 62, "duration": 3, "velocity": 109}, {"time": 989, "pitch": 65, "duration": 3, "velocity": 94}, {"time": 992, "pitch": 39, "duration": 16, "velocity": 97}, {"time": 992, "pitch": 51, "duration": 16, "velocity": 97}, {"time": 992, "pitch": 63, "duration": 6, "velocity": 84}, {"time": 992, "pitch": 67, "duration": 8, "velocity": 102}, {"time": 998, "pitch": 58, "duration": 9, "velocity": 111}, {"time": 1004, "pitch": 63, "duration": 10, "velocity": 92}, {"time": 1004, "pitch": 67, "duration": 7, "velocity": 99}, {"time": 1004, "pitch": 70, "duration": 7, "velocity": 102}, {"time": 1010, "pitch": 39, "duration": 5, "velocity": 12}, {"time": 1010, "pitch": 51, "duration": 5, "velocity": 12}, {"time": 1010, "pitch": 58, "duration": 5, "velocity": 80}, {"time": 1016, "pitch": 39, "duration": 14, "velocity": 97}, {"time": 1016, "pitch": 51, "duration": 14, "velocity": 97}, {"time": 1016, "pitch": 62, "duration": 7, "velocity": 61}, {"time": 1016, "pitch": 67, "duration": 7, "velocity": 99}, {"time": 1022, "pitch": 58, "duration": 8, "velocity": 82}, {"time": 1028, "pitch": 62, "duration": 5, "velocity": 109}, {"time": 1028, "pitch": 67, "duration": 7, "velocity": 112}, {"time": 1034, "pitch": 39, "duration": 2, "velocity": 105}, {"time": 1034, "pitch": 51, "duration": 2, "velocity": 105}, {"time": 1040, "pitch": 36, "duration": 17, "velocity": 97}, {"time": 1040, "pitch": 48, "duration": 17, "velocity": 97}, {"time": 1040, "pitch": 60, "duration": 8, "velocity": 94}, {"time": 1040, "pitch": 63, "duration": 8, "velocity": 92}, {"time": 1040, "pitch": 67, "duration": 8, "velocity": 82}, {"time": 1046, "pitch": 55, "duration": 8, "velocity": 77}, {"time": 1052, "pitch": 60, "duration": 5, "velocity": 114}, {"time": 1052, "pitch": 63, "duration": 6, "velocity": 117}, {"time": 1052, "pitch": 67, "duration": 5, "velocity": 112}, {"time": 1058, "pitch": 36, "duration": 2, "velocity": 18}, {"time": 1058, "pitch": 48, "duration": 2, "velocity": 18}, {"time": 1058, "pitch": 55, "duration": 4, "velocity": 85}, {"time": 1061, "pitch": 60, "duration": 2, "velocity": 94}, {"time": 1064, "pitch": 36, "duration": 11, "velocity": 97}, {"time": 1064, "pitch": 48, "duration": 11, "velocity": 97}, {"time": 1064, "pitch": 60, "duration": 4, "velocity": 100}, {"time": 1064, "pitch": 63, "duration": 6, "velocity": 105}, {"time": 1064, "pitch": 67, "duration": 6, "velocity": 90}, {"time": 1070, "pitch": 55, "duration": 5, "velocity": 90}, {"time": 1073, "pitch": 60, "duration": 2, "velocity": 105}, {"time": 1076, "pitch": 40, "duration": 7, "velocity": 116}, {"time": 1076, "pitch": 52, "duration": 7, "velocity": 116}, {"time": 1076, "pitch": 60, "duration": 7, "velocity": 100}, {"time": 1076, "pitch": 64, "duration": 7, "velocity": 112}, {"time": 1076, "pitch": 67, "duration": 8, "velocity": 96}, {"time": 1082, "pitch": 55, "duration": 2, "velocity": 74}, {"time": 1088, "pitch": 41, "duration": 23, "velocity": 108}, {"time": 1088, "pitch": 53, "duration": 23, "velocity": 108}, {"time": 1088, "pitch": 60, "duration": 3, "velocity": 97}, {"time": 1088, "pitch": 65, "duration": 8, "velocity": 102}, {"time": 1094, "pitch": 60, "duration": 3, "velocity": 71}, {"time": 1100, "pitch": 60, "duration": 3, "velocity": 108}, {"time": 1100, "pitch": 65, "duration": 8, "velocity": 114}, {"time": 1100, "pitch": 68, "duration": 10, "velocity": 102}, {"time": 1106, "pitch": 60, "duration": 5, "velocity": 102}, {"time": 1112, "pitch": 41, "duration": 15, "velocity": 92}, {"time": 1112, "pitch": 53, "duration": 15, "velocity": 92}, {"time": 1112, "pitch": 60, "duration": 3, "velocity": 94}, {"time": 1112, "pitch": 63, "duration": 9, "velocity": 105}, {"time": 1112, "pitch": 68, "duration": 8, "velocity": 97}, {"time": 1118, "pitch": 60, "duration": 4, "velocity": 67}, {"time": 1124, "pitch": 60, "duration": 3, "velocity": 108}, {"time": 1124, "pitch": 63, "duration": 5, "velocity": 114}, {"time": 1124, "pitch": 68, "duration": 8, "velocity": 102}, {"time": 1130, "pitch": 60, "duration": 2, "velocity": 66}, {"time": 1136, "pitch": 37, "duration": 17, "velocity": 102}, {"time": 1136, "pitch": 49, "duration": 17, "velocity": 102}, {"time": 1136, "pitch": 56, "duration": 4, "velocity": 92}, {"time": 1136, "pitch": 61, "duration": 8, "velocity": 102}, {"time": 1136, "pitch": 65, "duration": 8, "velocity": 92}, {"time": 1142, "pitch": 56, "duration": 4, "velocity": 43}, {"time": 1148, "pitch": 56, "duration": 2, "velocity": 102}, {"time": 1148, "pitch": 61, "duration": 5, "velocity": 111}, {"time": 1148, "pitch": 65, "duration": 7, "velocity": 105}, {"time": 1154, "pitch": 56, "duration": 4, "velocity": 58}, {"time": 1160, "pitch": 35, "duration": 5, "velocity": 79}, {"time": 1160, "pitch": 47, "duration": 5, "velocity": 79}, {"time": 1160, "pitch": 59, "duration": 5, "velocity": 96}, {"time": 1160, "pitch": 63, "duration": 5, "velocity": 89}, {"time": 1172, "pitch": 34, "duration": 13, "velocity": 102}, {"time": 1172, "pitch": 46, "duration": 13, "velocity": 102}, {"time": 1172, "pitch": 56, "duration": 12, "velocity": 89}, {"time": 1172, "pitch": 62, "duration": 13, "velocity": 74}, {"time": 1172, "pitch": 65, "duration": 12, "velocity": 92}, {"time": 1184, "pitch": 51, "duration": 19, "velocity": 78}, {"time": 1184, "pitch": 63, "duration": 8, "velocity": 69}, {"time": 1184, "pitch": 67, "duration": 7, "velocity": 65}, {"time": 1190, "pitch": 58, "duration": 8, "velocity": 39}, {"time": 1196, "pitch": 67, "duration": 6, "velocity": 112}, {"time": 1196, "pitch": 70, "duration": 6, "velocity": 97}, {"time": 1202, "pitch": 63, "duration": 3, "velocity": 36}, {"time": 1208, "pitch": 51, "duration": 21, "velocity": 80}, {"time": 1208, "pitch": 67, "duration": 9, "velocity": 79}, {"time": 1208, "pitch": 70, "duration": 9, "velocity": 92}, {"time": 1214, "pitch": 58, "duration": 9, "velocity": 46}, {"time": 1220, "pitch": 62, "duration": 6, "velocity": 85}, {"time": 1220, "pitch": 67, "duration": 11, "velocity": 93}, {"time": 1220, "pitch": 70, "duration": 7, "velocity": 100}, {"time": 1226, "pitch": 58, "duration": 5, "velocity": 52}, {"time": 1232, "pitch": 51, "duration": 11, "velocity": 97}, {"time": 1232, "pitch": 61, "duration": 5, "velocity": 100}, {"time": 1232, "pitch": 67, "duration": 5, "velocity": 93}, {"time": 1238, "pitch": 58, "duration": 4, "velocity": 73}, {"time": 1244, "pitch": 55, "duration": 10, "velocity": 116}, {"time": 1244, "pitch": 67, "duration": 9, "velocity": 96}, {"time": 1244, "pitch": 70, "duration": 10, "velocity": 100}, {"time": 1256, "pitch": 56, "duration": 15, "velocity": 108}, {"time": 1256, "pitch": 63, "duration": 8, "velocity": 80}, {"time": 1256, "pitch": 68, "duration": 8, "velocity": 100}, {"time": 1262, "pitch": 60, "duration": 9, "velocity": 76}, {"time": 1268, "pitch": 63, "duration": 3, "velocity": 100}, {"time": 1268, "pitch": 68, "duration": 6, "velocity": 111}, {"time": 1268, "pitch": 72, "duration": 7, "velocity": 97}, {"time": 1274, "pitch": 63, "duration": 2, "velocity": 80}, {"time": 1280, "pitch": 53, "duration": 17, "velocity": 94}, {"time": 1280, "pitch": 60, "duration": 3, "velocity": 82}, {"time": 1280, "pitch": 65, "duration": 8, "velocity": 87}, {"time": 1286, "pitch": 60, "duration": 4, "velocity": 80}, {"time": 1292, "pitch": 60, "duration": 2, "velocity": 105}, {"time": 1292, "pitch": 65, "duration": 5, "velocity": 105}, {"time": 1292, "pitch": 68, "duration": 7, "velocity": 102}, {"time": 1298, "pitch": 60, "duration": 2, "velocity": 84}, {"time": 1304, "pitch": 46, "duration": 15, "velocity": 92}, {"time": 1304, "pitch": 58, "duration": 10, "velocity": 73}, {"time": 1304, "pitch": 62, "duration": 9, "velocity": 52}, {"time": 1304, "pitch": 65, "duration": 8, "velocity": 71}, {"time": 1310, "pitch": 53, "duration": 9, "velocity": 76}, {"time": 1316, "pitch": 58, "duration": 6, "velocity": 105}, {"time": 1316, "pitch": 62, "duration": 5, "velocity": 109}, {"time": 1316, "pitch": 65, "duration": 6, "velocity": 100}, {"time": 1322, "pitch": 46, "duration": 5, "velocity": 97}, {"time": 1328, "pitch": 51, "duration": 16, "velocity": 100}, {"time": 1328, "pitch": 58, "duration": 3, "velocity": 97}, {"time": 1328, "pitch": 63, "duration": 8, "velocity": 92}, {"time": 1334, "pitch": 58, "duration": 3, "velocity": 73}, {"time": 1340, "pitch": 58, "duration": 3, "velocity": 111}, {"time": 1340, "pitch": 63, "duration": 4, "velocity": 111}, {"time": 1340, "pitch": 67, "duration": 6, "velocity": 112}, {"time": 1346, "pitch": 58, "duration": 3, "velocity": 102}, {"time": 1352, "pitch": 46, "duration": 11, "velocity": 108}, {"time": 1352, "pitch": 58, "duration": 6, "velocity": 108}, {"time": 1352, "pitch": 62, "duration": 6, "velocity": 109}, {"time": 1352, "pitch": 65, "duration": 6, "velocity": 102}, {"time": 1358, "pitch": 53, "duration": 5, "velocity": 78}, {"time": 1361, "pitch": 58, "duration": 2, "velocity": 87}, {"time": 1361, "pitch": 62, "duration": 1, "velocity": 90}, {"time": 1361, "pitch": 65, "duration": 2, "velocity": 84}, {"time": 1361, "pitch": 70, "duration": 1, "velocity": 46}, {"time": 1364, "pitch": 46, "duration": 12, "velocity": 105}, {"time": 1364, "pitch": 58, "duration": 11, "velocity": 105}, {"time": 1364, "pitch": 62, "duration": 11, "velocity": 112}, {"time": 1364, "pitch": 65, "duration": 11, "velocity": 105}, {"time": 1364, "pitch": 70, "duration": 8, "velocity": 92}, {"time": 1370, "pitch": 53, "duration": 6, "velocity": 108}, {"time": 1376, "pitch": 39, "duration": 16, "velocity": 97}, {"time": 1376, "pitch": 51, "duration": 16, "velocity": 97}, {"time": 1376, "pitch": 63, "duration": 6, "velocity": 84}, {"time": 1376, "pitch": 67, "duration": 8, "velocity": 102}, {"time": 1382, "pitch": 58, "duration": 9, "velocity": 111}, {"time": 1388, "pitch": 63, "duration": 10, "velocity": 92}, {"time": 1388, "pitch": 67, "duration": 7, "velocity": 99}, {"time": 1388, "pitch": 70, "duration": 7, "velocity": 102}, {"time": 1394, "pitch": 39, "duration": 5, "velocity": 12}, {"time": 1394, "pitch": 51, "duration": 5, "velocity": 12}, {"time": 1394, "pitch": 58, "duration": 5, "velocity": 80}, {"time": 1400, "pitch": 39, "duration": 14, "velocity": 97}, {"time": 1400, "pitch": 51, "duration": 14, "velocity": 97}, {"time": 1400, "pitch": 62, "duration": 7, "velocity": 61}, {"time": 1400, "pitch": 67, "duration": 7, "velocity": 99}, {"time": 1406, "pitch": 58, "duration": 8, "velocity": 82}, {"time": 1412, "pitch": 62, "duration": 5, "velocity": 109}, {"time": 1412, "pitch": 67, "duration": 7, "velocity": 112}, {"time": 1418, "pitch": 39, "duration": 2, "velocity": 105}, {"time": 1418, "pitch": 51, "duration": 2, "velocity": 105}, {"time": 1424, "pitch": 36, "duration": 17, "velocity": 97}, {"time": 1424, "pitch": 48, "duration": 17, "velocity": 97}, {"time": 1424, "pitch": 60, "duration": 8, "velocity": 94}, {"time": 1424, "pitch": 63, "duration": 8, "velocity": 92}, {"time": 1424, "pitch": 67, "duration": 8, "velocity": 82}, {"time": 1430, "pitch": 55, "duration": 8, "velocity": 77}, {"time": 1436, "pitch": 60, "duration": 5, "velocity": 114}, {"time": 1436, "pitch": 63, "duration": 6, "velocity": 117}, {"time": 1436, "pitch": 67, "duration": 5, "velocity": 112}, {"time": 1442, "pitch": 36, "duration": 2, "velocity": 18}, {"time": 1442, "pitch": 48, "duration": 2, "velocity": 18}, {"time": 1442, "pitch": 55, "duration": 4, "velocity": 85}, {"time": 1445, "pitch": 60, "duration": 2, "velocity": 94}, {"time": 1448, "pitch": 36, "duration": 11, "velocity": 97}, {"time": 1448, "pitch": 48, "duration": 11, "velocity": 97}, {"time": 1448, "pitch": 60, "duration": 4, "velocity": 100}, {"time": 1448, "pitch": 63, "duration": 6, "velocity": 105}, {"time": 1448, "pitch": 67, "duration": 6, "velocity": 90}, {"time": 1454, "pitch": 55, "duration": 5, "velocity": 90}, {"time": 1457, "pitch": 60, "duration": 2, "velocity": 105}, {"time": 1460, "pitch": 40, "duration": 7, "velocity": 116}, {"time": 1460, "pitch": 52, "duration": 7, "velocity": 116}, {"time": 1460, "pitch": 60, "duration": 7, "velocity": 100}, {"time": 1460, "pitch": 64, "duration": 7, "velocity": 112}, {"time": 1460, "pitch": 67, "duration": 8, "velocity": 96}, {"time": 1466, "pitch": 55, "duration": 2, "velocity": 74}, {"time": 1472, "pitch": 41, "duration": 23, "velocity": 108}, {"time": 1472, "pitch": 53, "duration": 23, "velocity": 108}, {"time": 1472, "pitch": 60, "duration": 3, "velocity": 97}, {"time": 1472, "pitch": 65, "duration": 8, "velocity": 102}, {"time": 1478, "pitch": 60, "duration": 3, "velocity": 71}, {"time": 1484, "pitch": 60, "duration": 3, "velocity": 108}, {"time": 1484, "pitch": 65, "duration": 8, "velocity": 114}, {"time": 1484, "pitch": 68, "duration": 10, "velocity": 102}, {"time": 1490, "pitch": 60, "duration": 5, "velocity": 102}, {"time": 1496, "pitch": 41, "duration": 15, "velocity": 92}, {"time": 1496, "pitch": 53, "duration": 15, "velocity": 92}, {"time": 1496, "pitch": 60, "duration": 3, "velocity": 94}, {"time": 1496, "pitch": 63, "duration": 9, "velocity": 105}, {"time": 1496, "pitch": 68, "duration": 8, "velocity": 97}, {"time": 1502, "pitch": 60, "duration": 4, "velocity": 67}, {"time": 1508, "pitch": 60, "duration": 3, "velocity": 108}, {"time": 1508, "pitch": 63, "duration": 5, "velocity": 114}, {"time": 1508, "pitch": 68, "duration": 8, "velocity": 102}, {"time": 1514, "pitch": 60, "duration": 2, "velocity": 66}, {"time": 1520, "pitch": 38, "duration": 9, "velocity": 102}, {"time": 1520, "pitch": 50, "duration": 9, "velocity": 102}, {"time": 1520, "pitch": 62, "duration": 9, "velocity": 109}, {"time": 1520, "pitch": 65, "duration": 9, "velocity": 100}, {"time": 1532, "pitch": 37, "duration": 6, "velocity": 102}, {"time": 1532, "pitch": 49, "duration": 6, "velocity": 102}, {"time": 1532, "pitch": 61, "duration": 6, "velocity": 102}, {"time": 1532, "pitch": 65, "duration": 6, "velocity": 102}, {"time": 1544, "pitch": 35, "duration": 3, "velocity": 102}, {"time": 1544, "pitch": 47, "duration": 3, "velocity": 102}, {"time": 1544, "pitch": 59, "duration": 4, "velocity": 96}, {"time": 1544, "pitch": 63, "duration": 5, "velocity": 94}, {"time": 1556, "pitch": 34, "duration": 12, "velocity": 108}, {"time": 1556, "pitch": 46, "duration": 12, "velocity": 108}, {"time": 1556, "pitch": 58, "duration": 4, "velocity": 105}, {"time": 1556, "pitch": 62, "duration": 5, "velocity": 109}, {"time": 1556, "pitch": 65, "duration": 5, "velocity": 105}, {"time": 1556, "pitch": 70, "duration": 5, "velocity": 92}, {"time": 1559, "pitch": 53, "duration": 9, "velocity": 84}, {"time": 1562, "pitch": 58, "duration": 6, "velocity": 117}, {"time": 1565, "pitch": 62, "duration": 3, "velocity": 109}, {"time": 1565, "pitch": 65, "duration": 3, "velocity": 94}, {"time": 1568, "pitch": 39, "duration": 16, "velocity": 97}, {"time": 1568, "pitch": 51, "duration": 16, "velocity": 97}, {"time": 1568, "pitch": 63, "duration": 6, "velocity": 84}, {"time": 1568, "pitch": 67, "duration": 8, "velocity": 102}, {"time": 1574, "pitch": 58, "duration": 9, "velocity": 111}, {"time": 1580, "pitch": 63, "duration": 10, "velocity": 92}, {"time": 1580, "pitch": 67, "duration": 7, "velocity": 99}, {"time": 1580, "pitch": 70, "duration": 7, "velocity": 102}, {"time": 1586, "pitch": 39, "duration": 5, "velocity": 12}, {"time": 1586, "pitch": 51, "duration": 5, "velocity": 12}, {"time": 1586, "pitch": 58, "duration": 5, "velocity": 80}, {"time": 1592, "pitch": 39, "duration": 14, "velocity": 97}, {"time": 1592, "pitch": 51, "duration": 14, "velocity": 97}, {"time": 1592, "pitch": 62, "duration": 7, "velocity": 61}, {"time": 1592, "pitch": 67, "duration": 7, "velocity": 99}, {"time": 1598, "pitch": 58, "duration": 8, "velocity": 82}, {"time": 1604, "pitch": 62, "duration": 5, "velocity": 109}, {"time": 1604, "pitch": 67, "duration": 7, "velocity": 112}, {"time": 1610, "pitch": 39, "duration": 2, "velocity": 105}, {"time": 1610, "pitch": 51, "duration": 2, "velocity": 105}, {"time": 1616, "pitch": 36, "duration": 17, "velocity": 97}, {"time": 1616, "pitch": 48, "duration": 17, "velocity": 97}, {"time": 1616, "pitch": 60, "duration": 8, "velocity": 94}, {"time": 1616, "pitch": 63, "duration": 8, "velocity": 92}, {"time": 1616, "pitch": 67, "duration": 8, "velocity": 82}, {"time": 1622, "pitch": 55, "duration": 8, "velocity": 77}, {"time": 1628, "pitch": 60, "duration": 5, "velocity": 114}, {"time": 1628, "pitch": 63, "duration": 6, "velocity": 117}, {"time": 1628, "pitch": 67, "duration": 5, "velocity": 112}, {"time": 1634, "pitch": 36, "duration": 2, "velocity": 18}, {"time": 1634, "pitch": 48, "duration": 2, "velocity": 18}, {"time": 1634, "pitch": 55, "duration": 4, "velocity": 85}, {"time": 1637, "pitch": 60, "duration": 2, "velocity": 94}, {"time": 1640, "pitch": 36, "duration": 11, "velocity": 97}, {"time": 1640, "pitch": 48, "duration": 11, "velocity": 97}, {"time": 1640, "pitch": 60, "duration": 4, "velocity": 100}, {"time": 1640, "pitch": 63, "duration": 6, "velocity": 105}, {"time": 1640, "pitch": 67, "duration": 6, "velocity": 90}, {"time": 1646, "pitch": 55, "duration": 5, "velocity": 90}, {"time": 1649, "pitch": 60, "duration": 2, "velocity": 105}, {"time": 1652, "pitch": 40, "duration": 7, "velocity": 116}, {"time": 1652, "pitch": 52, "duration": 7, "velocity": 116}, {"time": 1652, "pitch": 60, "duration": 7, "velocity": 100}, {"time": 1652, "pitch": 64, "duration": 7, "velocity": 112}, {"time": 1652, "pitch": 67, "duration": 8, "velocity": 96}, {"time": 1658, "pitch": 55, "duration": 2, "velocity": 74}, {"time": 1664, "pitch": 41, "duration": 23, "velocity": 108}, {"time": 1664, "pitch": 53, "duration": 23, "velocity": 108}, {"time": 1664, "pitch": 60, "duration": 3, "velocity": 97}, {"time": 1664, "pitch": 65, "duration": 8, "velocity": 102}, {"time": 1670, "pitch": 60, "duration": 3, "velocity": 71}, {"time": 1676, "pitch": 60, "duration": 3, "velocity": 108}, {"time": 1676, "pitch": 65, "duration": 8, "velocity": 114}, {"time": 1676, "pitch": 68, "duration": 10, "velocity": 102}, {"time": 1682, "pitch": 60, "duration": 5, "velocity": 102}, {"time": 1688, "pitch": 41, "duration": 15, "velocity": 92}, {"time": 1688, "pitch": 53, "duration": 15, "velocity": 92}, {"time": 1688, "pitch": 60, "duration": 3, "velocity": 94}, {"time": 1688, "pitch": 63, "duration": 9, "velocity": 105}, {"time": 1688, "pitch": 68, "duration": 8, "velocity": 97}, {"time": 1694, "pitch": 60, "duration": 4, "velocity": 67}, {"time": 1700, "pitch": 60, "duration": 3, "velocity": 108}, {"time": 1700, "pitch": 63, "duration": 5, "velocity": 114}, {"time": 1700, "pitch": 68, "duration": 8, "velocity": 102}, {"time": 1706, "pitch": 60, "duration": 2, "velocity": 66}, {"time": 1712, "pitch": 37, "duration": 17, "velocity": 102}, {"time": 1712, "pitch": 49, "duration": 17, "velocity": 102}, {"time": 1712, "pitch": 56, "duration": 4, "velocity": 92}, {"time": 1712, "pitch": 61, "duration": 8, "velocity": 102}, {"time": 1712, "pitch": 65, "duration": 8, "velocity": 92}, {"time": 1718, "pitch": 56, "duration": 4, "velocity": 43}, {"time": 1724, "pitch": 56, "duration": 2, "velocity": 102}, {"time": 1724, "pitch": 61, "duration": 5, "velocity": 111}, {"time": 1724, "pitch": 65, "duration": 7, "velocity": 105}, {"time": 1730, "pitch": 56, "duration": 4, "velocity": 58}, {"time": 1736, "pitch": 35, "duration": 5, "velocity": 79}, {"time": 1736, "pitch": 47, "duration": 5, "velocity": 79}, {"time": 1736, "pitch": 59, "duration": 5, "velocity": 96}, {"time": 1736, "pitch": 63, "duration": 5, "velocity": 89}, {"time": 1748, "pitch": 34, "duration": 13, "velocity": 102}, {"time": 1748, "pitch": 46, "duration": 13, "velocity": 102}, {"time": 1748, "pitch": 56, "duration": 12, "velocity": 89}, {"time": 1748, "pitch": 62, "duration": 13, "velocity": 74}, {"time": 1748, "pitch": 65, "duration": 12, "velocity": 92}, {"time": 1760, "pitch": 51, "duration": 19, "velocity": 78}, {"time": 1760, "pitch": 63, "duration": 8, "velocity": 69}, {"time": 1760, "pitch": 67, "duration": 7, "velocity": 65}, {"time": 1766, "pitch": 58, "duration": 8, "velocity": 39}, {"time": 1772, "pitch": 67, "duration": 6, "velocity": 112}, {"time": 1772, "pitch": 70, "duration": 6, "velocity": 97}, {"time": 1778, "pitch": 63, "duration": 3, "velocity": 36}, {"time": 1784, "pitch": 51, "duration": 21, "velocity": 80}, {"time": 1784, "pitch": 67, "duration": 9, "velocity": 79}, {"time": 1784, "pitch": 70, "duration": 9, "velocity": 92}, {"time": 1790, "pitch": 58, "duration": 9, "velocity": 46}, {"time": 1796, "pitch": 62, "duration": 6, "velocity": 85}, {"time": 1796, "pitch": 67, "duration": 11, "velocity": 93}, {"time": 1796, "pitch": 70, "duration": 7, "velocity": 100}, {"time": 1802, "pitch": 58, "duration": 5, "velocity": 52}, {"time": 1808, "pitch": 51, "duration": 11, "velocity": 97}, {"time": 1808, "pitch": 61, "duration": 5, "velocity": 100}, {"time": 1808, "pitch": 67, "duration": 5, "velocity": 93}, {"time": 1814, "pitch": 58, "duration": 4, "velocity": 73}, {"time": 1820, "pitch": 55, "duration": 10, "velocity": 116}, {"time": 1820, "pitch": 67, "duration": 9, "velocity": 96}, {"time": 1820, "pitch": 70, "duration": 10, "velocity": 100}, {"time": 1832, "pitch": 56, "duration": 15, "velocity": 108}, {"time": 1832, "pitch": 63, "duration": 8, "velocity": 80}, {"time": 1832, "pitch": 68, "duration": 8, "velocity": 100}, {"time": 1838, "pitch": 60, "duration": 9, "velocity": 76}, {"time": 1844, "pitch": 63, "duration": 3, "velocity": 100}, {"time": 1844, "pitch": 68, "duration": 6, "velocity": 111}, {"time": 1844, "pitch": 72, "duration": 7, "velocity": 97}, {"time": 1850, "pitch": 63, "duration": 2, "velocity": 80}, {"time": 1856, "pitch": 53, "duration": 18, "velocity": 94}, {"time": 1859, "pitch": 60, "duration": 8, "velocity": 58}, {"time": 1862, "pitch": 63, "duration": 9, "velocity": 71}, {"time": 1865, "pitch": 68, "duration": 7, "velocity": 102}, {"time": 1868, "pitch": 60, "duration": 5, "velocity": 69}, {"time": 1872, "pitch": 72, "duration": 11, "velocity": 84}, {"time": 1875, "pitch": 63, "duration": 8, "velocity": 50}, {"time": 1878, "pitch": 68, "duration": 4, "velocity": 82}, {"time": 1881, "pitch": 46, "duration": 39, "velocity": 94}, {"time": 1885, "pitch": 53, "duration": 33, "velocity": 36}, {"time": 1888, "pitch": 56, "duration": 3, "velocity": 64}, {"time": 1891, "pitch": 62, "duration": 2, "velocity": 87}, {"time": 1895, "pitch": 65, "duration": 5, "velocity": 64}, {"time": 1899, "pitch": 68, "duration": 4, "velocity": 111}, {"time": 1904, "pitch": 70, "duration": 28, "velocity": 89}, {"time": 1929, "pitch": 63, "duration": 4, "velocity": 51}, {"time": 1929, "pitch": 67, "duration": 7, "velocity": 87}, {"time": 1930, "pitch": 51, "duration": 19, "velocity": 100}, {"time": 1930, "pitch": 70, "duration": 2, "velocity": 78}, {"time": 1933, "pitch": 58, "duration": 11, "velocity": 52}, {"time": 1936, "pitch": 63, "duration": 5, "velocity": 57}, {"time": 1943, "pitch": 67, "duration": 6, "velocity": 90}, {"time": 1943, "pitch": 70, "duration": 7, "velocity": 100}, {"time": 1943, "pitch": 63, "duration": 3, "velocity": 94}, {"time": 1946, "pitch": 58, "duration": 3, "velocity": 45}, {"time": 1950, "pitch": 63, "duration": 1, "velocity": 78}, {"time": 1956, "pitch": 45, "duration": 19, "velocity": 55}, {"time": 1956, "pitch": 57, "duration": 4, "velocity": 50}, {"time": 1956, "pitch": 64, "duration": 7, "velocity": 63}, {"time": 1956, "pitch": 60, "duration": 6, "velocity": 80}, {"time": 1959, "pitch": 52, "duration": 11, "velocity": 43}, {"time": 1962, "pitch": 57, "duration": 6, "velocity": 59}, {"time": 1966, "pitch": 60, "duration": 2, "velocity": 100}, {"time": 1969, "pitch": 57, "duration": 5, "velocity": 90}, {"time": 1969, "pitch": 60, "duration": 6, "velocity": 114}, {"time": 1969, "pitch": 63, "duration": 8, "velocity": 105}, {"time": 1972, "pitch": 52, "duration": 4, "velocity": 55}, {"time": 1976, "pitch": 57, "duration": 3, "velocity": 68}, {"time": 1984, "pitch": 46, "duration": 26, "velocity": 97}, {"time": 1987, "pitch": 53, "duration": 21, "velocity": 71}, {"time": 1991, "pitch": 56, "duration": 5, "velocity": 102}, {"time": 1995, "pitch": 62, "duration": 2, "velocity": 112}, {"time": 1999, "pitch": 65, "duration": 4, "velocity": 102}, {"time": 2003, "pitch": 68, "duration": 4, "velocity": 114}, {"time": 2008, "pitch": 70, "duration": 4, "velocity": 82}, {"time": 2008, "pitch": 65, "duration": 4, "velocity": 76}, {"time": 2019, "pitch": 51, "duration": 44, "velocity": 100}, {"time": 2021, "pitch": 58, "duration": 18, "velocity": 80}, {"time": 2024, "pitch": 63, "duration": 3, "velocity": 44}, {"time": 2026, "pitch": 65, "duration": 3, "velocity": 66}, {"time": 2028, "pitch": 67, "duration": 5, "velocity": 77}, {"time": 2031, "pitch": 70, "duration": 22, "velocity": 62}, {"time": 2034, "pitch": 63, "duration": 18, "velocity": 40}, {"time": 2038, "pitch": 55, "duration": 14, "velocity": 37}, {"time": 2052, "pitch": 58, "duration": 11, "velocity": 60}, {"time": 2054, "pitch": 63, "duration": 9, "velocity": 51}, {"time": 2055, "pitch": 70, "duration": 8, "velocity": 80}], "annotations": [{"time": 34, "annotation": {"number": 64, "value": 127}, "group": "control_change"}, {"time": 54, "annotation": {"number": 64, "value": 0}, "group": "control_change"}, {"time": 58, "annotation": {"number": 64, "value": 127}, "group": "control_change"}, {"time": 66, "annotation": {"number": 64, "value": 0}, "group": "control_change"}, {"time": 72, "annotation": {"number": 64, "value": 127}, "group": "control_change"}, {"time": 79, "annotation": {"number": 64, "value": 0}, "group": "control_change"}, {"time": 81, "annotation": {"number": 64, "value": 127}, "group": "control_change"}, {"time": 91, "annotation": {"number": 64, "value": 0}, "group": "control_change"}, {"time": 94, "annotation": {"number": 64, "value": 127}, "group": "control_change"}, {"time": 103, "annotation": {"number": 64, "value": 0}, "group": "control_change"}, {"time": 107, "annotation": {"number": 64, "value": 127}, "group": "control_change"}, {"time": 155, "annotation": {"number": 64, "value": 0}, "group": "control_change"}, {"time": 164, "annotation": {"number": 64, "value": 127}, "group": "control_change"}, {"time": 174, "annotation": {"number": 64, "value": 0}, "group": "control_change"}, {"time": 201, "annotation": {"number": 64, "value": 127}, "group": "control_change"}, {"time": 221, "annotation": {"number": 64, "value": 0}, "group": "control_change"}, {"time": 226, "annotation": {"number": 64, "value": 127}, "group": "control_change"}, {"time": 272, "annotation": {"number": 64, "value": 0}, "group": "control_change"}, {"time": 273, "annotation": {"number": 64, "value": 127}, "group": "control_change"}, {"time": 319, "annotation": {"number": 64, "value": 0}, "group": "control_change"}, {"time": 321, "annotation": {"number": 64, "value": 127}, "group": "control_change"}, {"time": 342, "annotation": {"number": 64, "value": 0}, "group": "control_change"}, {"time": 349, "annotation": {"number": 64, "value": 127}, "group": "control_change"}, {"time": 367, "annotation": {"number": 64, "value": 0}, "group": "control_change"}, {"time": 369, "annotation": {"number": 64, "value": 127}, "group": "control_change"}, {"time": 392, "annotation": {"number": 64, "value": 0}, "group": "control_change"}, {"time": 394, "annotation": {"number": 64, "value": 127}, "group": "control_change"}, {"time": 415, "annotation": {"number": 64, "value": 0}, "group": "control_change"}, {"time": 417, "annotation": {"number": 64, "value": 127}, "group": "control_change"}, {"time": 439, "annotation": {"number": 64, "value": 0}, "group": "control_change"}, {"time": 441, "annotation": {"number": 64, "value": 127}, "group": "control_change"}, {"time": 465, "annotation": {"number": 64, "value": 0}, "group": "control_change"}, {"time": 468, "annotation": {"number": 64, "value": 127}, "group": "control_change"}, {"time": 489, "annotation": {"number": 64, "value": 127}, "group": "control_change"}, {"time": 489, "annotation": {"number": 64, "value": 0}, "group": "control_change"}, {"time": 492, "annotation": {"number": 64, "value": 127}, "group": "control_change"}, {"time": 503, "annotation": {"number": 64, "value": 0}, "group": "control_change"}, {"time": 512, "annotation": {"number": 64, "value": 0}, "group": "control_change"}, {"time": 519, "annotation": {"number": 64, "value": 127}, "group": "control_change"}, {"time": 536, "annotation": {"number": 64, "value": 0}, "group": "control_change"}, {"time": 537, "annotation": {"number": 64, "value": 127}, "group": "control_change"}, {"time": 558, "annotation": {"number": 64, "value": 0}, "group": "control_change"}, {"time": 583, "annotation": {"number": 64, "value": 0}, "group": "control_change"}, {"time": 586, "annotation": {"number": 64, "value": 127}, "group": "control_change"}, {"time": 608, "annotation": {"number": 64, "value": 0}, "group": "control_change"}, {"time": 611, "annotation": {"number": 64, "value": 127}, "group": "control_change"}, {"time": 633, "annotation": {"number": 64, "value": 127}, "group": "control_change"}, {"time": 655, "annotation": {"number": 64, "value": 0}, "group": "control_change"}, {"time": 658, "annotation": {"number": 64, "value": 127}, "group": "control_change"}, {"time": 680, "annotation": {"number": 64, "value": 0}, "group": "control_change"}, {"time": 683, "annotation": {"number": 64, "value": 127}, "group": "control_change"}, {"time": 702, "annotation": {"number": 64, "value": 0}, "group": "control_change"}, {"time": 706, "annotation": {"number": 64, "value": 127}, "group": "control_change"}, {"time": 717, "annotation": {"number": 64, "value": 0}, "group": "control_change"}, {"time": 720, "annotation": {"number": 64, "value": 127}, "group": "control_change"}, {"time": 727, "annotation": {"number": 64, "value": 0}, "group": "control_change"}, {"time": 729, "annotation": {"number": 64, "value": 127}, "group": "control_change"}, {"time": 751, "annotation": {"number": 64, "value": 0}, "group": "control_change"}, {"time": 753, "annotation": {"number": 64, "value": 127}, "group": "control_change"}, {"time": 764, "annotation": {"number": 64, "value": 0}, "group": "control_change"}, {"time": 789, "annotation": {"number": 64, "value": 127}, "group": "control_change"}, {"time": 802, "annotation": {"number": 64, "value": 127}, "group": "control_change"}, {"time": 823, "annotation": {"number": 64, "value": 0}, "group": "control_change"}, {"time": 826, "annotation": {"number": 64, "value": 127}, "group": "control_change"}, {"time": 847, "annotation": {"number": 64, "value": 0}, "group": "control_change"}, {"time": 851, "annotation": {"number": 64, "value": 127}, "group": "control_change"}, {"time": 871, "annotation": {"number": 64, "value": 0}, "group": "control_change"}, {"time": 873, "annotation": {"number": 64, "value": 127}, "group": "control_change"}, {"time": 883, "annotation": {"number": 64, "value": 0}, "group": "control_change"}, {"time": 885, "annotation": {"number": 64, "value": 127}, "group": "control_change"}, {"time": 895, "annotation": {"number": 64, "value": 0}, "group": "control_change"}, {"time": 899, "annotation": {"number": 64, "value": 127}, "group": "control_change"}, {"time": 919, "annotation": {"number": 64, "value": 0}, "group": "control_change"}, {"time": 921, "annotation": {"number": 64, "value": 127}, "group": "control_change"}, {"time": 942, "annotation": {"number": 64, "value": 0}, "group": "control_change"}, {"time": 944, "annotation": {"number": 64, "value": 127}, "group": "control_change"}, {"time": 954, "annotation": {"number": 64, "value": 0}, "group": "control_change"}, {"time": 956, "annotation": {"number": 64, "value": 127}, "group": "control_change"}, {"time": 966, "annotation": {"number": 64, "value": 0}, "group": "control_change"}, {"time": 968, "annotation": {"number": 64, "value": 127}, "group": "control_change"}, {"time": 977, "annotation": {"number": 64, "value": 0}, "group": "control_change"}, {"time": 981, "annotation": {"number": 64, "value": 127}, "group": "control_change"}, {"time": 990, "annotation": {"number": 64, "value": 0}, "group": "control_change"}, {"time": 994, "annotation": {"number": 64, "value": 127}, "group": "control_change"}, {"time": 1015, "annotation": {"number": 64, "value": 0}, "group": "control_change"}, {"time": 1018, "annotation": {"number": 64, "value": 127}, "group": "control_change"}, {"time": 1039, "annotation": {"number": 64, "value": 0}, "group": "control_change"}, {"time": 1043, "annotation": {"number": 64, "value": 127}, "group": "control_change"}, {"time": 1063, "annotation": {"number": 64, "value": 0}, "group": "control_change"}, {"time": 1065, "annotation": {"number": 64, "value": 127}, "group": "control_change"}, {"time": 1075, "annotation": {"number": 64, "value": 0}, "group": "control_change"}, {"time": 1077, "annotation": {"number": 64, "value": 127}, "group": "control_change"}, {"time": 1087, "annotation": {"number": 64, "value": 0}, "group": "control_change"}, {"time": 1091, "annotation": {"number": 64, "value": 127}, "group": "control_change"}, {"time": 1111, "annotation": {"number": 64, "value": 0}, "group": "control_change"}, {"time": 1113, "annotation": {"number": 64, "value": 127}, "group": "control_change"}, {"time": 1134, "annotation": {"number": 64, "value": 0}, "group": "control_change"}, {"time": 1138, "annotation": {"number": 64, "value": 127}, "group": "control_change"}, {"time": 1159, "annotation": {"number": 64, "value": 0}, "group": "control_change"}, {"time": 1162, "annotation": {"number": 64, "value": 127}, "group": "control_change"}, {"time": 1171, "annotation": {"number": 64, "value": 0}, "group": "control_change"}, {"time": 1176, "annotation": {"number": 64, "value": 127}, "group": "control_change"}, {"time": 1183, "annotation": {"number": 64, "value": 0}, "group": "control_change"}, {"time": 1188, "annotation": {"number": 64, "value": 127}, "group": "control_change"}, {"time": 1208, "annotation": {"number": 64, "value": 0}, "group": "control_change"}, {"time": 1210, "annotation": {"number": 64, "value": 127}, "group": "control_change"}, {"time": 1231, "annotation": {"number": 64, "value": 0}, "group": "control_change"}, {"time": 1233, "annotation": {"number": 64, "value": 127}, "group": "control_change"}, {"time": 1244, "annotation": {"number": 64, "value": 0}, "group": "control_change"}, {"time": 1260, "annotation": {"number": 64, "value": 127}, "group": "control_change"}, {"time": 1280, "annotation": {"number": 64, "value": 0}, "group": "control_change"}, {"time": 1286, "annotation": {"number": 64, "value": 127}, "group": "control_change"}, {"time": 1305, "annotation": {"number": 64, "value": 0}, "group": "control_change"}, {"time": 1313, "annotation": {"number": 64, "value": 127}, "group": "control_change"}, {"time": 1326, "annotation": {"number": 64, "value": 0}, "group": "control_change"}, {"time": 1331, "annotation": {"number": 64, "value": 127}, "group": "control_change"}, {"time": 1350, "annotation": {"number": 64, "value": 0}, "group": "control_change"}, {"time": 1354, "annotation": {"number": 64, "value": 127}, "group": "control_change"}, {"time": 1375, "annotation": {"number": 64, "value": 0}, "group": "control_change"}, {"time": 1378, "annotation": {"number": 64, "value": 127}, "group": "control_change"}, {"time": 1399, "annotation": {"number": 64, "value": 0}, "group": "control_change"}, {"time": 1402, "annotation": {"number": 64, "value": 127}, "group": "control_change"}, {"time": 1423, "annotation": {"number": 64, "value": 0}, "group": "control_change"}, {"time": 1427, "annotation": {"number": 64, "value": 127}, "group": "control_change"}, {"time": 1447, "annotation": {"number": 64, "value": 0}, "group": "control_change"}, {"time": 1449, "annotation": {"number": 64, "value": 127}, "group": "control_change"}, {"time": 1459, "annotation": {"number": 64, "value": 0}, "group": "control_change"}, {"time": 1461, "annotation": {"number": 64, "value": 127}, "group": "control_change"}, {"time": 1471, "annotation": {"number": 64, "value": 0}, "group": "control_change"}, {"time": 1475, "annotation": {"number": 64, "value": 127}, "group": "control_change"}, {"time": 1495, "annotation": {"number": 64, "value": 0}, "group": "control_change"}, {"time": 1497, "annotation": {"number": 64, "value": 127}, "group": "control_change"}, {"time": 1518, "annotation": {"number": 64, "value": 0}, "group": "control_change"}, {"time": 1520, "annotation": {"number": 64, "value": 127}, "group": "control_change"}, {"time": 1530, "annotation": {"number": 64, "value": 0}, "group": "control_change"}, {"time": 1532, "annotation": {"number": 64, "value": 127}, "group": "control_change"}, {"time": 1542, "annotation": {"number": 64, "value": 0}, "group": "control_change"}, {"time": 1544, "annotation": {"number": 64, "value": 127}, "group": "control_change"}, {"time": 1553, "annotation": {"number": 64, "value": 0}, "group": "control_change"}, {"time": 1557, "annotation": {"number": 64, "value": 127}, "group": "control_change"}, {"time": 1566, "annotation": {"number": 64, "value": 0}, "group": "control_change"}, {"time": 1570, "annotation": {"number": 64, "value": 127}, "group": "control_change"}, {"time": 1591, "annotation": {"number": 64, "value": 0}, "group": "control_change"}, {"time": 1594, "annotation": {"number": 64, "value": 127}, "group": "control_change"}, {"time": 1615, "annotation": {"number": 64, "value": 0}, "group": "control_change"}, {"time": 1619, "annotation": {"number": 64, "value": 127}, "group": "control_change"}, {"time": 1639, "annotation": {"number": 64, "value": 0}, "group": "control_change"}, {"time": 1641, "annotation": {"number": 64, "value": 127}, "group": "control_change"}, {"time": 1651, "annotation": {"number": 64, "value": 0}, "group": "control_change"}, {"time": 1653, "annotation": {"number": 64, "value": 127}, "group": "control_change"}, {"time": 1663, "annotation": {"number": 64, "value": 0}, "group": "control_change"}, {"time": 1667, "annotation": {"number": 64, "value": 127}, "group": "control_change"}, {"time": 1687, "annotation": {"number": 64, "value": 0}, "group": "control_change"}, {"time": 1689, "annotation": {"number": 64, "value": 127}, "group": "control_change"}, {"time": 1710, "annotation": {"number": 64, "value": 0}, "group": "control_change"}, {"time": 1714, "annotation": {"number": 64, "value": 127}, "group": "control_change"}, {"time": 1735, "annotation": {"number": 64, "value": 0}, "group": "control_change"}, {"time": 1738, "annotation": {"number": 64, "value": 127}, "group": "control_change"}, {"time": 1747, "annotation": {"number": 64, "value": 0}, "group": "control_change"}, {"time": 1752, "annotation": {"number": 64, "value": 127}, "group": "control_change"}, {"time": 1759, "annotation": {"number": 64, "value": 0}, "group": "control_change"}, {"time": 1764, "annotation": {"number": 64, "value": 127}, "group": "control_change"}, {"time": 1784, "annotation": {"number": 64, "value": 0}, "group": "control_change"}, {"time": 1786, "annotation": {"number": 64, "value": 127}, "group": "control_change"}, {"time": 1807, "annotation": {"number": 64, "value": 0}, "group": "control_change"}, {"time": 1809, "annotation": {"number": 64, "value": 127}, "group": "control_change"}, {"time": 1820, "annotation": {"number": 64, "value": 0}, "group": "control_change"}, {"time": 1836, "annotation": {"number": 64, "value": 127}, "group": "control_change"}, {"time": 1856, "annotation": {"number": 64, "value": 0}, "group": "control_change"}, {"time": 1858, "annotation": {"number": 64, "value": 127}, "group": "control_change"}, {"time": 1880, "annotation": {"number": 64, "value": 0}, "group": "control_change"}, {"time": 1885, "annotation": {"number": 64, "value": 127}, "group": "control_change"}, {"time": 1932, "annotation": {"number": 64, "value": 127}, "group": "control_change"}, {"time": 1956, "annotation": {"number": 64, "value": 0}, "group": "control_change"}, {"time": 1962, "annotation": {"number": 64, "value": 127}, "group": "control_change"}, {"time": 1984, "annotation": {"number": 64, "value": 0}, "group": "control_change"}, {"time": 1992, "annotation": {"number": 64, "value": 127}, "group": "control_change"}, {"time": 2021, "annotation": {"number": 64, "value": 0}, "group": "control_change"}, {"time": 2028, "annotation": {"number": 64, "value": 127}, "group": "control_change"}]}]}