{"metadata": {"schema_version": "0.2", "title": "None", "source_filename": "146.mid", "source_format": "midi"}, "resolution": 12, "tempos": [{"time": 0, "qpm": 74.000074000074}, {"time": 1910, "qpm": 74.08011023120402}, {"time": 2579, "qpm": 74.000074000074}, {"time": 3167, "qpm": 74.08011023120402}, {"time": 3225, "qpm": 74.12001017914807}, {"time": 3422, "qpm": 74.000074000074}, {"time": 4332, "qpm": 66.56002271915442}, {"time": 4343, "qpm": 64.7601284840949}, {"time": 4380, "qpm": 74.000074000074}, {"time": 4528, "qpm": 71.96004778147173}, {"time": 4539, "qpm": 68.58005006343654}, {"time": 4551, "qpm": 66.70001667500416}, {"time": 4558, "qpm": 61.06000162826671}], "time_signatures": [{"time": 0, "numerator": 1, "denominator": 4}], "tracks": [{"program": 0, "is_drum": false, "name": "MELODY", "notes": [{"time": 390, "pitch": 65, "duration": 6, "velocity": 117}, {"time": 396, "pitch": 68, "duration": 6, "velocity": 117}, {"time": 402, "pitch": 68, "duration": 6, "velocity": 117}, {"time": 408, "pitch": 65, "duration": 6, "velocity": 114}, {"time": 414, "pitch": 70, "duration": 24, "velocity": 100}, {"time": 438, "pitch": 58, "duration": 6, "velocity": 108}, {"time": 444, "pitch": 61, "duration": 6, "velocity": 105}, {"time": 450, "pitch": 61, "duration": 6, "velocity": 111}, {"time": 456, "pitch": 58, "duration": 6, "velocity": 108}, {"time": 462, "pitch": 68, "duration": 3, "velocity": 111}, {"time": 465, "pitch": 65, "duration": 3, "velocity": 102}, {"time": 468, "pitch": 63, "duration": 18, "velocity": 92}, {"time": 486, "pitch": 65, "duration": 3, "velocity": 100}, {"time": 489, "pitch": 68, "duration": 9, "velocity": 105}, {"time": 498, "pitch": 68, "duration": 6, "velocity": 114}, {"time": 504, "pitch": 65, "duration": 6, "velocity": 108}, {"time": 510, "pitch": 73, "duration": 24, "velocity": 78}, {"time": 534, "pitch": 70, "duration": 6, "velocity": 105}, {"time": 540, "pitch": 70, "duration": 6, "velocity": 114}, {"time": 546, "pitch": 73, "duration": 6, "velocity": 114}, {"time": 552, "pitch": 65, "duration": 6, "velocity": 111}, {"time": 558, "pitch": 68, "duration": 24, "velocity": 105}, {"time": 582, "pitch": 73, "duration": 6, "velocity": 97}, {"time": 588, "pitch": 70, "duration": 6, "velocity": 105}, {"time": 594, "pitch": 68, "duration": 6, "velocity": 102}, {"time": 600, "pitch": 70, "duration": 6, "velocity": 111}, {"time": 606, "pitch": 73, "duration": 24, "velocity": 111}, {"time": 630, "pitch": 70, "duration": 6, "velocity": 108}, {"time": 636, "pitch": 68, "duration": 6, "velocity": 111}, {"time": 642, "pitch": 65, "duration": 6, "velocity": 108}, {"time": 648, "pitch": 68, "duration": 6, "velocity": 108}, {"time": 654, "pitch": 70, "duration": 24, "velocity": 102}, {"time": 678, "pitch": 68, "duration": 3, "velocity": 111}, {"time": 681, "pitch": 70, "duration": 9, "velocity": 114}, {"time": 690, "pitch": 70, "duration": 6, "velocity": 117}, {"time": 696, "pitch": 68, "duration": 6, "velocity": 111}, {"time": 702, "pitch": 73, "duration": 6, "velocity": 111}, {"time": 708, "pitch": 58, "duration": 6, "velocity": 108}, {"time": 714, "pitch": 61, "duration": 12, "velocity": 102}, {"time": 726, "pitch": 63, "duration": 6, "velocity": 111}, {"time": 732, "pitch": 65, "duration": 6, "velocity": 117}, {"time": 738, "pitch": 63, "duration": 6, "velocity": 105}, {"time": 744, "pitch": 70, "duration": 6, "velocity": 111}, {"time": 750, "pitch": 68, "duration": 24, "velocity": 108}, {"time": 774, "pitch": 65, "duration": 6, "velocity": 117}, {"time": 780, "pitch": 68, "duration": 6, "velocity": 117}, {"time": 786, "pitch": 68, "duration": 6, "velocity": 117}, {"time": 792, "pitch": 65, "duration": 6, "velocity": 114}, {"time": 798, "pitch": 70, "duration": 24, "velocity": 100}, {"time": 822, "pitch": 58, "duration": 6, "velocity": 108}, {"time": 828, "pitch": 61, "duration": 6, "velocity": 105}, {"time": 834, "pitch": 61, "duration": 6, "velocity": 111}, {"time": 840, "pitch": 58, "duration": 6, "velocity": 108}, {"time": 846, "pitch": 68, "duration": 3, "velocity": 111}, {"time": 849, "pitch": 65, "duration": 3, "velocity": 102}, {"time": 852, "pitch": 63, "duration": 18, "velocity": 92}, {"time": 870, "pitch": 65, "duration": 3, "velocity": 100}, {"time": 873, "pitch": 68, "duration": 9, "velocity": 105}, {"time": 882, "pitch": 68, "duration": 6, "velocity": 114}, {"time": 888, "pitch": 65, "duration": 6, "velocity": 108}, {"time": 894, "pitch": 73, "duration": 24, "velocity": 78}, {"time": 918, "pitch": 70, "duration": 6, "velocity": 105}, {"time": 924, "pitch": 70, "duration": 6, "velocity": 114}, {"time": 930, "pitch": 73, "duration": 6, "velocity": 114}, {"time": 936, "pitch": 65, "duration": 6, "velocity": 111}, {"time": 942, "pitch": 68, "duration": 24, "velocity": 105}, {"time": 966, "pitch": 73, "duration": 6, "velocity": 97}, {"time": 972, "pitch": 70, "duration": 6, "velocity": 105}, {"time": 978, "pitch": 68, "duration": 6, "velocity": 102}, {"time": 984, "pitch": 70, "duration": 6, "velocity": 111}, {"time": 990, "pitch": 73, "duration": 24, "velocity": 111}, {"time": 1014, "pitch": 70, "duration": 6, "velocity": 108}, {"time": 1020, "pitch": 68, "duration": 6, "velocity": 111}, {"time": 1026, "pitch": 65, "duration": 6, "velocity": 108}, {"time": 1032, "pitch": 68, "duration": 6, "velocity": 108}, {"time": 1038, "pitch": 70, "duration": 24, "velocity": 102}, {"time": 1062, "pitch": 68, "duration": 3, "velocity": 111}, {"time": 1065, "pitch": 70, "duration": 9, "velocity": 114}, {"time": 1074, "pitch": 70, "duration": 6, "velocity": 117}, {"time": 1080, "pitch": 68, "duration": 6, "velocity": 111}, {"time": 1086, "pitch": 73, "duration": 6, "velocity": 111}, {"time": 1092, "pitch": 58, "duration": 6, "velocity": 108}, {"time": 1098, "pitch": 61, "duration": 12, "velocity": 102}, {"time": 1110, "pitch": 63, "duration": 6, "velocity": 111}, {"time": 1116, "pitch": 65, "duration": 6, "velocity": 117}, {"time": 1122, "pitch": 63, "duration": 6, "velocity": 105}, {"time": 1128, "pitch": 70, "duration": 6, "velocity": 111}, {"time": 1134, "pitch": 68, "duration": 24, "velocity": 108}, {"time": 1158, "pitch": 65, "duration": 6, "velocity": 111}, {"time": 1164, "pitch": 68, "duration": 6, "velocity": 108}, {"time": 1170, "pitch": 68, "duration": 6, "velocity": 108}, {"time": 1176, "pitch": 65, "duration": 6, "velocity": 117}, {"time": 1182, "pitch": 70, "duration": 12, "velocity": 111}, {"time": 1194, "pitch": 68, "duration": 6, "velocity": 105}, {"time": 1200, "pitch": 70, "duration": 6, "velocity": 114}, {"time": 1206, "pitch": 61, "duration": 12, "velocity": 111}, {"time": 1218, "pitch": 58, "duration": 6, "velocity": 108}, {"time": 1224, "pitch": 61, "duration": 6, "velocity": 105}, {"time": 1230, "pitch": 63, "duration": 24, "velocity": 114}, {"time": 1254, "pitch": 65, "duration": 6, "velocity": 111}, {"time": 1260, "pitch": 68, "duration": 6, "velocity": 108}, {"time": 1266, "pitch": 68, "duration": 6, "velocity": 111}, {"time": 1272, "pitch": 70, "duration": 6, "velocity": 102}, {"time": 1278, "pitch": 73, "duration": 12, "velocity": 94}, {"time": 1290, "pitch": 73, "duration": 6, "velocity": 105}, {"time": 1296, "pitch": 73, "duration": 6, "velocity": 89}, {"time": 1302, "pitch": 70, "duration": 6, "velocity": 111}, {"time": 1308, "pitch": 68, "duration": 6, "velocity": 100}, {"time": 1314, "pitch": 68, "duration": 6, "velocity": 111}, {"time": 1320, "pitch": 65, "duration": 6, "velocity": 108}, {"time": 1326, "pitch": 63, "duration": 24, "velocity": 111}, {"time": 1350, "pitch": 65, "duration": 6, "velocity": 108}, {"time": 1356, "pitch": 68, "duration": 6, "velocity": 97}, {"time": 1362, "pitch": 68, "duration": 6, "velocity": 100}, {"time": 1368, "pitch": 65, "duration": 6, "velocity": 105}, {"time": 1374, "pitch": 70, "duration": 12, "velocity": 92}, {"time": 1386, "pitch": 73, "duration": 12, "velocity": 105}, {"time": 1398, "pitch": 58, "duration": 12, "velocity": 102}, {"time": 1410, "pitch": 65, "duration": 12, "velocity": 108}, {"time": 1422, "pitch": 63, "duration": 12, "velocity": 105}, {"time": 1434, "pitch": 61, "duration": 6, "velocity": 84}, {"time": 1440, "pitch": 63, "duration": 6, "velocity": 92}, {"time": 1446, "pitch": 65, "duration": 6, "velocity": 111}, {"time": 1452, "pitch": 68, "duration": 6, "velocity": 111}, {"time": 1458, "pitch": 68, "duration": 6, "velocity": 92}, {"time": 1464, "pitch": 70, "duration": 6, "velocity": 102}, {"time": 1470, "pitch": 73, "duration": 12, "velocity": 87}, {"time": 1482, "pitch": 73, "duration": 6, "velocity": 111}, {"time": 1488, "pitch": 73, "duration": 6, "velocity": 105}, {"time": 1494, "pitch": 70, "duration": 6, "velocity": 89}, {"time": 1500, "pitch": 68, "duration": 6, "velocity": 108}, {"time": 1506, "pitch": 65, "duration": 12, "velocity": 108}, {"time": 1518, "pitch": 68, "duration": 24, "velocity": 111}, {"time": 1542, "pitch": 65, "duration": 6, "velocity": 111}, {"time": 1548, "pitch": 68, "duration": 6, "velocity": 108}, {"time": 1554, "pitch": 68, "duration": 6, "velocity": 108}, {"time": 1560, "pitch": 65, "duration": 6, "velocity": 117}, {"time": 1566, "pitch": 70, "duration": 12, "velocity": 111}, {"time": 1578, "pitch": 68, "duration": 6, "velocity": 105}, {"time": 1584, "pitch": 70, "duration": 6, "velocity": 114}, {"time": 1590, "pitch": 61, "duration": 12, "velocity": 111}, {"time": 1602, "pitch": 58, "duration": 6, "velocity": 108}, {"time": 1608, "pitch": 61, "duration": 6, "velocity": 105}, {"time": 1614, "pitch": 63, "duration": 24, "velocity": 114}, {"time": 1638, "pitch": 65, "duration": 6, "velocity": 111}, {"time": 1644, "pitch": 68, "duration": 6, "velocity": 108}, {"time": 1650, "pitch": 68, "duration": 6, "velocity": 111}, {"time": 1656, "pitch": 70, "duration": 6, "velocity": 102}, {"time": 1662, "pitch": 73, "duration": 12, "velocity": 94}, {"time": 1674, "pitch": 73, "duration": 6, "velocity": 105}, {"time": 1680, "pitch": 73, "duration": 6, "velocity": 89}, {"time": 1686, "pitch": 70, "duration": 6, "velocity": 111}, {"time": 1692, "pitch": 68, "duration": 6, "velocity": 100}, {"time": 1698, "pitch": 68, "duration": 6, "velocity": 111}, {"time": 1704, "pitch": 65, "duration": 6, "velocity": 108}, {"time": 1710, "pitch": 63, "duration": 24, "velocity": 111}, {"time": 1734, "pitch": 65, "duration": 6, "velocity": 108}, {"time": 1740, "pitch": 68, "duration": 6, "velocity": 97}, {"time": 1746, "pitch": 68, "duration": 6, "velocity": 100}, {"time": 1752, "pitch": 65, "duration": 6, "velocity": 105}, {"time": 1758, "pitch": 70, "duration": 12, "velocity": 92}, {"time": 1770, "pitch": 73, "duration": 12, "velocity": 105}, {"time": 1782, "pitch": 58, "duration": 12, "velocity": 102}, {"time": 1794, "pitch": 65, "duration": 12, "velocity": 108}, {"time": 1806, "pitch": 63, "duration": 12, "velocity": 105}, {"time": 1818, "pitch": 61, "duration": 6, "velocity": 84}, {"time": 1824, "pitch": 63, "duration": 6, "velocity": 92}, {"time": 1830, "pitch": 65, "duration": 6, "velocity": 111}, {"time": 1836, "pitch": 68, "duration": 6, "velocity": 111}, {"time": 1842, "pitch": 68, "duration": 6, "velocity": 92}, {"time": 1848, "pitch": 68, "duration": 6, "velocity": 102}, {"time": 1854, "pitch": 70, "duration": 6, "velocity": 114}, {"time": 1860, "pitch": 68, "duration": 6, "velocity": 111}, {"time": 1866, "pitch": 65, "duration": 6, "velocity": 108}, {"time": 1872, "pitch": 68, "duration": 6, "velocity": 105}, {"time": 1878, "pitch": 70, "duration": 6, "velocity": 87}, {"time": 1884, "pitch": 68, "duration": 6, "velocity": 100}, {"time": 1890, "pitch": 65, "duration": 12, "velocity": 114}, {"time": 1902, "pitch": 72, "duration": 24, "velocity": 108}, {"time": 1926, "pitch": 73, "duration": 6, "velocity": 111}, {"time": 1932, "pitch": 70, "duration": 6, "velocity": 105}, {"time": 1938, "pitch": 68, "duration": 6, "velocity": 102}, {"time": 1944, "pitch": 65, "duration": 6, "velocity": 108}, {"time": 1950, "pitch": 63, "duration": 6, "velocity": 105}, {"time": 1956, "pitch": 68, "duration": 6, "velocity": 100}, {"time": 1962, "pitch": 68, "duration": 6, "velocity": 111}, {"time": 1968, "pitch": 58, "duration": 6, "velocity": 108}, {"time": 1974, "pitch": 56, "duration": 12, "velocity": 111}, {"time": 1986, "pitch": 68, "duration": 6, "velocity": 102}, {"time": 1992, "pitch": 70, "duration": 6, "velocity": 102}, {"time": 1998, "pitch": 65, "duration": 6, "velocity": 97}, {"time": 2004, "pitch": 68, "duration": 6, "velocity": 102}, {"time": 2010, "pitch": 58, "duration": 12, "velocity": 96}, {"time": 2022, "pitch": 61, "duration": 30, "velocity": 92}, {"time": 2598, "pitch": 65, "duration": 6, "velocity": 111}, {"time": 2604, "pitch": 68, "duration": 6, "velocity": 108}, {"time": 2610, "pitch": 68, "duration": 6, "velocity": 108}, {"time": 2616, "pitch": 65, "duration": 6, "velocity": 117}, {"time": 2622, "pitch": 70, "duration": 12, "velocity": 111}, {"time": 2634, "pitch": 68, "duration": 6, "velocity": 105}, {"time": 2640, "pitch": 70, "duration": 6, "velocity": 114}, {"time": 2646, "pitch": 61, "duration": 12, "velocity": 111}, {"time": 2658, "pitch": 58, "duration": 6, "velocity": 108}, {"time": 2664, "pitch": 61, "duration": 6, "velocity": 105}, {"time": 2670, "pitch": 63, "duration": 24, "velocity": 114}, {"time": 2694, "pitch": 65, "duration": 6, "velocity": 111}, {"time": 2700, "pitch": 68, "duration": 6, "velocity": 108}, {"time": 2706, "pitch": 68, "duration": 6, "velocity": 111}, {"time": 2712, "pitch": 70, "duration": 6, "velocity": 102}, {"time": 2718, "pitch": 73, "duration": 12, "velocity": 94}, {"time": 2730, "pitch": 73, "duration": 6, "velocity": 105}, {"time": 2736, "pitch": 73, "duration": 6, "velocity": 89}, {"time": 2742, "pitch": 70, "duration": 6, "velocity": 111}, {"time": 2748, "pitch": 68, "duration": 6, "velocity": 100}, {"time": 2754, "pitch": 68, "duration": 6, "velocity": 111}, {"time": 2760, "pitch": 65, "duration": 6, "velocity": 108}, {"time": 2766, "pitch": 63, "duration": 24, "velocity": 111}, {"time": 2790, "pitch": 65, "duration": 6, "velocity": 108}, {"time": 2796, "pitch": 68, "duration": 6, "velocity": 97}, {"time": 2802, "pitch": 68, "duration": 6, "velocity": 100}, {"time": 2808, "pitch": 65, "duration": 6, "velocity": 105}, {"time": 2814, "pitch": 70, "duration": 12, "velocity": 92}, {"time": 2826, "pitch": 73, "duration": 12, "velocity": 105}, {"time": 2838, "pitch": 58, "duration": 12, "velocity": 102}, {"time": 2850, "pitch": 65, "duration": 12, "velocity": 108}, {"time": 2862, "pitch": 63, "duration": 12, "velocity": 105}, {"time": 2874, "pitch": 61, "duration": 6, "velocity": 84}, {"time": 2880, "pitch": 63, "duration": 6, "velocity": 92}, {"time": 2886, "pitch": 65, "duration": 6, "velocity": 111}, {"time": 2892, "pitch": 68, "duration": 6, "velocity": 111}, {"time": 2898, "pitch": 68, "duration": 6, "velocity": 92}, {"time": 2904, "pitch": 70, "duration": 6, "velocity": 102}, {"time": 2910, "pitch": 73, "duration": 12, "velocity": 87}, {"time": 2922, "pitch": 73, "duration": 6, "velocity": 111}, {"time": 2928, "pitch": 73, "duration": 6, "velocity": 105}, {"time": 2934, "pitch": 70, "duration": 6, "velocity": 89}, {"time": 2940, "pitch": 68, "duration": 6, "velocity": 108}, {"time": 2946, "pitch": 65, "duration": 12, "velocity": 108}, {"time": 2958, "pitch": 68, "duration": 24, "velocity": 111}, {"time": 2982, "pitch": 65, "duration": 6, "velocity": 111}, {"time": 2988, "pitch": 68, "duration": 6, "velocity": 108}, {"time": 2994, "pitch": 68, "duration": 6, "velocity": 108}, {"time": 3000, "pitch": 65, "duration": 6, "velocity": 117}, {"time": 3006, "pitch": 70, "duration": 12, "velocity": 111}, {"time": 3018, "pitch": 68, "duration": 6, "velocity": 105}, {"time": 3024, "pitch": 70, "duration": 6, "velocity": 114}, {"time": 3030, "pitch": 61, "duration": 12, "velocity": 111}, {"time": 3042, "pitch": 58, "duration": 6, "velocity": 108}, {"time": 3048, "pitch": 61, "duration": 6, "velocity": 105}, {"time": 3054, "pitch": 63, "duration": 24, "velocity": 114}, {"time": 3078, "pitch": 65, "duration": 6, "velocity": 111}, {"time": 3084, "pitch": 68, "duration": 6, "velocity": 108}, {"time": 3090, "pitch": 68, "duration": 6, "velocity": 111}, {"time": 3096, "pitch": 70, "duration": 6, "velocity": 102}, {"time": 3102, "pitch": 73, "duration": 12, "velocity": 94}, {"time": 3114, "pitch": 73, "duration": 6, "velocity": 105}, {"time": 3120, "pitch": 73, "duration": 6, "velocity": 89}, {"time": 3126, "pitch": 70, "duration": 6, "velocity": 111}, {"time": 3132, "pitch": 68, "duration": 6, "velocity": 100}, {"time": 3138, "pitch": 68, "duration": 6, "velocity": 111}, {"time": 3144, "pitch": 65, "duration": 6, "velocity": 108}, {"time": 3150, "pitch": 63, "duration": 24, "velocity": 111}, {"time": 3174, "pitch": 65, "duration": 6, "velocity": 108}, {"time": 3180, "pitch": 68, "duration": 6, "velocity": 97}, {"time": 3186, "pitch": 68, "duration": 6, "velocity": 100}, {"time": 3192, "pitch": 65, "duration": 6, "velocity": 105}, {"time": 3198, "pitch": 70, "duration": 12, "velocity": 92}, {"time": 3210, "pitch": 73, "duration": 12, "velocity": 105}, {"time": 3222, "pitch": 58, "duration": 12, "velocity": 102}, {"time": 3234, "pitch": 65, "duration": 12, "velocity": 108}, {"time": 3246, "pitch": 63, "duration": 12, "velocity": 105}, {"time": 3258, "pitch": 61, "duration": 6, "velocity": 84}, {"time": 3264, "pitch": 63, "duration": 6, "velocity": 92}, {"time": 3270, "pitch": 65, "duration": 6, "velocity": 111}, {"time": 3276, "pitch": 68, "duration": 6, "velocity": 111}, {"time": 3282, "pitch": 68, "duration": 6, "velocity": 92}, {"time": 3288, "pitch": 68, "duration": 6, "velocity": 102}, {"time": 3294, "pitch": 70, "duration": 6, "velocity": 114}, {"time": 3300, "pitch": 68, "duration": 6, "velocity": 111}, {"time": 3306, "pitch": 65, "duration": 6, "velocity": 108}, {"time": 3312, "pitch": 68, "duration": 6, "velocity": 105}, {"time": 3318, "pitch": 70, "duration": 6, "velocity": 87}, {"time": 3324, "pitch": 68, "duration": 6, "velocity": 100}, {"time": 3330, "pitch": 65, "duration": 12, "velocity": 114}, {"time": 3342, "pitch": 72, "duration": 24, "velocity": 108}, {"time": 3366, "pitch": 73, "duration": 6, "velocity": 111}, {"time": 3372, "pitch": 70, "duration": 6, "velocity": 105}, {"time": 3378, "pitch": 68, "duration": 6, "velocity": 102}, {"time": 3384, "pitch": 65, "duration": 6, "velocity": 108}, {"time": 3390, "pitch": 63, "duration": 6, "velocity": 105}, {"time": 3396, "pitch": 68, "duration": 6, "velocity": 100}, {"time": 3402, "pitch": 68, "duration": 6, "velocity": 111}, {"time": 3408, "pitch": 58, "duration": 6, "velocity": 108}, {"time": 3414, "pitch": 56, "duration": 12, "velocity": 111}, {"time": 3426, "pitch": 68, "duration": 6, "velocity": 102}, {"time": 3432, "pitch": 70, "duration": 6, "velocity": 102}, {"time": 3438, "pitch": 65, "duration": 6, "velocity": 97}, {"time": 3444, "pitch": 68, "duration": 6, "velocity": 102}, {"time": 3450, "pitch": 58, "duration": 12, "velocity": 96}, {"time": 3462, "pitch": 61, "duration": 48, "velocity": 92}, {"time": 3510, "pitch": 65, "duration": 6, "velocity": 111}, {"time": 3516, "pitch": 68, "duration": 6, "velocity": 108}, {"time": 3522, "pitch": 68, "duration": 6, "velocity": 108}, {"time": 3528, "pitch": 65, "duration": 6, "velocity": 117}, {"time": 3534, "pitch": 70, "duration": 12, "velocity": 111}, {"time": 3546, "pitch": 68, "duration": 6, "velocity": 105}, {"time": 3552, "pitch": 70, "duration": 6, "velocity": 114}, {"time": 3558, "pitch": 61, "duration": 12, "velocity": 111}, {"time": 3570, "pitch": 58, "duration": 6, "velocity": 108}, {"time": 3576, "pitch": 61, "duration": 6, "velocity": 105}, {"time": 3582, "pitch": 63, "duration": 24, "velocity": 114}, {"time": 3606, "pitch": 65, "duration": 6, "velocity": 111}, {"time": 3612, "pitch": 68, "duration": 6, "velocity": 108}, {"time": 3618, "pitch": 68, "duration": 6, "velocity": 111}, {"time": 3624, "pitch": 70, "duration": 6, "velocity": 102}, {"time": 3630, "pitch": 73, "duration": 12, "velocity": 94}, {"time": 3642, "pitch": 73, "duration": 6, "velocity": 105}, {"time": 3648, "pitch": 73, "duration": 6, "velocity": 89}, {"time": 3654, "pitch": 70, "duration": 6, "velocity": 111}, {"time": 3660, "pitch": 68, "duration": 6, "velocity": 100}, {"time": 3666, "pitch": 68, "duration": 6, "velocity": 111}, {"time": 3672, "pitch": 65, "duration": 6, "velocity": 108}, {"time": 3678, "pitch": 63, "duration": 24, "velocity": 111}, {"time": 3702, "pitch": 65, "duration": 6, "velocity": 108}, {"time": 3708, "pitch": 68, "duration": 6, "velocity": 97}, {"time": 3714, "pitch": 68, "duration": 6, "velocity": 100}, {"time": 3720, "pitch": 65, "duration": 6, "velocity": 105}, {"time": 3726, "pitch": 70, "duration": 12, "velocity": 92}, {"time": 3738, "pitch": 73, "duration": 12, "velocity": 105}, {"time": 3750, "pitch": 58, "duration": 12, "velocity": 102}, {"time": 3762, "pitch": 65, "duration": 12, "velocity": 108}, {"time": 3774, "pitch": 63, "duration": 12, "velocity": 105}, {"time": 3786, "pitch": 61, "duration": 6, "velocity": 84}, {"time": 3792, "pitch": 63, "duration": 6, "velocity": 92}, {"time": 3798, "pitch": 65, "duration": 6, "velocity": 111}, {"time": 3804, "pitch": 68, "duration": 6, "velocity": 111}, {"time": 3810, "pitch": 68, "duration": 6, "velocity": 92}, {"time": 3816, "pitch": 70, "duration": 6, "velocity": 102}, {"time": 3822, "pitch": 73, "duration": 12, "velocity": 87}, {"time": 3834, "pitch": 73, "duration": 6, "velocity": 111}, {"time": 3840, "pitch": 73, "duration": 6, "velocity": 105}, {"time": 3846, "pitch": 70, "duration": 6, "velocity": 89}, {"time": 3852, "pitch": 68, "duration": 6, "velocity": 108}, {"time": 3858, "pitch": 65, "duration": 12, "velocity": 108}, {"time": 3870, "pitch": 68, "duration": 24, "velocity": 111}, {"time": 3894, "pitch": 65, "duration": 6, "velocity": 111}, {"time": 3900, "pitch": 68, "duration": 6, "velocity": 108}, {"time": 3906, "pitch": 68, "duration": 6, "velocity": 108}, {"time": 3912, "pitch": 65, "duration": 6, "velocity": 117}, {"time": 3918, "pitch": 70, "duration": 12, "velocity": 111}, {"time": 3930, "pitch": 68, "duration": 6, "velocity": 105}, {"time": 3936, "pitch": 70, "duration": 6, "velocity": 114}, {"time": 3942, "pitch": 61, "duration": 12, "velocity": 111}, {"time": 3954, "pitch": 58, "duration": 6, "velocity": 108}, {"time": 3960, "pitch": 61, "duration": 6, "velocity": 105}, {"time": 3966, "pitch": 63, "duration": 24, "velocity": 114}, {"time": 3990, "pitch": 65, "duration": 6, "velocity": 111}, {"time": 3996, "pitch": 68, "duration": 6, "velocity": 108}, {"time": 4002, "pitch": 68, "duration": 6, "velocity": 111}, {"time": 4008, "pitch": 70, "duration": 6, "velocity": 102}, {"time": 4014, "pitch": 73, "duration": 12, "velocity": 94}, {"time": 4026, "pitch": 73, "duration": 6, "velocity": 105}, {"time": 4032, "pitch": 73, "duration": 6, "velocity": 89}, {"time": 4038, "pitch": 70, "duration": 6, "velocity": 111}, {"time": 4044, "pitch": 68, "duration": 6, "velocity": 100}, {"time": 4050, "pitch": 68, "duration": 6, "velocity": 111}, {"time": 4056, "pitch": 65, "duration": 6, "velocity": 108}, {"time": 4062, "pitch": 63, "duration": 24, "velocity": 111}, {"time": 4086, "pitch": 65, "duration": 6, "velocity": 108}, {"time": 4092, "pitch": 68, "duration": 6, "velocity": 97}, {"time": 4098, "pitch": 68, "duration": 6, "velocity": 100}, {"time": 4104, "pitch": 65, "duration": 6, "velocity": 105}, {"time": 4110, "pitch": 70, "duration": 12, "velocity": 92}, {"time": 4122, "pitch": 73, "duration": 12, "velocity": 105}, {"time": 4134, "pitch": 58, "duration": 12, "velocity": 102}, {"time": 4146, "pitch": 65, "duration": 12, "velocity": 108}, {"time": 4158, "pitch": 63, "duration": 12, "velocity": 105}, {"time": 4170, "pitch": 61, "duration": 6, "velocity": 84}, {"time": 4176, "pitch": 63, "duration": 6, "velocity": 92}, {"time": 4182, "pitch": 65, "duration": 6, "velocity": 111}, {"time": 4188, "pitch": 68, "duration": 6, "velocity": 111}, {"time": 4194, "pitch": 68, "duration": 6, "velocity": 92}, {"time": 4200, "pitch": 68, "duration": 6, "velocity": 102}, {"time": 4206, "pitch": 70, "duration": 6, "velocity": 114}, {"time": 4212, "pitch": 68, "duration": 6, "velocity": 111}, {"time": 4218, "pitch": 65, "duration": 6, "velocity": 108}, {"time": 4224, "pitch": 68, "duration": 6, "velocity": 105}, {"time": 4230, "pitch": 70, "duration": 6, "velocity": 87}, {"time": 4236, "pitch": 68, "duration": 6, "velocity": 100}, {"time": 4242, "pitch": 65, "duration": 12, "velocity": 114}, {"time": 4254, "pitch": 72, "duration": 24, "velocity": 108}, {"time": 4278, "pitch": 73, "duration": 6, "velocity": 111}, {"time": 4284, "pitch": 70, "duration": 6, "velocity": 105}, {"time": 4290, "pitch": 68, "duration": 6, "velocity": 102}, {"time": 4296, "pitch": 65, "duration": 6, "velocity": 108}, {"time": 4302, "pitch": 63, "duration": 6, "velocity": 105}, {"time": 4308, "pitch": 68, "duration": 6, "velocity": 100}, {"time": 4314, "pitch": 68, "duration": 6, "velocity": 111}, {"time": 4320, "pitch": 58, "duration": 6, "velocity": 108}, {"time": 4326, "pitch": 56, "duration": 12, "velocity": 111}, {"time": 4338, "pitch": 68, "duration": 6, "velocity": 102}, {"time": 4344, "pitch": 70, "duration": 6, "velocity": 102}, {"time": 4350, "pitch": 65, "duration": 6, "velocity": 97}, {"time": 4356, "pitch": 68, "duration": 6, "velocity": 102}, {"time": 4362, "pitch": 58, "duration": 12, "velocity": 96}, {"time": 4374, "pitch": 61, "duration": 30, "velocity": 92}]}, {"program": 0, "is_drum": false, "name": "BRIDGE", "notes": [{"time": 198, "pitch": 68, "duration": 4, "velocity": 120}, {"time": 204, "pitch": 70, "duration": 5, "velocity": 114}, {"time": 210, "pitch": 73, "duration": 5, "velocity": 117}, {"time": 216, "pitch": 68, "duration": 5, "velocity": 111}, {"time": 222, "pitch": 70, "duration": 4, "velocity": 108}, {"time": 228, "pitch": 73, "duration": 5, "velocity": 111}, {"time": 234, "pitch": 68, "duration": 4, "velocity": 114}, {"time": 240, "pitch": 70, "duration": 5, "velocity": 114}, {"time": 246, "pitch": 73, "duration": 4, "velocity": 100}, {"time": 252, "pitch": 68, "duration": 3, "velocity": 111}, {"time": 258, "pitch": 70, "duration": 4, "velocity": 108}, {"time": 264, "pitch": 73, "duration": 8, "velocity": 120}, {"time": 276, "pitch": 77, "duration": 4, "velocity": 114}, {"time": 282, "pitch": 75, "duration": 2, "velocity": 111}, {"time": 285, "pitch": 73, "duration": 2, "velocity": 105}, {"time": 288, "pitch": 70, "duration": 5, "velocity": 114}, {"time": 294, "pitch": 68, "duration": 4, "velocity": 114}, {"time": 300, "pitch": 70, "duration": 4, "velocity": 114}, {"time": 306, "pitch": 73, "duration": 4, "velocity": 108}, {"time": 312, "pitch": 68, "duration": 4, "velocity": 102}, {"time": 318, "pitch": 70, "duration": 4, "velocity": 105}, {"time": 324, "pitch": 73, "duration": 5, "velocity": 105}, {"time": 330, "pitch": 68, "duration": 4, "velocity": 105}, {"time": 336, "pitch": 70, "duration": 5, "velocity": 108}, {"time": 342, "pitch": 73, "duration": 4, "velocity": 108}, {"time": 348, "pitch": 68, "duration": 4, "velocity": 105}, {"time": 354, "pitch": 70, "duration": 4, "velocity": 120}, {"time": 360, "pitch": 80, "duration": 7, "velocity": 117}, {"time": 372, "pitch": 77, "duration": 4, "velocity": 120}, {"time": 378, "pitch": 75, "duration": 2, "velocity": 102}, {"time": 381, "pitch": 73, "duration": 1, "velocity": 97}, {"time": 384, "pitch": 70, "duration": 4, "velocity": 111}, {"time": 390, "pitch": 73, "duration": 12, "velocity": 102}, {"time": 612, "pitch": 85, "duration": 4, "velocity": 111}, {"time": 618, "pitch": 82, "duration": 9, "velocity": 102}, {"time": 774, "pitch": 77, "duration": 4, "velocity": 105}, {"time": 780, "pitch": 80, "duration": 10, "velocity": 111}, {"time": 792, "pitch": 77, "duration": 4, "velocity": 105}, {"time": 798, "pitch": 82, "duration": 10, "velocity": 105}, {"time": 810, "pitch": 80, "duration": 5, "velocity": 114}, {"time": 816, "pitch": 82, "duration": 4, "velocity": 89}, {"time": 822, "pitch": 82, "duration": 4, "velocity": 97}, {"time": 828, "pitch": 85, "duration": 3, "velocity": 94}, {"time": 834, "pitch": 85, "duration": 4, "velocity": 105}, {"time": 840, "pitch": 82, "duration": 4, "velocity": 100}, {"time": 846, "pitch": 80, "duration": 8, "velocity": 97}, {"time": 852, "pitch": 89, "duration": 4, "velocity": 92}, {"time": 858, "pitch": 87, "duration": 3, "velocity": 100}, {"time": 864, "pitch": 82, "duration": 4, "velocity": 100}, {"time": 870, "pitch": 77, "duration": 4, "velocity": 100}, {"time": 876, "pitch": 82, "duration": 3, "velocity": 100}, {"time": 882, "pitch": 80, "duration": 5, "velocity": 94}, {"time": 888, "pitch": 77, "duration": 4, "velocity": 92}, {"time": 900, "pitch": 82, "duration": 4, "velocity": 84}, {"time": 906, "pitch": 80, "duration": 5, "velocity": 108}, {"time": 912, "pitch": 82, "duration": 3, "velocity": 102}, {"time": 918, "pitch": 82, "duration": 4, "velocity": 97}, {"time": 924, "pitch": 82, "duration": 4, "velocity": 100}, {"time": 930, "pitch": 85, "duration": 4, "velocity": 111}, {"time": 936, "pitch": 77, "duration": 4, "velocity": 100}, {"time": 942, "pitch": 80, "duration": 6, "velocity": 97}, {"time": 948, "pitch": 89, "duration": 3, "velocity": 100}, {"time": 953, "pitch": 87, "duration": 2, "velocity": 87}, {"time": 954, "pitch": 75, "duration": 2, "velocity": 87}, {"time": 956, "pitch": 85, "duration": 2, "velocity": 105}, {"time": 957, "pitch": 73, "duration": 2, "velocity": 105}, {"time": 959, "pitch": 82, "duration": 5, "velocity": 105}, {"time": 960, "pitch": 70, "duration": 5, "velocity": 105}, {"time": 965, "pitch": 80, "duration": 10, "velocity": 102}, {"time": 966, "pitch": 68, "duration": 9, "velocity": 102}, {"time": 996, "pitch": 68, "duration": 4, "velocity": 94}, {"time": 1002, "pitch": 70, "duration": 4, "velocity": 108}, {"time": 1008, "pitch": 68, "duration": 4, "velocity": 97}, {"time": 1014, "pitch": 70, "duration": 12, "velocity": 100}, {"time": 1044, "pitch": 70, "duration": 4, "velocity": 105}, {"time": 1050, "pitch": 68, "duration": 4, "velocity": 111}, {"time": 1056, "pitch": 63, "duration": 4, "velocity": 105}, {"time": 1062, "pitch": 65, "duration": 10, "velocity": 105}, {"time": 1110, "pitch": 75, "duration": 4, "velocity": 117}, {"time": 1116, "pitch": 77, "duration": 4, "velocity": 105}, {"time": 1122, "pitch": 75, "duration": 4, "velocity": 100}, {"time": 1128, "pitch": 70, "duration": 5, "velocity": 111}, {"time": 1134, "pitch": 73, "duration": 22, "velocity": 89}, {"time": 1164, "pitch": 77, "duration": 6, "velocity": 100}, {"time": 1170, "pitch": 75, "duration": 7, "velocity": 97}, {"time": 1176, "pitch": 77, "duration": 6, "velocity": 108}, {"time": 1182, "pitch": 82, "duration": 12, "velocity": 100}, {"time": 1194, "pitch": 85, "duration": 10, "velocity": 117}, {"time": 1200, "pitch": 82, "duration": 5, "velocity": 108}, {"time": 1206, "pitch": 85, "duration": 11, "velocity": 100}, {"time": 1218, "pitch": 82, "duration": 4, "velocity": 117}, {"time": 1224, "pitch": 85, "duration": 4, "velocity": 105}, {"time": 1230, "pitch": 87, "duration": 7, "velocity": 102}, {"time": 1242, "pitch": 82, "duration": 10, "velocity": 94}, {"time": 1254, "pitch": 80, "duration": 11, "velocity": 100}, {"time": 1272, "pitch": 77, "duration": 5, "velocity": 105}, {"time": 1278, "pitch": 82, "duration": 13, "velocity": 102}, {"time": 1290, "pitch": 85, "duration": 11, "velocity": 100}, {"time": 1302, "pitch": 75, "duration": 13, "velocity": 111}, {"time": 1320, "pitch": 77, "duration": 5, "velocity": 105}, {"time": 1326, "pitch": 80, "duration": 23, "velocity": 105}, {"time": 1350, "pitch": 85, "duration": 14, "velocity": 108}, {"time": 1368, "pitch": 80, "duration": 4, "velocity": 89}, {"time": 1374, "pitch": 82, "duration": 17, "velocity": 102}, {"time": 1392, "pitch": 80, "duration": 5, "velocity": 92}, {"time": 1398, "pitch": 77, "duration": 18, "velocity": 102}, {"time": 1422, "pitch": 75, "duration": 10, "velocity": 92}, {"time": 1434, "pitch": 77, "duration": 10, "velocity": 89}, {"time": 1452, "pitch": 77, "duration": 6, "velocity": 100}, {"time": 1458, "pitch": 75, "duration": 7, "velocity": 97}, {"time": 1464, "pitch": 77, "duration": 6, "velocity": 108}, {"time": 1470, "pitch": 82, "duration": 12, "velocity": 100}, {"time": 1482, "pitch": 85, "duration": 10, "velocity": 117}, {"time": 1488, "pitch": 82, "duration": 5, "velocity": 108}, {"time": 1494, "pitch": 85, "duration": 11, "velocity": 100}, {"time": 1506, "pitch": 82, "duration": 4, "velocity": 117}, {"time": 1512, "pitch": 85, "duration": 4, "velocity": 105}, {"time": 1518, "pitch": 87, "duration": 7, "velocity": 102}, {"time": 1530, "pitch": 82, "duration": 10, "velocity": 94}, {"time": 1542, "pitch": 80, "duration": 11, "velocity": 100}, {"time": 1560, "pitch": 77, "duration": 5, "velocity": 105}, {"time": 1566, "pitch": 82, "duration": 13, "velocity": 102}, {"time": 1578, "pitch": 85, "duration": 11, "velocity": 100}, {"time": 1590, "pitch": 75, "duration": 13, "velocity": 111}, {"time": 1608, "pitch": 77, "duration": 5, "velocity": 105}, {"time": 1614, "pitch": 80, "duration": 23, "velocity": 105}, {"time": 1638, "pitch": 85, "duration": 14, "velocity": 108}, {"time": 1656, "pitch": 80, "duration": 4, "velocity": 89}, {"time": 1662, "pitch": 82, "duration": 17, "velocity": 102}, {"time": 1680, "pitch": 80, "duration": 5, "velocity": 92}, {"time": 1686, "pitch": 77, "duration": 18, "velocity": 102}, {"time": 1710, "pitch": 75, "duration": 10, "velocity": 92}, {"time": 1716, "pitch": 89, "duration": 4, "velocity": 108}, {"time": 1722, "pitch": 77, "duration": 10, "velocity": 89}, {"time": 1722, "pitch": 87, "duration": 2, "velocity": 105}, {"time": 1725, "pitch": 85, "duration": 2, "velocity": 108}, {"time": 1728, "pitch": 82, "duration": 4, "velocity": 114}, {"time": 1734, "pitch": 80, "duration": 9, "velocity": 111}, {"time": 1740, "pitch": 77, "duration": 6, "velocity": 100}, {"time": 1746, "pitch": 75, "duration": 7, "velocity": 97}, {"time": 1752, "pitch": 77, "duration": 6, "velocity": 108}, {"time": 1758, "pitch": 82, "duration": 12, "velocity": 100}, {"time": 1770, "pitch": 85, "duration": 10, "velocity": 117}, {"time": 1776, "pitch": 82, "duration": 5, "velocity": 108}, {"time": 1782, "pitch": 85, "duration": 11, "velocity": 100}, {"time": 1794, "pitch": 82, "duration": 4, "velocity": 117}, {"time": 1800, "pitch": 85, "duration": 4, "velocity": 105}, {"time": 1806, "pitch": 87, "duration": 7, "velocity": 102}, {"time": 1812, "pitch": 89, "duration": 5, "velocity": 108}, {"time": 1818, "pitch": 82, "duration": 10, "velocity": 94}, {"time": 1818, "pitch": 85, "duration": 4, "velocity": 114}, {"time": 1824, "pitch": 87, "duration": 4, "velocity": 108}, {"time": 1830, "pitch": 80, "duration": 11, "velocity": 100}, {"time": 1830, "pitch": 89, "duration": 11, "velocity": 105}, {"time": 1842, "pitch": 87, "duration": 10, "velocity": 89}, {"time": 1848, "pitch": 77, "duration": 5, "velocity": 105}, {"time": 1854, "pitch": 82, "duration": 13, "velocity": 102}, {"time": 1854, "pitch": 89, "duration": 16, "velocity": 100}, {"time": 1866, "pitch": 85, "duration": 11, "velocity": 100}, {"time": 1878, "pitch": 73, "duration": 13, "velocity": 111}, {"time": 1896, "pitch": 75, "duration": 5, "velocity": 105}, {"time": 2022, "pitch": 68, "duration": 4, "velocity": 120}, {"time": 2028, "pitch": 70, "duration": 5, "velocity": 114}, {"time": 2034, "pitch": 73, "duration": 5, "velocity": 117}, {"time": 2040, "pitch": 68, "duration": 5, "velocity": 111}, {"time": 2046, "pitch": 70, "duration": 4, "velocity": 108}, {"time": 2052, "pitch": 73, "duration": 5, "velocity": 111}, {"time": 2058, "pitch": 68, "duration": 4, "velocity": 114}, {"time": 2064, "pitch": 70, "duration": 5, "velocity": 114}, {"time": 2070, "pitch": 73, "duration": 4, "velocity": 100}, {"time": 2076, "pitch": 68, "duration": 3, "velocity": 111}, {"time": 2082, "pitch": 70, "duration": 4, "velocity": 108}, {"time": 2088, "pitch": 73, "duration": 8, "velocity": 120}, {"time": 2100, "pitch": 77, "duration": 4, "velocity": 114}, {"time": 2106, "pitch": 75, "duration": 2, "velocity": 111}, {"time": 2109, "pitch": 73, "duration": 2, "velocity": 105}, {"time": 2112, "pitch": 70, "duration": 5, "velocity": 114}, {"time": 2118, "pitch": 65, "duration": 5, "velocity": 117}, {"time": 2124, "pitch": 68, "duration": 4, "velocity": 117}, {"time": 2130, "pitch": 68, "duration": 5, "velocity": 117}, {"time": 2136, "pitch": 65, "duration": 4, "velocity": 114}, {"time": 2142, "pitch": 70, "duration": 18, "velocity": 100}, {"time": 2166, "pitch": 58, "duration": 4, "velocity": 108}, {"time": 2172, "pitch": 61, "duration": 4, "velocity": 105}, {"time": 2178, "pitch": 61, "duration": 4, "velocity": 111}, {"time": 2184, "pitch": 58, "duration": 4, "velocity": 108}, {"time": 2190, "pitch": 68, "duration": 6, "velocity": 111}, {"time": 2196, "pitch": 65, "duration": 6, "velocity": 102}, {"time": 2202, "pitch": 63, "duration": 12, "velocity": 92}, {"time": 2214, "pitch": 65, "duration": 6, "velocity": 100}, {"time": 2220, "pitch": 68, "duration": 6, "velocity": 105}, {"time": 2226, "pitch": 68, "duration": 1, "velocity": 114}, {"time": 2232, "pitch": 65, "duration": 6, "velocity": 108}, {"time": 2238, "pitch": 73, "duration": 19, "velocity": 78}, {"time": 2262, "pitch": 70, "duration": 4, "velocity": 105}, {"time": 2268, "pitch": 70, "duration": 5, "velocity": 114}, {"time": 2274, "pitch": 73, "duration": 5, "velocity": 114}, {"time": 2280, "pitch": 65, "duration": 5, "velocity": 111}, {"time": 2286, "pitch": 68, "duration": 21, "velocity": 105}, {"time": 2310, "pitch": 73, "duration": 6, "velocity": 97}, {"time": 2316, "pitch": 70, "duration": 4, "velocity": 105}, {"time": 2322, "pitch": 68, "duration": 4, "velocity": 102}, {"time": 2328, "pitch": 70, "duration": 5, "velocity": 111}, {"time": 2334, "pitch": 73, "duration": 21, "velocity": 111}, {"time": 2340, "pitch": 85, "duration": 4, "velocity": 111}, {"time": 2346, "pitch": 82, "duration": 9, "velocity": 102}, {"time": 2358, "pitch": 70, "duration": 4, "velocity": 108}, {"time": 2364, "pitch": 68, "duration": 5, "velocity": 111}, {"time": 2370, "pitch": 65, "duration": 4, "velocity": 108}, {"time": 2376, "pitch": 68, "duration": 5, "velocity": 108}, {"time": 2382, "pitch": 70, "duration": 20, "velocity": 102}, {"time": 2406, "pitch": 65, "duration": 6, "velocity": 111}, {"time": 2412, "pitch": 68, "duration": 6, "velocity": 114}, {"time": 2418, "pitch": 68, "duration": 6, "velocity": 117}, {"time": 2424, "pitch": 65, "duration": 6, "velocity": 111}, {"time": 2430, "pitch": 73, "duration": 6, "velocity": 111}, {"time": 2436, "pitch": 58, "duration": 6, "velocity": 108}, {"time": 2442, "pitch": 61, "duration": 12, "velocity": 102}, {"time": 2454, "pitch": 75, "duration": 10, "velocity": 123}, {"time": 2466, "pitch": 77, "duration": 10, "velocity": 105}, {"time": 2478, "pitch": 75, "duration": 11, "velocity": 114}, {"time": 2490, "pitch": 70, "duration": 10, "velocity": 117}, {"time": 2502, "pitch": 68, "duration": 4, "velocity": 120}, {"time": 2502, "pitch": 73, "duration": 17, "velocity": 111}, {"time": 2508, "pitch": 70, "duration": 5, "velocity": 114}, {"time": 2514, "pitch": 73, "duration": 5, "velocity": 117}, {"time": 2520, "pitch": 68, "duration": 5, "velocity": 111}, {"time": 2526, "pitch": 70, "duration": 4, "velocity": 108}, {"time": 2532, "pitch": 73, "duration": 5, "velocity": 111}, {"time": 2538, "pitch": 68, "duration": 4, "velocity": 114}, {"time": 2544, "pitch": 70, "duration": 5, "velocity": 114}, {"time": 2550, "pitch": 73, "duration": 4, "velocity": 100}, {"time": 2556, "pitch": 68, "duration": 3, "velocity": 111}, {"time": 2562, "pitch": 70, "duration": 4, "velocity": 108}, {"time": 2568, "pitch": 73, "duration": 8, "velocity": 120}, {"time": 2580, "pitch": 77, "duration": 4, "velocity": 114}, {"time": 2586, "pitch": 75, "duration": 2, "velocity": 111}, {"time": 2589, "pitch": 73, "duration": 2, "velocity": 105}, {"time": 2592, "pitch": 70, "duration": 5, "velocity": 114}, {"time": 2604, "pitch": 77, "duration": 6, "velocity": 100}, {"time": 2610, "pitch": 75, "duration": 7, "velocity": 97}, {"time": 2616, "pitch": 77, "duration": 6, "velocity": 108}, {"time": 2622, "pitch": 82, "duration": 12, "velocity": 100}, {"time": 2634, "pitch": 85, "duration": 10, "velocity": 117}, {"time": 2640, "pitch": 82, "duration": 5, "velocity": 108}, {"time": 2646, "pitch": 85, "duration": 11, "velocity": 100}, {"time": 2658, "pitch": 82, "duration": 4, "velocity": 117}, {"time": 2664, "pitch": 85, "duration": 4, "velocity": 105}, {"time": 2670, "pitch": 87, "duration": 7, "velocity": 102}, {"time": 2682, "pitch": 82, "duration": 10, "velocity": 94}, {"time": 2694, "pitch": 80, "duration": 11, "velocity": 100}, {"time": 2712, "pitch": 77, "duration": 5, "velocity": 105}, {"time": 2718, "pitch": 82, "duration": 13, "velocity": 102}, {"time": 2730, "pitch": 85, "duration": 11, "velocity": 100}, {"time": 2742, "pitch": 75, "duration": 13, "velocity": 111}, {"time": 2760, "pitch": 77, "duration": 5, "velocity": 105}, {"time": 2766, "pitch": 80, "duration": 23, "velocity": 105}, {"time": 2790, "pitch": 85, "duration": 14, "velocity": 108}, {"time": 2808, "pitch": 80, "duration": 4, "velocity": 89}, {"time": 2814, "pitch": 82, "duration": 17, "velocity": 102}, {"time": 2832, "pitch": 80, "duration": 5, "velocity": 92}, {"time": 2838, "pitch": 77, "duration": 18, "velocity": 102}, {"time": 2862, "pitch": 75, "duration": 10, "velocity": 92}, {"time": 2874, "pitch": 77, "duration": 10, "velocity": 89}, {"time": 2892, "pitch": 77, "duration": 6, "velocity": 100}, {"time": 2898, "pitch": 75, "duration": 7, "velocity": 97}, {"time": 2904, "pitch": 77, "duration": 6, "velocity": 108}, {"time": 2910, "pitch": 82, "duration": 12, "velocity": 100}, {"time": 2922, "pitch": 85, "duration": 10, "velocity": 117}, {"time": 2928, "pitch": 82, "duration": 5, "velocity": 108}, {"time": 2934, "pitch": 85, "duration": 11, "velocity": 100}, {"time": 2946, "pitch": 82, "duration": 4, "velocity": 117}, {"time": 2952, "pitch": 85, "duration": 4, "velocity": 105}, {"time": 2958, "pitch": 87, "duration": 7, "velocity": 102}, {"time": 2970, "pitch": 82, "duration": 10, "velocity": 94}, {"time": 2982, "pitch": 80, "duration": 11, "velocity": 100}, {"time": 3000, "pitch": 77, "duration": 5, "velocity": 105}, {"time": 3006, "pitch": 82, "duration": 13, "velocity": 102}, {"time": 3018, "pitch": 85, "duration": 11, "velocity": 100}, {"time": 3030, "pitch": 75, "duration": 13, "velocity": 111}, {"time": 3048, "pitch": 77, "duration": 5, "velocity": 105}, {"time": 3054, "pitch": 80, "duration": 23, "velocity": 105}, {"time": 3078, "pitch": 85, "duration": 14, "velocity": 108}, {"time": 3096, "pitch": 80, "duration": 4, "velocity": 89}, {"time": 3102, "pitch": 82, "duration": 17, "velocity": 102}, {"time": 3120, "pitch": 80, "duration": 5, "velocity": 92}, {"time": 3126, "pitch": 77, "duration": 18, "velocity": 102}, {"time": 3150, "pitch": 75, "duration": 10, "velocity": 92}, {"time": 3156, "pitch": 89, "duration": 4, "velocity": 108}, {"time": 3162, "pitch": 77, "duration": 10, "velocity": 89}, {"time": 3162, "pitch": 87, "duration": 2, "velocity": 105}, {"time": 3165, "pitch": 85, "duration": 2, "velocity": 108}, {"time": 3168, "pitch": 82, "duration": 4, "velocity": 114}, {"time": 3174, "pitch": 80, "duration": 9, "velocity": 111}, {"time": 3180, "pitch": 77, "duration": 6, "velocity": 100}, {"time": 3186, "pitch": 75, "duration": 7, "velocity": 97}, {"time": 3192, "pitch": 77, "duration": 6, "velocity": 108}, {"time": 3198, "pitch": 82, "duration": 12, "velocity": 100}, {"time": 3210, "pitch": 85, "duration": 10, "velocity": 117}, {"time": 3216, "pitch": 82, "duration": 5, "velocity": 108}, {"time": 3222, "pitch": 85, "duration": 11, "velocity": 100}, {"time": 3234, "pitch": 82, "duration": 4, "velocity": 117}, {"time": 3240, "pitch": 85, "duration": 4, "velocity": 105}, {"time": 3246, "pitch": 87, "duration": 7, "velocity": 102}, {"time": 3252, "pitch": 89, "duration": 5, "velocity": 108}, {"time": 3258, "pitch": 82, "duration": 10, "velocity": 94}, {"time": 3258, "pitch": 85, "duration": 4, "velocity": 114}, {"time": 3264, "pitch": 87, "duration": 4, "velocity": 108}, {"time": 3270, "pitch": 80, "duration": 11, "velocity": 100}, {"time": 3270, "pitch": 89, "duration": 11, "velocity": 105}, {"time": 3282, "pitch": 87, "duration": 10, "velocity": 89}, {"time": 3288, "pitch": 77, "duration": 5, "velocity": 105}, {"time": 3294, "pitch": 82, "duration": 13, "velocity": 102}, {"time": 3294, "pitch": 89, "duration": 16, "velocity": 100}, {"time": 3306, "pitch": 85, "duration": 11, "velocity": 100}, {"time": 3318, "pitch": 73, "duration": 13, "velocity": 111}, {"time": 3336, "pitch": 75, "duration": 5, "velocity": 105}, {"time": 3486, "pitch": 68, "duration": 4, "velocity": 123}, {"time": 3492, "pitch": 70, "duration": 5, "velocity": 114}, {"time": 3498, "pitch": 73, "duration": 5, "velocity": 120}, {"time": 3504, "pitch": 70, "duration": 6, "velocity": 111}, {"time": 3510, "pitch": 68, "duration": 7, "velocity": 84}, {"time": 3516, "pitch": 77, "duration": 6, "velocity": 100}, {"time": 3522, "pitch": 75, "duration": 7, "velocity": 97}, {"time": 3528, "pitch": 77, "duration": 6, "velocity": 108}, {"time": 3534, "pitch": 82, "duration": 12, "velocity": 100}, {"time": 3546, "pitch": 85, "duration": 10, "velocity": 117}, {"time": 3552, "pitch": 82, "duration": 5, "velocity": 108}, {"time": 3558, "pitch": 85, "duration": 11, "velocity": 100}, {"time": 3570, "pitch": 82, "duration": 4, "velocity": 117}, {"time": 3576, "pitch": 85, "duration": 4, "velocity": 105}, {"time": 3582, "pitch": 87, "duration": 7, "velocity": 102}, {"time": 3594, "pitch": 82, "duration": 10, "velocity": 94}, {"time": 3606, "pitch": 80, "duration": 11, "velocity": 100}, {"time": 3624, "pitch": 77, "duration": 5, "velocity": 105}, {"time": 3630, "pitch": 82, "duration": 13, "velocity": 102}, {"time": 3642, "pitch": 85, "duration": 11, "velocity": 100}, {"time": 3654, "pitch": 75, "duration": 13, "velocity": 111}, {"time": 3672, "pitch": 77, "duration": 5, "velocity": 105}, {"time": 3678, "pitch": 80, "duration": 23, "velocity": 105}, {"time": 3702, "pitch": 85, "duration": 14, "velocity": 108}, {"time": 3720, "pitch": 80, "duration": 4, "velocity": 89}, {"time": 3726, "pitch": 82, "duration": 17, "velocity": 102}, {"time": 3744, "pitch": 80, "duration": 5, "velocity": 92}, {"time": 3750, "pitch": 77, "duration": 18, "velocity": 102}, {"time": 3774, "pitch": 75, "duration": 10, "velocity": 92}, {"time": 3786, "pitch": 77, "duration": 10, "velocity": 89}, {"time": 3804, "pitch": 77, "duration": 6, "velocity": 100}, {"time": 3810, "pitch": 75, "duration": 7, "velocity": 97}, {"time": 3816, "pitch": 77, "duration": 6, "velocity": 108}, {"time": 3822, "pitch": 82, "duration": 12, "velocity": 100}, {"time": 3834, "pitch": 85, "duration": 10, "velocity": 117}, {"time": 3840, "pitch": 82, "duration": 5, "velocity": 108}, {"time": 3846, "pitch": 85, "duration": 11, "velocity": 100}, {"time": 3858, "pitch": 82, "duration": 4, "velocity": 117}, {"time": 3864, "pitch": 85, "duration": 4, "velocity": 105}, {"time": 3870, "pitch": 87, "duration": 7, "velocity": 102}, {"time": 3882, "pitch": 82, "duration": 10, "velocity": 94}, {"time": 3894, "pitch": 80, "duration": 11, "velocity": 100}, {"time": 3912, "pitch": 77, "duration": 5, "velocity": 105}, {"time": 3918, "pitch": 82, "duration": 13, "velocity": 102}, {"time": 3930, "pitch": 85, "duration": 11, "velocity": 100}, {"time": 3942, "pitch": 75, "duration": 13, "velocity": 111}, {"time": 3960, "pitch": 77, "duration": 5, "velocity": 105}, {"time": 3966, "pitch": 80, "duration": 23, "velocity": 105}, {"time": 3990, "pitch": 85, "duration": 14, "velocity": 108}, {"time": 4008, "pitch": 80, "duration": 4, "velocity": 89}, {"time": 4014, "pitch": 82, "duration": 17, "velocity": 102}, {"time": 4032, "pitch": 80, "duration": 5, "velocity": 92}, {"time": 4038, "pitch": 77, "duration": 18, "velocity": 102}, {"time": 4062, "pitch": 75, "duration": 10, "velocity": 92}, {"time": 4068, "pitch": 89, "duration": 4, "velocity": 108}, {"time": 4074, "pitch": 77, "duration": 10, "velocity": 89}, {"time": 4074, "pitch": 87, "duration": 2, "velocity": 105}, {"time": 4077, "pitch": 85, "duration": 2, "velocity": 108}, {"time": 4080, "pitch": 82, "duration": 4, "velocity": 114}, {"time": 4086, "pitch": 80, "duration": 9, "velocity": 111}, {"time": 4092, "pitch": 77, "duration": 6, "velocity": 100}, {"time": 4098, "pitch": 75, "duration": 7, "velocity": 97}, {"time": 4104, "pitch": 77, "duration": 6, "velocity": 108}, {"time": 4110, "pitch": 82, "duration": 12, "velocity": 100}, {"time": 4122, "pitch": 85, "duration": 10, "velocity": 117}, {"time": 4128, "pitch": 82, "duration": 5, "velocity": 108}, {"time": 4134, "pitch": 85, "duration": 11, "velocity": 100}, {"time": 4146, "pitch": 82, "duration": 4, "velocity": 117}, {"time": 4152, "pitch": 85, "duration": 4, "velocity": 105}, {"time": 4158, "pitch": 87, "duration": 7, "velocity": 102}, {"time": 4164, "pitch": 89, "duration": 5, "velocity": 108}, {"time": 4170, "pitch": 82, "duration": 10, "velocity": 94}, {"time": 4170, "pitch": 85, "duration": 4, "velocity": 114}, {"time": 4176, "pitch": 87, "duration": 4, "velocity": 108}, {"time": 4182, "pitch": 80, "duration": 11, "velocity": 100}, {"time": 4182, "pitch": 89, "duration": 11, "velocity": 105}, {"time": 4194, "pitch": 87, "duration": 10, "velocity": 89}, {"time": 4200, "pitch": 77, "duration": 5, "velocity": 105}, {"time": 4206, "pitch": 82, "duration": 13, "velocity": 102}, {"time": 4206, "pitch": 89, "duration": 16, "velocity": 100}, {"time": 4218, "pitch": 85, "duration": 11, "velocity": 100}, {"time": 4230, "pitch": 73, "duration": 13, "velocity": 111}, {"time": 4248, "pitch": 75, "duration": 5, "velocity": 105}, {"time": 4374, "pitch": 68, "duration": 4, "velocity": 120}, {"time": 4380, "pitch": 70, "duration": 5, "velocity": 114}, {"time": 4386, "pitch": 73, "duration": 5, "velocity": 117}, {"time": 4392, "pitch": 68, "duration": 5, "velocity": 111}, {"time": 4398, "pitch": 70, "duration": 4, "velocity": 108}, {"time": 4404, "pitch": 73, "duration": 5, "velocity": 111}, {"time": 4410, "pitch": 68, "duration": 4, "velocity": 114}, {"time": 4416, "pitch": 70, "duration": 5, "velocity": 114}, {"time": 4422, "pitch": 73, "duration": 4, "velocity": 100}, {"time": 4428, "pitch": 68, "duration": 3, "velocity": 111}, {"time": 4434, "pitch": 70, "duration": 4, "velocity": 108}, {"time": 4440, "pitch": 73, "duration": 8, "velocity": 120}, {"time": 4452, "pitch": 77, "duration": 4, "velocity": 114}, {"time": 4458, "pitch": 75, "duration": 2, "velocity": 111}, {"time": 4461, "pitch": 73, "duration": 2, "velocity": 105}, {"time": 4464, "pitch": 70, "duration": 5, "velocity": 114}, {"time": 4470, "pitch": 68, "duration": 4, "velocity": 114}, {"time": 4476, "pitch": 70, "duration": 4, "velocity": 114}, {"time": 4482, "pitch": 73, "duration": 4, "velocity": 108}, {"time": 4488, "pitch": 68, "duration": 4, "velocity": 102}, {"time": 4494, "pitch": 70, "duration": 4, "velocity": 105}, {"time": 4500, "pitch": 73, "duration": 5, "velocity": 105}, {"time": 4506, "pitch": 68, "duration": 4, "velocity": 105}, {"time": 4512, "pitch": 70, "duration": 5, "velocity": 108}, {"time": 4518, "pitch": 73, "duration": 4, "velocity": 108}, {"time": 4524, "pitch": 68, "duration": 4, "velocity": 105}, {"time": 4530, "pitch": 70, "duration": 4, "velocity": 120}, {"time": 4536, "pitch": 80, "duration": 7, "velocity": 117}, {"time": 4548, "pitch": 77, "duration": 4, "velocity": 120}, {"time": 4554, "pitch": 75, "duration": 2, "velocity": 102}, {"time": 4557, "pitch": 73, "duration": 1, "velocity": 97}, {"time": 4560, "pitch": 70, "duration": 4, "velocity": 111}, {"time": 4566, "pitch": 73, "duration": 72, "velocity": 102}]}, {"program": 0, "is_drum": false, "name": "PIANO", "notes": [{"time": 6, "pitch": 49, "duration": 39, "velocity": 100}, {"time": 12, "pitch": 56, "duration": 8, "velocity": 60}, {"time": 18, "pitch": 61, "duration": 22, "velocity": 97}, {"time": 24, "pitch": 56, "duration": 18, "velocity": 43}, {"time": 30, "pitch": 65, "duration": 9, "velocity": 66}, {"time": 42, "pitch": 65, "duration": 6, "velocity": 100}, {"time": 42, "pitch": 68, "duration": 7, "velocity": 94}, {"time": 48, "pitch": 61, "duration": 2, "velocity": 67}, {"time": 54, "pitch": 42, "duration": 17, "velocity": 84}, {"time": 54, "pitch": 54, "duration": 13, "velocity": 67}, {"time": 54, "pitch": 58, "duration": 8, "velocity": 82}, {"time": 60, "pitch": 49, "duration": 11, "velocity": 66}, {"time": 66, "pitch": 58, "duration": 5, "velocity": 105}, {"time": 66, "pitch": 61, "duration": 8, "velocity": 89}, {"time": 72, "pitch": 54, "duration": 2, "velocity": 19}, {"time": 78, "pitch": 44, "duration": 21, "velocity": 89}, {"time": 78, "pitch": 56, "duration": 7, "velocity": 60}, {"time": 78, "pitch": 60, "duration": 13, "velocity": 66}, {"time": 84, "pitch": 51, "duration": 8, "velocity": 40}, {"time": 90, "pitch": 56, "duration": 10, "velocity": 84}, {"time": 96, "pitch": 60, "duration": 3, "velocity": 108}, {"time": 102, "pitch": 49, "duration": 42, "velocity": 89}, {"time": 102, "pitch": 56, "duration": 8, "velocity": 80}, {"time": 102, "pitch": 61, "duration": 13, "velocity": 87}, {"time": 108, "pitch": 53, "duration": 35, "velocity": 45}, {"time": 114, "pitch": 56, "duration": 10, "velocity": 97}, {"time": 120, "pitch": 63, "duration": 4, "velocity": 62}, {"time": 126, "pitch": 65, "duration": 9, "velocity": 100}, {"time": 132, "pitch": 56, "duration": 3, "velocity": 73}, {"time": 138, "pitch": 56, "duration": 2, "velocity": 80}, {"time": 138, "pitch": 61, "duration": 5, "velocity": 108}, {"time": 144, "pitch": 56, "duration": 2, "velocity": 92}, {"time": 150, "pitch": 42, "duration": 17, "velocity": 92}, {"time": 150, "pitch": 54, "duration": 13, "velocity": 82}, {"time": 150, "pitch": 58, "duration": 7, "velocity": 92}, {"time": 156, "pitch": 49, "duration": 11, "velocity": 62}, {"time": 162, "pitch": 58, "duration": 7, "velocity": 92}, {"time": 162, "pitch": 61, "duration": 9, "velocity": 89}, {"time": 168, "pitch": 54, "duration": 3, "velocity": 82}, {"time": 174, "pitch": 44, "duration": 19, "velocity": 97}, {"time": 174, "pitch": 56, "duration": 11, "velocity": 80}, {"time": 174, "pitch": 60, "duration": 7, "velocity": 92}, {"time": 180, "pitch": 51, "duration": 12, "velocity": 67}, {"time": 186, "pitch": 60, "duration": 6, "velocity": 105}, {"time": 186, "pitch": 63, "duration": 10, "velocity": 94}, {"time": 192, "pitch": 56, "duration": 7, "velocity": 92}, {"time": 198, "pitch": 49, "duration": 42, "velocity": 97}, {"time": 198, "pitch": 61, "duration": 14, "velocity": 97}, {"time": 204, "pitch": 53, "duration": 9, "velocity": 38}, {"time": 210, "pitch": 56, "duration": 14, "velocity": 105}, {"time": 216, "pitch": 53, "duration": 8, "velocity": 26}, {"time": 222, "pitch": 65, "duration": 13, "velocity": 97}, {"time": 228, "pitch": 53, "duration": 11, "velocity": 40}, {"time": 234, "pitch": 61, "duration": 6, "velocity": 97}, {"time": 240, "pitch": 56, "duration": 3, "velocity": 102}, {"time": 246, "pitch": 42, "duration": 17, "velocity": 89}, {"time": 246, "pitch": 54, "duration": 7, "velocity": 78}, {"time": 246, "pitch": 58, "duration": 13, "velocity": 89}, {"time": 252, "pitch": 49, "duration": 12, "velocity": 44}, {"time": 258, "pitch": 54, "duration": 7, "velocity": 97}, {"time": 264, "pitch": 58, "duration": 5, "velocity": 78}, {"time": 270, "pitch": 44, "duration": 17, "velocity": 102}, {"time": 270, "pitch": 56, "duration": 9, "velocity": 87}, {"time": 270, "pitch": 60, "duration": 8, "velocity": 89}, {"time": 276, "pitch": 51, "duration": 11, "velocity": 58}, {"time": 282, "pitch": 56, "duration": 4, "velocity": 82}, {"time": 282, "pitch": 60, "duration": 3, "velocity": 92}, {"time": 294, "pitch": 49, "duration": 43, "velocity": 89}, {"time": 294, "pitch": 61, "duration": 13, "velocity": 89}, {"time": 294, "pitch": 65, "duration": 17, "velocity": 89}, {"time": 300, "pitch": 53, "duration": 36, "velocity": 57}, {"time": 306, "pitch": 56, "duration": 13, "velocity": 89}, {"time": 312, "pitch": 61, "duration": 7, "velocity": 76}, {"time": 318, "pitch": 65, "duration": 12, "velocity": 94}, {"time": 324, "pitch": 56, "duration": 4, "velocity": 34}, {"time": 330, "pitch": 56, "duration": 2, "velocity": 87}, {"time": 330, "pitch": 61, "duration": 7, "velocity": 100}, {"time": 336, "pitch": 56, "duration": 4, "velocity": 78}, {"time": 342, "pitch": 42, "duration": 19, "velocity": 82}, {"time": 342, "pitch": 58, "duration": 10, "velocity": 80}, {"time": 342, "pitch": 61, "duration": 6, "velocity": 78}, {"time": 348, "pitch": 54, "duration": 7, "velocity": 100}, {"time": 354, "pitch": 61, "duration": 8, "velocity": 92}, {"time": 360, "pitch": 54, "duration": 3, "velocity": 80}, {"time": 366, "pitch": 44, "duration": 23, "velocity": 76}, {"time": 366, "pitch": 56, "duration": 12, "velocity": 76}, {"time": 366, "pitch": 60, "duration": 13, "velocity": 87}, {"time": 372, "pitch": 51, "duration": 17, "velocity": 80}, {"time": 378, "pitch": 63, "duration": 11, "velocity": 92}, {"time": 384, "pitch": 56, "duration": 5, "velocity": 94}, {"time": 388, "pitch": 61, "duration": 16, "velocity": 67}, {"time": 389, "pitch": 65, "duration": 14, "velocity": 78}, {"time": 389, "pitch": 49, "duration": 19, "velocity": 102}, {"time": 390, "pitch": 68, "duration": 12, "velocity": 87}, {"time": 396, "pitch": 56, "duration": 11, "velocity": 49}, {"time": 411, "pitch": 58, "duration": 10, "velocity": 62}, {"time": 413, "pitch": 61, "duration": 8, "velocity": 80}, {"time": 413, "pitch": 46, "duration": 18, "velocity": 92}, {"time": 414, "pitch": 65, "duration": 6, "velocity": 84}, {"time": 419, "pitch": 53, "duration": 11, "velocity": 37}, {"time": 426, "pitch": 65, "duration": 3, "velocity": 82}, {"time": 426, "pitch": 58, "duration": 4, "velocity": 71}, {"time": 426, "pitch": 61, "duration": 3, "velocity": 62}, {"time": 436, "pitch": 54, "duration": 9, "velocity": 40}, {"time": 437, "pitch": 58, "duration": 13, "velocity": 87}, {"time": 438, "pitch": 42, "duration": 19, "velocity": 92}, {"time": 438, "pitch": 61, "duration": 12, "velocity": 73}, {"time": 444, "pitch": 49, "duration": 12, "velocity": 40}, {"time": 450, "pitch": 54, "duration": 7, "velocity": 82}, {"time": 456, "pitch": 58, "duration": 4, "velocity": 87}, {"time": 461, "pitch": 56, "duration": 10, "velocity": 78}, {"time": 461, "pitch": 44, "duration": 18, "velocity": 92}, {"time": 462, "pitch": 60, "duration": 6, "velocity": 71}, {"time": 467, "pitch": 51, "duration": 11, "velocity": 66}, {"time": 473, "pitch": 60, "duration": 4, "velocity": 87}, {"time": 473, "pitch": 56, "duration": 4, "velocity": 82}, {"time": 473, "pitch": 63, "duration": 4, "velocity": 78}, {"time": 484, "pitch": 56, "duration": 14, "velocity": 57}, {"time": 485, "pitch": 61, "duration": 21, "velocity": 82}, {"time": 485, "pitch": 49, "duration": 21, "velocity": 89}, {"time": 486, "pitch": 65, "duration": 19, "velocity": 82}, {"time": 504, "pitch": 56, "duration": 2, "velocity": 92}, {"time": 509, "pitch": 58, "duration": 8, "velocity": 87}, {"time": 509, "pitch": 46, "duration": 15, "velocity": 92}, {"time": 510, "pitch": 61, "duration": 12, "velocity": 84}, {"time": 511, "pitch": 65, "duration": 11, "velocity": 94}, {"time": 515, "pitch": 53, "duration": 8, "velocity": 69}, {"time": 522, "pitch": 58, "duration": 2, "velocity": 105}, {"time": 532, "pitch": 54, "duration": 10, "velocity": 69}, {"time": 533, "pitch": 58, "duration": 14, "velocity": 84}, {"time": 534, "pitch": 42, "duration": 20, "velocity": 89}, {"time": 534, "pitch": 61, "duration": 13, "velocity": 92}, {"time": 539, "pitch": 49, "duration": 16, "velocity": 49}, {"time": 546, "pitch": 54, "duration": 7, "velocity": 82}, {"time": 552, "pitch": 58, "duration": 3, "velocity": 102}, {"time": 557, "pitch": 56, "duration": 10, "velocity": 66}, {"time": 558, "pitch": 60, "duration": 9, "velocity": 108}, {"time": 558, "pitch": 44, "duration": 19, "velocity": 97}, {"time": 563, "pitch": 51, "duration": 13, "velocity": 62}, {"time": 569, "pitch": 63, "duration": 5, "velocity": 84}, {"time": 569, "pitch": 60, "duration": 4, "velocity": 102}, {"time": 570, "pitch": 56, "duration": 4, "velocity": 87}, {"time": 582, "pitch": 49, "duration": 42, "velocity": 100}, {"time": 582, "pitch": 61, "duration": 8, "velocity": 76}, {"time": 582, "pitch": 65, "duration": 12, "velocity": 92}, {"time": 588, "pitch": 56, "duration": 8, "velocity": 71}, {"time": 594, "pitch": 61, "duration": 9, "velocity": 111}, {"time": 600, "pitch": 56, "duration": 8, "velocity": 44}, {"time": 606, "pitch": 65, "duration": 5, "velocity": 71}, {"time": 606, "pitch": 68, "duration": 5, "velocity": 80}, {"time": 612, "pitch": 56, "duration": 10, "velocity": 41}, {"time": 618, "pitch": 61, "duration": 2, "velocity": 92}, {"time": 618, "pitch": 65, "duration": 3, "velocity": 102}, {"time": 618, "pitch": 68, "duration": 5, "velocity": 94}, {"time": 630, "pitch": 46, "duration": 43, "velocity": 94}, {"time": 630, "pitch": 58, "duration": 8, "velocity": 76}, {"time": 630, "pitch": 61, "duration": 12, "velocity": 76}, {"time": 636, "pitch": 53, "duration": 7, "velocity": 53}, {"time": 642, "pitch": 58, "duration": 12, "velocity": 111}, {"time": 648, "pitch": 53, "duration": 7, "velocity": 44}, {"time": 654, "pitch": 61, "duration": 3, "velocity": 57}, {"time": 654, "pitch": 65, "duration": 3, "velocity": 87}, {"time": 660, "pitch": 53, "duration": 12, "velocity": 34}, {"time": 666, "pitch": 58, "duration": 3, "velocity": 97}, {"time": 666, "pitch": 61, "duration": 3, "velocity": 94}, {"time": 666, "pitch": 65, "duration": 6, "velocity": 89}, {"time": 672, "pitch": 56, "duration": 3, "velocity": 82}, {"time": 678, "pitch": 42, "duration": 40, "velocity": 94}, {"time": 678, "pitch": 54, "duration": 13, "velocity": 87}, {"time": 678, "pitch": 58, "duration": 8, "velocity": 94}, {"time": 684, "pitch": 49, "duration": 33, "velocity": 48}, {"time": 690, "pitch": 58, "duration": 19, "velocity": 105}, {"time": 690, "pitch": 61, "duration": 19, "velocity": 94}, {"time": 696, "pitch": 54, "duration": 7, "velocity": 44}, {"time": 702, "pitch": 66, "duration": 7, "velocity": 84}, {"time": 708, "pitch": 54, "duration": 7, "velocity": 100}, {"time": 714, "pitch": 58, "duration": 6, "velocity": 111}, {"time": 714, "pitch": 61, "duration": 10, "velocity": 100}, {"time": 720, "pitch": 54, "duration": 2, "velocity": 108}, {"time": 726, "pitch": 44, "duration": 38, "velocity": 94}, {"time": 726, "pitch": 56, "duration": 13, "velocity": 92}, {"time": 726, "pitch": 60, "duration": 31, "velocity": 92}, {"time": 732, "pitch": 51, "duration": 32, "velocity": 46}, {"time": 738, "pitch": 63, "duration": 19, "velocity": 94}, {"time": 744, "pitch": 56, "duration": 7, "velocity": 64}, {"time": 750, "pitch": 68, "duration": 8, "velocity": 94}, {"time": 756, "pitch": 56, "duration": 7, "velocity": 73}, {"time": 762, "pitch": 60, "duration": 5, "velocity": 111}, {"time": 762, "pitch": 63, "duration": 7, "velocity": 97}, {"time": 762, "pitch": 68, "duration": 9, "velocity": 94}, {"time": 768, "pitch": 56, "duration": 2, "velocity": 102}, {"time": 774, "pitch": 49, "duration": 15, "velocity": 97}, {"time": 774, "pitch": 61, "duration": 9, "velocity": 92}, {"time": 774, "pitch": 65, "duration": 7, "velocity": 100}, {"time": 780, "pitch": 56, "duration": 8, "velocity": 66}, {"time": 786, "pitch": 61, "duration": 2, "velocity": 102}, {"time": 786, "pitch": 65, "duration": 5, "velocity": 111}, {"time": 786, "pitch": 68, "duration": 6, "velocity": 100}, {"time": 792, "pitch": 61, "duration": 2, "velocity": 92}, {"time": 798, "pitch": 46, "duration": 16, "velocity": 92}, {"time": 798, "pitch": 58, "duration": 10, "velocity": 80}, {"time": 798, "pitch": 61, "duration": 7, "velocity": 80}, {"time": 804, "pitch": 53, "duration": 8, "velocity": 62}, {"time": 810, "pitch": 61, "duration": 3, "velocity": 105}, {"time": 810, "pitch": 65, "duration": 2, "velocity": 105}, {"time": 813, "pitch": 65, "duration": 2, "velocity": 4}, {"time": 816, "pitch": 58, "duration": 2, "velocity": 94}, {"time": 822, "pitch": 42, "duration": 18, "velocity": 92}, {"time": 822, "pitch": 54, "duration": 10, "velocity": 87}, {"time": 822, "pitch": 58, "duration": 8, "velocity": 94}, {"time": 828, "pitch": 49, "duration": 10, "velocity": 67}, {"time": 834, "pitch": 58, "duration": 7, "velocity": 105}, {"time": 834, "pitch": 61, "duration": 7, "velocity": 97}, {"time": 840, "pitch": 54, "duration": 3, "velocity": 102}, {"time": 846, "pitch": 44, "duration": 15, "velocity": 97}, {"time": 846, "pitch": 56, "duration": 8, "velocity": 84}, {"time": 846, "pitch": 60, "duration": 7, "velocity": 89}, {"time": 852, "pitch": 51, "duration": 10, "velocity": 53}, {"time": 858, "pitch": 56, "duration": 3, "velocity": 97}, {"time": 858, "pitch": 60, "duration": 6, "velocity": 114}, {"time": 858, "pitch": 63, "duration": 6, "velocity": 100}, {"time": 864, "pitch": 44, "duration": 5, "velocity": 94}, {"time": 864, "pitch": 56, "duration": 4, "velocity": 111}, {"time": 870, "pitch": 49, "duration": 18, "velocity": 87}, {"time": 870, "pitch": 56, "duration": 3, "velocity": 84}, {"time": 870, "pitch": 61, "duration": 7, "velocity": 94}, {"time": 876, "pitch": 56, "duration": 8, "velocity": 92}, {"time": 882, "pitch": 61, "duration": 7, "velocity": 105}, {"time": 882, "pitch": 65, "duration": 7, "velocity": 111}, {"time": 888, "pitch": 56, "duration": 3, "velocity": 94}, {"time": 894, "pitch": 46, "duration": 18, "velocity": 94}, {"time": 894, "pitch": 58, "duration": 9, "velocity": 87}, {"time": 894, "pitch": 61, "duration": 7, "velocity": 82}, {"time": 900, "pitch": 53, "duration": 11, "velocity": 67}, {"time": 906, "pitch": 58, "duration": 2, "velocity": 102}, {"time": 906, "pitch": 61, "duration": 6, "velocity": 111}, {"time": 906, "pitch": 65, "duration": 7, "velocity": 100}, {"time": 912, "pitch": 58, "duration": 2, "velocity": 92}, {"time": 918, "pitch": 42, "duration": 15, "velocity": 92}, {"time": 918, "pitch": 54, "duration": 10, "velocity": 87}, {"time": 918, "pitch": 58, "duration": 8, "velocity": 94}, {"time": 924, "pitch": 49, "duration": 9, "velocity": 53}, {"time": 930, "pitch": 54, "duration": 5, "velocity": 94}, {"time": 930, "pitch": 58, "duration": 5, "velocity": 108}, {"time": 930, "pitch": 61, "duration": 6, "velocity": 100}, {"time": 936, "pitch": 42, "duration": 4, "velocity": 97}, {"time": 942, "pitch": 44, "duration": 15, "velocity": 100}, {"time": 942, "pitch": 56, "duration": 8, "velocity": 80}, {"time": 942, "pitch": 60, "duration": 8, "velocity": 92}, {"time": 948, "pitch": 51, "duration": 9, "velocity": 82}, {"time": 954, "pitch": 56, "duration": 6, "velocity": 97}, {"time": 954, "pitch": 60, "duration": 6, "velocity": 117}, {"time": 954, "pitch": 63, "duration": 6, "velocity": 105}, {"time": 960, "pitch": 44, "duration": 5, "velocity": 100}, {"time": 966, "pitch": 49, "duration": 39, "velocity": 102}, {"time": 966, "pitch": 61, "duration": 7, "velocity": 89}, {"time": 966, "pitch": 65, "duration": 7, "velocity": 92}, {"time": 972, "pitch": 56, "duration": 8, "velocity": 69}, {"time": 978, "pitch": 61, "duration": 2, "velocity": 87}, {"time": 978, "pitch": 65, "duration": 5, "velocity": 114}, {"time": 978, "pitch": 68, "duration": 5, "velocity": 108}, {"time": 984, "pitch": 56, "duration": 9, "velocity": 51}, {"time": 990, "pitch": 61, "duration": 10, "velocity": 100}, {"time": 990, "pitch": 65, "duration": 9, "velocity": 102}, {"time": 996, "pitch": 56, "duration": 8, "velocity": 84}, {"time": 1002, "pitch": 61, "duration": 4, "velocity": 105}, {"time": 1002, "pitch": 65, "duration": 4, "velocity": 105}, {"time": 1002, "pitch": 68, "duration": 3, "velocity": 102}, {"time": 1008, "pitch": 49, "duration": 2, "velocity": 94}, {"time": 1014, "pitch": 46, "duration": 40, "velocity": 100}, {"time": 1014, "pitch": 58, "duration": 8, "velocity": 84}, {"time": 1014, "pitch": 61, "duration": 7, "velocity": 89}, {"time": 1014, "pitch": 65, "duration": 7, "velocity": 94}, {"time": 1020, "pitch": 53, "duration": 8, "velocity": 57}, {"time": 1026, "pitch": 61, "duration": 2, "velocity": 105}, {"time": 1026, "pitch": 65, "duration": 2, "velocity": 94}, {"time": 1032, "pitch": 53, "duration": 8, "velocity": 60}, {"time": 1038, "pitch": 58, "duration": 8, "velocity": 97}, {"time": 1038, "pitch": 61, "duration": 8, "velocity": 105}, {"time": 1038, "pitch": 65, "duration": 7, "velocity": 100}, {"time": 1044, "pitch": 53, "duration": 10, "velocity": 58}, {"time": 1050, "pitch": 58, "duration": 3, "velocity": 97}, {"time": 1050, "pitch": 61, "duration": 2, "velocity": 102}, {"time": 1050, "pitch": 65, "duration": 3, "velocity": 100}, {"time": 1056, "pitch": 44, "duration": 4, "velocity": 92}, {"time": 1056, "pitch": 56, "duration": 4, "velocity": 89}, {"time": 1062, "pitch": 42, "duration": 15, "velocity": 97}, {"time": 1062, "pitch": 54, "duration": 8, "velocity": 71}, {"time": 1062, "pitch": 58, "duration": 7, "velocity": 92}, {"time": 1062, "pitch": 61, "duration": 7, "velocity": 78}, {"time": 1068, "pitch": 49, "duration": 9, "velocity": 69}, {"time": 1074, "pitch": 54, "duration": 2, "velocity": 102}, {"time": 1074, "pitch": 58, "duration": 3, "velocity": 114}, {"time": 1074, "pitch": 61, "duration": 3, "velocity": 105}, {"time": 1080, "pitch": 54, "duration": 3, "velocity": 105}, {"time": 1086, "pitch": 46, "duration": 19, "velocity": 97}, {"time": 1086, "pitch": 58, "duration": 9, "velocity": 100}, {"time": 1086, "pitch": 61, "duration": 8, "velocity": 94}, {"time": 1092, "pitch": 53, "duration": 8, "velocity": 73}, {"time": 1098, "pitch": 61, "duration": 11, "velocity": 111}, {"time": 1098, "pitch": 65, "duration": 11, "velocity": 105}, {"time": 1104, "pitch": 58, "duration": 6, "velocity": 105}, {"time": 1110, "pitch": 44, "duration": 17, "velocity": 100}, {"time": 1110, "pitch": 56, "duration": 10, "velocity": 89}, {"time": 1110, "pitch": 60, "duration": 8, "velocity": 94}, {"time": 1116, "pitch": 51, "duration": 9, "velocity": 50}, {"time": 1122, "pitch": 56, "duration": 3, "velocity": 89}, {"time": 1122, "pitch": 60, "duration": 5, "velocity": 105}, {"time": 1122, "pitch": 63, "duration": 5, "velocity": 94}, {"time": 1128, "pitch": 56, "duration": 4, "velocity": 89}, {"time": 1134, "pitch": 49, "duration": 22, "velocity": 97}, {"time": 1134, "pitch": 56, "duration": 9, "velocity": 89}, {"time": 1134, "pitch": 61, "duration": 8, "velocity": 100}, {"time": 1140, "pitch": 53, "duration": 16, "velocity": 46}, {"time": 1146, "pitch": 61, "duration": 11, "velocity": 108}, {"time": 1146, "pitch": 65, "duration": 11, "velocity": 97}, {"time": 1152, "pitch": 56, "duration": 5, "velocity": 94}, {"time": 1158, "pitch": 49, "duration": 22, "velocity": 102}, {"time": 1158, "pitch": 56, "duration": 3, "velocity": 97}, {"time": 1158, "pitch": 61, "duration": 7, "velocity": 105}, {"time": 1164, "pitch": 56, "duration": 4, "velocity": 102}, {"time": 1170, "pitch": 56, "duration": 1, "velocity": 66}, {"time": 1170, "pitch": 61, "duration": 7, "velocity": 114}, {"time": 1170, "pitch": 65, "duration": 7, "velocity": 114}, {"time": 1176, "pitch": 56, "duration": 2, "velocity": 105}, {"time": 1182, "pitch": 46, "duration": 19, "velocity": 97}, {"time": 1182, "pitch": 58, "duration": 3, "velocity": 102}, {"time": 1182, "pitch": 61, "duration": 6, "velocity": 100}, {"time": 1188, "pitch": 58, "duration": 5, "velocity": 114}, {"time": 1194, "pitch": 61, "duration": 6, "velocity": 97}, {"time": 1194, "pitch": 65, "duration": 6, "velocity": 102}, {"time": 1200, "pitch": 58, "duration": 7, "velocity": 111}, {"time": 1206, "pitch": 42, "duration": 18, "velocity": 94}, {"time": 1206, "pitch": 61, "duration": 6, "velocity": 87}, {"time": 1212, "pitch": 54, "duration": 4, "velocity": 97}, {"time": 1218, "pitch": 49, "duration": 8, "velocity": 62}, {"time": 1218, "pitch": 54, "duration": 1, "velocity": 64}, {"time": 1218, "pitch": 58, "duration": 6, "velocity": 105}, {"time": 1218, "pitch": 61, "duration": 7, "velocity": 102}, {"time": 1224, "pitch": 54, "duration": 2, "velocity": 105}, {"time": 1230, "pitch": 44, "duration": 20, "velocity": 100}, {"time": 1230, "pitch": 56, "duration": 3, "velocity": 89}, {"time": 1230, "pitch": 60, "duration": 6, "velocity": 102}, {"time": 1236, "pitch": 56, "duration": 5, "velocity": 89}, {"time": 1242, "pitch": 63, "duration": 6, "velocity": 92}, {"time": 1248, "pitch": 61, "duration": 2, "velocity": 102}, {"time": 1254, "pitch": 49, "duration": 19, "velocity": 102}, {"time": 1254, "pitch": 56, "duration": 2, "velocity": 78}, {"time": 1254, "pitch": 61, "duration": 7, "velocity": 87}, {"time": 1254, "pitch": 65, "duration": 8, "velocity": 92}, {"time": 1260, "pitch": 56, "duration": 4, "velocity": 66}, {"time": 1266, "pitch": 61, "duration": 3, "velocity": 102}, {"time": 1266, "pitch": 65, "duration": 7, "velocity": 102}, {"time": 1272, "pitch": 63, "duration": 4, "velocity": 87}, {"time": 1278, "pitch": 46, "duration": 18, "velocity": 89}, {"time": 1278, "pitch": 58, "duration": 6, "velocity": 94}, {"time": 1278, "pitch": 61, "duration": 7, "velocity": 94}, {"time": 1284, "pitch": 53, "duration": 11, "velocity": 84}, {"time": 1290, "pitch": 58, "duration": 2, "velocity": 102}, {"time": 1290, "pitch": 61, "duration": 5, "velocity": 114}, {"time": 1290, "pitch": 65, "duration": 7, "velocity": 102}, {"time": 1296, "pitch": 58, "duration": 2, "velocity": 108}, {"time": 1302, "pitch": 42, "duration": 18, "velocity": 94}, {"time": 1302, "pitch": 54, "duration": 9, "velocity": 89}, {"time": 1302, "pitch": 58, "duration": 7, "velocity": 89}, {"time": 1308, "pitch": 49, "duration": 13, "velocity": 69}, {"time": 1314, "pitch": 58, "duration": 8, "velocity": 100}, {"time": 1314, "pitch": 61, "duration": 7, "velocity": 111}, {"time": 1320, "pitch": 54, "duration": 3, "velocity": 100}, {"time": 1326, "pitch": 44, "duration": 21, "velocity": 94}, {"time": 1326, "pitch": 56, "duration": 3, "velocity": 92}, {"time": 1326, "pitch": 60, "duration": 6, "velocity": 105}, {"time": 1332, "pitch": 56, "duration": 4, "velocity": 108}, {"time": 1338, "pitch": 56, "duration": 6, "velocity": 100}, {"time": 1338, "pitch": 60, "duration": 6, "velocity": 105}, {"time": 1338, "pitch": 63, "duration": 6, "velocity": 97}, {"time": 1344, "pitch": 61, "duration": 3, "velocity": 58}, {"time": 1350, "pitch": 49, "duration": 20, "velocity": 84}, {"time": 1350, "pitch": 56, "duration": 3, "velocity": 82}, {"time": 1350, "pitch": 61, "duration": 9, "velocity": 87}, {"time": 1350, "pitch": 65, "duration": 8, "velocity": 94}, {"time": 1356, "pitch": 56, "duration": 4, "velocity": 76}, {"time": 1362, "pitch": 56, "duration": 5, "velocity": 100}, {"time": 1362, "pitch": 61, "duration": 3, "velocity": 108}, {"time": 1362, "pitch": 65, "duration": 7, "velocity": 100}, {"time": 1368, "pitch": 63, "duration": 5, "velocity": 100}, {"time": 1374, "pitch": 46, "duration": 22, "velocity": 94}, {"time": 1374, "pitch": 58, "duration": 9, "velocity": 92}, {"time": 1374, "pitch": 61, "duration": 5, "velocity": 94}, {"time": 1380, "pitch": 53, "duration": 15, "velocity": 80}, {"time": 1386, "pitch": 61, "duration": 2, "velocity": 108}, {"time": 1386, "pitch": 65, "duration": 3, "velocity": 108}, {"time": 1392, "pitch": 60, "duration": 3, "velocity": 67}, {"time": 1398, "pitch": 42, "duration": 19, "velocity": 97}, {"time": 1398, "pitch": 54, "duration": 7, "velocity": 92}, {"time": 1398, "pitch": 58, "duration": 7, "velocity": 100}, {"time": 1404, "pitch": 49, "duration": 16, "velocity": 94}, {"time": 1410, "pitch": 54, "duration": 7, "velocity": 100}, {"time": 1410, "pitch": 61, "duration": 6, "velocity": 92}, {"time": 1416, "pitch": 58, "duration": 4, "velocity": 114}, {"time": 1422, "pitch": 44, "duration": 19, "velocity": 102}, {"time": 1422, "pitch": 56, "duration": 6, "velocity": 92}, {"time": 1422, "pitch": 60, "duration": 6, "velocity": 92}, {"time": 1428, "pitch": 51, "duration": 8, "velocity": 87}, {"time": 1434, "pitch": 56, "duration": 3, "velocity": 89}, {"time": 1434, "pitch": 60, "duration": 11, "velocity": 102}, {"time": 1434, "pitch": 63, "duration": 11, "velocity": 97}, {"time": 1440, "pitch": 56, "duration": 5, "velocity": 108}, {"time": 1446, "pitch": 49, "duration": 22, "velocity": 102}, {"time": 1446, "pitch": 56, "duration": 3, "velocity": 97}, {"time": 1446, "pitch": 61, "duration": 7, "velocity": 105}, {"time": 1452, "pitch": 56, "duration": 4, "velocity": 102}, {"time": 1458, "pitch": 56, "duration": 1, "velocity": 66}, {"time": 1458, "pitch": 61, "duration": 7, "velocity": 114}, {"time": 1458, "pitch": 65, "duration": 7, "velocity": 114}, {"time": 1464, "pitch": 56, "duration": 2, "velocity": 105}, {"time": 1470, "pitch": 46, "duration": 19, "velocity": 97}, {"time": 1470, "pitch": 58, "duration": 3, "velocity": 102}, {"time": 1470, "pitch": 61, "duration": 6, "velocity": 100}, {"time": 1476, "pitch": 58, "duration": 5, "velocity": 114}, {"time": 1482, "pitch": 61, "duration": 6, "velocity": 97}, {"time": 1482, "pitch": 65, "duration": 6, "velocity": 102}, {"time": 1488, "pitch": 58, "duration": 7, "velocity": 111}, {"time": 1494, "pitch": 42, "duration": 18, "velocity": 94}, {"time": 1494, "pitch": 61, "duration": 6, "velocity": 87}, {"time": 1500, "pitch": 54, "duration": 4, "velocity": 97}, {"time": 1506, "pitch": 49, "duration": 8, "velocity": 62}, {"time": 1506, "pitch": 54, "duration": 1, "velocity": 64}, {"time": 1506, "pitch": 58, "duration": 6, "velocity": 105}, {"time": 1506, "pitch": 61, "duration": 7, "velocity": 102}, {"time": 1512, "pitch": 54, "duration": 2, "velocity": 105}, {"time": 1518, "pitch": 44, "duration": 20, "velocity": 100}, {"time": 1518, "pitch": 56, "duration": 3, "velocity": 89}, {"time": 1518, "pitch": 60, "duration": 6, "velocity": 102}, {"time": 1524, "pitch": 56, "duration": 5, "velocity": 89}, {"time": 1530, "pitch": 63, "duration": 6, "velocity": 92}, {"time": 1536, "pitch": 61, "duration": 2, "velocity": 102}, {"time": 1542, "pitch": 49, "duration": 19, "velocity": 102}, {"time": 1542, "pitch": 56, "duration": 2, "velocity": 78}, {"time": 1542, "pitch": 61, "duration": 7, "velocity": 87}, {"time": 1542, "pitch": 65, "duration": 8, "velocity": 92}, {"time": 1548, "pitch": 56, "duration": 4, "velocity": 66}, {"time": 1554, "pitch": 61, "duration": 3, "velocity": 102}, {"time": 1554, "pitch": 65, "duration": 7, "velocity": 102}, {"time": 1560, "pitch": 63, "duration": 4, "velocity": 87}, {"time": 1566, "pitch": 46, "duration": 18, "velocity": 89}, {"time": 1566, "pitch": 58, "duration": 6, "velocity": 94}, {"time": 1566, "pitch": 61, "duration": 7, "velocity": 94}, {"time": 1572, "pitch": 53, "duration": 11, "velocity": 84}, {"time": 1578, "pitch": 58, "duration": 2, "velocity": 102}, {"time": 1578, "pitch": 61, "duration": 5, "velocity": 114}, {"time": 1578, "pitch": 65, "duration": 7, "velocity": 102}, {"time": 1584, "pitch": 58, "duration": 2, "velocity": 108}, {"time": 1590, "pitch": 42, "duration": 18, "velocity": 94}, {"time": 1590, "pitch": 54, "duration": 9, "velocity": 89}, {"time": 1590, "pitch": 58, "duration": 7, "velocity": 89}, {"time": 1596, "pitch": 49, "duration": 13, "velocity": 69}, {"time": 1602, "pitch": 58, "duration": 8, "velocity": 100}, {"time": 1602, "pitch": 61, "duration": 7, "velocity": 111}, {"time": 1608, "pitch": 54, "duration": 3, "velocity": 100}, {"time": 1614, "pitch": 44, "duration": 21, "velocity": 94}, {"time": 1614, "pitch": 56, "duration": 3, "velocity": 92}, {"time": 1614, "pitch": 60, "duration": 6, "velocity": 105}, {"time": 1620, "pitch": 56, "duration": 4, "velocity": 108}, {"time": 1626, "pitch": 56, "duration": 6, "velocity": 100}, {"time": 1626, "pitch": 60, "duration": 6, "velocity": 105}, {"time": 1626, "pitch": 63, "duration": 6, "velocity": 97}, {"time": 1632, "pitch": 61, "duration": 3, "velocity": 58}, {"time": 1638, "pitch": 49, "duration": 20, "velocity": 84}, {"time": 1638, "pitch": 56, "duration": 3, "velocity": 82}, {"time": 1638, "pitch": 61, "duration": 9, "velocity": 87}, {"time": 1638, "pitch": 65, "duration": 8, "velocity": 94}, {"time": 1644, "pitch": 56, "duration": 4, "velocity": 76}, {"time": 1650, "pitch": 56, "duration": 5, "velocity": 100}, {"time": 1650, "pitch": 61, "duration": 3, "velocity": 108}, {"time": 1650, "pitch": 65, "duration": 7, "velocity": 100}, {"time": 1656, "pitch": 63, "duration": 5, "velocity": 100}, {"time": 1662, "pitch": 46, "duration": 22, "velocity": 94}, {"time": 1662, "pitch": 58, "duration": 9, "velocity": 92}, {"time": 1662, "pitch": 61, "duration": 5, "velocity": 94}, {"time": 1668, "pitch": 53, "duration": 15, "velocity": 80}, {"time": 1674, "pitch": 61, "duration": 2, "velocity": 108}, {"time": 1674, "pitch": 65, "duration": 3, "velocity": 108}, {"time": 1680, "pitch": 60, "duration": 3, "velocity": 67}, {"time": 1686, "pitch": 42, "duration": 19, "velocity": 97}, {"time": 1686, "pitch": 54, "duration": 7, "velocity": 92}, {"time": 1686, "pitch": 58, "duration": 7, "velocity": 100}, {"time": 1692, "pitch": 49, "duration": 16, "velocity": 94}, {"time": 1698, "pitch": 54, "duration": 7, "velocity": 100}, {"time": 1698, "pitch": 61, "duration": 6, "velocity": 92}, {"time": 1704, "pitch": 58, "duration": 4, "velocity": 114}, {"time": 1710, "pitch": 44, "duration": 19, "velocity": 102}, {"time": 1710, "pitch": 56, "duration": 6, "velocity": 92}, {"time": 1710, "pitch": 60, "duration": 6, "velocity": 92}, {"time": 1716, "pitch": 51, "duration": 8, "velocity": 87}, {"time": 1722, "pitch": 56, "duration": 3, "velocity": 89}, {"time": 1722, "pitch": 60, "duration": 11, "velocity": 102}, {"time": 1722, "pitch": 63, "duration": 11, "velocity": 97}, {"time": 1728, "pitch": 56, "duration": 5, "velocity": 108}, {"time": 1734, "pitch": 49, "duration": 22, "velocity": 102}, {"time": 1734, "pitch": 56, "duration": 3, "velocity": 97}, {"time": 1734, "pitch": 61, "duration": 7, "velocity": 105}, {"time": 1740, "pitch": 56, "duration": 4, "velocity": 102}, {"time": 1746, "pitch": 56, "duration": 1, "velocity": 66}, {"time": 1746, "pitch": 61, "duration": 7, "velocity": 114}, {"time": 1746, "pitch": 65, "duration": 7, "velocity": 114}, {"time": 1752, "pitch": 56, "duration": 2, "velocity": 105}, {"time": 1758, "pitch": 46, "duration": 19, "velocity": 97}, {"time": 1758, "pitch": 58, "duration": 3, "velocity": 102}, {"time": 1758, "pitch": 61, "duration": 6, "velocity": 100}, {"time": 1764, "pitch": 58, "duration": 5, "velocity": 114}, {"time": 1770, "pitch": 61, "duration": 6, "velocity": 97}, {"time": 1770, "pitch": 65, "duration": 6, "velocity": 102}, {"time": 1776, "pitch": 58, "duration": 7, "velocity": 111}, {"time": 1782, "pitch": 42, "duration": 18, "velocity": 94}, {"time": 1782, "pitch": 61, "duration": 6, "velocity": 87}, {"time": 1788, "pitch": 54, "duration": 4, "velocity": 97}, {"time": 1794, "pitch": 49, "duration": 8, "velocity": 62}, {"time": 1794, "pitch": 54, "duration": 1, "velocity": 64}, {"time": 1794, "pitch": 58, "duration": 6, "velocity": 105}, {"time": 1794, "pitch": 61, "duration": 7, "velocity": 102}, {"time": 1800, "pitch": 54, "duration": 2, "velocity": 105}, {"time": 1806, "pitch": 44, "duration": 20, "velocity": 100}, {"time": 1806, "pitch": 56, "duration": 3, "velocity": 89}, {"time": 1806, "pitch": 60, "duration": 6, "velocity": 102}, {"time": 1812, "pitch": 56, "duration": 5, "velocity": 89}, {"time": 1818, "pitch": 63, "duration": 6, "velocity": 92}, {"time": 1824, "pitch": 61, "duration": 2, "velocity": 102}, {"time": 1830, "pitch": 49, "duration": 19, "velocity": 102}, {"time": 1830, "pitch": 56, "duration": 2, "velocity": 78}, {"time": 1830, "pitch": 61, "duration": 7, "velocity": 87}, {"time": 1830, "pitch": 65, "duration": 8, "velocity": 92}, {"time": 1836, "pitch": 56, "duration": 4, "velocity": 66}, {"time": 1842, "pitch": 61, "duration": 3, "velocity": 102}, {"time": 1842, "pitch": 65, "duration": 7, "velocity": 102}, {"time": 1848, "pitch": 63, "duration": 4, "velocity": 87}, {"time": 1854, "pitch": 46, "duration": 18, "velocity": 89}, {"time": 1854, "pitch": 58, "duration": 6, "velocity": 94}, {"time": 1854, "pitch": 61, "duration": 7, "velocity": 94}, {"time": 1860, "pitch": 53, "duration": 11, "velocity": 84}, {"time": 1866, "pitch": 58, "duration": 2, "velocity": 102}, {"time": 1866, "pitch": 61, "duration": 5, "velocity": 114}, {"time": 1866, "pitch": 65, "duration": 7, "velocity": 102}, {"time": 1872, "pitch": 58, "duration": 2, "velocity": 108}, {"time": 1878, "pitch": 42, "duration": 18, "velocity": 94}, {"time": 1878, "pitch": 54, "duration": 9, "velocity": 89}, {"time": 1878, "pitch": 58, "duration": 7, "velocity": 89}, {"time": 1884, "pitch": 49, "duration": 13, "velocity": 69}, {"time": 1890, "pitch": 58, "duration": 8, "velocity": 100}, {"time": 1890, "pitch": 61, "duration": 7, "velocity": 111}, {"time": 1896, "pitch": 54, "duration": 3, "velocity": 100}, {"time": 1902, "pitch": 53, "duration": 14, "velocity": 105}, {"time": 1902, "pitch": 60, "duration": 3, "velocity": 94}, {"time": 1902, "pitch": 65, "duration": 7, "velocity": 89}, {"time": 1905, "pitch": 60, "duration": 1, "velocity": 87}, {"time": 1914, "pitch": 60, "duration": 4, "velocity": 108}, {"time": 1914, "pitch": 65, "duration": 3, "velocity": 114}, {"time": 1914, "pitch": 68, "duration": 3, "velocity": 100}, {"time": 1926, "pitch": 42, "duration": 3, "velocity": 97}, {"time": 1926, "pitch": 54, "duration": 3, "velocity": 89}, {"time": 1926, "pitch": 58, "duration": 3, "velocity": 102}, {"time": 1926, "pitch": 61, "duration": 3, "velocity": 89}, {"time": 1938, "pitch": 53, "duration": 9, "velocity": 105}, {"time": 1938, "pitch": 60, "duration": 6, "velocity": 89}, {"time": 1938, "pitch": 65, "duration": 5, "velocity": 84}, {"time": 1938, "pitch": 68, "duration": 7, "velocity": 89}, {"time": 1950, "pitch": 51, "duration": 10, "velocity": 105}, {"time": 1950, "pitch": 58, "duration": 10, "velocity": 94}, {"time": 1950, "pitch": 63, "duration": 10, "velocity": 92}, {"time": 1950, "pitch": 66, "duration": 1, "velocity": 82}, {"time": 1962, "pitch": 44, "duration": 9, "velocity": 100}, {"time": 1962, "pitch": 56, "duration": 9, "velocity": 84}, {"time": 1962, "pitch": 60, "duration": 8, "velocity": 97}, {"time": 1974, "pitch": 32, "duration": 45, "velocity": 76}, {"time": 1974, "pitch": 44, "duration": 45, "velocity": 100}, {"time": 1974, "pitch": 56, "duration": 45, "velocity": 76}, {"time": 1974, "pitch": 60, "duration": 44, "velocity": 89}, {"time": 1974, "pitch": 68, "duration": 46, "velocity": 97}, {"time": 2022, "pitch": 49, "duration": 42, "velocity": 97}, {"time": 2022, "pitch": 61, "duration": 14, "velocity": 97}, {"time": 2028, "pitch": 53, "duration": 9, "velocity": 38}, {"time": 2034, "pitch": 56, "duration": 14, "velocity": 105}, {"time": 2040, "pitch": 53, "duration": 8, "velocity": 26}, {"time": 2046, "pitch": 65, "duration": 13, "velocity": 97}, {"time": 2052, "pitch": 53, "duration": 11, "velocity": 40}, {"time": 2058, "pitch": 61, "duration": 6, "velocity": 97}, {"time": 2064, "pitch": 56, "duration": 3, "velocity": 102}, {"time": 2070, "pitch": 42, "duration": 17, "velocity": 89}, {"time": 2070, "pitch": 54, "duration": 7, "velocity": 78}, {"time": 2070, "pitch": 58, "duration": 13, "velocity": 89}, {"time": 2076, "pitch": 49, "duration": 12, "velocity": 44}, {"time": 2082, "pitch": 54, "duration": 7, "velocity": 97}, {"time": 2088, "pitch": 58, "duration": 5, "velocity": 78}, {"time": 2094, "pitch": 44, "duration": 17, "velocity": 102}, {"time": 2094, "pitch": 56, "duration": 9, "velocity": 87}, {"time": 2094, "pitch": 60, "duration": 8, "velocity": 89}, {"time": 2100, "pitch": 51, "duration": 11, "velocity": 58}, {"time": 2106, "pitch": 56, "duration": 4, "velocity": 82}, {"time": 2106, "pitch": 60, "duration": 3, "velocity": 92}, {"time": 2116, "pitch": 61, "duration": 16, "velocity": 67}, {"time": 2117, "pitch": 65, "duration": 14, "velocity": 78}, {"time": 2117, "pitch": 49, "duration": 19, "velocity": 102}, {"time": 2118, "pitch": 68, "duration": 12, "velocity": 87}, {"time": 2124, "pitch": 56, "duration": 11, "velocity": 49}, {"time": 2139, "pitch": 58, "duration": 10, "velocity": 62}, {"time": 2141, "pitch": 61, "duration": 8, "velocity": 80}, {"time": 2141, "pitch": 46, "duration": 18, "velocity": 92}, {"time": 2142, "pitch": 65, "duration": 6, "velocity": 84}, {"time": 2147, "pitch": 53, "duration": 11, "velocity": 37}, {"time": 2154, "pitch": 65, "duration": 3, "velocity": 82}, {"time": 2154, "pitch": 58, "duration": 4, "velocity": 71}, {"time": 2154, "pitch": 61, "duration": 3, "velocity": 62}, {"time": 2164, "pitch": 54, "duration": 9, "velocity": 40}, {"time": 2165, "pitch": 58, "duration": 13, "velocity": 87}, {"time": 2166, "pitch": 42, "duration": 19, "velocity": 92}, {"time": 2166, "pitch": 61, "duration": 12, "velocity": 73}, {"time": 2172, "pitch": 49, "duration": 12, "velocity": 40}, {"time": 2178, "pitch": 54, "duration": 7, "velocity": 82}, {"time": 2184, "pitch": 58, "duration": 4, "velocity": 87}, {"time": 2189, "pitch": 56, "duration": 10, "velocity": 78}, {"time": 2189, "pitch": 44, "duration": 18, "velocity": 92}, {"time": 2190, "pitch": 60, "duration": 6, "velocity": 71}, {"time": 2195, "pitch": 51, "duration": 11, "velocity": 66}, {"time": 2201, "pitch": 60, "duration": 4, "velocity": 87}, {"time": 2201, "pitch": 56, "duration": 4, "velocity": 82}, {"time": 2201, "pitch": 63, "duration": 4, "velocity": 78}, {"time": 2212, "pitch": 56, "duration": 14, "velocity": 57}, {"time": 2213, "pitch": 61, "duration": 21, "velocity": 82}, {"time": 2213, "pitch": 49, "duration": 21, "velocity": 89}, {"time": 2214, "pitch": 65, "duration": 19, "velocity": 82}, {"time": 2232, "pitch": 56, "duration": 2, "velocity": 92}, {"time": 2237, "pitch": 58, "duration": 8, "velocity": 87}, {"time": 2237, "pitch": 46, "duration": 15, "velocity": 92}, {"time": 2238, "pitch": 61, "duration": 12, "velocity": 84}, {"time": 2239, "pitch": 65, "duration": 11, "velocity": 94}, {"time": 2243, "pitch": 53, "duration": 8, "velocity": 69}, {"time": 2250, "pitch": 58, "duration": 2, "velocity": 105}, {"time": 2260, "pitch": 54, "duration": 10, "velocity": 69}, {"time": 2261, "pitch": 58, "duration": 14, "velocity": 84}, {"time": 2262, "pitch": 42, "duration": 20, "velocity": 89}, {"time": 2262, "pitch": 61, "duration": 13, "velocity": 92}, {"time": 2267, "pitch": 49, "duration": 16, "velocity": 49}, {"time": 2274, "pitch": 54, "duration": 7, "velocity": 82}, {"time": 2280, "pitch": 58, "duration": 3, "velocity": 102}, {"time": 2285, "pitch": 56, "duration": 10, "velocity": 66}, {"time": 2286, "pitch": 60, "duration": 9, "velocity": 108}, {"time": 2286, "pitch": 44, "duration": 19, "velocity": 97}, {"time": 2291, "pitch": 51, "duration": 13, "velocity": 62}, {"time": 2297, "pitch": 63, "duration": 5, "velocity": 84}, {"time": 2297, "pitch": 60, "duration": 4, "velocity": 102}, {"time": 2298, "pitch": 56, "duration": 4, "velocity": 87}, {"time": 2310, "pitch": 49, "duration": 42, "velocity": 100}, {"time": 2310, "pitch": 61, "duration": 8, "velocity": 76}, {"time": 2310, "pitch": 65, "duration": 12, "velocity": 92}, {"time": 2316, "pitch": 56, "duration": 8, "velocity": 71}, {"time": 2322, "pitch": 61, "duration": 9, "velocity": 111}, {"time": 2328, "pitch": 56, "duration": 8, "velocity": 44}, {"time": 2334, "pitch": 65, "duration": 5, "velocity": 71}, {"time": 2334, "pitch": 68, "duration": 5, "velocity": 80}, {"time": 2340, "pitch": 56, "duration": 10, "velocity": 41}, {"time": 2346, "pitch": 61, "duration": 2, "velocity": 92}, {"time": 2346, "pitch": 65, "duration": 3, "velocity": 102}, {"time": 2346, "pitch": 68, "duration": 5, "velocity": 94}, {"time": 2358, "pitch": 46, "duration": 43, "velocity": 94}, {"time": 2358, "pitch": 58, "duration": 8, "velocity": 76}, {"time": 2358, "pitch": 61, "duration": 12, "velocity": 76}, {"time": 2364, "pitch": 53, "duration": 7, "velocity": 53}, {"time": 2370, "pitch": 58, "duration": 12, "velocity": 111}, {"time": 2376, "pitch": 53, "duration": 7, "velocity": 44}, {"time": 2382, "pitch": 61, "duration": 3, "velocity": 57}, {"time": 2382, "pitch": 65, "duration": 3, "velocity": 87}, {"time": 2388, "pitch": 53, "duration": 12, "velocity": 34}, {"time": 2394, "pitch": 58, "duration": 3, "velocity": 97}, {"time": 2394, "pitch": 61, "duration": 3, "velocity": 94}, {"time": 2394, "pitch": 65, "duration": 6, "velocity": 89}, {"time": 2400, "pitch": 56, "duration": 3, "velocity": 82}, {"time": 2406, "pitch": 42, "duration": 40, "velocity": 94}, {"time": 2406, "pitch": 54, "duration": 13, "velocity": 87}, {"time": 2406, "pitch": 58, "duration": 8, "velocity": 94}, {"time": 2412, "pitch": 49, "duration": 33, "velocity": 48}, {"time": 2418, "pitch": 58, "duration": 19, "velocity": 105}, {"time": 2418, "pitch": 61, "duration": 19, "velocity": 94}, {"time": 2424, "pitch": 54, "duration": 7, "velocity": 44}, {"time": 2430, "pitch": 66, "duration": 7, "velocity": 84}, {"time": 2436, "pitch": 54, "duration": 7, "velocity": 100}, {"time": 2442, "pitch": 58, "duration": 6, "velocity": 111}, {"time": 2442, "pitch": 61, "duration": 10, "velocity": 100}, {"time": 2448, "pitch": 54, "duration": 2, "velocity": 108}, {"time": 2454, "pitch": 44, "duration": 38, "velocity": 94}, {"time": 2454, "pitch": 56, "duration": 13, "velocity": 92}, {"time": 2454, "pitch": 60, "duration": 31, "velocity": 92}, {"time": 2460, "pitch": 51, "duration": 32, "velocity": 46}, {"time": 2466, "pitch": 63, "duration": 19, "velocity": 94}, {"time": 2472, "pitch": 56, "duration": 7, "velocity": 64}, {"time": 2478, "pitch": 68, "duration": 8, "velocity": 94}, {"time": 2484, "pitch": 56, "duration": 7, "velocity": 73}, {"time": 2490, "pitch": 60, "duration": 5, "velocity": 111}, {"time": 2490, "pitch": 63, "duration": 7, "velocity": 97}, {"time": 2490, "pitch": 68, "duration": 9, "velocity": 94}, {"time": 2496, "pitch": 56, "duration": 2, "velocity": 102}, {"time": 2502, "pitch": 49, "duration": 42, "velocity": 97}, {"time": 2502, "pitch": 61, "duration": 14, "velocity": 97}, {"time": 2508, "pitch": 53, "duration": 9, "velocity": 38}, {"time": 2514, "pitch": 56, "duration": 14, "velocity": 105}, {"time": 2520, "pitch": 53, "duration": 8, "velocity": 26}, {"time": 2526, "pitch": 65, "duration": 13, "velocity": 97}, {"time": 2532, "pitch": 53, "duration": 11, "velocity": 40}, {"time": 2538, "pitch": 61, "duration": 6, "velocity": 97}, {"time": 2544, "pitch": 56, "duration": 3, "velocity": 102}, {"time": 2550, "pitch": 42, "duration": 17, "velocity": 89}, {"time": 2550, "pitch": 54, "duration": 7, "velocity": 78}, {"time": 2550, "pitch": 58, "duration": 13, "velocity": 89}, {"time": 2556, "pitch": 49, "duration": 12, "velocity": 44}, {"time": 2562, "pitch": 54, "duration": 7, "velocity": 97}, {"time": 2568, "pitch": 58, "duration": 5, "velocity": 78}, {"time": 2574, "pitch": 44, "duration": 17, "velocity": 102}, {"time": 2574, "pitch": 56, "duration": 9, "velocity": 87}, {"time": 2574, "pitch": 60, "duration": 8, "velocity": 89}, {"time": 2580, "pitch": 51, "duration": 11, "velocity": 58}, {"time": 2586, "pitch": 56, "duration": 4, "velocity": 82}, {"time": 2586, "pitch": 60, "duration": 3, "velocity": 92}, {"time": 2598, "pitch": 49, "duration": 22, "velocity": 102}, {"time": 2598, "pitch": 56, "duration": 3, "velocity": 97}, {"time": 2598, "pitch": 61, "duration": 7, "velocity": 105}, {"time": 2604, "pitch": 56, "duration": 4, "velocity": 102}, {"time": 2610, "pitch": 56, "duration": 1, "velocity": 66}, {"time": 2610, "pitch": 61, "duration": 7, "velocity": 114}, {"time": 2610, "pitch": 65, "duration": 7, "velocity": 114}, {"time": 2616, "pitch": 56, "duration": 2, "velocity": 105}, {"time": 2622, "pitch": 46, "duration": 19, "velocity": 97}, {"time": 2622, "pitch": 58, "duration": 3, "velocity": 102}, {"time": 2622, "pitch": 61, "duration": 6, "velocity": 100}, {"time": 2628, "pitch": 58, "duration": 5, "velocity": 114}, {"time": 2634, "pitch": 61, "duration": 6, "velocity": 97}, {"time": 2634, "pitch": 65, "duration": 6, "velocity": 102}, {"time": 2640, "pitch": 58, "duration": 7, "velocity": 111}, {"time": 2646, "pitch": 42, "duration": 18, "velocity": 94}, {"time": 2646, "pitch": 61, "duration": 6, "velocity": 87}, {"time": 2652, "pitch": 54, "duration": 4, "velocity": 97}, {"time": 2658, "pitch": 49, "duration": 8, "velocity": 62}, {"time": 2658, "pitch": 54, "duration": 1, "velocity": 64}, {"time": 2658, "pitch": 58, "duration": 6, "velocity": 105}, {"time": 2658, "pitch": 61, "duration": 7, "velocity": 102}, {"time": 2664, "pitch": 54, "duration": 2, "velocity": 105}, {"time": 2670, "pitch": 44, "duration": 20, "velocity": 100}, {"time": 2670, "pitch": 56, "duration": 3, "velocity": 89}, {"time": 2670, "pitch": 60, "duration": 6, "velocity": 102}, {"time": 2676, "pitch": 56, "duration": 5, "velocity": 89}, {"time": 2682, "pitch": 63, "duration": 6, "velocity": 92}, {"time": 2688, "pitch": 61, "duration": 2, "velocity": 102}, {"time": 2694, "pitch": 49, "duration": 19, "velocity": 102}, {"time": 2694, "pitch": 56, "duration": 2, "velocity": 78}, {"time": 2694, "pitch": 61, "duration": 7, "velocity": 87}, {"time": 2694, "pitch": 65, "duration": 8, "velocity": 92}, {"time": 2700, "pitch": 56, "duration": 4, "velocity": 66}, {"time": 2706, "pitch": 61, "duration": 3, "velocity": 102}, {"time": 2706, "pitch": 65, "duration": 7, "velocity": 102}, {"time": 2712, "pitch": 63, "duration": 4, "velocity": 87}, {"time": 2718, "pitch": 46, "duration": 18, "velocity": 89}, {"time": 2718, "pitch": 58, "duration": 6, "velocity": 94}, {"time": 2718, "pitch": 61, "duration": 7, "velocity": 94}, {"time": 2724, "pitch": 53, "duration": 11, "velocity": 84}, {"time": 2730, "pitch": 58, "duration": 2, "velocity": 102}, {"time": 2730, "pitch": 61, "duration": 5, "velocity": 114}, {"time": 2730, "pitch": 65, "duration": 7, "velocity": 102}, {"time": 2736, "pitch": 58, "duration": 2, "velocity": 108}, {"time": 2742, "pitch": 42, "duration": 18, "velocity": 94}, {"time": 2742, "pitch": 54, "duration": 9, "velocity": 89}, {"time": 2742, "pitch": 58, "duration": 7, "velocity": 89}, {"time": 2748, "pitch": 49, "duration": 13, "velocity": 69}, {"time": 2754, "pitch": 58, "duration": 8, "velocity": 100}, {"time": 2754, "pitch": 61, "duration": 7, "velocity": 111}, {"time": 2760, "pitch": 54, "duration": 3, "velocity": 100}, {"time": 2766, "pitch": 44, "duration": 21, "velocity": 94}, {"time": 2766, "pitch": 56, "duration": 3, "velocity": 92}, {"time": 2766, "pitch": 60, "duration": 6, "velocity": 105}, {"time": 2772, "pitch": 56, "duration": 4, "velocity": 108}, {"time": 2778, "pitch": 56, "duration": 6, "velocity": 100}, {"time": 2778, "pitch": 60, "duration": 6, "velocity": 105}, {"time": 2778, "pitch": 63, "duration": 6, "velocity": 97}, {"time": 2784, "pitch": 61, "duration": 3, "velocity": 58}, {"time": 2790, "pitch": 49, "duration": 20, "velocity": 84}, {"time": 2790, "pitch": 56, "duration": 3, "velocity": 82}, {"time": 2790, "pitch": 61, "duration": 9, "velocity": 87}, {"time": 2790, "pitch": 65, "duration": 8, "velocity": 94}, {"time": 2796, "pitch": 56, "duration": 4, "velocity": 76}, {"time": 2802, "pitch": 56, "duration": 5, "velocity": 100}, {"time": 2802, "pitch": 61, "duration": 3, "velocity": 108}, {"time": 2802, "pitch": 65, "duration": 7, "velocity": 100}, {"time": 2808, "pitch": 63, "duration": 5, "velocity": 100}, {"time": 2814, "pitch": 46, "duration": 22, "velocity": 94}, {"time": 2814, "pitch": 58, "duration": 9, "velocity": 92}, {"time": 2814, "pitch": 61, "duration": 5, "velocity": 94}, {"time": 2820, "pitch": 53, "duration": 15, "velocity": 80}, {"time": 2826, "pitch": 61, "duration": 2, "velocity": 108}, {"time": 2826, "pitch": 65, "duration": 3, "velocity": 108}, {"time": 2832, "pitch": 60, "duration": 3, "velocity": 67}, {"time": 2838, "pitch": 42, "duration": 19, "velocity": 97}, {"time": 2838, "pitch": 54, "duration": 7, "velocity": 92}, {"time": 2838, "pitch": 58, "duration": 7, "velocity": 100}, {"time": 2844, "pitch": 49, "duration": 16, "velocity": 94}, {"time": 2850, "pitch": 54, "duration": 7, "velocity": 100}, {"time": 2850, "pitch": 61, "duration": 6, "velocity": 92}, {"time": 2856, "pitch": 58, "duration": 4, "velocity": 114}, {"time": 2862, "pitch": 44, "duration": 19, "velocity": 102}, {"time": 2862, "pitch": 56, "duration": 6, "velocity": 92}, {"time": 2862, "pitch": 60, "duration": 6, "velocity": 92}, {"time": 2868, "pitch": 51, "duration": 8, "velocity": 87}, {"time": 2874, "pitch": 56, "duration": 3, "velocity": 89}, {"time": 2874, "pitch": 60, "duration": 11, "velocity": 102}, {"time": 2874, "pitch": 63, "duration": 11, "velocity": 97}, {"time": 2880, "pitch": 56, "duration": 5, "velocity": 108}, {"time": 2886, "pitch": 49, "duration": 22, "velocity": 102}, {"time": 2886, "pitch": 56, "duration": 3, "velocity": 97}, {"time": 2886, "pitch": 61, "duration": 7, "velocity": 105}, {"time": 2892, "pitch": 56, "duration": 4, "velocity": 102}, {"time": 2898, "pitch": 56, "duration": 1, "velocity": 66}, {"time": 2898, "pitch": 61, "duration": 7, "velocity": 114}, {"time": 2898, "pitch": 65, "duration": 7, "velocity": 114}, {"time": 2904, "pitch": 56, "duration": 2, "velocity": 105}, {"time": 2910, "pitch": 46, "duration": 19, "velocity": 97}, {"time": 2910, "pitch": 58, "duration": 3, "velocity": 102}, {"time": 2910, "pitch": 61, "duration": 6, "velocity": 100}, {"time": 2916, "pitch": 58, "duration": 5, "velocity": 114}, {"time": 2922, "pitch": 61, "duration": 6, "velocity": 97}, {"time": 2922, "pitch": 65, "duration": 6, "velocity": 102}, {"time": 2928, "pitch": 58, "duration": 7, "velocity": 111}, {"time": 2934, "pitch": 42, "duration": 18, "velocity": 94}, {"time": 2934, "pitch": 61, "duration": 6, "velocity": 87}, {"time": 2940, "pitch": 54, "duration": 4, "velocity": 97}, {"time": 2946, "pitch": 49, "duration": 8, "velocity": 62}, {"time": 2946, "pitch": 54, "duration": 1, "velocity": 64}, {"time": 2946, "pitch": 58, "duration": 6, "velocity": 105}, {"time": 2946, "pitch": 61, "duration": 7, "velocity": 102}, {"time": 2952, "pitch": 54, "duration": 2, "velocity": 105}, {"time": 2958, "pitch": 44, "duration": 20, "velocity": 100}, {"time": 2958, "pitch": 56, "duration": 3, "velocity": 89}, {"time": 2958, "pitch": 60, "duration": 6, "velocity": 102}, {"time": 2964, "pitch": 56, "duration": 5, "velocity": 89}, {"time": 2970, "pitch": 63, "duration": 6, "velocity": 92}, {"time": 2976, "pitch": 61, "duration": 2, "velocity": 102}, {"time": 2982, "pitch": 49, "duration": 19, "velocity": 102}, {"time": 2982, "pitch": 56, "duration": 2, "velocity": 78}, {"time": 2982, "pitch": 61, "duration": 7, "velocity": 87}, {"time": 2982, "pitch": 65, "duration": 8, "velocity": 92}, {"time": 2988, "pitch": 56, "duration": 4, "velocity": 66}, {"time": 2994, "pitch": 61, "duration": 3, "velocity": 102}, {"time": 2994, "pitch": 65, "duration": 7, "velocity": 102}, {"time": 3000, "pitch": 63, "duration": 4, "velocity": 87}, {"time": 3006, "pitch": 46, "duration": 18, "velocity": 89}, {"time": 3006, "pitch": 58, "duration": 6, "velocity": 94}, {"time": 3006, "pitch": 61, "duration": 7, "velocity": 94}, {"time": 3012, "pitch": 53, "duration": 11, "velocity": 84}, {"time": 3018, "pitch": 58, "duration": 2, "velocity": 102}, {"time": 3018, "pitch": 61, "duration": 5, "velocity": 114}, {"time": 3018, "pitch": 65, "duration": 7, "velocity": 102}, {"time": 3024, "pitch": 58, "duration": 2, "velocity": 108}, {"time": 3030, "pitch": 42, "duration": 18, "velocity": 94}, {"time": 3030, "pitch": 54, "duration": 9, "velocity": 89}, {"time": 3030, "pitch": 58, "duration": 7, "velocity": 89}, {"time": 3036, "pitch": 49, "duration": 13, "velocity": 69}, {"time": 3042, "pitch": 58, "duration": 8, "velocity": 100}, {"time": 3042, "pitch": 61, "duration": 7, "velocity": 111}, {"time": 3048, "pitch": 54, "duration": 3, "velocity": 100}, {"time": 3054, "pitch": 44, "duration": 21, "velocity": 94}, {"time": 3054, "pitch": 56, "duration": 3, "velocity": 92}, {"time": 3054, "pitch": 60, "duration": 6, "velocity": 105}, {"time": 3060, "pitch": 56, "duration": 4, "velocity": 108}, {"time": 3066, "pitch": 56, "duration": 6, "velocity": 100}, {"time": 3066, "pitch": 60, "duration": 6, "velocity": 105}, {"time": 3066, "pitch": 63, "duration": 6, "velocity": 97}, {"time": 3072, "pitch": 61, "duration": 3, "velocity": 58}, {"time": 3078, "pitch": 49, "duration": 20, "velocity": 84}, {"time": 3078, "pitch": 56, "duration": 3, "velocity": 82}, {"time": 3078, "pitch": 61, "duration": 9, "velocity": 87}, {"time": 3078, "pitch": 65, "duration": 8, "velocity": 94}, {"time": 3084, "pitch": 56, "duration": 4, "velocity": 76}, {"time": 3090, "pitch": 56, "duration": 5, "velocity": 100}, {"time": 3090, "pitch": 61, "duration": 3, "velocity": 108}, {"time": 3090, "pitch": 65, "duration": 7, "velocity": 100}, {"time": 3096, "pitch": 63, "duration": 5, "velocity": 100}, {"time": 3102, "pitch": 46, "duration": 22, "velocity": 94}, {"time": 3102, "pitch": 58, "duration": 9, "velocity": 92}, {"time": 3102, "pitch": 61, "duration": 5, "velocity": 94}, {"time": 3108, "pitch": 53, "duration": 15, "velocity": 80}, {"time": 3114, "pitch": 61, "duration": 2, "velocity": 108}, {"time": 3114, "pitch": 65, "duration": 3, "velocity": 108}, {"time": 3120, "pitch": 60, "duration": 3, "velocity": 67}, {"time": 3126, "pitch": 42, "duration": 19, "velocity": 97}, {"time": 3126, "pitch": 54, "duration": 7, "velocity": 92}, {"time": 3126, "pitch": 58, "duration": 7, "velocity": 100}, {"time": 3132, "pitch": 49, "duration": 16, "velocity": 94}, {"time": 3138, "pitch": 54, "duration": 7, "velocity": 100}, {"time": 3138, "pitch": 61, "duration": 6, "velocity": 92}, {"time": 3144, "pitch": 58, "duration": 4, "velocity": 114}, {"time": 3150, "pitch": 44, "duration": 19, "velocity": 102}, {"time": 3150, "pitch": 56, "duration": 6, "velocity": 92}, {"time": 3150, "pitch": 60, "duration": 6, "velocity": 92}, {"time": 3156, "pitch": 51, "duration": 8, "velocity": 87}, {"time": 3162, "pitch": 56, "duration": 3, "velocity": 89}, {"time": 3162, "pitch": 60, "duration": 11, "velocity": 102}, {"time": 3162, "pitch": 63, "duration": 11, "velocity": 97}, {"time": 3168, "pitch": 56, "duration": 5, "velocity": 108}, {"time": 3174, "pitch": 49, "duration": 22, "velocity": 102}, {"time": 3174, "pitch": 56, "duration": 3, "velocity": 97}, {"time": 3174, "pitch": 61, "duration": 7, "velocity": 105}, {"time": 3180, "pitch": 56, "duration": 4, "velocity": 102}, {"time": 3186, "pitch": 56, "duration": 1, "velocity": 66}, {"time": 3186, "pitch": 61, "duration": 7, "velocity": 114}, {"time": 3186, "pitch": 65, "duration": 7, "velocity": 114}, {"time": 3192, "pitch": 56, "duration": 2, "velocity": 105}, {"time": 3198, "pitch": 46, "duration": 19, "velocity": 97}, {"time": 3198, "pitch": 58, "duration": 3, "velocity": 102}, {"time": 3198, "pitch": 61, "duration": 6, "velocity": 100}, {"time": 3204, "pitch": 58, "duration": 5, "velocity": 114}, {"time": 3210, "pitch": 61, "duration": 6, "velocity": 97}, {"time": 3210, "pitch": 65, "duration": 6, "velocity": 102}, {"time": 3216, "pitch": 58, "duration": 7, "velocity": 111}, {"time": 3222, "pitch": 42, "duration": 18, "velocity": 94}, {"time": 3222, "pitch": 61, "duration": 6, "velocity": 87}, {"time": 3228, "pitch": 54, "duration": 4, "velocity": 97}, {"time": 3234, "pitch": 49, "duration": 8, "velocity": 62}, {"time": 3234, "pitch": 54, "duration": 1, "velocity": 64}, {"time": 3234, "pitch": 58, "duration": 6, "velocity": 105}, {"time": 3234, "pitch": 61, "duration": 7, "velocity": 102}, {"time": 3240, "pitch": 54, "duration": 2, "velocity": 105}, {"time": 3246, "pitch": 44, "duration": 20, "velocity": 100}, {"time": 3246, "pitch": 56, "duration": 3, "velocity": 89}, {"time": 3246, "pitch": 60, "duration": 6, "velocity": 102}, {"time": 3252, "pitch": 56, "duration": 5, "velocity": 89}, {"time": 3258, "pitch": 63, "duration": 6, "velocity": 92}, {"time": 3264, "pitch": 61, "duration": 2, "velocity": 102}, {"time": 3270, "pitch": 49, "duration": 19, "velocity": 102}, {"time": 3270, "pitch": 56, "duration": 2, "velocity": 78}, {"time": 3270, "pitch": 61, "duration": 7, "velocity": 87}, {"time": 3270, "pitch": 65, "duration": 8, "velocity": 92}, {"time": 3276, "pitch": 56, "duration": 4, "velocity": 66}, {"time": 3282, "pitch": 61, "duration": 3, "velocity": 102}, {"time": 3282, "pitch": 65, "duration": 7, "velocity": 102}, {"time": 3288, "pitch": 63, "duration": 4, "velocity": 87}, {"time": 3294, "pitch": 46, "duration": 18, "velocity": 89}, {"time": 3294, "pitch": 58, "duration": 6, "velocity": 94}, {"time": 3294, "pitch": 61, "duration": 7, "velocity": 94}, {"time": 3300, "pitch": 53, "duration": 11, "velocity": 84}, {"time": 3306, "pitch": 58, "duration": 2, "velocity": 102}, {"time": 3306, "pitch": 61, "duration": 5, "velocity": 114}, {"time": 3306, "pitch": 65, "duration": 7, "velocity": 102}, {"time": 3312, "pitch": 58, "duration": 2, "velocity": 108}, {"time": 3318, "pitch": 42, "duration": 18, "velocity": 94}, {"time": 3318, "pitch": 54, "duration": 9, "velocity": 89}, {"time": 3318, "pitch": 58, "duration": 7, "velocity": 89}, {"time": 3324, "pitch": 49, "duration": 13, "velocity": 69}, {"time": 3330, "pitch": 58, "duration": 8, "velocity": 100}, {"time": 3330, "pitch": 61, "duration": 7, "velocity": 111}, {"time": 3336, "pitch": 54, "duration": 3, "velocity": 100}, {"time": 3342, "pitch": 53, "duration": 14, "velocity": 105}, {"time": 3342, "pitch": 60, "duration": 3, "velocity": 94}, {"time": 3342, "pitch": 65, "duration": 7, "velocity": 89}, {"time": 3345, "pitch": 60, "duration": 1, "velocity": 87}, {"time": 3354, "pitch": 60, "duration": 4, "velocity": 108}, {"time": 3354, "pitch": 65, "duration": 3, "velocity": 114}, {"time": 3354, "pitch": 68, "duration": 3, "velocity": 100}, {"time": 3366, "pitch": 42, "duration": 3, "velocity": 97}, {"time": 3366, "pitch": 54, "duration": 3, "velocity": 89}, {"time": 3366, "pitch": 58, "duration": 3, "velocity": 102}, {"time": 3366, "pitch": 61, "duration": 3, "velocity": 89}, {"time": 3378, "pitch": 53, "duration": 9, "velocity": 105}, {"time": 3378, "pitch": 60, "duration": 6, "velocity": 89}, {"time": 3378, "pitch": 65, "duration": 5, "velocity": 84}, {"time": 3378, "pitch": 68, "duration": 7, "velocity": 89}, {"time": 3390, "pitch": 51, "duration": 10, "velocity": 105}, {"time": 3390, "pitch": 58, "duration": 10, "velocity": 94}, {"time": 3390, "pitch": 63, "duration": 10, "velocity": 92}, {"time": 3390, "pitch": 66, "duration": 1, "velocity": 82}, {"time": 3402, "pitch": 44, "duration": 9, "velocity": 100}, {"time": 3402, "pitch": 56, "duration": 9, "velocity": 84}, {"time": 3402, "pitch": 60, "duration": 8, "velocity": 97}, {"time": 3414, "pitch": 32, "duration": 45, "velocity": 76}, {"time": 3414, "pitch": 44, "duration": 45, "velocity": 100}, {"time": 3414, "pitch": 56, "duration": 45, "velocity": 76}, {"time": 3414, "pitch": 60, "duration": 44, "velocity": 89}, {"time": 3414, "pitch": 68, "duration": 46, "velocity": 97}, {"time": 3462, "pitch": 49, "duration": 20, "velocity": 111}, {"time": 3462, "pitch": 56, "duration": 3, "velocity": 87}, {"time": 3462, "pitch": 61, "duration": 8, "velocity": 89}, {"time": 3468, "pitch": 56, "duration": 3, "velocity": 48}, {"time": 3474, "pitch": 56, "duration": 2, "velocity": 87}, {"time": 3474, "pitch": 61, "duration": 8, "velocity": 97}, {"time": 3474, "pitch": 65, "duration": 7, "velocity": 97}, {"time": 3480, "pitch": 56, "duration": 5, "velocity": 51}, {"time": 3486, "pitch": 49, "duration": 15, "velocity": 89}, {"time": 3486, "pitch": 56, "duration": 1, "velocity": 62}, {"time": 3486, "pitch": 61, "duration": 7, "velocity": 76}, {"time": 3486, "pitch": 65, "duration": 7, "velocity": 92}, {"time": 3492, "pitch": 56, "duration": 3, "velocity": 80}, {"time": 3498, "pitch": 56, "duration": 9, "velocity": 102}, {"time": 3498, "pitch": 61, "duration": 10, "velocity": 111}, {"time": 3498, "pitch": 65, "duration": 10, "velocity": 108}, {"time": 3504, "pitch": 44, "duration": 8, "velocity": 111}, {"time": 3510, "pitch": 49, "duration": 22, "velocity": 102}, {"time": 3510, "pitch": 56, "duration": 3, "velocity": 97}, {"time": 3510, "pitch": 61, "duration": 7, "velocity": 105}, {"time": 3516, "pitch": 56, "duration": 4, "velocity": 102}, {"time": 3522, "pitch": 56, "duration": 1, "velocity": 66}, {"time": 3522, "pitch": 61, "duration": 7, "velocity": 114}, {"time": 3522, "pitch": 65, "duration": 7, "velocity": 114}, {"time": 3528, "pitch": 56, "duration": 2, "velocity": 105}, {"time": 3534, "pitch": 46, "duration": 19, "velocity": 97}, {"time": 3534, "pitch": 58, "duration": 3, "velocity": 102}, {"time": 3534, "pitch": 61, "duration": 6, "velocity": 100}, {"time": 3540, "pitch": 58, "duration": 5, "velocity": 114}, {"time": 3546, "pitch": 61, "duration": 6, "velocity": 97}, {"time": 3546, "pitch": 65, "duration": 6, "velocity": 102}, {"time": 3552, "pitch": 58, "duration": 7, "velocity": 111}, {"time": 3558, "pitch": 42, "duration": 18, "velocity": 94}, {"time": 3558, "pitch": 61, "duration": 6, "velocity": 87}, {"time": 3564, "pitch": 54, "duration": 4, "velocity": 97}, {"time": 3570, "pitch": 49, "duration": 8, "velocity": 62}, {"time": 3570, "pitch": 54, "duration": 1, "velocity": 64}, {"time": 3570, "pitch": 58, "duration": 6, "velocity": 105}, {"time": 3570, "pitch": 61, "duration": 7, "velocity": 102}, {"time": 3576, "pitch": 54, "duration": 2, "velocity": 105}, {"time": 3582, "pitch": 44, "duration": 20, "velocity": 100}, {"time": 3582, "pitch": 56, "duration": 3, "velocity": 89}, {"time": 3582, "pitch": 60, "duration": 6, "velocity": 102}, {"time": 3588, "pitch": 56, "duration": 5, "velocity": 89}, {"time": 3594, "pitch": 63, "duration": 6, "velocity": 92}, {"time": 3600, "pitch": 61, "duration": 2, "velocity": 102}, {"time": 3606, "pitch": 49, "duration": 19, "velocity": 102}, {"time": 3606, "pitch": 56, "duration": 2, "velocity": 78}, {"time": 3606, "pitch": 61, "duration": 7, "velocity": 87}, {"time": 3606, "pitch": 65, "duration": 8, "velocity": 92}, {"time": 3612, "pitch": 56, "duration": 4, "velocity": 66}, {"time": 3618, "pitch": 61, "duration": 3, "velocity": 102}, {"time": 3618, "pitch": 65, "duration": 7, "velocity": 102}, {"time": 3624, "pitch": 63, "duration": 4, "velocity": 87}, {"time": 3630, "pitch": 46, "duration": 18, "velocity": 89}, {"time": 3630, "pitch": 58, "duration": 6, "velocity": 94}, {"time": 3630, "pitch": 61, "duration": 7, "velocity": 94}, {"time": 3636, "pitch": 53, "duration": 11, "velocity": 84}, {"time": 3642, "pitch": 58, "duration": 2, "velocity": 102}, {"time": 3642, "pitch": 61, "duration": 5, "velocity": 114}, {"time": 3642, "pitch": 65, "duration": 7, "velocity": 102}, {"time": 3648, "pitch": 58, "duration": 2, "velocity": 108}, {"time": 3654, "pitch": 42, "duration": 18, "velocity": 94}, {"time": 3654, "pitch": 54, "duration": 9, "velocity": 89}, {"time": 3654, "pitch": 58, "duration": 7, "velocity": 89}, {"time": 3660, "pitch": 49, "duration": 13, "velocity": 69}, {"time": 3666, "pitch": 58, "duration": 8, "velocity": 100}, {"time": 3666, "pitch": 61, "duration": 7, "velocity": 111}, {"time": 3672, "pitch": 54, "duration": 3, "velocity": 100}, {"time": 3678, "pitch": 44, "duration": 21, "velocity": 94}, {"time": 3678, "pitch": 56, "duration": 3, "velocity": 92}, {"time": 3678, "pitch": 60, "duration": 6, "velocity": 105}, {"time": 3684, "pitch": 56, "duration": 4, "velocity": 108}, {"time": 3690, "pitch": 56, "duration": 6, "velocity": 100}, {"time": 3690, "pitch": 60, "duration": 6, "velocity": 105}, {"time": 3690, "pitch": 63, "duration": 6, "velocity": 97}, {"time": 3696, "pitch": 61, "duration": 3, "velocity": 58}, {"time": 3702, "pitch": 49, "duration": 20, "velocity": 84}, {"time": 3702, "pitch": 56, "duration": 3, "velocity": 82}, {"time": 3702, "pitch": 61, "duration": 9, "velocity": 87}, {"time": 3702, "pitch": 65, "duration": 8, "velocity": 94}, {"time": 3708, "pitch": 56, "duration": 4, "velocity": 76}, {"time": 3714, "pitch": 56, "duration": 5, "velocity": 100}, {"time": 3714, "pitch": 61, "duration": 3, "velocity": 108}, {"time": 3714, "pitch": 65, "duration": 7, "velocity": 100}, {"time": 3720, "pitch": 63, "duration": 5, "velocity": 100}, {"time": 3726, "pitch": 46, "duration": 22, "velocity": 94}, {"time": 3726, "pitch": 58, "duration": 9, "velocity": 92}, {"time": 3726, "pitch": 61, "duration": 5, "velocity": 94}, {"time": 3732, "pitch": 53, "duration": 15, "velocity": 80}, {"time": 3738, "pitch": 61, "duration": 2, "velocity": 108}, {"time": 3738, "pitch": 65, "duration": 3, "velocity": 108}, {"time": 3744, "pitch": 60, "duration": 3, "velocity": 67}, {"time": 3750, "pitch": 42, "duration": 19, "velocity": 97}, {"time": 3750, "pitch": 54, "duration": 7, "velocity": 92}, {"time": 3750, "pitch": 58, "duration": 7, "velocity": 100}, {"time": 3756, "pitch": 49, "duration": 16, "velocity": 94}, {"time": 3762, "pitch": 54, "duration": 7, "velocity": 100}, {"time": 3762, "pitch": 61, "duration": 6, "velocity": 92}, {"time": 3768, "pitch": 58, "duration": 4, "velocity": 114}, {"time": 3774, "pitch": 44, "duration": 19, "velocity": 102}, {"time": 3774, "pitch": 56, "duration": 6, "velocity": 92}, {"time": 3774, "pitch": 60, "duration": 6, "velocity": 92}, {"time": 3780, "pitch": 51, "duration": 8, "velocity": 87}, {"time": 3786, "pitch": 56, "duration": 3, "velocity": 89}, {"time": 3786, "pitch": 60, "duration": 11, "velocity": 102}, {"time": 3786, "pitch": 63, "duration": 11, "velocity": 97}, {"time": 3792, "pitch": 56, "duration": 5, "velocity": 108}, {"time": 3798, "pitch": 49, "duration": 22, "velocity": 102}, {"time": 3798, "pitch": 56, "duration": 3, "velocity": 97}, {"time": 3798, "pitch": 61, "duration": 7, "velocity": 105}, {"time": 3804, "pitch": 56, "duration": 4, "velocity": 102}, {"time": 3810, "pitch": 56, "duration": 1, "velocity": 66}, {"time": 3810, "pitch": 61, "duration": 7, "velocity": 114}, {"time": 3810, "pitch": 65, "duration": 7, "velocity": 114}, {"time": 3816, "pitch": 56, "duration": 2, "velocity": 105}, {"time": 3822, "pitch": 46, "duration": 19, "velocity": 97}, {"time": 3822, "pitch": 58, "duration": 3, "velocity": 102}, {"time": 3822, "pitch": 61, "duration": 6, "velocity": 100}, {"time": 3828, "pitch": 58, "duration": 5, "velocity": 114}, {"time": 3834, "pitch": 61, "duration": 6, "velocity": 97}, {"time": 3834, "pitch": 65, "duration": 6, "velocity": 102}, {"time": 3840, "pitch": 58, "duration": 7, "velocity": 111}, {"time": 3846, "pitch": 42, "duration": 18, "velocity": 94}, {"time": 3846, "pitch": 61, "duration": 6, "velocity": 87}, {"time": 3852, "pitch": 54, "duration": 4, "velocity": 97}, {"time": 3858, "pitch": 49, "duration": 8, "velocity": 62}, {"time": 3858, "pitch": 54, "duration": 1, "velocity": 64}, {"time": 3858, "pitch": 58, "duration": 6, "velocity": 105}, {"time": 3858, "pitch": 61, "duration": 7, "velocity": 102}, {"time": 3864, "pitch": 54, "duration": 2, "velocity": 105}, {"time": 3870, "pitch": 44, "duration": 20, "velocity": 100}, {"time": 3870, "pitch": 56, "duration": 3, "velocity": 89}, {"time": 3870, "pitch": 60, "duration": 6, "velocity": 102}, {"time": 3876, "pitch": 56, "duration": 5, "velocity": 89}, {"time": 3882, "pitch": 63, "duration": 6, "velocity": 92}, {"time": 3888, "pitch": 61, "duration": 2, "velocity": 102}, {"time": 3894, "pitch": 49, "duration": 19, "velocity": 102}, {"time": 3894, "pitch": 56, "duration": 2, "velocity": 78}, {"time": 3894, "pitch": 61, "duration": 7, "velocity": 87}, {"time": 3894, "pitch": 65, "duration": 8, "velocity": 92}, {"time": 3900, "pitch": 56, "duration": 4, "velocity": 66}, {"time": 3906, "pitch": 61, "duration": 3, "velocity": 102}, {"time": 3906, "pitch": 65, "duration": 7, "velocity": 102}, {"time": 3912, "pitch": 63, "duration": 4, "velocity": 87}, {"time": 3918, "pitch": 46, "duration": 18, "velocity": 89}, {"time": 3918, "pitch": 58, "duration": 6, "velocity": 94}, {"time": 3918, "pitch": 61, "duration": 7, "velocity": 94}, {"time": 3924, "pitch": 53, "duration": 11, "velocity": 84}, {"time": 3930, "pitch": 58, "duration": 2, "velocity": 102}, {"time": 3930, "pitch": 61, "duration": 5, "velocity": 114}, {"time": 3930, "pitch": 65, "duration": 7, "velocity": 102}, {"time": 3936, "pitch": 58, "duration": 2, "velocity": 108}, {"time": 3942, "pitch": 42, "duration": 18, "velocity": 94}, {"time": 3942, "pitch": 54, "duration": 9, "velocity": 89}, {"time": 3942, "pitch": 58, "duration": 7, "velocity": 89}, {"time": 3948, "pitch": 49, "duration": 13, "velocity": 69}, {"time": 3954, "pitch": 58, "duration": 8, "velocity": 100}, {"time": 3954, "pitch": 61, "duration": 7, "velocity": 111}, {"time": 3960, "pitch": 54, "duration": 3, "velocity": 100}, {"time": 3966, "pitch": 44, "duration": 21, "velocity": 94}, {"time": 3966, "pitch": 56, "duration": 3, "velocity": 92}, {"time": 3966, "pitch": 60, "duration": 6, "velocity": 105}, {"time": 3972, "pitch": 56, "duration": 4, "velocity": 108}, {"time": 3978, "pitch": 56, "duration": 6, "velocity": 100}, {"time": 3978, "pitch": 60, "duration": 6, "velocity": 105}, {"time": 3978, "pitch": 63, "duration": 6, "velocity": 97}, {"time": 3984, "pitch": 61, "duration": 3, "velocity": 58}, {"time": 3990, "pitch": 49, "duration": 20, "velocity": 84}, {"time": 3990, "pitch": 56, "duration": 3, "velocity": 82}, {"time": 3990, "pitch": 61, "duration": 9, "velocity": 87}, {"time": 3990, "pitch": 65, "duration": 8, "velocity": 94}, {"time": 3996, "pitch": 56, "duration": 4, "velocity": 76}, {"time": 4002, "pitch": 56, "duration": 5, "velocity": 100}, {"time": 4002, "pitch": 61, "duration": 3, "velocity": 108}, {"time": 4002, "pitch": 65, "duration": 7, "velocity": 100}, {"time": 4008, "pitch": 63, "duration": 5, "velocity": 100}, {"time": 4014, "pitch": 46, "duration": 22, "velocity": 94}, {"time": 4014, "pitch": 58, "duration": 9, "velocity": 92}, {"time": 4014, "pitch": 61, "duration": 5, "velocity": 94}, {"time": 4020, "pitch": 53, "duration": 15, "velocity": 80}, {"time": 4026, "pitch": 61, "duration": 2, "velocity": 108}, {"time": 4026, "pitch": 65, "duration": 3, "velocity": 108}, {"time": 4032, "pitch": 60, "duration": 3, "velocity": 67}, {"time": 4038, "pitch": 42, "duration": 19, "velocity": 97}, {"time": 4038, "pitch": 54, "duration": 7, "velocity": 92}, {"time": 4038, "pitch": 58, "duration": 7, "velocity": 100}, {"time": 4044, "pitch": 49, "duration": 16, "velocity": 94}, {"time": 4050, "pitch": 54, "duration": 7, "velocity": 100}, {"time": 4050, "pitch": 61, "duration": 6, "velocity": 92}, {"time": 4056, "pitch": 58, "duration": 4, "velocity": 114}, {"time": 4062, "pitch": 44, "duration": 19, "velocity": 102}, {"time": 4062, "pitch": 56, "duration": 6, "velocity": 92}, {"time": 4062, "pitch": 60, "duration": 6, "velocity": 92}, {"time": 4068, "pitch": 51, "duration": 8, "velocity": 87}, {"time": 4074, "pitch": 56, "duration": 3, "velocity": 89}, {"time": 4074, "pitch": 60, "duration": 11, "velocity": 102}, {"time": 4074, "pitch": 63, "duration": 11, "velocity": 97}, {"time": 4080, "pitch": 56, "duration": 5, "velocity": 108}, {"time": 4086, "pitch": 49, "duration": 22, "velocity": 102}, {"time": 4086, "pitch": 56, "duration": 3, "velocity": 97}, {"time": 4086, "pitch": 61, "duration": 7, "velocity": 105}, {"time": 4092, "pitch": 56, "duration": 4, "velocity": 102}, {"time": 4098, "pitch": 56, "duration": 1, "velocity": 66}, {"time": 4098, "pitch": 61, "duration": 7, "velocity": 114}, {"time": 4098, "pitch": 65, "duration": 7, "velocity": 114}, {"time": 4104, "pitch": 56, "duration": 2, "velocity": 105}, {"time": 4110, "pitch": 46, "duration": 19, "velocity": 97}, {"time": 4110, "pitch": 58, "duration": 3, "velocity": 102}, {"time": 4110, "pitch": 61, "duration": 6, "velocity": 100}, {"time": 4116, "pitch": 58, "duration": 5, "velocity": 114}, {"time": 4122, "pitch": 61, "duration": 6, "velocity": 97}, {"time": 4122, "pitch": 65, "duration": 6, "velocity": 102}, {"time": 4128, "pitch": 58, "duration": 7, "velocity": 111}, {"time": 4134, "pitch": 42, "duration": 18, "velocity": 94}, {"time": 4134, "pitch": 61, "duration": 6, "velocity": 87}, {"time": 4140, "pitch": 54, "duration": 4, "velocity": 97}, {"time": 4146, "pitch": 49, "duration": 8, "velocity": 62}, {"time": 4146, "pitch": 54, "duration": 1, "velocity": 64}, {"time": 4146, "pitch": 58, "duration": 6, "velocity": 105}, {"time": 4146, "pitch": 61, "duration": 7, "velocity": 102}, {"time": 4152, "pitch": 54, "duration": 2, "velocity": 105}, {"time": 4158, "pitch": 44, "duration": 20, "velocity": 100}, {"time": 4158, "pitch": 56, "duration": 3, "velocity": 89}, {"time": 4158, "pitch": 60, "duration": 6, "velocity": 102}, {"time": 4164, "pitch": 56, "duration": 5, "velocity": 89}, {"time": 4170, "pitch": 63, "duration": 6, "velocity": 92}, {"time": 4176, "pitch": 61, "duration": 2, "velocity": 102}, {"time": 4182, "pitch": 49, "duration": 19, "velocity": 102}, {"time": 4182, "pitch": 56, "duration": 2, "velocity": 78}, {"time": 4182, "pitch": 61, "duration": 7, "velocity": 87}, {"time": 4182, "pitch": 65, "duration": 8, "velocity": 92}, {"time": 4188, "pitch": 56, "duration": 4, "velocity": 66}, {"time": 4194, "pitch": 61, "duration": 3, "velocity": 102}, {"time": 4194, "pitch": 65, "duration": 7, "velocity": 102}, {"time": 4200, "pitch": 63, "duration": 4, "velocity": 87}, {"time": 4206, "pitch": 46, "duration": 18, "velocity": 89}, {"time": 4206, "pitch": 58, "duration": 6, "velocity": 94}, {"time": 4206, "pitch": 61, "duration": 7, "velocity": 94}, {"time": 4212, "pitch": 53, "duration": 11, "velocity": 84}, {"time": 4218, "pitch": 58, "duration": 2, "velocity": 102}, {"time": 4218, "pitch": 61, "duration": 5, "velocity": 114}, {"time": 4218, "pitch": 65, "duration": 7, "velocity": 102}, {"time": 4224, "pitch": 58, "duration": 2, "velocity": 108}, {"time": 4230, "pitch": 42, "duration": 18, "velocity": 94}, {"time": 4230, "pitch": 54, "duration": 9, "velocity": 89}, {"time": 4230, "pitch": 58, "duration": 7, "velocity": 89}, {"time": 4236, "pitch": 49, "duration": 13, "velocity": 69}, {"time": 4242, "pitch": 58, "duration": 8, "velocity": 100}, {"time": 4242, "pitch": 61, "duration": 7, "velocity": 111}, {"time": 4248, "pitch": 54, "duration": 3, "velocity": 100}, {"time": 4254, "pitch": 53, "duration": 14, "velocity": 105}, {"time": 4254, "pitch": 60, "duration": 3, "velocity": 94}, {"time": 4254, "pitch": 65, "duration": 7, "velocity": 89}, {"time": 4257, "pitch": 60, "duration": 1, "velocity": 87}, {"time": 4266, "pitch": 60, "duration": 4, "velocity": 108}, {"time": 4266, "pitch": 65, "duration": 3, "velocity": 114}, {"time": 4266, "pitch": 68, "duration": 3, "velocity": 100}, {"time": 4278, "pitch": 42, "duration": 3, "velocity": 97}, {"time": 4278, "pitch": 54, "duration": 3, "velocity": 89}, {"time": 4278, "pitch": 58, "duration": 3, "velocity": 102}, {"time": 4278, "pitch": 61, "duration": 3, "velocity": 89}, {"time": 4290, "pitch": 53, "duration": 9, "velocity": 105}, {"time": 4290, "pitch": 60, "duration": 6, "velocity": 89}, {"time": 4290, "pitch": 65, "duration": 5, "velocity": 84}, {"time": 4290, "pitch": 68, "duration": 7, "velocity": 89}, {"time": 4302, "pitch": 51, "duration": 10, "velocity": 105}, {"time": 4302, "pitch": 58, "duration": 10, "velocity": 94}, {"time": 4302, "pitch": 63, "duration": 10, "velocity": 92}, {"time": 4302, "pitch": 66, "duration": 1, "velocity": 82}, {"time": 4314, "pitch": 44, "duration": 9, "velocity": 100}, {"time": 4314, "pitch": 56, "duration": 9, "velocity": 84}, {"time": 4314, "pitch": 60, "duration": 8, "velocity": 97}, {"time": 4326, "pitch": 32, "duration": 45, "velocity": 76}, {"time": 4326, "pitch": 44, "duration": 45, "velocity": 100}, {"time": 4326, "pitch": 56, "duration": 45, "velocity": 76}, {"time": 4326, "pitch": 60, "duration": 44, "velocity": 89}, {"time": 4326, "pitch": 68, "duration": 46, "velocity": 97}, {"time": 4374, "pitch": 49, "duration": 42, "velocity": 97}, {"time": 4374, "pitch": 61, "duration": 14, "velocity": 97}, {"time": 4380, "pitch": 53, "duration": 9, "velocity": 38}, {"time": 4386, "pitch": 56, "duration": 14, "velocity": 105}, {"time": 4392, "pitch": 53, "duration": 8, "velocity": 26}, {"time": 4398, "pitch": 65, "duration": 13, "velocity": 97}, {"time": 4404, "pitch": 53, "duration": 11, "velocity": 40}, {"time": 4410, "pitch": 61, "duration": 6, "velocity": 97}, {"time": 4416, "pitch": 56, "duration": 3, "velocity": 102}, {"time": 4422, "pitch": 42, "duration": 17, "velocity": 89}, {"time": 4422, "pitch": 54, "duration": 7, "velocity": 78}, {"time": 4422, "pitch": 58, "duration": 13, "velocity": 89}, {"time": 4428, "pitch": 49, "duration": 12, "velocity": 44}, {"time": 4434, "pitch": 54, "duration": 7, "velocity": 97}, {"time": 4440, "pitch": 58, "duration": 5, "velocity": 78}, {"time": 4446, "pitch": 44, "duration": 17, "velocity": 102}, {"time": 4446, "pitch": 56, "duration": 9, "velocity": 87}, {"time": 4446, "pitch": 60, "duration": 8, "velocity": 89}, {"time": 4452, "pitch": 51, "duration": 11, "velocity": 58}, {"time": 4458, "pitch": 56, "duration": 4, "velocity": 82}, {"time": 4458, "pitch": 60, "duration": 3, "velocity": 92}, {"time": 4470, "pitch": 49, "duration": 43, "velocity": 89}, {"time": 4470, "pitch": 61, "duration": 13, "velocity": 89}, {"time": 4470, "pitch": 65, "duration": 17, "velocity": 89}, {"time": 4476, "pitch": 53, "duration": 36, "velocity": 57}, {"time": 4482, "pitch": 56, "duration": 13, "velocity": 89}, {"time": 4488, "pitch": 61, "duration": 7, "velocity": 76}, {"time": 4494, "pitch": 65, "duration": 12, "velocity": 94}, {"time": 4500, "pitch": 56, "duration": 4, "velocity": 34}, {"time": 4506, "pitch": 56, "duration": 2, "velocity": 87}, {"time": 4506, "pitch": 61, "duration": 7, "velocity": 100}, {"time": 4512, "pitch": 56, "duration": 4, "velocity": 78}, {"time": 4518, "pitch": 42, "duration": 19, "velocity": 82}, {"time": 4518, "pitch": 58, "duration": 10, "velocity": 80}, {"time": 4518, "pitch": 61, "duration": 6, "velocity": 78}, {"time": 4524, "pitch": 54, "duration": 7, "velocity": 100}, {"time": 4530, "pitch": 61, "duration": 8, "velocity": 92}, {"time": 4536, "pitch": 54, "duration": 3, "velocity": 80}, {"time": 4542, "pitch": 44, "duration": 23, "velocity": 76}, {"time": 4542, "pitch": 56, "duration": 12, "velocity": 76}, {"time": 4542, "pitch": 60, "duration": 13, "velocity": 87}, {"time": 4548, "pitch": 51, "duration": 17, "velocity": 80}, {"time": 4554, "pitch": 63, "duration": 11, "velocity": 92}, {"time": 4560, "pitch": 56, "duration": 5, "velocity": 94}, {"time": 4565, "pitch": 49, "duration": 27, "velocity": 100}, {"time": 4567, "pitch": 56, "duration": 25, "velocity": 64}, {"time": 4569, "pitch": 61, "duration": 23, "velocity": 80}, {"time": 4570, "pitch": 65, "duration": 22, "velocity": 69}, {"time": 4571, "pitch": 68, "duration": 21, "velocity": 76}, {"time": 4573, "pitch": 73, "duration": 20, "velocity": 82}], "annotations": [{"time": 7, "annotation": {"number": 64, "value": 127}, "group": "control_change"}, {"time": 56, "annotation": {"number": 64, "value": 0}, "group": "control_change"}, {"time": 61, "annotation": {"number": 64, "value": 127}, "group": "control_change"}, {"time": 78, "annotation": {"number": 64, "value": 0}, "group": "control_change"}, {"time": 85, "annotation": {"number": 64, "value": 127}, "group": "control_change"}, {"time": 101, "annotation": {"number": 64, "value": 0}, "group": "control_change"}, {"time": 106, "annotation": {"number": 64, "value": 127}, "group": "control_change"}, {"time": 151, "annotation": {"number": 64, "value": 0}, "group": "control_change"}, {"time": 156, "annotation": {"number": 64, "value": 127}, "group": "control_change"}, {"time": 173, "annotation": {"number": 64, "value": 0}, "group": "control_change"}, {"time": 180, "annotation": {"number": 64, "value": 127}, "group": "control_change"}, {"time": 196, "annotation": {"number": 64, "value": 0}, "group": "control_change"}, {"time": 203, "annotation": {"number": 64, "value": 127}, "group": "control_change"}, {"time": 245, "annotation": {"number": 64, "value": 0}, "group": "control_change"}, {"time": 249, "annotation": {"number": 64, "value": 127}, "group": "control_change"}, {"time": 270, "annotation": {"number": 64, "value": 0}, "group": "control_change"}, {"time": 276, "annotation": {"number": 64, "value": 127}, "group": "control_change"}, {"time": 292, "annotation": {"number": 64, "value": 0}, "group": "control_change"}, {"time": 304, "annotation": {"number": 64, "value": 127}, "group": "control_change"}, {"time": 343, "annotation": {"number": 64, "value": 0}, "group": "control_change"}, {"time": 349, "annotation": {"number": 64, "value": 127}, "group": "control_change"}, {"time": 366, "annotation": {"number": 64, "value": 0}, "group": "control_change"}, {"time": 373, "annotation": {"number": 64, "value": 127}, "group": "control_change"}, {"time": 386, "annotation": {"number": 64, "value": 0}, "group": "control_change"}, {"time": 389, "annotation": {"number": 64, "value": 127}, "group": "control_change"}, {"time": 411, "annotation": {"number": 64, "value": 0}, "group": "control_change"}, {"time": 417, "annotation": {"number": 64, "value": 127}, "group": "control_change"}, {"time": 436, "annotation": {"number": 64, "value": 0}, "group": "control_change"}, {"time": 441, "annotation": {"number": 64, "value": 127}, "group": "control_change"}, {"time": 462, "annotation": {"number": 64, "value": 0}, "group": "control_change"}, {"time": 467, "annotation": {"number": 64, "value": 127}, "group": "control_change"}, {"time": 482, "annotation": {"number": 64, "value": 0}, "group": "control_change"}, {"time": 499, "annotation": {"number": 64, "value": 127}, "group": "control_change"}, {"time": 510, "annotation": {"number": 64, "value": 0}, "group": "control_change"}, {"time": 517, "annotation": {"number": 64, "value": 127}, "group": "control_change"}, {"time": 532, "annotation": {"number": 64, "value": 0}, "group": "control_change"}, {"time": 537, "annotation": {"number": 64, "value": 127}, "group": "control_change"}, {"time": 557, "annotation": {"number": 64, "value": 0}, "group": "control_change"}, {"time": 563, "annotation": {"number": 64, "value": 127}, "group": "control_change"}, {"time": 579, "annotation": {"number": 64, "value": 0}, "group": "control_change"}, {"time": 586, "annotation": {"number": 64, "value": 127}, "group": "control_change"}, {"time": 632, "annotation": {"number": 64, "value": 0}, "group": "control_change"}, {"time": 640, "annotation": {"number": 64, "value": 127}, "group": "control_change"}, {"time": 678, "annotation": {"number": 64, "value": 0}, "group": "control_change"}, {"time": 684, "annotation": {"number": 64, "value": 127}, "group": "control_change"}, {"time": 724, "annotation": {"number": 64, "value": 0}, "group": "control_change"}, {"time": 744, "annotation": {"number": 64, "value": 127}, "group": "control_change"}, {"time": 774, "annotation": {"number": 64, "value": 0}, "group": "control_change"}, {"time": 777, "annotation": {"number": 64, "value": 127}, "group": "control_change"}, {"time": 798, "annotation": {"number": 64, "value": 0}, "group": "control_change"}, {"time": 805, "annotation": {"number": 64, "value": 127}, "group": "control_change"}, {"time": 823, "annotation": {"number": 64, "value": 0}, "group": "control_change"}, {"time": 829, "annotation": {"number": 64, "value": 127}, "group": "control_change"}, {"time": 845, "annotation": {"number": 64, "value": 0}, "group": "control_change"}, {"time": 852, "annotation": {"number": 64, "value": 127}, "group": "control_change"}, {"time": 869, "annotation": {"number": 64, "value": 0}, "group": "control_change"}, {"time": 875, "annotation": {"number": 64, "value": 127}, "group": "control_change"}, {"time": 893, "annotation": {"number": 64, "value": 0}, "group": "control_change"}, {"time": 900, "annotation": {"number": 64, "value": 127}, "group": "control_change"}, {"time": 917, "annotation": {"number": 64, "value": 0}, "group": "control_change"}, {"time": 924, "annotation": {"number": 64, "value": 127}, "group": "control_change"}, {"time": 942, "annotation": {"number": 64, "value": 0}, "group": "control_change"}, {"time": 948, "annotation": {"number": 64, "value": 127}, "group": "control_change"}, {"time": 965, "annotation": {"number": 64, "value": 0}, "group": "control_change"}, {"time": 967, "annotation": {"number": 64, "value": 127}, "group": "control_change"}, {"time": 993, "annotation": {"number": 64, "value": 0}, "group": "control_change"}, {"time": 997, "annotation": {"number": 64, "value": 127}, "group": "control_change"}, {"time": 1014, "annotation": {"number": 64, "value": 0}, "group": "control_change"}, {"time": 1020, "annotation": {"number": 64, "value": 127}, "group": "control_change"}, {"time": 1037, "annotation": {"number": 64, "value": 0}, "group": "control_change"}, {"time": 1038, "annotation": {"number": 64, "value": 127}, "group": "control_change"}, {"time": 1061, "annotation": {"number": 64, "value": 0}, "group": "control_change"}, {"time": 1065, "annotation": {"number": 64, "value": 127}, "group": "control_change"}, {"time": 1087, "annotation": {"number": 64, "value": 0}, "group": "control_change"}, {"time": 1093, "annotation": {"number": 64, "value": 127}, "group": "control_change"}, {"time": 1109, "annotation": {"number": 64, "value": 0}, "group": "control_change"}, {"time": 1116, "annotation": {"number": 64, "value": 127}, "group": "control_change"}, {"time": 1132, "annotation": {"number": 64, "value": 0}, "group": "control_change"}, {"time": 1139, "annotation": {"number": 64, "value": 127}, "group": "control_change"}, {"time": 1157, "annotation": {"number": 64, "value": 0}, "group": "control_change"}, {"time": 1160, "annotation": {"number": 64, "value": 127}, "group": "control_change"}, {"time": 1182, "annotation": {"number": 64, "value": 0}, "group": "control_change"}, {"time": 1187, "annotation": {"number": 64, "value": 127}, "group": "control_change"}, {"time": 1206, "annotation": {"number": 64, "value": 0}, "group": "control_change"}, {"time": 1209, "annotation": {"number": 64, "value": 127}, "group": "control_change"}, {"time": 1230, "annotation": {"number": 64, "value": 0}, "group": "control_change"}, {"time": 1235, "annotation": {"number": 64, "value": 127}, "group": "control_change"}, {"time": 1252, "annotation": {"number": 64, "value": 0}, "group": "control_change"}, {"time": 1255, "annotation": {"number": 64, "value": 127}, "group": "control_change"}, {"time": 1277, "annotation": {"number": 64, "value": 0}, "group": "control_change"}, {"time": 1282, "annotation": {"number": 64, "value": 127}, "group": "control_change"}, {"time": 1301, "annotation": {"number": 64, "value": 0}, "group": "control_change"}, {"time": 1306, "annotation": {"number": 64, "value": 127}, "group": "control_change"}, {"time": 1325, "annotation": {"number": 64, "value": 0}, "group": "control_change"}, {"time": 1330, "annotation": {"number": 64, "value": 127}, "group": "control_change"}, {"time": 1348, "annotation": {"number": 64, "value": 0}, "group": "control_change"}, {"time": 1355, "annotation": {"number": 64, "value": 127}, "group": "control_change"}, {"time": 1372, "annotation": {"number": 64, "value": 0}, "group": "control_change"}, {"time": 1378, "annotation": {"number": 64, "value": 127}, "group": "control_change"}, {"time": 1399, "annotation": {"number": 64, "value": 127}, "group": "control_change"}, {"time": 1418, "annotation": {"number": 64, "value": 0}, "group": "control_change"}, {"time": 1423, "annotation": {"number": 64, "value": 127}, "group": "control_change"}, {"time": 1442, "annotation": {"number": 64, "value": 0}, "group": "control_change"}, {"time": 1448, "annotation": {"number": 64, "value": 127}, "group": "control_change"}, {"time": 1470, "annotation": {"number": 64, "value": 0}, "group": "control_change"}, {"time": 1475, "annotation": {"number": 64, "value": 127}, "group": "control_change"}, {"time": 1494, "annotation": {"number": 64, "value": 0}, "group": "control_change"}, {"time": 1497, "annotation": {"number": 64, "value": 127}, "group": "control_change"}, {"time": 1518, "annotation": {"number": 64, "value": 0}, "group": "control_change"}, {"time": 1523, "annotation": {"number": 64, "value": 127}, "group": "control_change"}, {"time": 1540, "annotation": {"number": 64, "value": 0}, "group": "control_change"}, {"time": 1543, "annotation": {"number": 64, "value": 127}, "group": "control_change"}, {"time": 1565, "annotation": {"number": 64, "value": 0}, "group": "control_change"}, {"time": 1570, "annotation": {"number": 64, "value": 127}, "group": "control_change"}, {"time": 1589, "annotation": {"number": 64, "value": 0}, "group": "control_change"}, {"time": 1594, "annotation": {"number": 64, "value": 127}, "group": "control_change"}, {"time": 1613, "annotation": {"number": 64, "value": 0}, "group": "control_change"}, {"time": 1618, "annotation": {"number": 64, "value": 127}, "group": "control_change"}, {"time": 1636, "annotation": {"number": 64, "value": 0}, "group": "control_change"}, {"time": 1643, "annotation": {"number": 64, "value": 127}, "group": "control_change"}, {"time": 1660, "annotation": {"number": 64, "value": 0}, "group": "control_change"}, {"time": 1666, "annotation": {"number": 64, "value": 127}, "group": "control_change"}, {"time": 1687, "annotation": {"number": 64, "value": 127}, "group": "control_change"}, {"time": 1706, "annotation": {"number": 64, "value": 0}, "group": "control_change"}, {"time": 1711, "annotation": {"number": 64, "value": 127}, "group": "control_change"}, {"time": 1730, "annotation": {"number": 64, "value": 0}, "group": "control_change"}, {"time": 1736, "annotation": {"number": 64, "value": 127}, "group": "control_change"}, {"time": 1758, "annotation": {"number": 64, "value": 0}, "group": "control_change"}, {"time": 1763, "annotation": {"number": 64, "value": 127}, "group": "control_change"}, {"time": 1782, "annotation": {"number": 64, "value": 0}, "group": "control_change"}, {"time": 1785, "annotation": {"number": 64, "value": 127}, "group": "control_change"}, {"time": 1806, "annotation": {"number": 64, "value": 0}, "group": "control_change"}, {"time": 1811, "annotation": {"number": 64, "value": 127}, "group": "control_change"}, {"time": 1828, "annotation": {"number": 64, "value": 0}, "group": "control_change"}, {"time": 1831, "annotation": {"number": 64, "value": 127}, "group": "control_change"}, {"time": 1853, "annotation": {"number": 64, "value": 0}, "group": "control_change"}, {"time": 1858, "annotation": {"number": 64, "value": 127}, "group": "control_change"}, {"time": 1877, "annotation": {"number": 64, "value": 0}, "group": "control_change"}, {"time": 1882, "annotation": {"number": 64, "value": 127}, "group": "control_change"}, {"time": 1901, "annotation": {"number": 64, "value": 0}, "group": "control_change"}, {"time": 1903, "annotation": {"number": 64, "value": 127}, "group": "control_change"}, {"time": 1922, "annotation": {"number": 64, "value": 0}, "group": "control_change"}, {"time": 1926, "annotation": {"number": 64, "value": 127}, "group": "control_change"}, {"time": 1935, "annotation": {"number": 64, "value": 0}, "group": "control_change"}, {"time": 1939, "annotation": {"number": 64, "value": 127}, "group": "control_change"}, {"time": 1947, "annotation": {"number": 64, "value": 0}, "group": "control_change"}, {"time": 1964, "annotation": {"number": 64, "value": 127}, "group": "control_change"}, {"time": 1971, "annotation": {"number": 64, "value": 0}, "group": "control_change"}, {"time": 2027, "annotation": {"number": 64, "value": 127}, "group": "control_change"}, {"time": 2069, "annotation": {"number": 64, "value": 0}, "group": "control_change"}, {"time": 2073, "annotation": {"number": 64, "value": 127}, "group": "control_change"}, {"time": 2094, "annotation": {"number": 64, "value": 0}, "group": "control_change"}, {"time": 2100, "annotation": {"number": 64, "value": 127}, "group": "control_change"}, {"time": 2116, "annotation": {"number": 64, "value": 0}, "group": "control_change"}, {"time": 2117, "annotation": {"number": 64, "value": 127}, "group": "control_change"}, {"time": 2139, "annotation": {"number": 64, "value": 0}, "group": "control_change"}, {"time": 2145, "annotation": {"number": 64, "value": 127}, "group": "control_change"}, {"time": 2164, "annotation": {"number": 64, "value": 0}, "group": "control_change"}, {"time": 2169, "annotation": {"number": 64, "value": 127}, "group": "control_change"}, {"time": 2190, "annotation": {"number": 64, "value": 0}, "group": "control_change"}, {"time": 2195, "annotation": {"number": 64, "value": 127}, "group": "control_change"}, {"time": 2210, "annotation": {"number": 64, "value": 0}, "group": "control_change"}, {"time": 2227, "annotation": {"number": 64, "value": 127}, "group": "control_change"}, {"time": 2238, "annotation": {"number": 64, "value": 0}, "group": "control_change"}, {"time": 2245, "annotation": {"number": 64, "value": 127}, "group": "control_change"}, {"time": 2260, "annotation": {"number": 64, "value": 0}, "group": "control_change"}, {"time": 2265, "annotation": {"number": 64, "value": 127}, "group": "control_change"}, {"time": 2285, "annotation": {"number": 64, "value": 0}, "group": "control_change"}, {"time": 2291, "annotation": {"number": 64, "value": 127}, "group": "control_change"}, {"time": 2307, "annotation": {"number": 64, "value": 0}, "group": "control_change"}, {"time": 2314, "annotation": {"number": 64, "value": 127}, "group": "control_change"}, {"time": 2360, "annotation": {"number": 64, "value": 0}, "group": "control_change"}, {"time": 2368, "annotation": {"number": 64, "value": 127}, "group": "control_change"}, {"time": 2406, "annotation": {"number": 64, "value": 0}, "group": "control_change"}, {"time": 2412, "annotation": {"number": 64, "value": 127}, "group": "control_change"}, {"time": 2452, "annotation": {"number": 64, "value": 0}, "group": "control_change"}, {"time": 2472, "annotation": {"number": 64, "value": 127}, "group": "control_change"}, {"time": 2502, "annotation": {"number": 64, "value": 0}, "group": "control_change"}, {"time": 2507, "annotation": {"number": 64, "value": 127}, "group": "control_change"}, {"time": 2549, "annotation": {"number": 64, "value": 0}, "group": "control_change"}, {"time": 2553, "annotation": {"number": 64, "value": 127}, "group": "control_change"}, {"time": 2574, "annotation": {"number": 64, "value": 0}, "group": "control_change"}, {"time": 2580, "annotation": {"number": 64, "value": 127}, "group": "control_change"}, {"time": 2596, "annotation": {"number": 64, "value": 0}, "group": "control_change"}, {"time": 2600, "annotation": {"number": 64, "value": 127}, "group": "control_change"}, {"time": 2622, "annotation": {"number": 64, "value": 0}, "group": "control_change"}, {"time": 2627, "annotation": {"number": 64, "value": 127}, "group": "control_change"}, {"time": 2646, "annotation": {"number": 64, "value": 0}, "group": "control_change"}, {"time": 2649, "annotation": {"number": 64, "value": 127}, "group": "control_change"}, {"time": 2670, "annotation": {"number": 64, "value": 0}, "group": "control_change"}, {"time": 2675, "annotation": {"number": 64, "value": 127}, "group": "control_change"}, {"time": 2692, "annotation": {"number": 64, "value": 0}, "group": "control_change"}, {"time": 2695, "annotation": {"number": 64, "value": 127}, "group": "control_change"}, {"time": 2717, "annotation": {"number": 64, "value": 0}, "group": "control_change"}, {"time": 2722, "annotation": {"number": 64, "value": 127}, "group": "control_change"}, {"time": 2741, "annotation": {"number": 64, "value": 0}, "group": "control_change"}, {"time": 2746, "annotation": {"number": 64, "value": 127}, "group": "control_change"}, {"time": 2765, "annotation": {"number": 64, "value": 0}, "group": "control_change"}, {"time": 2770, "annotation": {"number": 64, "value": 127}, "group": "control_change"}, {"time": 2788, "annotation": {"number": 64, "value": 0}, "group": "control_change"}, {"time": 2795, "annotation": {"number": 64, "value": 127}, "group": "control_change"}, {"time": 2812, "annotation": {"number": 64, "value": 0}, "group": "control_change"}, {"time": 2818, "annotation": {"number": 64, "value": 127}, "group": "control_change"}, {"time": 2839, "annotation": {"number": 64, "value": 127}, "group": "control_change"}, {"time": 2858, "annotation": {"number": 64, "value": 0}, "group": "control_change"}, {"time": 2863, "annotation": {"number": 64, "value": 127}, "group": "control_change"}, {"time": 2882, "annotation": {"number": 64, "value": 0}, "group": "control_change"}, {"time": 2888, "annotation": {"number": 64, "value": 127}, "group": "control_change"}, {"time": 2910, "annotation": {"number": 64, "value": 0}, "group": "control_change"}, {"time": 2915, "annotation": {"number": 64, "value": 127}, "group": "control_change"}, {"time": 2934, "annotation": {"number": 64, "value": 0}, "group": "control_change"}, {"time": 2937, "annotation": {"number": 64, "value": 127}, "group": "control_change"}, {"time": 2958, "annotation": {"number": 64, "value": 0}, "group": "control_change"}, {"time": 2963, "annotation": {"number": 64, "value": 127}, "group": "control_change"}, {"time": 2980, "annotation": {"number": 64, "value": 0}, "group": "control_change"}, {"time": 2983, "annotation": {"number": 64, "value": 127}, "group": "control_change"}, {"time": 3005, "annotation": {"number": 64, "value": 0}, "group": "control_change"}, {"time": 3010, "annotation": {"number": 64, "value": 127}, "group": "control_change"}, {"time": 3029, "annotation": {"number": 64, "value": 0}, "group": "control_change"}, {"time": 3034, "annotation": {"number": 64, "value": 127}, "group": "control_change"}, {"time": 3053, "annotation": {"number": 64, "value": 0}, "group": "control_change"}, {"time": 3058, "annotation": {"number": 64, "value": 127}, "group": "control_change"}, {"time": 3076, "annotation": {"number": 64, "value": 0}, "group": "control_change"}, {"time": 3083, "annotation": {"number": 64, "value": 127}, "group": "control_change"}, {"time": 3100, "annotation": {"number": 64, "value": 0}, "group": "control_change"}, {"time": 3106, "annotation": {"number": 64, "value": 127}, "group": "control_change"}, {"time": 3127, "annotation": {"number": 64, "value": 127}, "group": "control_change"}, {"time": 3146, "annotation": {"number": 64, "value": 0}, "group": "control_change"}, {"time": 3151, "annotation": {"number": 64, "value": 127}, "group": "control_change"}, {"time": 3170, "annotation": {"number": 64, "value": 0}, "group": "control_change"}, {"time": 3176, "annotation": {"number": 64, "value": 127}, "group": "control_change"}, {"time": 3198, "annotation": {"number": 64, "value": 0}, "group": "control_change"}, {"time": 3203, "annotation": {"number": 64, "value": 127}, "group": "control_change"}, {"time": 3222, "annotation": {"number": 64, "value": 0}, "group": "control_change"}, {"time": 3225, "annotation": {"number": 64, "value": 127}, "group": "control_change"}, {"time": 3246, "annotation": {"number": 64, "value": 0}, "group": "control_change"}, {"time": 3251, "annotation": {"number": 64, "value": 127}, "group": "control_change"}, {"time": 3268, "annotation": {"number": 64, "value": 0}, "group": "control_change"}, {"time": 3271, "annotation": {"number": 64, "value": 127}, "group": "control_change"}, {"time": 3293, "annotation": {"number": 64, "value": 0}, "group": "control_change"}, {"time": 3298, "annotation": {"number": 64, "value": 127}, "group": "control_change"}, {"time": 3317, "annotation": {"number": 64, "value": 0}, "group": "control_change"}, {"time": 3322, "annotation": {"number": 64, "value": 127}, "group": "control_change"}, {"time": 3341, "annotation": {"number": 64, "value": 0}, "group": "control_change"}, {"time": 3343, "annotation": {"number": 64, "value": 127}, "group": "control_change"}, {"time": 3362, "annotation": {"number": 64, "value": 0}, "group": "control_change"}, {"time": 3366, "annotation": {"number": 64, "value": 127}, "group": "control_change"}, {"time": 3375, "annotation": {"number": 64, "value": 0}, "group": "control_change"}, {"time": 3379, "annotation": {"number": 64, "value": 127}, "group": "control_change"}, {"time": 3387, "annotation": {"number": 64, "value": 0}, "group": "control_change"}, {"time": 3404, "annotation": {"number": 64, "value": 127}, "group": "control_change"}, {"time": 3411, "annotation": {"number": 64, "value": 0}, "group": "control_change"}, {"time": 3463, "annotation": {"number": 64, "value": 127}, "group": "control_change"}, {"time": 3484, "annotation": {"number": 64, "value": 0}, "group": "control_change"}, {"time": 3486, "annotation": {"number": 64, "value": 127}, "group": "control_change"}, {"time": 3508, "annotation": {"number": 64, "value": 0}, "group": "control_change"}, {"time": 3512, "annotation": {"number": 64, "value": 127}, "group": "control_change"}, {"time": 3534, "annotation": {"number": 64, "value": 0}, "group": "control_change"}, {"time": 3539, "annotation": {"number": 64, "value": 127}, "group": "control_change"}, {"time": 3558, "annotation": {"number": 64, "value": 0}, "group": "control_change"}, {"time": 3561, "annotation": {"number": 64, "value": 127}, "group": "control_change"}, {"time": 3582, "annotation": {"number": 64, "value": 0}, "group": "control_change"}, {"time": 3587, "annotation": {"number": 64, "value": 127}, "group": "control_change"}, {"time": 3604, "annotation": {"number": 64, "value": 0}, "group": "control_change"}, {"time": 3607, "annotation": {"number": 64, "value": 127}, "group": "control_change"}, {"time": 3629, "annotation": {"number": 64, "value": 0}, "group": "control_change"}, {"time": 3634, "annotation": {"number": 64, "value": 127}, "group": "control_change"}, {"time": 3653, "annotation": {"number": 64, "value": 0}, "group": "control_change"}, {"time": 3658, "annotation": {"number": 64, "value": 127}, "group": "control_change"}, {"time": 3677, "annotation": {"number": 64, "value": 0}, "group": "control_change"}, {"time": 3682, "annotation": {"number": 64, "value": 127}, "group": "control_change"}, {"time": 3700, "annotation": {"number": 64, "value": 0}, "group": "control_change"}, {"time": 3707, "annotation": {"number": 64, "value": 127}, "group": "control_change"}, {"time": 3724, "annotation": {"number": 64, "value": 0}, "group": "control_change"}, {"time": 3730, "annotation": {"number": 64, "value": 127}, "group": "control_change"}, {"time": 3751, "annotation": {"number": 64, "value": 127}, "group": "control_change"}, {"time": 3770, "annotation": {"number": 64, "value": 0}, "group": "control_change"}, {"time": 3775, "annotation": {"number": 64, "value": 127}, "group": "control_change"}, {"time": 3794, "annotation": {"number": 64, "value": 0}, "group": "control_change"}, {"time": 3800, "annotation": {"number": 64, "value": 127}, "group": "control_change"}, {"time": 3822, "annotation": {"number": 64, "value": 0}, "group": "control_change"}, {"time": 3827, "annotation": {"number": 64, "value": 127}, "group": "control_change"}, {"time": 3846, "annotation": {"number": 64, "value": 0}, "group": "control_change"}, {"time": 3849, "annotation": {"number": 64, "value": 127}, "group": "control_change"}, {"time": 3870, "annotation": {"number": 64, "value": 0}, "group": "control_change"}, {"time": 3875, "annotation": {"number": 64, "value": 127}, "group": "control_change"}, {"time": 3892, "annotation": {"number": 64, "value": 0}, "group": "control_change"}, {"time": 3895, "annotation": {"number": 64, "value": 127}, "group": "control_change"}, {"time": 3917, "annotation": {"number": 64, "value": 0}, "group": "control_change"}, {"time": 3922, "annotation": {"number": 64, "value": 127}, "group": "control_change"}, {"time": 3941, "annotation": {"number": 64, "value": 0}, "group": "control_change"}, {"time": 3946, "annotation": {"number": 64, "value": 127}, "group": "control_change"}, {"time": 3965, "annotation": {"number": 64, "value": 0}, "group": "control_change"}, {"time": 3970, "annotation": {"number": 64, "value": 127}, "group": "control_change"}, {"time": 3988, "annotation": {"number": 64, "value": 0}, "group": "control_change"}, {"time": 3995, "annotation": {"number": 64, "value": 127}, "group": "control_change"}, {"time": 4012, "annotation": {"number": 64, "value": 0}, "group": "control_change"}, {"time": 4018, "annotation": {"number": 64, "value": 127}, "group": "control_change"}, {"time": 4039, "annotation": {"number": 64, "value": 127}, "group": "control_change"}, {"time": 4058, "annotation": {"number": 64, "value": 0}, "group": "control_change"}, {"time": 4063, "annotation": {"number": 64, "value": 127}, "group": "control_change"}, {"time": 4082, "annotation": {"number": 64, "value": 0}, "group": "control_change"}, {"time": 4088, "annotation": {"number": 64, "value": 127}, "group": "control_change"}, {"time": 4110, "annotation": {"number": 64, "value": 0}, "group": "control_change"}, {"time": 4115, "annotation": {"number": 64, "value": 127}, "group": "control_change"}, {"time": 4134, "annotation": {"number": 64, "value": 0}, "group": "control_change"}, {"time": 4137, "annotation": {"number": 64, "value": 127}, "group": "control_change"}, {"time": 4158, "annotation": {"number": 64, "value": 0}, "group": "control_change"}, {"time": 4163, "annotation": {"number": 64, "value": 127}, "group": "control_change"}, {"time": 4180, "annotation": {"number": 64, "value": 0}, "group": "control_change"}, {"time": 4183, "annotation": {"number": 64, "value": 127}, "group": "control_change"}, {"time": 4205, "annotation": {"number": 64, "value": 0}, "group": "control_change"}, {"time": 4210, "annotation": {"number": 64, "value": 127}, "group": "control_change"}, {"time": 4229, "annotation": {"number": 64, "value": 0}, "group": "control_change"}, {"time": 4234, "annotation": {"number": 64, "value": 127}, "group": "control_change"}, {"time": 4253, "annotation": {"number": 64, "value": 0}, "group": "control_change"}, {"time": 4255, "annotation": {"number": 64, "value": 127}, "group": "control_change"}, {"time": 4274, "annotation": {"number": 64, "value": 0}, "group": "control_change"}, {"time": 4278, "annotation": {"number": 64, "value": 127}, "group": "control_change"}, {"time": 4287, "annotation": {"number": 64, "value": 0}, "group": "control_change"}, {"time": 4291, "annotation": {"number": 64, "value": 127}, "group": "control_change"}, {"time": 4299, "annotation": {"number": 64, "value": 0}, "group": "control_change"}, {"time": 4316, "annotation": {"number": 64, "value": 127}, "group": "control_change"}, {"time": 4323, "annotation": {"number": 64, "value": 0}, "group": "control_change"}, {"time": 4379, "annotation": {"number": 64, "value": 127}, "group": "control_change"}, {"time": 4421, "annotation": {"number": 64, "value": 0}, "group": "control_change"}, {"time": 4425, "annotation": {"number": 64, "value": 127}, "group": "control_change"}, {"time": 4446, "annotation": {"number": 64, "value": 0}, "group": "control_change"}, {"time": 4452, "annotation": {"number": 64, "value": 127}, "group": "control_change"}, {"time": 4468, "annotation": {"number": 64, "value": 0}, "group": "control_change"}, {"time": 4480, "annotation": {"number": 64, "value": 127}, "group": "control_change"}, {"time": 4519, "annotation": {"number": 64, "value": 0}, "group": "control_change"}, {"time": 4525, "annotation": {"number": 64, "value": 127}, "group": "control_change"}, {"time": 4542, "annotation": {"number": 64, "value": 0}, "group": "control_change"}, {"time": 4549, "annotation": {"number": 64, "value": 127}, "group": "control_change"}, {"time": 4562, "annotation": {"number": 64, "value": 0}, "group": "control_change"}, {"time": 4569, "annotation": {"number": 64, "value": 127}, "group": "control_change"}]}]}