{"metadata": {"schema_version": "0.2", "title": "None", "source_filename": "147.mid", "source_format": "midi"}, "resolution": 12, "tempos": [{"time": 0, "qpm": 64.0}, {"time": 1025, "qpm": 60.0}, {"time": 1049, "qpm": 61.99999586666694}, {"time": 1085, "qpm": 64.0}, {"time": 1877, "qpm": 61.99999586666694}, {"time": 1889, "qpm": 58.00004253336452}, {"time": 1913, "qpm": 64.0}, {"time": 2105, "qpm": 60.0}, {"time": 2105, "qpm": 64.0}, {"time": 2585, "qpm": 60.0}, {"time": 2585, "qpm": 64.0}], "time_signatures": [{"time": 0, "numerator": 1, "denominator": 4}], "tracks": [{"program": 0, "is_drum": false, "name": "MELODY", "notes": [{"time": 422, "pitch": 69, "duration": 3, "velocity": 53}, {"time": 425, "pitch": 69, "duration": 3, "velocity": 65}, {"time": 428, "pitch": 71, "duration": 9, "velocity": 73}, {"time": 437, "pitch": 69, "duration": 33, "velocity": 81}, {"time": 470, "pitch": 69, "duration": 3, "velocity": 67}, {"time": 473, "pitch": 69, "duration": 3, "velocity": 68}, {"time": 476, "pitch": 71, "duration": 9, "velocity": 67}, {"time": 485, "pitch": 69, "duration": 33, "velocity": 76}, {"time": 518, "pitch": 69, "duration": 3, "velocity": 71}, {"time": 521, "pitch": 69, "duration": 3, "velocity": 75}, {"time": 524, "pitch": 71, "duration": 9, "velocity": 75}, {"time": 533, "pitch": 69, "duration": 22, "velocity": 59}, {"time": 554, "pitch": 71, "duration": 3, "velocity": 73}, {"time": 557, "pitch": 73, "duration": 6, "velocity": 86}, {"time": 563, "pitch": 71, "duration": 6, "velocity": 71}, {"time": 569, "pitch": 69, "duration": 3, "velocity": 70}, {"time": 572, "pitch": 71, "duration": 9, "velocity": 69}, {"time": 581, "pitch": 73, "duration": 33, "velocity": 76}, {"time": 614, "pitch": 69, "duration": 3, "velocity": 67}, {"time": 617, "pitch": 69, "duration": 6, "velocity": 70}, {"time": 623, "pitch": 71, "duration": 6, "velocity": 86}, {"time": 629, "pitch": 69, "duration": 21, "velocity": 68}, {"time": 650, "pitch": 76, "duration": 3, "velocity": 79}, {"time": 653, "pitch": 76, "duration": 6, "velocity": 98}, {"time": 659, "pitch": 74, "duration": 6, "velocity": 68}, {"time": 665, "pitch": 73, "duration": 3, "velocity": 69}, {"time": 668, "pitch": 76, "duration": 6, "velocity": 61}, {"time": 674, "pitch": 71, "duration": 6, "velocity": 64}, {"time": 680, "pitch": 69, "duration": 9, "velocity": 58}, {"time": 689, "pitch": 69, "duration": 3, "velocity": 67}, {"time": 692, "pitch": 71, "duration": 9, "velocity": 63}, {"time": 701, "pitch": 73, "duration": 9, "velocity": 69}, {"time": 710, "pitch": 69, "duration": 3, "velocity": 63}, {"time": 713, "pitch": 68, "duration": 6, "velocity": 74}, {"time": 719, "pitch": 69, "duration": 6, "velocity": 74}, {"time": 725, "pitch": 66, "duration": 33, "velocity": 71}, {"time": 758, "pitch": 66, "duration": 3, "velocity": 62}, {"time": 761, "pitch": 69, "duration": 3, "velocity": 74}, {"time": 764, "pitch": 66, "duration": 9, "velocity": 74}, {"time": 773, "pitch": 71, "duration": 60, "velocity": 83}, {"time": 833, "pitch": 69, "duration": 6, "velocity": 77}, {"time": 839, "pitch": 71, "duration": 6, "velocity": 74}, {"time": 845, "pitch": 73, "duration": 12, "velocity": 100}, {"time": 857, "pitch": 73, "duration": 6, "velocity": 93}, {"time": 863, "pitch": 74, "duration": 3, "velocity": 83}, {"time": 866, "pitch": 71, "duration": 21, "velocity": 72}, {"time": 887, "pitch": 71, "duration": 3, "velocity": 73}, {"time": 890, "pitch": 73, "duration": 3, "velocity": 68}, {"time": 893, "pitch": 69, "duration": 6, "velocity": 81}, {"time": 899, "pitch": 69, "duration": 3, "velocity": 63}, {"time": 902, "pitch": 69, "duration": 6, "velocity": 58}, {"time": 908, "pitch": 78, "duration": 9, "velocity": 69}, {"time": 917, "pitch": 76, "duration": 18, "velocity": 85}, {"time": 935, "pitch": 71, "duration": 3, "velocity": 76}, {"time": 938, "pitch": 73, "duration": 3, "velocity": 72}, {"time": 941, "pitch": 69, "duration": 6, "velocity": 79}, {"time": 947, "pitch": 69, "duration": 3, "velocity": 71}, {"time": 950, "pitch": 69, "duration": 6, "velocity": 65}, {"time": 956, "pitch": 78, "duration": 9, "velocity": 81}, {"time": 965, "pitch": 76, "duration": 18, "velocity": 108}, {"time": 983, "pitch": 71, "duration": 3, "velocity": 73}, {"time": 986, "pitch": 73, "duration": 3, "velocity": 61}, {"time": 989, "pitch": 74, "duration": 6, "velocity": 85}, {"time": 995, "pitch": 73, "duration": 3, "velocity": 61}, {"time": 998, "pitch": 69, "duration": 6, "velocity": 67}, {"time": 1004, "pitch": 73, "duration": 9, "velocity": 76}, {"time": 1013, "pitch": 71, "duration": 12, "velocity": 75}, {"time": 1025, "pitch": 69, "duration": 6, "velocity": 85}, {"time": 1031, "pitch": 71, "duration": 6, "velocity": 59}, {"time": 1037, "pitch": 73, "duration": 12, "velocity": 98}, {"time": 1049, "pitch": 73, "duration": 6, "velocity": 93}, {"time": 1055, "pitch": 74, "duration": 3, "velocity": 68}, {"time": 1058, "pitch": 71, "duration": 21, "velocity": 64}, {"time": 1079, "pitch": 71, "duration": 3, "velocity": 76}, {"time": 1082, "pitch": 73, "duration": 4, "velocity": 67}, {"time": 1085, "pitch": 69, "duration": 6, "velocity": 74}, {"time": 1091, "pitch": 69, "duration": 3, "velocity": 69}, {"time": 1094, "pitch": 69, "duration": 6, "velocity": 67}, {"time": 1100, "pitch": 78, "duration": 9, "velocity": 81}, {"time": 1109, "pitch": 76, "duration": 18, "velocity": 100}, {"time": 1127, "pitch": 71, "duration": 3, "velocity": 74}, {"time": 1130, "pitch": 73, "duration": 3, "velocity": 65}, {"time": 1133, "pitch": 74, "duration": 6, "velocity": 86}, {"time": 1139, "pitch": 73, "duration": 3, "velocity": 68}, {"time": 1142, "pitch": 74, "duration": 6, "velocity": 74}, {"time": 1148, "pitch": 69, "duration": 6, "velocity": 60}, {"time": 1154, "pitch": 73, "duration": 9, "velocity": 87}, {"time": 1163, "pitch": 71, "duration": 12, "velocity": 76}, {"time": 1175, "pitch": 73, "duration": 3, "velocity": 71}, {"time": 1178, "pitch": 74, "duration": 3, "velocity": 70}, {"time": 1181, "pitch": 76, "duration": 6, "velocity": 95}, {"time": 1187, "pitch": 74, "duration": 3, "velocity": 60}, {"time": 1190, "pitch": 76, "duration": 6, "velocity": 90}, {"time": 1196, "pitch": 68, "duration": 6, "velocity": 81}, {"time": 1202, "pitch": 76, "duration": 8, "velocity": 85}, {"time": 1208, "pitch": 73, "duration": 15, "velocity": 60}, {"time": 1223, "pitch": 71, "duration": 3, "velocity": 76}, {"time": 1226, "pitch": 73, "duration": 3, "velocity": 63}, {"time": 1229, "pitch": 74, "duration": 6, "velocity": 74}, {"time": 1235, "pitch": 73, "duration": 3, "velocity": 61}, {"time": 1238, "pitch": 74, "duration": 9, "velocity": 83}, {"time": 1247, "pitch": 76, "duration": 6, "velocity": 93}, {"time": 1253, "pitch": 73, "duration": 6, "velocity": 64}, {"time": 1259, "pitch": 69, "duration": 6, "velocity": 67}, {"time": 1265, "pitch": 66, "duration": 13, "velocity": 63}, {"time": 1277, "pitch": 64, "duration": 7, "velocity": 81}, {"time": 1283, "pitch": 71, "duration": 9, "velocity": 76}, {"time": 1292, "pitch": 69, "duration": 19, "velocity": 71}, {"time": 1502, "pitch": 69, "duration": 3, "velocity": 53}, {"time": 1505, "pitch": 69, "duration": 3, "velocity": 65}, {"time": 1508, "pitch": 71, "duration": 9, "velocity": 73}, {"time": 1517, "pitch": 69, "duration": 33, "velocity": 81}, {"time": 1550, "pitch": 69, "duration": 3, "velocity": 67}, {"time": 1553, "pitch": 69, "duration": 3, "velocity": 68}, {"time": 1556, "pitch": 71, "duration": 9, "velocity": 67}, {"time": 1565, "pitch": 69, "duration": 33, "velocity": 76}, {"time": 1598, "pitch": 69, "duration": 3, "velocity": 71}, {"time": 1601, "pitch": 69, "duration": 3, "velocity": 75}, {"time": 1604, "pitch": 71, "duration": 9, "velocity": 75}, {"time": 1613, "pitch": 69, "duration": 22, "velocity": 59}, {"time": 1634, "pitch": 71, "duration": 3, "velocity": 73}, {"time": 1637, "pitch": 73, "duration": 6, "velocity": 86}, {"time": 1643, "pitch": 71, "duration": 6, "velocity": 71}, {"time": 1649, "pitch": 69, "duration": 3, "velocity": 70}, {"time": 1652, "pitch": 71, "duration": 9, "velocity": 69}, {"time": 1661, "pitch": 73, "duration": 30, "velocity": 76}, {"time": 1691, "pitch": 76, "duration": 7, "velocity": 87}, {"time": 1697, "pitch": 74, "duration": 4, "velocity": 70}, {"time": 1700, "pitch": 73, "duration": 7, "velocity": 74}, {"time": 1706, "pitch": 69, "duration": 24, "velocity": 85}, {"time": 1730, "pitch": 76, "duration": 3, "velocity": 79}, {"time": 1733, "pitch": 76, "duration": 6, "velocity": 98}, {"time": 1739, "pitch": 74, "duration": 6, "velocity": 68}, {"time": 1745, "pitch": 73, "duration": 3, "velocity": 69}, {"time": 1748, "pitch": 76, "duration": 6, "velocity": 61}, {"time": 1754, "pitch": 71, "duration": 6, "velocity": 64}, {"time": 1760, "pitch": 69, "duration": 9, "velocity": 58}, {"time": 1769, "pitch": 69, "duration": 3, "velocity": 67}, {"time": 1772, "pitch": 71, "duration": 9, "velocity": 63}, {"time": 1781, "pitch": 73, "duration": 9, "velocity": 69}, {"time": 1790, "pitch": 69, "duration": 3, "velocity": 63}, {"time": 1793, "pitch": 68, "duration": 6, "velocity": 74}, {"time": 1799, "pitch": 69, "duration": 6, "velocity": 74}, {"time": 1805, "pitch": 66, "duration": 33, "velocity": 71}, {"time": 1838, "pitch": 66, "duration": 3, "velocity": 62}, {"time": 1841, "pitch": 69, "duration": 3, "velocity": 74}, {"time": 1844, "pitch": 66, "duration": 9, "velocity": 74}, {"time": 1853, "pitch": 71, "duration": 36, "velocity": 83}, {"time": 1889, "pitch": 69, "duration": 6, "velocity": 77}, {"time": 1895, "pitch": 71, "duration": 6, "velocity": 74}, {"time": 1901, "pitch": 73, "duration": 12, "velocity": 100}, {"time": 1913, "pitch": 73, "duration": 6, "velocity": 93}, {"time": 1919, "pitch": 74, "duration": 3, "velocity": 83}, {"time": 1922, "pitch": 71, "duration": 21, "velocity": 72}, {"time": 1943, "pitch": 71, "duration": 3, "velocity": 73}, {"time": 1946, "pitch": 73, "duration": 3, "velocity": 68}, {"time": 1949, "pitch": 69, "duration": 6, "velocity": 81}, {"time": 1955, "pitch": 69, "duration": 3, "velocity": 63}, {"time": 1958, "pitch": 69, "duration": 6, "velocity": 58}, {"time": 1964, "pitch": 78, "duration": 9, "velocity": 69}, {"time": 1973, "pitch": 76, "duration": 18, "velocity": 85}, {"time": 1991, "pitch": 71, "duration": 3, "velocity": 76}, {"time": 1994, "pitch": 73, "duration": 3, "velocity": 72}, {"time": 1997, "pitch": 69, "duration": 6, "velocity": 79}, {"time": 2003, "pitch": 69, "duration": 3, "velocity": 71}, {"time": 2006, "pitch": 69, "duration": 6, "velocity": 65}, {"time": 2012, "pitch": 78, "duration": 9, "velocity": 81}, {"time": 2021, "pitch": 76, "duration": 18, "velocity": 108}, {"time": 2039, "pitch": 71, "duration": 3, "velocity": 73}, {"time": 2042, "pitch": 73, "duration": 3, "velocity": 61}, {"time": 2045, "pitch": 74, "duration": 6, "velocity": 85}, {"time": 2051, "pitch": 73, "duration": 3, "velocity": 61}, {"time": 2054, "pitch": 69, "duration": 6, "velocity": 67}, {"time": 2060, "pitch": 73, "duration": 9, "velocity": 76}, {"time": 2069, "pitch": 71, "duration": 12, "velocity": 75}, {"time": 2081, "pitch": 69, "duration": 6, "velocity": 85}, {"time": 2087, "pitch": 71, "duration": 6, "velocity": 59}, {"time": 2093, "pitch": 73, "duration": 12, "velocity": 98}, {"time": 2105, "pitch": 73, "duration": 6, "velocity": 93}, {"time": 2111, "pitch": 74, "duration": 3, "velocity": 68}, {"time": 2114, "pitch": 71, "duration": 21, "velocity": 64}, {"time": 2135, "pitch": 71, "duration": 3, "velocity": 76}, {"time": 2138, "pitch": 73, "duration": 4, "velocity": 67}, {"time": 2141, "pitch": 69, "duration": 6, "velocity": 74}, {"time": 2147, "pitch": 69, "duration": 3, "velocity": 69}, {"time": 2150, "pitch": 69, "duration": 6, "velocity": 67}, {"time": 2156, "pitch": 78, "duration": 9, "velocity": 81}, {"time": 2165, "pitch": 76, "duration": 18, "velocity": 100}, {"time": 2183, "pitch": 71, "duration": 3, "velocity": 74}, {"time": 2186, "pitch": 73, "duration": 3, "velocity": 65}, {"time": 2189, "pitch": 74, "duration": 6, "velocity": 86}, {"time": 2195, "pitch": 73, "duration": 3, "velocity": 68}, {"time": 2198, "pitch": 74, "duration": 6, "velocity": 74}, {"time": 2204, "pitch": 69, "duration": 6, "velocity": 60}, {"time": 2210, "pitch": 73, "duration": 9, "velocity": 87}, {"time": 2219, "pitch": 71, "duration": 12, "velocity": 76}, {"time": 2231, "pitch": 73, "duration": 3, "velocity": 71}, {"time": 2234, "pitch": 74, "duration": 3, "velocity": 70}, {"time": 2237, "pitch": 76, "duration": 6, "velocity": 95}, {"time": 2243, "pitch": 74, "duration": 3, "velocity": 60}, {"time": 2246, "pitch": 76, "duration": 6, "velocity": 90}, {"time": 2252, "pitch": 68, "duration": 6, "velocity": 81}, {"time": 2258, "pitch": 76, "duration": 8, "velocity": 85}, {"time": 2264, "pitch": 73, "duration": 15, "velocity": 60}, {"time": 2279, "pitch": 71, "duration": 3, "velocity": 70}, {"time": 2282, "pitch": 73, "duration": 3, "velocity": 75}, {"time": 2285, "pitch": 74, "duration": 6, "velocity": 93}, {"time": 2291, "pitch": 73, "duration": 3, "velocity": 74}, {"time": 2294, "pitch": 74, "duration": 12, "velocity": 93}, {"time": 2306, "pitch": 76, "duration": 3, "velocity": 76}, {"time": 2309, "pitch": 73, "duration": 6, "velocity": 67}, {"time": 2315, "pitch": 69, "duration": 4, "velocity": 74}, {"time": 2318, "pitch": 66, "duration": 9, "velocity": 83}, {"time": 2327, "pitch": 64, "duration": 6, "velocity": 71}, {"time": 2333, "pitch": 71, "duration": 6, "velocity": 73}, {"time": 2339, "pitch": 69, "duration": 30, "velocity": 65}, {"time": 2369, "pitch": 71, "duration": 6, "velocity": 77}, {"time": 2375, "pitch": 73, "duration": 6, "velocity": 74}, {"time": 2381, "pitch": 75, "duration": 12, "velocity": 100}, {"time": 2393, "pitch": 75, "duration": 6, "velocity": 93}, {"time": 2399, "pitch": 76, "duration": 3, "velocity": 83}, {"time": 2402, "pitch": 73, "duration": 21, "velocity": 72}, {"time": 2423, "pitch": 73, "duration": 3, "velocity": 73}, {"time": 2426, "pitch": 75, "duration": 3, "velocity": 68}, {"time": 2429, "pitch": 71, "duration": 6, "velocity": 81}, {"time": 2435, "pitch": 71, "duration": 3, "velocity": 63}, {"time": 2438, "pitch": 71, "duration": 6, "velocity": 58}, {"time": 2444, "pitch": 80, "duration": 9, "velocity": 69}, {"time": 2453, "pitch": 78, "duration": 18, "velocity": 85}, {"time": 2471, "pitch": 73, "duration": 3, "velocity": 76}, {"time": 2474, "pitch": 75, "duration": 3, "velocity": 72}, {"time": 2477, "pitch": 71, "duration": 6, "velocity": 79}, {"time": 2483, "pitch": 71, "duration": 3, "velocity": 71}, {"time": 2486, "pitch": 71, "duration": 6, "velocity": 65}, {"time": 2492, "pitch": 80, "duration": 9, "velocity": 81}, {"time": 2501, "pitch": 78, "duration": 18, "velocity": 108}, {"time": 2519, "pitch": 73, "duration": 3, "velocity": 73}, {"time": 2522, "pitch": 75, "duration": 3, "velocity": 61}, {"time": 2525, "pitch": 76, "duration": 6, "velocity": 85}, {"time": 2531, "pitch": 75, "duration": 3, "velocity": 61}, {"time": 2534, "pitch": 71, "duration": 6, "velocity": 67}, {"time": 2540, "pitch": 75, "duration": 9, "velocity": 76}, {"time": 2549, "pitch": 73, "duration": 12, "velocity": 75}, {"time": 2561, "pitch": 71, "duration": 6, "velocity": 85}, {"time": 2567, "pitch": 73, "duration": 6, "velocity": 59}, {"time": 2573, "pitch": 75, "duration": 12, "velocity": 98}, {"time": 2585, "pitch": 75, "duration": 6, "velocity": 93}, {"time": 2591, "pitch": 76, "duration": 3, "velocity": 68}, {"time": 2594, "pitch": 73, "duration": 21, "velocity": 64}, {"time": 2615, "pitch": 73, "duration": 3, "velocity": 76}, {"time": 2618, "pitch": 75, "duration": 4, "velocity": 67}, {"time": 2621, "pitch": 71, "duration": 6, "velocity": 74}, {"time": 2627, "pitch": 71, "duration": 3, "velocity": 69}, {"time": 2630, "pitch": 71, "duration": 6, "velocity": 67}, {"time": 2636, "pitch": 80, "duration": 9, "velocity": 81}, {"time": 2645, "pitch": 78, "duration": 18, "velocity": 100}, {"time": 2663, "pitch": 73, "duration": 3, "velocity": 74}, {"time": 2666, "pitch": 75, "duration": 3, "velocity": 65}, {"time": 2669, "pitch": 76, "duration": 6, "velocity": 86}, {"time": 2675, "pitch": 75, "duration": 3, "velocity": 68}, {"time": 2678, "pitch": 76, "duration": 6, "velocity": 74}, {"time": 2684, "pitch": 71, "duration": 6, "velocity": 60}, {"time": 2690, "pitch": 75, "duration": 9, "velocity": 87}, {"time": 2699, "pitch": 73, "duration": 12, "velocity": 76}, {"time": 2711, "pitch": 75, "duration": 3, "velocity": 71}, {"time": 2714, "pitch": 76, "duration": 3, "velocity": 70}, {"time": 2717, "pitch": 78, "duration": 6, "velocity": 95}, {"time": 2723, "pitch": 76, "duration": 3, "velocity": 60}, {"time": 2726, "pitch": 78, "duration": 6, "velocity": 90}, {"time": 2732, "pitch": 70, "duration": 6, "velocity": 81}, {"time": 2738, "pitch": 78, "duration": 8, "velocity": 85}, {"time": 2744, "pitch": 75, "duration": 15, "velocity": 60}, {"time": 2759, "pitch": 73, "duration": 3, "velocity": 70}, {"time": 2762, "pitch": 75, "duration": 3, "velocity": 75}, {"time": 2765, "pitch": 76, "duration": 6, "velocity": 93}, {"time": 2771, "pitch": 75, "duration": 3, "velocity": 74}, {"time": 2774, "pitch": 76, "duration": 12, "velocity": 93}, {"time": 2786, "pitch": 78, "duration": 3, "velocity": 76}, {"time": 2789, "pitch": 75, "duration": 6, "velocity": 67}, {"time": 2795, "pitch": 71, "duration": 4, "velocity": 74}, {"time": 2798, "pitch": 68, "duration": 9, "velocity": 83}, {"time": 2807, "pitch": 66, "duration": 6, "velocity": 71}, {"time": 2813, "pitch": 73, "duration": 12, "velocity": 83}, {"time": 2825, "pitch": 71, "duration": 32, "velocity": 72}, {"time": 2855, "pitch": 73, "duration": 3, "velocity": 68}, {"time": 2858, "pitch": 75, "duration": 3, "velocity": 59}, {"time": 2861, "pitch": 76, "duration": 7, "velocity": 77}, {"time": 2867, "pitch": 75, "duration": 6, "velocity": 52}, {"time": 2873, "pitch": 76, "duration": 12, "velocity": 85}, {"time": 2885, "pitch": 78, "duration": 5, "velocity": 73}, {"time": 2888, "pitch": 75, "duration": 9, "velocity": 68}, {"time": 2897, "pitch": 71, "duration": 8, "velocity": 72}, {"time": 2903, "pitch": 68, "duration": 27, "velocity": 70}, {"time": 2930, "pitch": 66, "duration": 13, "velocity": 73}, {"time": 2942, "pitch": 71, "duration": 94, "velocity": 65}]}, {"program": 0, "is_drum": false, "name": "BRIDGE", "notes": [{"time": 11, "pitch": 69, "duration": 6, "velocity": 87}, {"time": 17, "pitch": 64, "duration": 6, "velocity": 83}, {"time": 23, "pitch": 69, "duration": 5, "velocity": 86}, {"time": 29, "pitch": 71, "duration": 12, "velocity": 87}, {"time": 41, "pitch": 69, "duration": 14, "velocity": 76}, {"time": 59, "pitch": 69, "duration": 6, "velocity": 86}, {"time": 65, "pitch": 64, "duration": 6, "velocity": 90}, {"time": 71, "pitch": 69, "duration": 7, "velocity": 86}, {"time": 77, "pitch": 71, "duration": 12, "velocity": 76}, {"time": 89, "pitch": 69, "duration": 13, "velocity": 64}, {"time": 107, "pitch": 69, "duration": 6, "velocity": 74}, {"time": 113, "pitch": 64, "duration": 7, "velocity": 83}, {"time": 119, "pitch": 69, "duration": 6, "velocity": 71}, {"time": 125, "pitch": 71, "duration": 12, "velocity": 93}, {"time": 137, "pitch": 69, "duration": 14, "velocity": 68}, {"time": 155, "pitch": 69, "duration": 6, "velocity": 67}, {"time": 161, "pitch": 64, "duration": 7, "velocity": 81}, {"time": 167, "pitch": 69, "duration": 6, "velocity": 68}, {"time": 173, "pitch": 71, "duration": 25, "velocity": 75}, {"time": 203, "pitch": 69, "duration": 6, "velocity": 74}, {"time": 209, "pitch": 64, "duration": 7, "velocity": 81}, {"time": 215, "pitch": 69, "duration": 7, "velocity": 79}, {"time": 221, "pitch": 71, "duration": 11, "velocity": 86}, {"time": 233, "pitch": 69, "duration": 14, "velocity": 79}, {"time": 251, "pitch": 69, "duration": 6, "velocity": 83}, {"time": 257, "pitch": 64, "duration": 7, "velocity": 75}, {"time": 263, "pitch": 69, "duration": 7, "velocity": 74}, {"time": 269, "pitch": 71, "duration": 12, "velocity": 69}, {"time": 281, "pitch": 69, "duration": 15, "velocity": 66}, {"time": 299, "pitch": 69, "duration": 6, "velocity": 72}, {"time": 305, "pitch": 64, "duration": 7, "velocity": 66}, {"time": 311, "pitch": 69, "duration": 7, "velocity": 67}, {"time": 317, "pitch": 71, "duration": 12, "velocity": 68}, {"time": 329, "pitch": 69, "duration": 12, "velocity": 79}, {"time": 347, "pitch": 64, "duration": 6, "velocity": 59}, {"time": 353, "pitch": 69, "duration": 7, "velocity": 72}, {"time": 359, "pitch": 71, "duration": 7, "velocity": 74}, {"time": 365, "pitch": 68, "duration": 55, "velocity": 67}, {"time": 1349, "pitch": 64, "duration": 24, "velocity": 62}, {"time": 1373, "pitch": 73, "duration": 6, "velocity": 64}, {"time": 1379, "pitch": 76, "duration": 6, "velocity": 64}, {"time": 1385, "pitch": 69, "duration": 12, "velocity": 64}, {"time": 1409, "pitch": 78, "duration": 5, "velocity": 64}, {"time": 1415, "pitch": 76, "duration": 6, "velocity": 64}, {"time": 1421, "pitch": 74, "duration": 10, "velocity": 64}, {"time": 1433, "pitch": 69, "duration": 9, "velocity": 64}, {"time": 1445, "pitch": 66, "duration": 14, "velocity": 64}, {"time": 1463, "pitch": 78, "duration": 5, "velocity": 64}, {"time": 1469, "pitch": 76, "duration": 51, "velocity": 64}, {"time": 1528, "pitch": 61, "duration": 6, "velocity": 75}, {"time": 1534, "pitch": 62, "duration": 6, "velocity": 75}, {"time": 1540, "pitch": 61, "duration": 6, "velocity": 75}, {"time": 1577, "pitch": 61, "duration": 5, "velocity": 75}, {"time": 1582, "pitch": 62, "duration": 7, "velocity": 75}, {"time": 1588, "pitch": 61, "duration": 8, "velocity": 75}]}, {"program": 0, "is_drum": false, "name": "PIANO", "notes": [{"time": 5, "pitch": 45, "duration": 12, "velocity": 81}, {"time": 5, "pitch": 73, "duration": 6, "velocity": 85}, {"time": 11, "pitch": 52, "duration": 8, "velocity": 63}, {"time": 11, "pitch": 71, "duration": 7, "velocity": 70}, {"time": 17, "pitch": 57, "duration": 7, "velocity": 59}, {"time": 17, "pitch": 73, "duration": 17, "velocity": 74}, {"time": 23, "pitch": 59, "duration": 7, "velocity": 64}, {"time": 29, "pitch": 61, "duration": 15, "velocity": 59}, {"time": 35, "pitch": 71, "duration": 6, "velocity": 68}, {"time": 41, "pitch": 73, "duration": 6, "velocity": 77}, {"time": 47, "pitch": 76, "duration": 6, "velocity": 93}, {"time": 53, "pitch": 42, "duration": 44, "velocity": 77}, {"time": 53, "pitch": 69, "duration": 43, "velocity": 72}, {"time": 59, "pitch": 49, "duration": 35, "velocity": 53}, {"time": 65, "pitch": 54, "duration": 23, "velocity": 58}, {"time": 89, "pitch": 54, "duration": 7, "velocity": 64}, {"time": 89, "pitch": 73, "duration": 6, "velocity": 77}, {"time": 95, "pitch": 49, "duration": 5, "velocity": 70}, {"time": 95, "pitch": 69, "duration": 1, "velocity": 71}, {"time": 101, "pitch": 38, "duration": 43, "velocity": 81}, {"time": 107, "pitch": 45, "duration": 29, "velocity": 54}, {"time": 113, "pitch": 50, "duration": 22, "velocity": 61}, {"time": 131, "pitch": 73, "duration": 6, "velocity": 67}, {"time": 137, "pitch": 45, "duration": 11, "velocity": 73}, {"time": 137, "pitch": 76, "duration": 6, "velocity": 93}, {"time": 143, "pitch": 50, "duration": 6, "velocity": 60}, {"time": 143, "pitch": 71, "duration": 54, "velocity": 90}, {"time": 149, "pitch": 40, "duration": 47, "velocity": 69}, {"time": 155, "pitch": 47, "duration": 36, "velocity": 63}, {"time": 161, "pitch": 52, "duration": 7, "velocity": 50}, {"time": 167, "pitch": 44, "duration": 21, "velocity": 61}, {"time": 185, "pitch": 52, "duration": 11, "velocity": 60}, {"time": 197, "pitch": 45, "duration": 43, "velocity": 95}, {"time": 197, "pitch": 73, "duration": 5, "velocity": 81}, {"time": 203, "pitch": 52, "duration": 36, "velocity": 45}, {"time": 203, "pitch": 71, "duration": 7, "velocity": 65}, {"time": 209, "pitch": 73, "duration": 15, "velocity": 83}, {"time": 215, "pitch": 57, "duration": 6, "velocity": 46}, {"time": 221, "pitch": 49, "duration": 20, "velocity": 66}, {"time": 227, "pitch": 71, "duration": 6, "velocity": 75}, {"time": 233, "pitch": 57, "duration": 5, "velocity": 52}, {"time": 233, "pitch": 73, "duration": 6, "velocity": 81}, {"time": 239, "pitch": 78, "duration": 4, "velocity": 87}, {"time": 245, "pitch": 42, "duration": 43, "velocity": 79}, {"time": 245, "pitch": 76, "duration": 44, "velocity": 108}, {"time": 251, "pitch": 49, "duration": 35, "velocity": 51}, {"time": 257, "pitch": 54, "duration": 7, "velocity": 57}, {"time": 263, "pitch": 45, "duration": 23, "velocity": 56}, {"time": 269, "pitch": 54, "duration": 15, "velocity": 58}, {"time": 281, "pitch": 73, "duration": 6, "velocity": 108}, {"time": 287, "pitch": 69, "duration": 33, "velocity": 74}, {"time": 293, "pitch": 38, "duration": 43, "velocity": 68}, {"time": 299, "pitch": 45, "duration": 38, "velocity": 64}, {"time": 305, "pitch": 50, "duration": 12, "velocity": 48}, {"time": 317, "pitch": 50, "duration": 17, "velocity": 50}, {"time": 323, "pitch": 73, "duration": 6, "velocity": 67}, {"time": 329, "pitch": 76, "duration": 3, "velocity": 93}, {"time": 335, "pitch": 76, "duration": 11, "velocity": 95}, {"time": 341, "pitch": 40, "duration": 43, "velocity": 74}, {"time": 347, "pitch": 47, "duration": 37, "velocity": 62}, {"time": 347, "pitch": 64, "duration": 6, "velocity": 68}, {"time": 353, "pitch": 52, "duration": 7, "velocity": 52}, {"time": 353, "pitch": 71, "duration": 6, "velocity": 81}, {"time": 359, "pitch": 44, "duration": 25, "velocity": 58}, {"time": 359, "pitch": 69, "duration": 6, "velocity": 74}, {"time": 365, "pitch": 52, "duration": 19, "velocity": 54}, {"time": 365, "pitch": 68, "duration": 23, "velocity": 72}, {"time": 437, "pitch": 45, "duration": 43, "velocity": 63}, {"time": 443, "pitch": 52, "duration": 36, "velocity": 57}, {"time": 449, "pitch": 73, "duration": 6, "velocity": 71}, {"time": 455, "pitch": 57, "duration": 20, "velocity": 54}, {"time": 455, "pitch": 71, "duration": 6, "velocity": 69}, {"time": 461, "pitch": 73, "duration": 15, "velocity": 61}, {"time": 473, "pitch": 71, "duration": 12, "velocity": 76}, {"time": 485, "pitch": 42, "duration": 42, "velocity": 66}, {"time": 491, "pitch": 49, "duration": 35, "velocity": 44}, {"time": 497, "pitch": 73, "duration": 6, "velocity": 71}, {"time": 503, "pitch": 54, "duration": 22, "velocity": 50}, {"time": 503, "pitch": 71, "duration": 6, "velocity": 70}, {"time": 509, "pitch": 73, "duration": 12, "velocity": 67}, {"time": 521, "pitch": 71, "duration": 12, "velocity": 63}, {"time": 533, "pitch": 38, "duration": 24, "velocity": 54}, {"time": 539, "pitch": 45, "duration": 18, "velocity": 66}, {"time": 545, "pitch": 73, "duration": 5, "velocity": 81}, {"time": 551, "pitch": 71, "duration": 6, "velocity": 60}, {"time": 557, "pitch": 40, "duration": 20, "velocity": 71}, {"time": 557, "pitch": 73, "duration": 8, "velocity": 72}, {"time": 563, "pitch": 47, "duration": 14, "velocity": 64}, {"time": 569, "pitch": 52, "duration": 11, "velocity": 54}, {"time": 575, "pitch": 57, "duration": 6, "velocity": 58}, {"time": 581, "pitch": 45, "duration": 41, "velocity": 72}, {"time": 587, "pitch": 52, "duration": 34, "velocity": 59}, {"time": 593, "pitch": 73, "duration": 6, "velocity": 65}, {"time": 599, "pitch": 74, "duration": 4, "velocity": 64}, {"time": 599, "pitch": 57, "duration": 20, "velocity": 50}, {"time": 605, "pitch": 76, "duration": 18, "velocity": 77}, {"time": 629, "pitch": 42, "duration": 18, "velocity": 71}, {"time": 629, "pitch": 73, "duration": 7, "velocity": 71}, {"time": 635, "pitch": 49, "duration": 11, "velocity": 65}, {"time": 641, "pitch": 61, "duration": 5, "velocity": 54}, {"time": 641, "pitch": 57, "duration": 12, "velocity": 65}, {"time": 653, "pitch": 37, "duration": 23, "velocity": 77}, {"time": 659, "pitch": 44, "duration": 18, "velocity": 71}, {"time": 665, "pitch": 52, "duration": 8, "velocity": 59}, {"time": 671, "pitch": 56, "duration": 5, "velocity": 47}, {"time": 677, "pitch": 54, "duration": 14, "velocity": 71}, {"time": 677, "pitch": 69, "duration": 11, "velocity": 71}, {"time": 677, "pitch": 38, "duration": 18, "velocity": 71}, {"time": 683, "pitch": 45, "duration": 11, "velocity": 77}, {"time": 689, "pitch": 57, "duration": 7, "velocity": 67}, {"time": 689, "pitch": 78, "duration": 11, "velocity": 64}, {"time": 695, "pitch": 54, "duration": 4, "velocity": 63}, {"time": 701, "pitch": 76, "duration": 9, "velocity": 64}, {"time": 701, "pitch": 45, "duration": 20, "velocity": 63}, {"time": 707, "pitch": 52, "duration": 17, "velocity": 65}, {"time": 713, "pitch": 57, "duration": 7, "velocity": 60}, {"time": 719, "pitch": 61, "duration": 3, "velocity": 59}, {"time": 719, "pitch": 64, "duration": 4, "velocity": 64}, {"time": 725, "pitch": 47, "duration": 41, "velocity": 75}, {"time": 725, "pitch": 62, "duration": 35, "velocity": 64}, {"time": 731, "pitch": 54, "duration": 32, "velocity": 61}, {"time": 737, "pitch": 66, "duration": 23, "velocity": 64}, {"time": 737, "pitch": 69, "duration": 6, "velocity": 64}, {"time": 743, "pitch": 74, "duration": 5, "velocity": 64}, {"time": 743, "pitch": 59, "duration": 10, "velocity": 64}, {"time": 749, "pitch": 71, "duration": 11, "velocity": 64}, {"time": 749, "pitch": 73, "duration": 11, "velocity": 64}, {"time": 755, "pitch": 59, "duration": 6, "velocity": 54}, {"time": 761, "pitch": 62, "duration": 6, "velocity": 60}, {"time": 761, "pitch": 66, "duration": 6, "velocity": 60}, {"time": 761, "pitch": 71, "duration": 6, "velocity": 71}, {"time": 773, "pitch": 40, "duration": 70, "velocity": 70}, {"time": 779, "pitch": 47, "duration": 64, "velocity": 60}, {"time": 785, "pitch": 52, "duration": 57, "velocity": 53}, {"time": 791, "pitch": 56, "duration": 52, "velocity": 57}, {"time": 796, "pitch": 64, "duration": 34, "velocity": 65}, {"time": 797, "pitch": 68, "duration": 33, "velocity": 75}, {"time": 797, "pitch": 71, "duration": 32, "velocity": 58}, {"time": 845, "pitch": 45, "duration": 18, "velocity": 77}, {"time": 845, "pitch": 61, "duration": 10, "velocity": 63}, {"time": 845, "pitch": 64, "duration": 10, "velocity": 75}, {"time": 851, "pitch": 52, "duration": 34, "velocity": 59}, {"time": 857, "pitch": 61, "duration": 8, "velocity": 68}, {"time": 857, "pitch": 64, "duration": 11, "velocity": 61}, {"time": 857, "pitch": 69, "duration": 10, "velocity": 64}, {"time": 869, "pitch": 44, "duration": 17, "velocity": 53}, {"time": 869, "pitch": 59, "duration": 11, "velocity": 71}, {"time": 869, "pitch": 64, "duration": 11, "velocity": 74}, {"time": 869, "pitch": 69, "duration": 10, "velocity": 64}, {"time": 881, "pitch": 59, "duration": 6, "velocity": 65}, {"time": 881, "pitch": 64, "duration": 6, "velocity": 63}, {"time": 881, "pitch": 69, "duration": 6, "velocity": 74}, {"time": 893, "pitch": 42, "duration": 18, "velocity": 69}, {"time": 893, "pitch": 57, "duration": 11, "velocity": 62}, {"time": 893, "pitch": 61, "duration": 11, "velocity": 72}, {"time": 899, "pitch": 49, "duration": 10, "velocity": 48}, {"time": 905, "pitch": 57, "duration": 6, "velocity": 64}, {"time": 905, "pitch": 61, "duration": 6, "velocity": 74}, {"time": 905, "pitch": 66, "duration": 6, "velocity": 72}, {"time": 917, "pitch": 37, "duration": 20, "velocity": 74}, {"time": 917, "pitch": 52, "duration": 11, "velocity": 60}, {"time": 917, "pitch": 56, "duration": 11, "velocity": 46}, {"time": 917, "pitch": 61, "duration": 11, "velocity": 63}, {"time": 923, "pitch": 44, "duration": 17, "velocity": 46}, {"time": 929, "pitch": 52, "duration": 7, "velocity": 61}, {"time": 929, "pitch": 56, "duration": 7, "velocity": 69}, {"time": 929, "pitch": 61, "duration": 6, "velocity": 69}, {"time": 935, "pitch": 49, "duration": 5, "velocity": 54}, {"time": 941, "pitch": 38, "duration": 18, "velocity": 77}, {"time": 941, "pitch": 54, "duration": 11, "velocity": 60}, {"time": 941, "pitch": 57, "duration": 11, "velocity": 66}, {"time": 941, "pitch": 62, "duration": 10, "velocity": 62}, {"time": 947, "pitch": 45, "duration": 13, "velocity": 62}, {"time": 953, "pitch": 54, "duration": 6, "velocity": 66}, {"time": 953, "pitch": 57, "duration": 6, "velocity": 74}, {"time": 953, "pitch": 62, "duration": 6, "velocity": 73}, {"time": 959, "pitch": 50, "duration": 6, "velocity": 52}, {"time": 965, "pitch": 45, "duration": 19, "velocity": 74}, {"time": 965, "pitch": 61, "duration": 11, "velocity": 69}, {"time": 965, "pitch": 64, "duration": 11, "velocity": 66}, {"time": 965, "pitch": 69, "duration": 11, "velocity": 65}, {"time": 971, "pitch": 52, "duration": 17, "velocity": 59}, {"time": 977, "pitch": 61, "duration": 7, "velocity": 64}, {"time": 977, "pitch": 64, "duration": 7, "velocity": 71}, {"time": 977, "pitch": 69, "duration": 6, "velocity": 65}, {"time": 983, "pitch": 57, "duration": 4, "velocity": 53}, {"time": 986, "pitch": 62, "duration": 2, "velocity": 41}, {"time": 989, "pitch": 47, "duration": 18, "velocity": 74}, {"time": 989, "pitch": 62, "duration": 11, "velocity": 74}, {"time": 989, "pitch": 66, "duration": 11, "velocity": 76}, {"time": 989, "pitch": 71, "duration": 11, "velocity": 69}, {"time": 995, "pitch": 54, "duration": 10, "velocity": 62}, {"time": 1001, "pitch": 62, "duration": 6, "velocity": 67}, {"time": 1001, "pitch": 66, "duration": 6, "velocity": 73}, {"time": 1001, "pitch": 71, "duration": 6, "velocity": 71}, {"time": 1013, "pitch": 40, "duration": 19, "velocity": 60}, {"time": 1013, "pitch": 56, "duration": 11, "velocity": 66}, {"time": 1013, "pitch": 59, "duration": 11, "velocity": 67}, {"time": 1013, "pitch": 64, "duration": 11, "velocity": 74}, {"time": 1019, "pitch": 47, "duration": 12, "velocity": 63}, {"time": 1025, "pitch": 56, "duration": 6, "velocity": 71}, {"time": 1025, "pitch": 59, "duration": 6, "velocity": 79}, {"time": 1025, "pitch": 64, "duration": 6, "velocity": 83}, {"time": 1031, "pitch": 52, "duration": 5, "velocity": 50}, {"time": 1037, "pitch": 45, "duration": 19, "velocity": 72}, {"time": 1037, "pitch": 61, "duration": 11, "velocity": 68}, {"time": 1037, "pitch": 64, "duration": 11, "velocity": 74}, {"time": 1037, "pitch": 69, "duration": 11, "velocity": 68}, {"time": 1043, "pitch": 52, "duration": 11, "velocity": 55}, {"time": 1049, "pitch": 61, "duration": 7, "velocity": 73}, {"time": 1049, "pitch": 64, "duration": 7, "velocity": 83}, {"time": 1049, "pitch": 69, "duration": 7, "velocity": 74}, {"time": 1061, "pitch": 40, "duration": 19, "velocity": 74}, {"time": 1061, "pitch": 56, "duration": 10, "velocity": 64}, {"time": 1061, "pitch": 59, "duration": 10, "velocity": 63}, {"time": 1061, "pitch": 64, "duration": 10, "velocity": 74}, {"time": 1067, "pitch": 47, "duration": 18, "velocity": 69}, {"time": 1073, "pitch": 56, "duration": 7, "velocity": 67}, {"time": 1073, "pitch": 59, "duration": 7, "velocity": 74}, {"time": 1073, "pitch": 64, "duration": 7, "velocity": 76}, {"time": 1079, "pitch": 52, "duration": 5, "velocity": 54}, {"time": 1085, "pitch": 42, "duration": 21, "velocity": 74}, {"time": 1085, "pitch": 57, "duration": 11, "velocity": 62}, {"time": 1085, "pitch": 61, "duration": 11, "velocity": 70}, {"time": 1085, "pitch": 66, "duration": 11, "velocity": 67}, {"time": 1091, "pitch": 49, "duration": 14, "velocity": 65}, {"time": 1097, "pitch": 57, "duration": 7, "velocity": 65}, {"time": 1097, "pitch": 61, "duration": 7, "velocity": 70}, {"time": 1097, "pitch": 66, "duration": 7, "velocity": 69}, {"time": 1103, "pitch": 54, "duration": 2, "velocity": 59}, {"time": 1109, "pitch": 37, "duration": 21, "velocity": 13}, {"time": 1109, "pitch": 52, "duration": 10, "velocity": 59}, {"time": 1109, "pitch": 56, "duration": 11, "velocity": 61}, {"time": 1109, "pitch": 61, "duration": 11, "velocity": 65}, {"time": 1115, "pitch": 44, "duration": 18, "velocity": 59}, {"time": 1121, "pitch": 52, "duration": 9, "velocity": 60}, {"time": 1121, "pitch": 56, "duration": 10, "velocity": 67}, {"time": 1121, "pitch": 61, "duration": 8, "velocity": 66}, {"time": 1127, "pitch": 49, "duration": 6, "velocity": 58}, {"time": 1133, "pitch": 38, "duration": 21, "velocity": 85}, {"time": 1133, "pitch": 54, "duration": 10, "velocity": 38}, {"time": 1133, "pitch": 57, "duration": 11, "velocity": 61}, {"time": 1133, "pitch": 62, "duration": 9, "velocity": 34}, {"time": 1133, "pitch": 63, "duration": 4, "velocity": 62}, {"time": 1139, "pitch": 45, "duration": 17, "velocity": 70}, {"time": 1145, "pitch": 54, "duration": 10, "velocity": 62}, {"time": 1145, "pitch": 57, "duration": 10, "velocity": 70}, {"time": 1145, "pitch": 62, "duration": 10, "velocity": 73}, {"time": 1151, "pitch": 50, "duration": 5, "velocity": 45}, {"time": 1157, "pitch": 40, "duration": 21, "velocity": 73}, {"time": 1157, "pitch": 56, "duration": 11, "velocity": 62}, {"time": 1157, "pitch": 59, "duration": 11, "velocity": 72}, {"time": 1157, "pitch": 64, "duration": 11, "velocity": 69}, {"time": 1163, "pitch": 47, "duration": 13, "velocity": 63}, {"time": 1169, "pitch": 56, "duration": 6, "velocity": 69}, {"time": 1169, "pitch": 59, "duration": 6, "velocity": 75}, {"time": 1169, "pitch": 64, "duration": 6, "velocity": 81}, {"time": 1175, "pitch": 52, "duration": 2, "velocity": 58}, {"time": 1181, "pitch": 37, "duration": 18, "velocity": 60}, {"time": 1181, "pitch": 52, "duration": 11, "velocity": 62}, {"time": 1181, "pitch": 56, "duration": 11, "velocity": 67}, {"time": 1181, "pitch": 61, "duration": 11, "velocity": 64}, {"time": 1187, "pitch": 44, "duration": 13, "velocity": 67}, {"time": 1193, "pitch": 52, "duration": 7, "velocity": 65}, {"time": 1193, "pitch": 56, "duration": 7, "velocity": 77}, {"time": 1193, "pitch": 61, "duration": 6, "velocity": 75}, {"time": 1199, "pitch": 49, "duration": 6, "velocity": 60}, {"time": 1205, "pitch": 42, "duration": 18, "velocity": 60}, {"time": 1205, "pitch": 57, "duration": 9, "velocity": 70}, {"time": 1205, "pitch": 61, "duration": 10, "velocity": 75}, {"time": 1205, "pitch": 66, "duration": 10, "velocity": 70}, {"time": 1211, "pitch": 49, "duration": 12, "velocity": 62}, {"time": 1217, "pitch": 46, "duration": 6, "velocity": 71}, {"time": 1217, "pitch": 54, "duration": 11, "velocity": 71}, {"time": 1217, "pitch": 58, "duration": 7, "velocity": 71}, {"time": 1217, "pitch": 61, "duration": 6, "velocity": 71}, {"time": 1217, "pitch": 66, "duration": 6, "velocity": 71}, {"time": 1229, "pitch": 47, "duration": 19, "velocity": 63}, {"time": 1229, "pitch": 62, "duration": 11, "velocity": 65}, {"time": 1229, "pitch": 66, "duration": 11, "velocity": 57}, {"time": 1229, "pitch": 71, "duration": 11, "velocity": 63}, {"time": 1235, "pitch": 54, "duration": 12, "velocity": 60}, {"time": 1241, "pitch": 62, "duration": 7, "velocity": 69}, {"time": 1241, "pitch": 66, "duration": 7, "velocity": 72}, {"time": 1241, "pitch": 71, "duration": 6, "velocity": 69}, {"time": 1253, "pitch": 40, "duration": 70, "velocity": 52}, {"time": 1253, "pitch": 56, "duration": 12, "velocity": 63}, {"time": 1253, "pitch": 59, "duration": 12, "velocity": 62}, {"time": 1253, "pitch": 64, "duration": 12, "velocity": 68}, {"time": 1265, "pitch": 56, "duration": 52, "velocity": 65}, {"time": 1265, "pitch": 59, "duration": 56, "velocity": 63}, {"time": 1265, "pitch": 64, "duration": 56, "velocity": 65}, {"time": 1325, "pitch": 45, "duration": 45, "velocity": 77}, {"time": 1325, "pitch": 73, "duration": 7, "velocity": 86}, {"time": 1331, "pitch": 52, "duration": 29, "velocity": 48}, {"time": 1331, "pitch": 71, "duration": 6, "velocity": 74}, {"time": 1337, "pitch": 57, "duration": 11, "velocity": 60}, {"time": 1337, "pitch": 73, "duration": 14, "velocity": 76}, {"time": 1349, "pitch": 57, "duration": 13, "velocity": 59}, {"time": 1355, "pitch": 71, "duration": 8, "velocity": 77}, {"time": 1361, "pitch": 52, "duration": 7, "velocity": 64}, {"time": 1361, "pitch": 73, "duration": 6, "velocity": 87}, {"time": 1367, "pitch": 57, "duration": 2, "velocity": 59}, {"time": 1367, "pitch": 76, "duration": 6, "velocity": 104}, {"time": 1373, "pitch": 42, "duration": 44, "velocity": 60}, {"time": 1373, "pitch": 69, "duration": 37, "velocity": 81}, {"time": 1379, "pitch": 49, "duration": 37, "velocity": 60}, {"time": 1385, "pitch": 54, "duration": 7, "velocity": 58}, {"time": 1391, "pitch": 45, "duration": 25, "velocity": 72}, {"time": 1397, "pitch": 54, "duration": 12, "velocity": 44}, {"time": 1409, "pitch": 54, "duration": 6, "velocity": 53}, {"time": 1409, "pitch": 73, "duration": 5, "velocity": 85}, {"time": 1415, "pitch": 71, "duration": 7, "velocity": 81}, {"time": 1421, "pitch": 38, "duration": 44, "velocity": 79}, {"time": 1427, "pitch": 45, "duration": 41, "velocity": 68}, {"time": 1433, "pitch": 50, "duration": 8, "velocity": 43}, {"time": 1439, "pitch": 42, "duration": 29, "velocity": 58}, {"time": 1445, "pitch": 50, "duration": 9, "velocity": 36}, {"time": 1451, "pitch": 73, "duration": 6, "velocity": 74}, {"time": 1457, "pitch": 50, "duration": 5, "velocity": 65}, {"time": 1457, "pitch": 76, "duration": 6, "velocity": 108}, {"time": 1463, "pitch": 50, "duration": 5, "velocity": 63}, {"time": 1463, "pitch": 71, "duration": 55, "velocity": 87}, {"time": 1469, "pitch": 40, "duration": 44, "velocity": 74}, {"time": 1475, "pitch": 47, "duration": 38, "velocity": 74}, {"time": 1481, "pitch": 52, "duration": 7, "velocity": 56}, {"time": 1487, "pitch": 44, "duration": 26, "velocity": 67}, {"time": 1493, "pitch": 52, "duration": 20, "velocity": 52}, {"time": 1517, "pitch": 45, "duration": 43, "velocity": 63}, {"time": 1523, "pitch": 52, "duration": 36, "velocity": 57}, {"time": 1529, "pitch": 73, "duration": 6, "velocity": 71}, {"time": 1535, "pitch": 57, "duration": 20, "velocity": 54}, {"time": 1535, "pitch": 71, "duration": 6, "velocity": 69}, {"time": 1541, "pitch": 73, "duration": 15, "velocity": 61}, {"time": 1553, "pitch": 71, "duration": 12, "velocity": 76}, {"time": 1565, "pitch": 42, "duration": 42, "velocity": 66}, {"time": 1571, "pitch": 49, "duration": 35, "velocity": 44}, {"time": 1577, "pitch": 73, "duration": 6, "velocity": 71}, {"time": 1583, "pitch": 54, "duration": 22, "velocity": 50}, {"time": 1583, "pitch": 71, "duration": 6, "velocity": 70}, {"time": 1589, "pitch": 73, "duration": 12, "velocity": 67}, {"time": 1601, "pitch": 71, "duration": 12, "velocity": 63}, {"time": 1613, "pitch": 38, "duration": 24, "velocity": 54}, {"time": 1619, "pitch": 45, "duration": 18, "velocity": 66}, {"time": 1625, "pitch": 73, "duration": 5, "velocity": 81}, {"time": 1631, "pitch": 71, "duration": 6, "velocity": 60}, {"time": 1637, "pitch": 40, "duration": 20, "velocity": 71}, {"time": 1637, "pitch": 73, "duration": 8, "velocity": 72}, {"time": 1643, "pitch": 47, "duration": 14, "velocity": 64}, {"time": 1649, "pitch": 52, "duration": 11, "velocity": 54}, {"time": 1655, "pitch": 57, "duration": 6, "velocity": 58}, {"time": 1661, "pitch": 45, "duration": 24, "velocity": 72}, {"time": 1667, "pitch": 52, "duration": 34, "velocity": 59}, {"time": 1673, "pitch": 73, "duration": 3, "velocity": 82}, {"time": 1676, "pitch": 74, "duration": 3, "velocity": 75}, {"time": 1679, "pitch": 73, "duration": 7, "velocity": 74}, {"time": 1679, "pitch": 57, "duration": 10, "velocity": 74}, {"time": 1685, "pitch": 68, "duration": 11, "velocity": 74}, {"time": 1685, "pitch": 44, "duration": 13, "velocity": 62}, {"time": 1691, "pitch": 56, "duration": 4, "velocity": 66}, {"time": 1697, "pitch": 61, "duration": 6, "velocity": 77}, {"time": 1709, "pitch": 42, "duration": 18, "velocity": 71}, {"time": 1709, "pitch": 73, "duration": 7, "velocity": 71}, {"time": 1715, "pitch": 49, "duration": 11, "velocity": 65}, {"time": 1721, "pitch": 73, "duration": 10, "velocity": 67}, {"time": 1721, "pitch": 57, "duration": 12, "velocity": 67}, {"time": 1727, "pitch": 61, "duration": 5, "velocity": 54}, {"time": 1733, "pitch": 37, "duration": 23, "velocity": 77}, {"time": 1739, "pitch": 44, "duration": 18, "velocity": 71}, {"time": 1745, "pitch": 52, "duration": 8, "velocity": 59}, {"time": 1751, "pitch": 56, "duration": 5, "velocity": 47}, {"time": 1757, "pitch": 38, "duration": 18, "velocity": 64}, {"time": 1757, "pitch": 54, "duration": 14, "velocity": 63}, {"time": 1763, "pitch": 45, "duration": 11, "velocity": 77}, {"time": 1769, "pitch": 78, "duration": 11, "velocity": 65}, {"time": 1769, "pitch": 57, "duration": 7, "velocity": 63}, {"time": 1775, "pitch": 54, "duration": 4, "velocity": 65}, {"time": 1781, "pitch": 76, "duration": 16, "velocity": 65}, {"time": 1781, "pitch": 45, "duration": 20, "velocity": 65}, {"time": 1787, "pitch": 52, "duration": 17, "velocity": 65}, {"time": 1793, "pitch": 57, "duration": 7, "velocity": 60}, {"time": 1799, "pitch": 61, "duration": 3, "velocity": 59}, {"time": 1799, "pitch": 64, "duration": 4, "velocity": 64}, {"time": 1805, "pitch": 62, "duration": 35, "velocity": 64}, {"time": 1805, "pitch": 47, "duration": 41, "velocity": 75}, {"time": 1811, "pitch": 69, "duration": 6, "velocity": 76}, {"time": 1811, "pitch": 54, "duration": 32, "velocity": 76}, {"time": 1817, "pitch": 66, "duration": 23, "velocity": 76}, {"time": 1817, "pitch": 74, "duration": 6, "velocity": 76}, {"time": 1823, "pitch": 59, "duration": 10, "velocity": 76}, {"time": 1823, "pitch": 69, "duration": 6, "velocity": 76}, {"time": 1829, "pitch": 71, "duration": 11, "velocity": 76}, {"time": 1829, "pitch": 76, "duration": 7, "velocity": 76}, {"time": 1835, "pitch": 59, "duration": 6, "velocity": 63}, {"time": 1835, "pitch": 74, "duration": 8, "velocity": 63}, {"time": 1841, "pitch": 62, "duration": 6, "velocity": 60}, {"time": 1841, "pitch": 66, "duration": 6, "velocity": 60}, {"time": 1841, "pitch": 71, "duration": 6, "velocity": 71}, {"time": 1853, "pitch": 40, "duration": 48, "velocity": 70}, {"time": 1859, "pitch": 64, "duration": 6, "velocity": 93}, {"time": 1859, "pitch": 47, "duration": 42, "velocity": 55}, {"time": 1865, "pitch": 69, "duration": 6, "velocity": 55}, {"time": 1865, "pitch": 52, "duration": 35, "velocity": 55}, {"time": 1871, "pitch": 56, "duration": 30, "velocity": 55}, {"time": 1871, "pitch": 71, "duration": 6, "velocity": 55}, {"time": 1877, "pitch": 64, "duration": 11, "velocity": 55}, {"time": 1877, "pitch": 68, "duration": 11, "velocity": 55}, {"time": 1877, "pitch": 71, "duration": 10, "velocity": 55}, {"time": 1901, "pitch": 45, "duration": 18, "velocity": 77}, {"time": 1901, "pitch": 61, "duration": 10, "velocity": 63}, {"time": 1901, "pitch": 64, "duration": 10, "velocity": 75}, {"time": 1907, "pitch": 52, "duration": 34, "velocity": 59}, {"time": 1913, "pitch": 61, "duration": 8, "velocity": 68}, {"time": 1913, "pitch": 64, "duration": 11, "velocity": 61}, {"time": 1913, "pitch": 69, "duration": 10, "velocity": 64}, {"time": 1925, "pitch": 44, "duration": 17, "velocity": 53}, {"time": 1925, "pitch": 59, "duration": 11, "velocity": 71}, {"time": 1925, "pitch": 64, "duration": 11, "velocity": 74}, {"time": 1925, "pitch": 69, "duration": 10, "velocity": 64}, {"time": 1937, "pitch": 59, "duration": 6, "velocity": 65}, {"time": 1937, "pitch": 64, "duration": 6, "velocity": 63}, {"time": 1937, "pitch": 69, "duration": 6, "velocity": 74}, {"time": 1949, "pitch": 42, "duration": 18, "velocity": 69}, {"time": 1949, "pitch": 57, "duration": 11, "velocity": 62}, {"time": 1949, "pitch": 61, "duration": 11, "velocity": 72}, {"time": 1955, "pitch": 49, "duration": 10, "velocity": 48}, {"time": 1961, "pitch": 57, "duration": 6, "velocity": 64}, {"time": 1961, "pitch": 61, "duration": 6, "velocity": 74}, {"time": 1961, "pitch": 66, "duration": 6, "velocity": 72}, {"time": 1973, "pitch": 37, "duration": 20, "velocity": 74}, {"time": 1973, "pitch": 52, "duration": 11, "velocity": 60}, {"time": 1973, "pitch": 56, "duration": 11, "velocity": 46}, {"time": 1973, "pitch": 61, "duration": 11, "velocity": 63}, {"time": 1979, "pitch": 44, "duration": 17, "velocity": 46}, {"time": 1985, "pitch": 52, "duration": 7, "velocity": 61}, {"time": 1985, "pitch": 56, "duration": 7, "velocity": 69}, {"time": 1985, "pitch": 61, "duration": 6, "velocity": 69}, {"time": 1991, "pitch": 49, "duration": 5, "velocity": 54}, {"time": 1997, "pitch": 38, "duration": 18, "velocity": 77}, {"time": 1997, "pitch": 54, "duration": 11, "velocity": 60}, {"time": 1997, "pitch": 57, "duration": 11, "velocity": 66}, {"time": 1997, "pitch": 62, "duration": 10, "velocity": 62}, {"time": 2003, "pitch": 45, "duration": 13, "velocity": 62}, {"time": 2009, "pitch": 54, "duration": 6, "velocity": 66}, {"time": 2009, "pitch": 57, "duration": 6, "velocity": 74}, {"time": 2009, "pitch": 62, "duration": 6, "velocity": 73}, {"time": 2015, "pitch": 50, "duration": 6, "velocity": 52}, {"time": 2021, "pitch": 45, "duration": 19, "velocity": 74}, {"time": 2021, "pitch": 61, "duration": 11, "velocity": 69}, {"time": 2021, "pitch": 64, "duration": 11, "velocity": 66}, {"time": 2021, "pitch": 69, "duration": 11, "velocity": 65}, {"time": 2027, "pitch": 52, "duration": 17, "velocity": 59}, {"time": 2033, "pitch": 61, "duration": 7, "velocity": 64}, {"time": 2033, "pitch": 64, "duration": 7, "velocity": 71}, {"time": 2033, "pitch": 69, "duration": 6, "velocity": 65}, {"time": 2039, "pitch": 57, "duration": 4, "velocity": 53}, {"time": 2042, "pitch": 62, "duration": 2, "velocity": 41}, {"time": 2045, "pitch": 47, "duration": 18, "velocity": 74}, {"time": 2045, "pitch": 62, "duration": 11, "velocity": 74}, {"time": 2045, "pitch": 66, "duration": 11, "velocity": 76}, {"time": 2045, "pitch": 71, "duration": 11, "velocity": 69}, {"time": 2051, "pitch": 54, "duration": 10, "velocity": 62}, {"time": 2057, "pitch": 62, "duration": 6, "velocity": 67}, {"time": 2057, "pitch": 66, "duration": 6, "velocity": 73}, {"time": 2057, "pitch": 71, "duration": 6, "velocity": 71}, {"time": 2069, "pitch": 40, "duration": 19, "velocity": 60}, {"time": 2069, "pitch": 56, "duration": 11, "velocity": 66}, {"time": 2069, "pitch": 59, "duration": 11, "velocity": 67}, {"time": 2069, "pitch": 64, "duration": 11, "velocity": 74}, {"time": 2075, "pitch": 47, "duration": 12, "velocity": 63}, {"time": 2081, "pitch": 56, "duration": 6, "velocity": 71}, {"time": 2081, "pitch": 59, "duration": 6, "velocity": 79}, {"time": 2081, "pitch": 64, "duration": 6, "velocity": 83}, {"time": 2087, "pitch": 52, "duration": 5, "velocity": 50}, {"time": 2093, "pitch": 45, "duration": 19, "velocity": 72}, {"time": 2093, "pitch": 61, "duration": 11, "velocity": 68}, {"time": 2093, "pitch": 64, "duration": 11, "velocity": 74}, {"time": 2093, "pitch": 69, "duration": 11, "velocity": 68}, {"time": 2099, "pitch": 52, "duration": 11, "velocity": 55}, {"time": 2105, "pitch": 61, "duration": 7, "velocity": 73}, {"time": 2105, "pitch": 64, "duration": 7, "velocity": 83}, {"time": 2105, "pitch": 69, "duration": 7, "velocity": 74}, {"time": 2117, "pitch": 40, "duration": 19, "velocity": 74}, {"time": 2117, "pitch": 56, "duration": 10, "velocity": 64}, {"time": 2117, "pitch": 59, "duration": 10, "velocity": 63}, {"time": 2117, "pitch": 64, "duration": 10, "velocity": 74}, {"time": 2123, "pitch": 47, "duration": 18, "velocity": 69}, {"time": 2129, "pitch": 56, "duration": 7, "velocity": 67}, {"time": 2129, "pitch": 59, "duration": 7, "velocity": 74}, {"time": 2129, "pitch": 64, "duration": 7, "velocity": 76}, {"time": 2135, "pitch": 52, "duration": 5, "velocity": 54}, {"time": 2141, "pitch": 42, "duration": 21, "velocity": 74}, {"time": 2141, "pitch": 57, "duration": 11, "velocity": 62}, {"time": 2141, "pitch": 61, "duration": 11, "velocity": 70}, {"time": 2141, "pitch": 66, "duration": 11, "velocity": 67}, {"time": 2147, "pitch": 49, "duration": 14, "velocity": 65}, {"time": 2153, "pitch": 57, "duration": 7, "velocity": 65}, {"time": 2153, "pitch": 61, "duration": 7, "velocity": 70}, {"time": 2153, "pitch": 66, "duration": 7, "velocity": 69}, {"time": 2159, "pitch": 54, "duration": 2, "velocity": 59}, {"time": 2165, "pitch": 37, "duration": 21, "velocity": 13}, {"time": 2165, "pitch": 52, "duration": 10, "velocity": 59}, {"time": 2165, "pitch": 56, "duration": 11, "velocity": 61}, {"time": 2165, "pitch": 61, "duration": 11, "velocity": 65}, {"time": 2171, "pitch": 44, "duration": 18, "velocity": 59}, {"time": 2177, "pitch": 52, "duration": 9, "velocity": 60}, {"time": 2177, "pitch": 56, "duration": 10, "velocity": 67}, {"time": 2177, "pitch": 61, "duration": 8, "velocity": 66}, {"time": 2183, "pitch": 49, "duration": 6, "velocity": 58}, {"time": 2189, "pitch": 38, "duration": 21, "velocity": 85}, {"time": 2189, "pitch": 54, "duration": 10, "velocity": 38}, {"time": 2189, "pitch": 57, "duration": 11, "velocity": 61}, {"time": 2189, "pitch": 62, "duration": 9, "velocity": 34}, {"time": 2195, "pitch": 45, "duration": 17, "velocity": 70}, {"time": 2201, "pitch": 54, "duration": 10, "velocity": 62}, {"time": 2201, "pitch": 57, "duration": 10, "velocity": 70}, {"time": 2201, "pitch": 62, "duration": 10, "velocity": 73}, {"time": 2207, "pitch": 50, "duration": 5, "velocity": 45}, {"time": 2213, "pitch": 40, "duration": 21, "velocity": 73}, {"time": 2213, "pitch": 56, "duration": 11, "velocity": 62}, {"time": 2213, "pitch": 59, "duration": 11, "velocity": 72}, {"time": 2213, "pitch": 64, "duration": 11, "velocity": 69}, {"time": 2219, "pitch": 47, "duration": 13, "velocity": 63}, {"time": 2225, "pitch": 56, "duration": 6, "velocity": 69}, {"time": 2225, "pitch": 59, "duration": 6, "velocity": 75}, {"time": 2225, "pitch": 64, "duration": 6, "velocity": 81}, {"time": 2231, "pitch": 52, "duration": 2, "velocity": 58}, {"time": 2237, "pitch": 37, "duration": 18, "velocity": 60}, {"time": 2237, "pitch": 52, "duration": 11, "velocity": 62}, {"time": 2237, "pitch": 56, "duration": 11, "velocity": 67}, {"time": 2237, "pitch": 61, "duration": 11, "velocity": 64}, {"time": 2243, "pitch": 44, "duration": 13, "velocity": 67}, {"time": 2249, "pitch": 52, "duration": 7, "velocity": 65}, {"time": 2249, "pitch": 56, "duration": 7, "velocity": 77}, {"time": 2249, "pitch": 61, "duration": 6, "velocity": 75}, {"time": 2255, "pitch": 49, "duration": 6, "velocity": 60}, {"time": 2261, "pitch": 42, "duration": 18, "velocity": 60}, {"time": 2261, "pitch": 57, "duration": 9, "velocity": 70}, {"time": 2261, "pitch": 61, "duration": 10, "velocity": 75}, {"time": 2261, "pitch": 66, "duration": 10, "velocity": 70}, {"time": 2267, "pitch": 49, "duration": 12, "velocity": 62}, {"time": 2273, "pitch": 46, "duration": 6, "velocity": 68}, {"time": 2273, "pitch": 54, "duration": 11, "velocity": 68}, {"time": 2273, "pitch": 58, "duration": 7, "velocity": 68}, {"time": 2273, "pitch": 61, "duration": 6, "velocity": 68}, {"time": 2273, "pitch": 66, "duration": 6, "velocity": 68}, {"time": 2285, "pitch": 47, "duration": 19, "velocity": 63}, {"time": 2285, "pitch": 62, "duration": 11, "velocity": 65}, {"time": 2285, "pitch": 66, "duration": 11, "velocity": 57}, {"time": 2285, "pitch": 71, "duration": 11, "velocity": 63}, {"time": 2291, "pitch": 54, "duration": 12, "velocity": 60}, {"time": 2297, "pitch": 62, "duration": 7, "velocity": 69}, {"time": 2297, "pitch": 66, "duration": 7, "velocity": 72}, {"time": 2297, "pitch": 71, "duration": 6, "velocity": 69}, {"time": 2309, "pitch": 40, "duration": 70, "velocity": 52}, {"time": 2309, "pitch": 56, "duration": 12, "velocity": 63}, {"time": 2309, "pitch": 59, "duration": 12, "velocity": 62}, {"time": 2309, "pitch": 64, "duration": 12, "velocity": 68}, {"time": 2321, "pitch": 56, "duration": 52, "velocity": 65}, {"time": 2321, "pitch": 59, "duration": 56, "velocity": 63}, {"time": 2321, "pitch": 64, "duration": 23, "velocity": 65}, {"time": 2333, "pitch": 45, "duration": 43, "velocity": 74}, {"time": 2333, "pitch": 61, "duration": 11, "velocity": 66}, {"time": 2333, "pitch": 64, "duration": 11, "velocity": 63}, {"time": 2333, "pitch": 69, "duration": 11, "velocity": 66}, {"time": 2339, "pitch": 52, "duration": 35, "velocity": 59}, {"time": 2345, "pitch": 61, "duration": 11, "velocity": 62}, {"time": 2345, "pitch": 64, "duration": 11, "velocity": 77}, {"time": 2351, "pitch": 57, "duration": 6, "velocity": 45}, {"time": 2357, "pitch": 49, "duration": 18, "velocity": 49}, {"time": 2357, "pitch": 61, "duration": 11, "velocity": 68}, {"time": 2357, "pitch": 64, "duration": 11, "velocity": 79}, {"time": 2363, "pitch": 57, "duration": 6, "velocity": 49}, {"time": 2369, "pitch": 61, "duration": 6, "velocity": 74}, {"time": 2369, "pitch": 64, "duration": 6, "velocity": 86}, {"time": 2381, "pitch": 47, "duration": 18, "velocity": 77}, {"time": 2381, "pitch": 63, "duration": 10, "velocity": 63}, {"time": 2381, "pitch": 66, "duration": 10, "velocity": 75}, {"time": 2387, "pitch": 54, "duration": 34, "velocity": 59}, {"time": 2393, "pitch": 63, "duration": 8, "velocity": 68}, {"time": 2393, "pitch": 66, "duration": 11, "velocity": 61}, {"time": 2393, "pitch": 71, "duration": 10, "velocity": 64}, {"time": 2405, "pitch": 46, "duration": 17, "velocity": 53}, {"time": 2405, "pitch": 61, "duration": 11, "velocity": 71}, {"time": 2405, "pitch": 66, "duration": 11, "velocity": 74}, {"time": 2405, "pitch": 71, "duration": 10, "velocity": 64}, {"time": 2417, "pitch": 61, "duration": 6, "velocity": 65}, {"time": 2417, "pitch": 66, "duration": 6, "velocity": 63}, {"time": 2417, "pitch": 71, "duration": 6, "velocity": 74}, {"time": 2429, "pitch": 44, "duration": 18, "velocity": 69}, {"time": 2429, "pitch": 59, "duration": 11, "velocity": 62}, {"time": 2429, "pitch": 63, "duration": 11, "velocity": 72}, {"time": 2435, "pitch": 51, "duration": 10, "velocity": 48}, {"time": 2441, "pitch": 59, "duration": 6, "velocity": 64}, {"time": 2441, "pitch": 63, "duration": 6, "velocity": 74}, {"time": 2441, "pitch": 68, "duration": 6, "velocity": 72}, {"time": 2453, "pitch": 39, "duration": 20, "velocity": 74}, {"time": 2453, "pitch": 54, "duration": 11, "velocity": 60}, {"time": 2453, "pitch": 58, "duration": 11, "velocity": 46}, {"time": 2453, "pitch": 63, "duration": 11, "velocity": 63}, {"time": 2459, "pitch": 46, "duration": 17, "velocity": 46}, {"time": 2465, "pitch": 54, "duration": 7, "velocity": 61}, {"time": 2465, "pitch": 58, "duration": 7, "velocity": 69}, {"time": 2465, "pitch": 63, "duration": 6, "velocity": 69}, {"time": 2471, "pitch": 51, "duration": 5, "velocity": 54}, {"time": 2477, "pitch": 40, "duration": 18, "velocity": 77}, {"time": 2477, "pitch": 56, "duration": 11, "velocity": 60}, {"time": 2477, "pitch": 59, "duration": 11, "velocity": 66}, {"time": 2477, "pitch": 64, "duration": 10, "velocity": 62}, {"time": 2483, "pitch": 47, "duration": 13, "velocity": 62}, {"time": 2489, "pitch": 56, "duration": 6, "velocity": 66}, {"time": 2489, "pitch": 59, "duration": 6, "velocity": 74}, {"time": 2489, "pitch": 64, "duration": 6, "velocity": 73}, {"time": 2495, "pitch": 52, "duration": 6, "velocity": 52}, {"time": 2501, "pitch": 47, "duration": 19, "velocity": 74}, {"time": 2501, "pitch": 63, "duration": 11, "velocity": 69}, {"time": 2501, "pitch": 66, "duration": 11, "velocity": 66}, {"time": 2501, "pitch": 71, "duration": 11, "velocity": 65}, {"time": 2507, "pitch": 54, "duration": 17, "velocity": 59}, {"time": 2513, "pitch": 63, "duration": 7, "velocity": 64}, {"time": 2513, "pitch": 66, "duration": 7, "velocity": 71}, {"time": 2513, "pitch": 71, "duration": 6, "velocity": 65}, {"time": 2519, "pitch": 59, "duration": 4, "velocity": 53}, {"time": 2522, "pitch": 64, "duration": 2, "velocity": 41}, {"time": 2525, "pitch": 49, "duration": 18, "velocity": 74}, {"time": 2525, "pitch": 64, "duration": 11, "velocity": 74}, {"time": 2525, "pitch": 68, "duration": 11, "velocity": 76}, {"time": 2525, "pitch": 73, "duration": 11, "velocity": 69}, {"time": 2531, "pitch": 56, "duration": 10, "velocity": 62}, {"time": 2537, "pitch": 64, "duration": 6, "velocity": 67}, {"time": 2537, "pitch": 68, "duration": 6, "velocity": 73}, {"time": 2537, "pitch": 73, "duration": 6, "velocity": 71}, {"time": 2549, "pitch": 42, "duration": 19, "velocity": 60}, {"time": 2549, "pitch": 58, "duration": 11, "velocity": 66}, {"time": 2549, "pitch": 61, "duration": 11, "velocity": 67}, {"time": 2549, "pitch": 66, "duration": 11, "velocity": 74}, {"time": 2555, "pitch": 49, "duration": 12, "velocity": 63}, {"time": 2561, "pitch": 58, "duration": 6, "velocity": 71}, {"time": 2561, "pitch": 61, "duration": 6, "velocity": 79}, {"time": 2561, "pitch": 66, "duration": 6, "velocity": 83}, {"time": 2567, "pitch": 54, "duration": 5, "velocity": 50}, {"time": 2573, "pitch": 47, "duration": 19, "velocity": 72}, {"time": 2573, "pitch": 63, "duration": 11, "velocity": 68}, {"time": 2573, "pitch": 66, "duration": 11, "velocity": 74}, {"time": 2573, "pitch": 71, "duration": 11, "velocity": 68}, {"time": 2579, "pitch": 54, "duration": 11, "velocity": 55}, {"time": 2585, "pitch": 63, "duration": 7, "velocity": 73}, {"time": 2585, "pitch": 66, "duration": 7, "velocity": 83}, {"time": 2585, "pitch": 71, "duration": 7, "velocity": 74}, {"time": 2597, "pitch": 42, "duration": 19, "velocity": 74}, {"time": 2597, "pitch": 58, "duration": 10, "velocity": 64}, {"time": 2597, "pitch": 61, "duration": 10, "velocity": 63}, {"time": 2597, "pitch": 66, "duration": 10, "velocity": 74}, {"time": 2603, "pitch": 49, "duration": 18, "velocity": 69}, {"time": 2609, "pitch": 58, "duration": 7, "velocity": 67}, {"time": 2609, "pitch": 61, "duration": 7, "velocity": 74}, {"time": 2609, "pitch": 66, "duration": 7, "velocity": 76}, {"time": 2615, "pitch": 54, "duration": 5, "velocity": 54}, {"time": 2621, "pitch": 44, "duration": 21, "velocity": 74}, {"time": 2621, "pitch": 59, "duration": 11, "velocity": 62}, {"time": 2621, "pitch": 63, "duration": 11, "velocity": 70}, {"time": 2621, "pitch": 68, "duration": 11, "velocity": 67}, {"time": 2627, "pitch": 51, "duration": 14, "velocity": 65}, {"time": 2633, "pitch": 59, "duration": 7, "velocity": 65}, {"time": 2633, "pitch": 63, "duration": 7, "velocity": 70}, {"time": 2633, "pitch": 68, "duration": 7, "velocity": 69}, {"time": 2639, "pitch": 56, "duration": 2, "velocity": 59}, {"time": 2645, "pitch": 39, "duration": 21, "velocity": 13}, {"time": 2645, "pitch": 54, "duration": 10, "velocity": 59}, {"time": 2645, "pitch": 58, "duration": 11, "velocity": 61}, {"time": 2645, "pitch": 63, "duration": 11, "velocity": 65}, {"time": 2651, "pitch": 46, "duration": 18, "velocity": 59}, {"time": 2657, "pitch": 54, "duration": 9, "velocity": 60}, {"time": 2657, "pitch": 58, "duration": 10, "velocity": 67}, {"time": 2657, "pitch": 63, "duration": 8, "velocity": 66}, {"time": 2663, "pitch": 51, "duration": 6, "velocity": 58}, {"time": 2669, "pitch": 40, "duration": 21, "velocity": 63}, {"time": 2669, "pitch": 56, "duration": 10, "velocity": 63}, {"time": 2669, "pitch": 59, "duration": 11, "velocity": 63}, {"time": 2669, "pitch": 64, "duration": 9, "velocity": 63}, {"time": 2675, "pitch": 47, "duration": 17, "velocity": 70}, {"time": 2681, "pitch": 56, "duration": 10, "velocity": 62}, {"time": 2681, "pitch": 59, "duration": 10, "velocity": 70}, {"time": 2681, "pitch": 64, "duration": 10, "velocity": 73}, {"time": 2687, "pitch": 52, "duration": 5, "velocity": 45}, {"time": 2693, "pitch": 42, "duration": 21, "velocity": 73}, {"time": 2693, "pitch": 58, "duration": 11, "velocity": 62}, {"time": 2693, "pitch": 61, "duration": 11, "velocity": 72}, {"time": 2693, "pitch": 66, "duration": 11, "velocity": 69}, {"time": 2699, "pitch": 49, "duration": 13, "velocity": 63}, {"time": 2705, "pitch": 58, "duration": 6, "velocity": 69}, {"time": 2705, "pitch": 61, "duration": 6, "velocity": 75}, {"time": 2705, "pitch": 66, "duration": 6, "velocity": 81}, {"time": 2711, "pitch": 54, "duration": 2, "velocity": 58}, {"time": 2717, "pitch": 39, "duration": 18, "velocity": 60}, {"time": 2717, "pitch": 54, "duration": 11, "velocity": 62}, {"time": 2717, "pitch": 58, "duration": 11, "velocity": 67}, {"time": 2717, "pitch": 63, "duration": 11, "velocity": 64}, {"time": 2723, "pitch": 46, "duration": 13, "velocity": 67}, {"time": 2729, "pitch": 54, "duration": 7, "velocity": 65}, {"time": 2729, "pitch": 58, "duration": 7, "velocity": 77}, {"time": 2729, "pitch": 63, "duration": 6, "velocity": 75}, {"time": 2735, "pitch": 51, "duration": 6, "velocity": 60}, {"time": 2741, "pitch": 44, "duration": 18, "velocity": 60}, {"time": 2741, "pitch": 59, "duration": 9, "velocity": 70}, {"time": 2741, "pitch": 63, "duration": 10, "velocity": 75}, {"time": 2741, "pitch": 68, "duration": 10, "velocity": 70}, {"time": 2747, "pitch": 51, "duration": 12, "velocity": 62}, {"time": 2753, "pitch": 48, "duration": 6, "velocity": 62}, {"time": 2753, "pitch": 56, "duration": 11, "velocity": 62}, {"time": 2753, "pitch": 60, "duration": 7, "velocity": 62}, {"time": 2753, "pitch": 63, "duration": 6, "velocity": 62}, {"time": 2753, "pitch": 68, "duration": 6, "velocity": 62}, {"time": 2765, "pitch": 49, "duration": 19, "velocity": 63}, {"time": 2765, "pitch": 64, "duration": 11, "velocity": 65}, {"time": 2765, "pitch": 68, "duration": 11, "velocity": 57}, {"time": 2765, "pitch": 73, "duration": 11, "velocity": 63}, {"time": 2771, "pitch": 56, "duration": 12, "velocity": 60}, {"time": 2777, "pitch": 64, "duration": 7, "velocity": 69}, {"time": 2777, "pitch": 68, "duration": 7, "velocity": 72}, {"time": 2777, "pitch": 73, "duration": 6, "velocity": 69}, {"time": 2789, "pitch": 42, "duration": 24, "velocity": 75}, {"time": 2789, "pitch": 46, "duration": 24, "velocity": 75}, {"time": 2789, "pitch": 49, "duration": 24, "velocity": 75}, {"time": 2789, "pitch": 54, "duration": 16, "velocity": 75}, {"time": 2789, "pitch": 58, "duration": 11, "velocity": 75}, {"time": 2789, "pitch": 61, "duration": 9, "velocity": 75}, {"time": 2789, "pitch": 66, "duration": 10, "velocity": 75}, {"time": 2801, "pitch": 58, "duration": 11, "velocity": 80}, {"time": 2801, "pitch": 61, "duration": 11, "velocity": 80}, {"time": 2801, "pitch": 66, "duration": 11, "velocity": 80}, {"time": 2807, "pitch": 54, "duration": 6, "velocity": 47}, {"time": 2813, "pitch": 47, "duration": 50, "velocity": 79}, {"time": 2813, "pitch": 51, "duration": 48, "velocity": 79}, {"time": 2813, "pitch": 54, "duration": 1, "velocity": 79}, {"time": 2813, "pitch": 64, "duration": 11, "velocity": 79}, {"time": 2825, "pitch": 64, "duration": 11, "velocity": 95}, {"time": 2831, "pitch": 59, "duration": 9, "velocity": 54}, {"time": 2837, "pitch": 63, "duration": 11, "velocity": 79}, {"time": 2843, "pitch": 59, "duration": 17, "velocity": 58}, {"time": 2849, "pitch": 63, "duration": 11, "velocity": 69}, {"time": 2861, "pitch": 49, "duration": 23, "velocity": 65}, {"time": 2861, "pitch": 64, "duration": 11, "velocity": 62}, {"time": 2861, "pitch": 68, "duration": 11, "velocity": 77}, {"time": 2867, "pitch": 56, "duration": 15, "velocity": 63}, {"time": 2876, "pitch": 64, "duration": 10, "velocity": 60}, {"time": 2876, "pitch": 68, "duration": 10, "velocity": 66}, {"time": 2885, "pitch": 42, "duration": 74, "velocity": 60}, {"time": 2885, "pitch": 58, "duration": 71, "velocity": 72}, {"time": 2885, "pitch": 61, "duration": 20, "velocity": 72}, {"time": 2891, "pitch": 49, "duration": 67, "velocity": 53}, {"time": 2897, "pitch": 54, "duration": 60, "velocity": 52}, {"time": 2903, "pitch": 46, "duration": 54, "velocity": 58}, {"time": 2909, "pitch": 61, "duration": 47, "velocity": 69}, {"time": 2957, "pitch": 47, "duration": 17, "velocity": 60}, {"time": 2957, "pitch": 51, "duration": 17, "velocity": 64}, {"time": 2957, "pitch": 54, "duration": 17, "velocity": 62}, {"time": 2957, "pitch": 64, "duration": 7, "velocity": 87}, {"time": 2963, "pitch": 59, "duration": 6, "velocity": 69}, {"time": 2969, "pitch": 66, "duration": 6, "velocity": 87}, {"time": 2975, "pitch": 64, "duration": 5, "velocity": 74}, {"time": 2981, "pitch": 54, "duration": 19, "velocity": 62}, {"time": 2981, "pitch": 58, "duration": 19, "velocity": 93}, {"time": 2981, "pitch": 61, "duration": 19, "velocity": 60}, {"time": 2981, "pitch": 66, "duration": 12, "velocity": 68}, {"time": 2999, "pitch": 66, "duration": 6, "velocity": 81}, {"time": 3005, "pitch": 52, "duration": 19, "velocity": 60}, {"time": 3005, "pitch": 56, "duration": 19, "velocity": 68}, {"time": 3005, "pitch": 59, "duration": 19, "velocity": 68}, {"time": 3005, "pitch": 68, "duration": 4, "velocity": 104}, {"time": 3011, "pitch": 68, "duration": 6, "velocity": 74}, {"time": 3017, "pitch": 66, "duration": 7, "velocity": 85}, {"time": 3023, "pitch": 68, "duration": 4, "velocity": 79}, {"time": 3029, "pitch": 54, "duration": 17, "velocity": 47}, {"time": 3029, "pitch": 58, "duration": 17, "velocity": 76}, {"time": 3029, "pitch": 61, "duration": 17, "velocity": 58}, {"time": 3029, "pitch": 70, "duration": 24, "velocity": 111}, {"time": 3053, "pitch": 47, "duration": 18, "velocity": 65}, {"time": 3053, "pitch": 51, "duration": 18, "velocity": 67}, {"time": 3053, "pitch": 54, "duration": 18, "velocity": 40}, {"time": 3053, "pitch": 59, "duration": 3, "velocity": 70}, {"time": 3059, "pitch": 59, "duration": 4, "velocity": 64}, {"time": 3065, "pitch": 66, "duration": 4, "velocity": 72}, {"time": 3071, "pitch": 64, "duration": 4, "velocity": 70}, {"time": 3077, "pitch": 54, "duration": 19, "velocity": 59}, {"time": 3077, "pitch": 58, "duration": 19, "velocity": 83}, {"time": 3077, "pitch": 61, "duration": 19, "velocity": 53}, {"time": 3077, "pitch": 66, "duration": 15, "velocity": 79}, {"time": 3095, "pitch": 66, "duration": 5, "velocity": 71}, {"time": 3101, "pitch": 52, "duration": 18, "velocity": 65}, {"time": 3101, "pitch": 56, "duration": 18, "velocity": 65}, {"time": 3101, "pitch": 59, "duration": 18, "velocity": 67}, {"time": 3101, "pitch": 68, "duration": 5, "velocity": 83}, {"time": 3107, "pitch": 68, "duration": 5, "velocity": 79}, {"time": 3113, "pitch": 66, "duration": 7, "velocity": 70}, {"time": 3119, "pitch": 68, "duration": 5, "velocity": 73}, {"time": 3125, "pitch": 54, "duration": 65, "velocity": 59}, {"time": 3125, "pitch": 58, "duration": 65, "velocity": 86}, {"time": 3125, "pitch": 61, "duration": 65, "velocity": 53}, {"time": 3125, "pitch": 70, "duration": 72, "velocity": 100}], "annotations": [{"time": 5, "annotation": {"number": 64, "value": 70}, "group": "control_change"}, {"time": 17, "annotation": {"number": 64, "value": 72}, "group": "control_change"}]}]}