{"metadata": {"schema_version": "0.2", "title": "None", "source_filename": "148.mid", "source_format": "midi"}, "resolution": 12, "tempos": [{"time": 0, "qpm": 96.0}], "key_signatures": [{"time": 0, "root": 0, "mode": "major"}], "time_signatures": [{"time": 0, "numerator": 4, "denominator": 4}, {"time": 0, "numerator": 1, "denominator": 4}], "tracks": [{"program": 4, "is_drum": false, "name": "MELODY", "notes": [{"time": 502, "pitch": 57, "duration": 6, "velocity": 61}, {"time": 508, "pitch": 66, "duration": 6, "velocity": 62}, {"time": 514, "pitch": 66, "duration": 6, "velocity": 60}, {"time": 520, "pitch": 66, "duration": 6, "velocity": 65}, {"time": 526, "pitch": 66, "duration": 6, "velocity": 71}, {"time": 532, "pitch": 66, "duration": 6, "velocity": 72}, {"time": 538, "pitch": 64, "duration": 6, "velocity": 61}, {"time": 544, "pitch": 64, "duration": 6, "velocity": 61}, {"time": 550, "pitch": 64, "duration": 6, "velocity": 63}, {"time": 556, "pitch": 64, "duration": 12, "velocity": 67}, {"time": 568, "pitch": 62, "duration": 6, "velocity": 55}, {"time": 574, "pitch": 66, "duration": 120, "velocity": 58}, {"time": 694, "pitch": 57, "duration": 7, "velocity": 58}, {"time": 700, "pitch": 66, "duration": 6, "velocity": 62}, {"time": 706, "pitch": 66, "duration": 6, "velocity": 60}, {"time": 712, "pitch": 66, "duration": 6, "velocity": 66}, {"time": 718, "pitch": 66, "duration": 6, "velocity": 60}, {"time": 724, "pitch": 66, "duration": 6, "velocity": 83}, {"time": 730, "pitch": 64, "duration": 6, "velocity": 63}, {"time": 736, "pitch": 64, "duration": 6, "velocity": 61}, {"time": 742, "pitch": 64, "duration": 6, "velocity": 61}, {"time": 748, "pitch": 64, "duration": 12, "velocity": 66}, {"time": 760, "pitch": 57, "duration": 6, "velocity": 67}, {"time": 766, "pitch": 66, "duration": 78, "velocity": 58}, {"time": 844, "pitch": 59, "duration": 6, "velocity": 61}, {"time": 850, "pitch": 61, "duration": 7, "velocity": 60}, {"time": 856, "pitch": 62, "duration": 6, "velocity": 60}, {"time": 862, "pitch": 59, "duration": 13, "velocity": 60}, {"time": 874, "pitch": 71, "duration": 24, "velocity": 71}, {"time": 898, "pitch": 59, "duration": 7, "velocity": 58}, {"time": 904, "pitch": 62, "duration": 7, "velocity": 59}, {"time": 910, "pitch": 61, "duration": 24, "velocity": 58}, {"time": 934, "pitch": 61, "duration": 6, "velocity": 57}, {"time": 940, "pitch": 61, "duration": 6, "velocity": 59}, {"time": 946, "pitch": 62, "duration": 6, "velocity": 64}, {"time": 952, "pitch": 64, "duration": 6, "velocity": 65}, {"time": 958, "pitch": 73, "duration": 12, "velocity": 64}, {"time": 970, "pitch": 69, "duration": 12, "velocity": 76}, {"time": 982, "pitch": 69, "duration": 6, "velocity": 73}, {"time": 988, "pitch": 69, "duration": 12, "velocity": 72}, {"time": 1000, "pitch": 61, "duration": 7, "velocity": 58}, {"time": 1006, "pitch": 64, "duration": 12, "velocity": 66}, {"time": 1018, "pitch": 62, "duration": 30, "velocity": 63}, {"time": 1048, "pitch": 66, "duration": 6, "velocity": 68}, {"time": 1054, "pitch": 66, "duration": 6, "velocity": 69}, {"time": 1060, "pitch": 67, "duration": 12, "velocity": 69}, {"time": 1072, "pitch": 67, "duration": 6, "velocity": 74}, {"time": 1078, "pitch": 67, "duration": 12, "velocity": 67}, {"time": 1090, "pitch": 66, "duration": 12, "velocity": 74}, {"time": 1102, "pitch": 64, "duration": 25, "velocity": 71}, {"time": 1126, "pitch": 57, "duration": 9, "velocity": 60}, {"time": 1132, "pitch": 64, "duration": 10, "velocity": 59}, {"time": 1141, "pitch": 66, "duration": 10, "velocity": 62}, {"time": 1150, "pitch": 67, "duration": 12, "velocity": 76}, {"time": 1162, "pitch": 66, "duration": 108, "velocity": 67}, {"time": 1270, "pitch": 57, "duration": 6, "velocity": 61}, {"time": 1276, "pitch": 66, "duration": 6, "velocity": 62}, {"time": 1282, "pitch": 66, "duration": 6, "velocity": 60}, {"time": 1288, "pitch": 66, "duration": 6, "velocity": 65}, {"time": 1294, "pitch": 66, "duration": 6, "velocity": 71}, {"time": 1300, "pitch": 66, "duration": 6, "velocity": 72}, {"time": 1306, "pitch": 64, "duration": 6, "velocity": 61}, {"time": 1312, "pitch": 64, "duration": 6, "velocity": 61}, {"time": 1318, "pitch": 64, "duration": 6, "velocity": 63}, {"time": 1324, "pitch": 64, "duration": 12, "velocity": 67}, {"time": 1336, "pitch": 62, "duration": 6, "velocity": 55}, {"time": 1342, "pitch": 66, "duration": 120, "velocity": 58}, {"time": 1462, "pitch": 57, "duration": 7, "velocity": 58}, {"time": 1468, "pitch": 66, "duration": 6, "velocity": 62}, {"time": 1474, "pitch": 66, "duration": 6, "velocity": 60}, {"time": 1480, "pitch": 66, "duration": 6, "velocity": 66}, {"time": 1486, "pitch": 66, "duration": 6, "velocity": 60}, {"time": 1492, "pitch": 66, "duration": 6, "velocity": 83}, {"time": 1498, "pitch": 64, "duration": 6, "velocity": 63}, {"time": 1504, "pitch": 64, "duration": 6, "velocity": 61}, {"time": 1510, "pitch": 64, "duration": 6, "velocity": 61}, {"time": 1516, "pitch": 64, "duration": 12, "velocity": 66}, {"time": 1528, "pitch": 57, "duration": 6, "velocity": 67}, {"time": 1534, "pitch": 66, "duration": 78, "velocity": 58}, {"time": 1612, "pitch": 59, "duration": 6, "velocity": 61}, {"time": 1618, "pitch": 61, "duration": 7, "velocity": 60}, {"time": 1624, "pitch": 62, "duration": 6, "velocity": 60}, {"time": 1630, "pitch": 59, "duration": 13, "velocity": 60}, {"time": 1642, "pitch": 71, "duration": 24, "velocity": 71}, {"time": 1666, "pitch": 59, "duration": 7, "velocity": 58}, {"time": 1672, "pitch": 62, "duration": 7, "velocity": 59}, {"time": 1678, "pitch": 61, "duration": 24, "velocity": 58}, {"time": 1702, "pitch": 61, "duration": 6, "velocity": 57}, {"time": 1708, "pitch": 61, "duration": 6, "velocity": 59}, {"time": 1714, "pitch": 62, "duration": 6, "velocity": 64}, {"time": 1720, "pitch": 64, "duration": 6, "velocity": 65}, {"time": 1726, "pitch": 73, "duration": 12, "velocity": 64}, {"time": 1738, "pitch": 69, "duration": 12, "velocity": 76}, {"time": 1750, "pitch": 69, "duration": 6, "velocity": 73}, {"time": 1756, "pitch": 69, "duration": 12, "velocity": 72}, {"time": 1768, "pitch": 61, "duration": 7, "velocity": 58}, {"time": 1774, "pitch": 64, "duration": 12, "velocity": 66}, {"time": 1786, "pitch": 62, "duration": 30, "velocity": 63}, {"time": 1816, "pitch": 66, "duration": 6, "velocity": 68}, {"time": 1822, "pitch": 66, "duration": 6, "velocity": 69}, {"time": 1828, "pitch": 67, "duration": 12, "velocity": 69}, {"time": 1840, "pitch": 67, "duration": 6, "velocity": 74}, {"time": 1846, "pitch": 59, "duration": 18, "velocity": 62}, {"time": 1864, "pitch": 62, "duration": 6, "velocity": 67}, {"time": 1870, "pitch": 61, "duration": 24, "velocity": 81}, {"time": 1894, "pitch": 57, "duration": 6, "velocity": 54}, {"time": 1900, "pitch": 66, "duration": 7, "velocity": 63}, {"time": 1906, "pitch": 64, "duration": 7, "velocity": 62}, {"time": 1912, "pitch": 66, "duration": 7, "velocity": 66}, {"time": 1918, "pitch": 64, "duration": 12, "velocity": 59}, {"time": 1930, "pitch": 62, "duration": 60, "velocity": 66}, {"time": 1990, "pitch": 62, "duration": 7, "velocity": 65}, {"time": 1996, "pitch": 74, "duration": 7, "velocity": 65}, {"time": 2002, "pitch": 76, "duration": 8, "velocity": 63}, {"time": 2008, "pitch": 78, "duration": 7, "velocity": 75}, {"time": 2014, "pitch": 71, "duration": 12, "velocity": 53}, {"time": 2026, "pitch": 76, "duration": 24, "velocity": 69}, {"time": 2050, "pitch": 78, "duration": 12, "velocity": 75}, {"time": 2062, "pitch": 71, "duration": 13, "velocity": 65}, {"time": 2074, "pitch": 76, "duration": 12, "velocity": 74}, {"time": 2086, "pitch": 76, "duration": 6, "velocity": 73}, {"time": 2092, "pitch": 76, "duration": 6, "velocity": 76}, {"time": 2098, "pitch": 74, "duration": 6, "velocity": 65}, {"time": 2104, "pitch": 73, "duration": 6, "velocity": 73}, {"time": 2110, "pitch": 74, "duration": 6, "velocity": 73}, {"time": 2116, "pitch": 76, "duration": 12, "velocity": 79}, {"time": 2128, "pitch": 76, "duration": 6, "velocity": 72}, {"time": 2134, "pitch": 76, "duration": 6, "velocity": 69}, {"time": 2140, "pitch": 76, "duration": 12, "velocity": 70}, {"time": 2152, "pitch": 69, "duration": 6, "velocity": 66}, {"time": 2158, "pitch": 76, "duration": 12, "velocity": 67}, {"time": 2170, "pitch": 74, "duration": 12, "velocity": 72}, {"time": 2182, "pitch": 74, "duration": 6, "velocity": 70}, {"time": 2188, "pitch": 74, "duration": 9, "velocity": 81}, {"time": 2197, "pitch": 73, "duration": 6, "velocity": 74}, {"time": 2203, "pitch": 71, "duration": 9, "velocity": 68}, {"time": 2212, "pitch": 67, "duration": 9, "velocity": 74}, {"time": 2221, "pitch": 74, "duration": 9, "velocity": 75}, {"time": 2230, "pitch": 74, "duration": 6, "velocity": 74}, {"time": 2236, "pitch": 74, "duration": 9, "velocity": 95}, {"time": 2245, "pitch": 73, "duration": 9, "velocity": 73}, {"time": 2254, "pitch": 73, "duration": 6, "velocity": 77}, {"time": 2260, "pitch": 71, "duration": 9, "velocity": 69}, {"time": 2269, "pitch": 69, "duration": 15, "velocity": 77}, {"time": 2284, "pitch": 69, "duration": 6, "velocity": 83}, {"time": 2290, "pitch": 69, "duration": 18, "velocity": 85}, {"time": 2308, "pitch": 76, "duration": 9, "velocity": 86}, {"time": 2317, "pitch": 69, "duration": 9, "velocity": 85}, {"time": 2326, "pitch": 76, "duration": 12, "velocity": 90}, {"time": 2338, "pitch": 79, "duration": 12, "velocity": 100}, {"time": 2350, "pitch": 78, "duration": 30, "velocity": 90}, {"time": 2380, "pitch": 74, "duration": 7, "velocity": 83}, {"time": 2386, "pitch": 76, "duration": 6, "velocity": 71}, {"time": 2392, "pitch": 78, "duration": 6, "velocity": 74}, {"time": 2398, "pitch": 71, "duration": 13, "velocity": 98}, {"time": 2410, "pitch": 76, "duration": 24, "velocity": 93}, {"time": 2434, "pitch": 78, "duration": 12, "velocity": 104}, {"time": 2446, "pitch": 71, "duration": 11, "velocity": 93}, {"time": 2457, "pitch": 76, "duration": 13, "velocity": 83}, {"time": 2470, "pitch": 76, "duration": 6, "velocity": 100}, {"time": 2476, "pitch": 76, "duration": 6, "velocity": 95}, {"time": 2482, "pitch": 74, "duration": 6, "velocity": 68}, {"time": 2488, "pitch": 73, "duration": 6, "velocity": 90}, {"time": 2494, "pitch": 74, "duration": 6, "velocity": 77}, {"time": 2500, "pitch": 76, "duration": 12, "velocity": 90}, {"time": 2512, "pitch": 76, "duration": 6, "velocity": 86}, {"time": 2518, "pitch": 76, "duration": 6, "velocity": 85}, {"time": 2524, "pitch": 76, "duration": 12, "velocity": 87}, {"time": 2536, "pitch": 69, "duration": 6, "velocity": 70}, {"time": 2542, "pitch": 76, "duration": 12, "velocity": 95}, {"time": 2554, "pitch": 74, "duration": 12, "velocity": 79}, {"time": 2566, "pitch": 74, "duration": 6, "velocity": 74}, {"time": 2572, "pitch": 74, "duration": 9, "velocity": 74}, {"time": 2581, "pitch": 73, "duration": 9, "velocity": 70}, {"time": 2590, "pitch": 74, "duration": 6, "velocity": 70}, {"time": 2596, "pitch": 69, "duration": 9, "velocity": 69}, {"time": 2605, "pitch": 67, "duration": 48, "velocity": 59}, {"time": 2644, "pitch": 74, "duration": 13, "velocity": 79}, {"time": 2656, "pitch": 73, "duration": 7, "velocity": 65}, {"time": 2662, "pitch": 71, "duration": 13, "velocity": 68}, {"time": 2674, "pitch": 76, "duration": 15, "velocity": 79}, {"time": 2685, "pitch": 74, "duration": 111, "velocity": 90}, {"time": 3190, "pitch": 57, "duration": 6, "velocity": 61}, {"time": 3196, "pitch": 66, "duration": 6, "velocity": 62}, {"time": 3202, "pitch": 66, "duration": 6, "velocity": 60}, {"time": 3208, "pitch": 66, "duration": 6, "velocity": 65}, {"time": 3214, "pitch": 66, "duration": 6, "velocity": 71}, {"time": 3220, "pitch": 66, "duration": 6, "velocity": 72}, {"time": 3226, "pitch": 64, "duration": 6, "velocity": 61}, {"time": 3232, "pitch": 64, "duration": 6, "velocity": 61}, {"time": 3238, "pitch": 64, "duration": 6, "velocity": 63}, {"time": 3244, "pitch": 64, "duration": 12, "velocity": 67}, {"time": 3256, "pitch": 62, "duration": 6, "velocity": 55}, {"time": 3262, "pitch": 66, "duration": 120, "velocity": 58}, {"time": 3382, "pitch": 57, "duration": 7, "velocity": 58}, {"time": 3388, "pitch": 66, "duration": 6, "velocity": 62}, {"time": 3394, "pitch": 66, "duration": 6, "velocity": 60}, {"time": 3400, "pitch": 66, "duration": 6, "velocity": 66}, {"time": 3406, "pitch": 66, "duration": 6, "velocity": 60}, {"time": 3412, "pitch": 66, "duration": 6, "velocity": 83}, {"time": 3418, "pitch": 64, "duration": 6, "velocity": 63}, {"time": 3430, "pitch": 64, "duration": 6, "velocity": 61}, {"time": 3436, "pitch": 57, "duration": 5, "velocity": 66}, {"time": 3442, "pitch": 67, "duration": 12, "velocity": 67}, {"time": 3454, "pitch": 66, "duration": 78, "velocity": 58}, {"time": 3532, "pitch": 61, "duration": 6, "velocity": 61}, {"time": 3538, "pitch": 62, "duration": 7, "velocity": 60}, {"time": 3544, "pitch": 62, "duration": 1, "velocity": 60}, {"time": 3550, "pitch": 59, "duration": 13, "velocity": 60}, {"time": 3562, "pitch": 71, "duration": 17, "velocity": 71}, {"time": 3580, "pitch": 59, "duration": 8, "velocity": 58}, {"time": 3592, "pitch": 62, "duration": 6, "velocity": 59}, {"time": 3598, "pitch": 62, "duration": 12, "velocity": 59}, {"time": 3610, "pitch": 61, "duration": 12, "velocity": 58}, {"time": 3628, "pitch": 61, "duration": 6, "velocity": 59}, {"time": 3634, "pitch": 62, "duration": 6, "velocity": 64}, {"time": 3640, "pitch": 64, "duration": 6, "velocity": 65}, {"time": 3646, "pitch": 73, "duration": 12, "velocity": 64}, {"time": 3658, "pitch": 69, "duration": 12, "velocity": 76}, {"time": 3670, "pitch": 69, "duration": 6, "velocity": 73}, {"time": 3676, "pitch": 69, "duration": 12, "velocity": 72}, {"time": 3688, "pitch": 61, "duration": 7, "velocity": 58}, {"time": 3694, "pitch": 64, "duration": 12, "velocity": 66}, {"time": 3706, "pitch": 62, "duration": 30, "velocity": 63}, {"time": 3742, "pitch": 66, "duration": 6, "velocity": 69}, {"time": 3748, "pitch": 67, "duration": 12, "velocity": 69}, {"time": 3760, "pitch": 67, "duration": 6, "velocity": 74}, {"time": 3760, "pitch": 67, "duration": 6, "velocity": 86}, {"time": 3766, "pitch": 69, "duration": 12, "velocity": 95}, {"time": 3778, "pitch": 67, "duration": 12, "velocity": 90}, {"time": 3790, "pitch": 66, "duration": 6, "velocity": 70}, {"time": 3796, "pitch": 66, "duration": 12, "velocity": 100}, {"time": 3808, "pitch": 64, "duration": 6, "velocity": 73}, {"time": 3814, "pitch": 57, "duration": 12, "velocity": 76}, {"time": 3826, "pitch": 66, "duration": 14, "velocity": 72}, {"time": 3836, "pitch": 64, "duration": 8, "velocity": 72}, {"time": 3842, "pitch": 62, "duration": 68, "velocity": 66}, {"time": 3910, "pitch": 66, "duration": 7, "velocity": 65}, {"time": 3916, "pitch": 74, "duration": 7, "velocity": 65}, {"time": 3922, "pitch": 76, "duration": 8, "velocity": 63}, {"time": 3928, "pitch": 78, "duration": 7, "velocity": 75}, {"time": 3934, "pitch": 71, "duration": 12, "velocity": 53}, {"time": 3946, "pitch": 76, "duration": 24, "velocity": 69}, {"time": 3970, "pitch": 78, "duration": 12, "velocity": 75}, {"time": 3982, "pitch": 71, "duration": 13, "velocity": 65}, {"time": 3994, "pitch": 76, "duration": 12, "velocity": 74}, {"time": 4006, "pitch": 76, "duration": 6, "velocity": 73}, {"time": 4012, "pitch": 76, "duration": 6, "velocity": 76}, {"time": 4018, "pitch": 74, "duration": 6, "velocity": 65}, {"time": 4024, "pitch": 73, "duration": 6, "velocity": 73}, {"time": 4030, "pitch": 74, "duration": 6, "velocity": 73}, {"time": 4036, "pitch": 76, "duration": 12, "velocity": 79}, {"time": 4048, "pitch": 76, "duration": 6, "velocity": 72}, {"time": 4054, "pitch": 76, "duration": 6, "velocity": 69}, {"time": 4060, "pitch": 76, "duration": 12, "velocity": 70}, {"time": 4072, "pitch": 69, "duration": 6, "velocity": 66}, {"time": 4078, "pitch": 76, "duration": 12, "velocity": 67}, {"time": 4090, "pitch": 74, "duration": 12, "velocity": 72}, {"time": 4102, "pitch": 74, "duration": 6, "velocity": 70}, {"time": 4108, "pitch": 74, "duration": 9, "velocity": 81}, {"time": 4117, "pitch": 73, "duration": 9, "velocity": 74}, {"time": 4126, "pitch": 71, "duration": 6, "velocity": 68}, {"time": 4132, "pitch": 69, "duration": 5, "velocity": 74}, {"time": 4138, "pitch": 67, "duration": 5, "velocity": 74}, {"time": 4144, "pitch": 74, "duration": 30, "velocity": 95}, {"time": 4174, "pitch": 69, "duration": 6, "velocity": 67}, {"time": 4180, "pitch": 69, "duration": 6, "velocity": 75}, {"time": 4186, "pitch": 67, "duration": 7, "velocity": 75}, {"time": 4192, "pitch": 76, "duration": 18, "velocity": 83}, {"time": 4210, "pitch": 76, "duration": 18, "velocity": 111}, {"time": 4228, "pitch": 76, "duration": 13, "velocity": 86}, {"time": 4240, "pitch": 69, "duration": 9, "velocity": 85}, {"time": 4246, "pitch": 76, "duration": 12, "velocity": 90}, {"time": 4258, "pitch": 79, "duration": 12, "velocity": 100}, {"time": 4270, "pitch": 78, "duration": 24, "velocity": 90}, {"time": 4294, "pitch": 69, "duration": 6, "velocity": 75}, {"time": 4300, "pitch": 74, "duration": 7, "velocity": 83}, {"time": 4306, "pitch": 76, "duration": 6, "velocity": 71}, {"time": 4312, "pitch": 78, "duration": 6, "velocity": 74}, {"time": 4318, "pitch": 71, "duration": 13, "velocity": 98}, {"time": 4330, "pitch": 76, "duration": 24, "velocity": 93}, {"time": 4354, "pitch": 78, "duration": 12, "velocity": 104}, {"time": 4366, "pitch": 71, "duration": 11, "velocity": 93}, {"time": 4378, "pitch": 78, "duration": 7, "velocity": 93}, {"time": 4384, "pitch": 76, "duration": 6, "velocity": 83}, {"time": 4390, "pitch": 76, "duration": 6, "velocity": 100}, {"time": 4396, "pitch": 76, "duration": 6, "velocity": 95}, {"time": 4402, "pitch": 74, "duration": 6, "velocity": 68}, {"time": 4408, "pitch": 73, "duration": 6, "velocity": 90}, {"time": 4414, "pitch": 74, "duration": 6, "velocity": 77}, {"time": 4420, "pitch": 76, "duration": 12, "velocity": 90}, {"time": 4432, "pitch": 76, "duration": 6, "velocity": 86}, {"time": 4438, "pitch": 76, "duration": 13, "velocity": 85}, {"time": 4450, "pitch": 69, "duration": 14, "velocity": 87}, {"time": 4462, "pitch": 76, "duration": 12, "velocity": 95}, {"time": 4474, "pitch": 74, "duration": 20, "velocity": 100}, {"time": 4492, "pitch": 74, "duration": 2, "velocity": 98}, {"time": 4501, "pitch": 73, "duration": 8, "velocity": 77}, {"time": 4508, "pitch": 73, "duration": 1, "velocity": 74}, {"time": 4516, "pitch": 71, "duration": 4, "velocity": 93}, {"time": 4520, "pitch": 69, "duration": 5, "velocity": 73}, {"time": 4525, "pitch": 67, "duration": 33, "velocity": 87}, {"time": 4558, "pitch": 74, "duration": 6, "velocity": 67}, {"time": 4564, "pitch": 74, "duration": 12, "velocity": 77}, {"time": 4576, "pitch": 76, "duration": 8, "velocity": 74}, {"time": 4582, "pitch": 78, "duration": 18, "velocity": 86}, {"time": 4606, "pitch": 73, "duration": 25, "velocity": 73}, {"time": 4630, "pitch": 74, "duration": 86, "velocity": 93}, {"time": 4720, "pitch": 66, "duration": 6, "velocity": 79}, {"time": 4726, "pitch": 66, "duration": 6, "velocity": 71}, {"time": 4732, "pitch": 66, "duration": 12, "velocity": 76}, {"time": 4744, "pitch": 66, "duration": 6, "velocity": 74}, {"time": 4750, "pitch": 66, "duration": 12, "velocity": 73}, {"time": 4762, "pitch": 64, "duration": 12, "velocity": 81}, {"time": 4774, "pitch": 64, "duration": 8, "velocity": 63}, {"time": 4780, "pitch": 57, "duration": 14, "velocity": 67}, {"time": 4792, "pitch": 67, "duration": 7, "velocity": 70}, {"time": 4798, "pitch": 66, "duration": 120, "velocity": 64}, {"time": 4918, "pitch": 66, "duration": 6, "velocity": 60}, {"time": 4924, "pitch": 66, "duration": 6, "velocity": 64}, {"time": 4930, "pitch": 66, "duration": 6, "velocity": 65}, {"time": 4936, "pitch": 66, "duration": 6, "velocity": 65}, {"time": 4942, "pitch": 66, "duration": 6, "velocity": 65}, {"time": 4948, "pitch": 66, "duration": 12, "velocity": 74}, {"time": 4960, "pitch": 64, "duration": 6, "velocity": 67}, {"time": 4966, "pitch": 57, "duration": 13, "velocity": 54}, {"time": 4978, "pitch": 67, "duration": 15, "velocity": 63}, {"time": 4993, "pitch": 66, "duration": 77, "velocity": 67}, {"time": 5068, "pitch": 59, "duration": 8, "velocity": 69}, {"time": 5074, "pitch": 61, "duration": 6, "velocity": 75}, {"time": 5080, "pitch": 62, "duration": 7, "velocity": 73}, {"time": 5086, "pitch": 59, "duration": 13, "velocity": 62}, {"time": 5098, "pitch": 71, "duration": 24, "velocity": 81}, {"time": 5122, "pitch": 59, "duration": 6, "velocity": 60}, {"time": 5128, "pitch": 62, "duration": 7, "velocity": 63}, {"time": 5134, "pitch": 61, "duration": 30, "velocity": 60}, {"time": 5164, "pitch": 61, "duration": 9, "velocity": 70}, {"time": 5170, "pitch": 62, "duration": 7, "velocity": 66}, {"time": 5176, "pitch": 64, "duration": 6, "velocity": 67}, {"time": 5182, "pitch": 73, "duration": 12, "velocity": 79}, {"time": 5194, "pitch": 69, "duration": 11, "velocity": 76}, {"time": 5205, "pitch": 69, "duration": 2, "velocity": 76}, {"time": 5212, "pitch": 69, "duration": 11, "velocity": 81}, {"time": 5224, "pitch": 61, "duration": 9, "velocity": 60}, {"time": 5233, "pitch": 64, "duration": 9, "velocity": 72}, {"time": 5242, "pitch": 62, "duration": 38, "velocity": 62}, {"time": 5281, "pitch": 57, "duration": 6, "velocity": 59}, {"time": 5287, "pitch": 67, "duration": 11, "velocity": 74}, {"time": 5296, "pitch": 66, "duration": 9, "velocity": 58}, {"time": 5305, "pitch": 67, "duration": 18, "velocity": 69}, {"time": 5320, "pitch": 66, "duration": 13, "velocity": 66}, {"time": 5332, "pitch": 64, "duration": 24, "velocity": 67}, {"time": 5350, "pitch": 57, "duration": 9, "velocity": 59}, {"time": 5359, "pitch": 66, "duration": 10, "velocity": 67}, {"time": 5368, "pitch": 64, "duration": 8, "velocity": 61}, {"time": 5374, "pitch": 66, "duration": 12, "velocity": 59}, {"time": 5386, "pitch": 64, "duration": 18, "velocity": 59}, {"time": 5401, "pitch": 62, "duration": 76, "velocity": 58}, {"time": 5470, "pitch": 57, "duration": 6, "velocity": 59}, {"time": 5476, "pitch": 67, "duration": 18, "velocity": 69}, {"time": 5494, "pitch": 67, "duration": 18, "velocity": 73}, {"time": 5512, "pitch": 57, "duration": 19, "velocity": 62}, {"time": 5531, "pitch": 64, "duration": 24, "velocity": 71}, {"time": 5554, "pitch": 57, "duration": 9, "velocity": 48}, {"time": 5563, "pitch": 57, "duration": 17, "velocity": 52}, {"time": 5578, "pitch": 66, "duration": 12, "velocity": 58}, {"time": 5590, "pitch": 64, "duration": 14, "velocity": 57}, {"time": 5602, "pitch": 66, "duration": 21, "velocity": 58}, {"time": 5623, "pitch": 64, "duration": 33, "velocity": 59}, {"time": 5656, "pitch": 62, "duration": 176, "velocity": 47}]}, {"program": 0, "is_drum": false, "name": "PIANO", "notes": [{"time": 70, "pitch": 81, "duration": 3, "velocity": 47}, {"time": 76, "pitch": 86, "duration": 5, "velocity": 61}, {"time": 82, "pitch": 88, "duration": 7, "velocity": 70}, {"time": 88, "pitch": 90, "duration": 5, "velocity": 69}, {"time": 94, "pitch": 83, "duration": 7, "velocity": 65}, {"time": 100, "pitch": 67, "duration": 23, "velocity": 74}, {"time": 106, "pitch": 88, "duration": 11, "velocity": 68}, {"time": 112, "pitch": 74, "duration": 13, "velocity": 56}, {"time": 124, "pitch": 79, "duration": 24, "velocity": 57}, {"time": 130, "pitch": 90, "duration": 7, "velocity": 69}, {"time": 142, "pitch": 83, "duration": 8, "velocity": 58}, {"time": 148, "pitch": 69, "duration": 25, "velocity": 53}, {"time": 154, "pitch": 88, "duration": 18, "velocity": 67}, {"time": 160, "pitch": 76, "duration": 24, "velocity": 59}, {"time": 172, "pitch": 81, "duration": 16, "velocity": 58}, {"time": 178, "pitch": 86, "duration": 6, "velocity": 75}, {"time": 184, "pitch": 85, "duration": 7, "velocity": 67}, {"time": 190, "pitch": 86, "duration": 4, "velocity": 87}, {"time": 196, "pitch": 66, "duration": 34, "velocity": 58}, {"time": 196, "pitch": 88, "duration": 15, "velocity": 93}, {"time": 202, "pitch": 73, "duration": 28, "velocity": 67}, {"time": 208, "pitch": 74, "duration": 8, "velocity": 60}, {"time": 214, "pitch": 81, "duration": 16, "velocity": 72}, {"time": 214, "pitch": 88, "duration": 7, "velocity": 63}, {"time": 232, "pitch": 81, "duration": 5, "velocity": 71}, {"time": 244, "pitch": 71, "duration": 18, "velocity": 56}, {"time": 244, "pitch": 78, "duration": 18, "velocity": 60}, {"time": 244, "pitch": 86, "duration": 23, "velocity": 65}, {"time": 262, "pitch": 81, "duration": 5, "velocity": 58}, {"time": 268, "pitch": 86, "duration": 7, "velocity": 63}, {"time": 274, "pitch": 88, "duration": 7, "velocity": 63}, {"time": 280, "pitch": 66, "duration": 10, "velocity": 62}, {"time": 280, "pitch": 90, "duration": 6, "velocity": 63}, {"time": 286, "pitch": 83, "duration": 10, "velocity": 71}, {"time": 292, "pitch": 67, "duration": 42, "velocity": 67}, {"time": 298, "pitch": 88, "duration": 19, "velocity": 64}, {"time": 304, "pitch": 76, "duration": 12, "velocity": 56}, {"time": 316, "pitch": 81, "duration": 14, "velocity": 61}, {"time": 322, "pitch": 90, "duration": 6, "velocity": 60}, {"time": 334, "pitch": 83, "duration": 7, "velocity": 61}, {"time": 340, "pitch": 69, "duration": 47, "velocity": 46}, {"time": 346, "pitch": 88, "duration": 18, "velocity": 64}, {"time": 352, "pitch": 74, "duration": 27, "velocity": 57}, {"time": 364, "pitch": 81, "duration": 24, "velocity": 72}, {"time": 370, "pitch": 86, "duration": 2, "velocity": 46}, {"time": 376, "pitch": 88, "duration": 6, "velocity": 70}, {"time": 382, "pitch": 90, "duration": 5, "velocity": 63}, {"time": 388, "pitch": 66, "duration": 48, "velocity": 69}, {"time": 388, "pitch": 81, "duration": 1, "velocity": 63}, {"time": 394, "pitch": 74, "duration": 6, "velocity": 59}, {"time": 400, "pitch": 73, "duration": 6, "velocity": 61}, {"time": 406, "pitch": 74, "duration": 7, "velocity": 71}, {"time": 418, "pitch": 76, "duration": 4, "velocity": 59}, {"time": 430, "pitch": 78, "duration": 23, "velocity": 43}, {"time": 433, "pitch": 85, "duration": 4, "velocity": 58}, {"time": 433, "pitch": 86, "duration": 4, "velocity": 65}, {"time": 436, "pitch": 93, "duration": 15, "velocity": 67}, {"time": 484, "pitch": 55, "duration": 41, "velocity": 63}, {"time": 490, "pitch": 62, "duration": 38, "velocity": 59}, {"time": 490, "pitch": 73, "duration": 9, "velocity": 60}, {"time": 496, "pitch": 67, "duration": 28, "velocity": 52}, {"time": 496, "pitch": 74, "duration": 6, "velocity": 69}, {"time": 502, "pitch": 78, "duration": 27, "velocity": 71}, {"time": 532, "pitch": 57, "duration": 40, "velocity": 59}, {"time": 538, "pitch": 64, "duration": 33, "velocity": 59}, {"time": 538, "pitch": 73, "duration": 8, "velocity": 58}, {"time": 544, "pitch": 69, "duration": 25, "velocity": 46}, {"time": 544, "pitch": 74, "duration": 6, "velocity": 67}, {"time": 550, "pitch": 61, "duration": 22, "velocity": 62}, {"time": 550, "pitch": 81, "duration": 22, "velocity": 61}, {"time": 562, "pitch": 74, "duration": 16, "velocity": 58}, {"time": 580, "pitch": 54, "duration": 43, "velocity": 66}, {"time": 586, "pitch": 61, "duration": 38, "velocity": 59}, {"time": 586, "pitch": 69, "duration": 7, "velocity": 31}, {"time": 592, "pitch": 81, "duration": 8, "velocity": 62}, {"time": 597, "pitch": 66, "duration": 28, "velocity": 45}, {"time": 598, "pitch": 73, "duration": 23, "velocity": 64}, {"time": 610, "pitch": 74, "duration": 12, "velocity": 55}, {"time": 622, "pitch": 76, "duration": 7, "velocity": 59}, {"time": 628, "pitch": 69, "duration": 37, "velocity": 46}, {"time": 652, "pitch": 73, "duration": 12, "velocity": 59}, {"time": 664, "pitch": 74, "duration": 10, "velocity": 65}, {"time": 676, "pitch": 62, "duration": 51, "velocity": 83}, {"time": 682, "pitch": 73, "duration": 7, "velocity": 49}, {"time": 688, "pitch": 74, "duration": 6, "velocity": 68}, {"time": 694, "pitch": 78, "duration": 25, "velocity": 64}, {"time": 724, "pitch": 57, "duration": 42, "velocity": 60}, {"time": 730, "pitch": 73, "duration": 13, "velocity": 58}, {"time": 736, "pitch": 74, "duration": 7, "velocity": 61}, {"time": 742, "pitch": 81, "duration": 24, "velocity": 64}, {"time": 754, "pitch": 76, "duration": 11, "velocity": 55}, {"time": 769, "pitch": 73, "duration": 30, "velocity": 32}, {"time": 772, "pitch": 62, "duration": 35, "velocity": 63}, {"time": 772, "pitch": 74, "duration": 32, "velocity": 67}, {"time": 772, "pitch": 81, "duration": 36, "velocity": 61}, {"time": 790, "pitch": 78, "duration": 14, "velocity": 52}, {"time": 808, "pitch": 69, "duration": 29, "velocity": 42}, {"time": 820, "pitch": 59, "duration": 43, "velocity": 63}, {"time": 826, "pitch": 66, "duration": 37, "velocity": 54}, {"time": 832, "pitch": 74, "duration": 24, "velocity": 61}, {"time": 838, "pitch": 78, "duration": 21, "velocity": 57}, {"time": 868, "pitch": 55, "duration": 43, "velocity": 58}, {"time": 868, "pitch": 74, "duration": 20, "velocity": 61}, {"time": 874, "pitch": 62, "duration": 41, "velocity": 62}, {"time": 880, "pitch": 67, "duration": 25, "velocity": 59}, {"time": 886, "pitch": 71, "duration": 19, "velocity": 58}, {"time": 898, "pitch": 74, "duration": 17, "velocity": 59}, {"time": 910, "pitch": 71, "duration": 7, "velocity": 58}, {"time": 916, "pitch": 57, "duration": 41, "velocity": 74}, {"time": 922, "pitch": 64, "duration": 33, "velocity": 70}, {"time": 928, "pitch": 69, "duration": 21, "velocity": 43}, {"time": 934, "pitch": 73, "duration": 30, "velocity": 59}, {"time": 946, "pitch": 79, "duration": 13, "velocity": 55}, {"time": 958, "pitch": 78, "duration": 6, "velocity": 59}, {"time": 964, "pitch": 54, "duration": 37, "velocity": 68}, {"time": 970, "pitch": 61, "duration": 36, "velocity": 68}, {"time": 982, "pitch": 67, "duration": 19, "velocity": 61}, {"time": 988, "pitch": 66, "duration": 17, "velocity": 47}, {"time": 1000, "pitch": 69, "duration": 7, "velocity": 60}, {"time": 1006, "pitch": 71, "duration": 6, "velocity": 61}, {"time": 1012, "pitch": 59, "duration": 41, "velocity": 52}, {"time": 1018, "pitch": 66, "duration": 35, "velocity": 61}, {"time": 1024, "pitch": 71, "duration": 14, "velocity": 52}, {"time": 1030, "pitch": 73, "duration": 7, "velocity": 60}, {"time": 1036, "pitch": 74, "duration": 13, "velocity": 74}, {"time": 1042, "pitch": 71, "duration": 7, "velocity": 53}, {"time": 1048, "pitch": 76, "duration": 12, "velocity": 65}, {"time": 1060, "pitch": 55, "duration": 42, "velocity": 61}, {"time": 1066, "pitch": 62, "duration": 35, "velocity": 69}, {"time": 1072, "pitch": 67, "duration": 28, "velocity": 43}, {"time": 1090, "pitch": 71, "duration": 4, "velocity": 34}, {"time": 1096, "pitch": 74, "duration": 22, "velocity": 60}, {"time": 1102, "pitch": 78, "duration": 26, "velocity": 59}, {"time": 1108, "pitch": 57, "duration": 41, "velocity": 34}, {"time": 1108, "pitch": 76, "duration": 5, "velocity": 68}, {"time": 1114, "pitch": 64, "duration": 36, "velocity": 71}, {"time": 1114, "pitch": 69, "duration": 6, "velocity": 48}, {"time": 1120, "pitch": 76, "duration": 24, "velocity": 61}, {"time": 1156, "pitch": 50, "duration": 49, "velocity": 69}, {"time": 1162, "pitch": 57, "duration": 43, "velocity": 55}, {"time": 1162, "pitch": 66, "duration": 7, "velocity": 54}, {"time": 1168, "pitch": 62, "duration": 36, "velocity": 41}, {"time": 1168, "pitch": 69, "duration": 6, "velocity": 61}, {"time": 1174, "pitch": 74, "duration": 21, "velocity": 59}, {"time": 1186, "pitch": 76, "duration": 12, "velocity": 67}, {"time": 1201, "pitch": 69, "duration": 7, "velocity": 54}, {"time": 1201, "pitch": 76, "duration": 6, "velocity": 68}, {"time": 1204, "pitch": 81, "duration": 21, "velocity": 76}, {"time": 1252, "pitch": 55, "duration": 38, "velocity": 63}, {"time": 1252, "pitch": 71, "duration": 16, "velocity": 59}, {"time": 1252, "pitch": 74, "duration": 17, "velocity": 64}, {"time": 1258, "pitch": 62, "duration": 40, "velocity": 60}, {"time": 1264, "pitch": 67, "duration": 19, "velocity": 52}, {"time": 1270, "pitch": 71, "duration": 25, "velocity": 64}, {"time": 1288, "pitch": 74, "duration": 11, "velocity": 53}, {"time": 1300, "pitch": 57, "duration": 37, "velocity": 61}, {"time": 1300, "pitch": 73, "duration": 18, "velocity": 67}, {"time": 1306, "pitch": 64, "duration": 30, "velocity": 61}, {"time": 1312, "pitch": 69, "duration": 12, "velocity": 60}, {"time": 1318, "pitch": 71, "duration": 24, "velocity": 75}, {"time": 1336, "pitch": 73, "duration": 13, "velocity": 72}, {"time": 1348, "pitch": 54, "duration": 39, "velocity": 71}, {"time": 1354, "pitch": 61, "duration": 35, "velocity": 67}, {"time": 1354, "pitch": 69, "duration": 6, "velocity": 63}, {"time": 1360, "pitch": 66, "duration": 8, "velocity": 59}, {"time": 1360, "pitch": 73, "duration": 5, "velocity": 72}, {"time": 1366, "pitch": 74, "duration": 6, "velocity": 61}, {"time": 1372, "pitch": 73, "duration": 8, "velocity": 67}, {"time": 1384, "pitch": 64, "duration": 6, "velocity": 63}, {"time": 1390, "pitch": 69, "duration": 10, "velocity": 71}, {"time": 1396, "pitch": 59, "duration": 37, "velocity": 64}, {"time": 1396, "pitch": 73, "duration": 19, "velocity": 72}, {"time": 1396, "pitch": 76, "duration": 13, "velocity": 69}, {"time": 1402, "pitch": 66, "duration": 13, "velocity": 66}, {"time": 1408, "pitch": 71, "duration": 8, "velocity": 60}, {"time": 1426, "pitch": 64, "duration": 6, "velocity": 61}, {"time": 1432, "pitch": 69, "duration": 6, "velocity": 67}, {"time": 1438, "pitch": 74, "duration": 23, "velocity": 71}, {"time": 1444, "pitch": 55, "duration": 43, "velocity": 67}, {"time": 1444, "pitch": 71, "duration": 17, "velocity": 72}, {"time": 1450, "pitch": 62, "duration": 42, "velocity": 58}, {"time": 1456, "pitch": 67, "duration": 28, "velocity": 42}, {"time": 1462, "pitch": 71, "duration": 30, "velocity": 67}, {"time": 1462, "pitch": 74, "duration": 18, "velocity": 72}, {"time": 1492, "pitch": 57, "duration": 38, "velocity": 65}, {"time": 1492, "pitch": 73, "duration": 38, "velocity": 73}, {"time": 1492, "pitch": 76, "duration": 28, "velocity": 71}, {"time": 1498, "pitch": 64, "duration": 31, "velocity": 59}, {"time": 1528, "pitch": 69, "duration": 11, "velocity": 68}, {"time": 1534, "pitch": 73, "duration": 5, "velocity": 65}, {"time": 1540, "pitch": 50, "duration": 85, "velocity": 70}, {"time": 1546, "pitch": 57, "duration": 88, "velocity": 58}, {"time": 1552, "pitch": 61, "duration": 7, "velocity": 60}, {"time": 1558, "pitch": 64, "duration": 10, "velocity": 70}, {"time": 1570, "pitch": 61, "duration": 12, "velocity": 58}, {"time": 1576, "pitch": 64, "duration": 6, "velocity": 63}, {"time": 1582, "pitch": 69, "duration": 18, "velocity": 67}, {"time": 1600, "pitch": 69, "duration": 24, "velocity": 59}, {"time": 1606, "pitch": 74, "duration": 13, "velocity": 79}, {"time": 1624, "pitch": 66, "duration": 9, "velocity": 73}, {"time": 1630, "pitch": 69, "duration": 5, "velocity": 61}, {"time": 1636, "pitch": 52, "duration": 38, "velocity": 74}, {"time": 1636, "pitch": 67, "duration": 17, "velocity": 75}, {"time": 1642, "pitch": 59, "duration": 35, "velocity": 62}, {"time": 1648, "pitch": 64, "duration": 10, "velocity": 53}, {"time": 1654, "pitch": 67, "duration": 17, "velocity": 65}, {"time": 1654, "pitch": 71, "duration": 16, "velocity": 65}, {"time": 1666, "pitch": 64, "duration": 16, "velocity": 54}, {"time": 1672, "pitch": 67, "duration": 8, "velocity": 73}, {"time": 1672, "pitch": 71, "duration": 9, "velocity": 74}, {"time": 1684, "pitch": 57, "duration": 38, "velocity": 57}, {"time": 1690, "pitch": 64, "duration": 29, "velocity": 59}, {"time": 1696, "pitch": 69, "duration": 9, "velocity": 57}, {"time": 1702, "pitch": 73, "duration": 15, "velocity": 72}, {"time": 1702, "pitch": 76, "duration": 16, "velocity": 73}, {"time": 1714, "pitch": 69, "duration": 5, "velocity": 54}, {"time": 1720, "pitch": 73, "duration": 4, "velocity": 74}, {"time": 1720, "pitch": 76, "duration": 4, "velocity": 79}, {"time": 1732, "pitch": 54, "duration": 48, "velocity": 70}, {"time": 1732, "pitch": 69, "duration": 13, "velocity": 65}, {"time": 1732, "pitch": 73, "duration": 14, "velocity": 72}, {"time": 1738, "pitch": 61, "duration": 43, "velocity": 65}, {"time": 1744, "pitch": 66, "duration": 9, "velocity": 47}, {"time": 1750, "pitch": 69, "duration": 17, "velocity": 75}, {"time": 1750, "pitch": 73, "duration": 17, "velocity": 74}, {"time": 1762, "pitch": 66, "duration": 9, "velocity": 59}, {"time": 1768, "pitch": 69, "duration": 8, "velocity": 74}, {"time": 1768, "pitch": 73, "duration": 9, "velocity": 75}, {"time": 1780, "pitch": 47, "duration": 41, "velocity": 67}, {"time": 1780, "pitch": 73, "duration": 13, "velocity": 67}, {"time": 1780, "pitch": 76, "duration": 14, "velocity": 73}, {"time": 1792, "pitch": 57, "duration": 6, "velocity": 59}, {"time": 1798, "pitch": 62, "duration": 6, "velocity": 63}, {"time": 1798, "pitch": 74, "duration": 15, "velocity": 65}, {"time": 1798, "pitch": 78, "duration": 15, "velocity": 75}, {"time": 1804, "pitch": 64, "duration": 8, "velocity": 74}, {"time": 1810, "pitch": 66, "duration": 3, "velocity": 69}, {"time": 1816, "pitch": 69, "duration": 5, "velocity": 66}, {"time": 1816, "pitch": 69, "duration": 5, "velocity": 77}, {"time": 1822, "pitch": 74, "duration": 18, "velocity": 73}, {"time": 1828, "pitch": 55, "duration": 43, "velocity": 72}, {"time": 1828, "pitch": 71, "duration": 16, "velocity": 74}, {"time": 1834, "pitch": 62, "duration": 43, "velocity": 65}, {"time": 1840, "pitch": 67, "duration": 11, "velocity": 59}, {"time": 1846, "pitch": 71, "duration": 16, "velocity": 65}, {"time": 1846, "pitch": 74, "duration": 16, "velocity": 71}, {"time": 1858, "pitch": 67, "duration": 13, "velocity": 58}, {"time": 1864, "pitch": 71, "duration": 9, "velocity": 59}, {"time": 1864, "pitch": 74, "duration": 10, "velocity": 67}, {"time": 1876, "pitch": 57, "duration": 36, "velocity": 61}, {"time": 1876, "pitch": 73, "duration": 16, "velocity": 74}, {"time": 1876, "pitch": 76, "duration": 17, "velocity": 7}, {"time": 1888, "pitch": 64, "duration": 24, "velocity": 66}, {"time": 1894, "pitch": 73, "duration": 16, "velocity": 77}, {"time": 1894, "pitch": 76, "duration": 16, "velocity": 77}, {"time": 1906, "pitch": 69, "duration": 5, "velocity": 58}, {"time": 1912, "pitch": 73, "duration": 4, "velocity": 74}, {"time": 1912, "pitch": 76, "duration": 4, "velocity": 74}, {"time": 1924, "pitch": 50, "duration": 46, "velocity": 86}, {"time": 1924, "pitch": 66, "duration": 16, "velocity": 66}, {"time": 1924, "pitch": 69, "duration": 17, "velocity": 79}, {"time": 1942, "pitch": 57, "duration": 7, "velocity": 55}, {"time": 1948, "pitch": 62, "duration": 5, "velocity": 70}, {"time": 1954, "pitch": 62, "duration": 12, "velocity": 53}, {"time": 1954, "pitch": 64, "duration": 8, "velocity": 64}, {"time": 1960, "pitch": 66, "duration": 2, "velocity": 74}, {"time": 1966, "pitch": 69, "duration": 3, "velocity": 71}, {"time": 1966, "pitch": 69, "duration": 3, "velocity": 73}, {"time": 1972, "pitch": 50, "duration": 13, "velocity": 93}, {"time": 1972, "pitch": 66, "duration": 11, "velocity": 60}, {"time": 1972, "pitch": 69, "duration": 11, "velocity": 74}, {"time": 1972, "pitch": 76, "duration": 8, "velocity": 71}, {"time": 2020, "pitch": 52, "duration": 34, "velocity": 65}, {"time": 2020, "pitch": 67, "duration": 16, "velocity": 59}, {"time": 2020, "pitch": 71, "duration": 16, "velocity": 70}, {"time": 2026, "pitch": 59, "duration": 24, "velocity": 46}, {"time": 2032, "pitch": 64, "duration": 9, "velocity": 52}, {"time": 2038, "pitch": 67, "duration": 8, "velocity": 61}, {"time": 2038, "pitch": 71, "duration": 17, "velocity": 75}, {"time": 2056, "pitch": 67, "duration": 9, "velocity": 72}, {"time": 2068, "pitch": 45, "duration": 40, "velocity": 58}, {"time": 2074, "pitch": 52, "duration": 34, "velocity": 60}, {"time": 2080, "pitch": 61, "duration": 21, "velocity": 60}, {"time": 2080, "pitch": 64, "duration": 22, "velocity": 71}, {"time": 2086, "pitch": 57, "duration": 9, "velocity": 58}, {"time": 2098, "pitch": 57, "duration": 9, "velocity": 50}, {"time": 2104, "pitch": 61, "duration": 5, "velocity": 60}, {"time": 2104, "pitch": 64, "duration": 5, "velocity": 71}, {"time": 2116, "pitch": 42, "duration": 37, "velocity": 71}, {"time": 2116, "pitch": 57, "duration": 13, "velocity": 58}, {"time": 2116, "pitch": 61, "duration": 14, "velocity": 64}, {"time": 2122, "pitch": 49, "duration": 34, "velocity": 59}, {"time": 2128, "pitch": 54, "duration": 9, "velocity": 59}, {"time": 2134, "pitch": 57, "duration": 21, "velocity": 61}, {"time": 2134, "pitch": 61, "duration": 21, "velocity": 71}, {"time": 2146, "pitch": 54, "duration": 14, "velocity": 58}, {"time": 2158, "pitch": 57, "duration": 5, "velocity": 58}, {"time": 2158, "pitch": 61, "duration": 5, "velocity": 58}, {"time": 2164, "pitch": 47, "duration": 42, "velocity": 71}, {"time": 2170, "pitch": 54, "duration": 36, "velocity": 61}, {"time": 2176, "pitch": 62, "duration": 18, "velocity": 60}, {"time": 2182, "pitch": 66, "duration": 29, "velocity": 62}, {"time": 2188, "pitch": 69, "duration": 6, "velocity": 63}, {"time": 2194, "pitch": 59, "duration": 10, "velocity": 61}, {"time": 2200, "pitch": 71, "duration": 6, "velocity": 63}, {"time": 2206, "pitch": 62, "duration": 5, "velocity": 67}, {"time": 2212, "pitch": 52, "duration": 45, "velocity": 69}, {"time": 2218, "pitch": 59, "duration": 37, "velocity": 57}, {"time": 2224, "pitch": 64, "duration": 9, "velocity": 52}, {"time": 2230, "pitch": 67, "duration": 16, "velocity": 67}, {"time": 2230, "pitch": 71, "duration": 16, "velocity": 70}, {"time": 2242, "pitch": 64, "duration": 4, "velocity": 59}, {"time": 2248, "pitch": 67, "duration": 9, "velocity": 68}, {"time": 2248, "pitch": 71, "duration": 9, "velocity": 71}, {"time": 2260, "pitch": 45, "duration": 37, "velocity": 73}, {"time": 2260, "pitch": 61, "duration": 16, "velocity": 59}, {"time": 2260, "pitch": 64, "duration": 17, "velocity": 76}, {"time": 2266, "pitch": 52, "duration": 32, "velocity": 62}, {"time": 2272, "pitch": 57, "duration": 10, "velocity": 48}, {"time": 2278, "pitch": 61, "duration": 17, "velocity": 63}, {"time": 2278, "pitch": 64, "duration": 17, "velocity": 77}, {"time": 2290, "pitch": 57, "duration": 15, "velocity": 54}, {"time": 2296, "pitch": 61, "duration": 5, "velocity": 62}, {"time": 2296, "pitch": 64, "duration": 5, "velocity": 72}, {"time": 2296, "pitch": 69, "duration": 5, "velocity": 69}, {"time": 2308, "pitch": 50, "duration": 84, "velocity": 77}, {"time": 2308, "pitch": 66, "duration": 15, "velocity": 65}, {"time": 2308, "pitch": 69, "duration": 15, "velocity": 54}, {"time": 2311, "pitch": 74, "duration": 11, "velocity": 10}, {"time": 2314, "pitch": 57, "duration": 76, "velocity": 60}, {"time": 2320, "pitch": 62, "duration": 8, "velocity": 50}, {"time": 2326, "pitch": 66, "duration": 16, "velocity": 67}, {"time": 2326, "pitch": 69, "duration": 16, "velocity": 75}, {"time": 2338, "pitch": 62, "duration": 8, "velocity": 58}, {"time": 2344, "pitch": 66, "duration": 8, "velocity": 75}, {"time": 2344, "pitch": 69, "duration": 9, "velocity": 83}, {"time": 2344, "pitch": 74, "duration": 8, "velocity": 76}, {"time": 2350, "pitch": 60, "duration": 27, "velocity": 76}, {"time": 2350, "pitch": 62, "duration": 15, "velocity": 60}, {"time": 2362, "pitch": 69, "duration": 9, "velocity": 86}, {"time": 2362, "pitch": 74, "duration": 13, "velocity": 87}, {"time": 2368, "pitch": 62, "duration": 19, "velocity": 54}, {"time": 2374, "pitch": 69, "duration": 2, "velocity": 67}, {"time": 2380, "pitch": 76, "duration": 10, "velocity": 79}, {"time": 2380, "pitch": 81, "duration": 10, "velocity": 100}, {"time": 2392, "pitch": 76, "duration": 3, "velocity": 90}, {"time": 2392, "pitch": 81, "duration": 3, "velocity": 104}, {"time": 2404, "pitch": 43, "duration": 41, "velocity": 81}, {"time": 2404, "pitch": 59, "duration": 15, "velocity": 71}, {"time": 2404, "pitch": 62, "duration": 16, "velocity": 70}, {"time": 2410, "pitch": 50, "duration": 37, "velocity": 86}, {"time": 2416, "pitch": 55, "duration": 8, "velocity": 61}, {"time": 2422, "pitch": 59, "duration": 15, "velocity": 64}, {"time": 2422, "pitch": 62, "duration": 15, "velocity": 77}, {"time": 2422, "pitch": 67, "duration": 15, "velocity": 76}, {"time": 2434, "pitch": 55, "duration": 8, "velocity": 53}, {"time": 2440, "pitch": 59, "duration": 5, "velocity": 68}, {"time": 2440, "pitch": 62, "duration": 5, "velocity": 79}, {"time": 2440, "pitch": 67, "duration": 4, "velocity": 81}, {"time": 2452, "pitch": 45, "duration": 43, "velocity": 76}, {"time": 2452, "pitch": 61, "duration": 15, "velocity": 67}, {"time": 2452, "pitch": 64, "duration": 15, "velocity": 67}, {"time": 2452, "pitch": 69, "duration": 15, "velocity": 73}, {"time": 2458, "pitch": 52, "duration": 39, "velocity": 67}, {"time": 2464, "pitch": 57, "duration": 10, "velocity": 47}, {"time": 2470, "pitch": 61, "duration": 16, "velocity": 70}, {"time": 2470, "pitch": 64, "duration": 17, "velocity": 76}, {"time": 2470, "pitch": 69, "duration": 16, "velocity": 77}, {"time": 2482, "pitch": 57, "duration": 13, "velocity": 58}, {"time": 2488, "pitch": 61, "duration": 10, "velocity": 67}, {"time": 2488, "pitch": 64, "duration": 8, "velocity": 74}, {"time": 2500, "pitch": 42, "duration": 42, "velocity": 74}, {"time": 2500, "pitch": 57, "duration": 37, "velocity": 61}, {"time": 2506, "pitch": 49, "duration": 37, "velocity": 63}, {"time": 2512, "pitch": 54, "duration": 9, "velocity": 55}, {"time": 2518, "pitch": 62, "duration": 22, "velocity": 66}, {"time": 2530, "pitch": 54, "duration": 17, "velocity": 59}, {"time": 2542, "pitch": 69, "duration": 6, "velocity": 64}, {"time": 2548, "pitch": 47, "duration": 37, "velocity": 73}, {"time": 2554, "pitch": 54, "duration": 31, "velocity": 60}, {"time": 2560, "pitch": 59, "duration": 8, "velocity": 58}, {"time": 2566, "pitch": 62, "duration": 17, "velocity": 61}, {"time": 2566, "pitch": 66, "duration": 17, "velocity": 72}, {"time": 2578, "pitch": 59, "duration": 8, "velocity": 61}, {"time": 2584, "pitch": 62, "duration": 6, "velocity": 64}, {"time": 2584, "pitch": 66, "duration": 6, "velocity": 63}, {"time": 2584, "pitch": 71, "duration": 6, "velocity": 70}, {"time": 2596, "pitch": 52, "duration": 36, "velocity": 83}, {"time": 2596, "pitch": 67, "duration": 16, "velocity": 62}, {"time": 2596, "pitch": 71, "duration": 16, "velocity": 64}, {"time": 2602, "pitch": 59, "duration": 29, "velocity": 59}, {"time": 2608, "pitch": 64, "duration": 8, "velocity": 58}, {"time": 2614, "pitch": 67, "duration": 17, "velocity": 63}, {"time": 2614, "pitch": 71, "duration": 17, "velocity": 60}, {"time": 2614, "pitch": 76, "duration": 17, "velocity": 67}, {"time": 2626, "pitch": 64, "duration": 5, "velocity": 58}, {"time": 2632, "pitch": 67, "duration": 12, "velocity": 74}, {"time": 2632, "pitch": 71, "duration": 12, "velocity": 79}, {"time": 2632, "pitch": 76, "duration": 12, "velocity": 79}, {"time": 2644, "pitch": 45, "duration": 35, "velocity": 76}, {"time": 2650, "pitch": 52, "duration": 29, "velocity": 67}, {"time": 2656, "pitch": 57, "duration": 8, "velocity": 48}, {"time": 2662, "pitch": 61, "duration": 16, "velocity": 69}, {"time": 2662, "pitch": 64, "duration": 16, "velocity": 66}, {"time": 2674, "pitch": 57, "duration": 17, "velocity": 53}, {"time": 2680, "pitch": 61, "duration": 6, "velocity": 60}, {"time": 2680, "pitch": 64, "duration": 7, "velocity": 73}, {"time": 2680, "pitch": 69, "duration": 6, "velocity": 72}, {"time": 2692, "pitch": 46, "duration": 21, "velocity": 66}, {"time": 2692, "pitch": 53, "duration": 20, "velocity": 65}, {"time": 2692, "pitch": 58, "duration": 20, "velocity": 60}, {"time": 2692, "pitch": 62, "duration": 20, "velocity": 66}, {"time": 2692, "pitch": 65, "duration": 20, "velocity": 67}, {"time": 2704, "pitch": 69, "duration": 12, "velocity": 60}, {"time": 2710, "pitch": 74, "duration": 6, "velocity": 58}, {"time": 2716, "pitch": 48, "duration": 14, "velocity": 63}, {"time": 2716, "pitch": 55, "duration": 14, "velocity": 77}, {"time": 2716, "pitch": 60, "duration": 15, "velocity": 65}, {"time": 2716, "pitch": 64, "duration": 15, "velocity": 67}, {"time": 2716, "pitch": 67, "duration": 15, "velocity": 81}, {"time": 2716, "pitch": 81, "duration": 14, "velocity": 93}, {"time": 2728, "pitch": 76, "duration": 11, "velocity": 59}, {"time": 2740, "pitch": 50, "duration": 39, "velocity": 77}, {"time": 2740, "pitch": 66, "duration": 37, "velocity": 72}, {"time": 2740, "pitch": 69, "duration": 37, "velocity": 75}, {"time": 2746, "pitch": 57, "duration": 33, "velocity": 59}, {"time": 2752, "pitch": 62, "duration": 12, "velocity": 58}, {"time": 2764, "pitch": 74, "duration": 7, "velocity": 60}, {"time": 2770, "pitch": 62, "duration": 7, "velocity": 59}, {"time": 2770, "pitch": 76, "duration": 6, "velocity": 67}, {"time": 2776, "pitch": 78, "duration": 6, "velocity": 74}, {"time": 2782, "pitch": 71, "duration": 31, "velocity": 72}, {"time": 2788, "pitch": 55, "duration": 43, "velocity": 59}, {"time": 2794, "pitch": 62, "duration": 38, "velocity": 61}, {"time": 2800, "pitch": 67, "duration": 27, "velocity": 63}, {"time": 2806, "pitch": 76, "duration": 12, "velocity": 70}, {"time": 2818, "pitch": 78, "duration": 7, "velocity": 71}, {"time": 2833, "pitch": 74, "duration": 4, "velocity": 48}, {"time": 2833, "pitch": 78, "duration": 4, "velocity": 60}, {"time": 2836, "pitch": 55, "duration": 24, "velocity": 67}, {"time": 2836, "pitch": 81, "duration": 14, "velocity": 62}, {"time": 2842, "pitch": 62, "duration": 6, "velocity": 65}, {"time": 2848, "pitch": 74, "duration": 11, "velocity": 63}, {"time": 2854, "pitch": 73, "duration": 13, "velocity": 61}, {"time": 2860, "pitch": 47, "duration": 70, "velocity": 76}, {"time": 2860, "pitch": 76, "duration": 11, "velocity": 74}, {"time": 2866, "pitch": 54, "duration": 30, "velocity": 58}, {"time": 2872, "pitch": 59, "duration": 12, "velocity": 52}, {"time": 2872, "pitch": 74, "duration": 7, "velocity": 68}, {"time": 2878, "pitch": 61, "duration": 8, "velocity": 60}, {"time": 2878, "pitch": 76, "duration": 5, "velocity": 63}, {"time": 2884, "pitch": 62, "duration": 7, "velocity": 72}, {"time": 2884, "pitch": 73, "duration": 24, "velocity": 73}, {"time": 2890, "pitch": 64, "duration": 14, "velocity": 75}, {"time": 2896, "pitch": 57, "duration": 24, "velocity": 57}, {"time": 2902, "pitch": 62, "duration": 6, "velocity": 59}, {"time": 2902, "pitch": 69, "duration": 6, "velocity": 79}, {"time": 2908, "pitch": 64, "duration": 15, "velocity": 79}, {"time": 2914, "pitch": 69, "duration": 8, "velocity": 71}, {"time": 2920, "pitch": 73, "duration": 6, "velocity": 73}, {"time": 2926, "pitch": 76, "duration": 16, "velocity": 76}, {"time": 2929, "pitch": 61, "duration": 4, "velocity": 57}, {"time": 2929, "pitch": 64, "duration": 4, "velocity": 72}, {"time": 2932, "pitch": 42, "duration": 38, "velocity": 60}, {"time": 2932, "pitch": 54, "duration": 46, "velocity": 67}, {"time": 2932, "pitch": 69, "duration": 31, "velocity": 68}, {"time": 2944, "pitch": 52, "duration": 8, "velocity": 60}, {"time": 2950, "pitch": 57, "duration": 6, "velocity": 62}, {"time": 2956, "pitch": 61, "duration": 5, "velocity": 76}, {"time": 2965, "pitch": 61, "duration": 5, "velocity": 61}, {"time": 2968, "pitch": 62, "duration": 7, "velocity": 74}, {"time": 2971, "pitch": 64, "duration": 4, "velocity": 65}, {"time": 2974, "pitch": 66, "duration": 3, "velocity": 79}, {"time": 2977, "pitch": 69, "duration": 2, "velocity": 75}, {"time": 2980, "pitch": 43, "duration": 20, "velocity": 71}, {"time": 2980, "pitch": 59, "duration": 17, "velocity": 60}, {"time": 2980, "pitch": 62, "duration": 19, "velocity": 68}, {"time": 2980, "pitch": 71, "duration": 33, "velocity": 79}, {"time": 2992, "pitch": 50, "duration": 9, "velocity": 73}, {"time": 3004, "pitch": 42, "duration": 20, "velocity": 74}, {"time": 3004, "pitch": 57, "duration": 16, "velocity": 57}, {"time": 3004, "pitch": 61, "duration": 18, "velocity": 67}, {"time": 3016, "pitch": 49, "duration": 10, "velocity": 71}, {"time": 3016, "pitch": 61, "duration": 6, "velocity": 60}, {"time": 3022, "pitch": 62, "duration": 6, "velocity": 73}, {"time": 3028, "pitch": 40, "duration": 21, "velocity": 57}, {"time": 3028, "pitch": 55, "duration": 18, "velocity": 60}, {"time": 3028, "pitch": 59, "duration": 20, "velocity": 63}, {"time": 3028, "pitch": 64, "duration": 7, "velocity": 74}, {"time": 3034, "pitch": 66, "duration": 6, "velocity": 68}, {"time": 3040, "pitch": 67, "duration": 6, "velocity": 74}, {"time": 3046, "pitch": 69, "duration": 7, "velocity": 71}, {"time": 3052, "pitch": 42, "duration": 22, "velocity": 63}, {"time": 3052, "pitch": 57, "duration": 21, "velocity": 60}, {"time": 3052, "pitch": 61, "duration": 22, "velocity": 70}, {"time": 3052, "pitch": 73, "duration": 6, "velocity": 71}, {"time": 3058, "pitch": 74, "duration": 11, "velocity": 81}, {"time": 3070, "pitch": 81, "duration": 2, "velocity": 67}, {"time": 3076, "pitch": 43, "duration": 48, "velocity": 64}, {"time": 3076, "pitch": 59, "duration": 46, "velocity": 56}, {"time": 3076, "pitch": 62, "duration": 47, "velocity": 63}, {"time": 3076, "pitch": 81, "duration": 26, "velocity": 87}, {"time": 3088, "pitch": 50, "duration": 36, "velocity": 79}, {"time": 3100, "pitch": 67, "duration": 21, "velocity": 64}, {"time": 3106, "pitch": 76, "duration": 7, "velocity": 65}, {"time": 3112, "pitch": 55, "duration": 12, "velocity": 58}, {"time": 3112, "pitch": 78, "duration": 6, "velocity": 65}, {"time": 3118, "pitch": 81, "duration": 4, "velocity": 76}, {"time": 3124, "pitch": 45, "duration": 46, "velocity": 68}, {"time": 3124, "pitch": 61, "duration": 46, "velocity": 56}, {"time": 3124, "pitch": 64, "duration": 46, "velocity": 60}, {"time": 3124, "pitch": 81, "duration": 9, "velocity": 86}, {"time": 3130, "pitch": 52, "duration": 39, "velocity": 62}, {"time": 3136, "pitch": 57, "duration": 32, "velocity": 44}, {"time": 3136, "pitch": 81, "duration": 8, "velocity": 75}, {"time": 3148, "pitch": 69, "duration": 22, "velocity": 64}, {"time": 3148, "pitch": 76, "duration": 26, "velocity": 75}, {"time": 3184, "pitch": 67, "duration": 19, "velocity": 52}, {"time": 3190, "pitch": 71, "duration": 25, "velocity": 64}, {"time": 3208, "pitch": 74, "duration": 11, "velocity": 53}, {"time": 3220, "pitch": 57, "duration": 37, "velocity": 61}, {"time": 3220, "pitch": 73, "duration": 18, "velocity": 67}, {"time": 3226, "pitch": 64, "duration": 30, "velocity": 61}, {"time": 3232, "pitch": 69, "duration": 12, "velocity": 60}, {"time": 3238, "pitch": 71, "duration": 24, "velocity": 75}, {"time": 3256, "pitch": 73, "duration": 13, "velocity": 72}, {"time": 3268, "pitch": 54, "duration": 39, "velocity": 71}, {"time": 3274, "pitch": 61, "duration": 35, "velocity": 67}, {"time": 3274, "pitch": 69, "duration": 5, "velocity": 63}, {"time": 3274, "pitch": 69, "duration": 5, "velocity": 64}, {"time": 3280, "pitch": 66, "duration": 7, "velocity": 59}, {"time": 3280, "pitch": 66, "duration": 7, "velocity": 62}, {"time": 3280, "pitch": 73, "duration": 5, "velocity": 72}, {"time": 3286, "pitch": 69, "duration": 5, "velocity": 69}, {"time": 3286, "pitch": 74, "duration": 6, "velocity": 61}, {"time": 3292, "pitch": 73, "duration": 8, "velocity": 67}, {"time": 3298, "pitch": 81, "duration": 11, "velocity": 86}, {"time": 3304, "pitch": 64, "duration": 6, "velocity": 63}, {"time": 3310, "pitch": 69, "duration": 5, "velocity": 59}, {"time": 3310, "pitch": 69, "duration": 5, "velocity": 71}, {"time": 3316, "pitch": 59, "duration": 37, "velocity": 64}, {"time": 3316, "pitch": 73, "duration": 19, "velocity": 72}, {"time": 3316, "pitch": 76, "duration": 13, "velocity": 69}, {"time": 3316, "pitch": 76, "duration": 13, "velocity": 76}, {"time": 3322, "pitch": 66, "duration": 13, "velocity": 66}, {"time": 3328, "pitch": 71, "duration": 8, "velocity": 60}, {"time": 3340, "pitch": 78, "duration": 31, "velocity": 75}, {"time": 3346, "pitch": 64, "duration": 6, "velocity": 61}, {"time": 3352, "pitch": 69, "duration": 6, "velocity": 67}, {"time": 3358, "pitch": 74, "duration": 23, "velocity": 71}, {"time": 3364, "pitch": 55, "duration": 43, "velocity": 67}, {"time": 3364, "pitch": 71, "duration": 17, "velocity": 72}, {"time": 3370, "pitch": 62, "duration": 42, "velocity": 58}, {"time": 3376, "pitch": 67, "duration": 28, "velocity": 42}, {"time": 3382, "pitch": 71, "duration": 30, "velocity": 67}, {"time": 3382, "pitch": 74, "duration": 18, "velocity": 72}, {"time": 3412, "pitch": 57, "duration": 38, "velocity": 65}, {"time": 3412, "pitch": 73, "duration": 38, "velocity": 73}, {"time": 3412, "pitch": 76, "duration": 28, "velocity": 71}, {"time": 3418, "pitch": 64, "duration": 31, "velocity": 59}, {"time": 3448, "pitch": 69, "duration": 11, "velocity": 68}, {"time": 3454, "pitch": 73, "duration": 5, "velocity": 65}, {"time": 3460, "pitch": 50, "duration": 85, "velocity": 70}, {"time": 3466, "pitch": 57, "duration": 88, "velocity": 58}, {"time": 3472, "pitch": 61, "duration": 7, "velocity": 60}, {"time": 3478, "pitch": 64, "duration": 10, "velocity": 70}, {"time": 3490, "pitch": 61, "duration": 12, "velocity": 58}, {"time": 3496, "pitch": 64, "duration": 6, "velocity": 63}, {"time": 3502, "pitch": 69, "duration": 18, "velocity": 67}, {"time": 3520, "pitch": 69, "duration": 24, "velocity": 59}, {"time": 3526, "pitch": 74, "duration": 13, "velocity": 79}, {"time": 3544, "pitch": 66, "duration": 9, "velocity": 73}, {"time": 3550, "pitch": 69, "duration": 5, "velocity": 61}, {"time": 3556, "pitch": 52, "duration": 38, "velocity": 74}, {"time": 3556, "pitch": 67, "duration": 17, "velocity": 75}, {"time": 3562, "pitch": 59, "duration": 35, "velocity": 62}, {"time": 3568, "pitch": 64, "duration": 10, "velocity": 53}, {"time": 3574, "pitch": 67, "duration": 17, "velocity": 65}, {"time": 3574, "pitch": 71, "duration": 16, "velocity": 65}, {"time": 3586, "pitch": 64, "duration": 16, "velocity": 54}, {"time": 3592, "pitch": 67, "duration": 8, "velocity": 73}, {"time": 3592, "pitch": 71, "duration": 9, "velocity": 74}, {"time": 3604, "pitch": 57, "duration": 38, "velocity": 57}, {"time": 3610, "pitch": 64, "duration": 29, "velocity": 59}, {"time": 3616, "pitch": 69, "duration": 9, "velocity": 57}, {"time": 3622, "pitch": 73, "duration": 15, "velocity": 72}, {"time": 3622, "pitch": 76, "duration": 16, "velocity": 73}, {"time": 3634, "pitch": 69, "duration": 5, "velocity": 54}, {"time": 3640, "pitch": 73, "duration": 4, "velocity": 74}, {"time": 3640, "pitch": 76, "duration": 4, "velocity": 79}, {"time": 3652, "pitch": 54, "duration": 48, "velocity": 70}, {"time": 3652, "pitch": 69, "duration": 13, "velocity": 65}, {"time": 3652, "pitch": 73, "duration": 14, "velocity": 72}, {"time": 3658, "pitch": 61, "duration": 43, "velocity": 65}, {"time": 3664, "pitch": 66, "duration": 9, "velocity": 47}, {"time": 3670, "pitch": 69, "duration": 17, "velocity": 75}, {"time": 3670, "pitch": 73, "duration": 17, "velocity": 74}, {"time": 3682, "pitch": 66, "duration": 9, "velocity": 59}, {"time": 3688, "pitch": 69, "duration": 8, "velocity": 74}, {"time": 3688, "pitch": 73, "duration": 9, "velocity": 75}, {"time": 3700, "pitch": 47, "duration": 41, "velocity": 67}, {"time": 3700, "pitch": 73, "duration": 13, "velocity": 67}, {"time": 3700, "pitch": 76, "duration": 14, "velocity": 73}, {"time": 3712, "pitch": 57, "duration": 6, "velocity": 59}, {"time": 3718, "pitch": 62, "duration": 6, "velocity": 63}, {"time": 3718, "pitch": 74, "duration": 15, "velocity": 65}, {"time": 3718, "pitch": 78, "duration": 15, "velocity": 75}, {"time": 3724, "pitch": 64, "duration": 8, "velocity": 74}, {"time": 3730, "pitch": 66, "duration": 3, "velocity": 69}, {"time": 3736, "pitch": 69, "duration": 5, "velocity": 66}, {"time": 3736, "pitch": 69, "duration": 5, "velocity": 77}, {"time": 3742, "pitch": 74, "duration": 18, "velocity": 73}, {"time": 3748, "pitch": 55, "duration": 43, "velocity": 72}, {"time": 3748, "pitch": 71, "duration": 16, "velocity": 74}, {"time": 3754, "pitch": 62, "duration": 43, "velocity": 65}, {"time": 3760, "pitch": 67, "duration": 11, "velocity": 59}, {"time": 3766, "pitch": 71, "duration": 16, "velocity": 65}, {"time": 3766, "pitch": 74, "duration": 16, "velocity": 71}, {"time": 3778, "pitch": 67, "duration": 13, "velocity": 58}, {"time": 3784, "pitch": 71, "duration": 9, "velocity": 59}, {"time": 3784, "pitch": 74, "duration": 10, "velocity": 67}, {"time": 3796, "pitch": 57, "duration": 36, "velocity": 61}, {"time": 3796, "pitch": 73, "duration": 16, "velocity": 74}, {"time": 3796, "pitch": 76, "duration": 17, "velocity": 7}, {"time": 3808, "pitch": 64, "duration": 24, "velocity": 66}, {"time": 3814, "pitch": 73, "duration": 16, "velocity": 77}, {"time": 3814, "pitch": 76, "duration": 16, "velocity": 77}, {"time": 3826, "pitch": 69, "duration": 5, "velocity": 58}, {"time": 3832, "pitch": 73, "duration": 4, "velocity": 74}, {"time": 3832, "pitch": 76, "duration": 4, "velocity": 74}, {"time": 3844, "pitch": 50, "duration": 46, "velocity": 86}, {"time": 3844, "pitch": 66, "duration": 16, "velocity": 66}, {"time": 3844, "pitch": 69, "duration": 17, "velocity": 79}, {"time": 3862, "pitch": 57, "duration": 7, "velocity": 55}, {"time": 3868, "pitch": 62, "duration": 5, "velocity": 70}, {"time": 3874, "pitch": 62, "duration": 12, "velocity": 53}, {"time": 3874, "pitch": 64, "duration": 8, "velocity": 64}, {"time": 3880, "pitch": 66, "duration": 2, "velocity": 74}, {"time": 3886, "pitch": 69, "duration": 3, "velocity": 71}, {"time": 3886, "pitch": 69, "duration": 3, "velocity": 73}, {"time": 3892, "pitch": 50, "duration": 13, "velocity": 93}, {"time": 3892, "pitch": 66, "duration": 11, "velocity": 60}, {"time": 3892, "pitch": 69, "duration": 11, "velocity": 74}, {"time": 3892, "pitch": 76, "duration": 8, "velocity": 71}, {"time": 3940, "pitch": 52, "duration": 34, "velocity": 65}, {"time": 3940, "pitch": 67, "duration": 16, "velocity": 59}, {"time": 3940, "pitch": 71, "duration": 16, "velocity": 70}, {"time": 3946, "pitch": 59, "duration": 24, "velocity": 46}, {"time": 3952, "pitch": 64, "duration": 9, "velocity": 52}, {"time": 3958, "pitch": 67, "duration": 8, "velocity": 61}, {"time": 3958, "pitch": 71, "duration": 17, "velocity": 75}, {"time": 3976, "pitch": 67, "duration": 9, "velocity": 72}, {"time": 3988, "pitch": 45, "duration": 40, "velocity": 58}, {"time": 3994, "pitch": 52, "duration": 34, "velocity": 60}, {"time": 4000, "pitch": 61, "duration": 21, "velocity": 60}, {"time": 4000, "pitch": 64, "duration": 22, "velocity": 71}, {"time": 4006, "pitch": 57, "duration": 9, "velocity": 58}, {"time": 4018, "pitch": 57, "duration": 9, "velocity": 50}, {"time": 4024, "pitch": 61, "duration": 5, "velocity": 60}, {"time": 4024, "pitch": 64, "duration": 5, "velocity": 71}, {"time": 4036, "pitch": 42, "duration": 37, "velocity": 71}, {"time": 4036, "pitch": 57, "duration": 13, "velocity": 58}, {"time": 4036, "pitch": 61, "duration": 14, "velocity": 64}, {"time": 4042, "pitch": 49, "duration": 34, "velocity": 59}, {"time": 4048, "pitch": 54, "duration": 9, "velocity": 59}, {"time": 4054, "pitch": 57, "duration": 21, "velocity": 61}, {"time": 4054, "pitch": 61, "duration": 21, "velocity": 71}, {"time": 4066, "pitch": 54, "duration": 14, "velocity": 58}, {"time": 4078, "pitch": 57, "duration": 5, "velocity": 58}, {"time": 4078, "pitch": 61, "duration": 5, "velocity": 58}, {"time": 4084, "pitch": 47, "duration": 42, "velocity": 71}, {"time": 4090, "pitch": 54, "duration": 36, "velocity": 61}, {"time": 4096, "pitch": 62, "duration": 18, "velocity": 60}, {"time": 4102, "pitch": 66, "duration": 29, "velocity": 62}, {"time": 4108, "pitch": 69, "duration": 6, "velocity": 63}, {"time": 4114, "pitch": 59, "duration": 10, "velocity": 61}, {"time": 4120, "pitch": 71, "duration": 6, "velocity": 63}, {"time": 4126, "pitch": 62, "duration": 5, "velocity": 67}, {"time": 4132, "pitch": 52, "duration": 45, "velocity": 69}, {"time": 4138, "pitch": 59, "duration": 37, "velocity": 57}, {"time": 4144, "pitch": 64, "duration": 9, "velocity": 52}, {"time": 4150, "pitch": 67, "duration": 16, "velocity": 67}, {"time": 4150, "pitch": 71, "duration": 16, "velocity": 70}, {"time": 4162, "pitch": 64, "duration": 4, "velocity": 59}, {"time": 4168, "pitch": 67, "duration": 9, "velocity": 68}, {"time": 4168, "pitch": 71, "duration": 9, "velocity": 71}, {"time": 4180, "pitch": 45, "duration": 37, "velocity": 73}, {"time": 4180, "pitch": 61, "duration": 16, "velocity": 59}, {"time": 4180, "pitch": 64, "duration": 17, "velocity": 76}, {"time": 4186, "pitch": 52, "duration": 32, "velocity": 62}, {"time": 4192, "pitch": 57, "duration": 10, "velocity": 48}, {"time": 4198, "pitch": 61, "duration": 17, "velocity": 63}, {"time": 4198, "pitch": 64, "duration": 17, "velocity": 77}, {"time": 4210, "pitch": 57, "duration": 15, "velocity": 54}, {"time": 4216, "pitch": 61, "duration": 5, "velocity": 62}, {"time": 4216, "pitch": 64, "duration": 5, "velocity": 72}, {"time": 4216, "pitch": 69, "duration": 5, "velocity": 69}, {"time": 4228, "pitch": 50, "duration": 84, "velocity": 77}, {"time": 4228, "pitch": 66, "duration": 15, "velocity": 65}, {"time": 4228, "pitch": 69, "duration": 15, "velocity": 54}, {"time": 4231, "pitch": 74, "duration": 11, "velocity": 10}, {"time": 4234, "pitch": 57, "duration": 76, "velocity": 60}, {"time": 4240, "pitch": 62, "duration": 8, "velocity": 50}, {"time": 4246, "pitch": 66, "duration": 16, "velocity": 67}, {"time": 4246, "pitch": 69, "duration": 16, "velocity": 75}, {"time": 4258, "pitch": 62, "duration": 8, "velocity": 58}, {"time": 4264, "pitch": 66, "duration": 8, "velocity": 75}, {"time": 4264, "pitch": 69, "duration": 9, "velocity": 83}, {"time": 4264, "pitch": 74, "duration": 8, "velocity": 76}, {"time": 4270, "pitch": 60, "duration": 27, "velocity": 76}, {"time": 4270, "pitch": 62, "duration": 15, "velocity": 60}, {"time": 4282, "pitch": 69, "duration": 9, "velocity": 86}, {"time": 4282, "pitch": 74, "duration": 13, "velocity": 87}, {"time": 4288, "pitch": 62, "duration": 19, "velocity": 54}, {"time": 4294, "pitch": 69, "duration": 2, "velocity": 67}, {"time": 4300, "pitch": 76, "duration": 10, "velocity": 79}, {"time": 4300, "pitch": 81, "duration": 10, "velocity": 100}, {"time": 4312, "pitch": 76, "duration": 3, "velocity": 90}, {"time": 4312, "pitch": 81, "duration": 3, "velocity": 104}, {"time": 4324, "pitch": 43, "duration": 41, "velocity": 81}, {"time": 4324, "pitch": 59, "duration": 15, "velocity": 71}, {"time": 4324, "pitch": 62, "duration": 16, "velocity": 70}, {"time": 4330, "pitch": 50, "duration": 37, "velocity": 86}, {"time": 4336, "pitch": 55, "duration": 8, "velocity": 61}, {"time": 4342, "pitch": 59, "duration": 15, "velocity": 64}, {"time": 4342, "pitch": 62, "duration": 15, "velocity": 77}, {"time": 4342, "pitch": 67, "duration": 15, "velocity": 76}, {"time": 4354, "pitch": 55, "duration": 8, "velocity": 53}, {"time": 4360, "pitch": 59, "duration": 5, "velocity": 68}, {"time": 4360, "pitch": 62, "duration": 5, "velocity": 79}, {"time": 4360, "pitch": 67, "duration": 4, "velocity": 81}, {"time": 4372, "pitch": 45, "duration": 43, "velocity": 76}, {"time": 4372, "pitch": 61, "duration": 15, "velocity": 67}, {"time": 4372, "pitch": 64, "duration": 15, "velocity": 67}, {"time": 4372, "pitch": 69, "duration": 15, "velocity": 73}, {"time": 4378, "pitch": 52, "duration": 39, "velocity": 67}, {"time": 4384, "pitch": 57, "duration": 10, "velocity": 47}, {"time": 4390, "pitch": 61, "duration": 16, "velocity": 70}, {"time": 4390, "pitch": 64, "duration": 17, "velocity": 76}, {"time": 4390, "pitch": 69, "duration": 16, "velocity": 77}, {"time": 4402, "pitch": 57, "duration": 13, "velocity": 58}, {"time": 4408, "pitch": 61, "duration": 10, "velocity": 67}, {"time": 4408, "pitch": 64, "duration": 8, "velocity": 74}, {"time": 4420, "pitch": 42, "duration": 42, "velocity": 74}, {"time": 4420, "pitch": 57, "duration": 37, "velocity": 61}, {"time": 4426, "pitch": 49, "duration": 37, "velocity": 63}, {"time": 4432, "pitch": 54, "duration": 9, "velocity": 55}, {"time": 4438, "pitch": 62, "duration": 22, "velocity": 66}, {"time": 4450, "pitch": 54, "duration": 17, "velocity": 59}, {"time": 4462, "pitch": 69, "duration": 6, "velocity": 64}, {"time": 4468, "pitch": 47, "duration": 37, "velocity": 73}, {"time": 4474, "pitch": 54, "duration": 31, "velocity": 60}, {"time": 4480, "pitch": 59, "duration": 8, "velocity": 58}, {"time": 4486, "pitch": 62, "duration": 17, "velocity": 61}, {"time": 4486, "pitch": 66, "duration": 17, "velocity": 72}, {"time": 4498, "pitch": 59, "duration": 8, "velocity": 61}, {"time": 4504, "pitch": 62, "duration": 6, "velocity": 64}, {"time": 4504, "pitch": 66, "duration": 6, "velocity": 63}, {"time": 4504, "pitch": 71, "duration": 6, "velocity": 70}, {"time": 4516, "pitch": 52, "duration": 36, "velocity": 83}, {"time": 4516, "pitch": 67, "duration": 16, "velocity": 62}, {"time": 4516, "pitch": 71, "duration": 16, "velocity": 64}, {"time": 4522, "pitch": 59, "duration": 29, "velocity": 59}, {"time": 4528, "pitch": 64, "duration": 8, "velocity": 58}, {"time": 4534, "pitch": 67, "duration": 17, "velocity": 63}, {"time": 4534, "pitch": 71, "duration": 17, "velocity": 60}, {"time": 4534, "pitch": 76, "duration": 17, "velocity": 67}, {"time": 4546, "pitch": 64, "duration": 5, "velocity": 58}, {"time": 4552, "pitch": 67, "duration": 12, "velocity": 74}, {"time": 4552, "pitch": 71, "duration": 12, "velocity": 79}, {"time": 4552, "pitch": 76, "duration": 12, "velocity": 79}, {"time": 4564, "pitch": 45, "duration": 35, "velocity": 76}, {"time": 4570, "pitch": 52, "duration": 29, "velocity": 67}, {"time": 4576, "pitch": 57, "duration": 8, "velocity": 48}, {"time": 4582, "pitch": 61, "duration": 16, "velocity": 69}, {"time": 4582, "pitch": 64, "duration": 16, "velocity": 66}, {"time": 4594, "pitch": 57, "duration": 17, "velocity": 53}, {"time": 4600, "pitch": 61, "duration": 6, "velocity": 60}, {"time": 4600, "pitch": 64, "duration": 7, "velocity": 73}, {"time": 4600, "pitch": 69, "duration": 6, "velocity": 72}, {"time": 4612, "pitch": 46, "duration": 21, "velocity": 66}, {"time": 4612, "pitch": 53, "duration": 20, "velocity": 65}, {"time": 4612, "pitch": 58, "duration": 20, "velocity": 60}, {"time": 4612, "pitch": 62, "duration": 20, "velocity": 66}, {"time": 4612, "pitch": 65, "duration": 20, "velocity": 67}, {"time": 4624, "pitch": 69, "duration": 12, "velocity": 60}, {"time": 4630, "pitch": 74, "duration": 6, "velocity": 58}, {"time": 4636, "pitch": 48, "duration": 14, "velocity": 63}, {"time": 4636, "pitch": 55, "duration": 14, "velocity": 77}, {"time": 4636, "pitch": 60, "duration": 15, "velocity": 65}, {"time": 4636, "pitch": 64, "duration": 15, "velocity": 67}, {"time": 4636, "pitch": 67, "duration": 15, "velocity": 81}, {"time": 4636, "pitch": 81, "duration": 14, "velocity": 93}, {"time": 4648, "pitch": 76, "duration": 11, "velocity": 59}, {"time": 4660, "pitch": 50, "duration": 39, "velocity": 77}, {"time": 4660, "pitch": 66, "duration": 37, "velocity": 72}, {"time": 4660, "pitch": 69, "duration": 37, "velocity": 75}, {"time": 4666, "pitch": 57, "duration": 33, "velocity": 59}, {"time": 4672, "pitch": 62, "duration": 12, "velocity": 58}, {"time": 4684, "pitch": 74, "duration": 7, "velocity": 60}, {"time": 4690, "pitch": 62, "duration": 7, "velocity": 59}, {"time": 4690, "pitch": 76, "duration": 6, "velocity": 67}, {"time": 4696, "pitch": 78, "duration": 6, "velocity": 74}, {"time": 4708, "pitch": 71, "duration": 14, "velocity": 55}, {"time": 4714, "pitch": 73, "duration": 11, "velocity": 59}, {"time": 4720, "pitch": 74, "duration": 8, "velocity": 54}, {"time": 4726, "pitch": 81, "duration": 24, "velocity": 47}, {"time": 4756, "pitch": 69, "duration": 11, "velocity": 59}, {"time": 4762, "pitch": 73, "duration": 9, "velocity": 59}, {"time": 4768, "pitch": 74, "duration": 6, "velocity": 59}, {"time": 4774, "pitch": 81, "duration": 22, "velocity": 34}, {"time": 4786, "pitch": 76, "duration": 13, "velocity": 55}, {"time": 4804, "pitch": 69, "duration": 11, "velocity": 66}, {"time": 4810, "pitch": 73, "duration": 5, "velocity": 62}, {"time": 4816, "pitch": 81, "duration": 6, "velocity": 72}, {"time": 4822, "pitch": 73, "duration": 18, "velocity": 70}, {"time": 4834, "pitch": 74, "duration": 9, "velocity": 49}, {"time": 4846, "pitch": 76, "duration": 18, "velocity": 68}, {"time": 4852, "pitch": 69, "duration": 18, "velocity": 57}, {"time": 4876, "pitch": 73, "duration": 13, "velocity": 59}, {"time": 4888, "pitch": 74, "duration": 13, "velocity": 67}, {"time": 4900, "pitch": 64, "duration": 9, "velocity": 53}, {"time": 4906, "pitch": 71, "duration": 8, "velocity": 58}, {"time": 4912, "pitch": 74, "duration": 6, "velocity": 62}, {"time": 4918, "pitch": 78, "duration": 12, "velocity": 71}, {"time": 4948, "pitch": 69, "duration": 13, "velocity": 58}, {"time": 4954, "pitch": 73, "duration": 9, "velocity": 59}, {"time": 4960, "pitch": 74, "duration": 7, "velocity": 73}, {"time": 4966, "pitch": 81, "duration": 22, "velocity": 45}, {"time": 4977, "pitch": 76, "duration": 9, "velocity": 60}, {"time": 4990, "pitch": 69, "duration": 3, "velocity": 59}, {"time": 4992, "pitch": 74, "duration": 5, "velocity": 59}, {"time": 4995, "pitch": 76, "duration": 3, "velocity": 62}, {"time": 4996, "pitch": 81, "duration": 18, "velocity": 79}, {"time": 5014, "pitch": 69, "duration": 3, "velocity": 56}, {"time": 5017, "pitch": 76, "duration": 5, "velocity": 62}, {"time": 5020, "pitch": 78, "duration": 25, "velocity": 62}, {"time": 5026, "pitch": 85, "duration": 6, "velocity": 71}, {"time": 5032, "pitch": 86, "duration": 5, "velocity": 37}, {"time": 5038, "pitch": 85, "duration": 6, "velocity": 67}, {"time": 5044, "pitch": 57, "duration": 36, "velocity": 48}, {"time": 5044, "pitch": 81, "duration": 15, "velocity": 74}, {"time": 5050, "pitch": 69, "duration": 11, "velocity": 60}, {"time": 5056, "pitch": 74, "duration": 25, "velocity": 60}, {"time": 5068, "pitch": 76, "duration": 26, "velocity": 61}, {"time": 5092, "pitch": 55, "duration": 42, "velocity": 63}, {"time": 5098, "pitch": 62, "duration": 38, "velocity": 48}, {"time": 5104, "pitch": 69, "duration": 6, "velocity": 55}, {"time": 5110, "pitch": 71, "duration": 36, "velocity": 64}, {"time": 5140, "pitch": 55, "duration": 44, "velocity": 63}, {"time": 5146, "pitch": 62, "duration": 37, "velocity": 60}, {"time": 5152, "pitch": 69, "duration": 7, "velocity": 59}, {"time": 5158, "pitch": 73, "duration": 24, "velocity": 69}, {"time": 5170, "pitch": 69, "duration": 13, "velocity": 68}, {"time": 5188, "pitch": 54, "duration": 36, "velocity": 63}, {"time": 5194, "pitch": 61, "duration": 31, "velocity": 59}, {"time": 5200, "pitch": 66, "duration": 23, "velocity": 58}, {"time": 5206, "pitch": 73, "duration": 13, "velocity": 77}, {"time": 5218, "pitch": 69, "duration": 9, "velocity": 60}, {"time": 5224, "pitch": 71, "duration": 8, "velocity": 66}, {"time": 5230, "pitch": 73, "duration": 7, "velocity": 58}, {"time": 5236, "pitch": 59, "duration": 37, "velocity": 63}, {"time": 5242, "pitch": 66, "duration": 28, "velocity": 65}, {"time": 5248, "pitch": 71, "duration": 18, "velocity": 62}, {"time": 5254, "pitch": 74, "duration": 19, "velocity": 59}, {"time": 5272, "pitch": 76, "duration": 11, "velocity": 64}, {"time": 5284, "pitch": 52, "duration": 36, "velocity": 58}, {"time": 5284, "pitch": 67, "duration": 21, "velocity": 58}, {"time": 5284, "pitch": 71, "duration": 41, "velocity": 59}, {"time": 5296, "pitch": 59, "duration": 27, "velocity": 59}, {"time": 5308, "pitch": 74, "duration": 11, "velocity": 60}, {"time": 5332, "pitch": 57, "duration": 33, "velocity": 64}, {"time": 5332, "pitch": 73, "duration": 38, "velocity": 60}, {"time": 5332, "pitch": 76, "duration": 38, "velocity": 63}, {"time": 5344, "pitch": 64, "duration": 21, "velocity": 58}, {"time": 5380, "pitch": 50, "duration": 87, "velocity": 71}, {"time": 5380, "pitch": 66, "duration": 87, "velocity": 58}, {"time": 5389, "pitch": 57, "duration": 78, "velocity": 58}, {"time": 5404, "pitch": 69, "duration": 64, "velocity": 61}, {"time": 5416, "pitch": 62, "duration": 50, "velocity": 46}, {"time": 5428, "pitch": 74, "duration": 36, "velocity": 54}, {"time": 5452, "pitch": 81, "duration": 20, "velocity": 81}, {"time": 5476, "pitch": 52, "duration": 36, "velocity": 67}, {"time": 5476, "pitch": 67, "duration": 37, "velocity": 60}, {"time": 5476, "pitch": 71, "duration": 38, "velocity": 67}, {"time": 5488, "pitch": 59, "duration": 35, "velocity": 51}, {"time": 5500, "pitch": 76, "duration": 16, "velocity": 63}, {"time": 5521, "pitch": 69, "duration": 3, "velocity": 54}, {"time": 5521, "pitch": 74, "duration": 5, "velocity": 66}, {"time": 5524, "pitch": 57, "duration": 42, "velocity": 60}, {"time": 5524, "pitch": 69, "duration": 1, "velocity": 58}, {"time": 5524, "pitch": 73, "duration": 41, "velocity": 64}, {"time": 5524, "pitch": 76, "duration": 4, "velocity": 60}, {"time": 5524, "pitch": 81, "duration": 21, "velocity": 68}, {"time": 5656, "pitch": 50, "duration": 80, "velocity": 86}, {"time": 5656, "pitch": 66, "duration": 42, "velocity": 63}, {"time": 5665, "pitch": 57, "duration": 69, "velocity": 12}, {"time": 5674, "pitch": 74, "duration": 8, "velocity": 15}, {"time": 5680, "pitch": 69, "duration": 11, "velocity": 60}, {"time": 5686, "pitch": 71, "duration": 21, "velocity": 56}, {"time": 5698, "pitch": 62, "duration": 16, "velocity": 56}, {"time": 5710, "pitch": 74, "duration": 20, "velocity": 64}, {"time": 5722, "pitch": 62, "duration": 8, "velocity": 58}, {"time": 5728, "pitch": 71, "duration": 8, "velocity": 37}, {"time": 5734, "pitch": 69, "duration": 4, "velocity": 61}, {"time": 5740, "pitch": 50, "duration": 86, "velocity": 70}, {"time": 5740, "pitch": 66, "duration": 17, "velocity": 57}, {"time": 5746, "pitch": 57, "duration": 70, "velocity": 54}, {"time": 5752, "pitch": 62, "duration": 16, "velocity": 51}, {"time": 5758, "pitch": 74, "duration": 8, "velocity": 56}, {"time": 5764, "pitch": 69, "duration": 8, "velocity": 68}, {"time": 5770, "pitch": 71, "duration": 14, "velocity": 52}, {"time": 5782, "pitch": 69, "duration": 13, "velocity": 60}, {"time": 5794, "pitch": 66, "duration": 26, "velocity": 54}, {"time": 5806, "pitch": 74, "duration": 9, "velocity": 10}, {"time": 5815, "pitch": 71, "duration": 8, "velocity": 60}, {"time": 5821, "pitch": 69, "duration": 7, "velocity": 47}, {"time": 5827, "pitch": 66, "duration": 94, "velocity": 58}, {"time": 5833, "pitch": 50, "duration": 91, "velocity": 71}, {"time": 5839, "pitch": 57, "duration": 85, "velocity": 58}, {"time": 5848, "pitch": 62, "duration": 76, "velocity": 43}, {"time": 5854, "pitch": 74, "duration": 70, "velocity": 49}], "annotations": [{"time": 52, "annotation": {"number": 64, "value": 90}, "group": "control_change"}, {"time": 64, "annotation": {"number": 64, "value": 84}, "group": "control_change"}, {"time": 76, "annotation": {"number": 64, "value": 80}, "group": "control_change"}, {"time": 88, "annotation": {"number": 64, "value": 79}, "group": "control_change"}]}]}