{"metadata": {"schema_version": "0.2", "title": "None", "source_filename": "149.mid", "source_format": "midi"}, "resolution": 12, "tempos": [{"time": 0, "qpm": 67.00002903334591}, {"time": 119, "qpm": 68.0000725334107}, {"time": 216, "qpm": 67.00002903334591}, {"time": 360, "qpm": 68.0000725334107}, {"time": 540, "qpm": 67.00002903334591}, {"time": 672, "qpm": 68.0000725334107}, {"time": 792, "qpm": 67.5000675000675}, {"time": 972, "qpm": 67.00002903334591}, {"time": 1068, "qpm": 68.0000725334107}, {"time": 1164, "qpm": 67.00002903334591}, {"time": 1236, "qpm": 68.0000725334107}, {"time": 1368, "qpm": 65.99999340000066}, {"time": 1416, "qpm": 68.0000725334107}, {"time": 1440, "qpm": 67.00002903334591}, {"time": 1560, "qpm": 68.0000725334107}, {"time": 1740, "qpm": 67.00002903334591}, {"time": 1872, "qpm": 68.0000725334107}, {"time": 1992, "qpm": 67.5000675000675}, {"time": 2172, "qpm": 67.00002903334591}, {"time": 2268, "qpm": 68.0000725334107}, {"time": 2364, "qpm": 67.00002903334591}, {"time": 2436, "qpm": 68.0000725334107}, {"time": 2568, "qpm": 65.99999340000066}, {"time": 2604, "qpm": 68.0000725334107}, {"time": 2652, "qpm": 67.00002903334591}, {"time": 2664, "qpm": 68.0000725334107}, {"time": 2700, "qpm": 67.00002903334591}, {"time": 2760, "qpm": 68.0000725334107}, {"time": 2880, "qpm": 67.00002903334591}, {"time": 3000, "qpm": 68.0000725334107}, {"time": 3120, "qpm": 67.5000675000675}, {"time": 3300, "qpm": 67.00002903334591}, {"time": 3348, "qpm": 67.5000675000675}, {"time": 3492, "qpm": 67.00002903334591}, {"time": 3647, "qpm": 68.0000725334107}, {"time": 3744, "qpm": 67.00002903334591}], "time_signatures": [{"time": 0, "numerator": 1, "denominator": 4}], "tracks": [{"program": 0, "is_drum": false, "name": "MELODY", "notes": [{"time": 232, "pitch": 67, "duration": 2, "velocity": 81}, {"time": 235, "pitch": 67, "duration": 2, "velocity": 64}, {"time": 238, "pitch": 67, "duration": 2, "velocity": 59}, {"time": 241, "pitch": 70, "duration": 5, "velocity": 73}, {"time": 247, "pitch": 72, "duration": 7, "velocity": 75}, {"time": 256, "pitch": 72, "duration": 7, "velocity": 90}, {"time": 262, "pitch": 70, "duration": 4, "velocity": 58}, {"time": 265, "pitch": 68, "duration": 38, "velocity": 65}, {"time": 328, "pitch": 67, "duration": 2, "velocity": 71}, {"time": 331, "pitch": 67, "duration": 2, "velocity": 64}, {"time": 334, "pitch": 67, "duration": 3, "velocity": 63}, {"time": 337, "pitch": 70, "duration": 6, "velocity": 72}, {"time": 343, "pitch": 72, "duration": 6, "velocity": 70}, {"time": 349, "pitch": 72, "duration": 7, "velocity": 104}, {"time": 358, "pitch": 70, "duration": 4, "velocity": 74}, {"time": 361, "pitch": 68, "duration": 24, "velocity": 74}, {"time": 394, "pitch": 72, "duration": 3, "velocity": 65}, {"time": 397, "pitch": 74, "duration": 2, "velocity": 71}, {"time": 400, "pitch": 74, "duration": 5, "velocity": 87}, {"time": 406, "pitch": 75, "duration": 2, "velocity": 74}, {"time": 409, "pitch": 75, "duration": 9, "velocity": 76}, {"time": 418, "pitch": 67, "duration": 6, "velocity": 85}, {"time": 424, "pitch": 72, "duration": 6, "velocity": 95}, {"time": 430, "pitch": 70, "duration": 5, "velocity": 67}, {"time": 436, "pitch": 70, "duration": 5, "velocity": 86}, {"time": 442, "pitch": 70, "duration": 4, "velocity": 67}, {"time": 448, "pitch": 68, "duration": 35, "velocity": 86}, {"time": 490, "pitch": 72, "duration": 3, "velocity": 74}, {"time": 493, "pitch": 74, "duration": 2, "velocity": 74}, {"time": 496, "pitch": 74, "duration": 4, "velocity": 90}, {"time": 502, "pitch": 75, "duration": 2, "velocity": 83}, {"time": 505, "pitch": 75, "duration": 8, "velocity": 87}, {"time": 514, "pitch": 77, "duration": 5, "velocity": 71}, {"time": 520, "pitch": 74, "duration": 6, "velocity": 86}, {"time": 526, "pitch": 72, "duration": 2, "velocity": 63}, {"time": 529, "pitch": 72, "duration": 5, "velocity": 74}, {"time": 535, "pitch": 70, "duration": 6, "velocity": 83}, {"time": 544, "pitch": 68, "duration": 40, "velocity": 76}, {"time": 586, "pitch": 67, "duration": 4, "velocity": 104}, {"time": 592, "pitch": 65, "duration": 29, "velocity": 85}, {"time": 628, "pitch": 77, "duration": 3, "velocity": 86}, {"time": 631, "pitch": 79, "duration": 4, "velocity": 74}, {"time": 634, "pitch": 77, "duration": 4, "velocity": 64}, {"time": 637, "pitch": 75, "duration": 2, "velocity": 67}, {"time": 640, "pitch": 72, "duration": 6, "velocity": 90}, {"time": 646, "pitch": 77, "duration": 5, "velocity": 87}, {"time": 652, "pitch": 77, "duration": 17, "velocity": 100}, {"time": 676, "pitch": 77, "duration": 2, "velocity": 77}, {"time": 679, "pitch": 79, "duration": 4, "velocity": 76}, {"time": 682, "pitch": 77, "duration": 4, "velocity": 59}, {"time": 685, "pitch": 75, "duration": 2, "velocity": 64}, {"time": 688, "pitch": 70, "duration": 6, "velocity": 76}, {"time": 694, "pitch": 77, "duration": 5, "velocity": 81}, {"time": 700, "pitch": 77, "duration": 5, "velocity": 104}, {"time": 706, "pitch": 74, "duration": 5, "velocity": 74}, {"time": 712, "pitch": 75, "duration": 13, "velocity": 86}, {"time": 730, "pitch": 75, "duration": 4, "velocity": 74}, {"time": 733, "pitch": 77, "duration": 3, "velocity": 72}, {"time": 736, "pitch": 79, "duration": 5, "velocity": 90}, {"time": 742, "pitch": 80, "duration": 2, "velocity": 74}, {"time": 745, "pitch": 80, "duration": 4, "velocity": 86}, {"time": 751, "pitch": 72, "duration": 8, "velocity": 87}, {"time": 760, "pitch": 75, "duration": 5, "velocity": 74}, {"time": 766, "pitch": 74, "duration": 5, "velocity": 77}, {"time": 772, "pitch": 72, "duration": 5, "velocity": 76}, {"time": 778, "pitch": 74, "duration": 6, "velocity": 112}, {"time": 784, "pitch": 70, "duration": 27, "velocity": 100}, {"time": 820, "pitch": 77, "duration": 2, "velocity": 90}, {"time": 823, "pitch": 79, "duration": 2, "velocity": 83}, {"time": 826, "pitch": 77, "duration": 2, "velocity": 65}, {"time": 829, "pitch": 75, "duration": 2, "velocity": 85}, {"time": 832, "pitch": 75, "duration": 3, "velocity": 100}, {"time": 838, "pitch": 72, "duration": 3, "velocity": 93}, {"time": 844, "pitch": 77, "duration": 2, "velocity": 93}, {"time": 847, "pitch": 79, "duration": 2, "velocity": 74}, {"time": 850, "pitch": 77, "duration": 3, "velocity": 67}, {"time": 853, "pitch": 75, "duration": 2, "velocity": 76}, {"time": 856, "pitch": 75, "duration": 2, "velocity": 86}, {"time": 862, "pitch": 72, "duration": 5, "velocity": 104}, {"time": 868, "pitch": 77, "duration": 2, "velocity": 95}, {"time": 871, "pitch": 79, "duration": 2, "velocity": 86}, {"time": 874, "pitch": 77, "duration": 2, "velocity": 74}, {"time": 877, "pitch": 75, "duration": 2, "velocity": 87}, {"time": 880, "pitch": 75, "duration": 3, "velocity": 104}, {"time": 886, "pitch": 70, "duration": 4, "velocity": 93}, {"time": 892, "pitch": 77, "duration": 6, "velocity": 111}, {"time": 898, "pitch": 74, "duration": 5, "velocity": 100}, {"time": 904, "pitch": 75, "duration": 16, "velocity": 86}, {"time": 922, "pitch": 70, "duration": 4, "velocity": 74}, {"time": 925, "pitch": 67, "duration": 5, "velocity": 65}, {"time": 928, "pitch": 68, "duration": 6, "velocity": 76}, {"time": 934, "pitch": 75, "duration": 2, "velocity": 63}, {"time": 937, "pitch": 75, "duration": 13, "velocity": 72}, {"time": 946, "pitch": 72, "duration": 4, "velocity": 67}, {"time": 949, "pitch": 74, "duration": 2, "velocity": 72}, {"time": 953, "pitch": 75, "duration": 5, "velocity": 83}, {"time": 958, "pitch": 74, "duration": 5, "velocity": 67}, {"time": 962, "pitch": 75, "duration": 4, "velocity": 81}, {"time": 968, "pitch": 77, "duration": 5, "velocity": 98}, {"time": 975, "pitch": 77, "duration": 27, "velocity": 98}, {"time": 1012, "pitch": 77, "duration": 3, "velocity": 90}, {"time": 1015, "pitch": 79, "duration": 3, "velocity": 90}, {"time": 1018, "pitch": 77, "duration": 3, "velocity": 74}, {"time": 1021, "pitch": 75, "duration": 1, "velocity": 86}, {"time": 1024, "pitch": 72, "duration": 5, "velocity": 83}, {"time": 1030, "pitch": 77, "duration": 4, "velocity": 90}, {"time": 1036, "pitch": 77, "duration": 15, "velocity": 108}, {"time": 1060, "pitch": 77, "duration": 2, "velocity": 87}, {"time": 1063, "pitch": 79, "duration": 3, "velocity": 81}, {"time": 1066, "pitch": 77, "duration": 4, "velocity": 63}, {"time": 1069, "pitch": 75, "duration": 2, "velocity": 75}, {"time": 1072, "pitch": 70, "duration": 5, "velocity": 95}, {"time": 1078, "pitch": 77, "duration": 5, "velocity": 98}, {"time": 1084, "pitch": 77, "duration": 5, "velocity": 108}, {"time": 1090, "pitch": 74, "duration": 4, "velocity": 98}, {"time": 1093, "pitch": 75, "duration": 17, "velocity": 95}, {"time": 1114, "pitch": 75, "duration": 4, "velocity": 90}, {"time": 1117, "pitch": 77, "duration": 3, "velocity": 68}, {"time": 1120, "pitch": 79, "duration": 5, "velocity": 95}, {"time": 1126, "pitch": 80, "duration": 2, "velocity": 86}, {"time": 1129, "pitch": 80, "duration": 4, "velocity": 77}, {"time": 1135, "pitch": 72, "duration": 8, "velocity": 95}, {"time": 1144, "pitch": 74, "duration": 5, "velocity": 98}, {"time": 1150, "pitch": 72, "duration": 4, "velocity": 72}, {"time": 1153, "pitch": 70, "duration": 6, "velocity": 81}, {"time": 1159, "pitch": 74, "duration": 7, "velocity": 79}, {"time": 1168, "pitch": 70, "duration": 35, "velocity": 95}, {"time": 1204, "pitch": 77, "duration": 2, "velocity": 90}, {"time": 1207, "pitch": 79, "duration": 2, "velocity": 73}, {"time": 1210, "pitch": 77, "duration": 2, "velocity": 72}, {"time": 1213, "pitch": 75, "duration": 2, "velocity": 74}, {"time": 1216, "pitch": 75, "duration": 4, "velocity": 73}, {"time": 1222, "pitch": 72, "duration": 4, "velocity": 87}, {"time": 1228, "pitch": 77, "duration": 2, "velocity": 86}, {"time": 1231, "pitch": 79, "duration": 2, "velocity": 67}, {"time": 1234, "pitch": 77, "duration": 2, "velocity": 74}, {"time": 1237, "pitch": 75, "duration": 2, "velocity": 66}, {"time": 1240, "pitch": 75, "duration": 3, "velocity": 74}, {"time": 1246, "pitch": 72, "duration": 5, "velocity": 87}, {"time": 1252, "pitch": 77, "duration": 2, "velocity": 79}, {"time": 1255, "pitch": 79, "duration": 2, "velocity": 104}, {"time": 1258, "pitch": 77, "duration": 2, "velocity": 74}, {"time": 1261, "pitch": 75, "duration": 2, "velocity": 81}, {"time": 1264, "pitch": 75, "duration": 2, "velocity": 98}, {"time": 1270, "pitch": 70, "duration": 4, "velocity": 95}, {"time": 1276, "pitch": 82, "duration": 5, "velocity": 111}, {"time": 1282, "pitch": 74, "duration": 4, "velocity": 104}, {"time": 1288, "pitch": 75, "duration": 17, "velocity": 90}, {"time": 1306, "pitch": 70, "duration": 4, "velocity": 85}, {"time": 1309, "pitch": 67, "duration": 4, "velocity": 71}, {"time": 1312, "pitch": 68, "duration": 4, "velocity": 77}, {"time": 1318, "pitch": 75, "duration": 2, "velocity": 73}, {"time": 1321, "pitch": 75, "duration": 9, "velocity": 83}, {"time": 1331, "pitch": 79, "duration": 2, "velocity": 83}, {"time": 1334, "pitch": 80, "duration": 2, "velocity": 74}, {"time": 1337, "pitch": 79, "duration": 7, "velocity": 93}, {"time": 1343, "pitch": 77, "duration": 5, "velocity": 74}, {"time": 1347, "pitch": 75, "duration": 6, "velocity": 72}, {"time": 1355, "pitch": 74, "duration": 5, "velocity": 75}, {"time": 1361, "pitch": 75, "duration": 47, "velocity": 85}, {"time": 1432, "pitch": 67, "duration": 2, "velocity": 81}, {"time": 1435, "pitch": 67, "duration": 2, "velocity": 64}, {"time": 1438, "pitch": 67, "duration": 2, "velocity": 59}, {"time": 1441, "pitch": 70, "duration": 5, "velocity": 73}, {"time": 1447, "pitch": 72, "duration": 7, "velocity": 75}, {"time": 1456, "pitch": 72, "duration": 7, "velocity": 90}, {"time": 1462, "pitch": 70, "duration": 4, "velocity": 58}, {"time": 1465, "pitch": 68, "duration": 38, "velocity": 65}, {"time": 1528, "pitch": 67, "duration": 2, "velocity": 71}, {"time": 1531, "pitch": 67, "duration": 2, "velocity": 64}, {"time": 1534, "pitch": 67, "duration": 3, "velocity": 63}, {"time": 1537, "pitch": 70, "duration": 6, "velocity": 72}, {"time": 1543, "pitch": 72, "duration": 6, "velocity": 70}, {"time": 1549, "pitch": 72, "duration": 7, "velocity": 104}, {"time": 1558, "pitch": 70, "duration": 4, "velocity": 74}, {"time": 1561, "pitch": 68, "duration": 24, "velocity": 74}, {"time": 1594, "pitch": 72, "duration": 3, "velocity": 65}, {"time": 1597, "pitch": 74, "duration": 2, "velocity": 71}, {"time": 1600, "pitch": 74, "duration": 5, "velocity": 87}, {"time": 1606, "pitch": 75, "duration": 2, "velocity": 74}, {"time": 1609, "pitch": 75, "duration": 9, "velocity": 76}, {"time": 1618, "pitch": 67, "duration": 6, "velocity": 85}, {"time": 1624, "pitch": 74, "duration": 6, "velocity": 95}, {"time": 1630, "pitch": 72, "duration": 5, "velocity": 67}, {"time": 1636, "pitch": 70, "duration": 5, "velocity": 86}, {"time": 1642, "pitch": 70, "duration": 4, "velocity": 67}, {"time": 1648, "pitch": 68, "duration": 35, "velocity": 86}, {"time": 1690, "pitch": 72, "duration": 3, "velocity": 74}, {"time": 1693, "pitch": 74, "duration": 2, "velocity": 74}, {"time": 1696, "pitch": 74, "duration": 4, "velocity": 90}, {"time": 1702, "pitch": 75, "duration": 2, "velocity": 83}, {"time": 1705, "pitch": 75, "duration": 8, "velocity": 87}, {"time": 1714, "pitch": 77, "duration": 5, "velocity": 71}, {"time": 1720, "pitch": 74, "duration": 6, "velocity": 86}, {"time": 1726, "pitch": 72, "duration": 2, "velocity": 63}, {"time": 1729, "pitch": 72, "duration": 5, "velocity": 74}, {"time": 1735, "pitch": 70, "duration": 6, "velocity": 83}, {"time": 1744, "pitch": 68, "duration": 40, "velocity": 76}, {"time": 1786, "pitch": 67, "duration": 4, "velocity": 104}, {"time": 1792, "pitch": 65, "duration": 29, "velocity": 85}, {"time": 1828, "pitch": 77, "duration": 3, "velocity": 86}, {"time": 1831, "pitch": 79, "duration": 4, "velocity": 74}, {"time": 1834, "pitch": 77, "duration": 4, "velocity": 64}, {"time": 1837, "pitch": 75, "duration": 2, "velocity": 67}, {"time": 1840, "pitch": 72, "duration": 6, "velocity": 90}, {"time": 1846, "pitch": 77, "duration": 5, "velocity": 87}, {"time": 1852, "pitch": 77, "duration": 17, "velocity": 100}, {"time": 1876, "pitch": 77, "duration": 2, "velocity": 77}, {"time": 1879, "pitch": 79, "duration": 4, "velocity": 76}, {"time": 1882, "pitch": 77, "duration": 4, "velocity": 59}, {"time": 1885, "pitch": 75, "duration": 2, "velocity": 64}, {"time": 1888, "pitch": 70, "duration": 6, "velocity": 76}, {"time": 1894, "pitch": 77, "duration": 5, "velocity": 81}, {"time": 1900, "pitch": 77, "duration": 5, "velocity": 104}, {"time": 1906, "pitch": 74, "duration": 5, "velocity": 74}, {"time": 1912, "pitch": 75, "duration": 13, "velocity": 86}, {"time": 1930, "pitch": 75, "duration": 4, "velocity": 74}, {"time": 1933, "pitch": 77, "duration": 3, "velocity": 72}, {"time": 1936, "pitch": 79, "duration": 5, "velocity": 90}, {"time": 1942, "pitch": 80, "duration": 2, "velocity": 74}, {"time": 1945, "pitch": 80, "duration": 4, "velocity": 86}, {"time": 1951, "pitch": 72, "duration": 8, "velocity": 87}, {"time": 1960, "pitch": 75, "duration": 5, "velocity": 74}, {"time": 1966, "pitch": 74, "duration": 5, "velocity": 77}, {"time": 1972, "pitch": 72, "duration": 5, "velocity": 76}, {"time": 1978, "pitch": 74, "duration": 6, "velocity": 112}, {"time": 1984, "pitch": 70, "duration": 27, "velocity": 100}, {"time": 2020, "pitch": 77, "duration": 2, "velocity": 90}, {"time": 2023, "pitch": 79, "duration": 2, "velocity": 83}, {"time": 2026, "pitch": 77, "duration": 2, "velocity": 65}, {"time": 2029, "pitch": 75, "duration": 2, "velocity": 85}, {"time": 2032, "pitch": 75, "duration": 3, "velocity": 100}, {"time": 2038, "pitch": 72, "duration": 3, "velocity": 93}, {"time": 2044, "pitch": 77, "duration": 2, "velocity": 93}, {"time": 2047, "pitch": 79, "duration": 2, "velocity": 74}, {"time": 2050, "pitch": 77, "duration": 3, "velocity": 67}, {"time": 2053, "pitch": 75, "duration": 2, "velocity": 76}, {"time": 2056, "pitch": 75, "duration": 2, "velocity": 86}, {"time": 2062, "pitch": 72, "duration": 5, "velocity": 104}, {"time": 2068, "pitch": 77, "duration": 2, "velocity": 95}, {"time": 2071, "pitch": 79, "duration": 2, "velocity": 86}, {"time": 2074, "pitch": 77, "duration": 2, "velocity": 74}, {"time": 2077, "pitch": 75, "duration": 2, "velocity": 87}, {"time": 2080, "pitch": 75, "duration": 3, "velocity": 104}, {"time": 2086, "pitch": 70, "duration": 4, "velocity": 93}, {"time": 2092, "pitch": 77, "duration": 6, "velocity": 111}, {"time": 2098, "pitch": 74, "duration": 5, "velocity": 100}, {"time": 2104, "pitch": 75, "duration": 16, "velocity": 86}, {"time": 2122, "pitch": 70, "duration": 4, "velocity": 74}, {"time": 2125, "pitch": 67, "duration": 5, "velocity": 65}, {"time": 2128, "pitch": 68, "duration": 6, "velocity": 76}, {"time": 2134, "pitch": 75, "duration": 2, "velocity": 63}, {"time": 2137, "pitch": 75, "duration": 13, "velocity": 72}, {"time": 2146, "pitch": 72, "duration": 4, "velocity": 67}, {"time": 2149, "pitch": 74, "duration": 2, "velocity": 72}, {"time": 2153, "pitch": 75, "duration": 5, "velocity": 83}, {"time": 2158, "pitch": 74, "duration": 5, "velocity": 67}, {"time": 2162, "pitch": 75, "duration": 4, "velocity": 81}, {"time": 2168, "pitch": 77, "duration": 5, "velocity": 98}, {"time": 2175, "pitch": 77, "duration": 27, "velocity": 98}, {"time": 2212, "pitch": 77, "duration": 3, "velocity": 90}, {"time": 2215, "pitch": 79, "duration": 3, "velocity": 90}, {"time": 2218, "pitch": 77, "duration": 3, "velocity": 74}, {"time": 2221, "pitch": 75, "duration": 1, "velocity": 86}, {"time": 2224, "pitch": 72, "duration": 5, "velocity": 83}, {"time": 2230, "pitch": 77, "duration": 4, "velocity": 90}, {"time": 2236, "pitch": 77, "duration": 15, "velocity": 108}, {"time": 2260, "pitch": 77, "duration": 2, "velocity": 87}, {"time": 2263, "pitch": 79, "duration": 3, "velocity": 81}, {"time": 2266, "pitch": 77, "duration": 4, "velocity": 63}, {"time": 2269, "pitch": 75, "duration": 2, "velocity": 75}, {"time": 2272, "pitch": 70, "duration": 5, "velocity": 95}, {"time": 2278, "pitch": 77, "duration": 5, "velocity": 98}, {"time": 2284, "pitch": 77, "duration": 5, "velocity": 108}, {"time": 2290, "pitch": 74, "duration": 4, "velocity": 98}, {"time": 2293, "pitch": 75, "duration": 17, "velocity": 95}, {"time": 2314, "pitch": 75, "duration": 4, "velocity": 90}, {"time": 2317, "pitch": 77, "duration": 3, "velocity": 68}, {"time": 2320, "pitch": 79, "duration": 5, "velocity": 95}, {"time": 2326, "pitch": 80, "duration": 2, "velocity": 86}, {"time": 2329, "pitch": 80, "duration": 4, "velocity": 77}, {"time": 2335, "pitch": 72, "duration": 8, "velocity": 95}, {"time": 2344, "pitch": 74, "duration": 5, "velocity": 98}, {"time": 2350, "pitch": 72, "duration": 4, "velocity": 72}, {"time": 2353, "pitch": 70, "duration": 6, "velocity": 81}, {"time": 2359, "pitch": 74, "duration": 7, "velocity": 79}, {"time": 2368, "pitch": 70, "duration": 35, "velocity": 95}, {"time": 2404, "pitch": 77, "duration": 2, "velocity": 90}, {"time": 2407, "pitch": 79, "duration": 2, "velocity": 73}, {"time": 2410, "pitch": 77, "duration": 2, "velocity": 72}, {"time": 2413, "pitch": 75, "duration": 2, "velocity": 74}, {"time": 2416, "pitch": 75, "duration": 4, "velocity": 73}, {"time": 2422, "pitch": 72, "duration": 4, "velocity": 87}, {"time": 2428, "pitch": 77, "duration": 2, "velocity": 86}, {"time": 2431, "pitch": 79, "duration": 2, "velocity": 67}, {"time": 2434, "pitch": 77, "duration": 2, "velocity": 74}, {"time": 2437, "pitch": 75, "duration": 2, "velocity": 66}, {"time": 2440, "pitch": 75, "duration": 3, "velocity": 74}, {"time": 2446, "pitch": 72, "duration": 5, "velocity": 87}, {"time": 2452, "pitch": 77, "duration": 2, "velocity": 79}, {"time": 2455, "pitch": 79, "duration": 2, "velocity": 104}, {"time": 2458, "pitch": 77, "duration": 2, "velocity": 74}, {"time": 2461, "pitch": 75, "duration": 2, "velocity": 81}, {"time": 2464, "pitch": 75, "duration": 2, "velocity": 98}, {"time": 2470, "pitch": 70, "duration": 4, "velocity": 95}, {"time": 2476, "pitch": 82, "duration": 5, "velocity": 111}, {"time": 2482, "pitch": 74, "duration": 4, "velocity": 104}, {"time": 2488, "pitch": 75, "duration": 17, "velocity": 90}, {"time": 2506, "pitch": 70, "duration": 4, "velocity": 85}, {"time": 2509, "pitch": 67, "duration": 4, "velocity": 71}, {"time": 2512, "pitch": 68, "duration": 4, "velocity": 77}, {"time": 2518, "pitch": 75, "duration": 2, "velocity": 73}, {"time": 2521, "pitch": 75, "duration": 9, "velocity": 83}, {"time": 2531, "pitch": 79, "duration": 2, "velocity": 83}, {"time": 2534, "pitch": 80, "duration": 2, "velocity": 74}, {"time": 2537, "pitch": 79, "duration": 7, "velocity": 93}, {"time": 2543, "pitch": 77, "duration": 5, "velocity": 74}, {"time": 2547, "pitch": 75, "duration": 6, "velocity": 72}, {"time": 2555, "pitch": 74, "duration": 5, "velocity": 75}, {"time": 2561, "pitch": 75, "duration": 47, "velocity": 85}, {"time": 2752, "pitch": 72, "duration": 3, "velocity": 77}, {"time": 2755, "pitch": 74, "duration": 2, "velocity": 81}, {"time": 2758, "pitch": 75, "duration": 4, "velocity": 93}, {"time": 2764, "pitch": 75, "duration": 4, "velocity": 112}, {"time": 2770, "pitch": 72, "duration": 3, "velocity": 79}, {"time": 2773, "pitch": 74, "duration": 2, "velocity": 77}, {"time": 2776, "pitch": 75, "duration": 4, "velocity": 86}, {"time": 2782, "pitch": 77, "duration": 14, "velocity": 100}, {"time": 2800, "pitch": 74, "duration": 4, "velocity": 108}, {"time": 2803, "pitch": 75, "duration": 2, "velocity": 75}, {"time": 2806, "pitch": 77, "duration": 4, "velocity": 98}, {"time": 2812, "pitch": 77, "duration": 4, "velocity": 112}, {"time": 2818, "pitch": 74, "duration": 3, "velocity": 98}, {"time": 2821, "pitch": 75, "duration": 2, "velocity": 85}, {"time": 2824, "pitch": 77, "duration": 4, "velocity": 100}, {"time": 2830, "pitch": 79, "duration": 15, "velocity": 114}, {"time": 2848, "pitch": 80, "duration": 7, "velocity": 112}, {"time": 2854, "pitch": 79, "duration": 7, "velocity": 81}, {"time": 2860, "pitch": 75, "duration": 7, "velocity": 74}, {"time": 2866, "pitch": 80, "duration": 7, "velocity": 100}, {"time": 2872, "pitch": 79, "duration": 7, "velocity": 76}, {"time": 2878, "pitch": 75, "duration": 7, "velocity": 69}, {"time": 2884, "pitch": 80, "duration": 7, "velocity": 112}, {"time": 2890, "pitch": 79, "duration": 6, "velocity": 90}, {"time": 2896, "pitch": 77, "duration": 24, "velocity": 100}, {"time": 2959, "pitch": 80, "duration": 3, "velocity": 90}, {"time": 2962, "pitch": 78, "duration": 3, "velocity": 74}, {"time": 2965, "pitch": 76, "duration": 1, "velocity": 86}, {"time": 2968, "pitch": 73, "duration": 5, "velocity": 83}, {"time": 2974, "pitch": 78, "duration": 4, "velocity": 90}, {"time": 2980, "pitch": 78, "duration": 15, "velocity": 108}, {"time": 3004, "pitch": 78, "duration": 2, "velocity": 87}, {"time": 3007, "pitch": 80, "duration": 3, "velocity": 81}, {"time": 3010, "pitch": 78, "duration": 4, "velocity": 63}, {"time": 3013, "pitch": 76, "duration": 2, "velocity": 75}, {"time": 3016, "pitch": 71, "duration": 5, "velocity": 95}, {"time": 3022, "pitch": 78, "duration": 5, "velocity": 98}, {"time": 3028, "pitch": 78, "duration": 5, "velocity": 108}, {"time": 3034, "pitch": 75, "duration": 4, "velocity": 98}, {"time": 3037, "pitch": 76, "duration": 17, "velocity": 95}, {"time": 3058, "pitch": 76, "duration": 4, "velocity": 90}, {"time": 3061, "pitch": 78, "duration": 3, "velocity": 68}, {"time": 3064, "pitch": 80, "duration": 5, "velocity": 95}, {"time": 3070, "pitch": 81, "duration": 2, "velocity": 86}, {"time": 3073, "pitch": 81, "duration": 4, "velocity": 77}, {"time": 3079, "pitch": 73, "duration": 8, "velocity": 95}, {"time": 3088, "pitch": 75, "duration": 5, "velocity": 98}, {"time": 3094, "pitch": 73, "duration": 4, "velocity": 72}, {"time": 3097, "pitch": 71, "duration": 6, "velocity": 81}, {"time": 3103, "pitch": 75, "duration": 7, "velocity": 79}, {"time": 3112, "pitch": 71, "duration": 35, "velocity": 95}, {"time": 3148, "pitch": 78, "duration": 2, "velocity": 90}, {"time": 3151, "pitch": 80, "duration": 2, "velocity": 73}, {"time": 3154, "pitch": 78, "duration": 2, "velocity": 72}, {"time": 3157, "pitch": 76, "duration": 2, "velocity": 74}, {"time": 3160, "pitch": 76, "duration": 4, "velocity": 73}, {"time": 3166, "pitch": 73, "duration": 4, "velocity": 87}, {"time": 3172, "pitch": 78, "duration": 2, "velocity": 86}, {"time": 3175, "pitch": 80, "duration": 2, "velocity": 67}, {"time": 3178, "pitch": 78, "duration": 2, "velocity": 74}, {"time": 3181, "pitch": 76, "duration": 2, "velocity": 66}, {"time": 3184, "pitch": 76, "duration": 3, "velocity": 74}, {"time": 3190, "pitch": 73, "duration": 5, "velocity": 87}, {"time": 3196, "pitch": 78, "duration": 2, "velocity": 79}, {"time": 3199, "pitch": 80, "duration": 2, "velocity": 104}, {"time": 3202, "pitch": 78, "duration": 2, "velocity": 74}, {"time": 3205, "pitch": 76, "duration": 2, "velocity": 81}, {"time": 3208, "pitch": 76, "duration": 2, "velocity": 98}, {"time": 3214, "pitch": 71, "duration": 4, "velocity": 95}, {"time": 3220, "pitch": 83, "duration": 5, "velocity": 111}, {"time": 3226, "pitch": 75, "duration": 4, "velocity": 104}, {"time": 3232, "pitch": 76, "duration": 17, "velocity": 90}, {"time": 3250, "pitch": 71, "duration": 4, "velocity": 85}, {"time": 3253, "pitch": 68, "duration": 4, "velocity": 71}, {"time": 3256, "pitch": 69, "duration": 4, "velocity": 77}, {"time": 3262, "pitch": 76, "duration": 2, "velocity": 73}, {"time": 3265, "pitch": 76, "duration": 9, "velocity": 83}, {"time": 3275, "pitch": 80, "duration": 2, "velocity": 83}, {"time": 3278, "pitch": 81, "duration": 2, "velocity": 74}, {"time": 3281, "pitch": 80, "duration": 7, "velocity": 93}, {"time": 3287, "pitch": 78, "duration": 5, "velocity": 74}, {"time": 3291, "pitch": 76, "duration": 6, "velocity": 72}, {"time": 3299, "pitch": 75, "duration": 5, "velocity": 75}, {"time": 3305, "pitch": 76, "duration": 46, "velocity": 85}, {"time": 3340, "pitch": 78, "duration": 2, "velocity": 90}, {"time": 3343, "pitch": 80, "duration": 2, "velocity": 73}, {"time": 3346, "pitch": 78, "duration": 2, "velocity": 72}, {"time": 3349, "pitch": 76, "duration": 2, "velocity": 74}, {"time": 3352, "pitch": 76, "duration": 4, "velocity": 73}, {"time": 3358, "pitch": 73, "duration": 4, "velocity": 87}, {"time": 3364, "pitch": 78, "duration": 2, "velocity": 86}, {"time": 3367, "pitch": 80, "duration": 2, "velocity": 67}, {"time": 3370, "pitch": 78, "duration": 2, "velocity": 74}, {"time": 3373, "pitch": 76, "duration": 2, "velocity": 66}, {"time": 3376, "pitch": 76, "duration": 3, "velocity": 74}, {"time": 3382, "pitch": 73, "duration": 5, "velocity": 87}, {"time": 3388, "pitch": 78, "duration": 2, "velocity": 79}, {"time": 3391, "pitch": 80, "duration": 2, "velocity": 104}, {"time": 3394, "pitch": 78, "duration": 2, "velocity": 74}, {"time": 3397, "pitch": 76, "duration": 2, "velocity": 81}, {"time": 3400, "pitch": 76, "duration": 2, "velocity": 98}, {"time": 3406, "pitch": 71, "duration": 4, "velocity": 95}, {"time": 3412, "pitch": 83, "duration": 5, "velocity": 111}, {"time": 3418, "pitch": 75, "duration": 4, "velocity": 104}, {"time": 3424, "pitch": 76, "duration": 17, "velocity": 90}, {"time": 3442, "pitch": 71, "duration": 4, "velocity": 85}, {"time": 3445, "pitch": 68, "duration": 4, "velocity": 71}, {"time": 3448, "pitch": 69, "duration": 4, "velocity": 77}, {"time": 3454, "pitch": 76, "duration": 2, "velocity": 73}, {"time": 3457, "pitch": 76, "duration": 9, "velocity": 83}, {"time": 3467, "pitch": 80, "duration": 2, "velocity": 83}, {"time": 3470, "pitch": 81, "duration": 2, "velocity": 74}, {"time": 3473, "pitch": 80, "duration": 7, "velocity": 93}, {"time": 3479, "pitch": 78, "duration": 5, "velocity": 74}, {"time": 3483, "pitch": 76, "duration": 37, "velocity": 72}, {"time": 3520, "pitch": 75, "duration": 7, "velocity": 63}, {"time": 3526, "pitch": 76, "duration": 53, "velocity": 83}]}, {"program": 0, "is_drum": false, "name": "PIANO", "notes": [{"time": 16, "pitch": 39, "duration": 49, "velocity": 77}, {"time": 16, "pitch": 55, "duration": 11, "velocity": 73}, {"time": 16, "pitch": 62, "duration": 11, "velocity": 86}, {"time": 22, "pitch": 46, "duration": 42, "velocity": 56}, {"time": 28, "pitch": 55, "duration": 11, "velocity": 67}, {"time": 28, "pitch": 62, "duration": 11, "velocity": 79}, {"time": 34, "pitch": 51, "duration": 10, "velocity": 51}, {"time": 40, "pitch": 55, "duration": 10, "velocity": 65}, {"time": 40, "pitch": 62, "duration": 10, "velocity": 85}, {"time": 46, "pitch": 51, "duration": 17, "velocity": 51}, {"time": 52, "pitch": 55, "duration": 10, "velocity": 81}, {"time": 52, "pitch": 62, "duration": 11, "velocity": 86}, {"time": 64, "pitch": 44, "duration": 48, "velocity": 65}, {"time": 64, "pitch": 56, "duration": 11, "velocity": 72}, {"time": 64, "pitch": 63, "duration": 11, "velocity": 73}, {"time": 76, "pitch": 56, "duration": 11, "velocity": 63}, {"time": 76, "pitch": 63, "duration": 11, "velocity": 75}, {"time": 88, "pitch": 51, "duration": 22, "velocity": 60}, {"time": 88, "pitch": 56, "duration": 10, "velocity": 74}, {"time": 88, "pitch": 63, "duration": 11, "velocity": 70}, {"time": 100, "pitch": 56, "duration": 8, "velocity": 85}, {"time": 100, "pitch": 63, "duration": 11, "velocity": 81}, {"time": 112, "pitch": 39, "duration": 49, "velocity": 93}, {"time": 112, "pitch": 55, "duration": 12, "velocity": 83}, {"time": 112, "pitch": 62, "duration": 11, "velocity": 85}, {"time": 118, "pitch": 46, "duration": 42, "velocity": 59}, {"time": 124, "pitch": 51, "duration": 16, "velocity": 58}, {"time": 124, "pitch": 55, "duration": 10, "velocity": 72}, {"time": 124, "pitch": 62, "duration": 10, "velocity": 85}, {"time": 136, "pitch": 55, "duration": 11, "velocity": 73}, {"time": 136, "pitch": 62, "duration": 11, "velocity": 85}, {"time": 142, "pitch": 51, "duration": 17, "velocity": 52}, {"time": 148, "pitch": 55, "duration": 9, "velocity": 71}, {"time": 148, "pitch": 62, "duration": 10, "velocity": 81}, {"time": 160, "pitch": 44, "duration": 48, "velocity": 67}, {"time": 160, "pitch": 56, "duration": 12, "velocity": 77}, {"time": 160, "pitch": 63, "duration": 12, "velocity": 7}, {"time": 172, "pitch": 56, "duration": 11, "velocity": 65}, {"time": 172, "pitch": 63, "duration": 11, "velocity": 74}, {"time": 184, "pitch": 56, "duration": 24, "velocity": 67}, {"time": 184, "pitch": 63, "duration": 24, "velocity": 73}, {"time": 208, "pitch": 39, "duration": 42, "velocity": 87}, {"time": 208, "pitch": 55, "duration": 11, "velocity": 72}, {"time": 208, "pitch": 62, "duration": 11, "velocity": 81}, {"time": 214, "pitch": 46, "duration": 40, "velocity": 60}, {"time": 220, "pitch": 55, "duration": 11, "velocity": 64}, {"time": 220, "pitch": 62, "duration": 11, "velocity": 77}, {"time": 226, "pitch": 51, "duration": 8, "velocity": 50}, {"time": 232, "pitch": 55, "duration": 10, "velocity": 69}, {"time": 232, "pitch": 62, "duration": 10, "velocity": 83}, {"time": 238, "pitch": 51, "duration": 7, "velocity": 51}, {"time": 244, "pitch": 55, "duration": 7, "velocity": 81}, {"time": 244, "pitch": 62, "duration": 7, "velocity": 81}, {"time": 250, "pitch": 51, "duration": 6, "velocity": 48}, {"time": 256, "pitch": 44, "duration": 45, "velocity": 67}, {"time": 262, "pitch": 56, "duration": 9, "velocity": 57}, {"time": 268, "pitch": 58, "duration": 8, "velocity": 75}, {"time": 268, "pitch": 63, "duration": 7, "velocity": 79}, {"time": 274, "pitch": 56, "duration": 8, "velocity": 60}, {"time": 280, "pitch": 58, "duration": 11, "velocity": 74}, {"time": 280, "pitch": 63, "duration": 11, "velocity": 74}, {"time": 286, "pitch": 56, "duration": 7, "velocity": 57}, {"time": 292, "pitch": 58, "duration": 12, "velocity": 83}, {"time": 292, "pitch": 63, "duration": 12, "velocity": 86}, {"time": 298, "pitch": 56, "duration": 6, "velocity": 61}, {"time": 304, "pitch": 39, "duration": 43, "velocity": 90}, {"time": 310, "pitch": 46, "duration": 37, "velocity": 64}, {"time": 316, "pitch": 55, "duration": 8, "velocity": 79}, {"time": 316, "pitch": 62, "duration": 8, "velocity": 87}, {"time": 322, "pitch": 51, "duration": 7, "velocity": 50}, {"time": 328, "pitch": 55, "duration": 11, "velocity": 83}, {"time": 328, "pitch": 62, "duration": 11, "velocity": 85}, {"time": 334, "pitch": 51, "duration": 7, "velocity": 55}, {"time": 340, "pitch": 55, "duration": 7, "velocity": 79}, {"time": 340, "pitch": 62, "duration": 7, "velocity": 85}, {"time": 346, "pitch": 51, "duration": 5, "velocity": 49}, {"time": 352, "pitch": 44, "duration": 40, "velocity": 66}, {"time": 358, "pitch": 56, "duration": 10, "velocity": 52}, {"time": 364, "pitch": 58, "duration": 10, "velocity": 67}, {"time": 364, "pitch": 63, "duration": 10, "velocity": 74}, {"time": 370, "pitch": 56, "duration": 23, "velocity": 71}, {"time": 376, "pitch": 58, "duration": 19, "velocity": 72}, {"time": 376, "pitch": 63, "duration": 19, "velocity": 86}, {"time": 400, "pitch": 36, "duration": 18, "velocity": 75}, {"time": 400, "pitch": 51, "duration": 11, "velocity": 73}, {"time": 400, "pitch": 55, "duration": 11, "velocity": 77}, {"time": 406, "pitch": 43, "duration": 12, "velocity": 65}, {"time": 412, "pitch": 51, "duration": 7, "velocity": 71}, {"time": 412, "pitch": 55, "duration": 7, "velocity": 85}, {"time": 412, "pitch": 60, "duration": 6, "velocity": 74}, {"time": 424, "pitch": 43, "duration": 19, "velocity": 73}, {"time": 424, "pitch": 56, "duration": 7, "velocity": 73}, {"time": 424, "pitch": 60, "duration": 7, "velocity": 77}, {"time": 430, "pitch": 50, "duration": 18, "velocity": 73}, {"time": 433, "pitch": 62, "duration": 1, "velocity": 56}, {"time": 436, "pitch": 58, "duration": 7, "velocity": 86}, {"time": 436, "pitch": 62, "duration": 7, "velocity": 93}, {"time": 442, "pitch": 55, "duration": 5, "velocity": 42}, {"time": 448, "pitch": 44, "duration": 42, "velocity": 74}, {"time": 448, "pitch": 60, "duration": 11, "velocity": 72}, {"time": 448, "pitch": 63, "duration": 8, "velocity": 76}, {"time": 454, "pitch": 51, "duration": 33, "velocity": 65}, {"time": 457, "pitch": 63, "duration": 2, "velocity": 14}, {"time": 460, "pitch": 60, "duration": 7, "velocity": 72}, {"time": 460, "pitch": 63, "duration": 10, "velocity": 75}, {"time": 466, "pitch": 56, "duration": 8, "velocity": 54}, {"time": 472, "pitch": 60, "duration": 11, "velocity": 74}, {"time": 472, "pitch": 63, "duration": 11, "velocity": 76}, {"time": 478, "pitch": 56, "duration": 7, "velocity": 58}, {"time": 484, "pitch": 60, "duration": 6, "velocity": 83}, {"time": 484, "pitch": 63, "duration": 6, "velocity": 83}, {"time": 496, "pitch": 36, "duration": 19, "velocity": 75}, {"time": 496, "pitch": 51, "duration": 11, "velocity": 81}, {"time": 496, "pitch": 55, "duration": 11, "velocity": 79}, {"time": 502, "pitch": 43, "duration": 13, "velocity": 71}, {"time": 508, "pitch": 51, "duration": 6, "velocity": 81}, {"time": 508, "pitch": 55, "duration": 6, "velocity": 77}, {"time": 514, "pitch": 48, "duration": 6, "velocity": 54}, {"time": 520, "pitch": 43, "duration": 20, "velocity": 69}, {"time": 520, "pitch": 58, "duration": 12, "velocity": 87}, {"time": 520, "pitch": 62, "duration": 12, "velocity": 90}, {"time": 526, "pitch": 50, "duration": 18, "velocity": 66}, {"time": 532, "pitch": 58, "duration": 7, "velocity": 77}, {"time": 532, "pitch": 62, "duration": 7, "velocity": 87}, {"time": 538, "pitch": 55, "duration": 5, "velocity": 60}, {"time": 544, "pitch": 44, "duration": 42, "velocity": 72}, {"time": 544, "pitch": 60, "duration": 11, "velocity": 72}, {"time": 544, "pitch": 63, "duration": 11, "velocity": 90}, {"time": 550, "pitch": 51, "duration": 34, "velocity": 67}, {"time": 556, "pitch": 60, "duration": 11, "velocity": 68}, {"time": 556, "pitch": 63, "duration": 10, "velocity": 76}, {"time": 562, "pitch": 56, "duration": 7, "velocity": 54}, {"time": 568, "pitch": 60, "duration": 11, "velocity": 70}, {"time": 568, "pitch": 63, "duration": 3, "velocity": 74}, {"time": 571, "pitch": 55, "duration": 4, "velocity": 59}, {"time": 574, "pitch": 56, "duration": 2, "velocity": 85}, {"time": 577, "pitch": 63, "duration": 11, "velocity": 77}, {"time": 580, "pitch": 60, "duration": 8, "velocity": 74}, {"time": 580, "pitch": 63, "duration": 8, "velocity": 93}, {"time": 592, "pitch": 34, "duration": 37, "velocity": 83}, {"time": 592, "pitch": 46, "duration": 25, "velocity": 68}, {"time": 598, "pitch": 41, "duration": 31, "velocity": 70}, {"time": 598, "pitch": 53, "duration": 10, "velocity": 66}, {"time": 604, "pitch": 50, "duration": 11, "velocity": 66}, {"time": 604, "pitch": 58, "duration": 8, "velocity": 72}, {"time": 604, "pitch": 58, "duration": 8, "velocity": 81}, {"time": 604, "pitch": 63, "duration": 11, "velocity": 77}, {"time": 610, "pitch": 46, "duration": 7, "velocity": 55}, {"time": 610, "pitch": 53, "duration": 5, "velocity": 65}, {"time": 613, "pitch": 53, "duration": 2, "velocity": 43}, {"time": 613, "pitch": 58, "duration": 2, "velocity": 40}, {"time": 616, "pitch": 50, "duration": 11, "velocity": 65}, {"time": 616, "pitch": 53, "duration": 11, "velocity": 83}, {"time": 616, "pitch": 58, "duration": 10, "velocity": 76}, {"time": 616, "pitch": 58, "duration": 10, "velocity": 87}, {"time": 616, "pitch": 62, "duration": 11, "velocity": 85}, {"time": 622, "pitch": 46, "duration": 5, "velocity": 59}, {"time": 640, "pitch": 44, "duration": 20, "velocity": 75}, {"time": 640, "pitch": 60, "duration": 11, "velocity": 60}, {"time": 640, "pitch": 63, "duration": 12, "velocity": 74}, {"time": 646, "pitch": 51, "duration": 18, "velocity": 66}, {"time": 652, "pitch": 60, "duration": 7, "velocity": 64}, {"time": 652, "pitch": 63, "duration": 7, "velocity": 75}, {"time": 658, "pitch": 56, "duration": 6, "velocity": 52}, {"time": 664, "pitch": 46, "duration": 16, "velocity": 77}, {"time": 664, "pitch": 62, "duration": 11, "velocity": 72}, {"time": 664, "pitch": 65, "duration": 11, "velocity": 75}, {"time": 670, "pitch": 53, "duration": 9, "velocity": 72}, {"time": 676, "pitch": 62, "duration": 6, "velocity": 68}, {"time": 676, "pitch": 65, "duration": 6, "velocity": 75}, {"time": 676, "pitch": 70, "duration": 6, "velocity": 76}, {"time": 688, "pitch": 43, "duration": 19, "velocity": 76}, {"time": 688, "pitch": 58, "duration": 12, "velocity": 66}, {"time": 688, "pitch": 62, "duration": 12, "velocity": 75}, {"time": 694, "pitch": 50, "duration": 13, "velocity": 70}, {"time": 700, "pitch": 58, "duration": 7, "velocity": 60}, {"time": 700, "pitch": 62, "duration": 7, "velocity": 71}, {"time": 700, "pitch": 67, "duration": 6, "velocity": 68}, {"time": 706, "pitch": 55, "duration": 6, "velocity": 59}, {"time": 712, "pitch": 48, "duration": 18, "velocity": 68}, {"time": 712, "pitch": 63, "duration": 11, "velocity": 74}, {"time": 712, "pitch": 67, "duration": 11, "velocity": 77}, {"time": 718, "pitch": 55, "duration": 13, "velocity": 58}, {"time": 724, "pitch": 63, "duration": 7, "velocity": 68}, {"time": 724, "pitch": 67, "duration": 7, "velocity": 77}, {"time": 730, "pitch": 60, "duration": 6, "velocity": 58}, {"time": 736, "pitch": 53, "duration": 17, "velocity": 81}, {"time": 736, "pitch": 68, "duration": 12, "velocity": 81}, {"time": 736, "pitch": 72, "duration": 12, "velocity": 74}, {"time": 742, "pitch": 60, "duration": 9, "velocity": 60}, {"time": 748, "pitch": 68, "duration": 6, "velocity": 74}, {"time": 748, "pitch": 72, "duration": 6, "velocity": 75}, {"time": 760, "pitch": 46, "duration": 19, "velocity": 76}, {"time": 760, "pitch": 62, "duration": 12, "velocity": 74}, {"time": 760, "pitch": 65, "duration": 11, "velocity": 76}, {"time": 766, "pitch": 53, "duration": 13, "velocity": 74}, {"time": 772, "pitch": 62, "duration": 7, "velocity": 68}, {"time": 772, "pitch": 65, "duration": 7, "velocity": 74}, {"time": 772, "pitch": 70, "duration": 7, "velocity": 71}, {"time": 778, "pitch": 58, "duration": 6, "velocity": 52}, {"time": 784, "pitch": 51, "duration": 42, "velocity": 93}, {"time": 784, "pitch": 67, "duration": 11, "velocity": 67}, {"time": 784, "pitch": 70, "duration": 11, "velocity": 70}, {"time": 784, "pitch": 75, "duration": 3, "velocity": 70}, {"time": 790, "pitch": 58, "duration": 35, "velocity": 67}, {"time": 796, "pitch": 67, "duration": 11, "velocity": 73}, {"time": 796, "pitch": 70, "duration": 11, "velocity": 83}, {"time": 796, "pitch": 75, "duration": 11, "velocity": 75}, {"time": 802, "pitch": 63, "duration": 21, "velocity": 50}, {"time": 808, "pitch": 67, "duration": 11, "velocity": 67}, {"time": 808, "pitch": 70, "duration": 10, "velocity": 79}, {"time": 808, "pitch": 75, "duration": 10, "velocity": 71}, {"time": 820, "pitch": 67, "duration": 6, "velocity": 70}, {"time": 820, "pitch": 70, "duration": 6, "velocity": 81}, {"time": 820, "pitch": 73, "duration": 6, "velocity": 74}, {"time": 820, "pitch": 75, "duration": 4, "velocity": 54}, {"time": 832, "pitch": 44, "duration": 22, "velocity": 73}, {"time": 832, "pitch": 60, "duration": 11, "velocity": 76}, {"time": 832, "pitch": 63, "duration": 11, "velocity": 79}, {"time": 838, "pitch": 51, "duration": 18, "velocity": 77}, {"time": 841, "pitch": 56, "duration": 6, "velocity": 9}, {"time": 844, "pitch": 60, "duration": 7, "velocity": 79}, {"time": 844, "pitch": 63, "duration": 7, "velocity": 85}, {"time": 850, "pitch": 56, "duration": 5, "velocity": 58}, {"time": 853, "pitch": 62, "duration": 1, "velocity": 35}, {"time": 856, "pitch": 46, "duration": 21, "velocity": 75}, {"time": 856, "pitch": 62, "duration": 11, "velocity": 75}, {"time": 856, "pitch": 65, "duration": 11, "velocity": 74}, {"time": 862, "pitch": 53, "duration": 13, "velocity": 69}, {"time": 868, "pitch": 62, "duration": 7, "velocity": 90}, {"time": 868, "pitch": 65, "duration": 6, "velocity": 90}, {"time": 874, "pitch": 58, "duration": 2, "velocity": 58}, {"time": 880, "pitch": 43, "duration": 19, "velocity": 76}, {"time": 880, "pitch": 58, "duration": 8, "velocity": 77}, {"time": 880, "pitch": 62, "duration": 8, "velocity": 77}, {"time": 886, "pitch": 50, "duration": 13, "velocity": 64}, {"time": 886, "pitch": 55, "duration": 7, "velocity": 60}, {"time": 892, "pitch": 58, "duration": 7, "velocity": 62}, {"time": 892, "pitch": 62, "duration": 7, "velocity": 62}, {"time": 898, "pitch": 55, "duration": 6, "velocity": 61}, {"time": 904, "pitch": 48, "duration": 18, "velocity": 75}, {"time": 904, "pitch": 63, "duration": 10, "velocity": 79}, {"time": 904, "pitch": 67, "duration": 11, "velocity": 77}, {"time": 910, "pitch": 55, "duration": 13, "velocity": 59}, {"time": 916, "pitch": 63, "duration": 7, "velocity": 87}, {"time": 916, "pitch": 67, "duration": 7, "velocity": 81}, {"time": 922, "pitch": 60, "duration": 6, "velocity": 58}, {"time": 928, "pitch": 53, "duration": 20, "velocity": 81}, {"time": 928, "pitch": 68, "duration": 11, "velocity": 77}, {"time": 928, "pitch": 72, "duration": 11, "velocity": 74}, {"time": 934, "pitch": 60, "duration": 13, "velocity": 62}, {"time": 940, "pitch": 68, "duration": 7, "velocity": 87}, {"time": 940, "pitch": 72, "duration": 7, "velocity": 79}, {"time": 946, "pitch": 65, "duration": 2, "velocity": 50}, {"time": 952, "pitch": 44, "duration": 19, "velocity": 74}, {"time": 952, "pitch": 60, "duration": 11, "velocity": 65}, {"time": 952, "pitch": 63, "duration": 11, "velocity": 74}, {"time": 952, "pitch": 68, "duration": 11, "velocity": 81}, {"time": 958, "pitch": 51, "duration": 17, "velocity": 67}, {"time": 964, "pitch": 60, "duration": 7, "velocity": 69}, {"time": 964, "pitch": 63, "duration": 7, "velocity": 90}, {"time": 964, "pitch": 68, "duration": 7, "velocity": 95}, {"time": 970, "pitch": 56, "duration": 5, "velocity": 60}, {"time": 976, "pitch": 46, "duration": 44, "velocity": 81}, {"time": 976, "pitch": 62, "duration": 12, "velocity": 67}, {"time": 976, "pitch": 65, "duration": 12, "velocity": 77}, {"time": 976, "pitch": 70, "duration": 11, "velocity": 75}, {"time": 982, "pitch": 53, "duration": 36, "velocity": 74}, {"time": 988, "pitch": 62, "duration": 8, "velocity": 67}, {"time": 988, "pitch": 65, "duration": 7, "velocity": 85}, {"time": 988, "pitch": 70, "duration": 7, "velocity": 93}, {"time": 994, "pitch": 58, "duration": 6, "velocity": 60}, {"time": 997, "pitch": 62, "duration": 3, "velocity": 47}, {"time": 997, "pitch": 65, "duration": 2, "velocity": 40}, {"time": 997, "pitch": 70, "duration": 1, "velocity": 13}, {"time": 1000, "pitch": 50, "duration": 19, "velocity": 65}, {"time": 1000, "pitch": 62, "duration": 8, "velocity": 74}, {"time": 1000, "pitch": 65, "duration": 8, "velocity": 90}, {"time": 1000, "pitch": 70, "duration": 8, "velocity": 95}, {"time": 1006, "pitch": 58, "duration": 5, "velocity": 54}, {"time": 1012, "pitch": 62, "duration": 7, "velocity": 71}, {"time": 1012, "pitch": 65, "duration": 7, "velocity": 81}, {"time": 1012, "pitch": 70, "duration": 7, "velocity": 85}, {"time": 1015, "pitch": 58, "duration": 2, "velocity": 54}, {"time": 1024, "pitch": 44, "duration": 20, "velocity": 90}, {"time": 1024, "pitch": 60, "duration": 12, "velocity": 77}, {"time": 1024, "pitch": 63, "duration": 12, "velocity": 85}, {"time": 1024, "pitch": 68, "duration": 12, "velocity": 95}, {"time": 1030, "pitch": 51, "duration": 18, "velocity": 72}, {"time": 1036, "pitch": 60, "duration": 7, "velocity": 81}, {"time": 1036, "pitch": 63, "duration": 7, "velocity": 87}, {"time": 1036, "pitch": 68, "duration": 7, "velocity": 90}, {"time": 1042, "pitch": 56, "duration": 5, "velocity": 53}, {"time": 1048, "pitch": 46, "duration": 21, "velocity": 77}, {"time": 1048, "pitch": 62, "duration": 11, "velocity": 73}, {"time": 1048, "pitch": 65, "duration": 11, "velocity": 85}, {"time": 1048, "pitch": 70, "duration": 11, "velocity": 93}, {"time": 1054, "pitch": 53, "duration": 13, "velocity": 79}, {"time": 1060, "pitch": 62, "duration": 8, "velocity": 77}, {"time": 1060, "pitch": 65, "duration": 7, "velocity": 86}, {"time": 1060, "pitch": 70, "duration": 7, "velocity": 100}, {"time": 1066, "pitch": 58, "duration": 2, "velocity": 54}, {"time": 1072, "pitch": 43, "duration": 19, "velocity": 75}, {"time": 1072, "pitch": 58, "duration": 12, "velocity": 77}, {"time": 1072, "pitch": 62, "duration": 12, "velocity": 86}, {"time": 1072, "pitch": 67, "duration": 11, "velocity": 90}, {"time": 1078, "pitch": 50, "duration": 13, "velocity": 79}, {"time": 1084, "pitch": 58, "duration": 7, "velocity": 74}, {"time": 1084, "pitch": 62, "duration": 7, "velocity": 86}, {"time": 1084, "pitch": 67, "duration": 7, "velocity": 93}, {"time": 1090, "pitch": 55, "duration": 6, "velocity": 58}, {"time": 1096, "pitch": 48, "duration": 19, "velocity": 79}, {"time": 1096, "pitch": 63, "duration": 10, "velocity": 79}, {"time": 1096, "pitch": 67, "duration": 11, "velocity": 81}, {"time": 1099, "pitch": 55, "duration": 17, "velocity": 64}, {"time": 1102, "pitch": 60, "duration": 4, "velocity": 72}, {"time": 1105, "pitch": 51, "duration": 10, "velocity": 86}, {"time": 1108, "pitch": 63, "duration": 1, "velocity": 62}, {"time": 1108, "pitch": 67, "duration": 4, "velocity": 83}, {"time": 1108, "pitch": 72, "duration": 8, "velocity": 87}, {"time": 1111, "pitch": 60, "duration": 7, "velocity": 64}, {"time": 1114, "pitch": 63, "duration": 6, "velocity": 85}, {"time": 1117, "pitch": 67, "duration": 4, "velocity": 76}, {"time": 1120, "pitch": 53, "duration": 20, "velocity": 95}, {"time": 1126, "pitch": 60, "duration": 13, "velocity": 71}, {"time": 1132, "pitch": 68, "duration": 8, "velocity": 87}, {"time": 1132, "pitch": 72, "duration": 7, "velocity": 76}, {"time": 1138, "pitch": 65, "duration": 2, "velocity": 60}, {"time": 1144, "pitch": 46, "duration": 19, "velocity": 85}, {"time": 1144, "pitch": 62, "duration": 8, "velocity": 67}, {"time": 1144, "pitch": 65, "duration": 8, "velocity": 74}, {"time": 1144, "pitch": 70, "duration": 8, "velocity": 81}, {"time": 1150, "pitch": 53, "duration": 13, "velocity": 72}, {"time": 1153, "pitch": 62, "duration": 3, "velocity": 40}, {"time": 1153, "pitch": 65, "duration": 2, "velocity": 40}, {"time": 1153, "pitch": 70, "duration": 3, "velocity": 51}, {"time": 1156, "pitch": 62, "duration": 7, "velocity": 74}, {"time": 1156, "pitch": 65, "duration": 7, "velocity": 83}, {"time": 1156, "pitch": 70, "duration": 7, "velocity": 93}, {"time": 1162, "pitch": 58, "duration": 6, "velocity": 57}, {"time": 1168, "pitch": 51, "duration": 46, "velocity": 93}, {"time": 1168, "pitch": 67, "duration": 11, "velocity": 74}, {"time": 1168, "pitch": 70, "duration": 12, "velocity": 83}, {"time": 1168, "pitch": 75, "duration": 11, "velocity": 74}, {"time": 1174, "pitch": 58, "duration": 38, "velocity": 62}, {"time": 1180, "pitch": 67, "duration": 11, "velocity": 70}, {"time": 1180, "pitch": 70, "duration": 11, "velocity": 77}, {"time": 1180, "pitch": 75, "duration": 10, "velocity": 76}, {"time": 1186, "pitch": 63, "duration": 26, "velocity": 58}, {"time": 1192, "pitch": 67, "duration": 11, "velocity": 81}, {"time": 1192, "pitch": 70, "duration": 11, "velocity": 95}, {"time": 1192, "pitch": 73, "duration": 11, "velocity": 98}, {"time": 1192, "pitch": 75, "duration": 9, "velocity": 77}, {"time": 1204, "pitch": 67, "duration": 10, "velocity": 90}, {"time": 1204, "pitch": 70, "duration": 9, "velocity": 98}, {"time": 1204, "pitch": 73, "duration": 9, "velocity": 104}, {"time": 1216, "pitch": 44, "duration": 19, "velocity": 75}, {"time": 1216, "pitch": 60, "duration": 10, "velocity": 65}, {"time": 1216, "pitch": 63, "duration": 10, "velocity": 70}, {"time": 1216, "pitch": 68, "duration": 10, "velocity": 72}, {"time": 1222, "pitch": 51, "duration": 18, "velocity": 75}, {"time": 1228, "pitch": 60, "duration": 7, "velocity": 81}, {"time": 1228, "pitch": 63, "duration": 7, "velocity": 86}, {"time": 1228, "pitch": 68, "duration": 7, "velocity": 93}, {"time": 1234, "pitch": 56, "duration": 5, "velocity": 59}, {"time": 1240, "pitch": 44, "duration": 19, "velocity": 79}, {"time": 1240, "pitch": 62, "duration": 12, "velocity": 72}, {"time": 1240, "pitch": 65, "duration": 12, "velocity": 81}, {"time": 1240, "pitch": 70, "duration": 12, "velocity": 86}, {"time": 1246, "pitch": 51, "duration": 12, "velocity": 79}, {"time": 1252, "pitch": 62, "duration": 7, "velocity": 67}, {"time": 1252, "pitch": 65, "duration": 7, "velocity": 74}, {"time": 1252, "pitch": 70, "duration": 7, "velocity": 85}, {"time": 1264, "pitch": 43, "duration": 19, "velocity": 73}, {"time": 1264, "pitch": 58, "duration": 11, "velocity": 67}, {"time": 1264, "pitch": 62, "duration": 11, "velocity": 83}, {"time": 1264, "pitch": 67, "duration": 11, "velocity": 86}, {"time": 1270, "pitch": 50, "duration": 14, "velocity": 70}, {"time": 1276, "pitch": 58, "duration": 7, "velocity": 70}, {"time": 1276, "pitch": 62, "duration": 7, "velocity": 81}, {"time": 1276, "pitch": 67, "duration": 7, "velocity": 81}, {"time": 1282, "pitch": 55, "duration": 5, "velocity": 55}, {"time": 1288, "pitch": 48, "duration": 21, "velocity": 74}, {"time": 1288, "pitch": 63, "duration": 11, "velocity": 73}, {"time": 1288, "pitch": 67, "duration": 11, "velocity": 81}, {"time": 1288, "pitch": 72, "duration": 11, "velocity": 79}, {"time": 1294, "pitch": 55, "duration": 18, "velocity": 63}, {"time": 1300, "pitch": 63, "duration": 7, "velocity": 83}, {"time": 1300, "pitch": 67, "duration": 7, "velocity": 86}, {"time": 1300, "pitch": 72, "duration": 7, "velocity": 85}, {"time": 1306, "pitch": 60, "duration": 4, "velocity": 52}, {"time": 1312, "pitch": 41, "duration": 19, "velocity": 59}, {"time": 1312, "pitch": 56, "duration": 11, "velocity": 63}, {"time": 1312, "pitch": 60, "duration": 12, "velocity": 67}, {"time": 1312, "pitch": 65, "duration": 11, "velocity": 76}, {"time": 1318, "pitch": 48, "duration": 13, "velocity": 61}, {"time": 1324, "pitch": 56, "duration": 9, "velocity": 69}, {"time": 1324, "pitch": 60, "duration": 9, "velocity": 73}, {"time": 1324, "pitch": 65, "duration": 9, "velocity": 74}, {"time": 1330, "pitch": 53, "duration": 7, "velocity": 58}, {"time": 1336, "pitch": 46, "duration": 19, "velocity": 68}, {"time": 1336, "pitch": 62, "duration": 12, "velocity": 66}, {"time": 1336, "pitch": 65, "duration": 12, "velocity": 70}, {"time": 1336, "pitch": 70, "duration": 12, "velocity": 75}, {"time": 1342, "pitch": 53, "duration": 14, "velocity": 70}, {"time": 1348, "pitch": 62, "duration": 7, "velocity": 67}, {"time": 1348, "pitch": 65, "duration": 7, "velocity": 74}, {"time": 1348, "pitch": 70, "duration": 8, "velocity": 76}, {"time": 1354, "pitch": 58, "duration": 6, "velocity": 52}, {"time": 1360, "pitch": 51, "duration": 8, "velocity": 81}, {"time": 1360, "pitch": 67, "duration": 7, "velocity": 66}, {"time": 1360, "pitch": 70, "duration": 11, "velocity": 79}, {"time": 1360, "pitch": 75, "duration": 11, "velocity": 71}, {"time": 1372, "pitch": 50, "duration": 7, "velocity": 85}, {"time": 1372, "pitch": 65, "duration": 7, "velocity": 60}, {"time": 1372, "pitch": 70, "duration": 8, "velocity": 73}, {"time": 1372, "pitch": 75, "duration": 7, "velocity": 63}, {"time": 1384, "pitch": 51, "duration": 24, "velocity": 90}, {"time": 1384, "pitch": 67, "duration": 24, "velocity": 68}, {"time": 1384, "pitch": 70, "duration": 24, "velocity": 76}, {"time": 1384, "pitch": 75, "duration": 24, "velocity": 68}, {"time": 1408, "pitch": 44, "duration": 26, "velocity": 69}, {"time": 1408, "pitch": 51, "duration": 10, "velocity": 57}, {"time": 1408, "pitch": 62, "duration": 10, "velocity": 65}, {"time": 1420, "pitch": 51, "duration": 9, "velocity": 58}, {"time": 1420, "pitch": 62, "duration": 10, "velocity": 68}, {"time": 1432, "pitch": 55, "duration": 10, "velocity": 69}, {"time": 1432, "pitch": 62, "duration": 10, "velocity": 83}, {"time": 1438, "pitch": 51, "duration": 7, "velocity": 51}, {"time": 1444, "pitch": 55, "duration": 7, "velocity": 81}, {"time": 1444, "pitch": 62, "duration": 7, "velocity": 81}, {"time": 1450, "pitch": 51, "duration": 6, "velocity": 48}, {"time": 1456, "pitch": 44, "duration": 45, "velocity": 67}, {"time": 1462, "pitch": 56, "duration": 9, "velocity": 57}, {"time": 1468, "pitch": 58, "duration": 8, "velocity": 75}, {"time": 1468, "pitch": 63, "duration": 7, "velocity": 79}, {"time": 1474, "pitch": 56, "duration": 8, "velocity": 60}, {"time": 1480, "pitch": 58, "duration": 11, "velocity": 74}, {"time": 1480, "pitch": 63, "duration": 11, "velocity": 74}, {"time": 1486, "pitch": 56, "duration": 7, "velocity": 57}, {"time": 1492, "pitch": 58, "duration": 8, "velocity": 83}, {"time": 1492, "pitch": 63, "duration": 8, "velocity": 86}, {"time": 1498, "pitch": 56, "duration": 2, "velocity": 61}, {"time": 1504, "pitch": 39, "duration": 43, "velocity": 90}, {"time": 1510, "pitch": 46, "duration": 37, "velocity": 64}, {"time": 1516, "pitch": 55, "duration": 8, "velocity": 79}, {"time": 1516, "pitch": 62, "duration": 8, "velocity": 87}, {"time": 1522, "pitch": 51, "duration": 7, "velocity": 50}, {"time": 1528, "pitch": 55, "duration": 11, "velocity": 83}, {"time": 1528, "pitch": 62, "duration": 11, "velocity": 85}, {"time": 1534, "pitch": 51, "duration": 7, "velocity": 55}, {"time": 1540, "pitch": 55, "duration": 7, "velocity": 79}, {"time": 1540, "pitch": 62, "duration": 7, "velocity": 85}, {"time": 1546, "pitch": 51, "duration": 5, "velocity": 49}, {"time": 1552, "pitch": 44, "duration": 40, "velocity": 66}, {"time": 1558, "pitch": 56, "duration": 10, "velocity": 52}, {"time": 1564, "pitch": 58, "duration": 10, "velocity": 67}, {"time": 1564, "pitch": 63, "duration": 10, "velocity": 74}, {"time": 1570, "pitch": 56, "duration": 23, "velocity": 71}, {"time": 1576, "pitch": 58, "duration": 19, "velocity": 72}, {"time": 1576, "pitch": 63, "duration": 19, "velocity": 86}, {"time": 1600, "pitch": 36, "duration": 18, "velocity": 75}, {"time": 1600, "pitch": 51, "duration": 11, "velocity": 73}, {"time": 1600, "pitch": 55, "duration": 11, "velocity": 77}, {"time": 1606, "pitch": 43, "duration": 12, "velocity": 65}, {"time": 1612, "pitch": 51, "duration": 7, "velocity": 71}, {"time": 1612, "pitch": 55, "duration": 7, "velocity": 85}, {"time": 1612, "pitch": 60, "duration": 6, "velocity": 74}, {"time": 1624, "pitch": 43, "duration": 19, "velocity": 73}, {"time": 1624, "pitch": 56, "duration": 7, "velocity": 73}, {"time": 1624, "pitch": 60, "duration": 7, "velocity": 77}, {"time": 1630, "pitch": 50, "duration": 18, "velocity": 73}, {"time": 1633, "pitch": 62, "duration": 1, "velocity": 56}, {"time": 1636, "pitch": 58, "duration": 7, "velocity": 86}, {"time": 1636, "pitch": 62, "duration": 7, "velocity": 93}, {"time": 1642, "pitch": 55, "duration": 5, "velocity": 42}, {"time": 1648, "pitch": 44, "duration": 42, "velocity": 74}, {"time": 1648, "pitch": 60, "duration": 11, "velocity": 72}, {"time": 1648, "pitch": 63, "duration": 8, "velocity": 76}, {"time": 1654, "pitch": 51, "duration": 33, "velocity": 65}, {"time": 1657, "pitch": 63, "duration": 2, "velocity": 14}, {"time": 1660, "pitch": 60, "duration": 7, "velocity": 72}, {"time": 1660, "pitch": 63, "duration": 10, "velocity": 75}, {"time": 1666, "pitch": 56, "duration": 8, "velocity": 54}, {"time": 1672, "pitch": 60, "duration": 11, "velocity": 74}, {"time": 1672, "pitch": 63, "duration": 11, "velocity": 76}, {"time": 1678, "pitch": 56, "duration": 7, "velocity": 58}, {"time": 1684, "pitch": 60, "duration": 6, "velocity": 83}, {"time": 1684, "pitch": 63, "duration": 6, "velocity": 83}, {"time": 1696, "pitch": 36, "duration": 19, "velocity": 75}, {"time": 1696, "pitch": 51, "duration": 11, "velocity": 81}, {"time": 1696, "pitch": 55, "duration": 11, "velocity": 79}, {"time": 1702, "pitch": 43, "duration": 13, "velocity": 71}, {"time": 1708, "pitch": 51, "duration": 6, "velocity": 81}, {"time": 1708, "pitch": 55, "duration": 6, "velocity": 77}, {"time": 1714, "pitch": 48, "duration": 6, "velocity": 54}, {"time": 1720, "pitch": 43, "duration": 20, "velocity": 69}, {"time": 1720, "pitch": 58, "duration": 12, "velocity": 87}, {"time": 1720, "pitch": 62, "duration": 12, "velocity": 90}, {"time": 1726, "pitch": 50, "duration": 18, "velocity": 66}, {"time": 1732, "pitch": 58, "duration": 7, "velocity": 77}, {"time": 1732, "pitch": 62, "duration": 7, "velocity": 87}, {"time": 1738, "pitch": 55, "duration": 5, "velocity": 60}, {"time": 1744, "pitch": 44, "duration": 42, "velocity": 72}, {"time": 1744, "pitch": 60, "duration": 11, "velocity": 72}, {"time": 1744, "pitch": 63, "duration": 11, "velocity": 90}, {"time": 1750, "pitch": 51, "duration": 34, "velocity": 67}, {"time": 1756, "pitch": 60, "duration": 11, "velocity": 68}, {"time": 1756, "pitch": 63, "duration": 10, "velocity": 76}, {"time": 1762, "pitch": 56, "duration": 7, "velocity": 54}, {"time": 1768, "pitch": 60, "duration": 11, "velocity": 70}, {"time": 1768, "pitch": 63, "duration": 3, "velocity": 74}, {"time": 1771, "pitch": 55, "duration": 4, "velocity": 59}, {"time": 1774, "pitch": 56, "duration": 2, "velocity": 85}, {"time": 1777, "pitch": 63, "duration": 11, "velocity": 77}, {"time": 1780, "pitch": 60, "duration": 8, "velocity": 74}, {"time": 1780, "pitch": 63, "duration": 8, "velocity": 93}, {"time": 1792, "pitch": 34, "duration": 37, "velocity": 83}, {"time": 1792, "pitch": 46, "duration": 25, "velocity": 68}, {"time": 1798, "pitch": 41, "duration": 31, "velocity": 70}, {"time": 1798, "pitch": 53, "duration": 10, "velocity": 66}, {"time": 1804, "pitch": 50, "duration": 11, "velocity": 66}, {"time": 1804, "pitch": 58, "duration": 8, "velocity": 72}, {"time": 1804, "pitch": 58, "duration": 8, "velocity": 81}, {"time": 1804, "pitch": 63, "duration": 11, "velocity": 77}, {"time": 1810, "pitch": 46, "duration": 7, "velocity": 55}, {"time": 1810, "pitch": 53, "duration": 5, "velocity": 65}, {"time": 1813, "pitch": 53, "duration": 2, "velocity": 43}, {"time": 1813, "pitch": 58, "duration": 2, "velocity": 40}, {"time": 1816, "pitch": 50, "duration": 11, "velocity": 65}, {"time": 1816, "pitch": 53, "duration": 11, "velocity": 83}, {"time": 1816, "pitch": 58, "duration": 10, "velocity": 76}, {"time": 1816, "pitch": 58, "duration": 10, "velocity": 87}, {"time": 1816, "pitch": 62, "duration": 11, "velocity": 85}, {"time": 1822, "pitch": 46, "duration": 5, "velocity": 59}, {"time": 1840, "pitch": 44, "duration": 20, "velocity": 75}, {"time": 1840, "pitch": 60, "duration": 11, "velocity": 60}, {"time": 1840, "pitch": 63, "duration": 12, "velocity": 74}, {"time": 1846, "pitch": 51, "duration": 18, "velocity": 66}, {"time": 1852, "pitch": 60, "duration": 7, "velocity": 64}, {"time": 1852, "pitch": 63, "duration": 7, "velocity": 75}, {"time": 1858, "pitch": 56, "duration": 6, "velocity": 52}, {"time": 1864, "pitch": 46, "duration": 16, "velocity": 77}, {"time": 1864, "pitch": 62, "duration": 11, "velocity": 72}, {"time": 1864, "pitch": 65, "duration": 11, "velocity": 75}, {"time": 1870, "pitch": 53, "duration": 9, "velocity": 72}, {"time": 1876, "pitch": 62, "duration": 6, "velocity": 68}, {"time": 1876, "pitch": 65, "duration": 6, "velocity": 75}, {"time": 1876, "pitch": 70, "duration": 6, "velocity": 76}, {"time": 1888, "pitch": 43, "duration": 19, "velocity": 76}, {"time": 1888, "pitch": 58, "duration": 12, "velocity": 66}, {"time": 1888, "pitch": 62, "duration": 12, "velocity": 75}, {"time": 1894, "pitch": 50, "duration": 13, "velocity": 70}, {"time": 1900, "pitch": 58, "duration": 7, "velocity": 60}, {"time": 1900, "pitch": 62, "duration": 7, "velocity": 71}, {"time": 1900, "pitch": 67, "duration": 6, "velocity": 68}, {"time": 1906, "pitch": 55, "duration": 6, "velocity": 59}, {"time": 1912, "pitch": 48, "duration": 18, "velocity": 68}, {"time": 1912, "pitch": 63, "duration": 11, "velocity": 74}, {"time": 1912, "pitch": 67, "duration": 11, "velocity": 77}, {"time": 1918, "pitch": 55, "duration": 13, "velocity": 58}, {"time": 1924, "pitch": 63, "duration": 7, "velocity": 68}, {"time": 1924, "pitch": 67, "duration": 7, "velocity": 77}, {"time": 1930, "pitch": 60, "duration": 6, "velocity": 58}, {"time": 1936, "pitch": 53, "duration": 17, "velocity": 81}, {"time": 1936, "pitch": 68, "duration": 12, "velocity": 81}, {"time": 1936, "pitch": 72, "duration": 12, "velocity": 74}, {"time": 1942, "pitch": 60, "duration": 9, "velocity": 60}, {"time": 1948, "pitch": 68, "duration": 6, "velocity": 74}, {"time": 1948, "pitch": 72, "duration": 6, "velocity": 75}, {"time": 1960, "pitch": 46, "duration": 19, "velocity": 76}, {"time": 1960, "pitch": 62, "duration": 12, "velocity": 74}, {"time": 1960, "pitch": 65, "duration": 11, "velocity": 76}, {"time": 1966, "pitch": 53, "duration": 13, "velocity": 74}, {"time": 1972, "pitch": 62, "duration": 7, "velocity": 68}, {"time": 1972, "pitch": 65, "duration": 7, "velocity": 74}, {"time": 1972, "pitch": 70, "duration": 7, "velocity": 71}, {"time": 1978, "pitch": 58, "duration": 6, "velocity": 52}, {"time": 1984, "pitch": 51, "duration": 42, "velocity": 93}, {"time": 1984, "pitch": 67, "duration": 11, "velocity": 67}, {"time": 1984, "pitch": 70, "duration": 11, "velocity": 70}, {"time": 1984, "pitch": 75, "duration": 3, "velocity": 70}, {"time": 1990, "pitch": 58, "duration": 35, "velocity": 67}, {"time": 1996, "pitch": 67, "duration": 11, "velocity": 73}, {"time": 1996, "pitch": 70, "duration": 11, "velocity": 83}, {"time": 1996, "pitch": 75, "duration": 11, "velocity": 75}, {"time": 2002, "pitch": 63, "duration": 21, "velocity": 50}, {"time": 2008, "pitch": 67, "duration": 11, "velocity": 67}, {"time": 2008, "pitch": 70, "duration": 10, "velocity": 79}, {"time": 2008, "pitch": 75, "duration": 10, "velocity": 71}, {"time": 2020, "pitch": 67, "duration": 6, "velocity": 70}, {"time": 2020, "pitch": 70, "duration": 6, "velocity": 81}, {"time": 2020, "pitch": 73, "duration": 6, "velocity": 74}, {"time": 2020, "pitch": 75, "duration": 4, "velocity": 54}, {"time": 2032, "pitch": 44, "duration": 22, "velocity": 73}, {"time": 2032, "pitch": 60, "duration": 11, "velocity": 76}, {"time": 2032, "pitch": 63, "duration": 11, "velocity": 79}, {"time": 2038, "pitch": 51, "duration": 18, "velocity": 77}, {"time": 2041, "pitch": 56, "duration": 6, "velocity": 9}, {"time": 2044, "pitch": 60, "duration": 7, "velocity": 79}, {"time": 2044, "pitch": 63, "duration": 7, "velocity": 85}, {"time": 2050, "pitch": 56, "duration": 5, "velocity": 58}, {"time": 2053, "pitch": 62, "duration": 1, "velocity": 35}, {"time": 2056, "pitch": 46, "duration": 21, "velocity": 75}, {"time": 2056, "pitch": 62, "duration": 11, "velocity": 75}, {"time": 2056, "pitch": 65, "duration": 11, "velocity": 74}, {"time": 2062, "pitch": 53, "duration": 13, "velocity": 69}, {"time": 2068, "pitch": 62, "duration": 7, "velocity": 90}, {"time": 2068, "pitch": 65, "duration": 6, "velocity": 90}, {"time": 2074, "pitch": 58, "duration": 2, "velocity": 58}, {"time": 2080, "pitch": 43, "duration": 19, "velocity": 76}, {"time": 2080, "pitch": 58, "duration": 8, "velocity": 77}, {"time": 2080, "pitch": 62, "duration": 8, "velocity": 77}, {"time": 2086, "pitch": 50, "duration": 13, "velocity": 64}, {"time": 2086, "pitch": 55, "duration": 7, "velocity": 60}, {"time": 2092, "pitch": 58, "duration": 7, "velocity": 62}, {"time": 2092, "pitch": 62, "duration": 7, "velocity": 62}, {"time": 2098, "pitch": 55, "duration": 6, "velocity": 61}, {"time": 2104, "pitch": 48, "duration": 18, "velocity": 75}, {"time": 2104, "pitch": 63, "duration": 10, "velocity": 79}, {"time": 2104, "pitch": 67, "duration": 11, "velocity": 77}, {"time": 2110, "pitch": 55, "duration": 13, "velocity": 59}, {"time": 2116, "pitch": 63, "duration": 7, "velocity": 87}, {"time": 2116, "pitch": 67, "duration": 7, "velocity": 81}, {"time": 2122, "pitch": 60, "duration": 6, "velocity": 58}, {"time": 2128, "pitch": 53, "duration": 20, "velocity": 81}, {"time": 2128, "pitch": 68, "duration": 11, "velocity": 77}, {"time": 2128, "pitch": 72, "duration": 11, "velocity": 74}, {"time": 2134, "pitch": 60, "duration": 13, "velocity": 62}, {"time": 2140, "pitch": 68, "duration": 7, "velocity": 87}, {"time": 2140, "pitch": 72, "duration": 7, "velocity": 79}, {"time": 2146, "pitch": 65, "duration": 2, "velocity": 50}, {"time": 2152, "pitch": 44, "duration": 19, "velocity": 74}, {"time": 2152, "pitch": 60, "duration": 11, "velocity": 65}, {"time": 2152, "pitch": 63, "duration": 11, "velocity": 74}, {"time": 2152, "pitch": 68, "duration": 11, "velocity": 81}, {"time": 2158, "pitch": 51, "duration": 17, "velocity": 67}, {"time": 2164, "pitch": 60, "duration": 7, "velocity": 69}, {"time": 2164, "pitch": 63, "duration": 7, "velocity": 90}, {"time": 2164, "pitch": 68, "duration": 7, "velocity": 95}, {"time": 2170, "pitch": 56, "duration": 5, "velocity": 60}, {"time": 2173, "pitch": 62, "duration": 2, "velocity": 57}, {"time": 2173, "pitch": 65, "duration": 1, "velocity": 42}, {"time": 2176, "pitch": 46, "duration": 44, "velocity": 81}, {"time": 2176, "pitch": 62, "duration": 12, "velocity": 67}, {"time": 2176, "pitch": 65, "duration": 12, "velocity": 77}, {"time": 2176, "pitch": 70, "duration": 11, "velocity": 75}, {"time": 2182, "pitch": 53, "duration": 36, "velocity": 74}, {"time": 2188, "pitch": 62, "duration": 8, "velocity": 67}, {"time": 2188, "pitch": 65, "duration": 7, "velocity": 85}, {"time": 2188, "pitch": 70, "duration": 7, "velocity": 93}, {"time": 2194, "pitch": 58, "duration": 6, "velocity": 60}, {"time": 2197, "pitch": 62, "duration": 3, "velocity": 47}, {"time": 2197, "pitch": 65, "duration": 2, "velocity": 40}, {"time": 2197, "pitch": 70, "duration": 1, "velocity": 13}, {"time": 2200, "pitch": 50, "duration": 19, "velocity": 65}, {"time": 2200, "pitch": 62, "duration": 8, "velocity": 74}, {"time": 2200, "pitch": 65, "duration": 8, "velocity": 90}, {"time": 2200, "pitch": 70, "duration": 8, "velocity": 95}, {"time": 2206, "pitch": 58, "duration": 5, "velocity": 54}, {"time": 2209, "pitch": 62, "duration": 1, "velocity": 49}, {"time": 2209, "pitch": 65, "duration": 1, "velocity": 55}, {"time": 2209, "pitch": 70, "duration": 2, "velocity": 63}, {"time": 2212, "pitch": 62, "duration": 7, "velocity": 71}, {"time": 2212, "pitch": 65, "duration": 7, "velocity": 81}, {"time": 2212, "pitch": 70, "duration": 7, "velocity": 85}, {"time": 2215, "pitch": 58, "duration": 2, "velocity": 54}, {"time": 2224, "pitch": 44, "duration": 20, "velocity": 90}, {"time": 2224, "pitch": 60, "duration": 12, "velocity": 77}, {"time": 2224, "pitch": 63, "duration": 12, "velocity": 85}, {"time": 2224, "pitch": 68, "duration": 12, "velocity": 95}, {"time": 2230, "pitch": 51, "duration": 18, "velocity": 72}, {"time": 2236, "pitch": 60, "duration": 7, "velocity": 81}, {"time": 2236, "pitch": 63, "duration": 7, "velocity": 87}, {"time": 2236, "pitch": 68, "duration": 7, "velocity": 90}, {"time": 2242, "pitch": 56, "duration": 5, "velocity": 53}, {"time": 2248, "pitch": 46, "duration": 21, "velocity": 77}, {"time": 2248, "pitch": 62, "duration": 11, "velocity": 73}, {"time": 2248, "pitch": 65, "duration": 11, "velocity": 85}, {"time": 2248, "pitch": 70, "duration": 11, "velocity": 93}, {"time": 2254, "pitch": 53, "duration": 13, "velocity": 79}, {"time": 2260, "pitch": 62, "duration": 8, "velocity": 77}, {"time": 2260, "pitch": 65, "duration": 7, "velocity": 86}, {"time": 2260, "pitch": 70, "duration": 7, "velocity": 100}, {"time": 2266, "pitch": 58, "duration": 2, "velocity": 54}, {"time": 2272, "pitch": 43, "duration": 19, "velocity": 75}, {"time": 2272, "pitch": 58, "duration": 12, "velocity": 77}, {"time": 2272, "pitch": 62, "duration": 12, "velocity": 86}, {"time": 2272, "pitch": 67, "duration": 11, "velocity": 90}, {"time": 2278, "pitch": 50, "duration": 13, "velocity": 79}, {"time": 2284, "pitch": 58, "duration": 7, "velocity": 74}, {"time": 2284, "pitch": 62, "duration": 7, "velocity": 86}, {"time": 2284, "pitch": 67, "duration": 7, "velocity": 93}, {"time": 2290, "pitch": 55, "duration": 6, "velocity": 58}, {"time": 2296, "pitch": 48, "duration": 19, "velocity": 79}, {"time": 2296, "pitch": 63, "duration": 10, "velocity": 79}, {"time": 2296, "pitch": 67, "duration": 11, "velocity": 81}, {"time": 2299, "pitch": 55, "duration": 17, "velocity": 64}, {"time": 2302, "pitch": 60, "duration": 4, "velocity": 72}, {"time": 2305, "pitch": 51, "duration": 10, "velocity": 86}, {"time": 2308, "pitch": 63, "duration": 1, "velocity": 62}, {"time": 2308, "pitch": 67, "duration": 4, "velocity": 83}, {"time": 2308, "pitch": 72, "duration": 8, "velocity": 87}, {"time": 2311, "pitch": 60, "duration": 7, "velocity": 64}, {"time": 2314, "pitch": 63, "duration": 6, "velocity": 85}, {"time": 2317, "pitch": 67, "duration": 4, "velocity": 76}, {"time": 2320, "pitch": 53, "duration": 20, "velocity": 95}, {"time": 2326, "pitch": 60, "duration": 13, "velocity": 71}, {"time": 2332, "pitch": 68, "duration": 8, "velocity": 87}, {"time": 2332, "pitch": 72, "duration": 7, "velocity": 76}, {"time": 2338, "pitch": 65, "duration": 2, "velocity": 60}, {"time": 2344, "pitch": 46, "duration": 19, "velocity": 85}, {"time": 2344, "pitch": 62, "duration": 8, "velocity": 67}, {"time": 2344, "pitch": 65, "duration": 8, "velocity": 74}, {"time": 2344, "pitch": 70, "duration": 8, "velocity": 81}, {"time": 2350, "pitch": 53, "duration": 13, "velocity": 72}, {"time": 2353, "pitch": 62, "duration": 3, "velocity": 40}, {"time": 2353, "pitch": 65, "duration": 2, "velocity": 40}, {"time": 2353, "pitch": 70, "duration": 3, "velocity": 51}, {"time": 2356, "pitch": 62, "duration": 7, "velocity": 74}, {"time": 2356, "pitch": 65, "duration": 7, "velocity": 83}, {"time": 2356, "pitch": 70, "duration": 7, "velocity": 93}, {"time": 2362, "pitch": 58, "duration": 6, "velocity": 57}, {"time": 2368, "pitch": 51, "duration": 42, "velocity": 93}, {"time": 2368, "pitch": 67, "duration": 11, "velocity": 74}, {"time": 2368, "pitch": 70, "duration": 12, "velocity": 83}, {"time": 2368, "pitch": 75, "duration": 11, "velocity": 74}, {"time": 2374, "pitch": 58, "duration": 34, "velocity": 62}, {"time": 2380, "pitch": 67, "duration": 11, "velocity": 70}, {"time": 2380, "pitch": 70, "duration": 11, "velocity": 77}, {"time": 2380, "pitch": 75, "duration": 10, "velocity": 76}, {"time": 2386, "pitch": 63, "duration": 22, "velocity": 58}, {"time": 2392, "pitch": 67, "duration": 11, "velocity": 81}, {"time": 2392, "pitch": 70, "duration": 11, "velocity": 95}, {"time": 2392, "pitch": 73, "duration": 11, "velocity": 98}, {"time": 2392, "pitch": 75, "duration": 9, "velocity": 77}, {"time": 2404, "pitch": 67, "duration": 6, "velocity": 90}, {"time": 2404, "pitch": 70, "duration": 5, "velocity": 98}, {"time": 2404, "pitch": 73, "duration": 6, "velocity": 104}, {"time": 2416, "pitch": 44, "duration": 19, "velocity": 75}, {"time": 2416, "pitch": 60, "duration": 10, "velocity": 65}, {"time": 2416, "pitch": 63, "duration": 10, "velocity": 70}, {"time": 2416, "pitch": 68, "duration": 10, "velocity": 72}, {"time": 2422, "pitch": 51, "duration": 18, "velocity": 75}, {"time": 2428, "pitch": 60, "duration": 7, "velocity": 81}, {"time": 2428, "pitch": 63, "duration": 7, "velocity": 86}, {"time": 2428, "pitch": 68, "duration": 7, "velocity": 93}, {"time": 2434, "pitch": 56, "duration": 5, "velocity": 59}, {"time": 2440, "pitch": 44, "duration": 19, "velocity": 79}, {"time": 2440, "pitch": 62, "duration": 12, "velocity": 72}, {"time": 2440, "pitch": 65, "duration": 12, "velocity": 81}, {"time": 2440, "pitch": 70, "duration": 12, "velocity": 86}, {"time": 2446, "pitch": 51, "duration": 12, "velocity": 79}, {"time": 2452, "pitch": 62, "duration": 7, "velocity": 67}, {"time": 2452, "pitch": 65, "duration": 7, "velocity": 74}, {"time": 2452, "pitch": 70, "duration": 7, "velocity": 85}, {"time": 2464, "pitch": 43, "duration": 19, "velocity": 73}, {"time": 2464, "pitch": 58, "duration": 11, "velocity": 67}, {"time": 2464, "pitch": 62, "duration": 11, "velocity": 83}, {"time": 2464, "pitch": 67, "duration": 11, "velocity": 86}, {"time": 2470, "pitch": 50, "duration": 14, "velocity": 70}, {"time": 2476, "pitch": 58, "duration": 7, "velocity": 70}, {"time": 2476, "pitch": 62, "duration": 7, "velocity": 81}, {"time": 2476, "pitch": 67, "duration": 7, "velocity": 81}, {"time": 2482, "pitch": 55, "duration": 5, "velocity": 55}, {"time": 2488, "pitch": 39, "duration": 8, "velocity": 79}, {"time": 2488, "pitch": 51, "duration": 9, "velocity": 93}, {"time": 2497, "pitch": 41, "duration": 8, "velocity": 86}, {"time": 2497, "pitch": 53, "duration": 8, "velocity": 86}, {"time": 2506, "pitch": 43, "duration": 6, "velocity": 108}, {"time": 2506, "pitch": 55, "duration": 6, "velocity": 104}, {"time": 2512, "pitch": 41, "duration": 19, "velocity": 59}, {"time": 2512, "pitch": 56, "duration": 11, "velocity": 63}, {"time": 2512, "pitch": 60, "duration": 12, "velocity": 67}, {"time": 2512, "pitch": 65, "duration": 11, "velocity": 76}, {"time": 2518, "pitch": 48, "duration": 13, "velocity": 61}, {"time": 2524, "pitch": 56, "duration": 6, "velocity": 69}, {"time": 2524, "pitch": 60, "duration": 6, "velocity": 73}, {"time": 2524, "pitch": 65, "duration": 6, "velocity": 74}, {"time": 2530, "pitch": 53, "duration": 4, "velocity": 58}, {"time": 2536, "pitch": 46, "duration": 19, "velocity": 68}, {"time": 2536, "pitch": 62, "duration": 12, "velocity": 66}, {"time": 2536, "pitch": 65, "duration": 12, "velocity": 70}, {"time": 2536, "pitch": 70, "duration": 12, "velocity": 75}, {"time": 2542, "pitch": 53, "duration": 14, "velocity": 70}, {"time": 2548, "pitch": 62, "duration": 7, "velocity": 67}, {"time": 2548, "pitch": 65, "duration": 7, "velocity": 74}, {"time": 2548, "pitch": 70, "duration": 8, "velocity": 76}, {"time": 2554, "pitch": 58, "duration": 6, "velocity": 52}, {"time": 2560, "pitch": 48, "duration": 17, "velocity": 76}, {"time": 2560, "pitch": 63, "duration": 11, "velocity": 85}, {"time": 2560, "pitch": 67, "duration": 10, "velocity": 85}, {"time": 2560, "pitch": 72, "duration": 11, "velocity": 77}, {"time": 2566, "pitch": 55, "duration": 13, "velocity": 60}, {"time": 2572, "pitch": 63, "duration": 6, "velocity": 76}, {"time": 2572, "pitch": 67, "duration": 6, "velocity": 87}, {"time": 2572, "pitch": 72, "duration": 6, "velocity": 85}, {"time": 2584, "pitch": 46, "duration": 18, "velocity": 83}, {"time": 2584, "pitch": 62, "duration": 11, "velocity": 83}, {"time": 2584, "pitch": 65, "duration": 11, "velocity": 98}, {"time": 2584, "pitch": 70, "duration": 11, "velocity": 93}, {"time": 2590, "pitch": 53, "duration": 12, "velocity": 73}, {"time": 2596, "pitch": 62, "duration": 5, "velocity": 95}, {"time": 2596, "pitch": 65, "duration": 5, "velocity": 90}, {"time": 2596, "pitch": 70, "duration": 6, "velocity": 100}, {"time": 2602, "pitch": 58, "duration": 4, "velocity": 54}, {"time": 2608, "pitch": 53, "duration": 44, "velocity": 81}, {"time": 2608, "pitch": 69, "duration": 11, "velocity": 85}, {"time": 2608, "pitch": 72, "duration": 11, "velocity": 95}, {"time": 2614, "pitch": 57, "duration": 35, "velocity": 14}, {"time": 2614, "pitch": 60, "duration": 24, "velocity": 53}, {"time": 2620, "pitch": 69, "duration": 11, "velocity": 87}, {"time": 2620, "pitch": 72, "duration": 8, "velocity": 95}, {"time": 2626, "pitch": 65, "duration": 8, "velocity": 57}, {"time": 2629, "pitch": 72, "duration": 2, "velocity": 46}, {"time": 2632, "pitch": 69, "duration": 11, "velocity": 76}, {"time": 2632, "pitch": 72, "duration": 11, "velocity": 93}, {"time": 2638, "pitch": 60, "duration": 12, "velocity": 35}, {"time": 2638, "pitch": 65, "duration": 6, "velocity": 60}, {"time": 2644, "pitch": 69, "duration": 6, "velocity": 104}, {"time": 2644, "pitch": 72, "duration": 6, "velocity": 90}, {"time": 2647, "pitch": 65, "duration": 4, "velocity": 61}, {"time": 2656, "pitch": 48, "duration": 21, "velocity": 71}, {"time": 2656, "pitch": 63, "duration": 12, "velocity": 69}, {"time": 2656, "pitch": 67, "duration": 12, "velocity": 75}, {"time": 2656, "pitch": 72, "duration": 12, "velocity": 73}, {"time": 2662, "pitch": 55, "duration": 14, "velocity": 72}, {"time": 2668, "pitch": 63, "duration": 7, "velocity": 81}, {"time": 2668, "pitch": 67, "duration": 7, "velocity": 95}, {"time": 2668, "pitch": 72, "duration": 7, "velocity": 93}, {"time": 2674, "pitch": 60, "duration": 2, "velocity": 49}, {"time": 2680, "pitch": 46, "duration": 18, "velocity": 74}, {"time": 2680, "pitch": 62, "duration": 11, "velocity": 73}, {"time": 2680, "pitch": 65, "duration": 11, "velocity": 83}, {"time": 2680, "pitch": 70, "duration": 11, "velocity": 83}, {"time": 2686, "pitch": 53, "duration": 12, "velocity": 64}, {"time": 2692, "pitch": 62, "duration": 6, "velocity": 86}, {"time": 2692, "pitch": 65, "duration": 6, "velocity": 90}, {"time": 2692, "pitch": 70, "duration": 7, "velocity": 93}, {"time": 2704, "pitch": 53, "duration": 46, "velocity": 86}, {"time": 2704, "pitch": 63, "duration": 1, "velocity": 74}, {"time": 2704, "pitch": 65, "duration": 11, "velocity": 74}, {"time": 2704, "pitch": 69, "duration": 11, "velocity": 98}, {"time": 2710, "pitch": 72, "duration": 4, "velocity": 56}, {"time": 2716, "pitch": 65, "duration": 11, "velocity": 90}, {"time": 2716, "pitch": 69, "duration": 11, "velocity": 90}, {"time": 2716, "pitch": 72, "duration": 11, "velocity": 90}, {"time": 2728, "pitch": 65, "duration": 11, "velocity": 81}, {"time": 2728, "pitch": 69, "duration": 11, "velocity": 83}, {"time": 2728, "pitch": 72, "duration": 11, "velocity": 83}, {"time": 2740, "pitch": 60, "duration": 10, "velocity": 67}, {"time": 2740, "pitch": 65, "duration": 10, "velocity": 95}, {"time": 2740, "pitch": 69, "duration": 10, "velocity": 93}, {"time": 2740, "pitch": 72, "duration": 10, "velocity": 85}, {"time": 2752, "pitch": 44, "duration": 20, "velocity": 93}, {"time": 2752, "pitch": 60, "duration": 11, "velocity": 79}, {"time": 2752, "pitch": 63, "duration": 11, "velocity": 86}, {"time": 2752, "pitch": 68, "duration": 11, "velocity": 93}, {"time": 2758, "pitch": 51, "duration": 17, "velocity": 74}, {"time": 2764, "pitch": 60, "duration": 7, "velocity": 90}, {"time": 2764, "pitch": 63, "duration": 7, "velocity": 90}, {"time": 2764, "pitch": 68, "duration": 7, "velocity": 100}, {"time": 2770, "pitch": 56, "duration": 5, "velocity": 53}, {"time": 2776, "pitch": 46, "duration": 21, "velocity": 79}, {"time": 2776, "pitch": 62, "duration": 11, "velocity": 77}, {"time": 2776, "pitch": 65, "duration": 11, "velocity": 87}, {"time": 2776, "pitch": 70, "duration": 11, "velocity": 95}, {"time": 2782, "pitch": 53, "duration": 13, "velocity": 79}, {"time": 2788, "pitch": 62, "duration": 7, "velocity": 95}, {"time": 2788, "pitch": 65, "duration": 7, "velocity": 98}, {"time": 2788, "pitch": 70, "duration": 6, "velocity": 108}, {"time": 2794, "pitch": 58, "duration": 2, "velocity": 53}, {"time": 2800, "pitch": 43, "duration": 20, "velocity": 74}, {"time": 2800, "pitch": 58, "duration": 12, "velocity": 74}, {"time": 2800, "pitch": 62, "duration": 11, "velocity": 86}, {"time": 2800, "pitch": 67, "duration": 11, "velocity": 86}, {"time": 2806, "pitch": 50, "duration": 15, "velocity": 66}, {"time": 2812, "pitch": 55, "duration": 11, "velocity": 10}, {"time": 2812, "pitch": 58, "duration": 7, "velocity": 79}, {"time": 2812, "pitch": 62, "duration": 7, "velocity": 98}, {"time": 2812, "pitch": 67, "duration": 7, "velocity": 98}, {"time": 2818, "pitch": 47, "duration": 2, "velocity": 87}, {"time": 2824, "pitch": 48, "duration": 12, "velocity": 77}, {"time": 2824, "pitch": 63, "duration": 11, "velocity": 90}, {"time": 2824, "pitch": 67, "duration": 11, "velocity": 93}, {"time": 2824, "pitch": 72, "duration": 11, "velocity": 85}, {"time": 2836, "pitch": 46, "duration": 8, "velocity": 83}, {"time": 2836, "pitch": 62, "duration": 8, "velocity": 85}, {"time": 2836, "pitch": 65, "duration": 8, "velocity": 98}, {"time": 2836, "pitch": 70, "duration": 8, "velocity": 100}, {"time": 2848, "pitch": 53, "duration": 19, "velocity": 90}, {"time": 2848, "pitch": 68, "duration": 11, "velocity": 93}, {"time": 2848, "pitch": 72, "duration": 11, "velocity": 81}, {"time": 2854, "pitch": 60, "duration": 12, "velocity": 63}, {"time": 2860, "pitch": 68, "duration": 7, "velocity": 104}, {"time": 2860, "pitch": 72, "duration": 6, "velocity": 95}, {"time": 2872, "pitch": 44, "duration": 19, "velocity": 83}, {"time": 2872, "pitch": 60, "duration": 11, "velocity": 90}, {"time": 2872, "pitch": 63, "duration": 11, "velocity": 100}, {"time": 2872, "pitch": 68, "duration": 11, "velocity": 98}, {"time": 2878, "pitch": 51, "duration": 18, "velocity": 73}, {"time": 2884, "pitch": 60, "duration": 7, "velocity": 86}, {"time": 2884, "pitch": 63, "duration": 7, "velocity": 95}, {"time": 2884, "pitch": 68, "duration": 7, "velocity": 104}, {"time": 2890, "pitch": 56, "duration": 5, "velocity": 59}, {"time": 2896, "pitch": 46, "duration": 7, "velocity": 69}, {"time": 2896, "pitch": 53, "duration": 7, "velocity": 83}, {"time": 2896, "pitch": 58, "duration": 6, "velocity": 56}, {"time": 2896, "pitch": 62, "duration": 7, "velocity": 83}, {"time": 2896, "pitch": 65, "duration": 7, "velocity": 90}, {"time": 2896, "pitch": 70, "duration": 7, "velocity": 86}, {"time": 2905, "pitch": 46, "duration": 16, "velocity": 73}, {"time": 2905, "pitch": 53, "duration": 16, "velocity": 104}, {"time": 2905, "pitch": 58, "duration": 15, "velocity": 70}, {"time": 2905, "pitch": 62, "duration": 15, "velocity": 85}, {"time": 2905, "pitch": 65, "duration": 14, "velocity": 95}, {"time": 2905, "pitch": 70, "duration": 14, "velocity": 108}, {"time": 2920, "pitch": 47, "duration": 16, "velocity": 58}, {"time": 2920, "pitch": 59, "duration": 4, "velocity": 68}, {"time": 2920, "pitch": 63, "duration": 4, "velocity": 68}, {"time": 2920, "pitch": 66, "duration": 4, "velocity": 67}, {"time": 2920, "pitch": 71, "duration": 4, "velocity": 59}, {"time": 2926, "pitch": 59, "duration": 4, "velocity": 62}, {"time": 2926, "pitch": 63, "duration": 4, "velocity": 63}, {"time": 2926, "pitch": 66, "duration": 5, "velocity": 72}, {"time": 2926, "pitch": 71, "duration": 5, "velocity": 70}, {"time": 2932, "pitch": 59, "duration": 4, "velocity": 69}, {"time": 2932, "pitch": 63, "duration": 4, "velocity": 74}, {"time": 2932, "pitch": 66, "duration": 4, "velocity": 68}, {"time": 2932, "pitch": 71, "duration": 4, "velocity": 68}, {"time": 2938, "pitch": 47, "duration": 4, "velocity": 68}, {"time": 2938, "pitch": 59, "duration": 4, "velocity": 70}, {"time": 2938, "pitch": 63, "duration": 4, "velocity": 70}, {"time": 2938, "pitch": 66, "duration": 4, "velocity": 79}, {"time": 2938, "pitch": 71, "duration": 4, "velocity": 67}, {"time": 2944, "pitch": 47, "duration": 4, "velocity": 79}, {"time": 2944, "pitch": 59, "duration": 4, "velocity": 71}, {"time": 2944, "pitch": 63, "duration": 4, "velocity": 90}, {"time": 2944, "pitch": 66, "duration": 4, "velocity": 100}, {"time": 2944, "pitch": 71, "duration": 4, "velocity": 93}, {"time": 2956, "pitch": 63, "duration": 7, "velocity": 71}, {"time": 2956, "pitch": 66, "duration": 7, "velocity": 81}, {"time": 2956, "pitch": 71, "duration": 7, "velocity": 85}, {"time": 2959, "pitch": 59, "duration": 2, "velocity": 54}, {"time": 2968, "pitch": 45, "duration": 20, "velocity": 90}, {"time": 2968, "pitch": 61, "duration": 12, "velocity": 77}, {"time": 2968, "pitch": 64, "duration": 12, "velocity": 85}, {"time": 2968, "pitch": 69, "duration": 12, "velocity": 95}, {"time": 2974, "pitch": 52, "duration": 18, "velocity": 72}, {"time": 2980, "pitch": 61, "duration": 7, "velocity": 81}, {"time": 2980, "pitch": 64, "duration": 7, "velocity": 87}, {"time": 2980, "pitch": 69, "duration": 7, "velocity": 90}, {"time": 2986, "pitch": 57, "duration": 5, "velocity": 53}, {"time": 2992, "pitch": 47, "duration": 21, "velocity": 77}, {"time": 2992, "pitch": 63, "duration": 11, "velocity": 73}, {"time": 2992, "pitch": 66, "duration": 11, "velocity": 85}, {"time": 2992, "pitch": 71, "duration": 11, "velocity": 93}, {"time": 2998, "pitch": 54, "duration": 13, "velocity": 79}, {"time": 3004, "pitch": 63, "duration": 8, "velocity": 77}, {"time": 3004, "pitch": 66, "duration": 7, "velocity": 86}, {"time": 3004, "pitch": 71, "duration": 7, "velocity": 100}, {"time": 3010, "pitch": 59, "duration": 2, "velocity": 54}, {"time": 3016, "pitch": 44, "duration": 19, "velocity": 75}, {"time": 3016, "pitch": 59, "duration": 12, "velocity": 77}, {"time": 3016, "pitch": 63, "duration": 12, "velocity": 86}, {"time": 3016, "pitch": 68, "duration": 11, "velocity": 90}, {"time": 3022, "pitch": 51, "duration": 13, "velocity": 79}, {"time": 3028, "pitch": 59, "duration": 7, "velocity": 74}, {"time": 3028, "pitch": 63, "duration": 7, "velocity": 86}, {"time": 3028, "pitch": 68, "duration": 7, "velocity": 93}, {"time": 3034, "pitch": 56, "duration": 6, "velocity": 58}, {"time": 3040, "pitch": 49, "duration": 19, "velocity": 79}, {"time": 3040, "pitch": 64, "duration": 10, "velocity": 79}, {"time": 3040, "pitch": 68, "duration": 11, "velocity": 81}, {"time": 3043, "pitch": 56, "duration": 17, "velocity": 64}, {"time": 3046, "pitch": 61, "duration": 4, "velocity": 72}, {"time": 3049, "pitch": 52, "duration": 10, "velocity": 86}, {"time": 3052, "pitch": 64, "duration": 1, "velocity": 62}, {"time": 3052, "pitch": 68, "duration": 4, "velocity": 83}, {"time": 3052, "pitch": 73, "duration": 8, "velocity": 87}, {"time": 3055, "pitch": 61, "duration": 7, "velocity": 64}, {"time": 3058, "pitch": 64, "duration": 6, "velocity": 85}, {"time": 3061, "pitch": 68, "duration": 4, "velocity": 76}, {"time": 3064, "pitch": 54, "duration": 20, "velocity": 95}, {"time": 3070, "pitch": 61, "duration": 13, "velocity": 71}, {"time": 3076, "pitch": 69, "duration": 8, "velocity": 87}, {"time": 3076, "pitch": 73, "duration": 7, "velocity": 76}, {"time": 3082, "pitch": 66, "duration": 2, "velocity": 60}, {"time": 3088, "pitch": 45, "duration": 1, "velocity": 86}, {"time": 3088, "pitch": 47, "duration": 19, "velocity": 85}, {"time": 3088, "pitch": 63, "duration": 8, "velocity": 67}, {"time": 3088, "pitch": 66, "duration": 8, "velocity": 74}, {"time": 3088, "pitch": 71, "duration": 8, "velocity": 81}, {"time": 3094, "pitch": 54, "duration": 13, "velocity": 72}, {"time": 3097, "pitch": 63, "duration": 3, "velocity": 40}, {"time": 3097, "pitch": 66, "duration": 2, "velocity": 40}, {"time": 3097, "pitch": 71, "duration": 3, "velocity": 51}, {"time": 3100, "pitch": 63, "duration": 7, "velocity": 74}, {"time": 3100, "pitch": 66, "duration": 7, "velocity": 83}, {"time": 3100, "pitch": 71, "duration": 7, "velocity": 93}, {"time": 3106, "pitch": 59, "duration": 6, "velocity": 57}, {"time": 3112, "pitch": 52, "duration": 42, "velocity": 93}, {"time": 3112, "pitch": 68, "duration": 11, "velocity": 74}, {"time": 3112, "pitch": 71, "duration": 12, "velocity": 83}, {"time": 3112, "pitch": 76, "duration": 11, "velocity": 74}, {"time": 3118, "pitch": 59, "duration": 34, "velocity": 62}, {"time": 3124, "pitch": 68, "duration": 11, "velocity": 70}, {"time": 3124, "pitch": 71, "duration": 11, "velocity": 77}, {"time": 3124, "pitch": 76, "duration": 10, "velocity": 76}, {"time": 3130, "pitch": 64, "duration": 22, "velocity": 58}, {"time": 3136, "pitch": 68, "duration": 11, "velocity": 81}, {"time": 3136, "pitch": 71, "duration": 11, "velocity": 95}, {"time": 3136, "pitch": 74, "duration": 11, "velocity": 98}, {"time": 3136, "pitch": 76, "duration": 9, "velocity": 77}, {"time": 3148, "pitch": 68, "duration": 6, "velocity": 90}, {"time": 3148, "pitch": 71, "duration": 5, "velocity": 98}, {"time": 3148, "pitch": 74, "duration": 6, "velocity": 104}, {"time": 3160, "pitch": 45, "duration": 19, "velocity": 75}, {"time": 3160, "pitch": 61, "duration": 10, "velocity": 65}, {"time": 3160, "pitch": 64, "duration": 10, "velocity": 70}, {"time": 3160, "pitch": 69, "duration": 10, "velocity": 72}, {"time": 3166, "pitch": 52, "duration": 18, "velocity": 75}, {"time": 3172, "pitch": 61, "duration": 7, "velocity": 81}, {"time": 3172, "pitch": 64, "duration": 7, "velocity": 86}, {"time": 3172, "pitch": 69, "duration": 7, "velocity": 93}, {"time": 3178, "pitch": 57, "duration": 5, "velocity": 59}, {"time": 3184, "pitch": 45, "duration": 19, "velocity": 79}, {"time": 3184, "pitch": 63, "duration": 12, "velocity": 72}, {"time": 3184, "pitch": 66, "duration": 12, "velocity": 81}, {"time": 3184, "pitch": 71, "duration": 12, "velocity": 86}, {"time": 3190, "pitch": 52, "duration": 12, "velocity": 79}, {"time": 3196, "pitch": 63, "duration": 7, "velocity": 67}, {"time": 3196, "pitch": 66, "duration": 7, "velocity": 74}, {"time": 3196, "pitch": 71, "duration": 7, "velocity": 85}, {"time": 3208, "pitch": 44, "duration": 19, "velocity": 73}, {"time": 3208, "pitch": 59, "duration": 11, "velocity": 67}, {"time": 3208, "pitch": 63, "duration": 11, "velocity": 83}, {"time": 3208, "pitch": 68, "duration": 11, "velocity": 86}, {"time": 3214, "pitch": 51, "duration": 14, "velocity": 70}, {"time": 3220, "pitch": 59, "duration": 7, "velocity": 70}, {"time": 3220, "pitch": 63, "duration": 7, "velocity": 81}, {"time": 3220, "pitch": 68, "duration": 7, "velocity": 81}, {"time": 3226, "pitch": 56, "duration": 5, "velocity": 55}, {"time": 3232, "pitch": 49, "duration": 21, "velocity": 74}, {"time": 3232, "pitch": 64, "duration": 11, "velocity": 73}, {"time": 3232, "pitch": 68, "duration": 11, "velocity": 81}, {"time": 3232, "pitch": 73, "duration": 11, "velocity": 79}, {"time": 3238, "pitch": 56, "duration": 18, "velocity": 63}, {"time": 3244, "pitch": 64, "duration": 7, "velocity": 83}, {"time": 3244, "pitch": 68, "duration": 7, "velocity": 86}, {"time": 3244, "pitch": 73, "duration": 7, "velocity": 85}, {"time": 3250, "pitch": 61, "duration": 4, "velocity": 52}, {"time": 3256, "pitch": 42, "duration": 19, "velocity": 59}, {"time": 3256, "pitch": 57, "duration": 11, "velocity": 63}, {"time": 3256, "pitch": 61, "duration": 12, "velocity": 67}, {"time": 3256, "pitch": 66, "duration": 11, "velocity": 76}, {"time": 3262, "pitch": 49, "duration": 13, "velocity": 61}, {"time": 3268, "pitch": 57, "duration": 6, "velocity": 69}, {"time": 3268, "pitch": 61, "duration": 6, "velocity": 73}, {"time": 3268, "pitch": 66, "duration": 6, "velocity": 74}, {"time": 3274, "pitch": 54, "duration": 4, "velocity": 58}, {"time": 3280, "pitch": 47, "duration": 19, "velocity": 68}, {"time": 3280, "pitch": 63, "duration": 12, "velocity": 66}, {"time": 3280, "pitch": 66, "duration": 12, "velocity": 70}, {"time": 3280, "pitch": 71, "duration": 12, "velocity": 75}, {"time": 3286, "pitch": 54, "duration": 14, "velocity": 70}, {"time": 3292, "pitch": 63, "duration": 7, "velocity": 67}, {"time": 3292, "pitch": 66, "duration": 7, "velocity": 74}, {"time": 3292, "pitch": 71, "duration": 8, "velocity": 76}, {"time": 3298, "pitch": 59, "duration": 6, "velocity": 52}, {"time": 3304, "pitch": 49, "duration": 17, "velocity": 76}, {"time": 3304, "pitch": 64, "duration": 11, "velocity": 85}, {"time": 3304, "pitch": 68, "duration": 10, "velocity": 85}, {"time": 3304, "pitch": 73, "duration": 11, "velocity": 77}, {"time": 3310, "pitch": 56, "duration": 13, "velocity": 60}, {"time": 3316, "pitch": 64, "duration": 6, "velocity": 76}, {"time": 3316, "pitch": 73, "duration": 6, "velocity": 85}, {"time": 3328, "pitch": 47, "duration": 18, "velocity": 83}, {"time": 3328, "pitch": 63, "duration": 11, "velocity": 83}, {"time": 3328, "pitch": 66, "duration": 11, "velocity": 98}, {"time": 3328, "pitch": 71, "duration": 11, "velocity": 93}, {"time": 3334, "pitch": 54, "duration": 12, "velocity": 73}, {"time": 3340, "pitch": 63, "duration": 11, "velocity": 83}, {"time": 3340, "pitch": 66, "duration": 11, "velocity": 98}, {"time": 3340, "pitch": 71, "duration": 11, "velocity": 93}, {"time": 3346, "pitch": 59, "duration": 4, "velocity": 54}, {"time": 3352, "pitch": 45, "duration": 19, "velocity": 75}, {"time": 3352, "pitch": 61, "duration": 10, "velocity": 65}, {"time": 3352, "pitch": 64, "duration": 10, "velocity": 70}, {"time": 3352, "pitch": 69, "duration": 10, "velocity": 72}, {"time": 3358, "pitch": 52, "duration": 18, "velocity": 75}, {"time": 3364, "pitch": 61, "duration": 7, "velocity": 81}, {"time": 3364, "pitch": 64, "duration": 7, "velocity": 86}, {"time": 3364, "pitch": 69, "duration": 7, "velocity": 93}, {"time": 3370, "pitch": 57, "duration": 5, "velocity": 59}, {"time": 3376, "pitch": 45, "duration": 19, "velocity": 79}, {"time": 3376, "pitch": 63, "duration": 12, "velocity": 72}, {"time": 3376, "pitch": 66, "duration": 12, "velocity": 81}, {"time": 3376, "pitch": 71, "duration": 12, "velocity": 86}, {"time": 3382, "pitch": 52, "duration": 12, "velocity": 79}, {"time": 3388, "pitch": 63, "duration": 7, "velocity": 67}, {"time": 3388, "pitch": 66, "duration": 7, "velocity": 74}, {"time": 3388, "pitch": 71, "duration": 7, "velocity": 85}, {"time": 3400, "pitch": 44, "duration": 19, "velocity": 73}, {"time": 3400, "pitch": 59, "duration": 11, "velocity": 67}, {"time": 3400, "pitch": 63, "duration": 11, "velocity": 83}, {"time": 3400, "pitch": 68, "duration": 11, "velocity": 86}, {"time": 3406, "pitch": 51, "duration": 14, "velocity": 70}, {"time": 3412, "pitch": 59, "duration": 7, "velocity": 70}, {"time": 3412, "pitch": 63, "duration": 7, "velocity": 81}, {"time": 3412, "pitch": 68, "duration": 7, "velocity": 81}, {"time": 3418, "pitch": 56, "duration": 5, "velocity": 55}, {"time": 3424, "pitch": 49, "duration": 21, "velocity": 74}, {"time": 3424, "pitch": 64, "duration": 11, "velocity": 73}, {"time": 3424, "pitch": 68, "duration": 11, "velocity": 81}, {"time": 3424, "pitch": 73, "duration": 11, "velocity": 79}, {"time": 3430, "pitch": 56, "duration": 18, "velocity": 63}, {"time": 3436, "pitch": 64, "duration": 7, "velocity": 83}, {"time": 3436, "pitch": 68, "duration": 7, "velocity": 86}, {"time": 3436, "pitch": 73, "duration": 7, "velocity": 85}, {"time": 3442, "pitch": 61, "duration": 4, "velocity": 52}, {"time": 3448, "pitch": 42, "duration": 19, "velocity": 59}, {"time": 3448, "pitch": 57, "duration": 11, "velocity": 63}, {"time": 3448, "pitch": 61, "duration": 12, "velocity": 67}, {"time": 3448, "pitch": 66, "duration": 11, "velocity": 76}, {"time": 3454, "pitch": 49, "duration": 13, "velocity": 61}, {"time": 3460, "pitch": 57, "duration": 6, "velocity": 69}, {"time": 3460, "pitch": 61, "duration": 6, "velocity": 73}, {"time": 3460, "pitch": 66, "duration": 6, "velocity": 74}, {"time": 3466, "pitch": 54, "duration": 4, "velocity": 58}, {"time": 3472, "pitch": 47, "duration": 19, "velocity": 68}, {"time": 3472, "pitch": 63, "duration": 12, "velocity": 66}, {"time": 3472, "pitch": 66, "duration": 12, "velocity": 70}, {"time": 3472, "pitch": 71, "duration": 12, "velocity": 75}, {"time": 3478, "pitch": 54, "duration": 14, "velocity": 70}, {"time": 3484, "pitch": 63, "duration": 7, "velocity": 67}, {"time": 3484, "pitch": 66, "duration": 7, "velocity": 74}, {"time": 3484, "pitch": 71, "duration": 8, "velocity": 76}, {"time": 3490, "pitch": 59, "duration": 6, "velocity": 52}, {"time": 3496, "pitch": 54, "duration": 48, "velocity": 60}, {"time": 3497, "pitch": 47, "duration": 45, "velocity": 76}, {"time": 3497, "pitch": 63, "duration": 39, "velocity": 85}, {"time": 3497, "pitch": 66, "duration": 39, "velocity": 85}, {"time": 3497, "pitch": 71, "duration": 39, "velocity": 77}, {"time": 3544, "pitch": 40, "duration": 49, "velocity": 77}, {"time": 3544, "pitch": 56, "duration": 11, "velocity": 73}, {"time": 3544, "pitch": 63, "duration": 11, "velocity": 86}, {"time": 3550, "pitch": 47, "duration": 42, "velocity": 56}, {"time": 3556, "pitch": 56, "duration": 11, "velocity": 67}, {"time": 3556, "pitch": 63, "duration": 11, "velocity": 79}, {"time": 3562, "pitch": 52, "duration": 10, "velocity": 51}, {"time": 3568, "pitch": 56, "duration": 10, "velocity": 65}, {"time": 3568, "pitch": 63, "duration": 10, "velocity": 85}, {"time": 3574, "pitch": 52, "duration": 17, "velocity": 51}, {"time": 3580, "pitch": 56, "duration": 10, "velocity": 81}, {"time": 3580, "pitch": 63, "duration": 11, "velocity": 86}, {"time": 3592, "pitch": 45, "duration": 48, "velocity": 65}, {"time": 3592, "pitch": 57, "duration": 11, "velocity": 72}, {"time": 3592, "pitch": 64, "duration": 11, "velocity": 73}, {"time": 3604, "pitch": 57, "duration": 11, "velocity": 63}, {"time": 3604, "pitch": 64, "duration": 11, "velocity": 75}, {"time": 3616, "pitch": 52, "duration": 22, "velocity": 60}, {"time": 3616, "pitch": 57, "duration": 10, "velocity": 74}, {"time": 3616, "pitch": 64, "duration": 11, "velocity": 70}, {"time": 3628, "pitch": 57, "duration": 8, "velocity": 85}, {"time": 3628, "pitch": 64, "duration": 11, "velocity": 81}, {"time": 3640, "pitch": 40, "duration": 49, "velocity": 93}, {"time": 3640, "pitch": 56, "duration": 12, "velocity": 83}, {"time": 3640, "pitch": 63, "duration": 11, "velocity": 85}, {"time": 3646, "pitch": 47, "duration": 42, "velocity": 59}, {"time": 3652, "pitch": 52, "duration": 16, "velocity": 58}, {"time": 3652, "pitch": 56, "duration": 10, "velocity": 72}, {"time": 3652, "pitch": 63, "duration": 10, "velocity": 85}, {"time": 3664, "pitch": 56, "duration": 11, "velocity": 73}, {"time": 3664, "pitch": 63, "duration": 11, "velocity": 85}, {"time": 3670, "pitch": 52, "duration": 17, "velocity": 52}, {"time": 3676, "pitch": 56, "duration": 9, "velocity": 71}, {"time": 3676, "pitch": 63, "duration": 10, "velocity": 81}, {"time": 3688, "pitch": 45, "duration": 48, "velocity": 67}, {"time": 3688, "pitch": 57, "duration": 12, "velocity": 77}, {"time": 3688, "pitch": 64, "duration": 12, "velocity": 7}, {"time": 3700, "pitch": 57, "duration": 11, "velocity": 65}, {"time": 3700, "pitch": 64, "duration": 11, "velocity": 74}, {"time": 3712, "pitch": 57, "duration": 24, "velocity": 67}, {"time": 3712, "pitch": 64, "duration": 24, "velocity": 73}, {"time": 3736, "pitch": 40, "duration": 96, "velocity": 87}, {"time": 3736, "pitch": 56, "duration": 11, "velocity": 72}, {"time": 3736, "pitch": 63, "duration": 11, "velocity": 81}, {"time": 3742, "pitch": 47, "duration": 83, "velocity": 60}, {"time": 3757, "pitch": 59, "duration": 74, "velocity": 56}, {"time": 3760, "pitch": 64, "duration": 73, "velocity": 45}, {"time": 3760, "pitch": 68, "duration": 71, "velocity": 62}], "annotations": [{"time": 4, "annotation": {"number": 64, "value": 79}, "group": "control_change"}, {"time": 16, "annotation": {"number": 64, "value": 78}, "group": "control_change"}]}]}