{"metadata": {"schema_version": "0.2", "title": "None", "source_filename": "150.mid", "source_format": "midi"}, "resolution": 12, "tempos": [{"time": 0, "qpm": 65.20016995510969}], "time_signatures": [{"time": 0, "numerator": 1, "denominator": 4}], "tracks": [{"program": 0, "is_drum": false, "name": "MELODY", "notes": [{"time": 215, "pitch": 67, "duration": 6, "velocity": 76}, {"time": 221, "pitch": 76, "duration": 6, "velocity": 55}, {"time": 227, "pitch": 74, "duration": 6, "velocity": 66}, {"time": 233, "pitch": 74, "duration": 6, "velocity": 77}, {"time": 239, "pitch": 76, "duration": 12, "velocity": 81}, {"time": 251, "pitch": 74, "duration": 12, "velocity": 75}, {"time": 263, "pitch": 67, "duration": 6, "velocity": 74}, {"time": 269, "pitch": 76, "duration": 7, "velocity": 86}, {"time": 275, "pitch": 74, "duration": 6, "velocity": 74}, {"time": 281, "pitch": 74, "duration": 1, "velocity": 63}, {"time": 287, "pitch": 76, "duration": 6, "velocity": 65}, {"time": 293, "pitch": 72, "duration": 36, "velocity": 76}, {"time": 329, "pitch": 72, "duration": 7, "velocity": 70}, {"time": 335, "pitch": 74, "duration": 6, "velocity": 68}, {"time": 341, "pitch": 76, "duration": 6, "velocity": 77}, {"time": 347, "pitch": 72, "duration": 6, "velocity": 67}, {"time": 353, "pitch": 72, "duration": 6, "velocity": 69}, {"time": 359, "pitch": 74, "duration": 6, "velocity": 68}, {"time": 365, "pitch": 76, "duration": 6, "velocity": 71}, {"time": 371, "pitch": 72, "duration": 6, "velocity": 64}, {"time": 377, "pitch": 77, "duration": 6, "velocity": 85}, {"time": 383, "pitch": 76, "duration": 24, "velocity": 67}, {"time": 407, "pitch": 67, "duration": 7, "velocity": 68}, {"time": 413, "pitch": 76, "duration": 6, "velocity": 65}, {"time": 419, "pitch": 74, "duration": 6, "velocity": 60}, {"time": 425, "pitch": 74, "duration": 6, "velocity": 70}, {"time": 431, "pitch": 76, "duration": 12, "velocity": 74}, {"time": 443, "pitch": 74, "duration": 12, "velocity": 66}, {"time": 455, "pitch": 67, "duration": 6, "velocity": 64}, {"time": 461, "pitch": 76, "duration": 7, "velocity": 74}, {"time": 467, "pitch": 74, "duration": 6, "velocity": 67}, {"time": 473, "pitch": 74, "duration": 1, "velocity": 68}, {"time": 479, "pitch": 76, "duration": 12, "velocity": 74}, {"time": 491, "pitch": 72, "duration": 30, "velocity": 67}, {"time": 521, "pitch": 72, "duration": 7, "velocity": 73}, {"time": 527, "pitch": 74, "duration": 6, "velocity": 73}, {"time": 533, "pitch": 76, "duration": 6, "velocity": 71}, {"time": 539, "pitch": 72, "duration": 6, "velocity": 65}, {"time": 545, "pitch": 72, "duration": 7, "velocity": 71}, {"time": 551, "pitch": 74, "duration": 6, "velocity": 67}, {"time": 557, "pitch": 76, "duration": 6, "velocity": 73}, {"time": 563, "pitch": 72, "duration": 7, "velocity": 64}, {"time": 569, "pitch": 74, "duration": 6, "velocity": 85}, {"time": 575, "pitch": 72, "duration": 12, "velocity": 85}, {"time": 587, "pitch": 72, "duration": 1, "velocity": 71}, {"time": 593, "pitch": 72, "duration": 6, "velocity": 75}, {"time": 599, "pitch": 71, "duration": 6, "velocity": 74}, {"time": 605, "pitch": 67, "duration": 6, "velocity": 74}, {"time": 611, "pitch": 72, "duration": 6, "velocity": 70}, {"time": 617, "pitch": 71, "duration": 6, "velocity": 64}, {"time": 623, "pitch": 67, "duration": 12, "velocity": 68}, {"time": 635, "pitch": 72, "duration": 6, "velocity": 70}, {"time": 641, "pitch": 72, "duration": 6, "velocity": 74}, {"time": 647, "pitch": 71, "duration": 6, "velocity": 68}, {"time": 653, "pitch": 67, "duration": 7, "velocity": 67}, {"time": 659, "pitch": 72, "duration": 7, "velocity": 74}, {"time": 665, "pitch": 71, "duration": 6, "velocity": 70}, {"time": 671, "pitch": 67, "duration": 12, "velocity": 69}, {"time": 683, "pitch": 72, "duration": 6, "velocity": 67}, {"time": 689, "pitch": 71, "duration": 6, "velocity": 74}, {"time": 695, "pitch": 72, "duration": 6, "velocity": 67}, {"time": 701, "pitch": 67, "duration": 7, "velocity": 71}, {"time": 707, "pitch": 72, "duration": 6, "velocity": 74}, {"time": 713, "pitch": 71, "duration": 6, "velocity": 68}, {"time": 719, "pitch": 72, "duration": 6, "velocity": 75}, {"time": 725, "pitch": 74, "duration": 6, "velocity": 72}, {"time": 731, "pitch": 74, "duration": 6, "velocity": 76}, {"time": 737, "pitch": 74, "duration": 6, "velocity": 76}, {"time": 743, "pitch": 74, "duration": 6, "velocity": 83}, {"time": 749, "pitch": 74, "duration": 6, "velocity": 93}, {"time": 755, "pitch": 72, "duration": 6, "velocity": 68}, {"time": 761, "pitch": 76, "duration": 6, "velocity": 90}, {"time": 767, "pitch": 74, "duration": 12, "velocity": 79}, {"time": 779, "pitch": 77, "duration": 6, "velocity": 85}, {"time": 785, "pitch": 77, "duration": 6, "velocity": 85}, {"time": 791, "pitch": 76, "duration": 6, "velocity": 74}, {"time": 797, "pitch": 77, "duration": 6, "velocity": 77}, {"time": 803, "pitch": 79, "duration": 6, "velocity": 85}, {"time": 809, "pitch": 76, "duration": 6, "velocity": 85}, {"time": 815, "pitch": 74, "duration": 12, "velocity": 87}, {"time": 827, "pitch": 76, "duration": 6, "velocity": 64}, {"time": 833, "pitch": 76, "duration": 6, "velocity": 70}, {"time": 839, "pitch": 74, "duration": 6, "velocity": 67}, {"time": 845, "pitch": 76, "duration": 6, "velocity": 67}, {"time": 851, "pitch": 74, "duration": 6, "velocity": 63}, {"time": 857, "pitch": 72, "duration": 3, "velocity": 64}, {"time": 860, "pitch": 69, "duration": 4, "velocity": 49}, {"time": 863, "pitch": 72, "duration": 16, "velocity": 66}, {"time": 875, "pitch": 77, "duration": 6, "velocity": 77}, {"time": 881, "pitch": 77, "duration": 6, "velocity": 95}, {"time": 887, "pitch": 76, "duration": 6, "velocity": 73}, {"time": 893, "pitch": 77, "duration": 6, "velocity": 87}, {"time": 899, "pitch": 76, "duration": 6, "velocity": 67}, {"time": 905, "pitch": 74, "duration": 8, "velocity": 85}, {"time": 911, "pitch": 72, "duration": 6, "velocity": 71}, {"time": 917, "pitch": 74, "duration": 6, "velocity": 87}, {"time": 923, "pitch": 74, "duration": 6, "velocity": 83}, {"time": 929, "pitch": 74, "duration": 6, "velocity": 93}, {"time": 935, "pitch": 74, "duration": 6, "velocity": 86}, {"time": 941, "pitch": 74, "duration": 6, "velocity": 104}, {"time": 947, "pitch": 72, "duration": 3, "velocity": 68}, {"time": 950, "pitch": 81, "duration": 6, "velocity": 98}, {"time": 956, "pitch": 79, "duration": 9, "velocity": 108}, {"time": 965, "pitch": 79, "duration": 6, "velocity": 93}, {"time": 971, "pitch": 77, "duration": 3, "velocity": 65}, {"time": 974, "pitch": 77, "duration": 6, "velocity": 83}, {"time": 980, "pitch": 76, "duration": 6, "velocity": 87}, {"time": 986, "pitch": 76, "duration": 6, "velocity": 81}, {"time": 992, "pitch": 74, "duration": 6, "velocity": 74}, {"time": 998, "pitch": 77, "duration": 6, "velocity": 90}, {"time": 1004, "pitch": 76, "duration": 9, "velocity": 81}, {"time": 1013, "pitch": 79, "duration": 6, "velocity": 104}, {"time": 1019, "pitch": 77, "duration": 3, "velocity": 90}, {"time": 1022, "pitch": 77, "duration": 6, "velocity": 93}, {"time": 1028, "pitch": 76, "duration": 6, "velocity": 86}, {"time": 1034, "pitch": 76, "duration": 6, "velocity": 75}, {"time": 1040, "pitch": 74, "duration": 6, "velocity": 75}, {"time": 1046, "pitch": 74, "duration": 6, "velocity": 86}, {"time": 1052, "pitch": 72, "duration": 9, "velocity": 74}, {"time": 1061, "pitch": 77, "duration": 6, "velocity": 95}, {"time": 1067, "pitch": 76, "duration": 3, "velocity": 71}, {"time": 1070, "pitch": 77, "duration": 6, "velocity": 85}, {"time": 1076, "pitch": 79, "duration": 6, "velocity": 100}, {"time": 1082, "pitch": 79, "duration": 6, "velocity": 98}, {"time": 1088, "pitch": 77, "duration": 4, "velocity": 79}, {"time": 1091, "pitch": 76, "duration": 3, "velocity": 69}, {"time": 1094, "pitch": 77, "duration": 15, "velocity": 100}, {"time": 1109, "pitch": 80, "duration": 6, "velocity": 100}, {"time": 1115, "pitch": 80, "duration": 3, "velocity": 87}, {"time": 1118, "pitch": 80, "duration": 6, "velocity": 85}, {"time": 1124, "pitch": 82, "duration": 6, "velocity": 67}, {"time": 1130, "pitch": 82, "duration": 6, "velocity": 112}, {"time": 1136, "pitch": 80, "duration": 3, "velocity": 83}, {"time": 1139, "pitch": 79, "duration": 3, "velocity": 77}, {"time": 1142, "pitch": 80, "duration": 15, "velocity": 95}, {"time": 1157, "pitch": 79, "duration": 6, "velocity": 93}, {"time": 1163, "pitch": 77, "duration": 3, "velocity": 65}, {"time": 1166, "pitch": 77, "duration": 6, "velocity": 83}, {"time": 1172, "pitch": 76, "duration": 6, "velocity": 87}, {"time": 1178, "pitch": 76, "duration": 6, "velocity": 81}, {"time": 1184, "pitch": 74, "duration": 6, "velocity": 74}, {"time": 1190, "pitch": 77, "duration": 6, "velocity": 90}, {"time": 1196, "pitch": 76, "duration": 9, "velocity": 81}, {"time": 1205, "pitch": 79, "duration": 6, "velocity": 104}, {"time": 1211, "pitch": 77, "duration": 3, "velocity": 90}, {"time": 1214, "pitch": 77, "duration": 6, "velocity": 93}, {"time": 1220, "pitch": 76, "duration": 6, "velocity": 86}, {"time": 1226, "pitch": 76, "duration": 6, "velocity": 75}, {"time": 1232, "pitch": 74, "duration": 6, "velocity": 75}, {"time": 1238, "pitch": 74, "duration": 6, "velocity": 86}, {"time": 1244, "pitch": 72, "duration": 9, "velocity": 74}, {"time": 1253, "pitch": 77, "duration": 6, "velocity": 95}, {"time": 1259, "pitch": 76, "duration": 3, "velocity": 71}, {"time": 1262, "pitch": 77, "duration": 6, "velocity": 85}, {"time": 1268, "pitch": 79, "duration": 6, "velocity": 100}, {"time": 1274, "pitch": 79, "duration": 6, "velocity": 98}, {"time": 1280, "pitch": 77, "duration": 4, "velocity": 79}, {"time": 1283, "pitch": 76, "duration": 3, "velocity": 69}, {"time": 1286, "pitch": 77, "duration": 12, "velocity": 100}, {"time": 1298, "pitch": 76, "duration": 3, "velocity": 70}, {"time": 1301, "pitch": 77, "duration": 6, "velocity": 95}, {"time": 1307, "pitch": 76, "duration": 3, "velocity": 68}, {"time": 1310, "pitch": 77, "duration": 6, "velocity": 100}, {"time": 1316, "pitch": 79, "duration": 9, "velocity": 93}, {"time": 1325, "pitch": 77, "duration": 4, "velocity": 86}, {"time": 1328, "pitch": 76, "duration": 3, "velocity": 53}, {"time": 1331, "pitch": 72, "duration": 7, "velocity": 69}, {"time": 1337, "pitch": 74, "duration": 6, "velocity": 74}, {"time": 1343, "pitch": 74, "duration": 6, "velocity": 90}, {"time": 1349, "pitch": 72, "duration": 210, "velocity": 77}, {"time": 1559, "pitch": 67, "duration": 6, "velocity": 76}, {"time": 1565, "pitch": 76, "duration": 6, "velocity": 55}, {"time": 1571, "pitch": 74, "duration": 6, "velocity": 66}, {"time": 1577, "pitch": 74, "duration": 6, "velocity": 77}, {"time": 1583, "pitch": 76, "duration": 12, "velocity": 81}, {"time": 1595, "pitch": 74, "duration": 12, "velocity": 75}, {"time": 1607, "pitch": 67, "duration": 6, "velocity": 74}, {"time": 1613, "pitch": 76, "duration": 7, "velocity": 86}, {"time": 1619, "pitch": 74, "duration": 6, "velocity": 74}, {"time": 1625, "pitch": 74, "duration": 1, "velocity": 63}, {"time": 1631, "pitch": 76, "duration": 6, "velocity": 65}, {"time": 1637, "pitch": 72, "duration": 36, "velocity": 76}, {"time": 1673, "pitch": 72, "duration": 7, "velocity": 70}, {"time": 1679, "pitch": 74, "duration": 6, "velocity": 68}, {"time": 1685, "pitch": 76, "duration": 6, "velocity": 77}, {"time": 1691, "pitch": 72, "duration": 6, "velocity": 67}, {"time": 1697, "pitch": 72, "duration": 6, "velocity": 69}, {"time": 1703, "pitch": 74, "duration": 6, "velocity": 68}, {"time": 1709, "pitch": 76, "duration": 6, "velocity": 71}, {"time": 1715, "pitch": 72, "duration": 6, "velocity": 64}, {"time": 1721, "pitch": 77, "duration": 6, "velocity": 85}, {"time": 1727, "pitch": 76, "duration": 24, "velocity": 67}, {"time": 1751, "pitch": 67, "duration": 7, "velocity": 68}, {"time": 1757, "pitch": 76, "duration": 6, "velocity": 65}, {"time": 1763, "pitch": 74, "duration": 6, "velocity": 60}, {"time": 1769, "pitch": 74, "duration": 6, "velocity": 70}, {"time": 1775, "pitch": 76, "duration": 12, "velocity": 74}, {"time": 1787, "pitch": 74, "duration": 12, "velocity": 66}, {"time": 1799, "pitch": 67, "duration": 6, "velocity": 64}, {"time": 1805, "pitch": 76, "duration": 7, "velocity": 74}, {"time": 1811, "pitch": 74, "duration": 6, "velocity": 67}, {"time": 1817, "pitch": 74, "duration": 1, "velocity": 68}, {"time": 1823, "pitch": 76, "duration": 12, "velocity": 74}, {"time": 1835, "pitch": 72, "duration": 30, "velocity": 67}, {"time": 1865, "pitch": 72, "duration": 7, "velocity": 73}, {"time": 1871, "pitch": 74, "duration": 6, "velocity": 73}, {"time": 1877, "pitch": 76, "duration": 6, "velocity": 71}, {"time": 1883, "pitch": 72, "duration": 6, "velocity": 65}, {"time": 1889, "pitch": 72, "duration": 7, "velocity": 71}, {"time": 1895, "pitch": 74, "duration": 6, "velocity": 67}, {"time": 1901, "pitch": 76, "duration": 6, "velocity": 73}, {"time": 1907, "pitch": 72, "duration": 7, "velocity": 64}, {"time": 1913, "pitch": 74, "duration": 6, "velocity": 85}, {"time": 1919, "pitch": 72, "duration": 12, "velocity": 85}, {"time": 1931, "pitch": 72, "duration": 1, "velocity": 71}, {"time": 1937, "pitch": 72, "duration": 6, "velocity": 75}, {"time": 1943, "pitch": 71, "duration": 6, "velocity": 74}, {"time": 1949, "pitch": 67, "duration": 6, "velocity": 74}, {"time": 1955, "pitch": 72, "duration": 6, "velocity": 70}, {"time": 1961, "pitch": 71, "duration": 6, "velocity": 64}, {"time": 1967, "pitch": 67, "duration": 12, "velocity": 68}, {"time": 1979, "pitch": 72, "duration": 6, "velocity": 70}, {"time": 1985, "pitch": 72, "duration": 6, "velocity": 74}, {"time": 1991, "pitch": 71, "duration": 6, "velocity": 68}, {"time": 1997, "pitch": 67, "duration": 7, "velocity": 67}, {"time": 2003, "pitch": 72, "duration": 7, "velocity": 74}, {"time": 2009, "pitch": 71, "duration": 6, "velocity": 70}, {"time": 2015, "pitch": 67, "duration": 12, "velocity": 69}, {"time": 2027, "pitch": 72, "duration": 6, "velocity": 67}, {"time": 2033, "pitch": 71, "duration": 6, "velocity": 74}, {"time": 2039, "pitch": 72, "duration": 6, "velocity": 67}, {"time": 2045, "pitch": 67, "duration": 7, "velocity": 71}, {"time": 2051, "pitch": 72, "duration": 6, "velocity": 74}, {"time": 2057, "pitch": 71, "duration": 6, "velocity": 68}, {"time": 2063, "pitch": 72, "duration": 6, "velocity": 75}, {"time": 2069, "pitch": 74, "duration": 6, "velocity": 72}, {"time": 2075, "pitch": 74, "duration": 6, "velocity": 76}, {"time": 2081, "pitch": 74, "duration": 6, "velocity": 76}, {"time": 2087, "pitch": 74, "duration": 6, "velocity": 83}, {"time": 2093, "pitch": 74, "duration": 6, "velocity": 93}, {"time": 2099, "pitch": 72, "duration": 6, "velocity": 68}, {"time": 2105, "pitch": 76, "duration": 6, "velocity": 90}, {"time": 2111, "pitch": 74, "duration": 12, "velocity": 79}, {"time": 2123, "pitch": 77, "duration": 6, "velocity": 85}, {"time": 2129, "pitch": 77, "duration": 6, "velocity": 85}, {"time": 2135, "pitch": 76, "duration": 6, "velocity": 74}, {"time": 2141, "pitch": 77, "duration": 6, "velocity": 77}, {"time": 2147, "pitch": 79, "duration": 6, "velocity": 85}, {"time": 2153, "pitch": 76, "duration": 6, "velocity": 85}, {"time": 2159, "pitch": 74, "duration": 12, "velocity": 87}, {"time": 2171, "pitch": 76, "duration": 6, "velocity": 64}, {"time": 2177, "pitch": 76, "duration": 6, "velocity": 70}, {"time": 2183, "pitch": 74, "duration": 6, "velocity": 67}, {"time": 2189, "pitch": 76, "duration": 6, "velocity": 67}, {"time": 2195, "pitch": 74, "duration": 6, "velocity": 63}, {"time": 2201, "pitch": 72, "duration": 3, "velocity": 64}, {"time": 2204, "pitch": 69, "duration": 4, "velocity": 49}, {"time": 2207, "pitch": 72, "duration": 16, "velocity": 66}, {"time": 2219, "pitch": 77, "duration": 6, "velocity": 77}, {"time": 2225, "pitch": 77, "duration": 6, "velocity": 95}, {"time": 2231, "pitch": 76, "duration": 6, "velocity": 73}, {"time": 2237, "pitch": 77, "duration": 6, "velocity": 87}, {"time": 2243, "pitch": 76, "duration": 6, "velocity": 67}, {"time": 2249, "pitch": 74, "duration": 8, "velocity": 85}, {"time": 2255, "pitch": 72, "duration": 6, "velocity": 71}, {"time": 2261, "pitch": 74, "duration": 6, "velocity": 87}, {"time": 2267, "pitch": 74, "duration": 6, "velocity": 83}, {"time": 2273, "pitch": 74, "duration": 6, "velocity": 93}, {"time": 2279, "pitch": 74, "duration": 6, "velocity": 86}, {"time": 2285, "pitch": 74, "duration": 6, "velocity": 104}, {"time": 2291, "pitch": 72, "duration": 3, "velocity": 68}, {"time": 2294, "pitch": 81, "duration": 6, "velocity": 98}, {"time": 2300, "pitch": 79, "duration": 9, "velocity": 108}, {"time": 2309, "pitch": 79, "duration": 6, "velocity": 93}, {"time": 2315, "pitch": 77, "duration": 3, "velocity": 65}, {"time": 2318, "pitch": 77, "duration": 6, "velocity": 83}, {"time": 2324, "pitch": 76, "duration": 6, "velocity": 87}, {"time": 2330, "pitch": 76, "duration": 6, "velocity": 81}, {"time": 2336, "pitch": 74, "duration": 6, "velocity": 74}, {"time": 2342, "pitch": 77, "duration": 6, "velocity": 90}, {"time": 2348, "pitch": 76, "duration": 9, "velocity": 81}, {"time": 2357, "pitch": 79, "duration": 6, "velocity": 104}, {"time": 2363, "pitch": 77, "duration": 3, "velocity": 90}, {"time": 2366, "pitch": 77, "duration": 6, "velocity": 93}, {"time": 2372, "pitch": 76, "duration": 6, "velocity": 86}, {"time": 2378, "pitch": 76, "duration": 6, "velocity": 75}, {"time": 2384, "pitch": 74, "duration": 6, "velocity": 75}, {"time": 2390, "pitch": 74, "duration": 6, "velocity": 86}, {"time": 2396, "pitch": 72, "duration": 9, "velocity": 74}, {"time": 2405, "pitch": 77, "duration": 6, "velocity": 95}, {"time": 2411, "pitch": 76, "duration": 3, "velocity": 71}, {"time": 2414, "pitch": 77, "duration": 6, "velocity": 85}, {"time": 2420, "pitch": 79, "duration": 6, "velocity": 100}, {"time": 2426, "pitch": 79, "duration": 6, "velocity": 98}, {"time": 2432, "pitch": 77, "duration": 4, "velocity": 79}, {"time": 2435, "pitch": 76, "duration": 3, "velocity": 69}, {"time": 2438, "pitch": 77, "duration": 15, "velocity": 100}, {"time": 2453, "pitch": 80, "duration": 6, "velocity": 100}, {"time": 2459, "pitch": 80, "duration": 3, "velocity": 87}, {"time": 2462, "pitch": 80, "duration": 6, "velocity": 85}, {"time": 2468, "pitch": 82, "duration": 6, "velocity": 67}, {"time": 2474, "pitch": 82, "duration": 6, "velocity": 112}, {"time": 2480, "pitch": 80, "duration": 3, "velocity": 83}, {"time": 2483, "pitch": 79, "duration": 3, "velocity": 77}, {"time": 2486, "pitch": 80, "duration": 15, "velocity": 95}, {"time": 2501, "pitch": 79, "duration": 6, "velocity": 93}, {"time": 2507, "pitch": 77, "duration": 3, "velocity": 65}, {"time": 2510, "pitch": 77, "duration": 6, "velocity": 83}, {"time": 2516, "pitch": 76, "duration": 6, "velocity": 87}, {"time": 2522, "pitch": 76, "duration": 6, "velocity": 81}, {"time": 2528, "pitch": 74, "duration": 6, "velocity": 74}, {"time": 2534, "pitch": 77, "duration": 6, "velocity": 90}, {"time": 2540, "pitch": 76, "duration": 9, "velocity": 81}, {"time": 2549, "pitch": 79, "duration": 6, "velocity": 104}, {"time": 2555, "pitch": 77, "duration": 3, "velocity": 90}, {"time": 2558, "pitch": 77, "duration": 6, "velocity": 93}, {"time": 2564, "pitch": 76, "duration": 6, "velocity": 86}, {"time": 2570, "pitch": 76, "duration": 6, "velocity": 75}, {"time": 2576, "pitch": 74, "duration": 6, "velocity": 75}, {"time": 2582, "pitch": 74, "duration": 6, "velocity": 86}, {"time": 2588, "pitch": 72, "duration": 9, "velocity": 74}, {"time": 2597, "pitch": 77, "duration": 6, "velocity": 95}, {"time": 2603, "pitch": 76, "duration": 3, "velocity": 71}, {"time": 2606, "pitch": 77, "duration": 6, "velocity": 85}, {"time": 2612, "pitch": 79, "duration": 6, "velocity": 100}, {"time": 2618, "pitch": 79, "duration": 6, "velocity": 98}, {"time": 2624, "pitch": 77, "duration": 4, "velocity": 79}, {"time": 2627, "pitch": 76, "duration": 3, "velocity": 69}, {"time": 2630, "pitch": 77, "duration": 12, "velocity": 100}, {"time": 2642, "pitch": 76, "duration": 3, "velocity": 70}, {"time": 2645, "pitch": 77, "duration": 6, "velocity": 95}, {"time": 2651, "pitch": 76, "duration": 3, "velocity": 68}, {"time": 2654, "pitch": 77, "duration": 6, "velocity": 100}, {"time": 2660, "pitch": 79, "duration": 9, "velocity": 93}, {"time": 2669, "pitch": 77, "duration": 4, "velocity": 86}, {"time": 2672, "pitch": 76, "duration": 3, "velocity": 53}, {"time": 2675, "pitch": 72, "duration": 7, "velocity": 69}, {"time": 2681, "pitch": 74, "duration": 6, "velocity": 74}, {"time": 2687, "pitch": 74, "duration": 6, "velocity": 90}, {"time": 2693, "pitch": 72, "duration": 48, "velocity": 77}, {"time": 2741, "pitch": 80, "duration": 6, "velocity": 93}, {"time": 2747, "pitch": 78, "duration": 3, "velocity": 65}, {"time": 2750, "pitch": 78, "duration": 6, "velocity": 83}, {"time": 2756, "pitch": 77, "duration": 6, "velocity": 87}, {"time": 2762, "pitch": 77, "duration": 6, "velocity": 81}, {"time": 2768, "pitch": 75, "duration": 6, "velocity": 74}, {"time": 2774, "pitch": 78, "duration": 6, "velocity": 90}, {"time": 2780, "pitch": 77, "duration": 9, "velocity": 81}, {"time": 2789, "pitch": 80, "duration": 6, "velocity": 104}, {"time": 2795, "pitch": 78, "duration": 3, "velocity": 90}, {"time": 2798, "pitch": 78, "duration": 6, "velocity": 93}, {"time": 2804, "pitch": 77, "duration": 6, "velocity": 86}, {"time": 2810, "pitch": 77, "duration": 6, "velocity": 75}, {"time": 2816, "pitch": 75, "duration": 6, "velocity": 75}, {"time": 2822, "pitch": 75, "duration": 6, "velocity": 86}, {"time": 2828, "pitch": 73, "duration": 9, "velocity": 74}, {"time": 2837, "pitch": 78, "duration": 6, "velocity": 95}, {"time": 2843, "pitch": 77, "duration": 3, "velocity": 71}, {"time": 2846, "pitch": 78, "duration": 6, "velocity": 85}, {"time": 2852, "pitch": 80, "duration": 6, "velocity": 100}, {"time": 2858, "pitch": 80, "duration": 6, "velocity": 98}, {"time": 2864, "pitch": 78, "duration": 4, "velocity": 79}, {"time": 2867, "pitch": 77, "duration": 3, "velocity": 69}, {"time": 2870, "pitch": 78, "duration": 15, "velocity": 100}, {"time": 2885, "pitch": 81, "duration": 6, "velocity": 100}, {"time": 2891, "pitch": 81, "duration": 3, "velocity": 87}, {"time": 2894, "pitch": 81, "duration": 6, "velocity": 85}, {"time": 2900, "pitch": 83, "duration": 6, "velocity": 67}, {"time": 2906, "pitch": 83, "duration": 6, "velocity": 112}, {"time": 2912, "pitch": 81, "duration": 3, "velocity": 83}, {"time": 2915, "pitch": 80, "duration": 3, "velocity": 77}, {"time": 2918, "pitch": 81, "duration": 15, "velocity": 95}, {"time": 2933, "pitch": 80, "duration": 6, "velocity": 93}, {"time": 2939, "pitch": 78, "duration": 3, "velocity": 65}, {"time": 2942, "pitch": 78, "duration": 6, "velocity": 83}, {"time": 2948, "pitch": 77, "duration": 6, "velocity": 87}, {"time": 2954, "pitch": 77, "duration": 6, "velocity": 81}, {"time": 2960, "pitch": 75, "duration": 6, "velocity": 74}, {"time": 2966, "pitch": 78, "duration": 6, "velocity": 90}, {"time": 2972, "pitch": 77, "duration": 9, "velocity": 81}, {"time": 2981, "pitch": 80, "duration": 6, "velocity": 104}, {"time": 2987, "pitch": 78, "duration": 3, "velocity": 90}, {"time": 2990, "pitch": 78, "duration": 6, "velocity": 93}, {"time": 2996, "pitch": 77, "duration": 6, "velocity": 86}, {"time": 3002, "pitch": 77, "duration": 6, "velocity": 75}, {"time": 3008, "pitch": 75, "duration": 6, "velocity": 75}, {"time": 3014, "pitch": 75, "duration": 6, "velocity": 86}, {"time": 3020, "pitch": 73, "duration": 9, "velocity": 74}, {"time": 3029, "pitch": 78, "duration": 6, "velocity": 95}, {"time": 3035, "pitch": 77, "duration": 3, "velocity": 71}, {"time": 3038, "pitch": 78, "duration": 6, "velocity": 85}, {"time": 3044, "pitch": 80, "duration": 6, "velocity": 100}, {"time": 3050, "pitch": 80, "duration": 6, "velocity": 98}, {"time": 3056, "pitch": 78, "duration": 4, "velocity": 79}, {"time": 3059, "pitch": 77, "duration": 3, "velocity": 69}, {"time": 3062, "pitch": 78, "duration": 12, "velocity": 100}, {"time": 3074, "pitch": 77, "duration": 3, "velocity": 70}, {"time": 3077, "pitch": 78, "duration": 6, "velocity": 95}, {"time": 3083, "pitch": 77, "duration": 3, "velocity": 68}, {"time": 3086, "pitch": 78, "duration": 6, "velocity": 100}, {"time": 3092, "pitch": 80, "duration": 9, "velocity": 93}, {"time": 3101, "pitch": 78, "duration": 4, "velocity": 86}, {"time": 3104, "pitch": 77, "duration": 3, "velocity": 53}, {"time": 3107, "pitch": 73, "duration": 7, "velocity": 69}, {"time": 3113, "pitch": 75, "duration": 6, "velocity": 74}, {"time": 3119, "pitch": 75, "duration": 6, "velocity": 90}, {"time": 3125, "pitch": 73, "duration": 43, "velocity": 77}]}, {"program": 0, "is_drum": false, "name": "BRIDGE", "notes": [{"time": 5, "pitch": 72, "duration": 5, "velocity": 69}, {"time": 11, "pitch": 69, "duration": 6, "velocity": 56}, {"time": 17, "pitch": 72, "duration": 7, "velocity": 67}, {"time": 23, "pitch": 69, "duration": 6, "velocity": 70}, {"time": 29, "pitch": 81, "duration": 7, "velocity": 59}, {"time": 35, "pitch": 69, "duration": 6, "velocity": 58}, {"time": 41, "pitch": 72, "duration": 7, "velocity": 61}, {"time": 47, "pitch": 69, "duration": 6, "velocity": 56}, {"time": 53, "pitch": 72, "duration": 7, "velocity": 63}, {"time": 59, "pitch": 69, "duration": 6, "velocity": 56}, {"time": 62, "pitch": 72, "duration": 7, "velocity": 64}, {"time": 71, "pitch": 69, "duration": 7, "velocity": 58}, {"time": 77, "pitch": 81, "duration": 7, "velocity": 59}, {"time": 83, "pitch": 69, "duration": 7, "velocity": 55}, {"time": 89, "pitch": 72, "duration": 7, "velocity": 63}, {"time": 95, "pitch": 69, "duration": 6, "velocity": 50}, {"time": 101, "pitch": 72, "duration": 6, "velocity": 67}, {"time": 107, "pitch": 69, "duration": 6, "velocity": 58}, {"time": 113, "pitch": 72, "duration": 7, "velocity": 61}, {"time": 119, "pitch": 69, "duration": 7, "velocity": 52}, {"time": 125, "pitch": 81, "duration": 7, "velocity": 70}, {"time": 131, "pitch": 69, "duration": 6, "velocity": 60}, {"time": 137, "pitch": 72, "duration": 6, "velocity": 63}, {"time": 143, "pitch": 69, "duration": 6, "velocity": 56}, {"time": 149, "pitch": 72, "duration": 7, "velocity": 62}, {"time": 155, "pitch": 69, "duration": 7, "velocity": 55}, {"time": 161, "pitch": 72, "duration": 8, "velocity": 62}, {"time": 167, "pitch": 69, "duration": 5, "velocity": 52}, {"time": 173, "pitch": 74, "duration": 13, "velocity": 79}, {"time": 389, "pitch": 60, "duration": 9, "velocity": 64}, {"time": 395, "pitch": 67, "duration": 5, "velocity": 73}, {"time": 401, "pitch": 72, "duration": 35, "velocity": 76}, {"time": 437, "pitch": 58, "duration": 6, "velocity": 72}, {"time": 443, "pitch": 67, "duration": 4, "velocity": 54}, {"time": 449, "pitch": 72, "duration": 36, "velocity": 49}, {"time": 485, "pitch": 57, "duration": 12, "velocity": 60}, {"time": 491, "pitch": 64, "duration": 7, "velocity": 67}, {"time": 497, "pitch": 69, "duration": 34, "velocity": 63}, {"time": 533, "pitch": 65, "duration": 7, "velocity": 83}, {"time": 539, "pitch": 68, "duration": 6, "velocity": 59}, {"time": 545, "pitch": 72, "duration": 31, "velocity": 73}, {"time": 1349, "pitch": 72, "duration": 27, "velocity": 69}, {"time": 1379, "pitch": 74, "duration": 4, "velocity": 73}, {"time": 1382, "pitch": 76, "duration": 2, "velocity": 64}, {"time": 1385, "pitch": 77, "duration": 4, "velocity": 83}, {"time": 1391, "pitch": 76, "duration": 6, "velocity": 71}, {"time": 1397, "pitch": 79, "duration": 14, "velocity": 98}, {"time": 1415, "pitch": 77, "duration": 3, "velocity": 74}, {"time": 1418, "pitch": 76, "duration": 3, "velocity": 60}, {"time": 1421, "pitch": 72, "duration": 12, "velocity": 74}, {"time": 1436, "pitch": 74, "duration": 4, "velocity": 62}, {"time": 1439, "pitch": 76, "duration": 3, "velocity": 64}, {"time": 1442, "pitch": 77, "duration": 2, "velocity": 83}, {"time": 1445, "pitch": 79, "duration": 5, "velocity": 93}, {"time": 1451, "pitch": 72, "duration": 19, "velocity": 69}, {"time": 1488, "pitch": 79, "duration": 2, "velocity": 64}, {"time": 1490, "pitch": 77, "duration": 1, "velocity": 114}, {"time": 1490, "pitch": 76, "duration": 1, "velocity": 87}, {"time": 1490, "pitch": 74, "duration": 1, "velocity": 75}, {"time": 1491, "pitch": 71, "duration": 1, "velocity": 86}, {"time": 1492, "pitch": 69, "duration": 2, "velocity": 77}, {"time": 1493, "pitch": 65, "duration": 6, "velocity": 90}, {"time": 1499, "pitch": 68, "duration": 6, "velocity": 90}, {"time": 1505, "pitch": 74, "duration": 6, "velocity": 81}, {"time": 1511, "pitch": 72, "duration": 31, "velocity": 74}, {"time": 1733, "pitch": 60, "duration": 9, "velocity": 64}, {"time": 1739, "pitch": 67, "duration": 5, "velocity": 73}, {"time": 1745, "pitch": 72, "duration": 35, "velocity": 76}, {"time": 1781, "pitch": 58, "duration": 6, "velocity": 72}, {"time": 1787, "pitch": 67, "duration": 4, "velocity": 54}, {"time": 1793, "pitch": 72, "duration": 36, "velocity": 49}, {"time": 1829, "pitch": 57, "duration": 12, "velocity": 60}, {"time": 1835, "pitch": 64, "duration": 7, "velocity": 67}, {"time": 1841, "pitch": 69, "duration": 34, "velocity": 63}, {"time": 1877, "pitch": 65, "duration": 7, "velocity": 83}, {"time": 1883, "pitch": 68, "duration": 6, "velocity": 59}, {"time": 1889, "pitch": 72, "duration": 31, "velocity": 73}, {"time": 2741, "pitch": 73, "duration": 9, "velocity": 127}, {"time": 2753, "pitch": 73, "duration": 10, "velocity": 127}, {"time": 2765, "pitch": 73, "duration": 5, "velocity": 127}, {"time": 2771, "pitch": 68, "duration": 6, "velocity": 127}, {"time": 2777, "pitch": 73, "duration": 6, "velocity": 127}, {"time": 2783, "pitch": 65, "duration": 3, "velocity": 120}, {"time": 2786, "pitch": 66, "duration": 3, "velocity": 127}, {"time": 2789, "pitch": 65, "duration": 5, "velocity": 125}, {"time": 2795, "pitch": 73, "duration": 4, "velocity": 127}, {"time": 2801, "pitch": 73, "duration": 5, "velocity": 121}, {"time": 2807, "pitch": 65, "duration": 6, "velocity": 110}, {"time": 2813, "pitch": 73, "duration": 5, "velocity": 127}, {"time": 2819, "pitch": 65, "duration": 6, "velocity": 104}, {"time": 2825, "pitch": 73, "duration": 5, "velocity": 127}, {"time": 2831, "pitch": 66, "duration": 3, "velocity": 126}, {"time": 2834, "pitch": 65, "duration": 2, "velocity": 127}, {"time": 2837, "pitch": 66, "duration": 6, "velocity": 127}, {"time": 2843, "pitch": 68, "duration": 4, "velocity": 127}, {"time": 2849, "pitch": 68, "duration": 16, "velocity": 127}, {"time": 2873, "pitch": 66, "duration": 3, "velocity": 126}, {"time": 2876, "pitch": 65, "duration": 3, "velocity": 109}, {"time": 2879, "pitch": 68, "duration": 7, "velocity": 127}, {"time": 2885, "pitch": 66, "duration": 6, "velocity": 127}, {"time": 2891, "pitch": 73, "duration": 4, "velocity": 103}, {"time": 2897, "pitch": 73, "duration": 25, "velocity": 127}, {"time": 2927, "pitch": 66, "duration": 3, "velocity": 127}, {"time": 2930, "pitch": 65, "duration": 3, "velocity": 127}, {"time": 2933, "pitch": 68, "duration": 6, "velocity": 127}, {"time": 2933, "pitch": 73, "duration": 9, "velocity": 127}, {"time": 2945, "pitch": 73, "duration": 10, "velocity": 127}, {"time": 2957, "pitch": 73, "duration": 5, "velocity": 127}, {"time": 2963, "pitch": 68, "duration": 6, "velocity": 127}, {"time": 2969, "pitch": 73, "duration": 6, "velocity": 127}, {"time": 2975, "pitch": 65, "duration": 3, "velocity": 120}, {"time": 2978, "pitch": 66, "duration": 3, "velocity": 127}, {"time": 2981, "pitch": 65, "duration": 5, "velocity": 125}, {"time": 2987, "pitch": 73, "duration": 4, "velocity": 127}, {"time": 2993, "pitch": 73, "duration": 5, "velocity": 121}, {"time": 2999, "pitch": 65, "duration": 6, "velocity": 110}, {"time": 3005, "pitch": 73, "duration": 5, "velocity": 127}, {"time": 3011, "pitch": 65, "duration": 6, "velocity": 104}, {"time": 3017, "pitch": 73, "duration": 5, "velocity": 127}, {"time": 3023, "pitch": 66, "duration": 3, "velocity": 126}, {"time": 3026, "pitch": 65, "duration": 2, "velocity": 127}, {"time": 3029, "pitch": 66, "duration": 6, "velocity": 127}, {"time": 3035, "pitch": 68, "duration": 4, "velocity": 127}, {"time": 3041, "pitch": 68, "duration": 16, "velocity": 127}, {"time": 3065, "pitch": 66, "duration": 3, "velocity": 126}, {"time": 3068, "pitch": 65, "duration": 3, "velocity": 109}, {"time": 3071, "pitch": 68, "duration": 7, "velocity": 127}, {"time": 3077, "pitch": 66, "duration": 6, "velocity": 127}, {"time": 3083, "pitch": 73, "duration": 4, "velocity": 127}, {"time": 3089, "pitch": 73, "duration": 6, "velocity": 127}, {"time": 3095, "pitch": 66, "duration": 5, "velocity": 124}, {"time": 3101, "pitch": 73, "duration": 7, "velocity": 120}, {"time": 3107, "pitch": 66, "duration": 6, "velocity": 112}, {"time": 3113, "pitch": 73, "duration": 6, "velocity": 123}, {"time": 3119, "pitch": 66, "duration": 5, "velocity": 121}, {"time": 3125, "pitch": 73, "duration": 5, "velocity": 127}, {"time": 3125, "pitch": 73, "duration": 5, "velocity": 69}, {"time": 3131, "pitch": 68, "duration": 5, "velocity": 112}, {"time": 3131, "pitch": 70, "duration": 6, "velocity": 56}, {"time": 3137, "pitch": 73, "duration": 6, "velocity": 107}, {"time": 3137, "pitch": 73, "duration": 6, "velocity": 67}, {"time": 3143, "pitch": 68, "duration": 6, "velocity": 121}, {"time": 3143, "pitch": 70, "duration": 6, "velocity": 70}, {"time": 3149, "pitch": 73, "duration": 7, "velocity": 108}, {"time": 3149, "pitch": 82, "duration": 7, "velocity": 59}, {"time": 3155, "pitch": 68, "duration": 6, "velocity": 110}, {"time": 3155, "pitch": 70, "duration": 6, "velocity": 58}, {"time": 3161, "pitch": 73, "duration": 7, "velocity": 104}, {"time": 3161, "pitch": 73, "duration": 7, "velocity": 61}, {"time": 3167, "pitch": 68, "duration": 6, "velocity": 117}, {"time": 3167, "pitch": 70, "duration": 6, "velocity": 56}, {"time": 3173, "pitch": 73, "duration": 7, "velocity": 113}, {"time": 3173, "pitch": 73, "duration": 7, "velocity": 63}, {"time": 3179, "pitch": 68, "duration": 5, "velocity": 121}, {"time": 3179, "pitch": 70, "duration": 6, "velocity": 56}, {"time": 3182, "pitch": 73, "duration": 7, "velocity": 64}, {"time": 3185, "pitch": 73, "duration": 4, "velocity": 111}, {"time": 3191, "pitch": 68, "duration": 6, "velocity": 120}, {"time": 3191, "pitch": 70, "duration": 7, "velocity": 58}, {"time": 3197, "pitch": 73, "duration": 7, "velocity": 116}, {"time": 3197, "pitch": 82, "duration": 7, "velocity": 59}, {"time": 3203, "pitch": 68, "duration": 7, "velocity": 118}, {"time": 3203, "pitch": 70, "duration": 7, "velocity": 55}, {"time": 3209, "pitch": 73, "duration": 7, "velocity": 111}, {"time": 3209, "pitch": 73, "duration": 7, "velocity": 63}, {"time": 3215, "pitch": 68, "duration": 6, "velocity": 119}, {"time": 3215, "pitch": 70, "duration": 6, "velocity": 50}, {"time": 3221, "pitch": 73, "duration": 6, "velocity": 109}, {"time": 3221, "pitch": 73, "duration": 6, "velocity": 67}, {"time": 3227, "pitch": 68, "duration": 6, "velocity": 118}, {"time": 3227, "pitch": 70, "duration": 6, "velocity": 58}, {"time": 3233, "pitch": 73, "duration": 7, "velocity": 106}, {"time": 3233, "pitch": 73, "duration": 7, "velocity": 61}, {"time": 3239, "pitch": 68, "duration": 6, "velocity": 118}, {"time": 3239, "pitch": 70, "duration": 7, "velocity": 52}, {"time": 3245, "pitch": 73, "duration": 7, "velocity": 107}, {"time": 3245, "pitch": 82, "duration": 7, "velocity": 70}, {"time": 3251, "pitch": 68, "duration": 7, "velocity": 115}, {"time": 3251, "pitch": 70, "duration": 6, "velocity": 60}, {"time": 3257, "pitch": 73, "duration": 6, "velocity": 109}, {"time": 3257, "pitch": 73, "duration": 6, "velocity": 63}, {"time": 3263, "pitch": 68, "duration": 6, "velocity": 115}, {"time": 3263, "pitch": 70, "duration": 6, "velocity": 56}, {"time": 3269, "pitch": 73, "duration": 7, "velocity": 113}, {"time": 3269, "pitch": 73, "duration": 7, "velocity": 62}, {"time": 3275, "pitch": 68, "duration": 7, "velocity": 113}, {"time": 3275, "pitch": 70, "duration": 7, "velocity": 55}, {"time": 3281, "pitch": 73, "duration": 6, "velocity": 107}, {"time": 3281, "pitch": 73, "duration": 6, "velocity": 62}, {"time": 3287, "pitch": 68, "duration": 6, "velocity": 116}, {"time": 3287, "pitch": 70, "duration": 5, "velocity": 52}, {"time": 3293, "pitch": 75, "duration": 13, "velocity": 107}, {"time": 3293, "pitch": 75, "duration": 13, "velocity": 79}]}, {"program": 0, "is_drum": false, "name": "PIANO", "notes": [{"time": 5, "pitch": 45, "duration": 40, "velocity": 83}, {"time": 11, "pitch": 52, "duration": 34, "velocity": 58}, {"time": 17, "pitch": 60, "duration": 22, "velocity": 60}, {"time": 17, "pitch": 64, "duration": 11, "velocity": 63}, {"time": 17, "pitch": 69, "duration": 10, "velocity": 67}, {"time": 23, "pitch": 57, "duration": 18, "velocity": 46}, {"time": 29, "pitch": 64, "duration": 11, "velocity": 58}, {"time": 29, "pitch": 69, "duration": 10, "velocity": 66}, {"time": 41, "pitch": 60, "duration": 6, "velocity": 57}, {"time": 41, "pitch": 64, "duration": 6, "velocity": 61}, {"time": 41, "pitch": 69, "duration": 6, "velocity": 70}, {"time": 53, "pitch": 41, "duration": 39, "velocity": 76}, {"time": 53, "pitch": 57, "duration": 11, "velocity": 43}, {"time": 53, "pitch": 60, "duration": 11, "velocity": 59}, {"time": 53, "pitch": 65, "duration": 11, "velocity": 58}, {"time": 59, "pitch": 48, "duration": 37, "velocity": 63}, {"time": 65, "pitch": 57, "duration": 10, "velocity": 59}, {"time": 65, "pitch": 60, "duration": 11, "velocity": 56}, {"time": 65, "pitch": 65, "duration": 10, "velocity": 59}, {"time": 71, "pitch": 53, "duration": 11, "velocity": 41}, {"time": 74, "pitch": 60, "duration": 2, "velocity": 58}, {"time": 77, "pitch": 57, "duration": 11, "velocity": 59}, {"time": 77, "pitch": 65, "duration": 11, "velocity": 64}, {"time": 83, "pitch": 53, "duration": 7, "velocity": 50}, {"time": 89, "pitch": 57, "duration": 6, "velocity": 61}, {"time": 89, "pitch": 60, "duration": 6, "velocity": 64}, {"time": 89, "pitch": 65, "duration": 6, "velocity": 72}, {"time": 95, "pitch": 53, "duration": 6, "velocity": 53}, {"time": 101, "pitch": 48, "duration": 41, "velocity": 81}, {"time": 101, "pitch": 64, "duration": 11, "velocity": 64}, {"time": 101, "pitch": 67, "duration": 11, "velocity": 61}, {"time": 101, "pitch": 72, "duration": 11, "velocity": 62}, {"time": 113, "pitch": 64, "duration": 11, "velocity": 65}, {"time": 113, "pitch": 67, "duration": 11, "velocity": 66}, {"time": 113, "pitch": 72, "duration": 11, "velocity": 65}, {"time": 119, "pitch": 55, "duration": 22, "velocity": 55}, {"time": 125, "pitch": 64, "duration": 11, "velocity": 64}, {"time": 125, "pitch": 67, "duration": 11, "velocity": 61}, {"time": 125, "pitch": 72, "duration": 10, "velocity": 64}, {"time": 131, "pitch": 60, "duration": 6, "velocity": 52}, {"time": 137, "pitch": 64, "duration": 6, "velocity": 64}, {"time": 137, "pitch": 67, "duration": 6, "velocity": 71}, {"time": 137, "pitch": 72, "duration": 6, "velocity": 67}, {"time": 149, "pitch": 43, "duration": 40, "velocity": 68}, {"time": 149, "pitch": 59, "duration": 11, "velocity": 61}, {"time": 149, "pitch": 62, "duration": 11, "velocity": 58}, {"time": 149, "pitch": 67, "duration": 11, "velocity": 66}, {"time": 155, "pitch": 50, "duration": 37, "velocity": 58}, {"time": 161, "pitch": 59, "duration": 11, "velocity": 59}, {"time": 161, "pitch": 62, "duration": 11, "velocity": 62}, {"time": 161, "pitch": 67, "duration": 11, "velocity": 67}, {"time": 167, "pitch": 55, "duration": 6, "velocity": 45}, {"time": 173, "pitch": 59, "duration": 20, "velocity": 60}, {"time": 173, "pitch": 62, "duration": 20, "velocity": 62}, {"time": 173, "pitch": 67, "duration": 20, "velocity": 68}, {"time": 197, "pitch": 48, "duration": 40, "velocity": 81}, {"time": 197, "pitch": 64, "duration": 10, "velocity": 63}, {"time": 197, "pitch": 67, "duration": 10, "velocity": 75}, {"time": 203, "pitch": 55, "duration": 34, "velocity": 54}, {"time": 209, "pitch": 64, "duration": 10, "velocity": 68}, {"time": 209, "pitch": 67, "duration": 11, "velocity": 75}, {"time": 215, "pitch": 60, "duration": 7, "velocity": 51}, {"time": 221, "pitch": 64, "duration": 10, "velocity": 75}, {"time": 221, "pitch": 67, "duration": 10, "velocity": 77}, {"time": 227, "pitch": 60, "duration": 8, "velocity": 58}, {"time": 233, "pitch": 64, "duration": 5, "velocity": 68}, {"time": 233, "pitch": 67, "duration": 5, "velocity": 74}, {"time": 245, "pitch": 46, "duration": 39, "velocity": 69}, {"time": 245, "pitch": 62, "duration": 11, "velocity": 75}, {"time": 245, "pitch": 65, "duration": 11, "velocity": 81}, {"time": 251, "pitch": 50, "duration": 36, "velocity": 79}, {"time": 257, "pitch": 53, "duration": 32, "velocity": 68}, {"time": 257, "pitch": 62, "duration": 10, "velocity": 60}, {"time": 257, "pitch": 65, "duration": 11, "velocity": 74}, {"time": 269, "pitch": 62, "duration": 10, "velocity": 69}, {"time": 269, "pitch": 65, "duration": 10, "velocity": 76}, {"time": 281, "pitch": 62, "duration": 7, "velocity": 83}, {"time": 281, "pitch": 65, "duration": 7, "velocity": 85}, {"time": 293, "pitch": 45, "duration": 42, "velocity": 64}, {"time": 293, "pitch": 60, "duration": 11, "velocity": 65}, {"time": 293, "pitch": 64, "duration": 11, "velocity": 76}, {"time": 299, "pitch": 52, "duration": 35, "velocity": 58}, {"time": 305, "pitch": 60, "duration": 10, "velocity": 67}, {"time": 305, "pitch": 64, "duration": 10, "velocity": 73}, {"time": 311, "pitch": 57, "duration": 6, "velocity": 50}, {"time": 317, "pitch": 60, "duration": 10, "velocity": 63}, {"time": 317, "pitch": 64, "duration": 10, "velocity": 60}, {"time": 323, "pitch": 57, "duration": 7, "velocity": 51}, {"time": 329, "pitch": 60, "duration": 6, "velocity": 76}, {"time": 329, "pitch": 64, "duration": 6, "velocity": 83}, {"time": 341, "pitch": 41, "duration": 42, "velocity": 73}, {"time": 341, "pitch": 56, "duration": 10, "velocity": 60}, {"time": 341, "pitch": 60, "duration": 10, "velocity": 73}, {"time": 350, "pitch": 48, "duration": 33, "velocity": 51}, {"time": 353, "pitch": 56, "duration": 10, "velocity": 61}, {"time": 353, "pitch": 60, "duration": 11, "velocity": 73}, {"time": 359, "pitch": 53, "duration": 8, "velocity": 50}, {"time": 365, "pitch": 56, "duration": 11, "velocity": 64}, {"time": 365, "pitch": 60, "duration": 11, "velocity": 73}, {"time": 371, "pitch": 53, "duration": 7, "velocity": 54}, {"time": 377, "pitch": 56, "duration": 6, "velocity": 63}, {"time": 377, "pitch": 60, "duration": 6, "velocity": 79}, {"time": 377, "pitch": 65, "duration": 6, "velocity": 83}, {"time": 383, "pitch": 53, "duration": 6, "velocity": 58}, {"time": 389, "pitch": 48, "duration": 40, "velocity": 79}, {"time": 389, "pitch": 64, "duration": 10, "velocity": 75}, {"time": 389, "pitch": 67, "duration": 10, "velocity": 74}, {"time": 395, "pitch": 55, "duration": 40, "velocity": 56}, {"time": 401, "pitch": 64, "duration": 10, "velocity": 64}, {"time": 401, "pitch": 67, "duration": 11, "velocity": 74}, {"time": 401, "pitch": 72, "duration": 7, "velocity": 74}, {"time": 407, "pitch": 60, "duration": 7, "velocity": 59}, {"time": 413, "pitch": 64, "duration": 11, "velocity": 69}, {"time": 413, "pitch": 67, "duration": 11, "velocity": 79}, {"time": 419, "pitch": 60, "duration": 5, "velocity": 57}, {"time": 425, "pitch": 64, "duration": 11, "velocity": 74}, {"time": 425, "pitch": 67, "duration": 11, "velocity": 76}, {"time": 437, "pitch": 46, "duration": 42, "velocity": 75}, {"time": 443, "pitch": 50, "duration": 33, "velocity": 69}, {"time": 449, "pitch": 62, "duration": 10, "velocity": 64}, {"time": 449, "pitch": 65, "duration": 10, "velocity": 76}, {"time": 461, "pitch": 53, "duration": 3, "velocity": 60}, {"time": 461, "pitch": 62, "duration": 11, "velocity": 67}, {"time": 461, "pitch": 65, "duration": 11, "velocity": 75}, {"time": 467, "pitch": 53, "duration": 13, "velocity": 69}, {"time": 473, "pitch": 62, "duration": 6, "velocity": 77}, {"time": 473, "pitch": 65, "duration": 6, "velocity": 83}, {"time": 485, "pitch": 45, "duration": 42, "velocity": 73}, {"time": 485, "pitch": 60, "duration": 10, "velocity": 67}, {"time": 485, "pitch": 64, "duration": 10, "velocity": 74}, {"time": 491, "pitch": 52, "duration": 35, "velocity": 59}, {"time": 497, "pitch": 60, "duration": 10, "velocity": 67}, {"time": 497, "pitch": 64, "duration": 10, "velocity": 76}, {"time": 497, "pitch": 69, "duration": 10, "velocity": 69}, {"time": 503, "pitch": 57, "duration": 8, "velocity": 54}, {"time": 509, "pitch": 60, "duration": 10, "velocity": 70}, {"time": 509, "pitch": 64, "duration": 10, "velocity": 79}, {"time": 509, "pitch": 69, "duration": 10, "velocity": 74}, {"time": 515, "pitch": 57, "duration": 7, "velocity": 48}, {"time": 521, "pitch": 60, "duration": 6, "velocity": 77}, {"time": 521, "pitch": 64, "duration": 6, "velocity": 86}, {"time": 521, "pitch": 69, "duration": 6, "velocity": 85}, {"time": 533, "pitch": 41, "duration": 42, "velocity": 73}, {"time": 533, "pitch": 56, "duration": 11, "velocity": 63}, {"time": 533, "pitch": 60, "duration": 11, "velocity": 67}, {"time": 533, "pitch": 65, "duration": 10, "velocity": 72}, {"time": 539, "pitch": 48, "duration": 37, "velocity": 69}, {"time": 545, "pitch": 56, "duration": 10, "velocity": 74}, {"time": 545, "pitch": 60, "duration": 10, "velocity": 83}, {"time": 545, "pitch": 65, "duration": 10, "velocity": 83}, {"time": 551, "pitch": 53, "duration": 10, "velocity": 55}, {"time": 557, "pitch": 56, "duration": 10, "velocity": 65}, {"time": 557, "pitch": 60, "duration": 10, "velocity": 83}, {"time": 557, "pitch": 65, "duration": 10, "velocity": 85}, {"time": 563, "pitch": 53, "duration": 7, "velocity": 57}, {"time": 569, "pitch": 56, "duration": 6, "velocity": 85}, {"time": 569, "pitch": 60, "duration": 6, "velocity": 86}, {"time": 569, "pitch": 65, "duration": 6, "velocity": 95}, {"time": 575, "pitch": 53, "duration": 6, "velocity": 54}, {"time": 581, "pitch": 45, "duration": 41, "velocity": 74}, {"time": 581, "pitch": 60, "duration": 9, "velocity": 61}, {"time": 581, "pitch": 64, "duration": 9, "velocity": 65}, {"time": 587, "pitch": 52, "duration": 34, "velocity": 55}, {"time": 593, "pitch": 60, "duration": 11, "velocity": 73}, {"time": 593, "pitch": 64, "duration": 11, "velocity": 86}, {"time": 593, "pitch": 69, "duration": 11, "velocity": 73}, {"time": 599, "pitch": 57, "duration": 8, "velocity": 58}, {"time": 605, "pitch": 60, "duration": 10, "velocity": 67}, {"time": 605, "pitch": 64, "duration": 10, "velocity": 79}, {"time": 605, "pitch": 69, "duration": 10, "velocity": 79}, {"time": 611, "pitch": 57, "duration": 5, "velocity": 52}, {"time": 617, "pitch": 60, "duration": 6, "velocity": 79}, {"time": 617, "pitch": 64, "duration": 6, "velocity": 90}, {"time": 617, "pitch": 69, "duration": 6, "velocity": 90}, {"time": 629, "pitch": 41, "duration": 41, "velocity": 76}, {"time": 629, "pitch": 57, "duration": 11, "velocity": 67}, {"time": 629, "pitch": 60, "duration": 11, "velocity": 81}, {"time": 629, "pitch": 65, "duration": 11, "velocity": 87}, {"time": 635, "pitch": 48, "duration": 36, "velocity": 70}, {"time": 641, "pitch": 57, "duration": 10, "velocity": 68}, {"time": 641, "pitch": 60, "duration": 10, "velocity": 85}, {"time": 641, "pitch": 65, "duration": 10, "velocity": 86}, {"time": 647, "pitch": 53, "duration": 8, "velocity": 54}, {"time": 653, "pitch": 57, "duration": 11, "velocity": 64}, {"time": 653, "pitch": 60, "duration": 11, "velocity": 79}, {"time": 653, "pitch": 65, "duration": 10, "velocity": 83}, {"time": 659, "pitch": 53, "duration": 6, "velocity": 54}, {"time": 665, "pitch": 57, "duration": 6, "velocity": 75}, {"time": 665, "pitch": 60, "duration": 6, "velocity": 85}, {"time": 665, "pitch": 65, "duration": 6, "velocity": 83}, {"time": 671, "pitch": 53, "duration": 5, "velocity": 58}, {"time": 677, "pitch": 45, "duration": 39, "velocity": 74}, {"time": 677, "pitch": 60, "duration": 11, "velocity": 67}, {"time": 677, "pitch": 64, "duration": 11, "velocity": 70}, {"time": 677, "pitch": 69, "duration": 11, "velocity": 72}, {"time": 683, "pitch": 52, "duration": 33, "velocity": 58}, {"time": 689, "pitch": 60, "duration": 11, "velocity": 74}, {"time": 689, "pitch": 64, "duration": 11, "velocity": 81}, {"time": 689, "pitch": 69, "duration": 11, "velocity": 77}, {"time": 695, "pitch": 57, "duration": 7, "velocity": 47}, {"time": 701, "pitch": 60, "duration": 10, "velocity": 69}, {"time": 701, "pitch": 64, "duration": 10, "velocity": 74}, {"time": 701, "pitch": 69, "duration": 10, "velocity": 72}, {"time": 707, "pitch": 57, "duration": 9, "velocity": 51}, {"time": 713, "pitch": 60, "duration": 5, "velocity": 74}, {"time": 713, "pitch": 64, "duration": 5, "velocity": 86}, {"time": 713, "pitch": 69, "duration": 5, "velocity": 77}, {"time": 725, "pitch": 46, "duration": 45, "velocity": 64}, {"time": 725, "pitch": 62, "duration": 11, "velocity": 79}, {"time": 725, "pitch": 65, "duration": 11, "velocity": 90}, {"time": 731, "pitch": 58, "duration": 10, "velocity": 47}, {"time": 737, "pitch": 53, "duration": 32, "velocity": 60}, {"time": 737, "pitch": 62, "duration": 11, "velocity": 79}, {"time": 737, "pitch": 65, "duration": 11, "velocity": 77}, {"time": 743, "pitch": 58, "duration": 8, "velocity": 53}, {"time": 749, "pitch": 62, "duration": 11, "velocity": 83}, {"time": 749, "pitch": 65, "duration": 11, "velocity": 87}, {"time": 755, "pitch": 58, "duration": 8, "velocity": 59}, {"time": 761, "pitch": 62, "duration": 10, "velocity": 86}, {"time": 761, "pitch": 65, "duration": 10, "velocity": 87}, {"time": 767, "pitch": 58, "duration": 4, "velocity": 59}, {"time": 773, "pitch": 50, "duration": 40, "velocity": 85}, {"time": 773, "pitch": 65, "duration": 11, "velocity": 71}, {"time": 773, "pitch": 69, "duration": 11, "velocity": 75}, {"time": 779, "pitch": 57, "duration": 33, "velocity": 59}, {"time": 785, "pitch": 65, "duration": 11, "velocity": 73}, {"time": 785, "pitch": 69, "duration": 11, "velocity": 76}, {"time": 791, "pitch": 62, "duration": 7, "velocity": 58}, {"time": 797, "pitch": 65, "duration": 10, "velocity": 75}, {"time": 797, "pitch": 69, "duration": 10, "velocity": 83}, {"time": 797, "pitch": 74, "duration": 6, "velocity": 86}, {"time": 803, "pitch": 62, "duration": 4, "velocity": 58}, {"time": 809, "pitch": 65, "duration": 6, "velocity": 87}, {"time": 809, "pitch": 69, "duration": 6, "velocity": 86}, {"time": 809, "pitch": 74, "duration": 6, "velocity": 93}, {"time": 821, "pitch": 45, "duration": 41, "velocity": 64}, {"time": 821, "pitch": 60, "duration": 10, "velocity": 64}, {"time": 821, "pitch": 64, "duration": 10, "velocity": 73}, {"time": 821, "pitch": 69, "duration": 10, "velocity": 71}, {"time": 827, "pitch": 52, "duration": 34, "velocity": 41}, {"time": 833, "pitch": 60, "duration": 10, "velocity": 79}, {"time": 833, "pitch": 64, "duration": 10, "velocity": 85}, {"time": 833, "pitch": 69, "duration": 10, "velocity": 74}, {"time": 839, "pitch": 57, "duration": 8, "velocity": 56}, {"time": 845, "pitch": 60, "duration": 10, "velocity": 76}, {"time": 845, "pitch": 64, "duration": 10, "velocity": 79}, {"time": 845, "pitch": 69, "duration": 10, "velocity": 74}, {"time": 851, "pitch": 57, "duration": 7, "velocity": 58}, {"time": 857, "pitch": 60, "duration": 5, "velocity": 77}, {"time": 857, "pitch": 64, "duration": 5, "velocity": 86}, {"time": 857, "pitch": 69, "duration": 5, "velocity": 86}, {"time": 869, "pitch": 46, "duration": 41, "velocity": 58}, {"time": 869, "pitch": 53, "duration": 23, "velocity": 67}, {"time": 869, "pitch": 58, "duration": 15, "velocity": 60}, {"time": 869, "pitch": 62, "duration": 11, "velocity": 73}, {"time": 869, "pitch": 65, "duration": 11, "velocity": 86}, {"time": 881, "pitch": 62, "duration": 11, "velocity": 85}, {"time": 881, "pitch": 65, "duration": 11, "velocity": 93}, {"time": 887, "pitch": 58, "duration": 7, "velocity": 58}, {"time": 893, "pitch": 62, "duration": 10, "velocity": 85}, {"time": 893, "pitch": 65, "duration": 10, "velocity": 93}, {"time": 899, "pitch": 53, "duration": 9, "velocity": 52}, {"time": 899, "pitch": 58, "duration": 7, "velocity": 57}, {"time": 905, "pitch": 62, "duration": 5, "velocity": 93}, {"time": 905, "pitch": 65, "duration": 5, "velocity": 86}, {"time": 917, "pitch": 43, "duration": 43, "velocity": 74}, {"time": 917, "pitch": 59, "duration": 11, "velocity": 85}, {"time": 917, "pitch": 62, "duration": 11, "velocity": 83}, {"time": 923, "pitch": 50, "duration": 37, "velocity": 63}, {"time": 929, "pitch": 59, "duration": 11, "velocity": 67}, {"time": 929, "pitch": 62, "duration": 11, "velocity": 77}, {"time": 929, "pitch": 67, "duration": 10, "velocity": 81}, {"time": 935, "pitch": 55, "duration": 6, "velocity": 54}, {"time": 941, "pitch": 59, "duration": 10, "velocity": 68}, {"time": 941, "pitch": 62, "duration": 11, "velocity": 85}, {"time": 941, "pitch": 67, "duration": 10, "velocity": 86}, {"time": 947, "pitch": 55, "duration": 6, "velocity": 53}, {"time": 953, "pitch": 59, "duration": 6, "velocity": 86}, {"time": 953, "pitch": 62, "duration": 6, "velocity": 93}, {"time": 953, "pitch": 67, "duration": 6, "velocity": 93}, {"time": 959, "pitch": 55, "duration": 5, "velocity": 52}, {"time": 965, "pitch": 48, "duration": 34, "velocity": 95}, {"time": 965, "pitch": 64, "duration": 10, "velocity": 81}, {"time": 965, "pitch": 67, "duration": 10, "velocity": 85}, {"time": 965, "pitch": 72, "duration": 10, "velocity": 77}, {"time": 971, "pitch": 55, "duration": 36, "velocity": 60}, {"time": 977, "pitch": 64, "duration": 11, "velocity": 86}, {"time": 977, "pitch": 67, "duration": 11, "velocity": 93}, {"time": 977, "pitch": 72, "duration": 10, "velocity": 85}, {"time": 983, "pitch": 60, "duration": 7, "velocity": 58}, {"time": 989, "pitch": 64, "duration": 10, "velocity": 93}, {"time": 989, "pitch": 67, "duration": 10, "velocity": 93}, {"time": 989, "pitch": 72, "duration": 10, "velocity": 90}, {"time": 995, "pitch": 60, "duration": 3, "velocity": 53}, {"time": 1001, "pitch": 47, "duration": 6, "velocity": 100}, {"time": 1001, "pitch": 62, "duration": 7, "velocity": 93}, {"time": 1001, "pitch": 65, "duration": 7, "velocity": 95}, {"time": 1001, "pitch": 67, "duration": 3, "velocity": 76}, {"time": 1001, "pitch": 72, "duration": 6, "velocity": 83}, {"time": 1013, "pitch": 45, "duration": 32, "velocity": 86}, {"time": 1013, "pitch": 60, "duration": 10, "velocity": 86}, {"time": 1013, "pitch": 64, "duration": 10, "velocity": 100}, {"time": 1013, "pitch": 69, "duration": 10, "velocity": 93}, {"time": 1019, "pitch": 52, "duration": 25, "velocity": 65}, {"time": 1025, "pitch": 60, "duration": 10, "velocity": 75}, {"time": 1025, "pitch": 64, "duration": 10, "velocity": 93}, {"time": 1025, "pitch": 69, "duration": 10, "velocity": 85}, {"time": 1031, "pitch": 57, "duration": 12, "velocity": 58}, {"time": 1037, "pitch": 60, "duration": 6, "velocity": 81}, {"time": 1037, "pitch": 64, "duration": 6, "velocity": 90}, {"time": 1037, "pitch": 69, "duration": 6, "velocity": 86}, {"time": 1049, "pitch": 43, "duration": 10, "velocity": 65}, {"time": 1049, "pitch": 59, "duration": 10, "velocity": 86}, {"time": 1049, "pitch": 62, "duration": 10, "velocity": 98}, {"time": 1049, "pitch": 67, "duration": 10, "velocity": 95}, {"time": 1061, "pitch": 50, "duration": 41, "velocity": 85}, {"time": 1061, "pitch": 65, "duration": 11, "velocity": 87}, {"time": 1061, "pitch": 69, "duration": 11, "velocity": 72}, {"time": 1067, "pitch": 57, "duration": 35, "velocity": 56}, {"time": 1073, "pitch": 65, "duration": 11, "velocity": 72}, {"time": 1073, "pitch": 69, "duration": 11, "velocity": 83}, {"time": 1073, "pitch": 74, "duration": 8, "velocity": 85}, {"time": 1079, "pitch": 62, "duration": 8, "velocity": 46}, {"time": 1082, "pitch": 74, "duration": 1, "velocity": 59}, {"time": 1085, "pitch": 65, "duration": 10, "velocity": 83}, {"time": 1085, "pitch": 69, "duration": 10, "velocity": 87}, {"time": 1085, "pitch": 74, "duration": 10, "velocity": 83}, {"time": 1091, "pitch": 62, "duration": 7, "velocity": 60}, {"time": 1097, "pitch": 65, "duration": 6, "velocity": 85}, {"time": 1097, "pitch": 69, "duration": 6, "velocity": 87}, {"time": 1097, "pitch": 74, "duration": 5, "velocity": 95}, {"time": 1109, "pitch": 41, "duration": 42, "velocity": 74}, {"time": 1109, "pitch": 48, "duration": 42, "velocity": 90}, {"time": 1109, "pitch": 53, "duration": 14, "velocity": 60}, {"time": 1109, "pitch": 56, "duration": 10, "velocity": 77}, {"time": 1109, "pitch": 60, "duration": 4, "velocity": 69}, {"time": 1109, "pitch": 65, "duration": 5, "velocity": 72}, {"time": 1121, "pitch": 56, "duration": 11, "velocity": 93}, {"time": 1121, "pitch": 60, "duration": 11, "velocity": 95}, {"time": 1127, "pitch": 53, "duration": 8, "velocity": 60}, {"time": 1133, "pitch": 56, "duration": 10, "velocity": 98}, {"time": 1133, "pitch": 60, "duration": 10, "velocity": 87}, {"time": 1139, "pitch": 53, "duration": 7, "velocity": 59}, {"time": 1145, "pitch": 56, "duration": 6, "velocity": 104}, {"time": 1145, "pitch": 60, "duration": 5, "velocity": 98}, {"time": 1145, "pitch": 65, "duration": 5, "velocity": 73}, {"time": 1151, "pitch": 53, "duration": 5, "velocity": 60}, {"time": 1157, "pitch": 48, "duration": 34, "velocity": 85}, {"time": 1157, "pitch": 64, "duration": 10, "velocity": 98}, {"time": 1157, "pitch": 67, "duration": 10, "velocity": 90}, {"time": 1157, "pitch": 72, "duration": 10, "velocity": 71}, {"time": 1163, "pitch": 55, "duration": 36, "velocity": 54}, {"time": 1169, "pitch": 64, "duration": 11, "velocity": 87}, {"time": 1169, "pitch": 67, "duration": 11, "velocity": 87}, {"time": 1169, "pitch": 72, "duration": 11, "velocity": 79}, {"time": 1175, "pitch": 60, "duration": 7, "velocity": 44}, {"time": 1181, "pitch": 64, "duration": 10, "velocity": 87}, {"time": 1181, "pitch": 67, "duration": 10, "velocity": 87}, {"time": 1181, "pitch": 72, "duration": 10, "velocity": 87}, {"time": 1184, "pitch": 60, "duration": 3, "velocity": 56}, {"time": 1193, "pitch": 47, "duration": 6, "velocity": 79}, {"time": 1193, "pitch": 62, "duration": 7, "velocity": 79}, {"time": 1193, "pitch": 65, "duration": 7, "velocity": 98}, {"time": 1193, "pitch": 67, "duration": 4, "velocity": 85}, {"time": 1193, "pitch": 72, "duration": 6, "velocity": 83}, {"time": 1205, "pitch": 45, "duration": 35, "velocity": 79}, {"time": 1205, "pitch": 60, "duration": 10, "velocity": 83}, {"time": 1205, "pitch": 64, "duration": 10, "velocity": 86}, {"time": 1205, "pitch": 69, "duration": 10, "velocity": 77}, {"time": 1211, "pitch": 52, "duration": 29, "velocity": 66}, {"time": 1217, "pitch": 60, "duration": 10, "velocity": 83}, {"time": 1217, "pitch": 64, "duration": 10, "velocity": 87}, {"time": 1217, "pitch": 69, "duration": 10, "velocity": 90}, {"time": 1223, "pitch": 57, "duration": 7, "velocity": 56}, {"time": 1229, "pitch": 60, "duration": 11, "velocity": 93}, {"time": 1229, "pitch": 64, "duration": 11, "velocity": 100}, {"time": 1229, "pitch": 69, "duration": 10, "velocity": 100}, {"time": 1232, "pitch": 57, "duration": 4, "velocity": 58}, {"time": 1241, "pitch": 43, "duration": 7, "velocity": 79}, {"time": 1241, "pitch": 59, "duration": 7, "velocity": 73}, {"time": 1241, "pitch": 62, "duration": 7, "velocity": 81}, {"time": 1241, "pitch": 67, "duration": 7, "velocity": 87}, {"time": 1253, "pitch": 38, "duration": 45, "velocity": 72}, {"time": 1253, "pitch": 53, "duration": 11, "velocity": 65}, {"time": 1253, "pitch": 57, "duration": 11, "velocity": 73}, {"time": 1259, "pitch": 45, "duration": 40, "velocity": 60}, {"time": 1265, "pitch": 53, "duration": 11, "velocity": 67}, {"time": 1265, "pitch": 57, "duration": 11, "velocity": 76}, {"time": 1265, "pitch": 62, "duration": 8, "velocity": 74}, {"time": 1271, "pitch": 50, "duration": 7, "velocity": 60}, {"time": 1277, "pitch": 53, "duration": 10, "velocity": 65}, {"time": 1277, "pitch": 57, "duration": 10, "velocity": 77}, {"time": 1277, "pitch": 62, "duration": 10, "velocity": 73}, {"time": 1283, "pitch": 50, "duration": 5, "velocity": 60}, {"time": 1289, "pitch": 53, "duration": 10, "velocity": 74}, {"time": 1289, "pitch": 57, "duration": 10, "velocity": 77}, {"time": 1289, "pitch": 62, "duration": 10, "velocity": 77}, {"time": 1295, "pitch": 50, "duration": 5, "velocity": 66}, {"time": 1301, "pitch": 41, "duration": 20, "velocity": 63}, {"time": 1301, "pitch": 48, "duration": 23, "velocity": 100}, {"time": 1301, "pitch": 53, "duration": 5, "velocity": 62}, {"time": 1301, "pitch": 56, "duration": 11, "velocity": 71}, {"time": 1301, "pitch": 60, "duration": 10, "velocity": 81}, {"time": 1301, "pitch": 65, "duration": 8, "velocity": 70}, {"time": 1307, "pitch": 53, "duration": 6, "velocity": 59}, {"time": 1313, "pitch": 56, "duration": 7, "velocity": 100}, {"time": 1313, "pitch": 60, "duration": 6, "velocity": 76}, {"time": 1313, "pitch": 65, "duration": 6, "velocity": 81}, {"time": 1319, "pitch": 53, "duration": 5, "velocity": 58}, {"time": 1325, "pitch": 43, "duration": 18, "velocity": 81}, {"time": 1325, "pitch": 59, "duration": 10, "velocity": 83}, {"time": 1325, "pitch": 62, "duration": 11, "velocity": 81}, {"time": 1331, "pitch": 50, "duration": 12, "velocity": 67}, {"time": 1337, "pitch": 59, "duration": 6, "velocity": 69}, {"time": 1337, "pitch": 62, "duration": 7, "velocity": 70}, {"time": 1337, "pitch": 67, "duration": 6, "velocity": 79}, {"time": 1343, "pitch": 55, "duration": 6, "velocity": 52}, {"time": 1349, "pitch": 48, "duration": 42, "velocity": 90}, {"time": 1349, "pitch": 64, "duration": 10, "velocity": 67}, {"time": 1349, "pitch": 67, "duration": 11, "velocity": 73}, {"time": 1349, "pitch": 72, "duration": 7, "velocity": 60}, {"time": 1355, "pitch": 55, "duration": 37, "velocity": 64}, {"time": 1361, "pitch": 64, "duration": 11, "velocity": 73}, {"time": 1367, "pitch": 60, "duration": 8, "velocity": 55}, {"time": 1373, "pitch": 64, "duration": 11, "velocity": 67}, {"time": 1373, "pitch": 67, "duration": 11, "velocity": 66}, {"time": 1379, "pitch": 60, "duration": 5, "velocity": 54}, {"time": 1385, "pitch": 64, "duration": 6, "velocity": 64}, {"time": 1385, "pitch": 67, "duration": 8, "velocity": 81}, {"time": 1397, "pitch": 46, "duration": 48, "velocity": 73}, {"time": 1397, "pitch": 62, "duration": 10, "velocity": 67}, {"time": 1397, "pitch": 65, "duration": 10, "velocity": 83}, {"time": 1409, "pitch": 53, "duration": 36, "velocity": 2}, {"time": 1409, "pitch": 62, "duration": 11, "velocity": 72}, {"time": 1409, "pitch": 65, "duration": 11, "velocity": 79}, {"time": 1421, "pitch": 62, "duration": 11, "velocity": 72}, {"time": 1421, "pitch": 65, "duration": 11, "velocity": 85}, {"time": 1427, "pitch": 58, "duration": 9, "velocity": 58}, {"time": 1433, "pitch": 62, "duration": 11, "velocity": 75}, {"time": 1433, "pitch": 65, "duration": 11, "velocity": 81}, {"time": 1439, "pitch": 58, "duration": 6, "velocity": 57}, {"time": 1445, "pitch": 45, "duration": 44, "velocity": 70}, {"time": 1445, "pitch": 60, "duration": 10, "velocity": 70}, {"time": 1445, "pitch": 64, "duration": 11, "velocity": 79}, {"time": 1451, "pitch": 52, "duration": 37, "velocity": 55}, {"time": 1457, "pitch": 60, "duration": 11, "velocity": 86}, {"time": 1457, "pitch": 64, "duration": 11, "velocity": 83}, {"time": 1463, "pitch": 57, "duration": 6, "velocity": 52}, {"time": 1469, "pitch": 60, "duration": 10, "velocity": 67}, {"time": 1469, "pitch": 64, "duration": 10, "velocity": 71}, {"time": 1469, "pitch": 69, "duration": 10, "velocity": 69}, {"time": 1475, "pitch": 57, "duration": 7, "velocity": 54}, {"time": 1481, "pitch": 60, "duration": 7, "velocity": 74}, {"time": 1481, "pitch": 64, "duration": 6, "velocity": 95}, {"time": 1481, "pitch": 69, "duration": 6, "velocity": 77}, {"time": 1487, "pitch": 57, "duration": 2, "velocity": 53}, {"time": 1493, "pitch": 41, "duration": 47, "velocity": 74}, {"time": 1493, "pitch": 48, "duration": 22, "velocity": 79}, {"time": 1493, "pitch": 53, "duration": 4, "velocity": 58}, {"time": 1493, "pitch": 56, "duration": 11, "velocity": 69}, {"time": 1493, "pitch": 60, "duration": 7, "velocity": 85}, {"time": 1493, "pitch": 65, "duration": 7, "velocity": 74}, {"time": 1499, "pitch": 53, "duration": 6, "velocity": 58}, {"time": 1505, "pitch": 56, "duration": 35, "velocity": 74}, {"time": 1505, "pitch": 60, "duration": 6, "velocity": 86}, {"time": 1505, "pitch": 65, "duration": 7, "velocity": 75}, {"time": 1511, "pitch": 53, "duration": 7, "velocity": 60}, {"time": 1517, "pitch": 48, "duration": 23, "velocity": 98}, {"time": 1517, "pitch": 60, "duration": 23, "velocity": 85}, {"time": 1517, "pitch": 65, "duration": 22, "velocity": 71}, {"time": 1520, "pitch": 53, "duration": 20, "velocity": 43}, {"time": 1553, "pitch": 64, "duration": 10, "velocity": 68}, {"time": 1553, "pitch": 67, "duration": 11, "velocity": 75}, {"time": 1559, "pitch": 60, "duration": 7, "velocity": 51}, {"time": 1565, "pitch": 64, "duration": 10, "velocity": 75}, {"time": 1565, "pitch": 67, "duration": 10, "velocity": 77}, {"time": 1571, "pitch": 60, "duration": 8, "velocity": 58}, {"time": 1577, "pitch": 64, "duration": 5, "velocity": 68}, {"time": 1577, "pitch": 67, "duration": 5, "velocity": 74}, {"time": 1589, "pitch": 46, "duration": 39, "velocity": 69}, {"time": 1589, "pitch": 62, "duration": 11, "velocity": 75}, {"time": 1589, "pitch": 65, "duration": 11, "velocity": 81}, {"time": 1595, "pitch": 50, "duration": 36, "velocity": 79}, {"time": 1601, "pitch": 53, "duration": 32, "velocity": 68}, {"time": 1601, "pitch": 62, "duration": 10, "velocity": 60}, {"time": 1601, "pitch": 65, "duration": 11, "velocity": 74}, {"time": 1613, "pitch": 62, "duration": 10, "velocity": 69}, {"time": 1613, "pitch": 65, "duration": 10, "velocity": 76}, {"time": 1625, "pitch": 62, "duration": 7, "velocity": 83}, {"time": 1625, "pitch": 65, "duration": 7, "velocity": 85}, {"time": 1637, "pitch": 45, "duration": 42, "velocity": 64}, {"time": 1637, "pitch": 60, "duration": 11, "velocity": 65}, {"time": 1637, "pitch": 64, "duration": 11, "velocity": 76}, {"time": 1643, "pitch": 52, "duration": 35, "velocity": 58}, {"time": 1649, "pitch": 60, "duration": 10, "velocity": 67}, {"time": 1649, "pitch": 64, "duration": 10, "velocity": 73}, {"time": 1655, "pitch": 57, "duration": 6, "velocity": 50}, {"time": 1661, "pitch": 60, "duration": 10, "velocity": 63}, {"time": 1661, "pitch": 64, "duration": 10, "velocity": 60}, {"time": 1667, "pitch": 57, "duration": 7, "velocity": 51}, {"time": 1673, "pitch": 60, "duration": 6, "velocity": 76}, {"time": 1673, "pitch": 64, "duration": 6, "velocity": 83}, {"time": 1685, "pitch": 41, "duration": 42, "velocity": 73}, {"time": 1685, "pitch": 56, "duration": 10, "velocity": 60}, {"time": 1685, "pitch": 60, "duration": 10, "velocity": 73}, {"time": 1694, "pitch": 48, "duration": 33, "velocity": 51}, {"time": 1697, "pitch": 56, "duration": 10, "velocity": 61}, {"time": 1697, "pitch": 60, "duration": 11, "velocity": 73}, {"time": 1703, "pitch": 53, "duration": 8, "velocity": 50}, {"time": 1709, "pitch": 56, "duration": 11, "velocity": 64}, {"time": 1709, "pitch": 60, "duration": 11, "velocity": 73}, {"time": 1715, "pitch": 53, "duration": 7, "velocity": 54}, {"time": 1721, "pitch": 56, "duration": 6, "velocity": 63}, {"time": 1721, "pitch": 60, "duration": 6, "velocity": 79}, {"time": 1721, "pitch": 65, "duration": 6, "velocity": 83}, {"time": 1727, "pitch": 53, "duration": 6, "velocity": 58}, {"time": 1733, "pitch": 48, "duration": 40, "velocity": 79}, {"time": 1733, "pitch": 64, "duration": 10, "velocity": 75}, {"time": 1733, "pitch": 67, "duration": 10, "velocity": 74}, {"time": 1739, "pitch": 55, "duration": 40, "velocity": 56}, {"time": 1745, "pitch": 64, "duration": 10, "velocity": 64}, {"time": 1745, "pitch": 67, "duration": 11, "velocity": 74}, {"time": 1745, "pitch": 72, "duration": 7, "velocity": 74}, {"time": 1751, "pitch": 60, "duration": 7, "velocity": 59}, {"time": 1757, "pitch": 64, "duration": 11, "velocity": 69}, {"time": 1757, "pitch": 67, "duration": 11, "velocity": 79}, {"time": 1763, "pitch": 60, "duration": 5, "velocity": 57}, {"time": 1769, "pitch": 64, "duration": 11, "velocity": 74}, {"time": 1769, "pitch": 67, "duration": 11, "velocity": 76}, {"time": 1781, "pitch": 46, "duration": 42, "velocity": 75}, {"time": 1787, "pitch": 50, "duration": 33, "velocity": 69}, {"time": 1793, "pitch": 62, "duration": 10, "velocity": 64}, {"time": 1793, "pitch": 65, "duration": 10, "velocity": 76}, {"time": 1805, "pitch": 53, "duration": 3, "velocity": 60}, {"time": 1805, "pitch": 62, "duration": 11, "velocity": 67}, {"time": 1805, "pitch": 65, "duration": 11, "velocity": 75}, {"time": 1811, "pitch": 53, "duration": 13, "velocity": 69}, {"time": 1817, "pitch": 62, "duration": 6, "velocity": 77}, {"time": 1817, "pitch": 65, "duration": 6, "velocity": 83}, {"time": 1829, "pitch": 45, "duration": 42, "velocity": 73}, {"time": 1829, "pitch": 60, "duration": 10, "velocity": 67}, {"time": 1829, "pitch": 64, "duration": 10, "velocity": 74}, {"time": 1835, "pitch": 52, "duration": 35, "velocity": 59}, {"time": 1841, "pitch": 60, "duration": 10, "velocity": 67}, {"time": 1841, "pitch": 64, "duration": 10, "velocity": 76}, {"time": 1841, "pitch": 69, "duration": 10, "velocity": 69}, {"time": 1847, "pitch": 57, "duration": 8, "velocity": 54}, {"time": 1853, "pitch": 60, "duration": 10, "velocity": 70}, {"time": 1853, "pitch": 64, "duration": 10, "velocity": 79}, {"time": 1853, "pitch": 69, "duration": 10, "velocity": 74}, {"time": 1859, "pitch": 57, "duration": 7, "velocity": 48}, {"time": 1865, "pitch": 60, "duration": 6, "velocity": 77}, {"time": 1865, "pitch": 64, "duration": 6, "velocity": 86}, {"time": 1865, "pitch": 69, "duration": 6, "velocity": 85}, {"time": 1877, "pitch": 41, "duration": 42, "velocity": 73}, {"time": 1877, "pitch": 56, "duration": 11, "velocity": 63}, {"time": 1877, "pitch": 60, "duration": 11, "velocity": 67}, {"time": 1877, "pitch": 65, "duration": 10, "velocity": 72}, {"time": 1883, "pitch": 48, "duration": 37, "velocity": 69}, {"time": 1889, "pitch": 56, "duration": 10, "velocity": 74}, {"time": 1889, "pitch": 60, "duration": 10, "velocity": 83}, {"time": 1889, "pitch": 65, "duration": 10, "velocity": 83}, {"time": 1895, "pitch": 53, "duration": 10, "velocity": 55}, {"time": 1901, "pitch": 56, "duration": 10, "velocity": 65}, {"time": 1901, "pitch": 60, "duration": 10, "velocity": 83}, {"time": 1901, "pitch": 65, "duration": 10, "velocity": 85}, {"time": 1907, "pitch": 53, "duration": 7, "velocity": 57}, {"time": 1913, "pitch": 56, "duration": 6, "velocity": 85}, {"time": 1913, "pitch": 60, "duration": 6, "velocity": 86}, {"time": 1913, "pitch": 65, "duration": 6, "velocity": 95}, {"time": 1919, "pitch": 53, "duration": 6, "velocity": 54}, {"time": 1925, "pitch": 45, "duration": 41, "velocity": 74}, {"time": 1925, "pitch": 60, "duration": 9, "velocity": 61}, {"time": 1925, "pitch": 64, "duration": 9, "velocity": 65}, {"time": 1931, "pitch": 52, "duration": 34, "velocity": 55}, {"time": 1937, "pitch": 60, "duration": 11, "velocity": 73}, {"time": 1937, "pitch": 64, "duration": 11, "velocity": 86}, {"time": 1937, "pitch": 69, "duration": 11, "velocity": 73}, {"time": 1943, "pitch": 57, "duration": 8, "velocity": 58}, {"time": 1949, "pitch": 60, "duration": 10, "velocity": 67}, {"time": 1949, "pitch": 64, "duration": 10, "velocity": 79}, {"time": 1949, "pitch": 69, "duration": 10, "velocity": 79}, {"time": 1955, "pitch": 57, "duration": 5, "velocity": 52}, {"time": 1961, "pitch": 60, "duration": 6, "velocity": 79}, {"time": 1961, "pitch": 64, "duration": 6, "velocity": 90}, {"time": 1961, "pitch": 69, "duration": 6, "velocity": 90}, {"time": 1973, "pitch": 41, "duration": 41, "velocity": 76}, {"time": 1973, "pitch": 57, "duration": 11, "velocity": 67}, {"time": 1973, "pitch": 60, "duration": 11, "velocity": 81}, {"time": 1973, "pitch": 65, "duration": 11, "velocity": 87}, {"time": 1979, "pitch": 48, "duration": 36, "velocity": 70}, {"time": 1985, "pitch": 57, "duration": 10, "velocity": 68}, {"time": 1985, "pitch": 60, "duration": 10, "velocity": 85}, {"time": 1985, "pitch": 65, "duration": 10, "velocity": 86}, {"time": 1991, "pitch": 53, "duration": 8, "velocity": 54}, {"time": 1997, "pitch": 57, "duration": 11, "velocity": 64}, {"time": 1997, "pitch": 60, "duration": 11, "velocity": 79}, {"time": 1997, "pitch": 65, "duration": 10, "velocity": 83}, {"time": 2003, "pitch": 53, "duration": 6, "velocity": 54}, {"time": 2009, "pitch": 57, "duration": 6, "velocity": 75}, {"time": 2009, "pitch": 60, "duration": 6, "velocity": 85}, {"time": 2009, "pitch": 65, "duration": 6, "velocity": 83}, {"time": 2015, "pitch": 53, "duration": 5, "velocity": 58}, {"time": 2021, "pitch": 45, "duration": 39, "velocity": 74}, {"time": 2021, "pitch": 60, "duration": 11, "velocity": 67}, {"time": 2021, "pitch": 64, "duration": 11, "velocity": 70}, {"time": 2021, "pitch": 69, "duration": 11, "velocity": 72}, {"time": 2027, "pitch": 52, "duration": 33, "velocity": 58}, {"time": 2033, "pitch": 60, "duration": 11, "velocity": 74}, {"time": 2033, "pitch": 64, "duration": 11, "velocity": 81}, {"time": 2033, "pitch": 69, "duration": 11, "velocity": 77}, {"time": 2039, "pitch": 57, "duration": 7, "velocity": 47}, {"time": 2045, "pitch": 60, "duration": 10, "velocity": 69}, {"time": 2045, "pitch": 64, "duration": 10, "velocity": 74}, {"time": 2045, "pitch": 69, "duration": 10, "velocity": 72}, {"time": 2051, "pitch": 57, "duration": 9, "velocity": 51}, {"time": 2057, "pitch": 60, "duration": 5, "velocity": 74}, {"time": 2057, "pitch": 64, "duration": 5, "velocity": 86}, {"time": 2057, "pitch": 69, "duration": 5, "velocity": 77}, {"time": 2069, "pitch": 46, "duration": 45, "velocity": 64}, {"time": 2069, "pitch": 62, "duration": 11, "velocity": 79}, {"time": 2069, "pitch": 65, "duration": 11, "velocity": 90}, {"time": 2075, "pitch": 58, "duration": 10, "velocity": 47}, {"time": 2081, "pitch": 53, "duration": 32, "velocity": 60}, {"time": 2081, "pitch": 62, "duration": 11, "velocity": 79}, {"time": 2081, "pitch": 65, "duration": 11, "velocity": 77}, {"time": 2087, "pitch": 58, "duration": 8, "velocity": 53}, {"time": 2093, "pitch": 62, "duration": 11, "velocity": 83}, {"time": 2093, "pitch": 65, "duration": 11, "velocity": 87}, {"time": 2099, "pitch": 58, "duration": 8, "velocity": 59}, {"time": 2105, "pitch": 62, "duration": 10, "velocity": 86}, {"time": 2105, "pitch": 65, "duration": 10, "velocity": 87}, {"time": 2111, "pitch": 58, "duration": 4, "velocity": 59}, {"time": 2117, "pitch": 50, "duration": 40, "velocity": 85}, {"time": 2117, "pitch": 65, "duration": 11, "velocity": 71}, {"time": 2117, "pitch": 69, "duration": 11, "velocity": 75}, {"time": 2123, "pitch": 57, "duration": 33, "velocity": 59}, {"time": 2129, "pitch": 65, "duration": 11, "velocity": 73}, {"time": 2129, "pitch": 69, "duration": 11, "velocity": 76}, {"time": 2135, "pitch": 62, "duration": 7, "velocity": 58}, {"time": 2141, "pitch": 65, "duration": 10, "velocity": 75}, {"time": 2141, "pitch": 69, "duration": 10, "velocity": 83}, {"time": 2141, "pitch": 74, "duration": 6, "velocity": 86}, {"time": 2147, "pitch": 62, "duration": 4, "velocity": 58}, {"time": 2153, "pitch": 65, "duration": 6, "velocity": 87}, {"time": 2153, "pitch": 69, "duration": 6, "velocity": 86}, {"time": 2153, "pitch": 74, "duration": 6, "velocity": 93}, {"time": 2165, "pitch": 45, "duration": 41, "velocity": 64}, {"time": 2165, "pitch": 60, "duration": 10, "velocity": 64}, {"time": 2165, "pitch": 64, "duration": 10, "velocity": 73}, {"time": 2165, "pitch": 69, "duration": 10, "velocity": 71}, {"time": 2171, "pitch": 52, "duration": 34, "velocity": 41}, {"time": 2177, "pitch": 60, "duration": 10, "velocity": 79}, {"time": 2177, "pitch": 64, "duration": 10, "velocity": 85}, {"time": 2177, "pitch": 69, "duration": 10, "velocity": 74}, {"time": 2183, "pitch": 57, "duration": 8, "velocity": 56}, {"time": 2189, "pitch": 60, "duration": 10, "velocity": 76}, {"time": 2189, "pitch": 64, "duration": 10, "velocity": 79}, {"time": 2189, "pitch": 69, "duration": 10, "velocity": 74}, {"time": 2195, "pitch": 57, "duration": 7, "velocity": 58}, {"time": 2201, "pitch": 60, "duration": 5, "velocity": 77}, {"time": 2201, "pitch": 64, "duration": 5, "velocity": 86}, {"time": 2201, "pitch": 69, "duration": 5, "velocity": 86}, {"time": 2213, "pitch": 46, "duration": 41, "velocity": 58}, {"time": 2213, "pitch": 53, "duration": 23, "velocity": 67}, {"time": 2213, "pitch": 58, "duration": 15, "velocity": 60}, {"time": 2213, "pitch": 62, "duration": 11, "velocity": 73}, {"time": 2213, "pitch": 65, "duration": 11, "velocity": 86}, {"time": 2225, "pitch": 62, "duration": 11, "velocity": 85}, {"time": 2225, "pitch": 65, "duration": 11, "velocity": 93}, {"time": 2231, "pitch": 58, "duration": 7, "velocity": 58}, {"time": 2237, "pitch": 62, "duration": 10, "velocity": 85}, {"time": 2237, "pitch": 65, "duration": 10, "velocity": 93}, {"time": 2243, "pitch": 53, "duration": 9, "velocity": 52}, {"time": 2243, "pitch": 58, "duration": 7, "velocity": 57}, {"time": 2249, "pitch": 62, "duration": 5, "velocity": 93}, {"time": 2249, "pitch": 65, "duration": 5, "velocity": 86}, {"time": 2261, "pitch": 43, "duration": 44, "velocity": 76}, {"time": 2261, "pitch": 59, "duration": 4, "velocity": 63}, {"time": 2261, "pitch": 62, "duration": 4, "velocity": 69}, {"time": 2261, "pitch": 67, "duration": 4, "velocity": 72}, {"time": 2267, "pitch": 59, "duration": 4, "velocity": 71}, {"time": 2267, "pitch": 62, "duration": 4, "velocity": 85}, {"time": 2267, "pitch": 67, "duration": 4, "velocity": 85}, {"time": 2273, "pitch": 59, "duration": 4, "velocity": 76}, {"time": 2273, "pitch": 62, "duration": 4, "velocity": 90}, {"time": 2273, "pitch": 67, "duration": 4, "velocity": 95}, {"time": 2279, "pitch": 59, "duration": 4, "velocity": 71}, {"time": 2279, "pitch": 62, "duration": 4, "velocity": 81}, {"time": 2279, "pitch": 67, "duration": 4, "velocity": 90}, {"time": 2285, "pitch": 59, "duration": 3, "velocity": 66}, {"time": 2285, "pitch": 62, "duration": 3, "velocity": 71}, {"time": 2285, "pitch": 67, "duration": 3, "velocity": 69}, {"time": 2291, "pitch": 59, "duration": 1, "velocity": 66}, {"time": 2291, "pitch": 62, "duration": 1, "velocity": 79}, {"time": 2291, "pitch": 67, "duration": 1, "velocity": 74}, {"time": 2294, "pitch": 59, "duration": 1, "velocity": 67}, {"time": 2294, "pitch": 62, "duration": 1, "velocity": 79}, {"time": 2294, "pitch": 67, "duration": 1, "velocity": 79}, {"time": 2297, "pitch": 59, "duration": 1, "velocity": 72}, {"time": 2297, "pitch": 62, "duration": 1, "velocity": 86}, {"time": 2297, "pitch": 67, "duration": 1, "velocity": 86}, {"time": 2300, "pitch": 59, "duration": 1, "velocity": 77}, {"time": 2300, "pitch": 62, "duration": 1, "velocity": 93}, {"time": 2300, "pitch": 67, "duration": 1, "velocity": 93}, {"time": 2303, "pitch": 59, "duration": 1, "velocity": 100}, {"time": 2303, "pitch": 62, "duration": 1, "velocity": 112}, {"time": 2303, "pitch": 67, "duration": 1, "velocity": 112}, {"time": 2309, "pitch": 48, "duration": 34, "velocity": 95}, {"time": 2309, "pitch": 64, "duration": 10, "velocity": 81}, {"time": 2309, "pitch": 67, "duration": 10, "velocity": 85}, {"time": 2309, "pitch": 72, "duration": 10, "velocity": 77}, {"time": 2315, "pitch": 55, "duration": 30, "velocity": 60}, {"time": 2321, "pitch": 64, "duration": 11, "velocity": 86}, {"time": 2321, "pitch": 67, "duration": 11, "velocity": 93}, {"time": 2321, "pitch": 72, "duration": 10, "velocity": 85}, {"time": 2327, "pitch": 60, "duration": 7, "velocity": 58}, {"time": 2333, "pitch": 64, "duration": 10, "velocity": 93}, {"time": 2333, "pitch": 67, "duration": 10, "velocity": 93}, {"time": 2333, "pitch": 72, "duration": 10, "velocity": 90}, {"time": 2339, "pitch": 60, "duration": 3, "velocity": 53}, {"time": 2345, "pitch": 47, "duration": 6, "velocity": 100}, {"time": 2345, "pitch": 62, "duration": 7, "velocity": 93}, {"time": 2345, "pitch": 65, "duration": 7, "velocity": 95}, {"time": 2345, "pitch": 67, "duration": 3, "velocity": 76}, {"time": 2345, "pitch": 72, "duration": 6, "velocity": 83}, {"time": 2357, "pitch": 45, "duration": 32, "velocity": 86}, {"time": 2357, "pitch": 60, "duration": 10, "velocity": 86}, {"time": 2357, "pitch": 64, "duration": 10, "velocity": 100}, {"time": 2357, "pitch": 69, "duration": 10, "velocity": 93}, {"time": 2363, "pitch": 52, "duration": 25, "velocity": 65}, {"time": 2369, "pitch": 60, "duration": 10, "velocity": 75}, {"time": 2369, "pitch": 64, "duration": 10, "velocity": 93}, {"time": 2369, "pitch": 69, "duration": 10, "velocity": 85}, {"time": 2375, "pitch": 57, "duration": 12, "velocity": 58}, {"time": 2381, "pitch": 60, "duration": 6, "velocity": 81}, {"time": 2381, "pitch": 64, "duration": 6, "velocity": 90}, {"time": 2381, "pitch": 69, "duration": 6, "velocity": 86}, {"time": 2393, "pitch": 43, "duration": 10, "velocity": 65}, {"time": 2393, "pitch": 59, "duration": 10, "velocity": 86}, {"time": 2393, "pitch": 62, "duration": 10, "velocity": 98}, {"time": 2393, "pitch": 67, "duration": 10, "velocity": 95}, {"time": 2405, "pitch": 50, "duration": 41, "velocity": 85}, {"time": 2405, "pitch": 65, "duration": 11, "velocity": 87}, {"time": 2405, "pitch": 69, "duration": 11, "velocity": 72}, {"time": 2411, "pitch": 57, "duration": 35, "velocity": 56}, {"time": 2417, "pitch": 65, "duration": 11, "velocity": 72}, {"time": 2417, "pitch": 69, "duration": 11, "velocity": 83}, {"time": 2417, "pitch": 74, "duration": 8, "velocity": 85}, {"time": 2423, "pitch": 62, "duration": 8, "velocity": 46}, {"time": 2426, "pitch": 74, "duration": 1, "velocity": 59}, {"time": 2429, "pitch": 65, "duration": 10, "velocity": 83}, {"time": 2429, "pitch": 69, "duration": 10, "velocity": 87}, {"time": 2429, "pitch": 74, "duration": 10, "velocity": 83}, {"time": 2435, "pitch": 62, "duration": 7, "velocity": 60}, {"time": 2441, "pitch": 65, "duration": 6, "velocity": 85}, {"time": 2441, "pitch": 69, "duration": 6, "velocity": 87}, {"time": 2441, "pitch": 74, "duration": 5, "velocity": 95}, {"time": 2453, "pitch": 41, "duration": 42, "velocity": 74}, {"time": 2453, "pitch": 48, "duration": 42, "velocity": 90}, {"time": 2453, "pitch": 53, "duration": 14, "velocity": 60}, {"time": 2453, "pitch": 56, "duration": 10, "velocity": 77}, {"time": 2453, "pitch": 60, "duration": 4, "velocity": 69}, {"time": 2453, "pitch": 65, "duration": 5, "velocity": 72}, {"time": 2465, "pitch": 56, "duration": 11, "velocity": 93}, {"time": 2465, "pitch": 60, "duration": 11, "velocity": 95}, {"time": 2471, "pitch": 53, "duration": 8, "velocity": 60}, {"time": 2477, "pitch": 56, "duration": 10, "velocity": 98}, {"time": 2477, "pitch": 60, "duration": 10, "velocity": 87}, {"time": 2483, "pitch": 53, "duration": 7, "velocity": 59}, {"time": 2489, "pitch": 56, "duration": 6, "velocity": 104}, {"time": 2489, "pitch": 60, "duration": 5, "velocity": 98}, {"time": 2489, "pitch": 65, "duration": 5, "velocity": 73}, {"time": 2495, "pitch": 53, "duration": 5, "velocity": 60}, {"time": 2501, "pitch": 48, "duration": 34, "velocity": 85}, {"time": 2501, "pitch": 64, "duration": 10, "velocity": 98}, {"time": 2501, "pitch": 67, "duration": 10, "velocity": 90}, {"time": 2501, "pitch": 72, "duration": 10, "velocity": 71}, {"time": 2507, "pitch": 55, "duration": 36, "velocity": 54}, {"time": 2513, "pitch": 64, "duration": 11, "velocity": 87}, {"time": 2513, "pitch": 67, "duration": 11, "velocity": 87}, {"time": 2513, "pitch": 72, "duration": 11, "velocity": 79}, {"time": 2519, "pitch": 60, "duration": 7, "velocity": 44}, {"time": 2525, "pitch": 64, "duration": 10, "velocity": 87}, {"time": 2525, "pitch": 67, "duration": 10, "velocity": 87}, {"time": 2525, "pitch": 72, "duration": 10, "velocity": 87}, {"time": 2528, "pitch": 60, "duration": 3, "velocity": 56}, {"time": 2537, "pitch": 47, "duration": 6, "velocity": 79}, {"time": 2537, "pitch": 62, "duration": 7, "velocity": 79}, {"time": 2537, "pitch": 65, "duration": 7, "velocity": 98}, {"time": 2537, "pitch": 67, "duration": 4, "velocity": 85}, {"time": 2537, "pitch": 72, "duration": 6, "velocity": 83}, {"time": 2549, "pitch": 45, "duration": 35, "velocity": 79}, {"time": 2549, "pitch": 60, "duration": 10, "velocity": 83}, {"time": 2549, "pitch": 64, "duration": 10, "velocity": 86}, {"time": 2549, "pitch": 69, "duration": 10, "velocity": 77}, {"time": 2555, "pitch": 52, "duration": 29, "velocity": 66}, {"time": 2561, "pitch": 60, "duration": 10, "velocity": 83}, {"time": 2561, "pitch": 64, "duration": 10, "velocity": 87}, {"time": 2561, "pitch": 69, "duration": 10, "velocity": 90}, {"time": 2567, "pitch": 57, "duration": 7, "velocity": 56}, {"time": 2573, "pitch": 60, "duration": 11, "velocity": 93}, {"time": 2573, "pitch": 64, "duration": 11, "velocity": 100}, {"time": 2573, "pitch": 69, "duration": 10, "velocity": 100}, {"time": 2576, "pitch": 57, "duration": 4, "velocity": 58}, {"time": 2585, "pitch": 43, "duration": 7, "velocity": 79}, {"time": 2585, "pitch": 59, "duration": 7, "velocity": 73}, {"time": 2585, "pitch": 62, "duration": 7, "velocity": 81}, {"time": 2585, "pitch": 67, "duration": 7, "velocity": 87}, {"time": 2597, "pitch": 38, "duration": 45, "velocity": 72}, {"time": 2597, "pitch": 53, "duration": 11, "velocity": 65}, {"time": 2597, "pitch": 57, "duration": 11, "velocity": 73}, {"time": 2603, "pitch": 45, "duration": 40, "velocity": 60}, {"time": 2609, "pitch": 53, "duration": 11, "velocity": 67}, {"time": 2609, "pitch": 57, "duration": 11, "velocity": 76}, {"time": 2609, "pitch": 62, "duration": 8, "velocity": 74}, {"time": 2615, "pitch": 50, "duration": 7, "velocity": 60}, {"time": 2621, "pitch": 53, "duration": 10, "velocity": 65}, {"time": 2621, "pitch": 57, "duration": 10, "velocity": 77}, {"time": 2621, "pitch": 62, "duration": 10, "velocity": 73}, {"time": 2627, "pitch": 50, "duration": 5, "velocity": 60}, {"time": 2633, "pitch": 53, "duration": 10, "velocity": 74}, {"time": 2633, "pitch": 57, "duration": 10, "velocity": 77}, {"time": 2633, "pitch": 62, "duration": 10, "velocity": 77}, {"time": 2639, "pitch": 50, "duration": 5, "velocity": 66}, {"time": 2645, "pitch": 41, "duration": 20, "velocity": 63}, {"time": 2645, "pitch": 48, "duration": 23, "velocity": 100}, {"time": 2645, "pitch": 53, "duration": 5, "velocity": 62}, {"time": 2645, "pitch": 56, "duration": 11, "velocity": 71}, {"time": 2645, "pitch": 60, "duration": 10, "velocity": 81}, {"time": 2645, "pitch": 65, "duration": 8, "velocity": 70}, {"time": 2651, "pitch": 53, "duration": 6, "velocity": 59}, {"time": 2657, "pitch": 56, "duration": 7, "velocity": 100}, {"time": 2657, "pitch": 60, "duration": 6, "velocity": 76}, {"time": 2657, "pitch": 65, "duration": 6, "velocity": 81}, {"time": 2663, "pitch": 53, "duration": 5, "velocity": 58}, {"time": 2669, "pitch": 43, "duration": 18, "velocity": 81}, {"time": 2669, "pitch": 59, "duration": 10, "velocity": 83}, {"time": 2669, "pitch": 62, "duration": 11, "velocity": 81}, {"time": 2675, "pitch": 50, "duration": 12, "velocity": 67}, {"time": 2681, "pitch": 59, "duration": 6, "velocity": 69}, {"time": 2681, "pitch": 62, "duration": 7, "velocity": 70}, {"time": 2681, "pitch": 67, "duration": 6, "velocity": 79}, {"time": 2687, "pitch": 55, "duration": 6, "velocity": 52}, {"time": 2693, "pitch": 48, "duration": 42, "velocity": 90}, {"time": 2693, "pitch": 64, "duration": 10, "velocity": 67}, {"time": 2693, "pitch": 67, "duration": 11, "velocity": 73}, {"time": 2693, "pitch": 72, "duration": 7, "velocity": 60}, {"time": 2699, "pitch": 55, "duration": 37, "velocity": 64}, {"time": 2705, "pitch": 64, "duration": 11, "velocity": 73}, {"time": 2711, "pitch": 60, "duration": 8, "velocity": 55}, {"time": 2717, "pitch": 64, "duration": 11, "velocity": 67}, {"time": 2717, "pitch": 67, "duration": 11, "velocity": 66}, {"time": 2723, "pitch": 60, "duration": 5, "velocity": 54}, {"time": 2729, "pitch": 64, "duration": 6, "velocity": 64}, {"time": 2729, "pitch": 67, "duration": 8, "velocity": 81}, {"time": 2741, "pitch": 49, "duration": 34, "velocity": 95}, {"time": 2741, "pitch": 65, "duration": 10, "velocity": 81}, {"time": 2741, "pitch": 68, "duration": 10, "velocity": 85}, {"time": 2741, "pitch": 73, "duration": 10, "velocity": 77}, {"time": 2747, "pitch": 56, "duration": 30, "velocity": 60}, {"time": 2753, "pitch": 65, "duration": 11, "velocity": 86}, {"time": 2753, "pitch": 68, "duration": 11, "velocity": 93}, {"time": 2753, "pitch": 73, "duration": 10, "velocity": 85}, {"time": 2759, "pitch": 61, "duration": 7, "velocity": 58}, {"time": 2765, "pitch": 65, "duration": 10, "velocity": 93}, {"time": 2765, "pitch": 68, "duration": 10, "velocity": 93}, {"time": 2765, "pitch": 73, "duration": 10, "velocity": 90}, {"time": 2771, "pitch": 61, "duration": 3, "velocity": 53}, {"time": 2777, "pitch": 48, "duration": 6, "velocity": 100}, {"time": 2777, "pitch": 63, "duration": 7, "velocity": 93}, {"time": 2777, "pitch": 66, "duration": 7, "velocity": 95}, {"time": 2777, "pitch": 68, "duration": 3, "velocity": 76}, {"time": 2777, "pitch": 73, "duration": 6, "velocity": 83}, {"time": 2789, "pitch": 46, "duration": 32, "velocity": 86}, {"time": 2789, "pitch": 61, "duration": 10, "velocity": 86}, {"time": 2789, "pitch": 65, "duration": 10, "velocity": 100}, {"time": 2789, "pitch": 70, "duration": 10, "velocity": 93}, {"time": 2795, "pitch": 53, "duration": 25, "velocity": 65}, {"time": 2801, "pitch": 61, "duration": 10, "velocity": 75}, {"time": 2801, "pitch": 65, "duration": 10, "velocity": 93}, {"time": 2801, "pitch": 70, "duration": 10, "velocity": 85}, {"time": 2807, "pitch": 58, "duration": 12, "velocity": 58}, {"time": 2813, "pitch": 61, "duration": 6, "velocity": 81}, {"time": 2813, "pitch": 65, "duration": 6, "velocity": 90}, {"time": 2813, "pitch": 70, "duration": 6, "velocity": 86}, {"time": 2825, "pitch": 44, "duration": 10, "velocity": 65}, {"time": 2825, "pitch": 60, "duration": 10, "velocity": 86}, {"time": 2825, "pitch": 63, "duration": 10, "velocity": 98}, {"time": 2825, "pitch": 68, "duration": 10, "velocity": 95}, {"time": 2837, "pitch": 51, "duration": 41, "velocity": 85}, {"time": 2837, "pitch": 66, "duration": 11, "velocity": 87}, {"time": 2837, "pitch": 70, "duration": 11, "velocity": 72}, {"time": 2843, "pitch": 58, "duration": 35, "velocity": 56}, {"time": 2849, "pitch": 66, "duration": 11, "velocity": 72}, {"time": 2849, "pitch": 70, "duration": 11, "velocity": 83}, {"time": 2849, "pitch": 75, "duration": 8, "velocity": 85}, {"time": 2855, "pitch": 63, "duration": 8, "velocity": 46}, {"time": 2858, "pitch": 75, "duration": 1, "velocity": 59}, {"time": 2861, "pitch": 66, "duration": 10, "velocity": 83}, {"time": 2861, "pitch": 70, "duration": 10, "velocity": 87}, {"time": 2861, "pitch": 75, "duration": 10, "velocity": 83}, {"time": 2867, "pitch": 63, "duration": 7, "velocity": 60}, {"time": 2873, "pitch": 66, "duration": 6, "velocity": 85}, {"time": 2873, "pitch": 70, "duration": 6, "velocity": 87}, {"time": 2873, "pitch": 75, "duration": 5, "velocity": 95}, {"time": 2885, "pitch": 42, "duration": 42, "velocity": 74}, {"time": 2885, "pitch": 49, "duration": 42, "velocity": 90}, {"time": 2885, "pitch": 54, "duration": 14, "velocity": 60}, {"time": 2885, "pitch": 57, "duration": 10, "velocity": 77}, {"time": 2885, "pitch": 61, "duration": 4, "velocity": 69}, {"time": 2885, "pitch": 66, "duration": 5, "velocity": 72}, {"time": 2897, "pitch": 57, "duration": 11, "velocity": 93}, {"time": 2897, "pitch": 61, "duration": 11, "velocity": 95}, {"time": 2903, "pitch": 54, "duration": 8, "velocity": 60}, {"time": 2909, "pitch": 57, "duration": 10, "velocity": 98}, {"time": 2909, "pitch": 61, "duration": 10, "velocity": 87}, {"time": 2915, "pitch": 54, "duration": 7, "velocity": 59}, {"time": 2921, "pitch": 57, "duration": 6, "velocity": 104}, {"time": 2921, "pitch": 61, "duration": 5, "velocity": 98}, {"time": 2921, "pitch": 66, "duration": 5, "velocity": 73}, {"time": 2927, "pitch": 54, "duration": 5, "velocity": 60}, {"time": 2933, "pitch": 49, "duration": 34, "velocity": 85}, {"time": 2933, "pitch": 65, "duration": 10, "velocity": 98}, {"time": 2933, "pitch": 68, "duration": 10, "velocity": 90}, {"time": 2933, "pitch": 73, "duration": 10, "velocity": 71}, {"time": 2939, "pitch": 56, "duration": 36, "velocity": 54}, {"time": 2945, "pitch": 65, "duration": 11, "velocity": 87}, {"time": 2945, "pitch": 68, "duration": 11, "velocity": 87}, {"time": 2945, "pitch": 73, "duration": 11, "velocity": 79}, {"time": 2951, "pitch": 61, "duration": 7, "velocity": 44}, {"time": 2957, "pitch": 65, "duration": 10, "velocity": 87}, {"time": 2957, "pitch": 68, "duration": 10, "velocity": 87}, {"time": 2957, "pitch": 73, "duration": 10, "velocity": 87}, {"time": 2960, "pitch": 61, "duration": 3, "velocity": 56}, {"time": 2969, "pitch": 48, "duration": 6, "velocity": 79}, {"time": 2969, "pitch": 63, "duration": 7, "velocity": 79}, {"time": 2969, "pitch": 66, "duration": 7, "velocity": 98}, {"time": 2969, "pitch": 68, "duration": 4, "velocity": 85}, {"time": 2969, "pitch": 73, "duration": 6, "velocity": 83}, {"time": 2981, "pitch": 46, "duration": 35, "velocity": 79}, {"time": 2981, "pitch": 61, "duration": 10, "velocity": 83}, {"time": 2981, "pitch": 65, "duration": 10, "velocity": 86}, {"time": 2981, "pitch": 70, "duration": 10, "velocity": 77}, {"time": 2987, "pitch": 53, "duration": 29, "velocity": 66}, {"time": 2993, "pitch": 61, "duration": 10, "velocity": 83}, {"time": 2993, "pitch": 65, "duration": 10, "velocity": 87}, {"time": 2993, "pitch": 70, "duration": 10, "velocity": 90}, {"time": 2999, "pitch": 58, "duration": 7, "velocity": 56}, {"time": 3005, "pitch": 61, "duration": 11, "velocity": 93}, {"time": 3005, "pitch": 65, "duration": 11, "velocity": 100}, {"time": 3005, "pitch": 70, "duration": 10, "velocity": 100}, {"time": 3008, "pitch": 58, "duration": 4, "velocity": 58}, {"time": 3017, "pitch": 44, "duration": 7, "velocity": 79}, {"time": 3017, "pitch": 60, "duration": 7, "velocity": 73}, {"time": 3017, "pitch": 63, "duration": 7, "velocity": 81}, {"time": 3017, "pitch": 68, "duration": 7, "velocity": 87}, {"time": 3029, "pitch": 39, "duration": 45, "velocity": 72}, {"time": 3029, "pitch": 54, "duration": 11, "velocity": 65}, {"time": 3029, "pitch": 58, "duration": 11, "velocity": 73}, {"time": 3035, "pitch": 46, "duration": 40, "velocity": 60}, {"time": 3041, "pitch": 54, "duration": 11, "velocity": 67}, {"time": 3041, "pitch": 58, "duration": 11, "velocity": 76}, {"time": 3041, "pitch": 63, "duration": 8, "velocity": 74}, {"time": 3047, "pitch": 51, "duration": 7, "velocity": 60}, {"time": 3053, "pitch": 54, "duration": 10, "velocity": 65}, {"time": 3053, "pitch": 58, "duration": 10, "velocity": 77}, {"time": 3053, "pitch": 63, "duration": 10, "velocity": 73}, {"time": 3059, "pitch": 51, "duration": 5, "velocity": 60}, {"time": 3065, "pitch": 54, "duration": 10, "velocity": 74}, {"time": 3065, "pitch": 58, "duration": 10, "velocity": 77}, {"time": 3065, "pitch": 63, "duration": 10, "velocity": 77}, {"time": 3071, "pitch": 51, "duration": 5, "velocity": 66}, {"time": 3077, "pitch": 42, "duration": 20, "velocity": 63}, {"time": 3077, "pitch": 49, "duration": 23, "velocity": 100}, {"time": 3077, "pitch": 54, "duration": 5, "velocity": 62}, {"time": 3077, "pitch": 57, "duration": 11, "velocity": 71}, {"time": 3077, "pitch": 61, "duration": 10, "velocity": 81}, {"time": 3077, "pitch": 66, "duration": 8, "velocity": 70}, {"time": 3083, "pitch": 54, "duration": 6, "velocity": 59}, {"time": 3089, "pitch": 57, "duration": 7, "velocity": 100}, {"time": 3089, "pitch": 61, "duration": 6, "velocity": 76}, {"time": 3089, "pitch": 66, "duration": 6, "velocity": 81}, {"time": 3095, "pitch": 54, "duration": 5, "velocity": 58}, {"time": 3101, "pitch": 44, "duration": 18, "velocity": 81}, {"time": 3101, "pitch": 60, "duration": 10, "velocity": 83}, {"time": 3101, "pitch": 63, "duration": 11, "velocity": 81}, {"time": 3107, "pitch": 51, "duration": 12, "velocity": 67}, {"time": 3113, "pitch": 60, "duration": 6, "velocity": 69}, {"time": 3113, "pitch": 63, "duration": 7, "velocity": 70}, {"time": 3113, "pitch": 68, "duration": 6, "velocity": 79}, {"time": 3119, "pitch": 56, "duration": 6, "velocity": 52}, {"time": 3125, "pitch": 49, "duration": 45, "velocity": 56}, {"time": 3125, "pitch": 56, "duration": 44, "velocity": 64}, {"time": 3125, "pitch": 61, "duration": 14, "velocity": 67}, {"time": 3125, "pitch": 65, "duration": 10, "velocity": 67}, {"time": 3125, "pitch": 68, "duration": 10, "velocity": 58}, {"time": 3137, "pitch": 65, "duration": 10, "velocity": 75}, {"time": 3137, "pitch": 68, "duration": 10, "velocity": 73}, {"time": 3143, "pitch": 61, "duration": 7, "velocity": 67}, {"time": 3149, "pitch": 65, "duration": 11, "velocity": 68}, {"time": 3149, "pitch": 68, "duration": 10, "velocity": 76}, {"time": 3155, "pitch": 61, "duration": 6, "velocity": 74}, {"time": 3161, "pitch": 65, "duration": 8, "velocity": 72}, {"time": 3161, "pitch": 68, "duration": 8, "velocity": 98}, {"time": 3167, "pitch": 61, "duration": 4, "velocity": 90}, {"time": 3173, "pitch": 47, "duration": 43, "velocity": 60}, {"time": 3173, "pitch": 51, "duration": 46, "velocity": 59}, {"time": 3173, "pitch": 54, "duration": 46, "velocity": 63}, {"time": 3173, "pitch": 59, "duration": 6, "velocity": 53}, {"time": 3173, "pitch": 63, "duration": 11, "velocity": 61}, {"time": 3173, "pitch": 66, "duration": 11, "velocity": 68}, {"time": 3173, "pitch": 71, "duration": 8, "velocity": 58}, {"time": 3179, "pitch": 59, "duration": 7, "velocity": 59}, {"time": 3185, "pitch": 63, "duration": 11, "velocity": 59}, {"time": 3185, "pitch": 66, "duration": 11, "velocity": 69}, {"time": 3185, "pitch": 71, "duration": 7, "velocity": 81}, {"time": 3191, "pitch": 59, "duration": 7, "velocity": 52}, {"time": 3197, "pitch": 63, "duration": 11, "velocity": 63}, {"time": 3197, "pitch": 66, "duration": 11, "velocity": 74}, {"time": 3197, "pitch": 71, "duration": 6, "velocity": 79}, {"time": 3203, "pitch": 59, "duration": 6, "velocity": 54}, {"time": 3209, "pitch": 63, "duration": 8, "velocity": 67}, {"time": 3209, "pitch": 66, "duration": 8, "velocity": 87}, {"time": 3209, "pitch": 71, "duration": 8, "velocity": 83}, {"time": 3215, "pitch": 59, "duration": 3, "velocity": 60}, {"time": 3221, "pitch": 49, "duration": 41, "velocity": 81}, {"time": 3221, "pitch": 65, "duration": 11, "velocity": 64}, {"time": 3221, "pitch": 68, "duration": 11, "velocity": 61}, {"time": 3221, "pitch": 73, "duration": 11, "velocity": 62}, {"time": 3233, "pitch": 65, "duration": 11, "velocity": 65}, {"time": 3233, "pitch": 68, "duration": 11, "velocity": 66}, {"time": 3233, "pitch": 73, "duration": 11, "velocity": 65}, {"time": 3239, "pitch": 56, "duration": 22, "velocity": 55}, {"time": 3245, "pitch": 65, "duration": 11, "velocity": 64}, {"time": 3245, "pitch": 68, "duration": 11, "velocity": 61}, {"time": 3245, "pitch": 73, "duration": 10, "velocity": 64}, {"time": 3251, "pitch": 61, "duration": 6, "velocity": 52}, {"time": 3257, "pitch": 65, "duration": 6, "velocity": 64}, {"time": 3257, "pitch": 68, "duration": 6, "velocity": 71}, {"time": 3257, "pitch": 73, "duration": 6, "velocity": 67}, {"time": 3269, "pitch": 42, "duration": 86, "velocity": 60}, {"time": 3269, "pitch": 45, "duration": 86, "velocity": 76}, {"time": 3269, "pitch": 49, "duration": 86, "velocity": 71}, {"time": 3269, "pitch": 54, "duration": 85, "velocity": 57}, {"time": 3269, "pitch": 61, "duration": 85, "velocity": 90}, {"time": 3269, "pitch": 66, "duration": 85, "velocity": 69}], "annotations": [{"time": 5, "annotation": {"number": 64, "value": 75}, "group": "control_change"}, {"time": 29, "annotation": {"number": 64, "value": 74}, "group": "control_change"}]}]}