{"metadata": {"schema_version": "0.2", "title": "None", "source_filename": "151.mid", "source_format": "midi"}, "resolution": 12, "tempos": [{"time": 0, "qpm": 75.0}], "time_signatures": [{"time": 0, "numerator": 1, "denominator": 4}], "tracks": [{"program": 4, "is_drum": false, "name": "MELODY", "notes": [{"time": 209, "pitch": 77, "duration": 6, "velocity": 76}, {"time": 215, "pitch": 76, "duration": 6, "velocity": 71}, {"time": 221, "pitch": 74, "duration": 6, "velocity": 64}, {"time": 227, "pitch": 69, "duration": 6, "velocity": 64}, {"time": 233, "pitch": 74, "duration": 6, "velocity": 66}, {"time": 239, "pitch": 76, "duration": 6, "velocity": 67}, {"time": 245, "pitch": 77, "duration": 6, "velocity": 79}, {"time": 251, "pitch": 76, "duration": 6, "velocity": 69}, {"time": 257, "pitch": 74, "duration": 6, "velocity": 60}, {"time": 263, "pitch": 79, "duration": 6, "velocity": 83}, {"time": 269, "pitch": 81, "duration": 36, "velocity": 76}, {"time": 305, "pitch": 81, "duration": 6, "velocity": 69}, {"time": 311, "pitch": 79, "duration": 6, "velocity": 72}, {"time": 317, "pitch": 81, "duration": 6, "velocity": 68}, {"time": 323, "pitch": 74, "duration": 6, "velocity": 71}, {"time": 329, "pitch": 79, "duration": 6, "velocity": 83}, {"time": 335, "pitch": 79, "duration": 6, "velocity": 76}, {"time": 341, "pitch": 81, "duration": 6, "velocity": 65}, {"time": 347, "pitch": 74, "duration": 6, "velocity": 67}, {"time": 353, "pitch": 79, "duration": 6, "velocity": 73}, {"time": 359, "pitch": 77, "duration": 6, "velocity": 67}, {"time": 365, "pitch": 69, "duration": 36, "velocity": 55}, {"time": 401, "pitch": 77, "duration": 6, "velocity": 64}, {"time": 407, "pitch": 76, "duration": 6, "velocity": 63}, {"time": 413, "pitch": 74, "duration": 6, "velocity": 59}, {"time": 419, "pitch": 69, "duration": 8, "velocity": 59}, {"time": 425, "pitch": 74, "duration": 6, "velocity": 61}, {"time": 431, "pitch": 76, "duration": 6, "velocity": 62}, {"time": 437, "pitch": 77, "duration": 6, "velocity": 64}, {"time": 443, "pitch": 77, "duration": 6, "velocity": 81}, {"time": 449, "pitch": 74, "duration": 6, "velocity": 59}, {"time": 455, "pitch": 84, "duration": 6, "velocity": 47}, {"time": 461, "pitch": 81, "duration": 42, "velocity": 67}, {"time": 503, "pitch": 74, "duration": 6, "velocity": 59}, {"time": 509, "pitch": 81, "duration": 6, "velocity": 71}, {"time": 515, "pitch": 79, "duration": 6, "velocity": 71}, {"time": 521, "pitch": 81, "duration": 6, "velocity": 66}, {"time": 527, "pitch": 79, "duration": 6, "velocity": 74}, {"time": 533, "pitch": 81, "duration": 12, "velocity": 70}, {"time": 545, "pitch": 76, "duration": 6, "velocity": 67}, {"time": 551, "pitch": 72, "duration": 6, "velocity": 63}, {"time": 557, "pitch": 74, "duration": 37, "velocity": 69}, {"time": 593, "pitch": 77, "duration": 6, "velocity": 76}, {"time": 599, "pitch": 76, "duration": 6, "velocity": 71}, {"time": 605, "pitch": 74, "duration": 6, "velocity": 64}, {"time": 611, "pitch": 69, "duration": 6, "velocity": 64}, {"time": 617, "pitch": 74, "duration": 7, "velocity": 66}, {"time": 623, "pitch": 76, "duration": 8, "velocity": 67}, {"time": 629, "pitch": 77, "duration": 7, "velocity": 79}, {"time": 635, "pitch": 77, "duration": 1, "velocity": 69}, {"time": 641, "pitch": 74, "duration": 7, "velocity": 60}, {"time": 647, "pitch": 79, "duration": 6, "velocity": 83}, {"time": 653, "pitch": 81, "duration": 36, "velocity": 76}, {"time": 689, "pitch": 81, "duration": 6, "velocity": 69}, {"time": 695, "pitch": 79, "duration": 7, "velocity": 72}, {"time": 701, "pitch": 81, "duration": 6, "velocity": 68}, {"time": 707, "pitch": 74, "duration": 7, "velocity": 71}, {"time": 713, "pitch": 79, "duration": 6, "velocity": 83}, {"time": 719, "pitch": 79, "duration": 6, "velocity": 76}, {"time": 725, "pitch": 81, "duration": 6, "velocity": 65}, {"time": 731, "pitch": 76, "duration": 6, "velocity": 67}, {"time": 737, "pitch": 79, "duration": 6, "velocity": 73}, {"time": 743, "pitch": 77, "duration": 6, "velocity": 67}, {"time": 749, "pitch": 69, "duration": 36, "velocity": 55}, {"time": 785, "pitch": 77, "duration": 6, "velocity": 64}, {"time": 791, "pitch": 76, "duration": 6, "velocity": 63}, {"time": 797, "pitch": 74, "duration": 6, "velocity": 59}, {"time": 803, "pitch": 69, "duration": 10, "velocity": 59}, {"time": 809, "pitch": 74, "duration": 6, "velocity": 61}, {"time": 815, "pitch": 76, "duration": 6, "velocity": 62}, {"time": 821, "pitch": 77, "duration": 6, "velocity": 64}, {"time": 827, "pitch": 77, "duration": 6, "velocity": 81}, {"time": 833, "pitch": 74, "duration": 7, "velocity": 59}, {"time": 839, "pitch": 84, "duration": 6, "velocity": 47}, {"time": 845, "pitch": 81, "duration": 42, "velocity": 67}, {"time": 887, "pitch": 74, "duration": 6, "velocity": 59}, {"time": 893, "pitch": 77, "duration": 6, "velocity": 71}, {"time": 899, "pitch": 79, "duration": 6, "velocity": 71}, {"time": 905, "pitch": 81, "duration": 6, "velocity": 66}, {"time": 911, "pitch": 79, "duration": 6, "velocity": 74}, {"time": 917, "pitch": 81, "duration": 12, "velocity": 70}, {"time": 929, "pitch": 72, "duration": 12, "velocity": 62}, {"time": 941, "pitch": 74, "duration": 6, "velocity": 65}, {"time": 947, "pitch": 74, "duration": 30, "velocity": 70}, {"time": 977, "pitch": 74, "duration": 12, "velocity": 61}, {"time": 983, "pitch": 77, "duration": 7, "velocity": 67}, {"time": 989, "pitch": 81, "duration": 7, "velocity": 64}, {"time": 995, "pitch": 86, "duration": 12, "velocity": 71}, {"time": 1007, "pitch": 86, "duration": 6, "velocity": 70}, {"time": 1013, "pitch": 84, "duration": 6, "velocity": 61}, {"time": 1019, "pitch": 86, "duration": 12, "velocity": 70}, {"time": 1031, "pitch": 84, "duration": 6, "velocity": 65}, {"time": 1037, "pitch": 81, "duration": 7, "velocity": 64}, {"time": 1043, "pitch": 84, "duration": 6, "velocity": 69}, {"time": 1049, "pitch": 81, "duration": 7, "velocity": 69}, {"time": 1055, "pitch": 79, "duration": 7, "velocity": 70}, {"time": 1061, "pitch": 81, "duration": 18, "velocity": 60}, {"time": 1079, "pitch": 81, "duration": 6, "velocity": 70}, {"time": 1085, "pitch": 81, "duration": 6, "velocity": 74}, {"time": 1091, "pitch": 76, "duration": 6, "velocity": 65}, {"time": 1097, "pitch": 76, "duration": 6, "velocity": 64}, {"time": 1103, "pitch": 76, "duration": 6, "velocity": 70}, {"time": 1109, "pitch": 74, "duration": 6, "velocity": 72}, {"time": 1115, "pitch": 73, "duration": 12, "velocity": 90}, {"time": 1127, "pitch": 76, "duration": 7, "velocity": 75}, {"time": 1133, "pitch": 77, "duration": 7, "velocity": 73}, {"time": 1139, "pitch": 79, "duration": 7, "velocity": 73}, {"time": 1145, "pitch": 81, "duration": 24, "velocity": 81}, {"time": 1169, "pitch": 74, "duration": 11, "velocity": 58}, {"time": 1175, "pitch": 77, "duration": 11, "velocity": 69}, {"time": 1181, "pitch": 81, "duration": 6, "velocity": 65}, {"time": 1187, "pitch": 86, "duration": 12, "velocity": 81}, {"time": 1199, "pitch": 86, "duration": 6, "velocity": 83}, {"time": 1205, "pitch": 84, "duration": 6, "velocity": 61}, {"time": 1211, "pitch": 86, "duration": 18, "velocity": 93}, {"time": 1229, "pitch": 82, "duration": 6, "velocity": 81}, {"time": 1235, "pitch": 81, "duration": 7, "velocity": 64}, {"time": 1241, "pitch": 82, "duration": 7, "velocity": 81}, {"time": 1247, "pitch": 81, "duration": 6, "velocity": 60}, {"time": 1253, "pitch": 69, "duration": 7, "velocity": 52}, {"time": 1259, "pitch": 77, "duration": 24, "velocity": 72}, {"time": 1283, "pitch": 76, "duration": 12, "velocity": 67}, {"time": 1289, "pitch": 77, "duration": 6, "velocity": 81}, {"time": 1295, "pitch": 79, "duration": 6, "velocity": 67}, {"time": 1301, "pitch": 81, "duration": 6, "velocity": 62}, {"time": 1307, "pitch": 74, "duration": 18, "velocity": 75}, {"time": 1325, "pitch": 77, "duration": 7, "velocity": 65}, {"time": 1331, "pitch": 76, "duration": 6, "velocity": 66}, {"time": 1337, "pitch": 74, "duration": 7, "velocity": 59}, {"time": 1343, "pitch": 77, "duration": 12, "velocity": 72}, {"time": 1355, "pitch": 76, "duration": 73, "velocity": 66}, {"time": 1793, "pitch": 77, "duration": 6, "velocity": 76}, {"time": 1799, "pitch": 76, "duration": 6, "velocity": 71}, {"time": 1805, "pitch": 74, "duration": 6, "velocity": 64}, {"time": 1811, "pitch": 69, "duration": 6, "velocity": 64}, {"time": 1817, "pitch": 74, "duration": 6, "velocity": 66}, {"time": 1823, "pitch": 76, "duration": 6, "velocity": 67}, {"time": 1829, "pitch": 77, "duration": 6, "velocity": 79}, {"time": 1835, "pitch": 77, "duration": 6, "velocity": 69}, {"time": 1841, "pitch": 74, "duration": 7, "velocity": 60}, {"time": 1847, "pitch": 79, "duration": 6, "velocity": 83}, {"time": 1853, "pitch": 81, "duration": 42, "velocity": 76}, {"time": 1895, "pitch": 74, "duration": 7, "velocity": 75}, {"time": 1901, "pitch": 81, "duration": 6, "velocity": 66}, {"time": 1907, "pitch": 79, "duration": 6, "velocity": 85}, {"time": 1913, "pitch": 81, "duration": 6, "velocity": 70}, {"time": 1919, "pitch": 79, "duration": 6, "velocity": 62}, {"time": 1925, "pitch": 81, "duration": 6, "velocity": 70}, {"time": 1931, "pitch": 77, "duration": 6, "velocity": 75}, {"time": 1937, "pitch": 79, "duration": 12, "velocity": 77}, {"time": 1949, "pitch": 77, "duration": 6, "velocity": 68}, {"time": 1955, "pitch": 79, "duration": 30, "velocity": 80}, {"time": 1985, "pitch": 77, "duration": 6, "velocity": 64}, {"time": 1991, "pitch": 76, "duration": 6, "velocity": 63}, {"time": 1997, "pitch": 74, "duration": 6, "velocity": 59}, {"time": 2003, "pitch": 69, "duration": 10, "velocity": 59}, {"time": 2009, "pitch": 74, "duration": 7, "velocity": 61}, {"time": 2015, "pitch": 76, "duration": 6, "velocity": 62}, {"time": 2021, "pitch": 77, "duration": 6, "velocity": 64}, {"time": 2027, "pitch": 77, "duration": 6, "velocity": 81}, {"time": 2033, "pitch": 79, "duration": 7, "velocity": 77}, {"time": 2039, "pitch": 84, "duration": 6, "velocity": 47}, {"time": 2045, "pitch": 81, "duration": 42, "velocity": 67}, {"time": 2087, "pitch": 74, "duration": 6, "velocity": 59}, {"time": 2093, "pitch": 77, "duration": 6, "velocity": 71}, {"time": 2099, "pitch": 79, "duration": 6, "velocity": 71}, {"time": 2105, "pitch": 81, "duration": 6, "velocity": 66}, {"time": 2111, "pitch": 79, "duration": 6, "velocity": 74}, {"time": 2117, "pitch": 81, "duration": 6, "velocity": 70}, {"time": 2123, "pitch": 72, "duration": 12, "velocity": 72}, {"time": 2135, "pitch": 74, "duration": 6, "velocity": 66}, {"time": 2141, "pitch": 74, "duration": 36, "velocity": 74}, {"time": 2177, "pitch": 74, "duration": 12, "velocity": 61}, {"time": 2183, "pitch": 77, "duration": 7, "velocity": 67}, {"time": 2189, "pitch": 81, "duration": 7, "velocity": 64}, {"time": 2195, "pitch": 86, "duration": 12, "velocity": 71}, {"time": 2207, "pitch": 86, "duration": 6, "velocity": 70}, {"time": 2213, "pitch": 84, "duration": 6, "velocity": 61}, {"time": 2219, "pitch": 86, "duration": 12, "velocity": 70}, {"time": 2231, "pitch": 84, "duration": 6, "velocity": 65}, {"time": 2237, "pitch": 81, "duration": 7, "velocity": 64}, {"time": 2243, "pitch": 84, "duration": 6, "velocity": 69}, {"time": 2249, "pitch": 81, "duration": 6, "velocity": 69}, {"time": 2255, "pitch": 79, "duration": 7, "velocity": 70}, {"time": 2261, "pitch": 81, "duration": 18, "velocity": 60}, {"time": 2279, "pitch": 81, "duration": 6, "velocity": 70}, {"time": 2285, "pitch": 81, "duration": 6, "velocity": 74}, {"time": 2291, "pitch": 76, "duration": 6, "velocity": 65}, {"time": 2297, "pitch": 76, "duration": 6, "velocity": 64}, {"time": 2303, "pitch": 76, "duration": 6, "velocity": 70}, {"time": 2309, "pitch": 74, "duration": 6, "velocity": 72}, {"time": 2315, "pitch": 73, "duration": 12, "velocity": 68}, {"time": 2327, "pitch": 76, "duration": 7, "velocity": 75}, {"time": 2333, "pitch": 77, "duration": 7, "velocity": 73}, {"time": 2339, "pitch": 79, "duration": 7, "velocity": 73}, {"time": 2345, "pitch": 82, "duration": 12, "velocity": 81}, {"time": 2357, "pitch": 81, "duration": 12, "velocity": 81}, {"time": 2369, "pitch": 74, "duration": 11, "velocity": 58}, {"time": 2375, "pitch": 77, "duration": 11, "velocity": 69}, {"time": 2381, "pitch": 81, "duration": 6, "velocity": 65}, {"time": 2387, "pitch": 86, "duration": 12, "velocity": 81}, {"time": 2399, "pitch": 86, "duration": 6, "velocity": 83}, {"time": 2405, "pitch": 84, "duration": 6, "velocity": 61}, {"time": 2411, "pitch": 86, "duration": 18, "velocity": 93}, {"time": 2429, "pitch": 82, "duration": 6, "velocity": 81}, {"time": 2435, "pitch": 81, "duration": 7, "velocity": 64}, {"time": 2441, "pitch": 82, "duration": 7, "velocity": 81}, {"time": 2447, "pitch": 81, "duration": 6, "velocity": 60}, {"time": 2453, "pitch": 69, "duration": 7, "velocity": 52}, {"time": 2459, "pitch": 77, "duration": 24, "velocity": 72}, {"time": 2483, "pitch": 76, "duration": 6, "velocity": 67}, {"time": 2489, "pitch": 77, "duration": 6, "velocity": 81}, {"time": 2495, "pitch": 79, "duration": 6, "velocity": 67}, {"time": 2501, "pitch": 81, "duration": 6, "velocity": 62}, {"time": 2507, "pitch": 74, "duration": 18, "velocity": 75}, {"time": 2525, "pitch": 77, "duration": 7, "velocity": 65}, {"time": 2531, "pitch": 76, "duration": 6, "velocity": 66}, {"time": 2537, "pitch": 74, "duration": 6, "velocity": 59}, {"time": 2543, "pitch": 82, "duration": 9, "velocity": 72}, {"time": 2552, "pitch": 81, "duration": 9, "velocity": 87}, {"time": 2561, "pitch": 74, "duration": 12, "velocity": 61}, {"time": 2567, "pitch": 77, "duration": 7, "velocity": 67}, {"time": 2573, "pitch": 81, "duration": 7, "velocity": 64}, {"time": 2579, "pitch": 86, "duration": 12, "velocity": 71}, {"time": 2591, "pitch": 86, "duration": 6, "velocity": 70}, {"time": 2597, "pitch": 84, "duration": 6, "velocity": 61}, {"time": 2603, "pitch": 86, "duration": 12, "velocity": 70}, {"time": 2615, "pitch": 86, "duration": 6, "velocity": 65}, {"time": 2621, "pitch": 81, "duration": 7, "velocity": 64}, {"time": 2627, "pitch": 84, "duration": 6, "velocity": 69}, {"time": 2633, "pitch": 81, "duration": 7, "velocity": 69}, {"time": 2639, "pitch": 79, "duration": 7, "velocity": 70}, {"time": 2645, "pitch": 81, "duration": 18, "velocity": 60}, {"time": 2663, "pitch": 81, "duration": 6, "velocity": 70}, {"time": 2669, "pitch": 81, "duration": 6, "velocity": 74}, {"time": 2675, "pitch": 76, "duration": 12, "velocity": 65}, {"time": 2687, "pitch": 76, "duration": 6, "velocity": 70}, {"time": 2693, "pitch": 74, "duration": 6, "velocity": 72}, {"time": 2699, "pitch": 73, "duration": 6, "velocity": 90}, {"time": 2705, "pitch": 74, "duration": 7, "velocity": 86}, {"time": 2711, "pitch": 76, "duration": 7, "velocity": 75}, {"time": 2717, "pitch": 77, "duration": 7, "velocity": 73}, {"time": 2723, "pitch": 79, "duration": 7, "velocity": 73}, {"time": 2729, "pitch": 82, "duration": 12, "velocity": 81}, {"time": 2741, "pitch": 81, "duration": 12, "velocity": 83}, {"time": 2753, "pitch": 74, "duration": 11, "velocity": 58}, {"time": 2759, "pitch": 77, "duration": 11, "velocity": 69}, {"time": 2765, "pitch": 81, "duration": 6, "velocity": 65}, {"time": 2771, "pitch": 86, "duration": 12, "velocity": 81}, {"time": 2783, "pitch": 86, "duration": 6, "velocity": 83}, {"time": 2789, "pitch": 84, "duration": 6, "velocity": 61}, {"time": 2795, "pitch": 86, "duration": 6, "velocity": 93}, {"time": 2801, "pitch": 86, "duration": 12, "velocity": 111}, {"time": 2813, "pitch": 81, "duration": 6, "velocity": 67}, {"time": 2819, "pitch": 84, "duration": 6, "velocity": 76}, {"time": 2825, "pitch": 81, "duration": 6, "velocity": 68}, {"time": 2831, "pitch": 79, "duration": 6, "velocity": 86}, {"time": 2837, "pitch": 81, "duration": 30, "velocity": 93}, {"time": 2867, "pitch": 81, "duration": 7, "velocity": 75}, {"time": 2873, "pitch": 82, "duration": 7, "velocity": 79}, {"time": 2879, "pitch": 81, "duration": 7, "velocity": 64}, {"time": 2885, "pitch": 82, "duration": 12, "velocity": 100}, {"time": 2897, "pitch": 76, "duration": 12, "velocity": 72}, {"time": 2909, "pitch": 77, "duration": 6, "velocity": 72}, {"time": 2915, "pitch": 74, "duration": 114, "velocity": 87}, {"time": 3029, "pitch": 77, "duration": 6, "velocity": 63}, {"time": 3035, "pitch": 76, "duration": 6, "velocity": 66}, {"time": 3041, "pitch": 74, "duration": 7, "velocity": 64}, {"time": 3047, "pitch": 76, "duration": 6, "velocity": 65}, {"time": 3053, "pitch": 74, "duration": 6, "velocity": 68}, {"time": 3059, "pitch": 76, "duration": 6, "velocity": 67}, {"time": 3065, "pitch": 74, "duration": 6, "velocity": 65}, {"time": 3071, "pitch": 79, "duration": 6, "velocity": 63}, {"time": 3077, "pitch": 81, "duration": 48, "velocity": 75}, {"time": 3125, "pitch": 69, "duration": 6, "velocity": 58}, {"time": 3131, "pitch": 69, "duration": 6, "velocity": 58}, {"time": 3137, "pitch": 77, "duration": 6, "velocity": 61}, {"time": 3143, "pitch": 76, "duration": 8, "velocity": 65}, {"time": 3149, "pitch": 77, "duration": 9, "velocity": 65}, {"time": 3158, "pitch": 74, "duration": 70, "velocity": 50}]}, {"program": 0, "is_drum": false, "name": "PIANO", "notes": [{"time": 35, "pitch": 38, "duration": 41, "velocity": 63}, {"time": 41, "pitch": 53, "duration": 6, "velocity": 45}, {"time": 47, "pitch": 57, "duration": 7, "velocity": 59}, {"time": 53, "pitch": 53, "duration": 7, "velocity": 54}, {"time": 59, "pitch": 62, "duration": 8, "velocity": 59}, {"time": 65, "pitch": 53, "duration": 6, "velocity": 57}, {"time": 71, "pitch": 57, "duration": 6, "velocity": 59}, {"time": 77, "pitch": 53, "duration": 7, "velocity": 59}, {"time": 83, "pitch": 34, "duration": 40, "velocity": 61}, {"time": 89, "pitch": 53, "duration": 7, "velocity": 55}, {"time": 95, "pitch": 57, "duration": 6, "velocity": 61}, {"time": 101, "pitch": 53, "duration": 6, "velocity": 52}, {"time": 107, "pitch": 62, "duration": 8, "velocity": 61}, {"time": 113, "pitch": 53, "duration": 7, "velocity": 57}, {"time": 119, "pitch": 57, "duration": 6, "velocity": 63}, {"time": 125, "pitch": 53, "duration": 7, "velocity": 60}, {"time": 131, "pitch": 31, "duration": 41, "velocity": 62}, {"time": 137, "pitch": 53, "duration": 6, "velocity": 52}, {"time": 143, "pitch": 58, "duration": 7, "velocity": 62}, {"time": 149, "pitch": 53, "duration": 7, "velocity": 56}, {"time": 155, "pitch": 62, "duration": 4, "velocity": 73}, {"time": 161, "pitch": 53, "duration": 7, "velocity": 55}, {"time": 167, "pitch": 58, "duration": 5, "velocity": 58}, {"time": 173, "pitch": 53, "duration": 3, "velocity": 60}, {"time": 179, "pitch": 45, "duration": 48, "velocity": 58}, {"time": 185, "pitch": 49, "duration": 42, "velocity": 58}, {"time": 191, "pitch": 52, "duration": 36, "velocity": 56}, {"time": 197, "pitch": 61, "duration": 30, "velocity": 74}, {"time": 197, "pitch": 64, "duration": 29, "velocity": 72}, {"time": 227, "pitch": 38, "duration": 40, "velocity": 86}, {"time": 233, "pitch": 53, "duration": 6, "velocity": 58}, {"time": 239, "pitch": 57, "duration": 6, "velocity": 63}, {"time": 245, "pitch": 53, "duration": 7, "velocity": 59}, {"time": 251, "pitch": 62, "duration": 8, "velocity": 61}, {"time": 257, "pitch": 53, "duration": 7, "velocity": 56}, {"time": 263, "pitch": 57, "duration": 5, "velocity": 63}, {"time": 269, "pitch": 53, "duration": 7, "velocity": 60}, {"time": 275, "pitch": 34, "duration": 43, "velocity": 70}, {"time": 281, "pitch": 53, "duration": 6, "velocity": 55}, {"time": 287, "pitch": 57, "duration": 13, "velocity": 59}, {"time": 293, "pitch": 53, "duration": 7, "velocity": 55}, {"time": 299, "pitch": 62, "duration": 9, "velocity": 63}, {"time": 305, "pitch": 53, "duration": 7, "velocity": 59}, {"time": 311, "pitch": 57, "duration": 6, "velocity": 60}, {"time": 317, "pitch": 53, "duration": 8, "velocity": 61}, {"time": 323, "pitch": 31, "duration": 43, "velocity": 60}, {"time": 329, "pitch": 53, "duration": 6, "velocity": 60}, {"time": 335, "pitch": 58, "duration": 7, "velocity": 63}, {"time": 341, "pitch": 53, "duration": 6, "velocity": 56}, {"time": 347, "pitch": 62, "duration": 7, "velocity": 67}, {"time": 353, "pitch": 53, "duration": 6, "velocity": 58}, {"time": 359, "pitch": 58, "duration": 6, "velocity": 58}, {"time": 365, "pitch": 53, "duration": 7, "velocity": 63}, {"time": 371, "pitch": 45, "duration": 44, "velocity": 70}, {"time": 377, "pitch": 52, "duration": 39, "velocity": 58}, {"time": 383, "pitch": 57, "duration": 36, "velocity": 53}, {"time": 389, "pitch": 59, "duration": 7, "velocity": 58}, {"time": 395, "pitch": 49, "duration": 21, "velocity": 67}, {"time": 395, "pitch": 61, "duration": 22, "velocity": 76}, {"time": 419, "pitch": 38, "duration": 46, "velocity": 73}, {"time": 425, "pitch": 53, "duration": 5, "velocity": 62}, {"time": 431, "pitch": 57, "duration": 7, "velocity": 65}, {"time": 437, "pitch": 53, "duration": 7, "velocity": 59}, {"time": 443, "pitch": 62, "duration": 10, "velocity": 65}, {"time": 449, "pitch": 53, "duration": 7, "velocity": 59}, {"time": 455, "pitch": 57, "duration": 6, "velocity": 61}, {"time": 461, "pitch": 53, "duration": 6, "velocity": 58}, {"time": 467, "pitch": 29, "duration": 43, "velocity": 73}, {"time": 473, "pitch": 48, "duration": 6, "velocity": 50}, {"time": 479, "pitch": 53, "duration": 8, "velocity": 67}, {"time": 485, "pitch": 48, "duration": 6, "velocity": 47}, {"time": 491, "pitch": 57, "duration": 7, "velocity": 60}, {"time": 497, "pitch": 48, "duration": 6, "velocity": 59}, {"time": 503, "pitch": 53, "duration": 7, "velocity": 70}, {"time": 509, "pitch": 48, "duration": 7, "velocity": 61}, {"time": 515, "pitch": 31, "duration": 19, "velocity": 67}, {"time": 521, "pitch": 38, "duration": 17, "velocity": 54}, {"time": 527, "pitch": 43, "duration": 7, "velocity": 52}, {"time": 533, "pitch": 46, "duration": 6, "velocity": 62}, {"time": 539, "pitch": 33, "duration": 18, "velocity": 65}, {"time": 545, "pitch": 40, "duration": 12, "velocity": 54}, {"time": 551, "pitch": 45, "duration": 7, "velocity": 59}, {"time": 557, "pitch": 48, "duration": 6, "velocity": 59}, {"time": 563, "pitch": 38, "duration": 41, "velocity": 69}, {"time": 569, "pitch": 45, "duration": 36, "velocity": 56}, {"time": 575, "pitch": 50, "duration": 15, "velocity": 58}, {"time": 581, "pitch": 53, "duration": 8, "velocity": 56}, {"time": 587, "pitch": 62, "duration": 16, "velocity": 76}, {"time": 590, "pitch": 53, "duration": 10, "velocity": 44}, {"time": 593, "pitch": 50, "duration": 6, "velocity": 53}, {"time": 599, "pitch": 57, "duration": 6, "velocity": 69}, {"time": 605, "pitch": 53, "duration": 10, "velocity": 72}, {"time": 611, "pitch": 38, "duration": 42, "velocity": 77}, {"time": 617, "pitch": 50, "duration": 21, "velocity": 61}, {"time": 617, "pitch": 53, "duration": 1, "velocity": 54}, {"time": 623, "pitch": 45, "duration": 30, "velocity": 60}, {"time": 623, "pitch": 57, "duration": 9, "velocity": 69}, {"time": 629, "pitch": 53, "duration": 7, "velocity": 55}, {"time": 635, "pitch": 62, "duration": 11, "velocity": 73}, {"time": 641, "pitch": 50, "duration": 5, "velocity": 48}, {"time": 647, "pitch": 53, "duration": 12, "velocity": 67}, {"time": 653, "pitch": 57, "duration": 6, "velocity": 64}, {"time": 659, "pitch": 34, "duration": 38, "velocity": 65}, {"time": 665, "pitch": 53, "duration": 7, "velocity": 56}, {"time": 671, "pitch": 57, "duration": 12, "velocity": 67}, {"time": 677, "pitch": 53, "duration": 6, "velocity": 58}, {"time": 683, "pitch": 62, "duration": 12, "velocity": 64}, {"time": 689, "pitch": 53, "duration": 7, "velocity": 53}, {"time": 695, "pitch": 57, "duration": 7, "velocity": 65}, {"time": 701, "pitch": 53, "duration": 12, "velocity": 60}, {"time": 707, "pitch": 31, "duration": 42, "velocity": 70}, {"time": 713, "pitch": 34, "duration": 38, "velocity": 59}, {"time": 719, "pitch": 38, "duration": 33, "velocity": 64}, {"time": 725, "pitch": 46, "duration": 16, "velocity": 60}, {"time": 731, "pitch": 43, "duration": 9, "velocity": 51}, {"time": 737, "pitch": 50, "duration": 10, "velocity": 63}, {"time": 743, "pitch": 43, "duration": 7, "velocity": 52}, {"time": 749, "pitch": 46, "duration": 6, "velocity": 43}, {"time": 755, "pitch": 33, "duration": 38, "velocity": 67}, {"time": 761, "pitch": 40, "duration": 32, "velocity": 58}, {"time": 767, "pitch": 45, "duration": 16, "velocity": 54}, {"time": 773, "pitch": 49, "duration": 6, "velocity": 83}, {"time": 779, "pitch": 50, "duration": 14, "velocity": 75}, {"time": 785, "pitch": 45, "duration": 7, "velocity": 62}, {"time": 791, "pitch": 52, "duration": 11, "velocity": 77}, {"time": 803, "pitch": 38, "duration": 38, "velocity": 76}, {"time": 809, "pitch": 45, "duration": 31, "velocity": 60}, {"time": 815, "pitch": 53, "duration": 11, "velocity": 66}, {"time": 821, "pitch": 50, "duration": 7, "velocity": 59}, {"time": 827, "pitch": 53, "duration": 12, "velocity": 54}, {"time": 827, "pitch": 57, "duration": 11, "velocity": 75}, {"time": 833, "pitch": 50, "duration": 4, "velocity": 54}, {"time": 839, "pitch": 53, "duration": 12, "velocity": 67}, {"time": 839, "pitch": 57, "duration": 11, "velocity": 74}, {"time": 851, "pitch": 41, "duration": 41, "velocity": 74}, {"time": 857, "pitch": 48, "duration": 40, "velocity": 63}, {"time": 863, "pitch": 53, "duration": 13, "velocity": 58}, {"time": 869, "pitch": 57, "duration": 17, "velocity": 58}, {"time": 875, "pitch": 60, "duration": 11, "velocity": 73}, {"time": 881, "pitch": 53, "duration": 9, "velocity": 52}, {"time": 887, "pitch": 57, "duration": 6, "velocity": 61}, {"time": 887, "pitch": 60, "duration": 6, "velocity": 72}, {"time": 893, "pitch": 53, "duration": 4, "velocity": 43}, {"time": 899, "pitch": 43, "duration": 19, "velocity": 74}, {"time": 899, "pitch": 58, "duration": 24, "velocity": 59}, {"time": 905, "pitch": 50, "duration": 17, "velocity": 60}, {"time": 911, "pitch": 55, "duration": 9, "velocity": 53}, {"time": 917, "pitch": 62, "duration": 6, "velocity": 69}, {"time": 923, "pitch": 45, "duration": 18, "velocity": 74}, {"time": 929, "pitch": 52, "duration": 13, "velocity": 53}, {"time": 935, "pitch": 57, "duration": 10, "velocity": 58}, {"time": 941, "pitch": 60, "duration": 6, "velocity": 63}, {"time": 947, "pitch": 50, "duration": 46, "velocity": 73}, {"time": 953, "pitch": 57, "duration": 35, "velocity": 56}, {"time": 959, "pitch": 62, "duration": 13, "velocity": 47}, {"time": 965, "pitch": 64, "duration": 6, "velocity": 61}, {"time": 971, "pitch": 65, "duration": 11, "velocity": 83}, {"time": 977, "pitch": 62, "duration": 7, "velocity": 62}, {"time": 983, "pitch": 67, "duration": 11, "velocity": 90}, {"time": 995, "pitch": 46, "duration": 20, "velocity": 58}, {"time": 1001, "pitch": 50, "duration": 12, "velocity": 58}, {"time": 1007, "pitch": 53, "duration": 9, "velocity": 46}, {"time": 1013, "pitch": 62, "duration": 6, "velocity": 68}, {"time": 1019, "pitch": 48, "duration": 17, "velocity": 74}, {"time": 1025, "pitch": 55, "duration": 10, "velocity": 53}, {"time": 1031, "pitch": 64, "duration": 11, "velocity": 59}, {"time": 1037, "pitch": 67, "duration": 6, "velocity": 71}, {"time": 1043, "pitch": 41, "duration": 37, "velocity": 69}, {"time": 1049, "pitch": 48, "duration": 35, "velocity": 65}, {"time": 1055, "pitch": 57, "duration": 27, "velocity": 59}, {"time": 1061, "pitch": 60, "duration": 23, "velocity": 67}, {"time": 1067, "pitch": 53, "duration": 7, "velocity": 57}, {"time": 1079, "pitch": 53, "duration": 4, "velocity": 55}, {"time": 1085, "pitch": 57, "duration": 6, "velocity": 65}, {"time": 1085, "pitch": 60, "duration": 6, "velocity": 63}, {"time": 1091, "pitch": 45, "duration": 40, "velocity": 69}, {"time": 1097, "pitch": 52, "duration": 36, "velocity": 53}, {"time": 1103, "pitch": 57, "duration": 14, "velocity": 46}, {"time": 1109, "pitch": 61, "duration": 15, "velocity": 70}, {"time": 1115, "pitch": 64, "duration": 11, "velocity": 75}, {"time": 1121, "pitch": 49, "duration": 9, "velocity": 33}, {"time": 1121, "pitch": 57, "duration": 12, "velocity": 53}, {"time": 1127, "pitch": 61, "duration": 7, "velocity": 84}, {"time": 1133, "pitch": 64, "duration": 6, "velocity": 77}, {"time": 1139, "pitch": 50, "duration": 24, "velocity": 64}, {"time": 1145, "pitch": 57, "duration": 36, "velocity": 62}, {"time": 1151, "pitch": 62, "duration": 8, "velocity": 60}, {"time": 1163, "pitch": 48, "duration": 23, "velocity": 81}, {"time": 1163, "pitch": 62, "duration": 8, "velocity": 81}, {"time": 1169, "pitch": 65, "duration": 13, "velocity": 74}, {"time": 1175, "pitch": 62, "duration": 4, "velocity": 69}, {"time": 1181, "pitch": 69, "duration": 7, "velocity": 72}, {"time": 1187, "pitch": 46, "duration": 17, "velocity": 57}, {"time": 1187, "pitch": 62, "duration": 13, "velocity": 49}, {"time": 1187, "pitch": 65, "duration": 16, "velocity": 74}, {"time": 1193, "pitch": 50, "duration": 7, "velocity": 70}, {"time": 1199, "pitch": 53, "duration": 7, "velocity": 70}, {"time": 1205, "pitch": 62, "duration": 7, "velocity": 65}, {"time": 1211, "pitch": 48, "duration": 18, "velocity": 83}, {"time": 1217, "pitch": 55, "duration": 11, "velocity": 56}, {"time": 1223, "pitch": 64, "duration": 4, "velocity": 65}, {"time": 1223, "pitch": 67, "duration": 11, "velocity": 70}, {"time": 1229, "pitch": 64, "duration": 6, "velocity": 64}, {"time": 1235, "pitch": 50, "duration": 22, "velocity": 81}, {"time": 1235, "pitch": 69, "duration": 16, "velocity": 71}, {"time": 1241, "pitch": 57, "duration": 19, "velocity": 63}, {"time": 1247, "pitch": 65, "duration": 8, "velocity": 66}, {"time": 1253, "pitch": 62, "duration": 3, "velocity": 54}, {"time": 1259, "pitch": 47, "duration": 22, "velocity": 58}, {"time": 1259, "pitch": 53, "duration": 25, "velocity": 67}, {"time": 1259, "pitch": 59, "duration": 24, "velocity": 43}, {"time": 1259, "pitch": 62, "duration": 24, "velocity": 37}, {"time": 1259, "pitch": 65, "duration": 24, "velocity": 65}, {"time": 1259, "pitch": 69, "duration": 5, "velocity": 6}, {"time": 1259, "pitch": 74, "duration": 20, "velocity": 75}, {"time": 1283, "pitch": 46, "duration": 42, "velocity": 49}, {"time": 1283, "pitch": 62, "duration": 22, "velocity": 61}, {"time": 1283, "pitch": 65, "duration": 22, "velocity": 75}, {"time": 1289, "pitch": 50, "duration": 7, "velocity": 64}, {"time": 1295, "pitch": 53, "duration": 27, "velocity": 58}, {"time": 1301, "pitch": 58, "duration": 9, "velocity": 59}, {"time": 1307, "pitch": 50, "duration": 15, "velocity": 2}, {"time": 1307, "pitch": 62, "duration": 25, "velocity": 67}, {"time": 1313, "pitch": 58, "duration": 6, "velocity": 58}, {"time": 1319, "pitch": 65, "duration": 8, "velocity": 67}, {"time": 1331, "pitch": 45, "duration": 95, "velocity": 71}, {"time": 1337, "pitch": 52, "duration": 89, "velocity": 46}, {"time": 1343, "pitch": 57, "duration": 12, "velocity": 56}, {"time": 1349, "pitch": 61, "duration": 78, "velocity": 61}, {"time": 1355, "pitch": 64, "duration": 10, "velocity": 64}, {"time": 1361, "pitch": 57, "duration": 8, "velocity": 53}, {"time": 1367, "pitch": 69, "duration": 7, "velocity": 71}, {"time": 1373, "pitch": 57, "duration": 53, "velocity": 52}, {"time": 1376, "pitch": 49, "duration": 49, "velocity": 36}, {"time": 1379, "pitch": 64, "duration": 47, "velocity": 68}, {"time": 1379, "pitch": 69, "duration": 46, "velocity": 64}, {"time": 1427, "pitch": 50, "duration": 25, "velocity": 65}, {"time": 1433, "pitch": 65, "duration": 7, "velocity": 60}, {"time": 1439, "pitch": 69, "duration": 6, "velocity": 67}, {"time": 1445, "pitch": 65, "duration": 9, "velocity": 59}, {"time": 1451, "pitch": 49, "duration": 25, "velocity": 72}, {"time": 1457, "pitch": 65, "duration": 7, "velocity": 58}, {"time": 1463, "pitch": 69, "duration": 6, "velocity": 69}, {"time": 1469, "pitch": 65, "duration": 9, "velocity": 63}, {"time": 1475, "pitch": 48, "duration": 24, "velocity": 83}, {"time": 1481, "pitch": 65, "duration": 7, "velocity": 59}, {"time": 1487, "pitch": 69, "duration": 6, "velocity": 66}, {"time": 1493, "pitch": 65, "duration": 9, "velocity": 62}, {"time": 1499, "pitch": 47, "duration": 24, "velocity": 93}, {"time": 1505, "pitch": 65, "duration": 7, "velocity": 58}, {"time": 1511, "pitch": 74, "duration": 6, "velocity": 72}, {"time": 1517, "pitch": 65, "duration": 7, "velocity": 68}, {"time": 1523, "pitch": 46, "duration": 25, "velocity": 76}, {"time": 1529, "pitch": 65, "duration": 11, "velocity": 54}, {"time": 1535, "pitch": 69, "duration": 7, "velocity": 65}, {"time": 1541, "pitch": 74, "duration": 6, "velocity": 66}, {"time": 1547, "pitch": 40, "duration": 24, "velocity": 74}, {"time": 1547, "pitch": 65, "duration": 12, "velocity": 58}, {"time": 1553, "pitch": 69, "duration": 6, "velocity": 59}, {"time": 1559, "pitch": 74, "duration": 12, "velocity": 67}, {"time": 1571, "pitch": 45, "duration": 44, "velocity": 74}, {"time": 1577, "pitch": 49, "duration": 37, "velocity": 63}, {"time": 1583, "pitch": 61, "duration": 31, "velocity": 74}, {"time": 1589, "pitch": 64, "duration": 6, "velocity": 61}, {"time": 1595, "pitch": 69, "duration": 20, "velocity": 75}, {"time": 1619, "pitch": 50, "duration": 25, "velocity": 65}, {"time": 1625, "pitch": 65, "duration": 7, "velocity": 60}, {"time": 1631, "pitch": 69, "duration": 6, "velocity": 67}, {"time": 1637, "pitch": 65, "duration": 9, "velocity": 59}, {"time": 1643, "pitch": 49, "duration": 24, "velocity": 72}, {"time": 1649, "pitch": 65, "duration": 7, "velocity": 58}, {"time": 1655, "pitch": 69, "duration": 6, "velocity": 69}, {"time": 1661, "pitch": 65, "duration": 9, "velocity": 63}, {"time": 1667, "pitch": 48, "duration": 24, "velocity": 83}, {"time": 1673, "pitch": 65, "duration": 7, "velocity": 59}, {"time": 1679, "pitch": 69, "duration": 6, "velocity": 66}, {"time": 1685, "pitch": 65, "duration": 9, "velocity": 62}, {"time": 1691, "pitch": 47, "duration": 24, "velocity": 93}, {"time": 1697, "pitch": 65, "duration": 7, "velocity": 58}, {"time": 1703, "pitch": 74, "duration": 6, "velocity": 72}, {"time": 1709, "pitch": 65, "duration": 7, "velocity": 68}, {"time": 1715, "pitch": 46, "duration": 25, "velocity": 76}, {"time": 1721, "pitch": 65, "duration": 11, "velocity": 54}, {"time": 1727, "pitch": 69, "duration": 7, "velocity": 65}, {"time": 1733, "pitch": 74, "duration": 6, "velocity": 66}, {"time": 1739, "pitch": 40, "duration": 15, "velocity": 74}, {"time": 1739, "pitch": 65, "duration": 12, "velocity": 58}, {"time": 1745, "pitch": 69, "duration": 6, "velocity": 59}, {"time": 1751, "pitch": 49, "duration": 11, "velocity": 74}, {"time": 1751, "pitch": 74, "duration": 12, "velocity": 67}, {"time": 1763, "pitch": 50, "duration": 44, "velocity": 74}, {"time": 1769, "pitch": 65, "duration": 7, "velocity": 56}, {"time": 1775, "pitch": 69, "duration": 7, "velocity": 63}, {"time": 1781, "pitch": 65, "duration": 7, "velocity": 59}, {"time": 1787, "pitch": 74, "duration": 16, "velocity": 63}, {"time": 1787, "pitch": 74, "duration": 16, "velocity": 76}, {"time": 1790, "pitch": 65, "duration": 10, "velocity": 44}, {"time": 1793, "pitch": 62, "duration": 6, "velocity": 53}, {"time": 1799, "pitch": 69, "duration": 6, "velocity": 69}, {"time": 1805, "pitch": 65, "duration": 10, "velocity": 72}, {"time": 1811, "pitch": 38, "duration": 42, "velocity": 77}, {"time": 1817, "pitch": 50, "duration": 21, "velocity": 61}, {"time": 1817, "pitch": 53, "duration": 1, "velocity": 54}, {"time": 1823, "pitch": 45, "duration": 30, "velocity": 60}, {"time": 1823, "pitch": 57, "duration": 9, "velocity": 69}, {"time": 1829, "pitch": 53, "duration": 7, "velocity": 55}, {"time": 1835, "pitch": 62, "duration": 11, "velocity": 73}, {"time": 1841, "pitch": 50, "duration": 5, "velocity": 48}, {"time": 1847, "pitch": 53, "duration": 12, "velocity": 67}, {"time": 1853, "pitch": 57, "duration": 6, "velocity": 64}, {"time": 1859, "pitch": 34, "duration": 38, "velocity": 65}, {"time": 1865, "pitch": 53, "duration": 7, "velocity": 56}, {"time": 1871, "pitch": 57, "duration": 12, "velocity": 67}, {"time": 1877, "pitch": 53, "duration": 6, "velocity": 58}, {"time": 1883, "pitch": 62, "duration": 12, "velocity": 64}, {"time": 1889, "pitch": 53, "duration": 7, "velocity": 53}, {"time": 1895, "pitch": 57, "duration": 7, "velocity": 65}, {"time": 1901, "pitch": 53, "duration": 12, "velocity": 60}, {"time": 1907, "pitch": 31, "duration": 42, "velocity": 70}, {"time": 1913, "pitch": 34, "duration": 38, "velocity": 59}, {"time": 1919, "pitch": 38, "duration": 33, "velocity": 64}, {"time": 1925, "pitch": 46, "duration": 16, "velocity": 60}, {"time": 1931, "pitch": 43, "duration": 9, "velocity": 51}, {"time": 1937, "pitch": 50, "duration": 10, "velocity": 63}, {"time": 1943, "pitch": 43, "duration": 7, "velocity": 52}, {"time": 1949, "pitch": 46, "duration": 6, "velocity": 43}, {"time": 1955, "pitch": 33, "duration": 38, "velocity": 67}, {"time": 1961, "pitch": 40, "duration": 32, "velocity": 58}, {"time": 1967, "pitch": 45, "duration": 16, "velocity": 54}, {"time": 1973, "pitch": 49, "duration": 6, "velocity": 83}, {"time": 1979, "pitch": 50, "duration": 14, "velocity": 75}, {"time": 1985, "pitch": 45, "duration": 7, "velocity": 62}, {"time": 1991, "pitch": 52, "duration": 11, "velocity": 77}, {"time": 2003, "pitch": 38, "duration": 38, "velocity": 76}, {"time": 2009, "pitch": 45, "duration": 31, "velocity": 60}, {"time": 2015, "pitch": 53, "duration": 11, "velocity": 66}, {"time": 2021, "pitch": 50, "duration": 7, "velocity": 59}, {"time": 2027, "pitch": 53, "duration": 1, "velocity": 54}, {"time": 2027, "pitch": 57, "duration": 11, "velocity": 75}, {"time": 2033, "pitch": 50, "duration": 4, "velocity": 54}, {"time": 2039, "pitch": 53, "duration": 12, "velocity": 67}, {"time": 2039, "pitch": 57, "duration": 11, "velocity": 74}, {"time": 2051, "pitch": 41, "duration": 41, "velocity": 74}, {"time": 2057, "pitch": 48, "duration": 40, "velocity": 63}, {"time": 2063, "pitch": 53, "duration": 13, "velocity": 58}, {"time": 2069, "pitch": 57, "duration": 17, "velocity": 58}, {"time": 2075, "pitch": 60, "duration": 11, "velocity": 73}, {"time": 2081, "pitch": 53, "duration": 9, "velocity": 52}, {"time": 2087, "pitch": 57, "duration": 6, "velocity": 61}, {"time": 2087, "pitch": 60, "duration": 6, "velocity": 72}, {"time": 2093, "pitch": 53, "duration": 4, "velocity": 43}, {"time": 2099, "pitch": 43, "duration": 19, "velocity": 74}, {"time": 2099, "pitch": 58, "duration": 24, "velocity": 59}, {"time": 2105, "pitch": 50, "duration": 17, "velocity": 60}, {"time": 2111, "pitch": 55, "duration": 9, "velocity": 53}, {"time": 2117, "pitch": 62, "duration": 6, "velocity": 69}, {"time": 2123, "pitch": 45, "duration": 18, "velocity": 74}, {"time": 2129, "pitch": 52, "duration": 13, "velocity": 53}, {"time": 2135, "pitch": 57, "duration": 10, "velocity": 58}, {"time": 2140, "pitch": 62, "duration": 7, "velocity": 63}, {"time": 2147, "pitch": 50, "duration": 46, "velocity": 73}, {"time": 2153, "pitch": 57, "duration": 35, "velocity": 56}, {"time": 2159, "pitch": 62, "duration": 13, "velocity": 47}, {"time": 2165, "pitch": 64, "duration": 6, "velocity": 61}, {"time": 2171, "pitch": 65, "duration": 11, "velocity": 83}, {"time": 2177, "pitch": 62, "duration": 7, "velocity": 62}, {"time": 2183, "pitch": 67, "duration": 11, "velocity": 117}, {"time": 2195, "pitch": 46, "duration": 20, "velocity": 58}, {"time": 2201, "pitch": 50, "duration": 12, "velocity": 58}, {"time": 2207, "pitch": 53, "duration": 9, "velocity": 46}, {"time": 2213, "pitch": 62, "duration": 6, "velocity": 68}, {"time": 2219, "pitch": 48, "duration": 17, "velocity": 74}, {"time": 2225, "pitch": 55, "duration": 10, "velocity": 53}, {"time": 2231, "pitch": 64, "duration": 11, "velocity": 59}, {"time": 2237, "pitch": 67, "duration": 6, "velocity": 71}, {"time": 2243, "pitch": 41, "duration": 37, "velocity": 69}, {"time": 2249, "pitch": 48, "duration": 35, "velocity": 65}, {"time": 2255, "pitch": 57, "duration": 27, "velocity": 59}, {"time": 2261, "pitch": 60, "duration": 23, "velocity": 67}, {"time": 2267, "pitch": 53, "duration": 7, "velocity": 57}, {"time": 2279, "pitch": 53, "duration": 4, "velocity": 55}, {"time": 2285, "pitch": 57, "duration": 6, "velocity": 65}, {"time": 2285, "pitch": 60, "duration": 6, "velocity": 63}, {"time": 2291, "pitch": 45, "duration": 40, "velocity": 69}, {"time": 2297, "pitch": 52, "duration": 36, "velocity": 53}, {"time": 2303, "pitch": 57, "duration": 14, "velocity": 46}, {"time": 2309, "pitch": 61, "duration": 15, "velocity": 70}, {"time": 2315, "pitch": 64, "duration": 11, "velocity": 75}, {"time": 2321, "pitch": 49, "duration": 9, "velocity": 33}, {"time": 2321, "pitch": 57, "duration": 12, "velocity": 53}, {"time": 2327, "pitch": 61, "duration": 7, "velocity": 111}, {"time": 2333, "pitch": 64, "duration": 6, "velocity": 77}, {"time": 2339, "pitch": 50, "duration": 24, "velocity": 64}, {"time": 2345, "pitch": 57, "duration": 36, "velocity": 62}, {"time": 2351, "pitch": 62, "duration": 8, "velocity": 60}, {"time": 2363, "pitch": 48, "duration": 23, "velocity": 69}, {"time": 2363, "pitch": 62, "duration": 8, "velocity": 64}, {"time": 2369, "pitch": 65, "duration": 13, "velocity": 74}, {"time": 2375, "pitch": 62, "duration": 4, "velocity": 69}, {"time": 2381, "pitch": 69, "duration": 7, "velocity": 72}, {"time": 2387, "pitch": 46, "duration": 17, "velocity": 57}, {"time": 2387, "pitch": 62, "duration": 13, "velocity": 49}, {"time": 2387, "pitch": 65, "duration": 16, "velocity": 74}, {"time": 2393, "pitch": 50, "duration": 7, "velocity": 70}, {"time": 2399, "pitch": 53, "duration": 7, "velocity": 70}, {"time": 2405, "pitch": 62, "duration": 7, "velocity": 65}, {"time": 2411, "pitch": 48, "duration": 18, "velocity": 83}, {"time": 2417, "pitch": 55, "duration": 11, "velocity": 56}, {"time": 2423, "pitch": 64, "duration": 4, "velocity": 65}, {"time": 2423, "pitch": 67, "duration": 11, "velocity": 70}, {"time": 2429, "pitch": 64, "duration": 6, "velocity": 64}, {"time": 2435, "pitch": 50, "duration": 22, "velocity": 81}, {"time": 2435, "pitch": 69, "duration": 16, "velocity": 71}, {"time": 2441, "pitch": 57, "duration": 19, "velocity": 63}, {"time": 2447, "pitch": 65, "duration": 8, "velocity": 66}, {"time": 2453, "pitch": 62, "duration": 3, "velocity": 54}, {"time": 2459, "pitch": 47, "duration": 22, "velocity": 58}, {"time": 2459, "pitch": 53, "duration": 25, "velocity": 67}, {"time": 2459, "pitch": 59, "duration": 24, "velocity": 43}, {"time": 2459, "pitch": 62, "duration": 24, "velocity": 37}, {"time": 2459, "pitch": 65, "duration": 24, "velocity": 65}, {"time": 2459, "pitch": 69, "duration": 5, "velocity": 6}, {"time": 2459, "pitch": 74, "duration": 20, "velocity": 75}, {"time": 2483, "pitch": 46, "duration": 42, "velocity": 49}, {"time": 2483, "pitch": 62, "duration": 22, "velocity": 61}, {"time": 2483, "pitch": 65, "duration": 22, "velocity": 75}, {"time": 2489, "pitch": 50, "duration": 7, "velocity": 64}, {"time": 2495, "pitch": 53, "duration": 27, "velocity": 58}, {"time": 2501, "pitch": 58, "duration": 9, "velocity": 59}, {"time": 2507, "pitch": 50, "duration": 15, "velocity": 2}, {"time": 2507, "pitch": 62, "duration": 25, "velocity": 67}, {"time": 2513, "pitch": 58, "duration": 6, "velocity": 58}, {"time": 2519, "pitch": 65, "duration": 8, "velocity": 67}, {"time": 2531, "pitch": 45, "duration": 48, "velocity": 71}, {"time": 2537, "pitch": 52, "duration": 42, "velocity": 46}, {"time": 2543, "pitch": 57, "duration": 12, "velocity": 56}, {"time": 2549, "pitch": 61, "duration": 30, "velocity": 61}, {"time": 2555, "pitch": 64, "duration": 10, "velocity": 64}, {"time": 2555, "pitch": 65, "duration": 11, "velocity": 83}, {"time": 2561, "pitch": 57, "duration": 8, "velocity": 53}, {"time": 2561, "pitch": 62, "duration": 7, "velocity": 62}, {"time": 2567, "pitch": 67, "duration": 11, "velocity": 117}, {"time": 2567, "pitch": 69, "duration": 7, "velocity": 71}, {"time": 2573, "pitch": 57, "duration": 6, "velocity": 52}, {"time": 2576, "pitch": 49, "duration": 3, "velocity": 36}, {"time": 2579, "pitch": 46, "duration": 20, "velocity": 58}, {"time": 2585, "pitch": 50, "duration": 12, "velocity": 58}, {"time": 2591, "pitch": 53, "duration": 9, "velocity": 46}, {"time": 2597, "pitch": 62, "duration": 6, "velocity": 68}, {"time": 2603, "pitch": 48, "duration": 17, "velocity": 74}, {"time": 2609, "pitch": 55, "duration": 10, "velocity": 53}, {"time": 2615, "pitch": 64, "duration": 11, "velocity": 59}, {"time": 2621, "pitch": 67, "duration": 6, "velocity": 71}, {"time": 2627, "pitch": 41, "duration": 37, "velocity": 69}, {"time": 2633, "pitch": 48, "duration": 35, "velocity": 65}, {"time": 2639, "pitch": 57, "duration": 27, "velocity": 59}, {"time": 2645, "pitch": 60, "duration": 23, "velocity": 67}, {"time": 2651, "pitch": 53, "duration": 7, "velocity": 57}, {"time": 2663, "pitch": 53, "duration": 4, "velocity": 55}, {"time": 2669, "pitch": 57, "duration": 6, "velocity": 65}, {"time": 2669, "pitch": 60, "duration": 6, "velocity": 63}, {"time": 2675, "pitch": 45, "duration": 40, "velocity": 69}, {"time": 2681, "pitch": 52, "duration": 36, "velocity": 53}, {"time": 2687, "pitch": 57, "duration": 14, "velocity": 46}, {"time": 2693, "pitch": 61, "duration": 15, "velocity": 70}, {"time": 2699, "pitch": 64, "duration": 11, "velocity": 75}, {"time": 2705, "pitch": 49, "duration": 9, "velocity": 33}, {"time": 2705, "pitch": 57, "duration": 12, "velocity": 53}, {"time": 2711, "pitch": 61, "duration": 7, "velocity": 111}, {"time": 2717, "pitch": 64, "duration": 6, "velocity": 77}, {"time": 2723, "pitch": 50, "duration": 24, "velocity": 64}, {"time": 2729, "pitch": 57, "duration": 36, "velocity": 62}, {"time": 2735, "pitch": 62, "duration": 8, "velocity": 60}, {"time": 2747, "pitch": 48, "duration": 23, "velocity": 104}, {"time": 2747, "pitch": 62, "duration": 8, "velocity": 64}, {"time": 2753, "pitch": 65, "duration": 13, "velocity": 74}, {"time": 2759, "pitch": 62, "duration": 4, "velocity": 69}, {"time": 2765, "pitch": 69, "duration": 7, "velocity": 72}, {"time": 2771, "pitch": 46, "duration": 17, "velocity": 57}, {"time": 2771, "pitch": 62, "duration": 13, "velocity": 49}, {"time": 2771, "pitch": 65, "duration": 16, "velocity": 74}, {"time": 2777, "pitch": 50, "duration": 7, "velocity": 70}, {"time": 2783, "pitch": 53, "duration": 7, "velocity": 70}, {"time": 2789, "pitch": 62, "duration": 7, "velocity": 65}, {"time": 2795, "pitch": 48, "duration": 18, "velocity": 83}, {"time": 2801, "pitch": 55, "duration": 11, "velocity": 56}, {"time": 2807, "pitch": 64, "duration": 4, "velocity": 65}, {"time": 2807, "pitch": 67, "duration": 11, "velocity": 70}, {"time": 2813, "pitch": 64, "duration": 6, "velocity": 64}, {"time": 2819, "pitch": 50, "duration": 22, "velocity": 81}, {"time": 2819, "pitch": 69, "duration": 16, "velocity": 71}, {"time": 2825, "pitch": 57, "duration": 19, "velocity": 63}, {"time": 2831, "pitch": 65, "duration": 8, "velocity": 66}, {"time": 2837, "pitch": 62, "duration": 3, "velocity": 54}, {"time": 2843, "pitch": 47, "duration": 22, "velocity": 58}, {"time": 2843, "pitch": 53, "duration": 25, "velocity": 67}, {"time": 2843, "pitch": 59, "duration": 24, "velocity": 43}, {"time": 2843, "pitch": 62, "duration": 24, "velocity": 37}, {"time": 2843, "pitch": 65, "duration": 24, "velocity": 65}, {"time": 2843, "pitch": 69, "duration": 5, "velocity": 6}, {"time": 2843, "pitch": 74, "duration": 20, "velocity": 75}, {"time": 2867, "pitch": 46, "duration": 24, "velocity": 49}, {"time": 2867, "pitch": 62, "duration": 22, "velocity": 61}, {"time": 2867, "pitch": 65, "duration": 22, "velocity": 75}, {"time": 2873, "pitch": 50, "duration": 7, "velocity": 64}, {"time": 2879, "pitch": 53, "duration": 9, "velocity": 58}, {"time": 2885, "pitch": 58, "duration": 6, "velocity": 59}, {"time": 2891, "pitch": 45, "duration": 24, "velocity": 77}, {"time": 2897, "pitch": 52, "duration": 18, "velocity": 64}, {"time": 2903, "pitch": 57, "duration": 13, "velocity": 50}, {"time": 2909, "pitch": 61, "duration": 7, "velocity": 62}, {"time": 2915, "pitch": 50, "duration": 40, "velocity": 72}, {"time": 2915, "pitch": 65, "duration": 39, "velocity": 65}, {"time": 2921, "pitch": 57, "duration": 34, "velocity": 52}, {"time": 2927, "pitch": 62, "duration": 27, "velocity": 56}, {"time": 2933, "pitch": 69, "duration": 21, "velocity": 49}, {"time": 2939, "pitch": 74, "duration": 16, "velocity": 62}, {"time": 2963, "pitch": 50, "duration": 46, "velocity": 83}, {"time": 2963, "pitch": 65, "duration": 45, "velocity": 59}, {"time": 2963, "pitch": 69, "duration": 45, "velocity": 70}, {"time": 3011, "pitch": 50, "duration": 20, "velocity": 64}, {"time": 3017, "pitch": 57, "duration": 18, "velocity": 53}, {"time": 3023, "pitch": 69, "duration": 19, "velocity": 69}, {"time": 3035, "pitch": 48, "duration": 20, "velocity": 63}, {"time": 3041, "pitch": 57, "duration": 15, "velocity": 58}, {"time": 3047, "pitch": 69, "duration": 22, "velocity": 62}, {"time": 3059, "pitch": 47, "duration": 21, "velocity": 69}, {"time": 3065, "pitch": 57, "duration": 11, "velocity": 61}, {"time": 3071, "pitch": 69, "duration": 10, "velocity": 67}, {"time": 3083, "pitch": 46, "duration": 23, "velocity": 48}, {"time": 3088, "pitch": 57, "duration": 19, "velocity": 15}, {"time": 3095, "pitch": 69, "duration": 11, "velocity": 64}, {"time": 3107, "pitch": 45, "duration": 48, "velocity": 52}, {"time": 3107, "pitch": 61, "duration": 54, "velocity": 47}, {"time": 3107, "pitch": 64, "duration": 53, "velocity": 63}, {"time": 3113, "pitch": 52, "duration": 42, "velocity": 58}, {"time": 3119, "pitch": 57, "duration": 35, "velocity": 51}, {"time": 3125, "pitch": 69, "duration": 17, "velocity": 73}, {"time": 3131, "pitch": 49, "duration": 23, "velocity": 66}, {"time": 3146, "pitch": 69, "duration": 14, "velocity": 11}, {"time": 3161, "pitch": 50, "duration": 57, "velocity": 69}, {"time": 3167, "pitch": 57, "duration": 51, "velocity": 59}, {"time": 3173, "pitch": 62, "duration": 45, "velocity": 60}, {"time": 3179, "pitch": 65, "duration": 38, "velocity": 55}], "annotations": [{"time": 23, "annotation": {"number": 64, "value": 76}, "group": "control_change"}, {"time": 35, "annotation": {"number": 64, "value": 75}, "group": "control_change"}]}]}