{"metadata": {"schema_version": "0.2", "title": "None", "source_filename": "152.mid", "source_format": "midi"}, "resolution": 12, "tempos": [{"time": 0, "qpm": 110.00011000011}], "time_signatures": [{"time": 0, "numerator": 1, "denominator": 4}], "tracks": [{"program": 4, "is_drum": false, "name": "MELODY", "notes": [{"time": 683, "pitch": 69, "duration": 24, "velocity": 73}, {"time": 707, "pitch": 69, "duration": 12, "velocity": 82}, {"time": 719, "pitch": 67, "duration": 18, "velocity": 82}, {"time": 737, "pitch": 65, "duration": 6, "velocity": 82}, {"time": 743, "pitch": 64, "duration": 12, "velocity": 82}, {"time": 755, "pitch": 65, "duration": 27, "velocity": 82}, {"time": 779, "pitch": 67, "duration": 12, "velocity": 82}, {"time": 791, "pitch": 69, "duration": 24, "velocity": 82}, {"time": 815, "pitch": 69, "duration": 7, "velocity": 82}, {"time": 821, "pitch": 72, "duration": 6, "velocity": 82}, {"time": 827, "pitch": 74, "duration": 24, "velocity": 82}, {"time": 851, "pitch": 74, "duration": 12, "velocity": 82}, {"time": 863, "pitch": 76, "duration": 18, "velocity": 82}, {"time": 881, "pitch": 74, "duration": 8, "velocity": 82}, {"time": 887, "pitch": 72, "duration": 6, "velocity": 82}, {"time": 893, "pitch": 67, "duration": 7, "velocity": 82}, {"time": 899, "pitch": 69, "duration": 60, "velocity": 82}, {"time": 959, "pitch": 69, "duration": 7, "velocity": 81}, {"time": 965, "pitch": 72, "duration": 6, "velocity": 81}, {"time": 971, "pitch": 74, "duration": 24, "velocity": 81}, {"time": 995, "pitch": 74, "duration": 12, "velocity": 81}, {"time": 1007, "pitch": 72, "duration": 24, "velocity": 81}, {"time": 1031, "pitch": 69, "duration": 7, "velocity": 81}, {"time": 1037, "pitch": 67, "duration": 8, "velocity": 81}, {"time": 1043, "pitch": 69, "duration": 18, "velocity": 81}, {"time": 1061, "pitch": 70, "duration": 6, "velocity": 81}, {"time": 1067, "pitch": 69, "duration": 7, "velocity": 81}, {"time": 1073, "pitch": 67, "duration": 7, "velocity": 81}, {"time": 1079, "pitch": 65, "duration": 24, "velocity": 81}, {"time": 1103, "pitch": 62, "duration": 9, "velocity": 81}, {"time": 1109, "pitch": 64, "duration": 8, "velocity": 81}, {"time": 1115, "pitch": 65, "duration": 24, "velocity": 81}, {"time": 1139, "pitch": 69, "duration": 13, "velocity": 81}, {"time": 1151, "pitch": 67, "duration": 25, "velocity": 81}, {"time": 1169, "pitch": 64, "duration": 6, "velocity": 81}, {"time": 1175, "pitch": 60, "duration": 12, "velocity": 82}, {"time": 1187, "pitch": 62, "duration": 72, "velocity": 82}, {"time": 1259, "pitch": 69, "duration": 24, "velocity": 83}, {"time": 1283, "pitch": 69, "duration": 12, "velocity": 85}, {"time": 1295, "pitch": 67, "duration": 25, "velocity": 85}, {"time": 1313, "pitch": 65, "duration": 6, "velocity": 86}, {"time": 1319, "pitch": 64, "duration": 12, "velocity": 86}, {"time": 1331, "pitch": 65, "duration": 27, "velocity": 86}, {"time": 1355, "pitch": 67, "duration": 12, "velocity": 86}, {"time": 1367, "pitch": 69, "duration": 24, "velocity": 87}, {"time": 1391, "pitch": 69, "duration": 7, "velocity": 87}, {"time": 1397, "pitch": 72, "duration": 6, "velocity": 87}, {"time": 1403, "pitch": 74, "duration": 24, "velocity": 87}, {"time": 1427, "pitch": 74, "duration": 12, "velocity": 87}, {"time": 1439, "pitch": 76, "duration": 18, "velocity": 87}, {"time": 1457, "pitch": 74, "duration": 8, "velocity": 88}, {"time": 1463, "pitch": 72, "duration": 6, "velocity": 89}, {"time": 1469, "pitch": 67, "duration": 7, "velocity": 89}, {"time": 1475, "pitch": 69, "duration": 60, "velocity": 89}, {"time": 1535, "pitch": 69, "duration": 7, "velocity": 90}, {"time": 1541, "pitch": 72, "duration": 6, "velocity": 90}, {"time": 1547, "pitch": 74, "duration": 24, "velocity": 90}, {"time": 1571, "pitch": 74, "duration": 12, "velocity": 90}, {"time": 1583, "pitch": 72, "duration": 24, "velocity": 90}, {"time": 1607, "pitch": 69, "duration": 7, "velocity": 91}, {"time": 1613, "pitch": 67, "duration": 8, "velocity": 91}, {"time": 1619, "pitch": 69, "duration": 18, "velocity": 91}, {"time": 1637, "pitch": 70, "duration": 6, "velocity": 92}, {"time": 1643, "pitch": 69, "duration": 7, "velocity": 92}, {"time": 1649, "pitch": 67, "duration": 7, "velocity": 92}, {"time": 1655, "pitch": 65, "duration": 24, "velocity": 92}, {"time": 1679, "pitch": 62, "duration": 9, "velocity": 92}, {"time": 1685, "pitch": 64, "duration": 8, "velocity": 92}, {"time": 1691, "pitch": 65, "duration": 24, "velocity": 92}, {"time": 1715, "pitch": 69, "duration": 13, "velocity": 94}, {"time": 1727, "pitch": 67, "duration": 25, "velocity": 94}, {"time": 1745, "pitch": 64, "duration": 6, "velocity": 94}, {"time": 1751, "pitch": 60, "duration": 12, "velocity": 94}, {"time": 1763, "pitch": 62, "duration": 48, "velocity": 94}, {"time": 1811, "pitch": 69, "duration": 13, "velocity": 92}, {"time": 1823, "pitch": 72, "duration": 13, "velocity": 91}, {"time": 1835, "pitch": 74, "duration": 38, "velocity": 91}, {"time": 1871, "pitch": 76, "duration": 33, "velocity": 91}, {"time": 1904, "pitch": 76, "duration": 1, "velocity": 90}, {"time": 1931, "pitch": 79, "duration": 12, "velocity": 90}, {"time": 1943, "pitch": 77, "duration": 24, "velocity": 90}, {"time": 1967, "pitch": 74, "duration": 6, "velocity": 90}, {"time": 1973, "pitch": 74, "duration": 6, "velocity": 90}, {"time": 1979, "pitch": 74, "duration": 24, "velocity": 90}, {"time": 2003, "pitch": 74, "duration": 12, "velocity": 90}, {"time": 2015, "pitch": 72, "duration": 18, "velocity": 89}, {"time": 2033, "pitch": 74, "duration": 6, "velocity": 89}, {"time": 2039, "pitch": 72, "duration": 7, "velocity": 89}, {"time": 2045, "pitch": 67, "duration": 6, "velocity": 89}, {"time": 2051, "pitch": 70, "duration": 12, "velocity": 89}, {"time": 2063, "pitch": 69, "duration": 36, "velocity": 87}, {"time": 2099, "pitch": 69, "duration": 12, "velocity": 86}, {"time": 2111, "pitch": 72, "duration": 12, "velocity": 86}, {"time": 2123, "pitch": 74, "duration": 36, "velocity": 86}, {"time": 2159, "pitch": 76, "duration": 36, "velocity": 86}, {"time": 2195, "pitch": 73, "duration": 24, "velocity": 84}, {"time": 2219, "pitch": 76, "duration": 12, "velocity": 84}, {"time": 2231, "pitch": 77, "duration": 37, "velocity": 84}, {"time": 2267, "pitch": 67, "duration": 24, "velocity": 83}, {"time": 2291, "pitch": 69, "duration": 13, "velocity": 81}, {"time": 2303, "pitch": 67, "duration": 18, "velocity": 80}, {"time": 2321, "pitch": 64, "duration": 8, "velocity": 80}, {"time": 2327, "pitch": 60, "duration": 12, "velocity": 80}, {"time": 2339, "pitch": 62, "duration": 73, "velocity": 80}, {"time": 2987, "pitch": 69, "duration": 24, "velocity": 83}, {"time": 3011, "pitch": 69, "duration": 12, "velocity": 85}, {"time": 3023, "pitch": 67, "duration": 25, "velocity": 85}, {"time": 3041, "pitch": 65, "duration": 6, "velocity": 85}, {"time": 3047, "pitch": 64, "duration": 12, "velocity": 85}, {"time": 3059, "pitch": 65, "duration": 27, "velocity": 85}, {"time": 3083, "pitch": 67, "duration": 12, "velocity": 86}, {"time": 3095, "pitch": 69, "duration": 24, "velocity": 86}, {"time": 3119, "pitch": 69, "duration": 7, "velocity": 86}, {"time": 3125, "pitch": 72, "duration": 6, "velocity": 86}, {"time": 3131, "pitch": 74, "duration": 24, "velocity": 86}, {"time": 3155, "pitch": 74, "duration": 12, "velocity": 86}, {"time": 3167, "pitch": 76, "duration": 18, "velocity": 86}, {"time": 3185, "pitch": 74, "duration": 8, "velocity": 86}, {"time": 3191, "pitch": 72, "duration": 6, "velocity": 86}, {"time": 3197, "pitch": 67, "duration": 7, "velocity": 86}, {"time": 3203, "pitch": 69, "duration": 60, "velocity": 86}, {"time": 3263, "pitch": 69, "duration": 7, "velocity": 86}, {"time": 3269, "pitch": 72, "duration": 6, "velocity": 86}, {"time": 3275, "pitch": 74, "duration": 24, "velocity": 86}, {"time": 3299, "pitch": 74, "duration": 12, "velocity": 86}, {"time": 3311, "pitch": 72, "duration": 24, "velocity": 86}, {"time": 3335, "pitch": 69, "duration": 7, "velocity": 86}, {"time": 3341, "pitch": 67, "duration": 8, "velocity": 86}, {"time": 3347, "pitch": 69, "duration": 18, "velocity": 86}, {"time": 3365, "pitch": 70, "duration": 6, "velocity": 86}, {"time": 3371, "pitch": 69, "duration": 7, "velocity": 87}, {"time": 3377, "pitch": 67, "duration": 7, "velocity": 86}, {"time": 3383, "pitch": 65, "duration": 24, "velocity": 87}, {"time": 3407, "pitch": 62, "duration": 9, "velocity": 89}, {"time": 3413, "pitch": 64, "duration": 8, "velocity": 89}, {"time": 3419, "pitch": 65, "duration": 24, "velocity": 89}, {"time": 3443, "pitch": 69, "duration": 13, "velocity": 89}, {"time": 3455, "pitch": 67, "duration": 25, "velocity": 89}, {"time": 3473, "pitch": 64, "duration": 6, "velocity": 89}, {"time": 3479, "pitch": 60, "duration": 12, "velocity": 89}, {"time": 3491, "pitch": 62, "duration": 48, "velocity": 89}, {"time": 3539, "pitch": 69, "duration": 13, "velocity": 89}, {"time": 3551, "pitch": 72, "duration": 13, "velocity": 89}, {"time": 3563, "pitch": 74, "duration": 38, "velocity": 89}, {"time": 3599, "pitch": 76, "duration": 36, "velocity": 89}, {"time": 3635, "pitch": 76, "duration": 24, "velocity": 89}, {"time": 3659, "pitch": 79, "duration": 12, "velocity": 89}, {"time": 3671, "pitch": 77, "duration": 24, "velocity": 89}, {"time": 3695, "pitch": 74, "duration": 6, "velocity": 86}, {"time": 3701, "pitch": 74, "duration": 6, "velocity": 86}, {"time": 3707, "pitch": 74, "duration": 24, "velocity": 86}, {"time": 3731, "pitch": 74, "duration": 12, "velocity": 86}, {"time": 3743, "pitch": 72, "duration": 18, "velocity": 86}, {"time": 3761, "pitch": 74, "duration": 6, "velocity": 84}, {"time": 3767, "pitch": 72, "duration": 7, "velocity": 83}, {"time": 3773, "pitch": 67, "duration": 6, "velocity": 83}, {"time": 3779, "pitch": 70, "duration": 12, "velocity": 82}, {"time": 3791, "pitch": 69, "duration": 36, "velocity": 82}, {"time": 3827, "pitch": 69, "duration": 12, "velocity": 82}, {"time": 3839, "pitch": 72, "duration": 12, "velocity": 82}, {"time": 3851, "pitch": 74, "duration": 36, "velocity": 82}, {"time": 3887, "pitch": 76, "duration": 36, "velocity": 82}, {"time": 3923, "pitch": 73, "duration": 24, "velocity": 81}, {"time": 3947, "pitch": 76, "duration": 12, "velocity": 81}, {"time": 3959, "pitch": 77, "duration": 37, "velocity": 81}, {"time": 3995, "pitch": 67, "duration": 24, "velocity": 81}, {"time": 4019, "pitch": 69, "duration": 13, "velocity": 81}, {"time": 4031, "pitch": 67, "duration": 18, "velocity": 82}, {"time": 4049, "pitch": 64, "duration": 8, "velocity": 82}, {"time": 4055, "pitch": 60, "duration": 12, "velocity": 83}, {"time": 4067, "pitch": 62, "duration": 72, "velocity": 83}, {"time": 4139, "pitch": 75, "duration": 109, "velocity": 85}, {"time": 4631, "pitch": 76, "duration": 6, "velocity": 96}, {"time": 4637, "pitch": 76, "duration": 6, "velocity": 96}, {"time": 4643, "pitch": 76, "duration": 24, "velocity": 96}, {"time": 4667, "pitch": 76, "duration": 12, "velocity": 96}, {"time": 4679, "pitch": 74, "duration": 18, "velocity": 96}, {"time": 4697, "pitch": 76, "duration": 6, "velocity": 96}, {"time": 4703, "pitch": 74, "duration": 6, "velocity": 96}, {"time": 4709, "pitch": 69, "duration": 6, "velocity": 96}, {"time": 4715, "pitch": 72, "duration": 12, "velocity": 96}, {"time": 4727, "pitch": 71, "duration": 36, "velocity": 96}, {"time": 4763, "pitch": 71, "duration": 12, "velocity": 95}, {"time": 4775, "pitch": 74, "duration": 12, "velocity": 95}, {"time": 4787, "pitch": 76, "duration": 36, "velocity": 95}, {"time": 4823, "pitch": 78, "duration": 36, "velocity": 94}, {"time": 4859, "pitch": 78, "duration": 24, "velocity": 94}, {"time": 4883, "pitch": 81, "duration": 12, "velocity": 94}, {"time": 4895, "pitch": 79, "duration": 24, "velocity": 94}, {"time": 4919, "pitch": 76, "duration": 6, "velocity": 94}, {"time": 4925, "pitch": 76, "duration": 6, "velocity": 94}, {"time": 4931, "pitch": 76, "duration": 24, "velocity": 94}, {"time": 4955, "pitch": 76, "duration": 12, "velocity": 94}, {"time": 4967, "pitch": 78, "duration": 18, "velocity": 94}, {"time": 4985, "pitch": 79, "duration": 6, "velocity": 94}, {"time": 4991, "pitch": 78, "duration": 6, "velocity": 94}, {"time": 4997, "pitch": 74, "duration": 6, "velocity": 94}, {"time": 5003, "pitch": 78, "duration": 12, "velocity": 94}, {"time": 5015, "pitch": 76, "duration": 37, "velocity": 94}, {"time": 5051, "pitch": 71, "duration": 13, "velocity": 94}, {"time": 5063, "pitch": 74, "duration": 12, "velocity": 94}, {"time": 5075, "pitch": 76, "duration": 36, "velocity": 94}, {"time": 5111, "pitch": 78, "duration": 36, "velocity": 94}, {"time": 5147, "pitch": 76, "duration": 24, "velocity": 94}, {"time": 5171, "pitch": 78, "duration": 12, "velocity": 94}, {"time": 5183, "pitch": 79, "duration": 192, "velocity": 95}, {"time": 5375, "pitch": 67, "duration": 30, "velocity": 61}, {"time": 5399, "pitch": 71, "duration": 14, "velocity": 60}, {"time": 5411, "pitch": 69, "duration": 33, "velocity": 60}, {"time": 5441, "pitch": 67, "duration": 7, "velocity": 60}, {"time": 5447, "pitch": 62, "duration": 12, "velocity": 60}, {"time": 5459, "pitch": 64, "duration": 158, "velocity": 60}, {"time": 5617, "pitch": 71, "duration": 29, "velocity": 63}, {"time": 5646, "pitch": 71, "duration": 15, "velocity": 63}, {"time": 5660, "pitch": 69, "duration": 22, "velocity": 63}, {"time": 5680, "pitch": 66, "duration": 6, "velocity": 63}, {"time": 5686, "pitch": 66, "duration": 10, "velocity": 63}, {"time": 5696, "pitch": 67, "duration": 25, "velocity": 63}, {"time": 5719, "pitch": 69, "duration": 13, "velocity": 63}, {"time": 5731, "pitch": 71, "duration": 25, "velocity": 63}, {"time": 5755, "pitch": 71, "duration": 1, "velocity": 63}, {"time": 5763, "pitch": 74, "duration": 7, "velocity": 63}, {"time": 5769, "pitch": 76, "duration": 23, "velocity": 63}, {"time": 5792, "pitch": 76, "duration": 12, "velocity": 63}, {"time": 5804, "pitch": 78, "duration": 19, "velocity": 63}, {"time": 5823, "pitch": 76, "duration": 10, "velocity": 63}, {"time": 5830, "pitch": 74, "duration": 9, "velocity": 63}, {"time": 5839, "pitch": 69, "duration": 11, "velocity": 63}, {"time": 5850, "pitch": 71, "duration": 58, "velocity": 63}, {"time": 5908, "pitch": 71, "duration": 9, "velocity": 63}, {"time": 5915, "pitch": 74, "duration": 7, "velocity": 62}, {"time": 5922, "pitch": 76, "duration": 23, "velocity": 62}, {"time": 5945, "pitch": 76, "duration": 12, "velocity": 62}, {"time": 5957, "pitch": 74, "duration": 25, "velocity": 62}, {"time": 5982, "pitch": 71, "duration": 7, "velocity": 61}, {"time": 5988, "pitch": 69, "duration": 8, "velocity": 61}, {"time": 5995, "pitch": 71, "duration": 20, "velocity": 61}, {"time": 6014, "pitch": 72, "duration": 6, "velocity": 61}, {"time": 6020, "pitch": 71, "duration": 7, "velocity": 60}, {"time": 6025, "pitch": 69, "duration": 7, "velocity": 61}, {"time": 6032, "pitch": 67, "duration": 23, "velocity": 60}, {"time": 6055, "pitch": 64, "duration": 8, "velocity": 60}, {"time": 6062, "pitch": 66, "duration": 9, "velocity": 60}, {"time": 6070, "pitch": 67, "duration": 28, "velocity": 60}, {"time": 6094, "pitch": 71, "duration": 14, "velocity": 60}, {"time": 6107, "pitch": 69, "duration": 33, "velocity": 60}, {"time": 6127, "pitch": 66, "duration": 8, "velocity": 60}, {"time": 6135, "pitch": 62, "duration": 12, "velocity": 60}, {"time": 6146, "pitch": 64, "duration": 80, "velocity": 60}, {"time": 6226, "pitch": 64, "duration": 10, "velocity": 60}, {"time": 6236, "pitch": 66, "duration": 10, "velocity": 60}, {"time": 6245, "pitch": 67, "duration": 39, "velocity": 60}, {"time": 6284, "pitch": 71, "duration": 11, "velocity": 62}, {"time": 6295, "pitch": 69, "duration": 76, "velocity": 62}, {"time": 6367, "pitch": 67, "duration": 47, "velocity": 63}, {"time": 6413, "pitch": 64, "duration": 175, "velocity": 64}]}, {"program": 0, "is_drum": false, "name": "PIANO", "notes": [{"time": 35, "pitch": 58, "duration": 28, "velocity": 56}, {"time": 47, "pitch": 62, "duration": 19, "velocity": 62}, {"time": 59, "pitch": 65, "duration": 13, "velocity": 62}, {"time": 71, "pitch": 60, "duration": 27, "velocity": 87}, {"time": 83, "pitch": 64, "duration": 24, "velocity": 69}, {"time": 95, "pitch": 67, "duration": 15, "velocity": 58}, {"time": 107, "pitch": 53, "duration": 57, "velocity": 58}, {"time": 107, "pitch": 69, "duration": 56, "velocity": 49}, {"time": 107, "pitch": 72, "duration": 59, "velocity": 59}, {"time": 122, "pitch": 60, "duration": 46, "velocity": 40}, {"time": 131, "pitch": 65, "duration": 19, "velocity": 49}, {"time": 143, "pitch": 77, "duration": 23, "velocity": 58}, {"time": 155, "pitch": 65, "duration": 11, "velocity": 63}, {"time": 167, "pitch": 69, "duration": 16, "velocity": 58}, {"time": 179, "pitch": 58, "duration": 23, "velocity": 57}, {"time": 191, "pitch": 62, "duration": 14, "velocity": 61}, {"time": 203, "pitch": 74, "duration": 13, "velocity": 61}, {"time": 215, "pitch": 60, "duration": 31, "velocity": 79}, {"time": 227, "pitch": 67, "duration": 18, "velocity": 61}, {"time": 239, "pitch": 76, "duration": 13, "velocity": 61}, {"time": 239, "pitch": 79, "duration": 13, "velocity": 60}, {"time": 251, "pitch": 53, "duration": 69, "velocity": 73}, {"time": 263, "pitch": 69, "duration": 47, "velocity": 60}, {"time": 263, "pitch": 72, "duration": 47, "velocity": 62}, {"time": 275, "pitch": 60, "duration": 44, "velocity": 67}, {"time": 287, "pitch": 77, "duration": 22, "velocity": 63}, {"time": 299, "pitch": 65, "duration": 17, "velocity": 47}, {"time": 311, "pitch": 69, "duration": 11, "velocity": 64}, {"time": 311, "pitch": 72, "duration": 11, "velocity": 59}, {"time": 311, "pitch": 77, "duration": 11, "velocity": 72}, {"time": 323, "pitch": 58, "duration": 32, "velocity": 59}, {"time": 335, "pitch": 62, "duration": 15, "velocity": 56}, {"time": 347, "pitch": 65, "duration": 10, "velocity": 64}, {"time": 353, "pitch": 74, "duration": 8, "velocity": 60}, {"time": 359, "pitch": 60, "duration": 26, "velocity": 81}, {"time": 371, "pitch": 67, "duration": 12, "velocity": 59}, {"time": 383, "pitch": 76, "duration": 6, "velocity": 67}, {"time": 383, "pitch": 79, "duration": 11, "velocity": 72}, {"time": 395, "pitch": 57, "duration": 30, "velocity": 69}, {"time": 407, "pitch": 72, "duration": 24, "velocity": 64}, {"time": 419, "pitch": 64, "duration": 9, "velocity": 75}, {"time": 425, "pitch": 76, "duration": 7, "velocity": 72}, {"time": 431, "pitch": 62, "duration": 28, "velocity": 65}, {"time": 437, "pitch": 69, "duration": 19, "velocity": 59}, {"time": 443, "pitch": 74, "duration": 12, "velocity": 46}, {"time": 449, "pitch": 76, "duration": 6, "velocity": 62}, {"time": 467, "pitch": 55, "duration": 25, "velocity": 59}, {"time": 473, "pitch": 62, "duration": 21, "velocity": 58}, {"time": 479, "pitch": 67, "duration": 13, "velocity": 54}, {"time": 485, "pitch": 70, "duration": 16, "velocity": 59}, {"time": 491, "pitch": 74, "duration": 12, "velocity": 64}, {"time": 503, "pitch": 57, "duration": 24, "velocity": 65}, {"time": 509, "pitch": 64, "duration": 19, "velocity": 64}, {"time": 515, "pitch": 69, "duration": 14, "velocity": 60}, {"time": 521, "pitch": 72, "duration": 8, "velocity": 58}, {"time": 527, "pitch": 76, "duration": 11, "velocity": 63}, {"time": 539, "pitch": 62, "duration": 72, "velocity": 70}, {"time": 545, "pitch": 69, "duration": 9, "velocity": 51}, {"time": 551, "pitch": 81, "duration": 7, "velocity": 61}, {"time": 557, "pitch": 79, "duration": 4, "velocity": 74}, {"time": 563, "pitch": 81, "duration": 6, "velocity": 67}, {"time": 569, "pitch": 74, "duration": 7, "velocity": 62}, {"time": 575, "pitch": 76, "duration": 13, "velocity": 66}, {"time": 587, "pitch": 72, "duration": 12, "velocity": 69}, {"time": 599, "pitch": 69, "duration": 15, "velocity": 67}, {"time": 611, "pitch": 50, "duration": 38, "velocity": 75}, {"time": 611, "pitch": 74, "duration": 37, "velocity": 66}, {"time": 617, "pitch": 57, "duration": 31, "velocity": 58}, {"time": 623, "pitch": 62, "duration": 13, "velocity": 57}, {"time": 629, "pitch": 64, "duration": 9, "velocity": 61}, {"time": 635, "pitch": 65, "duration": 6, "velocity": 74}, {"time": 645, "pitch": 77, "duration": 4, "velocity": 54}, {"time": 646, "pitch": 81, "duration": 4, "velocity": 73}, {"time": 647, "pitch": 86, "duration": 6, "velocity": 64}, {"time": 683, "pitch": 62, "duration": 37, "velocity": 63}, {"time": 695, "pitch": 69, "duration": 25, "velocity": 59}, {"time": 707, "pitch": 77, "duration": 35, "velocity": 60}, {"time": 719, "pitch": 64, "duration": 26, "velocity": 73}, {"time": 731, "pitch": 81, "duration": 13, "velocity": 58}, {"time": 743, "pitch": 77, "duration": 12, "velocity": 65}, {"time": 755, "pitch": 41, "duration": 58, "velocity": 70}, {"time": 755, "pitch": 65, "duration": 58, "velocity": 63}, {"time": 761, "pitch": 72, "duration": 48, "velocity": 66}, {"time": 767, "pitch": 48, "duration": 54, "velocity": 71}, {"time": 767, "pitch": 77, "duration": 28, "velocity": 64}, {"time": 773, "pitch": 79, "duration": 21, "velocity": 61}, {"time": 779, "pitch": 81, "duration": 13, "velocity": 74}, {"time": 779, "pitch": 53, "duration": 33, "velocity": 55}, {"time": 815, "pitch": 60, "duration": 6, "velocity": 68}, {"time": 821, "pitch": 55, "duration": 8, "velocity": 60}, {"time": 827, "pitch": 46, "duration": 25, "velocity": 59}, {"time": 839, "pitch": 50, "duration": 12, "velocity": 64}, {"time": 851, "pitch": 60, "duration": 13, "velocity": 64}, {"time": 863, "pitch": 48, "duration": 26, "velocity": 71}, {"time": 875, "pitch": 55, "duration": 13, "velocity": 59}, {"time": 887, "pitch": 64, "duration": 12, "velocity": 61}, {"time": 899, "pitch": 41, "duration": 60, "velocity": 59}, {"time": 911, "pitch": 48, "duration": 48, "velocity": 64}, {"time": 923, "pitch": 57, "duration": 13, "velocity": 54}, {"time": 935, "pitch": 60, "duration": 26, "velocity": 67}, {"time": 947, "pitch": 53, "duration": 11, "velocity": 54}, {"time": 959, "pitch": 57, "duration": 13, "velocity": 62}, {"time": 971, "pitch": 46, "duration": 31, "velocity": 58}, {"time": 983, "pitch": 50, "duration": 19, "velocity": 68}, {"time": 1001, "pitch": 60, "duration": 7, "velocity": 61}, {"time": 1007, "pitch": 48, "duration": 29, "velocity": 65}, {"time": 1013, "pitch": 55, "duration": 16, "velocity": 58}, {"time": 1019, "pitch": 60, "duration": 9, "velocity": 60}, {"time": 1031, "pitch": 64, "duration": 13, "velocity": 74}, {"time": 1043, "pitch": 45, "duration": 27, "velocity": 74}, {"time": 1049, "pitch": 52, "duration": 21, "velocity": 62}, {"time": 1055, "pitch": 57, "duration": 10, "velocity": 58}, {"time": 1061, "pitch": 60, "duration": 9, "velocity": 60}, {"time": 1067, "pitch": 64, "duration": 7, "velocity": 62}, {"time": 1073, "pitch": 60, "duration": 7, "velocity": 67}, {"time": 1079, "pitch": 50, "duration": 32, "velocity": 71}, {"time": 1091, "pitch": 57, "duration": 16, "velocity": 59}, {"time": 1103, "pitch": 65, "duration": 13, "velocity": 71}, {"time": 1115, "pitch": 46, "duration": 19, "velocity": 37}, {"time": 1121, "pitch": 50, "duration": 12, "velocity": 72}, {"time": 1127, "pitch": 53, "duration": 13, "velocity": 69}, {"time": 1133, "pitch": 62, "duration": 17, "velocity": 65}, {"time": 1139, "pitch": 65, "duration": 12, "velocity": 74}, {"time": 1151, "pitch": 48, "duration": 26, "velocity": 81}, {"time": 1163, "pitch": 55, "duration": 24, "velocity": 53}, {"time": 1163, "pitch": 64, "duration": 12, "velocity": 55}, {"time": 1163, "pitch": 67, "duration": 14, "velocity": 61}, {"time": 1175, "pitch": 64, "duration": 11, "velocity": 57}, {"time": 1187, "pitch": 50, "duration": 72, "velocity": 77}, {"time": 1199, "pitch": 65, "duration": 28, "velocity": 58}, {"time": 1211, "pitch": 57, "duration": 48, "velocity": 58}, {"time": 1223, "pitch": 62, "duration": 25, "velocity": 63}, {"time": 1235, "pitch": 64, "duration": 7, "velocity": 62}, {"time": 1241, "pitch": 65, "duration": 8, "velocity": 67}, {"time": 1247, "pitch": 67, "duration": 15, "velocity": 69}, {"time": 1259, "pitch": 50, "duration": 29, "velocity": 77}, {"time": 1259, "pitch": 69, "duration": 31, "velocity": 83}, {"time": 1265, "pitch": 57, "duration": 27, "velocity": 56}, {"time": 1271, "pitch": 62, "duration": 14, "velocity": 56}, {"time": 1283, "pitch": 65, "duration": 33, "velocity": 67}, {"time": 1295, "pitch": 52, "duration": 20, "velocity": 76}, {"time": 1313, "pitch": 69, "duration": 8, "velocity": 65}, {"time": 1319, "pitch": 65, "duration": 11, "velocity": 69}, {"time": 1331, "pitch": 41, "duration": 58, "velocity": 68}, {"time": 1337, "pitch": 48, "duration": 55, "velocity": 66}, {"time": 1343, "pitch": 53, "duration": 27, "velocity": 61}, {"time": 1350, "pitch": 57, "duration": 13, "velocity": 58}, {"time": 1355, "pitch": 60, "duration": 10, "velocity": 63}, {"time": 1367, "pitch": 57, "duration": 21, "velocity": 66}, {"time": 1367, "pitch": 60, "duration": 22, "velocity": 65}, {"time": 1379, "pitch": 53, "duration": 12, "velocity": 56}, {"time": 1391, "pitch": 57, "duration": 12, "velocity": 67}, {"time": 1391, "pitch": 60, "duration": 11, "velocity": 69}, {"time": 1403, "pitch": 46, "duration": 22, "velocity": 65}, {"time": 1403, "pitch": 62, "duration": 22, "velocity": 64}, {"time": 1403, "pitch": 65, "duration": 23, "velocity": 77}, {"time": 1415, "pitch": 53, "duration": 14, "velocity": 64}, {"time": 1427, "pitch": 62, "duration": 13, "velocity": 63}, {"time": 1427, "pitch": 65, "duration": 12, "velocity": 74}, {"time": 1439, "pitch": 48, "duration": 18, "velocity": 70}, {"time": 1445, "pitch": 55, "duration": 14, "velocity": 65}, {"time": 1451, "pitch": 64, "duration": 8, "velocity": 62}, {"time": 1457, "pitch": 67, "duration": 7, "velocity": 68}, {"time": 1463, "pitch": 64, "duration": 5, "velocity": 73}, {"time": 1475, "pitch": 41, "duration": 61, "velocity": 76}, {"time": 1475, "pitch": 57, "duration": 25, "velocity": 58}, {"time": 1475, "pitch": 60, "duration": 32, "velocity": 59}, {"time": 1487, "pitch": 48, "duration": 50, "velocity": 52}, {"time": 1493, "pitch": 53, "duration": 25, "velocity": 63}, {"time": 1506, "pitch": 45, "duration": 32, "velocity": 33}, {"time": 1511, "pitch": 57, "duration": 22, "velocity": 59}, {"time": 1511, "pitch": 60, "duration": 23, "velocity": 69}, {"time": 1523, "pitch": 53, "duration": 17, "velocity": 59}, {"time": 1535, "pitch": 57, "duration": 10, "velocity": 65}, {"time": 1535, "pitch": 60, "duration": 10, "velocity": 76}, {"time": 1547, "pitch": 46, "duration": 21, "velocity": 56}, {"time": 1547, "pitch": 62, "duration": 20, "velocity": 64}, {"time": 1547, "pitch": 65, "duration": 22, "velocity": 77}, {"time": 1559, "pitch": 50, "duration": 9, "velocity": 81}, {"time": 1566, "pitch": 53, "duration": 7, "velocity": 74}, {"time": 1571, "pitch": 62, "duration": 10, "velocity": 67}, {"time": 1571, "pitch": 65, "duration": 10, "velocity": 67}, {"time": 1583, "pitch": 48, "duration": 26, "velocity": 90}, {"time": 1589, "pitch": 55, "duration": 18, "velocity": 60}, {"time": 1595, "pitch": 60, "duration": 8, "velocity": 59}, {"time": 1601, "pitch": 64, "duration": 19, "velocity": 59}, {"time": 1607, "pitch": 67, "duration": 13, "velocity": 73}, {"time": 1619, "pitch": 45, "duration": 26, "velocity": 74}, {"time": 1631, "pitch": 52, "duration": 14, "velocity": 69}, {"time": 1643, "pitch": 60, "duration": 12, "velocity": 65}, {"time": 1655, "pitch": 50, "duration": 31, "velocity": 76}, {"time": 1667, "pitch": 65, "duration": 11, "velocity": 65}, {"time": 1667, "pitch": 69, "duration": 11, "velocity": 72}, {"time": 1673, "pitch": 57, "duration": 11, "velocity": 55}, {"time": 1679, "pitch": 65, "duration": 12, "velocity": 79}, {"time": 1679, "pitch": 69, "duration": 13, "velocity": 75}, {"time": 1691, "pitch": 46, "duration": 25, "velocity": 67}, {"time": 1691, "pitch": 62, "duration": 19, "velocity": 62}, {"time": 1691, "pitch": 65, "duration": 24, "velocity": 75}, {"time": 1703, "pitch": 50, "duration": 12, "velocity": 90}, {"time": 1709, "pitch": 53, "duration": 10, "velocity": 83}, {"time": 1715, "pitch": 62, "duration": 12, "velocity": 76}, {"time": 1721, "pitch": 65, "duration": 7, "velocity": 73}, {"time": 1727, "pitch": 48, "duration": 26, "velocity": 87}, {"time": 1733, "pitch": 55, "duration": 29, "velocity": 60}, {"time": 1739, "pitch": 60, "duration": 11, "velocity": 61}, {"time": 1745, "pitch": 64, "duration": 9, "velocity": 68}, {"time": 1751, "pitch": 67, "duration": 10, "velocity": 72}, {"time": 1763, "pitch": 50, "duration": 48, "velocity": 81}, {"time": 1763, "pitch": 65, "duration": 31, "velocity": 64}, {"time": 1775, "pitch": 57, "duration": 60, "velocity": 62}, {"time": 1787, "pitch": 62, "duration": 45, "velocity": 43}, {"time": 1799, "pitch": 65, "duration": 33, "velocity": 72}, {"time": 1799, "pitch": 69, "duration": 33, "velocity": 67}, {"time": 1811, "pitch": 50, "duration": 11, "velocity": 83}, {"time": 1823, "pitch": 48, "duration": 10, "velocity": 75}, {"time": 1835, "pitch": 46, "duration": 37, "velocity": 108}, {"time": 1841, "pitch": 50, "duration": 28, "velocity": 72}, {"time": 1847, "pitch": 53, "duration": 21, "velocity": 60}, {"time": 1853, "pitch": 62, "duration": 9, "velocity": 64}, {"time": 1859, "pitch": 65, "duration": 8, "velocity": 87}, {"time": 1871, "pitch": 48, "duration": 26, "velocity": 81}, {"time": 1877, "pitch": 55, "duration": 18, "velocity": 59}, {"time": 1883, "pitch": 60, "duration": 9, "velocity": 62}, {"time": 1889, "pitch": 64, "duration": 8, "velocity": 65}, {"time": 1895, "pitch": 67, "duration": 7, "velocity": 65}, {"time": 1901, "pitch": 64, "duration": 7, "velocity": 72}, {"time": 1907, "pitch": 45, "duration": 25, "velocity": 75}, {"time": 1913, "pitch": 52, "duration": 20, "velocity": 61}, {"time": 1919, "pitch": 57, "duration": 14, "velocity": 63}, {"time": 1925, "pitch": 60, "duration": 8, "velocity": 60}, {"time": 1931, "pitch": 64, "duration": 7, "velocity": 67}, {"time": 1937, "pitch": 60, "duration": 8, "velocity": 68}, {"time": 1943, "pitch": 50, "duration": 36, "velocity": 70}, {"time": 1950, "pitch": 57, "duration": 29, "velocity": 57}, {"time": 1955, "pitch": 62, "duration": 18, "velocity": 59}, {"time": 1967, "pitch": 65, "duration": 13, "velocity": 86}, {"time": 1973, "pitch": 69, "duration": 8, "velocity": 64}, {"time": 1979, "pitch": 46, "duration": 28, "velocity": 63}, {"time": 1985, "pitch": 50, "duration": 23, "velocity": 63}, {"time": 1997, "pitch": 62, "duration": 7, "velocity": 58}, {"time": 2003, "pitch": 65, "duration": 6, "velocity": 68}, {"time": 2009, "pitch": 62, "duration": 6, "velocity": 74}, {"time": 2015, "pitch": 48, "duration": 24, "velocity": 83}, {"time": 2021, "pitch": 55, "duration": 16, "velocity": 62}, {"time": 2027, "pitch": 60, "duration": 9, "velocity": 61}, {"time": 2033, "pitch": 64, "duration": 11, "velocity": 63}, {"time": 2039, "pitch": 67, "duration": 6, "velocity": 67}, {"time": 2051, "pitch": 41, "duration": 58, "velocity": 63}, {"time": 2051, "pitch": 57, "duration": 21, "velocity": 61}, {"time": 2051, "pitch": 60, "duration": 22, "velocity": 64}, {"time": 2063, "pitch": 48, "duration": 49, "velocity": 77}, {"time": 2063, "pitch": 53, "duration": 14, "velocity": 51}, {"time": 2075, "pitch": 57, "duration": 11, "velocity": 63}, {"time": 2075, "pitch": 60, "duration": 11, "velocity": 65}, {"time": 2081, "pitch": 53, "duration": 10, "velocity": 58}, {"time": 2087, "pitch": 57, "duration": 21, "velocity": 68}, {"time": 2087, "pitch": 60, "duration": 21, "velocity": 71}, {"time": 2099, "pitch": 53, "duration": 10, "velocity": 49}, {"time": 2111, "pitch": 57, "duration": 12, "velocity": 83}, {"time": 2111, "pitch": 60, "duration": 12, "velocity": 86}, {"time": 2123, "pitch": 46, "duration": 24, "velocity": 85}, {"time": 2129, "pitch": 50, "duration": 21, "velocity": 67}, {"time": 2135, "pitch": 53, "duration": 16, "velocity": 67}, {"time": 2141, "pitch": 62, "duration": 6, "velocity": 65}, {"time": 2147, "pitch": 65, "duration": 8, "velocity": 85}, {"time": 2153, "pitch": 62, "duration": 7, "velocity": 69}, {"time": 2159, "pitch": 48, "duration": 27, "velocity": 90}, {"time": 2165, "pitch": 55, "duration": 19, "velocity": 61}, {"time": 2171, "pitch": 60, "duration": 10, "velocity": 61}, {"time": 2177, "pitch": 64, "duration": 8, "velocity": 67}, {"time": 2183, "pitch": 67, "duration": 5, "velocity": 83}, {"time": 2195, "pitch": 45, "duration": 26, "velocity": 63}, {"time": 2195, "pitch": 61, "duration": 26, "velocity": 111}, {"time": 2201, "pitch": 52, "duration": 23, "velocity": 67}, {"time": 2207, "pitch": 57, "duration": 11, "velocity": 59}, {"time": 2213, "pitch": 49, "duration": 10, "velocity": 64}, {"time": 2219, "pitch": 64, "duration": 7, "velocity": 75}, {"time": 2225, "pitch": 61, "duration": 4, "velocity": 75}, {"time": 2231, "pitch": 50, "duration": 26, "velocity": 70}, {"time": 2237, "pitch": 57, "duration": 19, "velocity": 65}, {"time": 2243, "pitch": 62, "duration": 10, "velocity": 61}, {"time": 2249, "pitch": 65, "duration": 4, "velocity": 79}, {"time": 2255, "pitch": 69, "duration": 4, "velocity": 63}, {"time": 2261, "pitch": 65, "duration": 4, "velocity": 70}, {"time": 2267, "pitch": 43, "duration": 25, "velocity": 75}, {"time": 2273, "pitch": 46, "duration": 21, "velocity": 74}, {"time": 2279, "pitch": 50, "duration": 14, "velocity": 63}, {"time": 2285, "pitch": 55, "duration": 11, "velocity": 59}, {"time": 2291, "pitch": 58, "duration": 13, "velocity": 64}, {"time": 2297, "pitch": 62, "duration": 6, "velocity": 72}, {"time": 2303, "pitch": 45, "duration": 30, "velocity": 72}, {"time": 2309, "pitch": 52, "duration": 24, "velocity": 45}, {"time": 2315, "pitch": 62, "duration": 7, "velocity": 67}, {"time": 2315, "pitch": 65, "duration": 7, "velocity": 65}, {"time": 2321, "pitch": 57, "duration": 8, "velocity": 54}, {"time": 2327, "pitch": 60, "duration": 12, "velocity": 68}, {"time": 2327, "pitch": 64, "duration": 11, "velocity": 74}, {"time": 2339, "pitch": 50, "duration": 72, "velocity": 79}, {"time": 2345, "pitch": 57, "duration": 65, "velocity": 63}, {"time": 2351, "pitch": 65, "duration": 9, "velocity": 62}, {"time": 2351, "pitch": 69, "duration": 9, "velocity": 64}, {"time": 2357, "pitch": 62, "duration": 10, "velocity": 59}, {"time": 2363, "pitch": 65, "duration": 9, "velocity": 73}, {"time": 2363, "pitch": 69, "duration": 10, "velocity": 74}, {"time": 2369, "pitch": 62, "duration": 40, "velocity": 48}, {"time": 2375, "pitch": 65, "duration": 36, "velocity": 64}, {"time": 2375, "pitch": 69, "duration": 35, "velocity": 74}, {"time": 2411, "pitch": 50, "duration": 1, "velocity": 81}, {"time": 2417, "pitch": 57, "duration": 19, "velocity": 58}, {"time": 2423, "pitch": 62, "duration": 9, "velocity": 56}, {"time": 2429, "pitch": 64, "duration": 8, "velocity": 64}, {"time": 2435, "pitch": 65, "duration": 14, "velocity": 69}, {"time": 2447, "pitch": 48, "duration": 27, "velocity": 77}, {"time": 2453, "pitch": 55, "duration": 19, "velocity": 65}, {"time": 2459, "pitch": 60, "duration": 10, "velocity": 58}, {"time": 2465, "pitch": 64, "duration": 7, "velocity": 58}, {"time": 2471, "pitch": 67, "duration": 15, "velocity": 70}, {"time": 2483, "pitch": 46, "duration": 23, "velocity": 59}, {"time": 2489, "pitch": 50, "duration": 17, "velocity": 58}, {"time": 2495, "pitch": 62, "duration": 7, "velocity": 65}, {"time": 2501, "pitch": 65, "duration": 8, "velocity": 74}, {"time": 2507, "pitch": 62, "duration": 12, "velocity": 71}, {"time": 2519, "pitch": 45, "duration": 33, "velocity": 76}, {"time": 2525, "pitch": 52, "duration": 27, "velocity": 59}, {"time": 2531, "pitch": 57, "duration": 14, "velocity": 58}, {"time": 2537, "pitch": 60, "duration": 7, "velocity": 63}, {"time": 2543, "pitch": 62, "duration": 9, "velocity": 66}, {"time": 2555, "pitch": 43, "duration": 34, "velocity": 61}, {"time": 2567, "pitch": 46, "duration": 25, "velocity": 9}, {"time": 2567, "pitch": 50, "duration": 26, "velocity": 65}, {"time": 2573, "pitch": 55, "duration": 21, "velocity": 64}, {"time": 2579, "pitch": 62, "duration": 7, "velocity": 74}, {"time": 2585, "pitch": 58, "duration": 9, "velocity": 60}, {"time": 2591, "pitch": 45, "duration": 30, "velocity": 73}, {"time": 2597, "pitch": 52, "duration": 19, "velocity": 61}, {"time": 2603, "pitch": 57, "duration": 13, "velocity": 63}, {"time": 2609, "pitch": 60, "duration": 9, "velocity": 58}, {"time": 2615, "pitch": 64, "duration": 9, "velocity": 74}, {"time": 2621, "pitch": 60, "duration": 4, "velocity": 62}, {"time": 2627, "pitch": 50, "duration": 62, "velocity": 75}, {"time": 2633, "pitch": 57, "duration": 52, "velocity": 64}, {"time": 2639, "pitch": 67, "duration": 11, "velocity": 76}, {"time": 2639, "pitch": 79, "duration": 11, "velocity": 93}, {"time": 2645, "pitch": 62, "duration": 23, "velocity": 67}, {"time": 2651, "pitch": 69, "duration": 8, "velocity": 79}, {"time": 2651, "pitch": 81, "duration": 8, "velocity": 79}, {"time": 2663, "pitch": 66, "duration": 22, "velocity": 92}, {"time": 2663, "pitch": 78, "duration": 22, "velocity": 112}, {"time": 2669, "pitch": 62, "duration": 17, "velocity": 58}, {"time": 2681, "pitch": 69, "duration": 7, "velocity": 60}, {"time": 2687, "pitch": 66, "duration": 8, "velocity": 64}, {"time": 2699, "pitch": 51, "duration": 37, "velocity": 73}, {"time": 2705, "pitch": 62, "duration": 14, "velocity": 58}, {"time": 2711, "pitch": 65, "duration": 7, "velocity": 70}, {"time": 2717, "pitch": 69, "duration": 17, "velocity": 70}, {"time": 2735, "pitch": 49, "duration": 35, "velocity": 80}, {"time": 2741, "pitch": 55, "duration": 14, "velocity": 52}, {"time": 2747, "pitch": 60, "duration": 26, "velocity": 70}, {"time": 2753, "pitch": 64, "duration": 10, "velocity": 73}, {"time": 2759, "pitch": 67, "duration": 9, "velocity": 64}, {"time": 2765, "pitch": 64, "duration": 10, "velocity": 74}, {"time": 2771, "pitch": 48, "duration": 34, "velocity": 85}, {"time": 2777, "pitch": 55, "duration": 19, "velocity": 64}, {"time": 2783, "pitch": 60, "duration": 11, "velocity": 61}, {"time": 2789, "pitch": 64, "duration": 8, "velocity": 63}, {"time": 2795, "pitch": 67, "duration": 12, "velocity": 72}, {"time": 2801, "pitch": 64, "duration": 8, "velocity": 61}, {"time": 2807, "pitch": 47, "duration": 34, "velocity": 82}, {"time": 2814, "pitch": 53, "duration": 28, "velocity": 58}, {"time": 2819, "pitch": 57, "duration": 24, "velocity": 58}, {"time": 2825, "pitch": 62, "duration": 9, "velocity": 74}, {"time": 2831, "pitch": 65, "duration": 13, "velocity": 83}, {"time": 2837, "pitch": 62, "duration": 7, "velocity": 74}, {"time": 2843, "pitch": 43, "duration": 27, "velocity": 74}, {"time": 2849, "pitch": 50, "duration": 26, "velocity": 63}, {"time": 2855, "pitch": 55, "duration": 18, "velocity": 60}, {"time": 2861, "pitch": 58, "duration": 6, "velocity": 68}, {"time": 2867, "pitch": 62, "duration": 7, "velocity": 74}, {"time": 2873, "pitch": 58, "duration": 6, "velocity": 74}, {"time": 2876, "pitch": 62, "duration": 2, "velocity": 11}, {"time": 2879, "pitch": 45, "duration": 26, "velocity": 73}, {"time": 2885, "pitch": 52, "duration": 24, "velocity": 64}, {"time": 2891, "pitch": 57, "duration": 15, "velocity": 59}, {"time": 2897, "pitch": 60, "duration": 7, "velocity": 67}, {"time": 2903, "pitch": 62, "duration": 13, "velocity": 71}, {"time": 2915, "pitch": 50, "duration": 54, "velocity": 61}, {"time": 2927, "pitch": 57, "duration": 43, "velocity": 64}, {"time": 2933, "pitch": 67, "duration": 6, "velocity": 69}, {"time": 2939, "pitch": 69, "duration": 12, "velocity": 93}, {"time": 2945, "pitch": 62, "duration": 22, "velocity": 65}, {"time": 2945, "pitch": 67, "duration": 6, "velocity": 62}, {"time": 2951, "pitch": 66, "duration": 20, "velocity": 75}, {"time": 2987, "pitch": 50, "duration": 29, "velocity": 77}, {"time": 2987, "pitch": 69, "duration": 31, "velocity": 83}, {"time": 2993, "pitch": 57, "duration": 27, "velocity": 56}, {"time": 2999, "pitch": 62, "duration": 14, "velocity": 56}, {"time": 3011, "pitch": 65, "duration": 33, "velocity": 67}, {"time": 3023, "pitch": 52, "duration": 20, "velocity": 76}, {"time": 3041, "pitch": 69, "duration": 8, "velocity": 65}, {"time": 3047, "pitch": 65, "duration": 11, "velocity": 69}, {"time": 3059, "pitch": 41, "duration": 58, "velocity": 68}, {"time": 3065, "pitch": 48, "duration": 55, "velocity": 66}, {"time": 3071, "pitch": 53, "duration": 27, "velocity": 61}, {"time": 3078, "pitch": 57, "duration": 13, "velocity": 58}, {"time": 3083, "pitch": 60, "duration": 10, "velocity": 63}, {"time": 3095, "pitch": 57, "duration": 21, "velocity": 66}, {"time": 3095, "pitch": 60, "duration": 22, "velocity": 65}, {"time": 3107, "pitch": 53, "duration": 12, "velocity": 56}, {"time": 3119, "pitch": 57, "duration": 12, "velocity": 67}, {"time": 3119, "pitch": 60, "duration": 11, "velocity": 69}, {"time": 3131, "pitch": 46, "duration": 22, "velocity": 65}, {"time": 3131, "pitch": 62, "duration": 22, "velocity": 64}, {"time": 3131, "pitch": 65, "duration": 23, "velocity": 77}, {"time": 3143, "pitch": 53, "duration": 14, "velocity": 64}, {"time": 3155, "pitch": 62, "duration": 13, "velocity": 63}, {"time": 3155, "pitch": 65, "duration": 12, "velocity": 74}, {"time": 3167, "pitch": 48, "duration": 18, "velocity": 70}, {"time": 3173, "pitch": 55, "duration": 14, "velocity": 65}, {"time": 3179, "pitch": 64, "duration": 8, "velocity": 62}, {"time": 3185, "pitch": 67, "duration": 7, "velocity": 68}, {"time": 3191, "pitch": 64, "duration": 5, "velocity": 73}, {"time": 3203, "pitch": 41, "duration": 61, "velocity": 76}, {"time": 3203, "pitch": 57, "duration": 25, "velocity": 58}, {"time": 3203, "pitch": 60, "duration": 32, "velocity": 59}, {"time": 3210, "pitch": 48, "duration": 55, "velocity": 52}, {"time": 3221, "pitch": 53, "duration": 25, "velocity": 63}, {"time": 3234, "pitch": 45, "duration": 32, "velocity": 33}, {"time": 3239, "pitch": 57, "duration": 22, "velocity": 59}, {"time": 3239, "pitch": 60, "duration": 23, "velocity": 69}, {"time": 3251, "pitch": 53, "duration": 17, "velocity": 59}, {"time": 3263, "pitch": 57, "duration": 10, "velocity": 65}, {"time": 3263, "pitch": 60, "duration": 10, "velocity": 76}, {"time": 3275, "pitch": 46, "duration": 21, "velocity": 56}, {"time": 3275, "pitch": 62, "duration": 20, "velocity": 64}, {"time": 3275, "pitch": 65, "duration": 22, "velocity": 77}, {"time": 3287, "pitch": 50, "duration": 9, "velocity": 81}, {"time": 3293, "pitch": 53, "duration": 8, "velocity": 74}, {"time": 3299, "pitch": 62, "duration": 10, "velocity": 67}, {"time": 3305, "pitch": 65, "duration": 4, "velocity": 67}, {"time": 3311, "pitch": 48, "duration": 26, "velocity": 90}, {"time": 3317, "pitch": 55, "duration": 18, "velocity": 60}, {"time": 3323, "pitch": 60, "duration": 8, "velocity": 59}, {"time": 3329, "pitch": 64, "duration": 19, "velocity": 59}, {"time": 3335, "pitch": 67, "duration": 13, "velocity": 73}, {"time": 3347, "pitch": 45, "duration": 26, "velocity": 74}, {"time": 3359, "pitch": 52, "duration": 14, "velocity": 69}, {"time": 3371, "pitch": 60, "duration": 12, "velocity": 65}, {"time": 3383, "pitch": 50, "duration": 31, "velocity": 76}, {"time": 3395, "pitch": 65, "duration": 11, "velocity": 65}, {"time": 3395, "pitch": 69, "duration": 11, "velocity": 72}, {"time": 3401, "pitch": 57, "duration": 11, "velocity": 55}, {"time": 3407, "pitch": 65, "duration": 12, "velocity": 79}, {"time": 3407, "pitch": 69, "duration": 13, "velocity": 75}, {"time": 3419, "pitch": 46, "duration": 25, "velocity": 67}, {"time": 3419, "pitch": 62, "duration": 19, "velocity": 62}, {"time": 3419, "pitch": 65, "duration": 24, "velocity": 75}, {"time": 3431, "pitch": 50, "duration": 12, "velocity": 90}, {"time": 3437, "pitch": 53, "duration": 10, "velocity": 83}, {"time": 3443, "pitch": 62, "duration": 12, "velocity": 76}, {"time": 3449, "pitch": 65, "duration": 7, "velocity": 73}, {"time": 3455, "pitch": 48, "duration": 26, "velocity": 87}, {"time": 3461, "pitch": 55, "duration": 29, "velocity": 60}, {"time": 3467, "pitch": 60, "duration": 11, "velocity": 61}, {"time": 3473, "pitch": 64, "duration": 9, "velocity": 68}, {"time": 3479, "pitch": 67, "duration": 10, "velocity": 72}, {"time": 3491, "pitch": 50, "duration": 48, "velocity": 81}, {"time": 3491, "pitch": 65, "duration": 18, "velocity": 64}, {"time": 3503, "pitch": 57, "duration": 60, "velocity": 62}, {"time": 3509, "pitch": 67, "duration": 6, "velocity": 56}, {"time": 3515, "pitch": 69, "duration": 7, "velocity": 68}, {"time": 3521, "pitch": 67, "duration": 7, "velocity": 64}, {"time": 3527, "pitch": 66, "duration": 28, "velocity": 81}, {"time": 3539, "pitch": 50, "duration": 11, "velocity": 83}, {"time": 3551, "pitch": 48, "duration": 10, "velocity": 75}, {"time": 3563, "pitch": 46, "duration": 37, "velocity": 83}, {"time": 3569, "pitch": 50, "duration": 28, "velocity": 72}, {"time": 3575, "pitch": 53, "duration": 21, "velocity": 60}, {"time": 3581, "pitch": 62, "duration": 9, "velocity": 64}, {"time": 3587, "pitch": 65, "duration": 8, "velocity": 87}, {"time": 3599, "pitch": 48, "duration": 26, "velocity": 81}, {"time": 3605, "pitch": 55, "duration": 18, "velocity": 59}, {"time": 3611, "pitch": 60, "duration": 9, "velocity": 62}, {"time": 3617, "pitch": 64, "duration": 8, "velocity": 65}, {"time": 3623, "pitch": 67, "duration": 7, "velocity": 65}, {"time": 3629, "pitch": 64, "duration": 7, "velocity": 72}, {"time": 3635, "pitch": 45, "duration": 25, "velocity": 75}, {"time": 3641, "pitch": 52, "duration": 20, "velocity": 61}, {"time": 3647, "pitch": 57, "duration": 14, "velocity": 63}, {"time": 3653, "pitch": 60, "duration": 8, "velocity": 60}, {"time": 3659, "pitch": 64, "duration": 7, "velocity": 67}, {"time": 3665, "pitch": 60, "duration": 8, "velocity": 68}, {"time": 3671, "pitch": 50, "duration": 36, "velocity": 70}, {"time": 3678, "pitch": 57, "duration": 29, "velocity": 57}, {"time": 3683, "pitch": 62, "duration": 18, "velocity": 59}, {"time": 3695, "pitch": 65, "duration": 13, "velocity": 86}, {"time": 3701, "pitch": 69, "duration": 8, "velocity": 64}, {"time": 3707, "pitch": 46, "duration": 28, "velocity": 63}, {"time": 3713, "pitch": 50, "duration": 23, "velocity": 63}, {"time": 3725, "pitch": 62, "duration": 7, "velocity": 58}, {"time": 3731, "pitch": 65, "duration": 6, "velocity": 68}, {"time": 3737, "pitch": 62, "duration": 6, "velocity": 74}, {"time": 3743, "pitch": 48, "duration": 24, "velocity": 83}, {"time": 3749, "pitch": 55, "duration": 16, "velocity": 62}, {"time": 3755, "pitch": 60, "duration": 9, "velocity": 61}, {"time": 3761, "pitch": 64, "duration": 11, "velocity": 63}, {"time": 3767, "pitch": 67, "duration": 6, "velocity": 67}, {"time": 3779, "pitch": 41, "duration": 58, "velocity": 63}, {"time": 3779, "pitch": 57, "duration": 21, "velocity": 61}, {"time": 3779, "pitch": 60, "duration": 22, "velocity": 64}, {"time": 3791, "pitch": 48, "duration": 49, "velocity": 77}, {"time": 3797, "pitch": 53, "duration": 8, "velocity": 51}, {"time": 3803, "pitch": 57, "duration": 11, "velocity": 63}, {"time": 3803, "pitch": 60, "duration": 11, "velocity": 65}, {"time": 3809, "pitch": 53, "duration": 10, "velocity": 58}, {"time": 3815, "pitch": 57, "duration": 21, "velocity": 68}, {"time": 3815, "pitch": 60, "duration": 21, "velocity": 71}, {"time": 3827, "pitch": 53, "duration": 10, "velocity": 49}, {"time": 3839, "pitch": 57, "duration": 12, "velocity": 83}, {"time": 3839, "pitch": 60, "duration": 12, "velocity": 86}, {"time": 3851, "pitch": 46, "duration": 24, "velocity": 85}, {"time": 3857, "pitch": 50, "duration": 21, "velocity": 67}, {"time": 3863, "pitch": 53, "duration": 16, "velocity": 67}, {"time": 3869, "pitch": 62, "duration": 6, "velocity": 65}, {"time": 3875, "pitch": 65, "duration": 8, "velocity": 85}, {"time": 3881, "pitch": 62, "duration": 7, "velocity": 69}, {"time": 3887, "pitch": 48, "duration": 27, "velocity": 90}, {"time": 3893, "pitch": 55, "duration": 19, "velocity": 61}, {"time": 3899, "pitch": 60, "duration": 10, "velocity": 61}, {"time": 3905, "pitch": 64, "duration": 8, "velocity": 67}, {"time": 3911, "pitch": 67, "duration": 5, "velocity": 83}, {"time": 3923, "pitch": 45, "duration": 26, "velocity": 63}, {"time": 3923, "pitch": 61, "duration": 26, "velocity": 82}, {"time": 3929, "pitch": 52, "duration": 23, "velocity": 67}, {"time": 3935, "pitch": 57, "duration": 11, "velocity": 59}, {"time": 3941, "pitch": 49, "duration": 10, "velocity": 64}, {"time": 3947, "pitch": 64, "duration": 7, "velocity": 75}, {"time": 3953, "pitch": 61, "duration": 4, "velocity": 75}, {"time": 3959, "pitch": 50, "duration": 26, "velocity": 70}, {"time": 3965, "pitch": 57, "duration": 19, "velocity": 65}, {"time": 3971, "pitch": 62, "duration": 10, "velocity": 61}, {"time": 3977, "pitch": 65, "duration": 4, "velocity": 79}, {"time": 3983, "pitch": 69, "duration": 4, "velocity": 63}, {"time": 3989, "pitch": 65, "duration": 4, "velocity": 70}, {"time": 3995, "pitch": 43, "duration": 25, "velocity": 75}, {"time": 4001, "pitch": 46, "duration": 21, "velocity": 74}, {"time": 4007, "pitch": 50, "duration": 14, "velocity": 63}, {"time": 4013, "pitch": 55, "duration": 11, "velocity": 59}, {"time": 4019, "pitch": 58, "duration": 13, "velocity": 64}, {"time": 4025, "pitch": 62, "duration": 6, "velocity": 72}, {"time": 4031, "pitch": 45, "duration": 30, "velocity": 72}, {"time": 4037, "pitch": 52, "duration": 24, "velocity": 45}, {"time": 4043, "pitch": 62, "duration": 7, "velocity": 67}, {"time": 4043, "pitch": 65, "duration": 7, "velocity": 65}, {"time": 4049, "pitch": 57, "duration": 8, "velocity": 54}, {"time": 4055, "pitch": 60, "duration": 12, "velocity": 68}, {"time": 4055, "pitch": 64, "duration": 11, "velocity": 74}, {"time": 4067, "pitch": 46, "duration": 37, "velocity": 67}, {"time": 4073, "pitch": 53, "duration": 32, "velocity": 68}, {"time": 4079, "pitch": 58, "duration": 10, "velocity": 60}, {"time": 4085, "pitch": 62, "duration": 4, "velocity": 63}, {"time": 4091, "pitch": 65, "duration": 7, "velocity": 75}, {"time": 4097, "pitch": 58, "duration": 7, "velocity": 67}, {"time": 4103, "pitch": 44, "duration": 35, "velocity": 85}, {"time": 4109, "pitch": 51, "duration": 28, "velocity": 42}, {"time": 4115, "pitch": 56, "duration": 14, "velocity": 72}, {"time": 4121, "pitch": 60, "duration": 6, "velocity": 66}, {"time": 4127, "pitch": 63, "duration": 10, "velocity": 104}, {"time": 4133, "pitch": 60, "duration": 3, "velocity": 33}, {"time": 4139, "pitch": 43, "duration": 36, "velocity": 71}, {"time": 4139, "pitch": 59, "duration": 18, "velocity": 60}, {"time": 4139, "pitch": 62, "duration": 18, "velocity": 74}, {"time": 4145, "pitch": 50, "duration": 31, "velocity": 74}, {"time": 4151, "pitch": 55, "duration": 12, "velocity": 58}, {"time": 4157, "pitch": 59, "duration": 19, "velocity": 69}, {"time": 4157, "pitch": 62, "duration": 18, "velocity": 83}, {"time": 4166, "pitch": 55, "duration": 9, "velocity": 52}, {"time": 4175, "pitch": 42, "duration": 32, "velocity": 77}, {"time": 4175, "pitch": 57, "duration": 22, "velocity": 68}, {"time": 4175, "pitch": 61, "duration": 23, "velocity": 95}, {"time": 4181, "pitch": 49, "duration": 28, "velocity": 66}, {"time": 4187, "pitch": 54, "duration": 22, "velocity": 59}, {"time": 4199, "pitch": 57, "duration": 10, "velocity": 70}, {"time": 4199, "pitch": 61, "duration": 8, "velocity": 114}, {"time": 4211, "pitch": 41, "duration": 33, "velocity": 74}, {"time": 4217, "pitch": 48, "duration": 30, "velocity": 63}, {"time": 4223, "pitch": 53, "duration": 7, "velocity": 59}, {"time": 4229, "pitch": 56, "duration": 18, "velocity": 74}, {"time": 4235, "pitch": 53, "duration": 11, "velocity": 67}, {"time": 4247, "pitch": 41, "duration": 36, "velocity": 87}, {"time": 4253, "pitch": 48, "duration": 30, "velocity": 81}, {"time": 4259, "pitch": 53, "duration": 8, "velocity": 69}, {"time": 4265, "pitch": 57, "duration": 12, "velocity": 63}, {"time": 4271, "pitch": 60, "duration": 11, "velocity": 61}, {"time": 4277, "pitch": 53, "duration": 6, "velocity": 59}, {"time": 4283, "pitch": 46, "duration": 70, "velocity": 90}, {"time": 4289, "pitch": 53, "duration": 64, "velocity": 60}, {"time": 4295, "pitch": 58, "duration": 14, "velocity": 57}, {"time": 4301, "pitch": 62, "duration": 8, "velocity": 60}, {"time": 4307, "pitch": 65, "duration": 10, "velocity": 90}, {"time": 4313, "pitch": 58, "duration": 9, "velocity": 59}, {"time": 4319, "pitch": 62, "duration": 22, "velocity": 86}, {"time": 4319, "pitch": 65, "duration": 14, "velocity": 90}, {"time": 4331, "pitch": 58, "duration": 24, "velocity": 59}, {"time": 4343, "pitch": 62, "duration": 11, "velocity": 100}, {"time": 4343, "pitch": 70, "duration": 11, "velocity": 100}, {"time": 4355, "pitch": 47, "duration": 136, "velocity": 87}, {"time": 4355, "pitch": 64, "duration": 21, "velocity": 93}, {"time": 4361, "pitch": 51, "duration": 128, "velocity": 61}, {"time": 4367, "pitch": 54, "duration": 123, "velocity": 67}, {"time": 4373, "pitch": 59, "duration": 116, "velocity": 51}, {"time": 4379, "pitch": 64, "duration": 11, "velocity": 93}, {"time": 4391, "pitch": 63, "duration": 99, "velocity": 104}, {"time": 4499, "pitch": 48, "duration": 25, "velocity": 86}, {"time": 4505, "pitch": 55, "duration": 29, "velocity": 67}, {"time": 4511, "pitch": 60, "duration": 15, "velocity": 51}, {"time": 4517, "pitch": 64, "duration": 19, "velocity": 56}, {"time": 4523, "pitch": 67, "duration": 14, "velocity": 73}, {"time": 4535, "pitch": 50, "duration": 25, "velocity": 75}, {"time": 4541, "pitch": 57, "duration": 19, "velocity": 60}, {"time": 4547, "pitch": 62, "duration": 11, "velocity": 62}, {"time": 4553, "pitch": 66, "duration": 19, "velocity": 52}, {"time": 4559, "pitch": 69, "duration": 12, "velocity": 74}, {"time": 4571, "pitch": 47, "duration": 36, "velocity": 58}, {"time": 4577, "pitch": 54, "duration": 30, "velocity": 60}, {"time": 4583, "pitch": 62, "duration": 7, "velocity": 62}, {"time": 4589, "pitch": 66, "duration": 6, "velocity": 90}, {"time": 4595, "pitch": 62, "duration": 7, "velocity": 85}, {"time": 4601, "pitch": 66, "duration": 7, "velocity": 69}, {"time": 4607, "pitch": 40, "duration": 35, "velocity": 68}, {"time": 4607, "pitch": 79, "duration": 6, "velocity": 95}, {"time": 4611, "pitch": 78, "duration": 7, "velocity": 61}, {"time": 4615, "pitch": 74, "duration": 5, "velocity": 69}, {"time": 4619, "pitch": 52, "duration": 22, "velocity": 68}, {"time": 4619, "pitch": 69, "duration": 4, "velocity": 72}, {"time": 4624, "pitch": 67, "duration": 3, "velocity": 69}, {"time": 4628, "pitch": 66, "duration": 4, "velocity": 64}, {"time": 4631, "pitch": 47, "duration": 9, "velocity": 93}, {"time": 4631, "pitch": 64, "duration": 8, "velocity": 79}, {"time": 4643, "pitch": 48, "duration": 31, "velocity": 87}, {"time": 4643, "pitch": 64, "duration": 21, "velocity": 74}, {"time": 4643, "pitch": 67, "duration": 17, "velocity": 76}, {"time": 4649, "pitch": 55, "duration": 30, "velocity": 60}, {"time": 4655, "pitch": 60, "duration": 13, "velocity": 58}, {"time": 4667, "pitch": 64, "duration": 5, "velocity": 86}, {"time": 4667, "pitch": 67, "duration": 6, "velocity": 83}, {"time": 4673, "pitch": 60, "duration": 7, "velocity": 51}, {"time": 4679, "pitch": 50, "duration": 26, "velocity": 90}, {"time": 4679, "pitch": 66, "duration": 19, "velocity": 85}, {"time": 4679, "pitch": 69, "duration": 16, "velocity": 83}, {"time": 4685, "pitch": 57, "duration": 19, "velocity": 59}, {"time": 4691, "pitch": 62, "duration": 11, "velocity": 60}, {"time": 4697, "pitch": 69, "duration": 3, "velocity": 50}, {"time": 4703, "pitch": 66, "duration": 3, "velocity": 93}, {"time": 4703, "pitch": 69, "duration": 2, "velocity": 79}, {"time": 4715, "pitch": 43, "duration": 6, "velocity": 86}, {"time": 4715, "pitch": 55, "duration": 10, "velocity": 86}, {"time": 4715, "pitch": 59, "duration": 11, "velocity": 86}, {"time": 4715, "pitch": 62, "duration": 11, "velocity": 86}, {"time": 4727, "pitch": 43, "duration": 3, "velocity": 87}, {"time": 4727, "pitch": 55, "duration": 4, "velocity": 87}, {"time": 4727, "pitch": 59, "duration": 3, "velocity": 87}, {"time": 4727, "pitch": 62, "duration": 3, "velocity": 87}, {"time": 4763, "pitch": 52, "duration": 11, "velocity": 79}, {"time": 4763, "pitch": 64, "duration": 11, "velocity": 100}, {"time": 4775, "pitch": 47, "duration": 12, "velocity": 85}, {"time": 4775, "pitch": 62, "duration": 12, "velocity": 74}, {"time": 4787, "pitch": 48, "duration": 31, "velocity": 81}, {"time": 4787, "pitch": 64, "duration": 22, "velocity": 83}, {"time": 4787, "pitch": 67, "duration": 22, "velocity": 87}, {"time": 4793, "pitch": 55, "duration": 31, "velocity": 60}, {"time": 4799, "pitch": 60, "duration": 21, "velocity": 59}, {"time": 4811, "pitch": 64, "duration": 8, "velocity": 76}, {"time": 4811, "pitch": 67, "duration": 9, "velocity": 83}, {"time": 4811, "pitch": 72, "duration": 8, "velocity": 72}, {"time": 4823, "pitch": 50, "duration": 26, "velocity": 87}, {"time": 4823, "pitch": 66, "duration": 19, "velocity": 112}, {"time": 4823, "pitch": 69, "duration": 20, "velocity": 65}, {"time": 4829, "pitch": 57, "duration": 20, "velocity": 60}, {"time": 4835, "pitch": 54, "duration": 13, "velocity": 69}, {"time": 4835, "pitch": 62, "duration": 10, "velocity": 65}, {"time": 4847, "pitch": 66, "duration": 14, "velocity": 100}, {"time": 4859, "pitch": 47, "duration": 37, "velocity": 74}, {"time": 4859, "pitch": 63, "duration": 15, "velocity": 63}, {"time": 4859, "pitch": 66, "duration": 2, "velocity": 83}, {"time": 4859, "pitch": 71, "duration": 13, "velocity": 95}, {"time": 4865, "pitch": 51, "duration": 15, "velocity": 63}, {"time": 4871, "pitch": 54, "duration": 9, "velocity": 73}, {"time": 4877, "pitch": 63, "duration": 9, "velocity": 74}, {"time": 4877, "pitch": 66, "duration": 9, "velocity": 66}, {"time": 4877, "pitch": 71, "duration": 6, "velocity": 30}, {"time": 4883, "pitch": 51, "duration": 12, "velocity": 77}, {"time": 4883, "pitch": 54, "duration": 12, "velocity": 77}, {"time": 4895, "pitch": 40, "duration": 32, "velocity": 65}, {"time": 4895, "pitch": 55, "duration": 14, "velocity": 61}, {"time": 4895, "pitch": 59, "duration": 15, "velocity": 70}, {"time": 4895, "pitch": 64, "duration": 14, "velocity": 75}, {"time": 4901, "pitch": 47, "duration": 25, "velocity": 59}, {"time": 4907, "pitch": 52, "duration": 9, "velocity": 64}, {"time": 4910, "pitch": 55, "duration": 10, "velocity": 61}, {"time": 4913, "pitch": 59, "duration": 7, "velocity": 59}, {"time": 4919, "pitch": 52, "duration": 7, "velocity": 66}, {"time": 4922, "pitch": 55, "duration": 8, "velocity": 64}, {"time": 4925, "pitch": 59, "duration": 7, "velocity": 63}, {"time": 4925, "pitch": 64, "duration": 7, "velocity": 63}, {"time": 4931, "pitch": 45, "duration": 29, "velocity": 77}, {"time": 4931, "pitch": 60, "duration": 20, "velocity": 67}, {"time": 4931, "pitch": 64, "duration": 1, "velocity": 74}, {"time": 4931, "pitch": 69, "duration": 21, "velocity": 76}, {"time": 4937, "pitch": 52, "duration": 30, "velocity": 62}, {"time": 4943, "pitch": 57, "duration": 8, "velocity": 63}, {"time": 4949, "pitch": 48, "duration": 15, "velocity": 59}, {"time": 4955, "pitch": 60, "duration": 16, "velocity": 87}, {"time": 4955, "pitch": 64, "duration": 13, "velocity": 87}, {"time": 4955, "pitch": 69, "duration": 14, "velocity": 79}, {"time": 4958, "pitch": 57, "duration": 7, "velocity": 63}, {"time": 4967, "pitch": 47, "duration": 31, "velocity": 80}, {"time": 4972, "pitch": 54, "duration": 26, "velocity": 68}, {"time": 4979, "pitch": 62, "duration": 9, "velocity": 68}, {"time": 4979, "pitch": 66, "duration": 11, "velocity": 72}, {"time": 4985, "pitch": 59, "duration": 14, "velocity": 58}, {"time": 4991, "pitch": 62, "duration": 11, "velocity": 76}, {"time": 4991, "pitch": 66, "duration": 10, "velocity": 93}, {"time": 5003, "pitch": 40, "duration": 62, "velocity": 71}, {"time": 5009, "pitch": 47, "duration": 59, "velocity": 63}, {"time": 5015, "pitch": 52, "duration": 12, "velocity": 69}, {"time": 5018, "pitch": 55, "duration": 18, "velocity": 64}, {"time": 5027, "pitch": 59, "duration": 35, "velocity": 70}, {"time": 5033, "pitch": 52, "duration": 9, "velocity": 75}, {"time": 5039, "pitch": 55, "duration": 22, "velocity": 53}, {"time": 5039, "pitch": 64, "duration": 23, "velocity": 86}, {"time": 5045, "pitch": 52, "duration": 4, "velocity": 60}, {"time": 5051, "pitch": 52, "duration": 19, "velocity": 75}, {"time": 5063, "pitch": 55, "duration": 8, "velocity": 85}, {"time": 5063, "pitch": 59, "duration": 8, "velocity": 93}, {"time": 5063, "pitch": 64, "duration": 8, "velocity": 95}, {"time": 5075, "pitch": 48, "duration": 29, "velocity": 79}, {"time": 5081, "pitch": 55, "duration": 30, "velocity": 61}, {"time": 5087, "pitch": 60, "duration": 15, "velocity": 65}, {"time": 5093, "pitch": 64, "duration": 4, "velocity": 61}, {"time": 5093, "pitch": 67, "duration": 3, "velocity": 58}, {"time": 5093, "pitch": 72, "duration": 2, "velocity": 61}, {"time": 5099, "pitch": 64, "duration": 6, "velocity": 90}, {"time": 5099, "pitch": 67, "duration": 6, "velocity": 95}, {"time": 5099, "pitch": 72, "duration": 7, "velocity": 90}, {"time": 5105, "pitch": 60, "duration": 6, "velocity": 67}, {"time": 5111, "pitch": 50, "duration": 27, "velocity": 86}, {"time": 5111, "pitch": 66, "duration": 21, "velocity": 90}, {"time": 5111, "pitch": 69, "duration": 21, "velocity": 86}, {"time": 5111, "pitch": 74, "duration": 22, "velocity": 79}, {"time": 5117, "pitch": 57, "duration": 19, "velocity": 60}, {"time": 5123, "pitch": 62, "duration": 12, "velocity": 70}, {"time": 5129, "pitch": 54, "duration": 9, "velocity": 85}, {"time": 5135, "pitch": 66, "duration": 13, "velocity": 104}, {"time": 5135, "pitch": 69, "duration": 12, "velocity": 87}, {"time": 5135, "pitch": 74, "duration": 12, "velocity": 83}, {"time": 5147, "pitch": 47, "duration": 28, "velocity": 85}, {"time": 5153, "pitch": 51, "duration": 24, "velocity": 81}, {"time": 5159, "pitch": 54, "duration": 16, "velocity": 63}, {"time": 5159, "pitch": 63, "duration": 8, "velocity": 87}, {"time": 5159, "pitch": 66, "duration": 7, "velocity": 72}, {"time": 5159, "pitch": 71, "duration": 5, "velocity": 67}, {"time": 5171, "pitch": 63, "duration": 13, "velocity": 98}, {"time": 5171, "pitch": 66, "duration": 12, "velocity": 76}, {"time": 5171, "pitch": 71, "duration": 12, "velocity": 77}, {"time": 5183, "pitch": 52, "duration": 103, "velocity": 73}, {"time": 5189, "pitch": 59, "duration": 70, "velocity": 58}, {"time": 5195, "pitch": 64, "duration": 16, "velocity": 65}, {"time": 5201, "pitch": 66, "duration": 6, "velocity": 74}, {"time": 5207, "pitch": 67, "duration": 9, "velocity": 76}, {"time": 5213, "pitch": 69, "duration": 5, "velocity": 79}, {"time": 5219, "pitch": 64, "duration": 39, "velocity": 62}, {"time": 5219, "pitch": 71, "duration": 36, "velocity": 90}, {"time": 5219, "pitch": 79, "duration": 22, "velocity": 52}, {"time": 5219, "pitch": 83, "duration": 23, "velocity": 77}, {"time": 5254, "pitch": 79, "duration": 5, "velocity": 46}, {"time": 5254, "pitch": 83, "duration": 5, "velocity": 73}, {"time": 5256, "pitch": 88, "duration": 17, "velocity": 72}, {"time": 5375, "pitch": 57, "duration": 32, "velocity": 63}, {"time": 5375, "pitch": 72, "duration": 40, "velocity": 49}, {"time": 5375, "pitch": 76, "duration": 27, "velocity": 51}, {"time": 5375, "pitch": 81, "duration": 30, "velocity": 59}, {"time": 5381, "pitch": 64, "duration": 30, "velocity": 53}, {"time": 5387, "pitch": 69, "duration": 22, "velocity": 56}, {"time": 5411, "pitch": 59, "duration": 46, "velocity": 70}, {"time": 5411, "pitch": 74, "duration": 48, "velocity": 64}, {"time": 5417, "pitch": 62, "duration": 39, "velocity": 60}, {"time": 5417, "pitch": 78, "duration": 42, "velocity": 59}, {"time": 5459, "pitch": 64, "duration": 72, "velocity": 72}, {"time": 5459, "pitch": 88, "duration": 11, "velocity": 69}, {"time": 5471, "pitch": 83, "duration": 6, "velocity": 69}, {"time": 5477, "pitch": 81, "duration": 7, "velocity": 58}, {"time": 5483, "pitch": 83, "duration": 6, "velocity": 72}, {"time": 5489, "pitch": 79, "duration": 7, "velocity": 58}, {"time": 5495, "pitch": 81, "duration": 22, "velocity": 73}, {"time": 5507, "pitch": 78, "duration": 13, "velocity": 79}, {"time": 5519, "pitch": 74, "duration": 12, "velocity": 63}, {"time": 5531, "pitch": 52, "duration": 119, "velocity": 67}, {"time": 5531, "pitch": 76, "duration": 50, "velocity": 75}, {"time": 5537, "pitch": 59, "duration": 112, "velocity": 58}, {"time": 5543, "pitch": 64, "duration": 16, "velocity": 60}, {"time": 5549, "pitch": 67, "duration": 100, "velocity": 57}, {"time": 5555, "pitch": 71, "duration": 91, "velocity": 63}, {"time": 5567, "pitch": 64, "duration": 16, "velocity": 58}, {"time": 5573, "pitch": 76, "duration": 8, "velocity": 61}, {"time": 5618, "pitch": 79, "duration": 34, "velocity": 50}, {"time": 5619, "pitch": 64, "duration": 33, "velocity": 74}, {"time": 5619, "pitch": 83, "duration": 33, "velocity": 66}, {"time": 5634, "pitch": 71, "duration": 12, "velocity": 58}, {"time": 5659, "pitch": 62, "duration": 38, "velocity": 76}, {"time": 5660, "pitch": 78, "duration": 38, "velocity": 59}, {"time": 5660, "pitch": 81, "duration": 37, "velocity": 63}, {"time": 5673, "pitch": 69, "duration": 24, "velocity": 52}, {"time": 5696, "pitch": 74, "duration": 18, "velocity": 66}, {"time": 5696, "pitch": 55, "duration": 58, "velocity": 68}, {"time": 5696, "pitch": 71, "duration": 16, "velocity": 50}, {"time": 5702, "pitch": 62, "duration": 54, "velocity": 61}, {"time": 5709, "pitch": 67, "duration": 13, "velocity": 49}, {"time": 5714, "pitch": 71, "duration": 54, "velocity": 63}, {"time": 5720, "pitch": 74, "duration": 34, "velocity": 62}, {"time": 5726, "pitch": 67, "duration": 9, "velocity": 56}, {"time": 5731, "pitch": 79, "duration": 27, "velocity": 76}, {"time": 5745, "pitch": 67, "duration": 11, "velocity": 58}, {"time": 5756, "pitch": 74, "duration": 12, "velocity": 60}, {"time": 5768, "pitch": 60, "duration": 26, "velocity": 74}, {"time": 5773, "pitch": 67, "duration": 29, "velocity": 65}, {"time": 5780, "pitch": 72, "duration": 14, "velocity": 58}, {"time": 5786, "pitch": 76, "duration": 19, "velocity": 54}, {"time": 5792, "pitch": 79, "duration": 14, "velocity": 71}, {"time": 5803, "pitch": 62, "duration": 29, "velocity": 75}, {"time": 5810, "pitch": 69, "duration": 20, "velocity": 63}, {"time": 5816, "pitch": 74, "duration": 13, "velocity": 60}, {"time": 5823, "pitch": 66, "duration": 8, "velocity": 67}, {"time": 5828, "pitch": 78, "duration": 13, "velocity": 54}, {"time": 5835, "pitch": 81, "duration": 5, "velocity": 73}, {"time": 5841, "pitch": 55, "duration": 68, "velocity": 70}, {"time": 5847, "pitch": 62, "duration": 62, "velocity": 57}, {"time": 5854, "pitch": 67, "duration": 14, "velocity": 52}, {"time": 5860, "pitch": 69, "duration": 11, "velocity": 59}, {"time": 5866, "pitch": 71, "duration": 18, "velocity": 62}, {"time": 5872, "pitch": 67, "duration": 38, "velocity": 58}, {"time": 5883, "pitch": 72, "duration": 13, "velocity": 73}, {"time": 5896, "pitch": 71, "duration": 25, "velocity": 74}, {"time": 5921, "pitch": 60, "duration": 29, "velocity": 77}, {"time": 5928, "pitch": 67, "duration": 28, "velocity": 60}, {"time": 5934, "pitch": 72, "duration": 15, "velocity": 58}, {"time": 5940, "pitch": 76, "duration": 19, "velocity": 64}, {"time": 5946, "pitch": 79, "duration": 14, "velocity": 72}, {"time": 5958, "pitch": 62, "duration": 28, "velocity": 69}, {"time": 5964, "pitch": 69, "duration": 22, "velocity": 58}, {"time": 5971, "pitch": 74, "duration": 13, "velocity": 60}, {"time": 5976, "pitch": 66, "duration": 10, "velocity": 36}, {"time": 5983, "pitch": 78, "duration": 11, "velocity": 62}, {"time": 5989, "pitch": 81, "duration": 6, "velocity": 61}, {"time": 5995, "pitch": 59, "duration": 32, "velocity": 68}, {"time": 6001, "pitch": 62, "duration": 28, "velocity": 63}, {"time": 6008, "pitch": 66, "duration": 19, "velocity": 68}, {"time": 6015, "pitch": 74, "duration": 7, "velocity": 53}, {"time": 6021, "pitch": 78, "duration": 11, "velocity": 81}, {"time": 6032, "pitch": 64, "duration": 37, "velocity": 61}, {"time": 6038, "pitch": 71, "duration": 31, "velocity": 62}, {"time": 6044, "pitch": 76, "duration": 14, "velocity": 60}, {"time": 6050, "pitch": 78, "duration": 6, "velocity": 58}, {"time": 6056, "pitch": 79, "duration": 15, "velocity": 76}, {"time": 6069, "pitch": 57, "duration": 27, "velocity": 60}, {"time": 6076, "pitch": 64, "duration": 28, "velocity": 65}, {"time": 6082, "pitch": 69, "duration": 15, "velocity": 53}, {"time": 6088, "pitch": 72, "duration": 21, "velocity": 60}, {"time": 6094, "pitch": 76, "duration": 15, "velocity": 62}, {"time": 6107, "pitch": 59, "duration": 32, "velocity": 61}, {"time": 6119, "pitch": 62, "duration": 21, "velocity": 58}, {"time": 6132, "pitch": 78, "duration": 12, "velocity": 63}, {"time": 6145, "pitch": 64, "duration": 85, "velocity": 60}, {"time": 6152, "pitch": 71, "duration": 78, "velocity": 61}, {"time": 6158, "pitch": 76, "duration": 70, "velocity": 58}, {"time": 6164, "pitch": 78, "duration": 6, "velocity": 66}, {"time": 6178, "pitch": 78, "duration": 7, "velocity": 54}, {"time": 6186, "pitch": 79, "duration": 26, "velocity": 44}, {"time": 6244, "pitch": 76, "duration": 44, "velocity": 50}, {"time": 6244, "pitch": 60, "duration": 44, "velocity": 60}, {"time": 6254, "pitch": 67, "duration": 36, "velocity": 57}, {"time": 6262, "pitch": 72, "duration": 27, "velocity": 51}, {"time": 6269, "pitch": 79, "duration": 19, "velocity": 56}, {"time": 6298, "pitch": 78, "duration": 107, "velocity": 59}, {"time": 6299, "pitch": 62, "duration": 105, "velocity": 62}, {"time": 6304, "pitch": 81, "duration": 99, "velocity": 10}, {"time": 6308, "pitch": 69, "duration": 96, "velocity": 60}, {"time": 6315, "pitch": 74, "duration": 88, "velocity": 63}, {"time": 6322, "pitch": 86, "duration": 82, "velocity": 73}, {"time": 6414, "pitch": 52, "duration": 171, "velocity": 67}, {"time": 6420, "pitch": 59, "duration": 131, "velocity": 61}, {"time": 6427, "pitch": 64, "duration": 11, "velocity": 61}, {"time": 6431, "pitch": 67, "duration": 111, "velocity": 56}, {"time": 6438, "pitch": 71, "duration": 106, "velocity": 62}, {"time": 6447, "pitch": 64, "duration": 14, "velocity": 58}, {"time": 6455, "pitch": 74, "duration": 38, "velocity": 58}, {"time": 6467, "pitch": 64, "duration": 80, "velocity": 59}, {"time": 6478, "pitch": 78, "duration": 9, "velocity": 54}, {"time": 6486, "pitch": 79, "duration": 48, "velocity": 52}, {"time": 6524, "pitch": 91, "duration": 23, "velocity": 77}, {"time": 6543, "pitch": 79, "duration": 99, "velocity": 58}, {"time": 6545, "pitch": 83, "duration": 99, "velocity": 77}, {"time": 6547, "pitch": 88, "duration": 98, "velocity": 61}, {"time": 6550, "pitch": 71, "duration": 106, "velocity": 59}, {"time": 6550, "pitch": 28, "duration": 107, "velocity": 39}, {"time": 6551, "pitch": 64, "duration": 105, "velocity": 38}, {"time": 6570, "pitch": 67, "duration": 86, "velocity": 1}], "annotations": [{"time": 11, "annotation": {"number": 64, "value": 82}, "group": "control_change"}, {"time": 23, "annotation": {"number": 64, "value": 74}, "group": "control_change"}]}]}