{"metadata": {"schema_version": "0.2", "title": "None", "source_filename": "153.mid", "source_format": "midi"}, "resolution": 12, "tempos": [{"time": 0, "qpm": 94.00012846684224}], "time_signatures": [{"time": 0, "numerator": 1, "denominator": 4}], "tracks": [{"program": 4, "is_drum": false, "name": "MELODY", "notes": [{"time": 412, "pitch": 67, "duration": 3, "velocity": 65}, {"time": 415, "pitch": 67, "duration": 6, "velocity": 72}, {"time": 421, "pitch": 70, "duration": 7, "velocity": 70}, {"time": 427, "pitch": 72, "duration": 6, "velocity": 72}, {"time": 433, "pitch": 75, "duration": 6, "velocity": 74}, {"time": 439, "pitch": 72, "duration": 21, "velocity": 98}, {"time": 460, "pitch": 72, "duration": 3, "velocity": 69}, {"time": 463, "pitch": 72, "duration": 6, "velocity": 77}, {"time": 469, "pitch": 75, "duration": 6, "velocity": 74}, {"time": 475, "pitch": 77, "duration": 6, "velocity": 81}, {"time": 481, "pitch": 79, "duration": 6, "velocity": 98}, {"time": 487, "pitch": 79, "duration": 24, "velocity": 104}, {"time": 511, "pitch": 67, "duration": 7, "velocity": 74}, {"time": 517, "pitch": 70, "duration": 6, "velocity": 68}, {"time": 523, "pitch": 72, "duration": 7, "velocity": 81}, {"time": 529, "pitch": 75, "duration": 6, "velocity": 70}, {"time": 535, "pitch": 72, "duration": 24, "velocity": 79}, {"time": 559, "pitch": 70, "duration": 7, "velocity": 87}, {"time": 565, "pitch": 72, "duration": 6, "velocity": 79}, {"time": 571, "pitch": 72, "duration": 6, "velocity": 95}, {"time": 577, "pitch": 70, "duration": 6, "velocity": 100}, {"time": 583, "pitch": 67, "duration": 24, "velocity": 108}, {"time": 607, "pitch": 67, "duration": 7, "velocity": 86}, {"time": 613, "pitch": 70, "duration": 6, "velocity": 73}, {"time": 619, "pitch": 72, "duration": 6, "velocity": 74}, {"time": 625, "pitch": 75, "duration": 6, "velocity": 76}, {"time": 631, "pitch": 72, "duration": 24, "velocity": 104}, {"time": 655, "pitch": 70, "duration": 7, "velocity": 75}, {"time": 661, "pitch": 72, "duration": 6, "velocity": 74}, {"time": 667, "pitch": 72, "duration": 6, "velocity": 86}, {"time": 673, "pitch": 70, "duration": 6, "velocity": 74}, {"time": 679, "pitch": 67, "duration": 24, "velocity": 90}, {"time": 703, "pitch": 72, "duration": 6, "velocity": 74}, {"time": 709, "pitch": 72, "duration": 6, "velocity": 74}, {"time": 715, "pitch": 75, "duration": 3, "velocity": 76}, {"time": 718, "pitch": 77, "duration": 6, "velocity": 83}, {"time": 724, "pitch": 77, "duration": 24, "velocity": 98}, {"time": 748, "pitch": 74, "duration": 3, "velocity": 85}, {"time": 751, "pitch": 74, "duration": 6, "velocity": 87}, {"time": 757, "pitch": 72, "duration": 6, "velocity": 77}, {"time": 763, "pitch": 70, "duration": 6, "velocity": 76}, {"time": 769, "pitch": 72, "duration": 6, "velocity": 67}, {"time": 775, "pitch": 72, "duration": 69, "velocity": 83}, {"time": 844, "pitch": 67, "duration": 3, "velocity": 65}, {"time": 847, "pitch": 67, "duration": 6, "velocity": 72}, {"time": 853, "pitch": 70, "duration": 7, "velocity": 70}, {"time": 859, "pitch": 72, "duration": 6, "velocity": 72}, {"time": 865, "pitch": 75, "duration": 6, "velocity": 74}, {"time": 871, "pitch": 72, "duration": 24, "velocity": 98}, {"time": 895, "pitch": 70, "duration": 7, "velocity": 81}, {"time": 901, "pitch": 72, "duration": 6, "velocity": 76}, {"time": 907, "pitch": 72, "duration": 6, "velocity": 90}, {"time": 913, "pitch": 70, "duration": 6, "velocity": 77}, {"time": 919, "pitch": 67, "duration": 24, "velocity": 104}, {"time": 943, "pitch": 72, "duration": 8, "velocity": 83}, {"time": 949, "pitch": 75, "duration": 7, "velocity": 64}, {"time": 955, "pitch": 77, "duration": 6, "velocity": 73}, {"time": 961, "pitch": 79, "duration": 6, "velocity": 85}, {"time": 967, "pitch": 77, "duration": 24, "velocity": 85}, {"time": 991, "pitch": 74, "duration": 6, "velocity": 83}, {"time": 997, "pitch": 74, "duration": 6, "velocity": 108}, {"time": 1003, "pitch": 72, "duration": 6, "velocity": 74}, {"time": 1009, "pitch": 70, "duration": 6, "velocity": 86}, {"time": 1015, "pitch": 72, "duration": 24, "velocity": 108}, {"time": 1039, "pitch": 67, "duration": 7, "velocity": 86}, {"time": 1045, "pitch": 70, "duration": 6, "velocity": 73}, {"time": 1051, "pitch": 72, "duration": 6, "velocity": 74}, {"time": 1057, "pitch": 75, "duration": 6, "velocity": 76}, {"time": 1063, "pitch": 72, "duration": 24, "velocity": 104}, {"time": 1087, "pitch": 70, "duration": 7, "velocity": 75}, {"time": 1093, "pitch": 72, "duration": 6, "velocity": 74}, {"time": 1099, "pitch": 72, "duration": 6, "velocity": 86}, {"time": 1105, "pitch": 70, "duration": 6, "velocity": 74}, {"time": 1111, "pitch": 67, "duration": 24, "velocity": 90}, {"time": 1135, "pitch": 72, "duration": 6, "velocity": 71}, {"time": 1141, "pitch": 75, "duration": 6, "velocity": 74}, {"time": 1147, "pitch": 79, "duration": 6, "velocity": 77}, {"time": 1153, "pitch": 75, "duration": 6, "velocity": 67}, {"time": 1159, "pitch": 77, "duration": 24, "velocity": 98}, {"time": 1183, "pitch": 74, "duration": 6, "velocity": 87}, {"time": 1189, "pitch": 74, "duration": 6, "velocity": 98}, {"time": 1195, "pitch": 72, "duration": 6, "velocity": 76}, {"time": 1201, "pitch": 70, "duration": 6, "velocity": 79}, {"time": 1207, "pitch": 72, "duration": 36, "velocity": 86}, {"time": 1423, "pitch": 72, "duration": 6, "velocity": 85}, {"time": 1429, "pitch": 75, "duration": 6, "velocity": 73}, {"time": 1435, "pitch": 79, "duration": 6, "velocity": 77}, {"time": 1441, "pitch": 75, "duration": 6, "velocity": 75}, {"time": 1447, "pitch": 77, "duration": 24, "velocity": 108}, {"time": 1471, "pitch": 72, "duration": 7, "velocity": 81}, {"time": 1477, "pitch": 75, "duration": 6, "velocity": 61}, {"time": 1483, "pitch": 77, "duration": 6, "velocity": 85}, {"time": 1489, "pitch": 79, "duration": 6, "velocity": 74}, {"time": 1495, "pitch": 72, "duration": 24, "velocity": 87}, {"time": 1519, "pitch": 79, "duration": 6, "velocity": 104}, {"time": 1525, "pitch": 79, "duration": 6, "velocity": 108}, {"time": 1531, "pitch": 79, "duration": 6, "velocity": 112}, {"time": 1537, "pitch": 79, "duration": 6, "velocity": 114}, {"time": 1543, "pitch": 79, "duration": 12, "velocity": 108}, {"time": 1555, "pitch": 75, "duration": 12, "velocity": 87}, {"time": 1567, "pitch": 77, "duration": 6, "velocity": 86}, {"time": 1573, "pitch": 77, "duration": 6, "velocity": 81}, {"time": 1579, "pitch": 77, "duration": 3, "velocity": 87}, {"time": 1582, "pitch": 79, "duration": 9, "velocity": 86}, {"time": 1591, "pitch": 77, "duration": 24, "velocity": 98}, {"time": 1615, "pitch": 72, "duration": 7, "velocity": 100}, {"time": 1621, "pitch": 75, "duration": 6, "velocity": 67}, {"time": 1627, "pitch": 77, "duration": 6, "velocity": 73}, {"time": 1633, "pitch": 79, "duration": 6, "velocity": 93}, {"time": 1639, "pitch": 77, "duration": 24, "velocity": 112}, {"time": 1663, "pitch": 74, "duration": 6, "velocity": 98}, {"time": 1669, "pitch": 74, "duration": 6, "velocity": 100}, {"time": 1675, "pitch": 74, "duration": 6, "velocity": 87}, {"time": 1681, "pitch": 70, "duration": 6, "velocity": 100}, {"time": 1687, "pitch": 67, "duration": 24, "velocity": 111}, {"time": 1711, "pitch": 74, "duration": 6, "velocity": 69}, {"time": 1717, "pitch": 74, "duration": 6, "velocity": 93}, {"time": 1723, "pitch": 74, "duration": 6, "velocity": 98}, {"time": 1729, "pitch": 70, "duration": 6, "velocity": 87}, {"time": 1735, "pitch": 70, "duration": 6, "velocity": 95}, {"time": 1741, "pitch": 67, "duration": 6, "velocity": 95}, {"time": 1747, "pitch": 67, "duration": 6, "velocity": 100}, {"time": 1753, "pitch": 67, "duration": 6, "velocity": 86}, {"time": 1759, "pitch": 70, "duration": 6, "velocity": 95}, {"time": 1765, "pitch": 67, "duration": 6, "velocity": 90}, {"time": 1771, "pitch": 70, "duration": 6, "velocity": 86}, {"time": 1777, "pitch": 74, "duration": 6, "velocity": 111}, {"time": 1783, "pitch": 72, "duration": 53, "velocity": 95}, {"time": 2188, "pitch": 67, "duration": 3, "velocity": 65}, {"time": 2191, "pitch": 67, "duration": 6, "velocity": 72}, {"time": 2197, "pitch": 70, "duration": 7, "velocity": 70}, {"time": 2203, "pitch": 72, "duration": 6, "velocity": 72}, {"time": 2209, "pitch": 75, "duration": 6, "velocity": 74}, {"time": 2215, "pitch": 72, "duration": 21, "velocity": 98}, {"time": 2236, "pitch": 72, "duration": 3, "velocity": 69}, {"time": 2239, "pitch": 72, "duration": 6, "velocity": 77}, {"time": 2245, "pitch": 75, "duration": 6, "velocity": 74}, {"time": 2251, "pitch": 77, "duration": 6, "velocity": 81}, {"time": 2257, "pitch": 79, "duration": 6, "velocity": 98}, {"time": 2263, "pitch": 79, "duration": 24, "velocity": 104}, {"time": 2287, "pitch": 67, "duration": 7, "velocity": 74}, {"time": 2293, "pitch": 70, "duration": 6, "velocity": 68}, {"time": 2299, "pitch": 72, "duration": 7, "velocity": 81}, {"time": 2305, "pitch": 75, "duration": 6, "velocity": 70}, {"time": 2311, "pitch": 72, "duration": 24, "velocity": 79}, {"time": 2335, "pitch": 70, "duration": 7, "velocity": 87}, {"time": 2341, "pitch": 72, "duration": 6, "velocity": 79}, {"time": 2347, "pitch": 72, "duration": 6, "velocity": 95}, {"time": 2353, "pitch": 70, "duration": 6, "velocity": 100}, {"time": 2359, "pitch": 67, "duration": 24, "velocity": 108}, {"time": 2383, "pitch": 67, "duration": 7, "velocity": 86}, {"time": 2389, "pitch": 70, "duration": 6, "velocity": 73}, {"time": 2395, "pitch": 72, "duration": 6, "velocity": 74}, {"time": 2401, "pitch": 75, "duration": 6, "velocity": 76}, {"time": 2407, "pitch": 72, "duration": 24, "velocity": 104}, {"time": 2431, "pitch": 70, "duration": 7, "velocity": 75}, {"time": 2437, "pitch": 72, "duration": 6, "velocity": 74}, {"time": 2443, "pitch": 72, "duration": 6, "velocity": 86}, {"time": 2449, "pitch": 70, "duration": 6, "velocity": 74}, {"time": 2455, "pitch": 67, "duration": 24, "velocity": 90}, {"time": 2479, "pitch": 72, "duration": 6, "velocity": 74}, {"time": 2485, "pitch": 72, "duration": 6, "velocity": 74}, {"time": 2491, "pitch": 75, "duration": 3, "velocity": 76}, {"time": 2494, "pitch": 77, "duration": 6, "velocity": 83}, {"time": 2500, "pitch": 77, "duration": 24, "velocity": 98}, {"time": 2524, "pitch": 74, "duration": 3, "velocity": 85}, {"time": 2527, "pitch": 74, "duration": 6, "velocity": 87}, {"time": 2533, "pitch": 72, "duration": 6, "velocity": 77}, {"time": 2539, "pitch": 70, "duration": 6, "velocity": 76}, {"time": 2545, "pitch": 72, "duration": 6, "velocity": 67}, {"time": 2551, "pitch": 72, "duration": 69, "velocity": 83}, {"time": 2620, "pitch": 67, "duration": 3, "velocity": 65}, {"time": 2623, "pitch": 67, "duration": 6, "velocity": 72}, {"time": 2629, "pitch": 70, "duration": 7, "velocity": 70}, {"time": 2635, "pitch": 72, "duration": 6, "velocity": 72}, {"time": 2641, "pitch": 75, "duration": 6, "velocity": 74}, {"time": 2647, "pitch": 72, "duration": 24, "velocity": 98}, {"time": 2671, "pitch": 70, "duration": 7, "velocity": 81}, {"time": 2677, "pitch": 72, "duration": 6, "velocity": 76}, {"time": 2683, "pitch": 72, "duration": 6, "velocity": 90}, {"time": 2689, "pitch": 70, "duration": 6, "velocity": 77}, {"time": 2695, "pitch": 67, "duration": 24, "velocity": 104}, {"time": 2719, "pitch": 72, "duration": 8, "velocity": 83}, {"time": 2725, "pitch": 75, "duration": 7, "velocity": 64}, {"time": 2731, "pitch": 77, "duration": 6, "velocity": 73}, {"time": 2737, "pitch": 79, "duration": 6, "velocity": 85}, {"time": 2743, "pitch": 77, "duration": 24, "velocity": 85}, {"time": 2767, "pitch": 74, "duration": 6, "velocity": 83}, {"time": 2773, "pitch": 74, "duration": 6, "velocity": 108}, {"time": 2779, "pitch": 72, "duration": 6, "velocity": 74}, {"time": 2785, "pitch": 70, "duration": 6, "velocity": 86}, {"time": 2791, "pitch": 72, "duration": 24, "velocity": 108}, {"time": 2815, "pitch": 67, "duration": 7, "velocity": 86}, {"time": 2821, "pitch": 70, "duration": 6, "velocity": 73}, {"time": 2827, "pitch": 72, "duration": 6, "velocity": 74}, {"time": 2833, "pitch": 75, "duration": 6, "velocity": 76}, {"time": 2839, "pitch": 72, "duration": 24, "velocity": 104}, {"time": 2863, "pitch": 70, "duration": 7, "velocity": 75}, {"time": 2869, "pitch": 72, "duration": 6, "velocity": 74}, {"time": 2875, "pitch": 72, "duration": 6, "velocity": 86}, {"time": 2881, "pitch": 70, "duration": 6, "velocity": 74}, {"time": 2887, "pitch": 67, "duration": 24, "velocity": 90}, {"time": 2911, "pitch": 72, "duration": 6, "velocity": 71}, {"time": 2917, "pitch": 75, "duration": 6, "velocity": 74}, {"time": 2923, "pitch": 79, "duration": 6, "velocity": 77}, {"time": 2929, "pitch": 75, "duration": 6, "velocity": 67}, {"time": 2935, "pitch": 77, "duration": 24, "velocity": 98}, {"time": 2959, "pitch": 74, "duration": 6, "velocity": 87}, {"time": 2965, "pitch": 74, "duration": 6, "velocity": 98}, {"time": 2971, "pitch": 72, "duration": 6, "velocity": 76}, {"time": 2977, "pitch": 70, "duration": 6, "velocity": 79}, {"time": 2983, "pitch": 72, "duration": 37, "velocity": 86}, {"time": 3199, "pitch": 72, "duration": 6, "velocity": 85}, {"time": 3205, "pitch": 75, "duration": 6, "velocity": 73}, {"time": 3211, "pitch": 79, "duration": 6, "velocity": 77}, {"time": 3217, "pitch": 75, "duration": 6, "velocity": 75}, {"time": 3223, "pitch": 77, "duration": 24, "velocity": 108}, {"time": 3247, "pitch": 72, "duration": 7, "velocity": 81}, {"time": 3253, "pitch": 75, "duration": 6, "velocity": 61}, {"time": 3259, "pitch": 77, "duration": 6, "velocity": 85}, {"time": 3265, "pitch": 79, "duration": 6, "velocity": 74}, {"time": 3271, "pitch": 72, "duration": 24, "velocity": 87}, {"time": 3295, "pitch": 79, "duration": 6, "velocity": 104}, {"time": 3301, "pitch": 79, "duration": 6, "velocity": 108}, {"time": 3307, "pitch": 79, "duration": 6, "velocity": 112}, {"time": 3313, "pitch": 79, "duration": 6, "velocity": 114}, {"time": 3319, "pitch": 79, "duration": 12, "velocity": 108}, {"time": 3331, "pitch": 75, "duration": 12, "velocity": 87}, {"time": 3343, "pitch": 77, "duration": 6, "velocity": 86}, {"time": 3349, "pitch": 77, "duration": 6, "velocity": 81}, {"time": 3355, "pitch": 77, "duration": 3, "velocity": 87}, {"time": 3358, "pitch": 79, "duration": 9, "velocity": 86}, {"time": 3367, "pitch": 77, "duration": 24, "velocity": 98}, {"time": 3391, "pitch": 72, "duration": 7, "velocity": 100}, {"time": 3397, "pitch": 75, "duration": 6, "velocity": 67}, {"time": 3403, "pitch": 77, "duration": 6, "velocity": 73}, {"time": 3409, "pitch": 79, "duration": 6, "velocity": 93}, {"time": 3415, "pitch": 77, "duration": 24, "velocity": 112}, {"time": 3439, "pitch": 74, "duration": 6, "velocity": 98}, {"time": 3445, "pitch": 74, "duration": 6, "velocity": 100}, {"time": 3451, "pitch": 74, "duration": 6, "velocity": 87}, {"time": 3457, "pitch": 70, "duration": 6, "velocity": 100}, {"time": 3463, "pitch": 67, "duration": 24, "velocity": 111}, {"time": 3487, "pitch": 74, "duration": 6, "velocity": 69}, {"time": 3493, "pitch": 74, "duration": 6, "velocity": 93}, {"time": 3499, "pitch": 74, "duration": 6, "velocity": 98}, {"time": 3505, "pitch": 70, "duration": 6, "velocity": 87}, {"time": 3511, "pitch": 70, "duration": 6, "velocity": 95}, {"time": 3517, "pitch": 67, "duration": 6, "velocity": 95}, {"time": 3523, "pitch": 67, "duration": 6, "velocity": 100}, {"time": 3529, "pitch": 67, "duration": 6, "velocity": 86}, {"time": 3535, "pitch": 70, "duration": 6, "velocity": 95}, {"time": 3541, "pitch": 67, "duration": 6, "velocity": 90}, {"time": 3547, "pitch": 70, "duration": 6, "velocity": 86}, {"time": 3553, "pitch": 74, "duration": 6, "velocity": 111}, {"time": 3559, "pitch": 72, "duration": 30, "velocity": 95}, {"time": 3583, "pitch": 72, "duration": 6, "velocity": 85}, {"time": 3589, "pitch": 75, "duration": 6, "velocity": 73}, {"time": 3595, "pitch": 79, "duration": 6, "velocity": 77}, {"time": 3601, "pitch": 75, "duration": 6, "velocity": 75}, {"time": 3607, "pitch": 77, "duration": 24, "velocity": 108}, {"time": 3631, "pitch": 72, "duration": 7, "velocity": 81}, {"time": 3637, "pitch": 75, "duration": 6, "velocity": 61}, {"time": 3643, "pitch": 77, "duration": 6, "velocity": 85}, {"time": 3649, "pitch": 79, "duration": 6, "velocity": 74}, {"time": 3655, "pitch": 72, "duration": 24, "velocity": 87}, {"time": 3679, "pitch": 79, "duration": 6, "velocity": 104}, {"time": 3685, "pitch": 79, "duration": 6, "velocity": 108}, {"time": 3691, "pitch": 79, "duration": 6, "velocity": 112}, {"time": 3697, "pitch": 79, "duration": 6, "velocity": 114}, {"time": 3703, "pitch": 79, "duration": 12, "velocity": 108}, {"time": 3715, "pitch": 75, "duration": 12, "velocity": 87}, {"time": 3727, "pitch": 77, "duration": 6, "velocity": 86}, {"time": 3733, "pitch": 77, "duration": 6, "velocity": 81}, {"time": 3739, "pitch": 77, "duration": 3, "velocity": 87}, {"time": 3742, "pitch": 79, "duration": 9, "velocity": 86}, {"time": 3751, "pitch": 77, "duration": 24, "velocity": 98}, {"time": 3775, "pitch": 72, "duration": 7, "velocity": 100}, {"time": 3781, "pitch": 75, "duration": 6, "velocity": 67}, {"time": 3787, "pitch": 77, "duration": 6, "velocity": 73}, {"time": 3793, "pitch": 79, "duration": 6, "velocity": 93}, {"time": 3799, "pitch": 77, "duration": 24, "velocity": 112}, {"time": 3823, "pitch": 74, "duration": 6, "velocity": 98}, {"time": 3829, "pitch": 74, "duration": 6, "velocity": 100}, {"time": 3835, "pitch": 74, "duration": 6, "velocity": 87}, {"time": 3841, "pitch": 70, "duration": 6, "velocity": 100}, {"time": 3847, "pitch": 67, "duration": 24, "velocity": 111}, {"time": 3871, "pitch": 74, "duration": 6, "velocity": 69}, {"time": 3877, "pitch": 74, "duration": 6, "velocity": 93}, {"time": 3883, "pitch": 74, "duration": 6, "velocity": 98}, {"time": 3889, "pitch": 70, "duration": 6, "velocity": 87}, {"time": 3895, "pitch": 70, "duration": 6, "velocity": 95}, {"time": 3901, "pitch": 67, "duration": 6, "velocity": 95}, {"time": 3907, "pitch": 67, "duration": 6, "velocity": 100}, {"time": 3913, "pitch": 67, "duration": 6, "velocity": 86}, {"time": 3919, "pitch": 70, "duration": 6, "velocity": 95}, {"time": 3925, "pitch": 67, "duration": 6, "velocity": 90}, {"time": 3931, "pitch": 70, "duration": 6, "velocity": 86}, {"time": 3937, "pitch": 74, "duration": 6, "velocity": 111}, {"time": 3943, "pitch": 72, "duration": 31, "velocity": 95}, {"time": 3967, "pitch": 72, "duration": 7, "velocity": 100}, {"time": 3973, "pitch": 75, "duration": 6, "velocity": 67}, {"time": 3979, "pitch": 77, "duration": 6, "velocity": 73}, {"time": 3985, "pitch": 79, "duration": 6, "velocity": 93}, {"time": 3991, "pitch": 77, "duration": 24, "velocity": 112}, {"time": 4015, "pitch": 74, "duration": 6, "velocity": 98}, {"time": 4021, "pitch": 74, "duration": 6, "velocity": 100}, {"time": 4027, "pitch": 74, "duration": 6, "velocity": 87}, {"time": 4033, "pitch": 70, "duration": 6, "velocity": 100}, {"time": 4039, "pitch": 67, "duration": 24, "velocity": 111}, {"time": 4063, "pitch": 74, "duration": 6, "velocity": 69}, {"time": 4069, "pitch": 74, "duration": 6, "velocity": 93}, {"time": 4075, "pitch": 74, "duration": 6, "velocity": 98}, {"time": 4081, "pitch": 70, "duration": 6, "velocity": 87}, {"time": 4087, "pitch": 70, "duration": 6, "velocity": 95}, {"time": 4093, "pitch": 67, "duration": 6, "velocity": 67}, {"time": 4093, "pitch": 67, "duration": 6, "velocity": 95}, {"time": 4099, "pitch": 74, "duration": 12, "velocity": 98}, {"time": 4111, "pitch": 79, "duration": 6, "velocity": 111}, {"time": 4117, "pitch": 79, "duration": 6, "velocity": 111}, {"time": 4123, "pitch": 79, "duration": 6, "velocity": 112}, {"time": 4129, "pitch": 82, "duration": 6, "velocity": 117}, {"time": 4135, "pitch": 84, "duration": 29, "velocity": 122}]}, {"program": 0, "is_drum": false, "name": "PIANO", "notes": [{"time": 79, "pitch": 48, "duration": 42, "velocity": 79}, {"time": 85, "pitch": 55, "duration": 38, "velocity": 65}, {"time": 91, "pitch": 63, "duration": 15, "velocity": 63}, {"time": 91, "pitch": 67, "duration": 15, "velocity": 76}, {"time": 91, "pitch": 72, "duration": 15, "velocity": 74}, {"time": 97, "pitch": 60, "duration": 15, "velocity": 59}, {"time": 109, "pitch": 63, "duration": 10, "velocity": 77}, {"time": 109, "pitch": 67, "duration": 10, "velocity": 87}, {"time": 109, "pitch": 72, "duration": 10, "velocity": 83}, {"time": 115, "pitch": 60, "duration": 4, "velocity": 59}, {"time": 121, "pitch": 63, "duration": 13, "velocity": 67}, {"time": 121, "pitch": 67, "duration": 13, "velocity": 63}, {"time": 127, "pitch": 48, "duration": 42, "velocity": 87}, {"time": 127, "pitch": 72, "duration": 8, "velocity": 7}, {"time": 133, "pitch": 55, "duration": 37, "velocity": 69}, {"time": 139, "pitch": 63, "duration": 21, "velocity": 85}, {"time": 139, "pitch": 67, "duration": 21, "velocity": 95}, {"time": 139, "pitch": 72, "duration": 21, "velocity": 85}, {"time": 145, "pitch": 60, "duration": 6, "velocity": 62}, {"time": 157, "pitch": 60, "duration": 7, "velocity": 70}, {"time": 163, "pitch": 63, "duration": 7, "velocity": 93}, {"time": 163, "pitch": 67, "duration": 7, "velocity": 100}, {"time": 163, "pitch": 72, "duration": 7, "velocity": 90}, {"time": 169, "pitch": 60, "duration": 6, "velocity": 64}, {"time": 175, "pitch": 53, "duration": 47, "velocity": 73}, {"time": 181, "pitch": 60, "duration": 41, "velocity": 62}, {"time": 187, "pitch": 68, "duration": 19, "velocity": 90}, {"time": 187, "pitch": 72, "duration": 19, "velocity": 90}, {"time": 193, "pitch": 65, "duration": 7, "velocity": 61}, {"time": 202, "pitch": 56, "duration": 21, "velocity": 46}, {"time": 205, "pitch": 65, "duration": 7, "velocity": 81}, {"time": 211, "pitch": 68, "duration": 10, "velocity": 108}, {"time": 211, "pitch": 72, "duration": 10, "velocity": 95}, {"time": 217, "pitch": 65, "duration": 6, "velocity": 61}, {"time": 223, "pitch": 44, "duration": 43, "velocity": 93}, {"time": 223, "pitch": 60, "duration": 15, "velocity": 81}, {"time": 223, "pitch": 63, "duration": 15, "velocity": 79}, {"time": 229, "pitch": 51, "duration": 42, "velocity": 75}, {"time": 235, "pitch": 56, "duration": 8, "velocity": 60}, {"time": 241, "pitch": 60, "duration": 15, "velocity": 65}, {"time": 241, "pitch": 63, "duration": 16, "velocity": 79}, {"time": 241, "pitch": 68, "duration": 15, "velocity": 74}, {"time": 253, "pitch": 56, "duration": 8, "velocity": 59}, {"time": 259, "pitch": 60, "duration": 8, "velocity": 83}, {"time": 259, "pitch": 63, "duration": 8, "velocity": 93}, {"time": 259, "pitch": 68, "duration": 8, "velocity": 93}, {"time": 265, "pitch": 56, "duration": 5, "velocity": 59}, {"time": 271, "pitch": 46, "duration": 38, "velocity": 81}, {"time": 271, "pitch": 62, "duration": 15, "velocity": 67}, {"time": 271, "pitch": 65, "duration": 15, "velocity": 74}, {"time": 271, "pitch": 70, "duration": 15, "velocity": 59}, {"time": 277, "pitch": 53, "duration": 31, "velocity": 74}, {"time": 283, "pitch": 58, "duration": 8, "velocity": 58}, {"time": 289, "pitch": 62, "duration": 15, "velocity": 73}, {"time": 289, "pitch": 65, "duration": 16, "velocity": 83}, {"time": 289, "pitch": 70, "duration": 16, "velocity": 87}, {"time": 301, "pitch": 58, "duration": 6, "velocity": 63}, {"time": 307, "pitch": 62, "duration": 6, "velocity": 87}, {"time": 307, "pitch": 65, "duration": 5, "velocity": 90}, {"time": 307, "pitch": 70, "duration": 4, "velocity": 85}, {"time": 319, "pitch": 43, "duration": 41, "velocity": 90}, {"time": 319, "pitch": 58, "duration": 15, "velocity": 64}, {"time": 319, "pitch": 62, "duration": 15, "velocity": 72}, {"time": 319, "pitch": 67, "duration": 2, "velocity": 74}, {"time": 325, "pitch": 50, "duration": 36, "velocity": 79}, {"time": 325, "pitch": 67, "duration": 8, "velocity": 10}, {"time": 331, "pitch": 55, "duration": 7, "velocity": 65}, {"time": 337, "pitch": 58, "duration": 15, "velocity": 81}, {"time": 337, "pitch": 62, "duration": 15, "velocity": 93}, {"time": 337, "pitch": 67, "duration": 14, "velocity": 95}, {"time": 349, "pitch": 55, "duration": 7, "velocity": 76}, {"time": 355, "pitch": 58, "duration": 6, "velocity": 83}, {"time": 355, "pitch": 62, "duration": 6, "velocity": 90}, {"time": 361, "pitch": 55, "duration": 5, "velocity": 74}, {"time": 367, "pitch": 48, "duration": 2, "velocity": 67}, {"time": 367, "pitch": 63, "duration": 2, "velocity": 72}, {"time": 367, "pitch": 67, "duration": 2, "velocity": 81}, {"time": 367, "pitch": 72, "duration": 1, "velocity": 63}, {"time": 373, "pitch": 48, "duration": 2, "velocity": 85}, {"time": 373, "pitch": 63, "duration": 1, "velocity": 70}, {"time": 373, "pitch": 67, "duration": 1, "velocity": 93}, {"time": 373, "pitch": 72, "duration": 1, "velocity": 81}, {"time": 379, "pitch": 48, "duration": 2, "velocity": 81}, {"time": 379, "pitch": 63, "duration": 2, "velocity": 74}, {"time": 379, "pitch": 67, "duration": 1, "velocity": 93}, {"time": 379, "pitch": 72, "duration": 1, "velocity": 90}, {"time": 385, "pitch": 46, "duration": 2, "velocity": 81}, {"time": 385, "pitch": 62, "duration": 2, "velocity": 79}, {"time": 385, "pitch": 65, "duration": 1, "velocity": 90}, {"time": 391, "pitch": 48, "duration": 8, "velocity": 76}, {"time": 391, "pitch": 63, "duration": 8, "velocity": 87}, {"time": 391, "pitch": 67, "duration": 8, "velocity": 108}, {"time": 391, "pitch": 72, "duration": 8, "velocity": 98}, {"time": 415, "pitch": 48, "duration": 42, "velocity": 81}, {"time": 421, "pitch": 55, "duration": 37, "velocity": 67}, {"time": 427, "pitch": 60, "duration": 13, "velocity": 60}, {"time": 433, "pitch": 63, "duration": 8, "velocity": 76}, {"time": 439, "pitch": 67, "duration": 10, "velocity": 67}, {"time": 445, "pitch": 60, "duration": 13, "velocity": 61}, {"time": 451, "pitch": 63, "duration": 12, "velocity": 86}, {"time": 457, "pitch": 67, "duration": 6, "velocity": 77}, {"time": 463, "pitch": 51, "duration": 40, "velocity": 86}, {"time": 469, "pitch": 58, "duration": 32, "velocity": 59}, {"time": 475, "pitch": 63, "duration": 13, "velocity": 74}, {"time": 481, "pitch": 67, "duration": 7, "velocity": 77}, {"time": 487, "pitch": 70, "duration": 13, "velocity": 90}, {"time": 493, "pitch": 63, "duration": 7, "velocity": 71}, {"time": 499, "pitch": 67, "duration": 7, "velocity": 70}, {"time": 505, "pitch": 70, "duration": 6, "velocity": 87}, {"time": 511, "pitch": 44, "duration": 43, "velocity": 77}, {"time": 517, "pitch": 51, "duration": 36, "velocity": 79}, {"time": 523, "pitch": 56, "duration": 13, "velocity": 76}, {"time": 529, "pitch": 60, "duration": 7, "velocity": 68}, {"time": 535, "pitch": 63, "duration": 13, "velocity": 81}, {"time": 541, "pitch": 56, "duration": 11, "velocity": 65}, {"time": 547, "pitch": 60, "duration": 7, "velocity": 75}, {"time": 553, "pitch": 63, "duration": 7, "velocity": 77}, {"time": 559, "pitch": 43, "duration": 41, "velocity": 83}, {"time": 565, "pitch": 50, "duration": 35, "velocity": 76}, {"time": 571, "pitch": 58, "duration": 7, "velocity": 64}, {"time": 577, "pitch": 62, "duration": 10, "velocity": 70}, {"time": 583, "pitch": 55, "duration": 8, "velocity": 58}, {"time": 589, "pitch": 58, "duration": 13, "velocity": 65}, {"time": 595, "pitch": 55, "duration": 7, "velocity": 81}, {"time": 601, "pitch": 62, "duration": 6, "velocity": 85}, {"time": 607, "pitch": 48, "duration": 43, "velocity": 73}, {"time": 613, "pitch": 55, "duration": 38, "velocity": 69}, {"time": 619, "pitch": 60, "duration": 13, "velocity": 85}, {"time": 625, "pitch": 63, "duration": 14, "velocity": 72}, {"time": 631, "pitch": 51, "duration": 19, "velocity": 90}, {"time": 637, "pitch": 60, "duration": 14, "velocity": 83}, {"time": 643, "pitch": 63, "duration": 7, "velocity": 90}, {"time": 649, "pitch": 67, "duration": 5, "velocity": 86}, {"time": 655, "pitch": 51, "duration": 44, "velocity": 85}, {"time": 661, "pitch": 58, "duration": 36, "velocity": 65}, {"time": 667, "pitch": 63, "duration": 11, "velocity": 70}, {"time": 673, "pitch": 67, "duration": 19, "velocity": 83}, {"time": 679, "pitch": 55, "duration": 19, "velocity": 71}, {"time": 685, "pitch": 63, "duration": 10, "velocity": 83}, {"time": 691, "pitch": 70, "duration": 6, "velocity": 111}, {"time": 697, "pitch": 67, "duration": 6, "velocity": 95}, {"time": 703, "pitch": 53, "duration": 38, "velocity": 100}, {"time": 709, "pitch": 60, "duration": 31, "velocity": 73}, {"time": 715, "pitch": 65, "duration": 13, "velocity": 64}, {"time": 721, "pitch": 67, "duration": 7, "velocity": 85}, {"time": 727, "pitch": 68, "duration": 12, "velocity": 120}, {"time": 733, "pitch": 65, "duration": 5, "velocity": 68}, {"time": 739, "pitch": 67, "duration": 11, "velocity": 81}, {"time": 751, "pitch": 43, "duration": 13, "velocity": 79}, {"time": 757, "pitch": 50, "duration": 9, "velocity": 95}, {"time": 763, "pitch": 58, "duration": 7, "velocity": 70}, {"time": 769, "pitch": 60, "duration": 5, "velocity": 68}, {"time": 775, "pitch": 48, "duration": 24, "velocity": 85}, {"time": 781, "pitch": 55, "duration": 18, "velocity": 65}, {"time": 787, "pitch": 60, "duration": 12, "velocity": 73}, {"time": 793, "pitch": 62, "duration": 7, "velocity": 77}, {"time": 799, "pitch": 51, "duration": 6, "velocity": 69}, {"time": 805, "pitch": 48, "duration": 5, "velocity": 81}, {"time": 811, "pitch": 46, "duration": 8, "velocity": 73}, {"time": 817, "pitch": 43, "duration": 5, "velocity": 90}, {"time": 823, "pitch": 46, "duration": 4, "velocity": 87}, {"time": 829, "pitch": 43, "duration": 6, "velocity": 98}, {"time": 835, "pitch": 41, "duration": 5, "velocity": 104}, {"time": 841, "pitch": 39, "duration": 6, "velocity": 114}, {"time": 847, "pitch": 48, "duration": 42, "velocity": 86}, {"time": 853, "pitch": 55, "duration": 37, "velocity": 75}, {"time": 859, "pitch": 63, "duration": 21, "velocity": 83}, {"time": 865, "pitch": 67, "duration": 15, "velocity": 76}, {"time": 871, "pitch": 60, "duration": 6, "velocity": 59}, {"time": 880, "pitch": 60, "duration": 2, "velocity": 50}, {"time": 883, "pitch": 63, "duration": 7, "velocity": 81}, {"time": 883, "pitch": 67, "duration": 7, "velocity": 87}, {"time": 883, "pitch": 72, "duration": 7, "velocity": 73}, {"time": 889, "pitch": 60, "duration": 5, "velocity": 63}, {"time": 895, "pitch": 51, "duration": 40, "velocity": 86}, {"time": 895, "pitch": 67, "duration": 15, "velocity": 83}, {"time": 895, "pitch": 70, "duration": 15, "velocity": 79}, {"time": 901, "pitch": 58, "duration": 32, "velocity": 64}, {"time": 907, "pitch": 63, "duration": 9, "velocity": 60}, {"time": 913, "pitch": 67, "duration": 14, "velocity": 76}, {"time": 913, "pitch": 70, "duration": 14, "velocity": 93}, {"time": 913, "pitch": 75, "duration": 14, "velocity": 79}, {"time": 919, "pitch": 63, "duration": 10, "velocity": 63}, {"time": 931, "pitch": 67, "duration": 6, "velocity": 87}, {"time": 931, "pitch": 70, "duration": 6, "velocity": 85}, {"time": 931, "pitch": 75, "duration": 6, "velocity": 83}, {"time": 943, "pitch": 44, "duration": 42, "velocity": 86}, {"time": 943, "pitch": 60, "duration": 15, "velocity": 67}, {"time": 943, "pitch": 63, "duration": 15, "velocity": 76}, {"time": 949, "pitch": 51, "duration": 34, "velocity": 86}, {"time": 949, "pitch": 68, "duration": 9, "velocity": 10}, {"time": 955, "pitch": 56, "duration": 8, "velocity": 63}, {"time": 961, "pitch": 60, "duration": 16, "velocity": 86}, {"time": 961, "pitch": 63, "duration": 16, "velocity": 86}, {"time": 961, "pitch": 68, "duration": 16, "velocity": 95}, {"time": 973, "pitch": 56, "duration": 7, "velocity": 68}, {"time": 979, "pitch": 60, "duration": 5, "velocity": 90}, {"time": 979, "pitch": 63, "duration": 5, "velocity": 93}, {"time": 979, "pitch": 68, "duration": 5, "velocity": 95}, {"time": 991, "pitch": 43, "duration": 19, "velocity": 75}, {"time": 991, "pitch": 58, "duration": 14, "velocity": 73}, {"time": 991, "pitch": 62, "duration": 14, "velocity": 81}, {"time": 997, "pitch": 50, "duration": 14, "velocity": 70}, {"time": 1003, "pitch": 55, "duration": 8, "velocity": 72}, {"time": 1009, "pitch": 58, "duration": 6, "velocity": 71}, {"time": 1009, "pitch": 62, "duration": 5, "velocity": 81}, {"time": 1009, "pitch": 67, "duration": 6, "velocity": 79}, {"time": 1015, "pitch": 48, "duration": 22, "velocity": 76}, {"time": 1021, "pitch": 55, "duration": 16, "velocity": 76}, {"time": 1027, "pitch": 63, "duration": 8, "velocity": 93}, {"time": 1027, "pitch": 67, "duration": 8, "velocity": 85}, {"time": 1027, "pitch": 72, "duration": 7, "velocity": 74}, {"time": 1033, "pitch": 60, "duration": 4, "velocity": 72}, {"time": 1039, "pitch": 48, "duration": 42, "velocity": 87}, {"time": 1039, "pitch": 63, "duration": 15, "velocity": 77}, {"time": 1039, "pitch": 67, "duration": 15, "velocity": 86}, {"time": 1039, "pitch": 72, "duration": 15, "velocity": 83}, {"time": 1045, "pitch": 55, "duration": 37, "velocity": 67}, {"time": 1051, "pitch": 60, "duration": 9, "velocity": 64}, {"time": 1057, "pitch": 63, "duration": 15, "velocity": 76}, {"time": 1057, "pitch": 67, "duration": 16, "velocity": 86}, {"time": 1057, "pitch": 72, "duration": 16, "velocity": 86}, {"time": 1069, "pitch": 60, "duration": 7, "velocity": 59}, {"time": 1075, "pitch": 63, "duration": 6, "velocity": 86}, {"time": 1075, "pitch": 67, "duration": 6, "velocity": 86}, {"time": 1075, "pitch": 72, "duration": 7, "velocity": 81}, {"time": 1081, "pitch": 60, "duration": 6, "velocity": 61}, {"time": 1087, "pitch": 51, "duration": 42, "velocity": 95}, {"time": 1087, "pitch": 67, "duration": 14, "velocity": 83}, {"time": 1087, "pitch": 70, "duration": 14, "velocity": 93}, {"time": 1087, "pitch": 75, "duration": 14, "velocity": 87}, {"time": 1093, "pitch": 58, "duration": 42, "velocity": 60}, {"time": 1099, "pitch": 63, "duration": 10, "velocity": 60}, {"time": 1105, "pitch": 67, "duration": 15, "velocity": 86}, {"time": 1105, "pitch": 70, "duration": 15, "velocity": 87}, {"time": 1105, "pitch": 75, "duration": 15, "velocity": 85}, {"time": 1117, "pitch": 63, "duration": 8, "velocity": 61}, {"time": 1123, "pitch": 67, "duration": 7, "velocity": 93}, {"time": 1123, "pitch": 70, "duration": 7, "velocity": 90}, {"time": 1123, "pitch": 75, "duration": 8, "velocity": 79}, {"time": 1129, "pitch": 63, "duration": 6, "velocity": 65}, {"time": 1135, "pitch": 53, "duration": 41, "velocity": 85}, {"time": 1135, "pitch": 68, "duration": 16, "velocity": 90}, {"time": 1141, "pitch": 60, "duration": 31, "velocity": 63}, {"time": 1147, "pitch": 65, "duration": 7, "velocity": 64}, {"time": 1153, "pitch": 68, "duration": 13, "velocity": 72}, {"time": 1153, "pitch": 72, "duration": 13, "velocity": 67}, {"time": 1159, "pitch": 65, "duration": 6, "velocity": 59}, {"time": 1165, "pitch": 56, "duration": 10, "velocity": 55}, {"time": 1171, "pitch": 68, "duration": 12, "velocity": 104}, {"time": 1177, "pitch": 72, "duration": 6, "velocity": 74}, {"time": 1183, "pitch": 43, "duration": 13, "velocity": 86}, {"time": 1189, "pitch": 50, "duration": 9, "velocity": 83}, {"time": 1195, "pitch": 58, "duration": 7, "velocity": 81}, {"time": 1201, "pitch": 62, "duration": 6, "velocity": 68}, {"time": 1207, "pitch": 48, "duration": 21, "velocity": 85}, {"time": 1213, "pitch": 55, "duration": 18, "velocity": 69}, {"time": 1219, "pitch": 60, "duration": 12, "velocity": 71}, {"time": 1225, "pitch": 62, "duration": 7, "velocity": 75}, {"time": 1231, "pitch": 48, "duration": 46, "velocity": 95}, {"time": 1231, "pitch": 63, "duration": 11, "velocity": 98}, {"time": 1237, "pitch": 55, "duration": 40, "velocity": 74}, {"time": 1237, "pitch": 60, "duration": 6, "velocity": 63}, {"time": 1243, "pitch": 67, "duration": 11, "velocity": 98}, {"time": 1246, "pitch": 63, "duration": 7, "velocity": 38}, {"time": 1249, "pitch": 60, "duration": 9, "velocity": 63}, {"time": 1255, "pitch": 63, "duration": 10, "velocity": 61}, {"time": 1255, "pitch": 67, "duration": 10, "velocity": 70}, {"time": 1261, "pitch": 60, "duration": 15, "velocity": 67}, {"time": 1267, "pitch": 63, "duration": 11, "velocity": 73}, {"time": 1267, "pitch": 67, "duration": 11, "velocity": 86}, {"time": 1279, "pitch": 53, "duration": 40, "velocity": 81}, {"time": 1279, "pitch": 68, "duration": 15, "velocity": 87}, {"time": 1285, "pitch": 60, "duration": 33, "velocity": 60}, {"time": 1291, "pitch": 65, "duration": 8, "velocity": 59}, {"time": 1297, "pitch": 68, "duration": 17, "velocity": 83}, {"time": 1297, "pitch": 72, "duration": 17, "velocity": 81}, {"time": 1306, "pitch": 65, "duration": 3, "velocity": 59}, {"time": 1309, "pitch": 65, "duration": 1, "velocity": 65}, {"time": 1315, "pitch": 68, "duration": 6, "velocity": 76}, {"time": 1315, "pitch": 72, "duration": 5, "velocity": 83}, {"time": 1327, "pitch": 46, "duration": 42, "velocity": 75}, {"time": 1327, "pitch": 62, "duration": 10, "velocity": 68}, {"time": 1327, "pitch": 65, "duration": 10, "velocity": 70}, {"time": 1333, "pitch": 53, "duration": 41, "velocity": 73}, {"time": 1339, "pitch": 62, "duration": 10, "velocity": 59}, {"time": 1339, "pitch": 65, "duration": 10, "velocity": 54}, {"time": 1339, "pitch": 70, "duration": 10, "velocity": 66}, {"time": 1345, "pitch": 58, "duration": 8, "velocity": 56}, {"time": 1351, "pitch": 62, "duration": 9, "velocity": 63}, {"time": 1351, "pitch": 65, "duration": 9, "velocity": 67}, {"time": 1351, "pitch": 70, "duration": 10, "velocity": 74}, {"time": 1357, "pitch": 58, "duration": 6, "velocity": 59}, {"time": 1363, "pitch": 62, "duration": 6, "velocity": 74}, {"time": 1363, "pitch": 65, "duration": 6, "velocity": 93}, {"time": 1363, "pitch": 70, "duration": 6, "velocity": 93}, {"time": 1369, "pitch": 58, "duration": 5, "velocity": 63}, {"time": 1372, "pitch": 63, "duration": 1, "velocity": 47}, {"time": 1375, "pitch": 48, "duration": 43, "velocity": 79}, {"time": 1375, "pitch": 63, "duration": 35, "velocity": 86}, {"time": 1381, "pitch": 55, "duration": 39, "velocity": 67}, {"time": 1387, "pitch": 60, "duration": 12, "velocity": 66}, {"time": 1393, "pitch": 67, "duration": 14, "velocity": 76}, {"time": 1399, "pitch": 51, "duration": 18, "velocity": 61}, {"time": 1399, "pitch": 72, "duration": 8, "velocity": 70}, {"time": 1405, "pitch": 60, "duration": 7, "velocity": 71}, {"time": 1408, "pitch": 72, "duration": 1, "velocity": 40}, {"time": 1411, "pitch": 63, "duration": 10, "velocity": 61}, {"time": 1411, "pitch": 67, "duration": 10, "velocity": 71}, {"time": 1411, "pitch": 72, "duration": 7, "velocity": 70}, {"time": 1423, "pitch": 48, "duration": 22, "velocity": 79}, {"time": 1423, "pitch": 63, "duration": 15, "velocity": 76}, {"time": 1423, "pitch": 67, "duration": 15, "velocity": 85}, {"time": 1423, "pitch": 72, "duration": 15, "velocity": 81}, {"time": 1429, "pitch": 55, "duration": 14, "velocity": 70}, {"time": 1435, "pitch": 60, "duration": 7, "velocity": 66}, {"time": 1441, "pitch": 63, "duration": 2, "velocity": 72}, {"time": 1441, "pitch": 67, "duration": 2, "velocity": 79}, {"time": 1441, "pitch": 72, "duration": 1, "velocity": 73}, {"time": 1447, "pitch": 46, "duration": 21, "velocity": 72}, {"time": 1447, "pitch": 62, "duration": 16, "velocity": 74}, {"time": 1447, "pitch": 65, "duration": 16, "velocity": 81}, {"time": 1447, "pitch": 70, "duration": 16, "velocity": 87}, {"time": 1453, "pitch": 53, "duration": 14, "velocity": 75}, {"time": 1459, "pitch": 58, "duration": 7, "velocity": 62}, {"time": 1465, "pitch": 62, "duration": 2, "velocity": 59}, {"time": 1465, "pitch": 65, "duration": 1, "velocity": 63}, {"time": 1465, "pitch": 70, "duration": 1, "velocity": 64}, {"time": 1471, "pitch": 44, "duration": 19, "velocity": 74}, {"time": 1471, "pitch": 60, "duration": 14, "velocity": 75}, {"time": 1471, "pitch": 63, "duration": 14, "velocity": 83}, {"time": 1471, "pitch": 68, "duration": 14, "velocity": 87}, {"time": 1477, "pitch": 51, "duration": 14, "velocity": 90}, {"time": 1483, "pitch": 56, "duration": 12, "velocity": 73}, {"time": 1489, "pitch": 60, "duration": 2, "velocity": 63}, {"time": 1489, "pitch": 63, "duration": 2, "velocity": 65}, {"time": 1489, "pitch": 68, "duration": 2, "velocity": 64}, {"time": 1495, "pitch": 48, "duration": 21, "velocity": 74}, {"time": 1495, "pitch": 63, "duration": 15, "velocity": 64}, {"time": 1495, "pitch": 67, "duration": 15, "velocity": 73}, {"time": 1495, "pitch": 72, "duration": 15, "velocity": 67}, {"time": 1501, "pitch": 55, "duration": 16, "velocity": 63}, {"time": 1507, "pitch": 60, "duration": 9, "velocity": 61}, {"time": 1513, "pitch": 63, "duration": 2, "velocity": 57}, {"time": 1513, "pitch": 67, "duration": 2, "velocity": 49}, {"time": 1513, "pitch": 72, "duration": 2, "velocity": 49}, {"time": 1519, "pitch": 51, "duration": 44, "velocity": 104}, {"time": 1525, "pitch": 58, "duration": 39, "velocity": 62}, {"time": 1525, "pitch": 67, "duration": 1, "velocity": 45}, {"time": 1531, "pitch": 67, "duration": 9, "velocity": 83}, {"time": 1531, "pitch": 70, "duration": 9, "velocity": 85}, {"time": 1531, "pitch": 75, "duration": 9, "velocity": 77}, {"time": 1537, "pitch": 63, "duration": 9, "velocity": 60}, {"time": 1543, "pitch": 67, "duration": 10, "velocity": 83}, {"time": 1543, "pitch": 70, "duration": 10, "velocity": 86}, {"time": 1543, "pitch": 75, "duration": 10, "velocity": 76}, {"time": 1549, "pitch": 63, "duration": 13, "velocity": 64}, {"time": 1555, "pitch": 67, "duration": 10, "velocity": 98}, {"time": 1555, "pitch": 70, "duration": 11, "velocity": 90}, {"time": 1555, "pitch": 75, "duration": 10, "velocity": 93}, {"time": 1567, "pitch": 53, "duration": 15, "velocity": 93}, {"time": 1567, "pitch": 68, "duration": 10, "velocity": 70}, {"time": 1567, "pitch": 72, "duration": 10, "velocity": 81}, {"time": 1570, "pitch": 60, "duration": 8, "velocity": 60}, {"time": 1579, "pitch": 68, "duration": 4, "velocity": 62}, {"time": 1579, "pitch": 72, "duration": 4, "velocity": 72}, {"time": 1591, "pitch": 46, "duration": 19, "velocity": 81}, {"time": 1591, "pitch": 62, "duration": 10, "velocity": 71}, {"time": 1591, "pitch": 65, "duration": 10, "velocity": 77}, {"time": 1591, "pitch": 70, "duration": 10, "velocity": 83}, {"time": 1597, "pitch": 53, "duration": 13, "velocity": 81}, {"time": 1603, "pitch": 62, "duration": 7, "velocity": 90}, {"time": 1603, "pitch": 65, "duration": 7, "velocity": 87}, {"time": 1603, "pitch": 70, "duration": 7, "velocity": 98}, {"time": 1609, "pitch": 58, "duration": 4, "velocity": 60}, {"time": 1615, "pitch": 48, "duration": 21, "velocity": 85}, {"time": 1615, "pitch": 63, "duration": 9, "velocity": 72}, {"time": 1615, "pitch": 67, "duration": 10, "velocity": 81}, {"time": 1615, "pitch": 72, "duration": 10, "velocity": 76}, {"time": 1621, "pitch": 55, "duration": 15, "velocity": 69}, {"time": 1627, "pitch": 63, "duration": 7, "velocity": 90}, {"time": 1627, "pitch": 67, "duration": 6, "velocity": 98}, {"time": 1627, "pitch": 72, "duration": 6, "velocity": 95}, {"time": 1633, "pitch": 60, "duration": 3, "velocity": 59}, {"time": 1639, "pitch": 46, "duration": 21, "velocity": 70}, {"time": 1639, "pitch": 62, "duration": 11, "velocity": 67}, {"time": 1639, "pitch": 65, "duration": 11, "velocity": 74}, {"time": 1639, "pitch": 70, "duration": 11, "velocity": 79}, {"time": 1645, "pitch": 53, "duration": 14, "velocity": 73}, {"time": 1651, "pitch": 62, "duration": 6, "velocity": 79}, {"time": 1651, "pitch": 65, "duration": 6, "velocity": 87}, {"time": 1651, "pitch": 70, "duration": 6, "velocity": 95}, {"time": 1657, "pitch": 58, "duration": 2, "velocity": 58}, {"time": 1663, "pitch": 43, "duration": 40, "velocity": 83}, {"time": 1663, "pitch": 58, "duration": 10, "velocity": 61}, {"time": 1663, "pitch": 62, "duration": 10, "velocity": 75}, {"time": 1663, "pitch": 67, "duration": 10, "velocity": 72}, {"time": 1669, "pitch": 50, "duration": 35, "velocity": 74}, {"time": 1675, "pitch": 58, "duration": 9, "velocity": 70}, {"time": 1675, "pitch": 62, "duration": 9, "velocity": 81}, {"time": 1675, "pitch": 67, "duration": 9, "velocity": 83}, {"time": 1681, "pitch": 55, "duration": 7, "velocity": 61}, {"time": 1687, "pitch": 58, "duration": 10, "velocity": 76}, {"time": 1687, "pitch": 62, "duration": 10, "velocity": 90}, {"time": 1687, "pitch": 67, "duration": 10, "velocity": 100}, {"time": 1693, "pitch": 55, "duration": 7, "velocity": 58}, {"time": 1699, "pitch": 58, "duration": 6, "velocity": 69}, {"time": 1699, "pitch": 62, "duration": 5, "velocity": 83}, {"time": 1699, "pitch": 67, "duration": 5, "velocity": 83}, {"time": 1702, "pitch": 55, "duration": 1, "velocity": 46}, {"time": 1711, "pitch": 43, "duration": 6, "velocity": 51}, {"time": 1711, "pitch": 50, "duration": 6, "velocity": 90}, {"time": 1711, "pitch": 55, "duration": 6, "velocity": 65}, {"time": 1711, "pitch": 58, "duration": 6, "velocity": 69}, {"time": 1711, "pitch": 62, "duration": 6, "velocity": 74}, {"time": 1711, "pitch": 67, "duration": 6, "velocity": 81}, {"time": 1729, "pitch": 46, "duration": 1, "velocity": 64}, {"time": 1729, "pitch": 53, "duration": 1, "velocity": 74}, {"time": 1729, "pitch": 58, "duration": 1, "velocity": 58}, {"time": 1729, "pitch": 62, "duration": 2, "velocity": 77}, {"time": 1729, "pitch": 65, "duration": 1, "velocity": 86}, {"time": 1729, "pitch": 70, "duration": 1, "velocity": 90}, {"time": 1735, "pitch": 46, "duration": 4, "velocity": 81}, {"time": 1735, "pitch": 53, "duration": 4, "velocity": 81}, {"time": 1735, "pitch": 58, "duration": 4, "velocity": 67}, {"time": 1735, "pitch": 62, "duration": 4, "velocity": 87}, {"time": 1735, "pitch": 65, "duration": 4, "velocity": 95}, {"time": 1735, "pitch": 70, "duration": 4, "velocity": 104}, {"time": 1759, "pitch": 46, "duration": 19, "velocity": 68}, {"time": 1759, "pitch": 53, "duration": 18, "velocity": 100}, {"time": 1759, "pitch": 58, "duration": 19, "velocity": 59}, {"time": 1759, "pitch": 62, "duration": 18, "velocity": 67}, {"time": 1759, "pitch": 65, "duration": 18, "velocity": 70}, {"time": 1759, "pitch": 70, "duration": 18, "velocity": 76}, {"time": 1783, "pitch": 48, "duration": 2, "velocity": 72}, {"time": 1783, "pitch": 63, "duration": 2, "velocity": 73}, {"time": 1783, "pitch": 67, "duration": 2, "velocity": 67}, {"time": 1783, "pitch": 72, "duration": 2, "velocity": 66}, {"time": 1789, "pitch": 48, "duration": 2, "velocity": 83}, {"time": 1789, "pitch": 63, "duration": 2, "velocity": 79}, {"time": 1789, "pitch": 67, "duration": 2, "velocity": 93}, {"time": 1789, "pitch": 72, "duration": 2, "velocity": 87}, {"time": 1795, "pitch": 48, "duration": 2, "velocity": 83}, {"time": 1795, "pitch": 63, "duration": 2, "velocity": 79}, {"time": 1795, "pitch": 67, "duration": 2, "velocity": 93}, {"time": 1795, "pitch": 72, "duration": 2, "velocity": 83}, {"time": 1801, "pitch": 48, "duration": 2, "velocity": 98}, {"time": 1801, "pitch": 63, "duration": 2, "velocity": 75}, {"time": 1801, "pitch": 67, "duration": 1, "velocity": 87}, {"time": 1801, "pitch": 72, "duration": 1, "velocity": 77}, {"time": 1807, "pitch": 48, "duration": 24, "velocity": 104}, {"time": 1807, "pitch": 63, "duration": 22, "velocity": 100}, {"time": 1807, "pitch": 67, "duration": 22, "velocity": 112}, {"time": 1807, "pitch": 72, "duration": 22, "velocity": 108}, {"time": 1819, "pitch": 55, "duration": 12, "velocity": 75}, {"time": 1825, "pitch": 60, "duration": 7, "velocity": 66}, {"time": 1855, "pitch": 48, "duration": 42, "velocity": 79}, {"time": 1861, "pitch": 55, "duration": 38, "velocity": 65}, {"time": 1867, "pitch": 63, "duration": 15, "velocity": 63}, {"time": 1867, "pitch": 67, "duration": 15, "velocity": 76}, {"time": 1867, "pitch": 72, "duration": 15, "velocity": 74}, {"time": 1873, "pitch": 60, "duration": 15, "velocity": 59}, {"time": 1885, "pitch": 63, "duration": 10, "velocity": 77}, {"time": 1885, "pitch": 67, "duration": 10, "velocity": 87}, {"time": 1885, "pitch": 72, "duration": 10, "velocity": 83}, {"time": 1891, "pitch": 60, "duration": 4, "velocity": 59}, {"time": 1897, "pitch": 63, "duration": 13, "velocity": 67}, {"time": 1897, "pitch": 67, "duration": 13, "velocity": 63}, {"time": 1903, "pitch": 48, "duration": 42, "velocity": 87}, {"time": 1903, "pitch": 72, "duration": 8, "velocity": 7}, {"time": 1909, "pitch": 55, "duration": 37, "velocity": 69}, {"time": 1915, "pitch": 63, "duration": 21, "velocity": 85}, {"time": 1915, "pitch": 67, "duration": 21, "velocity": 95}, {"time": 1915, "pitch": 72, "duration": 21, "velocity": 85}, {"time": 1921, "pitch": 60, "duration": 6, "velocity": 62}, {"time": 1933, "pitch": 60, "duration": 7, "velocity": 70}, {"time": 1939, "pitch": 63, "duration": 7, "velocity": 93}, {"time": 1939, "pitch": 67, "duration": 7, "velocity": 100}, {"time": 1939, "pitch": 72, "duration": 7, "velocity": 90}, {"time": 1945, "pitch": 60, "duration": 6, "velocity": 64}, {"time": 1951, "pitch": 53, "duration": 47, "velocity": 73}, {"time": 1957, "pitch": 60, "duration": 41, "velocity": 62}, {"time": 1963, "pitch": 68, "duration": 19, "velocity": 90}, {"time": 1963, "pitch": 72, "duration": 19, "velocity": 90}, {"time": 1969, "pitch": 65, "duration": 7, "velocity": 61}, {"time": 1978, "pitch": 56, "duration": 21, "velocity": 46}, {"time": 1981, "pitch": 65, "duration": 7, "velocity": 81}, {"time": 1987, "pitch": 68, "duration": 10, "velocity": 108}, {"time": 1987, "pitch": 72, "duration": 10, "velocity": 95}, {"time": 1993, "pitch": 65, "duration": 6, "velocity": 61}, {"time": 1999, "pitch": 44, "duration": 43, "velocity": 93}, {"time": 1999, "pitch": 60, "duration": 15, "velocity": 81}, {"time": 1999, "pitch": 63, "duration": 15, "velocity": 79}, {"time": 2005, "pitch": 51, "duration": 42, "velocity": 75}, {"time": 2011, "pitch": 56, "duration": 8, "velocity": 60}, {"time": 2017, "pitch": 60, "duration": 15, "velocity": 65}, {"time": 2017, "pitch": 63, "duration": 16, "velocity": 79}, {"time": 2017, "pitch": 68, "duration": 15, "velocity": 74}, {"time": 2029, "pitch": 56, "duration": 8, "velocity": 59}, {"time": 2035, "pitch": 60, "duration": 8, "velocity": 83}, {"time": 2035, "pitch": 63, "duration": 8, "velocity": 93}, {"time": 2035, "pitch": 68, "duration": 8, "velocity": 93}, {"time": 2041, "pitch": 56, "duration": 5, "velocity": 59}, {"time": 2047, "pitch": 46, "duration": 38, "velocity": 81}, {"time": 2047, "pitch": 62, "duration": 15, "velocity": 67}, {"time": 2047, "pitch": 65, "duration": 15, "velocity": 74}, {"time": 2047, "pitch": 70, "duration": 15, "velocity": 59}, {"time": 2053, "pitch": 53, "duration": 31, "velocity": 74}, {"time": 2059, "pitch": 58, "duration": 8, "velocity": 58}, {"time": 2065, "pitch": 62, "duration": 15, "velocity": 73}, {"time": 2065, "pitch": 65, "duration": 16, "velocity": 83}, {"time": 2065, "pitch": 70, "duration": 16, "velocity": 87}, {"time": 2077, "pitch": 58, "duration": 6, "velocity": 63}, {"time": 2083, "pitch": 62, "duration": 6, "velocity": 87}, {"time": 2083, "pitch": 65, "duration": 5, "velocity": 90}, {"time": 2083, "pitch": 70, "duration": 4, "velocity": 85}, {"time": 2095, "pitch": 43, "duration": 41, "velocity": 90}, {"time": 2095, "pitch": 58, "duration": 15, "velocity": 64}, {"time": 2095, "pitch": 62, "duration": 15, "velocity": 72}, {"time": 2095, "pitch": 67, "duration": 2, "velocity": 74}, {"time": 2101, "pitch": 50, "duration": 36, "velocity": 79}, {"time": 2101, "pitch": 67, "duration": 8, "velocity": 10}, {"time": 2107, "pitch": 55, "duration": 7, "velocity": 65}, {"time": 2113, "pitch": 58, "duration": 15, "velocity": 81}, {"time": 2113, "pitch": 62, "duration": 15, "velocity": 93}, {"time": 2113, "pitch": 67, "duration": 14, "velocity": 95}, {"time": 2125, "pitch": 55, "duration": 7, "velocity": 76}, {"time": 2131, "pitch": 58, "duration": 6, "velocity": 83}, {"time": 2131, "pitch": 62, "duration": 6, "velocity": 90}, {"time": 2137, "pitch": 55, "duration": 5, "velocity": 74}, {"time": 2143, "pitch": 48, "duration": 2, "velocity": 67}, {"time": 2143, "pitch": 63, "duration": 2, "velocity": 72}, {"time": 2143, "pitch": 67, "duration": 2, "velocity": 81}, {"time": 2143, "pitch": 72, "duration": 1, "velocity": 63}, {"time": 2149, "pitch": 48, "duration": 2, "velocity": 85}, {"time": 2149, "pitch": 63, "duration": 1, "velocity": 70}, {"time": 2149, "pitch": 67, "duration": 1, "velocity": 93}, {"time": 2149, "pitch": 72, "duration": 1, "velocity": 81}, {"time": 2155, "pitch": 48, "duration": 2, "velocity": 81}, {"time": 2155, "pitch": 63, "duration": 2, "velocity": 74}, {"time": 2155, "pitch": 67, "duration": 1, "velocity": 93}, {"time": 2155, "pitch": 72, "duration": 1, "velocity": 90}, {"time": 2161, "pitch": 46, "duration": 2, "velocity": 81}, {"time": 2161, "pitch": 62, "duration": 2, "velocity": 79}, {"time": 2161, "pitch": 65, "duration": 1, "velocity": 90}, {"time": 2167, "pitch": 48, "duration": 8, "velocity": 76}, {"time": 2167, "pitch": 63, "duration": 8, "velocity": 87}, {"time": 2167, "pitch": 67, "duration": 8, "velocity": 108}, {"time": 2167, "pitch": 72, "duration": 8, "velocity": 98}, {"time": 2191, "pitch": 48, "duration": 42, "velocity": 81}, {"time": 2197, "pitch": 55, "duration": 37, "velocity": 67}, {"time": 2203, "pitch": 60, "duration": 13, "velocity": 60}, {"time": 2209, "pitch": 63, "duration": 8, "velocity": 76}, {"time": 2215, "pitch": 67, "duration": 10, "velocity": 67}, {"time": 2221, "pitch": 60, "duration": 13, "velocity": 61}, {"time": 2227, "pitch": 63, "duration": 12, "velocity": 86}, {"time": 2233, "pitch": 67, "duration": 6, "velocity": 77}, {"time": 2239, "pitch": 51, "duration": 40, "velocity": 86}, {"time": 2245, "pitch": 58, "duration": 32, "velocity": 59}, {"time": 2251, "pitch": 63, "duration": 13, "velocity": 74}, {"time": 2257, "pitch": 67, "duration": 7, "velocity": 77}, {"time": 2263, "pitch": 70, "duration": 13, "velocity": 90}, {"time": 2269, "pitch": 63, "duration": 7, "velocity": 71}, {"time": 2275, "pitch": 67, "duration": 7, "velocity": 70}, {"time": 2281, "pitch": 70, "duration": 6, "velocity": 87}, {"time": 2287, "pitch": 44, "duration": 43, "velocity": 77}, {"time": 2293, "pitch": 51, "duration": 36, "velocity": 79}, {"time": 2299, "pitch": 56, "duration": 13, "velocity": 76}, {"time": 2305, "pitch": 60, "duration": 7, "velocity": 68}, {"time": 2311, "pitch": 63, "duration": 13, "velocity": 81}, {"time": 2317, "pitch": 56, "duration": 11, "velocity": 65}, {"time": 2323, "pitch": 60, "duration": 7, "velocity": 75}, {"time": 2329, "pitch": 63, "duration": 7, "velocity": 77}, {"time": 2335, "pitch": 43, "duration": 41, "velocity": 83}, {"time": 2341, "pitch": 50, "duration": 35, "velocity": 76}, {"time": 2347, "pitch": 58, "duration": 7, "velocity": 64}, {"time": 2353, "pitch": 62, "duration": 10, "velocity": 70}, {"time": 2359, "pitch": 55, "duration": 8, "velocity": 58}, {"time": 2365, "pitch": 58, "duration": 13, "velocity": 65}, {"time": 2371, "pitch": 55, "duration": 7, "velocity": 81}, {"time": 2377, "pitch": 62, "duration": 6, "velocity": 85}, {"time": 2383, "pitch": 48, "duration": 43, "velocity": 73}, {"time": 2389, "pitch": 55, "duration": 38, "velocity": 69}, {"time": 2395, "pitch": 60, "duration": 13, "velocity": 85}, {"time": 2401, "pitch": 63, "duration": 14, "velocity": 72}, {"time": 2407, "pitch": 51, "duration": 19, "velocity": 90}, {"time": 2413, "pitch": 60, "duration": 14, "velocity": 83}, {"time": 2419, "pitch": 63, "duration": 7, "velocity": 90}, {"time": 2425, "pitch": 67, "duration": 5, "velocity": 86}, {"time": 2431, "pitch": 51, "duration": 44, "velocity": 85}, {"time": 2437, "pitch": 58, "duration": 36, "velocity": 65}, {"time": 2443, "pitch": 63, "duration": 11, "velocity": 70}, {"time": 2449, "pitch": 67, "duration": 19, "velocity": 83}, {"time": 2455, "pitch": 55, "duration": 19, "velocity": 71}, {"time": 2461, "pitch": 63, "duration": 10, "velocity": 83}, {"time": 2467, "pitch": 70, "duration": 6, "velocity": 111}, {"time": 2473, "pitch": 67, "duration": 6, "velocity": 95}, {"time": 2479, "pitch": 53, "duration": 38, "velocity": 100}, {"time": 2485, "pitch": 60, "duration": 31, "velocity": 73}, {"time": 2491, "pitch": 65, "duration": 13, "velocity": 64}, {"time": 2497, "pitch": 67, "duration": 7, "velocity": 85}, {"time": 2503, "pitch": 68, "duration": 12, "velocity": 120}, {"time": 2509, "pitch": 65, "duration": 5, "velocity": 68}, {"time": 2515, "pitch": 67, "duration": 11, "velocity": 81}, {"time": 2527, "pitch": 43, "duration": 13, "velocity": 79}, {"time": 2533, "pitch": 50, "duration": 9, "velocity": 95}, {"time": 2539, "pitch": 58, "duration": 7, "velocity": 70}, {"time": 2545, "pitch": 60, "duration": 5, "velocity": 68}, {"time": 2551, "pitch": 48, "duration": 24, "velocity": 85}, {"time": 2557, "pitch": 55, "duration": 18, "velocity": 65}, {"time": 2563, "pitch": 60, "duration": 12, "velocity": 73}, {"time": 2569, "pitch": 62, "duration": 7, "velocity": 77}, {"time": 2575, "pitch": 51, "duration": 6, "velocity": 69}, {"time": 2581, "pitch": 48, "duration": 5, "velocity": 81}, {"time": 2587, "pitch": 46, "duration": 8, "velocity": 73}, {"time": 2593, "pitch": 43, "duration": 5, "velocity": 90}, {"time": 2599, "pitch": 46, "duration": 4, "velocity": 87}, {"time": 2605, "pitch": 43, "duration": 6, "velocity": 98}, {"time": 2611, "pitch": 41, "duration": 5, "velocity": 104}, {"time": 2617, "pitch": 39, "duration": 6, "velocity": 114}, {"time": 2623, "pitch": 48, "duration": 42, "velocity": 86}, {"time": 2629, "pitch": 55, "duration": 37, "velocity": 75}, {"time": 2635, "pitch": 63, "duration": 21, "velocity": 83}, {"time": 2641, "pitch": 67, "duration": 15, "velocity": 76}, {"time": 2647, "pitch": 60, "duration": 6, "velocity": 59}, {"time": 2656, "pitch": 60, "duration": 2, "velocity": 50}, {"time": 2659, "pitch": 63, "duration": 7, "velocity": 81}, {"time": 2659, "pitch": 67, "duration": 7, "velocity": 87}, {"time": 2659, "pitch": 72, "duration": 7, "velocity": 73}, {"time": 2665, "pitch": 60, "duration": 5, "velocity": 63}, {"time": 2671, "pitch": 51, "duration": 40, "velocity": 86}, {"time": 2671, "pitch": 67, "duration": 15, "velocity": 83}, {"time": 2671, "pitch": 70, "duration": 15, "velocity": 79}, {"time": 2677, "pitch": 58, "duration": 32, "velocity": 64}, {"time": 2683, "pitch": 63, "duration": 9, "velocity": 60}, {"time": 2689, "pitch": 67, "duration": 14, "velocity": 76}, {"time": 2689, "pitch": 70, "duration": 14, "velocity": 93}, {"time": 2689, "pitch": 75, "duration": 14, "velocity": 79}, {"time": 2695, "pitch": 63, "duration": 10, "velocity": 63}, {"time": 2707, "pitch": 67, "duration": 6, "velocity": 87}, {"time": 2707, "pitch": 70, "duration": 6, "velocity": 85}, {"time": 2707, "pitch": 75, "duration": 6, "velocity": 83}, {"time": 2719, "pitch": 44, "duration": 42, "velocity": 86}, {"time": 2719, "pitch": 60, "duration": 15, "velocity": 67}, {"time": 2719, "pitch": 63, "duration": 15, "velocity": 76}, {"time": 2725, "pitch": 51, "duration": 34, "velocity": 86}, {"time": 2725, "pitch": 68, "duration": 9, "velocity": 10}, {"time": 2731, "pitch": 56, "duration": 8, "velocity": 63}, {"time": 2737, "pitch": 60, "duration": 16, "velocity": 86}, {"time": 2737, "pitch": 63, "duration": 16, "velocity": 86}, {"time": 2737, "pitch": 68, "duration": 16, "velocity": 95}, {"time": 2749, "pitch": 56, "duration": 7, "velocity": 68}, {"time": 2755, "pitch": 60, "duration": 5, "velocity": 90}, {"time": 2755, "pitch": 63, "duration": 5, "velocity": 93}, {"time": 2755, "pitch": 68, "duration": 5, "velocity": 95}, {"time": 2767, "pitch": 43, "duration": 19, "velocity": 75}, {"time": 2767, "pitch": 58, "duration": 14, "velocity": 73}, {"time": 2767, "pitch": 62, "duration": 14, "velocity": 81}, {"time": 2773, "pitch": 50, "duration": 14, "velocity": 70}, {"time": 2779, "pitch": 55, "duration": 8, "velocity": 72}, {"time": 2785, "pitch": 58, "duration": 6, "velocity": 71}, {"time": 2785, "pitch": 62, "duration": 5, "velocity": 81}, {"time": 2785, "pitch": 67, "duration": 6, "velocity": 79}, {"time": 2791, "pitch": 48, "duration": 22, "velocity": 76}, {"time": 2797, "pitch": 55, "duration": 16, "velocity": 76}, {"time": 2803, "pitch": 63, "duration": 8, "velocity": 93}, {"time": 2803, "pitch": 67, "duration": 8, "velocity": 85}, {"time": 2803, "pitch": 72, "duration": 7, "velocity": 74}, {"time": 2809, "pitch": 60, "duration": 4, "velocity": 72}, {"time": 2815, "pitch": 48, "duration": 42, "velocity": 87}, {"time": 2815, "pitch": 63, "duration": 15, "velocity": 77}, {"time": 2815, "pitch": 67, "duration": 15, "velocity": 86}, {"time": 2815, "pitch": 72, "duration": 15, "velocity": 83}, {"time": 2821, "pitch": 55, "duration": 37, "velocity": 67}, {"time": 2827, "pitch": 60, "duration": 9, "velocity": 64}, {"time": 2833, "pitch": 63, "duration": 15, "velocity": 76}, {"time": 2833, "pitch": 67, "duration": 16, "velocity": 86}, {"time": 2833, "pitch": 72, "duration": 16, "velocity": 86}, {"time": 2845, "pitch": 60, "duration": 7, "velocity": 59}, {"time": 2851, "pitch": 63, "duration": 6, "velocity": 86}, {"time": 2851, "pitch": 67, "duration": 6, "velocity": 86}, {"time": 2851, "pitch": 72, "duration": 7, "velocity": 81}, {"time": 2857, "pitch": 60, "duration": 6, "velocity": 61}, {"time": 2863, "pitch": 51, "duration": 42, "velocity": 95}, {"time": 2863, "pitch": 67, "duration": 14, "velocity": 83}, {"time": 2863, "pitch": 70, "duration": 14, "velocity": 93}, {"time": 2863, "pitch": 75, "duration": 14, "velocity": 87}, {"time": 2869, "pitch": 58, "duration": 42, "velocity": 60}, {"time": 2875, "pitch": 63, "duration": 10, "velocity": 60}, {"time": 2881, "pitch": 67, "duration": 15, "velocity": 86}, {"time": 2881, "pitch": 70, "duration": 15, "velocity": 87}, {"time": 2881, "pitch": 75, "duration": 15, "velocity": 85}, {"time": 2893, "pitch": 63, "duration": 8, "velocity": 61}, {"time": 2899, "pitch": 67, "duration": 7, "velocity": 93}, {"time": 2899, "pitch": 70, "duration": 7, "velocity": 90}, {"time": 2899, "pitch": 75, "duration": 8, "velocity": 79}, {"time": 2905, "pitch": 63, "duration": 6, "velocity": 65}, {"time": 2911, "pitch": 53, "duration": 41, "velocity": 85}, {"time": 2911, "pitch": 68, "duration": 16, "velocity": 90}, {"time": 2917, "pitch": 60, "duration": 31, "velocity": 63}, {"time": 2923, "pitch": 65, "duration": 7, "velocity": 64}, {"time": 2929, "pitch": 68, "duration": 13, "velocity": 72}, {"time": 2929, "pitch": 72, "duration": 13, "velocity": 67}, {"time": 2935, "pitch": 65, "duration": 6, "velocity": 59}, {"time": 2941, "pitch": 56, "duration": 10, "velocity": 55}, {"time": 2947, "pitch": 68, "duration": 12, "velocity": 104}, {"time": 2953, "pitch": 72, "duration": 6, "velocity": 74}, {"time": 2959, "pitch": 43, "duration": 13, "velocity": 86}, {"time": 2965, "pitch": 50, "duration": 9, "velocity": 83}, {"time": 2971, "pitch": 58, "duration": 7, "velocity": 81}, {"time": 2977, "pitch": 62, "duration": 6, "velocity": 68}, {"time": 2983, "pitch": 48, "duration": 21, "velocity": 85}, {"time": 2989, "pitch": 55, "duration": 18, "velocity": 69}, {"time": 2995, "pitch": 60, "duration": 12, "velocity": 71}, {"time": 3001, "pitch": 62, "duration": 7, "velocity": 75}, {"time": 3007, "pitch": 48, "duration": 46, "velocity": 95}, {"time": 3007, "pitch": 63, "duration": 11, "velocity": 98}, {"time": 3013, "pitch": 55, "duration": 40, "velocity": 74}, {"time": 3013, "pitch": 60, "duration": 6, "velocity": 63}, {"time": 3019, "pitch": 67, "duration": 11, "velocity": 98}, {"time": 3022, "pitch": 63, "duration": 7, "velocity": 38}, {"time": 3025, "pitch": 60, "duration": 9, "velocity": 63}, {"time": 3031, "pitch": 63, "duration": 10, "velocity": 61}, {"time": 3031, "pitch": 67, "duration": 10, "velocity": 70}, {"time": 3037, "pitch": 60, "duration": 15, "velocity": 67}, {"time": 3043, "pitch": 63, "duration": 11, "velocity": 73}, {"time": 3043, "pitch": 67, "duration": 11, "velocity": 86}, {"time": 3055, "pitch": 53, "duration": 40, "velocity": 81}, {"time": 3055, "pitch": 68, "duration": 15, "velocity": 87}, {"time": 3061, "pitch": 60, "duration": 33, "velocity": 60}, {"time": 3067, "pitch": 65, "duration": 8, "velocity": 59}, {"time": 3073, "pitch": 68, "duration": 17, "velocity": 83}, {"time": 3073, "pitch": 72, "duration": 17, "velocity": 81}, {"time": 3082, "pitch": 65, "duration": 3, "velocity": 59}, {"time": 3085, "pitch": 65, "duration": 1, "velocity": 65}, {"time": 3091, "pitch": 68, "duration": 6, "velocity": 76}, {"time": 3091, "pitch": 72, "duration": 5, "velocity": 83}, {"time": 3103, "pitch": 46, "duration": 42, "velocity": 75}, {"time": 3103, "pitch": 62, "duration": 10, "velocity": 68}, {"time": 3103, "pitch": 65, "duration": 10, "velocity": 70}, {"time": 3109, "pitch": 53, "duration": 41, "velocity": 73}, {"time": 3115, "pitch": 62, "duration": 10, "velocity": 59}, {"time": 3115, "pitch": 65, "duration": 10, "velocity": 54}, {"time": 3115, "pitch": 70, "duration": 10, "velocity": 66}, {"time": 3121, "pitch": 58, "duration": 8, "velocity": 56}, {"time": 3127, "pitch": 62, "duration": 9, "velocity": 63}, {"time": 3127, "pitch": 65, "duration": 9, "velocity": 67}, {"time": 3127, "pitch": 70, "duration": 10, "velocity": 74}, {"time": 3133, "pitch": 58, "duration": 6, "velocity": 59}, {"time": 3139, "pitch": 62, "duration": 6, "velocity": 74}, {"time": 3139, "pitch": 65, "duration": 6, "velocity": 93}, {"time": 3139, "pitch": 70, "duration": 6, "velocity": 93}, {"time": 3145, "pitch": 58, "duration": 5, "velocity": 63}, {"time": 3148, "pitch": 63, "duration": 1, "velocity": 47}, {"time": 3151, "pitch": 48, "duration": 43, "velocity": 79}, {"time": 3151, "pitch": 63, "duration": 35, "velocity": 86}, {"time": 3157, "pitch": 55, "duration": 39, "velocity": 67}, {"time": 3163, "pitch": 60, "duration": 12, "velocity": 66}, {"time": 3169, "pitch": 67, "duration": 14, "velocity": 76}, {"time": 3175, "pitch": 51, "duration": 18, "velocity": 61}, {"time": 3175, "pitch": 72, "duration": 8, "velocity": 70}, {"time": 3181, "pitch": 60, "duration": 7, "velocity": 71}, {"time": 3184, "pitch": 72, "duration": 1, "velocity": 40}, {"time": 3187, "pitch": 63, "duration": 10, "velocity": 61}, {"time": 3187, "pitch": 67, "duration": 10, "velocity": 71}, {"time": 3187, "pitch": 72, "duration": 7, "velocity": 70}, {"time": 3199, "pitch": 48, "duration": 22, "velocity": 79}, {"time": 3199, "pitch": 63, "duration": 15, "velocity": 76}, {"time": 3199, "pitch": 67, "duration": 15, "velocity": 85}, {"time": 3199, "pitch": 72, "duration": 15, "velocity": 81}, {"time": 3205, "pitch": 55, "duration": 14, "velocity": 70}, {"time": 3211, "pitch": 60, "duration": 7, "velocity": 66}, {"time": 3217, "pitch": 63, "duration": 2, "velocity": 72}, {"time": 3217, "pitch": 67, "duration": 2, "velocity": 79}, {"time": 3217, "pitch": 72, "duration": 1, "velocity": 73}, {"time": 3223, "pitch": 46, "duration": 21, "velocity": 72}, {"time": 3223, "pitch": 62, "duration": 16, "velocity": 74}, {"time": 3223, "pitch": 65, "duration": 16, "velocity": 81}, {"time": 3223, "pitch": 70, "duration": 16, "velocity": 87}, {"time": 3229, "pitch": 53, "duration": 14, "velocity": 75}, {"time": 3235, "pitch": 58, "duration": 7, "velocity": 62}, {"time": 3241, "pitch": 62, "duration": 2, "velocity": 59}, {"time": 3241, "pitch": 65, "duration": 1, "velocity": 63}, {"time": 3241, "pitch": 70, "duration": 1, "velocity": 64}, {"time": 3247, "pitch": 44, "duration": 19, "velocity": 74}, {"time": 3247, "pitch": 60, "duration": 14, "velocity": 75}, {"time": 3247, "pitch": 63, "duration": 14, "velocity": 83}, {"time": 3247, "pitch": 68, "duration": 14, "velocity": 87}, {"time": 3253, "pitch": 51, "duration": 14, "velocity": 90}, {"time": 3259, "pitch": 56, "duration": 12, "velocity": 73}, {"time": 3265, "pitch": 60, "duration": 2, "velocity": 63}, {"time": 3265, "pitch": 63, "duration": 2, "velocity": 65}, {"time": 3265, "pitch": 68, "duration": 2, "velocity": 64}, {"time": 3271, "pitch": 48, "duration": 21, "velocity": 74}, {"time": 3271, "pitch": 63, "duration": 15, "velocity": 64}, {"time": 3271, "pitch": 67, "duration": 15, "velocity": 73}, {"time": 3271, "pitch": 72, "duration": 15, "velocity": 67}, {"time": 3277, "pitch": 55, "duration": 16, "velocity": 63}, {"time": 3283, "pitch": 60, "duration": 9, "velocity": 61}, {"time": 3289, "pitch": 63, "duration": 2, "velocity": 57}, {"time": 3289, "pitch": 67, "duration": 2, "velocity": 49}, {"time": 3289, "pitch": 72, "duration": 2, "velocity": 49}, {"time": 3295, "pitch": 51, "duration": 44, "velocity": 104}, {"time": 3301, "pitch": 58, "duration": 39, "velocity": 62}, {"time": 3301, "pitch": 67, "duration": 1, "velocity": 45}, {"time": 3307, "pitch": 67, "duration": 9, "velocity": 83}, {"time": 3307, "pitch": 70, "duration": 9, "velocity": 85}, {"time": 3307, "pitch": 75, "duration": 9, "velocity": 77}, {"time": 3313, "pitch": 63, "duration": 9, "velocity": 60}, {"time": 3319, "pitch": 67, "duration": 10, "velocity": 83}, {"time": 3319, "pitch": 70, "duration": 10, "velocity": 86}, {"time": 3319, "pitch": 75, "duration": 10, "velocity": 76}, {"time": 3325, "pitch": 63, "duration": 13, "velocity": 64}, {"time": 3331, "pitch": 67, "duration": 10, "velocity": 98}, {"time": 3331, "pitch": 70, "duration": 11, "velocity": 90}, {"time": 3331, "pitch": 75, "duration": 10, "velocity": 93}, {"time": 3343, "pitch": 53, "duration": 15, "velocity": 93}, {"time": 3343, "pitch": 68, "duration": 10, "velocity": 70}, {"time": 3343, "pitch": 72, "duration": 10, "velocity": 81}, {"time": 3346, "pitch": 60, "duration": 8, "velocity": 60}, {"time": 3355, "pitch": 68, "duration": 4, "velocity": 62}, {"time": 3355, "pitch": 72, "duration": 4, "velocity": 72}, {"time": 3367, "pitch": 46, "duration": 19, "velocity": 81}, {"time": 3367, "pitch": 62, "duration": 10, "velocity": 71}, {"time": 3367, "pitch": 65, "duration": 10, "velocity": 77}, {"time": 3367, "pitch": 70, "duration": 10, "velocity": 83}, {"time": 3373, "pitch": 53, "duration": 13, "velocity": 81}, {"time": 3379, "pitch": 62, "duration": 7, "velocity": 90}, {"time": 3379, "pitch": 65, "duration": 7, "velocity": 87}, {"time": 3379, "pitch": 70, "duration": 7, "velocity": 98}, {"time": 3385, "pitch": 58, "duration": 4, "velocity": 60}, {"time": 3391, "pitch": 48, "duration": 21, "velocity": 85}, {"time": 3391, "pitch": 63, "duration": 9, "velocity": 72}, {"time": 3391, "pitch": 67, "duration": 10, "velocity": 81}, {"time": 3391, "pitch": 72, "duration": 10, "velocity": 76}, {"time": 3397, "pitch": 55, "duration": 15, "velocity": 69}, {"time": 3403, "pitch": 63, "duration": 7, "velocity": 90}, {"time": 3403, "pitch": 67, "duration": 6, "velocity": 98}, {"time": 3403, "pitch": 72, "duration": 6, "velocity": 95}, {"time": 3409, "pitch": 60, "duration": 3, "velocity": 59}, {"time": 3415, "pitch": 46, "duration": 21, "velocity": 70}, {"time": 3415, "pitch": 62, "duration": 11, "velocity": 67}, {"time": 3415, "pitch": 65, "duration": 11, "velocity": 74}, {"time": 3415, "pitch": 70, "duration": 11, "velocity": 79}, {"time": 3421, "pitch": 53, "duration": 14, "velocity": 73}, {"time": 3427, "pitch": 62, "duration": 6, "velocity": 79}, {"time": 3427, "pitch": 65, "duration": 6, "velocity": 87}, {"time": 3427, "pitch": 70, "duration": 6, "velocity": 95}, {"time": 3433, "pitch": 58, "duration": 2, "velocity": 58}, {"time": 3439, "pitch": 43, "duration": 40, "velocity": 83}, {"time": 3439, "pitch": 58, "duration": 10, "velocity": 61}, {"time": 3439, "pitch": 62, "duration": 10, "velocity": 75}, {"time": 3439, "pitch": 67, "duration": 10, "velocity": 72}, {"time": 3445, "pitch": 50, "duration": 35, "velocity": 74}, {"time": 3451, "pitch": 58, "duration": 9, "velocity": 70}, {"time": 3451, "pitch": 62, "duration": 9, "velocity": 81}, {"time": 3451, "pitch": 67, "duration": 9, "velocity": 83}, {"time": 3457, "pitch": 55, "duration": 7, "velocity": 61}, {"time": 3463, "pitch": 58, "duration": 10, "velocity": 76}, {"time": 3463, "pitch": 62, "duration": 10, "velocity": 90}, {"time": 3463, "pitch": 67, "duration": 10, "velocity": 100}, {"time": 3469, "pitch": 55, "duration": 7, "velocity": 58}, {"time": 3475, "pitch": 58, "duration": 6, "velocity": 69}, {"time": 3475, "pitch": 62, "duration": 5, "velocity": 83}, {"time": 3475, "pitch": 67, "duration": 5, "velocity": 83}, {"time": 3478, "pitch": 55, "duration": 1, "velocity": 46}, {"time": 3487, "pitch": 43, "duration": 6, "velocity": 51}, {"time": 3487, "pitch": 50, "duration": 6, "velocity": 90}, {"time": 3487, "pitch": 55, "duration": 6, "velocity": 65}, {"time": 3487, "pitch": 58, "duration": 6, "velocity": 69}, {"time": 3487, "pitch": 62, "duration": 6, "velocity": 74}, {"time": 3487, "pitch": 67, "duration": 6, "velocity": 81}, {"time": 3505, "pitch": 46, "duration": 1, "velocity": 64}, {"time": 3505, "pitch": 53, "duration": 1, "velocity": 74}, {"time": 3505, "pitch": 58, "duration": 1, "velocity": 58}, {"time": 3505, "pitch": 62, "duration": 2, "velocity": 77}, {"time": 3505, "pitch": 65, "duration": 1, "velocity": 86}, {"time": 3505, "pitch": 70, "duration": 1, "velocity": 90}, {"time": 3511, "pitch": 46, "duration": 4, "velocity": 81}, {"time": 3511, "pitch": 53, "duration": 4, "velocity": 81}, {"time": 3511, "pitch": 58, "duration": 4, "velocity": 67}, {"time": 3511, "pitch": 62, "duration": 4, "velocity": 87}, {"time": 3511, "pitch": 65, "duration": 4, "velocity": 95}, {"time": 3511, "pitch": 70, "duration": 4, "velocity": 104}, {"time": 3535, "pitch": 46, "duration": 19, "velocity": 68}, {"time": 3535, "pitch": 53, "duration": 18, "velocity": 100}, {"time": 3535, "pitch": 58, "duration": 19, "velocity": 59}, {"time": 3535, "pitch": 62, "duration": 18, "velocity": 67}, {"time": 3535, "pitch": 65, "duration": 18, "velocity": 70}, {"time": 3535, "pitch": 70, "duration": 18, "velocity": 76}, {"time": 3559, "pitch": 48, "duration": 2, "velocity": 72}, {"time": 3559, "pitch": 63, "duration": 2, "velocity": 73}, {"time": 3559, "pitch": 67, "duration": 2, "velocity": 67}, {"time": 3559, "pitch": 72, "duration": 2, "velocity": 66}, {"time": 3565, "pitch": 48, "duration": 2, "velocity": 83}, {"time": 3565, "pitch": 63, "duration": 2, "velocity": 79}, {"time": 3565, "pitch": 67, "duration": 2, "velocity": 93}, {"time": 3565, "pitch": 72, "duration": 2, "velocity": 87}, {"time": 3571, "pitch": 48, "duration": 2, "velocity": 83}, {"time": 3571, "pitch": 63, "duration": 2, "velocity": 79}, {"time": 3571, "pitch": 67, "duration": 2, "velocity": 93}, {"time": 3571, "pitch": 72, "duration": 2, "velocity": 83}, {"time": 3577, "pitch": 48, "duration": 2, "velocity": 98}, {"time": 3577, "pitch": 63, "duration": 2, "velocity": 75}, {"time": 3577, "pitch": 67, "duration": 1, "velocity": 87}, {"time": 3577, "pitch": 72, "duration": 1, "velocity": 77}, {"time": 3583, "pitch": 48, "duration": 22, "velocity": 79}, {"time": 3583, "pitch": 48, "duration": 22, "velocity": 104}, {"time": 3583, "pitch": 63, "duration": 15, "velocity": 76}, {"time": 3583, "pitch": 63, "duration": 15, "velocity": 100}, {"time": 3583, "pitch": 67, "duration": 15, "velocity": 85}, {"time": 3583, "pitch": 67, "duration": 15, "velocity": 112}, {"time": 3583, "pitch": 72, "duration": 15, "velocity": 81}, {"time": 3583, "pitch": 72, "duration": 15, "velocity": 108}, {"time": 3589, "pitch": 55, "duration": 14, "velocity": 70}, {"time": 3595, "pitch": 55, "duration": 8, "velocity": 75}, {"time": 3595, "pitch": 60, "duration": 7, "velocity": 66}, {"time": 3601, "pitch": 60, "duration": 1, "velocity": 66}, {"time": 3601, "pitch": 63, "duration": 2, "velocity": 72}, {"time": 3601, "pitch": 67, "duration": 2, "velocity": 79}, {"time": 3601, "pitch": 72, "duration": 1, "velocity": 73}, {"time": 3607, "pitch": 46, "duration": 21, "velocity": 72}, {"time": 3607, "pitch": 62, "duration": 16, "velocity": 74}, {"time": 3607, "pitch": 65, "duration": 16, "velocity": 81}, {"time": 3607, "pitch": 70, "duration": 16, "velocity": 87}, {"time": 3613, "pitch": 53, "duration": 14, "velocity": 75}, {"time": 3619, "pitch": 58, "duration": 7, "velocity": 62}, {"time": 3625, "pitch": 62, "duration": 2, "velocity": 59}, {"time": 3625, "pitch": 65, "duration": 1, "velocity": 63}, {"time": 3625, "pitch": 70, "duration": 1, "velocity": 64}, {"time": 3631, "pitch": 44, "duration": 19, "velocity": 74}, {"time": 3631, "pitch": 60, "duration": 14, "velocity": 75}, {"time": 3631, "pitch": 63, "duration": 14, "velocity": 83}, {"time": 3631, "pitch": 68, "duration": 14, "velocity": 87}, {"time": 3637, "pitch": 51, "duration": 14, "velocity": 90}, {"time": 3643, "pitch": 56, "duration": 12, "velocity": 73}, {"time": 3649, "pitch": 60, "duration": 2, "velocity": 63}, {"time": 3649, "pitch": 63, "duration": 2, "velocity": 65}, {"time": 3649, "pitch": 68, "duration": 2, "velocity": 64}, {"time": 3655, "pitch": 48, "duration": 21, "velocity": 74}, {"time": 3655, "pitch": 63, "duration": 15, "velocity": 64}, {"time": 3655, "pitch": 67, "duration": 15, "velocity": 73}, {"time": 3655, "pitch": 72, "duration": 15, "velocity": 67}, {"time": 3661, "pitch": 55, "duration": 16, "velocity": 63}, {"time": 3667, "pitch": 60, "duration": 9, "velocity": 61}, {"time": 3673, "pitch": 63, "duration": 2, "velocity": 57}, {"time": 3673, "pitch": 67, "duration": 2, "velocity": 49}, {"time": 3673, "pitch": 72, "duration": 2, "velocity": 49}, {"time": 3679, "pitch": 51, "duration": 44, "velocity": 104}, {"time": 3685, "pitch": 58, "duration": 39, "velocity": 62}, {"time": 3685, "pitch": 67, "duration": 1, "velocity": 45}, {"time": 3691, "pitch": 67, "duration": 9, "velocity": 83}, {"time": 3691, "pitch": 70, "duration": 9, "velocity": 85}, {"time": 3691, "pitch": 75, "duration": 9, "velocity": 77}, {"time": 3697, "pitch": 63, "duration": 9, "velocity": 60}, {"time": 3703, "pitch": 67, "duration": 10, "velocity": 83}, {"time": 3703, "pitch": 70, "duration": 10, "velocity": 86}, {"time": 3703, "pitch": 75, "duration": 10, "velocity": 76}, {"time": 3709, "pitch": 63, "duration": 13, "velocity": 64}, {"time": 3715, "pitch": 67, "duration": 10, "velocity": 98}, {"time": 3715, "pitch": 70, "duration": 11, "velocity": 90}, {"time": 3715, "pitch": 75, "duration": 10, "velocity": 93}, {"time": 3727, "pitch": 53, "duration": 15, "velocity": 93}, {"time": 3727, "pitch": 68, "duration": 10, "velocity": 70}, {"time": 3727, "pitch": 72, "duration": 10, "velocity": 81}, {"time": 3730, "pitch": 60, "duration": 8, "velocity": 60}, {"time": 3739, "pitch": 68, "duration": 4, "velocity": 62}, {"time": 3739, "pitch": 72, "duration": 4, "velocity": 72}, {"time": 3751, "pitch": 46, "duration": 19, "velocity": 81}, {"time": 3751, "pitch": 62, "duration": 10, "velocity": 71}, {"time": 3751, "pitch": 65, "duration": 10, "velocity": 77}, {"time": 3751, "pitch": 70, "duration": 10, "velocity": 83}, {"time": 3757, "pitch": 53, "duration": 13, "velocity": 81}, {"time": 3763, "pitch": 62, "duration": 7, "velocity": 90}, {"time": 3763, "pitch": 65, "duration": 7, "velocity": 87}, {"time": 3763, "pitch": 70, "duration": 7, "velocity": 98}, {"time": 3769, "pitch": 58, "duration": 4, "velocity": 60}, {"time": 3775, "pitch": 48, "duration": 21, "velocity": 85}, {"time": 3775, "pitch": 63, "duration": 9, "velocity": 72}, {"time": 3775, "pitch": 67, "duration": 10, "velocity": 81}, {"time": 3775, "pitch": 72, "duration": 10, "velocity": 76}, {"time": 3781, "pitch": 55, "duration": 15, "velocity": 69}, {"time": 3787, "pitch": 63, "duration": 7, "velocity": 90}, {"time": 3787, "pitch": 67, "duration": 6, "velocity": 98}, {"time": 3787, "pitch": 72, "duration": 6, "velocity": 95}, {"time": 3793, "pitch": 60, "duration": 3, "velocity": 59}, {"time": 3799, "pitch": 46, "duration": 21, "velocity": 70}, {"time": 3799, "pitch": 62, "duration": 11, "velocity": 67}, {"time": 3799, "pitch": 65, "duration": 11, "velocity": 74}, {"time": 3799, "pitch": 70, "duration": 11, "velocity": 79}, {"time": 3805, "pitch": 53, "duration": 14, "velocity": 73}, {"time": 3811, "pitch": 62, "duration": 6, "velocity": 79}, {"time": 3811, "pitch": 65, "duration": 6, "velocity": 87}, {"time": 3811, "pitch": 70, "duration": 6, "velocity": 95}, {"time": 3817, "pitch": 58, "duration": 2, "velocity": 58}, {"time": 3823, "pitch": 43, "duration": 40, "velocity": 83}, {"time": 3823, "pitch": 58, "duration": 10, "velocity": 61}, {"time": 3823, "pitch": 62, "duration": 10, "velocity": 75}, {"time": 3823, "pitch": 67, "duration": 10, "velocity": 72}, {"time": 3829, "pitch": 50, "duration": 35, "velocity": 74}, {"time": 3835, "pitch": 58, "duration": 9, "velocity": 70}, {"time": 3835, "pitch": 62, "duration": 9, "velocity": 81}, {"time": 3835, "pitch": 67, "duration": 9, "velocity": 83}, {"time": 3841, "pitch": 55, "duration": 7, "velocity": 61}, {"time": 3847, "pitch": 58, "duration": 10, "velocity": 76}, {"time": 3847, "pitch": 62, "duration": 10, "velocity": 90}, {"time": 3847, "pitch": 67, "duration": 10, "velocity": 100}, {"time": 3853, "pitch": 55, "duration": 7, "velocity": 58}, {"time": 3859, "pitch": 58, "duration": 6, "velocity": 69}, {"time": 3859, "pitch": 62, "duration": 5, "velocity": 83}, {"time": 3859, "pitch": 67, "duration": 5, "velocity": 83}, {"time": 3862, "pitch": 55, "duration": 1, "velocity": 46}, {"time": 3871, "pitch": 43, "duration": 6, "velocity": 51}, {"time": 3871, "pitch": 50, "duration": 6, "velocity": 90}, {"time": 3871, "pitch": 55, "duration": 6, "velocity": 65}, {"time": 3871, "pitch": 58, "duration": 6, "velocity": 69}, {"time": 3871, "pitch": 62, "duration": 6, "velocity": 74}, {"time": 3871, "pitch": 67, "duration": 6, "velocity": 81}, {"time": 3889, "pitch": 46, "duration": 1, "velocity": 64}, {"time": 3889, "pitch": 53, "duration": 1, "velocity": 74}, {"time": 3889, "pitch": 58, "duration": 1, "velocity": 58}, {"time": 3889, "pitch": 62, "duration": 2, "velocity": 77}, {"time": 3889, "pitch": 65, "duration": 1, "velocity": 86}, {"time": 3889, "pitch": 70, "duration": 1, "velocity": 90}, {"time": 3895, "pitch": 46, "duration": 4, "velocity": 81}, {"time": 3895, "pitch": 53, "duration": 4, "velocity": 81}, {"time": 3895, "pitch": 58, "duration": 4, "velocity": 67}, {"time": 3895, "pitch": 62, "duration": 4, "velocity": 87}, {"time": 3895, "pitch": 65, "duration": 4, "velocity": 95}, {"time": 3895, "pitch": 70, "duration": 4, "velocity": 104}, {"time": 3919, "pitch": 46, "duration": 19, "velocity": 68}, {"time": 3919, "pitch": 53, "duration": 18, "velocity": 100}, {"time": 3919, "pitch": 58, "duration": 19, "velocity": 59}, {"time": 3919, "pitch": 62, "duration": 18, "velocity": 67}, {"time": 3919, "pitch": 65, "duration": 18, "velocity": 70}, {"time": 3919, "pitch": 70, "duration": 18, "velocity": 76}, {"time": 3943, "pitch": 48, "duration": 2, "velocity": 72}, {"time": 3943, "pitch": 63, "duration": 2, "velocity": 73}, {"time": 3943, "pitch": 67, "duration": 2, "velocity": 67}, {"time": 3943, "pitch": 72, "duration": 2, "velocity": 66}, {"time": 3949, "pitch": 48, "duration": 2, "velocity": 83}, {"time": 3949, "pitch": 63, "duration": 2, "velocity": 79}, {"time": 3949, "pitch": 67, "duration": 2, "velocity": 93}, {"time": 3949, "pitch": 72, "duration": 2, "velocity": 87}, {"time": 3955, "pitch": 48, "duration": 2, "velocity": 83}, {"time": 3955, "pitch": 63, "duration": 2, "velocity": 79}, {"time": 3955, "pitch": 67, "duration": 2, "velocity": 93}, {"time": 3955, "pitch": 72, "duration": 2, "velocity": 83}, {"time": 3961, "pitch": 48, "duration": 2, "velocity": 98}, {"time": 3961, "pitch": 63, "duration": 2, "velocity": 75}, {"time": 3961, "pitch": 67, "duration": 1, "velocity": 87}, {"time": 3961, "pitch": 72, "duration": 1, "velocity": 77}, {"time": 3967, "pitch": 48, "duration": 21, "velocity": 85}, {"time": 3967, "pitch": 48, "duration": 21, "velocity": 104}, {"time": 3967, "pitch": 63, "duration": 9, "velocity": 72}, {"time": 3967, "pitch": 63, "duration": 9, "velocity": 100}, {"time": 3967, "pitch": 67, "duration": 10, "velocity": 81}, {"time": 3967, "pitch": 67, "duration": 10, "velocity": 112}, {"time": 3967, "pitch": 72, "duration": 10, "velocity": 76}, {"time": 3967, "pitch": 72, "duration": 10, "velocity": 108}, {"time": 3973, "pitch": 55, "duration": 15, "velocity": 69}, {"time": 3979, "pitch": 55, "duration": 9, "velocity": 75}, {"time": 3979, "pitch": 63, "duration": 7, "velocity": 90}, {"time": 3979, "pitch": 67, "duration": 6, "velocity": 98}, {"time": 3979, "pitch": 72, "duration": 6, "velocity": 95}, {"time": 3985, "pitch": 60, "duration": 3, "velocity": 59}, {"time": 3985, "pitch": 60, "duration": 3, "velocity": 66}, {"time": 3991, "pitch": 46, "duration": 21, "velocity": 70}, {"time": 3991, "pitch": 62, "duration": 11, "velocity": 67}, {"time": 3991, "pitch": 65, "duration": 11, "velocity": 74}, {"time": 3991, "pitch": 70, "duration": 11, "velocity": 79}, {"time": 3997, "pitch": 53, "duration": 14, "velocity": 73}, {"time": 4003, "pitch": 62, "duration": 6, "velocity": 79}, {"time": 4003, "pitch": 65, "duration": 6, "velocity": 87}, {"time": 4003, "pitch": 70, "duration": 6, "velocity": 95}, {"time": 4009, "pitch": 58, "duration": 2, "velocity": 58}, {"time": 4015, "pitch": 43, "duration": 40, "velocity": 83}, {"time": 4015, "pitch": 58, "duration": 10, "velocity": 61}, {"time": 4015, "pitch": 62, "duration": 10, "velocity": 75}, {"time": 4015, "pitch": 67, "duration": 10, "velocity": 72}, {"time": 4021, "pitch": 50, "duration": 35, "velocity": 74}, {"time": 4027, "pitch": 58, "duration": 9, "velocity": 70}, {"time": 4027, "pitch": 62, "duration": 9, "velocity": 81}, {"time": 4027, "pitch": 67, "duration": 9, "velocity": 83}, {"time": 4033, "pitch": 55, "duration": 7, "velocity": 61}, {"time": 4039, "pitch": 58, "duration": 10, "velocity": 76}, {"time": 4039, "pitch": 62, "duration": 10, "velocity": 90}, {"time": 4039, "pitch": 67, "duration": 10, "velocity": 100}, {"time": 4045, "pitch": 55, "duration": 7, "velocity": 58}, {"time": 4051, "pitch": 58, "duration": 6, "velocity": 69}, {"time": 4051, "pitch": 62, "duration": 5, "velocity": 83}, {"time": 4051, "pitch": 67, "duration": 5, "velocity": 83}, {"time": 4054, "pitch": 55, "duration": 1, "velocity": 46}, {"time": 4063, "pitch": 43, "duration": 6, "velocity": 51}, {"time": 4063, "pitch": 50, "duration": 6, "velocity": 90}, {"time": 4063, "pitch": 55, "duration": 6, "velocity": 65}, {"time": 4063, "pitch": 58, "duration": 6, "velocity": 69}, {"time": 4063, "pitch": 62, "duration": 6, "velocity": 74}, {"time": 4063, "pitch": 67, "duration": 6, "velocity": 81}, {"time": 4081, "pitch": 46, "duration": 1, "velocity": 64}, {"time": 4081, "pitch": 53, "duration": 1, "velocity": 74}, {"time": 4081, "pitch": 58, "duration": 1, "velocity": 58}, {"time": 4081, "pitch": 62, "duration": 2, "velocity": 77}, {"time": 4081, "pitch": 65, "duration": 1, "velocity": 86}, {"time": 4081, "pitch": 70, "duration": 1, "velocity": 90}, {"time": 4087, "pitch": 46, "duration": 4, "velocity": 81}, {"time": 4087, "pitch": 53, "duration": 4, "velocity": 81}, {"time": 4087, "pitch": 58, "duration": 4, "velocity": 67}, {"time": 4087, "pitch": 62, "duration": 4, "velocity": 87}, {"time": 4087, "pitch": 65, "duration": 4, "velocity": 95}, {"time": 4087, "pitch": 70, "duration": 4, "velocity": 104}, {"time": 4111, "pitch": 46, "duration": 19, "velocity": 68}, {"time": 4111, "pitch": 53, "duration": 18, "velocity": 100}, {"time": 4111, "pitch": 58, "duration": 19, "velocity": 59}, {"time": 4111, "pitch": 62, "duration": 18, "velocity": 67}, {"time": 4111, "pitch": 65, "duration": 18, "velocity": 70}, {"time": 4111, "pitch": 70, "duration": 18, "velocity": 76}, {"time": 4135, "pitch": 48, "duration": 2, "velocity": 72}, {"time": 4135, "pitch": 63, "duration": 2, "velocity": 73}, {"time": 4135, "pitch": 67, "duration": 2, "velocity": 67}, {"time": 4135, "pitch": 72, "duration": 2, "velocity": 66}, {"time": 4141, "pitch": 48, "duration": 2, "velocity": 83}, {"time": 4141, "pitch": 63, "duration": 2, "velocity": 79}, {"time": 4141, "pitch": 67, "duration": 2, "velocity": 93}, {"time": 4141, "pitch": 72, "duration": 2, "velocity": 87}, {"time": 4147, "pitch": 48, "duration": 2, "velocity": 83}, {"time": 4147, "pitch": 63, "duration": 2, "velocity": 79}, {"time": 4147, "pitch": 67, "duration": 2, "velocity": 93}, {"time": 4147, "pitch": 72, "duration": 2, "velocity": 83}, {"time": 4153, "pitch": 48, "duration": 2, "velocity": 98}, {"time": 4153, "pitch": 63, "duration": 2, "velocity": 75}, {"time": 4153, "pitch": 67, "duration": 1, "velocity": 87}, {"time": 4153, "pitch": 72, "duration": 1, "velocity": 77}, {"time": 4159, "pitch": 48, "duration": 24, "velocity": 95}, {"time": 4159, "pitch": 48, "duration": 24, "velocity": 104}, {"time": 4159, "pitch": 63, "duration": 11, "velocity": 98}, {"time": 4159, "pitch": 63, "duration": 11, "velocity": 100}, {"time": 4159, "pitch": 67, "duration": 22, "velocity": 112}, {"time": 4159, "pitch": 72, "duration": 22, "velocity": 108}, {"time": 4165, "pitch": 55, "duration": 18, "velocity": 74}, {"time": 4165, "pitch": 60, "duration": 6, "velocity": 63}, {"time": 4171, "pitch": 55, "duration": 12, "velocity": 75}, {"time": 4171, "pitch": 67, "duration": 10, "velocity": 98}, {"time": 4174, "pitch": 63, "duration": 7, "velocity": 38}, {"time": 4177, "pitch": 60, "duration": 7, "velocity": 63}, {"time": 4177, "pitch": 60, "duration": 7, "velocity": 66}, {"time": 4183, "pitch": 63, "duration": 10, "velocity": 61}, {"time": 4183, "pitch": 67, "duration": 10, "velocity": 70}, {"time": 4189, "pitch": 60, "duration": 15, "velocity": 67}, {"time": 4195, "pitch": 63, "duration": 11, "velocity": 73}, {"time": 4195, "pitch": 67, "duration": 11, "velocity": 86}, {"time": 4207, "pitch": 53, "duration": 40, "velocity": 81}, {"time": 4207, "pitch": 68, "duration": 15, "velocity": 87}, {"time": 4213, "pitch": 60, "duration": 33, "velocity": 60}, {"time": 4219, "pitch": 65, "duration": 8, "velocity": 59}, {"time": 4225, "pitch": 68, "duration": 17, "velocity": 83}, {"time": 4225, "pitch": 72, "duration": 17, "velocity": 81}, {"time": 4234, "pitch": 65, "duration": 3, "velocity": 59}, {"time": 4237, "pitch": 65, "duration": 1, "velocity": 65}, {"time": 4243, "pitch": 68, "duration": 6, "velocity": 76}, {"time": 4243, "pitch": 72, "duration": 5, "velocity": 83}, {"time": 4255, "pitch": 46, "duration": 42, "velocity": 75}, {"time": 4255, "pitch": 62, "duration": 10, "velocity": 68}, {"time": 4255, "pitch": 65, "duration": 10, "velocity": 70}, {"time": 4261, "pitch": 53, "duration": 41, "velocity": 73}, {"time": 4267, "pitch": 62, "duration": 10, "velocity": 59}, {"time": 4267, "pitch": 65, "duration": 10, "velocity": 54}, {"time": 4267, "pitch": 70, "duration": 10, "velocity": 66}, {"time": 4273, "pitch": 58, "duration": 8, "velocity": 56}, {"time": 4279, "pitch": 62, "duration": 9, "velocity": 63}, {"time": 4279, "pitch": 65, "duration": 9, "velocity": 67}, {"time": 4279, "pitch": 70, "duration": 10, "velocity": 74}, {"time": 4285, "pitch": 58, "duration": 6, "velocity": 59}, {"time": 4291, "pitch": 62, "duration": 6, "velocity": 74}, {"time": 4291, "pitch": 65, "duration": 6, "velocity": 93}, {"time": 4291, "pitch": 70, "duration": 6, "velocity": 93}, {"time": 4297, "pitch": 58, "duration": 5, "velocity": 63}, {"time": 4300, "pitch": 63, "duration": 1, "velocity": 47}, {"time": 4303, "pitch": 48, "duration": 46, "velocity": 66}, {"time": 4303, "pitch": 63, "duration": 10, "velocity": 64}, {"time": 4303, "pitch": 67, "duration": 10, "velocity": 66}, {"time": 4303, "pitch": 72, "duration": 6, "velocity": 72}, {"time": 4309, "pitch": 55, "duration": 42, "velocity": 69}, {"time": 4315, "pitch": 63, "duration": 10, "velocity": 74}, {"time": 4315, "pitch": 67, "duration": 10, "velocity": 87}, {"time": 4321, "pitch": 60, "duration": 8, "velocity": 59}, {"time": 4327, "pitch": 63, "duration": 10, "velocity": 73}, {"time": 4327, "pitch": 67, "duration": 10, "velocity": 81}, {"time": 4333, "pitch": 60, "duration": 8, "velocity": 58}, {"time": 4339, "pitch": 63, "duration": 11, "velocity": 74}, {"time": 4339, "pitch": 67, "duration": 11, "velocity": 81}, {"time": 4345, "pitch": 60, "duration": 4, "velocity": 52}, {"time": 4351, "pitch": 48, "duration": 23, "velocity": 79}, {"time": 4351, "pitch": 63, "duration": 22, "velocity": 83}, {"time": 4351, "pitch": 67, "duration": 22, "velocity": 90}, {"time": 4357, "pitch": 55, "duration": 17, "velocity": 58}, {"time": 4375, "pitch": 48, "duration": 41, "velocity": 95}, {"time": 4375, "pitch": 63, "duration": 40, "velocity": 83}, {"time": 4375, "pitch": 67, "duration": 40, "velocity": 90}], "annotations": [{"time": 93, "annotation": {"number": 64, "value": 73}, "group": "control_change"}, {"time": 117, "annotation": {"number": 64, "value": 74}, "group": "control_change"}, {"time": 124, "annotation": {"number": 64, "value": 75}, "group": "control_change"}, {"time": 367, "annotation": {"number": 64, "value": 18}, "group": "control_change"}, {"time": 368, "annotation": {"number": 64, "value": 19}, "group": "control_change"}, {"time": 369, "annotation": {"number": 64, "value": 20}, "group": "control_change"}, {"time": 370, "annotation": {"number": 64, "value": 21}, "group": "control_change"}, {"time": 372, "annotation": {"number": 64, "value": 22}, "group": "control_change"}, {"time": 373, "annotation": {"number": 64, "value": 23}, "group": "control_change"}, {"time": 373, "annotation": {"number": 64, "value": 24}, "group": "control_change"}, {"time": 374, "annotation": {"number": 64, "value": 25}, "group": "control_change"}, {"time": 375, "annotation": {"number": 64, "value": 26}, "group": "control_change"}, {"time": 376, "annotation": {"number": 64, "value": 27}, "group": "control_change"}, {"time": 381, "annotation": {"number": 64, "value": 26}, "group": "control_change"}, {"time": 382, "annotation": {"number": 64, "value": 25}, "group": "control_change"}, {"time": 382, "annotation": {"number": 64, "value": 24}, "group": "control_change"}, {"time": 383, "annotation": {"number": 64, "value": 23}, "group": "control_change"}, {"time": 384, "annotation": {"number": 64, "value": 22}, "group": "control_change"}, {"time": 384, "annotation": {"number": 64, "value": 21}, "group": "control_change"}, {"time": 385, "annotation": {"number": 64, "value": 20}, "group": "control_change"}, {"time": 386, "annotation": {"number": 64, "value": 19}, "group": "control_change"}, {"time": 386, "annotation": {"number": 64, "value": 18}, "group": "control_change"}, {"time": 391, "annotation": {"number": 64, "value": 17}, "group": "control_change"}, {"time": 392, "annotation": {"number": 64, "value": 16}, "group": "control_change"}, {"time": 399, "annotation": {"number": 64, "value": 17}, "group": "control_change"}, {"time": 414, "annotation": {"number": 64, "value": 76}, "group": "control_change"}, {"time": 416, "annotation": {"number": 64, "value": 76}, "group": "control_change"}, {"time": 417, "annotation": {"number": 64, "value": 77}, "group": "control_change"}, {"time": 418, "annotation": {"number": 64, "value": 78}, "group": "control_change"}, {"time": 419, "annotation": {"number": 64, "value": 79}, "group": "control_change"}, {"time": 419, "annotation": {"number": 64, "value": 80}, "group": "control_change"}, {"time": 420, "annotation": {"number": 64, "value": 80}, "group": "control_change"}, {"time": 420, "annotation": {"number": 64, "value": 81}, "group": "control_change"}, {"time": 420, "annotation": {"number": 64, "value": 82}, "group": "control_change"}, {"time": 421, "annotation": {"number": 64, "value": 83}, "group": "control_change"}, {"time": 422, "annotation": {"number": 64, "value": 84}, "group": "control_change"}, {"time": 422, "annotation": {"number": 64, "value": 83}, "group": "control_change"}, {"time": 423, "annotation": {"number": 64, "value": 82}, "group": "control_change"}, {"time": 423, "annotation": {"number": 64, "value": 81}, "group": "control_change"}, {"time": 424, "annotation": {"number": 64, "value": 80}, "group": "control_change"}, {"time": 424, "annotation": {"number": 64, "value": 79}, "group": "control_change"}, {"time": 425, "annotation": {"number": 64, "value": 78}, "group": "control_change"}, {"time": 425, "annotation": {"number": 64, "value": 77}, "group": "control_change"}, {"time": 426, "annotation": {"number": 64, "value": 76}, "group": "control_change"}, {"time": 427, "annotation": {"number": 64, "value": 76}, "group": "control_change"}, {"time": 428, "annotation": {"number": 64, "value": 77}, "group": "control_change"}, {"time": 428, "annotation": {"number": 64, "value": 78}, "group": "control_change"}, {"time": 428, "annotation": {"number": 64, "value": 79}, "group": "control_change"}, {"time": 429, "annotation": {"number": 64, "value": 79}, "group": "control_change"}, {"time": 429, "annotation": {"number": 64, "value": 80}, "group": "control_change"}, {"time": 430, "annotation": {"number": 64, "value": 81}, "group": "control_change"}, {"time": 430, "annotation": {"number": 64, "value": 82}, "group": "control_change"}, {"time": 431, "annotation": {"number": 64, "value": 83}, "group": "control_change"}, {"time": 594, "annotation": {"number": 64, "value": 75}, "group": "control_change"}, {"time": 597, "annotation": {"number": 64, "value": 76}, "group": "control_change"}, {"time": 597, "annotation": {"number": 64, "value": 77}, "group": "control_change"}, {"time": 597, "annotation": {"number": 64, "value": 78}, "group": "control_change"}, {"time": 598, "annotation": {"number": 64, "value": 79}, "group": "control_change"}, {"time": 599, "annotation": {"number": 64, "value": 80}, "group": "control_change"}, {"time": 3829, "annotation": {"number": 64, "value": 75}, "group": "control_change"}, {"time": 3830, "annotation": {"number": 64, "value": 74}, "group": "control_change"}, {"time": 3831, "annotation": {"number": 64, "value": 73}, "group": "control_change"}, {"time": 3832, "annotation": {"number": 64, "value": 72}, "group": "control_change"}, {"time": 3833, "annotation": {"number": 64, "value": 71}, "group": "control_change"}, {"time": 3834, "annotation": {"number": 64, "value": 70}, "group": "control_change"}, {"time": 3837, "annotation": {"number": 64, "value": 69}, "group": "control_change"}, {"time": 3838, "annotation": {"number": 64, "value": 68}, "group": "control_change"}, {"time": 3838, "annotation": {"number": 64, "value": 67}, "group": "control_change"}, {"time": 3839, "annotation": {"number": 64, "value": 66}, "group": "control_change"}, {"time": 3839, "annotation": {"number": 64, "value": 65}, "group": "control_change"}, {"time": 3840, "annotation": {"number": 64, "value": 64}, "group": "control_change"}, {"time": 3841, "annotation": {"number": 64, "value": 63}, "group": "control_change"}, {"time": 3843, "annotation": {"number": 64, "value": 62}, "group": "control_change"}, {"time": 3843, "annotation": {"number": 64, "value": 61}, "group": "control_change"}, {"time": 3845, "annotation": {"number": 64, "value": 60}, "group": "control_change"}, {"time": 3846, "annotation": {"number": 64, "value": 59}, "group": "control_change"}, {"time": 3848, "annotation": {"number": 64, "value": 59}, "group": "control_change"}, {"time": 3850, "annotation": {"number": 64, "value": 60}, "group": "control_change"}, {"time": 3850, "annotation": {"number": 64, "value": 61}, "group": "control_change"}, {"time": 3850, "annotation": {"number": 64, "value": 62}, "group": "control_change"}, {"time": 3851, "annotation": {"number": 64, "value": 63}, "group": "control_change"}, {"time": 3852, "annotation": {"number": 64, "value": 64}, "group": "control_change"}, {"time": 3853, "annotation": {"number": 64, "value": 65}, "group": "control_change"}, {"time": 3854, "annotation": {"number": 64, "value": 66}, "group": "control_change"}, {"time": 3855, "annotation": {"number": 64, "value": 67}, "group": "control_change"}, {"time": 3860, "annotation": {"number": 64, "value": 68}, "group": "control_change"}, {"time": 3864, "annotation": {"number": 64, "value": 69}, "group": "control_change"}, {"time": 3867, "annotation": {"number": 64, "value": 70}, "group": "control_change"}, {"time": 3868, "annotation": {"number": 64, "value": 71}, "group": "control_change"}, {"time": 3870, "annotation": {"number": 64, "value": 72}, "group": "control_change"}, {"time": 3878, "annotation": {"number": 64, "value": 73}, "group": "control_change"}, {"time": 3879, "annotation": {"number": 64, "value": 72}, "group": "control_change"}, {"time": 3879, "annotation": {"number": 64, "value": 71}, "group": "control_change"}, {"time": 3879, "annotation": {"number": 64, "value": 70}, "group": "control_change"}, {"time": 3884, "annotation": {"number": 64, "value": 69}, "group": "control_change"}, {"time": 3885, "annotation": {"number": 64, "value": 68}, "group": "control_change"}, {"time": 3886, "annotation": {"number": 64, "value": 71}, "group": "control_change"}, {"time": 3886, "annotation": {"number": 64, "value": 72}, "group": "control_change"}, {"time": 3886, "annotation": {"number": 64, "value": 30}, "group": "control_change"}, {"time": 3887, "annotation": {"number": 64, "value": 29}, "group": "control_change"}, {"time": 3887, "annotation": {"number": 64, "value": 28}, "group": "control_change"}, {"time": 3887, "annotation": {"number": 64, "value": 27}, "group": "control_change"}, {"time": 3888, "annotation": {"number": 64, "value": 26}, "group": "control_change"}, {"time": 3889, "annotation": {"number": 64, "value": 25}, "group": "control_change"}, {"time": 3896, "annotation": {"number": 64, "value": 26}, "group": "control_change"}, {"time": 3897, "annotation": {"number": 64, "value": 27}, "group": "control_change"}, {"time": 3898, "annotation": {"number": 64, "value": 28}, "group": "control_change"}, {"time": 3898, "annotation": {"number": 64, "value": 29}, "group": "control_change"}, {"time": 3899, "annotation": {"number": 64, "value": 30}, "group": "control_change"}, {"time": 3900, "annotation": {"number": 64, "value": 31}, "group": "control_change"}, {"time": 3901, "annotation": {"number": 64, "value": 32}, "group": "control_change"}, {"time": 3903, "annotation": {"number": 64, "value": 33}, "group": "control_change"}, {"time": 3906, "annotation": {"number": 64, "value": 32}, "group": "control_change"}, {"time": 3907, "annotation": {"number": 64, "value": 31}, "group": "control_change"}, {"time": 3908, "annotation": {"number": 64, "value": 30}, "group": "control_change"}, {"time": 3908, "annotation": {"number": 64, "value": 29}, "group": "control_change"}, {"time": 3909, "annotation": {"number": 64, "value": 28}, "group": "control_change"}, {"time": 3910, "annotation": {"number": 64, "value": 72}, "group": "control_change"}, {"time": 4061, "annotation": {"number": 64, "value": 21}, "group": "control_change"}, {"time": 4063, "annotation": {"number": 64, "value": 22}, "group": "control_change"}, {"time": 4069, "annotation": {"number": 64, "value": 23}, "group": "control_change"}, {"time": 4070, "annotation": {"number": 64, "value": 23}, "group": "control_change"}, {"time": 4071, "annotation": {"number": 64, "value": 24}, "group": "control_change"}, {"time": 4072, "annotation": {"number": 64, "value": 25}, "group": "control_change"}, {"time": 4073, "annotation": {"number": 64, "value": 26}, "group": "control_change"}, {"time": 4074, "annotation": {"number": 64, "value": 27}, "group": "control_change"}, {"time": 4074, "annotation": {"number": 64, "value": 28}, "group": "control_change"}, {"time": 4074, "annotation": {"number": 64, "value": 29}, "group": "control_change"}, {"time": 4075, "annotation": {"number": 64, "value": 30}, "group": "control_change"}, {"time": 4076, "annotation": {"number": 64, "value": 31}, "group": "control_change"}, {"time": 4078, "annotation": {"number": 64, "value": 32}, "group": "control_change"}, {"time": 4079, "annotation": {"number": 64, "value": 33}, "group": "control_change"}, {"time": 4080, "annotation": {"number": 64, "value": 33}, "group": "control_change"}, {"time": 4080, "annotation": {"number": 64, "value": 34}, "group": "control_change"}, {"time": 4081, "annotation": {"number": 64, "value": 35}, "group": "control_change"}, {"time": 4086, "annotation": {"number": 64, "value": 36}, "group": "control_change"}, {"time": 4158, "annotation": {"number": 64, "value": 73}, "group": "control_change"}, {"time": 4159, "annotation": {"number": 64, "value": 74}, "group": "control_change"}, {"time": 4160, "annotation": {"number": 64, "value": 75}, "group": "control_change"}, {"time": 4160, "annotation": {"number": 64, "value": 76}, "group": "control_change"}, {"time": 4160, "annotation": {"number": 64, "value": 77}, "group": "control_change"}, {"time": 4161, "annotation": {"number": 64, "value": 77}, "group": "control_change"}, {"time": 4161, "annotation": {"number": 64, "value": 78}, "group": "control_change"}, {"time": 4162, "annotation": {"number": 64, "value": 79}, "group": "control_change"}, {"time": 4163, "annotation": {"number": 64, "value": 80}, "group": "control_change"}, {"time": 4165, "annotation": {"number": 64, "value": 81}, "group": "control_change"}, {"time": 4170, "annotation": {"number": 64, "value": 80}, "group": "control_change"}, {"time": 4171, "annotation": {"number": 64, "value": 79}, "group": "control_change"}, {"time": 4171, "annotation": {"number": 64, "value": 78}, "group": "control_change"}, {"time": 4172, "annotation": {"number": 64, "value": 77}, "group": "control_change"}, {"time": 4173, "annotation": {"number": 64, "value": 76}, "group": "control_change"}, {"time": 4174, "annotation": {"number": 64, "value": 75}, "group": "control_change"}, {"time": 4175, "annotation": {"number": 64, "value": 76}, "group": "control_change"}, {"time": 4176, "annotation": {"number": 64, "value": 77}, "group": "control_change"}, {"time": 4176, "annotation": {"number": 64, "value": 78}, "group": "control_change"}, {"time": 4178, "annotation": {"number": 64, "value": 79}, "group": "control_change"}, {"time": 4179, "annotation": {"number": 64, "value": 80}, "group": "control_change"}, {"time": 4180, "annotation": {"number": 64, "value": 81}, "group": "control_change"}, {"time": 4181, "annotation": {"number": 64, "value": 81}, "group": "control_change"}, {"time": 4181, "annotation": {"number": 64, "value": 82}, "group": "control_change"}, {"time": 4182, "annotation": {"number": 64, "value": 83}, "group": "control_change"}, {"time": 4183, "annotation": {"number": 64, "value": 84}, "group": "control_change"}]}]}