{"metadata": {"schema_version": "0.2", "title": "None", "source_filename": "154.mid", "source_format": "midi"}, "resolution": 12, "tempos": [{"time": 0, "qpm": 94.99999208333399}, {"time": 1548, "qpm": 96.0}, {"time": 1608, "qpm": 94.99999208333399}], "time_signatures": [{"time": 0, "numerator": 1, "denominator": 4}], "tracks": [{"program": 0, "is_drum": false, "name": "MELODY", "notes": [{"time": 32, "pitch": 69, "duration": 13, "velocity": 54}, {"time": 44, "pitch": 78, "duration": 12, "velocity": 75}, {"time": 56, "pitch": 81, "duration": 7, "velocity": 75}, {"time": 62, "pitch": 76, "duration": 18, "velocity": 66}, {"time": 80, "pitch": 69, "duration": 12, "velocity": 60}, {"time": 92, "pitch": 78, "duration": 11, "velocity": 73}, {"time": 101, "pitch": 81, "duration": 9, "velocity": 81}, {"time": 110, "pitch": 76, "duration": 24, "velocity": 71}, {"time": 134, "pitch": 69, "duration": 6, "velocity": 51}, {"time": 140, "pitch": 78, "duration": 12, "velocity": 67}, {"time": 152, "pitch": 81, "duration": 6, "velocity": 62}, {"time": 158, "pitch": 76, "duration": 12, "velocity": 72}, {"time": 170, "pitch": 74, "duration": 6, "velocity": 63}, {"time": 176, "pitch": 76, "duration": 6, "velocity": 75}, {"time": 182, "pitch": 74, "duration": 6, "velocity": 59}, {"time": 188, "pitch": 76, "duration": 12, "velocity": 65}, {"time": 200, "pitch": 78, "duration": 6, "velocity": 64}, {"time": 206, "pitch": 71, "duration": 14, "velocity": 67}, {"time": 218, "pitch": 74, "duration": 18, "velocity": 64}, {"time": 236, "pitch": 81, "duration": 10, "velocity": 76}, {"time": 245, "pitch": 78, "duration": 9, "velocity": 58}, {"time": 254, "pitch": 76, "duration": 12, "velocity": 61}, {"time": 266, "pitch": 76, "duration": 12, "velocity": 67}, {"time": 278, "pitch": 76, "duration": 1, "velocity": 64}, {"time": 284, "pitch": 76, "duration": 6, "velocity": 63}, {"time": 290, "pitch": 74, "duration": 6, "velocity": 60}, {"time": 296, "pitch": 76, "duration": 6, "velocity": 63}, {"time": 302, "pitch": 71, "duration": 12, "velocity": 59}, {"time": 314, "pitch": 76, "duration": 18, "velocity": 69}, {"time": 332, "pitch": 76, "duration": 5, "velocity": 65}, {"time": 337, "pitch": 71, "duration": 7, "velocity": 58}, {"time": 344, "pitch": 71, "duration": 6, "velocity": 54}, {"time": 350, "pitch": 71, "duration": 6, "velocity": 49}, {"time": 356, "pitch": 81, "duration": 8, "velocity": 73}, {"time": 365, "pitch": 81, "duration": 9, "velocity": 71}, {"time": 374, "pitch": 78, "duration": 48, "velocity": 71}, {"time": 422, "pitch": 69, "duration": 8, "velocity": 59}, {"time": 428, "pitch": 78, "duration": 12, "velocity": 65}, {"time": 440, "pitch": 81, "duration": 6, "velocity": 74}, {"time": 446, "pitch": 76, "duration": 24, "velocity": 55}, {"time": 470, "pitch": 69, "duration": 6, "velocity": 47}, {"time": 476, "pitch": 78, "duration": 12, "velocity": 66}, {"time": 488, "pitch": 81, "duration": 6, "velocity": 70}, {"time": 494, "pitch": 76, "duration": 24, "velocity": 67}, {"time": 518, "pitch": 69, "duration": 6, "velocity": 35}, {"time": 524, "pitch": 78, "duration": 12, "velocity": 61}, {"time": 536, "pitch": 81, "duration": 6, "velocity": 63}, {"time": 542, "pitch": 76, "duration": 12, "velocity": 61}, {"time": 554, "pitch": 74, "duration": 6, "velocity": 58}, {"time": 560, "pitch": 76, "duration": 6, "velocity": 60}, {"time": 566, "pitch": 74, "duration": 6, "velocity": 52}, {"time": 572, "pitch": 76, "duration": 12, "velocity": 61}, {"time": 584, "pitch": 76, "duration": 7, "velocity": 61}, {"time": 590, "pitch": 78, "duration": 6, "velocity": 42}, {"time": 596, "pitch": 71, "duration": 9, "velocity": 60}, {"time": 605, "pitch": 74, "duration": 15, "velocity": 60}, {"time": 620, "pitch": 81, "duration": 12, "velocity": 74}, {"time": 632, "pitch": 78, "duration": 6, "velocity": 66}, {"time": 638, "pitch": 76, "duration": 12, "velocity": 60}, {"time": 650, "pitch": 76, "duration": 12, "velocity": 68}, {"time": 662, "pitch": 76, "duration": 6, "velocity": 65}, {"time": 668, "pitch": 76, "duration": 8, "velocity": 73}, {"time": 676, "pitch": 76, "duration": 10, "velocity": 75}, {"time": 686, "pitch": 76, "duration": 12, "velocity": 69}, {"time": 698, "pitch": 76, "duration": 12, "velocity": 74}, {"time": 710, "pitch": 71, "duration": 6, "velocity": 54}, {"time": 716, "pitch": 76, "duration": 11, "velocity": 71}, {"time": 722, "pitch": 71, "duration": 12, "velocity": 59}, {"time": 734, "pitch": 76, "duration": 12, "velocity": 67}, {"time": 746, "pitch": 74, "duration": 90, "velocity": 64}, {"time": 836, "pitch": 74, "duration": 6, "velocity": 68}, {"time": 842, "pitch": 74, "duration": 6, "velocity": 68}, {"time": 848, "pitch": 74, "duration": 6, "velocity": 75}, {"time": 854, "pitch": 74, "duration": 6, "velocity": 65}, {"time": 860, "pitch": 74, "duration": 8, "velocity": 64}, {"time": 869, "pitch": 74, "duration": 9, "velocity": 67}, {"time": 878, "pitch": 69, "duration": 6, "velocity": 57}, {"time": 884, "pitch": 73, "duration": 18, "velocity": 95}, {"time": 902, "pitch": 74, "duration": 30, "velocity": 69}, {"time": 932, "pitch": 74, "duration": 6, "velocity": 65}, {"time": 938, "pitch": 71, "duration": 6, "velocity": 52}, {"time": 944, "pitch": 74, "duration": 6, "velocity": 60}, {"time": 950, "pitch": 71, "duration": 6, "velocity": 46}, {"time": 956, "pitch": 78, "duration": 8, "velocity": 65}, {"time": 965, "pitch": 78, "duration": 9, "velocity": 76}, {"time": 974, "pitch": 74, "duration": 6, "velocity": 74}, {"time": 980, "pitch": 76, "duration": 48, "velocity": 79}, {"time": 1028, "pitch": 78, "duration": 8, "velocity": 74}, {"time": 1037, "pitch": 78, "duration": 9, "velocity": 64}, {"time": 1046, "pitch": 83, "duration": 12, "velocity": 81}, {"time": 1058, "pitch": 78, "duration": 18, "velocity": 59}, {"time": 1076, "pitch": 76, "duration": 6, "velocity": 67}, {"time": 1082, "pitch": 76, "duration": 12, "velocity": 71}, {"time": 1094, "pitch": 78, "duration": 24, "velocity": 63}, {"time": 1118, "pitch": 71, "duration": 7, "velocity": 53}, {"time": 1124, "pitch": 79, "duration": 6, "velocity": 75}, {"time": 1130, "pitch": 78, "duration": 6, "velocity": 49}, {"time": 1136, "pitch": 74, "duration": 6, "velocity": 64}, {"time": 1142, "pitch": 71, "duration": 6, "velocity": 60}, {"time": 1148, "pitch": 74, "duration": 8, "velocity": 58}, {"time": 1157, "pitch": 74, "duration": 9, "velocity": 67}, {"time": 1166, "pitch": 71, "duration": 6, "velocity": 62}, {"time": 1172, "pitch": 78, "duration": 7, "velocity": 72}, {"time": 1178, "pitch": 76, "duration": 42, "velocity": 74}, {"time": 1220, "pitch": 74, "duration": 6, "velocity": 68}, {"time": 1226, "pitch": 74, "duration": 6, "velocity": 68}, {"time": 1232, "pitch": 74, "duration": 6, "velocity": 75}, {"time": 1238, "pitch": 74, "duration": 6, "velocity": 65}, {"time": 1244, "pitch": 74, "duration": 8, "velocity": 64}, {"time": 1253, "pitch": 74, "duration": 9, "velocity": 67}, {"time": 1262, "pitch": 69, "duration": 6, "velocity": 57}, {"time": 1268, "pitch": 73, "duration": 18, "velocity": 95}, {"time": 1286, "pitch": 74, "duration": 30, "velocity": 69}, {"time": 1316, "pitch": 74, "duration": 6, "velocity": 65}, {"time": 1322, "pitch": 71, "duration": 6, "velocity": 52}, {"time": 1328, "pitch": 74, "duration": 6, "velocity": 60}, {"time": 1334, "pitch": 71, "duration": 6, "velocity": 46}, {"time": 1340, "pitch": 78, "duration": 8, "velocity": 65}, {"time": 1349, "pitch": 78, "duration": 9, "velocity": 76}, {"time": 1358, "pitch": 74, "duration": 6, "velocity": 74}, {"time": 1364, "pitch": 76, "duration": 48, "velocity": 79}, {"time": 1412, "pitch": 78, "duration": 8, "velocity": 74}, {"time": 1421, "pitch": 78, "duration": 9, "velocity": 64}, {"time": 1430, "pitch": 83, "duration": 12, "velocity": 81}, {"time": 1442, "pitch": 78, "duration": 18, "velocity": 59}, {"time": 1460, "pitch": 76, "duration": 6, "velocity": 67}, {"time": 1466, "pitch": 76, "duration": 12, "velocity": 71}, {"time": 1478, "pitch": 78, "duration": 24, "velocity": 63}, {"time": 1502, "pitch": 71, "duration": 7, "velocity": 53}, {"time": 1508, "pitch": 79, "duration": 6, "velocity": 75}, {"time": 1514, "pitch": 78, "duration": 6, "velocity": 49}, {"time": 1520, "pitch": 74, "duration": 6, "velocity": 64}, {"time": 1526, "pitch": 71, "duration": 6, "velocity": 60}, {"time": 1532, "pitch": 74, "duration": 8, "velocity": 58}, {"time": 1541, "pitch": 74, "duration": 9, "velocity": 67}, {"time": 1550, "pitch": 76, "duration": 6, "velocity": 62}, {"time": 1556, "pitch": 74, "duration": 60, "velocity": 67}, {"time": 1616, "pitch": 69, "duration": 13, "velocity": 54}, {"time": 1628, "pitch": 78, "duration": 12, "velocity": 75}, {"time": 1640, "pitch": 81, "duration": 7, "velocity": 75}, {"time": 1646, "pitch": 76, "duration": 18, "velocity": 66}, {"time": 1664, "pitch": 69, "duration": 12, "velocity": 60}, {"time": 1676, "pitch": 78, "duration": 12, "velocity": 73}, {"time": 1688, "pitch": 81, "duration": 7, "velocity": 81}, {"time": 1694, "pitch": 76, "duration": 24, "velocity": 71}, {"time": 1718, "pitch": 69, "duration": 6, "velocity": 51}, {"time": 1724, "pitch": 78, "duration": 12, "velocity": 67}, {"time": 1736, "pitch": 81, "duration": 6, "velocity": 62}, {"time": 1742, "pitch": 76, "duration": 12, "velocity": 72}, {"time": 1754, "pitch": 74, "duration": 6, "velocity": 63}, {"time": 1760, "pitch": 76, "duration": 6, "velocity": 75}, {"time": 1766, "pitch": 74, "duration": 6, "velocity": 59}, {"time": 1772, "pitch": 76, "duration": 12, "velocity": 65}, {"time": 1784, "pitch": 78, "duration": 6, "velocity": 64}, {"time": 1790, "pitch": 71, "duration": 14, "velocity": 67}, {"time": 1802, "pitch": 74, "duration": 18, "velocity": 64}, {"time": 1820, "pitch": 81, "duration": 10, "velocity": 76}, {"time": 1829, "pitch": 78, "duration": 9, "velocity": 58}, {"time": 1838, "pitch": 76, "duration": 12, "velocity": 61}, {"time": 1850, "pitch": 76, "duration": 12, "velocity": 67}, {"time": 1862, "pitch": 76, "duration": 6, "velocity": 64}, {"time": 1868, "pitch": 76, "duration": 6, "velocity": 63}, {"time": 1874, "pitch": 74, "duration": 6, "velocity": 60}, {"time": 1880, "pitch": 76, "duration": 6, "velocity": 63}, {"time": 1886, "pitch": 71, "duration": 12, "velocity": 59}, {"time": 1898, "pitch": 76, "duration": 18, "velocity": 69}, {"time": 1916, "pitch": 76, "duration": 5, "velocity": 65}, {"time": 1921, "pitch": 71, "duration": 7, "velocity": 58}, {"time": 1928, "pitch": 71, "duration": 6, "velocity": 54}, {"time": 1934, "pitch": 71, "duration": 6, "velocity": 49}, {"time": 1940, "pitch": 81, "duration": 8, "velocity": 73}, {"time": 1949, "pitch": 81, "duration": 9, "velocity": 71}, {"time": 1958, "pitch": 78, "duration": 48, "velocity": 71}, {"time": 2006, "pitch": 69, "duration": 6, "velocity": 59}, {"time": 2012, "pitch": 78, "duration": 12, "velocity": 65}, {"time": 2024, "pitch": 81, "duration": 6, "velocity": 74}, {"time": 2030, "pitch": 76, "duration": 24, "velocity": 55}, {"time": 2054, "pitch": 69, "duration": 6, "velocity": 47}, {"time": 2060, "pitch": 78, "duration": 12, "velocity": 66}, {"time": 2072, "pitch": 81, "duration": 6, "velocity": 70}, {"time": 2078, "pitch": 76, "duration": 24, "velocity": 67}, {"time": 2102, "pitch": 69, "duration": 6, "velocity": 58}, {"time": 2108, "pitch": 78, "duration": 12, "velocity": 61}, {"time": 2120, "pitch": 81, "duration": 6, "velocity": 63}, {"time": 2126, "pitch": 76, "duration": 12, "velocity": 61}, {"time": 2138, "pitch": 74, "duration": 6, "velocity": 58}, {"time": 2144, "pitch": 76, "duration": 6, "velocity": 60}, {"time": 2150, "pitch": 74, "duration": 6, "velocity": 52}, {"time": 2156, "pitch": 76, "duration": 12, "velocity": 61}, {"time": 2168, "pitch": 76, "duration": 7, "velocity": 61}, {"time": 2174, "pitch": 78, "duration": 6, "velocity": 42}, {"time": 2180, "pitch": 71, "duration": 9, "velocity": 60}, {"time": 2189, "pitch": 74, "duration": 15, "velocity": 60}, {"time": 2204, "pitch": 81, "duration": 12, "velocity": 74}, {"time": 2216, "pitch": 78, "duration": 6, "velocity": 66}, {"time": 2222, "pitch": 76, "duration": 12, "velocity": 60}, {"time": 2234, "pitch": 76, "duration": 12, "velocity": 68}, {"time": 2246, "pitch": 76, "duration": 6, "velocity": 65}, {"time": 2252, "pitch": 76, "duration": 8, "velocity": 73}, {"time": 2260, "pitch": 76, "duration": 10, "velocity": 75}, {"time": 2270, "pitch": 76, "duration": 12, "velocity": 69}, {"time": 2282, "pitch": 76, "duration": 12, "velocity": 74}, {"time": 2294, "pitch": 71, "duration": 6, "velocity": 54}, {"time": 2300, "pitch": 76, "duration": 11, "velocity": 71}, {"time": 2306, "pitch": 71, "duration": 12, "velocity": 59}, {"time": 2318, "pitch": 76, "duration": 12, "velocity": 67}, {"time": 2330, "pitch": 74, "duration": 61, "velocity": 64}, {"time": 2612, "pitch": 74, "duration": 6, "velocity": 68}, {"time": 2618, "pitch": 74, "duration": 6, "velocity": 68}, {"time": 2624, "pitch": 74, "duration": 6, "velocity": 75}, {"time": 2630, "pitch": 74, "duration": 6, "velocity": 65}, {"time": 2636, "pitch": 74, "duration": 8, "velocity": 64}, {"time": 2645, "pitch": 74, "duration": 9, "velocity": 67}, {"time": 2654, "pitch": 69, "duration": 6, "velocity": 57}, {"time": 2660, "pitch": 73, "duration": 18, "velocity": 95}, {"time": 2678, "pitch": 74, "duration": 30, "velocity": 69}, {"time": 2708, "pitch": 74, "duration": 6, "velocity": 65}, {"time": 2714, "pitch": 71, "duration": 6, "velocity": 52}, {"time": 2720, "pitch": 74, "duration": 6, "velocity": 60}, {"time": 2726, "pitch": 71, "duration": 6, "velocity": 46}, {"time": 2732, "pitch": 78, "duration": 8, "velocity": 65}, {"time": 2741, "pitch": 78, "duration": 9, "velocity": 76}, {"time": 2750, "pitch": 74, "duration": 6, "velocity": 74}, {"time": 2756, "pitch": 76, "duration": 48, "velocity": 79}, {"time": 2804, "pitch": 78, "duration": 8, "velocity": 74}, {"time": 2813, "pitch": 78, "duration": 9, "velocity": 64}, {"time": 2822, "pitch": 83, "duration": 12, "velocity": 81}, {"time": 2834, "pitch": 78, "duration": 18, "velocity": 59}, {"time": 2852, "pitch": 76, "duration": 6, "velocity": 67}, {"time": 2858, "pitch": 76, "duration": 12, "velocity": 71}, {"time": 2870, "pitch": 78, "duration": 24, "velocity": 63}, {"time": 2894, "pitch": 71, "duration": 7, "velocity": 53}, {"time": 2900, "pitch": 79, "duration": 6, "velocity": 75}, {"time": 2906, "pitch": 78, "duration": 6, "velocity": 49}, {"time": 2912, "pitch": 74, "duration": 6, "velocity": 64}, {"time": 2918, "pitch": 71, "duration": 6, "velocity": 60}, {"time": 2924, "pitch": 74, "duration": 8, "velocity": 58}, {"time": 2933, "pitch": 74, "duration": 9, "velocity": 67}, {"time": 2942, "pitch": 76, "duration": 6, "velocity": 62}, {"time": 2948, "pitch": 74, "duration": 84, "velocity": 67}, {"time": 3032, "pitch": 69, "duration": 13, "velocity": 54}, {"time": 3044, "pitch": 78, "duration": 12, "velocity": 75}, {"time": 3056, "pitch": 81, "duration": 7, "velocity": 75}, {"time": 3062, "pitch": 76, "duration": 18, "velocity": 66}, {"time": 3080, "pitch": 69, "duration": 12, "velocity": 60}, {"time": 3092, "pitch": 78, "duration": 12, "velocity": 73}, {"time": 3104, "pitch": 81, "duration": 7, "velocity": 81}, {"time": 3110, "pitch": 76, "duration": 24, "velocity": 71}, {"time": 3134, "pitch": 69, "duration": 6, "velocity": 51}, {"time": 3140, "pitch": 78, "duration": 12, "velocity": 67}, {"time": 3152, "pitch": 81, "duration": 6, "velocity": 62}, {"time": 3158, "pitch": 76, "duration": 12, "velocity": 72}, {"time": 3170, "pitch": 74, "duration": 6, "velocity": 63}, {"time": 3176, "pitch": 76, "duration": 6, "velocity": 75}, {"time": 3182, "pitch": 74, "duration": 6, "velocity": 59}, {"time": 3188, "pitch": 76, "duration": 12, "velocity": 65}, {"time": 3200, "pitch": 78, "duration": 6, "velocity": 64}, {"time": 3206, "pitch": 71, "duration": 14, "velocity": 67}, {"time": 3218, "pitch": 74, "duration": 18, "velocity": 64}, {"time": 3236, "pitch": 81, "duration": 10, "velocity": 76}, {"time": 3245, "pitch": 78, "duration": 9, "velocity": 58}, {"time": 3254, "pitch": 76, "duration": 12, "velocity": 61}, {"time": 3266, "pitch": 76, "duration": 12, "velocity": 67}, {"time": 3278, "pitch": 76, "duration": 6, "velocity": 64}, {"time": 3284, "pitch": 76, "duration": 6, "velocity": 63}, {"time": 3290, "pitch": 74, "duration": 6, "velocity": 60}, {"time": 3296, "pitch": 76, "duration": 6, "velocity": 63}, {"time": 3302, "pitch": 71, "duration": 12, "velocity": 59}, {"time": 3314, "pitch": 76, "duration": 18, "velocity": 69}, {"time": 3332, "pitch": 76, "duration": 5, "velocity": 65}, {"time": 3337, "pitch": 71, "duration": 7, "velocity": 58}, {"time": 3344, "pitch": 71, "duration": 6, "velocity": 54}, {"time": 3350, "pitch": 71, "duration": 6, "velocity": 49}, {"time": 3356, "pitch": 81, "duration": 8, "velocity": 73}, {"time": 3365, "pitch": 81, "duration": 9, "velocity": 71}, {"time": 3374, "pitch": 78, "duration": 48, "velocity": 71}, {"time": 3422, "pitch": 69, "duration": 6, "velocity": 59}, {"time": 3428, "pitch": 78, "duration": 12, "velocity": 65}, {"time": 3440, "pitch": 81, "duration": 6, "velocity": 74}, {"time": 3446, "pitch": 76, "duration": 24, "velocity": 55}, {"time": 3470, "pitch": 69, "duration": 6, "velocity": 47}, {"time": 3476, "pitch": 78, "duration": 12, "velocity": 66}, {"time": 3488, "pitch": 81, "duration": 6, "velocity": 70}, {"time": 3494, "pitch": 76, "duration": 24, "velocity": 67}, {"time": 3518, "pitch": 69, "duration": 6, "velocity": 58}, {"time": 3524, "pitch": 78, "duration": 12, "velocity": 61}, {"time": 3536, "pitch": 81, "duration": 6, "velocity": 63}, {"time": 3542, "pitch": 76, "duration": 12, "velocity": 61}, {"time": 3554, "pitch": 74, "duration": 6, "velocity": 58}, {"time": 3560, "pitch": 76, "duration": 6, "velocity": 60}, {"time": 3566, "pitch": 74, "duration": 6, "velocity": 52}, {"time": 3572, "pitch": 76, "duration": 12, "velocity": 61}, {"time": 3584, "pitch": 76, "duration": 7, "velocity": 61}, {"time": 3590, "pitch": 78, "duration": 6, "velocity": 42}, {"time": 3596, "pitch": 71, "duration": 9, "velocity": 60}, {"time": 3605, "pitch": 74, "duration": 15, "velocity": 60}, {"time": 3620, "pitch": 81, "duration": 12, "velocity": 74}, {"time": 3632, "pitch": 78, "duration": 6, "velocity": 66}, {"time": 3638, "pitch": 76, "duration": 12, "velocity": 60}, {"time": 3650, "pitch": 76, "duration": 12, "velocity": 68}, {"time": 3662, "pitch": 76, "duration": 6, "velocity": 65}, {"time": 3668, "pitch": 76, "duration": 8, "velocity": 73}, {"time": 3676, "pitch": 76, "duration": 10, "velocity": 75}, {"time": 3686, "pitch": 76, "duration": 12, "velocity": 69}, {"time": 3698, "pitch": 76, "duration": 12, "velocity": 74}, {"time": 3710, "pitch": 71, "duration": 6, "velocity": 54}, {"time": 3716, "pitch": 76, "duration": 11, "velocity": 71}, {"time": 3722, "pitch": 71, "duration": 12, "velocity": 59}, {"time": 3734, "pitch": 76, "duration": 12, "velocity": 67}, {"time": 3746, "pitch": 74, "duration": 66, "velocity": 64}, {"time": 3812, "pitch": 83, "duration": 6, "velocity": 112}, {"time": 3818, "pitch": 83, "duration": 6, "velocity": 111}, {"time": 3824, "pitch": 83, "duration": 6, "velocity": 111}, {"time": 3830, "pitch": 83, "duration": 6, "velocity": 108}, {"time": 3836, "pitch": 83, "duration": 8, "velocity": 108}, {"time": 3845, "pitch": 83, "duration": 9, "velocity": 117}, {"time": 3854, "pitch": 78, "duration": 6, "velocity": 86}, {"time": 3860, "pitch": 81, "duration": 48, "velocity": 122}, {"time": 3908, "pitch": 81, "duration": 6, "velocity": 114}, {"time": 3914, "pitch": 81, "duration": 6, "velocity": 120}, {"time": 3920, "pitch": 81, "duration": 6, "velocity": 114}, {"time": 3926, "pitch": 81, "duration": 6, "velocity": 117}, {"time": 3932, "pitch": 81, "duration": 9, "velocity": 117}, {"time": 3941, "pitch": 76, "duration": 9, "velocity": 95}, {"time": 3950, "pitch": 81, "duration": 6, "velocity": 122}, {"time": 3956, "pitch": 78, "duration": 48, "velocity": 100}, {"time": 4004, "pitch": 83, "duration": 6, "velocity": 85}, {"time": 4010, "pitch": 83, "duration": 6, "velocity": 81}, {"time": 4016, "pitch": 83, "duration": 6, "velocity": 98}, {"time": 4022, "pitch": 83, "duration": 6, "velocity": 98}, {"time": 4028, "pitch": 83, "duration": 8, "velocity": 112}, {"time": 4037, "pitch": 83, "duration": 9, "velocity": 112}, {"time": 4046, "pitch": 78, "duration": 6, "velocity": 98}, {"time": 4052, "pitch": 81, "duration": 24, "velocity": 108}, {"time": 4076, "pitch": 81, "duration": 12, "velocity": 112}, {"time": 4088, "pitch": 76, "duration": 6, "velocity": 90}, {"time": 4094, "pitch": 81, "duration": 12, "velocity": 112}, {"time": 4106, "pitch": 78, "duration": 90, "velocity": 112}, {"time": 4196, "pitch": 83, "duration": 6, "velocity": 86}, {"time": 4202, "pitch": 83, "duration": 6, "velocity": 81}, {"time": 4208, "pitch": 83, "duration": 6, "velocity": 90}, {"time": 4214, "pitch": 83, "duration": 6, "velocity": 95}, {"time": 4220, "pitch": 83, "duration": 6, "velocity": 90}, {"time": 4226, "pitch": 83, "duration": 9, "velocity": 93}, {"time": 4235, "pitch": 78, "duration": 9, "velocity": 74}, {"time": 4244, "pitch": 81, "duration": 48, "velocity": 111}, {"time": 4292, "pitch": 73, "duration": 6, "velocity": 108}, {"time": 4298, "pitch": 81, "duration": 6, "velocity": 74}, {"time": 4304, "pitch": 81, "duration": 6, "velocity": 71}, {"time": 4310, "pitch": 81, "duration": 6, "velocity": 83}, {"time": 4316, "pitch": 81, "duration": 9, "velocity": 95}, {"time": 4325, "pitch": 76, "duration": 9, "velocity": 85}, {"time": 4334, "pitch": 81, "duration": 6, "velocity": 95}, {"time": 4340, "pitch": 78, "duration": 48, "velocity": 81}, {"time": 4388, "pitch": 83, "duration": 6, "velocity": 95}, {"time": 4394, "pitch": 83, "duration": 6, "velocity": 85}, {"time": 4400, "pitch": 83, "duration": 6, "velocity": 95}, {"time": 4406, "pitch": 83, "duration": 6, "velocity": 90}, {"time": 4412, "pitch": 86, "duration": 9, "velocity": 100}, {"time": 4421, "pitch": 85, "duration": 9, "velocity": 104}, {"time": 4430, "pitch": 83, "duration": 12, "velocity": 90}, {"time": 4442, "pitch": 81, "duration": 36, "velocity": 98}, {"time": 4478, "pitch": 78, "duration": 6, "velocity": 79}, {"time": 4484, "pitch": 86, "duration": 76, "velocity": 86}, {"time": 4550, "pitch": 69, "duration": 6, "velocity": 51}, {"time": 4556, "pitch": 78, "duration": 12, "velocity": 87}, {"time": 4568, "pitch": 81, "duration": 7, "velocity": 69}, {"time": 4574, "pitch": 76, "duration": 24, "velocity": 90}, {"time": 4598, "pitch": 69, "duration": 6, "velocity": 64}, {"time": 4604, "pitch": 78, "duration": 12, "velocity": 104}, {"time": 4616, "pitch": 81, "duration": 6, "velocity": 79}, {"time": 4622, "pitch": 76, "duration": 24, "velocity": 86}, {"time": 4646, "pitch": 69, "duration": 8, "velocity": 54}, {"time": 4652, "pitch": 78, "duration": 12, "velocity": 95}, {"time": 4664, "pitch": 81, "duration": 6, "velocity": 74}, {"time": 4670, "pitch": 76, "duration": 12, "velocity": 74}, {"time": 4682, "pitch": 74, "duration": 6, "velocity": 67}, {"time": 4688, "pitch": 76, "duration": 7, "velocity": 76}, {"time": 4694, "pitch": 74, "duration": 7, "velocity": 74}, {"time": 4700, "pitch": 76, "duration": 8, "velocity": 76}, {"time": 4709, "pitch": 76, "duration": 9, "velocity": 77}, {"time": 4718, "pitch": 78, "duration": 6, "velocity": 71}, {"time": 4724, "pitch": 71, "duration": 12, "velocity": 76}, {"time": 4733, "pitch": 74, "duration": 17, "velocity": 86}, {"time": 4748, "pitch": 81, "duration": 12, "velocity": 86}, {"time": 4760, "pitch": 78, "duration": 6, "velocity": 74}, {"time": 4766, "pitch": 76, "duration": 12, "velocity": 86}, {"time": 4778, "pitch": 76, "duration": 12, "velocity": 85}, {"time": 4790, "pitch": 76, "duration": 6, "velocity": 83}, {"time": 4796, "pitch": 76, "duration": 12, "velocity": 76}, {"time": 4808, "pitch": 76, "duration": 6, "velocity": 83}, {"time": 4814, "pitch": 76, "duration": 12, "velocity": 83}, {"time": 4826, "pitch": 76, "duration": 16, "velocity": 93}, {"time": 4838, "pitch": 71, "duration": 6, "velocity": 69}, {"time": 4844, "pitch": 76, "duration": 12, "velocity": 87}, {"time": 4856, "pitch": 71, "duration": 9, "velocity": 77}, {"time": 4865, "pitch": 76, "duration": 15, "velocity": 100}, {"time": 4880, "pitch": 74, "duration": 88, "velocity": 93}]}, {"program": 0, "is_drum": false, "name": "BRIDGE", "notes": [{"time": 2414, "pitch": 69, "duration": 6, "velocity": 72}, {"time": 2420, "pitch": 79, "duration": 17, "velocity": 112}, {"time": 2438, "pitch": 74, "duration": 18, "velocity": 90}, {"time": 2456, "pitch": 71, "duration": 7, "velocity": 73}, {"time": 2462, "pitch": 74, "duration": 4, "velocity": 70}, {"time": 2468, "pitch": 76, "duration": 44, "velocity": 95}, {"time": 2504, "pitch": 74, "duration": 10, "velocity": 100}, {"time": 2516, "pitch": 73, "duration": 18, "velocity": 98}, {"time": 2534, "pitch": 71, "duration": 77, "velocity": 100}]}, {"program": 0, "is_drum": false, "name": "PIANO", "notes": [{"time": 20, "pitch": 50, "duration": 47, "velocity": 74}, {"time": 20, "pitch": 62, "duration": 14, "velocity": 70}, {"time": 20, "pitch": 64, "duration": 13, "velocity": 68}, {"time": 32, "pitch": 57, "duration": 35, "velocity": 50}, {"time": 44, "pitch": 62, "duration": 20, "velocity": 72}, {"time": 44, "pitch": 64, "duration": 20, "velocity": 72}, {"time": 68, "pitch": 43, "duration": 40, "velocity": 72}, {"time": 68, "pitch": 59, "duration": 20, "velocity": 57}, {"time": 68, "pitch": 62, "duration": 20, "velocity": 61}, {"time": 80, "pitch": 50, "duration": 34, "velocity": 61}, {"time": 92, "pitch": 59, "duration": 13, "velocity": 68}, {"time": 92, "pitch": 62, "duration": 13, "velocity": 77}, {"time": 104, "pitch": 55, "duration": 11, "velocity": 54}, {"time": 116, "pitch": 45, "duration": 33, "velocity": 73}, {"time": 116, "pitch": 61, "duration": 20, "velocity": 64}, {"time": 116, "pitch": 64, "duration": 20, "velocity": 71}, {"time": 128, "pitch": 52, "duration": 23, "velocity": 62}, {"time": 140, "pitch": 61, "duration": 12, "velocity": 65}, {"time": 140, "pitch": 64, "duration": 12, "velocity": 79}, {"time": 164, "pitch": 42, "duration": 35, "velocity": 67}, {"time": 164, "pitch": 57, "duration": 21, "velocity": 61}, {"time": 164, "pitch": 61, "duration": 20, "velocity": 61}, {"time": 176, "pitch": 49, "duration": 25, "velocity": 66}, {"time": 188, "pitch": 57, "duration": 13, "velocity": 60}, {"time": 188, "pitch": 61, "duration": 12, "velocity": 71}, {"time": 200, "pitch": 54, "duration": 11, "velocity": 45}, {"time": 212, "pitch": 47, "duration": 41, "velocity": 74}, {"time": 212, "pitch": 62, "duration": 21, "velocity": 60}, {"time": 212, "pitch": 66, "duration": 21, "velocity": 65}, {"time": 224, "pitch": 54, "duration": 28, "velocity": 58}, {"time": 236, "pitch": 62, "duration": 15, "velocity": 71}, {"time": 236, "pitch": 66, "duration": 14, "velocity": 88}, {"time": 248, "pitch": 59, "duration": 3, "velocity": 57}, {"time": 260, "pitch": 52, "duration": 36, "velocity": 56}, {"time": 260, "pitch": 59, "duration": 36, "velocity": 59}, {"time": 260, "pitch": 67, "duration": 22, "velocity": 72}, {"time": 272, "pitch": 64, "duration": 17, "velocity": 60}, {"time": 284, "pitch": 67, "duration": 18, "velocity": 75}, {"time": 308, "pitch": 45, "duration": 35, "velocity": 63}, {"time": 308, "pitch": 61, "duration": 22, "velocity": 58}, {"time": 308, "pitch": 64, "duration": 22, "velocity": 66}, {"time": 320, "pitch": 52, "duration": 22, "velocity": 61}, {"time": 332, "pitch": 61, "duration": 14, "velocity": 48}, {"time": 332, "pitch": 64, "duration": 14, "velocity": 51}, {"time": 332, "pitch": 69, "duration": 14, "velocity": 73}, {"time": 356, "pitch": 50, "duration": 84, "velocity": 81}, {"time": 356, "pitch": 66, "duration": 22, "velocity": 65}, {"time": 356, "pitch": 69, "duration": 22, "velocity": 72}, {"time": 368, "pitch": 57, "duration": 70, "velocity": 37}, {"time": 380, "pitch": 74, "duration": 22, "velocity": 62}, {"time": 392, "pitch": 62, "duration": 22, "velocity": 45}, {"time": 392, "pitch": 64, "duration": 7, "velocity": 56}, {"time": 398, "pitch": 66, "duration": 6, "velocity": 60}, {"time": 404, "pitch": 66, "duration": 1, "velocity": 65}, {"time": 404, "pitch": 69, "duration": 22, "velocity": 72}, {"time": 404, "pitch": 74, "duration": 21, "velocity": 49}, {"time": 404, "pitch": 74, "duration": 21, "velocity": 70}, {"time": 416, "pitch": 62, "duration": 19, "velocity": 56}, {"time": 428, "pitch": 69, "duration": 13, "velocity": 71}, {"time": 452, "pitch": 43, "duration": 37, "velocity": 85}, {"time": 452, "pitch": 59, "duration": 21, "velocity": 63}, {"time": 452, "pitch": 62, "duration": 21, "velocity": 67}, {"time": 464, "pitch": 50, "duration": 34, "velocity": 58}, {"time": 476, "pitch": 67, "duration": 13, "velocity": 73}, {"time": 476, "pitch": 59, "duration": 14, "velocity": 63}, {"time": 476, "pitch": 62, "duration": 14, "velocity": 67}, {"time": 488, "pitch": 55, "duration": 9, "velocity": 55}, {"time": 500, "pitch": 45, "duration": 41, "velocity": 72}, {"time": 500, "pitch": 61, "duration": 13, "velocity": 66}, {"time": 500, "pitch": 64, "duration": 13, "velocity": 77}, {"time": 500, "pitch": 69, "duration": 13, "velocity": 60}, {"time": 506, "pitch": 52, "duration": 35, "velocity": 62}, {"time": 512, "pitch": 57, "duration": 11, "velocity": 50}, {"time": 518, "pitch": 61, "duration": 16, "velocity": 59}, {"time": 518, "pitch": 64, "duration": 17, "velocity": 72}, {"time": 518, "pitch": 69, "duration": 16, "velocity": 77}, {"time": 530, "pitch": 57, "duration": 10, "velocity": 51}, {"time": 536, "pitch": 61, "duration": 11, "velocity": 63}, {"time": 536, "pitch": 64, "duration": 11, "velocity": 62}, {"time": 536, "pitch": 69, "duration": 11, "velocity": 73}, {"time": 548, "pitch": 42, "duration": 38, "velocity": 72}, {"time": 560, "pitch": 49, "duration": 27, "velocity": 50}, {"time": 560, "pitch": 57, "duration": 13, "velocity": 56}, {"time": 560, "pitch": 61, "duration": 14, "velocity": 61}, {"time": 560, "pitch": 66, "duration": 12, "velocity": 54}, {"time": 572, "pitch": 54, "duration": 9, "velocity": 49}, {"time": 578, "pitch": 57, "duration": 9, "velocity": 63}, {"time": 578, "pitch": 61, "duration": 9, "velocity": 74}, {"time": 578, "pitch": 66, "duration": 8, "velocity": 72}, {"time": 596, "pitch": 47, "duration": 39, "velocity": 74}, {"time": 596, "pitch": 62, "duration": 13, "velocity": 61}, {"time": 596, "pitch": 66, "duration": 12, "velocity": 54}, {"time": 596, "pitch": 71, "duration": 12, "velocity": 53}, {"time": 602, "pitch": 54, "duration": 31, "velocity": 64}, {"time": 608, "pitch": 59, "duration": 25, "velocity": 59}, {"time": 614, "pitch": 62, "duration": 15, "velocity": 60}, {"time": 614, "pitch": 66, "duration": 16, "velocity": 72}, {"time": 614, "pitch": 71, "duration": 16, "velocity": 66}, {"time": 632, "pitch": 62, "duration": 4, "velocity": 60}, {"time": 632, "pitch": 66, "duration": 4, "velocity": 65}, {"time": 632, "pitch": 71, "duration": 4, "velocity": 60}, {"time": 644, "pitch": 43, "duration": 41, "velocity": 75}, {"time": 644, "pitch": 59, "duration": 15, "velocity": 59}, {"time": 644, "pitch": 62, "duration": 15, "velocity": 60}, {"time": 644, "pitch": 67, "duration": 15, "velocity": 57}, {"time": 656, "pitch": 50, "duration": 34, "velocity": 77}, {"time": 662, "pitch": 59, "duration": 15, "velocity": 68}, {"time": 662, "pitch": 62, "duration": 15, "velocity": 73}, {"time": 662, "pitch": 67, "duration": 15, "velocity": 72}, {"time": 674, "pitch": 55, "duration": 12, "velocity": 58}, {"time": 680, "pitch": 59, "duration": 5, "velocity": 65}, {"time": 680, "pitch": 62, "duration": 5, "velocity": 70}, {"time": 680, "pitch": 67, "duration": 5, "velocity": 65}, {"time": 692, "pitch": 45, "duration": 32, "velocity": 63}, {"time": 692, "pitch": 61, "duration": 15, "velocity": 61}, {"time": 692, "pitch": 64, "duration": 15, "velocity": 62}, {"time": 692, "pitch": 69, "duration": 15, "velocity": 68}, {"time": 698, "pitch": 52, "duration": 31, "velocity": 63}, {"time": 704, "pitch": 57, "duration": 13, "velocity": 46}, {"time": 710, "pitch": 61, "duration": 16, "velocity": 70}, {"time": 710, "pitch": 64, "duration": 22, "velocity": 75}, {"time": 710, "pitch": 69, "duration": 17, "velocity": 75}, {"time": 722, "pitch": 57, "duration": 12, "velocity": 47}, {"time": 728, "pitch": 61, "duration": 4, "velocity": 51}, {"time": 728, "pitch": 69, "duration": 4, "velocity": 50}, {"time": 740, "pitch": 50, "duration": 48, "velocity": 84}, {"time": 740, "pitch": 66, "duration": 13, "velocity": 69}, {"time": 740, "pitch": 69, "duration": 13, "velocity": 73}, {"time": 752, "pitch": 57, "duration": 45, "velocity": 57}, {"time": 758, "pitch": 66, "duration": 30, "velocity": 65}, {"time": 770, "pitch": 62, "duration": 24, "velocity": 38}, {"time": 776, "pitch": 69, "duration": 6, "velocity": 62}, {"time": 782, "pitch": 78, "duration": 5, "velocity": 68}, {"time": 788, "pitch": 50, "duration": 47, "velocity": 68}, {"time": 788, "pitch": 76, "duration": 17, "velocity": 91}, {"time": 806, "pitch": 74, "duration": 16, "velocity": 72}, {"time": 836, "pitch": 50, "duration": 41, "velocity": 79}, {"time": 836, "pitch": 66, "duration": 16, "velocity": 66}, {"time": 836, "pitch": 69, "duration": 16, "velocity": 77}, {"time": 848, "pitch": 57, "duration": 28, "velocity": 58}, {"time": 854, "pitch": 66, "duration": 22, "velocity": 61}, {"time": 854, "pitch": 69, "duration": 23, "velocity": 75}, {"time": 866, "pitch": 62, "duration": 6, "velocity": 56}, {"time": 884, "pitch": 47, "duration": 40, "velocity": 69}, {"time": 884, "pitch": 62, "duration": 22, "velocity": 63}, {"time": 884, "pitch": 66, "duration": 22, "velocity": 70}, {"time": 896, "pitch": 54, "duration": 27, "velocity": 61}, {"time": 908, "pitch": 62, "duration": 19, "velocity": 66}, {"time": 908, "pitch": 66, "duration": 19, "velocity": 73}, {"time": 908, "pitch": 71, "duration": 18, "velocity": 71}, {"time": 931, "pitch": 62, "duration": 21, "velocity": 56}, {"time": 931, "pitch": 66, "duration": 20, "velocity": 46}, {"time": 931, "pitch": 71, "duration": 20, "velocity": 59}, {"time": 932, "pitch": 47, "duration": 37, "velocity": 62}, {"time": 944, "pitch": 54, "duration": 25, "velocity": 52}, {"time": 956, "pitch": 62, "duration": 16, "velocity": 69}, {"time": 956, "pitch": 66, "duration": 15, "velocity": 74}, {"time": 956, "pitch": 71, "duration": 15, "velocity": 74}, {"time": 980, "pitch": 45, "duration": 43, "velocity": 74}, {"time": 980, "pitch": 61, "duration": 22, "velocity": 62}, {"time": 980, "pitch": 64, "duration": 22, "velocity": 61}, {"time": 992, "pitch": 52, "duration": 30, "velocity": 69}, {"time": 992, "pitch": 69, "duration": 13, "velocity": 59}, {"time": 998, "pitch": 73, "duration": 11, "velocity": 58}, {"time": 1004, "pitch": 57, "duration": 17, "velocity": 50}, {"time": 1004, "pitch": 76, "duration": 6, "velocity": 58}, {"time": 1010, "pitch": 81, "duration": 18, "velocity": 64}, {"time": 1022, "pitch": 76, "duration": 14, "velocity": 67}, {"time": 1028, "pitch": 42, "duration": 35, "velocity": 73}, {"time": 1028, "pitch": 57, "duration": 22, "velocity": 58}, {"time": 1028, "pitch": 61, "duration": 21, "velocity": 64}, {"time": 1040, "pitch": 49, "duration": 25, "velocity": 13}, {"time": 1040, "pitch": 74, "duration": 6, "velocity": 61}, {"time": 1046, "pitch": 76, "duration": 13, "velocity": 77}, {"time": 1052, "pitch": 57, "duration": 14, "velocity": 54}, {"time": 1052, "pitch": 61, "duration": 14, "velocity": 67}, {"time": 1052, "pitch": 66, "duration": 13, "velocity": 75}, {"time": 1064, "pitch": 54, "duration": 11, "velocity": 56}, {"time": 1064, "pitch": 76, "duration": 5, "velocity": 72}, {"time": 1070, "pitch": 69, "duration": 5, "velocity": 58}, {"time": 1076, "pitch": 47, "duration": 37, "velocity": 61}, {"time": 1076, "pitch": 62, "duration": 21, "velocity": 59}, {"time": 1076, "pitch": 66, "duration": 21, "velocity": 61}, {"time": 1076, "pitch": 76, "duration": 14, "velocity": 73}, {"time": 1088, "pitch": 54, "duration": 25, "velocity": 60}, {"time": 1094, "pitch": 74, "duration": 15, "velocity": 65}, {"time": 1100, "pitch": 62, "duration": 12, "velocity": 62}, {"time": 1100, "pitch": 66, "duration": 12, "velocity": 72}, {"time": 1112, "pitch": 71, "duration": 5, "velocity": 58}, {"time": 1121, "pitch": 71, "duration": 4, "velocity": 57}, {"time": 1122, "pitch": 67, "duration": 3, "velocity": 48}, {"time": 1123, "pitch": 76, "duration": 9, "velocity": 56}, {"time": 1124, "pitch": 52, "duration": 40, "velocity": 70}, {"time": 1136, "pitch": 59, "duration": 37, "velocity": 68}, {"time": 1136, "pitch": 76, "duration": 28, "velocity": 56}, {"time": 1148, "pitch": 64, "duration": 23, "velocity": 40}, {"time": 1170, "pitch": 69, "duration": 5, "velocity": 48}, {"time": 1171, "pitch": 73, "duration": 4, "velocity": 61}, {"time": 1172, "pitch": 45, "duration": 51, "velocity": 70}, {"time": 1172, "pitch": 76, "duration": 14, "velocity": 74}, {"time": 1184, "pitch": 52, "duration": 42, "velocity": 56}, {"time": 1190, "pitch": 57, "duration": 4, "velocity": 64}, {"time": 1202, "pitch": 61, "duration": 17, "velocity": 65}, {"time": 1208, "pitch": 69, "duration": 6, "velocity": 63}, {"time": 1214, "pitch": 76, "duration": 11, "velocity": 67}, {"time": 1220, "pitch": 50, "duration": 40, "velocity": 81}, {"time": 1226, "pitch": 57, "duration": 35, "velocity": 64}, {"time": 1229, "pitch": 62, "duration": 28, "velocity": 59}, {"time": 1238, "pitch": 69, "duration": 19, "velocity": 63}, {"time": 1256, "pitch": 66, "duration": 11, "velocity": 71}, {"time": 1268, "pitch": 47, "duration": 42, "velocity": 79}, {"time": 1274, "pitch": 54, "duration": 34, "velocity": 56}, {"time": 1280, "pitch": 59, "duration": 16, "velocity": 53}, {"time": 1286, "pitch": 61, "duration": 5, "velocity": 59}, {"time": 1292, "pitch": 62, "duration": 40, "velocity": 69}, {"time": 1298, "pitch": 59, "duration": 6, "velocity": 57}, {"time": 1304, "pitch": 66, "duration": 26, "velocity": 68}, {"time": 1316, "pitch": 47, "duration": 41, "velocity": 69}, {"time": 1316, "pitch": 62, "duration": 16, "velocity": 70}, {"time": 1322, "pitch": 54, "duration": 35, "velocity": 59}, {"time": 1328, "pitch": 59, "duration": 26, "velocity": 57}, {"time": 1334, "pitch": 66, "duration": 18, "velocity": 69}, {"time": 1352, "pitch": 62, "duration": 11, "velocity": 62}, {"time": 1358, "pitch": 66, "duration": 6, "velocity": 66}, {"time": 1364, "pitch": 45, "duration": 35, "velocity": 74}, {"time": 1370, "pitch": 52, "duration": 31, "velocity": 67}, {"time": 1376, "pitch": 57, "duration": 24, "velocity": 52}, {"time": 1382, "pitch": 61, "duration": 19, "velocity": 64}, {"time": 1382, "pitch": 64, "duration": 19, "velocity": 71}, {"time": 1412, "pitch": 42, "duration": 35, "velocity": 62}, {"time": 1412, "pitch": 57, "duration": 16, "velocity": 59}, {"time": 1412, "pitch": 61, "duration": 16, "velocity": 72}, {"time": 1415, "pitch": 49, "duration": 31, "velocity": 61}, {"time": 1424, "pitch": 54, "duration": 13, "velocity": 56}, {"time": 1430, "pitch": 57, "duration": 30, "velocity": 58}, {"time": 1430, "pitch": 61, "duration": 19, "velocity": 62}, {"time": 1430, "pitch": 83, "duration": 7, "velocity": 69}, {"time": 1442, "pitch": 54, "duration": 7, "velocity": 56}, {"time": 1442, "pitch": 78, "duration": 7, "velocity": 65}, {"time": 1448, "pitch": 66, "duration": 13, "velocity": 79}, {"time": 1454, "pitch": 61, "duration": 6, "velocity": 36}, {"time": 1454, "pitch": 76, "duration": 2, "velocity": 63}, {"time": 1460, "pitch": 47, "duration": 46, "velocity": 73}, {"time": 1460, "pitch": 76, "duration": 19, "velocity": 85}, {"time": 1463, "pitch": 54, "duration": 39, "velocity": 57}, {"time": 1469, "pitch": 59, "duration": 25, "velocity": 58}, {"time": 1478, "pitch": 61, "duration": 6, "velocity": 67}, {"time": 1478, "pitch": 74, "duration": 19, "velocity": 61}, {"time": 1484, "pitch": 62, "duration": 7, "velocity": 71}, {"time": 1490, "pitch": 64, "duration": 19, "velocity": 74}, {"time": 1499, "pitch": 59, "duration": 4, "velocity": 39}, {"time": 1508, "pitch": 43, "duration": 20, "velocity": 79}, {"time": 1514, "pitch": 50, "duration": 17, "velocity": 79}, {"time": 1520, "pitch": 55, "duration": 10, "velocity": 59}, {"time": 1526, "pitch": 57, "duration": 6, "velocity": 58}, {"time": 1532, "pitch": 45, "duration": 19, "velocity": 69}, {"time": 1538, "pitch": 52, "duration": 12, "velocity": 72}, {"time": 1544, "pitch": 57, "duration": 7, "velocity": 51}, {"time": 1550, "pitch": 61, "duration": 5, "velocity": 58}, {"time": 1556, "pitch": 50, "duration": 51, "velocity": 71}, {"time": 1562, "pitch": 57, "duration": 46, "velocity": 56}, {"time": 1568, "pitch": 62, "duration": 39, "velocity": 48}, {"time": 1574, "pitch": 66, "duration": 32, "velocity": 65}, {"time": 1574, "pitch": 69, "duration": 32, "velocity": 74}, {"time": 1604, "pitch": 50, "duration": 3, "velocity": 85}, {"time": 1604, "pitch": 66, "duration": 2, "velocity": 71}, {"time": 1604, "pitch": 69, "duration": 2, "velocity": 85}, {"time": 1652, "pitch": 43, "duration": 41, "velocity": 69}, {"time": 1652, "pitch": 59, "duration": 33, "velocity": 65}, {"time": 1658, "pitch": 50, "duration": 38, "velocity": 75}, {"time": 1664, "pitch": 55, "duration": 9, "velocity": 57}, {"time": 1670, "pitch": 62, "duration": 16, "velocity": 65}, {"time": 1676, "pitch": 55, "duration": 16, "velocity": 66}, {"time": 1682, "pitch": 67, "duration": 3, "velocity": 56}, {"time": 1688, "pitch": 59, "duration": 4, "velocity": 61}, {"time": 1688, "pitch": 62, "duration": 4, "velocity": 63}, {"time": 1688, "pitch": 67, "duration": 4, "velocity": 73}, {"time": 1700, "pitch": 45, "duration": 39, "velocity": 68}, {"time": 1700, "pitch": 61, "duration": 20, "velocity": 61}, {"time": 1700, "pitch": 64, "duration": 20, "velocity": 67}, {"time": 1700, "pitch": 69, "duration": 21, "velocity": 74}, {"time": 1709, "pitch": 52, "duration": 27, "velocity": 58}, {"time": 1724, "pitch": 61, "duration": 13, "velocity": 85}, {"time": 1724, "pitch": 64, "duration": 13, "velocity": 88}, {"time": 1724, "pitch": 69, "duration": 13, "velocity": 88}, {"time": 1733, "pitch": 57, "duration": 3, "velocity": 49}, {"time": 1748, "pitch": 42, "duration": 36, "velocity": 72}, {"time": 1748, "pitch": 57, "duration": 21, "velocity": 61}, {"time": 1748, "pitch": 61, "duration": 21, "velocity": 69}, {"time": 1748, "pitch": 66, "duration": 20, "velocity": 68}, {"time": 1760, "pitch": 49, "duration": 25, "velocity": 72}, {"time": 1772, "pitch": 57, "duration": 13, "velocity": 68}, {"time": 1772, "pitch": 61, "duration": 13, "velocity": 79}, {"time": 1772, "pitch": 66, "duration": 13, "velocity": 79}, {"time": 1784, "pitch": 54, "duration": 12, "velocity": 50}, {"time": 1796, "pitch": 47, "duration": 37, "velocity": 72}, {"time": 1796, "pitch": 62, "duration": 21, "velocity": 68}, {"time": 1796, "pitch": 66, "duration": 21, "velocity": 62}, {"time": 1796, "pitch": 71, "duration": 21, "velocity": 68}, {"time": 1808, "pitch": 54, "duration": 26, "velocity": 59}, {"time": 1820, "pitch": 62, "duration": 15, "velocity": 88}, {"time": 1820, "pitch": 66, "duration": 15, "velocity": 96}, {"time": 1820, "pitch": 71, "duration": 15, "velocity": 91}, {"time": 1832, "pitch": 59, "duration": 11, "velocity": 53}, {"time": 1844, "pitch": 52, "duration": 38, "velocity": 83}, {"time": 1844, "pitch": 67, "duration": 21, "velocity": 69}, {"time": 1844, "pitch": 71, "duration": 21, "velocity": 66}, {"time": 1844, "pitch": 76, "duration": 21, "velocity": 65}, {"time": 1853, "pitch": 59, "duration": 25, "velocity": 57}, {"time": 1868, "pitch": 67, "duration": 14, "velocity": 85}, {"time": 1868, "pitch": 71, "duration": 14, "velocity": 84}, {"time": 1868, "pitch": 76, "duration": 13, "velocity": 96}, {"time": 1874, "pitch": 64, "duration": 6, "velocity": 54}, {"time": 1892, "pitch": 45, "duration": 37, "velocity": 68}, {"time": 1892, "pitch": 61, "duration": 20, "velocity": 69}, {"time": 1892, "pitch": 64, "duration": 21, "velocity": 79}, {"time": 1892, "pitch": 69, "duration": 20, "velocity": 83}, {"time": 1901, "pitch": 52, "duration": 26, "velocity": 9}, {"time": 1916, "pitch": 61, "duration": 13, "velocity": 66}, {"time": 1916, "pitch": 64, "duration": 13, "velocity": 72}, {"time": 1916, "pitch": 69, "duration": 13, "velocity": 71}, {"time": 1922, "pitch": 57, "duration": 17, "velocity": 56}, {"time": 1940, "pitch": 50, "duration": 87, "velocity": 85}, {"time": 1940, "pitch": 66, "duration": 14, "velocity": 73}, {"time": 1940, "pitch": 69, "duration": 14, "velocity": 83}, {"time": 1940, "pitch": 74, "duration": 13, "velocity": 81}, {"time": 1946, "pitch": 57, "duration": 80, "velocity": 58}, {"time": 1952, "pitch": 62, "duration": 14, "velocity": 59}, {"time": 1958, "pitch": 66, "duration": 23, "velocity": 65}, {"time": 1958, "pitch": 69, "duration": 26, "velocity": 75}, {"time": 1958, "pitch": 74, "duration": 24, "velocity": 64}, {"time": 1970, "pitch": 62, "duration": 21, "velocity": 57}, {"time": 1982, "pitch": 66, "duration": 2, "velocity": 55}, {"time": 1988, "pitch": 66, "duration": 14, "velocity": 84}, {"time": 1988, "pitch": 69, "duration": 14, "velocity": 88}, {"time": 1988, "pitch": 74, "duration": 14, "velocity": 79}, {"time": 2000, "pitch": 62, "duration": 11, "velocity": 54}, {"time": 2006, "pitch": 66, "duration": 16, "velocity": 79}, {"time": 2006, "pitch": 69, "duration": 16, "velocity": 85}, {"time": 2006, "pitch": 74, "duration": 16, "velocity": 77}, {"time": 2017, "pitch": 62, "duration": 7, "velocity": 58}, {"time": 2024, "pitch": 66, "duration": 4, "velocity": 75}, {"time": 2024, "pitch": 69, "duration": 5, "velocity": 77}, {"time": 2024, "pitch": 74, "duration": 4, "velocity": 72}, {"time": 2036, "pitch": 43, "duration": 41, "velocity": 73}, {"time": 2036, "pitch": 59, "duration": 13, "velocity": 68}, {"time": 2036, "pitch": 62, "duration": 13, "velocity": 73}, {"time": 2036, "pitch": 67, "duration": 12, "velocity": 79}, {"time": 2042, "pitch": 50, "duration": 40, "velocity": 59}, {"time": 2048, "pitch": 55, "duration": 11, "velocity": 52}, {"time": 2054, "pitch": 59, "duration": 16, "velocity": 72}, {"time": 2054, "pitch": 62, "duration": 16, "velocity": 77}, {"time": 2054, "pitch": 67, "duration": 16, "velocity": 75}, {"time": 2066, "pitch": 55, "duration": 12, "velocity": 56}, {"time": 2072, "pitch": 59, "duration": 4, "velocity": 62}, {"time": 2072, "pitch": 62, "duration": 4, "velocity": 67}, {"time": 2072, "pitch": 67, "duration": 3, "velocity": 70}, {"time": 2084, "pitch": 45, "duration": 39, "velocity": 77}, {"time": 2084, "pitch": 61, "duration": 15, "velocity": 71}, {"time": 2084, "pitch": 64, "duration": 15, "velocity": 74}, {"time": 2084, "pitch": 69, "duration": 15, "velocity": 83}, {"time": 2090, "pitch": 52, "duration": 30, "velocity": 66}, {"time": 2096, "pitch": 57, "duration": 13, "velocity": 53}, {"time": 2102, "pitch": 61, "duration": 16, "velocity": 83}, {"time": 2102, "pitch": 64, "duration": 16, "velocity": 93}, {"time": 2102, "pitch": 69, "duration": 16, "velocity": 84}, {"time": 2114, "pitch": 57, "duration": 6, "velocity": 55}, {"time": 2120, "pitch": 61, "duration": 5, "velocity": 65}, {"time": 2120, "pitch": 64, "duration": 4, "velocity": 73}, {"time": 2120, "pitch": 69, "duration": 4, "velocity": 72}, {"time": 2132, "pitch": 42, "duration": 39, "velocity": 73}, {"time": 2132, "pitch": 57, "duration": 14, "velocity": 61}, {"time": 2132, "pitch": 61, "duration": 14, "velocity": 65}, {"time": 2132, "pitch": 66, "duration": 14, "velocity": 69}, {"time": 2137, "pitch": 49, "duration": 33, "velocity": 67}, {"time": 2144, "pitch": 54, "duration": 11, "velocity": 52}, {"time": 2150, "pitch": 57, "duration": 15, "velocity": 70}, {"time": 2150, "pitch": 61, "duration": 16, "velocity": 79}, {"time": 2150, "pitch": 66, "duration": 16, "velocity": 74}, {"time": 2162, "pitch": 54, "duration": 13, "velocity": 56}, {"time": 2168, "pitch": 57, "duration": 12, "velocity": 65}, {"time": 2174, "pitch": 61, "duration": 6, "velocity": 69}, {"time": 2180, "pitch": 47, "duration": 39, "velocity": 79}, {"time": 2186, "pitch": 54, "duration": 34, "velocity": 65}, {"time": 2192, "pitch": 59, "duration": 11, "velocity": 57}, {"time": 2198, "pitch": 62, "duration": 17, "velocity": 69}, {"time": 2198, "pitch": 66, "duration": 17, "velocity": 72}, {"time": 2198, "pitch": 71, "duration": 17, "velocity": 65}, {"time": 2210, "pitch": 59, "duration": 17, "velocity": 53}, {"time": 2216, "pitch": 62, "duration": 5, "velocity": 72}, {"time": 2216, "pitch": 66, "duration": 5, "velocity": 74}, {"time": 2216, "pitch": 71, "duration": 5, "velocity": 69}, {"time": 2228, "pitch": 52, "duration": 37, "velocity": 71}, {"time": 2228, "pitch": 67, "duration": 13, "velocity": 83}, {"time": 2228, "pitch": 71, "duration": 13, "velocity": 77}, {"time": 2228, "pitch": 76, "duration": 13, "velocity": 77}, {"time": 2234, "pitch": 59, "duration": 30, "velocity": 58}, {"time": 2240, "pitch": 64, "duration": 12, "velocity": 57}, {"time": 2246, "pitch": 67, "duration": 15, "velocity": 83}, {"time": 2246, "pitch": 71, "duration": 15, "velocity": 84}, {"time": 2246, "pitch": 76, "duration": 15, "velocity": 83}, {"time": 2258, "pitch": 64, "duration": 7, "velocity": 57}, {"time": 2264, "pitch": 67, "duration": 5, "velocity": 74}, {"time": 2264, "pitch": 71, "duration": 5, "velocity": 77}, {"time": 2264, "pitch": 76, "duration": 4, "velocity": 81}, {"time": 2276, "pitch": 45, "duration": 37, "velocity": 73}, {"time": 2276, "pitch": 61, "duration": 14, "velocity": 71}, {"time": 2276, "pitch": 64, "duration": 15, "velocity": 73}, {"time": 2276, "pitch": 69, "duration": 15, "velocity": 72}, {"time": 2282, "pitch": 52, "duration": 33, "velocity": 63}, {"time": 2288, "pitch": 57, "duration": 13, "velocity": 55}, {"time": 2294, "pitch": 61, "duration": 15, "velocity": 73}, {"time": 2294, "pitch": 64, "duration": 15, "velocity": 83}, {"time": 2294, "pitch": 69, "duration": 15, "velocity": 85}, {"time": 2306, "pitch": 57, "duration": 18, "velocity": 50}, {"time": 2312, "pitch": 61, "duration": 5, "velocity": 71}, {"time": 2312, "pitch": 64, "duration": 6, "velocity": 75}, {"time": 2312, "pitch": 69, "duration": 6, "velocity": 75}, {"time": 2324, "pitch": 47, "duration": 44, "velocity": 83}, {"time": 2324, "pitch": 62, "duration": 45, "velocity": 58}, {"time": 2324, "pitch": 66, "duration": 44, "velocity": 69}, {"time": 2324, "pitch": 71, "duration": 44, "velocity": 67}, {"time": 2336, "pitch": 54, "duration": 34, "velocity": 59}, {"time": 2342, "pitch": 59, "duration": 25, "velocity": 57}, {"time": 2372, "pitch": 47, "duration": 57, "velocity": 71}, {"time": 2384, "pitch": 54, "duration": 43, "velocity": 72}, {"time": 2390, "pitch": 59, "duration": 37, "velocity": 60}, {"time": 2390, "pitch": 71, "duration": 7, "velocity": 59}, {"time": 2396, "pitch": 81, "duration": 5, "velocity": 93}, {"time": 2402, "pitch": 78, "duration": 6, "velocity": 70}, {"time": 2408, "pitch": 74, "duration": 11, "velocity": 79}, {"time": 2420, "pitch": 43, "duration": 41, "velocity": 84}, {"time": 2420, "pitch": 59, "duration": 7, "velocity": 65}, {"time": 2420, "pitch": 62, "duration": 16, "velocity": 58}, {"time": 2420, "pitch": 67, "duration": 15, "velocity": 58}, {"time": 2426, "pitch": 50, "duration": 41, "velocity": 74}, {"time": 2432, "pitch": 55, "duration": 11, "velocity": 58}, {"time": 2438, "pitch": 59, "duration": 15, "velocity": 63}, {"time": 2438, "pitch": 62, "duration": 16, "velocity": 69}, {"time": 2438, "pitch": 67, "duration": 15, "velocity": 74}, {"time": 2450, "pitch": 55, "duration": 12, "velocity": 57}, {"time": 2456, "pitch": 59, "duration": 5, "velocity": 62}, {"time": 2456, "pitch": 62, "duration": 4, "velocity": 59}, {"time": 2456, "pitch": 67, "duration": 4, "velocity": 67}, {"time": 2468, "pitch": 45, "duration": 43, "velocity": 75}, {"time": 2468, "pitch": 61, "duration": 14, "velocity": 64}, {"time": 2468, "pitch": 64, "duration": 14, "velocity": 68}, {"time": 2468, "pitch": 69, "duration": 14, "velocity": 74}, {"time": 2474, "pitch": 52, "duration": 42, "velocity": 66}, {"time": 2480, "pitch": 57, "duration": 12, "velocity": 54}, {"time": 2486, "pitch": 61, "duration": 15, "velocity": 81}, {"time": 2486, "pitch": 64, "duration": 15, "velocity": 91}, {"time": 2486, "pitch": 69, "duration": 15, "velocity": 91}, {"time": 2498, "pitch": 57, "duration": 9, "velocity": 51}, {"time": 2504, "pitch": 61, "duration": 7, "velocity": 77}, {"time": 2504, "pitch": 64, "duration": 8, "velocity": 88}, {"time": 2504, "pitch": 69, "duration": 8, "velocity": 98}, {"time": 2510, "pitch": 57, "duration": 5, "velocity": 59}, {"time": 2516, "pitch": 47, "duration": 45, "velocity": 66}, {"time": 2516, "pitch": 62, "duration": 16, "velocity": 65}, {"time": 2516, "pitch": 66, "duration": 16, "velocity": 67}, {"time": 2516, "pitch": 71, "duration": 16, "velocity": 69}, {"time": 2516, "pitch": 74, "duration": 12, "velocity": 65}, {"time": 2522, "pitch": 54, "duration": 42, "velocity": 59}, {"time": 2528, "pitch": 59, "duration": 10, "velocity": 55}, {"time": 2528, "pitch": 78, "duration": 5, "velocity": 58}, {"time": 2534, "pitch": 62, "duration": 16, "velocity": 66}, {"time": 2534, "pitch": 66, "duration": 16, "velocity": 71}, {"time": 2534, "pitch": 71, "duration": 16, "velocity": 71}, {"time": 2534, "pitch": 81, "duration": 11, "velocity": 72}, {"time": 2546, "pitch": 59, "duration": 14, "velocity": 57}, {"time": 2546, "pitch": 78, "duration": 6, "velocity": 81}, {"time": 2552, "pitch": 62, "duration": 10, "velocity": 81}, {"time": 2552, "pitch": 66, "duration": 10, "velocity": 58}, {"time": 2552, "pitch": 69, "duration": 9, "velocity": 77}, {"time": 2564, "pitch": 47, "duration": 47, "velocity": 75}, {"time": 2564, "pitch": 62, "duration": 14, "velocity": 67}, {"time": 2564, "pitch": 66, "duration": 15, "velocity": 69}, {"time": 2564, "pitch": 71, "duration": 15, "velocity": 73}, {"time": 2564, "pitch": 74, "duration": 15, "velocity": 77}, {"time": 2570, "pitch": 54, "duration": 42, "velocity": 61}, {"time": 2576, "pitch": 59, "duration": 35, "velocity": 56}, {"time": 2576, "pitch": 78, "duration": 6, "velocity": 67}, {"time": 2582, "pitch": 62, "duration": 17, "velocity": 83}, {"time": 2582, "pitch": 66, "duration": 17, "velocity": 79}, {"time": 2582, "pitch": 71, "duration": 17, "velocity": 71}, {"time": 2582, "pitch": 81, "duration": 20, "velocity": 93}, {"time": 2606, "pitch": 62, "duration": 6, "velocity": 59}, {"time": 2606, "pitch": 66, "duration": 5, "velocity": 64}, {"time": 2606, "pitch": 71, "duration": 5, "velocity": 51}, {"time": 2612, "pitch": 50, "duration": 44, "velocity": 69}, {"time": 2618, "pitch": 57, "duration": 35, "velocity": 64}, {"time": 2624, "pitch": 62, "duration": 25, "velocity": 59}, {"time": 2630, "pitch": 69, "duration": 19, "velocity": 63}, {"time": 2648, "pitch": 66, "duration": 11, "velocity": 71}, {"time": 2660, "pitch": 47, "duration": 42, "velocity": 79}, {"time": 2666, "pitch": 54, "duration": 34, "velocity": 56}, {"time": 2672, "pitch": 59, "duration": 16, "velocity": 53}, {"time": 2678, "pitch": 61, "duration": 5, "velocity": 59}, {"time": 2684, "pitch": 62, "duration": 40, "velocity": 69}, {"time": 2690, "pitch": 59, "duration": 6, "velocity": 57}, {"time": 2690, "pitch": 74, "duration": 6, "velocity": 63}, {"time": 2696, "pitch": 66, "duration": 26, "velocity": 68}, {"time": 2696, "pitch": 81, "duration": 5, "velocity": 75}, {"time": 2702, "pitch": 78, "duration": 7, "velocity": 72}, {"time": 2708, "pitch": 47, "duration": 41, "velocity": 69}, {"time": 2708, "pitch": 62, "duration": 16, "velocity": 70}, {"time": 2714, "pitch": 54, "duration": 35, "velocity": 59}, {"time": 2720, "pitch": 59, "duration": 26, "velocity": 57}, {"time": 2726, "pitch": 66, "duration": 18, "velocity": 69}, {"time": 2744, "pitch": 62, "duration": 11, "velocity": 62}, {"time": 2750, "pitch": 66, "duration": 6, "velocity": 66}, {"time": 2756, "pitch": 45, "duration": 35, "velocity": 74}, {"time": 2762, "pitch": 52, "duration": 31, "velocity": 67}, {"time": 2768, "pitch": 57, "duration": 24, "velocity": 52}, {"time": 2774, "pitch": 61, "duration": 19, "velocity": 64}, {"time": 2774, "pitch": 64, "duration": 19, "velocity": 71}, {"time": 2792, "pitch": 83, "duration": 6, "velocity": 83}, {"time": 2798, "pitch": 85, "duration": 5, "velocity": 77}, {"time": 2804, "pitch": 42, "duration": 35, "velocity": 62}, {"time": 2804, "pitch": 57, "duration": 16, "velocity": 59}, {"time": 2804, "pitch": 61, "duration": 16, "velocity": 72}, {"time": 2804, "pitch": 81, "duration": 13, "velocity": 91}, {"time": 2810, "pitch": 49, "duration": 28, "velocity": 61}, {"time": 2816, "pitch": 54, "duration": 13, "velocity": 56}, {"time": 2822, "pitch": 57, "duration": 30, "velocity": 58}, {"time": 2822, "pitch": 61, "duration": 19, "velocity": 62}, {"time": 2822, "pitch": 83, "duration": 7, "velocity": 69}, {"time": 2834, "pitch": 54, "duration": 7, "velocity": 56}, {"time": 2834, "pitch": 78, "duration": 7, "velocity": 65}, {"time": 2840, "pitch": 66, "duration": 13, "velocity": 79}, {"time": 2846, "pitch": 61, "duration": 6, "velocity": 6}, {"time": 2846, "pitch": 76, "duration": 2, "velocity": 63}, {"time": 2852, "pitch": 47, "duration": 46, "velocity": 73}, {"time": 2852, "pitch": 76, "duration": 19, "velocity": 85}, {"time": 2856, "pitch": 54, "duration": 38, "velocity": 57}, {"time": 2864, "pitch": 59, "duration": 22, "velocity": 58}, {"time": 2870, "pitch": 61, "duration": 6, "velocity": 67}, {"time": 2870, "pitch": 74, "duration": 19, "velocity": 61}, {"time": 2876, "pitch": 62, "duration": 7, "velocity": 71}, {"time": 2882, "pitch": 64, "duration": 19, "velocity": 93}, {"time": 2892, "pitch": 59, "duration": 5, "velocity": 39}, {"time": 2900, "pitch": 43, "duration": 20, "velocity": 79}, {"time": 2906, "pitch": 50, "duration": 17, "velocity": 79}, {"time": 2912, "pitch": 55, "duration": 10, "velocity": 59}, {"time": 2918, "pitch": 57, "duration": 6, "velocity": 58}, {"time": 2924, "pitch": 45, "duration": 19, "velocity": 69}, {"time": 2930, "pitch": 52, "duration": 12, "velocity": 72}, {"time": 2936, "pitch": 57, "duration": 7, "velocity": 51}, {"time": 2942, "pitch": 61, "duration": 5, "velocity": 58}, {"time": 2948, "pitch": 50, "duration": 41, "velocity": 71}, {"time": 2954, "pitch": 57, "duration": 42, "velocity": 56}, {"time": 2960, "pitch": 62, "duration": 5, "velocity": 58}, {"time": 2966, "pitch": 64, "duration": 8, "velocity": 71}, {"time": 2978, "pitch": 66, "duration": 7, "velocity": 91}, {"time": 2990, "pitch": 62, "duration": 11, "velocity": 88}, {"time": 2996, "pitch": 50, "duration": 35, "velocity": 85}, {"time": 2996, "pitch": 66, "duration": 35, "velocity": 71}, {"time": 2996, "pitch": 69, "duration": 35, "velocity": 85}, {"time": 3044, "pitch": 43, "duration": 41, "velocity": 69}, {"time": 3044, "pitch": 59, "duration": 33, "velocity": 65}, {"time": 3050, "pitch": 50, "duration": 38, "velocity": 75}, {"time": 3056, "pitch": 55, "duration": 9, "velocity": 57}, {"time": 3062, "pitch": 62, "duration": 16, "velocity": 65}, {"time": 3068, "pitch": 55, "duration": 16, "velocity": 66}, {"time": 3074, "pitch": 67, "duration": 3, "velocity": 56}, {"time": 3080, "pitch": 59, "duration": 4, "velocity": 61}, {"time": 3080, "pitch": 62, "duration": 4, "velocity": 63}, {"time": 3080, "pitch": 67, "duration": 4, "velocity": 73}, {"time": 3092, "pitch": 45, "duration": 39, "velocity": 68}, {"time": 3092, "pitch": 61, "duration": 20, "velocity": 61}, {"time": 3092, "pitch": 64, "duration": 20, "velocity": 67}, {"time": 3092, "pitch": 69, "duration": 21, "velocity": 74}, {"time": 3104, "pitch": 52, "duration": 24, "velocity": 58}, {"time": 3116, "pitch": 61, "duration": 13, "velocity": 85}, {"time": 3116, "pitch": 64, "duration": 13, "velocity": 88}, {"time": 3116, "pitch": 69, "duration": 13, "velocity": 88}, {"time": 3121, "pitch": 57, "duration": 7, "velocity": 49}, {"time": 3140, "pitch": 42, "duration": 44, "velocity": 72}, {"time": 3140, "pitch": 57, "duration": 21, "velocity": 61}, {"time": 3140, "pitch": 61, "duration": 21, "velocity": 69}, {"time": 3140, "pitch": 66, "duration": 20, "velocity": 68}, {"time": 3152, "pitch": 49, "duration": 33, "velocity": 72}, {"time": 3164, "pitch": 57, "duration": 13, "velocity": 68}, {"time": 3164, "pitch": 61, "duration": 13, "velocity": 79}, {"time": 3164, "pitch": 66, "duration": 13, "velocity": 79}, {"time": 3176, "pitch": 54, "duration": 12, "velocity": 50}, {"time": 3188, "pitch": 47, "duration": 37, "velocity": 72}, {"time": 3188, "pitch": 62, "duration": 21, "velocity": 68}, {"time": 3188, "pitch": 66, "duration": 21, "velocity": 62}, {"time": 3188, "pitch": 71, "duration": 21, "velocity": 68}, {"time": 3200, "pitch": 54, "duration": 26, "velocity": 59}, {"time": 3212, "pitch": 62, "duration": 15, "velocity": 83}, {"time": 3212, "pitch": 66, "duration": 15, "velocity": 83}, {"time": 3212, "pitch": 71, "duration": 15, "velocity": 83}, {"time": 3224, "pitch": 59, "duration": 11, "velocity": 53}, {"time": 3236, "pitch": 52, "duration": 38, "velocity": 83}, {"time": 3236, "pitch": 67, "duration": 21, "velocity": 69}, {"time": 3236, "pitch": 71, "duration": 21, "velocity": 66}, {"time": 3236, "pitch": 76, "duration": 21, "velocity": 65}, {"time": 3248, "pitch": 59, "duration": 22, "velocity": 57}, {"time": 3260, "pitch": 67, "duration": 14, "velocity": 75}, {"time": 3260, "pitch": 71, "duration": 14, "velocity": 75}, {"time": 3260, "pitch": 76, "duration": 13, "velocity": 96}, {"time": 3266, "pitch": 64, "duration": 6, "velocity": 54}, {"time": 3284, "pitch": 45, "duration": 37, "velocity": 68}, {"time": 3284, "pitch": 61, "duration": 20, "velocity": 69}, {"time": 3284, "pitch": 64, "duration": 21, "velocity": 79}, {"time": 3284, "pitch": 69, "duration": 20, "velocity": 83}, {"time": 3293, "pitch": 52, "duration": 26, "velocity": 9}, {"time": 3308, "pitch": 61, "duration": 13, "velocity": 66}, {"time": 3308, "pitch": 64, "duration": 13, "velocity": 72}, {"time": 3308, "pitch": 69, "duration": 13, "velocity": 71}, {"time": 3314, "pitch": 57, "duration": 17, "velocity": 56}, {"time": 3332, "pitch": 50, "duration": 87, "velocity": 85}, {"time": 3332, "pitch": 66, "duration": 14, "velocity": 73}, {"time": 3332, "pitch": 69, "duration": 14, "velocity": 83}, {"time": 3332, "pitch": 74, "duration": 13, "velocity": 81}, {"time": 3338, "pitch": 57, "duration": 80, "velocity": 58}, {"time": 3344, "pitch": 62, "duration": 14, "velocity": 59}, {"time": 3350, "pitch": 66, "duration": 23, "velocity": 65}, {"time": 3350, "pitch": 69, "duration": 26, "velocity": 75}, {"time": 3350, "pitch": 74, "duration": 24, "velocity": 64}, {"time": 3362, "pitch": 62, "duration": 21, "velocity": 57}, {"time": 3380, "pitch": 66, "duration": 14, "velocity": 67}, {"time": 3380, "pitch": 69, "duration": 14, "velocity": 67}, {"time": 3380, "pitch": 74, "duration": 14, "velocity": 67}, {"time": 3392, "pitch": 62, "duration": 11, "velocity": 54}, {"time": 3398, "pitch": 66, "duration": 16, "velocity": 75}, {"time": 3398, "pitch": 69, "duration": 16, "velocity": 75}, {"time": 3398, "pitch": 74, "duration": 16, "velocity": 75}, {"time": 3410, "pitch": 62, "duration": 7, "velocity": 58}, {"time": 3416, "pitch": 66, "duration": 4, "velocity": 75}, {"time": 3416, "pitch": 69, "duration": 5, "velocity": 77}, {"time": 3416, "pitch": 74, "duration": 4, "velocity": 72}, {"time": 3428, "pitch": 43, "duration": 41, "velocity": 73}, {"time": 3428, "pitch": 59, "duration": 13, "velocity": 68}, {"time": 3428, "pitch": 62, "duration": 13, "velocity": 73}, {"time": 3428, "pitch": 67, "duration": 12, "velocity": 79}, {"time": 3434, "pitch": 50, "duration": 40, "velocity": 59}, {"time": 3440, "pitch": 55, "duration": 11, "velocity": 52}, {"time": 3446, "pitch": 59, "duration": 16, "velocity": 72}, {"time": 3446, "pitch": 62, "duration": 16, "velocity": 77}, {"time": 3446, "pitch": 67, "duration": 16, "velocity": 75}, {"time": 3458, "pitch": 55, "duration": 12, "velocity": 56}, {"time": 3464, "pitch": 59, "duration": 4, "velocity": 62}, {"time": 3464, "pitch": 62, "duration": 4, "velocity": 67}, {"time": 3464, "pitch": 67, "duration": 3, "velocity": 70}, {"time": 3476, "pitch": 45, "duration": 39, "velocity": 77}, {"time": 3476, "pitch": 61, "duration": 15, "velocity": 71}, {"time": 3476, "pitch": 64, "duration": 15, "velocity": 74}, {"time": 3476, "pitch": 69, "duration": 15, "velocity": 83}, {"time": 3482, "pitch": 52, "duration": 30, "velocity": 66}, {"time": 3488, "pitch": 57, "duration": 13, "velocity": 53}, {"time": 3494, "pitch": 61, "duration": 16, "velocity": 83}, {"time": 3494, "pitch": 64, "duration": 16, "velocity": 93}, {"time": 3494, "pitch": 69, "duration": 16, "velocity": 84}, {"time": 3506, "pitch": 57, "duration": 6, "velocity": 55}, {"time": 3512, "pitch": 61, "duration": 5, "velocity": 65}, {"time": 3512, "pitch": 64, "duration": 4, "velocity": 73}, {"time": 3512, "pitch": 69, "duration": 4, "velocity": 72}, {"time": 3524, "pitch": 42, "duration": 39, "velocity": 73}, {"time": 3524, "pitch": 57, "duration": 14, "velocity": 61}, {"time": 3524, "pitch": 61, "duration": 14, "velocity": 65}, {"time": 3524, "pitch": 66, "duration": 14, "velocity": 69}, {"time": 3530, "pitch": 49, "duration": 32, "velocity": 67}, {"time": 3536, "pitch": 54, "duration": 11, "velocity": 52}, {"time": 3542, "pitch": 57, "duration": 15, "velocity": 70}, {"time": 3542, "pitch": 61, "duration": 16, "velocity": 79}, {"time": 3542, "pitch": 66, "duration": 16, "velocity": 74}, {"time": 3554, "pitch": 54, "duration": 13, "velocity": 56}, {"time": 3560, "pitch": 57, "duration": 12, "velocity": 65}, {"time": 3566, "pitch": 61, "duration": 6, "velocity": 69}, {"time": 3572, "pitch": 47, "duration": 39, "velocity": 79}, {"time": 3578, "pitch": 54, "duration": 34, "velocity": 65}, {"time": 3584, "pitch": 59, "duration": 11, "velocity": 57}, {"time": 3590, "pitch": 62, "duration": 17, "velocity": 69}, {"time": 3590, "pitch": 66, "duration": 17, "velocity": 72}, {"time": 3590, "pitch": 71, "duration": 17, "velocity": 65}, {"time": 3602, "pitch": 59, "duration": 17, "velocity": 53}, {"time": 3608, "pitch": 62, "duration": 5, "velocity": 72}, {"time": 3608, "pitch": 66, "duration": 5, "velocity": 74}, {"time": 3608, "pitch": 71, "duration": 5, "velocity": 69}, {"time": 3620, "pitch": 52, "duration": 37, "velocity": 71}, {"time": 3620, "pitch": 67, "duration": 13, "velocity": 83}, {"time": 3620, "pitch": 71, "duration": 13, "velocity": 77}, {"time": 3620, "pitch": 76, "duration": 13, "velocity": 77}, {"time": 3626, "pitch": 59, "duration": 30, "velocity": 58}, {"time": 3632, "pitch": 64, "duration": 12, "velocity": 57}, {"time": 3638, "pitch": 67, "duration": 15, "velocity": 83}, {"time": 3638, "pitch": 71, "duration": 15, "velocity": 84}, {"time": 3638, "pitch": 76, "duration": 15, "velocity": 83}, {"time": 3650, "pitch": 64, "duration": 7, "velocity": 57}, {"time": 3656, "pitch": 67, "duration": 5, "velocity": 74}, {"time": 3656, "pitch": 71, "duration": 5, "velocity": 77}, {"time": 3656, "pitch": 76, "duration": 4, "velocity": 81}, {"time": 3668, "pitch": 45, "duration": 37, "velocity": 73}, {"time": 3668, "pitch": 61, "duration": 14, "velocity": 71}, {"time": 3668, "pitch": 64, "duration": 15, "velocity": 73}, {"time": 3668, "pitch": 69, "duration": 15, "velocity": 72}, {"time": 3674, "pitch": 52, "duration": 33, "velocity": 63}, {"time": 3680, "pitch": 57, "duration": 13, "velocity": 55}, {"time": 3686, "pitch": 61, "duration": 15, "velocity": 73}, {"time": 3686, "pitch": 64, "duration": 15, "velocity": 83}, {"time": 3686, "pitch": 69, "duration": 15, "velocity": 85}, {"time": 3698, "pitch": 57, "duration": 18, "velocity": 50}, {"time": 3704, "pitch": 61, "duration": 5, "velocity": 71}, {"time": 3704, "pitch": 64, "duration": 6, "velocity": 75}, {"time": 3704, "pitch": 69, "duration": 6, "velocity": 75}, {"time": 3716, "pitch": 47, "duration": 44, "velocity": 83}, {"time": 3716, "pitch": 62, "duration": 45, "velocity": 58}, {"time": 3716, "pitch": 66, "duration": 44, "velocity": 69}, {"time": 3716, "pitch": 71, "duration": 44, "velocity": 67}, {"time": 3728, "pitch": 54, "duration": 34, "velocity": 59}, {"time": 3734, "pitch": 59, "duration": 25, "velocity": 57}, {"time": 3764, "pitch": 50, "duration": 46, "velocity": 71}, {"time": 3764, "pitch": 66, "duration": 20, "velocity": 66}, {"time": 3764, "pitch": 69, "duration": 20, "velocity": 84}, {"time": 3770, "pitch": 57, "duration": 3, "velocity": 44}, {"time": 3776, "pitch": 57, "duration": 34, "velocity": 48}, {"time": 3782, "pitch": 62, "duration": 7, "velocity": 48}, {"time": 3788, "pitch": 66, "duration": 23, "velocity": 83}, {"time": 3788, "pitch": 69, "duration": 23, "velocity": 85}, {"time": 3794, "pitch": 62, "duration": 6, "velocity": 62}, {"time": 3800, "pitch": 73, "duration": 10, "velocity": 68}, {"time": 3806, "pitch": 62, "duration": 3, "velocity": 57}, {"time": 3812, "pitch": 43, "duration": 44, "velocity": 75}, {"time": 3812, "pitch": 59, "duration": 8, "velocity": 63}, {"time": 3812, "pitch": 62, "duration": 8, "velocity": 68}, {"time": 3812, "pitch": 67, "duration": 7, "velocity": 74}, {"time": 3821, "pitch": 50, "duration": 37, "velocity": 8}, {"time": 3824, "pitch": 59, "duration": 5, "velocity": 79}, {"time": 3824, "pitch": 62, "duration": 4, "velocity": 96}, {"time": 3824, "pitch": 67, "duration": 4, "velocity": 102}, {"time": 3836, "pitch": 59, "duration": 8, "velocity": 72}, {"time": 3836, "pitch": 62, "duration": 8, "velocity": 85}, {"time": 3836, "pitch": 67, "duration": 8, "velocity": 102}, {"time": 3848, "pitch": 59, "duration": 7, "velocity": 79}, {"time": 3848, "pitch": 62, "duration": 7, "velocity": 91}, {"time": 3848, "pitch": 67, "duration": 6, "velocity": 106}, {"time": 3854, "pitch": 55, "duration": 4, "velocity": 61}, {"time": 3860, "pitch": 45, "duration": 41, "velocity": 72}, {"time": 3860, "pitch": 61, "duration": 8, "velocity": 68}, {"time": 3860, "pitch": 64, "duration": 8, "velocity": 73}, {"time": 3860, "pitch": 69, "duration": 8, "velocity": 83}, {"time": 3863, "pitch": 52, "duration": 35, "velocity": 67}, {"time": 3872, "pitch": 61, "duration": 9, "velocity": 81}, {"time": 3872, "pitch": 64, "duration": 9, "velocity": 81}, {"time": 3872, "pitch": 69, "duration": 9, "velocity": 81}, {"time": 3884, "pitch": 61, "duration": 8, "velocity": 77}, {"time": 3884, "pitch": 64, "duration": 8, "velocity": 77}, {"time": 3884, "pitch": 69, "duration": 8, "velocity": 77}, {"time": 3890, "pitch": 57, "duration": 5, "velocity": 77}, {"time": 3896, "pitch": 61, "duration": 6, "velocity": 83}, {"time": 3896, "pitch": 64, "duration": 5, "velocity": 83}, {"time": 3896, "pitch": 69, "duration": 5, "velocity": 83}, {"time": 3908, "pitch": 42, "duration": 40, "velocity": 74}, {"time": 3908, "pitch": 57, "duration": 8, "velocity": 72}, {"time": 3908, "pitch": 61, "duration": 8, "velocity": 74}, {"time": 3908, "pitch": 66, "duration": 8, "velocity": 63}, {"time": 3914, "pitch": 49, "duration": 35, "velocity": 60}, {"time": 3920, "pitch": 57, "duration": 9, "velocity": 71}, {"time": 3920, "pitch": 61, "duration": 9, "velocity": 84}, {"time": 3920, "pitch": 66, "duration": 9, "velocity": 84}, {"time": 3932, "pitch": 57, "duration": 7, "velocity": 67}, {"time": 3932, "pitch": 61, "duration": 8, "velocity": 88}, {"time": 3932, "pitch": 66, "duration": 7, "velocity": 77}, {"time": 3938, "pitch": 54, "duration": 14, "velocity": 56}, {"time": 3944, "pitch": 57, "duration": 6, "velocity": 75}, {"time": 3944, "pitch": 61, "duration": 6, "velocity": 91}, {"time": 3944, "pitch": 66, "duration": 6, "velocity": 96}, {"time": 3956, "pitch": 47, "duration": 46, "velocity": 71}, {"time": 3956, "pitch": 62, "duration": 7, "velocity": 88}, {"time": 3956, "pitch": 66, "duration": 7, "velocity": 91}, {"time": 3956, "pitch": 71, "duration": 7, "velocity": 77}, {"time": 3959, "pitch": 54, "duration": 42, "velocity": 61}, {"time": 3968, "pitch": 62, "duration": 8, "velocity": 83}, {"time": 3968, "pitch": 66, "duration": 8, "velocity": 91}, {"time": 3968, "pitch": 71, "duration": 8, "velocity": 84}, {"time": 3974, "pitch": 59, "duration": 7, "velocity": 50}, {"time": 3980, "pitch": 62, "duration": 9, "velocity": 72}, {"time": 3980, "pitch": 66, "duration": 9, "velocity": 72}, {"time": 3980, "pitch": 71, "duration": 9, "velocity": 72}, {"time": 3985, "pitch": 74, "duration": 6, "velocity": 77}, {"time": 3986, "pitch": 59, "duration": 8, "velocity": 77}, {"time": 3992, "pitch": 62, "duration": 8, "velocity": 75}, {"time": 3992, "pitch": 66, "duration": 8, "velocity": 75}, {"time": 3992, "pitch": 71, "duration": 8, "velocity": 75}, {"time": 3995, "pitch": 86, "duration": 2, "velocity": 75}, {"time": 3997, "pitch": 85, "duration": 4, "velocity": 75}, {"time": 3998, "pitch": 59, "duration": 4, "velocity": 75}, {"time": 4001, "pitch": 81, "duration": 3, "velocity": 74}, {"time": 4003, "pitch": 83, "duration": 8, "velocity": 74}, {"time": 4004, "pitch": 52, "duration": 40, "velocity": 74}, {"time": 4004, "pitch": 67, "duration": 7, "velocity": 74}, {"time": 4004, "pitch": 71, "duration": 7, "velocity": 74}, {"time": 4010, "pitch": 59, "duration": 33, "velocity": 63}, {"time": 4016, "pitch": 67, "duration": 9, "velocity": 72}, {"time": 4016, "pitch": 71, "duration": 10, "velocity": 84}, {"time": 4022, "pitch": 64, "duration": 9, "velocity": 72}, {"time": 4028, "pitch": 67, "duration": 8, "velocity": 62}, {"time": 4028, "pitch": 71, "duration": 9, "velocity": 88}, {"time": 4035, "pitch": 64, "duration": 7, "velocity": 73}, {"time": 4040, "pitch": 67, "duration": 6, "velocity": 76}, {"time": 4040, "pitch": 71, "duration": 5, "velocity": 93}, {"time": 4052, "pitch": 45, "duration": 41, "velocity": 81}, {"time": 4052, "pitch": 61, "duration": 8, "velocity": 71}, {"time": 4052, "pitch": 64, "duration": 9, "velocity": 79}, {"time": 4058, "pitch": 52, "duration": 36, "velocity": 75}, {"time": 4064, "pitch": 61, "duration": 9, "velocity": 65}, {"time": 4064, "pitch": 64, "duration": 9, "velocity": 75}, {"time": 4064, "pitch": 69, "duration": 8, "velocity": 83}, {"time": 4070, "pitch": 57, "duration": 7, "velocity": 46}, {"time": 4076, "pitch": 61, "duration": 9, "velocity": 71}, {"time": 4076, "pitch": 64, "duration": 9, "velocity": 85}, {"time": 4076, "pitch": 69, "duration": 9, "velocity": 91}, {"time": 4082, "pitch": 57, "duration": 8, "velocity": 52}, {"time": 4088, "pitch": 61, "duration": 7, "velocity": 79}, {"time": 4088, "pitch": 64, "duration": 7, "velocity": 88}, {"time": 4088, "pitch": 69, "duration": 7, "velocity": 88}, {"time": 4094, "pitch": 57, "duration": 6, "velocity": 58}, {"time": 4100, "pitch": 50, "duration": 41, "velocity": 83}, {"time": 4100, "pitch": 66, "duration": 10, "velocity": 85}, {"time": 4100, "pitch": 69, "duration": 10, "velocity": 88}, {"time": 4106, "pitch": 57, "duration": 37, "velocity": 57}, {"time": 4112, "pitch": 66, "duration": 8, "velocity": 71}, {"time": 4112, "pitch": 69, "duration": 9, "velocity": 83}, {"time": 4112, "pitch": 74, "duration": 8, "velocity": 73}, {"time": 4118, "pitch": 62, "duration": 7, "velocity": 78}, {"time": 4124, "pitch": 66, "duration": 9, "velocity": 77}, {"time": 4124, "pitch": 69, "duration": 9, "velocity": 77}, {"time": 4124, "pitch": 74, "duration": 9, "velocity": 77}, {"time": 4130, "pitch": 62, "duration": 48, "velocity": 82}, {"time": 4136, "pitch": 66, "duration": 9, "velocity": 88}, {"time": 4136, "pitch": 69, "duration": 8, "velocity": 88}, {"time": 4136, "pitch": 74, "duration": 7, "velocity": 88}, {"time": 4148, "pitch": 38, "duration": 11, "velocity": 88}, {"time": 4148, "pitch": 50, "duration": 11, "velocity": 88}, {"time": 4148, "pitch": 66, "duration": 10, "velocity": 88}, {"time": 4148, "pitch": 69, "duration": 9, "velocity": 88}, {"time": 4148, "pitch": 72, "duration": 10, "velocity": 88}, {"time": 4160, "pitch": 38, "duration": 11, "velocity": 88}, {"time": 4160, "pitch": 50, "duration": 11, "velocity": 88}, {"time": 4160, "pitch": 66, "duration": 10, "velocity": 88}, {"time": 4160, "pitch": 69, "duration": 10, "velocity": 88}, {"time": 4160, "pitch": 72, "duration": 11, "velocity": 88}, {"time": 4172, "pitch": 40, "duration": 13, "velocity": 85}, {"time": 4172, "pitch": 52, "duration": 13, "velocity": 85}, {"time": 4172, "pitch": 66, "duration": 9, "velocity": 85}, {"time": 4172, "pitch": 69, "duration": 9, "velocity": 85}, {"time": 4172, "pitch": 72, "duration": 9, "velocity": 85}, {"time": 4184, "pitch": 42, "duration": 11, "velocity": 78}, {"time": 4184, "pitch": 54, "duration": 11, "velocity": 78}, {"time": 4184, "pitch": 66, "duration": 8, "velocity": 78}, {"time": 4184, "pitch": 69, "duration": 8, "velocity": 78}, {"time": 4184, "pitch": 72, "duration": 8, "velocity": 78}, {"time": 4196, "pitch": 43, "duration": 45, "velocity": 66}, {"time": 4196, "pitch": 59, "duration": 9, "velocity": 62}, {"time": 4196, "pitch": 62, "duration": 9, "velocity": 69}, {"time": 4196, "pitch": 67, "duration": 9, "velocity": 70}, {"time": 4202, "pitch": 50, "duration": 43, "velocity": 58}, {"time": 4208, "pitch": 59, "duration": 9, "velocity": 79}, {"time": 4208, "pitch": 62, "duration": 9, "velocity": 79}, {"time": 4208, "pitch": 67, "duration": 9, "velocity": 79}, {"time": 4220, "pitch": 59, "duration": 8, "velocity": 85}, {"time": 4220, "pitch": 62, "duration": 8, "velocity": 85}, {"time": 4220, "pitch": 67, "duration": 8, "velocity": 85}, {"time": 4226, "pitch": 55, "duration": 7, "velocity": 57}, {"time": 4232, "pitch": 59, "duration": 8, "velocity": 74}, {"time": 4232, "pitch": 62, "duration": 9, "velocity": 74}, {"time": 4232, "pitch": 67, "duration": 8, "velocity": 74}, {"time": 4238, "pitch": 55, "duration": 4, "velocity": 43}, {"time": 4244, "pitch": 45, "duration": 41, "velocity": 73}, {"time": 4244, "pitch": 61, "duration": 7, "velocity": 73}, {"time": 4244, "pitch": 64, "duration": 8, "velocity": 73}, {"time": 4244, "pitch": 69, "duration": 8, "velocity": 73}, {"time": 4250, "pitch": 52, "duration": 31, "velocity": 61}, {"time": 4256, "pitch": 61, "duration": 9, "velocity": 67}, {"time": 4256, "pitch": 64, "duration": 9, "velocity": 88}, {"time": 4256, "pitch": 69, "duration": 9, "velocity": 88}, {"time": 4262, "pitch": 57, "duration": 7, "velocity": 53}, {"time": 4268, "pitch": 61, "duration": 8, "velocity": 77}, {"time": 4268, "pitch": 64, "duration": 8, "velocity": 77}, {"time": 4268, "pitch": 69, "duration": 7, "velocity": 77}, {"time": 4274, "pitch": 57, "duration": 6, "velocity": 81}, {"time": 4280, "pitch": 61, "duration": 5, "velocity": 80}, {"time": 4280, "pitch": 64, "duration": 5, "velocity": 80}, {"time": 4280, "pitch": 69, "duration": 5, "velocity": 80}, {"time": 4292, "pitch": 42, "duration": 40, "velocity": 71}, {"time": 4292, "pitch": 57, "duration": 8, "velocity": 62}, {"time": 4292, "pitch": 61, "duration": 8, "velocity": 75}, {"time": 4292, "pitch": 66, "duration": 9, "velocity": 74}, {"time": 4298, "pitch": 49, "duration": 35, "velocity": 72}, {"time": 4304, "pitch": 57, "duration": 10, "velocity": 72}, {"time": 4304, "pitch": 61, "duration": 9, "velocity": 83}, {"time": 4304, "pitch": 66, "duration": 10, "velocity": 85}, {"time": 4310, "pitch": 54, "duration": 7, "velocity": 57}, {"time": 4316, "pitch": 57, "duration": 8, "velocity": 81}, {"time": 4316, "pitch": 61, "duration": 8, "velocity": 91}, {"time": 4316, "pitch": 66, "duration": 8, "velocity": 96}, {"time": 4322, "pitch": 54, "duration": 17, "velocity": 59}, {"time": 4328, "pitch": 57, "duration": 6, "velocity": 74}, {"time": 4328, "pitch": 61, "duration": 6, "velocity": 91}, {"time": 4328, "pitch": 66, "duration": 6, "velocity": 91}, {"time": 4340, "pitch": 47, "duration": 42, "velocity": 71}, {"time": 4340, "pitch": 62, "duration": 10, "velocity": 93}, {"time": 4340, "pitch": 66, "duration": 10, "velocity": 96}, {"time": 4340, "pitch": 71, "duration": 10, "velocity": 85}, {"time": 4340, "pitch": 35, "duration": 42, "velocity": 71}, {"time": 4346, "pitch": 54, "duration": 36, "velocity": 57}, {"time": 4352, "pitch": 59, "duration": 14, "velocity": 57}, {"time": 4352, "pitch": 62, "duration": 9, "velocity": 83}, {"time": 4352, "pitch": 66, "duration": 9, "velocity": 88}, {"time": 4352, "pitch": 71, "duration": 9, "velocity": 79}, {"time": 4364, "pitch": 62, "duration": 9, "velocity": 85}, {"time": 4364, "pitch": 66, "duration": 9, "velocity": 93}, {"time": 4364, "pitch": 71, "duration": 9, "velocity": 91}, {"time": 4370, "pitch": 59, "duration": 8, "velocity": 47}, {"time": 4376, "pitch": 62, "duration": 6, "velocity": 96}, {"time": 4376, "pitch": 66, "duration": 6, "velocity": 96}, {"time": 4376, "pitch": 71, "duration": 6, "velocity": 96}, {"time": 4388, "pitch": 40, "duration": 42, "velocity": 55}, {"time": 4388, "pitch": 55, "duration": 8, "velocity": 67}, {"time": 4388, "pitch": 59, "duration": 9, "velocity": 72}, {"time": 4388, "pitch": 64, "duration": 8, "velocity": 71}, {"time": 4394, "pitch": 47, "duration": 37, "velocity": 57}, {"time": 4400, "pitch": 55, "duration": 8, "velocity": 72}, {"time": 4400, "pitch": 59, "duration": 8, "velocity": 79}, {"time": 4400, "pitch": 64, "duration": 8, "velocity": 73}, {"time": 4412, "pitch": 55, "duration": 8, "velocity": 79}, {"time": 4412, "pitch": 59, "duration": 8, "velocity": 88}, {"time": 4412, "pitch": 64, "duration": 8, "velocity": 85}, {"time": 4418, "pitch": 52, "duration": 6, "velocity": 43}, {"time": 4424, "pitch": 55, "duration": 7, "velocity": 83}, {"time": 4424, "pitch": 59, "duration": 6, "velocity": 84}, {"time": 4424, "pitch": 64, "duration": 6, "velocity": 85}, {"time": 4430, "pitch": 52, "duration": 6, "velocity": 58}, {"time": 4436, "pitch": 45, "duration": 43, "velocity": 64}, {"time": 4436, "pitch": 61, "duration": 8, "velocity": 63}, {"time": 4436, "pitch": 64, "duration": 8, "velocity": 73}, {"time": 4436, "pitch": 69, "duration": 8, "velocity": 83}, {"time": 4442, "pitch": 52, "duration": 36, "velocity": 73}, {"time": 4448, "pitch": 61, "duration": 9, "velocity": 72}, {"time": 4448, "pitch": 64, "duration": 9, "velocity": 79}, {"time": 4448, "pitch": 69, "duration": 9, "velocity": 88}, {"time": 4454, "pitch": 57, "duration": 10, "velocity": 43}, {"time": 4460, "pitch": 61, "duration": 9, "velocity": 75}, {"time": 4460, "pitch": 64, "duration": 9, "velocity": 75}, {"time": 4460, "pitch": 69, "duration": 9, "velocity": 75}, {"time": 4466, "pitch": 57, "duration": 8, "velocity": 56}, {"time": 4472, "pitch": 61, "duration": 7, "velocity": 81}, {"time": 4472, "pitch": 64, "duration": 7, "velocity": 81}, {"time": 4472, "pitch": 69, "duration": 6, "velocity": 81}, {"time": 4484, "pitch": 38, "duration": 94, "velocity": 83}, {"time": 4484, "pitch": 54, "duration": 10, "velocity": 83}, {"time": 4484, "pitch": 57, "duration": 10, "velocity": 83}, {"time": 4484, "pitch": 62, "duration": 10, "velocity": 83}, {"time": 4490, "pitch": 45, "duration": 88, "velocity": 56}, {"time": 4496, "pitch": 54, "duration": 9, "velocity": 61}, {"time": 4496, "pitch": 57, "duration": 10, "velocity": 64}, {"time": 4496, "pitch": 62, "duration": 9, "velocity": 72}, {"time": 4502, "pitch": 50, "duration": 8, "velocity": 57}, {"time": 4508, "pitch": 54, "duration": 8, "velocity": 74}, {"time": 4508, "pitch": 57, "duration": 8, "velocity": 72}, {"time": 4508, "pitch": 62, "duration": 8, "velocity": 93}, {"time": 4514, "pitch": 50, "duration": 7, "velocity": 59}, {"time": 4520, "pitch": 54, "duration": 9, "velocity": 75}, {"time": 4520, "pitch": 57, "duration": 9, "velocity": 73}, {"time": 4520, "pitch": 62, "duration": 9, "velocity": 83}, {"time": 4526, "pitch": 50, "duration": 7, "velocity": 57}, {"time": 4532, "pitch": 54, "duration": 44, "velocity": 84}, {"time": 4532, "pitch": 57, "duration": 44, "velocity": 77}, {"time": 4532, "pitch": 62, "duration": 44, "velocity": 98}, {"time": 4538, "pitch": 50, "duration": 38, "velocity": 56}, {"time": 4580, "pitch": 55, "duration": 32, "velocity": 67}, {"time": 4592, "pitch": 67, "duration": 19, "velocity": 58}, {"time": 4598, "pitch": 76, "duration": 17, "velocity": 61}, {"time": 4604, "pitch": 81, "duration": 12, "velocity": 68}, {"time": 4628, "pitch": 57, "duration": 27, "velocity": 65}, {"time": 4640, "pitch": 64, "duration": 12, "velocity": 58}, {"time": 4652, "pitch": 76, "duration": 13, "velocity": 81}, {"time": 4664, "pitch": 69, "duration": 10, "velocity": 56}, {"time": 4676, "pitch": 54, "duration": 36, "velocity": 65}, {"time": 4682, "pitch": 61, "duration": 30, "velocity": 58}, {"time": 4688, "pitch": 66, "duration": 22, "velocity": 54}, {"time": 4694, "pitch": 76, "duration": 4, "velocity": 70}, {"time": 4700, "pitch": 73, "duration": 12, "velocity": 84}, {"time": 4724, "pitch": 59, "duration": 46, "velocity": 59}, {"time": 4730, "pitch": 66, "duration": 38, "velocity": 45}, {"time": 4736, "pitch": 74, "duration": 8, "velocity": 56}, {"time": 4742, "pitch": 81, "duration": 17, "velocity": 70}, {"time": 4760, "pitch": 74, "duration": 9, "velocity": 61}, {"time": 4772, "pitch": 52, "duration": 39, "velocity": 74}, {"time": 4778, "pitch": 59, "duration": 32, "velocity": 63}, {"time": 4784, "pitch": 64, "duration": 13, "velocity": 56}, {"time": 4784, "pitch": 69, "duration": 2, "velocity": 61}, {"time": 4790, "pitch": 67, "duration": 31, "velocity": 74}, {"time": 4802, "pitch": 64, "duration": 6, "velocity": 56}, {"time": 4808, "pitch": 71, "duration": 12, "velocity": 74}, {"time": 4820, "pitch": 45, "duration": 36, "velocity": 72}, {"time": 4826, "pitch": 52, "duration": 32, "velocity": 70}, {"time": 4832, "pitch": 57, "duration": 15, "velocity": 59}, {"time": 4838, "pitch": 61, "duration": 17, "velocity": 72}, {"time": 4844, "pitch": 64, "duration": 13, "velocity": 70}, {"time": 4850, "pitch": 57, "duration": 18, "velocity": 50}, {"time": 4856, "pitch": 61, "duration": 8, "velocity": 66}, {"time": 4868, "pitch": 50, "duration": 60, "velocity": 75}, {"time": 4868, "pitch": 66, "duration": 59, "velocity": 77}, {"time": 4874, "pitch": 57, "duration": 55, "velocity": 53}, {"time": 4880, "pitch": 62, "duration": 10, "velocity": 59}, {"time": 4886, "pitch": 69, "duration": 22, "velocity": 69}, {"time": 4898, "pitch": 62, "duration": 30, "velocity": 56}, {"time": 4928, "pitch": 50, "duration": 1, "velocity": 58}, {"time": 4928, "pitch": 57, "duration": 1, "velocity": 58}, {"time": 4928, "pitch": 62, "duration": 51, "velocity": 49}, {"time": 4928, "pitch": 66, "duration": 52, "velocity": 62}, {"time": 4928, "pitch": 69, "duration": 52, "velocity": 66}, {"time": 4928, "pitch": 73, "duration": 52, "velocity": 62}], "annotations": [{"time": 8, "annotation": {"number": 64, "value": 65}, "group": "control_change"}, {"time": 20, "annotation": {"number": 64, "value": 73}, "group": "control_change"}]}]}