{"metadata": {"schema_version": "0.2", "title": "None", "source_filename": "155.mid", "source_format": "midi"}, "resolution": 12, "tempos": [{"time": 0, "qpm": 70.00007000007}], "time_signatures": [{"time": 0, "numerator": 1, "denominator": 4}], "tracks": [{"program": 0, "is_drum": false, "name": "MELODY", "notes": [{"time": 206, "pitch": 66, "duration": 4, "velocity": 67}, {"time": 209, "pitch": 68, "duration": 3, "velocity": 63}, {"time": 212, "pitch": 69, "duration": 6, "velocity": 76}, {"time": 218, "pitch": 69, "duration": 13, "velocity": 85}, {"time": 230, "pitch": 62, "duration": 3, "velocity": 75}, {"time": 233, "pitch": 62, "duration": 21, "velocity": 83}, {"time": 254, "pitch": 64, "duration": 6, "velocity": 79}, {"time": 260, "pitch": 64, "duration": 6, "velocity": 83}, {"time": 266, "pitch": 73, "duration": 6, "velocity": 75}, {"time": 272, "pitch": 71, "duration": 6, "velocity": 68}, {"time": 278, "pitch": 71, "duration": 4, "velocity": 90}, {"time": 281, "pitch": 69, "duration": 6, "velocity": 63}, {"time": 287, "pitch": 69, "duration": 18, "velocity": 93}, {"time": 305, "pitch": 69, "duration": 3, "velocity": 63}, {"time": 308, "pitch": 71, "duration": 3, "velocity": 71}, {"time": 311, "pitch": 69, "duration": 21, "velocity": 87}, {"time": 332, "pitch": 62, "duration": 3, "velocity": 71}, {"time": 335, "pitch": 62, "duration": 3, "velocity": 74}, {"time": 338, "pitch": 66, "duration": 9, "velocity": 85}, {"time": 347, "pitch": 64, "duration": 3, "velocity": 65}, {"time": 350, "pitch": 64, "duration": 48, "velocity": 67}, {"time": 398, "pitch": 66, "duration": 3, "velocity": 73}, {"time": 401, "pitch": 69, "duration": 3, "velocity": 61}, {"time": 404, "pitch": 69, "duration": 6, "velocity": 71}, {"time": 410, "pitch": 69, "duration": 6, "velocity": 75}, {"time": 416, "pitch": 71, "duration": 3, "velocity": 75}, {"time": 419, "pitch": 73, "duration": 11, "velocity": 86}, {"time": 428, "pitch": 69, "duration": 3, "velocity": 66}, {"time": 431, "pitch": 73, "duration": 21, "velocity": 85}, {"time": 452, "pitch": 71, "duration": 3, "velocity": 67}, {"time": 455, "pitch": 73, "duration": 3, "velocity": 71}, {"time": 458, "pitch": 71, "duration": 5, "velocity": 86}, {"time": 461, "pitch": 76, "duration": 9, "velocity": 79}, {"time": 470, "pitch": 76, "duration": 8, "velocity": 79}, {"time": 476, "pitch": 68, "duration": 3, "velocity": 81}, {"time": 479, "pitch": 69, "duration": 39, "velocity": 74}, {"time": 518, "pitch": 73, "duration": 3, "velocity": 83}, {"time": 521, "pitch": 74, "duration": 4, "velocity": 72}, {"time": 524, "pitch": 73, "duration": 3, "velocity": 60}, {"time": 527, "pitch": 74, "duration": 3, "velocity": 74}, {"time": 530, "pitch": 73, "duration": 6, "velocity": 69}, {"time": 536, "pitch": 69, "duration": 3, "velocity": 70}, {"time": 539, "pitch": 69, "duration": 6, "velocity": 90}, {"time": 545, "pitch": 66, "duration": 3, "velocity": 51}, {"time": 548, "pitch": 71, "duration": 42, "velocity": 62}, {"time": 590, "pitch": 74, "duration": 6, "velocity": 90}, {"time": 596, "pitch": 74, "duration": 6, "velocity": 91}, {"time": 602, "pitch": 74, "duration": 6, "velocity": 91}, {"time": 608, "pitch": 73, "duration": 3, "velocity": 88}, {"time": 611, "pitch": 73, "duration": 9, "velocity": 85}, {"time": 620, "pitch": 71, "duration": 3, "velocity": 85}, {"time": 623, "pitch": 73, "duration": 21, "velocity": 84}, {"time": 644, "pitch": 73, "duration": 3, "velocity": 73}, {"time": 647, "pitch": 73, "duration": 3, "velocity": 75}, {"time": 650, "pitch": 73, "duration": 3, "velocity": 87}, {"time": 653, "pitch": 78, "duration": 9, "velocity": 100}, {"time": 662, "pitch": 71, "duration": 6, "velocity": 90}, {"time": 668, "pitch": 69, "duration": 3, "velocity": 64}, {"time": 671, "pitch": 69, "duration": 21, "velocity": 81}, {"time": 692, "pitch": 66, "duration": 3, "velocity": 79}, {"time": 695, "pitch": 66, "duration": 3, "velocity": 74}, {"time": 698, "pitch": 66, "duration": 6, "velocity": 90}, {"time": 704, "pitch": 68, "duration": 7, "velocity": 93}, {"time": 710, "pitch": 69, "duration": 3, "velocity": 76}, {"time": 713, "pitch": 73, "duration": 9, "velocity": 87}, {"time": 722, "pitch": 71, "duration": 24, "velocity": 85}, {"time": 746, "pitch": 73, "duration": 24, "velocity": 67}, {"time": 770, "pitch": 81, "duration": 6, "velocity": 85}, {"time": 776, "pitch": 81, "duration": 6, "velocity": 88}, {"time": 782, "pitch": 80, "duration": 12, "velocity": 91}, {"time": 794, "pitch": 80, "duration": 3, "velocity": 95}, {"time": 797, "pitch": 81, "duration": 6, "velocity": 95}, {"time": 803, "pitch": 81, "duration": 15, "velocity": 92}, {"time": 818, "pitch": 81, "duration": 7, "velocity": 86}, {"time": 824, "pitch": 80, "duration": 4, "velocity": 87}, {"time": 827, "pitch": 78, "duration": 7, "velocity": 88}, {"time": 833, "pitch": 76, "duration": 4, "velocity": 76}, {"time": 836, "pitch": 73, "duration": 18, "velocity": 93}, {"time": 854, "pitch": 73, "duration": 4, "velocity": 74}, {"time": 857, "pitch": 71, "duration": 4, "velocity": 65}, {"time": 860, "pitch": 69, "duration": 3, "velocity": 60}, {"time": 863, "pitch": 66, "duration": 4, "velocity": 63}, {"time": 866, "pitch": 69, "duration": 5, "velocity": 85}, {"time": 869, "pitch": 71, "duration": 6, "velocity": 69}, {"time": 875, "pitch": 73, "duration": 12, "velocity": 92}, {"time": 887, "pitch": 64, "duration": 3, "velocity": 63}, {"time": 890, "pitch": 69, "duration": 4, "velocity": 70}, {"time": 893, "pitch": 71, "duration": 6, "velocity": 79}, {"time": 899, "pitch": 73, "duration": 12, "velocity": 95}, {"time": 911, "pitch": 64, "duration": 3, "velocity": 58}, {"time": 914, "pitch": 69, "duration": 4, "velocity": 74}, {"time": 917, "pitch": 71, "duration": 6, "velocity": 73}, {"time": 923, "pitch": 73, "duration": 39, "velocity": 96}, {"time": 962, "pitch": 81, "duration": 6, "velocity": 91}, {"time": 968, "pitch": 81, "duration": 6, "velocity": 94}, {"time": 974, "pitch": 81, "duration": 6, "velocity": 95}, {"time": 980, "pitch": 80, "duration": 6, "velocity": 95}, {"time": 986, "pitch": 78, "duration": 3, "velocity": 95}, {"time": 989, "pitch": 80, "duration": 6, "velocity": 94}, {"time": 995, "pitch": 81, "duration": 12, "velocity": 94}, {"time": 1004, "pitch": 69, "duration": 3, "velocity": 72}, {"time": 1007, "pitch": 69, "duration": 3, "velocity": 64}, {"time": 1010, "pitch": 81, "duration": 6, "velocity": 83}, {"time": 1016, "pitch": 81, "duration": 3, "velocity": 81}, {"time": 1019, "pitch": 80, "duration": 3, "velocity": 79}, {"time": 1022, "pitch": 78, "duration": 4, "velocity": 64}, {"time": 1025, "pitch": 76, "duration": 6, "velocity": 87}, {"time": 1031, "pitch": 73, "duration": 15, "velocity": 96}, {"time": 1046, "pitch": 73, "duration": 3, "velocity": 85}, {"time": 1049, "pitch": 71, "duration": 4, "velocity": 85}, {"time": 1052, "pitch": 69, "duration": 3, "velocity": 83}, {"time": 1055, "pitch": 66, "duration": 4, "velocity": 82}, {"time": 1058, "pitch": 73, "duration": 12, "velocity": 81}, {"time": 1070, "pitch": 73, "duration": 4, "velocity": 72}, {"time": 1073, "pitch": 71, "duration": 5, "velocity": 66}, {"time": 1076, "pitch": 69, "duration": 4, "velocity": 68}, {"time": 1079, "pitch": 66, "duration": 4, "velocity": 63}, {"time": 1082, "pitch": 73, "duration": 12, "velocity": 93}, {"time": 1094, "pitch": 73, "duration": 4, "velocity": 73}, {"time": 1097, "pitch": 71, "duration": 5, "velocity": 61}, {"time": 1100, "pitch": 69, "duration": 3, "velocity": 60}, {"time": 1103, "pitch": 66, "duration": 3, "velocity": 73}, {"time": 1106, "pitch": 71, "duration": 30, "velocity": 93}, {"time": 1136, "pitch": 81, "duration": 10, "velocity": 95}, {"time": 1145, "pitch": 80, "duration": 4, "velocity": 94}, {"time": 1148, "pitch": 78, "duration": 4, "velocity": 95}, {"time": 1151, "pitch": 81, "duration": 10, "velocity": 91}, {"time": 1160, "pitch": 78, "duration": 30, "velocity": 85}, {"time": 1190, "pitch": 76, "duration": 5, "velocity": 86}, {"time": 1193, "pitch": 74, "duration": 4, "velocity": 86}, {"time": 1196, "pitch": 73, "duration": 4, "velocity": 86}, {"time": 1199, "pitch": 74, "duration": 6, "velocity": 86}, {"time": 1205, "pitch": 73, "duration": 6, "velocity": 86}, {"time": 1211, "pitch": 71, "duration": 27, "velocity": 87}, {"time": 1238, "pitch": 81, "duration": 4, "velocity": 83}, {"time": 1241, "pitch": 80, "duration": 4, "velocity": 83}, {"time": 1244, "pitch": 78, "duration": 3, "velocity": 83}, {"time": 1247, "pitch": 80, "duration": 4, "velocity": 80}, {"time": 1250, "pitch": 81, "duration": 12, "velocity": 79}, {"time": 1262, "pitch": 73, "duration": 12, "velocity": 75}, {"time": 1274, "pitch": 76, "duration": 3, "velocity": 74}, {"time": 1277, "pitch": 78, "duration": 6, "velocity": 74}, {"time": 1283, "pitch": 76, "duration": 16, "velocity": 75}, {"time": 1289, "pitch": 73, "duration": 9, "velocity": 76}, {"time": 1298, "pitch": 71, "duration": 60, "velocity": 82}, {"time": 1358, "pitch": 66, "duration": 4, "velocity": 67}, {"time": 1361, "pitch": 68, "duration": 3, "velocity": 63}, {"time": 1364, "pitch": 69, "duration": 6, "velocity": 76}, {"time": 1370, "pitch": 69, "duration": 13, "velocity": 85}, {"time": 1382, "pitch": 62, "duration": 3, "velocity": 75}, {"time": 1385, "pitch": 62, "duration": 21, "velocity": 83}, {"time": 1406, "pitch": 64, "duration": 6, "velocity": 79}, {"time": 1412, "pitch": 64, "duration": 6, "velocity": 83}, {"time": 1418, "pitch": 73, "duration": 6, "velocity": 75}, {"time": 1424, "pitch": 71, "duration": 6, "velocity": 68}, {"time": 1430, "pitch": 71, "duration": 4, "velocity": 90}, {"time": 1433, "pitch": 69, "duration": 6, "velocity": 63}, {"time": 1439, "pitch": 69, "duration": 18, "velocity": 93}, {"time": 1457, "pitch": 69, "duration": 3, "velocity": 63}, {"time": 1460, "pitch": 71, "duration": 3, "velocity": 71}, {"time": 1463, "pitch": 69, "duration": 21, "velocity": 87}, {"time": 1484, "pitch": 62, "duration": 3, "velocity": 71}, {"time": 1487, "pitch": 62, "duration": 3, "velocity": 74}, {"time": 1490, "pitch": 66, "duration": 9, "velocity": 85}, {"time": 1499, "pitch": 64, "duration": 3, "velocity": 65}, {"time": 1502, "pitch": 64, "duration": 48, "velocity": 67}, {"time": 1550, "pitch": 66, "duration": 3, "velocity": 73}, {"time": 1553, "pitch": 69, "duration": 3, "velocity": 61}, {"time": 1556, "pitch": 69, "duration": 6, "velocity": 71}, {"time": 1562, "pitch": 69, "duration": 6, "velocity": 75}, {"time": 1568, "pitch": 71, "duration": 3, "velocity": 75}, {"time": 1571, "pitch": 73, "duration": 11, "velocity": 86}, {"time": 1580, "pitch": 69, "duration": 3, "velocity": 66}, {"time": 1583, "pitch": 73, "duration": 21, "velocity": 85}, {"time": 1604, "pitch": 71, "duration": 3, "velocity": 67}, {"time": 1607, "pitch": 73, "duration": 3, "velocity": 71}, {"time": 1610, "pitch": 71, "duration": 5, "velocity": 86}, {"time": 1613, "pitch": 76, "duration": 9, "velocity": 79}, {"time": 1622, "pitch": 76, "duration": 8, "velocity": 79}, {"time": 1628, "pitch": 68, "duration": 3, "velocity": 81}, {"time": 1631, "pitch": 69, "duration": 39, "velocity": 74}, {"time": 1670, "pitch": 73, "duration": 3, "velocity": 83}, {"time": 1673, "pitch": 74, "duration": 4, "velocity": 72}, {"time": 1676, "pitch": 73, "duration": 3, "velocity": 60}, {"time": 1679, "pitch": 74, "duration": 3, "velocity": 74}, {"time": 1682, "pitch": 73, "duration": 6, "velocity": 69}, {"time": 1688, "pitch": 69, "duration": 3, "velocity": 70}, {"time": 1691, "pitch": 69, "duration": 6, "velocity": 90}, {"time": 1697, "pitch": 66, "duration": 3, "velocity": 51}, {"time": 1700, "pitch": 71, "duration": 42, "velocity": 62}, {"time": 1742, "pitch": 74, "duration": 6, "velocity": 90}, {"time": 1748, "pitch": 74, "duration": 6, "velocity": 91}, {"time": 1754, "pitch": 74, "duration": 6, "velocity": 91}, {"time": 1760, "pitch": 73, "duration": 3, "velocity": 88}, {"time": 1763, "pitch": 73, "duration": 9, "velocity": 85}, {"time": 1772, "pitch": 71, "duration": 3, "velocity": 85}, {"time": 1775, "pitch": 73, "duration": 21, "velocity": 84}, {"time": 1796, "pitch": 73, "duration": 3, "velocity": 73}, {"time": 1799, "pitch": 73, "duration": 3, "velocity": 75}, {"time": 1802, "pitch": 73, "duration": 3, "velocity": 87}, {"time": 1805, "pitch": 78, "duration": 9, "velocity": 100}, {"time": 1814, "pitch": 71, "duration": 6, "velocity": 90}, {"time": 1820, "pitch": 69, "duration": 3, "velocity": 64}, {"time": 1823, "pitch": 69, "duration": 21, "velocity": 81}, {"time": 1844, "pitch": 66, "duration": 3, "velocity": 79}, {"time": 1847, "pitch": 66, "duration": 3, "velocity": 74}, {"time": 1850, "pitch": 66, "duration": 6, "velocity": 90}, {"time": 1856, "pitch": 68, "duration": 7, "velocity": 93}, {"time": 1862, "pitch": 69, "duration": 3, "velocity": 76}, {"time": 1865, "pitch": 73, "duration": 9, "velocity": 93}, {"time": 1874, "pitch": 71, "duration": 24, "velocity": 96}, {"time": 1898, "pitch": 73, "duration": 24, "velocity": 84}, {"time": 1922, "pitch": 81, "duration": 6, "velocity": 84}, {"time": 1928, "pitch": 81, "duration": 6, "velocity": 84}, {"time": 1934, "pitch": 80, "duration": 12, "velocity": 85}, {"time": 1946, "pitch": 80, "duration": 3, "velocity": 90}, {"time": 1949, "pitch": 81, "duration": 6, "velocity": 91}, {"time": 1955, "pitch": 81, "duration": 15, "velocity": 92}, {"time": 1970, "pitch": 81, "duration": 7, "velocity": 90}, {"time": 1976, "pitch": 80, "duration": 4, "velocity": 94}, {"time": 1979, "pitch": 78, "duration": 7, "velocity": 87}, {"time": 1985, "pitch": 76, "duration": 4, "velocity": 76}, {"time": 1988, "pitch": 73, "duration": 18, "velocity": 93}, {"time": 2006, "pitch": 73, "duration": 4, "velocity": 74}, {"time": 2009, "pitch": 71, "duration": 4, "velocity": 65}, {"time": 2012, "pitch": 69, "duration": 3, "velocity": 60}, {"time": 2015, "pitch": 66, "duration": 4, "velocity": 63}, {"time": 2018, "pitch": 69, "duration": 5, "velocity": 85}, {"time": 2021, "pitch": 71, "duration": 6, "velocity": 69}, {"time": 2027, "pitch": 73, "duration": 12, "velocity": 92}, {"time": 2039, "pitch": 64, "duration": 3, "velocity": 63}, {"time": 2042, "pitch": 69, "duration": 4, "velocity": 70}, {"time": 2045, "pitch": 71, "duration": 6, "velocity": 79}, {"time": 2051, "pitch": 73, "duration": 12, "velocity": 95}, {"time": 2063, "pitch": 64, "duration": 3, "velocity": 58}, {"time": 2066, "pitch": 69, "duration": 4, "velocity": 74}, {"time": 2069, "pitch": 71, "duration": 6, "velocity": 73}, {"time": 2075, "pitch": 73, "duration": 39, "velocity": 96}, {"time": 2114, "pitch": 81, "duration": 6, "velocity": 91}, {"time": 2120, "pitch": 81, "duration": 6, "velocity": 85}, {"time": 2126, "pitch": 81, "duration": 6, "velocity": 82}, {"time": 2132, "pitch": 80, "duration": 6, "velocity": 81}, {"time": 2138, "pitch": 78, "duration": 3, "velocity": 83}, {"time": 2141, "pitch": 80, "duration": 6, "velocity": 84}, {"time": 2147, "pitch": 81, "duration": 12, "velocity": 86}, {"time": 2156, "pitch": 69, "duration": 3, "velocity": 72}, {"time": 2159, "pitch": 69, "duration": 3, "velocity": 64}, {"time": 2162, "pitch": 81, "duration": 6, "velocity": 83}, {"time": 2168, "pitch": 81, "duration": 3, "velocity": 81}, {"time": 2171, "pitch": 80, "duration": 3, "velocity": 79}, {"time": 2174, "pitch": 78, "duration": 4, "velocity": 64}, {"time": 2177, "pitch": 76, "duration": 6, "velocity": 87}, {"time": 2183, "pitch": 73, "duration": 15, "velocity": 93}, {"time": 2198, "pitch": 73, "duration": 3, "velocity": 74}, {"time": 2201, "pitch": 71, "duration": 4, "velocity": 90}, {"time": 2204, "pitch": 69, "duration": 3, "velocity": 90}, {"time": 2207, "pitch": 66, "duration": 4, "velocity": 90}, {"time": 2210, "pitch": 73, "duration": 12, "velocity": 92}, {"time": 2222, "pitch": 73, "duration": 4, "velocity": 72}, {"time": 2225, "pitch": 71, "duration": 5, "velocity": 66}, {"time": 2228, "pitch": 69, "duration": 4, "velocity": 68}, {"time": 2231, "pitch": 66, "duration": 4, "velocity": 63}, {"time": 2234, "pitch": 73, "duration": 12, "velocity": 93}, {"time": 2246, "pitch": 73, "duration": 4, "velocity": 73}, {"time": 2249, "pitch": 71, "duration": 5, "velocity": 61}, {"time": 2252, "pitch": 69, "duration": 3, "velocity": 60}, {"time": 2255, "pitch": 66, "duration": 3, "velocity": 73}, {"time": 2258, "pitch": 71, "duration": 30, "velocity": 93}, {"time": 2288, "pitch": 81, "duration": 10, "velocity": 95}, {"time": 2297, "pitch": 80, "duration": 4, "velocity": 89}, {"time": 2300, "pitch": 78, "duration": 4, "velocity": 90}, {"time": 2303, "pitch": 81, "duration": 3, "velocity": 91}, {"time": 2306, "pitch": 81, "duration": 6, "velocity": 91}, {"time": 2312, "pitch": 81, "duration": 6, "velocity": 94}, {"time": 2318, "pitch": 80, "duration": 12, "velocity": 94}, {"time": 2330, "pitch": 80, "duration": 3, "velocity": 101}, {"time": 2333, "pitch": 81, "duration": 6, "velocity": 102}, {"time": 2339, "pitch": 81, "duration": 15, "velocity": 105}, {"time": 2354, "pitch": 81, "duration": 7, "velocity": 108}, {"time": 2360, "pitch": 80, "duration": 4, "velocity": 83}, {"time": 2363, "pitch": 78, "duration": 7, "velocity": 87}, {"time": 2369, "pitch": 76, "duration": 4, "velocity": 76}, {"time": 2372, "pitch": 73, "duration": 18, "velocity": 93}, {"time": 2390, "pitch": 73, "duration": 4, "velocity": 74}, {"time": 2393, "pitch": 71, "duration": 4, "velocity": 65}, {"time": 2396, "pitch": 69, "duration": 3, "velocity": 60}, {"time": 2399, "pitch": 66, "duration": 4, "velocity": 63}, {"time": 2402, "pitch": 69, "duration": 5, "velocity": 85}, {"time": 2405, "pitch": 71, "duration": 6, "velocity": 69}, {"time": 2411, "pitch": 73, "duration": 12, "velocity": 92}, {"time": 2423, "pitch": 64, "duration": 3, "velocity": 63}, {"time": 2426, "pitch": 69, "duration": 4, "velocity": 70}, {"time": 2429, "pitch": 71, "duration": 6, "velocity": 79}, {"time": 2435, "pitch": 73, "duration": 12, "velocity": 95}, {"time": 2447, "pitch": 64, "duration": 3, "velocity": 58}, {"time": 2450, "pitch": 69, "duration": 4, "velocity": 74}, {"time": 2453, "pitch": 71, "duration": 6, "velocity": 73}, {"time": 2459, "pitch": 73, "duration": 39, "velocity": 96}, {"time": 2498, "pitch": 81, "duration": 6, "velocity": 94}, {"time": 2504, "pitch": 81, "duration": 6, "velocity": 94}, {"time": 2510, "pitch": 81, "duration": 6, "velocity": 95}, {"time": 2516, "pitch": 80, "duration": 6, "velocity": 95}, {"time": 2522, "pitch": 78, "duration": 3, "velocity": 95}, {"time": 2525, "pitch": 80, "duration": 6, "velocity": 95}, {"time": 2531, "pitch": 81, "duration": 12, "velocity": 95}, {"time": 2540, "pitch": 69, "duration": 3, "velocity": 72}, {"time": 2543, "pitch": 69, "duration": 3, "velocity": 64}, {"time": 2546, "pitch": 81, "duration": 6, "velocity": 83}, {"time": 2552, "pitch": 81, "duration": 3, "velocity": 81}, {"time": 2555, "pitch": 80, "duration": 3, "velocity": 79}, {"time": 2558, "pitch": 78, "duration": 4, "velocity": 64}, {"time": 2561, "pitch": 76, "duration": 6, "velocity": 87}, {"time": 2567, "pitch": 73, "duration": 15, "velocity": 93}, {"time": 2582, "pitch": 73, "duration": 3, "velocity": 74}, {"time": 2585, "pitch": 71, "duration": 4, "velocity": 98}, {"time": 2588, "pitch": 69, "duration": 3, "velocity": 97}, {"time": 2591, "pitch": 66, "duration": 4, "velocity": 96}, {"time": 2594, "pitch": 73, "duration": 12, "velocity": 95}, {"time": 2606, "pitch": 73, "duration": 4, "velocity": 72}, {"time": 2609, "pitch": 71, "duration": 5, "velocity": 66}, {"time": 2612, "pitch": 69, "duration": 4, "velocity": 68}, {"time": 2615, "pitch": 66, "duration": 4, "velocity": 63}, {"time": 2618, "pitch": 73, "duration": 12, "velocity": 93}, {"time": 2630, "pitch": 73, "duration": 4, "velocity": 73}, {"time": 2633, "pitch": 71, "duration": 5, "velocity": 61}, {"time": 2636, "pitch": 69, "duration": 3, "velocity": 60}, {"time": 2639, "pitch": 66, "duration": 3, "velocity": 73}, {"time": 2642, "pitch": 71, "duration": 30, "velocity": 93}, {"time": 2672, "pitch": 81, "duration": 10, "velocity": 95}, {"time": 2681, "pitch": 80, "duration": 4, "velocity": 71}, {"time": 2684, "pitch": 78, "duration": 4, "velocity": 87}, {"time": 2687, "pitch": 81, "duration": 10, "velocity": 111}, {"time": 2696, "pitch": 78, "duration": 30, "velocity": 85}, {"time": 2726, "pitch": 76, "duration": 5, "velocity": 79}, {"time": 2729, "pitch": 74, "duration": 4, "velocity": 79}, {"time": 2732, "pitch": 73, "duration": 4, "velocity": 79}, {"time": 2735, "pitch": 74, "duration": 6, "velocity": 80}, {"time": 2741, "pitch": 73, "duration": 6, "velocity": 81}, {"time": 2747, "pitch": 71, "duration": 27, "velocity": 85}, {"time": 2774, "pitch": 81, "duration": 4, "velocity": 99}, {"time": 2777, "pitch": 80, "duration": 4, "velocity": 99}, {"time": 2780, "pitch": 78, "duration": 3, "velocity": 99}, {"time": 2783, "pitch": 80, "duration": 4, "velocity": 99}, {"time": 2786, "pitch": 81, "duration": 12, "velocity": 99}, {"time": 2798, "pitch": 73, "duration": 12, "velocity": 96}, {"time": 2810, "pitch": 76, "duration": 3, "velocity": 92}, {"time": 2813, "pitch": 78, "duration": 6, "velocity": 91}, {"time": 2819, "pitch": 76, "duration": 16, "velocity": 91}, {"time": 2825, "pitch": 73, "duration": 9, "velocity": 91}, {"time": 2834, "pitch": 71, "duration": 58, "velocity": 90}]}, {"program": 0, "is_drum": false, "name": "BRIDGE", "notes": [{"time": 83, "pitch": 78, "duration": 3, "velocity": 60}, {"time": 86, "pitch": 90, "duration": 4, "velocity": 71}, {"time": 89, "pitch": 85, "duration": 4, "velocity": 70}, {"time": 92, "pitch": 81, "duration": 3, "velocity": 56}, {"time": 95, "pitch": 83, "duration": 4, "velocity": 61}, {"time": 98, "pitch": 78, "duration": 9, "velocity": 64}, {"time": 2477, "pitch": 73, "duration": 4, "velocity": 58}, {"time": 2480, "pitch": 78, "duration": 3, "velocity": 66}, {"time": 2483, "pitch": 80, "duration": 4, "velocity": 71}, {"time": 2486, "pitch": 81, "duration": 3, "velocity": 72}, {"time": 2489, "pitch": 80, "duration": 4, "velocity": 72}, {"time": 2492, "pitch": 78, "duration": 3, "velocity": 61}, {"time": 2495, "pitch": 73, "duration": 3, "velocity": 60}, {"time": 2498, "pitch": 74, "duration": 8, "velocity": 76}]}, {"program": 0, "is_drum": false, "name": "PIANO", "notes": [{"time": 2, "pitch": 54, "duration": 19, "velocity": 84}, {"time": 2, "pitch": 69, "duration": 11, "velocity": 84}, {"time": 5, "pitch": 61, "duration": 9, "velocity": 87}, {"time": 8, "pitch": 66, "duration": 10, "velocity": 88}, {"time": 11, "pitch": 68, "duration": 6, "velocity": 85}, {"time": 17, "pitch": 61, "duration": 3, "velocity": 79}, {"time": 20, "pitch": 69, "duration": 2, "velocity": 76}, {"time": 23, "pitch": 76, "duration": 2, "velocity": 74}, {"time": 26, "pitch": 50, "duration": 20, "velocity": 72}, {"time": 26, "pitch": 76, "duration": 8, "velocity": 72}, {"time": 29, "pitch": 57, "duration": 5, "velocity": 70}, {"time": 32, "pitch": 62, "duration": 14, "velocity": 70}, {"time": 35, "pitch": 57, "duration": 12, "velocity": 70}, {"time": 35, "pitch": 69, "duration": 8, "velocity": 70}, {"time": 44, "pitch": 69, "duration": 2, "velocity": 71}, {"time": 47, "pitch": 71, "duration": 2, "velocity": 71}, {"time": 50, "pitch": 52, "duration": 40, "velocity": 71}, {"time": 50, "pitch": 71, "duration": 12, "velocity": 71}, {"time": 56, "pitch": 59, "duration": 11, "velocity": 70}, {"time": 62, "pitch": 64, "duration": 7, "velocity": 68}, {"time": 62, "pitch": 76, "duration": 23, "velocity": 68}, {"time": 68, "pitch": 59, "duration": 23, "velocity": 65}, {"time": 74, "pitch": 68, "duration": 12, "velocity": 62}, {"time": 89, "pitch": 64, "duration": 5, "velocity": 68}, {"time": 92, "pitch": 59, "duration": 5, "velocity": 74}, {"time": 95, "pitch": 61, "duration": 3, "velocity": 77}, {"time": 98, "pitch": 54, "duration": 20, "velocity": 80}, {"time": 98, "pitch": 69, "duration": 4, "velocity": 80}, {"time": 101, "pitch": 61, "duration": 9, "velocity": 82}, {"time": 101, "pitch": 68, "duration": 4, "velocity": 82}, {"time": 104, "pitch": 69, "duration": 2, "velocity": 83}, {"time": 107, "pitch": 66, "duration": 10, "velocity": 84}, {"time": 107, "pitch": 73, "duration": 10, "velocity": 84}, {"time": 113, "pitch": 61, "duration": 4, "velocity": 84}, {"time": 116, "pitch": 69, "duration": 2, "velocity": 84}, {"time": 119, "pitch": 76, "duration": 2, "velocity": 84}, {"time": 122, "pitch": 50, "duration": 20, "velocity": 81}, {"time": 122, "pitch": 76, "duration": 10, "velocity": 81}, {"time": 125, "pitch": 57, "duration": 7, "velocity": 80}, {"time": 131, "pitch": 62, "duration": 11, "velocity": 76}, {"time": 131, "pitch": 74, "duration": 7, "velocity": 76}, {"time": 140, "pitch": 57, "duration": 9, "velocity": 74}, {"time": 140, "pitch": 73, "duration": 5, "velocity": 74}, {"time": 146, "pitch": 52, "duration": 34, "velocity": 79}, {"time": 146, "pitch": 71, "duration": 12, "velocity": 79}, {"time": 149, "pitch": 59, "duration": 11, "velocity": 80}, {"time": 155, "pitch": 64, "duration": 15, "velocity": 83}, {"time": 158, "pitch": 71, "duration": 7, "velocity": 84}, {"time": 164, "pitch": 59, "duration": 16, "velocity": 83}, {"time": 170, "pitch": 42, "duration": 20, "velocity": 79}, {"time": 170, "pitch": 76, "duration": 14, "velocity": 79}, {"time": 194, "pitch": 42, "duration": 19, "velocity": 74}, {"time": 200, "pitch": 49, "duration": 12, "velocity": 61}, {"time": 206, "pitch": 57, "duration": 12, "velocity": 74}, {"time": 212, "pitch": 61, "duration": 6, "velocity": 76}, {"time": 218, "pitch": 38, "duration": 19, "velocity": 76}, {"time": 224, "pitch": 45, "duration": 14, "velocity": 79}, {"time": 230, "pitch": 54, "duration": 13, "velocity": 71}, {"time": 236, "pitch": 57, "duration": 7, "velocity": 71}, {"time": 242, "pitch": 40, "duration": 19, "velocity": 86}, {"time": 248, "pitch": 47, "duration": 14, "velocity": 74}, {"time": 254, "pitch": 56, "duration": 7, "velocity": 76}, {"time": 260, "pitch": 52, "duration": 7, "velocity": 54}, {"time": 260, "pitch": 59, "duration": 2, "velocity": 67}, {"time": 266, "pitch": 45, "duration": 9, "velocity": 75}, {"time": 266, "pitch": 61, "duration": 13, "velocity": 83}, {"time": 269, "pitch": 76, "duration": 5, "velocity": 71}, {"time": 272, "pitch": 69, "duration": 4, "velocity": 67}, {"time": 275, "pitch": 71, "duration": 4, "velocity": 61}, {"time": 278, "pitch": 44, "duration": 8, "velocity": 98}, {"time": 278, "pitch": 59, "duration": 13, "velocity": 75}, {"time": 281, "pitch": 69, "duration": 4, "velocity": 65}, {"time": 284, "pitch": 71, "duration": 4, "velocity": 70}, {"time": 287, "pitch": 69, "duration": 13, "velocity": 77}, {"time": 290, "pitch": 42, "duration": 19, "velocity": 68}, {"time": 293, "pitch": 49, "duration": 15, "velocity": 66}, {"time": 296, "pitch": 54, "duration": 10, "velocity": 61}, {"time": 302, "pitch": 57, "duration": 13, "velocity": 83}, {"time": 308, "pitch": 61, "duration": 6, "velocity": 69}, {"time": 314, "pitch": 38, "duration": 21, "velocity": 87}, {"time": 317, "pitch": 45, "duration": 21, "velocity": 74}, {"time": 320, "pitch": 50, "duration": 8, "velocity": 67}, {"time": 326, "pitch": 54, "duration": 8, "velocity": 72}, {"time": 326, "pitch": 57, "duration": 8, "velocity": 79}, {"time": 332, "pitch": 50, "duration": 5, "velocity": 61}, {"time": 338, "pitch": 40, "duration": 43, "velocity": 70}, {"time": 338, "pitch": 56, "duration": 11, "velocity": 70}, {"time": 338, "pitch": 59, "duration": 11, "velocity": 73}, {"time": 344, "pitch": 47, "duration": 37, "velocity": 72}, {"time": 350, "pitch": 56, "duration": 11, "velocity": 67}, {"time": 350, "pitch": 59, "duration": 11, "velocity": 65}, {"time": 350, "pitch": 64, "duration": 11, "velocity": 81}, {"time": 356, "pitch": 52, "duration": 8, "velocity": 52}, {"time": 362, "pitch": 56, "duration": 11, "velocity": 62}, {"time": 362, "pitch": 59, "duration": 11, "velocity": 76}, {"time": 362, "pitch": 64, "duration": 11, "velocity": 74}, {"time": 362, "pitch": 71, "duration": 9, "velocity": 69}, {"time": 362, "pitch": 76, "duration": 9, "velocity": 77}, {"time": 368, "pitch": 52, "duration": 6, "velocity": 41}, {"time": 374, "pitch": 56, "duration": 7, "velocity": 74}, {"time": 374, "pitch": 59, "duration": 7, "velocity": 83}, {"time": 374, "pitch": 64, "duration": 7, "velocity": 87}, {"time": 374, "pitch": 71, "duration": 12, "velocity": 70}, {"time": 374, "pitch": 76, "duration": 12, "velocity": 85}, {"time": 386, "pitch": 42, "duration": 21, "velocity": 83}, {"time": 386, "pitch": 57, "duration": 12, "velocity": 86}, {"time": 386, "pitch": 61, "duration": 11, "velocity": 86}, {"time": 392, "pitch": 49, "duration": 9, "velocity": 69}, {"time": 398, "pitch": 57, "duration": 1, "velocity": 61}, {"time": 398, "pitch": 61, "duration": 7, "velocity": 95}, {"time": 404, "pitch": 57, "duration": 7, "velocity": 83}, {"time": 410, "pitch": 38, "duration": 18, "velocity": 90}, {"time": 416, "pitch": 45, "duration": 12, "velocity": 87}, {"time": 422, "pitch": 54, "duration": 12, "velocity": 70}, {"time": 428, "pitch": 57, "duration": 6, "velocity": 72}, {"time": 434, "pitch": 45, "duration": 18, "velocity": 87}, {"time": 440, "pitch": 52, "duration": 18, "velocity": 59}, {"time": 446, "pitch": 61, "duration": 8, "velocity": 75}, {"time": 452, "pitch": 64, "duration": 5, "velocity": 76}, {"time": 458, "pitch": 44, "duration": 24, "velocity": 83}, {"time": 458, "pitch": 59, "duration": 11, "velocity": 90}, {"time": 458, "pitch": 64, "duration": 11, "velocity": 81}, {"time": 464, "pitch": 52, "duration": 9, "velocity": 50}, {"time": 470, "pitch": 59, "duration": 8, "velocity": 73}, {"time": 470, "pitch": 64, "duration": 2, "velocity": 71}, {"time": 476, "pitch": 64, "duration": 6, "velocity": 77}, {"time": 482, "pitch": 47, "duration": 24, "velocity": 67}, {"time": 482, "pitch": 62, "duration": 12, "velocity": 74}, {"time": 488, "pitch": 54, "duration": 18, "velocity": 66}, {"time": 494, "pitch": 62, "duration": 10, "velocity": 60}, {"time": 494, "pitch": 66, "duration": 10, "velocity": 74}, {"time": 500, "pitch": 59, "duration": 10, "velocity": 54}, {"time": 506, "pitch": 38, "duration": 19, "velocity": 79}, {"time": 506, "pitch": 54, "duration": 11, "velocity": 73}, {"time": 506, "pitch": 57, "duration": 11, "velocity": 81}, {"time": 512, "pitch": 45, "duration": 17, "velocity": 75}, {"time": 518, "pitch": 54, "duration": 7, "velocity": 76}, {"time": 518, "pitch": 57, "duration": 7, "velocity": 86}, {"time": 518, "pitch": 62, "duration": 7, "velocity": 86}, {"time": 524, "pitch": 50, "duration": 6, "velocity": 59}, {"time": 530, "pitch": 40, "duration": 43, "velocity": 75}, {"time": 530, "pitch": 56, "duration": 11, "velocity": 74}, {"time": 530, "pitch": 59, "duration": 11, "velocity": 83}, {"time": 530, "pitch": 64, "duration": 11, "velocity": 87}, {"time": 536, "pitch": 47, "duration": 37, "velocity": 68}, {"time": 542, "pitch": 56, "duration": 10, "velocity": 79}, {"time": 542, "pitch": 59, "duration": 10, "velocity": 90}, {"time": 542, "pitch": 64, "duration": 10, "velocity": 95}, {"time": 548, "pitch": 52, "duration": 10, "velocity": 58}, {"time": 554, "pitch": 56, "duration": 11, "velocity": 85}, {"time": 554, "pitch": 59, "duration": 11, "velocity": 93}, {"time": 554, "pitch": 64, "duration": 11, "velocity": 100}, {"time": 560, "pitch": 52, "duration": 7, "velocity": 59}, {"time": 566, "pitch": 56, "duration": 8, "velocity": 85}, {"time": 566, "pitch": 59, "duration": 8, "velocity": 93}, {"time": 566, "pitch": 64, "duration": 8, "velocity": 104}, {"time": 578, "pitch": 47, "duration": 18, "velocity": 95}, {"time": 578, "pitch": 62, "duration": 11, "velocity": 95}, {"time": 578, "pitch": 66, "duration": 11, "velocity": 72}, {"time": 584, "pitch": 54, "duration": 10, "velocity": 62}, {"time": 590, "pitch": 62, "duration": 7, "velocity": 81}, {"time": 590, "pitch": 66, "duration": 7, "velocity": 87}, {"time": 590, "pitch": 71, "duration": 6, "velocity": 87}, {"time": 602, "pitch": 40, "duration": 19, "velocity": 76}, {"time": 602, "pitch": 56, "duration": 11, "velocity": 68}, {"time": 602, "pitch": 59, "duration": 11, "velocity": 77}, {"time": 602, "pitch": 64, "duration": 11, "velocity": 87}, {"time": 608, "pitch": 47, "duration": 13, "velocity": 86}, {"time": 614, "pitch": 56, "duration": 7, "velocity": 87}, {"time": 614, "pitch": 59, "duration": 7, "velocity": 90}, {"time": 614, "pitch": 64, "duration": 7, "velocity": 98}, {"time": 620, "pitch": 52, "duration": 6, "velocity": 53}, {"time": 626, "pitch": 42, "duration": 17, "velocity": 75}, {"time": 626, "pitch": 57, "duration": 11, "velocity": 66}, {"time": 626, "pitch": 61, "duration": 11, "velocity": 71}, {"time": 626, "pitch": 66, "duration": 11, "velocity": 73}, {"time": 632, "pitch": 49, "duration": 17, "velocity": 69}, {"time": 638, "pitch": 57, "duration": 6, "velocity": 77}, {"time": 638, "pitch": 61, "duration": 6, "velocity": 87}, {"time": 638, "pitch": 66, "duration": 6, "velocity": 90}, {"time": 647, "pitch": 56, "duration": 2, "velocity": 11}, {"time": 647, "pitch": 59, "duration": 2, "velocity": 11}, {"time": 650, "pitch": 40, "duration": 18, "velocity": 72}, {"time": 650, "pitch": 56, "duration": 11, "velocity": 79}, {"time": 650, "pitch": 59, "duration": 11, "velocity": 90}, {"time": 650, "pitch": 64, "duration": 11, "velocity": 95}, {"time": 662, "pitch": 56, "duration": 7, "velocity": 90}, {"time": 662, "pitch": 59, "duration": 7, "velocity": 98}, {"time": 662, "pitch": 64, "duration": 7, "velocity": 111}, {"time": 674, "pitch": 47, "duration": 20, "velocity": 85}, {"time": 674, "pitch": 62, "duration": 12, "velocity": 86}, {"time": 680, "pitch": 54, "duration": 13, "velocity": 64}, {"time": 686, "pitch": 62, "duration": 7, "velocity": 76}, {"time": 686, "pitch": 66, "duration": 7, "velocity": 74}, {"time": 692, "pitch": 59, "duration": 2, "velocity": 63}, {"time": 698, "pitch": 38, "duration": 21, "velocity": 79}, {"time": 698, "pitch": 54, "duration": 12, "velocity": 79}, {"time": 698, "pitch": 57, "duration": 12, "velocity": 79}, {"time": 704, "pitch": 45, "duration": 18, "velocity": 77}, {"time": 710, "pitch": 54, "duration": 9, "velocity": 76}, {"time": 710, "pitch": 57, "duration": 8, "velocity": 86}, {"time": 710, "pitch": 62, "duration": 8, "velocity": 71}, {"time": 716, "pitch": 50, "duration": 5, "velocity": 61}, {"time": 722, "pitch": 40, "duration": 48, "velocity": 76}, {"time": 722, "pitch": 56, "duration": 11, "velocity": 68}, {"time": 722, "pitch": 59, "duration": 11, "velocity": 85}, {"time": 722, "pitch": 64, "duration": 11, "velocity": 85}, {"time": 728, "pitch": 47, "duration": 41, "velocity": 76}, {"time": 734, "pitch": 56, "duration": 11, "velocity": 83}, {"time": 734, "pitch": 59, "duration": 11, "velocity": 90}, {"time": 734, "pitch": 64, "duration": 11, "velocity": 100}, {"time": 740, "pitch": 52, "duration": 7, "velocity": 58}, {"time": 746, "pitch": 56, "duration": 11, "velocity": 76}, {"time": 746, "pitch": 59, "duration": 11, "velocity": 90}, {"time": 746, "pitch": 64, "duration": 11, "velocity": 100}, {"time": 752, "pitch": 52, "duration": 7, "velocity": 53}, {"time": 758, "pitch": 56, "duration": 11, "velocity": 81}, {"time": 758, "pitch": 59, "duration": 11, "velocity": 90}, {"time": 758, "pitch": 64, "duration": 11, "velocity": 100}, {"time": 764, "pitch": 52, "duration": 6, "velocity": 59}, {"time": 770, "pitch": 42, "duration": 18, "velocity": 83}, {"time": 770, "pitch": 57, "duration": 11, "velocity": 74}, {"time": 770, "pitch": 61, "duration": 11, "velocity": 75}, {"time": 770, "pitch": 66, "duration": 11, "velocity": 83}, {"time": 776, "pitch": 49, "duration": 12, "velocity": 62}, {"time": 782, "pitch": 57, "duration": 6, "velocity": 90}, {"time": 782, "pitch": 61, "duration": 5, "velocity": 98}, {"time": 782, "pitch": 66, "duration": 6, "velocity": 93}, {"time": 791, "pitch": 56, "duration": 1, "velocity": 12}, {"time": 791, "pitch": 59, "duration": 1, "velocity": 14}, {"time": 791, "pitch": 64, "duration": 2, "velocity": 50}, {"time": 794, "pitch": 40, "duration": 22, "velocity": 75}, {"time": 794, "pitch": 56, "duration": 12, "velocity": 87}, {"time": 794, "pitch": 59, "duration": 11, "velocity": 98}, {"time": 794, "pitch": 64, "duration": 11, "velocity": 93}, {"time": 800, "pitch": 47, "duration": 15, "velocity": 70}, {"time": 806, "pitch": 56, "duration": 8, "velocity": 85}, {"time": 806, "pitch": 59, "duration": 8, "velocity": 100}, {"time": 806, "pitch": 64, "duration": 8, "velocity": 112}, {"time": 812, "pitch": 52, "duration": 3, "velocity": 58}, {"time": 815, "pitch": 54, "duration": 1, "velocity": 39}, {"time": 815, "pitch": 57, "duration": 1, "velocity": 52}, {"time": 815, "pitch": 62, "duration": 1, "velocity": 49}, {"time": 818, "pitch": 38, "duration": 21, "velocity": 93}, {"time": 818, "pitch": 54, "duration": 11, "velocity": 81}, {"time": 818, "pitch": 57, "duration": 11, "velocity": 90}, {"time": 818, "pitch": 62, "duration": 11, "velocity": 90}, {"time": 824, "pitch": 45, "duration": 12, "velocity": 85}, {"time": 830, "pitch": 54, "duration": 9, "velocity": 76}, {"time": 830, "pitch": 57, "duration": 9, "velocity": 81}, {"time": 830, "pitch": 62, "duration": 9, "velocity": 85}, {"time": 842, "pitch": 42, "duration": 20, "velocity": 79}, {"time": 842, "pitch": 57, "duration": 10, "velocity": 73}, {"time": 842, "pitch": 61, "duration": 10, "velocity": 74}, {"time": 842, "pitch": 66, "duration": 10, "velocity": 75}, {"time": 854, "pitch": 57, "duration": 9, "velocity": 74}, {"time": 854, "pitch": 61, "duration": 8, "velocity": 77}, {"time": 854, "pitch": 66, "duration": 8, "velocity": 81}, {"time": 860, "pitch": 49, "duration": 2, "velocity": 63}, {"time": 866, "pitch": 38, "duration": 20, "velocity": 85}, {"time": 866, "pitch": 54, "duration": 11, "velocity": 73}, {"time": 866, "pitch": 57, "duration": 12, "velocity": 81}, {"time": 866, "pitch": 62, "duration": 11, "velocity": 86}, {"time": 872, "pitch": 45, "duration": 18, "velocity": 86}, {"time": 878, "pitch": 54, "duration": 7, "velocity": 93}, {"time": 878, "pitch": 57, "duration": 7, "velocity": 98}, {"time": 878, "pitch": 62, "duration": 7, "velocity": 111}, {"time": 884, "pitch": 50, "duration": 5, "velocity": 59}, {"time": 890, "pitch": 40, "duration": 20, "velocity": 74}, {"time": 890, "pitch": 56, "duration": 11, "velocity": 76}, {"time": 890, "pitch": 59, "duration": 11, "velocity": 86}, {"time": 890, "pitch": 64, "duration": 11, "velocity": 90}, {"time": 896, "pitch": 47, "duration": 18, "velocity": 75}, {"time": 902, "pitch": 56, "duration": 7, "velocity": 86}, {"time": 902, "pitch": 59, "duration": 7, "velocity": 93}, {"time": 902, "pitch": 64, "duration": 7, "velocity": 98}, {"time": 908, "pitch": 52, "duration": 5, "velocity": 59}, {"time": 914, "pitch": 42, "duration": 49, "velocity": 75}, {"time": 914, "pitch": 57, "duration": 11, "velocity": 95}, {"time": 914, "pitch": 61, "duration": 11, "velocity": 95}, {"time": 914, "pitch": 66, "duration": 11, "velocity": 95}, {"time": 920, "pitch": 49, "duration": 42, "velocity": 66}, {"time": 926, "pitch": 57, "duration": 11, "velocity": 77}, {"time": 926, "pitch": 61, "duration": 11, "velocity": 86}, {"time": 926, "pitch": 66, "duration": 11, "velocity": 86}, {"time": 932, "pitch": 54, "duration": 8, "velocity": 58}, {"time": 938, "pitch": 57, "duration": 11, "velocity": 85}, {"time": 938, "pitch": 61, "duration": 11, "velocity": 93}, {"time": 938, "pitch": 66, "duration": 11, "velocity": 90}, {"time": 944, "pitch": 54, "duration": 8, "velocity": 58}, {"time": 950, "pitch": 57, "duration": 12, "velocity": 87}, {"time": 950, "pitch": 61, "duration": 12, "velocity": 93}, {"time": 950, "pitch": 66, "duration": 12, "velocity": 93}, {"time": 956, "pitch": 54, "duration": 6, "velocity": 67}, {"time": 962, "pitch": 47, "duration": 17, "velocity": 87}, {"time": 962, "pitch": 62, "duration": 11, "velocity": 85}, {"time": 962, "pitch": 66, "duration": 11, "velocity": 74}, {"time": 968, "pitch": 54, "duration": 10, "velocity": 67}, {"time": 974, "pitch": 62, "duration": 6, "velocity": 95}, {"time": 974, "pitch": 66, "duration": 6, "velocity": 85}, {"time": 986, "pitch": 40, "duration": 20, "velocity": 77}, {"time": 986, "pitch": 56, "duration": 11, "velocity": 85}, {"time": 986, "pitch": 59, "duration": 11, "velocity": 86}, {"time": 992, "pitch": 47, "duration": 18, "velocity": 79}, {"time": 995, "pitch": 64, "duration": 2, "velocity": 59}, {"time": 998, "pitch": 56, "duration": 7, "velocity": 74}, {"time": 998, "pitch": 59, "duration": 7, "velocity": 104}, {"time": 998, "pitch": 64, "duration": 7, "velocity": 95}, {"time": 1004, "pitch": 52, "duration": 5, "velocity": 59}, {"time": 1010, "pitch": 42, "duration": 10, "velocity": 76}, {"time": 1010, "pitch": 57, "duration": 11, "velocity": 85}, {"time": 1010, "pitch": 61, "duration": 11, "velocity": 93}, {"time": 1010, "pitch": 66, "duration": 11, "velocity": 90}, {"time": 1016, "pitch": 49, "duration": 12, "velocity": 65}, {"time": 1022, "pitch": 38, "duration": 1, "velocity": 77}, {"time": 1022, "pitch": 40, "duration": 6, "velocity": 76}, {"time": 1022, "pitch": 56, "duration": 7, "velocity": 86}, {"time": 1022, "pitch": 59, "duration": 6, "velocity": 100}, {"time": 1022, "pitch": 64, "duration": 6, "velocity": 93}, {"time": 1031, "pitch": 54, "duration": 1, "velocity": 14}, {"time": 1031, "pitch": 57, "duration": 2, "velocity": 43}, {"time": 1031, "pitch": 62, "duration": 2, "velocity": 15}, {"time": 1034, "pitch": 38, "duration": 21, "velocity": 77}, {"time": 1034, "pitch": 54, "duration": 11, "velocity": 86}, {"time": 1034, "pitch": 57, "duration": 11, "velocity": 93}, {"time": 1034, "pitch": 62, "duration": 11, "velocity": 100}, {"time": 1040, "pitch": 45, "duration": 18, "velocity": 76}, {"time": 1046, "pitch": 54, "duration": 8, "velocity": 95}, {"time": 1046, "pitch": 57, "duration": 8, "velocity": 98}, {"time": 1046, "pitch": 62, "duration": 7, "velocity": 111}, {"time": 1052, "pitch": 50, "duration": 5, "velocity": 59}, {"time": 1058, "pitch": 47, "duration": 17, "velocity": 86}, {"time": 1058, "pitch": 62, "duration": 11, "velocity": 74}, {"time": 1058, "pitch": 66, "duration": 11, "velocity": 74}, {"time": 1064, "pitch": 54, "duration": 8, "velocity": 64}, {"time": 1070, "pitch": 62, "duration": 6, "velocity": 83}, {"time": 1070, "pitch": 66, "duration": 6, "velocity": 93}, {"time": 1070, "pitch": 71, "duration": 6, "velocity": 90}, {"time": 1079, "pitch": 57, "duration": 1, "velocity": 84}, {"time": 1082, "pitch": 38, "duration": 20, "velocity": 84}, {"time": 1082, "pitch": 54, "duration": 11, "velocity": 84}, {"time": 1082, "pitch": 57, "duration": 11, "velocity": 84}, {"time": 1082, "pitch": 62, "duration": 11, "velocity": 84}, {"time": 1088, "pitch": 45, "duration": 17, "velocity": 84}, {"time": 1094, "pitch": 54, "duration": 7, "velocity": 84}, {"time": 1094, "pitch": 57, "duration": 7, "velocity": 84}, {"time": 1094, "pitch": 62, "duration": 7, "velocity": 84}, {"time": 1100, "pitch": 50, "duration": 5, "velocity": 83}, {"time": 1103, "pitch": 56, "duration": 1, "velocity": 82}, {"time": 1106, "pitch": 40, "duration": 44, "velocity": 82}, {"time": 1106, "pitch": 56, "duration": 11, "velocity": 82}, {"time": 1106, "pitch": 59, "duration": 12, "velocity": 82}, {"time": 1106, "pitch": 64, "duration": 12, "velocity": 82}, {"time": 1112, "pitch": 47, "duration": 42, "velocity": 82}, {"time": 1118, "pitch": 56, "duration": 10, "velocity": 81}, {"time": 1118, "pitch": 59, "duration": 10, "velocity": 81}, {"time": 1118, "pitch": 64, "duration": 10, "velocity": 81}, {"time": 1124, "pitch": 52, "duration": 8, "velocity": 81}, {"time": 1130, "pitch": 56, "duration": 11, "velocity": 84}, {"time": 1130, "pitch": 59, "duration": 11, "velocity": 84}, {"time": 1130, "pitch": 64, "duration": 11, "velocity": 84}, {"time": 1136, "pitch": 52, "duration": 7, "velocity": 95}, {"time": 1142, "pitch": 56, "duration": 10, "velocity": 93}, {"time": 1142, "pitch": 59, "duration": 10, "velocity": 93}, {"time": 1142, "pitch": 64, "duration": 8, "velocity": 93}, {"time": 1148, "pitch": 52, "duration": 5, "velocity": 89}, {"time": 1154, "pitch": 54, "duration": 23, "velocity": 68}, {"time": 1154, "pitch": 76, "duration": 5, "velocity": 77}, {"time": 1157, "pitch": 66, "duration": 4, "velocity": 59}, {"time": 1160, "pitch": 61, "duration": 11, "velocity": 68}, {"time": 1160, "pitch": 69, "duration": 3, "velocity": 69}, {"time": 1163, "pitch": 76, "duration": 7, "velocity": 87}, {"time": 1166, "pitch": 66, "duration": 7, "velocity": 69}, {"time": 1169, "pitch": 66, "duration": 4, "velocity": 64}, {"time": 1172, "pitch": 61, "duration": 4, "velocity": 76}, {"time": 1172, "pitch": 69, "duration": 2, "velocity": 79}, {"time": 1175, "pitch": 76, "duration": 6, "velocity": 93}, {"time": 1178, "pitch": 50, "duration": 23, "velocity": 83}, {"time": 1181, "pitch": 66, "duration": 4, "velocity": 71}, {"time": 1184, "pitch": 57, "duration": 6, "velocity": 76}, {"time": 1184, "pitch": 69, "duration": 3, "velocity": 70}, {"time": 1187, "pitch": 76, "duration": 7, "velocity": 86}, {"time": 1190, "pitch": 62, "duration": 8, "velocity": 81}, {"time": 1193, "pitch": 64, "duration": 4, "velocity": 63}, {"time": 1196, "pitch": 57, "duration": 7, "velocity": 83}, {"time": 1196, "pitch": 69, "duration": 3, "velocity": 64}, {"time": 1196, "pitch": 69, "duration": 3, "velocity": 68}, {"time": 1199, "pitch": 73, "duration": 6, "velocity": 73}, {"time": 1202, "pitch": 52, "duration": 22, "velocity": 77}, {"time": 1205, "pitch": 69, "duration": 4, "velocity": 74}, {"time": 1208, "pitch": 59, "duration": 19, "velocity": 67}, {"time": 1208, "pitch": 71, "duration": 2, "velocity": 88}, {"time": 1211, "pitch": 76, "duration": 11, "velocity": 88}, {"time": 1214, "pitch": 64, "duration": 12, "velocity": 58}, {"time": 1220, "pitch": 66, "duration": 6, "velocity": 65}, {"time": 1226, "pitch": 52, "duration": 18, "velocity": 71}, {"time": 1226, "pitch": 68, "duration": 19, "velocity": 74}, {"time": 1232, "pitch": 59, "duration": 18, "velocity": 75}, {"time": 1238, "pitch": 64, "duration": 12, "velocity": 74}, {"time": 1250, "pitch": 54, "duration": 23, "velocity": 79}, {"time": 1250, "pitch": 76, "duration": 5, "velocity": 67}, {"time": 1253, "pitch": 66, "duration": 5, "velocity": 58}, {"time": 1256, "pitch": 61, "duration": 12, "velocity": 64}, {"time": 1256, "pitch": 69, "duration": 3, "velocity": 63}, {"time": 1259, "pitch": 73, "duration": 6, "velocity": 74}, {"time": 1265, "pitch": 66, "duration": 4, "velocity": 66}, {"time": 1268, "pitch": 61, "duration": 4, "velocity": 74}, {"time": 1268, "pitch": 69, "duration": 4, "velocity": 61}, {"time": 1271, "pitch": 76, "duration": 6, "velocity": 79}, {"time": 1274, "pitch": 50, "duration": 21, "velocity": 87}, {"time": 1277, "pitch": 66, "duration": 4, "velocity": 64}, {"time": 1280, "pitch": 57, "duration": 10, "velocity": 71}, {"time": 1280, "pitch": 69, "duration": 3, "velocity": 65}, {"time": 1283, "pitch": 76, "duration": 6, "velocity": 77}, {"time": 1286, "pitch": 62, "duration": 11, "velocity": 83}, {"time": 1289, "pitch": 66, "duration": 4, "velocity": 61}, {"time": 1292, "pitch": 57, "duration": 6, "velocity": 90}, {"time": 1292, "pitch": 69, "duration": 4, "velocity": 63}, {"time": 1295, "pitch": 76, "duration": 4, "velocity": 74}, {"time": 1298, "pitch": 52, "duration": 38, "velocity": 81}, {"time": 1301, "pitch": 66, "duration": 4, "velocity": 60}, {"time": 1304, "pitch": 59, "duration": 17, "velocity": 73}, {"time": 1304, "pitch": 69, "duration": 3, "velocity": 63}, {"time": 1307, "pitch": 76, "duration": 8, "velocity": 76}, {"time": 1310, "pitch": 64, "duration": 11, "velocity": 64}, {"time": 1320, "pitch": 76, "duration": 3, "velocity": 63}, {"time": 1321, "pitch": 80, "duration": 2, "velocity": 73}, {"time": 1322, "pitch": 59, "duration": 14, "velocity": 72}, {"time": 1322, "pitch": 64, "duration": 13, "velocity": 58}, {"time": 1322, "pitch": 83, "duration": 13, "velocity": 72}, {"time": 1358, "pitch": 57, "duration": 12, "velocity": 74}, {"time": 1364, "pitch": 61, "duration": 6, "velocity": 76}, {"time": 1370, "pitch": 38, "duration": 19, "velocity": 76}, {"time": 1376, "pitch": 45, "duration": 14, "velocity": 79}, {"time": 1382, "pitch": 54, "duration": 13, "velocity": 71}, {"time": 1388, "pitch": 57, "duration": 7, "velocity": 71}, {"time": 1394, "pitch": 40, "duration": 19, "velocity": 86}, {"time": 1400, "pitch": 47, "duration": 14, "velocity": 74}, {"time": 1406, "pitch": 56, "duration": 7, "velocity": 76}, {"time": 1412, "pitch": 52, "duration": 7, "velocity": 54}, {"time": 1412, "pitch": 59, "duration": 2, "velocity": 67}, {"time": 1418, "pitch": 45, "duration": 9, "velocity": 75}, {"time": 1418, "pitch": 61, "duration": 13, "velocity": 83}, {"time": 1421, "pitch": 76, "duration": 5, "velocity": 71}, {"time": 1424, "pitch": 69, "duration": 4, "velocity": 67}, {"time": 1427, "pitch": 71, "duration": 4, "velocity": 61}, {"time": 1430, "pitch": 44, "duration": 8, "velocity": 98}, {"time": 1430, "pitch": 59, "duration": 13, "velocity": 75}, {"time": 1433, "pitch": 69, "duration": 4, "velocity": 65}, {"time": 1436, "pitch": 71, "duration": 4, "velocity": 70}, {"time": 1439, "pitch": 69, "duration": 13, "velocity": 77}, {"time": 1442, "pitch": 42, "duration": 19, "velocity": 68}, {"time": 1445, "pitch": 49, "duration": 15, "velocity": 66}, {"time": 1448, "pitch": 54, "duration": 10, "velocity": 61}, {"time": 1454, "pitch": 57, "duration": 13, "velocity": 83}, {"time": 1460, "pitch": 61, "duration": 6, "velocity": 69}, {"time": 1466, "pitch": 38, "duration": 21, "velocity": 87}, {"time": 1469, "pitch": 45, "duration": 21, "velocity": 74}, {"time": 1472, "pitch": 50, "duration": 8, "velocity": 67}, {"time": 1478, "pitch": 54, "duration": 8, "velocity": 72}, {"time": 1478, "pitch": 57, "duration": 8, "velocity": 79}, {"time": 1484, "pitch": 50, "duration": 5, "velocity": 61}, {"time": 1490, "pitch": 40, "duration": 43, "velocity": 70}, {"time": 1490, "pitch": 56, "duration": 11, "velocity": 70}, {"time": 1490, "pitch": 59, "duration": 11, "velocity": 73}, {"time": 1496, "pitch": 47, "duration": 37, "velocity": 72}, {"time": 1502, "pitch": 56, "duration": 11, "velocity": 67}, {"time": 1502, "pitch": 59, "duration": 11, "velocity": 65}, {"time": 1502, "pitch": 64, "duration": 11, "velocity": 81}, {"time": 1508, "pitch": 52, "duration": 8, "velocity": 52}, {"time": 1514, "pitch": 56, "duration": 11, "velocity": 62}, {"time": 1514, "pitch": 59, "duration": 11, "velocity": 76}, {"time": 1514, "pitch": 64, "duration": 11, "velocity": 74}, {"time": 1514, "pitch": 71, "duration": 9, "velocity": 69}, {"time": 1514, "pitch": 76, "duration": 9, "velocity": 77}, {"time": 1520, "pitch": 52, "duration": 6, "velocity": 41}, {"time": 1526, "pitch": 56, "duration": 7, "velocity": 74}, {"time": 1526, "pitch": 59, "duration": 7, "velocity": 83}, {"time": 1526, "pitch": 64, "duration": 7, "velocity": 87}, {"time": 1526, "pitch": 71, "duration": 12, "velocity": 70}, {"time": 1526, "pitch": 76, "duration": 12, "velocity": 85}, {"time": 1538, "pitch": 42, "duration": 21, "velocity": 83}, {"time": 1538, "pitch": 57, "duration": 12, "velocity": 86}, {"time": 1538, "pitch": 61, "duration": 11, "velocity": 86}, {"time": 1544, "pitch": 49, "duration": 9, "velocity": 69}, {"time": 1550, "pitch": 57, "duration": 1, "velocity": 61}, {"time": 1550, "pitch": 61, "duration": 7, "velocity": 95}, {"time": 1556, "pitch": 57, "duration": 7, "velocity": 83}, {"time": 1562, "pitch": 38, "duration": 18, "velocity": 90}, {"time": 1568, "pitch": 45, "duration": 12, "velocity": 87}, {"time": 1574, "pitch": 54, "duration": 12, "velocity": 70}, {"time": 1580, "pitch": 57, "duration": 6, "velocity": 72}, {"time": 1586, "pitch": 45, "duration": 18, "velocity": 87}, {"time": 1592, "pitch": 52, "duration": 18, "velocity": 59}, {"time": 1598, "pitch": 61, "duration": 8, "velocity": 75}, {"time": 1604, "pitch": 64, "duration": 5, "velocity": 76}, {"time": 1610, "pitch": 44, "duration": 24, "velocity": 83}, {"time": 1610, "pitch": 59, "duration": 11, "velocity": 90}, {"time": 1610, "pitch": 64, "duration": 11, "velocity": 81}, {"time": 1616, "pitch": 52, "duration": 9, "velocity": 50}, {"time": 1622, "pitch": 59, "duration": 8, "velocity": 73}, {"time": 1622, "pitch": 64, "duration": 2, "velocity": 71}, {"time": 1628, "pitch": 64, "duration": 6, "velocity": 77}, {"time": 1634, "pitch": 47, "duration": 24, "velocity": 67}, {"time": 1634, "pitch": 62, "duration": 12, "velocity": 74}, {"time": 1640, "pitch": 54, "duration": 18, "velocity": 66}, {"time": 1646, "pitch": 62, "duration": 10, "velocity": 60}, {"time": 1646, "pitch": 66, "duration": 10, "velocity": 74}, {"time": 1652, "pitch": 59, "duration": 10, "velocity": 54}, {"time": 1658, "pitch": 38, "duration": 19, "velocity": 79}, {"time": 1658, "pitch": 54, "duration": 11, "velocity": 73}, {"time": 1658, "pitch": 57, "duration": 11, "velocity": 81}, {"time": 1664, "pitch": 45, "duration": 17, "velocity": 75}, {"time": 1670, "pitch": 54, "duration": 7, "velocity": 76}, {"time": 1670, "pitch": 57, "duration": 7, "velocity": 86}, {"time": 1670, "pitch": 62, "duration": 7, "velocity": 86}, {"time": 1676, "pitch": 50, "duration": 6, "velocity": 59}, {"time": 1682, "pitch": 40, "duration": 43, "velocity": 75}, {"time": 1682, "pitch": 56, "duration": 11, "velocity": 74}, {"time": 1682, "pitch": 59, "duration": 11, "velocity": 83}, {"time": 1682, "pitch": 64, "duration": 11, "velocity": 87}, {"time": 1688, "pitch": 47, "duration": 37, "velocity": 68}, {"time": 1694, "pitch": 56, "duration": 10, "velocity": 79}, {"time": 1694, "pitch": 59, "duration": 10, "velocity": 90}, {"time": 1694, "pitch": 64, "duration": 10, "velocity": 95}, {"time": 1700, "pitch": 52, "duration": 10, "velocity": 58}, {"time": 1706, "pitch": 56, "duration": 11, "velocity": 85}, {"time": 1706, "pitch": 59, "duration": 11, "velocity": 93}, {"time": 1706, "pitch": 64, "duration": 11, "velocity": 100}, {"time": 1712, "pitch": 52, "duration": 7, "velocity": 59}, {"time": 1718, "pitch": 56, "duration": 8, "velocity": 85}, {"time": 1718, "pitch": 59, "duration": 8, "velocity": 93}, {"time": 1718, "pitch": 64, "duration": 8, "velocity": 104}, {"time": 1724, "pitch": 52, "duration": 5, "velocity": 56}, {"time": 1730, "pitch": 47, "duration": 18, "velocity": 95}, {"time": 1730, "pitch": 62, "duration": 11, "velocity": 95}, {"time": 1730, "pitch": 66, "duration": 11, "velocity": 72}, {"time": 1736, "pitch": 54, "duration": 10, "velocity": 62}, {"time": 1742, "pitch": 62, "duration": 7, "velocity": 81}, {"time": 1742, "pitch": 66, "duration": 7, "velocity": 87}, {"time": 1742, "pitch": 71, "duration": 6, "velocity": 87}, {"time": 1754, "pitch": 40, "duration": 19, "velocity": 76}, {"time": 1754, "pitch": 56, "duration": 11, "velocity": 68}, {"time": 1754, "pitch": 59, "duration": 11, "velocity": 77}, {"time": 1754, "pitch": 64, "duration": 11, "velocity": 87}, {"time": 1760, "pitch": 47, "duration": 13, "velocity": 86}, {"time": 1766, "pitch": 56, "duration": 7, "velocity": 87}, {"time": 1766, "pitch": 59, "duration": 7, "velocity": 90}, {"time": 1766, "pitch": 64, "duration": 7, "velocity": 98}, {"time": 1772, "pitch": 52, "duration": 6, "velocity": 53}, {"time": 1778, "pitch": 42, "duration": 17, "velocity": 75}, {"time": 1778, "pitch": 57, "duration": 11, "velocity": 66}, {"time": 1778, "pitch": 61, "duration": 11, "velocity": 71}, {"time": 1778, "pitch": 66, "duration": 11, "velocity": 73}, {"time": 1784, "pitch": 49, "duration": 17, "velocity": 69}, {"time": 1790, "pitch": 57, "duration": 6, "velocity": 77}, {"time": 1790, "pitch": 61, "duration": 6, "velocity": 87}, {"time": 1790, "pitch": 66, "duration": 6, "velocity": 90}, {"time": 1799, "pitch": 56, "duration": 2, "velocity": 11}, {"time": 1799, "pitch": 59, "duration": 2, "velocity": 11}, {"time": 1802, "pitch": 40, "duration": 18, "velocity": 72}, {"time": 1802, "pitch": 56, "duration": 11, "velocity": 79}, {"time": 1802, "pitch": 59, "duration": 11, "velocity": 90}, {"time": 1802, "pitch": 64, "duration": 11, "velocity": 95}, {"time": 1814, "pitch": 56, "duration": 7, "velocity": 90}, {"time": 1814, "pitch": 59, "duration": 7, "velocity": 98}, {"time": 1814, "pitch": 64, "duration": 7, "velocity": 111}, {"time": 1826, "pitch": 47, "duration": 20, "velocity": 85}, {"time": 1826, "pitch": 62, "duration": 12, "velocity": 86}, {"time": 1832, "pitch": 54, "duration": 13, "velocity": 64}, {"time": 1838, "pitch": 62, "duration": 7, "velocity": 76}, {"time": 1838, "pitch": 66, "duration": 7, "velocity": 74}, {"time": 1844, "pitch": 59, "duration": 2, "velocity": 63}, {"time": 1850, "pitch": 38, "duration": 21, "velocity": 79}, {"time": 1850, "pitch": 54, "duration": 12, "velocity": 79}, {"time": 1850, "pitch": 57, "duration": 12, "velocity": 79}, {"time": 1856, "pitch": 45, "duration": 18, "velocity": 77}, {"time": 1862, "pitch": 54, "duration": 9, "velocity": 76}, {"time": 1862, "pitch": 57, "duration": 8, "velocity": 86}, {"time": 1862, "pitch": 62, "duration": 8, "velocity": 71}, {"time": 1868, "pitch": 50, "duration": 5, "velocity": 61}, {"time": 1874, "pitch": 40, "duration": 48, "velocity": 76}, {"time": 1874, "pitch": 56, "duration": 11, "velocity": 68}, {"time": 1874, "pitch": 59, "duration": 11, "velocity": 85}, {"time": 1874, "pitch": 64, "duration": 11, "velocity": 85}, {"time": 1880, "pitch": 47, "duration": 41, "velocity": 76}, {"time": 1886, "pitch": 56, "duration": 11, "velocity": 83}, {"time": 1886, "pitch": 59, "duration": 11, "velocity": 90}, {"time": 1886, "pitch": 64, "duration": 11, "velocity": 100}, {"time": 1892, "pitch": 52, "duration": 7, "velocity": 58}, {"time": 1898, "pitch": 56, "duration": 11, "velocity": 76}, {"time": 1898, "pitch": 59, "duration": 11, "velocity": 90}, {"time": 1898, "pitch": 64, "duration": 11, "velocity": 100}, {"time": 1904, "pitch": 52, "duration": 7, "velocity": 53}, {"time": 1910, "pitch": 56, "duration": 11, "velocity": 81}, {"time": 1910, "pitch": 59, "duration": 11, "velocity": 90}, {"time": 1910, "pitch": 64, "duration": 11, "velocity": 100}, {"time": 1916, "pitch": 52, "duration": 6, "velocity": 59}, {"time": 1922, "pitch": 42, "duration": 18, "velocity": 83}, {"time": 1922, "pitch": 57, "duration": 11, "velocity": 74}, {"time": 1922, "pitch": 61, "duration": 11, "velocity": 75}, {"time": 1922, "pitch": 66, "duration": 11, "velocity": 83}, {"time": 1928, "pitch": 49, "duration": 12, "velocity": 62}, {"time": 1934, "pitch": 57, "duration": 6, "velocity": 90}, {"time": 1934, "pitch": 61, "duration": 5, "velocity": 98}, {"time": 1934, "pitch": 66, "duration": 6, "velocity": 93}, {"time": 1943, "pitch": 56, "duration": 1, "velocity": 12}, {"time": 1943, "pitch": 59, "duration": 1, "velocity": 14}, {"time": 1943, "pitch": 64, "duration": 2, "velocity": 50}, {"time": 1946, "pitch": 40, "duration": 22, "velocity": 75}, {"time": 1946, "pitch": 56, "duration": 12, "velocity": 87}, {"time": 1946, "pitch": 59, "duration": 11, "velocity": 98}, {"time": 1946, "pitch": 64, "duration": 11, "velocity": 93}, {"time": 1952, "pitch": 47, "duration": 15, "velocity": 70}, {"time": 1958, "pitch": 56, "duration": 8, "velocity": 85}, {"time": 1958, "pitch": 59, "duration": 8, "velocity": 100}, {"time": 1958, "pitch": 64, "duration": 8, "velocity": 112}, {"time": 1964, "pitch": 52, "duration": 3, "velocity": 58}, {"time": 1967, "pitch": 54, "duration": 1, "velocity": 39}, {"time": 1967, "pitch": 57, "duration": 1, "velocity": 52}, {"time": 1967, "pitch": 62, "duration": 1, "velocity": 49}, {"time": 1970, "pitch": 38, "duration": 21, "velocity": 93}, {"time": 1970, "pitch": 54, "duration": 11, "velocity": 81}, {"time": 1970, "pitch": 57, "duration": 11, "velocity": 90}, {"time": 1970, "pitch": 62, "duration": 11, "velocity": 90}, {"time": 1976, "pitch": 45, "duration": 12, "velocity": 85}, {"time": 1982, "pitch": 54, "duration": 9, "velocity": 76}, {"time": 1982, "pitch": 57, "duration": 9, "velocity": 81}, {"time": 1982, "pitch": 62, "duration": 9, "velocity": 85}, {"time": 1994, "pitch": 42, "duration": 20, "velocity": 79}, {"time": 1994, "pitch": 57, "duration": 10, "velocity": 73}, {"time": 1994, "pitch": 61, "duration": 10, "velocity": 74}, {"time": 1994, "pitch": 66, "duration": 10, "velocity": 75}, {"time": 2006, "pitch": 57, "duration": 9, "velocity": 74}, {"time": 2006, "pitch": 61, "duration": 8, "velocity": 77}, {"time": 2006, "pitch": 66, "duration": 8, "velocity": 81}, {"time": 2012, "pitch": 49, "duration": 2, "velocity": 63}, {"time": 2018, "pitch": 38, "duration": 20, "velocity": 85}, {"time": 2018, "pitch": 54, "duration": 11, "velocity": 73}, {"time": 2018, "pitch": 57, "duration": 12, "velocity": 81}, {"time": 2018, "pitch": 62, "duration": 11, "velocity": 86}, {"time": 2024, "pitch": 45, "duration": 18, "velocity": 86}, {"time": 2030, "pitch": 54, "duration": 7, "velocity": 93}, {"time": 2030, "pitch": 57, "duration": 7, "velocity": 98}, {"time": 2030, "pitch": 62, "duration": 7, "velocity": 111}, {"time": 2036, "pitch": 50, "duration": 5, "velocity": 59}, {"time": 2042, "pitch": 40, "duration": 20, "velocity": 74}, {"time": 2042, "pitch": 56, "duration": 11, "velocity": 76}, {"time": 2042, "pitch": 59, "duration": 11, "velocity": 86}, {"time": 2042, "pitch": 64, "duration": 11, "velocity": 90}, {"time": 2048, "pitch": 47, "duration": 18, "velocity": 75}, {"time": 2054, "pitch": 56, "duration": 7, "velocity": 86}, {"time": 2054, "pitch": 59, "duration": 7, "velocity": 93}, {"time": 2054, "pitch": 64, "duration": 7, "velocity": 98}, {"time": 2060, "pitch": 52, "duration": 5, "velocity": 59}, {"time": 2066, "pitch": 42, "duration": 49, "velocity": 75}, {"time": 2066, "pitch": 57, "duration": 11, "velocity": 95}, {"time": 2066, "pitch": 61, "duration": 11, "velocity": 95}, {"time": 2066, "pitch": 66, "duration": 11, "velocity": 95}, {"time": 2072, "pitch": 49, "duration": 42, "velocity": 66}, {"time": 2078, "pitch": 57, "duration": 11, "velocity": 77}, {"time": 2078, "pitch": 61, "duration": 11, "velocity": 86}, {"time": 2078, "pitch": 66, "duration": 11, "velocity": 86}, {"time": 2084, "pitch": 54, "duration": 8, "velocity": 58}, {"time": 2090, "pitch": 57, "duration": 11, "velocity": 85}, {"time": 2090, "pitch": 61, "duration": 11, "velocity": 93}, {"time": 2090, "pitch": 66, "duration": 11, "velocity": 90}, {"time": 2096, "pitch": 54, "duration": 8, "velocity": 58}, {"time": 2102, "pitch": 57, "duration": 12, "velocity": 87}, {"time": 2102, "pitch": 61, "duration": 12, "velocity": 93}, {"time": 2102, "pitch": 66, "duration": 12, "velocity": 93}, {"time": 2108, "pitch": 54, "duration": 6, "velocity": 67}, {"time": 2114, "pitch": 47, "duration": 17, "velocity": 87}, {"time": 2114, "pitch": 62, "duration": 11, "velocity": 85}, {"time": 2114, "pitch": 66, "duration": 11, "velocity": 74}, {"time": 2120, "pitch": 54, "duration": 10, "velocity": 67}, {"time": 2126, "pitch": 62, "duration": 6, "velocity": 95}, {"time": 2126, "pitch": 66, "duration": 6, "velocity": 85}, {"time": 2138, "pitch": 40, "duration": 20, "velocity": 77}, {"time": 2138, "pitch": 56, "duration": 11, "velocity": 85}, {"time": 2138, "pitch": 59, "duration": 11, "velocity": 86}, {"time": 2144, "pitch": 47, "duration": 18, "velocity": 79}, {"time": 2147, "pitch": 64, "duration": 2, "velocity": 59}, {"time": 2150, "pitch": 56, "duration": 7, "velocity": 74}, {"time": 2150, "pitch": 59, "duration": 7, "velocity": 104}, {"time": 2150, "pitch": 64, "duration": 7, "velocity": 95}, {"time": 2156, "pitch": 52, "duration": 5, "velocity": 59}, {"time": 2162, "pitch": 42, "duration": 10, "velocity": 76}, {"time": 2162, "pitch": 57, "duration": 11, "velocity": 85}, {"time": 2162, "pitch": 61, "duration": 11, "velocity": 93}, {"time": 2162, "pitch": 66, "duration": 11, "velocity": 90}, {"time": 2168, "pitch": 49, "duration": 12, "velocity": 65}, {"time": 2174, "pitch": 38, "duration": 1, "velocity": 77}, {"time": 2174, "pitch": 40, "duration": 6, "velocity": 76}, {"time": 2174, "pitch": 56, "duration": 7, "velocity": 86}, {"time": 2174, "pitch": 59, "duration": 6, "velocity": 100}, {"time": 2174, "pitch": 64, "duration": 6, "velocity": 93}, {"time": 2183, "pitch": 54, "duration": 1, "velocity": 14}, {"time": 2183, "pitch": 57, "duration": 2, "velocity": 43}, {"time": 2183, "pitch": 62, "duration": 2, "velocity": 15}, {"time": 2186, "pitch": 38, "duration": 21, "velocity": 77}, {"time": 2186, "pitch": 54, "duration": 11, "velocity": 86}, {"time": 2186, "pitch": 57, "duration": 11, "velocity": 93}, {"time": 2186, "pitch": 62, "duration": 11, "velocity": 100}, {"time": 2192, "pitch": 45, "duration": 18, "velocity": 76}, {"time": 2198, "pitch": 54, "duration": 8, "velocity": 95}, {"time": 2198, "pitch": 57, "duration": 8, "velocity": 98}, {"time": 2198, "pitch": 62, "duration": 7, "velocity": 111}, {"time": 2204, "pitch": 50, "duration": 5, "velocity": 59}, {"time": 2210, "pitch": 47, "duration": 17, "velocity": 86}, {"time": 2210, "pitch": 62, "duration": 11, "velocity": 74}, {"time": 2210, "pitch": 66, "duration": 11, "velocity": 74}, {"time": 2216, "pitch": 54, "duration": 8, "velocity": 64}, {"time": 2222, "pitch": 62, "duration": 6, "velocity": 83}, {"time": 2222, "pitch": 66, "duration": 6, "velocity": 93}, {"time": 2222, "pitch": 71, "duration": 6, "velocity": 90}, {"time": 2231, "pitch": 57, "duration": 1, "velocity": 84}, {"time": 2234, "pitch": 38, "duration": 20, "velocity": 84}, {"time": 2234, "pitch": 54, "duration": 11, "velocity": 84}, {"time": 2234, "pitch": 57, "duration": 11, "velocity": 84}, {"time": 2234, "pitch": 62, "duration": 11, "velocity": 84}, {"time": 2240, "pitch": 45, "duration": 17, "velocity": 84}, {"time": 2246, "pitch": 54, "duration": 7, "velocity": 84}, {"time": 2246, "pitch": 57, "duration": 7, "velocity": 84}, {"time": 2246, "pitch": 62, "duration": 7, "velocity": 84}, {"time": 2252, "pitch": 50, "duration": 5, "velocity": 83}, {"time": 2255, "pitch": 56, "duration": 1, "velocity": 82}, {"time": 2258, "pitch": 40, "duration": 44, "velocity": 82}, {"time": 2258, "pitch": 56, "duration": 11, "velocity": 82}, {"time": 2258, "pitch": 59, "duration": 12, "velocity": 82}, {"time": 2258, "pitch": 64, "duration": 12, "velocity": 82}, {"time": 2264, "pitch": 47, "duration": 42, "velocity": 82}, {"time": 2270, "pitch": 56, "duration": 10, "velocity": 81}, {"time": 2270, "pitch": 59, "duration": 10, "velocity": 81}, {"time": 2270, "pitch": 64, "duration": 10, "velocity": 81}, {"time": 2276, "pitch": 52, "duration": 8, "velocity": 81}, {"time": 2282, "pitch": 56, "duration": 11, "velocity": 84}, {"time": 2282, "pitch": 59, "duration": 11, "velocity": 84}, {"time": 2282, "pitch": 64, "duration": 11, "velocity": 84}, {"time": 2288, "pitch": 52, "duration": 7, "velocity": 95}, {"time": 2294, "pitch": 56, "duration": 10, "velocity": 93}, {"time": 2294, "pitch": 59, "duration": 10, "velocity": 93}, {"time": 2294, "pitch": 64, "duration": 8, "velocity": 93}, {"time": 2300, "pitch": 52, "duration": 5, "velocity": 89}, {"time": 2306, "pitch": 42, "duration": 18, "velocity": 83}, {"time": 2306, "pitch": 57, "duration": 11, "velocity": 74}, {"time": 2306, "pitch": 61, "duration": 11, "velocity": 75}, {"time": 2306, "pitch": 66, "duration": 11, "velocity": 83}, {"time": 2312, "pitch": 49, "duration": 12, "velocity": 62}, {"time": 2318, "pitch": 57, "duration": 6, "velocity": 90}, {"time": 2318, "pitch": 61, "duration": 5, "velocity": 98}, {"time": 2318, "pitch": 66, "duration": 6, "velocity": 93}, {"time": 2327, "pitch": 56, "duration": 1, "velocity": 12}, {"time": 2327, "pitch": 59, "duration": 1, "velocity": 14}, {"time": 2327, "pitch": 64, "duration": 2, "velocity": 50}, {"time": 2330, "pitch": 40, "duration": 22, "velocity": 75}, {"time": 2330, "pitch": 56, "duration": 12, "velocity": 87}, {"time": 2330, "pitch": 59, "duration": 11, "velocity": 98}, {"time": 2330, "pitch": 64, "duration": 11, "velocity": 93}, {"time": 2336, "pitch": 47, "duration": 15, "velocity": 70}, {"time": 2342, "pitch": 56, "duration": 8, "velocity": 85}, {"time": 2342, "pitch": 59, "duration": 8, "velocity": 100}, {"time": 2342, "pitch": 64, "duration": 8, "velocity": 112}, {"time": 2348, "pitch": 52, "duration": 3, "velocity": 58}, {"time": 2351, "pitch": 54, "duration": 1, "velocity": 39}, {"time": 2351, "pitch": 57, "duration": 1, "velocity": 52}, {"time": 2351, "pitch": 62, "duration": 1, "velocity": 49}, {"time": 2354, "pitch": 38, "duration": 21, "velocity": 93}, {"time": 2354, "pitch": 54, "duration": 11, "velocity": 81}, {"time": 2354, "pitch": 57, "duration": 11, "velocity": 90}, {"time": 2354, "pitch": 62, "duration": 11, "velocity": 90}, {"time": 2360, "pitch": 45, "duration": 12, "velocity": 85}, {"time": 2366, "pitch": 54, "duration": 9, "velocity": 76}, {"time": 2366, "pitch": 57, "duration": 9, "velocity": 81}, {"time": 2366, "pitch": 62, "duration": 9, "velocity": 85}, {"time": 2378, "pitch": 42, "duration": 20, "velocity": 79}, {"time": 2378, "pitch": 57, "duration": 10, "velocity": 73}, {"time": 2378, "pitch": 61, "duration": 10, "velocity": 74}, {"time": 2378, "pitch": 66, "duration": 10, "velocity": 75}, {"time": 2390, "pitch": 57, "duration": 9, "velocity": 74}, {"time": 2390, "pitch": 61, "duration": 8, "velocity": 77}, {"time": 2390, "pitch": 66, "duration": 8, "velocity": 81}, {"time": 2396, "pitch": 49, "duration": 2, "velocity": 63}, {"time": 2402, "pitch": 38, "duration": 20, "velocity": 85}, {"time": 2402, "pitch": 54, "duration": 11, "velocity": 73}, {"time": 2402, "pitch": 57, "duration": 12, "velocity": 81}, {"time": 2402, "pitch": 62, "duration": 11, "velocity": 86}, {"time": 2408, "pitch": 45, "duration": 18, "velocity": 86}, {"time": 2414, "pitch": 54, "duration": 7, "velocity": 93}, {"time": 2414, "pitch": 57, "duration": 7, "velocity": 98}, {"time": 2414, "pitch": 62, "duration": 7, "velocity": 111}, {"time": 2420, "pitch": 50, "duration": 5, "velocity": 59}, {"time": 2426, "pitch": 40, "duration": 20, "velocity": 74}, {"time": 2426, "pitch": 56, "duration": 11, "velocity": 76}, {"time": 2426, "pitch": 59, "duration": 11, "velocity": 86}, {"time": 2426, "pitch": 64, "duration": 11, "velocity": 90}, {"time": 2432, "pitch": 47, "duration": 18, "velocity": 75}, {"time": 2438, "pitch": 56, "duration": 7, "velocity": 86}, {"time": 2438, "pitch": 59, "duration": 7, "velocity": 93}, {"time": 2438, "pitch": 64, "duration": 7, "velocity": 98}, {"time": 2444, "pitch": 52, "duration": 5, "velocity": 59}, {"time": 2450, "pitch": 42, "duration": 49, "velocity": 75}, {"time": 2450, "pitch": 57, "duration": 11, "velocity": 95}, {"time": 2450, "pitch": 61, "duration": 11, "velocity": 95}, {"time": 2450, "pitch": 66, "duration": 11, "velocity": 95}, {"time": 2456, "pitch": 49, "duration": 42, "velocity": 66}, {"time": 2462, "pitch": 57, "duration": 11, "velocity": 77}, {"time": 2462, "pitch": 61, "duration": 11, "velocity": 86}, {"time": 2462, "pitch": 66, "duration": 11, "velocity": 86}, {"time": 2468, "pitch": 54, "duration": 8, "velocity": 58}, {"time": 2474, "pitch": 57, "duration": 11, "velocity": 85}, {"time": 2474, "pitch": 61, "duration": 11, "velocity": 93}, {"time": 2474, "pitch": 66, "duration": 11, "velocity": 90}, {"time": 2480, "pitch": 54, "duration": 8, "velocity": 58}, {"time": 2486, "pitch": 57, "duration": 12, "velocity": 87}, {"time": 2486, "pitch": 61, "duration": 12, "velocity": 93}, {"time": 2486, "pitch": 66, "duration": 12, "velocity": 93}, {"time": 2492, "pitch": 54, "duration": 6, "velocity": 67}, {"time": 2498, "pitch": 47, "duration": 17, "velocity": 87}, {"time": 2498, "pitch": 62, "duration": 11, "velocity": 85}, {"time": 2498, "pitch": 66, "duration": 11, "velocity": 74}, {"time": 2504, "pitch": 54, "duration": 10, "velocity": 67}, {"time": 2510, "pitch": 62, "duration": 6, "velocity": 95}, {"time": 2510, "pitch": 66, "duration": 6, "velocity": 85}, {"time": 2522, "pitch": 40, "duration": 20, "velocity": 77}, {"time": 2522, "pitch": 56, "duration": 11, "velocity": 85}, {"time": 2522, "pitch": 59, "duration": 11, "velocity": 86}, {"time": 2528, "pitch": 47, "duration": 18, "velocity": 79}, {"time": 2531, "pitch": 64, "duration": 2, "velocity": 59}, {"time": 2534, "pitch": 56, "duration": 7, "velocity": 74}, {"time": 2534, "pitch": 59, "duration": 7, "velocity": 104}, {"time": 2534, "pitch": 64, "duration": 7, "velocity": 95}, {"time": 2540, "pitch": 52, "duration": 5, "velocity": 59}, {"time": 2546, "pitch": 42, "duration": 10, "velocity": 76}, {"time": 2546, "pitch": 57, "duration": 11, "velocity": 85}, {"time": 2546, "pitch": 61, "duration": 11, "velocity": 93}, {"time": 2546, "pitch": 66, "duration": 11, "velocity": 90}, {"time": 2552, "pitch": 49, "duration": 12, "velocity": 65}, {"time": 2558, "pitch": 38, "duration": 1, "velocity": 77}, {"time": 2558, "pitch": 40, "duration": 6, "velocity": 76}, {"time": 2558, "pitch": 56, "duration": 7, "velocity": 86}, {"time": 2558, "pitch": 59, "duration": 6, "velocity": 100}, {"time": 2558, "pitch": 64, "duration": 6, "velocity": 93}, {"time": 2567, "pitch": 54, "duration": 1, "velocity": 14}, {"time": 2567, "pitch": 57, "duration": 2, "velocity": 43}, {"time": 2567, "pitch": 62, "duration": 2, "velocity": 15}, {"time": 2570, "pitch": 38, "duration": 21, "velocity": 77}, {"time": 2570, "pitch": 54, "duration": 11, "velocity": 86}, {"time": 2570, "pitch": 57, "duration": 11, "velocity": 93}, {"time": 2570, "pitch": 62, "duration": 11, "velocity": 100}, {"time": 2576, "pitch": 45, "duration": 18, "velocity": 76}, {"time": 2582, "pitch": 54, "duration": 8, "velocity": 95}, {"time": 2582, "pitch": 57, "duration": 8, "velocity": 98}, {"time": 2582, "pitch": 62, "duration": 7, "velocity": 111}, {"time": 2588, "pitch": 50, "duration": 5, "velocity": 59}, {"time": 2594, "pitch": 47, "duration": 17, "velocity": 86}, {"time": 2594, "pitch": 62, "duration": 11, "velocity": 74}, {"time": 2594, "pitch": 66, "duration": 11, "velocity": 74}, {"time": 2600, "pitch": 54, "duration": 8, "velocity": 64}, {"time": 2606, "pitch": 62, "duration": 6, "velocity": 83}, {"time": 2606, "pitch": 66, "duration": 6, "velocity": 93}, {"time": 2606, "pitch": 71, "duration": 6, "velocity": 90}, {"time": 2615, "pitch": 57, "duration": 1, "velocity": 84}, {"time": 2618, "pitch": 38, "duration": 20, "velocity": 84}, {"time": 2618, "pitch": 54, "duration": 11, "velocity": 84}, {"time": 2618, "pitch": 57, "duration": 11, "velocity": 84}, {"time": 2618, "pitch": 62, "duration": 11, "velocity": 84}, {"time": 2624, "pitch": 45, "duration": 17, "velocity": 84}, {"time": 2630, "pitch": 54, "duration": 7, "velocity": 84}, {"time": 2630, "pitch": 57, "duration": 7, "velocity": 84}, {"time": 2630, "pitch": 62, "duration": 7, "velocity": 84}, {"time": 2636, "pitch": 50, "duration": 5, "velocity": 83}, {"time": 2639, "pitch": 56, "duration": 1, "velocity": 82}, {"time": 2642, "pitch": 40, "duration": 44, "velocity": 82}, {"time": 2642, "pitch": 56, "duration": 11, "velocity": 82}, {"time": 2642, "pitch": 59, "duration": 12, "velocity": 82}, {"time": 2642, "pitch": 64, "duration": 12, "velocity": 82}, {"time": 2648, "pitch": 47, "duration": 42, "velocity": 82}, {"time": 2654, "pitch": 56, "duration": 10, "velocity": 81}, {"time": 2654, "pitch": 59, "duration": 10, "velocity": 81}, {"time": 2654, "pitch": 64, "duration": 10, "velocity": 81}, {"time": 2660, "pitch": 52, "duration": 8, "velocity": 81}, {"time": 2666, "pitch": 56, "duration": 11, "velocity": 84}, {"time": 2666, "pitch": 59, "duration": 11, "velocity": 84}, {"time": 2666, "pitch": 64, "duration": 11, "velocity": 84}, {"time": 2672, "pitch": 52, "duration": 7, "velocity": 95}, {"time": 2678, "pitch": 56, "duration": 10, "velocity": 93}, {"time": 2678, "pitch": 59, "duration": 10, "velocity": 93}, {"time": 2678, "pitch": 64, "duration": 8, "velocity": 93}, {"time": 2684, "pitch": 52, "duration": 5, "velocity": 89}, {"time": 2690, "pitch": 54, "duration": 23, "velocity": 68}, {"time": 2690, "pitch": 76, "duration": 5, "velocity": 77}, {"time": 2693, "pitch": 66, "duration": 4, "velocity": 59}, {"time": 2696, "pitch": 61, "duration": 11, "velocity": 68}, {"time": 2696, "pitch": 69, "duration": 3, "velocity": 69}, {"time": 2699, "pitch": 76, "duration": 7, "velocity": 87}, {"time": 2702, "pitch": 66, "duration": 7, "velocity": 69}, {"time": 2705, "pitch": 66, "duration": 4, "velocity": 64}, {"time": 2708, "pitch": 61, "duration": 4, "velocity": 76}, {"time": 2708, "pitch": 69, "duration": 2, "velocity": 79}, {"time": 2711, "pitch": 76, "duration": 6, "velocity": 93}, {"time": 2714, "pitch": 50, "duration": 23, "velocity": 83}, {"time": 2717, "pitch": 66, "duration": 4, "velocity": 71}, {"time": 2720, "pitch": 57, "duration": 6, "velocity": 76}, {"time": 2720, "pitch": 69, "duration": 3, "velocity": 70}, {"time": 2723, "pitch": 76, "duration": 7, "velocity": 86}, {"time": 2726, "pitch": 62, "duration": 8, "velocity": 81}, {"time": 2729, "pitch": 64, "duration": 4, "velocity": 63}, {"time": 2732, "pitch": 57, "duration": 7, "velocity": 83}, {"time": 2732, "pitch": 69, "duration": 3, "velocity": 64}, {"time": 2732, "pitch": 69, "duration": 3, "velocity": 68}, {"time": 2735, "pitch": 73, "duration": 6, "velocity": 73}, {"time": 2738, "pitch": 52, "duration": 22, "velocity": 77}, {"time": 2741, "pitch": 69, "duration": 4, "velocity": 74}, {"time": 2744, "pitch": 59, "duration": 19, "velocity": 67}, {"time": 2744, "pitch": 71, "duration": 2, "velocity": 88}, {"time": 2747, "pitch": 76, "duration": 11, "velocity": 88}, {"time": 2750, "pitch": 64, "duration": 12, "velocity": 58}, {"time": 2756, "pitch": 66, "duration": 6, "velocity": 65}, {"time": 2762, "pitch": 52, "duration": 18, "velocity": 71}, {"time": 2762, "pitch": 68, "duration": 19, "velocity": 74}, {"time": 2768, "pitch": 59, "duration": 18, "velocity": 75}, {"time": 2774, "pitch": 64, "duration": 12, "velocity": 74}, {"time": 2786, "pitch": 54, "duration": 23, "velocity": 79}, {"time": 2786, "pitch": 76, "duration": 5, "velocity": 67}, {"time": 2789, "pitch": 66, "duration": 5, "velocity": 58}, {"time": 2792, "pitch": 61, "duration": 12, "velocity": 64}, {"time": 2792, "pitch": 69, "duration": 3, "velocity": 63}, {"time": 2795, "pitch": 73, "duration": 6, "velocity": 74}, {"time": 2801, "pitch": 66, "duration": 4, "velocity": 66}, {"time": 2804, "pitch": 61, "duration": 4, "velocity": 74}, {"time": 2804, "pitch": 69, "duration": 4, "velocity": 61}, {"time": 2807, "pitch": 76, "duration": 6, "velocity": 79}, {"time": 2810, "pitch": 50, "duration": 21, "velocity": 87}, {"time": 2813, "pitch": 66, "duration": 4, "velocity": 64}, {"time": 2816, "pitch": 57, "duration": 10, "velocity": 71}, {"time": 2816, "pitch": 69, "duration": 3, "velocity": 65}, {"time": 2819, "pitch": 76, "duration": 6, "velocity": 77}, {"time": 2822, "pitch": 62, "duration": 11, "velocity": 83}, {"time": 2825, "pitch": 66, "duration": 4, "velocity": 61}, {"time": 2828, "pitch": 57, "duration": 6, "velocity": 90}, {"time": 2828, "pitch": 69, "duration": 4, "velocity": 63}, {"time": 2831, "pitch": 76, "duration": 4, "velocity": 74}, {"time": 2834, "pitch": 52, "duration": 38, "velocity": 81}, {"time": 2837, "pitch": 66, "duration": 4, "velocity": 60}, {"time": 2840, "pitch": 59, "duration": 17, "velocity": 73}, {"time": 2840, "pitch": 69, "duration": 3, "velocity": 63}, {"time": 2843, "pitch": 76, "duration": 8, "velocity": 76}, {"time": 2846, "pitch": 64, "duration": 11, "velocity": 64}, {"time": 2856, "pitch": 76, "duration": 3, "velocity": 63}, {"time": 2857, "pitch": 80, "duration": 2, "velocity": 73}, {"time": 2858, "pitch": 59, "duration": 14, "velocity": 72}, {"time": 2858, "pitch": 64, "duration": 13, "velocity": 58}, {"time": 2858, "pitch": 83, "duration": 13, "velocity": 72}], "annotations": [{"time": 2, "annotation": {"number": 64, "value": 74}, "group": "control_change"}, {"time": 14, "annotation": {"number": 64, "value": 73}, "group": "control_change"}]}]}