{"metadata": {"schema_version": "0.2", "title": "None", "source_filename": "156.mid", "source_format": "midi"}, "resolution": 12, "tempos": [{"time": 0, "qpm": 96.0}], "time_signatures": [{"time": 0, "numerator": 1, "denominator": 4}], "tracks": [{"program": 0, "is_drum": false, "name": "MELODY", "notes": [{"time": 430, "pitch": 60, "duration": 7, "velocity": 61}, {"time": 436, "pitch": 65, "duration": 6, "velocity": 68}, {"time": 442, "pitch": 65, "duration": 6, "velocity": 74}, {"time": 448, "pitch": 65, "duration": 6, "velocity": 65}, {"time": 454, "pitch": 68, "duration": 6, "velocity": 73}, {"time": 460, "pitch": 65, "duration": 12, "velocity": 85}, {"time": 472, "pitch": 65, "duration": 6, "velocity": 79}, {"time": 478, "pitch": 63, "duration": 6, "velocity": 72}, {"time": 484, "pitch": 65, "duration": 12, "velocity": 77}, {"time": 496, "pitch": 65, "duration": 30, "velocity": 93}, {"time": 526, "pitch": 65, "duration": 7, "velocity": 64}, {"time": 532, "pitch": 70, "duration": 6, "velocity": 81}, {"time": 538, "pitch": 70, "duration": 6, "velocity": 76}, {"time": 544, "pitch": 70, "duration": 6, "velocity": 76}, {"time": 550, "pitch": 72, "duration": 6, "velocity": 87}, {"time": 556, "pitch": 70, "duration": 12, "velocity": 98}, {"time": 568, "pitch": 68, "duration": 6, "velocity": 74}, {"time": 574, "pitch": 70, "duration": 6, "velocity": 76}, {"time": 580, "pitch": 72, "duration": 12, "velocity": 77}, {"time": 592, "pitch": 72, "duration": 30, "velocity": 90}, {"time": 622, "pitch": 72, "duration": 6, "velocity": 71}, {"time": 628, "pitch": 77, "duration": 6, "velocity": 76}, {"time": 634, "pitch": 77, "duration": 6, "velocity": 76}, {"time": 640, "pitch": 77, "duration": 6, "velocity": 85}, {"time": 646, "pitch": 80, "duration": 6, "velocity": 75}, {"time": 652, "pitch": 77, "duration": 12, "velocity": 104}, {"time": 664, "pitch": 75, "duration": 7, "velocity": 63}, {"time": 670, "pitch": 72, "duration": 6, "velocity": 67}, {"time": 676, "pitch": 75, "duration": 12, "velocity": 98}, {"time": 688, "pitch": 70, "duration": 30, "velocity": 79}, {"time": 718, "pitch": 70, "duration": 6, "velocity": 72}, {"time": 724, "pitch": 72, "duration": 12, "velocity": 90}, {"time": 736, "pitch": 72, "duration": 6, "velocity": 77}, {"time": 742, "pitch": 75, "duration": 6, "velocity": 86}, {"time": 748, "pitch": 70, "duration": 6, "velocity": 72}, {"time": 754, "pitch": 70, "duration": 12, "velocity": 75}, {"time": 766, "pitch": 72, "duration": 6, "velocity": 67}, {"time": 772, "pitch": 68, "duration": 12, "velocity": 61}, {"time": 784, "pitch": 65, "duration": 30, "velocity": 76}, {"time": 784, "pitch": 65, "duration": 30, "velocity": 83}, {"time": 814, "pitch": 60, "duration": 7, "velocity": 61}, {"time": 820, "pitch": 65, "duration": 6, "velocity": 68}, {"time": 826, "pitch": 65, "duration": 6, "velocity": 74}, {"time": 832, "pitch": 65, "duration": 6, "velocity": 65}, {"time": 838, "pitch": 68, "duration": 6, "velocity": 73}, {"time": 844, "pitch": 65, "duration": 12, "velocity": 85}, {"time": 856, "pitch": 65, "duration": 6, "velocity": 79}, {"time": 862, "pitch": 63, "duration": 6, "velocity": 72}, {"time": 868, "pitch": 65, "duration": 12, "velocity": 77}, {"time": 880, "pitch": 65, "duration": 30, "velocity": 93}, {"time": 910, "pitch": 65, "duration": 7, "velocity": 64}, {"time": 916, "pitch": 70, "duration": 6, "velocity": 81}, {"time": 922, "pitch": 70, "duration": 6, "velocity": 76}, {"time": 928, "pitch": 70, "duration": 6, "velocity": 76}, {"time": 934, "pitch": 72, "duration": 6, "velocity": 87}, {"time": 940, "pitch": 70, "duration": 12, "velocity": 98}, {"time": 952, "pitch": 68, "duration": 6, "velocity": 74}, {"time": 958, "pitch": 70, "duration": 6, "velocity": 76}, {"time": 964, "pitch": 72, "duration": 12, "velocity": 77}, {"time": 976, "pitch": 72, "duration": 30, "velocity": 90}, {"time": 1006, "pitch": 72, "duration": 6, "velocity": 71}, {"time": 1012, "pitch": 77, "duration": 6, "velocity": 76}, {"time": 1018, "pitch": 77, "duration": 6, "velocity": 76}, {"time": 1024, "pitch": 77, "duration": 6, "velocity": 85}, {"time": 1030, "pitch": 77, "duration": 6, "velocity": 75}, {"time": 1036, "pitch": 77, "duration": 12, "velocity": 104}, {"time": 1048, "pitch": 75, "duration": 7, "velocity": 63}, {"time": 1054, "pitch": 72, "duration": 6, "velocity": 67}, {"time": 1060, "pitch": 75, "duration": 12, "velocity": 98}, {"time": 1072, "pitch": 70, "duration": 30, "velocity": 79}, {"time": 1102, "pitch": 70, "duration": 6, "velocity": 72}, {"time": 1108, "pitch": 72, "duration": 12, "velocity": 90}, {"time": 1120, "pitch": 72, "duration": 6, "velocity": 77}, {"time": 1126, "pitch": 75, "duration": 6, "velocity": 86}, {"time": 1132, "pitch": 70, "duration": 6, "velocity": 72}, {"time": 1138, "pitch": 70, "duration": 6, "velocity": 75}, {"time": 1144, "pitch": 70, "duration": 6, "velocity": 98}, {"time": 1150, "pitch": 72, "duration": 6, "velocity": 67}, {"time": 1156, "pitch": 68, "duration": 12, "velocity": 61}, {"time": 1168, "pitch": 65, "duration": 78, "velocity": 76}, {"time": 1168, "pitch": 65, "duration": 78, "velocity": 83}, {"time": 1246, "pitch": 72, "duration": 6, "velocity": 72}, {"time": 1252, "pitch": 77, "duration": 6, "velocity": 85}, {"time": 1258, "pitch": 77, "duration": 6, "velocity": 98}, {"time": 1264, "pitch": 77, "duration": 6, "velocity": 93}, {"time": 1270, "pitch": 80, "duration": 6, "velocity": 100}, {"time": 1276, "pitch": 80, "duration": 12, "velocity": 120}, {"time": 1288, "pitch": 75, "duration": 6, "velocity": 95}, {"time": 1294, "pitch": 77, "duration": 12, "velocity": 104}, {"time": 1306, "pitch": 77, "duration": 36, "velocity": 93}, {"time": 1342, "pitch": 72, "duration": 6, "velocity": 86}, {"time": 1348, "pitch": 77, "duration": 6, "velocity": 104}, {"time": 1354, "pitch": 77, "duration": 6, "velocity": 98}, {"time": 1360, "pitch": 77, "duration": 6, "velocity": 90}, {"time": 1366, "pitch": 80, "duration": 6, "velocity": 111}, {"time": 1372, "pitch": 77, "duration": 6, "velocity": 104}, {"time": 1378, "pitch": 75, "duration": 6, "velocity": 104}, {"time": 1384, "pitch": 75, "duration": 6, "velocity": 104}, {"time": 1390, "pitch": 72, "duration": 6, "velocity": 85}, {"time": 1396, "pitch": 72, "duration": 12, "velocity": 111}, {"time": 1408, "pitch": 70, "duration": 36, "velocity": 75}, {"time": 1444, "pitch": 72, "duration": 6, "velocity": 108}, {"time": 1450, "pitch": 75, "duration": 6, "velocity": 104}, {"time": 1456, "pitch": 75, "duration": 6, "velocity": 108}, {"time": 1462, "pitch": 77, "duration": 6, "velocity": 100}, {"time": 1468, "pitch": 72, "duration": 12, "velocity": 100}, {"time": 1480, "pitch": 70, "duration": 6, "velocity": 104}, {"time": 1486, "pitch": 72, "duration": 6, "velocity": 98}, {"time": 1492, "pitch": 68, "duration": 12, "velocity": 85}, {"time": 1504, "pitch": 72, "duration": 36, "velocity": 111}, {"time": 1540, "pitch": 72, "duration": 6, "velocity": 90}, {"time": 1546, "pitch": 72, "duration": 6, "velocity": 77}, {"time": 1552, "pitch": 72, "duration": 6, "velocity": 79}, {"time": 1558, "pitch": 75, "duration": 6, "velocity": 112}, {"time": 1564, "pitch": 70, "duration": 6, "velocity": 93}, {"time": 1570, "pitch": 70, "duration": 12, "velocity": 79}, {"time": 1582, "pitch": 72, "duration": 6, "velocity": 79}, {"time": 1588, "pitch": 68, "duration": 12, "velocity": 85}, {"time": 1600, "pitch": 65, "duration": 30, "velocity": 90}, {"time": 1630, "pitch": 72, "duration": 6, "velocity": 72}, {"time": 1636, "pitch": 77, "duration": 6, "velocity": 85}, {"time": 1642, "pitch": 77, "duration": 6, "velocity": 98}, {"time": 1648, "pitch": 77, "duration": 6, "velocity": 93}, {"time": 1654, "pitch": 80, "duration": 6, "velocity": 100}, {"time": 1660, "pitch": 80, "duration": 12, "velocity": 120}, {"time": 1672, "pitch": 75, "duration": 6, "velocity": 95}, {"time": 1678, "pitch": 77, "duration": 12, "velocity": 104}, {"time": 1690, "pitch": 77, "duration": 36, "velocity": 93}, {"time": 1726, "pitch": 72, "duration": 6, "velocity": 86}, {"time": 1732, "pitch": 77, "duration": 6, "velocity": 104}, {"time": 1738, "pitch": 77, "duration": 6, "velocity": 98}, {"time": 1744, "pitch": 77, "duration": 6, "velocity": 90}, {"time": 1750, "pitch": 80, "duration": 6, "velocity": 111}, {"time": 1756, "pitch": 80, "duration": 6, "velocity": 104}, {"time": 1762, "pitch": 77, "duration": 6, "velocity": 104}, {"time": 1768, "pitch": 77, "duration": 6, "velocity": 104}, {"time": 1774, "pitch": 75, "duration": 6, "velocity": 77}, {"time": 1780, "pitch": 75, "duration": 12, "velocity": 108}, {"time": 1792, "pitch": 72, "duration": 36, "velocity": 98}, {"time": 1828, "pitch": 72, "duration": 6, "velocity": 108}, {"time": 1834, "pitch": 75, "duration": 6, "velocity": 104}, {"time": 1840, "pitch": 75, "duration": 6, "velocity": 108}, {"time": 1846, "pitch": 77, "duration": 9, "velocity": 100}, {"time": 1855, "pitch": 75, "duration": 9, "velocity": 100}, {"time": 1864, "pitch": 72, "duration": 6, "velocity": 93}, {"time": 1870, "pitch": 68, "duration": 6, "velocity": 71}, {"time": 1876, "pitch": 70, "duration": 12, "velocity": 104}, {"time": 1888, "pitch": 70, "duration": 36, "velocity": 112}, {"time": 1924, "pitch": 72, "duration": 6, "velocity": 112}, {"time": 1930, "pitch": 72, "duration": 12, "velocity": 112}, {"time": 1942, "pitch": 75, "duration": 6, "velocity": 112}, {"time": 1948, "pitch": 70, "duration": 6, "velocity": 93}, {"time": 1954, "pitch": 70, "duration": 12, "velocity": 79}, {"time": 1966, "pitch": 72, "duration": 6, "velocity": 79}, {"time": 1972, "pitch": 68, "duration": 12, "velocity": 85}, {"time": 1984, "pitch": 65, "duration": 32, "velocity": 90}, {"time": 2638, "pitch": 60, "duration": 7, "velocity": 61}, {"time": 2644, "pitch": 65, "duration": 6, "velocity": 68}, {"time": 2650, "pitch": 65, "duration": 6, "velocity": 74}, {"time": 2656, "pitch": 65, "duration": 6, "velocity": 65}, {"time": 2662, "pitch": 68, "duration": 6, "velocity": 73}, {"time": 2668, "pitch": 65, "duration": 12, "velocity": 85}, {"time": 2680, "pitch": 65, "duration": 6, "velocity": 79}, {"time": 2686, "pitch": 63, "duration": 6, "velocity": 72}, {"time": 2692, "pitch": 65, "duration": 12, "velocity": 77}, {"time": 2704, "pitch": 65, "duration": 30, "velocity": 93}, {"time": 2734, "pitch": 65, "duration": 7, "velocity": 64}, {"time": 2740, "pitch": 70, "duration": 6, "velocity": 81}, {"time": 2746, "pitch": 70, "duration": 6, "velocity": 76}, {"time": 2752, "pitch": 70, "duration": 6, "velocity": 76}, {"time": 2758, "pitch": 72, "duration": 6, "velocity": 87}, {"time": 2764, "pitch": 70, "duration": 12, "velocity": 98}, {"time": 2776, "pitch": 68, "duration": 6, "velocity": 74}, {"time": 2782, "pitch": 70, "duration": 6, "velocity": 76}, {"time": 2788, "pitch": 72, "duration": 12, "velocity": 77}, {"time": 2800, "pitch": 72, "duration": 30, "velocity": 90}, {"time": 2830, "pitch": 72, "duration": 6, "velocity": 71}, {"time": 2836, "pitch": 77, "duration": 6, "velocity": 76}, {"time": 2842, "pitch": 77, "duration": 6, "velocity": 76}, {"time": 2848, "pitch": 77, "duration": 6, "velocity": 85}, {"time": 2854, "pitch": 80, "duration": 6, "velocity": 75}, {"time": 2860, "pitch": 77, "duration": 12, "velocity": 104}, {"time": 2872, "pitch": 75, "duration": 7, "velocity": 63}, {"time": 2878, "pitch": 72, "duration": 6, "velocity": 67}, {"time": 2884, "pitch": 75, "duration": 12, "velocity": 98}, {"time": 2896, "pitch": 70, "duration": 30, "velocity": 79}, {"time": 2926, "pitch": 70, "duration": 6, "velocity": 72}, {"time": 2932, "pitch": 72, "duration": 12, "velocity": 90}, {"time": 2944, "pitch": 72, "duration": 6, "velocity": 77}, {"time": 2950, "pitch": 75, "duration": 6, "velocity": 86}, {"time": 2956, "pitch": 70, "duration": 6, "velocity": 72}, {"time": 2962, "pitch": 70, "duration": 12, "velocity": 75}, {"time": 2974, "pitch": 72, "duration": 6, "velocity": 67}, {"time": 2980, "pitch": 68, "duration": 12, "velocity": 61}, {"time": 2992, "pitch": 65, "duration": 30, "velocity": 76}, {"time": 2992, "pitch": 65, "duration": 30, "velocity": 83}, {"time": 3022, "pitch": 60, "duration": 7, "velocity": 61}, {"time": 3028, "pitch": 65, "duration": 6, "velocity": 68}, {"time": 3034, "pitch": 65, "duration": 6, "velocity": 74}, {"time": 3040, "pitch": 65, "duration": 6, "velocity": 65}, {"time": 3046, "pitch": 68, "duration": 6, "velocity": 73}, {"time": 3052, "pitch": 65, "duration": 12, "velocity": 85}, {"time": 3064, "pitch": 65, "duration": 6, "velocity": 79}, {"time": 3070, "pitch": 63, "duration": 6, "velocity": 72}, {"time": 3076, "pitch": 65, "duration": 12, "velocity": 77}, {"time": 3088, "pitch": 65, "duration": 30, "velocity": 93}, {"time": 3118, "pitch": 65, "duration": 7, "velocity": 64}, {"time": 3124, "pitch": 70, "duration": 6, "velocity": 81}, {"time": 3130, "pitch": 70, "duration": 6, "velocity": 76}, {"time": 3136, "pitch": 70, "duration": 6, "velocity": 76}, {"time": 3142, "pitch": 72, "duration": 6, "velocity": 87}, {"time": 3148, "pitch": 70, "duration": 12, "velocity": 98}, {"time": 3160, "pitch": 68, "duration": 6, "velocity": 74}, {"time": 3166, "pitch": 70, "duration": 6, "velocity": 76}, {"time": 3172, "pitch": 72, "duration": 12, "velocity": 77}, {"time": 3184, "pitch": 72, "duration": 30, "velocity": 90}, {"time": 3214, "pitch": 72, "duration": 6, "velocity": 71}, {"time": 3220, "pitch": 77, "duration": 6, "velocity": 76}, {"time": 3226, "pitch": 77, "duration": 6, "velocity": 76}, {"time": 3232, "pitch": 77, "duration": 6, "velocity": 85}, {"time": 3238, "pitch": 77, "duration": 6, "velocity": 75}, {"time": 3244, "pitch": 77, "duration": 12, "velocity": 104}, {"time": 3256, "pitch": 75, "duration": 7, "velocity": 63}, {"time": 3262, "pitch": 72, "duration": 6, "velocity": 67}, {"time": 3268, "pitch": 75, "duration": 12, "velocity": 98}, {"time": 3280, "pitch": 70, "duration": 30, "velocity": 79}, {"time": 3310, "pitch": 70, "duration": 6, "velocity": 72}, {"time": 3316, "pitch": 72, "duration": 12, "velocity": 90}, {"time": 3328, "pitch": 72, "duration": 6, "velocity": 77}, {"time": 3334, "pitch": 75, "duration": 6, "velocity": 86}, {"time": 3340, "pitch": 70, "duration": 6, "velocity": 72}, {"time": 3346, "pitch": 70, "duration": 6, "velocity": 75}, {"time": 3352, "pitch": 70, "duration": 6, "velocity": 98}, {"time": 3358, "pitch": 72, "duration": 6, "velocity": 67}, {"time": 3364, "pitch": 68, "duration": 12, "velocity": 61}, {"time": 3376, "pitch": 65, "duration": 78, "velocity": 76}, {"time": 3376, "pitch": 65, "duration": 78, "velocity": 83}, {"time": 3454, "pitch": 72, "duration": 6, "velocity": 72}, {"time": 3460, "pitch": 77, "duration": 6, "velocity": 85}, {"time": 3466, "pitch": 77, "duration": 6, "velocity": 98}, {"time": 3472, "pitch": 77, "duration": 6, "velocity": 93}, {"time": 3478, "pitch": 80, "duration": 6, "velocity": 100}, {"time": 3484, "pitch": 80, "duration": 12, "velocity": 120}, {"time": 3496, "pitch": 75, "duration": 6, "velocity": 95}, {"time": 3502, "pitch": 77, "duration": 12, "velocity": 104}, {"time": 3514, "pitch": 77, "duration": 36, "velocity": 93}, {"time": 3550, "pitch": 72, "duration": 6, "velocity": 86}, {"time": 3556, "pitch": 77, "duration": 6, "velocity": 104}, {"time": 3562, "pitch": 77, "duration": 6, "velocity": 98}, {"time": 3568, "pitch": 77, "duration": 6, "velocity": 90}, {"time": 3574, "pitch": 80, "duration": 6, "velocity": 111}, {"time": 3580, "pitch": 77, "duration": 6, "velocity": 104}, {"time": 3586, "pitch": 75, "duration": 6, "velocity": 104}, {"time": 3592, "pitch": 75, "duration": 6, "velocity": 104}, {"time": 3598, "pitch": 72, "duration": 6, "velocity": 85}, {"time": 3604, "pitch": 72, "duration": 12, "velocity": 111}, {"time": 3616, "pitch": 70, "duration": 36, "velocity": 75}, {"time": 3652, "pitch": 72, "duration": 6, "velocity": 108}, {"time": 3658, "pitch": 75, "duration": 6, "velocity": 104}, {"time": 3664, "pitch": 75, "duration": 6, "velocity": 108}, {"time": 3670, "pitch": 77, "duration": 6, "velocity": 100}, {"time": 3676, "pitch": 72, "duration": 12, "velocity": 100}, {"time": 3688, "pitch": 70, "duration": 6, "velocity": 104}, {"time": 3694, "pitch": 72, "duration": 6, "velocity": 98}, {"time": 3700, "pitch": 68, "duration": 12, "velocity": 85}, {"time": 3712, "pitch": 72, "duration": 36, "velocity": 111}, {"time": 3748, "pitch": 72, "duration": 6, "velocity": 90}, {"time": 3754, "pitch": 72, "duration": 6, "velocity": 77}, {"time": 3760, "pitch": 72, "duration": 6, "velocity": 79}, {"time": 3766, "pitch": 75, "duration": 6, "velocity": 112}, {"time": 3772, "pitch": 70, "duration": 6, "velocity": 93}, {"time": 3778, "pitch": 70, "duration": 12, "velocity": 79}, {"time": 3790, "pitch": 72, "duration": 6, "velocity": 79}, {"time": 3796, "pitch": 68, "duration": 12, "velocity": 85}, {"time": 3808, "pitch": 65, "duration": 30, "velocity": 90}, {"time": 3838, "pitch": 72, "duration": 6, "velocity": 72}, {"time": 3844, "pitch": 77, "duration": 6, "velocity": 85}, {"time": 3850, "pitch": 77, "duration": 6, "velocity": 98}, {"time": 3856, "pitch": 77, "duration": 6, "velocity": 93}, {"time": 3862, "pitch": 80, "duration": 6, "velocity": 100}, {"time": 3868, "pitch": 80, "duration": 12, "velocity": 120}, {"time": 3880, "pitch": 75, "duration": 6, "velocity": 95}, {"time": 3886, "pitch": 77, "duration": 12, "velocity": 104}, {"time": 3898, "pitch": 77, "duration": 36, "velocity": 93}, {"time": 3934, "pitch": 72, "duration": 6, "velocity": 86}, {"time": 3940, "pitch": 77, "duration": 6, "velocity": 104}, {"time": 3946, "pitch": 77, "duration": 6, "velocity": 98}, {"time": 3952, "pitch": 77, "duration": 6, "velocity": 90}, {"time": 3958, "pitch": 80, "duration": 6, "velocity": 111}, {"time": 3964, "pitch": 80, "duration": 6, "velocity": 104}, {"time": 3970, "pitch": 77, "duration": 6, "velocity": 104}, {"time": 3976, "pitch": 77, "duration": 6, "velocity": 104}, {"time": 3982, "pitch": 75, "duration": 6, "velocity": 77}, {"time": 3988, "pitch": 75, "duration": 12, "velocity": 108}, {"time": 4000, "pitch": 72, "duration": 36, "velocity": 98}, {"time": 4036, "pitch": 72, "duration": 6, "velocity": 108}, {"time": 4042, "pitch": 75, "duration": 6, "velocity": 104}, {"time": 4048, "pitch": 75, "duration": 6, "velocity": 108}, {"time": 4054, "pitch": 77, "duration": 9, "velocity": 100}, {"time": 4063, "pitch": 75, "duration": 9, "velocity": 100}, {"time": 4072, "pitch": 72, "duration": 6, "velocity": 93}, {"time": 4078, "pitch": 68, "duration": 6, "velocity": 71}, {"time": 4084, "pitch": 70, "duration": 12, "velocity": 104}, {"time": 4096, "pitch": 70, "duration": 36, "velocity": 112}, {"time": 4132, "pitch": 72, "duration": 6, "velocity": 112}, {"time": 4138, "pitch": 72, "duration": 12, "velocity": 112}, {"time": 4150, "pitch": 75, "duration": 6, "velocity": 112}, {"time": 4156, "pitch": 70, "duration": 6, "velocity": 93}, {"time": 4162, "pitch": 70, "duration": 12, "velocity": 79}, {"time": 4174, "pitch": 72, "duration": 6, "velocity": 79}, {"time": 4180, "pitch": 68, "duration": 12, "velocity": 85}, {"time": 4192, "pitch": 65, "duration": 30, "velocity": 90}, {"time": 4222, "pitch": 72, "duration": 6, "velocity": 72}, {"time": 4228, "pitch": 77, "duration": 6, "velocity": 85}, {"time": 4234, "pitch": 77, "duration": 6, "velocity": 98}, {"time": 4240, "pitch": 77, "duration": 6, "velocity": 93}, {"time": 4246, "pitch": 80, "duration": 6, "velocity": 100}, {"time": 4252, "pitch": 80, "duration": 12, "velocity": 120}, {"time": 4264, "pitch": 75, "duration": 6, "velocity": 95}, {"time": 4270, "pitch": 77, "duration": 12, "velocity": 104}, {"time": 4282, "pitch": 77, "duration": 36, "velocity": 93}, {"time": 4318, "pitch": 72, "duration": 6, "velocity": 86}, {"time": 4324, "pitch": 77, "duration": 6, "velocity": 104}, {"time": 4330, "pitch": 77, "duration": 6, "velocity": 98}, {"time": 4336, "pitch": 77, "duration": 6, "velocity": 90}, {"time": 4342, "pitch": 80, "duration": 6, "velocity": 111}, {"time": 4348, "pitch": 77, "duration": 6, "velocity": 104}, {"time": 4354, "pitch": 75, "duration": 6, "velocity": 104}, {"time": 4360, "pitch": 75, "duration": 6, "velocity": 104}, {"time": 4366, "pitch": 72, "duration": 6, "velocity": 85}, {"time": 4372, "pitch": 72, "duration": 12, "velocity": 111}, {"time": 4384, "pitch": 70, "duration": 36, "velocity": 75}, {"time": 4420, "pitch": 72, "duration": 6, "velocity": 108}, {"time": 4426, "pitch": 75, "duration": 6, "velocity": 104}, {"time": 4432, "pitch": 75, "duration": 6, "velocity": 108}, {"time": 4438, "pitch": 77, "duration": 6, "velocity": 100}, {"time": 4444, "pitch": 72, "duration": 12, "velocity": 100}, {"time": 4456, "pitch": 70, "duration": 6, "velocity": 104}, {"time": 4462, "pitch": 72, "duration": 6, "velocity": 98}, {"time": 4468, "pitch": 68, "duration": 12, "velocity": 85}, {"time": 4480, "pitch": 72, "duration": 36, "velocity": 111}, {"time": 4516, "pitch": 72, "duration": 6, "velocity": 90}, {"time": 4522, "pitch": 72, "duration": 6, "velocity": 77}, {"time": 4528, "pitch": 72, "duration": 6, "velocity": 79}, {"time": 4534, "pitch": 75, "duration": 6, "velocity": 112}, {"time": 4540, "pitch": 70, "duration": 6, "velocity": 93}, {"time": 4546, "pitch": 70, "duration": 12, "velocity": 79}, {"time": 4558, "pitch": 72, "duration": 6, "velocity": 79}, {"time": 4564, "pitch": 68, "duration": 12, "velocity": 85}, {"time": 4576, "pitch": 65, "duration": 30, "velocity": 90}, {"time": 4606, "pitch": 72, "duration": 6, "velocity": 72}, {"time": 4612, "pitch": 77, "duration": 6, "velocity": 85}, {"time": 4618, "pitch": 77, "duration": 6, "velocity": 98}, {"time": 4624, "pitch": 77, "duration": 6, "velocity": 93}, {"time": 4630, "pitch": 80, "duration": 6, "velocity": 100}, {"time": 4636, "pitch": 80, "duration": 12, "velocity": 120}, {"time": 4648, "pitch": 75, "duration": 6, "velocity": 95}, {"time": 4654, "pitch": 77, "duration": 12, "velocity": 104}, {"time": 4666, "pitch": 77, "duration": 36, "velocity": 93}, {"time": 4702, "pitch": 72, "duration": 6, "velocity": 86}, {"time": 4708, "pitch": 77, "duration": 6, "velocity": 104}, {"time": 4714, "pitch": 77, "duration": 6, "velocity": 98}, {"time": 4720, "pitch": 77, "duration": 6, "velocity": 90}, {"time": 4726, "pitch": 80, "duration": 6, "velocity": 111}, {"time": 4732, "pitch": 80, "duration": 6, "velocity": 104}, {"time": 4738, "pitch": 77, "duration": 6, "velocity": 104}, {"time": 4744, "pitch": 77, "duration": 6, "velocity": 104}, {"time": 4750, "pitch": 75, "duration": 6, "velocity": 77}, {"time": 4756, "pitch": 75, "duration": 12, "velocity": 108}, {"time": 4768, "pitch": 72, "duration": 36, "velocity": 98}, {"time": 4804, "pitch": 72, "duration": 6, "velocity": 108}, {"time": 4810, "pitch": 75, "duration": 6, "velocity": 104}, {"time": 4816, "pitch": 75, "duration": 6, "velocity": 108}, {"time": 4822, "pitch": 77, "duration": 9, "velocity": 100}, {"time": 4831, "pitch": 75, "duration": 9, "velocity": 100}, {"time": 4840, "pitch": 72, "duration": 6, "velocity": 93}, {"time": 4846, "pitch": 68, "duration": 6, "velocity": 71}, {"time": 4852, "pitch": 70, "duration": 12, "velocity": 104}, {"time": 4864, "pitch": 70, "duration": 36, "velocity": 112}, {"time": 4900, "pitch": 72, "duration": 6, "velocity": 112}, {"time": 4906, "pitch": 72, "duration": 12, "velocity": 112}, {"time": 4918, "pitch": 75, "duration": 6, "velocity": 112}, {"time": 4924, "pitch": 70, "duration": 6, "velocity": 93}, {"time": 4930, "pitch": 70, "duration": 12, "velocity": 79}, {"time": 4942, "pitch": 72, "duration": 6, "velocity": 79}, {"time": 4948, "pitch": 68, "duration": 12, "velocity": 85}, {"time": 4960, "pitch": 65, "duration": 32, "velocity": 90}]}, {"program": 0, "is_drum": false, "name": "BRIDGE", "notes": [{"time": 46, "pitch": 60, "duration": 7, "velocity": 67}, {"time": 52, "pitch": 65, "duration": 6, "velocity": 65}, {"time": 58, "pitch": 65, "duration": 6, "velocity": 73}, {"time": 64, "pitch": 65, "duration": 6, "velocity": 73}, {"time": 70, "pitch": 68, "duration": 6, "velocity": 71}, {"time": 76, "pitch": 68, "duration": 6, "velocity": 73}, {"time": 82, "pitch": 65, "duration": 6, "velocity": 76}, {"time": 88, "pitch": 65, "duration": 6, "velocity": 81}, {"time": 94, "pitch": 63, "duration": 6, "velocity": 77}, {"time": 100, "pitch": 65, "duration": 12, "velocity": 81}, {"time": 112, "pitch": 65, "duration": 30, "velocity": 104}, {"time": 142, "pitch": 60, "duration": 6, "velocity": 65}, {"time": 148, "pitch": 65, "duration": 6, "velocity": 75}, {"time": 154, "pitch": 65, "duration": 3, "velocity": 73}, {"time": 157, "pitch": 65, "duration": 3, "velocity": 74}, {"time": 160, "pitch": 65, "duration": 6, "velocity": 77}, {"time": 166, "pitch": 68, "duration": 6, "velocity": 81}, {"time": 172, "pitch": 68, "duration": 6, "velocity": 77}, {"time": 178, "pitch": 65, "duration": 6, "velocity": 72}, {"time": 184, "pitch": 65, "duration": 6, "velocity": 70}, {"time": 190, "pitch": 63, "duration": 6, "velocity": 74}, {"time": 196, "pitch": 63, "duration": 12, "velocity": 81}, {"time": 208, "pitch": 60, "duration": 36, "velocity": 77}, {"time": 244, "pitch": 60, "duration": 7, "velocity": 77}, {"time": 250, "pitch": 63, "duration": 6, "velocity": 74}, {"time": 256, "pitch": 63, "duration": 6, "velocity": 87}, {"time": 262, "pitch": 65, "duration": 6, "velocity": 95}, {"time": 268, "pitch": 65, "duration": 6, "velocity": 104}, {"time": 274, "pitch": 63, "duration": 6, "velocity": 87}, {"time": 280, "pitch": 60, "duration": 7, "velocity": 90}, {"time": 287, "pitch": 56, "duration": 5, "velocity": 69}, {"time": 292, "pitch": 60, "duration": 12, "velocity": 75}, {"time": 304, "pitch": 58, "duration": 36, "velocity": 100}, {"time": 340, "pitch": 60, "duration": 6, "velocity": 70}, {"time": 346, "pitch": 60, "duration": 3, "velocity": 74}, {"time": 349, "pitch": 60, "duration": 3, "velocity": 54}, {"time": 352, "pitch": 60, "duration": 6, "velocity": 65}, {"time": 358, "pitch": 63, "duration": 6, "velocity": 85}, {"time": 364, "pitch": 60, "duration": 12, "velocity": 79}, {"time": 376, "pitch": 58, "duration": 6, "velocity": 74}, {"time": 382, "pitch": 60, "duration": 6, "velocity": 72}, {"time": 388, "pitch": 56, "duration": 12, "velocity": 74}, {"time": 400, "pitch": 53, "duration": 41, "velocity": 70}, {"time": 490, "pitch": 67, "duration": 8, "velocity": 66}, {"time": 496, "pitch": 68, "duration": 9, "velocity": 69}, {"time": 502, "pitch": 75, "duration": 4, "velocity": 58}, {"time": 508, "pitch": 67, "duration": 10, "velocity": 70}, {"time": 514, "pitch": 68, "duration": 9, "velocity": 49}, {"time": 520, "pitch": 75, "duration": 11, "velocity": 79}, {"time": 772, "pitch": 65, "duration": 14, "velocity": 67}, {"time": 778, "pitch": 67, "duration": 11, "velocity": 61}, {"time": 784, "pitch": 68, "duration": 13, "velocity": 65}, {"time": 790, "pitch": 65, "duration": 14, "velocity": 60}, {"time": 790, "pitch": 75, "duration": 4, "velocity": 63}, {"time": 796, "pitch": 67, "duration": 12, "velocity": 67}, {"time": 802, "pitch": 68, "duration": 7, "velocity": 67}, {"time": 808, "pitch": 75, "duration": 14, "velocity": 93}, {"time": 1156, "pitch": 68, "duration": 6, "velocity": 69}, {"time": 1162, "pitch": 67, "duration": 8, "velocity": 63}, {"time": 1168, "pitch": 68, "duration": 8, "velocity": 69}, {"time": 1174, "pitch": 75, "duration": 8, "velocity": 60}, {"time": 1180, "pitch": 67, "duration": 7, "velocity": 60}, {"time": 1186, "pitch": 68, "duration": 8, "velocity": 63}, {"time": 1192, "pitch": 75, "duration": 17, "velocity": 86}, {"time": 1198, "pitch": 70, "duration": 2, "velocity": 64}, {"time": 1204, "pitch": 72, "duration": 33, "velocity": 85}, {"time": 2032, "pitch": 53, "duration": 3, "velocity": 60}, {"time": 2035, "pitch": 53, "duration": 6, "velocity": 64}, {"time": 2041, "pitch": 55, "duration": 3, "velocity": 65}, {"time": 2044, "pitch": 56, "duration": 6, "velocity": 63}, {"time": 2050, "pitch": 60, "duration": 6, "velocity": 76}, {"time": 2056, "pitch": 63, "duration": 5, "velocity": 64}, {"time": 2059, "pitch": 61, "duration": 6, "velocity": 69}, {"time": 2065, "pitch": 60, "duration": 8, "velocity": 75}, {"time": 2068, "pitch": 56, "duration": 3, "velocity": 76}, {"time": 2071, "pitch": 55, "duration": 3, "velocity": 61}, {"time": 2074, "pitch": 55, "duration": 25, "velocity": 71}, {"time": 2083, "pitch": 51, "duration": 3, "velocity": 58}, {"time": 2086, "pitch": 51, "duration": 6, "velocity": 62}, {"time": 2092, "pitch": 51, "duration": 7, "velocity": 73}, {"time": 2098, "pitch": 53, "duration": 3, "velocity": 60}, {"time": 2101, "pitch": 53, "duration": 1, "velocity": 67}, {"time": 2107, "pitch": 53, "duration": 21, "velocity": 74}, {"time": 2128, "pitch": 51, "duration": 3, "velocity": 60}, {"time": 2131, "pitch": 51, "duration": 3, "velocity": 63}, {"time": 2134, "pitch": 51, "duration": 6, "velocity": 65}, {"time": 2140, "pitch": 55, "duration": 7, "velocity": 60}, {"time": 2143, "pitch": 58, "duration": 6, "velocity": 64}, {"time": 2149, "pitch": 61, "duration": 6, "velocity": 63}, {"time": 2155, "pitch": 60, "duration": 6, "velocity": 71}, {"time": 2158, "pitch": 58, "duration": 6, "velocity": 67}, {"time": 2164, "pitch": 56, "duration": 5, "velocity": 68}, {"time": 2167, "pitch": 58, "duration": 4, "velocity": 59}, {"time": 2170, "pitch": 60, "duration": 6, "velocity": 64}, {"time": 2176, "pitch": 60, "duration": 3, "velocity": 73}, {"time": 2179, "pitch": 60, "duration": 3, "velocity": 64}, {"time": 2182, "pitch": 60, "duration": 3, "velocity": 73}, {"time": 2185, "pitch": 58, "duration": 6, "velocity": 62}, {"time": 2191, "pitch": 58, "duration": 3, "velocity": 64}, {"time": 2194, "pitch": 58, "duration": 6, "velocity": 69}, {"time": 2200, "pitch": 60, "duration": 18, "velocity": 70}, {"time": 2218, "pitch": 60, "duration": 3, "velocity": 53}, {"time": 2221, "pitch": 60, "duration": 3, "velocity": 58}, {"time": 2224, "pitch": 60, "duration": 3, "velocity": 63}, {"time": 2227, "pitch": 68, "duration": 3, "velocity": 72}, {"time": 2230, "pitch": 67, "duration": 3, "velocity": 72}, {"time": 2233, "pitch": 65, "duration": 3, "velocity": 58}, {"time": 2236, "pitch": 67, "duration": 6, "velocity": 100}, {"time": 2242, "pitch": 68, "duration": 12, "velocity": 77}, {"time": 2254, "pitch": 68, "duration": 12, "velocity": 83}, {"time": 2266, "pitch": 60, "duration": 3, "velocity": 62}, {"time": 2269, "pitch": 60, "duration": 3, "velocity": 67}, {"time": 2272, "pitch": 60, "duration": 3, "velocity": 66}, {"time": 2275, "pitch": 68, "duration": 3, "velocity": 74}, {"time": 2278, "pitch": 67, "duration": 4, "velocity": 74}, {"time": 2281, "pitch": 65, "duration": 3, "velocity": 59}, {"time": 2284, "pitch": 67, "duration": 8, "velocity": 69}, {"time": 2290, "pitch": 68, "duration": 12, "velocity": 86}, {"time": 2302, "pitch": 72, "duration": 12, "velocity": 62}, {"time": 2314, "pitch": 72, "duration": 3, "velocity": 76}, {"time": 2317, "pitch": 72, "duration": 3, "velocity": 74}, {"time": 2320, "pitch": 72, "duration": 3, "velocity": 76}, {"time": 2323, "pitch": 70, "duration": 3, "velocity": 72}, {"time": 2326, "pitch": 70, "duration": 3, "velocity": 76}, {"time": 2329, "pitch": 70, "duration": 3, "velocity": 73}, {"time": 2332, "pitch": 70, "duration": 3, "velocity": 87}, {"time": 2335, "pitch": 68, "duration": 3, "velocity": 65}, {"time": 2338, "pitch": 68, "duration": 3, "velocity": 68}, {"time": 2341, "pitch": 68, "duration": 3, "velocity": 63}, {"time": 2344, "pitch": 68, "duration": 6, "velocity": 74}, {"time": 2350, "pitch": 67, "duration": 6, "velocity": 68}, {"time": 2356, "pitch": 67, "duration": 4, "velocity": 74}, {"time": 2359, "pitch": 68, "duration": 3, "velocity": 66}, {"time": 2362, "pitch": 70, "duration": 5, "velocity": 85}, {"time": 2365, "pitch": 68, "duration": 4, "velocity": 57}, {"time": 2368, "pitch": 67, "duration": 6, "velocity": 76}, {"time": 2374, "pitch": 65, "duration": 6, "velocity": 79}, {"time": 2380, "pitch": 70, "duration": 3, "velocity": 90}, {"time": 2383, "pitch": 67, "duration": 3, "velocity": 70}, {"time": 2386, "pitch": 68, "duration": 4, "velocity": 83}, {"time": 2389, "pitch": 65, "duration": 4, "velocity": 83}, {"time": 2392, "pitch": 67, "duration": 8, "velocity": 83}, {"time": 2395, "pitch": 63, "duration": 3, "velocity": 77}, {"time": 2398, "pitch": 63, "duration": 3, "velocity": 81}, {"time": 2401, "pitch": 60, "duration": 3, "velocity": 65}, {"time": 2404, "pitch": 60, "duration": 8, "velocity": 90}, {"time": 2410, "pitch": 56, "duration": 4, "velocity": 60}, {"time": 2413, "pitch": 58, "duration": 6, "velocity": 65}, {"time": 2419, "pitch": 61, "duration": 3, "velocity": 65}, {"time": 2422, "pitch": 65, "duration": 4, "velocity": 70}, {"time": 2425, "pitch": 63, "duration": 3, "velocity": 70}, {"time": 2428, "pitch": 61, "duration": 3, "velocity": 85}, {"time": 2431, "pitch": 61, "duration": 4, "velocity": 76}, {"time": 2434, "pitch": 60, "duration": 4, "velocity": 60}, {"time": 2437, "pitch": 61, "duration": 3, "velocity": 86}, {"time": 2440, "pitch": 63, "duration": 4, "velocity": 85}, {"time": 2443, "pitch": 67, "duration": 6, "velocity": 74}, {"time": 2449, "pitch": 68, "duration": 3, "velocity": 74}, {"time": 2452, "pitch": 68, "duration": 3, "velocity": 74}, {"time": 2455, "pitch": 67, "duration": 3, "velocity": 67}, {"time": 2458, "pitch": 63, "duration": 4, "velocity": 72}, {"time": 2461, "pitch": 67, "duration": 9, "velocity": 76}, {"time": 2470, "pitch": 68, "duration": 3, "velocity": 74}, {"time": 2473, "pitch": 68, "duration": 3, "velocity": 72}, {"time": 2476, "pitch": 68, "duration": 4, "velocity": 75}, {"time": 2479, "pitch": 63, "duration": 6, "velocity": 74}, {"time": 2479, "pitch": 67, "duration": 6, "velocity": 64}, {"time": 2485, "pitch": 67, "duration": 13, "velocity": 77}, {"time": 2494, "pitch": 72, "duration": 12, "velocity": 83}, {"time": 2506, "pitch": 75, "duration": 3, "velocity": 104}, {"time": 2509, "pitch": 75, "duration": 3, "velocity": 95}, {"time": 2512, "pitch": 75, "duration": 3, "velocity": 93}, {"time": 2515, "pitch": 72, "duration": 3, "velocity": 75}, {"time": 2518, "pitch": 72, "duration": 3, "velocity": 81}, {"time": 2521, "pitch": 72, "duration": 6, "velocity": 86}, {"time": 2527, "pitch": 68, "duration": 3, "velocity": 77}, {"time": 2530, "pitch": 68, "duration": 9, "velocity": 76}, {"time": 2539, "pitch": 65, "duration": 3, "velocity": 81}, {"time": 2542, "pitch": 65, "duration": 12, "velocity": 76}, {"time": 2554, "pitch": 72, "duration": 4, "velocity": 77}, {"time": 2557, "pitch": 73, "duration": 3, "velocity": 83}, {"time": 2560, "pitch": 75, "duration": 6, "velocity": 112}, {"time": 2566, "pitch": 73, "duration": 3, "velocity": 76}, {"time": 2569, "pitch": 72, "duration": 9, "velocity": 98}, {"time": 2578, "pitch": 70, "duration": 4, "velocity": 70}, {"time": 2581, "pitch": 68, "duration": 3, "velocity": 69}, {"time": 2584, "pitch": 67, "duration": 6, "velocity": 87}, {"time": 2590, "pitch": 63, "duration": 4, "velocity": 74}, {"time": 2593, "pitch": 68, "duration": 3, "velocity": 63}, {"time": 2596, "pitch": 75, "duration": 44, "velocity": 104}, {"time": 4942, "pitch": 60, "duration": 7, "velocity": 67}, {"time": 4948, "pitch": 65, "duration": 3, "velocity": 65}, {"time": 4954, "pitch": 65, "duration": 2, "velocity": 73}, {"time": 4960, "pitch": 65, "duration": 2, "velocity": 73}, {"time": 4966, "pitch": 68, "duration": 3, "velocity": 71}, {"time": 4972, "pitch": 68, "duration": 3, "velocity": 73}, {"time": 4978, "pitch": 65, "duration": 3, "velocity": 76}, {"time": 4984, "pitch": 65, "duration": 3, "velocity": 81}, {"time": 4990, "pitch": 63, "duration": 3, "velocity": 77}, {"time": 4996, "pitch": 65, "duration": 8, "velocity": 81}, {"time": 5008, "pitch": 65, "duration": 20, "velocity": 104}, {"time": 5038, "pitch": 60, "duration": 6, "velocity": 65}, {"time": 5044, "pitch": 65, "duration": 4, "velocity": 75}, {"time": 5050, "pitch": 65, "duration": 2, "velocity": 73}, {"time": 5053, "pitch": 65, "duration": 1, "velocity": 74}, {"time": 5056, "pitch": 65, "duration": 2, "velocity": 77}, {"time": 5062, "pitch": 68, "duration": 2, "velocity": 81}, {"time": 5068, "pitch": 68, "duration": 3, "velocity": 77}, {"time": 5074, "pitch": 65, "duration": 3, "velocity": 72}, {"time": 5080, "pitch": 65, "duration": 5, "velocity": 70}, {"time": 5086, "pitch": 63, "duration": 4, "velocity": 74}, {"time": 5092, "pitch": 63, "duration": 8, "velocity": 81}, {"time": 5104, "pitch": 60, "duration": 9, "velocity": 77}, {"time": 5140, "pitch": 60, "duration": 7, "velocity": 77}, {"time": 5146, "pitch": 63, "duration": 3, "velocity": 74}, {"time": 5152, "pitch": 63, "duration": 4, "velocity": 87}, {"time": 5158, "pitch": 65, "duration": 2, "velocity": 95}, {"time": 5164, "pitch": 65, "duration": 3, "velocity": 104}, {"time": 5170, "pitch": 63, "duration": 2, "velocity": 87}, {"time": 5176, "pitch": 60, "duration": 4, "velocity": 90}, {"time": 5183, "pitch": 56, "duration": 4, "velocity": 69}, {"time": 5188, "pitch": 60, "duration": 9, "velocity": 75}, {"time": 5200, "pitch": 58, "duration": 12, "velocity": 100}, {"time": 5236, "pitch": 60, "duration": 3, "velocity": 70}, {"time": 5242, "pitch": 60, "duration": 2, "velocity": 74}, {"time": 5245, "pitch": 60, "duration": 1, "velocity": 54}, {"time": 5248, "pitch": 60, "duration": 2, "velocity": 65}, {"time": 5254, "pitch": 63, "duration": 6, "velocity": 85}, {"time": 5260, "pitch": 60, "duration": 4, "velocity": 79}, {"time": 5272, "pitch": 58, "duration": 6, "velocity": 74}, {"time": 5278, "pitch": 60, "duration": 5, "velocity": 72}, {"time": 5284, "pitch": 56, "duration": 11, "velocity": 74}, {"time": 5296, "pitch": 53, "duration": 38, "velocity": 70}]}, {"program": 0, "is_drum": false, "name": "PIANO", "notes": [{"time": 4, "pitch": 41, "duration": 44, "velocity": 67}, {"time": 4, "pitch": 53, "duration": 47, "velocity": 64}, {"time": 4, "pitch": 56, "duration": 46, "velocity": 74}, {"time": 4, "pitch": 60, "duration": 45, "velocity": 73}, {"time": 52, "pitch": 41, "duration": 88, "velocity": 75}, {"time": 52, "pitch": 56, "duration": 15, "velocity": 67}, {"time": 52, "pitch": 60, "duration": 16, "velocity": 66}, {"time": 52, "pitch": 65, "duration": 16, "velocity": 76}, {"time": 58, "pitch": 48, "duration": 33, "velocity": 70}, {"time": 64, "pitch": 53, "duration": 8, "velocity": 58}, {"time": 70, "pitch": 56, "duration": 28, "velocity": 79}, {"time": 70, "pitch": 60, "duration": 28, "velocity": 90}, {"time": 70, "pitch": 65, "duration": 28, "velocity": 81}, {"time": 82, "pitch": 53, "duration": 8, "velocity": 57}, {"time": 94, "pitch": 48, "duration": 9, "velocity": 87}, {"time": 100, "pitch": 56, "duration": 15, "velocity": 79}, {"time": 100, "pitch": 60, "duration": 14, "velocity": 93}, {"time": 100, "pitch": 65, "duration": 15, "velocity": 95}, {"time": 106, "pitch": 48, "duration": 33, "velocity": 73}, {"time": 112, "pitch": 53, "duration": 11, "velocity": 62}, {"time": 118, "pitch": 56, "duration": 15, "velocity": 75}, {"time": 118, "pitch": 60, "duration": 15, "velocity": 85}, {"time": 118, "pitch": 65, "duration": 15, "velocity": 79}, {"time": 130, "pitch": 53, "duration": 7, "velocity": 60}, {"time": 136, "pitch": 56, "duration": 5, "velocity": 63}, {"time": 136, "pitch": 60, "duration": 5, "velocity": 72}, {"time": 136, "pitch": 65, "duration": 5, "velocity": 60}, {"time": 148, "pitch": 37, "duration": 37, "velocity": 76}, {"time": 148, "pitch": 53, "duration": 15, "velocity": 65}, {"time": 148, "pitch": 56, "duration": 15, "velocity": 72}, {"time": 148, "pitch": 61, "duration": 15, "velocity": 83}, {"time": 154, "pitch": 44, "duration": 32, "velocity": 73}, {"time": 160, "pitch": 49, "duration": 14, "velocity": 59}, {"time": 166, "pitch": 53, "duration": 16, "velocity": 76}, {"time": 166, "pitch": 56, "duration": 16, "velocity": 90}, {"time": 166, "pitch": 61, "duration": 16, "velocity": 95}, {"time": 178, "pitch": 49, "duration": 18, "velocity": 63}, {"time": 184, "pitch": 53, "duration": 5, "velocity": 79}, {"time": 184, "pitch": 56, "duration": 5, "velocity": 85}, {"time": 184, "pitch": 61, "duration": 5, "velocity": 90}, {"time": 196, "pitch": 44, "duration": 47, "velocity": 90}, {"time": 196, "pitch": 60, "duration": 14, "velocity": 72}, {"time": 196, "pitch": 63, "duration": 14, "velocity": 75}, {"time": 196, "pitch": 68, "duration": 14, "velocity": 74}, {"time": 202, "pitch": 51, "duration": 42, "velocity": 63}, {"time": 205, "pitch": 56, "duration": 15, "velocity": 59}, {"time": 214, "pitch": 60, "duration": 17, "velocity": 83}, {"time": 214, "pitch": 63, "duration": 17, "velocity": 86}, {"time": 214, "pitch": 68, "duration": 17, "velocity": 83}, {"time": 226, "pitch": 56, "duration": 16, "velocity": 58}, {"time": 232, "pitch": 60, "duration": 10, "velocity": 73}, {"time": 232, "pitch": 63, "duration": 10, "velocity": 81}, {"time": 232, "pitch": 68, "duration": 10, "velocity": 77}, {"time": 244, "pitch": 36, "duration": 43, "velocity": 70}, {"time": 244, "pitch": 51, "duration": 15, "velocity": 60}, {"time": 244, "pitch": 55, "duration": 15, "velocity": 69}, {"time": 244, "pitch": 60, "duration": 15, "velocity": 77}, {"time": 250, "pitch": 43, "duration": 36, "velocity": 58}, {"time": 256, "pitch": 48, "duration": 13, "velocity": 59}, {"time": 262, "pitch": 51, "duration": 16, "velocity": 67}, {"time": 262, "pitch": 55, "duration": 16, "velocity": 75}, {"time": 262, "pitch": 60, "duration": 16, "velocity": 74}, {"time": 274, "pitch": 48, "duration": 12, "velocity": 57}, {"time": 280, "pitch": 51, "duration": 8, "velocity": 76}, {"time": 280, "pitch": 55, "duration": 8, "velocity": 75}, {"time": 280, "pitch": 60, "duration": 7, "velocity": 79}, {"time": 292, "pitch": 46, "duration": 38, "velocity": 74}, {"time": 292, "pitch": 61, "duration": 14, "velocity": 67}, {"time": 292, "pitch": 65, "duration": 14, "velocity": 74}, {"time": 298, "pitch": 53, "duration": 32, "velocity": 58}, {"time": 304, "pitch": 58, "duration": 9, "velocity": 50}, {"time": 310, "pitch": 61, "duration": 16, "velocity": 86}, {"time": 310, "pitch": 65, "duration": 16, "velocity": 76}, {"time": 322, "pitch": 58, "duration": 6, "velocity": 64}, {"time": 328, "pitch": 61, "duration": 11, "velocity": 86}, {"time": 328, "pitch": 65, "duration": 11, "velocity": 81}, {"time": 340, "pitch": 36, "duration": 36, "velocity": 63}, {"time": 340, "pitch": 51, "duration": 14, "velocity": 70}, {"time": 340, "pitch": 55, "duration": 14, "velocity": 79}, {"time": 340, "pitch": 60, "duration": 14, "velocity": 85}, {"time": 346, "pitch": 43, "duration": 30, "velocity": 14}, {"time": 352, "pitch": 48, "duration": 11, "velocity": 63}, {"time": 358, "pitch": 51, "duration": 15, "velocity": 74}, {"time": 358, "pitch": 55, "duration": 15, "velocity": 81}, {"time": 358, "pitch": 60, "duration": 15, "velocity": 85}, {"time": 370, "pitch": 48, "duration": 11, "velocity": 58}, {"time": 376, "pitch": 51, "duration": 5, "velocity": 74}, {"time": 376, "pitch": 55, "duration": 5, "velocity": 77}, {"time": 376, "pitch": 60, "duration": 5, "velocity": 85}, {"time": 388, "pitch": 41, "duration": 13, "velocity": 74}, {"time": 388, "pitch": 56, "duration": 14, "velocity": 65}, {"time": 388, "pitch": 60, "duration": 13, "velocity": 74}, {"time": 406, "pitch": 41, "duration": 29, "velocity": 74}, {"time": 406, "pitch": 56, "duration": 29, "velocity": 74}, {"time": 406, "pitch": 60, "duration": 29, "velocity": 86}, {"time": 406, "pitch": 65, "duration": 29, "velocity": 93}, {"time": 436, "pitch": 41, "duration": 91, "velocity": 85}, {"time": 436, "pitch": 56, "duration": 17, "velocity": 73}, {"time": 436, "pitch": 60, "duration": 17, "velocity": 79}, {"time": 436, "pitch": 65, "duration": 17, "velocity": 79}, {"time": 448, "pitch": 48, "duration": 77, "velocity": 60}, {"time": 454, "pitch": 65, "duration": 30, "velocity": 73}, {"time": 454, "pitch": 56, "duration": 34, "velocity": 71}, {"time": 454, "pitch": 60, "duration": 36, "velocity": 85}, {"time": 478, "pitch": 53, "duration": 2, "velocity": 44}, {"time": 484, "pitch": 53, "duration": 23, "velocity": 63}, {"time": 484, "pitch": 65, "duration": 12, "velocity": 50}, {"time": 490, "pitch": 56, "duration": 3, "velocity": 60}, {"time": 490, "pitch": 67, "duration": 8, "velocity": 66}, {"time": 496, "pitch": 56, "duration": 36, "velocity": 66}, {"time": 496, "pitch": 68, "duration": 9, "velocity": 69}, {"time": 502, "pitch": 60, "duration": 16, "velocity": 85}, {"time": 502, "pitch": 75, "duration": 4, "velocity": 58}, {"time": 508, "pitch": 67, "duration": 10, "velocity": 70}, {"time": 514, "pitch": 53, "duration": 9, "velocity": 61}, {"time": 514, "pitch": 68, "duration": 9, "velocity": 49}, {"time": 520, "pitch": 65, "duration": 13, "velocity": 87}, {"time": 520, "pitch": 75, "duration": 11, "velocity": 79}, {"time": 526, "pitch": 60, "duration": 7, "velocity": 56}, {"time": 532, "pitch": 34, "duration": 57, "velocity": 74}, {"time": 538, "pitch": 41, "duration": 51, "velocity": 57}, {"time": 544, "pitch": 49, "duration": 45, "velocity": 65}, {"time": 550, "pitch": 53, "duration": 40, "velocity": 70}, {"time": 562, "pitch": 46, "duration": 9, "velocity": 58}, {"time": 565, "pitch": 58, "duration": 23, "velocity": 76}, {"time": 574, "pitch": 46, "duration": 14, "velocity": 60}, {"time": 580, "pitch": 36, "duration": 36, "velocity": 74}, {"time": 586, "pitch": 43, "duration": 30, "velocity": 64}, {"time": 592, "pitch": 48, "duration": 13, "velocity": 62}, {"time": 598, "pitch": 51, "duration": 30, "velocity": 63}, {"time": 598, "pitch": 67, "duration": 9, "velocity": 66}, {"time": 604, "pitch": 55, "duration": 23, "velocity": 66}, {"time": 604, "pitch": 68, "duration": 7, "velocity": 74}, {"time": 610, "pitch": 48, "duration": 8, "velocity": 60}, {"time": 610, "pitch": 75, "duration": 9, "velocity": 68}, {"time": 616, "pitch": 60, "duration": 13, "velocity": 76}, {"time": 616, "pitch": 67, "duration": 7, "velocity": 64}, {"time": 622, "pitch": 68, "duration": 7, "velocity": 70}, {"time": 628, "pitch": 41, "duration": 42, "velocity": 83}, {"time": 634, "pitch": 48, "duration": 37, "velocity": 66}, {"time": 640, "pitch": 53, "duration": 9, "velocity": 58}, {"time": 646, "pitch": 56, "duration": 30, "velocity": 74}, {"time": 658, "pitch": 53, "duration": 14, "velocity": 59}, {"time": 664, "pitch": 60, "duration": 12, "velocity": 61}, {"time": 670, "pitch": 65, "duration": 7, "velocity": 66}, {"time": 676, "pitch": 46, "duration": 42, "velocity": 81}, {"time": 682, "pitch": 53, "duration": 8, "velocity": 60}, {"time": 688, "pitch": 61, "duration": 36, "velocity": 66}, {"time": 700, "pitch": 53, "duration": 16, "velocity": 72}, {"time": 706, "pitch": 58, "duration": 8, "velocity": 60}, {"time": 712, "pitch": 65, "duration": 13, "velocity": 77}, {"time": 724, "pitch": 36, "duration": 35, "velocity": 72}, {"time": 730, "pitch": 43, "duration": 31, "velocity": 64}, {"time": 736, "pitch": 48, "duration": 8, "velocity": 64}, {"time": 742, "pitch": 51, "duration": 30, "velocity": 76}, {"time": 754, "pitch": 48, "duration": 8, "velocity": 58}, {"time": 760, "pitch": 55, "duration": 12, "velocity": 76}, {"time": 766, "pitch": 60, "duration": 6, "velocity": 50}, {"time": 772, "pitch": 41, "duration": 43, "velocity": 63}, {"time": 772, "pitch": 65, "duration": 14, "velocity": 67}, {"time": 778, "pitch": 48, "duration": 34, "velocity": 67}, {"time": 778, "pitch": 67, "duration": 11, "velocity": 61}, {"time": 784, "pitch": 53, "duration": 8, "velocity": 59}, {"time": 784, "pitch": 68, "duration": 13, "velocity": 65}, {"time": 790, "pitch": 56, "duration": 14, "velocity": 64}, {"time": 790, "pitch": 60, "duration": 14, "velocity": 75}, {"time": 790, "pitch": 65, "duration": 14, "velocity": 60}, {"time": 790, "pitch": 75, "duration": 4, "velocity": 63}, {"time": 796, "pitch": 67, "duration": 12, "velocity": 67}, {"time": 802, "pitch": 53, "duration": 9, "velocity": 56}, {"time": 802, "pitch": 68, "duration": 7, "velocity": 67}, {"time": 808, "pitch": 56, "duration": 10, "velocity": 65}, {"time": 808, "pitch": 60, "duration": 10, "velocity": 70}, {"time": 808, "pitch": 75, "duration": 14, "velocity": 93}, {"time": 820, "pitch": 41, "duration": 43, "velocity": 71}, {"time": 820, "pitch": 56, "duration": 14, "velocity": 68}, {"time": 820, "pitch": 60, "duration": 14, "velocity": 76}, {"time": 820, "pitch": 65, "duration": 14, "velocity": 77}, {"time": 826, "pitch": 48, "duration": 39, "velocity": 61}, {"time": 832, "pitch": 53, "duration": 25, "velocity": 58}, {"time": 838, "pitch": 56, "duration": 27, "velocity": 69}, {"time": 838, "pitch": 60, "duration": 27, "velocity": 71}, {"time": 838, "pitch": 65, "duration": 26, "velocity": 74}, {"time": 868, "pitch": 41, "duration": 43, "velocity": 63}, {"time": 868, "pitch": 56, "duration": 16, "velocity": 63}, {"time": 868, "pitch": 60, "duration": 16, "velocity": 68}, {"time": 868, "pitch": 65, "duration": 16, "velocity": 72}, {"time": 874, "pitch": 48, "duration": 36, "velocity": 36}, {"time": 880, "pitch": 53, "duration": 14, "velocity": 53}, {"time": 886, "pitch": 56, "duration": 16, "velocity": 65}, {"time": 886, "pitch": 60, "duration": 8, "velocity": 59}, {"time": 892, "pitch": 63, "duration": 6, "velocity": 63}, {"time": 898, "pitch": 53, "duration": 9, "velocity": 55}, {"time": 898, "pitch": 68, "duration": 14, "velocity": 68}, {"time": 904, "pitch": 56, "duration": 12, "velocity": 77}, {"time": 910, "pitch": 60, "duration": 6, "velocity": 62}, {"time": 916, "pitch": 46, "duration": 43, "velocity": 77}, {"time": 916, "pitch": 61, "duration": 51, "velocity": 79}, {"time": 922, "pitch": 53, "duration": 40, "velocity": 60}, {"time": 928, "pitch": 58, "duration": 11, "velocity": 54}, {"time": 934, "pitch": 65, "duration": 29, "velocity": 57}, {"time": 946, "pitch": 58, "duration": 6, "velocity": 53}, {"time": 952, "pitch": 70, "duration": 7, "velocity": 55}, {"time": 964, "pitch": 48, "duration": 39, "velocity": 71}, {"time": 970, "pitch": 55, "duration": 30, "velocity": 58}, {"time": 976, "pitch": 60, "duration": 11, "velocity": 60}, {"time": 982, "pitch": 63, "duration": 20, "velocity": 76}, {"time": 994, "pitch": 60, "duration": 6, "velocity": 60}, {"time": 1000, "pitch": 65, "duration": 7, "velocity": 79}, {"time": 1006, "pitch": 63, "duration": 8, "velocity": 86}, {"time": 1012, "pitch": 41, "duration": 37, "velocity": 79}, {"time": 1018, "pitch": 48, "duration": 33, "velocity": 71}, {"time": 1024, "pitch": 53, "duration": 9, "velocity": 59}, {"time": 1030, "pitch": 56, "duration": 16, "velocity": 71}, {"time": 1030, "pitch": 60, "duration": 16, "velocity": 79}, {"time": 1042, "pitch": 53, "duration": 12, "velocity": 56}, {"time": 1048, "pitch": 56, "duration": 6, "velocity": 70}, {"time": 1048, "pitch": 60, "duration": 6, "velocity": 81}, {"time": 1048, "pitch": 65, "duration": 6, "velocity": 73}, {"time": 1060, "pitch": 46, "duration": 39, "velocity": 83}, {"time": 1060, "pitch": 61, "duration": 16, "velocity": 95}, {"time": 1060, "pitch": 65, "duration": 12, "velocity": 65}, {"time": 1066, "pitch": 53, "duration": 31, "velocity": 60}, {"time": 1072, "pitch": 58, "duration": 11, "velocity": 58}, {"time": 1078, "pitch": 61, "duration": 16, "velocity": 77}, {"time": 1090, "pitch": 58, "duration": 6, "velocity": 59}, {"time": 1090, "pitch": 67, "duration": 8, "velocity": 63}, {"time": 1096, "pitch": 61, "duration": 13, "velocity": 83}, {"time": 1096, "pitch": 68, "duration": 7, "velocity": 67}, {"time": 1102, "pitch": 70, "duration": 7, "velocity": 68}, {"time": 1108, "pitch": 48, "duration": 19, "velocity": 81}, {"time": 1108, "pitch": 63, "duration": 16, "velocity": 74}, {"time": 1108, "pitch": 67, "duration": 16, "velocity": 71}, {"time": 1108, "pitch": 72, "duration": 24, "velocity": 66}, {"time": 1114, "pitch": 55, "duration": 11, "velocity": 50}, {"time": 1120, "pitch": 60, "duration": 5, "velocity": 63}, {"time": 1132, "pitch": 46, "duration": 13, "velocity": 83}, {"time": 1132, "pitch": 61, "duration": 14, "velocity": 72}, {"time": 1132, "pitch": 65, "duration": 14, "velocity": 74}, {"time": 1138, "pitch": 53, "duration": 7, "velocity": 67}, {"time": 1156, "pitch": 41, "duration": 44, "velocity": 76}, {"time": 1156, "pitch": 56, "duration": 18, "velocity": 71}, {"time": 1156, "pitch": 60, "duration": 17, "velocity": 75}, {"time": 1156, "pitch": 68, "duration": 6, "velocity": 69}, {"time": 1162, "pitch": 48, "duration": 41, "velocity": 69}, {"time": 1162, "pitch": 67, "duration": 8, "velocity": 63}, {"time": 1168, "pitch": 53, "duration": 10, "velocity": 58}, {"time": 1168, "pitch": 68, "duration": 8, "velocity": 69}, {"time": 1174, "pitch": 56, "duration": 1, "velocity": 52}, {"time": 1174, "pitch": 60, "duration": 16, "velocity": 68}, {"time": 1174, "pitch": 75, "duration": 8, "velocity": 60}, {"time": 1180, "pitch": 67, "duration": 7, "velocity": 60}, {"time": 1186, "pitch": 53, "duration": 10, "velocity": 58}, {"time": 1186, "pitch": 68, "duration": 8, "velocity": 63}, {"time": 1192, "pitch": 56, "duration": 11, "velocity": 71}, {"time": 1192, "pitch": 60, "duration": 11, "velocity": 79}, {"time": 1192, "pitch": 65, "duration": 10, "velocity": 75}, {"time": 1192, "pitch": 75, "duration": 17, "velocity": 86}, {"time": 1198, "pitch": 70, "duration": 2, "velocity": 64}, {"time": 1204, "pitch": 41, "duration": 46, "velocity": 77}, {"time": 1204, "pitch": 56, "duration": 46, "velocity": 67}, {"time": 1204, "pitch": 60, "duration": 46, "velocity": 79}, {"time": 1204, "pitch": 65, "duration": 46, "velocity": 76}, {"time": 1204, "pitch": 72, "duration": 33, "velocity": 85}, {"time": 1252, "pitch": 41, "duration": 17, "velocity": 79}, {"time": 1252, "pitch": 56, "duration": 15, "velocity": 79}, {"time": 1252, "pitch": 60, "duration": 14, "velocity": 83}, {"time": 1252, "pitch": 65, "duration": 15, "velocity": 79}, {"time": 1258, "pitch": 48, "duration": 80, "velocity": 63}, {"time": 1264, "pitch": 53, "duration": 9, "velocity": 58}, {"time": 1270, "pitch": 56, "duration": 16, "velocity": 86}, {"time": 1270, "pitch": 60, "duration": 16, "velocity": 93}, {"time": 1270, "pitch": 65, "duration": 16, "velocity": 95}, {"time": 1273, "pitch": 41, "duration": 1, "velocity": 86}, {"time": 1276, "pitch": 41, "duration": 2, "velocity": 78}, {"time": 1282, "pitch": 41, "duration": 14, "velocity": 74}, {"time": 1282, "pitch": 53, "duration": 9, "velocity": 59}, {"time": 1288, "pitch": 56, "duration": 10, "velocity": 75}, {"time": 1288, "pitch": 60, "duration": 10, "velocity": 93}, {"time": 1288, "pitch": 65, "duration": 10, "velocity": 87}, {"time": 1294, "pitch": 53, "duration": 7, "velocity": 62}, {"time": 1300, "pitch": 41, "duration": 18, "velocity": 68}, {"time": 1300, "pitch": 56, "duration": 15, "velocity": 74}, {"time": 1300, "pitch": 60, "duration": 15, "velocity": 90}, {"time": 1300, "pitch": 65, "duration": 15, "velocity": 93}, {"time": 1306, "pitch": 53, "duration": 13, "velocity": 48}, {"time": 1318, "pitch": 56, "duration": 15, "velocity": 93}, {"time": 1318, "pitch": 60, "duration": 15, "velocity": 98}, {"time": 1318, "pitch": 65, "duration": 15, "velocity": 95}, {"time": 1321, "pitch": 41, "duration": 1, "velocity": 85}, {"time": 1324, "pitch": 41, "duration": 2, "velocity": 86}, {"time": 1330, "pitch": 41, "duration": 18, "velocity": 92}, {"time": 1330, "pitch": 53, "duration": 7, "velocity": 59}, {"time": 1336, "pitch": 56, "duration": 6, "velocity": 79}, {"time": 1336, "pitch": 60, "duration": 5, "velocity": 90}, {"time": 1336, "pitch": 65, "duration": 5, "velocity": 95}, {"time": 1348, "pitch": 37, "duration": 15, "velocity": 59}, {"time": 1348, "pitch": 53, "duration": 14, "velocity": 87}, {"time": 1348, "pitch": 56, "duration": 14, "velocity": 87}, {"time": 1348, "pitch": 61, "duration": 14, "velocity": 87}, {"time": 1354, "pitch": 44, "duration": 39, "velocity": 79}, {"time": 1360, "pitch": 49, "duration": 9, "velocity": 56}, {"time": 1366, "pitch": 53, "duration": 16, "velocity": 93}, {"time": 1366, "pitch": 56, "duration": 16, "velocity": 90}, {"time": 1366, "pitch": 61, "duration": 16, "velocity": 104}, {"time": 1369, "pitch": 37, "duration": 1, "velocity": 87}, {"time": 1372, "pitch": 37, "duration": 3, "velocity": 100}, {"time": 1375, "pitch": 49, "duration": 18, "velocity": 59}, {"time": 1378, "pitch": 37, "duration": 14, "velocity": 100}, {"time": 1384, "pitch": 53, "duration": 9, "velocity": 95}, {"time": 1384, "pitch": 56, "duration": 10, "velocity": 95}, {"time": 1384, "pitch": 61, "duration": 9, "velocity": 112}, {"time": 1396, "pitch": 46, "duration": 16, "velocity": 93}, {"time": 1396, "pitch": 61, "duration": 14, "velocity": 81}, {"time": 1396, "pitch": 65, "duration": 14, "velocity": 76}, {"time": 1402, "pitch": 53, "duration": 36, "velocity": 67}, {"time": 1408, "pitch": 58, "duration": 10, "velocity": 58}, {"time": 1414, "pitch": 61, "duration": 15, "velocity": 86}, {"time": 1414, "pitch": 65, "duration": 15, "velocity": 86}, {"time": 1417, "pitch": 46, "duration": 1, "velocity": 95}, {"time": 1420, "pitch": 46, "duration": 1, "velocity": 98}, {"time": 1426, "pitch": 46, "duration": 13, "velocity": 114}, {"time": 1426, "pitch": 58, "duration": 8, "velocity": 62}, {"time": 1432, "pitch": 61, "duration": 13, "velocity": 100}, {"time": 1432, "pitch": 65, "duration": 13, "velocity": 93}, {"time": 1444, "pitch": 48, "duration": 42, "velocity": 74}, {"time": 1450, "pitch": 55, "duration": 33, "velocity": 68}, {"time": 1456, "pitch": 60, "duration": 11, "velocity": 61}, {"time": 1462, "pitch": 63, "duration": 17, "velocity": 93}, {"time": 1462, "pitch": 67, "duration": 16, "velocity": 93}, {"time": 1474, "pitch": 60, "duration": 7, "velocity": 57}, {"time": 1480, "pitch": 63, "duration": 13, "velocity": 85}, {"time": 1480, "pitch": 67, "duration": 12, "velocity": 87}, {"time": 1492, "pitch": 44, "duration": 15, "velocity": 85}, {"time": 1492, "pitch": 60, "duration": 14, "velocity": 75}, {"time": 1492, "pitch": 63, "duration": 1, "velocity": 85}, {"time": 1498, "pitch": 51, "duration": 33, "velocity": 60}, {"time": 1504, "pitch": 56, "duration": 10, "velocity": 54}, {"time": 1510, "pitch": 60, "duration": 16, "velocity": 85}, {"time": 1510, "pitch": 63, "duration": 16, "velocity": 85}, {"time": 1513, "pitch": 44, "duration": 1, "velocity": 70}, {"time": 1516, "pitch": 44, "duration": 2, "velocity": 83}, {"time": 1522, "pitch": 44, "duration": 14, "velocity": 84}, {"time": 1522, "pitch": 56, "duration": 7, "velocity": 59}, {"time": 1528, "pitch": 60, "duration": 13, "velocity": 90}, {"time": 1528, "pitch": 63, "duration": 13, "velocity": 81}, {"time": 1540, "pitch": 36, "duration": 39, "velocity": 59}, {"time": 1540, "pitch": 51, "duration": 13, "velocity": 71}, {"time": 1540, "pitch": 55, "duration": 13, "velocity": 75}, {"time": 1540, "pitch": 60, "duration": 1, "velocity": 75}, {"time": 1546, "pitch": 43, "duration": 34, "velocity": 74}, {"time": 1552, "pitch": 48, "duration": 8, "velocity": 60}, {"time": 1558, "pitch": 51, "duration": 15, "velocity": 79}, {"time": 1558, "pitch": 55, "duration": 15, "velocity": 86}, {"time": 1558, "pitch": 60, "duration": 15, "velocity": 98}, {"time": 1570, "pitch": 48, "duration": 7, "velocity": 59}, {"time": 1576, "pitch": 51, "duration": 6, "velocity": 83}, {"time": 1576, "pitch": 55, "duration": 6, "velocity": 83}, {"time": 1576, "pitch": 60, "duration": 6, "velocity": 81}, {"time": 1588, "pitch": 41, "duration": 19, "velocity": 69}, {"time": 1588, "pitch": 56, "duration": 14, "velocity": 70}, {"time": 1588, "pitch": 60, "duration": 14, "velocity": 71}, {"time": 1588, "pitch": 65, "duration": 15, "velocity": 71}, {"time": 1594, "pitch": 48, "duration": 90, "velocity": 60}, {"time": 1600, "pitch": 53, "duration": 13, "velocity": 58}, {"time": 1606, "pitch": 56, "duration": 15, "velocity": 77}, {"time": 1606, "pitch": 60, "duration": 14, "velocity": 86}, {"time": 1606, "pitch": 65, "duration": 15, "velocity": 86}, {"time": 1609, "pitch": 36, "duration": 3, "velocity": 73}, {"time": 1612, "pitch": 41, "duration": 3, "velocity": 77}, {"time": 1615, "pitch": 36, "duration": 2, "velocity": 74}, {"time": 1618, "pitch": 41, "duration": 12, "velocity": 73}, {"time": 1618, "pitch": 53, "duration": 8, "velocity": 59}, {"time": 1624, "pitch": 56, "duration": 9, "velocity": 81}, {"time": 1624, "pitch": 60, "duration": 9, "velocity": 85}, {"time": 1624, "pitch": 65, "duration": 9, "velocity": 86}, {"time": 1630, "pitch": 53, "duration": 9, "velocity": 59}, {"time": 1636, "pitch": 41, "duration": 45, "velocity": 84}, {"time": 1636, "pitch": 56, "duration": 15, "velocity": 79}, {"time": 1636, "pitch": 60, "duration": 15, "velocity": 83}, {"time": 1636, "pitch": 65, "duration": 15, "velocity": 83}, {"time": 1645, "pitch": 53, "duration": 13, "velocity": 49}, {"time": 1654, "pitch": 56, "duration": 16, "velocity": 66}, {"time": 1654, "pitch": 60, "duration": 16, "velocity": 86}, {"time": 1654, "pitch": 65, "duration": 16, "velocity": 93}, {"time": 1666, "pitch": 53, "duration": 12, "velocity": 59}, {"time": 1672, "pitch": 56, "duration": 10, "velocity": 90}, {"time": 1672, "pitch": 60, "duration": 10, "velocity": 98}, {"time": 1672, "pitch": 65, "duration": 10, "velocity": 98}, {"time": 1684, "pitch": 41, "duration": 19, "velocity": 85}, {"time": 1684, "pitch": 56, "duration": 14, "velocity": 76}, {"time": 1684, "pitch": 60, "duration": 14, "velocity": 87}, {"time": 1684, "pitch": 65, "duration": 14, "velocity": 93}, {"time": 1690, "pitch": 48, "duration": 32, "velocity": 64}, {"time": 1696, "pitch": 53, "duration": 8, "velocity": 59}, {"time": 1702, "pitch": 36, "duration": 4, "velocity": 80}, {"time": 1702, "pitch": 56, "duration": 15, "velocity": 93}, {"time": 1702, "pitch": 60, "duration": 15, "velocity": 95}, {"time": 1702, "pitch": 65, "duration": 15, "velocity": 104}, {"time": 1705, "pitch": 41, "duration": 3, "velocity": 83}, {"time": 1714, "pitch": 41, "duration": 14, "velocity": 72}, {"time": 1714, "pitch": 53, "duration": 6, "velocity": 60}, {"time": 1720, "pitch": 56, "duration": 5, "velocity": 85}, {"time": 1720, "pitch": 60, "duration": 5, "velocity": 87}, {"time": 1720, "pitch": 65, "duration": 5, "velocity": 90}, {"time": 1732, "pitch": 37, "duration": 15, "velocity": 84}, {"time": 1732, "pitch": 53, "duration": 13, "velocity": 87}, {"time": 1732, "pitch": 56, "duration": 13, "velocity": 87}, {"time": 1732, "pitch": 61, "duration": 13, "velocity": 100}, {"time": 1738, "pitch": 44, "duration": 36, "velocity": 83}, {"time": 1744, "pitch": 49, "duration": 8, "velocity": 59}, {"time": 1750, "pitch": 53, "duration": 15, "velocity": 90}, {"time": 1750, "pitch": 56, "duration": 15, "velocity": 100}, {"time": 1750, "pitch": 61, "duration": 14, "velocity": 112}, {"time": 1753, "pitch": 37, "duration": 2, "velocity": 76}, {"time": 1756, "pitch": 37, "duration": 2, "velocity": 68}, {"time": 1762, "pitch": 37, "duration": 13, "velocity": 64}, {"time": 1762, "pitch": 49, "duration": 7, "velocity": 61}, {"time": 1768, "pitch": 53, "duration": 7, "velocity": 86}, {"time": 1768, "pitch": 56, "duration": 7, "velocity": 93}, {"time": 1768, "pitch": 61, "duration": 7, "velocity": 112}, {"time": 1774, "pitch": 49, "duration": 5, "velocity": 54}, {"time": 1780, "pitch": 44, "duration": 45, "velocity": 87}, {"time": 1780, "pitch": 60, "duration": 15, "velocity": 90}, {"time": 1780, "pitch": 63, "duration": 14, "velocity": 74}, {"time": 1786, "pitch": 51, "duration": 42, "velocity": 61}, {"time": 1792, "pitch": 56, "duration": 9, "velocity": 60}, {"time": 1798, "pitch": 60, "duration": 15, "velocity": 87}, {"time": 1798, "pitch": 63, "duration": 15, "velocity": 93}, {"time": 1798, "pitch": 68, "duration": 15, "velocity": 87}, {"time": 1810, "pitch": 56, "duration": 11, "velocity": 63}, {"time": 1816, "pitch": 60, "duration": 9, "velocity": 93}, {"time": 1816, "pitch": 63, "duration": 9, "velocity": 98}, {"time": 1816, "pitch": 68, "duration": 9, "velocity": 98}, {"time": 1822, "pitch": 56, "duration": 4, "velocity": 59}, {"time": 1828, "pitch": 36, "duration": 43, "velocity": 67}, {"time": 1828, "pitch": 51, "duration": 14, "velocity": 77}, {"time": 1828, "pitch": 55, "duration": 14, "velocity": 77}, {"time": 1828, "pitch": 60, "duration": 14, "velocity": 79}, {"time": 1834, "pitch": 43, "duration": 38, "velocity": 77}, {"time": 1840, "pitch": 48, "duration": 8, "velocity": 59}, {"time": 1846, "pitch": 51, "duration": 15, "velocity": 81}, {"time": 1846, "pitch": 55, "duration": 15, "velocity": 77}, {"time": 1846, "pitch": 60, "duration": 15, "velocity": 87}, {"time": 1858, "pitch": 48, "duration": 8, "velocity": 61}, {"time": 1864, "pitch": 51, "duration": 9, "velocity": 81}, {"time": 1864, "pitch": 55, "duration": 9, "velocity": 81}, {"time": 1864, "pitch": 60, "duration": 10, "velocity": 86}, {"time": 1876, "pitch": 46, "duration": 18, "velocity": 72}, {"time": 1876, "pitch": 61, "duration": 7, "velocity": 86}, {"time": 1876, "pitch": 65, "duration": 7, "velocity": 79}, {"time": 1882, "pitch": 53, "duration": 41, "velocity": 59}, {"time": 1888, "pitch": 58, "duration": 10, "velocity": 66}, {"time": 1894, "pitch": 61, "duration": 15, "velocity": 111}, {"time": 1894, "pitch": 65, "duration": 15, "velocity": 87}, {"time": 1897, "pitch": 46, "duration": 2, "velocity": 83}, {"time": 1900, "pitch": 46, "duration": 1, "velocity": 85}, {"time": 1906, "pitch": 46, "duration": 14, "velocity": 90}, {"time": 1906, "pitch": 58, "duration": 14, "velocity": 62}, {"time": 1912, "pitch": 61, "duration": 9, "velocity": 86}, {"time": 1912, "pitch": 65, "duration": 10, "velocity": 86}, {"time": 1924, "pitch": 48, "duration": 21, "velocity": 79}, {"time": 1924, "pitch": 63, "duration": 15, "velocity": 93}, {"time": 1924, "pitch": 67, "duration": 15, "velocity": 93}, {"time": 1930, "pitch": 55, "duration": 14, "velocity": 60}, {"time": 1936, "pitch": 60, "duration": 5, "velocity": 65}, {"time": 1942, "pitch": 63, "duration": 3, "velocity": 72}, {"time": 1942, "pitch": 67, "duration": 3, "velocity": 86}, {"time": 1945, "pitch": 61, "duration": 12, "velocity": 87}, {"time": 1945, "pitch": 65, "duration": 12, "velocity": 75}, {"time": 1948, "pitch": 46, "duration": 13, "velocity": 74}, {"time": 1954, "pitch": 53, "duration": 8, "velocity": 59}, {"time": 1960, "pitch": 61, "duration": 12, "velocity": 70}, {"time": 1960, "pitch": 65, "duration": 11, "velocity": 75}, {"time": 1972, "pitch": 41, "duration": 21, "velocity": 95}, {"time": 1978, "pitch": 48, "duration": 33, "velocity": 70}, {"time": 1984, "pitch": 53, "duration": 14, "velocity": 62}, {"time": 1990, "pitch": 56, "duration": 7, "velocity": 77}, {"time": 1993, "pitch": 36, "duration": 5, "velocity": 85}, {"time": 1996, "pitch": 41, "duration": 2, "velocity": 77}, {"time": 1996, "pitch": 58, "duration": 13, "velocity": 77}, {"time": 2002, "pitch": 41, "duration": 14, "velocity": 86}, {"time": 2002, "pitch": 53, "duration": 7, "velocity": 61}, {"time": 2008, "pitch": 63, "duration": 10, "velocity": 79}, {"time": 2014, "pitch": 53, "duration": 10, "velocity": 65}, {"time": 2020, "pitch": 41, "duration": 72, "velocity": 74}, {"time": 2020, "pitch": 56, "duration": 72, "velocity": 73}, {"time": 2020, "pitch": 60, "duration": 71, "velocity": 85}, {"time": 2020, "pitch": 65, "duration": 48, "velocity": 95}, {"time": 2026, "pitch": 48, "duration": 63, "velocity": 69}, {"time": 2116, "pitch": 39, "duration": 96, "velocity": 65}, {"time": 2116, "pitch": 55, "duration": 95, "velocity": 69}, {"time": 2116, "pitch": 58, "duration": 95, "velocity": 81}, {"time": 2122, "pitch": 46, "duration": 88, "velocity": 74}, {"time": 2131, "pitch": 51, "duration": 81, "velocity": 56}, {"time": 2152, "pitch": 63, "duration": 58, "velocity": 64}, {"time": 2212, "pitch": 41, "duration": 18, "velocity": 90}, {"time": 2212, "pitch": 56, "duration": 16, "velocity": 70}, {"time": 2212, "pitch": 60, "duration": 16, "velocity": 79}, {"time": 2212, "pitch": 65, "duration": 16, "velocity": 74}, {"time": 2218, "pitch": 48, "duration": 42, "velocity": 76}, {"time": 2224, "pitch": 53, "duration": 11, "velocity": 59}, {"time": 2230, "pitch": 56, "duration": 28, "velocity": 85}, {"time": 2230, "pitch": 60, "duration": 27, "velocity": 81}, {"time": 2230, "pitch": 65, "duration": 28, "velocity": 81}, {"time": 2233, "pitch": 41, "duration": 2, "velocity": 93}, {"time": 2236, "pitch": 41, "duration": 2, "velocity": 87}, {"time": 2242, "pitch": 41, "duration": 16, "velocity": 95}, {"time": 2242, "pitch": 53, "duration": 7, "velocity": 54}, {"time": 2251, "pitch": 53, "duration": 4, "velocity": 60}, {"time": 2260, "pitch": 41, "duration": 19, "velocity": 111}, {"time": 2260, "pitch": 56, "duration": 15, "velocity": 77}, {"time": 2260, "pitch": 60, "duration": 14, "velocity": 77}, {"time": 2260, "pitch": 65, "duration": 15, "velocity": 74}, {"time": 2266, "pitch": 48, "duration": 35, "velocity": 65}, {"time": 2272, "pitch": 53, "duration": 11, "velocity": 60}, {"time": 2278, "pitch": 56, "duration": 16, "velocity": 72}, {"time": 2278, "pitch": 60, "duration": 16, "velocity": 85}, {"time": 2278, "pitch": 65, "duration": 16, "velocity": 75}, {"time": 2281, "pitch": 41, "duration": 2, "velocity": 87}, {"time": 2284, "pitch": 41, "duration": 2, "velocity": 86}, {"time": 2290, "pitch": 41, "duration": 19, "velocity": 98}, {"time": 2290, "pitch": 53, "duration": 8, "velocity": 52}, {"time": 2296, "pitch": 56, "duration": 7, "velocity": 75}, {"time": 2296, "pitch": 60, "duration": 6, "velocity": 90}, {"time": 2296, "pitch": 65, "duration": 6, "velocity": 85}, {"time": 2308, "pitch": 37, "duration": 18, "velocity": 95}, {"time": 2308, "pitch": 53, "duration": 15, "velocity": 65}, {"time": 2308, "pitch": 56, "duration": 15, "velocity": 65}, {"time": 2308, "pitch": 61, "duration": 15, "velocity": 79}, {"time": 2314, "pitch": 44, "duration": 36, "velocity": 90}, {"time": 2320, "pitch": 49, "duration": 14, "velocity": 52}, {"time": 2326, "pitch": 53, "duration": 24, "velocity": 81}, {"time": 2326, "pitch": 56, "duration": 24, "velocity": 86}, {"time": 2326, "pitch": 61, "duration": 24, "velocity": 93}, {"time": 2329, "pitch": 37, "duration": 1, "velocity": 86}, {"time": 2332, "pitch": 37, "duration": 2, "velocity": 100}, {"time": 2338, "pitch": 37, "duration": 19, "velocity": 104}, {"time": 2344, "pitch": 49, "duration": 5, "velocity": 59}, {"time": 2356, "pitch": 49, "duration": 14, "velocity": 65}, {"time": 2356, "pitch": 53, "duration": 15, "velocity": 61}, {"time": 2356, "pitch": 58, "duration": 15, "velocity": 67}, {"time": 2362, "pitch": 41, "duration": 38, "velocity": 67}, {"time": 2368, "pitch": 46, "duration": 29, "velocity": 59}, {"time": 2374, "pitch": 49, "duration": 16, "velocity": 75}, {"time": 2374, "pitch": 53, "duration": 16, "velocity": 76}, {"time": 2374, "pitch": 58, "duration": 16, "velocity": 75}, {"time": 2392, "pitch": 49, "duration": 6, "velocity": 72}, {"time": 2392, "pitch": 53, "duration": 6, "velocity": 74}, {"time": 2392, "pitch": 58, "duration": 6, "velocity": 74}, {"time": 2404, "pitch": 36, "duration": 18, "velocity": 81}, {"time": 2404, "pitch": 51, "duration": 15, "velocity": 67}, {"time": 2404, "pitch": 55, "duration": 15, "velocity": 66}, {"time": 2404, "pitch": 60, "duration": 15, "velocity": 71}, {"time": 2410, "pitch": 43, "duration": 42, "velocity": 59}, {"time": 2416, "pitch": 48, "duration": 36, "velocity": 59}, {"time": 2422, "pitch": 51, "duration": 29, "velocity": 75}, {"time": 2422, "pitch": 55, "duration": 29, "velocity": 73}, {"time": 2422, "pitch": 60, "duration": 29, "velocity": 77}, {"time": 2425, "pitch": 36, "duration": 2, "velocity": 77}, {"time": 2428, "pitch": 36, "duration": 2, "velocity": 79}, {"time": 2434, "pitch": 36, "duration": 16, "velocity": 90}, {"time": 2452, "pitch": 44, "duration": 50, "velocity": 87}, {"time": 2452, "pitch": 60, "duration": 14, "velocity": 62}, {"time": 2452, "pitch": 63, "duration": 14, "velocity": 72}, {"time": 2458, "pitch": 51, "duration": 43, "velocity": 59}, {"time": 2464, "pitch": 56, "duration": 9, "velocity": 50}, {"time": 2467, "pitch": 63, "duration": 19, "velocity": 77}, {"time": 2470, "pitch": 60, "duration": 18, "velocity": 63}, {"time": 2470, "pitch": 68, "duration": 18, "velocity": 76}, {"time": 2482, "pitch": 56, "duration": 19, "velocity": 47}, {"time": 2488, "pitch": 60, "duration": 1, "velocity": 70}, {"time": 2488, "pitch": 63, "duration": 13, "velocity": 86}, {"time": 2488, "pitch": 68, "duration": 1, "velocity": 90}, {"time": 2500, "pitch": 36, "duration": 18, "velocity": 81}, {"time": 2500, "pitch": 51, "duration": 1, "velocity": 65}, {"time": 2500, "pitch": 55, "duration": 16, "velocity": 67}, {"time": 2500, "pitch": 60, "duration": 1, "velocity": 73}, {"time": 2506, "pitch": 43, "duration": 41, "velocity": 73}, {"time": 2512, "pitch": 48, "duration": 36, "velocity": 60}, {"time": 2518, "pitch": 51, "duration": 17, "velocity": 72}, {"time": 2518, "pitch": 55, "duration": 17, "velocity": 79}, {"time": 2518, "pitch": 60, "duration": 17, "velocity": 77}, {"time": 2521, "pitch": 36, "duration": 2, "velocity": 83}, {"time": 2524, "pitch": 36, "duration": 2, "velocity": 81}, {"time": 2530, "pitch": 36, "duration": 17, "velocity": 73}, {"time": 2536, "pitch": 51, "duration": 11, "velocity": 68}, {"time": 2536, "pitch": 55, "duration": 11, "velocity": 69}, {"time": 2536, "pitch": 60, "duration": 11, "velocity": 73}, {"time": 2548, "pitch": 41, "duration": 45, "velocity": 79}, {"time": 2548, "pitch": 56, "duration": 15, "velocity": 68}, {"time": 2548, "pitch": 60, "duration": 15, "velocity": 73}, {"time": 2548, "pitch": 65, "duration": 15, "velocity": 74}, {"time": 2554, "pitch": 48, "duration": 43, "velocity": 61}, {"time": 2560, "pitch": 53, "duration": 14, "velocity": 56}, {"time": 2566, "pitch": 56, "duration": 28, "velocity": 65}, {"time": 2566, "pitch": 60, "duration": 28, "velocity": 77}, {"time": 2566, "pitch": 65, "duration": 28, "velocity": 83}, {"time": 2584, "pitch": 53, "duration": 9, "velocity": 62}, {"time": 2596, "pitch": 41, "duration": 45, "velocity": 63}, {"time": 2596, "pitch": 56, "duration": 49, "velocity": 66}, {"time": 2596, "pitch": 60, "duration": 49, "velocity": 73}, {"time": 2596, "pitch": 65, "duration": 49, "velocity": 75}, {"time": 2644, "pitch": 41, "duration": 17, "velocity": 85}, {"time": 2644, "pitch": 56, "duration": 1, "velocity": 73}, {"time": 2644, "pitch": 60, "duration": 1, "velocity": 79}, {"time": 2644, "pitch": 65, "duration": 1, "velocity": 79}, {"time": 2656, "pitch": 48, "duration": 77, "velocity": 60}, {"time": 2662, "pitch": 65, "duration": 30, "velocity": 73}, {"time": 2662, "pitch": 41, "duration": 28, "velocity": 77}, {"time": 2662, "pitch": 56, "duration": 34, "velocity": 71}, {"time": 2662, "pitch": 60, "duration": 36, "velocity": 85}, {"time": 2686, "pitch": 53, "duration": 2, "velocity": 44}, {"time": 2692, "pitch": 41, "duration": 13, "velocity": 75}, {"time": 2692, "pitch": 53, "duration": 23, "velocity": 63}, {"time": 2692, "pitch": 65, "duration": 12, "velocity": 50}, {"time": 2698, "pitch": 56, "duration": 3, "velocity": 60}, {"time": 2698, "pitch": 67, "duration": 8, "velocity": 66}, {"time": 2704, "pitch": 56, "duration": 36, "velocity": 66}, {"time": 2704, "pitch": 68, "duration": 9, "velocity": 69}, {"time": 2710, "pitch": 41, "duration": 27, "velocity": 77}, {"time": 2710, "pitch": 60, "duration": 16, "velocity": 85}, {"time": 2710, "pitch": 75, "duration": 4, "velocity": 58}, {"time": 2716, "pitch": 67, "duration": 10, "velocity": 70}, {"time": 2722, "pitch": 53, "duration": 9, "velocity": 61}, {"time": 2722, "pitch": 68, "duration": 9, "velocity": 49}, {"time": 2728, "pitch": 65, "duration": 13, "velocity": 87}, {"time": 2728, "pitch": 75, "duration": 11, "velocity": 79}, {"time": 2734, "pitch": 60, "duration": 7, "velocity": 56}, {"time": 2740, "pitch": 34, "duration": 48, "velocity": 74}, {"time": 2746, "pitch": 41, "duration": 51, "velocity": 57}, {"time": 2752, "pitch": 49, "duration": 45, "velocity": 65}, {"time": 2758, "pitch": 53, "duration": 40, "velocity": 70}, {"time": 2770, "pitch": 46, "duration": 9, "velocity": 58}, {"time": 2776, "pitch": 58, "duration": 20, "velocity": 76}, {"time": 2782, "pitch": 46, "duration": 14, "velocity": 60}, {"time": 2788, "pitch": 36, "duration": 36, "velocity": 74}, {"time": 2794, "pitch": 43, "duration": 30, "velocity": 64}, {"time": 2800, "pitch": 48, "duration": 13, "velocity": 62}, {"time": 2806, "pitch": 51, "duration": 30, "velocity": 63}, {"time": 2806, "pitch": 67, "duration": 9, "velocity": 66}, {"time": 2812, "pitch": 55, "duration": 23, "velocity": 66}, {"time": 2812, "pitch": 68, "duration": 7, "velocity": 74}, {"time": 2818, "pitch": 48, "duration": 8, "velocity": 60}, {"time": 2818, "pitch": 75, "duration": 9, "velocity": 68}, {"time": 2824, "pitch": 60, "duration": 13, "velocity": 76}, {"time": 2824, "pitch": 67, "duration": 7, "velocity": 64}, {"time": 2830, "pitch": 68, "duration": 7, "velocity": 70}, {"time": 2836, "pitch": 41, "duration": 42, "velocity": 83}, {"time": 2842, "pitch": 48, "duration": 37, "velocity": 66}, {"time": 2848, "pitch": 53, "duration": 9, "velocity": 58}, {"time": 2854, "pitch": 56, "duration": 30, "velocity": 74}, {"time": 2866, "pitch": 53, "duration": 14, "velocity": 59}, {"time": 2872, "pitch": 60, "duration": 12, "velocity": 61}, {"time": 2878, "pitch": 65, "duration": 7, "velocity": 66}, {"time": 2884, "pitch": 46, "duration": 42, "velocity": 81}, {"time": 2890, "pitch": 53, "duration": 8, "velocity": 60}, {"time": 2896, "pitch": 61, "duration": 36, "velocity": 66}, {"time": 2908, "pitch": 53, "duration": 16, "velocity": 72}, {"time": 2914, "pitch": 58, "duration": 8, "velocity": 60}, {"time": 2920, "pitch": 65, "duration": 13, "velocity": 77}, {"time": 2932, "pitch": 36, "duration": 35, "velocity": 72}, {"time": 2938, "pitch": 43, "duration": 31, "velocity": 64}, {"time": 2944, "pitch": 48, "duration": 8, "velocity": 64}, {"time": 2950, "pitch": 51, "duration": 30, "velocity": 76}, {"time": 2962, "pitch": 48, "duration": 8, "velocity": 58}, {"time": 2968, "pitch": 55, "duration": 12, "velocity": 76}, {"time": 2974, "pitch": 60, "duration": 6, "velocity": 50}, {"time": 2980, "pitch": 41, "duration": 43, "velocity": 63}, {"time": 2980, "pitch": 65, "duration": 14, "velocity": 67}, {"time": 2986, "pitch": 48, "duration": 34, "velocity": 67}, {"time": 2986, "pitch": 67, "duration": 11, "velocity": 61}, {"time": 2992, "pitch": 53, "duration": 8, "velocity": 59}, {"time": 2992, "pitch": 68, "duration": 13, "velocity": 65}, {"time": 2998, "pitch": 56, "duration": 14, "velocity": 64}, {"time": 2998, "pitch": 60, "duration": 14, "velocity": 75}, {"time": 2998, "pitch": 65, "duration": 14, "velocity": 60}, {"time": 2998, "pitch": 75, "duration": 4, "velocity": 63}, {"time": 3004, "pitch": 67, "duration": 12, "velocity": 67}, {"time": 3010, "pitch": 53, "duration": 9, "velocity": 56}, {"time": 3010, "pitch": 68, "duration": 7, "velocity": 67}, {"time": 3016, "pitch": 56, "duration": 10, "velocity": 65}, {"time": 3016, "pitch": 60, "duration": 10, "velocity": 70}, {"time": 3016, "pitch": 75, "duration": 14, "velocity": 93}, {"time": 3028, "pitch": 41, "duration": 13, "velocity": 77}, {"time": 3028, "pitch": 56, "duration": 14, "velocity": 68}, {"time": 3028, "pitch": 60, "duration": 14, "velocity": 76}, {"time": 3028, "pitch": 65, "duration": 14, "velocity": 77}, {"time": 3034, "pitch": 48, "duration": 39, "velocity": 61}, {"time": 3040, "pitch": 53, "duration": 25, "velocity": 58}, {"time": 3046, "pitch": 41, "duration": 20, "velocity": 77}, {"time": 3046, "pitch": 56, "duration": 27, "velocity": 69}, {"time": 3046, "pitch": 60, "duration": 27, "velocity": 71}, {"time": 3046, "pitch": 65, "duration": 26, "velocity": 74}, {"time": 3070, "pitch": 41, "duration": 2, "velocity": 79}, {"time": 3076, "pitch": 41, "duration": 16, "velocity": 86}, {"time": 3076, "pitch": 56, "duration": 16, "velocity": 63}, {"time": 3076, "pitch": 60, "duration": 16, "velocity": 68}, {"time": 3076, "pitch": 65, "duration": 16, "velocity": 72}, {"time": 3082, "pitch": 48, "duration": 36, "velocity": 36}, {"time": 3088, "pitch": 53, "duration": 14, "velocity": 53}, {"time": 3094, "pitch": 41, "duration": 26, "velocity": 81}, {"time": 3094, "pitch": 56, "duration": 16, "velocity": 65}, {"time": 3094, "pitch": 60, "duration": 8, "velocity": 59}, {"time": 3100, "pitch": 63, "duration": 6, "velocity": 63}, {"time": 3106, "pitch": 53, "duration": 9, "velocity": 55}, {"time": 3106, "pitch": 68, "duration": 14, "velocity": 68}, {"time": 3112, "pitch": 56, "duration": 12, "velocity": 77}, {"time": 3118, "pitch": 60, "duration": 6, "velocity": 62}, {"time": 3124, "pitch": 46, "duration": 13, "velocity": 85}, {"time": 3124, "pitch": 61, "duration": 51, "velocity": 79}, {"time": 3130, "pitch": 53, "duration": 40, "velocity": 60}, {"time": 3136, "pitch": 58, "duration": 11, "velocity": 54}, {"time": 3142, "pitch": 46, "duration": 28, "velocity": 100}, {"time": 3142, "pitch": 65, "duration": 29, "velocity": 57}, {"time": 3153, "pitch": 58, "duration": 7, "velocity": 53}, {"time": 3160, "pitch": 70, "duration": 7, "velocity": 55}, {"time": 3172, "pitch": 48, "duration": 13, "velocity": 77}, {"time": 3178, "pitch": 55, "duration": 30, "velocity": 58}, {"time": 3184, "pitch": 60, "duration": 11, "velocity": 60}, {"time": 3190, "pitch": 48, "duration": 28, "velocity": 87}, {"time": 3190, "pitch": 63, "duration": 20, "velocity": 76}, {"time": 3202, "pitch": 60, "duration": 6, "velocity": 60}, {"time": 3208, "pitch": 65, "duration": 7, "velocity": 79}, {"time": 3214, "pitch": 63, "duration": 8, "velocity": 86}, {"time": 3220, "pitch": 41, "duration": 37, "velocity": 79}, {"time": 3226, "pitch": 48, "duration": 33, "velocity": 71}, {"time": 3232, "pitch": 53, "duration": 9, "velocity": 59}, {"time": 3238, "pitch": 56, "duration": 16, "velocity": 71}, {"time": 3238, "pitch": 60, "duration": 16, "velocity": 79}, {"time": 3250, "pitch": 53, "duration": 12, "velocity": 56}, {"time": 3256, "pitch": 56, "duration": 6, "velocity": 70}, {"time": 3256, "pitch": 60, "duration": 6, "velocity": 81}, {"time": 3256, "pitch": 65, "duration": 6, "velocity": 73}, {"time": 3268, "pitch": 46, "duration": 39, "velocity": 83}, {"time": 3268, "pitch": 61, "duration": 16, "velocity": 95}, {"time": 3268, "pitch": 65, "duration": 12, "velocity": 65}, {"time": 3274, "pitch": 53, "duration": 31, "velocity": 60}, {"time": 3280, "pitch": 58, "duration": 11, "velocity": 58}, {"time": 3286, "pitch": 61, "duration": 16, "velocity": 77}, {"time": 3298, "pitch": 58, "duration": 6, "velocity": 59}, {"time": 3298, "pitch": 67, "duration": 8, "velocity": 63}, {"time": 3304, "pitch": 61, "duration": 13, "velocity": 83}, {"time": 3304, "pitch": 68, "duration": 7, "velocity": 67}, {"time": 3310, "pitch": 70, "duration": 7, "velocity": 68}, {"time": 3316, "pitch": 48, "duration": 19, "velocity": 81}, {"time": 3316, "pitch": 63, "duration": 16, "velocity": 74}, {"time": 3316, "pitch": 67, "duration": 16, "velocity": 71}, {"time": 3316, "pitch": 72, "duration": 24, "velocity": 66}, {"time": 3322, "pitch": 55, "duration": 11, "velocity": 50}, {"time": 3328, "pitch": 60, "duration": 5, "velocity": 63}, {"time": 3340, "pitch": 46, "duration": 13, "velocity": 83}, {"time": 3340, "pitch": 61, "duration": 14, "velocity": 72}, {"time": 3340, "pitch": 65, "duration": 14, "velocity": 74}, {"time": 3346, "pitch": 53, "duration": 7, "velocity": 67}, {"time": 3364, "pitch": 41, "duration": 44, "velocity": 76}, {"time": 3364, "pitch": 56, "duration": 18, "velocity": 71}, {"time": 3364, "pitch": 60, "duration": 17, "velocity": 75}, {"time": 3364, "pitch": 68, "duration": 6, "velocity": 69}, {"time": 3370, "pitch": 48, "duration": 41, "velocity": 69}, {"time": 3370, "pitch": 67, "duration": 8, "velocity": 63}, {"time": 3376, "pitch": 53, "duration": 10, "velocity": 58}, {"time": 3376, "pitch": 68, "duration": 8, "velocity": 69}, {"time": 3382, "pitch": 56, "duration": 1, "velocity": 52}, {"time": 3382, "pitch": 60, "duration": 16, "velocity": 68}, {"time": 3382, "pitch": 75, "duration": 8, "velocity": 60}, {"time": 3388, "pitch": 67, "duration": 7, "velocity": 60}, {"time": 3394, "pitch": 53, "duration": 10, "velocity": 58}, {"time": 3394, "pitch": 68, "duration": 8, "velocity": 63}, {"time": 3400, "pitch": 56, "duration": 11, "velocity": 71}, {"time": 3400, "pitch": 60, "duration": 11, "velocity": 79}, {"time": 3400, "pitch": 65, "duration": 10, "velocity": 75}, {"time": 3400, "pitch": 75, "duration": 17, "velocity": 86}, {"time": 3406, "pitch": 70, "duration": 2, "velocity": 64}, {"time": 3412, "pitch": 41, "duration": 46, "velocity": 77}, {"time": 3412, "pitch": 56, "duration": 46, "velocity": 67}, {"time": 3412, "pitch": 60, "duration": 46, "velocity": 79}, {"time": 3412, "pitch": 65, "duration": 46, "velocity": 76}, {"time": 3412, "pitch": 72, "duration": 33, "velocity": 85}, {"time": 3460, "pitch": 41, "duration": 19, "velocity": 86}, {"time": 3460, "pitch": 56, "duration": 15, "velocity": 79}, {"time": 3460, "pitch": 60, "duration": 14, "velocity": 83}, {"time": 3460, "pitch": 65, "duration": 15, "velocity": 79}, {"time": 3466, "pitch": 48, "duration": 80, "velocity": 63}, {"time": 3472, "pitch": 53, "duration": 9, "velocity": 58}, {"time": 3478, "pitch": 41, "duration": 1, "velocity": 87}, {"time": 3478, "pitch": 56, "duration": 16, "velocity": 86}, {"time": 3478, "pitch": 60, "duration": 16, "velocity": 93}, {"time": 3478, "pitch": 65, "duration": 16, "velocity": 95}, {"time": 3490, "pitch": 41, "duration": 13, "velocity": 93}, {"time": 3490, "pitch": 53, "duration": 9, "velocity": 59}, {"time": 3496, "pitch": 56, "duration": 10, "velocity": 75}, {"time": 3496, "pitch": 60, "duration": 10, "velocity": 93}, {"time": 3496, "pitch": 65, "duration": 10, "velocity": 87}, {"time": 3502, "pitch": 53, "duration": 7, "velocity": 62}, {"time": 3508, "pitch": 41, "duration": 18, "velocity": 100}, {"time": 3508, "pitch": 56, "duration": 15, "velocity": 74}, {"time": 3508, "pitch": 60, "duration": 15, "velocity": 90}, {"time": 3508, "pitch": 65, "duration": 15, "velocity": 93}, {"time": 3514, "pitch": 53, "duration": 13, "velocity": 48}, {"time": 3526, "pitch": 56, "duration": 15, "velocity": 93}, {"time": 3526, "pitch": 60, "duration": 15, "velocity": 98}, {"time": 3526, "pitch": 65, "duration": 15, "velocity": 95}, {"time": 3529, "pitch": 41, "duration": 2, "velocity": 79}, {"time": 3532, "pitch": 41, "duration": 2, "velocity": 83}, {"time": 3538, "pitch": 41, "duration": 14, "velocity": 98}, {"time": 3538, "pitch": 53, "duration": 7, "velocity": 59}, {"time": 3544, "pitch": 56, "duration": 6, "velocity": 79}, {"time": 3544, "pitch": 60, "duration": 5, "velocity": 90}, {"time": 3544, "pitch": 65, "duration": 5, "velocity": 95}, {"time": 3556, "pitch": 37, "duration": 43, "velocity": 81}, {"time": 3556, "pitch": 53, "duration": 14, "velocity": 87}, {"time": 3556, "pitch": 56, "duration": 14, "velocity": 87}, {"time": 3556, "pitch": 61, "duration": 14, "velocity": 87}, {"time": 3562, "pitch": 44, "duration": 39, "velocity": 79}, {"time": 3568, "pitch": 49, "duration": 9, "velocity": 56}, {"time": 3574, "pitch": 53, "duration": 16, "velocity": 93}, {"time": 3574, "pitch": 56, "duration": 16, "velocity": 90}, {"time": 3574, "pitch": 61, "duration": 16, "velocity": 104}, {"time": 3583, "pitch": 49, "duration": 18, "velocity": 59}, {"time": 3592, "pitch": 53, "duration": 9, "velocity": 95}, {"time": 3592, "pitch": 56, "duration": 10, "velocity": 95}, {"time": 3592, "pitch": 61, "duration": 9, "velocity": 112}, {"time": 3604, "pitch": 46, "duration": 16, "velocity": 85}, {"time": 3604, "pitch": 61, "duration": 14, "velocity": 81}, {"time": 3604, "pitch": 65, "duration": 14, "velocity": 76}, {"time": 3610, "pitch": 53, "duration": 36, "velocity": 67}, {"time": 3616, "pitch": 58, "duration": 10, "velocity": 58}, {"time": 3622, "pitch": 61, "duration": 15, "velocity": 86}, {"time": 3622, "pitch": 65, "duration": 15, "velocity": 86}, {"time": 3625, "pitch": 46, "duration": 1, "velocity": 95}, {"time": 3628, "pitch": 46, "duration": 1, "velocity": 83}, {"time": 3634, "pitch": 46, "duration": 16, "velocity": 86}, {"time": 3634, "pitch": 58, "duration": 8, "velocity": 62}, {"time": 3640, "pitch": 61, "duration": 13, "velocity": 100}, {"time": 3640, "pitch": 65, "duration": 13, "velocity": 93}, {"time": 3652, "pitch": 48, "duration": 42, "velocity": 74}, {"time": 3658, "pitch": 55, "duration": 33, "velocity": 68}, {"time": 3664, "pitch": 60, "duration": 11, "velocity": 61}, {"time": 3670, "pitch": 63, "duration": 17, "velocity": 93}, {"time": 3670, "pitch": 67, "duration": 16, "velocity": 93}, {"time": 3682, "pitch": 60, "duration": 7, "velocity": 57}, {"time": 3688, "pitch": 63, "duration": 13, "velocity": 85}, {"time": 3688, "pitch": 67, "duration": 12, "velocity": 87}, {"time": 3700, "pitch": 44, "duration": 16, "velocity": 76}, {"time": 3700, "pitch": 60, "duration": 14, "velocity": 75}, {"time": 3700, "pitch": 63, "duration": 1, "velocity": 85}, {"time": 3706, "pitch": 51, "duration": 33, "velocity": 60}, {"time": 3712, "pitch": 56, "duration": 10, "velocity": 54}, {"time": 3718, "pitch": 60, "duration": 16, "velocity": 85}, {"time": 3718, "pitch": 63, "duration": 16, "velocity": 85}, {"time": 3721, "pitch": 44, "duration": 1, "velocity": 73}, {"time": 3724, "pitch": 44, "duration": 1, "velocity": 75}, {"time": 3730, "pitch": 44, "duration": 16, "velocity": 81}, {"time": 3730, "pitch": 56, "duration": 7, "velocity": 59}, {"time": 3736, "pitch": 60, "duration": 13, "velocity": 90}, {"time": 3736, "pitch": 63, "duration": 13, "velocity": 81}, {"time": 3748, "pitch": 36, "duration": 39, "velocity": 59}, {"time": 3748, "pitch": 51, "duration": 13, "velocity": 71}, {"time": 3748, "pitch": 55, "duration": 13, "velocity": 75}, {"time": 3748, "pitch": 60, "duration": 1, "velocity": 75}, {"time": 3754, "pitch": 43, "duration": 34, "velocity": 74}, {"time": 3760, "pitch": 48, "duration": 8, "velocity": 60}, {"time": 3766, "pitch": 51, "duration": 15, "velocity": 79}, {"time": 3766, "pitch": 55, "duration": 15, "velocity": 86}, {"time": 3766, "pitch": 60, "duration": 15, "velocity": 98}, {"time": 3778, "pitch": 48, "duration": 7, "velocity": 59}, {"time": 3784, "pitch": 51, "duration": 6, "velocity": 83}, {"time": 3784, "pitch": 55, "duration": 6, "velocity": 83}, {"time": 3784, "pitch": 60, "duration": 6, "velocity": 81}, {"time": 3796, "pitch": 41, "duration": 20, "velocity": 85}, {"time": 3796, "pitch": 56, "duration": 14, "velocity": 70}, {"time": 3796, "pitch": 60, "duration": 14, "velocity": 71}, {"time": 3796, "pitch": 65, "duration": 15, "velocity": 71}, {"time": 3802, "pitch": 48, "duration": 90, "velocity": 60}, {"time": 3808, "pitch": 53, "duration": 13, "velocity": 58}, {"time": 3814, "pitch": 56, "duration": 15, "velocity": 77}, {"time": 3814, "pitch": 60, "duration": 14, "velocity": 86}, {"time": 3814, "pitch": 65, "duration": 15, "velocity": 86}, {"time": 3817, "pitch": 36, "duration": 3, "velocity": 87}, {"time": 3820, "pitch": 41, "duration": 2, "velocity": 90}, {"time": 3823, "pitch": 36, "duration": 4, "velocity": 86}, {"time": 3826, "pitch": 41, "duration": 17, "velocity": 87}, {"time": 3826, "pitch": 53, "duration": 8, "velocity": 59}, {"time": 3832, "pitch": 56, "duration": 9, "velocity": 81}, {"time": 3832, "pitch": 60, "duration": 9, "velocity": 85}, {"time": 3832, "pitch": 65, "duration": 9, "velocity": 86}, {"time": 3838, "pitch": 53, "duration": 9, "velocity": 59}, {"time": 3844, "pitch": 41, "duration": 20, "velocity": 86}, {"time": 3844, "pitch": 56, "duration": 15, "velocity": 79}, {"time": 3844, "pitch": 60, "duration": 15, "velocity": 83}, {"time": 3844, "pitch": 65, "duration": 15, "velocity": 83}, {"time": 3853, "pitch": 53, "duration": 13, "velocity": 49}, {"time": 3862, "pitch": 56, "duration": 16, "velocity": 66}, {"time": 3862, "pitch": 60, "duration": 16, "velocity": 86}, {"time": 3862, "pitch": 65, "duration": 16, "velocity": 93}, {"time": 3865, "pitch": 36, "duration": 3, "velocity": 76}, {"time": 3868, "pitch": 41, "duration": 4, "velocity": 78}, {"time": 3874, "pitch": 41, "duration": 15, "velocity": 84}, {"time": 3874, "pitch": 53, "duration": 12, "velocity": 59}, {"time": 3880, "pitch": 56, "duration": 10, "velocity": 90}, {"time": 3880, "pitch": 60, "duration": 10, "velocity": 98}, {"time": 3880, "pitch": 65, "duration": 10, "velocity": 98}, {"time": 3892, "pitch": 41, "duration": 21, "velocity": 81}, {"time": 3892, "pitch": 56, "duration": 14, "velocity": 76}, {"time": 3892, "pitch": 60, "duration": 14, "velocity": 87}, {"time": 3892, "pitch": 65, "duration": 14, "velocity": 93}, {"time": 3898, "pitch": 48, "duration": 32, "velocity": 64}, {"time": 3904, "pitch": 53, "duration": 8, "velocity": 59}, {"time": 3910, "pitch": 56, "duration": 15, "velocity": 93}, {"time": 3910, "pitch": 60, "duration": 15, "velocity": 95}, {"time": 3910, "pitch": 65, "duration": 15, "velocity": 104}, {"time": 3913, "pitch": 36, "duration": 2, "velocity": 79}, {"time": 3916, "pitch": 41, "duration": 3, "velocity": 79}, {"time": 3922, "pitch": 41, "duration": 10, "velocity": 73}, {"time": 3922, "pitch": 53, "duration": 6, "velocity": 60}, {"time": 3928, "pitch": 56, "duration": 10, "velocity": 85}, {"time": 3928, "pitch": 60, "duration": 9, "velocity": 87}, {"time": 3928, "pitch": 65, "duration": 9, "velocity": 90}, {"time": 3940, "pitch": 37, "duration": 41, "velocity": 83}, {"time": 3940, "pitch": 53, "duration": 13, "velocity": 87}, {"time": 3940, "pitch": 56, "duration": 13, "velocity": 87}, {"time": 3940, "pitch": 61, "duration": 13, "velocity": 100}, {"time": 3946, "pitch": 44, "duration": 36, "velocity": 83}, {"time": 3952, "pitch": 49, "duration": 8, "velocity": 59}, {"time": 3958, "pitch": 53, "duration": 15, "velocity": 90}, {"time": 3958, "pitch": 56, "duration": 15, "velocity": 100}, {"time": 3958, "pitch": 61, "duration": 14, "velocity": 112}, {"time": 3970, "pitch": 49, "duration": 7, "velocity": 61}, {"time": 3976, "pitch": 53, "duration": 7, "velocity": 86}, {"time": 3976, "pitch": 56, "duration": 7, "velocity": 93}, {"time": 3976, "pitch": 61, "duration": 7, "velocity": 112}, {"time": 3982, "pitch": 49, "duration": 5, "velocity": 54}, {"time": 3988, "pitch": 44, "duration": 19, "velocity": 86}, {"time": 3988, "pitch": 60, "duration": 15, "velocity": 90}, {"time": 3988, "pitch": 63, "duration": 14, "velocity": 74}, {"time": 3994, "pitch": 51, "duration": 42, "velocity": 61}, {"time": 4000, "pitch": 56, "duration": 9, "velocity": 60}, {"time": 4006, "pitch": 60, "duration": 15, "velocity": 87}, {"time": 4006, "pitch": 63, "duration": 15, "velocity": 93}, {"time": 4006, "pitch": 68, "duration": 15, "velocity": 87}, {"time": 4009, "pitch": 39, "duration": 4, "velocity": 56}, {"time": 4012, "pitch": 44, "duration": 2, "velocity": 108}, {"time": 4018, "pitch": 44, "duration": 13, "velocity": 111}, {"time": 4018, "pitch": 56, "duration": 11, "velocity": 63}, {"time": 4024, "pitch": 60, "duration": 9, "velocity": 93}, {"time": 4024, "pitch": 63, "duration": 9, "velocity": 98}, {"time": 4024, "pitch": 68, "duration": 9, "velocity": 98}, {"time": 4030, "pitch": 56, "duration": 4, "velocity": 59}, {"time": 4036, "pitch": 36, "duration": 35, "velocity": 67}, {"time": 4036, "pitch": 51, "duration": 14, "velocity": 77}, {"time": 4036, "pitch": 55, "duration": 14, "velocity": 77}, {"time": 4036, "pitch": 60, "duration": 14, "velocity": 79}, {"time": 4042, "pitch": 43, "duration": 31, "velocity": 77}, {"time": 4048, "pitch": 48, "duration": 8, "velocity": 59}, {"time": 4054, "pitch": 51, "duration": 15, "velocity": 81}, {"time": 4054, "pitch": 55, "duration": 15, "velocity": 77}, {"time": 4054, "pitch": 60, "duration": 15, "velocity": 87}, {"time": 4066, "pitch": 48, "duration": 8, "velocity": 61}, {"time": 4072, "pitch": 51, "duration": 5, "velocity": 81}, {"time": 4072, "pitch": 55, "duration": 5, "velocity": 81}, {"time": 4072, "pitch": 60, "duration": 6, "velocity": 86}, {"time": 4084, "pitch": 46, "duration": 39, "velocity": 77}, {"time": 4084, "pitch": 61, "duration": 7, "velocity": 86}, {"time": 4084, "pitch": 65, "duration": 7, "velocity": 79}, {"time": 4090, "pitch": 53, "duration": 41, "velocity": 59}, {"time": 4096, "pitch": 58, "duration": 10, "velocity": 66}, {"time": 4102, "pitch": 61, "duration": 15, "velocity": 111}, {"time": 4102, "pitch": 65, "duration": 15, "velocity": 87}, {"time": 4114, "pitch": 58, "duration": 14, "velocity": 62}, {"time": 4120, "pitch": 61, "duration": 9, "velocity": 86}, {"time": 4120, "pitch": 65, "duration": 10, "velocity": 86}, {"time": 4132, "pitch": 48, "duration": 21, "velocity": 79}, {"time": 4132, "pitch": 63, "duration": 15, "velocity": 93}, {"time": 4132, "pitch": 67, "duration": 15, "velocity": 93}, {"time": 4138, "pitch": 55, "duration": 14, "velocity": 60}, {"time": 4144, "pitch": 60, "duration": 5, "velocity": 65}, {"time": 4150, "pitch": 63, "duration": 3, "velocity": 72}, {"time": 4150, "pitch": 67, "duration": 3, "velocity": 86}, {"time": 4156, "pitch": 46, "duration": 13, "velocity": 74}, {"time": 4156, "pitch": 61, "duration": 9, "velocity": 87}, {"time": 4156, "pitch": 65, "duration": 9, "velocity": 75}, {"time": 4162, "pitch": 53, "duration": 8, "velocity": 59}, {"time": 4168, "pitch": 61, "duration": 12, "velocity": 70}, {"time": 4168, "pitch": 65, "duration": 11, "velocity": 75}, {"time": 4180, "pitch": 41, "duration": 39, "velocity": 79}, {"time": 4186, "pitch": 48, "duration": 33, "velocity": 70}, {"time": 4192, "pitch": 53, "duration": 14, "velocity": 62}, {"time": 4198, "pitch": 56, "duration": 7, "velocity": 77}, {"time": 4204, "pitch": 58, "duration": 13, "velocity": 77}, {"time": 4210, "pitch": 53, "duration": 7, "velocity": 61}, {"time": 4216, "pitch": 63, "duration": 10, "velocity": 79}, {"time": 4222, "pitch": 53, "duration": 6, "velocity": 65}, {"time": 4228, "pitch": 41, "duration": 21, "velocity": 85}, {"time": 4228, "pitch": 56, "duration": 15, "velocity": 79}, {"time": 4228, "pitch": 60, "duration": 14, "velocity": 83}, {"time": 4228, "pitch": 65, "duration": 15, "velocity": 79}, {"time": 4234, "pitch": 48, "duration": 80, "velocity": 63}, {"time": 4240, "pitch": 53, "duration": 9, "velocity": 58}, {"time": 4246, "pitch": 56, "duration": 16, "velocity": 86}, {"time": 4246, "pitch": 60, "duration": 16, "velocity": 93}, {"time": 4246, "pitch": 65, "duration": 16, "velocity": 95}, {"time": 4249, "pitch": 36, "duration": 4, "velocity": 67}, {"time": 4252, "pitch": 41, "duration": 3, "velocity": 75}, {"time": 4258, "pitch": 41, "duration": 15, "velocity": 74}, {"time": 4258, "pitch": 53, "duration": 9, "velocity": 59}, {"time": 4264, "pitch": 56, "duration": 10, "velocity": 75}, {"time": 4264, "pitch": 60, "duration": 10, "velocity": 93}, {"time": 4264, "pitch": 65, "duration": 10, "velocity": 87}, {"time": 4270, "pitch": 53, "duration": 7, "velocity": 62}, {"time": 4276, "pitch": 41, "duration": 21, "velocity": 95}, {"time": 4276, "pitch": 56, "duration": 15, "velocity": 74}, {"time": 4276, "pitch": 60, "duration": 15, "velocity": 90}, {"time": 4276, "pitch": 65, "duration": 15, "velocity": 93}, {"time": 4282, "pitch": 53, "duration": 13, "velocity": 48}, {"time": 4294, "pitch": 56, "duration": 15, "velocity": 93}, {"time": 4294, "pitch": 60, "duration": 15, "velocity": 98}, {"time": 4294, "pitch": 65, "duration": 15, "velocity": 95}, {"time": 4297, "pitch": 36, "duration": 2, "velocity": 60}, {"time": 4300, "pitch": 41, "duration": 2, "velocity": 93}, {"time": 4306, "pitch": 41, "duration": 19, "velocity": 100}, {"time": 4306, "pitch": 53, "duration": 7, "velocity": 59}, {"time": 4312, "pitch": 56, "duration": 6, "velocity": 79}, {"time": 4312, "pitch": 60, "duration": 5, "velocity": 90}, {"time": 4312, "pitch": 65, "duration": 5, "velocity": 95}, {"time": 4324, "pitch": 37, "duration": 22, "velocity": 112}, {"time": 4324, "pitch": 53, "duration": 14, "velocity": 87}, {"time": 4324, "pitch": 56, "duration": 14, "velocity": 87}, {"time": 4324, "pitch": 61, "duration": 14, "velocity": 87}, {"time": 4330, "pitch": 44, "duration": 39, "velocity": 79}, {"time": 4336, "pitch": 49, "duration": 9, "velocity": 56}, {"time": 4342, "pitch": 53, "duration": 16, "velocity": 93}, {"time": 4342, "pitch": 56, "duration": 16, "velocity": 90}, {"time": 4342, "pitch": 61, "duration": 16, "velocity": 104}, {"time": 4348, "pitch": 37, "duration": 2, "velocity": 108}, {"time": 4351, "pitch": 49, "duration": 18, "velocity": 59}, {"time": 4354, "pitch": 37, "duration": 17, "velocity": 112}, {"time": 4360, "pitch": 53, "duration": 9, "velocity": 95}, {"time": 4360, "pitch": 56, "duration": 10, "velocity": 95}, {"time": 4360, "pitch": 61, "duration": 9, "velocity": 112}, {"time": 4372, "pitch": 46, "duration": 41, "velocity": 76}, {"time": 4372, "pitch": 61, "duration": 14, "velocity": 81}, {"time": 4372, "pitch": 65, "duration": 14, "velocity": 76}, {"time": 4378, "pitch": 53, "duration": 36, "velocity": 67}, {"time": 4384, "pitch": 58, "duration": 10, "velocity": 58}, {"time": 4390, "pitch": 61, "duration": 15, "velocity": 86}, {"time": 4390, "pitch": 65, "duration": 15, "velocity": 86}, {"time": 4402, "pitch": 58, "duration": 8, "velocity": 62}, {"time": 4408, "pitch": 61, "duration": 13, "velocity": 100}, {"time": 4408, "pitch": 65, "duration": 13, "velocity": 93}, {"time": 4420, "pitch": 48, "duration": 42, "velocity": 74}, {"time": 4426, "pitch": 55, "duration": 33, "velocity": 68}, {"time": 4432, "pitch": 60, "duration": 11, "velocity": 61}, {"time": 4438, "pitch": 63, "duration": 17, "velocity": 93}, {"time": 4438, "pitch": 67, "duration": 16, "velocity": 93}, {"time": 4450, "pitch": 60, "duration": 7, "velocity": 57}, {"time": 4456, "pitch": 63, "duration": 13, "velocity": 85}, {"time": 4456, "pitch": 67, "duration": 12, "velocity": 87}, {"time": 4468, "pitch": 44, "duration": 40, "velocity": 76}, {"time": 4468, "pitch": 60, "duration": 14, "velocity": 75}, {"time": 4468, "pitch": 63, "duration": 1, "velocity": 85}, {"time": 4474, "pitch": 51, "duration": 33, "velocity": 60}, {"time": 4480, "pitch": 56, "duration": 10, "velocity": 54}, {"time": 4486, "pitch": 60, "duration": 16, "velocity": 85}, {"time": 4486, "pitch": 63, "duration": 16, "velocity": 85}, {"time": 4498, "pitch": 56, "duration": 7, "velocity": 59}, {"time": 4504, "pitch": 60, "duration": 13, "velocity": 90}, {"time": 4504, "pitch": 63, "duration": 13, "velocity": 81}, {"time": 4516, "pitch": 36, "duration": 39, "velocity": 59}, {"time": 4516, "pitch": 51, "duration": 13, "velocity": 71}, {"time": 4516, "pitch": 55, "duration": 13, "velocity": 75}, {"time": 4516, "pitch": 60, "duration": 1, "velocity": 75}, {"time": 4522, "pitch": 43, "duration": 34, "velocity": 74}, {"time": 4528, "pitch": 48, "duration": 8, "velocity": 60}, {"time": 4534, "pitch": 51, "duration": 15, "velocity": 79}, {"time": 4534, "pitch": 55, "duration": 15, "velocity": 86}, {"time": 4534, "pitch": 60, "duration": 15, "velocity": 98}, {"time": 4546, "pitch": 48, "duration": 7, "velocity": 59}, {"time": 4552, "pitch": 51, "duration": 6, "velocity": 83}, {"time": 4552, "pitch": 55, "duration": 6, "velocity": 83}, {"time": 4552, "pitch": 60, "duration": 6, "velocity": 81}, {"time": 4564, "pitch": 41, "duration": 21, "velocity": 79}, {"time": 4564, "pitch": 56, "duration": 14, "velocity": 70}, {"time": 4564, "pitch": 60, "duration": 14, "velocity": 71}, {"time": 4564, "pitch": 65, "duration": 15, "velocity": 71}, {"time": 4570, "pitch": 48, "duration": 90, "velocity": 60}, {"time": 4576, "pitch": 53, "duration": 13, "velocity": 58}, {"time": 4582, "pitch": 56, "duration": 15, "velocity": 77}, {"time": 4582, "pitch": 60, "duration": 14, "velocity": 86}, {"time": 4582, "pitch": 65, "duration": 15, "velocity": 86}, {"time": 4585, "pitch": 36, "duration": 4, "velocity": 77}, {"time": 4588, "pitch": 41, "duration": 1, "velocity": 77}, {"time": 4594, "pitch": 41, "duration": 15, "velocity": 90}, {"time": 4594, "pitch": 53, "duration": 8, "velocity": 59}, {"time": 4600, "pitch": 56, "duration": 9, "velocity": 81}, {"time": 4600, "pitch": 60, "duration": 9, "velocity": 85}, {"time": 4600, "pitch": 65, "duration": 9, "velocity": 86}, {"time": 4606, "pitch": 53, "duration": 9, "velocity": 59}, {"time": 4612, "pitch": 41, "duration": 21, "velocity": 90}, {"time": 4612, "pitch": 56, "duration": 15, "velocity": 79}, {"time": 4612, "pitch": 60, "duration": 15, "velocity": 83}, {"time": 4612, "pitch": 65, "duration": 15, "velocity": 83}, {"time": 4621, "pitch": 53, "duration": 13, "velocity": 49}, {"time": 4630, "pitch": 56, "duration": 16, "velocity": 66}, {"time": 4630, "pitch": 60, "duration": 16, "velocity": 86}, {"time": 4630, "pitch": 65, "duration": 16, "velocity": 93}, {"time": 4633, "pitch": 36, "duration": 5, "velocity": 74}, {"time": 4636, "pitch": 41, "duration": 1, "velocity": 83}, {"time": 4642, "pitch": 41, "duration": 14, "velocity": 90}, {"time": 4642, "pitch": 53, "duration": 12, "velocity": 59}, {"time": 4648, "pitch": 56, "duration": 10, "velocity": 90}, {"time": 4648, "pitch": 60, "duration": 10, "velocity": 98}, {"time": 4648, "pitch": 65, "duration": 10, "velocity": 98}, {"time": 4660, "pitch": 41, "duration": 21, "velocity": 87}, {"time": 4660, "pitch": 56, "duration": 14, "velocity": 76}, {"time": 4660, "pitch": 60, "duration": 14, "velocity": 87}, {"time": 4660, "pitch": 65, "duration": 14, "velocity": 93}, {"time": 4666, "pitch": 48, "duration": 32, "velocity": 64}, {"time": 4672, "pitch": 53, "duration": 8, "velocity": 59}, {"time": 4678, "pitch": 56, "duration": 15, "velocity": 93}, {"time": 4678, "pitch": 60, "duration": 15, "velocity": 95}, {"time": 4678, "pitch": 65, "duration": 15, "velocity": 104}, {"time": 4681, "pitch": 36, "duration": 3, "velocity": 79}, {"time": 4684, "pitch": 41, "duration": 1, "velocity": 90}, {"time": 4690, "pitch": 41, "duration": 14, "velocity": 98}, {"time": 4690, "pitch": 53, "duration": 6, "velocity": 60}, {"time": 4696, "pitch": 56, "duration": 5, "velocity": 85}, {"time": 4696, "pitch": 60, "duration": 5, "velocity": 87}, {"time": 4696, "pitch": 65, "duration": 5, "velocity": 90}, {"time": 4708, "pitch": 37, "duration": 18, "velocity": 86}, {"time": 4708, "pitch": 53, "duration": 13, "velocity": 87}, {"time": 4708, "pitch": 56, "duration": 13, "velocity": 87}, {"time": 4708, "pitch": 61, "duration": 13, "velocity": 100}, {"time": 4714, "pitch": 44, "duration": 36, "velocity": 83}, {"time": 4720, "pitch": 49, "duration": 8, "velocity": 59}, {"time": 4726, "pitch": 53, "duration": 15, "velocity": 90}, {"time": 4726, "pitch": 56, "duration": 15, "velocity": 100}, {"time": 4726, "pitch": 61, "duration": 14, "velocity": 112}, {"time": 4729, "pitch": 37, "duration": 1, "velocity": 77}, {"time": 4732, "pitch": 37, "duration": 2, "velocity": 95}, {"time": 4738, "pitch": 37, "duration": 15, "velocity": 85}, {"time": 4738, "pitch": 49, "duration": 7, "velocity": 61}, {"time": 4744, "pitch": 53, "duration": 7, "velocity": 86}, {"time": 4744, "pitch": 56, "duration": 7, "velocity": 93}, {"time": 4744, "pitch": 61, "duration": 7, "velocity": 112}, {"time": 4750, "pitch": 49, "duration": 5, "velocity": 54}, {"time": 4756, "pitch": 44, "duration": 17, "velocity": 83}, {"time": 4756, "pitch": 60, "duration": 15, "velocity": 90}, {"time": 4756, "pitch": 63, "duration": 14, "velocity": 74}, {"time": 4762, "pitch": 51, "duration": 42, "velocity": 61}, {"time": 4768, "pitch": 56, "duration": 9, "velocity": 60}, {"time": 4774, "pitch": 60, "duration": 15, "velocity": 87}, {"time": 4774, "pitch": 63, "duration": 15, "velocity": 93}, {"time": 4774, "pitch": 68, "duration": 15, "velocity": 87}, {"time": 4777, "pitch": 44, "duration": 1, "velocity": 79}, {"time": 4780, "pitch": 44, "duration": 2, "velocity": 98}, {"time": 4786, "pitch": 44, "duration": 12, "velocity": 104}, {"time": 4786, "pitch": 56, "duration": 11, "velocity": 63}, {"time": 4792, "pitch": 60, "duration": 9, "velocity": 93}, {"time": 4792, "pitch": 63, "duration": 9, "velocity": 98}, {"time": 4792, "pitch": 68, "duration": 9, "velocity": 98}, {"time": 4798, "pitch": 56, "duration": 4, "velocity": 59}, {"time": 4804, "pitch": 36, "duration": 35, "velocity": 67}, {"time": 4804, "pitch": 51, "duration": 14, "velocity": 77}, {"time": 4804, "pitch": 55, "duration": 14, "velocity": 77}, {"time": 4804, "pitch": 60, "duration": 14, "velocity": 79}, {"time": 4810, "pitch": 43, "duration": 31, "velocity": 77}, {"time": 4816, "pitch": 48, "duration": 8, "velocity": 59}, {"time": 4822, "pitch": 51, "duration": 15, "velocity": 81}, {"time": 4822, "pitch": 55, "duration": 15, "velocity": 77}, {"time": 4822, "pitch": 60, "duration": 15, "velocity": 87}, {"time": 4834, "pitch": 48, "duration": 8, "velocity": 61}, {"time": 4840, "pitch": 51, "duration": 5, "velocity": 81}, {"time": 4840, "pitch": 55, "duration": 5, "velocity": 81}, {"time": 4840, "pitch": 60, "duration": 6, "velocity": 86}, {"time": 4852, "pitch": 46, "duration": 39, "velocity": 77}, {"time": 4852, "pitch": 61, "duration": 7, "velocity": 86}, {"time": 4852, "pitch": 65, "duration": 7, "velocity": 79}, {"time": 4858, "pitch": 53, "duration": 41, "velocity": 59}, {"time": 4864, "pitch": 58, "duration": 10, "velocity": 66}, {"time": 4870, "pitch": 61, "duration": 15, "velocity": 111}, {"time": 4870, "pitch": 65, "duration": 15, "velocity": 87}, {"time": 4882, "pitch": 58, "duration": 14, "velocity": 62}, {"time": 4888, "pitch": 61, "duration": 9, "velocity": 86}, {"time": 4888, "pitch": 65, "duration": 10, "velocity": 86}, {"time": 4900, "pitch": 48, "duration": 21, "velocity": 79}, {"time": 4900, "pitch": 63, "duration": 15, "velocity": 93}, {"time": 4900, "pitch": 67, "duration": 15, "velocity": 93}, {"time": 4906, "pitch": 55, "duration": 14, "velocity": 60}, {"time": 4912, "pitch": 60, "duration": 5, "velocity": 65}, {"time": 4918, "pitch": 63, "duration": 3, "velocity": 72}, {"time": 4918, "pitch": 67, "duration": 3, "velocity": 86}, {"time": 4921, "pitch": 46, "duration": 16, "velocity": 74}, {"time": 4921, "pitch": 61, "duration": 12, "velocity": 87}, {"time": 4921, "pitch": 65, "duration": 12, "velocity": 75}, {"time": 4930, "pitch": 53, "duration": 8, "velocity": 59}, {"time": 4936, "pitch": 61, "duration": 12, "velocity": 70}, {"time": 4936, "pitch": 65, "duration": 11, "velocity": 75}, {"time": 4948, "pitch": 41, "duration": 26, "velocity": 87}, {"time": 4948, "pitch": 56, "duration": 15, "velocity": 67}, {"time": 4948, "pitch": 60, "duration": 16, "velocity": 66}, {"time": 4948, "pitch": 65, "duration": 16, "velocity": 76}, {"time": 4954, "pitch": 48, "duration": 33, "velocity": 70}, {"time": 4960, "pitch": 53, "duration": 8, "velocity": 58}, {"time": 4960, "pitch": 53, "duration": 8, "velocity": 62}, {"time": 4966, "pitch": 56, "duration": 7, "velocity": 77}, {"time": 4966, "pitch": 56, "duration": 7, "velocity": 79}, {"time": 4966, "pitch": 60, "duration": 28, "velocity": 90}, {"time": 4966, "pitch": 65, "duration": 28, "velocity": 81}, {"time": 4972, "pitch": 58, "duration": 13, "velocity": 77}, {"time": 4978, "pitch": 36, "duration": 7, "velocity": 112}, {"time": 4978, "pitch": 53, "duration": 7, "velocity": 57}, {"time": 4978, "pitch": 53, "duration": 7, "velocity": 61}, {"time": 4984, "pitch": 63, "duration": 10, "velocity": 79}, {"time": 4990, "pitch": 36, "duration": 7, "velocity": 100}, {"time": 4990, "pitch": 48, "duration": 9, "velocity": 87}, {"time": 4990, "pitch": 53, "duration": 6, "velocity": 65}, {"time": 4996, "pitch": 41, "duration": 16, "velocity": 81}, {"time": 4996, "pitch": 56, "duration": 15, "velocity": 79}, {"time": 4996, "pitch": 60, "duration": 14, "velocity": 93}, {"time": 4996, "pitch": 65, "duration": 15, "velocity": 95}, {"time": 5002, "pitch": 48, "duration": 33, "velocity": 73}, {"time": 5008, "pitch": 53, "duration": 11, "velocity": 62}, {"time": 5014, "pitch": 41, "duration": 24, "velocity": 93}, {"time": 5014, "pitch": 56, "duration": 15, "velocity": 75}, {"time": 5014, "pitch": 60, "duration": 15, "velocity": 85}, {"time": 5014, "pitch": 65, "duration": 15, "velocity": 79}, {"time": 5026, "pitch": 53, "duration": 7, "velocity": 60}, {"time": 5032, "pitch": 56, "duration": 5, "velocity": 63}, {"time": 5032, "pitch": 60, "duration": 5, "velocity": 72}, {"time": 5032, "pitch": 65, "duration": 5, "velocity": 60}, {"time": 5044, "pitch": 37, "duration": 37, "velocity": 76}, {"time": 5044, "pitch": 53, "duration": 15, "velocity": 65}, {"time": 5044, "pitch": 56, "duration": 15, "velocity": 72}, {"time": 5044, "pitch": 61, "duration": 15, "velocity": 83}, {"time": 5050, "pitch": 44, "duration": 32, "velocity": 73}, {"time": 5056, "pitch": 49, "duration": 14, "velocity": 59}, {"time": 5062, "pitch": 53, "duration": 16, "velocity": 76}, {"time": 5062, "pitch": 56, "duration": 16, "velocity": 90}, {"time": 5062, "pitch": 61, "duration": 16, "velocity": 95}, {"time": 5074, "pitch": 49, "duration": 18, "velocity": 63}, {"time": 5080, "pitch": 53, "duration": 5, "velocity": 79}, {"time": 5080, "pitch": 56, "duration": 5, "velocity": 85}, {"time": 5080, "pitch": 61, "duration": 5, "velocity": 90}, {"time": 5092, "pitch": 44, "duration": 47, "velocity": 90}, {"time": 5092, "pitch": 60, "duration": 14, "velocity": 72}, {"time": 5092, "pitch": 63, "duration": 14, "velocity": 75}, {"time": 5092, "pitch": 68, "duration": 14, "velocity": 74}, {"time": 5098, "pitch": 51, "duration": 42, "velocity": 63}, {"time": 5101, "pitch": 56, "duration": 15, "velocity": 59}, {"time": 5110, "pitch": 60, "duration": 17, "velocity": 83}, {"time": 5110, "pitch": 63, "duration": 17, "velocity": 86}, {"time": 5110, "pitch": 68, "duration": 17, "velocity": 83}, {"time": 5122, "pitch": 56, "duration": 16, "velocity": 58}, {"time": 5128, "pitch": 60, "duration": 10, "velocity": 73}, {"time": 5128, "pitch": 63, "duration": 10, "velocity": 81}, {"time": 5128, "pitch": 68, "duration": 10, "velocity": 77}, {"time": 5140, "pitch": 36, "duration": 43, "velocity": 70}, {"time": 5140, "pitch": 51, "duration": 15, "velocity": 60}, {"time": 5140, "pitch": 55, "duration": 15, "velocity": 69}, {"time": 5140, "pitch": 60, "duration": 15, "velocity": 77}, {"time": 5146, "pitch": 43, "duration": 36, "velocity": 58}, {"time": 5152, "pitch": 48, "duration": 13, "velocity": 59}, {"time": 5158, "pitch": 51, "duration": 16, "velocity": 67}, {"time": 5158, "pitch": 55, "duration": 16, "velocity": 75}, {"time": 5158, "pitch": 60, "duration": 16, "velocity": 74}, {"time": 5170, "pitch": 48, "duration": 12, "velocity": 57}, {"time": 5176, "pitch": 51, "duration": 8, "velocity": 76}, {"time": 5176, "pitch": 55, "duration": 8, "velocity": 75}, {"time": 5176, "pitch": 60, "duration": 7, "velocity": 79}, {"time": 5188, "pitch": 46, "duration": 38, "velocity": 74}, {"time": 5188, "pitch": 61, "duration": 14, "velocity": 67}, {"time": 5188, "pitch": 65, "duration": 14, "velocity": 74}, {"time": 5194, "pitch": 53, "duration": 32, "velocity": 58}, {"time": 5200, "pitch": 58, "duration": 9, "velocity": 50}, {"time": 5206, "pitch": 61, "duration": 16, "velocity": 86}, {"time": 5206, "pitch": 65, "duration": 16, "velocity": 76}, {"time": 5218, "pitch": 58, "duration": 6, "velocity": 64}, {"time": 5224, "pitch": 61, "duration": 11, "velocity": 86}, {"time": 5224, "pitch": 65, "duration": 11, "velocity": 81}, {"time": 5236, "pitch": 36, "duration": 36, "velocity": 63}, {"time": 5236, "pitch": 51, "duration": 14, "velocity": 70}, {"time": 5236, "pitch": 55, "duration": 14, "velocity": 79}, {"time": 5236, "pitch": 60, "duration": 14, "velocity": 85}, {"time": 5242, "pitch": 43, "duration": 30, "velocity": 14}, {"time": 5248, "pitch": 48, "duration": 11, "velocity": 63}, {"time": 5254, "pitch": 51, "duration": 15, "velocity": 74}, {"time": 5254, "pitch": 55, "duration": 15, "velocity": 81}, {"time": 5254, "pitch": 60, "duration": 15, "velocity": 85}, {"time": 5266, "pitch": 48, "duration": 11, "velocity": 58}, {"time": 5272, "pitch": 51, "duration": 5, "velocity": 74}, {"time": 5272, "pitch": 55, "duration": 5, "velocity": 77}, {"time": 5272, "pitch": 60, "duration": 5, "velocity": 85}, {"time": 5284, "pitch": 41, "duration": 13, "velocity": 74}, {"time": 5284, "pitch": 56, "duration": 14, "velocity": 65}, {"time": 5284, "pitch": 60, "duration": 13, "velocity": 74}, {"time": 5302, "pitch": 41, "duration": 29, "velocity": 74}, {"time": 5302, "pitch": 56, "duration": 29, "velocity": 74}, {"time": 5302, "pitch": 60, "duration": 29, "velocity": 86}, {"time": 5302, "pitch": 65, "duration": 29, "velocity": 93}], "annotations": [{"time": 98, "annotation": {"number": 64, "value": 127}, "group": "control_change"}, {"time": 138, "annotation": {"number": 64, "value": 0}, "group": "control_change"}, {"time": 147, "annotation": {"number": 64, "value": 127}, "group": "control_change"}, {"time": 198, "annotation": {"number": 64, "value": 0}, "group": "control_change"}, {"time": 201, "annotation": {"number": 64, "value": 127}, "group": "control_change"}, {"time": 245, "annotation": {"number": 64, "value": 0}, "group": "control_change"}, {"time": 249, "annotation": {"number": 64, "value": 127}, "group": "control_change"}, {"time": 292, "annotation": {"number": 64, "value": 0}, "group": "control_change"}, {"time": 297, "annotation": {"number": 64, "value": 127}, "group": "control_change"}, {"time": 340, "annotation": {"number": 64, "value": 0}, "group": "control_change"}, {"time": 345, "annotation": {"number": 64, "value": 127}, "group": "control_change"}, {"time": 390, "annotation": {"number": 64, "value": 0}, "group": "control_change"}, {"time": 393, "annotation": {"number": 64, "value": 127}, "group": "control_change"}, {"time": 405, "annotation": {"number": 64, "value": 0}, "group": "control_change"}, {"time": 410, "annotation": {"number": 64, "value": 127}, "group": "control_change"}, {"time": 435, "annotation": {"number": 64, "value": 0}, "group": "control_change"}, {"time": 440, "annotation": {"number": 64, "value": 127}, "group": "control_change"}, {"time": 538, "annotation": {"number": 64, "value": 0}, "group": "control_change"}, {"time": 541, "annotation": {"number": 64, "value": 127}, "group": "control_change"}, {"time": 580, "annotation": {"number": 64, "value": 0}, "group": "control_change"}, {"time": 585, "annotation": {"number": 64, "value": 127}, "group": "control_change"}, {"time": 627, "annotation": {"number": 64, "value": 0}, "group": "control_change"}, {"time": 632, "annotation": {"number": 64, "value": 127}, "group": "control_change"}, {"time": 672, "annotation": {"number": 64, "value": 0}, "group": "control_change"}, {"time": 681, "annotation": {"number": 64, "value": 127}, "group": "control_change"}, {"time": 723, "annotation": {"number": 64, "value": 0}, "group": "control_change"}, {"time": 728, "annotation": {"number": 64, "value": 127}, "group": "control_change"}, {"time": 774, "annotation": {"number": 64, "value": 0}, "group": "control_change"}, {"time": 778, "annotation": {"number": 64, "value": 127}, "group": "control_change"}, {"time": 820, "annotation": {"number": 64, "value": 0}, "group": "control_change"}, {"time": 824, "annotation": {"number": 64, "value": 127}, "group": "control_change"}, {"time": 869, "annotation": {"number": 64, "value": 0}, "group": "control_change"}, {"time": 873, "annotation": {"number": 64, "value": 127}, "group": "control_change"}, {"time": 914, "annotation": {"number": 64, "value": 0}, "group": "control_change"}, {"time": 918, "annotation": {"number": 64, "value": 127}, "group": "control_change"}, {"time": 965, "annotation": {"number": 64, "value": 0}, "group": "control_change"}, {"time": 969, "annotation": {"number": 64, "value": 127}, "group": "control_change"}, {"time": 1009, "annotation": {"number": 64, "value": 0}, "group": "control_change"}, {"time": 1014, "annotation": {"number": 64, "value": 127}, "group": "control_change"}, {"time": 1060, "annotation": {"number": 64, "value": 0}, "group": "control_change"}, {"time": 1064, "annotation": {"number": 64, "value": 127}, "group": "control_change"}, {"time": 1109, "annotation": {"number": 64, "value": 0}, "group": "control_change"}, {"time": 1112, "annotation": {"number": 64, "value": 127}, "group": "control_change"}, {"time": 1136, "annotation": {"number": 64, "value": 0}, "group": "control_change"}, {"time": 1138, "annotation": {"number": 64, "value": 127}, "group": "control_change"}, {"time": 1154, "annotation": {"number": 64, "value": 0}, "group": "control_change"}, {"time": 1158, "annotation": {"number": 64, "value": 127}, "group": "control_change"}, {"time": 1204, "annotation": {"number": 64, "value": 0}, "group": "control_change"}, {"time": 1209, "annotation": {"number": 64, "value": 127}, "group": "control_change"}, {"time": 1251, "annotation": {"number": 64, "value": 0}, "group": "control_change"}, {"time": 1257, "annotation": {"number": 64, "value": 127}, "group": "control_change"}, {"time": 1300, "annotation": {"number": 64, "value": 0}, "group": "control_change"}, {"time": 1306, "annotation": {"number": 64, "value": 127}, "group": "control_change"}, {"time": 1347, "annotation": {"number": 64, "value": 0}, "group": "control_change"}, {"time": 1351, "annotation": {"number": 64, "value": 127}, "group": "control_change"}, {"time": 1370, "annotation": {"number": 64, "value": 0}, "group": "control_change"}, {"time": 1374, "annotation": {"number": 64, "value": 127}, "group": "control_change"}, {"time": 1390, "annotation": {"number": 64, "value": 0}, "group": "control_change"}, {"time": 1397, "annotation": {"number": 64, "value": 127}, "group": "control_change"}, {"time": 1444, "annotation": {"number": 64, "value": 0}, "group": "control_change"}, {"time": 1450, "annotation": {"number": 64, "value": 127}, "group": "control_change"}, {"time": 1493, "annotation": {"number": 64, "value": 0}, "group": "control_change"}, {"time": 1497, "annotation": {"number": 64, "value": 127}, "group": "control_change"}, {"time": 1540, "annotation": {"number": 64, "value": 0}, "group": "control_change"}, {"time": 1544, "annotation": {"number": 64, "value": 127}, "group": "control_change"}, {"time": 1585, "annotation": {"number": 64, "value": 0}, "group": "control_change"}, {"time": 1591, "annotation": {"number": 64, "value": 127}, "group": "control_change"}, {"time": 1614, "annotation": {"number": 64, "value": 0}, "group": "control_change"}, {"time": 1620, "annotation": {"number": 64, "value": 127}, "group": "control_change"}, {"time": 1637, "annotation": {"number": 64, "value": 0}, "group": "control_change"}, {"time": 1643, "annotation": {"number": 64, "value": 127}, "group": "control_change"}, {"time": 1686, "annotation": {"number": 64, "value": 0}, "group": "control_change"}, {"time": 1689, "annotation": {"number": 64, "value": 127}, "group": "control_change"}, {"time": 1714, "annotation": {"number": 64, "value": 0}, "group": "control_change"}, {"time": 1719, "annotation": {"number": 64, "value": 127}, "group": "control_change"}, {"time": 1729, "annotation": {"number": 64, "value": 127}, "group": "control_change"}, {"time": 1730, "annotation": {"number": 64, "value": 0}, "group": "control_change"}, {"time": 1731, "annotation": {"number": 64, "value": 0}, "group": "control_change"}, {"time": 1736, "annotation": {"number": 64, "value": 127}, "group": "control_change"}, {"time": 1780, "annotation": {"number": 64, "value": 0}, "group": "control_change"}, {"time": 1784, "annotation": {"number": 64, "value": 127}, "group": "control_change"}, {"time": 1828, "annotation": {"number": 64, "value": 0}, "group": "control_change"}, {"time": 1833, "annotation": {"number": 64, "value": 127}, "group": "control_change"}, {"time": 1875, "annotation": {"number": 64, "value": 0}, "group": "control_change"}, {"time": 1880, "annotation": {"number": 64, "value": 127}, "group": "control_change"}, {"time": 1921, "annotation": {"number": 64, "value": 0}, "group": "control_change"}, {"time": 1926, "annotation": {"number": 64, "value": 127}, "group": "control_change"}, {"time": 1952, "annotation": {"number": 64, "value": 0}, "group": "control_change"}, {"time": 1958, "annotation": {"number": 64, "value": 127}, "group": "control_change"}, {"time": 1975, "annotation": {"number": 64, "value": 0}, "group": "control_change"}, {"time": 1979, "annotation": {"number": 64, "value": 127}, "group": "control_change"}, {"time": 1995, "annotation": {"number": 64, "value": 0}, "group": "control_change"}, {"time": 2000, "annotation": {"number": 64, "value": 127}, "group": "control_change"}, {"time": 2017, "annotation": {"number": 64, "value": 0}, "group": "control_change"}, {"time": 2024, "annotation": {"number": 64, "value": 127}, "group": "control_change"}, {"time": 2119, "annotation": {"number": 64, "value": 0}, "group": "control_change"}, {"time": 2127, "annotation": {"number": 64, "value": 127}, "group": "control_change"}, {"time": 2213, "annotation": {"number": 64, "value": 0}, "group": "control_change"}, {"time": 2217, "annotation": {"number": 64, "value": 127}, "group": "control_change"}, {"time": 2308, "annotation": {"number": 64, "value": 0}, "group": "control_change"}, {"time": 2314, "annotation": {"number": 64, "value": 127}, "group": "control_change"}, {"time": 2374, "annotation": {"number": 64, "value": 0}, "group": "control_change"}, {"time": 2377, "annotation": {"number": 64, "value": 127}, "group": "control_change"}, {"time": 2401, "annotation": {"number": 64, "value": 0}, "group": "control_change"}, {"time": 2404, "annotation": {"number": 64, "value": 127}, "group": "control_change"}, {"time": 2452, "annotation": {"number": 64, "value": 0}, "group": "control_change"}, {"time": 2455, "annotation": {"number": 64, "value": 127}, "group": "control_change"}, {"time": 2498, "annotation": {"number": 64, "value": 0}, "group": "control_change"}, {"time": 2501, "annotation": {"number": 64, "value": 127}, "group": "control_change"}, {"time": 2547, "annotation": {"number": 64, "value": 0}, "group": "control_change"}, {"time": 2552, "annotation": {"number": 64, "value": 127}, "group": "control_change"}, {"time": 2595, "annotation": {"number": 64, "value": 0}, "group": "control_change"}, {"time": 2601, "annotation": {"number": 64, "value": 127}, "group": "control_change"}, {"time": 2646, "annotation": {"number": 64, "value": 0}, "group": "control_change"}]}]}