{"metadata": {"schema_version": "0.2", "title": "None", "source_filename": "157.mid", "source_format": "midi"}, "resolution": 12, "tempos": [{"time": 0, "qpm": 100.0}], "key_signatures": [{"time": 0, "root": 0, "mode": "major"}], "time_signatures": [{"time": 0, "numerator": 4, "denominator": 4}, {"time": 0, "numerator": 1, "denominator": 4}], "tracks": [{"program": 0, "is_drum": false, "name": "MELODY", "notes": [{"time": 119, "pitch": 87, "duration": 66, "velocity": 85}, {"time": 191, "pitch": 85, "duration": 6, "velocity": 87}, {"time": 197, "pitch": 87, "duration": 7, "velocity": 98}, {"time": 203, "pitch": 85, "duration": 6, "velocity": 83}, {"time": 209, "pitch": 80, "duration": 7, "velocity": 72}, {"time": 215, "pitch": 87, "duration": 49, "velocity": 93}, {"time": 287, "pitch": 85, "duration": 6, "velocity": 83}, {"time": 293, "pitch": 87, "duration": 6, "velocity": 74}, {"time": 299, "pitch": 80, "duration": 13, "velocity": 68}, {"time": 311, "pitch": 85, "duration": 68, "velocity": 98}, {"time": 383, "pitch": 83, "duration": 6, "velocity": 73}, {"time": 389, "pitch": 85, "duration": 6, "velocity": 83}, {"time": 395, "pitch": 83, "duration": 12, "velocity": 79}, {"time": 407, "pitch": 80, "duration": 74, "velocity": 81}, {"time": 887, "pitch": 80, "duration": 3, "velocity": 87}, {"time": 893, "pitch": 80, "duration": 3, "velocity": 73}, {"time": 899, "pitch": 80, "duration": 3, "velocity": 81}, {"time": 905, "pitch": 80, "duration": 3, "velocity": 85}, {"time": 911, "pitch": 80, "duration": 7, "velocity": 86}, {"time": 923, "pitch": 75, "duration": 3, "velocity": 67}, {"time": 929, "pitch": 75, "duration": 4, "velocity": 74}, {"time": 935, "pitch": 78, "duration": 7, "velocity": 72}, {"time": 941, "pitch": 80, "duration": 4, "velocity": 68}, {"time": 947, "pitch": 82, "duration": 8, "velocity": 90}, {"time": 959, "pitch": 80, "duration": 18, "velocity": 87}, {"time": 983, "pitch": 80, "duration": 3, "velocity": 74}, {"time": 989, "pitch": 80, "duration": 2, "velocity": 68}, {"time": 995, "pitch": 80, "duration": 3, "velocity": 72}, {"time": 998, "pitch": 82, "duration": 4, "velocity": 93}, {"time": 1007, "pitch": 80, "duration": 7, "velocity": 76}, {"time": 1019, "pitch": 78, "duration": 5, "velocity": 79}, {"time": 1025, "pitch": 80, "duration": 7, "velocity": 66}, {"time": 1031, "pitch": 75, "duration": 45, "velocity": 83}, {"time": 1079, "pitch": 73, "duration": 3, "velocity": 74}, {"time": 1085, "pitch": 73, "duration": 2, "velocity": 79}, {"time": 1091, "pitch": 73, "duration": 2, "velocity": 79}, {"time": 1097, "pitch": 73, "duration": 3, "velocity": 74}, {"time": 1103, "pitch": 73, "duration": 6, "velocity": 93}, {"time": 1115, "pitch": 71, "duration": 6, "velocity": 74}, {"time": 1121, "pitch": 68, "duration": 6, "velocity": 60}, {"time": 1127, "pitch": 71, "duration": 7, "velocity": 73}, {"time": 1133, "pitch": 73, "duration": 4, "velocity": 85}, {"time": 1139, "pitch": 75, "duration": 7, "velocity": 74}, {"time": 1151, "pitch": 73, "duration": 19, "velocity": 79}, {"time": 1175, "pitch": 73, "duration": 2, "velocity": 72}, {"time": 1181, "pitch": 73, "duration": 2, "velocity": 72}, {"time": 1187, "pitch": 73, "duration": 3, "velocity": 67}, {"time": 1193, "pitch": 75, "duration": 3, "velocity": 64}, {"time": 1199, "pitch": 73, "duration": 5, "velocity": 69}, {"time": 1205, "pitch": 71, "duration": 4, "velocity": 60}, {"time": 1211, "pitch": 68, "duration": 4, "velocity": 54}, {"time": 1217, "pitch": 71, "duration": 6, "velocity": 68}, {"time": 1223, "pitch": 68, "duration": 48, "velocity": 63}, {"time": 1271, "pitch": 80, "duration": 3, "velocity": 87}, {"time": 1277, "pitch": 80, "duration": 3, "velocity": 73}, {"time": 1283, "pitch": 80, "duration": 3, "velocity": 81}, {"time": 1289, "pitch": 80, "duration": 3, "velocity": 85}, {"time": 1295, "pitch": 80, "duration": 7, "velocity": 86}, {"time": 1307, "pitch": 75, "duration": 3, "velocity": 67}, {"time": 1313, "pitch": 75, "duration": 4, "velocity": 74}, {"time": 1319, "pitch": 78, "duration": 7, "velocity": 72}, {"time": 1325, "pitch": 80, "duration": 4, "velocity": 68}, {"time": 1331, "pitch": 82, "duration": 8, "velocity": 90}, {"time": 1343, "pitch": 80, "duration": 18, "velocity": 87}, {"time": 1367, "pitch": 80, "duration": 3, "velocity": 74}, {"time": 1373, "pitch": 80, "duration": 2, "velocity": 68}, {"time": 1379, "pitch": 80, "duration": 3, "velocity": 72}, {"time": 1382, "pitch": 82, "duration": 4, "velocity": 93}, {"time": 1391, "pitch": 80, "duration": 7, "velocity": 76}, {"time": 1403, "pitch": 78, "duration": 5, "velocity": 79}, {"time": 1409, "pitch": 80, "duration": 7, "velocity": 66}, {"time": 1415, "pitch": 75, "duration": 45, "velocity": 83}, {"time": 1463, "pitch": 73, "duration": 3, "velocity": 74}, {"time": 1469, "pitch": 73, "duration": 2, "velocity": 79}, {"time": 1481, "pitch": 73, "duration": 3, "velocity": 74}, {"time": 1487, "pitch": 73, "duration": 6, "velocity": 93}, {"time": 1499, "pitch": 71, "duration": 6, "velocity": 74}, {"time": 1505, "pitch": 68, "duration": 6, "velocity": 60}, {"time": 1511, "pitch": 71, "duration": 7, "velocity": 73}, {"time": 1517, "pitch": 73, "duration": 4, "velocity": 85}, {"time": 1523, "pitch": 75, "duration": 7, "velocity": 74}, {"time": 1535, "pitch": 73, "duration": 19, "velocity": 79}, {"time": 1559, "pitch": 73, "duration": 2, "velocity": 72}, {"time": 1565, "pitch": 73, "duration": 2, "velocity": 72}, {"time": 1571, "pitch": 73, "duration": 3, "velocity": 67}, {"time": 1577, "pitch": 75, "duration": 3, "velocity": 64}, {"time": 1583, "pitch": 73, "duration": 5, "velocity": 69}, {"time": 1589, "pitch": 71, "duration": 4, "velocity": 60}, {"time": 1595, "pitch": 68, "duration": 4, "velocity": 54}, {"time": 1601, "pitch": 71, "duration": 6, "velocity": 68}, {"time": 1607, "pitch": 68, "duration": 48, "velocity": 63}, {"time": 1703, "pitch": 80, "duration": 3, "velocity": 68}, {"time": 1709, "pitch": 80, "duration": 2, "velocity": 74}, {"time": 1715, "pitch": 80, "duration": 3, "velocity": 76}, {"time": 1721, "pitch": 83, "duration": 2, "velocity": 93}, {"time": 1727, "pitch": 83, "duration": 8, "velocity": 93}, {"time": 1739, "pitch": 80, "duration": 2, "velocity": 81}, {"time": 1745, "pitch": 80, "duration": 5, "velocity": 77}, {"time": 1751, "pitch": 83, "duration": 3, "velocity": 87}, {"time": 1757, "pitch": 85, "duration": 2, "velocity": 87}, {"time": 1763, "pitch": 87, "duration": 9, "velocity": 111}, {"time": 1775, "pitch": 85, "duration": 18, "velocity": 117}, {"time": 1799, "pitch": 85, "duration": 3, "velocity": 111}, {"time": 1805, "pitch": 85, "duration": 2, "velocity": 90}, {"time": 1811, "pitch": 85, "duration": 3, "velocity": 111}, {"time": 1817, "pitch": 87, "duration": 3, "velocity": 98}, {"time": 1823, "pitch": 85, "duration": 8, "velocity": 95}, {"time": 1829, "pitch": 83, "duration": 4, "velocity": 77}, {"time": 1835, "pitch": 80, "duration": 2, "velocity": 70}, {"time": 1841, "pitch": 83, "duration": 3, "velocity": 95}, {"time": 1847, "pitch": 80, "duration": 44, "velocity": 86}, {"time": 1889, "pitch": 75, "duration": 4, "velocity": 76}, {"time": 1895, "pitch": 73, "duration": 17, "velocity": 85}, {"time": 1913, "pitch": 75, "duration": 2, "velocity": 68}, {"time": 1919, "pitch": 78, "duration": 7, "velocity": 93}, {"time": 1928, "pitch": 75, "duration": 15, "velocity": 83}, {"time": 1943, "pitch": 78, "duration": 7, "velocity": 86}, {"time": 1949, "pitch": 80, "duration": 3, "velocity": 63}, {"time": 1955, "pitch": 83, "duration": 3, "velocity": 72}, {"time": 1961, "pitch": 85, "duration": 3, "velocity": 83}, {"time": 1964, "pitch": 83, "duration": 3, "velocity": 79}, {"time": 1967, "pitch": 80, "duration": 21, "velocity": 77}, {"time": 1991, "pitch": 85, "duration": 3, "velocity": 85}, {"time": 1997, "pitch": 85, "duration": 2, "velocity": 104}, {"time": 2003, "pitch": 85, "duration": 3, "velocity": 112}, {"time": 2009, "pitch": 85, "duration": 2, "velocity": 104}, {"time": 2015, "pitch": 85, "duration": 3, "velocity": 117}, {"time": 2021, "pitch": 83, "duration": 2, "velocity": 90}, {"time": 2027, "pitch": 83, "duration": 3, "velocity": 85}, {"time": 2033, "pitch": 85, "duration": 2, "velocity": 104}, {"time": 2039, "pitch": 87, "duration": 16, "velocity": 112}, {"time": 2087, "pitch": 80, "duration": 3, "velocity": 68}, {"time": 2093, "pitch": 80, "duration": 2, "velocity": 74}, {"time": 2099, "pitch": 80, "duration": 3, "velocity": 76}, {"time": 2105, "pitch": 83, "duration": 2, "velocity": 93}, {"time": 2111, "pitch": 83, "duration": 8, "velocity": 93}, {"time": 2123, "pitch": 80, "duration": 2, "velocity": 81}, {"time": 2129, "pitch": 80, "duration": 5, "velocity": 77}, {"time": 2135, "pitch": 83, "duration": 3, "velocity": 87}, {"time": 2141, "pitch": 85, "duration": 2, "velocity": 87}, {"time": 2147, "pitch": 87, "duration": 9, "velocity": 111}, {"time": 2159, "pitch": 85, "duration": 18, "velocity": 117}, {"time": 2183, "pitch": 85, "duration": 3, "velocity": 111}, {"time": 2189, "pitch": 85, "duration": 2, "velocity": 90}, {"time": 2195, "pitch": 85, "duration": 3, "velocity": 111}, {"time": 2201, "pitch": 87, "duration": 3, "velocity": 98}, {"time": 2207, "pitch": 85, "duration": 8, "velocity": 95}, {"time": 2213, "pitch": 83, "duration": 4, "velocity": 77}, {"time": 2219, "pitch": 80, "duration": 2, "velocity": 70}, {"time": 2225, "pitch": 83, "duration": 3, "velocity": 95}, {"time": 2231, "pitch": 80, "duration": 44, "velocity": 86}, {"time": 2273, "pitch": 75, "duration": 4, "velocity": 76}, {"time": 2279, "pitch": 73, "duration": 17, "velocity": 85}, {"time": 2297, "pitch": 75, "duration": 2, "velocity": 68}, {"time": 2303, "pitch": 78, "duration": 7, "velocity": 93}, {"time": 2312, "pitch": 75, "duration": 15, "velocity": 83}, {"time": 2327, "pitch": 78, "duration": 7, "velocity": 86}, {"time": 2333, "pitch": 80, "duration": 3, "velocity": 63}, {"time": 2339, "pitch": 83, "duration": 3, "velocity": 72}, {"time": 2345, "pitch": 85, "duration": 3, "velocity": 83}, {"time": 2348, "pitch": 83, "duration": 3, "velocity": 79}, {"time": 2351, "pitch": 80, "duration": 21, "velocity": 77}, {"time": 2375, "pitch": 78, "duration": 3, "velocity": 90}, {"time": 2381, "pitch": 78, "duration": 3, "velocity": 83}, {"time": 2387, "pitch": 78, "duration": 5, "velocity": 98}, {"time": 2393, "pitch": 75, "duration": 8, "velocity": 69}, {"time": 2399, "pitch": 78, "duration": 7, "velocity": 70}, {"time": 2405, "pitch": 80, "duration": 3, "velocity": 75}, {"time": 2411, "pitch": 83, "duration": 3, "velocity": 86}, {"time": 2417, "pitch": 82, "duration": 3, "velocity": 83}, {"time": 2423, "pitch": 80, "duration": 36, "velocity": 85}, {"time": 2459, "pitch": 83, "duration": 5, "velocity": 93}, {"time": 2465, "pitch": 85, "duration": 2, "velocity": 87}, {"time": 2471, "pitch": 87, "duration": 67, "velocity": 112}, {"time": 2543, "pitch": 85, "duration": 8, "velocity": 87}, {"time": 2549, "pitch": 87, "duration": 6, "velocity": 74}, {"time": 2555, "pitch": 90, "duration": 7, "velocity": 90}, {"time": 2561, "pitch": 92, "duration": 7, "velocity": 100}, {"time": 2567, "pitch": 87, "duration": 66, "velocity": 85}, {"time": 2639, "pitch": 80, "duration": 13, "velocity": 81}, {"time": 2651, "pitch": 83, "duration": 4, "velocity": 74}, {"time": 2657, "pitch": 87, "duration": 2, "velocity": 104}, {"time": 2663, "pitch": 85, "duration": 71, "velocity": 111}, {"time": 2735, "pitch": 85, "duration": 6, "velocity": 83}, {"time": 2741, "pitch": 87, "duration": 7, "velocity": 83}, {"time": 2747, "pitch": 85, "duration": 7, "velocity": 77}, {"time": 2753, "pitch": 83, "duration": 7, "velocity": 61}, {"time": 2759, "pitch": 80, "duration": 92, "velocity": 75}, {"time": 2855, "pitch": 80, "duration": 3, "velocity": 87}, {"time": 2861, "pitch": 80, "duration": 3, "velocity": 73}, {"time": 2867, "pitch": 80, "duration": 3, "velocity": 81}, {"time": 2873, "pitch": 80, "duration": 3, "velocity": 85}, {"time": 2879, "pitch": 80, "duration": 7, "velocity": 86}, {"time": 2891, "pitch": 75, "duration": 3, "velocity": 67}, {"time": 2897, "pitch": 75, "duration": 4, "velocity": 74}, {"time": 2903, "pitch": 78, "duration": 7, "velocity": 72}, {"time": 2909, "pitch": 80, "duration": 4, "velocity": 68}, {"time": 2915, "pitch": 82, "duration": 8, "velocity": 90}, {"time": 2927, "pitch": 80, "duration": 18, "velocity": 87}, {"time": 2951, "pitch": 80, "duration": 3, "velocity": 74}, {"time": 2957, "pitch": 80, "duration": 2, "velocity": 68}, {"time": 2963, "pitch": 80, "duration": 3, "velocity": 72}, {"time": 2969, "pitch": 82, "duration": 4, "velocity": 93}, {"time": 2975, "pitch": 80, "duration": 7, "velocity": 76}, {"time": 2987, "pitch": 75, "duration": 5, "velocity": 79}, {"time": 2993, "pitch": 78, "duration": 7, "velocity": 66}, {"time": 2999, "pitch": 75, "duration": 45, "velocity": 83}, {"time": 3047, "pitch": 73, "duration": 3, "velocity": 74}, {"time": 3053, "pitch": 73, "duration": 2, "velocity": 79}, {"time": 3059, "pitch": 73, "duration": 2, "velocity": 79}, {"time": 3065, "pitch": 73, "duration": 3, "velocity": 74}, {"time": 3071, "pitch": 73, "duration": 6, "velocity": 93}, {"time": 3083, "pitch": 71, "duration": 6, "velocity": 74}, {"time": 3089, "pitch": 68, "duration": 6, "velocity": 60}, {"time": 3095, "pitch": 71, "duration": 7, "velocity": 73}, {"time": 3101, "pitch": 73, "duration": 4, "velocity": 85}, {"time": 3107, "pitch": 75, "duration": 7, "velocity": 74}, {"time": 3119, "pitch": 73, "duration": 19, "velocity": 79}, {"time": 3143, "pitch": 73, "duration": 2, "velocity": 72}, {"time": 3149, "pitch": 73, "duration": 2, "velocity": 72}, {"time": 3155, "pitch": 73, "duration": 3, "velocity": 67}, {"time": 3161, "pitch": 75, "duration": 3, "velocity": 64}, {"time": 3167, "pitch": 73, "duration": 5, "velocity": 69}, {"time": 3173, "pitch": 71, "duration": 4, "velocity": 60}, {"time": 3179, "pitch": 68, "duration": 4, "velocity": 54}, {"time": 3185, "pitch": 71, "duration": 6, "velocity": 68}, {"time": 3191, "pitch": 68, "duration": 48, "velocity": 63}, {"time": 3239, "pitch": 80, "duration": 3, "velocity": 68}, {"time": 3245, "pitch": 80, "duration": 2, "velocity": 74}, {"time": 3251, "pitch": 80, "duration": 3, "velocity": 76}, {"time": 3257, "pitch": 83, "duration": 2, "velocity": 93}, {"time": 3263, "pitch": 83, "duration": 8, "velocity": 93}, {"time": 3275, "pitch": 80, "duration": 2, "velocity": 81}, {"time": 3281, "pitch": 80, "duration": 5, "velocity": 77}, {"time": 3287, "pitch": 83, "duration": 3, "velocity": 87}, {"time": 3293, "pitch": 85, "duration": 2, "velocity": 87}, {"time": 3299, "pitch": 87, "duration": 9, "velocity": 111}, {"time": 3311, "pitch": 85, "duration": 18, "velocity": 117}, {"time": 3335, "pitch": 85, "duration": 3, "velocity": 111}, {"time": 3341, "pitch": 85, "duration": 2, "velocity": 90}, {"time": 3347, "pitch": 85, "duration": 3, "velocity": 111}, {"time": 3353, "pitch": 87, "duration": 3, "velocity": 98}, {"time": 3359, "pitch": 85, "duration": 8, "velocity": 95}, {"time": 3365, "pitch": 83, "duration": 4, "velocity": 77}, {"time": 3371, "pitch": 80, "duration": 2, "velocity": 70}, {"time": 3377, "pitch": 83, "duration": 3, "velocity": 95}, {"time": 3383, "pitch": 80, "duration": 40, "velocity": 86}, {"time": 3425, "pitch": 75, "duration": 4, "velocity": 76}, {"time": 3431, "pitch": 73, "duration": 17, "velocity": 85}, {"time": 3449, "pitch": 75, "duration": 2, "velocity": 68}, {"time": 3455, "pitch": 78, "duration": 7, "velocity": 93}, {"time": 3467, "pitch": 75, "duration": 12, "velocity": 83}, {"time": 3479, "pitch": 78, "duration": 7, "velocity": 86}, {"time": 3485, "pitch": 80, "duration": 3, "velocity": 63}, {"time": 3491, "pitch": 83, "duration": 3, "velocity": 72}, {"time": 3497, "pitch": 85, "duration": 3, "velocity": 83}, {"time": 3500, "pitch": 83, "duration": 3, "velocity": 79}, {"time": 3503, "pitch": 80, "duration": 21, "velocity": 77}, {"time": 3527, "pitch": 85, "duration": 3, "velocity": 85}, {"time": 3533, "pitch": 85, "duration": 2, "velocity": 104}, {"time": 3539, "pitch": 85, "duration": 3, "velocity": 112}, {"time": 3545, "pitch": 85, "duration": 2, "velocity": 104}, {"time": 3551, "pitch": 85, "duration": 3, "velocity": 117}, {"time": 3557, "pitch": 83, "duration": 2, "velocity": 90}, {"time": 3563, "pitch": 83, "duration": 3, "velocity": 85}, {"time": 3569, "pitch": 85, "duration": 2, "velocity": 104}, {"time": 3575, "pitch": 87, "duration": 36, "velocity": 112}, {"time": 3623, "pitch": 80, "duration": 3, "velocity": 68}, {"time": 3629, "pitch": 80, "duration": 2, "velocity": 74}, {"time": 3635, "pitch": 80, "duration": 3, "velocity": 76}, {"time": 3641, "pitch": 83, "duration": 2, "velocity": 93}, {"time": 3647, "pitch": 83, "duration": 8, "velocity": 93}, {"time": 3659, "pitch": 80, "duration": 2, "velocity": 81}, {"time": 3665, "pitch": 80, "duration": 5, "velocity": 77}, {"time": 3671, "pitch": 83, "duration": 3, "velocity": 87}, {"time": 3677, "pitch": 85, "duration": 2, "velocity": 87}, {"time": 3683, "pitch": 87, "duration": 9, "velocity": 111}, {"time": 3695, "pitch": 85, "duration": 18, "velocity": 117}, {"time": 3719, "pitch": 85, "duration": 3, "velocity": 111}, {"time": 3725, "pitch": 85, "duration": 2, "velocity": 90}, {"time": 3731, "pitch": 85, "duration": 3, "velocity": 111}, {"time": 3737, "pitch": 87, "duration": 3, "velocity": 98}, {"time": 3743, "pitch": 85, "duration": 8, "velocity": 95}, {"time": 3749, "pitch": 83, "duration": 4, "velocity": 77}, {"time": 3755, "pitch": 80, "duration": 2, "velocity": 70}, {"time": 3761, "pitch": 83, "duration": 3, "velocity": 95}, {"time": 3767, "pitch": 80, "duration": 44, "velocity": 86}, {"time": 3809, "pitch": 75, "duration": 4, "velocity": 76}, {"time": 3815, "pitch": 73, "duration": 17, "velocity": 85}, {"time": 3833, "pitch": 75, "duration": 2, "velocity": 68}, {"time": 3839, "pitch": 78, "duration": 7, "velocity": 93}, {"time": 3848, "pitch": 75, "duration": 15, "velocity": 83}, {"time": 3863, "pitch": 78, "duration": 7, "velocity": 86}, {"time": 3869, "pitch": 80, "duration": 3, "velocity": 63}, {"time": 3875, "pitch": 83, "duration": 3, "velocity": 72}, {"time": 3881, "pitch": 85, "duration": 3, "velocity": 83}, {"time": 3884, "pitch": 83, "duration": 3, "velocity": 79}, {"time": 3887, "pitch": 80, "duration": 21, "velocity": 77}, {"time": 3911, "pitch": 78, "duration": 3, "velocity": 90}, {"time": 3917, "pitch": 78, "duration": 3, "velocity": 83}, {"time": 3923, "pitch": 78, "duration": 5, "velocity": 98}, {"time": 3929, "pitch": 75, "duration": 8, "velocity": 69}, {"time": 3935, "pitch": 78, "duration": 7, "velocity": 70}, {"time": 3941, "pitch": 80, "duration": 3, "velocity": 75}, {"time": 3947, "pitch": 83, "duration": 3, "velocity": 86}, {"time": 3953, "pitch": 82, "duration": 3, "velocity": 83}, {"time": 3959, "pitch": 80, "duration": 36, "velocity": 85}, {"time": 4007, "pitch": 80, "duration": 3, "velocity": 68}, {"time": 4013, "pitch": 80, "duration": 2, "velocity": 74}, {"time": 4019, "pitch": 80, "duration": 3, "velocity": 76}, {"time": 4025, "pitch": 83, "duration": 2, "velocity": 93}, {"time": 4031, "pitch": 83, "duration": 8, "velocity": 93}, {"time": 4043, "pitch": 80, "duration": 2, "velocity": 81}, {"time": 4049, "pitch": 80, "duration": 5, "velocity": 77}, {"time": 4055, "pitch": 83, "duration": 3, "velocity": 87}, {"time": 4061, "pitch": 85, "duration": 2, "velocity": 87}, {"time": 4067, "pitch": 87, "duration": 9, "velocity": 111}, {"time": 4079, "pitch": 85, "duration": 18, "velocity": 117}, {"time": 4103, "pitch": 85, "duration": 3, "velocity": 111}, {"time": 4109, "pitch": 85, "duration": 2, "velocity": 90}, {"time": 4115, "pitch": 85, "duration": 3, "velocity": 111}, {"time": 4121, "pitch": 87, "duration": 3, "velocity": 98}, {"time": 4127, "pitch": 85, "duration": 8, "velocity": 95}, {"time": 4133, "pitch": 83, "duration": 4, "velocity": 77}, {"time": 4139, "pitch": 80, "duration": 2, "velocity": 70}, {"time": 4145, "pitch": 83, "duration": 3, "velocity": 95}, {"time": 4151, "pitch": 80, "duration": 44, "velocity": 86}, {"time": 4193, "pitch": 75, "duration": 4, "velocity": 76}, {"time": 4199, "pitch": 73, "duration": 17, "velocity": 85}, {"time": 4223, "pitch": 78, "duration": 7, "velocity": 93}, {"time": 4235, "pitch": 75, "duration": 12, "velocity": 83}, {"time": 4247, "pitch": 78, "duration": 7, "velocity": 86}, {"time": 4253, "pitch": 80, "duration": 3, "velocity": 63}, {"time": 4259, "pitch": 83, "duration": 3, "velocity": 72}, {"time": 4265, "pitch": 85, "duration": 3, "velocity": 83}, {"time": 4268, "pitch": 83, "duration": 3, "velocity": 79}, {"time": 4271, "pitch": 80, "duration": 21, "velocity": 77}, {"time": 4295, "pitch": 85, "duration": 3, "velocity": 85}, {"time": 4301, "pitch": 85, "duration": 2, "velocity": 104}, {"time": 4307, "pitch": 85, "duration": 3, "velocity": 112}, {"time": 4313, "pitch": 85, "duration": 2, "velocity": 104}, {"time": 4319, "pitch": 85, "duration": 3, "velocity": 117}, {"time": 4325, "pitch": 83, "duration": 2, "velocity": 90}, {"time": 4331, "pitch": 83, "duration": 3, "velocity": 85}, {"time": 4337, "pitch": 85, "duration": 2, "velocity": 104}, {"time": 4343, "pitch": 87, "duration": 16, "velocity": 112}, {"time": 4391, "pitch": 80, "duration": 3, "velocity": 68}, {"time": 4397, "pitch": 80, "duration": 2, "velocity": 74}, {"time": 4403, "pitch": 80, "duration": 3, "velocity": 76}, {"time": 4409, "pitch": 83, "duration": 2, "velocity": 93}, {"time": 4415, "pitch": 83, "duration": 8, "velocity": 93}, {"time": 4426, "pitch": 80, "duration": 3, "velocity": 81}, {"time": 4432, "pitch": 80, "duration": 5, "velocity": 77}, {"time": 4438, "pitch": 83, "duration": 3, "velocity": 87}, {"time": 4444, "pitch": 85, "duration": 2, "velocity": 87}, {"time": 4450, "pitch": 87, "duration": 9, "velocity": 111}, {"time": 4462, "pitch": 85, "duration": 19, "velocity": 117}, {"time": 4486, "pitch": 85, "duration": 3, "velocity": 111}, {"time": 4492, "pitch": 85, "duration": 3, "velocity": 90}, {"time": 4498, "pitch": 85, "duration": 3, "velocity": 111}, {"time": 4504, "pitch": 87, "duration": 3, "velocity": 98}, {"time": 4510, "pitch": 85, "duration": 9, "velocity": 95}, {"time": 4516, "pitch": 83, "duration": 5, "velocity": 77}, {"time": 4522, "pitch": 80, "duration": 3, "velocity": 70}, {"time": 4528, "pitch": 83, "duration": 3, "velocity": 95}, {"time": 4534, "pitch": 80, "duration": 36, "velocity": 86}, {"time": 4576, "pitch": 75, "duration": 4, "velocity": 76}, {"time": 4582, "pitch": 73, "duration": 17, "velocity": 85}, {"time": 4600, "pitch": 75, "duration": 3, "velocity": 68}, {"time": 4606, "pitch": 78, "duration": 8, "velocity": 93}, {"time": 4615, "pitch": 75, "duration": 15, "velocity": 83}, {"time": 4630, "pitch": 78, "duration": 7, "velocity": 86}, {"time": 4636, "pitch": 80, "duration": 4, "velocity": 63}, {"time": 4642, "pitch": 83, "duration": 3, "velocity": 72}, {"time": 4648, "pitch": 85, "duration": 3, "velocity": 83}, {"time": 4651, "pitch": 83, "duration": 3, "velocity": 79}, {"time": 4654, "pitch": 80, "duration": 21, "velocity": 77}, {"time": 4678, "pitch": 78, "duration": 3, "velocity": 90}, {"time": 4684, "pitch": 78, "duration": 3, "velocity": 83}, {"time": 4690, "pitch": 78, "duration": 5, "velocity": 98}, {"time": 4696, "pitch": 75, "duration": 8, "velocity": 69}, {"time": 4702, "pitch": 78, "duration": 7, "velocity": 70}, {"time": 4708, "pitch": 80, "duration": 3, "velocity": 75}, {"time": 4714, "pitch": 83, "duration": 4, "velocity": 86}, {"time": 4720, "pitch": 82, "duration": 3, "velocity": 83}, {"time": 4726, "pitch": 80, "duration": 36, "velocity": 85}, {"time": 4768, "pitch": 75, "duration": 4, "velocity": 76}, {"time": 4774, "pitch": 73, "duration": 17, "velocity": 85}, {"time": 4792, "pitch": 75, "duration": 3, "velocity": 68}, {"time": 4798, "pitch": 78, "duration": 8, "velocity": 93}, {"time": 4807, "pitch": 75, "duration": 15, "velocity": 83}, {"time": 4822, "pitch": 78, "duration": 7, "velocity": 86}, {"time": 4828, "pitch": 80, "duration": 4, "velocity": 63}, {"time": 4834, "pitch": 83, "duration": 3, "velocity": 72}, {"time": 4840, "pitch": 85, "duration": 3, "velocity": 83}, {"time": 4843, "pitch": 83, "duration": 3, "velocity": 79}, {"time": 4846, "pitch": 80, "duration": 21, "velocity": 77}, {"time": 4871, "pitch": 78, "duration": 3, "velocity": 67}, {"time": 4879, "pitch": 78, "duration": 3, "velocity": 67}, {"time": 4887, "pitch": 78, "duration": 7, "velocity": 66}, {"time": 4894, "pitch": 75, "duration": 10, "velocity": 59}, {"time": 4903, "pitch": 78, "duration": 13, "velocity": 67}, {"time": 4911, "pitch": 80, "duration": 9, "velocity": 64}, {"time": 4919, "pitch": 83, "duration": 19, "velocity": 59}, {"time": 4938, "pitch": 82, "duration": 20, "velocity": 71}, {"time": 4956, "pitch": 80, "duration": 65, "velocity": 64}, {"time": 4974, "pitch": 85, "duration": 1, "velocity": 36}]}, {"program": 0, "is_drum": false, "name": "PIANO", "notes": [{"time": 23, "pitch": 56, "duration": 96, "velocity": 61}, {"time": 23, "pitch": 71, "duration": 81, "velocity": 54}, {"time": 23, "pitch": 75, "duration": 81, "velocity": 63}, {"time": 29, "pitch": 63, "duration": 82, "velocity": 44}, {"time": 41, "pitch": 68, "duration": 65, "velocity": 10}, {"time": 47, "pitch": 80, "duration": 59, "velocity": 61}, {"time": 107, "pitch": 71, "duration": 108, "velocity": 63}, {"time": 113, "pitch": 75, "duration": 21, "velocity": 61}, {"time": 119, "pitch": 56, "duration": 95, "velocity": 59}, {"time": 125, "pitch": 63, "duration": 90, "velocity": 64}, {"time": 131, "pitch": 68, "duration": 18, "velocity": 43}, {"time": 137, "pitch": 75, "duration": 77, "velocity": 63}, {"time": 155, "pitch": 68, "duration": 58, "velocity": 56}, {"time": 167, "pitch": 80, "duration": 45, "velocity": 64}, {"time": 215, "pitch": 52, "duration": 86, "velocity": 74}, {"time": 215, "pitch": 68, "duration": 21, "velocity": 54}, {"time": 215, "pitch": 71, "duration": 22, "velocity": 59}, {"time": 215, "pitch": 76, "duration": 22, "velocity": 70}, {"time": 221, "pitch": 59, "duration": 87, "velocity": 76}, {"time": 227, "pitch": 64, "duration": 12, "velocity": 54}, {"time": 239, "pitch": 68, "duration": 21, "velocity": 46}, {"time": 239, "pitch": 71, "duration": 22, "velocity": 51}, {"time": 239, "pitch": 76, "duration": 22, "velocity": 52}, {"time": 251, "pitch": 64, "duration": 12, "velocity": 52}, {"time": 263, "pitch": 68, "duration": 21, "velocity": 59}, {"time": 263, "pitch": 71, "duration": 21, "velocity": 54}, {"time": 263, "pitch": 76, "duration": 22, "velocity": 59}, {"time": 275, "pitch": 64, "duration": 12, "velocity": 55}, {"time": 287, "pitch": 68, "duration": 13, "velocity": 67}, {"time": 287, "pitch": 71, "duration": 13, "velocity": 71}, {"time": 287, "pitch": 76, "duration": 13, "velocity": 74}, {"time": 299, "pitch": 64, "duration": 9, "velocity": 58}, {"time": 311, "pitch": 54, "duration": 93, "velocity": 74}, {"time": 311, "pitch": 70, "duration": 17, "velocity": 64}, {"time": 311, "pitch": 73, "duration": 20, "velocity": 64}, {"time": 311, "pitch": 78, "duration": 43, "velocity": 71}, {"time": 317, "pitch": 61, "duration": 91, "velocity": 61}, {"time": 323, "pitch": 66, "duration": 12, "velocity": 54}, {"time": 329, "pitch": 70, "duration": 28, "velocity": 62}, {"time": 335, "pitch": 73, "duration": 15, "velocity": 59}, {"time": 341, "pitch": 66, "duration": 44, "velocity": 53}, {"time": 353, "pitch": 73, "duration": 3, "velocity": 40}, {"time": 359, "pitch": 70, "duration": 22, "velocity": 60}, {"time": 359, "pitch": 73, "duration": 22, "velocity": 60}, {"time": 359, "pitch": 78, "duration": 22, "velocity": 66}, {"time": 383, "pitch": 70, "duration": 20, "velocity": 65}, {"time": 383, "pitch": 73, "duration": 22, "velocity": 64}, {"time": 383, "pitch": 78, "duration": 22, "velocity": 69}, {"time": 389, "pitch": 66, "duration": 3, "velocity": 37}, {"time": 395, "pitch": 66, "duration": 12, "velocity": 57}, {"time": 407, "pitch": 56, "duration": 90, "velocity": 68}, {"time": 407, "pitch": 71, "duration": 45, "velocity": 73}, {"time": 413, "pitch": 63, "duration": 84, "velocity": 65}, {"time": 419, "pitch": 68, "duration": 75, "velocity": 58}, {"time": 425, "pitch": 75, "duration": 26, "velocity": 62}, {"time": 425, "pitch": 80, "duration": 26, "velocity": 64}, {"time": 455, "pitch": 71, "duration": 43, "velocity": 67}, {"time": 455, "pitch": 75, "duration": 43, "velocity": 74}, {"time": 455, "pitch": 80, "duration": 42, "velocity": 66}, {"time": 503, "pitch": 56, "duration": 33, "velocity": 71}, {"time": 503, "pitch": 71, "duration": 21, "velocity": 66}, {"time": 503, "pitch": 75, "duration": 21, "velocity": 75}, {"time": 503, "pitch": 80, "duration": 20, "velocity": 70}, {"time": 509, "pitch": 63, "duration": 21, "velocity": 70}, {"time": 515, "pitch": 68, "duration": 12, "velocity": 55}, {"time": 527, "pitch": 71, "duration": 13, "velocity": 74}, {"time": 527, "pitch": 75, "duration": 12, "velocity": 85}, {"time": 527, "pitch": 80, "duration": 12, "velocity": 86}, {"time": 551, "pitch": 51, "duration": 19, "velocity": 70}, {"time": 551, "pitch": 66, "duration": 15, "velocity": 64}, {"time": 551, "pitch": 70, "duration": 15, "velocity": 68}, {"time": 551, "pitch": 75, "duration": 14, "velocity": 63}, {"time": 557, "pitch": 58, "duration": 8, "velocity": 39}, {"time": 563, "pitch": 63, "duration": 10, "velocity": 59}, {"time": 575, "pitch": 56, "duration": 18, "velocity": 72}, {"time": 575, "pitch": 71, "duration": 15, "velocity": 67}, {"time": 575, "pitch": 75, "duration": 15, "velocity": 62}, {"time": 575, "pitch": 80, "duration": 15, "velocity": 61}, {"time": 581, "pitch": 63, "duration": 10, "velocity": 61}, {"time": 587, "pitch": 68, "duration": 4, "velocity": 59}, {"time": 599, "pitch": 52, "duration": 21, "velocity": 72}, {"time": 599, "pitch": 68, "duration": 17, "velocity": 65}, {"time": 599, "pitch": 71, "duration": 17, "velocity": 75}, {"time": 599, "pitch": 76, "duration": 17, "velocity": 74}, {"time": 605, "pitch": 59, "duration": 19, "velocity": 74}, {"time": 611, "pitch": 64, "duration": 9, "velocity": 59}, {"time": 623, "pitch": 54, "duration": 17, "velocity": 65}, {"time": 623, "pitch": 70, "duration": 16, "velocity": 60}, {"time": 623, "pitch": 73, "duration": 16, "velocity": 75}, {"time": 623, "pitch": 78, "duration": 16, "velocity": 74}, {"time": 629, "pitch": 61, "duration": 13, "velocity": 71}, {"time": 635, "pitch": 66, "duration": 12, "velocity": 58}, {"time": 641, "pitch": 70, "duration": 7, "velocity": 70}, {"time": 641, "pitch": 73, "duration": 7, "velocity": 75}, {"time": 641, "pitch": 78, "duration": 7, "velocity": 75}, {"time": 647, "pitch": 59, "duration": 43, "velocity": 87}, {"time": 653, "pitch": 66, "duration": 38, "velocity": 58}, {"time": 659, "pitch": 71, "duration": 8, "velocity": 55}, {"time": 665, "pitch": 75, "duration": 16, "velocity": 71}, {"time": 671, "pitch": 78, "duration": 10, "velocity": 79}, {"time": 671, "pitch": 83, "duration": 10, "velocity": 63}, {"time": 677, "pitch": 71, "duration": 9, "velocity": 56}, {"time": 683, "pitch": 75, "duration": 8, "velocity": 74}, {"time": 683, "pitch": 78, "duration": 7, "velocity": 75}, {"time": 683, "pitch": 83, "duration": 7, "velocity": 68}, {"time": 695, "pitch": 56, "duration": 44, "velocity": 87}, {"time": 695, "pitch": 71, "duration": 20, "velocity": 69}, {"time": 695, "pitch": 75, "duration": 20, "velocity": 74}, {"time": 695, "pitch": 80, "duration": 19, "velocity": 59}, {"time": 701, "pitch": 63, "duration": 38, "velocity": 67}, {"time": 707, "pitch": 68, "duration": 14, "velocity": 58}, {"time": 719, "pitch": 71, "duration": 16, "velocity": 77}, {"time": 719, "pitch": 75, "duration": 15, "velocity": 85}, {"time": 719, "pitch": 80, "duration": 15, "velocity": 75}, {"time": 725, "pitch": 68, "duration": 5, "velocity": 54}, {"time": 731, "pitch": 68, "duration": 6, "velocity": 63}, {"time": 743, "pitch": 51, "duration": 43, "velocity": 65}, {"time": 743, "pitch": 66, "duration": 19, "velocity": 50}, {"time": 743, "pitch": 70, "duration": 19, "velocity": 63}, {"time": 743, "pitch": 75, "duration": 19, "velocity": 68}, {"time": 749, "pitch": 58, "duration": 43, "velocity": 63}, {"time": 755, "pitch": 63, "duration": 13, "velocity": 56}, {"time": 767, "pitch": 66, "duration": 17, "velocity": 69}, {"time": 767, "pitch": 70, "duration": 17, "velocity": 83}, {"time": 767, "pitch": 75, "duration": 16, "velocity": 83}, {"time": 779, "pitch": 63, "duration": 10, "velocity": 60}, {"time": 791, "pitch": 52, "duration": 20, "velocity": 75}, {"time": 791, "pitch": 68, "duration": 15, "velocity": 72}, {"time": 791, "pitch": 71, "duration": 15, "velocity": 83}, {"time": 791, "pitch": 76, "duration": 15, "velocity": 90}, {"time": 797, "pitch": 59, "duration": 16, "velocity": 74}, {"time": 803, "pitch": 64, "duration": 10, "velocity": 59}, {"time": 815, "pitch": 54, "duration": 17, "velocity": 75}, {"time": 815, "pitch": 70, "duration": 14, "velocity": 75}, {"time": 815, "pitch": 73, "duration": 13, "velocity": 86}, {"time": 815, "pitch": 78, "duration": 14, "velocity": 86}, {"time": 821, "pitch": 61, "duration": 17, "velocity": 74}, {"time": 827, "pitch": 66, "duration": 6, "velocity": 54}, {"time": 839, "pitch": 56, "duration": 50, "velocity": 64}, {"time": 839, "pitch": 71, "duration": 16, "velocity": 63}, {"time": 839, "pitch": 75, "duration": 18, "velocity": 83}, {"time": 839, "pitch": 80, "duration": 18, "velocity": 85}, {"time": 845, "pitch": 63, "duration": 43, "velocity": 65}, {"time": 851, "pitch": 68, "duration": 13, "velocity": 58}, {"time": 857, "pitch": 71, "duration": 29, "velocity": 67}, {"time": 863, "pitch": 75, "duration": 13, "velocity": 64}, {"time": 869, "pitch": 68, "duration": 17, "velocity": 63}, {"time": 875, "pitch": 80, "duration": 12, "velocity": 72}, {"time": 887, "pitch": 56, "duration": 2, "velocity": 68}, {"time": 893, "pitch": 63, "duration": 34, "velocity": 62}, {"time": 899, "pitch": 68, "duration": 14, "velocity": 59}, {"time": 905, "pitch": 71, "duration": 19, "velocity": 58}, {"time": 911, "pitch": 80, "duration": 15, "velocity": 61}, {"time": 917, "pitch": 68, "duration": 8, "velocity": 58}, {"time": 923, "pitch": 75, "duration": 7, "velocity": 66}, {"time": 929, "pitch": 71, "duration": 7, "velocity": 65}, {"time": 935, "pitch": 51, "duration": 20, "velocity": 65}, {"time": 941, "pitch": 58, "duration": 15, "velocity": 74}, {"time": 947, "pitch": 63, "duration": 10, "velocity": 60}, {"time": 953, "pitch": 66, "duration": 6, "velocity": 60}, {"time": 959, "pitch": 56, "duration": 66, "velocity": 63}, {"time": 965, "pitch": 63, "duration": 61, "velocity": 63}, {"time": 971, "pitch": 68, "duration": 12, "velocity": 58}, {"time": 977, "pitch": 71, "duration": 45, "velocity": 59}, {"time": 980, "pitch": 75, "duration": 39, "velocity": 65}, {"time": 989, "pitch": 68, "duration": 8, "velocity": 53}, {"time": 995, "pitch": 80, "duration": 32, "velocity": 35}, {"time": 1001, "pitch": 68, "duration": 7, "velocity": 63}, {"time": 1019, "pitch": 68, "duration": 6, "velocity": 58}, {"time": 1025, "pitch": 71, "duration": 7, "velocity": 60}, {"time": 1031, "pitch": 51, "duration": 42, "velocity": 74}, {"time": 1037, "pitch": 58, "duration": 37, "velocity": 65}, {"time": 1043, "pitch": 63, "duration": 8, "velocity": 59}, {"time": 1049, "pitch": 66, "duration": 30, "velocity": 56}, {"time": 1055, "pitch": 63, "duration": 18, "velocity": 57}, {"time": 1067, "pitch": 70, "duration": 11, "velocity": 62}, {"time": 1073, "pitch": 75, "duration": 6, "velocity": 56}, {"time": 1079, "pitch": 61, "duration": 96, "velocity": 72}, {"time": 1085, "pitch": 68, "duration": 91, "velocity": 63}, {"time": 1091, "pitch": 73, "duration": 13, "velocity": 59}, {"time": 1097, "pitch": 75, "duration": 13, "velocity": 61}, {"time": 1103, "pitch": 76, "duration": 11, "velocity": 83}, {"time": 1109, "pitch": 73, "duration": 20, "velocity": 61}, {"time": 1115, "pitch": 76, "duration": 23, "velocity": 66}, {"time": 1121, "pitch": 80, "duration": 24, "velocity": 59}, {"time": 1127, "pitch": 85, "duration": 24, "velocity": 62}, {"time": 1133, "pitch": 73, "duration": 39, "velocity": 60}, {"time": 1145, "pitch": 76, "duration": 27, "velocity": 52}, {"time": 1151, "pitch": 80, "duration": 22, "velocity": 60}, {"time": 1163, "pitch": 85, "duration": 9, "velocity": 74}, {"time": 1175, "pitch": 61, "duration": 38, "velocity": 67}, {"time": 1181, "pitch": 68, "duration": 31, "velocity": 62}, {"time": 1187, "pitch": 71, "duration": 3, "velocity": 14}, {"time": 1187, "pitch": 73, "duration": 22, "velocity": 53}, {"time": 1193, "pitch": 75, "duration": 9, "velocity": 68}, {"time": 1199, "pitch": 78, "duration": 13, "velocity": 71}, {"time": 1211, "pitch": 75, "duration": 12, "velocity": 66}, {"time": 1217, "pitch": 78, "duration": 6, "velocity": 59}, {"time": 1223, "pitch": 56, "duration": 50, "velocity": 75}, {"time": 1229, "pitch": 63, "duration": 45, "velocity": 58}, {"time": 1235, "pitch": 68, "duration": 14, "velocity": 60}, {"time": 1241, "pitch": 70, "duration": 7, "velocity": 64}, {"time": 1247, "pitch": 71, "duration": 26, "velocity": 79}, {"time": 1253, "pitch": 68, "duration": 19, "velocity": 61}, {"time": 1259, "pitch": 80, "duration": 12, "velocity": 70}, {"time": 1271, "pitch": 56, "duration": 2, "velocity": 67}, {"time": 1277, "pitch": 63, "duration": 31, "velocity": 59}, {"time": 1283, "pitch": 68, "duration": 24, "velocity": 58}, {"time": 1289, "pitch": 70, "duration": 14, "velocity": 65}, {"time": 1301, "pitch": 71, "duration": 7, "velocity": 74}, {"time": 1307, "pitch": 75, "duration": 12, "velocity": 63}, {"time": 1319, "pitch": 51, "duration": 17, "velocity": 76}, {"time": 1325, "pitch": 58, "duration": 11, "velocity": 66}, {"time": 1331, "pitch": 63, "duration": 8, "velocity": 60}, {"time": 1337, "pitch": 66, "duration": 5, "velocity": 58}, {"time": 1343, "pitch": 56, "duration": 62, "velocity": 59}, {"time": 1349, "pitch": 63, "duration": 55, "velocity": 60}, {"time": 1355, "pitch": 68, "duration": 15, "velocity": 59}, {"time": 1361, "pitch": 71, "duration": 23, "velocity": 58}, {"time": 1367, "pitch": 75, "duration": 18, "velocity": 63}, {"time": 1379, "pitch": 68, "duration": 21, "velocity": 59}, {"time": 1385, "pitch": 71, "duration": 20, "velocity": 60}, {"time": 1403, "pitch": 75, "duration": 7, "velocity": 63}, {"time": 1409, "pitch": 71, "duration": 7, "velocity": 62}, {"time": 1415, "pitch": 51, "duration": 38, "velocity": 67}, {"time": 1421, "pitch": 58, "duration": 32, "velocity": 63}, {"time": 1427, "pitch": 63, "duration": 14, "velocity": 60}, {"time": 1433, "pitch": 66, "duration": 8, "velocity": 48}, {"time": 1439, "pitch": 70, "duration": 17, "velocity": 64}, {"time": 1445, "pitch": 63, "duration": 10, "velocity": 59}, {"time": 1457, "pitch": 66, "duration": 6, "velocity": 54}, {"time": 1463, "pitch": 61, "duration": 39, "velocity": 66}, {"time": 1463, "pitch": 76, "duration": 16, "velocity": 61}, {"time": 1463, "pitch": 80, "duration": 16, "velocity": 65}, {"time": 1469, "pitch": 68, "duration": 32, "velocity": 60}, {"time": 1475, "pitch": 73, "duration": 11, "velocity": 48}, {"time": 1481, "pitch": 76, "duration": 14, "velocity": 68}, {"time": 1481, "pitch": 80, "duration": 15, "velocity": 75}, {"time": 1493, "pitch": 73, "duration": 7, "velocity": 61}, {"time": 1499, "pitch": 76, "duration": 12, "velocity": 79}, {"time": 1511, "pitch": 56, "duration": 14, "velocity": 77}, {"time": 1517, "pitch": 63, "duration": 10, "velocity": 62}, {"time": 1523, "pitch": 68, "duration": 13, "velocity": 60}, {"time": 1529, "pitch": 71, "duration": 7, "velocity": 62}, {"time": 1535, "pitch": 61, "duration": 65, "velocity": 75}, {"time": 1541, "pitch": 68, "duration": 57, "velocity": 59}, {"time": 1547, "pitch": 73, "duration": 8, "velocity": 60}, {"time": 1553, "pitch": 76, "duration": 22, "velocity": 64}, {"time": 1559, "pitch": 80, "duration": 17, "velocity": 67}, {"time": 1565, "pitch": 73, "duration": 15, "velocity": 53}, {"time": 1577, "pitch": 76, "duration": 20, "velocity": 64}, {"time": 1583, "pitch": 73, "duration": 14, "velocity": 60}, {"time": 1595, "pitch": 80, "duration": 7, "velocity": 79}, {"time": 1601, "pitch": 76, "duration": 7, "velocity": 64}, {"time": 1607, "pitch": 56, "duration": 47, "velocity": 74}, {"time": 1613, "pitch": 63, "duration": 41, "velocity": 60}, {"time": 1619, "pitch": 68, "duration": 18, "velocity": 59}, {"time": 1625, "pitch": 71, "duration": 28, "velocity": 61}, {"time": 1631, "pitch": 75, "duration": 22, "velocity": 65}, {"time": 1643, "pitch": 68, "duration": 10, "velocity": 58}, {"time": 1655, "pitch": 56, "duration": 45, "velocity": 71}, {"time": 1655, "pitch": 71, "duration": 48, "velocity": 59}, {"time": 1655, "pitch": 75, "duration": 47, "velocity": 67}, {"time": 1703, "pitch": 44, "duration": 34, "velocity": 122}, {"time": 1703, "pitch": 63, "duration": 1, "velocity": 75}, {"time": 1703, "pitch": 68, "duration": 11, "velocity": 112}, {"time": 1703, "pitch": 71, "duration": 11, "velocity": 96}, {"time": 1709, "pitch": 56, "duration": 21, "velocity": 102}, {"time": 1715, "pitch": 63, "duration": 4, "velocity": 88}, {"time": 1715, "pitch": 71, "duration": 2, "velocity": 39}, {"time": 1721, "pitch": 63, "duration": 5, "velocity": 95}, {"time": 1721, "pitch": 68, "duration": 5, "velocity": 95}, {"time": 1721, "pitch": 71, "duration": 5, "velocity": 83}, {"time": 1727, "pitch": 63, "duration": 6, "velocity": 100}, {"time": 1727, "pitch": 68, "duration": 11, "velocity": 122}, {"time": 1727, "pitch": 71, "duration": 11, "velocity": 102}, {"time": 1733, "pitch": 56, "duration": 3, "velocity": 96}, {"time": 1739, "pitch": 63, "duration": 2, "velocity": 112}, {"time": 1751, "pitch": 35, "duration": 9, "velocity": 90}, {"time": 1751, "pitch": 63, "duration": 12, "velocity": 127}, {"time": 1751, "pitch": 66, "duration": 13, "velocity": 122}, {"time": 1763, "pitch": 59, "duration": 1, "velocity": 99}, {"time": 1772, "pitch": 61, "duration": 4, "velocity": 122}, {"time": 1775, "pitch": 42, "duration": 12, "velocity": 107}, {"time": 1775, "pitch": 54, "duration": 13, "velocity": 95}, {"time": 1775, "pitch": 61, "duration": 1, "velocity": 99}, {"time": 1775, "pitch": 66, "duration": 12, "velocity": 96}, {"time": 1775, "pitch": 70, "duration": 12, "velocity": 99}, {"time": 1787, "pitch": 61, "duration": 2, "velocity": 117}, {"time": 1799, "pitch": 37, "duration": 33, "velocity": 96}, {"time": 1799, "pitch": 61, "duration": 8, "velocity": 102}, {"time": 1799, "pitch": 64, "duration": 9, "velocity": 95}, {"time": 1799, "pitch": 68, "duration": 10, "velocity": 97}, {"time": 1805, "pitch": 49, "duration": 20, "velocity": 122}, {"time": 1811, "pitch": 61, "duration": 10, "velocity": 76}, {"time": 1817, "pitch": 64, "duration": 3, "velocity": 59}, {"time": 1817, "pitch": 68, "duration": 4, "velocity": 52}, {"time": 1823, "pitch": 61, "duration": 1, "velocity": 77}, {"time": 1823, "pitch": 64, "duration": 12, "velocity": 112}, {"time": 1823, "pitch": 68, "duration": 12, "velocity": 117}, {"time": 1829, "pitch": 49, "duration": 6, "velocity": 92}, {"time": 1835, "pitch": 61, "duration": 2, "velocity": 85}, {"time": 1847, "pitch": 44, "duration": 33, "velocity": 117}, {"time": 1847, "pitch": 63, "duration": 10, "velocity": 95}, {"time": 1847, "pitch": 68, "duration": 11, "velocity": 93}, {"time": 1847, "pitch": 71, "duration": 11, "velocity": 86}, {"time": 1853, "pitch": 56, "duration": 20, "velocity": 88}, {"time": 1859, "pitch": 63, "duration": 4, "velocity": 82}, {"time": 1859, "pitch": 71, "duration": 2, "velocity": 42}, {"time": 1865, "pitch": 63, "duration": 4, "velocity": 73}, {"time": 1865, "pitch": 68, "duration": 4, "velocity": 69}, {"time": 1865, "pitch": 71, "duration": 4, "velocity": 77}, {"time": 1871, "pitch": 68, "duration": 11, "velocity": 112}, {"time": 1871, "pitch": 71, "duration": 12, "velocity": 92}, {"time": 1877, "pitch": 56, "duration": 3, "velocity": 96}, {"time": 1883, "pitch": 63, "duration": 2, "velocity": 117}, {"time": 1895, "pitch": 37, "duration": 12, "velocity": 100}, {"time": 1895, "pitch": 64, "duration": 12, "velocity": 99}, {"time": 1895, "pitch": 68, "duration": 13, "velocity": 102}, {"time": 1901, "pitch": 49, "duration": 8, "velocity": 102}, {"time": 1907, "pitch": 61, "duration": 2, "velocity": 95}, {"time": 1919, "pitch": 39, "duration": 13, "velocity": 95}, {"time": 1919, "pitch": 51, "duration": 14, "velocity": 93}, {"time": 1919, "pitch": 63, "duration": 7, "velocity": 100}, {"time": 1919, "pitch": 66, "duration": 14, "velocity": 112}, {"time": 1919, "pitch": 70, "duration": 15, "velocity": 107}, {"time": 1931, "pitch": 63, "duration": 3, "velocity": 96}, {"time": 1943, "pitch": 42, "duration": 11, "velocity": 117}, {"time": 1943, "pitch": 61, "duration": 8, "velocity": 102}, {"time": 1943, "pitch": 66, "duration": 11, "velocity": 99}, {"time": 1943, "pitch": 70, "duration": 12, "velocity": 93}, {"time": 1949, "pitch": 54, "duration": 7, "velocity": 96}, {"time": 1955, "pitch": 61, "duration": 1, "velocity": 95}, {"time": 1967, "pitch": 44, "duration": 14, "velocity": 122}, {"time": 1973, "pitch": 56, "duration": 7, "velocity": 122}, {"time": 1979, "pitch": 68, "duration": 13, "velocity": 102}, {"time": 1985, "pitch": 71, "duration": 6, "velocity": 82}, {"time": 1985, "pitch": 75, "duration": 6, "velocity": 117}, {"time": 1991, "pitch": 37, "duration": 36, "velocity": 107}, {"time": 1997, "pitch": 49, "duration": 21, "velocity": 95}, {"time": 2003, "pitch": 56, "duration": 4, "velocity": 83}, {"time": 2009, "pitch": 56, "duration": 4, "velocity": 64}, {"time": 2009, "pitch": 61, "duration": 4, "velocity": 63}, {"time": 2009, "pitch": 64, "duration": 4, "velocity": 65}, {"time": 2015, "pitch": 56, "duration": 7, "velocity": 90}, {"time": 2015, "pitch": 61, "duration": 12, "velocity": 88}, {"time": 2015, "pitch": 64, "duration": 12, "velocity": 82}, {"time": 2021, "pitch": 49, "duration": 7, "velocity": 99}, {"time": 2027, "pitch": 56, "duration": 1, "velocity": 92}, {"time": 2039, "pitch": 39, "duration": 35, "velocity": 117}, {"time": 2039, "pitch": 63, "duration": 10, "velocity": 97}, {"time": 2039, "pitch": 67, "duration": 11, "velocity": 97}, {"time": 2039, "pitch": 70, "duration": 14, "velocity": 97}, {"time": 2045, "pitch": 51, "duration": 20, "velocity": 100}, {"time": 2051, "pitch": 63, "duration": 3, "velocity": 75}, {"time": 2057, "pitch": 63, "duration": 4, "velocity": 100}, {"time": 2057, "pitch": 67, "duration": 3, "velocity": 97}, {"time": 2057, "pitch": 70, "duration": 4, "velocity": 86}, {"time": 2063, "pitch": 63, "duration": 8, "velocity": 112}, {"time": 2063, "pitch": 67, "duration": 3, "velocity": 127}, {"time": 2063, "pitch": 70, "duration": 12, "velocity": 112}, {"time": 2066, "pitch": 67, "duration": 6, "velocity": 29}, {"time": 2069, "pitch": 51, "duration": 7, "velocity": 117}, {"time": 2075, "pitch": 63, "duration": 1, "velocity": 127}, {"time": 2087, "pitch": 44, "duration": 33, "velocity": 127}, {"time": 2093, "pitch": 56, "duration": 20, "velocity": 112}, {"time": 2099, "pitch": 68, "duration": 5, "velocity": 100}, {"time": 2105, "pitch": 68, "duration": 4, "velocity": 71}, {"time": 2105, "pitch": 71, "duration": 3, "velocity": 77}, {"time": 2105, "pitch": 75, "duration": 4, "velocity": 88}, {"time": 2111, "pitch": 68, "duration": 7, "velocity": 102}, {"time": 2111, "pitch": 71, "duration": 11, "velocity": 102}, {"time": 2111, "pitch": 75, "duration": 11, "velocity": 117}, {"time": 2117, "pitch": 56, "duration": 5, "velocity": 107}, {"time": 2123, "pitch": 68, "duration": 1, "velocity": 117}, {"time": 2135, "pitch": 47, "duration": 9, "velocity": 107}, {"time": 2135, "pitch": 63, "duration": 12, "velocity": 127}, {"time": 2135, "pitch": 66, "duration": 12, "velocity": 117}, {"time": 2147, "pitch": 59, "duration": 2, "velocity": 88}, {"time": 2159, "pitch": 42, "duration": 12, "velocity": 99}, {"time": 2159, "pitch": 61, "duration": 6, "velocity": 112}, {"time": 2159, "pitch": 66, "duration": 12, "velocity": 117}, {"time": 2159, "pitch": 70, "duration": 12, "velocity": 117}, {"time": 2165, "pitch": 54, "duration": 7, "velocity": 86}, {"time": 2171, "pitch": 61, "duration": 2, "velocity": 112}, {"time": 2183, "pitch": 37, "duration": 33, "velocity": 117}, {"time": 2183, "pitch": 61, "duration": 9, "velocity": 102}, {"time": 2183, "pitch": 64, "duration": 10, "velocity": 96}, {"time": 2183, "pitch": 68, "duration": 10, "velocity": 95}, {"time": 2189, "pitch": 49, "duration": 21, "velocity": 93}, {"time": 2195, "pitch": 61, "duration": 4, "velocity": 76}, {"time": 2201, "pitch": 61, "duration": 3, "velocity": 72}, {"time": 2201, "pitch": 64, "duration": 3, "velocity": 69}, {"time": 2201, "pitch": 68, "duration": 3, "velocity": 79}, {"time": 2207, "pitch": 61, "duration": 3, "velocity": 100}, {"time": 2207, "pitch": 64, "duration": 11, "velocity": 99}, {"time": 2207, "pitch": 68, "duration": 12, "velocity": 102}, {"time": 2213, "pitch": 49, "duration": 6, "velocity": 83}, {"time": 2219, "pitch": 61, "duration": 2, "velocity": 107}, {"time": 2231, "pitch": 44, "duration": 34, "velocity": 100}, {"time": 2231, "pitch": 59, "duration": 8, "velocity": 86}, {"time": 2231, "pitch": 63, "duration": 13, "velocity": 102}, {"time": 2231, "pitch": 68, "duration": 12, "velocity": 90}, {"time": 2237, "pitch": 56, "duration": 20, "velocity": 102}, {"time": 2243, "pitch": 59, "duration": 9, "velocity": 89}, {"time": 2249, "pitch": 63, "duration": 4, "velocity": 93}, {"time": 2249, "pitch": 68, "duration": 3, "velocity": 99}, {"time": 2255, "pitch": 59, "duration": 6, "velocity": 78}, {"time": 2255, "pitch": 63, "duration": 12, "velocity": 127}, {"time": 2255, "pitch": 68, "duration": 13, "velocity": 127}, {"time": 2261, "pitch": 56, "duration": 3, "velocity": 112}, {"time": 2267, "pitch": 59, "duration": 2, "velocity": 96}, {"time": 2279, "pitch": 37, "duration": 12, "velocity": 102}, {"time": 2279, "pitch": 61, "duration": 6, "velocity": 100}, {"time": 2279, "pitch": 64, "duration": 3, "velocity": 90}, {"time": 2279, "pitch": 68, "duration": 12, "velocity": 96}, {"time": 2285, "pitch": 49, "duration": 8, "velocity": 100}, {"time": 2285, "pitch": 64, "duration": 5, "velocity": 12}, {"time": 2291, "pitch": 61, "duration": 2, "velocity": 99}, {"time": 2303, "pitch": 39, "duration": 11, "velocity": 83}, {"time": 2303, "pitch": 51, "duration": 12, "velocity": 89}, {"time": 2303, "pitch": 63, "duration": 10, "velocity": 107}, {"time": 2303, "pitch": 66, "duration": 12, "velocity": 112}, {"time": 2303, "pitch": 70, "duration": 12, "velocity": 90}, {"time": 2327, "pitch": 42, "duration": 9, "velocity": 95}, {"time": 2327, "pitch": 61, "duration": 10, "velocity": 102}, {"time": 2327, "pitch": 66, "duration": 10, "velocity": 117}, {"time": 2327, "pitch": 70, "duration": 11, "velocity": 100}, {"time": 2351, "pitch": 44, "duration": 13, "velocity": 95}, {"time": 2351, "pitch": 56, "duration": 11, "velocity": 89}, {"time": 2351, "pitch": 63, "duration": 6, "velocity": 112}, {"time": 2351, "pitch": 68, "duration": 3, "velocity": 97}, {"time": 2351, "pitch": 71, "duration": 13, "velocity": 92}, {"time": 2354, "pitch": 68, "duration": 1, "velocity": 27}, {"time": 2363, "pitch": 63, "duration": 2, "velocity": 102}, {"time": 2375, "pitch": 42, "duration": 35, "velocity": 112}, {"time": 2375, "pitch": 58, "duration": 8, "velocity": 100}, {"time": 2375, "pitch": 61, "duration": 12, "velocity": 99}, {"time": 2375, "pitch": 66, "duration": 14, "velocity": 95}, {"time": 2381, "pitch": 54, "duration": 21, "velocity": 97}, {"time": 2387, "pitch": 58, "duration": 6, "velocity": 69}, {"time": 2393, "pitch": 61, "duration": 3, "velocity": 40}, {"time": 2393, "pitch": 66, "duration": 3, "velocity": 65}, {"time": 2393, "pitch": 70, "duration": 3, "velocity": 52}, {"time": 2399, "pitch": 61, "duration": 9, "velocity": 99}, {"time": 2399, "pitch": 66, "duration": 12, "velocity": 112}, {"time": 2399, "pitch": 70, "duration": 13, "velocity": 112}, {"time": 2405, "pitch": 51, "duration": 7, "velocity": 97}, {"time": 2411, "pitch": 61, "duration": 3, "velocity": 93}, {"time": 2423, "pitch": 44, "duration": 39, "velocity": 99}, {"time": 2423, "pitch": 63, "duration": 10, "velocity": 102}, {"time": 2423, "pitch": 68, "duration": 11, "velocity": 99}, {"time": 2423, "pitch": 71, "duration": 9, "velocity": 79}, {"time": 2429, "pitch": 56, "duration": 19, "velocity": 102}, {"time": 2435, "pitch": 63, "duration": 4, "velocity": 73}, {"time": 2441, "pitch": 63, "duration": 4, "velocity": 83}, {"time": 2441, "pitch": 68, "duration": 4, "velocity": 83}, {"time": 2441, "pitch": 71, "duration": 3, "velocity": 76}, {"time": 2447, "pitch": 63, "duration": 8, "velocity": 107}, {"time": 2447, "pitch": 68, "duration": 13, "velocity": 122}, {"time": 2447, "pitch": 71, "duration": 10, "velocity": 93}, {"time": 2453, "pitch": 56, "duration": 17, "velocity": 107}, {"time": 2459, "pitch": 63, "duration": 11, "velocity": 99}, {"time": 2471, "pitch": 44, "duration": 48, "velocity": 100}, {"time": 2471, "pitch": 63, "duration": 10, "velocity": 69}, {"time": 2471, "pitch": 68, "duration": 14, "velocity": 69}, {"time": 2471, "pitch": 71, "duration": 10, "velocity": 70}, {"time": 2477, "pitch": 56, "duration": 21, "velocity": 72}, {"time": 2483, "pitch": 63, "duration": 21, "velocity": 64}, {"time": 2489, "pitch": 68, "duration": 20, "velocity": 64}, {"time": 2495, "pitch": 71, "duration": 24, "velocity": 76}, {"time": 2501, "pitch": 56, "duration": 18, "velocity": 85}, {"time": 2507, "pitch": 63, "duration": 12, "velocity": 89}, {"time": 2513, "pitch": 68, "duration": 6, "velocity": 81}, {"time": 2519, "pitch": 56, "duration": 1, "velocity": 64}, {"time": 2519, "pitch": 71, "duration": 22, "velocity": 60}, {"time": 2519, "pitch": 75, "duration": 21, "velocity": 53}, {"time": 2519, "pitch": 80, "duration": 21, "velocity": 60}, {"time": 2525, "pitch": 63, "duration": 32, "velocity": 59}, {"time": 2531, "pitch": 68, "duration": 16, "velocity": 49}, {"time": 2543, "pitch": 71, "duration": 10, "velocity": 60}, {"time": 2543, "pitch": 75, "duration": 10, "velocity": 66}, {"time": 2543, "pitch": 80, "duration": 10, "velocity": 65}, {"time": 2549, "pitch": 68, "duration": 7, "velocity": 60}, {"time": 2555, "pitch": 71, "duration": 13, "velocity": 77}, {"time": 2555, "pitch": 75, "duration": 13, "velocity": 75}, {"time": 2555, "pitch": 80, "duration": 13, "velocity": 71}, {"time": 2567, "pitch": 52, "duration": 93, "velocity": 77}, {"time": 2573, "pitch": 59, "duration": 90, "velocity": 74}, {"time": 2579, "pitch": 64, "duration": 13, "velocity": 60}, {"time": 2585, "pitch": 68, "duration": 25, "velocity": 58}, {"time": 2585, "pitch": 71, "duration": 25, "velocity": 50}, {"time": 2588, "pitch": 76, "duration": 20, "velocity": 8}, {"time": 2603, "pitch": 64, "duration": 19, "velocity": 37}, {"time": 2615, "pitch": 68, "duration": 22, "velocity": 69}, {"time": 2615, "pitch": 71, "duration": 23, "velocity": 77}, {"time": 2615, "pitch": 76, "duration": 23, "velocity": 79}, {"time": 2627, "pitch": 64, "duration": 13, "velocity": 54}, {"time": 2639, "pitch": 68, "duration": 15, "velocity": 65}, {"time": 2639, "pitch": 71, "duration": 14, "velocity": 72}, {"time": 2639, "pitch": 76, "duration": 14, "velocity": 73}, {"time": 2651, "pitch": 64, "duration": 10, "velocity": 59}, {"time": 2663, "pitch": 54, "duration": 91, "velocity": 72}, {"time": 2663, "pitch": 70, "duration": 15, "velocity": 63}, {"time": 2663, "pitch": 73, "duration": 16, "velocity": 63}, {"time": 2663, "pitch": 78, "duration": 16, "velocity": 67}, {"time": 2669, "pitch": 61, "duration": 89, "velocity": 64}, {"time": 2675, "pitch": 66, "duration": 20, "velocity": 52}, {"time": 2681, "pitch": 70, "duration": 27, "velocity": 70}, {"time": 2693, "pitch": 73, "duration": 9, "velocity": 54}, {"time": 2699, "pitch": 66, "duration": 13, "velocity": 59}, {"time": 2705, "pitch": 78, "duration": 6, "velocity": 74}, {"time": 2711, "pitch": 70, "duration": 21, "velocity": 71}, {"time": 2717, "pitch": 66, "duration": 15, "velocity": 62}, {"time": 2723, "pitch": 73, "duration": 8, "velocity": 67}, {"time": 2729, "pitch": 78, "duration": 17, "velocity": 73}, {"time": 2735, "pitch": 73, "duration": 13, "velocity": 50}, {"time": 2741, "pitch": 66, "duration": 14, "velocity": 56}, {"time": 2747, "pitch": 70, "duration": 13, "velocity": 58}, {"time": 2753, "pitch": 73, "duration": 8, "velocity": 65}, {"time": 2759, "pitch": 56, "duration": 83, "velocity": 63}, {"time": 2765, "pitch": 63, "duration": 76, "velocity": 61}, {"time": 2771, "pitch": 68, "duration": 14, "velocity": 60}, {"time": 2777, "pitch": 71, "duration": 15, "velocity": 61}, {"time": 2783, "pitch": 75, "duration": 19, "velocity": 66}, {"time": 2789, "pitch": 68, "duration": 53, "velocity": 61}, {"time": 2801, "pitch": 71, "duration": 42, "velocity": 65}, {"time": 2807, "pitch": 80, "duration": 35, "velocity": 70}, {"time": 2855, "pitch": 56, "duration": 42, "velocity": 68}, {"time": 2861, "pitch": 63, "duration": 34, "velocity": 62}, {"time": 2867, "pitch": 68, "duration": 14, "velocity": 59}, {"time": 2873, "pitch": 71, "duration": 19, "velocity": 58}, {"time": 2879, "pitch": 80, "duration": 15, "velocity": 61}, {"time": 2885, "pitch": 68, "duration": 8, "velocity": 58}, {"time": 2891, "pitch": 75, "duration": 7, "velocity": 66}, {"time": 2897, "pitch": 71, "duration": 7, "velocity": 65}, {"time": 2903, "pitch": 51, "duration": 20, "velocity": 65}, {"time": 2909, "pitch": 58, "duration": 15, "velocity": 74}, {"time": 2915, "pitch": 63, "duration": 10, "velocity": 60}, {"time": 2921, "pitch": 66, "duration": 6, "velocity": 60}, {"time": 2927, "pitch": 56, "duration": 66, "velocity": 63}, {"time": 2933, "pitch": 63, "duration": 61, "velocity": 63}, {"time": 2939, "pitch": 68, "duration": 12, "velocity": 58}, {"time": 2945, "pitch": 71, "duration": 45, "velocity": 59}, {"time": 2951, "pitch": 75, "duration": 36, "velocity": 65}, {"time": 2957, "pitch": 68, "duration": 8, "velocity": 53}, {"time": 2963, "pitch": 80, "duration": 32, "velocity": 35}, {"time": 2969, "pitch": 68, "duration": 7, "velocity": 63}, {"time": 2987, "pitch": 68, "duration": 6, "velocity": 58}, {"time": 2993, "pitch": 71, "duration": 7, "velocity": 60}, {"time": 2999, "pitch": 51, "duration": 42, "velocity": 74}, {"time": 3005, "pitch": 58, "duration": 37, "velocity": 65}, {"time": 3011, "pitch": 63, "duration": 8, "velocity": 59}, {"time": 3017, "pitch": 66, "duration": 30, "velocity": 56}, {"time": 3023, "pitch": 63, "duration": 18, "velocity": 57}, {"time": 3035, "pitch": 70, "duration": 11, "velocity": 62}, {"time": 3041, "pitch": 75, "duration": 6, "velocity": 56}, {"time": 3047, "pitch": 61, "duration": 96, "velocity": 72}, {"time": 3053, "pitch": 68, "duration": 91, "velocity": 63}, {"time": 3059, "pitch": 73, "duration": 13, "velocity": 59}, {"time": 3065, "pitch": 75, "duration": 13, "velocity": 61}, {"time": 3071, "pitch": 76, "duration": 11, "velocity": 83}, {"time": 3077, "pitch": 73, "duration": 20, "velocity": 61}, {"time": 3083, "pitch": 76, "duration": 23, "velocity": 66}, {"time": 3089, "pitch": 80, "duration": 24, "velocity": 59}, {"time": 3095, "pitch": 85, "duration": 24, "velocity": 62}, {"time": 3101, "pitch": 73, "duration": 39, "velocity": 60}, {"time": 3110, "pitch": 76, "duration": 30, "velocity": 52}, {"time": 3119, "pitch": 80, "duration": 22, "velocity": 60}, {"time": 3131, "pitch": 85, "duration": 9, "velocity": 74}, {"time": 3143, "pitch": 61, "duration": 38, "velocity": 67}, {"time": 3149, "pitch": 68, "duration": 31, "velocity": 62}, {"time": 3155, "pitch": 71, "duration": 3, "velocity": 14}, {"time": 3155, "pitch": 73, "duration": 22, "velocity": 53}, {"time": 3161, "pitch": 75, "duration": 9, "velocity": 68}, {"time": 3167, "pitch": 78, "duration": 13, "velocity": 71}, {"time": 3179, "pitch": 75, "duration": 12, "velocity": 66}, {"time": 3185, "pitch": 78, "duration": 6, "velocity": 59}, {"time": 3191, "pitch": 56, "duration": 41, "velocity": 75}, {"time": 3197, "pitch": 63, "duration": 42, "velocity": 58}, {"time": 3203, "pitch": 68, "duration": 14, "velocity": 60}, {"time": 3209, "pitch": 70, "duration": 7, "velocity": 64}, {"time": 3215, "pitch": 71, "duration": 24, "velocity": 79}, {"time": 3221, "pitch": 68, "duration": 18, "velocity": 61}, {"time": 3227, "pitch": 80, "duration": 12, "velocity": 70}, {"time": 3239, "pitch": 44, "duration": 34, "velocity": 122}, {"time": 3239, "pitch": 68, "duration": 11, "velocity": 112}, {"time": 3239, "pitch": 71, "duration": 11, "velocity": 96}, {"time": 3245, "pitch": 56, "duration": 21, "velocity": 102}, {"time": 3251, "pitch": 63, "duration": 4, "velocity": 88}, {"time": 3254, "pitch": 71, "duration": 2, "velocity": 39}, {"time": 3257, "pitch": 63, "duration": 5, "velocity": 95}, {"time": 3257, "pitch": 68, "duration": 5, "velocity": 95}, {"time": 3257, "pitch": 71, "duration": 5, "velocity": 83}, {"time": 3263, "pitch": 63, "duration": 6, "velocity": 100}, {"time": 3263, "pitch": 68, "duration": 11, "velocity": 122}, {"time": 3263, "pitch": 71, "duration": 11, "velocity": 102}, {"time": 3269, "pitch": 56, "duration": 3, "velocity": 96}, {"time": 3275, "pitch": 63, "duration": 2, "velocity": 112}, {"time": 3287, "pitch": 35, "duration": 9, "velocity": 90}, {"time": 3287, "pitch": 63, "duration": 12, "velocity": 127}, {"time": 3287, "pitch": 66, "duration": 13, "velocity": 122}, {"time": 3299, "pitch": 59, "duration": 1, "velocity": 99}, {"time": 3305, "pitch": 61, "duration": 4, "velocity": 122}, {"time": 3311, "pitch": 42, "duration": 12, "velocity": 107}, {"time": 3311, "pitch": 54, "duration": 13, "velocity": 95}, {"time": 3311, "pitch": 61, "duration": 8, "velocity": 99}, {"time": 3311, "pitch": 66, "duration": 12, "velocity": 96}, {"time": 3311, "pitch": 70, "duration": 12, "velocity": 99}, {"time": 3323, "pitch": 61, "duration": 2, "velocity": 117}, {"time": 3335, "pitch": 37, "duration": 33, "velocity": 96}, {"time": 3335, "pitch": 61, "duration": 8, "velocity": 102}, {"time": 3335, "pitch": 64, "duration": 9, "velocity": 95}, {"time": 3335, "pitch": 68, "duration": 10, "velocity": 97}, {"time": 3341, "pitch": 49, "duration": 20, "velocity": 122}, {"time": 3347, "pitch": 61, "duration": 10, "velocity": 76}, {"time": 3353, "pitch": 64, "duration": 3, "velocity": 59}, {"time": 3353, "pitch": 68, "duration": 4, "velocity": 52}, {"time": 3359, "pitch": 61, "duration": 1, "velocity": 77}, {"time": 3359, "pitch": 64, "duration": 12, "velocity": 112}, {"time": 3359, "pitch": 68, "duration": 12, "velocity": 117}, {"time": 3365, "pitch": 49, "duration": 6, "velocity": 92}, {"time": 3371, "pitch": 61, "duration": 2, "velocity": 85}, {"time": 3383, "pitch": 44, "duration": 33, "velocity": 117}, {"time": 3383, "pitch": 63, "duration": 10, "velocity": 95}, {"time": 3383, "pitch": 68, "duration": 11, "velocity": 93}, {"time": 3383, "pitch": 71, "duration": 11, "velocity": 86}, {"time": 3389, "pitch": 56, "duration": 20, "velocity": 88}, {"time": 3395, "pitch": 63, "duration": 4, "velocity": 82}, {"time": 3395, "pitch": 71, "duration": 2, "velocity": 42}, {"time": 3401, "pitch": 63, "duration": 4, "velocity": 73}, {"time": 3401, "pitch": 68, "duration": 4, "velocity": 69}, {"time": 3401, "pitch": 71, "duration": 4, "velocity": 77}, {"time": 3407, "pitch": 68, "duration": 11, "velocity": 112}, {"time": 3407, "pitch": 71, "duration": 12, "velocity": 92}, {"time": 3413, "pitch": 56, "duration": 3, "velocity": 96}, {"time": 3419, "pitch": 63, "duration": 2, "velocity": 117}, {"time": 3431, "pitch": 37, "duration": 12, "velocity": 100}, {"time": 3431, "pitch": 64, "duration": 12, "velocity": 99}, {"time": 3431, "pitch": 68, "duration": 13, "velocity": 102}, {"time": 3437, "pitch": 49, "duration": 8, "velocity": 102}, {"time": 3443, "pitch": 61, "duration": 2, "velocity": 95}, {"time": 3452, "pitch": 66, "duration": 14, "velocity": 112}, {"time": 3455, "pitch": 39, "duration": 13, "velocity": 95}, {"time": 3455, "pitch": 51, "duration": 14, "velocity": 93}, {"time": 3455, "pitch": 63, "duration": 7, "velocity": 100}, {"time": 3455, "pitch": 70, "duration": 15, "velocity": 107}, {"time": 3467, "pitch": 63, "duration": 3, "velocity": 96}, {"time": 3479, "pitch": 42, "duration": 11, "velocity": 117}, {"time": 3479, "pitch": 61, "duration": 8, "velocity": 102}, {"time": 3479, "pitch": 66, "duration": 11, "velocity": 99}, {"time": 3479, "pitch": 70, "duration": 12, "velocity": 93}, {"time": 3485, "pitch": 54, "duration": 7, "velocity": 96}, {"time": 3491, "pitch": 61, "duration": 1, "velocity": 95}, {"time": 3503, "pitch": 44, "duration": 14, "velocity": 122}, {"time": 3509, "pitch": 56, "duration": 7, "velocity": 122}, {"time": 3515, "pitch": 68, "duration": 13, "velocity": 102}, {"time": 3521, "pitch": 71, "duration": 6, "velocity": 82}, {"time": 3521, "pitch": 75, "duration": 6, "velocity": 117}, {"time": 3527, "pitch": 37, "duration": 36, "velocity": 107}, {"time": 3533, "pitch": 49, "duration": 21, "velocity": 95}, {"time": 3539, "pitch": 56, "duration": 4, "velocity": 83}, {"time": 3545, "pitch": 56, "duration": 4, "velocity": 64}, {"time": 3545, "pitch": 61, "duration": 4, "velocity": 63}, {"time": 3545, "pitch": 64, "duration": 4, "velocity": 65}, {"time": 3551, "pitch": 56, "duration": 7, "velocity": 90}, {"time": 3551, "pitch": 61, "duration": 12, "velocity": 88}, {"time": 3551, "pitch": 64, "duration": 12, "velocity": 82}, {"time": 3557, "pitch": 49, "duration": 7, "velocity": 99}, {"time": 3563, "pitch": 56, "duration": 1, "velocity": 92}, {"time": 3575, "pitch": 39, "duration": 35, "velocity": 117}, {"time": 3575, "pitch": 63, "duration": 10, "velocity": 97}, {"time": 3575, "pitch": 67, "duration": 11, "velocity": 97}, {"time": 3575, "pitch": 70, "duration": 14, "velocity": 97}, {"time": 3581, "pitch": 51, "duration": 20, "velocity": 100}, {"time": 3587, "pitch": 63, "duration": 3, "velocity": 75}, {"time": 3593, "pitch": 63, "duration": 4, "velocity": 100}, {"time": 3593, "pitch": 67, "duration": 3, "velocity": 97}, {"time": 3593, "pitch": 70, "duration": 4, "velocity": 86}, {"time": 3599, "pitch": 63, "duration": 8, "velocity": 112}, {"time": 3599, "pitch": 67, "duration": 3, "velocity": 127}, {"time": 3599, "pitch": 70, "duration": 12, "velocity": 112}, {"time": 3602, "pitch": 67, "duration": 6, "velocity": 29}, {"time": 3605, "pitch": 51, "duration": 7, "velocity": 117}, {"time": 3611, "pitch": 63, "duration": 1, "velocity": 127}, {"time": 3623, "pitch": 44, "duration": 33, "velocity": 127}, {"time": 3629, "pitch": 56, "duration": 20, "velocity": 112}, {"time": 3635, "pitch": 68, "duration": 5, "velocity": 100}, {"time": 3641, "pitch": 68, "duration": 4, "velocity": 71}, {"time": 3641, "pitch": 71, "duration": 3, "velocity": 77}, {"time": 3641, "pitch": 75, "duration": 4, "velocity": 88}, {"time": 3647, "pitch": 68, "duration": 7, "velocity": 102}, {"time": 3647, "pitch": 71, "duration": 11, "velocity": 102}, {"time": 3647, "pitch": 75, "duration": 11, "velocity": 117}, {"time": 3653, "pitch": 56, "duration": 5, "velocity": 107}, {"time": 3659, "pitch": 68, "duration": 1, "velocity": 117}, {"time": 3671, "pitch": 47, "duration": 9, "velocity": 107}, {"time": 3671, "pitch": 63, "duration": 12, "velocity": 127}, {"time": 3671, "pitch": 66, "duration": 12, "velocity": 117}, {"time": 3683, "pitch": 59, "duration": 2, "velocity": 88}, {"time": 3695, "pitch": 42, "duration": 12, "velocity": 99}, {"time": 3695, "pitch": 61, "duration": 6, "velocity": 112}, {"time": 3695, "pitch": 66, "duration": 12, "velocity": 117}, {"time": 3695, "pitch": 70, "duration": 12, "velocity": 117}, {"time": 3701, "pitch": 54, "duration": 7, "velocity": 86}, {"time": 3707, "pitch": 61, "duration": 2, "velocity": 112}, {"time": 3719, "pitch": 37, "duration": 33, "velocity": 117}, {"time": 3719, "pitch": 61, "duration": 9, "velocity": 102}, {"time": 3719, "pitch": 64, "duration": 10, "velocity": 96}, {"time": 3719, "pitch": 68, "duration": 10, "velocity": 95}, {"time": 3725, "pitch": 49, "duration": 21, "velocity": 93}, {"time": 3731, "pitch": 61, "duration": 4, "velocity": 76}, {"time": 3737, "pitch": 61, "duration": 3, "velocity": 72}, {"time": 3737, "pitch": 64, "duration": 3, "velocity": 69}, {"time": 3737, "pitch": 68, "duration": 3, "velocity": 79}, {"time": 3743, "pitch": 61, "duration": 3, "velocity": 100}, {"time": 3743, "pitch": 64, "duration": 11, "velocity": 99}, {"time": 3743, "pitch": 68, "duration": 12, "velocity": 102}, {"time": 3749, "pitch": 49, "duration": 6, "velocity": 83}, {"time": 3755, "pitch": 61, "duration": 2, "velocity": 107}, {"time": 3767, "pitch": 44, "duration": 34, "velocity": 100}, {"time": 3767, "pitch": 59, "duration": 8, "velocity": 86}, {"time": 3767, "pitch": 63, "duration": 13, "velocity": 102}, {"time": 3767, "pitch": 68, "duration": 12, "velocity": 90}, {"time": 3773, "pitch": 56, "duration": 20, "velocity": 102}, {"time": 3779, "pitch": 59, "duration": 9, "velocity": 89}, {"time": 3785, "pitch": 63, "duration": 4, "velocity": 93}, {"time": 3785, "pitch": 68, "duration": 3, "velocity": 99}, {"time": 3791, "pitch": 59, "duration": 6, "velocity": 78}, {"time": 3791, "pitch": 63, "duration": 12, "velocity": 127}, {"time": 3791, "pitch": 68, "duration": 13, "velocity": 127}, {"time": 3797, "pitch": 56, "duration": 3, "velocity": 112}, {"time": 3803, "pitch": 59, "duration": 2, "velocity": 96}, {"time": 3815, "pitch": 37, "duration": 12, "velocity": 102}, {"time": 3815, "pitch": 61, "duration": 6, "velocity": 100}, {"time": 3815, "pitch": 64, "duration": 3, "velocity": 90}, {"time": 3815, "pitch": 68, "duration": 12, "velocity": 96}, {"time": 3821, "pitch": 49, "duration": 8, "velocity": 100}, {"time": 3821, "pitch": 64, "duration": 5, "velocity": 12}, {"time": 3827, "pitch": 61, "duration": 2, "velocity": 99}, {"time": 3839, "pitch": 39, "duration": 11, "velocity": 83}, {"time": 3839, "pitch": 51, "duration": 12, "velocity": 89}, {"time": 3839, "pitch": 63, "duration": 10, "velocity": 107}, {"time": 3839, "pitch": 66, "duration": 12, "velocity": 112}, {"time": 3839, "pitch": 70, "duration": 12, "velocity": 90}, {"time": 3863, "pitch": 42, "duration": 9, "velocity": 95}, {"time": 3863, "pitch": 61, "duration": 10, "velocity": 102}, {"time": 3863, "pitch": 66, "duration": 10, "velocity": 117}, {"time": 3863, "pitch": 70, "duration": 11, "velocity": 100}, {"time": 3887, "pitch": 44, "duration": 13, "velocity": 95}, {"time": 3887, "pitch": 56, "duration": 11, "velocity": 89}, {"time": 3887, "pitch": 63, "duration": 6, "velocity": 112}, {"time": 3887, "pitch": 68, "duration": 3, "velocity": 97}, {"time": 3887, "pitch": 71, "duration": 13, "velocity": 92}, {"time": 3890, "pitch": 68, "duration": 1, "velocity": 27}, {"time": 3899, "pitch": 63, "duration": 2, "velocity": 102}, {"time": 3911, "pitch": 42, "duration": 35, "velocity": 112}, {"time": 3911, "pitch": 58, "duration": 8, "velocity": 100}, {"time": 3911, "pitch": 61, "duration": 12, "velocity": 99}, {"time": 3911, "pitch": 66, "duration": 14, "velocity": 95}, {"time": 3917, "pitch": 54, "duration": 21, "velocity": 97}, {"time": 3923, "pitch": 61, "duration": 6, "velocity": 69}, {"time": 3929, "pitch": 61, "duration": 3, "velocity": 40}, {"time": 3929, "pitch": 66, "duration": 3, "velocity": 65}, {"time": 3929, "pitch": 70, "duration": 3, "velocity": 52}, {"time": 3935, "pitch": 61, "duration": 9, "velocity": 99}, {"time": 3935, "pitch": 66, "duration": 12, "velocity": 112}, {"time": 3935, "pitch": 70, "duration": 13, "velocity": 112}, {"time": 3941, "pitch": 51, "duration": 7, "velocity": 97}, {"time": 3947, "pitch": 63, "duration": 3, "velocity": 93}, {"time": 3959, "pitch": 44, "duration": 39, "velocity": 99}, {"time": 3959, "pitch": 63, "duration": 10, "velocity": 102}, {"time": 3959, "pitch": 68, "duration": 11, "velocity": 99}, {"time": 3959, "pitch": 71, "duration": 9, "velocity": 79}, {"time": 3965, "pitch": 56, "duration": 19, "velocity": 102}, {"time": 3971, "pitch": 63, "duration": 4, "velocity": 73}, {"time": 3977, "pitch": 63, "duration": 4, "velocity": 83}, {"time": 3977, "pitch": 68, "duration": 4, "velocity": 83}, {"time": 3977, "pitch": 71, "duration": 3, "velocity": 76}, {"time": 3983, "pitch": 63, "duration": 8, "velocity": 107}, {"time": 3983, "pitch": 68, "duration": 13, "velocity": 122}, {"time": 3983, "pitch": 71, "duration": 10, "velocity": 93}, {"time": 3989, "pitch": 56, "duration": 17, "velocity": 107}, {"time": 3995, "pitch": 63, "duration": 11, "velocity": 99}, {"time": 4007, "pitch": 44, "duration": 37, "velocity": 122}, {"time": 4013, "pitch": 56, "duration": 22, "velocity": 93}, {"time": 4019, "pitch": 59, "duration": 15, "velocity": 72}, {"time": 4025, "pitch": 63, "duration": 6, "velocity": 93}, {"time": 4025, "pitch": 68, "duration": 5, "velocity": 95}, {"time": 4031, "pitch": 63, "duration": 24, "velocity": 100}, {"time": 4031, "pitch": 68, "duration": 24, "velocity": 107}, {"time": 4037, "pitch": 56, "duration": 6, "velocity": 83}, {"time": 4043, "pitch": 59, "duration": 14, "velocity": 88}, {"time": 4055, "pitch": 42, "duration": 48, "velocity": 89}, {"time": 4061, "pitch": 54, "duration": 20, "velocity": 45}, {"time": 4067, "pitch": 58, "duration": 14, "velocity": 60}, {"time": 4073, "pitch": 61, "duration": 6, "velocity": 56}, {"time": 4079, "pitch": 61, "duration": 23, "velocity": 73}, {"time": 4079, "pitch": 66, "duration": 23, "velocity": 112}, {"time": 4085, "pitch": 54, "duration": 18, "velocity": 79}, {"time": 4091, "pitch": 58, "duration": 12, "velocity": 92}, {"time": 4103, "pitch": 61, "duration": 40, "velocity": 90}, {"time": 4109, "pitch": 68, "duration": 32, "velocity": 59}, {"time": 4115, "pitch": 73, "duration": 7, "velocity": 54}, {"time": 4121, "pitch": 76, "duration": 13, "velocity": 72}, {"time": 4121, "pitch": 80, "duration": 19, "velocity": 74}, {"time": 4127, "pitch": 73, "duration": 12, "velocity": 60}, {"time": 4139, "pitch": 76, "duration": 11, "velocity": 70}, {"time": 4145, "pitch": 80, "duration": 6, "velocity": 68}, {"time": 4151, "pitch": 56, "duration": 49, "velocity": 74}, {"time": 4157, "pitch": 63, "duration": 42, "velocity": 64}, {"time": 4163, "pitch": 68, "duration": 12, "velocity": 59}, {"time": 4169, "pitch": 71, "duration": 30, "velocity": 64}, {"time": 4175, "pitch": 75, "duration": 10, "velocity": 66}, {"time": 4181, "pitch": 68, "duration": 11, "velocity": 63}, {"time": 4187, "pitch": 75, "duration": 13, "velocity": 50}, {"time": 4187, "pitch": 80, "duration": 13, "velocity": 77}, {"time": 4199, "pitch": 61, "duration": 20, "velocity": 65}, {"time": 4199, "pitch": 76, "duration": 14, "velocity": 62}, {"time": 4199, "pitch": 80, "duration": 1, "velocity": 69}, {"time": 4205, "pitch": 68, "duration": 17, "velocity": 60}, {"time": 4211, "pitch": 73, "duration": 9, "velocity": 58}, {"time": 4217, "pitch": 76, "duration": 10, "velocity": 73}, {"time": 4223, "pitch": 63, "duration": 19, "velocity": 64}, {"time": 4229, "pitch": 70, "duration": 12, "velocity": 60}, {"time": 4235, "pitch": 75, "duration": 6, "velocity": 63}, {"time": 4241, "pitch": 78, "duration": 7, "velocity": 63}, {"time": 4247, "pitch": 54, "duration": 20, "velocity": 77}, {"time": 4253, "pitch": 61, "duration": 17, "velocity": 65}, {"time": 4259, "pitch": 70, "duration": 10, "velocity": 71}, {"time": 4259, "pitch": 73, "duration": 10, "velocity": 85}, {"time": 4265, "pitch": 66, "duration": 6, "velocity": 59}, {"time": 4271, "pitch": 56, "duration": 24, "velocity": 74}, {"time": 4271, "pitch": 71, "duration": 25, "velocity": 64}, {"time": 4271, "pitch": 75, "duration": 25, "velocity": 71}, {"time": 4277, "pitch": 63, "duration": 18, "velocity": 63}, {"time": 4283, "pitch": 68, "duration": 7, "velocity": 56}, {"time": 4289, "pitch": 80, "duration": 7, "velocity": 45}, {"time": 4295, "pitch": 76, "duration": 21, "velocity": 85}, {"time": 4295, "pitch": 80, "duration": 1, "velocity": 81}, {"time": 4298, "pitch": 61, "duration": 36, "velocity": 34}, {"time": 4307, "pitch": 68, "duration": 29, "velocity": 63}, {"time": 4313, "pitch": 73, "duration": 9, "velocity": 54}, {"time": 4319, "pitch": 76, "duration": 10, "velocity": 90}, {"time": 4319, "pitch": 80, "duration": 10, "velocity": 76}, {"time": 4325, "pitch": 73, "duration": 8, "velocity": 60}, {"time": 4331, "pitch": 76, "duration": 26, "velocity": 68}, {"time": 4331, "pitch": 80, "duration": 25, "velocity": 73}, {"time": 4343, "pitch": 63, "duration": 41, "velocity": 65}, {"time": 4349, "pitch": 70, "duration": 33, "velocity": 61}, {"time": 4355, "pitch": 75, "duration": 8, "velocity": 63}, {"time": 4361, "pitch": 79, "duration": 13, "velocity": 76}, {"time": 4367, "pitch": 75, "duration": 11, "velocity": 59}, {"time": 4373, "pitch": 67, "duration": 11, "velocity": 14}, {"time": 4373, "pitch": 82, "duration": 9, "velocity": 76}, {"time": 4379, "pitch": 79, "duration": 7, "velocity": 85}, {"time": 4385, "pitch": 82, "duration": 7, "velocity": 68}, {"time": 4391, "pitch": 56, "duration": 33, "velocity": 58}, {"time": 4391, "pitch": 71, "duration": 19, "velocity": 60}, {"time": 4391, "pitch": 75, "duration": 21, "velocity": 72}, {"time": 4397, "pitch": 63, "duration": 31, "velocity": 64}, {"time": 4403, "pitch": 68, "duration": 14, "velocity": 46}, {"time": 4415, "pitch": 71, "duration": 13, "velocity": 56}, {"time": 4415, "pitch": 75, "duration": 13, "velocity": 73}, {"time": 4415, "pitch": 80, "duration": 13, "velocity": 63}, {"time": 4421, "pitch": 68, "duration": 17, "velocity": 60}, {"time": 4439, "pitch": 59, "duration": 17, "velocity": 71}, {"time": 4439, "pitch": 75, "duration": 13, "velocity": 74}, {"time": 4439, "pitch": 78, "duration": 13, "velocity": 73}, {"time": 4445, "pitch": 66, "duration": 10, "velocity": 58}, {"time": 4451, "pitch": 71, "duration": 4, "velocity": 59}, {"time": 4463, "pitch": 54, "duration": 13, "velocity": 74}, {"time": 4463, "pitch": 70, "duration": 14, "velocity": 68}, {"time": 4463, "pitch": 73, "duration": 15, "velocity": 73}, {"time": 4469, "pitch": 61, "duration": 8, "velocity": 67}, {"time": 4475, "pitch": 66, "duration": 11, "velocity": 55}, {"time": 4487, "pitch": 61, "duration": 42, "velocity": 77}, {"time": 4487, "pitch": 76, "duration": 17, "velocity": 75}, {"time": 4487, "pitch": 80, "duration": 21, "velocity": 71}, {"time": 4493, "pitch": 68, "duration": 33, "velocity": 63}, {"time": 4499, "pitch": 73, "duration": 4, "velocity": 58}, {"time": 4505, "pitch": 73, "duration": 7, "velocity": 42}, {"time": 4517, "pitch": 73, "duration": 7, "velocity": 74}, {"time": 4517, "pitch": 80, "duration": 4, "velocity": 15}, {"time": 4523, "pitch": 76, "duration": 13, "velocity": 87}, {"time": 4529, "pitch": 80, "duration": 7, "velocity": 67}, {"time": 4535, "pitch": 56, "duration": 39, "velocity": 71}, {"time": 4541, "pitch": 63, "duration": 33, "velocity": 62}, {"time": 4547, "pitch": 68, "duration": 17, "velocity": 62}, {"time": 4553, "pitch": 71, "duration": 4, "velocity": 69}, {"time": 4559, "pitch": 71, "duration": 18, "velocity": 67}, {"time": 4559, "pitch": 75, "duration": 18, "velocity": 77}, {"time": 4565, "pitch": 68, "duration": 12, "velocity": 58}, {"time": 4583, "pitch": 61, "duration": 14, "velocity": 65}, {"time": 4583, "pitch": 76, "duration": 18, "velocity": 57}, {"time": 4583, "pitch": 80, "duration": 17, "velocity": 70}, {"time": 4589, "pitch": 68, "duration": 16, "velocity": 64}, {"time": 4595, "pitch": 73, "duration": 9, "velocity": 56}, {"time": 4607, "pitch": 63, "duration": 15, "velocity": 60}, {"time": 4607, "pitch": 78, "duration": 15, "velocity": 67}, {"time": 4607, "pitch": 82, "duration": 15, "velocity": 75}, {"time": 4631, "pitch": 54, "duration": 19, "velocity": 65}, {"time": 4631, "pitch": 70, "duration": 16, "velocity": 60}, {"time": 4631, "pitch": 73, "duration": 16, "velocity": 71}, {"time": 4637, "pitch": 61, "duration": 17, "velocity": 72}, {"time": 4643, "pitch": 66, "duration": 8, "velocity": 58}, {"time": 4655, "pitch": 56, "duration": 13, "velocity": 63}, {"time": 4655, "pitch": 71, "duration": 17, "velocity": 64}, {"time": 4655, "pitch": 75, "duration": 22, "velocity": 74}, {"time": 4661, "pitch": 63, "duration": 8, "velocity": 62}, {"time": 4667, "pitch": 68, "duration": 12, "velocity": 59}, {"time": 4679, "pitch": 54, "duration": 40, "velocity": 64}, {"time": 4679, "pitch": 70, "duration": 20, "velocity": 63}, {"time": 4679, "pitch": 73, "duration": 21, "velocity": 71}, {"time": 4679, "pitch": 78, "duration": 20, "velocity": 74}, {"time": 4685, "pitch": 61, "duration": 40, "velocity": 66}, {"time": 4691, "pitch": 66, "duration": 12, "velocity": 50}, {"time": 4703, "pitch": 70, "duration": 10, "velocity": 68}, {"time": 4703, "pitch": 73, "duration": 10, "velocity": 77}, {"time": 4703, "pitch": 78, "duration": 10, "velocity": 81}, {"time": 4709, "pitch": 66, "duration": 10, "velocity": 60}, {"time": 4715, "pitch": 70, "duration": 6, "velocity": 71}, {"time": 4715, "pitch": 73, "duration": 6, "velocity": 77}, {"time": 4715, "pitch": 78, "duration": 6, "velocity": 76}, {"time": 4727, "pitch": 56, "duration": 48, "velocity": 71}, {"time": 4727, "pitch": 71, "duration": 15, "velocity": 69}, {"time": 4727, "pitch": 75, "duration": 17, "velocity": 76}, {"time": 4727, "pitch": 80, "duration": 17, "velocity": 75}, {"time": 4733, "pitch": 63, "duration": 42, "velocity": 58}, {"time": 4739, "pitch": 68, "duration": 13, "velocity": 55}, {"time": 4745, "pitch": 71, "duration": 27, "velocity": 67}, {"time": 4751, "pitch": 75, "duration": 22, "velocity": 81}, {"time": 4763, "pitch": 68, "duration": 12, "velocity": 55}, {"time": 4775, "pitch": 61, "duration": 14, "velocity": 65}, {"time": 4775, "pitch": 76, "duration": 18, "velocity": 57}, {"time": 4775, "pitch": 80, "duration": 17, "velocity": 70}, {"time": 4781, "pitch": 68, "duration": 16, "velocity": 64}, {"time": 4787, "pitch": 73, "duration": 9, "velocity": 56}, {"time": 4799, "pitch": 63, "duration": 15, "velocity": 60}, {"time": 4799, "pitch": 78, "duration": 15, "velocity": 67}, {"time": 4799, "pitch": 82, "duration": 15, "velocity": 75}, {"time": 4823, "pitch": 54, "duration": 19, "velocity": 65}, {"time": 4823, "pitch": 70, "duration": 16, "velocity": 60}, {"time": 4823, "pitch": 73, "duration": 16, "velocity": 71}, {"time": 4829, "pitch": 61, "duration": 17, "velocity": 72}, {"time": 4835, "pitch": 66, "duration": 8, "velocity": 58}, {"time": 4847, "pitch": 56, "duration": 13, "velocity": 63}, {"time": 4847, "pitch": 71, "duration": 17, "velocity": 64}, {"time": 4847, "pitch": 75, "duration": 22, "velocity": 74}, {"time": 4853, "pitch": 63, "duration": 8, "velocity": 62}, {"time": 4859, "pitch": 68, "duration": 12, "velocity": 59}, {"time": 4871, "pitch": 54, "duration": 78, "velocity": 67}, {"time": 4871, "pitch": 70, "duration": 79, "velocity": 49}, {"time": 4880, "pitch": 61, "duration": 71, "velocity": 60}, {"time": 4889, "pitch": 66, "duration": 62, "velocity": 31}, {"time": 4895, "pitch": 73, "duration": 53, "velocity": 58}, {"time": 4904, "pitch": 78, "duration": 44, "velocity": 63}, {"time": 4961, "pitch": 56, "duration": 129, "velocity": 35}, {"time": 4970, "pitch": 63, "duration": 122, "velocity": 54}, {"time": 4976, "pitch": 68, "duration": 16, "velocity": 53}, {"time": 4982, "pitch": 71, "duration": 24, "velocity": 58}, {"time": 4988, "pitch": 75, "duration": 29, "velocity": 62}, {"time": 4997, "pitch": 68, "duration": 10, "velocity": 51}, {"time": 5003, "pitch": 80, "duration": 13, "velocity": 59}, {"time": 5015, "pitch": 68, "duration": 74, "velocity": 51}, {"time": 5015, "pitch": 71, "duration": 25, "velocity": 53}, {"time": 5036, "pitch": 83, "duration": 15, "velocity": 61}, {"time": 5054, "pitch": 83, "duration": 19, "velocity": 58}, {"time": 5066, "pitch": 92, "duration": 29, "velocity": 59}], "annotations": [{"time": 12, "annotation": {"number": 64, "value": 86}, "group": "control_change"}, {"time": 24, "annotation": {"number": 64, "value": 84}, "group": "control_change"}, {"time": 1703, "annotation": {"number": 64, "value": 127}, "group": "control_change"}, {"time": 1749, "annotation": {"number": 64, "value": 0}, "group": "control_change"}, {"time": 1752, "annotation": {"number": 64, "value": 127}, "group": "control_change"}, {"time": 1778, "annotation": {"number": 64, "value": 0}, "group": "control_change"}, {"time": 1785, "annotation": {"number": 64, "value": 127}, "group": "control_change"}, {"time": 1797, "annotation": {"number": 64, "value": 0}, "group": "control_change"}, {"time": 1800, "annotation": {"number": 64, "value": 127}, "group": "control_change"}, {"time": 1848, "annotation": {"number": 64, "value": 127}, "group": "control_change"}, {"time": 1892, "annotation": {"number": 64, "value": 0}, "group": "control_change"}, {"time": 1893, "annotation": {"number": 64, "value": 127}, "group": "control_change"}, {"time": 1915, "annotation": {"number": 64, "value": 0}, "group": "control_change"}, {"time": 1917, "annotation": {"number": 64, "value": 127}, "group": "control_change"}, {"time": 1941, "annotation": {"number": 64, "value": 0}, "group": "control_change"}, {"time": 1943, "annotation": {"number": 64, "value": 127}, "group": "control_change"}, {"time": 1966, "annotation": {"number": 64, "value": 0}, "group": "control_change"}, {"time": 1969, "annotation": {"number": 64, "value": 127}, "group": "control_change"}, {"time": 1989, "annotation": {"number": 64, "value": 0}, "group": "control_change"}, {"time": 1991, "annotation": {"number": 64, "value": 127}, "group": "control_change"}, {"time": 2036, "annotation": {"number": 64, "value": 0}, "group": "control_change"}, {"time": 2039, "annotation": {"number": 64, "value": 127}, "group": "control_change"}, {"time": 2086, "annotation": {"number": 64, "value": 0}, "group": "control_change"}, {"time": 2096, "annotation": {"number": 64, "value": 127}, "group": "control_change"}, {"time": 2133, "annotation": {"number": 64, "value": 0}, "group": "control_change"}, {"time": 2136, "annotation": {"number": 64, "value": 127}, "group": "control_change"}, {"time": 2157, "annotation": {"number": 64, "value": 0}, "group": "control_change"}, {"time": 2160, "annotation": {"number": 64, "value": 127}, "group": "control_change"}, {"time": 2180, "annotation": {"number": 64, "value": 0}, "group": "control_change"}, {"time": 2183, "annotation": {"number": 64, "value": 127}, "group": "control_change"}, {"time": 2228, "annotation": {"number": 64, "value": 0}, "group": "control_change"}, {"time": 2232, "annotation": {"number": 64, "value": 127}, "group": "control_change"}, {"time": 2276, "annotation": {"number": 64, "value": 0}, "group": "control_change"}, {"time": 2279, "annotation": {"number": 64, "value": 127}, "group": "control_change"}, {"time": 2303, "annotation": {"number": 64, "value": 0}, "group": "control_change"}, {"time": 2306, "annotation": {"number": 64, "value": 127}, "group": "control_change"}, {"time": 2323, "annotation": {"number": 64, "value": 0}, "group": "control_change"}, {"time": 2327, "annotation": {"number": 64, "value": 127}, "group": "control_change"}, {"time": 2347, "annotation": {"number": 64, "value": 0}, "group": "control_change"}, {"time": 2350, "annotation": {"number": 64, "value": 127}, "group": "control_change"}, {"time": 2377, "annotation": {"number": 64, "value": 127}, "group": "control_change"}, {"time": 2421, "annotation": {"number": 64, "value": 0}, "group": "control_change"}, {"time": 2424, "annotation": {"number": 64, "value": 127}, "group": "control_change"}, {"time": 2467, "annotation": {"number": 64, "value": 0}, "group": "control_change"}, {"time": 2471, "annotation": {"number": 64, "value": 127}, "group": "control_change"}, {"time": 2519, "annotation": {"number": 64, "value": 0}, "group": "control_change"}, {"time": 3239, "annotation": {"number": 64, "value": 127}, "group": "control_change"}, {"time": 3285, "annotation": {"number": 64, "value": 0}, "group": "control_change"}, {"time": 3286, "annotation": {"number": 64, "value": 127}, "group": "control_change"}, {"time": 3333, "annotation": {"number": 64, "value": 0}, "group": "control_change"}, {"time": 3335, "annotation": {"number": 64, "value": 127}, "group": "control_change"}, {"time": 3380, "annotation": {"number": 64, "value": 0}, "group": "control_change"}, {"time": 3382, "annotation": {"number": 64, "value": 127}, "group": "control_change"}, {"time": 3429, "annotation": {"number": 64, "value": 0}, "group": "control_change"}, {"time": 3431, "annotation": {"number": 64, "value": 127}, "group": "control_change"}, {"time": 3476, "annotation": {"number": 64, "value": 0}, "group": "control_change"}, {"time": 3479, "annotation": {"number": 64, "value": 127}, "group": "control_change"}, {"time": 3500, "annotation": {"number": 64, "value": 0}, "group": "control_change"}, {"time": 3502, "annotation": {"number": 64, "value": 127}, "group": "control_change"}, {"time": 3523, "annotation": {"number": 64, "value": 0}, "group": "control_change"}, {"time": 3526, "annotation": {"number": 64, "value": 127}, "group": "control_change"}, {"time": 3572, "annotation": {"number": 64, "value": 0}, "group": "control_change"}, {"time": 3574, "annotation": {"number": 64, "value": 127}, "group": "control_change"}, {"time": 3620, "annotation": {"number": 64, "value": 0}, "group": "control_change"}, {"time": 3622, "annotation": {"number": 64, "value": 127}, "group": "control_change"}, {"time": 3669, "annotation": {"number": 64, "value": 0}, "group": "control_change"}, {"time": 3670, "annotation": {"number": 64, "value": 127}, "group": "control_change"}, {"time": 3716, "annotation": {"number": 64, "value": 0}, "group": "control_change"}, {"time": 3718, "annotation": {"number": 64, "value": 127}, "group": "control_change"}, {"time": 3764, "annotation": {"number": 64, "value": 0}, "group": "control_change"}, {"time": 3766, "annotation": {"number": 64, "value": 127}, "group": "control_change"}, {"time": 3812, "annotation": {"number": 64, "value": 0}, "group": "control_change"}, {"time": 3814, "annotation": {"number": 64, "value": 127}, "group": "control_change"}, {"time": 3860, "annotation": {"number": 64, "value": 0}, "group": "control_change"}, {"time": 3863, "annotation": {"number": 64, "value": 127}, "group": "control_change"}, {"time": 3897, "annotation": {"number": 64, "value": 0}, "group": "control_change"}, {"time": 3899, "annotation": {"number": 64, "value": 127}, "group": "control_change"}, {"time": 3910, "annotation": {"number": 64, "value": 0}, "group": "control_change"}, {"time": 3911, "annotation": {"number": 64, "value": 127}, "group": "control_change"}, {"time": 3960, "annotation": {"number": 64, "value": 0}, "group": "control_change"}, {"time": 3963, "annotation": {"number": 64, "value": 127}, "group": "control_change"}, {"time": 3981, "annotation": {"number": 64, "value": 0}, "group": "control_change"}, {"time": 4007, "annotation": {"number": 64, "value": 127}, "group": "control_change"}, {"time": 4053, "annotation": {"number": 64, "value": 0}, "group": "control_change"}, {"time": 4057, "annotation": {"number": 64, "value": 127}, "group": "control_change"}, {"time": 4099, "annotation": {"number": 64, "value": 0}, "group": "control_change"}]}]}