{"metadata": {"schema_version": "0.2", "title": "None", "source_filename": "158.mid", "source_format": "midi"}, "resolution": 12, "tempos": [{"time": 0, "qpm": 113.00030886751091}, {"time": 84, "qpm": 110.9999056500802}, {"time": 120, "qpm": 110.00011000011}, {"time": 120, "qpm": 108.99994368336243}, {"time": 156, "qpm": 110.9999056500802}, {"time": 168, "qpm": 112.00005973336519}, {"time": 228, "qpm": 110.9999056500802}, {"time": 420, "qpm": 112.00005973336519}, {"time": 468, "qpm": 110.9999056500802}, {"time": 1212, "qpm": 112.00005973336519}, {"time": 1284, "qpm": 110.9999056500802}, {"time": 1368, "qpm": 110.00011000011}, {"time": 1404, "qpm": 110.9999056500802}, {"time": 1548, "qpm": 112.00005973336519}, {"time": 1632, "qpm": 110.9999056500802}, {"time": 1836, "qpm": 112.00005973336519}, {"time": 1908, "qpm": 110.9999056500802}, {"time": 3132, "qpm": 112.00005973336519}, {"time": 3204, "qpm": 110.9999056500802}, {"time": 3288, "qpm": 110.00011000011}, {"time": 3324, "qpm": 110.9999056500802}, {"time": 3468, "qpm": 112.00005973336519}, {"time": 3552, "qpm": 110.9999056500802}, {"time": 3756, "qpm": 112.00005973336519}, {"time": 3828, "qpm": 110.9999056500802}, {"time": 3936, "qpm": 112.00005973336519}, {"time": 3972, "qpm": 110.9999056500802}, {"time": 4056, "qpm": 110.00011000011}, {"time": 4092, "qpm": 110.9999056500802}, {"time": 4236, "qpm": 112.00005973336519}, {"time": 4320, "qpm": 110.9999056500802}, {"time": 4524, "qpm": 112.00005973336519}, {"time": 4596, "qpm": 110.9999056500802}, {"time": 4836, "qpm": 96.0}, {"time": 4860, "qpm": 87.00002175000543}], "time_signatures": [{"time": 0, "numerator": 1, "denominator": 4}], "tracks": [{"program": 0, "is_drum": false, "name": "MELODY", "notes": [{"time": 470, "pitch": 69, "duration": 12, "velocity": 61}, {"time": 482, "pitch": 77, "duration": 12, "velocity": 74}, {"time": 494, "pitch": 73, "duration": 12, "velocity": 65}, {"time": 506, "pitch": 76, "duration": 18, "velocity": 71}, {"time": 524, "pitch": 74, "duration": 6, "velocity": 65}, {"time": 530, "pitch": 74, "duration": 36, "velocity": 74}, {"time": 566, "pitch": 74, "duration": 6, "velocity": 75}, {"time": 572, "pitch": 76, "duration": 6, "velocity": 61}, {"time": 578, "pitch": 77, "duration": 12, "velocity": 69}, {"time": 590, "pitch": 76, "duration": 5, "velocity": 67}, {"time": 595, "pitch": 74, "duration": 7, "velocity": 59}, {"time": 602, "pitch": 70, "duration": 60, "velocity": 62}, {"time": 662, "pitch": 70, "duration": 12, "velocity": 61}, {"time": 674, "pitch": 79, "duration": 14, "velocity": 85}, {"time": 686, "pitch": 77, "duration": 12, "velocity": 79}, {"time": 698, "pitch": 77, "duration": 12, "velocity": 75}, {"time": 710, "pitch": 79, "duration": 6, "velocity": 75}, {"time": 716, "pitch": 76, "duration": 36, "velocity": 65}, {"time": 752, "pitch": 76, "duration": 6, "velocity": 64}, {"time": 758, "pitch": 76, "duration": 6, "velocity": 68}, {"time": 764, "pitch": 77, "duration": 6, "velocity": 68}, {"time": 770, "pitch": 79, "duration": 12, "velocity": 81}, {"time": 782, "pitch": 77, "duration": 6, "velocity": 63}, {"time": 788, "pitch": 76, "duration": 6, "velocity": 66}, {"time": 794, "pitch": 69, "duration": 60, "velocity": 65}, {"time": 854, "pitch": 69, "duration": 14, "velocity": 66}, {"time": 866, "pitch": 77, "duration": 12, "velocity": 68}, {"time": 878, "pitch": 73, "duration": 12, "velocity": 63}, {"time": 890, "pitch": 76, "duration": 18, "velocity": 71}, {"time": 908, "pitch": 74, "duration": 42, "velocity": 67}, {"time": 950, "pitch": 74, "duration": 12, "velocity": 70}, {"time": 962, "pitch": 82, "duration": 12, "velocity": 67}, {"time": 974, "pitch": 78, "duration": 12, "velocity": 74}, {"time": 986, "pitch": 81, "duration": 9, "velocity": 75}, {"time": 995, "pitch": 81, "duration": 9, "velocity": 74}, {"time": 1004, "pitch": 79, "duration": 6, "velocity": 74}, {"time": 1010, "pitch": 79, "duration": 36, "velocity": 76}, {"time": 1046, "pitch": 79, "duration": 6, "velocity": 83}, {"time": 1052, "pitch": 81, "duration": 6, "velocity": 67}, {"time": 1058, "pitch": 82, "duration": 12, "velocity": 75}, {"time": 1070, "pitch": 81, "duration": 6, "velocity": 74}, {"time": 1076, "pitch": 79, "duration": 6, "velocity": 73}, {"time": 1082, "pitch": 77, "duration": 12, "velocity": 74}, {"time": 1094, "pitch": 77, "duration": 6, "velocity": 65}, {"time": 1100, "pitch": 79, "duration": 6, "velocity": 71}, {"time": 1106, "pitch": 81, "duration": 12, "velocity": 81}, {"time": 1118, "pitch": 79, "duration": 6, "velocity": 83}, {"time": 1124, "pitch": 77, "duration": 7, "velocity": 63}, {"time": 1130, "pitch": 76, "duration": 12, "velocity": 67}, {"time": 1142, "pitch": 76, "duration": 6, "velocity": 67}, {"time": 1148, "pitch": 77, "duration": 6, "velocity": 66}, {"time": 1154, "pitch": 79, "duration": 12, "velocity": 100}, {"time": 1166, "pitch": 77, "duration": 6, "velocity": 68}, {"time": 1172, "pitch": 76, "duration": 6, "velocity": 65}, {"time": 1178, "pitch": 74, "duration": 60, "velocity": 69}, {"time": 1238, "pitch": 77, "duration": 12, "velocity": 93}, {"time": 1250, "pitch": 77, "duration": 12, "velocity": 85}, {"time": 1262, "pitch": 74, "duration": 12, "velocity": 74}, {"time": 1274, "pitch": 77, "duration": 18, "velocity": 90}, {"time": 1292, "pitch": 76, "duration": 6, "velocity": 65}, {"time": 1298, "pitch": 76, "duration": 36, "velocity": 77}, {"time": 1334, "pitch": 79, "duration": 12, "velocity": 83}, {"time": 1346, "pitch": 79, "duration": 12, "velocity": 87}, {"time": 1358, "pitch": 76, "duration": 12, "velocity": 70}, {"time": 1370, "pitch": 79, "duration": 18, "velocity": 93}, {"time": 1388, "pitch": 77, "duration": 6, "velocity": 69}, {"time": 1394, "pitch": 77, "duration": 36, "velocity": 79}, {"time": 1430, "pitch": 81, "duration": 6, "velocity": 100}, {"time": 1436, "pitch": 81, "duration": 6, "velocity": 87}, {"time": 1442, "pitch": 81, "duration": 12, "velocity": 98}, {"time": 1454, "pitch": 79, "duration": 6, "velocity": 74}, {"time": 1460, "pitch": 77, "duration": 6, "velocity": 71}, {"time": 1466, "pitch": 81, "duration": 18, "velocity": 108}, {"time": 1484, "pitch": 79, "duration": 6, "velocity": 100}, {"time": 1490, "pitch": 79, "duration": 36, "velocity": 95}, {"time": 1526, "pitch": 82, "duration": 6, "velocity": 108}, {"time": 1532, "pitch": 82, "duration": 6, "velocity": 81}, {"time": 1538, "pitch": 82, "duration": 6, "velocity": 93}, {"time": 1544, "pitch": 81, "duration": 6, "velocity": 74}, {"time": 1550, "pitch": 79, "duration": 6, "velocity": 83}, {"time": 1556, "pitch": 77, "duration": 18, "velocity": 74}, {"time": 1574, "pitch": 81, "duration": 42, "velocity": 95}, {"time": 1616, "pitch": 81, "duration": 6, "velocity": 74}, {"time": 1622, "pitch": 80, "duration": 6, "velocity": 67}, {"time": 1628, "pitch": 81, "duration": 6, "velocity": 95}, {"time": 1634, "pitch": 84, "duration": 6, "velocity": 50}, {"time": 1640, "pitch": 84, "duration": 6, "velocity": 108}, {"time": 1646, "pitch": 82, "duration": 6, "velocity": 79}, {"time": 1652, "pitch": 81, "duration": 6, "velocity": 70}, {"time": 1658, "pitch": 81, "duration": 5, "velocity": 77}, {"time": 1663, "pitch": 81, "duration": 7, "velocity": 52}, {"time": 1670, "pitch": 80, "duration": 6, "velocity": 67}, {"time": 1676, "pitch": 82, "duration": 36, "velocity": 95}, {"time": 1712, "pitch": 79, "duration": 6, "velocity": 90}, {"time": 1718, "pitch": 78, "duration": 6, "velocity": 68}, {"time": 1724, "pitch": 79, "duration": 6, "velocity": 95}, {"time": 1730, "pitch": 82, "duration": 6, "velocity": 111}, {"time": 1736, "pitch": 82, "duration": 6, "velocity": 100}, {"time": 1742, "pitch": 81, "duration": 5, "velocity": 90}, {"time": 1747, "pitch": 79, "duration": 7, "velocity": 86}, {"time": 1754, "pitch": 79, "duration": 12, "velocity": 90}, {"time": 1766, "pitch": 77, "duration": 6, "velocity": 72}, {"time": 1772, "pitch": 81, "duration": 36, "velocity": 90}, {"time": 1808, "pitch": 74, "duration": 7, "velocity": 65}, {"time": 1814, "pitch": 76, "duration": 7, "velocity": 67}, {"time": 1820, "pitch": 77, "duration": 6, "velocity": 70}, {"time": 1826, "pitch": 81, "duration": 12, "velocity": 69}, {"time": 1838, "pitch": 79, "duration": 6, "velocity": 85}, {"time": 1844, "pitch": 77, "duration": 6, "velocity": 74}, {"time": 1850, "pitch": 77, "duration": 12, "velocity": 73}, {"time": 1862, "pitch": 76, "duration": 6, "velocity": 64}, {"time": 1868, "pitch": 76, "duration": 42, "velocity": 81}, {"time": 1910, "pitch": 69, "duration": 6, "velocity": 60}, {"time": 1916, "pitch": 69, "duration": 6, "velocity": 58}, {"time": 1922, "pitch": 77, "duration": 18, "velocity": 72}, {"time": 1940, "pitch": 73, "duration": 6, "velocity": 68}, {"time": 1946, "pitch": 74, "duration": 58, "velocity": 74}, {"time": 2390, "pitch": 69, "duration": 12, "velocity": 61}, {"time": 2402, "pitch": 77, "duration": 12, "velocity": 74}, {"time": 2414, "pitch": 73, "duration": 12, "velocity": 65}, {"time": 2426, "pitch": 76, "duration": 18, "velocity": 71}, {"time": 2444, "pitch": 74, "duration": 6, "velocity": 65}, {"time": 2450, "pitch": 74, "duration": 36, "velocity": 74}, {"time": 2486, "pitch": 74, "duration": 6, "velocity": 75}, {"time": 2492, "pitch": 76, "duration": 6, "velocity": 61}, {"time": 2498, "pitch": 77, "duration": 12, "velocity": 69}, {"time": 2510, "pitch": 76, "duration": 5, "velocity": 67}, {"time": 2515, "pitch": 74, "duration": 7, "velocity": 59}, {"time": 2522, "pitch": 70, "duration": 60, "velocity": 62}, {"time": 2582, "pitch": 70, "duration": 12, "velocity": 61}, {"time": 2594, "pitch": 79, "duration": 14, "velocity": 85}, {"time": 2606, "pitch": 77, "duration": 12, "velocity": 79}, {"time": 2618, "pitch": 77, "duration": 12, "velocity": 75}, {"time": 2630, "pitch": 79, "duration": 6, "velocity": 75}, {"time": 2636, "pitch": 76, "duration": 36, "velocity": 65}, {"time": 2672, "pitch": 76, "duration": 6, "velocity": 64}, {"time": 2678, "pitch": 76, "duration": 6, "velocity": 68}, {"time": 2684, "pitch": 77, "duration": 6, "velocity": 68}, {"time": 2690, "pitch": 79, "duration": 12, "velocity": 81}, {"time": 2702, "pitch": 77, "duration": 6, "velocity": 63}, {"time": 2708, "pitch": 76, "duration": 6, "velocity": 66}, {"time": 2714, "pitch": 69, "duration": 60, "velocity": 65}, {"time": 2774, "pitch": 69, "duration": 14, "velocity": 66}, {"time": 2786, "pitch": 77, "duration": 12, "velocity": 68}, {"time": 2798, "pitch": 73, "duration": 12, "velocity": 63}, {"time": 2810, "pitch": 76, "duration": 18, "velocity": 71}, {"time": 2828, "pitch": 74, "duration": 42, "velocity": 67}, {"time": 2870, "pitch": 74, "duration": 12, "velocity": 70}, {"time": 2882, "pitch": 82, "duration": 12, "velocity": 67}, {"time": 2894, "pitch": 78, "duration": 12, "velocity": 74}, {"time": 2906, "pitch": 81, "duration": 9, "velocity": 75}, {"time": 2915, "pitch": 81, "duration": 9, "velocity": 74}, {"time": 2924, "pitch": 79, "duration": 6, "velocity": 74}, {"time": 2930, "pitch": 79, "duration": 36, "velocity": 76}, {"time": 2966, "pitch": 79, "duration": 6, "velocity": 83}, {"time": 2972, "pitch": 81, "duration": 6, "velocity": 67}, {"time": 2978, "pitch": 82, "duration": 12, "velocity": 75}, {"time": 2990, "pitch": 81, "duration": 6, "velocity": 74}, {"time": 2996, "pitch": 79, "duration": 6, "velocity": 73}, {"time": 3002, "pitch": 77, "duration": 12, "velocity": 74}, {"time": 3014, "pitch": 77, "duration": 6, "velocity": 65}, {"time": 3020, "pitch": 79, "duration": 6, "velocity": 71}, {"time": 3026, "pitch": 81, "duration": 12, "velocity": 81}, {"time": 3038, "pitch": 79, "duration": 6, "velocity": 83}, {"time": 3044, "pitch": 77, "duration": 7, "velocity": 63}, {"time": 3050, "pitch": 76, "duration": 12, "velocity": 67}, {"time": 3062, "pitch": 76, "duration": 6, "velocity": 67}, {"time": 3068, "pitch": 77, "duration": 6, "velocity": 66}, {"time": 3074, "pitch": 79, "duration": 12, "velocity": 100}, {"time": 3086, "pitch": 77, "duration": 6, "velocity": 68}, {"time": 3092, "pitch": 76, "duration": 6, "velocity": 65}, {"time": 3098, "pitch": 74, "duration": 60, "velocity": 69}, {"time": 3158, "pitch": 77, "duration": 12, "velocity": 93}, {"time": 3170, "pitch": 77, "duration": 12, "velocity": 85}, {"time": 3182, "pitch": 74, "duration": 12, "velocity": 74}, {"time": 3194, "pitch": 77, "duration": 18, "velocity": 90}, {"time": 3212, "pitch": 76, "duration": 6, "velocity": 65}, {"time": 3218, "pitch": 76, "duration": 36, "velocity": 77}, {"time": 3254, "pitch": 79, "duration": 12, "velocity": 83}, {"time": 3266, "pitch": 79, "duration": 12, "velocity": 87}, {"time": 3278, "pitch": 76, "duration": 12, "velocity": 70}, {"time": 3290, "pitch": 79, "duration": 18, "velocity": 93}, {"time": 3308, "pitch": 77, "duration": 6, "velocity": 69}, {"time": 3314, "pitch": 77, "duration": 36, "velocity": 79}, {"time": 3350, "pitch": 81, "duration": 6, "velocity": 100}, {"time": 3356, "pitch": 81, "duration": 6, "velocity": 87}, {"time": 3362, "pitch": 81, "duration": 12, "velocity": 98}, {"time": 3374, "pitch": 79, "duration": 6, "velocity": 74}, {"time": 3380, "pitch": 77, "duration": 6, "velocity": 71}, {"time": 3386, "pitch": 81, "duration": 18, "velocity": 108}, {"time": 3404, "pitch": 79, "duration": 6, "velocity": 100}, {"time": 3410, "pitch": 79, "duration": 36, "velocity": 95}, {"time": 3446, "pitch": 82, "duration": 6, "velocity": 108}, {"time": 3452, "pitch": 82, "duration": 6, "velocity": 81}, {"time": 3458, "pitch": 82, "duration": 6, "velocity": 93}, {"time": 3464, "pitch": 81, "duration": 6, "velocity": 74}, {"time": 3470, "pitch": 79, "duration": 6, "velocity": 83}, {"time": 3476, "pitch": 77, "duration": 18, "velocity": 74}, {"time": 3494, "pitch": 81, "duration": 42, "velocity": 95}, {"time": 3536, "pitch": 81, "duration": 6, "velocity": 74}, {"time": 3542, "pitch": 80, "duration": 6, "velocity": 67}, {"time": 3548, "pitch": 81, "duration": 6, "velocity": 95}, {"time": 3554, "pitch": 84, "duration": 6, "velocity": 50}, {"time": 3560, "pitch": 84, "duration": 6, "velocity": 108}, {"time": 3566, "pitch": 82, "duration": 6, "velocity": 79}, {"time": 3572, "pitch": 81, "duration": 6, "velocity": 70}, {"time": 3578, "pitch": 81, "duration": 5, "velocity": 77}, {"time": 3583, "pitch": 81, "duration": 7, "velocity": 52}, {"time": 3590, "pitch": 80, "duration": 6, "velocity": 67}, {"time": 3596, "pitch": 82, "duration": 36, "velocity": 95}, {"time": 3632, "pitch": 79, "duration": 6, "velocity": 90}, {"time": 3638, "pitch": 78, "duration": 6, "velocity": 68}, {"time": 3644, "pitch": 79, "duration": 6, "velocity": 95}, {"time": 3650, "pitch": 82, "duration": 6, "velocity": 111}, {"time": 3656, "pitch": 82, "duration": 6, "velocity": 100}, {"time": 3662, "pitch": 81, "duration": 5, "velocity": 90}, {"time": 3667, "pitch": 79, "duration": 7, "velocity": 86}, {"time": 3674, "pitch": 79, "duration": 12, "velocity": 90}, {"time": 3686, "pitch": 77, "duration": 6, "velocity": 72}, {"time": 3692, "pitch": 81, "duration": 36, "velocity": 90}, {"time": 3728, "pitch": 74, "duration": 7, "velocity": 65}, {"time": 3734, "pitch": 76, "duration": 7, "velocity": 67}, {"time": 3740, "pitch": 77, "duration": 6, "velocity": 70}, {"time": 3746, "pitch": 81, "duration": 12, "velocity": 69}, {"time": 3758, "pitch": 79, "duration": 6, "velocity": 85}, {"time": 3764, "pitch": 77, "duration": 6, "velocity": 74}, {"time": 3770, "pitch": 77, "duration": 12, "velocity": 73}, {"time": 3782, "pitch": 76, "duration": 6, "velocity": 64}, {"time": 3788, "pitch": 76, "duration": 42, "velocity": 81}, {"time": 3830, "pitch": 69, "duration": 6, "velocity": 60}, {"time": 3836, "pitch": 69, "duration": 6, "velocity": 58}, {"time": 3842, "pitch": 77, "duration": 18, "velocity": 72}, {"time": 3860, "pitch": 73, "duration": 6, "velocity": 68}, {"time": 3866, "pitch": 74, "duration": 60, "velocity": 74}, {"time": 3926, "pitch": 77, "duration": 12, "velocity": 93}, {"time": 3938, "pitch": 77, "duration": 12, "velocity": 85}, {"time": 3950, "pitch": 74, "duration": 12, "velocity": 74}, {"time": 3962, "pitch": 77, "duration": 18, "velocity": 90}, {"time": 3980, "pitch": 76, "duration": 6, "velocity": 65}, {"time": 3986, "pitch": 76, "duration": 36, "velocity": 77}, {"time": 4022, "pitch": 79, "duration": 12, "velocity": 83}, {"time": 4034, "pitch": 79, "duration": 12, "velocity": 87}, {"time": 4046, "pitch": 76, "duration": 12, "velocity": 70}, {"time": 4058, "pitch": 79, "duration": 18, "velocity": 93}, {"time": 4076, "pitch": 77, "duration": 6, "velocity": 69}, {"time": 4082, "pitch": 77, "duration": 36, "velocity": 79}, {"time": 4118, "pitch": 81, "duration": 6, "velocity": 100}, {"time": 4124, "pitch": 81, "duration": 6, "velocity": 87}, {"time": 4130, "pitch": 81, "duration": 12, "velocity": 98}, {"time": 4142, "pitch": 79, "duration": 6, "velocity": 74}, {"time": 4148, "pitch": 77, "duration": 6, "velocity": 71}, {"time": 4154, "pitch": 81, "duration": 18, "velocity": 108}, {"time": 4172, "pitch": 79, "duration": 6, "velocity": 100}, {"time": 4178, "pitch": 79, "duration": 36, "velocity": 95}, {"time": 4214, "pitch": 82, "duration": 6, "velocity": 108}, {"time": 4220, "pitch": 82, "duration": 6, "velocity": 81}, {"time": 4226, "pitch": 82, "duration": 6, "velocity": 93}, {"time": 4232, "pitch": 81, "duration": 6, "velocity": 74}, {"time": 4238, "pitch": 79, "duration": 6, "velocity": 83}, {"time": 4244, "pitch": 77, "duration": 18, "velocity": 74}, {"time": 4262, "pitch": 81, "duration": 42, "velocity": 95}, {"time": 4304, "pitch": 81, "duration": 6, "velocity": 74}, {"time": 4310, "pitch": 80, "duration": 6, "velocity": 67}, {"time": 4316, "pitch": 81, "duration": 6, "velocity": 95}, {"time": 4322, "pitch": 84, "duration": 6, "velocity": 50}, {"time": 4328, "pitch": 84, "duration": 6, "velocity": 108}, {"time": 4334, "pitch": 82, "duration": 6, "velocity": 79}, {"time": 4340, "pitch": 81, "duration": 6, "velocity": 70}, {"time": 4346, "pitch": 81, "duration": 5, "velocity": 77}, {"time": 4351, "pitch": 81, "duration": 7, "velocity": 52}, {"time": 4358, "pitch": 80, "duration": 6, "velocity": 67}, {"time": 4364, "pitch": 82, "duration": 36, "velocity": 95}, {"time": 4400, "pitch": 79, "duration": 6, "velocity": 90}, {"time": 4406, "pitch": 78, "duration": 6, "velocity": 68}, {"time": 4412, "pitch": 79, "duration": 6, "velocity": 95}, {"time": 4418, "pitch": 82, "duration": 6, "velocity": 111}, {"time": 4424, "pitch": 82, "duration": 6, "velocity": 100}, {"time": 4430, "pitch": 81, "duration": 5, "velocity": 90}, {"time": 4435, "pitch": 79, "duration": 7, "velocity": 86}, {"time": 4442, "pitch": 79, "duration": 12, "velocity": 90}, {"time": 4454, "pitch": 77, "duration": 6, "velocity": 72}, {"time": 4460, "pitch": 81, "duration": 36, "velocity": 90}, {"time": 4496, "pitch": 74, "duration": 7, "velocity": 65}, {"time": 4502, "pitch": 76, "duration": 7, "velocity": 67}, {"time": 4508, "pitch": 77, "duration": 6, "velocity": 70}, {"time": 4514, "pitch": 81, "duration": 12, "velocity": 69}, {"time": 4526, "pitch": 79, "duration": 6, "velocity": 85}, {"time": 4532, "pitch": 77, "duration": 6, "velocity": 74}, {"time": 4538, "pitch": 77, "duration": 12, "velocity": 73}, {"time": 4550, "pitch": 76, "duration": 6, "velocity": 64}, {"time": 4556, "pitch": 76, "duration": 42, "velocity": 81}, {"time": 4598, "pitch": 69, "duration": 6, "velocity": 60}, {"time": 4604, "pitch": 69, "duration": 6, "velocity": 58}, {"time": 4610, "pitch": 77, "duration": 18, "velocity": 72}, {"time": 4628, "pitch": 73, "duration": 6, "velocity": 68}, {"time": 4634, "pitch": 74, "duration": 58, "velocity": 74}]}, {"program": 0, "is_drum": false, "name": "BRIDGE", "notes": [{"time": 26, "pitch": 81, "duration": 24, "velocity": 77}, {"time": 50, "pitch": 79, "duration": 21, "velocity": 85}, {"time": 74, "pitch": 76, "duration": 10, "velocity": 74}, {"time": 86, "pitch": 73, "duration": 13, "velocity": 77}, {"time": 98, "pitch": 82, "duration": 15, "velocity": 104}, {"time": 110, "pitch": 81, "duration": 11, "velocity": 93}, {"time": 122, "pitch": 79, "duration": 19, "velocity": 85}, {"time": 140, "pitch": 77, "duration": 7, "velocity": 76}, {"time": 146, "pitch": 81, "duration": 30, "velocity": 100}, {"time": 182, "pitch": 74, "duration": 7, "velocity": 81}, {"time": 188, "pitch": 76, "duration": 3, "velocity": 58}, {"time": 194, "pitch": 77, "duration": 9, "velocity": 85}, {"time": 206, "pitch": 81, "duration": 11, "velocity": 60}, {"time": 218, "pitch": 84, "duration": 19, "velocity": 67}, {"time": 236, "pitch": 86, "duration": 7, "velocity": 72}, {"time": 242, "pitch": 82, "duration": 37, "velocity": 65}, {"time": 278, "pitch": 74, "duration": 9, "velocity": 60}, {"time": 290, "pitch": 86, "duration": 11, "velocity": 67}, {"time": 302, "pitch": 82, "duration": 11, "velocity": 73}, {"time": 314, "pitch": 81, "duration": 24, "velocity": 68}, {"time": 344, "pitch": 81, "duration": 7, "velocity": 85}, {"time": 350, "pitch": 79, "duration": 6, "velocity": 65}, {"time": 356, "pitch": 77, "duration": 3, "velocity": 74}, {"time": 362, "pitch": 77, "duration": 17, "velocity": 75}, {"time": 380, "pitch": 79, "duration": 4, "velocity": 60}, {"time": 383, "pitch": 77, "duration": 3, "velocity": 67}, {"time": 386, "pitch": 76, "duration": 13, "velocity": 62}, {"time": 398, "pitch": 77, "duration": 12, "velocity": 85}, {"time": 410, "pitch": 74, "duration": 12, "velocity": 72}, {"time": 428, "pitch": 82, "duration": 13, "velocity": 100}, {"time": 439, "pitch": 81, "duration": 5, "velocity": 64}, {"time": 446, "pitch": 77, "duration": 4, "velocity": 73}, {"time": 452, "pitch": 74, "duration": 5, "velocity": 65}, {"time": 458, "pitch": 69, "duration": 13, "velocity": 79}, {"time": 608, "pitch": 79, "duration": 10, "velocity": 65}, {"time": 620, "pitch": 81, "duration": 8, "velocity": 64}, {"time": 631, "pitch": 82, "duration": 3, "velocity": 60}, {"time": 638, "pitch": 86, "duration": 2, "velocity": 64}, {"time": 643, "pitch": 86, "duration": 4, "velocity": 69}, {"time": 650, "pitch": 79, "duration": 12, "velocity": 65}, {"time": 710, "pitch": 81, "duration": 4, "velocity": 61}, {"time": 716, "pitch": 85, "duration": 8, "velocity": 63}, {"time": 728, "pitch": 86, "duration": 4, "velocity": 74}, {"time": 734, "pitch": 88, "duration": 2, "velocity": 63}, {"time": 739, "pitch": 88, "duration": 4, "velocity": 66}, {"time": 746, "pitch": 81, "duration": 12, "velocity": 71}, {"time": 799, "pitch": 81, "duration": 12, "velocity": 63}, {"time": 812, "pitch": 86, "duration": 11, "velocity": 64}, {"time": 824, "pitch": 88, "duration": 7, "velocity": 70}, {"time": 830, "pitch": 89, "duration": 1, "velocity": 67}, {"time": 836, "pitch": 89, "duration": 2, "velocity": 67}, {"time": 842, "pitch": 81, "duration": 7, "velocity": 67}, {"time": 1178, "pitch": 74, "duration": 7, "velocity": 62}, {"time": 1184, "pitch": 76, "duration": 7, "velocity": 69}, {"time": 1190, "pitch": 77, "duration": 7, "velocity": 68}, {"time": 1196, "pitch": 81, "duration": 9, "velocity": 61}, {"time": 1202, "pitch": 74, "duration": 15, "velocity": 58}, {"time": 1208, "pitch": 76, "duration": 8, "velocity": 65}, {"time": 1214, "pitch": 77, "duration": 7, "velocity": 66}, {"time": 1220, "pitch": 81, "duration": 6, "velocity": 61}, {"time": 1226, "pitch": 74, "duration": 6, "velocity": 70}, {"time": 1310, "pitch": 89, "duration": 10, "velocity": 87}, {"time": 1322, "pitch": 88, "duration": 45, "velocity": 90}, {"time": 1466, "pitch": 74, "duration": 29, "velocity": 75}, {"time": 1499, "pitch": 81, "duration": 10, "velocity": 79}, {"time": 1514, "pitch": 79, "duration": 51, "velocity": 108}, {"time": 1592, "pitch": 74, "duration": 7, "velocity": 58}, {"time": 1598, "pitch": 82, "duration": 6, "velocity": 74}, {"time": 1604, "pitch": 81, "duration": 3, "velocity": 66}, {"time": 1610, "pitch": 81, "duration": 42, "velocity": 74}, {"time": 1790, "pitch": 88, "duration": 5, "velocity": 63}, {"time": 1793, "pitch": 86, "duration": 4, "velocity": 53}, {"time": 1796, "pitch": 82, "duration": 4, "velocity": 56}, {"time": 1799, "pitch": 79, "duration": 2, "velocity": 59}, {"time": 1802, "pitch": 74, "duration": 2, "velocity": 98}, {"time": 1880, "pitch": 86, "duration": 3, "velocity": 67}, {"time": 1886, "pitch": 89, "duration": 6, "velocity": 76}, {"time": 1892, "pitch": 88, "duration": 5, "velocity": 74}, {"time": 1898, "pitch": 81, "duration": 6, "velocity": 98}, {"time": 1946, "pitch": 74, "duration": 7, "velocity": 69}, {"time": 1952, "pitch": 76, "duration": 9, "velocity": 62}, {"time": 1958, "pitch": 77, "duration": 4, "velocity": 64}, {"time": 1963, "pitch": 81, "duration": 3, "velocity": 69}, {"time": 1970, "pitch": 86, "duration": 15, "velocity": 74}, {"time": 1976, "pitch": 88, "duration": 9, "velocity": 77}, {"time": 1982, "pitch": 91, "duration": 5, "velocity": 59}, {"time": 1988, "pitch": 93, "duration": 3, "velocity": 65}, {"time": 1994, "pitch": 98, "duration": 6, "velocity": 81}, {"time": 2000, "pitch": 74, "duration": 5, "velocity": 79}, {"time": 2006, "pitch": 73, "duration": 5, "velocity": 85}, {"time": 2012, "pitch": 74, "duration": 6, "velocity": 73}, {"time": 2018, "pitch": 75, "duration": 4, "velocity": 79}, {"time": 2024, "pitch": 74, "duration": 7, "velocity": 63}, {"time": 2030, "pitch": 73, "duration": 6, "velocity": 79}, {"time": 2036, "pitch": 74, "duration": 3, "velocity": 86}, {"time": 2042, "pitch": 84, "duration": 13, "velocity": 81}, {"time": 2060, "pitch": 86, "duration": 4, "velocity": 69}, {"time": 2066, "pitch": 82, "duration": 26, "velocity": 71}, {"time": 2102, "pitch": 82, "duration": 7, "velocity": 77}, {"time": 2108, "pitch": 84, "duration": 7, "velocity": 59}, {"time": 2114, "pitch": 86, "duration": 6, "velocity": 73}, {"time": 2120, "pitch": 84, "duration": 8, "velocity": 60}, {"time": 2132, "pitch": 79, "duration": 6, "velocity": 83}, {"time": 2138, "pitch": 82, "duration": 15, "velocity": 85}, {"time": 2156, "pitch": 84, "duration": 6, "velocity": 68}, {"time": 2162, "pitch": 81, "duration": 20, "velocity": 69}, {"time": 2198, "pitch": 81, "duration": 6, "velocity": 70}, {"time": 2204, "pitch": 82, "duration": 4, "velocity": 67}, {"time": 2210, "pitch": 84, "duration": 7, "velocity": 85}, {"time": 2219, "pitch": 86, "duration": 8, "velocity": 81}, {"time": 2228, "pitch": 81, "duration": 3, "velocity": 64}, {"time": 2234, "pitch": 81, "duration": 15, "velocity": 87}, {"time": 2252, "pitch": 82, "duration": 2, "velocity": 74}, {"time": 2258, "pitch": 79, "duration": 26, "velocity": 76}, {"time": 2288, "pitch": 79, "duration": 6, "velocity": 83}, {"time": 2294, "pitch": 78, "duration": 4, "velocity": 63}, {"time": 2300, "pitch": 79, "duration": 3, "velocity": 75}, {"time": 2306, "pitch": 84, "duration": 12, "velocity": 93}, {"time": 2324, "pitch": 82, "duration": 4, "velocity": 98}, {"time": 2330, "pitch": 81, "duration": 12, "velocity": 71}, {"time": 2348, "pitch": 82, "duration": 10, "velocity": 85}, {"time": 2360, "pitch": 81, "duration": 5, "velocity": 77}, {"time": 2366, "pitch": 79, "duration": 3, "velocity": 70}, {"time": 2372, "pitch": 76, "duration": 3, "velocity": 77}, {"time": 2378, "pitch": 81, "duration": 7, "velocity": 98}, {"time": 2528, "pitch": 79, "duration": 10, "velocity": 65}, {"time": 2540, "pitch": 81, "duration": 8, "velocity": 64}, {"time": 2551, "pitch": 82, "duration": 3, "velocity": 60}, {"time": 2558, "pitch": 86, "duration": 2, "velocity": 64}, {"time": 2563, "pitch": 86, "duration": 4, "velocity": 69}, {"time": 2570, "pitch": 79, "duration": 12, "velocity": 65}, {"time": 2630, "pitch": 81, "duration": 4, "velocity": 61}, {"time": 2636, "pitch": 85, "duration": 8, "velocity": 63}, {"time": 2648, "pitch": 86, "duration": 4, "velocity": 74}, {"time": 2654, "pitch": 88, "duration": 2, "velocity": 63}, {"time": 2659, "pitch": 88, "duration": 4, "velocity": 66}, {"time": 2666, "pitch": 81, "duration": 12, "velocity": 71}, {"time": 2719, "pitch": 81, "duration": 12, "velocity": 63}, {"time": 2732, "pitch": 86, "duration": 11, "velocity": 64}, {"time": 2744, "pitch": 88, "duration": 7, "velocity": 70}, {"time": 2750, "pitch": 89, "duration": 1, "velocity": 67}, {"time": 2756, "pitch": 89, "duration": 2, "velocity": 67}, {"time": 2762, "pitch": 81, "duration": 7, "velocity": 67}, {"time": 3098, "pitch": 74, "duration": 7, "velocity": 62}, {"time": 3104, "pitch": 76, "duration": 7, "velocity": 69}, {"time": 3110, "pitch": 77, "duration": 7, "velocity": 68}, {"time": 3116, "pitch": 81, "duration": 9, "velocity": 61}, {"time": 3122, "pitch": 74, "duration": 15, "velocity": 58}, {"time": 3128, "pitch": 76, "duration": 8, "velocity": 65}, {"time": 3134, "pitch": 77, "duration": 7, "velocity": 66}, {"time": 3140, "pitch": 81, "duration": 6, "velocity": 61}, {"time": 3146, "pitch": 74, "duration": 6, "velocity": 70}, {"time": 3230, "pitch": 89, "duration": 10, "velocity": 87}, {"time": 3242, "pitch": 88, "duration": 45, "velocity": 90}, {"time": 3386, "pitch": 74, "duration": 29, "velocity": 75}, {"time": 3419, "pitch": 81, "duration": 10, "velocity": 79}, {"time": 3434, "pitch": 79, "duration": 51, "velocity": 108}, {"time": 3512, "pitch": 74, "duration": 7, "velocity": 58}, {"time": 3518, "pitch": 82, "duration": 6, "velocity": 74}, {"time": 3524, "pitch": 81, "duration": 3, "velocity": 66}, {"time": 3530, "pitch": 81, "duration": 42, "velocity": 74}, {"time": 3710, "pitch": 88, "duration": 5, "velocity": 63}, {"time": 3713, "pitch": 86, "duration": 4, "velocity": 53}, {"time": 3716, "pitch": 82, "duration": 4, "velocity": 56}, {"time": 3719, "pitch": 79, "duration": 2, "velocity": 59}, {"time": 3722, "pitch": 74, "duration": 2, "velocity": 98}, {"time": 3800, "pitch": 86, "duration": 3, "velocity": 67}, {"time": 3806, "pitch": 89, "duration": 6, "velocity": 76}, {"time": 3812, "pitch": 88, "duration": 5, "velocity": 74}, {"time": 3818, "pitch": 81, "duration": 6, "velocity": 98}, {"time": 3866, "pitch": 74, "duration": 7, "velocity": 69}, {"time": 3872, "pitch": 76, "duration": 9, "velocity": 62}, {"time": 3878, "pitch": 77, "duration": 4, "velocity": 64}, {"time": 3883, "pitch": 81, "duration": 3, "velocity": 69}, {"time": 3890, "pitch": 86, "duration": 15, "velocity": 74}, {"time": 3896, "pitch": 88, "duration": 9, "velocity": 77}, {"time": 3902, "pitch": 91, "duration": 5, "velocity": 59}, {"time": 3908, "pitch": 93, "duration": 3, "velocity": 65}, {"time": 3998, "pitch": 89, "duration": 10, "velocity": 87}, {"time": 4010, "pitch": 88, "duration": 45, "velocity": 90}, {"time": 4154, "pitch": 74, "duration": 29, "velocity": 75}, {"time": 4187, "pitch": 81, "duration": 10, "velocity": 79}, {"time": 4202, "pitch": 79, "duration": 51, "velocity": 108}, {"time": 4280, "pitch": 74, "duration": 7, "velocity": 58}, {"time": 4286, "pitch": 82, "duration": 6, "velocity": 74}, {"time": 4292, "pitch": 81, "duration": 3, "velocity": 66}, {"time": 4298, "pitch": 81, "duration": 42, "velocity": 74}, {"time": 4478, "pitch": 88, "duration": 5, "velocity": 63}, {"time": 4481, "pitch": 86, "duration": 4, "velocity": 53}, {"time": 4484, "pitch": 82, "duration": 4, "velocity": 56}, {"time": 4487, "pitch": 79, "duration": 2, "velocity": 59}, {"time": 4490, "pitch": 74, "duration": 2, "velocity": 98}, {"time": 4568, "pitch": 86, "duration": 3, "velocity": 67}, {"time": 4574, "pitch": 89, "duration": 6, "velocity": 76}, {"time": 4580, "pitch": 88, "duration": 5, "velocity": 74}, {"time": 4586, "pitch": 81, "duration": 6, "velocity": 98}, {"time": 4634, "pitch": 74, "duration": 7, "velocity": 69}, {"time": 4640, "pitch": 76, "duration": 9, "velocity": 62}, {"time": 4646, "pitch": 77, "duration": 4, "velocity": 64}, {"time": 4651, "pitch": 81, "duration": 3, "velocity": 69}, {"time": 4658, "pitch": 86, "duration": 15, "velocity": 74}, {"time": 4664, "pitch": 88, "duration": 9, "velocity": 77}, {"time": 4670, "pitch": 67, "duration": 6, "velocity": 74}, {"time": 4670, "pitch": 91, "duration": 5, "velocity": 59}, {"time": 4676, "pitch": 69, "duration": 3, "velocity": 65}, {"time": 4676, "pitch": 93, "duration": 3, "velocity": 65}, {"time": 4682, "pitch": 70, "duration": 33, "velocity": 100}, {"time": 4718, "pitch": 82, "duration": 7, "velocity": 75}, {"time": 4724, "pitch": 84, "duration": 7, "velocity": 81}, {"time": 4730, "pitch": 86, "duration": 11, "velocity": 86}, {"time": 4736, "pitch": 76, "duration": 6, "velocity": 66}, {"time": 4742, "pitch": 77, "duration": 5, "velocity": 75}, {"time": 4748, "pitch": 86, "duration": 8, "velocity": 83}, {"time": 4754, "pitch": 88, "duration": 9, "velocity": 68}, {"time": 4760, "pitch": 77, "duration": 8, "velocity": 63}, {"time": 4766, "pitch": 81, "duration": 3, "velocity": 63}, {"time": 4772, "pitch": 89, "duration": 5, "velocity": 69}, {"time": 4778, "pitch": 88, "duration": 36, "velocity": 77}, {"time": 4814, "pitch": 82, "duration": 3, "velocity": 100}, {"time": 4817, "pitch": 81, "duration": 3, "velocity": 63}, {"time": 4820, "pitch": 79, "duration": 5, "velocity": 69}, {"time": 4823, "pitch": 77, "duration": 4, "velocity": 77}, {"time": 4826, "pitch": 76, "duration": 14, "velocity": 74}, {"time": 4850, "pitch": 89, "duration": 22, "velocity": 95}, {"time": 4886, "pitch": 86, "duration": 48, "velocity": 74}]}, {"program": 0, "is_drum": false, "name": "PIANO", "notes": [{"time": 122, "pitch": 50, "duration": 86, "velocity": 66}, {"time": 122, "pitch": 65, "duration": 16, "velocity": 66}, {"time": 122, "pitch": 69, "duration": 16, "velocity": 65}, {"time": 122, "pitch": 74, "duration": 16, "velocity": 67}, {"time": 134, "pitch": 57, "duration": 73, "velocity": 61}, {"time": 140, "pitch": 65, "duration": 21, "velocity": 67}, {"time": 140, "pitch": 69, "duration": 21, "velocity": 70}, {"time": 140, "pitch": 74, "duration": 20, "velocity": 72}, {"time": 152, "pitch": 62, "duration": 17, "velocity": 58}, {"time": 164, "pitch": 65, "duration": 2, "velocity": 59}, {"time": 164, "pitch": 69, "duration": 1, "velocity": 54}, {"time": 170, "pitch": 65, "duration": 15, "velocity": 65}, {"time": 170, "pitch": 69, "duration": 15, "velocity": 72}, {"time": 170, "pitch": 74, "duration": 15, "velocity": 74}, {"time": 182, "pitch": 62, "duration": 10, "velocity": 54}, {"time": 188, "pitch": 65, "duration": 14, "velocity": 71}, {"time": 188, "pitch": 69, "duration": 14, "velocity": 68}, {"time": 188, "pitch": 74, "duration": 14, "velocity": 76}, {"time": 200, "pitch": 62, "duration": 6, "velocity": 59}, {"time": 206, "pitch": 65, "duration": 12, "velocity": 74}, {"time": 206, "pitch": 69, "duration": 12, "velocity": 72}, {"time": 206, "pitch": 74, "duration": 12, "velocity": 75}, {"time": 218, "pitch": 43, "duration": 43, "velocity": 74}, {"time": 227, "pitch": 50, "duration": 75, "velocity": 10}, {"time": 230, "pitch": 55, "duration": 11, "velocity": 54}, {"time": 236, "pitch": 58, "duration": 21, "velocity": 60}, {"time": 242, "pitch": 62, "duration": 14, "velocity": 7}, {"time": 248, "pitch": 55, "duration": 12, "velocity": 58}, {"time": 260, "pitch": 58, "duration": 20, "velocity": 60}, {"time": 260, "pitch": 62, "duration": 19, "velocity": 70}, {"time": 266, "pitch": 43, "duration": 43, "velocity": 74}, {"time": 266, "pitch": 55, "duration": 22, "velocity": 60}, {"time": 284, "pitch": 58, "duration": 14, "velocity": 60}, {"time": 284, "pitch": 62, "duration": 14, "velocity": 69}, {"time": 296, "pitch": 55, "duration": 9, "velocity": 56}, {"time": 302, "pitch": 58, "duration": 11, "velocity": 64}, {"time": 302, "pitch": 62, "duration": 10, "velocity": 75}, {"time": 302, "pitch": 67, "duration": 10, "velocity": 63}, {"time": 314, "pitch": 50, "duration": 41, "velocity": 70}, {"time": 320, "pitch": 57, "duration": 31, "velocity": 60}, {"time": 326, "pitch": 62, "duration": 7, "velocity": 62}, {"time": 332, "pitch": 65, "duration": 15, "velocity": 73}, {"time": 332, "pitch": 69, "duration": 15, "velocity": 72}, {"time": 332, "pitch": 74, "duration": 15, "velocity": 76}, {"time": 344, "pitch": 62, "duration": 6, "velocity": 62}, {"time": 350, "pitch": 65, "duration": 13, "velocity": 79}, {"time": 350, "pitch": 69, "duration": 13, "velocity": 74}, {"time": 350, "pitch": 74, "duration": 13, "velocity": 76}, {"time": 362, "pitch": 52, "duration": 23, "velocity": 60}, {"time": 362, "pitch": 58, "duration": 22, "velocity": 61}, {"time": 362, "pitch": 64, "duration": 9, "velocity": 53}, {"time": 362, "pitch": 70, "duration": 14, "velocity": 67}, {"time": 362, "pitch": 74, "duration": 1, "velocity": 76}, {"time": 374, "pitch": 64, "duration": 8, "velocity": 59}, {"time": 380, "pitch": 70, "duration": 6, "velocity": 83}, {"time": 380, "pitch": 74, "duration": 6, "velocity": 76}, {"time": 386, "pitch": 64, "duration": 21, "velocity": 67}, {"time": 386, "pitch": 69, "duration": 21, "velocity": 74}, {"time": 386, "pitch": 45, "duration": 12, "velocity": 61}, {"time": 386, "pitch": 60, "duration": 21, "velocity": 59}, {"time": 398, "pitch": 52, "duration": 6, "velocity": 61}, {"time": 404, "pitch": 45, "duration": 6, "velocity": 67}, {"time": 410, "pitch": 50, "duration": 19, "velocity": 67}, {"time": 410, "pitch": 65, "duration": 16, "velocity": 64}, {"time": 410, "pitch": 69, "duration": 16, "velocity": 75}, {"time": 422, "pitch": 57, "duration": 7, "velocity": 60}, {"time": 428, "pitch": 58, "duration": 12, "velocity": 98}, {"time": 428, "pitch": 70, "duration": 12, "velocity": 98}, {"time": 440, "pitch": 57, "duration": 6, "velocity": 63}, {"time": 440, "pitch": 69, "duration": 6, "velocity": 63}, {"time": 446, "pitch": 53, "duration": 10, "velocity": 59}, {"time": 446, "pitch": 65, "duration": 10, "velocity": 59}, {"time": 452, "pitch": 50, "duration": 6, "velocity": 67}, {"time": 452, "pitch": 62, "duration": 6, "velocity": 67}, {"time": 458, "pitch": 45, "duration": 18, "velocity": 76}, {"time": 458, "pitch": 57, "duration": 18, "velocity": 76}, {"time": 482, "pitch": 45, "duration": 25, "velocity": 81}, {"time": 482, "pitch": 49, "duration": 25, "velocity": 75}, {"time": 482, "pitch": 52, "duration": 25, "velocity": 75}, {"time": 482, "pitch": 57, "duration": 24, "velocity": 69}, {"time": 482, "pitch": 61, "duration": 24, "velocity": 111}, {"time": 482, "pitch": 67, "duration": 23, "velocity": 65}, {"time": 506, "pitch": 50, "duration": 13, "velocity": 67}, {"time": 506, "pitch": 65, "duration": 11, "velocity": 67}, {"time": 506, "pitch": 69, "duration": 12, "velocity": 71}, {"time": 512, "pitch": 57, "duration": 74, "velocity": 61}, {"time": 524, "pitch": 50, "duration": 2, "velocity": 75}, {"time": 524, "pitch": 65, "duration": 21, "velocity": 44}, {"time": 524, "pitch": 69, "duration": 23, "velocity": 60}, {"time": 530, "pitch": 50, "duration": 9, "velocity": 76}, {"time": 530, "pitch": 62, "duration": 19, "velocity": 60}, {"time": 542, "pitch": 45, "duration": 12, "velocity": 62}, {"time": 554, "pitch": 50, "duration": 26, "velocity": 83}, {"time": 554, "pitch": 65, "duration": 11, "velocity": 76}, {"time": 554, "pitch": 69, "duration": 11, "velocity": 74}, {"time": 566, "pitch": 62, "duration": 7, "velocity": 60}, {"time": 572, "pitch": 65, "duration": 10, "velocity": 83}, {"time": 572, "pitch": 69, "duration": 11, "velocity": 76}, {"time": 584, "pitch": 62, "duration": 1, "velocity": 60}, {"time": 590, "pitch": 65, "duration": 9, "velocity": 87}, {"time": 590, "pitch": 69, "duration": 9, "velocity": 77}, {"time": 602, "pitch": 43, "duration": 46, "velocity": 73}, {"time": 608, "pitch": 50, "duration": 83, "velocity": 58}, {"time": 614, "pitch": 55, "duration": 34, "velocity": 57}, {"time": 620, "pitch": 58, "duration": 10, "velocity": 86}, {"time": 632, "pitch": 46, "duration": 55, "velocity": 63}, {"time": 638, "pitch": 58, "duration": 5, "velocity": 83}, {"time": 638, "pitch": 62, "duration": 5, "velocity": 73}, {"time": 650, "pitch": 43, "duration": 37, "velocity": 70}, {"time": 650, "pitch": 58, "duration": 10, "velocity": 93}, {"time": 650, "pitch": 62, "duration": 9, "velocity": 83}, {"time": 662, "pitch": 55, "duration": 4, "velocity": 50}, {"time": 668, "pitch": 58, "duration": 11, "velocity": 86}, {"time": 668, "pitch": 62, "duration": 10, "velocity": 81}, {"time": 680, "pitch": 55, "duration": 11, "velocity": 53}, {"time": 686, "pitch": 58, "duration": 9, "velocity": 93}, {"time": 686, "pitch": 62, "duration": 8, "velocity": 76}, {"time": 698, "pitch": 45, "duration": 12, "velocity": 72}, {"time": 704, "pitch": 52, "duration": 75, "velocity": 59}, {"time": 710, "pitch": 57, "duration": 5, "velocity": 59}, {"time": 716, "pitch": 45, "duration": 2, "velocity": 68}, {"time": 716, "pitch": 61, "duration": 10, "velocity": 79}, {"time": 716, "pitch": 64, "duration": 9, "velocity": 74}, {"time": 722, "pitch": 45, "duration": 10, "velocity": 72}, {"time": 728, "pitch": 57, "duration": 4, "velocity": 62}, {"time": 734, "pitch": 40, "duration": 13, "velocity": 77}, {"time": 734, "pitch": 61, "duration": 3, "velocity": 90}, {"time": 734, "pitch": 64, "duration": 3, "velocity": 76}, {"time": 740, "pitch": 57, "duration": 5, "velocity": 65}, {"time": 746, "pitch": 45, "duration": 32, "velocity": 77}, {"time": 746, "pitch": 61, "duration": 10, "velocity": 83}, {"time": 746, "pitch": 64, "duration": 10, "velocity": 85}, {"time": 758, "pitch": 57, "duration": 4, "velocity": 58}, {"time": 764, "pitch": 61, "duration": 9, "velocity": 76}, {"time": 764, "pitch": 64, "duration": 9, "velocity": 77}, {"time": 770, "pitch": 57, "duration": 9, "velocity": 59}, {"time": 782, "pitch": 61, "duration": 6, "velocity": 80}, {"time": 782, "pitch": 64, "duration": 8, "velocity": 93}, {"time": 794, "pitch": 50, "duration": 48, "velocity": 73}, {"time": 794, "pitch": 57, "duration": 48, "velocity": 59}, {"time": 800, "pitch": 62, "duration": 11, "velocity": 61}, {"time": 806, "pitch": 64, "duration": 21, "velocity": 79}, {"time": 818, "pitch": 62, "duration": 10, "velocity": 72}, {"time": 824, "pitch": 65, "duration": 14, "velocity": 83}, {"time": 836, "pitch": 62, "duration": 6, "velocity": 66}, {"time": 836, "pitch": 69, "duration": 6, "velocity": 86}, {"time": 842, "pitch": 45, "duration": 8, "velocity": 75}, {"time": 842, "pitch": 49, "duration": 8, "velocity": 77}, {"time": 842, "pitch": 52, "duration": 8, "velocity": 75}, {"time": 842, "pitch": 57, "duration": 8, "velocity": 73}, {"time": 842, "pitch": 61, "duration": 8, "velocity": 100}, {"time": 842, "pitch": 64, "duration": 7, "velocity": 79}, {"time": 842, "pitch": 67, "duration": 7, "velocity": 75}, {"time": 866, "pitch": 45, "duration": 24, "velocity": 59}, {"time": 866, "pitch": 49, "duration": 23, "velocity": 69}, {"time": 866, "pitch": 52, "duration": 23, "velocity": 74}, {"time": 866, "pitch": 57, "duration": 23, "velocity": 63}, {"time": 866, "pitch": 61, "duration": 23, "velocity": 87}, {"time": 866, "pitch": 67, "duration": 22, "velocity": 76}, {"time": 890, "pitch": 50, "duration": 13, "velocity": 76}, {"time": 890, "pitch": 65, "duration": 15, "velocity": 73}, {"time": 890, "pitch": 69, "duration": 15, "velocity": 77}, {"time": 896, "pitch": 57, "duration": 77, "velocity": 59}, {"time": 902, "pitch": 62, "duration": 9, "velocity": 59}, {"time": 908, "pitch": 50, "duration": 2, "velocity": 72}, {"time": 908, "pitch": 65, "duration": 17, "velocity": 76}, {"time": 908, "pitch": 69, "duration": 16, "velocity": 73}, {"time": 914, "pitch": 50, "duration": 10, "velocity": 75}, {"time": 920, "pitch": 62, "duration": 25, "velocity": 60}, {"time": 926, "pitch": 45, "duration": 11, "velocity": 69}, {"time": 926, "pitch": 65, "duration": 5, "velocity": 71}, {"time": 926, "pitch": 69, "duration": 7, "velocity": 76}, {"time": 938, "pitch": 50, "duration": 29, "velocity": 86}, {"time": 938, "pitch": 54, "duration": 36, "velocity": 67}, {"time": 938, "pitch": 66, "duration": 15, "velocity": 79}, {"time": 938, "pitch": 69, "duration": 16, "velocity": 79}, {"time": 950, "pitch": 62, "duration": 7, "velocity": 61}, {"time": 956, "pitch": 66, "duration": 12, "velocity": 86}, {"time": 956, "pitch": 69, "duration": 12, "velocity": 79}, {"time": 968, "pitch": 62, "duration": 6, "velocity": 63}, {"time": 974, "pitch": 66, "duration": 13, "velocity": 86}, {"time": 974, "pitch": 69, "duration": 12, "velocity": 72}, {"time": 986, "pitch": 43, "duration": 13, "velocity": 62}, {"time": 998, "pitch": 55, "duration": 11, "velocity": 48}, {"time": 1004, "pitch": 50, "duration": 2, "velocity": 76}, {"time": 1004, "pitch": 58, "duration": 28, "velocity": 79}, {"time": 1010, "pitch": 50, "duration": 11, "velocity": 76}, {"time": 1010, "pitch": 62, "duration": 25, "velocity": 75}, {"time": 1016, "pitch": 55, "duration": 7, "velocity": 53}, {"time": 1022, "pitch": 43, "duration": 8, "velocity": 58}, {"time": 1022, "pitch": 46, "duration": 48, "velocity": 71}, {"time": 1028, "pitch": 55, "duration": 7, "velocity": 61}, {"time": 1034, "pitch": 43, "duration": 16, "velocity": 62}, {"time": 1034, "pitch": 58, "duration": 15, "velocity": 83}, {"time": 1034, "pitch": 62, "duration": 1, "velocity": 79}, {"time": 1046, "pitch": 55, "duration": 10, "velocity": 55}, {"time": 1052, "pitch": 43, "duration": 2, "velocity": 63}, {"time": 1052, "pitch": 58, "duration": 13, "velocity": 90}, {"time": 1052, "pitch": 62, "duration": 12, "velocity": 86}, {"time": 1058, "pitch": 43, "duration": 16, "velocity": 72}, {"time": 1064, "pitch": 55, "duration": 4, "velocity": 56}, {"time": 1070, "pitch": 58, "duration": 10, "velocity": 78}, {"time": 1070, "pitch": 62, "duration": 9, "velocity": 78}, {"time": 1082, "pitch": 50, "duration": 37, "velocity": 77}, {"time": 1088, "pitch": 57, "duration": 31, "velocity": 62}, {"time": 1094, "pitch": 62, "duration": 4, "velocity": 60}, {"time": 1100, "pitch": 65, "duration": 14, "velocity": 85}, {"time": 1100, "pitch": 69, "duration": 14, "velocity": 75}, {"time": 1112, "pitch": 62, "duration": 7, "velocity": 67}, {"time": 1118, "pitch": 65, "duration": 13, "velocity": 90}, {"time": 1118, "pitch": 69, "duration": 13, "velocity": 79}, {"time": 1130, "pitch": 45, "duration": 39, "velocity": 77}, {"time": 1136, "pitch": 52, "duration": 34, "velocity": 61}, {"time": 1142, "pitch": 57, "duration": 9, "velocity": 59}, {"time": 1148, "pitch": 61, "duration": 14, "velocity": 88}, {"time": 1148, "pitch": 64, "duration": 14, "velocity": 88}, {"time": 1160, "pitch": 49, "duration": 9, "velocity": 37}, {"time": 1160, "pitch": 57, "duration": 19, "velocity": 63}, {"time": 1166, "pitch": 61, "duration": 11, "velocity": 89}, {"time": 1166, "pitch": 64, "duration": 11, "velocity": 89}, {"time": 1178, "pitch": 50, "duration": 39, "velocity": 83}, {"time": 1184, "pitch": 57, "duration": 38, "velocity": 67}, {"time": 1190, "pitch": 62, "duration": 8, "velocity": 62}, {"time": 1196, "pitch": 64, "duration": 19, "velocity": 85}, {"time": 1202, "pitch": 62, "duration": 13, "velocity": 70}, {"time": 1214, "pitch": 65, "duration": 8, "velocity": 76}, {"time": 1220, "pitch": 62, "duration": 6, "velocity": 73}, {"time": 1226, "pitch": 50, "duration": 9, "velocity": 86}, {"time": 1226, "pitch": 65, "duration": 9, "velocity": 81}, {"time": 1226, "pitch": 69, "duration": 9, "velocity": 83}, {"time": 1274, "pitch": 52, "duration": 39, "velocity": 60}, {"time": 1274, "pitch": 58, "duration": 37, "velocity": 62}, {"time": 1274, "pitch": 62, "duration": 10, "velocity": 58}, {"time": 1274, "pitch": 64, "duration": 15, "velocity": 70}, {"time": 1274, "pitch": 70, "duration": 15, "velocity": 74}, {"time": 1286, "pitch": 62, "duration": 23, "velocity": 59}, {"time": 1292, "pitch": 64, "duration": 14, "velocity": 72}, {"time": 1292, "pitch": 70, "duration": 14, "velocity": 73}, {"time": 1310, "pitch": 64, "duration": 13, "velocity": 86}, {"time": 1310, "pitch": 70, "duration": 13, "velocity": 81}, {"time": 1322, "pitch": 45, "duration": 13, "velocity": 67}, {"time": 1327, "pitch": 52, "duration": 34, "velocity": 63}, {"time": 1340, "pitch": 57, "duration": 8, "velocity": 56}, {"time": 1340, "pitch": 40, "duration": 2, "velocity": 74}, {"time": 1346, "pitch": 40, "duration": 11, "velocity": 85}, {"time": 1352, "pitch": 49, "duration": 8, "velocity": 60}, {"time": 1352, "pitch": 57, "duration": 12, "velocity": 63}, {"time": 1358, "pitch": 45, "duration": 12, "velocity": 81}, {"time": 1358, "pitch": 60, "duration": 12, "velocity": 69}, {"time": 1370, "pitch": 50, "duration": 15, "velocity": 86}, {"time": 1376, "pitch": 57, "duration": 34, "velocity": 58}, {"time": 1382, "pitch": 62, "duration": 9, "velocity": 53}, {"time": 1388, "pitch": 50, "duration": 6, "velocity": 60}, {"time": 1388, "pitch": 65, "duration": 14, "velocity": 74}, {"time": 1394, "pitch": 45, "duration": 9, "velocity": 74}, {"time": 1400, "pitch": 62, "duration": 10, "velocity": 54}, {"time": 1406, "pitch": 45, "duration": 13, "velocity": 90}, {"time": 1406, "pitch": 65, "duration": 3, "velocity": 59}, {"time": 1406, "pitch": 69, "duration": 10, "velocity": 74}, {"time": 1418, "pitch": 50, "duration": 37, "velocity": 71}, {"time": 1418, "pitch": 65, "duration": 14, "velocity": 65}, {"time": 1418, "pitch": 69, "duration": 14, "velocity": 70}, {"time": 1424, "pitch": 57, "duration": 30, "velocity": 63}, {"time": 1430, "pitch": 62, "duration": 9, "velocity": 52}, {"time": 1436, "pitch": 65, "duration": 14, "velocity": 67}, {"time": 1436, "pitch": 69, "duration": 14, "velocity": 74}, {"time": 1448, "pitch": 62, "duration": 5, "velocity": 58}, {"time": 1454, "pitch": 65, "duration": 9, "velocity": 70}, {"time": 1454, "pitch": 69, "duration": 9, "velocity": 75}, {"time": 1466, "pitch": 43, "duration": 37, "velocity": 71}, {"time": 1466, "pitch": 58, "duration": 13, "velocity": 83}, {"time": 1472, "pitch": 50, "duration": 33, "velocity": 43}, {"time": 1478, "pitch": 55, "duration": 11, "velocity": 60}, {"time": 1484, "pitch": 58, "duration": 15, "velocity": 74}, {"time": 1484, "pitch": 62, "duration": 14, "velocity": 73}, {"time": 1496, "pitch": 55, "duration": 11, "velocity": 52}, {"time": 1502, "pitch": 58, "duration": 10, "velocity": 85}, {"time": 1502, "pitch": 62, "duration": 9, "velocity": 73}, {"time": 1514, "pitch": 48, "duration": 38, "velocity": 70}, {"time": 1520, "pitch": 55, "duration": 30, "velocity": 61}, {"time": 1526, "pitch": 60, "duration": 9, "velocity": 59}, {"time": 1532, "pitch": 64, "duration": 15, "velocity": 67}, {"time": 1532, "pitch": 67, "duration": 15, "velocity": 77}, {"time": 1544, "pitch": 60, "duration": 5, "velocity": 60}, {"time": 1550, "pitch": 64, "duration": 3, "velocity": 79}, {"time": 1550, "pitch": 67, "duration": 3, "velocity": 79}, {"time": 1562, "pitch": 41, "duration": 50, "velocity": 76}, {"time": 1562, "pitch": 57, "duration": 15, "velocity": 65}, {"time": 1562, "pitch": 60, "duration": 15, "velocity": 72}, {"time": 1568, "pitch": 48, "duration": 44, "velocity": 74}, {"time": 1574, "pitch": 53, "duration": 8, "velocity": 58}, {"time": 1580, "pitch": 57, "duration": 14, "velocity": 68}, {"time": 1580, "pitch": 60, "duration": 14, "velocity": 79}, {"time": 1592, "pitch": 53, "duration": 9, "velocity": 60}, {"time": 1598, "pitch": 57, "duration": 8, "velocity": 65}, {"time": 1598, "pitch": 60, "duration": 8, "velocity": 73}, {"time": 1604, "pitch": 53, "duration": 6, "velocity": 58}, {"time": 1610, "pitch": 52, "duration": 24, "velocity": 76}, {"time": 1616, "pitch": 58, "duration": 15, "velocity": 56}, {"time": 1622, "pitch": 64, "duration": 5, "velocity": 60}, {"time": 1628, "pitch": 70, "duration": 4, "velocity": 73}, {"time": 1634, "pitch": 50, "duration": 20, "velocity": 65}, {"time": 1634, "pitch": 66, "duration": 15, "velocity": 67}, {"time": 1634, "pitch": 69, "duration": 14, "velocity": 83}, {"time": 1634, "pitch": 74, "duration": 3, "velocity": 83}, {"time": 1640, "pitch": 57, "duration": 11, "velocity": 58}, {"time": 1646, "pitch": 62, "duration": 6, "velocity": 58}, {"time": 1652, "pitch": 66, "duration": 5, "velocity": 87}, {"time": 1658, "pitch": 43, "duration": 40, "velocity": 73}, {"time": 1658, "pitch": 58, "duration": 15, "velocity": 75}, {"time": 1658, "pitch": 62, "duration": 11, "velocity": 63}, {"time": 1664, "pitch": 50, "duration": 39, "velocity": 62}, {"time": 1670, "pitch": 55, "duration": 9, "velocity": 53}, {"time": 1676, "pitch": 58, "duration": 13, "velocity": 93}, {"time": 1676, "pitch": 62, "duration": 12, "velocity": 76}, {"time": 1688, "pitch": 55, "duration": 8, "velocity": 60}, {"time": 1694, "pitch": 58, "duration": 7, "velocity": 87}, {"time": 1694, "pitch": 62, "duration": 7, "velocity": 77}, {"time": 1706, "pitch": 45, "duration": 36, "velocity": 78}, {"time": 1706, "pitch": 61, "duration": 14, "velocity": 78}, {"time": 1712, "pitch": 52, "duration": 31, "velocity": 60}, {"time": 1718, "pitch": 57, "duration": 8, "velocity": 59}, {"time": 1724, "pitch": 61, "duration": 14, "velocity": 83}, {"time": 1724, "pitch": 64, "duration": 13, "velocity": 83}, {"time": 1736, "pitch": 57, "duration": 14, "velocity": 65}, {"time": 1742, "pitch": 61, "duration": 10, "velocity": 88}, {"time": 1748, "pitch": 64, "duration": 5, "velocity": 77}, {"time": 1754, "pitch": 50, "duration": 45, "velocity": 75}, {"time": 1760, "pitch": 57, "duration": 42, "velocity": 55}, {"time": 1766, "pitch": 62, "duration": 8, "velocity": 58}, {"time": 1772, "pitch": 65, "duration": 14, "velocity": 81}, {"time": 1772, "pitch": 69, "duration": 14, "velocity": 72}, {"time": 1784, "pitch": 62, "duration": 8, "velocity": 58}, {"time": 1790, "pitch": 65, "duration": 8, "velocity": 85}, {"time": 1790, "pitch": 69, "duration": 8, "velocity": 75}, {"time": 1790, "pitch": 88, "duration": 4, "velocity": 71}, {"time": 1793, "pitch": 89, "duration": 3, "velocity": 86}, {"time": 1796, "pitch": 62, "duration": 3, "velocity": 60}, {"time": 1796, "pitch": 88, "duration": 2, "velocity": 59}, {"time": 1799, "pitch": 86, "duration": 4, "velocity": 81}, {"time": 1802, "pitch": 46, "duration": 45, "velocity": 39}, {"time": 1802, "pitch": 50, "duration": 45, "velocity": 81}, {"time": 1802, "pitch": 58, "duration": 9, "velocity": 37}, {"time": 1802, "pitch": 62, "duration": 15, "velocity": 69}, {"time": 1802, "pitch": 65, "duration": 15, "velocity": 87}, {"time": 1802, "pitch": 74, "duration": 13, "velocity": 65}, {"time": 1820, "pitch": 62, "duration": 14, "velocity": 74}, {"time": 1820, "pitch": 65, "duration": 14, "velocity": 87}, {"time": 1832, "pitch": 58, "duration": 17, "velocity": 76}, {"time": 1838, "pitch": 62, "duration": 12, "velocity": 73}, {"time": 1838, "pitch": 65, "duration": 11, "velocity": 87}, {"time": 1850, "pitch": 52, "duration": 49, "velocity": 64}, {"time": 1850, "pitch": 58, "duration": 48, "velocity": 56}, {"time": 1850, "pitch": 62, "duration": 10, "velocity": 60}, {"time": 1850, "pitch": 64, "duration": 14, "velocity": 71}, {"time": 1850, "pitch": 70, "duration": 14, "velocity": 68}, {"time": 1862, "pitch": 62, "duration": 6, "velocity": 60}, {"time": 1868, "pitch": 62, "duration": 1, "velocity": 69}, {"time": 1868, "pitch": 64, "duration": 14, "velocity": 76}, {"time": 1868, "pitch": 70, "duration": 15, "velocity": 70}, {"time": 1880, "pitch": 62, "duration": 16, "velocity": 64}, {"time": 1880, "pitch": 86, "duration": 3, "velocity": 69}, {"time": 1886, "pitch": 64, "duration": 10, "velocity": 87}, {"time": 1886, "pitch": 70, "duration": 10, "velocity": 83}, {"time": 1886, "pitch": 89, "duration": 6, "velocity": 75}, {"time": 1892, "pitch": 88, "duration": 6, "velocity": 65}, {"time": 1898, "pitch": 45, "duration": 9, "velocity": 85}, {"time": 1898, "pitch": 61, "duration": 9, "velocity": 87}, {"time": 1898, "pitch": 64, "duration": 8, "velocity": 85}, {"time": 1898, "pitch": 69, "duration": 8, "velocity": 74}, {"time": 1898, "pitch": 81, "duration": 7, "velocity": 65}, {"time": 1922, "pitch": 45, "duration": 22, "velocity": 77}, {"time": 1922, "pitch": 61, "duration": 22, "velocity": 98}, {"time": 1922, "pitch": 64, "duration": 21, "velocity": 86}, {"time": 1922, "pitch": 69, "duration": 21, "velocity": 79}, {"time": 1946, "pitch": 50, "duration": 15, "velocity": 69}, {"time": 1946, "pitch": 65, "duration": 14, "velocity": 71}, {"time": 1946, "pitch": 69, "duration": 14, "velocity": 70}, {"time": 1952, "pitch": 57, "duration": 78, "velocity": 62}, {"time": 1958, "pitch": 62, "duration": 11, "velocity": 53}, {"time": 1964, "pitch": 50, "duration": 6, "velocity": 81}, {"time": 1964, "pitch": 65, "duration": 14, "velocity": 74}, {"time": 1964, "pitch": 69, "duration": 14, "velocity": 74}, {"time": 1970, "pitch": 45, "duration": 9, "velocity": 77}, {"time": 1976, "pitch": 62, "duration": 8, "velocity": 61}, {"time": 1982, "pitch": 45, "duration": 12, "velocity": 76}, {"time": 1982, "pitch": 65, "duration": 40, "velocity": 59}, {"time": 1982, "pitch": 69, "duration": 42, "velocity": 74}, {"time": 1988, "pitch": 62, "duration": 22, "velocity": 62}, {"time": 1994, "pitch": 50, "duration": 40, "velocity": 75}, {"time": 1994, "pitch": 74, "duration": 37, "velocity": 87}, {"time": 2018, "pitch": 62, "duration": 10, "velocity": 79}, {"time": 2024, "pitch": 65, "duration": 18, "velocity": 72}, {"time": 2030, "pitch": 69, "duration": 13, "velocity": 79}, {"time": 2036, "pitch": 74, "duration": 7, "velocity": 76}, {"time": 2042, "pitch": 43, "duration": 41, "velocity": 79}, {"time": 2048, "pitch": 50, "duration": 38, "velocity": 58}, {"time": 2054, "pitch": 55, "duration": 12, "velocity": 62}, {"time": 2060, "pitch": 58, "duration": 15, "velocity": 70}, {"time": 2072, "pitch": 55, "duration": 15, "velocity": 59}, {"time": 2078, "pitch": 58, "duration": 12, "velocity": 77}, {"time": 2078, "pitch": 62, "duration": 10, "velocity": 67}, {"time": 2090, "pitch": 48, "duration": 38, "velocity": 86}, {"time": 2096, "pitch": 55, "duration": 31, "velocity": 61}, {"time": 2102, "pitch": 60, "duration": 8, "velocity": 60}, {"time": 2108, "pitch": 64, "duration": 14, "velocity": 85}, {"time": 2108, "pitch": 67, "duration": 14, "velocity": 85}, {"time": 2120, "pitch": 60, "duration": 6, "velocity": 70}, {"time": 2126, "pitch": 64, "duration": 3, "velocity": 83}, {"time": 2126, "pitch": 67, "duration": 3, "velocity": 76}, {"time": 2138, "pitch": 41, "duration": 36, "velocity": 74}, {"time": 2138, "pitch": 57, "duration": 15, "velocity": 69}, {"time": 2138, "pitch": 60, "duration": 15, "velocity": 73}, {"time": 2144, "pitch": 48, "duration": 32, "velocity": 74}, {"time": 2150, "pitch": 53, "duration": 10, "velocity": 60}, {"time": 2156, "pitch": 57, "duration": 13, "velocity": 67}, {"time": 2156, "pitch": 60, "duration": 13, "velocity": 76}, {"time": 2168, "pitch": 53, "duration": 8, "velocity": 59}, {"time": 2174, "pitch": 39, "duration": 12, "velocity": 85}, {"time": 2174, "pitch": 57, "duration": 13, "velocity": 81}, {"time": 2174, "pitch": 60, "duration": 13, "velocity": 83}, {"time": 2186, "pitch": 38, "duration": 16, "velocity": 85}, {"time": 2186, "pitch": 50, "duration": 39, "velocity": 75}, {"time": 2186, "pitch": 66, "duration": 15, "velocity": 74}, {"time": 2186, "pitch": 69, "duration": 14, "velocity": 73}, {"time": 2192, "pitch": 57, "duration": 31, "velocity": 58}, {"time": 2198, "pitch": 54, "duration": 25, "velocity": 65}, {"time": 2198, "pitch": 62, "duration": 10, "velocity": 58}, {"time": 2204, "pitch": 38, "duration": 2, "velocity": 74}, {"time": 2204, "pitch": 66, "duration": 15, "velocity": 85}, {"time": 2204, "pitch": 69, "duration": 14, "velocity": 76}, {"time": 2210, "pitch": 38, "duration": 4, "velocity": 65}, {"time": 2216, "pitch": 40, "duration": 6, "velocity": 60}, {"time": 2216, "pitch": 62, "duration": 5, "velocity": 63}, {"time": 2222, "pitch": 42, "duration": 3, "velocity": 67}, {"time": 2222, "pitch": 66, "duration": 11, "velocity": 90}, {"time": 2222, "pitch": 69, "duration": 10, "velocity": 79}, {"time": 2228, "pitch": 38, "duration": 5, "velocity": 68}, {"time": 2234, "pitch": 43, "duration": 36, "velocity": 79}, {"time": 2240, "pitch": 50, "duration": 19, "velocity": 60}, {"time": 2246, "pitch": 55, "duration": 9, "velocity": 52}, {"time": 2252, "pitch": 58, "duration": 14, "velocity": 98}, {"time": 2252, "pitch": 62, "duration": 13, "velocity": 85}, {"time": 2264, "pitch": 46, "duration": 15, "velocity": 2}, {"time": 2264, "pitch": 50, "duration": 14, "velocity": 65}, {"time": 2264, "pitch": 55, "duration": 8, "velocity": 66}, {"time": 2270, "pitch": 41, "duration": 12, "velocity": 77}, {"time": 2270, "pitch": 58, "duration": 13, "velocity": 95}, {"time": 2270, "pitch": 62, "duration": 12, "velocity": 79}, {"time": 2282, "pitch": 40, "duration": 40, "velocity": 87}, {"time": 2282, "pitch": 52, "duration": 14, "velocity": 71}, {"time": 2282, "pitch": 58, "duration": 1, "velocity": 60}, {"time": 2282, "pitch": 62, "duration": 14, "velocity": 58}, {"time": 2282, "pitch": 70, "duration": 14, "velocity": 65}, {"time": 2282, "pitch": 74, "duration": 14, "velocity": 65}, {"time": 2300, "pitch": 52, "duration": 18, "velocity": 60}, {"time": 2300, "pitch": 58, "duration": 17, "velocity": 63}, {"time": 2300, "pitch": 62, "duration": 17, "velocity": 58}, {"time": 2300, "pitch": 70, "duration": 15, "velocity": 67}, {"time": 2300, "pitch": 74, "duration": 15, "velocity": 66}, {"time": 2318, "pitch": 52, "duration": 10, "velocity": 83}, {"time": 2318, "pitch": 58, "duration": 10, "velocity": 83}, {"time": 2318, "pitch": 62, "duration": 10, "velocity": 69}, {"time": 2318, "pitch": 70, "duration": 11, "velocity": 64}, {"time": 2318, "pitch": 74, "duration": 11, "velocity": 66}, {"time": 2330, "pitch": 45, "duration": 13, "velocity": 74}, {"time": 2330, "pitch": 45, "duration": 13, "velocity": 87}, {"time": 2330, "pitch": 61, "duration": 13, "velocity": 83}, {"time": 2330, "pitch": 64, "duration": 13, "velocity": 74}, {"time": 2330, "pitch": 69, "duration": 12, "velocity": 64}, {"time": 2336, "pitch": 52, "duration": 34, "velocity": 60}, {"time": 2342, "pitch": 49, "duration": 26, "velocity": 62}, {"time": 2342, "pitch": 57, "duration": 8, "velocity": 58}, {"time": 2348, "pitch": 61, "duration": 14, "velocity": 111}, {"time": 2348, "pitch": 64, "duration": 14, "velocity": 83}, {"time": 2348, "pitch": 69, "duration": 13, "velocity": 63}, {"time": 2349, "pitch": 46, "duration": 8, "velocity": 93}, {"time": 2360, "pitch": 45, "duration": 7, "velocity": 64}, {"time": 2360, "pitch": 57, "duration": 9, "velocity": 64}, {"time": 2366, "pitch": 43, "duration": 6, "velocity": 67}, {"time": 2366, "pitch": 61, "duration": 3, "velocity": 104}, {"time": 2366, "pitch": 64, "duration": 2, "velocity": 81}, {"time": 2366, "pitch": 69, "duration": 1, "velocity": 60}, {"time": 2372, "pitch": 40, "duration": 2, "velocity": 61}, {"time": 2378, "pitch": 45, "duration": 6, "velocity": 50}, {"time": 2378, "pitch": 45, "duration": 6, "velocity": 104}, {"time": 2378, "pitch": 49, "duration": 6, "velocity": 67}, {"time": 2378, "pitch": 52, "duration": 6, "velocity": 66}, {"time": 2378, "pitch": 57, "duration": 6, "velocity": 54}, {"time": 2378, "pitch": 61, "duration": 6, "velocity": 114}, {"time": 2378, "pitch": 64, "duration": 6, "velocity": 87}, {"time": 2378, "pitch": 69, "duration": 5, "velocity": 77}, {"time": 2402, "pitch": 45, "duration": 25, "velocity": 81}, {"time": 2402, "pitch": 49, "duration": 25, "velocity": 75}, {"time": 2402, "pitch": 52, "duration": 25, "velocity": 75}, {"time": 2402, "pitch": 57, "duration": 24, "velocity": 69}, {"time": 2402, "pitch": 61, "duration": 24, "velocity": 111}, {"time": 2402, "pitch": 67, "duration": 23, "velocity": 65}, {"time": 2426, "pitch": 50, "duration": 13, "velocity": 67}, {"time": 2426, "pitch": 65, "duration": 11, "velocity": 67}, {"time": 2426, "pitch": 69, "duration": 12, "velocity": 71}, {"time": 2432, "pitch": 57, "duration": 74, "velocity": 61}, {"time": 2444, "pitch": 50, "duration": 2, "velocity": 75}, {"time": 2444, "pitch": 65, "duration": 21, "velocity": 44}, {"time": 2444, "pitch": 69, "duration": 23, "velocity": 60}, {"time": 2450, "pitch": 50, "duration": 9, "velocity": 76}, {"time": 2450, "pitch": 62, "duration": 19, "velocity": 60}, {"time": 2462, "pitch": 45, "duration": 12, "velocity": 62}, {"time": 2474, "pitch": 50, "duration": 26, "velocity": 83}, {"time": 2474, "pitch": 65, "duration": 11, "velocity": 76}, {"time": 2474, "pitch": 69, "duration": 11, "velocity": 74}, {"time": 2486, "pitch": 62, "duration": 7, "velocity": 60}, {"time": 2492, "pitch": 65, "duration": 10, "velocity": 83}, {"time": 2492, "pitch": 69, "duration": 11, "velocity": 76}, {"time": 2504, "pitch": 62, "duration": 1, "velocity": 60}, {"time": 2510, "pitch": 65, "duration": 9, "velocity": 87}, {"time": 2510, "pitch": 69, "duration": 9, "velocity": 77}, {"time": 2522, "pitch": 43, "duration": 46, "velocity": 73}, {"time": 2528, "pitch": 50, "duration": 83, "velocity": 58}, {"time": 2534, "pitch": 55, "duration": 34, "velocity": 57}, {"time": 2540, "pitch": 58, "duration": 10, "velocity": 86}, {"time": 2552, "pitch": 46, "duration": 55, "velocity": 63}, {"time": 2558, "pitch": 58, "duration": 5, "velocity": 83}, {"time": 2558, "pitch": 62, "duration": 5, "velocity": 73}, {"time": 2570, "pitch": 43, "duration": 37, "velocity": 70}, {"time": 2570, "pitch": 58, "duration": 10, "velocity": 93}, {"time": 2570, "pitch": 62, "duration": 9, "velocity": 83}, {"time": 2582, "pitch": 55, "duration": 4, "velocity": 50}, {"time": 2588, "pitch": 58, "duration": 11, "velocity": 86}, {"time": 2588, "pitch": 62, "duration": 10, "velocity": 81}, {"time": 2600, "pitch": 55, "duration": 11, "velocity": 53}, {"time": 2606, "pitch": 58, "duration": 9, "velocity": 93}, {"time": 2606, "pitch": 62, "duration": 8, "velocity": 76}, {"time": 2618, "pitch": 45, "duration": 12, "velocity": 72}, {"time": 2624, "pitch": 52, "duration": 75, "velocity": 59}, {"time": 2630, "pitch": 57, "duration": 5, "velocity": 59}, {"time": 2636, "pitch": 45, "duration": 2, "velocity": 68}, {"time": 2636, "pitch": 61, "duration": 10, "velocity": 114}, {"time": 2636, "pitch": 64, "duration": 9, "velocity": 74}, {"time": 2642, "pitch": 45, "duration": 10, "velocity": 72}, {"time": 2648, "pitch": 57, "duration": 4, "velocity": 62}, {"time": 2654, "pitch": 40, "duration": 13, "velocity": 77}, {"time": 2654, "pitch": 61, "duration": 3, "velocity": 90}, {"time": 2654, "pitch": 64, "duration": 3, "velocity": 76}, {"time": 2660, "pitch": 57, "duration": 5, "velocity": 65}, {"time": 2666, "pitch": 45, "duration": 32, "velocity": 77}, {"time": 2666, "pitch": 61, "duration": 10, "velocity": 112}, {"time": 2666, "pitch": 64, "duration": 10, "velocity": 85}, {"time": 2678, "pitch": 57, "duration": 4, "velocity": 58}, {"time": 2684, "pitch": 61, "duration": 9, "velocity": 104}, {"time": 2684, "pitch": 64, "duration": 9, "velocity": 77}, {"time": 2690, "pitch": 57, "duration": 9, "velocity": 59}, {"time": 2702, "pitch": 61, "duration": 6, "velocity": 112}, {"time": 2702, "pitch": 64, "duration": 8, "velocity": 93}, {"time": 2714, "pitch": 50, "duration": 48, "velocity": 73}, {"time": 2714, "pitch": 57, "duration": 48, "velocity": 59}, {"time": 2720, "pitch": 62, "duration": 11, "velocity": 61}, {"time": 2726, "pitch": 64, "duration": 21, "velocity": 79}, {"time": 2738, "pitch": 62, "duration": 10, "velocity": 72}, {"time": 2744, "pitch": 65, "duration": 14, "velocity": 83}, {"time": 2756, "pitch": 62, "duration": 6, "velocity": 66}, {"time": 2756, "pitch": 69, "duration": 6, "velocity": 86}, {"time": 2762, "pitch": 45, "duration": 8, "velocity": 75}, {"time": 2762, "pitch": 49, "duration": 8, "velocity": 77}, {"time": 2762, "pitch": 52, "duration": 8, "velocity": 75}, {"time": 2762, "pitch": 57, "duration": 8, "velocity": 73}, {"time": 2762, "pitch": 61, "duration": 8, "velocity": 100}, {"time": 2762, "pitch": 64, "duration": 7, "velocity": 79}, {"time": 2762, "pitch": 67, "duration": 7, "velocity": 75}, {"time": 2786, "pitch": 45, "duration": 24, "velocity": 59}, {"time": 2786, "pitch": 49, "duration": 23, "velocity": 69}, {"time": 2786, "pitch": 52, "duration": 23, "velocity": 74}, {"time": 2786, "pitch": 57, "duration": 23, "velocity": 63}, {"time": 2786, "pitch": 61, "duration": 23, "velocity": 87}, {"time": 2786, "pitch": 67, "duration": 22, "velocity": 76}, {"time": 2810, "pitch": 50, "duration": 13, "velocity": 76}, {"time": 2810, "pitch": 65, "duration": 15, "velocity": 73}, {"time": 2810, "pitch": 69, "duration": 15, "velocity": 77}, {"time": 2816, "pitch": 57, "duration": 77, "velocity": 59}, {"time": 2822, "pitch": 62, "duration": 9, "velocity": 59}, {"time": 2828, "pitch": 50, "duration": 2, "velocity": 72}, {"time": 2828, "pitch": 65, "duration": 17, "velocity": 76}, {"time": 2828, "pitch": 69, "duration": 16, "velocity": 73}, {"time": 2834, "pitch": 50, "duration": 10, "velocity": 75}, {"time": 2840, "pitch": 62, "duration": 25, "velocity": 60}, {"time": 2846, "pitch": 45, "duration": 11, "velocity": 69}, {"time": 2846, "pitch": 65, "duration": 5, "velocity": 71}, {"time": 2846, "pitch": 69, "duration": 7, "velocity": 76}, {"time": 2858, "pitch": 50, "duration": 29, "velocity": 86}, {"time": 2858, "pitch": 54, "duration": 36, "velocity": 67}, {"time": 2858, "pitch": 66, "duration": 15, "velocity": 79}, {"time": 2858, "pitch": 69, "duration": 16, "velocity": 79}, {"time": 2870, "pitch": 62, "duration": 7, "velocity": 61}, {"time": 2876, "pitch": 66, "duration": 12, "velocity": 86}, {"time": 2876, "pitch": 69, "duration": 12, "velocity": 79}, {"time": 2888, "pitch": 62, "duration": 6, "velocity": 63}, {"time": 2894, "pitch": 66, "duration": 13, "velocity": 86}, {"time": 2894, "pitch": 69, "duration": 12, "velocity": 72}, {"time": 2906, "pitch": 43, "duration": 13, "velocity": 62}, {"time": 2918, "pitch": 55, "duration": 11, "velocity": 48}, {"time": 2924, "pitch": 50, "duration": 2, "velocity": 76}, {"time": 2924, "pitch": 58, "duration": 28, "velocity": 79}, {"time": 2930, "pitch": 50, "duration": 11, "velocity": 76}, {"time": 2930, "pitch": 62, "duration": 25, "velocity": 75}, {"time": 2936, "pitch": 55, "duration": 7, "velocity": 53}, {"time": 2942, "pitch": 43, "duration": 8, "velocity": 58}, {"time": 2942, "pitch": 46, "duration": 48, "velocity": 71}, {"time": 2948, "pitch": 55, "duration": 7, "velocity": 61}, {"time": 2954, "pitch": 43, "duration": 16, "velocity": 62}, {"time": 2954, "pitch": 58, "duration": 15, "velocity": 83}, {"time": 2954, "pitch": 62, "duration": 1, "velocity": 79}, {"time": 2966, "pitch": 55, "duration": 10, "velocity": 55}, {"time": 2972, "pitch": 43, "duration": 2, "velocity": 63}, {"time": 2972, "pitch": 58, "duration": 13, "velocity": 90}, {"time": 2972, "pitch": 62, "duration": 12, "velocity": 86}, {"time": 2978, "pitch": 43, "duration": 16, "velocity": 72}, {"time": 2984, "pitch": 55, "duration": 4, "velocity": 56}, {"time": 2990, "pitch": 58, "duration": 10, "velocity": 90}, {"time": 2990, "pitch": 62, "duration": 9, "velocity": 85}, {"time": 3002, "pitch": 50, "duration": 37, "velocity": 77}, {"time": 3008, "pitch": 57, "duration": 31, "velocity": 62}, {"time": 3014, "pitch": 62, "duration": 4, "velocity": 60}, {"time": 3020, "pitch": 65, "duration": 14, "velocity": 85}, {"time": 3020, "pitch": 69, "duration": 14, "velocity": 75}, {"time": 3032, "pitch": 62, "duration": 7, "velocity": 67}, {"time": 3038, "pitch": 65, "duration": 13, "velocity": 90}, {"time": 3038, "pitch": 69, "duration": 13, "velocity": 79}, {"time": 3050, "pitch": 45, "duration": 39, "velocity": 77}, {"time": 3056, "pitch": 52, "duration": 34, "velocity": 61}, {"time": 3062, "pitch": 57, "duration": 9, "velocity": 59}, {"time": 3068, "pitch": 61, "duration": 14, "velocity": 108}, {"time": 3068, "pitch": 64, "duration": 14, "velocity": 79}, {"time": 3080, "pitch": 49, "duration": 9, "velocity": 37}, {"time": 3080, "pitch": 57, "duration": 19, "velocity": 63}, {"time": 3086, "pitch": 61, "duration": 11, "velocity": 114}, {"time": 3086, "pitch": 64, "duration": 11, "velocity": 86}, {"time": 3098, "pitch": 50, "duration": 39, "velocity": 83}, {"time": 3104, "pitch": 57, "duration": 38, "velocity": 67}, {"time": 3110, "pitch": 62, "duration": 8, "velocity": 62}, {"time": 3116, "pitch": 64, "duration": 19, "velocity": 85}, {"time": 3122, "pitch": 62, "duration": 13, "velocity": 70}, {"time": 3134, "pitch": 65, "duration": 8, "velocity": 76}, {"time": 3140, "pitch": 62, "duration": 6, "velocity": 73}, {"time": 3146, "pitch": 50, "duration": 34, "velocity": 86}, {"time": 3146, "pitch": 65, "duration": 34, "velocity": 81}, {"time": 3146, "pitch": 69, "duration": 34, "velocity": 83}, {"time": 3194, "pitch": 52, "duration": 39, "velocity": 60}, {"time": 3194, "pitch": 58, "duration": 37, "velocity": 62}, {"time": 3194, "pitch": 62, "duration": 10, "velocity": 58}, {"time": 3194, "pitch": 64, "duration": 15, "velocity": 70}, {"time": 3194, "pitch": 70, "duration": 15, "velocity": 74}, {"time": 3206, "pitch": 62, "duration": 23, "velocity": 59}, {"time": 3212, "pitch": 64, "duration": 14, "velocity": 72}, {"time": 3212, "pitch": 70, "duration": 14, "velocity": 73}, {"time": 3230, "pitch": 64, "duration": 13, "velocity": 86}, {"time": 3230, "pitch": 70, "duration": 13, "velocity": 81}, {"time": 3242, "pitch": 45, "duration": 13, "velocity": 67}, {"time": 3247, "pitch": 52, "duration": 34, "velocity": 63}, {"time": 3260, "pitch": 57, "duration": 8, "velocity": 56}, {"time": 3260, "pitch": 40, "duration": 2, "velocity": 74}, {"time": 3266, "pitch": 40, "duration": 11, "velocity": 85}, {"time": 3272, "pitch": 49, "duration": 8, "velocity": 60}, {"time": 3272, "pitch": 57, "duration": 12, "velocity": 63}, {"time": 3278, "pitch": 45, "duration": 12, "velocity": 81}, {"time": 3278, "pitch": 60, "duration": 12, "velocity": 69}, {"time": 3290, "pitch": 50, "duration": 15, "velocity": 86}, {"time": 3296, "pitch": 57, "duration": 34, "velocity": 58}, {"time": 3302, "pitch": 62, "duration": 9, "velocity": 53}, {"time": 3308, "pitch": 50, "duration": 6, "velocity": 60}, {"time": 3308, "pitch": 65, "duration": 14, "velocity": 74}, {"time": 3314, "pitch": 45, "duration": 9, "velocity": 74}, {"time": 3320, "pitch": 62, "duration": 10, "velocity": 54}, {"time": 3326, "pitch": 45, "duration": 13, "velocity": 90}, {"time": 3326, "pitch": 65, "duration": 3, "velocity": 59}, {"time": 3326, "pitch": 69, "duration": 10, "velocity": 74}, {"time": 3338, "pitch": 50, "duration": 37, "velocity": 71}, {"time": 3338, "pitch": 65, "duration": 14, "velocity": 65}, {"time": 3338, "pitch": 69, "duration": 14, "velocity": 70}, {"time": 3344, "pitch": 57, "duration": 30, "velocity": 63}, {"time": 3350, "pitch": 62, "duration": 9, "velocity": 52}, {"time": 3356, "pitch": 65, "duration": 14, "velocity": 67}, {"time": 3356, "pitch": 69, "duration": 14, "velocity": 74}, {"time": 3368, "pitch": 62, "duration": 5, "velocity": 58}, {"time": 3374, "pitch": 65, "duration": 9, "velocity": 70}, {"time": 3374, "pitch": 69, "duration": 9, "velocity": 75}, {"time": 3386, "pitch": 43, "duration": 37, "velocity": 71}, {"time": 3386, "pitch": 58, "duration": 13, "velocity": 83}, {"time": 3392, "pitch": 50, "duration": 33, "velocity": 43}, {"time": 3398, "pitch": 55, "duration": 11, "velocity": 60}, {"time": 3404, "pitch": 58, "duration": 15, "velocity": 74}, {"time": 3404, "pitch": 62, "duration": 14, "velocity": 73}, {"time": 3416, "pitch": 55, "duration": 11, "velocity": 52}, {"time": 3422, "pitch": 58, "duration": 10, "velocity": 85}, {"time": 3422, "pitch": 62, "duration": 9, "velocity": 73}, {"time": 3434, "pitch": 48, "duration": 38, "velocity": 70}, {"time": 3440, "pitch": 55, "duration": 30, "velocity": 61}, {"time": 3446, "pitch": 60, "duration": 9, "velocity": 59}, {"time": 3452, "pitch": 64, "duration": 15, "velocity": 67}, {"time": 3452, "pitch": 67, "duration": 15, "velocity": 77}, {"time": 3464, "pitch": 60, "duration": 5, "velocity": 60}, {"time": 3470, "pitch": 64, "duration": 3, "velocity": 79}, {"time": 3470, "pitch": 67, "duration": 3, "velocity": 79}, {"time": 3482, "pitch": 41, "duration": 50, "velocity": 76}, {"time": 3482, "pitch": 57, "duration": 15, "velocity": 65}, {"time": 3482, "pitch": 60, "duration": 15, "velocity": 72}, {"time": 3488, "pitch": 48, "duration": 44, "velocity": 74}, {"time": 3494, "pitch": 53, "duration": 8, "velocity": 58}, {"time": 3500, "pitch": 57, "duration": 14, "velocity": 68}, {"time": 3500, "pitch": 60, "duration": 14, "velocity": 79}, {"time": 3512, "pitch": 53, "duration": 9, "velocity": 60}, {"time": 3518, "pitch": 57, "duration": 8, "velocity": 65}, {"time": 3518, "pitch": 60, "duration": 8, "velocity": 73}, {"time": 3524, "pitch": 53, "duration": 6, "velocity": 58}, {"time": 3530, "pitch": 52, "duration": 24, "velocity": 76}, {"time": 3536, "pitch": 58, "duration": 15, "velocity": 56}, {"time": 3542, "pitch": 64, "duration": 5, "velocity": 60}, {"time": 3548, "pitch": 70, "duration": 4, "velocity": 73}, {"time": 3554, "pitch": 50, "duration": 20, "velocity": 65}, {"time": 3554, "pitch": 66, "duration": 15, "velocity": 67}, {"time": 3554, "pitch": 69, "duration": 14, "velocity": 83}, {"time": 3554, "pitch": 74, "duration": 3, "velocity": 83}, {"time": 3560, "pitch": 57, "duration": 11, "velocity": 58}, {"time": 3566, "pitch": 62, "duration": 6, "velocity": 58}, {"time": 3572, "pitch": 66, "duration": 5, "velocity": 87}, {"time": 3578, "pitch": 43, "duration": 40, "velocity": 73}, {"time": 3578, "pitch": 58, "duration": 15, "velocity": 75}, {"time": 3578, "pitch": 62, "duration": 11, "velocity": 63}, {"time": 3584, "pitch": 50, "duration": 39, "velocity": 62}, {"time": 3590, "pitch": 55, "duration": 9, "velocity": 53}, {"time": 3596, "pitch": 58, "duration": 13, "velocity": 93}, {"time": 3596, "pitch": 62, "duration": 12, "velocity": 76}, {"time": 3608, "pitch": 55, "duration": 8, "velocity": 60}, {"time": 3614, "pitch": 58, "duration": 7, "velocity": 87}, {"time": 3614, "pitch": 62, "duration": 7, "velocity": 77}, {"time": 3626, "pitch": 45, "duration": 36, "velocity": 68}, {"time": 3626, "pitch": 61, "duration": 14, "velocity": 114}, {"time": 3632, "pitch": 52, "duration": 31, "velocity": 60}, {"time": 3638, "pitch": 57, "duration": 8, "velocity": 59}, {"time": 3644, "pitch": 61, "duration": 14, "velocity": 111}, {"time": 3644, "pitch": 64, "duration": 13, "velocity": 81}, {"time": 3656, "pitch": 57, "duration": 14, "velocity": 65}, {"time": 3662, "pitch": 61, "duration": 10, "velocity": 111}, {"time": 3668, "pitch": 64, "duration": 5, "velocity": 77}, {"time": 3674, "pitch": 50, "duration": 45, "velocity": 75}, {"time": 3680, "pitch": 57, "duration": 42, "velocity": 55}, {"time": 3686, "pitch": 62, "duration": 8, "velocity": 58}, {"time": 3692, "pitch": 65, "duration": 14, "velocity": 81}, {"time": 3692, "pitch": 69, "duration": 14, "velocity": 72}, {"time": 3704, "pitch": 62, "duration": 8, "velocity": 58}, {"time": 3710, "pitch": 65, "duration": 8, "velocity": 85}, {"time": 3710, "pitch": 69, "duration": 8, "velocity": 75}, {"time": 3710, "pitch": 88, "duration": 4, "velocity": 71}, {"time": 3713, "pitch": 89, "duration": 3, "velocity": 86}, {"time": 3716, "pitch": 62, "duration": 3, "velocity": 60}, {"time": 3716, "pitch": 88, "duration": 2, "velocity": 59}, {"time": 3719, "pitch": 86, "duration": 4, "velocity": 81}, {"time": 3722, "pitch": 46, "duration": 45, "velocity": 39}, {"time": 3722, "pitch": 50, "duration": 45, "velocity": 81}, {"time": 3722, "pitch": 58, "duration": 9, "velocity": 37}, {"time": 3722, "pitch": 62, "duration": 15, "velocity": 69}, {"time": 3722, "pitch": 65, "duration": 15, "velocity": 87}, {"time": 3722, "pitch": 74, "duration": 13, "velocity": 65}, {"time": 3740, "pitch": 62, "duration": 14, "velocity": 74}, {"time": 3740, "pitch": 65, "duration": 14, "velocity": 87}, {"time": 3752, "pitch": 58, "duration": 17, "velocity": 76}, {"time": 3758, "pitch": 62, "duration": 12, "velocity": 73}, {"time": 3758, "pitch": 65, "duration": 11, "velocity": 87}, {"time": 3770, "pitch": 52, "duration": 49, "velocity": 64}, {"time": 3770, "pitch": 58, "duration": 48, "velocity": 56}, {"time": 3770, "pitch": 62, "duration": 10, "velocity": 60}, {"time": 3770, "pitch": 64, "duration": 14, "velocity": 71}, {"time": 3770, "pitch": 70, "duration": 14, "velocity": 68}, {"time": 3782, "pitch": 62, "duration": 6, "velocity": 60}, {"time": 3788, "pitch": 62, "duration": 1, "velocity": 69}, {"time": 3788, "pitch": 64, "duration": 14, "velocity": 76}, {"time": 3788, "pitch": 70, "duration": 15, "velocity": 70}, {"time": 3800, "pitch": 62, "duration": 16, "velocity": 64}, {"time": 3800, "pitch": 86, "duration": 3, "velocity": 69}, {"time": 3806, "pitch": 64, "duration": 10, "velocity": 87}, {"time": 3806, "pitch": 70, "duration": 10, "velocity": 83}, {"time": 3806, "pitch": 89, "duration": 6, "velocity": 75}, {"time": 3812, "pitch": 88, "duration": 6, "velocity": 65}, {"time": 3818, "pitch": 45, "duration": 9, "velocity": 85}, {"time": 3818, "pitch": 61, "duration": 9, "velocity": 87}, {"time": 3818, "pitch": 64, "duration": 8, "velocity": 85}, {"time": 3818, "pitch": 69, "duration": 8, "velocity": 74}, {"time": 3818, "pitch": 81, "duration": 7, "velocity": 65}, {"time": 3842, "pitch": 45, "duration": 22, "velocity": 77}, {"time": 3842, "pitch": 61, "duration": 22, "velocity": 98}, {"time": 3842, "pitch": 64, "duration": 21, "velocity": 86}, {"time": 3842, "pitch": 69, "duration": 21, "velocity": 79}, {"time": 3866, "pitch": 50, "duration": 15, "velocity": 69}, {"time": 3866, "pitch": 65, "duration": 14, "velocity": 71}, {"time": 3866, "pitch": 69, "duration": 14, "velocity": 70}, {"time": 3872, "pitch": 57, "duration": 42, "velocity": 62}, {"time": 3878, "pitch": 62, "duration": 11, "velocity": 53}, {"time": 3884, "pitch": 50, "duration": 6, "velocity": 81}, {"time": 3884, "pitch": 65, "duration": 14, "velocity": 74}, {"time": 3884, "pitch": 69, "duration": 14, "velocity": 74}, {"time": 3890, "pitch": 45, "duration": 9, "velocity": 77}, {"time": 3896, "pitch": 62, "duration": 8, "velocity": 61}, {"time": 3902, "pitch": 45, "duration": 12, "velocity": 76}, {"time": 3902, "pitch": 65, "duration": 12, "velocity": 59}, {"time": 3902, "pitch": 69, "duration": 12, "velocity": 74}, {"time": 3908, "pitch": 62, "duration": 6, "velocity": 62}, {"time": 3914, "pitch": 50, "duration": 2, "velocity": 58}, {"time": 3914, "pitch": 57, "duration": 3, "velocity": 63}, {"time": 3914, "pitch": 62, "duration": 2, "velocity": 60}, {"time": 3914, "pitch": 65, "duration": 2, "velocity": 64}, {"time": 3914, "pitch": 69, "duration": 2, "velocity": 67}, {"time": 3920, "pitch": 50, "duration": 1, "velocity": 54}, {"time": 3920, "pitch": 57, "duration": 2, "velocity": 63}, {"time": 3920, "pitch": 62, "duration": 2, "velocity": 59}, {"time": 3920, "pitch": 65, "duration": 2, "velocity": 67}, {"time": 3920, "pitch": 69, "duration": 2, "velocity": 70}, {"time": 3926, "pitch": 50, "duration": 2, "velocity": 55}, {"time": 3926, "pitch": 57, "duration": 2, "velocity": 65}, {"time": 3926, "pitch": 62, "duration": 2, "velocity": 50}, {"time": 3926, "pitch": 65, "duration": 2, "velocity": 67}, {"time": 3926, "pitch": 69, "duration": 2, "velocity": 76}, {"time": 3932, "pitch": 50, "duration": 2, "velocity": 57}, {"time": 3932, "pitch": 57, "duration": 2, "velocity": 65}, {"time": 3932, "pitch": 62, "duration": 2, "velocity": 58}, {"time": 3932, "pitch": 65, "duration": 2, "velocity": 70}, {"time": 3932, "pitch": 69, "duration": 2, "velocity": 72}, {"time": 3938, "pitch": 50, "duration": 2, "velocity": 63}, {"time": 3938, "pitch": 57, "duration": 2, "velocity": 67}, {"time": 3938, "pitch": 62, "duration": 2, "velocity": 63}, {"time": 3938, "pitch": 65, "duration": 2, "velocity": 69}, {"time": 3938, "pitch": 69, "duration": 2, "velocity": 73}, {"time": 3944, "pitch": 50, "duration": 2, "velocity": 63}, {"time": 3944, "pitch": 57, "duration": 2, "velocity": 69}, {"time": 3944, "pitch": 62, "duration": 2, "velocity": 65}, {"time": 3944, "pitch": 65, "duration": 2, "velocity": 69}, {"time": 3944, "pitch": 69, "duration": 2, "velocity": 77}, {"time": 3950, "pitch": 50, "duration": 2, "velocity": 70}, {"time": 3950, "pitch": 57, "duration": 2, "velocity": 70}, {"time": 3950, "pitch": 62, "duration": 2, "velocity": 64}, {"time": 3950, "pitch": 65, "duration": 2, "velocity": 71}, {"time": 3950, "pitch": 69, "duration": 2, "velocity": 79}, {"time": 3956, "pitch": 50, "duration": 4, "velocity": 85}, {"time": 3956, "pitch": 57, "duration": 3, "velocity": 77}, {"time": 3956, "pitch": 62, "duration": 3, "velocity": 73}, {"time": 3956, "pitch": 65, "duration": 2, "velocity": 83}, {"time": 3956, "pitch": 69, "duration": 2, "velocity": 87}, {"time": 3962, "pitch": 52, "duration": 39, "velocity": 60}, {"time": 3962, "pitch": 58, "duration": 37, "velocity": 62}, {"time": 3962, "pitch": 62, "duration": 10, "velocity": 58}, {"time": 3962, "pitch": 64, "duration": 15, "velocity": 70}, {"time": 3962, "pitch": 70, "duration": 15, "velocity": 74}, {"time": 3974, "pitch": 62, "duration": 23, "velocity": 59}, {"time": 3980, "pitch": 64, "duration": 14, "velocity": 72}, {"time": 3980, "pitch": 70, "duration": 14, "velocity": 73}, {"time": 3998, "pitch": 64, "duration": 13, "velocity": 86}, {"time": 3998, "pitch": 70, "duration": 13, "velocity": 81}, {"time": 4010, "pitch": 45, "duration": 13, "velocity": 67}, {"time": 4015, "pitch": 52, "duration": 34, "velocity": 63}, {"time": 4028, "pitch": 57, "duration": 8, "velocity": 56}, {"time": 4028, "pitch": 40, "duration": 2, "velocity": 74}, {"time": 4034, "pitch": 40, "duration": 11, "velocity": 85}, {"time": 4040, "pitch": 49, "duration": 8, "velocity": 60}, {"time": 4040, "pitch": 57, "duration": 12, "velocity": 63}, {"time": 4046, "pitch": 45, "duration": 12, "velocity": 81}, {"time": 4046, "pitch": 60, "duration": 12, "velocity": 69}, {"time": 4058, "pitch": 50, "duration": 15, "velocity": 86}, {"time": 4064, "pitch": 57, "duration": 34, "velocity": 58}, {"time": 4070, "pitch": 62, "duration": 9, "velocity": 53}, {"time": 4076, "pitch": 50, "duration": 6, "velocity": 60}, {"time": 4076, "pitch": 65, "duration": 14, "velocity": 74}, {"time": 4082, "pitch": 45, "duration": 9, "velocity": 74}, {"time": 4088, "pitch": 62, "duration": 10, "velocity": 54}, {"time": 4094, "pitch": 45, "duration": 13, "velocity": 90}, {"time": 4094, "pitch": 65, "duration": 3, "velocity": 59}, {"time": 4094, "pitch": 69, "duration": 10, "velocity": 74}, {"time": 4106, "pitch": 50, "duration": 37, "velocity": 71}, {"time": 4106, "pitch": 65, "duration": 14, "velocity": 65}, {"time": 4106, "pitch": 69, "duration": 14, "velocity": 70}, {"time": 4112, "pitch": 57, "duration": 30, "velocity": 63}, {"time": 4118, "pitch": 62, "duration": 9, "velocity": 52}, {"time": 4124, "pitch": 65, "duration": 14, "velocity": 67}, {"time": 4124, "pitch": 69, "duration": 14, "velocity": 74}, {"time": 4136, "pitch": 62, "duration": 5, "velocity": 58}, {"time": 4142, "pitch": 65, "duration": 9, "velocity": 70}, {"time": 4142, "pitch": 69, "duration": 9, "velocity": 75}, {"time": 4154, "pitch": 43, "duration": 37, "velocity": 71}, {"time": 4154, "pitch": 58, "duration": 13, "velocity": 83}, {"time": 4160, "pitch": 50, "duration": 33, "velocity": 43}, {"time": 4166, "pitch": 55, "duration": 11, "velocity": 60}, {"time": 4172, "pitch": 58, "duration": 15, "velocity": 74}, {"time": 4172, "pitch": 62, "duration": 14, "velocity": 73}, {"time": 4183, "pitch": 55, "duration": 12, "velocity": 52}, {"time": 4190, "pitch": 58, "duration": 10, "velocity": 85}, {"time": 4190, "pitch": 62, "duration": 9, "velocity": 73}, {"time": 4202, "pitch": 48, "duration": 38, "velocity": 70}, {"time": 4208, "pitch": 55, "duration": 30, "velocity": 61}, {"time": 4214, "pitch": 60, "duration": 9, "velocity": 59}, {"time": 4220, "pitch": 64, "duration": 15, "velocity": 67}, {"time": 4220, "pitch": 67, "duration": 15, "velocity": 77}, {"time": 4232, "pitch": 60, "duration": 5, "velocity": 60}, {"time": 4238, "pitch": 64, "duration": 3, "velocity": 79}, {"time": 4238, "pitch": 67, "duration": 3, "velocity": 79}, {"time": 4250, "pitch": 41, "duration": 50, "velocity": 76}, {"time": 4250, "pitch": 57, "duration": 15, "velocity": 65}, {"time": 4250, "pitch": 60, "duration": 15, "velocity": 72}, {"time": 4256, "pitch": 48, "duration": 44, "velocity": 74}, {"time": 4262, "pitch": 53, "duration": 8, "velocity": 58}, {"time": 4268, "pitch": 57, "duration": 14, "velocity": 68}, {"time": 4268, "pitch": 60, "duration": 14, "velocity": 79}, {"time": 4280, "pitch": 53, "duration": 9, "velocity": 60}, {"time": 4286, "pitch": 57, "duration": 8, "velocity": 65}, {"time": 4286, "pitch": 60, "duration": 8, "velocity": 73}, {"time": 4292, "pitch": 53, "duration": 6, "velocity": 58}, {"time": 4298, "pitch": 52, "duration": 24, "velocity": 76}, {"time": 4304, "pitch": 58, "duration": 15, "velocity": 56}, {"time": 4310, "pitch": 64, "duration": 5, "velocity": 60}, {"time": 4316, "pitch": 70, "duration": 4, "velocity": 73}, {"time": 4322, "pitch": 50, "duration": 20, "velocity": 65}, {"time": 4322, "pitch": 66, "duration": 15, "velocity": 67}, {"time": 4322, "pitch": 69, "duration": 14, "velocity": 83}, {"time": 4322, "pitch": 74, "duration": 3, "velocity": 83}, {"time": 4328, "pitch": 57, "duration": 11, "velocity": 58}, {"time": 4334, "pitch": 62, "duration": 6, "velocity": 58}, {"time": 4340, "pitch": 66, "duration": 5, "velocity": 87}, {"time": 4346, "pitch": 43, "duration": 40, "velocity": 73}, {"time": 4346, "pitch": 58, "duration": 15, "velocity": 75}, {"time": 4346, "pitch": 62, "duration": 11, "velocity": 63}, {"time": 4352, "pitch": 50, "duration": 39, "velocity": 62}, {"time": 4358, "pitch": 55, "duration": 9, "velocity": 53}, {"time": 4364, "pitch": 58, "duration": 13, "velocity": 93}, {"time": 4364, "pitch": 62, "duration": 12, "velocity": 76}, {"time": 4376, "pitch": 55, "duration": 8, "velocity": 60}, {"time": 4382, "pitch": 58, "duration": 7, "velocity": 87}, {"time": 4382, "pitch": 62, "duration": 7, "velocity": 77}, {"time": 4394, "pitch": 45, "duration": 36, "velocity": 68}, {"time": 4394, "pitch": 61, "duration": 14, "velocity": 89}, {"time": 4400, "pitch": 52, "duration": 31, "velocity": 60}, {"time": 4406, "pitch": 57, "duration": 8, "velocity": 59}, {"time": 4412, "pitch": 61, "duration": 14, "velocity": 99}, {"time": 4412, "pitch": 64, "duration": 13, "velocity": 81}, {"time": 4424, "pitch": 57, "duration": 14, "velocity": 65}, {"time": 4430, "pitch": 61, "duration": 10, "velocity": 77}, {"time": 4436, "pitch": 64, "duration": 5, "velocity": 77}, {"time": 4442, "pitch": 50, "duration": 45, "velocity": 75}, {"time": 4448, "pitch": 57, "duration": 42, "velocity": 55}, {"time": 4454, "pitch": 62, "duration": 8, "velocity": 58}, {"time": 4460, "pitch": 65, "duration": 14, "velocity": 81}, {"time": 4460, "pitch": 69, "duration": 14, "velocity": 72}, {"time": 4472, "pitch": 62, "duration": 8, "velocity": 58}, {"time": 4478, "pitch": 65, "duration": 8, "velocity": 85}, {"time": 4478, "pitch": 69, "duration": 8, "velocity": 75}, {"time": 4478, "pitch": 88, "duration": 4, "velocity": 71}, {"time": 4481, "pitch": 89, "duration": 3, "velocity": 86}, {"time": 4484, "pitch": 62, "duration": 3, "velocity": 60}, {"time": 4484, "pitch": 88, "duration": 2, "velocity": 59}, {"time": 4487, "pitch": 86, "duration": 4, "velocity": 81}, {"time": 4490, "pitch": 46, "duration": 45, "velocity": 39}, {"time": 4490, "pitch": 50, "duration": 45, "velocity": 81}, {"time": 4490, "pitch": 58, "duration": 9, "velocity": 37}, {"time": 4490, "pitch": 62, "duration": 15, "velocity": 69}, {"time": 4490, "pitch": 65, "duration": 15, "velocity": 87}, {"time": 4490, "pitch": 74, "duration": 13, "velocity": 65}, {"time": 4508, "pitch": 62, "duration": 14, "velocity": 74}, {"time": 4508, "pitch": 65, "duration": 14, "velocity": 87}, {"time": 4520, "pitch": 58, "duration": 17, "velocity": 76}, {"time": 4526, "pitch": 62, "duration": 12, "velocity": 73}, {"time": 4526, "pitch": 65, "duration": 11, "velocity": 87}, {"time": 4538, "pitch": 52, "duration": 49, "velocity": 64}, {"time": 4538, "pitch": 58, "duration": 48, "velocity": 56}, {"time": 4538, "pitch": 62, "duration": 10, "velocity": 60}, {"time": 4538, "pitch": 64, "duration": 14, "velocity": 71}, {"time": 4538, "pitch": 70, "duration": 14, "velocity": 68}, {"time": 4550, "pitch": 62, "duration": 6, "velocity": 60}, {"time": 4556, "pitch": 62, "duration": 1, "velocity": 69}, {"time": 4556, "pitch": 64, "duration": 14, "velocity": 76}, {"time": 4556, "pitch": 70, "duration": 15, "velocity": 70}, {"time": 4568, "pitch": 62, "duration": 16, "velocity": 64}, {"time": 4568, "pitch": 86, "duration": 3, "velocity": 69}, {"time": 4574, "pitch": 64, "duration": 10, "velocity": 87}, {"time": 4574, "pitch": 70, "duration": 10, "velocity": 83}, {"time": 4574, "pitch": 89, "duration": 6, "velocity": 75}, {"time": 4580, "pitch": 88, "duration": 6, "velocity": 65}, {"time": 4586, "pitch": 45, "duration": 9, "velocity": 85}, {"time": 4586, "pitch": 61, "duration": 9, "velocity": 87}, {"time": 4586, "pitch": 64, "duration": 8, "velocity": 85}, {"time": 4586, "pitch": 69, "duration": 8, "velocity": 74}, {"time": 4586, "pitch": 81, "duration": 7, "velocity": 65}, {"time": 4610, "pitch": 45, "duration": 22, "velocity": 86}, {"time": 4610, "pitch": 61, "duration": 22, "velocity": 86}, {"time": 4610, "pitch": 64, "duration": 21, "velocity": 86}, {"time": 4610, "pitch": 69, "duration": 21, "velocity": 86}, {"time": 4634, "pitch": 50, "duration": 15, "velocity": 69}, {"time": 4634, "pitch": 65, "duration": 14, "velocity": 71}, {"time": 4634, "pitch": 69, "duration": 14, "velocity": 70}, {"time": 4640, "pitch": 57, "duration": 42, "velocity": 62}, {"time": 4646, "pitch": 62, "duration": 11, "velocity": 53}, {"time": 4652, "pitch": 50, "duration": 6, "velocity": 81}, {"time": 4652, "pitch": 65, "duration": 14, "velocity": 74}, {"time": 4652, "pitch": 69, "duration": 14, "velocity": 74}, {"time": 4658, "pitch": 45, "duration": 9, "velocity": 77}, {"time": 4664, "pitch": 62, "duration": 8, "velocity": 61}, {"time": 4670, "pitch": 45, "duration": 12, "velocity": 76}, {"time": 4670, "pitch": 65, "duration": 12, "velocity": 59}, {"time": 4670, "pitch": 69, "duration": 12, "velocity": 74}, {"time": 4676, "pitch": 62, "duration": 6, "velocity": 62}, {"time": 4682, "pitch": 43, "duration": 12, "velocity": 74}, {"time": 4682, "pitch": 58, "duration": 13, "velocity": 60}, {"time": 4682, "pitch": 62, "duration": 13, "velocity": 76}, {"time": 4694, "pitch": 50, "duration": 25, "velocity": 67}, {"time": 4700, "pitch": 43, "duration": 2, "velocity": 71}, {"time": 4700, "pitch": 58, "duration": 13, "velocity": 79}, {"time": 4700, "pitch": 62, "duration": 13, "velocity": 83}, {"time": 4706, "pitch": 43, "duration": 15, "velocity": 77}, {"time": 4712, "pitch": 55, "duration": 14, "velocity": 57}, {"time": 4718, "pitch": 58, "duration": 12, "velocity": 83}, {"time": 4718, "pitch": 62, "duration": 11, "velocity": 83}, {"time": 4724, "pitch": 45, "duration": 6, "velocity": 68}, {"time": 4730, "pitch": 46, "duration": 24, "velocity": 77}, {"time": 4730, "pitch": 50, "duration": 23, "velocity": 77}, {"time": 4730, "pitch": 58, "duration": 22, "velocity": 66}, {"time": 4730, "pitch": 62, "duration": 22, "velocity": 76}, {"time": 4730, "pitch": 65, "duration": 21, "velocity": 75}, {"time": 4754, "pitch": 40, "duration": 24, "velocity": 76}, {"time": 4754, "pitch": 46, "duration": 23, "velocity": 79}, {"time": 4754, "pitch": 52, "duration": 21, "velocity": 65}, {"time": 4754, "pitch": 58, "duration": 21, "velocity": 66}, {"time": 4754, "pitch": 62, "duration": 21, "velocity": 65}, {"time": 4778, "pitch": 45, "duration": 2, "velocity": 86}, {"time": 4778, "pitch": 49, "duration": 3, "velocity": 73}, {"time": 4778, "pitch": 52, "duration": 3, "velocity": 59}, {"time": 4778, "pitch": 61, "duration": 2, "velocity": 63}, {"time": 4778, "pitch": 64, "duration": 1, "velocity": 57}, {"time": 4784, "pitch": 45, "duration": 2, "velocity": 71}, {"time": 4784, "pitch": 49, "duration": 2, "velocity": 67}, {"time": 4784, "pitch": 52, "duration": 3, "velocity": 59}, {"time": 4784, "pitch": 57, "duration": 2, "velocity": 54}, {"time": 4784, "pitch": 61, "duration": 2, "velocity": 69}, {"time": 4790, "pitch": 45, "duration": 2, "velocity": 79}, {"time": 4790, "pitch": 49, "duration": 2, "velocity": 70}, {"time": 4790, "pitch": 52, "duration": 2, "velocity": 57}, {"time": 4790, "pitch": 57, "duration": 2, "velocity": 58}, {"time": 4790, "pitch": 61, "duration": 2, "velocity": 75}, {"time": 4796, "pitch": 45, "duration": 2, "velocity": 81}, {"time": 4796, "pitch": 49, "duration": 2, "velocity": 72}, {"time": 4796, "pitch": 52, "duration": 2, "velocity": 58}, {"time": 4796, "pitch": 57, "duration": 2, "velocity": 59}, {"time": 4796, "pitch": 61, "duration": 1, "velocity": 77}, {"time": 4796, "pitch": 64, "duration": 1, "velocity": 61}, {"time": 4802, "pitch": 45, "duration": 2, "velocity": 86}, {"time": 4802, "pitch": 49, "duration": 2, "velocity": 66}, {"time": 4802, "pitch": 52, "duration": 2, "velocity": 59}, {"time": 4802, "pitch": 57, "duration": 2, "velocity": 59}, {"time": 4802, "pitch": 61, "duration": 2, "velocity": 90}, {"time": 4802, "pitch": 64, "duration": 1, "velocity": 61}, {"time": 4808, "pitch": 45, "duration": 2, "velocity": 79}, {"time": 4808, "pitch": 49, "duration": 2, "velocity": 67}, {"time": 4808, "pitch": 52, "duration": 1, "velocity": 58}, {"time": 4808, "pitch": 57, "duration": 1, "velocity": 54}, {"time": 4808, "pitch": 61, "duration": 2, "velocity": 93}, {"time": 4808, "pitch": 64, "duration": 1, "velocity": 61}, {"time": 4814, "pitch": 45, "duration": 2, "velocity": 85}, {"time": 4814, "pitch": 49, "duration": 2, "velocity": 74}, {"time": 4814, "pitch": 52, "duration": 2, "velocity": 64}, {"time": 4814, "pitch": 57, "duration": 1, "velocity": 60}, {"time": 4814, "pitch": 61, "duration": 2, "velocity": 98}, {"time": 4814, "pitch": 64, "duration": 1, "velocity": 68}, {"time": 4820, "pitch": 45, "duration": 2, "velocity": 83}, {"time": 4820, "pitch": 49, "duration": 2, "velocity": 81}, {"time": 4820, "pitch": 52, "duration": 2, "velocity": 72}, {"time": 4820, "pitch": 57, "duration": 1, "velocity": 61}, {"time": 4820, "pitch": 61, "duration": 2, "velocity": 108}, {"time": 4820, "pitch": 64, "duration": 1, "velocity": 74}, {"time": 4826, "pitch": 45, "duration": 21, "velocity": 89}, {"time": 4826, "pitch": 49, "duration": 21, "velocity": 89}, {"time": 4826, "pitch": 52, "duration": 21, "velocity": 89}, {"time": 4826, "pitch": 57, "duration": 21, "velocity": 89}, {"time": 4826, "pitch": 61, "duration": 20, "velocity": 89}, {"time": 4826, "pitch": 64, "duration": 20, "velocity": 89}, {"time": 4850, "pitch": 45, "duration": 36, "velocity": 71}, {"time": 4850, "pitch": 61, "duration": 36, "velocity": 61}, {"time": 4850, "pitch": 64, "duration": 35, "velocity": 74}, {"time": 4850, "pitch": 69, "duration": 36, "velocity": 77}, {"time": 4886, "pitch": 38, "duration": 93, "velocity": 35}, {"time": 4892, "pitch": 45, "duration": 88, "velocity": 61}, {"time": 4898, "pitch": 50, "duration": 22, "velocity": 59}, {"time": 4904, "pitch": 53, "duration": 30, "velocity": 54}, {"time": 4910, "pitch": 57, "duration": 24, "velocity": 58}, {"time": 4916, "pitch": 62, "duration": 17, "velocity": 11}, {"time": 4928, "pitch": 50, "duration": 52, "velocity": 53}, {"time": 4943, "pitch": 69, "duration": 37, "velocity": 50}, {"time": 4946, "pitch": 74, "duration": 36, "velocity": 72}], "annotations": [{"time": 110, "annotation": {"number": 64, "value": 72}, "group": "control_change"}, {"time": 122, "annotation": {"number": 64, "value": 79}, "group": "control_change"}, {"time": 422, "annotation": {"number": 64, "value": 31}, "group": "control_change"}, {"time": 434, "annotation": {"number": 64, "value": 32}, "group": "control_change"}, {"time": 446, "annotation": {"number": 64, "value": 30}, "group": "control_change"}, {"time": 458, "annotation": {"number": 64, "value": 25}, "group": "control_change"}, {"time": 470, "annotation": {"number": 64, "value": 39}, "group": "control_change"}, {"time": 482, "annotation": {"number": 64, "value": 75}, "group": "control_change"}, {"time": 494, "annotation": {"number": 64, "value": 79}, "group": "control_change"}]}]}