{"metadata": {"schema_version": "0.2", "title": "None", "source_filename": "159.mid", "source_format": "midi"}, "resolution": 12, "tempos": [{"time": 0, "qpm": 93.000186000372}, {"time": 1058, "qpm": 92.50023510476423}, {"time": 1243, "qpm": 93.000186000372}, {"time": 3179, "qpm": 92.50023510476423}, {"time": 3231, "qpm": 92.75003864584943}, {"time": 3301, "qpm": 93.000186000372}], "time_signatures": [{"time": 0, "numerator": 1, "denominator": 4}], "tracks": [{"program": 4, "is_drum": false, "name": "MELODY", "notes": [{"time": 419, "pitch": 77, "duration": 10, "velocity": 103}, {"time": 431, "pitch": 77, "duration": 4, "velocity": 93}, {"time": 437, "pitch": 77, "duration": 3, "velocity": 90}, {"time": 443, "pitch": 77, "duration": 4, "velocity": 93}, {"time": 449, "pitch": 76, "duration": 3, "velocity": 102}, {"time": 455, "pitch": 74, "duration": 4, "velocity": 87}, {"time": 461, "pitch": 74, "duration": 19, "velocity": 93}, {"time": 503, "pitch": 72, "duration": 5, "velocity": 93}, {"time": 509, "pitch": 74, "duration": 5, "velocity": 87}, {"time": 515, "pitch": 76, "duration": 4, "velocity": 85}, {"time": 521, "pitch": 77, "duration": 3, "velocity": 93}, {"time": 527, "pitch": 77, "duration": 3, "velocity": 103}, {"time": 533, "pitch": 77, "duration": 5, "velocity": 105}, {"time": 539, "pitch": 77, "duration": 4, "velocity": 95}, {"time": 545, "pitch": 76, "duration": 3, "velocity": 93}, {"time": 551, "pitch": 74, "duration": 8, "velocity": 87}, {"time": 563, "pitch": 72, "duration": 18, "velocity": 87}, {"time": 611, "pitch": 81, "duration": 8, "velocity": 87}, {"time": 623, "pitch": 79, "duration": 4, "velocity": 87}, {"time": 629, "pitch": 77, "duration": 10, "velocity": 95}, {"time": 641, "pitch": 76, "duration": 10, "velocity": 102}, {"time": 659, "pitch": 79, "duration": 8, "velocity": 83}, {"time": 671, "pitch": 77, "duration": 3, "velocity": 103}, {"time": 677, "pitch": 76, "duration": 11, "velocity": 103}, {"time": 689, "pitch": 74, "duration": 11, "velocity": 95}, {"time": 707, "pitch": 77, "duration": 7, "velocity": 93}, {"time": 719, "pitch": 76, "duration": 4, "velocity": 93}, {"time": 725, "pitch": 74, "duration": 11, "velocity": 95}, {"time": 737, "pitch": 72, "duration": 6, "velocity": 87}, {"time": 743, "pitch": 74, "duration": 4, "velocity": 72}, {"time": 749, "pitch": 74, "duration": 20, "velocity": 95}, {"time": 803, "pitch": 77, "duration": 10, "velocity": 103}, {"time": 815, "pitch": 77, "duration": 4, "velocity": 93}, {"time": 821, "pitch": 77, "duration": 3, "velocity": 90}, {"time": 827, "pitch": 77, "duration": 4, "velocity": 93}, {"time": 833, "pitch": 76, "duration": 3, "velocity": 102}, {"time": 839, "pitch": 74, "duration": 4, "velocity": 87}, {"time": 845, "pitch": 74, "duration": 19, "velocity": 93}, {"time": 887, "pitch": 72, "duration": 5, "velocity": 93}, {"time": 893, "pitch": 74, "duration": 5, "velocity": 87}, {"time": 899, "pitch": 76, "duration": 4, "velocity": 85}, {"time": 905, "pitch": 77, "duration": 3, "velocity": 93}, {"time": 911, "pitch": 77, "duration": 3, "velocity": 103}, {"time": 917, "pitch": 77, "duration": 5, "velocity": 105}, {"time": 923, "pitch": 79, "duration": 4, "velocity": 95}, {"time": 929, "pitch": 77, "duration": 3, "velocity": 93}, {"time": 935, "pitch": 74, "duration": 8, "velocity": 87}, {"time": 947, "pitch": 72, "duration": 18, "velocity": 87}, {"time": 995, "pitch": 81, "duration": 8, "velocity": 87}, {"time": 1007, "pitch": 79, "duration": 4, "velocity": 87}, {"time": 1013, "pitch": 77, "duration": 10, "velocity": 95}, {"time": 1025, "pitch": 76, "duration": 10, "velocity": 102}, {"time": 1043, "pitch": 79, "duration": 8, "velocity": 83}, {"time": 1055, "pitch": 77, "duration": 3, "velocity": 103}, {"time": 1061, "pitch": 76, "duration": 11, "velocity": 103}, {"time": 1073, "pitch": 74, "duration": 11, "velocity": 95}, {"time": 1091, "pitch": 77, "duration": 7, "velocity": 93}, {"time": 1103, "pitch": 76, "duration": 4, "velocity": 93}, {"time": 1109, "pitch": 74, "duration": 11, "velocity": 95}, {"time": 1121, "pitch": 72, "duration": 6, "velocity": 87}, {"time": 1127, "pitch": 74, "duration": 4, "velocity": 72}, {"time": 1133, "pitch": 74, "duration": 20, "velocity": 95}, {"time": 1157, "pitch": 72, "duration": 4, "velocity": 93}, {"time": 1163, "pitch": 74, "duration": 4, "velocity": 102}, {"time": 1169, "pitch": 81, "duration": 9, "velocity": 93}, {"time": 1181, "pitch": 79, "duration": 55, "velocity": 93}, {"time": 1247, "pitch": 77, "duration": 5, "velocity": 102}, {"time": 1253, "pitch": 79, "duration": 10, "velocity": 93}, {"time": 1265, "pitch": 77, "duration": 10, "velocity": 102}, {"time": 1277, "pitch": 72, "duration": 13, "velocity": 93}, {"time": 1295, "pitch": 77, "duration": 5, "velocity": 105}, {"time": 1301, "pitch": 79, "duration": 10, "velocity": 80}, {"time": 1313, "pitch": 77, "duration": 9, "velocity": 102}, {"time": 1325, "pitch": 74, "duration": 11, "velocity": 87}, {"time": 1349, "pitch": 72, "duration": 3, "velocity": 93}, {"time": 1355, "pitch": 74, "duration": 4, "velocity": 87}, {"time": 1361, "pitch": 81, "duration": 8, "velocity": 87}, {"time": 1373, "pitch": 79, "duration": 50, "velocity": 95}, {"time": 1439, "pitch": 81, "duration": 4, "velocity": 93}, {"time": 1445, "pitch": 79, "duration": 8, "velocity": 93}, {"time": 1457, "pitch": 77, "duration": 10, "velocity": 102}, {"time": 1469, "pitch": 72, "duration": 11, "velocity": 95}, {"time": 1487, "pitch": 81, "duration": 4, "velocity": 93}, {"time": 1493, "pitch": 79, "duration": 9, "velocity": 83}, {"time": 1505, "pitch": 81, "duration": 9, "velocity": 87}, {"time": 1517, "pitch": 74, "duration": 11, "velocity": 93}, {"time": 1541, "pitch": 72, "duration": 3, "velocity": 93}, {"time": 1547, "pitch": 77, "duration": 2, "velocity": 95}, {"time": 1553, "pitch": 79, "duration": 3, "velocity": 87}, {"time": 1559, "pitch": 81, "duration": 4, "velocity": 87}, {"time": 1565, "pitch": 81, "duration": 8, "velocity": 93}, {"time": 1583, "pitch": 79, "duration": 2, "velocity": 83}, {"time": 1589, "pitch": 77, "duration": 23, "velocity": 93}, {"time": 1643, "pitch": 72, "duration": 10, "velocity": 105}, {"time": 1655, "pitch": 84, "duration": 10, "velocity": 93}, {"time": 1667, "pitch": 77, "duration": 15, "velocity": 105}, {"time": 1685, "pitch": 79, "duration": 50, "velocity": 95}, {"time": 1739, "pitch": 74, "duration": 9, "velocity": 110}, {"time": 1751, "pitch": 86, "duration": 9, "velocity": 102}, {"time": 1763, "pitch": 79, "duration": 16, "velocity": 103}, {"time": 1781, "pitch": 81, "duration": 48, "velocity": 93}, {"time": 1835, "pitch": 72, "duration": 10, "velocity": 105}, {"time": 1847, "pitch": 84, "duration": 10, "velocity": 93}, {"time": 1859, "pitch": 77, "duration": 15, "velocity": 105}, {"time": 1877, "pitch": 79, "duration": 50, "velocity": 95}, {"time": 1931, "pitch": 74, "duration": 9, "velocity": 110}, {"time": 1943, "pitch": 86, "duration": 9, "velocity": 102}, {"time": 1955, "pitch": 81, "duration": 72, "velocity": 103}, {"time": 2051, "pitch": 77, "duration": 10, "velocity": 103}, {"time": 2063, "pitch": 77, "duration": 4, "velocity": 93}, {"time": 2069, "pitch": 77, "duration": 3, "velocity": 90}, {"time": 2075, "pitch": 77, "duration": 4, "velocity": 93}, {"time": 2081, "pitch": 76, "duration": 3, "velocity": 102}, {"time": 2087, "pitch": 74, "duration": 4, "velocity": 87}, {"time": 2093, "pitch": 74, "duration": 19, "velocity": 93}, {"time": 2135, "pitch": 72, "duration": 5, "velocity": 93}, {"time": 2141, "pitch": 74, "duration": 5, "velocity": 87}, {"time": 2147, "pitch": 76, "duration": 4, "velocity": 85}, {"time": 2153, "pitch": 77, "duration": 3, "velocity": 93}, {"time": 2159, "pitch": 77, "duration": 3, "velocity": 103}, {"time": 2165, "pitch": 77, "duration": 5, "velocity": 105}, {"time": 2171, "pitch": 77, "duration": 4, "velocity": 95}, {"time": 2177, "pitch": 76, "duration": 3, "velocity": 93}, {"time": 2183, "pitch": 74, "duration": 8, "velocity": 87}, {"time": 2195, "pitch": 72, "duration": 18, "velocity": 87}, {"time": 2243, "pitch": 81, "duration": 8, "velocity": 87}, {"time": 2255, "pitch": 79, "duration": 4, "velocity": 87}, {"time": 2261, "pitch": 77, "duration": 10, "velocity": 95}, {"time": 2273, "pitch": 76, "duration": 10, "velocity": 102}, {"time": 2291, "pitch": 79, "duration": 8, "velocity": 83}, {"time": 2303, "pitch": 77, "duration": 3, "velocity": 103}, {"time": 2309, "pitch": 76, "duration": 11, "velocity": 103}, {"time": 2321, "pitch": 74, "duration": 11, "velocity": 95}, {"time": 2339, "pitch": 77, "duration": 7, "velocity": 93}, {"time": 2351, "pitch": 76, "duration": 4, "velocity": 93}, {"time": 2357, "pitch": 74, "duration": 11, "velocity": 95}, {"time": 2369, "pitch": 72, "duration": 6, "velocity": 87}, {"time": 2375, "pitch": 74, "duration": 4, "velocity": 72}, {"time": 2381, "pitch": 74, "duration": 20, "velocity": 95}, {"time": 2435, "pitch": 77, "duration": 10, "velocity": 103}, {"time": 2447, "pitch": 77, "duration": 4, "velocity": 93}, {"time": 2453, "pitch": 77, "duration": 3, "velocity": 90}, {"time": 2459, "pitch": 77, "duration": 4, "velocity": 93}, {"time": 2465, "pitch": 76, "duration": 3, "velocity": 102}, {"time": 2471, "pitch": 74, "duration": 4, "velocity": 87}, {"time": 2477, "pitch": 74, "duration": 19, "velocity": 93}, {"time": 2519, "pitch": 72, "duration": 5, "velocity": 93}, {"time": 2525, "pitch": 74, "duration": 5, "velocity": 87}, {"time": 2531, "pitch": 76, "duration": 4, "velocity": 85}, {"time": 2537, "pitch": 77, "duration": 3, "velocity": 93}, {"time": 2543, "pitch": 77, "duration": 3, "velocity": 103}, {"time": 2549, "pitch": 77, "duration": 5, "velocity": 105}, {"time": 2555, "pitch": 79, "duration": 4, "velocity": 95}, {"time": 2561, "pitch": 77, "duration": 3, "velocity": 93}, {"time": 2567, "pitch": 74, "duration": 8, "velocity": 87}, {"time": 2579, "pitch": 72, "duration": 18, "velocity": 87}, {"time": 2627, "pitch": 81, "duration": 8, "velocity": 87}, {"time": 2639, "pitch": 79, "duration": 4, "velocity": 87}, {"time": 2645, "pitch": 77, "duration": 10, "velocity": 95}, {"time": 2657, "pitch": 76, "duration": 10, "velocity": 102}, {"time": 2675, "pitch": 79, "duration": 8, "velocity": 83}, {"time": 2687, "pitch": 77, "duration": 3, "velocity": 103}, {"time": 2693, "pitch": 76, "duration": 11, "velocity": 103}, {"time": 2705, "pitch": 74, "duration": 11, "velocity": 95}, {"time": 2723, "pitch": 77, "duration": 7, "velocity": 93}, {"time": 2735, "pitch": 76, "duration": 4, "velocity": 93}, {"time": 2741, "pitch": 74, "duration": 11, "velocity": 95}, {"time": 2753, "pitch": 72, "duration": 6, "velocity": 87}, {"time": 2759, "pitch": 74, "duration": 4, "velocity": 72}, {"time": 2765, "pitch": 74, "duration": 20, "velocity": 95}, {"time": 2789, "pitch": 72, "duration": 4, "velocity": 93}, {"time": 2795, "pitch": 74, "duration": 4, "velocity": 102}, {"time": 2801, "pitch": 81, "duration": 9, "velocity": 93}, {"time": 2813, "pitch": 79, "duration": 55, "velocity": 93}, {"time": 2879, "pitch": 77, "duration": 5, "velocity": 102}, {"time": 2885, "pitch": 79, "duration": 10, "velocity": 93}, {"time": 2897, "pitch": 77, "duration": 10, "velocity": 102}, {"time": 2909, "pitch": 72, "duration": 13, "velocity": 93}, {"time": 2927, "pitch": 77, "duration": 5, "velocity": 105}, {"time": 2933, "pitch": 79, "duration": 10, "velocity": 80}, {"time": 2945, "pitch": 77, "duration": 9, "velocity": 102}, {"time": 2957, "pitch": 74, "duration": 11, "velocity": 87}, {"time": 2981, "pitch": 72, "duration": 3, "velocity": 93}, {"time": 2987, "pitch": 74, "duration": 4, "velocity": 87}, {"time": 2993, "pitch": 81, "duration": 8, "velocity": 87}, {"time": 3005, "pitch": 79, "duration": 50, "velocity": 95}, {"time": 3071, "pitch": 81, "duration": 4, "velocity": 93}, {"time": 3077, "pitch": 79, "duration": 8, "velocity": 93}, {"time": 3089, "pitch": 77, "duration": 10, "velocity": 102}, {"time": 3101, "pitch": 72, "duration": 11, "velocity": 95}, {"time": 3119, "pitch": 81, "duration": 4, "velocity": 93}, {"time": 3125, "pitch": 79, "duration": 9, "velocity": 83}, {"time": 3137, "pitch": 81, "duration": 9, "velocity": 87}, {"time": 3149, "pitch": 74, "duration": 11, "velocity": 93}, {"time": 3173, "pitch": 72, "duration": 3, "velocity": 93}, {"time": 3179, "pitch": 77, "duration": 2, "velocity": 95}, {"time": 3185, "pitch": 79, "duration": 3, "velocity": 87}, {"time": 3191, "pitch": 81, "duration": 4, "velocity": 87}, {"time": 3197, "pitch": 81, "duration": 8, "velocity": 93}, {"time": 3215, "pitch": 79, "duration": 2, "velocity": 83}, {"time": 3221, "pitch": 77, "duration": 23, "velocity": 93}, {"time": 3311, "pitch": 82, "duration": 4, "velocity": 103}, {"time": 3317, "pitch": 82, "duration": 11, "velocity": 93}, {"time": 3329, "pitch": 81, "duration": 4, "velocity": 93}, {"time": 3335, "pitch": 79, "duration": 4, "velocity": 103}, {"time": 3341, "pitch": 82, "duration": 14, "velocity": 103}, {"time": 3359, "pitch": 82, "duration": 4, "velocity": 102}, {"time": 3365, "pitch": 82, "duration": 11, "velocity": 93}, {"time": 3377, "pitch": 81, "duration": 4, "velocity": 102}, {"time": 3383, "pitch": 79, "duration": 4, "velocity": 103}, {"time": 3389, "pitch": 81, "duration": 8, "velocity": 93}, {"time": 3407, "pitch": 81, "duration": 5, "velocity": 93}, {"time": 3413, "pitch": 79, "duration": 10, "velocity": 102}, {"time": 3425, "pitch": 79, "duration": 4, "velocity": 102}, {"time": 3431, "pitch": 81, "duration": 5, "velocity": 93}, {"time": 3437, "pitch": 77, "duration": 6, "velocity": 103}, {"time": 3443, "pitch": 74, "duration": 8, "velocity": 74}, {"time": 3455, "pitch": 74, "duration": 4, "velocity": 103}, {"time": 3461, "pitch": 77, "duration": 16, "velocity": 102}, {"time": 3479, "pitch": 84, "duration": 4, "velocity": 87}, {"time": 3485, "pitch": 82, "duration": 14, "velocity": 95}, {"time": 3503, "pitch": 82, "duration": 4, "velocity": 95}, {"time": 3509, "pitch": 81, "duration": 12, "velocity": 95}, {"time": 3521, "pitch": 79, "duration": 3, "velocity": 90}, {"time": 3527, "pitch": 79, "duration": 5, "velocity": 105}, {"time": 3533, "pitch": 82, "duration": 14, "velocity": 103}, {"time": 3551, "pitch": 84, "duration": 5, "velocity": 93}, {"time": 3557, "pitch": 82, "duration": 11, "velocity": 93}, {"time": 3569, "pitch": 81, "duration": 5, "velocity": 93}, {"time": 3575, "pitch": 79, "duration": 5, "velocity": 105}, {"time": 3581, "pitch": 81, "duration": 12, "velocity": 93}, {"time": 3599, "pitch": 81, "duration": 4, "velocity": 93}, {"time": 3605, "pitch": 79, "duration": 10, "velocity": 93}, {"time": 3617, "pitch": 79, "duration": 4, "velocity": 87}, {"time": 3623, "pitch": 81, "duration": 5, "velocity": 85}, {"time": 3629, "pitch": 77, "duration": 6, "velocity": 93}, {"time": 3635, "pitch": 74, "duration": 9, "velocity": 95}, {"time": 3653, "pitch": 72, "duration": 4, "velocity": 93}, {"time": 3659, "pitch": 74, "duration": 4, "velocity": 102}, {"time": 3665, "pitch": 81, "duration": 9, "velocity": 93}, {"time": 3677, "pitch": 79, "duration": 55, "velocity": 93}, {"time": 3743, "pitch": 77, "duration": 5, "velocity": 102}, {"time": 3749, "pitch": 79, "duration": 10, "velocity": 93}, {"time": 3761, "pitch": 77, "duration": 10, "velocity": 102}, {"time": 3773, "pitch": 72, "duration": 13, "velocity": 93}, {"time": 3791, "pitch": 77, "duration": 5, "velocity": 105}, {"time": 3797, "pitch": 79, "duration": 10, "velocity": 80}, {"time": 3809, "pitch": 77, "duration": 9, "velocity": 102}, {"time": 3821, "pitch": 74, "duration": 11, "velocity": 87}, {"time": 3845, "pitch": 72, "duration": 3, "velocity": 93}, {"time": 3851, "pitch": 74, "duration": 4, "velocity": 87}, {"time": 3857, "pitch": 81, "duration": 8, "velocity": 87}, {"time": 3869, "pitch": 79, "duration": 50, "velocity": 95}, {"time": 3935, "pitch": 81, "duration": 4, "velocity": 93}, {"time": 3941, "pitch": 79, "duration": 8, "velocity": 93}, {"time": 3953, "pitch": 77, "duration": 10, "velocity": 102}, {"time": 3965, "pitch": 72, "duration": 11, "velocity": 95}, {"time": 3983, "pitch": 81, "duration": 4, "velocity": 93}, {"time": 3989, "pitch": 79, "duration": 9, "velocity": 83}, {"time": 4001, "pitch": 81, "duration": 9, "velocity": 87}, {"time": 4013, "pitch": 74, "duration": 11, "velocity": 93}, {"time": 4037, "pitch": 72, "duration": 3, "velocity": 93}, {"time": 4043, "pitch": 77, "duration": 2, "velocity": 95}, {"time": 4049, "pitch": 79, "duration": 3, "velocity": 87}, {"time": 4055, "pitch": 81, "duration": 4, "velocity": 87}, {"time": 4061, "pitch": 81, "duration": 8, "velocity": 93}, {"time": 4079, "pitch": 79, "duration": 2, "velocity": 83}, {"time": 4085, "pitch": 77, "duration": 23, "velocity": 93}, {"time": 4139, "pitch": 72, "duration": 10, "velocity": 105}, {"time": 4151, "pitch": 84, "duration": 10, "velocity": 93}, {"time": 4163, "pitch": 77, "duration": 15, "velocity": 105}, {"time": 4181, "pitch": 79, "duration": 50, "velocity": 95}, {"time": 4235, "pitch": 74, "duration": 9, "velocity": 110}, {"time": 4247, "pitch": 86, "duration": 9, "velocity": 102}, {"time": 4259, "pitch": 79, "duration": 16, "velocity": 103}, {"time": 4277, "pitch": 81, "duration": 48, "velocity": 93}, {"time": 4331, "pitch": 72, "duration": 10, "velocity": 105}, {"time": 4343, "pitch": 84, "duration": 10, "velocity": 93}, {"time": 4355, "pitch": 77, "duration": 15, "velocity": 105}, {"time": 4373, "pitch": 79, "duration": 50, "velocity": 95}, {"time": 4427, "pitch": 74, "duration": 9, "velocity": 110}, {"time": 4439, "pitch": 86, "duration": 9, "velocity": 102}, {"time": 4451, "pitch": 81, "duration": 72, "velocity": 103}, {"time": 4523, "pitch": 72, "duration": 10, "velocity": 105}, {"time": 4535, "pitch": 84, "duration": 10, "velocity": 93}, {"time": 4547, "pitch": 77, "duration": 15, "velocity": 105}, {"time": 4565, "pitch": 79, "duration": 50, "velocity": 95}, {"time": 4619, "pitch": 74, "duration": 9, "velocity": 110}, {"time": 4631, "pitch": 86, "duration": 9, "velocity": 102}, {"time": 4643, "pitch": 79, "duration": 16, "velocity": 103}, {"time": 4661, "pitch": 81, "duration": 48, "velocity": 93}, {"time": 4715, "pitch": 72, "duration": 10, "velocity": 105}, {"time": 4727, "pitch": 84, "duration": 10, "velocity": 93}, {"time": 4739, "pitch": 77, "duration": 15, "velocity": 80}, {"time": 4757, "pitch": 79, "duration": 50, "velocity": 69}, {"time": 4811, "pitch": 74, "duration": 9, "velocity": 33}, {"time": 4823, "pitch": 86, "duration": 9, "velocity": 27}, {"time": 4835, "pitch": 81, "duration": 72, "velocity": 19}]}, {"program": 0, "is_drum": false, "name": "PIANO", "notes": [{"time": 35, "pitch": 50, "duration": 45, "velocity": 87}, {"time": 35, "pitch": 57, "duration": 9, "velocity": 74}, {"time": 35, "pitch": 62, "duration": 9, "velocity": 87}, {"time": 47, "pitch": 57, "duration": 2, "velocity": 93}, {"time": 47, "pitch": 65, "duration": 3, "velocity": 87}, {"time": 56, "pitch": 57, "duration": 2, "velocity": 80}, {"time": 56, "pitch": 65, "duration": 3, "velocity": 83}, {"time": 59, "pitch": 62, "duration": 3, "velocity": 87}, {"time": 62, "pitch": 57, "duration": 3, "velocity": 87}, {"time": 71, "pitch": 57, "duration": 4, "velocity": 90}, {"time": 71, "pitch": 62, "duration": 5, "velocity": 102}, {"time": 77, "pitch": 57, "duration": 3, "velocity": 63}, {"time": 83, "pitch": 50, "duration": 44, "velocity": 70}, {"time": 83, "pitch": 57, "duration": 8, "velocity": 72}, {"time": 83, "pitch": 62, "duration": 8, "velocity": 74}, {"time": 95, "pitch": 57, "duration": 2, "velocity": 95}, {"time": 95, "pitch": 65, "duration": 3, "velocity": 87}, {"time": 104, "pitch": 57, "duration": 2, "velocity": 80}, {"time": 104, "pitch": 62, "duration": 3, "velocity": 80}, {"time": 110, "pitch": 57, "duration": 4, "velocity": 87}, {"time": 113, "pitch": 62, "duration": 3, "velocity": 80}, {"time": 119, "pitch": 57, "duration": 4, "velocity": 93}, {"time": 119, "pitch": 62, "duration": 4, "velocity": 93}, {"time": 131, "pitch": 50, "duration": 35, "velocity": 80}, {"time": 131, "pitch": 57, "duration": 8, "velocity": 71}, {"time": 131, "pitch": 62, "duration": 8, "velocity": 72}, {"time": 143, "pitch": 57, "duration": 2, "velocity": 87}, {"time": 143, "pitch": 65, "duration": 3, "velocity": 85}, {"time": 152, "pitch": 57, "duration": 3, "velocity": 80}, {"time": 152, "pitch": 65, "duration": 3, "velocity": 74}, {"time": 158, "pitch": 62, "duration": 2, "velocity": 68}, {"time": 161, "pitch": 57, "duration": 3, "velocity": 69}, {"time": 167, "pitch": 50, "duration": 8, "velocity": 80}, {"time": 167, "pitch": 57, "duration": 5, "velocity": 74}, {"time": 167, "pitch": 62, "duration": 7, "velocity": 80}, {"time": 173, "pitch": 57, "duration": 3, "velocity": 80}, {"time": 179, "pitch": 50, "duration": 45, "velocity": 87}, {"time": 179, "pitch": 57, "duration": 10, "velocity": 80}, {"time": 179, "pitch": 62, "duration": 10, "velocity": 83}, {"time": 191, "pitch": 57, "duration": 7, "velocity": 90}, {"time": 191, "pitch": 65, "duration": 4, "velocity": 87}, {"time": 200, "pitch": 57, "duration": 12, "velocity": 93}, {"time": 200, "pitch": 65, "duration": 12, "velocity": 87}, {"time": 215, "pitch": 62, "duration": 3, "velocity": 103}, {"time": 218, "pitch": 57, "duration": 4, "velocity": 90}, {"time": 221, "pitch": 62, "duration": 3, "velocity": 68}, {"time": 224, "pitch": 57, "duration": 2, "velocity": 70}, {"time": 227, "pitch": 50, "duration": 45, "velocity": 87}, {"time": 227, "pitch": 57, "duration": 9, "velocity": 74}, {"time": 227, "pitch": 62, "duration": 9, "velocity": 87}, {"time": 239, "pitch": 57, "duration": 2, "velocity": 93}, {"time": 239, "pitch": 65, "duration": 3, "velocity": 87}, {"time": 248, "pitch": 57, "duration": 2, "velocity": 80}, {"time": 248, "pitch": 65, "duration": 3, "velocity": 83}, {"time": 251, "pitch": 62, "duration": 3, "velocity": 87}, {"time": 254, "pitch": 57, "duration": 3, "velocity": 87}, {"time": 263, "pitch": 57, "duration": 4, "velocity": 90}, {"time": 263, "pitch": 62, "duration": 5, "velocity": 102}, {"time": 269, "pitch": 57, "duration": 3, "velocity": 63}, {"time": 275, "pitch": 50, "duration": 44, "velocity": 70}, {"time": 275, "pitch": 57, "duration": 8, "velocity": 72}, {"time": 275, "pitch": 62, "duration": 8, "velocity": 74}, {"time": 287, "pitch": 57, "duration": 2, "velocity": 95}, {"time": 287, "pitch": 65, "duration": 3, "velocity": 87}, {"time": 296, "pitch": 57, "duration": 2, "velocity": 80}, {"time": 296, "pitch": 62, "duration": 3, "velocity": 80}, {"time": 302, "pitch": 57, "duration": 4, "velocity": 87}, {"time": 305, "pitch": 62, "duration": 3, "velocity": 80}, {"time": 311, "pitch": 57, "duration": 4, "velocity": 93}, {"time": 311, "pitch": 62, "duration": 4, "velocity": 93}, {"time": 323, "pitch": 50, "duration": 35, "velocity": 80}, {"time": 323, "pitch": 57, "duration": 8, "velocity": 71}, {"time": 323, "pitch": 62, "duration": 8, "velocity": 72}, {"time": 335, "pitch": 57, "duration": 2, "velocity": 87}, {"time": 335, "pitch": 65, "duration": 3, "velocity": 85}, {"time": 344, "pitch": 57, "duration": 3, "velocity": 80}, {"time": 344, "pitch": 65, "duration": 3, "velocity": 74}, {"time": 350, "pitch": 62, "duration": 2, "velocity": 68}, {"time": 353, "pitch": 57, "duration": 3, "velocity": 69}, {"time": 359, "pitch": 50, "duration": 8, "velocity": 80}, {"time": 359, "pitch": 57, "duration": 5, "velocity": 74}, {"time": 359, "pitch": 62, "duration": 7, "velocity": 80}, {"time": 365, "pitch": 57, "duration": 3, "velocity": 80}, {"time": 371, "pitch": 38, "duration": 22, "velocity": 87}, {"time": 371, "pitch": 62, "duration": 8, "velocity": 87}, {"time": 371, "pitch": 57, "duration": 8, "velocity": 83}, {"time": 377, "pitch": 45, "duration": 16, "velocity": 56}, {"time": 383, "pitch": 65, "duration": 4, "velocity": 103}, {"time": 383, "pitch": 57, "duration": 3, "velocity": 95}, {"time": 393, "pitch": 57, "duration": 1, "velocity": 93}, {"time": 395, "pitch": 38, "duration": 15, "velocity": 102}, {"time": 395, "pitch": 57, "duration": 22, "velocity": 87}, {"time": 396, "pitch": 62, "duration": 21, "velocity": 93}, {"time": 419, "pitch": 50, "duration": 5, "velocity": 85}, {"time": 419, "pitch": 57, "duration": 4, "velocity": 68}, {"time": 419, "pitch": 62, "duration": 7, "velocity": 71}, {"time": 425, "pitch": 50, "duration": 10, "velocity": 78}, {"time": 431, "pitch": 57, "duration": 7, "velocity": 80}, {"time": 431, "pitch": 62, "duration": 4, "velocity": 87}, {"time": 443, "pitch": 50, "duration": 3, "velocity": 78}, {"time": 443, "pitch": 65, "duration": 8, "velocity": 102}, {"time": 449, "pitch": 50, "duration": 15, "velocity": 78}, {"time": 455, "pitch": 57, "duration": 4, "velocity": 80}, {"time": 455, "pitch": 62, "duration": 7, "velocity": 103}, {"time": 467, "pitch": 50, "duration": 6, "velocity": 80}, {"time": 467, "pitch": 57, "duration": 4, "velocity": 74}, {"time": 467, "pitch": 65, "duration": 10, "velocity": 80}, {"time": 473, "pitch": 50, "duration": 6, "velocity": 74}, {"time": 479, "pitch": 57, "duration": 6, "velocity": 78}, {"time": 479, "pitch": 62, "duration": 7, "velocity": 95}, {"time": 488, "pitch": 57, "duration": 8, "velocity": 93}, {"time": 491, "pitch": 50, "duration": 3, "velocity": 78}, {"time": 491, "pitch": 65, "duration": 10, "velocity": 103}, {"time": 497, "pitch": 50, "duration": 6, "velocity": 78}, {"time": 497, "pitch": 57, "duration": 4, "velocity": 93}, {"time": 503, "pitch": 50, "duration": 3, "velocity": 85}, {"time": 503, "pitch": 57, "duration": 2, "velocity": 93}, {"time": 503, "pitch": 62, "duration": 6, "velocity": 87}, {"time": 509, "pitch": 57, "duration": 3, "velocity": 83}, {"time": 515, "pitch": 46, "duration": 6, "velocity": 68}, {"time": 515, "pitch": 58, "duration": 4, "velocity": 64}, {"time": 515, "pitch": 62, "duration": 7, "velocity": 80}, {"time": 521, "pitch": 46, "duration": 6, "velocity": 78}, {"time": 527, "pitch": 58, "duration": 5, "velocity": 72}, {"time": 527, "pitch": 62, "duration": 11, "velocity": 72}, {"time": 536, "pitch": 58, "duration": 5, "velocity": 93}, {"time": 539, "pitch": 46, "duration": 6, "velocity": 78}, {"time": 539, "pitch": 62, "duration": 8, "velocity": 83}, {"time": 539, "pitch": 65, "duration": 8, "velocity": 90}, {"time": 545, "pitch": 46, "duration": 6, "velocity": 78}, {"time": 551, "pitch": 58, "duration": 4, "velocity": 95}, {"time": 551, "pitch": 62, "duration": 7, "velocity": 93}, {"time": 557, "pitch": 58, "duration": 3, "velocity": 61}, {"time": 563, "pitch": 41, "duration": 3, "velocity": 83}, {"time": 563, "pitch": 53, "duration": 8, "velocity": 66}, {"time": 563, "pitch": 57, "duration": 9, "velocity": 80}, {"time": 569, "pitch": 41, "duration": 6, "velocity": 78}, {"time": 569, "pitch": 48, "duration": 10, "velocity": 68}, {"time": 575, "pitch": 53, "duration": 4, "velocity": 93}, {"time": 575, "pitch": 60, "duration": 6, "velocity": 80}, {"time": 584, "pitch": 53, "duration": 3, "velocity": 78}, {"time": 587, "pitch": 48, "duration": 6, "velocity": 70}, {"time": 587, "pitch": 65, "duration": 8, "velocity": 95}, {"time": 593, "pitch": 48, "duration": 9, "velocity": 78}, {"time": 593, "pitch": 53, "duration": 4, "velocity": 102}, {"time": 599, "pitch": 53, "duration": 2, "velocity": 87}, {"time": 599, "pitch": 57, "duration": 6, "velocity": 102}, {"time": 599, "pitch": 60, "duration": 7, "velocity": 87}, {"time": 605, "pitch": 53, "duration": 3, "velocity": 105}, {"time": 611, "pitch": 43, "duration": 6, "velocity": 90}, {"time": 611, "pitch": 55, "duration": 9, "velocity": 80}, {"time": 617, "pitch": 43, "duration": 6, "velocity": 78}, {"time": 623, "pitch": 50, "duration": 9, "velocity": 80}, {"time": 623, "pitch": 62, "duration": 10, "velocity": 87}, {"time": 632, "pitch": 50, "duration": 6, "velocity": 71}, {"time": 635, "pitch": 43, "duration": 3, "velocity": 78}, {"time": 635, "pitch": 55, "duration": 6, "velocity": 85}, {"time": 635, "pitch": 62, "duration": 12, "velocity": 93}, {"time": 641, "pitch": 43, "duration": 6, "velocity": 78}, {"time": 641, "pitch": 50, "duration": 9, "velocity": 74}, {"time": 647, "pitch": 55, "duration": 7, "velocity": 105}, {"time": 653, "pitch": 62, "duration": 3, "velocity": 87}, {"time": 659, "pitch": 45, "duration": 3, "velocity": 87}, {"time": 659, "pitch": 57, "duration": 8, "velocity": 83}, {"time": 659, "pitch": 64, "duration": 13, "velocity": 87}, {"time": 665, "pitch": 45, "duration": 6, "velocity": 78}, {"time": 671, "pitch": 52, "duration": 5, "velocity": 71}, {"time": 671, "pitch": 57, "duration": 6, "velocity": 105}, {"time": 680, "pitch": 52, "duration": 6, "velocity": 74}, {"time": 683, "pitch": 45, "duration": 3, "velocity": 78}, {"time": 683, "pitch": 60, "duration": 7, "velocity": 93}, {"time": 689, "pitch": 45, "duration": 6, "velocity": 78}, {"time": 689, "pitch": 57, "duration": 4, "velocity": 69}, {"time": 695, "pitch": 57, "duration": 3, "velocity": 102}, {"time": 695, "pitch": 64, "duration": 7, "velocity": 102}, {"time": 701, "pitch": 57, "duration": 4, "velocity": 93}, {"time": 707, "pitch": 46, "duration": 6, "velocity": 71}, {"time": 707, "pitch": 58, "duration": 7, "velocity": 70}, {"time": 707, "pitch": 62, "duration": 13, "velocity": 87}, {"time": 713, "pitch": 46, "duration": 6, "velocity": 78}, {"time": 719, "pitch": 53, "duration": 9, "velocity": 70}, {"time": 719, "pitch": 58, "duration": 13, "velocity": 93}, {"time": 728, "pitch": 53, "duration": 17, "velocity": 87}, {"time": 731, "pitch": 46, "duration": 6, "velocity": 78}, {"time": 731, "pitch": 65, "duration": 8, "velocity": 102}, {"time": 737, "pitch": 46, "duration": 6, "velocity": 78}, {"time": 737, "pitch": 58, "duration": 4, "velocity": 87}, {"time": 743, "pitch": 58, "duration": 1, "velocity": 60}, {"time": 743, "pitch": 62, "duration": 6, "velocity": 87}, {"time": 749, "pitch": 58, "duration": 3, "velocity": 69}, {"time": 755, "pitch": 38, "duration": 6, "velocity": 90}, {"time": 755, "pitch": 57, "duration": 9, "velocity": 70}, {"time": 755, "pitch": 62, "duration": 12, "velocity": 74}, {"time": 761, "pitch": 38, "duration": 9, "velocity": 78}, {"time": 767, "pitch": 45, "duration": 9, "velocity": 93}, {"time": 767, "pitch": 62, "duration": 7, "velocity": 80}, {"time": 776, "pitch": 57, "duration": 4, "velocity": 93}, {"time": 779, "pitch": 38, "duration": 3, "velocity": 78}, {"time": 779, "pitch": 65, "duration": 7, "velocity": 95}, {"time": 785, "pitch": 38, "duration": 15, "velocity": 78}, {"time": 785, "pitch": 57, "duration": 4, "velocity": 93}, {"time": 791, "pitch": 57, "duration": 8, "velocity": 80}, {"time": 791, "pitch": 62, "duration": 9, "velocity": 83}, {"time": 803, "pitch": 50, "duration": 5, "velocity": 85}, {"time": 803, "pitch": 57, "duration": 4, "velocity": 68}, {"time": 803, "pitch": 62, "duration": 7, "velocity": 71}, {"time": 809, "pitch": 50, "duration": 10, "velocity": 78}, {"time": 815, "pitch": 57, "duration": 7, "velocity": 80}, {"time": 815, "pitch": 62, "duration": 4, "velocity": 87}, {"time": 827, "pitch": 50, "duration": 3, "velocity": 78}, {"time": 827, "pitch": 65, "duration": 8, "velocity": 102}, {"time": 833, "pitch": 50, "duration": 15, "velocity": 78}, {"time": 839, "pitch": 57, "duration": 4, "velocity": 80}, {"time": 839, "pitch": 62, "duration": 7, "velocity": 103}, {"time": 851, "pitch": 50, "duration": 6, "velocity": 80}, {"time": 851, "pitch": 57, "duration": 4, "velocity": 74}, {"time": 851, "pitch": 65, "duration": 10, "velocity": 80}, {"time": 857, "pitch": 50, "duration": 6, "velocity": 74}, {"time": 863, "pitch": 57, "duration": 6, "velocity": 78}, {"time": 863, "pitch": 62, "duration": 7, "velocity": 95}, {"time": 872, "pitch": 57, "duration": 8, "velocity": 93}, {"time": 875, "pitch": 50, "duration": 3, "velocity": 78}, {"time": 875, "pitch": 65, "duration": 10, "velocity": 103}, {"time": 881, "pitch": 50, "duration": 6, "velocity": 78}, {"time": 881, "pitch": 57, "duration": 4, "velocity": 93}, {"time": 887, "pitch": 50, "duration": 3, "velocity": 85}, {"time": 887, "pitch": 57, "duration": 2, "velocity": 93}, {"time": 887, "pitch": 62, "duration": 6, "velocity": 87}, {"time": 893, "pitch": 57, "duration": 3, "velocity": 83}, {"time": 899, "pitch": 46, "duration": 6, "velocity": 68}, {"time": 899, "pitch": 58, "duration": 4, "velocity": 64}, {"time": 899, "pitch": 62, "duration": 7, "velocity": 80}, {"time": 905, "pitch": 46, "duration": 6, "velocity": 78}, {"time": 911, "pitch": 58, "duration": 5, "velocity": 72}, {"time": 911, "pitch": 62, "duration": 11, "velocity": 72}, {"time": 920, "pitch": 58, "duration": 5, "velocity": 93}, {"time": 923, "pitch": 46, "duration": 6, "velocity": 78}, {"time": 923, "pitch": 62, "duration": 8, "velocity": 83}, {"time": 923, "pitch": 65, "duration": 8, "velocity": 90}, {"time": 929, "pitch": 46, "duration": 6, "velocity": 78}, {"time": 935, "pitch": 58, "duration": 4, "velocity": 95}, {"time": 935, "pitch": 62, "duration": 7, "velocity": 93}, {"time": 941, "pitch": 58, "duration": 3, "velocity": 61}, {"time": 947, "pitch": 41, "duration": 3, "velocity": 83}, {"time": 947, "pitch": 53, "duration": 8, "velocity": 66}, {"time": 947, "pitch": 57, "duration": 9, "velocity": 80}, {"time": 953, "pitch": 41, "duration": 6, "velocity": 78}, {"time": 953, "pitch": 48, "duration": 10, "velocity": 68}, {"time": 959, "pitch": 53, "duration": 4, "velocity": 93}, {"time": 959, "pitch": 60, "duration": 6, "velocity": 80}, {"time": 968, "pitch": 53, "duration": 3, "velocity": 78}, {"time": 971, "pitch": 48, "duration": 6, "velocity": 70}, {"time": 971, "pitch": 65, "duration": 8, "velocity": 95}, {"time": 977, "pitch": 48, "duration": 9, "velocity": 78}, {"time": 977, "pitch": 53, "duration": 4, "velocity": 102}, {"time": 983, "pitch": 53, "duration": 2, "velocity": 87}, {"time": 983, "pitch": 57, "duration": 6, "velocity": 102}, {"time": 983, "pitch": 60, "duration": 7, "velocity": 87}, {"time": 989, "pitch": 53, "duration": 3, "velocity": 105}, {"time": 995, "pitch": 43, "duration": 6, "velocity": 90}, {"time": 995, "pitch": 55, "duration": 9, "velocity": 80}, {"time": 1001, "pitch": 43, "duration": 6, "velocity": 78}, {"time": 1007, "pitch": 50, "duration": 9, "velocity": 80}, {"time": 1007, "pitch": 62, "duration": 10, "velocity": 87}, {"time": 1016, "pitch": 50, "duration": 6, "velocity": 71}, {"time": 1019, "pitch": 43, "duration": 3, "velocity": 78}, {"time": 1019, "pitch": 55, "duration": 6, "velocity": 85}, {"time": 1019, "pitch": 62, "duration": 12, "velocity": 93}, {"time": 1025, "pitch": 43, "duration": 6, "velocity": 78}, {"time": 1025, "pitch": 50, "duration": 9, "velocity": 74}, {"time": 1031, "pitch": 55, "duration": 7, "velocity": 105}, {"time": 1037, "pitch": 62, "duration": 3, "velocity": 87}, {"time": 1043, "pitch": 45, "duration": 3, "velocity": 87}, {"time": 1043, "pitch": 57, "duration": 8, "velocity": 83}, {"time": 1043, "pitch": 64, "duration": 13, "velocity": 87}, {"time": 1049, "pitch": 45, "duration": 6, "velocity": 78}, {"time": 1055, "pitch": 52, "duration": 5, "velocity": 71}, {"time": 1055, "pitch": 57, "duration": 6, "velocity": 105}, {"time": 1064, "pitch": 52, "duration": 6, "velocity": 74}, {"time": 1067, "pitch": 45, "duration": 3, "velocity": 78}, {"time": 1067, "pitch": 60, "duration": 7, "velocity": 93}, {"time": 1073, "pitch": 45, "duration": 6, "velocity": 78}, {"time": 1073, "pitch": 57, "duration": 4, "velocity": 69}, {"time": 1079, "pitch": 57, "duration": 3, "velocity": 102}, {"time": 1079, "pitch": 64, "duration": 7, "velocity": 102}, {"time": 1085, "pitch": 57, "duration": 4, "velocity": 93}, {"time": 1091, "pitch": 46, "duration": 6, "velocity": 71}, {"time": 1091, "pitch": 58, "duration": 7, "velocity": 70}, {"time": 1091, "pitch": 62, "duration": 13, "velocity": 87}, {"time": 1097, "pitch": 46, "duration": 6, "velocity": 78}, {"time": 1103, "pitch": 53, "duration": 9, "velocity": 70}, {"time": 1103, "pitch": 58, "duration": 13, "velocity": 93}, {"time": 1112, "pitch": 53, "duration": 17, "velocity": 87}, {"time": 1115, "pitch": 46, "duration": 6, "velocity": 78}, {"time": 1115, "pitch": 65, "duration": 8, "velocity": 102}, {"time": 1121, "pitch": 46, "duration": 6, "velocity": 78}, {"time": 1121, "pitch": 58, "duration": 4, "velocity": 87}, {"time": 1127, "pitch": 58, "duration": 1, "velocity": 60}, {"time": 1127, "pitch": 62, "duration": 6, "velocity": 87}, {"time": 1133, "pitch": 58, "duration": 3, "velocity": 69}, {"time": 1139, "pitch": 38, "duration": 6, "velocity": 90}, {"time": 1139, "pitch": 57, "duration": 9, "velocity": 70}, {"time": 1139, "pitch": 62, "duration": 12, "velocity": 74}, {"time": 1145, "pitch": 38, "duration": 9, "velocity": 78}, {"time": 1151, "pitch": 45, "duration": 9, "velocity": 93}, {"time": 1151, "pitch": 62, "duration": 7, "velocity": 80}, {"time": 1160, "pitch": 57, "duration": 4, "velocity": 93}, {"time": 1163, "pitch": 38, "duration": 3, "velocity": 78}, {"time": 1163, "pitch": 65, "duration": 7, "velocity": 95}, {"time": 1169, "pitch": 38, "duration": 15, "velocity": 78}, {"time": 1169, "pitch": 57, "duration": 4, "velocity": 93}, {"time": 1175, "pitch": 57, "duration": 8, "velocity": 80}, {"time": 1175, "pitch": 62, "duration": 9, "velocity": 83}, {"time": 1187, "pitch": 48, "duration": 3, "velocity": 93}, {"time": 1187, "pitch": 60, "duration": 8, "velocity": 80}, {"time": 1187, "pitch": 67, "duration": 9, "velocity": 80}, {"time": 1193, "pitch": 48, "duration": 3, "velocity": 78}, {"time": 1199, "pitch": 55, "duration": 4, "velocity": 68}, {"time": 1199, "pitch": 60, "duration": 7, "velocity": 87}, {"time": 1199, "pitch": 64, "duration": 8, "velocity": 93}, {"time": 1208, "pitch": 55, "duration": 6, "velocity": 65}, {"time": 1211, "pitch": 48, "duration": 3, "velocity": 78}, {"time": 1211, "pitch": 60, "duration": 9, "velocity": 93}, {"time": 1211, "pitch": 67, "duration": 9, "velocity": 83}, {"time": 1217, "pitch": 48, "duration": 6, "velocity": 78}, {"time": 1217, "pitch": 55, "duration": 8, "velocity": 60}, {"time": 1223, "pitch": 60, "duration": 2, "velocity": 87}, {"time": 1223, "pitch": 64, "duration": 5, "velocity": 102}, {"time": 1229, "pitch": 60, "duration": 2, "velocity": 87}, {"time": 1235, "pitch": 46, "duration": 6, "velocity": 85}, {"time": 1235, "pitch": 58, "duration": 8, "velocity": 59}, {"time": 1235, "pitch": 62, "duration": 14, "velocity": 67}, {"time": 1241, "pitch": 46, "duration": 6, "velocity": 78}, {"time": 1247, "pitch": 53, "duration": 4, "velocity": 69}, {"time": 1247, "pitch": 58, "duration": 9, "velocity": 95}, {"time": 1256, "pitch": 53, "duration": 6, "velocity": 71}, {"time": 1259, "pitch": 46, "duration": 6, "velocity": 78}, {"time": 1259, "pitch": 58, "duration": 9, "velocity": 72}, {"time": 1259, "pitch": 65, "duration": 9, "velocity": 93}, {"time": 1265, "pitch": 46, "duration": 12, "velocity": 78}, {"time": 1265, "pitch": 53, "duration": 7, "velocity": 64}, {"time": 1271, "pitch": 58, "duration": 2, "velocity": 87}, {"time": 1271, "pitch": 65, "duration": 4, "velocity": 93}, {"time": 1283, "pitch": 41, "duration": 3, "velocity": 83}, {"time": 1283, "pitch": 57, "duration": 4, "velocity": 80}, {"time": 1283, "pitch": 60, "duration": 9, "velocity": 80}, {"time": 1289, "pitch": 41, "duration": 6, "velocity": 78}, {"time": 1289, "pitch": 57, "duration": 8, "velocity": 71}, {"time": 1295, "pitch": 60, "duration": 7, "velocity": 93}, {"time": 1295, "pitch": 65, "duration": 6, "velocity": 87}, {"time": 1304, "pitch": 57, "duration": 4, "velocity": 64}, {"time": 1307, "pitch": 41, "duration": 3, "velocity": 78}, {"time": 1307, "pitch": 57, "duration": 1, "velocity": 90}, {"time": 1307, "pitch": 60, "duration": 7, "velocity": 93}, {"time": 1313, "pitch": 41, "duration": 15, "velocity": 78}, {"time": 1313, "pitch": 57, "duration": 5, "velocity": 72}, {"time": 1319, "pitch": 60, "duration": 6, "velocity": 80}, {"time": 1325, "pitch": 57, "duration": 4, "velocity": 90}, {"time": 1331, "pitch": 43, "duration": 6, "velocity": 87}, {"time": 1331, "pitch": 58, "duration": 13, "velocity": 90}, {"time": 1337, "pitch": 43, "duration": 6, "velocity": 78}, {"time": 1337, "pitch": 50, "duration": 38, "velocity": 69}, {"time": 1343, "pitch": 55, "duration": 8, "velocity": 93}, {"time": 1352, "pitch": 58, "duration": 3, "velocity": 83}, {"time": 1355, "pitch": 43, "duration": 6, "velocity": 78}, {"time": 1355, "pitch": 55, "duration": 4, "velocity": 103}, {"time": 1355, "pitch": 62, "duration": 8, "velocity": 87}, {"time": 1361, "pitch": 43, "duration": 6, "velocity": 78}, {"time": 1361, "pitch": 55, "duration": 3, "velocity": 93}, {"time": 1367, "pitch": 55, "duration": 2, "velocity": 80}, {"time": 1367, "pitch": 58, "duration": 4, "velocity": 93}, {"time": 1367, "pitch": 62, "duration": 10, "velocity": 93}, {"time": 1373, "pitch": 55, "duration": 4, "velocity": 102}, {"time": 1379, "pitch": 48, "duration": 6, "velocity": 74}, {"time": 1379, "pitch": 55, "duration": 3, "velocity": 102}, {"time": 1379, "pitch": 60, "duration": 8, "velocity": 93}, {"time": 1385, "pitch": 48, "duration": 6, "velocity": 78}, {"time": 1385, "pitch": 55, "duration": 3, "velocity": 83}, {"time": 1391, "pitch": 55, "duration": 2, "velocity": 93}, {"time": 1391, "pitch": 64, "duration": 9, "velocity": 102}, {"time": 1400, "pitch": 55, "duration": 4, "velocity": 74}, {"time": 1403, "pitch": 48, "duration": 3, "velocity": 78}, {"time": 1403, "pitch": 55, "duration": 1, "velocity": 102}, {"time": 1403, "pitch": 60, "duration": 9, "velocity": 102}, {"time": 1409, "pitch": 48, "duration": 6, "velocity": 78}, {"time": 1409, "pitch": 55, "duration": 5, "velocity": 71}, {"time": 1415, "pitch": 64, "duration": 8, "velocity": 105}, {"time": 1421, "pitch": 55, "duration": 5, "velocity": 103}, {"time": 1427, "pitch": 46, "duration": 3, "velocity": 74}, {"time": 1427, "pitch": 62, "duration": 13, "velocity": 87}, {"time": 1433, "pitch": 46, "duration": 6, "velocity": 78}, {"time": 1433, "pitch": 53, "duration": 10, "velocity": 72}, {"time": 1439, "pitch": 58, "duration": 9, "velocity": 87}, {"time": 1448, "pitch": 53, "duration": 16, "velocity": 70}, {"time": 1451, "pitch": 46, "duration": 6, "velocity": 60}, {"time": 1451, "pitch": 58, "duration": 3, "velocity": 90}, {"time": 1451, "pitch": 65, "duration": 9, "velocity": 93}, {"time": 1457, "pitch": 46, "duration": 6, "velocity": 78}, {"time": 1457, "pitch": 58, "duration": 3, "velocity": 87}, {"time": 1463, "pitch": 58, "duration": 3, "velocity": 93}, {"time": 1463, "pitch": 62, "duration": 5, "velocity": 93}, {"time": 1475, "pitch": 41, "duration": 6, "velocity": 83}, {"time": 1475, "pitch": 57, "duration": 9, "velocity": 80}, {"time": 1475, "pitch": 60, "duration": 14, "velocity": 72}, {"time": 1481, "pitch": 41, "duration": 12, "velocity": 78}, {"time": 1487, "pitch": 57, "duration": 7, "velocity": 102}, {"time": 1493, "pitch": 60, "duration": 4, "velocity": 102}, {"time": 1496, "pitch": 48, "duration": 18, "velocity": 59}, {"time": 1499, "pitch": 41, "duration": 3, "velocity": 78}, {"time": 1499, "pitch": 57, "duration": 3, "velocity": 87}, {"time": 1499, "pitch": 65, "duration": 11, "velocity": 87}, {"time": 1505, "pitch": 41, "duration": 12, "velocity": 78}, {"time": 1505, "pitch": 57, "duration": 5, "velocity": 72}, {"time": 1511, "pitch": 60, "duration": 5, "velocity": 105}, {"time": 1517, "pitch": 57, "duration": 2, "velocity": 95}, {"time": 1523, "pitch": 43, "duration": 3, "velocity": 90}, {"time": 1523, "pitch": 55, "duration": 11, "velocity": 80}, {"time": 1523, "pitch": 62, "duration": 13, "velocity": 80}, {"time": 1529, "pitch": 43, "duration": 9, "velocity": 78}, {"time": 1535, "pitch": 58, "duration": 6, "velocity": 85}, {"time": 1541, "pitch": 55, "duration": 3, "velocity": 102}, {"time": 1544, "pitch": 50, "duration": 22, "velocity": 72}, {"time": 1547, "pitch": 43, "duration": 6, "velocity": 78}, {"time": 1547, "pitch": 55, "duration": 3, "velocity": 95}, {"time": 1547, "pitch": 62, "duration": 7, "velocity": 93}, {"time": 1553, "pitch": 43, "duration": 15, "velocity": 78}, {"time": 1553, "pitch": 55, "duration": 4, "velocity": 74}, {"time": 1559, "pitch": 58, "duration": 6, "velocity": 85}, {"time": 1559, "pitch": 62, "duration": 7, "velocity": 93}, {"time": 1565, "pitch": 55, "duration": 3, "velocity": 93}, {"time": 1571, "pitch": 41, "duration": 6, "velocity": 87}, {"time": 1571, "pitch": 57, "duration": 12, "velocity": 83}, {"time": 1577, "pitch": 41, "duration": 3, "velocity": 78}, {"time": 1583, "pitch": 53, "duration": 8, "velocity": 87}, {"time": 1583, "pitch": 60, "duration": 3, "velocity": 93}, {"time": 1589, "pitch": 57, "duration": 4, "velocity": 103}, {"time": 1592, "pitch": 48, "duration": 25, "velocity": 66}, {"time": 1595, "pitch": 41, "duration": 6, "velocity": 78}, {"time": 1595, "pitch": 57, "duration": 1, "velocity": 49}, {"time": 1595, "pitch": 65, "duration": 7, "velocity": 95}, {"time": 1601, "pitch": 41, "duration": 15, "velocity": 78}, {"time": 1601, "pitch": 57, "duration": 3, "velocity": 87}, {"time": 1607, "pitch": 57, "duration": 3, "velocity": 93}, {"time": 1607, "pitch": 60, "duration": 7, "velocity": 102}, {"time": 1613, "pitch": 57, "duration": 5, "velocity": 85}, {"time": 1619, "pitch": 41, "duration": 6, "velocity": 87}, {"time": 1619, "pitch": 57, "duration": 9, "velocity": 80}, {"time": 1619, "pitch": 60, "duration": 10, "velocity": 83}, {"time": 1619, "pitch": 65, "duration": 9, "velocity": 80}, {"time": 1625, "pitch": 41, "duration": 12, "velocity": 78}, {"time": 1625, "pitch": 48, "duration": 36, "velocity": 59}, {"time": 1631, "pitch": 57, "duration": 3, "velocity": 93}, {"time": 1631, "pitch": 60, "duration": 8, "velocity": 93}, {"time": 1637, "pitch": 57, "duration": 3, "velocity": 74}, {"time": 1643, "pitch": 41, "duration": 6, "velocity": 78}, {"time": 1643, "pitch": 57, "duration": 2, "velocity": 87}, {"time": 1643, "pitch": 65, "duration": 4, "velocity": 87}, {"time": 1649, "pitch": 41, "duration": 15, "velocity": 78}, {"time": 1649, "pitch": 57, "duration": 3, "velocity": 85}, {"time": 1655, "pitch": 57, "duration": 2, "velocity": 90}, {"time": 1655, "pitch": 60, "duration": 5, "velocity": 93}, {"time": 1661, "pitch": 57, "duration": 2, "velocity": 80}, {"time": 1667, "pitch": 43, "duration": 6, "velocity": 90}, {"time": 1667, "pitch": 55, "duration": 9, "velocity": 83}, {"time": 1667, "pitch": 62, "duration": 8, "velocity": 85}, {"time": 1673, "pitch": 43, "duration": 6, "velocity": 78}, {"time": 1673, "pitch": 50, "duration": 10, "velocity": 69}, {"time": 1679, "pitch": 55, "duration": 7, "velocity": 93}, {"time": 1679, "pitch": 58, "duration": 8, "velocity": 93}, {"time": 1688, "pitch": 50, "duration": 6, "velocity": 72}, {"time": 1691, "pitch": 43, "duration": 6, "velocity": 78}, {"time": 1691, "pitch": 55, "duration": 8, "velocity": 90}, {"time": 1691, "pitch": 62, "duration": 7, "velocity": 93}, {"time": 1697, "pitch": 43, "duration": 15, "velocity": 78}, {"time": 1697, "pitch": 50, "duration": 16, "velocity": 67}, {"time": 1703, "pitch": 55, "duration": 3, "velocity": 85}, {"time": 1703, "pitch": 58, "duration": 6, "velocity": 93}, {"time": 1709, "pitch": 55, "duration": 4, "velocity": 93}, {"time": 1715, "pitch": 48, "duration": 6, "velocity": 68}, {"time": 1715, "pitch": 55, "duration": 3, "velocity": 93}, {"time": 1715, "pitch": 60, "duration": 7, "velocity": 87}, {"time": 1721, "pitch": 48, "duration": 12, "velocity": 78}, {"time": 1721, "pitch": 55, "duration": 7, "velocity": 80}, {"time": 1727, "pitch": 64, "duration": 8, "velocity": 105}, {"time": 1736, "pitch": 55, "duration": 5, "velocity": 103}, {"time": 1739, "pitch": 48, "duration": 3, "velocity": 66}, {"time": 1739, "pitch": 60, "duration": 7, "velocity": 93}, {"time": 1745, "pitch": 48, "duration": 9, "velocity": 78}, {"time": 1745, "pitch": 55, "duration": 5, "velocity": 103}, {"time": 1751, "pitch": 55, "duration": 1, "velocity": 64}, {"time": 1751, "pitch": 60, "duration": 6, "velocity": 103}, {"time": 1751, "pitch": 64, "duration": 7, "velocity": 105}, {"time": 1757, "pitch": 55, "duration": 3, "velocity": 95}, {"time": 1763, "pitch": 41, "duration": 6, "velocity": 87}, {"time": 1763, "pitch": 57, "duration": 4, "velocity": 87}, {"time": 1763, "pitch": 60, "duration": 8, "velocity": 93}, {"time": 1769, "pitch": 41, "duration": 12, "velocity": 78}, {"time": 1769, "pitch": 57, "duration": 7, "velocity": 83}, {"time": 1775, "pitch": 60, "duration": 14, "velocity": 93}, {"time": 1781, "pitch": 57, "duration": 7, "velocity": 93}, {"time": 1784, "pitch": 48, "duration": 18, "velocity": 59}, {"time": 1787, "pitch": 41, "duration": 6, "velocity": 78}, {"time": 1787, "pitch": 65, "duration": 7, "velocity": 95}, {"time": 1793, "pitch": 41, "duration": 6, "velocity": 78}, {"time": 1793, "pitch": 57, "duration": 4, "velocity": 85}, {"time": 1799, "pitch": 57, "duration": 2, "velocity": 70}, {"time": 1799, "pitch": 60, "duration": 8, "velocity": 103}, {"time": 1805, "pitch": 57, "duration": 5, "velocity": 90}, {"time": 1811, "pitch": 41, "duration": 6, "velocity": 74}, {"time": 1811, "pitch": 57, "duration": 7, "velocity": 87}, {"time": 1817, "pitch": 41, "duration": 15, "velocity": 78}, {"time": 1823, "pitch": 60, "duration": 10, "velocity": 80}, {"time": 1823, "pitch": 65, "duration": 8, "velocity": 87}, {"time": 1829, "pitch": 57, "duration": 4, "velocity": 95}, {"time": 1832, "pitch": 48, "duration": 19, "velocity": 56}, {"time": 1835, "pitch": 41, "duration": 6, "velocity": 74}, {"time": 1835, "pitch": 57, "duration": 3, "velocity": 74}, {"time": 1835, "pitch": 60, "duration": 7, "velocity": 102}, {"time": 1841, "pitch": 41, "duration": 15, "velocity": 78}, {"time": 1841, "pitch": 57, "duration": 4, "velocity": 80}, {"time": 1847, "pitch": 57, "duration": 3, "velocity": 83}, {"time": 1847, "pitch": 60, "duration": 6, "velocity": 87}, {"time": 1847, "pitch": 65, "duration": 9, "velocity": 87}, {"time": 1853, "pitch": 57, "duration": 3, "velocity": 80}, {"time": 1859, "pitch": 43, "duration": 6, "velocity": 87}, {"time": 1859, "pitch": 62, "duration": 14, "velocity": 74}, {"time": 1865, "pitch": 43, "duration": 12, "velocity": 78}, {"time": 1871, "pitch": 58, "duration": 6, "velocity": 74}, {"time": 1877, "pitch": 55, "duration": 3, "velocity": 93}, {"time": 1880, "pitch": 50, "duration": 25, "velocity": 74}, {"time": 1883, "pitch": 43, "duration": 6, "velocity": 87}, {"time": 1883, "pitch": 55, "duration": 2, "velocity": 103}, {"time": 1883, "pitch": 62, "duration": 8, "velocity": 87}, {"time": 1889, "pitch": 43, "duration": 12, "velocity": 78}, {"time": 1889, "pitch": 55, "duration": 7, "velocity": 83}, {"time": 1895, "pitch": 58, "duration": 7, "velocity": 71}, {"time": 1895, "pitch": 62, "duration": 2, "velocity": 74}, {"time": 1901, "pitch": 55, "duration": 3, "velocity": 102}, {"time": 1907, "pitch": 48, "duration": 3, "velocity": 80}, {"time": 1907, "pitch": 55, "duration": 3, "velocity": 93}, {"time": 1907, "pitch": 60, "duration": 8, "velocity": 87}, {"time": 1913, "pitch": 48, "duration": 12, "velocity": 78}, {"time": 1913, "pitch": 55, "duration": 7, "velocity": 80}, {"time": 1919, "pitch": 64, "duration": 8, "velocity": 110}, {"time": 1928, "pitch": 55, "duration": 5, "velocity": 95}, {"time": 1931, "pitch": 48, "duration": 3, "velocity": 78}, {"time": 1931, "pitch": 60, "duration": 7, "velocity": 102}, {"time": 1937, "pitch": 48, "duration": 3, "velocity": 78}, {"time": 1937, "pitch": 55, "duration": 7, "velocity": 87}, {"time": 1943, "pitch": 48, "duration": 2, "velocity": 83}, {"time": 1943, "pitch": 60, "duration": 7, "velocity": 93}, {"time": 1943, "pitch": 64, "duration": 7, "velocity": 93}, {"time": 1949, "pitch": 55, "duration": 3, "velocity": 103}, {"time": 1955, "pitch": 41, "duration": 3, "velocity": 83}, {"time": 1955, "pitch": 53, "duration": 11, "velocity": 80}, {"time": 1955, "pitch": 57, "duration": 13, "velocity": 83}, {"time": 1961, "pitch": 41, "duration": 15, "velocity": 78}, {"time": 1967, "pitch": 60, "duration": 8, "velocity": 87}, {"time": 1973, "pitch": 53, "duration": 7, "velocity": 95}, {"time": 1976, "pitch": 48, "duration": 25, "velocity": 69}, {"time": 1979, "pitch": 41, "duration": 3, "velocity": 78}, {"time": 1979, "pitch": 60, "duration": 1, "velocity": 34}, {"time": 1979, "pitch": 65, "duration": 9, "velocity": 102}, {"time": 1985, "pitch": 41, "duration": 12, "velocity": 78}, {"time": 1985, "pitch": 53, "duration": 7, "velocity": 102}, {"time": 1991, "pitch": 57, "duration": 7, "velocity": 93}, {"time": 1997, "pitch": 53, "duration": 8, "velocity": 90}, {"time": 2003, "pitch": 41, "duration": 3, "velocity": 78}, {"time": 2003, "pitch": 57, "duration": 11, "velocity": 93}, {"time": 2003, "pitch": 60, "duration": 13, "velocity": 90}, {"time": 2009, "pitch": 41, "duration": 9, "velocity": 78}, {"time": 2015, "pitch": 53, "duration": 10, "velocity": 95}, {"time": 2021, "pitch": 57, "duration": 4, "velocity": 87}, {"time": 2024, "pitch": 48, "duration": 27, "velocity": 64}, {"time": 2027, "pitch": 41, "duration": 3, "velocity": 78}, {"time": 2027, "pitch": 65, "duration": 11, "velocity": 95}, {"time": 2033, "pitch": 41, "duration": 18, "velocity": 78}, {"time": 2039, "pitch": 53, "duration": 4, "velocity": 95}, {"time": 2039, "pitch": 60, "duration": 9, "velocity": 72}, {"time": 2045, "pitch": 53, "duration": 4, "velocity": 93}, {"time": 2051, "pitch": 50, "duration": 5, "velocity": 85}, {"time": 2051, "pitch": 57, "duration": 4, "velocity": 68}, {"time": 2051, "pitch": 62, "duration": 7, "velocity": 71}, {"time": 2057, "pitch": 50, "duration": 10, "velocity": 78}, {"time": 2063, "pitch": 57, "duration": 7, "velocity": 80}, {"time": 2063, "pitch": 62, "duration": 4, "velocity": 87}, {"time": 2075, "pitch": 50, "duration": 3, "velocity": 78}, {"time": 2075, "pitch": 65, "duration": 8, "velocity": 102}, {"time": 2081, "pitch": 50, "duration": 15, "velocity": 78}, {"time": 2087, "pitch": 57, "duration": 4, "velocity": 80}, {"time": 2087, "pitch": 62, "duration": 7, "velocity": 103}, {"time": 2099, "pitch": 50, "duration": 6, "velocity": 80}, {"time": 2099, "pitch": 57, "duration": 4, "velocity": 74}, {"time": 2099, "pitch": 65, "duration": 10, "velocity": 80}, {"time": 2105, "pitch": 50, "duration": 6, "velocity": 74}, {"time": 2111, "pitch": 57, "duration": 6, "velocity": 78}, {"time": 2111, "pitch": 62, "duration": 7, "velocity": 95}, {"time": 2120, "pitch": 57, "duration": 8, "velocity": 93}, {"time": 2123, "pitch": 50, "duration": 3, "velocity": 78}, {"time": 2123, "pitch": 65, "duration": 10, "velocity": 103}, {"time": 2129, "pitch": 50, "duration": 6, "velocity": 78}, {"time": 2129, "pitch": 57, "duration": 4, "velocity": 93}, {"time": 2135, "pitch": 50, "duration": 3, "velocity": 85}, {"time": 2135, "pitch": 57, "duration": 2, "velocity": 93}, {"time": 2135, "pitch": 62, "duration": 6, "velocity": 87}, {"time": 2141, "pitch": 57, "duration": 3, "velocity": 83}, {"time": 2147, "pitch": 46, "duration": 6, "velocity": 68}, {"time": 2147, "pitch": 58, "duration": 4, "velocity": 64}, {"time": 2147, "pitch": 62, "duration": 7, "velocity": 80}, {"time": 2153, "pitch": 46, "duration": 6, "velocity": 78}, {"time": 2159, "pitch": 58, "duration": 5, "velocity": 72}, {"time": 2159, "pitch": 62, "duration": 11, "velocity": 72}, {"time": 2168, "pitch": 58, "duration": 5, "velocity": 93}, {"time": 2171, "pitch": 46, "duration": 6, "velocity": 78}, {"time": 2171, "pitch": 62, "duration": 8, "velocity": 83}, {"time": 2171, "pitch": 65, "duration": 8, "velocity": 90}, {"time": 2177, "pitch": 46, "duration": 6, "velocity": 78}, {"time": 2183, "pitch": 58, "duration": 4, "velocity": 95}, {"time": 2183, "pitch": 62, "duration": 7, "velocity": 93}, {"time": 2189, "pitch": 58, "duration": 3, "velocity": 61}, {"time": 2195, "pitch": 41, "duration": 3, "velocity": 83}, {"time": 2195, "pitch": 53, "duration": 8, "velocity": 66}, {"time": 2195, "pitch": 57, "duration": 9, "velocity": 80}, {"time": 2201, "pitch": 41, "duration": 6, "velocity": 78}, {"time": 2201, "pitch": 48, "duration": 10, "velocity": 68}, {"time": 2207, "pitch": 53, "duration": 4, "velocity": 93}, {"time": 2207, "pitch": 60, "duration": 6, "velocity": 80}, {"time": 2216, "pitch": 53, "duration": 3, "velocity": 78}, {"time": 2219, "pitch": 48, "duration": 6, "velocity": 70}, {"time": 2219, "pitch": 65, "duration": 8, "velocity": 95}, {"time": 2225, "pitch": 48, "duration": 9, "velocity": 78}, {"time": 2225, "pitch": 53, "duration": 4, "velocity": 102}, {"time": 2231, "pitch": 53, "duration": 2, "velocity": 87}, {"time": 2231, "pitch": 57, "duration": 6, "velocity": 102}, {"time": 2231, "pitch": 60, "duration": 7, "velocity": 87}, {"time": 2237, "pitch": 53, "duration": 3, "velocity": 105}, {"time": 2243, "pitch": 43, "duration": 6, "velocity": 90}, {"time": 2243, "pitch": 55, "duration": 9, "velocity": 80}, {"time": 2249, "pitch": 43, "duration": 6, "velocity": 78}, {"time": 2255, "pitch": 50, "duration": 9, "velocity": 80}, {"time": 2255, "pitch": 62, "duration": 10, "velocity": 87}, {"time": 2264, "pitch": 50, "duration": 6, "velocity": 71}, {"time": 2267, "pitch": 43, "duration": 3, "velocity": 78}, {"time": 2267, "pitch": 55, "duration": 6, "velocity": 85}, {"time": 2267, "pitch": 62, "duration": 12, "velocity": 93}, {"time": 2273, "pitch": 43, "duration": 6, "velocity": 78}, {"time": 2273, "pitch": 50, "duration": 9, "velocity": 74}, {"time": 2279, "pitch": 55, "duration": 7, "velocity": 105}, {"time": 2285, "pitch": 62, "duration": 3, "velocity": 87}, {"time": 2291, "pitch": 45, "duration": 3, "velocity": 87}, {"time": 2291, "pitch": 57, "duration": 8, "velocity": 83}, {"time": 2291, "pitch": 64, "duration": 13, "velocity": 87}, {"time": 2297, "pitch": 45, "duration": 6, "velocity": 78}, {"time": 2303, "pitch": 52, "duration": 5, "velocity": 71}, {"time": 2303, "pitch": 57, "duration": 6, "velocity": 105}, {"time": 2312, "pitch": 52, "duration": 6, "velocity": 74}, {"time": 2315, "pitch": 45, "duration": 3, "velocity": 78}, {"time": 2315, "pitch": 60, "duration": 7, "velocity": 93}, {"time": 2321, "pitch": 45, "duration": 6, "velocity": 78}, {"time": 2321, "pitch": 57, "duration": 4, "velocity": 69}, {"time": 2327, "pitch": 57, "duration": 3, "velocity": 102}, {"time": 2327, "pitch": 64, "duration": 7, "velocity": 102}, {"time": 2333, "pitch": 57, "duration": 4, "velocity": 93}, {"time": 2339, "pitch": 46, "duration": 6, "velocity": 71}, {"time": 2339, "pitch": 58, "duration": 7, "velocity": 70}, {"time": 2339, "pitch": 62, "duration": 13, "velocity": 87}, {"time": 2345, "pitch": 46, "duration": 6, "velocity": 78}, {"time": 2351, "pitch": 53, "duration": 9, "velocity": 70}, {"time": 2351, "pitch": 58, "duration": 13, "velocity": 93}, {"time": 2360, "pitch": 53, "duration": 17, "velocity": 87}, {"time": 2363, "pitch": 46, "duration": 6, "velocity": 78}, {"time": 2363, "pitch": 65, "duration": 8, "velocity": 102}, {"time": 2369, "pitch": 46, "duration": 6, "velocity": 78}, {"time": 2369, "pitch": 58, "duration": 4, "velocity": 87}, {"time": 2375, "pitch": 58, "duration": 1, "velocity": 60}, {"time": 2375, "pitch": 62, "duration": 6, "velocity": 87}, {"time": 2381, "pitch": 58, "duration": 3, "velocity": 69}, {"time": 2387, "pitch": 38, "duration": 6, "velocity": 90}, {"time": 2387, "pitch": 57, "duration": 9, "velocity": 70}, {"time": 2387, "pitch": 62, "duration": 12, "velocity": 74}, {"time": 2393, "pitch": 38, "duration": 9, "velocity": 78}, {"time": 2399, "pitch": 45, "duration": 9, "velocity": 93}, {"time": 2399, "pitch": 62, "duration": 7, "velocity": 80}, {"time": 2408, "pitch": 57, "duration": 4, "velocity": 93}, {"time": 2411, "pitch": 38, "duration": 3, "velocity": 78}, {"time": 2411, "pitch": 65, "duration": 7, "velocity": 95}, {"time": 2417, "pitch": 38, "duration": 15, "velocity": 78}, {"time": 2417, "pitch": 57, "duration": 4, "velocity": 93}, {"time": 2423, "pitch": 57, "duration": 8, "velocity": 80}, {"time": 2423, "pitch": 62, "duration": 9, "velocity": 83}, {"time": 2435, "pitch": 50, "duration": 5, "velocity": 85}, {"time": 2435, "pitch": 57, "duration": 4, "velocity": 68}, {"time": 2435, "pitch": 62, "duration": 7, "velocity": 71}, {"time": 2441, "pitch": 50, "duration": 10, "velocity": 78}, {"time": 2447, "pitch": 57, "duration": 7, "velocity": 80}, {"time": 2447, "pitch": 62, "duration": 4, "velocity": 87}, {"time": 2459, "pitch": 50, "duration": 3, "velocity": 78}, {"time": 2459, "pitch": 65, "duration": 8, "velocity": 102}, {"time": 2465, "pitch": 50, "duration": 15, "velocity": 78}, {"time": 2471, "pitch": 57, "duration": 4, "velocity": 80}, {"time": 2471, "pitch": 62, "duration": 7, "velocity": 103}, {"time": 2483, "pitch": 50, "duration": 6, "velocity": 80}, {"time": 2483, "pitch": 57, "duration": 4, "velocity": 74}, {"time": 2483, "pitch": 65, "duration": 10, "velocity": 80}, {"time": 2489, "pitch": 50, "duration": 6, "velocity": 74}, {"time": 2495, "pitch": 57, "duration": 6, "velocity": 78}, {"time": 2495, "pitch": 62, "duration": 7, "velocity": 95}, {"time": 2504, "pitch": 57, "duration": 8, "velocity": 93}, {"time": 2507, "pitch": 50, "duration": 3, "velocity": 78}, {"time": 2507, "pitch": 65, "duration": 10, "velocity": 103}, {"time": 2513, "pitch": 50, "duration": 6, "velocity": 78}, {"time": 2513, "pitch": 57, "duration": 4, "velocity": 93}, {"time": 2519, "pitch": 50, "duration": 3, "velocity": 85}, {"time": 2519, "pitch": 57, "duration": 2, "velocity": 93}, {"time": 2519, "pitch": 62, "duration": 6, "velocity": 87}, {"time": 2525, "pitch": 57, "duration": 3, "velocity": 83}, {"time": 2531, "pitch": 46, "duration": 6, "velocity": 68}, {"time": 2531, "pitch": 58, "duration": 4, "velocity": 64}, {"time": 2531, "pitch": 62, "duration": 7, "velocity": 80}, {"time": 2537, "pitch": 46, "duration": 6, "velocity": 78}, {"time": 2543, "pitch": 58, "duration": 5, "velocity": 72}, {"time": 2543, "pitch": 62, "duration": 11, "velocity": 72}, {"time": 2552, "pitch": 58, "duration": 5, "velocity": 93}, {"time": 2555, "pitch": 46, "duration": 6, "velocity": 78}, {"time": 2555, "pitch": 62, "duration": 8, "velocity": 83}, {"time": 2555, "pitch": 65, "duration": 8, "velocity": 90}, {"time": 2561, "pitch": 46, "duration": 6, "velocity": 78}, {"time": 2567, "pitch": 58, "duration": 4, "velocity": 95}, {"time": 2567, "pitch": 62, "duration": 7, "velocity": 93}, {"time": 2573, "pitch": 58, "duration": 3, "velocity": 61}, {"time": 2579, "pitch": 41, "duration": 3, "velocity": 83}, {"time": 2579, "pitch": 53, "duration": 8, "velocity": 66}, {"time": 2579, "pitch": 57, "duration": 9, "velocity": 80}, {"time": 2585, "pitch": 41, "duration": 6, "velocity": 78}, {"time": 2585, "pitch": 48, "duration": 10, "velocity": 68}, {"time": 2591, "pitch": 53, "duration": 4, "velocity": 93}, {"time": 2591, "pitch": 60, "duration": 6, "velocity": 80}, {"time": 2600, "pitch": 53, "duration": 3, "velocity": 78}, {"time": 2603, "pitch": 48, "duration": 6, "velocity": 70}, {"time": 2603, "pitch": 65, "duration": 8, "velocity": 95}, {"time": 2609, "pitch": 48, "duration": 9, "velocity": 78}, {"time": 2609, "pitch": 53, "duration": 4, "velocity": 102}, {"time": 2615, "pitch": 53, "duration": 2, "velocity": 87}, {"time": 2615, "pitch": 57, "duration": 6, "velocity": 102}, {"time": 2615, "pitch": 60, "duration": 7, "velocity": 87}, {"time": 2621, "pitch": 53, "duration": 3, "velocity": 105}, {"time": 2627, "pitch": 43, "duration": 6, "velocity": 90}, {"time": 2627, "pitch": 55, "duration": 9, "velocity": 80}, {"time": 2633, "pitch": 43, "duration": 6, "velocity": 78}, {"time": 2639, "pitch": 50, "duration": 9, "velocity": 80}, {"time": 2639, "pitch": 62, "duration": 10, "velocity": 87}, {"time": 2648, "pitch": 50, "duration": 6, "velocity": 71}, {"time": 2651, "pitch": 43, "duration": 3, "velocity": 78}, {"time": 2651, "pitch": 55, "duration": 6, "velocity": 85}, {"time": 2651, "pitch": 62, "duration": 12, "velocity": 93}, {"time": 2657, "pitch": 43, "duration": 6, "velocity": 78}, {"time": 2657, "pitch": 50, "duration": 9, "velocity": 74}, {"time": 2663, "pitch": 55, "duration": 7, "velocity": 105}, {"time": 2669, "pitch": 62, "duration": 3, "velocity": 87}, {"time": 2675, "pitch": 45, "duration": 3, "velocity": 87}, {"time": 2675, "pitch": 57, "duration": 8, "velocity": 83}, {"time": 2675, "pitch": 64, "duration": 13, "velocity": 87}, {"time": 2681, "pitch": 45, "duration": 6, "velocity": 78}, {"time": 2687, "pitch": 52, "duration": 5, "velocity": 71}, {"time": 2687, "pitch": 57, "duration": 6, "velocity": 105}, {"time": 2696, "pitch": 52, "duration": 6, "velocity": 74}, {"time": 2699, "pitch": 45, "duration": 3, "velocity": 78}, {"time": 2699, "pitch": 60, "duration": 7, "velocity": 93}, {"time": 2705, "pitch": 45, "duration": 6, "velocity": 78}, {"time": 2705, "pitch": 57, "duration": 4, "velocity": 69}, {"time": 2711, "pitch": 57, "duration": 3, "velocity": 102}, {"time": 2711, "pitch": 64, "duration": 7, "velocity": 102}, {"time": 2717, "pitch": 57, "duration": 4, "velocity": 93}, {"time": 2723, "pitch": 46, "duration": 6, "velocity": 71}, {"time": 2723, "pitch": 58, "duration": 7, "velocity": 70}, {"time": 2723, "pitch": 62, "duration": 13, "velocity": 87}, {"time": 2729, "pitch": 46, "duration": 6, "velocity": 78}, {"time": 2735, "pitch": 53, "duration": 9, "velocity": 70}, {"time": 2735, "pitch": 58, "duration": 13, "velocity": 93}, {"time": 2744, "pitch": 53, "duration": 17, "velocity": 87}, {"time": 2747, "pitch": 46, "duration": 6, "velocity": 78}, {"time": 2747, "pitch": 65, "duration": 8, "velocity": 102}, {"time": 2753, "pitch": 46, "duration": 6, "velocity": 78}, {"time": 2753, "pitch": 58, "duration": 4, "velocity": 87}, {"time": 2759, "pitch": 58, "duration": 1, "velocity": 60}, {"time": 2759, "pitch": 62, "duration": 6, "velocity": 87}, {"time": 2765, "pitch": 58, "duration": 3, "velocity": 69}, {"time": 2771, "pitch": 38, "duration": 6, "velocity": 90}, {"time": 2771, "pitch": 57, "duration": 9, "velocity": 70}, {"time": 2771, "pitch": 62, "duration": 12, "velocity": 74}, {"time": 2777, "pitch": 38, "duration": 9, "velocity": 78}, {"time": 2783, "pitch": 45, "duration": 9, "velocity": 93}, {"time": 2783, "pitch": 62, "duration": 7, "velocity": 80}, {"time": 2792, "pitch": 57, "duration": 4, "velocity": 93}, {"time": 2795, "pitch": 38, "duration": 3, "velocity": 78}, {"time": 2795, "pitch": 65, "duration": 7, "velocity": 95}, {"time": 2801, "pitch": 38, "duration": 15, "velocity": 78}, {"time": 2801, "pitch": 57, "duration": 4, "velocity": 93}, {"time": 2807, "pitch": 57, "duration": 8, "velocity": 80}, {"time": 2807, "pitch": 62, "duration": 9, "velocity": 83}, {"time": 2819, "pitch": 48, "duration": 3, "velocity": 93}, {"time": 2819, "pitch": 60, "duration": 8, "velocity": 80}, {"time": 2819, "pitch": 67, "duration": 9, "velocity": 80}, {"time": 2825, "pitch": 48, "duration": 3, "velocity": 78}, {"time": 2831, "pitch": 55, "duration": 4, "velocity": 68}, {"time": 2831, "pitch": 60, "duration": 7, "velocity": 87}, {"time": 2831, "pitch": 64, "duration": 8, "velocity": 93}, {"time": 2840, "pitch": 55, "duration": 6, "velocity": 65}, {"time": 2843, "pitch": 48, "duration": 3, "velocity": 78}, {"time": 2843, "pitch": 60, "duration": 9, "velocity": 93}, {"time": 2843, "pitch": 67, "duration": 9, "velocity": 83}, {"time": 2849, "pitch": 48, "duration": 6, "velocity": 78}, {"time": 2849, "pitch": 55, "duration": 8, "velocity": 60}, {"time": 2855, "pitch": 60, "duration": 2, "velocity": 87}, {"time": 2855, "pitch": 64, "duration": 5, "velocity": 102}, {"time": 2861, "pitch": 60, "duration": 2, "velocity": 87}, {"time": 2867, "pitch": 46, "duration": 6, "velocity": 85}, {"time": 2867, "pitch": 58, "duration": 8, "velocity": 59}, {"time": 2867, "pitch": 62, "duration": 14, "velocity": 67}, {"time": 2873, "pitch": 46, "duration": 6, "velocity": 78}, {"time": 2879, "pitch": 53, "duration": 4, "velocity": 69}, {"time": 2879, "pitch": 58, "duration": 9, "velocity": 95}, {"time": 2888, "pitch": 53, "duration": 6, "velocity": 71}, {"time": 2891, "pitch": 46, "duration": 6, "velocity": 78}, {"time": 2891, "pitch": 58, "duration": 9, "velocity": 72}, {"time": 2891, "pitch": 65, "duration": 9, "velocity": 93}, {"time": 2897, "pitch": 46, "duration": 12, "velocity": 78}, {"time": 2897, "pitch": 53, "duration": 7, "velocity": 64}, {"time": 2903, "pitch": 58, "duration": 2, "velocity": 87}, {"time": 2903, "pitch": 65, "duration": 4, "velocity": 93}, {"time": 2915, "pitch": 41, "duration": 3, "velocity": 83}, {"time": 2915, "pitch": 57, "duration": 4, "velocity": 80}, {"time": 2915, "pitch": 60, "duration": 9, "velocity": 80}, {"time": 2921, "pitch": 41, "duration": 6, "velocity": 78}, {"time": 2921, "pitch": 57, "duration": 8, "velocity": 71}, {"time": 2927, "pitch": 60, "duration": 7, "velocity": 93}, {"time": 2927, "pitch": 65, "duration": 6, "velocity": 87}, {"time": 2936, "pitch": 57, "duration": 4, "velocity": 64}, {"time": 2939, "pitch": 41, "duration": 3, "velocity": 78}, {"time": 2939, "pitch": 57, "duration": 1, "velocity": 90}, {"time": 2939, "pitch": 60, "duration": 7, "velocity": 93}, {"time": 2945, "pitch": 41, "duration": 15, "velocity": 78}, {"time": 2945, "pitch": 57, "duration": 5, "velocity": 72}, {"time": 2951, "pitch": 60, "duration": 6, "velocity": 80}, {"time": 2957, "pitch": 57, "duration": 4, "velocity": 90}, {"time": 2963, "pitch": 43, "duration": 6, "velocity": 87}, {"time": 2963, "pitch": 58, "duration": 13, "velocity": 90}, {"time": 2969, "pitch": 43, "duration": 6, "velocity": 78}, {"time": 2969, "pitch": 50, "duration": 38, "velocity": 69}, {"time": 2975, "pitch": 55, "duration": 8, "velocity": 93}, {"time": 2984, "pitch": 58, "duration": 3, "velocity": 83}, {"time": 2987, "pitch": 43, "duration": 6, "velocity": 78}, {"time": 2987, "pitch": 55, "duration": 4, "velocity": 103}, {"time": 2987, "pitch": 62, "duration": 8, "velocity": 87}, {"time": 2993, "pitch": 43, "duration": 6, "velocity": 78}, {"time": 2993, "pitch": 55, "duration": 3, "velocity": 93}, {"time": 2999, "pitch": 55, "duration": 2, "velocity": 80}, {"time": 2999, "pitch": 58, "duration": 4, "velocity": 93}, {"time": 2999, "pitch": 62, "duration": 10, "velocity": 93}, {"time": 3005, "pitch": 55, "duration": 4, "velocity": 102}, {"time": 3011, "pitch": 48, "duration": 6, "velocity": 74}, {"time": 3011, "pitch": 55, "duration": 3, "velocity": 102}, {"time": 3011, "pitch": 60, "duration": 8, "velocity": 93}, {"time": 3017, "pitch": 48, "duration": 6, "velocity": 78}, {"time": 3017, "pitch": 55, "duration": 3, "velocity": 83}, {"time": 3023, "pitch": 55, "duration": 2, "velocity": 93}, {"time": 3023, "pitch": 64, "duration": 9, "velocity": 102}, {"time": 3032, "pitch": 55, "duration": 4, "velocity": 74}, {"time": 3035, "pitch": 48, "duration": 3, "velocity": 78}, {"time": 3035, "pitch": 55, "duration": 1, "velocity": 102}, {"time": 3035, "pitch": 60, "duration": 9, "velocity": 102}, {"time": 3041, "pitch": 48, "duration": 6, "velocity": 78}, {"time": 3041, "pitch": 55, "duration": 5, "velocity": 71}, {"time": 3047, "pitch": 64, "duration": 8, "velocity": 105}, {"time": 3053, "pitch": 55, "duration": 5, "velocity": 103}, {"time": 3059, "pitch": 46, "duration": 3, "velocity": 74}, {"time": 3059, "pitch": 62, "duration": 13, "velocity": 87}, {"time": 3065, "pitch": 46, "duration": 6, "velocity": 78}, {"time": 3065, "pitch": 53, "duration": 10, "velocity": 72}, {"time": 3071, "pitch": 58, "duration": 9, "velocity": 87}, {"time": 3080, "pitch": 53, "duration": 16, "velocity": 70}, {"time": 3083, "pitch": 46, "duration": 6, "velocity": 60}, {"time": 3083, "pitch": 58, "duration": 3, "velocity": 90}, {"time": 3083, "pitch": 65, "duration": 9, "velocity": 93}, {"time": 3089, "pitch": 46, "duration": 6, "velocity": 78}, {"time": 3089, "pitch": 58, "duration": 3, "velocity": 87}, {"time": 3095, "pitch": 58, "duration": 3, "velocity": 93}, {"time": 3095, "pitch": 62, "duration": 5, "velocity": 93}, {"time": 3107, "pitch": 41, "duration": 6, "velocity": 83}, {"time": 3107, "pitch": 57, "duration": 9, "velocity": 80}, {"time": 3107, "pitch": 60, "duration": 14, "velocity": 72}, {"time": 3113, "pitch": 41, "duration": 12, "velocity": 78}, {"time": 3119, "pitch": 57, "duration": 7, "velocity": 102}, {"time": 3125, "pitch": 60, "duration": 4, "velocity": 102}, {"time": 3128, "pitch": 48, "duration": 18, "velocity": 59}, {"time": 3131, "pitch": 41, "duration": 3, "velocity": 78}, {"time": 3131, "pitch": 57, "duration": 3, "velocity": 87}, {"time": 3131, "pitch": 65, "duration": 11, "velocity": 87}, {"time": 3137, "pitch": 41, "duration": 12, "velocity": 78}, {"time": 3137, "pitch": 57, "duration": 5, "velocity": 72}, {"time": 3143, "pitch": 60, "duration": 5, "velocity": 105}, {"time": 3149, "pitch": 57, "duration": 2, "velocity": 95}, {"time": 3155, "pitch": 43, "duration": 3, "velocity": 90}, {"time": 3155, "pitch": 55, "duration": 11, "velocity": 80}, {"time": 3155, "pitch": 62, "duration": 13, "velocity": 80}, {"time": 3161, "pitch": 43, "duration": 9, "velocity": 78}, {"time": 3167, "pitch": 58, "duration": 6, "velocity": 85}, {"time": 3173, "pitch": 55, "duration": 3, "velocity": 102}, {"time": 3176, "pitch": 50, "duration": 22, "velocity": 72}, {"time": 3179, "pitch": 43, "duration": 6, "velocity": 78}, {"time": 3179, "pitch": 55, "duration": 3, "velocity": 95}, {"time": 3179, "pitch": 62, "duration": 7, "velocity": 93}, {"time": 3185, "pitch": 43, "duration": 15, "velocity": 78}, {"time": 3185, "pitch": 55, "duration": 4, "velocity": 74}, {"time": 3191, "pitch": 58, "duration": 6, "velocity": 85}, {"time": 3191, "pitch": 62, "duration": 7, "velocity": 93}, {"time": 3197, "pitch": 55, "duration": 3, "velocity": 93}, {"time": 3203, "pitch": 41, "duration": 6, "velocity": 87}, {"time": 3203, "pitch": 57, "duration": 12, "velocity": 83}, {"time": 3209, "pitch": 41, "duration": 3, "velocity": 78}, {"time": 3215, "pitch": 53, "duration": 8, "velocity": 87}, {"time": 3215, "pitch": 60, "duration": 3, "velocity": 93}, {"time": 3221, "pitch": 57, "duration": 4, "velocity": 103}, {"time": 3224, "pitch": 48, "duration": 25, "velocity": 66}, {"time": 3227, "pitch": 41, "duration": 6, "velocity": 78}, {"time": 3227, "pitch": 57, "duration": 1, "velocity": 49}, {"time": 3227, "pitch": 65, "duration": 7, "velocity": 95}, {"time": 3233, "pitch": 41, "duration": 15, "velocity": 78}, {"time": 3233, "pitch": 57, "duration": 3, "velocity": 87}, {"time": 3239, "pitch": 57, "duration": 3, "velocity": 93}, {"time": 3239, "pitch": 60, "duration": 7, "velocity": 102}, {"time": 3245, "pitch": 57, "duration": 5, "velocity": 85}, {"time": 3251, "pitch": 41, "duration": 6, "velocity": 87}, {"time": 3251, "pitch": 57, "duration": 9, "velocity": 80}, {"time": 3251, "pitch": 60, "duration": 10, "velocity": 83}, {"time": 3251, "pitch": 65, "duration": 9, "velocity": 80}, {"time": 3257, "pitch": 41, "duration": 12, "velocity": 78}, {"time": 3257, "pitch": 48, "duration": 36, "velocity": 59}, {"time": 3263, "pitch": 57, "duration": 3, "velocity": 93}, {"time": 3263, "pitch": 60, "duration": 8, "velocity": 93}, {"time": 3269, "pitch": 57, "duration": 3, "velocity": 74}, {"time": 3275, "pitch": 41, "duration": 6, "velocity": 78}, {"time": 3275, "pitch": 57, "duration": 2, "velocity": 87}, {"time": 3275, "pitch": 65, "duration": 4, "velocity": 87}, {"time": 3281, "pitch": 41, "duration": 15, "velocity": 78}, {"time": 3281, "pitch": 57, "duration": 3, "velocity": 85}, {"time": 3287, "pitch": 57, "duration": 2, "velocity": 90}, {"time": 3287, "pitch": 60, "duration": 5, "velocity": 93}, {"time": 3293, "pitch": 57, "duration": 2, "velocity": 80}, {"time": 3299, "pitch": 39, "duration": 45, "velocity": 102}, {"time": 3299, "pitch": 63, "duration": 5, "velocity": 71}, {"time": 3299, "pitch": 70, "duration": 9, "velocity": 80}, {"time": 3305, "pitch": 46, "duration": 40, "velocity": 58}, {"time": 3311, "pitch": 63, "duration": 2, "velocity": 102}, {"time": 3311, "pitch": 70, "duration": 2, "velocity": 95}, {"time": 3317, "pitch": 63, "duration": 2, "velocity": 90}, {"time": 3323, "pitch": 67, "duration": 3, "velocity": 102}, {"time": 3323, "pitch": 70, "duration": 3, "velocity": 95}, {"time": 3329, "pitch": 63, "duration": 2, "velocity": 69}, {"time": 3335, "pitch": 63, "duration": 2, "velocity": 87}, {"time": 3335, "pitch": 70, "duration": 2, "velocity": 87}, {"time": 3341, "pitch": 63, "duration": 3, "velocity": 102}, {"time": 3347, "pitch": 39, "duration": 25, "velocity": 87}, {"time": 3347, "pitch": 67, "duration": 6, "velocity": 87}, {"time": 3347, "pitch": 70, "duration": 7, "velocity": 74}, {"time": 3353, "pitch": 46, "duration": 19, "velocity": 59}, {"time": 3359, "pitch": 63, "duration": 3, "velocity": 93}, {"time": 3359, "pitch": 70, "duration": 8, "velocity": 74}, {"time": 3365, "pitch": 63, "duration": 3, "velocity": 85}, {"time": 3371, "pitch": 67, "duration": 4, "velocity": 93}, {"time": 3371, "pitch": 70, "duration": 5, "velocity": 83}, {"time": 3377, "pitch": 63, "duration": 3, "velocity": 102}, {"time": 3383, "pitch": 63, "duration": 2, "velocity": 90}, {"time": 3383, "pitch": 67, "duration": 2, "velocity": 102}, {"time": 3383, "pitch": 70, "duration": 2, "velocity": 80}, {"time": 3395, "pitch": 41, "duration": 38, "velocity": 83}, {"time": 3395, "pitch": 60, "duration": 2, "velocity": 58}, {"time": 3395, "pitch": 65, "duration": 9, "velocity": 80}, {"time": 3395, "pitch": 69, "duration": 10, "velocity": 65}, {"time": 3401, "pitch": 48, "duration": 32, "velocity": 61}, {"time": 3401, "pitch": 60, "duration": 8, "velocity": 83}, {"time": 3407, "pitch": 65, "duration": 2, "velocity": 87}, {"time": 3407, "pitch": 69, "duration": 3, "velocity": 102}, {"time": 3413, "pitch": 60, "duration": 3, "velocity": 93}, {"time": 3419, "pitch": 60, "duration": 2, "velocity": 93}, {"time": 3419, "pitch": 69, "duration": 4, "velocity": 93}, {"time": 3425, "pitch": 60, "duration": 3, "velocity": 72}, {"time": 3431, "pitch": 60, "duration": 2, "velocity": 93}, {"time": 3431, "pitch": 65, "duration": 4, "velocity": 93}, {"time": 3431, "pitch": 69, "duration": 8, "velocity": 93}, {"time": 3437, "pitch": 60, "duration": 3, "velocity": 93}, {"time": 3443, "pitch": 50, "duration": 33, "velocity": 80}, {"time": 3443, "pitch": 65, "duration": 7, "velocity": 93}, {"time": 3443, "pitch": 69, "duration": 8, "velocity": 93}, {"time": 3449, "pitch": 57, "duration": 21, "velocity": 83}, {"time": 3455, "pitch": 62, "duration": 3, "velocity": 87}, {"time": 3455, "pitch": 65, "duration": 4, "velocity": 102}, {"time": 3455, "pitch": 69, "duration": 7, "velocity": 95}, {"time": 3461, "pitch": 62, "duration": 3, "velocity": 80}, {"time": 3467, "pitch": 62, "duration": 2, "velocity": 80}, {"time": 3467, "pitch": 65, "duration": 4, "velocity": 93}, {"time": 3467, "pitch": 69, "duration": 4, "velocity": 93}, {"time": 3473, "pitch": 57, "duration": 4, "velocity": 83}, {"time": 3479, "pitch": 62, "duration": 2, "velocity": 74}, {"time": 3479, "pitch": 65, "duration": 4, "velocity": 87}, {"time": 3479, "pitch": 69, "duration": 6, "velocity": 87}, {"time": 3485, "pitch": 62, "duration": 2, "velocity": 83}, {"time": 3491, "pitch": 39, "duration": 40, "velocity": 72}, {"time": 3491, "pitch": 63, "duration": 10, "velocity": 68}, {"time": 3491, "pitch": 70, "duration": 10, "velocity": 68}, {"time": 3497, "pitch": 46, "duration": 35, "velocity": 63}, {"time": 3503, "pitch": 63, "duration": 3, "velocity": 80}, {"time": 3503, "pitch": 70, "duration": 7, "velocity": 95}, {"time": 3509, "pitch": 63, "duration": 3, "velocity": 95}, {"time": 3515, "pitch": 67, "duration": 3, "velocity": 87}, {"time": 3515, "pitch": 70, "duration": 4, "velocity": 87}, {"time": 3521, "pitch": 63, "duration": 3, "velocity": 93}, {"time": 3527, "pitch": 67, "duration": 2, "velocity": 93}, {"time": 3527, "pitch": 70, "duration": 3, "velocity": 93}, {"time": 3533, "pitch": 63, "duration": 3, "velocity": 87}, {"time": 3539, "pitch": 39, "duration": 27, "velocity": 90}, {"time": 3539, "pitch": 63, "duration": 10, "velocity": 90}, {"time": 3539, "pitch": 70, "duration": 10, "velocity": 74}, {"time": 3545, "pitch": 46, "duration": 21, "velocity": 61}, {"time": 3551, "pitch": 67, "duration": 4, "velocity": 87}, {"time": 3551, "pitch": 70, "duration": 5, "velocity": 87}, {"time": 3557, "pitch": 63, "duration": 3, "velocity": 102}, {"time": 3563, "pitch": 67, "duration": 3, "velocity": 80}, {"time": 3563, "pitch": 70, "duration": 8, "velocity": 80}, {"time": 3569, "pitch": 63, "duration": 3, "velocity": 87}, {"time": 3569, "pitch": 67, "duration": 2, "velocity": 37}, {"time": 3575, "pitch": 67, "duration": 2, "velocity": 95}, {"time": 3575, "pitch": 70, "duration": 3, "velocity": 87}, {"time": 3587, "pitch": 41, "duration": 19, "velocity": 87}, {"time": 3587, "pitch": 65, "duration": 7, "velocity": 80}, {"time": 3587, "pitch": 69, "duration": 7, "velocity": 87}, {"time": 3593, "pitch": 60, "duration": 7, "velocity": 80}, {"time": 3599, "pitch": 65, "duration": 2, "velocity": 87}, {"time": 3599, "pitch": 69, "duration": 3, "velocity": 102}, {"time": 3605, "pitch": 60, "duration": 4, "velocity": 87}, {"time": 3611, "pitch": 65, "duration": 2, "velocity": 87}, {"time": 3611, "pitch": 69, "duration": 4, "velocity": 93}, {"time": 3617, "pitch": 60, "duration": 4, "velocity": 80}, {"time": 3623, "pitch": 41, "duration": 3, "velocity": 85}, {"time": 3623, "pitch": 65, "duration": 3, "velocity": 93}, {"time": 3623, "pitch": 69, "duration": 7, "velocity": 95}, {"time": 3629, "pitch": 60, "duration": 3, "velocity": 87}, {"time": 3635, "pitch": 38, "duration": 47, "velocity": 95}, {"time": 3635, "pitch": 65, "duration": 7, "velocity": 93}, {"time": 3635, "pitch": 69, "duration": 8, "velocity": 93}, {"time": 3641, "pitch": 62, "duration": 7, "velocity": 80}, {"time": 3647, "pitch": 65, "duration": 2, "velocity": 87}, {"time": 3647, "pitch": 69, "duration": 2, "velocity": 93}, {"time": 3653, "pitch": 62, "duration": 3, "velocity": 83}, {"time": 3659, "pitch": 65, "duration": 3, "velocity": 87}, {"time": 3659, "pitch": 69, "duration": 3, "velocity": 87}, {"time": 3665, "pitch": 62, "duration": 3, "velocity": 90}, {"time": 3671, "pitch": 62, "duration": 1, "velocity": 51}, {"time": 3671, "pitch": 65, "duration": 7, "velocity": 105}, {"time": 3671, "pitch": 69, "duration": 7, "velocity": 103}, {"time": 3677, "pitch": 62, "duration": 3, "velocity": 102}, {"time": 3683, "pitch": 48, "duration": 39, "velocity": 93}, {"time": 3683, "pitch": 60, "duration": 8, "velocity": 80}, {"time": 3683, "pitch": 67, "duration": 9, "velocity": 80}, {"time": 3689, "pitch": 55, "duration": 10, "velocity": 68}, {"time": 3695, "pitch": 60, "duration": 7, "velocity": 87}, {"time": 3695, "pitch": 64, "duration": 8, "velocity": 93}, {"time": 3701, "pitch": 55, "duration": 9, "velocity": 65}, {"time": 3707, "pitch": 60, "duration": 9, "velocity": 93}, {"time": 3707, "pitch": 67, "duration": 9, "velocity": 83}, {"time": 3713, "pitch": 55, "duration": 8, "velocity": 60}, {"time": 3719, "pitch": 60, "duration": 2, "velocity": 87}, {"time": 3719, "pitch": 64, "duration": 5, "velocity": 102}, {"time": 3725, "pitch": 60, "duration": 2, "velocity": 87}, {"time": 3731, "pitch": 46, "duration": 37, "velocity": 85}, {"time": 3731, "pitch": 58, "duration": 8, "velocity": 59}, {"time": 3731, "pitch": 62, "duration": 14, "velocity": 67}, {"time": 3737, "pitch": 53, "duration": 10, "velocity": 69}, {"time": 3743, "pitch": 58, "duration": 9, "velocity": 95}, {"time": 3749, "pitch": 53, "duration": 9, "velocity": 71}, {"time": 3755, "pitch": 58, "duration": 9, "velocity": 72}, {"time": 3755, "pitch": 65, "duration": 9, "velocity": 93}, {"time": 3761, "pitch": 53, "duration": 7, "velocity": 64}, {"time": 3767, "pitch": 58, "duration": 2, "velocity": 87}, {"time": 3767, "pitch": 65, "duration": 4, "velocity": 93}, {"time": 3779, "pitch": 41, "duration": 37, "velocity": 83}, {"time": 3779, "pitch": 57, "duration": 4, "velocity": 80}, {"time": 3779, "pitch": 60, "duration": 9, "velocity": 80}, {"time": 3785, "pitch": 57, "duration": 8, "velocity": 71}, {"time": 3791, "pitch": 60, "duration": 7, "velocity": 93}, {"time": 3791, "pitch": 65, "duration": 6, "velocity": 87}, {"time": 3797, "pitch": 57, "duration": 4, "velocity": 64}, {"time": 3803, "pitch": 57, "duration": 3, "velocity": 90}, {"time": 3803, "pitch": 60, "duration": 7, "velocity": 93}, {"time": 3809, "pitch": 57, "duration": 5, "velocity": 72}, {"time": 3815, "pitch": 60, "duration": 6, "velocity": 80}, {"time": 3821, "pitch": 57, "duration": 4, "velocity": 90}, {"time": 3827, "pitch": 43, "duration": 44, "velocity": 87}, {"time": 3827, "pitch": 58, "duration": 13, "velocity": 90}, {"time": 3833, "pitch": 50, "duration": 38, "velocity": 69}, {"time": 3839, "pitch": 55, "duration": 8, "velocity": 93}, {"time": 3845, "pitch": 58, "duration": 3, "velocity": 83}, {"time": 3851, "pitch": 55, "duration": 4, "velocity": 103}, {"time": 3851, "pitch": 62, "duration": 8, "velocity": 87}, {"time": 3857, "pitch": 55, "duration": 3, "velocity": 93}, {"time": 3863, "pitch": 55, "duration": 2, "velocity": 80}, {"time": 3863, "pitch": 58, "duration": 4, "velocity": 93}, {"time": 3863, "pitch": 62, "duration": 10, "velocity": 93}, {"time": 3869, "pitch": 55, "duration": 4, "velocity": 102}, {"time": 3875, "pitch": 48, "duration": 39, "velocity": 74}, {"time": 3875, "pitch": 55, "duration": 3, "velocity": 102}, {"time": 3875, "pitch": 60, "duration": 8, "velocity": 93}, {"time": 3881, "pitch": 55, "duration": 3, "velocity": 83}, {"time": 3887, "pitch": 55, "duration": 2, "velocity": 93}, {"time": 3887, "pitch": 64, "duration": 9, "velocity": 102}, {"time": 3893, "pitch": 55, "duration": 4, "velocity": 74}, {"time": 3899, "pitch": 55, "duration": 3, "velocity": 102}, {"time": 3899, "pitch": 60, "duration": 9, "velocity": 102}, {"time": 3905, "pitch": 55, "duration": 5, "velocity": 71}, {"time": 3911, "pitch": 64, "duration": 8, "velocity": 105}, {"time": 3917, "pitch": 55, "duration": 5, "velocity": 103}, {"time": 3923, "pitch": 46, "duration": 16, "velocity": 74}, {"time": 3923, "pitch": 62, "duration": 13, "velocity": 87}, {"time": 3929, "pitch": 53, "duration": 10, "velocity": 72}, {"time": 3935, "pitch": 58, "duration": 9, "velocity": 87}, {"time": 3941, "pitch": 46, "duration": 20, "velocity": 60}, {"time": 3941, "pitch": 53, "duration": 19, "velocity": 70}, {"time": 3947, "pitch": 58, "duration": 3, "velocity": 90}, {"time": 3947, "pitch": 65, "duration": 9, "velocity": 93}, {"time": 3953, "pitch": 58, "duration": 3, "velocity": 87}, {"time": 3959, "pitch": 58, "duration": 3, "velocity": 93}, {"time": 3959, "pitch": 62, "duration": 5, "velocity": 93}, {"time": 3971, "pitch": 41, "duration": 38, "velocity": 83}, {"time": 3971, "pitch": 57, "duration": 9, "velocity": 80}, {"time": 3971, "pitch": 60, "duration": 14, "velocity": 72}, {"time": 3977, "pitch": 48, "duration": 33, "velocity": 59}, {"time": 3983, "pitch": 57, "duration": 7, "velocity": 102}, {"time": 3989, "pitch": 60, "duration": 4, "velocity": 102}, {"time": 3995, "pitch": 57, "duration": 3, "velocity": 87}, {"time": 3995, "pitch": 65, "duration": 11, "velocity": 87}, {"time": 4001, "pitch": 57, "duration": 5, "velocity": 72}, {"time": 4007, "pitch": 60, "duration": 5, "velocity": 105}, {"time": 4013, "pitch": 57, "duration": 2, "velocity": 95}, {"time": 4019, "pitch": 43, "duration": 43, "velocity": 90}, {"time": 4019, "pitch": 55, "duration": 11, "velocity": 80}, {"time": 4019, "pitch": 62, "duration": 13, "velocity": 80}, {"time": 4025, "pitch": 50, "duration": 37, "velocity": 72}, {"time": 4031, "pitch": 58, "duration": 6, "velocity": 85}, {"time": 4037, "pitch": 55, "duration": 3, "velocity": 102}, {"time": 4043, "pitch": 55, "duration": 3, "velocity": 95}, {"time": 4043, "pitch": 62, "duration": 7, "velocity": 93}, {"time": 4049, "pitch": 55, "duration": 4, "velocity": 74}, {"time": 4055, "pitch": 58, "duration": 6, "velocity": 85}, {"time": 4055, "pitch": 62, "duration": 7, "velocity": 93}, {"time": 4061, "pitch": 55, "duration": 3, "velocity": 93}, {"time": 4067, "pitch": 41, "duration": 45, "velocity": 87}, {"time": 4067, "pitch": 53, "duration": 8, "velocity": 87}, {"time": 4067, "pitch": 57, "duration": 12, "velocity": 83}, {"time": 4073, "pitch": 48, "duration": 40, "velocity": 66}, {"time": 4079, "pitch": 60, "duration": 3, "velocity": 93}, {"time": 4085, "pitch": 57, "duration": 4, "velocity": 103}, {"time": 4091, "pitch": 57, "duration": 1, "velocity": 49}, {"time": 4091, "pitch": 65, "duration": 7, "velocity": 95}, {"time": 4097, "pitch": 57, "duration": 3, "velocity": 87}, {"time": 4103, "pitch": 57, "duration": 3, "velocity": 93}, {"time": 4103, "pitch": 60, "duration": 7, "velocity": 102}, {"time": 4109, "pitch": 57, "duration": 5, "velocity": 85}, {"time": 4115, "pitch": 41, "duration": 41, "velocity": 87}, {"time": 4115, "pitch": 57, "duration": 9, "velocity": 80}, {"time": 4115, "pitch": 60, "duration": 10, "velocity": 83}, {"time": 4115, "pitch": 65, "duration": 9, "velocity": 80}, {"time": 4121, "pitch": 48, "duration": 36, "velocity": 59}, {"time": 4127, "pitch": 57, "duration": 3, "velocity": 93}, {"time": 4127, "pitch": 60, "duration": 8, "velocity": 93}, {"time": 4133, "pitch": 57, "duration": 3, "velocity": 74}, {"time": 4139, "pitch": 57, "duration": 2, "velocity": 87}, {"time": 4139, "pitch": 65, "duration": 4, "velocity": 87}, {"time": 4145, "pitch": 57, "duration": 3, "velocity": 85}, {"time": 4151, "pitch": 57, "duration": 2, "velocity": 90}, {"time": 4151, "pitch": 60, "duration": 5, "velocity": 93}, {"time": 4157, "pitch": 57, "duration": 2, "velocity": 80}, {"time": 4163, "pitch": 43, "duration": 46, "velocity": 90}, {"time": 4163, "pitch": 55, "duration": 9, "velocity": 83}, {"time": 4163, "pitch": 62, "duration": 8, "velocity": 85}, {"time": 4169, "pitch": 50, "duration": 10, "velocity": 69}, {"time": 4175, "pitch": 55, "duration": 7, "velocity": 93}, {"time": 4175, "pitch": 58, "duration": 8, "velocity": 93}, {"time": 4181, "pitch": 50, "duration": 9, "velocity": 72}, {"time": 4187, "pitch": 55, "duration": 8, "velocity": 90}, {"time": 4187, "pitch": 62, "duration": 7, "velocity": 93}, {"time": 4193, "pitch": 50, "duration": 16, "velocity": 67}, {"time": 4199, "pitch": 55, "duration": 3, "velocity": 85}, {"time": 4199, "pitch": 58, "duration": 6, "velocity": 93}, {"time": 4205, "pitch": 55, "duration": 4, "velocity": 93}, {"time": 4211, "pitch": 48, "duration": 22, "velocity": 68}, {"time": 4211, "pitch": 55, "duration": 3, "velocity": 93}, {"time": 4211, "pitch": 60, "duration": 7, "velocity": 87}, {"time": 4217, "pitch": 55, "duration": 7, "velocity": 80}, {"time": 4223, "pitch": 64, "duration": 8, "velocity": 105}, {"time": 4229, "pitch": 55, "duration": 8, "velocity": 103}, {"time": 4235, "pitch": 48, "duration": 18, "velocity": 66}, {"time": 4235, "pitch": 60, "duration": 7, "velocity": 93}, {"time": 4241, "pitch": 55, "duration": 5, "velocity": 103}, {"time": 4247, "pitch": 55, "duration": 1, "velocity": 64}, {"time": 4247, "pitch": 60, "duration": 6, "velocity": 103}, {"time": 4247, "pitch": 64, "duration": 7, "velocity": 105}, {"time": 4253, "pitch": 55, "duration": 3, "velocity": 95}, {"time": 4259, "pitch": 41, "duration": 39, "velocity": 87}, {"time": 4259, "pitch": 57, "duration": 4, "velocity": 87}, {"time": 4259, "pitch": 60, "duration": 8, "velocity": 93}, {"time": 4265, "pitch": 48, "duration": 33, "velocity": 59}, {"time": 4265, "pitch": 57, "duration": 7, "velocity": 83}, {"time": 4271, "pitch": 60, "duration": 14, "velocity": 93}, {"time": 4277, "pitch": 57, "duration": 7, "velocity": 93}, {"time": 4283, "pitch": 65, "duration": 7, "velocity": 95}, {"time": 4289, "pitch": 57, "duration": 4, "velocity": 85}, {"time": 4295, "pitch": 57, "duration": 2, "velocity": 70}, {"time": 4295, "pitch": 60, "duration": 8, "velocity": 103}, {"time": 4301, "pitch": 57, "duration": 5, "velocity": 90}, {"time": 4307, "pitch": 40, "duration": 3, "velocity": 69}, {"time": 4307, "pitch": 41, "duration": 39, "velocity": 74}, {"time": 4307, "pitch": 57, "duration": 7, "velocity": 87}, {"time": 4307, "pitch": 60, "duration": 10, "velocity": 80}, {"time": 4313, "pitch": 48, "duration": 34, "velocity": 56}, {"time": 4319, "pitch": 65, "duration": 8, "velocity": 87}, {"time": 4325, "pitch": 57, "duration": 4, "velocity": 95}, {"time": 4331, "pitch": 57, "duration": 3, "velocity": 74}, {"time": 4331, "pitch": 60, "duration": 7, "velocity": 102}, {"time": 4337, "pitch": 57, "duration": 4, "velocity": 80}, {"time": 4343, "pitch": 57, "duration": 3, "velocity": 83}, {"time": 4343, "pitch": 60, "duration": 6, "velocity": 87}, {"time": 4343, "pitch": 65, "duration": 9, "velocity": 87}, {"time": 4349, "pitch": 57, "duration": 3, "velocity": 80}, {"time": 4355, "pitch": 43, "duration": 45, "velocity": 87}, {"time": 4355, "pitch": 62, "duration": 14, "velocity": 74}, {"time": 4361, "pitch": 50, "duration": 40, "velocity": 74}, {"time": 4367, "pitch": 58, "duration": 6, "velocity": 74}, {"time": 4373, "pitch": 55, "duration": 3, "velocity": 93}, {"time": 4379, "pitch": 55, "duration": 2, "velocity": 103}, {"time": 4379, "pitch": 62, "duration": 8, "velocity": 87}, {"time": 4385, "pitch": 55, "duration": 7, "velocity": 83}, {"time": 4391, "pitch": 58, "duration": 7, "velocity": 71}, {"time": 4391, "pitch": 62, "duration": 2, "velocity": 74}, {"time": 4397, "pitch": 55, "duration": 3, "velocity": 102}, {"time": 4403, "pitch": 48, "duration": 31, "velocity": 80}, {"time": 4403, "pitch": 55, "duration": 3, "velocity": 93}, {"time": 4403, "pitch": 60, "duration": 8, "velocity": 87}, {"time": 4409, "pitch": 55, "duration": 7, "velocity": 80}, {"time": 4415, "pitch": 64, "duration": 8, "velocity": 110}, {"time": 4421, "pitch": 55, "duration": 5, "velocity": 95}, {"time": 4427, "pitch": 60, "duration": 7, "velocity": 102}, {"time": 4433, "pitch": 55, "duration": 7, "velocity": 87}, {"time": 4439, "pitch": 48, "duration": 2, "velocity": 83}, {"time": 4439, "pitch": 60, "duration": 7, "velocity": 93}, {"time": 4439, "pitch": 64, "duration": 7, "velocity": 93}, {"time": 4445, "pitch": 55, "duration": 3, "velocity": 103}, {"time": 4451, "pitch": 41, "duration": 45, "velocity": 83}, {"time": 4451, "pitch": 53, "duration": 11, "velocity": 80}, {"time": 4451, "pitch": 57, "duration": 13, "velocity": 83}, {"time": 4457, "pitch": 48, "duration": 40, "velocity": 69}, {"time": 4463, "pitch": 60, "duration": 8, "velocity": 87}, {"time": 4469, "pitch": 53, "duration": 7, "velocity": 95}, {"time": 4475, "pitch": 60, "duration": 1, "velocity": 34}, {"time": 4475, "pitch": 65, "duration": 9, "velocity": 102}, {"time": 4481, "pitch": 53, "duration": 7, "velocity": 102}, {"time": 4487, "pitch": 57, "duration": 7, "velocity": 93}, {"time": 4493, "pitch": 53, "duration": 8, "velocity": 90}, {"time": 4499, "pitch": 41, "duration": 48, "velocity": 93}, {"time": 4499, "pitch": 57, "duration": 11, "velocity": 93}, {"time": 4499, "pitch": 60, "duration": 13, "velocity": 90}, {"time": 4505, "pitch": 48, "duration": 42, "velocity": 64}, {"time": 4511, "pitch": 53, "duration": 10, "velocity": 95}, {"time": 4517, "pitch": 57, "duration": 4, "velocity": 87}, {"time": 4523, "pitch": 57, "duration": 1, "velocity": 49}, {"time": 4523, "pitch": 65, "duration": 11, "velocity": 95}, {"time": 4535, "pitch": 53, "duration": 4, "velocity": 95}, {"time": 4535, "pitch": 60, "duration": 9, "velocity": 72}, {"time": 4541, "pitch": 53, "duration": 4, "velocity": 93}, {"time": 4547, "pitch": 43, "duration": 46, "velocity": 90}, {"time": 4547, "pitch": 55, "duration": 9, "velocity": 83}, {"time": 4547, "pitch": 62, "duration": 8, "velocity": 85}, {"time": 4553, "pitch": 50, "duration": 10, "velocity": 69}, {"time": 4559, "pitch": 55, "duration": 7, "velocity": 93}, {"time": 4559, "pitch": 58, "duration": 8, "velocity": 93}, {"time": 4565, "pitch": 50, "duration": 9, "velocity": 72}, {"time": 4571, "pitch": 55, "duration": 8, "velocity": 90}, {"time": 4571, "pitch": 62, "duration": 7, "velocity": 93}, {"time": 4577, "pitch": 50, "duration": 16, "velocity": 67}, {"time": 4583, "pitch": 55, "duration": 3, "velocity": 85}, {"time": 4583, "pitch": 58, "duration": 6, "velocity": 93}, {"time": 4589, "pitch": 55, "duration": 4, "velocity": 93}, {"time": 4595, "pitch": 48, "duration": 22, "velocity": 68}, {"time": 4595, "pitch": 55, "duration": 3, "velocity": 93}, {"time": 4595, "pitch": 60, "duration": 7, "velocity": 87}, {"time": 4601, "pitch": 55, "duration": 7, "velocity": 80}, {"time": 4607, "pitch": 64, "duration": 8, "velocity": 105}, {"time": 4613, "pitch": 55, "duration": 8, "velocity": 103}, {"time": 4619, "pitch": 48, "duration": 18, "velocity": 66}, {"time": 4619, "pitch": 60, "duration": 7, "velocity": 93}, {"time": 4625, "pitch": 55, "duration": 5, "velocity": 103}, {"time": 4631, "pitch": 55, "duration": 1, "velocity": 64}, {"time": 4631, "pitch": 60, "duration": 6, "velocity": 103}, {"time": 4631, "pitch": 64, "duration": 7, "velocity": 105}, {"time": 4637, "pitch": 55, "duration": 3, "velocity": 95}, {"time": 4643, "pitch": 41, "duration": 39, "velocity": 87}, {"time": 4643, "pitch": 57, "duration": 4, "velocity": 87}, {"time": 4643, "pitch": 60, "duration": 8, "velocity": 93}, {"time": 4649, "pitch": 48, "duration": 33, "velocity": 59}, {"time": 4649, "pitch": 57, "duration": 7, "velocity": 83}, {"time": 4655, "pitch": 60, "duration": 14, "velocity": 93}, {"time": 4661, "pitch": 57, "duration": 7, "velocity": 93}, {"time": 4667, "pitch": 65, "duration": 7, "velocity": 95}, {"time": 4673, "pitch": 57, "duration": 4, "velocity": 85}, {"time": 4679, "pitch": 57, "duration": 2, "velocity": 70}, {"time": 4679, "pitch": 60, "duration": 8, "velocity": 103}, {"time": 4685, "pitch": 57, "duration": 5, "velocity": 90}, {"time": 4691, "pitch": 40, "duration": 3, "velocity": 69}, {"time": 4691, "pitch": 41, "duration": 39, "velocity": 74}, {"time": 4691, "pitch": 57, "duration": 7, "velocity": 87}, {"time": 4691, "pitch": 60, "duration": 10, "velocity": 80}, {"time": 4697, "pitch": 48, "duration": 34, "velocity": 56}, {"time": 4703, "pitch": 65, "duration": 8, "velocity": 87}, {"time": 4709, "pitch": 57, "duration": 4, "velocity": 95}, {"time": 4715, "pitch": 57, "duration": 3, "velocity": 74}, {"time": 4715, "pitch": 60, "duration": 7, "velocity": 102}, {"time": 4721, "pitch": 57, "duration": 4, "velocity": 80}, {"time": 4727, "pitch": 57, "duration": 3, "velocity": 83}, {"time": 4727, "pitch": 60, "duration": 6, "velocity": 87}, {"time": 4727, "pitch": 65, "duration": 9, "velocity": 87}, {"time": 4733, "pitch": 57, "duration": 3, "velocity": 80}, {"time": 4739, "pitch": 43, "duration": 45, "velocity": 88}, {"time": 4739, "pitch": 62, "duration": 14, "velocity": 88}, {"time": 4745, "pitch": 50, "duration": 40, "velocity": 85}, {"time": 4751, "pitch": 58, "duration": 6, "velocity": 82}, {"time": 4757, "pitch": 55, "duration": 3, "velocity": 80}, {"time": 4763, "pitch": 55, "duration": 2, "velocity": 77}, {"time": 4763, "pitch": 62, "duration": 8, "velocity": 77}, {"time": 4769, "pitch": 55, "duration": 7, "velocity": 74}, {"time": 4775, "pitch": 58, "duration": 7, "velocity": 71}, {"time": 4775, "pitch": 62, "duration": 2, "velocity": 71}, {"time": 4781, "pitch": 55, "duration": 3, "velocity": 69}, {"time": 4787, "pitch": 48, "duration": 31, "velocity": 66}, {"time": 4787, "pitch": 55, "duration": 3, "velocity": 66}, {"time": 4787, "pitch": 60, "duration": 8, "velocity": 66}, {"time": 4793, "pitch": 55, "duration": 7, "velocity": 63}, {"time": 4799, "pitch": 64, "duration": 8, "velocity": 57}, {"time": 4805, "pitch": 55, "duration": 5, "velocity": 55}, {"time": 4811, "pitch": 60, "duration": 7, "velocity": 52}, {"time": 4817, "pitch": 55, "duration": 7, "velocity": 49}, {"time": 4823, "pitch": 48, "duration": 2, "velocity": 46}, {"time": 4823, "pitch": 60, "duration": 7, "velocity": 46}, {"time": 4823, "pitch": 64, "duration": 7, "velocity": 46}, {"time": 4829, "pitch": 55, "duration": 3, "velocity": 44}, {"time": 4835, "pitch": 41, "duration": 45, "velocity": 41}, {"time": 4835, "pitch": 53, "duration": 11, "velocity": 41}, {"time": 4835, "pitch": 57, "duration": 13, "velocity": 41}, {"time": 4841, "pitch": 48, "duration": 40, "velocity": 38}, {"time": 4847, "pitch": 60, "duration": 8, "velocity": 35}, {"time": 4853, "pitch": 53, "duration": 7, "velocity": 33}, {"time": 4859, "pitch": 60, "duration": 1, "velocity": 30}, {"time": 4859, "pitch": 65, "duration": 9, "velocity": 30}, {"time": 4865, "pitch": 53, "duration": 7, "velocity": 24}, {"time": 4871, "pitch": 57, "duration": 7, "velocity": 22}, {"time": 4877, "pitch": 53, "duration": 8, "velocity": 19}, {"time": 4883, "pitch": 41, "duration": 48, "velocity": 16}, {"time": 4883, "pitch": 57, "duration": 11, "velocity": 16}, {"time": 4883, "pitch": 60, "duration": 13, "velocity": 16}, {"time": 4889, "pitch": 48, "duration": 42, "velocity": 13}, {"time": 4895, "pitch": 53, "duration": 10, "velocity": 11}, {"time": 4901, "pitch": 57, "duration": 4, "velocity": 8}, {"time": 4907, "pitch": 57, "duration": 1, "velocity": 5}, {"time": 4907, "pitch": 65, "duration": 11, "velocity": 5}, {"time": 4919, "pitch": 53, "duration": 4, "velocity": 1}, {"time": 4919, "pitch": 60, "duration": 9, "velocity": 1}, {"time": 4925, "pitch": 53, "duration": 4, "velocity": 2}], "annotations": [{"time": 38, "annotation": {"number": 64, "value": 127}, "group": "control_change"}, {"time": 82, "annotation": {"number": 64, "value": 0}, "group": "control_change"}, {"time": 85, "annotation": {"number": 64, "value": 127}, "group": "control_change"}, {"time": 129, "annotation": {"number": 64, "value": 0}, "group": "control_change"}, {"time": 133, "annotation": {"number": 64, "value": 127}, "group": "control_change"}, {"time": 177, "annotation": {"number": 64, "value": 0}, "group": "control_change"}, {"time": 184, "annotation": {"number": 64, "value": 127}, "group": "control_change"}, {"time": 226, "annotation": {"number": 64, "value": 0}, "group": "control_change"}, {"time": 230, "annotation": {"number": 64, "value": 127}, "group": "control_change"}, {"time": 274, "annotation": {"number": 64, "value": 0}, "group": "control_change"}, {"time": 277, "annotation": {"number": 64, "value": 127}, "group": "control_change"}, {"time": 321, "annotation": {"number": 64, "value": 0}, "group": "control_change"}, {"time": 325, "annotation": {"number": 64, "value": 127}, "group": "control_change"}, {"time": 369, "annotation": {"number": 64, "value": 0}, "group": "control_change"}, {"time": 373, "annotation": {"number": 64, "value": 127}, "group": "control_change"}, {"time": 396, "annotation": {"number": 64, "value": 0}, "group": "control_change"}, {"time": 397, "annotation": {"number": 64, "value": 127}, "group": "control_change"}, {"time": 414, "annotation": {"number": 64, "value": 0}, "group": "control_change"}, {"time": 426, "annotation": {"number": 64, "value": 127}, "group": "control_change"}, {"time": 466, "annotation": {"number": 64, "value": 0}, "group": "control_change"}, {"time": 468, "annotation": {"number": 64, "value": 127}, "group": "control_change"}, {"time": 515, "annotation": {"number": 64, "value": 0}, "group": "control_change"}, {"time": 517, "annotation": {"number": 64, "value": 127}, "group": "control_change"}, {"time": 565, "annotation": {"number": 64, "value": 0}, "group": "control_change"}, {"time": 569, "annotation": {"number": 64, "value": 127}, "group": "control_change"}, {"time": 612, "annotation": {"number": 64, "value": 0}, "group": "control_change"}, {"time": 617, "annotation": {"number": 64, "value": 127}, "group": "control_change"}, {"time": 659, "annotation": {"number": 64, "value": 0}, "group": "control_change"}, {"time": 666, "annotation": {"number": 64, "value": 127}, "group": "control_change"}, {"time": 707, "annotation": {"number": 64, "value": 0}, "group": "control_change"}, {"time": 715, "annotation": {"number": 64, "value": 127}, "group": "control_change"}, {"time": 755, "annotation": {"number": 64, "value": 0}, "group": "control_change"}, {"time": 762, "annotation": {"number": 64, "value": 127}, "group": "control_change"}, {"time": 796, "annotation": {"number": 64, "value": 0}, "group": "control_change"}, {"time": 810, "annotation": {"number": 64, "value": 127}, "group": "control_change"}, {"time": 850, "annotation": {"number": 64, "value": 0}, "group": "control_change"}, {"time": 852, "annotation": {"number": 64, "value": 127}, "group": "control_change"}, {"time": 899, "annotation": {"number": 64, "value": 0}, "group": "control_change"}, {"time": 901, "annotation": {"number": 64, "value": 127}, "group": "control_change"}, {"time": 949, "annotation": {"number": 64, "value": 0}, "group": "control_change"}, {"time": 953, "annotation": {"number": 64, "value": 127}, "group": "control_change"}, {"time": 996, "annotation": {"number": 64, "value": 0}, "group": "control_change"}, {"time": 1001, "annotation": {"number": 64, "value": 127}, "group": "control_change"}, {"time": 1043, "annotation": {"number": 64, "value": 0}, "group": "control_change"}, {"time": 1050, "annotation": {"number": 64, "value": 127}, "group": "control_change"}, {"time": 1091, "annotation": {"number": 64, "value": 0}, "group": "control_change"}, {"time": 1099, "annotation": {"number": 64, "value": 127}, "group": "control_change"}, {"time": 1139, "annotation": {"number": 64, "value": 0}, "group": "control_change"}, {"time": 1146, "annotation": {"number": 64, "value": 127}, "group": "control_change"}, {"time": 1180, "annotation": {"number": 64, "value": 0}, "group": "control_change"}, {"time": 1188, "annotation": {"number": 64, "value": 127}, "group": "control_change"}, {"time": 1238, "annotation": {"number": 64, "value": 0}, "group": "control_change"}, {"time": 1245, "annotation": {"number": 64, "value": 127}, "group": "control_change"}, {"time": 1284, "annotation": {"number": 64, "value": 0}, "group": "control_change"}, {"time": 1288, "annotation": {"number": 64, "value": 127}, "group": "control_change"}, {"time": 1330, "annotation": {"number": 64, "value": 0}, "group": "control_change"}, {"time": 1336, "annotation": {"number": 64, "value": 127}, "group": "control_change"}, {"time": 1377, "annotation": {"number": 64, "value": 0}, "group": "control_change"}, {"time": 1382, "annotation": {"number": 64, "value": 127}, "group": "control_change"}, {"time": 1427, "annotation": {"number": 64, "value": 0}, "group": "control_change"}, {"time": 1432, "annotation": {"number": 64, "value": 127}, "group": "control_change"}, {"time": 1475, "annotation": {"number": 64, "value": 0}, "group": "control_change"}, {"time": 1482, "annotation": {"number": 64, "value": 127}, "group": "control_change"}, {"time": 1523, "annotation": {"number": 64, "value": 0}, "group": "control_change"}, {"time": 1531, "annotation": {"number": 64, "value": 127}, "group": "control_change"}, {"time": 1572, "annotation": {"number": 64, "value": 0}, "group": "control_change"}, {"time": 1575, "annotation": {"number": 64, "value": 127}, "group": "control_change"}, {"time": 1617, "annotation": {"number": 64, "value": 0}, "group": "control_change"}, {"time": 1625, "annotation": {"number": 64, "value": 127}, "group": "control_change"}, {"time": 1666, "annotation": {"number": 64, "value": 0}, "group": "control_change"}, {"time": 1673, "annotation": {"number": 64, "value": 127}, "group": "control_change"}, {"time": 1714, "annotation": {"number": 64, "value": 0}, "group": "control_change"}, {"time": 1718, "annotation": {"number": 64, "value": 127}, "group": "control_change"}, {"time": 1765, "annotation": {"number": 64, "value": 0}, "group": "control_change"}, {"time": 1770, "annotation": {"number": 64, "value": 127}, "group": "control_change"}, {"time": 1811, "annotation": {"number": 64, "value": 0}, "group": "control_change"}, {"time": 1814, "annotation": {"number": 64, "value": 127}, "group": "control_change"}, {"time": 1860, "annotation": {"number": 64, "value": 0}, "group": "control_change"}, {"time": 1867, "annotation": {"number": 64, "value": 127}, "group": "control_change"}, {"time": 1907, "annotation": {"number": 64, "value": 0}, "group": "control_change"}, {"time": 1912, "annotation": {"number": 64, "value": 127}, "group": "control_change"}, {"time": 1957, "annotation": {"number": 64, "value": 0}, "group": "control_change"}, {"time": 1963, "annotation": {"number": 64, "value": 127}, "group": "control_change"}, {"time": 2004, "annotation": {"number": 64, "value": 0}, "group": "control_change"}, {"time": 2010, "annotation": {"number": 64, "value": 127}, "group": "control_change"}, {"time": 2051, "annotation": {"number": 64, "value": 0}, "group": "control_change"}, {"time": 2058, "annotation": {"number": 64, "value": 127}, "group": "control_change"}, {"time": 2098, "annotation": {"number": 64, "value": 0}, "group": "control_change"}, {"time": 2100, "annotation": {"number": 64, "value": 127}, "group": "control_change"}, {"time": 2147, "annotation": {"number": 64, "value": 0}, "group": "control_change"}, {"time": 2149, "annotation": {"number": 64, "value": 127}, "group": "control_change"}, {"time": 2197, "annotation": {"number": 64, "value": 0}, "group": "control_change"}, {"time": 2201, "annotation": {"number": 64, "value": 127}, "group": "control_change"}, {"time": 2244, "annotation": {"number": 64, "value": 0}, "group": "control_change"}, {"time": 2249, "annotation": {"number": 64, "value": 127}, "group": "control_change"}, {"time": 2291, "annotation": {"number": 64, "value": 0}, "group": "control_change"}, {"time": 2298, "annotation": {"number": 64, "value": 127}, "group": "control_change"}, {"time": 2339, "annotation": {"number": 64, "value": 0}, "group": "control_change"}, {"time": 2347, "annotation": {"number": 64, "value": 127}, "group": "control_change"}, {"time": 2387, "annotation": {"number": 64, "value": 0}, "group": "control_change"}, {"time": 2394, "annotation": {"number": 64, "value": 127}, "group": "control_change"}, {"time": 2428, "annotation": {"number": 64, "value": 0}, "group": "control_change"}, {"time": 2442, "annotation": {"number": 64, "value": 127}, "group": "control_change"}, {"time": 2482, "annotation": {"number": 64, "value": 0}, "group": "control_change"}, {"time": 2484, "annotation": {"number": 64, "value": 127}, "group": "control_change"}, {"time": 2531, "annotation": {"number": 64, "value": 0}, "group": "control_change"}, {"time": 2533, "annotation": {"number": 64, "value": 127}, "group": "control_change"}, {"time": 2581, "annotation": {"number": 64, "value": 0}, "group": "control_change"}, {"time": 2585, "annotation": {"number": 64, "value": 127}, "group": "control_change"}, {"time": 2628, "annotation": {"number": 64, "value": 0}, "group": "control_change"}, {"time": 2633, "annotation": {"number": 64, "value": 127}, "group": "control_change"}, {"time": 2675, "annotation": {"number": 64, "value": 0}, "group": "control_change"}, {"time": 2682, "annotation": {"number": 64, "value": 127}, "group": "control_change"}, {"time": 2723, "annotation": {"number": 64, "value": 0}, "group": "control_change"}, {"time": 2731, "annotation": {"number": 64, "value": 127}, "group": "control_change"}, {"time": 2771, "annotation": {"number": 64, "value": 0}, "group": "control_change"}, {"time": 2778, "annotation": {"number": 64, "value": 127}, "group": "control_change"}, {"time": 2812, "annotation": {"number": 64, "value": 0}, "group": "control_change"}, {"time": 2820, "annotation": {"number": 64, "value": 127}, "group": "control_change"}, {"time": 2870, "annotation": {"number": 64, "value": 0}, "group": "control_change"}, {"time": 2877, "annotation": {"number": 64, "value": 127}, "group": "control_change"}, {"time": 2916, "annotation": {"number": 64, "value": 0}, "group": "control_change"}, {"time": 2920, "annotation": {"number": 64, "value": 127}, "group": "control_change"}, {"time": 2962, "annotation": {"number": 64, "value": 0}, "group": "control_change"}, {"time": 2968, "annotation": {"number": 64, "value": 127}, "group": "control_change"}, {"time": 3009, "annotation": {"number": 64, "value": 0}, "group": "control_change"}, {"time": 3014, "annotation": {"number": 64, "value": 127}, "group": "control_change"}, {"time": 3059, "annotation": {"number": 64, "value": 0}, "group": "control_change"}, {"time": 3064, "annotation": {"number": 64, "value": 127}, "group": "control_change"}, {"time": 3107, "annotation": {"number": 64, "value": 0}, "group": "control_change"}, {"time": 3114, "annotation": {"number": 64, "value": 127}, "group": "control_change"}, {"time": 3155, "annotation": {"number": 64, "value": 0}, "group": "control_change"}, {"time": 3163, "annotation": {"number": 64, "value": 127}, "group": "control_change"}, {"time": 3204, "annotation": {"number": 64, "value": 0}, "group": "control_change"}, {"time": 3207, "annotation": {"number": 64, "value": 127}, "group": "control_change"}, {"time": 3249, "annotation": {"number": 64, "value": 0}, "group": "control_change"}, {"time": 3257, "annotation": {"number": 64, "value": 127}, "group": "control_change"}, {"time": 3298, "annotation": {"number": 64, "value": 0}, "group": "control_change"}, {"time": 3302, "annotation": {"number": 64, "value": 127}, "group": "control_change"}, {"time": 3346, "annotation": {"number": 64, "value": 0}, "group": "control_change"}, {"time": 3349, "annotation": {"number": 64, "value": 127}, "group": "control_change"}, {"time": 3398, "annotation": {"number": 64, "value": 0}, "group": "control_change"}, {"time": 3403, "annotation": {"number": 64, "value": 127}, "group": "control_change"}, {"time": 3445, "annotation": {"number": 64, "value": 0}, "group": "control_change"}, {"time": 3451, "annotation": {"number": 64, "value": 127}, "group": "control_change"}, {"time": 3494, "annotation": {"number": 64, "value": 0}, "group": "control_change"}, {"time": 3502, "annotation": {"number": 64, "value": 127}, "group": "control_change"}, {"time": 3542, "annotation": {"number": 64, "value": 0}, "group": "control_change"}, {"time": 3547, "annotation": {"number": 64, "value": 127}, "group": "control_change"}, {"time": 3588, "annotation": {"number": 64, "value": 0}, "group": "control_change"}, {"time": 3595, "annotation": {"number": 64, "value": 127}, "group": "control_change"}, {"time": 3635, "annotation": {"number": 64, "value": 0}, "group": "control_change"}, {"time": 3642, "annotation": {"number": 64, "value": 127}, "group": "control_change"}, {"time": 3680, "annotation": {"number": 64, "value": 0}, "group": "control_change"}, {"time": 3684, "annotation": {"number": 64, "value": 127}, "group": "control_change"}, {"time": 3734, "annotation": {"number": 64, "value": 0}, "group": "control_change"}, {"time": 3741, "annotation": {"number": 64, "value": 127}, "group": "control_change"}, {"time": 3780, "annotation": {"number": 64, "value": 0}, "group": "control_change"}, {"time": 3784, "annotation": {"number": 64, "value": 127}, "group": "control_change"}, {"time": 3826, "annotation": {"number": 64, "value": 0}, "group": "control_change"}, {"time": 3832, "annotation": {"number": 64, "value": 127}, "group": "control_change"}, {"time": 3873, "annotation": {"number": 64, "value": 0}, "group": "control_change"}, {"time": 3878, "annotation": {"number": 64, "value": 127}, "group": "control_change"}, {"time": 3923, "annotation": {"number": 64, "value": 0}, "group": "control_change"}, {"time": 3928, "annotation": {"number": 64, "value": 127}, "group": "control_change"}, {"time": 3971, "annotation": {"number": 64, "value": 0}, "group": "control_change"}, {"time": 3978, "annotation": {"number": 64, "value": 127}, "group": "control_change"}, {"time": 4019, "annotation": {"number": 64, "value": 0}, "group": "control_change"}, {"time": 4027, "annotation": {"number": 64, "value": 127}, "group": "control_change"}, {"time": 4068, "annotation": {"number": 64, "value": 0}, "group": "control_change"}, {"time": 4071, "annotation": {"number": 64, "value": 127}, "group": "control_change"}, {"time": 4113, "annotation": {"number": 64, "value": 0}, "group": "control_change"}, {"time": 4121, "annotation": {"number": 64, "value": 127}, "group": "control_change"}, {"time": 4162, "annotation": {"number": 64, "value": 0}, "group": "control_change"}, {"time": 4169, "annotation": {"number": 64, "value": 127}, "group": "control_change"}, {"time": 4210, "annotation": {"number": 64, "value": 0}, "group": "control_change"}, {"time": 4214, "annotation": {"number": 64, "value": 127}, "group": "control_change"}, {"time": 4261, "annotation": {"number": 64, "value": 0}, "group": "control_change"}, {"time": 4266, "annotation": {"number": 64, "value": 127}, "group": "control_change"}, {"time": 4307, "annotation": {"number": 64, "value": 0}, "group": "control_change"}, {"time": 4310, "annotation": {"number": 64, "value": 127}, "group": "control_change"}, {"time": 4356, "annotation": {"number": 64, "value": 0}, "group": "control_change"}, {"time": 4363, "annotation": {"number": 64, "value": 127}, "group": "control_change"}, {"time": 4403, "annotation": {"number": 64, "value": 0}, "group": "control_change"}, {"time": 4408, "annotation": {"number": 64, "value": 127}, "group": "control_change"}, {"time": 4453, "annotation": {"number": 64, "value": 0}, "group": "control_change"}, {"time": 4459, "annotation": {"number": 64, "value": 127}, "group": "control_change"}, {"time": 4500, "annotation": {"number": 64, "value": 0}, "group": "control_change"}, {"time": 4506, "annotation": {"number": 64, "value": 127}, "group": "control_change"}, {"time": 4547, "annotation": {"number": 64, "value": 0}, "group": "control_change"}, {"time": 4553, "annotation": {"number": 64, "value": 127}, "group": "control_change"}, {"time": 4594, "annotation": {"number": 64, "value": 0}, "group": "control_change"}, {"time": 4598, "annotation": {"number": 64, "value": 127}, "group": "control_change"}, {"time": 4645, "annotation": {"number": 64, "value": 0}, "group": "control_change"}, {"time": 4650, "annotation": {"number": 64, "value": 127}, "group": "control_change"}, {"time": 4691, "annotation": {"number": 64, "value": 0}, "group": "control_change"}, {"time": 4694, "annotation": {"number": 64, "value": 127}, "group": "control_change"}, {"time": 4740, "annotation": {"number": 64, "value": 0}, "group": "control_change"}, {"time": 4747, "annotation": {"number": 64, "value": 127}, "group": "control_change"}, {"time": 4787, "annotation": {"number": 64, "value": 0}, "group": "control_change"}, {"time": 4792, "annotation": {"number": 64, "value": 127}, "group": "control_change"}, {"time": 4837, "annotation": {"number": 64, "value": 0}, "group": "control_change"}, {"time": 4843, "annotation": {"number": 64, "value": 127}, "group": "control_change"}, {"time": 4884, "annotation": {"number": 64, "value": 0}, "group": "control_change"}, {"time": 4890, "annotation": {"number": 64, "value": 127}, "group": "control_change"}, {"time": 4931, "annotation": {"number": 64, "value": 0}, "group": "control_change"}]}]}