{"metadata": {"schema_version": "0.2", "title": "None", "source_filename": "160.mid", "source_format": "midi"}, "resolution": 12, "tempos": [{"time": 0, "qpm": 78.000078000078}], "time_signatures": [{"time": 0, "numerator": 1, "denominator": 4}], "tracks": [{"program": 0, "is_drum": false, "name": "MELODY", "notes": [{"time": 221, "pitch": 71, "duration": 4, "velocity": 74}, {"time": 227, "pitch": 71, "duration": 3, "velocity": 76}, {"time": 233, "pitch": 71, "duration": 7, "velocity": 74}, {"time": 239, "pitch": 73, "duration": 6, "velocity": 81}, {"time": 245, "pitch": 71, "duration": 11, "velocity": 87}, {"time": 257, "pitch": 66, "duration": 13, "velocity": 86}, {"time": 275, "pitch": 71, "duration": 5, "velocity": 77}, {"time": 281, "pitch": 71, "duration": 5, "velocity": 69}, {"time": 287, "pitch": 73, "duration": 5, "velocity": 81}, {"time": 293, "pitch": 71, "duration": 11, "velocity": 86}, {"time": 305, "pitch": 68, "duration": 13, "velocity": 69}, {"time": 317, "pitch": 71, "duration": 13, "velocity": 71}, {"time": 329, "pitch": 68, "duration": 7, "velocity": 74}, {"time": 335, "pitch": 70, "duration": 6, "velocity": 68}, {"time": 341, "pitch": 66, "duration": 58, "velocity": 71}, {"time": 413, "pitch": 71, "duration": 2, "velocity": 61}, {"time": 419, "pitch": 71, "duration": 3, "velocity": 69}, {"time": 425, "pitch": 71, "duration": 7, "velocity": 63}, {"time": 431, "pitch": 73, "duration": 7, "velocity": 74}, {"time": 437, "pitch": 76, "duration": 13, "velocity": 87}, {"time": 449, "pitch": 75, "duration": 12, "velocity": 74}, {"time": 461, "pitch": 71, "duration": 10, "velocity": 75}, {"time": 473, "pitch": 71, "duration": 7, "velocity": 63}, {"time": 479, "pitch": 73, "duration": 6, "velocity": 76}, {"time": 485, "pitch": 71, "duration": 8, "velocity": 79}, {"time": 497, "pitch": 68, "duration": 8, "velocity": 66}, {"time": 509, "pitch": 71, "duration": 17, "velocity": 77}, {"time": 521, "pitch": 73, "duration": 7, "velocity": 64}, {"time": 533, "pitch": 75, "duration": 16, "velocity": 59}, {"time": 545, "pitch": 70, "duration": 5, "velocity": 68}, {"time": 557, "pitch": 70, "duration": 13, "velocity": 71}, {"time": 569, "pitch": 71, "duration": 19, "velocity": 79}, {"time": 605, "pitch": 71, "duration": 2, "velocity": 63}, {"time": 611, "pitch": 71, "duration": 2, "velocity": 67}, {"time": 617, "pitch": 71, "duration": 6, "velocity": 67}, {"time": 623, "pitch": 73, "duration": 7, "velocity": 67}, {"time": 629, "pitch": 71, "duration": 10, "velocity": 74}, {"time": 641, "pitch": 66, "duration": 12, "velocity": 73}, {"time": 659, "pitch": 71, "duration": 3, "velocity": 75}, {"time": 665, "pitch": 71, "duration": 5, "velocity": 75}, {"time": 671, "pitch": 73, "duration": 4, "velocity": 74}, {"time": 677, "pitch": 71, "duration": 8, "velocity": 74}, {"time": 689, "pitch": 68, "duration": 9, "velocity": 67}, {"time": 701, "pitch": 71, "duration": 11, "velocity": 69}, {"time": 713, "pitch": 70, "duration": 7, "velocity": 77}, {"time": 725, "pitch": 66, "duration": 51, "velocity": 69}, {"time": 797, "pitch": 71, "duration": 2, "velocity": 63}, {"time": 803, "pitch": 71, "duration": 2, "velocity": 69}, {"time": 809, "pitch": 71, "duration": 4, "velocity": 74}, {"time": 815, "pitch": 73, "duration": 5, "velocity": 71}, {"time": 821, "pitch": 76, "duration": 13, "velocity": 83}, {"time": 833, "pitch": 73, "duration": 9, "velocity": 67}, {"time": 845, "pitch": 71, "duration": 9, "velocity": 81}, {"time": 857, "pitch": 71, "duration": 6, "velocity": 68}, {"time": 863, "pitch": 73, "duration": 7, "velocity": 79}, {"time": 869, "pitch": 71, "duration": 11, "velocity": 76}, {"time": 881, "pitch": 68, "duration": 13, "velocity": 76}, {"time": 893, "pitch": 71, "duration": 13, "velocity": 83}, {"time": 905, "pitch": 73, "duration": 10, "velocity": 81}, {"time": 917, "pitch": 75, "duration": 7, "velocity": 86}, {"time": 929, "pitch": 70, "duration": 9, "velocity": 75}, {"time": 941, "pitch": 70, "duration": 13, "velocity": 81}, {"time": 953, "pitch": 71, "duration": 6, "velocity": 81}, {"time": 959, "pitch": 73, "duration": 7, "velocity": 74}, {"time": 965, "pitch": 71, "duration": 19, "velocity": 64}, {"time": 989, "pitch": 71, "duration": 6, "velocity": 70}, {"time": 995, "pitch": 78, "duration": 7, "velocity": 87}, {"time": 1001, "pitch": 75, "duration": 12, "velocity": 70}, {"time": 1013, "pitch": 70, "duration": 20, "velocity": 85}, {"time": 1037, "pitch": 70, "duration": 6, "velocity": 62}, {"time": 1043, "pitch": 78, "duration": 7, "velocity": 100}, {"time": 1049, "pitch": 75, "duration": 8, "velocity": 64}, {"time": 1061, "pitch": 68, "duration": 25, "velocity": 67}, {"time": 1097, "pitch": 68, "duration": 3, "velocity": 71}, {"time": 1103, "pitch": 68, "duration": 3, "velocity": 64}, {"time": 1109, "pitch": 68, "duration": 3, "velocity": 66}, {"time": 1115, "pitch": 68, "duration": 7, "velocity": 87}, {"time": 1121, "pitch": 70, "duration": 9, "velocity": 76}, {"time": 1133, "pitch": 71, "duration": 9, "velocity": 95}, {"time": 1145, "pitch": 76, "duration": 8, "velocity": 81}, {"time": 1157, "pitch": 75, "duration": 23, "velocity": 79}, {"time": 1181, "pitch": 75, "duration": 6, "velocity": 73}, {"time": 1187, "pitch": 78, "duration": 6, "velocity": 95}, {"time": 1193, "pitch": 75, "duration": 12, "velocity": 68}, {"time": 1205, "pitch": 70, "duration": 21, "velocity": 68}, {"time": 1229, "pitch": 70, "duration": 6, "velocity": 61}, {"time": 1235, "pitch": 78, "duration": 6, "velocity": 87}, {"time": 1241, "pitch": 75, "duration": 7, "velocity": 65}, {"time": 1247, "pitch": 78, "duration": 6, "velocity": 93}, {"time": 1253, "pitch": 70, "duration": 10, "velocity": 74}, {"time": 1265, "pitch": 68, "duration": 17, "velocity": 73}, {"time": 1313, "pitch": 76, "duration": 7, "velocity": 85}, {"time": 1319, "pitch": 75, "duration": 6, "velocity": 65}, {"time": 1325, "pitch": 71, "duration": 7, "velocity": 68}, {"time": 1328, "pitch": 76, "duration": 7, "velocity": 72}, {"time": 1337, "pitch": 75, "duration": 6, "velocity": 65}, {"time": 1343, "pitch": 76, "duration": 8, "velocity": 87}, {"time": 1349, "pitch": 78, "duration": 16, "velocity": 81}, {"time": 1565, "pitch": 71, "duration": 2, "velocity": 63}, {"time": 1571, "pitch": 71, "duration": 2, "velocity": 67}, {"time": 1577, "pitch": 71, "duration": 6, "velocity": 67}, {"time": 1583, "pitch": 73, "duration": 7, "velocity": 67}, {"time": 1589, "pitch": 71, "duration": 10, "velocity": 74}, {"time": 1601, "pitch": 66, "duration": 12, "velocity": 73}, {"time": 1619, "pitch": 71, "duration": 3, "velocity": 75}, {"time": 1625, "pitch": 71, "duration": 5, "velocity": 75}, {"time": 1631, "pitch": 73, "duration": 4, "velocity": 74}, {"time": 1637, "pitch": 71, "duration": 8, "velocity": 74}, {"time": 1649, "pitch": 68, "duration": 9, "velocity": 67}, {"time": 1661, "pitch": 71, "duration": 11, "velocity": 69}, {"time": 1673, "pitch": 70, "duration": 7, "velocity": 77}, {"time": 1685, "pitch": 66, "duration": 51, "velocity": 69}, {"time": 1757, "pitch": 71, "duration": 2, "velocity": 63}, {"time": 1763, "pitch": 71, "duration": 2, "velocity": 69}, {"time": 1769, "pitch": 71, "duration": 4, "velocity": 74}, {"time": 1775, "pitch": 73, "duration": 5, "velocity": 71}, {"time": 1781, "pitch": 76, "duration": 13, "velocity": 83}, {"time": 1793, "pitch": 73, "duration": 9, "velocity": 67}, {"time": 1805, "pitch": 71, "duration": 9, "velocity": 81}, {"time": 1817, "pitch": 71, "duration": 6, "velocity": 68}, {"time": 1823, "pitch": 73, "duration": 7, "velocity": 79}, {"time": 1829, "pitch": 71, "duration": 11, "velocity": 76}, {"time": 1841, "pitch": 68, "duration": 13, "velocity": 76}, {"time": 1853, "pitch": 71, "duration": 13, "velocity": 83}, {"time": 1865, "pitch": 73, "duration": 10, "velocity": 81}, {"time": 1877, "pitch": 75, "duration": 7, "velocity": 86}, {"time": 1889, "pitch": 70, "duration": 9, "velocity": 75}, {"time": 1901, "pitch": 75, "duration": 6, "velocity": 81}, {"time": 1913, "pitch": 73, "duration": 7, "velocity": 74}, {"time": 1925, "pitch": 71, "duration": 19, "velocity": 64}, {"time": 1949, "pitch": 71, "duration": 6, "velocity": 70}, {"time": 1955, "pitch": 78, "duration": 7, "velocity": 87}, {"time": 1961, "pitch": 75, "duration": 12, "velocity": 70}, {"time": 1973, "pitch": 70, "duration": 20, "velocity": 85}, {"time": 1997, "pitch": 70, "duration": 6, "velocity": 62}, {"time": 2003, "pitch": 78, "duration": 7, "velocity": 100}, {"time": 2009, "pitch": 75, "duration": 8, "velocity": 64}, {"time": 2021, "pitch": 68, "duration": 25, "velocity": 67}, {"time": 2057, "pitch": 68, "duration": 3, "velocity": 71}, {"time": 2063, "pitch": 68, "duration": 3, "velocity": 64}, {"time": 2069, "pitch": 68, "duration": 3, "velocity": 66}, {"time": 2075, "pitch": 68, "duration": 7, "velocity": 87}, {"time": 2081, "pitch": 70, "duration": 9, "velocity": 76}, {"time": 2093, "pitch": 71, "duration": 9, "velocity": 95}, {"time": 2105, "pitch": 76, "duration": 8, "velocity": 81}, {"time": 2117, "pitch": 75, "duration": 23, "velocity": 79}, {"time": 2141, "pitch": 75, "duration": 6, "velocity": 73}, {"time": 2147, "pitch": 78, "duration": 6, "velocity": 95}, {"time": 2153, "pitch": 75, "duration": 12, "velocity": 68}, {"time": 2165, "pitch": 70, "duration": 21, "velocity": 68}, {"time": 2189, "pitch": 70, "duration": 6, "velocity": 61}, {"time": 2195, "pitch": 78, "duration": 6, "velocity": 87}, {"time": 2201, "pitch": 75, "duration": 7, "velocity": 65}, {"time": 2207, "pitch": 78, "duration": 6, "velocity": 93}, {"time": 2213, "pitch": 70, "duration": 10, "velocity": 74}, {"time": 2225, "pitch": 68, "duration": 17, "velocity": 73}, {"time": 2273, "pitch": 76, "duration": 7, "velocity": 85}, {"time": 2279, "pitch": 75, "duration": 6, "velocity": 65}, {"time": 2285, "pitch": 71, "duration": 7, "velocity": 68}, {"time": 2291, "pitch": 76, "duration": 7, "velocity": 72}, {"time": 2297, "pitch": 75, "duration": 6, "velocity": 65}, {"time": 2303, "pitch": 76, "duration": 8, "velocity": 87}, {"time": 2309, "pitch": 75, "duration": 17, "velocity": 81}, {"time": 2321, "pitch": 71, "duration": 18, "velocity": 74}, {"time": 2339, "pitch": 71, "duration": 7, "velocity": 74}, {"time": 2345, "pitch": 73, "duration": 6, "velocity": 75}, {"time": 2351, "pitch": 71, "duration": 6, "velocity": 73}, {"time": 2357, "pitch": 75, "duration": 12, "velocity": 98}, {"time": 2369, "pitch": 70, "duration": 15, "velocity": 93}, {"time": 2387, "pitch": 70, "duration": 7, "velocity": 108}, {"time": 2393, "pitch": 71, "duration": 6, "velocity": 85}, {"time": 2399, "pitch": 73, "duration": 7, "velocity": 71}, {"time": 2405, "pitch": 75, "duration": 13, "velocity": 75}, {"time": 2417, "pitch": 71, "duration": 3, "velocity": 61}, {"time": 2423, "pitch": 71, "duration": 3, "velocity": 75}, {"time": 2429, "pitch": 71, "duration": 6, "velocity": 74}, {"time": 2435, "pitch": 80, "duration": 5, "velocity": 108}, {"time": 2441, "pitch": 78, "duration": 9, "velocity": 117}, {"time": 2453, "pitch": 73, "duration": 6, "velocity": 98}, {"time": 2459, "pitch": 71, "duration": 21, "velocity": 72}, {"time": 2483, "pitch": 71, "duration": 6, "velocity": 74}, {"time": 2489, "pitch": 73, "duration": 6, "velocity": 69}, {"time": 2495, "pitch": 71, "duration": 7, "velocity": 74}, {"time": 2501, "pitch": 75, "duration": 12, "velocity": 93}, {"time": 2513, "pitch": 71, "duration": 3, "velocity": 68}, {"time": 2519, "pitch": 71, "duration": 4, "velocity": 85}, {"time": 2525, "pitch": 71, "duration": 3, "velocity": 70}, {"time": 2531, "pitch": 71, "duration": 3, "velocity": 74}, {"time": 2537, "pitch": 68, "duration": 2, "velocity": 74}, {"time": 2543, "pitch": 71, "duration": 4, "velocity": 83}, {"time": 2549, "pitch": 70, "duration": 27, "velocity": 104}, {"time": 2579, "pitch": 71, "duration": 7, "velocity": 93}, {"time": 2585, "pitch": 73, "duration": 6, "velocity": 73}, {"time": 2591, "pitch": 71, "duration": 7, "velocity": 79}, {"time": 2597, "pitch": 75, "duration": 9, "velocity": 104}, {"time": 2609, "pitch": 71, "duration": 2, "velocity": 69}, {"time": 2615, "pitch": 71, "duration": 3, "velocity": 93}, {"time": 2621, "pitch": 71, "duration": 2, "velocity": 85}, {"time": 2627, "pitch": 71, "duration": 5, "velocity": 111}, {"time": 2633, "pitch": 73, "duration": 7, "velocity": 73}, {"time": 2639, "pitch": 75, "duration": 4, "velocity": 77}, {"time": 2645, "pitch": 76, "duration": 13, "velocity": 111}, {"time": 2663, "pitch": 75, "duration": 6, "velocity": 85}, {"time": 2669, "pitch": 76, "duration": 14, "velocity": 83}, {"time": 2687, "pitch": 75, "duration": 6, "velocity": 98}, {"time": 2693, "pitch": 78, "duration": 48, "velocity": 117}, {"time": 2741, "pitch": 82, "duration": 21, "velocity": 100}, {"time": 2765, "pitch": 78, "duration": 6, "velocity": 112}, {"time": 2777, "pitch": 76, "duration": 6, "velocity": 87}, {"time": 2783, "pitch": 75, "duration": 6, "velocity": 90}, {"time": 2789, "pitch": 76, "duration": 36, "velocity": 104}, {"time": 2837, "pitch": 68, "duration": 6, "velocity": 74}, {"time": 2843, "pitch": 76, "duration": 11, "velocity": 87}, {"time": 2855, "pitch": 75, "duration": 3, "velocity": 77}, {"time": 2861, "pitch": 76, "duration": 8, "velocity": 81}, {"time": 2873, "pitch": 78, "duration": 8, "velocity": 108}, {"time": 2885, "pitch": 75, "duration": 20, "velocity": 98}, {"time": 2909, "pitch": 75, "duration": 6, "velocity": 79}, {"time": 2915, "pitch": 78, "duration": 7, "velocity": 90}, {"time": 2921, "pitch": 75, "duration": 11, "velocity": 81}, {"time": 2933, "pitch": 70, "duration": 19, "velocity": 95}, {"time": 2957, "pitch": 70, "duration": 7, "velocity": 77}, {"time": 2963, "pitch": 78, "duration": 8, "velocity": 93}, {"time": 2969, "pitch": 75, "duration": 4, "velocity": 71}, {"time": 2975, "pitch": 78, "duration": 4, "velocity": 95}, {"time": 2981, "pitch": 70, "duration": 8, "velocity": 85}, {"time": 2993, "pitch": 68, "duration": 41, "velocity": 74}, {"time": 3041, "pitch": 76, "duration": 7, "velocity": 74}, {"time": 3047, "pitch": 75, "duration": 6, "velocity": 68}, {"time": 3053, "pitch": 71, "duration": 8, "velocity": 63}, {"time": 3059, "pitch": 76, "duration": 7, "velocity": 72}, {"time": 3065, "pitch": 75, "duration": 7, "velocity": 74}, {"time": 3071, "pitch": 76, "duration": 6, "velocity": 95}, {"time": 3077, "pitch": 75, "duration": 76, "velocity": 86}, {"time": 3155, "pitch": 70, "duration": 9, "velocity": 83}, {"time": 3167, "pitch": 71, "duration": 4, "velocity": 85}, {"time": 3173, "pitch": 71, "duration": 12, "velocity": 90}, {"time": 3185, "pitch": 68, "duration": 40, "velocity": 75}]}, {"program": 0, "is_drum": false, "name": "PIANO", "notes": [{"time": 11, "pitch": 44, "duration": 45, "velocity": 62}, {"time": 11, "pitch": 52, "duration": 45, "velocity": 56}, {"time": 11, "pitch": 56, "duration": 44, "velocity": 60}, {"time": 11, "pitch": 59, "duration": 45, "velocity": 62}, {"time": 11, "pitch": 63, "duration": 7, "velocity": 66}, {"time": 23, "pitch": 63, "duration": 8, "velocity": 66}, {"time": 35, "pitch": 63, "duration": 7, "velocity": 69}, {"time": 47, "pitch": 63, "duration": 6, "velocity": 73}, {"time": 53, "pitch": 64, "duration": 6, "velocity": 68}, {"time": 59, "pitch": 42, "duration": 45, "velocity": 62}, {"time": 59, "pitch": 54, "duration": 47, "velocity": 64}, {"time": 59, "pitch": 59, "duration": 94, "velocity": 59}, {"time": 59, "pitch": 63, "duration": 9, "velocity": 70}, {"time": 71, "pitch": 63, "duration": 9, "velocity": 66}, {"time": 83, "pitch": 63, "duration": 9, "velocity": 63}, {"time": 95, "pitch": 63, "duration": 7, "velocity": 61}, {"time": 101, "pitch": 64, "duration": 7, "velocity": 65}, {"time": 107, "pitch": 44, "duration": 45, "velocity": 62}, {"time": 107, "pitch": 52, "duration": 45, "velocity": 63}, {"time": 107, "pitch": 56, "duration": 45, "velocity": 68}, {"time": 107, "pitch": 63, "duration": 9, "velocity": 67}, {"time": 119, "pitch": 63, "duration": 9, "velocity": 63}, {"time": 131, "pitch": 63, "duration": 8, "velocity": 62}, {"time": 143, "pitch": 63, "duration": 7, "velocity": 67}, {"time": 149, "pitch": 64, "duration": 5, "velocity": 64}, {"time": 155, "pitch": 42, "duration": 45, "velocity": 62}, {"time": 155, "pitch": 54, "duration": 46, "velocity": 63}, {"time": 155, "pitch": 59, "duration": 48, "velocity": 61}, {"time": 155, "pitch": 63, "duration": 45, "velocity": 65}, {"time": 203, "pitch": 44, "duration": 45, "velocity": 62}, {"time": 203, "pitch": 52, "duration": 45, "velocity": 56}, {"time": 203, "pitch": 56, "duration": 44, "velocity": 60}, {"time": 203, "pitch": 59, "duration": 45, "velocity": 62}, {"time": 203, "pitch": 63, "duration": 7, "velocity": 66}, {"time": 215, "pitch": 63, "duration": 8, "velocity": 66}, {"time": 227, "pitch": 63, "duration": 7, "velocity": 69}, {"time": 239, "pitch": 63, "duration": 6, "velocity": 73}, {"time": 245, "pitch": 64, "duration": 6, "velocity": 68}, {"time": 251, "pitch": 42, "duration": 45, "velocity": 62}, {"time": 251, "pitch": 54, "duration": 47, "velocity": 64}, {"time": 251, "pitch": 59, "duration": 94, "velocity": 59}, {"time": 251, "pitch": 63, "duration": 9, "velocity": 70}, {"time": 263, "pitch": 63, "duration": 9, "velocity": 66}, {"time": 275, "pitch": 63, "duration": 9, "velocity": 63}, {"time": 287, "pitch": 63, "duration": 7, "velocity": 61}, {"time": 293, "pitch": 64, "duration": 7, "velocity": 65}, {"time": 299, "pitch": 44, "duration": 45, "velocity": 62}, {"time": 299, "pitch": 52, "duration": 45, "velocity": 63}, {"time": 299, "pitch": 56, "duration": 45, "velocity": 68}, {"time": 299, "pitch": 63, "duration": 9, "velocity": 67}, {"time": 311, "pitch": 63, "duration": 9, "velocity": 63}, {"time": 323, "pitch": 63, "duration": 8, "velocity": 62}, {"time": 335, "pitch": 63, "duration": 7, "velocity": 67}, {"time": 341, "pitch": 64, "duration": 5, "velocity": 64}, {"time": 347, "pitch": 42, "duration": 45, "velocity": 62}, {"time": 347, "pitch": 54, "duration": 46, "velocity": 63}, {"time": 347, "pitch": 59, "duration": 48, "velocity": 61}, {"time": 347, "pitch": 63, "duration": 34, "velocity": 65}, {"time": 383, "pitch": 63, "duration": 7, "velocity": 79}, {"time": 389, "pitch": 64, "duration": 5, "velocity": 85}, {"time": 395, "pitch": 44, "duration": 45, "velocity": 62}, {"time": 395, "pitch": 52, "duration": 45, "velocity": 56}, {"time": 395, "pitch": 56, "duration": 44, "velocity": 60}, {"time": 395, "pitch": 59, "duration": 45, "velocity": 62}, {"time": 395, "pitch": 63, "duration": 7, "velocity": 66}, {"time": 407, "pitch": 63, "duration": 8, "velocity": 66}, {"time": 419, "pitch": 63, "duration": 7, "velocity": 69}, {"time": 431, "pitch": 63, "duration": 6, "velocity": 73}, {"time": 437, "pitch": 64, "duration": 6, "velocity": 68}, {"time": 443, "pitch": 42, "duration": 45, "velocity": 62}, {"time": 443, "pitch": 54, "duration": 47, "velocity": 64}, {"time": 443, "pitch": 59, "duration": 94, "velocity": 59}, {"time": 443, "pitch": 63, "duration": 9, "velocity": 70}, {"time": 455, "pitch": 63, "duration": 9, "velocity": 66}, {"time": 467, "pitch": 63, "duration": 9, "velocity": 63}, {"time": 479, "pitch": 63, "duration": 7, "velocity": 61}, {"time": 485, "pitch": 64, "duration": 7, "velocity": 65}, {"time": 491, "pitch": 44, "duration": 45, "velocity": 62}, {"time": 491, "pitch": 52, "duration": 45, "velocity": 63}, {"time": 491, "pitch": 56, "duration": 45, "velocity": 68}, {"time": 491, "pitch": 63, "duration": 9, "velocity": 67}, {"time": 503, "pitch": 63, "duration": 9, "velocity": 63}, {"time": 515, "pitch": 63, "duration": 8, "velocity": 62}, {"time": 527, "pitch": 63, "duration": 7, "velocity": 67}, {"time": 533, "pitch": 64, "duration": 5, "velocity": 64}, {"time": 539, "pitch": 42, "duration": 48, "velocity": 43}, {"time": 539, "pitch": 49, "duration": 46, "velocity": 65}, {"time": 539, "pitch": 54, "duration": 32, "velocity": 45}, {"time": 539, "pitch": 58, "duration": 9, "velocity": 61}, {"time": 539, "pitch": 61, "duration": 9, "velocity": 69}, {"time": 551, "pitch": 58, "duration": 10, "velocity": 60}, {"time": 551, "pitch": 61, "duration": 10, "velocity": 65}, {"time": 563, "pitch": 58, "duration": 10, "velocity": 66}, {"time": 563, "pitch": 61, "duration": 10, "velocity": 72}, {"time": 575, "pitch": 61, "duration": 8, "velocity": 81}, {"time": 581, "pitch": 54, "duration": 6, "velocity": 73}, {"time": 587, "pitch": 44, "duration": 48, "velocity": 43}, {"time": 587, "pitch": 52, "duration": 45, "velocity": 56}, {"time": 587, "pitch": 56, "duration": 44, "velocity": 60}, {"time": 587, "pitch": 59, "duration": 45, "velocity": 62}, {"time": 587, "pitch": 63, "duration": 7, "velocity": 66}, {"time": 599, "pitch": 63, "duration": 8, "velocity": 66}, {"time": 611, "pitch": 63, "duration": 7, "velocity": 69}, {"time": 623, "pitch": 63, "duration": 6, "velocity": 73}, {"time": 629, "pitch": 64, "duration": 6, "velocity": 68}, {"time": 635, "pitch": 42, "duration": 48, "velocity": 43}, {"time": 635, "pitch": 54, "duration": 47, "velocity": 64}, {"time": 635, "pitch": 59, "duration": 94, "velocity": 59}, {"time": 635, "pitch": 63, "duration": 9, "velocity": 70}, {"time": 647, "pitch": 63, "duration": 9, "velocity": 66}, {"time": 659, "pitch": 63, "duration": 9, "velocity": 63}, {"time": 671, "pitch": 63, "duration": 7, "velocity": 61}, {"time": 677, "pitch": 64, "duration": 7, "velocity": 65}, {"time": 683, "pitch": 44, "duration": 48, "velocity": 43}, {"time": 683, "pitch": 52, "duration": 45, "velocity": 63}, {"time": 683, "pitch": 56, "duration": 45, "velocity": 68}, {"time": 683, "pitch": 63, "duration": 9, "velocity": 67}, {"time": 695, "pitch": 63, "duration": 9, "velocity": 63}, {"time": 707, "pitch": 63, "duration": 8, "velocity": 62}, {"time": 719, "pitch": 63, "duration": 7, "velocity": 67}, {"time": 725, "pitch": 64, "duration": 5, "velocity": 64}, {"time": 731, "pitch": 42, "duration": 48, "velocity": 43}, {"time": 731, "pitch": 54, "duration": 46, "velocity": 63}, {"time": 731, "pitch": 59, "duration": 6, "velocity": 72}, {"time": 731, "pitch": 63, "duration": 7, "velocity": 86}, {"time": 743, "pitch": 59, "duration": 8, "velocity": 73}, {"time": 743, "pitch": 63, "duration": 8, "velocity": 76}, {"time": 755, "pitch": 59, "duration": 8, "velocity": 79}, {"time": 755, "pitch": 63, "duration": 7, "velocity": 79}, {"time": 767, "pitch": 59, "duration": 8, "velocity": 77}, {"time": 767, "pitch": 63, "duration": 9, "velocity": 95}, {"time": 779, "pitch": 44, "duration": 48, "velocity": 43}, {"time": 779, "pitch": 52, "duration": 45, "velocity": 56}, {"time": 779, "pitch": 56, "duration": 44, "velocity": 60}, {"time": 779, "pitch": 59, "duration": 45, "velocity": 62}, {"time": 779, "pitch": 63, "duration": 7, "velocity": 66}, {"time": 791, "pitch": 63, "duration": 8, "velocity": 66}, {"time": 803, "pitch": 63, "duration": 7, "velocity": 69}, {"time": 815, "pitch": 63, "duration": 6, "velocity": 73}, {"time": 821, "pitch": 64, "duration": 6, "velocity": 68}, {"time": 827, "pitch": 42, "duration": 48, "velocity": 43}, {"time": 827, "pitch": 54, "duration": 47, "velocity": 64}, {"time": 827, "pitch": 59, "duration": 46, "velocity": 59}, {"time": 827, "pitch": 63, "duration": 9, "velocity": 70}, {"time": 839, "pitch": 63, "duration": 9, "velocity": 66}, {"time": 851, "pitch": 63, "duration": 9, "velocity": 63}, {"time": 863, "pitch": 63, "duration": 7, "velocity": 61}, {"time": 869, "pitch": 64, "duration": 7, "velocity": 65}, {"time": 875, "pitch": 44, "duration": 48, "velocity": 43}, {"time": 875, "pitch": 52, "duration": 45, "velocity": 63}, {"time": 875, "pitch": 56, "duration": 45, "velocity": 68}, {"time": 875, "pitch": 59, "duration": 43, "velocity": 69}, {"time": 875, "pitch": 63, "duration": 9, "velocity": 67}, {"time": 887, "pitch": 63, "duration": 9, "velocity": 63}, {"time": 899, "pitch": 63, "duration": 8, "velocity": 62}, {"time": 911, "pitch": 63, "duration": 7, "velocity": 67}, {"time": 917, "pitch": 64, "duration": 5, "velocity": 64}, {"time": 923, "pitch": 42, "duration": 49, "velocity": 60}, {"time": 923, "pitch": 49, "duration": 48, "velocity": 77}, {"time": 923, "pitch": 54, "duration": 48, "velocity": 58}, {"time": 923, "pitch": 58, "duration": 8, "velocity": 62}, {"time": 923, "pitch": 61, "duration": 9, "velocity": 74}, {"time": 935, "pitch": 58, "duration": 9, "velocity": 65}, {"time": 935, "pitch": 61, "duration": 9, "velocity": 70}, {"time": 947, "pitch": 58, "duration": 9, "velocity": 66}, {"time": 947, "pitch": 61, "duration": 9, "velocity": 71}, {"time": 959, "pitch": 58, "duration": 8, "velocity": 67}, {"time": 959, "pitch": 61, "duration": 8, "velocity": 74}, {"time": 971, "pitch": 47, "duration": 41, "velocity": 76}, {"time": 971, "pitch": 54, "duration": 45, "velocity": 61}, {"time": 971, "pitch": 63, "duration": 10, "velocity": 68}, {"time": 971, "pitch": 66, "duration": 10, "velocity": 77}, {"time": 983, "pitch": 63, "duration": 10, "velocity": 68}, {"time": 983, "pitch": 66, "duration": 10, "velocity": 81}, {"time": 995, "pitch": 63, "duration": 10, "velocity": 74}, {"time": 995, "pitch": 66, "duration": 10, "velocity": 77}, {"time": 1007, "pitch": 63, "duration": 6, "velocity": 83}, {"time": 1007, "pitch": 66, "duration": 10, "velocity": 86}, {"time": 1019, "pitch": 39, "duration": 43, "velocity": 74}, {"time": 1019, "pitch": 54, "duration": 10, "velocity": 62}, {"time": 1019, "pitch": 58, "duration": 10, "velocity": 66}, {"time": 1031, "pitch": 54, "duration": 10, "velocity": 65}, {"time": 1031, "pitch": 58, "duration": 10, "velocity": 74}, {"time": 1037, "pitch": 46, "duration": 28, "velocity": 54}, {"time": 1043, "pitch": 54, "duration": 10, "velocity": 62}, {"time": 1043, "pitch": 58, "duration": 10, "velocity": 74}, {"time": 1055, "pitch": 54, "duration": 8, "velocity": 69}, {"time": 1055, "pitch": 58, "duration": 8, "velocity": 75}, {"time": 1067, "pitch": 40, "duration": 45, "velocity": 69}, {"time": 1067, "pitch": 56, "duration": 11, "velocity": 66}, {"time": 1067, "pitch": 59, "duration": 11, "velocity": 74}, {"time": 1073, "pitch": 47, "duration": 41, "velocity": 47}, {"time": 1079, "pitch": 56, "duration": 10, "velocity": 60}, {"time": 1079, "pitch": 59, "duration": 11, "velocity": 59}, {"time": 1091, "pitch": 56, "duration": 10, "velocity": 73}, {"time": 1091, "pitch": 59, "duration": 10, "velocity": 77}, {"time": 1097, "pitch": 52, "duration": 8, "velocity": 52}, {"time": 1103, "pitch": 56, "duration": 9, "velocity": 76}, {"time": 1103, "pitch": 59, "duration": 9, "velocity": 79}, {"time": 1109, "pitch": 52, "duration": 4, "velocity": 49}, {"time": 1115, "pitch": 42, "duration": 40, "velocity": 76}, {"time": 1115, "pitch": 58, "duration": 10, "velocity": 68}, {"time": 1115, "pitch": 61, "duration": 10, "velocity": 75}, {"time": 1121, "pitch": 49, "duration": 37, "velocity": 54}, {"time": 1127, "pitch": 58, "duration": 10, "velocity": 72}, {"time": 1127, "pitch": 61, "duration": 10, "velocity": 85}, {"time": 1139, "pitch": 58, "duration": 9, "velocity": 79}, {"time": 1139, "pitch": 61, "duration": 9, "velocity": 81}, {"time": 1151, "pitch": 58, "duration": 6, "velocity": 87}, {"time": 1151, "pitch": 61, "duration": 6, "velocity": 85}, {"time": 1163, "pitch": 47, "duration": 38, "velocity": 85}, {"time": 1163, "pitch": 63, "duration": 10, "velocity": 76}, {"time": 1163, "pitch": 66, "duration": 10, "velocity": 77}, {"time": 1175, "pitch": 63, "duration": 10, "velocity": 81}, {"time": 1175, "pitch": 66, "duration": 10, "velocity": 79}, {"time": 1187, "pitch": 63, "duration": 10, "velocity": 83}, {"time": 1187, "pitch": 66, "duration": 10, "velocity": 86}, {"time": 1199, "pitch": 63, "duration": 7, "velocity": 90}, {"time": 1199, "pitch": 66, "duration": 7, "velocity": 85}, {"time": 1211, "pitch": 39, "duration": 44, "velocity": 73}, {"time": 1211, "pitch": 54, "duration": 11, "velocity": 70}, {"time": 1211, "pitch": 58, "duration": 11, "velocity": 77}, {"time": 1223, "pitch": 54, "duration": 10, "velocity": 75}, {"time": 1223, "pitch": 58, "duration": 10, "velocity": 79}, {"time": 1235, "pitch": 54, "duration": 10, "velocity": 72}, {"time": 1235, "pitch": 58, "duration": 10, "velocity": 77}, {"time": 1241, "pitch": 46, "duration": 17, "velocity": 62}, {"time": 1247, "pitch": 51, "duration": 12, "velocity": 2}, {"time": 1247, "pitch": 54, "duration": 8, "velocity": 79}, {"time": 1247, "pitch": 58, "duration": 8, "velocity": 83}, {"time": 1259, "pitch": 40, "duration": 43, "velocity": 81}, {"time": 1259, "pitch": 56, "duration": 8, "velocity": 64}, {"time": 1259, "pitch": 59, "duration": 9, "velocity": 73}, {"time": 1265, "pitch": 47, "duration": 43, "velocity": 64}, {"time": 1271, "pitch": 56, "duration": 10, "velocity": 68}, {"time": 1271, "pitch": 59, "duration": 10, "velocity": 75}, {"time": 1283, "pitch": 56, "duration": 9, "velocity": 68}, {"time": 1283, "pitch": 59, "duration": 9, "velocity": 75}, {"time": 1295, "pitch": 56, "duration": 7, "velocity": 77}, {"time": 1295, "pitch": 59, "duration": 8, "velocity": 79}, {"time": 1301, "pitch": 52, "duration": 4, "velocity": 14}, {"time": 1307, "pitch": 42, "duration": 41, "velocity": 76}, {"time": 1307, "pitch": 58, "duration": 9, "velocity": 68}, {"time": 1307, "pitch": 61, "duration": 9, "velocity": 73}, {"time": 1313, "pitch": 49, "duration": 36, "velocity": 53}, {"time": 1319, "pitch": 58, "duration": 10, "velocity": 76}, {"time": 1319, "pitch": 61, "duration": 10, "velocity": 81}, {"time": 1331, "pitch": 58, "duration": 9, "velocity": 70}, {"time": 1331, "pitch": 61, "duration": 9, "velocity": 73}, {"time": 1343, "pitch": 58, "duration": 7, "velocity": 77}, {"time": 1343, "pitch": 61, "duration": 7, "velocity": 77}, {"time": 1349, "pitch": 54, "duration": 6, "velocity": 47}, {"time": 1355, "pitch": 47, "duration": 41, "velocity": 67}, {"time": 1355, "pitch": 59, "duration": 9, "velocity": 61}, {"time": 1355, "pitch": 63, "duration": 9, "velocity": 79}, {"time": 1361, "pitch": 54, "duration": 41, "velocity": 53}, {"time": 1367, "pitch": 59, "duration": 10, "velocity": 61}, {"time": 1367, "pitch": 63, "duration": 11, "velocity": 74}, {"time": 1379, "pitch": 59, "duration": 8, "velocity": 63}, {"time": 1379, "pitch": 63, "duration": 8, "velocity": 74}, {"time": 1391, "pitch": 59, "duration": 11, "velocity": 63}, {"time": 1391, "pitch": 63, "duration": 4, "velocity": 72}, {"time": 1397, "pitch": 64, "duration": 5, "velocity": 79}, {"time": 1403, "pitch": 46, "duration": 44, "velocity": 73}, {"time": 1403, "pitch": 59, "duration": 11, "velocity": 71}, {"time": 1403, "pitch": 63, "duration": 10, "velocity": 71}, {"time": 1409, "pitch": 54, "duration": 37, "velocity": 60}, {"time": 1415, "pitch": 59, "duration": 11, "velocity": 73}, {"time": 1415, "pitch": 63, "duration": 11, "velocity": 76}, {"time": 1427, "pitch": 59, "duration": 9, "velocity": 62}, {"time": 1427, "pitch": 63, "duration": 9, "velocity": 77}, {"time": 1439, "pitch": 59, "duration": 9, "velocity": 65}, {"time": 1439, "pitch": 63, "duration": 5, "velocity": 70}, {"time": 1445, "pitch": 64, "duration": 5, "velocity": 68}, {"time": 1451, "pitch": 44, "duration": 45, "velocity": 62}, {"time": 1451, "pitch": 59, "duration": 10, "velocity": 67}, {"time": 1451, "pitch": 63, "duration": 10, "velocity": 74}, {"time": 1463, "pitch": 59, "duration": 10, "velocity": 61}, {"time": 1463, "pitch": 63, "duration": 10, "velocity": 74}, {"time": 1475, "pitch": 59, "duration": 8, "velocity": 63}, {"time": 1475, "pitch": 63, "duration": 8, "velocity": 73}, {"time": 1487, "pitch": 59, "duration": 12, "velocity": 67}, {"time": 1487, "pitch": 63, "duration": 7, "velocity": 71}, {"time": 1493, "pitch": 64, "duration": 5, "velocity": 70}, {"time": 1498, "pitch": 64, "duration": 1, "velocity": 63}, {"time": 1499, "pitch": 67, "duration": 48, "velocity": 62}, {"time": 1499, "pitch": 71, "duration": 48, "velocity": 63}, {"time": 1499, "pitch": 52, "duration": 47, "velocity": 67}, {"time": 1547, "pitch": 39, "duration": 35, "velocity": 92}, {"time": 1547, "pitch": 63, "duration": 6, "velocity": 81}, {"time": 1547, "pitch": 66, "duration": 5, "velocity": 88}, {"time": 1547, "pitch": 70, "duration": 5, "velocity": 72}, {"time": 1553, "pitch": 51, "duration": 9, "velocity": 82}, {"time": 1559, "pitch": 63, "duration": 4, "velocity": 97}, {"time": 1559, "pitch": 66, "duration": 2, "velocity": 117}, {"time": 1559, "pitch": 70, "duration": 3, "velocity": 92}, {"time": 1568, "pitch": 63, "duration": 6, "velocity": 83}, {"time": 1568, "pitch": 66, "duration": 5, "velocity": 95}, {"time": 1568, "pitch": 70, "duration": 5, "velocity": 82}, {"time": 1571, "pitch": 51, "duration": 9, "velocity": 53}, {"time": 1577, "pitch": 63, "duration": 3, "velocity": 75}, {"time": 1577, "pitch": 66, "duration": 3, "velocity": 81}, {"time": 1577, "pitch": 70, "duration": 3, "velocity": 62}, {"time": 1583, "pitch": 63, "duration": 2, "velocity": 97}, {"time": 1583, "pitch": 66, "duration": 6, "velocity": 127}, {"time": 1583, "pitch": 70, "duration": 6, "velocity": 100}, {"time": 1589, "pitch": 63, "duration": 1, "velocity": 72}, {"time": 1595, "pitch": 47, "duration": 22, "velocity": 72}, {"time": 1595, "pitch": 59, "duration": 8, "velocity": 90}, {"time": 1595, "pitch": 63, "duration": 7, "velocity": 97}, {"time": 1595, "pitch": 66, "duration": 7, "velocity": 92}, {"time": 1601, "pitch": 54, "duration": 7, "velocity": 48}, {"time": 1607, "pitch": 59, "duration": 2, "velocity": 75}, {"time": 1607, "pitch": 63, "duration": 2, "velocity": 97}, {"time": 1607, "pitch": 66, "duration": 2, "velocity": 89}, {"time": 1616, "pitch": 59, "duration": 12, "velocity": 75}, {"time": 1616, "pitch": 63, "duration": 13, "velocity": 90}, {"time": 1616, "pitch": 66, "duration": 13, "velocity": 82}, {"time": 1619, "pitch": 47, "duration": 10, "velocity": 76}, {"time": 1625, "pitch": 54, "duration": 4, "velocity": 77}, {"time": 1631, "pitch": 59, "duration": 2, "velocity": 38}, {"time": 1631, "pitch": 63, "duration": 7, "velocity": 117}, {"time": 1631, "pitch": 66, "duration": 6, "velocity": 100}, {"time": 1637, "pitch": 59, "duration": 1, "velocity": 76}, {"time": 1643, "pitch": 40, "duration": 40, "velocity": 78}, {"time": 1643, "pitch": 59, "duration": 10, "velocity": 92}, {"time": 1643, "pitch": 64, "duration": 11, "velocity": 96}, {"time": 1643, "pitch": 68, "duration": 10, "velocity": 97}, {"time": 1649, "pitch": 47, "duration": 35, "velocity": 42}, {"time": 1655, "pitch": 59, "duration": 2, "velocity": 90}, {"time": 1655, "pitch": 64, "duration": 2, "velocity": 89}, {"time": 1655, "pitch": 68, "duration": 2, "velocity": 92}, {"time": 1661, "pitch": 52, "duration": 8, "velocity": 34}, {"time": 1664, "pitch": 59, "duration": 11, "velocity": 79}, {"time": 1664, "pitch": 64, "duration": 12, "velocity": 89}, {"time": 1664, "pitch": 68, "duration": 12, "velocity": 92}, {"time": 1673, "pitch": 52, "duration": 8, "velocity": 70}, {"time": 1679, "pitch": 64, "duration": 6, "velocity": 102}, {"time": 1679, "pitch": 68, "duration": 7, "velocity": 112}, {"time": 1685, "pitch": 59, "duration": 4, "velocity": 77}, {"time": 1691, "pitch": 47, "duration": 36, "velocity": 72}, {"time": 1691, "pitch": 59, "duration": 9, "velocity": 92}, {"time": 1691, "pitch": 63, "duration": 9, "velocity": 100}, {"time": 1691, "pitch": 66, "duration": 9, "velocity": 95}, {"time": 1697, "pitch": 54, "duration": 21, "velocity": 62}, {"time": 1703, "pitch": 59, "duration": 2, "velocity": 79}, {"time": 1703, "pitch": 63, "duration": 2, "velocity": 100}, {"time": 1703, "pitch": 66, "duration": 1, "velocity": 90}, {"time": 1712, "pitch": 59, "duration": 12, "velocity": 81}, {"time": 1712, "pitch": 63, "duration": 12, "velocity": 100}, {"time": 1712, "pitch": 66, "duration": 12, "velocity": 93}, {"time": 1721, "pitch": 54, "duration": 5, "velocity": 74}, {"time": 1727, "pitch": 63, "duration": 7, "velocity": 122}, {"time": 1727, "pitch": 66, "duration": 7, "velocity": 112}, {"time": 1733, "pitch": 59, "duration": 2, "velocity": 86}, {"time": 1739, "pitch": 40, "duration": 39, "velocity": 85}, {"time": 1739, "pitch": 59, "duration": 7, "velocity": 92}, {"time": 1739, "pitch": 64, "duration": 7, "velocity": 92}, {"time": 1739, "pitch": 68, "duration": 7, "velocity": 95}, {"time": 1745, "pitch": 47, "duration": 33, "velocity": 56}, {"time": 1751, "pitch": 59, "duration": 2, "velocity": 89}, {"time": 1751, "pitch": 64, "duration": 2, "velocity": 86}, {"time": 1751, "pitch": 68, "duration": 2, "velocity": 88}, {"time": 1757, "pitch": 52, "duration": 9, "velocity": 41}, {"time": 1760, "pitch": 59, "duration": 12, "velocity": 79}, {"time": 1760, "pitch": 64, "duration": 12, "velocity": 90}, {"time": 1760, "pitch": 68, "duration": 13, "velocity": 92}, {"time": 1769, "pitch": 52, "duration": 8, "velocity": 63}, {"time": 1775, "pitch": 64, "duration": 6, "velocity": 102}, {"time": 1775, "pitch": 68, "duration": 6, "velocity": 112}, {"time": 1781, "pitch": 59, "duration": 4, "velocity": 83}, {"time": 1787, "pitch": 47, "duration": 34, "velocity": 76}, {"time": 1787, "pitch": 59, "duration": 10, "velocity": 89}, {"time": 1787, "pitch": 63, "duration": 10, "velocity": 112}, {"time": 1787, "pitch": 66, "duration": 10, "velocity": 97}, {"time": 1793, "pitch": 54, "duration": 8, "velocity": 61}, {"time": 1799, "pitch": 59, "duration": 1, "velocity": 82}, {"time": 1799, "pitch": 63, "duration": 2, "velocity": 95}, {"time": 1799, "pitch": 66, "duration": 1, "velocity": 85}, {"time": 1805, "pitch": 54, "duration": 9, "velocity": 40}, {"time": 1808, "pitch": 59, "duration": 10, "velocity": 81}, {"time": 1808, "pitch": 63, "duration": 13, "velocity": 107}, {"time": 1808, "pitch": 66, "duration": 13, "velocity": 99}, {"time": 1817, "pitch": 54, "duration": 4, "velocity": 90}, {"time": 1823, "pitch": 63, "duration": 7, "velocity": 117}, {"time": 1823, "pitch": 66, "duration": 6, "velocity": 107}, {"time": 1829, "pitch": 59, "duration": 1, "velocity": 75}, {"time": 1835, "pitch": 40, "duration": 41, "velocity": 93}, {"time": 1835, "pitch": 59, "duration": 8, "velocity": 88}, {"time": 1835, "pitch": 64, "duration": 7, "velocity": 92}, {"time": 1835, "pitch": 68, "duration": 7, "velocity": 97}, {"time": 1841, "pitch": 47, "duration": 35, "velocity": 59}, {"time": 1847, "pitch": 59, "duration": 2, "velocity": 86}, {"time": 1847, "pitch": 64, "duration": 2, "velocity": 90}, {"time": 1847, "pitch": 68, "duration": 2, "velocity": 92}, {"time": 1853, "pitch": 52, "duration": 10, "velocity": 45}, {"time": 1856, "pitch": 59, "duration": 10, "velocity": 83}, {"time": 1856, "pitch": 64, "duration": 11, "velocity": 93}, {"time": 1856, "pitch": 68, "duration": 11, "velocity": 97}, {"time": 1865, "pitch": 52, "duration": 8, "velocity": 78}, {"time": 1871, "pitch": 64, "duration": 7, "velocity": 100}, {"time": 1871, "pitch": 68, "duration": 7, "velocity": 107}, {"time": 1874, "pitch": 52, "duration": 3, "velocity": 50}, {"time": 1877, "pitch": 59, "duration": 4, "velocity": 82}, {"time": 1883, "pitch": 42, "duration": 35, "velocity": 89}, {"time": 1883, "pitch": 61, "duration": 7, "velocity": 100}, {"time": 1883, "pitch": 66, "duration": 6, "velocity": 99}, {"time": 1883, "pitch": 70, "duration": 6, "velocity": 95}, {"time": 1889, "pitch": 49, "duration": 30, "velocity": 56}, {"time": 1889, "pitch": 66, "duration": 2, "velocity": 27}, {"time": 1895, "pitch": 61, "duration": 2, "velocity": 95}, {"time": 1895, "pitch": 66, "duration": 1, "velocity": 102}, {"time": 1895, "pitch": 70, "duration": 1, "velocity": 93}, {"time": 1901, "pitch": 54, "duration": 9, "velocity": 55}, {"time": 1904, "pitch": 66, "duration": 10, "velocity": 112}, {"time": 1904, "pitch": 70, "duration": 10, "velocity": 100}, {"time": 1913, "pitch": 54, "duration": 7, "velocity": 99}, {"time": 1919, "pitch": 66, "duration": 5, "velocity": 127}, {"time": 1919, "pitch": 70, "duration": 5, "velocity": 117}, {"time": 1925, "pitch": 61, "duration": 1, "velocity": 100}, {"time": 1931, "pitch": 47, "duration": 32, "velocity": 74}, {"time": 1931, "pitch": 59, "duration": 8, "velocity": 93}, {"time": 1931, "pitch": 63, "duration": 8, "velocity": 102}, {"time": 1931, "pitch": 66, "duration": 6, "velocity": 92}, {"time": 1937, "pitch": 54, "duration": 9, "velocity": 57}, {"time": 1943, "pitch": 59, "duration": 1, "velocity": 79}, {"time": 1943, "pitch": 63, "duration": 2, "velocity": 107}, {"time": 1943, "pitch": 66, "duration": 2, "velocity": 95}, {"time": 1949, "pitch": 54, "duration": 10, "velocity": 49}, {"time": 1952, "pitch": 59, "duration": 12, "velocity": 83}, {"time": 1952, "pitch": 63, "duration": 13, "velocity": 102}, {"time": 1952, "pitch": 66, "duration": 13, "velocity": 96}, {"time": 1961, "pitch": 54, "duration": 2, "velocity": 93}, {"time": 1967, "pitch": 63, "duration": 7, "velocity": 127}, {"time": 1967, "pitch": 66, "duration": 7, "velocity": 122}, {"time": 1973, "pitch": 59, "duration": 1, "velocity": 96}, {"time": 1979, "pitch": 39, "duration": 37, "velocity": 97}, {"time": 1979, "pitch": 58, "duration": 3, "velocity": 112}, {"time": 1979, "pitch": 63, "duration": 2, "velocity": 112}, {"time": 1979, "pitch": 66, "duration": 2, "velocity": 99}, {"time": 1985, "pitch": 58, "duration": 2, "velocity": 95}, {"time": 1985, "pitch": 63, "duration": 1, "velocity": 107}, {"time": 1985, "pitch": 66, "duration": 1, "velocity": 93}, {"time": 1991, "pitch": 51, "duration": 2, "velocity": 31}, {"time": 1991, "pitch": 58, "duration": 1, "velocity": 99}, {"time": 1991, "pitch": 63, "duration": 1, "velocity": 127}, {"time": 1991, "pitch": 66, "duration": 1, "velocity": 102}, {"time": 1997, "pitch": 51, "duration": 11, "velocity": 89}, {"time": 2000, "pitch": 58, "duration": 1, "velocity": 92}, {"time": 2000, "pitch": 63, "duration": 1, "velocity": 102}, {"time": 2000, "pitch": 66, "duration": 1, "velocity": 96}, {"time": 2006, "pitch": 58, "duration": 2, "velocity": 95}, {"time": 2006, "pitch": 63, "duration": 1, "velocity": 122}, {"time": 2006, "pitch": 66, "duration": 1, "velocity": 97}, {"time": 2012, "pitch": 51, "duration": 4, "velocity": 78}, {"time": 2015, "pitch": 58, "duration": 2, "velocity": 96}, {"time": 2015, "pitch": 63, "duration": 2, "velocity": 122}, {"time": 2015, "pitch": 66, "duration": 2, "velocity": 102}, {"time": 2021, "pitch": 58, "duration": 1, "velocity": 95}, {"time": 2021, "pitch": 63, "duration": 1, "velocity": 107}, {"time": 2021, "pitch": 66, "duration": 1, "velocity": 88}, {"time": 2027, "pitch": 40, "duration": 40, "velocity": 93}, {"time": 2027, "pitch": 59, "duration": 9, "velocity": 93}, {"time": 2027, "pitch": 64, "duration": 6, "velocity": 95}, {"time": 2027, "pitch": 68, "duration": 6, "velocity": 95}, {"time": 2033, "pitch": 47, "duration": 10, "velocity": 61}, {"time": 2039, "pitch": 52, "duration": 12, "velocity": 82}, {"time": 2039, "pitch": 59, "duration": 2, "velocity": 90}, {"time": 2039, "pitch": 64, "duration": 2, "velocity": 96}, {"time": 2039, "pitch": 68, "duration": 2, "velocity": 96}, {"time": 2042, "pitch": 59, "duration": 1, "velocity": 30}, {"time": 2045, "pitch": 47, "duration": 22, "velocity": 40}, {"time": 2048, "pitch": 59, "duration": 2, "velocity": 89}, {"time": 2048, "pitch": 64, "duration": 2, "velocity": 92}, {"time": 2048, "pitch": 68, "duration": 1, "velocity": 97}, {"time": 2051, "pitch": 52, "duration": 4, "velocity": 63}, {"time": 2054, "pitch": 59, "duration": 7, "velocity": 88}, {"time": 2054, "pitch": 64, "duration": 7, "velocity": 90}, {"time": 2054, "pitch": 68, "duration": 7, "velocity": 96}, {"time": 2060, "pitch": 52, "duration": 4, "velocity": 90}, {"time": 2063, "pitch": 59, "duration": 4, "velocity": 85}, {"time": 2063, "pitch": 64, "duration": 5, "velocity": 96}, {"time": 2063, "pitch": 68, "duration": 7, "velocity": 99}, {"time": 2066, "pitch": 52, "duration": 2, "velocity": 82}, {"time": 2069, "pitch": 59, "duration": 1, "velocity": 93}, {"time": 2075, "pitch": 42, "duration": 41, "velocity": 89}, {"time": 2075, "pitch": 61, "duration": 7, "velocity": 102}, {"time": 2075, "pitch": 66, "duration": 6, "velocity": 102}, {"time": 2075, "pitch": 70, "duration": 6, "velocity": 96}, {"time": 2081, "pitch": 49, "duration": 34, "velocity": 70}, {"time": 2084, "pitch": 54, "duration": 4, "velocity": 73}, {"time": 2087, "pitch": 61, "duration": 6, "velocity": 107}, {"time": 2087, "pitch": 66, "duration": 6, "velocity": 122}, {"time": 2087, "pitch": 70, "duration": 6, "velocity": 112}, {"time": 2093, "pitch": 54, "duration": 11, "velocity": 100}, {"time": 2096, "pitch": 61, "duration": 5, "velocity": 107}, {"time": 2096, "pitch": 66, "duration": 4, "velocity": 122}, {"time": 2096, "pitch": 70, "duration": 4, "velocity": 107}, {"time": 2102, "pitch": 66, "duration": 3, "velocity": 112}, {"time": 2102, "pitch": 70, "duration": 4, "velocity": 112}, {"time": 2105, "pitch": 61, "duration": 9, "velocity": 117}, {"time": 2108, "pitch": 54, "duration": 5, "velocity": 112}, {"time": 2111, "pitch": 70, "duration": 5, "velocity": 127}, {"time": 2114, "pitch": 54, "duration": 3, "velocity": 93}, {"time": 2117, "pitch": 61, "duration": 2, "velocity": 122}, {"time": 2123, "pitch": 47, "duration": 36, "velocity": 81}, {"time": 2123, "pitch": 63, "duration": 7, "velocity": 117}, {"time": 2123, "pitch": 66, "duration": 6, "velocity": 112}, {"time": 2126, "pitch": 54, "duration": 12, "velocity": 97}, {"time": 2129, "pitch": 59, "duration": 5, "velocity": 89}, {"time": 2132, "pitch": 63, "duration": 2, "velocity": 72}, {"time": 2135, "pitch": 59, "duration": 1, "velocity": 81}, {"time": 2135, "pitch": 63, "duration": 2, "velocity": 127}, {"time": 2135, "pitch": 66, "duration": 2, "velocity": 112}, {"time": 2138, "pitch": 54, "duration": 9, "velocity": 71}, {"time": 2141, "pitch": 59, "duration": 7, "velocity": 88}, {"time": 2144, "pitch": 63, "duration": 6, "velocity": 117}, {"time": 2144, "pitch": 66, "duration": 6, "velocity": 112}, {"time": 2150, "pitch": 59, "duration": 8, "velocity": 88}, {"time": 2153, "pitch": 63, "duration": 5, "velocity": 107}, {"time": 2153, "pitch": 66, "duration": 3, "velocity": 28}, {"time": 2156, "pitch": 54, "duration": 2, "velocity": 89}, {"time": 2159, "pitch": 63, "duration": 1, "velocity": 82}, {"time": 2159, "pitch": 66, "duration": 7, "velocity": 127}, {"time": 2165, "pitch": 59, "duration": 1, "velocity": 77}, {"time": 2171, "pitch": 39, "duration": 36, "velocity": 97}, {"time": 2171, "pitch": 63, "duration": 6, "velocity": 99}, {"time": 2171, "pitch": 66, "duration": 6, "velocity": 83}, {"time": 2171, "pitch": 70, "duration": 5, "velocity": 76}, {"time": 2174, "pitch": 46, "duration": 33, "velocity": 72}, {"time": 2177, "pitch": 51, "duration": 7, "velocity": 93}, {"time": 2180, "pitch": 63, "duration": 2, "velocity": 93}, {"time": 2183, "pitch": 66, "duration": 1, "velocity": 127}, {"time": 2183, "pitch": 70, "duration": 1, "velocity": 112}, {"time": 2189, "pitch": 51, "duration": 12, "velocity": 89}, {"time": 2192, "pitch": 63, "duration": 2, "velocity": 97}, {"time": 2192, "pitch": 66, "duration": 1, "velocity": 117}, {"time": 2192, "pitch": 70, "duration": 1, "velocity": 90}, {"time": 2198, "pitch": 66, "duration": 5, "velocity": 112}, {"time": 2198, "pitch": 70, "duration": 7, "velocity": 95}, {"time": 2201, "pitch": 63, "duration": 4, "velocity": 90}, {"time": 2204, "pitch": 51, "duration": 3, "velocity": 92}, {"time": 2207, "pitch": 66, "duration": 5, "velocity": 127}, {"time": 2207, "pitch": 70, "duration": 5, "velocity": 117}, {"time": 2213, "pitch": 63, "duration": 1, "velocity": 100}, {"time": 2219, "pitch": 40, "duration": 42, "velocity": 83}, {"time": 2219, "pitch": 59, "duration": 7, "velocity": 90}, {"time": 2219, "pitch": 64, "duration": 8, "velocity": 92}, {"time": 2219, "pitch": 68, "duration": 7, "velocity": 93}, {"time": 2222, "pitch": 47, "duration": 38, "velocity": 78}, {"time": 2225, "pitch": 52, "duration": 8, "velocity": 93}, {"time": 2228, "pitch": 59, "duration": 4, "velocity": 99}, {"time": 2231, "pitch": 64, "duration": 6, "velocity": 96}, {"time": 2231, "pitch": 68, "duration": 6, "velocity": 107}, {"time": 2237, "pitch": 52, "duration": 12, "velocity": 83}, {"time": 2240, "pitch": 59, "duration": 1, "velocity": 64}, {"time": 2240, "pitch": 64, "duration": 4, "velocity": 93}, {"time": 2240, "pitch": 68, "duration": 4, "velocity": 112}, {"time": 2246, "pitch": 64, "duration": 7, "velocity": 96}, {"time": 2246, "pitch": 68, "duration": 7, "velocity": 100}, {"time": 2249, "pitch": 59, "duration": 6, "velocity": 83}, {"time": 2252, "pitch": 52, "duration": 4, "velocity": 79}, {"time": 2255, "pitch": 64, "duration": 6, "velocity": 99}, {"time": 2255, "pitch": 68, "duration": 6, "velocity": 107}, {"time": 2258, "pitch": 52, "duration": 2, "velocity": 93}, {"time": 2261, "pitch": 59, "duration": 4, "velocity": 99}, {"time": 2264, "pitch": 64, "duration": 1, "velocity": 37}, {"time": 2267, "pitch": 40, "duration": 42, "velocity": 85}, {"time": 2267, "pitch": 59, "duration": 7, "velocity": 100}, {"time": 2267, "pitch": 64, "duration": 9, "velocity": 102}, {"time": 2267, "pitch": 67, "duration": 9, "velocity": 95}, {"time": 2270, "pitch": 47, "duration": 39, "velocity": 71}, {"time": 2273, "pitch": 52, "duration": 10, "velocity": 89}, {"time": 2276, "pitch": 59, "duration": 8, "velocity": 74}, {"time": 2279, "pitch": 64, "duration": 1, "velocity": 59}, {"time": 2279, "pitch": 67, "duration": 10, "velocity": 93}, {"time": 2285, "pitch": 52, "duration": 11, "velocity": 66}, {"time": 2291, "pitch": 59, "duration": 12, "velocity": 63}, {"time": 2291, "pitch": 64, "duration": 11, "velocity": 69}, {"time": 2291, "pitch": 67, "duration": 11, "velocity": 44}, {"time": 2297, "pitch": 52, "duration": 12, "velocity": 58}, {"time": 2303, "pitch": 64, "duration": 11, "velocity": 78}, {"time": 2303, "pitch": 67, "duration": 11, "velocity": 73}, {"time": 2309, "pitch": 59, "duration": 5, "velocity": 82}, {"time": 2315, "pitch": 44, "duration": 3, "velocity": 90}, {"time": 2315, "pitch": 56, "duration": 3, "velocity": 100}, {"time": 2315, "pitch": 59, "duration": 3, "velocity": 85}, {"time": 2315, "pitch": 63, "duration": 3, "velocity": 96}, {"time": 2315, "pitch": 68, "duration": 3, "velocity": 79}, {"time": 2321, "pitch": 44, "duration": 3, "velocity": 70}, {"time": 2321, "pitch": 56, "duration": 3, "velocity": 82}, {"time": 2321, "pitch": 59, "duration": 4, "velocity": 70}, {"time": 2321, "pitch": 63, "duration": 4, "velocity": 79}, {"time": 2321, "pitch": 68, "duration": 4, "velocity": 71}, {"time": 2327, "pitch": 44, "duration": 4, "velocity": 67}, {"time": 2327, "pitch": 56, "duration": 4, "velocity": 72}, {"time": 2327, "pitch": 59, "duration": 4, "velocity": 72}, {"time": 2327, "pitch": 63, "duration": 4, "velocity": 78}, {"time": 2327, "pitch": 68, "duration": 4, "velocity": 70}, {"time": 2333, "pitch": 44, "duration": 4, "velocity": 71}, {"time": 2333, "pitch": 56, "duration": 3, "velocity": 79}, {"time": 2333, "pitch": 59, "duration": 4, "velocity": 72}, {"time": 2333, "pitch": 63, "duration": 4, "velocity": 82}, {"time": 2333, "pitch": 68, "duration": 4, "velocity": 72}, {"time": 2339, "pitch": 44, "duration": 3, "velocity": 81}, {"time": 2339, "pitch": 56, "duration": 3, "velocity": 88}, {"time": 2339, "pitch": 59, "duration": 4, "velocity": 81}, {"time": 2339, "pitch": 63, "duration": 4, "velocity": 96}, {"time": 2339, "pitch": 68, "duration": 4, "velocity": 85}, {"time": 2345, "pitch": 44, "duration": 3, "velocity": 81}, {"time": 2345, "pitch": 56, "duration": 3, "velocity": 95}, {"time": 2345, "pitch": 59, "duration": 3, "velocity": 78}, {"time": 2345, "pitch": 63, "duration": 3, "velocity": 95}, {"time": 2345, "pitch": 68, "duration": 3, "velocity": 83}, {"time": 2351, "pitch": 44, "duration": 3, "velocity": 85}, {"time": 2351, "pitch": 56, "duration": 3, "velocity": 96}, {"time": 2351, "pitch": 59, "duration": 4, "velocity": 86}, {"time": 2351, "pitch": 63, "duration": 3, "velocity": 107}, {"time": 2351, "pitch": 68, "duration": 3, "velocity": 95}, {"time": 2357, "pitch": 44, "duration": 3, "velocity": 77}, {"time": 2357, "pitch": 56, "duration": 3, "velocity": 99}, {"time": 2357, "pitch": 59, "duration": 3, "velocity": 85}, {"time": 2357, "pitch": 63, "duration": 3, "velocity": 117}, {"time": 2357, "pitch": 68, "duration": 3, "velocity": 97}, {"time": 2363, "pitch": 43, "duration": 4, "velocity": 89}, {"time": 2363, "pitch": 59, "duration": 3, "velocity": 88}, {"time": 2363, "pitch": 63, "duration": 3, "velocity": 107}, {"time": 2369, "pitch": 43, "duration": 4, "velocity": 73}, {"time": 2369, "pitch": 59, "duration": 3, "velocity": 73}, {"time": 2369, "pitch": 63, "duration": 3, "velocity": 88}, {"time": 2375, "pitch": 43, "duration": 3, "velocity": 63}, {"time": 2375, "pitch": 55, "duration": 2, "velocity": 95}, {"time": 2375, "pitch": 59, "duration": 3, "velocity": 82}, {"time": 2375, "pitch": 63, "duration": 2, "velocity": 99}, {"time": 2381, "pitch": 43, "duration": 3, "velocity": 53}, {"time": 2381, "pitch": 55, "duration": 3, "velocity": 74}, {"time": 2381, "pitch": 59, "duration": 3, "velocity": 77}, {"time": 2381, "pitch": 63, "duration": 3, "velocity": 95}, {"time": 2387, "pitch": 43, "duration": 3, "velocity": 72}, {"time": 2387, "pitch": 55, "duration": 3, "velocity": 85}, {"time": 2387, "pitch": 59, "duration": 3, "velocity": 83}, {"time": 2387, "pitch": 63, "duration": 3, "velocity": 100}, {"time": 2393, "pitch": 43, "duration": 2, "velocity": 53}, {"time": 2393, "pitch": 55, "duration": 3, "velocity": 78}, {"time": 2393, "pitch": 59, "duration": 3, "velocity": 77}, {"time": 2393, "pitch": 63, "duration": 3, "velocity": 95}, {"time": 2399, "pitch": 43, "duration": 2, "velocity": 75}, {"time": 2399, "pitch": 55, "duration": 3, "velocity": 88}, {"time": 2399, "pitch": 59, "duration": 3, "velocity": 78}, {"time": 2399, "pitch": 63, "duration": 3, "velocity": 97}, {"time": 2405, "pitch": 43, "duration": 1, "velocity": 47}, {"time": 2405, "pitch": 55, "duration": 2, "velocity": 96}, {"time": 2405, "pitch": 59, "duration": 3, "velocity": 92}, {"time": 2405, "pitch": 63, "duration": 2, "velocity": 100}, {"time": 2411, "pitch": 42, "duration": 3, "velocity": 89}, {"time": 2411, "pitch": 54, "duration": 2, "velocity": 77}, {"time": 2411, "pitch": 61, "duration": 3, "velocity": 102}, {"time": 2417, "pitch": 42, "duration": 3, "velocity": 77}, {"time": 2417, "pitch": 54, "duration": 3, "velocity": 83}, {"time": 2417, "pitch": 61, "duration": 3, "velocity": 89}, {"time": 2417, "pitch": 66, "duration": 3, "velocity": 66}, {"time": 2423, "pitch": 42, "duration": 3, "velocity": 76}, {"time": 2423, "pitch": 54, "duration": 3, "velocity": 78}, {"time": 2423, "pitch": 61, "duration": 3, "velocity": 93}, {"time": 2423, "pitch": 66, "duration": 3, "velocity": 78}, {"time": 2429, "pitch": 42, "duration": 3, "velocity": 81}, {"time": 2429, "pitch": 54, "duration": 3, "velocity": 74}, {"time": 2429, "pitch": 61, "duration": 3, "velocity": 102}, {"time": 2429, "pitch": 66, "duration": 3, "velocity": 92}, {"time": 2435, "pitch": 42, "duration": 3, "velocity": 83}, {"time": 2435, "pitch": 54, "duration": 3, "velocity": 76}, {"time": 2435, "pitch": 61, "duration": 3, "velocity": 97}, {"time": 2435, "pitch": 66, "duration": 3, "velocity": 86}, {"time": 2441, "pitch": 42, "duration": 3, "velocity": 82}, {"time": 2441, "pitch": 54, "duration": 3, "velocity": 89}, {"time": 2441, "pitch": 61, "duration": 3, "velocity": 107}, {"time": 2441, "pitch": 66, "duration": 3, "velocity": 97}, {"time": 2447, "pitch": 42, "duration": 4, "velocity": 74}, {"time": 2447, "pitch": 54, "duration": 3, "velocity": 92}, {"time": 2447, "pitch": 61, "duration": 3, "velocity": 112}, {"time": 2447, "pitch": 66, "duration": 3, "velocity": 100}, {"time": 2453, "pitch": 42, "duration": 3, "velocity": 72}, {"time": 2453, "pitch": 54, "duration": 2, "velocity": 88}, {"time": 2453, "pitch": 61, "duration": 4, "velocity": 112}, {"time": 2453, "pitch": 66, "duration": 4, "velocity": 112}, {"time": 2459, "pitch": 41, "duration": 5, "velocity": 67}, {"time": 2459, "pitch": 65, "duration": 3, "velocity": 95}, {"time": 2465, "pitch": 41, "duration": 3, "velocity": 49}, {"time": 2465, "pitch": 53, "duration": 3, "velocity": 89}, {"time": 2465, "pitch": 65, "duration": 4, "velocity": 96}, {"time": 2471, "pitch": 41, "duration": 3, "velocity": 70}, {"time": 2471, "pitch": 53, "duration": 3, "velocity": 78}, {"time": 2471, "pitch": 65, "duration": 4, "velocity": 93}, {"time": 2477, "pitch": 41, "duration": 3, "velocity": 75}, {"time": 2477, "pitch": 53, "duration": 3, "velocity": 81}, {"time": 2477, "pitch": 65, "duration": 4, "velocity": 97}, {"time": 2483, "pitch": 41, "duration": 4, "velocity": 74}, {"time": 2483, "pitch": 53, "duration": 3, "velocity": 85}, {"time": 2483, "pitch": 65, "duration": 4, "velocity": 99}, {"time": 2489, "pitch": 41, "duration": 4, "velocity": 75}, {"time": 2489, "pitch": 53, "duration": 4, "velocity": 90}, {"time": 2489, "pitch": 65, "duration": 4, "velocity": 107}, {"time": 2495, "pitch": 41, "duration": 4, "velocity": 81}, {"time": 2495, "pitch": 53, "duration": 3, "velocity": 89}, {"time": 2495, "pitch": 65, "duration": 4, "velocity": 100}, {"time": 2501, "pitch": 41, "duration": 4, "velocity": 73}, {"time": 2501, "pitch": 53, "duration": 3, "velocity": 88}, {"time": 2501, "pitch": 65, "duration": 5, "velocity": 102}, {"time": 2507, "pitch": 40, "duration": 4, "velocity": 69}, {"time": 2507, "pitch": 47, "duration": 4, "velocity": 70}, {"time": 2507, "pitch": 52, "duration": 4, "velocity": 83}, {"time": 2507, "pitch": 59, "duration": 4, "velocity": 85}, {"time": 2507, "pitch": 64, "duration": 4, "velocity": 90}, {"time": 2507, "pitch": 68, "duration": 4, "velocity": 92}, {"time": 2513, "pitch": 40, "duration": 36, "velocity": 57}, {"time": 2513, "pitch": 47, "duration": 37, "velocity": 56}, {"time": 2513, "pitch": 52, "duration": 5, "velocity": 69}, {"time": 2513, "pitch": 59, "duration": 5, "velocity": 73}, {"time": 2513, "pitch": 64, "duration": 5, "velocity": 74}, {"time": 2513, "pitch": 68, "duration": 5, "velocity": 72}, {"time": 2519, "pitch": 52, "duration": 5, "velocity": 66}, {"time": 2519, "pitch": 59, "duration": 4, "velocity": 69}, {"time": 2519, "pitch": 64, "duration": 5, "velocity": 66}, {"time": 2519, "pitch": 68, "duration": 5, "velocity": 65}, {"time": 2525, "pitch": 52, "duration": 5, "velocity": 61}, {"time": 2525, "pitch": 59, "duration": 5, "velocity": 67}, {"time": 2525, "pitch": 64, "duration": 5, "velocity": 69}, {"time": 2525, "pitch": 68, "duration": 5, "velocity": 65}, {"time": 2531, "pitch": 52, "duration": 9, "velocity": 67}, {"time": 2531, "pitch": 59, "duration": 4, "velocity": 83}, {"time": 2531, "pitch": 64, "duration": 4, "velocity": 81}, {"time": 2531, "pitch": 68, "duration": 4, "velocity": 85}, {"time": 2537, "pitch": 59, "duration": 4, "velocity": 86}, {"time": 2537, "pitch": 64, "duration": 4, "velocity": 96}, {"time": 2537, "pitch": 68, "duration": 4, "velocity": 102}, {"time": 2540, "pitch": 52, "duration": 5, "velocity": 47}, {"time": 2543, "pitch": 59, "duration": 4, "velocity": 88}, {"time": 2543, "pitch": 64, "duration": 4, "velocity": 97}, {"time": 2543, "pitch": 68, "duration": 4, "velocity": 100}, {"time": 2546, "pitch": 52, "duration": 2, "velocity": 57}, {"time": 2549, "pitch": 59, "duration": 2, "velocity": 92}, {"time": 2549, "pitch": 64, "duration": 2, "velocity": 96}, {"time": 2549, "pitch": 68, "duration": 2, "velocity": 100}, {"time": 2555, "pitch": 42, "duration": 22, "velocity": 99}, {"time": 2555, "pitch": 61, "duration": 4, "velocity": 96}, {"time": 2555, "pitch": 66, "duration": 4, "velocity": 112}, {"time": 2555, "pitch": 70, "duration": 2, "velocity": 95}, {"time": 2561, "pitch": 54, "duration": 4, "velocity": 81}, {"time": 2561, "pitch": 61, "duration": 5, "velocity": 90}, {"time": 2561, "pitch": 66, "duration": 5, "velocity": 100}, {"time": 2561, "pitch": 70, "duration": 4, "velocity": 99}, {"time": 2567, "pitch": 54, "duration": 3, "velocity": 86}, {"time": 2567, "pitch": 61, "duration": 4, "velocity": 102}, {"time": 2567, "pitch": 66, "duration": 4, "velocity": 100}, {"time": 2567, "pitch": 70, "duration": 4, "velocity": 96}, {"time": 2573, "pitch": 54, "duration": 5, "velocity": 97}, {"time": 2573, "pitch": 61, "duration": 4, "velocity": 100}, {"time": 2573, "pitch": 66, "duration": 4, "velocity": 107}, {"time": 2573, "pitch": 70, "duration": 4, "velocity": 100}, {"time": 2579, "pitch": 42, "duration": 15, "velocity": 102}, {"time": 2579, "pitch": 54, "duration": 15, "velocity": 76}, {"time": 2579, "pitch": 61, "duration": 4, "velocity": 112}, {"time": 2579, "pitch": 66, "duration": 5, "velocity": 117}, {"time": 2579, "pitch": 70, "duration": 4, "velocity": 112}, {"time": 2585, "pitch": 61, "duration": 5, "velocity": 102}, {"time": 2585, "pitch": 66, "duration": 5, "velocity": 117}, {"time": 2585, "pitch": 70, "duration": 4, "velocity": 107}, {"time": 2591, "pitch": 61, "duration": 4, "velocity": 117}, {"time": 2591, "pitch": 66, "duration": 4, "velocity": 127}, {"time": 2591, "pitch": 70, "duration": 4, "velocity": 127}, {"time": 2597, "pitch": 42, "duration": 5, "velocity": 112}, {"time": 2597, "pitch": 54, "duration": 5, "velocity": 107}, {"time": 2597, "pitch": 61, "duration": 5, "velocity": 112}, {"time": 2597, "pitch": 66, "duration": 5, "velocity": 127}, {"time": 2597, "pitch": 70, "duration": 5, "velocity": 127}, {"time": 2603, "pitch": 37, "duration": 12, "velocity": 127}, {"time": 2603, "pitch": 61, "duration": 4, "velocity": 127}, {"time": 2603, "pitch": 64, "duration": 4, "velocity": 112}, {"time": 2603, "pitch": 68, "duration": 4, "velocity": 127}, {"time": 2609, "pitch": 49, "duration": 10, "velocity": 92}, {"time": 2609, "pitch": 61, "duration": 4, "velocity": 99}, {"time": 2609, "pitch": 64, "duration": 4, "velocity": 95}, {"time": 2609, "pitch": 68, "duration": 5, "velocity": 99}, {"time": 2615, "pitch": 37, "duration": 10, "velocity": 66}, {"time": 2615, "pitch": 61, "duration": 4, "velocity": 100}, {"time": 2615, "pitch": 64, "duration": 4, "velocity": 92}, {"time": 2615, "pitch": 68, "duration": 4, "velocity": 99}, {"time": 2621, "pitch": 49, "duration": 4, "velocity": 71}, {"time": 2621, "pitch": 61, "duration": 4, "velocity": 112}, {"time": 2621, "pitch": 64, "duration": 4, "velocity": 97}, {"time": 2621, "pitch": 68, "duration": 4, "velocity": 97}, {"time": 2627, "pitch": 37, "duration": 5, "velocity": 83}, {"time": 2627, "pitch": 49, "duration": 4, "velocity": 81}, {"time": 2627, "pitch": 61, "duration": 4, "velocity": 107}, {"time": 2627, "pitch": 64, "duration": 4, "velocity": 95}, {"time": 2627, "pitch": 68, "duration": 4, "velocity": 99}, {"time": 2633, "pitch": 37, "duration": 5, "velocity": 90}, {"time": 2633, "pitch": 49, "duration": 4, "velocity": 75}, {"time": 2633, "pitch": 61, "duration": 5, "velocity": 102}, {"time": 2633, "pitch": 64, "duration": 4, "velocity": 95}, {"time": 2633, "pitch": 68, "duration": 4, "velocity": 92}, {"time": 2639, "pitch": 37, "duration": 5, "velocity": 63}, {"time": 2639, "pitch": 49, "duration": 5, "velocity": 102}, {"time": 2639, "pitch": 61, "duration": 4, "velocity": 112}, {"time": 2639, "pitch": 64, "duration": 4, "velocity": 99}, {"time": 2639, "pitch": 68, "duration": 4, "velocity": 102}, {"time": 2645, "pitch": 61, "duration": 3, "velocity": 122}, {"time": 2645, "pitch": 64, "duration": 5, "velocity": 99}, {"time": 2645, "pitch": 68, "duration": 2, "velocity": 102}, {"time": 2651, "pitch": 40, "duration": 3, "velocity": 68}, {"time": 2651, "pitch": 47, "duration": 4, "velocity": 92}, {"time": 2651, "pitch": 52, "duration": 4, "velocity": 95}, {"time": 2651, "pitch": 59, "duration": 4, "velocity": 100}, {"time": 2651, "pitch": 64, "duration": 4, "velocity": 100}, {"time": 2651, "pitch": 67, "duration": 4, "velocity": 95}, {"time": 2657, "pitch": 40, "duration": 4, "velocity": 67}, {"time": 2657, "pitch": 47, "duration": 4, "velocity": 68}, {"time": 2657, "pitch": 52, "duration": 4, "velocity": 83}, {"time": 2657, "pitch": 59, "duration": 5, "velocity": 93}, {"time": 2657, "pitch": 64, "duration": 5, "velocity": 89}, {"time": 2657, "pitch": 67, "duration": 5, "velocity": 79}, {"time": 2663, "pitch": 40, "duration": 4, "velocity": 69}, {"time": 2663, "pitch": 47, "duration": 4, "velocity": 65}, {"time": 2663, "pitch": 52, "duration": 4, "velocity": 92}, {"time": 2663, "pitch": 59, "duration": 4, "velocity": 96}, {"time": 2663, "pitch": 64, "duration": 4, "velocity": 95}, {"time": 2663, "pitch": 67, "duration": 4, "velocity": 90}, {"time": 2669, "pitch": 40, "duration": 3, "velocity": 72}, {"time": 2669, "pitch": 47, "duration": 4, "velocity": 78}, {"time": 2669, "pitch": 52, "duration": 3, "velocity": 96}, {"time": 2669, "pitch": 59, "duration": 4, "velocity": 99}, {"time": 2669, "pitch": 64, "duration": 4, "velocity": 97}, {"time": 2669, "pitch": 67, "duration": 4, "velocity": 92}, {"time": 2675, "pitch": 40, "duration": 4, "velocity": 82}, {"time": 2675, "pitch": 47, "duration": 4, "velocity": 86}, {"time": 2675, "pitch": 52, "duration": 4, "velocity": 99}, {"time": 2675, "pitch": 59, "duration": 4, "velocity": 102}, {"time": 2675, "pitch": 64, "duration": 4, "velocity": 100}, {"time": 2675, "pitch": 67, "duration": 5, "velocity": 99}, {"time": 2681, "pitch": 40, "duration": 4, "velocity": 83}, {"time": 2681, "pitch": 47, "duration": 4, "velocity": 90}, {"time": 2681, "pitch": 52, "duration": 4, "velocity": 97}, {"time": 2681, "pitch": 59, "duration": 4, "velocity": 99}, {"time": 2681, "pitch": 64, "duration": 4, "velocity": 99}, {"time": 2681, "pitch": 67, "duration": 5, "velocity": 93}, {"time": 2687, "pitch": 40, "duration": 4, "velocity": 64}, {"time": 2687, "pitch": 47, "duration": 4, "velocity": 69}, {"time": 2687, "pitch": 52, "duration": 4, "velocity": 97}, {"time": 2687, "pitch": 59, "duration": 4, "velocity": 117}, {"time": 2687, "pitch": 64, "duration": 4, "velocity": 102}, {"time": 2687, "pitch": 67, "duration": 5, "velocity": 97}, {"time": 2693, "pitch": 40, "duration": 5, "velocity": 63}, {"time": 2693, "pitch": 47, "duration": 5, "velocity": 62}, {"time": 2693, "pitch": 52, "duration": 5, "velocity": 102}, {"time": 2693, "pitch": 59, "duration": 5, "velocity": 99}, {"time": 2693, "pitch": 64, "duration": 5, "velocity": 99}, {"time": 2693, "pitch": 67, "duration": 5, "velocity": 90}, {"time": 2699, "pitch": 47, "duration": 22, "velocity": 96}, {"time": 2699, "pitch": 59, "duration": 9, "velocity": 99}, {"time": 2699, "pitch": 63, "duration": 9, "velocity": 122}, {"time": 2699, "pitch": 66, "duration": 6, "velocity": 122}, {"time": 2705, "pitch": 54, "duration": 18, "velocity": 97}, {"time": 2711, "pitch": 59, "duration": 7, "velocity": 93}, {"time": 2711, "pitch": 63, "duration": 8, "velocity": 127}, {"time": 2711, "pitch": 66, "duration": 8, "velocity": 117}, {"time": 2720, "pitch": 59, "duration": 12, "velocity": 93}, {"time": 2720, "pitch": 63, "duration": 13, "velocity": 127}, {"time": 2720, "pitch": 66, "duration": 13, "velocity": 117}, {"time": 2723, "pitch": 47, "duration": 4, "velocity": 99}, {"time": 2729, "pitch": 47, "duration": 9, "velocity": 100}, {"time": 2735, "pitch": 54, "duration": 2, "velocity": 93}, {"time": 2735, "pitch": 63, "duration": 6, "velocity": 127}, {"time": 2735, "pitch": 66, "duration": 6, "velocity": 127}, {"time": 2741, "pitch": 59, "duration": 1, "velocity": 85}, {"time": 2747, "pitch": 39, "duration": 23, "velocity": 117}, {"time": 2747, "pitch": 63, "duration": 6, "velocity": 122}, {"time": 2753, "pitch": 51, "duration": 9, "velocity": 100}, {"time": 2759, "pitch": 58, "duration": 7, "velocity": 117}, {"time": 2759, "pitch": 63, "duration": 2, "velocity": 100}, {"time": 2759, "pitch": 66, "duration": 7, "velocity": 97}, {"time": 2765, "pitch": 51, "duration": 4, "velocity": 27}, {"time": 2768, "pitch": 58, "duration": 11, "velocity": 90}, {"time": 2768, "pitch": 63, "duration": 9, "velocity": 96}, {"time": 2768, "pitch": 66, "duration": 11, "velocity": 92}, {"time": 2768, "pitch": 70, "duration": 11, "velocity": 86}, {"time": 2771, "pitch": 39, "duration": 3, "velocity": 90}, {"time": 2777, "pitch": 39, "duration": 10, "velocity": 117}, {"time": 2783, "pitch": 51, "duration": 5, "velocity": 96}, {"time": 2783, "pitch": 63, "duration": 8, "velocity": 127}, {"time": 2783, "pitch": 66, "duration": 7, "velocity": 117}, {"time": 2789, "pitch": 58, "duration": 3, "velocity": 102}, {"time": 2795, "pitch": 40, "duration": 22, "velocity": 90}, {"time": 2795, "pitch": 59, "duration": 9, "velocity": 95}, {"time": 2795, "pitch": 64, "duration": 10, "velocity": 95}, {"time": 2795, "pitch": 68, "duration": 10, "velocity": 100}, {"time": 2801, "pitch": 47, "duration": 18, "velocity": 66}, {"time": 2807, "pitch": 52, "duration": 11, "velocity": 96}, {"time": 2807, "pitch": 59, "duration": 7, "velocity": 89}, {"time": 2807, "pitch": 64, "duration": 7, "velocity": 102}, {"time": 2807, "pitch": 68, "duration": 7, "velocity": 112}, {"time": 2816, "pitch": 59, "duration": 12, "velocity": 99}, {"time": 2816, "pitch": 64, "duration": 12, "velocity": 107}, {"time": 2816, "pitch": 68, "duration": 12, "velocity": 127}, {"time": 2819, "pitch": 40, "duration": 2, "velocity": 100}, {"time": 2825, "pitch": 40, "duration": 12, "velocity": 90}, {"time": 2831, "pitch": 52, "duration": 10, "velocity": 100}, {"time": 2831, "pitch": 64, "duration": 11, "velocity": 107}, {"time": 2831, "pitch": 68, "duration": 11, "velocity": 117}, {"time": 2837, "pitch": 59, "duration": 5, "velocity": 102}, {"time": 2843, "pitch": 42, "duration": 22, "velocity": 102}, {"time": 2843, "pitch": 61, "duration": 5, "velocity": 107}, {"time": 2843, "pitch": 66, "duration": 2, "velocity": 122}, {"time": 2843, "pitch": 70, "duration": 4, "velocity": 100}, {"time": 2846, "pitch": 49, "duration": 20, "velocity": 42}, {"time": 2846, "pitch": 66, "duration": 2, "velocity": 59}, {"time": 2849, "pitch": 61, "duration": 4, "velocity": 100}, {"time": 2849, "pitch": 66, "duration": 3, "velocity": 112}, {"time": 2849, "pitch": 70, "duration": 4, "velocity": 99}, {"time": 2852, "pitch": 54, "duration": 5, "velocity": 99}, {"time": 2855, "pitch": 61, "duration": 3, "velocity": 99}, {"time": 2855, "pitch": 66, "duration": 2, "velocity": 107}, {"time": 2855, "pitch": 70, "duration": 3, "velocity": 100}, {"time": 2858, "pitch": 54, "duration": 6, "velocity": 85}, {"time": 2861, "pitch": 61, "duration": 3, "velocity": 100}, {"time": 2861, "pitch": 66, "duration": 2, "velocity": 117}, {"time": 2861, "pitch": 70, "duration": 3, "velocity": 100}, {"time": 2867, "pitch": 42, "duration": 23, "velocity": 70}, {"time": 2867, "pitch": 54, "duration": 9, "velocity": 82}, {"time": 2867, "pitch": 61, "duration": 4, "velocity": 102}, {"time": 2867, "pitch": 66, "duration": 4, "velocity": 122}, {"time": 2867, "pitch": 70, "duration": 4, "velocity": 102}, {"time": 2873, "pitch": 49, "duration": 16, "velocity": 41}, {"time": 2873, "pitch": 61, "duration": 3, "velocity": 107}, {"time": 2873, "pitch": 66, "duration": 3, "velocity": 117}, {"time": 2873, "pitch": 70, "duration": 3, "velocity": 102}, {"time": 2879, "pitch": 54, "duration": 10, "velocity": 99}, {"time": 2879, "pitch": 66, "duration": 4, "velocity": 122}, {"time": 2879, "pitch": 70, "duration": 4, "velocity": 117}, {"time": 2885, "pitch": 66, "duration": 3, "velocity": 127}, {"time": 2885, "pitch": 70, "duration": 4, "velocity": 127}, {"time": 2891, "pitch": 47, "duration": 37, "velocity": 96}, {"time": 2891, "pitch": 59, "duration": 5, "velocity": 102}, {"time": 2891, "pitch": 63, "duration": 5, "velocity": 127}, {"time": 2891, "pitch": 66, "duration": 4, "velocity": 122}, {"time": 2897, "pitch": 54, "duration": 28, "velocity": 75}, {"time": 2897, "pitch": 59, "duration": 3, "velocity": 82}, {"time": 2897, "pitch": 63, "duration": 4, "velocity": 89}, {"time": 2897, "pitch": 66, "duration": 3, "velocity": 89}, {"time": 2903, "pitch": 59, "duration": 3, "velocity": 92}, {"time": 2903, "pitch": 63, "duration": 3, "velocity": 102}, {"time": 2903, "pitch": 66, "duration": 3, "velocity": 99}, {"time": 2909, "pitch": 59, "duration": 5, "velocity": 77}, {"time": 2909, "pitch": 63, "duration": 5, "velocity": 107}, {"time": 2909, "pitch": 66, "duration": 4, "velocity": 100}, {"time": 2915, "pitch": 59, "duration": 4, "velocity": 82}, {"time": 2915, "pitch": 63, "duration": 4, "velocity": 97}, {"time": 2915, "pitch": 66, "duration": 4, "velocity": 88}, {"time": 2921, "pitch": 59, "duration": 3, "velocity": 78}, {"time": 2921, "pitch": 63, "duration": 4, "velocity": 99}, {"time": 2921, "pitch": 66, "duration": 4, "velocity": 96}, {"time": 2927, "pitch": 54, "duration": 2, "velocity": 79}, {"time": 2927, "pitch": 59, "duration": 1, "velocity": 55}, {"time": 2927, "pitch": 63, "duration": 7, "velocity": 127}, {"time": 2927, "pitch": 66, "duration": 7, "velocity": 127}, {"time": 2933, "pitch": 59, "duration": 2, "velocity": 96}, {"time": 2939, "pitch": 39, "duration": 38, "velocity": 100}, {"time": 2939, "pitch": 58, "duration": 5, "velocity": 117}, {"time": 2939, "pitch": 63, "duration": 5, "velocity": 112}, {"time": 2939, "pitch": 66, "duration": 4, "velocity": 102}, {"time": 2945, "pitch": 51, "duration": 8, "velocity": 81}, {"time": 2945, "pitch": 58, "duration": 2, "velocity": 86}, {"time": 2945, "pitch": 63, "duration": 2, "velocity": 100}, {"time": 2945, "pitch": 66, "duration": 2, "velocity": 90}, {"time": 2951, "pitch": 58, "duration": 3, "velocity": 102}, {"time": 2951, "pitch": 63, "duration": 2, "velocity": 127}, {"time": 2951, "pitch": 66, "duration": 2, "velocity": 117}, {"time": 2957, "pitch": 58, "duration": 3, "velocity": 81}, {"time": 2957, "pitch": 63, "duration": 2, "velocity": 76}, {"time": 2957, "pitch": 66, "duration": 2, "velocity": 48}, {"time": 2960, "pitch": 51, "duration": 6, "velocity": 69}, {"time": 2963, "pitch": 58, "duration": 4, "velocity": 100}, {"time": 2963, "pitch": 63, "duration": 4, "velocity": 127}, {"time": 2963, "pitch": 66, "duration": 4, "velocity": 102}, {"time": 2969, "pitch": 51, "duration": 5, "velocity": 63}, {"time": 2969, "pitch": 58, "duration": 4, "velocity": 76}, {"time": 2969, "pitch": 63, "duration": 4, "velocity": 65}, {"time": 2969, "pitch": 66, "duration": 2, "velocity": 39}, {"time": 2975, "pitch": 51, "duration": 3, "velocity": 93}, {"time": 2975, "pitch": 58, "duration": 4, "velocity": 112}, {"time": 2975, "pitch": 63, "duration": 4, "velocity": 122}, {"time": 2975, "pitch": 66, "duration": 4, "velocity": 117}, {"time": 2981, "pitch": 63, "duration": 1, "velocity": 100}, {"time": 2981, "pitch": 66, "duration": 1, "velocity": 82}, {"time": 2987, "pitch": 40, "duration": 22, "velocity": 93}, {"time": 2987, "pitch": 59, "duration": 4, "velocity": 92}, {"time": 2987, "pitch": 64, "duration": 4, "velocity": 99}, {"time": 2987, "pitch": 68, "duration": 4, "velocity": 102}, {"time": 2993, "pitch": 47, "duration": 18, "velocity": 59}, {"time": 2993, "pitch": 59, "duration": 4, "velocity": 82}, {"time": 2993, "pitch": 64, "duration": 4, "velocity": 93}, {"time": 2993, "pitch": 68, "duration": 4, "velocity": 95}, {"time": 2999, "pitch": 52, "duration": 11, "velocity": 96}, {"time": 2999, "pitch": 59, "duration": 3, "velocity": 95}, {"time": 2999, "pitch": 64, "duration": 3, "velocity": 102}, {"time": 2999, "pitch": 68, "duration": 3, "velocity": 112}, {"time": 3005, "pitch": 64, "duration": 3, "velocity": 99}, {"time": 3005, "pitch": 68, "duration": 4, "velocity": 117}, {"time": 3011, "pitch": 40, "duration": 16, "velocity": 89}, {"time": 3011, "pitch": 59, "duration": 4, "velocity": 95}, {"time": 3011, "pitch": 64, "duration": 4, "velocity": 96}, {"time": 3011, "pitch": 68, "duration": 4, "velocity": 102}, {"time": 3017, "pitch": 47, "duration": 11, "velocity": 47}, {"time": 3017, "pitch": 59, "duration": 3, "velocity": 86}, {"time": 3017, "pitch": 64, "duration": 4, "velocity": 93}, {"time": 3017, "pitch": 68, "duration": 4, "velocity": 95}, {"time": 3023, "pitch": 52, "duration": 6, "velocity": 92}, {"time": 3023, "pitch": 64, "duration": 5, "velocity": 122}, {"time": 3023, "pitch": 68, "duration": 7, "velocity": 122}, {"time": 3029, "pitch": 59, "duration": 2, "velocity": 96}, {"time": 3035, "pitch": 40, "duration": 21, "velocity": 97}, {"time": 3035, "pitch": 59, "duration": 5, "velocity": 112}, {"time": 3035, "pitch": 64, "duration": 5, "velocity": 112}, {"time": 3035, "pitch": 67, "duration": 4, "velocity": 100}, {"time": 3041, "pitch": 47, "duration": 17, "velocity": 49}, {"time": 3041, "pitch": 59, "duration": 3, "velocity": 88}, {"time": 3041, "pitch": 64, "duration": 2, "velocity": 89}, {"time": 3041, "pitch": 67, "duration": 2, "velocity": 88}, {"time": 3047, "pitch": 52, "duration": 10, "velocity": 92}, {"time": 3047, "pitch": 59, "duration": 3, "velocity": 95}, {"time": 3047, "pitch": 64, "duration": 3, "velocity": 90}, {"time": 3047, "pitch": 67, "duration": 3, "velocity": 86}, {"time": 3053, "pitch": 59, "duration": 4, "velocity": 86}, {"time": 3053, "pitch": 64, "duration": 4, "velocity": 95}, {"time": 3053, "pitch": 67, "duration": 4, "velocity": 93}, {"time": 3059, "pitch": 40, "duration": 12, "velocity": 77}, {"time": 3059, "pitch": 47, "duration": 12, "velocity": 70}, {"time": 3059, "pitch": 52, "duration": 12, "velocity": 102}, {"time": 3059, "pitch": 59, "duration": 4, "velocity": 93}, {"time": 3059, "pitch": 64, "duration": 4, "velocity": 102}, {"time": 3059, "pitch": 67, "duration": 4, "velocity": 100}, {"time": 3065, "pitch": 59, "duration": 6, "velocity": 112}, {"time": 3065, "pitch": 64, "duration": 6, "velocity": 127}, {"time": 3065, "pitch": 67, "duration": 6, "velocity": 117}, {"time": 3071, "pitch": 42, "duration": 5, "velocity": 83}, {"time": 3071, "pitch": 58, "duration": 4, "velocity": 95}, {"time": 3071, "pitch": 61, "duration": 5, "velocity": 100}, {"time": 3083, "pitch": 47, "duration": 48, "velocity": 85}, {"time": 3083, "pitch": 59, "duration": 9, "velocity": 61}, {"time": 3083, "pitch": 63, "duration": 9, "velocity": 81}, {"time": 3095, "pitch": 59, "duration": 10, "velocity": 60}, {"time": 3095, "pitch": 63, "duration": 10, "velocity": 70}, {"time": 3107, "pitch": 59, "duration": 9, "velocity": 67}, {"time": 3107, "pitch": 63, "duration": 9, "velocity": 85}, {"time": 3119, "pitch": 59, "duration": 10, "velocity": 66}, {"time": 3119, "pitch": 63, "duration": 7, "velocity": 79}, {"time": 3125, "pitch": 64, "duration": 5, "velocity": 74}, {"time": 3131, "pitch": 46, "duration": 43, "velocity": 71}, {"time": 3131, "pitch": 59, "duration": 10, "velocity": 66}, {"time": 3131, "pitch": 63, "duration": 10, "velocity": 86}, {"time": 3143, "pitch": 59, "duration": 10, "velocity": 61}, {"time": 3143, "pitch": 63, "duration": 10, "velocity": 73}, {"time": 3155, "pitch": 59, "duration": 9, "velocity": 62}, {"time": 3155, "pitch": 63, "duration": 9, "velocity": 75}, {"time": 3167, "pitch": 59, "duration": 10, "velocity": 62}, {"time": 3167, "pitch": 63, "duration": 7, "velocity": 76}, {"time": 3173, "pitch": 64, "duration": 5, "velocity": 79}, {"time": 3179, "pitch": 40, "duration": 49, "velocity": 64}, {"time": 3179, "pitch": 59, "duration": 10, "velocity": 63}, {"time": 3179, "pitch": 63, "duration": 10, "velocity": 73}, {"time": 3191, "pitch": 59, "duration": 8, "velocity": 63}, {"time": 3191, "pitch": 63, "duration": 8, "velocity": 76}, {"time": 3203, "pitch": 59, "duration": 9, "velocity": 60}, {"time": 3203, "pitch": 63, "duration": 9, "velocity": 74}, {"time": 3215, "pitch": 59, "duration": 11, "velocity": 63}, {"time": 3215, "pitch": 63, "duration": 8, "velocity": 75}, {"time": 3221, "pitch": 64, "duration": 6, "velocity": 65}, {"time": 3227, "pitch": 42, "duration": 44, "velocity": 52}, {"time": 3227, "pitch": 59, "duration": 15, "velocity": 45}, {"time": 3227, "pitch": 66, "duration": 15, "velocity": 73}], "annotations": [{"time": 11, "annotation": {"number": 64, "value": 70}, "group": "control_change"}, {"time": 23, "annotation": {"number": 64, "value": 68}, "group": "control_change"}, {"time": 1884, "annotation": {"number": 64, "value": 127}, "group": "control_change"}, {"time": 1928, "annotation": {"number": 64, "value": 0}, "group": "control_change"}, {"time": 1929, "annotation": {"number": 64, "value": 0}, "group": "control_change"}, {"time": 1931, "annotation": {"number": 64, "value": 127}, "group": "control_change"}, {"time": 1977, "annotation": {"number": 64, "value": 0}, "group": "control_change"}, {"time": 1979, "annotation": {"number": 64, "value": 127}, "group": "control_change"}, {"time": 2025, "annotation": {"number": 64, "value": 0}, "group": "control_change"}, {"time": 2027, "annotation": {"number": 64, "value": 127}, "group": "control_change"}, {"time": 2049, "annotation": {"number": 64, "value": 0}, "group": "control_change"}, {"time": 2051, "annotation": {"number": 64, "value": 127}, "group": "control_change"}, {"time": 2074, "annotation": {"number": 64, "value": 0}, "group": "control_change"}, {"time": 2075, "annotation": {"number": 64, "value": 127}, "group": "control_change"}, {"time": 2096, "annotation": {"number": 64, "value": 0}, "group": "control_change"}, {"time": 2098, "annotation": {"number": 64, "value": 127}, "group": "control_change"}, {"time": 2121, "annotation": {"number": 64, "value": 0}, "group": "control_change"}, {"time": 2122, "annotation": {"number": 64, "value": 127}, "group": "control_change"}, {"time": 2133, "annotation": {"number": 64, "value": 0}, "group": "control_change"}, {"time": 2135, "annotation": {"number": 64, "value": 127}, "group": "control_change"}, {"time": 2169, "annotation": {"number": 64, "value": 0}, "group": "control_change"}, {"time": 2171, "annotation": {"number": 64, "value": 127}, "group": "control_change"}, {"time": 2182, "annotation": {"number": 64, "value": 0}, "group": "control_change"}, {"time": 2183, "annotation": {"number": 64, "value": 127}, "group": "control_change"}, {"time": 2217, "annotation": {"number": 64, "value": 0}, "group": "control_change"}, {"time": 2219, "annotation": {"number": 64, "value": 127}, "group": "control_change"}, {"time": 2265, "annotation": {"number": 64, "value": 0}, "group": "control_change"}, {"time": 2267, "annotation": {"number": 64, "value": 127}, "group": "control_change"}, {"time": 2311, "annotation": {"number": 64, "value": 0}, "group": "control_change"}, {"time": 2315, "annotation": {"number": 64, "value": 127}, "group": "control_change"}, {"time": 2317, "annotation": {"number": 64, "value": 0}, "group": "control_change"}, {"time": 2437, "annotation": {"number": 64, "value": 127}, "group": "control_change"}, {"time": 2458, "annotation": {"number": 64, "value": 0}, "group": "control_change"}, {"time": 2509, "annotation": {"number": 64, "value": 127}, "group": "control_change"}, {"time": 2551, "annotation": {"number": 64, "value": 0}, "group": "control_change"}, {"time": 2603, "annotation": {"number": 64, "value": 127}, "group": "control_change"}, {"time": 2605, "annotation": {"number": 64, "value": 0}, "group": "control_change"}, {"time": 2615, "annotation": {"number": 64, "value": 127}, "group": "control_change"}, {"time": 2624, "annotation": {"number": 64, "value": 0}, "group": "control_change"}, {"time": 2627, "annotation": {"number": 64, "value": 127}, "group": "control_change"}, {"time": 2632, "annotation": {"number": 64, "value": 0}, "group": "control_change"}, {"time": 2634, "annotation": {"number": 64, "value": 127}, "group": "control_change"}, {"time": 2648, "annotation": {"number": 64, "value": 0}, "group": "control_change"}, {"time": 2652, "annotation": {"number": 64, "value": 127}, "group": "control_change"}, {"time": 2654, "annotation": {"number": 64, "value": 0}, "group": "control_change"}, {"time": 2659, "annotation": {"number": 64, "value": 127}, "group": "control_change"}, {"time": 2661, "annotation": {"number": 64, "value": 0}, "group": "control_change"}, {"time": 2666, "annotation": {"number": 64, "value": 127}, "group": "control_change"}, {"time": 2667, "annotation": {"number": 64, "value": 127}, "group": "control_change"}, {"time": 2677, "annotation": {"number": 64, "value": 0}, "group": "control_change"}, {"time": 2700, "annotation": {"number": 64, "value": 127}, "group": "control_change"}, {"time": 2720, "annotation": {"number": 64, "value": 0}, "group": "control_change"}, {"time": 2723, "annotation": {"number": 64, "value": 127}, "group": "control_change"}, {"time": 2746, "annotation": {"number": 64, "value": 0}, "group": "control_change"}, {"time": 2747, "annotation": {"number": 64, "value": 127}, "group": "control_change"}, {"time": 2770, "annotation": {"number": 64, "value": 0}, "group": "control_change"}, {"time": 2772, "annotation": {"number": 64, "value": 127}, "group": "control_change"}, {"time": 2793, "annotation": {"number": 64, "value": 0}, "group": "control_change"}, {"time": 2795, "annotation": {"number": 64, "value": 127}, "group": "control_change"}, {"time": 2796, "annotation": {"number": 64, "value": 127}, "group": "control_change"}, {"time": 2817, "annotation": {"number": 64, "value": 0}, "group": "control_change"}, {"time": 2819, "annotation": {"number": 64, "value": 127}, "group": "control_change"}, {"time": 2839, "annotation": {"number": 64, "value": 0}, "group": "control_change"}, {"time": 2843, "annotation": {"number": 64, "value": 127}, "group": "control_change"}, {"time": 2866, "annotation": {"number": 64, "value": 0}, "group": "control_change"}, {"time": 2867, "annotation": {"number": 64, "value": 127}, "group": "control_change"}, {"time": 2888, "annotation": {"number": 64, "value": 0}, "group": "control_change"}, {"time": 2892, "annotation": {"number": 64, "value": 127}, "group": "control_change"}, {"time": 2914, "annotation": {"number": 64, "value": 0}, "group": "control_change"}, {"time": 2915, "annotation": {"number": 64, "value": 127}, "group": "control_change"}, {"time": 2937, "annotation": {"number": 64, "value": 0}, "group": "control_change"}, {"time": 2939, "annotation": {"number": 64, "value": 127}, "group": "control_change"}, {"time": 2962, "annotation": {"number": 64, "value": 0}, "group": "control_change"}, {"time": 2963, "annotation": {"number": 64, "value": 127}, "group": "control_change"}, {"time": 2985, "annotation": {"number": 64, "value": 0}, "group": "control_change"}, {"time": 2987, "annotation": {"number": 64, "value": 127}, "group": "control_change"}, {"time": 3009, "annotation": {"number": 64, "value": 0}, "group": "control_change"}, {"time": 3011, "annotation": {"number": 64, "value": 127}, "group": "control_change"}, {"time": 3033, "annotation": {"number": 64, "value": 0}, "group": "control_change"}, {"time": 3035, "annotation": {"number": 64, "value": 127}, "group": "control_change"}, {"time": 3056, "annotation": {"number": 64, "value": 0}, "group": "control_change"}, {"time": 3058, "annotation": {"number": 64, "value": 127}, "group": "control_change"}, {"time": 3059, "annotation": {"number": 64, "value": 127}, "group": "control_change"}, {"time": 3065, "annotation": {"number": 64, "value": 0}, "group": "control_change"}]}]}