{"metadata": {"schema_version": "0.2", "title": "None", "source_filename": "161.mid", "source_format": "midi"}, "resolution": 12, "tempos": [{"time": 0, "qpm": 61.99999586666694}], "key_signatures": [{"time": 0, "root": 0, "mode": "major"}], "time_signatures": [{"time": 0, "numerator": 4, "denominator": 4}, {"time": 0, "numerator": 1, "denominator": 4}], "tracks": [{"program": 0, "is_drum": false, "name": "MELODY", "notes": [{"time": 200, "pitch": 65, "duration": 2, "velocity": 100}, {"time": 203, "pitch": 65, "duration": 2, "velocity": 77}, {"time": 206, "pitch": 68, "duration": 2, "velocity": 107}, {"time": 209, "pitch": 65, "duration": 2, "velocity": 73}, {"time": 212, "pitch": 68, "duration": 3, "velocity": 112}, {"time": 215, "pitch": 65, "duration": 3, "velocity": 99}, {"time": 221, "pitch": 63, "duration": 3, "velocity": 107}, {"time": 224, "pitch": 65, "duration": 18, "velocity": 100}, {"time": 248, "pitch": 65, "duration": 2, "velocity": 96}, {"time": 251, "pitch": 65, "duration": 2, "velocity": 74}, {"time": 254, "pitch": 68, "duration": 3, "velocity": 112}, {"time": 257, "pitch": 65, "duration": 3, "velocity": 82}, {"time": 260, "pitch": 68, "duration": 4, "velocity": 117}, {"time": 266, "pitch": 65, "duration": 4, "velocity": 92}, {"time": 269, "pitch": 63, "duration": 3, "velocity": 100}, {"time": 272, "pitch": 65, "duration": 15, "velocity": 99}, {"time": 296, "pitch": 56, "duration": 3, "velocity": 99}, {"time": 299, "pitch": 58, "duration": 3, "velocity": 92}, {"time": 302, "pitch": 61, "duration": 4, "velocity": 97}, {"time": 305, "pitch": 58, "duration": 4, "velocity": 100}, {"time": 308, "pitch": 61, "duration": 5, "velocity": 97}, {"time": 314, "pitch": 61, "duration": 6, "velocity": 102}, {"time": 320, "pitch": 56, "duration": 7, "velocity": 96}, {"time": 326, "pitch": 58, "duration": 3, "velocity": 100}, {"time": 329, "pitch": 61, "duration": 15, "velocity": 100}, {"time": 344, "pitch": 63, "duration": 3, "velocity": 117}, {"time": 347, "pitch": 65, "duration": 3, "velocity": 72}, {"time": 350, "pitch": 63, "duration": 4, "velocity": 100}, {"time": 353, "pitch": 65, "duration": 2, "velocity": 85}, {"time": 356, "pitch": 58, "duration": 4, "velocity": 97}, {"time": 362, "pitch": 61, "duration": 3, "velocity": 93}, {"time": 365, "pitch": 63, "duration": 24, "velocity": 97}, {"time": 392, "pitch": 63, "duration": 4, "velocity": 117}, {"time": 395, "pitch": 65, "duration": 3, "velocity": 76}, {"time": 398, "pitch": 68, "duration": 4, "velocity": 107}, {"time": 401, "pitch": 65, "duration": 3, "velocity": 92}, {"time": 404, "pitch": 68, "duration": 3, "velocity": 112}, {"time": 407, "pitch": 65, "duration": 5, "velocity": 93}, {"time": 413, "pitch": 63, "duration": 3, "velocity": 95}, {"time": 416, "pitch": 65, "duration": 19, "velocity": 102}, {"time": 440, "pitch": 63, "duration": 3, "velocity": 117}, {"time": 443, "pitch": 65, "duration": 3, "velocity": 96}, {"time": 446, "pitch": 68, "duration": 3, "velocity": 112}, {"time": 449, "pitch": 65, "duration": 3, "velocity": 95}, {"time": 452, "pitch": 63, "duration": 3, "velocity": 95}, {"time": 455, "pitch": 68, "duration": 4, "velocity": 99}, {"time": 461, "pitch": 65, "duration": 18, "velocity": 93}, {"time": 488, "pitch": 56, "duration": 3, "velocity": 95}, {"time": 491, "pitch": 58, "duration": 4, "velocity": 73}, {"time": 494, "pitch": 61, "duration": 4, "velocity": 97}, {"time": 497, "pitch": 58, "duration": 3, "velocity": 88}, {"time": 500, "pitch": 61, "duration": 7, "velocity": 90}, {"time": 509, "pitch": 58, "duration": 3, "velocity": 102}, {"time": 512, "pitch": 56, "duration": 4, "velocity": 97}, {"time": 515, "pitch": 58, "duration": 3, "velocity": 95}, {"time": 521, "pitch": 61, "duration": 15, "velocity": 100}, {"time": 536, "pitch": 63, "duration": 2, "velocity": 112}, {"time": 539, "pitch": 63, "duration": 4, "velocity": 107}, {"time": 545, "pitch": 61, "duration": 2, "velocity": 100}, {"time": 548, "pitch": 61, "duration": 3, "velocity": 100}, {"time": 551, "pitch": 63, "duration": 5, "velocity": 97}, {"time": 557, "pitch": 65, "duration": 25, "velocity": 99}, {"time": 584, "pitch": 61, "duration": 3, "velocity": 122}, {"time": 587, "pitch": 73, "duration": 2, "velocity": 102}, {"time": 590, "pitch": 73, "duration": 4, "velocity": 107}, {"time": 593, "pitch": 72, "duration": 3, "velocity": 100}, {"time": 596, "pitch": 73, "duration": 5, "velocity": 122}, {"time": 602, "pitch": 70, "duration": 4, "velocity": 112}, {"time": 605, "pitch": 65, "duration": 3, "velocity": 85}, {"time": 608, "pitch": 68, "duration": 20, "velocity": 117}, {"time": 632, "pitch": 63, "duration": 3, "velocity": 127}, {"time": 635, "pitch": 61, "duration": 2, "velocity": 97}, {"time": 638, "pitch": 61, "duration": 3, "velocity": 117}, {"time": 641, "pitch": 61, "duration": 2, "velocity": 107}, {"time": 644, "pitch": 61, "duration": 3, "velocity": 122}, {"time": 647, "pitch": 58, "duration": 4, "velocity": 100}, {"time": 653, "pitch": 61, "duration": 2, "velocity": 117}, {"time": 656, "pitch": 65, "duration": 20, "velocity": 100}, {"time": 680, "pitch": 61, "duration": 3, "velocity": 127}, {"time": 683, "pitch": 73, "duration": 2, "velocity": 122}, {"time": 686, "pitch": 73, "duration": 3, "velocity": 112}, {"time": 689, "pitch": 72, "duration": 2, "velocity": 107}, {"time": 692, "pitch": 72, "duration": 4, "velocity": 122}, {"time": 695, "pitch": 70, "duration": 4, "velocity": 102}, {"time": 701, "pitch": 72, "duration": 4, "velocity": 112}, {"time": 704, "pitch": 70, "duration": 4, "velocity": 117}, {"time": 710, "pitch": 65, "duration": 3, "velocity": 100}, {"time": 713, "pitch": 68, "duration": 13, "velocity": 127}, {"time": 728, "pitch": 61, "duration": 3, "velocity": 117}, {"time": 731, "pitch": 63, "duration": 2, "velocity": 93}, {"time": 734, "pitch": 63, "duration": 3, "velocity": 117}, {"time": 737, "pitch": 61, "duration": 2, "velocity": 97}, {"time": 740, "pitch": 61, "duration": 4, "velocity": 117}, {"time": 746, "pitch": 58, "duration": 3, "velocity": 112}, {"time": 749, "pitch": 61, "duration": 33, "velocity": 122}, {"time": 1016, "pitch": 65, "duration": 2, "velocity": 100}, {"time": 1019, "pitch": 65, "duration": 2, "velocity": 77}, {"time": 1022, "pitch": 68, "duration": 2, "velocity": 107}, {"time": 1025, "pitch": 65, "duration": 2, "velocity": 73}, {"time": 1028, "pitch": 68, "duration": 3, "velocity": 112}, {"time": 1031, "pitch": 65, "duration": 3, "velocity": 99}, {"time": 1037, "pitch": 63, "duration": 3, "velocity": 107}, {"time": 1040, "pitch": 65, "duration": 18, "velocity": 100}, {"time": 1064, "pitch": 68, "duration": 2, "velocity": 96}, {"time": 1067, "pitch": 65, "duration": 2, "velocity": 74}, {"time": 1070, "pitch": 63, "duration": 3, "velocity": 112}, {"time": 1073, "pitch": 65, "duration": 3, "velocity": 82}, {"time": 1076, "pitch": 68, "duration": 4, "velocity": 117}, {"time": 1082, "pitch": 68, "duration": 4, "velocity": 92}, {"time": 1085, "pitch": 63, "duration": 3, "velocity": 100}, {"time": 1088, "pitch": 65, "duration": 15, "velocity": 99}, {"time": 1112, "pitch": 56, "duration": 3, "velocity": 99}, {"time": 1115, "pitch": 58, "duration": 3, "velocity": 92}, {"time": 1118, "pitch": 61, "duration": 4, "velocity": 97}, {"time": 1121, "pitch": 58, "duration": 4, "velocity": 100}, {"time": 1124, "pitch": 61, "duration": 5, "velocity": 97}, {"time": 1130, "pitch": 58, "duration": 6, "velocity": 102}, {"time": 1136, "pitch": 56, "duration": 7, "velocity": 96}, {"time": 1142, "pitch": 58, "duration": 3, "velocity": 100}, {"time": 1145, "pitch": 61, "duration": 15, "velocity": 100}, {"time": 1160, "pitch": 63, "duration": 3, "velocity": 117}, {"time": 1163, "pitch": 61, "duration": 3, "velocity": 96}, {"time": 1166, "pitch": 63, "duration": 4, "velocity": 100}, {"time": 1169, "pitch": 61, "duration": 2, "velocity": 85}, {"time": 1172, "pitch": 58, "duration": 4, "velocity": 97}, {"time": 1178, "pitch": 61, "duration": 3, "velocity": 93}, {"time": 1181, "pitch": 63, "duration": 24, "velocity": 97}, {"time": 1208, "pitch": 63, "duration": 4, "velocity": 117}, {"time": 1211, "pitch": 65, "duration": 3, "velocity": 76}, {"time": 1214, "pitch": 68, "duration": 4, "velocity": 107}, {"time": 1217, "pitch": 65, "duration": 3, "velocity": 92}, {"time": 1220, "pitch": 68, "duration": 3, "velocity": 112}, {"time": 1223, "pitch": 65, "duration": 5, "velocity": 93}, {"time": 1229, "pitch": 63, "duration": 3, "velocity": 95}, {"time": 1232, "pitch": 65, "duration": 19, "velocity": 102}, {"time": 1256, "pitch": 63, "duration": 3, "velocity": 117}, {"time": 1259, "pitch": 65, "duration": 3, "velocity": 96}, {"time": 1262, "pitch": 68, "duration": 3, "velocity": 112}, {"time": 1265, "pitch": 65, "duration": 3, "velocity": 95}, {"time": 1268, "pitch": 63, "duration": 3, "velocity": 95}, {"time": 1271, "pitch": 68, "duration": 4, "velocity": 99}, {"time": 1277, "pitch": 65, "duration": 18, "velocity": 93}, {"time": 1304, "pitch": 56, "duration": 3, "velocity": 95}, {"time": 1307, "pitch": 58, "duration": 4, "velocity": 73}, {"time": 1310, "pitch": 61, "duration": 4, "velocity": 97}, {"time": 1313, "pitch": 58, "duration": 3, "velocity": 88}, {"time": 1316, "pitch": 61, "duration": 7, "velocity": 90}, {"time": 1325, "pitch": 58, "duration": 3, "velocity": 102}, {"time": 1328, "pitch": 56, "duration": 4, "velocity": 97}, {"time": 1331, "pitch": 58, "duration": 3, "velocity": 95}, {"time": 1337, "pitch": 61, "duration": 15, "velocity": 100}, {"time": 1352, "pitch": 63, "duration": 2, "velocity": 112}, {"time": 1355, "pitch": 63, "duration": 4, "velocity": 107}, {"time": 1361, "pitch": 61, "duration": 2, "velocity": 100}, {"time": 1364, "pitch": 61, "duration": 3, "velocity": 100}, {"time": 1367, "pitch": 63, "duration": 5, "velocity": 97}, {"time": 1373, "pitch": 65, "duration": 25, "velocity": 99}, {"time": 1400, "pitch": 61, "duration": 3, "velocity": 122}, {"time": 1403, "pitch": 73, "duration": 2, "velocity": 102}, {"time": 1406, "pitch": 73, "duration": 4, "velocity": 107}, {"time": 1409, "pitch": 72, "duration": 3, "velocity": 100}, {"time": 1412, "pitch": 73, "duration": 5, "velocity": 122}, {"time": 1418, "pitch": 70, "duration": 4, "velocity": 112}, {"time": 1421, "pitch": 65, "duration": 3, "velocity": 85}, {"time": 1424, "pitch": 68, "duration": 20, "velocity": 117}, {"time": 1448, "pitch": 63, "duration": 3, "velocity": 127}, {"time": 1451, "pitch": 61, "duration": 2, "velocity": 97}, {"time": 1454, "pitch": 61, "duration": 3, "velocity": 117}, {"time": 1457, "pitch": 61, "duration": 2, "velocity": 107}, {"time": 1460, "pitch": 61, "duration": 3, "velocity": 122}, {"time": 1463, "pitch": 58, "duration": 4, "velocity": 100}, {"time": 1469, "pitch": 61, "duration": 2, "velocity": 117}, {"time": 1472, "pitch": 65, "duration": 20, "velocity": 100}, {"time": 1496, "pitch": 61, "duration": 3, "velocity": 127}, {"time": 1499, "pitch": 73, "duration": 2, "velocity": 122}, {"time": 1502, "pitch": 73, "duration": 3, "velocity": 112}, {"time": 1505, "pitch": 72, "duration": 2, "velocity": 107}, {"time": 1508, "pitch": 72, "duration": 4, "velocity": 122}, {"time": 1511, "pitch": 70, "duration": 4, "velocity": 102}, {"time": 1517, "pitch": 72, "duration": 4, "velocity": 112}, {"time": 1520, "pitch": 70, "duration": 4, "velocity": 117}, {"time": 1526, "pitch": 65, "duration": 3, "velocity": 100}, {"time": 1529, "pitch": 68, "duration": 13, "velocity": 127}, {"time": 1544, "pitch": 70, "duration": 3, "velocity": 127}, {"time": 1547, "pitch": 72, "duration": 4, "velocity": 102}, {"time": 1550, "pitch": 73, "duration": 3, "velocity": 127}, {"time": 1553, "pitch": 72, "duration": 3, "velocity": 117}, {"time": 1556, "pitch": 73, "duration": 3, "velocity": 127}, {"time": 1562, "pitch": 70, "duration": 3, "velocity": 127}, {"time": 1565, "pitch": 72, "duration": 23, "velocity": 122}, {"time": 1592, "pitch": 73, "duration": 3, "velocity": 127}, {"time": 1595, "pitch": 72, "duration": 4, "velocity": 93}, {"time": 1598, "pitch": 73, "duration": 4, "velocity": 122}, {"time": 1601, "pitch": 72, "duration": 3, "velocity": 95}, {"time": 1604, "pitch": 73, "duration": 3, "velocity": 127}, {"time": 1607, "pitch": 73, "duration": 4, "velocity": 127}, {"time": 1613, "pitch": 75, "duration": 3, "velocity": 127}, {"time": 1616, "pitch": 72, "duration": 4, "velocity": 107}, {"time": 1622, "pitch": 70, "duration": 3, "velocity": 122}, {"time": 1625, "pitch": 68, "duration": 10, "velocity": 99}, {"time": 1640, "pitch": 70, "duration": 3, "velocity": 127}, {"time": 1643, "pitch": 68, "duration": 4, "velocity": 122}, {"time": 1646, "pitch": 70, "duration": 3, "velocity": 117}, {"time": 1649, "pitch": 68, "duration": 3, "velocity": 122}, {"time": 1652, "pitch": 63, "duration": 7, "velocity": 117}, {"time": 1658, "pitch": 68, "duration": 3, "velocity": 127}, {"time": 1661, "pitch": 65, "duration": 22, "velocity": 122}, {"time": 1688, "pitch": 61, "duration": 4, "velocity": 127}, {"time": 1691, "pitch": 73, "duration": 2, "velocity": 127}, {"time": 1694, "pitch": 73, "duration": 3, "velocity": 122}, {"time": 1697, "pitch": 72, "duration": 4, "velocity": 102}, {"time": 1700, "pitch": 73, "duration": 5, "velocity": 127}, {"time": 1703, "pitch": 70, "duration": 4, "velocity": 122}, {"time": 1709, "pitch": 72, "duration": 3, "velocity": 117}, {"time": 1712, "pitch": 70, "duration": 5, "velocity": 127}, {"time": 1718, "pitch": 65, "duration": 3, "velocity": 107}, {"time": 1721, "pitch": 68, "duration": 11, "velocity": 122}, {"time": 1736, "pitch": 63, "duration": 3, "velocity": 127}, {"time": 1739, "pitch": 61, "duration": 2, "velocity": 122}, {"time": 1742, "pitch": 61, "duration": 2, "velocity": 117}, {"time": 1745, "pitch": 61, "duration": 2, "velocity": 117}, {"time": 1748, "pitch": 61, "duration": 4, "velocity": 117}, {"time": 1754, "pitch": 58, "duration": 3, "velocity": 127}, {"time": 1757, "pitch": 61, "duration": 23, "velocity": 127}, {"time": 1808, "pitch": 61, "duration": 3, "velocity": 112}, {"time": 1813, "pitch": 73, "duration": 2, "velocity": 96}, {"time": 1816, "pitch": 73, "duration": 3, "velocity": 107}, {"time": 1819, "pitch": 72, "duration": 2, "velocity": 93}, {"time": 1822, "pitch": 72, "duration": 6, "velocity": 112}, {"time": 1827, "pitch": 70, "duration": 3, "velocity": 117}, {"time": 1832, "pitch": 72, "duration": 2, "velocity": 112}, {"time": 1835, "pitch": 70, "duration": 5, "velocity": 117}, {"time": 1841, "pitch": 65, "duration": 4, "velocity": 99}, {"time": 1845, "pitch": 68, "duration": 17, "velocity": 107}, {"time": 1862, "pitch": 63, "duration": 4, "velocity": 122}, {"time": 1866, "pitch": 61, "duration": 2, "velocity": 93}, {"time": 1869, "pitch": 61, "duration": 3, "velocity": 102}, {"time": 1873, "pitch": 61, "duration": 3, "velocity": 97}, {"time": 1877, "pitch": 61, "duration": 31, "velocity": 117}, {"time": 1918, "pitch": 58, "duration": 13, "velocity": 117}, {"time": 1926, "pitch": 61, "duration": 64, "velocity": 117}]}, {"program": 0, "is_drum": false, "name": "BRIDGE", "notes": [{"time": 8, "pitch": 73, "duration": 13, "velocity": 99}, {"time": 20, "pitch": 75, "duration": 6, "velocity": 100}, {"time": 26, "pitch": 77, "duration": 6, "velocity": 95}, {"time": 32, "pitch": 72, "duration": 21, "velocity": 85}, {"time": 50, "pitch": 68, "duration": 7, "velocity": 107}, {"time": 56, "pitch": 70, "duration": 7, "velocity": 117}, {"time": 62, "pitch": 68, "duration": 6, "velocity": 112}, {"time": 68, "pitch": 66, "duration": 7, "velocity": 99}, {"time": 74, "pitch": 63, "duration": 6, "velocity": 76}, {"time": 80, "pitch": 65, "duration": 13, "velocity": 90}, {"time": 86, "pitch": 68, "duration": 8, "velocity": 96}, {"time": 92, "pitch": 75, "duration": 11, "velocity": 107}, {"time": 98, "pitch": 80, "duration": 7, "velocity": 100}, {"time": 104, "pitch": 73, "duration": 20, "velocity": 112}, {"time": 122, "pitch": 73, "duration": 2, "velocity": 117}, {"time": 128, "pitch": 72, "duration": 13, "velocity": 97}, {"time": 140, "pitch": 68, "duration": 13, "velocity": 117}, {"time": 152, "pitch": 70, "duration": 46, "velocity": 112}, {"time": 405, "pitch": 73, "duration": 3, "velocity": 127}, {"time": 409, "pitch": 75, "duration": 4, "velocity": 112}, {"time": 413, "pitch": 73, "duration": 4, "velocity": 99}, {"time": 417, "pitch": 72, "duration": 20, "velocity": 96}, {"time": 482, "pitch": 63, "duration": 3, "velocity": 117}, {"time": 485, "pitch": 60, "duration": 3, "velocity": 81}, {"time": 489, "pitch": 61, "duration": 24, "velocity": 100}, {"time": 569, "pitch": 57, "duration": 3, "velocity": 89}, {"time": 572, "pitch": 58, "duration": 3, "velocity": 92}, {"time": 575, "pitch": 60, "duration": 3, "velocity": 77}, {"time": 578, "pitch": 61, "duration": 4, "velocity": 97}, {"time": 581, "pitch": 63, "duration": 4, "velocity": 100}, {"time": 584, "pitch": 65, "duration": 25, "velocity": 96}, {"time": 626, "pitch": 60, "duration": 3, "velocity": 93}, {"time": 629, "pitch": 61, "duration": 4, "velocity": 90}, {"time": 662, "pitch": 63, "duration": 4, "velocity": 100}, {"time": 665, "pitch": 65, "duration": 4, "velocity": 88}, {"time": 671, "pitch": 63, "duration": 3, "velocity": 122}, {"time": 674, "pitch": 61, "duration": 4, "velocity": 97}, {"time": 678, "pitch": 60, "duration": 2, "velocity": 82}, {"time": 681, "pitch": 61, "duration": 17, "velocity": 107}, {"time": 800, "pitch": 63, "duration": 3, "velocity": 107}, {"time": 803, "pitch": 65, "duration": 4, "velocity": 72}, {"time": 806, "pitch": 68, "duration": 4, "velocity": 107}, {"time": 809, "pitch": 65, "duration": 4, "velocity": 74}, {"time": 812, "pitch": 68, "duration": 6, "velocity": 127}, {"time": 824, "pitch": 70, "duration": 11, "velocity": 122}, {"time": 836, "pitch": 68, "duration": 13, "velocity": 127}, {"time": 848, "pitch": 70, "duration": 12, "velocity": 127}, {"time": 857, "pitch": 58, "duration": 3, "velocity": 92}, {"time": 860, "pitch": 63, "duration": 7, "velocity": 96}, {"time": 866, "pitch": 68, "duration": 6, "velocity": 122}, {"time": 872, "pitch": 65, "duration": 10, "velocity": 93}, {"time": 878, "pitch": 68, "duration": 6, "velocity": 99}, {"time": 884, "pitch": 75, "duration": 6, "velocity": 100}, {"time": 890, "pitch": 72, "duration": 7, "velocity": 97}, {"time": 896, "pitch": 65, "duration": 14, "velocity": 100}, {"time": 896, "pitch": 73, "duration": 8, "velocity": 112}, {"time": 914, "pitch": 70, "duration": 4, "velocity": 127}, {"time": 917, "pitch": 73, "duration": 3, "velocity": 127}, {"time": 920, "pitch": 72, "duration": 7, "velocity": 112}, {"time": 932, "pitch": 68, "duration": 12, "velocity": 127}, {"time": 944, "pitch": 70, "duration": 19, "velocity": 127}, {"time": 992, "pitch": 68, "duration": 26, "velocity": 67}, {"time": 992, "pitch": 75, "duration": 26, "velocity": 73}, {"time": 992, "pitch": 80, "duration": 26, "velocity": 72}, {"time": 1097, "pitch": 68, "duration": 4, "velocity": 95}, {"time": 1100, "pitch": 65, "duration": 4, "velocity": 81}, {"time": 1103, "pitch": 68, "duration": 3, "velocity": 90}, {"time": 1106, "pitch": 73, "duration": 3, "velocity": 100}, {"time": 1109, "pitch": 72, "duration": 4, "velocity": 81}, {"time": 1112, "pitch": 73, "duration": 18, "velocity": 97}, {"time": 1157, "pitch": 77, "duration": 3, "velocity": 93}, {"time": 1160, "pitch": 78, "duration": 19, "velocity": 112}, {"time": 1196, "pitch": 70, "duration": 3, "velocity": 112}, {"time": 1199, "pitch": 72, "duration": 3, "velocity": 92}, {"time": 1202, "pitch": 73, "duration": 4, "velocity": 117}, {"time": 1205, "pitch": 75, "duration": 4, "velocity": 112}, {"time": 1208, "pitch": 77, "duration": 7, "velocity": 112}, {"time": 1217, "pitch": 77, "duration": 4, "velocity": 90}, {"time": 1220, "pitch": 89, "duration": 3, "velocity": 112}, {"time": 1223, "pitch": 77, "duration": 4, "velocity": 97}, {"time": 1226, "pitch": 87, "duration": 3, "velocity": 117}, {"time": 1229, "pitch": 85, "duration": 3, "velocity": 97}, {"time": 1232, "pitch": 84, "duration": 14, "velocity": 100}, {"time": 1250, "pitch": 84, "duration": 4, "velocity": 117}, {"time": 1253, "pitch": 85, "duration": 4, "velocity": 112}, {"time": 1256, "pitch": 82, "duration": 18, "velocity": 107}, {"time": 1268, "pitch": 80, "duration": 9, "velocity": 127}, {"time": 1277, "pitch": 78, "duration": 4, "velocity": 99}, {"time": 1280, "pitch": 77, "duration": 14, "velocity": 107}, {"time": 1289, "pitch": 75, "duration": 5, "velocity": 112}, {"time": 1295, "pitch": 73, "duration": 5, "velocity": 102}, {"time": 1301, "pitch": 72, "duration": 4, "velocity": 79}, {"time": 1304, "pitch": 73, "duration": 21, "velocity": 97}, {"time": 1338, "pitch": 73, "duration": 11, "velocity": 66}, {"time": 1339, "pitch": 77, "duration": 9, "velocity": 65}, {"time": 1340, "pitch": 80, "duration": 12, "velocity": 112}, {"time": 1389, "pitch": 72, "duration": 11, "velocity": 95}, {"time": 1389, "pitch": 69, "duration": 11, "velocity": 93}, {"time": 1478, "pitch": 65, "duration": 6, "velocity": 96}, {"time": 1484, "pitch": 63, "duration": 6, "velocity": 102}, {"time": 1490, "pitch": 61, "duration": 4, "velocity": 93}, {"time": 1493, "pitch": 60, "duration": 4, "velocity": 75}, {"time": 1496, "pitch": 61, "duration": 23, "velocity": 102}, {"time": 1574, "pitch": 70, "duration": 7, "velocity": 127}, {"time": 1580, "pitch": 69, "duration": 3, "velocity": 100}, {"time": 1583, "pitch": 70, "duration": 3, "velocity": 127}, {"time": 1587, "pitch": 72, "duration": 3, "velocity": 102}, {"time": 1590, "pitch": 73, "duration": 3, "velocity": 127}, {"time": 1593, "pitch": 77, "duration": 17, "velocity": 107}, {"time": 1622, "pitch": 68, "duration": 6, "velocity": 102}, {"time": 1622, "pitch": 80, "duration": 6, "velocity": 127}, {"time": 1628, "pitch": 70, "duration": 6, "velocity": 122}, {"time": 1629, "pitch": 82, "duration": 5, "velocity": 127}, {"time": 1634, "pitch": 84, "duration": 7, "velocity": 112}, {"time": 1634, "pitch": 72, "duration": 7, "velocity": 127}, {"time": 1641, "pitch": 85, "duration": 22, "velocity": 127}, {"time": 1641, "pitch": 73, "duration": 21, "velocity": 122}, {"time": 1673, "pitch": 72, "duration": 4, "velocity": 81}, {"time": 1676, "pitch": 75, "duration": 11, "velocity": 122}, {"time": 1682, "pitch": 72, "duration": 6, "velocity": 107}, {"time": 1689, "pitch": 73, "duration": 23, "velocity": 122}, {"time": 1947, "pitch": 63, "duration": 6, "velocity": 107}, {"time": 1953, "pitch": 61, "duration": 10, "velocity": 97}, {"time": 1959, "pitch": 63, "duration": 12, "velocity": 93}, {"time": 1971, "pitch": 56, "duration": 16, "velocity": 97}, {"time": 1986, "pitch": 58, "duration": 6, "velocity": 102}, {"time": 1992, "pitch": 61, "duration": 9, "velocity": 102}, {"time": 2001, "pitch": 60, "duration": 30, "velocity": 90}, {"time": 2030, "pitch": 61, "duration": 55, "velocity": 65}]}, {"program": 0, "is_drum": false, "name": "PIANO", "notes": [{"time": 8, "pitch": 46, "duration": 17, "velocity": 66}, {"time": 14, "pitch": 53, "duration": 10, "velocity": 52}, {"time": 20, "pitch": 61, "duration": 14, "velocity": 66}, {"time": 20, "pitch": 65, "duration": 13, "velocity": 60}, {"time": 26, "pitch": 58, "duration": 8, "velocity": 47}, {"time": 32, "pitch": 41, "duration": 16, "velocity": 65}, {"time": 38, "pitch": 48, "duration": 10, "velocity": 41}, {"time": 44, "pitch": 56, "duration": 12, "velocity": 78}, {"time": 44, "pitch": 60, "duration": 12, "velocity": 72}, {"time": 50, "pitch": 53, "duration": 6, "velocity": 50}, {"time": 56, "pitch": 42, "duration": 9, "velocity": 62}, {"time": 62, "pitch": 54, "duration": 7, "velocity": 54}, {"time": 68, "pitch": 44, "duration": 8, "velocity": 88}, {"time": 74, "pitch": 60, "duration": 6, "velocity": 69}, {"time": 74, "pitch": 63, "duration": 6, "velocity": 64}, {"time": 80, "pitch": 49, "duration": 13, "velocity": 72}, {"time": 86, "pitch": 56, "duration": 8, "velocity": 86}, {"time": 92, "pitch": 48, "duration": 7, "velocity": 68}, {"time": 98, "pitch": 60, "duration": 7, "velocity": 66}, {"time": 104, "pitch": 46, "duration": 14, "velocity": 69}, {"time": 110, "pitch": 58, "duration": 7, "velocity": 50}, {"time": 116, "pitch": 61, "duration": 13, "velocity": 71}, {"time": 116, "pitch": 65, "duration": 12, "velocity": 68}, {"time": 122, "pitch": 58, "duration": 8, "velocity": 53}, {"time": 128, "pitch": 41, "duration": 15, "velocity": 66}, {"time": 134, "pitch": 48, "duration": 9, "velocity": 53}, {"time": 140, "pitch": 56, "duration": 12, "velocity": 75}, {"time": 140, "pitch": 60, "duration": 12, "velocity": 73}, {"time": 146, "pitch": 53, "duration": 6, "velocity": 50}, {"time": 152, "pitch": 42, "duration": 44, "velocity": 85}, {"time": 158, "pitch": 54, "duration": 10, "velocity": 75}, {"time": 164, "pitch": 58, "duration": 36, "velocity": 69}, {"time": 164, "pitch": 61, "duration": 36, "velocity": 66}, {"time": 170, "pitch": 54, "duration": 26, "velocity": 55}, {"time": 176, "pitch": 66, "duration": 24, "velocity": 65}, {"time": 200, "pitch": 37, "duration": 25, "velocity": 69}, {"time": 200, "pitch": 61, "duration": 11, "velocity": 56}, {"time": 200, "pitch": 65, "duration": 7, "velocity": 62}, {"time": 200, "pitch": 68, "duration": 8, "velocity": 63}, {"time": 206, "pitch": 49, "duration": 9, "velocity": 55}, {"time": 212, "pitch": 65, "duration": 9, "velocity": 56}, {"time": 212, "pitch": 68, "duration": 10, "velocity": 64}, {"time": 218, "pitch": 61, "duration": 5, "velocity": 40}, {"time": 224, "pitch": 36, "duration": 14, "velocity": 54}, {"time": 224, "pitch": 60, "duration": 13, "velocity": 63}, {"time": 224, "pitch": 65, "duration": 7, "velocity": 64}, {"time": 224, "pitch": 68, "duration": 7, "velocity": 57}, {"time": 236, "pitch": 65, "duration": 4, "velocity": 66}, {"time": 236, "pitch": 68, "duration": 5, "velocity": 63}, {"time": 248, "pitch": 34, "duration": 4, "velocity": 40}, {"time": 248, "pitch": 58, "duration": 7, "velocity": 56}, {"time": 248, "pitch": 61, "duration": 6, "velocity": 68}, {"time": 248, "pitch": 65, "duration": 6, "velocity": 58}, {"time": 260, "pitch": 32, "duration": 3, "velocity": 48}, {"time": 260, "pitch": 56, "duration": 7, "velocity": 44}, {"time": 260, "pitch": 60, "duration": 5, "velocity": 60}, {"time": 260, "pitch": 63, "duration": 6, "velocity": 63}, {"time": 272, "pitch": 37, "duration": 19, "velocity": 63}, {"time": 272, "pitch": 56, "duration": 7, "velocity": 42}, {"time": 272, "pitch": 61, "duration": 7, "velocity": 59}, {"time": 272, "pitch": 65, "duration": 7, "velocity": 53}, {"time": 278, "pitch": 49, "duration": 9, "velocity": 43}, {"time": 284, "pitch": 56, "duration": 8, "velocity": 50}, {"time": 284, "pitch": 61, "duration": 6, "velocity": 56}, {"time": 284, "pitch": 65, "duration": 6, "velocity": 56}, {"time": 290, "pitch": 49, "duration": 2, "velocity": 50}, {"time": 296, "pitch": 42, "duration": 16, "velocity": 78}, {"time": 296, "pitch": 58, "duration": 8, "velocity": 64}, {"time": 296, "pitch": 61, "duration": 8, "velocity": 63}, {"time": 302, "pitch": 54, "duration": 7, "velocity": 44}, {"time": 308, "pitch": 58, "duration": 7, "velocity": 71}, {"time": 308, "pitch": 61, "duration": 7, "velocity": 70}, {"time": 314, "pitch": 54, "duration": 2, "velocity": 56}, {"time": 320, "pitch": 41, "duration": 17, "velocity": 66}, {"time": 320, "pitch": 56, "duration": 4, "velocity": 61}, {"time": 320, "pitch": 60, "duration": 4, "velocity": 68}, {"time": 326, "pitch": 48, "duration": 11, "velocity": 59}, {"time": 332, "pitch": 53, "duration": 5, "velocity": 64}, {"time": 332, "pitch": 65, "duration": 13, "velocity": 58}, {"time": 332, "pitch": 68, "duration": 13, "velocity": 67}, {"time": 338, "pitch": 60, "duration": 8, "velocity": 54}, {"time": 344, "pitch": 39, "duration": 19, "velocity": 83}, {"time": 350, "pitch": 51, "duration": 9, "velocity": 59}, {"time": 356, "pitch": 58, "duration": 5, "velocity": 70}, {"time": 356, "pitch": 63, "duration": 6, "velocity": 66}, {"time": 368, "pitch": 36, "duration": 3, "velocity": 54}, {"time": 368, "pitch": 48, "duration": 4, "velocity": 64}, {"time": 368, "pitch": 51, "duration": 4, "velocity": 70}, {"time": 368, "pitch": 55, "duration": 5, "velocity": 66}, {"time": 380, "pitch": 41, "duration": 6, "velocity": 59}, {"time": 380, "pitch": 53, "duration": 6, "velocity": 66}, {"time": 380, "pitch": 57, "duration": 6, "velocity": 69}, {"time": 380, "pitch": 60, "duration": 6, "velocity": 68}, {"time": 392, "pitch": 37, "duration": 18, "velocity": 54}, {"time": 392, "pitch": 61, "duration": 1, "velocity": 53}, {"time": 392, "pitch": 65, "duration": 7, "velocity": 64}, {"time": 392, "pitch": 68, "duration": 8, "velocity": 63}, {"time": 398, "pitch": 49, "duration": 10, "velocity": 64}, {"time": 404, "pitch": 65, "duration": 9, "velocity": 66}, {"time": 404, "pitch": 68, "duration": 11, "velocity": 76}, {"time": 410, "pitch": 61, "duration": 5, "velocity": 52}, {"time": 416, "pitch": 36, "duration": 16, "velocity": 66}, {"time": 416, "pitch": 60, "duration": 6, "velocity": 67}, {"time": 416, "pitch": 65, "duration": 7, "velocity": 68}, {"time": 416, "pitch": 68, "duration": 8, "velocity": 60}, {"time": 422, "pitch": 60, "duration": 7, "velocity": 68}, {"time": 428, "pitch": 65, "duration": 8, "velocity": 68}, {"time": 428, "pitch": 68, "duration": 8, "velocity": 72}, {"time": 434, "pitch": 60, "duration": 3, "velocity": 46}, {"time": 440, "pitch": 42, "duration": 6, "velocity": 73}, {"time": 440, "pitch": 54, "duration": 8, "velocity": 85}, {"time": 440, "pitch": 58, "duration": 6, "velocity": 66}, {"time": 440, "pitch": 61, "duration": 7, "velocity": 63}, {"time": 452, "pitch": 44, "duration": 5, "velocity": 60}, {"time": 452, "pitch": 56, "duration": 8, "velocity": 63}, {"time": 452, "pitch": 60, "duration": 5, "velocity": 73}, {"time": 452, "pitch": 63, "duration": 5, "velocity": 69}, {"time": 464, "pitch": 37, "duration": 12, "velocity": 68}, {"time": 464, "pitch": 56, "duration": 3, "velocity": 63}, {"time": 464, "pitch": 61, "duration": 13, "velocity": 70}, {"time": 464, "pitch": 65, "duration": 8, "velocity": 61}, {"time": 476, "pitch": 36, "duration": 6, "velocity": 44}, {"time": 476, "pitch": 60, "duration": 10, "velocity": 74}, {"time": 488, "pitch": 46, "duration": 18, "velocity": 61}, {"time": 488, "pitch": 58, "duration": 9, "velocity": 55}, {"time": 488, "pitch": 61, "duration": 9, "velocity": 63}, {"time": 488, "pitch": 65, "duration": 7, "velocity": 49}, {"time": 500, "pitch": 61, "duration": 6, "velocity": 66}, {"time": 500, "pitch": 65, "duration": 5, "velocity": 64}, {"time": 512, "pitch": 41, "duration": 5, "velocity": 45}, {"time": 512, "pitch": 53, "duration": 6, "velocity": 58}, {"time": 512, "pitch": 56, "duration": 5, "velocity": 63}, {"time": 512, "pitch": 60, "duration": 6, "velocity": 68}, {"time": 524, "pitch": 46, "duration": 7, "velocity": 49}, {"time": 524, "pitch": 58, "duration": 7, "velocity": 70}, {"time": 524, "pitch": 61, "duration": 7, "velocity": 59}, {"time": 536, "pitch": 39, "duration": 19, "velocity": 77}, {"time": 536, "pitch": 54, "duration": 8, "velocity": 72}, {"time": 536, "pitch": 58, "duration": 8, "velocity": 69}, {"time": 542, "pitch": 51, "duration": 11, "velocity": 44}, {"time": 548, "pitch": 54, "duration": 6, "velocity": 73}, {"time": 548, "pitch": 58, "duration": 7, "velocity": 67}, {"time": 554, "pitch": 51, "duration": 3, "velocity": 56}, {"time": 560, "pitch": 41, "duration": 16, "velocity": 68}, {"time": 560, "pitch": 53, "duration": 10, "velocity": 75}, {"time": 560, "pitch": 57, "duration": 11, "velocity": 79}, {"time": 560, "pitch": 60, "duration": 11, "velocity": 81}, {"time": 572, "pitch": 57, "duration": 7, "velocity": 102}, {"time": 572, "pitch": 60, "duration": 7, "velocity": 100}, {"time": 575, "pitch": 48, "duration": 1, "velocity": 60}, {"time": 578, "pitch": 53, "duration": 1, "velocity": 93}, {"time": 584, "pitch": 37, "duration": 2, "velocity": 99}, {"time": 584, "pitch": 61, "duration": 5, "velocity": 107}, {"time": 584, "pitch": 65, "duration": 7, "velocity": 107}, {"time": 584, "pitch": 68, "duration": 8, "velocity": 107}, {"time": 590, "pitch": 61, "duration": 4, "velocity": 82}, {"time": 596, "pitch": 61, "duration": 6, "velocity": 112}, {"time": 596, "pitch": 65, "duration": 7, "velocity": 122}, {"time": 596, "pitch": 68, "duration": 7, "velocity": 107}, {"time": 602, "pitch": 56, "duration": 1, "velocity": 92}, {"time": 608, "pitch": 41, "duration": 16, "velocity": 77}, {"time": 608, "pitch": 53, "duration": 7, "velocity": 82}, {"time": 608, "pitch": 56, "duration": 7, "velocity": 89}, {"time": 608, "pitch": 60, "duration": 7, "velocity": 92}, {"time": 614, "pitch": 48, "duration": 7, "velocity": 71}, {"time": 620, "pitch": 56, "duration": 6, "velocity": 117}, {"time": 620, "pitch": 60, "duration": 7, "velocity": 100}, {"time": 623, "pitch": 48, "duration": 2, "velocity": 95}, {"time": 632, "pitch": 42, "duration": 9, "velocity": 97}, {"time": 632, "pitch": 58, "duration": 6, "velocity": 122}, {"time": 632, "pitch": 61, "duration": 7, "velocity": 122}, {"time": 638, "pitch": 54, "duration": 6, "velocity": 107}, {"time": 644, "pitch": 44, "duration": 4, "velocity": 100}, {"time": 644, "pitch": 56, "duration": 5, "velocity": 100}, {"time": 644, "pitch": 60, "duration": 4, "velocity": 100}, {"time": 644, "pitch": 63, "duration": 6, "velocity": 100}, {"time": 656, "pitch": 49, "duration": 7, "velocity": 112}, {"time": 656, "pitch": 65, "duration": 7, "velocity": 92}, {"time": 656, "pitch": 68, "duration": 7, "velocity": 107}, {"time": 662, "pitch": 61, "duration": 2, "velocity": 107}, {"time": 668, "pitch": 48, "duration": 6, "velocity": 73}, {"time": 668, "pitch": 60, "duration": 7, "velocity": 99}, {"time": 671, "pitch": 65, "duration": 4, "velocity": 77}, {"time": 674, "pitch": 68, "duration": 5, "velocity": 117}, {"time": 677, "pitch": 60, "duration": 4, "velocity": 85}, {"time": 680, "pitch": 46, "duration": 16, "velocity": 97}, {"time": 680, "pitch": 61, "duration": 8, "velocity": 99}, {"time": 686, "pitch": 58, "duration": 7, "velocity": 93}, {"time": 692, "pitch": 61, "duration": 7, "velocity": 122}, {"time": 692, "pitch": 65, "duration": 7, "velocity": 99}, {"time": 704, "pitch": 41, "duration": 16, "velocity": 73}, {"time": 704, "pitch": 53, "duration": 8, "velocity": 92}, {"time": 704, "pitch": 56, "duration": 10, "velocity": 102}, {"time": 704, "pitch": 60, "duration": 9, "velocity": 96}, {"time": 710, "pitch": 48, "duration": 8, "velocity": 58}, {"time": 716, "pitch": 56, "duration": 6, "velocity": 122}, {"time": 716, "pitch": 60, "duration": 6, "velocity": 97}, {"time": 719, "pitch": 48, "duration": 2, "velocity": 79}, {"time": 722, "pitch": 53, "duration": 2, "velocity": 85}, {"time": 728, "pitch": 42, "duration": 4, "velocity": 95}, {"time": 728, "pitch": 54, "duration": 5, "velocity": 95}, {"time": 728, "pitch": 58, "duration": 4, "velocity": 100}, {"time": 728, "pitch": 61, "duration": 5, "velocity": 93}, {"time": 740, "pitch": 44, "duration": 5, "velocity": 71}, {"time": 740, "pitch": 56, "duration": 4, "velocity": 96}, {"time": 740, "pitch": 60, "duration": 4, "velocity": 102}, {"time": 740, "pitch": 63, "duration": 5, "velocity": 100}, {"time": 752, "pitch": 37, "duration": 2, "velocity": 100}, {"time": 752, "pitch": 61, "duration": 5, "velocity": 96}, {"time": 752, "pitch": 65, "duration": 7, "velocity": 82}, {"time": 752, "pitch": 68, "duration": 8, "velocity": 89}, {"time": 758, "pitch": 61, "duration": 4, "velocity": 69}, {"time": 764, "pitch": 65, "duration": 6, "velocity": 100}, {"time": 764, "pitch": 68, "duration": 6, "velocity": 102}, {"time": 767, "pitch": 56, "duration": 2, "velocity": 97}, {"time": 770, "pitch": 61, "duration": 1, "velocity": 96}, {"time": 776, "pitch": 37, "duration": 17, "velocity": 61}, {"time": 776, "pitch": 49, "duration": 19, "velocity": 67}, {"time": 776, "pitch": 56, "duration": 18, "velocity": 72}, {"time": 776, "pitch": 61, "duration": 18, "velocity": 65}, {"time": 776, "pitch": 65, "duration": 17, "velocity": 53}, {"time": 800, "pitch": 46, "duration": 16, "velocity": 75}, {"time": 800, "pitch": 58, "duration": 9, "velocity": 99}, {"time": 800, "pitch": 61, "duration": 10, "velocity": 90}, {"time": 812, "pitch": 58, "duration": 8, "velocity": 97}, {"time": 812, "pitch": 61, "duration": 8, "velocity": 96}, {"time": 812, "pitch": 65, "duration": 7, "velocity": 66}, {"time": 818, "pitch": 46, "duration": 2, "velocity": 68}, {"time": 824, "pitch": 41, "duration": 14, "velocity": 57}, {"time": 824, "pitch": 53, "duration": 10, "velocity": 88}, {"time": 824, "pitch": 56, "duration": 11, "velocity": 89}, {"time": 824, "pitch": 60, "duration": 11, "velocity": 82}, {"time": 836, "pitch": 56, "duration": 6, "velocity": 112}, {"time": 836, "pitch": 60, "duration": 7, "velocity": 93}, {"time": 839, "pitch": 41, "duration": 2, "velocity": 90}, {"time": 842, "pitch": 53, "duration": 1, "velocity": 74}, {"time": 848, "pitch": 42, "duration": 8, "velocity": 90}, {"time": 848, "pitch": 54, "duration": 8, "velocity": 78}, {"time": 848, "pitch": 58, "duration": 6, "velocity": 95}, {"time": 860, "pitch": 44, "duration": 3, "velocity": 99}, {"time": 860, "pitch": 56, "duration": 5, "velocity": 73}, {"time": 860, "pitch": 60, "duration": 5, "velocity": 89}, {"time": 860, "pitch": 63, "duration": 6, "velocity": 72}, {"time": 872, "pitch": 49, "duration": 6, "velocity": 72}, {"time": 872, "pitch": 61, "duration": 7, "velocity": 86}, {"time": 872, "pitch": 65, "duration": 7, "velocity": 93}, {"time": 872, "pitch": 68, "duration": 11, "velocity": 90}, {"time": 884, "pitch": 48, "duration": 4, "velocity": 75}, {"time": 884, "pitch": 60, "duration": 7, "velocity": 86}, {"time": 884, "pitch": 65, "duration": 6, "velocity": 77}, {"time": 884, "pitch": 68, "duration": 6, "velocity": 75}, {"time": 896, "pitch": 34, "duration": 17, "velocity": 79}, {"time": 896, "pitch": 58, "duration": 9, "velocity": 73}, {"time": 896, "pitch": 61, "duration": 8, "velocity": 70}, {"time": 896, "pitch": 65, "duration": 7, "velocity": 68}, {"time": 902, "pitch": 46, "duration": 8, "velocity": 48}, {"time": 908, "pitch": 61, "duration": 6, "velocity": 99}, {"time": 908, "pitch": 65, "duration": 6, "velocity": 79}, {"time": 914, "pitch": 58, "duration": 1, "velocity": 40}, {"time": 920, "pitch": 41, "duration": 15, "velocity": 73}, {"time": 920, "pitch": 53, "duration": 8, "velocity": 81}, {"time": 920, "pitch": 56, "duration": 9, "velocity": 92}, {"time": 920, "pitch": 60, "duration": 9, "velocity": 79}, {"time": 926, "pitch": 48, "duration": 7, "velocity": 47}, {"time": 932, "pitch": 56, "duration": 6, "velocity": 117}, {"time": 932, "pitch": 60, "duration": 6, "velocity": 93}, {"time": 935, "pitch": 48, "duration": 2, "velocity": 65}, {"time": 938, "pitch": 53, "duration": 2, "velocity": 89}, {"time": 944, "pitch": 42, "duration": 6, "velocity": 76}, {"time": 944, "pitch": 54, "duration": 7, "velocity": 96}, {"time": 944, "pitch": 61, "duration": 6, "velocity": 97}, {"time": 956, "pitch": 44, "duration": 4, "velocity": 71}, {"time": 956, "pitch": 56, "duration": 4, "velocity": 95}, {"time": 956, "pitch": 60, "duration": 4, "velocity": 102}, {"time": 956, "pitch": 63, "duration": 4, "velocity": 93}, {"time": 968, "pitch": 49, "duration": 16, "velocity": 69}, {"time": 968, "pitch": 61, "duration": 11, "velocity": 93}, {"time": 968, "pitch": 65, "duration": 7, "velocity": 92}, {"time": 968, "pitch": 68, "duration": 8, "velocity": 86}, {"time": 974, "pitch": 56, "duration": 7, "velocity": 56}, {"time": 980, "pitch": 65, "duration": 7, "velocity": 93}, {"time": 980, "pitch": 68, "duration": 7, "velocity": 96}, {"time": 983, "pitch": 56, "duration": 2, "velocity": 85}, {"time": 986, "pitch": 61, "duration": 4, "velocity": 77}, {"time": 989, "pitch": 65, "duration": 1, "velocity": 27}, {"time": 992, "pitch": 37, "duration": 26, "velocity": 88}, {"time": 992, "pitch": 49, "duration": 26, "velocity": 60}, {"time": 992, "pitch": 61, "duration": 26, "velocity": 90}, {"time": 992, "pitch": 65, "duration": 26, "velocity": 88}, {"time": 992, "pitch": 68, "duration": 26, "velocity": 77}, {"time": 1016, "pitch": 37, "duration": 2, "velocity": 78}, {"time": 1019, "pitch": 49, "duration": 11, "velocity": 53}, {"time": 1022, "pitch": 61, "duration": 7, "velocity": 44}, {"time": 1025, "pitch": 65, "duration": 8, "velocity": 41}, {"time": 1028, "pitch": 68, "duration": 13, "velocity": 100}, {"time": 1031, "pitch": 49, "duration": 3, "velocity": 66}, {"time": 1034, "pitch": 61, "duration": 7, "velocity": 85}, {"time": 1040, "pitch": 36, "duration": 17, "velocity": 72}, {"time": 1043, "pitch": 48, "duration": 11, "velocity": 72}, {"time": 1046, "pitch": 60, "duration": 19, "velocity": 67}, {"time": 1049, "pitch": 68, "duration": 15, "velocity": 100}, {"time": 1055, "pitch": 48, "duration": 4, "velocity": 53}, {"time": 1058, "pitch": 65, "duration": 7, "velocity": 69}, {"time": 1064, "pitch": 46, "duration": 8, "velocity": 55}, {"time": 1067, "pitch": 58, "duration": 4, "velocity": 82}, {"time": 1070, "pitch": 61, "duration": 5, "velocity": 82}, {"time": 1073, "pitch": 65, "duration": 3, "velocity": 82}, {"time": 1076, "pitch": 44, "duration": 6, "velocity": 88}, {"time": 1079, "pitch": 56, "duration": 10, "velocity": 67}, {"time": 1082, "pitch": 63, "duration": 6, "velocity": 79}, {"time": 1088, "pitch": 37, "duration": 18, "velocity": 73}, {"time": 1091, "pitch": 49, "duration": 11, "velocity": 74}, {"time": 1094, "pitch": 56, "duration": 13, "velocity": 67}, {"time": 1097, "pitch": 65, "duration": 10, "velocity": 72}, {"time": 1103, "pitch": 49, "duration": 4, "velocity": 64}, {"time": 1106, "pitch": 61, "duration": 2, "velocity": 50}, {"time": 1112, "pitch": 42, "duration": 19, "velocity": 97}, {"time": 1115, "pitch": 54, "duration": 8, "velocity": 72}, {"time": 1118, "pitch": 58, "duration": 11, "velocity": 85}, {"time": 1121, "pitch": 61, "duration": 16, "velocity": 96}, {"time": 1127, "pitch": 54, "duration": 3, "velocity": 85}, {"time": 1130, "pitch": 58, "duration": 6, "velocity": 78}, {"time": 1136, "pitch": 41, "duration": 18, "velocity": 72}, {"time": 1139, "pitch": 48, "duration": 9, "velocity": 52}, {"time": 1142, "pitch": 53, "duration": 4, "velocity": 66}, {"time": 1145, "pitch": 56, "duration": 15, "velocity": 78}, {"time": 1145, "pitch": 60, "duration": 15, "velocity": 93}, {"time": 1151, "pitch": 48, "duration": 2, "velocity": 58}, {"time": 1154, "pitch": 39, "duration": 1, "velocity": 44}, {"time": 1154, "pitch": 53, "duration": 6, "velocity": 77}, {"time": 1160, "pitch": 39, "duration": 19, "velocity": 99}, {"time": 1163, "pitch": 51, "duration": 9, "velocity": 62}, {"time": 1166, "pitch": 54, "duration": 4, "velocity": 62}, {"time": 1169, "pitch": 58, "duration": 10, "velocity": 74}, {"time": 1169, "pitch": 63, "duration": 10, "velocity": 97}, {"time": 1175, "pitch": 51, "duration": 3, "velocity": 62}, {"time": 1178, "pitch": 54, "duration": 2, "velocity": 85}, {"time": 1184, "pitch": 36, "duration": 4, "velocity": 66}, {"time": 1184, "pitch": 55, "duration": 8, "velocity": 75}, {"time": 1184, "pitch": 60, "duration": 6, "velocity": 81}, {"time": 1184, "pitch": 63, "duration": 6, "velocity": 85}, {"time": 1196, "pitch": 41, "duration": 9, "velocity": 75}, {"time": 1196, "pitch": 53, "duration": 11, "velocity": 86}, {"time": 1196, "pitch": 57, "duration": 11, "velocity": 85}, {"time": 1196, "pitch": 60, "duration": 11, "velocity": 90}, {"time": 1208, "pitch": 37, "duration": 17, "velocity": 93}, {"time": 1211, "pitch": 49, "duration": 9, "velocity": 45}, {"time": 1214, "pitch": 61, "duration": 4, "velocity": 51}, {"time": 1217, "pitch": 65, "duration": 16, "velocity": 89}, {"time": 1217, "pitch": 68, "duration": 10, "velocity": 99}, {"time": 1223, "pitch": 49, "duration": 4, "velocity": 56}, {"time": 1226, "pitch": 61, "duration": 7, "velocity": 89}, {"time": 1229, "pitch": 68, "duration": 5, "velocity": 61}, {"time": 1232, "pitch": 41, "duration": 17, "velocity": 79}, {"time": 1235, "pitch": 53, "duration": 10, "velocity": 71}, {"time": 1238, "pitch": 60, "duration": 4, "velocity": 74}, {"time": 1241, "pitch": 65, "duration": 9, "velocity": 82}, {"time": 1241, "pitch": 68, "duration": 10, "velocity": 97}, {"time": 1247, "pitch": 53, "duration": 2, "velocity": 47}, {"time": 1250, "pitch": 60, "duration": 1, "velocity": 90}, {"time": 1256, "pitch": 42, "duration": 7, "velocity": 96}, {"time": 1259, "pitch": 54, "duration": 5, "velocity": 69}, {"time": 1262, "pitch": 58, "duration": 1, "velocity": 99}, {"time": 1268, "pitch": 44, "duration": 5, "velocity": 74}, {"time": 1268, "pitch": 60, "duration": 5, "velocity": 85}, {"time": 1268, "pitch": 63, "duration": 6, "velocity": 96}, {"time": 1280, "pitch": 49, "duration": 7, "velocity": 89}, {"time": 1280, "pitch": 65, "duration": 13, "velocity": 74}, {"time": 1280, "pitch": 68, "duration": 7, "velocity": 89}, {"time": 1286, "pitch": 61, "duration": 4, "velocity": 76}, {"time": 1289, "pitch": 68, "duration": 4, "velocity": 93}, {"time": 1292, "pitch": 48, "duration": 5, "velocity": 71}, {"time": 1295, "pitch": 60, "duration": 10, "velocity": 88}, {"time": 1298, "pitch": 68, "duration": 6, "velocity": 127}, {"time": 1301, "pitch": 65, "duration": 4, "velocity": 47}, {"time": 1304, "pitch": 46, "duration": 18, "velocity": 89}, {"time": 1310, "pitch": 58, "duration": 3, "velocity": 81}, {"time": 1316, "pitch": 58, "duration": 1, "velocity": 66}, {"time": 1316, "pitch": 61, "duration": 7, "velocity": 75}, {"time": 1316, "pitch": 65, "duration": 7, "velocity": 75}, {"time": 1322, "pitch": 58, "duration": 2, "velocity": 64}, {"time": 1328, "pitch": 41, "duration": 7, "velocity": 66}, {"time": 1328, "pitch": 53, "duration": 8, "velocity": 88}, {"time": 1328, "pitch": 56, "duration": 6, "velocity": 90}, {"time": 1328, "pitch": 60, "duration": 7, "velocity": 86}, {"time": 1340, "pitch": 46, "duration": 5, "velocity": 67}, {"time": 1340, "pitch": 53, "duration": 5, "velocity": 81}, {"time": 1340, "pitch": 58, "duration": 6, "velocity": 90}, {"time": 1340, "pitch": 61, "duration": 6, "velocity": 93}, {"time": 1352, "pitch": 39, "duration": 19, "velocity": 85}, {"time": 1352, "pitch": 54, "duration": 11, "velocity": 102}, {"time": 1352, "pitch": 58, "duration": 8, "velocity": 97}, {"time": 1358, "pitch": 51, "duration": 9, "velocity": 47}, {"time": 1364, "pitch": 54, "duration": 7, "velocity": 102}, {"time": 1364, "pitch": 58, "duration": 7, "velocity": 100}, {"time": 1370, "pitch": 51, "duration": 3, "velocity": 53}, {"time": 1376, "pitch": 41, "duration": 17, "velocity": 76}, {"time": 1376, "pitch": 53, "duration": 6, "velocity": 97}, {"time": 1376, "pitch": 57, "duration": 7, "velocity": 102}, {"time": 1376, "pitch": 60, "duration": 7, "velocity": 95}, {"time": 1382, "pitch": 48, "duration": 8, "velocity": 79}, {"time": 1388, "pitch": 57, "duration": 6, "velocity": 112}, {"time": 1388, "pitch": 60, "duration": 6, "velocity": 112}, {"time": 1391, "pitch": 48, "duration": 2, "velocity": 92}, {"time": 1394, "pitch": 53, "duration": 1, "velocity": 107}, {"time": 1400, "pitch": 46, "duration": 17, "velocity": 78}, {"time": 1400, "pitch": 58, "duration": 10, "velocity": 122}, {"time": 1400, "pitch": 61, "duration": 11, "velocity": 107}, {"time": 1400, "pitch": 65, "duration": 8, "velocity": 82}, {"time": 1412, "pitch": 58, "duration": 8, "velocity": 127}, {"time": 1412, "pitch": 61, "duration": 8, "velocity": 117}, {"time": 1412, "pitch": 65, "duration": 8, "velocity": 92}, {"time": 1418, "pitch": 46, "duration": 2, "velocity": 76}, {"time": 1424, "pitch": 41, "duration": 19, "velocity": 81}, {"time": 1424, "pitch": 53, "duration": 10, "velocity": 96}, {"time": 1424, "pitch": 56, "duration": 10, "velocity": 102}, {"time": 1424, "pitch": 60, "duration": 11, "velocity": 97}, {"time": 1436, "pitch": 56, "duration": 7, "velocity": 122}, {"time": 1436, "pitch": 60, "duration": 7, "velocity": 100}, {"time": 1442, "pitch": 53, "duration": 1, "velocity": 88}, {"time": 1448, "pitch": 42, "duration": 6, "velocity": 85}, {"time": 1448, "pitch": 54, "duration": 7, "velocity": 99}, {"time": 1448, "pitch": 58, "duration": 6, "velocity": 112}, {"time": 1448, "pitch": 61, "duration": 7, "velocity": 100}, {"time": 1460, "pitch": 44, "duration": 4, "velocity": 83}, {"time": 1460, "pitch": 56, "duration": 4, "velocity": 100}, {"time": 1460, "pitch": 60, "duration": 4, "velocity": 117}, {"time": 1460, "pitch": 63, "duration": 5, "velocity": 112}, {"time": 1472, "pitch": 37, "duration": 8, "velocity": 102}, {"time": 1472, "pitch": 61, "duration": 3, "velocity": 100}, {"time": 1472, "pitch": 65, "duration": 7, "velocity": 107}, {"time": 1472, "pitch": 68, "duration": 8, "velocity": 122}, {"time": 1478, "pitch": 49, "duration": 2, "velocity": 97}, {"time": 1484, "pitch": 36, "duration": 5, "velocity": 96}, {"time": 1484, "pitch": 60, "duration": 5, "velocity": 100}, {"time": 1484, "pitch": 65, "duration": 6, "velocity": 71}, {"time": 1484, "pitch": 68, "duration": 6, "velocity": 53}, {"time": 1490, "pitch": 60, "duration": 2, "velocity": 76}, {"time": 1496, "pitch": 34, "duration": 18, "velocity": 100}, {"time": 1496, "pitch": 58, "duration": 9, "velocity": 82}, {"time": 1496, "pitch": 61, "duration": 9, "velocity": 89}, {"time": 1496, "pitch": 65, "duration": 9, "velocity": 77}, {"time": 1502, "pitch": 46, "duration": 8, "velocity": 90}, {"time": 1508, "pitch": 58, "duration": 7, "velocity": 97}, {"time": 1508, "pitch": 61, "duration": 6, "velocity": 117}, {"time": 1508, "pitch": 65, "duration": 6, "velocity": 97}, {"time": 1514, "pitch": 46, "duration": 1, "velocity": 88}, {"time": 1520, "pitch": 41, "duration": 16, "velocity": 78}, {"time": 1520, "pitch": 53, "duration": 7, "velocity": 92}, {"time": 1520, "pitch": 56, "duration": 8, "velocity": 99}, {"time": 1520, "pitch": 60, "duration": 9, "velocity": 92}, {"time": 1526, "pitch": 48, "duration": 7, "velocity": 59}, {"time": 1532, "pitch": 56, "duration": 6, "velocity": 127}, {"time": 1532, "pitch": 60, "duration": 7, "velocity": 102}, {"time": 1535, "pitch": 48, "duration": 2, "velocity": 66}, {"time": 1538, "pitch": 53, "duration": 1, "velocity": 99}, {"time": 1544, "pitch": 42, "duration": 6, "velocity": 97}, {"time": 1544, "pitch": 54, "duration": 6, "velocity": 102}, {"time": 1544, "pitch": 58, "duration": 5, "velocity": 107}, {"time": 1544, "pitch": 61, "duration": 6, "velocity": 96}, {"time": 1556, "pitch": 44, "duration": 4, "velocity": 107}, {"time": 1556, "pitch": 56, "duration": 4, "velocity": 102}, {"time": 1556, "pitch": 60, "duration": 4, "velocity": 127}, {"time": 1556, "pitch": 63, "duration": 5, "velocity": 112}, {"time": 1568, "pitch": 44, "duration": 5, "velocity": 122}, {"time": 1568, "pitch": 56, "duration": 4, "velocity": 107}, {"time": 1568, "pitch": 60, "duration": 6, "velocity": 127}, {"time": 1568, "pitch": 63, "duration": 6, "velocity": 112}, {"time": 1580, "pitch": 41, "duration": 9, "velocity": 88}, {"time": 1580, "pitch": 53, "duration": 11, "velocity": 112}, {"time": 1580, "pitch": 57, "duration": 10, "velocity": 107}, {"time": 1580, "pitch": 60, "duration": 9, "velocity": 100}, {"time": 1592, "pitch": 46, "duration": 16, "velocity": 127}, {"time": 1592, "pitch": 53, "duration": 9, "velocity": 81}, {"time": 1592, "pitch": 58, "duration": 11, "velocity": 112}, {"time": 1592, "pitch": 61, "duration": 11, "velocity": 102}, {"time": 1604, "pitch": 58, "duration": 8, "velocity": 122}, {"time": 1604, "pitch": 61, "duration": 8, "velocity": 122}, {"time": 1610, "pitch": 46, "duration": 4, "velocity": 89}, {"time": 1616, "pitch": 41, "duration": 19, "velocity": 88}, {"time": 1616, "pitch": 53, "duration": 2, "velocity": 95}, {"time": 1616, "pitch": 56, "duration": 2, "velocity": 122}, {"time": 1616, "pitch": 60, "duration": 2, "velocity": 97}, {"time": 1622, "pitch": 48, "duration": 8, "velocity": 42}, {"time": 1628, "pitch": 53, "duration": 6, "velocity": 95}, {"time": 1628, "pitch": 65, "duration": 6, "velocity": 122}, {"time": 1628, "pitch": 68, "duration": 6, "velocity": 127}, {"time": 1634, "pitch": 48, "duration": 2, "velocity": 99}, {"time": 1640, "pitch": 42, "duration": 4, "velocity": 127}, {"time": 1640, "pitch": 54, "duration": 6, "velocity": 97}, {"time": 1640, "pitch": 58, "duration": 6, "velocity": 100}, {"time": 1640, "pitch": 61, "duration": 6, "velocity": 99}, {"time": 1652, "pitch": 44, "duration": 4, "velocity": 93}, {"time": 1652, "pitch": 56, "duration": 5, "velocity": 97}, {"time": 1652, "pitch": 60, "duration": 5, "velocity": 117}, {"time": 1652, "pitch": 63, "duration": 6, "velocity": 102}, {"time": 1664, "pitch": 49, "duration": 8, "velocity": 112}, {"time": 1664, "pitch": 61, "duration": 9, "velocity": 112}, {"time": 1664, "pitch": 65, "duration": 7, "velocity": 102}, {"time": 1664, "pitch": 68, "duration": 12, "velocity": 99}, {"time": 1676, "pitch": 48, "duration": 5, "velocity": 88}, {"time": 1676, "pitch": 60, "duration": 6, "velocity": 127}, {"time": 1688, "pitch": 46, "duration": 17, "velocity": 96}, {"time": 1688, "pitch": 58, "duration": 8, "velocity": 122}, {"time": 1688, "pitch": 61, "duration": 11, "velocity": 102}, {"time": 1700, "pitch": 58, "duration": 10, "velocity": 117}, {"time": 1700, "pitch": 61, "duration": 10, "velocity": 102}, {"time": 1700, "pitch": 65, "duration": 9, "velocity": 88}, {"time": 1706, "pitch": 46, "duration": 5, "velocity": 93}, {"time": 1712, "pitch": 41, "duration": 16, "velocity": 63}, {"time": 1712, "pitch": 53, "duration": 7, "velocity": 96}, {"time": 1712, "pitch": 56, "duration": 8, "velocity": 112}, {"time": 1712, "pitch": 60, "duration": 8, "velocity": 100}, {"time": 1718, "pitch": 48, "duration": 9, "velocity": 54}, {"time": 1724, "pitch": 56, "duration": 8, "velocity": 127}, {"time": 1724, "pitch": 60, "duration": 10, "velocity": 96}, {"time": 1730, "pitch": 53, "duration": 5, "velocity": 96}, {"time": 1736, "pitch": 42, "duration": 6, "velocity": 107}, {"time": 1736, "pitch": 54, "duration": 7, "velocity": 90}, {"time": 1736, "pitch": 58, "duration": 7, "velocity": 102}, {"time": 1736, "pitch": 61, "duration": 7, "velocity": 90}, {"time": 1748, "pitch": 44, "duration": 6, "velocity": 67}, {"time": 1748, "pitch": 56, "duration": 5, "velocity": 99}, {"time": 1748, "pitch": 60, "duration": 5, "velocity": 117}, {"time": 1748, "pitch": 63, "duration": 6, "velocity": 97}, {"time": 1760, "pitch": 37, "duration": 19, "velocity": 100}, {"time": 1760, "pitch": 61, "duration": 10, "velocity": 82}, {"time": 1760, "pitch": 65, "duration": 7, "velocity": 85}, {"time": 1760, "pitch": 68, "duration": 8, "velocity": 82}, {"time": 1766, "pitch": 49, "duration": 8, "velocity": 51}, {"time": 1772, "pitch": 65, "duration": 7, "velocity": 97}, {"time": 1772, "pitch": 68, "duration": 9, "velocity": 97}, {"time": 1775, "pitch": 49, "duration": 8, "velocity": 82}, {"time": 1778, "pitch": 61, "duration": 32, "velocity": 65}, {"time": 1784, "pitch": 37, "duration": 25, "velocity": 90}, {"time": 1784, "pitch": 49, "duration": 25, "velocity": 59}, {"time": 1784, "pitch": 65, "duration": 25, "velocity": 58}, {"time": 1784, "pitch": 68, "duration": 26, "velocity": 65}, {"time": 1809, "pitch": 58, "duration": 9, "velocity": 58}, {"time": 1809, "pitch": 61, "duration": 1, "velocity": 62}, {"time": 1809, "pitch": 46, "duration": 19, "velocity": 58}, {"time": 1809, "pitch": 65, "duration": 1, "velocity": 56}, {"time": 1822, "pitch": 65, "duration": 6, "velocity": 69}, {"time": 1822, "pitch": 58, "duration": 2, "velocity": 36}, {"time": 1828, "pitch": 58, "duration": 3, "velocity": 39}, {"time": 1834, "pitch": 56, "duration": 10, "velocity": 68}, {"time": 1834, "pitch": 60, "duration": 9, "velocity": 72}, {"time": 1834, "pitch": 41, "duration": 26, "velocity": 48}, {"time": 1834, "pitch": 53, "duration": 8, "velocity": 60}, {"time": 1841, "pitch": 48, "duration": 18, "velocity": 32}, {"time": 1848, "pitch": 56, "duration": 15, "velocity": 66}, {"time": 1848, "pitch": 60, "duration": 16, "velocity": 58}, {"time": 1855, "pitch": 53, "duration": 13, "velocity": 53}, {"time": 1863, "pitch": 42, "duration": 14, "velocity": 86}, {"time": 1869, "pitch": 54, "duration": 9, "velocity": 44}, {"time": 1878, "pitch": 56, "duration": 48, "velocity": 43}, {"time": 1878, "pitch": 44, "duration": 18, "velocity": 60}, {"time": 1878, "pitch": 63, "duration": 49, "velocity": 53}, {"time": 1878, "pitch": 60, "duration": 48, "velocity": 40}, {"time": 1933, "pitch": 49, "duration": 46, "velocity": 48}, {"time": 1934, "pitch": 73, "duration": 20, "velocity": 56}, {"time": 1934, "pitch": 61, "duration": 15, "velocity": 44}, {"time": 1935, "pitch": 56, "duration": 51, "velocity": 28}, {"time": 1935, "pitch": 77, "duration": 20, "velocity": 48}, {"time": 1936, "pitch": 80, "duration": 19, "velocity": 112}, {"time": 1958, "pitch": 77, "duration": 11, "velocity": 73}, {"time": 1958, "pitch": 80, "duration": 11, "velocity": 76}, {"time": 1964, "pitch": 61, "duration": 19, "velocity": 42}, {"time": 1971, "pitch": 77, "duration": 12, "velocity": 89}, {"time": 1971, "pitch": 80, "duration": 12, "velocity": 92}, {"time": 1978, "pitch": 73, "duration": 5, "velocity": 66}, {"time": 1984, "pitch": 66, "duration": 14, "velocity": 50}, {"time": 1984, "pitch": 70, "duration": 15, "velocity": 64}, {"time": 1984, "pitch": 73, "duration": 15, "velocity": 51}, {"time": 1984, "pitch": 61, "duration": 15, "velocity": 40}, {"time": 1985, "pitch": 58, "duration": 14, "velocity": 38}, {"time": 1985, "pitch": 54, "duration": 14, "velocity": 38}, {"time": 2001, "pitch": 57, "duration": 25, "velocity": 69}, {"time": 2001, "pitch": 75, "duration": 27, "velocity": 63}, {"time": 2002, "pitch": 72, "duration": 25, "velocity": 63}, {"time": 2002, "pitch": 69, "duration": 26, "velocity": 42}, {"time": 2029, "pitch": 65, "duration": 37, "velocity": 37}, {"time": 2030, "pitch": 61, "duration": 27, "velocity": 55}, {"time": 2031, "pitch": 58, "duration": 21, "velocity": 69}, {"time": 2031, "pitch": 34, "duration": 65, "velocity": 85}, {"time": 2047, "pitch": 46, "duration": 48, "velocity": 34}, {"time": 2054, "pitch": 58, "duration": 42, "velocity": 47}, {"time": 2062, "pitch": 61, "duration": 34, "velocity": 66}, {"time": 2071, "pitch": 65, "duration": 24, "velocity": 24}, {"time": 2082, "pitch": 70, "duration": 14, "velocity": 27}], "annotations": [{"time": 8, "annotation": {"number": 64, "value": 127}, "group": "control_change"}, {"time": 31, "annotation": {"number": 64, "value": 0}, "group": "control_change"}, {"time": 34, "annotation": {"number": 64, "value": 127}, "group": "control_change"}, {"time": 55, "annotation": {"number": 64, "value": 0}, "group": "control_change"}, {"time": 57, "annotation": {"number": 64, "value": 127}, "group": "control_change"}, {"time": 72, "annotation": {"number": 64, "value": 0}, "group": "control_change"}, {"time": 74, "annotation": {"number": 64, "value": 127}, "group": "control_change"}, {"time": 80, "annotation": {"number": 64, "value": 0}, "group": "control_change"}, {"time": 83, "annotation": {"number": 64, "value": 127}, "group": "control_change"}, {"time": 93, "annotation": {"number": 64, "value": 0}, "group": "control_change"}, {"time": 98, "annotation": {"number": 64, "value": 127}, "group": "control_change"}, {"time": 103, "annotation": {"number": 64, "value": 0}, "group": "control_change"}, {"time": 106, "annotation": {"number": 64, "value": 127}, "group": "control_change"}, {"time": 127, "annotation": {"number": 64, "value": 0}, "group": "control_change"}, {"time": 129, "annotation": {"number": 64, "value": 127}, "group": "control_change"}, {"time": 150, "annotation": {"number": 64, "value": 0}, "group": "control_change"}, {"time": 153, "annotation": {"number": 64, "value": 127}, "group": "control_change"}, {"time": 197, "annotation": {"number": 64, "value": 0}, "group": "control_change"}, {"time": 200, "annotation": {"number": 64, "value": 127}, "group": "control_change"}, {"time": 222, "annotation": {"number": 64, "value": 0}, "group": "control_change"}, {"time": 225, "annotation": {"number": 64, "value": 127}, "group": "control_change"}, {"time": 247, "annotation": {"number": 64, "value": 0}, "group": "control_change"}, {"time": 249, "annotation": {"number": 64, "value": 127}, "group": "control_change"}, {"time": 259, "annotation": {"number": 64, "value": 0}, "group": "control_change"}, {"time": 261, "annotation": {"number": 64, "value": 127}, "group": "control_change"}, {"time": 271, "annotation": {"number": 64, "value": 0}, "group": "control_change"}, {"time": 273, "annotation": {"number": 64, "value": 127}, "group": "control_change"}, {"time": 295, "annotation": {"number": 64, "value": 0}, "group": "control_change"}, {"time": 297, "annotation": {"number": 64, "value": 127}, "group": "control_change"}, {"time": 319, "annotation": {"number": 64, "value": 0}, "group": "control_change"}, {"time": 321, "annotation": {"number": 64, "value": 127}, "group": "control_change"}, {"time": 343, "annotation": {"number": 64, "value": 0}, "group": "control_change"}, {"time": 345, "annotation": {"number": 64, "value": 127}, "group": "control_change"}, {"time": 367, "annotation": {"number": 64, "value": 0}, "group": "control_change"}, {"time": 368, "annotation": {"number": 64, "value": 127}, "group": "control_change"}, {"time": 380, "annotation": {"number": 64, "value": 0}, "group": "control_change"}, {"time": 382, "annotation": {"number": 64, "value": 127}, "group": "control_change"}, {"time": 391, "annotation": {"number": 64, "value": 0}, "group": "control_change"}, {"time": 393, "annotation": {"number": 64, "value": 127}, "group": "control_change"}, {"time": 415, "annotation": {"number": 64, "value": 0}, "group": "control_change"}, {"time": 417, "annotation": {"number": 64, "value": 127}, "group": "control_change"}, {"time": 427, "annotation": {"number": 64, "value": 0}, "group": "control_change"}, {"time": 429, "annotation": {"number": 64, "value": 127}, "group": "control_change"}, {"time": 438, "annotation": {"number": 64, "value": 0}, "group": "control_change"}, {"time": 441, "annotation": {"number": 64, "value": 127}, "group": "control_change"}, {"time": 451, "annotation": {"number": 64, "value": 0}, "group": "control_change"}, {"time": 452, "annotation": {"number": 64, "value": 127}, "group": "control_change"}, {"time": 463, "annotation": {"number": 64, "value": 0}, "group": "control_change"}, {"time": 465, "annotation": {"number": 64, "value": 127}, "group": "control_change"}, {"time": 475, "annotation": {"number": 64, "value": 0}, "group": "control_change"}, {"time": 477, "annotation": {"number": 64, "value": 127}, "group": "control_change"}, {"time": 486, "annotation": {"number": 64, "value": 0}, "group": "control_change"}, {"time": 489, "annotation": {"number": 64, "value": 127}, "group": "control_change"}, {"time": 511, "annotation": {"number": 64, "value": 0}, "group": "control_change"}, {"time": 513, "annotation": {"number": 64, "value": 127}, "group": "control_change"}, {"time": 524, "annotation": {"number": 64, "value": 0}, "group": "control_change"}, {"time": 527, "annotation": {"number": 64, "value": 127}, "group": "control_change"}, {"time": 535, "annotation": {"number": 64, "value": 0}, "group": "control_change"}, {"time": 537, "annotation": {"number": 64, "value": 127}, "group": "control_change"}, {"time": 559, "annotation": {"number": 64, "value": 0}, "group": "control_change"}, {"time": 564, "annotation": {"number": 64, "value": 127}, "group": "control_change"}, {"time": 583, "annotation": {"number": 64, "value": 0}, "group": "control_change"}, {"time": 584, "annotation": {"number": 64, "value": 127}, "group": "control_change"}, {"time": 607, "annotation": {"number": 64, "value": 0}, "group": "control_change"}, {"time": 610, "annotation": {"number": 64, "value": 127}, "group": "control_change"}, {"time": 631, "annotation": {"number": 64, "value": 0}, "group": "control_change"}, {"time": 632, "annotation": {"number": 64, "value": 127}, "group": "control_change"}, {"time": 643, "annotation": {"number": 64, "value": 0}, "group": "control_change"}, {"time": 644, "annotation": {"number": 64, "value": 127}, "group": "control_change"}, {"time": 654, "annotation": {"number": 64, "value": 0}, "group": "control_change"}, {"time": 657, "annotation": {"number": 64, "value": 127}, "group": "control_change"}, {"time": 668, "annotation": {"number": 64, "value": 0}, "group": "control_change"}, {"time": 670, "annotation": {"number": 64, "value": 127}, "group": "control_change"}, {"time": 679, "annotation": {"number": 64, "value": 0}, "group": "control_change"}, {"time": 681, "annotation": {"number": 64, "value": 127}, "group": "control_change"}, {"time": 703, "annotation": {"number": 64, "value": 0}, "group": "control_change"}, {"time": 705, "annotation": {"number": 64, "value": 127}, "group": "control_change"}, {"time": 727, "annotation": {"number": 64, "value": 0}, "group": "control_change"}, {"time": 729, "annotation": {"number": 64, "value": 127}, "group": "control_change"}, {"time": 739, "annotation": {"number": 64, "value": 0}, "group": "control_change"}, {"time": 741, "annotation": {"number": 64, "value": 127}, "group": "control_change"}, {"time": 751, "annotation": {"number": 64, "value": 0}, "group": "control_change"}, {"time": 753, "annotation": {"number": 64, "value": 127}, "group": "control_change"}, {"time": 775, "annotation": {"number": 64, "value": 0}, "group": "control_change"}, {"time": 776, "annotation": {"number": 64, "value": 127}, "group": "control_change"}, {"time": 800, "annotation": {"number": 64, "value": 0}, "group": "control_change"}, {"time": 802, "annotation": {"number": 64, "value": 127}, "group": "control_change"}, {"time": 824, "annotation": {"number": 64, "value": 0}, "group": "control_change"}, {"time": 825, "annotation": {"number": 64, "value": 127}, "group": "control_change"}, {"time": 847, "annotation": {"number": 64, "value": 0}, "group": "control_change"}, {"time": 849, "annotation": {"number": 64, "value": 127}, "group": "control_change"}, {"time": 871, "annotation": {"number": 64, "value": 0}, "group": "control_change"}, {"time": 873, "annotation": {"number": 64, "value": 127}, "group": "control_change"}, {"time": 883, "annotation": {"number": 64, "value": 0}, "group": "control_change"}, {"time": 885, "annotation": {"number": 64, "value": 127}, "group": "control_change"}, {"time": 895, "annotation": {"number": 64, "value": 0}, "group": "control_change"}, {"time": 897, "annotation": {"number": 64, "value": 127}, "group": "control_change"}, {"time": 919, "annotation": {"number": 64, "value": 0}, "group": "control_change"}, {"time": 921, "annotation": {"number": 64, "value": 127}, "group": "control_change"}, {"time": 943, "annotation": {"number": 64, "value": 0}, "group": "control_change"}, {"time": 945, "annotation": {"number": 64, "value": 127}, "group": "control_change"}, {"time": 955, "annotation": {"number": 64, "value": 0}, "group": "control_change"}, {"time": 956, "annotation": {"number": 64, "value": 127}, "group": "control_change"}, {"time": 966, "annotation": {"number": 64, "value": 0}, "group": "control_change"}, {"time": 969, "annotation": {"number": 64, "value": 127}, "group": "control_change"}, {"time": 990, "annotation": {"number": 64, "value": 0}, "group": "control_change"}, {"time": 992, "annotation": {"number": 64, "value": 127}, "group": "control_change"}, {"time": 1014, "annotation": {"number": 64, "value": 0}, "group": "control_change"}, {"time": 1016, "annotation": {"number": 64, "value": 127}, "group": "control_change"}, {"time": 1039, "annotation": {"number": 64, "value": 0}, "group": "control_change"}, {"time": 1041, "annotation": {"number": 64, "value": 127}, "group": "control_change"}, {"time": 1063, "annotation": {"number": 64, "value": 0}, "group": "control_change"}, {"time": 1066, "annotation": {"number": 64, "value": 127}, "group": "control_change"}, {"time": 1075, "annotation": {"number": 64, "value": 0}, "group": "control_change"}, {"time": 1079, "annotation": {"number": 64, "value": 127}, "group": "control_change"}, {"time": 1087, "annotation": {"number": 64, "value": 0}, "group": "control_change"}, {"time": 1089, "annotation": {"number": 64, "value": 127}, "group": "control_change"}, {"time": 1111, "annotation": {"number": 64, "value": 0}, "group": "control_change"}, {"time": 1113, "annotation": {"number": 64, "value": 127}, "group": "control_change"}, {"time": 1135, "annotation": {"number": 64, "value": 0}, "group": "control_change"}, {"time": 1138, "annotation": {"number": 64, "value": 127}, "group": "control_change"}, {"time": 1159, "annotation": {"number": 64, "value": 0}, "group": "control_change"}, {"time": 1161, "annotation": {"number": 64, "value": 127}, "group": "control_change"}, {"time": 1183, "annotation": {"number": 64, "value": 0}, "group": "control_change"}, {"time": 1185, "annotation": {"number": 64, "value": 127}, "group": "control_change"}, {"time": 1196, "annotation": {"number": 64, "value": 0}, "group": "control_change"}, {"time": 1209, "annotation": {"number": 64, "value": 127}, "group": "control_change"}, {"time": 1231, "annotation": {"number": 64, "value": 0}, "group": "control_change"}, {"time": 1233, "annotation": {"number": 64, "value": 127}, "group": "control_change"}, {"time": 1255, "annotation": {"number": 64, "value": 0}, "group": "control_change"}, {"time": 1257, "annotation": {"number": 64, "value": 127}, "group": "control_change"}, {"time": 1267, "annotation": {"number": 64, "value": 0}, "group": "control_change"}, {"time": 1269, "annotation": {"number": 64, "value": 127}, "group": "control_change"}, {"time": 1278, "annotation": {"number": 64, "value": 0}, "group": "control_change"}, {"time": 1281, "annotation": {"number": 64, "value": 127}, "group": "control_change"}, {"time": 1291, "annotation": {"number": 64, "value": 0}, "group": "control_change"}, {"time": 1293, "annotation": {"number": 64, "value": 127}, "group": "control_change"}, {"time": 1303, "annotation": {"number": 64, "value": 0}, "group": "control_change"}, {"time": 1305, "annotation": {"number": 64, "value": 127}, "group": "control_change"}, {"time": 1327, "annotation": {"number": 64, "value": 0}, "group": "control_change"}, {"time": 1329, "annotation": {"number": 64, "value": 127}, "group": "control_change"}, {"time": 1339, "annotation": {"number": 64, "value": 0}, "group": "control_change"}, {"time": 1342, "annotation": {"number": 64, "value": 127}, "group": "control_change"}, {"time": 1351, "annotation": {"number": 64, "value": 0}, "group": "control_change"}, {"time": 1353, "annotation": {"number": 64, "value": 127}, "group": "control_change"}, {"time": 1375, "annotation": {"number": 64, "value": 0}, "group": "control_change"}, {"time": 1376, "annotation": {"number": 64, "value": 127}, "group": "control_change"}, {"time": 1401, "annotation": {"number": 64, "value": 127}, "group": "control_change"}, {"time": 1423, "annotation": {"number": 64, "value": 0}, "group": "control_change"}, {"time": 1425, "annotation": {"number": 64, "value": 127}, "group": "control_change"}, {"time": 1447, "annotation": {"number": 64, "value": 0}, "group": "control_change"}, {"time": 1449, "annotation": {"number": 64, "value": 127}, "group": "control_change"}, {"time": 1459, "annotation": {"number": 64, "value": 0}, "group": "control_change"}, {"time": 1461, "annotation": {"number": 64, "value": 127}, "group": "control_change"}, {"time": 1470, "annotation": {"number": 64, "value": 0}, "group": "control_change"}, {"time": 1473, "annotation": {"number": 64, "value": 127}, "group": "control_change"}, {"time": 1483, "annotation": {"number": 64, "value": 0}, "group": "control_change"}, {"time": 1485, "annotation": {"number": 64, "value": 127}, "group": "control_change"}, {"time": 1495, "annotation": {"number": 64, "value": 0}, "group": "control_change"}, {"time": 1497, "annotation": {"number": 64, "value": 127}, "group": "control_change"}, {"time": 1519, "annotation": {"number": 64, "value": 0}, "group": "control_change"}, {"time": 1521, "annotation": {"number": 64, "value": 127}, "group": "control_change"}, {"time": 1543, "annotation": {"number": 64, "value": 0}, "group": "control_change"}, {"time": 1545, "annotation": {"number": 64, "value": 127}, "group": "control_change"}, {"time": 1555, "annotation": {"number": 64, "value": 0}, "group": "control_change"}, {"time": 1557, "annotation": {"number": 64, "value": 127}, "group": "control_change"}, {"time": 1566, "annotation": {"number": 64, "value": 0}, "group": "control_change"}, {"time": 1569, "annotation": {"number": 64, "value": 127}, "group": "control_change"}, {"time": 1581, "annotation": {"number": 64, "value": 0}, "group": "control_change"}, {"time": 1593, "annotation": {"number": 64, "value": 127}, "group": "control_change"}, {"time": 1614, "annotation": {"number": 64, "value": 0}, "group": "control_change"}, {"time": 1616, "annotation": {"number": 64, "value": 127}, "group": "control_change"}, {"time": 1639, "annotation": {"number": 64, "value": 0}, "group": "control_change"}, {"time": 1641, "annotation": {"number": 64, "value": 127}, "group": "control_change"}, {"time": 1651, "annotation": {"number": 64, "value": 0}, "group": "control_change"}, {"time": 1653, "annotation": {"number": 64, "value": 127}, "group": "control_change"}, {"time": 1663, "annotation": {"number": 64, "value": 0}, "group": "control_change"}, {"time": 1665, "annotation": {"number": 64, "value": 127}, "group": "control_change"}, {"time": 1675, "annotation": {"number": 64, "value": 0}, "group": "control_change"}, {"time": 1677, "annotation": {"number": 64, "value": 127}, "group": "control_change"}, {"time": 1687, "annotation": {"number": 64, "value": 0}, "group": "control_change"}, {"time": 1689, "annotation": {"number": 64, "value": 127}, "group": "control_change"}, {"time": 1711, "annotation": {"number": 64, "value": 0}, "group": "control_change"}, {"time": 1713, "annotation": {"number": 64, "value": 127}, "group": "control_change"}, {"time": 1730, "annotation": {"number": 64, "value": 127}, "group": "control_change"}, {"time": 1735, "annotation": {"number": 64, "value": 0}, "group": "control_change"}, {"time": 1736, "annotation": {"number": 64, "value": 0}, "group": "control_change"}, {"time": 1740, "annotation": {"number": 64, "value": 127}, "group": "control_change"}, {"time": 1748, "annotation": {"number": 64, "value": 0}, "group": "control_change"}, {"time": 1751, "annotation": {"number": 64, "value": 127}, "group": "control_change"}, {"time": 1759, "annotation": {"number": 64, "value": 0}, "group": "control_change"}, {"time": 1761, "annotation": {"number": 64, "value": 127}, "group": "control_change"}, {"time": 1784, "annotation": {"number": 64, "value": 0}, "group": "control_change"}, {"time": 1809, "annotation": {"number": 64, "value": 127}, "group": "control_change"}, {"time": 1834, "annotation": {"number": 64, "value": 0}, "group": "control_change"}, {"time": 1836, "annotation": {"number": 64, "value": 127}, "group": "control_change"}, {"time": 1863, "annotation": {"number": 64, "value": 0}, "group": "control_change"}, {"time": 1866, "annotation": {"number": 64, "value": 127}, "group": "control_change"}, {"time": 1879, "annotation": {"number": 64, "value": 0}, "group": "control_change"}, {"time": 1881, "annotation": {"number": 64, "value": 127}, "group": "control_change"}, {"time": 1936, "annotation": {"number": 64, "value": 127}, "group": "control_change"}, {"time": 1938, "annotation": {"number": 64, "value": 0}, "group": "control_change"}, {"time": 1984, "annotation": {"number": 64, "value": 127}, "group": "control_change"}, {"time": 2001, "annotation": {"number": 64, "value": 0}, "group": "control_change"}, {"time": 2004, "annotation": {"number": 64, "value": 127}, "group": "control_change"}, {"time": 2032, "annotation": {"number": 64, "value": 127}, "group": "control_change"}]}]}