{"metadata": {"schema_version": "0.2", "title": "None", "source_filename": "162.mid", "source_format": "midi"}, "resolution": 12, "tempos": [{"time": 0, "qpm": 83.60004068535314}, {"time": 576, "qpm": 83.0000650167176}, {"time": 684, "qpm": 83.30012897636637}, {"time": 744, "qpm": 83.49998538750256}, {"time": 816, "qpm": 83.69998577100242}, {"time": 1164, "qpm": 83.0000650167176}, {"time": 1224, "qpm": 83.40016930234368}, {"time": 1260, "qpm": 83.49998538750256}], "time_signatures": [{"time": 0, "numerator": 1, "denominator": 4}], "tracks": [{"program": 4, "is_drum": false, "name": "MELODY", "notes": [{"time": 490, "pitch": 76, "duration": 2, "velocity": 122}, {"time": 496, "pitch": 76, "duration": 2, "velocity": 117}, {"time": 502, "pitch": 76, "duration": 1, "velocity": 97}, {"time": 505, "pitch": 76, "duration": 6, "velocity": 112}, {"time": 514, "pitch": 75, "duration": 3, "velocity": 127}, {"time": 520, "pitch": 73, "duration": 3, "velocity": 127}, {"time": 526, "pitch": 71, "duration": 4, "velocity": 127}, {"time": 532, "pitch": 68, "duration": 29, "velocity": 127}, {"time": 586, "pitch": 73, "duration": 2, "velocity": 127}, {"time": 592, "pitch": 73, "duration": 2, "velocity": 127}, {"time": 598, "pitch": 73, "duration": 1, "velocity": 112}, {"time": 601, "pitch": 73, "duration": 6, "velocity": 112}, {"time": 610, "pitch": 71, "duration": 3, "velocity": 117}, {"time": 616, "pitch": 64, "duration": 3, "velocity": 97}, {"time": 622, "pitch": 71, "duration": 2, "velocity": 117}, {"time": 625, "pitch": 68, "duration": 43, "velocity": 112}, {"time": 682, "pitch": 66, "duration": 1, "velocity": 112}, {"time": 685, "pitch": 66, "duration": 1, "velocity": 96}, {"time": 688, "pitch": 66, "duration": 2, "velocity": 112}, {"time": 694, "pitch": 68, "duration": 2, "velocity": 122}, {"time": 697, "pitch": 66, "duration": 3, "velocity": 127}, {"time": 706, "pitch": 64, "duration": 2, "velocity": 102}, {"time": 712, "pitch": 68, "duration": 2, "velocity": 122}, {"time": 718, "pitch": 66, "duration": 43, "velocity": 117}, {"time": 778, "pitch": 71, "duration": 2, "velocity": 127}, {"time": 784, "pitch": 71, "duration": 1, "velocity": 127}, {"time": 790, "pitch": 73, "duration": 2, "velocity": 127}, {"time": 793, "pitch": 71, "duration": 2, "velocity": 127}, {"time": 802, "pitch": 59, "duration": 3, "velocity": 112}, {"time": 808, "pitch": 61, "duration": 3, "velocity": 127}, {"time": 814, "pitch": 64, "duration": 36, "velocity": 127}, {"time": 874, "pitch": 76, "duration": 2, "velocity": 122}, {"time": 880, "pitch": 76, "duration": 2, "velocity": 117}, {"time": 886, "pitch": 76, "duration": 1, "velocity": 97}, {"time": 889, "pitch": 76, "duration": 6, "velocity": 112}, {"time": 898, "pitch": 75, "duration": 3, "velocity": 127}, {"time": 904, "pitch": 73, "duration": 3, "velocity": 127}, {"time": 910, "pitch": 71, "duration": 4, "velocity": 127}, {"time": 916, "pitch": 68, "duration": 29, "velocity": 127}, {"time": 970, "pitch": 73, "duration": 2, "velocity": 127}, {"time": 976, "pitch": 73, "duration": 2, "velocity": 127}, {"time": 982, "pitch": 73, "duration": 1, "velocity": 112}, {"time": 985, "pitch": 73, "duration": 6, "velocity": 112}, {"time": 994, "pitch": 71, "duration": 3, "velocity": 117}, {"time": 1000, "pitch": 64, "duration": 3, "velocity": 97}, {"time": 1006, "pitch": 71, "duration": 2, "velocity": 117}, {"time": 1009, "pitch": 68, "duration": 43, "velocity": 112}, {"time": 1066, "pitch": 66, "duration": 1, "velocity": 112}, {"time": 1069, "pitch": 66, "duration": 1, "velocity": 96}, {"time": 1072, "pitch": 66, "duration": 2, "velocity": 112}, {"time": 1078, "pitch": 68, "duration": 2, "velocity": 122}, {"time": 1081, "pitch": 66, "duration": 3, "velocity": 127}, {"time": 1090, "pitch": 64, "duration": 2, "velocity": 102}, {"time": 1096, "pitch": 68, "duration": 2, "velocity": 122}, {"time": 1102, "pitch": 66, "duration": 43, "velocity": 117}, {"time": 1162, "pitch": 71, "duration": 2, "velocity": 127}, {"time": 1168, "pitch": 71, "duration": 1, "velocity": 127}, {"time": 1174, "pitch": 73, "duration": 2, "velocity": 127}, {"time": 1177, "pitch": 71, "duration": 2, "velocity": 127}, {"time": 1186, "pitch": 59, "duration": 3, "velocity": 112}, {"time": 1192, "pitch": 61, "duration": 3, "velocity": 127}, {"time": 1198, "pitch": 64, "duration": 36, "velocity": 127}, {"time": 1258, "pitch": 80, "duration": 3, "velocity": 127}, {"time": 1264, "pitch": 80, "duration": 3, "velocity": 122}, {"time": 1270, "pitch": 80, "duration": 3, "velocity": 127}, {"time": 1276, "pitch": 80, "duration": 5, "velocity": 127}, {"time": 1282, "pitch": 78, "duration": 3, "velocity": 127}, {"time": 1288, "pitch": 78, "duration": 2, "velocity": 127}, {"time": 1294, "pitch": 76, "duration": 2, "velocity": 122}, {"time": 1297, "pitch": 78, "duration": 41, "velocity": 127}, {"time": 1354, "pitch": 78, "duration": 2, "velocity": 127}, {"time": 1360, "pitch": 78, "duration": 2, "velocity": 127}, {"time": 1366, "pitch": 78, "duration": 1, "velocity": 112}, {"time": 1369, "pitch": 78, "duration": 6, "velocity": 122}, {"time": 1378, "pitch": 76, "duration": 2, "velocity": 117}, {"time": 1384, "pitch": 73, "duration": 2, "velocity": 127}, {"time": 1390, "pitch": 71, "duration": 39, "velocity": 112}, {"time": 1450, "pitch": 80, "duration": 1, "velocity": 127}, {"time": 1453, "pitch": 80, "duration": 1, "velocity": 96}, {"time": 1456, "pitch": 80, "duration": 3, "velocity": 127}, {"time": 1462, "pitch": 80, "duration": 1, "velocity": 122}, {"time": 1465, "pitch": 80, "duration": 4, "velocity": 127}, {"time": 1474, "pitch": 78, "duration": 2, "velocity": 127}, {"time": 1480, "pitch": 78, "duration": 2, "velocity": 127}, {"time": 1486, "pitch": 76, "duration": 2, "velocity": 107}, {"time": 1489, "pitch": 78, "duration": 45, "velocity": 117}, {"time": 1546, "pitch": 71, "duration": 4, "velocity": 112}, {"time": 1552, "pitch": 76, "duration": 5, "velocity": 100}, {"time": 1558, "pitch": 71, "duration": 2, "velocity": 89}, {"time": 1561, "pitch": 79, "duration": 8, "velocity": 117}, {"time": 1570, "pitch": 78, "duration": 4, "velocity": 127}, {"time": 1576, "pitch": 78, "duration": 5, "velocity": 127}, {"time": 1582, "pitch": 76, "duration": 50, "velocity": 127}, {"time": 1642, "pitch": 76, "duration": 2, "velocity": 122}, {"time": 1648, "pitch": 76, "duration": 2, "velocity": 117}, {"time": 1654, "pitch": 76, "duration": 1, "velocity": 97}, {"time": 1657, "pitch": 76, "duration": 6, "velocity": 112}, {"time": 1666, "pitch": 75, "duration": 3, "velocity": 127}, {"time": 1672, "pitch": 73, "duration": 3, "velocity": 127}, {"time": 1678, "pitch": 71, "duration": 4, "velocity": 127}, {"time": 1684, "pitch": 68, "duration": 48, "velocity": 127}, {"time": 1738, "pitch": 73, "duration": 2, "velocity": 127}, {"time": 1744, "pitch": 73, "duration": 2, "velocity": 127}, {"time": 1750, "pitch": 73, "duration": 1, "velocity": 112}, {"time": 1753, "pitch": 73, "duration": 6, "velocity": 112}, {"time": 1762, "pitch": 71, "duration": 3, "velocity": 117}, {"time": 1768, "pitch": 64, "duration": 3, "velocity": 97}, {"time": 1774, "pitch": 71, "duration": 2, "velocity": 117}, {"time": 1777, "pitch": 68, "duration": 43, "velocity": 112}, {"time": 1834, "pitch": 66, "duration": 1, "velocity": 112}, {"time": 1837, "pitch": 66, "duration": 1, "velocity": 96}, {"time": 1840, "pitch": 66, "duration": 2, "velocity": 112}, {"time": 1846, "pitch": 68, "duration": 2, "velocity": 122}, {"time": 1849, "pitch": 66, "duration": 3, "velocity": 127}, {"time": 1858, "pitch": 64, "duration": 2, "velocity": 102}, {"time": 1864, "pitch": 68, "duration": 2, "velocity": 122}, {"time": 1870, "pitch": 66, "duration": 54, "velocity": 117}, {"time": 1930, "pitch": 71, "duration": 2, "velocity": 127}, {"time": 1936, "pitch": 71, "duration": 1, "velocity": 127}, {"time": 1942, "pitch": 73, "duration": 2, "velocity": 127}, {"time": 1945, "pitch": 71, "duration": 2, "velocity": 127}, {"time": 1954, "pitch": 59, "duration": 3, "velocity": 112}, {"time": 1960, "pitch": 61, "duration": 3, "velocity": 127}, {"time": 1966, "pitch": 64, "duration": 54, "velocity": 127}, {"time": 2026, "pitch": 80, "duration": 3, "velocity": 127}, {"time": 2032, "pitch": 80, "duration": 3, "velocity": 122}, {"time": 2038, "pitch": 80, "duration": 3, "velocity": 127}, {"time": 2044, "pitch": 80, "duration": 5, "velocity": 127}, {"time": 2050, "pitch": 78, "duration": 3, "velocity": 127}, {"time": 2056, "pitch": 78, "duration": 2, "velocity": 127}, {"time": 2062, "pitch": 76, "duration": 2, "velocity": 122}, {"time": 2065, "pitch": 78, "duration": 51, "velocity": 127}, {"time": 2122, "pitch": 78, "duration": 2, "velocity": 127}, {"time": 2128, "pitch": 78, "duration": 2, "velocity": 127}, {"time": 2134, "pitch": 78, "duration": 1, "velocity": 112}, {"time": 2137, "pitch": 78, "duration": 6, "velocity": 122}, {"time": 2146, "pitch": 76, "duration": 2, "velocity": 117}, {"time": 2152, "pitch": 73, "duration": 2, "velocity": 127}, {"time": 2158, "pitch": 71, "duration": 54, "velocity": 112}, {"time": 2218, "pitch": 80, "duration": 1, "velocity": 127}, {"time": 2221, "pitch": 80, "duration": 1, "velocity": 96}, {"time": 2224, "pitch": 80, "duration": 3, "velocity": 127}, {"time": 2230, "pitch": 80, "duration": 1, "velocity": 122}, {"time": 2233, "pitch": 80, "duration": 4, "velocity": 127}, {"time": 2242, "pitch": 78, "duration": 2, "velocity": 127}, {"time": 2248, "pitch": 78, "duration": 2, "velocity": 127}, {"time": 2254, "pitch": 76, "duration": 2, "velocity": 107}, {"time": 2257, "pitch": 78, "duration": 51, "velocity": 117}, {"time": 2314, "pitch": 71, "duration": 4, "velocity": 112}, {"time": 2320, "pitch": 76, "duration": 5, "velocity": 100}, {"time": 2326, "pitch": 71, "duration": 2, "velocity": 89}, {"time": 2329, "pitch": 79, "duration": 8, "velocity": 117}, {"time": 2338, "pitch": 78, "duration": 4, "velocity": 127}, {"time": 2344, "pitch": 78, "duration": 5, "velocity": 127}, {"time": 2350, "pitch": 76, "duration": 50, "velocity": 127}, {"time": 2698, "pitch": 80, "duration": 3, "velocity": 127}, {"time": 2704, "pitch": 80, "duration": 3, "velocity": 122}, {"time": 2710, "pitch": 80, "duration": 3, "velocity": 127}, {"time": 2716, "pitch": 80, "duration": 5, "velocity": 127}, {"time": 2722, "pitch": 78, "duration": 3, "velocity": 127}, {"time": 2728, "pitch": 78, "duration": 2, "velocity": 127}, {"time": 2734, "pitch": 76, "duration": 2, "velocity": 122}, {"time": 2737, "pitch": 78, "duration": 51, "velocity": 127}, {"time": 2794, "pitch": 78, "duration": 2, "velocity": 127}, {"time": 2800, "pitch": 78, "duration": 2, "velocity": 127}, {"time": 2806, "pitch": 78, "duration": 1, "velocity": 112}, {"time": 2809, "pitch": 78, "duration": 6, "velocity": 122}, {"time": 2818, "pitch": 76, "duration": 2, "velocity": 117}, {"time": 2824, "pitch": 73, "duration": 2, "velocity": 127}, {"time": 2830, "pitch": 71, "duration": 54, "velocity": 112}, {"time": 2890, "pitch": 80, "duration": 1, "velocity": 127}, {"time": 2893, "pitch": 80, "duration": 1, "velocity": 96}, {"time": 2896, "pitch": 80, "duration": 3, "velocity": 127}, {"time": 2902, "pitch": 80, "duration": 1, "velocity": 122}, {"time": 2905, "pitch": 80, "duration": 4, "velocity": 127}, {"time": 2914, "pitch": 78, "duration": 2, "velocity": 127}, {"time": 2920, "pitch": 78, "duration": 2, "velocity": 127}, {"time": 2926, "pitch": 76, "duration": 2, "velocity": 107}, {"time": 2929, "pitch": 78, "duration": 51, "velocity": 117}, {"time": 2986, "pitch": 71, "duration": 4, "velocity": 112}, {"time": 2992, "pitch": 76, "duration": 5, "velocity": 100}, {"time": 2998, "pitch": 71, "duration": 2, "velocity": 89}, {"time": 3001, "pitch": 79, "duration": 8, "velocity": 117}, {"time": 3010, "pitch": 78, "duration": 4, "velocity": 127}, {"time": 3016, "pitch": 78, "duration": 5, "velocity": 127}, {"time": 3022, "pitch": 76, "duration": 50, "velocity": 127}, {"time": 3082, "pitch": 80, "duration": 3, "velocity": 127}, {"time": 3088, "pitch": 80, "duration": 3, "velocity": 122}, {"time": 3094, "pitch": 80, "duration": 3, "velocity": 127}, {"time": 3100, "pitch": 80, "duration": 5, "velocity": 127}, {"time": 3106, "pitch": 78, "duration": 3, "velocity": 127}, {"time": 3112, "pitch": 78, "duration": 2, "velocity": 127}, {"time": 3118, "pitch": 76, "duration": 2, "velocity": 122}, {"time": 3121, "pitch": 78, "duration": 51, "velocity": 127}, {"time": 3178, "pitch": 78, "duration": 2, "velocity": 127}, {"time": 3184, "pitch": 78, "duration": 2, "velocity": 127}, {"time": 3190, "pitch": 78, "duration": 1, "velocity": 112}, {"time": 3193, "pitch": 78, "duration": 6, "velocity": 122}, {"time": 3202, "pitch": 76, "duration": 2, "velocity": 117}, {"time": 3208, "pitch": 73, "duration": 2, "velocity": 127}, {"time": 3214, "pitch": 71, "duration": 54, "velocity": 112}, {"time": 3274, "pitch": 80, "duration": 1, "velocity": 127}, {"time": 3277, "pitch": 80, "duration": 1, "velocity": 96}, {"time": 3280, "pitch": 80, "duration": 3, "velocity": 127}, {"time": 3286, "pitch": 80, "duration": 1, "velocity": 122}, {"time": 3289, "pitch": 80, "duration": 4, "velocity": 127}, {"time": 3298, "pitch": 78, "duration": 2, "velocity": 127}, {"time": 3304, "pitch": 78, "duration": 2, "velocity": 127}, {"time": 3310, "pitch": 76, "duration": 2, "velocity": 107}, {"time": 3313, "pitch": 78, "duration": 51, "velocity": 117}, {"time": 3370, "pitch": 71, "duration": 4, "velocity": 112}, {"time": 3376, "pitch": 76, "duration": 5, "velocity": 100}, {"time": 3382, "pitch": 71, "duration": 2, "velocity": 89}, {"time": 3385, "pitch": 79, "duration": 8, "velocity": 117}, {"time": 3394, "pitch": 78, "duration": 4, "velocity": 127}, {"time": 3400, "pitch": 78, "duration": 5, "velocity": 127}, {"time": 3406, "pitch": 76, "duration": 50, "velocity": 127}]}, {"program": 0, "is_drum": false, "name": "PIANO", "notes": [{"time": 16, "pitch": 47, "duration": 74, "velocity": 67}, {"time": 16, "pitch": 59, "duration": 74, "velocity": 75}, {"time": 16, "pitch": 63, "duration": 76, "velocity": 97}, {"time": 16, "pitch": 66, "duration": 75, "velocity": 93}, {"time": 100, "pitch": 40, "duration": 2, "velocity": 66}, {"time": 100, "pitch": 52, "duration": 2, "velocity": 83}, {"time": 100, "pitch": 59, "duration": 41, "velocity": 95}, {"time": 100, "pitch": 64, "duration": 38, "velocity": 107}, {"time": 100, "pitch": 68, "duration": 39, "velocity": 107}, {"time": 106, "pitch": 40, "duration": 2, "velocity": 65}, {"time": 106, "pitch": 52, "duration": 2, "velocity": 77}, {"time": 112, "pitch": 40, "duration": 2, "velocity": 81}, {"time": 112, "pitch": 52, "duration": 2, "velocity": 86}, {"time": 118, "pitch": 40, "duration": 2, "velocity": 66}, {"time": 118, "pitch": 52, "duration": 2, "velocity": 75}, {"time": 124, "pitch": 40, "duration": 2, "velocity": 73}, {"time": 124, "pitch": 52, "duration": 2, "velocity": 96}, {"time": 130, "pitch": 40, "duration": 2, "velocity": 79}, {"time": 130, "pitch": 52, "duration": 2, "velocity": 86}, {"time": 136, "pitch": 40, "duration": 1, "velocity": 74}, {"time": 136, "pitch": 52, "duration": 2, "velocity": 88}, {"time": 142, "pitch": 52, "duration": 2, "velocity": 99}, {"time": 148, "pitch": 42, "duration": 4, "velocity": 25}, {"time": 148, "pitch": 54, "duration": 9, "velocity": 96}, {"time": 148, "pitch": 57, "duration": 5, "velocity": 85}, {"time": 148, "pitch": 61, "duration": 5, "velocity": 107}, {"time": 148, "pitch": 66, "duration": 4, "velocity": 99}, {"time": 154, "pitch": 42, "duration": 2, "velocity": 100}, {"time": 154, "pitch": 57, "duration": 3, "velocity": 59}, {"time": 154, "pitch": 61, "duration": 3, "velocity": 71}, {"time": 154, "pitch": 66, "duration": 3, "velocity": 88}, {"time": 160, "pitch": 42, "duration": 2, "velocity": 100}, {"time": 160, "pitch": 54, "duration": 3, "velocity": 102}, {"time": 160, "pitch": 57, "duration": 3, "velocity": 95}, {"time": 160, "pitch": 61, "duration": 3, "velocity": 127}, {"time": 160, "pitch": 66, "duration": 3, "velocity": 117}, {"time": 166, "pitch": 42, "duration": 4, "velocity": 72}, {"time": 166, "pitch": 54, "duration": 3, "velocity": 72}, {"time": 166, "pitch": 57, "duration": 3, "velocity": 61}, {"time": 166, "pitch": 61, "duration": 4, "velocity": 62}, {"time": 166, "pitch": 66, "duration": 4, "velocity": 59}, {"time": 172, "pitch": 42, "duration": 3, "velocity": 85}, {"time": 172, "pitch": 54, "duration": 3, "velocity": 81}, {"time": 172, "pitch": 57, "duration": 4, "velocity": 96}, {"time": 172, "pitch": 61, "duration": 4, "velocity": 99}, {"time": 172, "pitch": 66, "duration": 4, "velocity": 93}, {"time": 178, "pitch": 42, "duration": 4, "velocity": 69}, {"time": 178, "pitch": 54, "duration": 4, "velocity": 56}, {"time": 178, "pitch": 57, "duration": 4, "velocity": 64}, {"time": 178, "pitch": 61, "duration": 4, "velocity": 66}, {"time": 178, "pitch": 66, "duration": 4, "velocity": 61}, {"time": 184, "pitch": 42, "duration": 3, "velocity": 112}, {"time": 184, "pitch": 54, "duration": 3, "velocity": 95}, {"time": 184, "pitch": 57, "duration": 3, "velocity": 96}, {"time": 184, "pitch": 61, "duration": 3, "velocity": 117}, {"time": 184, "pitch": 66, "duration": 3, "velocity": 107}, {"time": 190, "pitch": 42, "duration": 2, "velocity": 92}, {"time": 190, "pitch": 54, "duration": 2, "velocity": 97}, {"time": 190, "pitch": 57, "duration": 3, "velocity": 83}, {"time": 190, "pitch": 61, "duration": 4, "velocity": 100}, {"time": 190, "pitch": 66, "duration": 3, "velocity": 89}, {"time": 196, "pitch": 47, "duration": 4, "velocity": 102}, {"time": 196, "pitch": 59, "duration": 4, "velocity": 92}, {"time": 196, "pitch": 63, "duration": 4, "velocity": 127}, {"time": 196, "pitch": 66, "duration": 4, "velocity": 102}, {"time": 202, "pitch": 47, "duration": 3, "velocity": 44}, {"time": 202, "pitch": 54, "duration": 1, "velocity": 66}, {"time": 202, "pitch": 59, "duration": 3, "velocity": 75}, {"time": 202, "pitch": 63, "duration": 3, "velocity": 112}, {"time": 202, "pitch": 66, "duration": 3, "velocity": 112}, {"time": 208, "pitch": 47, "duration": 3, "velocity": 65}, {"time": 208, "pitch": 54, "duration": 1, "velocity": 112}, {"time": 208, "pitch": 59, "duration": 3, "velocity": 97}, {"time": 208, "pitch": 63, "duration": 3, "velocity": 127}, {"time": 208, "pitch": 66, "duration": 3, "velocity": 127}, {"time": 214, "pitch": 47, "duration": 3, "velocity": 55}, {"time": 214, "pitch": 54, "duration": 3, "velocity": 99}, {"time": 214, "pitch": 59, "duration": 3, "velocity": 77}, {"time": 214, "pitch": 63, "duration": 4, "velocity": 89}, {"time": 214, "pitch": 66, "duration": 3, "velocity": 99}, {"time": 220, "pitch": 47, "duration": 3, "velocity": 72}, {"time": 220, "pitch": 54, "duration": 3, "velocity": 107}, {"time": 220, "pitch": 59, "duration": 3, "velocity": 100}, {"time": 220, "pitch": 63, "duration": 3, "velocity": 127}, {"time": 220, "pitch": 66, "duration": 3, "velocity": 122}, {"time": 226, "pitch": 47, "duration": 3, "velocity": 63}, {"time": 226, "pitch": 54, "duration": 3, "velocity": 85}, {"time": 226, "pitch": 59, "duration": 2, "velocity": 86}, {"time": 226, "pitch": 63, "duration": 3, "velocity": 97}, {"time": 226, "pitch": 66, "duration": 3, "velocity": 97}, {"time": 232, "pitch": 47, "duration": 3, "velocity": 81}, {"time": 232, "pitch": 54, "duration": 2, "velocity": 99}, {"time": 232, "pitch": 59, "duration": 3, "velocity": 96}, {"time": 232, "pitch": 63, "duration": 3, "velocity": 127}, {"time": 232, "pitch": 66, "duration": 3, "velocity": 122}, {"time": 238, "pitch": 47, "duration": 1, "velocity": 64}, {"time": 238, "pitch": 54, "duration": 1, "velocity": 97}, {"time": 238, "pitch": 59, "duration": 2, "velocity": 92}, {"time": 238, "pitch": 63, "duration": 1, "velocity": 127}, {"time": 238, "pitch": 66, "duration": 1, "velocity": 112}, {"time": 244, "pitch": 40, "duration": 3, "velocity": 86}, {"time": 244, "pitch": 52, "duration": 4, "velocity": 90}, {"time": 244, "pitch": 59, "duration": 3, "velocity": 99}, {"time": 244, "pitch": 64, "duration": 4, "velocity": 102}, {"time": 244, "pitch": 68, "duration": 3, "velocity": 112}, {"time": 250, "pitch": 40, "duration": 2, "velocity": 58}, {"time": 250, "pitch": 52, "duration": 3, "velocity": 69}, {"time": 250, "pitch": 59, "duration": 3, "velocity": 85}, {"time": 250, "pitch": 64, "duration": 3, "velocity": 85}, {"time": 250, "pitch": 68, "duration": 3, "velocity": 89}, {"time": 256, "pitch": 40, "duration": 3, "velocity": 71}, {"time": 256, "pitch": 52, "duration": 3, "velocity": 96}, {"time": 256, "pitch": 59, "duration": 3, "velocity": 99}, {"time": 256, "pitch": 64, "duration": 4, "velocity": 100}, {"time": 256, "pitch": 68, "duration": 3, "velocity": 102}, {"time": 262, "pitch": 40, "duration": 3, "velocity": 63}, {"time": 262, "pitch": 52, "duration": 2, "velocity": 82}, {"time": 262, "pitch": 59, "duration": 3, "velocity": 88}, {"time": 262, "pitch": 64, "duration": 4, "velocity": 85}, {"time": 262, "pitch": 68, "duration": 3, "velocity": 82}, {"time": 268, "pitch": 40, "duration": 4, "velocity": 77}, {"time": 268, "pitch": 52, "duration": 3, "velocity": 85}, {"time": 268, "pitch": 59, "duration": 3, "velocity": 97}, {"time": 268, "pitch": 64, "duration": 4, "velocity": 99}, {"time": 268, "pitch": 68, "duration": 3, "velocity": 102}, {"time": 274, "pitch": 40, "duration": 3, "velocity": 69}, {"time": 274, "pitch": 52, "duration": 3, "velocity": 85}, {"time": 274, "pitch": 59, "duration": 3, "velocity": 83}, {"time": 274, "pitch": 64, "duration": 3, "velocity": 89}, {"time": 274, "pitch": 68, "duration": 3, "velocity": 89}, {"time": 280, "pitch": 40, "duration": 3, "velocity": 72}, {"time": 280, "pitch": 52, "duration": 3, "velocity": 85}, {"time": 280, "pitch": 59, "duration": 3, "velocity": 96}, {"time": 280, "pitch": 64, "duration": 3, "velocity": 100}, {"time": 280, "pitch": 68, "duration": 3, "velocity": 99}, {"time": 286, "pitch": 40, "duration": 2, "velocity": 60}, {"time": 286, "pitch": 52, "duration": 3, "velocity": 85}, {"time": 286, "pitch": 59, "duration": 3, "velocity": 95}, {"time": 286, "pitch": 64, "duration": 3, "velocity": 95}, {"time": 286, "pitch": 68, "duration": 3, "velocity": 96}, {"time": 292, "pitch": 40, "duration": 3, "velocity": 69}, {"time": 292, "pitch": 52, "duration": 3, "velocity": 88}, {"time": 292, "pitch": 59, "duration": 3, "velocity": 97}, {"time": 292, "pitch": 64, "duration": 3, "velocity": 99}, {"time": 292, "pitch": 68, "duration": 3, "velocity": 102}, {"time": 298, "pitch": 40, "duration": 3, "velocity": 68}, {"time": 298, "pitch": 52, "duration": 3, "velocity": 77}, {"time": 298, "pitch": 59, "duration": 3, "velocity": 90}, {"time": 298, "pitch": 64, "duration": 4, "velocity": 78}, {"time": 298, "pitch": 68, "duration": 3, "velocity": 89}, {"time": 304, "pitch": 40, "duration": 3, "velocity": 72}, {"time": 304, "pitch": 52, "duration": 3, "velocity": 89}, {"time": 304, "pitch": 59, "duration": 3, "velocity": 96}, {"time": 304, "pitch": 64, "duration": 4, "velocity": 95}, {"time": 304, "pitch": 68, "duration": 3, "velocity": 96}, {"time": 310, "pitch": 40, "duration": 3, "velocity": 61}, {"time": 310, "pitch": 52, "duration": 3, "velocity": 68}, {"time": 310, "pitch": 59, "duration": 3, "velocity": 76}, {"time": 310, "pitch": 64, "duration": 4, "velocity": 66}, {"time": 310, "pitch": 68, "duration": 3, "velocity": 57}, {"time": 316, "pitch": 40, "duration": 3, "velocity": 71}, {"time": 316, "pitch": 52, "duration": 2, "velocity": 89}, {"time": 316, "pitch": 59, "duration": 3, "velocity": 90}, {"time": 316, "pitch": 64, "duration": 3, "velocity": 93}, {"time": 316, "pitch": 68, "duration": 3, "velocity": 92}, {"time": 322, "pitch": 40, "duration": 2, "velocity": 72}, {"time": 322, "pitch": 52, "duration": 2, "velocity": 78}, {"time": 322, "pitch": 59, "duration": 2, "velocity": 83}, {"time": 322, "pitch": 64, "duration": 3, "velocity": 78}, {"time": 322, "pitch": 68, "duration": 3, "velocity": 73}, {"time": 328, "pitch": 40, "duration": 3, "velocity": 86}, {"time": 328, "pitch": 52, "duration": 2, "velocity": 90}, {"time": 328, "pitch": 59, "duration": 3, "velocity": 92}, {"time": 328, "pitch": 64, "duration": 3, "velocity": 100}, {"time": 328, "pitch": 68, "duration": 3, "velocity": 99}, {"time": 334, "pitch": 52, "duration": 2, "velocity": 93}, {"time": 334, "pitch": 59, "duration": 2, "velocity": 97}, {"time": 334, "pitch": 64, "duration": 1, "velocity": 90}, {"time": 334, "pitch": 68, "duration": 1, "velocity": 79}, {"time": 340, "pitch": 42, "duration": 3, "velocity": 81}, {"time": 340, "pitch": 54, "duration": 4, "velocity": 92}, {"time": 340, "pitch": 57, "duration": 3, "velocity": 96}, {"time": 340, "pitch": 61, "duration": 3, "velocity": 112}, {"time": 340, "pitch": 66, "duration": 3, "velocity": 99}, {"time": 346, "pitch": 42, "duration": 3, "velocity": 67}, {"time": 346, "pitch": 54, "duration": 3, "velocity": 79}, {"time": 346, "pitch": 57, "duration": 3, "velocity": 83}, {"time": 346, "pitch": 61, "duration": 3, "velocity": 102}, {"time": 346, "pitch": 66, "duration": 3, "velocity": 97}, {"time": 352, "pitch": 42, "duration": 3, "velocity": 92}, {"time": 352, "pitch": 54, "duration": 2, "velocity": 102}, {"time": 352, "pitch": 57, "duration": 3, "velocity": 96}, {"time": 352, "pitch": 61, "duration": 2, "velocity": 127}, {"time": 352, "pitch": 66, "duration": 3, "velocity": 100}, {"time": 358, "pitch": 42, "duration": 2, "velocity": 76}, {"time": 358, "pitch": 54, "duration": 2, "velocity": 86}, {"time": 358, "pitch": 57, "duration": 3, "velocity": 69}, {"time": 358, "pitch": 61, "duration": 2, "velocity": 96}, {"time": 358, "pitch": 66, "duration": 3, "velocity": 79}, {"time": 364, "pitch": 42, "duration": 2, "velocity": 88}, {"time": 364, "pitch": 54, "duration": 2, "velocity": 97}, {"time": 364, "pitch": 57, "duration": 3, "velocity": 96}, {"time": 364, "pitch": 61, "duration": 2, "velocity": 122}, {"time": 364, "pitch": 66, "duration": 3, "velocity": 102}, {"time": 370, "pitch": 42, "duration": 3, "velocity": 82}, {"time": 370, "pitch": 54, "duration": 3, "velocity": 95}, {"time": 370, "pitch": 57, "duration": 3, "velocity": 90}, {"time": 370, "pitch": 61, "duration": 3, "velocity": 122}, {"time": 370, "pitch": 66, "duration": 3, "velocity": 99}, {"time": 376, "pitch": 42, "duration": 2, "velocity": 86}, {"time": 376, "pitch": 54, "duration": 2, "velocity": 95}, {"time": 376, "pitch": 57, "duration": 2, "velocity": 92}, {"time": 376, "pitch": 61, "duration": 2, "velocity": 117}, {"time": 376, "pitch": 66, "duration": 2, "velocity": 112}, {"time": 382, "pitch": 42, "duration": 3, "velocity": 73}, {"time": 382, "pitch": 54, "duration": 2, "velocity": 99}, {"time": 382, "pitch": 57, "duration": 3, "velocity": 89}, {"time": 382, "pitch": 61, "duration": 1, "velocity": 117}, {"time": 382, "pitch": 66, "duration": 1, "velocity": 88}, {"time": 388, "pitch": 45, "duration": 3, "velocity": 90}, {"time": 388, "pitch": 57, "duration": 3, "velocity": 99}, {"time": 388, "pitch": 61, "duration": 3, "velocity": 122}, {"time": 388, "pitch": 64, "duration": 3, "velocity": 99}, {"time": 394, "pitch": 45, "duration": 2, "velocity": 72}, {"time": 394, "pitch": 57, "duration": 2, "velocity": 86}, {"time": 394, "pitch": 61, "duration": 3, "velocity": 102}, {"time": 394, "pitch": 64, "duration": 3, "velocity": 90}, {"time": 400, "pitch": 45, "duration": 3, "velocity": 102}, {"time": 400, "pitch": 57, "duration": 2, "velocity": 85}, {"time": 400, "pitch": 61, "duration": 3, "velocity": 107}, {"time": 400, "pitch": 64, "duration": 3, "velocity": 83}, {"time": 406, "pitch": 45, "duration": 2, "velocity": 96}, {"time": 406, "pitch": 57, "duration": 2, "velocity": 90}, {"time": 406, "pitch": 61, "duration": 3, "velocity": 127}, {"time": 406, "pitch": 64, "duration": 3, "velocity": 92}, {"time": 412, "pitch": 50, "duration": 3, "velocity": 100}, {"time": 412, "pitch": 57, "duration": 3, "velocity": 92}, {"time": 412, "pitch": 62, "duration": 3, "velocity": 102}, {"time": 412, "pitch": 66, "duration": 3, "velocity": 107}, {"time": 418, "pitch": 50, "duration": 2, "velocity": 92}, {"time": 418, "pitch": 57, "duration": 3, "velocity": 89}, {"time": 418, "pitch": 62, "duration": 3, "velocity": 99}, {"time": 418, "pitch": 66, "duration": 3, "velocity": 97}, {"time": 424, "pitch": 50, "duration": 2, "velocity": 107}, {"time": 424, "pitch": 57, "duration": 2, "velocity": 90}, {"time": 424, "pitch": 62, "duration": 2, "velocity": 107}, {"time": 424, "pitch": 66, "duration": 2, "velocity": 102}, {"time": 430, "pitch": 50, "duration": 1, "velocity": 85}, {"time": 430, "pitch": 57, "duration": 1, "velocity": 90}, {"time": 430, "pitch": 62, "duration": 1, "velocity": 100}, {"time": 430, "pitch": 66, "duration": 1, "velocity": 97}, {"time": 436, "pitch": 40, "duration": 3, "velocity": 79}, {"time": 436, "pitch": 52, "duration": 3, "velocity": 96}, {"time": 436, "pitch": 59, "duration": 3, "velocity": 93}, {"time": 436, "pitch": 64, "duration": 3, "velocity": 99}, {"time": 436, "pitch": 68, "duration": 3, "velocity": 102}, {"time": 442, "pitch": 40, "duration": 2, "velocity": 71}, {"time": 442, "pitch": 52, "duration": 3, "velocity": 85}, {"time": 442, "pitch": 59, "duration": 3, "velocity": 85}, {"time": 442, "pitch": 64, "duration": 3, "velocity": 93}, {"time": 442, "pitch": 68, "duration": 3, "velocity": 96}, {"time": 448, "pitch": 40, "duration": 3, "velocity": 69}, {"time": 448, "pitch": 52, "duration": 2, "velocity": 90}, {"time": 448, "pitch": 59, "duration": 3, "velocity": 90}, {"time": 448, "pitch": 64, "duration": 3, "velocity": 92}, {"time": 448, "pitch": 68, "duration": 3, "velocity": 92}, {"time": 454, "pitch": 40, "duration": 3, "velocity": 72}, {"time": 454, "pitch": 52, "duration": 2, "velocity": 83}, {"time": 454, "pitch": 59, "duration": 3, "velocity": 90}, {"time": 454, "pitch": 64, "duration": 3, "velocity": 90}, {"time": 454, "pitch": 68, "duration": 3, "velocity": 92}, {"time": 460, "pitch": 40, "duration": 3, "velocity": 73}, {"time": 460, "pitch": 52, "duration": 3, "velocity": 85}, {"time": 460, "pitch": 59, "duration": 3, "velocity": 89}, {"time": 460, "pitch": 64, "duration": 3, "velocity": 92}, {"time": 460, "pitch": 68, "duration": 3, "velocity": 92}, {"time": 466, "pitch": 40, "duration": 2, "velocity": 73}, {"time": 466, "pitch": 52, "duration": 2, "velocity": 77}, {"time": 466, "pitch": 59, "duration": 3, "velocity": 85}, {"time": 466, "pitch": 64, "duration": 3, "velocity": 82}, {"time": 466, "pitch": 68, "duration": 3, "velocity": 81}, {"time": 472, "pitch": 40, "duration": 2, "velocity": 77}, {"time": 472, "pitch": 52, "duration": 2, "velocity": 86}, {"time": 472, "pitch": 59, "duration": 2, "velocity": 93}, {"time": 472, "pitch": 64, "duration": 3, "velocity": 89}, {"time": 472, "pitch": 68, "duration": 3, "velocity": 89}, {"time": 478, "pitch": 40, "duration": 5, "velocity": 83}, {"time": 478, "pitch": 52, "duration": 5, "velocity": 79}, {"time": 478, "pitch": 59, "duration": 5, "velocity": 90}, {"time": 478, "pitch": 64, "duration": 5, "velocity": 92}, {"time": 478, "pitch": 68, "duration": 5, "velocity": 97}, {"time": 481, "pitch": 37, "duration": 1, "velocity": 34}, {"time": 484, "pitch": 37, "duration": 47, "velocity": 97}, {"time": 484, "pitch": 49, "duration": 46, "velocity": 90}, {"time": 484, "pitch": 61, "duration": 46, "velocity": 102}, {"time": 484, "pitch": 64, "duration": 45, "velocity": 97}, {"time": 484, "pitch": 68, "duration": 45, "velocity": 93}, {"time": 532, "pitch": 40, "duration": 40, "velocity": 77}, {"time": 532, "pitch": 52, "duration": 21, "velocity": 86}, {"time": 532, "pitch": 59, "duration": 6, "velocity": 90}, {"time": 532, "pitch": 64, "duration": 5, "velocity": 97}, {"time": 532, "pitch": 68, "duration": 5, "velocity": 99}, {"time": 544, "pitch": 59, "duration": 1, "velocity": 89}, {"time": 544, "pitch": 64, "duration": 1, "velocity": 100}, {"time": 544, "pitch": 68, "duration": 1, "velocity": 100}, {"time": 553, "pitch": 59, "duration": 1, "velocity": 82}, {"time": 553, "pitch": 64, "duration": 1, "velocity": 99}, {"time": 553, "pitch": 68, "duration": 1, "velocity": 97}, {"time": 556, "pitch": 52, "duration": 13, "velocity": 56}, {"time": 562, "pitch": 59, "duration": 1, "velocity": 79}, {"time": 562, "pitch": 64, "duration": 1, "velocity": 95}, {"time": 562, "pitch": 68, "duration": 1, "velocity": 93}, {"time": 568, "pitch": 64, "duration": 1, "velocity": 112}, {"time": 568, "pitch": 68, "duration": 2, "velocity": 112}, {"time": 571, "pitch": 52, "duration": 1, "velocity": 75}, {"time": 574, "pitch": 64, "duration": 2, "velocity": 95}, {"time": 574, "pitch": 68, "duration": 2, "velocity": 99}, {"time": 580, "pitch": 37, "duration": 30, "velocity": 61}, {"time": 580, "pitch": 49, "duration": 14, "velocity": 72}, {"time": 580, "pitch": 61, "duration": 7, "velocity": 107}, {"time": 580, "pitch": 64, "duration": 7, "velocity": 96}, {"time": 580, "pitch": 68, "duration": 7, "velocity": 107}, {"time": 592, "pitch": 61, "duration": 1, "velocity": 102}, {"time": 592, "pitch": 64, "duration": 1, "velocity": 90}, {"time": 592, "pitch": 68, "duration": 1, "velocity": 99}, {"time": 598, "pitch": 49, "duration": 13, "velocity": 57}, {"time": 601, "pitch": 61, "duration": 1, "velocity": 96}, {"time": 601, "pitch": 64, "duration": 1, "velocity": 90}, {"time": 601, "pitch": 68, "duration": 1, "velocity": 96}, {"time": 610, "pitch": 61, "duration": 1, "velocity": 97}, {"time": 610, "pitch": 64, "duration": 1, "velocity": 89}, {"time": 610, "pitch": 68, "duration": 1, "velocity": 97}, {"time": 616, "pitch": 61, "duration": 1, "velocity": 99}, {"time": 616, "pitch": 64, "duration": 1, "velocity": 88}, {"time": 616, "pitch": 68, "duration": 1, "velocity": 92}, {"time": 622, "pitch": 61, "duration": 2, "velocity": 92}, {"time": 622, "pitch": 64, "duration": 1, "velocity": 53}, {"time": 628, "pitch": 40, "duration": 40, "velocity": 63}, {"time": 628, "pitch": 52, "duration": 37, "velocity": 69}, {"time": 628, "pitch": 59, "duration": 9, "velocity": 95}, {"time": 628, "pitch": 64, "duration": 5, "velocity": 89}, {"time": 628, "pitch": 68, "duration": 5, "velocity": 90}, {"time": 640, "pitch": 59, "duration": 1, "velocity": 90}, {"time": 640, "pitch": 64, "duration": 1, "velocity": 97}, {"time": 640, "pitch": 68, "duration": 1, "velocity": 107}, {"time": 649, "pitch": 59, "duration": 1, "velocity": 70}, {"time": 649, "pitch": 64, "duration": 1, "velocity": 107}, {"time": 649, "pitch": 68, "duration": 1, "velocity": 107}, {"time": 658, "pitch": 59, "duration": 1, "velocity": 67}, {"time": 658, "pitch": 64, "duration": 1, "velocity": 60}, {"time": 658, "pitch": 68, "duration": 1, "velocity": 90}, {"time": 664, "pitch": 64, "duration": 3, "velocity": 102}, {"time": 664, "pitch": 68, "duration": 5, "velocity": 107}, {"time": 667, "pitch": 52, "duration": 2, "velocity": 90}, {"time": 670, "pitch": 59, "duration": 2, "velocity": 81}, {"time": 676, "pitch": 42, "duration": 39, "velocity": 96}, {"time": 676, "pitch": 54, "duration": 16, "velocity": 83}, {"time": 676, "pitch": 57, "duration": 9, "velocity": 95}, {"time": 676, "pitch": 61, "duration": 9, "velocity": 117}, {"time": 676, "pitch": 66, "duration": 7, "velocity": 96}, {"time": 688, "pitch": 57, "duration": 1, "velocity": 92}, {"time": 688, "pitch": 61, "duration": 1, "velocity": 112}, {"time": 688, "pitch": 66, "duration": 1, "velocity": 93}, {"time": 694, "pitch": 54, "duration": 4, "velocity": 58}, {"time": 697, "pitch": 57, "duration": 1, "velocity": 77}, {"time": 697, "pitch": 61, "duration": 1, "velocity": 102}, {"time": 697, "pitch": 66, "duration": 1, "velocity": 93}, {"time": 700, "pitch": 54, "duration": 10, "velocity": 42}, {"time": 706, "pitch": 57, "duration": 1, "velocity": 62}, {"time": 706, "pitch": 61, "duration": 1, "velocity": 92}, {"time": 706, "pitch": 66, "duration": 1, "velocity": 71}, {"time": 712, "pitch": 57, "duration": 2, "velocity": 85}, {"time": 712, "pitch": 61, "duration": 2, "velocity": 117}, {"time": 712, "pitch": 66, "duration": 2, "velocity": 89}, {"time": 715, "pitch": 54, "duration": 3, "velocity": 79}, {"time": 718, "pitch": 61, "duration": 2, "velocity": 102}, {"time": 718, "pitch": 66, "duration": 2, "velocity": 86}, {"time": 724, "pitch": 47, "duration": 39, "velocity": 58}, {"time": 724, "pitch": 54, "duration": 16, "velocity": 79}, {"time": 724, "pitch": 59, "duration": 8, "velocity": 86}, {"time": 724, "pitch": 63, "duration": 9, "velocity": 102}, {"time": 724, "pitch": 66, "duration": 8, "velocity": 96}, {"time": 736, "pitch": 59, "duration": 1, "velocity": 85}, {"time": 736, "pitch": 63, "duration": 1, "velocity": 107}, {"time": 736, "pitch": 66, "duration": 1, "velocity": 99}, {"time": 742, "pitch": 54, "duration": 16, "velocity": 63}, {"time": 745, "pitch": 59, "duration": 1, "velocity": 74}, {"time": 745, "pitch": 63, "duration": 1, "velocity": 99}, {"time": 745, "pitch": 66, "duration": 1, "velocity": 93}, {"time": 754, "pitch": 59, "duration": 1, "velocity": 72}, {"time": 754, "pitch": 63, "duration": 1, "velocity": 107}, {"time": 754, "pitch": 66, "duration": 1, "velocity": 93}, {"time": 760, "pitch": 63, "duration": 1, "velocity": 122}, {"time": 760, "pitch": 66, "duration": 1, "velocity": 96}, {"time": 763, "pitch": 54, "duration": 1, "velocity": 86}, {"time": 766, "pitch": 63, "duration": 1, "velocity": 122}, {"time": 766, "pitch": 66, "duration": 1, "velocity": 96}, {"time": 769, "pitch": 59, "duration": 1, "velocity": 73}, {"time": 772, "pitch": 35, "duration": 38, "velocity": 65}, {"time": 772, "pitch": 47, "duration": 36, "velocity": 79}, {"time": 772, "pitch": 59, "duration": 9, "velocity": 78}, {"time": 772, "pitch": 63, "duration": 9, "velocity": 92}, {"time": 772, "pitch": 66, "duration": 9, "velocity": 88}, {"time": 784, "pitch": 59, "duration": 1, "velocity": 79}, {"time": 784, "pitch": 63, "duration": 1, "velocity": 89}, {"time": 784, "pitch": 66, "duration": 1, "velocity": 85}, {"time": 793, "pitch": 59, "duration": 1, "velocity": 76}, {"time": 793, "pitch": 63, "duration": 1, "velocity": 93}, {"time": 793, "pitch": 66, "duration": 1, "velocity": 92}, {"time": 802, "pitch": 59, "duration": 2, "velocity": 76}, {"time": 802, "pitch": 63, "duration": 1, "velocity": 97}, {"time": 802, "pitch": 66, "duration": 2, "velocity": 93}, {"time": 808, "pitch": 63, "duration": 2, "velocity": 102}, {"time": 808, "pitch": 66, "duration": 2, "velocity": 97}, {"time": 811, "pitch": 47, "duration": 2, "velocity": 83}, {"time": 814, "pitch": 63, "duration": 2, "velocity": 102}, {"time": 814, "pitch": 66, "duration": 1, "velocity": 95}, {"time": 820, "pitch": 40, "duration": 43, "velocity": 69}, {"time": 820, "pitch": 52, "duration": 16, "velocity": 74}, {"time": 820, "pitch": 59, "duration": 9, "velocity": 90}, {"time": 820, "pitch": 64, "duration": 10, "velocity": 93}, {"time": 820, "pitch": 68, "duration": 9, "velocity": 99}, {"time": 832, "pitch": 59, "duration": 1, "velocity": 89}, {"time": 832, "pitch": 64, "duration": 2, "velocity": 88}, {"time": 832, "pitch": 68, "duration": 1, "velocity": 88}, {"time": 838, "pitch": 52, "duration": 3, "velocity": 58}, {"time": 841, "pitch": 59, "duration": 1, "velocity": 81}, {"time": 841, "pitch": 64, "duration": 1, "velocity": 93}, {"time": 841, "pitch": 68, "duration": 1, "velocity": 89}, {"time": 847, "pitch": 59, "duration": 1, "velocity": 73}, {"time": 847, "pitch": 64, "duration": 1, "velocity": 88}, {"time": 847, "pitch": 68, "duration": 1, "velocity": 88}, {"time": 853, "pitch": 52, "duration": 3, "velocity": 81}, {"time": 856, "pitch": 59, "duration": 2, "velocity": 79}, {"time": 856, "pitch": 64, "duration": 2, "velocity": 93}, {"time": 856, "pitch": 68, "duration": 2, "velocity": 100}, {"time": 859, "pitch": 52, "duration": 6, "velocity": 72}, {"time": 862, "pitch": 64, "duration": 3, "velocity": 97}, {"time": 862, "pitch": 68, "duration": 3, "velocity": 99}, {"time": 865, "pitch": 59, "duration": 1, "velocity": 83}, {"time": 868, "pitch": 37, "duration": 34, "velocity": 90}, {"time": 868, "pitch": 49, "duration": 16, "velocity": 82}, {"time": 868, "pitch": 61, "duration": 4, "velocity": 117}, {"time": 868, "pitch": 64, "duration": 1, "velocity": 95}, {"time": 868, "pitch": 68, "duration": 4, "velocity": 102}, {"time": 880, "pitch": 61, "duration": 1, "velocity": 112}, {"time": 880, "pitch": 64, "duration": 1, "velocity": 95}, {"time": 880, "pitch": 68, "duration": 1, "velocity": 102}, {"time": 886, "pitch": 49, "duration": 4, "velocity": 57}, {"time": 889, "pitch": 61, "duration": 1, "velocity": 112}, {"time": 889, "pitch": 64, "duration": 1, "velocity": 90}, {"time": 889, "pitch": 68, "duration": 1, "velocity": 100}, {"time": 895, "pitch": 61, "duration": 1, "velocity": 97}, {"time": 895, "pitch": 64, "duration": 1, "velocity": 89}, {"time": 895, "pitch": 68, "duration": 1, "velocity": 93}, {"time": 901, "pitch": 49, "duration": 2, "velocity": 76}, {"time": 904, "pitch": 61, "duration": 1, "velocity": 117}, {"time": 904, "pitch": 64, "duration": 1, "velocity": 97}, {"time": 904, "pitch": 68, "duration": 1, "velocity": 102}, {"time": 910, "pitch": 61, "duration": 1, "velocity": 90}, {"time": 910, "pitch": 68, "duration": 1, "velocity": 72}, {"time": 916, "pitch": 40, "duration": 36, "velocity": 64}, {"time": 916, "pitch": 52, "duration": 29, "velocity": 78}, {"time": 916, "pitch": 59, "duration": 8, "velocity": 93}, {"time": 916, "pitch": 64, "duration": 8, "velocity": 107}, {"time": 916, "pitch": 68, "duration": 6, "velocity": 100}, {"time": 928, "pitch": 59, "duration": 1, "velocity": 89}, {"time": 928, "pitch": 64, "duration": 1, "velocity": 93}, {"time": 928, "pitch": 68, "duration": 1, "velocity": 82}, {"time": 937, "pitch": 59, "duration": 1, "velocity": 76}, {"time": 937, "pitch": 64, "duration": 1, "velocity": 88}, {"time": 937, "pitch": 68, "duration": 1, "velocity": 90}, {"time": 943, "pitch": 59, "duration": 1, "velocity": 75}, {"time": 943, "pitch": 64, "duration": 1, "velocity": 85}, {"time": 943, "pitch": 68, "duration": 1, "velocity": 85}, {"time": 949, "pitch": 52, "duration": 3, "velocity": 69}, {"time": 952, "pitch": 59, "duration": 2, "velocity": 85}, {"time": 952, "pitch": 64, "duration": 1, "velocity": 90}, {"time": 952, "pitch": 68, "duration": 2, "velocity": 93}, {"time": 958, "pitch": 59, "duration": 1, "velocity": 86}, {"time": 958, "pitch": 64, "duration": 1, "velocity": 75}, {"time": 958, "pitch": 68, "duration": 1, "velocity": 85}, {"time": 964, "pitch": 37, "duration": 39, "velocity": 63}, {"time": 964, "pitch": 49, "duration": 14, "velocity": 89}, {"time": 964, "pitch": 61, "duration": 7, "velocity": 102}, {"time": 964, "pitch": 64, "duration": 6, "velocity": 92}, {"time": 964, "pitch": 68, "duration": 6, "velocity": 93}, {"time": 976, "pitch": 61, "duration": 1, "velocity": 100}, {"time": 976, "pitch": 64, "duration": 1, "velocity": 99}, {"time": 976, "pitch": 68, "duration": 1, "velocity": 102}, {"time": 979, "pitch": 49, "duration": 14, "velocity": 56}, {"time": 985, "pitch": 61, "duration": 1, "velocity": 93}, {"time": 985, "pitch": 64, "duration": 1, "velocity": 86}, {"time": 985, "pitch": 68, "duration": 1, "velocity": 89}, {"time": 994, "pitch": 61, "duration": 1, "velocity": 96}, {"time": 994, "pitch": 64, "duration": 1, "velocity": 92}, {"time": 994, "pitch": 68, "duration": 1, "velocity": 96}, {"time": 997, "pitch": 49, "duration": 3, "velocity": 31}, {"time": 1000, "pitch": 61, "duration": 2, "velocity": 102}, {"time": 1000, "pitch": 64, "duration": 1, "velocity": 96}, {"time": 1000, "pitch": 68, "duration": 1, "velocity": 100}, {"time": 1003, "pitch": 49, "duration": 1, "velocity": 73}, {"time": 1006, "pitch": 61, "duration": 1, "velocity": 95}, {"time": 1006, "pitch": 64, "duration": 1, "velocity": 79}, {"time": 1006, "pitch": 68, "duration": 1, "velocity": 86}, {"time": 1012, "pitch": 40, "duration": 37, "velocity": 62}, {"time": 1012, "pitch": 52, "duration": 28, "velocity": 79}, {"time": 1012, "pitch": 59, "duration": 5, "velocity": 96}, {"time": 1012, "pitch": 64, "duration": 5, "velocity": 102}, {"time": 1012, "pitch": 68, "duration": 5, "velocity": 100}, {"time": 1024, "pitch": 59, "duration": 1, "velocity": 93}, {"time": 1024, "pitch": 64, "duration": 1, "velocity": 96}, {"time": 1024, "pitch": 68, "duration": 1, "velocity": 93}, {"time": 1033, "pitch": 59, "duration": 1, "velocity": 86}, {"time": 1033, "pitch": 64, "duration": 1, "velocity": 93}, {"time": 1033, "pitch": 68, "duration": 1, "velocity": 89}, {"time": 1039, "pitch": 59, "duration": 1, "velocity": 62}, {"time": 1039, "pitch": 64, "duration": 1, "velocity": 89}, {"time": 1039, "pitch": 68, "duration": 1, "velocity": 88}, {"time": 1045, "pitch": 52, "duration": 3, "velocity": 76}, {"time": 1048, "pitch": 59, "duration": 1, "velocity": 88}, {"time": 1048, "pitch": 64, "duration": 1, "velocity": 89}, {"time": 1048, "pitch": 68, "duration": 1, "velocity": 90}, {"time": 1054, "pitch": 59, "duration": 1, "velocity": 85}, {"time": 1054, "pitch": 68, "duration": 1, "velocity": 59}, {"time": 1060, "pitch": 42, "duration": 30, "velocity": 72}, {"time": 1060, "pitch": 54, "duration": 29, "velocity": 78}, {"time": 1060, "pitch": 57, "duration": 5, "velocity": 82}, {"time": 1060, "pitch": 61, "duration": 4, "velocity": 93}, {"time": 1060, "pitch": 66, "duration": 4, "velocity": 93}, {"time": 1072, "pitch": 57, "duration": 1, "velocity": 88}, {"time": 1072, "pitch": 61, "duration": 1, "velocity": 122}, {"time": 1072, "pitch": 66, "duration": 1, "velocity": 95}, {"time": 1081, "pitch": 57, "duration": 1, "velocity": 90}, {"time": 1081, "pitch": 61, "duration": 1, "velocity": 107}, {"time": 1081, "pitch": 66, "duration": 1, "velocity": 85}, {"time": 1087, "pitch": 57, "duration": 1, "velocity": 72}, {"time": 1087, "pitch": 61, "duration": 1, "velocity": 100}, {"time": 1087, "pitch": 66, "duration": 1, "velocity": 83}, {"time": 1093, "pitch": 42, "duration": 2, "velocity": 73}, {"time": 1093, "pitch": 54, "duration": 2, "velocity": 64}, {"time": 1096, "pitch": 57, "duration": 2, "velocity": 85}, {"time": 1096, "pitch": 61, "duration": 1, "velocity": 97}, {"time": 1096, "pitch": 66, "duration": 1, "velocity": 76}, {"time": 1102, "pitch": 57, "duration": 1, "velocity": 72}, {"time": 1102, "pitch": 61, "duration": 1, "velocity": 117}, {"time": 1102, "pitch": 66, "duration": 1, "velocity": 76}, {"time": 1108, "pitch": 47, "duration": 10, "velocity": 81}, {"time": 1108, "pitch": 59, "duration": 5, "velocity": 86}, {"time": 1108, "pitch": 63, "duration": 5, "velocity": 117}, {"time": 1108, "pitch": 66, "duration": 4, "velocity": 97}, {"time": 1120, "pitch": 59, "duration": 1, "velocity": 78}, {"time": 1120, "pitch": 63, "duration": 1, "velocity": 127}, {"time": 1120, "pitch": 66, "duration": 1, "velocity": 97}, {"time": 1129, "pitch": 35, "duration": 16, "velocity": 69}, {"time": 1129, "pitch": 47, "duration": 15, "velocity": 86}, {"time": 1129, "pitch": 59, "duration": 1, "velocity": 83}, {"time": 1129, "pitch": 63, "duration": 1, "velocity": 107}, {"time": 1129, "pitch": 66, "duration": 1, "velocity": 93}, {"time": 1138, "pitch": 59, "duration": 3, "velocity": 81}, {"time": 1138, "pitch": 63, "duration": 3, "velocity": 112}, {"time": 1138, "pitch": 66, "duration": 2, "velocity": 95}, {"time": 1144, "pitch": 59, "duration": 2, "velocity": 75}, {"time": 1144, "pitch": 63, "duration": 3, "velocity": 107}, {"time": 1144, "pitch": 66, "duration": 3, "velocity": 95}, {"time": 1147, "pitch": 35, "duration": 1, "velocity": 37}, {"time": 1147, "pitch": 47, "duration": 2, "velocity": 90}, {"time": 1150, "pitch": 63, "duration": 3, "velocity": 107}, {"time": 1150, "pitch": 66, "duration": 3, "velocity": 83}, {"time": 1156, "pitch": 59, "duration": 8, "velocity": 90}, {"time": 1156, "pitch": 63, "duration": 9, "velocity": 127}, {"time": 1156, "pitch": 66, "duration": 8, "velocity": 112}, {"time": 1168, "pitch": 59, "duration": 2, "velocity": 88}, {"time": 1168, "pitch": 63, "duration": 2, "velocity": 122}, {"time": 1168, "pitch": 66, "duration": 2, "velocity": 107}, {"time": 1174, "pitch": 35, "duration": 16, "velocity": 32}, {"time": 1174, "pitch": 47, "duration": 16, "velocity": 39}, {"time": 1177, "pitch": 59, "duration": 1, "velocity": 73}, {"time": 1177, "pitch": 63, "duration": 1, "velocity": 122}, {"time": 1177, "pitch": 66, "duration": 1, "velocity": 96}, {"time": 1186, "pitch": 59, "duration": 3, "velocity": 88}, {"time": 1186, "pitch": 63, "duration": 3, "velocity": 117}, {"time": 1186, "pitch": 66, "duration": 3, "velocity": 107}, {"time": 1192, "pitch": 59, "duration": 2, "velocity": 78}, {"time": 1192, "pitch": 63, "duration": 2, "velocity": 112}, {"time": 1192, "pitch": 66, "duration": 2, "velocity": 102}, {"time": 1195, "pitch": 47, "duration": 2, "velocity": 82}, {"time": 1198, "pitch": 63, "duration": 1, "velocity": 127}, {"time": 1198, "pitch": 66, "duration": 1, "velocity": 102}, {"time": 1204, "pitch": 40, "duration": 29, "velocity": 77}, {"time": 1204, "pitch": 52, "duration": 30, "velocity": 77}, {"time": 1204, "pitch": 59, "duration": 6, "velocity": 86}, {"time": 1204, "pitch": 64, "duration": 6, "velocity": 102}, {"time": 1204, "pitch": 68, "duration": 6, "velocity": 107}, {"time": 1216, "pitch": 59, "duration": 1, "velocity": 92}, {"time": 1216, "pitch": 64, "duration": 1, "velocity": 100}, {"time": 1216, "pitch": 68, "duration": 1, "velocity": 97}, {"time": 1225, "pitch": 59, "duration": 1, "velocity": 92}, {"time": 1225, "pitch": 64, "duration": 1, "velocity": 93}, {"time": 1225, "pitch": 68, "duration": 1, "velocity": 92}, {"time": 1231, "pitch": 59, "duration": 1, "velocity": 86}, {"time": 1231, "pitch": 64, "duration": 2, "velocity": 95}, {"time": 1231, "pitch": 68, "duration": 2, "velocity": 92}, {"time": 1237, "pitch": 40, "duration": 4, "velocity": 67}, {"time": 1237, "pitch": 52, "duration": 4, "velocity": 79}, {"time": 1240, "pitch": 59, "duration": 2, "velocity": 90}, {"time": 1240, "pitch": 64, "duration": 2, "velocity": 96}, {"time": 1240, "pitch": 68, "duration": 2, "velocity": 97}, {"time": 1243, "pitch": 40, "duration": 5, "velocity": 67}, {"time": 1243, "pitch": 52, "duration": 6, "velocity": 75}, {"time": 1246, "pitch": 64, "duration": 2, "velocity": 97}, {"time": 1246, "pitch": 68, "duration": 3, "velocity": 100}, {"time": 1252, "pitch": 40, "duration": 25, "velocity": 79}, {"time": 1252, "pitch": 52, "duration": 24, "velocity": 92}, {"time": 1252, "pitch": 59, "duration": 25, "velocity": 99}, {"time": 1252, "pitch": 64, "duration": 25, "velocity": 112}, {"time": 1252, "pitch": 68, "duration": 25, "velocity": 112}, {"time": 1300, "pitch": 42, "duration": 41, "velocity": 97}, {"time": 1300, "pitch": 61, "duration": 8, "velocity": 107}, {"time": 1300, "pitch": 66, "duration": 6, "velocity": 122}, {"time": 1300, "pitch": 69, "duration": 6, "velocity": 96}, {"time": 1306, "pitch": 49, "duration": 35, "velocity": 83}, {"time": 1312, "pitch": 61, "duration": 7, "velocity": 107}, {"time": 1312, "pitch": 66, "duration": 7, "velocity": 107}, {"time": 1312, "pitch": 69, "duration": 7, "velocity": 88}, {"time": 1318, "pitch": 54, "duration": 11, "velocity": 93}, {"time": 1321, "pitch": 61, "duration": 3, "velocity": 99}, {"time": 1321, "pitch": 66, "duration": 4, "velocity": 112}, {"time": 1321, "pitch": 69, "duration": 4, "velocity": 82}, {"time": 1327, "pitch": 61, "duration": 7, "velocity": 95}, {"time": 1327, "pitch": 66, "duration": 7, "velocity": 122}, {"time": 1327, "pitch": 69, "duration": 7, "velocity": 92}, {"time": 1333, "pitch": 54, "duration": 4, "velocity": 92}, {"time": 1336, "pitch": 61, "duration": 1, "velocity": 55}, {"time": 1336, "pitch": 66, "duration": 5, "velocity": 127}, {"time": 1336, "pitch": 69, "duration": 10, "velocity": 97}, {"time": 1339, "pitch": 54, "duration": 2, "velocity": 100}, {"time": 1342, "pitch": 61, "duration": 7, "velocity": 117}, {"time": 1345, "pitch": 66, "duration": 3, "velocity": 122}, {"time": 1348, "pitch": 47, "duration": 42, "velocity": 92}, {"time": 1354, "pitch": 54, "duration": 9, "velocity": 99}, {"time": 1360, "pitch": 59, "duration": 6, "velocity": 107}, {"time": 1360, "pitch": 63, "duration": 6, "velocity": 127}, {"time": 1360, "pitch": 66, "duration": 6, "velocity": 117}, {"time": 1366, "pitch": 54, "duration": 12, "velocity": 117}, {"time": 1369, "pitch": 59, "duration": 4, "velocity": 95}, {"time": 1369, "pitch": 63, "duration": 4, "velocity": 122}, {"time": 1369, "pitch": 66, "duration": 4, "velocity": 102}, {"time": 1375, "pitch": 59, "duration": 6, "velocity": 88}, {"time": 1375, "pitch": 63, "duration": 6, "velocity": 112}, {"time": 1375, "pitch": 66, "duration": 6, "velocity": 112}, {"time": 1381, "pitch": 54, "duration": 3, "velocity": 107}, {"time": 1384, "pitch": 59, "duration": 4, "velocity": 100}, {"time": 1384, "pitch": 63, "duration": 4, "velocity": 127}, {"time": 1384, "pitch": 66, "duration": 4, "velocity": 122}, {"time": 1387, "pitch": 54, "duration": 2, "velocity": 117}, {"time": 1390, "pitch": 63, "duration": 6, "velocity": 127}, {"time": 1390, "pitch": 66, "duration": 5, "velocity": 127}, {"time": 1393, "pitch": 59, "duration": 5, "velocity": 112}, {"time": 1396, "pitch": 40, "duration": 47, "velocity": 86}, {"time": 1402, "pitch": 47, "duration": 43, "velocity": 55}, {"time": 1402, "pitch": 52, "duration": 8, "velocity": 89}, {"time": 1408, "pitch": 59, "duration": 7, "velocity": 89}, {"time": 1408, "pitch": 64, "duration": 8, "velocity": 102}, {"time": 1408, "pitch": 68, "duration": 7, "velocity": 112}, {"time": 1414, "pitch": 52, "duration": 11, "velocity": 90}, {"time": 1417, "pitch": 59, "duration": 4, "velocity": 99}, {"time": 1417, "pitch": 64, "duration": 4, "velocity": 112}, {"time": 1417, "pitch": 68, "duration": 4, "velocity": 112}, {"time": 1423, "pitch": 59, "duration": 7, "velocity": 85}, {"time": 1423, "pitch": 64, "duration": 7, "velocity": 102}, {"time": 1423, "pitch": 68, "duration": 7, "velocity": 107}, {"time": 1429, "pitch": 52, "duration": 4, "velocity": 96}, {"time": 1432, "pitch": 64, "duration": 7, "velocity": 107}, {"time": 1432, "pitch": 68, "duration": 7, "velocity": 122}, {"time": 1435, "pitch": 52, "duration": 5, "velocity": 100}, {"time": 1438, "pitch": 59, "duration": 4, "velocity": 99}, {"time": 1441, "pitch": 64, "duration": 1, "velocity": 73}, {"time": 1441, "pitch": 68, "duration": 1, "velocity": 46}, {"time": 1444, "pitch": 40, "duration": 39, "velocity": 85}, {"time": 1444, "pitch": 59, "duration": 10, "velocity": 107}, {"time": 1444, "pitch": 64, "duration": 10, "velocity": 100}, {"time": 1444, "pitch": 68, "duration": 9, "velocity": 102}, {"time": 1450, "pitch": 47, "duration": 35, "velocity": 61}, {"time": 1456, "pitch": 59, "duration": 7, "velocity": 112}, {"time": 1456, "pitch": 64, "duration": 7, "velocity": 117}, {"time": 1456, "pitch": 68, "duration": 7, "velocity": 122}, {"time": 1462, "pitch": 52, "duration": 6, "velocity": 99}, {"time": 1465, "pitch": 59, "duration": 4, "velocity": 99}, {"time": 1465, "pitch": 64, "duration": 4, "velocity": 112}, {"time": 1465, "pitch": 68, "duration": 4, "velocity": 117}, {"time": 1468, "pitch": 52, "duration": 4, "velocity": 41}, {"time": 1471, "pitch": 59, "duration": 6, "velocity": 88}, {"time": 1471, "pitch": 64, "duration": 6, "velocity": 102}, {"time": 1471, "pitch": 68, "duration": 6, "velocity": 112}, {"time": 1477, "pitch": 52, "duration": 3, "velocity": 93}, {"time": 1480, "pitch": 59, "duration": 2, "velocity": 75}, {"time": 1480, "pitch": 64, "duration": 7, "velocity": 122}, {"time": 1480, "pitch": 68, "duration": 12, "velocity": 117}, {"time": 1483, "pitch": 52, "duration": 3, "velocity": 99}, {"time": 1486, "pitch": 59, "duration": 6, "velocity": 112}, {"time": 1489, "pitch": 64, "duration": 3, "velocity": 93}, {"time": 1492, "pitch": 42, "duration": 41, "velocity": 112}, {"time": 1498, "pitch": 49, "duration": 34, "velocity": 67}, {"time": 1504, "pitch": 57, "duration": 6, "velocity": 95}, {"time": 1504, "pitch": 61, "duration": 6, "velocity": 112}, {"time": 1504, "pitch": 66, "duration": 6, "velocity": 79}, {"time": 1510, "pitch": 54, "duration": 11, "velocity": 97}, {"time": 1513, "pitch": 57, "duration": 4, "velocity": 97}, {"time": 1513, "pitch": 61, "duration": 4, "velocity": 117}, {"time": 1513, "pitch": 66, "duration": 4, "velocity": 100}, {"time": 1519, "pitch": 57, "duration": 6, "velocity": 92}, {"time": 1519, "pitch": 61, "duration": 6, "velocity": 127}, {"time": 1519, "pitch": 66, "duration": 6, "velocity": 100}, {"time": 1525, "pitch": 54, "duration": 4, "velocity": 99}, {"time": 1528, "pitch": 61, "duration": 4, "velocity": 127}, {"time": 1528, "pitch": 66, "duration": 4, "velocity": 117}, {"time": 1531, "pitch": 54, "duration": 3, "velocity": 117}, {"time": 1534, "pitch": 61, "duration": 4, "velocity": 127}, {"time": 1534, "pitch": 66, "duration": 4, "velocity": 122}, {"time": 1537, "pitch": 57, "duration": 3, "velocity": 112}, {"time": 1540, "pitch": 45, "duration": 20, "velocity": 85}, {"time": 1546, "pitch": 52, "duration": 7, "velocity": 97}, {"time": 1552, "pitch": 60, "duration": 4, "velocity": 122}, {"time": 1552, "pitch": 64, "duration": 4, "velocity": 117}, {"time": 1555, "pitch": 52, "duration": 4, "velocity": 117}, {"time": 1558, "pitch": 60, "duration": 5, "velocity": 99}, {"time": 1558, "pitch": 64, "duration": 5, "velocity": 96}, {"time": 1561, "pitch": 57, "duration": 4, "velocity": 112}, {"time": 1564, "pitch": 38, "duration": 19, "velocity": 102}, {"time": 1570, "pitch": 45, "duration": 14, "velocity": 72}, {"time": 1576, "pitch": 62, "duration": 5, "velocity": 127}, {"time": 1576, "pitch": 66, "duration": 5, "velocity": 127}, {"time": 1579, "pitch": 50, "duration": 6, "velocity": 107}, {"time": 1582, "pitch": 57, "duration": 5, "velocity": 127}, {"time": 1582, "pitch": 62, "duration": 1, "velocity": 77}, {"time": 1582, "pitch": 66, "duration": 2, "velocity": 88}, {"time": 1585, "pitch": 62, "duration": 2, "velocity": 122}, {"time": 1585, "pitch": 66, "duration": 3, "velocity": 76}, {"time": 1588, "pitch": 40, "duration": 48, "velocity": 102}, {"time": 1594, "pitch": 47, "duration": 42, "velocity": 97}, {"time": 1600, "pitch": 59, "duration": 7, "velocity": 107}, {"time": 1600, "pitch": 64, "duration": 7, "velocity": 117}, {"time": 1600, "pitch": 68, "duration": 7, "velocity": 117}, {"time": 1606, "pitch": 52, "duration": 5, "velocity": 100}, {"time": 1609, "pitch": 59, "duration": 8, "velocity": 117}, {"time": 1609, "pitch": 64, "duration": 8, "velocity": 102}, {"time": 1609, "pitch": 68, "duration": 8, "velocity": 117}, {"time": 1615, "pitch": 52, "duration": 3, "velocity": 117}, {"time": 1618, "pitch": 59, "duration": 5, "velocity": 92}, {"time": 1618, "pitch": 64, "duration": 5, "velocity": 100}, {"time": 1618, "pitch": 68, "duration": 4, "velocity": 107}, {"time": 1621, "pitch": 52, "duration": 3, "velocity": 99}, {"time": 1624, "pitch": 59, "duration": 3, "velocity": 86}, {"time": 1624, "pitch": 64, "duration": 3, "velocity": 112}, {"time": 1624, "pitch": 68, "duration": 3, "velocity": 122}, {"time": 1627, "pitch": 52, "duration": 9, "velocity": 102}, {"time": 1630, "pitch": 59, "duration": 2, "velocity": 93}, {"time": 1630, "pitch": 64, "duration": 2, "velocity": 122}, {"time": 1630, "pitch": 68, "duration": 1, "velocity": 117}, {"time": 1633, "pitch": 59, "duration": 3, "velocity": 100}, {"time": 1633, "pitch": 64, "duration": 3, "velocity": 127}, {"time": 1633, "pitch": 68, "duration": 3, "velocity": 127}, {"time": 1636, "pitch": 37, "duration": 47, "velocity": 97}, {"time": 1636, "pitch": 49, "duration": 46, "velocity": 90}, {"time": 1636, "pitch": 61, "duration": 46, "velocity": 102}, {"time": 1636, "pitch": 64, "duration": 1, "velocity": 97}, {"time": 1636, "pitch": 68, "duration": 1, "velocity": 93}, {"time": 1684, "pitch": 40, "duration": 40, "velocity": 77}, {"time": 1684, "pitch": 52, "duration": 21, "velocity": 86}, {"time": 1684, "pitch": 59, "duration": 6, "velocity": 90}, {"time": 1684, "pitch": 64, "duration": 5, "velocity": 97}, {"time": 1684, "pitch": 68, "duration": 5, "velocity": 99}, {"time": 1696, "pitch": 59, "duration": 1, "velocity": 89}, {"time": 1696, "pitch": 64, "duration": 1, "velocity": 100}, {"time": 1696, "pitch": 68, "duration": 1, "velocity": 100}, {"time": 1705, "pitch": 59, "duration": 1, "velocity": 82}, {"time": 1705, "pitch": 64, "duration": 1, "velocity": 99}, {"time": 1705, "pitch": 68, "duration": 1, "velocity": 97}, {"time": 1708, "pitch": 52, "duration": 13, "velocity": 56}, {"time": 1714, "pitch": 59, "duration": 1, "velocity": 79}, {"time": 1714, "pitch": 64, "duration": 1, "velocity": 95}, {"time": 1714, "pitch": 68, "duration": 1, "velocity": 93}, {"time": 1720, "pitch": 64, "duration": 1, "velocity": 112}, {"time": 1720, "pitch": 68, "duration": 2, "velocity": 112}, {"time": 1723, "pitch": 52, "duration": 1, "velocity": 75}, {"time": 1726, "pitch": 64, "duration": 2, "velocity": 95}, {"time": 1726, "pitch": 68, "duration": 2, "velocity": 99}, {"time": 1732, "pitch": 37, "duration": 30, "velocity": 61}, {"time": 1732, "pitch": 49, "duration": 14, "velocity": 72}, {"time": 1732, "pitch": 61, "duration": 7, "velocity": 107}, {"time": 1732, "pitch": 64, "duration": 7, "velocity": 96}, {"time": 1732, "pitch": 68, "duration": 7, "velocity": 107}, {"time": 1744, "pitch": 61, "duration": 1, "velocity": 102}, {"time": 1744, "pitch": 64, "duration": 1, "velocity": 90}, {"time": 1744, "pitch": 68, "duration": 1, "velocity": 99}, {"time": 1750, "pitch": 49, "duration": 13, "velocity": 57}, {"time": 1753, "pitch": 61, "duration": 1, "velocity": 96}, {"time": 1753, "pitch": 64, "duration": 1, "velocity": 90}, {"time": 1753, "pitch": 68, "duration": 1, "velocity": 96}, {"time": 1762, "pitch": 61, "duration": 1, "velocity": 97}, {"time": 1762, "pitch": 64, "duration": 1, "velocity": 89}, {"time": 1762, "pitch": 68, "duration": 1, "velocity": 97}, {"time": 1768, "pitch": 61, "duration": 1, "velocity": 99}, {"time": 1768, "pitch": 64, "duration": 1, "velocity": 88}, {"time": 1768, "pitch": 68, "duration": 1, "velocity": 92}, {"time": 1774, "pitch": 61, "duration": 2, "velocity": 92}, {"time": 1774, "pitch": 64, "duration": 1, "velocity": 53}, {"time": 1780, "pitch": 40, "duration": 40, "velocity": 63}, {"time": 1780, "pitch": 52, "duration": 37, "velocity": 69}, {"time": 1780, "pitch": 59, "duration": 9, "velocity": 95}, {"time": 1780, "pitch": 64, "duration": 5, "velocity": 89}, {"time": 1780, "pitch": 68, "duration": 5, "velocity": 90}, {"time": 1792, "pitch": 59, "duration": 1, "velocity": 90}, {"time": 1792, "pitch": 64, "duration": 1, "velocity": 97}, {"time": 1792, "pitch": 68, "duration": 1, "velocity": 107}, {"time": 1801, "pitch": 59, "duration": 1, "velocity": 70}, {"time": 1801, "pitch": 64, "duration": 1, "velocity": 107}, {"time": 1801, "pitch": 68, "duration": 1, "velocity": 107}, {"time": 1810, "pitch": 59, "duration": 1, "velocity": 67}, {"time": 1810, "pitch": 64, "duration": 1, "velocity": 60}, {"time": 1810, "pitch": 68, "duration": 1, "velocity": 90}, {"time": 1816, "pitch": 64, "duration": 3, "velocity": 102}, {"time": 1816, "pitch": 68, "duration": 5, "velocity": 107}, {"time": 1819, "pitch": 52, "duration": 2, "velocity": 90}, {"time": 1822, "pitch": 59, "duration": 2, "velocity": 81}, {"time": 1828, "pitch": 42, "duration": 39, "velocity": 96}, {"time": 1828, "pitch": 54, "duration": 16, "velocity": 83}, {"time": 1828, "pitch": 57, "duration": 9, "velocity": 95}, {"time": 1828, "pitch": 61, "duration": 9, "velocity": 117}, {"time": 1828, "pitch": 66, "duration": 7, "velocity": 96}, {"time": 1840, "pitch": 57, "duration": 1, "velocity": 92}, {"time": 1840, "pitch": 61, "duration": 1, "velocity": 112}, {"time": 1840, "pitch": 66, "duration": 1, "velocity": 93}, {"time": 1846, "pitch": 54, "duration": 4, "velocity": 58}, {"time": 1849, "pitch": 57, "duration": 1, "velocity": 77}, {"time": 1849, "pitch": 61, "duration": 1, "velocity": 102}, {"time": 1849, "pitch": 66, "duration": 1, "velocity": 93}, {"time": 1852, "pitch": 54, "duration": 10, "velocity": 42}, {"time": 1858, "pitch": 57, "duration": 1, "velocity": 62}, {"time": 1858, "pitch": 61, "duration": 1, "velocity": 92}, {"time": 1858, "pitch": 66, "duration": 1, "velocity": 71}, {"time": 1864, "pitch": 57, "duration": 2, "velocity": 85}, {"time": 1864, "pitch": 61, "duration": 2, "velocity": 117}, {"time": 1864, "pitch": 66, "duration": 2, "velocity": 89}, {"time": 1867, "pitch": 54, "duration": 3, "velocity": 79}, {"time": 1870, "pitch": 61, "duration": 2, "velocity": 102}, {"time": 1870, "pitch": 66, "duration": 2, "velocity": 86}, {"time": 1876, "pitch": 47, "duration": 39, "velocity": 58}, {"time": 1876, "pitch": 54, "duration": 16, "velocity": 79}, {"time": 1876, "pitch": 59, "duration": 8, "velocity": 86}, {"time": 1876, "pitch": 63, "duration": 9, "velocity": 102}, {"time": 1876, "pitch": 66, "duration": 8, "velocity": 96}, {"time": 1888, "pitch": 59, "duration": 1, "velocity": 85}, {"time": 1888, "pitch": 63, "duration": 1, "velocity": 107}, {"time": 1888, "pitch": 66, "duration": 1, "velocity": 99}, {"time": 1894, "pitch": 54, "duration": 16, "velocity": 63}, {"time": 1897, "pitch": 59, "duration": 1, "velocity": 74}, {"time": 1897, "pitch": 63, "duration": 1, "velocity": 99}, {"time": 1897, "pitch": 66, "duration": 1, "velocity": 93}, {"time": 1906, "pitch": 59, "duration": 1, "velocity": 72}, {"time": 1906, "pitch": 63, "duration": 1, "velocity": 107}, {"time": 1906, "pitch": 66, "duration": 1, "velocity": 93}, {"time": 1912, "pitch": 63, "duration": 1, "velocity": 122}, {"time": 1912, "pitch": 66, "duration": 1, "velocity": 96}, {"time": 1915, "pitch": 54, "duration": 1, "velocity": 86}, {"time": 1918, "pitch": 63, "duration": 1, "velocity": 122}, {"time": 1918, "pitch": 66, "duration": 1, "velocity": 96}, {"time": 1921, "pitch": 59, "duration": 1, "velocity": 73}, {"time": 1924, "pitch": 35, "duration": 38, "velocity": 65}, {"time": 1924, "pitch": 47, "duration": 36, "velocity": 79}, {"time": 1924, "pitch": 59, "duration": 9, "velocity": 78}, {"time": 1924, "pitch": 63, "duration": 9, "velocity": 92}, {"time": 1924, "pitch": 66, "duration": 9, "velocity": 88}, {"time": 1936, "pitch": 59, "duration": 1, "velocity": 79}, {"time": 1936, "pitch": 63, "duration": 1, "velocity": 89}, {"time": 1936, "pitch": 66, "duration": 1, "velocity": 85}, {"time": 1945, "pitch": 59, "duration": 1, "velocity": 76}, {"time": 1945, "pitch": 63, "duration": 1, "velocity": 93}, {"time": 1945, "pitch": 66, "duration": 1, "velocity": 92}, {"time": 1954, "pitch": 59, "duration": 2, "velocity": 76}, {"time": 1954, "pitch": 63, "duration": 1, "velocity": 97}, {"time": 1954, "pitch": 66, "duration": 2, "velocity": 93}, {"time": 1960, "pitch": 63, "duration": 2, "velocity": 102}, {"time": 1960, "pitch": 66, "duration": 2, "velocity": 97}, {"time": 1963, "pitch": 47, "duration": 2, "velocity": 83}, {"time": 1966, "pitch": 63, "duration": 2, "velocity": 102}, {"time": 1966, "pitch": 66, "duration": 1, "velocity": 95}, {"time": 1972, "pitch": 40, "duration": 43, "velocity": 69}, {"time": 1972, "pitch": 52, "duration": 16, "velocity": 74}, {"time": 1972, "pitch": 59, "duration": 9, "velocity": 90}, {"time": 1972, "pitch": 64, "duration": 10, "velocity": 93}, {"time": 1972, "pitch": 68, "duration": 9, "velocity": 99}, {"time": 1984, "pitch": 59, "duration": 1, "velocity": 89}, {"time": 1984, "pitch": 64, "duration": 2, "velocity": 88}, {"time": 1984, "pitch": 68, "duration": 1, "velocity": 88}, {"time": 1990, "pitch": 52, "duration": 3, "velocity": 58}, {"time": 1993, "pitch": 59, "duration": 1, "velocity": 81}, {"time": 1993, "pitch": 64, "duration": 1, "velocity": 93}, {"time": 1993, "pitch": 68, "duration": 1, "velocity": 89}, {"time": 1999, "pitch": 59, "duration": 1, "velocity": 73}, {"time": 1999, "pitch": 64, "duration": 1, "velocity": 88}, {"time": 1999, "pitch": 68, "duration": 1, "velocity": 88}, {"time": 2005, "pitch": 52, "duration": 3, "velocity": 81}, {"time": 2008, "pitch": 59, "duration": 2, "velocity": 79}, {"time": 2008, "pitch": 64, "duration": 2, "velocity": 93}, {"time": 2008, "pitch": 68, "duration": 2, "velocity": 100}, {"time": 2011, "pitch": 52, "duration": 6, "velocity": 72}, {"time": 2014, "pitch": 64, "duration": 3, "velocity": 97}, {"time": 2014, "pitch": 68, "duration": 3, "velocity": 99}, {"time": 2017, "pitch": 59, "duration": 1, "velocity": 83}, {"time": 2020, "pitch": 40, "duration": 1, "velocity": 76}, {"time": 2020, "pitch": 52, "duration": 1, "velocity": 92}, {"time": 2020, "pitch": 59, "duration": 1, "velocity": 100}, {"time": 2020, "pitch": 64, "duration": 2, "velocity": 107}, {"time": 2020, "pitch": 68, "duration": 1, "velocity": 54}, {"time": 2023, "pitch": 40, "duration": 3, "velocity": 86}, {"time": 2023, "pitch": 52, "duration": 3, "velocity": 107}, {"time": 2023, "pitch": 59, "duration": 3, "velocity": 99}, {"time": 2023, "pitch": 64, "duration": 3, "velocity": 107}, {"time": 2023, "pitch": 68, "duration": 3, "velocity": 122}, {"time": 2068, "pitch": 42, "duration": 4, "velocity": 95}, {"time": 2068, "pitch": 54, "duration": 4, "velocity": 102}, {"time": 2068, "pitch": 57, "duration": 22, "velocity": 96}, {"time": 2068, "pitch": 61, "duration": 23, "velocity": 127}, {"time": 2068, "pitch": 66, "duration": 22, "velocity": 100}, {"time": 2074, "pitch": 42, "duration": 3, "velocity": 85}, {"time": 2074, "pitch": 54, "duration": 3, "velocity": 83}, {"time": 2080, "pitch": 42, "duration": 3, "velocity": 99}, {"time": 2080, "pitch": 54, "duration": 3, "velocity": 99}, {"time": 2086, "pitch": 42, "duration": 3, "velocity": 82}, {"time": 2086, "pitch": 54, "duration": 3, "velocity": 95}, {"time": 2092, "pitch": 42, "duration": 3, "velocity": 90}, {"time": 2092, "pitch": 54, "duration": 3, "velocity": 99}, {"time": 2092, "pitch": 57, "duration": 4, "velocity": 97}, {"time": 2092, "pitch": 61, "duration": 4, "velocity": 112}, {"time": 2092, "pitch": 66, "duration": 4, "velocity": 100}, {"time": 2098, "pitch": 42, "duration": 4, "velocity": 81}, {"time": 2098, "pitch": 54, "duration": 4, "velocity": 95}, {"time": 2104, "pitch": 42, "duration": 4, "velocity": 95}, {"time": 2104, "pitch": 54, "duration": 4, "velocity": 100}, {"time": 2104, "pitch": 57, "duration": 1, "velocity": 61}, {"time": 2104, "pitch": 61, "duration": 3, "velocity": 127}, {"time": 2104, "pitch": 66, "duration": 3, "velocity": 122}, {"time": 2110, "pitch": 57, "duration": 2, "velocity": 92}, {"time": 2110, "pitch": 61, "duration": 3, "velocity": 95}, {"time": 2110, "pitch": 66, "duration": 1, "velocity": 67}, {"time": 2116, "pitch": 47, "duration": 7, "velocity": 99}, {"time": 2116, "pitch": 59, "duration": 4, "velocity": 107}, {"time": 2116, "pitch": 63, "duration": 4, "velocity": 127}, {"time": 2116, "pitch": 66, "duration": 4, "velocity": 117}, {"time": 2122, "pitch": 59, "duration": 3, "velocity": 93}, {"time": 2122, "pitch": 63, "duration": 3, "velocity": 127}, {"time": 2122, "pitch": 66, "duration": 3, "velocity": 107}, {"time": 2128, "pitch": 47, "duration": 6, "velocity": 61}, {"time": 2128, "pitch": 54, "duration": 9, "velocity": 95}, {"time": 2128, "pitch": 59, "duration": 3, "velocity": 97}, {"time": 2128, "pitch": 63, "duration": 3, "velocity": 127}, {"time": 2128, "pitch": 66, "duration": 3, "velocity": 122}, {"time": 2134, "pitch": 59, "duration": 3, "velocity": 77}, {"time": 2134, "pitch": 63, "duration": 4, "velocity": 112}, {"time": 2134, "pitch": 66, "duration": 3, "velocity": 95}, {"time": 2140, "pitch": 47, "duration": 7, "velocity": 67}, {"time": 2140, "pitch": 54, "duration": 9, "velocity": 100}, {"time": 2140, "pitch": 59, "duration": 3, "velocity": 96}, {"time": 2140, "pitch": 63, "duration": 3, "velocity": 112}, {"time": 2140, "pitch": 66, "duration": 3, "velocity": 112}, {"time": 2146, "pitch": 59, "duration": 3, "velocity": 79}, {"time": 2146, "pitch": 63, "duration": 3, "velocity": 95}, {"time": 2146, "pitch": 66, "duration": 3, "velocity": 93}, {"time": 2152, "pitch": 47, "duration": 2, "velocity": 67}, {"time": 2152, "pitch": 54, "duration": 2, "velocity": 107}, {"time": 2152, "pitch": 59, "duration": 3, "velocity": 89}, {"time": 2152, "pitch": 63, "duration": 3, "velocity": 112}, {"time": 2152, "pitch": 66, "duration": 3, "velocity": 107}, {"time": 2158, "pitch": 59, "duration": 3, "velocity": 74}, {"time": 2158, "pitch": 63, "duration": 2, "velocity": 95}, {"time": 2158, "pitch": 66, "duration": 2, "velocity": 83}, {"time": 2164, "pitch": 40, "duration": 9, "velocity": 73}, {"time": 2164, "pitch": 52, "duration": 9, "velocity": 102}, {"time": 2164, "pitch": 59, "duration": 3, "velocity": 99}, {"time": 2164, "pitch": 64, "duration": 4, "velocity": 99}, {"time": 2164, "pitch": 68, "duration": 4, "velocity": 112}, {"time": 2170, "pitch": 59, "duration": 3, "velocity": 93}, {"time": 2170, "pitch": 64, "duration": 3, "velocity": 93}, {"time": 2170, "pitch": 68, "duration": 3, "velocity": 93}, {"time": 2176, "pitch": 40, "duration": 8, "velocity": 83}, {"time": 2176, "pitch": 52, "duration": 8, "velocity": 89}, {"time": 2176, "pitch": 59, "duration": 3, "velocity": 93}, {"time": 2176, "pitch": 64, "duration": 3, "velocity": 90}, {"time": 2176, "pitch": 68, "duration": 3, "velocity": 100}, {"time": 2182, "pitch": 59, "duration": 3, "velocity": 96}, {"time": 2182, "pitch": 64, "duration": 3, "velocity": 99}, {"time": 2182, "pitch": 68, "duration": 3, "velocity": 96}, {"time": 2188, "pitch": 40, "duration": 8, "velocity": 73}, {"time": 2188, "pitch": 52, "duration": 8, "velocity": 86}, {"time": 2188, "pitch": 59, "duration": 4, "velocity": 89}, {"time": 2188, "pitch": 64, "duration": 4, "velocity": 93}, {"time": 2188, "pitch": 68, "duration": 4, "velocity": 92}, {"time": 2194, "pitch": 59, "duration": 2, "velocity": 88}, {"time": 2194, "pitch": 64, "duration": 3, "velocity": 88}, {"time": 2194, "pitch": 68, "duration": 3, "velocity": 93}, {"time": 2200, "pitch": 40, "duration": 9, "velocity": 78}, {"time": 2200, "pitch": 52, "duration": 9, "velocity": 96}, {"time": 2200, "pitch": 59, "duration": 3, "velocity": 95}, {"time": 2200, "pitch": 64, "duration": 3, "velocity": 97}, {"time": 2200, "pitch": 68, "duration": 3, "velocity": 100}, {"time": 2206, "pitch": 59, "duration": 3, "velocity": 85}, {"time": 2206, "pitch": 64, "duration": 3, "velocity": 96}, {"time": 2206, "pitch": 68, "duration": 3, "velocity": 97}, {"time": 2212, "pitch": 40, "duration": 8, "velocity": 71}, {"time": 2212, "pitch": 52, "duration": 9, "velocity": 93}, {"time": 2212, "pitch": 59, "duration": 3, "velocity": 95}, {"time": 2212, "pitch": 64, "duration": 4, "velocity": 96}, {"time": 2212, "pitch": 68, "duration": 3, "velocity": 99}, {"time": 2218, "pitch": 59, "duration": 3, "velocity": 86}, {"time": 2218, "pitch": 64, "duration": 3, "velocity": 96}, {"time": 2218, "pitch": 68, "duration": 3, "velocity": 97}, {"time": 2224, "pitch": 40, "duration": 7, "velocity": 73}, {"time": 2224, "pitch": 52, "duration": 8, "velocity": 89}, {"time": 2224, "pitch": 59, "duration": 3, "velocity": 93}, {"time": 2224, "pitch": 64, "duration": 3, "velocity": 96}, {"time": 2224, "pitch": 68, "duration": 3, "velocity": 102}, {"time": 2230, "pitch": 59, "duration": 3, "velocity": 97}, {"time": 2230, "pitch": 64, "duration": 3, "velocity": 97}, {"time": 2230, "pitch": 68, "duration": 3, "velocity": 99}, {"time": 2236, "pitch": 40, "duration": 8, "velocity": 76}, {"time": 2236, "pitch": 52, "duration": 9, "velocity": 90}, {"time": 2236, "pitch": 59, "duration": 3, "velocity": 92}, {"time": 2236, "pitch": 64, "duration": 3, "velocity": 95}, {"time": 2236, "pitch": 68, "duration": 3, "velocity": 97}, {"time": 2242, "pitch": 59, "duration": 3, "velocity": 90}, {"time": 2242, "pitch": 64, "duration": 3, "velocity": 96}, {"time": 2242, "pitch": 68, "duration": 3, "velocity": 96}, {"time": 2248, "pitch": 40, "duration": 6, "velocity": 73}, {"time": 2248, "pitch": 52, "duration": 10, "velocity": 89}, {"time": 2248, "pitch": 59, "duration": 3, "velocity": 92}, {"time": 2248, "pitch": 64, "duration": 3, "velocity": 102}, {"time": 2248, "pitch": 68, "duration": 3, "velocity": 100}, {"time": 2254, "pitch": 59, "duration": 4, "velocity": 96}, {"time": 2254, "pitch": 64, "duration": 1, "velocity": 93}, {"time": 2254, "pitch": 68, "duration": 1, "velocity": 76}, {"time": 2260, "pitch": 42, "duration": 9, "velocity": 97}, {"time": 2260, "pitch": 54, "duration": 9, "velocity": 92}, {"time": 2260, "pitch": 57, "duration": 4, "velocity": 99}, {"time": 2260, "pitch": 61, "duration": 4, "velocity": 117}, {"time": 2260, "pitch": 66, "duration": 4, "velocity": 99}, {"time": 2266, "pitch": 57, "duration": 3, "velocity": 78}, {"time": 2266, "pitch": 61, "duration": 3, "velocity": 90}, {"time": 2266, "pitch": 66, "duration": 3, "velocity": 90}, {"time": 2272, "pitch": 42, "duration": 9, "velocity": 95}, {"time": 2272, "pitch": 54, "duration": 9, "velocity": 96}, {"time": 2272, "pitch": 57, "duration": 4, "velocity": 99}, {"time": 2272, "pitch": 61, "duration": 4, "velocity": 122}, {"time": 2272, "pitch": 66, "duration": 4, "velocity": 99}, {"time": 2278, "pitch": 57, "duration": 3, "velocity": 88}, {"time": 2278, "pitch": 61, "duration": 3, "velocity": 107}, {"time": 2278, "pitch": 66, "duration": 3, "velocity": 96}, {"time": 2284, "pitch": 42, "duration": 10, "velocity": 95}, {"time": 2284, "pitch": 54, "duration": 9, "velocity": 95}, {"time": 2284, "pitch": 57, "duration": 3, "velocity": 99}, {"time": 2284, "pitch": 61, "duration": 3, "velocity": 127}, {"time": 2284, "pitch": 66, "duration": 4, "velocity": 112}, {"time": 2290, "pitch": 57, "duration": 3, "velocity": 82}, {"time": 2290, "pitch": 61, "duration": 3, "velocity": 107}, {"time": 2290, "pitch": 66, "duration": 3, "velocity": 92}, {"time": 2296, "pitch": 42, "duration": 2, "velocity": 53}, {"time": 2296, "pitch": 54, "duration": 3, "velocity": 100}, {"time": 2296, "pitch": 57, "duration": 3, "velocity": 99}, {"time": 2296, "pitch": 61, "duration": 3, "velocity": 127}, {"time": 2296, "pitch": 66, "duration": 3, "velocity": 112}, {"time": 2302, "pitch": 57, "duration": 3, "velocity": 70}, {"time": 2302, "pitch": 61, "duration": 2, "velocity": 102}, {"time": 2302, "pitch": 66, "duration": 1, "velocity": 79}, {"time": 2308, "pitch": 45, "duration": 10, "velocity": 95}, {"time": 2308, "pitch": 57, "duration": 3, "velocity": 112}, {"time": 2308, "pitch": 60, "duration": 3, "velocity": 112}, {"time": 2308, "pitch": 64, "duration": 4, "velocity": 112}, {"time": 2314, "pitch": 57, "duration": 3, "velocity": 90}, {"time": 2314, "pitch": 60, "duration": 3, "velocity": 93}, {"time": 2314, "pitch": 64, "duration": 3, "velocity": 82}, {"time": 2320, "pitch": 45, "duration": 7, "velocity": 97}, {"time": 2320, "pitch": 57, "duration": 3, "velocity": 107}, {"time": 2320, "pitch": 60, "duration": 3, "velocity": 102}, {"time": 2320, "pitch": 64, "duration": 3, "velocity": 95}, {"time": 2326, "pitch": 57, "duration": 3, "velocity": 88}, {"time": 2326, "pitch": 60, "duration": 3, "velocity": 90}, {"time": 2326, "pitch": 64, "duration": 2, "velocity": 82}, {"time": 2332, "pitch": 50, "duration": 11, "velocity": 102}, {"time": 2332, "pitch": 57, "duration": 5, "velocity": 100}, {"time": 2332, "pitch": 62, "duration": 5, "velocity": 102}, {"time": 2332, "pitch": 66, "duration": 5, "velocity": 117}, {"time": 2338, "pitch": 57, "duration": 5, "velocity": 83}, {"time": 2338, "pitch": 62, "duration": 4, "velocity": 96}, {"time": 2338, "pitch": 66, "duration": 5, "velocity": 96}, {"time": 2344, "pitch": 50, "duration": 4, "velocity": 122}, {"time": 2344, "pitch": 57, "duration": 5, "velocity": 95}, {"time": 2344, "pitch": 62, "duration": 5, "velocity": 112}, {"time": 2344, "pitch": 66, "duration": 5, "velocity": 117}, {"time": 2350, "pitch": 50, "duration": 6, "velocity": 92}, {"time": 2350, "pitch": 57, "duration": 6, "velocity": 92}, {"time": 2350, "pitch": 62, "duration": 6, "velocity": 96}, {"time": 2350, "pitch": 66, "duration": 6, "velocity": 95}, {"time": 2356, "pitch": 40, "duration": 9, "velocity": 82}, {"time": 2356, "pitch": 52, "duration": 9, "velocity": 92}, {"time": 2356, "pitch": 59, "duration": 4, "velocity": 107}, {"time": 2356, "pitch": 64, "duration": 4, "velocity": 102}, {"time": 2356, "pitch": 68, "duration": 3, "velocity": 100}, {"time": 2362, "pitch": 59, "duration": 3, "velocity": 100}, {"time": 2362, "pitch": 64, "duration": 3, "velocity": 96}, {"time": 2362, "pitch": 68, "duration": 3, "velocity": 96}, {"time": 2368, "pitch": 40, "duration": 9, "velocity": 82}, {"time": 2368, "pitch": 52, "duration": 8, "velocity": 100}, {"time": 2368, "pitch": 59, "duration": 3, "velocity": 112}, {"time": 2368, "pitch": 64, "duration": 3, "velocity": 107}, {"time": 2368, "pitch": 68, "duration": 3, "velocity": 117}, {"time": 2374, "pitch": 59, "duration": 2, "velocity": 97}, {"time": 2374, "pitch": 64, "duration": 3, "velocity": 95}, {"time": 2374, "pitch": 68, "duration": 3, "velocity": 99}, {"time": 2380, "pitch": 40, "duration": 7, "velocity": 89}, {"time": 2380, "pitch": 52, "duration": 7, "velocity": 99}, {"time": 2380, "pitch": 59, "duration": 3, "velocity": 96}, {"time": 2380, "pitch": 64, "duration": 3, "velocity": 97}, {"time": 2380, "pitch": 68, "duration": 3, "velocity": 102}, {"time": 2386, "pitch": 59, "duration": 3, "velocity": 99}, {"time": 2386, "pitch": 64, "duration": 2, "velocity": 107}, {"time": 2386, "pitch": 68, "duration": 2, "velocity": 122}, {"time": 2392, "pitch": 40, "duration": 9, "velocity": 88}, {"time": 2392, "pitch": 52, "duration": 9, "velocity": 100}, {"time": 2392, "pitch": 59, "duration": 3, "velocity": 102}, {"time": 2392, "pitch": 64, "duration": 4, "velocity": 102}, {"time": 2392, "pitch": 68, "duration": 3, "velocity": 107}, {"time": 2398, "pitch": 59, "duration": 6, "velocity": 107}, {"time": 2398, "pitch": 64, "duration": 5, "velocity": 112}, {"time": 2398, "pitch": 68, "duration": 5, "velocity": 117}, {"time": 2404, "pitch": 40, "duration": 4, "velocity": 81}, {"time": 2404, "pitch": 52, "duration": 4, "velocity": 100}, {"time": 2404, "pitch": 59, "duration": 4, "velocity": 90}, {"time": 2404, "pitch": 64, "duration": 4, "velocity": 96}, {"time": 2404, "pitch": 68, "duration": 4, "velocity": 100}, {"time": 2410, "pitch": 40, "duration": 4, "velocity": 72}, {"time": 2410, "pitch": 52, "duration": 3, "velocity": 90}, {"time": 2410, "pitch": 59, "duration": 3, "velocity": 77}, {"time": 2410, "pitch": 64, "duration": 3, "velocity": 89}, {"time": 2410, "pitch": 68, "duration": 3, "velocity": 92}, {"time": 2416, "pitch": 40, "duration": 4, "velocity": 81}, {"time": 2416, "pitch": 52, "duration": 3, "velocity": 90}, {"time": 2416, "pitch": 59, "duration": 3, "velocity": 86}, {"time": 2416, "pitch": 64, "duration": 3, "velocity": 93}, {"time": 2416, "pitch": 68, "duration": 3, "velocity": 92}, {"time": 2422, "pitch": 40, "duration": 4, "velocity": 66}, {"time": 2422, "pitch": 52, "duration": 3, "velocity": 88}, {"time": 2422, "pitch": 59, "duration": 4, "velocity": 82}, {"time": 2422, "pitch": 64, "duration": 3, "velocity": 86}, {"time": 2422, "pitch": 68, "duration": 4, "velocity": 89}, {"time": 2428, "pitch": 40, "duration": 3, "velocity": 69}, {"time": 2428, "pitch": 52, "duration": 2, "velocity": 85}, {"time": 2428, "pitch": 59, "duration": 3, "velocity": 89}, {"time": 2428, "pitch": 64, "duration": 3, "velocity": 100}, {"time": 2428, "pitch": 68, "duration": 3, "velocity": 99}, {"time": 2434, "pitch": 40, "duration": 3, "velocity": 69}, {"time": 2434, "pitch": 52, "duration": 3, "velocity": 78}, {"time": 2434, "pitch": 59, "duration": 3, "velocity": 96}, {"time": 2434, "pitch": 64, "duration": 3, "velocity": 99}, {"time": 2434, "pitch": 68, "duration": 3, "velocity": 97}, {"time": 2440, "pitch": 40, "duration": 2, "velocity": 74}, {"time": 2440, "pitch": 52, "duration": 2, "velocity": 75}, {"time": 2440, "pitch": 59, "duration": 2, "velocity": 90}, {"time": 2440, "pitch": 64, "duration": 2, "velocity": 100}, {"time": 2440, "pitch": 68, "duration": 2, "velocity": 107}, {"time": 2446, "pitch": 40, "duration": 2, "velocity": 54}, {"time": 2446, "pitch": 52, "duration": 2, "velocity": 86}, {"time": 2446, "pitch": 59, "duration": 2, "velocity": 93}, {"time": 2446, "pitch": 64, "duration": 1, "velocity": 93}, {"time": 2446, "pitch": 68, "duration": 2, "velocity": 95}, {"time": 2452, "pitch": 42, "duration": 3, "velocity": 71}, {"time": 2452, "pitch": 54, "duration": 3, "velocity": 99}, {"time": 2452, "pitch": 57, "duration": 3, "velocity": 93}, {"time": 2452, "pitch": 61, "duration": 3, "velocity": 127}, {"time": 2452, "pitch": 66, "duration": 3, "velocity": 96}, {"time": 2458, "pitch": 42, "duration": 3, "velocity": 90}, {"time": 2458, "pitch": 54, "duration": 3, "velocity": 96}, {"time": 2458, "pitch": 57, "duration": 3, "velocity": 92}, {"time": 2458, "pitch": 61, "duration": 3, "velocity": 122}, {"time": 2458, "pitch": 66, "duration": 3, "velocity": 99}, {"time": 2464, "pitch": 42, "duration": 3, "velocity": 90}, {"time": 2464, "pitch": 54, "duration": 3, "velocity": 88}, {"time": 2464, "pitch": 57, "duration": 4, "velocity": 96}, {"time": 2464, "pitch": 61, "duration": 3, "velocity": 127}, {"time": 2464, "pitch": 66, "duration": 3, "velocity": 107}, {"time": 2470, "pitch": 42, "duration": 3, "velocity": 92}, {"time": 2470, "pitch": 54, "duration": 3, "velocity": 72}, {"time": 2470, "pitch": 57, "duration": 3, "velocity": 81}, {"time": 2470, "pitch": 61, "duration": 3, "velocity": 107}, {"time": 2470, "pitch": 66, "duration": 4, "velocity": 93}, {"time": 2476, "pitch": 42, "duration": 4, "velocity": 93}, {"time": 2476, "pitch": 54, "duration": 3, "velocity": 93}, {"time": 2476, "pitch": 57, "duration": 4, "velocity": 92}, {"time": 2476, "pitch": 61, "duration": 3, "velocity": 127}, {"time": 2476, "pitch": 66, "duration": 4, "velocity": 99}, {"time": 2482, "pitch": 42, "duration": 2, "velocity": 79}, {"time": 2482, "pitch": 54, "duration": 2, "velocity": 88}, {"time": 2482, "pitch": 57, "duration": 4, "velocity": 75}, {"time": 2482, "pitch": 61, "duration": 3, "velocity": 107}, {"time": 2482, "pitch": 66, "duration": 3, "velocity": 90}, {"time": 2488, "pitch": 42, "duration": 3, "velocity": 100}, {"time": 2488, "pitch": 54, "duration": 3, "velocity": 100}, {"time": 2488, "pitch": 57, "duration": 4, "velocity": 92}, {"time": 2488, "pitch": 61, "duration": 4, "velocity": 122}, {"time": 2488, "pitch": 66, "duration": 3, "velocity": 102}, {"time": 2494, "pitch": 42, "duration": 3, "velocity": 89}, {"time": 2494, "pitch": 54, "duration": 3, "velocity": 92}, {"time": 2494, "pitch": 57, "duration": 3, "velocity": 81}, {"time": 2494, "pitch": 61, "duration": 3, "velocity": 102}, {"time": 2494, "pitch": 66, "duration": 3, "velocity": 97}, {"time": 2500, "pitch": 42, "duration": 3, "velocity": 88}, {"time": 2500, "pitch": 54, "duration": 3, "velocity": 93}, {"time": 2500, "pitch": 57, "duration": 4, "velocity": 86}, {"time": 2500, "pitch": 61, "duration": 3, "velocity": 117}, {"time": 2500, "pitch": 66, "duration": 4, "velocity": 100}, {"time": 2506, "pitch": 42, "duration": 3, "velocity": 88}, {"time": 2506, "pitch": 54, "duration": 3, "velocity": 90}, {"time": 2506, "pitch": 57, "duration": 4, "velocity": 75}, {"time": 2506, "pitch": 61, "duration": 3, "velocity": 102}, {"time": 2506, "pitch": 66, "duration": 4, "velocity": 92}, {"time": 2512, "pitch": 42, "duration": 3, "velocity": 90}, {"time": 2512, "pitch": 54, "duration": 3, "velocity": 93}, {"time": 2512, "pitch": 57, "duration": 3, "velocity": 82}, {"time": 2512, "pitch": 61, "duration": 3, "velocity": 100}, {"time": 2512, "pitch": 66, "duration": 3, "velocity": 93}, {"time": 2518, "pitch": 42, "duration": 3, "velocity": 92}, {"time": 2518, "pitch": 54, "duration": 3, "velocity": 89}, {"time": 2518, "pitch": 57, "duration": 4, "velocity": 83}, {"time": 2518, "pitch": 61, "duration": 4, "velocity": 102}, {"time": 2518, "pitch": 66, "duration": 4, "velocity": 83}, {"time": 2524, "pitch": 42, "duration": 3, "velocity": 95}, {"time": 2524, "pitch": 54, "duration": 3, "velocity": 78}, {"time": 2524, "pitch": 57, "duration": 4, "velocity": 86}, {"time": 2524, "pitch": 61, "duration": 3, "velocity": 102}, {"time": 2524, "pitch": 66, "duration": 4, "velocity": 96}, {"time": 2530, "pitch": 42, "duration": 3, "velocity": 92}, {"time": 2530, "pitch": 54, "duration": 3, "velocity": 76}, {"time": 2530, "pitch": 57, "duration": 3, "velocity": 86}, {"time": 2530, "pitch": 61, "duration": 3, "velocity": 117}, {"time": 2530, "pitch": 66, "duration": 4, "velocity": 97}, {"time": 2536, "pitch": 42, "duration": 3, "velocity": 95}, {"time": 2536, "pitch": 54, "duration": 3, "velocity": 77}, {"time": 2536, "pitch": 57, "duration": 3, "velocity": 86}, {"time": 2536, "pitch": 61, "duration": 3, "velocity": 102}, {"time": 2536, "pitch": 66, "duration": 3, "velocity": 86}, {"time": 2542, "pitch": 42, "duration": 2, "velocity": 93}, {"time": 2542, "pitch": 54, "duration": 1, "velocity": 44}, {"time": 2542, "pitch": 57, "duration": 3, "velocity": 92}, {"time": 2542, "pitch": 61, "duration": 2, "velocity": 122}, {"time": 2542, "pitch": 66, "duration": 1, "velocity": 61}, {"time": 2548, "pitch": 45, "duration": 4, "velocity": 102}, {"time": 2548, "pitch": 57, "duration": 4, "velocity": 96}, {"time": 2548, "pitch": 61, "duration": 4, "velocity": 122}, {"time": 2548, "pitch": 64, "duration": 4, "velocity": 97}, {"time": 2554, "pitch": 45, "duration": 3, "velocity": 82}, {"time": 2554, "pitch": 57, "duration": 4, "velocity": 92}, {"time": 2554, "pitch": 61, "duration": 3, "velocity": 112}, {"time": 2554, "pitch": 64, "duration": 4, "velocity": 93}, {"time": 2560, "pitch": 45, "duration": 3, "velocity": 92}, {"time": 2560, "pitch": 57, "duration": 3, "velocity": 90}, {"time": 2560, "pitch": 61, "duration": 3, "velocity": 99}, {"time": 2560, "pitch": 64, "duration": 4, "velocity": 90}, {"time": 2566, "pitch": 45, "duration": 3, "velocity": 85}, {"time": 2566, "pitch": 57, "duration": 3, "velocity": 86}, {"time": 2566, "pitch": 61, "duration": 3, "velocity": 107}, {"time": 2566, "pitch": 64, "duration": 3, "velocity": 86}, {"time": 2572, "pitch": 45, "duration": 3, "velocity": 93}, {"time": 2572, "pitch": 57, "duration": 3, "velocity": 90}, {"time": 2572, "pitch": 61, "duration": 3, "velocity": 112}, {"time": 2572, "pitch": 64, "duration": 3, "velocity": 83}, {"time": 2578, "pitch": 45, "duration": 3, "velocity": 93}, {"time": 2578, "pitch": 57, "duration": 4, "velocity": 92}, {"time": 2578, "pitch": 61, "duration": 4, "velocity": 122}, {"time": 2578, "pitch": 64, "duration": 4, "velocity": 90}, {"time": 2584, "pitch": 45, "duration": 3, "velocity": 96}, {"time": 2584, "pitch": 57, "duration": 3, "velocity": 89}, {"time": 2584, "pitch": 61, "duration": 3, "velocity": 107}, {"time": 2584, "pitch": 64, "duration": 3, "velocity": 92}, {"time": 2590, "pitch": 45, "duration": 3, "velocity": 90}, {"time": 2590, "pitch": 57, "duration": 3, "velocity": 86}, {"time": 2590, "pitch": 61, "duration": 3, "velocity": 100}, {"time": 2590, "pitch": 64, "duration": 3, "velocity": 88}, {"time": 2596, "pitch": 45, "duration": 3, "velocity": 82}, {"time": 2596, "pitch": 57, "duration": 3, "velocity": 93}, {"time": 2596, "pitch": 61, "duration": 3, "velocity": 117}, {"time": 2596, "pitch": 64, "duration": 3, "velocity": 92}, {"time": 2602, "pitch": 45, "duration": 3, "velocity": 49}, {"time": 2602, "pitch": 52, "duration": 3, "velocity": 90}, {"time": 2602, "pitch": 57, "duration": 3, "velocity": 88}, {"time": 2602, "pitch": 61, "duration": 3, "velocity": 99}, {"time": 2602, "pitch": 64, "duration": 3, "velocity": 86}, {"time": 2608, "pitch": 45, "duration": 3, "velocity": 89}, {"time": 2608, "pitch": 52, "duration": 3, "velocity": 86}, {"time": 2608, "pitch": 57, "duration": 3, "velocity": 93}, {"time": 2608, "pitch": 61, "duration": 3, "velocity": 107}, {"time": 2608, "pitch": 64, "duration": 3, "velocity": 92}, {"time": 2614, "pitch": 45, "duration": 3, "velocity": 95}, {"time": 2614, "pitch": 52, "duration": 3, "velocity": 86}, {"time": 2614, "pitch": 57, "duration": 3, "velocity": 90}, {"time": 2614, "pitch": 61, "duration": 3, "velocity": 102}, {"time": 2614, "pitch": 64, "duration": 3, "velocity": 82}, {"time": 2620, "pitch": 45, "duration": 2, "velocity": 86}, {"time": 2620, "pitch": 52, "duration": 3, "velocity": 75}, {"time": 2620, "pitch": 57, "duration": 3, "velocity": 90}, {"time": 2620, "pitch": 61, "duration": 3, "velocity": 112}, {"time": 2620, "pitch": 64, "duration": 3, "velocity": 86}, {"time": 2626, "pitch": 45, "duration": 3, "velocity": 97}, {"time": 2626, "pitch": 52, "duration": 3, "velocity": 79}, {"time": 2626, "pitch": 57, "duration": 3, "velocity": 88}, {"time": 2626, "pitch": 61, "duration": 3, "velocity": 107}, {"time": 2626, "pitch": 64, "duration": 3, "velocity": 88}, {"time": 2632, "pitch": 45, "duration": 3, "velocity": 95}, {"time": 2632, "pitch": 52, "duration": 3, "velocity": 76}, {"time": 2632, "pitch": 57, "duration": 3, "velocity": 90}, {"time": 2632, "pitch": 61, "duration": 3, "velocity": 122}, {"time": 2632, "pitch": 64, "duration": 3, "velocity": 89}, {"time": 2638, "pitch": 45, "duration": 1, "velocity": 100}, {"time": 2638, "pitch": 52, "duration": 1, "velocity": 77}, {"time": 2638, "pitch": 57, "duration": 2, "velocity": 77}, {"time": 2638, "pitch": 61, "duration": 1, "velocity": 99}, {"time": 2638, "pitch": 64, "duration": 1, "velocity": 69}, {"time": 2644, "pitch": 40, "duration": 4, "velocity": 73}, {"time": 2644, "pitch": 52, "duration": 4, "velocity": 97}, {"time": 2644, "pitch": 59, "duration": 4, "velocity": 100}, {"time": 2644, "pitch": 64, "duration": 4, "velocity": 100}, {"time": 2644, "pitch": 68, "duration": 3, "velocity": 102}, {"time": 2650, "pitch": 40, "duration": 3, "velocity": 72}, {"time": 2650, "pitch": 52, "duration": 3, "velocity": 85}, {"time": 2650, "pitch": 59, "duration": 3, "velocity": 89}, {"time": 2650, "pitch": 64, "duration": 3, "velocity": 93}, {"time": 2650, "pitch": 68, "duration": 3, "velocity": 93}, {"time": 2656, "pitch": 40, "duration": 3, "velocity": 82}, {"time": 2656, "pitch": 52, "duration": 3, "velocity": 95}, {"time": 2656, "pitch": 59, "duration": 3, "velocity": 95}, {"time": 2656, "pitch": 64, "duration": 3, "velocity": 96}, {"time": 2656, "pitch": 68, "duration": 3, "velocity": 102}, {"time": 2662, "pitch": 40, "duration": 3, "velocity": 68}, {"time": 2662, "pitch": 52, "duration": 3, "velocity": 89}, {"time": 2662, "pitch": 59, "duration": 3, "velocity": 92}, {"time": 2662, "pitch": 64, "duration": 3, "velocity": 89}, {"time": 2662, "pitch": 68, "duration": 3, "velocity": 88}, {"time": 2668, "pitch": 40, "duration": 3, "velocity": 81}, {"time": 2668, "pitch": 52, "duration": 3, "velocity": 86}, {"time": 2668, "pitch": 59, "duration": 3, "velocity": 97}, {"time": 2668, "pitch": 64, "duration": 3, "velocity": 97}, {"time": 2668, "pitch": 68, "duration": 3, "velocity": 102}, {"time": 2674, "pitch": 40, "duration": 3, "velocity": 82}, {"time": 2674, "pitch": 52, "duration": 3, "velocity": 89}, {"time": 2674, "pitch": 59, "duration": 3, "velocity": 92}, {"time": 2674, "pitch": 64, "duration": 4, "velocity": 96}, {"time": 2674, "pitch": 68, "duration": 3, "velocity": 97}, {"time": 2680, "pitch": 40, "duration": 2, "velocity": 83}, {"time": 2680, "pitch": 52, "duration": 2, "velocity": 95}, {"time": 2680, "pitch": 59, "duration": 3, "velocity": 97}, {"time": 2680, "pitch": 64, "duration": 3, "velocity": 107}, {"time": 2680, "pitch": 68, "duration": 3, "velocity": 102}, {"time": 2686, "pitch": 40, "duration": 5, "velocity": 86}, {"time": 2686, "pitch": 52, "duration": 5, "velocity": 97}, {"time": 2686, "pitch": 59, "duration": 5, "velocity": 100}, {"time": 2686, "pitch": 64, "duration": 5, "velocity": 99}, {"time": 2686, "pitch": 68, "duration": 5, "velocity": 102}, {"time": 2692, "pitch": 40, "duration": 4, "velocity": 73}, {"time": 2692, "pitch": 52, "duration": 3, "velocity": 90}, {"time": 2692, "pitch": 59, "duration": 4, "velocity": 96}, {"time": 2692, "pitch": 64, "duration": 4, "velocity": 99}, {"time": 2692, "pitch": 68, "duration": 4, "velocity": 96}, {"time": 2698, "pitch": 40, "duration": 4, "velocity": 70}, {"time": 2698, "pitch": 52, "duration": 3, "velocity": 89}, {"time": 2698, "pitch": 59, "duration": 4, "velocity": 95}, {"time": 2698, "pitch": 64, "duration": 4, "velocity": 96}, {"time": 2698, "pitch": 68, "duration": 3, "velocity": 97}, {"time": 2704, "pitch": 40, "duration": 3, "velocity": 77}, {"time": 2704, "pitch": 52, "duration": 3, "velocity": 95}, {"time": 2704, "pitch": 59, "duration": 3, "velocity": 95}, {"time": 2704, "pitch": 64, "duration": 3, "velocity": 96}, {"time": 2704, "pitch": 68, "duration": 3, "velocity": 99}, {"time": 2710, "pitch": 40, "duration": 3, "velocity": 74}, {"time": 2710, "pitch": 52, "duration": 3, "velocity": 95}, {"time": 2710, "pitch": 59, "duration": 4, "velocity": 93}, {"time": 2710, "pitch": 64, "duration": 4, "velocity": 96}, {"time": 2710, "pitch": 68, "duration": 3, "velocity": 99}, {"time": 2716, "pitch": 40, "duration": 3, "velocity": 79}, {"time": 2716, "pitch": 52, "duration": 3, "velocity": 99}, {"time": 2716, "pitch": 59, "duration": 4, "velocity": 93}, {"time": 2716, "pitch": 64, "duration": 4, "velocity": 99}, {"time": 2716, "pitch": 68, "duration": 4, "velocity": 95}, {"time": 2722, "pitch": 40, "duration": 3, "velocity": 78}, {"time": 2722, "pitch": 52, "duration": 3, "velocity": 97}, {"time": 2722, "pitch": 59, "duration": 4, "velocity": 96}, {"time": 2722, "pitch": 64, "duration": 4, "velocity": 95}, {"time": 2722, "pitch": 68, "duration": 4, "velocity": 95}, {"time": 2728, "pitch": 40, "duration": 4, "velocity": 82}, {"time": 2728, "pitch": 52, "duration": 4, "velocity": 99}, {"time": 2728, "pitch": 59, "duration": 5, "velocity": 102}, {"time": 2728, "pitch": 64, "duration": 5, "velocity": 99}, {"time": 2728, "pitch": 68, "duration": 5, "velocity": 102}, {"time": 2734, "pitch": 40, "duration": 6, "velocity": 83}, {"time": 2734, "pitch": 52, "duration": 6, "velocity": 99}, {"time": 2734, "pitch": 59, "duration": 5, "velocity": 100}, {"time": 2734, "pitch": 64, "duration": 5, "velocity": 102}, {"time": 2734, "pitch": 68, "duration": 6, "velocity": 117}, {"time": 2740, "pitch": 42, "duration": 39, "velocity": 107}, {"time": 2746, "pitch": 49, "duration": 33, "velocity": 69}, {"time": 2752, "pitch": 57, "duration": 6, "velocity": 117}, {"time": 2752, "pitch": 61, "duration": 6, "velocity": 127}, {"time": 2752, "pitch": 66, "duration": 6, "velocity": 100}, {"time": 2758, "pitch": 54, "duration": 10, "velocity": 96}, {"time": 2761, "pitch": 57, "duration": 4, "velocity": 100}, {"time": 2761, "pitch": 61, "duration": 4, "velocity": 127}, {"time": 2761, "pitch": 66, "duration": 4, "velocity": 112}, {"time": 2767, "pitch": 57, "duration": 6, "velocity": 86}, {"time": 2767, "pitch": 61, "duration": 6, "velocity": 107}, {"time": 2767, "pitch": 66, "duration": 6, "velocity": 97}, {"time": 2773, "pitch": 54, "duration": 4, "velocity": 93}, {"time": 2776, "pitch": 61, "duration": 6, "velocity": 127}, {"time": 2776, "pitch": 66, "duration": 13, "velocity": 127}, {"time": 2779, "pitch": 54, "duration": 2, "velocity": 112}, {"time": 2782, "pitch": 57, "duration": 5, "velocity": 122}, {"time": 2785, "pitch": 61, "duration": 3, "velocity": 127}, {"time": 2788, "pitch": 47, "duration": 39, "velocity": 97}, {"time": 2794, "pitch": 54, "duration": 8, "velocity": 99}, {"time": 2800, "pitch": 59, "duration": 6, "velocity": 100}, {"time": 2800, "pitch": 63, "duration": 7, "velocity": 127}, {"time": 2800, "pitch": 66, "duration": 6, "velocity": 122}, {"time": 2806, "pitch": 54, "duration": 12, "velocity": 102}, {"time": 2809, "pitch": 59, "duration": 4, "velocity": 97}, {"time": 2809, "pitch": 63, "duration": 4, "velocity": 117}, {"time": 2809, "pitch": 66, "duration": 4, "velocity": 117}, {"time": 2815, "pitch": 59, "duration": 5, "velocity": 93}, {"time": 2815, "pitch": 63, "duration": 5, "velocity": 127}, {"time": 2815, "pitch": 66, "duration": 6, "velocity": 112}, {"time": 2821, "pitch": 54, "duration": 4, "velocity": 82}, {"time": 2824, "pitch": 63, "duration": 3, "velocity": 127}, {"time": 2824, "pitch": 66, "duration": 3, "velocity": 122}, {"time": 2830, "pitch": 59, "duration": 1, "velocity": 92}, {"time": 2830, "pitch": 63, "duration": 1, "velocity": 122}, {"time": 2830, "pitch": 66, "duration": 1, "velocity": 112}, {"time": 2833, "pitch": 59, "duration": 8, "velocity": 85}, {"time": 2833, "pitch": 63, "duration": 8, "velocity": 127}, {"time": 2833, "pitch": 66, "duration": 5, "velocity": 122}, {"time": 2836, "pitch": 40, "duration": 44, "velocity": 82}, {"time": 2842, "pitch": 47, "duration": 42, "velocity": 60}, {"time": 2848, "pitch": 59, "duration": 6, "velocity": 107}, {"time": 2848, "pitch": 64, "duration": 7, "velocity": 107}, {"time": 2848, "pitch": 68, "duration": 7, "velocity": 107}, {"time": 2854, "pitch": 52, "duration": 11, "velocity": 90}, {"time": 2857, "pitch": 59, "duration": 4, "velocity": 102}, {"time": 2857, "pitch": 64, "duration": 5, "velocity": 96}, {"time": 2857, "pitch": 68, "duration": 4, "velocity": 102}, {"time": 2863, "pitch": 59, "duration": 7, "velocity": 92}, {"time": 2863, "pitch": 64, "duration": 7, "velocity": 93}, {"time": 2863, "pitch": 68, "duration": 7, "velocity": 95}, {"time": 2869, "pitch": 52, "duration": 4, "velocity": 90}, {"time": 2872, "pitch": 64, "duration": 5, "velocity": 102}, {"time": 2872, "pitch": 68, "duration": 21, "velocity": 112}, {"time": 2875, "pitch": 52, "duration": 4, "velocity": 102}, {"time": 2878, "pitch": 59, "duration": 15, "velocity": 112}, {"time": 2881, "pitch": 64, "duration": 12, "velocity": 100}, {"time": 2884, "pitch": 40, "duration": 16, "velocity": 117}, {"time": 2890, "pitch": 47, "duration": 24, "velocity": 97}, {"time": 2896, "pitch": 59, "duration": 7, "velocity": 97}, {"time": 2896, "pitch": 64, "duration": 6, "velocity": 112}, {"time": 2896, "pitch": 68, "duration": 7, "velocity": 117}, {"time": 2902, "pitch": 52, "duration": 3, "velocity": 107}, {"time": 2905, "pitch": 40, "duration": 8, "velocity": 92}, {"time": 2905, "pitch": 52, "duration": 8, "velocity": 78}, {"time": 2905, "pitch": 59, "duration": 4, "velocity": 107}, {"time": 2905, "pitch": 64, "duration": 4, "velocity": 107}, {"time": 2905, "pitch": 68, "duration": 4, "velocity": 122}, {"time": 2911, "pitch": 59, "duration": 6, "velocity": 107}, {"time": 2911, "pitch": 64, "duration": 6, "velocity": 99}, {"time": 2911, "pitch": 68, "duration": 6, "velocity": 112}, {"time": 2917, "pitch": 40, "duration": 4, "velocity": 81}, {"time": 2917, "pitch": 47, "duration": 4, "velocity": 95}, {"time": 2917, "pitch": 52, "duration": 4, "velocity": 102}, {"time": 2920, "pitch": 59, "duration": 3, "velocity": 86}, {"time": 2920, "pitch": 64, "duration": 4, "velocity": 99}, {"time": 2920, "pitch": 68, "duration": 4, "velocity": 117}, {"time": 2923, "pitch": 40, "duration": 1, "velocity": 47}, {"time": 2923, "pitch": 47, "duration": 2, "velocity": 59}, {"time": 2923, "pitch": 52, "duration": 3, "velocity": 112}, {"time": 2926, "pitch": 64, "duration": 4, "velocity": 107}, {"time": 2926, "pitch": 68, "duration": 4, "velocity": 117}, {"time": 2929, "pitch": 59, "duration": 3, "velocity": 102}, {"time": 2932, "pitch": 42, "duration": 3, "velocity": 107}, {"time": 2938, "pitch": 42, "duration": 25, "velocity": 58}, {"time": 2938, "pitch": 49, "duration": 25, "velocity": 54}, {"time": 2938, "pitch": 54, "duration": 9, "velocity": 100}, {"time": 2944, "pitch": 57, "duration": 7, "velocity": 99}, {"time": 2944, "pitch": 61, "duration": 6, "velocity": 122}, {"time": 2944, "pitch": 66, "duration": 6, "velocity": 107}, {"time": 2950, "pitch": 54, "duration": 12, "velocity": 112}, {"time": 2953, "pitch": 57, "duration": 4, "velocity": 96}, {"time": 2953, "pitch": 61, "duration": 4, "velocity": 127}, {"time": 2953, "pitch": 66, "duration": 4, "velocity": 107}, {"time": 2959, "pitch": 57, "duration": 6, "velocity": 86}, {"time": 2959, "pitch": 61, "duration": 6, "velocity": 127}, {"time": 2959, "pitch": 66, "duration": 6, "velocity": 107}, {"time": 2965, "pitch": 42, "duration": 8, "velocity": 77}, {"time": 2965, "pitch": 49, "duration": 8, "velocity": 60}, {"time": 2965, "pitch": 54, "duration": 4, "velocity": 85}, {"time": 2968, "pitch": 61, "duration": 2, "velocity": 127}, {"time": 2968, "pitch": 66, "duration": 3, "velocity": 112}, {"time": 2971, "pitch": 54, "duration": 3, "velocity": 102}, {"time": 2974, "pitch": 61, "duration": 4, "velocity": 122}, {"time": 2974, "pitch": 66, "duration": 4, "velocity": 117}, {"time": 2977, "pitch": 57, "duration": 6, "velocity": 112}, {"time": 2980, "pitch": 45, "duration": 21, "velocity": 95}, {"time": 2986, "pitch": 52, "duration": 8, "velocity": 92}, {"time": 2992, "pitch": 60, "duration": 4, "velocity": 112}, {"time": 2992, "pitch": 64, "duration": 4, "velocity": 102}, {"time": 2995, "pitch": 52, "duration": 7, "velocity": 72}, {"time": 2998, "pitch": 60, "duration": 5, "velocity": 97}, {"time": 2998, "pitch": 64, "duration": 5, "velocity": 95}, {"time": 3001, "pitch": 57, "duration": 3, "velocity": 99}, {"time": 3004, "pitch": 50, "duration": 13, "velocity": 107}, {"time": 3010, "pitch": 57, "duration": 7, "velocity": 93}, {"time": 3016, "pitch": 62, "duration": 4, "velocity": 127}, {"time": 3016, "pitch": 66, "duration": 4, "velocity": 117}, {"time": 3019, "pitch": 50, "duration": 8, "velocity": 97}, {"time": 3022, "pitch": 57, "duration": 4, "velocity": 102}, {"time": 3022, "pitch": 62, "duration": 5, "velocity": 97}, {"time": 3022, "pitch": 66, "duration": 5, "velocity": 102}, {"time": 3025, "pitch": 47, "duration": 1, "velocity": 27}, {"time": 3028, "pitch": 40, "duration": 19, "velocity": 112}, {"time": 3034, "pitch": 47, "duration": 14, "velocity": 63}, {"time": 3034, "pitch": 52, "duration": 14, "velocity": 82}, {"time": 3040, "pitch": 59, "duration": 5, "velocity": 92}, {"time": 3040, "pitch": 64, "duration": 5, "velocity": 100}, {"time": 3040, "pitch": 68, "duration": 5, "velocity": 112}, {"time": 3046, "pitch": 59, "duration": 15, "velocity": 83}, {"time": 3046, "pitch": 64, "duration": 14, "velocity": 100}, {"time": 3046, "pitch": 68, "duration": 14, "velocity": 99}, {"time": 3049, "pitch": 40, "duration": 24, "velocity": 97}, {"time": 3055, "pitch": 47, "duration": 20, "velocity": 92}, {"time": 3055, "pitch": 52, "duration": 4, "velocity": 97}, {"time": 3061, "pitch": 52, "duration": 3, "velocity": 88}, {"time": 3064, "pitch": 59, "duration": 3, "velocity": 89}, {"time": 3064, "pitch": 64, "duration": 3, "velocity": 117}, {"time": 3064, "pitch": 68, "duration": 3, "velocity": 112}, {"time": 3067, "pitch": 52, "duration": 8, "velocity": 100}, {"time": 3070, "pitch": 59, "duration": 1, "velocity": 86}, {"time": 3070, "pitch": 64, "duration": 1, "velocity": 99}, {"time": 3070, "pitch": 68, "duration": 1, "velocity": 96}, {"time": 3073, "pitch": 59, "duration": 11, "velocity": 77}, {"time": 3073, "pitch": 64, "duration": 10, "velocity": 95}, {"time": 3073, "pitch": 68, "duration": 11, "velocity": 93}, {"time": 3076, "pitch": 40, "duration": 19, "velocity": 99}, {"time": 3082, "pitch": 47, "duration": 14, "velocity": 69}, {"time": 3082, "pitch": 52, "duration": 9, "velocity": 90}, {"time": 3088, "pitch": 59, "duration": 1, "velocity": 49}, {"time": 3088, "pitch": 64, "duration": 7, "velocity": 99}, {"time": 3088, "pitch": 68, "duration": 7, "velocity": 99}, {"time": 3094, "pitch": 52, "duration": 1, "velocity": 96}, {"time": 3097, "pitch": 40, "duration": 11, "velocity": 93}, {"time": 3097, "pitch": 47, "duration": 11, "velocity": 100}, {"time": 3097, "pitch": 52, "duration": 10, "velocity": 117}, {"time": 3097, "pitch": 64, "duration": 4, "velocity": 79}, {"time": 3097, "pitch": 68, "duration": 4, "velocity": 78}, {"time": 3103, "pitch": 59, "duration": 6, "velocity": 96}, {"time": 3103, "pitch": 64, "duration": 6, "velocity": 100}, {"time": 3103, "pitch": 68, "duration": 6, "velocity": 97}, {"time": 3109, "pitch": 40, "duration": 3, "velocity": 65}, {"time": 3109, "pitch": 47, "duration": 3, "velocity": 82}, {"time": 3109, "pitch": 52, "duration": 3, "velocity": 100}, {"time": 3112, "pitch": 59, "duration": 2, "velocity": 92}, {"time": 3112, "pitch": 64, "duration": 3, "velocity": 117}, {"time": 3112, "pitch": 68, "duration": 3, "velocity": 102}, {"time": 3115, "pitch": 40, "duration": 8, "velocity": 66}, {"time": 3115, "pitch": 47, "duration": 7, "velocity": 92}, {"time": 3115, "pitch": 52, "duration": 7, "velocity": 102}, {"time": 3118, "pitch": 59, "duration": 1, "velocity": 88}, {"time": 3118, "pitch": 64, "duration": 1, "velocity": 102}, {"time": 3118, "pitch": 68, "duration": 1, "velocity": 97}, {"time": 3121, "pitch": 59, "duration": 3, "velocity": 93}, {"time": 3121, "pitch": 64, "duration": 3, "velocity": 112}, {"time": 3121, "pitch": 68, "duration": 3, "velocity": 127}, {"time": 3124, "pitch": 42, "duration": 39, "velocity": 107}, {"time": 3130, "pitch": 49, "duration": 33, "velocity": 69}, {"time": 3136, "pitch": 57, "duration": 6, "velocity": 117}, {"time": 3136, "pitch": 61, "duration": 6, "velocity": 127}, {"time": 3136, "pitch": 66, "duration": 6, "velocity": 100}, {"time": 3142, "pitch": 54, "duration": 10, "velocity": 96}, {"time": 3145, "pitch": 57, "duration": 4, "velocity": 100}, {"time": 3145, "pitch": 61, "duration": 4, "velocity": 127}, {"time": 3145, "pitch": 66, "duration": 4, "velocity": 112}, {"time": 3151, "pitch": 57, "duration": 6, "velocity": 86}, {"time": 3151, "pitch": 61, "duration": 6, "velocity": 107}, {"time": 3151, "pitch": 66, "duration": 6, "velocity": 97}, {"time": 3157, "pitch": 54, "duration": 4, "velocity": 93}, {"time": 3160, "pitch": 61, "duration": 6, "velocity": 127}, {"time": 3160, "pitch": 66, "duration": 13, "velocity": 127}, {"time": 3163, "pitch": 54, "duration": 2, "velocity": 112}, {"time": 3166, "pitch": 57, "duration": 5, "velocity": 122}, {"time": 3169, "pitch": 61, "duration": 3, "velocity": 127}, {"time": 3172, "pitch": 47, "duration": 39, "velocity": 97}, {"time": 3178, "pitch": 54, "duration": 8, "velocity": 99}, {"time": 3184, "pitch": 59, "duration": 6, "velocity": 100}, {"time": 3184, "pitch": 63, "duration": 7, "velocity": 127}, {"time": 3184, "pitch": 66, "duration": 6, "velocity": 122}, {"time": 3190, "pitch": 54, "duration": 12, "velocity": 102}, {"time": 3193, "pitch": 59, "duration": 4, "velocity": 97}, {"time": 3193, "pitch": 63, "duration": 4, "velocity": 117}, {"time": 3193, "pitch": 66, "duration": 4, "velocity": 117}, {"time": 3199, "pitch": 59, "duration": 5, "velocity": 93}, {"time": 3199, "pitch": 63, "duration": 5, "velocity": 127}, {"time": 3199, "pitch": 66, "duration": 6, "velocity": 112}, {"time": 3205, "pitch": 54, "duration": 4, "velocity": 82}, {"time": 3208, "pitch": 63, "duration": 3, "velocity": 127}, {"time": 3208, "pitch": 66, "duration": 3, "velocity": 122}, {"time": 3214, "pitch": 59, "duration": 1, "velocity": 92}, {"time": 3214, "pitch": 63, "duration": 1, "velocity": 122}, {"time": 3214, "pitch": 66, "duration": 1, "velocity": 112}, {"time": 3217, "pitch": 59, "duration": 8, "velocity": 85}, {"time": 3217, "pitch": 63, "duration": 8, "velocity": 127}, {"time": 3217, "pitch": 66, "duration": 5, "velocity": 122}, {"time": 3220, "pitch": 40, "duration": 44, "velocity": 82}, {"time": 3226, "pitch": 47, "duration": 42, "velocity": 60}, {"time": 3232, "pitch": 59, "duration": 6, "velocity": 107}, {"time": 3232, "pitch": 64, "duration": 7, "velocity": 107}, {"time": 3232, "pitch": 68, "duration": 7, "velocity": 107}, {"time": 3238, "pitch": 52, "duration": 11, "velocity": 90}, {"time": 3241, "pitch": 59, "duration": 4, "velocity": 102}, {"time": 3241, "pitch": 64, "duration": 5, "velocity": 96}, {"time": 3241, "pitch": 68, "duration": 4, "velocity": 102}, {"time": 3247, "pitch": 59, "duration": 7, "velocity": 92}, {"time": 3247, "pitch": 64, "duration": 7, "velocity": 93}, {"time": 3247, "pitch": 68, "duration": 7, "velocity": 95}, {"time": 3253, "pitch": 52, "duration": 4, "velocity": 90}, {"time": 3256, "pitch": 64, "duration": 5, "velocity": 102}, {"time": 3256, "pitch": 68, "duration": 21, "velocity": 112}, {"time": 3259, "pitch": 52, "duration": 4, "velocity": 102}, {"time": 3262, "pitch": 59, "duration": 15, "velocity": 112}, {"time": 3265, "pitch": 64, "duration": 12, "velocity": 100}, {"time": 3268, "pitch": 40, "duration": 16, "velocity": 117}, {"time": 3274, "pitch": 47, "duration": 24, "velocity": 97}, {"time": 3280, "pitch": 59, "duration": 7, "velocity": 97}, {"time": 3280, "pitch": 64, "duration": 6, "velocity": 112}, {"time": 3280, "pitch": 68, "duration": 7, "velocity": 117}, {"time": 3286, "pitch": 52, "duration": 3, "velocity": 107}, {"time": 3289, "pitch": 40, "duration": 8, "velocity": 92}, {"time": 3289, "pitch": 52, "duration": 8, "velocity": 78}, {"time": 3289, "pitch": 59, "duration": 4, "velocity": 107}, {"time": 3289, "pitch": 64, "duration": 4, "velocity": 107}, {"time": 3289, "pitch": 68, "duration": 4, "velocity": 122}, {"time": 3295, "pitch": 59, "duration": 6, "velocity": 107}, {"time": 3295, "pitch": 64, "duration": 6, "velocity": 99}, {"time": 3295, "pitch": 68, "duration": 6, "velocity": 112}, {"time": 3301, "pitch": 40, "duration": 4, "velocity": 81}, {"time": 3301, "pitch": 47, "duration": 4, "velocity": 95}, {"time": 3301, "pitch": 52, "duration": 4, "velocity": 102}, {"time": 3304, "pitch": 59, "duration": 3, "velocity": 86}, {"time": 3304, "pitch": 64, "duration": 4, "velocity": 99}, {"time": 3304, "pitch": 68, "duration": 4, "velocity": 117}, {"time": 3307, "pitch": 40, "duration": 1, "velocity": 47}, {"time": 3307, "pitch": 47, "duration": 2, "velocity": 59}, {"time": 3307, "pitch": 52, "duration": 3, "velocity": 112}, {"time": 3310, "pitch": 64, "duration": 4, "velocity": 107}, {"time": 3310, "pitch": 68, "duration": 4, "velocity": 117}, {"time": 3313, "pitch": 59, "duration": 3, "velocity": 102}, {"time": 3316, "pitch": 42, "duration": 3, "velocity": 107}, {"time": 3322, "pitch": 42, "duration": 25, "velocity": 58}, {"time": 3322, "pitch": 49, "duration": 25, "velocity": 54}, {"time": 3322, "pitch": 54, "duration": 9, "velocity": 100}, {"time": 3328, "pitch": 57, "duration": 7, "velocity": 99}, {"time": 3328, "pitch": 61, "duration": 6, "velocity": 122}, {"time": 3328, "pitch": 66, "duration": 6, "velocity": 107}, {"time": 3334, "pitch": 54, "duration": 12, "velocity": 112}, {"time": 3337, "pitch": 57, "duration": 4, "velocity": 96}, {"time": 3337, "pitch": 61, "duration": 4, "velocity": 127}, {"time": 3337, "pitch": 66, "duration": 4, "velocity": 107}, {"time": 3343, "pitch": 57, "duration": 6, "velocity": 86}, {"time": 3343, "pitch": 61, "duration": 6, "velocity": 127}, {"time": 3343, "pitch": 66, "duration": 6, "velocity": 107}, {"time": 3349, "pitch": 42, "duration": 8, "velocity": 77}, {"time": 3349, "pitch": 49, "duration": 8, "velocity": 60}, {"time": 3349, "pitch": 54, "duration": 4, "velocity": 85}, {"time": 3352, "pitch": 61, "duration": 2, "velocity": 127}, {"time": 3352, "pitch": 66, "duration": 3, "velocity": 112}, {"time": 3355, "pitch": 54, "duration": 3, "velocity": 102}, {"time": 3358, "pitch": 61, "duration": 4, "velocity": 122}, {"time": 3358, "pitch": 66, "duration": 4, "velocity": 117}, {"time": 3361, "pitch": 57, "duration": 6, "velocity": 112}, {"time": 3364, "pitch": 45, "duration": 21, "velocity": 95}, {"time": 3370, "pitch": 52, "duration": 8, "velocity": 92}, {"time": 3376, "pitch": 60, "duration": 4, "velocity": 112}, {"time": 3376, "pitch": 64, "duration": 4, "velocity": 102}, {"time": 3379, "pitch": 52, "duration": 7, "velocity": 72}, {"time": 3382, "pitch": 60, "duration": 5, "velocity": 97}, {"time": 3382, "pitch": 64, "duration": 5, "velocity": 95}, {"time": 3385, "pitch": 57, "duration": 3, "velocity": 99}, {"time": 3388, "pitch": 50, "duration": 13, "velocity": 107}, {"time": 3394, "pitch": 57, "duration": 7, "velocity": 93}, {"time": 3400, "pitch": 62, "duration": 4, "velocity": 127}, {"time": 3400, "pitch": 66, "duration": 4, "velocity": 117}, {"time": 3403, "pitch": 50, "duration": 8, "velocity": 97}, {"time": 3406, "pitch": 57, "duration": 4, "velocity": 102}, {"time": 3406, "pitch": 62, "duration": 5, "velocity": 97}, {"time": 3406, "pitch": 66, "duration": 5, "velocity": 102}, {"time": 3412, "pitch": 40, "duration": 45, "velocity": 117}, {"time": 3418, "pitch": 47, "duration": 39, "velocity": 68}, {"time": 3418, "pitch": 52, "duration": 9, "velocity": 88}, {"time": 3424, "pitch": 59, "duration": 6, "velocity": 93}, {"time": 3424, "pitch": 64, "duration": 6, "velocity": 102}, {"time": 3424, "pitch": 68, "duration": 6, "velocity": 100}, {"time": 3430, "pitch": 52, "duration": 11, "velocity": 89}, {"time": 3433, "pitch": 59, "duration": 5, "velocity": 88}, {"time": 3433, "pitch": 64, "duration": 4, "velocity": 97}, {"time": 3433, "pitch": 68, "duration": 4, "velocity": 95}, {"time": 3439, "pitch": 59, "duration": 6, "velocity": 85}, {"time": 3439, "pitch": 64, "duration": 6, "velocity": 97}, {"time": 3439, "pitch": 68, "duration": 6, "velocity": 96}, {"time": 3445, "pitch": 52, "duration": 4, "velocity": 78}, {"time": 3448, "pitch": 59, "duration": 3, "velocity": 83}, {"time": 3448, "pitch": 64, "duration": 3, "velocity": 100}, {"time": 3448, "pitch": 68, "duration": 3, "velocity": 96}, {"time": 3451, "pitch": 52, "duration": 7, "velocity": 93}, {"time": 3454, "pitch": 59, "duration": 2, "velocity": 83}, {"time": 3454, "pitch": 64, "duration": 1, "velocity": 100}, {"time": 3454, "pitch": 68, "duration": 1, "velocity": 97}, {"time": 3457, "pitch": 59, "duration": 2, "velocity": 89}, {"time": 3457, "pitch": 64, "duration": 2, "velocity": 100}, {"time": 3457, "pitch": 68, "duration": 2, "velocity": 107}, {"time": 3460, "pitch": 42, "duration": 39, "velocity": 102}, {"time": 3466, "pitch": 49, "duration": 8, "velocity": 57}, {"time": 3466, "pitch": 54, "duration": 8, "velocity": 99}, {"time": 3472, "pitch": 57, "duration": 6, "velocity": 102}, {"time": 3472, "pitch": 61, "duration": 7, "velocity": 122}, {"time": 3472, "pitch": 66, "duration": 6, "velocity": 96}, {"time": 3478, "pitch": 49, "duration": 12, "velocity": 52}, {"time": 3478, "pitch": 54, "duration": 11, "velocity": 99}, {"time": 3481, "pitch": 57, "duration": 5, "velocity": 88}, {"time": 3481, "pitch": 61, "duration": 5, "velocity": 112}, {"time": 3481, "pitch": 66, "duration": 5, "velocity": 100}, {"time": 3487, "pitch": 57, "duration": 5, "velocity": 85}, {"time": 3487, "pitch": 61, "duration": 5, "velocity": 100}, {"time": 3487, "pitch": 66, "duration": 5, "velocity": 96}, {"time": 3493, "pitch": 49, "duration": 6, "velocity": 55}, {"time": 3493, "pitch": 54, "duration": 4, "velocity": 92}, {"time": 3496, "pitch": 61, "duration": 3, "velocity": 122}, {"time": 3496, "pitch": 66, "duration": 3, "velocity": 107}, {"time": 3499, "pitch": 54, "duration": 3, "velocity": 92}, {"time": 3502, "pitch": 61, "duration": 4, "velocity": 127}, {"time": 3502, "pitch": 66, "duration": 4, "velocity": 117}, {"time": 3505, "pitch": 57, "duration": 2, "velocity": 112}, {"time": 3508, "pitch": 47, "duration": 41, "velocity": 85}, {"time": 3514, "pitch": 54, "duration": 9, "velocity": 92}, {"time": 3520, "pitch": 59, "duration": 7, "velocity": 97}, {"time": 3520, "pitch": 63, "duration": 7, "velocity": 127}, {"time": 3520, "pitch": 66, "duration": 6, "velocity": 112}, {"time": 3526, "pitch": 54, "duration": 12, "velocity": 99}, {"time": 3529, "pitch": 59, "duration": 4, "velocity": 89}, {"time": 3529, "pitch": 63, "duration": 4, "velocity": 107}, {"time": 3529, "pitch": 66, "duration": 4, "velocity": 102}, {"time": 3535, "pitch": 59, "duration": 6, "velocity": 83}, {"time": 3535, "pitch": 63, "duration": 6, "velocity": 102}, {"time": 3535, "pitch": 66, "duration": 6, "velocity": 97}, {"time": 3541, "pitch": 54, "duration": 3, "velocity": 100}, {"time": 3544, "pitch": 59, "duration": 3, "velocity": 81}, {"time": 3544, "pitch": 63, "duration": 3, "velocity": 117}, {"time": 3544, "pitch": 66, "duration": 3, "velocity": 102}, {"time": 3547, "pitch": 54, "duration": 1, "velocity": 107}, {"time": 3550, "pitch": 59, "duration": 1, "velocity": 77}, {"time": 3550, "pitch": 63, "duration": 1, "velocity": 127}, {"time": 3550, "pitch": 66, "duration": 1, "velocity": 117}, {"time": 3553, "pitch": 59, "duration": 5, "velocity": 83}, {"time": 3553, "pitch": 63, "duration": 4, "velocity": 107}, {"time": 3553, "pitch": 66, "duration": 4, "velocity": 99}, {"time": 3556, "pitch": 40, "duration": 45, "velocity": 97}, {"time": 3562, "pitch": 47, "duration": 42, "velocity": 65}, {"time": 3562, "pitch": 52, "duration": 8, "velocity": 79}, {"time": 3568, "pitch": 59, "duration": 6, "velocity": 93}, {"time": 3568, "pitch": 64, "duration": 7, "velocity": 97}, {"time": 3568, "pitch": 68, "duration": 7, "velocity": 97}, {"time": 3574, "pitch": 52, "duration": 11, "velocity": 93}, {"time": 3577, "pitch": 59, "duration": 4, "velocity": 92}, {"time": 3577, "pitch": 64, "duration": 4, "velocity": 96}, {"time": 3577, "pitch": 68, "duration": 4, "velocity": 99}, {"time": 3583, "pitch": 59, "duration": 6, "velocity": 92}, {"time": 3583, "pitch": 64, "duration": 6, "velocity": 92}, {"time": 3583, "pitch": 68, "duration": 6, "velocity": 88}, {"time": 3589, "pitch": 52, "duration": 4, "velocity": 79}, {"time": 3592, "pitch": 59, "duration": 3, "velocity": 89}, {"time": 3592, "pitch": 64, "duration": 3, "velocity": 97}, {"time": 3592, "pitch": 68, "duration": 3, "velocity": 99}, {"time": 3595, "pitch": 52, "duration": 23, "velocity": 96}, {"time": 3598, "pitch": 59, "duration": 1, "velocity": 88}, {"time": 3598, "pitch": 64, "duration": 1, "velocity": 100}, {"time": 3598, "pitch": 68, "duration": 1, "velocity": 100}, {"time": 3601, "pitch": 59, "duration": 10, "velocity": 82}, {"time": 3601, "pitch": 64, "duration": 9, "velocity": 96}, {"time": 3601, "pitch": 68, "duration": 9, "velocity": 96}, {"time": 3604, "pitch": 40, "duration": 29, "velocity": 97}, {"time": 3610, "pitch": 47, "duration": 25, "velocity": 70}, {"time": 3616, "pitch": 59, "duration": 7, "velocity": 96}, {"time": 3616, "pitch": 64, "duration": 7, "velocity": 107}, {"time": 3616, "pitch": 68, "duration": 7, "velocity": 107}, {"time": 3622, "pitch": 52, "duration": 12, "velocity": 97}, {"time": 3625, "pitch": 59, "duration": 4, "velocity": 92}, {"time": 3625, "pitch": 64, "duration": 4, "velocity": 96}, {"time": 3625, "pitch": 68, "duration": 4, "velocity": 100}, {"time": 3631, "pitch": 59, "duration": 6, "velocity": 83}, {"time": 3631, "pitch": 64, "duration": 5, "velocity": 92}, {"time": 3631, "pitch": 68, "duration": 6, "velocity": 95}, {"time": 3637, "pitch": 40, "duration": 5, "velocity": 82}, {"time": 3637, "pitch": 47, "duration": 5, "velocity": 72}, {"time": 3637, "pitch": 52, "duration": 5, "velocity": 86}, {"time": 3640, "pitch": 59, "duration": 3, "velocity": 93}, {"time": 3640, "pitch": 64, "duration": 4, "velocity": 99}, {"time": 3640, "pitch": 68, "duration": 4, "velocity": 100}, {"time": 3643, "pitch": 40, "duration": 2, "velocity": 59}, {"time": 3643, "pitch": 47, "duration": 2, "velocity": 72}, {"time": 3643, "pitch": 52, "duration": 3, "velocity": 99}, {"time": 3646, "pitch": 64, "duration": 5, "velocity": 102}, {"time": 3646, "pitch": 68, "duration": 5, "velocity": 112}, {"time": 3649, "pitch": 59, "duration": 4, "velocity": 112}, {"time": 3652, "pitch": 42, "duration": 40, "velocity": 93}, {"time": 3658, "pitch": 49, "duration": 10, "velocity": 37}, {"time": 3658, "pitch": 54, "duration": 8, "velocity": 100}, {"time": 3664, "pitch": 57, "duration": 6, "velocity": 102}, {"time": 3664, "pitch": 61, "duration": 6, "velocity": 122}, {"time": 3664, "pitch": 66, "duration": 6, "velocity": 112}, {"time": 3670, "pitch": 49, "duration": 13, "velocity": 47}, {"time": 3670, "pitch": 54, "duration": 11, "velocity": 100}, {"time": 3673, "pitch": 57, "duration": 4, "velocity": 93}, {"time": 3673, "pitch": 61, "duration": 4, "velocity": 100}, {"time": 3673, "pitch": 66, "duration": 4, "velocity": 96}, {"time": 3679, "pitch": 57, "duration": 6, "velocity": 85}, {"time": 3679, "pitch": 61, "duration": 6, "velocity": 102}, {"time": 3679, "pitch": 66, "duration": 6, "velocity": 92}, {"time": 3685, "pitch": 49, "duration": 7, "velocity": 70}, {"time": 3685, "pitch": 54, "duration": 4, "velocity": 93}, {"time": 3688, "pitch": 61, "duration": 4, "velocity": 127}, {"time": 3688, "pitch": 66, "duration": 3, "velocity": 112}, {"time": 3691, "pitch": 54, "duration": 2, "velocity": 100}, {"time": 3694, "pitch": 61, "duration": 2, "velocity": 112}, {"time": 3694, "pitch": 66, "duration": 2, "velocity": 107}, {"time": 3697, "pitch": 57, "duration": 3, "velocity": 122}, {"time": 3697, "pitch": 61, "duration": 3, "velocity": 66}, {"time": 3697, "pitch": 66, "duration": 3, "velocity": 50}, {"time": 3700, "pitch": 45, "duration": 17, "velocity": 102}, {"time": 3706, "pitch": 52, "duration": 11, "velocity": 59}, {"time": 3706, "pitch": 57, "duration": 9, "velocity": 96}, {"time": 3712, "pitch": 60, "duration": 5, "velocity": 93}, {"time": 3712, "pitch": 64, "duration": 5, "velocity": 95}, {"time": 3712, "pitch": 69, "duration": 5, "velocity": 93}, {"time": 3718, "pitch": 60, "duration": 6, "velocity": 77}, {"time": 3718, "pitch": 64, "duration": 6, "velocity": 86}, {"time": 3718, "pitch": 69, "duration": 6, "velocity": 92}, {"time": 3724, "pitch": 38, "duration": 17, "velocity": 83}, {"time": 3730, "pitch": 45, "duration": 16, "velocity": 65}, {"time": 3730, "pitch": 50, "duration": 7, "velocity": 97}, {"time": 3736, "pitch": 57, "duration": 1, "velocity": 72}, {"time": 3736, "pitch": 62, "duration": 4, "velocity": 112}, {"time": 3736, "pitch": 66, "duration": 4, "velocity": 102}, {"time": 3739, "pitch": 50, "duration": 7, "velocity": 92}, {"time": 3742, "pitch": 62, "duration": 4, "velocity": 102}, {"time": 3742, "pitch": 66, "duration": 5, "velocity": 107}, {"time": 3745, "pitch": 57, "duration": 3, "velocity": 107}, {"time": 3748, "pitch": 40, "duration": 37, "velocity": 97}, {"time": 3754, "pitch": 47, "duration": 10, "velocity": 69}, {"time": 3754, "pitch": 52, "duration": 9, "velocity": 100}, {"time": 3760, "pitch": 59, "duration": 6, "velocity": 112}, {"time": 3760, "pitch": 64, "duration": 7, "velocity": 112}, {"time": 3760, "pitch": 68, "duration": 6, "velocity": 122}, {"time": 3766, "pitch": 47, "duration": 19, "velocity": 61}, {"time": 3766, "pitch": 52, "duration": 11, "velocity": 107}, {"time": 3769, "pitch": 59, "duration": 4, "velocity": 93}, {"time": 3769, "pitch": 64, "duration": 4, "velocity": 97}, {"time": 3769, "pitch": 68, "duration": 4, "velocity": 100}, {"time": 3775, "pitch": 59, "duration": 6, "velocity": 95}, {"time": 3775, "pitch": 64, "duration": 6, "velocity": 95}, {"time": 3775, "pitch": 68, "duration": 6, "velocity": 95}, {"time": 3781, "pitch": 52, "duration": 4, "velocity": 96}, {"time": 3784, "pitch": 59, "duration": 3, "velocity": 93}, {"time": 3784, "pitch": 64, "duration": 3, "velocity": 96}, {"time": 3784, "pitch": 68, "duration": 3, "velocity": 95}, {"time": 3787, "pitch": 40, "duration": 4, "velocity": 55}, {"time": 3787, "pitch": 47, "duration": 4, "velocity": 63}, {"time": 3787, "pitch": 52, "duration": 5, "velocity": 99}, {"time": 3790, "pitch": 59, "duration": 1, "velocity": 89}, {"time": 3790, "pitch": 64, "duration": 1, "velocity": 97}, {"time": 3790, "pitch": 68, "duration": 1, "velocity": 99}, {"time": 3793, "pitch": 59, "duration": 1, "velocity": 74}, {"time": 3793, "pitch": 64, "duration": 1, "velocity": 90}, {"time": 3793, "pitch": 68, "duration": 1, "velocity": 90}, {"time": 3796, "pitch": 40, "duration": 24, "velocity": 79}, {"time": 3796, "pitch": 47, "duration": 24, "velocity": 83}, {"time": 3796, "pitch": 52, "duration": 24, "velocity": 99}, {"time": 3796, "pitch": 59, "duration": 24, "velocity": 96}, {"time": 3796, "pitch": 64, "duration": 24, "velocity": 102}, {"time": 3796, "pitch": 68, "duration": 24, "velocity": 117}], "annotations": [{"time": 100, "annotation": {"number": 64, "value": 127}, "group": "control_change"}, {"time": 254, "annotation": {"number": 64, "value": 0}, "group": "control_change"}, {"time": 258, "annotation": {"number": 64, "value": 127}, "group": "control_change"}, {"time": 267, "annotation": {"number": 64, "value": 0}, "group": "control_change"}, {"time": 272, "annotation": {"number": 64, "value": 127}, "group": "control_change"}, {"time": 288, "annotation": {"number": 64, "value": 0}, "group": "control_change"}, {"time": 296, "annotation": {"number": 64, "value": 127}, "group": "control_change"}, {"time": 306, "annotation": {"number": 64, "value": 0}, "group": "control_change"}, {"time": 309, "annotation": {"number": 64, "value": 127}, "group": "control_change"}, {"time": 386, "annotation": {"number": 64, "value": 0}, "group": "control_change"}, {"time": 389, "annotation": {"number": 64, "value": 127}, "group": "control_change"}, {"time": 409, "annotation": {"number": 64, "value": 0}, "group": "control_change"}, {"time": 412, "annotation": {"number": 64, "value": 127}, "group": "control_change"}, {"time": 432, "annotation": {"number": 64, "value": 0}, "group": "control_change"}, {"time": 436, "annotation": {"number": 64, "value": 127}, "group": "control_change"}, {"time": 457, "annotation": {"number": 64, "value": 0}, "group": "control_change"}, {"time": 460, "annotation": {"number": 64, "value": 127}, "group": "control_change"}, {"time": 483, "annotation": {"number": 64, "value": 0}, "group": "control_change"}, {"time": 484, "annotation": {"number": 64, "value": 127}, "group": "control_change"}, {"time": 529, "annotation": {"number": 64, "value": 0}, "group": "control_change"}, {"time": 532, "annotation": {"number": 64, "value": 127}, "group": "control_change"}, {"time": 577, "annotation": {"number": 64, "value": 0}, "group": "control_change"}, {"time": 580, "annotation": {"number": 64, "value": 127}, "group": "control_change"}, {"time": 625, "annotation": {"number": 64, "value": 0}, "group": "control_change"}, {"time": 628, "annotation": {"number": 64, "value": 127}, "group": "control_change"}, {"time": 638, "annotation": {"number": 64, "value": 0}, "group": "control_change"}, {"time": 639, "annotation": {"number": 64, "value": 127}, "group": "control_change"}, {"time": 673, "annotation": {"number": 64, "value": 0}, "group": "control_change"}, {"time": 676, "annotation": {"number": 64, "value": 127}, "group": "control_change"}, {"time": 721, "annotation": {"number": 64, "value": 0}, "group": "control_change"}, {"time": 723, "annotation": {"number": 64, "value": 127}, "group": "control_change"}, {"time": 769, "annotation": {"number": 64, "value": 0}, "group": "control_change"}, {"time": 772, "annotation": {"number": 64, "value": 127}, "group": "control_change"}, {"time": 817, "annotation": {"number": 64, "value": 0}, "group": "control_change"}, {"time": 819, "annotation": {"number": 64, "value": 127}, "group": "control_change"}, {"time": 864, "annotation": {"number": 64, "value": 0}, "group": "control_change"}, {"time": 867, "annotation": {"number": 64, "value": 127}, "group": "control_change"}, {"time": 869, "annotation": {"number": 64, "value": 127}, "group": "control_change"}, {"time": 913, "annotation": {"number": 64, "value": 0}, "group": "control_change"}, {"time": 915, "annotation": {"number": 64, "value": 127}, "group": "control_change"}, {"time": 961, "annotation": {"number": 64, "value": 0}, "group": "control_change"}, {"time": 964, "annotation": {"number": 64, "value": 127}, "group": "control_change"}, {"time": 1010, "annotation": {"number": 64, "value": 0}, "group": "control_change"}, {"time": 1012, "annotation": {"number": 64, "value": 127}, "group": "control_change"}, {"time": 1058, "annotation": {"number": 64, "value": 0}, "group": "control_change"}, {"time": 1060, "annotation": {"number": 64, "value": 127}, "group": "control_change"}, {"time": 1105, "annotation": {"number": 64, "value": 0}, "group": "control_change"}, {"time": 1108, "annotation": {"number": 64, "value": 127}, "group": "control_change"}, {"time": 1128, "annotation": {"number": 64, "value": 0}, "group": "control_change"}, {"time": 1131, "annotation": {"number": 64, "value": 127}, "group": "control_change"}, {"time": 1153, "annotation": {"number": 64, "value": 0}, "group": "control_change"}, {"time": 1156, "annotation": {"number": 64, "value": 127}, "group": "control_change"}, {"time": 1176, "annotation": {"number": 64, "value": 0}, "group": "control_change"}, {"time": 1179, "annotation": {"number": 64, "value": 127}, "group": "control_change"}, {"time": 1201, "annotation": {"number": 64, "value": 0}, "group": "control_change"}, {"time": 1203, "annotation": {"number": 64, "value": 127}, "group": "control_change"}, {"time": 1224, "annotation": {"number": 64, "value": 0}, "group": "control_change"}, {"time": 1226, "annotation": {"number": 64, "value": 127}, "group": "control_change"}, {"time": 1249, "annotation": {"number": 64, "value": 0}, "group": "control_change"}, {"time": 1256, "annotation": {"number": 64, "value": 127}, "group": "control_change"}, {"time": 1297, "annotation": {"number": 64, "value": 0}, "group": "control_change"}, {"time": 1300, "annotation": {"number": 64, "value": 0}, "group": "control_change"}, {"time": 1300, "annotation": {"number": 64, "value": 127}, "group": "control_change"}, {"time": 1310, "annotation": {"number": 64, "value": 0}, "group": "control_change"}, {"time": 1312, "annotation": {"number": 64, "value": 127}, "group": "control_change"}, {"time": 1320, "annotation": {"number": 64, "value": 0}, "group": "control_change"}, {"time": 1322, "annotation": {"number": 64, "value": 127}, "group": "control_change"}, {"time": 1324, "annotation": {"number": 64, "value": 0}, "group": "control_change"}, {"time": 1326, "annotation": {"number": 64, "value": 127}, "group": "control_change"}, {"time": 1334, "annotation": {"number": 64, "value": 0}, "group": "control_change"}, {"time": 1336, "annotation": {"number": 64, "value": 127}, "group": "control_change"}, {"time": 1346, "annotation": {"number": 64, "value": 0}, "group": "control_change"}, {"time": 1348, "annotation": {"number": 64, "value": 127}, "group": "control_change"}, {"time": 1358, "annotation": {"number": 64, "value": 0}, "group": "control_change"}, {"time": 1360, "annotation": {"number": 64, "value": 127}, "group": "control_change"}, {"time": 1368, "annotation": {"number": 64, "value": 0}, "group": "control_change"}, {"time": 1370, "annotation": {"number": 64, "value": 127}, "group": "control_change"}, {"time": 1373, "annotation": {"number": 64, "value": 0}, "group": "control_change"}, {"time": 1373, "annotation": {"number": 64, "value": 127}, "group": "control_change"}, {"time": 1381, "annotation": {"number": 64, "value": 0}, "group": "control_change"}, {"time": 1383, "annotation": {"number": 64, "value": 127}, "group": "control_change"}, {"time": 1393, "annotation": {"number": 64, "value": 0}, "group": "control_change"}, {"time": 1395, "annotation": {"number": 64, "value": 127}, "group": "control_change"}, {"time": 1405, "annotation": {"number": 64, "value": 0}, "group": "control_change"}, {"time": 1408, "annotation": {"number": 64, "value": 127}, "group": "control_change"}, {"time": 1416, "annotation": {"number": 64, "value": 0}, "group": "control_change"}, {"time": 1418, "annotation": {"number": 64, "value": 127}, "group": "control_change"}, {"time": 1430, "annotation": {"number": 64, "value": 0}, "group": "control_change"}, {"time": 1431, "annotation": {"number": 64, "value": 127}, "group": "control_change"}, {"time": 1441, "annotation": {"number": 64, "value": 0}, "group": "control_change"}, {"time": 1444, "annotation": {"number": 64, "value": 127}, "group": "control_change"}, {"time": 1454, "annotation": {"number": 64, "value": 0}, "group": "control_change"}, {"time": 1456, "annotation": {"number": 64, "value": 127}, "group": "control_change"}, {"time": 1464, "annotation": {"number": 64, "value": 0}, "group": "control_change"}, {"time": 1466, "annotation": {"number": 64, "value": 127}, "group": "control_change"}, {"time": 1477, "annotation": {"number": 64, "value": 0}, "group": "control_change"}, {"time": 1479, "annotation": {"number": 64, "value": 127}, "group": "control_change"}, {"time": 1490, "annotation": {"number": 64, "value": 0}, "group": "control_change"}, {"time": 1493, "annotation": {"number": 64, "value": 127}, "group": "control_change"}, {"time": 1502, "annotation": {"number": 64, "value": 0}, "group": "control_change"}, {"time": 1504, "annotation": {"number": 64, "value": 127}, "group": "control_change"}, {"time": 1512, "annotation": {"number": 64, "value": 0}, "group": "control_change"}, {"time": 1514, "annotation": {"number": 64, "value": 127}, "group": "control_change"}, {"time": 1525, "annotation": {"number": 64, "value": 0}, "group": "control_change"}, {"time": 1527, "annotation": {"number": 64, "value": 127}, "group": "control_change"}, {"time": 1538, "annotation": {"number": 64, "value": 0}, "group": "control_change"}, {"time": 1540, "annotation": {"number": 64, "value": 127}, "group": "control_change"}, {"time": 1550, "annotation": {"number": 64, "value": 0}, "group": "control_change"}, {"time": 1552, "annotation": {"number": 64, "value": 127}, "group": "control_change"}, {"time": 1561, "annotation": {"number": 64, "value": 0}, "group": "control_change"}, {"time": 1563, "annotation": {"number": 64, "value": 127}, "group": "control_change"}, {"time": 1572, "annotation": {"number": 64, "value": 0}, "group": "control_change"}, {"time": 1575, "annotation": {"number": 64, "value": 127}, "group": "control_change"}, {"time": 1586, "annotation": {"number": 64, "value": 0}, "group": "control_change"}, {"time": 1588, "annotation": {"number": 64, "value": 127}, "group": "control_change"}, {"time": 1597, "annotation": {"number": 64, "value": 0}, "group": "control_change"}, {"time": 1600, "annotation": {"number": 64, "value": 127}, "group": "control_change"}, {"time": 1610, "annotation": {"number": 64, "value": 0}, "group": "control_change"}, {"time": 1612, "annotation": {"number": 64, "value": 127}, "group": "control_change"}, {"time": 1623, "annotation": {"number": 64, "value": 0}, "group": "control_change"}, {"time": 1624, "annotation": {"number": 64, "value": 127}, "group": "control_change"}, {"time": 1630, "annotation": {"number": 64, "value": 0}, "group": "control_change"}, {"time": 1636, "annotation": {"number": 64, "value": 127}, "group": "control_change"}, {"time": 1681, "annotation": {"number": 64, "value": 0}, "group": "control_change"}, {"time": 1684, "annotation": {"number": 64, "value": 127}, "group": "control_change"}, {"time": 1729, "annotation": {"number": 64, "value": 0}, "group": "control_change"}, {"time": 1732, "annotation": {"number": 64, "value": 127}, "group": "control_change"}, {"time": 1777, "annotation": {"number": 64, "value": 0}, "group": "control_change"}, {"time": 1780, "annotation": {"number": 64, "value": 127}, "group": "control_change"}, {"time": 1790, "annotation": {"number": 64, "value": 0}, "group": "control_change"}, {"time": 1791, "annotation": {"number": 64, "value": 127}, "group": "control_change"}, {"time": 1825, "annotation": {"number": 64, "value": 0}, "group": "control_change"}, {"time": 1828, "annotation": {"number": 64, "value": 127}, "group": "control_change"}, {"time": 1873, "annotation": {"number": 64, "value": 0}, "group": "control_change"}, {"time": 1875, "annotation": {"number": 64, "value": 127}, "group": "control_change"}, {"time": 1921, "annotation": {"number": 64, "value": 0}, "group": "control_change"}, {"time": 1924, "annotation": {"number": 64, "value": 127}, "group": "control_change"}, {"time": 1969, "annotation": {"number": 64, "value": 0}, "group": "control_change"}, {"time": 1971, "annotation": {"number": 64, "value": 127}, "group": "control_change"}, {"time": 2016, "annotation": {"number": 64, "value": 127}, "group": "control_change"}, {"time": 2016, "annotation": {"number": 64, "value": 0}, "group": "control_change"}, {"time": 2019, "annotation": {"number": 64, "value": 0}, "group": "control_change"}, {"time": 2019, "annotation": {"number": 64, "value": 127}, "group": "control_change"}, {"time": 2023, "annotation": {"number": 64, "value": 127}, "group": "control_change"}, {"time": 2027, "annotation": {"number": 64, "value": 0}, "group": "control_change"}, {"time": 2065, "annotation": {"number": 64, "value": 0}, "group": "control_change"}, {"time": 2068, "annotation": {"number": 64, "value": 0}, "group": "control_change"}, {"time": 2068, "annotation": {"number": 64, "value": 127}, "group": "control_change"}, {"time": 2079, "annotation": {"number": 64, "value": 127}, "group": "control_change"}, {"time": 2114, "annotation": {"number": 64, "value": 0}, "group": "control_change"}, {"time": 2116, "annotation": {"number": 64, "value": 127}, "group": "control_change"}, {"time": 2161, "annotation": {"number": 64, "value": 0}, "group": "control_change"}, {"time": 2163, "annotation": {"number": 64, "value": 127}, "group": "control_change"}, {"time": 2173, "annotation": {"number": 64, "value": 0}, "group": "control_change"}, {"time": 2175, "annotation": {"number": 64, "value": 127}, "group": "control_change"}, {"time": 2209, "annotation": {"number": 64, "value": 0}, "group": "control_change"}, {"time": 2211, "annotation": {"number": 64, "value": 127}, "group": "control_change"}, {"time": 2258, "annotation": {"number": 64, "value": 0}, "group": "control_change"}, {"time": 2260, "annotation": {"number": 64, "value": 127}, "group": "control_change"}, {"time": 2269, "annotation": {"number": 64, "value": 0}, "group": "control_change"}, {"time": 2271, "annotation": {"number": 64, "value": 127}, "group": "control_change"}, {"time": 2305, "annotation": {"number": 64, "value": 0}, "group": "control_change"}, {"time": 2307, "annotation": {"number": 64, "value": 127}, "group": "control_change"}, {"time": 2329, "annotation": {"number": 64, "value": 0}, "group": "control_change"}, {"time": 2331, "annotation": {"number": 64, "value": 127}, "group": "control_change"}, {"time": 2353, "annotation": {"number": 64, "value": 0}, "group": "control_change"}, {"time": 2355, "annotation": {"number": 64, "value": 127}, "group": "control_change"}, {"time": 2366, "annotation": {"number": 64, "value": 0}, "group": "control_change"}, {"time": 2367, "annotation": {"number": 64, "value": 127}, "group": "control_change"}, {"time": 2403, "annotation": {"number": 64, "value": 0}, "group": "control_change"}, {"time": 2404, "annotation": {"number": 64, "value": 127}, "group": "control_change"}, {"time": 2408, "annotation": {"number": 64, "value": 0}, "group": "control_change"}, {"time": 2412, "annotation": {"number": 64, "value": 127}, "group": "control_change"}, {"time": 2417, "annotation": {"number": 64, "value": 0}, "group": "control_change"}, {"time": 2421, "annotation": {"number": 64, "value": 127}, "group": "control_change"}, {"time": 2424, "annotation": {"number": 64, "value": 0}, "group": "control_change"}, {"time": 2427, "annotation": {"number": 64, "value": 127}, "group": "control_change"}, {"time": 2449, "annotation": {"number": 64, "value": 0}, "group": "control_change"}, {"time": 2452, "annotation": {"number": 64, "value": 127}, "group": "control_change"}, {"time": 2463, "annotation": {"number": 64, "value": 0}, "group": "control_change"}, {"time": 2466, "annotation": {"number": 64, "value": 127}, "group": "control_change"}, {"time": 2473, "annotation": {"number": 64, "value": 0}, "group": "control_change"}, {"time": 2475, "annotation": {"number": 64, "value": 127}, "group": "control_change"}, {"time": 2485, "annotation": {"number": 64, "value": 0}, "group": "control_change"}, {"time": 2487, "annotation": {"number": 64, "value": 127}, "group": "control_change"}, {"time": 2488, "annotation": {"number": 64, "value": 0}, "group": "control_change"}, {"time": 2499, "annotation": {"number": 64, "value": 127}, "group": "control_change"}, {"time": 2507, "annotation": {"number": 64, "value": 0}, "group": "control_change"}, {"time": 2511, "annotation": {"number": 64, "value": 127}, "group": "control_change"}, {"time": 2516, "annotation": {"number": 64, "value": 0}, "group": "control_change"}, {"time": 2523, "annotation": {"number": 64, "value": 127}, "group": "control_change"}, {"time": 2545, "annotation": {"number": 64, "value": 0}, "group": "control_change"}, {"time": 2548, "annotation": {"number": 64, "value": 127}, "group": "control_change"}, {"time": 2557, "annotation": {"number": 64, "value": 0}, "group": "control_change"}, {"time": 2560, "annotation": {"number": 64, "value": 127}, "group": "control_change"}, {"time": 2569, "annotation": {"number": 64, "value": 0}, "group": "control_change"}, {"time": 2572, "annotation": {"number": 64, "value": 127}, "group": "control_change"}, {"time": 2581, "annotation": {"number": 64, "value": 0}, "group": "control_change"}, {"time": 2583, "annotation": {"number": 64, "value": 127}, "group": "control_change"}, {"time": 2590, "annotation": {"number": 64, "value": 0}, "group": "control_change"}, {"time": 2595, "annotation": {"number": 64, "value": 127}, "group": "control_change"}, {"time": 2611, "annotation": {"number": 64, "value": 0}, "group": "control_change"}, {"time": 2620, "annotation": {"number": 64, "value": 127}, "group": "control_change"}, {"time": 2641, "annotation": {"number": 64, "value": 0}, "group": "control_change"}, {"time": 2644, "annotation": {"number": 64, "value": 127}, "group": "control_change"}, {"time": 2653, "annotation": {"number": 64, "value": 0}, "group": "control_change"}, {"time": 2657, "annotation": {"number": 64, "value": 127}, "group": "control_change"}, {"time": 2688, "annotation": {"number": 64, "value": 0}, "group": "control_change"}, {"time": 2691, "annotation": {"number": 64, "value": 127}, "group": "control_change"}, {"time": 2697, "annotation": {"number": 64, "value": 0}, "group": "control_change"}, {"time": 2702, "annotation": {"number": 64, "value": 127}, "group": "control_change"}, {"time": 2706, "annotation": {"number": 64, "value": 0}, "group": "control_change"}, {"time": 2718, "annotation": {"number": 64, "value": 127}, "group": "control_change"}, {"time": 2722, "annotation": {"number": 64, "value": 0}, "group": "control_change"}, {"time": 2741, "annotation": {"number": 64, "value": 127}, "group": "control_change"}, {"time": 2750, "annotation": {"number": 64, "value": 0}, "group": "control_change"}, {"time": 2752, "annotation": {"number": 64, "value": 127}, "group": "control_change"}, {"time": 2760, "annotation": {"number": 64, "value": 0}, "group": "control_change"}, {"time": 2761, "annotation": {"number": 64, "value": 127}, "group": "control_change"}, {"time": 2785, "annotation": {"number": 64, "value": 0}, "group": "control_change"}, {"time": 2788, "annotation": {"number": 64, "value": 127}, "group": "control_change"}, {"time": 2798, "annotation": {"number": 64, "value": 0}, "group": "control_change"}, {"time": 2800, "annotation": {"number": 64, "value": 127}, "group": "control_change"}, {"time": 2809, "annotation": {"number": 64, "value": 0}, "group": "control_change"}, {"time": 2811, "annotation": {"number": 64, "value": 127}, "group": "control_change"}, {"time": 2834, "annotation": {"number": 64, "value": 0}, "group": "control_change"}, {"time": 2836, "annotation": {"number": 64, "value": 127}, "group": "control_change"}, {"time": 2846, "annotation": {"number": 64, "value": 0}, "group": "control_change"}, {"time": 2848, "annotation": {"number": 64, "value": 127}, "group": "control_change"}, {"time": 2856, "annotation": {"number": 64, "value": 0}, "group": "control_change"}, {"time": 2858, "annotation": {"number": 64, "value": 127}, "group": "control_change"}, {"time": 2870, "annotation": {"number": 64, "value": 0}, "group": "control_change"}, {"time": 2872, "annotation": {"number": 64, "value": 127}, "group": "control_change"}, {"time": 2881, "annotation": {"number": 64, "value": 0}, "group": "control_change"}, {"time": 2884, "annotation": {"number": 64, "value": 127}, "group": "control_change"}, {"time": 2893, "annotation": {"number": 64, "value": 0}, "group": "control_change"}, {"time": 2895, "annotation": {"number": 64, "value": 127}, "group": "control_change"}, {"time": 2903, "annotation": {"number": 64, "value": 0}, "group": "control_change"}, {"time": 2905, "annotation": {"number": 64, "value": 127}, "group": "control_change"}, {"time": 2917, "annotation": {"number": 64, "value": 0}, "group": "control_change"}, {"time": 2919, "annotation": {"number": 64, "value": 127}, "group": "control_change"}, {"time": 2930, "annotation": {"number": 64, "value": 0}, "group": "control_change"}, {"time": 2932, "annotation": {"number": 64, "value": 127}, "group": "control_change"}, {"time": 2941, "annotation": {"number": 64, "value": 0}, "group": "control_change"}, {"time": 2944, "annotation": {"number": 64, "value": 127}, "group": "control_change"}, {"time": 2953, "annotation": {"number": 64, "value": 0}, "group": "control_change"}, {"time": 2955, "annotation": {"number": 64, "value": 127}, "group": "control_change"}, {"time": 2966, "annotation": {"number": 64, "value": 0}, "group": "control_change"}, {"time": 2968, "annotation": {"number": 64, "value": 127}, "group": "control_change"}, {"time": 2978, "annotation": {"number": 64, "value": 0}, "group": "control_change"}, {"time": 2980, "annotation": {"number": 64, "value": 127}, "group": "control_change"}, {"time": 2989, "annotation": {"number": 64, "value": 0}, "group": "control_change"}, {"time": 2991, "annotation": {"number": 64, "value": 127}, "group": "control_change"}, {"time": 3001, "annotation": {"number": 64, "value": 0}, "group": "control_change"}, {"time": 3003, "annotation": {"number": 64, "value": 127}, "group": "control_change"}, {"time": 3013, "annotation": {"number": 64, "value": 0}, "group": "control_change"}, {"time": 3016, "annotation": {"number": 64, "value": 127}, "group": "control_change"}, {"time": 3023, "annotation": {"number": 64, "value": 0}, "group": "control_change"}, {"time": 3028, "annotation": {"number": 64, "value": 127}, "group": "control_change"}, {"time": 3038, "annotation": {"number": 64, "value": 0}, "group": "control_change"}, {"time": 3040, "annotation": {"number": 64, "value": 127}, "group": "control_change"}, {"time": 3047, "annotation": {"number": 64, "value": 0}, "group": "control_change"}, {"time": 3050, "annotation": {"number": 64, "value": 127}, "group": "control_change"}, {"time": 3073, "annotation": {"number": 64, "value": 0}, "group": "control_change"}, {"time": 3076, "annotation": {"number": 64, "value": 127}, "group": "control_change"}, {"time": 3096, "annotation": {"number": 64, "value": 0}, "group": "control_change"}, {"time": 3101, "annotation": {"number": 64, "value": 127}, "group": "control_change"}, {"time": 3120, "annotation": {"number": 64, "value": 0}, "group": "control_change"}, {"time": 3125, "annotation": {"number": 64, "value": 127}, "group": "control_change"}, {"time": 3134, "annotation": {"number": 64, "value": 0}, "group": "control_change"}, {"time": 3136, "annotation": {"number": 64, "value": 127}, "group": "control_change"}, {"time": 3144, "annotation": {"number": 64, "value": 0}, "group": "control_change"}, {"time": 3145, "annotation": {"number": 64, "value": 127}, "group": "control_change"}, {"time": 3169, "annotation": {"number": 64, "value": 0}, "group": "control_change"}, {"time": 3172, "annotation": {"number": 64, "value": 127}, "group": "control_change"}, {"time": 3182, "annotation": {"number": 64, "value": 0}, "group": "control_change"}, {"time": 3184, "annotation": {"number": 64, "value": 127}, "group": "control_change"}, {"time": 3193, "annotation": {"number": 64, "value": 0}, "group": "control_change"}, {"time": 3195, "annotation": {"number": 64, "value": 127}, "group": "control_change"}, {"time": 3218, "annotation": {"number": 64, "value": 0}, "group": "control_change"}, {"time": 3220, "annotation": {"number": 64, "value": 127}, "group": "control_change"}, {"time": 3230, "annotation": {"number": 64, "value": 0}, "group": "control_change"}, {"time": 3232, "annotation": {"number": 64, "value": 127}, "group": "control_change"}, {"time": 3240, "annotation": {"number": 64, "value": 0}, "group": "control_change"}, {"time": 3242, "annotation": {"number": 64, "value": 127}, "group": "control_change"}, {"time": 3254, "annotation": {"number": 64, "value": 0}, "group": "control_change"}, {"time": 3256, "annotation": {"number": 64, "value": 127}, "group": "control_change"}, {"time": 3265, "annotation": {"number": 64, "value": 0}, "group": "control_change"}, {"time": 3268, "annotation": {"number": 64, "value": 127}, "group": "control_change"}, {"time": 3277, "annotation": {"number": 64, "value": 0}, "group": "control_change"}, {"time": 3279, "annotation": {"number": 64, "value": 127}, "group": "control_change"}, {"time": 3287, "annotation": {"number": 64, "value": 0}, "group": "control_change"}, {"time": 3289, "annotation": {"number": 64, "value": 127}, "group": "control_change"}, {"time": 3301, "annotation": {"number": 64, "value": 0}, "group": "control_change"}, {"time": 3303, "annotation": {"number": 64, "value": 127}, "group": "control_change"}, {"time": 3314, "annotation": {"number": 64, "value": 0}, "group": "control_change"}, {"time": 3316, "annotation": {"number": 64, "value": 127}, "group": "control_change"}, {"time": 3325, "annotation": {"number": 64, "value": 0}, "group": "control_change"}, {"time": 3328, "annotation": {"number": 64, "value": 127}, "group": "control_change"}, {"time": 3337, "annotation": {"number": 64, "value": 0}, "group": "control_change"}, {"time": 3339, "annotation": {"number": 64, "value": 127}, "group": "control_change"}, {"time": 3350, "annotation": {"number": 64, "value": 0}, "group": "control_change"}, {"time": 3352, "annotation": {"number": 64, "value": 127}, "group": "control_change"}, {"time": 3362, "annotation": {"number": 64, "value": 0}, "group": "control_change"}, {"time": 3364, "annotation": {"number": 64, "value": 127}, "group": "control_change"}, {"time": 3373, "annotation": {"number": 64, "value": 0}, "group": "control_change"}, {"time": 3375, "annotation": {"number": 64, "value": 127}, "group": "control_change"}, {"time": 3385, "annotation": {"number": 64, "value": 0}, "group": "control_change"}, {"time": 3387, "annotation": {"number": 64, "value": 127}, "group": "control_change"}, {"time": 3397, "annotation": {"number": 64, "value": 0}, "group": "control_change"}, {"time": 3400, "annotation": {"number": 64, "value": 127}, "group": "control_change"}, {"time": 3407, "annotation": {"number": 64, "value": 0}, "group": "control_change"}, {"time": 3413, "annotation": {"number": 64, "value": 127}, "group": "control_change"}, {"time": 3456, "annotation": {"number": 64, "value": 0}, "group": "control_change"}, {"time": 3461, "annotation": {"number": 64, "value": 127}, "group": "control_change"}, {"time": 3480, "annotation": {"number": 64, "value": 0}, "group": "control_change"}, {"time": 3482, "annotation": {"number": 64, "value": 127}, "group": "control_change"}, {"time": 3506, "annotation": {"number": 64, "value": 0}, "group": "control_change"}, {"time": 3508, "annotation": {"number": 64, "value": 127}, "group": "control_change"}, {"time": 3528, "annotation": {"number": 64, "value": 0}, "group": "control_change"}, {"time": 3530, "annotation": {"number": 64, "value": 127}, "group": "control_change"}, {"time": 3554, "annotation": {"number": 64, "value": 0}, "group": "control_change"}, {"time": 3556, "annotation": {"number": 64, "value": 127}, "group": "control_change"}, {"time": 3577, "annotation": {"number": 64, "value": 0}, "group": "control_change"}, {"time": 3579, "annotation": {"number": 64, "value": 127}, "group": "control_change"}, {"time": 3601, "annotation": {"number": 64, "value": 0}, "group": "control_change"}, {"time": 3604, "annotation": {"number": 64, "value": 127}, "group": "control_change"}, {"time": 3624, "annotation": {"number": 64, "value": 0}, "group": "control_change"}, {"time": 3626, "annotation": {"number": 64, "value": 127}, "group": "control_change"}, {"time": 3638, "annotation": {"number": 64, "value": 0}, "group": "control_change"}, {"time": 3640, "annotation": {"number": 64, "value": 127}, "group": "control_change"}, {"time": 3650, "annotation": {"number": 64, "value": 0}, "group": "control_change"}, {"time": 3652, "annotation": {"number": 64, "value": 127}, "group": "control_change"}, {"time": 3663, "annotation": {"number": 64, "value": 0}, "group": "control_change"}, {"time": 3664, "annotation": {"number": 64, "value": 127}, "group": "control_change"}, {"time": 3672, "annotation": {"number": 64, "value": 0}, "group": "control_change"}, {"time": 3674, "annotation": {"number": 64, "value": 127}, "group": "control_change"}, {"time": 3698, "annotation": {"number": 64, "value": 0}, "group": "control_change"}, {"time": 3701, "annotation": {"number": 64, "value": 127}, "group": "control_change"}, {"time": 3723, "annotation": {"number": 64, "value": 0}, "group": "control_change"}, {"time": 3725, "annotation": {"number": 64, "value": 127}, "group": "control_change"}, {"time": 3746, "annotation": {"number": 64, "value": 0}, "group": "control_change"}, {"time": 3748, "annotation": {"number": 64, "value": 127}, "group": "control_change"}, {"time": 3769, "annotation": {"number": 64, "value": 0}, "group": "control_change"}, {"time": 3770, "annotation": {"number": 64, "value": 127}, "group": "control_change"}, {"time": 3793, "annotation": {"number": 64, "value": 0}, "group": "control_change"}, {"time": 3796, "annotation": {"number": 64, "value": 127}, "group": "control_change"}, {"time": 3883, "annotation": {"number": 64, "value": 0}, "group": "control_change"}, {"time": 3884, "annotation": {"number": 64, "value": 127}, "group": "control_change"}, {"time": 3886, "annotation": {"number": 64, "value": 0}, "group": "control_change"}, {"time": 3887, "annotation": {"number": 64, "value": 127}, "group": "control_change"}, {"time": 3894, "annotation": {"number": 64, "value": 0}, "group": "control_change"}]}]}