{"metadata": {"schema_version": "0.2", "title": "None", "source_filename": "163.mid", "source_format": "midi"}, "resolution": 12, "tempos": [{"time": 0, "qpm": 94.00012846684224}], "time_signatures": [{"time": 0, "numerator": 1, "denominator": 4}], "tracks": [{"program": 4, "is_drum": false, "name": "MELODY", "notes": [{"time": 787, "pitch": 68, "duration": 3, "velocity": 127}, {"time": 793, "pitch": 68, "duration": 2, "velocity": 97}, {"time": 799, "pitch": 68, "duration": 7, "velocity": 107}, {"time": 811, "pitch": 66, "duration": 5, "velocity": 127}, {"time": 817, "pitch": 64, "duration": 5, "velocity": 97}, {"time": 823, "pitch": 66, "duration": 7, "velocity": 122}, {"time": 829, "pitch": 64, "duration": 16, "velocity": 107}, {"time": 853, "pitch": 61, "duration": 3, "velocity": 117}, {"time": 856, "pitch": 59, "duration": 3, "velocity": 70}, {"time": 859, "pitch": 61, "duration": 4, "velocity": 122}, {"time": 865, "pitch": 64, "duration": 7, "velocity": 95}, {"time": 871, "pitch": 66, "duration": 6, "velocity": 117}, {"time": 877, "pitch": 64, "duration": 25, "velocity": 99}, {"time": 901, "pitch": 73, "duration": 4, "velocity": 107}, {"time": 907, "pitch": 73, "duration": 5, "velocity": 92}, {"time": 913, "pitch": 64, "duration": 7, "velocity": 96}, {"time": 919, "pitch": 66, "duration": 48, "velocity": 112}, {"time": 973, "pitch": 68, "duration": 2, "velocity": 117}, {"time": 979, "pitch": 71, "duration": 3, "velocity": 112}, {"time": 985, "pitch": 71, "duration": 7, "velocity": 107}, {"time": 997, "pitch": 68, "duration": 2, "velocity": 100}, {"time": 1003, "pitch": 68, "duration": 5, "velocity": 127}, {"time": 1009, "pitch": 71, "duration": 6, "velocity": 99}, {"time": 1015, "pitch": 73, "duration": 15, "velocity": 117}, {"time": 1033, "pitch": 68, "duration": 25, "velocity": 122}, {"time": 1057, "pitch": 71, "duration": 3, "velocity": 102}, {"time": 1063, "pitch": 73, "duration": 6, "velocity": 127}, {"time": 1069, "pitch": 76, "duration": 6, "velocity": 100}, {"time": 1093, "pitch": 68, "duration": 5, "velocity": 117}, {"time": 1099, "pitch": 64, "duration": 6, "velocity": 96}, {"time": 1105, "pitch": 68, "duration": 3, "velocity": 127}, {"time": 1111, "pitch": 68, "duration": 6, "velocity": 122}, {"time": 1117, "pitch": 66, "duration": 27, "velocity": 122}, {"time": 1141, "pitch": 66, "duration": 3, "velocity": 97}, {"time": 1147, "pitch": 66, "duration": 4, "velocity": 122}, {"time": 1153, "pitch": 68, "duration": 3, "velocity": 117}, {"time": 1159, "pitch": 69, "duration": 5, "velocity": 127}, {"time": 1165, "pitch": 68, "duration": 18, "velocity": 112}, {"time": 1189, "pitch": 66, "duration": 5, "velocity": 122}, {"time": 1195, "pitch": 68, "duration": 5, "velocity": 112}, {"time": 1201, "pitch": 61, "duration": 5, "velocity": 107}, {"time": 1207, "pitch": 64, "duration": 26, "velocity": 96}, {"time": 1237, "pitch": 61, "duration": 3, "velocity": 122}, {"time": 1243, "pitch": 61, "duration": 4, "velocity": 107}, {"time": 1249, "pitch": 64, "duration": 5, "velocity": 95}, {"time": 1255, "pitch": 69, "duration": 27, "velocity": 112}, {"time": 1285, "pitch": 71, "duration": 4, "velocity": 102}, {"time": 1291, "pitch": 71, "duration": 5, "velocity": 102}, {"time": 1297, "pitch": 73, "duration": 5, "velocity": 117}, {"time": 1303, "pitch": 75, "duration": 52, "velocity": 127}, {"time": 1405, "pitch": 76, "duration": 3, "velocity": 102}, {"time": 1411, "pitch": 76, "duration": 6, "velocity": 117}, {"time": 1417, "pitch": 75, "duration": 3, "velocity": 112}, {"time": 1423, "pitch": 66, "duration": 6, "velocity": 97}, {"time": 1429, "pitch": 68, "duration": 19, "velocity": 102}, {"time": 1453, "pitch": 76, "duration": 2, "velocity": 122}, {"time": 1459, "pitch": 76, "duration": 3, "velocity": 107}, {"time": 1465, "pitch": 71, "duration": 3, "velocity": 97}, {"time": 1471, "pitch": 68, "duration": 3, "velocity": 112}, {"time": 1477, "pitch": 73, "duration": 17, "velocity": 127}, {"time": 1501, "pitch": 76, "duration": 3, "velocity": 127}, {"time": 1507, "pitch": 76, "duration": 3, "velocity": 117}, {"time": 1513, "pitch": 68, "duration": 3, "velocity": 117}, {"time": 1519, "pitch": 71, "duration": 3, "velocity": 112}, {"time": 1525, "pitch": 69, "duration": 15, "velocity": 127}, {"time": 1549, "pitch": 76, "duration": 2, "velocity": 112}, {"time": 1555, "pitch": 76, "duration": 5, "velocity": 122}, {"time": 1561, "pitch": 76, "duration": 2, "velocity": 107}, {"time": 1567, "pitch": 68, "duration": 6, "velocity": 127}, {"time": 1573, "pitch": 66, "duration": 23, "velocity": 112}, {"time": 1597, "pitch": 76, "duration": 3, "velocity": 122}, {"time": 1603, "pitch": 76, "duration": 3, "velocity": 122}, {"time": 1609, "pitch": 71, "duration": 2, "velocity": 107}, {"time": 1615, "pitch": 66, "duration": 6, "velocity": 122}, {"time": 1621, "pitch": 68, "duration": 13, "velocity": 122}, {"time": 1645, "pitch": 76, "duration": 3, "velocity": 117}, {"time": 1651, "pitch": 76, "duration": 3, "velocity": 100}, {"time": 1657, "pitch": 66, "duration": 2, "velocity": 117}, {"time": 1657, "pitch": 68, "duration": 2, "velocity": 117}, {"time": 1663, "pitch": 68, "duration": 5, "velocity": 127}, {"time": 1669, "pitch": 73, "duration": 18, "velocity": 127}, {"time": 1693, "pitch": 76, "duration": 3, "velocity": 95}, {"time": 1699, "pitch": 76, "duration": 3, "velocity": 97}, {"time": 1705, "pitch": 68, "duration": 2, "velocity": 127}, {"time": 1711, "pitch": 71, "duration": 5, "velocity": 112}, {"time": 1717, "pitch": 69, "duration": 17, "velocity": 112}, {"time": 1741, "pitch": 76, "duration": 3, "velocity": 102}, {"time": 1747, "pitch": 76, "duration": 5, "velocity": 117}, {"time": 1753, "pitch": 73, "duration": 2, "velocity": 122}, {"time": 1759, "pitch": 76, "duration": 7, "velocity": 102}, {"time": 1765, "pitch": 78, "duration": 53, "velocity": 112}, {"time": 1819, "pitch": 76, "duration": 3, "velocity": 127}, {"time": 1825, "pitch": 76, "duration": 3, "velocity": 112}, {"time": 1831, "pitch": 76, "duration": 5, "velocity": 122}, {"time": 1843, "pitch": 66, "duration": 6, "velocity": 122}, {"time": 1849, "pitch": 64, "duration": 7, "velocity": 88}, {"time": 1855, "pitch": 66, "duration": 6, "velocity": 117}, {"time": 1861, "pitch": 64, "duration": 36, "velocity": 99}, {"time": 2251, "pitch": 68, "duration": 3, "velocity": 127}, {"time": 2257, "pitch": 68, "duration": 2, "velocity": 97}, {"time": 2263, "pitch": 68, "duration": 7, "velocity": 107}, {"time": 2275, "pitch": 66, "duration": 5, "velocity": 127}, {"time": 2281, "pitch": 64, "duration": 5, "velocity": 97}, {"time": 2287, "pitch": 66, "duration": 7, "velocity": 122}, {"time": 2293, "pitch": 64, "duration": 16, "velocity": 107}, {"time": 2317, "pitch": 61, "duration": 3, "velocity": 117}, {"time": 2320, "pitch": 59, "duration": 3, "velocity": 70}, {"time": 2323, "pitch": 61, "duration": 4, "velocity": 122}, {"time": 2329, "pitch": 64, "duration": 7, "velocity": 95}, {"time": 2335, "pitch": 66, "duration": 6, "velocity": 117}, {"time": 2341, "pitch": 64, "duration": 25, "velocity": 99}, {"time": 2365, "pitch": 73, "duration": 4, "velocity": 107}, {"time": 2371, "pitch": 73, "duration": 5, "velocity": 92}, {"time": 2377, "pitch": 64, "duration": 7, "velocity": 96}, {"time": 2383, "pitch": 66, "duration": 48, "velocity": 112}, {"time": 2437, "pitch": 68, "duration": 2, "velocity": 117}, {"time": 2443, "pitch": 71, "duration": 3, "velocity": 112}, {"time": 2449, "pitch": 71, "duration": 7, "velocity": 107}, {"time": 2461, "pitch": 68, "duration": 2, "velocity": 100}, {"time": 2467, "pitch": 68, "duration": 5, "velocity": 127}, {"time": 2473, "pitch": 71, "duration": 6, "velocity": 99}, {"time": 2479, "pitch": 73, "duration": 15, "velocity": 117}, {"time": 2497, "pitch": 68, "duration": 25, "velocity": 122}, {"time": 2521, "pitch": 71, "duration": 3, "velocity": 102}, {"time": 2527, "pitch": 73, "duration": 6, "velocity": 127}, {"time": 2533, "pitch": 76, "duration": 6, "velocity": 100}, {"time": 2557, "pitch": 68, "duration": 5, "velocity": 117}, {"time": 2563, "pitch": 64, "duration": 6, "velocity": 96}, {"time": 2569, "pitch": 68, "duration": 3, "velocity": 127}, {"time": 2575, "pitch": 68, "duration": 6, "velocity": 122}, {"time": 2581, "pitch": 66, "duration": 27, "velocity": 122}, {"time": 2605, "pitch": 66, "duration": 3, "velocity": 97}, {"time": 2611, "pitch": 66, "duration": 4, "velocity": 122}, {"time": 2617, "pitch": 68, "duration": 3, "velocity": 117}, {"time": 2623, "pitch": 69, "duration": 5, "velocity": 127}, {"time": 2629, "pitch": 68, "duration": 18, "velocity": 112}, {"time": 2653, "pitch": 66, "duration": 5, "velocity": 122}, {"time": 2659, "pitch": 68, "duration": 5, "velocity": 112}, {"time": 2665, "pitch": 61, "duration": 5, "velocity": 107}, {"time": 2671, "pitch": 64, "duration": 26, "velocity": 96}, {"time": 2701, "pitch": 61, "duration": 3, "velocity": 122}, {"time": 2707, "pitch": 61, "duration": 4, "velocity": 107}, {"time": 2713, "pitch": 64, "duration": 5, "velocity": 95}, {"time": 2719, "pitch": 69, "duration": 27, "velocity": 112}, {"time": 2749, "pitch": 71, "duration": 4, "velocity": 102}, {"time": 2755, "pitch": 71, "duration": 5, "velocity": 102}, {"time": 2761, "pitch": 73, "duration": 5, "velocity": 117}, {"time": 2767, "pitch": 75, "duration": 52, "velocity": 127}, {"time": 2869, "pitch": 76, "duration": 3, "velocity": 102}, {"time": 2875, "pitch": 76, "duration": 6, "velocity": 117}, {"time": 2881, "pitch": 75, "duration": 3, "velocity": 112}, {"time": 2887, "pitch": 66, "duration": 6, "velocity": 97}, {"time": 2893, "pitch": 68, "duration": 19, "velocity": 102}, {"time": 2917, "pitch": 76, "duration": 2, "velocity": 122}, {"time": 2923, "pitch": 76, "duration": 3, "velocity": 107}, {"time": 2929, "pitch": 71, "duration": 3, "velocity": 97}, {"time": 2935, "pitch": 68, "duration": 3, "velocity": 112}, {"time": 2941, "pitch": 73, "duration": 17, "velocity": 127}, {"time": 2965, "pitch": 76, "duration": 3, "velocity": 127}, {"time": 2971, "pitch": 76, "duration": 3, "velocity": 117}, {"time": 2977, "pitch": 68, "duration": 3, "velocity": 117}, {"time": 2983, "pitch": 71, "duration": 3, "velocity": 112}, {"time": 2989, "pitch": 69, "duration": 15, "velocity": 127}, {"time": 3013, "pitch": 76, "duration": 2, "velocity": 112}, {"time": 3019, "pitch": 76, "duration": 5, "velocity": 122}, {"time": 3025, "pitch": 76, "duration": 2, "velocity": 107}, {"time": 3031, "pitch": 68, "duration": 6, "velocity": 127}, {"time": 3037, "pitch": 66, "duration": 23, "velocity": 112}, {"time": 3061, "pitch": 76, "duration": 3, "velocity": 122}, {"time": 3067, "pitch": 76, "duration": 3, "velocity": 122}, {"time": 3073, "pitch": 71, "duration": 2, "velocity": 107}, {"time": 3079, "pitch": 66, "duration": 6, "velocity": 122}, {"time": 3085, "pitch": 68, "duration": 13, "velocity": 122}, {"time": 3109, "pitch": 76, "duration": 3, "velocity": 117}, {"time": 3115, "pitch": 76, "duration": 3, "velocity": 100}, {"time": 3121, "pitch": 66, "duration": 2, "velocity": 117}, {"time": 3121, "pitch": 68, "duration": 2, "velocity": 117}, {"time": 3127, "pitch": 68, "duration": 5, "velocity": 127}, {"time": 3133, "pitch": 73, "duration": 18, "velocity": 127}, {"time": 3157, "pitch": 76, "duration": 3, "velocity": 95}, {"time": 3163, "pitch": 76, "duration": 3, "velocity": 97}, {"time": 3169, "pitch": 68, "duration": 2, "velocity": 127}, {"time": 3175, "pitch": 71, "duration": 5, "velocity": 112}, {"time": 3181, "pitch": 69, "duration": 17, "velocity": 112}, {"time": 3205, "pitch": 76, "duration": 3, "velocity": 102}, {"time": 3211, "pitch": 76, "duration": 5, "velocity": 117}, {"time": 3217, "pitch": 73, "duration": 2, "velocity": 122}, {"time": 3223, "pitch": 76, "duration": 7, "velocity": 102}, {"time": 3229, "pitch": 78, "duration": 53, "velocity": 112}, {"time": 3283, "pitch": 76, "duration": 3, "velocity": 127}, {"time": 3289, "pitch": 76, "duration": 3, "velocity": 112}, {"time": 3295, "pitch": 76, "duration": 5, "velocity": 122}, {"time": 3307, "pitch": 66, "duration": 6, "velocity": 122}, {"time": 3313, "pitch": 64, "duration": 7, "velocity": 88}, {"time": 3319, "pitch": 66, "duration": 6, "velocity": 117}, {"time": 3325, "pitch": 64, "duration": 36, "velocity": 99}, {"time": 3751, "pitch": 76, "duration": 3, "velocity": 99}, {"time": 3754, "pitch": 75, "duration": 3, "velocity": 78}, {"time": 3757, "pitch": 73, "duration": 2, "velocity": 112}, {"time": 3760, "pitch": 73, "duration": 6, "velocity": 107}, {"time": 3769, "pitch": 71, "duration": 2, "velocity": 102}, {"time": 3775, "pitch": 73, "duration": 2, "velocity": 127}, {"time": 3778, "pitch": 71, "duration": 2, "velocity": 99}, {"time": 3787, "pitch": 73, "duration": 10, "velocity": 127}, {"time": 3799, "pitch": 73, "duration": 3, "velocity": 127}, {"time": 3802, "pitch": 71, "duration": 2, "velocity": 76}, {"time": 3808, "pitch": 73, "duration": 3, "velocity": 127}, {"time": 3817, "pitch": 71, "duration": 2, "velocity": 117}, {"time": 3823, "pitch": 73, "duration": 3, "velocity": 127}, {"time": 3826, "pitch": 71, "duration": 2, "velocity": 89}, {"time": 3835, "pitch": 73, "duration": 11, "velocity": 127}, {"time": 3847, "pitch": 75, "duration": 21, "velocity": 127}, {"time": 3865, "pitch": 71, "duration": 26, "velocity": 107}, {"time": 3895, "pitch": 75, "duration": 17, "velocity": 127}, {"time": 3913, "pitch": 71, "duration": 28, "velocity": 112}, {"time": 3943, "pitch": 76, "duration": 3, "velocity": 117}, {"time": 3946, "pitch": 73, "duration": 2, "velocity": 117}, {"time": 3949, "pitch": 73, "duration": 2, "velocity": 99}, {"time": 3952, "pitch": 73, "duration": 3, "velocity": 122}, {"time": 3961, "pitch": 71, "duration": 2, "velocity": 117}, {"time": 3967, "pitch": 73, "duration": 2, "velocity": 127}, {"time": 3970, "pitch": 71, "duration": 2, "velocity": 107}, {"time": 3979, "pitch": 73, "duration": 10, "velocity": 127}, {"time": 3991, "pitch": 73, "duration": 3, "velocity": 127}, {"time": 3994, "pitch": 71, "duration": 2, "velocity": 93}, {"time": 4000, "pitch": 73, "duration": 5, "velocity": 127}, {"time": 4009, "pitch": 71, "duration": 2, "velocity": 102}, {"time": 4015, "pitch": 73, "duration": 2, "velocity": 127}, {"time": 4018, "pitch": 71, "duration": 2, "velocity": 95}, {"time": 4024, "pitch": 73, "duration": 12, "velocity": 127}, {"time": 4039, "pitch": 75, "duration": 68, "velocity": 127}]}, {"program": 0, "is_drum": false, "name": "PIANO", "notes": [{"time": 55, "pitch": 42, "duration": 23, "velocity": 107}, {"time": 55, "pitch": 54, "duration": 23, "velocity": 100}, {"time": 55, "pitch": 57, "duration": 4, "velocity": 97}, {"time": 55, "pitch": 61, "duration": 3, "velocity": 112}, {"time": 55, "pitch": 66, "duration": 4, "velocity": 96}, {"time": 67, "pitch": 57, "duration": 3, "velocity": 90}, {"time": 67, "pitch": 61, "duration": 3, "velocity": 112}, {"time": 67, "pitch": 66, "duration": 3, "velocity": 92}, {"time": 76, "pitch": 57, "duration": 8, "velocity": 77}, {"time": 76, "pitch": 61, "duration": 8, "velocity": 96}, {"time": 76, "pitch": 66, "duration": 9, "velocity": 82}, {"time": 79, "pitch": 42, "duration": 2, "velocity": 95}, {"time": 79, "pitch": 54, "duration": 2, "velocity": 95}, {"time": 85, "pitch": 42, "duration": 9, "velocity": 107}, {"time": 85, "pitch": 54, "duration": 9, "velocity": 107}, {"time": 91, "pitch": 61, "duration": 8, "velocity": 127}, {"time": 91, "pitch": 66, "duration": 7, "velocity": 122}, {"time": 97, "pitch": 57, "duration": 5, "velocity": 82}, {"time": 103, "pitch": 45, "duration": 21, "velocity": 88}, {"time": 103, "pitch": 57, "duration": 10, "velocity": 99}, {"time": 103, "pitch": 61, "duration": 10, "velocity": 112}, {"time": 103, "pitch": 64, "duration": 10, "velocity": 95}, {"time": 115, "pitch": 57, "duration": 6, "velocity": 99}, {"time": 115, "pitch": 61, "duration": 6, "velocity": 117}, {"time": 115, "pitch": 64, "duration": 7, "velocity": 95}, {"time": 124, "pitch": 57, "duration": 7, "velocity": 89}, {"time": 124, "pitch": 61, "duration": 9, "velocity": 100}, {"time": 124, "pitch": 64, "duration": 10, "velocity": 78}, {"time": 127, "pitch": 45, "duration": 3, "velocity": 96}, {"time": 133, "pitch": 45, "duration": 7, "velocity": 102}, {"time": 139, "pitch": 57, "duration": 3, "velocity": 95}, {"time": 139, "pitch": 61, "duration": 13, "velocity": 127}, {"time": 139, "pitch": 64, "duration": 12, "velocity": 102}, {"time": 151, "pitch": 40, "duration": 24, "velocity": 81}, {"time": 151, "pitch": 52, "duration": 24, "velocity": 97}, {"time": 163, "pitch": 59, "duration": 8, "velocity": 95}, {"time": 163, "pitch": 64, "duration": 8, "velocity": 100}, {"time": 163, "pitch": 68, "duration": 8, "velocity": 99}, {"time": 172, "pitch": 59, "duration": 4, "velocity": 83}, {"time": 172, "pitch": 64, "duration": 5, "velocity": 92}, {"time": 172, "pitch": 68, "duration": 5, "velocity": 99}, {"time": 175, "pitch": 40, "duration": 3, "velocity": 71}, {"time": 175, "pitch": 52, "duration": 2, "velocity": 83}, {"time": 181, "pitch": 40, "duration": 15, "velocity": 75}, {"time": 181, "pitch": 52, "duration": 15, "velocity": 102}, {"time": 187, "pitch": 64, "duration": 13, "velocity": 117}, {"time": 187, "pitch": 68, "duration": 13, "velocity": 117}, {"time": 193, "pitch": 59, "duration": 7, "velocity": 95}, {"time": 199, "pitch": 40, "duration": 22, "velocity": 82}, {"time": 199, "pitch": 52, "duration": 23, "velocity": 100}, {"time": 211, "pitch": 59, "duration": 7, "velocity": 99}, {"time": 211, "pitch": 64, "duration": 7, "velocity": 97}, {"time": 211, "pitch": 68, "duration": 7, "velocity": 97}, {"time": 220, "pitch": 59, "duration": 9, "velocity": 93}, {"time": 220, "pitch": 64, "duration": 10, "velocity": 95}, {"time": 220, "pitch": 68, "duration": 10, "velocity": 97}, {"time": 223, "pitch": 40, "duration": 2, "velocity": 77}, {"time": 223, "pitch": 52, "duration": 2, "velocity": 88}, {"time": 229, "pitch": 40, "duration": 9, "velocity": 83}, {"time": 229, "pitch": 52, "duration": 10, "velocity": 96}, {"time": 235, "pitch": 64, "duration": 12, "velocity": 112}, {"time": 235, "pitch": 68, "duration": 12, "velocity": 127}, {"time": 241, "pitch": 59, "duration": 6, "velocity": 99}, {"time": 247, "pitch": 42, "duration": 23, "velocity": 93}, {"time": 247, "pitch": 54, "duration": 22, "velocity": 93}, {"time": 259, "pitch": 57, "duration": 7, "velocity": 95}, {"time": 259, "pitch": 61, "duration": 7, "velocity": 107}, {"time": 259, "pitch": 66, "duration": 8, "velocity": 88}, {"time": 268, "pitch": 57, "duration": 7, "velocity": 89}, {"time": 268, "pitch": 61, "duration": 7, "velocity": 107}, {"time": 268, "pitch": 66, "duration": 9, "velocity": 93}, {"time": 271, "pitch": 42, "duration": 2, "velocity": 89}, {"time": 271, "pitch": 54, "duration": 2, "velocity": 75}, {"time": 277, "pitch": 42, "duration": 8, "velocity": 92}, {"time": 277, "pitch": 54, "duration": 8, "velocity": 93}, {"time": 283, "pitch": 61, "duration": 12, "velocity": 127}, {"time": 283, "pitch": 66, "duration": 11, "velocity": 122}, {"time": 289, "pitch": 57, "duration": 7, "velocity": 86}, {"time": 295, "pitch": 45, "duration": 23, "velocity": 99}, {"time": 307, "pitch": 57, "duration": 8, "velocity": 93}, {"time": 307, "pitch": 61, "duration": 8, "velocity": 112}, {"time": 307, "pitch": 64, "duration": 8, "velocity": 90}, {"time": 316, "pitch": 57, "duration": 6, "velocity": 88}, {"time": 316, "pitch": 61, "duration": 9, "velocity": 117}, {"time": 316, "pitch": 64, "duration": 10, "velocity": 86}, {"time": 319, "pitch": 45, "duration": 3, "velocity": 82}, {"time": 325, "pitch": 45, "duration": 7, "velocity": 93}, {"time": 331, "pitch": 61, "duration": 12, "velocity": 127}, {"time": 331, "pitch": 64, "duration": 12, "velocity": 102}, {"time": 337, "pitch": 57, "duration": 7, "velocity": 78}, {"time": 343, "pitch": 40, "duration": 25, "velocity": 76}, {"time": 343, "pitch": 52, "duration": 25, "velocity": 99}, {"time": 355, "pitch": 59, "duration": 8, "velocity": 90}, {"time": 355, "pitch": 64, "duration": 8, "velocity": 95}, {"time": 355, "pitch": 68, "duration": 8, "velocity": 95}, {"time": 364, "pitch": 59, "duration": 7, "velocity": 93}, {"time": 364, "pitch": 64, "duration": 9, "velocity": 95}, {"time": 364, "pitch": 68, "duration": 8, "velocity": 96}, {"time": 367, "pitch": 40, "duration": 1, "velocity": 81}, {"time": 367, "pitch": 52, "duration": 1, "velocity": 82}, {"time": 373, "pitch": 40, "duration": 14, "velocity": 89}, {"time": 373, "pitch": 52, "duration": 14, "velocity": 95}, {"time": 379, "pitch": 64, "duration": 9, "velocity": 117}, {"time": 379, "pitch": 68, "duration": 9, "velocity": 127}, {"time": 385, "pitch": 59, "duration": 4, "velocity": 79}, {"time": 391, "pitch": 40, "duration": 46, "velocity": 86}, {"time": 391, "pitch": 52, "duration": 44, "velocity": 95}, {"time": 391, "pitch": 59, "duration": 46, "velocity": 99}, {"time": 391, "pitch": 64, "duration": 47, "velocity": 96}, {"time": 391, "pitch": 68, "duration": 47, "velocity": 107}, {"time": 439, "pitch": 42, "duration": 23, "velocity": 107}, {"time": 439, "pitch": 54, "duration": 23, "velocity": 100}, {"time": 439, "pitch": 57, "duration": 4, "velocity": 97}, {"time": 439, "pitch": 61, "duration": 3, "velocity": 112}, {"time": 439, "pitch": 66, "duration": 4, "velocity": 96}, {"time": 451, "pitch": 57, "duration": 3, "velocity": 90}, {"time": 451, "pitch": 61, "duration": 3, "velocity": 112}, {"time": 451, "pitch": 66, "duration": 3, "velocity": 92}, {"time": 460, "pitch": 57, "duration": 8, "velocity": 77}, {"time": 460, "pitch": 61, "duration": 8, "velocity": 96}, {"time": 460, "pitch": 66, "duration": 9, "velocity": 82}, {"time": 463, "pitch": 42, "duration": 2, "velocity": 95}, {"time": 463, "pitch": 54, "duration": 2, "velocity": 95}, {"time": 469, "pitch": 42, "duration": 9, "velocity": 107}, {"time": 469, "pitch": 54, "duration": 9, "velocity": 107}, {"time": 475, "pitch": 61, "duration": 8, "velocity": 127}, {"time": 475, "pitch": 66, "duration": 7, "velocity": 122}, {"time": 481, "pitch": 57, "duration": 5, "velocity": 82}, {"time": 487, "pitch": 45, "duration": 21, "velocity": 88}, {"time": 487, "pitch": 57, "duration": 10, "velocity": 99}, {"time": 487, "pitch": 61, "duration": 10, "velocity": 112}, {"time": 487, "pitch": 64, "duration": 10, "velocity": 95}, {"time": 499, "pitch": 57, "duration": 6, "velocity": 99}, {"time": 499, "pitch": 61, "duration": 6, "velocity": 117}, {"time": 499, "pitch": 64, "duration": 7, "velocity": 95}, {"time": 508, "pitch": 57, "duration": 7, "velocity": 89}, {"time": 508, "pitch": 61, "duration": 9, "velocity": 100}, {"time": 508, "pitch": 64, "duration": 10, "velocity": 78}, {"time": 511, "pitch": 45, "duration": 3, "velocity": 96}, {"time": 517, "pitch": 45, "duration": 7, "velocity": 102}, {"time": 523, "pitch": 57, "duration": 3, "velocity": 95}, {"time": 523, "pitch": 61, "duration": 13, "velocity": 127}, {"time": 523, "pitch": 64, "duration": 12, "velocity": 102}, {"time": 535, "pitch": 40, "duration": 24, "velocity": 81}, {"time": 535, "pitch": 52, "duration": 24, "velocity": 97}, {"time": 547, "pitch": 59, "duration": 8, "velocity": 95}, {"time": 547, "pitch": 64, "duration": 8, "velocity": 100}, {"time": 547, "pitch": 68, "duration": 8, "velocity": 99}, {"time": 556, "pitch": 59, "duration": 4, "velocity": 83}, {"time": 556, "pitch": 64, "duration": 5, "velocity": 92}, {"time": 556, "pitch": 68, "duration": 5, "velocity": 99}, {"time": 559, "pitch": 40, "duration": 3, "velocity": 71}, {"time": 559, "pitch": 52, "duration": 2, "velocity": 83}, {"time": 565, "pitch": 40, "duration": 15, "velocity": 75}, {"time": 565, "pitch": 52, "duration": 15, "velocity": 102}, {"time": 571, "pitch": 64, "duration": 13, "velocity": 117}, {"time": 571, "pitch": 68, "duration": 13, "velocity": 117}, {"time": 577, "pitch": 59, "duration": 7, "velocity": 95}, {"time": 583, "pitch": 40, "duration": 22, "velocity": 82}, {"time": 583, "pitch": 52, "duration": 23, "velocity": 100}, {"time": 595, "pitch": 59, "duration": 7, "velocity": 99}, {"time": 595, "pitch": 64, "duration": 7, "velocity": 97}, {"time": 595, "pitch": 68, "duration": 7, "velocity": 97}, {"time": 604, "pitch": 59, "duration": 9, "velocity": 93}, {"time": 604, "pitch": 64, "duration": 10, "velocity": 95}, {"time": 604, "pitch": 68, "duration": 10, "velocity": 97}, {"time": 607, "pitch": 40, "duration": 2, "velocity": 77}, {"time": 607, "pitch": 52, "duration": 2, "velocity": 88}, {"time": 613, "pitch": 40, "duration": 9, "velocity": 83}, {"time": 613, "pitch": 52, "duration": 10, "velocity": 96}, {"time": 619, "pitch": 64, "duration": 12, "velocity": 112}, {"time": 619, "pitch": 68, "duration": 12, "velocity": 127}, {"time": 625, "pitch": 59, "duration": 6, "velocity": 99}, {"time": 631, "pitch": 42, "duration": 23, "velocity": 93}, {"time": 631, "pitch": 54, "duration": 22, "velocity": 93}, {"time": 643, "pitch": 57, "duration": 7, "velocity": 95}, {"time": 643, "pitch": 61, "duration": 7, "velocity": 107}, {"time": 643, "pitch": 66, "duration": 8, "velocity": 88}, {"time": 652, "pitch": 57, "duration": 7, "velocity": 89}, {"time": 652, "pitch": 61, "duration": 7, "velocity": 107}, {"time": 652, "pitch": 66, "duration": 9, "velocity": 93}, {"time": 655, "pitch": 42, "duration": 2, "velocity": 89}, {"time": 655, "pitch": 54, "duration": 2, "velocity": 75}, {"time": 661, "pitch": 42, "duration": 8, "velocity": 92}, {"time": 661, "pitch": 54, "duration": 8, "velocity": 93}, {"time": 667, "pitch": 61, "duration": 12, "velocity": 127}, {"time": 667, "pitch": 66, "duration": 11, "velocity": 122}, {"time": 673, "pitch": 57, "duration": 7, "velocity": 86}, {"time": 679, "pitch": 45, "duration": 23, "velocity": 99}, {"time": 691, "pitch": 57, "duration": 8, "velocity": 93}, {"time": 691, "pitch": 61, "duration": 8, "velocity": 112}, {"time": 691, "pitch": 64, "duration": 8, "velocity": 90}, {"time": 700, "pitch": 57, "duration": 6, "velocity": 88}, {"time": 700, "pitch": 61, "duration": 9, "velocity": 117}, {"time": 700, "pitch": 64, "duration": 10, "velocity": 86}, {"time": 703, "pitch": 45, "duration": 3, "velocity": 82}, {"time": 709, "pitch": 45, "duration": 7, "velocity": 93}, {"time": 715, "pitch": 61, "duration": 12, "velocity": 127}, {"time": 715, "pitch": 64, "duration": 12, "velocity": 102}, {"time": 721, "pitch": 57, "duration": 7, "velocity": 78}, {"time": 727, "pitch": 40, "duration": 25, "velocity": 76}, {"time": 727, "pitch": 52, "duration": 25, "velocity": 99}, {"time": 739, "pitch": 59, "duration": 8, "velocity": 90}, {"time": 739, "pitch": 64, "duration": 8, "velocity": 95}, {"time": 739, "pitch": 68, "duration": 8, "velocity": 95}, {"time": 748, "pitch": 59, "duration": 7, "velocity": 93}, {"time": 748, "pitch": 64, "duration": 9, "velocity": 95}, {"time": 748, "pitch": 68, "duration": 8, "velocity": 96}, {"time": 751, "pitch": 40, "duration": 1, "velocity": 81}, {"time": 751, "pitch": 52, "duration": 1, "velocity": 82}, {"time": 757, "pitch": 40, "duration": 14, "velocity": 89}, {"time": 757, "pitch": 52, "duration": 14, "velocity": 95}, {"time": 763, "pitch": 64, "duration": 9, "velocity": 117}, {"time": 763, "pitch": 68, "duration": 9, "velocity": 127}, {"time": 769, "pitch": 59, "duration": 4, "velocity": 79}, {"time": 775, "pitch": 40, "duration": 46, "velocity": 86}, {"time": 775, "pitch": 52, "duration": 44, "velocity": 95}, {"time": 775, "pitch": 59, "duration": 46, "velocity": 99}, {"time": 775, "pitch": 64, "duration": 47, "velocity": 96}, {"time": 775, "pitch": 68, "duration": 47, "velocity": 107}, {"time": 823, "pitch": 37, "duration": 28, "velocity": 100}, {"time": 835, "pitch": 61, "duration": 7, "velocity": 93}, {"time": 835, "pitch": 64, "duration": 6, "velocity": 86}, {"time": 835, "pitch": 68, "duration": 7, "velocity": 85}, {"time": 844, "pitch": 61, "duration": 11, "velocity": 73}, {"time": 844, "pitch": 64, "duration": 10, "velocity": 64}, {"time": 844, "pitch": 68, "duration": 11, "velocity": 64}, {"time": 847, "pitch": 49, "duration": 3, "velocity": 58}, {"time": 853, "pitch": 37, "duration": 8, "velocity": 58}, {"time": 853, "pitch": 49, "duration": 9, "velocity": 90}, {"time": 859, "pitch": 64, "duration": 12, "velocity": 96}, {"time": 859, "pitch": 68, "duration": 12, "velocity": 107}, {"time": 865, "pitch": 61, "duration": 6, "velocity": 81}, {"time": 871, "pitch": 45, "duration": 25, "velocity": 79}, {"time": 883, "pitch": 57, "duration": 8, "velocity": 81}, {"time": 883, "pitch": 61, "duration": 8, "velocity": 81}, {"time": 883, "pitch": 64, "duration": 8, "velocity": 75}, {"time": 892, "pitch": 52, "duration": 4, "velocity": 61}, {"time": 892, "pitch": 57, "duration": 9, "velocity": 74}, {"time": 892, "pitch": 61, "duration": 9, "velocity": 96}, {"time": 892, "pitch": 64, "duration": 10, "velocity": 81}, {"time": 901, "pitch": 52, "duration": 10, "velocity": 79}, {"time": 907, "pitch": 61, "duration": 7, "velocity": 127}, {"time": 907, "pitch": 64, "duration": 5, "velocity": 96}, {"time": 913, "pitch": 57, "duration": 1, "velocity": 54}, {"time": 919, "pitch": 47, "duration": 33, "velocity": 73}, {"time": 919, "pitch": 59, "duration": 5, "velocity": 86}, {"time": 919, "pitch": 63, "duration": 5, "velocity": 100}, {"time": 919, "pitch": 66, "duration": 5, "velocity": 95}, {"time": 931, "pitch": 59, "duration": 2, "velocity": 90}, {"time": 931, "pitch": 63, "duration": 2, "velocity": 127}, {"time": 931, "pitch": 66, "duration": 2, "velocity": 117}, {"time": 937, "pitch": 54, "duration": 3, "velocity": 26}, {"time": 940, "pitch": 59, "duration": 2, "velocity": 79}, {"time": 940, "pitch": 63, "duration": 2, "velocity": 107}, {"time": 940, "pitch": 66, "duration": 2, "velocity": 93}, {"time": 943, "pitch": 54, "duration": 8, "velocity": 66}, {"time": 949, "pitch": 59, "duration": 2, "velocity": 83}, {"time": 949, "pitch": 63, "duration": 2, "velocity": 102}, {"time": 949, "pitch": 66, "duration": 2, "velocity": 96}, {"time": 955, "pitch": 63, "duration": 5, "velocity": 127}, {"time": 955, "pitch": 66, "duration": 6, "velocity": 127}, {"time": 961, "pitch": 59, "duration": 4, "velocity": 63}, {"time": 967, "pitch": 40, "duration": 36, "velocity": 72}, {"time": 967, "pitch": 52, "duration": 34, "velocity": 79}, {"time": 967, "pitch": 59, "duration": 9, "velocity": 88}, {"time": 967, "pitch": 64, "duration": 10, "velocity": 90}, {"time": 967, "pitch": 68, "duration": 10, "velocity": 90}, {"time": 979, "pitch": 59, "duration": 7, "velocity": 85}, {"time": 979, "pitch": 64, "duration": 7, "velocity": 86}, {"time": 979, "pitch": 68, "duration": 7, "velocity": 85}, {"time": 988, "pitch": 59, "duration": 3, "velocity": 88}, {"time": 988, "pitch": 64, "duration": 3, "velocity": 82}, {"time": 988, "pitch": 68, "duration": 3, "velocity": 85}, {"time": 997, "pitch": 64, "duration": 10, "velocity": 96}, {"time": 997, "pitch": 68, "duration": 11, "velocity": 96}, {"time": 1003, "pitch": 59, "duration": 6, "velocity": 86}, {"time": 1015, "pitch": 37, "duration": 31, "velocity": 85}, {"time": 1015, "pitch": 49, "duration": 31, "velocity": 62}, {"time": 1015, "pitch": 61, "duration": 9, "velocity": 96}, {"time": 1015, "pitch": 64, "duration": 3, "velocity": 88}, {"time": 1015, "pitch": 68, "duration": 7, "velocity": 96}, {"time": 1027, "pitch": 61, "duration": 3, "velocity": 95}, {"time": 1027, "pitch": 64, "duration": 2, "velocity": 89}, {"time": 1027, "pitch": 68, "duration": 3, "velocity": 95}, {"time": 1036, "pitch": 61, "duration": 2, "velocity": 92}, {"time": 1036, "pitch": 64, "duration": 2, "velocity": 74}, {"time": 1036, "pitch": 68, "duration": 2, "velocity": 85}, {"time": 1045, "pitch": 61, "duration": 2, "velocity": 86}, {"time": 1045, "pitch": 64, "duration": 11, "velocity": 93}, {"time": 1045, "pitch": 68, "duration": 12, "velocity": 99}, {"time": 1057, "pitch": 61, "duration": 1, "velocity": 90}, {"time": 1063, "pitch": 45, "duration": 39, "velocity": 76}, {"time": 1063, "pitch": 57, "duration": 11, "velocity": 96}, {"time": 1063, "pitch": 61, "duration": 11, "velocity": 100}, {"time": 1063, "pitch": 64, "duration": 11, "velocity": 89}, {"time": 1075, "pitch": 57, "duration": 6, "velocity": 93}, {"time": 1075, "pitch": 61, "duration": 6, "velocity": 97}, {"time": 1075, "pitch": 64, "duration": 6, "velocity": 82}, {"time": 1084, "pitch": 57, "duration": 4, "velocity": 81}, {"time": 1084, "pitch": 61, "duration": 5, "velocity": 95}, {"time": 1084, "pitch": 64, "duration": 5, "velocity": 78}, {"time": 1087, "pitch": 52, "duration": 9, "velocity": 41}, {"time": 1093, "pitch": 57, "duration": 9, "velocity": 42}, {"time": 1093, "pitch": 61, "duration": 9, "velocity": 107}, {"time": 1093, "pitch": 64, "duration": 9, "velocity": 88}, {"time": 1099, "pitch": 52, "duration": 3, "velocity": 66}, {"time": 1105, "pitch": 61, "duration": 2, "velocity": 107}, {"time": 1105, "pitch": 64, "duration": 1, "velocity": 56}, {"time": 1111, "pitch": 47, "duration": 22, "velocity": 79}, {"time": 1111, "pitch": 59, "duration": 10, "velocity": 93}, {"time": 1111, "pitch": 63, "duration": 11, "velocity": 107}, {"time": 1111, "pitch": 66, "duration": 9, "velocity": 90}, {"time": 1123, "pitch": 59, "duration": 7, "velocity": 89}, {"time": 1123, "pitch": 63, "duration": 7, "velocity": 112}, {"time": 1123, "pitch": 66, "duration": 7, "velocity": 107}, {"time": 1132, "pitch": 59, "duration": 3, "velocity": 63}, {"time": 1132, "pitch": 63, "duration": 3, "velocity": 112}, {"time": 1132, "pitch": 66, "duration": 3, "velocity": 95}, {"time": 1135, "pitch": 47, "duration": 9, "velocity": 59}, {"time": 1141, "pitch": 59, "duration": 3, "velocity": 89}, {"time": 1141, "pitch": 63, "duration": 4, "velocity": 122}, {"time": 1141, "pitch": 66, "duration": 4, "velocity": 117}, {"time": 1147, "pitch": 59, "duration": 2, "velocity": 95}, {"time": 1147, "pitch": 63, "duration": 2, "velocity": 112}, {"time": 1147, "pitch": 66, "duration": 3, "velocity": 112}, {"time": 1159, "pitch": 37, "duration": 33, "velocity": 82}, {"time": 1159, "pitch": 49, "duration": 21, "velocity": 85}, {"time": 1159, "pitch": 61, "duration": 11, "velocity": 112}, {"time": 1159, "pitch": 64, "duration": 10, "velocity": 93}, {"time": 1159, "pitch": 68, "duration": 11, "velocity": 97}, {"time": 1171, "pitch": 61, "duration": 7, "velocity": 97}, {"time": 1171, "pitch": 64, "duration": 7, "velocity": 92}, {"time": 1171, "pitch": 68, "duration": 7, "velocity": 89}, {"time": 1180, "pitch": 61, "duration": 2, "velocity": 95}, {"time": 1180, "pitch": 64, "duration": 2, "velocity": 86}, {"time": 1180, "pitch": 68, "duration": 2, "velocity": 90}, {"time": 1183, "pitch": 49, "duration": 9, "velocity": 56}, {"time": 1189, "pitch": 61, "duration": 4, "velocity": 100}, {"time": 1189, "pitch": 64, "duration": 5, "velocity": 95}, {"time": 1189, "pitch": 68, "duration": 12, "velocity": 107}, {"time": 1195, "pitch": 64, "duration": 4, "velocity": 35}, {"time": 1201, "pitch": 61, "duration": 1, "velocity": 96}, {"time": 1207, "pitch": 45, "duration": 34, "velocity": 75}, {"time": 1207, "pitch": 57, "duration": 10, "velocity": 95}, {"time": 1207, "pitch": 61, "duration": 10, "velocity": 102}, {"time": 1207, "pitch": 64, "duration": 10, "velocity": 92}, {"time": 1219, "pitch": 57, "duration": 6, "velocity": 92}, {"time": 1219, "pitch": 61, "duration": 6, "velocity": 117}, {"time": 1219, "pitch": 64, "duration": 6, "velocity": 89}, {"time": 1228, "pitch": 57, "duration": 4, "velocity": 82}, {"time": 1228, "pitch": 61, "duration": 4, "velocity": 97}, {"time": 1228, "pitch": 64, "duration": 4, "velocity": 82}, {"time": 1231, "pitch": 52, "duration": 10, "velocity": 68}, {"time": 1237, "pitch": 57, "duration": 10, "velocity": 92}, {"time": 1237, "pitch": 61, "duration": 9, "velocity": 102}, {"time": 1237, "pitch": 64, "duration": 10, "velocity": 92}, {"time": 1249, "pitch": 57, "duration": 4, "velocity": 82}, {"time": 1249, "pitch": 61, "duration": 3, "velocity": 96}, {"time": 1249, "pitch": 64, "duration": 2, "velocity": 66}, {"time": 1255, "pitch": 42, "duration": 33, "velocity": 88}, {"time": 1255, "pitch": 54, "duration": 20, "velocity": 96}, {"time": 1255, "pitch": 57, "duration": 10, "velocity": 88}, {"time": 1255, "pitch": 61, "duration": 8, "velocity": 112}, {"time": 1255, "pitch": 66, "duration": 9, "velocity": 93}, {"time": 1267, "pitch": 57, "duration": 6, "velocity": 88}, {"time": 1267, "pitch": 61, "duration": 7, "velocity": 117}, {"time": 1267, "pitch": 66, "duration": 7, "velocity": 95}, {"time": 1276, "pitch": 57, "duration": 5, "velocity": 76}, {"time": 1276, "pitch": 61, "duration": 5, "velocity": 99}, {"time": 1276, "pitch": 66, "duration": 6, "velocity": 83}, {"time": 1279, "pitch": 54, "duration": 12, "velocity": 56}, {"time": 1285, "pitch": 61, "duration": 8, "velocity": 112}, {"time": 1285, "pitch": 66, "duration": 11, "velocity": 100}, {"time": 1291, "pitch": 57, "duration": 8, "velocity": 112}, {"time": 1297, "pitch": 61, "duration": 5, "velocity": 102}, {"time": 1303, "pitch": 47, "duration": 34, "velocity": 82}, {"time": 1303, "pitch": 59, "duration": 10, "velocity": 102}, {"time": 1303, "pitch": 63, "duration": 10, "velocity": 122}, {"time": 1303, "pitch": 66, "duration": 10, "velocity": 107}, {"time": 1309, "pitch": 54, "duration": 9, "velocity": 66}, {"time": 1315, "pitch": 59, "duration": 7, "velocity": 99}, {"time": 1315, "pitch": 63, "duration": 8, "velocity": 127}, {"time": 1315, "pitch": 66, "duration": 8, "velocity": 112}, {"time": 1321, "pitch": 54, "duration": 4, "velocity": 66}, {"time": 1324, "pitch": 59, "duration": 3, "velocity": 93}, {"time": 1324, "pitch": 63, "duration": 4, "velocity": 122}, {"time": 1324, "pitch": 66, "duration": 4, "velocity": 112}, {"time": 1327, "pitch": 54, "duration": 9, "velocity": 83}, {"time": 1333, "pitch": 59, "duration": 3, "velocity": 97}, {"time": 1333, "pitch": 63, "duration": 3, "velocity": 127}, {"time": 1333, "pitch": 66, "duration": 3, "velocity": 127}, {"time": 1339, "pitch": 47, "duration": 9, "velocity": 96}, {"time": 1339, "pitch": 54, "duration": 10, "velocity": 127}, {"time": 1339, "pitch": 63, "duration": 10, "velocity": 127}, {"time": 1339, "pitch": 66, "duration": 9, "velocity": 127}, {"time": 1345, "pitch": 59, "duration": 4, "velocity": 93}, {"time": 1351, "pitch": 47, "duration": 5, "velocity": 90}, {"time": 1351, "pitch": 54, "duration": 4, "velocity": 127}, {"time": 1351, "pitch": 59, "duration": 4, "velocity": 93}, {"time": 1351, "pitch": 63, "duration": 5, "velocity": 127}, {"time": 1351, "pitch": 66, "duration": 5, "velocity": 122}, {"time": 1357, "pitch": 47, "duration": 4, "velocity": 58}, {"time": 1357, "pitch": 54, "duration": 4, "velocity": 100}, {"time": 1357, "pitch": 59, "duration": 4, "velocity": 79}, {"time": 1357, "pitch": 63, "duration": 4, "velocity": 97}, {"time": 1357, "pitch": 66, "duration": 4, "velocity": 96}, {"time": 1363, "pitch": 47, "duration": 4, "velocity": 85}, {"time": 1363, "pitch": 54, "duration": 4, "velocity": 117}, {"time": 1363, "pitch": 59, "duration": 4, "velocity": 96}, {"time": 1363, "pitch": 63, "duration": 4, "velocity": 127}, {"time": 1363, "pitch": 66, "duration": 4, "velocity": 112}, {"time": 1369, "pitch": 47, "duration": 3, "velocity": 78}, {"time": 1369, "pitch": 54, "duration": 3, "velocity": 107}, {"time": 1369, "pitch": 59, "duration": 4, "velocity": 96}, {"time": 1369, "pitch": 63, "duration": 4, "velocity": 112}, {"time": 1369, "pitch": 66, "duration": 4, "velocity": 102}, {"time": 1375, "pitch": 47, "duration": 3, "velocity": 83}, {"time": 1375, "pitch": 54, "duration": 3, "velocity": 122}, {"time": 1375, "pitch": 59, "duration": 3, "velocity": 97}, {"time": 1375, "pitch": 63, "duration": 4, "velocity": 127}, {"time": 1375, "pitch": 66, "duration": 4, "velocity": 122}, {"time": 1381, "pitch": 47, "duration": 3, "velocity": 72}, {"time": 1381, "pitch": 54, "duration": 3, "velocity": 117}, {"time": 1381, "pitch": 59, "duration": 3, "velocity": 95}, {"time": 1381, "pitch": 63, "duration": 4, "velocity": 127}, {"time": 1381, "pitch": 66, "duration": 4, "velocity": 127}, {"time": 1387, "pitch": 47, "duration": 2, "velocity": 70}, {"time": 1387, "pitch": 54, "duration": 2, "velocity": 127}, {"time": 1387, "pitch": 59, "duration": 3, "velocity": 107}, {"time": 1387, "pitch": 63, "duration": 3, "velocity": 127}, {"time": 1387, "pitch": 66, "duration": 3, "velocity": 122}, {"time": 1393, "pitch": 59, "duration": 3, "velocity": 95}, {"time": 1393, "pitch": 63, "duration": 3, "velocity": 127}, {"time": 1393, "pitch": 66, "duration": 3, "velocity": 112}, {"time": 1399, "pitch": 40, "duration": 21, "velocity": 86}, {"time": 1399, "pitch": 52, "duration": 21, "velocity": 96}, {"time": 1399, "pitch": 59, "duration": 9, "velocity": 107}, {"time": 1399, "pitch": 64, "duration": 9, "velocity": 107}, {"time": 1399, "pitch": 68, "duration": 9, "velocity": 122}, {"time": 1411, "pitch": 59, "duration": 7, "velocity": 107}, {"time": 1411, "pitch": 64, "duration": 7, "velocity": 117}, {"time": 1411, "pitch": 68, "duration": 7, "velocity": 117}, {"time": 1420, "pitch": 59, "duration": 5, "velocity": 97}, {"time": 1420, "pitch": 64, "duration": 9, "velocity": 99}, {"time": 1420, "pitch": 68, "duration": 7, "velocity": 100}, {"time": 1423, "pitch": 40, "duration": 3, "velocity": 83}, {"time": 1423, "pitch": 52, "duration": 3, "velocity": 99}, {"time": 1429, "pitch": 40, "duration": 8, "velocity": 89}, {"time": 1429, "pitch": 52, "duration": 8, "velocity": 96}, {"time": 1435, "pitch": 64, "duration": 11, "velocity": 127}, {"time": 1435, "pitch": 68, "duration": 13, "velocity": 127}, {"time": 1441, "pitch": 59, "duration": 6, "velocity": 100}, {"time": 1447, "pitch": 37, "duration": 21, "velocity": 93}, {"time": 1447, "pitch": 49, "duration": 21, "velocity": 102}, {"time": 1459, "pitch": 61, "duration": 7, "velocity": 102}, {"time": 1459, "pitch": 64, "duration": 7, "velocity": 97}, {"time": 1459, "pitch": 68, "duration": 7, "velocity": 97}, {"time": 1468, "pitch": 61, "duration": 6, "velocity": 100}, {"time": 1468, "pitch": 64, "duration": 6, "velocity": 89}, {"time": 1468, "pitch": 68, "duration": 9, "velocity": 95}, {"time": 1471, "pitch": 37, "duration": 2, "velocity": 88}, {"time": 1471, "pitch": 49, "duration": 2, "velocity": 99}, {"time": 1477, "pitch": 37, "duration": 8, "velocity": 93}, {"time": 1477, "pitch": 49, "duration": 7, "velocity": 96}, {"time": 1483, "pitch": 64, "duration": 7, "velocity": 117}, {"time": 1483, "pitch": 68, "duration": 7, "velocity": 127}, {"time": 1489, "pitch": 61, "duration": 2, "velocity": 99}, {"time": 1495, "pitch": 33, "duration": 21, "velocity": 76}, {"time": 1495, "pitch": 45, "duration": 21, "velocity": 100}, {"time": 1507, "pitch": 57, "duration": 7, "velocity": 99}, {"time": 1507, "pitch": 61, "duration": 7, "velocity": 117}, {"time": 1507, "pitch": 64, "duration": 7, "velocity": 97}, {"time": 1516, "pitch": 57, "duration": 4, "velocity": 88}, {"time": 1516, "pitch": 61, "duration": 4, "velocity": 96}, {"time": 1516, "pitch": 64, "duration": 5, "velocity": 78}, {"time": 1519, "pitch": 33, "duration": 2, "velocity": 68}, {"time": 1519, "pitch": 45, "duration": 2, "velocity": 95}, {"time": 1525, "pitch": 33, "duration": 6, "velocity": 83}, {"time": 1525, "pitch": 45, "duration": 7, "velocity": 99}, {"time": 1531, "pitch": 61, "duration": 5, "velocity": 127}, {"time": 1531, "pitch": 64, "duration": 5, "velocity": 100}, {"time": 1537, "pitch": 57, "duration": 4, "velocity": 70}, {"time": 1543, "pitch": 42, "duration": 15, "velocity": 65}, {"time": 1543, "pitch": 54, "duration": 14, "velocity": 96}, {"time": 1543, "pitch": 57, "duration": 9, "velocity": 93}, {"time": 1543, "pitch": 61, "duration": 9, "velocity": 127}, {"time": 1543, "pitch": 66, "duration": 9, "velocity": 112}, {"time": 1555, "pitch": 57, "duration": 6, "velocity": 92}, {"time": 1555, "pitch": 61, "duration": 6, "velocity": 127}, {"time": 1555, "pitch": 66, "duration": 6, "velocity": 102}, {"time": 1561, "pitch": 61, "duration": 3, "velocity": 117}, {"time": 1564, "pitch": 57, "duration": 2, "velocity": 67}, {"time": 1564, "pitch": 66, "duration": 2, "velocity": 79}, {"time": 1567, "pitch": 47, "duration": 3, "velocity": 117}, {"time": 1567, "pitch": 59, "duration": 2, "velocity": 86}, {"time": 1567, "pitch": 60, "duration": 1, "velocity": 78}, {"time": 1567, "pitch": 63, "duration": 2, "velocity": 107}, {"time": 1567, "pitch": 66, "duration": 2, "velocity": 102}, {"time": 1573, "pitch": 47, "duration": 11, "velocity": 127}, {"time": 1573, "pitch": 59, "duration": 10, "velocity": 107}, {"time": 1573, "pitch": 63, "duration": 10, "velocity": 127}, {"time": 1573, "pitch": 66, "duration": 9, "velocity": 122}, {"time": 1585, "pitch": 59, "duration": 3, "velocity": 95}, {"time": 1585, "pitch": 63, "duration": 3, "velocity": 127}, {"time": 1585, "pitch": 66, "duration": 2, "velocity": 122}, {"time": 1591, "pitch": 40, "duration": 23, "velocity": 75}, {"time": 1591, "pitch": 52, "duration": 22, "velocity": 100}, {"time": 1591, "pitch": 59, "duration": 10, "velocity": 96}, {"time": 1591, "pitch": 64, "duration": 10, "velocity": 107}, {"time": 1591, "pitch": 68, "duration": 10, "velocity": 117}, {"time": 1603, "pitch": 59, "duration": 7, "velocity": 96}, {"time": 1603, "pitch": 64, "duration": 7, "velocity": 102}, {"time": 1603, "pitch": 68, "duration": 7, "velocity": 102}, {"time": 1612, "pitch": 59, "duration": 6, "velocity": 85}, {"time": 1612, "pitch": 64, "duration": 7, "velocity": 96}, {"time": 1612, "pitch": 68, "duration": 7, "velocity": 97}, {"time": 1615, "pitch": 40, "duration": 2, "velocity": 71}, {"time": 1615, "pitch": 52, "duration": 3, "velocity": 90}, {"time": 1621, "pitch": 40, "duration": 7, "velocity": 85}, {"time": 1621, "pitch": 52, "duration": 7, "velocity": 95}, {"time": 1627, "pitch": 64, "duration": 5, "velocity": 127}, {"time": 1627, "pitch": 68, "duration": 6, "velocity": 127}, {"time": 1639, "pitch": 37, "duration": 21, "velocity": 82}, {"time": 1639, "pitch": 49, "duration": 17, "velocity": 99}, {"time": 1639, "pitch": 61, "duration": 9, "velocity": 100}, {"time": 1639, "pitch": 64, "duration": 6, "velocity": 95}, {"time": 1639, "pitch": 68, "duration": 6, "velocity": 97}, {"time": 1651, "pitch": 61, "duration": 6, "velocity": 107}, {"time": 1651, "pitch": 64, "duration": 5, "velocity": 99}, {"time": 1651, "pitch": 68, "duration": 5, "velocity": 100}, {"time": 1657, "pitch": 49, "duration": 3, "velocity": 27}, {"time": 1660, "pitch": 61, "duration": 6, "velocity": 97}, {"time": 1660, "pitch": 64, "duration": 5, "velocity": 90}, {"time": 1660, "pitch": 68, "duration": 6, "velocity": 97}, {"time": 1663, "pitch": 37, "duration": 3, "velocity": 73}, {"time": 1663, "pitch": 49, "duration": 2, "velocity": 75}, {"time": 1669, "pitch": 37, "duration": 7, "velocity": 99}, {"time": 1669, "pitch": 49, "duration": 6, "velocity": 99}, {"time": 1675, "pitch": 64, "duration": 2, "velocity": 102}, {"time": 1675, "pitch": 68, "duration": 2, "velocity": 127}, {"time": 1687, "pitch": 33, "duration": 21, "velocity": 67}, {"time": 1687, "pitch": 45, "duration": 21, "velocity": 100}, {"time": 1687, "pitch": 57, "duration": 6, "velocity": 97}, {"time": 1687, "pitch": 61, "duration": 6, "velocity": 122}, {"time": 1687, "pitch": 64, "duration": 7, "velocity": 93}, {"time": 1699, "pitch": 57, "duration": 3, "velocity": 96}, {"time": 1699, "pitch": 61, "duration": 3, "velocity": 127}, {"time": 1699, "pitch": 64, "duration": 3, "velocity": 95}, {"time": 1708, "pitch": 57, "duration": 6, "velocity": 93}, {"time": 1708, "pitch": 61, "duration": 10, "velocity": 122}, {"time": 1708, "pitch": 64, "duration": 10, "velocity": 92}, {"time": 1711, "pitch": 33, "duration": 2, "velocity": 71}, {"time": 1711, "pitch": 45, "duration": 2, "velocity": 99}, {"time": 1717, "pitch": 33, "duration": 6, "velocity": 72}, {"time": 1717, "pitch": 45, "duration": 8, "velocity": 107}, {"time": 1723, "pitch": 61, "duration": 5, "velocity": 127}, {"time": 1723, "pitch": 64, "duration": 5, "velocity": 99}, {"time": 1735, "pitch": 42, "duration": 15, "velocity": 97}, {"time": 1735, "pitch": 54, "duration": 15, "velocity": 97}, {"time": 1735, "pitch": 57, "duration": 9, "velocity": 96}, {"time": 1735, "pitch": 61, "duration": 7, "velocity": 117}, {"time": 1735, "pitch": 66, "duration": 10, "velocity": 102}, {"time": 1747, "pitch": 57, "duration": 6, "velocity": 107}, {"time": 1747, "pitch": 61, "duration": 6, "velocity": 127}, {"time": 1747, "pitch": 66, "duration": 6, "velocity": 122}, {"time": 1756, "pitch": 61, "duration": 2, "velocity": 112}, {"time": 1756, "pitch": 66, "duration": 2, "velocity": 69}, {"time": 1759, "pitch": 47, "duration": 2, "velocity": 95}, {"time": 1759, "pitch": 59, "duration": 2, "velocity": 99}, {"time": 1759, "pitch": 63, "duration": 2, "velocity": 112}, {"time": 1759, "pitch": 66, "duration": 2, "velocity": 96}, {"time": 1765, "pitch": 47, "duration": 16, "velocity": 117}, {"time": 1765, "pitch": 59, "duration": 10, "velocity": 100}, {"time": 1765, "pitch": 63, "duration": 10, "velocity": 127}, {"time": 1765, "pitch": 66, "duration": 10, "velocity": 127}, {"time": 1777, "pitch": 63, "duration": 4, "velocity": 127}, {"time": 1777, "pitch": 66, "duration": 4, "velocity": 122}, {"time": 1783, "pitch": 47, "duration": 4, "velocity": 117}, {"time": 1783, "pitch": 59, "duration": 3, "velocity": 102}, {"time": 1783, "pitch": 63, "duration": 4, "velocity": 127}, {"time": 1783, "pitch": 66, "duration": 3, "velocity": 112}, {"time": 1789, "pitch": 47, "duration": 4, "velocity": 95}, {"time": 1789, "pitch": 59, "duration": 3, "velocity": 81}, {"time": 1789, "pitch": 63, "duration": 3, "velocity": 92}, {"time": 1789, "pitch": 66, "duration": 3, "velocity": 92}, {"time": 1795, "pitch": 47, "duration": 4, "velocity": 102}, {"time": 1795, "pitch": 59, "duration": 3, "velocity": 93}, {"time": 1795, "pitch": 63, "duration": 3, "velocity": 127}, {"time": 1795, "pitch": 66, "duration": 4, "velocity": 117}, {"time": 1801, "pitch": 47, "duration": 4, "velocity": 107}, {"time": 1801, "pitch": 59, "duration": 3, "velocity": 86}, {"time": 1801, "pitch": 63, "duration": 3, "velocity": 107}, {"time": 1801, "pitch": 66, "duration": 3, "velocity": 96}, {"time": 1807, "pitch": 47, "duration": 47, "velocity": 96}, {"time": 1807, "pitch": 59, "duration": 48, "velocity": 102}, {"time": 1807, "pitch": 63, "duration": 47, "velocity": 117}, {"time": 1807, "pitch": 66, "duration": 48, "velocity": 102}, {"time": 1855, "pitch": 40, "duration": 22, "velocity": 86}, {"time": 1855, "pitch": 52, "duration": 22, "velocity": 107}, {"time": 1867, "pitch": 59, "duration": 7, "velocity": 96}, {"time": 1867, "pitch": 64, "duration": 7, "velocity": 102}, {"time": 1867, "pitch": 68, "duration": 7, "velocity": 102}, {"time": 1876, "pitch": 59, "duration": 11, "velocity": 82}, {"time": 1876, "pitch": 64, "duration": 11, "velocity": 100}, {"time": 1876, "pitch": 68, "duration": 11, "velocity": 99}, {"time": 1879, "pitch": 40, "duration": 3, "velocity": 62}, {"time": 1879, "pitch": 52, "duration": 2, "velocity": 86}, {"time": 1885, "pitch": 40, "duration": 17, "velocity": 89}, {"time": 1885, "pitch": 52, "duration": 16, "velocity": 97}, {"time": 1891, "pitch": 64, "duration": 11, "velocity": 93}, {"time": 1891, "pitch": 68, "duration": 12, "velocity": 99}, {"time": 1897, "pitch": 59, "duration": 6, "velocity": 99}, {"time": 1903, "pitch": 42, "duration": 23, "velocity": 107}, {"time": 1903, "pitch": 54, "duration": 23, "velocity": 100}, {"time": 1903, "pitch": 57, "duration": 4, "velocity": 97}, {"time": 1903, "pitch": 61, "duration": 3, "velocity": 112}, {"time": 1903, "pitch": 66, "duration": 4, "velocity": 96}, {"time": 1915, "pitch": 57, "duration": 3, "velocity": 90}, {"time": 1915, "pitch": 61, "duration": 3, "velocity": 112}, {"time": 1915, "pitch": 66, "duration": 3, "velocity": 92}, {"time": 1924, "pitch": 57, "duration": 8, "velocity": 77}, {"time": 1924, "pitch": 61, "duration": 8, "velocity": 96}, {"time": 1924, "pitch": 66, "duration": 9, "velocity": 82}, {"time": 1927, "pitch": 42, "duration": 2, "velocity": 95}, {"time": 1927, "pitch": 54, "duration": 2, "velocity": 95}, {"time": 1933, "pitch": 42, "duration": 9, "velocity": 107}, {"time": 1933, "pitch": 54, "duration": 9, "velocity": 107}, {"time": 1939, "pitch": 61, "duration": 8, "velocity": 127}, {"time": 1939, "pitch": 66, "duration": 7, "velocity": 122}, {"time": 1945, "pitch": 57, "duration": 5, "velocity": 82}, {"time": 1951, "pitch": 45, "duration": 21, "velocity": 88}, {"time": 1951, "pitch": 57, "duration": 10, "velocity": 99}, {"time": 1951, "pitch": 61, "duration": 10, "velocity": 112}, {"time": 1951, "pitch": 64, "duration": 10, "velocity": 95}, {"time": 1963, "pitch": 57, "duration": 6, "velocity": 99}, {"time": 1963, "pitch": 61, "duration": 6, "velocity": 117}, {"time": 1963, "pitch": 64, "duration": 7, "velocity": 95}, {"time": 1972, "pitch": 57, "duration": 7, "velocity": 89}, {"time": 1972, "pitch": 61, "duration": 9, "velocity": 100}, {"time": 1972, "pitch": 64, "duration": 10, "velocity": 78}, {"time": 1975, "pitch": 45, "duration": 3, "velocity": 96}, {"time": 1981, "pitch": 45, "duration": 7, "velocity": 102}, {"time": 1987, "pitch": 57, "duration": 3, "velocity": 95}, {"time": 1987, "pitch": 61, "duration": 13, "velocity": 127}, {"time": 1987, "pitch": 64, "duration": 12, "velocity": 102}, {"time": 1999, "pitch": 40, "duration": 24, "velocity": 81}, {"time": 1999, "pitch": 52, "duration": 24, "velocity": 97}, {"time": 2011, "pitch": 59, "duration": 8, "velocity": 95}, {"time": 2011, "pitch": 64, "duration": 8, "velocity": 100}, {"time": 2011, "pitch": 68, "duration": 8, "velocity": 99}, {"time": 2020, "pitch": 59, "duration": 4, "velocity": 83}, {"time": 2020, "pitch": 64, "duration": 5, "velocity": 92}, {"time": 2020, "pitch": 68, "duration": 5, "velocity": 99}, {"time": 2023, "pitch": 40, "duration": 3, "velocity": 71}, {"time": 2023, "pitch": 52, "duration": 2, "velocity": 83}, {"time": 2029, "pitch": 40, "duration": 15, "velocity": 75}, {"time": 2029, "pitch": 52, "duration": 15, "velocity": 102}, {"time": 2035, "pitch": 64, "duration": 13, "velocity": 117}, {"time": 2035, "pitch": 68, "duration": 13, "velocity": 117}, {"time": 2041, "pitch": 59, "duration": 7, "velocity": 95}, {"time": 2047, "pitch": 40, "duration": 22, "velocity": 82}, {"time": 2047, "pitch": 52, "duration": 23, "velocity": 100}, {"time": 2059, "pitch": 59, "duration": 7, "velocity": 99}, {"time": 2059, "pitch": 64, "duration": 7, "velocity": 97}, {"time": 2059, "pitch": 68, "duration": 7, "velocity": 97}, {"time": 2068, "pitch": 59, "duration": 9, "velocity": 93}, {"time": 2068, "pitch": 64, "duration": 10, "velocity": 95}, {"time": 2068, "pitch": 68, "duration": 10, "velocity": 97}, {"time": 2071, "pitch": 40, "duration": 2, "velocity": 77}, {"time": 2071, "pitch": 52, "duration": 2, "velocity": 88}, {"time": 2077, "pitch": 40, "duration": 9, "velocity": 83}, {"time": 2077, "pitch": 52, "duration": 10, "velocity": 96}, {"time": 2083, "pitch": 64, "duration": 12, "velocity": 112}, {"time": 2083, "pitch": 68, "duration": 12, "velocity": 127}, {"time": 2089, "pitch": 59, "duration": 6, "velocity": 99}, {"time": 2095, "pitch": 42, "duration": 23, "velocity": 93}, {"time": 2095, "pitch": 54, "duration": 22, "velocity": 93}, {"time": 2107, "pitch": 57, "duration": 7, "velocity": 95}, {"time": 2107, "pitch": 61, "duration": 7, "velocity": 107}, {"time": 2107, "pitch": 66, "duration": 8, "velocity": 88}, {"time": 2116, "pitch": 57, "duration": 7, "velocity": 89}, {"time": 2116, "pitch": 61, "duration": 7, "velocity": 107}, {"time": 2116, "pitch": 66, "duration": 9, "velocity": 93}, {"time": 2119, "pitch": 42, "duration": 2, "velocity": 89}, {"time": 2119, "pitch": 54, "duration": 2, "velocity": 75}, {"time": 2125, "pitch": 42, "duration": 8, "velocity": 92}, {"time": 2125, "pitch": 54, "duration": 8, "velocity": 93}, {"time": 2131, "pitch": 61, "duration": 12, "velocity": 127}, {"time": 2131, "pitch": 66, "duration": 11, "velocity": 122}, {"time": 2137, "pitch": 57, "duration": 7, "velocity": 86}, {"time": 2143, "pitch": 45, "duration": 23, "velocity": 99}, {"time": 2155, "pitch": 57, "duration": 8, "velocity": 93}, {"time": 2155, "pitch": 61, "duration": 8, "velocity": 112}, {"time": 2155, "pitch": 64, "duration": 8, "velocity": 90}, {"time": 2164, "pitch": 57, "duration": 6, "velocity": 88}, {"time": 2164, "pitch": 61, "duration": 9, "velocity": 117}, {"time": 2164, "pitch": 64, "duration": 10, "velocity": 86}, {"time": 2167, "pitch": 45, "duration": 3, "velocity": 82}, {"time": 2173, "pitch": 45, "duration": 7, "velocity": 93}, {"time": 2179, "pitch": 61, "duration": 12, "velocity": 127}, {"time": 2179, "pitch": 64, "duration": 12, "velocity": 102}, {"time": 2185, "pitch": 57, "duration": 7, "velocity": 78}, {"time": 2191, "pitch": 40, "duration": 25, "velocity": 76}, {"time": 2191, "pitch": 52, "duration": 25, "velocity": 99}, {"time": 2203, "pitch": 59, "duration": 8, "velocity": 90}, {"time": 2203, "pitch": 64, "duration": 8, "velocity": 95}, {"time": 2203, "pitch": 68, "duration": 8, "velocity": 95}, {"time": 2212, "pitch": 59, "duration": 7, "velocity": 93}, {"time": 2212, "pitch": 64, "duration": 9, "velocity": 95}, {"time": 2212, "pitch": 68, "duration": 8, "velocity": 96}, {"time": 2215, "pitch": 40, "duration": 1, "velocity": 81}, {"time": 2215, "pitch": 52, "duration": 1, "velocity": 82}, {"time": 2221, "pitch": 40, "duration": 14, "velocity": 89}, {"time": 2221, "pitch": 52, "duration": 14, "velocity": 95}, {"time": 2227, "pitch": 64, "duration": 9, "velocity": 117}, {"time": 2227, "pitch": 68, "duration": 9, "velocity": 127}, {"time": 2233, "pitch": 59, "duration": 4, "velocity": 79}, {"time": 2239, "pitch": 40, "duration": 46, "velocity": 86}, {"time": 2239, "pitch": 52, "duration": 44, "velocity": 95}, {"time": 2239, "pitch": 59, "duration": 46, "velocity": 99}, {"time": 2239, "pitch": 64, "duration": 47, "velocity": 96}, {"time": 2239, "pitch": 68, "duration": 47, "velocity": 107}, {"time": 2287, "pitch": 37, "duration": 28, "velocity": 100}, {"time": 2299, "pitch": 61, "duration": 7, "velocity": 93}, {"time": 2299, "pitch": 64, "duration": 6, "velocity": 86}, {"time": 2299, "pitch": 68, "duration": 7, "velocity": 85}, {"time": 2308, "pitch": 61, "duration": 11, "velocity": 73}, {"time": 2308, "pitch": 64, "duration": 10, "velocity": 64}, {"time": 2308, "pitch": 68, "duration": 11, "velocity": 64}, {"time": 2311, "pitch": 49, "duration": 3, "velocity": 58}, {"time": 2317, "pitch": 37, "duration": 8, "velocity": 58}, {"time": 2317, "pitch": 49, "duration": 9, "velocity": 90}, {"time": 2323, "pitch": 64, "duration": 12, "velocity": 96}, {"time": 2323, "pitch": 68, "duration": 12, "velocity": 107}, {"time": 2329, "pitch": 61, "duration": 6, "velocity": 81}, {"time": 2335, "pitch": 45, "duration": 25, "velocity": 79}, {"time": 2347, "pitch": 57, "duration": 8, "velocity": 81}, {"time": 2347, "pitch": 61, "duration": 8, "velocity": 81}, {"time": 2347, "pitch": 64, "duration": 8, "velocity": 75}, {"time": 2356, "pitch": 52, "duration": 4, "velocity": 61}, {"time": 2356, "pitch": 57, "duration": 9, "velocity": 74}, {"time": 2356, "pitch": 61, "duration": 9, "velocity": 96}, {"time": 2356, "pitch": 64, "duration": 10, "velocity": 81}, {"time": 2365, "pitch": 52, "duration": 10, "velocity": 79}, {"time": 2371, "pitch": 61, "duration": 7, "velocity": 127}, {"time": 2371, "pitch": 64, "duration": 5, "velocity": 96}, {"time": 2377, "pitch": 57, "duration": 1, "velocity": 54}, {"time": 2383, "pitch": 47, "duration": 33, "velocity": 73}, {"time": 2383, "pitch": 59, "duration": 5, "velocity": 86}, {"time": 2383, "pitch": 63, "duration": 5, "velocity": 100}, {"time": 2383, "pitch": 66, "duration": 5, "velocity": 95}, {"time": 2395, "pitch": 59, "duration": 2, "velocity": 90}, {"time": 2395, "pitch": 63, "duration": 2, "velocity": 127}, {"time": 2395, "pitch": 66, "duration": 2, "velocity": 117}, {"time": 2401, "pitch": 54, "duration": 3, "velocity": 26}, {"time": 2404, "pitch": 59, "duration": 2, "velocity": 79}, {"time": 2404, "pitch": 63, "duration": 2, "velocity": 107}, {"time": 2404, "pitch": 66, "duration": 2, "velocity": 93}, {"time": 2407, "pitch": 54, "duration": 8, "velocity": 66}, {"time": 2413, "pitch": 59, "duration": 2, "velocity": 83}, {"time": 2413, "pitch": 63, "duration": 2, "velocity": 102}, {"time": 2413, "pitch": 66, "duration": 2, "velocity": 96}, {"time": 2419, "pitch": 63, "duration": 5, "velocity": 127}, {"time": 2419, "pitch": 66, "duration": 6, "velocity": 127}, {"time": 2425, "pitch": 59, "duration": 4, "velocity": 63}, {"time": 2431, "pitch": 40, "duration": 36, "velocity": 72}, {"time": 2431, "pitch": 52, "duration": 34, "velocity": 79}, {"time": 2431, "pitch": 59, "duration": 9, "velocity": 88}, {"time": 2431, "pitch": 64, "duration": 10, "velocity": 90}, {"time": 2431, "pitch": 68, "duration": 10, "velocity": 90}, {"time": 2443, "pitch": 59, "duration": 7, "velocity": 85}, {"time": 2443, "pitch": 64, "duration": 7, "velocity": 86}, {"time": 2443, "pitch": 68, "duration": 7, "velocity": 85}, {"time": 2452, "pitch": 59, "duration": 3, "velocity": 88}, {"time": 2452, "pitch": 64, "duration": 3, "velocity": 82}, {"time": 2452, "pitch": 68, "duration": 3, "velocity": 85}, {"time": 2461, "pitch": 64, "duration": 10, "velocity": 96}, {"time": 2461, "pitch": 68, "duration": 11, "velocity": 96}, {"time": 2467, "pitch": 59, "duration": 6, "velocity": 86}, {"time": 2479, "pitch": 37, "duration": 31, "velocity": 85}, {"time": 2479, "pitch": 49, "duration": 31, "velocity": 62}, {"time": 2479, "pitch": 61, "duration": 9, "velocity": 96}, {"time": 2479, "pitch": 64, "duration": 3, "velocity": 88}, {"time": 2479, "pitch": 68, "duration": 7, "velocity": 96}, {"time": 2491, "pitch": 61, "duration": 3, "velocity": 95}, {"time": 2491, "pitch": 64, "duration": 2, "velocity": 89}, {"time": 2491, "pitch": 68, "duration": 3, "velocity": 95}, {"time": 2500, "pitch": 61, "duration": 2, "velocity": 92}, {"time": 2500, "pitch": 64, "duration": 2, "velocity": 74}, {"time": 2500, "pitch": 68, "duration": 2, "velocity": 85}, {"time": 2509, "pitch": 61, "duration": 2, "velocity": 86}, {"time": 2509, "pitch": 64, "duration": 11, "velocity": 93}, {"time": 2509, "pitch": 68, "duration": 12, "velocity": 99}, {"time": 2521, "pitch": 61, "duration": 1, "velocity": 90}, {"time": 2527, "pitch": 45, "duration": 39, "velocity": 76}, {"time": 2527, "pitch": 57, "duration": 11, "velocity": 96}, {"time": 2527, "pitch": 61, "duration": 11, "velocity": 100}, {"time": 2527, "pitch": 64, "duration": 11, "velocity": 89}, {"time": 2539, "pitch": 57, "duration": 6, "velocity": 93}, {"time": 2539, "pitch": 61, "duration": 6, "velocity": 97}, {"time": 2539, "pitch": 64, "duration": 6, "velocity": 82}, {"time": 2548, "pitch": 57, "duration": 4, "velocity": 81}, {"time": 2548, "pitch": 61, "duration": 5, "velocity": 95}, {"time": 2548, "pitch": 64, "duration": 5, "velocity": 78}, {"time": 2551, "pitch": 52, "duration": 9, "velocity": 41}, {"time": 2557, "pitch": 57, "duration": 9, "velocity": 42}, {"time": 2557, "pitch": 61, "duration": 9, "velocity": 107}, {"time": 2557, "pitch": 64, "duration": 9, "velocity": 88}, {"time": 2563, "pitch": 52, "duration": 3, "velocity": 66}, {"time": 2569, "pitch": 61, "duration": 2, "velocity": 107}, {"time": 2569, "pitch": 64, "duration": 1, "velocity": 56}, {"time": 2575, "pitch": 47, "duration": 22, "velocity": 79}, {"time": 2575, "pitch": 59, "duration": 10, "velocity": 93}, {"time": 2575, "pitch": 63, "duration": 11, "velocity": 107}, {"time": 2575, "pitch": 66, "duration": 9, "velocity": 90}, {"time": 2587, "pitch": 59, "duration": 7, "velocity": 89}, {"time": 2587, "pitch": 63, "duration": 7, "velocity": 112}, {"time": 2587, "pitch": 66, "duration": 7, "velocity": 107}, {"time": 2596, "pitch": 59, "duration": 3, "velocity": 63}, {"time": 2596, "pitch": 63, "duration": 3, "velocity": 112}, {"time": 2596, "pitch": 66, "duration": 3, "velocity": 95}, {"time": 2599, "pitch": 47, "duration": 9, "velocity": 59}, {"time": 2605, "pitch": 59, "duration": 3, "velocity": 89}, {"time": 2605, "pitch": 63, "duration": 4, "velocity": 122}, {"time": 2605, "pitch": 66, "duration": 4, "velocity": 117}, {"time": 2611, "pitch": 59, "duration": 2, "velocity": 95}, {"time": 2611, "pitch": 63, "duration": 2, "velocity": 112}, {"time": 2611, "pitch": 66, "duration": 3, "velocity": 112}, {"time": 2623, "pitch": 37, "duration": 33, "velocity": 82}, {"time": 2623, "pitch": 49, "duration": 21, "velocity": 85}, {"time": 2623, "pitch": 61, "duration": 11, "velocity": 112}, {"time": 2623, "pitch": 64, "duration": 10, "velocity": 93}, {"time": 2623, "pitch": 68, "duration": 11, "velocity": 97}, {"time": 2635, "pitch": 61, "duration": 7, "velocity": 97}, {"time": 2635, "pitch": 64, "duration": 7, "velocity": 92}, {"time": 2635, "pitch": 68, "duration": 7, "velocity": 89}, {"time": 2644, "pitch": 61, "duration": 2, "velocity": 95}, {"time": 2644, "pitch": 64, "duration": 2, "velocity": 86}, {"time": 2644, "pitch": 68, "duration": 2, "velocity": 90}, {"time": 2647, "pitch": 49, "duration": 9, "velocity": 56}, {"time": 2653, "pitch": 61, "duration": 4, "velocity": 100}, {"time": 2653, "pitch": 64, "duration": 5, "velocity": 95}, {"time": 2653, "pitch": 68, "duration": 12, "velocity": 107}, {"time": 2659, "pitch": 64, "duration": 4, "velocity": 35}, {"time": 2665, "pitch": 61, "duration": 1, "velocity": 96}, {"time": 2671, "pitch": 45, "duration": 34, "velocity": 75}, {"time": 2671, "pitch": 57, "duration": 10, "velocity": 95}, {"time": 2671, "pitch": 61, "duration": 10, "velocity": 102}, {"time": 2671, "pitch": 64, "duration": 10, "velocity": 92}, {"time": 2683, "pitch": 57, "duration": 6, "velocity": 92}, {"time": 2683, "pitch": 61, "duration": 6, "velocity": 117}, {"time": 2683, "pitch": 64, "duration": 6, "velocity": 89}, {"time": 2692, "pitch": 57, "duration": 4, "velocity": 82}, {"time": 2692, "pitch": 61, "duration": 4, "velocity": 97}, {"time": 2692, "pitch": 64, "duration": 4, "velocity": 82}, {"time": 2695, "pitch": 52, "duration": 10, "velocity": 68}, {"time": 2701, "pitch": 57, "duration": 10, "velocity": 92}, {"time": 2701, "pitch": 61, "duration": 9, "velocity": 102}, {"time": 2701, "pitch": 64, "duration": 10, "velocity": 92}, {"time": 2713, "pitch": 57, "duration": 4, "velocity": 82}, {"time": 2713, "pitch": 61, "duration": 3, "velocity": 96}, {"time": 2713, "pitch": 64, "duration": 2, "velocity": 66}, {"time": 2719, "pitch": 42, "duration": 33, "velocity": 88}, {"time": 2719, "pitch": 54, "duration": 20, "velocity": 96}, {"time": 2719, "pitch": 57, "duration": 10, "velocity": 88}, {"time": 2719, "pitch": 61, "duration": 8, "velocity": 112}, {"time": 2719, "pitch": 66, "duration": 9, "velocity": 93}, {"time": 2731, "pitch": 57, "duration": 6, "velocity": 88}, {"time": 2731, "pitch": 61, "duration": 7, "velocity": 117}, {"time": 2731, "pitch": 66, "duration": 7, "velocity": 95}, {"time": 2740, "pitch": 57, "duration": 5, "velocity": 76}, {"time": 2740, "pitch": 61, "duration": 5, "velocity": 99}, {"time": 2740, "pitch": 66, "duration": 6, "velocity": 83}, {"time": 2743, "pitch": 54, "duration": 12, "velocity": 56}, {"time": 2749, "pitch": 61, "duration": 8, "velocity": 112}, {"time": 2749, "pitch": 66, "duration": 11, "velocity": 100}, {"time": 2755, "pitch": 57, "duration": 8, "velocity": 112}, {"time": 2761, "pitch": 61, "duration": 5, "velocity": 102}, {"time": 2767, "pitch": 47, "duration": 34, "velocity": 82}, {"time": 2767, "pitch": 59, "duration": 10, "velocity": 102}, {"time": 2767, "pitch": 63, "duration": 10, "velocity": 122}, {"time": 2767, "pitch": 66, "duration": 10, "velocity": 107}, {"time": 2773, "pitch": 54, "duration": 9, "velocity": 66}, {"time": 2779, "pitch": 59, "duration": 7, "velocity": 99}, {"time": 2779, "pitch": 63, "duration": 8, "velocity": 127}, {"time": 2779, "pitch": 66, "duration": 8, "velocity": 112}, {"time": 2785, "pitch": 54, "duration": 4, "velocity": 66}, {"time": 2788, "pitch": 59, "duration": 3, "velocity": 93}, {"time": 2788, "pitch": 63, "duration": 4, "velocity": 122}, {"time": 2788, "pitch": 66, "duration": 4, "velocity": 112}, {"time": 2791, "pitch": 54, "duration": 9, "velocity": 83}, {"time": 2797, "pitch": 59, "duration": 3, "velocity": 97}, {"time": 2797, "pitch": 63, "duration": 3, "velocity": 127}, {"time": 2797, "pitch": 66, "duration": 3, "velocity": 127}, {"time": 2803, "pitch": 47, "duration": 9, "velocity": 96}, {"time": 2803, "pitch": 54, "duration": 10, "velocity": 127}, {"time": 2803, "pitch": 63, "duration": 10, "velocity": 127}, {"time": 2803, "pitch": 66, "duration": 9, "velocity": 127}, {"time": 2809, "pitch": 59, "duration": 4, "velocity": 93}, {"time": 2815, "pitch": 47, "duration": 5, "velocity": 90}, {"time": 2815, "pitch": 54, "duration": 4, "velocity": 127}, {"time": 2815, "pitch": 59, "duration": 4, "velocity": 93}, {"time": 2815, "pitch": 63, "duration": 5, "velocity": 127}, {"time": 2815, "pitch": 66, "duration": 5, "velocity": 122}, {"time": 2821, "pitch": 47, "duration": 4, "velocity": 58}, {"time": 2821, "pitch": 54, "duration": 4, "velocity": 100}, {"time": 2821, "pitch": 59, "duration": 4, "velocity": 79}, {"time": 2821, "pitch": 63, "duration": 4, "velocity": 97}, {"time": 2821, "pitch": 66, "duration": 4, "velocity": 96}, {"time": 2827, "pitch": 47, "duration": 4, "velocity": 85}, {"time": 2827, "pitch": 54, "duration": 4, "velocity": 117}, {"time": 2827, "pitch": 59, "duration": 4, "velocity": 96}, {"time": 2827, "pitch": 63, "duration": 4, "velocity": 127}, {"time": 2827, "pitch": 66, "duration": 4, "velocity": 112}, {"time": 2833, "pitch": 47, "duration": 3, "velocity": 78}, {"time": 2833, "pitch": 54, "duration": 3, "velocity": 107}, {"time": 2833, "pitch": 59, "duration": 4, "velocity": 96}, {"time": 2833, "pitch": 63, "duration": 4, "velocity": 112}, {"time": 2833, "pitch": 66, "duration": 4, "velocity": 102}, {"time": 2839, "pitch": 47, "duration": 3, "velocity": 83}, {"time": 2839, "pitch": 54, "duration": 3, "velocity": 122}, {"time": 2839, "pitch": 59, "duration": 3, "velocity": 97}, {"time": 2839, "pitch": 63, "duration": 4, "velocity": 127}, {"time": 2839, "pitch": 66, "duration": 4, "velocity": 122}, {"time": 2845, "pitch": 47, "duration": 3, "velocity": 72}, {"time": 2845, "pitch": 54, "duration": 3, "velocity": 117}, {"time": 2845, "pitch": 59, "duration": 3, "velocity": 95}, {"time": 2845, "pitch": 63, "duration": 4, "velocity": 127}, {"time": 2845, "pitch": 66, "duration": 4, "velocity": 127}, {"time": 2851, "pitch": 47, "duration": 2, "velocity": 70}, {"time": 2851, "pitch": 54, "duration": 2, "velocity": 127}, {"time": 2851, "pitch": 59, "duration": 3, "velocity": 107}, {"time": 2851, "pitch": 63, "duration": 3, "velocity": 127}, {"time": 2851, "pitch": 66, "duration": 3, "velocity": 122}, {"time": 2857, "pitch": 59, "duration": 3, "velocity": 95}, {"time": 2857, "pitch": 63, "duration": 3, "velocity": 127}, {"time": 2857, "pitch": 66, "duration": 3, "velocity": 112}, {"time": 2863, "pitch": 40, "duration": 21, "velocity": 86}, {"time": 2863, "pitch": 52, "duration": 21, "velocity": 96}, {"time": 2863, "pitch": 59, "duration": 9, "velocity": 107}, {"time": 2863, "pitch": 64, "duration": 9, "velocity": 107}, {"time": 2863, "pitch": 68, "duration": 9, "velocity": 122}, {"time": 2875, "pitch": 59, "duration": 7, "velocity": 107}, {"time": 2875, "pitch": 64, "duration": 7, "velocity": 117}, {"time": 2875, "pitch": 68, "duration": 7, "velocity": 117}, {"time": 2884, "pitch": 59, "duration": 5, "velocity": 97}, {"time": 2884, "pitch": 64, "duration": 9, "velocity": 99}, {"time": 2884, "pitch": 68, "duration": 7, "velocity": 100}, {"time": 2887, "pitch": 40, "duration": 3, "velocity": 83}, {"time": 2887, "pitch": 52, "duration": 3, "velocity": 99}, {"time": 2893, "pitch": 40, "duration": 8, "velocity": 89}, {"time": 2893, "pitch": 52, "duration": 8, "velocity": 96}, {"time": 2899, "pitch": 64, "duration": 11, "velocity": 127}, {"time": 2899, "pitch": 68, "duration": 13, "velocity": 127}, {"time": 2905, "pitch": 59, "duration": 6, "velocity": 100}, {"time": 2911, "pitch": 37, "duration": 21, "velocity": 93}, {"time": 2911, "pitch": 49, "duration": 21, "velocity": 102}, {"time": 2923, "pitch": 61, "duration": 7, "velocity": 102}, {"time": 2923, "pitch": 64, "duration": 7, "velocity": 97}, {"time": 2923, "pitch": 68, "duration": 7, "velocity": 97}, {"time": 2932, "pitch": 61, "duration": 6, "velocity": 100}, {"time": 2932, "pitch": 64, "duration": 6, "velocity": 89}, {"time": 2932, "pitch": 68, "duration": 9, "velocity": 95}, {"time": 2935, "pitch": 37, "duration": 2, "velocity": 88}, {"time": 2935, "pitch": 49, "duration": 2, "velocity": 99}, {"time": 2941, "pitch": 37, "duration": 8, "velocity": 93}, {"time": 2941, "pitch": 49, "duration": 7, "velocity": 96}, {"time": 2947, "pitch": 64, "duration": 7, "velocity": 117}, {"time": 2947, "pitch": 68, "duration": 7, "velocity": 127}, {"time": 2953, "pitch": 61, "duration": 2, "velocity": 99}, {"time": 2959, "pitch": 33, "duration": 21, "velocity": 76}, {"time": 2959, "pitch": 45, "duration": 21, "velocity": 100}, {"time": 2971, "pitch": 57, "duration": 7, "velocity": 99}, {"time": 2971, "pitch": 61, "duration": 7, "velocity": 117}, {"time": 2971, "pitch": 64, "duration": 7, "velocity": 97}, {"time": 2980, "pitch": 57, "duration": 4, "velocity": 88}, {"time": 2980, "pitch": 61, "duration": 4, "velocity": 96}, {"time": 2980, "pitch": 64, "duration": 5, "velocity": 78}, {"time": 2983, "pitch": 33, "duration": 2, "velocity": 68}, {"time": 2983, "pitch": 45, "duration": 2, "velocity": 95}, {"time": 2989, "pitch": 33, "duration": 6, "velocity": 83}, {"time": 2989, "pitch": 45, "duration": 7, "velocity": 99}, {"time": 2995, "pitch": 61, "duration": 5, "velocity": 127}, {"time": 2995, "pitch": 64, "duration": 5, "velocity": 100}, {"time": 3001, "pitch": 57, "duration": 4, "velocity": 70}, {"time": 3007, "pitch": 42, "duration": 15, "velocity": 65}, {"time": 3007, "pitch": 54, "duration": 14, "velocity": 96}, {"time": 3007, "pitch": 57, "duration": 9, "velocity": 93}, {"time": 3007, "pitch": 61, "duration": 9, "velocity": 127}, {"time": 3007, "pitch": 66, "duration": 9, "velocity": 112}, {"time": 3019, "pitch": 57, "duration": 6, "velocity": 92}, {"time": 3019, "pitch": 61, "duration": 6, "velocity": 127}, {"time": 3019, "pitch": 66, "duration": 6, "velocity": 102}, {"time": 3025, "pitch": 61, "duration": 3, "velocity": 117}, {"time": 3028, "pitch": 57, "duration": 2, "velocity": 67}, {"time": 3028, "pitch": 66, "duration": 2, "velocity": 79}, {"time": 3031, "pitch": 47, "duration": 3, "velocity": 117}, {"time": 3031, "pitch": 59, "duration": 2, "velocity": 86}, {"time": 3031, "pitch": 60, "duration": 1, "velocity": 78}, {"time": 3031, "pitch": 63, "duration": 2, "velocity": 107}, {"time": 3031, "pitch": 66, "duration": 2, "velocity": 102}, {"time": 3037, "pitch": 47, "duration": 11, "velocity": 127}, {"time": 3037, "pitch": 59, "duration": 10, "velocity": 107}, {"time": 3037, "pitch": 63, "duration": 10, "velocity": 127}, {"time": 3037, "pitch": 66, "duration": 9, "velocity": 122}, {"time": 3049, "pitch": 59, "duration": 3, "velocity": 95}, {"time": 3049, "pitch": 63, "duration": 3, "velocity": 127}, {"time": 3049, "pitch": 66, "duration": 2, "velocity": 122}, {"time": 3055, "pitch": 40, "duration": 23, "velocity": 75}, {"time": 3055, "pitch": 52, "duration": 22, "velocity": 100}, {"time": 3055, "pitch": 59, "duration": 10, "velocity": 96}, {"time": 3055, "pitch": 64, "duration": 10, "velocity": 107}, {"time": 3055, "pitch": 68, "duration": 10, "velocity": 117}, {"time": 3067, "pitch": 59, "duration": 7, "velocity": 96}, {"time": 3067, "pitch": 64, "duration": 7, "velocity": 102}, {"time": 3067, "pitch": 68, "duration": 7, "velocity": 102}, {"time": 3076, "pitch": 59, "duration": 6, "velocity": 85}, {"time": 3076, "pitch": 64, "duration": 7, "velocity": 96}, {"time": 3076, "pitch": 68, "duration": 7, "velocity": 97}, {"time": 3079, "pitch": 40, "duration": 2, "velocity": 71}, {"time": 3079, "pitch": 52, "duration": 3, "velocity": 90}, {"time": 3085, "pitch": 40, "duration": 7, "velocity": 85}, {"time": 3085, "pitch": 52, "duration": 7, "velocity": 95}, {"time": 3091, "pitch": 64, "duration": 5, "velocity": 127}, {"time": 3091, "pitch": 68, "duration": 6, "velocity": 127}, {"time": 3103, "pitch": 37, "duration": 21, "velocity": 82}, {"time": 3103, "pitch": 49, "duration": 17, "velocity": 99}, {"time": 3103, "pitch": 61, "duration": 9, "velocity": 100}, {"time": 3103, "pitch": 64, "duration": 6, "velocity": 95}, {"time": 3103, "pitch": 68, "duration": 6, "velocity": 97}, {"time": 3115, "pitch": 61, "duration": 6, "velocity": 107}, {"time": 3115, "pitch": 64, "duration": 5, "velocity": 99}, {"time": 3115, "pitch": 68, "duration": 5, "velocity": 100}, {"time": 3121, "pitch": 49, "duration": 3, "velocity": 27}, {"time": 3124, "pitch": 61, "duration": 6, "velocity": 97}, {"time": 3124, "pitch": 64, "duration": 5, "velocity": 90}, {"time": 3124, "pitch": 68, "duration": 6, "velocity": 97}, {"time": 3127, "pitch": 37, "duration": 3, "velocity": 73}, {"time": 3127, "pitch": 49, "duration": 2, "velocity": 75}, {"time": 3133, "pitch": 37, "duration": 7, "velocity": 99}, {"time": 3133, "pitch": 49, "duration": 6, "velocity": 99}, {"time": 3139, "pitch": 64, "duration": 2, "velocity": 102}, {"time": 3139, "pitch": 68, "duration": 2, "velocity": 127}, {"time": 3151, "pitch": 33, "duration": 21, "velocity": 67}, {"time": 3151, "pitch": 45, "duration": 21, "velocity": 100}, {"time": 3151, "pitch": 57, "duration": 6, "velocity": 97}, {"time": 3151, "pitch": 61, "duration": 6, "velocity": 122}, {"time": 3151, "pitch": 64, "duration": 7, "velocity": 93}, {"time": 3163, "pitch": 57, "duration": 3, "velocity": 96}, {"time": 3163, "pitch": 61, "duration": 3, "velocity": 127}, {"time": 3163, "pitch": 64, "duration": 3, "velocity": 95}, {"time": 3172, "pitch": 57, "duration": 6, "velocity": 93}, {"time": 3172, "pitch": 61, "duration": 10, "velocity": 122}, {"time": 3172, "pitch": 64, "duration": 10, "velocity": 92}, {"time": 3175, "pitch": 33, "duration": 2, "velocity": 71}, {"time": 3175, "pitch": 45, "duration": 2, "velocity": 99}, {"time": 3181, "pitch": 33, "duration": 6, "velocity": 72}, {"time": 3181, "pitch": 45, "duration": 8, "velocity": 107}, {"time": 3187, "pitch": 61, "duration": 5, "velocity": 127}, {"time": 3187, "pitch": 64, "duration": 5, "velocity": 99}, {"time": 3199, "pitch": 42, "duration": 15, "velocity": 97}, {"time": 3199, "pitch": 54, "duration": 15, "velocity": 97}, {"time": 3199, "pitch": 57, "duration": 9, "velocity": 96}, {"time": 3199, "pitch": 61, "duration": 7, "velocity": 117}, {"time": 3199, "pitch": 66, "duration": 10, "velocity": 102}, {"time": 3211, "pitch": 57, "duration": 6, "velocity": 107}, {"time": 3211, "pitch": 61, "duration": 6, "velocity": 127}, {"time": 3211, "pitch": 66, "duration": 6, "velocity": 122}, {"time": 3220, "pitch": 61, "duration": 2, "velocity": 112}, {"time": 3220, "pitch": 66, "duration": 2, "velocity": 69}, {"time": 3223, "pitch": 47, "duration": 2, "velocity": 95}, {"time": 3223, "pitch": 59, "duration": 2, "velocity": 99}, {"time": 3223, "pitch": 63, "duration": 2, "velocity": 112}, {"time": 3223, "pitch": 66, "duration": 2, "velocity": 96}, {"time": 3229, "pitch": 47, "duration": 16, "velocity": 117}, {"time": 3229, "pitch": 59, "duration": 10, "velocity": 100}, {"time": 3229, "pitch": 63, "duration": 10, "velocity": 127}, {"time": 3229, "pitch": 66, "duration": 10, "velocity": 127}, {"time": 3241, "pitch": 63, "duration": 4, "velocity": 127}, {"time": 3241, "pitch": 66, "duration": 4, "velocity": 122}, {"time": 3247, "pitch": 47, "duration": 4, "velocity": 117}, {"time": 3247, "pitch": 59, "duration": 3, "velocity": 102}, {"time": 3247, "pitch": 63, "duration": 4, "velocity": 127}, {"time": 3247, "pitch": 66, "duration": 3, "velocity": 112}, {"time": 3253, "pitch": 47, "duration": 4, "velocity": 95}, {"time": 3253, "pitch": 59, "duration": 3, "velocity": 81}, {"time": 3253, "pitch": 63, "duration": 3, "velocity": 92}, {"time": 3253, "pitch": 66, "duration": 3, "velocity": 92}, {"time": 3259, "pitch": 47, "duration": 4, "velocity": 102}, {"time": 3259, "pitch": 59, "duration": 3, "velocity": 93}, {"time": 3259, "pitch": 63, "duration": 3, "velocity": 127}, {"time": 3259, "pitch": 66, "duration": 4, "velocity": 117}, {"time": 3265, "pitch": 47, "duration": 4, "velocity": 107}, {"time": 3265, "pitch": 59, "duration": 3, "velocity": 86}, {"time": 3265, "pitch": 63, "duration": 3, "velocity": 107}, {"time": 3265, "pitch": 66, "duration": 3, "velocity": 96}, {"time": 3271, "pitch": 47, "duration": 47, "velocity": 96}, {"time": 3271, "pitch": 59, "duration": 48, "velocity": 102}, {"time": 3271, "pitch": 63, "duration": 47, "velocity": 117}, {"time": 3271, "pitch": 66, "duration": 48, "velocity": 102}, {"time": 3319, "pitch": 40, "duration": 22, "velocity": 70}, {"time": 3319, "pitch": 52, "duration": 22, "velocity": 92}, {"time": 3319, "pitch": 59, "duration": 5, "velocity": 89}, {"time": 3319, "pitch": 64, "duration": 5, "velocity": 90}, {"time": 3319, "pitch": 68, "duration": 5, "velocity": 95}, {"time": 3331, "pitch": 59, "duration": 6, "velocity": 89}, {"time": 3331, "pitch": 64, "duration": 6, "velocity": 97}, {"time": 3331, "pitch": 68, "duration": 6, "velocity": 95}, {"time": 3340, "pitch": 59, "duration": 10, "velocity": 83}, {"time": 3340, "pitch": 64, "duration": 10, "velocity": 92}, {"time": 3340, "pitch": 68, "duration": 10, "velocity": 95}, {"time": 3343, "pitch": 40, "duration": 3, "velocity": 64}, {"time": 3343, "pitch": 52, "duration": 3, "velocity": 86}, {"time": 3349, "pitch": 40, "duration": 13, "velocity": 82}, {"time": 3349, "pitch": 52, "duration": 13, "velocity": 90}, {"time": 3355, "pitch": 64, "duration": 12, "velocity": 102}, {"time": 3355, "pitch": 68, "duration": 12, "velocity": 107}, {"time": 3361, "pitch": 59, "duration": 6, "velocity": 99}, {"time": 3367, "pitch": 42, "duration": 23, "velocity": 107}, {"time": 3367, "pitch": 54, "duration": 23, "velocity": 100}, {"time": 3367, "pitch": 57, "duration": 4, "velocity": 97}, {"time": 3367, "pitch": 61, "duration": 3, "velocity": 112}, {"time": 3367, "pitch": 66, "duration": 4, "velocity": 96}, {"time": 3379, "pitch": 57, "duration": 3, "velocity": 90}, {"time": 3379, "pitch": 61, "duration": 3, "velocity": 112}, {"time": 3379, "pitch": 66, "duration": 3, "velocity": 92}, {"time": 3388, "pitch": 57, "duration": 8, "velocity": 77}, {"time": 3388, "pitch": 61, "duration": 8, "velocity": 96}, {"time": 3388, "pitch": 66, "duration": 9, "velocity": 82}, {"time": 3391, "pitch": 42, "duration": 2, "velocity": 95}, {"time": 3391, "pitch": 54, "duration": 2, "velocity": 95}, {"time": 3397, "pitch": 42, "duration": 9, "velocity": 107}, {"time": 3397, "pitch": 54, "duration": 9, "velocity": 107}, {"time": 3403, "pitch": 61, "duration": 8, "velocity": 127}, {"time": 3403, "pitch": 66, "duration": 7, "velocity": 122}, {"time": 3409, "pitch": 57, "duration": 5, "velocity": 82}, {"time": 3415, "pitch": 45, "duration": 21, "velocity": 88}, {"time": 3415, "pitch": 57, "duration": 10, "velocity": 99}, {"time": 3415, "pitch": 61, "duration": 10, "velocity": 112}, {"time": 3415, "pitch": 64, "duration": 10, "velocity": 95}, {"time": 3427, "pitch": 57, "duration": 6, "velocity": 99}, {"time": 3427, "pitch": 61, "duration": 6, "velocity": 117}, {"time": 3427, "pitch": 64, "duration": 7, "velocity": 95}, {"time": 3436, "pitch": 57, "duration": 7, "velocity": 89}, {"time": 3436, "pitch": 61, "duration": 9, "velocity": 100}, {"time": 3436, "pitch": 64, "duration": 10, "velocity": 78}, {"time": 3439, "pitch": 45, "duration": 3, "velocity": 96}, {"time": 3445, "pitch": 45, "duration": 7, "velocity": 102}, {"time": 3451, "pitch": 57, "duration": 3, "velocity": 95}, {"time": 3451, "pitch": 61, "duration": 13, "velocity": 127}, {"time": 3451, "pitch": 64, "duration": 12, "velocity": 102}, {"time": 3463, "pitch": 40, "duration": 24, "velocity": 81}, {"time": 3463, "pitch": 52, "duration": 24, "velocity": 97}, {"time": 3475, "pitch": 59, "duration": 8, "velocity": 95}, {"time": 3475, "pitch": 64, "duration": 8, "velocity": 100}, {"time": 3475, "pitch": 68, "duration": 8, "velocity": 99}, {"time": 3484, "pitch": 59, "duration": 4, "velocity": 83}, {"time": 3484, "pitch": 64, "duration": 5, "velocity": 92}, {"time": 3484, "pitch": 68, "duration": 5, "velocity": 99}, {"time": 3487, "pitch": 40, "duration": 3, "velocity": 71}, {"time": 3487, "pitch": 52, "duration": 2, "velocity": 83}, {"time": 3493, "pitch": 40, "duration": 15, "velocity": 75}, {"time": 3493, "pitch": 52, "duration": 15, "velocity": 102}, {"time": 3499, "pitch": 64, "duration": 13, "velocity": 117}, {"time": 3499, "pitch": 68, "duration": 13, "velocity": 117}, {"time": 3505, "pitch": 59, "duration": 7, "velocity": 95}, {"time": 3511, "pitch": 40, "duration": 22, "velocity": 82}, {"time": 3511, "pitch": 52, "duration": 23, "velocity": 100}, {"time": 3523, "pitch": 59, "duration": 7, "velocity": 99}, {"time": 3523, "pitch": 64, "duration": 7, "velocity": 97}, {"time": 3523, "pitch": 68, "duration": 7, "velocity": 97}, {"time": 3532, "pitch": 59, "duration": 9, "velocity": 93}, {"time": 3532, "pitch": 64, "duration": 10, "velocity": 95}, {"time": 3532, "pitch": 68, "duration": 10, "velocity": 97}, {"time": 3535, "pitch": 40, "duration": 2, "velocity": 77}, {"time": 3535, "pitch": 52, "duration": 2, "velocity": 88}, {"time": 3541, "pitch": 40, "duration": 9, "velocity": 83}, {"time": 3541, "pitch": 52, "duration": 10, "velocity": 96}, {"time": 3547, "pitch": 64, "duration": 12, "velocity": 112}, {"time": 3547, "pitch": 68, "duration": 12, "velocity": 127}, {"time": 3553, "pitch": 59, "duration": 6, "velocity": 99}, {"time": 3559, "pitch": 42, "duration": 23, "velocity": 93}, {"time": 3559, "pitch": 54, "duration": 22, "velocity": 93}, {"time": 3571, "pitch": 57, "duration": 7, "velocity": 95}, {"time": 3571, "pitch": 61, "duration": 7, "velocity": 107}, {"time": 3571, "pitch": 66, "duration": 8, "velocity": 88}, {"time": 3580, "pitch": 57, "duration": 7, "velocity": 89}, {"time": 3580, "pitch": 61, "duration": 7, "velocity": 107}, {"time": 3580, "pitch": 66, "duration": 9, "velocity": 93}, {"time": 3583, "pitch": 42, "duration": 2, "velocity": 89}, {"time": 3583, "pitch": 54, "duration": 2, "velocity": 75}, {"time": 3589, "pitch": 42, "duration": 8, "velocity": 92}, {"time": 3589, "pitch": 54, "duration": 8, "velocity": 93}, {"time": 3595, "pitch": 61, "duration": 12, "velocity": 127}, {"time": 3595, "pitch": 66, "duration": 11, "velocity": 122}, {"time": 3601, "pitch": 57, "duration": 7, "velocity": 86}, {"time": 3607, "pitch": 45, "duration": 23, "velocity": 99}, {"time": 3619, "pitch": 57, "duration": 8, "velocity": 93}, {"time": 3619, "pitch": 61, "duration": 8, "velocity": 112}, {"time": 3619, "pitch": 64, "duration": 8, "velocity": 90}, {"time": 3628, "pitch": 57, "duration": 6, "velocity": 88}, {"time": 3628, "pitch": 61, "duration": 9, "velocity": 117}, {"time": 3628, "pitch": 64, "duration": 10, "velocity": 86}, {"time": 3631, "pitch": 45, "duration": 3, "velocity": 82}, {"time": 3637, "pitch": 45, "duration": 7, "velocity": 93}, {"time": 3643, "pitch": 61, "duration": 12, "velocity": 127}, {"time": 3643, "pitch": 64, "duration": 12, "velocity": 102}, {"time": 3649, "pitch": 57, "duration": 7, "velocity": 78}, {"time": 3655, "pitch": 40, "duration": 25, "velocity": 76}, {"time": 3655, "pitch": 52, "duration": 25, "velocity": 99}, {"time": 3667, "pitch": 59, "duration": 8, "velocity": 90}, {"time": 3667, "pitch": 64, "duration": 8, "velocity": 95}, {"time": 3667, "pitch": 68, "duration": 8, "velocity": 95}, {"time": 3676, "pitch": 59, "duration": 7, "velocity": 93}, {"time": 3676, "pitch": 64, "duration": 9, "velocity": 95}, {"time": 3676, "pitch": 68, "duration": 8, "velocity": 96}, {"time": 3679, "pitch": 40, "duration": 1, "velocity": 81}, {"time": 3679, "pitch": 52, "duration": 1, "velocity": 82}, {"time": 3685, "pitch": 40, "duration": 14, "velocity": 89}, {"time": 3685, "pitch": 52, "duration": 14, "velocity": 95}, {"time": 3691, "pitch": 64, "duration": 9, "velocity": 117}, {"time": 3691, "pitch": 68, "duration": 9, "velocity": 127}, {"time": 3697, "pitch": 59, "duration": 4, "velocity": 79}, {"time": 3703, "pitch": 40, "duration": 46, "velocity": 86}, {"time": 3703, "pitch": 52, "duration": 44, "velocity": 95}, {"time": 3703, "pitch": 59, "duration": 46, "velocity": 99}, {"time": 3703, "pitch": 64, "duration": 47, "velocity": 96}, {"time": 3703, "pitch": 68, "duration": 47, "velocity": 107}, {"time": 3751, "pitch": 42, "duration": 23, "velocity": 107}, {"time": 3751, "pitch": 54, "duration": 23, "velocity": 100}, {"time": 3751, "pitch": 57, "duration": 4, "velocity": 97}, {"time": 3751, "pitch": 61, "duration": 3, "velocity": 112}, {"time": 3751, "pitch": 66, "duration": 4, "velocity": 96}, {"time": 3763, "pitch": 57, "duration": 3, "velocity": 90}, {"time": 3763, "pitch": 61, "duration": 3, "velocity": 112}, {"time": 3763, "pitch": 66, "duration": 3, "velocity": 92}, {"time": 3772, "pitch": 57, "duration": 8, "velocity": 77}, {"time": 3772, "pitch": 61, "duration": 8, "velocity": 96}, {"time": 3772, "pitch": 66, "duration": 9, "velocity": 82}, {"time": 3775, "pitch": 42, "duration": 2, "velocity": 95}, {"time": 3775, "pitch": 54, "duration": 2, "velocity": 95}, {"time": 3781, "pitch": 42, "duration": 9, "velocity": 107}, {"time": 3781, "pitch": 54, "duration": 9, "velocity": 107}, {"time": 3787, "pitch": 61, "duration": 8, "velocity": 127}, {"time": 3787, "pitch": 66, "duration": 7, "velocity": 122}, {"time": 3793, "pitch": 57, "duration": 5, "velocity": 82}, {"time": 3799, "pitch": 45, "duration": 21, "velocity": 88}, {"time": 3799, "pitch": 57, "duration": 10, "velocity": 99}, {"time": 3799, "pitch": 61, "duration": 10, "velocity": 112}, {"time": 3799, "pitch": 64, "duration": 10, "velocity": 95}, {"time": 3811, "pitch": 57, "duration": 6, "velocity": 99}, {"time": 3811, "pitch": 61, "duration": 6, "velocity": 117}, {"time": 3811, "pitch": 64, "duration": 7, "velocity": 95}, {"time": 3820, "pitch": 57, "duration": 7, "velocity": 89}, {"time": 3820, "pitch": 61, "duration": 9, "velocity": 100}, {"time": 3820, "pitch": 64, "duration": 10, "velocity": 78}, {"time": 3823, "pitch": 45, "duration": 3, "velocity": 96}, {"time": 3829, "pitch": 45, "duration": 7, "velocity": 102}, {"time": 3835, "pitch": 57, "duration": 3, "velocity": 95}, {"time": 3835, "pitch": 61, "duration": 13, "velocity": 127}, {"time": 3835, "pitch": 64, "duration": 12, "velocity": 102}, {"time": 3847, "pitch": 40, "duration": 24, "velocity": 81}, {"time": 3847, "pitch": 52, "duration": 24, "velocity": 97}, {"time": 3859, "pitch": 59, "duration": 8, "velocity": 95}, {"time": 3859, "pitch": 64, "duration": 8, "velocity": 100}, {"time": 3859, "pitch": 68, "duration": 8, "velocity": 99}, {"time": 3868, "pitch": 59, "duration": 4, "velocity": 83}, {"time": 3868, "pitch": 64, "duration": 5, "velocity": 92}, {"time": 3868, "pitch": 68, "duration": 5, "velocity": 99}, {"time": 3871, "pitch": 40, "duration": 3, "velocity": 71}, {"time": 3871, "pitch": 52, "duration": 2, "velocity": 83}, {"time": 3877, "pitch": 40, "duration": 15, "velocity": 75}, {"time": 3877, "pitch": 52, "duration": 15, "velocity": 102}, {"time": 3883, "pitch": 64, "duration": 13, "velocity": 117}, {"time": 3883, "pitch": 68, "duration": 13, "velocity": 117}, {"time": 3889, "pitch": 59, "duration": 7, "velocity": 95}, {"time": 3895, "pitch": 40, "duration": 22, "velocity": 82}, {"time": 3895, "pitch": 52, "duration": 23, "velocity": 100}, {"time": 3907, "pitch": 59, "duration": 7, "velocity": 99}, {"time": 3907, "pitch": 64, "duration": 7, "velocity": 97}, {"time": 3907, "pitch": 68, "duration": 7, "velocity": 97}, {"time": 3916, "pitch": 59, "duration": 9, "velocity": 93}, {"time": 3916, "pitch": 64, "duration": 10, "velocity": 95}, {"time": 3916, "pitch": 68, "duration": 10, "velocity": 97}, {"time": 3919, "pitch": 40, "duration": 2, "velocity": 77}, {"time": 3919, "pitch": 52, "duration": 2, "velocity": 88}, {"time": 3925, "pitch": 40, "duration": 9, "velocity": 83}, {"time": 3925, "pitch": 52, "duration": 10, "velocity": 96}, {"time": 3931, "pitch": 64, "duration": 12, "velocity": 112}, {"time": 3931, "pitch": 68, "duration": 12, "velocity": 127}, {"time": 3937, "pitch": 59, "duration": 6, "velocity": 99}, {"time": 3943, "pitch": 42, "duration": 23, "velocity": 93}, {"time": 3943, "pitch": 54, "duration": 22, "velocity": 93}, {"time": 3955, "pitch": 57, "duration": 7, "velocity": 95}, {"time": 3955, "pitch": 61, "duration": 7, "velocity": 107}, {"time": 3955, "pitch": 66, "duration": 8, "velocity": 88}, {"time": 3964, "pitch": 57, "duration": 7, "velocity": 89}, {"time": 3964, "pitch": 61, "duration": 7, "velocity": 107}, {"time": 3964, "pitch": 66, "duration": 9, "velocity": 93}, {"time": 3967, "pitch": 42, "duration": 2, "velocity": 89}, {"time": 3967, "pitch": 54, "duration": 2, "velocity": 75}, {"time": 3973, "pitch": 42, "duration": 8, "velocity": 92}, {"time": 3973, "pitch": 54, "duration": 8, "velocity": 93}, {"time": 3979, "pitch": 61, "duration": 12, "velocity": 127}, {"time": 3979, "pitch": 66, "duration": 11, "velocity": 122}, {"time": 3985, "pitch": 57, "duration": 7, "velocity": 86}, {"time": 3991, "pitch": 45, "duration": 23, "velocity": 99}, {"time": 4003, "pitch": 57, "duration": 8, "velocity": 93}, {"time": 4003, "pitch": 61, "duration": 8, "velocity": 112}, {"time": 4003, "pitch": 64, "duration": 8, "velocity": 90}, {"time": 4012, "pitch": 57, "duration": 6, "velocity": 88}, {"time": 4012, "pitch": 61, "duration": 9, "velocity": 117}, {"time": 4012, "pitch": 64, "duration": 10, "velocity": 86}, {"time": 4015, "pitch": 45, "duration": 3, "velocity": 82}, {"time": 4021, "pitch": 45, "duration": 7, "velocity": 93}, {"time": 4027, "pitch": 61, "duration": 12, "velocity": 127}, {"time": 4027, "pitch": 64, "duration": 12, "velocity": 102}, {"time": 4033, "pitch": 57, "duration": 6, "velocity": 78}, {"time": 4039, "pitch": 40, "duration": 88, "velocity": 69}, {"time": 4039, "pitch": 47, "duration": 87, "velocity": 96}, {"time": 4039, "pitch": 52, "duration": 87, "velocity": 93}, {"time": 4039, "pitch": 59, "duration": 87, "velocity": 102}, {"time": 4039, "pitch": 63, "duration": 87, "velocity": 127}, {"time": 4039, "pitch": 64, "duration": 87, "velocity": 112}, {"time": 4039, "pitch": 68, "duration": 87, "velocity": 107}], "annotations": [{"time": 54, "annotation": {"number": 64, "value": 127}, "group": "control_change"}, {"time": 75, "annotation": {"number": 64, "value": 0}, "group": "control_change"}, {"time": 78, "annotation": {"number": 64, "value": 127}, "group": "control_change"}, {"time": 88, "annotation": {"number": 64, "value": 0}, "group": "control_change"}, {"time": 90, "annotation": {"number": 64, "value": 127}, "group": "control_change"}, {"time": 100, "annotation": {"number": 64, "value": 0}, "group": "control_change"}, {"time": 103, "annotation": {"number": 64, "value": 127}, "group": "control_change"}, {"time": 114, "annotation": {"number": 64, "value": 0}, "group": "control_change"}, {"time": 115, "annotation": {"number": 64, "value": 127}, "group": "control_change"}, {"time": 124, "annotation": {"number": 64, "value": 0}, "group": "control_change"}, {"time": 126, "annotation": {"number": 64, "value": 127}, "group": "control_change"}, {"time": 136, "annotation": {"number": 64, "value": 0}, "group": "control_change"}, {"time": 138, "annotation": {"number": 64, "value": 127}, "group": "control_change"}, {"time": 149, "annotation": {"number": 64, "value": 0}, "group": "control_change"}, {"time": 151, "annotation": {"number": 64, "value": 127}, "group": "control_change"}, {"time": 172, "annotation": {"number": 64, "value": 0}, "group": "control_change"}, {"time": 174, "annotation": {"number": 64, "value": 127}, "group": "control_change"}, {"time": 184, "annotation": {"number": 64, "value": 0}, "group": "control_change"}, {"time": 186, "annotation": {"number": 64, "value": 127}, "group": "control_change"}, {"time": 196, "annotation": {"number": 64, "value": 0}, "group": "control_change"}, {"time": 199, "annotation": {"number": 64, "value": 127}, "group": "control_change"}, {"time": 210, "annotation": {"number": 64, "value": 0}, "group": "control_change"}, {"time": 211, "annotation": {"number": 64, "value": 127}, "group": "control_change"}, {"time": 220, "annotation": {"number": 64, "value": 0}, "group": "control_change"}, {"time": 222, "annotation": {"number": 64, "value": 127}, "group": "control_change"}, {"time": 244, "annotation": {"number": 64, "value": 0}, "group": "control_change"}, {"time": 247, "annotation": {"number": 64, "value": 127}, "group": "control_change"}, {"time": 255, "annotation": {"number": 64, "value": 0}, "group": "control_change"}, {"time": 258, "annotation": {"number": 64, "value": 127}, "group": "control_change"}, {"time": 266, "annotation": {"number": 64, "value": 0}, "group": "control_change"}, {"time": 270, "annotation": {"number": 64, "value": 127}, "group": "control_change"}, {"time": 278, "annotation": {"number": 64, "value": 0}, "group": "control_change"}, {"time": 282, "annotation": {"number": 64, "value": 127}, "group": "control_change"}, {"time": 291, "annotation": {"number": 64, "value": 0}, "group": "control_change"}, {"time": 295, "annotation": {"number": 64, "value": 127}, "group": "control_change"}, {"time": 303, "annotation": {"number": 64, "value": 0}, "group": "control_change"}, {"time": 318, "annotation": {"number": 64, "value": 127}, "group": "control_change"}, {"time": 337, "annotation": {"number": 64, "value": 0}, "group": "control_change"}, {"time": 343, "annotation": {"number": 64, "value": 127}, "group": "control_change"}, {"time": 351, "annotation": {"number": 64, "value": 0}, "group": "control_change"}, {"time": 354, "annotation": {"number": 64, "value": 127}, "group": "control_change"}, {"time": 362, "annotation": {"number": 64, "value": 0}, "group": "control_change"}, {"time": 365, "annotation": {"number": 64, "value": 127}, "group": "control_change"}, {"time": 374, "annotation": {"number": 64, "value": 0}, "group": "control_change"}, {"time": 459, "annotation": {"number": 64, "value": 0}, "group": "control_change"}, {"time": 462, "annotation": {"number": 64, "value": 127}, "group": "control_change"}, {"time": 472, "annotation": {"number": 64, "value": 0}, "group": "control_change"}, {"time": 474, "annotation": {"number": 64, "value": 127}, "group": "control_change"}, {"time": 484, "annotation": {"number": 64, "value": 0}, "group": "control_change"}, {"time": 487, "annotation": {"number": 64, "value": 127}, "group": "control_change"}, {"time": 498, "annotation": {"number": 64, "value": 0}, "group": "control_change"}, {"time": 499, "annotation": {"number": 64, "value": 127}, "group": "control_change"}, {"time": 508, "annotation": {"number": 64, "value": 0}, "group": "control_change"}, {"time": 510, "annotation": {"number": 64, "value": 127}, "group": "control_change"}, {"time": 520, "annotation": {"number": 64, "value": 0}, "group": "control_change"}, {"time": 522, "annotation": {"number": 64, "value": 127}, "group": "control_change"}, {"time": 533, "annotation": {"number": 64, "value": 0}, "group": "control_change"}, {"time": 535, "annotation": {"number": 64, "value": 127}, "group": "control_change"}, {"time": 556, "annotation": {"number": 64, "value": 0}, "group": "control_change"}, {"time": 558, "annotation": {"number": 64, "value": 127}, "group": "control_change"}, {"time": 568, "annotation": {"number": 64, "value": 0}, "group": "control_change"}, {"time": 570, "annotation": {"number": 64, "value": 127}, "group": "control_change"}, {"time": 580, "annotation": {"number": 64, "value": 0}, "group": "control_change"}, {"time": 583, "annotation": {"number": 64, "value": 127}, "group": "control_change"}, {"time": 594, "annotation": {"number": 64, "value": 0}, "group": "control_change"}, {"time": 595, "annotation": {"number": 64, "value": 127}, "group": "control_change"}, {"time": 604, "annotation": {"number": 64, "value": 0}, "group": "control_change"}, {"time": 606, "annotation": {"number": 64, "value": 127}, "group": "control_change"}, {"time": 628, "annotation": {"number": 64, "value": 0}, "group": "control_change"}, {"time": 631, "annotation": {"number": 64, "value": 127}, "group": "control_change"}, {"time": 639, "annotation": {"number": 64, "value": 0}, "group": "control_change"}, {"time": 642, "annotation": {"number": 64, "value": 127}, "group": "control_change"}, {"time": 650, "annotation": {"number": 64, "value": 0}, "group": "control_change"}, {"time": 654, "annotation": {"number": 64, "value": 127}, "group": "control_change"}, {"time": 662, "annotation": {"number": 64, "value": 0}, "group": "control_change"}, {"time": 666, "annotation": {"number": 64, "value": 127}, "group": "control_change"}, {"time": 675, "annotation": {"number": 64, "value": 0}, "group": "control_change"}, {"time": 679, "annotation": {"number": 64, "value": 127}, "group": "control_change"}, {"time": 687, "annotation": {"number": 64, "value": 0}, "group": "control_change"}, {"time": 702, "annotation": {"number": 64, "value": 127}, "group": "control_change"}, {"time": 721, "annotation": {"number": 64, "value": 0}, "group": "control_change"}, {"time": 727, "annotation": {"number": 64, "value": 127}, "group": "control_change"}, {"time": 735, "annotation": {"number": 64, "value": 0}, "group": "control_change"}, {"time": 738, "annotation": {"number": 64, "value": 127}, "group": "control_change"}, {"time": 746, "annotation": {"number": 64, "value": 0}, "group": "control_change"}, {"time": 749, "annotation": {"number": 64, "value": 127}, "group": "control_change"}, {"time": 758, "annotation": {"number": 64, "value": 0}, "group": "control_change"}, {"time": 824, "annotation": {"number": 64, "value": 127}, "group": "control_change"}, {"time": 869, "annotation": {"number": 64, "value": 0}, "group": "control_change"}, {"time": 871, "annotation": {"number": 64, "value": 127}, "group": "control_change"}, {"time": 893, "annotation": {"number": 64, "value": 0}, "group": "control_change"}, {"time": 894, "annotation": {"number": 64, "value": 127}, "group": "control_change"}, {"time": 917, "annotation": {"number": 64, "value": 0}, "group": "control_change"}, {"time": 919, "annotation": {"number": 64, "value": 127}, "group": "control_change"}, {"time": 965, "annotation": {"number": 64, "value": 0}, "group": "control_change"}, {"time": 967, "annotation": {"number": 64, "value": 127}, "group": "control_change"}, {"time": 1013, "annotation": {"number": 64, "value": 0}, "group": "control_change"}, {"time": 1015, "annotation": {"number": 64, "value": 127}, "group": "control_change"}, {"time": 1060, "annotation": {"number": 64, "value": 0}, "group": "control_change"}, {"time": 1063, "annotation": {"number": 64, "value": 127}, "group": "control_change"}, {"time": 1085, "annotation": {"number": 64, "value": 0}, "group": "control_change"}, {"time": 1087, "annotation": {"number": 64, "value": 127}, "group": "control_change"}, {"time": 1108, "annotation": {"number": 64, "value": 0}, "group": "control_change"}, {"time": 1110, "annotation": {"number": 64, "value": 127}, "group": "control_change"}, {"time": 1157, "annotation": {"number": 64, "value": 0}, "group": "control_change"}, {"time": 1158, "annotation": {"number": 64, "value": 127}, "group": "control_change"}, {"time": 1182, "annotation": {"number": 64, "value": 0}, "group": "control_change"}, {"time": 1183, "annotation": {"number": 64, "value": 127}, "group": "control_change"}, {"time": 1205, "annotation": {"number": 64, "value": 0}, "group": "control_change"}, {"time": 1207, "annotation": {"number": 64, "value": 127}, "group": "control_change"}, {"time": 1252, "annotation": {"number": 64, "value": 0}, "group": "control_change"}, {"time": 1255, "annotation": {"number": 64, "value": 127}, "group": "control_change"}, {"time": 1300, "annotation": {"number": 64, "value": 0}, "group": "control_change"}, {"time": 1303, "annotation": {"number": 64, "value": 127}, "group": "control_change"}, {"time": 1325, "annotation": {"number": 64, "value": 0}, "group": "control_change"}, {"time": 1327, "annotation": {"number": 64, "value": 127}, "group": "control_change"}, {"time": 1348, "annotation": {"number": 64, "value": 0}, "group": "control_change"}, {"time": 1350, "annotation": {"number": 64, "value": 127}, "group": "control_change"}, {"time": 1351, "annotation": {"number": 64, "value": 0}, "group": "control_change"}, {"time": 1364, "annotation": {"number": 64, "value": 127}, "group": "control_change"}, {"time": 1378, "annotation": {"number": 64, "value": 0}, "group": "control_change"}, {"time": 1381, "annotation": {"number": 64, "value": 127}, "group": "control_change"}, {"time": 1385, "annotation": {"number": 64, "value": 0}, "group": "control_change"}, {"time": 1387, "annotation": {"number": 64, "value": 127}, "group": "control_change"}, {"time": 1396, "annotation": {"number": 64, "value": 0}, "group": "control_change"}, {"time": 1399, "annotation": {"number": 64, "value": 127}, "group": "control_change"}, {"time": 1409, "annotation": {"number": 64, "value": 0}, "group": "control_change"}, {"time": 1411, "annotation": {"number": 64, "value": 127}, "group": "control_change"}, {"time": 1419, "annotation": {"number": 64, "value": 0}, "group": "control_change"}, {"time": 1422, "annotation": {"number": 64, "value": 127}, "group": "control_change"}, {"time": 1432, "annotation": {"number": 64, "value": 0}, "group": "control_change"}, {"time": 1435, "annotation": {"number": 64, "value": 127}, "group": "control_change"}, {"time": 1444, "annotation": {"number": 64, "value": 0}, "group": "control_change"}, {"time": 1447, "annotation": {"number": 64, "value": 127}, "group": "control_change"}, {"time": 1457, "annotation": {"number": 64, "value": 0}, "group": "control_change"}, {"time": 1459, "annotation": {"number": 64, "value": 127}, "group": "control_change"}, {"time": 1467, "annotation": {"number": 64, "value": 0}, "group": "control_change"}, {"time": 1470, "annotation": {"number": 64, "value": 127}, "group": "control_change"}, {"time": 1478, "annotation": {"number": 64, "value": 0}, "group": "control_change"}, {"time": 1482, "annotation": {"number": 64, "value": 127}, "group": "control_change"}, {"time": 1493, "annotation": {"number": 64, "value": 0}, "group": "control_change"}, {"time": 1495, "annotation": {"number": 64, "value": 127}, "group": "control_change"}, {"time": 1506, "annotation": {"number": 64, "value": 0}, "group": "control_change"}, {"time": 1507, "annotation": {"number": 64, "value": 127}, "group": "control_change"}, {"time": 1516, "annotation": {"number": 64, "value": 0}, "group": "control_change"}, {"time": 1518, "annotation": {"number": 64, "value": 127}, "group": "control_change"}, {"time": 1529, "annotation": {"number": 64, "value": 0}, "group": "control_change"}, {"time": 1531, "annotation": {"number": 64, "value": 127}, "group": "control_change"}, {"time": 1540, "annotation": {"number": 64, "value": 0}, "group": "control_change"}, {"time": 1542, "annotation": {"number": 64, "value": 127}, "group": "control_change"}, {"time": 1552, "annotation": {"number": 64, "value": 0}, "group": "control_change"}, {"time": 1554, "annotation": {"number": 64, "value": 127}, "group": "control_change"}, {"time": 1564, "annotation": {"number": 64, "value": 0}, "group": "control_change"}, {"time": 1567, "annotation": {"number": 64, "value": 127}, "group": "control_change"}, {"time": 1569, "annotation": {"number": 64, "value": 0}, "group": "control_change"}, {"time": 1578, "annotation": {"number": 64, "value": 127}, "group": "control_change"}, {"time": 1587, "annotation": {"number": 64, "value": 0}, "group": "control_change"}, {"time": 1591, "annotation": {"number": 64, "value": 127}, "group": "control_change"}, {"time": 1601, "annotation": {"number": 64, "value": 0}, "group": "control_change"}, {"time": 1603, "annotation": {"number": 64, "value": 127}, "group": "control_change"}, {"time": 1612, "annotation": {"number": 64, "value": 0}, "group": "control_change"}, {"time": 1614, "annotation": {"number": 64, "value": 127}, "group": "control_change"}, {"time": 1625, "annotation": {"number": 64, "value": 0}, "group": "control_change"}, {"time": 1627, "annotation": {"number": 64, "value": 127}, "group": "control_change"}, {"time": 1637, "annotation": {"number": 64, "value": 0}, "group": "control_change"}, {"time": 1639, "annotation": {"number": 64, "value": 127}, "group": "control_change"}, {"time": 1649, "annotation": {"number": 64, "value": 0}, "group": "control_change"}, {"time": 1652, "annotation": {"number": 64, "value": 127}, "group": "control_change"}, {"time": 1661, "annotation": {"number": 64, "value": 0}, "group": "control_change"}, {"time": 1663, "annotation": {"number": 64, "value": 127}, "group": "control_change"}, {"time": 1685, "annotation": {"number": 64, "value": 0}, "group": "control_change"}, {"time": 1687, "annotation": {"number": 64, "value": 127}, "group": "control_change"}, {"time": 1698, "annotation": {"number": 64, "value": 0}, "group": "control_change"}, {"time": 1700, "annotation": {"number": 64, "value": 127}, "group": "control_change"}, {"time": 1708, "annotation": {"number": 64, "value": 0}, "group": "control_change"}, {"time": 1711, "annotation": {"number": 64, "value": 127}, "group": "control_change"}, {"time": 1721, "annotation": {"number": 64, "value": 0}, "group": "control_change"}, {"time": 1723, "annotation": {"number": 64, "value": 127}, "group": "control_change"}, {"time": 1733, "annotation": {"number": 64, "value": 0}, "group": "control_change"}, {"time": 1735, "annotation": {"number": 64, "value": 127}, "group": "control_change"}, {"time": 1746, "annotation": {"number": 64, "value": 0}, "group": "control_change"}, {"time": 1747, "annotation": {"number": 64, "value": 127}, "group": "control_change"}, {"time": 1757, "annotation": {"number": 64, "value": 0}, "group": "control_change"}, {"time": 1759, "annotation": {"number": 64, "value": 127}, "group": "control_change"}, {"time": 1769, "annotation": {"number": 64, "value": 0}, "group": "control_change"}, {"time": 1771, "annotation": {"number": 64, "value": 127}, "group": "control_change"}, {"time": 1780, "annotation": {"number": 64, "value": 0}, "group": "control_change"}, {"time": 1783, "annotation": {"number": 64, "value": 127}, "group": "control_change"}, {"time": 1784, "annotation": {"number": 64, "value": 0}, "group": "control_change"}, {"time": 1784, "annotation": {"number": 64, "value": 127}, "group": "control_change"}, {"time": 1795, "annotation": {"number": 64, "value": 0}, "group": "control_change"}, {"time": 1812, "annotation": {"number": 64, "value": 127}, "group": "control_change"}, {"time": 1817, "annotation": {"number": 64, "value": 0}, "group": "control_change"}, {"time": 1861, "annotation": {"number": 64, "value": 127}, "group": "control_change"}, {"time": 1872, "annotation": {"number": 64, "value": 0}, "group": "control_change"}, {"time": 1877, "annotation": {"number": 64, "value": 127}, "group": "control_change"}, {"time": 1884, "annotation": {"number": 64, "value": 0}, "group": "control_change"}, {"time": 1890, "annotation": {"number": 64, "value": 127}, "group": "control_change"}, {"time": 1898, "annotation": {"number": 64, "value": 0}, "group": "control_change"}, {"time": 1923, "annotation": {"number": 64, "value": 0}, "group": "control_change"}, {"time": 1926, "annotation": {"number": 64, "value": 127}, "group": "control_change"}, {"time": 1936, "annotation": {"number": 64, "value": 0}, "group": "control_change"}, {"time": 1938, "annotation": {"number": 64, "value": 127}, "group": "control_change"}, {"time": 1948, "annotation": {"number": 64, "value": 0}, "group": "control_change"}, {"time": 1951, "annotation": {"number": 64, "value": 127}, "group": "control_change"}, {"time": 1962, "annotation": {"number": 64, "value": 0}, "group": "control_change"}, {"time": 1963, "annotation": {"number": 64, "value": 127}, "group": "control_change"}, {"time": 1972, "annotation": {"number": 64, "value": 0}, "group": "control_change"}, {"time": 1974, "annotation": {"number": 64, "value": 127}, "group": "control_change"}, {"time": 1984, "annotation": {"number": 64, "value": 0}, "group": "control_change"}, {"time": 1986, "annotation": {"number": 64, "value": 127}, "group": "control_change"}, {"time": 1997, "annotation": {"number": 64, "value": 0}, "group": "control_change"}, {"time": 1999, "annotation": {"number": 64, "value": 127}, "group": "control_change"}, {"time": 2020, "annotation": {"number": 64, "value": 0}, "group": "control_change"}, {"time": 2022, "annotation": {"number": 64, "value": 127}, "group": "control_change"}, {"time": 2032, "annotation": {"number": 64, "value": 0}, "group": "control_change"}, {"time": 2034, "annotation": {"number": 64, "value": 127}, "group": "control_change"}, {"time": 2044, "annotation": {"number": 64, "value": 0}, "group": "control_change"}, {"time": 2047, "annotation": {"number": 64, "value": 127}, "group": "control_change"}, {"time": 2058, "annotation": {"number": 64, "value": 0}, "group": "control_change"}, {"time": 2059, "annotation": {"number": 64, "value": 127}, "group": "control_change"}, {"time": 2068, "annotation": {"number": 64, "value": 0}, "group": "control_change"}, {"time": 2070, "annotation": {"number": 64, "value": 127}, "group": "control_change"}, {"time": 2092, "annotation": {"number": 64, "value": 0}, "group": "control_change"}, {"time": 2095, "annotation": {"number": 64, "value": 127}, "group": "control_change"}, {"time": 2103, "annotation": {"number": 64, "value": 0}, "group": "control_change"}, {"time": 2106, "annotation": {"number": 64, "value": 127}, "group": "control_change"}, {"time": 2114, "annotation": {"number": 64, "value": 0}, "group": "control_change"}, {"time": 2118, "annotation": {"number": 64, "value": 127}, "group": "control_change"}, {"time": 2126, "annotation": {"number": 64, "value": 0}, "group": "control_change"}, {"time": 2130, "annotation": {"number": 64, "value": 127}, "group": "control_change"}, {"time": 2139, "annotation": {"number": 64, "value": 0}, "group": "control_change"}, {"time": 2143, "annotation": {"number": 64, "value": 127}, "group": "control_change"}, {"time": 2151, "annotation": {"number": 64, "value": 0}, "group": "control_change"}, {"time": 2166, "annotation": {"number": 64, "value": 127}, "group": "control_change"}, {"time": 2185, "annotation": {"number": 64, "value": 0}, "group": "control_change"}, {"time": 2191, "annotation": {"number": 64, "value": 127}, "group": "control_change"}, {"time": 2199, "annotation": {"number": 64, "value": 0}, "group": "control_change"}, {"time": 2202, "annotation": {"number": 64, "value": 127}, "group": "control_change"}, {"time": 2210, "annotation": {"number": 64, "value": 0}, "group": "control_change"}, {"time": 2213, "annotation": {"number": 64, "value": 127}, "group": "control_change"}, {"time": 2222, "annotation": {"number": 64, "value": 0}, "group": "control_change"}, {"time": 2288, "annotation": {"number": 64, "value": 127}, "group": "control_change"}, {"time": 2333, "annotation": {"number": 64, "value": 0}, "group": "control_change"}, {"time": 2335, "annotation": {"number": 64, "value": 127}, "group": "control_change"}, {"time": 2357, "annotation": {"number": 64, "value": 0}, "group": "control_change"}, {"time": 2358, "annotation": {"number": 64, "value": 127}, "group": "control_change"}, {"time": 2381, "annotation": {"number": 64, "value": 0}, "group": "control_change"}, {"time": 2383, "annotation": {"number": 64, "value": 127}, "group": "control_change"}, {"time": 2429, "annotation": {"number": 64, "value": 0}, "group": "control_change"}, {"time": 2431, "annotation": {"number": 64, "value": 127}, "group": "control_change"}, {"time": 2477, "annotation": {"number": 64, "value": 0}, "group": "control_change"}, {"time": 2479, "annotation": {"number": 64, "value": 127}, "group": "control_change"}, {"time": 2524, "annotation": {"number": 64, "value": 0}, "group": "control_change"}, {"time": 2527, "annotation": {"number": 64, "value": 127}, "group": "control_change"}, {"time": 2549, "annotation": {"number": 64, "value": 0}, "group": "control_change"}, {"time": 2551, "annotation": {"number": 64, "value": 127}, "group": "control_change"}, {"time": 2572, "annotation": {"number": 64, "value": 0}, "group": "control_change"}, {"time": 2574, "annotation": {"number": 64, "value": 127}, "group": "control_change"}, {"time": 2621, "annotation": {"number": 64, "value": 0}, "group": "control_change"}, {"time": 2622, "annotation": {"number": 64, "value": 127}, "group": "control_change"}, {"time": 2646, "annotation": {"number": 64, "value": 0}, "group": "control_change"}, {"time": 2647, "annotation": {"number": 64, "value": 127}, "group": "control_change"}, {"time": 2669, "annotation": {"number": 64, "value": 0}, "group": "control_change"}, {"time": 2671, "annotation": {"number": 64, "value": 127}, "group": "control_change"}, {"time": 2716, "annotation": {"number": 64, "value": 0}, "group": "control_change"}, {"time": 2719, "annotation": {"number": 64, "value": 127}, "group": "control_change"}, {"time": 2764, "annotation": {"number": 64, "value": 0}, "group": "control_change"}, {"time": 2767, "annotation": {"number": 64, "value": 127}, "group": "control_change"}, {"time": 2789, "annotation": {"number": 64, "value": 0}, "group": "control_change"}, {"time": 2791, "annotation": {"number": 64, "value": 127}, "group": "control_change"}, {"time": 2812, "annotation": {"number": 64, "value": 0}, "group": "control_change"}, {"time": 2814, "annotation": {"number": 64, "value": 127}, "group": "control_change"}, {"time": 2815, "annotation": {"number": 64, "value": 0}, "group": "control_change"}, {"time": 2828, "annotation": {"number": 64, "value": 127}, "group": "control_change"}, {"time": 2842, "annotation": {"number": 64, "value": 0}, "group": "control_change"}, {"time": 2845, "annotation": {"number": 64, "value": 127}, "group": "control_change"}, {"time": 2849, "annotation": {"number": 64, "value": 0}, "group": "control_change"}, {"time": 2851, "annotation": {"number": 64, "value": 127}, "group": "control_change"}, {"time": 2860, "annotation": {"number": 64, "value": 0}, "group": "control_change"}, {"time": 2863, "annotation": {"number": 64, "value": 127}, "group": "control_change"}, {"time": 2873, "annotation": {"number": 64, "value": 0}, "group": "control_change"}, {"time": 2875, "annotation": {"number": 64, "value": 127}, "group": "control_change"}, {"time": 2883, "annotation": {"number": 64, "value": 0}, "group": "control_change"}, {"time": 2886, "annotation": {"number": 64, "value": 127}, "group": "control_change"}, {"time": 2896, "annotation": {"number": 64, "value": 0}, "group": "control_change"}, {"time": 2899, "annotation": {"number": 64, "value": 127}, "group": "control_change"}, {"time": 2908, "annotation": {"number": 64, "value": 0}, "group": "control_change"}, {"time": 2911, "annotation": {"number": 64, "value": 127}, "group": "control_change"}, {"time": 2921, "annotation": {"number": 64, "value": 0}, "group": "control_change"}, {"time": 2923, "annotation": {"number": 64, "value": 127}, "group": "control_change"}, {"time": 2931, "annotation": {"number": 64, "value": 0}, "group": "control_change"}, {"time": 2934, "annotation": {"number": 64, "value": 127}, "group": "control_change"}, {"time": 2942, "annotation": {"number": 64, "value": 0}, "group": "control_change"}, {"time": 2946, "annotation": {"number": 64, "value": 127}, "group": "control_change"}, {"time": 2957, "annotation": {"number": 64, "value": 0}, "group": "control_change"}, {"time": 2959, "annotation": {"number": 64, "value": 127}, "group": "control_change"}, {"time": 2970, "annotation": {"number": 64, "value": 0}, "group": "control_change"}, {"time": 2971, "annotation": {"number": 64, "value": 127}, "group": "control_change"}, {"time": 2980, "annotation": {"number": 64, "value": 0}, "group": "control_change"}, {"time": 2982, "annotation": {"number": 64, "value": 127}, "group": "control_change"}, {"time": 2993, "annotation": {"number": 64, "value": 0}, "group": "control_change"}, {"time": 2995, "annotation": {"number": 64, "value": 127}, "group": "control_change"}, {"time": 3004, "annotation": {"number": 64, "value": 0}, "group": "control_change"}, {"time": 3006, "annotation": {"number": 64, "value": 127}, "group": "control_change"}, {"time": 3016, "annotation": {"number": 64, "value": 0}, "group": "control_change"}, {"time": 3018, "annotation": {"number": 64, "value": 127}, "group": "control_change"}, {"time": 3028, "annotation": {"number": 64, "value": 0}, "group": "control_change"}, {"time": 3031, "annotation": {"number": 64, "value": 127}, "group": "control_change"}, {"time": 3033, "annotation": {"number": 64, "value": 0}, "group": "control_change"}, {"time": 3042, "annotation": {"number": 64, "value": 127}, "group": "control_change"}, {"time": 3051, "annotation": {"number": 64, "value": 0}, "group": "control_change"}, {"time": 3055, "annotation": {"number": 64, "value": 127}, "group": "control_change"}, {"time": 3065, "annotation": {"number": 64, "value": 0}, "group": "control_change"}, {"time": 3067, "annotation": {"number": 64, "value": 127}, "group": "control_change"}, {"time": 3076, "annotation": {"number": 64, "value": 0}, "group": "control_change"}, {"time": 3078, "annotation": {"number": 64, "value": 127}, "group": "control_change"}, {"time": 3089, "annotation": {"number": 64, "value": 0}, "group": "control_change"}, {"time": 3091, "annotation": {"number": 64, "value": 127}, "group": "control_change"}, {"time": 3101, "annotation": {"number": 64, "value": 0}, "group": "control_change"}, {"time": 3103, "annotation": {"number": 64, "value": 127}, "group": "control_change"}, {"time": 3113, "annotation": {"number": 64, "value": 0}, "group": "control_change"}, {"time": 3116, "annotation": {"number": 64, "value": 127}, "group": "control_change"}, {"time": 3125, "annotation": {"number": 64, "value": 0}, "group": "control_change"}, {"time": 3127, "annotation": {"number": 64, "value": 127}, "group": "control_change"}, {"time": 3149, "annotation": {"number": 64, "value": 0}, "group": "control_change"}, {"time": 3151, "annotation": {"number": 64, "value": 127}, "group": "control_change"}, {"time": 3162, "annotation": {"number": 64, "value": 0}, "group": "control_change"}, {"time": 3164, "annotation": {"number": 64, "value": 127}, "group": "control_change"}, {"time": 3172, "annotation": {"number": 64, "value": 0}, "group": "control_change"}, {"time": 3175, "annotation": {"number": 64, "value": 127}, "group": "control_change"}, {"time": 3185, "annotation": {"number": 64, "value": 0}, "group": "control_change"}, {"time": 3187, "annotation": {"number": 64, "value": 127}, "group": "control_change"}, {"time": 3197, "annotation": {"number": 64, "value": 0}, "group": "control_change"}, {"time": 3199, "annotation": {"number": 64, "value": 127}, "group": "control_change"}, {"time": 3210, "annotation": {"number": 64, "value": 0}, "group": "control_change"}, {"time": 3211, "annotation": {"number": 64, "value": 127}, "group": "control_change"}, {"time": 3221, "annotation": {"number": 64, "value": 0}, "group": "control_change"}, {"time": 3223, "annotation": {"number": 64, "value": 127}, "group": "control_change"}, {"time": 3233, "annotation": {"number": 64, "value": 0}, "group": "control_change"}, {"time": 3235, "annotation": {"number": 64, "value": 127}, "group": "control_change"}, {"time": 3244, "annotation": {"number": 64, "value": 0}, "group": "control_change"}, {"time": 3247, "annotation": {"number": 64, "value": 127}, "group": "control_change"}, {"time": 3248, "annotation": {"number": 64, "value": 0}, "group": "control_change"}, {"time": 3248, "annotation": {"number": 64, "value": 127}, "group": "control_change"}, {"time": 3259, "annotation": {"number": 64, "value": 0}, "group": "control_change"}, {"time": 3276, "annotation": {"number": 64, "value": 127}, "group": "control_change"}, {"time": 3281, "annotation": {"number": 64, "value": 0}, "group": "control_change"}, {"time": 3319, "annotation": {"number": 64, "value": 127}, "group": "control_change"}, {"time": 3338, "annotation": {"number": 64, "value": 0}, "group": "control_change"}, {"time": 3342, "annotation": {"number": 64, "value": 127}, "group": "control_change"}, {"time": 3348, "annotation": {"number": 64, "value": 0}, "group": "control_change"}, {"time": 3354, "annotation": {"number": 64, "value": 127}, "group": "control_change"}, {"time": 3362, "annotation": {"number": 64, "value": 0}, "group": "control_change"}, {"time": 3387, "annotation": {"number": 64, "value": 0}, "group": "control_change"}, {"time": 3390, "annotation": {"number": 64, "value": 127}, "group": "control_change"}, {"time": 3400, "annotation": {"number": 64, "value": 0}, "group": "control_change"}, {"time": 3402, "annotation": {"number": 64, "value": 127}, "group": "control_change"}, {"time": 3412, "annotation": {"number": 64, "value": 0}, "group": "control_change"}, {"time": 3415, "annotation": {"number": 64, "value": 127}, "group": "control_change"}, {"time": 3426, "annotation": {"number": 64, "value": 0}, "group": "control_change"}, {"time": 3427, "annotation": {"number": 64, "value": 127}, "group": "control_change"}, {"time": 3436, "annotation": {"number": 64, "value": 0}, "group": "control_change"}, {"time": 3438, "annotation": {"number": 64, "value": 127}, "group": "control_change"}, {"time": 3448, "annotation": {"number": 64, "value": 0}, "group": "control_change"}, {"time": 3450, "annotation": {"number": 64, "value": 127}, "group": "control_change"}, {"time": 3461, "annotation": {"number": 64, "value": 0}, "group": "control_change"}, {"time": 3463, "annotation": {"number": 64, "value": 127}, "group": "control_change"}, {"time": 3484, "annotation": {"number": 64, "value": 0}, "group": "control_change"}, {"time": 3486, "annotation": {"number": 64, "value": 127}, "group": "control_change"}, {"time": 3496, "annotation": {"number": 64, "value": 0}, "group": "control_change"}, {"time": 3498, "annotation": {"number": 64, "value": 127}, "group": "control_change"}, {"time": 3508, "annotation": {"number": 64, "value": 0}, "group": "control_change"}, {"time": 3511, "annotation": {"number": 64, "value": 127}, "group": "control_change"}, {"time": 3522, "annotation": {"number": 64, "value": 0}, "group": "control_change"}, {"time": 3523, "annotation": {"number": 64, "value": 127}, "group": "control_change"}, {"time": 3532, "annotation": {"number": 64, "value": 0}, "group": "control_change"}, {"time": 3534, "annotation": {"number": 64, "value": 127}, "group": "control_change"}, {"time": 3556, "annotation": {"number": 64, "value": 0}, "group": "control_change"}, {"time": 3559, "annotation": {"number": 64, "value": 127}, "group": "control_change"}, {"time": 3567, "annotation": {"number": 64, "value": 0}, "group": "control_change"}, {"time": 3570, "annotation": {"number": 64, "value": 127}, "group": "control_change"}, {"time": 3578, "annotation": {"number": 64, "value": 0}, "group": "control_change"}, {"time": 3582, "annotation": {"number": 64, "value": 127}, "group": "control_change"}, {"time": 3590, "annotation": {"number": 64, "value": 0}, "group": "control_change"}, {"time": 3594, "annotation": {"number": 64, "value": 127}, "group": "control_change"}, {"time": 3603, "annotation": {"number": 64, "value": 0}, "group": "control_change"}, {"time": 3607, "annotation": {"number": 64, "value": 127}, "group": "control_change"}, {"time": 3615, "annotation": {"number": 64, "value": 0}, "group": "control_change"}, {"time": 3630, "annotation": {"number": 64, "value": 127}, "group": "control_change"}, {"time": 3649, "annotation": {"number": 64, "value": 0}, "group": "control_change"}, {"time": 3655, "annotation": {"number": 64, "value": 127}, "group": "control_change"}, {"time": 3663, "annotation": {"number": 64, "value": 0}, "group": "control_change"}, {"time": 3666, "annotation": {"number": 64, "value": 127}, "group": "control_change"}, {"time": 3674, "annotation": {"number": 64, "value": 0}, "group": "control_change"}, {"time": 3677, "annotation": {"number": 64, "value": 127}, "group": "control_change"}, {"time": 3686, "annotation": {"number": 64, "value": 0}, "group": "control_change"}, {"time": 3771, "annotation": {"number": 64, "value": 0}, "group": "control_change"}, {"time": 3774, "annotation": {"number": 64, "value": 127}, "group": "control_change"}, {"time": 3784, "annotation": {"number": 64, "value": 0}, "group": "control_change"}, {"time": 3786, "annotation": {"number": 64, "value": 127}, "group": "control_change"}, {"time": 3796, "annotation": {"number": 64, "value": 0}, "group": "control_change"}, {"time": 3799, "annotation": {"number": 64, "value": 127}, "group": "control_change"}, {"time": 3810, "annotation": {"number": 64, "value": 0}, "group": "control_change"}, {"time": 3811, "annotation": {"number": 64, "value": 127}, "group": "control_change"}, {"time": 3820, "annotation": {"number": 64, "value": 0}, "group": "control_change"}, {"time": 3822, "annotation": {"number": 64, "value": 127}, "group": "control_change"}, {"time": 3832, "annotation": {"number": 64, "value": 0}, "group": "control_change"}, {"time": 3834, "annotation": {"number": 64, "value": 127}, "group": "control_change"}, {"time": 3845, "annotation": {"number": 64, "value": 0}, "group": "control_change"}, {"time": 3847, "annotation": {"number": 64, "value": 127}, "group": "control_change"}, {"time": 3868, "annotation": {"number": 64, "value": 0}, "group": "control_change"}, {"time": 3870, "annotation": {"number": 64, "value": 127}, "group": "control_change"}, {"time": 3880, "annotation": {"number": 64, "value": 0}, "group": "control_change"}, {"time": 3882, "annotation": {"number": 64, "value": 127}, "group": "control_change"}, {"time": 3892, "annotation": {"number": 64, "value": 0}, "group": "control_change"}, {"time": 3895, "annotation": {"number": 64, "value": 127}, "group": "control_change"}, {"time": 3906, "annotation": {"number": 64, "value": 0}, "group": "control_change"}, {"time": 3907, "annotation": {"number": 64, "value": 127}, "group": "control_change"}, {"time": 3916, "annotation": {"number": 64, "value": 0}, "group": "control_change"}, {"time": 3918, "annotation": {"number": 64, "value": 127}, "group": "control_change"}, {"time": 3940, "annotation": {"number": 64, "value": 0}, "group": "control_change"}, {"time": 3943, "annotation": {"number": 64, "value": 127}, "group": "control_change"}, {"time": 3951, "annotation": {"number": 64, "value": 0}, "group": "control_change"}, {"time": 3954, "annotation": {"number": 64, "value": 127}, "group": "control_change"}, {"time": 3962, "annotation": {"number": 64, "value": 0}, "group": "control_change"}, {"time": 3966, "annotation": {"number": 64, "value": 127}, "group": "control_change"}, {"time": 3974, "annotation": {"number": 64, "value": 0}, "group": "control_change"}, {"time": 3978, "annotation": {"number": 64, "value": 127}, "group": "control_change"}, {"time": 3987, "annotation": {"number": 64, "value": 0}, "group": "control_change"}, {"time": 3991, "annotation": {"number": 64, "value": 127}, "group": "control_change"}, {"time": 3999, "annotation": {"number": 64, "value": 0}, "group": "control_change"}, {"time": 4014, "annotation": {"number": 64, "value": 127}, "group": "control_change"}, {"time": 4033, "annotation": {"number": 64, "value": 0}, "group": "control_change"}, {"time": 4039, "annotation": {"number": 64, "value": 127}, "group": "control_change"}, {"time": 4046, "annotation": {"number": 64, "value": 127}, "group": "control_change"}, {"time": 4094, "annotation": {"number": 64, "value": 0}, "group": "control_change"}, {"time": 4096, "annotation": {"number": 64, "value": 127}, "group": "control_change"}, {"time": 4101, "annotation": {"number": 64, "value": 0}, "group": "control_change"}, {"time": 4122, "annotation": {"number": 64, "value": 127}, "group": "control_change"}, {"time": 4133, "annotation": {"number": 64, "value": 0}, "group": "control_change"}]}]}