{"metadata": {"schema_version": "0.2", "title": "None", "source_filename": "165.mid", "source_format": "midi"}, "resolution": 12, "tempos": [{"time": 0, "qpm": 54.00000540000054}], "time_signatures": [{"time": 0, "numerator": 1, "denominator": 4}], "tracks": [{"program": 4, "is_drum": false, "name": "MELODY", "notes": [{"time": 493, "pitch": 75, "duration": 3, "velocity": 127}, {"time": 499, "pitch": 75, "duration": 1, "velocity": 112}, {"time": 502, "pitch": 75, "duration": 2, "velocity": 96}, {"time": 505, "pitch": 78, "duration": 7, "velocity": 127}, {"time": 514, "pitch": 73, "duration": 3, "velocity": 112}, {"time": 517, "pitch": 75, "duration": 20, "velocity": 122}, {"time": 541, "pitch": 75, "duration": 3, "velocity": 127}, {"time": 547, "pitch": 75, "duration": 1, "velocity": 122}, {"time": 550, "pitch": 75, "duration": 1, "velocity": 112}, {"time": 553, "pitch": 77, "duration": 7, "velocity": 117}, {"time": 562, "pitch": 73, "duration": 1, "velocity": 122}, {"time": 565, "pitch": 70, "duration": 23, "velocity": 112}, {"time": 589, "pitch": 70, "duration": 6, "velocity": 117}, {"time": 598, "pitch": 70, "duration": 2, "velocity": 99}, {"time": 601, "pitch": 75, "duration": 5, "velocity": 117}, {"time": 607, "pitch": 70, "duration": 5, "velocity": 122}, {"time": 613, "pitch": 68, "duration": 6, "velocity": 127}, {"time": 619, "pitch": 66, "duration": 14, "velocity": 127}, {"time": 637, "pitch": 68, "duration": 6, "velocity": 127}, {"time": 646, "pitch": 68, "duration": 3, "velocity": 117}, {"time": 649, "pitch": 66, "duration": 6, "velocity": 122}, {"time": 658, "pitch": 63, "duration": 3, "velocity": 100}, {"time": 661, "pitch": 70, "duration": 23, "velocity": 122}, {"time": 685, "pitch": 75, "duration": 3, "velocity": 127}, {"time": 691, "pitch": 75, "duration": 1, "velocity": 107}, {"time": 694, "pitch": 75, "duration": 1, "velocity": 112}, {"time": 697, "pitch": 77, "duration": 6, "velocity": 117}, {"time": 706, "pitch": 73, "duration": 2, "velocity": 112}, {"time": 709, "pitch": 75, "duration": 20, "velocity": 112}, {"time": 733, "pitch": 75, "duration": 3, "velocity": 122}, {"time": 739, "pitch": 75, "duration": 1, "velocity": 107}, {"time": 742, "pitch": 75, "duration": 1, "velocity": 102}, {"time": 745, "pitch": 77, "duration": 7, "velocity": 97}, {"time": 754, "pitch": 73, "duration": 2, "velocity": 100}, {"time": 757, "pitch": 70, "duration": 21, "velocity": 107}, {"time": 781, "pitch": 70, "duration": 9, "velocity": 127}, {"time": 793, "pitch": 75, "duration": 3, "velocity": 122}, {"time": 799, "pitch": 75, "duration": 1, "velocity": 112}, {"time": 802, "pitch": 70, "duration": 1, "velocity": 112}, {"time": 805, "pitch": 68, "duration": 4, "velocity": 117}, {"time": 811, "pitch": 68, "duration": 2, "velocity": 122}, {"time": 814, "pitch": 70, "duration": 1, "velocity": 93}, {"time": 817, "pitch": 66, "duration": 12, "velocity": 117}, {"time": 829, "pitch": 68, "duration": 5, "velocity": 127}, {"time": 835, "pitch": 70, "duration": 5, "velocity": 127}, {"time": 841, "pitch": 66, "duration": 7, "velocity": 127}, {"time": 850, "pitch": 63, "duration": 1, "velocity": 112}, {"time": 853, "pitch": 63, "duration": 23, "velocity": 127}, {"time": 877, "pitch": 75, "duration": 5, "velocity": 127}, {"time": 883, "pitch": 78, "duration": 9, "velocity": 127}, {"time": 895, "pitch": 75, "duration": 4, "velocity": 127}, {"time": 901, "pitch": 80, "duration": 7, "velocity": 127}, {"time": 907, "pitch": 78, "duration": 14, "velocity": 127}, {"time": 925, "pitch": 77, "duration": 4, "velocity": 122}, {"time": 931, "pitch": 75, "duration": 2, "velocity": 107}, {"time": 934, "pitch": 77, "duration": 2, "velocity": 89}, {"time": 937, "pitch": 73, "duration": 7, "velocity": 107}, {"time": 946, "pitch": 70, "duration": 1, "velocity": 117}, {"time": 949, "pitch": 73, "duration": 4, "velocity": 127}, {"time": 955, "pitch": 75, "duration": 18, "velocity": 127}, {"time": 973, "pitch": 75, "duration": 1, "velocity": 122}, {"time": 979, "pitch": 78, "duration": 8, "velocity": 127}, {"time": 988, "pitch": 75, "duration": 4, "velocity": 127}, {"time": 997, "pitch": 82, "duration": 5, "velocity": 127}, {"time": 1003, "pitch": 80, "duration": 13, "velocity": 127}, {"time": 1021, "pitch": 77, "duration": 4, "velocity": 127}, {"time": 1027, "pitch": 75, "duration": 2, "velocity": 122}, {"time": 1030, "pitch": 77, "duration": 2, "velocity": 93}, {"time": 1033, "pitch": 75, "duration": 5, "velocity": 122}, {"time": 1039, "pitch": 73, "duration": 5, "velocity": 112}, {"time": 1045, "pitch": 75, "duration": 6, "velocity": 96}, {"time": 1051, "pitch": 70, "duration": 3, "velocity": 97}, {"time": 1054, "pitch": 70, "duration": 11, "velocity": 100}, {"time": 1069, "pitch": 70, "duration": 5, "velocity": 127}, {"time": 1075, "pitch": 75, "duration": 3, "velocity": 99}, {"time": 1081, "pitch": 75, "duration": 3, "velocity": 117}, {"time": 1087, "pitch": 70, "duration": 2, "velocity": 107}, {"time": 1090, "pitch": 68, "duration": 3, "velocity": 86}, {"time": 1093, "pitch": 70, "duration": 3, "velocity": 107}, {"time": 1099, "pitch": 70, "duration": 10, "velocity": 122}, {"time": 1117, "pitch": 70, "duration": 4, "velocity": 122}, {"time": 1123, "pitch": 75, "duration": 4, "velocity": 96}, {"time": 1129, "pitch": 75, "duration": 3, "velocity": 117}, {"time": 1135, "pitch": 70, "duration": 2, "velocity": 102}, {"time": 1138, "pitch": 68, "duration": 3, "velocity": 92}, {"time": 1141, "pitch": 66, "duration": 4, "velocity": 107}, {"time": 1147, "pitch": 66, "duration": 10, "velocity": 122}, {"time": 1165, "pitch": 65, "duration": 1, "velocity": 102}, {"time": 1168, "pitch": 65, "duration": 3, "velocity": 96}, {"time": 1174, "pitch": 63, "duration": 2, "velocity": 107}, {"time": 1177, "pitch": 68, "duration": 4, "velocity": 122}, {"time": 1183, "pitch": 70, "duration": 1, "velocity": 117}, {"time": 1186, "pitch": 70, "duration": 1, "velocity": 112}, {"time": 1189, "pitch": 73, "duration": 7, "velocity": 122}, {"time": 1198, "pitch": 70, "duration": 2, "velocity": 117}, {"time": 1201, "pitch": 73, "duration": 6, "velocity": 127}, {"time": 1207, "pitch": 75, "duration": 3, "velocity": 127}, {"time": 1213, "pitch": 78, "duration": 6, "velocity": 127}, {"time": 1222, "pitch": 78, "duration": 2, "velocity": 127}, {"time": 1225, "pitch": 77, "duration": 4, "velocity": 117}, {"time": 1231, "pitch": 75, "duration": 4, "velocity": 127}, {"time": 1237, "pitch": 80, "duration": 23, "velocity": 127}, {"time": 1261, "pitch": 75, "duration": 4, "velocity": 127}, {"time": 1267, "pitch": 77, "duration": 5, "velocity": 102}, {"time": 1273, "pitch": 73, "duration": 3, "velocity": 127}, {"time": 1276, "pitch": 70, "duration": 4, "velocity": 117}, {"time": 1282, "pitch": 70, "duration": 3, "velocity": 112}, {"time": 1285, "pitch": 73, "duration": 5, "velocity": 122}, {"time": 1291, "pitch": 75, "duration": 42, "velocity": 122}, {"time": 1573, "pitch": 75, "duration": 3, "velocity": 127}, {"time": 1579, "pitch": 75, "duration": 1, "velocity": 112}, {"time": 1582, "pitch": 75, "duration": 2, "velocity": 96}, {"time": 1585, "pitch": 78, "duration": 7, "velocity": 127}, {"time": 1594, "pitch": 73, "duration": 3, "velocity": 112}, {"time": 1597, "pitch": 75, "duration": 20, "velocity": 122}, {"time": 1621, "pitch": 75, "duration": 3, "velocity": 127}, {"time": 1627, "pitch": 75, "duration": 1, "velocity": 122}, {"time": 1630, "pitch": 75, "duration": 1, "velocity": 112}, {"time": 1633, "pitch": 77, "duration": 7, "velocity": 117}, {"time": 1642, "pitch": 73, "duration": 1, "velocity": 122}, {"time": 1645, "pitch": 70, "duration": 23, "velocity": 112}, {"time": 1669, "pitch": 70, "duration": 6, "velocity": 117}, {"time": 1678, "pitch": 70, "duration": 2, "velocity": 99}, {"time": 1681, "pitch": 75, "duration": 5, "velocity": 117}, {"time": 1687, "pitch": 70, "duration": 5, "velocity": 122}, {"time": 1693, "pitch": 68, "duration": 6, "velocity": 127}, {"time": 1699, "pitch": 66, "duration": 14, "velocity": 127}, {"time": 1717, "pitch": 68, "duration": 6, "velocity": 127}, {"time": 1726, "pitch": 68, "duration": 3, "velocity": 117}, {"time": 1729, "pitch": 66, "duration": 6, "velocity": 122}, {"time": 1738, "pitch": 63, "duration": 3, "velocity": 100}, {"time": 1741, "pitch": 70, "duration": 23, "velocity": 122}, {"time": 1765, "pitch": 75, "duration": 3, "velocity": 127}, {"time": 1771, "pitch": 75, "duration": 1, "velocity": 107}, {"time": 1774, "pitch": 75, "duration": 1, "velocity": 112}, {"time": 1777, "pitch": 77, "duration": 6, "velocity": 117}, {"time": 1786, "pitch": 73, "duration": 2, "velocity": 112}, {"time": 1789, "pitch": 75, "duration": 20, "velocity": 112}, {"time": 1813, "pitch": 75, "duration": 3, "velocity": 122}, {"time": 1819, "pitch": 75, "duration": 1, "velocity": 107}, {"time": 1822, "pitch": 75, "duration": 1, "velocity": 102}, {"time": 1825, "pitch": 77, "duration": 7, "velocity": 97}, {"time": 1834, "pitch": 73, "duration": 2, "velocity": 100}, {"time": 1837, "pitch": 70, "duration": 21, "velocity": 107}, {"time": 1861, "pitch": 70, "duration": 9, "velocity": 127}, {"time": 1873, "pitch": 75, "duration": 3, "velocity": 122}, {"time": 1879, "pitch": 75, "duration": 1, "velocity": 112}, {"time": 1882, "pitch": 70, "duration": 1, "velocity": 112}, {"time": 1885, "pitch": 68, "duration": 4, "velocity": 117}, {"time": 1891, "pitch": 68, "duration": 2, "velocity": 122}, {"time": 1894, "pitch": 70, "duration": 1, "velocity": 93}, {"time": 1897, "pitch": 66, "duration": 12, "velocity": 117}, {"time": 1909, "pitch": 68, "duration": 5, "velocity": 127}, {"time": 1915, "pitch": 70, "duration": 5, "velocity": 127}, {"time": 1921, "pitch": 66, "duration": 7, "velocity": 127}, {"time": 1930, "pitch": 63, "duration": 1, "velocity": 112}, {"time": 1933, "pitch": 63, "duration": 23, "velocity": 127}, {"time": 1957, "pitch": 75, "duration": 5, "velocity": 127}, {"time": 1963, "pitch": 78, "duration": 9, "velocity": 127}, {"time": 1975, "pitch": 75, "duration": 4, "velocity": 127}, {"time": 1981, "pitch": 80, "duration": 7, "velocity": 127}, {"time": 1987, "pitch": 78, "duration": 14, "velocity": 127}, {"time": 2005, "pitch": 77, "duration": 4, "velocity": 122}, {"time": 2011, "pitch": 75, "duration": 2, "velocity": 107}, {"time": 2014, "pitch": 77, "duration": 2, "velocity": 89}, {"time": 2017, "pitch": 73, "duration": 7, "velocity": 107}, {"time": 2026, "pitch": 70, "duration": 1, "velocity": 117}, {"time": 2029, "pitch": 73, "duration": 4, "velocity": 127}, {"time": 2035, "pitch": 75, "duration": 18, "velocity": 127}, {"time": 2053, "pitch": 75, "duration": 1, "velocity": 122}, {"time": 2059, "pitch": 78, "duration": 8, "velocity": 127}, {"time": 2068, "pitch": 75, "duration": 4, "velocity": 127}, {"time": 2077, "pitch": 82, "duration": 5, "velocity": 127}, {"time": 2083, "pitch": 80, "duration": 13, "velocity": 127}, {"time": 2101, "pitch": 77, "duration": 4, "velocity": 127}, {"time": 2107, "pitch": 75, "duration": 2, "velocity": 122}, {"time": 2110, "pitch": 77, "duration": 2, "velocity": 93}, {"time": 2113, "pitch": 75, "duration": 5, "velocity": 122}, {"time": 2119, "pitch": 73, "duration": 5, "velocity": 112}, {"time": 2125, "pitch": 75, "duration": 6, "velocity": 96}, {"time": 2131, "pitch": 70, "duration": 3, "velocity": 97}, {"time": 2134, "pitch": 70, "duration": 11, "velocity": 100}, {"time": 2149, "pitch": 70, "duration": 5, "velocity": 127}, {"time": 2155, "pitch": 75, "duration": 3, "velocity": 99}, {"time": 2161, "pitch": 75, "duration": 3, "velocity": 117}, {"time": 2167, "pitch": 70, "duration": 2, "velocity": 107}, {"time": 2170, "pitch": 68, "duration": 3, "velocity": 86}, {"time": 2173, "pitch": 70, "duration": 3, "velocity": 107}, {"time": 2179, "pitch": 70, "duration": 10, "velocity": 122}, {"time": 2197, "pitch": 70, "duration": 4, "velocity": 122}, {"time": 2203, "pitch": 75, "duration": 4, "velocity": 96}, {"time": 2209, "pitch": 75, "duration": 3, "velocity": 117}, {"time": 2215, "pitch": 70, "duration": 2, "velocity": 102}, {"time": 2218, "pitch": 68, "duration": 3, "velocity": 92}, {"time": 2221, "pitch": 66, "duration": 4, "velocity": 107}, {"time": 2227, "pitch": 66, "duration": 10, "velocity": 122}, {"time": 2245, "pitch": 65, "duration": 1, "velocity": 102}, {"time": 2248, "pitch": 65, "duration": 3, "velocity": 96}, {"time": 2254, "pitch": 63, "duration": 2, "velocity": 107}, {"time": 2257, "pitch": 68, "duration": 4, "velocity": 122}, {"time": 2263, "pitch": 70, "duration": 1, "velocity": 117}, {"time": 2266, "pitch": 70, "duration": 1, "velocity": 112}, {"time": 2269, "pitch": 73, "duration": 7, "velocity": 122}, {"time": 2278, "pitch": 70, "duration": 2, "velocity": 117}, {"time": 2281, "pitch": 73, "duration": 6, "velocity": 127}, {"time": 2287, "pitch": 75, "duration": 3, "velocity": 127}, {"time": 2293, "pitch": 78, "duration": 6, "velocity": 127}, {"time": 2302, "pitch": 78, "duration": 2, "velocity": 127}, {"time": 2305, "pitch": 77, "duration": 4, "velocity": 117}, {"time": 2311, "pitch": 75, "duration": 4, "velocity": 127}, {"time": 2317, "pitch": 80, "duration": 23, "velocity": 127}, {"time": 2341, "pitch": 75, "duration": 4, "velocity": 127}, {"time": 2347, "pitch": 77, "duration": 5, "velocity": 102}, {"time": 2353, "pitch": 73, "duration": 3, "velocity": 127}, {"time": 2356, "pitch": 70, "duration": 4, "velocity": 117}, {"time": 2362, "pitch": 70, "duration": 3, "velocity": 112}, {"time": 2365, "pitch": 73, "duration": 5, "velocity": 122}, {"time": 2371, "pitch": 75, "duration": 39, "velocity": 122}, {"time": 2413, "pitch": 75, "duration": 5, "velocity": 127}, {"time": 2419, "pitch": 78, "duration": 9, "velocity": 127}, {"time": 2431, "pitch": 75, "duration": 4, "velocity": 127}, {"time": 2437, "pitch": 80, "duration": 7, "velocity": 127}, {"time": 2443, "pitch": 78, "duration": 14, "velocity": 127}, {"time": 2461, "pitch": 77, "duration": 4, "velocity": 122}, {"time": 2467, "pitch": 75, "duration": 2, "velocity": 107}, {"time": 2470, "pitch": 77, "duration": 2, "velocity": 89}, {"time": 2473, "pitch": 73, "duration": 7, "velocity": 107}, {"time": 2482, "pitch": 70, "duration": 1, "velocity": 117}, {"time": 2485, "pitch": 73, "duration": 4, "velocity": 127}, {"time": 2491, "pitch": 75, "duration": 18, "velocity": 127}, {"time": 2509, "pitch": 75, "duration": 1, "velocity": 122}, {"time": 2515, "pitch": 78, "duration": 8, "velocity": 127}, {"time": 2524, "pitch": 75, "duration": 4, "velocity": 127}, {"time": 2533, "pitch": 82, "duration": 5, "velocity": 127}, {"time": 2539, "pitch": 80, "duration": 13, "velocity": 127}, {"time": 2557, "pitch": 77, "duration": 4, "velocity": 127}, {"time": 2563, "pitch": 75, "duration": 2, "velocity": 122}, {"time": 2566, "pitch": 77, "duration": 2, "velocity": 93}, {"time": 2569, "pitch": 75, "duration": 5, "velocity": 122}, {"time": 2575, "pitch": 73, "duration": 5, "velocity": 112}, {"time": 2581, "pitch": 75, "duration": 6, "velocity": 96}, {"time": 2587, "pitch": 70, "duration": 3, "velocity": 97}, {"time": 2590, "pitch": 70, "duration": 11, "velocity": 100}, {"time": 2605, "pitch": 70, "duration": 5, "velocity": 127}, {"time": 2611, "pitch": 75, "duration": 3, "velocity": 99}, {"time": 2617, "pitch": 75, "duration": 3, "velocity": 117}, {"time": 2623, "pitch": 70, "duration": 2, "velocity": 107}, {"time": 2626, "pitch": 68, "duration": 3, "velocity": 86}, {"time": 2629, "pitch": 70, "duration": 3, "velocity": 107}, {"time": 2635, "pitch": 70, "duration": 10, "velocity": 122}, {"time": 2653, "pitch": 70, "duration": 4, "velocity": 122}, {"time": 2659, "pitch": 75, "duration": 4, "velocity": 96}, {"time": 2665, "pitch": 75, "duration": 3, "velocity": 117}, {"time": 2671, "pitch": 70, "duration": 2, "velocity": 102}, {"time": 2674, "pitch": 68, "duration": 3, "velocity": 92}, {"time": 2677, "pitch": 66, "duration": 4, "velocity": 107}, {"time": 2683, "pitch": 66, "duration": 10, "velocity": 122}, {"time": 2701, "pitch": 65, "duration": 1, "velocity": 102}, {"time": 2704, "pitch": 65, "duration": 3, "velocity": 96}, {"time": 2710, "pitch": 63, "duration": 2, "velocity": 107}, {"time": 2713, "pitch": 68, "duration": 4, "velocity": 122}, {"time": 2719, "pitch": 70, "duration": 1, "velocity": 117}, {"time": 2722, "pitch": 70, "duration": 1, "velocity": 112}, {"time": 2725, "pitch": 73, "duration": 7, "velocity": 122}, {"time": 2734, "pitch": 70, "duration": 2, "velocity": 117}, {"time": 2737, "pitch": 73, "duration": 6, "velocity": 127}, {"time": 2743, "pitch": 75, "duration": 3, "velocity": 127}, {"time": 2749, "pitch": 78, "duration": 6, "velocity": 127}, {"time": 2758, "pitch": 78, "duration": 2, "velocity": 127}, {"time": 2761, "pitch": 77, "duration": 4, "velocity": 117}, {"time": 2767, "pitch": 75, "duration": 4, "velocity": 127}, {"time": 2773, "pitch": 80, "duration": 47, "velocity": 127}, {"time": 2821, "pitch": 75, "duration": 6, "velocity": 127}, {"time": 2827, "pitch": 77, "duration": 11, "velocity": 100}, {"time": 2839, "pitch": 73, "duration": 10, "velocity": 117}, {"time": 2851, "pitch": 70, "duration": 16, "velocity": 122}, {"time": 2869, "pitch": 75, "duration": 50, "velocity": 127}]}, {"program": 0, "is_drum": false, "name": "PIANO", "notes": [{"time": 49, "pitch": 46, "duration": 5, "velocity": 57}, {"time": 49, "pitch": 58, "duration": 6, "velocity": 67}, {"time": 49, "pitch": 61, "duration": 6, "velocity": 56}, {"time": 49, "pitch": 65, "duration": 5, "velocity": 56}, {"time": 61, "pitch": 39, "duration": 36, "velocity": 56}, {"time": 61, "pitch": 51, "duration": 21, "velocity": 55}, {"time": 61, "pitch": 54, "duration": 10, "velocity": 65}, {"time": 61, "pitch": 58, "duration": 9, "velocity": 57}, {"time": 73, "pitch": 54, "duration": 9, "velocity": 44}, {"time": 73, "pitch": 58, "duration": 8, "velocity": 54}, {"time": 85, "pitch": 51, "duration": 6, "velocity": 21}, {"time": 85, "pitch": 54, "duration": 6, "velocity": 23}, {"time": 85, "pitch": 58, "duration": 5, "velocity": 23}, {"time": 97, "pitch": 37, "duration": 6, "velocity": 63}, {"time": 97, "pitch": 49, "duration": 6, "velocity": 75}, {"time": 97, "pitch": 53, "duration": 5, "velocity": 89}, {"time": 97, "pitch": 56, "duration": 6, "velocity": 67}, {"time": 109, "pitch": 36, "duration": 15, "velocity": 65}, {"time": 109, "pitch": 48, "duration": 15, "velocity": 85}, {"time": 109, "pitch": 51, "duration": 15, "velocity": 97}, {"time": 109, "pitch": 54, "duration": 15, "velocity": 93}, {"time": 133, "pitch": 35, "duration": 12, "velocity": 65}, {"time": 133, "pitch": 47, "duration": 11, "velocity": 78}, {"time": 133, "pitch": 51, "duration": 11, "velocity": 78}, {"time": 133, "pitch": 54, "duration": 12, "velocity": 74}, {"time": 157, "pitch": 34, "duration": 20, "velocity": 66}, {"time": 157, "pitch": 46, "duration": 20, "velocity": 64}, {"time": 157, "pitch": 58, "duration": 20, "velocity": 62}, {"time": 157, "pitch": 61, "duration": 20, "velocity": 68}, {"time": 157, "pitch": 65, "duration": 20, "velocity": 68}, {"time": 205, "pitch": 46, "duration": 35, "velocity": 62}, {"time": 205, "pitch": 58, "duration": 34, "velocity": 88}, {"time": 205, "pitch": 61, "duration": 35, "velocity": 86}, {"time": 205, "pitch": 65, "duration": 35, "velocity": 69}, {"time": 241, "pitch": 46, "duration": 4, "velocity": 64}, {"time": 241, "pitch": 58, "duration": 5, "velocity": 92}, {"time": 241, "pitch": 61, "duration": 5, "velocity": 95}, {"time": 241, "pitch": 65, "duration": 5, "velocity": 75}, {"time": 253, "pitch": 47, "duration": 8, "velocity": 90}, {"time": 253, "pitch": 59, "duration": 9, "velocity": 96}, {"time": 253, "pitch": 63, "duration": 17, "velocity": 117}, {"time": 253, "pitch": 66, "duration": 10, "velocity": 100}, {"time": 262, "pitch": 47, "duration": 1, "velocity": 32}, {"time": 265, "pitch": 47, "duration": 7, "velocity": 61}, {"time": 265, "pitch": 59, "duration": 5, "velocity": 25}, {"time": 265, "pitch": 66, "duration": 5, "velocity": 12}, {"time": 277, "pitch": 46, "duration": 18, "velocity": 96}, {"time": 277, "pitch": 58, "duration": 20, "velocity": 102}, {"time": 277, "pitch": 61, "duration": 22, "velocity": 97}, {"time": 289, "pitch": 65, "duration": 6, "velocity": 48}, {"time": 301, "pitch": 46, "duration": 13, "velocity": 60}, {"time": 301, "pitch": 58, "duration": 10, "velocity": 81}, {"time": 301, "pitch": 61, "duration": 11, "velocity": 69}, {"time": 301, "pitch": 65, "duration": 10, "velocity": 62}, {"time": 313, "pitch": 58, "duration": 3, "velocity": 64}, {"time": 313, "pitch": 61, "duration": 4, "velocity": 58}, {"time": 313, "pitch": 65, "duration": 3, "velocity": 60}, {"time": 325, "pitch": 39, "duration": 22, "velocity": 99}, {"time": 325, "pitch": 54, "duration": 8, "velocity": 89}, {"time": 325, "pitch": 58, "duration": 12, "velocity": 66}, {"time": 331, "pitch": 51, "duration": 9, "velocity": 39}, {"time": 337, "pitch": 54, "duration": 6, "velocity": 96}, {"time": 343, "pitch": 58, "duration": 5, "velocity": 95}, {"time": 349, "pitch": 48, "duration": 13, "velocity": 72}, {"time": 349, "pitch": 60, "duration": 7, "velocity": 89}, {"time": 349, "pitch": 63, "duration": 10, "velocity": 102}, {"time": 349, "pitch": 66, "duration": 10, "velocity": 99}, {"time": 361, "pitch": 63, "duration": 6, "velocity": 89}, {"time": 361, "pitch": 66, "duration": 6, "velocity": 78}, {"time": 373, "pitch": 47, "duration": 12, "velocity": 52}, {"time": 373, "pitch": 54, "duration": 12, "velocity": 59}, {"time": 373, "pitch": 59, "duration": 9, "velocity": 79}, {"time": 373, "pitch": 63, "duration": 10, "velocity": 102}, {"time": 373, "pitch": 66, "duration": 10, "velocity": 100}, {"time": 385, "pitch": 59, "duration": 2, "velocity": 72}, {"time": 385, "pitch": 63, "duration": 2, "velocity": 72}, {"time": 385, "pitch": 66, "duration": 1, "velocity": 66}, {"time": 397, "pitch": 46, "duration": 19, "velocity": 102}, {"time": 397, "pitch": 58, "duration": 18, "velocity": 102}, {"time": 397, "pitch": 61, "duration": 19, "velocity": 95}, {"time": 397, "pitch": 65, "duration": 18, "velocity": 81}, {"time": 421, "pitch": 46, "duration": 12, "velocity": 82}, {"time": 421, "pitch": 58, "duration": 13, "velocity": 100}, {"time": 421, "pitch": 61, "duration": 13, "velocity": 95}, {"time": 421, "pitch": 65, "duration": 13, "velocity": 78}, {"time": 445, "pitch": 39, "duration": 22, "velocity": 77}, {"time": 445, "pitch": 51, "duration": 21, "velocity": 77}, {"time": 445, "pitch": 54, "duration": 9, "velocity": 82}, {"time": 445, "pitch": 58, "duration": 9, "velocity": 68}, {"time": 457, "pitch": 54, "duration": 10, "velocity": 64}, {"time": 457, "pitch": 58, "duration": 10, "velocity": 63}, {"time": 457, "pitch": 63, "duration": 10, "velocity": 66}, {"time": 469, "pitch": 39, "duration": 20, "velocity": 63}, {"time": 469, "pitch": 51, "duration": 21, "velocity": 63}, {"time": 469, "pitch": 54, "duration": 22, "velocity": 64}, {"time": 469, "pitch": 58, "duration": 22, "velocity": 48}, {"time": 469, "pitch": 63, "duration": 22, "velocity": 52}, {"time": 493, "pitch": 39, "duration": 22, "velocity": 74}, {"time": 496, "pitch": 51, "duration": 21, "velocity": 74}, {"time": 499, "pitch": 58, "duration": 7, "velocity": 72}, {"time": 502, "pitch": 63, "duration": 3, "velocity": 61}, {"time": 505, "pitch": 66, "duration": 8, "velocity": 100}, {"time": 508, "pitch": 63, "duration": 12, "velocity": 36}, {"time": 511, "pitch": 58, "duration": 7, "velocity": 73}, {"time": 514, "pitch": 66, "duration": 11, "velocity": 65}, {"time": 517, "pitch": 39, "duration": 22, "velocity": 71}, {"time": 520, "pitch": 51, "duration": 20, "velocity": 67}, {"time": 523, "pitch": 58, "duration": 18, "velocity": 70}, {"time": 526, "pitch": 63, "duration": 3, "velocity": 41}, {"time": 529, "pitch": 70, "duration": 15, "velocity": 76}, {"time": 535, "pitch": 63, "duration": 6, "velocity": 72}, {"time": 538, "pitch": 66, "duration": 3, "velocity": 59}, {"time": 541, "pitch": 39, "duration": 16, "velocity": 81}, {"time": 544, "pitch": 51, "duration": 11, "velocity": 77}, {"time": 547, "pitch": 58, "duration": 6, "velocity": 63}, {"time": 550, "pitch": 63, "duration": 3, "velocity": 39}, {"time": 553, "pitch": 70, "duration": 6, "velocity": 100}, {"time": 556, "pitch": 58, "duration": 6, "velocity": 53}, {"time": 559, "pitch": 63, "duration": 4, "velocity": 35}, {"time": 562, "pitch": 66, "duration": 2, "velocity": 50}, {"time": 565, "pitch": 39, "duration": 22, "velocity": 71}, {"time": 568, "pitch": 51, "duration": 10, "velocity": 79}, {"time": 571, "pitch": 58, "duration": 6, "velocity": 60}, {"time": 574, "pitch": 63, "duration": 3, "velocity": 72}, {"time": 577, "pitch": 66, "duration": 12, "velocity": 95}, {"time": 580, "pitch": 51, "duration": 9, "velocity": 78}, {"time": 583, "pitch": 58, "duration": 6, "velocity": 72}, {"time": 586, "pitch": 63, "duration": 3, "velocity": 66}, {"time": 589, "pitch": 51, "duration": 11, "velocity": 92}, {"time": 592, "pitch": 58, "duration": 4, "velocity": 82}, {"time": 595, "pitch": 66, "duration": 8, "velocity": 112}, {"time": 598, "pitch": 58, "duration": 3, "velocity": 96}, {"time": 601, "pitch": 49, "duration": 11, "velocity": 93}, {"time": 607, "pitch": 61, "duration": 2, "velocity": 99}, {"time": 610, "pitch": 66, "duration": 2, "velocity": 81}, {"time": 613, "pitch": 48, "duration": 14, "velocity": 72}, {"time": 616, "pitch": 60, "duration": 4, "velocity": 72}, {"time": 619, "pitch": 63, "duration": 4, "velocity": 72}, {"time": 622, "pitch": 60, "duration": 4, "velocity": 48}, {"time": 625, "pitch": 66, "duration": 6, "velocity": 107}, {"time": 628, "pitch": 60, "duration": 6, "velocity": 34}, {"time": 631, "pitch": 63, "duration": 6, "velocity": 65}, {"time": 634, "pitch": 66, "duration": 3, "velocity": 72}, {"time": 637, "pitch": 47, "duration": 18, "velocity": 82}, {"time": 640, "pitch": 54, "duration": 11, "velocity": 92}, {"time": 643, "pitch": 59, "duration": 6, "velocity": 74}, {"time": 646, "pitch": 63, "duration": 3, "velocity": 83}, {"time": 649, "pitch": 66, "duration": 10, "velocity": 122}, {"time": 652, "pitch": 54, "duration": 3, "velocity": 93}, {"time": 655, "pitch": 63, "duration": 4, "velocity": 99}, {"time": 658, "pitch": 59, "duration": 3, "velocity": 81}, {"time": 661, "pitch": 46, "duration": 23, "velocity": 96}, {"time": 664, "pitch": 58, "duration": 4, "velocity": 51}, {"time": 667, "pitch": 61, "duration": 9, "velocity": 64}, {"time": 670, "pitch": 58, "duration": 4, "velocity": 56}, {"time": 673, "pitch": 65, "duration": 12, "velocity": 74}, {"time": 676, "pitch": 58, "duration": 3, "velocity": 57}, {"time": 679, "pitch": 61, "duration": 6, "velocity": 65}, {"time": 682, "pitch": 58, "duration": 3, "velocity": 69}, {"time": 685, "pitch": 39, "duration": 22, "velocity": 74}, {"time": 688, "pitch": 51, "duration": 21, "velocity": 74}, {"time": 691, "pitch": 58, "duration": 7, "velocity": 72}, {"time": 694, "pitch": 63, "duration": 3, "velocity": 61}, {"time": 697, "pitch": 66, "duration": 8, "velocity": 100}, {"time": 700, "pitch": 63, "duration": 12, "velocity": 36}, {"time": 703, "pitch": 58, "duration": 7, "velocity": 73}, {"time": 706, "pitch": 66, "duration": 11, "velocity": 65}, {"time": 709, "pitch": 39, "duration": 22, "velocity": 71}, {"time": 712, "pitch": 51, "duration": 20, "velocity": 67}, {"time": 715, "pitch": 58, "duration": 18, "velocity": 70}, {"time": 718, "pitch": 63, "duration": 3, "velocity": 41}, {"time": 721, "pitch": 70, "duration": 15, "velocity": 76}, {"time": 727, "pitch": 63, "duration": 6, "velocity": 72}, {"time": 730, "pitch": 66, "duration": 3, "velocity": 59}, {"time": 733, "pitch": 39, "duration": 16, "velocity": 81}, {"time": 736, "pitch": 51, "duration": 11, "velocity": 77}, {"time": 739, "pitch": 58, "duration": 6, "velocity": 63}, {"time": 742, "pitch": 63, "duration": 3, "velocity": 39}, {"time": 745, "pitch": 70, "duration": 6, "velocity": 100}, {"time": 748, "pitch": 58, "duration": 6, "velocity": 53}, {"time": 751, "pitch": 63, "duration": 4, "velocity": 35}, {"time": 754, "pitch": 66, "duration": 2, "velocity": 50}, {"time": 757, "pitch": 39, "duration": 22, "velocity": 71}, {"time": 760, "pitch": 51, "duration": 10, "velocity": 79}, {"time": 763, "pitch": 58, "duration": 6, "velocity": 60}, {"time": 766, "pitch": 63, "duration": 3, "velocity": 72}, {"time": 769, "pitch": 66, "duration": 12, "velocity": 95}, {"time": 772, "pitch": 51, "duration": 9, "velocity": 78}, {"time": 775, "pitch": 58, "duration": 6, "velocity": 72}, {"time": 778, "pitch": 63, "duration": 3, "velocity": 66}, {"time": 781, "pitch": 51, "duration": 11, "velocity": 92}, {"time": 784, "pitch": 58, "duration": 4, "velocity": 82}, {"time": 787, "pitch": 66, "duration": 8, "velocity": 112}, {"time": 790, "pitch": 58, "duration": 3, "velocity": 96}, {"time": 793, "pitch": 49, "duration": 11, "velocity": 93}, {"time": 799, "pitch": 61, "duration": 2, "velocity": 99}, {"time": 802, "pitch": 66, "duration": 2, "velocity": 81}, {"time": 805, "pitch": 48, "duration": 14, "velocity": 72}, {"time": 808, "pitch": 60, "duration": 4, "velocity": 72}, {"time": 811, "pitch": 63, "duration": 4, "velocity": 72}, {"time": 814, "pitch": 60, "duration": 4, "velocity": 48}, {"time": 817, "pitch": 66, "duration": 6, "velocity": 107}, {"time": 820, "pitch": 60, "duration": 6, "velocity": 34}, {"time": 823, "pitch": 63, "duration": 6, "velocity": 65}, {"time": 826, "pitch": 66, "duration": 3, "velocity": 72}, {"time": 829, "pitch": 47, "duration": 18, "velocity": 82}, {"time": 832, "pitch": 54, "duration": 11, "velocity": 92}, {"time": 835, "pitch": 59, "duration": 6, "velocity": 74}, {"time": 838, "pitch": 63, "duration": 3, "velocity": 83}, {"time": 841, "pitch": 66, "duration": 10, "velocity": 122}, {"time": 844, "pitch": 54, "duration": 3, "velocity": 93}, {"time": 847, "pitch": 63, "duration": 4, "velocity": 99}, {"time": 850, "pitch": 59, "duration": 3, "velocity": 81}, {"time": 853, "pitch": 46, "duration": 23, "velocity": 96}, {"time": 856, "pitch": 58, "duration": 4, "velocity": 51}, {"time": 859, "pitch": 61, "duration": 9, "velocity": 64}, {"time": 862, "pitch": 58, "duration": 4, "velocity": 56}, {"time": 865, "pitch": 65, "duration": 14, "velocity": 74}, {"time": 868, "pitch": 58, "duration": 3, "velocity": 57}, {"time": 871, "pitch": 61, "duration": 8, "velocity": 65}, {"time": 874, "pitch": 58, "duration": 6, "velocity": 69}, {"time": 877, "pitch": 36, "duration": 13, "velocity": 82}, {"time": 877, "pitch": 48, "duration": 13, "velocity": 100}, {"time": 877, "pitch": 60, "duration": 9, "velocity": 97}, {"time": 877, "pitch": 63, "duration": 9, "velocity": 127}, {"time": 877, "pitch": 66, "duration": 9, "velocity": 112}, {"time": 889, "pitch": 60, "duration": 5, "velocity": 107}, {"time": 889, "pitch": 63, "duration": 6, "velocity": 127}, {"time": 889, "pitch": 66, "duration": 5, "velocity": 127}, {"time": 901, "pitch": 35, "duration": 15, "velocity": 82}, {"time": 901, "pitch": 47, "duration": 16, "velocity": 99}, {"time": 901, "pitch": 59, "duration": 8, "velocity": 112}, {"time": 901, "pitch": 63, "duration": 9, "velocity": 127}, {"time": 901, "pitch": 66, "duration": 9, "velocity": 117}, {"time": 913, "pitch": 59, "duration": 3, "velocity": 102}, {"time": 913, "pitch": 63, "duration": 3, "velocity": 127}, {"time": 913, "pitch": 66, "duration": 3, "velocity": 127}, {"time": 925, "pitch": 34, "duration": 15, "velocity": 97}, {"time": 925, "pitch": 46, "duration": 17, "velocity": 112}, {"time": 925, "pitch": 58, "duration": 10, "velocity": 100}, {"time": 925, "pitch": 61, "duration": 9, "velocity": 127}, {"time": 925, "pitch": 65, "duration": 7, "velocity": 92}, {"time": 937, "pitch": 58, "duration": 3, "velocity": 85}, {"time": 937, "pitch": 61, "duration": 2, "velocity": 92}, {"time": 937, "pitch": 65, "duration": 3, "velocity": 83}, {"time": 949, "pitch": 39, "duration": 19, "velocity": 112}, {"time": 949, "pitch": 54, "duration": 2, "velocity": 127}, {"time": 949, "pitch": 58, "duration": 2, "velocity": 117}, {"time": 955, "pitch": 51, "duration": 10, "velocity": 44}, {"time": 961, "pitch": 58, "duration": 3, "velocity": 107}, {"time": 961, "pitch": 63, "duration": 4, "velocity": 127}, {"time": 961, "pitch": 66, "duration": 4, "velocity": 127}, {"time": 967, "pitch": 51, "duration": 1, "velocity": 102}, {"time": 967, "pitch": 58, "duration": 1, "velocity": 97}, {"time": 967, "pitch": 63, "duration": 1, "velocity": 127}, {"time": 967, "pitch": 66, "duration": 1, "velocity": 117}, {"time": 973, "pitch": 36, "duration": 17, "velocity": 64}, {"time": 973, "pitch": 48, "duration": 15, "velocity": 107}, {"time": 973, "pitch": 60, "duration": 8, "velocity": 100}, {"time": 973, "pitch": 63, "duration": 7, "velocity": 122}, {"time": 985, "pitch": 60, "duration": 3, "velocity": 99}, {"time": 985, "pitch": 63, "duration": 6, "velocity": 127}, {"time": 985, "pitch": 66, "duration": 6, "velocity": 127}, {"time": 991, "pitch": 60, "duration": 1, "velocity": 96}, {"time": 997, "pitch": 35, "duration": 15, "velocity": 75}, {"time": 997, "pitch": 47, "duration": 15, "velocity": 96}, {"time": 997, "pitch": 59, "duration": 8, "velocity": 96}, {"time": 997, "pitch": 63, "duration": 9, "velocity": 127}, {"time": 997, "pitch": 66, "duration": 9, "velocity": 127}, {"time": 1009, "pitch": 63, "duration": 3, "velocity": 127}, {"time": 1009, "pitch": 66, "duration": 3, "velocity": 127}, {"time": 1021, "pitch": 34, "duration": 19, "velocity": 79}, {"time": 1021, "pitch": 46, "duration": 22, "velocity": 100}, {"time": 1021, "pitch": 58, "duration": 8, "velocity": 107}, {"time": 1021, "pitch": 61, "duration": 7, "velocity": 127}, {"time": 1021, "pitch": 65, "duration": 8, "velocity": 97}, {"time": 1033, "pitch": 58, "duration": 1, "velocity": 47}, {"time": 1033, "pitch": 61, "duration": 19, "velocity": 67}, {"time": 1033, "pitch": 65, "duration": 18, "velocity": 58}, {"time": 1045, "pitch": 34, "duration": 14, "velocity": 66}, {"time": 1045, "pitch": 46, "duration": 15, "velocity": 71}, {"time": 1057, "pitch": 58, "duration": 3, "velocity": 54}, {"time": 1057, "pitch": 61, "duration": 3, "velocity": 57}, {"time": 1057, "pitch": 65, "duration": 3, "velocity": 60}, {"time": 1069, "pitch": 39, "duration": 8, "velocity": 82}, {"time": 1072, "pitch": 51, "duration": 4, "velocity": 52}, {"time": 1075, "pitch": 54, "duration": 4, "velocity": 71}, {"time": 1075, "pitch": 58, "duration": 4, "velocity": 93}, {"time": 1093, "pitch": 39, "duration": 6, "velocity": 86}, {"time": 1096, "pitch": 51, "duration": 3, "velocity": 69}, {"time": 1099, "pitch": 54, "duration": 4, "velocity": 73}, {"time": 1099, "pitch": 58, "duration": 5, "velocity": 79}, {"time": 1117, "pitch": 39, "duration": 6, "velocity": 77}, {"time": 1120, "pitch": 51, "duration": 3, "velocity": 54}, {"time": 1123, "pitch": 54, "duration": 4, "velocity": 67}, {"time": 1123, "pitch": 58, "duration": 4, "velocity": 86}, {"time": 1141, "pitch": 47, "duration": 19, "velocity": 73}, {"time": 1147, "pitch": 54, "duration": 12, "velocity": 58}, {"time": 1147, "pitch": 59, "duration": 4, "velocity": 50}, {"time": 1147, "pitch": 63, "duration": 4, "velocity": 77}, {"time": 1147, "pitch": 66, "duration": 4, "velocity": 65}, {"time": 1153, "pitch": 59, "duration": 3, "velocity": 83}, {"time": 1153, "pitch": 63, "duration": 6, "velocity": 122}, {"time": 1153, "pitch": 66, "duration": 6, "velocity": 100}, {"time": 1159, "pitch": 59, "duration": 2, "velocity": 112}, {"time": 1165, "pitch": 46, "duration": 16, "velocity": 112}, {"time": 1165, "pitch": 58, "duration": 10, "velocity": 93}, {"time": 1165, "pitch": 61, "duration": 10, "velocity": 112}, {"time": 1165, "pitch": 65, "duration": 10, "velocity": 85}, {"time": 1165, "pitch": 66, "duration": 1, "velocity": 69}, {"time": 1177, "pitch": 58, "duration": 3, "velocity": 68}, {"time": 1177, "pitch": 61, "duration": 7, "velocity": 69}, {"time": 1177, "pitch": 65, "duration": 7, "velocity": 72}, {"time": 1183, "pitch": 58, "duration": 3, "velocity": 61}, {"time": 1189, "pitch": 46, "duration": 12, "velocity": 72}, {"time": 1189, "pitch": 58, "duration": 10, "velocity": 70}, {"time": 1189, "pitch": 61, "duration": 8, "velocity": 73}, {"time": 1189, "pitch": 65, "duration": 7, "velocity": 66}, {"time": 1201, "pitch": 58, "duration": 6, "velocity": 112}, {"time": 1201, "pitch": 61, "duration": 6, "velocity": 127}, {"time": 1201, "pitch": 65, "duration": 5, "velocity": 89}, {"time": 1207, "pitch": 46, "duration": 6, "velocity": 112}, {"time": 1213, "pitch": 39, "duration": 18, "velocity": 127}, {"time": 1213, "pitch": 54, "duration": 5, "velocity": 127}, {"time": 1213, "pitch": 58, "duration": 5, "velocity": 112}, {"time": 1219, "pitch": 51, "duration": 9, "velocity": 92}, {"time": 1225, "pitch": 63, "duration": 6, "velocity": 117}, {"time": 1225, "pitch": 66, "duration": 6, "velocity": 127}, {"time": 1225, "pitch": 70, "duration": 6, "velocity": 122}, {"time": 1231, "pitch": 51, "duration": 1, "velocity": 96}, {"time": 1237, "pitch": 37, "duration": 11, "velocity": 99}, {"time": 1237, "pitch": 49, "duration": 11, "velocity": 95}, {"time": 1237, "pitch": 61, "duration": 9, "velocity": 112}, {"time": 1237, "pitch": 65, "duration": 8, "velocity": 122}, {"time": 1237, "pitch": 68, "duration": 8, "velocity": 122}, {"time": 1249, "pitch": 37, "duration": 5, "velocity": 95}, {"time": 1249, "pitch": 49, "duration": 4, "velocity": 88}, {"time": 1249, "pitch": 61, "duration": 4, "velocity": 112}, {"time": 1249, "pitch": 65, "duration": 4, "velocity": 127}, {"time": 1249, "pitch": 68, "duration": 4, "velocity": 122}, {"time": 1255, "pitch": 61, "duration": 1, "velocity": 122}, {"time": 1255, "pitch": 65, "duration": 1, "velocity": 112}, {"time": 1255, "pitch": 68, "duration": 1, "velocity": 99}, {"time": 1261, "pitch": 35, "duration": 4, "velocity": 88}, {"time": 1261, "pitch": 47, "duration": 4, "velocity": 99}, {"time": 1261, "pitch": 59, "duration": 4, "velocity": 112}, {"time": 1261, "pitch": 63, "duration": 4, "velocity": 127}, {"time": 1261, "pitch": 66, "duration": 4, "velocity": 127}, {"time": 1285, "pitch": 39, "duration": 16, "velocity": 107}, {"time": 1285, "pitch": 63, "duration": 6, "velocity": 100}, {"time": 1285, "pitch": 66, "duration": 5, "velocity": 122}, {"time": 1285, "pitch": 70, "duration": 5, "velocity": 96}, {"time": 1291, "pitch": 51, "duration": 10, "velocity": 96}, {"time": 1297, "pitch": 54, "duration": 4, "velocity": 127}, {"time": 1300, "pitch": 58, "duration": 2, "velocity": 21}, {"time": 1303, "pitch": 39, "duration": 4, "velocity": 82}, {"time": 1303, "pitch": 51, "duration": 4, "velocity": 99}, {"time": 1303, "pitch": 54, "duration": 4, "velocity": 127}, {"time": 1303, "pitch": 58, "duration": 4, "velocity": 122}, {"time": 1309, "pitch": 39, "duration": 16, "velocity": 95}, {"time": 1309, "pitch": 58, "duration": 1, "velocity": 82}, {"time": 1315, "pitch": 51, "duration": 7, "velocity": 102}, {"time": 1315, "pitch": 63, "duration": 3, "velocity": 96}, {"time": 1315, "pitch": 66, "duration": 1, "velocity": 127}, {"time": 1315, "pitch": 70, "duration": 3, "velocity": 102}, {"time": 1318, "pitch": 66, "duration": 1, "velocity": 26}, {"time": 1321, "pitch": 63, "duration": 3, "velocity": 122}, {"time": 1321, "pitch": 66, "duration": 1, "velocity": 127}, {"time": 1321, "pitch": 70, "duration": 3, "velocity": 127}, {"time": 1324, "pitch": 51, "duration": 3, "velocity": 95}, {"time": 1327, "pitch": 63, "duration": 1, "velocity": 112}, {"time": 1327, "pitch": 66, "duration": 1, "velocity": 122}, {"time": 1327, "pitch": 70, "duration": 1, "velocity": 90}, {"time": 1333, "pitch": 47, "duration": 16, "velocity": 82}, {"time": 1333, "pitch": 54, "duration": 13, "velocity": 97}, {"time": 1333, "pitch": 59, "duration": 7, "velocity": 117}, {"time": 1333, "pitch": 63, "duration": 8, "velocity": 127}, {"time": 1333, "pitch": 66, "duration": 8, "velocity": 122}, {"time": 1345, "pitch": 59, "duration": 5, "velocity": 100}, {"time": 1345, "pitch": 63, "duration": 4, "velocity": 127}, {"time": 1345, "pitch": 66, "duration": 4, "velocity": 127}, {"time": 1351, "pitch": 47, "duration": 3, "velocity": 96}, {"time": 1357, "pitch": 46, "duration": 16, "velocity": 127}, {"time": 1357, "pitch": 58, "duration": 7, "velocity": 122}, {"time": 1357, "pitch": 61, "duration": 10, "velocity": 112}, {"time": 1357, "pitch": 65, "duration": 7, "velocity": 92}, {"time": 1369, "pitch": 58, "duration": 7, "velocity": 127}, {"time": 1369, "pitch": 61, "duration": 10, "velocity": 122}, {"time": 1369, "pitch": 65, "duration": 7, "velocity": 95}, {"time": 1375, "pitch": 46, "duration": 4, "velocity": 85}, {"time": 1381, "pitch": 46, "duration": 10, "velocity": 122}, {"time": 1381, "pitch": 58, "duration": 9, "velocity": 127}, {"time": 1381, "pitch": 61, "duration": 9, "velocity": 107}, {"time": 1381, "pitch": 65, "duration": 9, "velocity": 89}, {"time": 1393, "pitch": 58, "duration": 6, "velocity": 127}, {"time": 1393, "pitch": 61, "duration": 5, "velocity": 92}, {"time": 1393, "pitch": 65, "duration": 2, "velocity": 88}, {"time": 1399, "pitch": 46, "duration": 5, "velocity": 100}, {"time": 1405, "pitch": 39, "duration": 11, "velocity": 107}, {"time": 1405, "pitch": 63, "duration": 6, "velocity": 102}, {"time": 1405, "pitch": 66, "duration": 12, "velocity": 99}, {"time": 1411, "pitch": 58, "duration": 6, "velocity": 102}, {"time": 1417, "pitch": 37, "duration": 7, "velocity": 99}, {"time": 1417, "pitch": 61, "duration": 6, "velocity": 92}, {"time": 1423, "pitch": 66, "duration": 1, "velocity": 89}, {"time": 1429, "pitch": 36, "duration": 13, "velocity": 77}, {"time": 1429, "pitch": 60, "duration": 11, "velocity": 88}, {"time": 1429, "pitch": 63, "duration": 10, "velocity": 107}, {"time": 1441, "pitch": 63, "duration": 6, "velocity": 107}, {"time": 1441, "pitch": 66, "duration": 6, "velocity": 112}, {"time": 1447, "pitch": 60, "duration": 1, "velocity": 83}, {"time": 1453, "pitch": 35, "duration": 12, "velocity": 77}, {"time": 1453, "pitch": 59, "duration": 7, "velocity": 95}, {"time": 1453, "pitch": 63, "duration": 7, "velocity": 102}, {"time": 1453, "pitch": 66, "duration": 7, "velocity": 107}, {"time": 1459, "pitch": 42, "duration": 8, "velocity": 55}, {"time": 1465, "pitch": 63, "duration": 6, "velocity": 127}, {"time": 1465, "pitch": 66, "duration": 6, "velocity": 117}, {"time": 1471, "pitch": 59, "duration": 1, "velocity": 82}, {"time": 1477, "pitch": 34, "duration": 22, "velocity": 72}, {"time": 1477, "pitch": 46, "duration": 22, "velocity": 82}, {"time": 1477, "pitch": 58, "duration": 22, "velocity": 99}, {"time": 1477, "pitch": 61, "duration": 22, "velocity": 102}, {"time": 1477, "pitch": 65, "duration": 21, "velocity": 81}, {"time": 1501, "pitch": 34, "duration": 12, "velocity": 59}, {"time": 1501, "pitch": 46, "duration": 13, "velocity": 59}, {"time": 1501, "pitch": 58, "duration": 13, "velocity": 68}, {"time": 1501, "pitch": 61, "duration": 12, "velocity": 65}, {"time": 1501, "pitch": 65, "duration": 12, "velocity": 55}, {"time": 1525, "pitch": 39, "duration": 48, "velocity": 90}, {"time": 1525, "pitch": 54, "duration": 9, "velocity": 93}, {"time": 1525, "pitch": 58, "duration": 7, "velocity": 89}, {"time": 1525, "pitch": 63, "duration": 7, "velocity": 74}, {"time": 1531, "pitch": 51, "duration": 9, "velocity": 96}, {"time": 1537, "pitch": 58, "duration": 21, "velocity": 66}, {"time": 1537, "pitch": 63, "duration": 19, "velocity": 81}, {"time": 1543, "pitch": 51, "duration": 10, "velocity": 64}, {"time": 1549, "pitch": 54, "duration": 12, "velocity": 65}, {"time": 1555, "pitch": 51, "duration": 18, "velocity": 44}, {"time": 1561, "pitch": 63, "duration": 12, "velocity": 107}, {"time": 1564, "pitch": 54, "duration": 3, "velocity": 68}, {"time": 1567, "pitch": 58, "duration": 6, "velocity": 78}, {"time": 1570, "pitch": 54, "duration": 3, "velocity": 71}, {"time": 1573, "pitch": 39, "duration": 22, "velocity": 74}, {"time": 1576, "pitch": 51, "duration": 21, "velocity": 74}, {"time": 1579, "pitch": 58, "duration": 7, "velocity": 72}, {"time": 1582, "pitch": 63, "duration": 3, "velocity": 61}, {"time": 1585, "pitch": 66, "duration": 8, "velocity": 100}, {"time": 1588, "pitch": 63, "duration": 12, "velocity": 36}, {"time": 1591, "pitch": 58, "duration": 7, "velocity": 73}, {"time": 1594, "pitch": 66, "duration": 11, "velocity": 65}, {"time": 1597, "pitch": 39, "duration": 22, "velocity": 71}, {"time": 1600, "pitch": 51, "duration": 20, "velocity": 67}, {"time": 1603, "pitch": 58, "duration": 18, "velocity": 70}, {"time": 1606, "pitch": 63, "duration": 3, "velocity": 41}, {"time": 1609, "pitch": 70, "duration": 15, "velocity": 76}, {"time": 1615, "pitch": 63, "duration": 6, "velocity": 72}, {"time": 1618, "pitch": 66, "duration": 3, "velocity": 59}, {"time": 1621, "pitch": 39, "duration": 16, "velocity": 81}, {"time": 1624, "pitch": 51, "duration": 11, "velocity": 77}, {"time": 1627, "pitch": 58, "duration": 6, "velocity": 63}, {"time": 1630, "pitch": 63, "duration": 3, "velocity": 39}, {"time": 1633, "pitch": 70, "duration": 6, "velocity": 100}, {"time": 1636, "pitch": 58, "duration": 6, "velocity": 53}, {"time": 1639, "pitch": 63, "duration": 4, "velocity": 35}, {"time": 1642, "pitch": 66, "duration": 2, "velocity": 50}, {"time": 1645, "pitch": 39, "duration": 22, "velocity": 71}, {"time": 1648, "pitch": 51, "duration": 10, "velocity": 79}, {"time": 1651, "pitch": 58, "duration": 6, "velocity": 60}, {"time": 1654, "pitch": 63, "duration": 3, "velocity": 72}, {"time": 1657, "pitch": 66, "duration": 12, "velocity": 95}, {"time": 1660, "pitch": 51, "duration": 9, "velocity": 78}, {"time": 1663, "pitch": 58, "duration": 6, "velocity": 72}, {"time": 1666, "pitch": 63, "duration": 3, "velocity": 66}, {"time": 1669, "pitch": 51, "duration": 11, "velocity": 92}, {"time": 1672, "pitch": 58, "duration": 4, "velocity": 82}, {"time": 1675, "pitch": 66, "duration": 8, "velocity": 112}, {"time": 1678, "pitch": 58, "duration": 3, "velocity": 96}, {"time": 1681, "pitch": 49, "duration": 11, "velocity": 93}, {"time": 1687, "pitch": 61, "duration": 2, "velocity": 99}, {"time": 1690, "pitch": 66, "duration": 2, "velocity": 81}, {"time": 1693, "pitch": 48, "duration": 14, "velocity": 72}, {"time": 1696, "pitch": 60, "duration": 4, "velocity": 72}, {"time": 1699, "pitch": 63, "duration": 4, "velocity": 72}, {"time": 1702, "pitch": 60, "duration": 4, "velocity": 48}, {"time": 1705, "pitch": 66, "duration": 6, "velocity": 107}, {"time": 1708, "pitch": 60, "duration": 6, "velocity": 34}, {"time": 1711, "pitch": 63, "duration": 6, "velocity": 65}, {"time": 1714, "pitch": 66, "duration": 3, "velocity": 72}, {"time": 1717, "pitch": 47, "duration": 18, "velocity": 82}, {"time": 1720, "pitch": 54, "duration": 11, "velocity": 92}, {"time": 1723, "pitch": 59, "duration": 6, "velocity": 74}, {"time": 1726, "pitch": 63, "duration": 3, "velocity": 83}, {"time": 1729, "pitch": 66, "duration": 10, "velocity": 122}, {"time": 1732, "pitch": 54, "duration": 3, "velocity": 93}, {"time": 1735, "pitch": 63, "duration": 4, "velocity": 99}, {"time": 1738, "pitch": 59, "duration": 3, "velocity": 81}, {"time": 1741, "pitch": 46, "duration": 23, "velocity": 96}, {"time": 1744, "pitch": 58, "duration": 4, "velocity": 51}, {"time": 1747, "pitch": 61, "duration": 9, "velocity": 64}, {"time": 1750, "pitch": 58, "duration": 4, "velocity": 56}, {"time": 1753, "pitch": 65, "duration": 12, "velocity": 74}, {"time": 1756, "pitch": 58, "duration": 3, "velocity": 57}, {"time": 1759, "pitch": 61, "duration": 6, "velocity": 65}, {"time": 1762, "pitch": 58, "duration": 3, "velocity": 69}, {"time": 1765, "pitch": 39, "duration": 22, "velocity": 74}, {"time": 1768, "pitch": 51, "duration": 21, "velocity": 74}, {"time": 1771, "pitch": 58, "duration": 7, "velocity": 72}, {"time": 1774, "pitch": 63, "duration": 3, "velocity": 61}, {"time": 1777, "pitch": 66, "duration": 8, "velocity": 100}, {"time": 1780, "pitch": 63, "duration": 12, "velocity": 36}, {"time": 1783, "pitch": 58, "duration": 7, "velocity": 73}, {"time": 1786, "pitch": 66, "duration": 11, "velocity": 65}, {"time": 1789, "pitch": 39, "duration": 22, "velocity": 71}, {"time": 1792, "pitch": 51, "duration": 20, "velocity": 67}, {"time": 1795, "pitch": 58, "duration": 18, "velocity": 70}, {"time": 1798, "pitch": 63, "duration": 3, "velocity": 41}, {"time": 1801, "pitch": 70, "duration": 15, "velocity": 76}, {"time": 1807, "pitch": 63, "duration": 6, "velocity": 72}, {"time": 1810, "pitch": 66, "duration": 3, "velocity": 59}, {"time": 1813, "pitch": 39, "duration": 16, "velocity": 81}, {"time": 1816, "pitch": 51, "duration": 11, "velocity": 77}, {"time": 1819, "pitch": 58, "duration": 6, "velocity": 63}, {"time": 1822, "pitch": 63, "duration": 3, "velocity": 39}, {"time": 1825, "pitch": 70, "duration": 6, "velocity": 100}, {"time": 1828, "pitch": 58, "duration": 6, "velocity": 53}, {"time": 1831, "pitch": 63, "duration": 4, "velocity": 35}, {"time": 1834, "pitch": 66, "duration": 2, "velocity": 50}, {"time": 1837, "pitch": 39, "duration": 22, "velocity": 71}, {"time": 1840, "pitch": 51, "duration": 10, "velocity": 79}, {"time": 1843, "pitch": 58, "duration": 6, "velocity": 60}, {"time": 1846, "pitch": 63, "duration": 3, "velocity": 72}, {"time": 1849, "pitch": 66, "duration": 12, "velocity": 95}, {"time": 1852, "pitch": 51, "duration": 9, "velocity": 78}, {"time": 1855, "pitch": 58, "duration": 6, "velocity": 72}, {"time": 1858, "pitch": 63, "duration": 3, "velocity": 66}, {"time": 1861, "pitch": 51, "duration": 11, "velocity": 92}, {"time": 1864, "pitch": 58, "duration": 4, "velocity": 82}, {"time": 1867, "pitch": 66, "duration": 8, "velocity": 112}, {"time": 1870, "pitch": 58, "duration": 3, "velocity": 96}, {"time": 1873, "pitch": 49, "duration": 11, "velocity": 93}, {"time": 1879, "pitch": 61, "duration": 2, "velocity": 99}, {"time": 1882, "pitch": 66, "duration": 2, "velocity": 81}, {"time": 1885, "pitch": 48, "duration": 14, "velocity": 72}, {"time": 1888, "pitch": 60, "duration": 4, "velocity": 72}, {"time": 1891, "pitch": 63, "duration": 4, "velocity": 72}, {"time": 1894, "pitch": 60, "duration": 4, "velocity": 48}, {"time": 1897, "pitch": 66, "duration": 6, "velocity": 107}, {"time": 1900, "pitch": 60, "duration": 6, "velocity": 34}, {"time": 1903, "pitch": 63, "duration": 6, "velocity": 65}, {"time": 1906, "pitch": 66, "duration": 3, "velocity": 72}, {"time": 1909, "pitch": 47, "duration": 18, "velocity": 82}, {"time": 1912, "pitch": 54, "duration": 11, "velocity": 92}, {"time": 1915, "pitch": 59, "duration": 6, "velocity": 74}, {"time": 1918, "pitch": 63, "duration": 3, "velocity": 83}, {"time": 1921, "pitch": 66, "duration": 10, "velocity": 122}, {"time": 1924, "pitch": 54, "duration": 3, "velocity": 93}, {"time": 1927, "pitch": 63, "duration": 4, "velocity": 99}, {"time": 1930, "pitch": 59, "duration": 3, "velocity": 81}, {"time": 1933, "pitch": 46, "duration": 23, "velocity": 96}, {"time": 1936, "pitch": 58, "duration": 4, "velocity": 51}, {"time": 1939, "pitch": 61, "duration": 9, "velocity": 64}, {"time": 1942, "pitch": 58, "duration": 4, "velocity": 56}, {"time": 1945, "pitch": 65, "duration": 14, "velocity": 74}, {"time": 1948, "pitch": 58, "duration": 3, "velocity": 57}, {"time": 1951, "pitch": 61, "duration": 8, "velocity": 65}, {"time": 1954, "pitch": 58, "duration": 6, "velocity": 69}, {"time": 1957, "pitch": 36, "duration": 13, "velocity": 82}, {"time": 1957, "pitch": 48, "duration": 13, "velocity": 100}, {"time": 1957, "pitch": 60, "duration": 9, "velocity": 97}, {"time": 1957, "pitch": 63, "duration": 9, "velocity": 127}, {"time": 1957, "pitch": 66, "duration": 9, "velocity": 112}, {"time": 1969, "pitch": 60, "duration": 5, "velocity": 107}, {"time": 1969, "pitch": 63, "duration": 6, "velocity": 127}, {"time": 1969, "pitch": 66, "duration": 5, "velocity": 127}, {"time": 1981, "pitch": 35, "duration": 15, "velocity": 82}, {"time": 1981, "pitch": 47, "duration": 16, "velocity": 99}, {"time": 1981, "pitch": 59, "duration": 8, "velocity": 112}, {"time": 1981, "pitch": 63, "duration": 9, "velocity": 127}, {"time": 1981, "pitch": 66, "duration": 9, "velocity": 117}, {"time": 1993, "pitch": 59, "duration": 3, "velocity": 102}, {"time": 1993, "pitch": 63, "duration": 3, "velocity": 127}, {"time": 1993, "pitch": 66, "duration": 3, "velocity": 127}, {"time": 2005, "pitch": 34, "duration": 15, "velocity": 97}, {"time": 2005, "pitch": 46, "duration": 17, "velocity": 112}, {"time": 2005, "pitch": 58, "duration": 10, "velocity": 100}, {"time": 2005, "pitch": 61, "duration": 9, "velocity": 127}, {"time": 2005, "pitch": 65, "duration": 7, "velocity": 92}, {"time": 2017, "pitch": 58, "duration": 3, "velocity": 85}, {"time": 2017, "pitch": 61, "duration": 2, "velocity": 92}, {"time": 2017, "pitch": 65, "duration": 3, "velocity": 83}, {"time": 2029, "pitch": 39, "duration": 19, "velocity": 112}, {"time": 2029, "pitch": 54, "duration": 2, "velocity": 127}, {"time": 2029, "pitch": 58, "duration": 2, "velocity": 117}, {"time": 2035, "pitch": 51, "duration": 10, "velocity": 44}, {"time": 2041, "pitch": 58, "duration": 3, "velocity": 107}, {"time": 2041, "pitch": 63, "duration": 4, "velocity": 127}, {"time": 2041, "pitch": 66, "duration": 4, "velocity": 127}, {"time": 2047, "pitch": 51, "duration": 1, "velocity": 102}, {"time": 2047, "pitch": 58, "duration": 1, "velocity": 97}, {"time": 2047, "pitch": 63, "duration": 1, "velocity": 127}, {"time": 2047, "pitch": 66, "duration": 1, "velocity": 117}, {"time": 2053, "pitch": 36, "duration": 17, "velocity": 64}, {"time": 2053, "pitch": 48, "duration": 15, "velocity": 107}, {"time": 2053, "pitch": 60, "duration": 8, "velocity": 100}, {"time": 2053, "pitch": 63, "duration": 7, "velocity": 122}, {"time": 2065, "pitch": 60, "duration": 3, "velocity": 99}, {"time": 2065, "pitch": 63, "duration": 6, "velocity": 127}, {"time": 2065, "pitch": 66, "duration": 6, "velocity": 127}, {"time": 2071, "pitch": 60, "duration": 1, "velocity": 96}, {"time": 2077, "pitch": 35, "duration": 15, "velocity": 75}, {"time": 2077, "pitch": 47, "duration": 15, "velocity": 96}, {"time": 2077, "pitch": 59, "duration": 8, "velocity": 96}, {"time": 2077, "pitch": 63, "duration": 9, "velocity": 127}, {"time": 2077, "pitch": 66, "duration": 9, "velocity": 127}, {"time": 2089, "pitch": 63, "duration": 3, "velocity": 127}, {"time": 2089, "pitch": 66, "duration": 3, "velocity": 127}, {"time": 2101, "pitch": 34, "duration": 19, "velocity": 79}, {"time": 2101, "pitch": 46, "duration": 22, "velocity": 100}, {"time": 2101, "pitch": 58, "duration": 8, "velocity": 107}, {"time": 2101, "pitch": 61, "duration": 7, "velocity": 127}, {"time": 2101, "pitch": 65, "duration": 8, "velocity": 97}, {"time": 2113, "pitch": 58, "duration": 1, "velocity": 47}, {"time": 2113, "pitch": 61, "duration": 19, "velocity": 67}, {"time": 2113, "pitch": 65, "duration": 18, "velocity": 58}, {"time": 2125, "pitch": 34, "duration": 14, "velocity": 66}, {"time": 2125, "pitch": 46, "duration": 15, "velocity": 71}, {"time": 2137, "pitch": 58, "duration": 3, "velocity": 54}, {"time": 2137, "pitch": 61, "duration": 3, "velocity": 57}, {"time": 2137, "pitch": 65, "duration": 3, "velocity": 60}, {"time": 2149, "pitch": 39, "duration": 8, "velocity": 82}, {"time": 2152, "pitch": 51, "duration": 4, "velocity": 52}, {"time": 2155, "pitch": 54, "duration": 4, "velocity": 71}, {"time": 2155, "pitch": 58, "duration": 4, "velocity": 93}, {"time": 2173, "pitch": 39, "duration": 6, "velocity": 86}, {"time": 2176, "pitch": 51, "duration": 3, "velocity": 69}, {"time": 2179, "pitch": 54, "duration": 4, "velocity": 73}, {"time": 2179, "pitch": 58, "duration": 5, "velocity": 79}, {"time": 2197, "pitch": 39, "duration": 6, "velocity": 77}, {"time": 2200, "pitch": 51, "duration": 3, "velocity": 54}, {"time": 2203, "pitch": 54, "duration": 4, "velocity": 67}, {"time": 2203, "pitch": 58, "duration": 4, "velocity": 86}, {"time": 2221, "pitch": 47, "duration": 19, "velocity": 73}, {"time": 2227, "pitch": 54, "duration": 12, "velocity": 58}, {"time": 2227, "pitch": 59, "duration": 4, "velocity": 50}, {"time": 2227, "pitch": 63, "duration": 4, "velocity": 77}, {"time": 2227, "pitch": 66, "duration": 4, "velocity": 65}, {"time": 2233, "pitch": 59, "duration": 3, "velocity": 83}, {"time": 2233, "pitch": 63, "duration": 6, "velocity": 122}, {"time": 2233, "pitch": 66, "duration": 6, "velocity": 100}, {"time": 2239, "pitch": 59, "duration": 2, "velocity": 112}, {"time": 2245, "pitch": 46, "duration": 16, "velocity": 112}, {"time": 2245, "pitch": 58, "duration": 10, "velocity": 93}, {"time": 2245, "pitch": 61, "duration": 10, "velocity": 112}, {"time": 2245, "pitch": 65, "duration": 10, "velocity": 85}, {"time": 2245, "pitch": 66, "duration": 1, "velocity": 69}, {"time": 2257, "pitch": 58, "duration": 3, "velocity": 68}, {"time": 2257, "pitch": 61, "duration": 7, "velocity": 69}, {"time": 2257, "pitch": 65, "duration": 7, "velocity": 72}, {"time": 2263, "pitch": 58, "duration": 3, "velocity": 61}, {"time": 2269, "pitch": 46, "duration": 12, "velocity": 72}, {"time": 2269, "pitch": 58, "duration": 10, "velocity": 70}, {"time": 2269, "pitch": 61, "duration": 8, "velocity": 73}, {"time": 2269, "pitch": 65, "duration": 7, "velocity": 66}, {"time": 2281, "pitch": 58, "duration": 6, "velocity": 112}, {"time": 2281, "pitch": 61, "duration": 6, "velocity": 127}, {"time": 2281, "pitch": 65, "duration": 5, "velocity": 89}, {"time": 2287, "pitch": 46, "duration": 6, "velocity": 112}, {"time": 2293, "pitch": 39, "duration": 18, "velocity": 127}, {"time": 2293, "pitch": 54, "duration": 5, "velocity": 127}, {"time": 2293, "pitch": 58, "duration": 5, "velocity": 112}, {"time": 2299, "pitch": 51, "duration": 9, "velocity": 92}, {"time": 2305, "pitch": 63, "duration": 6, "velocity": 117}, {"time": 2305, "pitch": 66, "duration": 6, "velocity": 127}, {"time": 2305, "pitch": 70, "duration": 6, "velocity": 122}, {"time": 2311, "pitch": 51, "duration": 1, "velocity": 96}, {"time": 2317, "pitch": 37, "duration": 11, "velocity": 99}, {"time": 2317, "pitch": 49, "duration": 11, "velocity": 95}, {"time": 2317, "pitch": 61, "duration": 9, "velocity": 112}, {"time": 2317, "pitch": 65, "duration": 8, "velocity": 122}, {"time": 2317, "pitch": 68, "duration": 8, "velocity": 122}, {"time": 2329, "pitch": 37, "duration": 5, "velocity": 95}, {"time": 2329, "pitch": 49, "duration": 4, "velocity": 88}, {"time": 2329, "pitch": 61, "duration": 4, "velocity": 112}, {"time": 2329, "pitch": 65, "duration": 4, "velocity": 127}, {"time": 2329, "pitch": 68, "duration": 4, "velocity": 122}, {"time": 2335, "pitch": 61, "duration": 1, "velocity": 122}, {"time": 2335, "pitch": 65, "duration": 1, "velocity": 112}, {"time": 2335, "pitch": 68, "duration": 1, "velocity": 99}, {"time": 2341, "pitch": 35, "duration": 4, "velocity": 88}, {"time": 2341, "pitch": 47, "duration": 4, "velocity": 99}, {"time": 2341, "pitch": 59, "duration": 4, "velocity": 112}, {"time": 2341, "pitch": 63, "duration": 4, "velocity": 127}, {"time": 2341, "pitch": 66, "duration": 4, "velocity": 127}, {"time": 2365, "pitch": 39, "duration": 16, "velocity": 107}, {"time": 2365, "pitch": 63, "duration": 6, "velocity": 100}, {"time": 2365, "pitch": 66, "duration": 5, "velocity": 122}, {"time": 2365, "pitch": 70, "duration": 5, "velocity": 96}, {"time": 2371, "pitch": 51, "duration": 10, "velocity": 96}, {"time": 2377, "pitch": 54, "duration": 4, "velocity": 127}, {"time": 2380, "pitch": 58, "duration": 2, "velocity": 21}, {"time": 2383, "pitch": 39, "duration": 4, "velocity": 82}, {"time": 2383, "pitch": 51, "duration": 4, "velocity": 99}, {"time": 2383, "pitch": 54, "duration": 4, "velocity": 127}, {"time": 2383, "pitch": 58, "duration": 4, "velocity": 122}, {"time": 2389, "pitch": 39, "duration": 16, "velocity": 95}, {"time": 2389, "pitch": 58, "duration": 1, "velocity": 82}, {"time": 2395, "pitch": 51, "duration": 7, "velocity": 102}, {"time": 2395, "pitch": 63, "duration": 3, "velocity": 96}, {"time": 2395, "pitch": 66, "duration": 1, "velocity": 127}, {"time": 2395, "pitch": 70, "duration": 3, "velocity": 102}, {"time": 2398, "pitch": 66, "duration": 1, "velocity": 26}, {"time": 2401, "pitch": 63, "duration": 3, "velocity": 122}, {"time": 2401, "pitch": 66, "duration": 1, "velocity": 127}, {"time": 2401, "pitch": 70, "duration": 3, "velocity": 127}, {"time": 2404, "pitch": 51, "duration": 3, "velocity": 95}, {"time": 2407, "pitch": 63, "duration": 1, "velocity": 112}, {"time": 2407, "pitch": 66, "duration": 1, "velocity": 122}, {"time": 2407, "pitch": 70, "duration": 1, "velocity": 90}, {"time": 2413, "pitch": 36, "duration": 13, "velocity": 82}, {"time": 2413, "pitch": 48, "duration": 13, "velocity": 100}, {"time": 2413, "pitch": 60, "duration": 9, "velocity": 97}, {"time": 2413, "pitch": 63, "duration": 9, "velocity": 127}, {"time": 2413, "pitch": 66, "duration": 9, "velocity": 112}, {"time": 2425, "pitch": 60, "duration": 5, "velocity": 107}, {"time": 2425, "pitch": 63, "duration": 6, "velocity": 127}, {"time": 2425, "pitch": 66, "duration": 5, "velocity": 127}, {"time": 2437, "pitch": 35, "duration": 15, "velocity": 82}, {"time": 2437, "pitch": 47, "duration": 16, "velocity": 99}, {"time": 2437, "pitch": 59, "duration": 8, "velocity": 112}, {"time": 2437, "pitch": 63, "duration": 9, "velocity": 127}, {"time": 2437, "pitch": 66, "duration": 9, "velocity": 117}, {"time": 2449, "pitch": 59, "duration": 3, "velocity": 102}, {"time": 2449, "pitch": 63, "duration": 3, "velocity": 127}, {"time": 2449, "pitch": 66, "duration": 3, "velocity": 127}, {"time": 2461, "pitch": 34, "duration": 15, "velocity": 97}, {"time": 2461, "pitch": 46, "duration": 17, "velocity": 112}, {"time": 2461, "pitch": 58, "duration": 10, "velocity": 100}, {"time": 2461, "pitch": 61, "duration": 9, "velocity": 127}, {"time": 2461, "pitch": 65, "duration": 7, "velocity": 92}, {"time": 2473, "pitch": 58, "duration": 3, "velocity": 85}, {"time": 2473, "pitch": 61, "duration": 2, "velocity": 92}, {"time": 2473, "pitch": 65, "duration": 3, "velocity": 83}, {"time": 2485, "pitch": 39, "duration": 19, "velocity": 112}, {"time": 2485, "pitch": 54, "duration": 2, "velocity": 127}, {"time": 2485, "pitch": 58, "duration": 2, "velocity": 117}, {"time": 2491, "pitch": 51, "duration": 10, "velocity": 44}, {"time": 2497, "pitch": 58, "duration": 3, "velocity": 107}, {"time": 2497, "pitch": 63, "duration": 4, "velocity": 127}, {"time": 2497, "pitch": 66, "duration": 4, "velocity": 127}, {"time": 2503, "pitch": 51, "duration": 1, "velocity": 102}, {"time": 2503, "pitch": 58, "duration": 1, "velocity": 97}, {"time": 2503, "pitch": 63, "duration": 1, "velocity": 127}, {"time": 2503, "pitch": 66, "duration": 1, "velocity": 117}, {"time": 2509, "pitch": 36, "duration": 17, "velocity": 64}, {"time": 2509, "pitch": 48, "duration": 15, "velocity": 107}, {"time": 2509, "pitch": 60, "duration": 8, "velocity": 100}, {"time": 2509, "pitch": 63, "duration": 7, "velocity": 122}, {"time": 2521, "pitch": 60, "duration": 3, "velocity": 99}, {"time": 2521, "pitch": 63, "duration": 6, "velocity": 127}, {"time": 2521, "pitch": 66, "duration": 6, "velocity": 127}, {"time": 2527, "pitch": 60, "duration": 1, "velocity": 96}, {"time": 2533, "pitch": 35, "duration": 15, "velocity": 75}, {"time": 2533, "pitch": 47, "duration": 15, "velocity": 96}, {"time": 2533, "pitch": 59, "duration": 8, "velocity": 96}, {"time": 2533, "pitch": 63, "duration": 9, "velocity": 127}, {"time": 2533, "pitch": 66, "duration": 9, "velocity": 127}, {"time": 2545, "pitch": 63, "duration": 3, "velocity": 127}, {"time": 2545, "pitch": 66, "duration": 3, "velocity": 127}, {"time": 2557, "pitch": 34, "duration": 19, "velocity": 79}, {"time": 2557, "pitch": 46, "duration": 22, "velocity": 100}, {"time": 2557, "pitch": 58, "duration": 8, "velocity": 107}, {"time": 2557, "pitch": 61, "duration": 7, "velocity": 127}, {"time": 2557, "pitch": 65, "duration": 8, "velocity": 97}, {"time": 2569, "pitch": 58, "duration": 1, "velocity": 47}, {"time": 2569, "pitch": 61, "duration": 19, "velocity": 67}, {"time": 2569, "pitch": 65, "duration": 18, "velocity": 58}, {"time": 2581, "pitch": 34, "duration": 14, "velocity": 66}, {"time": 2581, "pitch": 46, "duration": 15, "velocity": 71}, {"time": 2593, "pitch": 58, "duration": 3, "velocity": 54}, {"time": 2593, "pitch": 61, "duration": 3, "velocity": 57}, {"time": 2593, "pitch": 65, "duration": 3, "velocity": 60}, {"time": 2605, "pitch": 39, "duration": 8, "velocity": 82}, {"time": 2608, "pitch": 51, "duration": 4, "velocity": 52}, {"time": 2611, "pitch": 54, "duration": 4, "velocity": 71}, {"time": 2611, "pitch": 58, "duration": 4, "velocity": 93}, {"time": 2629, "pitch": 39, "duration": 6, "velocity": 86}, {"time": 2632, "pitch": 51, "duration": 3, "velocity": 69}, {"time": 2635, "pitch": 54, "duration": 4, "velocity": 73}, {"time": 2635, "pitch": 58, "duration": 5, "velocity": 79}, {"time": 2653, "pitch": 39, "duration": 6, "velocity": 77}, {"time": 2656, "pitch": 51, "duration": 3, "velocity": 54}, {"time": 2659, "pitch": 54, "duration": 4, "velocity": 67}, {"time": 2659, "pitch": 58, "duration": 4, "velocity": 86}, {"time": 2677, "pitch": 47, "duration": 19, "velocity": 73}, {"time": 2683, "pitch": 54, "duration": 12, "velocity": 58}, {"time": 2683, "pitch": 59, "duration": 4, "velocity": 50}, {"time": 2683, "pitch": 63, "duration": 4, "velocity": 77}, {"time": 2683, "pitch": 66, "duration": 4, "velocity": 65}, {"time": 2689, "pitch": 59, "duration": 3, "velocity": 83}, {"time": 2689, "pitch": 63, "duration": 6, "velocity": 122}, {"time": 2689, "pitch": 66, "duration": 6, "velocity": 100}, {"time": 2695, "pitch": 59, "duration": 2, "velocity": 112}, {"time": 2701, "pitch": 46, "duration": 16, "velocity": 112}, {"time": 2701, "pitch": 58, "duration": 10, "velocity": 93}, {"time": 2701, "pitch": 61, "duration": 10, "velocity": 112}, {"time": 2701, "pitch": 65, "duration": 10, "velocity": 85}, {"time": 2701, "pitch": 66, "duration": 1, "velocity": 69}, {"time": 2713, "pitch": 58, "duration": 3, "velocity": 68}, {"time": 2713, "pitch": 61, "duration": 7, "velocity": 69}, {"time": 2713, "pitch": 65, "duration": 7, "velocity": 72}, {"time": 2719, "pitch": 58, "duration": 3, "velocity": 61}, {"time": 2725, "pitch": 46, "duration": 12, "velocity": 72}, {"time": 2725, "pitch": 58, "duration": 10, "velocity": 70}, {"time": 2725, "pitch": 61, "duration": 8, "velocity": 73}, {"time": 2725, "pitch": 65, "duration": 7, "velocity": 66}, {"time": 2737, "pitch": 58, "duration": 6, "velocity": 112}, {"time": 2737, "pitch": 61, "duration": 6, "velocity": 127}, {"time": 2737, "pitch": 65, "duration": 5, "velocity": 89}, {"time": 2743, "pitch": 46, "duration": 6, "velocity": 112}, {"time": 2749, "pitch": 39, "duration": 18, "velocity": 127}, {"time": 2749, "pitch": 54, "duration": 5, "velocity": 127}, {"time": 2749, "pitch": 58, "duration": 5, "velocity": 112}, {"time": 2755, "pitch": 51, "duration": 9, "velocity": 92}, {"time": 2761, "pitch": 63, "duration": 6, "velocity": 117}, {"time": 2761, "pitch": 66, "duration": 6, "velocity": 127}, {"time": 2761, "pitch": 70, "duration": 6, "velocity": 122}, {"time": 2767, "pitch": 51, "duration": 1, "velocity": 96}, {"time": 2773, "pitch": 37, "duration": 5, "velocity": 78}, {"time": 2773, "pitch": 49, "duration": 4, "velocity": 100}, {"time": 2773, "pitch": 61, "duration": 4, "velocity": 97}, {"time": 2773, "pitch": 65, "duration": 4, "velocity": 100}, {"time": 2773, "pitch": 68, "duration": 4, "velocity": 99}, {"time": 2779, "pitch": 37, "duration": 4, "velocity": 69}, {"time": 2779, "pitch": 49, "duration": 3, "velocity": 88}, {"time": 2779, "pitch": 61, "duration": 3, "velocity": 95}, {"time": 2779, "pitch": 65, "duration": 2, "velocity": 100}, {"time": 2779, "pitch": 68, "duration": 3, "velocity": 97}, {"time": 2785, "pitch": 37, "duration": 4, "velocity": 79}, {"time": 2785, "pitch": 49, "duration": 4, "velocity": 76}, {"time": 2785, "pitch": 61, "duration": 4, "velocity": 99}, {"time": 2785, "pitch": 65, "duration": 4, "velocity": 100}, {"time": 2785, "pitch": 68, "duration": 3, "velocity": 102}, {"time": 2791, "pitch": 37, "duration": 4, "velocity": 85}, {"time": 2791, "pitch": 49, "duration": 3, "velocity": 90}, {"time": 2791, "pitch": 61, "duration": 3, "velocity": 97}, {"time": 2791, "pitch": 65, "duration": 1, "velocity": 96}, {"time": 2791, "pitch": 68, "duration": 1, "velocity": 100}, {"time": 2794, "pitch": 65, "duration": 1, "velocity": 28}, {"time": 2797, "pitch": 37, "duration": 4, "velocity": 100}, {"time": 2797, "pitch": 49, "duration": 3, "velocity": 95}, {"time": 2797, "pitch": 61, "duration": 3, "velocity": 102}, {"time": 2797, "pitch": 65, "duration": 1, "velocity": 122}, {"time": 2797, "pitch": 68, "duration": 3, "velocity": 112}, {"time": 2803, "pitch": 37, "duration": 4, "velocity": 100}, {"time": 2803, "pitch": 49, "duration": 4, "velocity": 78}, {"time": 2803, "pitch": 61, "duration": 4, "velocity": 99}, {"time": 2803, "pitch": 65, "duration": 1, "velocity": 107}, {"time": 2803, "pitch": 68, "duration": 3, "velocity": 112}, {"time": 2809, "pitch": 37, "duration": 4, "velocity": 100}, {"time": 2809, "pitch": 49, "duration": 4, "velocity": 76}, {"time": 2809, "pitch": 61, "duration": 3, "velocity": 100}, {"time": 2809, "pitch": 65, "duration": 1, "velocity": 97}, {"time": 2809, "pitch": 68, "duration": 3, "velocity": 100}, {"time": 2815, "pitch": 37, "duration": 1, "velocity": 83}, {"time": 2815, "pitch": 49, "duration": 1, "velocity": 102}, {"time": 2815, "pitch": 61, "duration": 1, "velocity": 107}, {"time": 2815, "pitch": 65, "duration": 1, "velocity": 72}, {"time": 2815, "pitch": 68, "duration": 1, "velocity": 88}, {"time": 2821, "pitch": 35, "duration": 42, "velocity": 81}, {"time": 2821, "pitch": 47, "duration": 44, "velocity": 99}, {"time": 2821, "pitch": 59, "duration": 42, "velocity": 107}, {"time": 2821, "pitch": 63, "duration": 43, "velocity": 127}, {"time": 2821, "pitch": 66, "duration": 43, "velocity": 107}, {"time": 2869, "pitch": 39, "duration": 20, "velocity": 97}, {"time": 2869, "pitch": 51, "duration": 22, "velocity": 100}, {"time": 2869, "pitch": 58, "duration": 10, "velocity": 122}, {"time": 2869, "pitch": 63, "duration": 10, "velocity": 122}, {"time": 2869, "pitch": 66, "duration": 9, "velocity": 112}, {"time": 2881, "pitch": 58, "duration": 9, "velocity": 95}, {"time": 2881, "pitch": 63, "duration": 9, "velocity": 112}, {"time": 2881, "pitch": 66, "duration": 9, "velocity": 99}, {"time": 2893, "pitch": 39, "duration": 4, "velocity": 93}, {"time": 2893, "pitch": 51, "duration": 4, "velocity": 90}, {"time": 2893, "pitch": 58, "duration": 4, "velocity": 102}, {"time": 2893, "pitch": 63, "duration": 4, "velocity": 127}, {"time": 2893, "pitch": 66, "duration": 5, "velocity": 112}, {"time": 2905, "pitch": 37, "duration": 7, "velocity": 96}, {"time": 2905, "pitch": 49, "duration": 5, "velocity": 95}, {"time": 2905, "pitch": 61, "duration": 7, "velocity": 122}, {"time": 2905, "pitch": 65, "duration": 7, "velocity": 127}, {"time": 2905, "pitch": 68, "duration": 7, "velocity": 112}, {"time": 2917, "pitch": 35, "duration": 48, "velocity": 76}, {"time": 2917, "pitch": 42, "duration": 48, "velocity": 117}, {"time": 2917, "pitch": 47, "duration": 47, "velocity": 95}, {"time": 2917, "pitch": 59, "duration": 48, "velocity": 97}, {"time": 2917, "pitch": 63, "duration": 48, "velocity": 127}, {"time": 2917, "pitch": 66, "duration": 49, "velocity": 102}, {"time": 2963, "pitch": 34, "duration": 41, "velocity": 40}, {"time": 2963, "pitch": 46, "duration": 42, "velocity": 41}, {"time": 2963, "pitch": 58, "duration": 42, "velocity": 40}, {"time": 2964, "pitch": 61, "duration": 41, "velocity": 48}, {"time": 2965, "pitch": 65, "duration": 39, "velocity": 68}, {"time": 3025, "pitch": 58, "duration": 14, "velocity": 35}, {"time": 3026, "pitch": 61, "duration": 13, "velocity": 36}, {"time": 3028, "pitch": 65, "duration": 10, "velocity": 25}, {"time": 3066, "pitch": 39, "duration": 55, "velocity": 50}, {"time": 3067, "pitch": 46, "duration": 53, "velocity": 54}, {"time": 3067, "pitch": 51, "duration": 54, "velocity": 64}, {"time": 3068, "pitch": 58, "duration": 9, "velocity": 37}, {"time": 3068, "pitch": 63, "duration": 9, "velocity": 48}, {"time": 3070, "pitch": 66, "duration": 7, "velocity": 96}, {"time": 3076, "pitch": 70, "duration": 2, "velocity": 36}, {"time": 3082, "pitch": 75, "duration": 39, "velocity": 61}, {"time": 3087, "pitch": 78, "duration": 34, "velocity": 61}, {"time": 3093, "pitch": 82, "duration": 28, "velocity": 48}, {"time": 3098, "pitch": 87, "duration": 23, "velocity": 66}], "annotations": [{"time": 49, "annotation": {"number": 64, "value": 127}, "group": "control_change"}, {"time": 61, "annotation": {"number": 64, "value": 0}, "group": "control_change"}, {"time": 67, "annotation": {"number": 64, "value": 127}, "group": "control_change"}, {"time": 97, "annotation": {"number": 64, "value": 127}, "group": "control_change"}, {"time": 107, "annotation": {"number": 64, "value": 0}, "group": "control_change"}, {"time": 111, "annotation": {"number": 64, "value": 127}, "group": "control_change"}, {"time": 131, "annotation": {"number": 64, "value": 0}, "group": "control_change"}, {"time": 134, "annotation": {"number": 64, "value": 127}, "group": "control_change"}, {"time": 156, "annotation": {"number": 64, "value": 0}, "group": "control_change"}, {"time": 157, "annotation": {"number": 64, "value": 127}, "group": "control_change"}, {"time": 205, "annotation": {"number": 64, "value": 127}, "group": "control_change"}, {"time": 252, "annotation": {"number": 64, "value": 0}, "group": "control_change"}, {"time": 253, "annotation": {"number": 64, "value": 127}, "group": "control_change"}, {"time": 276, "annotation": {"number": 64, "value": 0}, "group": "control_change"}, {"time": 278, "annotation": {"number": 64, "value": 127}, "group": "control_change"}, {"time": 298, "annotation": {"number": 64, "value": 0}, "group": "control_change"}, {"time": 301, "annotation": {"number": 64, "value": 127}, "group": "control_change"}, {"time": 322, "annotation": {"number": 64, "value": 0}, "group": "control_change"}, {"time": 325, "annotation": {"number": 64, "value": 127}, "group": "control_change"}, {"time": 347, "annotation": {"number": 64, "value": 0}, "group": "control_change"}, {"time": 349, "annotation": {"number": 64, "value": 127}, "group": "control_change"}, {"time": 373, "annotation": {"number": 64, "value": 0}, "group": "control_change"}, {"time": 375, "annotation": {"number": 64, "value": 127}, "group": "control_change"}, {"time": 395, "annotation": {"number": 64, "value": 0}, "group": "control_change"}, {"time": 399, "annotation": {"number": 64, "value": 127}, "group": "control_change"}, {"time": 417, "annotation": {"number": 64, "value": 0}, "group": "control_change"}, {"time": 420, "annotation": {"number": 64, "value": 127}, "group": "control_change"}, {"time": 444, "annotation": {"number": 64, "value": 0}, "group": "control_change"}, {"time": 446, "annotation": {"number": 64, "value": 127}, "group": "control_change"}, {"time": 490, "annotation": {"number": 64, "value": 0}, "group": "control_change"}, {"time": 492, "annotation": {"number": 64, "value": 127}, "group": "control_change"}, {"time": 514, "annotation": {"number": 64, "value": 0}, "group": "control_change"}, {"time": 517, "annotation": {"number": 64, "value": 127}, "group": "control_change"}, {"time": 539, "annotation": {"number": 64, "value": 0}, "group": "control_change"}, {"time": 541, "annotation": {"number": 64, "value": 127}, "group": "control_change"}, {"time": 563, "annotation": {"number": 64, "value": 0}, "group": "control_change"}, {"time": 565, "annotation": {"number": 64, "value": 127}, "group": "control_change"}, {"time": 587, "annotation": {"number": 64, "value": 0}, "group": "control_change"}, {"time": 588, "annotation": {"number": 64, "value": 127}, "group": "control_change"}, {"time": 610, "annotation": {"number": 64, "value": 0}, "group": "control_change"}, {"time": 612, "annotation": {"number": 64, "value": 127}, "group": "control_change"}, {"time": 635, "annotation": {"number": 64, "value": 0}, "group": "control_change"}, {"time": 638, "annotation": {"number": 64, "value": 127}, "group": "control_change"}, {"time": 658, "annotation": {"number": 64, "value": 0}, "group": "control_change"}, {"time": 661, "annotation": {"number": 64, "value": 127}, "group": "control_change"}, {"time": 706, "annotation": {"number": 64, "value": 0}, "group": "control_change"}, {"time": 709, "annotation": {"number": 64, "value": 127}, "group": "control_change"}, {"time": 731, "annotation": {"number": 64, "value": 0}, "group": "control_change"}, {"time": 733, "annotation": {"number": 64, "value": 127}, "group": "control_change"}, {"time": 755, "annotation": {"number": 64, "value": 0}, "group": "control_change"}, {"time": 757, "annotation": {"number": 64, "value": 127}, "group": "control_change"}, {"time": 779, "annotation": {"number": 64, "value": 0}, "group": "control_change"}, {"time": 780, "annotation": {"number": 64, "value": 127}, "group": "control_change"}, {"time": 802, "annotation": {"number": 64, "value": 0}, "group": "control_change"}, {"time": 804, "annotation": {"number": 64, "value": 127}, "group": "control_change"}, {"time": 827, "annotation": {"number": 64, "value": 0}, "group": "control_change"}, {"time": 830, "annotation": {"number": 64, "value": 127}, "group": "control_change"}, {"time": 850, "annotation": {"number": 64, "value": 0}, "group": "control_change"}, {"time": 853, "annotation": {"number": 64, "value": 127}, "group": "control_change"}, {"time": 877, "annotation": {"number": 64, "value": 0}, "group": "control_change"}, {"time": 877, "annotation": {"number": 64, "value": 127}, "group": "control_change"}, {"time": 899, "annotation": {"number": 64, "value": 0}, "group": "control_change"}, {"time": 901, "annotation": {"number": 64, "value": 127}, "group": "control_change"}, {"time": 923, "annotation": {"number": 64, "value": 0}, "group": "control_change"}, {"time": 925, "annotation": {"number": 64, "value": 127}, "group": "control_change"}, {"time": 947, "annotation": {"number": 64, "value": 0}, "group": "control_change"}, {"time": 948, "annotation": {"number": 64, "value": 127}, "group": "control_change"}, {"time": 972, "annotation": {"number": 64, "value": 0}, "group": "control_change"}, {"time": 977, "annotation": {"number": 64, "value": 127}, "group": "control_change"}, {"time": 994, "annotation": {"number": 64, "value": 0}, "group": "control_change"}, {"time": 997, "annotation": {"number": 64, "value": 127}, "group": "control_change"}, {"time": 1019, "annotation": {"number": 64, "value": 0}, "group": "control_change"}, {"time": 1021, "annotation": {"number": 64, "value": 127}, "group": "control_change"}, {"time": 1043, "annotation": {"number": 64, "value": 0}, "group": "control_change"}, {"time": 1044, "annotation": {"number": 64, "value": 127}, "group": "control_change"}, {"time": 1066, "annotation": {"number": 64, "value": 0}, "group": "control_change"}, {"time": 1068, "annotation": {"number": 64, "value": 127}, "group": "control_change"}, {"time": 1072, "annotation": {"number": 64, "value": 0}, "group": "control_change"}, {"time": 1092, "annotation": {"number": 64, "value": 127}, "group": "control_change"}, {"time": 1096, "annotation": {"number": 64, "value": 0}, "group": "control_change"}, {"time": 1116, "annotation": {"number": 64, "value": 127}, "group": "control_change"}, {"time": 1118, "annotation": {"number": 64, "value": 0}, "group": "control_change"}, {"time": 1140, "annotation": {"number": 64, "value": 127}, "group": "control_change"}, {"time": 1164, "annotation": {"number": 64, "value": 0}, "group": "control_change"}, {"time": 1166, "annotation": {"number": 64, "value": 127}, "group": "control_change"}, {"time": 1186, "annotation": {"number": 64, "value": 0}, "group": "control_change"}, {"time": 1189, "annotation": {"number": 64, "value": 127}, "group": "control_change"}, {"time": 1211, "annotation": {"number": 64, "value": 0}, "group": "control_change"}, {"time": 1213, "annotation": {"number": 64, "value": 127}, "group": "control_change"}, {"time": 1236, "annotation": {"number": 64, "value": 0}, "group": "control_change"}, {"time": 1238, "annotation": {"number": 64, "value": 127}, "group": "control_change"}, {"time": 1259, "annotation": {"number": 64, "value": 0}, "group": "control_change"}, {"time": 1261, "annotation": {"number": 64, "value": 127}, "group": "control_change"}, {"time": 1263, "annotation": {"number": 64, "value": 0}, "group": "control_change"}, {"time": 1284, "annotation": {"number": 64, "value": 127}, "group": "control_change"}, {"time": 1330, "annotation": {"number": 64, "value": 0}, "group": "control_change"}, {"time": 1333, "annotation": {"number": 64, "value": 127}, "group": "control_change"}, {"time": 1355, "annotation": {"number": 64, "value": 0}, "group": "control_change"}, {"time": 1357, "annotation": {"number": 64, "value": 127}, "group": "control_change"}, {"time": 1377, "annotation": {"number": 64, "value": 0}, "group": "control_change"}, {"time": 1381, "annotation": {"number": 64, "value": 127}, "group": "control_change"}, {"time": 1403, "annotation": {"number": 64, "value": 0}, "group": "control_change"}, {"time": 1404, "annotation": {"number": 64, "value": 127}, "group": "control_change"}, {"time": 1415, "annotation": {"number": 64, "value": 0}, "group": "control_change"}, {"time": 1417, "annotation": {"number": 64, "value": 127}, "group": "control_change"}, {"time": 1428, "annotation": {"number": 64, "value": 0}, "group": "control_change"}, {"time": 1430, "annotation": {"number": 64, "value": 127}, "group": "control_change"}, {"time": 1451, "annotation": {"number": 64, "value": 0}, "group": "control_change"}, {"time": 1453, "annotation": {"number": 64, "value": 127}, "group": "control_change"}, {"time": 1476, "annotation": {"number": 64, "value": 0}, "group": "control_change"}, {"time": 1477, "annotation": {"number": 64, "value": 127}, "group": "control_change"}, {"time": 1500, "annotation": {"number": 64, "value": 0}, "group": "control_change"}, {"time": 1502, "annotation": {"number": 64, "value": 127}, "group": "control_change"}, {"time": 1523, "annotation": {"number": 64, "value": 0}, "group": "control_change"}, {"time": 1525, "annotation": {"number": 64, "value": 127}, "group": "control_change"}, {"time": 1572, "annotation": {"number": 64, "value": 0}, "group": "control_change"}, {"time": 1594, "annotation": {"number": 64, "value": 0}, "group": "control_change"}, {"time": 1597, "annotation": {"number": 64, "value": 127}, "group": "control_change"}, {"time": 1619, "annotation": {"number": 64, "value": 0}, "group": "control_change"}, {"time": 1621, "annotation": {"number": 64, "value": 127}, "group": "control_change"}, {"time": 1643, "annotation": {"number": 64, "value": 0}, "group": "control_change"}, {"time": 1645, "annotation": {"number": 64, "value": 127}, "group": "control_change"}, {"time": 1667, "annotation": {"number": 64, "value": 0}, "group": "control_change"}, {"time": 1668, "annotation": {"number": 64, "value": 127}, "group": "control_change"}, {"time": 1690, "annotation": {"number": 64, "value": 0}, "group": "control_change"}, {"time": 1692, "annotation": {"number": 64, "value": 127}, "group": "control_change"}, {"time": 1715, "annotation": {"number": 64, "value": 0}, "group": "control_change"}, {"time": 1718, "annotation": {"number": 64, "value": 127}, "group": "control_change"}, {"time": 1738, "annotation": {"number": 64, "value": 0}, "group": "control_change"}, {"time": 1741, "annotation": {"number": 64, "value": 127}, "group": "control_change"}, {"time": 1786, "annotation": {"number": 64, "value": 0}, "group": "control_change"}, {"time": 1789, "annotation": {"number": 64, "value": 127}, "group": "control_change"}, {"time": 1811, "annotation": {"number": 64, "value": 0}, "group": "control_change"}, {"time": 1813, "annotation": {"number": 64, "value": 127}, "group": "control_change"}, {"time": 1835, "annotation": {"number": 64, "value": 0}, "group": "control_change"}, {"time": 1837, "annotation": {"number": 64, "value": 127}, "group": "control_change"}, {"time": 1859, "annotation": {"number": 64, "value": 0}, "group": "control_change"}, {"time": 1860, "annotation": {"number": 64, "value": 127}, "group": "control_change"}, {"time": 1882, "annotation": {"number": 64, "value": 0}, "group": "control_change"}, {"time": 1884, "annotation": {"number": 64, "value": 127}, "group": "control_change"}, {"time": 1907, "annotation": {"number": 64, "value": 0}, "group": "control_change"}, {"time": 1910, "annotation": {"number": 64, "value": 127}, "group": "control_change"}, {"time": 1930, "annotation": {"number": 64, "value": 0}, "group": "control_change"}, {"time": 1933, "annotation": {"number": 64, "value": 127}, "group": "control_change"}, {"time": 1957, "annotation": {"number": 64, "value": 0}, "group": "control_change"}, {"time": 1957, "annotation": {"number": 64, "value": 127}, "group": "control_change"}, {"time": 1979, "annotation": {"number": 64, "value": 0}, "group": "control_change"}, {"time": 1981, "annotation": {"number": 64, "value": 127}, "group": "control_change"}, {"time": 2003, "annotation": {"number": 64, "value": 0}, "group": "control_change"}, {"time": 2005, "annotation": {"number": 64, "value": 127}, "group": "control_change"}, {"time": 2027, "annotation": {"number": 64, "value": 0}, "group": "control_change"}, {"time": 2028, "annotation": {"number": 64, "value": 127}, "group": "control_change"}, {"time": 2052, "annotation": {"number": 64, "value": 0}, "group": "control_change"}, {"time": 2057, "annotation": {"number": 64, "value": 127}, "group": "control_change"}, {"time": 2074, "annotation": {"number": 64, "value": 0}, "group": "control_change"}, {"time": 2077, "annotation": {"number": 64, "value": 127}, "group": "control_change"}, {"time": 2099, "annotation": {"number": 64, "value": 0}, "group": "control_change"}, {"time": 2101, "annotation": {"number": 64, "value": 127}, "group": "control_change"}, {"time": 2123, "annotation": {"number": 64, "value": 0}, "group": "control_change"}, {"time": 2124, "annotation": {"number": 64, "value": 127}, "group": "control_change"}, {"time": 2146, "annotation": {"number": 64, "value": 0}, "group": "control_change"}, {"time": 2148, "annotation": {"number": 64, "value": 127}, "group": "control_change"}, {"time": 2152, "annotation": {"number": 64, "value": 0}, "group": "control_change"}, {"time": 2172, "annotation": {"number": 64, "value": 127}, "group": "control_change"}, {"time": 2176, "annotation": {"number": 64, "value": 0}, "group": "control_change"}, {"time": 2196, "annotation": {"number": 64, "value": 127}, "group": "control_change"}, {"time": 2198, "annotation": {"number": 64, "value": 0}, "group": "control_change"}, {"time": 2220, "annotation": {"number": 64, "value": 127}, "group": "control_change"}, {"time": 2244, "annotation": {"number": 64, "value": 0}, "group": "control_change"}, {"time": 2246, "annotation": {"number": 64, "value": 127}, "group": "control_change"}, {"time": 2266, "annotation": {"number": 64, "value": 0}, "group": "control_change"}, {"time": 2269, "annotation": {"number": 64, "value": 127}, "group": "control_change"}, {"time": 2291, "annotation": {"number": 64, "value": 0}, "group": "control_change"}, {"time": 2293, "annotation": {"number": 64, "value": 127}, "group": "control_change"}, {"time": 2316, "annotation": {"number": 64, "value": 0}, "group": "control_change"}, {"time": 2318, "annotation": {"number": 64, "value": 127}, "group": "control_change"}, {"time": 2339, "annotation": {"number": 64, "value": 0}, "group": "control_change"}, {"time": 2341, "annotation": {"number": 64, "value": 127}, "group": "control_change"}, {"time": 2343, "annotation": {"number": 64, "value": 0}, "group": "control_change"}, {"time": 2364, "annotation": {"number": 64, "value": 127}, "group": "control_change"}, {"time": 2410, "annotation": {"number": 64, "value": 0}, "group": "control_change"}, {"time": 2413, "annotation": {"number": 64, "value": 0}, "group": "control_change"}, {"time": 2413, "annotation": {"number": 64, "value": 127}, "group": "control_change"}, {"time": 2435, "annotation": {"number": 64, "value": 0}, "group": "control_change"}, {"time": 2437, "annotation": {"number": 64, "value": 127}, "group": "control_change"}, {"time": 2459, "annotation": {"number": 64, "value": 0}, "group": "control_change"}, {"time": 2461, "annotation": {"number": 64, "value": 127}, "group": "control_change"}, {"time": 2483, "annotation": {"number": 64, "value": 0}, "group": "control_change"}, {"time": 2484, "annotation": {"number": 64, "value": 127}, "group": "control_change"}, {"time": 2508, "annotation": {"number": 64, "value": 0}, "group": "control_change"}, {"time": 2513, "annotation": {"number": 64, "value": 127}, "group": "control_change"}, {"time": 2530, "annotation": {"number": 64, "value": 0}, "group": "control_change"}, {"time": 2533, "annotation": {"number": 64, "value": 127}, "group": "control_change"}, {"time": 2555, "annotation": {"number": 64, "value": 0}, "group": "control_change"}, {"time": 2557, "annotation": {"number": 64, "value": 127}, "group": "control_change"}, {"time": 2579, "annotation": {"number": 64, "value": 0}, "group": "control_change"}, {"time": 2580, "annotation": {"number": 64, "value": 127}, "group": "control_change"}, {"time": 2602, "annotation": {"number": 64, "value": 0}, "group": "control_change"}, {"time": 2604, "annotation": {"number": 64, "value": 127}, "group": "control_change"}, {"time": 2608, "annotation": {"number": 64, "value": 0}, "group": "control_change"}, {"time": 2628, "annotation": {"number": 64, "value": 127}, "group": "control_change"}, {"time": 2632, "annotation": {"number": 64, "value": 0}, "group": "control_change"}, {"time": 2652, "annotation": {"number": 64, "value": 127}, "group": "control_change"}, {"time": 2654, "annotation": {"number": 64, "value": 0}, "group": "control_change"}, {"time": 2676, "annotation": {"number": 64, "value": 127}, "group": "control_change"}, {"time": 2700, "annotation": {"number": 64, "value": 0}, "group": "control_change"}, {"time": 2702, "annotation": {"number": 64, "value": 127}, "group": "control_change"}, {"time": 2722, "annotation": {"number": 64, "value": 0}, "group": "control_change"}, {"time": 2725, "annotation": {"number": 64, "value": 127}, "group": "control_change"}, {"time": 2747, "annotation": {"number": 64, "value": 0}, "group": "control_change"}, {"time": 2749, "annotation": {"number": 64, "value": 127}, "group": "control_change"}, {"time": 2772, "annotation": {"number": 64, "value": 0}, "group": "control_change"}, {"time": 2772, "annotation": {"number": 64, "value": 127}, "group": "control_change"}, {"time": 2782, "annotation": {"number": 64, "value": 0}, "group": "control_change"}, {"time": 2784, "annotation": {"number": 64, "value": 127}, "group": "control_change"}, {"time": 2820, "annotation": {"number": 64, "value": 0}, "group": "control_change"}, {"time": 2841, "annotation": {"number": 64, "value": 127}, "group": "control_change"}, {"time": 2843, "annotation": {"number": 64, "value": 0}, "group": "control_change"}, {"time": 2868, "annotation": {"number": 64, "value": 127}, "group": "control_change"}, {"time": 2903, "annotation": {"number": 64, "value": 0}, "group": "control_change"}, {"time": 2905, "annotation": {"number": 64, "value": 127}, "group": "control_change"}, {"time": 2916, "annotation": {"number": 64, "value": 0}, "group": "control_change"}, {"time": 2966, "annotation": {"number": 64, "value": 127}, "group": "control_change"}, {"time": 3069, "annotation": {"number": 64, "value": 0}, "group": "control_change"}, {"time": 3071, "annotation": {"number": 64, "value": 127}, "group": "control_change"}, {"time": 3138, "annotation": {"number": 64, "value": 0}, "group": "control_change"}, {"time": 3139, "annotation": {"number": 64, "value": 127}, "group": "control_change"}, {"time": 3140, "annotation": {"number": 64, "value": 0}, "group": "control_change"}, {"time": 3141, "annotation": {"number": 64, "value": 127}, "group": "control_change"}, {"time": 3143, "annotation": {"number": 64, "value": 0}, "group": "control_change"}]}]}