{"metadata": {"schema_version": "0.2", "title": "None", "source_filename": "166.mid", "source_format": "midi"}, "resolution": 12, "tempos": [{"time": 0, "qpm": 90.00009000009}], "time_signatures": [{"time": 0, "numerator": 1, "denominator": 4}], "tracks": [{"program": 0, "is_drum": false, "name": "MELODY", "notes": [{"time": 429, "pitch": 68, "duration": 2, "velocity": 112}, {"time": 435, "pitch": 76, "duration": 5, "velocity": 117}, {"time": 441, "pitch": 75, "duration": 5, "velocity": 127}, {"time": 447, "pitch": 76, "duration": 3, "velocity": 107}, {"time": 453, "pitch": 76, "duration": 3, "velocity": 127}, {"time": 465, "pitch": 68, "duration": 4, "velocity": 107}, {"time": 471, "pitch": 73, "duration": 5, "velocity": 127}, {"time": 477, "pitch": 68, "duration": 4, "velocity": 89}, {"time": 483, "pitch": 73, "duration": 4, "velocity": 127}, {"time": 489, "pitch": 71, "duration": 16, "velocity": 122}, {"time": 507, "pitch": 68, "duration": 3, "velocity": 112}, {"time": 513, "pitch": 71, "duration": 7, "velocity": 112}, {"time": 519, "pitch": 73, "duration": 4, "velocity": 117}, {"time": 525, "pitch": 73, "duration": 6, "velocity": 127}, {"time": 543, "pitch": 64, "duration": 4, "velocity": 107}, {"time": 549, "pitch": 64, "duration": 5, "velocity": 95}, {"time": 555, "pitch": 71, "duration": 6, "velocity": 97}, {"time": 561, "pitch": 68, "duration": 39, "velocity": 99}, {"time": 621, "pitch": 76, "duration": 2, "velocity": 127}, {"time": 627, "pitch": 76, "duration": 4, "velocity": 127}, {"time": 633, "pitch": 76, "duration": 3, "velocity": 100}, {"time": 639, "pitch": 68, "duration": 5, "velocity": 112}, {"time": 645, "pitch": 76, "duration": 3, "velocity": 122}, {"time": 657, "pitch": 71, "duration": 1, "velocity": 117}, {"time": 663, "pitch": 73, "duration": 5, "velocity": 127}, {"time": 669, "pitch": 68, "duration": 2, "velocity": 127}, {"time": 675, "pitch": 73, "duration": 5, "velocity": 127}, {"time": 681, "pitch": 71, "duration": 4, "velocity": 127}, {"time": 687, "pitch": 71, "duration": 8, "velocity": 127}, {"time": 699, "pitch": 68, "duration": 5, "velocity": 127}, {"time": 705, "pitch": 66, "duration": 6, "velocity": 100}, {"time": 711, "pitch": 64, "duration": 6, "velocity": 102}, {"time": 717, "pitch": 64, "duration": 6, "velocity": 112}, {"time": 729, "pitch": 64, "duration": 6, "velocity": 96}, {"time": 735, "pitch": 73, "duration": 5, "velocity": 112}, {"time": 741, "pitch": 71, "duration": 2, "velocity": 127}, {"time": 747, "pitch": 71, "duration": 3, "velocity": 122}, {"time": 753, "pitch": 68, "duration": 10, "velocity": 122}, {"time": 762, "pitch": 66, "duration": 10, "velocity": 112}, {"time": 813, "pitch": 76, "duration": 3, "velocity": 89}, {"time": 819, "pitch": 76, "duration": 3, "velocity": 102}, {"time": 825, "pitch": 76, "duration": 3, "velocity": 107}, {"time": 831, "pitch": 68, "duration": 5, "velocity": 122}, {"time": 837, "pitch": 76, "duration": 3, "velocity": 117}, {"time": 849, "pitch": 68, "duration": 4, "velocity": 107}, {"time": 855, "pitch": 73, "duration": 5, "velocity": 127}, {"time": 861, "pitch": 68, "duration": 9, "velocity": 122}, {"time": 873, "pitch": 71, "duration": 15, "velocity": 122}, {"time": 891, "pitch": 68, "duration": 5, "velocity": 117}, {"time": 897, "pitch": 71, "duration": 5, "velocity": 100}, {"time": 903, "pitch": 73, "duration": 4, "velocity": 127}, {"time": 909, "pitch": 71, "duration": 3, "velocity": 127}, {"time": 915, "pitch": 73, "duration": 5, "velocity": 127}, {"time": 921, "pitch": 73, "duration": 4, "velocity": 127}, {"time": 927, "pitch": 64, "duration": 4, "velocity": 107}, {"time": 933, "pitch": 64, "duration": 5, "velocity": 95}, {"time": 939, "pitch": 71, "duration": 6, "velocity": 97}, {"time": 945, "pitch": 68, "duration": 39, "velocity": 99}, {"time": 1005, "pitch": 76, "duration": 3, "velocity": 127}, {"time": 1011, "pitch": 76, "duration": 3, "velocity": 127}, {"time": 1017, "pitch": 75, "duration": 3, "velocity": 127}, {"time": 1023, "pitch": 76, "duration": 5, "velocity": 117}, {"time": 1029, "pitch": 68, "duration": 7, "velocity": 107}, {"time": 1041, "pitch": 68, "duration": 6, "velocity": 117}, {"time": 1047, "pitch": 73, "duration": 5, "velocity": 127}, {"time": 1053, "pitch": 68, "duration": 6, "velocity": 127}, {"time": 1059, "pitch": 73, "duration": 5, "velocity": 127}, {"time": 1065, "pitch": 71, "duration": 13, "velocity": 127}, {"time": 1083, "pitch": 68, "duration": 5, "velocity": 127}, {"time": 1089, "pitch": 71, "duration": 5, "velocity": 112}, {"time": 1095, "pitch": 73, "duration": 5, "velocity": 122}, {"time": 1107, "pitch": 73, "duration": 5, "velocity": 127}, {"time": 1113, "pitch": 71, "duration": 4, "velocity": 93}, {"time": 1119, "pitch": 73, "duration": 4, "velocity": 127}, {"time": 1125, "pitch": 76, "duration": 5, "velocity": 102}, {"time": 1131, "pitch": 73, "duration": 3, "velocity": 112}, {"time": 1137, "pitch": 78, "duration": 40, "velocity": 127}, {"time": 1179, "pitch": 76, "duration": 5, "velocity": 127}, {"time": 1185, "pitch": 75, "duration": 5, "velocity": 127}, {"time": 1191, "pitch": 76, "duration": 21, "velocity": 127}, {"time": 1227, "pitch": 73, "duration": 8, "velocity": 127}, {"time": 1233, "pitch": 68, "duration": 5, "velocity": 107}, {"time": 1239, "pitch": 71, "duration": 26, "velocity": 112}, {"time": 1275, "pitch": 68, "duration": 5, "velocity": 127}, {"time": 1281, "pitch": 71, "duration": 4, "velocity": 107}, {"time": 1287, "pitch": 73, "duration": 7, "velocity": 117}, {"time": 1299, "pitch": 76, "duration": 5, "velocity": 127}, {"time": 1305, "pitch": 73, "duration": 7, "velocity": 127}, {"time": 1317, "pitch": 71, "duration": 5, "velocity": 122}, {"time": 1323, "pitch": 66, "duration": 6, "velocity": 117}, {"time": 1329, "pitch": 68, "duration": 18, "velocity": 117}, {"time": 1371, "pitch": 66, "duration": 5, "velocity": 117}, {"time": 1377, "pitch": 68, "duration": 4, "velocity": 112}, {"time": 1383, "pitch": 71, "duration": 9, "velocity": 107}, {"time": 1395, "pitch": 68, "duration": 5, "velocity": 122}, {"time": 1401, "pitch": 71, "duration": 10, "velocity": 122}, {"time": 1419, "pitch": 68, "duration": 4, "velocity": 117}, {"time": 1425, "pitch": 71, "duration": 4, "velocity": 100}, {"time": 1431, "pitch": 73, "duration": 9, "velocity": 127}, {"time": 1443, "pitch": 76, "duration": 6, "velocity": 122}, {"time": 1449, "pitch": 73, "duration": 13, "velocity": 117}, {"time": 1467, "pitch": 71, "duration": 5, "velocity": 107}, {"time": 1473, "pitch": 73, "duration": 4, "velocity": 127}, {"time": 1479, "pitch": 76, "duration": 3, "velocity": 112}, {"time": 1485, "pitch": 76, "duration": 10, "velocity": 127}, {"time": 1509, "pitch": 73, "duration": 5, "velocity": 117}, {"time": 1515, "pitch": 80, "duration": 12, "velocity": 127}, {"time": 1527, "pitch": 78, "duration": 36, "velocity": 127}, {"time": 1563, "pitch": 76, "duration": 5, "velocity": 127}, {"time": 1569, "pitch": 75, "duration": 5, "velocity": 127}, {"time": 1575, "pitch": 76, "duration": 21, "velocity": 127}, {"time": 1611, "pitch": 73, "duration": 8, "velocity": 127}, {"time": 1617, "pitch": 68, "duration": 5, "velocity": 107}, {"time": 1623, "pitch": 71, "duration": 26, "velocity": 112}, {"time": 1659, "pitch": 68, "duration": 5, "velocity": 127}, {"time": 1665, "pitch": 71, "duration": 4, "velocity": 107}, {"time": 1671, "pitch": 73, "duration": 7, "velocity": 117}, {"time": 1683, "pitch": 76, "duration": 5, "velocity": 127}, {"time": 1689, "pitch": 73, "duration": 7, "velocity": 127}, {"time": 1701, "pitch": 71, "duration": 5, "velocity": 122}, {"time": 1707, "pitch": 66, "duration": 6, "velocity": 117}, {"time": 1713, "pitch": 68, "duration": 18, "velocity": 117}, {"time": 1755, "pitch": 66, "duration": 6, "velocity": 127}, {"time": 1761, "pitch": 68, "duration": 6, "velocity": 127}, {"time": 1767, "pitch": 71, "duration": 9, "velocity": 107}, {"time": 1785, "pitch": 71, "duration": 9, "velocity": 127}, {"time": 1803, "pitch": 68, "duration": 4, "velocity": 117}, {"time": 1809, "pitch": 71, "duration": 4, "velocity": 100}, {"time": 1815, "pitch": 73, "duration": 9, "velocity": 127}, {"time": 1827, "pitch": 76, "duration": 6, "velocity": 122}, {"time": 1833, "pitch": 73, "duration": 13, "velocity": 117}, {"time": 1851, "pitch": 71, "duration": 5, "velocity": 107}, {"time": 1857, "pitch": 73, "duration": 4, "velocity": 127}, {"time": 1863, "pitch": 76, "duration": 3, "velocity": 112}, {"time": 1869, "pitch": 76, "duration": 18, "velocity": 127}, {"time": 1893, "pitch": 76, "duration": 5, "velocity": 112}, {"time": 1899, "pitch": 73, "duration": 5, "velocity": 127}, {"time": 1905, "pitch": 78, "duration": 33, "velocity": 127}, {"time": 1935, "pitch": 76, "duration": 8, "velocity": 127}, {"time": 1947, "pitch": 75, "duration": 4, "velocity": 127}, {"time": 1953, "pitch": 76, "duration": 11, "velocity": 127}, {"time": 1965, "pitch": 73, "duration": 47, "velocity": 127}, {"time": 2061, "pitch": 68, "duration": 2, "velocity": 112}, {"time": 2067, "pitch": 76, "duration": 4, "velocity": 127}, {"time": 2073, "pitch": 76, "duration": 2, "velocity": 107}, {"time": 2079, "pitch": 76, "duration": 3, "velocity": 127}, {"time": 2085, "pitch": 68, "duration": 2, "velocity": 127}, {"time": 2091, "pitch": 76, "duration": 3, "velocity": 127}, {"time": 2097, "pitch": 68, "duration": 4, "velocity": 107}, {"time": 2103, "pitch": 73, "duration": 5, "velocity": 127}, {"time": 2109, "pitch": 73, "duration": 8, "velocity": 127}, {"time": 2121, "pitch": 71, "duration": 13, "velocity": 127}, {"time": 2136, "pitch": 68, "duration": 5, "velocity": 127}, {"time": 2145, "pitch": 66, "duration": 6, "velocity": 122}, {"time": 2151, "pitch": 64, "duration": 6, "velocity": 112}, {"time": 2157, "pitch": 64, "duration": 4, "velocity": 127}, {"time": 2169, "pitch": 61, "duration": 2, "velocity": 117}, {"time": 2175, "pitch": 73, "duration": 6, "velocity": 127}, {"time": 2181, "pitch": 71, "duration": 2, "velocity": 99}, {"time": 2187, "pitch": 71, "duration": 5, "velocity": 117}, {"time": 2193, "pitch": 66, "duration": 6, "velocity": 122}, {"time": 2199, "pitch": 68, "duration": 27, "velocity": 107}, {"time": 2253, "pitch": 76, "duration": 3, "velocity": 69}, {"time": 2259, "pitch": 76, "duration": 4, "velocity": 112}, {"time": 2265, "pitch": 68, "duration": 2, "velocity": 112}, {"time": 2268, "pitch": 76, "duration": 5, "velocity": 127}, {"time": 2283, "pitch": 76, "duration": 5, "velocity": 112}, {"time": 2289, "pitch": 68, "duration": 2, "velocity": 122}, {"time": 2295, "pitch": 73, "duration": 5, "velocity": 127}, {"time": 2301, "pitch": 68, "duration": 2, "velocity": 127}, {"time": 2307, "pitch": 73, "duration": 5, "velocity": 127}, {"time": 2313, "pitch": 71, "duration": 10, "velocity": 127}, {"time": 2331, "pitch": 68, "duration": 5, "velocity": 127}, {"time": 2337, "pitch": 71, "duration": 6, "velocity": 107}, {"time": 2343, "pitch": 73, "duration": 3, "velocity": 127}, {"time": 2349, "pitch": 73, "duration": 5, "velocity": 127}, {"time": 2367, "pitch": 73, "duration": 5, "velocity": 112}, {"time": 2373, "pitch": 71, "duration": 2, "velocity": 127}, {"time": 2379, "pitch": 71, "duration": 3, "velocity": 122}, {"time": 2385, "pitch": 64, "duration": 6, "velocity": 100}, {"time": 2391, "pitch": 66, "duration": 39, "velocity": 127}, {"time": 2445, "pitch": 76, "duration": 3, "velocity": 127}, {"time": 2451, "pitch": 76, "duration": 2, "velocity": 127}, {"time": 2457, "pitch": 76, "duration": 2, "velocity": 127}, {"time": 2463, "pitch": 76, "duration": 4, "velocity": 127}, {"time": 2481, "pitch": 76, "duration": 2, "velocity": 127}, {"time": 2487, "pitch": 68, "duration": 5, "velocity": 122}, {"time": 2493, "pitch": 71, "duration": 4, "velocity": 122}, {"time": 2499, "pitch": 73, "duration": 5, "velocity": 122}, {"time": 2505, "pitch": 71, "duration": 7, "velocity": 127}, {"time": 2523, "pitch": 68, "duration": 5, "velocity": 117}, {"time": 2529, "pitch": 71, "duration": 5, "velocity": 100}, {"time": 2535, "pitch": 73, "duration": 4, "velocity": 127}, {"time": 2541, "pitch": 73, "duration": 4, "velocity": 127}, {"time": 2553, "pitch": 73, "duration": 4, "velocity": 127}, {"time": 2559, "pitch": 64, "duration": 4, "velocity": 107}, {"time": 2565, "pitch": 64, "duration": 5, "velocity": 95}, {"time": 2571, "pitch": 71, "duration": 6, "velocity": 97}, {"time": 2577, "pitch": 68, "duration": 54, "velocity": 99}, {"time": 2637, "pitch": 76, "duration": 2, "velocity": 86}, {"time": 2643, "pitch": 76, "duration": 5, "velocity": 102}, {"time": 2649, "pitch": 68, "duration": 3, "velocity": 127}, {"time": 2655, "pitch": 76, "duration": 3, "velocity": 127}, {"time": 2661, "pitch": 76, "duration": 3, "velocity": 127}, {"time": 2667, "pitch": 73, "duration": 4, "velocity": 127}, {"time": 2679, "pitch": 68, "duration": 4, "velocity": 127}, {"time": 2685, "pitch": 71, "duration": 4, "velocity": 117}, {"time": 2691, "pitch": 73, "duration": 5, "velocity": 127}, {"time": 2694, "pitch": 71, "duration": 4, "velocity": 122}, {"time": 2703, "pitch": 71, "duration": 6, "velocity": 127}, {"time": 2715, "pitch": 68, "duration": 5, "velocity": 127}, {"time": 2721, "pitch": 71, "duration": 5, "velocity": 112}, {"time": 2727, "pitch": 73, "duration": 5, "velocity": 122}, {"time": 2733, "pitch": 73, "duration": 3, "velocity": 127}, {"time": 2745, "pitch": 73, "duration": 3, "velocity": 127}, {"time": 2748, "pitch": 71, "duration": 2, "velocity": 100}, {"time": 2751, "pitch": 73, "duration": 4, "velocity": 127}, {"time": 2757, "pitch": 76, "duration": 5, "velocity": 102}, {"time": 2763, "pitch": 73, "duration": 3, "velocity": 112}, {"time": 2769, "pitch": 78, "duration": 40, "velocity": 127}, {"time": 2811, "pitch": 76, "duration": 5, "velocity": 127}, {"time": 2817, "pitch": 75, "duration": 5, "velocity": 127}, {"time": 2823, "pitch": 76, "duration": 21, "velocity": 127}, {"time": 2859, "pitch": 73, "duration": 8, "velocity": 127}, {"time": 2865, "pitch": 68, "duration": 5, "velocity": 107}, {"time": 2871, "pitch": 71, "duration": 26, "velocity": 112}, {"time": 2907, "pitch": 68, "duration": 5, "velocity": 127}, {"time": 2913, "pitch": 71, "duration": 4, "velocity": 107}, {"time": 2919, "pitch": 73, "duration": 7, "velocity": 117}, {"time": 2931, "pitch": 76, "duration": 5, "velocity": 127}, {"time": 2937, "pitch": 73, "duration": 7, "velocity": 127}, {"time": 2949, "pitch": 71, "duration": 5, "velocity": 122}, {"time": 2955, "pitch": 66, "duration": 6, "velocity": 117}, {"time": 2961, "pitch": 68, "duration": 18, "velocity": 117}, {"time": 3003, "pitch": 66, "duration": 5, "velocity": 117}, {"time": 3009, "pitch": 68, "duration": 4, "velocity": 112}, {"time": 3015, "pitch": 71, "duration": 9, "velocity": 107}, {"time": 3027, "pitch": 68, "duration": 5, "velocity": 122}, {"time": 3033, "pitch": 71, "duration": 10, "velocity": 122}, {"time": 3051, "pitch": 68, "duration": 4, "velocity": 117}, {"time": 3057, "pitch": 71, "duration": 4, "velocity": 100}, {"time": 3063, "pitch": 73, "duration": 9, "velocity": 127}, {"time": 3075, "pitch": 76, "duration": 6, "velocity": 122}, {"time": 3081, "pitch": 73, "duration": 13, "velocity": 117}, {"time": 3099, "pitch": 71, "duration": 5, "velocity": 107}, {"time": 3105, "pitch": 73, "duration": 4, "velocity": 127}, {"time": 3111, "pitch": 76, "duration": 3, "velocity": 112}, {"time": 3117, "pitch": 76, "duration": 10, "velocity": 127}, {"time": 3141, "pitch": 73, "duration": 5, "velocity": 117}, {"time": 3147, "pitch": 80, "duration": 12, "velocity": 127}, {"time": 3159, "pitch": 78, "duration": 36, "velocity": 127}, {"time": 3195, "pitch": 76, "duration": 5, "velocity": 127}, {"time": 3201, "pitch": 75, "duration": 5, "velocity": 127}, {"time": 3207, "pitch": 76, "duration": 21, "velocity": 127}, {"time": 3243, "pitch": 73, "duration": 8, "velocity": 127}, {"time": 3249, "pitch": 68, "duration": 5, "velocity": 107}, {"time": 3255, "pitch": 71, "duration": 26, "velocity": 112}, {"time": 3291, "pitch": 68, "duration": 5, "velocity": 127}, {"time": 3297, "pitch": 71, "duration": 4, "velocity": 107}, {"time": 3303, "pitch": 73, "duration": 7, "velocity": 117}, {"time": 3315, "pitch": 76, "duration": 5, "velocity": 127}, {"time": 3321, "pitch": 73, "duration": 7, "velocity": 127}, {"time": 3333, "pitch": 71, "duration": 5, "velocity": 122}, {"time": 3339, "pitch": 66, "duration": 6, "velocity": 117}, {"time": 3345, "pitch": 68, "duration": 18, "velocity": 117}, {"time": 3387, "pitch": 66, "duration": 6, "velocity": 127}, {"time": 3393, "pitch": 68, "duration": 6, "velocity": 127}, {"time": 3399, "pitch": 71, "duration": 9, "velocity": 107}, {"time": 3417, "pitch": 71, "duration": 9, "velocity": 127}, {"time": 3435, "pitch": 68, "duration": 4, "velocity": 117}, {"time": 3441, "pitch": 71, "duration": 4, "velocity": 100}, {"time": 3447, "pitch": 73, "duration": 9, "velocity": 127}, {"time": 3459, "pitch": 76, "duration": 6, "velocity": 122}, {"time": 3465, "pitch": 73, "duration": 13, "velocity": 117}, {"time": 3483, "pitch": 71, "duration": 5, "velocity": 107}, {"time": 3489, "pitch": 73, "duration": 4, "velocity": 127}, {"time": 3495, "pitch": 76, "duration": 3, "velocity": 112}, {"time": 3501, "pitch": 76, "duration": 18, "velocity": 127}, {"time": 3525, "pitch": 76, "duration": 5, "velocity": 112}, {"time": 3531, "pitch": 73, "duration": 5, "velocity": 127}, {"time": 3537, "pitch": 78, "duration": 33, "velocity": 127}, {"time": 3567, "pitch": 76, "duration": 8, "velocity": 127}, {"time": 3579, "pitch": 75, "duration": 4, "velocity": 127}, {"time": 3585, "pitch": 76, "duration": 11, "velocity": 127}, {"time": 3597, "pitch": 73, "duration": 47, "velocity": 127}]}, {"program": 0, "is_drum": false, "name": "PIANO", "notes": [{"time": 39, "pitch": 37, "duration": 43, "velocity": 93}, {"time": 39, "pitch": 61, "duration": 5, "velocity": 96}, {"time": 45, "pitch": 49, "duration": 39, "velocity": 82}, {"time": 45, "pitch": 56, "duration": 7, "velocity": 85}, {"time": 51, "pitch": 61, "duration": 7, "velocity": 96}, {"time": 57, "pitch": 63, "duration": 31, "velocity": 107}, {"time": 87, "pitch": 44, "duration": 37, "velocity": 89}, {"time": 93, "pitch": 56, "duration": 23, "velocity": 73}, {"time": 99, "pitch": 59, "duration": 24, "velocity": 63}, {"time": 105, "pitch": 63, "duration": 31, "velocity": 78}, {"time": 117, "pitch": 51, "duration": 8, "velocity": 50}, {"time": 123, "pitch": 56, "duration": 12, "velocity": 107}, {"time": 135, "pitch": 45, "duration": 14, "velocity": 74}, {"time": 141, "pitch": 52, "duration": 17, "velocity": 92}, {"time": 147, "pitch": 64, "duration": 11, "velocity": 93}, {"time": 153, "pitch": 61, "duration": 8, "velocity": 49}, {"time": 159, "pitch": 47, "duration": 10, "velocity": 77}, {"time": 165, "pitch": 59, "duration": 18, "velocity": 86}, {"time": 171, "pitch": 66, "duration": 11, "velocity": 112}, {"time": 183, "pitch": 40, "duration": 33, "velocity": 74}, {"time": 189, "pitch": 47, "duration": 19, "velocity": 72}, {"time": 195, "pitch": 52, "duration": 13, "velocity": 76}, {"time": 201, "pitch": 59, "duration": 21, "velocity": 96}, {"time": 207, "pitch": 56, "duration": 14, "velocity": 85}, {"time": 213, "pitch": 47, "duration": 3, "velocity": 61}, {"time": 219, "pitch": 39, "duration": 12, "velocity": 102}, {"time": 231, "pitch": 37, "duration": 39, "velocity": 100}, {"time": 237, "pitch": 49, "duration": 35, "velocity": 82}, {"time": 243, "pitch": 56, "duration": 7, "velocity": 88}, {"time": 249, "pitch": 61, "duration": 8, "velocity": 96}, {"time": 255, "pitch": 63, "duration": 24, "velocity": 93}, {"time": 267, "pitch": 61, "duration": 12, "velocity": 58}, {"time": 279, "pitch": 44, "duration": 36, "velocity": 93}, {"time": 285, "pitch": 56, "duration": 7, "velocity": 64}, {"time": 291, "pitch": 59, "duration": 7, "velocity": 63}, {"time": 297, "pitch": 63, "duration": 17, "velocity": 88}, {"time": 309, "pitch": 51, "duration": 6, "velocity": 39}, {"time": 315, "pitch": 63, "duration": 13, "velocity": 74}, {"time": 327, "pitch": 45, "duration": 14, "velocity": 76}, {"time": 333, "pitch": 52, "duration": 11, "velocity": 81}, {"time": 339, "pitch": 64, "duration": 12, "velocity": 96}, {"time": 351, "pitch": 47, "duration": 15, "velocity": 71}, {"time": 357, "pitch": 59, "duration": 10, "velocity": 76}, {"time": 363, "pitch": 66, "duration": 13, "velocity": 107}, {"time": 375, "pitch": 37, "duration": 41, "velocity": 86}, {"time": 381, "pitch": 49, "duration": 20, "velocity": 88}, {"time": 387, "pitch": 61, "duration": 34, "velocity": 72}, {"time": 393, "pitch": 63, "duration": 11, "velocity": 59}, {"time": 405, "pitch": 49, "duration": 17, "velocity": 49}, {"time": 411, "pitch": 64, "duration": 12, "velocity": 69}, {"time": 417, "pitch": 37, "duration": 2, "velocity": 27}, {"time": 423, "pitch": 37, "duration": 36, "velocity": 95}, {"time": 429, "pitch": 49, "duration": 22, "velocity": 85}, {"time": 435, "pitch": 56, "duration": 20, "velocity": 81}, {"time": 441, "pitch": 64, "duration": 23, "velocity": 95}, {"time": 453, "pitch": 49, "duration": 10, "velocity": 73}, {"time": 459, "pitch": 63, "duration": 13, "velocity": 70}, {"time": 471, "pitch": 44, "duration": 38, "velocity": 97}, {"time": 477, "pitch": 51, "duration": 32, "velocity": 68}, {"time": 483, "pitch": 56, "duration": 26, "velocity": 72}, {"time": 489, "pitch": 63, "duration": 31, "velocity": 99}, {"time": 507, "pitch": 59, "duration": 11, "velocity": 61}, {"time": 519, "pitch": 45, "duration": 16, "velocity": 79}, {"time": 525, "pitch": 52, "duration": 18, "velocity": 78}, {"time": 531, "pitch": 64, "duration": 13, "velocity": 99}, {"time": 537, "pitch": 61, "duration": 8, "velocity": 44}, {"time": 543, "pitch": 47, "duration": 14, "velocity": 77}, {"time": 549, "pitch": 59, "duration": 19, "velocity": 69}, {"time": 555, "pitch": 66, "duration": 12, "velocity": 112}, {"time": 567, "pitch": 40, "duration": 36, "velocity": 75}, {"time": 573, "pitch": 47, "duration": 23, "velocity": 66}, {"time": 579, "pitch": 52, "duration": 25, "velocity": 66}, {"time": 585, "pitch": 59, "duration": 29, "velocity": 86}, {"time": 597, "pitch": 47, "duration": 7, "velocity": 61}, {"time": 603, "pitch": 56, "duration": 12, "velocity": 107}, {"time": 615, "pitch": 37, "duration": 37, "velocity": 99}, {"time": 621, "pitch": 49, "duration": 34, "velocity": 88}, {"time": 627, "pitch": 56, "duration": 5, "velocity": 18}, {"time": 627, "pitch": 61, "duration": 35, "velocity": 83}, {"time": 633, "pitch": 63, "duration": 29, "velocity": 83}, {"time": 639, "pitch": 56, "duration": 23, "velocity": 14}, {"time": 639, "pitch": 64, "duration": 24, "velocity": 66}, {"time": 663, "pitch": 44, "duration": 37, "velocity": 117}, {"time": 669, "pitch": 56, "duration": 22, "velocity": 85}, {"time": 675, "pitch": 59, "duration": 39, "velocity": 77}, {"time": 681, "pitch": 63, "duration": 19, "velocity": 112}, {"time": 693, "pitch": 56, "duration": 7, "velocity": 55}, {"time": 699, "pitch": 68, "duration": 13, "velocity": 107}, {"time": 705, "pitch": 63, "duration": 7, "velocity": 66}, {"time": 711, "pitch": 45, "duration": 41, "velocity": 75}, {"time": 717, "pitch": 52, "duration": 41, "velocity": 86}, {"time": 723, "pitch": 64, "duration": 20, "velocity": 90}, {"time": 729, "pitch": 61, "duration": 19, "velocity": 89}, {"time": 747, "pitch": 64, "duration": 12, "velocity": 78}, {"time": 753, "pitch": 61, "duration": 7, "velocity": 38}, {"time": 759, "pitch": 47, "duration": 49, "velocity": 68}, {"time": 765, "pitch": 54, "duration": 23, "velocity": 69}, {"time": 771, "pitch": 59, "duration": 20, "velocity": 64}, {"time": 777, "pitch": 66, "duration": 30, "velocity": 107}, {"time": 789, "pitch": 54, "duration": 17, "velocity": 68}, {"time": 795, "pitch": 63, "duration": 12, "velocity": 97}, {"time": 801, "pitch": 59, "duration": 7, "velocity": 78}, {"time": 807, "pitch": 37, "duration": 36, "velocity": 95}, {"time": 813, "pitch": 49, "duration": 22, "velocity": 85}, {"time": 819, "pitch": 56, "duration": 20, "velocity": 81}, {"time": 825, "pitch": 64, "duration": 23, "velocity": 95}, {"time": 837, "pitch": 49, "duration": 10, "velocity": 73}, {"time": 843, "pitch": 63, "duration": 13, "velocity": 70}, {"time": 855, "pitch": 44, "duration": 38, "velocity": 97}, {"time": 861, "pitch": 51, "duration": 32, "velocity": 68}, {"time": 867, "pitch": 56, "duration": 26, "velocity": 72}, {"time": 873, "pitch": 63, "duration": 31, "velocity": 99}, {"time": 891, "pitch": 59, "duration": 11, "velocity": 61}, {"time": 903, "pitch": 45, "duration": 16, "velocity": 79}, {"time": 909, "pitch": 52, "duration": 18, "velocity": 78}, {"time": 915, "pitch": 64, "duration": 13, "velocity": 99}, {"time": 921, "pitch": 61, "duration": 8, "velocity": 44}, {"time": 927, "pitch": 47, "duration": 14, "velocity": 77}, {"time": 933, "pitch": 59, "duration": 19, "velocity": 69}, {"time": 939, "pitch": 66, "duration": 12, "velocity": 112}, {"time": 951, "pitch": 40, "duration": 36, "velocity": 75}, {"time": 957, "pitch": 47, "duration": 23, "velocity": 66}, {"time": 963, "pitch": 52, "duration": 25, "velocity": 66}, {"time": 969, "pitch": 59, "duration": 29, "velocity": 86}, {"time": 981, "pitch": 47, "duration": 7, "velocity": 61}, {"time": 987, "pitch": 56, "duration": 12, "velocity": 107}, {"time": 999, "pitch": 37, "duration": 37, "velocity": 99}, {"time": 1005, "pitch": 49, "duration": 34, "velocity": 88}, {"time": 1011, "pitch": 56, "duration": 5, "velocity": 18}, {"time": 1011, "pitch": 61, "duration": 35, "velocity": 83}, {"time": 1017, "pitch": 63, "duration": 29, "velocity": 83}, {"time": 1023, "pitch": 56, "duration": 23, "velocity": 14}, {"time": 1023, "pitch": 64, "duration": 24, "velocity": 66}, {"time": 1047, "pitch": 44, "duration": 37, "velocity": 117}, {"time": 1053, "pitch": 56, "duration": 22, "velocity": 85}, {"time": 1059, "pitch": 59, "duration": 39, "velocity": 77}, {"time": 1065, "pitch": 63, "duration": 19, "velocity": 112}, {"time": 1077, "pitch": 56, "duration": 7, "velocity": 55}, {"time": 1083, "pitch": 68, "duration": 13, "velocity": 107}, {"time": 1089, "pitch": 63, "duration": 7, "velocity": 66}, {"time": 1095, "pitch": 45, "duration": 41, "velocity": 75}, {"time": 1101, "pitch": 52, "duration": 41, "velocity": 86}, {"time": 1107, "pitch": 64, "duration": 20, "velocity": 90}, {"time": 1113, "pitch": 61, "duration": 19, "velocity": 89}, {"time": 1131, "pitch": 64, "duration": 12, "velocity": 78}, {"time": 1137, "pitch": 61, "duration": 7, "velocity": 38}, {"time": 1143, "pitch": 47, "duration": 49, "velocity": 68}, {"time": 1149, "pitch": 54, "duration": 23, "velocity": 69}, {"time": 1155, "pitch": 59, "duration": 20, "velocity": 64}, {"time": 1161, "pitch": 66, "duration": 30, "velocity": 107}, {"time": 1173, "pitch": 54, "duration": 17, "velocity": 68}, {"time": 1179, "pitch": 63, "duration": 12, "velocity": 97}, {"time": 1185, "pitch": 59, "duration": 7, "velocity": 78}, {"time": 1191, "pitch": 37, "duration": 35, "velocity": 99}, {"time": 1197, "pitch": 49, "duration": 20, "velocity": 85}, {"time": 1203, "pitch": 61, "duration": 5, "velocity": 58}, {"time": 1209, "pitch": 64, "duration": 11, "velocity": 95}, {"time": 1209, "pitch": 68, "duration": 15, "velocity": 112}, {"time": 1221, "pitch": 49, "duration": 8, "velocity": 86}, {"time": 1227, "pitch": 64, "duration": 10, "velocity": 97}, {"time": 1227, "pitch": 68, "duration": 12, "velocity": 117}, {"time": 1233, "pitch": 61, "duration": 6, "velocity": 60}, {"time": 1239, "pitch": 44, "duration": 36, "velocity": 82}, {"time": 1245, "pitch": 56, "duration": 19, "velocity": 67}, {"time": 1251, "pitch": 59, "duration": 4, "velocity": 65}, {"time": 1257, "pitch": 59, "duration": 13, "velocity": 75}, {"time": 1257, "pitch": 63, "duration": 13, "velocity": 117}, {"time": 1257, "pitch": 68, "duration": 14, "velocity": 117}, {"time": 1269, "pitch": 56, "duration": 6, "velocity": 55}, {"time": 1275, "pitch": 63, "duration": 3, "velocity": 127}, {"time": 1275, "pitch": 68, "duration": 3, "velocity": 127}, {"time": 1287, "pitch": 45, "duration": 12, "velocity": 76}, {"time": 1287, "pitch": 57, "duration": 7, "velocity": 97}, {"time": 1287, "pitch": 61, "duration": 9, "velocity": 112}, {"time": 1287, "pitch": 64, "duration": 9, "velocity": 95}, {"time": 1293, "pitch": 52, "duration": 6, "velocity": 61}, {"time": 1299, "pitch": 61, "duration": 2, "velocity": 127}, {"time": 1299, "pitch": 64, "duration": 2, "velocity": 92}, {"time": 1311, "pitch": 47, "duration": 9, "velocity": 63}, {"time": 1311, "pitch": 59, "duration": 11, "velocity": 88}, {"time": 1311, "pitch": 63, "duration": 13, "velocity": 127}, {"time": 1311, "pitch": 66, "duration": 14, "velocity": 117}, {"time": 1335, "pitch": 40, "duration": 34, "velocity": 74}, {"time": 1335, "pitch": 59, "duration": 14, "velocity": 89}, {"time": 1335, "pitch": 64, "duration": 15, "velocity": 96}, {"time": 1335, "pitch": 68, "duration": 15, "velocity": 99}, {"time": 1341, "pitch": 47, "duration": 28, "velocity": 57}, {"time": 1347, "pitch": 52, "duration": 15, "velocity": 100}, {"time": 1353, "pitch": 64, "duration": 17, "velocity": 107}, {"time": 1353, "pitch": 68, "duration": 19, "velocity": 117}, {"time": 1365, "pitch": 52, "duration": 7, "velocity": 82}, {"time": 1371, "pitch": 59, "duration": 2, "velocity": 100}, {"time": 1383, "pitch": 44, "duration": 32, "velocity": 96}, {"time": 1383, "pitch": 59, "duration": 8, "velocity": 89}, {"time": 1383, "pitch": 63, "duration": 11, "velocity": 112}, {"time": 1383, "pitch": 68, "duration": 11, "velocity": 97}, {"time": 1389, "pitch": 56, "duration": 19, "velocity": 100}, {"time": 1395, "pitch": 59, "duration": 4, "velocity": 77}, {"time": 1401, "pitch": 63, "duration": 18, "velocity": 122}, {"time": 1401, "pitch": 68, "duration": 19, "velocity": 127}, {"time": 1413, "pitch": 56, "duration": 2, "velocity": 93}, {"time": 1419, "pitch": 59, "duration": 1, "velocity": 96}, {"time": 1431, "pitch": 37, "duration": 32, "velocity": 99}, {"time": 1431, "pitch": 61, "duration": 13, "velocity": 107}, {"time": 1431, "pitch": 64, "duration": 12, "velocity": 95}, {"time": 1431, "pitch": 68, "duration": 14, "velocity": 102}, {"time": 1443, "pitch": 49, "duration": 15, "velocity": 85}, {"time": 1449, "pitch": 61, "duration": 11, "velocity": 107}, {"time": 1449, "pitch": 64, "duration": 11, "velocity": 100}, {"time": 1449, "pitch": 68, "duration": 14, "velocity": 117}, {"time": 1461, "pitch": 49, "duration": 3, "velocity": 82}, {"time": 1467, "pitch": 61, "duration": 2, "velocity": 102}, {"time": 1467, "pitch": 64, "duration": 1, "velocity": 95}, {"time": 1467, "pitch": 68, "duration": 1, "velocity": 117}, {"time": 1479, "pitch": 45, "duration": 37, "velocity": 70}, {"time": 1479, "pitch": 57, "duration": 8, "velocity": 102}, {"time": 1479, "pitch": 61, "duration": 10, "velocity": 122}, {"time": 1479, "pitch": 64, "duration": 13, "velocity": 97}, {"time": 1485, "pitch": 52, "duration": 23, "velocity": 64}, {"time": 1491, "pitch": 57, "duration": 4, "velocity": 57}, {"time": 1497, "pitch": 61, "duration": 14, "velocity": 127}, {"time": 1497, "pitch": 64, "duration": 14, "velocity": 100}, {"time": 1509, "pitch": 52, "duration": 6, "velocity": 92}, {"time": 1515, "pitch": 61, "duration": 2, "velocity": 127}, {"time": 1515, "pitch": 64, "duration": 2, "velocity": 97}, {"time": 1527, "pitch": 47, "duration": 45, "velocity": 85}, {"time": 1527, "pitch": 59, "duration": 1, "velocity": 112}, {"time": 1527, "pitch": 63, "duration": 1, "velocity": 127}, {"time": 1527, "pitch": 66, "duration": 2, "velocity": 127}, {"time": 1533, "pitch": 54, "duration": 23, "velocity": 53}, {"time": 1539, "pitch": 59, "duration": 9, "velocity": 95}, {"time": 1545, "pitch": 71, "duration": 2, "velocity": 93}, {"time": 1545, "pitch": 75, "duration": 2, "velocity": 127}, {"time": 1545, "pitch": 78, "duration": 3, "velocity": 117}, {"time": 1551, "pitch": 71, "duration": 2, "velocity": 102}, {"time": 1551, "pitch": 75, "duration": 1, "velocity": 127}, {"time": 1551, "pitch": 78, "duration": 2, "velocity": 127}, {"time": 1557, "pitch": 54, "duration": 12, "velocity": 82}, {"time": 1563, "pitch": 63, "duration": 12, "velocity": 127}, {"time": 1563, "pitch": 66, "duration": 12, "velocity": 127}, {"time": 1569, "pitch": 59, "duration": 6, "velocity": 97}, {"time": 1575, "pitch": 37, "duration": 35, "velocity": 99}, {"time": 1581, "pitch": 49, "duration": 20, "velocity": 85}, {"time": 1587, "pitch": 61, "duration": 5, "velocity": 58}, {"time": 1593, "pitch": 64, "duration": 11, "velocity": 95}, {"time": 1593, "pitch": 68, "duration": 15, "velocity": 112}, {"time": 1605, "pitch": 49, "duration": 8, "velocity": 86}, {"time": 1611, "pitch": 64, "duration": 10, "velocity": 97}, {"time": 1611, "pitch": 68, "duration": 12, "velocity": 117}, {"time": 1617, "pitch": 61, "duration": 6, "velocity": 60}, {"time": 1623, "pitch": 44, "duration": 36, "velocity": 82}, {"time": 1629, "pitch": 56, "duration": 19, "velocity": 67}, {"time": 1635, "pitch": 59, "duration": 4, "velocity": 65}, {"time": 1641, "pitch": 59, "duration": 13, "velocity": 75}, {"time": 1641, "pitch": 63, "duration": 13, "velocity": 117}, {"time": 1641, "pitch": 68, "duration": 14, "velocity": 117}, {"time": 1653, "pitch": 56, "duration": 6, "velocity": 55}, {"time": 1659, "pitch": 63, "duration": 3, "velocity": 127}, {"time": 1659, "pitch": 68, "duration": 3, "velocity": 127}, {"time": 1671, "pitch": 45, "duration": 12, "velocity": 76}, {"time": 1671, "pitch": 57, "duration": 7, "velocity": 97}, {"time": 1671, "pitch": 61, "duration": 9, "velocity": 112}, {"time": 1671, "pitch": 64, "duration": 9, "velocity": 95}, {"time": 1677, "pitch": 52, "duration": 6, "velocity": 61}, {"time": 1683, "pitch": 61, "duration": 2, "velocity": 127}, {"time": 1683, "pitch": 64, "duration": 2, "velocity": 92}, {"time": 1695, "pitch": 47, "duration": 9, "velocity": 63}, {"time": 1695, "pitch": 59, "duration": 11, "velocity": 88}, {"time": 1695, "pitch": 63, "duration": 13, "velocity": 127}, {"time": 1695, "pitch": 66, "duration": 14, "velocity": 117}, {"time": 1716, "pitch": 59, "duration": 14, "velocity": 89}, {"time": 1716, "pitch": 64, "duration": 15, "velocity": 96}, {"time": 1719, "pitch": 40, "duration": 34, "velocity": 74}, {"time": 1719, "pitch": 68, "duration": 15, "velocity": 99}, {"time": 1725, "pitch": 47, "duration": 28, "velocity": 57}, {"time": 1731, "pitch": 52, "duration": 15, "velocity": 100}, {"time": 1737, "pitch": 64, "duration": 17, "velocity": 107}, {"time": 1737, "pitch": 68, "duration": 19, "velocity": 117}, {"time": 1749, "pitch": 52, "duration": 7, "velocity": 82}, {"time": 1755, "pitch": 59, "duration": 2, "velocity": 100}, {"time": 1767, "pitch": 44, "duration": 32, "velocity": 96}, {"time": 1767, "pitch": 59, "duration": 8, "velocity": 89}, {"time": 1767, "pitch": 63, "duration": 11, "velocity": 112}, {"time": 1767, "pitch": 68, "duration": 11, "velocity": 97}, {"time": 1773, "pitch": 56, "duration": 19, "velocity": 100}, {"time": 1779, "pitch": 59, "duration": 4, "velocity": 77}, {"time": 1785, "pitch": 63, "duration": 18, "velocity": 122}, {"time": 1785, "pitch": 68, "duration": 19, "velocity": 127}, {"time": 1794, "pitch": 56, "duration": 2, "velocity": 93}, {"time": 1803, "pitch": 59, "duration": 1, "velocity": 96}, {"time": 1812, "pitch": 37, "duration": 32, "velocity": 99}, {"time": 1812, "pitch": 61, "duration": 12, "velocity": 107}, {"time": 1812, "pitch": 64, "duration": 12, "velocity": 95}, {"time": 1815, "pitch": 68, "duration": 14, "velocity": 102}, {"time": 1827, "pitch": 49, "duration": 15, "velocity": 85}, {"time": 1833, "pitch": 61, "duration": 11, "velocity": 107}, {"time": 1833, "pitch": 64, "duration": 11, "velocity": 100}, {"time": 1833, "pitch": 68, "duration": 14, "velocity": 117}, {"time": 1845, "pitch": 49, "duration": 3, "velocity": 82}, {"time": 1851, "pitch": 61, "duration": 2, "velocity": 102}, {"time": 1851, "pitch": 64, "duration": 1, "velocity": 95}, {"time": 1851, "pitch": 68, "duration": 1, "velocity": 117}, {"time": 1863, "pitch": 45, "duration": 37, "velocity": 70}, {"time": 1863, "pitch": 57, "duration": 8, "velocity": 102}, {"time": 1863, "pitch": 61, "duration": 10, "velocity": 122}, {"time": 1863, "pitch": 64, "duration": 13, "velocity": 97}, {"time": 1869, "pitch": 52, "duration": 23, "velocity": 64}, {"time": 1875, "pitch": 57, "duration": 4, "velocity": 57}, {"time": 1881, "pitch": 61, "duration": 14, "velocity": 127}, {"time": 1881, "pitch": 64, "duration": 14, "velocity": 100}, {"time": 1893, "pitch": 52, "duration": 6, "velocity": 92}, {"time": 1899, "pitch": 61, "duration": 2, "velocity": 127}, {"time": 1899, "pitch": 64, "duration": 2, "velocity": 97}, {"time": 1911, "pitch": 47, "duration": 45, "velocity": 85}, {"time": 1911, "pitch": 59, "duration": 1, "velocity": 112}, {"time": 1911, "pitch": 63, "duration": 1, "velocity": 127}, {"time": 1911, "pitch": 66, "duration": 2, "velocity": 127}, {"time": 1917, "pitch": 54, "duration": 23, "velocity": 53}, {"time": 1923, "pitch": 59, "duration": 9, "velocity": 95}, {"time": 1929, "pitch": 71, "duration": 2, "velocity": 93}, {"time": 1929, "pitch": 75, "duration": 2, "velocity": 127}, {"time": 1929, "pitch": 78, "duration": 3, "velocity": 117}, {"time": 1935, "pitch": 71, "duration": 2, "velocity": 102}, {"time": 1935, "pitch": 75, "duration": 1, "velocity": 127}, {"time": 1935, "pitch": 78, "duration": 2, "velocity": 127}, {"time": 1941, "pitch": 54, "duration": 12, "velocity": 82}, {"time": 1947, "pitch": 63, "duration": 12, "velocity": 127}, {"time": 1947, "pitch": 66, "duration": 12, "velocity": 127}, {"time": 1953, "pitch": 59, "duration": 6, "velocity": 97}, {"time": 1959, "pitch": 37, "duration": 47, "velocity": 95}, {"time": 1965, "pitch": 49, "duration": 20, "velocity": 76}, {"time": 1971, "pitch": 61, "duration": 7, "velocity": 70}, {"time": 1977, "pitch": 68, "duration": 29, "velocity": 122}, {"time": 1983, "pitch": 61, "duration": 24, "velocity": 53}, {"time": 1989, "pitch": 49, "duration": 20, "velocity": 65}, {"time": 2007, "pitch": 37, "duration": 50, "velocity": 93}, {"time": 2010, "pitch": 49, "duration": 22, "velocity": 95}, {"time": 2019, "pitch": 61, "duration": 7, "velocity": 71}, {"time": 2025, "pitch": 64, "duration": 7, "velocity": 71}, {"time": 2031, "pitch": 63, "duration": 12, "velocity": 83}, {"time": 2037, "pitch": 49, "duration": 20, "velocity": 65}, {"time": 2043, "pitch": 64, "duration": 14, "velocity": 73}, {"time": 2049, "pitch": 61, "duration": 8, "velocity": 70}, {"time": 2049, "pitch": 68, "duration": 8, "velocity": 58}, {"time": 2055, "pitch": 37, "duration": 2, "velocity": 95}, {"time": 2061, "pitch": 49, "duration": 22, "velocity": 85}, {"time": 2067, "pitch": 56, "duration": 20, "velocity": 81}, {"time": 2073, "pitch": 64, "duration": 23, "velocity": 95}, {"time": 2085, "pitch": 49, "duration": 10, "velocity": 73}, {"time": 2091, "pitch": 63, "duration": 13, "velocity": 70}, {"time": 2103, "pitch": 44, "duration": 38, "velocity": 97}, {"time": 2109, "pitch": 51, "duration": 32, "velocity": 68}, {"time": 2115, "pitch": 56, "duration": 26, "velocity": 72}, {"time": 2121, "pitch": 63, "duration": 31, "velocity": 99}, {"time": 2139, "pitch": 59, "duration": 11, "velocity": 61}, {"time": 2151, "pitch": 45, "duration": 16, "velocity": 79}, {"time": 2157, "pitch": 52, "duration": 18, "velocity": 78}, {"time": 2163, "pitch": 64, "duration": 13, "velocity": 99}, {"time": 2169, "pitch": 61, "duration": 8, "velocity": 44}, {"time": 2175, "pitch": 47, "duration": 14, "velocity": 77}, {"time": 2181, "pitch": 59, "duration": 19, "velocity": 69}, {"time": 2187, "pitch": 66, "duration": 12, "velocity": 112}, {"time": 2199, "pitch": 40, "duration": 36, "velocity": 75}, {"time": 2205, "pitch": 47, "duration": 23, "velocity": 66}, {"time": 2211, "pitch": 52, "duration": 25, "velocity": 66}, {"time": 2217, "pitch": 59, "duration": 29, "velocity": 86}, {"time": 2229, "pitch": 47, "duration": 7, "velocity": 61}, {"time": 2235, "pitch": 56, "duration": 12, "velocity": 107}, {"time": 2247, "pitch": 37, "duration": 37, "velocity": 99}, {"time": 2253, "pitch": 49, "duration": 34, "velocity": 88}, {"time": 2259, "pitch": 56, "duration": 5, "velocity": 18}, {"time": 2259, "pitch": 61, "duration": 35, "velocity": 83}, {"time": 2265, "pitch": 63, "duration": 29, "velocity": 83}, {"time": 2271, "pitch": 56, "duration": 23, "velocity": 14}, {"time": 2271, "pitch": 64, "duration": 24, "velocity": 66}, {"time": 2295, "pitch": 44, "duration": 37, "velocity": 117}, {"time": 2301, "pitch": 56, "duration": 22, "velocity": 85}, {"time": 2307, "pitch": 59, "duration": 39, "velocity": 77}, {"time": 2313, "pitch": 63, "duration": 19, "velocity": 112}, {"time": 2325, "pitch": 56, "duration": 7, "velocity": 55}, {"time": 2331, "pitch": 68, "duration": 13, "velocity": 107}, {"time": 2337, "pitch": 63, "duration": 7, "velocity": 66}, {"time": 2343, "pitch": 45, "duration": 41, "velocity": 75}, {"time": 2349, "pitch": 52, "duration": 41, "velocity": 86}, {"time": 2355, "pitch": 64, "duration": 20, "velocity": 90}, {"time": 2361, "pitch": 61, "duration": 19, "velocity": 89}, {"time": 2379, "pitch": 64, "duration": 12, "velocity": 78}, {"time": 2385, "pitch": 61, "duration": 7, "velocity": 38}, {"time": 2391, "pitch": 47, "duration": 49, "velocity": 68}, {"time": 2397, "pitch": 54, "duration": 23, "velocity": 69}, {"time": 2403, "pitch": 59, "duration": 20, "velocity": 64}, {"time": 2409, "pitch": 66, "duration": 30, "velocity": 107}, {"time": 2421, "pitch": 54, "duration": 17, "velocity": 68}, {"time": 2427, "pitch": 63, "duration": 12, "velocity": 97}, {"time": 2433, "pitch": 59, "duration": 7, "velocity": 78}, {"time": 2439, "pitch": 37, "duration": 36, "velocity": 95}, {"time": 2445, "pitch": 49, "duration": 22, "velocity": 85}, {"time": 2451, "pitch": 56, "duration": 20, "velocity": 81}, {"time": 2457, "pitch": 64, "duration": 23, "velocity": 95}, {"time": 2469, "pitch": 49, "duration": 10, "velocity": 73}, {"time": 2475, "pitch": 63, "duration": 13, "velocity": 70}, {"time": 2487, "pitch": 44, "duration": 38, "velocity": 97}, {"time": 2493, "pitch": 51, "duration": 32, "velocity": 68}, {"time": 2499, "pitch": 56, "duration": 26, "velocity": 72}, {"time": 2505, "pitch": 63, "duration": 31, "velocity": 99}, {"time": 2523, "pitch": 59, "duration": 11, "velocity": 61}, {"time": 2535, "pitch": 45, "duration": 16, "velocity": 79}, {"time": 2541, "pitch": 52, "duration": 18, "velocity": 78}, {"time": 2547, "pitch": 64, "duration": 13, "velocity": 99}, {"time": 2553, "pitch": 61, "duration": 8, "velocity": 44}, {"time": 2559, "pitch": 47, "duration": 14, "velocity": 77}, {"time": 2565, "pitch": 59, "duration": 19, "velocity": 69}, {"time": 2571, "pitch": 66, "duration": 12, "velocity": 112}, {"time": 2583, "pitch": 40, "duration": 36, "velocity": 75}, {"time": 2589, "pitch": 47, "duration": 23, "velocity": 66}, {"time": 2595, "pitch": 52, "duration": 25, "velocity": 66}, {"time": 2601, "pitch": 59, "duration": 29, "velocity": 86}, {"time": 2613, "pitch": 47, "duration": 7, "velocity": 61}, {"time": 2619, "pitch": 56, "duration": 12, "velocity": 107}, {"time": 2631, "pitch": 37, "duration": 37, "velocity": 99}, {"time": 2637, "pitch": 49, "duration": 34, "velocity": 88}, {"time": 2643, "pitch": 56, "duration": 5, "velocity": 18}, {"time": 2643, "pitch": 61, "duration": 35, "velocity": 83}, {"time": 2649, "pitch": 63, "duration": 29, "velocity": 83}, {"time": 2655, "pitch": 56, "duration": 23, "velocity": 14}, {"time": 2655, "pitch": 64, "duration": 24, "velocity": 66}, {"time": 2679, "pitch": 44, "duration": 37, "velocity": 117}, {"time": 2685, "pitch": 56, "duration": 22, "velocity": 85}, {"time": 2691, "pitch": 59, "duration": 39, "velocity": 77}, {"time": 2697, "pitch": 63, "duration": 19, "velocity": 112}, {"time": 2709, "pitch": 56, "duration": 7, "velocity": 55}, {"time": 2715, "pitch": 68, "duration": 13, "velocity": 107}, {"time": 2721, "pitch": 63, "duration": 7, "velocity": 66}, {"time": 2727, "pitch": 45, "duration": 41, "velocity": 75}, {"time": 2733, "pitch": 52, "duration": 41, "velocity": 86}, {"time": 2739, "pitch": 64, "duration": 20, "velocity": 90}, {"time": 2745, "pitch": 61, "duration": 19, "velocity": 89}, {"time": 2763, "pitch": 64, "duration": 12, "velocity": 78}, {"time": 2769, "pitch": 61, "duration": 7, "velocity": 38}, {"time": 2775, "pitch": 47, "duration": 49, "velocity": 68}, {"time": 2781, "pitch": 54, "duration": 23, "velocity": 69}, {"time": 2787, "pitch": 59, "duration": 20, "velocity": 64}, {"time": 2793, "pitch": 66, "duration": 30, "velocity": 107}, {"time": 2805, "pitch": 54, "duration": 17, "velocity": 68}, {"time": 2811, "pitch": 63, "duration": 12, "velocity": 97}, {"time": 2817, "pitch": 59, "duration": 7, "velocity": 78}, {"time": 2823, "pitch": 37, "duration": 35, "velocity": 99}, {"time": 2829, "pitch": 49, "duration": 20, "velocity": 85}, {"time": 2835, "pitch": 61, "duration": 5, "velocity": 58}, {"time": 2841, "pitch": 64, "duration": 11, "velocity": 95}, {"time": 2841, "pitch": 68, "duration": 15, "velocity": 112}, {"time": 2853, "pitch": 49, "duration": 8, "velocity": 86}, {"time": 2859, "pitch": 64, "duration": 10, "velocity": 97}, {"time": 2859, "pitch": 68, "duration": 12, "velocity": 117}, {"time": 2865, "pitch": 61, "duration": 6, "velocity": 60}, {"time": 2871, "pitch": 44, "duration": 36, "velocity": 82}, {"time": 2877, "pitch": 56, "duration": 19, "velocity": 67}, {"time": 2883, "pitch": 59, "duration": 4, "velocity": 65}, {"time": 2889, "pitch": 59, "duration": 13, "velocity": 75}, {"time": 2889, "pitch": 63, "duration": 13, "velocity": 117}, {"time": 2889, "pitch": 68, "duration": 14, "velocity": 117}, {"time": 2901, "pitch": 56, "duration": 6, "velocity": 55}, {"time": 2907, "pitch": 63, "duration": 3, "velocity": 127}, {"time": 2907, "pitch": 68, "duration": 3, "velocity": 127}, {"time": 2919, "pitch": 45, "duration": 12, "velocity": 76}, {"time": 2919, "pitch": 57, "duration": 7, "velocity": 97}, {"time": 2919, "pitch": 61, "duration": 9, "velocity": 112}, {"time": 2919, "pitch": 64, "duration": 9, "velocity": 95}, {"time": 2925, "pitch": 52, "duration": 6, "velocity": 61}, {"time": 2931, "pitch": 61, "duration": 2, "velocity": 127}, {"time": 2931, "pitch": 64, "duration": 2, "velocity": 92}, {"time": 2943, "pitch": 47, "duration": 9, "velocity": 63}, {"time": 2943, "pitch": 59, "duration": 11, "velocity": 88}, {"time": 2943, "pitch": 63, "duration": 13, "velocity": 127}, {"time": 2943, "pitch": 66, "duration": 14, "velocity": 117}, {"time": 2967, "pitch": 40, "duration": 34, "velocity": 74}, {"time": 2967, "pitch": 59, "duration": 14, "velocity": 89}, {"time": 2967, "pitch": 64, "duration": 15, "velocity": 96}, {"time": 2967, "pitch": 68, "duration": 15, "velocity": 99}, {"time": 2973, "pitch": 47, "duration": 28, "velocity": 57}, {"time": 2979, "pitch": 52, "duration": 15, "velocity": 100}, {"time": 2985, "pitch": 64, "duration": 17, "velocity": 107}, {"time": 2985, "pitch": 68, "duration": 19, "velocity": 117}, {"time": 2997, "pitch": 52, "duration": 7, "velocity": 82}, {"time": 3003, "pitch": 59, "duration": 2, "velocity": 100}, {"time": 3015, "pitch": 44, "duration": 32, "velocity": 96}, {"time": 3015, "pitch": 59, "duration": 8, "velocity": 89}, {"time": 3015, "pitch": 63, "duration": 11, "velocity": 112}, {"time": 3015, "pitch": 68, "duration": 11, "velocity": 97}, {"time": 3021, "pitch": 56, "duration": 19, "velocity": 100}, {"time": 3027, "pitch": 59, "duration": 4, "velocity": 77}, {"time": 3033, "pitch": 63, "duration": 18, "velocity": 122}, {"time": 3033, "pitch": 68, "duration": 19, "velocity": 127}, {"time": 3045, "pitch": 56, "duration": 2, "velocity": 93}, {"time": 3051, "pitch": 59, "duration": 1, "velocity": 96}, {"time": 3063, "pitch": 37, "duration": 32, "velocity": 99}, {"time": 3063, "pitch": 61, "duration": 13, "velocity": 107}, {"time": 3063, "pitch": 64, "duration": 12, "velocity": 95}, {"time": 3063, "pitch": 68, "duration": 14, "velocity": 102}, {"time": 3075, "pitch": 49, "duration": 15, "velocity": 85}, {"time": 3081, "pitch": 61, "duration": 11, "velocity": 107}, {"time": 3081, "pitch": 64, "duration": 11, "velocity": 100}, {"time": 3081, "pitch": 68, "duration": 14, "velocity": 117}, {"time": 3093, "pitch": 49, "duration": 3, "velocity": 82}, {"time": 3099, "pitch": 61, "duration": 2, "velocity": 102}, {"time": 3099, "pitch": 64, "duration": 1, "velocity": 95}, {"time": 3099, "pitch": 68, "duration": 1, "velocity": 117}, {"time": 3111, "pitch": 45, "duration": 37, "velocity": 70}, {"time": 3111, "pitch": 57, "duration": 8, "velocity": 102}, {"time": 3111, "pitch": 61, "duration": 10, "velocity": 122}, {"time": 3111, "pitch": 64, "duration": 13, "velocity": 97}, {"time": 3117, "pitch": 52, "duration": 23, "velocity": 64}, {"time": 3123, "pitch": 57, "duration": 4, "velocity": 57}, {"time": 3129, "pitch": 61, "duration": 14, "velocity": 127}, {"time": 3129, "pitch": 64, "duration": 14, "velocity": 100}, {"time": 3141, "pitch": 52, "duration": 6, "velocity": 92}, {"time": 3147, "pitch": 61, "duration": 2, "velocity": 127}, {"time": 3147, "pitch": 64, "duration": 2, "velocity": 97}, {"time": 3159, "pitch": 47, "duration": 45, "velocity": 85}, {"time": 3159, "pitch": 59, "duration": 1, "velocity": 112}, {"time": 3159, "pitch": 63, "duration": 1, "velocity": 127}, {"time": 3159, "pitch": 66, "duration": 2, "velocity": 127}, {"time": 3165, "pitch": 54, "duration": 23, "velocity": 53}, {"time": 3171, "pitch": 59, "duration": 9, "velocity": 95}, {"time": 3177, "pitch": 71, "duration": 2, "velocity": 93}, {"time": 3177, "pitch": 75, "duration": 2, "velocity": 127}, {"time": 3177, "pitch": 78, "duration": 3, "velocity": 117}, {"time": 3183, "pitch": 71, "duration": 2, "velocity": 102}, {"time": 3183, "pitch": 75, "duration": 1, "velocity": 127}, {"time": 3183, "pitch": 78, "duration": 2, "velocity": 127}, {"time": 3189, "pitch": 54, "duration": 12, "velocity": 82}, {"time": 3195, "pitch": 63, "duration": 12, "velocity": 127}, {"time": 3195, "pitch": 66, "duration": 12, "velocity": 127}, {"time": 3201, "pitch": 59, "duration": 6, "velocity": 97}, {"time": 3207, "pitch": 37, "duration": 35, "velocity": 99}, {"time": 3213, "pitch": 49, "duration": 20, "velocity": 85}, {"time": 3219, "pitch": 61, "duration": 5, "velocity": 58}, {"time": 3225, "pitch": 64, "duration": 11, "velocity": 95}, {"time": 3225, "pitch": 68, "duration": 15, "velocity": 112}, {"time": 3237, "pitch": 49, "duration": 8, "velocity": 86}, {"time": 3243, "pitch": 64, "duration": 10, "velocity": 97}, {"time": 3243, "pitch": 68, "duration": 12, "velocity": 117}, {"time": 3249, "pitch": 61, "duration": 6, "velocity": 60}, {"time": 3255, "pitch": 44, "duration": 36, "velocity": 82}, {"time": 3261, "pitch": 56, "duration": 19, "velocity": 67}, {"time": 3267, "pitch": 59, "duration": 4, "velocity": 65}, {"time": 3273, "pitch": 59, "duration": 13, "velocity": 75}, {"time": 3273, "pitch": 63, "duration": 13, "velocity": 117}, {"time": 3273, "pitch": 68, "duration": 14, "velocity": 117}, {"time": 3285, "pitch": 56, "duration": 6, "velocity": 55}, {"time": 3291, "pitch": 63, "duration": 3, "velocity": 127}, {"time": 3291, "pitch": 68, "duration": 3, "velocity": 127}, {"time": 3303, "pitch": 45, "duration": 12, "velocity": 76}, {"time": 3303, "pitch": 57, "duration": 7, "velocity": 97}, {"time": 3303, "pitch": 61, "duration": 9, "velocity": 112}, {"time": 3303, "pitch": 64, "duration": 9, "velocity": 95}, {"time": 3309, "pitch": 52, "duration": 6, "velocity": 61}, {"time": 3315, "pitch": 61, "duration": 2, "velocity": 127}, {"time": 3315, "pitch": 64, "duration": 2, "velocity": 92}, {"time": 3327, "pitch": 47, "duration": 9, "velocity": 63}, {"time": 3327, "pitch": 59, "duration": 11, "velocity": 88}, {"time": 3327, "pitch": 63, "duration": 13, "velocity": 127}, {"time": 3327, "pitch": 66, "duration": 14, "velocity": 117}, {"time": 3348, "pitch": 59, "duration": 14, "velocity": 89}, {"time": 3348, "pitch": 64, "duration": 15, "velocity": 96}, {"time": 3351, "pitch": 40, "duration": 34, "velocity": 74}, {"time": 3351, "pitch": 68, "duration": 15, "velocity": 99}, {"time": 3357, "pitch": 47, "duration": 28, "velocity": 57}, {"time": 3363, "pitch": 52, "duration": 15, "velocity": 100}, {"time": 3369, "pitch": 64, "duration": 17, "velocity": 107}, {"time": 3369, "pitch": 68, "duration": 19, "velocity": 117}, {"time": 3381, "pitch": 52, "duration": 7, "velocity": 82}, {"time": 3387, "pitch": 59, "duration": 2, "velocity": 100}, {"time": 3399, "pitch": 44, "duration": 32, "velocity": 96}, {"time": 3399, "pitch": 59, "duration": 8, "velocity": 89}, {"time": 3399, "pitch": 63, "duration": 11, "velocity": 112}, {"time": 3399, "pitch": 68, "duration": 11, "velocity": 97}, {"time": 3405, "pitch": 56, "duration": 19, "velocity": 100}, {"time": 3411, "pitch": 59, "duration": 4, "velocity": 77}, {"time": 3417, "pitch": 63, "duration": 18, "velocity": 122}, {"time": 3417, "pitch": 68, "duration": 19, "velocity": 127}, {"time": 3426, "pitch": 56, "duration": 2, "velocity": 93}, {"time": 3435, "pitch": 59, "duration": 1, "velocity": 96}, {"time": 3444, "pitch": 37, "duration": 32, "velocity": 99}, {"time": 3444, "pitch": 61, "duration": 12, "velocity": 107}, {"time": 3444, "pitch": 64, "duration": 12, "velocity": 95}, {"time": 3447, "pitch": 68, "duration": 14, "velocity": 102}, {"time": 3459, "pitch": 49, "duration": 15, "velocity": 85}, {"time": 3465, "pitch": 61, "duration": 11, "velocity": 107}, {"time": 3465, "pitch": 64, "duration": 11, "velocity": 100}, {"time": 3465, "pitch": 68, "duration": 14, "velocity": 117}, {"time": 3477, "pitch": 49, "duration": 3, "velocity": 82}, {"time": 3483, "pitch": 61, "duration": 2, "velocity": 102}, {"time": 3483, "pitch": 64, "duration": 1, "velocity": 95}, {"time": 3483, "pitch": 68, "duration": 1, "velocity": 117}, {"time": 3495, "pitch": 45, "duration": 37, "velocity": 70}, {"time": 3495, "pitch": 57, "duration": 8, "velocity": 102}, {"time": 3495, "pitch": 61, "duration": 10, "velocity": 122}, {"time": 3495, "pitch": 64, "duration": 13, "velocity": 97}, {"time": 3501, "pitch": 52, "duration": 23, "velocity": 64}, {"time": 3507, "pitch": 57, "duration": 4, "velocity": 57}, {"time": 3513, "pitch": 61, "duration": 14, "velocity": 127}, {"time": 3513, "pitch": 64, "duration": 14, "velocity": 100}, {"time": 3525, "pitch": 52, "duration": 6, "velocity": 92}, {"time": 3531, "pitch": 61, "duration": 2, "velocity": 127}, {"time": 3531, "pitch": 64, "duration": 2, "velocity": 97}, {"time": 3543, "pitch": 47, "duration": 45, "velocity": 85}, {"time": 3543, "pitch": 59, "duration": 1, "velocity": 112}, {"time": 3543, "pitch": 63, "duration": 1, "velocity": 127}, {"time": 3543, "pitch": 66, "duration": 2, "velocity": 127}, {"time": 3549, "pitch": 54, "duration": 23, "velocity": 53}, {"time": 3555, "pitch": 59, "duration": 9, "velocity": 95}, {"time": 3561, "pitch": 71, "duration": 2, "velocity": 93}, {"time": 3561, "pitch": 75, "duration": 2, "velocity": 127}, {"time": 3561, "pitch": 78, "duration": 3, "velocity": 117}, {"time": 3567, "pitch": 71, "duration": 2, "velocity": 102}, {"time": 3567, "pitch": 75, "duration": 1, "velocity": 127}, {"time": 3567, "pitch": 78, "duration": 2, "velocity": 127}, {"time": 3573, "pitch": 54, "duration": 12, "velocity": 82}, {"time": 3579, "pitch": 63, "duration": 12, "velocity": 127}, {"time": 3579, "pitch": 66, "duration": 12, "velocity": 127}, {"time": 3585, "pitch": 59, "duration": 6, "velocity": 97}, {"time": 3590, "pitch": 37, "duration": 41, "velocity": 107}, {"time": 3602, "pitch": 49, "duration": 14, "velocity": 67}, {"time": 3609, "pitch": 68, "duration": 15, "velocity": 122}, {"time": 3609, "pitch": 64, "duration": 2, "velocity": 97}, {"time": 3620, "pitch": 49, "duration": 12, "velocity": 86}, {"time": 3627, "pitch": 68, "duration": 7, "velocity": 112}, {"time": 3633, "pitch": 64, "duration": 4, "velocity": 50}, {"time": 3638, "pitch": 68, "duration": 50, "velocity": 99}, {"time": 3638, "pitch": 61, "duration": 49, "velocity": 99}, {"time": 3638, "pitch": 37, "duration": 50, "velocity": 89}, {"time": 3638, "pitch": 64, "duration": 49, "velocity": 77}, {"time": 3639, "pitch": 49, "duration": 48, "velocity": 99}, {"time": 3682, "pitch": 45, "duration": 14, "velocity": 52}, {"time": 3684, "pitch": 57, "duration": 18, "velocity": 69}, {"time": 3684, "pitch": 52, "duration": 12, "velocity": 68}, {"time": 3685, "pitch": 61, "duration": 2, "velocity": 71}, {"time": 3687, "pitch": 64, "duration": 1, "velocity": 85}, {"time": 3710, "pitch": 47, "duration": 20, "velocity": 39}, {"time": 3712, "pitch": 54, "duration": 18, "velocity": 65}, {"time": 3713, "pitch": 59, "duration": 21, "velocity": 55}, {"time": 3714, "pitch": 63, "duration": 20, "velocity": 72}, {"time": 3716, "pitch": 66, "duration": 19, "velocity": 102}, {"time": 3765, "pitch": 37, "duration": 67, "velocity": 40}, {"time": 3766, "pitch": 49, "duration": 15, "velocity": 43}, {"time": 3767, "pitch": 61, "duration": 18, "velocity": 47}, {"time": 3769, "pitch": 64, "duration": 22, "velocity": 42}, {"time": 3770, "pitch": 68, "duration": 21, "velocity": 76}, {"time": 3782, "pitch": 49, "duration": 53, "velocity": 59}, {"time": 3789, "pitch": 61, "duration": 10, "velocity": 71}, {"time": 3798, "pitch": 68, "duration": 13, "velocity": 102}, {"time": 3798, "pitch": 64, "duration": 12, "velocity": 65}, {"time": 3806, "pitch": 61, "duration": 34, "velocity": 58}, {"time": 3816, "pitch": 64, "duration": 11, "velocity": 67}, {"time": 3826, "pitch": 68, "duration": 12, "velocity": 79}, {"time": 3840, "pitch": 37, "duration": 16, "velocity": 30}, {"time": 3843, "pitch": 49, "duration": 21, "velocity": 64}, {"time": 3846, "pitch": 61, "duration": 26, "velocity": 39}, {"time": 3848, "pitch": 64, "duration": 24, "velocity": 57}, {"time": 3849, "pitch": 68, "duration": 24, "velocity": 58}, {"time": 3852, "pitch": 73, "duration": 18, "velocity": 78}, {"time": 3860, "pitch": 37, "duration": 3, "velocity": 32}, {"time": 3882, "pitch": 73, "duration": 12, "velocity": 82}, {"time": 3882, "pitch": 68, "duration": 1, "velocity": 62}, {"time": 3893, "pitch": 68, "duration": 9, "velocity": 70}, {"time": 3903, "pitch": 37, "duration": 59, "velocity": 69}, {"time": 3903, "pitch": 68, "duration": 58, "velocity": 55}, {"time": 3903, "pitch": 73, "duration": 58, "velocity": 48}, {"time": 3904, "pitch": 49, "duration": 57, "velocity": 69}, {"time": 3904, "pitch": 64, "duration": 57, "velocity": 58}, {"time": 3905, "pitch": 61, "duration": 56, "velocity": 57}], "annotations": [{"time": 38, "annotation": {"number": 64, "value": 127}, "group": "control_change"}, {"time": 84, "annotation": {"number": 64, "value": 0}, "group": "control_change"}, {"time": 87, "annotation": {"number": 64, "value": 127}, "group": "control_change"}, {"time": 133, "annotation": {"number": 64, "value": 0}, "group": "control_change"}, {"time": 135, "annotation": {"number": 64, "value": 127}, "group": "control_change"}, {"time": 157, "annotation": {"number": 64, "value": 0}, "group": "control_change"}, {"time": 160, "annotation": {"number": 64, "value": 127}, "group": "control_change"}, {"time": 179, "annotation": {"number": 64, "value": 0}, "group": "control_change"}, {"time": 183, "annotation": {"number": 64, "value": 127}, "group": "control_change"}, {"time": 220, "annotation": {"number": 64, "value": 0}, "group": "control_change"}, {"time": 231, "annotation": {"number": 64, "value": 127}, "group": "control_change"}, {"time": 277, "annotation": {"number": 64, "value": 0}, "group": "control_change"}, {"time": 279, "annotation": {"number": 64, "value": 127}, "group": "control_change"}, {"time": 325, "annotation": {"number": 64, "value": 0}, "group": "control_change"}, {"time": 326, "annotation": {"number": 64, "value": 127}, "group": "control_change"}, {"time": 349, "annotation": {"number": 64, "value": 0}, "group": "control_change"}, {"time": 354, "annotation": {"number": 64, "value": 127}, "group": "control_change"}, {"time": 380, "annotation": {"number": 64, "value": 0}, "group": "control_change"}, {"time": 386, "annotation": {"number": 64, "value": 127}, "group": "control_change"}, {"time": 392, "annotation": {"number": 64, "value": 0}, "group": "control_change"}, {"time": 393, "annotation": {"number": 64, "value": 127}, "group": "control_change"}, {"time": 394, "annotation": {"number": 64, "value": 0}, "group": "control_change"}, {"time": 470, "annotation": {"number": 64, "value": 127}, "group": "control_change"}, {"time": 516, "annotation": {"number": 64, "value": 0}, "group": "control_change"}, {"time": 519, "annotation": {"number": 64, "value": 127}, "group": "control_change"}, {"time": 543, "annotation": {"number": 64, "value": 0}, "group": "control_change"}, {"time": 548, "annotation": {"number": 64, "value": 127}, "group": "control_change"}, {"time": 557, "annotation": {"number": 64, "value": 0}, "group": "control_change"}, {"time": 567, "annotation": {"number": 64, "value": 127}, "group": "control_change"}, {"time": 607, "annotation": {"number": 64, "value": 0}, "group": "control_change"}, {"time": 614, "annotation": {"number": 64, "value": 127}, "group": "control_change"}, {"time": 623, "annotation": {"number": 64, "value": 0}, "group": "control_change"}, {"time": 638, "annotation": {"number": 64, "value": 127}, "group": "control_change"}, {"time": 649, "annotation": {"number": 64, "value": 0}, "group": "control_change"}, {"time": 650, "annotation": {"number": 64, "value": 127}, "group": "control_change"}, {"time": 659, "annotation": {"number": 64, "value": 0}, "group": "control_change"}, {"time": 664, "annotation": {"number": 64, "value": 127}, "group": "control_change"}, {"time": 668, "annotation": {"number": 64, "value": 0}, "group": "control_change"}, {"time": 669, "annotation": {"number": 64, "value": 127}, "group": "control_change"}, {"time": 682, "annotation": {"number": 64, "value": 0}, "group": "control_change"}, {"time": 684, "annotation": {"number": 64, "value": 127}, "group": "control_change"}, {"time": 707, "annotation": {"number": 64, "value": 0}, "group": "control_change"}, {"time": 710, "annotation": {"number": 64, "value": 127}, "group": "control_change"}, {"time": 711, "annotation": {"number": 64, "value": 0}, "group": "control_change"}, {"time": 854, "annotation": {"number": 64, "value": 127}, "group": "control_change"}, {"time": 900, "annotation": {"number": 64, "value": 0}, "group": "control_change"}, {"time": 903, "annotation": {"number": 64, "value": 127}, "group": "control_change"}, {"time": 927, "annotation": {"number": 64, "value": 0}, "group": "control_change"}, {"time": 932, "annotation": {"number": 64, "value": 127}, "group": "control_change"}, {"time": 941, "annotation": {"number": 64, "value": 0}, "group": "control_change"}, {"time": 951, "annotation": {"number": 64, "value": 127}, "group": "control_change"}, {"time": 991, "annotation": {"number": 64, "value": 0}, "group": "control_change"}, {"time": 998, "annotation": {"number": 64, "value": 127}, "group": "control_change"}, {"time": 1007, "annotation": {"number": 64, "value": 0}, "group": "control_change"}, {"time": 1022, "annotation": {"number": 64, "value": 127}, "group": "control_change"}, {"time": 1033, "annotation": {"number": 64, "value": 0}, "group": "control_change"}, {"time": 1034, "annotation": {"number": 64, "value": 127}, "group": "control_change"}, {"time": 1043, "annotation": {"number": 64, "value": 0}, "group": "control_change"}, {"time": 1048, "annotation": {"number": 64, "value": 127}, "group": "control_change"}, {"time": 1052, "annotation": {"number": 64, "value": 0}, "group": "control_change"}, {"time": 1053, "annotation": {"number": 64, "value": 127}, "group": "control_change"}, {"time": 1066, "annotation": {"number": 64, "value": 0}, "group": "control_change"}, {"time": 1068, "annotation": {"number": 64, "value": 127}, "group": "control_change"}, {"time": 1091, "annotation": {"number": 64, "value": 0}, "group": "control_change"}, {"time": 1094, "annotation": {"number": 64, "value": 127}, "group": "control_change"}, {"time": 1095, "annotation": {"number": 64, "value": 0}, "group": "control_change"}, {"time": 1191, "annotation": {"number": 64, "value": 127}, "group": "control_change"}, {"time": 1237, "annotation": {"number": 64, "value": 0}, "group": "control_change"}, {"time": 1239, "annotation": {"number": 64, "value": 127}, "group": "control_change"}, {"time": 1307, "annotation": {"number": 64, "value": 0}, "group": "control_change"}, {"time": 1309, "annotation": {"number": 64, "value": 127}, "group": "control_change"}, {"time": 1332, "annotation": {"number": 64, "value": 0}, "group": "control_change"}, {"time": 1334, "annotation": {"number": 64, "value": 127}, "group": "control_change"}, {"time": 1380, "annotation": {"number": 64, "value": 0}, "group": "control_change"}, {"time": 1382, "annotation": {"number": 64, "value": 127}, "group": "control_change"}, {"time": 1427, "annotation": {"number": 64, "value": 0}, "group": "control_change"}, {"time": 1429, "annotation": {"number": 64, "value": 127}, "group": "control_change"}, {"time": 1476, "annotation": {"number": 64, "value": 0}, "group": "control_change"}, {"time": 1478, "annotation": {"number": 64, "value": 127}, "group": "control_change"}, {"time": 1524, "annotation": {"number": 64, "value": 0}, "group": "control_change"}, {"time": 1526, "annotation": {"number": 64, "value": 127}, "group": "control_change"}, {"time": 1572, "annotation": {"number": 64, "value": 0}, "group": "control_change"}, {"time": 1575, "annotation": {"number": 64, "value": 127}, "group": "control_change"}, {"time": 1621, "annotation": {"number": 64, "value": 0}, "group": "control_change"}, {"time": 1623, "annotation": {"number": 64, "value": 127}, "group": "control_change"}, {"time": 1691, "annotation": {"number": 64, "value": 0}, "group": "control_change"}, {"time": 1693, "annotation": {"number": 64, "value": 127}, "group": "control_change"}, {"time": 1716, "annotation": {"number": 64, "value": 0}, "group": "control_change"}, {"time": 1718, "annotation": {"number": 64, "value": 127}, "group": "control_change"}, {"time": 1764, "annotation": {"number": 64, "value": 0}, "group": "control_change"}, {"time": 1766, "annotation": {"number": 64, "value": 127}, "group": "control_change"}, {"time": 1811, "annotation": {"number": 64, "value": 0}, "group": "control_change"}, {"time": 1813, "annotation": {"number": 64, "value": 127}, "group": "control_change"}, {"time": 1860, "annotation": {"number": 64, "value": 0}, "group": "control_change"}, {"time": 1862, "annotation": {"number": 64, "value": 127}, "group": "control_change"}, {"time": 1908, "annotation": {"number": 64, "value": 0}, "group": "control_change"}, {"time": 1910, "annotation": {"number": 64, "value": 127}, "group": "control_change"}, {"time": 1956, "annotation": {"number": 64, "value": 0}, "group": "control_change"}, {"time": 1959, "annotation": {"number": 64, "value": 127}, "group": "control_change"}, {"time": 1961, "annotation": {"number": 64, "value": 0}, "group": "control_change"}, {"time": 1963, "annotation": {"number": 64, "value": 127}, "group": "control_change"}, {"time": 2056, "annotation": {"number": 64, "value": 0}, "group": "control_change"}, {"time": 2102, "annotation": {"number": 64, "value": 127}, "group": "control_change"}, {"time": 2148, "annotation": {"number": 64, "value": 0}, "group": "control_change"}, {"time": 2151, "annotation": {"number": 64, "value": 127}, "group": "control_change"}, {"time": 2175, "annotation": {"number": 64, "value": 0}, "group": "control_change"}, {"time": 2180, "annotation": {"number": 64, "value": 127}, "group": "control_change"}, {"time": 2189, "annotation": {"number": 64, "value": 0}, "group": "control_change"}, {"time": 2199, "annotation": {"number": 64, "value": 127}, "group": "control_change"}, {"time": 2239, "annotation": {"number": 64, "value": 0}, "group": "control_change"}, {"time": 2246, "annotation": {"number": 64, "value": 127}, "group": "control_change"}, {"time": 2255, "annotation": {"number": 64, "value": 0}, "group": "control_change"}, {"time": 2270, "annotation": {"number": 64, "value": 127}, "group": "control_change"}, {"time": 2281, "annotation": {"number": 64, "value": 0}, "group": "control_change"}, {"time": 2282, "annotation": {"number": 64, "value": 127}, "group": "control_change"}, {"time": 2291, "annotation": {"number": 64, "value": 0}, "group": "control_change"}, {"time": 2296, "annotation": {"number": 64, "value": 127}, "group": "control_change"}, {"time": 2300, "annotation": {"number": 64, "value": 0}, "group": "control_change"}, {"time": 2301, "annotation": {"number": 64, "value": 127}, "group": "control_change"}, {"time": 2314, "annotation": {"number": 64, "value": 0}, "group": "control_change"}, {"time": 2316, "annotation": {"number": 64, "value": 127}, "group": "control_change"}, {"time": 2339, "annotation": {"number": 64, "value": 0}, "group": "control_change"}, {"time": 2342, "annotation": {"number": 64, "value": 127}, "group": "control_change"}, {"time": 2343, "annotation": {"number": 64, "value": 0}, "group": "control_change"}, {"time": 2486, "annotation": {"number": 64, "value": 127}, "group": "control_change"}, {"time": 2532, "annotation": {"number": 64, "value": 0}, "group": "control_change"}, {"time": 2535, "annotation": {"number": 64, "value": 127}, "group": "control_change"}, {"time": 2559, "annotation": {"number": 64, "value": 0}, "group": "control_change"}, {"time": 2564, "annotation": {"number": 64, "value": 127}, "group": "control_change"}, {"time": 2573, "annotation": {"number": 64, "value": 0}, "group": "control_change"}, {"time": 2583, "annotation": {"number": 64, "value": 127}, "group": "control_change"}, {"time": 2623, "annotation": {"number": 64, "value": 0}, "group": "control_change"}, {"time": 2630, "annotation": {"number": 64, "value": 127}, "group": "control_change"}, {"time": 2639, "annotation": {"number": 64, "value": 0}, "group": "control_change"}, {"time": 2654, "annotation": {"number": 64, "value": 127}, "group": "control_change"}, {"time": 2665, "annotation": {"number": 64, "value": 0}, "group": "control_change"}, {"time": 2666, "annotation": {"number": 64, "value": 127}, "group": "control_change"}, {"time": 2675, "annotation": {"number": 64, "value": 0}, "group": "control_change"}, {"time": 2680, "annotation": {"number": 64, "value": 127}, "group": "control_change"}, {"time": 2684, "annotation": {"number": 64, "value": 0}, "group": "control_change"}, {"time": 2685, "annotation": {"number": 64, "value": 127}, "group": "control_change"}, {"time": 2698, "annotation": {"number": 64, "value": 0}, "group": "control_change"}, {"time": 2700, "annotation": {"number": 64, "value": 127}, "group": "control_change"}, {"time": 2723, "annotation": {"number": 64, "value": 0}, "group": "control_change"}, {"time": 2726, "annotation": {"number": 64, "value": 127}, "group": "control_change"}, {"time": 2727, "annotation": {"number": 64, "value": 0}, "group": "control_change"}, {"time": 2823, "annotation": {"number": 64, "value": 127}, "group": "control_change"}, {"time": 2869, "annotation": {"number": 64, "value": 0}, "group": "control_change"}, {"time": 2871, "annotation": {"number": 64, "value": 127}, "group": "control_change"}, {"time": 2939, "annotation": {"number": 64, "value": 0}, "group": "control_change"}, {"time": 2941, "annotation": {"number": 64, "value": 127}, "group": "control_change"}, {"time": 2964, "annotation": {"number": 64, "value": 0}, "group": "control_change"}, {"time": 2966, "annotation": {"number": 64, "value": 127}, "group": "control_change"}, {"time": 3012, "annotation": {"number": 64, "value": 0}, "group": "control_change"}, {"time": 3014, "annotation": {"number": 64, "value": 127}, "group": "control_change"}, {"time": 3059, "annotation": {"number": 64, "value": 0}, "group": "control_change"}, {"time": 3061, "annotation": {"number": 64, "value": 127}, "group": "control_change"}, {"time": 3108, "annotation": {"number": 64, "value": 0}, "group": "control_change"}, {"time": 3110, "annotation": {"number": 64, "value": 127}, "group": "control_change"}, {"time": 3156, "annotation": {"number": 64, "value": 0}, "group": "control_change"}, {"time": 3158, "annotation": {"number": 64, "value": 127}, "group": "control_change"}, {"time": 3204, "annotation": {"number": 64, "value": 0}, "group": "control_change"}, {"time": 3207, "annotation": {"number": 64, "value": 127}, "group": "control_change"}, {"time": 3253, "annotation": {"number": 64, "value": 0}, "group": "control_change"}, {"time": 3255, "annotation": {"number": 64, "value": 127}, "group": "control_change"}, {"time": 3323, "annotation": {"number": 64, "value": 0}, "group": "control_change"}, {"time": 3325, "annotation": {"number": 64, "value": 127}, "group": "control_change"}, {"time": 3348, "annotation": {"number": 64, "value": 0}, "group": "control_change"}, {"time": 3350, "annotation": {"number": 64, "value": 127}, "group": "control_change"}, {"time": 3396, "annotation": {"number": 64, "value": 0}, "group": "control_change"}, {"time": 3398, "annotation": {"number": 64, "value": 127}, "group": "control_change"}, {"time": 3443, "annotation": {"number": 64, "value": 0}, "group": "control_change"}, {"time": 3445, "annotation": {"number": 64, "value": 127}, "group": "control_change"}, {"time": 3492, "annotation": {"number": 64, "value": 0}, "group": "control_change"}, {"time": 3494, "annotation": {"number": 64, "value": 127}, "group": "control_change"}, {"time": 3540, "annotation": {"number": 64, "value": 0}, "group": "control_change"}, {"time": 3542, "annotation": {"number": 64, "value": 127}, "group": "control_change"}, {"time": 3588, "annotation": {"number": 64, "value": 0}, "group": "control_change"}, {"time": 3591, "annotation": {"number": 64, "value": 127}, "group": "control_change"}, {"time": 3592, "annotation": {"number": 64, "value": 127}, "group": "control_change"}, {"time": 3637, "annotation": {"number": 64, "value": 0}, "group": "control_change"}, {"time": 3688, "annotation": {"number": 64, "value": 127}, "group": "control_change"}, {"time": 3713, "annotation": {"number": 64, "value": 0}, "group": "control_change"}, {"time": 3717, "annotation": {"number": 64, "value": 127}, "group": "control_change"}, {"time": 3769, "annotation": {"number": 64, "value": 0}, "group": "control_change"}, {"time": 3773, "annotation": {"number": 64, "value": 127}, "group": "control_change"}, {"time": 3850, "annotation": {"number": 64, "value": 0}, "group": "control_change"}, {"time": 3853, "annotation": {"number": 64, "value": 127}, "group": "control_change"}, {"time": 3907, "annotation": {"number": 64, "value": 0}, "group": "control_change"}, {"time": 3918, "annotation": {"number": 64, "value": 127}, "group": "control_change"}, {"time": 4006, "annotation": {"number": 64, "value": 0}, "group": "control_change"}, {"time": 4007, "annotation": {"number": 64, "value": 127}, "group": "control_change"}, {"time": 4012, "annotation": {"number": 64, "value": 0}, "group": "control_change"}, {"time": 4012, "annotation": {"number": 64, "value": 127}, "group": "control_change"}, {"time": 4015, "annotation": {"number": 64, "value": 0}, "group": "control_change"}]}]}