{"metadata": {"schema_version": "0.2", "title": "None", "source_filename": "167.mid", "source_format": "midi"}, "resolution": 12, "tempos": [{"time": 0, "qpm": 80.0}, {"time": 1008, "qpm": 80.10007168956416}, {"time": 1116, "qpm": 80.49995840835483}, {"time": 1368, "qpm": 80.10007168956416}], "time_signatures": [{"time": 0, "numerator": 1, "denominator": 4}], "tracks": [{"program": 4, "is_drum": false, "name": "MELODY", "notes": [{"time": 386, "pitch": 65, "duration": 5, "velocity": 97}, {"time": 392, "pitch": 67, "duration": 5, "velocity": 95}, {"time": 398, "pitch": 65, "duration": 6, "velocity": 89}, {"time": 404, "pitch": 74, "duration": 4, "velocity": 99}, {"time": 410, "pitch": 74, "duration": 6, "velocity": 97}, {"time": 434, "pitch": 67, "duration": 5, "velocity": 99}, {"time": 440, "pitch": 70, "duration": 4, "velocity": 100}, {"time": 446, "pitch": 72, "duration": 3, "velocity": 102}, {"time": 449, "pitch": 70, "duration": 3, "velocity": 102}, {"time": 452, "pitch": 67, "duration": 6, "velocity": 97}, {"time": 458, "pitch": 65, "duration": 19, "velocity": 89}, {"time": 482, "pitch": 65, "duration": 6, "velocity": 96}, {"time": 488, "pitch": 67, "duration": 5, "velocity": 95}, {"time": 494, "pitch": 65, "duration": 3, "velocity": 96}, {"time": 500, "pitch": 79, "duration": 5, "velocity": 117}, {"time": 506, "pitch": 77, "duration": 3, "velocity": 117}, {"time": 512, "pitch": 74, "duration": 3, "velocity": 122}, {"time": 518, "pitch": 72, "duration": 3, "velocity": 117}, {"time": 524, "pitch": 70, "duration": 2, "velocity": 107}, {"time": 527, "pitch": 72, "duration": 20, "velocity": 99}, {"time": 578, "pitch": 74, "duration": 4, "velocity": 100}, {"time": 584, "pitch": 74, "duration": 4, "velocity": 100}, {"time": 590, "pitch": 72, "duration": 4, "velocity": 107}, {"time": 596, "pitch": 74, "duration": 5, "velocity": 117}, {"time": 602, "pitch": 77, "duration": 14, "velocity": 100}, {"time": 626, "pitch": 69, "duration": 5, "velocity": 102}, {"time": 632, "pitch": 70, "duration": 4, "velocity": 97}, {"time": 638, "pitch": 72, "duration": 5, "velocity": 107}, {"time": 644, "pitch": 69, "duration": 2, "velocity": 89}, {"time": 647, "pitch": 70, "duration": 4, "velocity": 112}, {"time": 674, "pitch": 67, "duration": 6, "velocity": 107}, {"time": 680, "pitch": 65, "duration": 5, "velocity": 83}, {"time": 686, "pitch": 67, "duration": 4, "velocity": 95}, {"time": 692, "pitch": 74, "duration": 3, "velocity": 102}, {"time": 698, "pitch": 67, "duration": 4, "velocity": 100}, {"time": 704, "pitch": 65, "duration": 2, "velocity": 107}, {"time": 710, "pitch": 67, "duration": 2, "velocity": 95}, {"time": 713, "pitch": 70, "duration": 4, "velocity": 107}, {"time": 722, "pitch": 72, "duration": 4, "velocity": 99}, {"time": 728, "pitch": 70, "duration": 2, "velocity": 100}, {"time": 734, "pitch": 72, "duration": 3, "velocity": 97}, {"time": 737, "pitch": 74, "duration": 2, "velocity": 102}, {"time": 741, "pitch": 77, "duration": 4, "velocity": 127}, {"time": 770, "pitch": 65, "duration": 5, "velocity": 97}, {"time": 776, "pitch": 67, "duration": 5, "velocity": 95}, {"time": 782, "pitch": 65, "duration": 6, "velocity": 89}, {"time": 788, "pitch": 74, "duration": 4, "velocity": 99}, {"time": 794, "pitch": 74, "duration": 6, "velocity": 97}, {"time": 818, "pitch": 67, "duration": 5, "velocity": 99}, {"time": 824, "pitch": 70, "duration": 4, "velocity": 100}, {"time": 830, "pitch": 72, "duration": 3, "velocity": 102}, {"time": 833, "pitch": 70, "duration": 3, "velocity": 102}, {"time": 836, "pitch": 67, "duration": 6, "velocity": 97}, {"time": 842, "pitch": 65, "duration": 19, "velocity": 89}, {"time": 866, "pitch": 65, "duration": 6, "velocity": 96}, {"time": 872, "pitch": 67, "duration": 5, "velocity": 95}, {"time": 878, "pitch": 65, "duration": 3, "velocity": 96}, {"time": 884, "pitch": 79, "duration": 5, "velocity": 117}, {"time": 890, "pitch": 77, "duration": 3, "velocity": 117}, {"time": 896, "pitch": 74, "duration": 3, "velocity": 122}, {"time": 902, "pitch": 72, "duration": 3, "velocity": 117}, {"time": 908, "pitch": 70, "duration": 2, "velocity": 107}, {"time": 911, "pitch": 72, "duration": 20, "velocity": 99}, {"time": 962, "pitch": 74, "duration": 4, "velocity": 100}, {"time": 968, "pitch": 74, "duration": 4, "velocity": 100}, {"time": 974, "pitch": 72, "duration": 4, "velocity": 107}, {"time": 980, "pitch": 74, "duration": 5, "velocity": 117}, {"time": 986, "pitch": 77, "duration": 14, "velocity": 100}, {"time": 1010, "pitch": 69, "duration": 5, "velocity": 102}, {"time": 1016, "pitch": 70, "duration": 4, "velocity": 97}, {"time": 1022, "pitch": 72, "duration": 5, "velocity": 107}, {"time": 1028, "pitch": 69, "duration": 2, "velocity": 89}, {"time": 1031, "pitch": 70, "duration": 4, "velocity": 112}, {"time": 1058, "pitch": 67, "duration": 6, "velocity": 107}, {"time": 1064, "pitch": 65, "duration": 5, "velocity": 83}, {"time": 1070, "pitch": 67, "duration": 4, "velocity": 95}, {"time": 1076, "pitch": 74, "duration": 3, "velocity": 102}, {"time": 1082, "pitch": 67, "duration": 4, "velocity": 100}, {"time": 1088, "pitch": 65, "duration": 2, "velocity": 107}, {"time": 1094, "pitch": 67, "duration": 2, "velocity": 95}, {"time": 1097, "pitch": 70, "duration": 4, "velocity": 107}, {"time": 1106, "pitch": 77, "duration": 3, "velocity": 122}, {"time": 1109, "pitch": 79, "duration": 6, "velocity": 97}, {"time": 1118, "pitch": 77, "duration": 2, "velocity": 122}, {"time": 1124, "pitch": 74, "duration": 3, "velocity": 127}, {"time": 1130, "pitch": 74, "duration": 2, "velocity": 127}, {"time": 1133, "pitch": 72, "duration": 28, "velocity": 112}, {"time": 1178, "pitch": 65, "duration": 5, "velocity": 102}, {"time": 1184, "pitch": 67, "duration": 4, "velocity": 99}, {"time": 1190, "pitch": 70, "duration": 4, "velocity": 127}, {"time": 1196, "pitch": 72, "duration": 5, "velocity": 102}, {"time": 1202, "pitch": 74, "duration": 3, "velocity": 127}, {"time": 1208, "pitch": 77, "duration": 4, "velocity": 117}, {"time": 1214, "pitch": 79, "duration": 2, "velocity": 122}, {"time": 1220, "pitch": 77, "duration": 2, "velocity": 127}, {"time": 1226, "pitch": 70, "duration": 2, "velocity": 122}, {"time": 1232, "pitch": 69, "duration": 2, "velocity": 102}, {"time": 1238, "pitch": 70, "duration": 2, "velocity": 127}, {"time": 1244, "pitch": 72, "duration": 2, "velocity": 127}, {"time": 1247, "pitch": 74, "duration": 1, "velocity": 112}, {"time": 1250, "pitch": 74, "duration": 3, "velocity": 127}, {"time": 1274, "pitch": 79, "duration": 4, "velocity": 127}, {"time": 1280, "pitch": 77, "duration": 2, "velocity": 127}, {"time": 1286, "pitch": 77, "duration": 2, "velocity": 127}, {"time": 1292, "pitch": 77, "duration": 2, "velocity": 122}, {"time": 1295, "pitch": 79, "duration": 2, "velocity": 112}, {"time": 1298, "pitch": 77, "duration": 3, "velocity": 127}, {"time": 1304, "pitch": 74, "duration": 2, "velocity": 112}, {"time": 1307, "pitch": 77, "duration": 1, "velocity": 112}, {"time": 1310, "pitch": 77, "duration": 2, "velocity": 127}, {"time": 1319, "pitch": 70, "duration": 1, "velocity": 122}, {"time": 1322, "pitch": 72, "duration": 2, "velocity": 107}, {"time": 1328, "pitch": 70, "duration": 2, "velocity": 122}, {"time": 1334, "pitch": 72, "duration": 3, "velocity": 102}, {"time": 1340, "pitch": 74, "duration": 4, "velocity": 117}, {"time": 1346, "pitch": 72, "duration": 4, "velocity": 127}, {"time": 1370, "pitch": 65, "duration": 4, "velocity": 102}, {"time": 1376, "pitch": 67, "duration": 3, "velocity": 96}, {"time": 1382, "pitch": 70, "duration": 2, "velocity": 127}, {"time": 1388, "pitch": 72, "duration": 4, "velocity": 127}, {"time": 1394, "pitch": 74, "duration": 3, "velocity": 127}, {"time": 1400, "pitch": 77, "duration": 4, "velocity": 127}, {"time": 1406, "pitch": 79, "duration": 4, "velocity": 127}, {"time": 1412, "pitch": 77, "duration": 3, "velocity": 127}, {"time": 1418, "pitch": 70, "duration": 3, "velocity": 117}, {"time": 1424, "pitch": 69, "duration": 4, "velocity": 107}, {"time": 1430, "pitch": 70, "duration": 3, "velocity": 117}, {"time": 1436, "pitch": 74, "duration": 2, "velocity": 122}, {"time": 1442, "pitch": 74, "duration": 6, "velocity": 127}, {"time": 1466, "pitch": 79, "duration": 1, "velocity": 127}, {"time": 1472, "pitch": 77, "duration": 2, "velocity": 100}, {"time": 1478, "pitch": 79, "duration": 2, "velocity": 127}, {"time": 1490, "pitch": 77, "duration": 3, "velocity": 122}, {"time": 1496, "pitch": 77, "duration": 4, "velocity": 122}, {"time": 1502, "pitch": 77, "duration": 4, "velocity": 127}, {"time": 1514, "pitch": 72, "duration": 4, "velocity": 117}, {"time": 1520, "pitch": 70, "duration": 5, "velocity": 127}, {"time": 1526, "pitch": 67, "duration": 5, "velocity": 102}, {"time": 1532, "pitch": 72, "duration": 5, "velocity": 122}, {"time": 1538, "pitch": 70, "duration": 20, "velocity": 127}, {"time": 1946, "pitch": 65, "duration": 5, "velocity": 97}, {"time": 1952, "pitch": 67, "duration": 5, "velocity": 95}, {"time": 1958, "pitch": 65, "duration": 6, "velocity": 89}, {"time": 1964, "pitch": 74, "duration": 4, "velocity": 99}, {"time": 1970, "pitch": 74, "duration": 6, "velocity": 97}, {"time": 1994, "pitch": 67, "duration": 5, "velocity": 99}, {"time": 2000, "pitch": 70, "duration": 4, "velocity": 100}, {"time": 2006, "pitch": 72, "duration": 3, "velocity": 102}, {"time": 2009, "pitch": 70, "duration": 3, "velocity": 102}, {"time": 2012, "pitch": 67, "duration": 6, "velocity": 97}, {"time": 2018, "pitch": 65, "duration": 19, "velocity": 89}, {"time": 2042, "pitch": 65, "duration": 6, "velocity": 96}, {"time": 2048, "pitch": 67, "duration": 5, "velocity": 95}, {"time": 2054, "pitch": 65, "duration": 3, "velocity": 96}, {"time": 2060, "pitch": 79, "duration": 5, "velocity": 117}, {"time": 2066, "pitch": 77, "duration": 3, "velocity": 117}, {"time": 2072, "pitch": 74, "duration": 3, "velocity": 122}, {"time": 2078, "pitch": 72, "duration": 3, "velocity": 117}, {"time": 2084, "pitch": 70, "duration": 2, "velocity": 107}, {"time": 2087, "pitch": 72, "duration": 20, "velocity": 99}, {"time": 2138, "pitch": 74, "duration": 4, "velocity": 100}, {"time": 2144, "pitch": 74, "duration": 4, "velocity": 100}, {"time": 2150, "pitch": 72, "duration": 4, "velocity": 107}, {"time": 2156, "pitch": 74, "duration": 5, "velocity": 117}, {"time": 2162, "pitch": 77, "duration": 14, "velocity": 100}, {"time": 2186, "pitch": 69, "duration": 5, "velocity": 102}, {"time": 2192, "pitch": 70, "duration": 4, "velocity": 97}, {"time": 2198, "pitch": 72, "duration": 5, "velocity": 107}, {"time": 2204, "pitch": 69, "duration": 2, "velocity": 89}, {"time": 2207, "pitch": 70, "duration": 4, "velocity": 112}, {"time": 2234, "pitch": 67, "duration": 6, "velocity": 107}, {"time": 2240, "pitch": 65, "duration": 5, "velocity": 83}, {"time": 2246, "pitch": 67, "duration": 4, "velocity": 95}, {"time": 2252, "pitch": 74, "duration": 3, "velocity": 102}, {"time": 2258, "pitch": 67, "duration": 4, "velocity": 100}, {"time": 2264, "pitch": 65, "duration": 2, "velocity": 107}, {"time": 2270, "pitch": 67, "duration": 2, "velocity": 95}, {"time": 2273, "pitch": 70, "duration": 4, "velocity": 107}, {"time": 2282, "pitch": 72, "duration": 4, "velocity": 99}, {"time": 2288, "pitch": 70, "duration": 2, "velocity": 100}, {"time": 2294, "pitch": 72, "duration": 3, "velocity": 97}, {"time": 2297, "pitch": 74, "duration": 2, "velocity": 102}, {"time": 2301, "pitch": 77, "duration": 4, "velocity": 127}, {"time": 2330, "pitch": 65, "duration": 5, "velocity": 97}, {"time": 2336, "pitch": 67, "duration": 5, "velocity": 95}, {"time": 2342, "pitch": 65, "duration": 6, "velocity": 89}, {"time": 2348, "pitch": 74, "duration": 4, "velocity": 99}, {"time": 2354, "pitch": 74, "duration": 6, "velocity": 97}, {"time": 2378, "pitch": 67, "duration": 5, "velocity": 99}, {"time": 2384, "pitch": 70, "duration": 4, "velocity": 100}, {"time": 2390, "pitch": 72, "duration": 3, "velocity": 102}, {"time": 2393, "pitch": 70, "duration": 3, "velocity": 102}, {"time": 2396, "pitch": 67, "duration": 6, "velocity": 97}, {"time": 2402, "pitch": 65, "duration": 19, "velocity": 89}, {"time": 2426, "pitch": 65, "duration": 6, "velocity": 96}, {"time": 2432, "pitch": 67, "duration": 5, "velocity": 95}, {"time": 2438, "pitch": 65, "duration": 3, "velocity": 96}, {"time": 2444, "pitch": 79, "duration": 5, "velocity": 117}, {"time": 2450, "pitch": 77, "duration": 3, "velocity": 117}, {"time": 2456, "pitch": 74, "duration": 3, "velocity": 122}, {"time": 2462, "pitch": 72, "duration": 3, "velocity": 117}, {"time": 2468, "pitch": 70, "duration": 2, "velocity": 107}, {"time": 2471, "pitch": 72, "duration": 20, "velocity": 99}, {"time": 2522, "pitch": 74, "duration": 4, "velocity": 100}, {"time": 2528, "pitch": 74, "duration": 4, "velocity": 100}, {"time": 2534, "pitch": 72, "duration": 4, "velocity": 107}, {"time": 2540, "pitch": 74, "duration": 5, "velocity": 117}, {"time": 2546, "pitch": 77, "duration": 14, "velocity": 100}, {"time": 2570, "pitch": 69, "duration": 5, "velocity": 102}, {"time": 2576, "pitch": 70, "duration": 4, "velocity": 97}, {"time": 2582, "pitch": 72, "duration": 5, "velocity": 107}, {"time": 2588, "pitch": 69, "duration": 2, "velocity": 89}, {"time": 2591, "pitch": 70, "duration": 4, "velocity": 112}, {"time": 2618, "pitch": 67, "duration": 6, "velocity": 107}, {"time": 2624, "pitch": 65, "duration": 5, "velocity": 83}, {"time": 2630, "pitch": 67, "duration": 4, "velocity": 95}, {"time": 2636, "pitch": 74, "duration": 3, "velocity": 102}, {"time": 2642, "pitch": 67, "duration": 4, "velocity": 100}, {"time": 2648, "pitch": 65, "duration": 2, "velocity": 107}, {"time": 2654, "pitch": 67, "duration": 2, "velocity": 95}, {"time": 2657, "pitch": 70, "duration": 4, "velocity": 107}, {"time": 2666, "pitch": 77, "duration": 3, "velocity": 122}, {"time": 2669, "pitch": 79, "duration": 6, "velocity": 97}, {"time": 2678, "pitch": 77, "duration": 2, "velocity": 122}, {"time": 2684, "pitch": 74, "duration": 3, "velocity": 127}, {"time": 2690, "pitch": 74, "duration": 2, "velocity": 127}, {"time": 2693, "pitch": 72, "duration": 28, "velocity": 112}, {"time": 2738, "pitch": 65, "duration": 5, "velocity": 102}, {"time": 2744, "pitch": 67, "duration": 4, "velocity": 99}, {"time": 2750, "pitch": 70, "duration": 4, "velocity": 127}, {"time": 2756, "pitch": 72, "duration": 5, "velocity": 102}, {"time": 2762, "pitch": 74, "duration": 3, "velocity": 127}, {"time": 2768, "pitch": 77, "duration": 4, "velocity": 117}, {"time": 2774, "pitch": 79, "duration": 2, "velocity": 122}, {"time": 2780, "pitch": 77, "duration": 2, "velocity": 127}, {"time": 2786, "pitch": 70, "duration": 2, "velocity": 122}, {"time": 2792, "pitch": 69, "duration": 2, "velocity": 102}, {"time": 2798, "pitch": 70, "duration": 2, "velocity": 127}, {"time": 2804, "pitch": 72, "duration": 2, "velocity": 127}, {"time": 2807, "pitch": 74, "duration": 1, "velocity": 112}, {"time": 2810, "pitch": 74, "duration": 3, "velocity": 127}, {"time": 2834, "pitch": 79, "duration": 4, "velocity": 127}, {"time": 2840, "pitch": 77, "duration": 2, "velocity": 127}, {"time": 2846, "pitch": 77, "duration": 2, "velocity": 127}, {"time": 2852, "pitch": 77, "duration": 2, "velocity": 122}, {"time": 2855, "pitch": 79, "duration": 2, "velocity": 112}, {"time": 2858, "pitch": 77, "duration": 3, "velocity": 127}, {"time": 2864, "pitch": 74, "duration": 2, "velocity": 112}, {"time": 2867, "pitch": 77, "duration": 1, "velocity": 112}, {"time": 2870, "pitch": 77, "duration": 2, "velocity": 127}, {"time": 2879, "pitch": 70, "duration": 1, "velocity": 122}, {"time": 2882, "pitch": 72, "duration": 2, "velocity": 107}, {"time": 2888, "pitch": 70, "duration": 2, "velocity": 122}, {"time": 2894, "pitch": 72, "duration": 3, "velocity": 102}, {"time": 2900, "pitch": 74, "duration": 4, "velocity": 117}, {"time": 2906, "pitch": 72, "duration": 4, "velocity": 127}, {"time": 2930, "pitch": 65, "duration": 4, "velocity": 102}, {"time": 2936, "pitch": 67, "duration": 3, "velocity": 96}, {"time": 2942, "pitch": 70, "duration": 2, "velocity": 127}, {"time": 2948, "pitch": 72, "duration": 4, "velocity": 127}, {"time": 2954, "pitch": 74, "duration": 3, "velocity": 127}, {"time": 2960, "pitch": 77, "duration": 4, "velocity": 127}, {"time": 2966, "pitch": 79, "duration": 4, "velocity": 127}, {"time": 2972, "pitch": 77, "duration": 3, "velocity": 127}, {"time": 2978, "pitch": 70, "duration": 3, "velocity": 117}, {"time": 2984, "pitch": 69, "duration": 4, "velocity": 107}, {"time": 2990, "pitch": 70, "duration": 3, "velocity": 117}, {"time": 2996, "pitch": 74, "duration": 2, "velocity": 122}, {"time": 3002, "pitch": 74, "duration": 6, "velocity": 127}, {"time": 3026, "pitch": 79, "duration": 1, "velocity": 127}, {"time": 3032, "pitch": 77, "duration": 2, "velocity": 100}, {"time": 3038, "pitch": 79, "duration": 2, "velocity": 127}, {"time": 3050, "pitch": 77, "duration": 3, "velocity": 122}, {"time": 3056, "pitch": 77, "duration": 4, "velocity": 122}, {"time": 3062, "pitch": 77, "duration": 4, "velocity": 127}, {"time": 3074, "pitch": 72, "duration": 4, "velocity": 117}, {"time": 3080, "pitch": 70, "duration": 5, "velocity": 127}, {"time": 3086, "pitch": 67, "duration": 5, "velocity": 102}, {"time": 3092, "pitch": 72, "duration": 5, "velocity": 122}, {"time": 3098, "pitch": 70, "duration": 20, "velocity": 127}, {"time": 3122, "pitch": 65, "duration": 5, "velocity": 102}, {"time": 3128, "pitch": 67, "duration": 4, "velocity": 99}, {"time": 3134, "pitch": 70, "duration": 4, "velocity": 127}, {"time": 3140, "pitch": 72, "duration": 5, "velocity": 102}, {"time": 3146, "pitch": 74, "duration": 3, "velocity": 127}, {"time": 3152, "pitch": 77, "duration": 4, "velocity": 117}, {"time": 3158, "pitch": 79, "duration": 2, "velocity": 122}, {"time": 3164, "pitch": 77, "duration": 2, "velocity": 127}, {"time": 3170, "pitch": 70, "duration": 2, "velocity": 122}, {"time": 3176, "pitch": 69, "duration": 2, "velocity": 102}, {"time": 3182, "pitch": 70, "duration": 2, "velocity": 127}, {"time": 3188, "pitch": 72, "duration": 2, "velocity": 127}, {"time": 3191, "pitch": 74, "duration": 1, "velocity": 112}, {"time": 3194, "pitch": 74, "duration": 3, "velocity": 127}, {"time": 3218, "pitch": 79, "duration": 4, "velocity": 127}, {"time": 3224, "pitch": 77, "duration": 2, "velocity": 127}, {"time": 3230, "pitch": 77, "duration": 2, "velocity": 127}, {"time": 3236, "pitch": 77, "duration": 2, "velocity": 122}, {"time": 3239, "pitch": 79, "duration": 2, "velocity": 112}, {"time": 3242, "pitch": 77, "duration": 3, "velocity": 127}, {"time": 3248, "pitch": 74, "duration": 2, "velocity": 112}, {"time": 3251, "pitch": 77, "duration": 1, "velocity": 112}, {"time": 3254, "pitch": 77, "duration": 2, "velocity": 127}, {"time": 3263, "pitch": 70, "duration": 1, "velocity": 122}, {"time": 3266, "pitch": 72, "duration": 2, "velocity": 107}, {"time": 3272, "pitch": 70, "duration": 2, "velocity": 122}, {"time": 3278, "pitch": 72, "duration": 3, "velocity": 102}, {"time": 3284, "pitch": 74, "duration": 4, "velocity": 117}, {"time": 3290, "pitch": 72, "duration": 4, "velocity": 127}, {"time": 3314, "pitch": 65, "duration": 4, "velocity": 102}, {"time": 3320, "pitch": 67, "duration": 3, "velocity": 96}, {"time": 3326, "pitch": 70, "duration": 2, "velocity": 127}, {"time": 3332, "pitch": 72, "duration": 4, "velocity": 127}, {"time": 3338, "pitch": 74, "duration": 3, "velocity": 127}, {"time": 3344, "pitch": 77, "duration": 4, "velocity": 127}, {"time": 3350, "pitch": 79, "duration": 4, "velocity": 127}, {"time": 3356, "pitch": 77, "duration": 3, "velocity": 127}, {"time": 3362, "pitch": 70, "duration": 3, "velocity": 117}, {"time": 3368, "pitch": 69, "duration": 4, "velocity": 107}, {"time": 3374, "pitch": 70, "duration": 3, "velocity": 117}, {"time": 3380, "pitch": 74, "duration": 2, "velocity": 122}, {"time": 3386, "pitch": 74, "duration": 6, "velocity": 127}, {"time": 3410, "pitch": 79, "duration": 1, "velocity": 127}, {"time": 3416, "pitch": 77, "duration": 2, "velocity": 100}, {"time": 3422, "pitch": 79, "duration": 2, "velocity": 127}, {"time": 3434, "pitch": 77, "duration": 3, "velocity": 122}, {"time": 3440, "pitch": 77, "duration": 4, "velocity": 122}, {"time": 3446, "pitch": 77, "duration": 4, "velocity": 127}, {"time": 3458, "pitch": 72, "duration": 4, "velocity": 117}, {"time": 3464, "pitch": 70, "duration": 5, "velocity": 127}, {"time": 3470, "pitch": 67, "duration": 5, "velocity": 102}, {"time": 3476, "pitch": 72, "duration": 5, "velocity": 122}, {"time": 3482, "pitch": 70, "duration": 20, "velocity": 127}, {"time": 3506, "pitch": 79, "duration": 1, "velocity": 127}, {"time": 3512, "pitch": 77, "duration": 2, "velocity": 100}, {"time": 3518, "pitch": 79, "duration": 2, "velocity": 127}, {"time": 3530, "pitch": 77, "duration": 3, "velocity": 122}, {"time": 3536, "pitch": 77, "duration": 4, "velocity": 122}, {"time": 3542, "pitch": 77, "duration": 4, "velocity": 127}, {"time": 3554, "pitch": 72, "duration": 4, "velocity": 117}, {"time": 3560, "pitch": 70, "duration": 5, "velocity": 127}, {"time": 3566, "pitch": 67, "duration": 5, "velocity": 102}, {"time": 3572, "pitch": 72, "duration": 5, "velocity": 122}, {"time": 3578, "pitch": 70, "duration": 20, "velocity": 127}]}, {"program": 0, "is_drum": false, "name": "PIANO", "notes": [{"time": 2, "pitch": 46, "duration": 7, "velocity": 127}, {"time": 2, "pitch": 53, "duration": 3, "velocity": 75}, {"time": 2, "pitch": 58, "duration": 4, "velocity": 78}, {"time": 2, "pitch": 62, "duration": 3, "velocity": 65}, {"time": 8, "pitch": 53, "duration": 5, "velocity": 71}, {"time": 8, "pitch": 58, "duration": 5, "velocity": 72}, {"time": 8, "pitch": 62, "duration": 6, "velocity": 75}, {"time": 14, "pitch": 46, "duration": 2, "velocity": 100}, {"time": 20, "pitch": 53, "duration": 1, "velocity": 52}, {"time": 20, "pitch": 58, "duration": 2, "velocity": 59}, {"time": 20, "pitch": 62, "duration": 2, "velocity": 62}, {"time": 23, "pitch": 46, "duration": 10, "velocity": 82}, {"time": 29, "pitch": 53, "duration": 3, "velocity": 42}, {"time": 29, "pitch": 58, "duration": 4, "velocity": 43}, {"time": 29, "pitch": 62, "duration": 4, "velocity": 64}, {"time": 35, "pitch": 46, "duration": 2, "velocity": 92}, {"time": 38, "pitch": 53, "duration": 2, "velocity": 67}, {"time": 38, "pitch": 58, "duration": 2, "velocity": 88}, {"time": 38, "pitch": 62, "duration": 2, "velocity": 78}, {"time": 41, "pitch": 46, "duration": 2, "velocity": 89}, {"time": 44, "pitch": 58, "duration": 1, "velocity": 102}, {"time": 44, "pitch": 62, "duration": 4, "velocity": 85}, {"time": 47, "pitch": 58, "duration": 1, "velocity": 70}, {"time": 50, "pitch": 43, "duration": 4, "velocity": 93}, {"time": 50, "pitch": 58, "duration": 3, "velocity": 97}, {"time": 50, "pitch": 62, "duration": 3, "velocity": 83}, {"time": 56, "pitch": 58, "duration": 4, "velocity": 107}, {"time": 56, "pitch": 62, "duration": 4, "velocity": 89}, {"time": 62, "pitch": 58, "duration": 3, "velocity": 100}, {"time": 62, "pitch": 62, "duration": 3, "velocity": 93}, {"time": 68, "pitch": 58, "duration": 2, "velocity": 57}, {"time": 68, "pitch": 62, "duration": 2, "velocity": 58}, {"time": 71, "pitch": 43, "duration": 3, "velocity": 72}, {"time": 77, "pitch": 43, "duration": 2, "velocity": 88}, {"time": 80, "pitch": 55, "duration": 1, "velocity": 35}, {"time": 80, "pitch": 58, "duration": 1, "velocity": 26}, {"time": 80, "pitch": 62, "duration": 2, "velocity": 56}, {"time": 83, "pitch": 43, "duration": 2, "velocity": 90}, {"time": 86, "pitch": 58, "duration": 2, "velocity": 117}, {"time": 86, "pitch": 62, "duration": 2, "velocity": 97}, {"time": 89, "pitch": 43, "duration": 1, "velocity": 96}, {"time": 92, "pitch": 58, "duration": 2, "velocity": 112}, {"time": 95, "pitch": 55, "duration": 1, "velocity": 62}, {"time": 98, "pitch": 39, "duration": 40, "velocity": 69}, {"time": 98, "pitch": 51, "duration": 4, "velocity": 71}, {"time": 98, "pitch": 55, "duration": 3, "velocity": 73}, {"time": 98, "pitch": 58, "duration": 4, "velocity": 100}, {"time": 98, "pitch": 63, "duration": 4, "velocity": 100}, {"time": 104, "pitch": 51, "duration": 3, "velocity": 29}, {"time": 104, "pitch": 55, "duration": 3, "velocity": 75}, {"time": 104, "pitch": 58, "duration": 4, "velocity": 99}, {"time": 104, "pitch": 63, "duration": 4, "velocity": 100}, {"time": 110, "pitch": 58, "duration": 3, "velocity": 100}, {"time": 110, "pitch": 63, "duration": 6, "velocity": 100}, {"time": 116, "pitch": 51, "duration": 10, "velocity": 51}, {"time": 119, "pitch": 58, "duration": 4, "velocity": 95}, {"time": 119, "pitch": 63, "duration": 4, "velocity": 92}, {"time": 125, "pitch": 58, "duration": 6, "velocity": 93}, {"time": 125, "pitch": 63, "duration": 6, "velocity": 92}, {"time": 131, "pitch": 51, "duration": 3, "velocity": 56}, {"time": 134, "pitch": 58, "duration": 4, "velocity": 112}, {"time": 134, "pitch": 63, "duration": 6, "velocity": 107}, {"time": 137, "pitch": 51, "duration": 1, "velocity": 82}, {"time": 140, "pitch": 55, "duration": 2, "velocity": 96}, {"time": 143, "pitch": 57, "duration": 1, "velocity": 58}, {"time": 146, "pitch": 41, "duration": 4, "velocity": 82}, {"time": 146, "pitch": 53, "duration": 4, "velocity": 74}, {"time": 146, "pitch": 57, "duration": 4, "velocity": 72}, {"time": 146, "pitch": 60, "duration": 4, "velocity": 79}, {"time": 152, "pitch": 41, "duration": 8, "velocity": 92}, {"time": 152, "pitch": 53, "duration": 4, "velocity": 90}, {"time": 152, "pitch": 57, "duration": 4, "velocity": 89}, {"time": 152, "pitch": 60, "duration": 4, "velocity": 88}, {"time": 158, "pitch": 57, "duration": 2, "velocity": 99}, {"time": 158, "pitch": 60, "duration": 5, "velocity": 95}, {"time": 161, "pitch": 53, "duration": 3, "velocity": 43}, {"time": 164, "pitch": 41, "duration": 12, "velocity": 100}, {"time": 167, "pitch": 53, "duration": 3, "velocity": 93}, {"time": 167, "pitch": 57, "duration": 3, "velocity": 96}, {"time": 167, "pitch": 60, "duration": 3, "velocity": 97}, {"time": 173, "pitch": 53, "duration": 2, "velocity": 90}, {"time": 173, "pitch": 57, "duration": 2, "velocity": 88}, {"time": 173, "pitch": 60, "duration": 2, "velocity": 79}, {"time": 179, "pitch": 41, "duration": 3, "velocity": 88}, {"time": 182, "pitch": 57, "duration": 2, "velocity": 95}, {"time": 182, "pitch": 60, "duration": 3, "velocity": 93}, {"time": 185, "pitch": 41, "duration": 3, "velocity": 102}, {"time": 188, "pitch": 57, "duration": 2, "velocity": 100}, {"time": 188, "pitch": 60, "duration": 3, "velocity": 93}, {"time": 191, "pitch": 53, "duration": 1, "velocity": 41}, {"time": 194, "pitch": 46, "duration": 2, "velocity": 117}, {"time": 194, "pitch": 53, "duration": 2, "velocity": 76}, {"time": 194, "pitch": 58, "duration": 2, "velocity": 117}, {"time": 194, "pitch": 62, "duration": 2, "velocity": 96}, {"time": 200, "pitch": 46, "duration": 7, "velocity": 127}, {"time": 200, "pitch": 53, "duration": 5, "velocity": 83}, {"time": 200, "pitch": 58, "duration": 4, "velocity": 112}, {"time": 200, "pitch": 62, "duration": 3, "velocity": 96}, {"time": 206, "pitch": 58, "duration": 5, "velocity": 127}, {"time": 206, "pitch": 62, "duration": 6, "velocity": 100}, {"time": 212, "pitch": 46, "duration": 11, "velocity": 95}, {"time": 215, "pitch": 58, "duration": 2, "velocity": 100}, {"time": 215, "pitch": 62, "duration": 2, "velocity": 85}, {"time": 221, "pitch": 58, "duration": 3, "velocity": 107}, {"time": 221, "pitch": 62, "duration": 5, "velocity": 93}, {"time": 224, "pitch": 53, "duration": 2, "velocity": 38}, {"time": 227, "pitch": 46, "duration": 3, "velocity": 107}, {"time": 230, "pitch": 58, "duration": 3, "velocity": 127}, {"time": 230, "pitch": 62, "duration": 3, "velocity": 99}, {"time": 233, "pitch": 46, "duration": 5, "velocity": 107}, {"time": 236, "pitch": 58, "duration": 4, "velocity": 127}, {"time": 236, "pitch": 62, "duration": 4, "velocity": 96}, {"time": 242, "pitch": 43, "duration": 2, "velocity": 88}, {"time": 242, "pitch": 55, "duration": 2, "velocity": 95}, {"time": 242, "pitch": 58, "duration": 2, "velocity": 107}, {"time": 242, "pitch": 62, "duration": 2, "velocity": 88}, {"time": 248, "pitch": 43, "duration": 12, "velocity": 100}, {"time": 248, "pitch": 55, "duration": 9, "velocity": 89}, {"time": 248, "pitch": 58, "duration": 9, "velocity": 122}, {"time": 248, "pitch": 62, "duration": 9, "velocity": 92}, {"time": 260, "pitch": 55, "duration": 4, "velocity": 100}, {"time": 260, "pitch": 58, "duration": 2, "velocity": 122}, {"time": 260, "pitch": 62, "duration": 4, "velocity": 97}, {"time": 263, "pitch": 43, "duration": 2, "velocity": 97}, {"time": 269, "pitch": 55, "duration": 5, "velocity": 88}, {"time": 269, "pitch": 58, "duration": 5, "velocity": 122}, {"time": 269, "pitch": 62, "duration": 5, "velocity": 96}, {"time": 275, "pitch": 43, "duration": 2, "velocity": 99}, {"time": 278, "pitch": 55, "duration": 2, "velocity": 92}, {"time": 278, "pitch": 58, "duration": 3, "velocity": 122}, {"time": 278, "pitch": 62, "duration": 3, "velocity": 95}, {"time": 281, "pitch": 43, "duration": 1, "velocity": 97}, {"time": 284, "pitch": 58, "duration": 2, "velocity": 107}, {"time": 284, "pitch": 62, "duration": 1, "velocity": 70}, {"time": 287, "pitch": 55, "duration": 1, "velocity": 31}, {"time": 290, "pitch": 39, "duration": 2, "velocity": 102}, {"time": 290, "pitch": 51, "duration": 2, "velocity": 73}, {"time": 290, "pitch": 55, "duration": 3, "velocity": 92}, {"time": 290, "pitch": 58, "duration": 3, "velocity": 127}, {"time": 290, "pitch": 63, "duration": 3, "velocity": 117}, {"time": 296, "pitch": 39, "duration": 12, "velocity": 97}, {"time": 296, "pitch": 51, "duration": 11, "velocity": 95}, {"time": 296, "pitch": 55, "duration": 3, "velocity": 81}, {"time": 296, "pitch": 58, "duration": 4, "velocity": 112}, {"time": 296, "pitch": 63, "duration": 4, "velocity": 107}, {"time": 302, "pitch": 58, "duration": 3, "velocity": 127}, {"time": 302, "pitch": 63, "duration": 4, "velocity": 127}, {"time": 308, "pitch": 55, "duration": 3, "velocity": 69}, {"time": 308, "pitch": 58, "duration": 3, "velocity": 95}, {"time": 308, "pitch": 63, "duration": 4, "velocity": 82}, {"time": 311, "pitch": 39, "duration": 3, "velocity": 82}, {"time": 311, "pitch": 51, "duration": 3, "velocity": 96}, {"time": 317, "pitch": 39, "duration": 2, "velocity": 78}, {"time": 317, "pitch": 51, "duration": 2, "velocity": 93}, {"time": 323, "pitch": 39, "duration": 1, "velocity": 78}, {"time": 323, "pitch": 51, "duration": 2, "velocity": 90}, {"time": 326, "pitch": 58, "duration": 6, "velocity": 127}, {"time": 326, "pitch": 63, "duration": 6, "velocity": 117}, {"time": 332, "pitch": 55, "duration": 2, "velocity": 97}, {"time": 335, "pitch": 57, "duration": 1, "velocity": 40}, {"time": 338, "pitch": 41, "duration": 2, "velocity": 56}, {"time": 338, "pitch": 48, "duration": 3, "velocity": 72}, {"time": 338, "pitch": 53, "duration": 2, "velocity": 100}, {"time": 338, "pitch": 57, "duration": 3, "velocity": 96}, {"time": 338, "pitch": 60, "duration": 3, "velocity": 90}, {"time": 344, "pitch": 41, "duration": 13, "velocity": 75}, {"time": 344, "pitch": 48, "duration": 13, "velocity": 89}, {"time": 344, "pitch": 53, "duration": 7, "velocity": 89}, {"time": 344, "pitch": 57, "duration": 7, "velocity": 96}, {"time": 344, "pitch": 60, "duration": 7, "velocity": 92}, {"time": 353, "pitch": 57, "duration": 2, "velocity": 56}, {"time": 353, "pitch": 60, "duration": 1, "velocity": 38}, {"time": 362, "pitch": 41, "duration": 20, "velocity": 69}, {"time": 362, "pitch": 48, "duration": 21, "velocity": 90}, {"time": 362, "pitch": 53, "duration": 21, "velocity": 93}, {"time": 362, "pitch": 57, "duration": 18, "velocity": 99}, {"time": 362, "pitch": 60, "duration": 19, "velocity": 99}, {"time": 386, "pitch": 46, "duration": 14, "velocity": 59}, {"time": 386, "pitch": 58, "duration": 8, "velocity": 77}, {"time": 386, "pitch": 62, "duration": 8, "velocity": 82}, {"time": 398, "pitch": 53, "duration": 1, "velocity": 81}, {"time": 398, "pitch": 58, "duration": 1, "velocity": 92}, {"time": 398, "pitch": 62, "duration": 1, "velocity": 82}, {"time": 407, "pitch": 53, "duration": 1, "velocity": 67}, {"time": 407, "pitch": 58, "duration": 1, "velocity": 90}, {"time": 407, "pitch": 62, "duration": 1, "velocity": 69}, {"time": 413, "pitch": 53, "duration": 1, "velocity": 69}, {"time": 413, "pitch": 58, "duration": 1, "velocity": 88}, {"time": 413, "pitch": 62, "duration": 1, "velocity": 73}, {"time": 419, "pitch": 46, "duration": 3, "velocity": 86}, {"time": 422, "pitch": 53, "duration": 4, "velocity": 72}, {"time": 422, "pitch": 58, "duration": 4, "velocity": 96}, {"time": 422, "pitch": 62, "duration": 6, "velocity": 79}, {"time": 428, "pitch": 58, "duration": 2, "velocity": 72}, {"time": 434, "pitch": 36, "duration": 18, "velocity": 63}, {"time": 434, "pitch": 48, "duration": 19, "velocity": 74}, {"time": 434, "pitch": 55, "duration": 3, "velocity": 73}, {"time": 434, "pitch": 60, "duration": 7, "velocity": 73}, {"time": 434, "pitch": 63, "duration": 7, "velocity": 72}, {"time": 440, "pitch": 55, "duration": 3, "velocity": 55}, {"time": 446, "pitch": 55, "duration": 1, "velocity": 78}, {"time": 446, "pitch": 60, "duration": 1, "velocity": 85}, {"time": 446, "pitch": 63, "duration": 1, "velocity": 83}, {"time": 458, "pitch": 41, "duration": 15, "velocity": 53}, {"time": 458, "pitch": 53, "duration": 7, "velocity": 64}, {"time": 458, "pitch": 57, "duration": 6, "velocity": 64}, {"time": 458, "pitch": 60, "duration": 7, "velocity": 68}, {"time": 464, "pitch": 48, "duration": 7, "velocity": 48}, {"time": 470, "pitch": 57, "duration": 3, "velocity": 95}, {"time": 470, "pitch": 60, "duration": 3, "velocity": 93}, {"time": 473, "pitch": 48, "duration": 3, "velocity": 76}, {"time": 476, "pitch": 53, "duration": 2, "velocity": 76}, {"time": 482, "pitch": 43, "duration": 37, "velocity": 66}, {"time": 482, "pitch": 55, "duration": 7, "velocity": 81}, {"time": 482, "pitch": 58, "duration": 7, "velocity": 90}, {"time": 482, "pitch": 62, "duration": 7, "velocity": 74}, {"time": 488, "pitch": 50, "duration": 8, "velocity": 26}, {"time": 494, "pitch": 55, "duration": 1, "velocity": 76}, {"time": 494, "pitch": 58, "duration": 1, "velocity": 92}, {"time": 494, "pitch": 62, "duration": 1, "velocity": 70}, {"time": 500, "pitch": 50, "duration": 10, "velocity": 55}, {"time": 503, "pitch": 55, "duration": 1, "velocity": 69}, {"time": 503, "pitch": 58, "duration": 1, "velocity": 82}, {"time": 503, "pitch": 62, "duration": 1, "velocity": 58}, {"time": 509, "pitch": 55, "duration": 1, "velocity": 70}, {"time": 509, "pitch": 58, "duration": 1, "velocity": 89}, {"time": 509, "pitch": 62, "duration": 1, "velocity": 70}, {"time": 515, "pitch": 50, "duration": 3, "velocity": 41}, {"time": 518, "pitch": 55, "duration": 1, "velocity": 69}, {"time": 518, "pitch": 58, "duration": 2, "velocity": 93}, {"time": 518, "pitch": 62, "duration": 2, "velocity": 76}, {"time": 524, "pitch": 55, "duration": 1, "velocity": 85}, {"time": 524, "pitch": 58, "duration": 1, "velocity": 90}, {"time": 524, "pitch": 62, "duration": 1, "velocity": 61}, {"time": 530, "pitch": 41, "duration": 40, "velocity": 66}, {"time": 530, "pitch": 53, "duration": 7, "velocity": 82}, {"time": 530, "pitch": 57, "duration": 7, "velocity": 77}, {"time": 530, "pitch": 60, "duration": 7, "velocity": 73}, {"time": 542, "pitch": 53, "duration": 1, "velocity": 85}, {"time": 542, "pitch": 57, "duration": 1, "velocity": 92}, {"time": 542, "pitch": 60, "duration": 1, "velocity": 82}, {"time": 551, "pitch": 53, "duration": 1, "velocity": 82}, {"time": 551, "pitch": 57, "duration": 1, "velocity": 90}, {"time": 551, "pitch": 60, "duration": 1, "velocity": 81}, {"time": 557, "pitch": 53, "duration": 1, "velocity": 78}, {"time": 557, "pitch": 57, "duration": 1, "velocity": 82}, {"time": 557, "pitch": 60, "duration": 1, "velocity": 72}, {"time": 563, "pitch": 48, "duration": 4, "velocity": 63}, {"time": 566, "pitch": 53, "duration": 2, "velocity": 85}, {"time": 566, "pitch": 57, "duration": 2, "velocity": 96}, {"time": 566, "pitch": 60, "duration": 2, "velocity": 92}, {"time": 569, "pitch": 48, "duration": 2, "velocity": 73}, {"time": 572, "pitch": 53, "duration": 2, "velocity": 92}, {"time": 578, "pitch": 46, "duration": 16, "velocity": 100}, {"time": 578, "pitch": 53, "duration": 6, "velocity": 78}, {"time": 578, "pitch": 58, "duration": 6, "velocity": 92}, {"time": 578, "pitch": 62, "duration": 6, "velocity": 73}, {"time": 590, "pitch": 53, "duration": 1, "velocity": 82}, {"time": 590, "pitch": 58, "duration": 1, "velocity": 96}, {"time": 590, "pitch": 62, "duration": 1, "velocity": 73}, {"time": 599, "pitch": 53, "duration": 1, "velocity": 63}, {"time": 599, "pitch": 58, "duration": 1, "velocity": 83}, {"time": 599, "pitch": 62, "duration": 1, "velocity": 68}, {"time": 605, "pitch": 53, "duration": 1, "velocity": 58}, {"time": 605, "pitch": 58, "duration": 1, "velocity": 81}, {"time": 605, "pitch": 62, "duration": 1, "velocity": 71}, {"time": 611, "pitch": 46, "duration": 2, "velocity": 90}, {"time": 614, "pitch": 58, "duration": 2, "velocity": 95}, {"time": 614, "pitch": 62, "duration": 2, "velocity": 73}, {"time": 617, "pitch": 46, "duration": 1, "velocity": 95}, {"time": 620, "pitch": 53, "duration": 2, "velocity": 77}, {"time": 626, "pitch": 38, "duration": 13, "velocity": 72}, {"time": 626, "pitch": 50, "duration": 6, "velocity": 83}, {"time": 626, "pitch": 54, "duration": 6, "velocity": 93}, {"time": 626, "pitch": 57, "duration": 6, "velocity": 82}, {"time": 632, "pitch": 45, "duration": 7, "velocity": 58}, {"time": 638, "pitch": 54, "duration": 2, "velocity": 97}, {"time": 638, "pitch": 57, "duration": 2, "velocity": 82}, {"time": 650, "pitch": 43, "duration": 15, "velocity": 66}, {"time": 650, "pitch": 55, "duration": 6, "velocity": 76}, {"time": 650, "pitch": 58, "duration": 6, "velocity": 95}, {"time": 650, "pitch": 62, "duration": 6, "velocity": 79}, {"time": 656, "pitch": 50, "duration": 6, "velocity": 39}, {"time": 662, "pitch": 58, "duration": 3, "velocity": 100}, {"time": 662, "pitch": 62, "duration": 3, "velocity": 86}, {"time": 665, "pitch": 50, "duration": 1, "velocity": 73}, {"time": 668, "pitch": 58, "duration": 2, "velocity": 102}, {"time": 668, "pitch": 62, "duration": 3, "velocity": 59}, {"time": 671, "pitch": 55, "duration": 1, "velocity": 66}, {"time": 674, "pitch": 48, "duration": 14, "velocity": 76}, {"time": 674, "pitch": 55, "duration": 5, "velocity": 50}, {"time": 674, "pitch": 60, "duration": 6, "velocity": 83}, {"time": 674, "pitch": 63, "duration": 5, "velocity": 89}, {"time": 686, "pitch": 60, "duration": 2, "velocity": 96}, {"time": 686, "pitch": 63, "duration": 2, "velocity": 97}, {"time": 695, "pitch": 60, "duration": 1, "velocity": 82}, {"time": 695, "pitch": 63, "duration": 1, "velocity": 75}, {"time": 698, "pitch": 39, "duration": 17, "velocity": 82}, {"time": 704, "pitch": 55, "duration": 1, "velocity": 51}, {"time": 704, "pitch": 58, "duration": 1, "velocity": 82}, {"time": 704, "pitch": 63, "duration": 2, "velocity": 76}, {"time": 710, "pitch": 51, "duration": 5, "velocity": 78}, {"time": 710, "pitch": 58, "duration": 7, "velocity": 107}, {"time": 710, "pitch": 63, "duration": 7, "velocity": 100}, {"time": 716, "pitch": 55, "duration": 3, "velocity": 68}, {"time": 722, "pitch": 48, "duration": 12, "velocity": 85}, {"time": 722, "pitch": 55, "duration": 7, "velocity": 85}, {"time": 722, "pitch": 60, "duration": 8, "velocity": 92}, {"time": 722, "pitch": 63, "duration": 8, "velocity": 93}, {"time": 734, "pitch": 60, "duration": 2, "velocity": 102}, {"time": 734, "pitch": 63, "duration": 2, "velocity": 117}, {"time": 737, "pitch": 60, "duration": 1, "velocity": 88}, {"time": 740, "pitch": 63, "duration": 1, "velocity": 58}, {"time": 746, "pitch": 41, "duration": 5, "velocity": 72}, {"time": 749, "pitch": 53, "duration": 2, "velocity": 73}, {"time": 749, "pitch": 57, "duration": 2, "velocity": 81}, {"time": 749, "pitch": 60, "duration": 2, "velocity": 82}, {"time": 755, "pitch": 57, "duration": 3, "velocity": 88}, {"time": 755, "pitch": 60, "duration": 6, "velocity": 88}, {"time": 758, "pitch": 41, "duration": 11, "velocity": 73}, {"time": 764, "pitch": 53, "duration": 5, "velocity": 88}, {"time": 764, "pitch": 57, "duration": 5, "velocity": 93}, {"time": 764, "pitch": 60, "duration": 5, "velocity": 96}, {"time": 770, "pitch": 46, "duration": 14, "velocity": 59}, {"time": 770, "pitch": 58, "duration": 8, "velocity": 77}, {"time": 770, "pitch": 62, "duration": 8, "velocity": 82}, {"time": 782, "pitch": 53, "duration": 1, "velocity": 81}, {"time": 782, "pitch": 58, "duration": 1, "velocity": 92}, {"time": 782, "pitch": 62, "duration": 1, "velocity": 82}, {"time": 791, "pitch": 53, "duration": 1, "velocity": 67}, {"time": 791, "pitch": 58, "duration": 1, "velocity": 90}, {"time": 791, "pitch": 62, "duration": 1, "velocity": 69}, {"time": 797, "pitch": 53, "duration": 1, "velocity": 69}, {"time": 797, "pitch": 58, "duration": 1, "velocity": 88}, {"time": 797, "pitch": 62, "duration": 1, "velocity": 73}, {"time": 803, "pitch": 46, "duration": 3, "velocity": 86}, {"time": 806, "pitch": 53, "duration": 4, "velocity": 72}, {"time": 806, "pitch": 58, "duration": 4, "velocity": 96}, {"time": 806, "pitch": 62, "duration": 6, "velocity": 79}, {"time": 812, "pitch": 58, "duration": 2, "velocity": 72}, {"time": 818, "pitch": 36, "duration": 18, "velocity": 63}, {"time": 818, "pitch": 48, "duration": 19, "velocity": 74}, {"time": 818, "pitch": 55, "duration": 3, "velocity": 73}, {"time": 818, "pitch": 60, "duration": 7, "velocity": 73}, {"time": 818, "pitch": 63, "duration": 7, "velocity": 72}, {"time": 824, "pitch": 55, "duration": 3, "velocity": 55}, {"time": 830, "pitch": 55, "duration": 1, "velocity": 78}, {"time": 830, "pitch": 60, "duration": 1, "velocity": 85}, {"time": 830, "pitch": 63, "duration": 1, "velocity": 83}, {"time": 842, "pitch": 41, "duration": 15, "velocity": 53}, {"time": 842, "pitch": 53, "duration": 7, "velocity": 64}, {"time": 842, "pitch": 57, "duration": 6, "velocity": 64}, {"time": 842, "pitch": 60, "duration": 7, "velocity": 68}, {"time": 848, "pitch": 48, "duration": 7, "velocity": 48}, {"time": 854, "pitch": 57, "duration": 3, "velocity": 95}, {"time": 854, "pitch": 60, "duration": 3, "velocity": 93}, {"time": 857, "pitch": 48, "duration": 3, "velocity": 76}, {"time": 860, "pitch": 53, "duration": 2, "velocity": 76}, {"time": 866, "pitch": 43, "duration": 37, "velocity": 66}, {"time": 866, "pitch": 55, "duration": 7, "velocity": 81}, {"time": 866, "pitch": 58, "duration": 7, "velocity": 90}, {"time": 866, "pitch": 62, "duration": 7, "velocity": 74}, {"time": 872, "pitch": 50, "duration": 8, "velocity": 26}, {"time": 878, "pitch": 55, "duration": 1, "velocity": 76}, {"time": 878, "pitch": 58, "duration": 1, "velocity": 92}, {"time": 878, "pitch": 62, "duration": 1, "velocity": 70}, {"time": 884, "pitch": 50, "duration": 10, "velocity": 55}, {"time": 887, "pitch": 55, "duration": 1, "velocity": 69}, {"time": 887, "pitch": 58, "duration": 1, "velocity": 82}, {"time": 887, "pitch": 62, "duration": 1, "velocity": 58}, {"time": 893, "pitch": 55, "duration": 1, "velocity": 70}, {"time": 893, "pitch": 58, "duration": 1, "velocity": 89}, {"time": 893, "pitch": 62, "duration": 1, "velocity": 70}, {"time": 899, "pitch": 50, "duration": 3, "velocity": 41}, {"time": 902, "pitch": 55, "duration": 1, "velocity": 69}, {"time": 902, "pitch": 58, "duration": 2, "velocity": 93}, {"time": 902, "pitch": 62, "duration": 2, "velocity": 76}, {"time": 908, "pitch": 55, "duration": 1, "velocity": 85}, {"time": 908, "pitch": 58, "duration": 1, "velocity": 90}, {"time": 908, "pitch": 62, "duration": 1, "velocity": 61}, {"time": 914, "pitch": 41, "duration": 40, "velocity": 66}, {"time": 914, "pitch": 53, "duration": 7, "velocity": 82}, {"time": 914, "pitch": 57, "duration": 7, "velocity": 77}, {"time": 914, "pitch": 60, "duration": 7, "velocity": 73}, {"time": 926, "pitch": 53, "duration": 1, "velocity": 85}, {"time": 926, "pitch": 57, "duration": 1, "velocity": 92}, {"time": 926, "pitch": 60, "duration": 1, "velocity": 82}, {"time": 935, "pitch": 53, "duration": 1, "velocity": 82}, {"time": 935, "pitch": 57, "duration": 1, "velocity": 90}, {"time": 935, "pitch": 60, "duration": 1, "velocity": 81}, {"time": 941, "pitch": 53, "duration": 1, "velocity": 78}, {"time": 941, "pitch": 57, "duration": 1, "velocity": 82}, {"time": 941, "pitch": 60, "duration": 1, "velocity": 72}, {"time": 947, "pitch": 48, "duration": 4, "velocity": 63}, {"time": 950, "pitch": 53, "duration": 2, "velocity": 85}, {"time": 950, "pitch": 57, "duration": 2, "velocity": 96}, {"time": 950, "pitch": 60, "duration": 2, "velocity": 92}, {"time": 953, "pitch": 48, "duration": 2, "velocity": 73}, {"time": 956, "pitch": 53, "duration": 2, "velocity": 92}, {"time": 962, "pitch": 46, "duration": 16, "velocity": 100}, {"time": 962, "pitch": 53, "duration": 6, "velocity": 78}, {"time": 962, "pitch": 58, "duration": 6, "velocity": 92}, {"time": 962, "pitch": 62, "duration": 6, "velocity": 73}, {"time": 974, "pitch": 53, "duration": 1, "velocity": 82}, {"time": 974, "pitch": 58, "duration": 1, "velocity": 96}, {"time": 974, "pitch": 62, "duration": 1, "velocity": 73}, {"time": 983, "pitch": 53, "duration": 1, "velocity": 63}, {"time": 983, "pitch": 58, "duration": 1, "velocity": 83}, {"time": 983, "pitch": 62, "duration": 1, "velocity": 68}, {"time": 989, "pitch": 53, "duration": 1, "velocity": 58}, {"time": 989, "pitch": 58, "duration": 1, "velocity": 81}, {"time": 989, "pitch": 62, "duration": 1, "velocity": 71}, {"time": 995, "pitch": 46, "duration": 2, "velocity": 90}, {"time": 998, "pitch": 58, "duration": 2, "velocity": 95}, {"time": 998, "pitch": 62, "duration": 2, "velocity": 73}, {"time": 1001, "pitch": 46, "duration": 1, "velocity": 95}, {"time": 1004, "pitch": 53, "duration": 2, "velocity": 77}, {"time": 1010, "pitch": 38, "duration": 13, "velocity": 72}, {"time": 1010, "pitch": 50, "duration": 6, "velocity": 83}, {"time": 1010, "pitch": 54, "duration": 6, "velocity": 93}, {"time": 1010, "pitch": 57, "duration": 6, "velocity": 82}, {"time": 1016, "pitch": 45, "duration": 7, "velocity": 58}, {"time": 1022, "pitch": 54, "duration": 2, "velocity": 97}, {"time": 1022, "pitch": 57, "duration": 2, "velocity": 82}, {"time": 1034, "pitch": 43, "duration": 15, "velocity": 66}, {"time": 1034, "pitch": 55, "duration": 6, "velocity": 76}, {"time": 1034, "pitch": 58, "duration": 6, "velocity": 95}, {"time": 1034, "pitch": 62, "duration": 6, "velocity": 79}, {"time": 1040, "pitch": 50, "duration": 6, "velocity": 39}, {"time": 1046, "pitch": 58, "duration": 3, "velocity": 100}, {"time": 1046, "pitch": 62, "duration": 3, "velocity": 86}, {"time": 1049, "pitch": 50, "duration": 1, "velocity": 73}, {"time": 1052, "pitch": 58, "duration": 2, "velocity": 102}, {"time": 1052, "pitch": 62, "duration": 3, "velocity": 59}, {"time": 1055, "pitch": 55, "duration": 1, "velocity": 66}, {"time": 1058, "pitch": 48, "duration": 14, "velocity": 76}, {"time": 1058, "pitch": 55, "duration": 5, "velocity": 50}, {"time": 1058, "pitch": 60, "duration": 6, "velocity": 83}, {"time": 1058, "pitch": 63, "duration": 5, "velocity": 89}, {"time": 1070, "pitch": 60, "duration": 2, "velocity": 96}, {"time": 1070, "pitch": 63, "duration": 2, "velocity": 97}, {"time": 1079, "pitch": 60, "duration": 1, "velocity": 82}, {"time": 1079, "pitch": 63, "duration": 1, "velocity": 75}, {"time": 1082, "pitch": 39, "duration": 17, "velocity": 82}, {"time": 1088, "pitch": 55, "duration": 1, "velocity": 51}, {"time": 1088, "pitch": 58, "duration": 1, "velocity": 82}, {"time": 1088, "pitch": 63, "duration": 2, "velocity": 76}, {"time": 1094, "pitch": 51, "duration": 5, "velocity": 78}, {"time": 1094, "pitch": 58, "duration": 7, "velocity": 107}, {"time": 1094, "pitch": 63, "duration": 7, "velocity": 100}, {"time": 1100, "pitch": 55, "duration": 3, "velocity": 68}, {"time": 1106, "pitch": 48, "duration": 12, "velocity": 85}, {"time": 1106, "pitch": 55, "duration": 7, "velocity": 85}, {"time": 1106, "pitch": 60, "duration": 8, "velocity": 92}, {"time": 1106, "pitch": 63, "duration": 8, "velocity": 93}, {"time": 1118, "pitch": 60, "duration": 2, "velocity": 102}, {"time": 1118, "pitch": 63, "duration": 2, "velocity": 117}, {"time": 1121, "pitch": 60, "duration": 1, "velocity": 88}, {"time": 1124, "pitch": 63, "duration": 1, "velocity": 58}, {"time": 1130, "pitch": 41, "duration": 5, "velocity": 72}, {"time": 1133, "pitch": 53, "duration": 2, "velocity": 73}, {"time": 1133, "pitch": 57, "duration": 2, "velocity": 81}, {"time": 1133, "pitch": 60, "duration": 2, "velocity": 82}, {"time": 1139, "pitch": 57, "duration": 3, "velocity": 88}, {"time": 1139, "pitch": 60, "duration": 6, "velocity": 88}, {"time": 1142, "pitch": 41, "duration": 11, "velocity": 73}, {"time": 1148, "pitch": 53, "duration": 5, "velocity": 88}, {"time": 1148, "pitch": 57, "duration": 5, "velocity": 93}, {"time": 1148, "pitch": 60, "duration": 5, "velocity": 96}, {"time": 1154, "pitch": 41, "duration": 13, "velocity": 58}, {"time": 1154, "pitch": 48, "duration": 13, "velocity": 65}, {"time": 1154, "pitch": 53, "duration": 9, "velocity": 90}, {"time": 1154, "pitch": 57, "duration": 10, "velocity": 97}, {"time": 1154, "pitch": 60, "duration": 9, "velocity": 92}, {"time": 1166, "pitch": 57, "duration": 5, "velocity": 100}, {"time": 1166, "pitch": 60, "duration": 4, "velocity": 99}, {"time": 1169, "pitch": 41, "duration": 5, "velocity": 47}, {"time": 1169, "pitch": 48, "duration": 6, "velocity": 67}, {"time": 1172, "pitch": 53, "duration": 4, "velocity": 77}, {"time": 1178, "pitch": 46, "duration": 15, "velocity": 127}, {"time": 1178, "pitch": 53, "duration": 9, "velocity": 102}, {"time": 1178, "pitch": 58, "duration": 6, "velocity": 122}, {"time": 1178, "pitch": 62, "duration": 9, "velocity": 97}, {"time": 1190, "pitch": 53, "duration": 9, "velocity": 99}, {"time": 1190, "pitch": 58, "duration": 9, "velocity": 127}, {"time": 1190, "pitch": 62, "duration": 9, "velocity": 97}, {"time": 1199, "pitch": 46, "duration": 4, "velocity": 117}, {"time": 1202, "pitch": 53, "duration": 3, "velocity": 100}, {"time": 1202, "pitch": 58, "duration": 3, "velocity": 122}, {"time": 1202, "pitch": 62, "duration": 3, "velocity": 96}, {"time": 1208, "pitch": 46, "duration": 7, "velocity": 117}, {"time": 1208, "pitch": 53, "duration": 2, "velocity": 93}, {"time": 1208, "pitch": 58, "duration": 2, "velocity": 102}, {"time": 1208, "pitch": 62, "duration": 3, "velocity": 88}, {"time": 1214, "pitch": 53, "duration": 2, "velocity": 92}, {"time": 1214, "pitch": 58, "duration": 3, "velocity": 122}, {"time": 1214, "pitch": 62, "duration": 3, "velocity": 100}, {"time": 1217, "pitch": 46, "duration": 2, "velocity": 107}, {"time": 1220, "pitch": 53, "duration": 3, "velocity": 95}, {"time": 1220, "pitch": 58, "duration": 4, "velocity": 127}, {"time": 1220, "pitch": 62, "duration": 3, "velocity": 96}, {"time": 1226, "pitch": 43, "duration": 14, "velocity": 95}, {"time": 1226, "pitch": 55, "duration": 4, "velocity": 100}, {"time": 1226, "pitch": 58, "duration": 4, "velocity": 127}, {"time": 1226, "pitch": 62, "duration": 4, "velocity": 100}, {"time": 1232, "pitch": 55, "duration": 2, "velocity": 86}, {"time": 1232, "pitch": 58, "duration": 2, "velocity": 102}, {"time": 1232, "pitch": 62, "duration": 2, "velocity": 88}, {"time": 1238, "pitch": 55, "duration": 7, "velocity": 102}, {"time": 1238, "pitch": 58, "duration": 8, "velocity": 122}, {"time": 1238, "pitch": 62, "duration": 8, "velocity": 100}, {"time": 1247, "pitch": 43, "duration": 3, "velocity": 86}, {"time": 1250, "pitch": 55, "duration": 3, "velocity": 92}, {"time": 1250, "pitch": 58, "duration": 3, "velocity": 112}, {"time": 1250, "pitch": 62, "duration": 3, "velocity": 97}, {"time": 1253, "pitch": 43, "duration": 6, "velocity": 96}, {"time": 1256, "pitch": 58, "duration": 3, "velocity": 102}, {"time": 1256, "pitch": 62, "duration": 3, "velocity": 90}, {"time": 1262, "pitch": 58, "duration": 6, "velocity": 127}, {"time": 1262, "pitch": 62, "duration": 5, "velocity": 100}, {"time": 1268, "pitch": 55, "duration": 3, "velocity": 96}, {"time": 1274, "pitch": 39, "duration": 17, "velocity": 95}, {"time": 1274, "pitch": 51, "duration": 12, "velocity": 85}, {"time": 1274, "pitch": 58, "duration": 7, "velocity": 122}, {"time": 1274, "pitch": 63, "duration": 8, "velocity": 117}, {"time": 1280, "pitch": 55, "duration": 2, "velocity": 36}, {"time": 1286, "pitch": 58, "duration": 5, "velocity": 122}, {"time": 1286, "pitch": 63, "duration": 6, "velocity": 127}, {"time": 1289, "pitch": 51, "duration": 2, "velocity": 97}, {"time": 1292, "pitch": 55, "duration": 1, "velocity": 96}, {"time": 1298, "pitch": 38, "duration": 18, "velocity": 85}, {"time": 1298, "pitch": 45, "duration": 1, "velocity": 61}, {"time": 1298, "pitch": 50, "duration": 1, "velocity": 100}, {"time": 1298, "pitch": 53, "duration": 1, "velocity": 99}, {"time": 1298, "pitch": 57, "duration": 1, "velocity": 96}, {"time": 1307, "pitch": 45, "duration": 9, "velocity": 37}, {"time": 1310, "pitch": 50, "duration": 5, "velocity": 83}, {"time": 1310, "pitch": 57, "duration": 3, "velocity": 112}, {"time": 1310, "pitch": 62, "duration": 6, "velocity": 112}, {"time": 1310, "pitch": 65, "duration": 6, "velocity": 102}, {"time": 1316, "pitch": 57, "duration": 1, "velocity": 90}, {"time": 1322, "pitch": 36, "duration": 15, "velocity": 83}, {"time": 1322, "pitch": 55, "duration": 9, "velocity": 99}, {"time": 1322, "pitch": 60, "duration": 9, "velocity": 112}, {"time": 1322, "pitch": 63, "duration": 9, "velocity": 117}, {"time": 1328, "pitch": 43, "duration": 6, "velocity": 62}, {"time": 1334, "pitch": 60, "duration": 5, "velocity": 127}, {"time": 1334, "pitch": 63, "duration": 5, "velocity": 127}, {"time": 1337, "pitch": 43, "duration": 1, "velocity": 96}, {"time": 1340, "pitch": 55, "duration": 2, "velocity": 82}, {"time": 1343, "pitch": 57, "duration": 3, "velocity": 43}, {"time": 1343, "pitch": 60, "duration": 4, "velocity": 57}, {"time": 1346, "pitch": 41, "duration": 19, "velocity": 90}, {"time": 1346, "pitch": 53, "duration": 1, "velocity": 40}, {"time": 1352, "pitch": 53, "duration": 2, "velocity": 99}, {"time": 1352, "pitch": 65, "duration": 2, "velocity": 99}, {"time": 1355, "pitch": 48, "duration": 4, "velocity": 93}, {"time": 1358, "pitch": 55, "duration": 3, "velocity": 96}, {"time": 1358, "pitch": 67, "duration": 2, "velocity": 96}, {"time": 1361, "pitch": 48, "duration": 3, "velocity": 107}, {"time": 1364, "pitch": 57, "duration": 2, "velocity": 100}, {"time": 1370, "pitch": 46, "duration": 40, "velocity": 122}, {"time": 1370, "pitch": 58, "duration": 6, "velocity": 127}, {"time": 1370, "pitch": 62, "duration": 8, "velocity": 100}, {"time": 1376, "pitch": 50, "duration": 34, "velocity": 57}, {"time": 1376, "pitch": 53, "duration": 8, "velocity": 30}, {"time": 1382, "pitch": 58, "duration": 3, "velocity": 127}, {"time": 1382, "pitch": 62, "duration": 3, "velocity": 102}, {"time": 1382, "pitch": 65, "duration": 3, "velocity": 93}, {"time": 1388, "pitch": 53, "duration": 10, "velocity": 67}, {"time": 1388, "pitch": 58, "duration": 1, "velocity": 26}, {"time": 1391, "pitch": 58, "duration": 2, "velocity": 122}, {"time": 1391, "pitch": 62, "duration": 2, "velocity": 99}, {"time": 1391, "pitch": 65, "duration": 2, "velocity": 90}, {"time": 1397, "pitch": 58, "duration": 4, "velocity": 112}, {"time": 1397, "pitch": 62, "duration": 4, "velocity": 93}, {"time": 1397, "pitch": 65, "duration": 5, "velocity": 90}, {"time": 1403, "pitch": 53, "duration": 3, "velocity": 74}, {"time": 1406, "pitch": 58, "duration": 3, "velocity": 127}, {"time": 1406, "pitch": 62, "duration": 5, "velocity": 100}, {"time": 1406, "pitch": 65, "duration": 3, "velocity": 92}, {"time": 1409, "pitch": 53, "duration": 2, "velocity": 90}, {"time": 1412, "pitch": 57, "duration": 3, "velocity": 102}, {"time": 1412, "pitch": 62, "duration": 1, "velocity": 36}, {"time": 1418, "pitch": 43, "duration": 36, "velocity": 73}, {"time": 1418, "pitch": 55, "duration": 7, "velocity": 100}, {"time": 1418, "pitch": 58, "duration": 7, "velocity": 112}, {"time": 1418, "pitch": 62, "duration": 8, "velocity": 97}, {"time": 1424, "pitch": 50, "duration": 8, "velocity": 74}, {"time": 1430, "pitch": 55, "duration": 5, "velocity": 102}, {"time": 1430, "pitch": 58, "duration": 5, "velocity": 127}, {"time": 1430, "pitch": 62, "duration": 5, "velocity": 93}, {"time": 1436, "pitch": 50, "duration": 6, "velocity": 63}, {"time": 1439, "pitch": 55, "duration": 2, "velocity": 93}, {"time": 1439, "pitch": 58, "duration": 4, "velocity": 127}, {"time": 1439, "pitch": 62, "duration": 4, "velocity": 97}, {"time": 1445, "pitch": 55, "duration": 4, "velocity": 92}, {"time": 1445, "pitch": 58, "duration": 5, "velocity": 112}, {"time": 1445, "pitch": 62, "duration": 6, "velocity": 90}, {"time": 1451, "pitch": 50, "duration": 3, "velocity": 86}, {"time": 1454, "pitch": 58, "duration": 4, "velocity": 127}, {"time": 1454, "pitch": 62, "duration": 5, "velocity": 107}, {"time": 1460, "pitch": 55, "duration": 3, "velocity": 117}, {"time": 1466, "pitch": 39, "duration": 16, "velocity": 100}, {"time": 1466, "pitch": 55, "duration": 5, "velocity": 90}, {"time": 1466, "pitch": 58, "duration": 5, "velocity": 112}, {"time": 1466, "pitch": 63, "duration": 5, "velocity": 97}, {"time": 1472, "pitch": 51, "duration": 6, "velocity": 69}, {"time": 1478, "pitch": 58, "duration": 4, "velocity": 127}, {"time": 1478, "pitch": 63, "duration": 4, "velocity": 127}, {"time": 1481, "pitch": 51, "duration": 1, "velocity": 89}, {"time": 1484, "pitch": 57, "duration": 2, "velocity": 56}, {"time": 1490, "pitch": 38, "duration": 18, "velocity": 58}, {"time": 1490, "pitch": 45, "duration": 18, "velocity": 68}, {"time": 1490, "pitch": 50, "duration": 12, "velocity": 88}, {"time": 1490, "pitch": 57, "duration": 9, "velocity": 100}, {"time": 1490, "pitch": 62, "duration": 10, "velocity": 99}, {"time": 1490, "pitch": 65, "duration": 9, "velocity": 95}, {"time": 1502, "pitch": 62, "duration": 6, "velocity": 112}, {"time": 1502, "pitch": 65, "duration": 6, "velocity": 100}, {"time": 1505, "pitch": 50, "duration": 4, "velocity": 99}, {"time": 1508, "pitch": 57, "duration": 1, "velocity": 99}, {"time": 1514, "pitch": 36, "duration": 3, "velocity": 77}, {"time": 1514, "pitch": 55, "duration": 5, "velocity": 95}, {"time": 1514, "pitch": 60, "duration": 4, "velocity": 102}, {"time": 1514, "pitch": 63, "duration": 4, "velocity": 117}, {"time": 1526, "pitch": 39, "duration": 4, "velocity": 66}, {"time": 1526, "pitch": 51, "duration": 5, "velocity": 83}, {"time": 1526, "pitch": 55, "duration": 5, "velocity": 99}, {"time": 1526, "pitch": 58, "duration": 5, "velocity": 127}, {"time": 1526, "pitch": 63, "duration": 5, "velocity": 122}, {"time": 1538, "pitch": 46, "duration": 17, "velocity": 102}, {"time": 1538, "pitch": 58, "duration": 6, "velocity": 127}, {"time": 1538, "pitch": 62, "duration": 6, "velocity": 102}, {"time": 1538, "pitch": 65, "duration": 6, "velocity": 95}, {"time": 1544, "pitch": 50, "duration": 8, "velocity": 58}, {"time": 1544, "pitch": 53, "duration": 6, "velocity": 58}, {"time": 1550, "pitch": 58, "duration": 3, "velocity": 117}, {"time": 1550, "pitch": 62, "duration": 3, "velocity": 99}, {"time": 1550, "pitch": 65, "duration": 3, "velocity": 86}, {"time": 1553, "pitch": 50, "duration": 2, "velocity": 46}, {"time": 1553, "pitch": 53, "duration": 2, "velocity": 95}, {"time": 1556, "pitch": 58, "duration": 3, "velocity": 122}, {"time": 1556, "pitch": 62, "duration": 2, "velocity": 68}, {"time": 1556, "pitch": 65, "duration": 1, "velocity": 42}, {"time": 1562, "pitch": 46, "duration": 16, "velocity": 117}, {"time": 1562, "pitch": 53, "duration": 5, "velocity": 95}, {"time": 1562, "pitch": 58, "duration": 5, "velocity": 117}, {"time": 1562, "pitch": 62, "duration": 5, "velocity": 96}, {"time": 1562, "pitch": 65, "duration": 5, "velocity": 89}, {"time": 1568, "pitch": 53, "duration": 1, "velocity": 67}, {"time": 1568, "pitch": 58, "duration": 1, "velocity": 112}, {"time": 1568, "pitch": 62, "duration": 1, "velocity": 89}, {"time": 1568, "pitch": 65, "duration": 1, "velocity": 72}, {"time": 1574, "pitch": 53, "duration": 3, "velocity": 97}, {"time": 1574, "pitch": 58, "duration": 3, "velocity": 127}, {"time": 1574, "pitch": 62, "duration": 2, "velocity": 97}, {"time": 1574, "pitch": 65, "duration": 3, "velocity": 89}, {"time": 1583, "pitch": 46, "duration": 3, "velocity": 89}, {"time": 1589, "pitch": 46, "duration": 2, "velocity": 72}, {"time": 1595, "pitch": 46, "duration": 2, "velocity": 96}, {"time": 1598, "pitch": 58, "duration": 2, "velocity": 97}, {"time": 1598, "pitch": 62, "duration": 2, "velocity": 75}, {"time": 1598, "pitch": 65, "duration": 2, "velocity": 69}, {"time": 1601, "pitch": 46, "duration": 2, "velocity": 100}, {"time": 1604, "pitch": 58, "duration": 2, "velocity": 117}, {"time": 1604, "pitch": 62, "duration": 2, "velocity": 96}, {"time": 1604, "pitch": 65, "duration": 3, "velocity": 85}, {"time": 1610, "pitch": 43, "duration": 3, "velocity": 72}, {"time": 1610, "pitch": 55, "duration": 2, "velocity": 107}, {"time": 1610, "pitch": 58, "duration": 3, "velocity": 127}, {"time": 1610, "pitch": 62, "duration": 2, "velocity": 99}, {"time": 1616, "pitch": 43, "duration": 29, "velocity": 81}, {"time": 1616, "pitch": 55, "duration": 12, "velocity": 97}, {"time": 1616, "pitch": 58, "duration": 12, "velocity": 127}, {"time": 1616, "pitch": 62, "duration": 12, "velocity": 97}, {"time": 1628, "pitch": 50, "duration": 11, "velocity": 58}, {"time": 1631, "pitch": 55, "duration": 1, "velocity": 69}, {"time": 1631, "pitch": 58, "duration": 2, "velocity": 77}, {"time": 1631, "pitch": 62, "duration": 1, "velocity": 72}, {"time": 1637, "pitch": 58, "duration": 3, "velocity": 102}, {"time": 1637, "pitch": 62, "duration": 5, "velocity": 88}, {"time": 1643, "pitch": 50, "duration": 2, "velocity": 81}, {"time": 1646, "pitch": 58, "duration": 3, "velocity": 117}, {"time": 1646, "pitch": 62, "duration": 3, "velocity": 96}, {"time": 1652, "pitch": 58, "duration": 1, "velocity": 112}, {"time": 1652, "pitch": 62, "duration": 1, "velocity": 82}, {"time": 1658, "pitch": 39, "duration": 2, "velocity": 92}, {"time": 1658, "pitch": 51, "duration": 2, "velocity": 82}, {"time": 1658, "pitch": 55, "duration": 2, "velocity": 89}, {"time": 1658, "pitch": 58, "duration": 2, "velocity": 122}, {"time": 1658, "pitch": 63, "duration": 3, "velocity": 112}, {"time": 1664, "pitch": 39, "duration": 33, "velocity": 100}, {"time": 1664, "pitch": 51, "duration": 10, "velocity": 95}, {"time": 1664, "pitch": 58, "duration": 4, "velocity": 96}, {"time": 1664, "pitch": 63, "duration": 4, "velocity": 92}, {"time": 1670, "pitch": 58, "duration": 6, "velocity": 102}, {"time": 1670, "pitch": 63, "duration": 7, "velocity": 97}, {"time": 1676, "pitch": 51, "duration": 12, "velocity": 66}, {"time": 1679, "pitch": 55, "duration": 1, "velocity": 78}, {"time": 1679, "pitch": 58, "duration": 2, "velocity": 81}, {"time": 1679, "pitch": 63, "duration": 3, "velocity": 69}, {"time": 1685, "pitch": 58, "duration": 6, "velocity": 85}, {"time": 1685, "pitch": 63, "duration": 6, "velocity": 85}, {"time": 1691, "pitch": 51, "duration": 5, "velocity": 76}, {"time": 1694, "pitch": 58, "duration": 5, "velocity": 127}, {"time": 1694, "pitch": 63, "duration": 6, "velocity": 127}, {"time": 1700, "pitch": 55, "duration": 3, "velocity": 100}, {"time": 1703, "pitch": 57, "duration": 1, "velocity": 38}, {"time": 1703, "pitch": 60, "duration": 1, "velocity": 58}, {"time": 1706, "pitch": 41, "duration": 40, "velocity": 81}, {"time": 1706, "pitch": 53, "duration": 2, "velocity": 100}, {"time": 1706, "pitch": 57, "duration": 3, "velocity": 97}, {"time": 1706, "pitch": 60, "duration": 3, "velocity": 95}, {"time": 1712, "pitch": 53, "duration": 12, "velocity": 99}, {"time": 1712, "pitch": 57, "duration": 13, "velocity": 100}, {"time": 1712, "pitch": 60, "duration": 13, "velocity": 100}, {"time": 1724, "pitch": 48, "duration": 11, "velocity": 58}, {"time": 1727, "pitch": 53, "duration": 3, "velocity": 72}, {"time": 1727, "pitch": 57, "duration": 4, "velocity": 75}, {"time": 1727, "pitch": 60, "duration": 4, "velocity": 72}, {"time": 1733, "pitch": 57, "duration": 5, "velocity": 100}, {"time": 1733, "pitch": 60, "duration": 6, "velocity": 95}, {"time": 1739, "pitch": 48, "duration": 3, "velocity": 96}, {"time": 1742, "pitch": 57, "duration": 3, "velocity": 102}, {"time": 1742, "pitch": 60, "duration": 3, "velocity": 97}, {"time": 1745, "pitch": 48, "duration": 1, "velocity": 86}, {"time": 1748, "pitch": 57, "duration": 2, "velocity": 107}, {"time": 1748, "pitch": 60, "duration": 2, "velocity": 99}, {"time": 1751, "pitch": 53, "duration": 2, "velocity": 79}, {"time": 1754, "pitch": 46, "duration": 3, "velocity": 107}, {"time": 1754, "pitch": 53, "duration": 2, "velocity": 74}, {"time": 1754, "pitch": 58, "duration": 2, "velocity": 122}, {"time": 1754, "pitch": 62, "duration": 2, "velocity": 107}, {"time": 1760, "pitch": 46, "duration": 23, "velocity": 107}, {"time": 1760, "pitch": 53, "duration": 13, "velocity": 96}, {"time": 1760, "pitch": 58, "duration": 14, "velocity": 122}, {"time": 1760, "pitch": 62, "duration": 13, "velocity": 95}, {"time": 1775, "pitch": 53, "duration": 1, "velocity": 78}, {"time": 1775, "pitch": 58, "duration": 2, "velocity": 92}, {"time": 1775, "pitch": 62, "duration": 2, "velocity": 83}, {"time": 1781, "pitch": 58, "duration": 5, "velocity": 99}, {"time": 1781, "pitch": 62, "duration": 5, "velocity": 85}, {"time": 1787, "pitch": 46, "duration": 3, "velocity": 100}, {"time": 1790, "pitch": 53, "duration": 1, "velocity": 50}, {"time": 1790, "pitch": 58, "duration": 3, "velocity": 117}, {"time": 1790, "pitch": 62, "duration": 3, "velocity": 96}, {"time": 1796, "pitch": 58, "duration": 3, "velocity": 122}, {"time": 1796, "pitch": 62, "duration": 3, "velocity": 95}, {"time": 1802, "pitch": 43, "duration": 35, "velocity": 73}, {"time": 1802, "pitch": 55, "duration": 2, "velocity": 92}, {"time": 1802, "pitch": 58, "duration": 2, "velocity": 112}, {"time": 1802, "pitch": 62, "duration": 2, "velocity": 86}, {"time": 1808, "pitch": 55, "duration": 8, "velocity": 100}, {"time": 1808, "pitch": 58, "duration": 12, "velocity": 127}, {"time": 1808, "pitch": 62, "duration": 12, "velocity": 99}, {"time": 1814, "pitch": 50, "duration": 16, "velocity": 63}, {"time": 1823, "pitch": 55, "duration": 1, "velocity": 72}, {"time": 1823, "pitch": 58, "duration": 1, "velocity": 102}, {"time": 1823, "pitch": 62, "duration": 1, "velocity": 86}, {"time": 1829, "pitch": 58, "duration": 5, "velocity": 112}, {"time": 1829, "pitch": 62, "duration": 5, "velocity": 88}, {"time": 1835, "pitch": 50, "duration": 2, "velocity": 92}, {"time": 1838, "pitch": 58, "duration": 6, "velocity": 122}, {"time": 1838, "pitch": 62, "duration": 4, "velocity": 96}, {"time": 1844, "pitch": 55, "duration": 3, "velocity": 95}, {"time": 1850, "pitch": 39, "duration": 36, "velocity": 92}, {"time": 1850, "pitch": 51, "duration": 13, "velocity": 89}, {"time": 1850, "pitch": 55, "duration": 2, "velocity": 86}, {"time": 1850, "pitch": 58, "duration": 2, "velocity": 107}, {"time": 1850, "pitch": 63, "duration": 3, "velocity": 112}, {"time": 1856, "pitch": 58, "duration": 4, "velocity": 99}, {"time": 1856, "pitch": 63, "duration": 4, "velocity": 102}, {"time": 1862, "pitch": 58, "duration": 6, "velocity": 102}, {"time": 1862, "pitch": 63, "duration": 6, "velocity": 99}, {"time": 1868, "pitch": 51, "duration": 11, "velocity": 72}, {"time": 1871, "pitch": 55, "duration": 1, "velocity": 70}, {"time": 1871, "pitch": 58, "duration": 3, "velocity": 112}, {"time": 1871, "pitch": 63, "duration": 3, "velocity": 97}, {"time": 1877, "pitch": 58, "duration": 6, "velocity": 107}, {"time": 1877, "pitch": 63, "duration": 6, "velocity": 100}, {"time": 1883, "pitch": 51, "duration": 4, "velocity": 65}, {"time": 1886, "pitch": 58, "duration": 5, "velocity": 122}, {"time": 1886, "pitch": 63, "duration": 5, "velocity": 127}, {"time": 1892, "pitch": 55, "duration": 2, "velocity": 97}, {"time": 1898, "pitch": 41, "duration": 47, "velocity": 81}, {"time": 1898, "pitch": 53, "duration": 2, "velocity": 92}, {"time": 1898, "pitch": 57, "duration": 2, "velocity": 90}, {"time": 1898, "pitch": 60, "duration": 2, "velocity": 85}, {"time": 1904, "pitch": 53, "duration": 6, "velocity": 97}, {"time": 1904, "pitch": 57, "duration": 6, "velocity": 97}, {"time": 1904, "pitch": 60, "duration": 6, "velocity": 96}, {"time": 1910, "pitch": 48, "duration": 4, "velocity": 65}, {"time": 1913, "pitch": 53, "duration": 1, "velocity": 89}, {"time": 1913, "pitch": 57, "duration": 2, "velocity": 95}, {"time": 1913, "pitch": 60, "duration": 2, "velocity": 92}, {"time": 1919, "pitch": 48, "duration": 3, "velocity": 42}, {"time": 1919, "pitch": 53, "duration": 1, "velocity": 48}, {"time": 1919, "pitch": 57, "duration": 2, "velocity": 67}, {"time": 1919, "pitch": 60, "duration": 1, "velocity": 59}, {"time": 1922, "pitch": 48, "duration": 21, "velocity": 81}, {"time": 1922, "pitch": 53, "duration": 21, "velocity": 88}, {"time": 1922, "pitch": 57, "duration": 21, "velocity": 99}, {"time": 1922, "pitch": 60, "duration": 21, "velocity": 97}, {"time": 1946, "pitch": 46, "duration": 14, "velocity": 59}, {"time": 1946, "pitch": 58, "duration": 8, "velocity": 77}, {"time": 1946, "pitch": 62, "duration": 8, "velocity": 82}, {"time": 1958, "pitch": 53, "duration": 1, "velocity": 81}, {"time": 1958, "pitch": 58, "duration": 1, "velocity": 92}, {"time": 1958, "pitch": 62, "duration": 1, "velocity": 82}, {"time": 1967, "pitch": 53, "duration": 1, "velocity": 67}, {"time": 1967, "pitch": 58, "duration": 1, "velocity": 90}, {"time": 1967, "pitch": 62, "duration": 1, "velocity": 69}, {"time": 1973, "pitch": 53, "duration": 1, "velocity": 69}, {"time": 1973, "pitch": 58, "duration": 1, "velocity": 88}, {"time": 1973, "pitch": 62, "duration": 1, "velocity": 73}, {"time": 1979, "pitch": 46, "duration": 3, "velocity": 86}, {"time": 1982, "pitch": 53, "duration": 4, "velocity": 72}, {"time": 1982, "pitch": 58, "duration": 4, "velocity": 96}, {"time": 1982, "pitch": 62, "duration": 6, "velocity": 79}, {"time": 1988, "pitch": 58, "duration": 2, "velocity": 72}, {"time": 1994, "pitch": 36, "duration": 18, "velocity": 63}, {"time": 1994, "pitch": 48, "duration": 19, "velocity": 74}, {"time": 1994, "pitch": 55, "duration": 3, "velocity": 73}, {"time": 1994, "pitch": 60, "duration": 7, "velocity": 73}, {"time": 1994, "pitch": 63, "duration": 7, "velocity": 72}, {"time": 2000, "pitch": 55, "duration": 3, "velocity": 55}, {"time": 2006, "pitch": 55, "duration": 1, "velocity": 78}, {"time": 2006, "pitch": 60, "duration": 1, "velocity": 85}, {"time": 2006, "pitch": 63, "duration": 1, "velocity": 83}, {"time": 2018, "pitch": 41, "duration": 15, "velocity": 53}, {"time": 2018, "pitch": 53, "duration": 7, "velocity": 64}, {"time": 2018, "pitch": 57, "duration": 6, "velocity": 64}, {"time": 2018, "pitch": 60, "duration": 7, "velocity": 68}, {"time": 2024, "pitch": 48, "duration": 7, "velocity": 48}, {"time": 2030, "pitch": 57, "duration": 3, "velocity": 95}, {"time": 2030, "pitch": 60, "duration": 3, "velocity": 93}, {"time": 2033, "pitch": 48, "duration": 3, "velocity": 76}, {"time": 2036, "pitch": 53, "duration": 2, "velocity": 76}, {"time": 2042, "pitch": 43, "duration": 37, "velocity": 66}, {"time": 2042, "pitch": 55, "duration": 7, "velocity": 81}, {"time": 2042, "pitch": 58, "duration": 7, "velocity": 90}, {"time": 2042, "pitch": 62, "duration": 7, "velocity": 74}, {"time": 2048, "pitch": 50, "duration": 8, "velocity": 26}, {"time": 2054, "pitch": 55, "duration": 1, "velocity": 76}, {"time": 2054, "pitch": 58, "duration": 1, "velocity": 92}, {"time": 2054, "pitch": 62, "duration": 1, "velocity": 70}, {"time": 2060, "pitch": 50, "duration": 10, "velocity": 55}, {"time": 2063, "pitch": 55, "duration": 1, "velocity": 69}, {"time": 2063, "pitch": 58, "duration": 1, "velocity": 82}, {"time": 2063, "pitch": 62, "duration": 1, "velocity": 58}, {"time": 2069, "pitch": 55, "duration": 1, "velocity": 70}, {"time": 2069, "pitch": 58, "duration": 1, "velocity": 89}, {"time": 2069, "pitch": 62, "duration": 1, "velocity": 70}, {"time": 2075, "pitch": 50, "duration": 3, "velocity": 41}, {"time": 2078, "pitch": 55, "duration": 1, "velocity": 69}, {"time": 2078, "pitch": 58, "duration": 2, "velocity": 93}, {"time": 2078, "pitch": 62, "duration": 2, "velocity": 76}, {"time": 2084, "pitch": 55, "duration": 1, "velocity": 85}, {"time": 2084, "pitch": 58, "duration": 1, "velocity": 90}, {"time": 2084, "pitch": 62, "duration": 1, "velocity": 61}, {"time": 2090, "pitch": 41, "duration": 40, "velocity": 66}, {"time": 2090, "pitch": 53, "duration": 7, "velocity": 82}, {"time": 2090, "pitch": 57, "duration": 7, "velocity": 77}, {"time": 2090, "pitch": 60, "duration": 7, "velocity": 73}, {"time": 2102, "pitch": 53, "duration": 1, "velocity": 85}, {"time": 2102, "pitch": 57, "duration": 1, "velocity": 92}, {"time": 2102, "pitch": 60, "duration": 1, "velocity": 82}, {"time": 2111, "pitch": 53, "duration": 1, "velocity": 82}, {"time": 2111, "pitch": 57, "duration": 1, "velocity": 90}, {"time": 2111, "pitch": 60, "duration": 1, "velocity": 81}, {"time": 2117, "pitch": 53, "duration": 1, "velocity": 78}, {"time": 2117, "pitch": 57, "duration": 1, "velocity": 82}, {"time": 2117, "pitch": 60, "duration": 1, "velocity": 72}, {"time": 2123, "pitch": 48, "duration": 4, "velocity": 63}, {"time": 2126, "pitch": 53, "duration": 2, "velocity": 85}, {"time": 2126, "pitch": 57, "duration": 2, "velocity": 96}, {"time": 2126, "pitch": 60, "duration": 2, "velocity": 92}, {"time": 2129, "pitch": 48, "duration": 2, "velocity": 73}, {"time": 2132, "pitch": 53, "duration": 2, "velocity": 92}, {"time": 2138, "pitch": 46, "duration": 16, "velocity": 100}, {"time": 2138, "pitch": 53, "duration": 6, "velocity": 78}, {"time": 2138, "pitch": 58, "duration": 6, "velocity": 92}, {"time": 2138, "pitch": 62, "duration": 6, "velocity": 73}, {"time": 2150, "pitch": 53, "duration": 1, "velocity": 82}, {"time": 2150, "pitch": 58, "duration": 1, "velocity": 96}, {"time": 2150, "pitch": 62, "duration": 1, "velocity": 73}, {"time": 2159, "pitch": 53, "duration": 1, "velocity": 63}, {"time": 2159, "pitch": 58, "duration": 1, "velocity": 83}, {"time": 2159, "pitch": 62, "duration": 1, "velocity": 68}, {"time": 2165, "pitch": 53, "duration": 1, "velocity": 58}, {"time": 2165, "pitch": 58, "duration": 1, "velocity": 81}, {"time": 2165, "pitch": 62, "duration": 1, "velocity": 71}, {"time": 2171, "pitch": 46, "duration": 2, "velocity": 90}, {"time": 2174, "pitch": 58, "duration": 2, "velocity": 95}, {"time": 2174, "pitch": 62, "duration": 2, "velocity": 73}, {"time": 2177, "pitch": 46, "duration": 1, "velocity": 95}, {"time": 2180, "pitch": 53, "duration": 2, "velocity": 77}, {"time": 2186, "pitch": 38, "duration": 13, "velocity": 72}, {"time": 2186, "pitch": 50, "duration": 6, "velocity": 83}, {"time": 2186, "pitch": 54, "duration": 6, "velocity": 93}, {"time": 2186, "pitch": 57, "duration": 6, "velocity": 82}, {"time": 2192, "pitch": 45, "duration": 7, "velocity": 58}, {"time": 2198, "pitch": 54, "duration": 2, "velocity": 97}, {"time": 2198, "pitch": 57, "duration": 2, "velocity": 82}, {"time": 2210, "pitch": 43, "duration": 15, "velocity": 66}, {"time": 2210, "pitch": 55, "duration": 6, "velocity": 76}, {"time": 2210, "pitch": 58, "duration": 6, "velocity": 95}, {"time": 2210, "pitch": 62, "duration": 6, "velocity": 79}, {"time": 2216, "pitch": 50, "duration": 6, "velocity": 39}, {"time": 2222, "pitch": 58, "duration": 3, "velocity": 100}, {"time": 2222, "pitch": 62, "duration": 3, "velocity": 86}, {"time": 2225, "pitch": 50, "duration": 1, "velocity": 73}, {"time": 2228, "pitch": 58, "duration": 2, "velocity": 102}, {"time": 2228, "pitch": 62, "duration": 3, "velocity": 59}, {"time": 2231, "pitch": 55, "duration": 1, "velocity": 66}, {"time": 2234, "pitch": 48, "duration": 14, "velocity": 76}, {"time": 2234, "pitch": 55, "duration": 5, "velocity": 50}, {"time": 2234, "pitch": 60, "duration": 6, "velocity": 83}, {"time": 2234, "pitch": 63, "duration": 5, "velocity": 89}, {"time": 2246, "pitch": 60, "duration": 2, "velocity": 96}, {"time": 2246, "pitch": 63, "duration": 2, "velocity": 97}, {"time": 2255, "pitch": 60, "duration": 1, "velocity": 82}, {"time": 2255, "pitch": 63, "duration": 1, "velocity": 75}, {"time": 2258, "pitch": 39, "duration": 17, "velocity": 82}, {"time": 2264, "pitch": 55, "duration": 1, "velocity": 51}, {"time": 2264, "pitch": 58, "duration": 1, "velocity": 82}, {"time": 2264, "pitch": 63, "duration": 2, "velocity": 76}, {"time": 2270, "pitch": 51, "duration": 5, "velocity": 78}, {"time": 2270, "pitch": 58, "duration": 7, "velocity": 107}, {"time": 2270, "pitch": 63, "duration": 7, "velocity": 100}, {"time": 2276, "pitch": 55, "duration": 3, "velocity": 68}, {"time": 2282, "pitch": 48, "duration": 12, "velocity": 85}, {"time": 2282, "pitch": 55, "duration": 7, "velocity": 85}, {"time": 2282, "pitch": 60, "duration": 8, "velocity": 92}, {"time": 2282, "pitch": 63, "duration": 8, "velocity": 93}, {"time": 2294, "pitch": 60, "duration": 2, "velocity": 102}, {"time": 2294, "pitch": 63, "duration": 2, "velocity": 117}, {"time": 2297, "pitch": 60, "duration": 1, "velocity": 88}, {"time": 2300, "pitch": 63, "duration": 1, "velocity": 58}, {"time": 2306, "pitch": 41, "duration": 5, "velocity": 72}, {"time": 2309, "pitch": 53, "duration": 2, "velocity": 73}, {"time": 2309, "pitch": 57, "duration": 2, "velocity": 81}, {"time": 2309, "pitch": 60, "duration": 2, "velocity": 82}, {"time": 2315, "pitch": 57, "duration": 3, "velocity": 88}, {"time": 2315, "pitch": 60, "duration": 6, "velocity": 88}, {"time": 2318, "pitch": 41, "duration": 11, "velocity": 73}, {"time": 2324, "pitch": 53, "duration": 5, "velocity": 88}, {"time": 2324, "pitch": 57, "duration": 5, "velocity": 93}, {"time": 2324, "pitch": 60, "duration": 5, "velocity": 96}, {"time": 2330, "pitch": 46, "duration": 14, "velocity": 59}, {"time": 2330, "pitch": 58, "duration": 8, "velocity": 77}, {"time": 2330, "pitch": 62, "duration": 8, "velocity": 82}, {"time": 2342, "pitch": 53, "duration": 1, "velocity": 81}, {"time": 2342, "pitch": 58, "duration": 1, "velocity": 92}, {"time": 2342, "pitch": 62, "duration": 1, "velocity": 82}, {"time": 2351, "pitch": 53, "duration": 1, "velocity": 67}, {"time": 2351, "pitch": 58, "duration": 1, "velocity": 90}, {"time": 2351, "pitch": 62, "duration": 1, "velocity": 69}, {"time": 2357, "pitch": 53, "duration": 1, "velocity": 69}, {"time": 2357, "pitch": 58, "duration": 1, "velocity": 88}, {"time": 2357, "pitch": 62, "duration": 1, "velocity": 73}, {"time": 2363, "pitch": 46, "duration": 3, "velocity": 86}, {"time": 2366, "pitch": 53, "duration": 4, "velocity": 72}, {"time": 2366, "pitch": 58, "duration": 4, "velocity": 96}, {"time": 2366, "pitch": 62, "duration": 6, "velocity": 79}, {"time": 2372, "pitch": 58, "duration": 2, "velocity": 72}, {"time": 2378, "pitch": 36, "duration": 18, "velocity": 63}, {"time": 2378, "pitch": 48, "duration": 19, "velocity": 74}, {"time": 2378, "pitch": 55, "duration": 3, "velocity": 73}, {"time": 2378, "pitch": 60, "duration": 7, "velocity": 73}, {"time": 2378, "pitch": 63, "duration": 7, "velocity": 72}, {"time": 2384, "pitch": 55, "duration": 3, "velocity": 55}, {"time": 2390, "pitch": 55, "duration": 1, "velocity": 78}, {"time": 2390, "pitch": 60, "duration": 1, "velocity": 85}, {"time": 2390, "pitch": 63, "duration": 1, "velocity": 83}, {"time": 2402, "pitch": 41, "duration": 15, "velocity": 53}, {"time": 2402, "pitch": 53, "duration": 7, "velocity": 64}, {"time": 2402, "pitch": 57, "duration": 6, "velocity": 64}, {"time": 2402, "pitch": 60, "duration": 7, "velocity": 68}, {"time": 2408, "pitch": 48, "duration": 7, "velocity": 48}, {"time": 2414, "pitch": 57, "duration": 3, "velocity": 95}, {"time": 2414, "pitch": 60, "duration": 3, "velocity": 93}, {"time": 2417, "pitch": 48, "duration": 3, "velocity": 76}, {"time": 2420, "pitch": 53, "duration": 2, "velocity": 76}, {"time": 2426, "pitch": 43, "duration": 37, "velocity": 66}, {"time": 2426, "pitch": 55, "duration": 7, "velocity": 81}, {"time": 2426, "pitch": 58, "duration": 7, "velocity": 90}, {"time": 2426, "pitch": 62, "duration": 7, "velocity": 74}, {"time": 2432, "pitch": 50, "duration": 8, "velocity": 26}, {"time": 2438, "pitch": 55, "duration": 1, "velocity": 76}, {"time": 2438, "pitch": 58, "duration": 1, "velocity": 92}, {"time": 2438, "pitch": 62, "duration": 1, "velocity": 70}, {"time": 2444, "pitch": 50, "duration": 10, "velocity": 55}, {"time": 2447, "pitch": 55, "duration": 1, "velocity": 69}, {"time": 2447, "pitch": 58, "duration": 1, "velocity": 82}, {"time": 2447, "pitch": 62, "duration": 1, "velocity": 58}, {"time": 2453, "pitch": 55, "duration": 1, "velocity": 70}, {"time": 2453, "pitch": 58, "duration": 1, "velocity": 89}, {"time": 2453, "pitch": 62, "duration": 1, "velocity": 70}, {"time": 2459, "pitch": 50, "duration": 3, "velocity": 41}, {"time": 2462, "pitch": 55, "duration": 1, "velocity": 69}, {"time": 2462, "pitch": 58, "duration": 2, "velocity": 93}, {"time": 2462, "pitch": 62, "duration": 2, "velocity": 76}, {"time": 2468, "pitch": 55, "duration": 1, "velocity": 85}, {"time": 2468, "pitch": 58, "duration": 1, "velocity": 90}, {"time": 2468, "pitch": 62, "duration": 1, "velocity": 61}, {"time": 2474, "pitch": 41, "duration": 40, "velocity": 66}, {"time": 2474, "pitch": 53, "duration": 7, "velocity": 82}, {"time": 2474, "pitch": 57, "duration": 7, "velocity": 77}, {"time": 2474, "pitch": 60, "duration": 7, "velocity": 73}, {"time": 2486, "pitch": 53, "duration": 1, "velocity": 85}, {"time": 2486, "pitch": 57, "duration": 1, "velocity": 92}, {"time": 2486, "pitch": 60, "duration": 1, "velocity": 82}, {"time": 2495, "pitch": 53, "duration": 1, "velocity": 82}, {"time": 2495, "pitch": 57, "duration": 1, "velocity": 90}, {"time": 2495, "pitch": 60, "duration": 1, "velocity": 81}, {"time": 2501, "pitch": 53, "duration": 1, "velocity": 78}, {"time": 2501, "pitch": 57, "duration": 1, "velocity": 82}, {"time": 2501, "pitch": 60, "duration": 1, "velocity": 72}, {"time": 2507, "pitch": 48, "duration": 4, "velocity": 63}, {"time": 2510, "pitch": 53, "duration": 2, "velocity": 85}, {"time": 2510, "pitch": 57, "duration": 2, "velocity": 96}, {"time": 2510, "pitch": 60, "duration": 2, "velocity": 92}, {"time": 2513, "pitch": 48, "duration": 2, "velocity": 73}, {"time": 2516, "pitch": 53, "duration": 2, "velocity": 92}, {"time": 2522, "pitch": 46, "duration": 16, "velocity": 100}, {"time": 2522, "pitch": 53, "duration": 6, "velocity": 78}, {"time": 2522, "pitch": 58, "duration": 6, "velocity": 92}, {"time": 2522, "pitch": 62, "duration": 6, "velocity": 73}, {"time": 2534, "pitch": 53, "duration": 1, "velocity": 82}, {"time": 2534, "pitch": 58, "duration": 1, "velocity": 96}, {"time": 2534, "pitch": 62, "duration": 1, "velocity": 73}, {"time": 2543, "pitch": 53, "duration": 1, "velocity": 63}, {"time": 2543, "pitch": 58, "duration": 1, "velocity": 83}, {"time": 2543, "pitch": 62, "duration": 1, "velocity": 68}, {"time": 2549, "pitch": 53, "duration": 1, "velocity": 58}, {"time": 2549, "pitch": 58, "duration": 1, "velocity": 81}, {"time": 2549, "pitch": 62, "duration": 1, "velocity": 71}, {"time": 2555, "pitch": 46, "duration": 2, "velocity": 90}, {"time": 2558, "pitch": 58, "duration": 2, "velocity": 95}, {"time": 2558, "pitch": 62, "duration": 2, "velocity": 73}, {"time": 2561, "pitch": 46, "duration": 1, "velocity": 95}, {"time": 2564, "pitch": 53, "duration": 2, "velocity": 77}, {"time": 2570, "pitch": 38, "duration": 13, "velocity": 72}, {"time": 2570, "pitch": 50, "duration": 6, "velocity": 83}, {"time": 2570, "pitch": 54, "duration": 6, "velocity": 93}, {"time": 2570, "pitch": 57, "duration": 6, "velocity": 82}, {"time": 2576, "pitch": 45, "duration": 7, "velocity": 58}, {"time": 2582, "pitch": 54, "duration": 2, "velocity": 97}, {"time": 2582, "pitch": 57, "duration": 2, "velocity": 82}, {"time": 2594, "pitch": 43, "duration": 15, "velocity": 66}, {"time": 2594, "pitch": 55, "duration": 6, "velocity": 76}, {"time": 2594, "pitch": 58, "duration": 6, "velocity": 95}, {"time": 2594, "pitch": 62, "duration": 6, "velocity": 79}, {"time": 2600, "pitch": 50, "duration": 6, "velocity": 39}, {"time": 2606, "pitch": 58, "duration": 3, "velocity": 100}, {"time": 2606, "pitch": 62, "duration": 3, "velocity": 86}, {"time": 2609, "pitch": 50, "duration": 1, "velocity": 73}, {"time": 2612, "pitch": 58, "duration": 2, "velocity": 102}, {"time": 2612, "pitch": 62, "duration": 3, "velocity": 59}, {"time": 2615, "pitch": 55, "duration": 1, "velocity": 66}, {"time": 2618, "pitch": 48, "duration": 14, "velocity": 76}, {"time": 2618, "pitch": 55, "duration": 5, "velocity": 50}, {"time": 2618, "pitch": 60, "duration": 6, "velocity": 83}, {"time": 2618, "pitch": 63, "duration": 5, "velocity": 89}, {"time": 2630, "pitch": 60, "duration": 2, "velocity": 96}, {"time": 2630, "pitch": 63, "duration": 2, "velocity": 97}, {"time": 2639, "pitch": 60, "duration": 1, "velocity": 82}, {"time": 2639, "pitch": 63, "duration": 1, "velocity": 75}, {"time": 2642, "pitch": 39, "duration": 17, "velocity": 82}, {"time": 2648, "pitch": 55, "duration": 1, "velocity": 51}, {"time": 2648, "pitch": 58, "duration": 1, "velocity": 82}, {"time": 2648, "pitch": 63, "duration": 2, "velocity": 76}, {"time": 2654, "pitch": 51, "duration": 5, "velocity": 78}, {"time": 2654, "pitch": 58, "duration": 7, "velocity": 107}, {"time": 2654, "pitch": 63, "duration": 7, "velocity": 100}, {"time": 2660, "pitch": 55, "duration": 3, "velocity": 68}, {"time": 2666, "pitch": 48, "duration": 12, "velocity": 85}, {"time": 2666, "pitch": 55, "duration": 7, "velocity": 85}, {"time": 2666, "pitch": 60, "duration": 8, "velocity": 92}, {"time": 2666, "pitch": 63, "duration": 8, "velocity": 93}, {"time": 2678, "pitch": 60, "duration": 2, "velocity": 102}, {"time": 2678, "pitch": 63, "duration": 2, "velocity": 117}, {"time": 2681, "pitch": 60, "duration": 1, "velocity": 88}, {"time": 2684, "pitch": 63, "duration": 1, "velocity": 58}, {"time": 2690, "pitch": 41, "duration": 5, "velocity": 72}, {"time": 2693, "pitch": 53, "duration": 2, "velocity": 73}, {"time": 2693, "pitch": 57, "duration": 2, "velocity": 81}, {"time": 2693, "pitch": 60, "duration": 2, "velocity": 82}, {"time": 2699, "pitch": 57, "duration": 3, "velocity": 88}, {"time": 2699, "pitch": 60, "duration": 6, "velocity": 88}, {"time": 2702, "pitch": 41, "duration": 11, "velocity": 73}, {"time": 2708, "pitch": 53, "duration": 5, "velocity": 88}, {"time": 2708, "pitch": 57, "duration": 5, "velocity": 93}, {"time": 2708, "pitch": 60, "duration": 5, "velocity": 96}, {"time": 2714, "pitch": 41, "duration": 13, "velocity": 58}, {"time": 2714, "pitch": 48, "duration": 13, "velocity": 65}, {"time": 2714, "pitch": 53, "duration": 9, "velocity": 90}, {"time": 2714, "pitch": 57, "duration": 10, "velocity": 97}, {"time": 2714, "pitch": 60, "duration": 9, "velocity": 92}, {"time": 2726, "pitch": 57, "duration": 5, "velocity": 100}, {"time": 2726, "pitch": 60, "duration": 4, "velocity": 99}, {"time": 2729, "pitch": 41, "duration": 5, "velocity": 47}, {"time": 2729, "pitch": 48, "duration": 6, "velocity": 67}, {"time": 2732, "pitch": 53, "duration": 4, "velocity": 77}, {"time": 2738, "pitch": 46, "duration": 15, "velocity": 127}, {"time": 2738, "pitch": 53, "duration": 9, "velocity": 102}, {"time": 2738, "pitch": 58, "duration": 6, "velocity": 122}, {"time": 2738, "pitch": 62, "duration": 9, "velocity": 97}, {"time": 2750, "pitch": 53, "duration": 9, "velocity": 99}, {"time": 2750, "pitch": 58, "duration": 9, "velocity": 127}, {"time": 2750, "pitch": 62, "duration": 9, "velocity": 97}, {"time": 2759, "pitch": 46, "duration": 4, "velocity": 117}, {"time": 2762, "pitch": 53, "duration": 3, "velocity": 100}, {"time": 2762, "pitch": 58, "duration": 3, "velocity": 122}, {"time": 2762, "pitch": 62, "duration": 3, "velocity": 96}, {"time": 2768, "pitch": 46, "duration": 7, "velocity": 117}, {"time": 2768, "pitch": 53, "duration": 2, "velocity": 93}, {"time": 2768, "pitch": 58, "duration": 2, "velocity": 102}, {"time": 2768, "pitch": 62, "duration": 3, "velocity": 88}, {"time": 2774, "pitch": 53, "duration": 2, "velocity": 92}, {"time": 2774, "pitch": 58, "duration": 3, "velocity": 122}, {"time": 2774, "pitch": 62, "duration": 3, "velocity": 100}, {"time": 2777, "pitch": 46, "duration": 2, "velocity": 107}, {"time": 2780, "pitch": 53, "duration": 3, "velocity": 95}, {"time": 2780, "pitch": 58, "duration": 4, "velocity": 127}, {"time": 2780, "pitch": 62, "duration": 3, "velocity": 96}, {"time": 2786, "pitch": 43, "duration": 14, "velocity": 95}, {"time": 2786, "pitch": 55, "duration": 4, "velocity": 100}, {"time": 2786, "pitch": 58, "duration": 4, "velocity": 127}, {"time": 2786, "pitch": 62, "duration": 4, "velocity": 100}, {"time": 2792, "pitch": 55, "duration": 2, "velocity": 86}, {"time": 2792, "pitch": 58, "duration": 2, "velocity": 102}, {"time": 2792, "pitch": 62, "duration": 2, "velocity": 88}, {"time": 2798, "pitch": 55, "duration": 7, "velocity": 102}, {"time": 2798, "pitch": 58, "duration": 8, "velocity": 122}, {"time": 2798, "pitch": 62, "duration": 8, "velocity": 100}, {"time": 2807, "pitch": 43, "duration": 3, "velocity": 86}, {"time": 2810, "pitch": 55, "duration": 3, "velocity": 92}, {"time": 2810, "pitch": 58, "duration": 3, "velocity": 112}, {"time": 2810, "pitch": 62, "duration": 3, "velocity": 97}, {"time": 2813, "pitch": 43, "duration": 6, "velocity": 96}, {"time": 2816, "pitch": 58, "duration": 3, "velocity": 102}, {"time": 2816, "pitch": 62, "duration": 3, "velocity": 90}, {"time": 2822, "pitch": 58, "duration": 6, "velocity": 127}, {"time": 2822, "pitch": 62, "duration": 5, "velocity": 100}, {"time": 2828, "pitch": 55, "duration": 3, "velocity": 96}, {"time": 2834, "pitch": 39, "duration": 17, "velocity": 95}, {"time": 2834, "pitch": 51, "duration": 12, "velocity": 85}, {"time": 2834, "pitch": 58, "duration": 7, "velocity": 122}, {"time": 2834, "pitch": 63, "duration": 8, "velocity": 117}, {"time": 2840, "pitch": 55, "duration": 2, "velocity": 36}, {"time": 2846, "pitch": 58, "duration": 5, "velocity": 122}, {"time": 2846, "pitch": 63, "duration": 6, "velocity": 127}, {"time": 2849, "pitch": 51, "duration": 2, "velocity": 97}, {"time": 2852, "pitch": 55, "duration": 1, "velocity": 96}, {"time": 2858, "pitch": 38, "duration": 18, "velocity": 85}, {"time": 2858, "pitch": 45, "duration": 1, "velocity": 61}, {"time": 2858, "pitch": 50, "duration": 1, "velocity": 100}, {"time": 2858, "pitch": 53, "duration": 1, "velocity": 99}, {"time": 2858, "pitch": 57, "duration": 1, "velocity": 96}, {"time": 2867, "pitch": 45, "duration": 9, "velocity": 37}, {"time": 2870, "pitch": 50, "duration": 5, "velocity": 83}, {"time": 2870, "pitch": 57, "duration": 3, "velocity": 112}, {"time": 2870, "pitch": 62, "duration": 6, "velocity": 112}, {"time": 2870, "pitch": 65, "duration": 6, "velocity": 102}, {"time": 2876, "pitch": 57, "duration": 1, "velocity": 90}, {"time": 2882, "pitch": 36, "duration": 15, "velocity": 83}, {"time": 2882, "pitch": 55, "duration": 9, "velocity": 99}, {"time": 2882, "pitch": 60, "duration": 9, "velocity": 112}, {"time": 2882, "pitch": 63, "duration": 9, "velocity": 117}, {"time": 2888, "pitch": 43, "duration": 6, "velocity": 62}, {"time": 2894, "pitch": 60, "duration": 5, "velocity": 127}, {"time": 2894, "pitch": 63, "duration": 5, "velocity": 127}, {"time": 2897, "pitch": 43, "duration": 1, "velocity": 96}, {"time": 2900, "pitch": 55, "duration": 2, "velocity": 82}, {"time": 2903, "pitch": 57, "duration": 3, "velocity": 43}, {"time": 2903, "pitch": 60, "duration": 4, "velocity": 57}, {"time": 2906, "pitch": 41, "duration": 19, "velocity": 90}, {"time": 2906, "pitch": 53, "duration": 1, "velocity": 40}, {"time": 2912, "pitch": 53, "duration": 2, "velocity": 99}, {"time": 2912, "pitch": 65, "duration": 2, "velocity": 99}, {"time": 2915, "pitch": 48, "duration": 4, "velocity": 93}, {"time": 2918, "pitch": 55, "duration": 3, "velocity": 96}, {"time": 2918, "pitch": 67, "duration": 2, "velocity": 96}, {"time": 2921, "pitch": 48, "duration": 3, "velocity": 107}, {"time": 2924, "pitch": 57, "duration": 2, "velocity": 100}, {"time": 2930, "pitch": 46, "duration": 40, "velocity": 122}, {"time": 2930, "pitch": 58, "duration": 6, "velocity": 127}, {"time": 2930, "pitch": 62, "duration": 8, "velocity": 100}, {"time": 2936, "pitch": 50, "duration": 34, "velocity": 57}, {"time": 2936, "pitch": 53, "duration": 8, "velocity": 30}, {"time": 2942, "pitch": 58, "duration": 3, "velocity": 127}, {"time": 2942, "pitch": 62, "duration": 3, "velocity": 102}, {"time": 2942, "pitch": 65, "duration": 3, "velocity": 93}, {"time": 2948, "pitch": 53, "duration": 10, "velocity": 67}, {"time": 2948, "pitch": 58, "duration": 1, "velocity": 26}, {"time": 2951, "pitch": 58, "duration": 2, "velocity": 122}, {"time": 2951, "pitch": 62, "duration": 2, "velocity": 99}, {"time": 2951, "pitch": 65, "duration": 2, "velocity": 90}, {"time": 2957, "pitch": 58, "duration": 4, "velocity": 112}, {"time": 2957, "pitch": 62, "duration": 4, "velocity": 93}, {"time": 2957, "pitch": 65, "duration": 5, "velocity": 90}, {"time": 2963, "pitch": 53, "duration": 3, "velocity": 74}, {"time": 2966, "pitch": 58, "duration": 3, "velocity": 127}, {"time": 2966, "pitch": 62, "duration": 5, "velocity": 100}, {"time": 2966, "pitch": 65, "duration": 3, "velocity": 92}, {"time": 2969, "pitch": 53, "duration": 2, "velocity": 90}, {"time": 2972, "pitch": 57, "duration": 3, "velocity": 102}, {"time": 2972, "pitch": 62, "duration": 1, "velocity": 36}, {"time": 2978, "pitch": 43, "duration": 36, "velocity": 73}, {"time": 2978, "pitch": 55, "duration": 7, "velocity": 100}, {"time": 2978, "pitch": 58, "duration": 7, "velocity": 112}, {"time": 2978, "pitch": 62, "duration": 8, "velocity": 97}, {"time": 2984, "pitch": 50, "duration": 8, "velocity": 74}, {"time": 2990, "pitch": 55, "duration": 5, "velocity": 102}, {"time": 2990, "pitch": 58, "duration": 5, "velocity": 127}, {"time": 2990, "pitch": 62, "duration": 5, "velocity": 93}, {"time": 2996, "pitch": 50, "duration": 6, "velocity": 63}, {"time": 2999, "pitch": 55, "duration": 2, "velocity": 93}, {"time": 2999, "pitch": 58, "duration": 4, "velocity": 127}, {"time": 2999, "pitch": 62, "duration": 4, "velocity": 97}, {"time": 3005, "pitch": 55, "duration": 4, "velocity": 92}, {"time": 3005, "pitch": 58, "duration": 5, "velocity": 112}, {"time": 3005, "pitch": 62, "duration": 6, "velocity": 90}, {"time": 3011, "pitch": 50, "duration": 3, "velocity": 86}, {"time": 3014, "pitch": 58, "duration": 4, "velocity": 127}, {"time": 3014, "pitch": 62, "duration": 5, "velocity": 107}, {"time": 3020, "pitch": 55, "duration": 3, "velocity": 117}, {"time": 3026, "pitch": 39, "duration": 16, "velocity": 100}, {"time": 3026, "pitch": 55, "duration": 5, "velocity": 90}, {"time": 3026, "pitch": 58, "duration": 5, "velocity": 112}, {"time": 3026, "pitch": 63, "duration": 5, "velocity": 97}, {"time": 3032, "pitch": 51, "duration": 6, "velocity": 69}, {"time": 3038, "pitch": 58, "duration": 4, "velocity": 127}, {"time": 3038, "pitch": 63, "duration": 4, "velocity": 127}, {"time": 3041, "pitch": 51, "duration": 1, "velocity": 89}, {"time": 3044, "pitch": 57, "duration": 2, "velocity": 56}, {"time": 3050, "pitch": 38, "duration": 18, "velocity": 58}, {"time": 3050, "pitch": 45, "duration": 18, "velocity": 68}, {"time": 3050, "pitch": 50, "duration": 12, "velocity": 88}, {"time": 3050, "pitch": 57, "duration": 9, "velocity": 100}, {"time": 3050, "pitch": 62, "duration": 10, "velocity": 99}, {"time": 3050, "pitch": 65, "duration": 9, "velocity": 95}, {"time": 3062, "pitch": 62, "duration": 6, "velocity": 112}, {"time": 3062, "pitch": 65, "duration": 6, "velocity": 100}, {"time": 3065, "pitch": 50, "duration": 4, "velocity": 99}, {"time": 3068, "pitch": 57, "duration": 1, "velocity": 99}, {"time": 3074, "pitch": 36, "duration": 3, "velocity": 77}, {"time": 3074, "pitch": 55, "duration": 5, "velocity": 95}, {"time": 3074, "pitch": 60, "duration": 4, "velocity": 102}, {"time": 3074, "pitch": 63, "duration": 4, "velocity": 117}, {"time": 3086, "pitch": 39, "duration": 4, "velocity": 66}, {"time": 3086, "pitch": 51, "duration": 5, "velocity": 83}, {"time": 3086, "pitch": 55, "duration": 5, "velocity": 99}, {"time": 3086, "pitch": 58, "duration": 5, "velocity": 127}, {"time": 3086, "pitch": 63, "duration": 5, "velocity": 122}, {"time": 3098, "pitch": 46, "duration": 17, "velocity": 102}, {"time": 3098, "pitch": 58, "duration": 6, "velocity": 127}, {"time": 3098, "pitch": 62, "duration": 6, "velocity": 102}, {"time": 3098, "pitch": 65, "duration": 6, "velocity": 95}, {"time": 3104, "pitch": 50, "duration": 8, "velocity": 58}, {"time": 3104, "pitch": 53, "duration": 6, "velocity": 58}, {"time": 3110, "pitch": 58, "duration": 3, "velocity": 117}, {"time": 3110, "pitch": 62, "duration": 3, "velocity": 99}, {"time": 3110, "pitch": 65, "duration": 3, "velocity": 86}, {"time": 3113, "pitch": 50, "duration": 2, "velocity": 46}, {"time": 3113, "pitch": 53, "duration": 2, "velocity": 95}, {"time": 3116, "pitch": 58, "duration": 3, "velocity": 122}, {"time": 3116, "pitch": 62, "duration": 2, "velocity": 68}, {"time": 3116, "pitch": 65, "duration": 1, "velocity": 42}, {"time": 3122, "pitch": 46, "duration": 15, "velocity": 127}, {"time": 3122, "pitch": 53, "duration": 9, "velocity": 102}, {"time": 3122, "pitch": 58, "duration": 6, "velocity": 122}, {"time": 3122, "pitch": 62, "duration": 9, "velocity": 97}, {"time": 3134, "pitch": 53, "duration": 9, "velocity": 99}, {"time": 3134, "pitch": 58, "duration": 9, "velocity": 127}, {"time": 3134, "pitch": 62, "duration": 9, "velocity": 97}, {"time": 3143, "pitch": 46, "duration": 4, "velocity": 117}, {"time": 3146, "pitch": 53, "duration": 3, "velocity": 100}, {"time": 3146, "pitch": 58, "duration": 3, "velocity": 122}, {"time": 3146, "pitch": 62, "duration": 3, "velocity": 96}, {"time": 3152, "pitch": 46, "duration": 7, "velocity": 117}, {"time": 3152, "pitch": 53, "duration": 2, "velocity": 93}, {"time": 3152, "pitch": 58, "duration": 2, "velocity": 102}, {"time": 3152, "pitch": 62, "duration": 3, "velocity": 88}, {"time": 3158, "pitch": 53, "duration": 2, "velocity": 92}, {"time": 3158, "pitch": 58, "duration": 3, "velocity": 122}, {"time": 3158, "pitch": 62, "duration": 3, "velocity": 100}, {"time": 3161, "pitch": 46, "duration": 2, "velocity": 107}, {"time": 3164, "pitch": 53, "duration": 3, "velocity": 95}, {"time": 3164, "pitch": 58, "duration": 4, "velocity": 127}, {"time": 3164, "pitch": 62, "duration": 3, "velocity": 96}, {"time": 3170, "pitch": 43, "duration": 14, "velocity": 95}, {"time": 3170, "pitch": 55, "duration": 4, "velocity": 100}, {"time": 3170, "pitch": 58, "duration": 4, "velocity": 127}, {"time": 3170, "pitch": 62, "duration": 4, "velocity": 100}, {"time": 3176, "pitch": 55, "duration": 2, "velocity": 86}, {"time": 3176, "pitch": 58, "duration": 2, "velocity": 102}, {"time": 3176, "pitch": 62, "duration": 2, "velocity": 88}, {"time": 3182, "pitch": 55, "duration": 7, "velocity": 102}, {"time": 3182, "pitch": 58, "duration": 8, "velocity": 122}, {"time": 3182, "pitch": 62, "duration": 8, "velocity": 100}, {"time": 3191, "pitch": 43, "duration": 3, "velocity": 86}, {"time": 3194, "pitch": 55, "duration": 3, "velocity": 92}, {"time": 3194, "pitch": 58, "duration": 3, "velocity": 112}, {"time": 3194, "pitch": 62, "duration": 3, "velocity": 97}, {"time": 3197, "pitch": 43, "duration": 6, "velocity": 96}, {"time": 3200, "pitch": 58, "duration": 3, "velocity": 102}, {"time": 3200, "pitch": 62, "duration": 3, "velocity": 90}, {"time": 3206, "pitch": 58, "duration": 6, "velocity": 127}, {"time": 3206, "pitch": 62, "duration": 5, "velocity": 100}, {"time": 3212, "pitch": 55, "duration": 3, "velocity": 96}, {"time": 3218, "pitch": 39, "duration": 17, "velocity": 95}, {"time": 3218, "pitch": 51, "duration": 12, "velocity": 85}, {"time": 3218, "pitch": 58, "duration": 7, "velocity": 122}, {"time": 3218, "pitch": 63, "duration": 8, "velocity": 117}, {"time": 3224, "pitch": 55, "duration": 2, "velocity": 36}, {"time": 3230, "pitch": 58, "duration": 5, "velocity": 122}, {"time": 3230, "pitch": 63, "duration": 6, "velocity": 127}, {"time": 3233, "pitch": 51, "duration": 2, "velocity": 97}, {"time": 3236, "pitch": 55, "duration": 1, "velocity": 96}, {"time": 3242, "pitch": 38, "duration": 18, "velocity": 85}, {"time": 3242, "pitch": 45, "duration": 1, "velocity": 61}, {"time": 3242, "pitch": 50, "duration": 1, "velocity": 100}, {"time": 3242, "pitch": 53, "duration": 1, "velocity": 99}, {"time": 3242, "pitch": 57, "duration": 1, "velocity": 96}, {"time": 3251, "pitch": 45, "duration": 9, "velocity": 37}, {"time": 3254, "pitch": 50, "duration": 5, "velocity": 83}, {"time": 3254, "pitch": 57, "duration": 3, "velocity": 112}, {"time": 3254, "pitch": 62, "duration": 6, "velocity": 112}, {"time": 3254, "pitch": 65, "duration": 6, "velocity": 102}, {"time": 3260, "pitch": 57, "duration": 1, "velocity": 90}, {"time": 3266, "pitch": 36, "duration": 15, "velocity": 83}, {"time": 3266, "pitch": 55, "duration": 9, "velocity": 99}, {"time": 3266, "pitch": 60, "duration": 9, "velocity": 112}, {"time": 3266, "pitch": 63, "duration": 9, "velocity": 117}, {"time": 3272, "pitch": 43, "duration": 6, "velocity": 62}, {"time": 3278, "pitch": 60, "duration": 5, "velocity": 127}, {"time": 3278, "pitch": 63, "duration": 5, "velocity": 127}, {"time": 3281, "pitch": 43, "duration": 1, "velocity": 96}, {"time": 3284, "pitch": 55, "duration": 2, "velocity": 82}, {"time": 3287, "pitch": 57, "duration": 3, "velocity": 43}, {"time": 3287, "pitch": 60, "duration": 4, "velocity": 57}, {"time": 3290, "pitch": 41, "duration": 19, "velocity": 90}, {"time": 3290, "pitch": 53, "duration": 1, "velocity": 40}, {"time": 3296, "pitch": 53, "duration": 2, "velocity": 99}, {"time": 3296, "pitch": 65, "duration": 2, "velocity": 99}, {"time": 3299, "pitch": 48, "duration": 4, "velocity": 93}, {"time": 3302, "pitch": 55, "duration": 3, "velocity": 96}, {"time": 3302, "pitch": 67, "duration": 2, "velocity": 96}, {"time": 3305, "pitch": 48, "duration": 3, "velocity": 107}, {"time": 3308, "pitch": 57, "duration": 2, "velocity": 100}, {"time": 3314, "pitch": 46, "duration": 40, "velocity": 122}, {"time": 3314, "pitch": 58, "duration": 6, "velocity": 127}, {"time": 3314, "pitch": 62, "duration": 8, "velocity": 100}, {"time": 3320, "pitch": 50, "duration": 34, "velocity": 57}, {"time": 3320, "pitch": 53, "duration": 8, "velocity": 30}, {"time": 3326, "pitch": 58, "duration": 3, "velocity": 127}, {"time": 3326, "pitch": 62, "duration": 3, "velocity": 102}, {"time": 3326, "pitch": 65, "duration": 3, "velocity": 93}, {"time": 3332, "pitch": 53, "duration": 10, "velocity": 67}, {"time": 3332, "pitch": 58, "duration": 1, "velocity": 26}, {"time": 3335, "pitch": 58, "duration": 2, "velocity": 122}, {"time": 3335, "pitch": 62, "duration": 2, "velocity": 99}, {"time": 3335, "pitch": 65, "duration": 2, "velocity": 90}, {"time": 3341, "pitch": 58, "duration": 4, "velocity": 112}, {"time": 3341, "pitch": 62, "duration": 4, "velocity": 93}, {"time": 3341, "pitch": 65, "duration": 5, "velocity": 90}, {"time": 3347, "pitch": 53, "duration": 3, "velocity": 74}, {"time": 3350, "pitch": 58, "duration": 3, "velocity": 127}, {"time": 3350, "pitch": 62, "duration": 5, "velocity": 100}, {"time": 3350, "pitch": 65, "duration": 3, "velocity": 92}, {"time": 3353, "pitch": 53, "duration": 2, "velocity": 90}, {"time": 3356, "pitch": 57, "duration": 3, "velocity": 102}, {"time": 3356, "pitch": 62, "duration": 1, "velocity": 36}, {"time": 3362, "pitch": 43, "duration": 36, "velocity": 73}, {"time": 3362, "pitch": 55, "duration": 7, "velocity": 100}, {"time": 3362, "pitch": 58, "duration": 7, "velocity": 112}, {"time": 3362, "pitch": 62, "duration": 8, "velocity": 97}, {"time": 3368, "pitch": 50, "duration": 8, "velocity": 74}, {"time": 3374, "pitch": 55, "duration": 5, "velocity": 102}, {"time": 3374, "pitch": 58, "duration": 5, "velocity": 127}, {"time": 3374, "pitch": 62, "duration": 5, "velocity": 93}, {"time": 3380, "pitch": 50, "duration": 6, "velocity": 63}, {"time": 3383, "pitch": 55, "duration": 2, "velocity": 93}, {"time": 3383, "pitch": 58, "duration": 4, "velocity": 127}, {"time": 3383, "pitch": 62, "duration": 4, "velocity": 97}, {"time": 3389, "pitch": 55, "duration": 4, "velocity": 92}, {"time": 3389, "pitch": 58, "duration": 5, "velocity": 112}, {"time": 3389, "pitch": 62, "duration": 6, "velocity": 90}, {"time": 3395, "pitch": 50, "duration": 3, "velocity": 86}, {"time": 3398, "pitch": 58, "duration": 4, "velocity": 127}, {"time": 3398, "pitch": 62, "duration": 5, "velocity": 107}, {"time": 3404, "pitch": 55, "duration": 3, "velocity": 117}, {"time": 3410, "pitch": 39, "duration": 16, "velocity": 100}, {"time": 3410, "pitch": 55, "duration": 5, "velocity": 90}, {"time": 3410, "pitch": 58, "duration": 5, "velocity": 112}, {"time": 3410, "pitch": 63, "duration": 5, "velocity": 97}, {"time": 3416, "pitch": 51, "duration": 6, "velocity": 69}, {"time": 3422, "pitch": 58, "duration": 4, "velocity": 127}, {"time": 3422, "pitch": 63, "duration": 4, "velocity": 127}, {"time": 3425, "pitch": 51, "duration": 1, "velocity": 89}, {"time": 3428, "pitch": 57, "duration": 2, "velocity": 56}, {"time": 3434, "pitch": 38, "duration": 18, "velocity": 58}, {"time": 3434, "pitch": 45, "duration": 18, "velocity": 68}, {"time": 3434, "pitch": 50, "duration": 12, "velocity": 88}, {"time": 3434, "pitch": 57, "duration": 9, "velocity": 100}, {"time": 3434, "pitch": 62, "duration": 10, "velocity": 99}, {"time": 3434, "pitch": 65, "duration": 9, "velocity": 95}, {"time": 3446, "pitch": 62, "duration": 6, "velocity": 112}, {"time": 3446, "pitch": 65, "duration": 6, "velocity": 100}, {"time": 3449, "pitch": 50, "duration": 4, "velocity": 99}, {"time": 3452, "pitch": 57, "duration": 1, "velocity": 99}, {"time": 3458, "pitch": 36, "duration": 3, "velocity": 77}, {"time": 3458, "pitch": 55, "duration": 5, "velocity": 95}, {"time": 3458, "pitch": 60, "duration": 4, "velocity": 102}, {"time": 3458, "pitch": 63, "duration": 4, "velocity": 117}, {"time": 3470, "pitch": 39, "duration": 4, "velocity": 66}, {"time": 3470, "pitch": 51, "duration": 5, "velocity": 83}, {"time": 3470, "pitch": 55, "duration": 5, "velocity": 99}, {"time": 3470, "pitch": 58, "duration": 5, "velocity": 127}, {"time": 3470, "pitch": 63, "duration": 5, "velocity": 122}, {"time": 3482, "pitch": 46, "duration": 17, "velocity": 102}, {"time": 3482, "pitch": 58, "duration": 6, "velocity": 127}, {"time": 3482, "pitch": 62, "duration": 6, "velocity": 102}, {"time": 3482, "pitch": 65, "duration": 6, "velocity": 95}, {"time": 3488, "pitch": 50, "duration": 8, "velocity": 58}, {"time": 3488, "pitch": 53, "duration": 6, "velocity": 58}, {"time": 3494, "pitch": 58, "duration": 3, "velocity": 117}, {"time": 3494, "pitch": 62, "duration": 3, "velocity": 99}, {"time": 3494, "pitch": 65, "duration": 3, "velocity": 86}, {"time": 3497, "pitch": 50, "duration": 2, "velocity": 46}, {"time": 3497, "pitch": 53, "duration": 2, "velocity": 95}, {"time": 3500, "pitch": 58, "duration": 3, "velocity": 122}, {"time": 3500, "pitch": 62, "duration": 2, "velocity": 68}, {"time": 3500, "pitch": 65, "duration": 1, "velocity": 42}, {"time": 3506, "pitch": 39, "duration": 16, "velocity": 100}, {"time": 3506, "pitch": 55, "duration": 5, "velocity": 90}, {"time": 3506, "pitch": 58, "duration": 5, "velocity": 112}, {"time": 3506, "pitch": 63, "duration": 5, "velocity": 97}, {"time": 3512, "pitch": 51, "duration": 6, "velocity": 69}, {"time": 3518, "pitch": 58, "duration": 4, "velocity": 127}, {"time": 3518, "pitch": 63, "duration": 4, "velocity": 127}, {"time": 3521, "pitch": 51, "duration": 1, "velocity": 89}, {"time": 3524, "pitch": 57, "duration": 2, "velocity": 56}, {"time": 3530, "pitch": 38, "duration": 18, "velocity": 58}, {"time": 3530, "pitch": 45, "duration": 18, "velocity": 68}, {"time": 3530, "pitch": 50, "duration": 12, "velocity": 88}, {"time": 3530, "pitch": 57, "duration": 9, "velocity": 100}, {"time": 3530, "pitch": 62, "duration": 10, "velocity": 99}, {"time": 3530, "pitch": 65, "duration": 9, "velocity": 95}, {"time": 3542, "pitch": 62, "duration": 6, "velocity": 112}, {"time": 3542, "pitch": 65, "duration": 6, "velocity": 100}, {"time": 3545, "pitch": 50, "duration": 4, "velocity": 99}, {"time": 3548, "pitch": 57, "duration": 1, "velocity": 99}, {"time": 3554, "pitch": 36, "duration": 3, "velocity": 77}, {"time": 3554, "pitch": 55, "duration": 5, "velocity": 95}, {"time": 3554, "pitch": 60, "duration": 4, "velocity": 102}, {"time": 3554, "pitch": 63, "duration": 4, "velocity": 117}, {"time": 3566, "pitch": 39, "duration": 4, "velocity": 66}, {"time": 3566, "pitch": 51, "duration": 5, "velocity": 83}, {"time": 3566, "pitch": 55, "duration": 5, "velocity": 99}, {"time": 3566, "pitch": 58, "duration": 5, "velocity": 127}, {"time": 3566, "pitch": 63, "duration": 5, "velocity": 122}, {"time": 3578, "pitch": 46, "duration": 17, "velocity": 102}, {"time": 3578, "pitch": 58, "duration": 6, "velocity": 127}, {"time": 3578, "pitch": 62, "duration": 6, "velocity": 102}, {"time": 3578, "pitch": 65, "duration": 6, "velocity": 95}, {"time": 3584, "pitch": 50, "duration": 8, "velocity": 58}, {"time": 3584, "pitch": 53, "duration": 6, "velocity": 58}, {"time": 3590, "pitch": 58, "duration": 3, "velocity": 117}, {"time": 3590, "pitch": 62, "duration": 3, "velocity": 99}, {"time": 3590, "pitch": 65, "duration": 3, "velocity": 86}, {"time": 3593, "pitch": 50, "duration": 2, "velocity": 46}, {"time": 3593, "pitch": 53, "duration": 2, "velocity": 95}, {"time": 3596, "pitch": 58, "duration": 3, "velocity": 122}, {"time": 3596, "pitch": 62, "duration": 2, "velocity": 68}, {"time": 3596, "pitch": 65, "duration": 1, "velocity": 42}, {"time": 3602, "pitch": 46, "duration": 2, "velocity": 117}, {"time": 3602, "pitch": 53, "duration": 2, "velocity": 76}, {"time": 3602, "pitch": 58, "duration": 2, "velocity": 117}, {"time": 3602, "pitch": 62, "duration": 2, "velocity": 96}, {"time": 3608, "pitch": 46, "duration": 7, "velocity": 127}, {"time": 3608, "pitch": 53, "duration": 5, "velocity": 83}, {"time": 3608, "pitch": 58, "duration": 4, "velocity": 112}, {"time": 3608, "pitch": 62, "duration": 3, "velocity": 96}, {"time": 3614, "pitch": 58, "duration": 5, "velocity": 127}, {"time": 3614, "pitch": 62, "duration": 6, "velocity": 100}, {"time": 3620, "pitch": 46, "duration": 11, "velocity": 95}, {"time": 3623, "pitch": 58, "duration": 2, "velocity": 100}, {"time": 3623, "pitch": 62, "duration": 2, "velocity": 85}, {"time": 3629, "pitch": 58, "duration": 3, "velocity": 107}, {"time": 3629, "pitch": 62, "duration": 5, "velocity": 93}, {"time": 3632, "pitch": 53, "duration": 2, "velocity": 38}, {"time": 3635, "pitch": 46, "duration": 3, "velocity": 107}, {"time": 3638, "pitch": 58, "duration": 3, "velocity": 127}, {"time": 3638, "pitch": 62, "duration": 3, "velocity": 99}, {"time": 3641, "pitch": 46, "duration": 5, "velocity": 107}, {"time": 3644, "pitch": 58, "duration": 4, "velocity": 127}, {"time": 3644, "pitch": 62, "duration": 4, "velocity": 96}, {"time": 3650, "pitch": 43, "duration": 2, "velocity": 88}, {"time": 3650, "pitch": 55, "duration": 2, "velocity": 95}, {"time": 3650, "pitch": 58, "duration": 2, "velocity": 107}, {"time": 3650, "pitch": 62, "duration": 2, "velocity": 88}, {"time": 3656, "pitch": 43, "duration": 12, "velocity": 100}, {"time": 3656, "pitch": 55, "duration": 9, "velocity": 89}, {"time": 3656, "pitch": 58, "duration": 9, "velocity": 122}, {"time": 3656, "pitch": 62, "duration": 9, "velocity": 92}, {"time": 3668, "pitch": 55, "duration": 4, "velocity": 100}, {"time": 3668, "pitch": 58, "duration": 2, "velocity": 122}, {"time": 3668, "pitch": 62, "duration": 4, "velocity": 97}, {"time": 3671, "pitch": 43, "duration": 2, "velocity": 97}, {"time": 3677, "pitch": 55, "duration": 5, "velocity": 88}, {"time": 3677, "pitch": 58, "duration": 5, "velocity": 122}, {"time": 3677, "pitch": 62, "duration": 5, "velocity": 96}, {"time": 3683, "pitch": 43, "duration": 2, "velocity": 99}, {"time": 3686, "pitch": 55, "duration": 2, "velocity": 92}, {"time": 3686, "pitch": 58, "duration": 3, "velocity": 122}, {"time": 3686, "pitch": 62, "duration": 3, "velocity": 95}, {"time": 3689, "pitch": 43, "duration": 1, "velocity": 97}, {"time": 3692, "pitch": 58, "duration": 2, "velocity": 107}, {"time": 3692, "pitch": 62, "duration": 1, "velocity": 70}, {"time": 3695, "pitch": 55, "duration": 1, "velocity": 31}, {"time": 3698, "pitch": 39, "duration": 2, "velocity": 102}, {"time": 3698, "pitch": 51, "duration": 2, "velocity": 73}, {"time": 3698, "pitch": 55, "duration": 3, "velocity": 92}, {"time": 3698, "pitch": 58, "duration": 3, "velocity": 127}, {"time": 3698, "pitch": 63, "duration": 3, "velocity": 117}, {"time": 3704, "pitch": 39, "duration": 12, "velocity": 97}, {"time": 3704, "pitch": 51, "duration": 11, "velocity": 95}, {"time": 3704, "pitch": 55, "duration": 3, "velocity": 81}, {"time": 3704, "pitch": 58, "duration": 4, "velocity": 112}, {"time": 3704, "pitch": 63, "duration": 4, "velocity": 107}, {"time": 3710, "pitch": 58, "duration": 3, "velocity": 127}, {"time": 3710, "pitch": 63, "duration": 4, "velocity": 127}, {"time": 3716, "pitch": 55, "duration": 3, "velocity": 69}, {"time": 3716, "pitch": 58, "duration": 3, "velocity": 95}, {"time": 3716, "pitch": 63, "duration": 4, "velocity": 82}, {"time": 3719, "pitch": 39, "duration": 3, "velocity": 82}, {"time": 3719, "pitch": 51, "duration": 3, "velocity": 96}, {"time": 3725, "pitch": 39, "duration": 2, "velocity": 78}, {"time": 3725, "pitch": 51, "duration": 2, "velocity": 93}, {"time": 3731, "pitch": 39, "duration": 1, "velocity": 78}, {"time": 3731, "pitch": 51, "duration": 2, "velocity": 90}, {"time": 3734, "pitch": 58, "duration": 6, "velocity": 127}, {"time": 3734, "pitch": 63, "duration": 6, "velocity": 117}, {"time": 3740, "pitch": 55, "duration": 2, "velocity": 97}, {"time": 3743, "pitch": 57, "duration": 1, "velocity": 40}, {"time": 3746, "pitch": 41, "duration": 2, "velocity": 56}, {"time": 3746, "pitch": 48, "duration": 3, "velocity": 72}, {"time": 3746, "pitch": 53, "duration": 2, "velocity": 100}, {"time": 3746, "pitch": 57, "duration": 3, "velocity": 96}, {"time": 3746, "pitch": 60, "duration": 3, "velocity": 90}, {"time": 3752, "pitch": 41, "duration": 13, "velocity": 75}, {"time": 3752, "pitch": 48, "duration": 13, "velocity": 89}, {"time": 3752, "pitch": 53, "duration": 7, "velocity": 89}, {"time": 3752, "pitch": 57, "duration": 7, "velocity": 96}, {"time": 3752, "pitch": 60, "duration": 7, "velocity": 92}, {"time": 3761, "pitch": 57, "duration": 2, "velocity": 56}, {"time": 3761, "pitch": 60, "duration": 1, "velocity": 38}, {"time": 3770, "pitch": 41, "duration": 3, "velocity": 55}, {"time": 3770, "pitch": 53, "duration": 3, "velocity": 89}, {"time": 3770, "pitch": 60, "duration": 4, "velocity": 93}, {"time": 3770, "pitch": 65, "duration": 3, "velocity": 96}, {"time": 3770, "pitch": 69, "duration": 3, "velocity": 90}, {"time": 3776, "pitch": 41, "duration": 7, "velocity": 76}, {"time": 3776, "pitch": 53, "duration": 7, "velocity": 96}, {"time": 3776, "pitch": 60, "duration": 7, "velocity": 96}, {"time": 3776, "pitch": 65, "duration": 6, "velocity": 100}, {"time": 3776, "pitch": 69, "duration": 6, "velocity": 93}, {"time": 3794, "pitch": 34, "duration": 97, "velocity": 112}, {"time": 3794, "pitch": 46, "duration": 96, "velocity": 112}, {"time": 3794, "pitch": 58, "duration": 97, "velocity": 117}, {"time": 3794, "pitch": 62, "duration": 97, "velocity": 100}, {"time": 3794, "pitch": 65, "duration": 97, "velocity": 92}], "annotations": [{"time": 2, "annotation": {"number": 64, "value": 127}, "group": "control_change"}, {"time": 23, "annotation": {"number": 64, "value": 0}, "group": "control_change"}, {"time": 26, "annotation": {"number": 64, "value": 127}, "group": "control_change"}, {"time": 48, "annotation": {"number": 64, "value": 0}, "group": "control_change"}, {"time": 50, "annotation": {"number": 64, "value": 127}, "group": "control_change"}, {"time": 96, "annotation": {"number": 64, "value": 0}, "group": "control_change"}, {"time": 98, "annotation": {"number": 64, "value": 127}, "group": "control_change"}, {"time": 143, "annotation": {"number": 64, "value": 0}, "group": "control_change"}, {"time": 146, "annotation": {"number": 64, "value": 127}, "group": "control_change"}, {"time": 156, "annotation": {"number": 64, "value": 0}, "group": "control_change"}, {"time": 158, "annotation": {"number": 64, "value": 127}, "group": "control_change"}, {"time": 165, "annotation": {"number": 64, "value": 0}, "group": "control_change"}, {"time": 167, "annotation": {"number": 64, "value": 127}, "group": "control_change"}, {"time": 172, "annotation": {"number": 64, "value": 0}, "group": "control_change"}, {"time": 174, "annotation": {"number": 64, "value": 127}, "group": "control_change"}, {"time": 178, "annotation": {"number": 64, "value": 0}, "group": "control_change"}, {"time": 182, "annotation": {"number": 64, "value": 127}, "group": "control_change"}, {"time": 184, "annotation": {"number": 64, "value": 0}, "group": "control_change"}, {"time": 193, "annotation": {"number": 64, "value": 127}, "group": "control_change"}, {"time": 196, "annotation": {"number": 64, "value": 0}, "group": "control_change"}, {"time": 205, "annotation": {"number": 64, "value": 127}, "group": "control_change"}, {"time": 212, "annotation": {"number": 64, "value": 0}, "group": "control_change"}, {"time": 216, "annotation": {"number": 64, "value": 127}, "group": "control_change"}, {"time": 219, "annotation": {"number": 64, "value": 0}, "group": "control_change"}, {"time": 222, "annotation": {"number": 64, "value": 127}, "group": "control_change"}, {"time": 238, "annotation": {"number": 64, "value": 0}, "group": "control_change"}, {"time": 242, "annotation": {"number": 64, "value": 127}, "group": "control_change"}, {"time": 248, "annotation": {"number": 64, "value": 0}, "group": "control_change"}, {"time": 254, "annotation": {"number": 64, "value": 127}, "group": "control_change"}, {"time": 261, "annotation": {"number": 64, "value": 0}, "group": "control_change"}, {"time": 265, "annotation": {"number": 64, "value": 127}, "group": "control_change"}, {"time": 286, "annotation": {"number": 64, "value": 0}, "group": "control_change"}, {"time": 290, "annotation": {"number": 64, "value": 127}, "group": "control_change"}, {"time": 300, "annotation": {"number": 64, "value": 0}, "group": "control_change"}, {"time": 301, "annotation": {"number": 64, "value": 127}, "group": "control_change"}, {"time": 335, "annotation": {"number": 64, "value": 0}, "group": "control_change"}, {"time": 338, "annotation": {"number": 64, "value": 127}, "group": "control_change"}, {"time": 360, "annotation": {"number": 64, "value": 0}, "group": "control_change"}, {"time": 385, "annotation": {"number": 64, "value": 127}, "group": "control_change"}, {"time": 431, "annotation": {"number": 64, "value": 0}, "group": "control_change"}, {"time": 431, "annotation": {"number": 64, "value": 127}, "group": "control_change"}, {"time": 434, "annotation": {"number": 64, "value": 127}, "group": "control_change"}, {"time": 455, "annotation": {"number": 64, "value": 0}, "group": "control_change"}, {"time": 458, "annotation": {"number": 64, "value": 127}, "group": "control_change"}, {"time": 478, "annotation": {"number": 64, "value": 0}, "group": "control_change"}, {"time": 481, "annotation": {"number": 64, "value": 127}, "group": "control_change"}, {"time": 526, "annotation": {"number": 64, "value": 0}, "group": "control_change"}, {"time": 529, "annotation": {"number": 64, "value": 127}, "group": "control_change"}, {"time": 575, "annotation": {"number": 64, "value": 0}, "group": "control_change"}, {"time": 577, "annotation": {"number": 64, "value": 127}, "group": "control_change"}, {"time": 623, "annotation": {"number": 64, "value": 0}, "group": "control_change"}, {"time": 626, "annotation": {"number": 64, "value": 127}, "group": "control_change"}, {"time": 646, "annotation": {"number": 64, "value": 0}, "group": "control_change"}, {"time": 649, "annotation": {"number": 64, "value": 127}, "group": "control_change"}, {"time": 671, "annotation": {"number": 64, "value": 0}, "group": "control_change"}, {"time": 673, "annotation": {"number": 64, "value": 127}, "group": "control_change"}, {"time": 695, "annotation": {"number": 64, "value": 0}, "group": "control_change"}, {"time": 697, "annotation": {"number": 64, "value": 127}, "group": "control_change"}, {"time": 719, "annotation": {"number": 64, "value": 0}, "group": "control_change"}, {"time": 721, "annotation": {"number": 64, "value": 127}, "group": "control_change"}, {"time": 722, "annotation": {"number": 64, "value": 127}, "group": "control_change"}, {"time": 729, "annotation": {"number": 64, "value": 0}, "group": "control_change"}, {"time": 743, "annotation": {"number": 64, "value": 0}, "group": "control_change"}, {"time": 745, "annotation": {"number": 64, "value": 127}, "group": "control_change"}, {"time": 767, "annotation": {"number": 64, "value": 0}, "group": "control_change"}, {"time": 815, "annotation": {"number": 64, "value": 0}, "group": "control_change"}, {"time": 815, "annotation": {"number": 64, "value": 127}, "group": "control_change"}, {"time": 818, "annotation": {"number": 64, "value": 127}, "group": "control_change"}, {"time": 839, "annotation": {"number": 64, "value": 0}, "group": "control_change"}, {"time": 842, "annotation": {"number": 64, "value": 127}, "group": "control_change"}, {"time": 862, "annotation": {"number": 64, "value": 0}, "group": "control_change"}, {"time": 865, "annotation": {"number": 64, "value": 127}, "group": "control_change"}, {"time": 910, "annotation": {"number": 64, "value": 0}, "group": "control_change"}, {"time": 913, "annotation": {"number": 64, "value": 127}, "group": "control_change"}, {"time": 959, "annotation": {"number": 64, "value": 0}, "group": "control_change"}, {"time": 961, "annotation": {"number": 64, "value": 127}, "group": "control_change"}, {"time": 1007, "annotation": {"number": 64, "value": 0}, "group": "control_change"}, {"time": 1010, "annotation": {"number": 64, "value": 127}, "group": "control_change"}, {"time": 1030, "annotation": {"number": 64, "value": 0}, "group": "control_change"}, {"time": 1033, "annotation": {"number": 64, "value": 127}, "group": "control_change"}, {"time": 1055, "annotation": {"number": 64, "value": 0}, "group": "control_change"}, {"time": 1057, "annotation": {"number": 64, "value": 127}, "group": "control_change"}, {"time": 1079, "annotation": {"number": 64, "value": 0}, "group": "control_change"}, {"time": 1081, "annotation": {"number": 64, "value": 127}, "group": "control_change"}, {"time": 1103, "annotation": {"number": 64, "value": 0}, "group": "control_change"}, {"time": 1105, "annotation": {"number": 64, "value": 127}, "group": "control_change"}, {"time": 1106, "annotation": {"number": 64, "value": 127}, "group": "control_change"}, {"time": 1113, "annotation": {"number": 64, "value": 0}, "group": "control_change"}, {"time": 1127, "annotation": {"number": 64, "value": 0}, "group": "control_change"}, {"time": 1129, "annotation": {"number": 64, "value": 127}, "group": "control_change"}, {"time": 1151, "annotation": {"number": 64, "value": 0}, "group": "control_change"}, {"time": 1152, "annotation": {"number": 64, "value": 127}, "group": "control_change"}, {"time": 1168, "annotation": {"number": 64, "value": 0}, "group": "control_change"}, {"time": 1189, "annotation": {"number": 64, "value": 127}, "group": "control_change"}, {"time": 1198, "annotation": {"number": 64, "value": 0}, "group": "control_change"}, {"time": 1201, "annotation": {"number": 64, "value": 127}, "group": "control_change"}, {"time": 1223, "annotation": {"number": 64, "value": 0}, "group": "control_change"}, {"time": 1225, "annotation": {"number": 64, "value": 127}, "group": "control_change"}, {"time": 1247, "annotation": {"number": 64, "value": 0}, "group": "control_change"}, {"time": 1249, "annotation": {"number": 64, "value": 127}, "group": "control_change"}, {"time": 1272, "annotation": {"number": 64, "value": 0}, "group": "control_change"}, {"time": 1273, "annotation": {"number": 64, "value": 127}, "group": "control_change"}, {"time": 1295, "annotation": {"number": 64, "value": 0}, "group": "control_change"}, {"time": 1298, "annotation": {"number": 64, "value": 127}, "group": "control_change"}, {"time": 1319, "annotation": {"number": 64, "value": 0}, "group": "control_change"}, {"time": 1322, "annotation": {"number": 64, "value": 127}, "group": "control_change"}, {"time": 1342, "annotation": {"number": 64, "value": 0}, "group": "control_change"}, {"time": 1345, "annotation": {"number": 64, "value": 127}, "group": "control_change"}, {"time": 1367, "annotation": {"number": 64, "value": 0}, "group": "control_change"}, {"time": 1370, "annotation": {"number": 64, "value": 127}, "group": "control_change"}, {"time": 1416, "annotation": {"number": 64, "value": 0}, "group": "control_change"}, {"time": 1417, "annotation": {"number": 64, "value": 127}, "group": "control_change"}, {"time": 1464, "annotation": {"number": 64, "value": 0}, "group": "control_change"}, {"time": 1465, "annotation": {"number": 64, "value": 127}, "group": "control_change"}, {"time": 1466, "annotation": {"number": 64, "value": 127}, "group": "control_change"}, {"time": 1487, "annotation": {"number": 64, "value": 0}, "group": "control_change"}, {"time": 1490, "annotation": {"number": 64, "value": 127}, "group": "control_change"}, {"time": 1511, "annotation": {"number": 64, "value": 0}, "group": "control_change"}, {"time": 1513, "annotation": {"number": 64, "value": 127}, "group": "control_change"}, {"time": 1524, "annotation": {"number": 64, "value": 0}, "group": "control_change"}, {"time": 1527, "annotation": {"number": 64, "value": 127}, "group": "control_change"}, {"time": 1535, "annotation": {"number": 64, "value": 0}, "group": "control_change"}, {"time": 1538, "annotation": {"number": 64, "value": 127}, "group": "control_change"}, {"time": 1559, "annotation": {"number": 64, "value": 0}, "group": "control_change"}, {"time": 1561, "annotation": {"number": 64, "value": 127}, "group": "control_change"}, {"time": 1608, "annotation": {"number": 64, "value": 0}, "group": "control_change"}, {"time": 1609, "annotation": {"number": 64, "value": 127}, "group": "control_change"}, {"time": 1620, "annotation": {"number": 64, "value": 0}, "group": "control_change"}, {"time": 1622, "annotation": {"number": 64, "value": 127}, "group": "control_change"}, {"time": 1655, "annotation": {"number": 64, "value": 0}, "group": "control_change"}, {"time": 1657, "annotation": {"number": 64, "value": 127}, "group": "control_change"}, {"time": 1704, "annotation": {"number": 64, "value": 0}, "group": "control_change"}, {"time": 1706, "annotation": {"number": 64, "value": 127}, "group": "control_change"}, {"time": 1726, "annotation": {"number": 64, "value": 0}, "group": "control_change"}, {"time": 1728, "annotation": {"number": 64, "value": 127}, "group": "control_change"}, {"time": 1752, "annotation": {"number": 64, "value": 0}, "group": "control_change"}, {"time": 1754, "annotation": {"number": 64, "value": 127}, "group": "control_change"}, {"time": 1764, "annotation": {"number": 64, "value": 0}, "group": "control_change"}, {"time": 1766, "annotation": {"number": 64, "value": 127}, "group": "control_change"}, {"time": 1799, "annotation": {"number": 64, "value": 0}, "group": "control_change"}, {"time": 1802, "annotation": {"number": 64, "value": 127}, "group": "control_change"}, {"time": 1813, "annotation": {"number": 64, "value": 0}, "group": "control_change"}, {"time": 1814, "annotation": {"number": 64, "value": 127}, "group": "control_change"}, {"time": 1848, "annotation": {"number": 64, "value": 0}, "group": "control_change"}, {"time": 1850, "annotation": {"number": 64, "value": 127}, "group": "control_change"}, {"time": 1896, "annotation": {"number": 64, "value": 0}, "group": "control_change"}, {"time": 1898, "annotation": {"number": 64, "value": 127}, "group": "control_change"}, {"time": 1909, "annotation": {"number": 64, "value": 0}, "group": "control_change"}, {"time": 1910, "annotation": {"number": 64, "value": 127}, "group": "control_change"}, {"time": 1921, "annotation": {"number": 64, "value": 0}, "group": "control_change"}, {"time": 1923, "annotation": {"number": 64, "value": 127}, "group": "control_change"}, {"time": 1936, "annotation": {"number": 64, "value": 0}, "group": "control_change"}, {"time": 1991, "annotation": {"number": 64, "value": 0}, "group": "control_change"}, {"time": 1991, "annotation": {"number": 64, "value": 127}, "group": "control_change"}, {"time": 1994, "annotation": {"number": 64, "value": 127}, "group": "control_change"}, {"time": 2015, "annotation": {"number": 64, "value": 0}, "group": "control_change"}, {"time": 2018, "annotation": {"number": 64, "value": 127}, "group": "control_change"}, {"time": 2038, "annotation": {"number": 64, "value": 0}, "group": "control_change"}, {"time": 2041, "annotation": {"number": 64, "value": 127}, "group": "control_change"}, {"time": 2086, "annotation": {"number": 64, "value": 0}, "group": "control_change"}, {"time": 2089, "annotation": {"number": 64, "value": 127}, "group": "control_change"}, {"time": 2135, "annotation": {"number": 64, "value": 0}, "group": "control_change"}, {"time": 2137, "annotation": {"number": 64, "value": 127}, "group": "control_change"}, {"time": 2183, "annotation": {"number": 64, "value": 0}, "group": "control_change"}, {"time": 2186, "annotation": {"number": 64, "value": 127}, "group": "control_change"}, {"time": 2206, "annotation": {"number": 64, "value": 0}, "group": "control_change"}, {"time": 2209, "annotation": {"number": 64, "value": 127}, "group": "control_change"}, {"time": 2231, "annotation": {"number": 64, "value": 0}, "group": "control_change"}, {"time": 2233, "annotation": {"number": 64, "value": 127}, "group": "control_change"}, {"time": 2255, "annotation": {"number": 64, "value": 0}, "group": "control_change"}, {"time": 2257, "annotation": {"number": 64, "value": 127}, "group": "control_change"}, {"time": 2279, "annotation": {"number": 64, "value": 0}, "group": "control_change"}, {"time": 2281, "annotation": {"number": 64, "value": 127}, "group": "control_change"}, {"time": 2282, "annotation": {"number": 64, "value": 127}, "group": "control_change"}, {"time": 2289, "annotation": {"number": 64, "value": 0}, "group": "control_change"}, {"time": 2303, "annotation": {"number": 64, "value": 0}, "group": "control_change"}, {"time": 2305, "annotation": {"number": 64, "value": 127}, "group": "control_change"}, {"time": 2327, "annotation": {"number": 64, "value": 0}, "group": "control_change"}, {"time": 2375, "annotation": {"number": 64, "value": 0}, "group": "control_change"}, {"time": 2375, "annotation": {"number": 64, "value": 127}, "group": "control_change"}, {"time": 2378, "annotation": {"number": 64, "value": 127}, "group": "control_change"}, {"time": 2399, "annotation": {"number": 64, "value": 0}, "group": "control_change"}, {"time": 2402, "annotation": {"number": 64, "value": 127}, "group": "control_change"}, {"time": 2422, "annotation": {"number": 64, "value": 0}, "group": "control_change"}, {"time": 2425, "annotation": {"number": 64, "value": 127}, "group": "control_change"}, {"time": 2470, "annotation": {"number": 64, "value": 0}, "group": "control_change"}, {"time": 2473, "annotation": {"number": 64, "value": 127}, "group": "control_change"}, {"time": 2519, "annotation": {"number": 64, "value": 0}, "group": "control_change"}, {"time": 2521, "annotation": {"number": 64, "value": 127}, "group": "control_change"}, {"time": 2567, "annotation": {"number": 64, "value": 0}, "group": "control_change"}, {"time": 2570, "annotation": {"number": 64, "value": 127}, "group": "control_change"}, {"time": 2590, "annotation": {"number": 64, "value": 0}, "group": "control_change"}, {"time": 2593, "annotation": {"number": 64, "value": 127}, "group": "control_change"}, {"time": 2615, "annotation": {"number": 64, "value": 0}, "group": "control_change"}, {"time": 2617, "annotation": {"number": 64, "value": 127}, "group": "control_change"}, {"time": 2639, "annotation": {"number": 64, "value": 0}, "group": "control_change"}, {"time": 2641, "annotation": {"number": 64, "value": 127}, "group": "control_change"}, {"time": 2663, "annotation": {"number": 64, "value": 0}, "group": "control_change"}, {"time": 2665, "annotation": {"number": 64, "value": 127}, "group": "control_change"}, {"time": 2666, "annotation": {"number": 64, "value": 127}, "group": "control_change"}, {"time": 2673, "annotation": {"number": 64, "value": 0}, "group": "control_change"}, {"time": 2687, "annotation": {"number": 64, "value": 0}, "group": "control_change"}, {"time": 2689, "annotation": {"number": 64, "value": 127}, "group": "control_change"}, {"time": 2711, "annotation": {"number": 64, "value": 0}, "group": "control_change"}, {"time": 2712, "annotation": {"number": 64, "value": 127}, "group": "control_change"}, {"time": 2728, "annotation": {"number": 64, "value": 0}, "group": "control_change"}, {"time": 2749, "annotation": {"number": 64, "value": 127}, "group": "control_change"}, {"time": 2758, "annotation": {"number": 64, "value": 0}, "group": "control_change"}, {"time": 2761, "annotation": {"number": 64, "value": 127}, "group": "control_change"}, {"time": 2783, "annotation": {"number": 64, "value": 0}, "group": "control_change"}, {"time": 2785, "annotation": {"number": 64, "value": 127}, "group": "control_change"}, {"time": 2807, "annotation": {"number": 64, "value": 0}, "group": "control_change"}, {"time": 2809, "annotation": {"number": 64, "value": 127}, "group": "control_change"}, {"time": 2832, "annotation": {"number": 64, "value": 0}, "group": "control_change"}, {"time": 2833, "annotation": {"number": 64, "value": 127}, "group": "control_change"}, {"time": 2855, "annotation": {"number": 64, "value": 0}, "group": "control_change"}, {"time": 2858, "annotation": {"number": 64, "value": 127}, "group": "control_change"}, {"time": 2879, "annotation": {"number": 64, "value": 0}, "group": "control_change"}, {"time": 2882, "annotation": {"number": 64, "value": 127}, "group": "control_change"}, {"time": 2902, "annotation": {"number": 64, "value": 0}, "group": "control_change"}, {"time": 2905, "annotation": {"number": 64, "value": 127}, "group": "control_change"}, {"time": 2927, "annotation": {"number": 64, "value": 0}, "group": "control_change"}, {"time": 2930, "annotation": {"number": 64, "value": 127}, "group": "control_change"}, {"time": 2976, "annotation": {"number": 64, "value": 0}, "group": "control_change"}, {"time": 2977, "annotation": {"number": 64, "value": 127}, "group": "control_change"}, {"time": 3024, "annotation": {"number": 64, "value": 0}, "group": "control_change"}, {"time": 3025, "annotation": {"number": 64, "value": 127}, "group": "control_change"}, {"time": 3026, "annotation": {"number": 64, "value": 127}, "group": "control_change"}, {"time": 3047, "annotation": {"number": 64, "value": 0}, "group": "control_change"}, {"time": 3050, "annotation": {"number": 64, "value": 127}, "group": "control_change"}, {"time": 3071, "annotation": {"number": 64, "value": 0}, "group": "control_change"}, {"time": 3073, "annotation": {"number": 64, "value": 127}, "group": "control_change"}, {"time": 3084, "annotation": {"number": 64, "value": 0}, "group": "control_change"}, {"time": 3087, "annotation": {"number": 64, "value": 127}, "group": "control_change"}, {"time": 3095, "annotation": {"number": 64, "value": 0}, "group": "control_change"}, {"time": 3098, "annotation": {"number": 64, "value": 127}, "group": "control_change"}, {"time": 3119, "annotation": {"number": 64, "value": 0}, "group": "control_change"}, {"time": 3121, "annotation": {"number": 64, "value": 127}, "group": "control_change"}, {"time": 3133, "annotation": {"number": 64, "value": 127}, "group": "control_change"}, {"time": 3142, "annotation": {"number": 64, "value": 0}, "group": "control_change"}, {"time": 3145, "annotation": {"number": 64, "value": 127}, "group": "control_change"}, {"time": 3167, "annotation": {"number": 64, "value": 0}, "group": "control_change"}, {"time": 3169, "annotation": {"number": 64, "value": 127}, "group": "control_change"}, {"time": 3191, "annotation": {"number": 64, "value": 0}, "group": "control_change"}, {"time": 3193, "annotation": {"number": 64, "value": 127}, "group": "control_change"}, {"time": 3216, "annotation": {"number": 64, "value": 0}, "group": "control_change"}, {"time": 3217, "annotation": {"number": 64, "value": 127}, "group": "control_change"}, {"time": 3239, "annotation": {"number": 64, "value": 0}, "group": "control_change"}, {"time": 3242, "annotation": {"number": 64, "value": 127}, "group": "control_change"}, {"time": 3263, "annotation": {"number": 64, "value": 0}, "group": "control_change"}, {"time": 3266, "annotation": {"number": 64, "value": 127}, "group": "control_change"}, {"time": 3286, "annotation": {"number": 64, "value": 0}, "group": "control_change"}, {"time": 3289, "annotation": {"number": 64, "value": 127}, "group": "control_change"}, {"time": 3311, "annotation": {"number": 64, "value": 0}, "group": "control_change"}, {"time": 3314, "annotation": {"number": 64, "value": 127}, "group": "control_change"}, {"time": 3360, "annotation": {"number": 64, "value": 0}, "group": "control_change"}, {"time": 3361, "annotation": {"number": 64, "value": 127}, "group": "control_change"}, {"time": 3408, "annotation": {"number": 64, "value": 0}, "group": "control_change"}, {"time": 3409, "annotation": {"number": 64, "value": 127}, "group": "control_change"}, {"time": 3410, "annotation": {"number": 64, "value": 127}, "group": "control_change"}, {"time": 3431, "annotation": {"number": 64, "value": 0}, "group": "control_change"}, {"time": 3434, "annotation": {"number": 64, "value": 127}, "group": "control_change"}, {"time": 3455, "annotation": {"number": 64, "value": 0}, "group": "control_change"}, {"time": 3457, "annotation": {"number": 64, "value": 127}, "group": "control_change"}, {"time": 3468, "annotation": {"number": 64, "value": 0}, "group": "control_change"}, {"time": 3471, "annotation": {"number": 64, "value": 127}, "group": "control_change"}, {"time": 3479, "annotation": {"number": 64, "value": 0}, "group": "control_change"}, {"time": 3482, "annotation": {"number": 64, "value": 127}, "group": "control_change"}, {"time": 3503, "annotation": {"number": 64, "value": 0}, "group": "control_change"}, {"time": 3505, "annotation": {"number": 64, "value": 127}, "group": "control_change"}, {"time": 3506, "annotation": {"number": 64, "value": 127}, "group": "control_change"}, {"time": 3527, "annotation": {"number": 64, "value": 0}, "group": "control_change"}, {"time": 3530, "annotation": {"number": 64, "value": 127}, "group": "control_change"}, {"time": 3551, "annotation": {"number": 64, "value": 0}, "group": "control_change"}, {"time": 3553, "annotation": {"number": 64, "value": 127}, "group": "control_change"}, {"time": 3564, "annotation": {"number": 64, "value": 0}, "group": "control_change"}, {"time": 3567, "annotation": {"number": 64, "value": 127}, "group": "control_change"}, {"time": 3575, "annotation": {"number": 64, "value": 0}, "group": "control_change"}, {"time": 3578, "annotation": {"number": 64, "value": 127}, "group": "control_change"}, {"time": 3599, "annotation": {"number": 64, "value": 0}, "group": "control_change"}, {"time": 3601, "annotation": {"number": 64, "value": 127}, "group": "control_change"}, {"time": 3604, "annotation": {"number": 64, "value": 0}, "group": "control_change"}, {"time": 3613, "annotation": {"number": 64, "value": 127}, "group": "control_change"}, {"time": 3620, "annotation": {"number": 64, "value": 0}, "group": "control_change"}, {"time": 3624, "annotation": {"number": 64, "value": 127}, "group": "control_change"}, {"time": 3627, "annotation": {"number": 64, "value": 0}, "group": "control_change"}, {"time": 3630, "annotation": {"number": 64, "value": 127}, "group": "control_change"}, {"time": 3646, "annotation": {"number": 64, "value": 0}, "group": "control_change"}, {"time": 3650, "annotation": {"number": 64, "value": 127}, "group": "control_change"}, {"time": 3656, "annotation": {"number": 64, "value": 0}, "group": "control_change"}, {"time": 3662, "annotation": {"number": 64, "value": 127}, "group": "control_change"}, {"time": 3669, "annotation": {"number": 64, "value": 0}, "group": "control_change"}, {"time": 3673, "annotation": {"number": 64, "value": 127}, "group": "control_change"}, {"time": 3694, "annotation": {"number": 64, "value": 0}, "group": "control_change"}, {"time": 3698, "annotation": {"number": 64, "value": 127}, "group": "control_change"}, {"time": 3708, "annotation": {"number": 64, "value": 0}, "group": "control_change"}, {"time": 3709, "annotation": {"number": 64, "value": 127}, "group": "control_change"}, {"time": 3743, "annotation": {"number": 64, "value": 0}, "group": "control_change"}, {"time": 3746, "annotation": {"number": 64, "value": 127}, "group": "control_change"}, {"time": 3768, "annotation": {"number": 64, "value": 0}, "group": "control_change"}, {"time": 3769, "annotation": {"number": 64, "value": 127}, "group": "control_change"}, {"time": 3772, "annotation": {"number": 64, "value": 0}, "group": "control_change"}, {"time": 3782, "annotation": {"number": 64, "value": 127}, "group": "control_change"}, {"time": 3793, "annotation": {"number": 64, "value": 0}, "group": "control_change"}, {"time": 3881, "annotation": {"number": 64, "value": 127}, "group": "control_change"}, {"time": 3910, "annotation": {"number": 64, "value": 0}, "group": "control_change"}, {"time": 3910, "annotation": {"number": 64, "value": 127}, "group": "control_change"}, {"time": 3915, "annotation": {"number": 64, "value": 0}, "group": "control_change"}]}]}