{"metadata": {"schema_version": "0.2", "title": "None", "source_filename": "168.mid", "source_format": "midi"}, "resolution": 12, "tempos": [{"time": 0, "qpm": 80.99997165000993}], "time_signatures": [{"time": 0, "numerator": 1, "denominator": 4}], "tracks": [{"program": 0, "is_drum": false, "name": "MELODY", "notes": [{"time": 391, "pitch": 62, "duration": 6, "velocity": 99}, {"time": 397, "pitch": 62, "duration": 6, "velocity": 100}, {"time": 403, "pitch": 59, "duration": 6, "velocity": 92}, {"time": 409, "pitch": 66, "duration": 4, "velocity": 127}, {"time": 412, "pitch": 64, "duration": 4, "velocity": 79}, {"time": 415, "pitch": 62, "duration": 24, "velocity": 93}, {"time": 439, "pitch": 57, "duration": 6, "velocity": 100}, {"time": 445, "pitch": 59, "duration": 6, "velocity": 102}, {"time": 451, "pitch": 69, "duration": 6, "velocity": 117}, {"time": 457, "pitch": 67, "duration": 7, "velocity": 95}, {"time": 463, "pitch": 66, "duration": 24, "velocity": 107}, {"time": 487, "pitch": 71, "duration": 6, "velocity": 99}, {"time": 493, "pitch": 69, "duration": 6, "velocity": 97}, {"time": 499, "pitch": 62, "duration": 6, "velocity": 99}, {"time": 505, "pitch": 64, "duration": 6, "velocity": 97}, {"time": 511, "pitch": 66, "duration": 6, "velocity": 127}, {"time": 517, "pitch": 69, "duration": 3, "velocity": 95}, {"time": 520, "pitch": 64, "duration": 15, "velocity": 96}, {"time": 535, "pitch": 66, "duration": 6, "velocity": 112}, {"time": 541, "pitch": 64, "duration": 6, "velocity": 95}, {"time": 547, "pitch": 62, "duration": 6, "velocity": 96}, {"time": 553, "pitch": 64, "duration": 6, "velocity": 97}, {"time": 559, "pitch": 66, "duration": 24, "velocity": 117}, {"time": 583, "pitch": 62, "duration": 6, "velocity": 96}, {"time": 589, "pitch": 61, "duration": 6, "velocity": 102}, {"time": 595, "pitch": 59, "duration": 6, "velocity": 96}, {"time": 601, "pitch": 66, "duration": 3, "velocity": 127}, {"time": 604, "pitch": 64, "duration": 3, "velocity": 86}, {"time": 607, "pitch": 62, "duration": 24, "velocity": 100}, {"time": 631, "pitch": 57, "duration": 6, "velocity": 102}, {"time": 637, "pitch": 59, "duration": 6, "velocity": 97}, {"time": 643, "pitch": 69, "duration": 6, "velocity": 107}, {"time": 649, "pitch": 67, "duration": 6, "velocity": 107}, {"time": 655, "pitch": 66, "duration": 21, "velocity": 97}, {"time": 676, "pitch": 59, "duration": 3, "velocity": 100}, {"time": 679, "pitch": 71, "duration": 6, "velocity": 95}, {"time": 685, "pitch": 69, "duration": 6, "velocity": 100}, {"time": 691, "pitch": 62, "duration": 6, "velocity": 96}, {"time": 697, "pitch": 64, "duration": 6, "velocity": 107}, {"time": 703, "pitch": 66, "duration": 6, "velocity": 117}, {"time": 709, "pitch": 69, "duration": 6, "velocity": 112}, {"time": 715, "pitch": 69, "duration": 3, "velocity": 117}, {"time": 718, "pitch": 69, "duration": 6, "velocity": 100}, {"time": 724, "pitch": 71, "duration": 3, "velocity": 100}, {"time": 727, "pitch": 66, "duration": 36, "velocity": 117}, {"time": 763, "pitch": 66, "duration": 6, "velocity": 122}, {"time": 769, "pitch": 69, "duration": 7, "velocity": 100}, {"time": 775, "pitch": 71, "duration": 6, "velocity": 107}, {"time": 781, "pitch": 69, "duration": 6, "velocity": 99}, {"time": 787, "pitch": 71, "duration": 6, "velocity": 107}, {"time": 793, "pitch": 74, "duration": 6, "velocity": 107}, {"time": 799, "pitch": 73, "duration": 18, "velocity": 107}, {"time": 817, "pitch": 69, "duration": 3, "velocity": 96}, {"time": 820, "pitch": 66, "duration": 3, "velocity": 95}, {"time": 823, "pitch": 69, "duration": 6, "velocity": 100}, {"time": 829, "pitch": 66, "duration": 6, "velocity": 102}, {"time": 835, "pitch": 69, "duration": 6, "velocity": 100}, {"time": 841, "pitch": 73, "duration": 7, "velocity": 117}, {"time": 847, "pitch": 71, "duration": 19, "velocity": 100}, {"time": 865, "pitch": 71, "duration": 1, "velocity": 112}, {"time": 871, "pitch": 74, "duration": 6, "velocity": 127}, {"time": 877, "pitch": 71, "duration": 6, "velocity": 95}, {"time": 883, "pitch": 74, "duration": 6, "velocity": 102}, {"time": 889, "pitch": 71, "duration": 3, "velocity": 95}, {"time": 892, "pitch": 71, "duration": 3, "velocity": 82}, {"time": 895, "pitch": 73, "duration": 7, "velocity": 127}, {"time": 901, "pitch": 69, "duration": 6, "velocity": 99}, {"time": 907, "pitch": 71, "duration": 6, "velocity": 99}, {"time": 913, "pitch": 73, "duration": 6, "velocity": 112}, {"time": 919, "pitch": 71, "duration": 48, "velocity": 99}, {"time": 967, "pitch": 62, "duration": 6, "velocity": 99}, {"time": 973, "pitch": 62, "duration": 6, "velocity": 100}, {"time": 979, "pitch": 59, "duration": 6, "velocity": 92}, {"time": 985, "pitch": 66, "duration": 4, "velocity": 127}, {"time": 988, "pitch": 64, "duration": 4, "velocity": 79}, {"time": 991, "pitch": 62, "duration": 21, "velocity": 93}, {"time": 1012, "pitch": 57, "duration": 3, "velocity": 117}, {"time": 1015, "pitch": 57, "duration": 6, "velocity": 100}, {"time": 1021, "pitch": 59, "duration": 6, "velocity": 102}, {"time": 1027, "pitch": 66, "duration": 6, "velocity": 117}, {"time": 1033, "pitch": 69, "duration": 7, "velocity": 95}, {"time": 1039, "pitch": 66, "duration": 21, "velocity": 107}, {"time": 1060, "pitch": 59, "duration": 3, "velocity": 112}, {"time": 1063, "pitch": 71, "duration": 6, "velocity": 99}, {"time": 1069, "pitch": 69, "duration": 6, "velocity": 97}, {"time": 1075, "pitch": 62, "duration": 6, "velocity": 99}, {"time": 1081, "pitch": 64, "duration": 6, "velocity": 97}, {"time": 1087, "pitch": 66, "duration": 6, "velocity": 127}, {"time": 1093, "pitch": 69, "duration": 6, "velocity": 95}, {"time": 1099, "pitch": 64, "duration": 8, "velocity": 96}, {"time": 1105, "pitch": 57, "duration": 3, "velocity": 95}, {"time": 1108, "pitch": 57, "duration": 3, "velocity": 92}, {"time": 1111, "pitch": 66, "duration": 6, "velocity": 112}, {"time": 1117, "pitch": 64, "duration": 6, "velocity": 95}, {"time": 1123, "pitch": 62, "duration": 9, "velocity": 96}, {"time": 1132, "pitch": 64, "duration": 3, "velocity": 97}, {"time": 1135, "pitch": 66, "duration": 24, "velocity": 117}, {"time": 1159, "pitch": 59, "duration": 6, "velocity": 96}, {"time": 1165, "pitch": 59, "duration": 6, "velocity": 102}, {"time": 1171, "pitch": 59, "duration": 6, "velocity": 96}, {"time": 1177, "pitch": 66, "duration": 3, "velocity": 127}, {"time": 1180, "pitch": 64, "duration": 3, "velocity": 86}, {"time": 1183, "pitch": 62, "duration": 24, "velocity": 100}, {"time": 1207, "pitch": 57, "duration": 6, "velocity": 102}, {"time": 1213, "pitch": 59, "duration": 6, "velocity": 97}, {"time": 1219, "pitch": 66, "duration": 6, "velocity": 107}, {"time": 1225, "pitch": 69, "duration": 6, "velocity": 107}, {"time": 1231, "pitch": 66, "duration": 21, "velocity": 97}, {"time": 1252, "pitch": 59, "duration": 3, "velocity": 100}, {"time": 1255, "pitch": 71, "duration": 6, "velocity": 95}, {"time": 1261, "pitch": 69, "duration": 6, "velocity": 100}, {"time": 1267, "pitch": 62, "duration": 6, "velocity": 96}, {"time": 1273, "pitch": 62, "duration": 3, "velocity": 89}, {"time": 1276, "pitch": 64, "duration": 3, "velocity": 97}, {"time": 1279, "pitch": 66, "duration": 6, "velocity": 117}, {"time": 1285, "pitch": 69, "duration": 6, "velocity": 112}, {"time": 1291, "pitch": 69, "duration": 6, "velocity": 117}, {"time": 1297, "pitch": 69, "duration": 3, "velocity": 100}, {"time": 1300, "pitch": 71, "duration": 3, "velocity": 100}, {"time": 1303, "pitch": 66, "duration": 36, "velocity": 117}, {"time": 1339, "pitch": 66, "duration": 6, "velocity": 122}, {"time": 1345, "pitch": 69, "duration": 7, "velocity": 100}, {"time": 1351, "pitch": 71, "duration": 6, "velocity": 107}, {"time": 1357, "pitch": 69, "duration": 6, "velocity": 99}, {"time": 1363, "pitch": 71, "duration": 6, "velocity": 107}, {"time": 1369, "pitch": 74, "duration": 6, "velocity": 107}, {"time": 1375, "pitch": 73, "duration": 18, "velocity": 107}, {"time": 1393, "pitch": 69, "duration": 3, "velocity": 96}, {"time": 1396, "pitch": 66, "duration": 3, "velocity": 95}, {"time": 1399, "pitch": 69, "duration": 6, "velocity": 100}, {"time": 1405, "pitch": 66, "duration": 6, "velocity": 102}, {"time": 1411, "pitch": 69, "duration": 6, "velocity": 100}, {"time": 1417, "pitch": 73, "duration": 7, "velocity": 117}, {"time": 1423, "pitch": 71, "duration": 18, "velocity": 100}, {"time": 1441, "pitch": 71, "duration": 6, "velocity": 112}, {"time": 1447, "pitch": 74, "duration": 6, "velocity": 127}, {"time": 1453, "pitch": 71, "duration": 6, "velocity": 95}, {"time": 1459, "pitch": 74, "duration": 6, "velocity": 102}, {"time": 1465, "pitch": 71, "duration": 3, "velocity": 95}, {"time": 1468, "pitch": 71, "duration": 3, "velocity": 82}, {"time": 1471, "pitch": 73, "duration": 7, "velocity": 127}, {"time": 1477, "pitch": 69, "duration": 6, "velocity": 99}, {"time": 1483, "pitch": 71, "duration": 6, "velocity": 99}, {"time": 1489, "pitch": 73, "duration": 6, "velocity": 112}, {"time": 1495, "pitch": 71, "duration": 36, "velocity": 99}, {"time": 1531, "pitch": 74, "duration": 6, "velocity": 127}, {"time": 1537, "pitch": 73, "duration": 6, "velocity": 122}, {"time": 1543, "pitch": 71, "duration": 12, "velocity": 112}, {"time": 1555, "pitch": 74, "duration": 12, "velocity": 122}, {"time": 1567, "pitch": 76, "duration": 18, "velocity": 127}, {"time": 1585, "pitch": 69, "duration": 6, "velocity": 102}, {"time": 1591, "pitch": 78, "duration": 6, "velocity": 127}, {"time": 1597, "pitch": 69, "duration": 6, "velocity": 102}, {"time": 1603, "pitch": 76, "duration": 6, "velocity": 107}, {"time": 1609, "pitch": 69, "duration": 6, "velocity": 96}, {"time": 1615, "pitch": 74, "duration": 18, "velocity": 117}, {"time": 1633, "pitch": 71, "duration": 6, "velocity": 112}, {"time": 1639, "pitch": 74, "duration": 6, "velocity": 122}, {"time": 1645, "pitch": 71, "duration": 6, "velocity": 102}, {"time": 1651, "pitch": 74, "duration": 6, "velocity": 127}, {"time": 1657, "pitch": 71, "duration": 6, "velocity": 107}, {"time": 1663, "pitch": 76, "duration": 7, "velocity": 127}, {"time": 1669, "pitch": 69, "duration": 6, "velocity": 100}, {"time": 1675, "pitch": 76, "duration": 6, "velocity": 117}, {"time": 1681, "pitch": 69, "duration": 6, "velocity": 117}, {"time": 1687, "pitch": 78, "duration": 6, "velocity": 127}, {"time": 1693, "pitch": 76, "duration": 6, "velocity": 122}, {"time": 1699, "pitch": 74, "duration": 6, "velocity": 100}, {"time": 1705, "pitch": 78, "duration": 6, "velocity": 127}, {"time": 1711, "pitch": 78, "duration": 12, "velocity": 127}, {"time": 1723, "pitch": 74, "duration": 6, "velocity": 127}, {"time": 1729, "pitch": 73, "duration": 6, "velocity": 112}, {"time": 1735, "pitch": 71, "duration": 12, "velocity": 112}, {"time": 1747, "pitch": 74, "duration": 12, "velocity": 102}, {"time": 1759, "pitch": 76, "duration": 18, "velocity": 127}, {"time": 1777, "pitch": 69, "duration": 6, "velocity": 99}, {"time": 1783, "pitch": 81, "duration": 6, "velocity": 117}, {"time": 1789, "pitch": 79, "duration": 6, "velocity": 122}, {"time": 1795, "pitch": 78, "duration": 6, "velocity": 127}, {"time": 1801, "pitch": 69, "duration": 6, "velocity": 96}, {"time": 1807, "pitch": 71, "duration": 18, "velocity": 127}, {"time": 1825, "pitch": 71, "duration": 6, "velocity": 112}, {"time": 1831, "pitch": 74, "duration": 6, "velocity": 122}, {"time": 1837, "pitch": 71, "duration": 6, "velocity": 112}, {"time": 1843, "pitch": 74, "duration": 6, "velocity": 127}, {"time": 1849, "pitch": 71, "duration": 6, "velocity": 117}, {"time": 1855, "pitch": 76, "duration": 6, "velocity": 117}, {"time": 1861, "pitch": 69, "duration": 6, "velocity": 90}, {"time": 1867, "pitch": 76, "duration": 12, "velocity": 117}, {"time": 1879, "pitch": 69, "duration": 6, "velocity": 107}, {"time": 1885, "pitch": 66, "duration": 6, "velocity": 117}, {"time": 1891, "pitch": 69, "duration": 6, "velocity": 127}, {"time": 1897, "pitch": 71, "duration": 6, "velocity": 102}, {"time": 1903, "pitch": 71, "duration": 33, "velocity": 127}, {"time": 2119, "pitch": 62, "duration": 6, "velocity": 99}, {"time": 2125, "pitch": 62, "duration": 6, "velocity": 100}, {"time": 2131, "pitch": 59, "duration": 6, "velocity": 92}, {"time": 2137, "pitch": 66, "duration": 4, "velocity": 127}, {"time": 2140, "pitch": 64, "duration": 4, "velocity": 79}, {"time": 2143, "pitch": 62, "duration": 21, "velocity": 93}, {"time": 2164, "pitch": 57, "duration": 3, "velocity": 117}, {"time": 2167, "pitch": 57, "duration": 6, "velocity": 100}, {"time": 2173, "pitch": 59, "duration": 6, "velocity": 102}, {"time": 2179, "pitch": 66, "duration": 6, "velocity": 117}, {"time": 2185, "pitch": 69, "duration": 7, "velocity": 95}, {"time": 2191, "pitch": 66, "duration": 21, "velocity": 107}, {"time": 2212, "pitch": 59, "duration": 3, "velocity": 112}, {"time": 2215, "pitch": 71, "duration": 6, "velocity": 99}, {"time": 2221, "pitch": 69, "duration": 6, "velocity": 97}, {"time": 2227, "pitch": 62, "duration": 6, "velocity": 99}, {"time": 2233, "pitch": 64, "duration": 6, "velocity": 97}, {"time": 2239, "pitch": 66, "duration": 6, "velocity": 127}, {"time": 2245, "pitch": 69, "duration": 6, "velocity": 95}, {"time": 2251, "pitch": 64, "duration": 8, "velocity": 96}, {"time": 2257, "pitch": 57, "duration": 3, "velocity": 95}, {"time": 2260, "pitch": 57, "duration": 3, "velocity": 92}, {"time": 2263, "pitch": 66, "duration": 6, "velocity": 112}, {"time": 2269, "pitch": 64, "duration": 6, "velocity": 95}, {"time": 2275, "pitch": 62, "duration": 9, "velocity": 96}, {"time": 2284, "pitch": 64, "duration": 3, "velocity": 97}, {"time": 2287, "pitch": 66, "duration": 24, "velocity": 117}, {"time": 2311, "pitch": 59, "duration": 6, "velocity": 96}, {"time": 2317, "pitch": 59, "duration": 6, "velocity": 102}, {"time": 2323, "pitch": 59, "duration": 6, "velocity": 96}, {"time": 2329, "pitch": 66, "duration": 3, "velocity": 127}, {"time": 2332, "pitch": 64, "duration": 3, "velocity": 86}, {"time": 2335, "pitch": 62, "duration": 24, "velocity": 100}, {"time": 2359, "pitch": 57, "duration": 6, "velocity": 102}, {"time": 2365, "pitch": 59, "duration": 6, "velocity": 97}, {"time": 2371, "pitch": 66, "duration": 6, "velocity": 107}, {"time": 2377, "pitch": 69, "duration": 6, "velocity": 107}, {"time": 2383, "pitch": 66, "duration": 21, "velocity": 97}, {"time": 2404, "pitch": 59, "duration": 3, "velocity": 100}, {"time": 2407, "pitch": 71, "duration": 6, "velocity": 95}, {"time": 2413, "pitch": 69, "duration": 6, "velocity": 100}, {"time": 2419, "pitch": 62, "duration": 6, "velocity": 96}, {"time": 2425, "pitch": 62, "duration": 3, "velocity": 89}, {"time": 2428, "pitch": 64, "duration": 3, "velocity": 97}, {"time": 2431, "pitch": 66, "duration": 6, "velocity": 117}, {"time": 2437, "pitch": 69, "duration": 6, "velocity": 112}, {"time": 2443, "pitch": 69, "duration": 6, "velocity": 117}, {"time": 2449, "pitch": 69, "duration": 3, "velocity": 100}, {"time": 2452, "pitch": 71, "duration": 3, "velocity": 100}, {"time": 2455, "pitch": 66, "duration": 36, "velocity": 117}, {"time": 2491, "pitch": 66, "duration": 6, "velocity": 122}, {"time": 2497, "pitch": 69, "duration": 7, "velocity": 100}, {"time": 2503, "pitch": 71, "duration": 6, "velocity": 107}, {"time": 2509, "pitch": 69, "duration": 6, "velocity": 99}, {"time": 2515, "pitch": 71, "duration": 6, "velocity": 107}, {"time": 2521, "pitch": 74, "duration": 6, "velocity": 107}, {"time": 2527, "pitch": 73, "duration": 18, "velocity": 107}, {"time": 2545, "pitch": 69, "duration": 3, "velocity": 96}, {"time": 2548, "pitch": 66, "duration": 3, "velocity": 95}, {"time": 2551, "pitch": 69, "duration": 6, "velocity": 100}, {"time": 2557, "pitch": 66, "duration": 6, "velocity": 102}, {"time": 2563, "pitch": 69, "duration": 6, "velocity": 100}, {"time": 2569, "pitch": 73, "duration": 7, "velocity": 117}, {"time": 2575, "pitch": 71, "duration": 18, "velocity": 100}, {"time": 2593, "pitch": 71, "duration": 6, "velocity": 112}, {"time": 2599, "pitch": 74, "duration": 6, "velocity": 127}, {"time": 2605, "pitch": 71, "duration": 6, "velocity": 95}, {"time": 2611, "pitch": 74, "duration": 6, "velocity": 102}, {"time": 2617, "pitch": 71, "duration": 3, "velocity": 95}, {"time": 2620, "pitch": 71, "duration": 3, "velocity": 82}, {"time": 2623, "pitch": 73, "duration": 7, "velocity": 127}, {"time": 2629, "pitch": 69, "duration": 6, "velocity": 99}, {"time": 2635, "pitch": 71, "duration": 6, "velocity": 99}, {"time": 2641, "pitch": 73, "duration": 6, "velocity": 112}, {"time": 2647, "pitch": 71, "duration": 36, "velocity": 99}, {"time": 2683, "pitch": 74, "duration": 6, "velocity": 127}, {"time": 2689, "pitch": 73, "duration": 6, "velocity": 122}, {"time": 2695, "pitch": 71, "duration": 12, "velocity": 112}, {"time": 2707, "pitch": 74, "duration": 12, "velocity": 122}, {"time": 2719, "pitch": 76, "duration": 18, "velocity": 127}, {"time": 2737, "pitch": 69, "duration": 6, "velocity": 102}, {"time": 2743, "pitch": 78, "duration": 6, "velocity": 127}, {"time": 2749, "pitch": 69, "duration": 6, "velocity": 102}, {"time": 2755, "pitch": 76, "duration": 6, "velocity": 107}, {"time": 2761, "pitch": 69, "duration": 6, "velocity": 96}, {"time": 2767, "pitch": 74, "duration": 18, "velocity": 117}, {"time": 2785, "pitch": 71, "duration": 6, "velocity": 112}, {"time": 2791, "pitch": 74, "duration": 6, "velocity": 122}, {"time": 2797, "pitch": 71, "duration": 6, "velocity": 102}, {"time": 2803, "pitch": 74, "duration": 6, "velocity": 127}, {"time": 2809, "pitch": 71, "duration": 6, "velocity": 107}, {"time": 2815, "pitch": 76, "duration": 7, "velocity": 127}, {"time": 2821, "pitch": 69, "duration": 6, "velocity": 100}, {"time": 2827, "pitch": 76, "duration": 6, "velocity": 117}, {"time": 2833, "pitch": 69, "duration": 6, "velocity": 117}, {"time": 2839, "pitch": 78, "duration": 6, "velocity": 127}, {"time": 2845, "pitch": 76, "duration": 6, "velocity": 122}, {"time": 2851, "pitch": 74, "duration": 6, "velocity": 100}, {"time": 2857, "pitch": 78, "duration": 6, "velocity": 127}, {"time": 2863, "pitch": 78, "duration": 12, "velocity": 127}, {"time": 2875, "pitch": 74, "duration": 6, "velocity": 127}, {"time": 2881, "pitch": 73, "duration": 6, "velocity": 112}, {"time": 2887, "pitch": 71, "duration": 12, "velocity": 112}, {"time": 2899, "pitch": 74, "duration": 12, "velocity": 102}, {"time": 2911, "pitch": 76, "duration": 18, "velocity": 127}, {"time": 2929, "pitch": 69, "duration": 6, "velocity": 99}, {"time": 2935, "pitch": 81, "duration": 6, "velocity": 117}, {"time": 2941, "pitch": 79, "duration": 6, "velocity": 122}, {"time": 2947, "pitch": 78, "duration": 6, "velocity": 127}, {"time": 2953, "pitch": 69, "duration": 6, "velocity": 96}, {"time": 2959, "pitch": 71, "duration": 18, "velocity": 127}, {"time": 2977, "pitch": 71, "duration": 6, "velocity": 112}, {"time": 2983, "pitch": 74, "duration": 6, "velocity": 122}, {"time": 2989, "pitch": 71, "duration": 6, "velocity": 112}, {"time": 2995, "pitch": 74, "duration": 6, "velocity": 127}, {"time": 3001, "pitch": 71, "duration": 6, "velocity": 117}, {"time": 3007, "pitch": 76, "duration": 6, "velocity": 117}, {"time": 3013, "pitch": 69, "duration": 6, "velocity": 90}, {"time": 3019, "pitch": 76, "duration": 12, "velocity": 117}, {"time": 3031, "pitch": 69, "duration": 6, "velocity": 107}, {"time": 3037, "pitch": 66, "duration": 6, "velocity": 117}, {"time": 3043, "pitch": 69, "duration": 6, "velocity": 127}, {"time": 3049, "pitch": 71, "duration": 6, "velocity": 102}, {"time": 3055, "pitch": 71, "duration": 18, "velocity": 127}, {"time": 3073, "pitch": 71, "duration": 6, "velocity": 107}, {"time": 3079, "pitch": 74, "duration": 6, "velocity": 127}, {"time": 3085, "pitch": 71, "duration": 6, "velocity": 107}, {"time": 3091, "pitch": 74, "duration": 6, "velocity": 127}, {"time": 3097, "pitch": 71, "duration": 6, "velocity": 112}, {"time": 3103, "pitch": 76, "duration": 6, "velocity": 127}, {"time": 3109, "pitch": 69, "duration": 6, "velocity": 90}, {"time": 3115, "pitch": 76, "duration": 12, "velocity": 127}, {"time": 3127, "pitch": 69, "duration": 6, "velocity": 122}, {"time": 3133, "pitch": 66, "duration": 6, "velocity": 117}, {"time": 3139, "pitch": 69, "duration": 6, "velocity": 102}, {"time": 3145, "pitch": 73, "duration": 6, "velocity": 127}, {"time": 3151, "pitch": 71, "duration": 29, "velocity": 127}, {"time": 3547, "pitch": 74, "duration": 6, "velocity": 127}, {"time": 3553, "pitch": 73, "duration": 6, "velocity": 122}, {"time": 3559, "pitch": 71, "duration": 12, "velocity": 112}, {"time": 3571, "pitch": 74, "duration": 12, "velocity": 122}, {"time": 3583, "pitch": 76, "duration": 18, "velocity": 127}, {"time": 3601, "pitch": 69, "duration": 6, "velocity": 102}, {"time": 3607, "pitch": 78, "duration": 6, "velocity": 127}, {"time": 3613, "pitch": 69, "duration": 6, "velocity": 102}, {"time": 3619, "pitch": 76, "duration": 6, "velocity": 107}, {"time": 3625, "pitch": 69, "duration": 6, "velocity": 96}, {"time": 3631, "pitch": 74, "duration": 18, "velocity": 117}, {"time": 3649, "pitch": 71, "duration": 6, "velocity": 112}, {"time": 3655, "pitch": 74, "duration": 6, "velocity": 122}, {"time": 3661, "pitch": 71, "duration": 6, "velocity": 102}, {"time": 3667, "pitch": 74, "duration": 6, "velocity": 127}, {"time": 3673, "pitch": 71, "duration": 6, "velocity": 107}, {"time": 3679, "pitch": 76, "duration": 7, "velocity": 127}, {"time": 3685, "pitch": 69, "duration": 6, "velocity": 100}, {"time": 3691, "pitch": 76, "duration": 6, "velocity": 117}, {"time": 3697, "pitch": 69, "duration": 6, "velocity": 117}, {"time": 3703, "pitch": 78, "duration": 6, "velocity": 127}, {"time": 3709, "pitch": 76, "duration": 6, "velocity": 122}, {"time": 3715, "pitch": 74, "duration": 6, "velocity": 100}, {"time": 3721, "pitch": 78, "duration": 6, "velocity": 127}, {"time": 3727, "pitch": 78, "duration": 12, "velocity": 127}, {"time": 3739, "pitch": 74, "duration": 6, "velocity": 127}, {"time": 3745, "pitch": 73, "duration": 6, "velocity": 112}, {"time": 3751, "pitch": 71, "duration": 12, "velocity": 112}, {"time": 3763, "pitch": 74, "duration": 12, "velocity": 102}, {"time": 3775, "pitch": 76, "duration": 18, "velocity": 127}, {"time": 3793, "pitch": 69, "duration": 6, "velocity": 99}, {"time": 3799, "pitch": 81, "duration": 6, "velocity": 117}, {"time": 3805, "pitch": 79, "duration": 6, "velocity": 122}, {"time": 3811, "pitch": 78, "duration": 6, "velocity": 127}, {"time": 3817, "pitch": 69, "duration": 6, "velocity": 96}, {"time": 3823, "pitch": 71, "duration": 18, "velocity": 127}, {"time": 3841, "pitch": 71, "duration": 6, "velocity": 112}, {"time": 3847, "pitch": 74, "duration": 6, "velocity": 122}, {"time": 3853, "pitch": 71, "duration": 6, "velocity": 112}, {"time": 3859, "pitch": 74, "duration": 6, "velocity": 127}, {"time": 3865, "pitch": 71, "duration": 6, "velocity": 117}, {"time": 3871, "pitch": 76, "duration": 6, "velocity": 117}, {"time": 3877, "pitch": 69, "duration": 6, "velocity": 90}, {"time": 3883, "pitch": 76, "duration": 12, "velocity": 117}, {"time": 3895, "pitch": 69, "duration": 6, "velocity": 107}, {"time": 3901, "pitch": 66, "duration": 6, "velocity": 117}, {"time": 3907, "pitch": 69, "duration": 6, "velocity": 127}, {"time": 3913, "pitch": 71, "duration": 6, "velocity": 102}, {"time": 3919, "pitch": 71, "duration": 18, "velocity": 127}, {"time": 3937, "pitch": 71, "duration": 6, "velocity": 107}, {"time": 3943, "pitch": 74, "duration": 6, "velocity": 127}, {"time": 3949, "pitch": 71, "duration": 6, "velocity": 107}, {"time": 3955, "pitch": 74, "duration": 6, "velocity": 127}, {"time": 3961, "pitch": 71, "duration": 6, "velocity": 112}, {"time": 3967, "pitch": 76, "duration": 6, "velocity": 127}, {"time": 3973, "pitch": 69, "duration": 6, "velocity": 90}, {"time": 3979, "pitch": 76, "duration": 12, "velocity": 127}, {"time": 3991, "pitch": 69, "duration": 6, "velocity": 122}, {"time": 3997, "pitch": 66, "duration": 6, "velocity": 117}, {"time": 4003, "pitch": 69, "duration": 6, "velocity": 102}, {"time": 4009, "pitch": 73, "duration": 6, "velocity": 127}, {"time": 4015, "pitch": 71, "duration": 29, "velocity": 127}]}, {"program": 0, "is_drum": false, "name": "PIANO", "notes": [{"time": 7, "pitch": 47, "duration": 19, "velocity": 85}, {"time": 7, "pitch": 59, "duration": 2, "velocity": 66}, {"time": 7, "pitch": 62, "duration": 2, "velocity": 48}, {"time": 7, "pitch": 66, "duration": 2, "velocity": 43}, {"time": 13, "pitch": 59, "duration": 5, "velocity": 54}, {"time": 13, "pitch": 62, "duration": 2, "velocity": 36}, {"time": 19, "pitch": 62, "duration": 11, "velocity": 95}, {"time": 19, "pitch": 66, "duration": 11, "velocity": 107}, {"time": 28, "pitch": 59, "duration": 3, "velocity": 72}, {"time": 31, "pitch": 43, "duration": 14, "velocity": 76}, {"time": 37, "pitch": 55, "duration": 7, "velocity": 76}, {"time": 43, "pitch": 59, "duration": 12, "velocity": 90}, {"time": 43, "pitch": 62, "duration": 12, "velocity": 90}, {"time": 52, "pitch": 55, "duration": 3, "velocity": 47}, {"time": 55, "pitch": 45, "duration": 13, "velocity": 74}, {"time": 61, "pitch": 52, "duration": 7, "velocity": 69}, {"time": 67, "pitch": 57, "duration": 9, "velocity": 88}, {"time": 67, "pitch": 61, "duration": 9, "velocity": 112}, {"time": 67, "pitch": 64, "duration": 8, "velocity": 90}, {"time": 76, "pitch": 57, "duration": 3, "velocity": 56}, {"time": 76, "pitch": 61, "duration": 2, "velocity": 69}, {"time": 76, "pitch": 64, "duration": 3, "velocity": 69}, {"time": 79, "pitch": 50, "duration": 14, "velocity": 79}, {"time": 85, "pitch": 57, "duration": 7, "velocity": 82}, {"time": 85, "pitch": 62, "duration": 1, "velocity": 33}, {"time": 91, "pitch": 62, "duration": 12, "velocity": 93}, {"time": 91, "pitch": 66, "duration": 12, "velocity": 97}, {"time": 100, "pitch": 57, "duration": 4, "velocity": 75}, {"time": 103, "pitch": 43, "duration": 13, "velocity": 76}, {"time": 109, "pitch": 50, "duration": 8, "velocity": 63}, {"time": 115, "pitch": 59, "duration": 12, "velocity": 93}, {"time": 115, "pitch": 62, "duration": 11, "velocity": 95}, {"time": 124, "pitch": 55, "duration": 3, "velocity": 79}, {"time": 127, "pitch": 45, "duration": 23, "velocity": 78}, {"time": 133, "pitch": 52, "duration": 9, "velocity": 92}, {"time": 139, "pitch": 61, "duration": 12, "velocity": 127}, {"time": 139, "pitch": 64, "duration": 12, "velocity": 107}, {"time": 148, "pitch": 57, "duration": 3, "velocity": 88}, {"time": 151, "pitch": 50, "duration": 23, "velocity": 93}, {"time": 157, "pitch": 57, "duration": 7, "velocity": 82}, {"time": 163, "pitch": 62, "duration": 8, "velocity": 102}, {"time": 163, "pitch": 66, "duration": 8, "velocity": 99}, {"time": 172, "pitch": 57, "duration": 5, "velocity": 76}, {"time": 172, "pitch": 62, "duration": 6, "velocity": 95}, {"time": 172, "pitch": 66, "duration": 6, "velocity": 97}, {"time": 175, "pitch": 50, "duration": 2, "velocity": 86}, {"time": 181, "pitch": 50, "duration": 3, "velocity": 92}, {"time": 181, "pitch": 57, "duration": 3, "velocity": 77}, {"time": 181, "pitch": 62, "duration": 4, "velocity": 96}, {"time": 181, "pitch": 66, "duration": 4, "velocity": 95}, {"time": 187, "pitch": 50, "duration": 9, "velocity": 122}, {"time": 187, "pitch": 57, "duration": 4, "velocity": 96}, {"time": 187, "pitch": 62, "duration": 4, "velocity": 107}, {"time": 187, "pitch": 66, "duration": 5, "velocity": 122}, {"time": 193, "pitch": 57, "duration": 4, "velocity": 90}, {"time": 193, "pitch": 62, "duration": 2, "velocity": 82}, {"time": 199, "pitch": 43, "duration": 22, "velocity": 97}, {"time": 205, "pitch": 50, "duration": 18, "velocity": 97}, {"time": 211, "pitch": 59, "duration": 12, "velocity": 117}, {"time": 211, "pitch": 62, "duration": 9, "velocity": 127}, {"time": 220, "pitch": 55, "duration": 4, "velocity": 97}, {"time": 220, "pitch": 62, "duration": 1, "velocity": 37}, {"time": 223, "pitch": 45, "duration": 16, "velocity": 82}, {"time": 229, "pitch": 52, "duration": 10, "velocity": 102}, {"time": 235, "pitch": 61, "duration": 12, "velocity": 122}, {"time": 235, "pitch": 64, "duration": 12, "velocity": 100}, {"time": 241, "pitch": 57, "duration": 7, "velocity": 82}, {"time": 247, "pitch": 42, "duration": 14, "velocity": 95}, {"time": 253, "pitch": 54, "duration": 8, "velocity": 97}, {"time": 259, "pitch": 61, "duration": 11, "velocity": 122}, {"time": 259, "pitch": 66, "duration": 12, "velocity": 122}, {"time": 268, "pitch": 57, "duration": 4, "velocity": 99}, {"time": 271, "pitch": 47, "duration": 14, "velocity": 78}, {"time": 277, "pitch": 54, "duration": 8, "velocity": 95}, {"time": 283, "pitch": 62, "duration": 13, "velocity": 117}, {"time": 283, "pitch": 66, "duration": 13, "velocity": 117}, {"time": 289, "pitch": 59, "duration": 7, "velocity": 93}, {"time": 295, "pitch": 43, "duration": 16, "velocity": 93}, {"time": 301, "pitch": 50, "duration": 14, "velocity": 73}, {"time": 307, "pitch": 59, "duration": 11, "velocity": 99}, {"time": 307, "pitch": 62, "duration": 11, "velocity": 99}, {"time": 316, "pitch": 55, "duration": 3, "velocity": 102}, {"time": 319, "pitch": 45, "duration": 15, "velocity": 74}, {"time": 325, "pitch": 52, "duration": 10, "velocity": 100}, {"time": 331, "pitch": 61, "duration": 11, "velocity": 127}, {"time": 331, "pitch": 64, "duration": 11, "velocity": 99}, {"time": 337, "pitch": 57, "duration": 8, "velocity": 96}, {"time": 343, "pitch": 47, "duration": 23, "velocity": 86}, {"time": 349, "pitch": 54, "duration": 7, "velocity": 97}, {"time": 355, "pitch": 62, "duration": 4, "velocity": 107}, {"time": 355, "pitch": 66, "duration": 4, "velocity": 127}, {"time": 358, "pitch": 54, "duration": 7, "velocity": 107}, {"time": 361, "pitch": 62, "duration": 4, "velocity": 95}, {"time": 361, "pitch": 66, "duration": 4, "velocity": 95}, {"time": 367, "pitch": 47, "duration": 6, "velocity": 76}, {"time": 367, "pitch": 54, "duration": 5, "velocity": 102}, {"time": 367, "pitch": 59, "duration": 5, "velocity": 107}, {"time": 367, "pitch": 62, "duration": 6, "velocity": 127}, {"time": 367, "pitch": 66, "duration": 6, "velocity": 127}, {"time": 391, "pitch": 47, "duration": 14, "velocity": 81}, {"time": 397, "pitch": 54, "duration": 7, "velocity": 67}, {"time": 403, "pitch": 62, "duration": 11, "velocity": 97}, {"time": 403, "pitch": 66, "duration": 12, "velocity": 102}, {"time": 412, "pitch": 59, "duration": 4, "velocity": 76}, {"time": 415, "pitch": 43, "duration": 13, "velocity": 72}, {"time": 421, "pitch": 50, "duration": 8, "velocity": 54}, {"time": 427, "pitch": 59, "duration": 12, "velocity": 82}, {"time": 427, "pitch": 62, "duration": 12, "velocity": 83}, {"time": 439, "pitch": 45, "duration": 13, "velocity": 72}, {"time": 445, "pitch": 52, "duration": 7, "velocity": 71}, {"time": 451, "pitch": 57, "duration": 8, "velocity": 85}, {"time": 451, "pitch": 61, "duration": 8, "velocity": 97}, {"time": 451, "pitch": 64, "duration": 8, "velocity": 78}, {"time": 460, "pitch": 57, "duration": 2, "velocity": 71}, {"time": 460, "pitch": 61, "duration": 3, "velocity": 83}, {"time": 460, "pitch": 64, "duration": 2, "velocity": 70}, {"time": 463, "pitch": 50, "duration": 2, "velocity": 65}, {"time": 469, "pitch": 50, "duration": 7, "velocity": 78}, {"time": 475, "pitch": 62, "duration": 13, "velocity": 96}, {"time": 475, "pitch": 66, "duration": 13, "velocity": 102}, {"time": 481, "pitch": 57, "duration": 7, "velocity": 69}, {"time": 487, "pitch": 43, "duration": 12, "velocity": 77}, {"time": 493, "pitch": 50, "duration": 7, "velocity": 64}, {"time": 499, "pitch": 59, "duration": 11, "velocity": 96}, {"time": 499, "pitch": 62, "duration": 11, "velocity": 99}, {"time": 508, "pitch": 55, "duration": 2, "velocity": 85}, {"time": 511, "pitch": 45, "duration": 16, "velocity": 83}, {"time": 517, "pitch": 52, "duration": 9, "velocity": 74}, {"time": 523, "pitch": 61, "duration": 11, "velocity": 112}, {"time": 523, "pitch": 64, "duration": 11, "velocity": 85}, {"time": 532, "pitch": 57, "duration": 3, "velocity": 72}, {"time": 535, "pitch": 50, "duration": 12, "velocity": 88}, {"time": 541, "pitch": 57, "duration": 5, "velocity": 73}, {"time": 547, "pitch": 62, "duration": 10, "velocity": 93}, {"time": 547, "pitch": 66, "duration": 12, "velocity": 112}, {"time": 556, "pitch": 57, "duration": 5, "velocity": 81}, {"time": 559, "pitch": 42, "duration": 13, "velocity": 96}, {"time": 565, "pitch": 54, "duration": 7, "velocity": 90}, {"time": 571, "pitch": 61, "duration": 12, "velocity": 117}, {"time": 571, "pitch": 66, "duration": 12, "velocity": 117}, {"time": 583, "pitch": 47, "duration": 14, "velocity": 78}, {"time": 589, "pitch": 54, "duration": 8, "velocity": 75}, {"time": 595, "pitch": 62, "duration": 10, "velocity": 89}, {"time": 595, "pitch": 66, "duration": 11, "velocity": 97}, {"time": 604, "pitch": 59, "duration": 4, "velocity": 86}, {"time": 607, "pitch": 43, "duration": 12, "velocity": 73}, {"time": 613, "pitch": 50, "duration": 9, "velocity": 60}, {"time": 619, "pitch": 59, "duration": 12, "velocity": 85}, {"time": 619, "pitch": 62, "duration": 12, "velocity": 86}, {"time": 625, "pitch": 55, "duration": 6, "velocity": 62}, {"time": 631, "pitch": 45, "duration": 4, "velocity": 81}, {"time": 637, "pitch": 45, "duration": 14, "velocity": 75}, {"time": 637, "pitch": 52, "duration": 12, "velocity": 56}, {"time": 643, "pitch": 61, "duration": 12, "velocity": 107}, {"time": 643, "pitch": 64, "duration": 12, "velocity": 92}, {"time": 652, "pitch": 57, "duration": 7, "velocity": 90}, {"time": 655, "pitch": 50, "duration": 2, "velocity": 89}, {"time": 661, "pitch": 50, "duration": 8, "velocity": 72}, {"time": 667, "pitch": 62, "duration": 11, "velocity": 90}, {"time": 667, "pitch": 66, "duration": 12, "velocity": 97}, {"time": 676, "pitch": 57, "duration": 3, "velocity": 70}, {"time": 679, "pitch": 43, "duration": 14, "velocity": 76}, {"time": 685, "pitch": 50, "duration": 10, "velocity": 78}, {"time": 691, "pitch": 59, "duration": 12, "velocity": 89}, {"time": 691, "pitch": 62, "duration": 12, "velocity": 92}, {"time": 700, "pitch": 55, "duration": 3, "velocity": 63}, {"time": 703, "pitch": 45, "duration": 14, "velocity": 78}, {"time": 709, "pitch": 52, "duration": 8, "velocity": 73}, {"time": 715, "pitch": 61, "duration": 11, "velocity": 100}, {"time": 715, "pitch": 64, "duration": 12, "velocity": 86}, {"time": 724, "pitch": 57, "duration": 4, "velocity": 78}, {"time": 727, "pitch": 50, "duration": 22, "velocity": 97}, {"time": 733, "pitch": 57, "duration": 5, "velocity": 92}, {"time": 739, "pitch": 62, "duration": 8, "velocity": 90}, {"time": 739, "pitch": 66, "duration": 8, "velocity": 102}, {"time": 748, "pitch": 57, "duration": 9, "velocity": 79}, {"time": 748, "pitch": 62, "duration": 8, "velocity": 88}, {"time": 748, "pitch": 66, "duration": 9, "velocity": 85}, {"time": 751, "pitch": 50, "duration": 2, "velocity": 82}, {"time": 757, "pitch": 50, "duration": 8, "velocity": 89}, {"time": 763, "pitch": 62, "duration": 12, "velocity": 85}, {"time": 763, "pitch": 66, "duration": 13, "velocity": 122}, {"time": 769, "pitch": 57, "duration": 8, "velocity": 89}, {"time": 775, "pitch": 43, "duration": 16, "velocity": 83}, {"time": 781, "pitch": 50, "duration": 16, "velocity": 77}, {"time": 787, "pitch": 59, "duration": 11, "velocity": 95}, {"time": 787, "pitch": 62, "duration": 11, "velocity": 97}, {"time": 796, "pitch": 55, "duration": 3, "velocity": 90}, {"time": 799, "pitch": 45, "duration": 16, "velocity": 78}, {"time": 805, "pitch": 52, "duration": 10, "velocity": 83}, {"time": 811, "pitch": 61, "duration": 13, "velocity": 107}, {"time": 811, "pitch": 64, "duration": 12, "velocity": 88}, {"time": 820, "pitch": 57, "duration": 4, "velocity": 89}, {"time": 823, "pitch": 42, "duration": 12, "velocity": 82}, {"time": 829, "pitch": 54, "duration": 7, "velocity": 75}, {"time": 835, "pitch": 61, "duration": 11, "velocity": 117}, {"time": 835, "pitch": 66, "duration": 12, "velocity": 102}, {"time": 844, "pitch": 57, "duration": 4, "velocity": 90}, {"time": 847, "pitch": 47, "duration": 15, "velocity": 74}, {"time": 853, "pitch": 54, "duration": 7, "velocity": 83}, {"time": 859, "pitch": 62, "duration": 12, "velocity": 102}, {"time": 859, "pitch": 66, "duration": 12, "velocity": 122}, {"time": 865, "pitch": 59, "duration": 6, "velocity": 93}, {"time": 871, "pitch": 43, "duration": 14, "velocity": 70}, {"time": 877, "pitch": 50, "duration": 9, "velocity": 56}, {"time": 883, "pitch": 55, "duration": 8, "velocity": 85}, {"time": 883, "pitch": 59, "duration": 8, "velocity": 92}, {"time": 883, "pitch": 62, "duration": 8, "velocity": 88}, {"time": 892, "pitch": 55, "duration": 3, "velocity": 78}, {"time": 892, "pitch": 59, "duration": 3, "velocity": 89}, {"time": 892, "pitch": 62, "duration": 3, "velocity": 82}, {"time": 895, "pitch": 45, "duration": 17, "velocity": 72}, {"time": 901, "pitch": 52, "duration": 14, "velocity": 82}, {"time": 907, "pitch": 61, "duration": 7, "velocity": 127}, {"time": 907, "pitch": 64, "duration": 12, "velocity": 97}, {"time": 913, "pitch": 57, "duration": 6, "velocity": 112}, {"time": 916, "pitch": 61, "duration": 3, "velocity": 107}, {"time": 919, "pitch": 47, "duration": 3, "velocity": 77}, {"time": 919, "pitch": 59, "duration": 4, "velocity": 74}, {"time": 919, "pitch": 62, "duration": 4, "velocity": 86}, {"time": 919, "pitch": 66, "duration": 4, "velocity": 79}, {"time": 925, "pitch": 47, "duration": 5, "velocity": 67}, {"time": 925, "pitch": 59, "duration": 4, "velocity": 68}, {"time": 925, "pitch": 62, "duration": 5, "velocity": 76}, {"time": 925, "pitch": 66, "duration": 5, "velocity": 78}, {"time": 931, "pitch": 47, "duration": 3, "velocity": 86}, {"time": 931, "pitch": 59, "duration": 3, "velocity": 72}, {"time": 931, "pitch": 62, "duration": 4, "velocity": 71}, {"time": 931, "pitch": 66, "duration": 4, "velocity": 67}, {"time": 937, "pitch": 47, "duration": 4, "velocity": 95}, {"time": 937, "pitch": 59, "duration": 4, "velocity": 78}, {"time": 937, "pitch": 62, "duration": 4, "velocity": 89}, {"time": 937, "pitch": 66, "duration": 4, "velocity": 88}, {"time": 943, "pitch": 47, "duration": 6, "velocity": 97}, {"time": 943, "pitch": 59, "duration": 6, "velocity": 90}, {"time": 943, "pitch": 62, "duration": 6, "velocity": 99}, {"time": 943, "pitch": 66, "duration": 7, "velocity": 99}, {"time": 967, "pitch": 47, "duration": 14, "velocity": 81}, {"time": 973, "pitch": 54, "duration": 7, "velocity": 67}, {"time": 979, "pitch": 62, "duration": 11, "velocity": 97}, {"time": 979, "pitch": 66, "duration": 12, "velocity": 102}, {"time": 988, "pitch": 59, "duration": 4, "velocity": 76}, {"time": 991, "pitch": 43, "duration": 13, "velocity": 72}, {"time": 997, "pitch": 50, "duration": 8, "velocity": 54}, {"time": 1003, "pitch": 59, "duration": 12, "velocity": 82}, {"time": 1003, "pitch": 62, "duration": 12, "velocity": 83}, {"time": 1015, "pitch": 45, "duration": 13, "velocity": 72}, {"time": 1021, "pitch": 52, "duration": 7, "velocity": 71}, {"time": 1027, "pitch": 57, "duration": 8, "velocity": 85}, {"time": 1027, "pitch": 61, "duration": 8, "velocity": 97}, {"time": 1027, "pitch": 64, "duration": 8, "velocity": 78}, {"time": 1036, "pitch": 57, "duration": 2, "velocity": 71}, {"time": 1036, "pitch": 61, "duration": 3, "velocity": 83}, {"time": 1036, "pitch": 64, "duration": 2, "velocity": 70}, {"time": 1039, "pitch": 50, "duration": 2, "velocity": 65}, {"time": 1045, "pitch": 50, "duration": 7, "velocity": 78}, {"time": 1051, "pitch": 62, "duration": 13, "velocity": 96}, {"time": 1051, "pitch": 66, "duration": 13, "velocity": 102}, {"time": 1057, "pitch": 57, "duration": 7, "velocity": 69}, {"time": 1063, "pitch": 43, "duration": 12, "velocity": 77}, {"time": 1069, "pitch": 50, "duration": 7, "velocity": 64}, {"time": 1075, "pitch": 59, "duration": 11, "velocity": 96}, {"time": 1075, "pitch": 62, "duration": 11, "velocity": 99}, {"time": 1084, "pitch": 55, "duration": 2, "velocity": 85}, {"time": 1087, "pitch": 45, "duration": 16, "velocity": 83}, {"time": 1093, "pitch": 52, "duration": 9, "velocity": 74}, {"time": 1099, "pitch": 61, "duration": 11, "velocity": 112}, {"time": 1099, "pitch": 64, "duration": 11, "velocity": 85}, {"time": 1108, "pitch": 57, "duration": 3, "velocity": 72}, {"time": 1111, "pitch": 50, "duration": 12, "velocity": 88}, {"time": 1117, "pitch": 57, "duration": 5, "velocity": 73}, {"time": 1123, "pitch": 62, "duration": 10, "velocity": 93}, {"time": 1123, "pitch": 66, "duration": 12, "velocity": 112}, {"time": 1132, "pitch": 57, "duration": 5, "velocity": 81}, {"time": 1135, "pitch": 42, "duration": 13, "velocity": 96}, {"time": 1141, "pitch": 54, "duration": 7, "velocity": 90}, {"time": 1147, "pitch": 61, "duration": 12, "velocity": 117}, {"time": 1147, "pitch": 66, "duration": 12, "velocity": 117}, {"time": 1159, "pitch": 47, "duration": 14, "velocity": 78}, {"time": 1165, "pitch": 54, "duration": 8, "velocity": 75}, {"time": 1171, "pitch": 62, "duration": 10, "velocity": 89}, {"time": 1171, "pitch": 66, "duration": 11, "velocity": 97}, {"time": 1180, "pitch": 59, "duration": 4, "velocity": 86}, {"time": 1183, "pitch": 43, "duration": 12, "velocity": 73}, {"time": 1189, "pitch": 50, "duration": 9, "velocity": 60}, {"time": 1195, "pitch": 59, "duration": 12, "velocity": 85}, {"time": 1195, "pitch": 62, "duration": 12, "velocity": 86}, {"time": 1201, "pitch": 55, "duration": 6, "velocity": 62}, {"time": 1207, "pitch": 45, "duration": 4, "velocity": 81}, {"time": 1213, "pitch": 45, "duration": 14, "velocity": 75}, {"time": 1213, "pitch": 52, "duration": 12, "velocity": 56}, {"time": 1219, "pitch": 61, "duration": 12, "velocity": 107}, {"time": 1219, "pitch": 64, "duration": 12, "velocity": 92}, {"time": 1228, "pitch": 57, "duration": 7, "velocity": 90}, {"time": 1231, "pitch": 50, "duration": 2, "velocity": 89}, {"time": 1237, "pitch": 50, "duration": 8, "velocity": 72}, {"time": 1243, "pitch": 62, "duration": 11, "velocity": 90}, {"time": 1243, "pitch": 66, "duration": 12, "velocity": 97}, {"time": 1252, "pitch": 57, "duration": 3, "velocity": 70}, {"time": 1255, "pitch": 43, "duration": 14, "velocity": 76}, {"time": 1261, "pitch": 50, "duration": 10, "velocity": 78}, {"time": 1267, "pitch": 59, "duration": 12, "velocity": 89}, {"time": 1267, "pitch": 62, "duration": 12, "velocity": 92}, {"time": 1276, "pitch": 55, "duration": 3, "velocity": 63}, {"time": 1279, "pitch": 45, "duration": 14, "velocity": 78}, {"time": 1285, "pitch": 52, "duration": 8, "velocity": 73}, {"time": 1291, "pitch": 61, "duration": 11, "velocity": 100}, {"time": 1291, "pitch": 64, "duration": 12, "velocity": 86}, {"time": 1300, "pitch": 57, "duration": 4, "velocity": 78}, {"time": 1303, "pitch": 50, "duration": 22, "velocity": 97}, {"time": 1309, "pitch": 57, "duration": 5, "velocity": 92}, {"time": 1315, "pitch": 62, "duration": 8, "velocity": 90}, {"time": 1315, "pitch": 66, "duration": 8, "velocity": 102}, {"time": 1324, "pitch": 57, "duration": 9, "velocity": 79}, {"time": 1324, "pitch": 62, "duration": 8, "velocity": 88}, {"time": 1324, "pitch": 66, "duration": 9, "velocity": 85}, {"time": 1327, "pitch": 50, "duration": 2, "velocity": 82}, {"time": 1333, "pitch": 50, "duration": 8, "velocity": 89}, {"time": 1339, "pitch": 62, "duration": 12, "velocity": 85}, {"time": 1339, "pitch": 66, "duration": 13, "velocity": 122}, {"time": 1345, "pitch": 57, "duration": 8, "velocity": 89}, {"time": 1351, "pitch": 43, "duration": 16, "velocity": 83}, {"time": 1357, "pitch": 50, "duration": 16, "velocity": 77}, {"time": 1363, "pitch": 59, "duration": 11, "velocity": 95}, {"time": 1363, "pitch": 62, "duration": 11, "velocity": 97}, {"time": 1372, "pitch": 55, "duration": 3, "velocity": 90}, {"time": 1375, "pitch": 45, "duration": 16, "velocity": 78}, {"time": 1381, "pitch": 52, "duration": 10, "velocity": 83}, {"time": 1387, "pitch": 61, "duration": 13, "velocity": 107}, {"time": 1387, "pitch": 64, "duration": 12, "velocity": 88}, {"time": 1396, "pitch": 57, "duration": 4, "velocity": 89}, {"time": 1399, "pitch": 42, "duration": 12, "velocity": 82}, {"time": 1405, "pitch": 54, "duration": 7, "velocity": 75}, {"time": 1411, "pitch": 61, "duration": 11, "velocity": 117}, {"time": 1411, "pitch": 66, "duration": 12, "velocity": 102}, {"time": 1420, "pitch": 57, "duration": 4, "velocity": 90}, {"time": 1423, "pitch": 47, "duration": 15, "velocity": 74}, {"time": 1429, "pitch": 54, "duration": 7, "velocity": 83}, {"time": 1435, "pitch": 62, "duration": 12, "velocity": 102}, {"time": 1435, "pitch": 66, "duration": 12, "velocity": 122}, {"time": 1441, "pitch": 59, "duration": 6, "velocity": 93}, {"time": 1447, "pitch": 43, "duration": 14, "velocity": 70}, {"time": 1453, "pitch": 50, "duration": 9, "velocity": 56}, {"time": 1459, "pitch": 55, "duration": 8, "velocity": 85}, {"time": 1459, "pitch": 59, "duration": 8, "velocity": 92}, {"time": 1459, "pitch": 62, "duration": 8, "velocity": 88}, {"time": 1468, "pitch": 55, "duration": 3, "velocity": 78}, {"time": 1468, "pitch": 59, "duration": 3, "velocity": 89}, {"time": 1468, "pitch": 62, "duration": 3, "velocity": 82}, {"time": 1471, "pitch": 45, "duration": 17, "velocity": 72}, {"time": 1477, "pitch": 52, "duration": 14, "velocity": 82}, {"time": 1483, "pitch": 61, "duration": 7, "velocity": 127}, {"time": 1483, "pitch": 64, "duration": 12, "velocity": 97}, {"time": 1489, "pitch": 57, "duration": 6, "velocity": 112}, {"time": 1492, "pitch": 61, "duration": 3, "velocity": 107}, {"time": 1495, "pitch": 47, "duration": 3, "velocity": 77}, {"time": 1495, "pitch": 59, "duration": 4, "velocity": 74}, {"time": 1495, "pitch": 62, "duration": 4, "velocity": 86}, {"time": 1495, "pitch": 66, "duration": 4, "velocity": 79}, {"time": 1501, "pitch": 47, "duration": 5, "velocity": 67}, {"time": 1501, "pitch": 59, "duration": 4, "velocity": 68}, {"time": 1501, "pitch": 62, "duration": 5, "velocity": 76}, {"time": 1501, "pitch": 66, "duration": 5, "velocity": 78}, {"time": 1507, "pitch": 47, "duration": 3, "velocity": 86}, {"time": 1507, "pitch": 59, "duration": 3, "velocity": 72}, {"time": 1507, "pitch": 62, "duration": 4, "velocity": 71}, {"time": 1507, "pitch": 66, "duration": 4, "velocity": 67}, {"time": 1513, "pitch": 47, "duration": 4, "velocity": 95}, {"time": 1513, "pitch": 59, "duration": 4, "velocity": 78}, {"time": 1513, "pitch": 62, "duration": 4, "velocity": 89}, {"time": 1513, "pitch": 66, "duration": 4, "velocity": 88}, {"time": 1519, "pitch": 47, "duration": 6, "velocity": 97}, {"time": 1519, "pitch": 59, "duration": 6, "velocity": 90}, {"time": 1519, "pitch": 62, "duration": 6, "velocity": 99}, {"time": 1519, "pitch": 66, "duration": 7, "velocity": 99}, {"time": 1525, "pitch": 47, "duration": 6, "velocity": 102}, {"time": 1525, "pitch": 59, "duration": 5, "velocity": 88}, {"time": 1525, "pitch": 62, "duration": 5, "velocity": 100}, {"time": 1525, "pitch": 66, "duration": 1, "velocity": 100}, {"time": 1543, "pitch": 43, "duration": 23, "velocity": 93}, {"time": 1543, "pitch": 55, "duration": 1, "velocity": 107}, {"time": 1543, "pitch": 59, "duration": 1, "velocity": 102}, {"time": 1543, "pitch": 62, "duration": 1, "velocity": 100}, {"time": 1549, "pitch": 50, "duration": 8, "velocity": 86}, {"time": 1555, "pitch": 59, "duration": 7, "velocity": 117}, {"time": 1555, "pitch": 62, "duration": 7, "velocity": 102}, {"time": 1564, "pitch": 50, "duration": 2, "velocity": 112}, {"time": 1567, "pitch": 45, "duration": 13, "velocity": 92}, {"time": 1567, "pitch": 57, "duration": 4, "velocity": 95}, {"time": 1567, "pitch": 61, "duration": 4, "velocity": 117}, {"time": 1567, "pitch": 64, "duration": 4, "velocity": 100}, {"time": 1573, "pitch": 57, "duration": 3, "velocity": 96}, {"time": 1573, "pitch": 61, "duration": 3, "velocity": 122}, {"time": 1573, "pitch": 64, "duration": 3, "velocity": 102}, {"time": 1579, "pitch": 61, "duration": 6, "velocity": 127}, {"time": 1579, "pitch": 64, "duration": 6, "velocity": 127}, {"time": 1582, "pitch": 45, "duration": 2, "velocity": 70}, {"time": 1585, "pitch": 57, "duration": 2, "velocity": 102}, {"time": 1591, "pitch": 42, "duration": 11, "velocity": 100}, {"time": 1591, "pitch": 54, "duration": 1, "velocity": 42}, {"time": 1591, "pitch": 57, "duration": 7, "velocity": 102}, {"time": 1591, "pitch": 61, "duration": 7, "velocity": 122}, {"time": 1591, "pitch": 66, "duration": 8, "velocity": 122}, {"time": 1597, "pitch": 54, "duration": 6, "velocity": 97}, {"time": 1603, "pitch": 61, "duration": 10, "velocity": 127}, {"time": 1603, "pitch": 66, "duration": 9, "velocity": 127}, {"time": 1612, "pitch": 57, "duration": 2, "velocity": 93}, {"time": 1615, "pitch": 47, "duration": 16, "velocity": 69}, {"time": 1615, "pitch": 59, "duration": 3, "velocity": 102}, {"time": 1615, "pitch": 62, "duration": 3, "velocity": 100}, {"time": 1615, "pitch": 66, "duration": 3, "velocity": 99}, {"time": 1621, "pitch": 59, "duration": 7, "velocity": 93}, {"time": 1621, "pitch": 62, "duration": 9, "velocity": 117}, {"time": 1621, "pitch": 66, "duration": 10, "velocity": 127}, {"time": 1627, "pitch": 54, "duration": 4, "velocity": 97}, {"time": 1633, "pitch": 62, "duration": 2, "velocity": 117}, {"time": 1633, "pitch": 66, "duration": 1, "velocity": 122}, {"time": 1639, "pitch": 43, "duration": 15, "velocity": 79}, {"time": 1639, "pitch": 55, "duration": 6, "velocity": 100}, {"time": 1639, "pitch": 59, "duration": 7, "velocity": 92}, {"time": 1639, "pitch": 62, "duration": 7, "velocity": 92}, {"time": 1645, "pitch": 50, "duration": 9, "velocity": 69}, {"time": 1651, "pitch": 59, "duration": 10, "velocity": 117}, {"time": 1651, "pitch": 62, "duration": 8, "velocity": 102}, {"time": 1660, "pitch": 55, "duration": 2, "velocity": 81}, {"time": 1663, "pitch": 45, "duration": 20, "velocity": 67}, {"time": 1663, "pitch": 57, "duration": 2, "velocity": 90}, {"time": 1663, "pitch": 61, "duration": 2, "velocity": 107}, {"time": 1663, "pitch": 64, "duration": 2, "velocity": 97}, {"time": 1669, "pitch": 57, "duration": 2, "velocity": 82}, {"time": 1669, "pitch": 61, "duration": 2, "velocity": 112}, {"time": 1669, "pitch": 64, "duration": 2, "velocity": 88}, {"time": 1675, "pitch": 61, "duration": 6, "velocity": 127}, {"time": 1675, "pitch": 64, "duration": 6, "velocity": 107}, {"time": 1681, "pitch": 57, "duration": 3, "velocity": 97}, {"time": 1687, "pitch": 50, "duration": 12, "velocity": 95}, {"time": 1687, "pitch": 62, "duration": 9, "velocity": 112}, {"time": 1687, "pitch": 66, "duration": 9, "velocity": 117}, {"time": 1693, "pitch": 57, "duration": 3, "velocity": 82}, {"time": 1699, "pitch": 62, "duration": 8, "velocity": 127}, {"time": 1699, "pitch": 66, "duration": 8, "velocity": 127}, {"time": 1708, "pitch": 57, "duration": 2, "velocity": 93}, {"time": 1711, "pitch": 42, "duration": 16, "velocity": 85}, {"time": 1711, "pitch": 54, "duration": 13, "velocity": 85}, {"time": 1711, "pitch": 57, "duration": 2, "velocity": 90}, {"time": 1711, "pitch": 61, "duration": 2, "velocity": 117}, {"time": 1711, "pitch": 66, "duration": 2, "velocity": 100}, {"time": 1717, "pitch": 61, "duration": 2, "velocity": 127}, {"time": 1717, "pitch": 66, "duration": 3, "velocity": 127}, {"time": 1723, "pitch": 61, "duration": 6, "velocity": 127}, {"time": 1723, "pitch": 66, "duration": 6, "velocity": 127}, {"time": 1726, "pitch": 54, "duration": 3, "velocity": 72}, {"time": 1729, "pitch": 57, "duration": 3, "velocity": 117}, {"time": 1735, "pitch": 43, "duration": 14, "velocity": 77}, {"time": 1735, "pitch": 55, "duration": 7, "velocity": 117}, {"time": 1735, "pitch": 59, "duration": 7, "velocity": 112}, {"time": 1735, "pitch": 62, "duration": 9, "velocity": 107}, {"time": 1741, "pitch": 50, "duration": 9, "velocity": 77}, {"time": 1747, "pitch": 59, "duration": 7, "velocity": 127}, {"time": 1747, "pitch": 62, "duration": 9, "velocity": 122}, {"time": 1756, "pitch": 55, "duration": 2, "velocity": 93}, {"time": 1759, "pitch": 45, "duration": 13, "velocity": 74}, {"time": 1759, "pitch": 57, "duration": 2, "velocity": 93}, {"time": 1759, "pitch": 61, "duration": 2, "velocity": 122}, {"time": 1759, "pitch": 64, "duration": 2, "velocity": 97}, {"time": 1765, "pitch": 52, "duration": 6, "velocity": 72}, {"time": 1765, "pitch": 61, "duration": 2, "velocity": 127}, {"time": 1765, "pitch": 64, "duration": 2, "velocity": 100}, {"time": 1771, "pitch": 61, "duration": 6, "velocity": 127}, {"time": 1771, "pitch": 64, "duration": 6, "velocity": 122}, {"time": 1777, "pitch": 57, "duration": 2, "velocity": 100}, {"time": 1783, "pitch": 42, "duration": 12, "velocity": 96}, {"time": 1783, "pitch": 54, "duration": 13, "velocity": 92}, {"time": 1783, "pitch": 57, "duration": 3, "velocity": 112}, {"time": 1783, "pitch": 61, "duration": 3, "velocity": 127}, {"time": 1783, "pitch": 66, "duration": 3, "velocity": 107}, {"time": 1789, "pitch": 61, "duration": 2, "velocity": 117}, {"time": 1789, "pitch": 66, "duration": 2, "velocity": 102}, {"time": 1795, "pitch": 61, "duration": 10, "velocity": 127}, {"time": 1795, "pitch": 66, "duration": 9, "velocity": 127}, {"time": 1804, "pitch": 57, "duration": 2, "velocity": 97}, {"time": 1807, "pitch": 47, "duration": 14, "velocity": 73}, {"time": 1807, "pitch": 59, "duration": 2, "velocity": 92}, {"time": 1807, "pitch": 62, "duration": 2, "velocity": 107}, {"time": 1807, "pitch": 66, "duration": 2, "velocity": 102}, {"time": 1813, "pitch": 59, "duration": 2, "velocity": 88}, {"time": 1813, "pitch": 62, "duration": 2, "velocity": 112}, {"time": 1813, "pitch": 66, "duration": 2, "velocity": 117}, {"time": 1819, "pitch": 54, "duration": 2, "velocity": 102}, {"time": 1819, "pitch": 62, "duration": 5, "velocity": 127}, {"time": 1819, "pitch": 66, "duration": 6, "velocity": 127}, {"time": 1825, "pitch": 57, "duration": 2, "velocity": 122}, {"time": 1831, "pitch": 43, "duration": 14, "velocity": 74}, {"time": 1831, "pitch": 55, "duration": 7, "velocity": 97}, {"time": 1831, "pitch": 59, "duration": 7, "velocity": 96}, {"time": 1831, "pitch": 62, "duration": 7, "velocity": 96}, {"time": 1837, "pitch": 50, "duration": 8, "velocity": 93}, {"time": 1843, "pitch": 59, "duration": 8, "velocity": 107}, {"time": 1843, "pitch": 62, "duration": 7, "velocity": 100}, {"time": 1852, "pitch": 55, "duration": 1, "velocity": 86}, {"time": 1855, "pitch": 45, "duration": 13, "velocity": 71}, {"time": 1855, "pitch": 57, "duration": 2, "velocity": 93}, {"time": 1855, "pitch": 61, "duration": 2, "velocity": 112}, {"time": 1855, "pitch": 64, "duration": 1, "velocity": 92}, {"time": 1861, "pitch": 57, "duration": 2, "velocity": 89}, {"time": 1861, "pitch": 61, "duration": 2, "velocity": 127}, {"time": 1861, "pitch": 64, "duration": 2, "velocity": 92}, {"time": 1867, "pitch": 61, "duration": 5, "velocity": 127}, {"time": 1867, "pitch": 64, "duration": 4, "velocity": 102}, {"time": 1873, "pitch": 57, "duration": 2, "velocity": 73}, {"time": 1879, "pitch": 42, "duration": 12, "velocity": 93}, {"time": 1879, "pitch": 54, "duration": 2, "velocity": 66}, {"time": 1879, "pitch": 57, "duration": 8, "velocity": 95}, {"time": 1879, "pitch": 61, "duration": 9, "velocity": 117}, {"time": 1879, "pitch": 66, "duration": 5, "velocity": 117}, {"time": 1879, "pitch": 69, "duration": 5, "velocity": 127}, {"time": 1879, "pitch": 73, "duration": 5, "velocity": 127}, {"time": 1885, "pitch": 54, "duration": 7, "velocity": 96}, {"time": 1885, "pitch": 66, "duration": 3, "velocity": 112}, {"time": 1885, "pitch": 69, "duration": 4, "velocity": 127}, {"time": 1885, "pitch": 73, "duration": 4, "velocity": 112}, {"time": 1891, "pitch": 61, "duration": 10, "velocity": 127}, {"time": 1891, "pitch": 66, "duration": 4, "velocity": 127}, {"time": 1891, "pitch": 69, "duration": 4, "velocity": 127}, {"time": 1891, "pitch": 73, "duration": 4, "velocity": 127}, {"time": 1897, "pitch": 66, "duration": 2, "velocity": 117}, {"time": 1897, "pitch": 69, "duration": 3, "velocity": 117}, {"time": 1897, "pitch": 73, "duration": 3, "velocity": 122}, {"time": 1900, "pitch": 57, "duration": 1, "velocity": 89}, {"time": 1903, "pitch": 47, "duration": 24, "velocity": 82}, {"time": 1903, "pitch": 59, "duration": 2, "velocity": 93}, {"time": 1903, "pitch": 62, "duration": 2, "velocity": 107}, {"time": 1903, "pitch": 66, "duration": 2, "velocity": 112}, {"time": 1903, "pitch": 71, "duration": 4, "velocity": 107}, {"time": 1903, "pitch": 73, "duration": 1, "velocity": 127}, {"time": 1903, "pitch": 74, "duration": 4, "velocity": 127}, {"time": 1903, "pitch": 78, "duration": 4, "velocity": 127}, {"time": 1909, "pitch": 59, "duration": 2, "velocity": 95}, {"time": 1909, "pitch": 62, "duration": 2, "velocity": 107}, {"time": 1909, "pitch": 66, "duration": 2, "velocity": 112}, {"time": 1909, "pitch": 71, "duration": 4, "velocity": 107}, {"time": 1909, "pitch": 74, "duration": 4, "velocity": 117}, {"time": 1909, "pitch": 78, "duration": 4, "velocity": 122}, {"time": 1912, "pitch": 54, "duration": 2, "velocity": 28}, {"time": 1915, "pitch": 62, "duration": 3, "velocity": 127}, {"time": 1915, "pitch": 66, "duration": 3, "velocity": 127}, {"time": 1915, "pitch": 71, "duration": 3, "velocity": 112}, {"time": 1915, "pitch": 74, "duration": 4, "velocity": 127}, {"time": 1915, "pitch": 78, "duration": 4, "velocity": 127}, {"time": 1918, "pitch": 54, "duration": 9, "velocity": 107}, {"time": 1921, "pitch": 62, "duration": 6, "velocity": 127}, {"time": 1921, "pitch": 66, "duration": 6, "velocity": 122}, {"time": 1924, "pitch": 59, "duration": 3, "velocity": 95}, {"time": 1927, "pitch": 43, "duration": 22, "velocity": 97}, {"time": 1933, "pitch": 50, "duration": 18, "velocity": 97}, {"time": 1939, "pitch": 59, "duration": 12, "velocity": 117}, {"time": 1939, "pitch": 62, "duration": 9, "velocity": 127}, {"time": 1948, "pitch": 55, "duration": 4, "velocity": 97}, {"time": 1948, "pitch": 62, "duration": 1, "velocity": 37}, {"time": 1951, "pitch": 45, "duration": 16, "velocity": 82}, {"time": 1957, "pitch": 52, "duration": 10, "velocity": 102}, {"time": 1963, "pitch": 61, "duration": 12, "velocity": 122}, {"time": 1963, "pitch": 64, "duration": 12, "velocity": 100}, {"time": 1969, "pitch": 57, "duration": 7, "velocity": 82}, {"time": 1975, "pitch": 42, "duration": 14, "velocity": 95}, {"time": 1981, "pitch": 54, "duration": 8, "velocity": 97}, {"time": 1987, "pitch": 61, "duration": 11, "velocity": 122}, {"time": 1987, "pitch": 66, "duration": 12, "velocity": 122}, {"time": 1996, "pitch": 57, "duration": 4, "velocity": 99}, {"time": 1999, "pitch": 47, "duration": 14, "velocity": 78}, {"time": 2005, "pitch": 54, "duration": 8, "velocity": 95}, {"time": 2011, "pitch": 62, "duration": 13, "velocity": 117}, {"time": 2011, "pitch": 66, "duration": 13, "velocity": 117}, {"time": 2017, "pitch": 59, "duration": 7, "velocity": 93}, {"time": 2023, "pitch": 43, "duration": 16, "velocity": 93}, {"time": 2029, "pitch": 50, "duration": 14, "velocity": 73}, {"time": 2035, "pitch": 59, "duration": 11, "velocity": 99}, {"time": 2035, "pitch": 62, "duration": 11, "velocity": 99}, {"time": 2044, "pitch": 55, "duration": 3, "velocity": 102}, {"time": 2047, "pitch": 45, "duration": 15, "velocity": 74}, {"time": 2053, "pitch": 52, "duration": 10, "velocity": 100}, {"time": 2059, "pitch": 61, "duration": 11, "velocity": 127}, {"time": 2059, "pitch": 64, "duration": 11, "velocity": 99}, {"time": 2065, "pitch": 57, "duration": 8, "velocity": 96}, {"time": 2071, "pitch": 47, "duration": 23, "velocity": 86}, {"time": 2077, "pitch": 54, "duration": 7, "velocity": 97}, {"time": 2083, "pitch": 62, "duration": 4, "velocity": 107}, {"time": 2083, "pitch": 66, "duration": 4, "velocity": 127}, {"time": 2086, "pitch": 54, "duration": 7, "velocity": 107}, {"time": 2089, "pitch": 62, "duration": 4, "velocity": 95}, {"time": 2089, "pitch": 66, "duration": 4, "velocity": 95}, {"time": 2095, "pitch": 47, "duration": 6, "velocity": 76}, {"time": 2095, "pitch": 54, "duration": 5, "velocity": 102}, {"time": 2095, "pitch": 59, "duration": 5, "velocity": 107}, {"time": 2095, "pitch": 62, "duration": 6, "velocity": 127}, {"time": 2095, "pitch": 66, "duration": 6, "velocity": 127}, {"time": 2119, "pitch": 47, "duration": 14, "velocity": 81}, {"time": 2125, "pitch": 54, "duration": 7, "velocity": 67}, {"time": 2131, "pitch": 62, "duration": 11, "velocity": 97}, {"time": 2131, "pitch": 66, "duration": 12, "velocity": 102}, {"time": 2140, "pitch": 59, "duration": 4, "velocity": 76}, {"time": 2143, "pitch": 43, "duration": 13, "velocity": 72}, {"time": 2149, "pitch": 50, "duration": 8, "velocity": 54}, {"time": 2155, "pitch": 59, "duration": 12, "velocity": 82}, {"time": 2155, "pitch": 62, "duration": 12, "velocity": 83}, {"time": 2167, "pitch": 45, "duration": 13, "velocity": 72}, {"time": 2173, "pitch": 52, "duration": 7, "velocity": 71}, {"time": 2179, "pitch": 57, "duration": 8, "velocity": 85}, {"time": 2179, "pitch": 61, "duration": 8, "velocity": 97}, {"time": 2179, "pitch": 64, "duration": 8, "velocity": 78}, {"time": 2188, "pitch": 57, "duration": 2, "velocity": 71}, {"time": 2188, "pitch": 61, "duration": 3, "velocity": 83}, {"time": 2188, "pitch": 64, "duration": 2, "velocity": 70}, {"time": 2191, "pitch": 50, "duration": 2, "velocity": 65}, {"time": 2197, "pitch": 50, "duration": 7, "velocity": 78}, {"time": 2203, "pitch": 62, "duration": 13, "velocity": 96}, {"time": 2203, "pitch": 66, "duration": 13, "velocity": 102}, {"time": 2209, "pitch": 57, "duration": 7, "velocity": 69}, {"time": 2215, "pitch": 43, "duration": 12, "velocity": 77}, {"time": 2221, "pitch": 50, "duration": 7, "velocity": 64}, {"time": 2227, "pitch": 59, "duration": 11, "velocity": 96}, {"time": 2227, "pitch": 62, "duration": 11, "velocity": 99}, {"time": 2236, "pitch": 55, "duration": 2, "velocity": 85}, {"time": 2239, "pitch": 45, "duration": 16, "velocity": 83}, {"time": 2245, "pitch": 52, "duration": 9, "velocity": 74}, {"time": 2251, "pitch": 61, "duration": 11, "velocity": 112}, {"time": 2251, "pitch": 64, "duration": 11, "velocity": 85}, {"time": 2260, "pitch": 57, "duration": 3, "velocity": 72}, {"time": 2263, "pitch": 50, "duration": 12, "velocity": 88}, {"time": 2269, "pitch": 57, "duration": 5, "velocity": 73}, {"time": 2275, "pitch": 62, "duration": 10, "velocity": 93}, {"time": 2275, "pitch": 66, "duration": 12, "velocity": 112}, {"time": 2284, "pitch": 57, "duration": 5, "velocity": 81}, {"time": 2287, "pitch": 42, "duration": 13, "velocity": 96}, {"time": 2293, "pitch": 54, "duration": 7, "velocity": 90}, {"time": 2299, "pitch": 61, "duration": 12, "velocity": 117}, {"time": 2299, "pitch": 66, "duration": 12, "velocity": 117}, {"time": 2311, "pitch": 47, "duration": 14, "velocity": 78}, {"time": 2317, "pitch": 54, "duration": 8, "velocity": 75}, {"time": 2323, "pitch": 62, "duration": 10, "velocity": 89}, {"time": 2323, "pitch": 66, "duration": 11, "velocity": 97}, {"time": 2332, "pitch": 59, "duration": 4, "velocity": 86}, {"time": 2335, "pitch": 43, "duration": 12, "velocity": 73}, {"time": 2341, "pitch": 50, "duration": 9, "velocity": 60}, {"time": 2347, "pitch": 59, "duration": 12, "velocity": 85}, {"time": 2347, "pitch": 62, "duration": 12, "velocity": 86}, {"time": 2353, "pitch": 55, "duration": 6, "velocity": 62}, {"time": 2359, "pitch": 45, "duration": 4, "velocity": 81}, {"time": 2365, "pitch": 45, "duration": 14, "velocity": 75}, {"time": 2365, "pitch": 52, "duration": 12, "velocity": 56}, {"time": 2371, "pitch": 61, "duration": 12, "velocity": 107}, {"time": 2371, "pitch": 64, "duration": 12, "velocity": 92}, {"time": 2380, "pitch": 57, "duration": 7, "velocity": 90}, {"time": 2383, "pitch": 50, "duration": 2, "velocity": 89}, {"time": 2389, "pitch": 50, "duration": 8, "velocity": 72}, {"time": 2395, "pitch": 62, "duration": 11, "velocity": 90}, {"time": 2395, "pitch": 66, "duration": 12, "velocity": 97}, {"time": 2404, "pitch": 57, "duration": 3, "velocity": 70}, {"time": 2407, "pitch": 43, "duration": 14, "velocity": 76}, {"time": 2413, "pitch": 50, "duration": 10, "velocity": 78}, {"time": 2419, "pitch": 59, "duration": 12, "velocity": 89}, {"time": 2419, "pitch": 62, "duration": 12, "velocity": 92}, {"time": 2428, "pitch": 55, "duration": 3, "velocity": 63}, {"time": 2431, "pitch": 45, "duration": 14, "velocity": 78}, {"time": 2437, "pitch": 52, "duration": 8, "velocity": 73}, {"time": 2443, "pitch": 61, "duration": 11, "velocity": 100}, {"time": 2443, "pitch": 64, "duration": 12, "velocity": 86}, {"time": 2452, "pitch": 57, "duration": 4, "velocity": 78}, {"time": 2455, "pitch": 50, "duration": 22, "velocity": 97}, {"time": 2461, "pitch": 57, "duration": 5, "velocity": 92}, {"time": 2467, "pitch": 62, "duration": 8, "velocity": 90}, {"time": 2467, "pitch": 66, "duration": 8, "velocity": 102}, {"time": 2476, "pitch": 57, "duration": 9, "velocity": 79}, {"time": 2476, "pitch": 62, "duration": 8, "velocity": 88}, {"time": 2476, "pitch": 66, "duration": 9, "velocity": 85}, {"time": 2479, "pitch": 50, "duration": 2, "velocity": 82}, {"time": 2485, "pitch": 50, "duration": 8, "velocity": 89}, {"time": 2491, "pitch": 62, "duration": 12, "velocity": 85}, {"time": 2491, "pitch": 66, "duration": 13, "velocity": 122}, {"time": 2497, "pitch": 57, "duration": 8, "velocity": 89}, {"time": 2503, "pitch": 43, "duration": 16, "velocity": 83}, {"time": 2509, "pitch": 50, "duration": 16, "velocity": 77}, {"time": 2515, "pitch": 59, "duration": 11, "velocity": 95}, {"time": 2515, "pitch": 62, "duration": 11, "velocity": 97}, {"time": 2524, "pitch": 55, "duration": 3, "velocity": 90}, {"time": 2527, "pitch": 45, "duration": 16, "velocity": 78}, {"time": 2533, "pitch": 52, "duration": 10, "velocity": 83}, {"time": 2539, "pitch": 61, "duration": 13, "velocity": 107}, {"time": 2539, "pitch": 64, "duration": 12, "velocity": 88}, {"time": 2548, "pitch": 57, "duration": 4, "velocity": 89}, {"time": 2551, "pitch": 42, "duration": 12, "velocity": 82}, {"time": 2557, "pitch": 54, "duration": 7, "velocity": 75}, {"time": 2563, "pitch": 61, "duration": 11, "velocity": 117}, {"time": 2563, "pitch": 66, "duration": 12, "velocity": 102}, {"time": 2572, "pitch": 57, "duration": 4, "velocity": 90}, {"time": 2575, "pitch": 47, "duration": 15, "velocity": 74}, {"time": 2581, "pitch": 54, "duration": 7, "velocity": 83}, {"time": 2587, "pitch": 62, "duration": 12, "velocity": 102}, {"time": 2587, "pitch": 66, "duration": 12, "velocity": 122}, {"time": 2593, "pitch": 59, "duration": 6, "velocity": 93}, {"time": 2599, "pitch": 43, "duration": 14, "velocity": 70}, {"time": 2605, "pitch": 50, "duration": 9, "velocity": 56}, {"time": 2611, "pitch": 55, "duration": 8, "velocity": 85}, {"time": 2611, "pitch": 59, "duration": 8, "velocity": 92}, {"time": 2611, "pitch": 62, "duration": 8, "velocity": 88}, {"time": 2620, "pitch": 55, "duration": 3, "velocity": 78}, {"time": 2620, "pitch": 59, "duration": 3, "velocity": 89}, {"time": 2620, "pitch": 62, "duration": 3, "velocity": 82}, {"time": 2623, "pitch": 45, "duration": 17, "velocity": 72}, {"time": 2629, "pitch": 52, "duration": 14, "velocity": 82}, {"time": 2635, "pitch": 61, "duration": 7, "velocity": 127}, {"time": 2635, "pitch": 64, "duration": 12, "velocity": 97}, {"time": 2641, "pitch": 57, "duration": 6, "velocity": 112}, {"time": 2644, "pitch": 61, "duration": 3, "velocity": 107}, {"time": 2647, "pitch": 47, "duration": 11, "velocity": 78}, {"time": 2647, "pitch": 59, "duration": 3, "velocity": 99}, {"time": 2647, "pitch": 62, "duration": 3, "velocity": 99}, {"time": 2647, "pitch": 66, "duration": 4, "velocity": 117}, {"time": 2653, "pitch": 59, "duration": 3, "velocity": 89}, {"time": 2653, "pitch": 62, "duration": 3, "velocity": 96}, {"time": 2653, "pitch": 66, "duration": 4, "velocity": 97}, {"time": 2659, "pitch": 47, "duration": 4, "velocity": 69}, {"time": 2659, "pitch": 59, "duration": 3, "velocity": 96}, {"time": 2659, "pitch": 62, "duration": 3, "velocity": 97}, {"time": 2659, "pitch": 66, "duration": 4, "velocity": 100}, {"time": 2665, "pitch": 47, "duration": 4, "velocity": 95}, {"time": 2665, "pitch": 59, "duration": 3, "velocity": 93}, {"time": 2665, "pitch": 62, "duration": 3, "velocity": 102}, {"time": 2665, "pitch": 66, "duration": 4, "velocity": 107}, {"time": 2671, "pitch": 47, "duration": 3, "velocity": 102}, {"time": 2671, "pitch": 59, "duration": 3, "velocity": 99}, {"time": 2671, "pitch": 62, "duration": 3, "velocity": 107}, {"time": 2671, "pitch": 66, "duration": 4, "velocity": 117}, {"time": 2677, "pitch": 47, "duration": 3, "velocity": 107}, {"time": 2677, "pitch": 59, "duration": 3, "velocity": 97}, {"time": 2677, "pitch": 62, "duration": 3, "velocity": 102}, {"time": 2677, "pitch": 66, "duration": 4, "velocity": 122}, {"time": 2683, "pitch": 47, "duration": 3, "velocity": 112}, {"time": 2683, "pitch": 59, "duration": 2, "velocity": 88}, {"time": 2683, "pitch": 62, "duration": 2, "velocity": 102}, {"time": 2683, "pitch": 66, "duration": 3, "velocity": 102}, {"time": 2689, "pitch": 47, "duration": 2, "velocity": 117}, {"time": 2689, "pitch": 59, "duration": 2, "velocity": 90}, {"time": 2689, "pitch": 62, "duration": 1, "velocity": 100}, {"time": 2689, "pitch": 66, "duration": 1, "velocity": 122}, {"time": 2692, "pitch": 47, "duration": 2, "velocity": 112}, {"time": 2692, "pitch": 59, "duration": 2, "velocity": 81}, {"time": 2692, "pitch": 62, "duration": 2, "velocity": 97}, {"time": 2692, "pitch": 66, "duration": 2, "velocity": 99}, {"time": 2695, "pitch": 43, "duration": 23, "velocity": 93}, {"time": 2695, "pitch": 55, "duration": 1, "velocity": 107}, {"time": 2695, "pitch": 59, "duration": 1, "velocity": 102}, {"time": 2695, "pitch": 62, "duration": 1, "velocity": 100}, {"time": 2701, "pitch": 50, "duration": 8, "velocity": 86}, {"time": 2707, "pitch": 59, "duration": 7, "velocity": 117}, {"time": 2707, "pitch": 62, "duration": 7, "velocity": 102}, {"time": 2716, "pitch": 50, "duration": 2, "velocity": 112}, {"time": 2719, "pitch": 45, "duration": 13, "velocity": 92}, {"time": 2719, "pitch": 57, "duration": 4, "velocity": 95}, {"time": 2719, "pitch": 61, "duration": 4, "velocity": 117}, {"time": 2719, "pitch": 64, "duration": 4, "velocity": 100}, {"time": 2725, "pitch": 57, "duration": 3, "velocity": 96}, {"time": 2725, "pitch": 61, "duration": 3, "velocity": 122}, {"time": 2725, "pitch": 64, "duration": 3, "velocity": 102}, {"time": 2731, "pitch": 61, "duration": 6, "velocity": 127}, {"time": 2731, "pitch": 64, "duration": 6, "velocity": 127}, {"time": 2734, "pitch": 45, "duration": 2, "velocity": 70}, {"time": 2737, "pitch": 57, "duration": 2, "velocity": 102}, {"time": 2743, "pitch": 42, "duration": 11, "velocity": 100}, {"time": 2743, "pitch": 54, "duration": 1, "velocity": 42}, {"time": 2743, "pitch": 57, "duration": 7, "velocity": 102}, {"time": 2743, "pitch": 61, "duration": 7, "velocity": 122}, {"time": 2743, "pitch": 66, "duration": 8, "velocity": 122}, {"time": 2749, "pitch": 54, "duration": 6, "velocity": 97}, {"time": 2755, "pitch": 61, "duration": 10, "velocity": 127}, {"time": 2755, "pitch": 66, "duration": 9, "velocity": 127}, {"time": 2764, "pitch": 57, "duration": 2, "velocity": 93}, {"time": 2767, "pitch": 47, "duration": 16, "velocity": 69}, {"time": 2767, "pitch": 59, "duration": 3, "velocity": 102}, {"time": 2767, "pitch": 62, "duration": 3, "velocity": 100}, {"time": 2767, "pitch": 66, "duration": 3, "velocity": 99}, {"time": 2773, "pitch": 59, "duration": 7, "velocity": 93}, {"time": 2773, "pitch": 62, "duration": 9, "velocity": 117}, {"time": 2773, "pitch": 66, "duration": 10, "velocity": 127}, {"time": 2779, "pitch": 54, "duration": 4, "velocity": 97}, {"time": 2785, "pitch": 62, "duration": 2, "velocity": 117}, {"time": 2785, "pitch": 66, "duration": 1, "velocity": 122}, {"time": 2791, "pitch": 43, "duration": 15, "velocity": 79}, {"time": 2791, "pitch": 55, "duration": 6, "velocity": 100}, {"time": 2791, "pitch": 59, "duration": 7, "velocity": 92}, {"time": 2791, "pitch": 62, "duration": 7, "velocity": 92}, {"time": 2797, "pitch": 50, "duration": 9, "velocity": 69}, {"time": 2803, "pitch": 59, "duration": 10, "velocity": 117}, {"time": 2803, "pitch": 62, "duration": 8, "velocity": 102}, {"time": 2812, "pitch": 55, "duration": 2, "velocity": 81}, {"time": 2815, "pitch": 45, "duration": 20, "velocity": 67}, {"time": 2815, "pitch": 57, "duration": 2, "velocity": 90}, {"time": 2815, "pitch": 61, "duration": 2, "velocity": 107}, {"time": 2815, "pitch": 64, "duration": 2, "velocity": 97}, {"time": 2821, "pitch": 57, "duration": 2, "velocity": 82}, {"time": 2821, "pitch": 61, "duration": 2, "velocity": 112}, {"time": 2821, "pitch": 64, "duration": 2, "velocity": 88}, {"time": 2827, "pitch": 61, "duration": 6, "velocity": 127}, {"time": 2827, "pitch": 64, "duration": 6, "velocity": 107}, {"time": 2833, "pitch": 57, "duration": 3, "velocity": 97}, {"time": 2839, "pitch": 50, "duration": 12, "velocity": 95}, {"time": 2839, "pitch": 62, "duration": 9, "velocity": 112}, {"time": 2839, "pitch": 66, "duration": 9, "velocity": 117}, {"time": 2845, "pitch": 57, "duration": 3, "velocity": 82}, {"time": 2851, "pitch": 62, "duration": 8, "velocity": 127}, {"time": 2851, "pitch": 66, "duration": 8, "velocity": 127}, {"time": 2860, "pitch": 57, "duration": 2, "velocity": 93}, {"time": 2863, "pitch": 42, "duration": 16, "velocity": 85}, {"time": 2863, "pitch": 54, "duration": 13, "velocity": 85}, {"time": 2863, "pitch": 57, "duration": 2, "velocity": 90}, {"time": 2863, "pitch": 61, "duration": 2, "velocity": 117}, {"time": 2863, "pitch": 66, "duration": 2, "velocity": 100}, {"time": 2869, "pitch": 61, "duration": 2, "velocity": 127}, {"time": 2869, "pitch": 66, "duration": 3, "velocity": 127}, {"time": 2875, "pitch": 61, "duration": 6, "velocity": 127}, {"time": 2875, "pitch": 66, "duration": 6, "velocity": 127}, {"time": 2878, "pitch": 54, "duration": 3, "velocity": 72}, {"time": 2881, "pitch": 57, "duration": 3, "velocity": 117}, {"time": 2887, "pitch": 43, "duration": 14, "velocity": 77}, {"time": 2887, "pitch": 55, "duration": 7, "velocity": 117}, {"time": 2887, "pitch": 59, "duration": 7, "velocity": 112}, {"time": 2887, "pitch": 62, "duration": 9, "velocity": 107}, {"time": 2893, "pitch": 50, "duration": 9, "velocity": 77}, {"time": 2899, "pitch": 59, "duration": 7, "velocity": 127}, {"time": 2899, "pitch": 62, "duration": 9, "velocity": 122}, {"time": 2908, "pitch": 55, "duration": 2, "velocity": 93}, {"time": 2911, "pitch": 45, "duration": 13, "velocity": 74}, {"time": 2911, "pitch": 57, "duration": 2, "velocity": 93}, {"time": 2911, "pitch": 61, "duration": 2, "velocity": 122}, {"time": 2911, "pitch": 64, "duration": 2, "velocity": 97}, {"time": 2917, "pitch": 52, "duration": 6, "velocity": 72}, {"time": 2917, "pitch": 61, "duration": 2, "velocity": 127}, {"time": 2917, "pitch": 64, "duration": 2, "velocity": 100}, {"time": 2923, "pitch": 61, "duration": 6, "velocity": 127}, {"time": 2923, "pitch": 64, "duration": 6, "velocity": 122}, {"time": 2929, "pitch": 57, "duration": 2, "velocity": 100}, {"time": 2935, "pitch": 42, "duration": 12, "velocity": 96}, {"time": 2935, "pitch": 54, "duration": 13, "velocity": 92}, {"time": 2935, "pitch": 57, "duration": 3, "velocity": 112}, {"time": 2935, "pitch": 61, "duration": 3, "velocity": 127}, {"time": 2935, "pitch": 66, "duration": 3, "velocity": 107}, {"time": 2941, "pitch": 61, "duration": 2, "velocity": 117}, {"time": 2941, "pitch": 66, "duration": 2, "velocity": 102}, {"time": 2947, "pitch": 61, "duration": 10, "velocity": 127}, {"time": 2947, "pitch": 66, "duration": 9, "velocity": 127}, {"time": 2956, "pitch": 57, "duration": 2, "velocity": 97}, {"time": 2959, "pitch": 47, "duration": 14, "velocity": 73}, {"time": 2959, "pitch": 59, "duration": 2, "velocity": 92}, {"time": 2959, "pitch": 62, "duration": 2, "velocity": 107}, {"time": 2959, "pitch": 66, "duration": 2, "velocity": 102}, {"time": 2965, "pitch": 59, "duration": 2, "velocity": 88}, {"time": 2965, "pitch": 62, "duration": 2, "velocity": 112}, {"time": 2965, "pitch": 66, "duration": 2, "velocity": 117}, {"time": 2971, "pitch": 54, "duration": 2, "velocity": 102}, {"time": 2971, "pitch": 62, "duration": 5, "velocity": 127}, {"time": 2971, "pitch": 66, "duration": 6, "velocity": 127}, {"time": 2977, "pitch": 57, "duration": 2, "velocity": 122}, {"time": 2983, "pitch": 43, "duration": 14, "velocity": 74}, {"time": 2983, "pitch": 55, "duration": 7, "velocity": 97}, {"time": 2983, "pitch": 59, "duration": 7, "velocity": 96}, {"time": 2983, "pitch": 62, "duration": 7, "velocity": 96}, {"time": 2989, "pitch": 50, "duration": 8, "velocity": 93}, {"time": 2995, "pitch": 59, "duration": 8, "velocity": 107}, {"time": 2995, "pitch": 62, "duration": 7, "velocity": 100}, {"time": 3004, "pitch": 55, "duration": 1, "velocity": 86}, {"time": 3007, "pitch": 45, "duration": 13, "velocity": 71}, {"time": 3007, "pitch": 57, "duration": 2, "velocity": 93}, {"time": 3007, "pitch": 61, "duration": 2, "velocity": 112}, {"time": 3007, "pitch": 64, "duration": 1, "velocity": 92}, {"time": 3013, "pitch": 57, "duration": 2, "velocity": 89}, {"time": 3013, "pitch": 61, "duration": 2, "velocity": 127}, {"time": 3013, "pitch": 64, "duration": 2, "velocity": 92}, {"time": 3019, "pitch": 61, "duration": 5, "velocity": 127}, {"time": 3019, "pitch": 64, "duration": 4, "velocity": 102}, {"time": 3025, "pitch": 57, "duration": 2, "velocity": 73}, {"time": 3031, "pitch": 42, "duration": 12, "velocity": 93}, {"time": 3031, "pitch": 54, "duration": 2, "velocity": 66}, {"time": 3031, "pitch": 57, "duration": 8, "velocity": 95}, {"time": 3031, "pitch": 61, "duration": 9, "velocity": 117}, {"time": 3031, "pitch": 66, "duration": 9, "velocity": 117}, {"time": 3037, "pitch": 54, "duration": 7, "velocity": 96}, {"time": 3043, "pitch": 61, "duration": 10, "velocity": 127}, {"time": 3043, "pitch": 66, "duration": 8, "velocity": 127}, {"time": 3052, "pitch": 57, "duration": 1, "velocity": 89}, {"time": 3055, "pitch": 47, "duration": 24, "velocity": 82}, {"time": 3055, "pitch": 59, "duration": 2, "velocity": 93}, {"time": 3055, "pitch": 62, "duration": 2, "velocity": 107}, {"time": 3055, "pitch": 66, "duration": 2, "velocity": 112}, {"time": 3061, "pitch": 59, "duration": 2, "velocity": 95}, {"time": 3061, "pitch": 62, "duration": 2, "velocity": 107}, {"time": 3061, "pitch": 66, "duration": 2, "velocity": 112}, {"time": 3064, "pitch": 54, "duration": 2, "velocity": 28}, {"time": 3067, "pitch": 62, "duration": 3, "velocity": 127}, {"time": 3067, "pitch": 66, "duration": 3, "velocity": 127}, {"time": 3070, "pitch": 54, "duration": 9, "velocity": 107}, {"time": 3073, "pitch": 62, "duration": 6, "velocity": 127}, {"time": 3073, "pitch": 66, "duration": 6, "velocity": 122}, {"time": 3076, "pitch": 59, "duration": 3, "velocity": 95}, {"time": 3079, "pitch": 43, "duration": 18, "velocity": 68}, {"time": 3079, "pitch": 55, "duration": 2, "velocity": 86}, {"time": 3079, "pitch": 59, "duration": 2, "velocity": 89}, {"time": 3079, "pitch": 62, "duration": 3, "velocity": 89}, {"time": 3085, "pitch": 59, "duration": 11, "velocity": 100}, {"time": 3085, "pitch": 62, "duration": 10, "velocity": 100}, {"time": 3091, "pitch": 50, "duration": 13, "velocity": 107}, {"time": 3097, "pitch": 55, "duration": 3, "velocity": 96}, {"time": 3103, "pitch": 45, "duration": 14, "velocity": 77}, {"time": 3103, "pitch": 57, "duration": 3, "velocity": 99}, {"time": 3103, "pitch": 61, "duration": 3, "velocity": 93}, {"time": 3103, "pitch": 64, "duration": 3, "velocity": 88}, {"time": 3109, "pitch": 57, "duration": 2, "velocity": 82}, {"time": 3109, "pitch": 61, "duration": 3, "velocity": 96}, {"time": 3109, "pitch": 64, "duration": 3, "velocity": 85}, {"time": 3115, "pitch": 52, "duration": 2, "velocity": 63}, {"time": 3115, "pitch": 61, "duration": 6, "velocity": 127}, {"time": 3115, "pitch": 64, "duration": 6, "velocity": 100}, {"time": 3121, "pitch": 57, "duration": 3, "velocity": 79}, {"time": 3127, "pitch": 42, "duration": 3, "velocity": 93}, {"time": 3127, "pitch": 54, "duration": 3, "velocity": 95}, {"time": 3127, "pitch": 57, "duration": 2, "velocity": 88}, {"time": 3127, "pitch": 61, "duration": 2, "velocity": 102}, {"time": 3127, "pitch": 66, "duration": 3, "velocity": 99}, {"time": 3133, "pitch": 42, "duration": 3, "velocity": 100}, {"time": 3133, "pitch": 54, "duration": 3, "velocity": 107}, {"time": 3133, "pitch": 57, "duration": 3, "velocity": 96}, {"time": 3133, "pitch": 61, "duration": 3, "velocity": 117}, {"time": 3133, "pitch": 66, "duration": 3, "velocity": 102}, {"time": 3157, "pitch": 47, "duration": 5, "velocity": 90}, {"time": 3157, "pitch": 59, "duration": 4, "velocity": 72}, {"time": 3157, "pitch": 62, "duration": 4, "velocity": 75}, {"time": 3157, "pitch": 66, "duration": 4, "velocity": 69}, {"time": 3163, "pitch": 47, "duration": 4, "velocity": 92}, {"time": 3163, "pitch": 59, "duration": 4, "velocity": 83}, {"time": 3163, "pitch": 62, "duration": 4, "velocity": 100}, {"time": 3163, "pitch": 66, "duration": 4, "velocity": 97}, {"time": 3169, "pitch": 47, "duration": 5, "velocity": 102}, {"time": 3169, "pitch": 59, "duration": 4, "velocity": 93}, {"time": 3169, "pitch": 62, "duration": 4, "velocity": 102}, {"time": 3169, "pitch": 66, "duration": 5, "velocity": 102}, {"time": 3175, "pitch": 40, "duration": 24, "velocity": 71}, {"time": 3175, "pitch": 52, "duration": 24, "velocity": 96}, {"time": 3175, "pitch": 59, "duration": 8, "velocity": 102}, {"time": 3175, "pitch": 64, "duration": 9, "velocity": 100}, {"time": 3175, "pitch": 67, "duration": 8, "velocity": 99}, {"time": 3181, "pitch": 47, "duration": 17, "velocity": 48}, {"time": 3187, "pitch": 59, "duration": 6, "velocity": 97}, {"time": 3187, "pitch": 64, "duration": 6, "velocity": 100}, {"time": 3187, "pitch": 67, "duration": 6, "velocity": 100}, {"time": 3196, "pitch": 59, "duration": 5, "velocity": 90}, {"time": 3196, "pitch": 64, "duration": 5, "velocity": 95}, {"time": 3196, "pitch": 67, "duration": 5, "velocity": 83}, {"time": 3205, "pitch": 40, "duration": 6, "velocity": 53}, {"time": 3205, "pitch": 47, "duration": 7, "velocity": 67}, {"time": 3205, "pitch": 52, "duration": 6, "velocity": 72}, {"time": 3205, "pitch": 59, "duration": 3, "velocity": 63}, {"time": 3205, "pitch": 64, "duration": 3, "velocity": 69}, {"time": 3205, "pitch": 67, "duration": 4, "velocity": 61}, {"time": 3214, "pitch": 40, "duration": 6, "velocity": 86}, {"time": 3214, "pitch": 47, "duration": 6, "velocity": 107}, {"time": 3214, "pitch": 52, "duration": 5, "velocity": 122}, {"time": 3214, "pitch": 59, "duration": 5, "velocity": 117}, {"time": 3214, "pitch": 64, "duration": 4, "velocity": 102}, {"time": 3214, "pitch": 67, "duration": 4, "velocity": 100}, {"time": 3223, "pitch": 38, "duration": 40, "velocity": 97}, {"time": 3223, "pitch": 57, "duration": 9, "velocity": 107}, {"time": 3223, "pitch": 62, "duration": 10, "velocity": 117}, {"time": 3223, "pitch": 66, "duration": 10, "velocity": 122}, {"time": 3235, "pitch": 57, "duration": 6, "velocity": 93}, {"time": 3235, "pitch": 62, "duration": 7, "velocity": 97}, {"time": 3235, "pitch": 66, "duration": 7, "velocity": 100}, {"time": 3241, "pitch": 50, "duration": 5, "velocity": 42}, {"time": 3244, "pitch": 57, "duration": 5, "velocity": 92}, {"time": 3244, "pitch": 62, "duration": 3, "velocity": 107}, {"time": 3244, "pitch": 66, "duration": 6, "velocity": 112}, {"time": 3247, "pitch": 50, "duration": 12, "velocity": 53}, {"time": 3253, "pitch": 57, "duration": 3, "velocity": 78}, {"time": 3253, "pitch": 62, "duration": 2, "velocity": 93}, {"time": 3253, "pitch": 66, "duration": 3, "velocity": 99}, {"time": 3259, "pitch": 62, "duration": 4, "velocity": 102}, {"time": 3259, "pitch": 66, "duration": 4, "velocity": 117}, {"time": 3262, "pitch": 50, "duration": 2, "velocity": 85}, {"time": 3265, "pitch": 62, "duration": 3, "velocity": 100}, {"time": 3265, "pitch": 66, "duration": 1, "velocity": 72}, {"time": 3271, "pitch": 40, "duration": 36, "velocity": 75}, {"time": 3271, "pitch": 52, "duration": 23, "velocity": 86}, {"time": 3271, "pitch": 59, "duration": 10, "velocity": 92}, {"time": 3271, "pitch": 64, "duration": 10, "velocity": 93}, {"time": 3271, "pitch": 67, "duration": 10, "velocity": 90}, {"time": 3283, "pitch": 59, "duration": 3, "velocity": 95}, {"time": 3283, "pitch": 64, "duration": 3, "velocity": 99}, {"time": 3283, "pitch": 67, "duration": 7, "velocity": 93}, {"time": 3292, "pitch": 59, "duration": 2, "velocity": 78}, {"time": 3292, "pitch": 64, "duration": 2, "velocity": 88}, {"time": 3292, "pitch": 67, "duration": 3, "velocity": 76}, {"time": 3295, "pitch": 52, "duration": 11, "velocity": 46}, {"time": 3301, "pitch": 59, "duration": 3, "velocity": 92}, {"time": 3301, "pitch": 64, "duration": 6, "velocity": 92}, {"time": 3301, "pitch": 67, "duration": 6, "velocity": 90}, {"time": 3310, "pitch": 40, "duration": 2, "velocity": 72}, {"time": 3310, "pitch": 52, "duration": 3, "velocity": 117}, {"time": 3310, "pitch": 59, "duration": 3, "velocity": 122}, {"time": 3310, "pitch": 64, "duration": 2, "velocity": 100}, {"time": 3310, "pitch": 67, "duration": 2, "velocity": 99}, {"time": 3319, "pitch": 42, "duration": 5, "velocity": 112}, {"time": 3319, "pitch": 54, "duration": 4, "velocity": 102}, {"time": 3319, "pitch": 58, "duration": 4, "velocity": 117}, {"time": 3319, "pitch": 61, "duration": 4, "velocity": 100}, {"time": 3325, "pitch": 42, "duration": 4, "velocity": 81}, {"time": 3325, "pitch": 54, "duration": 4, "velocity": 95}, {"time": 3325, "pitch": 58, "duration": 4, "velocity": 107}, {"time": 3325, "pitch": 61, "duration": 4, "velocity": 102}, {"time": 3331, "pitch": 42, "duration": 4, "velocity": 107}, {"time": 3331, "pitch": 54, "duration": 4, "velocity": 100}, {"time": 3331, "pitch": 58, "duration": 2, "velocity": 92}, {"time": 3331, "pitch": 61, "duration": 4, "velocity": 77}, {"time": 3331, "pitch": 66, "duration": 4, "velocity": 86}, {"time": 3337, "pitch": 42, "duration": 4, "velocity": 117}, {"time": 3337, "pitch": 54, "duration": 4, "velocity": 97}, {"time": 3337, "pitch": 58, "duration": 3, "velocity": 102}, {"time": 3337, "pitch": 61, "duration": 4, "velocity": 93}, {"time": 3337, "pitch": 66, "duration": 3, "velocity": 92}, {"time": 3343, "pitch": 42, "duration": 4, "velocity": 122}, {"time": 3343, "pitch": 54, "duration": 4, "velocity": 107}, {"time": 3343, "pitch": 58, "duration": 2, "velocity": 127}, {"time": 3343, "pitch": 61, "duration": 4, "velocity": 107}, {"time": 3343, "pitch": 66, "duration": 4, "velocity": 93}, {"time": 3349, "pitch": 42, "duration": 4, "velocity": 112}, {"time": 3349, "pitch": 54, "duration": 4, "velocity": 99}, {"time": 3349, "pitch": 58, "duration": 2, "velocity": 122}, {"time": 3349, "pitch": 61, "duration": 4, "velocity": 99}, {"time": 3349, "pitch": 66, "duration": 4, "velocity": 92}, {"time": 3355, "pitch": 42, "duration": 4, "velocity": 112}, {"time": 3355, "pitch": 44, "duration": 1, "velocity": 81}, {"time": 3355, "pitch": 54, "duration": 4, "velocity": 112}, {"time": 3355, "pitch": 58, "duration": 3, "velocity": 127}, {"time": 3355, "pitch": 61, "duration": 4, "velocity": 107}, {"time": 3355, "pitch": 66, "duration": 4, "velocity": 96}, {"time": 3361, "pitch": 42, "duration": 3, "velocity": 127}, {"time": 3361, "pitch": 54, "duration": 2, "velocity": 95}, {"time": 3361, "pitch": 58, "duration": 2, "velocity": 117}, {"time": 3361, "pitch": 61, "duration": 2, "velocity": 90}, {"time": 3367, "pitch": 43, "duration": 23, "velocity": 96}, {"time": 3367, "pitch": 55, "duration": 8, "velocity": 96}, {"time": 3367, "pitch": 59, "duration": 5, "velocity": 112}, {"time": 3367, "pitch": 62, "duration": 5, "velocity": 99}, {"time": 3373, "pitch": 50, "duration": 8, "velocity": 52}, {"time": 3379, "pitch": 59, "duration": 11, "velocity": 127}, {"time": 3379, "pitch": 62, "duration": 7, "velocity": 107}, {"time": 3388, "pitch": 50, "duration": 3, "velocity": 77}, {"time": 3391, "pitch": 45, "duration": 21, "velocity": 90}, {"time": 3391, "pitch": 57, "duration": 3, "velocity": 90}, {"time": 3391, "pitch": 61, "duration": 3, "velocity": 122}, {"time": 3391, "pitch": 64, "duration": 3, "velocity": 99}, {"time": 3397, "pitch": 57, "duration": 2, "velocity": 90}, {"time": 3397, "pitch": 61, "duration": 2, "velocity": 112}, {"time": 3397, "pitch": 64, "duration": 1, "velocity": 86}, {"time": 3403, "pitch": 61, "duration": 6, "velocity": 127}, {"time": 3403, "pitch": 64, "duration": 7, "velocity": 107}, {"time": 3409, "pitch": 52, "duration": 6, "velocity": 54}, {"time": 3415, "pitch": 50, "duration": 6, "velocity": 90}, {"time": 3415, "pitch": 57, "duration": 5, "velocity": 102}, {"time": 3415, "pitch": 62, "duration": 5, "velocity": 127}, {"time": 3415, "pitch": 66, "duration": 6, "velocity": 122}, {"time": 3427, "pitch": 49, "duration": 11, "velocity": 107}, {"time": 3427, "pitch": 61, "duration": 7, "velocity": 117}, {"time": 3427, "pitch": 68, "duration": 5, "velocity": 112}, {"time": 3439, "pitch": 47, "duration": 17, "velocity": 69}, {"time": 3439, "pitch": 59, "duration": 7, "velocity": 99}, {"time": 3439, "pitch": 62, "duration": 7, "velocity": 107}, {"time": 3439, "pitch": 66, "duration": 9, "velocity": 117}, {"time": 3445, "pitch": 54, "duration": 7, "velocity": 47}, {"time": 3451, "pitch": 62, "duration": 5, "velocity": 112}, {"time": 3451, "pitch": 66, "duration": 6, "velocity": 127}, {"time": 3454, "pitch": 54, "duration": 2, "velocity": 93}, {"time": 3457, "pitch": 59, "duration": 2, "velocity": 107}, {"time": 3463, "pitch": 43, "duration": 17, "velocity": 95}, {"time": 3463, "pitch": 55, "duration": 1, "velocity": 99}, {"time": 3463, "pitch": 59, "duration": 1, "velocity": 102}, {"time": 3463, "pitch": 62, "duration": 2, "velocity": 96}, {"time": 3469, "pitch": 55, "duration": 8, "velocity": 97}, {"time": 3475, "pitch": 62, "duration": 4, "velocity": 102}, {"time": 3475, "pitch": 67, "duration": 5, "velocity": 117}, {"time": 3475, "pitch": 71, "duration": 7, "velocity": 102}, {"time": 3478, "pitch": 55, "duration": 3, "velocity": 61}, {"time": 3481, "pitch": 62, "duration": 2, "velocity": 99}, {"time": 3481, "pitch": 67, "duration": 1, "velocity": 45}, {"time": 3487, "pitch": 45, "duration": 17, "velocity": 79}, {"time": 3487, "pitch": 57, "duration": 5, "velocity": 93}, {"time": 3487, "pitch": 64, "duration": 9, "velocity": 99}, {"time": 3487, "pitch": 69, "duration": 9, "velocity": 112}, {"time": 3487, "pitch": 73, "duration": 9, "velocity": 122}, {"time": 3493, "pitch": 57, "duration": 6, "velocity": 92}, {"time": 3499, "pitch": 69, "duration": 5, "velocity": 122}, {"time": 3499, "pitch": 73, "duration": 6, "velocity": 127}, {"time": 3502, "pitch": 57, "duration": 3, "velocity": 96}, {"time": 3505, "pitch": 64, "duration": 2, "velocity": 99}, {"time": 3508, "pitch": 66, "duration": 1, "velocity": 71}, {"time": 3511, "pitch": 47, "duration": 48, "velocity": 95}, {"time": 3511, "pitch": 59, "duration": 4, "velocity": 100}, {"time": 3511, "pitch": 62, "duration": 4, "velocity": 99}, {"time": 3511, "pitch": 66, "duration": 4, "velocity": 117}, {"time": 3517, "pitch": 59, "duration": 3, "velocity": 85}, {"time": 3517, "pitch": 62, "duration": 3, "velocity": 92}, {"time": 3517, "pitch": 66, "duration": 3, "velocity": 99}, {"time": 3523, "pitch": 54, "duration": 6, "velocity": 112}, {"time": 3523, "pitch": 59, "duration": 2, "velocity": 100}, {"time": 3523, "pitch": 62, "duration": 2, "velocity": 117}, {"time": 3523, "pitch": 66, "duration": 3, "velocity": 127}, {"time": 3529, "pitch": 59, "duration": 3, "velocity": 102}, {"time": 3529, "pitch": 62, "duration": 2, "velocity": 117}, {"time": 3529, "pitch": 66, "duration": 3, "velocity": 127}, {"time": 3532, "pitch": 54, "duration": 10, "velocity": 122}, {"time": 3535, "pitch": 59, "duration": 3, "velocity": 107}, {"time": 3535, "pitch": 62, "duration": 4, "velocity": 127}, {"time": 3535, "pitch": 66, "duration": 4, "velocity": 127}, {"time": 3541, "pitch": 59, "duration": 3, "velocity": 95}, {"time": 3541, "pitch": 62, "duration": 3, "velocity": 102}, {"time": 3541, "pitch": 66, "duration": 3, "velocity": 112}, {"time": 3544, "pitch": 54, "duration": 4, "velocity": 92}, {"time": 3547, "pitch": 59, "duration": 3, "velocity": 99}, {"time": 3547, "pitch": 62, "duration": 3, "velocity": 127}, {"time": 3547, "pitch": 66, "duration": 3, "velocity": 127}, {"time": 3550, "pitch": 54, "duration": 9, "velocity": 122}, {"time": 3553, "pitch": 62, "duration": 5, "velocity": 127}, {"time": 3553, "pitch": 66, "duration": 6, "velocity": 127}, {"time": 3556, "pitch": 59, "duration": 3, "velocity": 107}, {"time": 3559, "pitch": 43, "duration": 5, "velocity": 85}, {"time": 3559, "pitch": 55, "duration": 5, "velocity": 117}, {"time": 3559, "pitch": 62, "duration": 4, "velocity": 102}, {"time": 3559, "pitch": 67, "duration": 4, "velocity": 97}, {"time": 3559, "pitch": 71, "duration": 5, "velocity": 102}, {"time": 3595, "pitch": 45, "duration": 12, "velocity": 79}, {"time": 3595, "pitch": 57, "duration": 12, "velocity": 95}, {"time": 3595, "pitch": 64, "duration": 12, "velocity": 100}, {"time": 3595, "pitch": 69, "duration": 11, "velocity": 122}, {"time": 3595, "pitch": 73, "duration": 11, "velocity": 122}, {"time": 3607, "pitch": 42, "duration": 18, "velocity": 97}, {"time": 3607, "pitch": 54, "duration": 17, "velocity": 92}, {"time": 3607, "pitch": 57, "duration": 10, "velocity": 97}, {"time": 3607, "pitch": 61, "duration": 11, "velocity": 117}, {"time": 3607, "pitch": 66, "duration": 11, "velocity": 95}, {"time": 3619, "pitch": 61, "duration": 11, "velocity": 127}, {"time": 3619, "pitch": 66, "duration": 9, "velocity": 107}, {"time": 3628, "pitch": 57, "duration": 1, "velocity": 90}, {"time": 3631, "pitch": 47, "duration": 16, "velocity": 77}, {"time": 3631, "pitch": 59, "duration": 2, "velocity": 97}, {"time": 3631, "pitch": 62, "duration": 2, "velocity": 99}, {"time": 3631, "pitch": 66, "duration": 2, "velocity": 97}, {"time": 3637, "pitch": 62, "duration": 5, "velocity": 107}, {"time": 3637, "pitch": 66, "duration": 5, "velocity": 117}, {"time": 3643, "pitch": 59, "duration": 3, "velocity": 102}, {"time": 3643, "pitch": 62, "duration": 6, "velocity": 97}, {"time": 3643, "pitch": 66, "duration": 6, "velocity": 99}, {"time": 3646, "pitch": 54, "duration": 2, "velocity": 97}, {"time": 3649, "pitch": 59, "duration": 2, "velocity": 107}, {"time": 3652, "pitch": 59, "duration": 1, "velocity": 54}, {"time": 3652, "pitch": 62, "duration": 1, "velocity": 45}, {"time": 3655, "pitch": 43, "duration": 5, "velocity": 90}, {"time": 3655, "pitch": 55, "duration": 4, "velocity": 112}, {"time": 3655, "pitch": 59, "duration": 4, "velocity": 117}, {"time": 3655, "pitch": 62, "duration": 4, "velocity": 122}, {"time": 3673, "pitch": 43, "duration": 5, "velocity": 107}, {"time": 3673, "pitch": 55, "duration": 4, "velocity": 100}, {"time": 3673, "pitch": 59, "duration": 5, "velocity": 112}, {"time": 3673, "pitch": 62, "duration": 4, "velocity": 100}, {"time": 3679, "pitch": 45, "duration": 5, "velocity": 127}, {"time": 3679, "pitch": 57, "duration": 4, "velocity": 81}, {"time": 3679, "pitch": 61, "duration": 5, "velocity": 117}, {"time": 3679, "pitch": 64, "duration": 5, "velocity": 97}, {"time": 3697, "pitch": 45, "duration": 4, "velocity": 117}, {"time": 3697, "pitch": 57, "duration": 5, "velocity": 117}, {"time": 3697, "pitch": 61, "duration": 4, "velocity": 127}, {"time": 3697, "pitch": 64, "duration": 4, "velocity": 97}, {"time": 3703, "pitch": 50, "duration": 3, "velocity": 127}, {"time": 3703, "pitch": 57, "duration": 3, "velocity": 102}, {"time": 3703, "pitch": 62, "duration": 3, "velocity": 97}, {"time": 3703, "pitch": 66, "duration": 3, "velocity": 127}, {"time": 3709, "pitch": 50, "duration": 11, "velocity": 127}, {"time": 3709, "pitch": 57, "duration": 14, "velocity": 89}, {"time": 3709, "pitch": 62, "duration": 12, "velocity": 102}, {"time": 3709, "pitch": 66, "duration": 12, "velocity": 100}, {"time": 3727, "pitch": 42, "duration": 17, "velocity": 86}, {"time": 3727, "pitch": 54, "duration": 13, "velocity": 93}, {"time": 3727, "pitch": 57, "duration": 9, "velocity": 92}, {"time": 3727, "pitch": 61, "duration": 9, "velocity": 117}, {"time": 3727, "pitch": 66, "duration": 9, "velocity": 99}, {"time": 3739, "pitch": 61, "duration": 4, "velocity": 127}, {"time": 3739, "pitch": 66, "duration": 4, "velocity": 122}, {"time": 3742, "pitch": 54, "duration": 4, "velocity": 90}, {"time": 3745, "pitch": 61, "duration": 3, "velocity": 127}, {"time": 3745, "pitch": 66, "duration": 3, "velocity": 127}, {"time": 3751, "pitch": 43, "duration": 21, "velocity": 66}, {"time": 3751, "pitch": 55, "duration": 17, "velocity": 85}, {"time": 3751, "pitch": 62, "duration": 8, "velocity": 107}, {"time": 3751, "pitch": 67, "duration": 10, "velocity": 102}, {"time": 3751, "pitch": 71, "duration": 9, "velocity": 99}, {"time": 3757, "pitch": 50, "duration": 18, "velocity": 45}, {"time": 3763, "pitch": 67, "duration": 6, "velocity": 112}, {"time": 3763, "pitch": 71, "duration": 6, "velocity": 117}, {"time": 3772, "pitch": 61, "duration": 1, "velocity": 69}, {"time": 3775, "pitch": 45, "duration": 16, "velocity": 75}, {"time": 3775, "pitch": 57, "duration": 5, "velocity": 107}, {"time": 3775, "pitch": 61, "duration": 5, "velocity": 122}, {"time": 3775, "pitch": 64, "duration": 5, "velocity": 96}, {"time": 3781, "pitch": 52, "duration": 7, "velocity": 99}, {"time": 3787, "pitch": 61, "duration": 6, "velocity": 127}, {"time": 3787, "pitch": 64, "duration": 6, "velocity": 107}, {"time": 3790, "pitch": 52, "duration": 2, "velocity": 95}, {"time": 3793, "pitch": 57, "duration": 3, "velocity": 102}, {"time": 3799, "pitch": 42, "duration": 13, "velocity": 92}, {"time": 3799, "pitch": 54, "duration": 6, "velocity": 78}, {"time": 3799, "pitch": 57, "duration": 9, "velocity": 102}, {"time": 3799, "pitch": 61, "duration": 9, "velocity": 127}, {"time": 3799, "pitch": 66, "duration": 9, "velocity": 102}, {"time": 3805, "pitch": 54, "duration": 5, "velocity": 66}, {"time": 3811, "pitch": 61, "duration": 10, "velocity": 127}, {"time": 3811, "pitch": 66, "duration": 9, "velocity": 122}, {"time": 3820, "pitch": 57, "duration": 2, "velocity": 82}, {"time": 3823, "pitch": 47, "duration": 9, "velocity": 75}, {"time": 3823, "pitch": 59, "duration": 2, "velocity": 93}, {"time": 3823, "pitch": 62, "duration": 2, "velocity": 102}, {"time": 3823, "pitch": 66, "duration": 2, "velocity": 102}, {"time": 3829, "pitch": 59, "duration": 8, "velocity": 95}, {"time": 3829, "pitch": 62, "duration": 11, "velocity": 117}, {"time": 3829, "pitch": 66, "duration": 12, "velocity": 122}, {"time": 3835, "pitch": 47, "duration": 2, "velocity": 96}, {"time": 3841, "pitch": 59, "duration": 2, "velocity": 95}, {"time": 3847, "pitch": 43, "duration": 23, "velocity": 71}, {"time": 3847, "pitch": 55, "duration": 7, "velocity": 99}, {"time": 3847, "pitch": 59, "duration": 7, "velocity": 97}, {"time": 3847, "pitch": 62, "duration": 9, "velocity": 97}, {"time": 3853, "pitch": 50, "duration": 8, "velocity": 61}, {"time": 3859, "pitch": 59, "duration": 10, "velocity": 122}, {"time": 3859, "pitch": 62, "duration": 7, "velocity": 107}, {"time": 3868, "pitch": 50, "duration": 3, "velocity": 79}, {"time": 3871, "pitch": 45, "duration": 16, "velocity": 92}, {"time": 3871, "pitch": 57, "duration": 2, "velocity": 97}, {"time": 3871, "pitch": 61, "duration": 2, "velocity": 122}, {"time": 3871, "pitch": 64, "duration": 2, "velocity": 96}, {"time": 3877, "pitch": 57, "duration": 4, "velocity": 93}, {"time": 3877, "pitch": 61, "duration": 4, "velocity": 117}, {"time": 3877, "pitch": 64, "duration": 4, "velocity": 92}, {"time": 3883, "pitch": 61, "duration": 7, "velocity": 127}, {"time": 3883, "pitch": 64, "duration": 8, "velocity": 127}, {"time": 3889, "pitch": 45, "duration": 2, "velocity": 74}, {"time": 3895, "pitch": 42, "duration": 11, "velocity": 107}, {"time": 3895, "pitch": 57, "duration": 5, "velocity": 95}, {"time": 3895, "pitch": 61, "duration": 4, "velocity": 117}, {"time": 3895, "pitch": 66, "duration": 5, "velocity": 97}, {"time": 3901, "pitch": 54, "duration": 5, "velocity": 58}, {"time": 3907, "pitch": 61, "duration": 3, "velocity": 117}, {"time": 3907, "pitch": 66, "duration": 4, "velocity": 112}, {"time": 3916, "pitch": 57, "duration": 2, "velocity": 78}, {"time": 3919, "pitch": 47, "duration": 10, "velocity": 81}, {"time": 3919, "pitch": 59, "duration": 2, "velocity": 88}, {"time": 3919, "pitch": 62, "duration": 2, "velocity": 99}, {"time": 3919, "pitch": 66, "duration": 2, "velocity": 93}, {"time": 3925, "pitch": 62, "duration": 9, "velocity": 127}, {"time": 3925, "pitch": 66, "duration": 12, "velocity": 127}, {"time": 3931, "pitch": 47, "duration": 2, "velocity": 92}, {"time": 3943, "pitch": 43, "duration": 4, "velocity": 75}, {"time": 3943, "pitch": 55, "duration": 4, "velocity": 92}, {"time": 3943, "pitch": 62, "duration": 3, "velocity": 102}, {"time": 3943, "pitch": 67, "duration": 3, "velocity": 100}, {"time": 3943, "pitch": 71, "duration": 4, "velocity": 102}, {"time": 3955, "pitch": 43, "duration": 4, "velocity": 83}, {"time": 3955, "pitch": 55, "duration": 4, "velocity": 95}, {"time": 3955, "pitch": 62, "duration": 4, "velocity": 97}, {"time": 3955, "pitch": 67, "duration": 3, "velocity": 100}, {"time": 3955, "pitch": 71, "duration": 4, "velocity": 97}, {"time": 3967, "pitch": 45, "duration": 3, "velocity": 77}, {"time": 3967, "pitch": 57, "duration": 4, "velocity": 102}, {"time": 3967, "pitch": 64, "duration": 3, "velocity": 89}, {"time": 3967, "pitch": 69, "duration": 3, "velocity": 99}, {"time": 3967, "pitch": 73, "duration": 3, "velocity": 100}, {"time": 3979, "pitch": 45, "duration": 5, "velocity": 78}, {"time": 3979, "pitch": 57, "duration": 4, "velocity": 100}, {"time": 3979, "pitch": 64, "duration": 4, "velocity": 95}, {"time": 3979, "pitch": 69, "duration": 4, "velocity": 107}, {"time": 3979, "pitch": 73, "duration": 4, "velocity": 99}, {"time": 3991, "pitch": 42, "duration": 2, "velocity": 76}, {"time": 3991, "pitch": 54, "duration": 3, "velocity": 89}, {"time": 3991, "pitch": 57, "duration": 3, "velocity": 97}, {"time": 3991, "pitch": 61, "duration": 3, "velocity": 107}, {"time": 3991, "pitch": 66, "duration": 3, "velocity": 100}, {"time": 3997, "pitch": 42, "duration": 4, "velocity": 85}, {"time": 3997, "pitch": 54, "duration": 4, "velocity": 96}, {"time": 3997, "pitch": 57, "duration": 4, "velocity": 95}, {"time": 3997, "pitch": 61, "duration": 4, "velocity": 117}, {"time": 3997, "pitch": 66, "duration": 4, "velocity": 100}, {"time": 4039, "pitch": 43, "duration": 22, "velocity": 97}, {"time": 4039, "pitch": 67, "duration": 4, "velocity": 102}, {"time": 4039, "pitch": 71, "duration": 4, "velocity": 100}, {"time": 4039, "pitch": 74, "duration": 4, "velocity": 107}, {"time": 4045, "pitch": 50, "duration": 18, "velocity": 97}, {"time": 4045, "pitch": 67, "duration": 4, "velocity": 102}, {"time": 4045, "pitch": 71, "duration": 4, "velocity": 100}, {"time": 4045, "pitch": 74, "duration": 4, "velocity": 97}, {"time": 4051, "pitch": 59, "duration": 12, "velocity": 117}, {"time": 4051, "pitch": 62, "duration": 9, "velocity": 127}, {"time": 4051, "pitch": 67, "duration": 3, "velocity": 107}, {"time": 4051, "pitch": 71, "duration": 3, "velocity": 100}, {"time": 4051, "pitch": 74, "duration": 3, "velocity": 100}, {"time": 4057, "pitch": 67, "duration": 3, "velocity": 100}, {"time": 4057, "pitch": 71, "duration": 3, "velocity": 99}, {"time": 4057, "pitch": 74, "duration": 3, "velocity": 96}, {"time": 4060, "pitch": 55, "duration": 4, "velocity": 97}, {"time": 4060, "pitch": 62, "duration": 1, "velocity": 37}, {"time": 4063, "pitch": 45, "duration": 16, "velocity": 82}, {"time": 4063, "pitch": 69, "duration": 3, "velocity": 117}, {"time": 4063, "pitch": 73, "duration": 4, "velocity": 127}, {"time": 4063, "pitch": 76, "duration": 3, "velocity": 112}, {"time": 4069, "pitch": 52, "duration": 10, "velocity": 102}, {"time": 4069, "pitch": 69, "duration": 3, "velocity": 107}, {"time": 4069, "pitch": 73, "duration": 4, "velocity": 127}, {"time": 4069, "pitch": 76, "duration": 4, "velocity": 99}, {"time": 4075, "pitch": 61, "duration": 12, "velocity": 122}, {"time": 4075, "pitch": 64, "duration": 12, "velocity": 100}, {"time": 4075, "pitch": 69, "duration": 3, "velocity": 102}, {"time": 4075, "pitch": 73, "duration": 3, "velocity": 127}, {"time": 4075, "pitch": 76, "duration": 3, "velocity": 107}, {"time": 4081, "pitch": 57, "duration": 7, "velocity": 82}, {"time": 4081, "pitch": 69, "duration": 3, "velocity": 102}, {"time": 4081, "pitch": 73, "duration": 3, "velocity": 127}, {"time": 4081, "pitch": 76, "duration": 3, "velocity": 102}, {"time": 4087, "pitch": 42, "duration": 14, "velocity": 95}, {"time": 4093, "pitch": 54, "duration": 8, "velocity": 97}, {"time": 4099, "pitch": 61, "duration": 11, "velocity": 122}, {"time": 4099, "pitch": 66, "duration": 12, "velocity": 122}, {"time": 4108, "pitch": 57, "duration": 4, "velocity": 99}, {"time": 4111, "pitch": 47, "duration": 14, "velocity": 78}, {"time": 4117, "pitch": 54, "duration": 8, "velocity": 95}, {"time": 4123, "pitch": 62, "duration": 13, "velocity": 117}, {"time": 4123, "pitch": 66, "duration": 13, "velocity": 117}, {"time": 4129, "pitch": 59, "duration": 7, "velocity": 93}, {"time": 4135, "pitch": 43, "duration": 16, "velocity": 93}, {"time": 4141, "pitch": 50, "duration": 14, "velocity": 73}, {"time": 4147, "pitch": 59, "duration": 11, "velocity": 99}, {"time": 4147, "pitch": 62, "duration": 11, "velocity": 99}, {"time": 4156, "pitch": 55, "duration": 3, "velocity": 102}, {"time": 4159, "pitch": 45, "duration": 15, "velocity": 74}, {"time": 4165, "pitch": 52, "duration": 10, "velocity": 100}, {"time": 4171, "pitch": 61, "duration": 11, "velocity": 127}, {"time": 4171, "pitch": 64, "duration": 11, "velocity": 99}, {"time": 4177, "pitch": 57, "duration": 6, "velocity": 96}, {"time": 4183, "pitch": 35, "duration": 59, "velocity": 76}, {"time": 4183, "pitch": 47, "duration": 59, "velocity": 97}, {"time": 4183, "pitch": 59, "duration": 59, "velocity": 107}, {"time": 4183, "pitch": 62, "duration": 58, "velocity": 112}, {"time": 4183, "pitch": 66, "duration": 59, "velocity": 117}], "annotations": [{"time": 14, "annotation": {"number": 64, "value": 127}, "group": "control_change"}, {"time": 15, "annotation": {"number": 64, "value": 0}, "group": "control_change"}, {"time": 19, "annotation": {"number": 64, "value": 127}, "group": "control_change"}, {"time": 28, "annotation": {"number": 64, "value": 0}, "group": "control_change"}, {"time": 31, "annotation": {"number": 64, "value": 127}, "group": "control_change"}, {"time": 39, "annotation": {"number": 64, "value": 0}, "group": "control_change"}, {"time": 55, "annotation": {"number": 64, "value": 127}, "group": "control_change"}, {"time": 56, "annotation": {"number": 64, "value": 0}, "group": "control_change"}, {"time": 61, "annotation": {"number": 64, "value": 127}, "group": "control_change"}, {"time": 62, "annotation": {"number": 64, "value": 0}, "group": "control_change"}, {"time": 78, "annotation": {"number": 64, "value": 127}, "group": "control_change"}, {"time": 79, "annotation": {"number": 64, "value": 0}, "group": "control_change"}, {"time": 91, "annotation": {"number": 64, "value": 127}, "group": "control_change"}, {"time": 92, "annotation": {"number": 64, "value": 0}, "group": "control_change"}, {"time": 126, "annotation": {"number": 64, "value": 127}, "group": "control_change"}, {"time": 127, "annotation": {"number": 64, "value": 0}, "group": "control_change"}, {"time": 150, "annotation": {"number": 64, "value": 127}, "group": "control_change"}, {"time": 153, "annotation": {"number": 64, "value": 0}, "group": "control_change"}, {"time": 155, "annotation": {"number": 64, "value": 127}, "group": "control_change"}, {"time": 162, "annotation": {"number": 64, "value": 0}, "group": "control_change"}, {"time": 163, "annotation": {"number": 64, "value": 127}, "group": "control_change"}, {"time": 172, "annotation": {"number": 64, "value": 0}, "group": "control_change"}, {"time": 175, "annotation": {"number": 64, "value": 127}, "group": "control_change"}, {"time": 183, "annotation": {"number": 64, "value": 0}, "group": "control_change"}, {"time": 199, "annotation": {"number": 64, "value": 127}, "group": "control_change"}, {"time": 220, "annotation": {"number": 64, "value": 0}, "group": "control_change"}, {"time": 223, "annotation": {"number": 64, "value": 127}, "group": "control_change"}, {"time": 245, "annotation": {"number": 64, "value": 0}, "group": "control_change"}, {"time": 247, "annotation": {"number": 64, "value": 127}, "group": "control_change"}, {"time": 269, "annotation": {"number": 64, "value": 0}, "group": "control_change"}, {"time": 271, "annotation": {"number": 64, "value": 127}, "group": "control_change"}, {"time": 293, "annotation": {"number": 64, "value": 0}, "group": "control_change"}, {"time": 295, "annotation": {"number": 64, "value": 127}, "group": "control_change"}, {"time": 316, "annotation": {"number": 64, "value": 0}, "group": "control_change"}, {"time": 318, "annotation": {"number": 64, "value": 127}, "group": "control_change"}, {"time": 330, "annotation": {"number": 64, "value": 0}, "group": "control_change"}, {"time": 331, "annotation": {"number": 64, "value": 127}, "group": "control_change"}, {"time": 341, "annotation": {"number": 64, "value": 0}, "group": "control_change"}, {"time": 343, "annotation": {"number": 64, "value": 127}, "group": "control_change"}, {"time": 365, "annotation": {"number": 64, "value": 0}, "group": "control_change"}, {"time": 391, "annotation": {"number": 64, "value": 127}, "group": "control_change"}, {"time": 413, "annotation": {"number": 64, "value": 0}, "group": "control_change"}, {"time": 415, "annotation": {"number": 64, "value": 127}, "group": "control_change"}, {"time": 437, "annotation": {"number": 64, "value": 0}, "group": "control_change"}, {"time": 439, "annotation": {"number": 64, "value": 127}, "group": "control_change"}, {"time": 461, "annotation": {"number": 64, "value": 0}, "group": "control_change"}, {"time": 463, "annotation": {"number": 64, "value": 127}, "group": "control_change"}, {"time": 485, "annotation": {"number": 64, "value": 0}, "group": "control_change"}, {"time": 487, "annotation": {"number": 64, "value": 127}, "group": "control_change"}, {"time": 508, "annotation": {"number": 64, "value": 0}, "group": "control_change"}, {"time": 510, "annotation": {"number": 64, "value": 127}, "group": "control_change"}, {"time": 533, "annotation": {"number": 64, "value": 0}, "group": "control_change"}, {"time": 535, "annotation": {"number": 64, "value": 127}, "group": "control_change"}, {"time": 557, "annotation": {"number": 64, "value": 0}, "group": "control_change"}, {"time": 559, "annotation": {"number": 64, "value": 127}, "group": "control_change"}, {"time": 581, "annotation": {"number": 64, "value": 0}, "group": "control_change"}, {"time": 583, "annotation": {"number": 64, "value": 127}, "group": "control_change"}, {"time": 605, "annotation": {"number": 64, "value": 0}, "group": "control_change"}, {"time": 607, "annotation": {"number": 64, "value": 127}, "group": "control_change"}, {"time": 629, "annotation": {"number": 64, "value": 0}, "group": "control_change"}, {"time": 631, "annotation": {"number": 64, "value": 127}, "group": "control_change"}, {"time": 652, "annotation": {"number": 64, "value": 0}, "group": "control_change"}, {"time": 655, "annotation": {"number": 64, "value": 127}, "group": "control_change"}, {"time": 663, "annotation": {"number": 64, "value": 0}, "group": "control_change"}, {"time": 667, "annotation": {"number": 64, "value": 127}, "group": "control_change"}, {"time": 677, "annotation": {"number": 64, "value": 0}, "group": "control_change"}, {"time": 679, "annotation": {"number": 64, "value": 127}, "group": "control_change"}, {"time": 686, "annotation": {"number": 64, "value": 0}, "group": "control_change"}, {"time": 691, "annotation": {"number": 64, "value": 127}, "group": "control_change"}, {"time": 701, "annotation": {"number": 64, "value": 0}, "group": "control_change"}, {"time": 703, "annotation": {"number": 64, "value": 127}, "group": "control_change"}, {"time": 724, "annotation": {"number": 64, "value": 0}, "group": "control_change"}, {"time": 727, "annotation": {"number": 64, "value": 127}, "group": "control_change"}, {"time": 749, "annotation": {"number": 64, "value": 0}, "group": "control_change"}, {"time": 751, "annotation": {"number": 64, "value": 127}, "group": "control_change"}, {"time": 773, "annotation": {"number": 64, "value": 0}, "group": "control_change"}, {"time": 775, "annotation": {"number": 64, "value": 127}, "group": "control_change"}, {"time": 795, "annotation": {"number": 64, "value": 0}, "group": "control_change"}, {"time": 798, "annotation": {"number": 64, "value": 127}, "group": "control_change"}, {"time": 806, "annotation": {"number": 64, "value": 0}, "group": "control_change"}, {"time": 822, "annotation": {"number": 64, "value": 127}, "group": "control_change"}, {"time": 844, "annotation": {"number": 64, "value": 0}, "group": "control_change"}, {"time": 846, "annotation": {"number": 64, "value": 127}, "group": "control_change"}, {"time": 858, "annotation": {"number": 64, "value": 0}, "group": "control_change"}, {"time": 864, "annotation": {"number": 64, "value": 127}, "group": "control_change"}, {"time": 869, "annotation": {"number": 64, "value": 0}, "group": "control_change"}, {"time": 871, "annotation": {"number": 64, "value": 127}, "group": "control_change"}, {"time": 871, "annotation": {"number": 64, "value": 0}, "group": "control_change"}, {"time": 876, "annotation": {"number": 64, "value": 127}, "group": "control_change"}, {"time": 882, "annotation": {"number": 64, "value": 0}, "group": "control_change"}, {"time": 893, "annotation": {"number": 64, "value": 127}, "group": "control_change"}, {"time": 897, "annotation": {"number": 64, "value": 0}, "group": "control_change"}, {"time": 907, "annotation": {"number": 64, "value": 127}, "group": "control_change"}, {"time": 916, "annotation": {"number": 64, "value": 0}, "group": "control_change"}, {"time": 918, "annotation": {"number": 64, "value": 127}, "group": "control_change"}, {"time": 919, "annotation": {"number": 64, "value": 127}, "group": "control_change"}, {"time": 922, "annotation": {"number": 64, "value": 0}, "group": "control_change"}, {"time": 930, "annotation": {"number": 64, "value": 127}, "group": "control_change"}, {"time": 935, "annotation": {"number": 64, "value": 0}, "group": "control_change"}, {"time": 942, "annotation": {"number": 64, "value": 127}, "group": "control_change"}, {"time": 943, "annotation": {"number": 64, "value": 0}, "group": "control_change"}, {"time": 989, "annotation": {"number": 64, "value": 0}, "group": "control_change"}, {"time": 991, "annotation": {"number": 64, "value": 127}, "group": "control_change"}, {"time": 1013, "annotation": {"number": 64, "value": 0}, "group": "control_change"}, {"time": 1015, "annotation": {"number": 64, "value": 127}, "group": "control_change"}, {"time": 1037, "annotation": {"number": 64, "value": 0}, "group": "control_change"}, {"time": 1039, "annotation": {"number": 64, "value": 127}, "group": "control_change"}, {"time": 1061, "annotation": {"number": 64, "value": 0}, "group": "control_change"}, {"time": 1063, "annotation": {"number": 64, "value": 127}, "group": "control_change"}, {"time": 1084, "annotation": {"number": 64, "value": 0}, "group": "control_change"}, {"time": 1086, "annotation": {"number": 64, "value": 127}, "group": "control_change"}, {"time": 1109, "annotation": {"number": 64, "value": 0}, "group": "control_change"}, {"time": 1111, "annotation": {"number": 64, "value": 127}, "group": "control_change"}, {"time": 1133, "annotation": {"number": 64, "value": 0}, "group": "control_change"}, {"time": 1135, "annotation": {"number": 64, "value": 127}, "group": "control_change"}, {"time": 1157, "annotation": {"number": 64, "value": 0}, "group": "control_change"}, {"time": 1159, "annotation": {"number": 64, "value": 127}, "group": "control_change"}, {"time": 1181, "annotation": {"number": 64, "value": 0}, "group": "control_change"}, {"time": 1183, "annotation": {"number": 64, "value": 127}, "group": "control_change"}, {"time": 1205, "annotation": {"number": 64, "value": 0}, "group": "control_change"}, {"time": 1207, "annotation": {"number": 64, "value": 127}, "group": "control_change"}, {"time": 1228, "annotation": {"number": 64, "value": 0}, "group": "control_change"}, {"time": 1231, "annotation": {"number": 64, "value": 127}, "group": "control_change"}, {"time": 1239, "annotation": {"number": 64, "value": 0}, "group": "control_change"}, {"time": 1243, "annotation": {"number": 64, "value": 127}, "group": "control_change"}, {"time": 1253, "annotation": {"number": 64, "value": 0}, "group": "control_change"}, {"time": 1255, "annotation": {"number": 64, "value": 127}, "group": "control_change"}, {"time": 1262, "annotation": {"number": 64, "value": 0}, "group": "control_change"}, {"time": 1267, "annotation": {"number": 64, "value": 127}, "group": "control_change"}, {"time": 1277, "annotation": {"number": 64, "value": 0}, "group": "control_change"}, {"time": 1279, "annotation": {"number": 64, "value": 127}, "group": "control_change"}, {"time": 1300, "annotation": {"number": 64, "value": 0}, "group": "control_change"}, {"time": 1303, "annotation": {"number": 64, "value": 127}, "group": "control_change"}, {"time": 1325, "annotation": {"number": 64, "value": 0}, "group": "control_change"}, {"time": 1327, "annotation": {"number": 64, "value": 127}, "group": "control_change"}, {"time": 1349, "annotation": {"number": 64, "value": 0}, "group": "control_change"}, {"time": 1351, "annotation": {"number": 64, "value": 127}, "group": "control_change"}, {"time": 1371, "annotation": {"number": 64, "value": 0}, "group": "control_change"}, {"time": 1374, "annotation": {"number": 64, "value": 127}, "group": "control_change"}, {"time": 1382, "annotation": {"number": 64, "value": 0}, "group": "control_change"}, {"time": 1398, "annotation": {"number": 64, "value": 127}, "group": "control_change"}, {"time": 1420, "annotation": {"number": 64, "value": 0}, "group": "control_change"}, {"time": 1422, "annotation": {"number": 64, "value": 127}, "group": "control_change"}, {"time": 1434, "annotation": {"number": 64, "value": 0}, "group": "control_change"}, {"time": 1440, "annotation": {"number": 64, "value": 127}, "group": "control_change"}, {"time": 1445, "annotation": {"number": 64, "value": 0}, "group": "control_change"}, {"time": 1447, "annotation": {"number": 64, "value": 127}, "group": "control_change"}, {"time": 1447, "annotation": {"number": 64, "value": 0}, "group": "control_change"}, {"time": 1452, "annotation": {"number": 64, "value": 127}, "group": "control_change"}, {"time": 1458, "annotation": {"number": 64, "value": 0}, "group": "control_change"}, {"time": 1469, "annotation": {"number": 64, "value": 127}, "group": "control_change"}, {"time": 1473, "annotation": {"number": 64, "value": 0}, "group": "control_change"}, {"time": 1483, "annotation": {"number": 64, "value": 127}, "group": "control_change"}, {"time": 1492, "annotation": {"number": 64, "value": 0}, "group": "control_change"}, {"time": 1494, "annotation": {"number": 64, "value": 127}, "group": "control_change"}, {"time": 1495, "annotation": {"number": 64, "value": 127}, "group": "control_change"}, {"time": 1498, "annotation": {"number": 64, "value": 0}, "group": "control_change"}, {"time": 1506, "annotation": {"number": 64, "value": 127}, "group": "control_change"}, {"time": 1511, "annotation": {"number": 64, "value": 0}, "group": "control_change"}, {"time": 1518, "annotation": {"number": 64, "value": 127}, "group": "control_change"}, {"time": 1519, "annotation": {"number": 64, "value": 0}, "group": "control_change"}, {"time": 1542, "annotation": {"number": 64, "value": 127}, "group": "control_change"}, {"time": 1566, "annotation": {"number": 64, "value": 0}, "group": "control_change"}, {"time": 1568, "annotation": {"number": 64, "value": 127}, "group": "control_change"}, {"time": 1589, "annotation": {"number": 64, "value": 0}, "group": "control_change"}, {"time": 1591, "annotation": {"number": 64, "value": 127}, "group": "control_change"}, {"time": 1613, "annotation": {"number": 64, "value": 0}, "group": "control_change"}, {"time": 1615, "annotation": {"number": 64, "value": 127}, "group": "control_change"}, {"time": 1637, "annotation": {"number": 64, "value": 0}, "group": "control_change"}, {"time": 1639, "annotation": {"number": 64, "value": 127}, "group": "control_change"}, {"time": 1650, "annotation": {"number": 64, "value": 0}, "group": "control_change"}, {"time": 1651, "annotation": {"number": 64, "value": 127}, "group": "control_change"}, {"time": 1661, "annotation": {"number": 64, "value": 0}, "group": "control_change"}, {"time": 1663, "annotation": {"number": 64, "value": 127}, "group": "control_change"}, {"time": 1684, "annotation": {"number": 64, "value": 0}, "group": "control_change"}, {"time": 1686, "annotation": {"number": 64, "value": 127}, "group": "control_change"}, {"time": 1709, "annotation": {"number": 64, "value": 0}, "group": "control_change"}, {"time": 1711, "annotation": {"number": 64, "value": 127}, "group": "control_change"}, {"time": 1733, "annotation": {"number": 64, "value": 0}, "group": "control_change"}, {"time": 1735, "annotation": {"number": 64, "value": 127}, "group": "control_change"}, {"time": 1758, "annotation": {"number": 64, "value": 0}, "group": "control_change"}, {"time": 1759, "annotation": {"number": 64, "value": 127}, "group": "control_change"}, {"time": 1781, "annotation": {"number": 64, "value": 0}, "group": "control_change"}, {"time": 1783, "annotation": {"number": 64, "value": 127}, "group": "control_change"}, {"time": 1805, "annotation": {"number": 64, "value": 0}, "group": "control_change"}, {"time": 1806, "annotation": {"number": 64, "value": 127}, "group": "control_change"}, {"time": 1828, "annotation": {"number": 64, "value": 0}, "group": "control_change"}, {"time": 1830, "annotation": {"number": 64, "value": 127}, "group": "control_change"}, {"time": 1853, "annotation": {"number": 64, "value": 0}, "group": "control_change"}, {"time": 1855, "annotation": {"number": 64, "value": 127}, "group": "control_change"}, {"time": 1876, "annotation": {"number": 64, "value": 0}, "group": "control_change"}, {"time": 1878, "annotation": {"number": 64, "value": 127}, "group": "control_change"}, {"time": 1901, "annotation": {"number": 64, "value": 0}, "group": "control_change"}, {"time": 1903, "annotation": {"number": 64, "value": 127}, "group": "control_change"}, {"time": 1924, "annotation": {"number": 64, "value": 0}, "group": "control_change"}, {"time": 1948, "annotation": {"number": 64, "value": 0}, "group": "control_change"}, {"time": 1951, "annotation": {"number": 64, "value": 127}, "group": "control_change"}, {"time": 1973, "annotation": {"number": 64, "value": 0}, "group": "control_change"}, {"time": 1975, "annotation": {"number": 64, "value": 127}, "group": "control_change"}, {"time": 1997, "annotation": {"number": 64, "value": 0}, "group": "control_change"}, {"time": 1999, "annotation": {"number": 64, "value": 127}, "group": "control_change"}, {"time": 2021, "annotation": {"number": 64, "value": 0}, "group": "control_change"}, {"time": 2023, "annotation": {"number": 64, "value": 127}, "group": "control_change"}, {"time": 2044, "annotation": {"number": 64, "value": 0}, "group": "control_change"}, {"time": 2046, "annotation": {"number": 64, "value": 127}, "group": "control_change"}, {"time": 2058, "annotation": {"number": 64, "value": 0}, "group": "control_change"}, {"time": 2059, "annotation": {"number": 64, "value": 127}, "group": "control_change"}, {"time": 2069, "annotation": {"number": 64, "value": 0}, "group": "control_change"}, {"time": 2071, "annotation": {"number": 64, "value": 127}, "group": "control_change"}, {"time": 2093, "annotation": {"number": 64, "value": 0}, "group": "control_change"}, {"time": 2119, "annotation": {"number": 64, "value": 127}, "group": "control_change"}, {"time": 2141, "annotation": {"number": 64, "value": 0}, "group": "control_change"}, {"time": 2143, "annotation": {"number": 64, "value": 127}, "group": "control_change"}, {"time": 2165, "annotation": {"number": 64, "value": 0}, "group": "control_change"}, {"time": 2167, "annotation": {"number": 64, "value": 127}, "group": "control_change"}, {"time": 2189, "annotation": {"number": 64, "value": 0}, "group": "control_change"}, {"time": 2191, "annotation": {"number": 64, "value": 127}, "group": "control_change"}, {"time": 2213, "annotation": {"number": 64, "value": 0}, "group": "control_change"}, {"time": 2215, "annotation": {"number": 64, "value": 127}, "group": "control_change"}, {"time": 2236, "annotation": {"number": 64, "value": 0}, "group": "control_change"}, {"time": 2238, "annotation": {"number": 64, "value": 127}, "group": "control_change"}, {"time": 2261, "annotation": {"number": 64, "value": 0}, "group": "control_change"}, {"time": 2263, "annotation": {"number": 64, "value": 127}, "group": "control_change"}, {"time": 2285, "annotation": {"number": 64, "value": 0}, "group": "control_change"}, {"time": 2287, "annotation": {"number": 64, "value": 127}, "group": "control_change"}, {"time": 2309, "annotation": {"number": 64, "value": 0}, "group": "control_change"}, {"time": 2311, "annotation": {"number": 64, "value": 127}, "group": "control_change"}, {"time": 2333, "annotation": {"number": 64, "value": 0}, "group": "control_change"}, {"time": 2335, "annotation": {"number": 64, "value": 127}, "group": "control_change"}, {"time": 2357, "annotation": {"number": 64, "value": 0}, "group": "control_change"}, {"time": 2359, "annotation": {"number": 64, "value": 127}, "group": "control_change"}, {"time": 2380, "annotation": {"number": 64, "value": 0}, "group": "control_change"}, {"time": 2383, "annotation": {"number": 64, "value": 127}, "group": "control_change"}, {"time": 2391, "annotation": {"number": 64, "value": 0}, "group": "control_change"}, {"time": 2395, "annotation": {"number": 64, "value": 127}, "group": "control_change"}, {"time": 2405, "annotation": {"number": 64, "value": 0}, "group": "control_change"}, {"time": 2407, "annotation": {"number": 64, "value": 127}, "group": "control_change"}, {"time": 2414, "annotation": {"number": 64, "value": 0}, "group": "control_change"}, {"time": 2419, "annotation": {"number": 64, "value": 127}, "group": "control_change"}, {"time": 2429, "annotation": {"number": 64, "value": 0}, "group": "control_change"}, {"time": 2431, "annotation": {"number": 64, "value": 127}, "group": "control_change"}, {"time": 2452, "annotation": {"number": 64, "value": 0}, "group": "control_change"}, {"time": 2455, "annotation": {"number": 64, "value": 127}, "group": "control_change"}, {"time": 2477, "annotation": {"number": 64, "value": 0}, "group": "control_change"}, {"time": 2479, "annotation": {"number": 64, "value": 127}, "group": "control_change"}, {"time": 2501, "annotation": {"number": 64, "value": 0}, "group": "control_change"}, {"time": 2503, "annotation": {"number": 64, "value": 127}, "group": "control_change"}, {"time": 2523, "annotation": {"number": 64, "value": 0}, "group": "control_change"}, {"time": 2526, "annotation": {"number": 64, "value": 127}, "group": "control_change"}, {"time": 2534, "annotation": {"number": 64, "value": 0}, "group": "control_change"}, {"time": 2550, "annotation": {"number": 64, "value": 127}, "group": "control_change"}, {"time": 2572, "annotation": {"number": 64, "value": 0}, "group": "control_change"}, {"time": 2574, "annotation": {"number": 64, "value": 127}, "group": "control_change"}, {"time": 2586, "annotation": {"number": 64, "value": 0}, "group": "control_change"}, {"time": 2592, "annotation": {"number": 64, "value": 127}, "group": "control_change"}, {"time": 2597, "annotation": {"number": 64, "value": 0}, "group": "control_change"}, {"time": 2599, "annotation": {"number": 64, "value": 127}, "group": "control_change"}, {"time": 2599, "annotation": {"number": 64, "value": 0}, "group": "control_change"}, {"time": 2604, "annotation": {"number": 64, "value": 127}, "group": "control_change"}, {"time": 2610, "annotation": {"number": 64, "value": 0}, "group": "control_change"}, {"time": 2621, "annotation": {"number": 64, "value": 127}, "group": "control_change"}, {"time": 2625, "annotation": {"number": 64, "value": 0}, "group": "control_change"}, {"time": 2635, "annotation": {"number": 64, "value": 127}, "group": "control_change"}, {"time": 2644, "annotation": {"number": 64, "value": 0}, "group": "control_change"}, {"time": 2646, "annotation": {"number": 64, "value": 127}, "group": "control_change"}, {"time": 2647, "annotation": {"number": 64, "value": 127}, "group": "control_change"}, {"time": 2654, "annotation": {"number": 64, "value": 0}, "group": "control_change"}, {"time": 2660, "annotation": {"number": 64, "value": 127}, "group": "control_change"}, {"time": 2662, "annotation": {"number": 64, "value": 0}, "group": "control_change"}, {"time": 2671, "annotation": {"number": 64, "value": 127}, "group": "control_change"}, {"time": 2674, "annotation": {"number": 64, "value": 0}, "group": "control_change"}, {"time": 2718, "annotation": {"number": 64, "value": 0}, "group": "control_change"}, {"time": 2720, "annotation": {"number": 64, "value": 127}, "group": "control_change"}, {"time": 2741, "annotation": {"number": 64, "value": 0}, "group": "control_change"}, {"time": 2743, "annotation": {"number": 64, "value": 127}, "group": "control_change"}, {"time": 2765, "annotation": {"number": 64, "value": 0}, "group": "control_change"}, {"time": 2767, "annotation": {"number": 64, "value": 127}, "group": "control_change"}, {"time": 2789, "annotation": {"number": 64, "value": 0}, "group": "control_change"}, {"time": 2791, "annotation": {"number": 64, "value": 127}, "group": "control_change"}, {"time": 2802, "annotation": {"number": 64, "value": 0}, "group": "control_change"}, {"time": 2803, "annotation": {"number": 64, "value": 127}, "group": "control_change"}, {"time": 2813, "annotation": {"number": 64, "value": 0}, "group": "control_change"}, {"time": 2815, "annotation": {"number": 64, "value": 127}, "group": "control_change"}, {"time": 2836, "annotation": {"number": 64, "value": 0}, "group": "control_change"}, {"time": 2838, "annotation": {"number": 64, "value": 127}, "group": "control_change"}, {"time": 2861, "annotation": {"number": 64, "value": 0}, "group": "control_change"}, {"time": 2863, "annotation": {"number": 64, "value": 127}, "group": "control_change"}, {"time": 2885, "annotation": {"number": 64, "value": 0}, "group": "control_change"}, {"time": 2887, "annotation": {"number": 64, "value": 127}, "group": "control_change"}, {"time": 2910, "annotation": {"number": 64, "value": 0}, "group": "control_change"}, {"time": 2911, "annotation": {"number": 64, "value": 127}, "group": "control_change"}, {"time": 2933, "annotation": {"number": 64, "value": 0}, "group": "control_change"}, {"time": 2935, "annotation": {"number": 64, "value": 127}, "group": "control_change"}, {"time": 2957, "annotation": {"number": 64, "value": 0}, "group": "control_change"}, {"time": 2958, "annotation": {"number": 64, "value": 127}, "group": "control_change"}, {"time": 2980, "annotation": {"number": 64, "value": 0}, "group": "control_change"}, {"time": 2982, "annotation": {"number": 64, "value": 127}, "group": "control_change"}, {"time": 3005, "annotation": {"number": 64, "value": 0}, "group": "control_change"}, {"time": 3007, "annotation": {"number": 64, "value": 127}, "group": "control_change"}, {"time": 3028, "annotation": {"number": 64, "value": 0}, "group": "control_change"}, {"time": 3030, "annotation": {"number": 64, "value": 127}, "group": "control_change"}, {"time": 3053, "annotation": {"number": 64, "value": 0}, "group": "control_change"}, {"time": 3055, "annotation": {"number": 64, "value": 127}, "group": "control_change"}, {"time": 3076, "annotation": {"number": 64, "value": 0}, "group": "control_change"}, {"time": 3079, "annotation": {"number": 64, "value": 127}, "group": "control_change"}, {"time": 3088, "annotation": {"number": 64, "value": 0}, "group": "control_change"}, {"time": 3091, "annotation": {"number": 64, "value": 127}, "group": "control_change"}, {"time": 3100, "annotation": {"number": 64, "value": 0}, "group": "control_change"}, {"time": 3103, "annotation": {"number": 64, "value": 127}, "group": "control_change"}, {"time": 3114, "annotation": {"number": 64, "value": 0}, "group": "control_change"}, {"time": 3115, "annotation": {"number": 64, "value": 127}, "group": "control_change"}, {"time": 3125, "annotation": {"number": 64, "value": 0}, "group": "control_change"}, {"time": 3127, "annotation": {"number": 64, "value": 127}, "group": "control_change"}, {"time": 3127, "annotation": {"number": 64, "value": 0}, "group": "control_change"}, {"time": 3175, "annotation": {"number": 64, "value": 127}, "group": "control_change"}, {"time": 3210, "annotation": {"number": 64, "value": 0}, "group": "control_change"}, {"time": 3212, "annotation": {"number": 64, "value": 0}, "group": "control_change"}, {"time": 3212, "annotation": {"number": 64, "value": 127}, "group": "control_change"}, {"time": 3223, "annotation": {"number": 64, "value": 127}, "group": "control_change"}, {"time": 3268, "annotation": {"number": 64, "value": 0}, "group": "control_change"}, {"time": 3272, "annotation": {"number": 64, "value": 127}, "group": "control_change"}, {"time": 3307, "annotation": {"number": 64, "value": 0}, "group": "control_change"}, {"time": 3308, "annotation": {"number": 64, "value": 127}, "group": "control_change"}, {"time": 3309, "annotation": {"number": 64, "value": 0}, "group": "control_change"}, {"time": 3319, "annotation": {"number": 64, "value": 127}, "group": "control_change"}, {"time": 3325, "annotation": {"number": 64, "value": 0}, "group": "control_change"}, {"time": 3368, "annotation": {"number": 64, "value": 127}, "group": "control_change"}, {"time": 3389, "annotation": {"number": 64, "value": 0}, "group": "control_change"}, {"time": 3391, "annotation": {"number": 64, "value": 127}, "group": "control_change"}, {"time": 3413, "annotation": {"number": 64, "value": 0}, "group": "control_change"}, {"time": 3415, "annotation": {"number": 64, "value": 127}, "group": "control_change"}, {"time": 3425, "annotation": {"number": 64, "value": 0}, "group": "control_change"}, {"time": 3427, "annotation": {"number": 64, "value": 127}, "group": "control_change"}, {"time": 3434, "annotation": {"number": 64, "value": 0}, "group": "control_change"}, {"time": 3439, "annotation": {"number": 64, "value": 127}, "group": "control_change"}, {"time": 3461, "annotation": {"number": 64, "value": 0}, "group": "control_change"}, {"time": 3462, "annotation": {"number": 64, "value": 127}, "group": "control_change"}, {"time": 3485, "annotation": {"number": 64, "value": 0}, "group": "control_change"}, {"time": 3487, "annotation": {"number": 64, "value": 127}, "group": "control_change"}, {"time": 3509, "annotation": {"number": 64, "value": 0}, "group": "control_change"}, {"time": 3510, "annotation": {"number": 64, "value": 127}, "group": "control_change"}, {"time": 3533, "annotation": {"number": 64, "value": 0}, "group": "control_change"}, {"time": 3534, "annotation": {"number": 64, "value": 127}, "group": "control_change"}, {"time": 3556, "annotation": {"number": 64, "value": 0}, "group": "control_change"}, {"time": 3607, "annotation": {"number": 64, "value": 127}, "group": "control_change"}, {"time": 3612, "annotation": {"number": 64, "value": 0}, "group": "control_change"}, {"time": 3620, "annotation": {"number": 64, "value": 127}, "group": "control_change"}, {"time": 3620, "annotation": {"number": 64, "value": 0}, "group": "control_change"}, {"time": 3643, "annotation": {"number": 64, "value": 127}, "group": "control_change"}, {"time": 3644, "annotation": {"number": 64, "value": 0}, "group": "control_change"}, {"time": 3750, "annotation": {"number": 64, "value": 127}, "group": "control_change"}, {"time": 3773, "annotation": {"number": 64, "value": 0}, "group": "control_change"}, {"time": 3775, "annotation": {"number": 64, "value": 127}, "group": "control_change"}, {"time": 3796, "annotation": {"number": 64, "value": 0}, "group": "control_change"}, {"time": 3798, "annotation": {"number": 64, "value": 127}, "group": "control_change"}, {"time": 3821, "annotation": {"number": 64, "value": 0}, "group": "control_change"}, {"time": 3823, "annotation": {"number": 64, "value": 127}, "group": "control_change"}, {"time": 3844, "annotation": {"number": 64, "value": 0}, "group": "control_change"}, {"time": 3846, "annotation": {"number": 64, "value": 127}, "group": "control_change"}, {"time": 3868, "annotation": {"number": 64, "value": 0}, "group": "control_change"}, {"time": 3870, "annotation": {"number": 64, "value": 127}, "group": "control_change"}, {"time": 3893, "annotation": {"number": 64, "value": 0}, "group": "control_change"}, {"time": 3894, "annotation": {"number": 64, "value": 127}, "group": "control_change"}, {"time": 3917, "annotation": {"number": 64, "value": 0}, "group": "control_change"}, {"time": 3919, "annotation": {"number": 64, "value": 127}, "group": "control_change"}, {"time": 3940, "annotation": {"number": 64, "value": 0}, "group": "control_change"}, {"time": 4060, "annotation": {"number": 64, "value": 0}, "group": "control_change"}, {"time": 4063, "annotation": {"number": 64, "value": 127}, "group": "control_change"}, {"time": 4085, "annotation": {"number": 64, "value": 0}, "group": "control_change"}, {"time": 4087, "annotation": {"number": 64, "value": 127}, "group": "control_change"}, {"time": 4109, "annotation": {"number": 64, "value": 0}, "group": "control_change"}, {"time": 4111, "annotation": {"number": 64, "value": 127}, "group": "control_change"}, {"time": 4133, "annotation": {"number": 64, "value": 0}, "group": "control_change"}, {"time": 4135, "annotation": {"number": 64, "value": 127}, "group": "control_change"}, {"time": 4156, "annotation": {"number": 64, "value": 0}, "group": "control_change"}, {"time": 4158, "annotation": {"number": 64, "value": 127}, "group": "control_change"}, {"time": 4170, "annotation": {"number": 64, "value": 0}, "group": "control_change"}, {"time": 4171, "annotation": {"number": 64, "value": 127}, "group": "control_change"}, {"time": 4181, "annotation": {"number": 64, "value": 0}, "group": "control_change"}, {"time": 4183, "annotation": {"number": 64, "value": 127}, "group": "control_change"}, {"time": 4197, "annotation": {"number": 64, "value": 127}, "group": "control_change"}, {"time": 4230, "annotation": {"number": 64, "value": 0}, "group": "control_change"}, {"time": 4235, "annotation": {"number": 64, "value": 127}, "group": "control_change"}, {"time": 4275, "annotation": {"number": 64, "value": 0}, "group": "control_change"}, {"time": 4275, "annotation": {"number": 64, "value": 127}, "group": "control_change"}, {"time": 4280, "annotation": {"number": 64, "value": 0}, "group": "control_change"}]}]}