{"metadata": {"schema_version": "0.2", "title": "None", "source_filename": "169.mid", "source_format": "midi"}, "resolution": 12, "tempos": [{"time": 0, "qpm": 85.00004250002125}], "key_signatures": [{"time": 0, "root": 0, "mode": "major"}], "time_signatures": [{"time": 0, "numerator": 4, "denominator": 4}, {"time": 0, "numerator": 1, "denominator": 4}], "tracks": [{"program": 0, "is_drum": false, "name": "MELODY", "notes": [{"time": 50, "pitch": 78, "duration": 9, "velocity": 97}, {"time": 62, "pitch": 74, "duration": 6, "velocity": 96}, {"time": 68, "pitch": 69, "duration": 2, "velocity": 73}, {"time": 71, "pitch": 74, "duration": 10, "velocity": 99}, {"time": 80, "pitch": 74, "duration": 1, "velocity": 97}, {"time": 86, "pitch": 78, "duration": 8, "velocity": 122}, {"time": 98, "pitch": 73, "duration": 9, "velocity": 117}, {"time": 110, "pitch": 70, "duration": 6, "velocity": 112}, {"time": 119, "pitch": 70, "duration": 5, "velocity": 102}, {"time": 128, "pitch": 71, "duration": 5, "velocity": 97}, {"time": 134, "pitch": 73, "duration": 5, "velocity": 127}, {"time": 140, "pitch": 73, "duration": 3, "velocity": 117}, {"time": 143, "pitch": 74, "duration": 21, "velocity": 99}, {"time": 164, "pitch": 73, "duration": 3, "velocity": 107}, {"time": 167, "pitch": 74, "duration": 3, "velocity": 93}, {"time": 176, "pitch": 73, "duration": 2, "velocity": 112}, {"time": 182, "pitch": 74, "duration": 2, "velocity": 107}, {"time": 188, "pitch": 78, "duration": 2, "velocity": 127}, {"time": 194, "pitch": 67, "duration": 17, "velocity": 100}, {"time": 212, "pitch": 76, "duration": 9, "velocity": 90}, {"time": 224, "pitch": 73, "duration": 5, "velocity": 97}, {"time": 230, "pitch": 73, "duration": 9, "velocity": 100}, {"time": 242, "pitch": 78, "duration": 13, "velocity": 117}, {"time": 254, "pitch": 74, "duration": 5, "velocity": 100}, {"time": 260, "pitch": 69, "duration": 3, "velocity": 72}, {"time": 263, "pitch": 74, "duration": 6, "velocity": 97}, {"time": 272, "pitch": 74, "duration": 5, "velocity": 92}, {"time": 278, "pitch": 78, "duration": 6, "velocity": 127}, {"time": 290, "pitch": 73, "duration": 8, "velocity": 117}, {"time": 302, "pitch": 70, "duration": 2, "velocity": 117}, {"time": 308, "pitch": 70, "duration": 2, "velocity": 100}, {"time": 311, "pitch": 70, "duration": 8, "velocity": 117}, {"time": 320, "pitch": 71, "duration": 5, "velocity": 99}, {"time": 326, "pitch": 73, "duration": 3, "velocity": 112}, {"time": 332, "pitch": 73, "duration": 2, "velocity": 112}, {"time": 335, "pitch": 74, "duration": 19, "velocity": 107}, {"time": 356, "pitch": 73, "duration": 2, "velocity": 117}, {"time": 359, "pitch": 74, "duration": 5, "velocity": 93}, {"time": 368, "pitch": 73, "duration": 4, "velocity": 127}, {"time": 374, "pitch": 74, "duration": 4, "velocity": 100}, {"time": 380, "pitch": 79, "duration": 5, "velocity": 102}, {"time": 386, "pitch": 67, "duration": 13, "velocity": 102}, {"time": 404, "pitch": 76, "duration": 9, "velocity": 117}, {"time": 416, "pitch": 74, "duration": 3, "velocity": 107}, {"time": 422, "pitch": 74, "duration": 12, "velocity": 122}, {"time": 434, "pitch": 74, "duration": 8, "velocity": 117}, {"time": 446, "pitch": 81, "duration": 3, "velocity": 127}, {"time": 449, "pitch": 78, "duration": 4, "velocity": 97}, {"time": 455, "pitch": 81, "duration": 7, "velocity": 107}, {"time": 464, "pitch": 81, "duration": 5, "velocity": 107}, {"time": 470, "pitch": 78, "duration": 4, "velocity": 102}, {"time": 476, "pitch": 81, "duration": 4, "velocity": 107}, {"time": 482, "pitch": 73, "duration": 13, "velocity": 112}, {"time": 494, "pitch": 81, "duration": 5, "velocity": 107}, {"time": 500, "pitch": 78, "duration": 4, "velocity": 107}, {"time": 503, "pitch": 81, "duration": 7, "velocity": 102}, {"time": 512, "pitch": 81, "duration": 5, "velocity": 117}, {"time": 518, "pitch": 78, "duration": 5, "velocity": 127}, {"time": 524, "pitch": 81, "duration": 5, "velocity": 100}, {"time": 530, "pitch": 71, "duration": 11, "velocity": 107}, {"time": 542, "pitch": 78, "duration": 3, "velocity": 127}, {"time": 545, "pitch": 76, "duration": 4, "velocity": 89}, {"time": 551, "pitch": 78, "duration": 5, "velocity": 112}, {"time": 560, "pitch": 78, "duration": 4, "velocity": 122}, {"time": 566, "pitch": 76, "duration": 5, "velocity": 117}, {"time": 572, "pitch": 74, "duration": 6, "velocity": 117}, {"time": 578, "pitch": 67, "duration": 11, "velocity": 99}, {"time": 590, "pitch": 76, "duration": 6, "velocity": 127}, {"time": 596, "pitch": 74, "duration": 6, "velocity": 90}, {"time": 602, "pitch": 76, "duration": 6, "velocity": 97}, {"time": 608, "pitch": 74, "duration": 5, "velocity": 100}, {"time": 614, "pitch": 76, "duration": 5, "velocity": 99}, {"time": 620, "pitch": 74, "duration": 4, "velocity": 107}, {"time": 626, "pitch": 74, "duration": 10, "velocity": 127}, {"time": 638, "pitch": 81, "duration": 3, "velocity": 107}, {"time": 641, "pitch": 78, "duration": 4, "velocity": 99}, {"time": 647, "pitch": 81, "duration": 7, "velocity": 100}, {"time": 656, "pitch": 81, "duration": 4, "velocity": 122}, {"time": 662, "pitch": 78, "duration": 4, "velocity": 117}, {"time": 668, "pitch": 81, "duration": 5, "velocity": 99}, {"time": 674, "pitch": 73, "duration": 11, "velocity": 122}, {"time": 686, "pitch": 81, "duration": 3, "velocity": 107}, {"time": 689, "pitch": 78, "duration": 4, "velocity": 97}, {"time": 695, "pitch": 81, "duration": 6, "velocity": 99}, {"time": 704, "pitch": 81, "duration": 4, "velocity": 112}, {"time": 710, "pitch": 78, "duration": 5, "velocity": 112}, {"time": 716, "pitch": 81, "duration": 4, "velocity": 107}, {"time": 722, "pitch": 71, "duration": 9, "velocity": 117}, {"time": 734, "pitch": 78, "duration": 3, "velocity": 122}, {"time": 737, "pitch": 76, "duration": 4, "velocity": 88}, {"time": 743, "pitch": 78, "duration": 6, "velocity": 117}, {"time": 752, "pitch": 78, "duration": 5, "velocity": 127}, {"time": 758, "pitch": 76, "duration": 4, "velocity": 99}, {"time": 764, "pitch": 74, "duration": 5, "velocity": 117}, {"time": 770, "pitch": 67, "duration": 7, "velocity": 102}, {"time": 782, "pitch": 76, "duration": 4, "velocity": 112}, {"time": 788, "pitch": 74, "duration": 6, "velocity": 107}, {"time": 794, "pitch": 76, "duration": 5, "velocity": 97}, {"time": 800, "pitch": 74, "duration": 4, "velocity": 112}, {"time": 806, "pitch": 76, "duration": 4, "velocity": 107}, {"time": 812, "pitch": 74, "duration": 35, "velocity": 117}, {"time": 1010, "pitch": 78, "duration": 9, "velocity": 97}, {"time": 1022, "pitch": 74, "duration": 6, "velocity": 96}, {"time": 1028, "pitch": 69, "duration": 2, "velocity": 73}, {"time": 1031, "pitch": 74, "duration": 10, "velocity": 99}, {"time": 1040, "pitch": 74, "duration": 1, "velocity": 97}, {"time": 1046, "pitch": 78, "duration": 8, "velocity": 122}, {"time": 1058, "pitch": 73, "duration": 9, "velocity": 117}, {"time": 1070, "pitch": 70, "duration": 6, "velocity": 112}, {"time": 1079, "pitch": 70, "duration": 5, "velocity": 102}, {"time": 1088, "pitch": 71, "duration": 5, "velocity": 97}, {"time": 1094, "pitch": 73, "duration": 5, "velocity": 127}, {"time": 1100, "pitch": 73, "duration": 3, "velocity": 117}, {"time": 1103, "pitch": 74, "duration": 21, "velocity": 99}, {"time": 1124, "pitch": 73, "duration": 3, "velocity": 107}, {"time": 1127, "pitch": 74, "duration": 3, "velocity": 93}, {"time": 1136, "pitch": 73, "duration": 2, "velocity": 112}, {"time": 1142, "pitch": 74, "duration": 2, "velocity": 107}, {"time": 1148, "pitch": 78, "duration": 2, "velocity": 127}, {"time": 1154, "pitch": 67, "duration": 17, "velocity": 100}, {"time": 1172, "pitch": 76, "duration": 9, "velocity": 90}, {"time": 1184, "pitch": 73, "duration": 5, "velocity": 97}, {"time": 1190, "pitch": 73, "duration": 9, "velocity": 100}, {"time": 1202, "pitch": 78, "duration": 13, "velocity": 117}, {"time": 1214, "pitch": 74, "duration": 5, "velocity": 100}, {"time": 1220, "pitch": 69, "duration": 3, "velocity": 72}, {"time": 1223, "pitch": 74, "duration": 6, "velocity": 97}, {"time": 1232, "pitch": 74, "duration": 5, "velocity": 92}, {"time": 1238, "pitch": 78, "duration": 6, "velocity": 127}, {"time": 1250, "pitch": 73, "duration": 8, "velocity": 117}, {"time": 1262, "pitch": 70, "duration": 2, "velocity": 117}, {"time": 1268, "pitch": 70, "duration": 2, "velocity": 100}, {"time": 1271, "pitch": 70, "duration": 8, "velocity": 117}, {"time": 1280, "pitch": 71, "duration": 5, "velocity": 99}, {"time": 1286, "pitch": 73, "duration": 3, "velocity": 112}, {"time": 1292, "pitch": 73, "duration": 2, "velocity": 112}, {"time": 1295, "pitch": 74, "duration": 19, "velocity": 107}, {"time": 1316, "pitch": 73, "duration": 2, "velocity": 117}, {"time": 1319, "pitch": 74, "duration": 5, "velocity": 93}, {"time": 1328, "pitch": 73, "duration": 4, "velocity": 127}, {"time": 1334, "pitch": 74, "duration": 4, "velocity": 100}, {"time": 1340, "pitch": 79, "duration": 5, "velocity": 102}, {"time": 1346, "pitch": 67, "duration": 13, "velocity": 102}, {"time": 1364, "pitch": 76, "duration": 9, "velocity": 117}, {"time": 1376, "pitch": 74, "duration": 3, "velocity": 107}, {"time": 1382, "pitch": 74, "duration": 12, "velocity": 122}, {"time": 1394, "pitch": 74, "duration": 8, "velocity": 117}, {"time": 1406, "pitch": 81, "duration": 3, "velocity": 127}, {"time": 1409, "pitch": 78, "duration": 4, "velocity": 97}, {"time": 1415, "pitch": 81, "duration": 7, "velocity": 107}, {"time": 1424, "pitch": 81, "duration": 5, "velocity": 107}, {"time": 1430, "pitch": 78, "duration": 4, "velocity": 102}, {"time": 1436, "pitch": 81, "duration": 4, "velocity": 107}, {"time": 1442, "pitch": 73, "duration": 13, "velocity": 112}, {"time": 1454, "pitch": 81, "duration": 5, "velocity": 107}, {"time": 1460, "pitch": 78, "duration": 4, "velocity": 107}, {"time": 1463, "pitch": 81, "duration": 7, "velocity": 102}, {"time": 1472, "pitch": 81, "duration": 5, "velocity": 117}, {"time": 1478, "pitch": 78, "duration": 5, "velocity": 127}, {"time": 1484, "pitch": 81, "duration": 5, "velocity": 100}, {"time": 1490, "pitch": 71, "duration": 11, "velocity": 107}, {"time": 1502, "pitch": 78, "duration": 3, "velocity": 127}, {"time": 1505, "pitch": 76, "duration": 4, "velocity": 89}, {"time": 1511, "pitch": 78, "duration": 5, "velocity": 112}, {"time": 1520, "pitch": 78, "duration": 4, "velocity": 122}, {"time": 1526, "pitch": 76, "duration": 5, "velocity": 117}, {"time": 1532, "pitch": 74, "duration": 6, "velocity": 117}, {"time": 1538, "pitch": 67, "duration": 11, "velocity": 99}, {"time": 1550, "pitch": 76, "duration": 6, "velocity": 127}, {"time": 1556, "pitch": 74, "duration": 6, "velocity": 90}, {"time": 1562, "pitch": 76, "duration": 6, "velocity": 97}, {"time": 1568, "pitch": 74, "duration": 5, "velocity": 100}, {"time": 1574, "pitch": 76, "duration": 5, "velocity": 99}, {"time": 1580, "pitch": 74, "duration": 4, "velocity": 107}, {"time": 1586, "pitch": 74, "duration": 10, "velocity": 127}, {"time": 1598, "pitch": 81, "duration": 3, "velocity": 107}, {"time": 1601, "pitch": 78, "duration": 4, "velocity": 99}, {"time": 1607, "pitch": 81, "duration": 7, "velocity": 100}, {"time": 1616, "pitch": 81, "duration": 4, "velocity": 122}, {"time": 1622, "pitch": 78, "duration": 4, "velocity": 117}, {"time": 1628, "pitch": 81, "duration": 5, "velocity": 99}, {"time": 1634, "pitch": 73, "duration": 11, "velocity": 122}, {"time": 1646, "pitch": 81, "duration": 3, "velocity": 107}, {"time": 1649, "pitch": 78, "duration": 4, "velocity": 97}, {"time": 1655, "pitch": 81, "duration": 6, "velocity": 99}, {"time": 1664, "pitch": 81, "duration": 4, "velocity": 112}, {"time": 1670, "pitch": 78, "duration": 5, "velocity": 112}, {"time": 1676, "pitch": 81, "duration": 4, "velocity": 107}, {"time": 1682, "pitch": 71, "duration": 9, "velocity": 117}, {"time": 1694, "pitch": 78, "duration": 3, "velocity": 122}, {"time": 1697, "pitch": 76, "duration": 4, "velocity": 88}, {"time": 1703, "pitch": 78, "duration": 6, "velocity": 117}, {"time": 1712, "pitch": 78, "duration": 5, "velocity": 127}, {"time": 1718, "pitch": 76, "duration": 4, "velocity": 99}, {"time": 1724, "pitch": 74, "duration": 5, "velocity": 117}, {"time": 1730, "pitch": 67, "duration": 7, "velocity": 102}, {"time": 1742, "pitch": 76, "duration": 4, "velocity": 112}, {"time": 1748, "pitch": 74, "duration": 6, "velocity": 107}, {"time": 1754, "pitch": 76, "duration": 5, "velocity": 97}, {"time": 1760, "pitch": 74, "duration": 4, "velocity": 112}, {"time": 1766, "pitch": 76, "duration": 4, "velocity": 107}, {"time": 1772, "pitch": 74, "duration": 6, "velocity": 117}, {"time": 1784, "pitch": 78, "duration": 3, "velocity": 112}, {"time": 1790, "pitch": 78, "duration": 3, "velocity": 117}, {"time": 1796, "pitch": 78, "duration": 3, "velocity": 117}, {"time": 1802, "pitch": 78, "duration": 3, "velocity": 127}, {"time": 1808, "pitch": 78, "duration": 3, "velocity": 112}, {"time": 1814, "pitch": 78, "duration": 4, "velocity": 117}, {"time": 1820, "pitch": 76, "duration": 7, "velocity": 112}, {"time": 1838, "pitch": 78, "duration": 3, "velocity": 127}, {"time": 1844, "pitch": 78, "duration": 3, "velocity": 117}, {"time": 1850, "pitch": 78, "duration": 3, "velocity": 112}, {"time": 1856, "pitch": 78, "duration": 3, "velocity": 99}, {"time": 1862, "pitch": 78, "duration": 3, "velocity": 107}, {"time": 1868, "pitch": 74, "duration": 8, "velocity": 127}, {"time": 1880, "pitch": 78, "duration": 3, "velocity": 122}, {"time": 1886, "pitch": 78, "duration": 3, "velocity": 122}, {"time": 1892, "pitch": 78, "duration": 3, "velocity": 127}, {"time": 1898, "pitch": 78, "duration": 3, "velocity": 127}, {"time": 1904, "pitch": 78, "duration": 3, "velocity": 127}, {"time": 1910, "pitch": 78, "duration": 4, "velocity": 127}, {"time": 1916, "pitch": 76, "duration": 6, "velocity": 127}, {"time": 1928, "pitch": 76, "duration": 6, "velocity": 88}, {"time": 1934, "pitch": 74, "duration": 2, "velocity": 79}, {"time": 1940, "pitch": 76, "duration": 4, "velocity": 107}, {"time": 1946, "pitch": 74, "duration": 4, "velocity": 100}, {"time": 1952, "pitch": 76, "duration": 3, "velocity": 107}, {"time": 1958, "pitch": 78, "duration": 5, "velocity": 122}, {"time": 1964, "pitch": 74, "duration": 9, "velocity": 102}, {"time": 1976, "pitch": 78, "duration": 3, "velocity": 112}, {"time": 1982, "pitch": 78, "duration": 3, "velocity": 117}, {"time": 1988, "pitch": 78, "duration": 3, "velocity": 117}, {"time": 1994, "pitch": 78, "duration": 3, "velocity": 127}, {"time": 2000, "pitch": 78, "duration": 3, "velocity": 112}, {"time": 2006, "pitch": 78, "duration": 4, "velocity": 117}, {"time": 2012, "pitch": 76, "duration": 7, "velocity": 112}, {"time": 2030, "pitch": 78, "duration": 3, "velocity": 127}, {"time": 2036, "pitch": 78, "duration": 3, "velocity": 117}, {"time": 2042, "pitch": 78, "duration": 3, "velocity": 112}, {"time": 2048, "pitch": 78, "duration": 3, "velocity": 99}, {"time": 2054, "pitch": 78, "duration": 3, "velocity": 107}, {"time": 2060, "pitch": 74, "duration": 8, "velocity": 127}, {"time": 2072, "pitch": 78, "duration": 3, "velocity": 122}, {"time": 2078, "pitch": 78, "duration": 3, "velocity": 122}, {"time": 2084, "pitch": 78, "duration": 3, "velocity": 127}, {"time": 2090, "pitch": 78, "duration": 3, "velocity": 127}, {"time": 2096, "pitch": 78, "duration": 3, "velocity": 127}, {"time": 2102, "pitch": 78, "duration": 4, "velocity": 127}, {"time": 2108, "pitch": 76, "duration": 6, "velocity": 127}, {"time": 2120, "pitch": 76, "duration": 6, "velocity": 88}, {"time": 2126, "pitch": 74, "duration": 2, "velocity": 79}, {"time": 2132, "pitch": 76, "duration": 4, "velocity": 107}, {"time": 2138, "pitch": 74, "duration": 4, "velocity": 100}, {"time": 2144, "pitch": 76, "duration": 3, "velocity": 107}, {"time": 2150, "pitch": 78, "duration": 5, "velocity": 122}, {"time": 2156, "pitch": 74, "duration": 9, "velocity": 102}], "annotations": [{"time": 0, "annotation": {"number": 7, "value": 101}, "group": "control_change"}, {"time": 2340, "annotation": {"number": 7, "value": 101}, "group": "control_change"}, {"time": 2340, "annotation": {"number": 7, "value": 100}, "group": "control_change"}, {"time": 2341, "annotation": {"number": 7, "value": 98}, "group": "control_change"}, {"time": 2341, "annotation": {"number": 7, "value": 97}, "group": "control_change"}, {"time": 2342, "annotation": {"number": 7, "value": 95}, "group": "control_change"}, {"time": 2342, "annotation": {"number": 7, "value": 94}, "group": "control_change"}, {"time": 2343, "annotation": {"number": 7, "value": 92}, "group": "control_change"}, {"time": 2343, "annotation": {"number": 7, "value": 91}, "group": "control_change"}, {"time": 2344, "annotation": {"number": 7, "value": 89}, "group": "control_change"}, {"time": 2344, "annotation": {"number": 7, "value": 88}, "group": "control_change"}, {"time": 2345, "annotation": {"number": 7, "value": 86}, "group": "control_change"}, {"time": 2345, "annotation": {"number": 7, "value": 85}, "group": "control_change"}, {"time": 2346, "annotation": {"number": 7, "value": 83}, "group": "control_change"}, {"time": 2346, "annotation": {"number": 7, "value": 82}, "group": "control_change"}, {"time": 2347, "annotation": {"number": 7, "value": 80}, "group": "control_change"}, {"time": 2347, "annotation": {"number": 7, "value": 79}, "group": "control_change"}, {"time": 2348, "annotation": {"number": 7, "value": 78}, "group": "control_change"}, {"time": 2348, "annotation": {"number": 7, "value": 76}, "group": "control_change"}, {"time": 2349, "annotation": {"number": 7, "value": 75}, "group": "control_change"}, {"time": 2349, "annotation": {"number": 7, "value": 73}, "group": "control_change"}, {"time": 2350, "annotation": {"number": 7, "value": 72}, "group": "control_change"}, {"time": 2350, "annotation": {"number": 7, "value": 70}, "group": "control_change"}, {"time": 2351, "annotation": {"number": 7, "value": 69}, "group": "control_change"}, {"time": 2351, "annotation": {"number": 7, "value": 67}, "group": "control_change"}, {"time": 2352, "annotation": {"number": 7, "value": 66}, "group": "control_change"}, {"time": 2352, "annotation": {"number": 7, "value": 64}, "group": "control_change"}, {"time": 2353, "annotation": {"number": 7, "value": 63}, "group": "control_change"}, {"time": 2353, "annotation": {"number": 7, "value": 61}, "group": "control_change"}, {"time": 2354, "annotation": {"number": 7, "value": 60}, "group": "control_change"}, {"time": 2354, "annotation": {"number": 7, "value": 58}, "group": "control_change"}, {"time": 2355, "annotation": {"number": 7, "value": 57}, "group": "control_change"}, {"time": 2355, "annotation": {"number": 7, "value": 55}, "group": "control_change"}, {"time": 2356, "annotation": {"number": 7, "value": 54}, "group": "control_change"}, {"time": 2356, "annotation": {"number": 7, "value": 53}, "group": "control_change"}, {"time": 2357, "annotation": {"number": 7, "value": 51}, "group": "control_change"}, {"time": 2357, "annotation": {"number": 7, "value": 50}, "group": "control_change"}, {"time": 2358, "annotation": {"number": 7, "value": 48}, "group": "control_change"}, {"time": 2358, "annotation": {"number": 7, "value": 47}, "group": "control_change"}, {"time": 2359, "annotation": {"number": 7, "value": 45}, "group": "control_change"}, {"time": 2359, "annotation": {"number": 7, "value": 44}, "group": "control_change"}, {"time": 2360, "annotation": {"number": 7, "value": 42}, "group": "control_change"}, {"time": 2360, "annotation": {"number": 7, "value": 41}, "group": "control_change"}, {"time": 2361, "annotation": {"number": 7, "value": 39}, "group": "control_change"}, {"time": 2361, "annotation": {"number": 7, "value": 38}, "group": "control_change"}, {"time": 2362, "annotation": {"number": 7, "value": 36}, "group": "control_change"}, {"time": 2362, "annotation": {"number": 7, "value": 35}, "group": "control_change"}, {"time": 2363, "annotation": {"number": 7, "value": 33}, "group": "control_change"}, {"time": 2363, "annotation": {"number": 7, "value": 32}, "group": "control_change"}, {"time": 2364, "annotation": {"number": 7, "value": 31}, "group": "control_change"}, {"time": 2364, "annotation": {"number": 7, "value": 29}, "group": "control_change"}, {"time": 2365, "annotation": {"number": 7, "value": 28}, "group": "control_change"}, {"time": 2365, "annotation": {"number": 7, "value": 26}, "group": "control_change"}, {"time": 2366, "annotation": {"number": 7, "value": 25}, "group": "control_change"}, {"time": 2366, "annotation": {"number": 7, "value": 23}, "group": "control_change"}, {"time": 2367, "annotation": {"number": 7, "value": 22}, "group": "control_change"}, {"time": 2367, "annotation": {"number": 7, "value": 20}, "group": "control_change"}, {"time": 2368, "annotation": {"number": 7, "value": 19}, "group": "control_change"}, {"time": 2368, "annotation": {"number": 7, "value": 17}, "group": "control_change"}, {"time": 2369, "annotation": {"number": 7, "value": 16}, "group": "control_change"}, {"time": 2369, "annotation": {"number": 7, "value": 14}, "group": "control_change"}, {"time": 2370, "annotation": {"number": 7, "value": 13}, "group": "control_change"}, {"time": 2370, "annotation": {"number": 7, "value": 11}, "group": "control_change"}, {"time": 2371, "annotation": {"number": 7, "value": 10}, "group": "control_change"}, {"time": 2371, "annotation": {"number": 7, "value": 8}, "group": "control_change"}, {"time": 2372, "annotation": {"number": 7, "value": 7}, "group": "control_change"}, {"time": 2372, "annotation": {"number": 7, "value": 6}, "group": "control_change"}, {"time": 2373, "annotation": {"number": 7, "value": 4}, "group": "control_change"}, {"time": 2373, "annotation": {"number": 7, "value": 3}, "group": "control_change"}, {"time": 2374, "annotation": {"number": 7, "value": 1}, "group": "control_change"}, {"time": 2374, "annotation": {"number": 7, "value": 0}, "group": "control_change"}]}, {"program": 0, "is_drum": false, "name": "PIANO", "notes": [{"time": 50, "pitch": 50, "duration": 30, "velocity": 99}, {"time": 50, "pitch": 62, "duration": 37, "velocity": 85}, {"time": 50, "pitch": 66, "duration": 39, "velocity": 100}, {"time": 50, "pitch": 69, "duration": 40, "velocity": 82}, {"time": 98, "pitch": 49, "duration": 28, "velocity": 77}, {"time": 98, "pitch": 61, "duration": 28, "velocity": 96}, {"time": 98, "pitch": 66, "duration": 27, "velocity": 90}, {"time": 98, "pitch": 69, "duration": 28, "velocity": 79}, {"time": 146, "pitch": 47, "duration": 25, "velocity": 66}, {"time": 146, "pitch": 59, "duration": 26, "velocity": 92}, {"time": 146, "pitch": 62, "duration": 26, "velocity": 92}, {"time": 146, "pitch": 66, "duration": 27, "velocity": 90}, {"time": 194, "pitch": 43, "duration": 45, "velocity": 67}, {"time": 194, "pitch": 55, "duration": 47, "velocity": 79}, {"time": 194, "pitch": 59, "duration": 47, "velocity": 92}, {"time": 194, "pitch": 62, "duration": 47, "velocity": 85}, {"time": 242, "pitch": 50, "duration": 30, "velocity": 99}, {"time": 242, "pitch": 62, "duration": 37, "velocity": 85}, {"time": 242, "pitch": 66, "duration": 39, "velocity": 100}, {"time": 242, "pitch": 69, "duration": 40, "velocity": 82}, {"time": 290, "pitch": 49, "duration": 28, "velocity": 77}, {"time": 290, "pitch": 61, "duration": 28, "velocity": 96}, {"time": 290, "pitch": 66, "duration": 27, "velocity": 90}, {"time": 290, "pitch": 69, "duration": 28, "velocity": 79}, {"time": 338, "pitch": 47, "duration": 25, "velocity": 66}, {"time": 338, "pitch": 59, "duration": 26, "velocity": 92}, {"time": 338, "pitch": 62, "duration": 26, "velocity": 92}, {"time": 338, "pitch": 66, "duration": 27, "velocity": 90}, {"time": 386, "pitch": 43, "duration": 45, "velocity": 67}, {"time": 386, "pitch": 55, "duration": 47, "velocity": 79}, {"time": 386, "pitch": 59, "duration": 47, "velocity": 92}, {"time": 386, "pitch": 62, "duration": 47, "velocity": 85}, {"time": 434, "pitch": 50, "duration": 30, "velocity": 99}, {"time": 434, "pitch": 62, "duration": 37, "velocity": 85}, {"time": 434, "pitch": 66, "duration": 39, "velocity": 100}, {"time": 434, "pitch": 69, "duration": 40, "velocity": 82}, {"time": 482, "pitch": 49, "duration": 28, "velocity": 77}, {"time": 482, "pitch": 61, "duration": 28, "velocity": 96}, {"time": 482, "pitch": 66, "duration": 27, "velocity": 90}, {"time": 482, "pitch": 69, "duration": 28, "velocity": 79}, {"time": 530, "pitch": 47, "duration": 25, "velocity": 66}, {"time": 530, "pitch": 59, "duration": 26, "velocity": 92}, {"time": 530, "pitch": 62, "duration": 26, "velocity": 92}, {"time": 530, "pitch": 66, "duration": 27, "velocity": 90}, {"time": 578, "pitch": 43, "duration": 45, "velocity": 67}, {"time": 578, "pitch": 55, "duration": 47, "velocity": 79}, {"time": 578, "pitch": 59, "duration": 47, "velocity": 92}, {"time": 578, "pitch": 62, "duration": 47, "velocity": 85}, {"time": 626, "pitch": 50, "duration": 30, "velocity": 99}, {"time": 626, "pitch": 62, "duration": 37, "velocity": 85}, {"time": 626, "pitch": 66, "duration": 39, "velocity": 100}, {"time": 626, "pitch": 69, "duration": 40, "velocity": 82}, {"time": 674, "pitch": 49, "duration": 28, "velocity": 77}, {"time": 674, "pitch": 61, "duration": 28, "velocity": 96}, {"time": 674, "pitch": 66, "duration": 27, "velocity": 90}, {"time": 674, "pitch": 69, "duration": 28, "velocity": 79}, {"time": 722, "pitch": 47, "duration": 25, "velocity": 66}, {"time": 722, "pitch": 59, "duration": 26, "velocity": 92}, {"time": 722, "pitch": 62, "duration": 26, "velocity": 92}, {"time": 722, "pitch": 66, "duration": 27, "velocity": 90}, {"time": 770, "pitch": 43, "duration": 45, "velocity": 67}, {"time": 770, "pitch": 55, "duration": 47, "velocity": 79}, {"time": 770, "pitch": 59, "duration": 47, "velocity": 92}, {"time": 770, "pitch": 62, "duration": 47, "velocity": 85}, {"time": 818, "pitch": 50, "duration": 30, "velocity": 99}, {"time": 818, "pitch": 62, "duration": 37, "velocity": 85}, {"time": 818, "pitch": 66, "duration": 39, "velocity": 100}, {"time": 818, "pitch": 69, "duration": 37, "velocity": 82}, {"time": 818, "pitch": 78, "duration": 22, "velocity": 122}, {"time": 836, "pitch": 69, "duration": 19, "velocity": 96}, {"time": 854, "pitch": 78, "duration": 12, "velocity": 117}, {"time": 866, "pitch": 49, "duration": 28, "velocity": 77}, {"time": 866, "pitch": 61, "duration": 28, "velocity": 96}, {"time": 866, "pitch": 66, "duration": 27, "velocity": 90}, {"time": 866, "pitch": 69, "duration": 28, "velocity": 79}, {"time": 866, "pitch": 73, "duration": 20, "velocity": 100}, {"time": 884, "pitch": 73, "duration": 2, "velocity": 102}, {"time": 896, "pitch": 74, "duration": 5, "velocity": 92}, {"time": 902, "pitch": 70, "duration": 12, "velocity": 99}, {"time": 914, "pitch": 47, "duration": 25, "velocity": 66}, {"time": 914, "pitch": 59, "duration": 26, "velocity": 92}, {"time": 914, "pitch": 62, "duration": 26, "velocity": 92}, {"time": 914, "pitch": 66, "duration": 27, "velocity": 90}, {"time": 914, "pitch": 71, "duration": 24, "velocity": 93}, {"time": 932, "pitch": 78, "duration": 24, "velocity": 127}, {"time": 950, "pitch": 74, "duration": 15, "velocity": 122}, {"time": 962, "pitch": 43, "duration": 45, "velocity": 67}, {"time": 962, "pitch": 55, "duration": 47, "velocity": 79}, {"time": 962, "pitch": 59, "duration": 47, "velocity": 92}, {"time": 962, "pitch": 62, "duration": 47, "velocity": 85}, {"time": 962, "pitch": 67, "duration": 21, "velocity": 107}, {"time": 980, "pitch": 81, "duration": 28, "velocity": 117}, {"time": 998, "pitch": 78, "duration": 14, "velocity": 127}, {"time": 1010, "pitch": 50, "duration": 30, "velocity": 99}, {"time": 1010, "pitch": 62, "duration": 37, "velocity": 85}, {"time": 1010, "pitch": 66, "duration": 39, "velocity": 100}, {"time": 1010, "pitch": 69, "duration": 40, "velocity": 82}, {"time": 1058, "pitch": 49, "duration": 28, "velocity": 77}, {"time": 1058, "pitch": 61, "duration": 28, "velocity": 96}, {"time": 1058, "pitch": 66, "duration": 27, "velocity": 90}, {"time": 1058, "pitch": 69, "duration": 28, "velocity": 79}, {"time": 1106, "pitch": 47, "duration": 25, "velocity": 66}, {"time": 1106, "pitch": 59, "duration": 26, "velocity": 92}, {"time": 1106, "pitch": 62, "duration": 26, "velocity": 92}, {"time": 1106, "pitch": 66, "duration": 27, "velocity": 90}, {"time": 1154, "pitch": 43, "duration": 45, "velocity": 67}, {"time": 1154, "pitch": 55, "duration": 47, "velocity": 79}, {"time": 1154, "pitch": 59, "duration": 47, "velocity": 92}, {"time": 1154, "pitch": 62, "duration": 47, "velocity": 85}, {"time": 1202, "pitch": 50, "duration": 30, "velocity": 99}, {"time": 1202, "pitch": 62, "duration": 37, "velocity": 85}, {"time": 1202, "pitch": 66, "duration": 39, "velocity": 100}, {"time": 1202, "pitch": 69, "duration": 40, "velocity": 82}, {"time": 1250, "pitch": 49, "duration": 28, "velocity": 77}, {"time": 1250, "pitch": 61, "duration": 28, "velocity": 96}, {"time": 1250, "pitch": 66, "duration": 27, "velocity": 90}, {"time": 1250, "pitch": 69, "duration": 28, "velocity": 79}, {"time": 1298, "pitch": 47, "duration": 25, "velocity": 66}, {"time": 1298, "pitch": 59, "duration": 26, "velocity": 92}, {"time": 1298, "pitch": 62, "duration": 26, "velocity": 92}, {"time": 1298, "pitch": 66, "duration": 27, "velocity": 90}, {"time": 1346, "pitch": 43, "duration": 45, "velocity": 67}, {"time": 1346, "pitch": 55, "duration": 47, "velocity": 79}, {"time": 1346, "pitch": 59, "duration": 47, "velocity": 92}, {"time": 1346, "pitch": 62, "duration": 47, "velocity": 85}, {"time": 1394, "pitch": 50, "duration": 30, "velocity": 99}, {"time": 1394, "pitch": 62, "duration": 37, "velocity": 85}, {"time": 1394, "pitch": 66, "duration": 39, "velocity": 100}, {"time": 1394, "pitch": 69, "duration": 40, "velocity": 82}, {"time": 1442, "pitch": 49, "duration": 28, "velocity": 77}, {"time": 1442, "pitch": 61, "duration": 28, "velocity": 96}, {"time": 1442, "pitch": 66, "duration": 27, "velocity": 90}, {"time": 1442, "pitch": 69, "duration": 28, "velocity": 79}, {"time": 1490, "pitch": 47, "duration": 25, "velocity": 66}, {"time": 1490, "pitch": 59, "duration": 26, "velocity": 92}, {"time": 1490, "pitch": 62, "duration": 26, "velocity": 92}, {"time": 1490, "pitch": 66, "duration": 27, "velocity": 90}, {"time": 1538, "pitch": 43, "duration": 45, "velocity": 67}, {"time": 1538, "pitch": 55, "duration": 47, "velocity": 79}, {"time": 1538, "pitch": 59, "duration": 47, "velocity": 92}, {"time": 1538, "pitch": 62, "duration": 47, "velocity": 85}, {"time": 1586, "pitch": 50, "duration": 30, "velocity": 99}, {"time": 1586, "pitch": 62, "duration": 37, "velocity": 85}, {"time": 1586, "pitch": 66, "duration": 39, "velocity": 100}, {"time": 1586, "pitch": 69, "duration": 40, "velocity": 82}, {"time": 1634, "pitch": 49, "duration": 28, "velocity": 77}, {"time": 1634, "pitch": 61, "duration": 28, "velocity": 96}, {"time": 1634, "pitch": 66, "duration": 27, "velocity": 90}, {"time": 1634, "pitch": 69, "duration": 28, "velocity": 79}, {"time": 1682, "pitch": 47, "duration": 25, "velocity": 66}, {"time": 1682, "pitch": 59, "duration": 26, "velocity": 92}, {"time": 1682, "pitch": 62, "duration": 26, "velocity": 92}, {"time": 1682, "pitch": 66, "duration": 27, "velocity": 90}, {"time": 1730, "pitch": 43, "duration": 45, "velocity": 67}, {"time": 1730, "pitch": 55, "duration": 47, "velocity": 79}, {"time": 1730, "pitch": 59, "duration": 47, "velocity": 92}, {"time": 1730, "pitch": 62, "duration": 47, "velocity": 85}, {"time": 1778, "pitch": 50, "duration": 30, "velocity": 99}, {"time": 1778, "pitch": 62, "duration": 37, "velocity": 85}, {"time": 1778, "pitch": 66, "duration": 39, "velocity": 100}, {"time": 1778, "pitch": 69, "duration": 40, "velocity": 82}, {"time": 1826, "pitch": 49, "duration": 28, "velocity": 77}, {"time": 1826, "pitch": 61, "duration": 28, "velocity": 96}, {"time": 1826, "pitch": 66, "duration": 27, "velocity": 90}, {"time": 1826, "pitch": 69, "duration": 28, "velocity": 79}, {"time": 1874, "pitch": 47, "duration": 25, "velocity": 66}, {"time": 1874, "pitch": 59, "duration": 26, "velocity": 92}, {"time": 1874, "pitch": 62, "duration": 26, "velocity": 92}, {"time": 1874, "pitch": 66, "duration": 27, "velocity": 90}, {"time": 1922, "pitch": 43, "duration": 45, "velocity": 67}, {"time": 1922, "pitch": 55, "duration": 47, "velocity": 79}, {"time": 1922, "pitch": 59, "duration": 47, "velocity": 92}, {"time": 1922, "pitch": 62, "duration": 47, "velocity": 85}, {"time": 1970, "pitch": 50, "duration": 30, "velocity": 99}, {"time": 1970, "pitch": 62, "duration": 37, "velocity": 85}, {"time": 1970, "pitch": 66, "duration": 39, "velocity": 100}, {"time": 1970, "pitch": 69, "duration": 40, "velocity": 82}, {"time": 2018, "pitch": 49, "duration": 28, "velocity": 77}, {"time": 2018, "pitch": 61, "duration": 28, "velocity": 96}, {"time": 2018, "pitch": 66, "duration": 27, "velocity": 90}, {"time": 2018, "pitch": 69, "duration": 28, "velocity": 79}, {"time": 2066, "pitch": 47, "duration": 25, "velocity": 66}, {"time": 2066, "pitch": 59, "duration": 26, "velocity": 92}, {"time": 2066, "pitch": 62, "duration": 26, "velocity": 92}, {"time": 2066, "pitch": 66, "duration": 27, "velocity": 90}, {"time": 2114, "pitch": 43, "duration": 45, "velocity": 67}, {"time": 2114, "pitch": 55, "duration": 47, "velocity": 79}, {"time": 2114, "pitch": 59, "duration": 47, "velocity": 92}, {"time": 2114, "pitch": 62, "duration": 47, "velocity": 85}, {"time": 2162, "pitch": 50, "duration": 30, "velocity": 99}, {"time": 2162, "pitch": 62, "duration": 37, "velocity": 85}, {"time": 2162, "pitch": 66, "duration": 39, "velocity": 100}, {"time": 2162, "pitch": 69, "duration": 40, "velocity": 82}, {"time": 2210, "pitch": 49, "duration": 28, "velocity": 77}, {"time": 2210, "pitch": 61, "duration": 28, "velocity": 96}, {"time": 2210, "pitch": 66, "duration": 27, "velocity": 90}, {"time": 2210, "pitch": 69, "duration": 28, "velocity": 79}, {"time": 2258, "pitch": 47, "duration": 25, "velocity": 66}, {"time": 2258, "pitch": 59, "duration": 26, "velocity": 92}, {"time": 2258, "pitch": 62, "duration": 26, "velocity": 92}, {"time": 2258, "pitch": 66, "duration": 27, "velocity": 90}, {"time": 2306, "pitch": 43, "duration": 45, "velocity": 67}, {"time": 2306, "pitch": 55, "duration": 47, "velocity": 79}, {"time": 2306, "pitch": 59, "duration": 47, "velocity": 92}, {"time": 2306, "pitch": 62, "duration": 47, "velocity": 85}, {"time": 2354, "pitch": 50, "duration": 30, "velocity": 99}, {"time": 2354, "pitch": 62, "duration": 37, "velocity": 85}, {"time": 2354, "pitch": 66, "duration": 39, "velocity": 100}, {"time": 2354, "pitch": 69, "duration": 40, "velocity": 82}], "annotations": [{"time": 0, "annotation": {"number": 7, "value": 101}, "group": "control_change"}, {"time": 51, "annotation": {"number": 64, "value": 127}, "group": "control_change"}, {"time": 97, "annotation": {"number": 64, "value": 0}, "group": "control_change"}, {"time": 100, "annotation": {"number": 64, "value": 127}, "group": "control_change"}, {"time": 147, "annotation": {"number": 64, "value": 0}, "group": "control_change"}, {"time": 153, "annotation": {"number": 64, "value": 127}, "group": "control_change"}, {"time": 194, "annotation": {"number": 64, "value": 0}, "group": "control_change"}, {"time": 200, "annotation": {"number": 64, "value": 127}, "group": "control_change"}, {"time": 243, "annotation": {"number": 64, "value": 0}, "group": "control_change"}, {"time": 243, "annotation": {"number": 64, "value": 127}, "group": "control_change"}, {"time": 289, "annotation": {"number": 64, "value": 0}, "group": "control_change"}, {"time": 292, "annotation": {"number": 64, "value": 127}, "group": "control_change"}, {"time": 339, "annotation": {"number": 64, "value": 0}, "group": "control_change"}, {"time": 345, "annotation": {"number": 64, "value": 127}, "group": "control_change"}, {"time": 386, "annotation": {"number": 64, "value": 0}, "group": "control_change"}, {"time": 392, "annotation": {"number": 64, "value": 127}, "group": "control_change"}, {"time": 435, "annotation": {"number": 64, "value": 0}, "group": "control_change"}, {"time": 435, "annotation": {"number": 64, "value": 127}, "group": "control_change"}, {"time": 481, "annotation": {"number": 64, "value": 0}, "group": "control_change"}, {"time": 484, "annotation": {"number": 64, "value": 127}, "group": "control_change"}, {"time": 531, "annotation": {"number": 64, "value": 0}, "group": "control_change"}, {"time": 537, "annotation": {"number": 64, "value": 127}, "group": "control_change"}, {"time": 578, "annotation": {"number": 64, "value": 0}, "group": "control_change"}, {"time": 584, "annotation": {"number": 64, "value": 127}, "group": "control_change"}, {"time": 627, "annotation": {"number": 64, "value": 0}, "group": "control_change"}, {"time": 627, "annotation": {"number": 64, "value": 127}, "group": "control_change"}, {"time": 673, "annotation": {"number": 64, "value": 0}, "group": "control_change"}, {"time": 676, "annotation": {"number": 64, "value": 127}, "group": "control_change"}, {"time": 723, "annotation": {"number": 64, "value": 0}, "group": "control_change"}, {"time": 729, "annotation": {"number": 64, "value": 127}, "group": "control_change"}, {"time": 770, "annotation": {"number": 64, "value": 0}, "group": "control_change"}, {"time": 776, "annotation": {"number": 64, "value": 127}, "group": "control_change"}, {"time": 819, "annotation": {"number": 64, "value": 0}, "group": "control_change"}, {"time": 819, "annotation": {"number": 64, "value": 127}, "group": "control_change"}, {"time": 865, "annotation": {"number": 64, "value": 0}, "group": "control_change"}, {"time": 868, "annotation": {"number": 64, "value": 127}, "group": "control_change"}, {"time": 915, "annotation": {"number": 64, "value": 0}, "group": "control_change"}, {"time": 921, "annotation": {"number": 64, "value": 127}, "group": "control_change"}, {"time": 962, "annotation": {"number": 64, "value": 0}, "group": "control_change"}, {"time": 968, "annotation": {"number": 64, "value": 127}, "group": "control_change"}, {"time": 1011, "annotation": {"number": 64, "value": 0}, "group": "control_change"}, {"time": 1011, "annotation": {"number": 64, "value": 127}, "group": "control_change"}, {"time": 1057, "annotation": {"number": 64, "value": 0}, "group": "control_change"}, {"time": 1060, "annotation": {"number": 64, "value": 127}, "group": "control_change"}, {"time": 1107, "annotation": {"number": 64, "value": 0}, "group": "control_change"}, {"time": 1113, "annotation": {"number": 64, "value": 127}, "group": "control_change"}, {"time": 1154, "annotation": {"number": 64, "value": 0}, "group": "control_change"}, {"time": 1160, "annotation": {"number": 64, "value": 127}, "group": "control_change"}, {"time": 1203, "annotation": {"number": 64, "value": 0}, "group": "control_change"}, {"time": 1203, "annotation": {"number": 64, "value": 127}, "group": "control_change"}, {"time": 1249, "annotation": {"number": 64, "value": 0}, "group": "control_change"}, {"time": 1252, "annotation": {"number": 64, "value": 127}, "group": "control_change"}, {"time": 1299, "annotation": {"number": 64, "value": 0}, "group": "control_change"}, {"time": 1305, "annotation": {"number": 64, "value": 127}, "group": "control_change"}, {"time": 1346, "annotation": {"number": 64, "value": 0}, "group": "control_change"}, {"time": 1352, "annotation": {"number": 64, "value": 127}, "group": "control_change"}, {"time": 1395, "annotation": {"number": 64, "value": 0}, "group": "control_change"}, {"time": 1395, "annotation": {"number": 64, "value": 127}, "group": "control_change"}, {"time": 1441, "annotation": {"number": 64, "value": 0}, "group": "control_change"}, {"time": 1444, "annotation": {"number": 64, "value": 127}, "group": "control_change"}, {"time": 1491, "annotation": {"number": 64, "value": 0}, "group": "control_change"}, {"time": 1497, "annotation": {"number": 64, "value": 127}, "group": "control_change"}, {"time": 1538, "annotation": {"number": 64, "value": 0}, "group": "control_change"}, {"time": 1544, "annotation": {"number": 64, "value": 127}, "group": "control_change"}, {"time": 1587, "annotation": {"number": 64, "value": 0}, "group": "control_change"}, {"time": 1587, "annotation": {"number": 64, "value": 127}, "group": "control_change"}, {"time": 1633, "annotation": {"number": 64, "value": 0}, "group": "control_change"}, {"time": 1636, "annotation": {"number": 64, "value": 127}, "group": "control_change"}, {"time": 1683, "annotation": {"number": 64, "value": 0}, "group": "control_change"}, {"time": 1689, "annotation": {"number": 64, "value": 127}, "group": "control_change"}, {"time": 1730, "annotation": {"number": 64, "value": 0}, "group": "control_change"}, {"time": 1736, "annotation": {"number": 64, "value": 127}, "group": "control_change"}, {"time": 1779, "annotation": {"number": 64, "value": 0}, "group": "control_change"}, {"time": 1779, "annotation": {"number": 64, "value": 127}, "group": "control_change"}, {"time": 1825, "annotation": {"number": 64, "value": 0}, "group": "control_change"}, {"time": 1828, "annotation": {"number": 64, "value": 127}, "group": "control_change"}, {"time": 1875, "annotation": {"number": 64, "value": 0}, "group": "control_change"}, {"time": 1881, "annotation": {"number": 64, "value": 127}, "group": "control_change"}, {"time": 1922, "annotation": {"number": 64, "value": 0}, "group": "control_change"}, {"time": 1928, "annotation": {"number": 64, "value": 127}, "group": "control_change"}, {"time": 1971, "annotation": {"number": 64, "value": 0}, "group": "control_change"}, {"time": 1971, "annotation": {"number": 64, "value": 127}, "group": "control_change"}, {"time": 2017, "annotation": {"number": 64, "value": 0}, "group": "control_change"}, {"time": 2020, "annotation": {"number": 64, "value": 127}, "group": "control_change"}, {"time": 2067, "annotation": {"number": 64, "value": 0}, "group": "control_change"}, {"time": 2073, "annotation": {"number": 64, "value": 127}, "group": "control_change"}, {"time": 2114, "annotation": {"number": 64, "value": 0}, "group": "control_change"}, {"time": 2120, "annotation": {"number": 64, "value": 127}, "group": "control_change"}, {"time": 2163, "annotation": {"number": 64, "value": 0}, "group": "control_change"}, {"time": 2163, "annotation": {"number": 64, "value": 127}, "group": "control_change"}, {"time": 2209, "annotation": {"number": 64, "value": 0}, "group": "control_change"}, {"time": 2212, "annotation": {"number": 64, "value": 127}, "group": "control_change"}, {"time": 2259, "annotation": {"number": 64, "value": 0}, "group": "control_change"}, {"time": 2265, "annotation": {"number": 64, "value": 127}, "group": "control_change"}, {"time": 2306, "annotation": {"number": 64, "value": 0}, "group": "control_change"}, {"time": 2312, "annotation": {"number": 64, "value": 127}, "group": "control_change"}, {"time": 2335, "annotation": {"number": 7, "value": 101}, "group": "control_change"}, {"time": 2335, "annotation": {"number": 7, "value": 100}, "group": "control_change"}, {"time": 2336, "annotation": {"number": 7, "value": 98}, "group": "control_change"}, {"time": 2336, "annotation": {"number": 7, "value": 97}, "group": "control_change"}, {"time": 2337, "annotation": {"number": 7, "value": 96}, "group": "control_change"}, {"time": 2337, "annotation": {"number": 7, "value": 95}, "group": "control_change"}, {"time": 2338, "annotation": {"number": 7, "value": 93}, "group": "control_change"}, {"time": 2338, "annotation": {"number": 7, "value": 92}, "group": "control_change"}, {"time": 2339, "annotation": {"number": 7, "value": 91}, "group": "control_change"}, {"time": 2339, "annotation": {"number": 7, "value": 90}, "group": "control_change"}, {"time": 2340, "annotation": {"number": 7, "value": 88}, "group": "control_change"}, {"time": 2340, "annotation": {"number": 7, "value": 87}, "group": "control_change"}, {"time": 2341, "annotation": {"number": 7, "value": 86}, "group": "control_change"}, {"time": 2341, "annotation": {"number": 7, "value": 84}, "group": "control_change"}, {"time": 2342, "annotation": {"number": 7, "value": 83}, "group": "control_change"}, {"time": 2342, "annotation": {"number": 7, "value": 82}, "group": "control_change"}, {"time": 2343, "annotation": {"number": 7, "value": 81}, "group": "control_change"}, {"time": 2343, "annotation": {"number": 7, "value": 79}, "group": "control_change"}, {"time": 2344, "annotation": {"number": 7, "value": 78}, "group": "control_change"}, {"time": 2344, "annotation": {"number": 7, "value": 77}, "group": "control_change"}, {"time": 2345, "annotation": {"number": 7, "value": 76}, "group": "control_change"}, {"time": 2345, "annotation": {"number": 7, "value": 74}, "group": "control_change"}, {"time": 2346, "annotation": {"number": 7, "value": 73}, "group": "control_change"}, {"time": 2346, "annotation": {"number": 7, "value": 72}, "group": "control_change"}, {"time": 2347, "annotation": {"number": 7, "value": 70}, "group": "control_change"}, {"time": 2347, "annotation": {"number": 7, "value": 69}, "group": "control_change"}, {"time": 2348, "annotation": {"number": 7, "value": 68}, "group": "control_change"}, {"time": 2348, "annotation": {"number": 7, "value": 67}, "group": "control_change"}, {"time": 2349, "annotation": {"number": 7, "value": 65}, "group": "control_change"}, {"time": 2349, "annotation": {"number": 7, "value": 64}, "group": "control_change"}, {"time": 2350, "annotation": {"number": 7, "value": 63}, "group": "control_change"}, {"time": 2350, "annotation": {"number": 7, "value": 62}, "group": "control_change"}, {"time": 2351, "annotation": {"number": 7, "value": 60}, "group": "control_change"}, {"time": 2351, "annotation": {"number": 7, "value": 59}, "group": "control_change"}, {"time": 2352, "annotation": {"number": 7, "value": 58}, "group": "control_change"}, {"time": 2352, "annotation": {"number": 7, "value": 56}, "group": "control_change"}, {"time": 2353, "annotation": {"number": 7, "value": 55}, "group": "control_change"}, {"time": 2353, "annotation": {"number": 7, "value": 54}, "group": "control_change"}, {"time": 2354, "annotation": {"number": 7, "value": 53}, "group": "control_change"}, {"time": 2354, "annotation": {"number": 7, "value": 51}, "group": "control_change"}, {"time": 2355, "annotation": {"number": 7, "value": 50}, "group": "control_change"}, {"time": 2355, "annotation": {"number": 64, "value": 0}, "group": "control_change"}, {"time": 2355, "annotation": {"number": 7, "value": 49}, "group": "control_change"}, {"time": 2355, "annotation": {"number": 64, "value": 127}, "group": "control_change"}, {"time": 2356, "annotation": {"number": 7, "value": 48}, "group": "control_change"}, {"time": 2356, "annotation": {"number": 7, "value": 46}, "group": "control_change"}, {"time": 2357, "annotation": {"number": 7, "value": 45}, "group": "control_change"}, {"time": 2357, "annotation": {"number": 7, "value": 44}, "group": "control_change"}, {"time": 2358, "annotation": {"number": 7, "value": 42}, "group": "control_change"}, {"time": 2358, "annotation": {"number": 7, "value": 41}, "group": "control_change"}, {"time": 2359, "annotation": {"number": 7, "value": 40}, "group": "control_change"}, {"time": 2359, "annotation": {"number": 7, "value": 39}, "group": "control_change"}, {"time": 2360, "annotation": {"number": 7, "value": 37}, "group": "control_change"}, {"time": 2360, "annotation": {"number": 7, "value": 36}, "group": "control_change"}, {"time": 2361, "annotation": {"number": 7, "value": 35}, "group": "control_change"}, {"time": 2361, "annotation": {"number": 7, "value": 34}, "group": "control_change"}, {"time": 2362, "annotation": {"number": 7, "value": 32}, "group": "control_change"}, {"time": 2362, "annotation": {"number": 7, "value": 31}, "group": "control_change"}, {"time": 2363, "annotation": {"number": 7, "value": 30}, "group": "control_change"}, {"time": 2363, "annotation": {"number": 7, "value": 28}, "group": "control_change"}, {"time": 2364, "annotation": {"number": 7, "value": 27}, "group": "control_change"}, {"time": 2364, "annotation": {"number": 7, "value": 26}, "group": "control_change"}, {"time": 2365, "annotation": {"number": 7, "value": 25}, "group": "control_change"}, {"time": 2365, "annotation": {"number": 7, "value": 23}, "group": "control_change"}, {"time": 2366, "annotation": {"number": 7, "value": 22}, "group": "control_change"}, {"time": 2366, "annotation": {"number": 7, "value": 21}, "group": "control_change"}, {"time": 2367, "annotation": {"number": 7, "value": 19}, "group": "control_change"}, {"time": 2367, "annotation": {"number": 7, "value": 18}, "group": "control_change"}, {"time": 2368, "annotation": {"number": 7, "value": 17}, "group": "control_change"}, {"time": 2368, "annotation": {"number": 7, "value": 16}, "group": "control_change"}, {"time": 2369, "annotation": {"number": 7, "value": 14}, "group": "control_change"}, {"time": 2369, "annotation": {"number": 7, "value": 13}, "group": "control_change"}, {"time": 2370, "annotation": {"number": 7, "value": 12}, "group": "control_change"}, {"time": 2370, "annotation": {"number": 7, "value": 11}, "group": "control_change"}, {"time": 2371, "annotation": {"number": 7, "value": 9}, "group": "control_change"}, {"time": 2371, "annotation": {"number": 7, "value": 8}, "group": "control_change"}, {"time": 2372, "annotation": {"number": 7, "value": 7}, "group": "control_change"}, {"time": 2372, "annotation": {"number": 7, "value": 5}, "group": "control_change"}, {"time": 2373, "annotation": {"number": 7, "value": 4}, "group": "control_change"}, {"time": 2373, "annotation": {"number": 7, "value": 3}, "group": "control_change"}, {"time": 2374, "annotation": {"number": 7, "value": 2}, "group": "control_change"}, {"time": 2374, "annotation": {"number": 7, "value": 0}, "group": "control_change"}]}]}