{"metadata": {"schema_version": "0.2", "title": "None", "source_filename": "170.mid", "source_format": "midi"}, "resolution": 12, "tempos": [{"time": 0, "qpm": 88.00002346667293}], "time_signatures": [{"time": 0, "numerator": 1, "denominator": 4}], "tracks": [{"program": 0, "is_drum": false, "name": "MELODY", "notes": [{"time": 222, "pitch": 68, "duration": 4, "velocity": 112}, {"time": 228, "pitch": 68, "duration": 5, "velocity": 107}, {"time": 234, "pitch": 66, "duration": 4, "velocity": 100}, {"time": 240, "pitch": 66, "duration": 6, "velocity": 117}, {"time": 246, "pitch": 64, "duration": 4, "velocity": 93}, {"time": 252, "pitch": 64, "duration": 5, "velocity": 96}, {"time": 258, "pitch": 63, "duration": 4, "velocity": 102}, {"time": 264, "pitch": 63, "duration": 6, "velocity": 117}, {"time": 270, "pitch": 64, "duration": 4, "velocity": 92}, {"time": 276, "pitch": 64, "duration": 22, "velocity": 93}, {"time": 294, "pitch": 59, "duration": 4, "velocity": 88}, {"time": 300, "pitch": 59, "duration": 3, "velocity": 86}, {"time": 306, "pitch": 59, "duration": 11, "velocity": 99}, {"time": 318, "pitch": 68, "duration": 26, "velocity": 112}, {"time": 342, "pitch": 59, "duration": 3, "velocity": 83}, {"time": 348, "pitch": 59, "duration": 3, "velocity": 86}, {"time": 354, "pitch": 59, "duration": 10, "velocity": 95}, {"time": 366, "pitch": 66, "duration": 36, "velocity": 112}, {"time": 414, "pitch": 68, "duration": 4, "velocity": 102}, {"time": 420, "pitch": 68, "duration": 5, "velocity": 107}, {"time": 426, "pitch": 66, "duration": 4, "velocity": 112}, {"time": 432, "pitch": 66, "duration": 6, "velocity": 112}, {"time": 438, "pitch": 64, "duration": 4, "velocity": 100}, {"time": 444, "pitch": 64, "duration": 7, "velocity": 100}, {"time": 450, "pitch": 63, "duration": 3, "velocity": 107}, {"time": 456, "pitch": 63, "duration": 5, "velocity": 122}, {"time": 462, "pitch": 64, "duration": 3, "velocity": 96}, {"time": 468, "pitch": 64, "duration": 3, "velocity": 89}, {"time": 471, "pitch": 63, "duration": 3, "velocity": 97}, {"time": 474, "pitch": 61, "duration": 14, "velocity": 97}, {"time": 486, "pitch": 59, "duration": 3, "velocity": 75}, {"time": 492, "pitch": 59, "duration": 3, "velocity": 89}, {"time": 498, "pitch": 59, "duration": 12, "velocity": 97}, {"time": 510, "pitch": 68, "duration": 22, "velocity": 112}, {"time": 534, "pitch": 59, "duration": 4, "velocity": 89}, {"time": 540, "pitch": 59, "duration": 3, "velocity": 97}, {"time": 546, "pitch": 59, "duration": 12, "velocity": 93}, {"time": 558, "pitch": 66, "duration": 39, "velocity": 117}, {"time": 600, "pitch": 61, "duration": 3, "velocity": 112}, {"time": 603, "pitch": 63, "duration": 3, "velocity": 96}, {"time": 606, "pitch": 61, "duration": 4, "velocity": 102}, {"time": 609, "pitch": 63, "duration": 2, "velocity": 107}, {"time": 612, "pitch": 64, "duration": 3, "velocity": 96}, {"time": 615, "pitch": 63, "duration": 2, "velocity": 107}, {"time": 618, "pitch": 64, "duration": 3, "velocity": 93}, {"time": 621, "pitch": 66, "duration": 2, "velocity": 100}, {"time": 624, "pitch": 68, "duration": 3, "velocity": 112}, {"time": 627, "pitch": 69, "duration": 3, "velocity": 71}, {"time": 630, "pitch": 68, "duration": 3, "velocity": 112}, {"time": 633, "pitch": 69, "duration": 4, "velocity": 65}, {"time": 636, "pitch": 68, "duration": 2, "velocity": 117}, {"time": 645, "pitch": 61, "duration": 1, "velocity": 107}, {"time": 648, "pitch": 61, "duration": 2, "velocity": 96}, {"time": 651, "pitch": 63, "duration": 2, "velocity": 99}, {"time": 654, "pitch": 63, "duration": 2, "velocity": 97}, {"time": 657, "pitch": 63, "duration": 2, "velocity": 90}, {"time": 660, "pitch": 64, "duration": 2, "velocity": 96}, {"time": 663, "pitch": 63, "duration": 3, "velocity": 100}, {"time": 666, "pitch": 64, "duration": 2, "velocity": 89}, {"time": 669, "pitch": 66, "duration": 2, "velocity": 89}, {"time": 672, "pitch": 68, "duration": 6, "velocity": 112}, {"time": 675, "pitch": 69, "duration": 3, "velocity": 82}, {"time": 678, "pitch": 68, "duration": 1, "velocity": 122}, {"time": 690, "pitch": 64, "duration": 2, "velocity": 95}, {"time": 693, "pitch": 66, "duration": 3, "velocity": 95}, {"time": 696, "pitch": 68, "duration": 4, "velocity": 122}, {"time": 699, "pitch": 69, "duration": 3, "velocity": 93}, {"time": 702, "pitch": 68, "duration": 6, "velocity": 107}, {"time": 714, "pitch": 64, "duration": 2, "velocity": 95}, {"time": 717, "pitch": 66, "duration": 2, "velocity": 93}, {"time": 720, "pitch": 68, "duration": 4, "velocity": 93}, {"time": 723, "pitch": 69, "duration": 3, "velocity": 85}, {"time": 726, "pitch": 68, "duration": 7, "velocity": 102}, {"time": 732, "pitch": 66, "duration": 2, "velocity": 122}, {"time": 738, "pitch": 64, "duration": 6, "velocity": 93}, {"time": 744, "pitch": 66, "duration": 30, "velocity": 107}, {"time": 792, "pitch": 64, "duration": 3, "velocity": 107}, {"time": 798, "pitch": 64, "duration": 4, "velocity": 112}, {"time": 804, "pitch": 64, "duration": 3, "velocity": 127}, {"time": 810, "pitch": 66, "duration": 4, "velocity": 122}, {"time": 816, "pitch": 66, "duration": 4, "velocity": 122}, {"time": 822, "pitch": 68, "duration": 2, "velocity": 117}, {"time": 828, "pitch": 68, "duration": 11, "velocity": 127}, {"time": 837, "pitch": 71, "duration": 1, "velocity": 99}, {"time": 840, "pitch": 71, "duration": 5, "velocity": 96}, {"time": 846, "pitch": 73, "duration": 4, "velocity": 122}, {"time": 852, "pitch": 73, "duration": 25, "velocity": 127}, {"time": 888, "pitch": 64, "duration": 6, "velocity": 100}, {"time": 894, "pitch": 66, "duration": 1, "velocity": 107}, {"time": 900, "pitch": 66, "duration": 7, "velocity": 122}, {"time": 906, "pitch": 68, "duration": 5, "velocity": 96}, {"time": 912, "pitch": 68, "duration": 6, "velocity": 127}, {"time": 918, "pitch": 71, "duration": 4, "velocity": 102}, {"time": 924, "pitch": 71, "duration": 5, "velocity": 122}, {"time": 933, "pitch": 64, "duration": 2, "velocity": 99}, {"time": 936, "pitch": 68, "duration": 3, "velocity": 112}, {"time": 942, "pitch": 66, "duration": 2, "velocity": 122}, {"time": 948, "pitch": 66, "duration": 24, "velocity": 127}, {"time": 984, "pitch": 64, "duration": 2, "velocity": 107}, {"time": 990, "pitch": 64, "duration": 2, "velocity": 102}, {"time": 996, "pitch": 64, "duration": 6, "velocity": 99}, {"time": 1002, "pitch": 66, "duration": 4, "velocity": 122}, {"time": 1008, "pitch": 66, "duration": 4, "velocity": 127}, {"time": 1014, "pitch": 68, "duration": 3, "velocity": 127}, {"time": 1020, "pitch": 68, "duration": 9, "velocity": 127}, {"time": 1029, "pitch": 71, "duration": 1, "velocity": 99}, {"time": 1032, "pitch": 71, "duration": 5, "velocity": 95}, {"time": 1038, "pitch": 73, "duration": 4, "velocity": 117}, {"time": 1044, "pitch": 73, "duration": 26, "velocity": 122}, {"time": 1080, "pitch": 64, "duration": 6, "velocity": 107}, {"time": 1086, "pitch": 66, "duration": 3, "velocity": 122}, {"time": 1092, "pitch": 66, "duration": 6, "velocity": 127}, {"time": 1098, "pitch": 68, "duration": 4, "velocity": 112}, {"time": 1104, "pitch": 68, "duration": 5, "velocity": 112}, {"time": 1110, "pitch": 71, "duration": 4, "velocity": 117}, {"time": 1116, "pitch": 71, "duration": 6, "velocity": 122}, {"time": 1125, "pitch": 64, "duration": 2, "velocity": 93}, {"time": 1128, "pitch": 68, "duration": 3, "velocity": 127}, {"time": 1134, "pitch": 66, "duration": 2, "velocity": 122}, {"time": 1140, "pitch": 66, "duration": 11, "velocity": 127}, {"time": 1149, "pitch": 64, "duration": 2, "velocity": 89}, {"time": 1152, "pitch": 69, "duration": 4, "velocity": 112}, {"time": 1158, "pitch": 68, "duration": 4, "velocity": 127}, {"time": 1164, "pitch": 66, "duration": 4, "velocity": 127}, {"time": 1170, "pitch": 64, "duration": 6, "velocity": 117}, {"time": 1176, "pitch": 64, "duration": 2, "velocity": 112}, {"time": 1179, "pitch": 71, "duration": 1, "velocity": 99}, {"time": 1182, "pitch": 71, "duration": 2, "velocity": 99}, {"time": 1188, "pitch": 71, "duration": 2, "velocity": 127}, {"time": 1194, "pitch": 71, "duration": 2, "velocity": 127}, {"time": 1200, "pitch": 64, "duration": 5, "velocity": 107}, {"time": 1209, "pitch": 64, "duration": 4, "velocity": 122}, {"time": 1218, "pitch": 61, "duration": 7, "velocity": 127}, {"time": 1245, "pitch": 61, "duration": 2, "velocity": 99}, {"time": 1248, "pitch": 69, "duration": 4, "velocity": 100}, {"time": 1254, "pitch": 68, "duration": 4, "velocity": 127}, {"time": 1260, "pitch": 66, "duration": 6, "velocity": 127}, {"time": 1266, "pitch": 64, "duration": 3, "velocity": 117}, {"time": 1272, "pitch": 64, "duration": 2, "velocity": 117}, {"time": 1275, "pitch": 71, "duration": 2, "velocity": 96}, {"time": 1278, "pitch": 71, "duration": 2, "velocity": 95}, {"time": 1284, "pitch": 71, "duration": 2, "velocity": 127}, {"time": 1290, "pitch": 71, "duration": 2, "velocity": 127}, {"time": 1296, "pitch": 64, "duration": 3, "velocity": 112}, {"time": 1305, "pitch": 64, "duration": 1, "velocity": 92}, {"time": 1308, "pitch": 64, "duration": 4, "velocity": 92}, {"time": 1314, "pitch": 63, "duration": 9, "velocity": 122}, {"time": 1341, "pitch": 64, "duration": 2, "velocity": 95}, {"time": 1344, "pitch": 69, "duration": 5, "velocity": 117}, {"time": 1350, "pitch": 68, "duration": 5, "velocity": 127}, {"time": 1356, "pitch": 66, "duration": 4, "velocity": 127}, {"time": 1362, "pitch": 61, "duration": 4, "velocity": 122}, {"time": 1368, "pitch": 64, "duration": 3, "velocity": 127}, {"time": 1371, "pitch": 71, "duration": 1, "velocity": 100}, {"time": 1374, "pitch": 71, "duration": 2, "velocity": 99}, {"time": 1380, "pitch": 71, "duration": 2, "velocity": 127}, {"time": 1386, "pitch": 71, "duration": 3, "velocity": 127}, {"time": 1392, "pitch": 64, "duration": 4, "velocity": 122}, {"time": 1401, "pitch": 64, "duration": 1, "velocity": 100}, {"time": 1404, "pitch": 64, "duration": 3, "velocity": 100}, {"time": 1410, "pitch": 61, "duration": 6, "velocity": 127}, {"time": 1437, "pitch": 61, "duration": 1, "velocity": 122}, {"time": 1440, "pitch": 69, "duration": 4, "velocity": 112}, {"time": 1446, "pitch": 68, "duration": 4, "velocity": 127}, {"time": 1452, "pitch": 66, "duration": 4, "velocity": 127}, {"time": 1458, "pitch": 64, "duration": 3, "velocity": 122}, {"time": 1464, "pitch": 64, "duration": 2, "velocity": 122}, {"time": 1467, "pitch": 71, "duration": 1, "velocity": 99}, {"time": 1470, "pitch": 71, "duration": 2, "velocity": 100}, {"time": 1476, "pitch": 71, "duration": 3, "velocity": 127}, {"time": 1482, "pitch": 71, "duration": 3, "velocity": 117}, {"time": 1488, "pitch": 64, "duration": 3, "velocity": 112}, {"time": 1497, "pitch": 64, "duration": 1, "velocity": 93}, {"time": 1500, "pitch": 64, "duration": 3, "velocity": 99}, {"time": 1506, "pitch": 63, "duration": 37, "velocity": 127}, {"time": 1566, "pitch": 68, "duration": 4, "velocity": 112}, {"time": 1572, "pitch": 68, "duration": 5, "velocity": 107}, {"time": 1578, "pitch": 66, "duration": 4, "velocity": 100}, {"time": 1584, "pitch": 66, "duration": 6, "velocity": 117}, {"time": 1590, "pitch": 64, "duration": 4, "velocity": 93}, {"time": 1596, "pitch": 64, "duration": 5, "velocity": 96}, {"time": 1602, "pitch": 63, "duration": 4, "velocity": 102}, {"time": 1608, "pitch": 63, "duration": 6, "velocity": 117}, {"time": 1614, "pitch": 64, "duration": 4, "velocity": 92}, {"time": 1620, "pitch": 64, "duration": 15, "velocity": 93}, {"time": 1638, "pitch": 59, "duration": 4, "velocity": 88}, {"time": 1644, "pitch": 59, "duration": 3, "velocity": 86}, {"time": 1650, "pitch": 59, "duration": 11, "velocity": 99}, {"time": 1662, "pitch": 68, "duration": 18, "velocity": 112}, {"time": 1686, "pitch": 59, "duration": 3, "velocity": 83}, {"time": 1692, "pitch": 59, "duration": 3, "velocity": 86}, {"time": 1698, "pitch": 59, "duration": 10, "velocity": 95}, {"time": 1710, "pitch": 66, "duration": 42, "velocity": 112}, {"time": 1758, "pitch": 68, "duration": 4, "velocity": 102}, {"time": 1764, "pitch": 68, "duration": 5, "velocity": 107}, {"time": 1770, "pitch": 66, "duration": 4, "velocity": 112}, {"time": 1776, "pitch": 66, "duration": 6, "velocity": 112}, {"time": 1782, "pitch": 64, "duration": 4, "velocity": 100}, {"time": 1788, "pitch": 64, "duration": 7, "velocity": 100}, {"time": 1794, "pitch": 63, "duration": 3, "velocity": 107}, {"time": 1800, "pitch": 63, "duration": 5, "velocity": 122}, {"time": 1806, "pitch": 64, "duration": 3, "velocity": 96}, {"time": 1812, "pitch": 64, "duration": 3, "velocity": 89}, {"time": 1815, "pitch": 63, "duration": 3, "velocity": 97}, {"time": 1818, "pitch": 61, "duration": 14, "velocity": 97}, {"time": 1830, "pitch": 59, "duration": 3, "velocity": 75}, {"time": 1836, "pitch": 59, "duration": 3, "velocity": 89}, {"time": 1842, "pitch": 59, "duration": 12, "velocity": 97}, {"time": 1854, "pitch": 68, "duration": 22, "velocity": 112}, {"time": 1878, "pitch": 59, "duration": 4, "velocity": 89}, {"time": 1884, "pitch": 59, "duration": 3, "velocity": 97}, {"time": 1890, "pitch": 59, "duration": 12, "velocity": 93}, {"time": 1902, "pitch": 66, "duration": 39, "velocity": 117}, {"time": 1944, "pitch": 61, "duration": 3, "velocity": 112}, {"time": 1947, "pitch": 63, "duration": 3, "velocity": 96}, {"time": 1950, "pitch": 61, "duration": 4, "velocity": 102}, {"time": 1953, "pitch": 63, "duration": 2, "velocity": 107}, {"time": 1956, "pitch": 64, "duration": 3, "velocity": 96}, {"time": 1959, "pitch": 63, "duration": 2, "velocity": 107}, {"time": 1962, "pitch": 64, "duration": 3, "velocity": 93}, {"time": 1965, "pitch": 66, "duration": 2, "velocity": 100}, {"time": 1968, "pitch": 68, "duration": 3, "velocity": 112}, {"time": 1971, "pitch": 69, "duration": 3, "velocity": 71}, {"time": 1974, "pitch": 68, "duration": 3, "velocity": 112}, {"time": 1977, "pitch": 69, "duration": 4, "velocity": 65}, {"time": 1980, "pitch": 68, "duration": 2, "velocity": 117}, {"time": 1989, "pitch": 61, "duration": 1, "velocity": 107}, {"time": 1992, "pitch": 61, "duration": 2, "velocity": 96}, {"time": 1995, "pitch": 63, "duration": 2, "velocity": 99}, {"time": 1998, "pitch": 63, "duration": 2, "velocity": 97}, {"time": 2001, "pitch": 63, "duration": 2, "velocity": 90}, {"time": 2004, "pitch": 64, "duration": 2, "velocity": 96}, {"time": 2007, "pitch": 63, "duration": 3, "velocity": 100}, {"time": 2010, "pitch": 64, "duration": 2, "velocity": 89}, {"time": 2013, "pitch": 66, "duration": 2, "velocity": 89}, {"time": 2016, "pitch": 68, "duration": 4, "velocity": 112}, {"time": 2019, "pitch": 69, "duration": 3, "velocity": 82}, {"time": 2022, "pitch": 68, "duration": 4, "velocity": 122}, {"time": 2034, "pitch": 64, "duration": 2, "velocity": 95}, {"time": 2037, "pitch": 66, "duration": 3, "velocity": 95}, {"time": 2040, "pitch": 68, "duration": 4, "velocity": 122}, {"time": 2043, "pitch": 69, "duration": 3, "velocity": 93}, {"time": 2046, "pitch": 68, "duration": 6, "velocity": 107}, {"time": 2058, "pitch": 64, "duration": 2, "velocity": 95}, {"time": 2061, "pitch": 66, "duration": 2, "velocity": 93}, {"time": 2064, "pitch": 68, "duration": 4, "velocity": 93}, {"time": 2067, "pitch": 69, "duration": 3, "velocity": 85}, {"time": 2070, "pitch": 68, "duration": 7, "velocity": 102}, {"time": 2076, "pitch": 66, "duration": 2, "velocity": 122}, {"time": 2082, "pitch": 64, "duration": 6, "velocity": 93}, {"time": 2088, "pitch": 66, "duration": 30, "velocity": 107}, {"time": 2136, "pitch": 64, "duration": 3, "velocity": 107}, {"time": 2142, "pitch": 64, "duration": 4, "velocity": 112}, {"time": 2148, "pitch": 64, "duration": 3, "velocity": 127}, {"time": 2154, "pitch": 66, "duration": 4, "velocity": 122}, {"time": 2160, "pitch": 66, "duration": 4, "velocity": 122}, {"time": 2166, "pitch": 68, "duration": 2, "velocity": 117}, {"time": 2172, "pitch": 68, "duration": 7, "velocity": 127}, {"time": 2181, "pitch": 71, "duration": 1, "velocity": 99}, {"time": 2184, "pitch": 71, "duration": 5, "velocity": 96}, {"time": 2190, "pitch": 73, "duration": 4, "velocity": 122}, {"time": 2196, "pitch": 73, "duration": 25, "velocity": 127}, {"time": 2232, "pitch": 64, "duration": 3, "velocity": 100}, {"time": 2238, "pitch": 66, "duration": 1, "velocity": 107}, {"time": 2244, "pitch": 66, "duration": 7, "velocity": 122}, {"time": 2250, "pitch": 68, "duration": 5, "velocity": 96}, {"time": 2256, "pitch": 68, "duration": 6, "velocity": 127}, {"time": 2262, "pitch": 71, "duration": 4, "velocity": 102}, {"time": 2268, "pitch": 71, "duration": 5, "velocity": 122}, {"time": 2277, "pitch": 64, "duration": 2, "velocity": 99}, {"time": 2280, "pitch": 68, "duration": 3, "velocity": 112}, {"time": 2286, "pitch": 66, "duration": 2, "velocity": 122}, {"time": 2292, "pitch": 66, "duration": 24, "velocity": 127}, {"time": 2328, "pitch": 64, "duration": 2, "velocity": 107}, {"time": 2334, "pitch": 64, "duration": 2, "velocity": 102}, {"time": 2340, "pitch": 64, "duration": 6, "velocity": 99}, {"time": 2346, "pitch": 66, "duration": 4, "velocity": 122}, {"time": 2352, "pitch": 66, "duration": 4, "velocity": 127}, {"time": 2358, "pitch": 68, "duration": 3, "velocity": 127}, {"time": 2364, "pitch": 68, "duration": 9, "velocity": 127}, {"time": 2373, "pitch": 71, "duration": 1, "velocity": 99}, {"time": 2376, "pitch": 71, "duration": 5, "velocity": 95}, {"time": 2382, "pitch": 73, "duration": 4, "velocity": 117}, {"time": 2388, "pitch": 73, "duration": 26, "velocity": 122}, {"time": 2424, "pitch": 64, "duration": 6, "velocity": 107}, {"time": 2430, "pitch": 66, "duration": 3, "velocity": 122}, {"time": 2436, "pitch": 66, "duration": 6, "velocity": 127}, {"time": 2442, "pitch": 68, "duration": 4, "velocity": 112}, {"time": 2448, "pitch": 68, "duration": 5, "velocity": 112}, {"time": 2454, "pitch": 71, "duration": 4, "velocity": 117}, {"time": 2460, "pitch": 71, "duration": 6, "velocity": 122}, {"time": 2469, "pitch": 64, "duration": 2, "velocity": 93}, {"time": 2472, "pitch": 68, "duration": 3, "velocity": 127}, {"time": 2478, "pitch": 66, "duration": 2, "velocity": 122}, {"time": 2484, "pitch": 66, "duration": 11, "velocity": 127}, {"time": 2493, "pitch": 64, "duration": 2, "velocity": 89}, {"time": 2496, "pitch": 69, "duration": 4, "velocity": 112}, {"time": 2502, "pitch": 68, "duration": 4, "velocity": 127}, {"time": 2508, "pitch": 66, "duration": 4, "velocity": 127}, {"time": 2514, "pitch": 64, "duration": 6, "velocity": 117}, {"time": 2520, "pitch": 64, "duration": 2, "velocity": 112}, {"time": 2523, "pitch": 71, "duration": 1, "velocity": 99}, {"time": 2526, "pitch": 71, "duration": 2, "velocity": 99}, {"time": 2532, "pitch": 71, "duration": 2, "velocity": 127}, {"time": 2538, "pitch": 71, "duration": 2, "velocity": 127}, {"time": 2544, "pitch": 64, "duration": 5, "velocity": 107}, {"time": 2553, "pitch": 64, "duration": 4, "velocity": 122}, {"time": 2562, "pitch": 61, "duration": 7, "velocity": 127}, {"time": 2589, "pitch": 61, "duration": 2, "velocity": 99}, {"time": 2592, "pitch": 69, "duration": 4, "velocity": 100}, {"time": 2598, "pitch": 68, "duration": 4, "velocity": 127}, {"time": 2604, "pitch": 66, "duration": 6, "velocity": 127}, {"time": 2610, "pitch": 64, "duration": 3, "velocity": 117}, {"time": 2616, "pitch": 64, "duration": 2, "velocity": 117}, {"time": 2619, "pitch": 71, "duration": 2, "velocity": 96}, {"time": 2622, "pitch": 71, "duration": 2, "velocity": 95}, {"time": 2628, "pitch": 71, "duration": 2, "velocity": 127}, {"time": 2634, "pitch": 71, "duration": 2, "velocity": 127}, {"time": 2640, "pitch": 64, "duration": 3, "velocity": 112}, {"time": 2649, "pitch": 64, "duration": 1, "velocity": 92}, {"time": 2652, "pitch": 64, "duration": 4, "velocity": 92}, {"time": 2658, "pitch": 63, "duration": 9, "velocity": 122}, {"time": 2685, "pitch": 64, "duration": 2, "velocity": 95}, {"time": 2688, "pitch": 69, "duration": 5, "velocity": 117}, {"time": 2694, "pitch": 68, "duration": 5, "velocity": 127}, {"time": 2700, "pitch": 66, "duration": 4, "velocity": 127}, {"time": 2706, "pitch": 61, "duration": 4, "velocity": 122}, {"time": 2712, "pitch": 64, "duration": 3, "velocity": 127}, {"time": 2715, "pitch": 71, "duration": 1, "velocity": 100}, {"time": 2718, "pitch": 71, "duration": 2, "velocity": 99}, {"time": 2724, "pitch": 71, "duration": 2, "velocity": 127}, {"time": 2730, "pitch": 71, "duration": 3, "velocity": 127}, {"time": 2736, "pitch": 64, "duration": 4, "velocity": 122}, {"time": 2745, "pitch": 64, "duration": 1, "velocity": 100}, {"time": 2748, "pitch": 64, "duration": 3, "velocity": 100}, {"time": 2754, "pitch": 61, "duration": 6, "velocity": 127}, {"time": 2781, "pitch": 61, "duration": 1, "velocity": 122}, {"time": 2784, "pitch": 69, "duration": 4, "velocity": 112}, {"time": 2790, "pitch": 68, "duration": 4, "velocity": 127}, {"time": 2796, "pitch": 66, "duration": 4, "velocity": 127}, {"time": 2802, "pitch": 64, "duration": 3, "velocity": 122}, {"time": 2808, "pitch": 64, "duration": 2, "velocity": 122}, {"time": 2811, "pitch": 71, "duration": 1, "velocity": 99}, {"time": 2814, "pitch": 71, "duration": 2, "velocity": 100}, {"time": 2820, "pitch": 71, "duration": 3, "velocity": 127}, {"time": 2826, "pitch": 71, "duration": 3, "velocity": 117}, {"time": 2832, "pitch": 64, "duration": 3, "velocity": 112}, {"time": 2841, "pitch": 64, "duration": 1, "velocity": 93}, {"time": 2844, "pitch": 64, "duration": 3, "velocity": 99}, {"time": 2850, "pitch": 63, "duration": 30, "velocity": 127}, {"time": 2886, "pitch": 63, "duration": 6, "velocity": 112}, {"time": 2892, "pitch": 64, "duration": 3, "velocity": 95}, {"time": 2898, "pitch": 61, "duration": 7, "velocity": 112}, {"time": 2916, "pitch": 64, "duration": 4, "velocity": 127}, {"time": 2922, "pitch": 63, "duration": 10, "velocity": 112}, {"time": 2934, "pitch": 59, "duration": 12, "velocity": 117}, {"time": 2946, "pitch": 63, "duration": 11, "velocity": 117}, {"time": 2958, "pitch": 64, "duration": 3, "velocity": 99}, {"time": 2988, "pitch": 64, "duration": 3, "velocity": 107}, {"time": 2994, "pitch": 63, "duration": 12, "velocity": 117}, {"time": 3006, "pitch": 59, "duration": 5, "velocity": 107}, {"time": 3018, "pitch": 54, "duration": 9, "velocity": 89}, {"time": 3030, "pitch": 59, "duration": 12, "velocity": 93}, {"time": 3042, "pitch": 56, "duration": 32, "velocity": 97}, {"time": 3078, "pitch": 68, "duration": 6, "velocity": 122}, {"time": 3084, "pitch": 66, "duration": 6, "velocity": 99}, {"time": 3090, "pitch": 64, "duration": 9, "velocity": 96}, {"time": 3108, "pitch": 64, "duration": 2, "velocity": 97}, {"time": 3114, "pitch": 63, "duration": 11, "velocity": 117}, {"time": 3126, "pitch": 59, "duration": 10, "velocity": 97}, {"time": 3138, "pitch": 66, "duration": 12, "velocity": 112}, {"time": 3150, "pitch": 64, "duration": 8, "velocity": 97}, {"time": 3174, "pitch": 64, "duration": 2, "velocity": 99}, {"time": 3180, "pitch": 64, "duration": 2, "velocity": 99}, {"time": 3186, "pitch": 64, "duration": 4, "velocity": 127}, {"time": 3198, "pitch": 63, "duration": 9, "velocity": 122}, {"time": 3210, "pitch": 63, "duration": 4, "velocity": 127}, {"time": 3222, "pitch": 64, "duration": 9, "velocity": 100}, {"time": 3234, "pitch": 66, "duration": 25, "velocity": 127}, {"time": 3261, "pitch": 64, "duration": 2, "velocity": 93}, {"time": 3264, "pitch": 69, "duration": 4, "velocity": 112}, {"time": 3270, "pitch": 68, "duration": 3, "velocity": 127}, {"time": 3276, "pitch": 66, "duration": 3, "velocity": 127}, {"time": 3282, "pitch": 64, "duration": 4, "velocity": 122}, {"time": 3288, "pitch": 64, "duration": 2, "velocity": 112}, {"time": 3291, "pitch": 71, "duration": 1, "velocity": 99}, {"time": 3294, "pitch": 71, "duration": 2, "velocity": 99}, {"time": 3300, "pitch": 71, "duration": 2, "velocity": 127}, {"time": 3306, "pitch": 71, "duration": 2, "velocity": 127}, {"time": 3312, "pitch": 64, "duration": 5, "velocity": 107}, {"time": 3321, "pitch": 64, "duration": 4, "velocity": 122}, {"time": 3330, "pitch": 61, "duration": 7, "velocity": 127}, {"time": 3357, "pitch": 61, "duration": 2, "velocity": 99}, {"time": 3360, "pitch": 69, "duration": 4, "velocity": 100}, {"time": 3366, "pitch": 68, "duration": 4, "velocity": 127}, {"time": 3372, "pitch": 66, "duration": 6, "velocity": 127}, {"time": 3378, "pitch": 64, "duration": 3, "velocity": 117}, {"time": 3384, "pitch": 64, "duration": 2, "velocity": 117}, {"time": 3387, "pitch": 71, "duration": 2, "velocity": 96}, {"time": 3390, "pitch": 71, "duration": 2, "velocity": 95}, {"time": 3396, "pitch": 71, "duration": 2, "velocity": 127}, {"time": 3402, "pitch": 71, "duration": 2, "velocity": 127}, {"time": 3408, "pitch": 64, "duration": 3, "velocity": 112}, {"time": 3417, "pitch": 64, "duration": 1, "velocity": 92}, {"time": 3420, "pitch": 64, "duration": 4, "velocity": 92}, {"time": 3426, "pitch": 63, "duration": 9, "velocity": 122}, {"time": 3453, "pitch": 64, "duration": 2, "velocity": 95}, {"time": 3456, "pitch": 69, "duration": 5, "velocity": 117}, {"time": 3462, "pitch": 68, "duration": 5, "velocity": 127}, {"time": 3468, "pitch": 66, "duration": 4, "velocity": 127}, {"time": 3474, "pitch": 61, "duration": 4, "velocity": 122}, {"time": 3480, "pitch": 64, "duration": 3, "velocity": 127}, {"time": 3483, "pitch": 71, "duration": 1, "velocity": 100}, {"time": 3486, "pitch": 71, "duration": 2, "velocity": 99}, {"time": 3492, "pitch": 71, "duration": 2, "velocity": 127}, {"time": 3498, "pitch": 71, "duration": 3, "velocity": 127}, {"time": 3504, "pitch": 64, "duration": 4, "velocity": 122}, {"time": 3513, "pitch": 64, "duration": 1, "velocity": 100}, {"time": 3516, "pitch": 64, "duration": 3, "velocity": 100}, {"time": 3522, "pitch": 61, "duration": 6, "velocity": 127}, {"time": 3549, "pitch": 61, "duration": 1, "velocity": 122}, {"time": 3552, "pitch": 69, "duration": 4, "velocity": 112}, {"time": 3558, "pitch": 68, "duration": 4, "velocity": 127}, {"time": 3564, "pitch": 66, "duration": 4, "velocity": 127}, {"time": 3570, "pitch": 64, "duration": 3, "velocity": 122}, {"time": 3576, "pitch": 64, "duration": 2, "velocity": 122}, {"time": 3579, "pitch": 71, "duration": 1, "velocity": 99}, {"time": 3582, "pitch": 71, "duration": 2, "velocity": 100}, {"time": 3588, "pitch": 71, "duration": 3, "velocity": 127}, {"time": 3594, "pitch": 71, "duration": 3, "velocity": 117}, {"time": 3600, "pitch": 64, "duration": 3, "velocity": 112}, {"time": 3609, "pitch": 64, "duration": 1, "velocity": 93}, {"time": 3612, "pitch": 64, "duration": 3, "velocity": 99}, {"time": 3618, "pitch": 63, "duration": 22, "velocity": 127}, {"time": 3645, "pitch": 64, "duration": 2, "velocity": 90}, {"time": 3648, "pitch": 69, "duration": 5, "velocity": 122}, {"time": 3654, "pitch": 68, "duration": 4, "velocity": 127}, {"time": 3660, "pitch": 66, "duration": 3, "velocity": 122}, {"time": 3666, "pitch": 64, "duration": 5, "velocity": 112}, {"time": 3672, "pitch": 64, "duration": 2, "velocity": 112}, {"time": 3675, "pitch": 71, "duration": 1, "velocity": 99}, {"time": 3678, "pitch": 71, "duration": 2, "velocity": 99}, {"time": 3684, "pitch": 71, "duration": 2, "velocity": 127}, {"time": 3690, "pitch": 71, "duration": 2, "velocity": 127}, {"time": 3696, "pitch": 64, "duration": 5, "velocity": 107}, {"time": 3705, "pitch": 64, "duration": 4, "velocity": 122}, {"time": 3714, "pitch": 61, "duration": 7, "velocity": 127}, {"time": 3741, "pitch": 61, "duration": 2, "velocity": 99}, {"time": 3744, "pitch": 69, "duration": 4, "velocity": 100}, {"time": 3750, "pitch": 68, "duration": 4, "velocity": 127}, {"time": 3756, "pitch": 66, "duration": 6, "velocity": 127}, {"time": 3762, "pitch": 64, "duration": 3, "velocity": 117}, {"time": 3768, "pitch": 64, "duration": 2, "velocity": 117}, {"time": 3771, "pitch": 71, "duration": 2, "velocity": 96}, {"time": 3774, "pitch": 71, "duration": 2, "velocity": 95}, {"time": 3780, "pitch": 71, "duration": 2, "velocity": 127}, {"time": 3786, "pitch": 71, "duration": 2, "velocity": 127}, {"time": 3792, "pitch": 64, "duration": 3, "velocity": 112}, {"time": 3801, "pitch": 64, "duration": 1, "velocity": 92}, {"time": 3804, "pitch": 64, "duration": 4, "velocity": 92}, {"time": 3810, "pitch": 63, "duration": 9, "velocity": 122}, {"time": 3837, "pitch": 64, "duration": 2, "velocity": 95}, {"time": 3840, "pitch": 69, "duration": 5, "velocity": 117}, {"time": 3846, "pitch": 68, "duration": 5, "velocity": 127}, {"time": 3852, "pitch": 66, "duration": 4, "velocity": 127}, {"time": 3858, "pitch": 61, "duration": 4, "velocity": 122}, {"time": 3864, "pitch": 64, "duration": 3, "velocity": 127}, {"time": 3867, "pitch": 71, "duration": 1, "velocity": 100}, {"time": 3870, "pitch": 71, "duration": 2, "velocity": 99}, {"time": 3876, "pitch": 71, "duration": 2, "velocity": 127}, {"time": 3882, "pitch": 71, "duration": 3, "velocity": 127}, {"time": 3888, "pitch": 64, "duration": 4, "velocity": 122}, {"time": 3897, "pitch": 64, "duration": 1, "velocity": 100}, {"time": 3900, "pitch": 64, "duration": 3, "velocity": 100}, {"time": 3906, "pitch": 61, "duration": 6, "velocity": 127}, {"time": 3933, "pitch": 61, "duration": 1, "velocity": 122}, {"time": 3936, "pitch": 69, "duration": 4, "velocity": 112}, {"time": 3942, "pitch": 68, "duration": 4, "velocity": 127}, {"time": 3948, "pitch": 66, "duration": 4, "velocity": 127}, {"time": 3954, "pitch": 64, "duration": 3, "velocity": 122}, {"time": 3960, "pitch": 64, "duration": 2, "velocity": 122}, {"time": 3963, "pitch": 71, "duration": 1, "velocity": 99}, {"time": 3966, "pitch": 71, "duration": 2, "velocity": 100}, {"time": 3972, "pitch": 71, "duration": 3, "velocity": 127}, {"time": 3978, "pitch": 71, "duration": 3, "velocity": 117}, {"time": 3984, "pitch": 64, "duration": 3, "velocity": 112}, {"time": 3993, "pitch": 64, "duration": 1, "velocity": 93}, {"time": 3996, "pitch": 64, "duration": 3, "velocity": 99}, {"time": 4002, "pitch": 63, "duration": 25, "velocity": 127}, {"time": 4029, "pitch": 64, "duration": 2, "velocity": 93}, {"time": 4032, "pitch": 69, "duration": 3, "velocity": 117}, {"time": 4038, "pitch": 68, "duration": 3, "velocity": 127}, {"time": 4044, "pitch": 66, "duration": 4, "velocity": 122}, {"time": 4050, "pitch": 64, "duration": 8, "velocity": 127}]}, {"program": 0, "is_drum": false, "name": "PIANO", "notes": [{"time": 24, "pitch": 49, "duration": 40, "velocity": 72}, {"time": 36, "pitch": 52, "duration": 34, "velocity": 65}, {"time": 36, "pitch": 56, "duration": 34, "velocity": 65}, {"time": 72, "pitch": 45, "duration": 34, "velocity": 59}, {"time": 84, "pitch": 49, "duration": 22, "velocity": 66}, {"time": 84, "pitch": 52, "duration": 23, "velocity": 63}, {"time": 114, "pitch": 45, "duration": 4, "velocity": 90}, {"time": 120, "pitch": 52, "duration": 16, "velocity": 68}, {"time": 120, "pitch": 56, "duration": 16, "velocity": 71}, {"time": 120, "pitch": 59, "duration": 16, "velocity": 71}, {"time": 138, "pitch": 52, "duration": 16, "velocity": 59}, {"time": 138, "pitch": 56, "duration": 16, "velocity": 59}, {"time": 138, "pitch": 59, "duration": 16, "velocity": 67}, {"time": 156, "pitch": 52, "duration": 12, "velocity": 56}, {"time": 156, "pitch": 56, "duration": 12, "velocity": 72}, {"time": 156, "pitch": 59, "duration": 13, "velocity": 72}, {"time": 162, "pitch": 47, "duration": 7, "velocity": 85}, {"time": 168, "pitch": 44, "duration": 38, "velocity": 76}, {"time": 168, "pitch": 51, "duration": 38, "velocity": 63}, {"time": 210, "pitch": 44, "duration": 6, "velocity": 86}, {"time": 216, "pitch": 49, "duration": 40, "velocity": 72}, {"time": 228, "pitch": 52, "duration": 34, "velocity": 65}, {"time": 228, "pitch": 56, "duration": 34, "velocity": 65}, {"time": 264, "pitch": 45, "duration": 34, "velocity": 59}, {"time": 276, "pitch": 49, "duration": 22, "velocity": 66}, {"time": 276, "pitch": 52, "duration": 23, "velocity": 63}, {"time": 306, "pitch": 45, "duration": 4, "velocity": 90}, {"time": 312, "pitch": 52, "duration": 16, "velocity": 68}, {"time": 312, "pitch": 56, "duration": 16, "velocity": 71}, {"time": 312, "pitch": 59, "duration": 16, "velocity": 71}, {"time": 330, "pitch": 52, "duration": 16, "velocity": 59}, {"time": 330, "pitch": 56, "duration": 16, "velocity": 59}, {"time": 330, "pitch": 59, "duration": 16, "velocity": 67}, {"time": 348, "pitch": 52, "duration": 12, "velocity": 56}, {"time": 348, "pitch": 56, "duration": 12, "velocity": 72}, {"time": 348, "pitch": 59, "duration": 13, "velocity": 72}, {"time": 354, "pitch": 47, "duration": 7, "velocity": 85}, {"time": 360, "pitch": 44, "duration": 38, "velocity": 76}, {"time": 360, "pitch": 51, "duration": 38, "velocity": 63}, {"time": 402, "pitch": 44, "duration": 6, "velocity": 86}, {"time": 408, "pitch": 49, "duration": 40, "velocity": 72}, {"time": 420, "pitch": 52, "duration": 34, "velocity": 65}, {"time": 420, "pitch": 56, "duration": 34, "velocity": 65}, {"time": 456, "pitch": 45, "duration": 34, "velocity": 59}, {"time": 468, "pitch": 49, "duration": 22, "velocity": 66}, {"time": 468, "pitch": 52, "duration": 23, "velocity": 63}, {"time": 498, "pitch": 45, "duration": 4, "velocity": 90}, {"time": 504, "pitch": 52, "duration": 16, "velocity": 68}, {"time": 504, "pitch": 56, "duration": 16, "velocity": 71}, {"time": 504, "pitch": 59, "duration": 16, "velocity": 71}, {"time": 522, "pitch": 52, "duration": 16, "velocity": 59}, {"time": 522, "pitch": 56, "duration": 16, "velocity": 59}, {"time": 522, "pitch": 59, "duration": 16, "velocity": 67}, {"time": 540, "pitch": 52, "duration": 12, "velocity": 56}, {"time": 540, "pitch": 56, "duration": 12, "velocity": 72}, {"time": 540, "pitch": 59, "duration": 13, "velocity": 72}, {"time": 546, "pitch": 47, "duration": 7, "velocity": 85}, {"time": 552, "pitch": 44, "duration": 38, "velocity": 76}, {"time": 552, "pitch": 51, "duration": 38, "velocity": 63}, {"time": 594, "pitch": 44, "duration": 6, "velocity": 86}, {"time": 600, "pitch": 45, "duration": 37, "velocity": 83}, {"time": 600, "pitch": 61, "duration": 9, "velocity": 93}, {"time": 600, "pitch": 64, "duration": 9, "velocity": 79}, {"time": 600, "pitch": 68, "duration": 8, "velocity": 77}, {"time": 606, "pitch": 52, "duration": 14, "velocity": 61}, {"time": 612, "pitch": 57, "duration": 6, "velocity": 85}, {"time": 612, "pitch": 64, "duration": 1, "velocity": 35}, {"time": 618, "pitch": 61, "duration": 15, "velocity": 66}, {"time": 618, "pitch": 64, "duration": 16, "velocity": 68}, {"time": 618, "pitch": 68, "duration": 16, "velocity": 88}, {"time": 630, "pitch": 52, "duration": 6, "velocity": 81}, {"time": 636, "pitch": 61, "duration": 12, "velocity": 96}, {"time": 636, "pitch": 64, "duration": 12, "velocity": 70}, {"time": 636, "pitch": 68, "duration": 4, "velocity": 67}, {"time": 642, "pitch": 57, "duration": 5, "velocity": 81}, {"time": 648, "pitch": 49, "duration": 22, "velocity": 78}, {"time": 654, "pitch": 56, "duration": 7, "velocity": 60}, {"time": 660, "pitch": 61, "duration": 17, "velocity": 58}, {"time": 660, "pitch": 64, "duration": 18, "velocity": 69}, {"time": 666, "pitch": 56, "duration": 13, "velocity": 92}, {"time": 678, "pitch": 49, "duration": 8, "velocity": 89}, {"time": 684, "pitch": 64, "duration": 12, "velocity": 89}, {"time": 690, "pitch": 61, "duration": 5, "velocity": 89}, {"time": 693, "pitch": 56, "duration": 3, "velocity": 83}, {"time": 696, "pitch": 40, "duration": 37, "velocity": 81}, {"time": 702, "pitch": 47, "duration": 30, "velocity": 61}, {"time": 708, "pitch": 64, "duration": 21, "velocity": 90}, {"time": 708, "pitch": 68, "duration": 21, "velocity": 93}, {"time": 714, "pitch": 59, "duration": 14, "velocity": 83}, {"time": 726, "pitch": 52, "duration": 7, "velocity": 64}, {"time": 732, "pitch": 64, "duration": 3, "velocity": 99}, {"time": 732, "pitch": 68, "duration": 3, "velocity": 97}, {"time": 744, "pitch": 44, "duration": 28, "velocity": 69}, {"time": 744, "pitch": 51, "duration": 26, "velocity": 81}, {"time": 744, "pitch": 56, "duration": 10, "velocity": 86}, {"time": 744, "pitch": 60, "duration": 13, "velocity": 97}, {"time": 744, "pitch": 63, "duration": 14, "velocity": 89}, {"time": 756, "pitch": 56, "duration": 2, "velocity": 53}, {"time": 762, "pitch": 56, "duration": 12, "velocity": 90}, {"time": 762, "pitch": 60, "duration": 13, "velocity": 99}, {"time": 762, "pitch": 63, "duration": 14, "velocity": 93}, {"time": 774, "pitch": 44, "duration": 15, "velocity": 63}, {"time": 774, "pitch": 51, "duration": 13, "velocity": 73}, {"time": 780, "pitch": 60, "duration": 10, "velocity": 122}, {"time": 780, "pitch": 63, "duration": 11, "velocity": 127}, {"time": 786, "pitch": 56, "duration": 5, "velocity": 55}, {"time": 792, "pitch": 37, "duration": 36, "velocity": 93}, {"time": 792, "pitch": 56, "duration": 10, "velocity": 90}, {"time": 792, "pitch": 61, "duration": 6, "velocity": 74}, {"time": 792, "pitch": 64, "duration": 9, "velocity": 75}, {"time": 798, "pitch": 49, "duration": 10, "velocity": 73}, {"time": 804, "pitch": 61, "duration": 9, "velocity": 69}, {"time": 804, "pitch": 64, "duration": 10, "velocity": 79}, {"time": 810, "pitch": 56, "duration": 8, "velocity": 78}, {"time": 816, "pitch": 61, "duration": 7, "velocity": 63}, {"time": 816, "pitch": 64, "duration": 8, "velocity": 69}, {"time": 822, "pitch": 49, "duration": 7, "velocity": 52}, {"time": 828, "pitch": 61, "duration": 6, "velocity": 107}, {"time": 828, "pitch": 64, "duration": 7, "velocity": 90}, {"time": 831, "pitch": 56, "duration": 2, "velocity": 76}, {"time": 840, "pitch": 45, "duration": 36, "velocity": 74}, {"time": 840, "pitch": 61, "duration": 6, "velocity": 97}, {"time": 840, "pitch": 64, "duration": 7, "velocity": 92}, {"time": 846, "pitch": 52, "duration": 8, "velocity": 46}, {"time": 852, "pitch": 57, "duration": 9, "velocity": 90}, {"time": 852, "pitch": 61, "duration": 8, "velocity": 99}, {"time": 852, "pitch": 64, "duration": 9, "velocity": 88}, {"time": 858, "pitch": 52, "duration": 9, "velocity": 53}, {"time": 864, "pitch": 61, "duration": 7, "velocity": 102}, {"time": 864, "pitch": 64, "duration": 9, "velocity": 82}, {"time": 870, "pitch": 52, "duration": 5, "velocity": 59}, {"time": 876, "pitch": 61, "duration": 7, "velocity": 99}, {"time": 876, "pitch": 64, "duration": 5, "velocity": 86}, {"time": 876, "pitch": 68, "duration": 5, "velocity": 89}, {"time": 882, "pitch": 59, "duration": 4, "velocity": 77}, {"time": 888, "pitch": 40, "duration": 38, "velocity": 71}, {"time": 888, "pitch": 64, "duration": 8, "velocity": 99}, {"time": 888, "pitch": 68, "duration": 8, "velocity": 112}, {"time": 894, "pitch": 47, "duration": 32, "velocity": 61}, {"time": 894, "pitch": 59, "duration": 7, "velocity": 72}, {"time": 900, "pitch": 64, "duration": 9, "velocity": 93}, {"time": 900, "pitch": 68, "duration": 9, "velocity": 93}, {"time": 906, "pitch": 52, "duration": 10, "velocity": 48}, {"time": 906, "pitch": 59, "duration": 7, "velocity": 68}, {"time": 912, "pitch": 64, "duration": 8, "velocity": 95}, {"time": 912, "pitch": 68, "duration": 10, "velocity": 96}, {"time": 915, "pitch": 59, "duration": 5, "velocity": 35}, {"time": 918, "pitch": 52, "duration": 8, "velocity": 77}, {"time": 924, "pitch": 64, "duration": 5, "velocity": 99}, {"time": 924, "pitch": 68, "duration": 5, "velocity": 99}, {"time": 930, "pitch": 59, "duration": 2, "velocity": 75}, {"time": 936, "pitch": 44, "duration": 28, "velocity": 102}, {"time": 936, "pitch": 59, "duration": 5, "velocity": 89}, {"time": 936, "pitch": 63, "duration": 7, "velocity": 107}, {"time": 942, "pitch": 56, "duration": 5, "velocity": 76}, {"time": 948, "pitch": 59, "duration": 2, "velocity": 81}, {"time": 948, "pitch": 63, "duration": 7, "velocity": 96}, {"time": 954, "pitch": 56, "duration": 3, "velocity": 78}, {"time": 960, "pitch": 59, "duration": 6, "velocity": 76}, {"time": 960, "pitch": 63, "duration": 6, "velocity": 88}, {"time": 966, "pitch": 44, "duration": 12, "velocity": 71}, {"time": 972, "pitch": 59, "duration": 7, "velocity": 107}, {"time": 972, "pitch": 63, "duration": 11, "velocity": 122}, {"time": 978, "pitch": 56, "duration": 5, "velocity": 89}, {"time": 984, "pitch": 37, "duration": 36, "velocity": 93}, {"time": 984, "pitch": 56, "duration": 10, "velocity": 90}, {"time": 984, "pitch": 61, "duration": 6, "velocity": 74}, {"time": 984, "pitch": 64, "duration": 9, "velocity": 75}, {"time": 990, "pitch": 49, "duration": 10, "velocity": 73}, {"time": 996, "pitch": 61, "duration": 9, "velocity": 69}, {"time": 996, "pitch": 64, "duration": 10, "velocity": 79}, {"time": 1002, "pitch": 56, "duration": 8, "velocity": 78}, {"time": 1008, "pitch": 61, "duration": 7, "velocity": 63}, {"time": 1008, "pitch": 64, "duration": 8, "velocity": 69}, {"time": 1014, "pitch": 49, "duration": 7, "velocity": 52}, {"time": 1020, "pitch": 61, "duration": 6, "velocity": 107}, {"time": 1020, "pitch": 64, "duration": 7, "velocity": 90}, {"time": 1023, "pitch": 56, "duration": 2, "velocity": 76}, {"time": 1032, "pitch": 45, "duration": 36, "velocity": 74}, {"time": 1032, "pitch": 61, "duration": 6, "velocity": 97}, {"time": 1032, "pitch": 64, "duration": 7, "velocity": 92}, {"time": 1038, "pitch": 52, "duration": 8, "velocity": 46}, {"time": 1044, "pitch": 57, "duration": 9, "velocity": 90}, {"time": 1044, "pitch": 61, "duration": 8, "velocity": 99}, {"time": 1044, "pitch": 64, "duration": 9, "velocity": 88}, {"time": 1050, "pitch": 52, "duration": 9, "velocity": 53}, {"time": 1056, "pitch": 61, "duration": 7, "velocity": 102}, {"time": 1056, "pitch": 64, "duration": 9, "velocity": 82}, {"time": 1062, "pitch": 52, "duration": 5, "velocity": 59}, {"time": 1068, "pitch": 61, "duration": 7, "velocity": 99}, {"time": 1068, "pitch": 64, "duration": 5, "velocity": 86}, {"time": 1068, "pitch": 68, "duration": 5, "velocity": 89}, {"time": 1074, "pitch": 59, "duration": 4, "velocity": 77}, {"time": 1080, "pitch": 40, "duration": 38, "velocity": 71}, {"time": 1080, "pitch": 64, "duration": 8, "velocity": 99}, {"time": 1080, "pitch": 68, "duration": 8, "velocity": 112}, {"time": 1086, "pitch": 47, "duration": 32, "velocity": 61}, {"time": 1086, "pitch": 59, "duration": 7, "velocity": 72}, {"time": 1092, "pitch": 64, "duration": 9, "velocity": 93}, {"time": 1092, "pitch": 68, "duration": 9, "velocity": 93}, {"time": 1098, "pitch": 52, "duration": 10, "velocity": 48}, {"time": 1098, "pitch": 59, "duration": 7, "velocity": 68}, {"time": 1104, "pitch": 64, "duration": 8, "velocity": 95}, {"time": 1104, "pitch": 68, "duration": 10, "velocity": 96}, {"time": 1107, "pitch": 59, "duration": 5, "velocity": 35}, {"time": 1110, "pitch": 52, "duration": 8, "velocity": 77}, {"time": 1116, "pitch": 64, "duration": 5, "velocity": 99}, {"time": 1116, "pitch": 68, "duration": 5, "velocity": 99}, {"time": 1122, "pitch": 59, "duration": 2, "velocity": 75}, {"time": 1128, "pitch": 44, "duration": 5, "velocity": 100}, {"time": 1128, "pitch": 56, "duration": 3, "velocity": 96}, {"time": 1128, "pitch": 59, "duration": 2, "velocity": 85}, {"time": 1128, "pitch": 63, "duration": 3, "velocity": 96}, {"time": 1134, "pitch": 44, "duration": 4, "velocity": 38}, {"time": 1134, "pitch": 56, "duration": 4, "velocity": 66}, {"time": 1134, "pitch": 59, "duration": 2, "velocity": 58}, {"time": 1134, "pitch": 63, "duration": 4, "velocity": 59}, {"time": 1140, "pitch": 44, "duration": 4, "velocity": 86}, {"time": 1140, "pitch": 56, "duration": 3, "velocity": 85}, {"time": 1140, "pitch": 59, "duration": 3, "velocity": 70}, {"time": 1140, "pitch": 63, "duration": 4, "velocity": 79}, {"time": 1146, "pitch": 44, "duration": 4, "velocity": 75}, {"time": 1146, "pitch": 56, "duration": 4, "velocity": 89}, {"time": 1146, "pitch": 59, "duration": 4, "velocity": 71}, {"time": 1146, "pitch": 63, "duration": 4, "velocity": 76}, {"time": 1152, "pitch": 44, "duration": 4, "velocity": 102}, {"time": 1152, "pitch": 56, "duration": 3, "velocity": 107}, {"time": 1152, "pitch": 59, "duration": 3, "velocity": 92}, {"time": 1152, "pitch": 63, "duration": 3, "velocity": 99}, {"time": 1158, "pitch": 44, "duration": 3, "velocity": 112}, {"time": 1158, "pitch": 56, "duration": 3, "velocity": 100}, {"time": 1158, "pitch": 59, "duration": 3, "velocity": 96}, {"time": 1158, "pitch": 63, "duration": 3, "velocity": 99}, {"time": 1164, "pitch": 44, "duration": 3, "velocity": 127}, {"time": 1164, "pitch": 56, "duration": 3, "velocity": 100}, {"time": 1164, "pitch": 59, "duration": 2, "velocity": 95}, {"time": 1164, "pitch": 63, "duration": 3, "velocity": 100}, {"time": 1170, "pitch": 44, "duration": 3, "velocity": 127}, {"time": 1170, "pitch": 56, "duration": 3, "velocity": 100}, {"time": 1170, "pitch": 59, "duration": 1, "velocity": 89}, {"time": 1170, "pitch": 63, "duration": 1, "velocity": 95}, {"time": 1176, "pitch": 49, "duration": 15, "velocity": 127}, {"time": 1176, "pitch": 56, "duration": 4, "velocity": 100}, {"time": 1176, "pitch": 61, "duration": 4, "velocity": 102}, {"time": 1176, "pitch": 64, "duration": 5, "velocity": 96}, {"time": 1182, "pitch": 56, "duration": 4, "velocity": 73}, {"time": 1188, "pitch": 56, "duration": 1, "velocity": 73}, {"time": 1188, "pitch": 61, "duration": 7, "velocity": 127}, {"time": 1188, "pitch": 64, "duration": 7, "velocity": 117}, {"time": 1194, "pitch": 49, "duration": 10, "velocity": 102}, {"time": 1200, "pitch": 56, "duration": 7, "velocity": 102}, {"time": 1200, "pitch": 61, "duration": 7, "velocity": 127}, {"time": 1200, "pitch": 64, "duration": 6, "velocity": 100}, {"time": 1206, "pitch": 49, "duration": 9, "velocity": 112}, {"time": 1212, "pitch": 56, "duration": 5, "velocity": 112}, {"time": 1212, "pitch": 61, "duration": 5, "velocity": 117}, {"time": 1212, "pitch": 63, "duration": 3, "velocity": 79}, {"time": 1212, "pitch": 64, "duration": 5, "velocity": 93}, {"time": 1218, "pitch": 49, "duration": 6, "velocity": 127}, {"time": 1224, "pitch": 45, "duration": 43, "velocity": 85}, {"time": 1224, "pitch": 57, "duration": 8, "velocity": 102}, {"time": 1224, "pitch": 61, "duration": 8, "velocity": 122}, {"time": 1224, "pitch": 64, "duration": 7, "velocity": 97}, {"time": 1230, "pitch": 52, "duration": 9, "velocity": 60}, {"time": 1236, "pitch": 57, "duration": 8, "velocity": 99}, {"time": 1236, "pitch": 61, "duration": 8, "velocity": 112}, {"time": 1236, "pitch": 64, "duration": 8, "velocity": 95}, {"time": 1242, "pitch": 52, "duration": 9, "velocity": 102}, {"time": 1248, "pitch": 57, "duration": 8, "velocity": 95}, {"time": 1248, "pitch": 61, "duration": 9, "velocity": 127}, {"time": 1248, "pitch": 64, "duration": 9, "velocity": 93}, {"time": 1254, "pitch": 52, "duration": 8, "velocity": 100}, {"time": 1260, "pitch": 61, "duration": 5, "velocity": 127}, {"time": 1260, "pitch": 64, "duration": 5, "velocity": 99}, {"time": 1266, "pitch": 52, "duration": 2, "velocity": 82}, {"time": 1272, "pitch": 40, "duration": 43, "velocity": 83}, {"time": 1272, "pitch": 59, "duration": 8, "velocity": 93}, {"time": 1272, "pitch": 64, "duration": 8, "velocity": 100}, {"time": 1272, "pitch": 68, "duration": 8, "velocity": 112}, {"time": 1278, "pitch": 52, "duration": 9, "velocity": 97}, {"time": 1284, "pitch": 59, "duration": 9, "velocity": 112}, {"time": 1284, "pitch": 64, "duration": 9, "velocity": 122}, {"time": 1284, "pitch": 68, "duration": 9, "velocity": 122}, {"time": 1290, "pitch": 52, "duration": 10, "velocity": 97}, {"time": 1296, "pitch": 59, "duration": 8, "velocity": 97}, {"time": 1296, "pitch": 64, "duration": 8, "velocity": 117}, {"time": 1296, "pitch": 68, "duration": 8, "velocity": 127}, {"time": 1302, "pitch": 52, "duration": 9, "velocity": 76}, {"time": 1308, "pitch": 64, "duration": 5, "velocity": 122}, {"time": 1308, "pitch": 68, "duration": 4, "velocity": 122}, {"time": 1314, "pitch": 52, "duration": 5, "velocity": 99}, {"time": 1320, "pitch": 44, "duration": 15, "velocity": 122}, {"time": 1320, "pitch": 56, "duration": 3, "velocity": 100}, {"time": 1320, "pitch": 59, "duration": 5, "velocity": 107}, {"time": 1320, "pitch": 63, "duration": 5, "velocity": 112}, {"time": 1326, "pitch": 56, "duration": 4, "velocity": 99}, {"time": 1332, "pitch": 56, "duration": 7, "velocity": 112}, {"time": 1332, "pitch": 59, "duration": 6, "velocity": 107}, {"time": 1332, "pitch": 63, "duration": 6, "velocity": 122}, {"time": 1338, "pitch": 44, "duration": 11, "velocity": 100}, {"time": 1344, "pitch": 56, "duration": 8, "velocity": 122}, {"time": 1344, "pitch": 59, "duration": 6, "velocity": 117}, {"time": 1344, "pitch": 63, "duration": 7, "velocity": 117}, {"time": 1350, "pitch": 44, "duration": 9, "velocity": 76}, {"time": 1356, "pitch": 59, "duration": 11, "velocity": 117}, {"time": 1356, "pitch": 63, "duration": 12, "velocity": 127}, {"time": 1362, "pitch": 44, "duration": 6, "velocity": 96}, {"time": 1362, "pitch": 56, "duration": 5, "velocity": 107}, {"time": 1368, "pitch": 49, "duration": 15, "velocity": 127}, {"time": 1368, "pitch": 56, "duration": 4, "velocity": 100}, {"time": 1368, "pitch": 61, "duration": 4, "velocity": 102}, {"time": 1368, "pitch": 64, "duration": 5, "velocity": 96}, {"time": 1374, "pitch": 56, "duration": 4, "velocity": 73}, {"time": 1380, "pitch": 56, "duration": 1, "velocity": 73}, {"time": 1380, "pitch": 61, "duration": 7, "velocity": 127}, {"time": 1380, "pitch": 64, "duration": 7, "velocity": 117}, {"time": 1386, "pitch": 49, "duration": 10, "velocity": 102}, {"time": 1392, "pitch": 56, "duration": 7, "velocity": 102}, {"time": 1392, "pitch": 61, "duration": 7, "velocity": 127}, {"time": 1392, "pitch": 64, "duration": 6, "velocity": 100}, {"time": 1398, "pitch": 49, "duration": 9, "velocity": 112}, {"time": 1404, "pitch": 56, "duration": 5, "velocity": 112}, {"time": 1404, "pitch": 61, "duration": 5, "velocity": 117}, {"time": 1404, "pitch": 63, "duration": 3, "velocity": 79}, {"time": 1404, "pitch": 64, "duration": 5, "velocity": 93}, {"time": 1410, "pitch": 49, "duration": 6, "velocity": 127}, {"time": 1416, "pitch": 45, "duration": 43, "velocity": 85}, {"time": 1416, "pitch": 57, "duration": 8, "velocity": 102}, {"time": 1416, "pitch": 61, "duration": 8, "velocity": 122}, {"time": 1416, "pitch": 64, "duration": 7, "velocity": 97}, {"time": 1422, "pitch": 52, "duration": 9, "velocity": 60}, {"time": 1428, "pitch": 57, "duration": 8, "velocity": 99}, {"time": 1428, "pitch": 61, "duration": 8, "velocity": 112}, {"time": 1428, "pitch": 64, "duration": 8, "velocity": 95}, {"time": 1434, "pitch": 52, "duration": 9, "velocity": 102}, {"time": 1440, "pitch": 57, "duration": 8, "velocity": 95}, {"time": 1440, "pitch": 61, "duration": 9, "velocity": 127}, {"time": 1440, "pitch": 64, "duration": 9, "velocity": 93}, {"time": 1446, "pitch": 52, "duration": 8, "velocity": 100}, {"time": 1452, "pitch": 61, "duration": 5, "velocity": 127}, {"time": 1452, "pitch": 64, "duration": 5, "velocity": 99}, {"time": 1458, "pitch": 52, "duration": 2, "velocity": 82}, {"time": 1464, "pitch": 40, "duration": 43, "velocity": 83}, {"time": 1464, "pitch": 59, "duration": 8, "velocity": 93}, {"time": 1464, "pitch": 64, "duration": 8, "velocity": 100}, {"time": 1464, "pitch": 68, "duration": 8, "velocity": 112}, {"time": 1470, "pitch": 52, "duration": 9, "velocity": 97}, {"time": 1476, "pitch": 59, "duration": 9, "velocity": 112}, {"time": 1476, "pitch": 64, "duration": 9, "velocity": 122}, {"time": 1476, "pitch": 68, "duration": 9, "velocity": 122}, {"time": 1482, "pitch": 52, "duration": 10, "velocity": 97}, {"time": 1488, "pitch": 59, "duration": 8, "velocity": 97}, {"time": 1488, "pitch": 64, "duration": 8, "velocity": 117}, {"time": 1488, "pitch": 68, "duration": 8, "velocity": 127}, {"time": 1494, "pitch": 52, "duration": 9, "velocity": 76}, {"time": 1500, "pitch": 64, "duration": 5, "velocity": 122}, {"time": 1500, "pitch": 68, "duration": 4, "velocity": 122}, {"time": 1506, "pitch": 52, "duration": 5, "velocity": 99}, {"time": 1512, "pitch": 44, "duration": 50, "velocity": 107}, {"time": 1512, "pitch": 56, "duration": 51, "velocity": 100}, {"time": 1512, "pitch": 59, "duration": 51, "velocity": 112}, {"time": 1512, "pitch": 63, "duration": 51, "velocity": 102}, {"time": 1560, "pitch": 49, "duration": 15, "velocity": 92}, {"time": 1560, "pitch": 56, "duration": 3, "velocity": 82}, {"time": 1560, "pitch": 61, "duration": 7, "velocity": 74}, {"time": 1560, "pitch": 64, "duration": 10, "velocity": 70}, {"time": 1560, "pitch": 68, "duration": 9, "velocity": 65}, {"time": 1572, "pitch": 56, "duration": 11, "velocity": 86}, {"time": 1572, "pitch": 61, "duration": 11, "velocity": 58}, {"time": 1572, "pitch": 64, "duration": 11, "velocity": 72}, {"time": 1572, "pitch": 68, "duration": 11, "velocity": 60}, {"time": 1584, "pitch": 49, "duration": 16, "velocity": 86}, {"time": 1584, "pitch": 56, "duration": 9, "velocity": 66}, {"time": 1584, "pitch": 61, "duration": 6, "velocity": 58}, {"time": 1584, "pitch": 64, "duration": 10, "velocity": 66}, {"time": 1584, "pitch": 68, "duration": 10, "velocity": 59}, {"time": 1596, "pitch": 56, "duration": 7, "velocity": 95}, {"time": 1596, "pitch": 61, "duration": 6, "velocity": 85}, {"time": 1596, "pitch": 64, "duration": 7, "velocity": 72}, {"time": 1596, "pitch": 68, "duration": 7, "velocity": 64}, {"time": 1602, "pitch": 49, "duration": 5, "velocity": 66}, {"time": 1608, "pitch": 45, "duration": 14, "velocity": 70}, {"time": 1608, "pitch": 57, "duration": 10, "velocity": 69}, {"time": 1608, "pitch": 61, "duration": 10, "velocity": 69}, {"time": 1608, "pitch": 64, "duration": 10, "velocity": 67}, {"time": 1620, "pitch": 57, "duration": 9, "velocity": 73}, {"time": 1620, "pitch": 61, "duration": 10, "velocity": 72}, {"time": 1620, "pitch": 64, "duration": 10, "velocity": 68}, {"time": 1632, "pitch": 45, "duration": 13, "velocity": 79}, {"time": 1632, "pitch": 57, "duration": 8, "velocity": 89}, {"time": 1632, "pitch": 61, "duration": 10, "velocity": 88}, {"time": 1632, "pitch": 64, "duration": 10, "velocity": 73}, {"time": 1644, "pitch": 61, "duration": 5, "velocity": 93}, {"time": 1644, "pitch": 64, "duration": 5, "velocity": 76}, {"time": 1656, "pitch": 52, "duration": 15, "velocity": 59}, {"time": 1656, "pitch": 59, "duration": 10, "velocity": 72}, {"time": 1656, "pitch": 64, "duration": 10, "velocity": 67}, {"time": 1656, "pitch": 68, "duration": 10, "velocity": 66}, {"time": 1668, "pitch": 59, "duration": 9, "velocity": 81}, {"time": 1668, "pitch": 64, "duration": 9, "velocity": 77}, {"time": 1668, "pitch": 68, "duration": 9, "velocity": 83}, {"time": 1680, "pitch": 52, "duration": 12, "velocity": 61}, {"time": 1680, "pitch": 59, "duration": 10, "velocity": 85}, {"time": 1680, "pitch": 64, "duration": 10, "velocity": 82}, {"time": 1680, "pitch": 68, "duration": 10, "velocity": 74}, {"time": 1692, "pitch": 59, "duration": 5, "velocity": 85}, {"time": 1692, "pitch": 64, "duration": 3, "velocity": 85}, {"time": 1692, "pitch": 68, "duration": 3, "velocity": 82}, {"time": 1704, "pitch": 44, "duration": 15, "velocity": 66}, {"time": 1704, "pitch": 56, "duration": 10, "velocity": 88}, {"time": 1704, "pitch": 59, "duration": 6, "velocity": 72}, {"time": 1704, "pitch": 63, "duration": 10, "velocity": 72}, {"time": 1716, "pitch": 56, "duration": 3, "velocity": 90}, {"time": 1716, "pitch": 59, "duration": 2, "velocity": 74}, {"time": 1716, "pitch": 63, "duration": 4, "velocity": 79}, {"time": 1728, "pitch": 44, "duration": 14, "velocity": 71}, {"time": 1728, "pitch": 56, "duration": 3, "velocity": 88}, {"time": 1728, "pitch": 59, "duration": 2, "velocity": 76}, {"time": 1728, "pitch": 63, "duration": 3, "velocity": 77}, {"time": 1740, "pitch": 56, "duration": 11, "velocity": 93}, {"time": 1740, "pitch": 59, "duration": 11, "velocity": 81}, {"time": 1740, "pitch": 63, "duration": 11, "velocity": 92}, {"time": 1752, "pitch": 49, "duration": 15, "velocity": 92}, {"time": 1752, "pitch": 56, "duration": 10, "velocity": 82}, {"time": 1752, "pitch": 61, "duration": 7, "velocity": 74}, {"time": 1752, "pitch": 64, "duration": 10, "velocity": 70}, {"time": 1752, "pitch": 68, "duration": 9, "velocity": 65}, {"time": 1764, "pitch": 56, "duration": 11, "velocity": 86}, {"time": 1764, "pitch": 61, "duration": 11, "velocity": 58}, {"time": 1764, "pitch": 64, "duration": 11, "velocity": 72}, {"time": 1764, "pitch": 68, "duration": 11, "velocity": 60}, {"time": 1776, "pitch": 49, "duration": 16, "velocity": 86}, {"time": 1776, "pitch": 56, "duration": 9, "velocity": 66}, {"time": 1776, "pitch": 61, "duration": 6, "velocity": 58}, {"time": 1776, "pitch": 64, "duration": 10, "velocity": 66}, {"time": 1776, "pitch": 68, "duration": 10, "velocity": 59}, {"time": 1788, "pitch": 56, "duration": 7, "velocity": 95}, {"time": 1788, "pitch": 61, "duration": 6, "velocity": 85}, {"time": 1788, "pitch": 64, "duration": 7, "velocity": 72}, {"time": 1788, "pitch": 68, "duration": 7, "velocity": 64}, {"time": 1794, "pitch": 49, "duration": 5, "velocity": 66}, {"time": 1800, "pitch": 45, "duration": 14, "velocity": 70}, {"time": 1800, "pitch": 57, "duration": 10, "velocity": 69}, {"time": 1800, "pitch": 61, "duration": 10, "velocity": 69}, {"time": 1800, "pitch": 64, "duration": 10, "velocity": 67}, {"time": 1812, "pitch": 57, "duration": 9, "velocity": 73}, {"time": 1812, "pitch": 61, "duration": 10, "velocity": 72}, {"time": 1812, "pitch": 64, "duration": 10, "velocity": 68}, {"time": 1824, "pitch": 45, "duration": 13, "velocity": 79}, {"time": 1824, "pitch": 57, "duration": 8, "velocity": 89}, {"time": 1824, "pitch": 61, "duration": 10, "velocity": 88}, {"time": 1824, "pitch": 64, "duration": 10, "velocity": 73}, {"time": 1836, "pitch": 61, "duration": 5, "velocity": 93}, {"time": 1836, "pitch": 64, "duration": 5, "velocity": 76}, {"time": 1848, "pitch": 52, "duration": 15, "velocity": 59}, {"time": 1848, "pitch": 59, "duration": 10, "velocity": 72}, {"time": 1848, "pitch": 64, "duration": 10, "velocity": 67}, {"time": 1848, "pitch": 68, "duration": 10, "velocity": 66}, {"time": 1860, "pitch": 59, "duration": 9, "velocity": 81}, {"time": 1860, "pitch": 64, "duration": 9, "velocity": 77}, {"time": 1860, "pitch": 68, "duration": 9, "velocity": 83}, {"time": 1872, "pitch": 52, "duration": 12, "velocity": 61}, {"time": 1872, "pitch": 59, "duration": 10, "velocity": 85}, {"time": 1872, "pitch": 64, "duration": 10, "velocity": 82}, {"time": 1872, "pitch": 68, "duration": 10, "velocity": 74}, {"time": 1884, "pitch": 59, "duration": 5, "velocity": 85}, {"time": 1884, "pitch": 64, "duration": 3, "velocity": 85}, {"time": 1884, "pitch": 68, "duration": 3, "velocity": 82}, {"time": 1896, "pitch": 44, "duration": 15, "velocity": 66}, {"time": 1896, "pitch": 56, "duration": 10, "velocity": 88}, {"time": 1896, "pitch": 59, "duration": 6, "velocity": 72}, {"time": 1896, "pitch": 63, "duration": 10, "velocity": 72}, {"time": 1908, "pitch": 56, "duration": 3, "velocity": 90}, {"time": 1908, "pitch": 59, "duration": 2, "velocity": 74}, {"time": 1908, "pitch": 63, "duration": 4, "velocity": 79}, {"time": 1920, "pitch": 44, "duration": 14, "velocity": 71}, {"time": 1920, "pitch": 56, "duration": 3, "velocity": 88}, {"time": 1920, "pitch": 59, "duration": 2, "velocity": 76}, {"time": 1920, "pitch": 63, "duration": 3, "velocity": 77}, {"time": 1932, "pitch": 56, "duration": 11, "velocity": 93}, {"time": 1932, "pitch": 59, "duration": 11, "velocity": 81}, {"time": 1932, "pitch": 63, "duration": 11, "velocity": 92}, {"time": 1944, "pitch": 45, "duration": 37, "velocity": 83}, {"time": 1944, "pitch": 61, "duration": 9, "velocity": 93}, {"time": 1944, "pitch": 64, "duration": 9, "velocity": 79}, {"time": 1944, "pitch": 68, "duration": 8, "velocity": 77}, {"time": 1950, "pitch": 52, "duration": 14, "velocity": 61}, {"time": 1956, "pitch": 57, "duration": 6, "velocity": 85}, {"time": 1956, "pitch": 64, "duration": 1, "velocity": 35}, {"time": 1962, "pitch": 61, "duration": 15, "velocity": 66}, {"time": 1962, "pitch": 64, "duration": 16, "velocity": 68}, {"time": 1962, "pitch": 68, "duration": 16, "velocity": 88}, {"time": 1974, "pitch": 52, "duration": 6, "velocity": 81}, {"time": 1980, "pitch": 61, "duration": 12, "velocity": 96}, {"time": 1980, "pitch": 64, "duration": 12, "velocity": 70}, {"time": 1980, "pitch": 68, "duration": 4, "velocity": 67}, {"time": 1986, "pitch": 57, "duration": 5, "velocity": 81}, {"time": 1992, "pitch": 49, "duration": 22, "velocity": 78}, {"time": 1998, "pitch": 56, "duration": 7, "velocity": 60}, {"time": 2004, "pitch": 61, "duration": 17, "velocity": 58}, {"time": 2004, "pitch": 64, "duration": 18, "velocity": 69}, {"time": 2010, "pitch": 56, "duration": 13, "velocity": 92}, {"time": 2022, "pitch": 49, "duration": 8, "velocity": 89}, {"time": 2028, "pitch": 64, "duration": 12, "velocity": 89}, {"time": 2034, "pitch": 61, "duration": 5, "velocity": 89}, {"time": 2037, "pitch": 56, "duration": 3, "velocity": 83}, {"time": 2040, "pitch": 40, "duration": 37, "velocity": 81}, {"time": 2046, "pitch": 47, "duration": 30, "velocity": 61}, {"time": 2052, "pitch": 64, "duration": 21, "velocity": 90}, {"time": 2052, "pitch": 68, "duration": 21, "velocity": 93}, {"time": 2058, "pitch": 59, "duration": 14, "velocity": 83}, {"time": 2070, "pitch": 52, "duration": 7, "velocity": 64}, {"time": 2076, "pitch": 64, "duration": 3, "velocity": 99}, {"time": 2076, "pitch": 68, "duration": 3, "velocity": 97}, {"time": 2088, "pitch": 44, "duration": 28, "velocity": 69}, {"time": 2088, "pitch": 51, "duration": 26, "velocity": 81}, {"time": 2088, "pitch": 56, "duration": 10, "velocity": 86}, {"time": 2088, "pitch": 60, "duration": 13, "velocity": 97}, {"time": 2088, "pitch": 63, "duration": 14, "velocity": 89}, {"time": 2100, "pitch": 56, "duration": 2, "velocity": 53}, {"time": 2106, "pitch": 56, "duration": 12, "velocity": 90}, {"time": 2106, "pitch": 60, "duration": 13, "velocity": 99}, {"time": 2106, "pitch": 63, "duration": 14, "velocity": 93}, {"time": 2118, "pitch": 44, "duration": 15, "velocity": 63}, {"time": 2118, "pitch": 51, "duration": 13, "velocity": 73}, {"time": 2124, "pitch": 60, "duration": 10, "velocity": 122}, {"time": 2124, "pitch": 63, "duration": 11, "velocity": 127}, {"time": 2130, "pitch": 56, "duration": 5, "velocity": 55}, {"time": 2136, "pitch": 37, "duration": 36, "velocity": 93}, {"time": 2136, "pitch": 56, "duration": 10, "velocity": 90}, {"time": 2136, "pitch": 61, "duration": 6, "velocity": 74}, {"time": 2136, "pitch": 64, "duration": 9, "velocity": 75}, {"time": 2142, "pitch": 49, "duration": 10, "velocity": 73}, {"time": 2148, "pitch": 61, "duration": 9, "velocity": 69}, {"time": 2148, "pitch": 64, "duration": 10, "velocity": 79}, {"time": 2154, "pitch": 56, "duration": 8, "velocity": 78}, {"time": 2160, "pitch": 61, "duration": 7, "velocity": 63}, {"time": 2160, "pitch": 64, "duration": 8, "velocity": 69}, {"time": 2166, "pitch": 49, "duration": 7, "velocity": 52}, {"time": 2172, "pitch": 61, "duration": 6, "velocity": 107}, {"time": 2172, "pitch": 64, "duration": 7, "velocity": 90}, {"time": 2175, "pitch": 56, "duration": 2, "velocity": 76}, {"time": 2184, "pitch": 45, "duration": 36, "velocity": 74}, {"time": 2184, "pitch": 61, "duration": 6, "velocity": 97}, {"time": 2184, "pitch": 64, "duration": 7, "velocity": 92}, {"time": 2190, "pitch": 52, "duration": 8, "velocity": 46}, {"time": 2196, "pitch": 57, "duration": 9, "velocity": 90}, {"time": 2196, "pitch": 61, "duration": 8, "velocity": 99}, {"time": 2196, "pitch": 64, "duration": 9, "velocity": 88}, {"time": 2202, "pitch": 52, "duration": 9, "velocity": 53}, {"time": 2208, "pitch": 61, "duration": 7, "velocity": 102}, {"time": 2208, "pitch": 64, "duration": 9, "velocity": 82}, {"time": 2214, "pitch": 52, "duration": 5, "velocity": 59}, {"time": 2220, "pitch": 61, "duration": 7, "velocity": 99}, {"time": 2220, "pitch": 64, "duration": 5, "velocity": 86}, {"time": 2220, "pitch": 68, "duration": 5, "velocity": 89}, {"time": 2226, "pitch": 59, "duration": 4, "velocity": 77}, {"time": 2232, "pitch": 40, "duration": 38, "velocity": 71}, {"time": 2232, "pitch": 64, "duration": 8, "velocity": 99}, {"time": 2232, "pitch": 68, "duration": 8, "velocity": 112}, {"time": 2238, "pitch": 47, "duration": 32, "velocity": 61}, {"time": 2238, "pitch": 59, "duration": 7, "velocity": 72}, {"time": 2244, "pitch": 64, "duration": 9, "velocity": 93}, {"time": 2244, "pitch": 68, "duration": 9, "velocity": 93}, {"time": 2250, "pitch": 52, "duration": 10, "velocity": 48}, {"time": 2250, "pitch": 59, "duration": 7, "velocity": 68}, {"time": 2256, "pitch": 64, "duration": 8, "velocity": 95}, {"time": 2256, "pitch": 68, "duration": 10, "velocity": 96}, {"time": 2259, "pitch": 59, "duration": 5, "velocity": 35}, {"time": 2262, "pitch": 52, "duration": 8, "velocity": 77}, {"time": 2268, "pitch": 64, "duration": 5, "velocity": 99}, {"time": 2268, "pitch": 68, "duration": 5, "velocity": 99}, {"time": 2274, "pitch": 59, "duration": 2, "velocity": 75}, {"time": 2280, "pitch": 44, "duration": 28, "velocity": 102}, {"time": 2280, "pitch": 59, "duration": 5, "velocity": 89}, {"time": 2280, "pitch": 63, "duration": 7, "velocity": 107}, {"time": 2286, "pitch": 56, "duration": 5, "velocity": 76}, {"time": 2292, "pitch": 59, "duration": 2, "velocity": 81}, {"time": 2292, "pitch": 63, "duration": 7, "velocity": 96}, {"time": 2298, "pitch": 56, "duration": 3, "velocity": 78}, {"time": 2304, "pitch": 59, "duration": 6, "velocity": 76}, {"time": 2304, "pitch": 63, "duration": 6, "velocity": 88}, {"time": 2310, "pitch": 44, "duration": 12, "velocity": 71}, {"time": 2316, "pitch": 59, "duration": 7, "velocity": 107}, {"time": 2316, "pitch": 63, "duration": 11, "velocity": 122}, {"time": 2322, "pitch": 56, "duration": 5, "velocity": 89}, {"time": 2328, "pitch": 37, "duration": 36, "velocity": 93}, {"time": 2328, "pitch": 56, "duration": 10, "velocity": 90}, {"time": 2328, "pitch": 61, "duration": 6, "velocity": 74}, {"time": 2328, "pitch": 64, "duration": 9, "velocity": 75}, {"time": 2334, "pitch": 49, "duration": 10, "velocity": 73}, {"time": 2340, "pitch": 61, "duration": 9, "velocity": 69}, {"time": 2340, "pitch": 64, "duration": 10, "velocity": 79}, {"time": 2346, "pitch": 56, "duration": 8, "velocity": 78}, {"time": 2352, "pitch": 61, "duration": 7, "velocity": 63}, {"time": 2352, "pitch": 64, "duration": 8, "velocity": 69}, {"time": 2358, "pitch": 49, "duration": 7, "velocity": 52}, {"time": 2364, "pitch": 61, "duration": 6, "velocity": 107}, {"time": 2364, "pitch": 64, "duration": 7, "velocity": 90}, {"time": 2367, "pitch": 56, "duration": 2, "velocity": 76}, {"time": 2376, "pitch": 45, "duration": 36, "velocity": 74}, {"time": 2376, "pitch": 61, "duration": 6, "velocity": 97}, {"time": 2376, "pitch": 64, "duration": 7, "velocity": 92}, {"time": 2382, "pitch": 52, "duration": 8, "velocity": 46}, {"time": 2388, "pitch": 57, "duration": 9, "velocity": 90}, {"time": 2388, "pitch": 61, "duration": 8, "velocity": 99}, {"time": 2388, "pitch": 64, "duration": 9, "velocity": 88}, {"time": 2394, "pitch": 52, "duration": 9, "velocity": 53}, {"time": 2400, "pitch": 61, "duration": 7, "velocity": 102}, {"time": 2400, "pitch": 64, "duration": 9, "velocity": 82}, {"time": 2406, "pitch": 52, "duration": 5, "velocity": 59}, {"time": 2412, "pitch": 61, "duration": 7, "velocity": 99}, {"time": 2412, "pitch": 64, "duration": 5, "velocity": 86}, {"time": 2412, "pitch": 68, "duration": 5, "velocity": 89}, {"time": 2418, "pitch": 59, "duration": 4, "velocity": 77}, {"time": 2424, "pitch": 40, "duration": 38, "velocity": 71}, {"time": 2424, "pitch": 64, "duration": 8, "velocity": 99}, {"time": 2424, "pitch": 68, "duration": 8, "velocity": 112}, {"time": 2430, "pitch": 47, "duration": 32, "velocity": 61}, {"time": 2430, "pitch": 59, "duration": 7, "velocity": 72}, {"time": 2436, "pitch": 64, "duration": 9, "velocity": 93}, {"time": 2436, "pitch": 68, "duration": 9, "velocity": 93}, {"time": 2442, "pitch": 52, "duration": 10, "velocity": 48}, {"time": 2442, "pitch": 59, "duration": 7, "velocity": 68}, {"time": 2448, "pitch": 64, "duration": 8, "velocity": 95}, {"time": 2448, "pitch": 68, "duration": 10, "velocity": 96}, {"time": 2451, "pitch": 59, "duration": 5, "velocity": 35}, {"time": 2454, "pitch": 52, "duration": 8, "velocity": 77}, {"time": 2460, "pitch": 64, "duration": 5, "velocity": 99}, {"time": 2460, "pitch": 68, "duration": 5, "velocity": 99}, {"time": 2466, "pitch": 59, "duration": 2, "velocity": 75}, {"time": 2472, "pitch": 44, "duration": 5, "velocity": 100}, {"time": 2472, "pitch": 56, "duration": 3, "velocity": 96}, {"time": 2472, "pitch": 59, "duration": 2, "velocity": 85}, {"time": 2472, "pitch": 63, "duration": 3, "velocity": 96}, {"time": 2478, "pitch": 44, "duration": 4, "velocity": 38}, {"time": 2478, "pitch": 56, "duration": 4, "velocity": 66}, {"time": 2478, "pitch": 59, "duration": 2, "velocity": 58}, {"time": 2478, "pitch": 63, "duration": 4, "velocity": 59}, {"time": 2484, "pitch": 44, "duration": 4, "velocity": 86}, {"time": 2484, "pitch": 56, "duration": 3, "velocity": 85}, {"time": 2484, "pitch": 59, "duration": 3, "velocity": 70}, {"time": 2484, "pitch": 63, "duration": 4, "velocity": 79}, {"time": 2490, "pitch": 44, "duration": 4, "velocity": 75}, {"time": 2490, "pitch": 56, "duration": 4, "velocity": 89}, {"time": 2490, "pitch": 59, "duration": 4, "velocity": 71}, {"time": 2490, "pitch": 63, "duration": 4, "velocity": 76}, {"time": 2496, "pitch": 44, "duration": 4, "velocity": 102}, {"time": 2496, "pitch": 56, "duration": 3, "velocity": 107}, {"time": 2496, "pitch": 59, "duration": 3, "velocity": 92}, {"time": 2496, "pitch": 63, "duration": 3, "velocity": 99}, {"time": 2502, "pitch": 44, "duration": 3, "velocity": 112}, {"time": 2502, "pitch": 56, "duration": 3, "velocity": 100}, {"time": 2502, "pitch": 59, "duration": 3, "velocity": 96}, {"time": 2502, "pitch": 63, "duration": 3, "velocity": 99}, {"time": 2508, "pitch": 44, "duration": 3, "velocity": 127}, {"time": 2508, "pitch": 56, "duration": 3, "velocity": 100}, {"time": 2508, "pitch": 59, "duration": 2, "velocity": 95}, {"time": 2508, "pitch": 63, "duration": 3, "velocity": 100}, {"time": 2514, "pitch": 44, "duration": 3, "velocity": 127}, {"time": 2514, "pitch": 56, "duration": 3, "velocity": 100}, {"time": 2514, "pitch": 59, "duration": 1, "velocity": 89}, {"time": 2514, "pitch": 63, "duration": 1, "velocity": 95}, {"time": 2520, "pitch": 49, "duration": 15, "velocity": 127}, {"time": 2520, "pitch": 56, "duration": 4, "velocity": 100}, {"time": 2520, "pitch": 61, "duration": 4, "velocity": 102}, {"time": 2520, "pitch": 64, "duration": 5, "velocity": 96}, {"time": 2526, "pitch": 56, "duration": 4, "velocity": 73}, {"time": 2532, "pitch": 56, "duration": 1, "velocity": 73}, {"time": 2532, "pitch": 61, "duration": 7, "velocity": 127}, {"time": 2532, "pitch": 64, "duration": 7, "velocity": 117}, {"time": 2538, "pitch": 49, "duration": 10, "velocity": 102}, {"time": 2544, "pitch": 56, "duration": 7, "velocity": 102}, {"time": 2544, "pitch": 61, "duration": 7, "velocity": 127}, {"time": 2544, "pitch": 64, "duration": 6, "velocity": 100}, {"time": 2550, "pitch": 49, "duration": 9, "velocity": 112}, {"time": 2556, "pitch": 56, "duration": 5, "velocity": 112}, {"time": 2556, "pitch": 61, "duration": 5, "velocity": 117}, {"time": 2556, "pitch": 63, "duration": 3, "velocity": 79}, {"time": 2556, "pitch": 64, "duration": 5, "velocity": 93}, {"time": 2562, "pitch": 49, "duration": 6, "velocity": 127}, {"time": 2568, "pitch": 45, "duration": 43, "velocity": 85}, {"time": 2568, "pitch": 57, "duration": 8, "velocity": 102}, {"time": 2568, "pitch": 61, "duration": 8, "velocity": 122}, {"time": 2568, "pitch": 64, "duration": 7, "velocity": 97}, {"time": 2574, "pitch": 52, "duration": 9, "velocity": 60}, {"time": 2580, "pitch": 57, "duration": 8, "velocity": 99}, {"time": 2580, "pitch": 61, "duration": 8, "velocity": 112}, {"time": 2580, "pitch": 64, "duration": 8, "velocity": 95}, {"time": 2586, "pitch": 52, "duration": 9, "velocity": 102}, {"time": 2592, "pitch": 57, "duration": 8, "velocity": 95}, {"time": 2592, "pitch": 61, "duration": 9, "velocity": 127}, {"time": 2592, "pitch": 64, "duration": 9, "velocity": 93}, {"time": 2598, "pitch": 52, "duration": 8, "velocity": 100}, {"time": 2604, "pitch": 61, "duration": 5, "velocity": 127}, {"time": 2604, "pitch": 64, "duration": 5, "velocity": 99}, {"time": 2610, "pitch": 52, "duration": 2, "velocity": 82}, {"time": 2616, "pitch": 40, "duration": 43, "velocity": 83}, {"time": 2616, "pitch": 59, "duration": 8, "velocity": 93}, {"time": 2616, "pitch": 64, "duration": 8, "velocity": 100}, {"time": 2616, "pitch": 68, "duration": 8, "velocity": 112}, {"time": 2622, "pitch": 52, "duration": 9, "velocity": 97}, {"time": 2628, "pitch": 59, "duration": 9, "velocity": 112}, {"time": 2628, "pitch": 64, "duration": 9, "velocity": 122}, {"time": 2628, "pitch": 68, "duration": 9, "velocity": 122}, {"time": 2634, "pitch": 52, "duration": 10, "velocity": 97}, {"time": 2640, "pitch": 59, "duration": 8, "velocity": 97}, {"time": 2640, "pitch": 64, "duration": 8, "velocity": 117}, {"time": 2640, "pitch": 68, "duration": 8, "velocity": 127}, {"time": 2646, "pitch": 52, "duration": 9, "velocity": 76}, {"time": 2652, "pitch": 64, "duration": 5, "velocity": 122}, {"time": 2652, "pitch": 68, "duration": 4, "velocity": 122}, {"time": 2658, "pitch": 52, "duration": 5, "velocity": 99}, {"time": 2664, "pitch": 44, "duration": 15, "velocity": 122}, {"time": 2664, "pitch": 56, "duration": 3, "velocity": 100}, {"time": 2664, "pitch": 59, "duration": 5, "velocity": 107}, {"time": 2664, "pitch": 63, "duration": 5, "velocity": 112}, {"time": 2670, "pitch": 56, "duration": 4, "velocity": 99}, {"time": 2676, "pitch": 56, "duration": 7, "velocity": 112}, {"time": 2676, "pitch": 59, "duration": 6, "velocity": 107}, {"time": 2676, "pitch": 63, "duration": 6, "velocity": 122}, {"time": 2682, "pitch": 44, "duration": 11, "velocity": 100}, {"time": 2688, "pitch": 56, "duration": 8, "velocity": 122}, {"time": 2688, "pitch": 59, "duration": 6, "velocity": 117}, {"time": 2688, "pitch": 63, "duration": 7, "velocity": 117}, {"time": 2694, "pitch": 44, "duration": 9, "velocity": 76}, {"time": 2700, "pitch": 59, "duration": 11, "velocity": 117}, {"time": 2700, "pitch": 63, "duration": 12, "velocity": 127}, {"time": 2706, "pitch": 44, "duration": 6, "velocity": 96}, {"time": 2706, "pitch": 56, "duration": 5, "velocity": 107}, {"time": 2712, "pitch": 49, "duration": 15, "velocity": 127}, {"time": 2712, "pitch": 56, "duration": 4, "velocity": 100}, {"time": 2712, "pitch": 61, "duration": 4, "velocity": 102}, {"time": 2712, "pitch": 64, "duration": 5, "velocity": 96}, {"time": 2718, "pitch": 56, "duration": 4, "velocity": 73}, {"time": 2724, "pitch": 56, "duration": 1, "velocity": 73}, {"time": 2724, "pitch": 61, "duration": 7, "velocity": 127}, {"time": 2724, "pitch": 64, "duration": 7, "velocity": 117}, {"time": 2730, "pitch": 49, "duration": 10, "velocity": 102}, {"time": 2736, "pitch": 56, "duration": 7, "velocity": 102}, {"time": 2736, "pitch": 61, "duration": 7, "velocity": 127}, {"time": 2736, "pitch": 64, "duration": 6, "velocity": 100}, {"time": 2742, "pitch": 49, "duration": 9, "velocity": 112}, {"time": 2748, "pitch": 56, "duration": 5, "velocity": 112}, {"time": 2748, "pitch": 61, "duration": 5, "velocity": 117}, {"time": 2748, "pitch": 63, "duration": 3, "velocity": 79}, {"time": 2748, "pitch": 64, "duration": 5, "velocity": 93}, {"time": 2754, "pitch": 49, "duration": 6, "velocity": 127}, {"time": 2760, "pitch": 45, "duration": 43, "velocity": 85}, {"time": 2760, "pitch": 57, "duration": 8, "velocity": 102}, {"time": 2760, "pitch": 61, "duration": 8, "velocity": 122}, {"time": 2760, "pitch": 64, "duration": 7, "velocity": 97}, {"time": 2766, "pitch": 52, "duration": 9, "velocity": 60}, {"time": 2772, "pitch": 57, "duration": 8, "velocity": 99}, {"time": 2772, "pitch": 61, "duration": 8, "velocity": 112}, {"time": 2772, "pitch": 64, "duration": 8, "velocity": 95}, {"time": 2778, "pitch": 52, "duration": 9, "velocity": 102}, {"time": 2784, "pitch": 57, "duration": 8, "velocity": 95}, {"time": 2784, "pitch": 61, "duration": 9, "velocity": 127}, {"time": 2784, "pitch": 64, "duration": 9, "velocity": 93}, {"time": 2790, "pitch": 52, "duration": 8, "velocity": 100}, {"time": 2796, "pitch": 61, "duration": 5, "velocity": 127}, {"time": 2796, "pitch": 64, "duration": 5, "velocity": 99}, {"time": 2802, "pitch": 52, "duration": 2, "velocity": 82}, {"time": 2808, "pitch": 40, "duration": 43, "velocity": 83}, {"time": 2808, "pitch": 59, "duration": 8, "velocity": 93}, {"time": 2808, "pitch": 64, "duration": 8, "velocity": 100}, {"time": 2808, "pitch": 68, "duration": 8, "velocity": 112}, {"time": 2814, "pitch": 52, "duration": 9, "velocity": 97}, {"time": 2820, "pitch": 59, "duration": 9, "velocity": 112}, {"time": 2820, "pitch": 64, "duration": 9, "velocity": 122}, {"time": 2820, "pitch": 68, "duration": 9, "velocity": 122}, {"time": 2826, "pitch": 52, "duration": 10, "velocity": 97}, {"time": 2832, "pitch": 59, "duration": 8, "velocity": 97}, {"time": 2832, "pitch": 64, "duration": 8, "velocity": 117}, {"time": 2832, "pitch": 68, "duration": 8, "velocity": 127}, {"time": 2838, "pitch": 52, "duration": 9, "velocity": 76}, {"time": 2844, "pitch": 64, "duration": 5, "velocity": 122}, {"time": 2844, "pitch": 68, "duration": 4, "velocity": 122}, {"time": 2850, "pitch": 52, "duration": 5, "velocity": 99}, {"time": 2856, "pitch": 44, "duration": 50, "velocity": 107}, {"time": 2856, "pitch": 56, "duration": 51, "velocity": 100}, {"time": 2856, "pitch": 59, "duration": 51, "velocity": 112}, {"time": 2856, "pitch": 63, "duration": 51, "velocity": 102}, {"time": 2904, "pitch": 45, "duration": 37, "velocity": 64}, {"time": 2904, "pitch": 57, "duration": 1, "velocity": 50}, {"time": 2904, "pitch": 61, "duration": 13, "velocity": 89}, {"time": 2904, "pitch": 64, "duration": 17, "velocity": 77}, {"time": 2904, "pitch": 68, "duration": 15, "velocity": 79}, {"time": 2910, "pitch": 52, "duration": 29, "velocity": 59}, {"time": 2916, "pitch": 57, "duration": 7, "velocity": 36}, {"time": 2922, "pitch": 61, "duration": 20, "velocity": 59}, {"time": 2922, "pitch": 64, "duration": 20, "velocity": 57}, {"time": 2922, "pitch": 68, "duration": 20, "velocity": 66}, {"time": 2952, "pitch": 40, "duration": 36, "velocity": 76}, {"time": 2958, "pitch": 52, "duration": 34, "velocity": 55}, {"time": 2964, "pitch": 56, "duration": 33, "velocity": 52}, {"time": 2970, "pitch": 59, "duration": 22, "velocity": 67}, {"time": 2970, "pitch": 64, "duration": 21, "velocity": 66}, {"time": 3000, "pitch": 44, "duration": 37, "velocity": 73}, {"time": 3000, "pitch": 59, "duration": 13, "velocity": 65}, {"time": 3000, "pitch": 63, "duration": 15, "velocity": 69}, {"time": 3009, "pitch": 56, "duration": 32, "velocity": 46}, {"time": 3018, "pitch": 59, "duration": 21, "velocity": 60}, {"time": 3018, "pitch": 63, "duration": 22, "velocity": 65}, {"time": 3048, "pitch": 49, "duration": 28, "velocity": 69}, {"time": 3048, "pitch": 56, "duration": 1, "velocity": 34}, {"time": 3048, "pitch": 61, "duration": 14, "velocity": 66}, {"time": 3048, "pitch": 64, "duration": 11, "velocity": 63}, {"time": 3060, "pitch": 56, "duration": 9, "velocity": 36}, {"time": 3066, "pitch": 61, "duration": 15, "velocity": 61}, {"time": 3066, "pitch": 64, "duration": 10, "velocity": 58}, {"time": 3078, "pitch": 49, "duration": 6, "velocity": 61}, {"time": 3084, "pitch": 61, "duration": 12, "velocity": 71}, {"time": 3084, "pitch": 64, "duration": 12, "velocity": 65}, {"time": 3090, "pitch": 56, "duration": 6, "velocity": 65}, {"time": 3096, "pitch": 45, "duration": 37, "velocity": 64}, {"time": 3096, "pitch": 57, "duration": 1, "velocity": 50}, {"time": 3096, "pitch": 61, "duration": 13, "velocity": 89}, {"time": 3096, "pitch": 64, "duration": 17, "velocity": 77}, {"time": 3096, "pitch": 68, "duration": 15, "velocity": 79}, {"time": 3102, "pitch": 52, "duration": 29, "velocity": 59}, {"time": 3108, "pitch": 57, "duration": 7, "velocity": 36}, {"time": 3114, "pitch": 61, "duration": 20, "velocity": 59}, {"time": 3114, "pitch": 64, "duration": 20, "velocity": 57}, {"time": 3114, "pitch": 68, "duration": 20, "velocity": 66}, {"time": 3144, "pitch": 40, "duration": 36, "velocity": 76}, {"time": 3150, "pitch": 52, "duration": 34, "velocity": 55}, {"time": 3156, "pitch": 56, "duration": 33, "velocity": 52}, {"time": 3162, "pitch": 59, "duration": 22, "velocity": 67}, {"time": 3162, "pitch": 64, "duration": 21, "velocity": 66}, {"time": 3192, "pitch": 44, "duration": 37, "velocity": 73}, {"time": 3192, "pitch": 59, "duration": 13, "velocity": 65}, {"time": 3192, "pitch": 63, "duration": 15, "velocity": 69}, {"time": 3201, "pitch": 56, "duration": 32, "velocity": 46}, {"time": 3210, "pitch": 59, "duration": 21, "velocity": 60}, {"time": 3210, "pitch": 63, "duration": 22, "velocity": 65}, {"time": 3240, "pitch": 44, "duration": 11, "velocity": 127}, {"time": 3240, "pitch": 56, "duration": 3, "velocity": 112}, {"time": 3240, "pitch": 60, "duration": 2, "velocity": 127}, {"time": 3240, "pitch": 63, "duration": 3, "velocity": 112}, {"time": 3246, "pitch": 56, "duration": 3, "velocity": 79}, {"time": 3246, "pitch": 60, "duration": 2, "velocity": 69}, {"time": 3246, "pitch": 63, "duration": 3, "velocity": 88}, {"time": 3252, "pitch": 44, "duration": 3, "velocity": 59}, {"time": 3252, "pitch": 51, "duration": 3, "velocity": 69}, {"time": 3252, "pitch": 56, "duration": 3, "velocity": 96}, {"time": 3252, "pitch": 60, "duration": 2, "velocity": 97}, {"time": 3252, "pitch": 63, "duration": 3, "velocity": 96}, {"time": 3258, "pitch": 44, "duration": 3, "velocity": 89}, {"time": 3258, "pitch": 51, "duration": 3, "velocity": 88}, {"time": 3258, "pitch": 56, "duration": 3, "velocity": 96}, {"time": 3258, "pitch": 60, "duration": 2, "velocity": 97}, {"time": 3258, "pitch": 63, "duration": 3, "velocity": 99}, {"time": 3264, "pitch": 44, "duration": 3, "velocity": 95}, {"time": 3264, "pitch": 51, "duration": 2, "velocity": 102}, {"time": 3264, "pitch": 56, "duration": 3, "velocity": 99}, {"time": 3264, "pitch": 60, "duration": 2, "velocity": 117}, {"time": 3264, "pitch": 63, "duration": 3, "velocity": 100}, {"time": 3270, "pitch": 44, "duration": 2, "velocity": 95}, {"time": 3270, "pitch": 51, "duration": 2, "velocity": 95}, {"time": 3270, "pitch": 56, "duration": 2, "velocity": 107}, {"time": 3270, "pitch": 60, "duration": 2, "velocity": 99}, {"time": 3270, "pitch": 63, "duration": 2, "velocity": 99}, {"time": 3276, "pitch": 44, "duration": 2, "velocity": 107}, {"time": 3276, "pitch": 51, "duration": 2, "velocity": 117}, {"time": 3276, "pitch": 56, "duration": 2, "velocity": 99}, {"time": 3276, "pitch": 60, "duration": 1, "velocity": 93}, {"time": 3276, "pitch": 63, "duration": 2, "velocity": 97}, {"time": 3282, "pitch": 44, "duration": 6, "velocity": 117}, {"time": 3282, "pitch": 51, "duration": 6, "velocity": 107}, {"time": 3282, "pitch": 56, "duration": 6, "velocity": 122}, {"time": 3282, "pitch": 60, "duration": 5, "velocity": 127}, {"time": 3282, "pitch": 63, "duration": 6, "velocity": 122}, {"time": 3288, "pitch": 37, "duration": 36, "velocity": 93}, {"time": 3288, "pitch": 56, "duration": 10, "velocity": 90}, {"time": 3288, "pitch": 61, "duration": 6, "velocity": 74}, {"time": 3288, "pitch": 64, "duration": 9, "velocity": 75}, {"time": 3294, "pitch": 49, "duration": 10, "velocity": 73}, {"time": 3300, "pitch": 61, "duration": 9, "velocity": 69}, {"time": 3300, "pitch": 64, "duration": 10, "velocity": 79}, {"time": 3306, "pitch": 56, "duration": 8, "velocity": 78}, {"time": 3312, "pitch": 61, "duration": 7, "velocity": 63}, {"time": 3312, "pitch": 64, "duration": 8, "velocity": 69}, {"time": 3318, "pitch": 49, "duration": 7, "velocity": 52}, {"time": 3324, "pitch": 61, "duration": 6, "velocity": 107}, {"time": 3324, "pitch": 64, "duration": 7, "velocity": 90}, {"time": 3327, "pitch": 56, "duration": 2, "velocity": 76}, {"time": 3336, "pitch": 45, "duration": 36, "velocity": 74}, {"time": 3336, "pitch": 61, "duration": 6, "velocity": 97}, {"time": 3336, "pitch": 64, "duration": 7, "velocity": 92}, {"time": 3342, "pitch": 52, "duration": 8, "velocity": 46}, {"time": 3348, "pitch": 57, "duration": 9, "velocity": 90}, {"time": 3348, "pitch": 61, "duration": 8, "velocity": 99}, {"time": 3348, "pitch": 64, "duration": 9, "velocity": 88}, {"time": 3354, "pitch": 52, "duration": 9, "velocity": 53}, {"time": 3360, "pitch": 61, "duration": 7, "velocity": 102}, {"time": 3360, "pitch": 64, "duration": 9, "velocity": 82}, {"time": 3366, "pitch": 52, "duration": 5, "velocity": 59}, {"time": 3372, "pitch": 61, "duration": 7, "velocity": 99}, {"time": 3372, "pitch": 64, "duration": 5, "velocity": 86}, {"time": 3372, "pitch": 68, "duration": 5, "velocity": 89}, {"time": 3378, "pitch": 59, "duration": 4, "velocity": 77}, {"time": 3384, "pitch": 40, "duration": 38, "velocity": 71}, {"time": 3384, "pitch": 64, "duration": 8, "velocity": 99}, {"time": 3384, "pitch": 68, "duration": 8, "velocity": 112}, {"time": 3390, "pitch": 47, "duration": 32, "velocity": 61}, {"time": 3390, "pitch": 59, "duration": 7, "velocity": 72}, {"time": 3396, "pitch": 64, "duration": 9, "velocity": 93}, {"time": 3396, "pitch": 68, "duration": 9, "velocity": 93}, {"time": 3402, "pitch": 52, "duration": 10, "velocity": 48}, {"time": 3402, "pitch": 59, "duration": 7, "velocity": 68}, {"time": 3408, "pitch": 64, "duration": 8, "velocity": 95}, {"time": 3408, "pitch": 68, "duration": 10, "velocity": 96}, {"time": 3411, "pitch": 59, "duration": 5, "velocity": 35}, {"time": 3414, "pitch": 52, "duration": 8, "velocity": 77}, {"time": 3420, "pitch": 64, "duration": 5, "velocity": 99}, {"time": 3420, "pitch": 68, "duration": 5, "velocity": 99}, {"time": 3426, "pitch": 59, "duration": 2, "velocity": 75}, {"time": 3432, "pitch": 44, "duration": 28, "velocity": 102}, {"time": 3432, "pitch": 59, "duration": 5, "velocity": 89}, {"time": 3432, "pitch": 63, "duration": 7, "velocity": 107}, {"time": 3438, "pitch": 56, "duration": 5, "velocity": 76}, {"time": 3444, "pitch": 59, "duration": 2, "velocity": 81}, {"time": 3444, "pitch": 63, "duration": 7, "velocity": 96}, {"time": 3450, "pitch": 56, "duration": 3, "velocity": 78}, {"time": 3456, "pitch": 59, "duration": 6, "velocity": 76}, {"time": 3456, "pitch": 63, "duration": 6, "velocity": 88}, {"time": 3462, "pitch": 44, "duration": 12, "velocity": 71}, {"time": 3468, "pitch": 59, "duration": 7, "velocity": 107}, {"time": 3468, "pitch": 63, "duration": 11, "velocity": 122}, {"time": 3474, "pitch": 56, "duration": 5, "velocity": 89}, {"time": 3480, "pitch": 37, "duration": 36, "velocity": 93}, {"time": 3480, "pitch": 56, "duration": 10, "velocity": 90}, {"time": 3480, "pitch": 61, "duration": 6, "velocity": 74}, {"time": 3480, "pitch": 64, "duration": 9, "velocity": 75}, {"time": 3486, "pitch": 49, "duration": 10, "velocity": 73}, {"time": 3492, "pitch": 61, "duration": 9, "velocity": 69}, {"time": 3492, "pitch": 64, "duration": 10, "velocity": 79}, {"time": 3498, "pitch": 56, "duration": 8, "velocity": 78}, {"time": 3504, "pitch": 61, "duration": 7, "velocity": 63}, {"time": 3504, "pitch": 64, "duration": 8, "velocity": 69}, {"time": 3510, "pitch": 49, "duration": 7, "velocity": 52}, {"time": 3516, "pitch": 61, "duration": 6, "velocity": 107}, {"time": 3516, "pitch": 64, "duration": 7, "velocity": 90}, {"time": 3519, "pitch": 56, "duration": 2, "velocity": 76}, {"time": 3528, "pitch": 45, "duration": 36, "velocity": 74}, {"time": 3528, "pitch": 61, "duration": 6, "velocity": 97}, {"time": 3528, "pitch": 64, "duration": 7, "velocity": 92}, {"time": 3534, "pitch": 52, "duration": 8, "velocity": 46}, {"time": 3540, "pitch": 57, "duration": 9, "velocity": 90}, {"time": 3540, "pitch": 61, "duration": 8, "velocity": 99}, {"time": 3540, "pitch": 64, "duration": 9, "velocity": 88}, {"time": 3546, "pitch": 52, "duration": 9, "velocity": 53}, {"time": 3552, "pitch": 61, "duration": 7, "velocity": 102}, {"time": 3552, "pitch": 64, "duration": 9, "velocity": 82}, {"time": 3558, "pitch": 52, "duration": 5, "velocity": 59}, {"time": 3564, "pitch": 61, "duration": 7, "velocity": 99}, {"time": 3564, "pitch": 64, "duration": 5, "velocity": 86}, {"time": 3564, "pitch": 68, "duration": 5, "velocity": 89}, {"time": 3570, "pitch": 59, "duration": 4, "velocity": 77}, {"time": 3576, "pitch": 40, "duration": 38, "velocity": 71}, {"time": 3576, "pitch": 64, "duration": 8, "velocity": 99}, {"time": 3576, "pitch": 68, "duration": 8, "velocity": 112}, {"time": 3582, "pitch": 47, "duration": 32, "velocity": 61}, {"time": 3582, "pitch": 59, "duration": 7, "velocity": 72}, {"time": 3588, "pitch": 64, "duration": 9, "velocity": 93}, {"time": 3588, "pitch": 68, "duration": 9, "velocity": 93}, {"time": 3594, "pitch": 52, "duration": 10, "velocity": 48}, {"time": 3594, "pitch": 59, "duration": 7, "velocity": 68}, {"time": 3600, "pitch": 64, "duration": 8, "velocity": 95}, {"time": 3600, "pitch": 68, "duration": 10, "velocity": 96}, {"time": 3603, "pitch": 59, "duration": 5, "velocity": 35}, {"time": 3606, "pitch": 52, "duration": 8, "velocity": 77}, {"time": 3612, "pitch": 64, "duration": 5, "velocity": 99}, {"time": 3612, "pitch": 68, "duration": 5, "velocity": 99}, {"time": 3618, "pitch": 59, "duration": 2, "velocity": 75}, {"time": 3624, "pitch": 44, "duration": 5, "velocity": 100}, {"time": 3624, "pitch": 56, "duration": 3, "velocity": 96}, {"time": 3624, "pitch": 59, "duration": 2, "velocity": 85}, {"time": 3624, "pitch": 63, "duration": 3, "velocity": 96}, {"time": 3630, "pitch": 44, "duration": 4, "velocity": 38}, {"time": 3630, "pitch": 56, "duration": 4, "velocity": 66}, {"time": 3630, "pitch": 59, "duration": 2, "velocity": 58}, {"time": 3630, "pitch": 63, "duration": 4, "velocity": 59}, {"time": 3636, "pitch": 44, "duration": 4, "velocity": 86}, {"time": 3636, "pitch": 56, "duration": 3, "velocity": 85}, {"time": 3636, "pitch": 59, "duration": 3, "velocity": 70}, {"time": 3636, "pitch": 63, "duration": 4, "velocity": 79}, {"time": 3642, "pitch": 44, "duration": 4, "velocity": 75}, {"time": 3642, "pitch": 56, "duration": 4, "velocity": 89}, {"time": 3642, "pitch": 59, "duration": 4, "velocity": 71}, {"time": 3642, "pitch": 63, "duration": 4, "velocity": 76}, {"time": 3648, "pitch": 44, "duration": 4, "velocity": 102}, {"time": 3648, "pitch": 56, "duration": 3, "velocity": 107}, {"time": 3648, "pitch": 59, "duration": 3, "velocity": 92}, {"time": 3648, "pitch": 63, "duration": 3, "velocity": 99}, {"time": 3654, "pitch": 44, "duration": 3, "velocity": 112}, {"time": 3654, "pitch": 56, "duration": 3, "velocity": 100}, {"time": 3654, "pitch": 59, "duration": 3, "velocity": 96}, {"time": 3654, "pitch": 63, "duration": 3, "velocity": 99}, {"time": 3660, "pitch": 44, "duration": 3, "velocity": 127}, {"time": 3660, "pitch": 56, "duration": 3, "velocity": 100}, {"time": 3660, "pitch": 59, "duration": 2, "velocity": 95}, {"time": 3660, "pitch": 63, "duration": 3, "velocity": 100}, {"time": 3666, "pitch": 44, "duration": 3, "velocity": 127}, {"time": 3666, "pitch": 56, "duration": 3, "velocity": 100}, {"time": 3666, "pitch": 59, "duration": 1, "velocity": 89}, {"time": 3666, "pitch": 63, "duration": 1, "velocity": 95}, {"time": 3672, "pitch": 49, "duration": 15, "velocity": 127}, {"time": 3672, "pitch": 56, "duration": 4, "velocity": 100}, {"time": 3672, "pitch": 61, "duration": 4, "velocity": 102}, {"time": 3672, "pitch": 64, "duration": 5, "velocity": 96}, {"time": 3678, "pitch": 56, "duration": 4, "velocity": 73}, {"time": 3684, "pitch": 56, "duration": 1, "velocity": 73}, {"time": 3684, "pitch": 61, "duration": 7, "velocity": 127}, {"time": 3684, "pitch": 64, "duration": 7, "velocity": 117}, {"time": 3690, "pitch": 49, "duration": 10, "velocity": 102}, {"time": 3696, "pitch": 56, "duration": 7, "velocity": 102}, {"time": 3696, "pitch": 61, "duration": 7, "velocity": 127}, {"time": 3696, "pitch": 64, "duration": 6, "velocity": 100}, {"time": 3702, "pitch": 49, "duration": 9, "velocity": 112}, {"time": 3708, "pitch": 56, "duration": 5, "velocity": 112}, {"time": 3708, "pitch": 61, "duration": 5, "velocity": 117}, {"time": 3708, "pitch": 63, "duration": 3, "velocity": 79}, {"time": 3708, "pitch": 64, "duration": 5, "velocity": 93}, {"time": 3714, "pitch": 49, "duration": 6, "velocity": 127}, {"time": 3720, "pitch": 45, "duration": 43, "velocity": 85}, {"time": 3720, "pitch": 57, "duration": 8, "velocity": 102}, {"time": 3720, "pitch": 61, "duration": 8, "velocity": 122}, {"time": 3720, "pitch": 64, "duration": 7, "velocity": 97}, {"time": 3726, "pitch": 52, "duration": 9, "velocity": 60}, {"time": 3732, "pitch": 57, "duration": 8, "velocity": 99}, {"time": 3732, "pitch": 61, "duration": 8, "velocity": 112}, {"time": 3732, "pitch": 64, "duration": 8, "velocity": 95}, {"time": 3738, "pitch": 52, "duration": 9, "velocity": 102}, {"time": 3744, "pitch": 57, "duration": 8, "velocity": 95}, {"time": 3744, "pitch": 61, "duration": 9, "velocity": 127}, {"time": 3744, "pitch": 64, "duration": 9, "velocity": 93}, {"time": 3750, "pitch": 52, "duration": 8, "velocity": 100}, {"time": 3756, "pitch": 61, "duration": 5, "velocity": 127}, {"time": 3756, "pitch": 64, "duration": 5, "velocity": 99}, {"time": 3762, "pitch": 52, "duration": 2, "velocity": 82}, {"time": 3768, "pitch": 40, "duration": 43, "velocity": 83}, {"time": 3768, "pitch": 59, "duration": 8, "velocity": 93}, {"time": 3768, "pitch": 64, "duration": 8, "velocity": 100}, {"time": 3768, "pitch": 68, "duration": 8, "velocity": 112}, {"time": 3774, "pitch": 52, "duration": 9, "velocity": 97}, {"time": 3780, "pitch": 59, "duration": 9, "velocity": 112}, {"time": 3780, "pitch": 64, "duration": 9, "velocity": 122}, {"time": 3780, "pitch": 68, "duration": 9, "velocity": 122}, {"time": 3786, "pitch": 52, "duration": 10, "velocity": 97}, {"time": 3792, "pitch": 59, "duration": 8, "velocity": 97}, {"time": 3792, "pitch": 64, "duration": 8, "velocity": 117}, {"time": 3792, "pitch": 68, "duration": 8, "velocity": 127}, {"time": 3798, "pitch": 52, "duration": 9, "velocity": 76}, {"time": 3804, "pitch": 64, "duration": 5, "velocity": 122}, {"time": 3804, "pitch": 68, "duration": 4, "velocity": 122}, {"time": 3810, "pitch": 52, "duration": 5, "velocity": 99}, {"time": 3816, "pitch": 44, "duration": 15, "velocity": 122}, {"time": 3816, "pitch": 56, "duration": 3, "velocity": 100}, {"time": 3816, "pitch": 59, "duration": 5, "velocity": 107}, {"time": 3816, "pitch": 63, "duration": 5, "velocity": 112}, {"time": 3822, "pitch": 56, "duration": 4, "velocity": 99}, {"time": 3828, "pitch": 56, "duration": 7, "velocity": 112}, {"time": 3828, "pitch": 59, "duration": 6, "velocity": 107}, {"time": 3828, "pitch": 63, "duration": 6, "velocity": 122}, {"time": 3834, "pitch": 44, "duration": 11, "velocity": 100}, {"time": 3840, "pitch": 56, "duration": 8, "velocity": 122}, {"time": 3840, "pitch": 59, "duration": 6, "velocity": 117}, {"time": 3840, "pitch": 63, "duration": 7, "velocity": 117}, {"time": 3846, "pitch": 44, "duration": 9, "velocity": 76}, {"time": 3852, "pitch": 59, "duration": 11, "velocity": 117}, {"time": 3852, "pitch": 63, "duration": 12, "velocity": 127}, {"time": 3858, "pitch": 44, "duration": 6, "velocity": 96}, {"time": 3858, "pitch": 56, "duration": 5, "velocity": 107}, {"time": 3864, "pitch": 49, "duration": 15, "velocity": 127}, {"time": 3864, "pitch": 56, "duration": 4, "velocity": 100}, {"time": 3864, "pitch": 61, "duration": 4, "velocity": 102}, {"time": 3864, "pitch": 64, "duration": 5, "velocity": 96}, {"time": 3870, "pitch": 56, "duration": 4, "velocity": 73}, {"time": 3876, "pitch": 56, "duration": 1, "velocity": 73}, {"time": 3876, "pitch": 61, "duration": 7, "velocity": 127}, {"time": 3876, "pitch": 64, "duration": 7, "velocity": 117}, {"time": 3882, "pitch": 49, "duration": 10, "velocity": 102}, {"time": 3888, "pitch": 56, "duration": 7, "velocity": 102}, {"time": 3888, "pitch": 61, "duration": 7, "velocity": 127}, {"time": 3888, "pitch": 64, "duration": 6, "velocity": 100}, {"time": 3894, "pitch": 49, "duration": 9, "velocity": 112}, {"time": 3900, "pitch": 56, "duration": 5, "velocity": 112}, {"time": 3900, "pitch": 61, "duration": 5, "velocity": 117}, {"time": 3900, "pitch": 63, "duration": 3, "velocity": 79}, {"time": 3900, "pitch": 64, "duration": 5, "velocity": 93}, {"time": 3906, "pitch": 49, "duration": 6, "velocity": 127}, {"time": 3912, "pitch": 45, "duration": 43, "velocity": 85}, {"time": 3912, "pitch": 57, "duration": 8, "velocity": 102}, {"time": 3912, "pitch": 61, "duration": 8, "velocity": 122}, {"time": 3912, "pitch": 64, "duration": 7, "velocity": 97}, {"time": 3918, "pitch": 52, "duration": 9, "velocity": 60}, {"time": 3924, "pitch": 57, "duration": 8, "velocity": 99}, {"time": 3924, "pitch": 61, "duration": 8, "velocity": 112}, {"time": 3924, "pitch": 64, "duration": 8, "velocity": 95}, {"time": 3930, "pitch": 52, "duration": 9, "velocity": 102}, {"time": 3936, "pitch": 57, "duration": 8, "velocity": 95}, {"time": 3936, "pitch": 61, "duration": 9, "velocity": 127}, {"time": 3936, "pitch": 64, "duration": 9, "velocity": 93}, {"time": 3942, "pitch": 52, "duration": 8, "velocity": 100}, {"time": 3948, "pitch": 61, "duration": 5, "velocity": 127}, {"time": 3948, "pitch": 64, "duration": 5, "velocity": 99}, {"time": 3954, "pitch": 52, "duration": 2, "velocity": 82}, {"time": 3960, "pitch": 40, "duration": 43, "velocity": 83}, {"time": 3960, "pitch": 59, "duration": 8, "velocity": 93}, {"time": 3960, "pitch": 64, "duration": 8, "velocity": 100}, {"time": 3960, "pitch": 68, "duration": 8, "velocity": 112}, {"time": 3966, "pitch": 52, "duration": 9, "velocity": 97}, {"time": 3972, "pitch": 59, "duration": 9, "velocity": 112}, {"time": 3972, "pitch": 64, "duration": 9, "velocity": 122}, {"time": 3972, "pitch": 68, "duration": 9, "velocity": 122}, {"time": 3978, "pitch": 52, "duration": 10, "velocity": 97}, {"time": 3984, "pitch": 59, "duration": 8, "velocity": 97}, {"time": 3984, "pitch": 64, "duration": 8, "velocity": 117}, {"time": 3984, "pitch": 68, "duration": 8, "velocity": 127}, {"time": 3990, "pitch": 52, "duration": 9, "velocity": 76}, {"time": 3996, "pitch": 64, "duration": 5, "velocity": 122}, {"time": 3996, "pitch": 68, "duration": 4, "velocity": 122}, {"time": 4002, "pitch": 52, "duration": 5, "velocity": 99}, {"time": 4008, "pitch": 44, "duration": 4, "velocity": 107}, {"time": 4008, "pitch": 56, "duration": 4, "velocity": 93}, {"time": 4008, "pitch": 59, "duration": 4, "velocity": 88}, {"time": 4008, "pitch": 63, "duration": 4, "velocity": 72}, {"time": 4008, "pitch": 68, "duration": 4, "velocity": 76}, {"time": 4014, "pitch": 44, "duration": 4, "velocity": 99}, {"time": 4014, "pitch": 56, "duration": 4, "velocity": 90}, {"time": 4014, "pitch": 59, "duration": 4, "velocity": 93}, {"time": 4014, "pitch": 63, "duration": 4, "velocity": 82}, {"time": 4014, "pitch": 68, "duration": 3, "velocity": 81}, {"time": 4020, "pitch": 44, "duration": 4, "velocity": 112}, {"time": 4020, "pitch": 56, "duration": 4, "velocity": 89}, {"time": 4020, "pitch": 59, "duration": 4, "velocity": 93}, {"time": 4020, "pitch": 63, "duration": 4, "velocity": 89}, {"time": 4020, "pitch": 68, "duration": 3, "velocity": 72}, {"time": 4026, "pitch": 44, "duration": 9, "velocity": 117}, {"time": 4026, "pitch": 56, "duration": 8, "velocity": 100}, {"time": 4026, "pitch": 59, "duration": 9, "velocity": 102}, {"time": 4026, "pitch": 63, "duration": 9, "velocity": 97}, {"time": 4026, "pitch": 68, "duration": 9, "velocity": 89}], "annotations": [{"time": 25, "annotation": {"number": 64, "value": 127}, "group": "control_change"}, {"time": 35, "annotation": {"number": 64, "value": 0}, "group": "control_change"}, {"time": 40, "annotation": {"number": 64, "value": 127}, "group": "control_change"}, {"time": 71, "annotation": {"number": 64, "value": 0}, "group": "control_change"}, {"time": 93, "annotation": {"number": 64, "value": 127}, "group": "control_change"}, {"time": 118, "annotation": {"number": 64, "value": 0}, "group": "control_change"}, {"time": 217, "annotation": {"number": 64, "value": 127}, "group": "control_change"}, {"time": 227, "annotation": {"number": 64, "value": 0}, "group": "control_change"}, {"time": 232, "annotation": {"number": 64, "value": 127}, "group": "control_change"}, {"time": 263, "annotation": {"number": 64, "value": 0}, "group": "control_change"}, {"time": 285, "annotation": {"number": 64, "value": 127}, "group": "control_change"}, {"time": 310, "annotation": {"number": 64, "value": 0}, "group": "control_change"}, {"time": 409, "annotation": {"number": 64, "value": 127}, "group": "control_change"}, {"time": 419, "annotation": {"number": 64, "value": 0}, "group": "control_change"}, {"time": 424, "annotation": {"number": 64, "value": 127}, "group": "control_change"}, {"time": 455, "annotation": {"number": 64, "value": 0}, "group": "control_change"}, {"time": 477, "annotation": {"number": 64, "value": 127}, "group": "control_change"}, {"time": 502, "annotation": {"number": 64, "value": 0}, "group": "control_change"}, {"time": 599, "annotation": {"number": 64, "value": 127}, "group": "control_change"}, {"time": 645, "annotation": {"number": 64, "value": 0}, "group": "control_change"}, {"time": 648, "annotation": {"number": 64, "value": 127}, "group": "control_change"}, {"time": 694, "annotation": {"number": 64, "value": 0}, "group": "control_change"}, {"time": 696, "annotation": {"number": 64, "value": 127}, "group": "control_change"}, {"time": 741, "annotation": {"number": 64, "value": 0}, "group": "control_change"}, {"time": 743, "annotation": {"number": 64, "value": 127}, "group": "control_change"}, {"time": 766, "annotation": {"number": 64, "value": 0}, "group": "control_change"}, {"time": 767, "annotation": {"number": 64, "value": 127}, "group": "control_change"}, {"time": 788, "annotation": {"number": 64, "value": 0}, "group": "control_change"}, {"time": 794, "annotation": {"number": 64, "value": 127}, "group": "control_change"}, {"time": 799, "annotation": {"number": 64, "value": 0}, "group": "control_change"}, {"time": 801, "annotation": {"number": 64, "value": 127}, "group": "control_change"}, {"time": 837, "annotation": {"number": 64, "value": 0}, "group": "control_change"}, {"time": 839, "annotation": {"number": 64, "value": 127}, "group": "control_change"}, {"time": 885, "annotation": {"number": 64, "value": 0}, "group": "control_change"}, {"time": 887, "annotation": {"number": 64, "value": 127}, "group": "control_change"}, {"time": 934, "annotation": {"number": 64, "value": 0}, "group": "control_change"}, {"time": 936, "annotation": {"number": 64, "value": 127}, "group": "control_change"}, {"time": 981, "annotation": {"number": 64, "value": 0}, "group": "control_change"}, {"time": 986, "annotation": {"number": 64, "value": 127}, "group": "control_change"}, {"time": 991, "annotation": {"number": 64, "value": 0}, "group": "control_change"}, {"time": 993, "annotation": {"number": 64, "value": 127}, "group": "control_change"}, {"time": 1029, "annotation": {"number": 64, "value": 0}, "group": "control_change"}, {"time": 1031, "annotation": {"number": 64, "value": 127}, "group": "control_change"}, {"time": 1077, "annotation": {"number": 64, "value": 0}, "group": "control_change"}, {"time": 1079, "annotation": {"number": 64, "value": 127}, "group": "control_change"}, {"time": 1126, "annotation": {"number": 64, "value": 0}, "group": "control_change"}, {"time": 1127, "annotation": {"number": 64, "value": 127}, "group": "control_change"}, {"time": 1136, "annotation": {"number": 64, "value": 0}, "group": "control_change"}, {"time": 1140, "annotation": {"number": 64, "value": 127}, "group": "control_change"}, {"time": 1149, "annotation": {"number": 64, "value": 0}, "group": "control_change"}, {"time": 1151, "annotation": {"number": 64, "value": 127}, "group": "control_change"}, {"time": 1172, "annotation": {"number": 64, "value": 0}, "group": "control_change"}, {"time": 1176, "annotation": {"number": 64, "value": 127}, "group": "control_change"}, {"time": 1184, "annotation": {"number": 64, "value": 0}, "group": "control_change"}, {"time": 1187, "annotation": {"number": 64, "value": 127}, "group": "control_change"}, {"time": 1197, "annotation": {"number": 64, "value": 0}, "group": "control_change"}, {"time": 1199, "annotation": {"number": 64, "value": 127}, "group": "control_change"}, {"time": 1209, "annotation": {"number": 64, "value": 0}, "group": "control_change"}, {"time": 1212, "annotation": {"number": 64, "value": 127}, "group": "control_change"}, {"time": 1221, "annotation": {"number": 64, "value": 0}, "group": "control_change"}, {"time": 1224, "annotation": {"number": 64, "value": 127}, "group": "control_change"}, {"time": 1232, "annotation": {"number": 64, "value": 0}, "group": "control_change"}, {"time": 1235, "annotation": {"number": 64, "value": 127}, "group": "control_change"}, {"time": 1245, "annotation": {"number": 64, "value": 0}, "group": "control_change"}, {"time": 1247, "annotation": {"number": 64, "value": 127}, "group": "control_change"}, {"time": 1257, "annotation": {"number": 64, "value": 0}, "group": "control_change"}, {"time": 1259, "annotation": {"number": 64, "value": 127}, "group": "control_change"}, {"time": 1268, "annotation": {"number": 64, "value": 0}, "group": "control_change"}, {"time": 1271, "annotation": {"number": 64, "value": 127}, "group": "control_change"}, {"time": 1282, "annotation": {"number": 64, "value": 0}, "group": "control_change"}, {"time": 1283, "annotation": {"number": 64, "value": 127}, "group": "control_change"}, {"time": 1317, "annotation": {"number": 64, "value": 0}, "group": "control_change"}, {"time": 1319, "annotation": {"number": 64, "value": 127}, "group": "control_change"}, {"time": 1329, "annotation": {"number": 64, "value": 0}, "group": "control_change"}, {"time": 1331, "annotation": {"number": 64, "value": 127}, "group": "control_change"}, {"time": 1342, "annotation": {"number": 64, "value": 0}, "group": "control_change"}, {"time": 1343, "annotation": {"number": 64, "value": 127}, "group": "control_change"}, {"time": 1354, "annotation": {"number": 64, "value": 0}, "group": "control_change"}, {"time": 1355, "annotation": {"number": 64, "value": 127}, "group": "control_change"}, {"time": 1363, "annotation": {"number": 64, "value": 0}, "group": "control_change"}, {"time": 1368, "annotation": {"number": 64, "value": 127}, "group": "control_change"}, {"time": 1376, "annotation": {"number": 64, "value": 0}, "group": "control_change"}, {"time": 1379, "annotation": {"number": 64, "value": 127}, "group": "control_change"}, {"time": 1389, "annotation": {"number": 64, "value": 0}, "group": "control_change"}, {"time": 1391, "annotation": {"number": 64, "value": 127}, "group": "control_change"}, {"time": 1401, "annotation": {"number": 64, "value": 0}, "group": "control_change"}, {"time": 1404, "annotation": {"number": 64, "value": 127}, "group": "control_change"}, {"time": 1413, "annotation": {"number": 64, "value": 0}, "group": "control_change"}, {"time": 1416, "annotation": {"number": 64, "value": 127}, "group": "control_change"}, {"time": 1424, "annotation": {"number": 64, "value": 0}, "group": "control_change"}, {"time": 1427, "annotation": {"number": 64, "value": 127}, "group": "control_change"}, {"time": 1437, "annotation": {"number": 64, "value": 0}, "group": "control_change"}, {"time": 1439, "annotation": {"number": 64, "value": 127}, "group": "control_change"}, {"time": 1449, "annotation": {"number": 64, "value": 0}, "group": "control_change"}, {"time": 1451, "annotation": {"number": 64, "value": 127}, "group": "control_change"}, {"time": 1460, "annotation": {"number": 64, "value": 0}, "group": "control_change"}, {"time": 1463, "annotation": {"number": 64, "value": 127}, "group": "control_change"}, {"time": 1474, "annotation": {"number": 64, "value": 0}, "group": "control_change"}, {"time": 1475, "annotation": {"number": 64, "value": 127}, "group": "control_change"}, {"time": 1509, "annotation": {"number": 64, "value": 0}, "group": "control_change"}, {"time": 1511, "annotation": {"number": 64, "value": 127}, "group": "control_change"}, {"time": 1520, "annotation": {"number": 64, "value": 127}, "group": "control_change"}, {"time": 1560, "annotation": {"number": 64, "value": 127}, "group": "control_change"}, {"time": 1568, "annotation": {"number": 64, "value": 0}, "group": "control_change"}, {"time": 1570, "annotation": {"number": 64, "value": 127}, "group": "control_change"}, {"time": 1606, "annotation": {"number": 64, "value": 0}, "group": "control_change"}, {"time": 1608, "annotation": {"number": 64, "value": 127}, "group": "control_change"}, {"time": 1628, "annotation": {"number": 64, "value": 0}, "group": "control_change"}, {"time": 1630, "annotation": {"number": 64, "value": 127}, "group": "control_change"}, {"time": 1652, "annotation": {"number": 64, "value": 0}, "group": "control_change"}, {"time": 1654, "annotation": {"number": 64, "value": 127}, "group": "control_change"}, {"time": 1675, "annotation": {"number": 64, "value": 0}, "group": "control_change"}, {"time": 1678, "annotation": {"number": 64, "value": 127}, "group": "control_change"}, {"time": 1701, "annotation": {"number": 64, "value": 0}, "group": "control_change"}, {"time": 1703, "annotation": {"number": 64, "value": 127}, "group": "control_change"}, {"time": 1751, "annotation": {"number": 64, "value": 0}, "group": "control_change"}, {"time": 1760, "annotation": {"number": 64, "value": 0}, "group": "control_change"}, {"time": 1762, "annotation": {"number": 64, "value": 127}, "group": "control_change"}, {"time": 1798, "annotation": {"number": 64, "value": 0}, "group": "control_change"}, {"time": 1800, "annotation": {"number": 64, "value": 127}, "group": "control_change"}, {"time": 1820, "annotation": {"number": 64, "value": 0}, "group": "control_change"}, {"time": 1822, "annotation": {"number": 64, "value": 127}, "group": "control_change"}, {"time": 1844, "annotation": {"number": 64, "value": 0}, "group": "control_change"}, {"time": 1846, "annotation": {"number": 64, "value": 127}, "group": "control_change"}, {"time": 1867, "annotation": {"number": 64, "value": 0}, "group": "control_change"}, {"time": 1870, "annotation": {"number": 64, "value": 127}, "group": "control_change"}, {"time": 1893, "annotation": {"number": 64, "value": 0}, "group": "control_change"}, {"time": 1895, "annotation": {"number": 64, "value": 127}, "group": "control_change"}, {"time": 1943, "annotation": {"number": 64, "value": 0}, "group": "control_change"}, {"time": 1989, "annotation": {"number": 64, "value": 0}, "group": "control_change"}, {"time": 1992, "annotation": {"number": 64, "value": 127}, "group": "control_change"}, {"time": 2038, "annotation": {"number": 64, "value": 0}, "group": "control_change"}, {"time": 2040, "annotation": {"number": 64, "value": 127}, "group": "control_change"}, {"time": 2085, "annotation": {"number": 64, "value": 0}, "group": "control_change"}, {"time": 2087, "annotation": {"number": 64, "value": 127}, "group": "control_change"}, {"time": 2110, "annotation": {"number": 64, "value": 0}, "group": "control_change"}, {"time": 2111, "annotation": {"number": 64, "value": 127}, "group": "control_change"}, {"time": 2132, "annotation": {"number": 64, "value": 0}, "group": "control_change"}, {"time": 2138, "annotation": {"number": 64, "value": 127}, "group": "control_change"}, {"time": 2143, "annotation": {"number": 64, "value": 0}, "group": "control_change"}, {"time": 2145, "annotation": {"number": 64, "value": 127}, "group": "control_change"}, {"time": 2181, "annotation": {"number": 64, "value": 0}, "group": "control_change"}, {"time": 2183, "annotation": {"number": 64, "value": 127}, "group": "control_change"}, {"time": 2229, "annotation": {"number": 64, "value": 0}, "group": "control_change"}, {"time": 2231, "annotation": {"number": 64, "value": 127}, "group": "control_change"}, {"time": 2278, "annotation": {"number": 64, "value": 0}, "group": "control_change"}, {"time": 2280, "annotation": {"number": 64, "value": 127}, "group": "control_change"}, {"time": 2325, "annotation": {"number": 64, "value": 0}, "group": "control_change"}, {"time": 2330, "annotation": {"number": 64, "value": 127}, "group": "control_change"}, {"time": 2335, "annotation": {"number": 64, "value": 0}, "group": "control_change"}, {"time": 2337, "annotation": {"number": 64, "value": 127}, "group": "control_change"}, {"time": 2373, "annotation": {"number": 64, "value": 0}, "group": "control_change"}, {"time": 2375, "annotation": {"number": 64, "value": 127}, "group": "control_change"}, {"time": 2421, "annotation": {"number": 64, "value": 0}, "group": "control_change"}, {"time": 2423, "annotation": {"number": 64, "value": 127}, "group": "control_change"}, {"time": 2470, "annotation": {"number": 64, "value": 0}, "group": "control_change"}, {"time": 2471, "annotation": {"number": 64, "value": 127}, "group": "control_change"}, {"time": 2480, "annotation": {"number": 64, "value": 0}, "group": "control_change"}, {"time": 2484, "annotation": {"number": 64, "value": 127}, "group": "control_change"}, {"time": 2493, "annotation": {"number": 64, "value": 0}, "group": "control_change"}, {"time": 2495, "annotation": {"number": 64, "value": 127}, "group": "control_change"}, {"time": 2516, "annotation": {"number": 64, "value": 0}, "group": "control_change"}, {"time": 2520, "annotation": {"number": 64, "value": 127}, "group": "control_change"}, {"time": 2528, "annotation": {"number": 64, "value": 0}, "group": "control_change"}, {"time": 2531, "annotation": {"number": 64, "value": 127}, "group": "control_change"}, {"time": 2541, "annotation": {"number": 64, "value": 0}, "group": "control_change"}, {"time": 2543, "annotation": {"number": 64, "value": 127}, "group": "control_change"}, {"time": 2553, "annotation": {"number": 64, "value": 0}, "group": "control_change"}, {"time": 2556, "annotation": {"number": 64, "value": 127}, "group": "control_change"}, {"time": 2565, "annotation": {"number": 64, "value": 0}, "group": "control_change"}, {"time": 2568, "annotation": {"number": 64, "value": 127}, "group": "control_change"}, {"time": 2576, "annotation": {"number": 64, "value": 0}, "group": "control_change"}, {"time": 2579, "annotation": {"number": 64, "value": 127}, "group": "control_change"}, {"time": 2589, "annotation": {"number": 64, "value": 0}, "group": "control_change"}, {"time": 2591, "annotation": {"number": 64, "value": 127}, "group": "control_change"}, {"time": 2601, "annotation": {"number": 64, "value": 0}, "group": "control_change"}, {"time": 2603, "annotation": {"number": 64, "value": 127}, "group": "control_change"}, {"time": 2612, "annotation": {"number": 64, "value": 0}, "group": "control_change"}, {"time": 2615, "annotation": {"number": 64, "value": 127}, "group": "control_change"}, {"time": 2626, "annotation": {"number": 64, "value": 0}, "group": "control_change"}, {"time": 2627, "annotation": {"number": 64, "value": 127}, "group": "control_change"}, {"time": 2661, "annotation": {"number": 64, "value": 0}, "group": "control_change"}, {"time": 2663, "annotation": {"number": 64, "value": 127}, "group": "control_change"}, {"time": 2673, "annotation": {"number": 64, "value": 0}, "group": "control_change"}, {"time": 2675, "annotation": {"number": 64, "value": 127}, "group": "control_change"}, {"time": 2686, "annotation": {"number": 64, "value": 0}, "group": "control_change"}, {"time": 2687, "annotation": {"number": 64, "value": 127}, "group": "control_change"}, {"time": 2698, "annotation": {"number": 64, "value": 0}, "group": "control_change"}, {"time": 2699, "annotation": {"number": 64, "value": 127}, "group": "control_change"}, {"time": 2707, "annotation": {"number": 64, "value": 0}, "group": "control_change"}, {"time": 2712, "annotation": {"number": 64, "value": 127}, "group": "control_change"}, {"time": 2720, "annotation": {"number": 64, "value": 0}, "group": "control_change"}, {"time": 2723, "annotation": {"number": 64, "value": 127}, "group": "control_change"}, {"time": 2733, "annotation": {"number": 64, "value": 0}, "group": "control_change"}, {"time": 2735, "annotation": {"number": 64, "value": 127}, "group": "control_change"}, {"time": 2745, "annotation": {"number": 64, "value": 0}, "group": "control_change"}, {"time": 2748, "annotation": {"number": 64, "value": 127}, "group": "control_change"}, {"time": 2757, "annotation": {"number": 64, "value": 0}, "group": "control_change"}, {"time": 2760, "annotation": {"number": 64, "value": 127}, "group": "control_change"}, {"time": 2768, "annotation": {"number": 64, "value": 0}, "group": "control_change"}, {"time": 2771, "annotation": {"number": 64, "value": 127}, "group": "control_change"}, {"time": 2781, "annotation": {"number": 64, "value": 0}, "group": "control_change"}, {"time": 2783, "annotation": {"number": 64, "value": 127}, "group": "control_change"}, {"time": 2793, "annotation": {"number": 64, "value": 0}, "group": "control_change"}, {"time": 2795, "annotation": {"number": 64, "value": 127}, "group": "control_change"}, {"time": 2804, "annotation": {"number": 64, "value": 0}, "group": "control_change"}, {"time": 2807, "annotation": {"number": 64, "value": 127}, "group": "control_change"}, {"time": 2818, "annotation": {"number": 64, "value": 0}, "group": "control_change"}, {"time": 2819, "annotation": {"number": 64, "value": 127}, "group": "control_change"}, {"time": 2853, "annotation": {"number": 64, "value": 0}, "group": "control_change"}, {"time": 2855, "annotation": {"number": 64, "value": 127}, "group": "control_change"}, {"time": 2864, "annotation": {"number": 64, "value": 127}, "group": "control_change"}, {"time": 2903, "annotation": {"number": 64, "value": 127}, "group": "control_change"}, {"time": 2906, "annotation": {"number": 64, "value": 0}, "group": "control_change"}, {"time": 2951, "annotation": {"number": 64, "value": 0}, "group": "control_change"}, {"time": 2953, "annotation": {"number": 64, "value": 127}, "group": "control_change"}, {"time": 2998, "annotation": {"number": 64, "value": 0}, "group": "control_change"}, {"time": 2999, "annotation": {"number": 64, "value": 127}, "group": "control_change"}, {"time": 3046, "annotation": {"number": 64, "value": 0}, "group": "control_change"}, {"time": 3048, "annotation": {"number": 64, "value": 127}, "group": "control_change"}, {"time": 3097, "annotation": {"number": 64, "value": 0}, "group": "control_change"}, {"time": 3098, "annotation": {"number": 64, "value": 0}, "group": "control_change"}, {"time": 3143, "annotation": {"number": 64, "value": 0}, "group": "control_change"}, {"time": 3145, "annotation": {"number": 64, "value": 127}, "group": "control_change"}, {"time": 3190, "annotation": {"number": 64, "value": 0}, "group": "control_change"}, {"time": 3191, "annotation": {"number": 64, "value": 127}, "group": "control_change"}, {"time": 3238, "annotation": {"number": 64, "value": 0}, "group": "control_change"}, {"time": 3240, "annotation": {"number": 64, "value": 127}, "group": "control_change"}, {"time": 3241, "annotation": {"number": 64, "value": 127}, "group": "control_change"}, {"time": 3244, "annotation": {"number": 64, "value": 0}, "group": "control_change"}, {"time": 3247, "annotation": {"number": 64, "value": 127}, "group": "control_change"}, {"time": 3285, "annotation": {"number": 64, "value": 0}, "group": "control_change"}, {"time": 3290, "annotation": {"number": 64, "value": 127}, "group": "control_change"}, {"time": 3295, "annotation": {"number": 64, "value": 0}, "group": "control_change"}, {"time": 3297, "annotation": {"number": 64, "value": 127}, "group": "control_change"}, {"time": 3333, "annotation": {"number": 64, "value": 0}, "group": "control_change"}, {"time": 3335, "annotation": {"number": 64, "value": 127}, "group": "control_change"}, {"time": 3381, "annotation": {"number": 64, "value": 0}, "group": "control_change"}, {"time": 3383, "annotation": {"number": 64, "value": 127}, "group": "control_change"}, {"time": 3430, "annotation": {"number": 64, "value": 0}, "group": "control_change"}, {"time": 3432, "annotation": {"number": 64, "value": 127}, "group": "control_change"}, {"time": 3477, "annotation": {"number": 64, "value": 0}, "group": "control_change"}, {"time": 3482, "annotation": {"number": 64, "value": 127}, "group": "control_change"}, {"time": 3487, "annotation": {"number": 64, "value": 0}, "group": "control_change"}, {"time": 3489, "annotation": {"number": 64, "value": 127}, "group": "control_change"}, {"time": 3525, "annotation": {"number": 64, "value": 0}, "group": "control_change"}, {"time": 3527, "annotation": {"number": 64, "value": 127}, "group": "control_change"}, {"time": 3573, "annotation": {"number": 64, "value": 0}, "group": "control_change"}, {"time": 3575, "annotation": {"number": 64, "value": 127}, "group": "control_change"}, {"time": 3622, "annotation": {"number": 64, "value": 0}, "group": "control_change"}, {"time": 3623, "annotation": {"number": 64, "value": 127}, "group": "control_change"}, {"time": 3632, "annotation": {"number": 64, "value": 0}, "group": "control_change"}, {"time": 3636, "annotation": {"number": 64, "value": 127}, "group": "control_change"}, {"time": 3645, "annotation": {"number": 64, "value": 0}, "group": "control_change"}, {"time": 3647, "annotation": {"number": 64, "value": 127}, "group": "control_change"}, {"time": 3668, "annotation": {"number": 64, "value": 0}, "group": "control_change"}, {"time": 3672, "annotation": {"number": 64, "value": 127}, "group": "control_change"}, {"time": 3680, "annotation": {"number": 64, "value": 0}, "group": "control_change"}, {"time": 3683, "annotation": {"number": 64, "value": 127}, "group": "control_change"}, {"time": 3693, "annotation": {"number": 64, "value": 0}, "group": "control_change"}, {"time": 3695, "annotation": {"number": 64, "value": 127}, "group": "control_change"}, {"time": 3705, "annotation": {"number": 64, "value": 0}, "group": "control_change"}, {"time": 3708, "annotation": {"number": 64, "value": 127}, "group": "control_change"}, {"time": 3717, "annotation": {"number": 64, "value": 0}, "group": "control_change"}, {"time": 3720, "annotation": {"number": 64, "value": 127}, "group": "control_change"}, {"time": 3728, "annotation": {"number": 64, "value": 0}, "group": "control_change"}, {"time": 3731, "annotation": {"number": 64, "value": 127}, "group": "control_change"}, {"time": 3741, "annotation": {"number": 64, "value": 0}, "group": "control_change"}, {"time": 3743, "annotation": {"number": 64, "value": 127}, "group": "control_change"}, {"time": 3753, "annotation": {"number": 64, "value": 0}, "group": "control_change"}, {"time": 3755, "annotation": {"number": 64, "value": 127}, "group": "control_change"}, {"time": 3764, "annotation": {"number": 64, "value": 0}, "group": "control_change"}, {"time": 3767, "annotation": {"number": 64, "value": 127}, "group": "control_change"}, {"time": 3778, "annotation": {"number": 64, "value": 0}, "group": "control_change"}, {"time": 3779, "annotation": {"number": 64, "value": 127}, "group": "control_change"}, {"time": 3813, "annotation": {"number": 64, "value": 0}, "group": "control_change"}, {"time": 3815, "annotation": {"number": 64, "value": 127}, "group": "control_change"}, {"time": 3825, "annotation": {"number": 64, "value": 0}, "group": "control_change"}, {"time": 3827, "annotation": {"number": 64, "value": 127}, "group": "control_change"}, {"time": 3838, "annotation": {"number": 64, "value": 0}, "group": "control_change"}, {"time": 3839, "annotation": {"number": 64, "value": 127}, "group": "control_change"}, {"time": 3850, "annotation": {"number": 64, "value": 0}, "group": "control_change"}, {"time": 3851, "annotation": {"number": 64, "value": 127}, "group": "control_change"}, {"time": 3859, "annotation": {"number": 64, "value": 0}, "group": "control_change"}, {"time": 3864, "annotation": {"number": 64, "value": 127}, "group": "control_change"}, {"time": 3872, "annotation": {"number": 64, "value": 0}, "group": "control_change"}, {"time": 3875, "annotation": {"number": 64, "value": 127}, "group": "control_change"}, {"time": 3885, "annotation": {"number": 64, "value": 0}, "group": "control_change"}, {"time": 3887, "annotation": {"number": 64, "value": 127}, "group": "control_change"}, {"time": 3897, "annotation": {"number": 64, "value": 0}, "group": "control_change"}, {"time": 3900, "annotation": {"number": 64, "value": 127}, "group": "control_change"}, {"time": 3909, "annotation": {"number": 64, "value": 0}, "group": "control_change"}, {"time": 3912, "annotation": {"number": 64, "value": 127}, "group": "control_change"}, {"time": 3920, "annotation": {"number": 64, "value": 0}, "group": "control_change"}, {"time": 3923, "annotation": {"number": 64, "value": 127}, "group": "control_change"}, {"time": 3933, "annotation": {"number": 64, "value": 0}, "group": "control_change"}, {"time": 3935, "annotation": {"number": 64, "value": 127}, "group": "control_change"}, {"time": 3945, "annotation": {"number": 64, "value": 0}, "group": "control_change"}, {"time": 3947, "annotation": {"number": 64, "value": 127}, "group": "control_change"}, {"time": 3956, "annotation": {"number": 64, "value": 0}, "group": "control_change"}, {"time": 3959, "annotation": {"number": 64, "value": 127}, "group": "control_change"}, {"time": 3970, "annotation": {"number": 64, "value": 0}, "group": "control_change"}, {"time": 3971, "annotation": {"number": 64, "value": 127}, "group": "control_change"}, {"time": 4005, "annotation": {"number": 64, "value": 0}, "group": "control_change"}, {"time": 4007, "annotation": {"number": 64, "value": 127}, "group": "control_change"}, {"time": 4008, "annotation": {"number": 64, "value": 127}, "group": "control_change"}, {"time": 4024, "annotation": {"number": 64, "value": 0}, "group": "control_change"}, {"time": 4032, "annotation": {"number": 64, "value": 127}, "group": "control_change"}, {"time": 4034, "annotation": {"number": 64, "value": 0}, "group": "control_change"}]}]}