{"metadata": {"schema_version": "0.2", "title": "None", "source_filename": "171.mid", "source_format": "midi"}, "resolution": 12, "tempos": [{"time": 0, "qpm": 68.68013942068302}], "time_signatures": [{"time": 0, "numerator": 1, "denominator": 4}], "tracks": [{"program": 0, "is_drum": false, "name": "MELODY", "notes": [{"time": 255, "pitch": 67, "duration": 2, "velocity": 122}, {"time": 259, "pitch": 67, "duration": 1, "velocity": 96}, {"time": 263, "pitch": 67, "duration": 1, "velocity": 107}, {"time": 267, "pitch": 69, "duration": 5, "velocity": 127}, {"time": 275, "pitch": 67, "duration": 1, "velocity": 127}, {"time": 279, "pitch": 64, "duration": 2, "velocity": 117}, {"time": 283, "pitch": 64, "duration": 2, "velocity": 117}, {"time": 285, "pitch": 62, "duration": 2, "velocity": 90}, {"time": 287, "pitch": 64, "duration": 1, "velocity": 96}, {"time": 295, "pitch": 60, "duration": 2, "velocity": 102}, {"time": 299, "pitch": 64, "duration": 2, "velocity": 112}, {"time": 303, "pitch": 72, "duration": 2, "velocity": 127}, {"time": 307, "pitch": 72, "duration": 3, "velocity": 117}, {"time": 311, "pitch": 69, "duration": 2, "velocity": 102}, {"time": 315, "pitch": 72, "duration": 7, "velocity": 127}, {"time": 323, "pitch": 69, "duration": 4, "velocity": 97}, {"time": 327, "pitch": 67, "duration": 5, "velocity": 107}, {"time": 351, "pitch": 72, "duration": 1, "velocity": 117}, {"time": 355, "pitch": 72, "duration": 3, "velocity": 112}, {"time": 359, "pitch": 69, "duration": 2, "velocity": 102}, {"time": 363, "pitch": 72, "duration": 4, "velocity": 127}, {"time": 371, "pitch": 69, "duration": 2, "velocity": 107}, {"time": 375, "pitch": 67, "duration": 1, "velocity": 102}, {"time": 379, "pitch": 67, "duration": 2, "velocity": 97}, {"time": 381, "pitch": 69, "duration": 2, "velocity": 97}, {"time": 383, "pitch": 67, "duration": 4, "velocity": 112}, {"time": 391, "pitch": 62, "duration": 3, "velocity": 93}, {"time": 395, "pitch": 64, "duration": 3, "velocity": 107}, {"time": 399, "pitch": 67, "duration": 3, "velocity": 93}, {"time": 403, "pitch": 67, "duration": 1, "velocity": 107}, {"time": 407, "pitch": 69, "duration": 2, "velocity": 102}, {"time": 411, "pitch": 67, "duration": 2, "velocity": 127}, {"time": 419, "pitch": 64, "duration": 1, "velocity": 107}, {"time": 423, "pitch": 62, "duration": 10, "velocity": 107}, {"time": 447, "pitch": 67, "duration": 1, "velocity": 122}, {"time": 451, "pitch": 67, "duration": 1, "velocity": 99}, {"time": 455, "pitch": 67, "duration": 1, "velocity": 107}, {"time": 459, "pitch": 69, "duration": 6, "velocity": 127}, {"time": 467, "pitch": 67, "duration": 1, "velocity": 117}, {"time": 471, "pitch": 64, "duration": 1, "velocity": 127}, {"time": 475, "pitch": 64, "duration": 1, "velocity": 107}, {"time": 477, "pitch": 62, "duration": 1, "velocity": 93}, {"time": 479, "pitch": 64, "duration": 1, "velocity": 107}, {"time": 487, "pitch": 60, "duration": 2, "velocity": 100}, {"time": 491, "pitch": 64, "duration": 2, "velocity": 112}, {"time": 495, "pitch": 72, "duration": 1, "velocity": 127}, {"time": 499, "pitch": 72, "duration": 1, "velocity": 107}, {"time": 503, "pitch": 69, "duration": 2, "velocity": 99}, {"time": 507, "pitch": 72, "duration": 3, "velocity": 122}, {"time": 511, "pitch": 72, "duration": 3, "velocity": 112}, {"time": 515, "pitch": 69, "duration": 4, "velocity": 88}, {"time": 519, "pitch": 67, "duration": 3, "velocity": 90}, {"time": 543, "pitch": 72, "duration": 1, "velocity": 117}, {"time": 547, "pitch": 72, "duration": 1, "velocity": 102}, {"time": 551, "pitch": 69, "duration": 2, "velocity": 107}, {"time": 555, "pitch": 72, "duration": 3, "velocity": 127}, {"time": 563, "pitch": 69, "duration": 1, "velocity": 117}, {"time": 567, "pitch": 67, "duration": 3, "velocity": 122}, {"time": 573, "pitch": 69, "duration": 2, "velocity": 117}, {"time": 575, "pitch": 67, "duration": 6, "velocity": 100}, {"time": 583, "pitch": 60, "duration": 3, "velocity": 82}, {"time": 587, "pitch": 64, "duration": 3, "velocity": 112}, {"time": 591, "pitch": 72, "duration": 2, "velocity": 127}, {"time": 595, "pitch": 72, "duration": 2, "velocity": 122}, {"time": 599, "pitch": 72, "duration": 3, "velocity": 122}, {"time": 603, "pitch": 69, "duration": 5, "velocity": 127}, {"time": 607, "pitch": 71, "duration": 4, "velocity": 127}, {"time": 611, "pitch": 72, "duration": 3, "velocity": 117}, {"time": 615, "pitch": 74, "duration": 17, "velocity": 127}, {"time": 639, "pitch": 74, "duration": 1, "velocity": 127}, {"time": 643, "pitch": 74, "duration": 2, "velocity": 107}, {"time": 647, "pitch": 67, "duration": 2, "velocity": 96}, {"time": 651, "pitch": 76, "duration": 5, "velocity": 127}, {"time": 659, "pitch": 74, "duration": 3, "velocity": 127}, {"time": 663, "pitch": 72, "duration": 1, "velocity": 127}, {"time": 667, "pitch": 72, "duration": 2, "velocity": 117}, {"time": 671, "pitch": 69, "duration": 3, "velocity": 96}, {"time": 675, "pitch": 74, "duration": 2, "velocity": 127}, {"time": 683, "pitch": 72, "duration": 3, "velocity": 107}, {"time": 687, "pitch": 67, "duration": 2, "velocity": 107}, {"time": 691, "pitch": 67, "duration": 1, "velocity": 100}, {"time": 695, "pitch": 64, "duration": 3, "velocity": 107}, {"time": 699, "pitch": 67, "duration": 3, "velocity": 122}, {"time": 707, "pitch": 69, "duration": 4, "velocity": 122}, {"time": 711, "pitch": 67, "duration": 9, "velocity": 117}, {"time": 735, "pitch": 74, "duration": 1, "velocity": 122}, {"time": 739, "pitch": 74, "duration": 2, "velocity": 122}, {"time": 743, "pitch": 67, "duration": 2, "velocity": 96}, {"time": 747, "pitch": 76, "duration": 3, "velocity": 127}, {"time": 751, "pitch": 74, "duration": 2, "velocity": 112}, {"time": 755, "pitch": 74, "duration": 2, "velocity": 127}, {"time": 759, "pitch": 72, "duration": 2, "velocity": 127}, {"time": 763, "pitch": 69, "duration": 2, "velocity": 100}, {"time": 767, "pitch": 69, "duration": 2, "velocity": 97}, {"time": 771, "pitch": 74, "duration": 5, "velocity": 127}, {"time": 779, "pitch": 72, "duration": 3, "velocity": 127}, {"time": 783, "pitch": 69, "duration": 1, "velocity": 127}, {"time": 787, "pitch": 69, "duration": 2, "velocity": 122}, {"time": 791, "pitch": 67, "duration": 2, "velocity": 112}, {"time": 795, "pitch": 74, "duration": 7, "velocity": 127}, {"time": 803, "pitch": 76, "duration": 4, "velocity": 127}, {"time": 807, "pitch": 72, "duration": 31, "velocity": 117}, {"time": 1023, "pitch": 67, "duration": 2, "velocity": 122}, {"time": 1027, "pitch": 67, "duration": 1, "velocity": 96}, {"time": 1031, "pitch": 67, "duration": 1, "velocity": 107}, {"time": 1035, "pitch": 69, "duration": 5, "velocity": 127}, {"time": 1043, "pitch": 67, "duration": 1, "velocity": 127}, {"time": 1047, "pitch": 64, "duration": 2, "velocity": 117}, {"time": 1051, "pitch": 64, "duration": 2, "velocity": 117}, {"time": 1053, "pitch": 62, "duration": 2, "velocity": 90}, {"time": 1055, "pitch": 64, "duration": 1, "velocity": 96}, {"time": 1063, "pitch": 60, "duration": 2, "velocity": 102}, {"time": 1067, "pitch": 64, "duration": 2, "velocity": 112}, {"time": 1071, "pitch": 72, "duration": 2, "velocity": 127}, {"time": 1075, "pitch": 72, "duration": 3, "velocity": 117}, {"time": 1079, "pitch": 69, "duration": 2, "velocity": 102}, {"time": 1083, "pitch": 72, "duration": 7, "velocity": 127}, {"time": 1091, "pitch": 69, "duration": 4, "velocity": 97}, {"time": 1095, "pitch": 67, "duration": 5, "velocity": 107}, {"time": 1119, "pitch": 72, "duration": 1, "velocity": 117}, {"time": 1123, "pitch": 72, "duration": 3, "velocity": 112}, {"time": 1127, "pitch": 69, "duration": 2, "velocity": 102}, {"time": 1131, "pitch": 72, "duration": 4, "velocity": 127}, {"time": 1139, "pitch": 69, "duration": 2, "velocity": 107}, {"time": 1143, "pitch": 67, "duration": 1, "velocity": 102}, {"time": 1147, "pitch": 67, "duration": 2, "velocity": 97}, {"time": 1149, "pitch": 69, "duration": 2, "velocity": 97}, {"time": 1151, "pitch": 67, "duration": 4, "velocity": 112}, {"time": 1159, "pitch": 62, "duration": 3, "velocity": 93}, {"time": 1163, "pitch": 64, "duration": 3, "velocity": 107}, {"time": 1167, "pitch": 67, "duration": 3, "velocity": 93}, {"time": 1171, "pitch": 67, "duration": 1, "velocity": 107}, {"time": 1175, "pitch": 69, "duration": 2, "velocity": 102}, {"time": 1179, "pitch": 67, "duration": 2, "velocity": 127}, {"time": 1187, "pitch": 64, "duration": 1, "velocity": 107}, {"time": 1191, "pitch": 62, "duration": 10, "velocity": 107}, {"time": 1215, "pitch": 67, "duration": 1, "velocity": 122}, {"time": 1219, "pitch": 67, "duration": 1, "velocity": 99}, {"time": 1223, "pitch": 67, "duration": 1, "velocity": 107}, {"time": 1227, "pitch": 69, "duration": 6, "velocity": 127}, {"time": 1235, "pitch": 67, "duration": 1, "velocity": 117}, {"time": 1239, "pitch": 64, "duration": 1, "velocity": 127}, {"time": 1243, "pitch": 64, "duration": 1, "velocity": 107}, {"time": 1245, "pitch": 62, "duration": 1, "velocity": 93}, {"time": 1247, "pitch": 64, "duration": 1, "velocity": 107}, {"time": 1255, "pitch": 60, "duration": 2, "velocity": 100}, {"time": 1259, "pitch": 64, "duration": 2, "velocity": 112}, {"time": 1263, "pitch": 72, "duration": 1, "velocity": 127}, {"time": 1267, "pitch": 72, "duration": 1, "velocity": 107}, {"time": 1271, "pitch": 69, "duration": 2, "velocity": 99}, {"time": 1275, "pitch": 72, "duration": 3, "velocity": 122}, {"time": 1279, "pitch": 72, "duration": 3, "velocity": 112}, {"time": 1283, "pitch": 69, "duration": 4, "velocity": 88}, {"time": 1287, "pitch": 67, "duration": 3, "velocity": 90}, {"time": 1311, "pitch": 72, "duration": 1, "velocity": 117}, {"time": 1315, "pitch": 72, "duration": 1, "velocity": 102}, {"time": 1319, "pitch": 69, "duration": 2, "velocity": 107}, {"time": 1323, "pitch": 72, "duration": 3, "velocity": 127}, {"time": 1331, "pitch": 69, "duration": 1, "velocity": 117}, {"time": 1335, "pitch": 67, "duration": 3, "velocity": 122}, {"time": 1341, "pitch": 69, "duration": 2, "velocity": 117}, {"time": 1343, "pitch": 67, "duration": 6, "velocity": 100}, {"time": 1351, "pitch": 60, "duration": 3, "velocity": 82}, {"time": 1355, "pitch": 64, "duration": 3, "velocity": 112}, {"time": 1359, "pitch": 72, "duration": 2, "velocity": 127}, {"time": 1363, "pitch": 72, "duration": 2, "velocity": 122}, {"time": 1367, "pitch": 72, "duration": 3, "velocity": 122}, {"time": 1371, "pitch": 69, "duration": 5, "velocity": 127}, {"time": 1375, "pitch": 71, "duration": 4, "velocity": 127}, {"time": 1379, "pitch": 72, "duration": 3, "velocity": 117}, {"time": 1383, "pitch": 74, "duration": 17, "velocity": 127}, {"time": 1407, "pitch": 74, "duration": 1, "velocity": 127}, {"time": 1411, "pitch": 74, "duration": 2, "velocity": 107}, {"time": 1415, "pitch": 67, "duration": 2, "velocity": 96}, {"time": 1419, "pitch": 76, "duration": 5, "velocity": 127}, {"time": 1427, "pitch": 74, "duration": 3, "velocity": 127}, {"time": 1431, "pitch": 72, "duration": 1, "velocity": 127}, {"time": 1435, "pitch": 72, "duration": 2, "velocity": 117}, {"time": 1439, "pitch": 69, "duration": 3, "velocity": 96}, {"time": 1443, "pitch": 74, "duration": 2, "velocity": 127}, {"time": 1451, "pitch": 72, "duration": 3, "velocity": 107}, {"time": 1455, "pitch": 67, "duration": 2, "velocity": 107}, {"time": 1459, "pitch": 67, "duration": 1, "velocity": 100}, {"time": 1463, "pitch": 64, "duration": 3, "velocity": 107}, {"time": 1467, "pitch": 67, "duration": 3, "velocity": 122}, {"time": 1475, "pitch": 69, "duration": 4, "velocity": 122}, {"time": 1479, "pitch": 67, "duration": 9, "velocity": 117}, {"time": 1503, "pitch": 74, "duration": 1, "velocity": 122}, {"time": 1507, "pitch": 74, "duration": 2, "velocity": 122}, {"time": 1511, "pitch": 67, "duration": 2, "velocity": 96}, {"time": 1515, "pitch": 76, "duration": 3, "velocity": 127}, {"time": 1519, "pitch": 74, "duration": 2, "velocity": 112}, {"time": 1523, "pitch": 74, "duration": 2, "velocity": 127}, {"time": 1527, "pitch": 72, "duration": 2, "velocity": 127}, {"time": 1531, "pitch": 69, "duration": 2, "velocity": 100}, {"time": 1535, "pitch": 69, "duration": 2, "velocity": 97}, {"time": 1539, "pitch": 74, "duration": 5, "velocity": 127}, {"time": 1547, "pitch": 72, "duration": 3, "velocity": 127}, {"time": 1551, "pitch": 69, "duration": 1, "velocity": 127}, {"time": 1555, "pitch": 69, "duration": 2, "velocity": 122}, {"time": 1559, "pitch": 67, "duration": 2, "velocity": 112}, {"time": 1563, "pitch": 74, "duration": 7, "velocity": 127}, {"time": 1571, "pitch": 76, "duration": 4, "velocity": 127}, {"time": 1575, "pitch": 72, "duration": 31, "velocity": 117}, {"time": 1791, "pitch": 67, "duration": 2, "velocity": 122}, {"time": 1795, "pitch": 67, "duration": 1, "velocity": 96}, {"time": 1799, "pitch": 67, "duration": 1, "velocity": 107}, {"time": 1803, "pitch": 69, "duration": 5, "velocity": 127}, {"time": 1811, "pitch": 67, "duration": 1, "velocity": 127}, {"time": 1815, "pitch": 64, "duration": 2, "velocity": 117}, {"time": 1819, "pitch": 64, "duration": 2, "velocity": 117}, {"time": 1821, "pitch": 62, "duration": 2, "velocity": 90}, {"time": 1823, "pitch": 64, "duration": 1, "velocity": 96}, {"time": 1831, "pitch": 60, "duration": 2, "velocity": 102}, {"time": 1835, "pitch": 64, "duration": 2, "velocity": 112}, {"time": 1839, "pitch": 72, "duration": 2, "velocity": 127}, {"time": 1843, "pitch": 72, "duration": 3, "velocity": 117}, {"time": 1847, "pitch": 69, "duration": 2, "velocity": 102}, {"time": 1851, "pitch": 72, "duration": 7, "velocity": 127}, {"time": 1859, "pitch": 69, "duration": 4, "velocity": 97}, {"time": 1863, "pitch": 67, "duration": 5, "velocity": 107}, {"time": 1887, "pitch": 72, "duration": 1, "velocity": 117}, {"time": 1891, "pitch": 72, "duration": 3, "velocity": 112}, {"time": 1895, "pitch": 69, "duration": 2, "velocity": 102}, {"time": 1899, "pitch": 72, "duration": 4, "velocity": 127}, {"time": 1907, "pitch": 69, "duration": 2, "velocity": 107}, {"time": 1911, "pitch": 67, "duration": 1, "velocity": 102}, {"time": 1915, "pitch": 67, "duration": 2, "velocity": 97}, {"time": 1917, "pitch": 69, "duration": 2, "velocity": 97}, {"time": 1919, "pitch": 67, "duration": 4, "velocity": 112}, {"time": 1927, "pitch": 62, "duration": 3, "velocity": 93}, {"time": 1931, "pitch": 64, "duration": 3, "velocity": 107}, {"time": 1935, "pitch": 67, "duration": 3, "velocity": 93}, {"time": 1939, "pitch": 67, "duration": 1, "velocity": 107}, {"time": 1943, "pitch": 69, "duration": 2, "velocity": 102}, {"time": 1947, "pitch": 67, "duration": 2, "velocity": 127}, {"time": 1955, "pitch": 64, "duration": 1, "velocity": 107}, {"time": 1959, "pitch": 62, "duration": 10, "velocity": 107}, {"time": 1983, "pitch": 67, "duration": 1, "velocity": 122}, {"time": 1987, "pitch": 67, "duration": 1, "velocity": 99}, {"time": 1991, "pitch": 67, "duration": 1, "velocity": 107}, {"time": 1995, "pitch": 69, "duration": 6, "velocity": 127}, {"time": 2003, "pitch": 67, "duration": 1, "velocity": 117}, {"time": 2007, "pitch": 64, "duration": 1, "velocity": 127}, {"time": 2011, "pitch": 64, "duration": 1, "velocity": 107}, {"time": 2013, "pitch": 62, "duration": 1, "velocity": 93}, {"time": 2015, "pitch": 64, "duration": 1, "velocity": 107}, {"time": 2023, "pitch": 60, "duration": 2, "velocity": 100}, {"time": 2027, "pitch": 64, "duration": 2, "velocity": 112}, {"time": 2031, "pitch": 72, "duration": 1, "velocity": 127}, {"time": 2035, "pitch": 72, "duration": 1, "velocity": 107}, {"time": 2039, "pitch": 69, "duration": 2, "velocity": 99}, {"time": 2043, "pitch": 72, "duration": 3, "velocity": 122}, {"time": 2047, "pitch": 72, "duration": 3, "velocity": 112}, {"time": 2051, "pitch": 69, "duration": 4, "velocity": 88}, {"time": 2055, "pitch": 67, "duration": 3, "velocity": 90}, {"time": 2079, "pitch": 72, "duration": 1, "velocity": 117}, {"time": 2083, "pitch": 72, "duration": 1, "velocity": 102}, {"time": 2087, "pitch": 69, "duration": 2, "velocity": 107}, {"time": 2091, "pitch": 72, "duration": 3, "velocity": 127}, {"time": 2099, "pitch": 69, "duration": 1, "velocity": 117}, {"time": 2103, "pitch": 67, "duration": 3, "velocity": 122}, {"time": 2109, "pitch": 69, "duration": 2, "velocity": 117}, {"time": 2111, "pitch": 67, "duration": 6, "velocity": 100}, {"time": 2119, "pitch": 60, "duration": 3, "velocity": 82}, {"time": 2123, "pitch": 64, "duration": 3, "velocity": 112}, {"time": 2127, "pitch": 72, "duration": 2, "velocity": 127}, {"time": 2131, "pitch": 72, "duration": 2, "velocity": 122}, {"time": 2135, "pitch": 72, "duration": 3, "velocity": 122}, {"time": 2139, "pitch": 69, "duration": 5, "velocity": 127}, {"time": 2143, "pitch": 71, "duration": 4, "velocity": 127}, {"time": 2147, "pitch": 72, "duration": 3, "velocity": 117}, {"time": 2151, "pitch": 74, "duration": 17, "velocity": 127}, {"time": 2175, "pitch": 74, "duration": 1, "velocity": 127}, {"time": 2179, "pitch": 74, "duration": 2, "velocity": 107}, {"time": 2183, "pitch": 67, "duration": 2, "velocity": 96}, {"time": 2187, "pitch": 76, "duration": 5, "velocity": 127}, {"time": 2195, "pitch": 74, "duration": 3, "velocity": 127}, {"time": 2199, "pitch": 72, "duration": 1, "velocity": 127}, {"time": 2203, "pitch": 72, "duration": 2, "velocity": 117}, {"time": 2207, "pitch": 69, "duration": 3, "velocity": 96}, {"time": 2211, "pitch": 74, "duration": 2, "velocity": 127}, {"time": 2219, "pitch": 72, "duration": 3, "velocity": 107}, {"time": 2223, "pitch": 67, "duration": 2, "velocity": 107}, {"time": 2227, "pitch": 67, "duration": 1, "velocity": 100}, {"time": 2231, "pitch": 64, "duration": 3, "velocity": 107}, {"time": 2235, "pitch": 67, "duration": 3, "velocity": 122}, {"time": 2243, "pitch": 69, "duration": 4, "velocity": 122}, {"time": 2247, "pitch": 67, "duration": 9, "velocity": 117}, {"time": 2271, "pitch": 74, "duration": 1, "velocity": 122}, {"time": 2275, "pitch": 74, "duration": 2, "velocity": 122}, {"time": 2279, "pitch": 67, "duration": 2, "velocity": 96}, {"time": 2283, "pitch": 76, "duration": 3, "velocity": 127}, {"time": 2287, "pitch": 74, "duration": 2, "velocity": 112}, {"time": 2291, "pitch": 74, "duration": 2, "velocity": 127}, {"time": 2295, "pitch": 72, "duration": 2, "velocity": 127}, {"time": 2299, "pitch": 69, "duration": 2, "velocity": 100}, {"time": 2303, "pitch": 69, "duration": 2, "velocity": 97}, {"time": 2307, "pitch": 74, "duration": 5, "velocity": 127}, {"time": 2315, "pitch": 72, "duration": 3, "velocity": 127}, {"time": 2319, "pitch": 69, "duration": 1, "velocity": 127}, {"time": 2323, "pitch": 69, "duration": 2, "velocity": 122}, {"time": 2327, "pitch": 67, "duration": 2, "velocity": 112}, {"time": 2331, "pitch": 74, "duration": 7, "velocity": 127}, {"time": 2339, "pitch": 76, "duration": 4, "velocity": 127}, {"time": 2343, "pitch": 72, "duration": 24, "velocity": 117}, {"time": 2367, "pitch": 74, "duration": 1, "velocity": 127}, {"time": 2371, "pitch": 74, "duration": 2, "velocity": 107}, {"time": 2375, "pitch": 67, "duration": 2, "velocity": 96}, {"time": 2379, "pitch": 76, "duration": 5, "velocity": 127}, {"time": 2387, "pitch": 74, "duration": 3, "velocity": 127}, {"time": 2391, "pitch": 72, "duration": 1, "velocity": 127}, {"time": 2395, "pitch": 72, "duration": 2, "velocity": 117}, {"time": 2399, "pitch": 69, "duration": 3, "velocity": 96}, {"time": 2403, "pitch": 74, "duration": 2, "velocity": 127}, {"time": 2411, "pitch": 72, "duration": 3, "velocity": 107}, {"time": 2415, "pitch": 67, "duration": 2, "velocity": 107}, {"time": 2419, "pitch": 67, "duration": 1, "velocity": 100}, {"time": 2423, "pitch": 64, "duration": 3, "velocity": 107}, {"time": 2427, "pitch": 67, "duration": 3, "velocity": 122}, {"time": 2435, "pitch": 69, "duration": 4, "velocity": 122}, {"time": 2439, "pitch": 67, "duration": 9, "velocity": 117}, {"time": 2463, "pitch": 74, "duration": 1, "velocity": 122}, {"time": 2467, "pitch": 74, "duration": 2, "velocity": 122}, {"time": 2471, "pitch": 67, "duration": 2, "velocity": 96}, {"time": 2475, "pitch": 76, "duration": 3, "velocity": 127}, {"time": 2479, "pitch": 74, "duration": 2, "velocity": 112}, {"time": 2483, "pitch": 74, "duration": 2, "velocity": 127}, {"time": 2487, "pitch": 72, "duration": 2, "velocity": 127}, {"time": 2491, "pitch": 69, "duration": 2, "velocity": 100}, {"time": 2495, "pitch": 69, "duration": 2, "velocity": 97}, {"time": 2499, "pitch": 74, "duration": 5, "velocity": 127}, {"time": 2507, "pitch": 72, "duration": 3, "velocity": 127}, {"time": 2511, "pitch": 69, "duration": 1, "velocity": 127}, {"time": 2515, "pitch": 69, "duration": 2, "velocity": 122}, {"time": 2519, "pitch": 67, "duration": 2, "velocity": 112}, {"time": 2523, "pitch": 74, "duration": 7, "velocity": 127}, {"time": 2531, "pitch": 76, "duration": 4, "velocity": 127}, {"time": 2535, "pitch": 72, "duration": 24, "velocity": 117}]}, {"program": 0, "is_drum": false, "name": "BRIDGE", "notes": [{"time": 51, "pitch": 79, "duration": 4, "velocity": 102}, {"time": 55, "pitch": 81, "duration": 4, "velocity": 102}, {"time": 59, "pitch": 84, "duration": 4, "velocity": 127}, {"time": 63, "pitch": 76, "duration": 7, "velocity": 122}, {"time": 71, "pitch": 79, "duration": 4, "velocity": 99}, {"time": 75, "pitch": 84, "duration": 6, "velocity": 112}, {"time": 83, "pitch": 83, "duration": 4, "velocity": 127}, {"time": 87, "pitch": 81, "duration": 11, "velocity": 117}, {"time": 95, "pitch": 79, "duration": 3, "velocity": 117}, {"time": 99, "pitch": 77, "duration": 4, "velocity": 96}, {"time": 103, "pitch": 76, "duration": 4, "velocity": 112}, {"time": 107, "pitch": 75, "duration": 3, "velocity": 112}, {"time": 111, "pitch": 74, "duration": 8, "velocity": 102}, {"time": 119, "pitch": 81, "duration": 3, "velocity": 102}, {"time": 123, "pitch": 86, "duration": 3, "velocity": 102}, {"time": 127, "pitch": 84, "duration": 4, "velocity": 96}, {"time": 131, "pitch": 83, "duration": 2, "velocity": 92}, {"time": 135, "pitch": 83, "duration": 15, "velocity": 100}, {"time": 159, "pitch": 77, "duration": 7, "velocity": 122}, {"time": 167, "pitch": 81, "duration": 4, "velocity": 107}, {"time": 171, "pitch": 86, "duration": 3, "velocity": 112}, {"time": 175, "pitch": 84, "duration": 3, "velocity": 102}, {"time": 179, "pitch": 83, "duration": 3, "velocity": 100}, {"time": 183, "pitch": 81, "duration": 4, "velocity": 122}, {"time": 187, "pitch": 79, "duration": 4, "velocity": 117}, {"time": 191, "pitch": 77, "duration": 3, "velocity": 117}, {"time": 195, "pitch": 76, "duration": 3, "velocity": 102}, {"time": 199, "pitch": 74, "duration": 3, "velocity": 112}, {"time": 203, "pitch": 69, "duration": 3, "velocity": 96}, {"time": 207, "pitch": 67, "duration": 12, "velocity": 95}, {"time": 215, "pitch": 74, "duration": 3, "velocity": 112}, {"time": 219, "pitch": 77, "duration": 2, "velocity": 96}, {"time": 223, "pitch": 76, "duration": 3, "velocity": 112}, {"time": 227, "pitch": 74, "duration": 4, "velocity": 93}, {"time": 231, "pitch": 72, "duration": 20, "velocity": 112}, {"time": 291, "pitch": 67, "duration": 3, "velocity": 92}, {"time": 295, "pitch": 69, "duration": 4, "velocity": 93}, {"time": 299, "pitch": 72, "duration": 2, "velocity": 102}, {"time": 302, "pitch": 72, "duration": 20, "velocity": 89}, {"time": 427, "pitch": 64, "duration": 3, "velocity": 92}, {"time": 431, "pitch": 67, "duration": 3, "velocity": 102}, {"time": 435, "pitch": 69, "duration": 4, "velocity": 88}, {"time": 439, "pitch": 67, "duration": 3, "velocity": 96}, {"time": 442, "pitch": 62, "duration": 5, "velocity": 96}, {"time": 446, "pitch": 60, "duration": 8, "velocity": 100}, {"time": 483, "pitch": 67, "duration": 4, "velocity": 97}, {"time": 487, "pitch": 69, "duration": 3, "velocity": 99}, {"time": 490, "pitch": 72, "duration": 19, "velocity": 90}, {"time": 615, "pitch": 67, "duration": 3, "velocity": 102}, {"time": 619, "pitch": 69, "duration": 2, "velocity": 122}, {"time": 623, "pitch": 67, "duration": 2, "velocity": 112}, {"time": 627, "pitch": 67, "duration": 1, "velocity": 112}, {"time": 631, "pitch": 67, "duration": 1, "velocity": 102}, {"time": 633, "pitch": 69, "duration": 3, "velocity": 93}, {"time": 635, "pitch": 71, "duration": 3, "velocity": 93}, {"time": 637, "pitch": 72, "duration": 3, "velocity": 79}, {"time": 639, "pitch": 74, "duration": 3, "velocity": 107}, {"time": 723, "pitch": 64, "duration": 3, "velocity": 99}, {"time": 725, "pitch": 65, "duration": 3, "velocity": 82}, {"time": 727, "pitch": 67, "duration": 1, "velocity": 89}, {"time": 729, "pitch": 69, "duration": 2, "velocity": 89}, {"time": 731, "pitch": 71, "duration": 3, "velocity": 90}, {"time": 733, "pitch": 72, "duration": 2, "velocity": 96}, {"time": 735, "pitch": 74, "duration": 9, "velocity": 127}, {"time": 831, "pitch": 76, "duration": 7, "velocity": 122}, {"time": 839, "pitch": 79, "duration": 4, "velocity": 99}, {"time": 843, "pitch": 84, "duration": 6, "velocity": 112}, {"time": 851, "pitch": 83, "duration": 4, "velocity": 127}, {"time": 855, "pitch": 81, "duration": 11, "velocity": 117}, {"time": 863, "pitch": 79, "duration": 3, "velocity": 117}, {"time": 867, "pitch": 77, "duration": 4, "velocity": 96}, {"time": 871, "pitch": 76, "duration": 4, "velocity": 112}, {"time": 875, "pitch": 75, "duration": 3, "velocity": 112}, {"time": 879, "pitch": 74, "duration": 8, "velocity": 102}, {"time": 887, "pitch": 81, "duration": 3, "velocity": 102}, {"time": 891, "pitch": 86, "duration": 3, "velocity": 102}, {"time": 895, "pitch": 84, "duration": 4, "velocity": 96}, {"time": 899, "pitch": 83, "duration": 2, "velocity": 92}, {"time": 903, "pitch": 83, "duration": 15, "velocity": 100}, {"time": 927, "pitch": 77, "duration": 7, "velocity": 122}, {"time": 935, "pitch": 81, "duration": 4, "velocity": 107}, {"time": 939, "pitch": 86, "duration": 3, "velocity": 112}, {"time": 943, "pitch": 84, "duration": 3, "velocity": 102}, {"time": 947, "pitch": 83, "duration": 3, "velocity": 100}, {"time": 951, "pitch": 81, "duration": 4, "velocity": 122}, {"time": 955, "pitch": 79, "duration": 4, "velocity": 117}, {"time": 959, "pitch": 77, "duration": 3, "velocity": 117}, {"time": 963, "pitch": 76, "duration": 3, "velocity": 102}, {"time": 967, "pitch": 74, "duration": 3, "velocity": 112}, {"time": 971, "pitch": 69, "duration": 3, "velocity": 96}, {"time": 975, "pitch": 67, "duration": 12, "velocity": 95}, {"time": 983, "pitch": 74, "duration": 3, "velocity": 112}, {"time": 987, "pitch": 77, "duration": 2, "velocity": 96}, {"time": 991, "pitch": 76, "duration": 3, "velocity": 112}, {"time": 995, "pitch": 74, "duration": 4, "velocity": 93}, {"time": 999, "pitch": 72, "duration": 20, "velocity": 112}, {"time": 1059, "pitch": 67, "duration": 3, "velocity": 92}, {"time": 1063, "pitch": 69, "duration": 4, "velocity": 93}, {"time": 1067, "pitch": 72, "duration": 2, "velocity": 102}, {"time": 1070, "pitch": 72, "duration": 20, "velocity": 89}, {"time": 1195, "pitch": 64, "duration": 3, "velocity": 92}, {"time": 1199, "pitch": 67, "duration": 3, "velocity": 102}, {"time": 1203, "pitch": 69, "duration": 4, "velocity": 88}, {"time": 1207, "pitch": 67, "duration": 3, "velocity": 96}, {"time": 1210, "pitch": 62, "duration": 5, "velocity": 96}, {"time": 1214, "pitch": 60, "duration": 8, "velocity": 100}, {"time": 1251, "pitch": 67, "duration": 4, "velocity": 97}, {"time": 1255, "pitch": 69, "duration": 3, "velocity": 99}, {"time": 1258, "pitch": 72, "duration": 19, "velocity": 90}, {"time": 1383, "pitch": 67, "duration": 3, "velocity": 102}, {"time": 1387, "pitch": 69, "duration": 2, "velocity": 122}, {"time": 1391, "pitch": 67, "duration": 2, "velocity": 112}, {"time": 1395, "pitch": 67, "duration": 1, "velocity": 112}, {"time": 1399, "pitch": 67, "duration": 1, "velocity": 102}, {"time": 1401, "pitch": 69, "duration": 3, "velocity": 93}, {"time": 1403, "pitch": 71, "duration": 3, "velocity": 93}, {"time": 1405, "pitch": 72, "duration": 3, "velocity": 79}, {"time": 1407, "pitch": 74, "duration": 3, "velocity": 107}, {"time": 1491, "pitch": 64, "duration": 3, "velocity": 99}, {"time": 1493, "pitch": 65, "duration": 3, "velocity": 82}, {"time": 1495, "pitch": 67, "duration": 1, "velocity": 89}, {"time": 1497, "pitch": 69, "duration": 2, "velocity": 89}, {"time": 1499, "pitch": 71, "duration": 3, "velocity": 90}, {"time": 1501, "pitch": 72, "duration": 2, "velocity": 96}, {"time": 1503, "pitch": 74, "duration": 9, "velocity": 127}, {"time": 1599, "pitch": 76, "duration": 7, "velocity": 122}, {"time": 1607, "pitch": 79, "duration": 4, "velocity": 99}, {"time": 1611, "pitch": 84, "duration": 6, "velocity": 112}, {"time": 1619, "pitch": 83, "duration": 4, "velocity": 127}, {"time": 1623, "pitch": 81, "duration": 11, "velocity": 117}, {"time": 1631, "pitch": 79, "duration": 3, "velocity": 117}, {"time": 1635, "pitch": 77, "duration": 4, "velocity": 96}, {"time": 1639, "pitch": 76, "duration": 4, "velocity": 112}, {"time": 1643, "pitch": 75, "duration": 3, "velocity": 112}, {"time": 1647, "pitch": 74, "duration": 8, "velocity": 102}, {"time": 1655, "pitch": 81, "duration": 3, "velocity": 102}, {"time": 1659, "pitch": 86, "duration": 3, "velocity": 102}, {"time": 1663, "pitch": 84, "duration": 4, "velocity": 96}, {"time": 1667, "pitch": 83, "duration": 2, "velocity": 92}, {"time": 1671, "pitch": 83, "duration": 15, "velocity": 100}, {"time": 1695, "pitch": 77, "duration": 7, "velocity": 122}, {"time": 1703, "pitch": 81, "duration": 4, "velocity": 107}, {"time": 1707, "pitch": 86, "duration": 3, "velocity": 112}, {"time": 1711, "pitch": 84, "duration": 3, "velocity": 102}, {"time": 1715, "pitch": 83, "duration": 3, "velocity": 100}, {"time": 1719, "pitch": 81, "duration": 4, "velocity": 122}, {"time": 1723, "pitch": 79, "duration": 4, "velocity": 117}, {"time": 1727, "pitch": 77, "duration": 3, "velocity": 117}, {"time": 1731, "pitch": 76, "duration": 3, "velocity": 102}, {"time": 1735, "pitch": 74, "duration": 3, "velocity": 112}, {"time": 1739, "pitch": 69, "duration": 3, "velocity": 96}, {"time": 1743, "pitch": 67, "duration": 12, "velocity": 95}, {"time": 1751, "pitch": 74, "duration": 3, "velocity": 112}, {"time": 1755, "pitch": 77, "duration": 2, "velocity": 96}, {"time": 1759, "pitch": 76, "duration": 3, "velocity": 112}, {"time": 1763, "pitch": 74, "duration": 4, "velocity": 93}, {"time": 1767, "pitch": 72, "duration": 20, "velocity": 112}, {"time": 1827, "pitch": 67, "duration": 3, "velocity": 92}, {"time": 1831, "pitch": 69, "duration": 4, "velocity": 93}, {"time": 1835, "pitch": 72, "duration": 2, "velocity": 102}, {"time": 1838, "pitch": 72, "duration": 20, "velocity": 89}, {"time": 1963, "pitch": 64, "duration": 3, "velocity": 92}, {"time": 1967, "pitch": 67, "duration": 3, "velocity": 102}, {"time": 1971, "pitch": 69, "duration": 4, "velocity": 88}, {"time": 1975, "pitch": 67, "duration": 3, "velocity": 96}, {"time": 1978, "pitch": 62, "duration": 5, "velocity": 96}, {"time": 1982, "pitch": 60, "duration": 8, "velocity": 100}, {"time": 2019, "pitch": 67, "duration": 4, "velocity": 97}, {"time": 2023, "pitch": 69, "duration": 3, "velocity": 99}, {"time": 2026, "pitch": 72, "duration": 19, "velocity": 90}, {"time": 2151, "pitch": 67, "duration": 3, "velocity": 102}, {"time": 2155, "pitch": 69, "duration": 2, "velocity": 122}, {"time": 2159, "pitch": 67, "duration": 2, "velocity": 112}, {"time": 2163, "pitch": 67, "duration": 1, "velocity": 112}, {"time": 2167, "pitch": 67, "duration": 1, "velocity": 102}, {"time": 2169, "pitch": 69, "duration": 3, "velocity": 93}, {"time": 2171, "pitch": 71, "duration": 3, "velocity": 93}, {"time": 2173, "pitch": 72, "duration": 3, "velocity": 79}, {"time": 2175, "pitch": 74, "duration": 3, "velocity": 107}, {"time": 2259, "pitch": 64, "duration": 3, "velocity": 99}, {"time": 2261, "pitch": 65, "duration": 3, "velocity": 82}, {"time": 2263, "pitch": 67, "duration": 1, "velocity": 89}, {"time": 2265, "pitch": 69, "duration": 2, "velocity": 89}, {"time": 2267, "pitch": 71, "duration": 3, "velocity": 90}, {"time": 2269, "pitch": 72, "duration": 2, "velocity": 96}, {"time": 2271, "pitch": 74, "duration": 9, "velocity": 127}, {"time": 2451, "pitch": 64, "duration": 3, "velocity": 99}, {"time": 2453, "pitch": 65, "duration": 3, "velocity": 82}, {"time": 2455, "pitch": 67, "duration": 1, "velocity": 89}, {"time": 2457, "pitch": 69, "duration": 2, "velocity": 89}, {"time": 2459, "pitch": 71, "duration": 3, "velocity": 90}, {"time": 2461, "pitch": 72, "duration": 2, "velocity": 96}, {"time": 2463, "pitch": 74, "duration": 9, "velocity": 127}, {"time": 2559, "pitch": 76, "duration": 7, "velocity": 122}, {"time": 2567, "pitch": 79, "duration": 4, "velocity": 99}, {"time": 2571, "pitch": 84, "duration": 6, "velocity": 112}, {"time": 2579, "pitch": 83, "duration": 4, "velocity": 127}, {"time": 2583, "pitch": 81, "duration": 11, "velocity": 117}, {"time": 2591, "pitch": 79, "duration": 3, "velocity": 117}, {"time": 2595, "pitch": 77, "duration": 4, "velocity": 96}, {"time": 2599, "pitch": 76, "duration": 4, "velocity": 112}, {"time": 2603, "pitch": 75, "duration": 3, "velocity": 112}, {"time": 2607, "pitch": 74, "duration": 8, "velocity": 102}, {"time": 2615, "pitch": 81, "duration": 3, "velocity": 102}, {"time": 2619, "pitch": 86, "duration": 3, "velocity": 102}, {"time": 2623, "pitch": 84, "duration": 4, "velocity": 96}, {"time": 2627, "pitch": 83, "duration": 2, "velocity": 92}, {"time": 2631, "pitch": 83, "duration": 15, "velocity": 100}, {"time": 2655, "pitch": 77, "duration": 7, "velocity": 122}, {"time": 2663, "pitch": 81, "duration": 4, "velocity": 107}, {"time": 2667, "pitch": 86, "duration": 3, "velocity": 112}, {"time": 2671, "pitch": 84, "duration": 3, "velocity": 102}, {"time": 2675, "pitch": 83, "duration": 3, "velocity": 100}, {"time": 2679, "pitch": 81, "duration": 4, "velocity": 122}, {"time": 2683, "pitch": 79, "duration": 4, "velocity": 117}, {"time": 2687, "pitch": 77, "duration": 3, "velocity": 117}, {"time": 2691, "pitch": 76, "duration": 3, "velocity": 102}, {"time": 2695, "pitch": 74, "duration": 3, "velocity": 112}, {"time": 2699, "pitch": 69, "duration": 3, "velocity": 96}, {"time": 2703, "pitch": 67, "duration": 12, "velocity": 95}, {"time": 2711, "pitch": 74, "duration": 3, "velocity": 112}, {"time": 2715, "pitch": 77, "duration": 2, "velocity": 96}, {"time": 2719, "pitch": 76, "duration": 3, "velocity": 112}, {"time": 2723, "pitch": 74, "duration": 4, "velocity": 93}, {"time": 2727, "pitch": 72, "duration": 12, "velocity": 112}, {"time": 2727, "pitch": 76, "duration": 11, "velocity": 127}, {"time": 2739, "pitch": 79, "duration": 11, "velocity": 112}, {"time": 2751, "pitch": 83, "duration": 10, "velocity": 117}, {"time": 2763, "pitch": 84, "duration": 39, "velocity": 127}]}, {"program": 0, "is_drum": false, "name": "PIANO", "notes": [{"time": 51, "pitch": 67, "duration": 4, "velocity": 102}, {"time": 55, "pitch": 69, "duration": 4, "velocity": 117}, {"time": 59, "pitch": 72, "duration": 3, "velocity": 102}, {"time": 63, "pitch": 36, "duration": 23, "velocity": 86}, {"time": 67, "pitch": 48, "duration": 9, "velocity": 90}, {"time": 71, "pitch": 55, "duration": 3, "velocity": 76}, {"time": 75, "pitch": 60, "duration": 14, "velocity": 97}, {"time": 75, "pitch": 64, "duration": 14, "velocity": 99}, {"time": 79, "pitch": 48, "duration": 8, "velocity": 92}, {"time": 83, "pitch": 55, "duration": 7, "velocity": 86}, {"time": 87, "pitch": 36, "duration": 7, "velocity": 71}, {"time": 91, "pitch": 48, "duration": 3, "velocity": 90}, {"time": 95, "pitch": 55, "duration": 4, "velocity": 85}, {"time": 99, "pitch": 60, "duration": 5, "velocity": 85}, {"time": 99, "pitch": 64, "duration": 11, "velocity": 93}, {"time": 103, "pitch": 55, "duration": 5, "velocity": 86}, {"time": 107, "pitch": 60, "duration": 3, "velocity": 89}, {"time": 111, "pitch": 38, "duration": 19, "velocity": 69}, {"time": 115, "pitch": 45, "duration": 16, "velocity": 57}, {"time": 119, "pitch": 50, "duration": 5, "velocity": 77}, {"time": 123, "pitch": 62, "duration": 11, "velocity": 90}, {"time": 123, "pitch": 65, "duration": 11, "velocity": 92}, {"time": 127, "pitch": 50, "duration": 3, "velocity": 70}, {"time": 131, "pitch": 57, "duration": 4, "velocity": 83}, {"time": 135, "pitch": 43, "duration": 13, "velocity": 66}, {"time": 139, "pitch": 50, "duration": 8, "velocity": 89}, {"time": 143, "pitch": 55, "duration": 4, "velocity": 83}, {"time": 147, "pitch": 62, "duration": 11, "velocity": 107}, {"time": 151, "pitch": 59, "duration": 7, "velocity": 82}, {"time": 155, "pitch": 55, "duration": 4, "velocity": 90}, {"time": 159, "pitch": 38, "duration": 17, "velocity": 79}, {"time": 163, "pitch": 45, "duration": 13, "velocity": 50}, {"time": 167, "pitch": 50, "duration": 6, "velocity": 85}, {"time": 171, "pitch": 65, "duration": 14, "velocity": 99}, {"time": 175, "pitch": 62, "duration": 10, "velocity": 78}, {"time": 179, "pitch": 57, "duration": 5, "velocity": 78}, {"time": 183, "pitch": 38, "duration": 17, "velocity": 72}, {"time": 187, "pitch": 45, "duration": 14, "velocity": 62}, {"time": 191, "pitch": 50, "duration": 6, "velocity": 89}, {"time": 195, "pitch": 65, "duration": 11, "velocity": 112}, {"time": 199, "pitch": 50, "duration": 6, "velocity": 75}, {"time": 203, "pitch": 62, "duration": 4, "velocity": 96}, {"time": 207, "pitch": 43, "duration": 15, "velocity": 77}, {"time": 211, "pitch": 50, "duration": 9, "velocity": 69}, {"time": 215, "pitch": 55, "duration": 4, "velocity": 89}, {"time": 219, "pitch": 62, "duration": 9, "velocity": 112}, {"time": 223, "pitch": 59, "duration": 5, "velocity": 89}, {"time": 227, "pitch": 55, "duration": 3, "velocity": 95}, {"time": 231, "pitch": 36, "duration": 20, "velocity": 78}, {"time": 235, "pitch": 43, "duration": 20, "velocity": 56}, {"time": 239, "pitch": 48, "duration": 5, "velocity": 95}, {"time": 243, "pitch": 64, "duration": 5, "velocity": 127}, {"time": 247, "pitch": 62, "duration": 5, "velocity": 102}, {"time": 251, "pitch": 64, "duration": 4, "velocity": 63}, {"time": 255, "pitch": 36, "duration": 22, "velocity": 69}, {"time": 259, "pitch": 43, "duration": 18, "velocity": 58}, {"time": 263, "pitch": 48, "duration": 14, "velocity": 69}, {"time": 267, "pitch": 64, "duration": 13, "velocity": 99}, {"time": 271, "pitch": 60, "duration": 12, "velocity": 69}, {"time": 275, "pitch": 55, "duration": 5, "velocity": 71}, {"time": 279, "pitch": 36, "duration": 12, "velocity": 85}, {"time": 283, "pitch": 48, "duration": 11, "velocity": 69}, {"time": 287, "pitch": 55, "duration": 4, "velocity": 82}, {"time": 291, "pitch": 64, "duration": 12, "velocity": 97}, {"time": 295, "pitch": 60, "duration": 8, "velocity": 83}, {"time": 299, "pitch": 55, "duration": 4, "velocity": 69}, {"time": 303, "pitch": 41, "duration": 20, "velocity": 72}, {"time": 307, "pitch": 48, "duration": 18, "velocity": 42}, {"time": 311, "pitch": 53, "duration": 7, "velocity": 83}, {"time": 315, "pitch": 60, "duration": 6, "velocity": 107}, {"time": 319, "pitch": 57, "duration": 5, "velocity": 79}, {"time": 323, "pitch": 60, "duration": 6, "velocity": 81}, {"time": 327, "pitch": 48, "duration": 18, "velocity": 85}, {"time": 331, "pitch": 55, "duration": 6, "velocity": 48}, {"time": 335, "pitch": 60, "duration": 4, "velocity": 93}, {"time": 339, "pitch": 64, "duration": 12, "velocity": 99}, {"time": 343, "pitch": 60, "duration": 8, "velocity": 93}, {"time": 347, "pitch": 55, "duration": 4, "velocity": 85}, {"time": 351, "pitch": 41, "duration": 17, "velocity": 93}, {"time": 355, "pitch": 48, "duration": 13, "velocity": 65}, {"time": 359, "pitch": 53, "duration": 5, "velocity": 90}, {"time": 363, "pitch": 65, "duration": 10, "velocity": 99}, {"time": 367, "pitch": 60, "duration": 8, "velocity": 75}, {"time": 371, "pitch": 57, "duration": 4, "velocity": 97}, {"time": 375, "pitch": 36, "duration": 22, "velocity": 73}, {"time": 379, "pitch": 48, "duration": 19, "velocity": 88}, {"time": 383, "pitch": 55, "duration": 3, "velocity": 77}, {"time": 387, "pitch": 64, "duration": 11, "velocity": 102}, {"time": 391, "pitch": 60, "duration": 7, "velocity": 95}, {"time": 395, "pitch": 55, "duration": 3, "velocity": 92}, {"time": 399, "pitch": 36, "duration": 19, "velocity": 71}, {"time": 403, "pitch": 48, "duration": 10, "velocity": 89}, {"time": 407, "pitch": 55, "duration": 3, "velocity": 62}, {"time": 411, "pitch": 60, "duration": 12, "velocity": 89}, {"time": 411, "pitch": 64, "duration": 11, "velocity": 95}, {"time": 415, "pitch": 48, "duration": 7, "velocity": 76}, {"time": 419, "pitch": 55, "duration": 4, "velocity": 88}, {"time": 423, "pitch": 43, "duration": 17, "velocity": 70}, {"time": 427, "pitch": 50, "duration": 12, "velocity": 86}, {"time": 431, "pitch": 55, "duration": 4, "velocity": 78}, {"time": 435, "pitch": 62, "duration": 9, "velocity": 112}, {"time": 439, "pitch": 59, "duration": 6, "velocity": 100}, {"time": 443, "pitch": 55, "duration": 4, "velocity": 93}, {"time": 447, "pitch": 36, "duration": 22, "velocity": 89}, {"time": 451, "pitch": 48, "duration": 21, "velocity": 83}, {"time": 455, "pitch": 55, "duration": 5, "velocity": 86}, {"time": 459, "pitch": 64, "duration": 14, "velocity": 97}, {"time": 463, "pitch": 60, "duration": 9, "velocity": 73}, {"time": 467, "pitch": 55, "duration": 5, "velocity": 88}, {"time": 471, "pitch": 36, "duration": 12, "velocity": 67}, {"time": 474, "pitch": 48, "duration": 10, "velocity": 73}, {"time": 478, "pitch": 55, "duration": 5, "velocity": 68}, {"time": 483, "pitch": 64, "duration": 11, "velocity": 99}, {"time": 487, "pitch": 60, "duration": 7, "velocity": 89}, {"time": 491, "pitch": 55, "duration": 5, "velocity": 78}, {"time": 494, "pitch": 41, "duration": 16, "velocity": 69}, {"time": 499, "pitch": 48, "duration": 10, "velocity": 75}, {"time": 503, "pitch": 53, "duration": 4, "velocity": 66}, {"time": 507, "pitch": 60, "duration": 11, "velocity": 102}, {"time": 511, "pitch": 57, "duration": 7, "velocity": 86}, {"time": 515, "pitch": 53, "duration": 4, "velocity": 86}, {"time": 518, "pitch": 36, "duration": 12, "velocity": 64}, {"time": 523, "pitch": 48, "duration": 12, "velocity": 79}, {"time": 527, "pitch": 55, "duration": 6, "velocity": 88}, {"time": 531, "pitch": 64, "duration": 11, "velocity": 102}, {"time": 535, "pitch": 60, "duration": 7, "velocity": 102}, {"time": 539, "pitch": 55, "duration": 3, "velocity": 93}, {"time": 542, "pitch": 41, "duration": 19, "velocity": 78}, {"time": 547, "pitch": 48, "duration": 10, "velocity": 42}, {"time": 551, "pitch": 53, "duration": 3, "velocity": 78}, {"time": 555, "pitch": 57, "duration": 10, "velocity": 90}, {"time": 555, "pitch": 60, "duration": 10, "velocity": 97}, {"time": 559, "pitch": 48, "duration": 2, "velocity": 72}, {"time": 563, "pitch": 53, "duration": 4, "velocity": 83}, {"time": 567, "pitch": 36, "duration": 18, "velocity": 75}, {"time": 571, "pitch": 48, "duration": 10, "velocity": 78}, {"time": 575, "pitch": 55, "duration": 3, "velocity": 75}, {"time": 579, "pitch": 64, "duration": 12, "velocity": 117}, {"time": 583, "pitch": 48, "duration": 4, "velocity": 85}, {"time": 587, "pitch": 60, "duration": 4, "velocity": 93}, {"time": 590, "pitch": 38, "duration": 18, "velocity": 72}, {"time": 591, "pitch": 62, "duration": 7, "velocity": 99}, {"time": 591, "pitch": 66, "duration": 7, "velocity": 107}, {"time": 595, "pitch": 50, "duration": 9, "velocity": 90}, {"time": 599, "pitch": 57, "duration": 2, "velocity": 77}, {"time": 603, "pitch": 62, "duration": 7, "velocity": 96}, {"time": 603, "pitch": 66, "duration": 7, "velocity": 112}, {"time": 607, "pitch": 50, "duration": 2, "velocity": 72}, {"time": 611, "pitch": 57, "duration": 4, "velocity": 95}, {"time": 615, "pitch": 43, "duration": 21, "velocity": 76}, {"time": 615, "pitch": 59, "duration": 2, "velocity": 85}, {"time": 615, "pitch": 62, "duration": 2, "velocity": 95}, {"time": 619, "pitch": 50, "duration": 6, "velocity": 52}, {"time": 619, "pitch": 59, "duration": 2, "velocity": 69}, {"time": 619, "pitch": 62, "duration": 2, "velocity": 69}, {"time": 623, "pitch": 55, "duration": 2, "velocity": 95}, {"time": 623, "pitch": 59, "duration": 2, "velocity": 96}, {"time": 623, "pitch": 62, "duration": 2, "velocity": 96}, {"time": 627, "pitch": 50, "duration": 10, "velocity": 100}, {"time": 627, "pitch": 55, "duration": 2, "velocity": 99}, {"time": 627, "pitch": 59, "duration": 2, "velocity": 100}, {"time": 627, "pitch": 62, "duration": 2, "velocity": 97}, {"time": 631, "pitch": 55, "duration": 2, "velocity": 100}, {"time": 631, "pitch": 59, "duration": 2, "velocity": 100}, {"time": 631, "pitch": 62, "duration": 2, "velocity": 100}, {"time": 635, "pitch": 55, "duration": 2, "velocity": 96}, {"time": 635, "pitch": 59, "duration": 2, "velocity": 100}, {"time": 635, "pitch": 62, "duration": 2, "velocity": 99}, {"time": 639, "pitch": 43, "duration": 17, "velocity": 93}, {"time": 639, "pitch": 55, "duration": 5, "velocity": 102}, {"time": 639, "pitch": 59, "duration": 6, "velocity": 107}, {"time": 639, "pitch": 62, "duration": 6, "velocity": 107}, {"time": 643, "pitch": 50, "duration": 9, "velocity": 92}, {"time": 647, "pitch": 55, "duration": 2, "velocity": 83}, {"time": 647, "pitch": 59, "duration": 1, "velocity": 43}, {"time": 647, "pitch": 62, "duration": 1, "velocity": 45}, {"time": 651, "pitch": 59, "duration": 8, "velocity": 112}, {"time": 651, "pitch": 62, "duration": 9, "velocity": 112}, {"time": 654, "pitch": 50, "duration": 2, "velocity": 92}, {"time": 659, "pitch": 55, "duration": 3, "velocity": 99}, {"time": 663, "pitch": 41, "duration": 18, "velocity": 72}, {"time": 663, "pitch": 57, "duration": 2, "velocity": 112}, {"time": 663, "pitch": 60, "duration": 3, "velocity": 112}, {"time": 667, "pitch": 53, "duration": 10, "velocity": 90}, {"time": 671, "pitch": 60, "duration": 3, "velocity": 85}, {"time": 671, "pitch": 65, "duration": 1, "velocity": 47}, {"time": 675, "pitch": 65, "duration": 8, "velocity": 117}, {"time": 675, "pitch": 69, "duration": 8, "velocity": 112}, {"time": 679, "pitch": 53, "duration": 1, "velocity": 75}, {"time": 682, "pitch": 60, "duration": 4, "velocity": 92}, {"time": 687, "pitch": 36, "duration": 22, "velocity": 72}, {"time": 687, "pitch": 60, "duration": 4, "velocity": 96}, {"time": 687, "pitch": 64, "duration": 3, "velocity": 97}, {"time": 687, "pitch": 67, "duration": 3, "velocity": 102}, {"time": 691, "pitch": 48, "duration": 10, "velocity": 95}, {"time": 695, "pitch": 55, "duration": 2, "velocity": 68}, {"time": 695, "pitch": 60, "duration": 2, "velocity": 82}, {"time": 695, "pitch": 64, "duration": 2, "velocity": 82}, {"time": 699, "pitch": 60, "duration": 9, "velocity": 107}, {"time": 699, "pitch": 64, "duration": 10, "velocity": 95}, {"time": 703, "pitch": 48, "duration": 8, "velocity": 86}, {"time": 707, "pitch": 55, "duration": 3, "velocity": 82}, {"time": 711, "pitch": 36, "duration": 17, "velocity": 92}, {"time": 711, "pitch": 55, "duration": 9, "velocity": 79}, {"time": 711, "pitch": 60, "duration": 9, "velocity": 97}, {"time": 711, "pitch": 64, "duration": 10, "velocity": 89}, {"time": 719, "pitch": 48, "duration": 5, "velocity": 97}, {"time": 723, "pitch": 60, "duration": 8, "velocity": 117}, {"time": 723, "pitch": 64, "duration": 8, "velocity": 107}, {"time": 727, "pitch": 48, "duration": 4, "velocity": 93}, {"time": 730, "pitch": 55, "duration": 11, "velocity": 102}, {"time": 735, "pitch": 43, "duration": 17, "velocity": 77}, {"time": 735, "pitch": 59, "duration": 9, "velocity": 100}, {"time": 735, "pitch": 62, "duration": 9, "velocity": 107}, {"time": 739, "pitch": 50, "duration": 9, "velocity": 73}, {"time": 743, "pitch": 55, "duration": 2, "velocity": 95}, {"time": 747, "pitch": 59, "duration": 7, "velocity": 100}, {"time": 747, "pitch": 62, "duration": 9, "velocity": 112}, {"time": 751, "pitch": 50, "duration": 2, "velocity": 99}, {"time": 755, "pitch": 55, "duration": 3, "velocity": 89}, {"time": 759, "pitch": 41, "duration": 20, "velocity": 92}, {"time": 759, "pitch": 57, "duration": 1, "velocity": 102}, {"time": 759, "pitch": 60, "duration": 1, "velocity": 107}, {"time": 763, "pitch": 48, "duration": 20, "velocity": 65}, {"time": 767, "pitch": 53, "duration": 5, "velocity": 92}, {"time": 771, "pitch": 60, "duration": 7, "velocity": 112}, {"time": 771, "pitch": 65, "duration": 6, "velocity": 112}, {"time": 771, "pitch": 69, "duration": 7, "velocity": 112}, {"time": 775, "pitch": 53, "duration": 3, "velocity": 96}, {"time": 778, "pitch": 65, "duration": 3, "velocity": 107}, {"time": 783, "pitch": 43, "duration": 17, "velocity": 83}, {"time": 783, "pitch": 62, "duration": 9, "velocity": 95}, {"time": 783, "pitch": 67, "duration": 9, "velocity": 96}, {"time": 783, "pitch": 71, "duration": 9, "velocity": 96}, {"time": 787, "pitch": 50, "duration": 10, "velocity": 90}, {"time": 791, "pitch": 55, "duration": 3, "velocity": 100}, {"time": 795, "pitch": 62, "duration": 5, "velocity": 107}, {"time": 795, "pitch": 67, "duration": 8, "velocity": 127}, {"time": 795, "pitch": 71, "duration": 7, "velocity": 127}, {"time": 798, "pitch": 50, "duration": 1, "velocity": 100}, {"time": 802, "pitch": 62, "duration": 2, "velocity": 100}, {"time": 807, "pitch": 36, "duration": 24, "velocity": 85}, {"time": 807, "pitch": 60, "duration": 5, "velocity": 117}, {"time": 807, "pitch": 64, "duration": 5, "velocity": 95}, {"time": 807, "pitch": 67, "duration": 5, "velocity": 97}, {"time": 813, "pitch": 48, "duration": 7, "velocity": 83}, {"time": 814, "pitch": 60, "duration": 1, "velocity": 76}, {"time": 814, "pitch": 64, "duration": 1, "velocity": 82}, {"time": 814, "pitch": 67, "duration": 2, "velocity": 86}, {"time": 818, "pitch": 64, "duration": 5, "velocity": 117}, {"time": 819, "pitch": 60, "duration": 5, "velocity": 127}, {"time": 819, "pitch": 67, "duration": 5, "velocity": 127}, {"time": 823, "pitch": 48, "duration": 8, "velocity": 117}, {"time": 827, "pitch": 60, "duration": 4, "velocity": 112}, {"time": 827, "pitch": 64, "duration": 3, "velocity": 127}, {"time": 827, "pitch": 67, "duration": 4, "velocity": 117}, {"time": 831, "pitch": 36, "duration": 1, "velocity": 86}, {"time": 835, "pitch": 48, "duration": 9, "velocity": 90}, {"time": 839, "pitch": 55, "duration": 3, "velocity": 76}, {"time": 843, "pitch": 60, "duration": 14, "velocity": 97}, {"time": 843, "pitch": 64, "duration": 14, "velocity": 99}, {"time": 847, "pitch": 48, "duration": 8, "velocity": 92}, {"time": 851, "pitch": 55, "duration": 7, "velocity": 86}, {"time": 855, "pitch": 36, "duration": 7, "velocity": 71}, {"time": 859, "pitch": 48, "duration": 3, "velocity": 90}, {"time": 863, "pitch": 55, "duration": 4, "velocity": 85}, {"time": 867, "pitch": 60, "duration": 5, "velocity": 85}, {"time": 867, "pitch": 64, "duration": 11, "velocity": 93}, {"time": 871, "pitch": 55, "duration": 5, "velocity": 86}, {"time": 875, "pitch": 60, "duration": 3, "velocity": 89}, {"time": 879, "pitch": 38, "duration": 19, "velocity": 69}, {"time": 883, "pitch": 45, "duration": 16, "velocity": 57}, {"time": 887, "pitch": 50, "duration": 5, "velocity": 77}, {"time": 891, "pitch": 62, "duration": 11, "velocity": 90}, {"time": 891, "pitch": 65, "duration": 11, "velocity": 92}, {"time": 895, "pitch": 50, "duration": 3, "velocity": 70}, {"time": 899, "pitch": 57, "duration": 4, "velocity": 83}, {"time": 903, "pitch": 43, "duration": 13, "velocity": 66}, {"time": 907, "pitch": 50, "duration": 8, "velocity": 89}, {"time": 911, "pitch": 55, "duration": 4, "velocity": 83}, {"time": 915, "pitch": 62, "duration": 11, "velocity": 107}, {"time": 919, "pitch": 59, "duration": 7, "velocity": 82}, {"time": 923, "pitch": 55, "duration": 4, "velocity": 90}, {"time": 927, "pitch": 38, "duration": 17, "velocity": 79}, {"time": 931, "pitch": 45, "duration": 13, "velocity": 50}, {"time": 935, "pitch": 50, "duration": 6, "velocity": 85}, {"time": 939, "pitch": 65, "duration": 14, "velocity": 99}, {"time": 943, "pitch": 62, "duration": 10, "velocity": 78}, {"time": 947, "pitch": 57, "duration": 5, "velocity": 78}, {"time": 951, "pitch": 38, "duration": 17, "velocity": 72}, {"time": 955, "pitch": 45, "duration": 14, "velocity": 62}, {"time": 959, "pitch": 50, "duration": 6, "velocity": 89}, {"time": 963, "pitch": 65, "duration": 11, "velocity": 112}, {"time": 967, "pitch": 50, "duration": 6, "velocity": 75}, {"time": 971, "pitch": 62, "duration": 4, "velocity": 96}, {"time": 975, "pitch": 43, "duration": 15, "velocity": 77}, {"time": 979, "pitch": 50, "duration": 9, "velocity": 69}, {"time": 983, "pitch": 55, "duration": 4, "velocity": 89}, {"time": 987, "pitch": 62, "duration": 9, "velocity": 112}, {"time": 991, "pitch": 59, "duration": 5, "velocity": 89}, {"time": 995, "pitch": 55, "duration": 3, "velocity": 95}, {"time": 999, "pitch": 36, "duration": 20, "velocity": 78}, {"time": 1003, "pitch": 43, "duration": 20, "velocity": 56}, {"time": 1007, "pitch": 48, "duration": 5, "velocity": 95}, {"time": 1011, "pitch": 64, "duration": 5, "velocity": 127}, {"time": 1015, "pitch": 62, "duration": 5, "velocity": 102}, {"time": 1019, "pitch": 64, "duration": 4, "velocity": 63}, {"time": 1023, "pitch": 36, "duration": 22, "velocity": 69}, {"time": 1027, "pitch": 43, "duration": 18, "velocity": 58}, {"time": 1031, "pitch": 48, "duration": 14, "velocity": 69}, {"time": 1035, "pitch": 64, "duration": 13, "velocity": 99}, {"time": 1039, "pitch": 60, "duration": 12, "velocity": 69}, {"time": 1043, "pitch": 55, "duration": 5, "velocity": 71}, {"time": 1047, "pitch": 36, "duration": 12, "velocity": 85}, {"time": 1051, "pitch": 48, "duration": 11, "velocity": 69}, {"time": 1055, "pitch": 55, "duration": 4, "velocity": 82}, {"time": 1059, "pitch": 64, "duration": 12, "velocity": 97}, {"time": 1063, "pitch": 60, "duration": 8, "velocity": 83}, {"time": 1067, "pitch": 55, "duration": 4, "velocity": 69}, {"time": 1071, "pitch": 41, "duration": 20, "velocity": 72}, {"time": 1075, "pitch": 48, "duration": 18, "velocity": 42}, {"time": 1079, "pitch": 53, "duration": 7, "velocity": 83}, {"time": 1083, "pitch": 60, "duration": 6, "velocity": 107}, {"time": 1087, "pitch": 57, "duration": 5, "velocity": 79}, {"time": 1091, "pitch": 60, "duration": 6, "velocity": 81}, {"time": 1095, "pitch": 48, "duration": 18, "velocity": 85}, {"time": 1099, "pitch": 55, "duration": 6, "velocity": 48}, {"time": 1103, "pitch": 60, "duration": 4, "velocity": 93}, {"time": 1107, "pitch": 64, "duration": 12, "velocity": 99}, {"time": 1111, "pitch": 60, "duration": 8, "velocity": 93}, {"time": 1115, "pitch": 55, "duration": 4, "velocity": 85}, {"time": 1119, "pitch": 41, "duration": 17, "velocity": 93}, {"time": 1123, "pitch": 48, "duration": 13, "velocity": 65}, {"time": 1127, "pitch": 53, "duration": 5, "velocity": 90}, {"time": 1131, "pitch": 65, "duration": 10, "velocity": 99}, {"time": 1135, "pitch": 60, "duration": 8, "velocity": 75}, {"time": 1139, "pitch": 57, "duration": 4, "velocity": 97}, {"time": 1143, "pitch": 36, "duration": 22, "velocity": 73}, {"time": 1147, "pitch": 48, "duration": 19, "velocity": 88}, {"time": 1151, "pitch": 55, "duration": 3, "velocity": 77}, {"time": 1155, "pitch": 64, "duration": 11, "velocity": 102}, {"time": 1159, "pitch": 60, "duration": 7, "velocity": 95}, {"time": 1163, "pitch": 55, "duration": 3, "velocity": 92}, {"time": 1167, "pitch": 36, "duration": 19, "velocity": 71}, {"time": 1171, "pitch": 48, "duration": 10, "velocity": 89}, {"time": 1175, "pitch": 55, "duration": 3, "velocity": 62}, {"time": 1179, "pitch": 60, "duration": 12, "velocity": 89}, {"time": 1179, "pitch": 64, "duration": 11, "velocity": 95}, {"time": 1183, "pitch": 48, "duration": 7, "velocity": 76}, {"time": 1187, "pitch": 55, "duration": 4, "velocity": 88}, {"time": 1191, "pitch": 43, "duration": 17, "velocity": 70}, {"time": 1195, "pitch": 50, "duration": 12, "velocity": 86}, {"time": 1199, "pitch": 55, "duration": 4, "velocity": 78}, {"time": 1203, "pitch": 62, "duration": 9, "velocity": 112}, {"time": 1207, "pitch": 59, "duration": 6, "velocity": 100}, {"time": 1211, "pitch": 55, "duration": 4, "velocity": 93}, {"time": 1215, "pitch": 36, "duration": 22, "velocity": 89}, {"time": 1219, "pitch": 48, "duration": 21, "velocity": 83}, {"time": 1223, "pitch": 55, "duration": 5, "velocity": 86}, {"time": 1227, "pitch": 64, "duration": 14, "velocity": 97}, {"time": 1231, "pitch": 60, "duration": 9, "velocity": 73}, {"time": 1235, "pitch": 55, "duration": 5, "velocity": 88}, {"time": 1239, "pitch": 36, "duration": 12, "velocity": 67}, {"time": 1242, "pitch": 48, "duration": 10, "velocity": 73}, {"time": 1246, "pitch": 55, "duration": 5, "velocity": 68}, {"time": 1251, "pitch": 64, "duration": 11, "velocity": 99}, {"time": 1255, "pitch": 60, "duration": 7, "velocity": 89}, {"time": 1259, "pitch": 55, "duration": 5, "velocity": 78}, {"time": 1262, "pitch": 41, "duration": 16, "velocity": 69}, {"time": 1267, "pitch": 48, "duration": 10, "velocity": 75}, {"time": 1271, "pitch": 53, "duration": 4, "velocity": 66}, {"time": 1275, "pitch": 60, "duration": 11, "velocity": 102}, {"time": 1279, "pitch": 57, "duration": 7, "velocity": 86}, {"time": 1283, "pitch": 53, "duration": 4, "velocity": 86}, {"time": 1286, "pitch": 36, "duration": 12, "velocity": 64}, {"time": 1291, "pitch": 48, "duration": 12, "velocity": 79}, {"time": 1295, "pitch": 55, "duration": 6, "velocity": 88}, {"time": 1299, "pitch": 64, "duration": 11, "velocity": 102}, {"time": 1303, "pitch": 60, "duration": 7, "velocity": 102}, {"time": 1307, "pitch": 55, "duration": 3, "velocity": 93}, {"time": 1310, "pitch": 41, "duration": 19, "velocity": 78}, {"time": 1315, "pitch": 48, "duration": 10, "velocity": 42}, {"time": 1319, "pitch": 53, "duration": 3, "velocity": 78}, {"time": 1323, "pitch": 57, "duration": 10, "velocity": 90}, {"time": 1323, "pitch": 60, "duration": 10, "velocity": 97}, {"time": 1327, "pitch": 48, "duration": 2, "velocity": 72}, {"time": 1331, "pitch": 53, "duration": 4, "velocity": 83}, {"time": 1335, "pitch": 36, "duration": 18, "velocity": 75}, {"time": 1339, "pitch": 48, "duration": 10, "velocity": 78}, {"time": 1343, "pitch": 55, "duration": 3, "velocity": 75}, {"time": 1347, "pitch": 64, "duration": 12, "velocity": 117}, {"time": 1351, "pitch": 48, "duration": 4, "velocity": 85}, {"time": 1355, "pitch": 60, "duration": 4, "velocity": 93}, {"time": 1358, "pitch": 38, "duration": 18, "velocity": 72}, {"time": 1359, "pitch": 62, "duration": 7, "velocity": 99}, {"time": 1359, "pitch": 66, "duration": 7, "velocity": 107}, {"time": 1363, "pitch": 50, "duration": 9, "velocity": 90}, {"time": 1367, "pitch": 57, "duration": 2, "velocity": 77}, {"time": 1371, "pitch": 62, "duration": 7, "velocity": 96}, {"time": 1371, "pitch": 66, "duration": 7, "velocity": 112}, {"time": 1375, "pitch": 50, "duration": 2, "velocity": 72}, {"time": 1379, "pitch": 57, "duration": 4, "velocity": 95}, {"time": 1383, "pitch": 43, "duration": 21, "velocity": 76}, {"time": 1383, "pitch": 59, "duration": 2, "velocity": 85}, {"time": 1383, "pitch": 62, "duration": 2, "velocity": 95}, {"time": 1387, "pitch": 50, "duration": 6, "velocity": 52}, {"time": 1387, "pitch": 59, "duration": 2, "velocity": 69}, {"time": 1387, "pitch": 62, "duration": 2, "velocity": 69}, {"time": 1391, "pitch": 55, "duration": 2, "velocity": 95}, {"time": 1391, "pitch": 59, "duration": 2, "velocity": 96}, {"time": 1391, "pitch": 62, "duration": 2, "velocity": 96}, {"time": 1395, "pitch": 50, "duration": 10, "velocity": 100}, {"time": 1395, "pitch": 55, "duration": 2, "velocity": 99}, {"time": 1395, "pitch": 59, "duration": 2, "velocity": 100}, {"time": 1395, "pitch": 62, "duration": 2, "velocity": 97}, {"time": 1399, "pitch": 55, "duration": 2, "velocity": 100}, {"time": 1399, "pitch": 59, "duration": 2, "velocity": 100}, {"time": 1399, "pitch": 62, "duration": 2, "velocity": 100}, {"time": 1403, "pitch": 55, "duration": 2, "velocity": 96}, {"time": 1403, "pitch": 59, "duration": 2, "velocity": 100}, {"time": 1403, "pitch": 62, "duration": 2, "velocity": 99}, {"time": 1407, "pitch": 43, "duration": 17, "velocity": 93}, {"time": 1407, "pitch": 55, "duration": 5, "velocity": 102}, {"time": 1407, "pitch": 59, "duration": 6, "velocity": 107}, {"time": 1407, "pitch": 62, "duration": 6, "velocity": 107}, {"time": 1411, "pitch": 50, "duration": 9, "velocity": 92}, {"time": 1415, "pitch": 55, "duration": 2, "velocity": 83}, {"time": 1415, "pitch": 59, "duration": 1, "velocity": 43}, {"time": 1415, "pitch": 62, "duration": 1, "velocity": 45}, {"time": 1419, "pitch": 59, "duration": 8, "velocity": 112}, {"time": 1419, "pitch": 62, "duration": 9, "velocity": 112}, {"time": 1422, "pitch": 50, "duration": 2, "velocity": 92}, {"time": 1427, "pitch": 55, "duration": 3, "velocity": 99}, {"time": 1431, "pitch": 41, "duration": 18, "velocity": 72}, {"time": 1431, "pitch": 57, "duration": 2, "velocity": 112}, {"time": 1431, "pitch": 60, "duration": 3, "velocity": 112}, {"time": 1435, "pitch": 53, "duration": 10, "velocity": 90}, {"time": 1439, "pitch": 60, "duration": 3, "velocity": 85}, {"time": 1439, "pitch": 65, "duration": 1, "velocity": 47}, {"time": 1443, "pitch": 65, "duration": 8, "velocity": 117}, {"time": 1443, "pitch": 69, "duration": 8, "velocity": 112}, {"time": 1447, "pitch": 53, "duration": 1, "velocity": 75}, {"time": 1450, "pitch": 60, "duration": 4, "velocity": 92}, {"time": 1455, "pitch": 36, "duration": 22, "velocity": 72}, {"time": 1455, "pitch": 60, "duration": 4, "velocity": 96}, {"time": 1455, "pitch": 64, "duration": 3, "velocity": 97}, {"time": 1455, "pitch": 67, "duration": 3, "velocity": 102}, {"time": 1459, "pitch": 48, "duration": 10, "velocity": 95}, {"time": 1463, "pitch": 55, "duration": 2, "velocity": 68}, {"time": 1463, "pitch": 60, "duration": 2, "velocity": 82}, {"time": 1463, "pitch": 64, "duration": 2, "velocity": 82}, {"time": 1467, "pitch": 60, "duration": 9, "velocity": 107}, {"time": 1467, "pitch": 64, "duration": 10, "velocity": 95}, {"time": 1471, "pitch": 48, "duration": 8, "velocity": 86}, {"time": 1475, "pitch": 55, "duration": 3, "velocity": 82}, {"time": 1479, "pitch": 36, "duration": 17, "velocity": 92}, {"time": 1479, "pitch": 55, "duration": 9, "velocity": 79}, {"time": 1479, "pitch": 60, "duration": 9, "velocity": 97}, {"time": 1479, "pitch": 64, "duration": 10, "velocity": 89}, {"time": 1487, "pitch": 48, "duration": 5, "velocity": 97}, {"time": 1491, "pitch": 60, "duration": 8, "velocity": 117}, {"time": 1491, "pitch": 64, "duration": 8, "velocity": 107}, {"time": 1495, "pitch": 48, "duration": 4, "velocity": 93}, {"time": 1498, "pitch": 55, "duration": 11, "velocity": 102}, {"time": 1503, "pitch": 43, "duration": 17, "velocity": 77}, {"time": 1503, "pitch": 59, "duration": 9, "velocity": 100}, {"time": 1503, "pitch": 62, "duration": 9, "velocity": 107}, {"time": 1507, "pitch": 50, "duration": 9, "velocity": 73}, {"time": 1511, "pitch": 55, "duration": 2, "velocity": 95}, {"time": 1515, "pitch": 59, "duration": 7, "velocity": 100}, {"time": 1515, "pitch": 62, "duration": 9, "velocity": 112}, {"time": 1519, "pitch": 50, "duration": 2, "velocity": 99}, {"time": 1523, "pitch": 55, "duration": 3, "velocity": 89}, {"time": 1527, "pitch": 41, "duration": 20, "velocity": 92}, {"time": 1527, "pitch": 57, "duration": 1, "velocity": 102}, {"time": 1527, "pitch": 60, "duration": 1, "velocity": 107}, {"time": 1531, "pitch": 48, "duration": 20, "velocity": 65}, {"time": 1535, "pitch": 53, "duration": 5, "velocity": 92}, {"time": 1539, "pitch": 60, "duration": 7, "velocity": 112}, {"time": 1539, "pitch": 65, "duration": 6, "velocity": 112}, {"time": 1539, "pitch": 69, "duration": 7, "velocity": 112}, {"time": 1543, "pitch": 53, "duration": 3, "velocity": 96}, {"time": 1546, "pitch": 65, "duration": 3, "velocity": 107}, {"time": 1551, "pitch": 43, "duration": 17, "velocity": 83}, {"time": 1551, "pitch": 62, "duration": 9, "velocity": 95}, {"time": 1551, "pitch": 67, "duration": 9, "velocity": 96}, {"time": 1551, "pitch": 71, "duration": 9, "velocity": 96}, {"time": 1555, "pitch": 50, "duration": 10, "velocity": 90}, {"time": 1559, "pitch": 55, "duration": 3, "velocity": 100}, {"time": 1563, "pitch": 62, "duration": 5, "velocity": 107}, {"time": 1563, "pitch": 67, "duration": 8, "velocity": 127}, {"time": 1563, "pitch": 71, "duration": 7, "velocity": 127}, {"time": 1566, "pitch": 50, "duration": 1, "velocity": 100}, {"time": 1570, "pitch": 62, "duration": 2, "velocity": 100}, {"time": 1575, "pitch": 36, "duration": 24, "velocity": 85}, {"time": 1575, "pitch": 60, "duration": 5, "velocity": 117}, {"time": 1575, "pitch": 64, "duration": 5, "velocity": 95}, {"time": 1575, "pitch": 67, "duration": 5, "velocity": 97}, {"time": 1581, "pitch": 48, "duration": 7, "velocity": 83}, {"time": 1582, "pitch": 60, "duration": 1, "velocity": 76}, {"time": 1582, "pitch": 64, "duration": 1, "velocity": 82}, {"time": 1582, "pitch": 67, "duration": 2, "velocity": 86}, {"time": 1586, "pitch": 64, "duration": 5, "velocity": 117}, {"time": 1587, "pitch": 60, "duration": 5, "velocity": 127}, {"time": 1587, "pitch": 67, "duration": 5, "velocity": 127}, {"time": 1591, "pitch": 48, "duration": 8, "velocity": 117}, {"time": 1595, "pitch": 60, "duration": 4, "velocity": 112}, {"time": 1595, "pitch": 64, "duration": 3, "velocity": 127}, {"time": 1595, "pitch": 67, "duration": 4, "velocity": 117}, {"time": 1599, "pitch": 36, "duration": 1, "velocity": 86}, {"time": 1603, "pitch": 48, "duration": 9, "velocity": 90}, {"time": 1607, "pitch": 55, "duration": 3, "velocity": 76}, {"time": 1611, "pitch": 60, "duration": 14, "velocity": 97}, {"time": 1611, "pitch": 64, "duration": 14, "velocity": 99}, {"time": 1615, "pitch": 48, "duration": 8, "velocity": 92}, {"time": 1619, "pitch": 55, "duration": 7, "velocity": 86}, {"time": 1623, "pitch": 36, "duration": 7, "velocity": 71}, {"time": 1627, "pitch": 48, "duration": 3, "velocity": 90}, {"time": 1631, "pitch": 55, "duration": 4, "velocity": 85}, {"time": 1635, "pitch": 60, "duration": 5, "velocity": 85}, {"time": 1635, "pitch": 64, "duration": 11, "velocity": 93}, {"time": 1639, "pitch": 55, "duration": 5, "velocity": 86}, {"time": 1643, "pitch": 60, "duration": 3, "velocity": 89}, {"time": 1647, "pitch": 38, "duration": 19, "velocity": 69}, {"time": 1651, "pitch": 45, "duration": 16, "velocity": 57}, {"time": 1655, "pitch": 50, "duration": 5, "velocity": 77}, {"time": 1659, "pitch": 62, "duration": 11, "velocity": 90}, {"time": 1659, "pitch": 65, "duration": 11, "velocity": 92}, {"time": 1663, "pitch": 50, "duration": 3, "velocity": 70}, {"time": 1667, "pitch": 57, "duration": 4, "velocity": 83}, {"time": 1671, "pitch": 43, "duration": 13, "velocity": 66}, {"time": 1675, "pitch": 50, "duration": 8, "velocity": 89}, {"time": 1679, "pitch": 55, "duration": 4, "velocity": 83}, {"time": 1683, "pitch": 62, "duration": 11, "velocity": 107}, {"time": 1687, "pitch": 59, "duration": 7, "velocity": 82}, {"time": 1691, "pitch": 55, "duration": 4, "velocity": 90}, {"time": 1695, "pitch": 38, "duration": 17, "velocity": 79}, {"time": 1699, "pitch": 45, "duration": 13, "velocity": 50}, {"time": 1703, "pitch": 50, "duration": 6, "velocity": 85}, {"time": 1707, "pitch": 65, "duration": 14, "velocity": 99}, {"time": 1711, "pitch": 62, "duration": 10, "velocity": 78}, {"time": 1715, "pitch": 57, "duration": 5, "velocity": 78}, {"time": 1719, "pitch": 38, "duration": 17, "velocity": 72}, {"time": 1723, "pitch": 45, "duration": 14, "velocity": 62}, {"time": 1727, "pitch": 50, "duration": 6, "velocity": 89}, {"time": 1731, "pitch": 65, "duration": 11, "velocity": 112}, {"time": 1735, "pitch": 50, "duration": 6, "velocity": 75}, {"time": 1739, "pitch": 62, "duration": 4, "velocity": 96}, {"time": 1743, "pitch": 43, "duration": 15, "velocity": 77}, {"time": 1747, "pitch": 50, "duration": 9, "velocity": 69}, {"time": 1751, "pitch": 55, "duration": 4, "velocity": 89}, {"time": 1755, "pitch": 62, "duration": 9, "velocity": 112}, {"time": 1759, "pitch": 59, "duration": 5, "velocity": 89}, {"time": 1763, "pitch": 55, "duration": 3, "velocity": 95}, {"time": 1767, "pitch": 36, "duration": 20, "velocity": 78}, {"time": 1771, "pitch": 43, "duration": 20, "velocity": 56}, {"time": 1775, "pitch": 48, "duration": 5, "velocity": 95}, {"time": 1779, "pitch": 64, "duration": 5, "velocity": 127}, {"time": 1783, "pitch": 62, "duration": 5, "velocity": 102}, {"time": 1787, "pitch": 64, "duration": 4, "velocity": 63}, {"time": 1791, "pitch": 36, "duration": 29, "velocity": 72}, {"time": 1791, "pitch": 48, "duration": 28, "velocity": 83}, {"time": 1791, "pitch": 60, "duration": 30, "velocity": 96}, {"time": 1791, "pitch": 64, "duration": 1, "velocity": 95}, {"time": 1791, "pitch": 67, "duration": 30, "velocity": 90}, {"time": 1839, "pitch": 41, "duration": 24, "velocity": 64}, {"time": 1839, "pitch": 53, "duration": 23, "velocity": 92}, {"time": 1839, "pitch": 60, "duration": 25, "velocity": 93}, {"time": 1839, "pitch": 65, "duration": 25, "velocity": 93}, {"time": 1839, "pitch": 69, "duration": 26, "velocity": 90}, {"time": 1875, "pitch": 48, "duration": 3, "velocity": 102}, {"time": 1875, "pitch": 60, "duration": 3, "velocity": 107}, {"time": 1879, "pitch": 50, "duration": 3, "velocity": 95}, {"time": 1879, "pitch": 62, "duration": 3, "velocity": 99}, {"time": 1883, "pitch": 52, "duration": 3, "velocity": 99}, {"time": 1883, "pitch": 64, "duration": 3, "velocity": 88}, {"time": 1887, "pitch": 41, "duration": 17, "velocity": 93}, {"time": 1891, "pitch": 48, "duration": 13, "velocity": 65}, {"time": 1895, "pitch": 53, "duration": 5, "velocity": 90}, {"time": 1899, "pitch": 65, "duration": 10, "velocity": 99}, {"time": 1903, "pitch": 60, "duration": 8, "velocity": 75}, {"time": 1907, "pitch": 57, "duration": 4, "velocity": 97}, {"time": 1911, "pitch": 36, "duration": 22, "velocity": 73}, {"time": 1915, "pitch": 48, "duration": 19, "velocity": 88}, {"time": 1919, "pitch": 55, "duration": 3, "velocity": 77}, {"time": 1923, "pitch": 64, "duration": 11, "velocity": 102}, {"time": 1927, "pitch": 60, "duration": 7, "velocity": 95}, {"time": 1931, "pitch": 55, "duration": 3, "velocity": 92}, {"time": 1935, "pitch": 36, "duration": 19, "velocity": 71}, {"time": 1939, "pitch": 48, "duration": 10, "velocity": 89}, {"time": 1943, "pitch": 55, "duration": 3, "velocity": 62}, {"time": 1947, "pitch": 60, "duration": 12, "velocity": 89}, {"time": 1947, "pitch": 64, "duration": 11, "velocity": 95}, {"time": 1951, "pitch": 48, "duration": 7, "velocity": 76}, {"time": 1955, "pitch": 55, "duration": 4, "velocity": 88}, {"time": 1959, "pitch": 43, "duration": 17, "velocity": 70}, {"time": 1963, "pitch": 50, "duration": 12, "velocity": 86}, {"time": 1967, "pitch": 55, "duration": 4, "velocity": 78}, {"time": 1971, "pitch": 62, "duration": 9, "velocity": 112}, {"time": 1975, "pitch": 59, "duration": 6, "velocity": 100}, {"time": 1979, "pitch": 55, "duration": 4, "velocity": 93}, {"time": 1983, "pitch": 36, "duration": 22, "velocity": 89}, {"time": 1987, "pitch": 48, "duration": 21, "velocity": 83}, {"time": 1991, "pitch": 55, "duration": 5, "velocity": 86}, {"time": 1995, "pitch": 64, "duration": 14, "velocity": 97}, {"time": 1999, "pitch": 60, "duration": 9, "velocity": 73}, {"time": 2003, "pitch": 55, "duration": 5, "velocity": 88}, {"time": 2007, "pitch": 36, "duration": 12, "velocity": 67}, {"time": 2010, "pitch": 48, "duration": 10, "velocity": 73}, {"time": 2014, "pitch": 55, "duration": 5, "velocity": 68}, {"time": 2019, "pitch": 64, "duration": 11, "velocity": 99}, {"time": 2023, "pitch": 60, "duration": 7, "velocity": 89}, {"time": 2027, "pitch": 55, "duration": 5, "velocity": 78}, {"time": 2030, "pitch": 41, "duration": 16, "velocity": 69}, {"time": 2035, "pitch": 48, "duration": 10, "velocity": 75}, {"time": 2039, "pitch": 53, "duration": 4, "velocity": 66}, {"time": 2043, "pitch": 60, "duration": 11, "velocity": 102}, {"time": 2047, "pitch": 57, "duration": 7, "velocity": 86}, {"time": 2051, "pitch": 53, "duration": 4, "velocity": 86}, {"time": 2054, "pitch": 36, "duration": 12, "velocity": 64}, {"time": 2059, "pitch": 48, "duration": 12, "velocity": 79}, {"time": 2063, "pitch": 55, "duration": 6, "velocity": 88}, {"time": 2067, "pitch": 64, "duration": 11, "velocity": 102}, {"time": 2071, "pitch": 60, "duration": 7, "velocity": 102}, {"time": 2075, "pitch": 55, "duration": 3, "velocity": 93}, {"time": 2078, "pitch": 41, "duration": 19, "velocity": 78}, {"time": 2083, "pitch": 48, "duration": 10, "velocity": 42}, {"time": 2087, "pitch": 53, "duration": 3, "velocity": 78}, {"time": 2091, "pitch": 57, "duration": 10, "velocity": 90}, {"time": 2091, "pitch": 60, "duration": 10, "velocity": 97}, {"time": 2095, "pitch": 48, "duration": 2, "velocity": 72}, {"time": 2099, "pitch": 53, "duration": 4, "velocity": 83}, {"time": 2103, "pitch": 36, "duration": 18, "velocity": 75}, {"time": 2107, "pitch": 48, "duration": 10, "velocity": 78}, {"time": 2111, "pitch": 55, "duration": 3, "velocity": 75}, {"time": 2115, "pitch": 64, "duration": 12, "velocity": 117}, {"time": 2119, "pitch": 48, "duration": 4, "velocity": 85}, {"time": 2123, "pitch": 60, "duration": 4, "velocity": 93}, {"time": 2126, "pitch": 38, "duration": 18, "velocity": 72}, {"time": 2127, "pitch": 62, "duration": 7, "velocity": 99}, {"time": 2127, "pitch": 66, "duration": 7, "velocity": 107}, {"time": 2131, "pitch": 50, "duration": 9, "velocity": 90}, {"time": 2135, "pitch": 57, "duration": 2, "velocity": 77}, {"time": 2139, "pitch": 62, "duration": 7, "velocity": 96}, {"time": 2139, "pitch": 66, "duration": 7, "velocity": 112}, {"time": 2143, "pitch": 50, "duration": 2, "velocity": 72}, {"time": 2147, "pitch": 57, "duration": 4, "velocity": 95}, {"time": 2151, "pitch": 43, "duration": 21, "velocity": 76}, {"time": 2151, "pitch": 59, "duration": 2, "velocity": 85}, {"time": 2151, "pitch": 62, "duration": 2, "velocity": 95}, {"time": 2155, "pitch": 50, "duration": 6, "velocity": 52}, {"time": 2155, "pitch": 59, "duration": 2, "velocity": 69}, {"time": 2155, "pitch": 62, "duration": 2, "velocity": 69}, {"time": 2159, "pitch": 55, "duration": 2, "velocity": 95}, {"time": 2159, "pitch": 59, "duration": 2, "velocity": 96}, {"time": 2159, "pitch": 62, "duration": 2, "velocity": 96}, {"time": 2163, "pitch": 50, "duration": 10, "velocity": 100}, {"time": 2163, "pitch": 55, "duration": 2, "velocity": 99}, {"time": 2163, "pitch": 59, "duration": 2, "velocity": 100}, {"time": 2163, "pitch": 62, "duration": 2, "velocity": 97}, {"time": 2167, "pitch": 55, "duration": 2, "velocity": 100}, {"time": 2167, "pitch": 59, "duration": 2, "velocity": 100}, {"time": 2167, "pitch": 62, "duration": 2, "velocity": 100}, {"time": 2171, "pitch": 55, "duration": 2, "velocity": 96}, {"time": 2171, "pitch": 59, "duration": 2, "velocity": 100}, {"time": 2171, "pitch": 62, "duration": 2, "velocity": 99}, {"time": 2175, "pitch": 43, "duration": 17, "velocity": 93}, {"time": 2175, "pitch": 55, "duration": 5, "velocity": 102}, {"time": 2175, "pitch": 59, "duration": 6, "velocity": 107}, {"time": 2175, "pitch": 62, "duration": 6, "velocity": 107}, {"time": 2179, "pitch": 50, "duration": 9, "velocity": 92}, {"time": 2183, "pitch": 55, "duration": 2, "velocity": 83}, {"time": 2183, "pitch": 59, "duration": 1, "velocity": 43}, {"time": 2183, "pitch": 62, "duration": 1, "velocity": 45}, {"time": 2187, "pitch": 59, "duration": 8, "velocity": 112}, {"time": 2187, "pitch": 62, "duration": 9, "velocity": 112}, {"time": 2190, "pitch": 50, "duration": 2, "velocity": 92}, {"time": 2195, "pitch": 55, "duration": 3, "velocity": 99}, {"time": 2199, "pitch": 41, "duration": 18, "velocity": 72}, {"time": 2199, "pitch": 57, "duration": 2, "velocity": 112}, {"time": 2199, "pitch": 60, "duration": 3, "velocity": 112}, {"time": 2203, "pitch": 53, "duration": 10, "velocity": 90}, {"time": 2207, "pitch": 60, "duration": 3, "velocity": 85}, {"time": 2207, "pitch": 65, "duration": 1, "velocity": 47}, {"time": 2211, "pitch": 65, "duration": 8, "velocity": 117}, {"time": 2211, "pitch": 69, "duration": 8, "velocity": 112}, {"time": 2215, "pitch": 53, "duration": 1, "velocity": 75}, {"time": 2218, "pitch": 60, "duration": 4, "velocity": 92}, {"time": 2223, "pitch": 36, "duration": 22, "velocity": 72}, {"time": 2223, "pitch": 60, "duration": 4, "velocity": 96}, {"time": 2223, "pitch": 64, "duration": 3, "velocity": 97}, {"time": 2223, "pitch": 67, "duration": 3, "velocity": 102}, {"time": 2227, "pitch": 48, "duration": 10, "velocity": 95}, {"time": 2231, "pitch": 55, "duration": 2, "velocity": 68}, {"time": 2231, "pitch": 60, "duration": 2, "velocity": 82}, {"time": 2231, "pitch": 64, "duration": 2, "velocity": 82}, {"time": 2235, "pitch": 60, "duration": 9, "velocity": 107}, {"time": 2235, "pitch": 64, "duration": 10, "velocity": 95}, {"time": 2239, "pitch": 48, "duration": 8, "velocity": 86}, {"time": 2243, "pitch": 55, "duration": 3, "velocity": 82}, {"time": 2247, "pitch": 36, "duration": 17, "velocity": 92}, {"time": 2247, "pitch": 55, "duration": 9, "velocity": 79}, {"time": 2247, "pitch": 60, "duration": 9, "velocity": 97}, {"time": 2247, "pitch": 64, "duration": 10, "velocity": 89}, {"time": 2255, "pitch": 48, "duration": 5, "velocity": 97}, {"time": 2259, "pitch": 60, "duration": 8, "velocity": 117}, {"time": 2259, "pitch": 64, "duration": 8, "velocity": 107}, {"time": 2263, "pitch": 48, "duration": 4, "velocity": 93}, {"time": 2266, "pitch": 55, "duration": 11, "velocity": 102}, {"time": 2271, "pitch": 43, "duration": 17, "velocity": 77}, {"time": 2271, "pitch": 59, "duration": 9, "velocity": 100}, {"time": 2271, "pitch": 62, "duration": 9, "velocity": 107}, {"time": 2275, "pitch": 50, "duration": 9, "velocity": 73}, {"time": 2279, "pitch": 55, "duration": 2, "velocity": 95}, {"time": 2283, "pitch": 59, "duration": 7, "velocity": 100}, {"time": 2283, "pitch": 62, "duration": 9, "velocity": 112}, {"time": 2287, "pitch": 50, "duration": 2, "velocity": 99}, {"time": 2291, "pitch": 55, "duration": 3, "velocity": 89}, {"time": 2295, "pitch": 41, "duration": 20, "velocity": 92}, {"time": 2295, "pitch": 57, "duration": 1, "velocity": 102}, {"time": 2295, "pitch": 60, "duration": 1, "velocity": 107}, {"time": 2299, "pitch": 48, "duration": 20, "velocity": 65}, {"time": 2303, "pitch": 53, "duration": 5, "velocity": 92}, {"time": 2307, "pitch": 60, "duration": 7, "velocity": 112}, {"time": 2307, "pitch": 65, "duration": 6, "velocity": 112}, {"time": 2307, "pitch": 69, "duration": 7, "velocity": 112}, {"time": 2311, "pitch": 53, "duration": 3, "velocity": 96}, {"time": 2314, "pitch": 65, "duration": 3, "velocity": 107}, {"time": 2319, "pitch": 43, "duration": 17, "velocity": 83}, {"time": 2319, "pitch": 62, "duration": 9, "velocity": 95}, {"time": 2319, "pitch": 67, "duration": 9, "velocity": 96}, {"time": 2319, "pitch": 71, "duration": 9, "velocity": 96}, {"time": 2323, "pitch": 50, "duration": 10, "velocity": 90}, {"time": 2327, "pitch": 55, "duration": 3, "velocity": 100}, {"time": 2331, "pitch": 62, "duration": 5, "velocity": 107}, {"time": 2331, "pitch": 67, "duration": 8, "velocity": 127}, {"time": 2331, "pitch": 71, "duration": 7, "velocity": 127}, {"time": 2334, "pitch": 50, "duration": 1, "velocity": 100}, {"time": 2338, "pitch": 62, "duration": 2, "velocity": 100}, {"time": 2343, "pitch": 36, "duration": 24, "velocity": 85}, {"time": 2343, "pitch": 60, "duration": 5, "velocity": 117}, {"time": 2343, "pitch": 64, "duration": 5, "velocity": 95}, {"time": 2343, "pitch": 67, "duration": 5, "velocity": 97}, {"time": 2349, "pitch": 48, "duration": 7, "velocity": 83}, {"time": 2351, "pitch": 60, "duration": 1, "velocity": 76}, {"time": 2351, "pitch": 64, "duration": 1, "velocity": 82}, {"time": 2351, "pitch": 67, "duration": 2, "velocity": 86}, {"time": 2355, "pitch": 60, "duration": 5, "velocity": 127}, {"time": 2355, "pitch": 64, "duration": 5, "velocity": 117}, {"time": 2355, "pitch": 67, "duration": 5, "velocity": 127}, {"time": 2359, "pitch": 48, "duration": 8, "velocity": 117}, {"time": 2363, "pitch": 60, "duration": 4, "velocity": 112}, {"time": 2363, "pitch": 64, "duration": 3, "velocity": 127}, {"time": 2363, "pitch": 67, "duration": 4, "velocity": 117}, {"time": 2367, "pitch": 43, "duration": 4, "velocity": 72}, {"time": 2367, "pitch": 50, "duration": 4, "velocity": 97}, {"time": 2367, "pitch": 55, "duration": 4, "velocity": 100}, {"time": 2367, "pitch": 62, "duration": 4, "velocity": 102}, {"time": 2367, "pitch": 67, "duration": 3, "velocity": 100}, {"time": 2367, "pitch": 71, "duration": 4, "velocity": 96}, {"time": 2395, "pitch": 41, "duration": 2, "velocity": 70}, {"time": 2395, "pitch": 48, "duration": 2, "velocity": 90}, {"time": 2395, "pitch": 53, "duration": 3, "velocity": 90}, {"time": 2395, "pitch": 60, "duration": 2, "velocity": 99}, {"time": 2395, "pitch": 65, "duration": 2, "velocity": 100}, {"time": 2395, "pitch": 69, "duration": 2, "velocity": 97}, {"time": 2403, "pitch": 43, "duration": 8, "velocity": 71}, {"time": 2403, "pitch": 50, "duration": 8, "velocity": 93}, {"time": 2403, "pitch": 55, "duration": 8, "velocity": 96}, {"time": 2403, "pitch": 62, "duration": 8, "velocity": 99}, {"time": 2403, "pitch": 67, "duration": 8, "velocity": 99}, {"time": 2403, "pitch": 71, "duration": 8, "velocity": 100}, {"time": 2415, "pitch": 36, "duration": 22, "velocity": 72}, {"time": 2415, "pitch": 60, "duration": 4, "velocity": 96}, {"time": 2415, "pitch": 64, "duration": 3, "velocity": 97}, {"time": 2415, "pitch": 67, "duration": 3, "velocity": 102}, {"time": 2419, "pitch": 48, "duration": 10, "velocity": 95}, {"time": 2423, "pitch": 55, "duration": 2, "velocity": 68}, {"time": 2423, "pitch": 60, "duration": 2, "velocity": 82}, {"time": 2423, "pitch": 64, "duration": 2, "velocity": 82}, {"time": 2427, "pitch": 60, "duration": 9, "velocity": 107}, {"time": 2427, "pitch": 64, "duration": 10, "velocity": 95}, {"time": 2431, "pitch": 48, "duration": 8, "velocity": 86}, {"time": 2435, "pitch": 55, "duration": 3, "velocity": 82}, {"time": 2439, "pitch": 36, "duration": 17, "velocity": 92}, {"time": 2439, "pitch": 55, "duration": 9, "velocity": 79}, {"time": 2439, "pitch": 60, "duration": 9, "velocity": 97}, {"time": 2439, "pitch": 64, "duration": 10, "velocity": 89}, {"time": 2447, "pitch": 48, "duration": 5, "velocity": 97}, {"time": 2451, "pitch": 60, "duration": 8, "velocity": 117}, {"time": 2451, "pitch": 64, "duration": 8, "velocity": 107}, {"time": 2455, "pitch": 48, "duration": 4, "velocity": 93}, {"time": 2458, "pitch": 55, "duration": 11, "velocity": 102}, {"time": 2463, "pitch": 43, "duration": 17, "velocity": 77}, {"time": 2463, "pitch": 59, "duration": 9, "velocity": 100}, {"time": 2463, "pitch": 62, "duration": 9, "velocity": 107}, {"time": 2467, "pitch": 50, "duration": 9, "velocity": 73}, {"time": 2471, "pitch": 55, "duration": 2, "velocity": 95}, {"time": 2475, "pitch": 59, "duration": 7, "velocity": 100}, {"time": 2475, "pitch": 62, "duration": 9, "velocity": 112}, {"time": 2479, "pitch": 50, "duration": 2, "velocity": 99}, {"time": 2483, "pitch": 55, "duration": 3, "velocity": 89}, {"time": 2487, "pitch": 41, "duration": 20, "velocity": 92}, {"time": 2487, "pitch": 57, "duration": 1, "velocity": 102}, {"time": 2487, "pitch": 60, "duration": 1, "velocity": 107}, {"time": 2491, "pitch": 48, "duration": 20, "velocity": 65}, {"time": 2495, "pitch": 53, "duration": 5, "velocity": 92}, {"time": 2499, "pitch": 60, "duration": 7, "velocity": 112}, {"time": 2499, "pitch": 65, "duration": 6, "velocity": 112}, {"time": 2499, "pitch": 69, "duration": 7, "velocity": 112}, {"time": 2503, "pitch": 53, "duration": 3, "velocity": 96}, {"time": 2506, "pitch": 65, "duration": 3, "velocity": 107}, {"time": 2511, "pitch": 43, "duration": 17, "velocity": 83}, {"time": 2511, "pitch": 62, "duration": 9, "velocity": 95}, {"time": 2511, "pitch": 67, "duration": 9, "velocity": 96}, {"time": 2511, "pitch": 71, "duration": 9, "velocity": 96}, {"time": 2515, "pitch": 50, "duration": 10, "velocity": 90}, {"time": 2519, "pitch": 55, "duration": 3, "velocity": 100}, {"time": 2523, "pitch": 62, "duration": 5, "velocity": 107}, {"time": 2523, "pitch": 67, "duration": 8, "velocity": 127}, {"time": 2523, "pitch": 71, "duration": 7, "velocity": 127}, {"time": 2526, "pitch": 50, "duration": 1, "velocity": 100}, {"time": 2530, "pitch": 62, "duration": 2, "velocity": 100}, {"time": 2535, "pitch": 36, "duration": 24, "velocity": 85}, {"time": 2535, "pitch": 60, "duration": 5, "velocity": 117}, {"time": 2535, "pitch": 64, "duration": 5, "velocity": 95}, {"time": 2535, "pitch": 67, "duration": 5, "velocity": 97}, {"time": 2541, "pitch": 48, "duration": 7, "velocity": 83}, {"time": 2542, "pitch": 60, "duration": 1, "velocity": 76}, {"time": 2542, "pitch": 64, "duration": 1, "velocity": 82}, {"time": 2542, "pitch": 67, "duration": 2, "velocity": 86}, {"time": 2546, "pitch": 64, "duration": 5, "velocity": 117}, {"time": 2547, "pitch": 60, "duration": 5, "velocity": 127}, {"time": 2547, "pitch": 67, "duration": 5, "velocity": 127}, {"time": 2551, "pitch": 48, "duration": 8, "velocity": 117}, {"time": 2555, "pitch": 60, "duration": 4, "velocity": 112}, {"time": 2555, "pitch": 64, "duration": 3, "velocity": 127}, {"time": 2555, "pitch": 67, "duration": 4, "velocity": 117}, {"time": 2559, "pitch": 36, "duration": 23, "velocity": 86}, {"time": 2563, "pitch": 48, "duration": 9, "velocity": 90}, {"time": 2567, "pitch": 55, "duration": 3, "velocity": 76}, {"time": 2571, "pitch": 60, "duration": 14, "velocity": 97}, {"time": 2571, "pitch": 64, "duration": 14, "velocity": 99}, {"time": 2575, "pitch": 48, "duration": 8, "velocity": 92}, {"time": 2579, "pitch": 55, "duration": 7, "velocity": 86}, {"time": 2583, "pitch": 36, "duration": 7, "velocity": 71}, {"time": 2587, "pitch": 48, "duration": 3, "velocity": 90}, {"time": 2591, "pitch": 55, "duration": 4, "velocity": 85}, {"time": 2595, "pitch": 60, "duration": 5, "velocity": 85}, {"time": 2595, "pitch": 64, "duration": 11, "velocity": 93}, {"time": 2599, "pitch": 55, "duration": 5, "velocity": 86}, {"time": 2603, "pitch": 60, "duration": 3, "velocity": 89}, {"time": 2607, "pitch": 38, "duration": 19, "velocity": 69}, {"time": 2611, "pitch": 45, "duration": 16, "velocity": 57}, {"time": 2615, "pitch": 50, "duration": 5, "velocity": 77}, {"time": 2619, "pitch": 62, "duration": 11, "velocity": 90}, {"time": 2619, "pitch": 65, "duration": 11, "velocity": 92}, {"time": 2623, "pitch": 50, "duration": 3, "velocity": 70}, {"time": 2627, "pitch": 57, "duration": 4, "velocity": 83}, {"time": 2631, "pitch": 43, "duration": 13, "velocity": 66}, {"time": 2635, "pitch": 50, "duration": 8, "velocity": 89}, {"time": 2639, "pitch": 55, "duration": 4, "velocity": 83}, {"time": 2643, "pitch": 62, "duration": 11, "velocity": 107}, {"time": 2647, "pitch": 59, "duration": 7, "velocity": 82}, {"time": 2651, "pitch": 55, "duration": 4, "velocity": 90}, {"time": 2655, "pitch": 38, "duration": 17, "velocity": 79}, {"time": 2659, "pitch": 45, "duration": 13, "velocity": 50}, {"time": 2663, "pitch": 50, "duration": 6, "velocity": 85}, {"time": 2667, "pitch": 65, "duration": 14, "velocity": 99}, {"time": 2671, "pitch": 62, "duration": 10, "velocity": 78}, {"time": 2675, "pitch": 57, "duration": 5, "velocity": 78}, {"time": 2679, "pitch": 38, "duration": 17, "velocity": 72}, {"time": 2683, "pitch": 45, "duration": 14, "velocity": 62}, {"time": 2687, "pitch": 50, "duration": 6, "velocity": 89}, {"time": 2691, "pitch": 65, "duration": 11, "velocity": 112}, {"time": 2695, "pitch": 50, "duration": 6, "velocity": 75}, {"time": 2699, "pitch": 62, "duration": 4, "velocity": 96}, {"time": 2703, "pitch": 43, "duration": 15, "velocity": 77}, {"time": 2707, "pitch": 50, "duration": 9, "velocity": 69}, {"time": 2711, "pitch": 55, "duration": 4, "velocity": 89}, {"time": 2715, "pitch": 62, "duration": 9, "velocity": 112}, {"time": 2719, "pitch": 59, "duration": 5, "velocity": 89}, {"time": 2723, "pitch": 55, "duration": 3, "velocity": 95}, {"time": 2727, "pitch": 36, "duration": 23, "velocity": 71}, {"time": 2727, "pitch": 55, "duration": 24, "velocity": 90}, {"time": 2727, "pitch": 48, "duration": 23, "velocity": 95}, {"time": 2727, "pitch": 60, "duration": 24, "velocity": 102}, {"time": 2727, "pitch": 64, "duration": 24, "velocity": 95}, {"time": 2761, "pitch": 36, "duration": 36, "velocity": 67}, {"time": 2763, "pitch": 55, "duration": 35, "velocity": 50}, {"time": 2763, "pitch": 48, "duration": 33, "velocity": 52}, {"time": 2763, "pitch": 60, "duration": 35, "velocity": 71}, {"time": 2764, "pitch": 64, "duration": 34, "velocity": 95}], "annotations": [{"time": 63, "annotation": {"number": 64, "value": 127}, "group": "control_change"}, {"time": 67, "annotation": {"number": 64, "value": 0}, "group": "control_change"}, {"time": 69, "annotation": {"number": 64, "value": 127}, "group": "control_change"}, {"time": 84, "annotation": {"number": 64, "value": 0}, "group": "control_change"}, {"time": 86, "annotation": {"number": 64, "value": 127}, "group": "control_change"}, {"time": 109, "annotation": {"number": 64, "value": 0}, "group": "control_change"}, {"time": 111, "annotation": {"number": 64, "value": 127}, "group": "control_change"}, {"time": 132, "annotation": {"number": 64, "value": 0}, "group": "control_change"}, {"time": 134, "annotation": {"number": 64, "value": 127}, "group": "control_change"}, {"time": 157, "annotation": {"number": 64, "value": 0}, "group": "control_change"}, {"time": 158, "annotation": {"number": 64, "value": 127}, "group": "control_change"}, {"time": 181, "annotation": {"number": 64, "value": 0}, "group": "control_change"}, {"time": 183, "annotation": {"number": 64, "value": 127}, "group": "control_change"}, {"time": 204, "annotation": {"number": 64, "value": 0}, "group": "control_change"}, {"time": 206, "annotation": {"number": 64, "value": 127}, "group": "control_change"}, {"time": 228, "annotation": {"number": 64, "value": 0}, "group": "control_change"}, {"time": 231, "annotation": {"number": 64, "value": 127}, "group": "control_change"}, {"time": 253, "annotation": {"number": 64, "value": 0}, "group": "control_change"}, {"time": 255, "annotation": {"number": 64, "value": 127}, "group": "control_change"}, {"time": 276, "annotation": {"number": 64, "value": 0}, "group": "control_change"}, {"time": 279, "annotation": {"number": 64, "value": 127}, "group": "control_change"}, {"time": 300, "annotation": {"number": 64, "value": 0}, "group": "control_change"}, {"time": 303, "annotation": {"number": 64, "value": 127}, "group": "control_change"}, {"time": 324, "annotation": {"number": 64, "value": 0}, "group": "control_change"}, {"time": 326, "annotation": {"number": 64, "value": 127}, "group": "control_change"}, {"time": 349, "annotation": {"number": 64, "value": 0}, "group": "control_change"}, {"time": 351, "annotation": {"number": 64, "value": 127}, "group": "control_change"}, {"time": 373, "annotation": {"number": 64, "value": 0}, "group": "control_change"}, {"time": 375, "annotation": {"number": 64, "value": 127}, "group": "control_change"}, {"time": 397, "annotation": {"number": 64, "value": 0}, "group": "control_change"}, {"time": 399, "annotation": {"number": 64, "value": 127}, "group": "control_change"}, {"time": 404, "annotation": {"number": 64, "value": 0}, "group": "control_change"}, {"time": 407, "annotation": {"number": 64, "value": 127}, "group": "control_change"}, {"time": 421, "annotation": {"number": 64, "value": 0}, "group": "control_change"}, {"time": 423, "annotation": {"number": 64, "value": 127}, "group": "control_change"}, {"time": 445, "annotation": {"number": 64, "value": 0}, "group": "control_change"}, {"time": 447, "annotation": {"number": 64, "value": 127}, "group": "control_change"}, {"time": 457, "annotation": {"number": 64, "value": 0}, "group": "control_change"}, {"time": 460, "annotation": {"number": 64, "value": 127}, "group": "control_change"}, {"time": 468, "annotation": {"number": 64, "value": 0}, "group": "control_change"}, {"time": 470, "annotation": {"number": 64, "value": 127}, "group": "control_change"}, {"time": 492, "annotation": {"number": 64, "value": 0}, "group": "control_change"}, {"time": 495, "annotation": {"number": 64, "value": 127}, "group": "control_change"}, {"time": 516, "annotation": {"number": 64, "value": 0}, "group": "control_change"}, {"time": 518, "annotation": {"number": 64, "value": 127}, "group": "control_change"}, {"time": 541, "annotation": {"number": 64, "value": 0}, "group": "control_change"}, {"time": 549, "annotation": {"number": 64, "value": 127}, "group": "control_change"}, {"time": 552, "annotation": {"number": 64, "value": 0}, "group": "control_change"}, {"time": 554, "annotation": {"number": 64, "value": 127}, "group": "control_change"}, {"time": 565, "annotation": {"number": 64, "value": 0}, "group": "control_change"}, {"time": 566, "annotation": {"number": 64, "value": 127}, "group": "control_change"}, {"time": 589, "annotation": {"number": 64, "value": 0}, "group": "control_change"}, {"time": 591, "annotation": {"number": 64, "value": 127}, "group": "control_change"}, {"time": 592, "annotation": {"number": 64, "value": 0}, "group": "control_change"}, {"time": 613, "annotation": {"number": 64, "value": 0}, "group": "control_change"}, {"time": 615, "annotation": {"number": 64, "value": 127}, "group": "control_change"}, {"time": 635, "annotation": {"number": 64, "value": 0}, "group": "control_change"}, {"time": 639, "annotation": {"number": 64, "value": 127}, "group": "control_change"}, {"time": 660, "annotation": {"number": 64, "value": 0}, "group": "control_change"}, {"time": 662, "annotation": {"number": 64, "value": 127}, "group": "control_change"}, {"time": 685, "annotation": {"number": 64, "value": 0}, "group": "control_change"}, {"time": 687, "annotation": {"number": 64, "value": 127}, "group": "control_change"}, {"time": 709, "annotation": {"number": 64, "value": 0}, "group": "control_change"}, {"time": 711, "annotation": {"number": 64, "value": 127}, "group": "control_change"}, {"time": 732, "annotation": {"number": 64, "value": 0}, "group": "control_change"}, {"time": 735, "annotation": {"number": 64, "value": 127}, "group": "control_change"}, {"time": 757, "annotation": {"number": 64, "value": 0}, "group": "control_change"}, {"time": 759, "annotation": {"number": 64, "value": 127}, "group": "control_change"}, {"time": 780, "annotation": {"number": 64, "value": 0}, "group": "control_change"}, {"time": 783, "annotation": {"number": 64, "value": 127}, "group": "control_change"}, {"time": 804, "annotation": {"number": 64, "value": 0}, "group": "control_change"}, {"time": 806, "annotation": {"number": 64, "value": 127}, "group": "control_change"}, {"time": 828, "annotation": {"number": 64, "value": 0}, "group": "control_change"}, {"time": 831, "annotation": {"number": 64, "value": 127}, "group": "control_change"}, {"time": 835, "annotation": {"number": 64, "value": 0}, "group": "control_change"}, {"time": 837, "annotation": {"number": 64, "value": 127}, "group": "control_change"}, {"time": 852, "annotation": {"number": 64, "value": 0}, "group": "control_change"}, {"time": 854, "annotation": {"number": 64, "value": 127}, "group": "control_change"}, {"time": 877, "annotation": {"number": 64, "value": 0}, "group": "control_change"}, {"time": 879, "annotation": {"number": 64, "value": 127}, "group": "control_change"}, {"time": 900, "annotation": {"number": 64, "value": 0}, "group": "control_change"}, {"time": 902, "annotation": {"number": 64, "value": 127}, "group": "control_change"}, {"time": 925, "annotation": {"number": 64, "value": 0}, "group": "control_change"}, {"time": 926, "annotation": {"number": 64, "value": 127}, "group": "control_change"}, {"time": 949, "annotation": {"number": 64, "value": 0}, "group": "control_change"}, {"time": 951, "annotation": {"number": 64, "value": 127}, "group": "control_change"}, {"time": 972, "annotation": {"number": 64, "value": 0}, "group": "control_change"}, {"time": 974, "annotation": {"number": 64, "value": 127}, "group": "control_change"}, {"time": 996, "annotation": {"number": 64, "value": 0}, "group": "control_change"}, {"time": 999, "annotation": {"number": 64, "value": 127}, "group": "control_change"}, {"time": 1021, "annotation": {"number": 64, "value": 0}, "group": "control_change"}, {"time": 1023, "annotation": {"number": 64, "value": 127}, "group": "control_change"}, {"time": 1044, "annotation": {"number": 64, "value": 0}, "group": "control_change"}, {"time": 1047, "annotation": {"number": 64, "value": 127}, "group": "control_change"}, {"time": 1068, "annotation": {"number": 64, "value": 0}, "group": "control_change"}, {"time": 1071, "annotation": {"number": 64, "value": 127}, "group": "control_change"}, {"time": 1092, "annotation": {"number": 64, "value": 0}, "group": "control_change"}, {"time": 1094, "annotation": {"number": 64, "value": 127}, "group": "control_change"}, {"time": 1117, "annotation": {"number": 64, "value": 0}, "group": "control_change"}, {"time": 1119, "annotation": {"number": 64, "value": 127}, "group": "control_change"}, {"time": 1141, "annotation": {"number": 64, "value": 0}, "group": "control_change"}, {"time": 1143, "annotation": {"number": 64, "value": 127}, "group": "control_change"}, {"time": 1165, "annotation": {"number": 64, "value": 0}, "group": "control_change"}, {"time": 1167, "annotation": {"number": 64, "value": 127}, "group": "control_change"}, {"time": 1172, "annotation": {"number": 64, "value": 0}, "group": "control_change"}, {"time": 1175, "annotation": {"number": 64, "value": 127}, "group": "control_change"}, {"time": 1189, "annotation": {"number": 64, "value": 0}, "group": "control_change"}, {"time": 1191, "annotation": {"number": 64, "value": 127}, "group": "control_change"}, {"time": 1213, "annotation": {"number": 64, "value": 0}, "group": "control_change"}, {"time": 1215, "annotation": {"number": 64, "value": 127}, "group": "control_change"}, {"time": 1225, "annotation": {"number": 64, "value": 0}, "group": "control_change"}, {"time": 1228, "annotation": {"number": 64, "value": 127}, "group": "control_change"}, {"time": 1236, "annotation": {"number": 64, "value": 0}, "group": "control_change"}, {"time": 1238, "annotation": {"number": 64, "value": 127}, "group": "control_change"}, {"time": 1260, "annotation": {"number": 64, "value": 0}, "group": "control_change"}, {"time": 1263, "annotation": {"number": 64, "value": 127}, "group": "control_change"}, {"time": 1284, "annotation": {"number": 64, "value": 0}, "group": "control_change"}, {"time": 1286, "annotation": {"number": 64, "value": 127}, "group": "control_change"}, {"time": 1309, "annotation": {"number": 64, "value": 0}, "group": "control_change"}, {"time": 1317, "annotation": {"number": 64, "value": 127}, "group": "control_change"}, {"time": 1320, "annotation": {"number": 64, "value": 0}, "group": "control_change"}, {"time": 1322, "annotation": {"number": 64, "value": 127}, "group": "control_change"}, {"time": 1333, "annotation": {"number": 64, "value": 0}, "group": "control_change"}, {"time": 1334, "annotation": {"number": 64, "value": 127}, "group": "control_change"}, {"time": 1357, "annotation": {"number": 64, "value": 0}, "group": "control_change"}, {"time": 1359, "annotation": {"number": 64, "value": 127}, "group": "control_change"}, {"time": 1360, "annotation": {"number": 64, "value": 0}, "group": "control_change"}, {"time": 1381, "annotation": {"number": 64, "value": 0}, "group": "control_change"}, {"time": 1383, "annotation": {"number": 64, "value": 127}, "group": "control_change"}, {"time": 1403, "annotation": {"number": 64, "value": 0}, "group": "control_change"}, {"time": 1407, "annotation": {"number": 64, "value": 127}, "group": "control_change"}, {"time": 1428, "annotation": {"number": 64, "value": 0}, "group": "control_change"}, {"time": 1430, "annotation": {"number": 64, "value": 127}, "group": "control_change"}, {"time": 1453, "annotation": {"number": 64, "value": 0}, "group": "control_change"}, {"time": 1455, "annotation": {"number": 64, "value": 127}, "group": "control_change"}, {"time": 1477, "annotation": {"number": 64, "value": 0}, "group": "control_change"}, {"time": 1479, "annotation": {"number": 64, "value": 127}, "group": "control_change"}, {"time": 1500, "annotation": {"number": 64, "value": 0}, "group": "control_change"}, {"time": 1503, "annotation": {"number": 64, "value": 127}, "group": "control_change"}, {"time": 1525, "annotation": {"number": 64, "value": 0}, "group": "control_change"}, {"time": 1527, "annotation": {"number": 64, "value": 127}, "group": "control_change"}, {"time": 1548, "annotation": {"number": 64, "value": 0}, "group": "control_change"}, {"time": 1551, "annotation": {"number": 64, "value": 127}, "group": "control_change"}, {"time": 1572, "annotation": {"number": 64, "value": 0}, "group": "control_change"}, {"time": 1574, "annotation": {"number": 64, "value": 127}, "group": "control_change"}, {"time": 1596, "annotation": {"number": 64, "value": 0}, "group": "control_change"}, {"time": 1599, "annotation": {"number": 64, "value": 127}, "group": "control_change"}, {"time": 1603, "annotation": {"number": 64, "value": 0}, "group": "control_change"}, {"time": 1605, "annotation": {"number": 64, "value": 127}, "group": "control_change"}, {"time": 1620, "annotation": {"number": 64, "value": 0}, "group": "control_change"}, {"time": 1622, "annotation": {"number": 64, "value": 127}, "group": "control_change"}, {"time": 1645, "annotation": {"number": 64, "value": 0}, "group": "control_change"}, {"time": 1647, "annotation": {"number": 64, "value": 127}, "group": "control_change"}, {"time": 1668, "annotation": {"number": 64, "value": 0}, "group": "control_change"}, {"time": 1670, "annotation": {"number": 64, "value": 127}, "group": "control_change"}, {"time": 1693, "annotation": {"number": 64, "value": 0}, "group": "control_change"}, {"time": 1694, "annotation": {"number": 64, "value": 127}, "group": "control_change"}, {"time": 1717, "annotation": {"number": 64, "value": 0}, "group": "control_change"}, {"time": 1719, "annotation": {"number": 64, "value": 127}, "group": "control_change"}, {"time": 1740, "annotation": {"number": 64, "value": 0}, "group": "control_change"}, {"time": 1742, "annotation": {"number": 64, "value": 127}, "group": "control_change"}, {"time": 1764, "annotation": {"number": 64, "value": 0}, "group": "control_change"}, {"time": 1767, "annotation": {"number": 64, "value": 127}, "group": "control_change"}, {"time": 1789, "annotation": {"number": 64, "value": 0}, "group": "control_change"}, {"time": 1791, "annotation": {"number": 64, "value": 127}, "group": "control_change"}, {"time": 1797, "annotation": {"number": 64, "value": 127}, "group": "control_change"}, {"time": 1839, "annotation": {"number": 64, "value": 0}, "group": "control_change"}, {"time": 1849, "annotation": {"number": 64, "value": 127}, "group": "control_change"}, {"time": 1874, "annotation": {"number": 64, "value": 0}, "group": "control_change"}, {"time": 1880, "annotation": {"number": 64, "value": 127}, "group": "control_change"}, {"time": 1881, "annotation": {"number": 64, "value": 0}, "group": "control_change"}, {"time": 1887, "annotation": {"number": 64, "value": 127}, "group": "control_change"}, {"time": 1909, "annotation": {"number": 64, "value": 0}, "group": "control_change"}, {"time": 1911, "annotation": {"number": 64, "value": 127}, "group": "control_change"}, {"time": 1933, "annotation": {"number": 64, "value": 0}, "group": "control_change"}, {"time": 1935, "annotation": {"number": 64, "value": 127}, "group": "control_change"}, {"time": 1940, "annotation": {"number": 64, "value": 0}, "group": "control_change"}, {"time": 1943, "annotation": {"number": 64, "value": 127}, "group": "control_change"}, {"time": 1957, "annotation": {"number": 64, "value": 0}, "group": "control_change"}, {"time": 1959, "annotation": {"number": 64, "value": 127}, "group": "control_change"}, {"time": 1981, "annotation": {"number": 64, "value": 0}, "group": "control_change"}, {"time": 1983, "annotation": {"number": 64, "value": 127}, "group": "control_change"}, {"time": 1993, "annotation": {"number": 64, "value": 0}, "group": "control_change"}, {"time": 1996, "annotation": {"number": 64, "value": 127}, "group": "control_change"}, {"time": 2004, "annotation": {"number": 64, "value": 0}, "group": "control_change"}, {"time": 2006, "annotation": {"number": 64, "value": 127}, "group": "control_change"}, {"time": 2028, "annotation": {"number": 64, "value": 0}, "group": "control_change"}, {"time": 2031, "annotation": {"number": 64, "value": 127}, "group": "control_change"}, {"time": 2052, "annotation": {"number": 64, "value": 0}, "group": "control_change"}, {"time": 2054, "annotation": {"number": 64, "value": 127}, "group": "control_change"}, {"time": 2077, "annotation": {"number": 64, "value": 0}, "group": "control_change"}, {"time": 2085, "annotation": {"number": 64, "value": 127}, "group": "control_change"}, {"time": 2088, "annotation": {"number": 64, "value": 0}, "group": "control_change"}, {"time": 2090, "annotation": {"number": 64, "value": 127}, "group": "control_change"}, {"time": 2101, "annotation": {"number": 64, "value": 0}, "group": "control_change"}, {"time": 2102, "annotation": {"number": 64, "value": 127}, "group": "control_change"}, {"time": 2125, "annotation": {"number": 64, "value": 0}, "group": "control_change"}, {"time": 2127, "annotation": {"number": 64, "value": 127}, "group": "control_change"}, {"time": 2128, "annotation": {"number": 64, "value": 0}, "group": "control_change"}, {"time": 2149, "annotation": {"number": 64, "value": 0}, "group": "control_change"}, {"time": 2151, "annotation": {"number": 64, "value": 127}, "group": "control_change"}, {"time": 2171, "annotation": {"number": 64, "value": 0}, "group": "control_change"}, {"time": 2175, "annotation": {"number": 64, "value": 127}, "group": "control_change"}, {"time": 2196, "annotation": {"number": 64, "value": 0}, "group": "control_change"}, {"time": 2198, "annotation": {"number": 64, "value": 127}, "group": "control_change"}, {"time": 2221, "annotation": {"number": 64, "value": 0}, "group": "control_change"}, {"time": 2223, "annotation": {"number": 64, "value": 127}, "group": "control_change"}, {"time": 2245, "annotation": {"number": 64, "value": 0}, "group": "control_change"}, {"time": 2247, "annotation": {"number": 64, "value": 127}, "group": "control_change"}, {"time": 2268, "annotation": {"number": 64, "value": 0}, "group": "control_change"}, {"time": 2271, "annotation": {"number": 64, "value": 127}, "group": "control_change"}, {"time": 2293, "annotation": {"number": 64, "value": 0}, "group": "control_change"}, {"time": 2295, "annotation": {"number": 64, "value": 127}, "group": "control_change"}, {"time": 2316, "annotation": {"number": 64, "value": 0}, "group": "control_change"}, {"time": 2319, "annotation": {"number": 64, "value": 127}, "group": "control_change"}, {"time": 2340, "annotation": {"number": 64, "value": 0}, "group": "control_change"}, {"time": 2342, "annotation": {"number": 64, "value": 127}, "group": "control_change"}, {"time": 2364, "annotation": {"number": 64, "value": 0}, "group": "control_change"}, {"time": 2380, "annotation": {"number": 64, "value": 127}, "group": "control_change"}, {"time": 2386, "annotation": {"number": 64, "value": 0}, "group": "control_change"}, {"time": 2415, "annotation": {"number": 64, "value": 127}, "group": "control_change"}, {"time": 2437, "annotation": {"number": 64, "value": 0}, "group": "control_change"}, {"time": 2439, "annotation": {"number": 64, "value": 127}, "group": "control_change"}, {"time": 2460, "annotation": {"number": 64, "value": 0}, "group": "control_change"}, {"time": 2463, "annotation": {"number": 64, "value": 127}, "group": "control_change"}, {"time": 2485, "annotation": {"number": 64, "value": 0}, "group": "control_change"}, {"time": 2487, "annotation": {"number": 64, "value": 127}, "group": "control_change"}, {"time": 2508, "annotation": {"number": 64, "value": 0}, "group": "control_change"}, {"time": 2511, "annotation": {"number": 64, "value": 127}, "group": "control_change"}, {"time": 2532, "annotation": {"number": 64, "value": 0}, "group": "control_change"}, {"time": 2534, "annotation": {"number": 64, "value": 127}, "group": "control_change"}, {"time": 2556, "annotation": {"number": 64, "value": 0}, "group": "control_change"}, {"time": 2559, "annotation": {"number": 64, "value": 127}, "group": "control_change"}, {"time": 2563, "annotation": {"number": 64, "value": 0}, "group": "control_change"}, {"time": 2565, "annotation": {"number": 64, "value": 127}, "group": "control_change"}, {"time": 2580, "annotation": {"number": 64, "value": 0}, "group": "control_change"}, {"time": 2582, "annotation": {"number": 64, "value": 127}, "group": "control_change"}, {"time": 2605, "annotation": {"number": 64, "value": 0}, "group": "control_change"}, {"time": 2607, "annotation": {"number": 64, "value": 127}, "group": "control_change"}, {"time": 2628, "annotation": {"number": 64, "value": 0}, "group": "control_change"}, {"time": 2630, "annotation": {"number": 64, "value": 127}, "group": "control_change"}, {"time": 2653, "annotation": {"number": 64, "value": 0}, "group": "control_change"}, {"time": 2654, "annotation": {"number": 64, "value": 127}, "group": "control_change"}, {"time": 2677, "annotation": {"number": 64, "value": 0}, "group": "control_change"}, {"time": 2679, "annotation": {"number": 64, "value": 127}, "group": "control_change"}, {"time": 2700, "annotation": {"number": 64, "value": 0}, "group": "control_change"}, {"time": 2702, "annotation": {"number": 64, "value": 127}, "group": "control_change"}, {"time": 2724, "annotation": {"number": 64, "value": 0}, "group": "control_change"}, {"time": 2727, "annotation": {"number": 64, "value": 127}, "group": "control_change"}, {"time": 2729, "annotation": {"number": 64, "value": 127}, "group": "control_change"}, {"time": 2762, "annotation": {"number": 64, "value": 0}, "group": "control_change"}, {"time": 2765, "annotation": {"number": 64, "value": 127}, "group": "control_change"}, {"time": 2830, "annotation": {"number": 64, "value": 0}, "group": "control_change"}, {"time": 2831, "annotation": {"number": 64, "value": 127}, "group": "control_change"}, {"time": 2837, "annotation": {"number": 64, "value": 0}, "group": "control_change"}]}]}