{"metadata": {"schema_version": "0.2", "title": "None", "source_filename": "172.mid", "source_format": "midi"}, "resolution": 12, "tempos": [{"time": 0, "qpm": 66.04998001988105}, {"time": 1416, "qpm": 65.99999340000066}, {"time": 1428, "qpm": 65.50003820835562}, {"time": 1524, "qpm": 65.99999340000066}], "time_signatures": [{"time": 0, "numerator": 1, "denominator": 4}], "tracks": [{"program": 0, "is_drum": false, "name": "MELODY", "notes": [{"time": 221, "pitch": 72, "duration": 3, "velocity": 96}, {"time": 224, "pitch": 74, "duration": 3, "velocity": 70}, {"time": 227, "pitch": 76, "duration": 10, "velocity": 102}, {"time": 236, "pitch": 67, "duration": 16, "velocity": 95}, {"time": 266, "pitch": 67, "duration": 2, "velocity": 90}, {"time": 269, "pitch": 67, "duration": 5, "velocity": 90}, {"time": 275, "pitch": 65, "duration": 4, "velocity": 78}, {"time": 281, "pitch": 64, "duration": 3, "velocity": 88}, {"time": 284, "pitch": 65, "duration": 6, "velocity": 95}, {"time": 290, "pitch": 74, "duration": 4, "velocity": 102}, {"time": 296, "pitch": 74, "duration": 6, "velocity": 102}, {"time": 302, "pitch": 72, "duration": 3, "velocity": 79}, {"time": 308, "pitch": 74, "duration": 3, "velocity": 112}, {"time": 329, "pitch": 72, "duration": 1, "velocity": 83}, {"time": 332, "pitch": 77, "duration": 4, "velocity": 107}, {"time": 338, "pitch": 76, "duration": 2, "velocity": 117}, {"time": 341, "pitch": 77, "duration": 5, "velocity": 112}, {"time": 350, "pitch": 76, "duration": 3, "velocity": 97}, {"time": 353, "pitch": 77, "duration": 3, "velocity": 90}, {"time": 359, "pitch": 76, "duration": 5, "velocity": 100}, {"time": 365, "pitch": 74, "duration": 2, "velocity": 78}, {"time": 368, "pitch": 74, "duration": 4, "velocity": 122}, {"time": 374, "pitch": 72, "duration": 2, "velocity": 102}, {"time": 377, "pitch": 76, "duration": 22, "velocity": 112}, {"time": 413, "pitch": 72, "duration": 1, "velocity": 93}, {"time": 416, "pitch": 74, "duration": 3, "velocity": 97}, {"time": 419, "pitch": 76, "duration": 8, "velocity": 112}, {"time": 428, "pitch": 72, "duration": 26, "velocity": 96}, {"time": 458, "pitch": 72, "duration": 2, "velocity": 78}, {"time": 464, "pitch": 72, "duration": 2, "velocity": 96}, {"time": 467, "pitch": 69, "duration": 3, "velocity": 86}, {"time": 473, "pitch": 72, "duration": 1, "velocity": 90}, {"time": 476, "pitch": 74, "duration": 5, "velocity": 107}, {"time": 482, "pitch": 72, "duration": 3, "velocity": 73}, {"time": 485, "pitch": 74, "duration": 7, "velocity": 93}, {"time": 491, "pitch": 76, "duration": 4, "velocity": 100}, {"time": 497, "pitch": 74, "duration": 14, "velocity": 102}, {"time": 521, "pitch": 72, "duration": 2, "velocity": 88}, {"time": 524, "pitch": 77, "duration": 4, "velocity": 107}, {"time": 530, "pitch": 76, "duration": 2, "velocity": 95}, {"time": 533, "pitch": 77, "duration": 4, "velocity": 97}, {"time": 542, "pitch": 76, "duration": 6, "velocity": 102}, {"time": 548, "pitch": 77, "duration": 5, "velocity": 99}, {"time": 554, "pitch": 76, "duration": 3, "velocity": 102}, {"time": 560, "pitch": 74, "duration": 2, "velocity": 102}, {"time": 563, "pitch": 76, "duration": 8, "velocity": 90}, {"time": 572, "pitch": 72, "duration": 24, "velocity": 97}, {"time": 608, "pitch": 72, "duration": 2, "velocity": 93}, {"time": 611, "pitch": 74, "duration": 3, "velocity": 95}, {"time": 614, "pitch": 76, "duration": 7, "velocity": 73}, {"time": 626, "pitch": 67, "duration": 22, "velocity": 90}, {"time": 650, "pitch": 67, "duration": 2, "velocity": 82}, {"time": 653, "pitch": 67, "duration": 4, "velocity": 92}, {"time": 658, "pitch": 65, "duration": 4, "velocity": 93}, {"time": 664, "pitch": 64, "duration": 3, "velocity": 88}, {"time": 667, "pitch": 65, "duration": 4, "velocity": 96}, {"time": 673, "pitch": 74, "duration": 2, "velocity": 93}, {"time": 677, "pitch": 74, "duration": 9, "velocity": 99}, {"time": 686, "pitch": 72, "duration": 2, "velocity": 89}, {"time": 689, "pitch": 74, "duration": 21, "velocity": 93}, {"time": 713, "pitch": 72, "duration": 3, "velocity": 89}, {"time": 716, "pitch": 77, "duration": 4, "velocity": 107}, {"time": 722, "pitch": 76, "duration": 2, "velocity": 112}, {"time": 725, "pitch": 77, "duration": 5, "velocity": 127}, {"time": 731, "pitch": 76, "duration": 4, "velocity": 112}, {"time": 737, "pitch": 77, "duration": 6, "velocity": 112}, {"time": 743, "pitch": 76, "duration": 3, "velocity": 112}, {"time": 749, "pitch": 74, "duration": 2, "velocity": 107}, {"time": 752, "pitch": 74, "duration": 3, "velocity": 127}, {"time": 758, "pitch": 72, "duration": 3, "velocity": 112}, {"time": 761, "pitch": 76, "duration": 27, "velocity": 107}, {"time": 797, "pitch": 72, "duration": 3, "velocity": 112}, {"time": 800, "pitch": 74, "duration": 3, "velocity": 95}, {"time": 803, "pitch": 76, "duration": 5, "velocity": 97}, {"time": 812, "pitch": 72, "duration": 24, "velocity": 107}, {"time": 842, "pitch": 72, "duration": 2, "velocity": 95}, {"time": 845, "pitch": 72, "duration": 3, "velocity": 99}, {"time": 851, "pitch": 69, "duration": 3, "velocity": 96}, {"time": 856, "pitch": 72, "duration": 2, "velocity": 96}, {"time": 860, "pitch": 74, "duration": 7, "velocity": 107}, {"time": 866, "pitch": 72, "duration": 3, "velocity": 96}, {"time": 869, "pitch": 74, "duration": 6, "velocity": 117}, {"time": 875, "pitch": 76, "duration": 8, "velocity": 102}, {"time": 883, "pitch": 74, "duration": 11, "velocity": 122}, {"time": 905, "pitch": 72, "duration": 1, "velocity": 88}, {"time": 908, "pitch": 77, "duration": 4, "velocity": 112}, {"time": 914, "pitch": 76, "duration": 2, "velocity": 95}, {"time": 917, "pitch": 77, "duration": 4, "velocity": 102}, {"time": 923, "pitch": 79, "duration": 5, "velocity": 112}, {"time": 929, "pitch": 81, "duration": 4, "velocity": 107}, {"time": 935, "pitch": 79, "duration": 6, "velocity": 102}, {"time": 944, "pitch": 77, "duration": 3, "velocity": 117}, {"time": 947, "pitch": 79, "duration": 6, "velocity": 100}, {"time": 956, "pitch": 79, "duration": 32, "velocity": 127}, {"time": 1019, "pitch": 76, "duration": 3, "velocity": 107}, {"time": 1025, "pitch": 72, "duration": 3, "velocity": 97}, {"time": 1028, "pitch": 79, "duration": 4, "velocity": 117}, {"time": 1034, "pitch": 76, "duration": 5, "velocity": 99}, {"time": 1040, "pitch": 84, "duration": 6, "velocity": 127}, {"time": 1046, "pitch": 83, "duration": 5, "velocity": 102}, {"time": 1052, "pitch": 79, "duration": 17, "velocity": 117}, {"time": 1070, "pitch": 79, "duration": 1, "velocity": 100}, {"time": 1073, "pitch": 79, "duration": 2, "velocity": 96}, {"time": 1076, "pitch": 84, "duration": 4, "velocity": 127}, {"time": 1082, "pitch": 83, "duration": 2, "velocity": 112}, {"time": 1085, "pitch": 79, "duration": 3, "velocity": 99}, {"time": 1091, "pitch": 76, "duration": 9, "velocity": 107}, {"time": 1100, "pitch": 74, "duration": 16, "velocity": 97}, {"time": 1118, "pitch": 69, "duration": 3, "velocity": 96}, {"time": 1121, "pitch": 72, "duration": 3, "velocity": 90}, {"time": 1124, "pitch": 77, "duration": 4, "velocity": 100}, {"time": 1130, "pitch": 76, "duration": 2, "velocity": 97}, {"time": 1133, "pitch": 77, "duration": 4, "velocity": 122}, {"time": 1139, "pitch": 79, "duration": 7, "velocity": 96}, {"time": 1148, "pitch": 80, "duration": 6, "velocity": 122}, {"time": 1154, "pitch": 79, "duration": 3, "velocity": 122}, {"time": 1160, "pitch": 77, "duration": 5, "velocity": 117}, {"time": 1166, "pitch": 79, "duration": 3, "velocity": 100}, {"time": 1172, "pitch": 72, "duration": 6, "velocity": 100}, {"time": 1178, "pitch": 74, "duration": 1, "velocity": 100}, {"time": 1181, "pitch": 76, "duration": 5, "velocity": 122}, {"time": 1187, "pitch": 74, "duration": 13, "velocity": 122}, {"time": 1211, "pitch": 76, "duration": 3, "velocity": 107}, {"time": 1217, "pitch": 72, "duration": 3, "velocity": 97}, {"time": 1220, "pitch": 79, "duration": 4, "velocity": 117}, {"time": 1226, "pitch": 76, "duration": 5, "velocity": 99}, {"time": 1232, "pitch": 84, "duration": 6, "velocity": 127}, {"time": 1238, "pitch": 83, "duration": 5, "velocity": 102}, {"time": 1244, "pitch": 79, "duration": 17, "velocity": 117}, {"time": 1262, "pitch": 76, "duration": 3, "velocity": 97}, {"time": 1265, "pitch": 79, "duration": 3, "velocity": 97}, {"time": 1268, "pitch": 84, "duration": 4, "velocity": 127}, {"time": 1274, "pitch": 83, "duration": 2, "velocity": 112}, {"time": 1277, "pitch": 79, "duration": 3, "velocity": 99}, {"time": 1283, "pitch": 76, "duration": 9, "velocity": 107}, {"time": 1292, "pitch": 79, "duration": 14, "velocity": 127}, {"time": 1310, "pitch": 77, "duration": 3, "velocity": 122}, {"time": 1316, "pitch": 74, "duration": 5, "velocity": 117}, {"time": 1322, "pitch": 72, "duration": 6, "velocity": 88}, {"time": 1334, "pitch": 72, "duration": 1, "velocity": 95}, {"time": 1337, "pitch": 72, "duration": 2, "velocity": 89}, {"time": 1340, "pitch": 77, "duration": 3, "velocity": 117}, {"time": 1346, "pitch": 76, "duration": 1, "velocity": 112}, {"time": 1349, "pitch": 77, "duration": 5, "velocity": 122}, {"time": 1355, "pitch": 79, "duration": 4, "velocity": 107}, {"time": 1364, "pitch": 81, "duration": 5, "velocity": 122}, {"time": 1370, "pitch": 72, "duration": 4, "velocity": 107}, {"time": 1376, "pitch": 72, "duration": 2, "velocity": 112}, {"time": 1379, "pitch": 74, "duration": 8, "velocity": 112}, {"time": 1388, "pitch": 72, "duration": 42, "velocity": 107}, {"time": 1565, "pitch": 72, "duration": 3, "velocity": 112}, {"time": 1568, "pitch": 74, "duration": 4, "velocity": 102}, {"time": 1571, "pitch": 76, "duration": 10, "velocity": 112}, {"time": 1586, "pitch": 67, "duration": 22, "velocity": 90}, {"time": 1610, "pitch": 67, "duration": 2, "velocity": 82}, {"time": 1613, "pitch": 67, "duration": 4, "velocity": 92}, {"time": 1618, "pitch": 65, "duration": 4, "velocity": 93}, {"time": 1624, "pitch": 64, "duration": 3, "velocity": 88}, {"time": 1627, "pitch": 65, "duration": 4, "velocity": 96}, {"time": 1633, "pitch": 74, "duration": 2, "velocity": 93}, {"time": 1637, "pitch": 74, "duration": 9, "velocity": 99}, {"time": 1646, "pitch": 72, "duration": 2, "velocity": 89}, {"time": 1649, "pitch": 74, "duration": 21, "velocity": 93}, {"time": 1673, "pitch": 72, "duration": 3, "velocity": 89}, {"time": 1676, "pitch": 77, "duration": 4, "velocity": 107}, {"time": 1682, "pitch": 76, "duration": 2, "velocity": 112}, {"time": 1685, "pitch": 77, "duration": 5, "velocity": 127}, {"time": 1691, "pitch": 76, "duration": 4, "velocity": 112}, {"time": 1697, "pitch": 77, "duration": 6, "velocity": 112}, {"time": 1703, "pitch": 76, "duration": 3, "velocity": 112}, {"time": 1709, "pitch": 74, "duration": 2, "velocity": 107}, {"time": 1712, "pitch": 74, "duration": 3, "velocity": 127}, {"time": 1718, "pitch": 72, "duration": 3, "velocity": 112}, {"time": 1721, "pitch": 76, "duration": 27, "velocity": 107}, {"time": 1757, "pitch": 72, "duration": 3, "velocity": 112}, {"time": 1760, "pitch": 74, "duration": 3, "velocity": 95}, {"time": 1763, "pitch": 76, "duration": 5, "velocity": 97}, {"time": 1772, "pitch": 72, "duration": 24, "velocity": 107}, {"time": 1802, "pitch": 72, "duration": 2, "velocity": 95}, {"time": 1805, "pitch": 72, "duration": 3, "velocity": 99}, {"time": 1811, "pitch": 69, "duration": 3, "velocity": 96}, {"time": 1816, "pitch": 72, "duration": 2, "velocity": 96}, {"time": 1820, "pitch": 74, "duration": 7, "velocity": 107}, {"time": 1826, "pitch": 72, "duration": 3, "velocity": 96}, {"time": 1829, "pitch": 74, "duration": 6, "velocity": 117}, {"time": 1835, "pitch": 76, "duration": 8, "velocity": 102}, {"time": 1843, "pitch": 74, "duration": 11, "velocity": 122}, {"time": 1865, "pitch": 72, "duration": 1, "velocity": 88}, {"time": 1868, "pitch": 77, "duration": 4, "velocity": 112}, {"time": 1874, "pitch": 76, "duration": 2, "velocity": 95}, {"time": 1877, "pitch": 77, "duration": 4, "velocity": 102}, {"time": 1883, "pitch": 79, "duration": 5, "velocity": 112}, {"time": 1889, "pitch": 81, "duration": 4, "velocity": 107}, {"time": 1895, "pitch": 79, "duration": 6, "velocity": 102}, {"time": 1904, "pitch": 77, "duration": 3, "velocity": 117}, {"time": 1907, "pitch": 79, "duration": 6, "velocity": 100}, {"time": 1916, "pitch": 79, "duration": 32, "velocity": 127}, {"time": 1979, "pitch": 76, "duration": 3, "velocity": 107}, {"time": 1985, "pitch": 72, "duration": 3, "velocity": 97}, {"time": 1988, "pitch": 79, "duration": 4, "velocity": 117}, {"time": 1994, "pitch": 76, "duration": 5, "velocity": 99}, {"time": 2000, "pitch": 84, "duration": 6, "velocity": 127}, {"time": 2006, "pitch": 83, "duration": 5, "velocity": 102}, {"time": 2012, "pitch": 79, "duration": 17, "velocity": 117}, {"time": 2030, "pitch": 79, "duration": 1, "velocity": 100}, {"time": 2033, "pitch": 79, "duration": 2, "velocity": 96}, {"time": 2036, "pitch": 84, "duration": 4, "velocity": 127}, {"time": 2042, "pitch": 83, "duration": 2, "velocity": 112}, {"time": 2045, "pitch": 79, "duration": 3, "velocity": 99}, {"time": 2051, "pitch": 76, "duration": 9, "velocity": 107}, {"time": 2060, "pitch": 74, "duration": 16, "velocity": 97}, {"time": 2078, "pitch": 69, "duration": 3, "velocity": 96}, {"time": 2081, "pitch": 72, "duration": 3, "velocity": 90}, {"time": 2084, "pitch": 77, "duration": 4, "velocity": 100}, {"time": 2090, "pitch": 76, "duration": 2, "velocity": 97}, {"time": 2093, "pitch": 77, "duration": 4, "velocity": 122}, {"time": 2099, "pitch": 79, "duration": 7, "velocity": 96}, {"time": 2108, "pitch": 80, "duration": 6, "velocity": 122}, {"time": 2114, "pitch": 79, "duration": 3, "velocity": 122}, {"time": 2120, "pitch": 77, "duration": 5, "velocity": 117}, {"time": 2126, "pitch": 79, "duration": 3, "velocity": 100}, {"time": 2132, "pitch": 72, "duration": 6, "velocity": 100}, {"time": 2138, "pitch": 74, "duration": 1, "velocity": 100}, {"time": 2141, "pitch": 76, "duration": 5, "velocity": 122}, {"time": 2147, "pitch": 74, "duration": 13, "velocity": 122}, {"time": 2171, "pitch": 76, "duration": 3, "velocity": 107}, {"time": 2177, "pitch": 72, "duration": 3, "velocity": 97}, {"time": 2180, "pitch": 79, "duration": 4, "velocity": 117}, {"time": 2186, "pitch": 76, "duration": 5, "velocity": 99}, {"time": 2192, "pitch": 84, "duration": 6, "velocity": 127}, {"time": 2198, "pitch": 83, "duration": 5, "velocity": 102}, {"time": 2204, "pitch": 79, "duration": 17, "velocity": 117}, {"time": 2222, "pitch": 76, "duration": 3, "velocity": 97}, {"time": 2225, "pitch": 79, "duration": 3, "velocity": 97}, {"time": 2228, "pitch": 84, "duration": 4, "velocity": 127}, {"time": 2234, "pitch": 83, "duration": 2, "velocity": 112}, {"time": 2237, "pitch": 79, "duration": 3, "velocity": 99}, {"time": 2243, "pitch": 76, "duration": 9, "velocity": 107}, {"time": 2252, "pitch": 79, "duration": 14, "velocity": 127}, {"time": 2270, "pitch": 77, "duration": 3, "velocity": 122}, {"time": 2276, "pitch": 74, "duration": 5, "velocity": 117}, {"time": 2282, "pitch": 72, "duration": 6, "velocity": 88}, {"time": 2294, "pitch": 72, "duration": 1, "velocity": 95}, {"time": 2297, "pitch": 72, "duration": 2, "velocity": 89}, {"time": 2300, "pitch": 77, "duration": 3, "velocity": 117}, {"time": 2306, "pitch": 76, "duration": 1, "velocity": 112}, {"time": 2309, "pitch": 77, "duration": 5, "velocity": 122}, {"time": 2315, "pitch": 79, "duration": 4, "velocity": 107}, {"time": 2324, "pitch": 81, "duration": 5, "velocity": 122}, {"time": 2330, "pitch": 72, "duration": 4, "velocity": 107}, {"time": 2336, "pitch": 72, "duration": 2, "velocity": 112}, {"time": 2339, "pitch": 74, "duration": 8, "velocity": 112}, {"time": 2348, "pitch": 72, "duration": 12, "velocity": 107}, {"time": 2375, "pitch": 76, "duration": 3, "velocity": 127}, {"time": 2381, "pitch": 74, "duration": 3, "velocity": 76}, {"time": 2384, "pitch": 76, "duration": 3, "velocity": 100}, {"time": 2387, "pitch": 74, "duration": 2, "velocity": 86}, {"time": 2390, "pitch": 72, "duration": 7, "velocity": 99}, {"time": 2402, "pitch": 72, "duration": 2, "velocity": 122}, {"time": 2405, "pitch": 72, "duration": 5, "velocity": 99}, {"time": 2411, "pitch": 69, "duration": 2, "velocity": 95}, {"time": 2414, "pitch": 72, "duration": 4, "velocity": 122}, {"time": 2420, "pitch": 79, "duration": 6, "velocity": 117}, {"time": 2426, "pitch": 77, "duration": 6, "velocity": 117}, {"time": 2438, "pitch": 72, "duration": 2, "velocity": 127}, {"time": 2441, "pitch": 72, "duration": 4, "velocity": 102}, {"time": 2447, "pitch": 69, "duration": 2, "velocity": 112}, {"time": 2450, "pitch": 72, "duration": 3, "velocity": 127}, {"time": 2453, "pitch": 79, "duration": 2, "velocity": 127}, {"time": 2459, "pitch": 79, "duration": 5, "velocity": 127}, {"time": 2471, "pitch": 79, "duration": 1, "velocity": 102}, {"time": 2474, "pitch": 81, "duration": 3, "velocity": 117}, {"time": 2477, "pitch": 79, "duration": 3, "velocity": 99}, {"time": 2480, "pitch": 77, "duration": 4, "velocity": 127}, {"time": 2486, "pitch": 79, "duration": 4, "velocity": 127}, {"time": 2492, "pitch": 79, "duration": 3, "velocity": 127}, {"time": 2495, "pitch": 77, "duration": 3, "velocity": 89}, {"time": 2498, "pitch": 76, "duration": 8, "velocity": 100}, {"time": 2507, "pitch": 76, "duration": 2, "velocity": 117}, {"time": 2510, "pitch": 74, "duration": 3, "velocity": 122}, {"time": 2516, "pitch": 76, "duration": 2, "velocity": 127}, {"time": 2519, "pitch": 79, "duration": 5, "velocity": 127}, {"time": 2528, "pitch": 72, "duration": 12, "velocity": 112}, {"time": 2543, "pitch": 72, "duration": 1, "velocity": 100}, {"time": 2546, "pitch": 72, "duration": 2, "velocity": 122}, {"time": 2552, "pitch": 69, "duration": 2, "velocity": 112}, {"time": 2555, "pitch": 72, "duration": 4, "velocity": 127}, {"time": 2561, "pitch": 79, "duration": 4, "velocity": 127}, {"time": 2567, "pitch": 79, "duration": 13, "velocity": 122}, {"time": 2579, "pitch": 72, "duration": 1, "velocity": 102}, {"time": 2582, "pitch": 72, "duration": 2, "velocity": 122}, {"time": 2588, "pitch": 69, "duration": 3, "velocity": 107}, {"time": 2591, "pitch": 72, "duration": 4, "velocity": 127}, {"time": 2597, "pitch": 79, "duration": 3, "velocity": 127}, {"time": 2603, "pitch": 81, "duration": 27, "velocity": 127}, {"time": 2633, "pitch": 81, "duration": 4, "velocity": 127}, {"time": 2639, "pitch": 79, "duration": 41, "velocity": 127}, {"time": 2735, "pitch": 76, "duration": 3, "velocity": 107}, {"time": 2741, "pitch": 72, "duration": 3, "velocity": 97}, {"time": 2744, "pitch": 79, "duration": 4, "velocity": 117}, {"time": 2750, "pitch": 76, "duration": 5, "velocity": 99}, {"time": 2756, "pitch": 84, "duration": 6, "velocity": 127}, {"time": 2762, "pitch": 83, "duration": 5, "velocity": 102}, {"time": 2768, "pitch": 79, "duration": 17, "velocity": 117}, {"time": 2786, "pitch": 79, "duration": 1, "velocity": 100}, {"time": 2789, "pitch": 79, "duration": 2, "velocity": 96}, {"time": 2792, "pitch": 84, "duration": 4, "velocity": 127}, {"time": 2798, "pitch": 83, "duration": 2, "velocity": 112}, {"time": 2801, "pitch": 79, "duration": 3, "velocity": 99}, {"time": 2807, "pitch": 76, "duration": 9, "velocity": 107}, {"time": 2816, "pitch": 74, "duration": 16, "velocity": 97}, {"time": 2834, "pitch": 69, "duration": 3, "velocity": 96}, {"time": 2837, "pitch": 72, "duration": 3, "velocity": 90}, {"time": 2840, "pitch": 77, "duration": 4, "velocity": 100}, {"time": 2846, "pitch": 76, "duration": 2, "velocity": 97}, {"time": 2849, "pitch": 77, "duration": 4, "velocity": 122}, {"time": 2855, "pitch": 79, "duration": 7, "velocity": 96}, {"time": 2864, "pitch": 80, "duration": 6, "velocity": 122}, {"time": 2870, "pitch": 79, "duration": 3, "velocity": 122}, {"time": 2876, "pitch": 77, "duration": 5, "velocity": 117}, {"time": 2882, "pitch": 79, "duration": 3, "velocity": 100}, {"time": 2888, "pitch": 72, "duration": 6, "velocity": 100}, {"time": 2894, "pitch": 74, "duration": 1, "velocity": 100}, {"time": 2897, "pitch": 76, "duration": 5, "velocity": 122}, {"time": 2903, "pitch": 74, "duration": 13, "velocity": 122}, {"time": 2927, "pitch": 76, "duration": 3, "velocity": 107}, {"time": 2933, "pitch": 72, "duration": 3, "velocity": 97}, {"time": 2936, "pitch": 79, "duration": 4, "velocity": 117}, {"time": 2942, "pitch": 76, "duration": 5, "velocity": 99}, {"time": 2948, "pitch": 84, "duration": 6, "velocity": 127}, {"time": 2954, "pitch": 83, "duration": 5, "velocity": 102}, {"time": 2960, "pitch": 79, "duration": 17, "velocity": 117}, {"time": 2978, "pitch": 76, "duration": 3, "velocity": 97}, {"time": 2981, "pitch": 79, "duration": 3, "velocity": 97}, {"time": 2984, "pitch": 84, "duration": 4, "velocity": 127}, {"time": 2990, "pitch": 83, "duration": 2, "velocity": 112}, {"time": 2993, "pitch": 79, "duration": 3, "velocity": 99}, {"time": 2999, "pitch": 76, "duration": 9, "velocity": 107}, {"time": 3008, "pitch": 79, "duration": 14, "velocity": 127}, {"time": 3026, "pitch": 77, "duration": 3, "velocity": 122}, {"time": 3032, "pitch": 74, "duration": 5, "velocity": 117}, {"time": 3038, "pitch": 72, "duration": 6, "velocity": 88}, {"time": 3050, "pitch": 72, "duration": 1, "velocity": 95}, {"time": 3053, "pitch": 72, "duration": 2, "velocity": 89}, {"time": 3056, "pitch": 77, "duration": 3, "velocity": 117}, {"time": 3062, "pitch": 76, "duration": 1, "velocity": 112}, {"time": 3065, "pitch": 77, "duration": 5, "velocity": 122}, {"time": 3071, "pitch": 79, "duration": 4, "velocity": 107}, {"time": 3080, "pitch": 81, "duration": 5, "velocity": 122}, {"time": 3086, "pitch": 72, "duration": 4, "velocity": 107}, {"time": 3092, "pitch": 72, "duration": 2, "velocity": 112}, {"time": 3095, "pitch": 74, "duration": 8, "velocity": 112}, {"time": 3104, "pitch": 72, "duration": 12, "velocity": 107}]}, {"program": 0, "is_drum": false, "name": "BRIDGE", "notes": [{"time": 626, "pitch": 62, "duration": 6, "velocity": 95}, {"time": 632, "pitch": 64, "duration": 6, "velocity": 78}, {"time": 638, "pitch": 55, "duration": 6, "velocity": 75}, {"time": 644, "pitch": 60, "duration": 26, "velocity": 92}, {"time": 674, "pitch": 62, "duration": 6, "velocity": 117}, {"time": 680, "pitch": 64, "duration": 6, "velocity": 78}, {"time": 686, "pitch": 57, "duration": 6, "velocity": 92}, {"time": 692, "pitch": 62, "duration": 7, "velocity": 99}, {"time": 698, "pitch": 64, "duration": 18, "velocity": 96}, {"time": 770, "pitch": 62, "duration": 6, "velocity": 102}, {"time": 776, "pitch": 64, "duration": 6, "velocity": 70}, {"time": 782, "pitch": 55, "duration": 27, "velocity": 89}, {"time": 818, "pitch": 62, "duration": 6, "velocity": 100}, {"time": 824, "pitch": 64, "duration": 6, "velocity": 85}, {"time": 830, "pitch": 69, "duration": 6, "velocity": 100}, {"time": 836, "pitch": 72, "duration": 18, "velocity": 107}, {"time": 884, "pitch": 72, "duration": 6, "velocity": 92}, {"time": 890, "pitch": 69, "duration": 6, "velocity": 90}, {"time": 896, "pitch": 74, "duration": 26, "velocity": 102}, {"time": 968, "pitch": 67, "duration": 11, "velocity": 112}, {"time": 980, "pitch": 67, "duration": 12, "velocity": 102}, {"time": 992, "pitch": 71, "duration": 12, "velocity": 122}, {"time": 1004, "pitch": 72, "duration": 31, "velocity": 117}, {"time": 1094, "pitch": 67, "duration": 7, "velocity": 97}, {"time": 1100, "pitch": 65, "duration": 29, "velocity": 95}, {"time": 1172, "pitch": 67, "duration": 13, "velocity": 107}, {"time": 1184, "pitch": 65, "duration": 13, "velocity": 102}, {"time": 1196, "pitch": 64, "duration": 34, "velocity": 112}, {"time": 1256, "pitch": 71, "duration": 12, "velocity": 107}, {"time": 1268, "pitch": 67, "duration": 12, "velocity": 97}, {"time": 1280, "pitch": 64, "duration": 9, "velocity": 97}, {"time": 1289, "pitch": 65, "duration": 3, "velocity": 89}, {"time": 1292, "pitch": 67, "duration": 7, "velocity": 93}, {"time": 1298, "pitch": 70, "duration": 6, "velocity": 107}, {"time": 1304, "pitch": 77, "duration": 7, "velocity": 88}, {"time": 1310, "pitch": 75, "duration": 7, "velocity": 102}, {"time": 1316, "pitch": 70, "duration": 20, "velocity": 107}, {"time": 1340, "pitch": 67, "duration": 7, "velocity": 100}, {"time": 1346, "pitch": 69, "duration": 7, "velocity": 93}, {"time": 1352, "pitch": 72, "duration": 10, "velocity": 97}, {"time": 1364, "pitch": 71, "duration": 24, "velocity": 99}, {"time": 1388, "pitch": 76, "duration": 4, "velocity": 122}, {"time": 1391, "pitch": 77, "duration": 3, "velocity": 85}, {"time": 1394, "pitch": 72, "duration": 3, "velocity": 99}, {"time": 1397, "pitch": 76, "duration": 4, "velocity": 100}, {"time": 1400, "pitch": 77, "duration": 3, "velocity": 96}, {"time": 1403, "pitch": 76, "duration": 3, "velocity": 95}, {"time": 1406, "pitch": 77, "duration": 3, "velocity": 97}, {"time": 1409, "pitch": 72, "duration": 3, "velocity": 85}, {"time": 1412, "pitch": 76, "duration": 3, "velocity": 78}, {"time": 1415, "pitch": 77, "duration": 3, "velocity": 97}, {"time": 1418, "pitch": 76, "duration": 3, "velocity": 99}, {"time": 1421, "pitch": 77, "duration": 3, "velocity": 89}, {"time": 1424, "pitch": 72, "duration": 3, "velocity": 82}, {"time": 1427, "pitch": 76, "duration": 3, "velocity": 102}, {"time": 1430, "pitch": 77, "duration": 2, "velocity": 107}, {"time": 1436, "pitch": 74, "duration": 6, "velocity": 117}, {"time": 1442, "pitch": 70, "duration": 2, "velocity": 122}, {"time": 1445, "pitch": 70, "duration": 1, "velocity": 97}, {"time": 1448, "pitch": 70, "duration": 6, "velocity": 127}, {"time": 1454, "pitch": 74, "duration": 3, "velocity": 117}, {"time": 1457, "pitch": 76, "duration": 3, "velocity": 89}, {"time": 1460, "pitch": 72, "duration": 4, "velocity": 112}, {"time": 1463, "pitch": 70, "duration": 3, "velocity": 107}, {"time": 1469, "pitch": 74, "duration": 3, "velocity": 100}, {"time": 1472, "pitch": 75, "duration": 4, "velocity": 122}, {"time": 1478, "pitch": 77, "duration": 3, "velocity": 127}, {"time": 1481, "pitch": 75, "duration": 2, "velocity": 112}, {"time": 1484, "pitch": 79, "duration": 13, "velocity": 122}, {"time": 1499, "pitch": 72, "duration": 7, "velocity": 112}, {"time": 1505, "pitch": 75, "duration": 5, "velocity": 127}, {"time": 1511, "pitch": 72, "duration": 3, "velocity": 95}, {"time": 1514, "pitch": 75, "duration": 3, "velocity": 122}, {"time": 1517, "pitch": 72, "duration": 3, "velocity": 96}, {"time": 1520, "pitch": 75, "duration": 2, "velocity": 127}, {"time": 1523, "pitch": 72, "duration": 8, "velocity": 122}, {"time": 1529, "pitch": 76, "duration": 3, "velocity": 71}, {"time": 1532, "pitch": 77, "duration": 3, "velocity": 86}, {"time": 1535, "pitch": 72, "duration": 3, "velocity": 73}, {"time": 1538, "pitch": 76, "duration": 3, "velocity": 58}, {"time": 1541, "pitch": 77, "duration": 2, "velocity": 81}, {"time": 1544, "pitch": 76, "duration": 3, "velocity": 88}, {"time": 1547, "pitch": 77, "duration": 3, "velocity": 65}, {"time": 1550, "pitch": 72, "duration": 3, "velocity": 53}, {"time": 1553, "pitch": 76, "duration": 3, "velocity": 56}, {"time": 1556, "pitch": 77, "duration": 3, "velocity": 70}, {"time": 1586, "pitch": 67, "duration": 7, "velocity": 81}, {"time": 1592, "pitch": 74, "duration": 6, "velocity": 65}, {"time": 1598, "pitch": 67, "duration": 6, "velocity": 79}, {"time": 1604, "pitch": 76, "duration": 20, "velocity": 92}, {"time": 1730, "pitch": 67, "duration": 6, "velocity": 100}, {"time": 1736, "pitch": 72, "duration": 7, "velocity": 112}, {"time": 1742, "pitch": 67, "duration": 6, "velocity": 99}, {"time": 1748, "pitch": 65, "duration": 12, "velocity": 100}, {"time": 1760, "pitch": 65, "duration": 3, "velocity": 127}, {"time": 1763, "pitch": 67, "duration": 9, "velocity": 92}, {"time": 1772, "pitch": 64, "duration": 18, "velocity": 112}, {"time": 1850, "pitch": 72, "duration": 6, "velocity": 92}, {"time": 1856, "pitch": 69, "duration": 6, "velocity": 90}, {"time": 1862, "pitch": 74, "duration": 26, "velocity": 102}, {"time": 1934, "pitch": 67, "duration": 11, "velocity": 112}, {"time": 1946, "pitch": 67, "duration": 12, "velocity": 102}, {"time": 1958, "pitch": 71, "duration": 12, "velocity": 122}, {"time": 1970, "pitch": 72, "duration": 31, "velocity": 117}, {"time": 2060, "pitch": 67, "duration": 7, "velocity": 97}, {"time": 2066, "pitch": 65, "duration": 29, "velocity": 95}, {"time": 2138, "pitch": 67, "duration": 13, "velocity": 107}, {"time": 2150, "pitch": 65, "duration": 13, "velocity": 102}, {"time": 2162, "pitch": 64, "duration": 34, "velocity": 112}, {"time": 2222, "pitch": 71, "duration": 12, "velocity": 107}, {"time": 2234, "pitch": 67, "duration": 12, "velocity": 97}, {"time": 2246, "pitch": 64, "duration": 9, "velocity": 97}, {"time": 2255, "pitch": 65, "duration": 3, "velocity": 89}, {"time": 2258, "pitch": 67, "duration": 7, "velocity": 93}, {"time": 2264, "pitch": 70, "duration": 6, "velocity": 107}, {"time": 2270, "pitch": 77, "duration": 7, "velocity": 88}, {"time": 2276, "pitch": 75, "duration": 7, "velocity": 102}, {"time": 2282, "pitch": 70, "duration": 20, "velocity": 107}, {"time": 2306, "pitch": 67, "duration": 7, "velocity": 100}, {"time": 2312, "pitch": 69, "duration": 7, "velocity": 93}, {"time": 2318, "pitch": 72, "duration": 10, "velocity": 97}, {"time": 2330, "pitch": 71, "duration": 22, "velocity": 99}, {"time": 2366, "pitch": 72, "duration": 19, "velocity": 112}, {"time": 2366, "pitch": 84, "duration": 19, "velocity": 97}, {"time": 2390, "pitch": 72, "duration": 6, "velocity": 102}, {"time": 2390, "pitch": 84, "duration": 6, "velocity": 95}, {"time": 2414, "pitch": 72, "duration": 10, "velocity": 107}, {"time": 2414, "pitch": 84, "duration": 10, "velocity": 93}, {"time": 2453, "pitch": 72, "duration": 3, "velocity": 100}, {"time": 2453, "pitch": 84, "duration": 3, "velocity": 90}, {"time": 2459, "pitch": 72, "duration": 7, "velocity": 102}, {"time": 2459, "pitch": 84, "duration": 7, "velocity": 97}, {"time": 2489, "pitch": 43, "duration": 2, "velocity": 112}, {"time": 2492, "pitch": 48, "duration": 6, "velocity": 96}, {"time": 2498, "pitch": 50, "duration": 5, "velocity": 107}, {"time": 2504, "pitch": 52, "duration": 5, "velocity": 112}, {"time": 2510, "pitch": 53, "duration": 5, "velocity": 122}, {"time": 2516, "pitch": 52, "duration": 6, "velocity": 127}, {"time": 2522, "pitch": 50, "duration": 6, "velocity": 127}, {"time": 2528, "pitch": 45, "duration": 21, "velocity": 112}, {"time": 2603, "pitch": 81, "duration": 3, "velocity": 81}, {"time": 2606, "pitch": 84, "duration": 4, "velocity": 100}, {"time": 2609, "pitch": 81, "duration": 3, "velocity": 83}, {"time": 2612, "pitch": 88, "duration": 4, "velocity": 96}, {"time": 2615, "pitch": 81, "duration": 3, "velocity": 63}, {"time": 2618, "pitch": 84, "duration": 3, "velocity": 96}, {"time": 2621, "pitch": 81, "duration": 4, "velocity": 65}, {"time": 2624, "pitch": 86, "duration": 3, "velocity": 90}, {"time": 2627, "pitch": 81, "duration": 4, "velocity": 53}, {"time": 2630, "pitch": 84, "duration": 3, "velocity": 83}, {"time": 2633, "pitch": 81, "duration": 1, "velocity": 73}, {"time": 2636, "pitch": 83, "duration": 3, "velocity": 81}, {"time": 2639, "pitch": 79, "duration": 4, "velocity": 74}, {"time": 2642, "pitch": 83, "duration": 4, "velocity": 86}, {"time": 2645, "pitch": 79, "duration": 4, "velocity": 77}, {"time": 2648, "pitch": 86, "duration": 3, "velocity": 107}, {"time": 2651, "pitch": 79, "duration": 3, "velocity": 74}, {"time": 2654, "pitch": 83, "duration": 3, "velocity": 90}, {"time": 2657, "pitch": 79, "duration": 4, "velocity": 55}, {"time": 2660, "pitch": 86, "duration": 2, "velocity": 107}, {"time": 2663, "pitch": 83, "duration": 4, "velocity": 82}, {"time": 2666, "pitch": 86, "duration": 4, "velocity": 99}, {"time": 2669, "pitch": 83, "duration": 3, "velocity": 95}, {"time": 2672, "pitch": 79, "duration": 4, "velocity": 117}, {"time": 2684, "pitch": 71, "duration": 6, "velocity": 122}, {"time": 2684, "pitch": 74, "duration": 6, "velocity": 102}, {"time": 2690, "pitch": 67, "duration": 4, "velocity": 93}, {"time": 2696, "pitch": 69, "duration": 6, "velocity": 112}, {"time": 2696, "pitch": 72, "duration": 6, "velocity": 100}, {"time": 2702, "pitch": 67, "duration": 4, "velocity": 97}, {"time": 2708, "pitch": 74, "duration": 8, "velocity": 107}, {"time": 2816, "pitch": 67, "duration": 7, "velocity": 97}, {"time": 2822, "pitch": 65, "duration": 29, "velocity": 95}, {"time": 2894, "pitch": 67, "duration": 13, "velocity": 107}, {"time": 2906, "pitch": 65, "duration": 13, "velocity": 102}, {"time": 2918, "pitch": 64, "duration": 34, "velocity": 112}, {"time": 2978, "pitch": 71, "duration": 12, "velocity": 107}, {"time": 2990, "pitch": 67, "duration": 12, "velocity": 97}, {"time": 3002, "pitch": 64, "duration": 9, "velocity": 97}, {"time": 3011, "pitch": 65, "duration": 3, "velocity": 89}, {"time": 3014, "pitch": 67, "duration": 7, "velocity": 93}, {"time": 3020, "pitch": 70, "duration": 6, "velocity": 107}, {"time": 3026, "pitch": 77, "duration": 7, "velocity": 88}, {"time": 3032, "pitch": 75, "duration": 7, "velocity": 102}, {"time": 3038, "pitch": 70, "duration": 20, "velocity": 107}, {"time": 3062, "pitch": 67, "duration": 7, "velocity": 100}, {"time": 3068, "pitch": 69, "duration": 7, "velocity": 93}, {"time": 3074, "pitch": 72, "duration": 10, "velocity": 97}, {"time": 3086, "pitch": 71, "duration": 22, "velocity": 99}]}, {"program": 0, "is_drum": false, "name": "PIANO", "notes": [{"time": 236, "pitch": 36, "duration": 28, "velocity": 37}, {"time": 236, "pitch": 48, "duration": 27, "velocity": 44}, {"time": 236, "pitch": 55, "duration": 29, "velocity": 63}, {"time": 236, "pitch": 60, "duration": 29, "velocity": 62}, {"time": 236, "pitch": 64, "duration": 30, "velocity": 59}, {"time": 284, "pitch": 41, "duration": 35, "velocity": 54}, {"time": 284, "pitch": 53, "duration": 34, "velocity": 53}, {"time": 284, "pitch": 57, "duration": 35, "velocity": 53}, {"time": 284, "pitch": 60, "duration": 34, "velocity": 58}, {"time": 284, "pitch": 65, "duration": 34, "velocity": 48}, {"time": 332, "pitch": 46, "duration": 32, "velocity": 62}, {"time": 332, "pitch": 53, "duration": 34, "velocity": 50}, {"time": 332, "pitch": 58, "duration": 35, "velocity": 56}, {"time": 332, "pitch": 62, "duration": 35, "velocity": 50}, {"time": 332, "pitch": 65, "duration": 35, "velocity": 42}, {"time": 380, "pitch": 36, "duration": 31, "velocity": 58}, {"time": 380, "pitch": 48, "duration": 30, "velocity": 62}, {"time": 380, "pitch": 55, "duration": 30, "velocity": 67}, {"time": 380, "pitch": 60, "duration": 31, "velocity": 66}, {"time": 380, "pitch": 64, "duration": 31, "velocity": 59}, {"time": 428, "pitch": 45, "duration": 12, "velocity": 52}, {"time": 428, "pitch": 52, "duration": 10, "velocity": 51}, {"time": 428, "pitch": 57, "duration": 12, "velocity": 63}, {"time": 428, "pitch": 60, "duration": 12, "velocity": 66}, {"time": 428, "pitch": 64, "duration": 12, "velocity": 63}, {"time": 476, "pitch": 38, "duration": 29, "velocity": 52}, {"time": 476, "pitch": 45, "duration": 29, "velocity": 54}, {"time": 476, "pitch": 50, "duration": 29, "velocity": 47}, {"time": 476, "pitch": 57, "duration": 30, "velocity": 55}, {"time": 476, "pitch": 62, "duration": 30, "velocity": 58}, {"time": 476, "pitch": 65, "duration": 31, "velocity": 58}, {"time": 524, "pitch": 41, "duration": 11, "velocity": 44}, {"time": 524, "pitch": 48, "duration": 11, "velocity": 44}, {"time": 524, "pitch": 53, "duration": 11, "velocity": 59}, {"time": 524, "pitch": 57, "duration": 13, "velocity": 66}, {"time": 524, "pitch": 60, "duration": 13, "velocity": 64}, {"time": 548, "pitch": 43, "duration": 13, "velocity": 65}, {"time": 548, "pitch": 55, "duration": 13, "velocity": 58}, {"time": 548, "pitch": 59, "duration": 13, "velocity": 67}, {"time": 548, "pitch": 62, "duration": 12, "velocity": 67}, {"time": 572, "pitch": 36, "duration": 21, "velocity": 63}, {"time": 572, "pitch": 48, "duration": 20, "velocity": 61}, {"time": 572, "pitch": 55, "duration": 21, "velocity": 68}, {"time": 572, "pitch": 60, "duration": 21, "velocity": 67}, {"time": 572, "pitch": 64, "duration": 21, "velocity": 64}, {"time": 620, "pitch": 36, "duration": 40, "velocity": 65}, {"time": 620, "pitch": 60, "duration": 10, "velocity": 60}, {"time": 620, "pitch": 64, "duration": 10, "velocity": 58}, {"time": 629, "pitch": 48, "duration": 5, "velocity": 37}, {"time": 632, "pitch": 60, "duration": 7, "velocity": 69}, {"time": 632, "pitch": 64, "duration": 7, "velocity": 67}, {"time": 638, "pitch": 48, "duration": 12, "velocity": 41}, {"time": 644, "pitch": 55, "duration": 11, "velocity": 63}, {"time": 644, "pitch": 60, "duration": 10, "velocity": 69}, {"time": 656, "pitch": 60, "duration": 7, "velocity": 90}, {"time": 659, "pitch": 48, "duration": 2, "velocity": 44}, {"time": 662, "pitch": 55, "duration": 5, "velocity": 53}, {"time": 668, "pitch": 41, "duration": 40, "velocity": 69}, {"time": 677, "pitch": 48, "duration": 6, "velocity": 65}, {"time": 680, "pitch": 57, "duration": 23, "velocity": 77}, {"time": 680, "pitch": 60, "duration": 23, "velocity": 73}, {"time": 686, "pitch": 48, "duration": 8, "velocity": 58}, {"time": 692, "pitch": 53, "duration": 11, "velocity": 83}, {"time": 704, "pitch": 57, "duration": 6, "velocity": 77}, {"time": 704, "pitch": 60, "duration": 6, "velocity": 79}, {"time": 710, "pitch": 53, "duration": 4, "velocity": 42}, {"time": 716, "pitch": 46, "duration": 23, "velocity": 86}, {"time": 716, "pitch": 58, "duration": 11, "velocity": 72}, {"time": 716, "pitch": 62, "duration": 8, "velocity": 72}, {"time": 725, "pitch": 53, "duration": 4, "velocity": 49}, {"time": 728, "pitch": 58, "duration": 18, "velocity": 93}, {"time": 728, "pitch": 62, "duration": 19, "velocity": 93}, {"time": 734, "pitch": 53, "duration": 10, "velocity": 54}, {"time": 740, "pitch": 46, "duration": 13, "velocity": 59}, {"time": 746, "pitch": 53, "duration": 7, "velocity": 56}, {"time": 752, "pitch": 58, "duration": 7, "velocity": 100}, {"time": 752, "pitch": 62, "duration": 5, "velocity": 93}, {"time": 758, "pitch": 53, "duration": 1, "velocity": 32}, {"time": 764, "pitch": 36, "duration": 39, "velocity": 69}, {"time": 764, "pitch": 55, "duration": 10, "velocity": 65}, {"time": 764, "pitch": 60, "duration": 10, "velocity": 66}, {"time": 764, "pitch": 64, "duration": 10, "velocity": 62}, {"time": 773, "pitch": 48, "duration": 6, "velocity": 57}, {"time": 776, "pitch": 60, "duration": 7, "velocity": 77}, {"time": 776, "pitch": 64, "duration": 23, "velocity": 85}, {"time": 782, "pitch": 55, "duration": 17, "velocity": 68}, {"time": 797, "pitch": 48, "duration": 4, "velocity": 38}, {"time": 800, "pitch": 62, "duration": 6, "velocity": 100}, {"time": 803, "pitch": 48, "duration": 3, "velocity": 34}, {"time": 806, "pitch": 60, "duration": 8, "velocity": 55}, {"time": 812, "pitch": 45, "duration": 37, "velocity": 72}, {"time": 818, "pitch": 52, "duration": 9, "velocity": 33}, {"time": 821, "pitch": 57, "duration": 3, "velocity": 60}, {"time": 824, "pitch": 60, "duration": 22, "velocity": 81}, {"time": 824, "pitch": 64, "duration": 20, "velocity": 95}, {"time": 830, "pitch": 57, "duration": 16, "velocity": 73}, {"time": 836, "pitch": 52, "duration": 12, "velocity": 59}, {"time": 848, "pitch": 60, "duration": 10, "velocity": 90}, {"time": 848, "pitch": 64, "duration": 6, "velocity": 83}, {"time": 854, "pitch": 57, "duration": 4, "velocity": 50}, {"time": 860, "pitch": 38, "duration": 40, "velocity": 72}, {"time": 860, "pitch": 57, "duration": 10, "velocity": 83}, {"time": 860, "pitch": 62, "duration": 11, "velocity": 89}, {"time": 860, "pitch": 66, "duration": 11, "velocity": 93}, {"time": 869, "pitch": 50, "duration": 5, "velocity": 40}, {"time": 872, "pitch": 62, "duration": 22, "velocity": 73}, {"time": 872, "pitch": 66, "duration": 22, "velocity": 88}, {"time": 878, "pitch": 57, "duration": 15, "velocity": 69}, {"time": 884, "pitch": 50, "duration": 13, "velocity": 60}, {"time": 893, "pitch": 57, "duration": 3, "velocity": 59}, {"time": 896, "pitch": 62, "duration": 7, "velocity": 88}, {"time": 896, "pitch": 66, "duration": 6, "velocity": 97}, {"time": 902, "pitch": 57, "duration": 1, "velocity": 64}, {"time": 908, "pitch": 41, "duration": 22, "velocity": 71}, {"time": 908, "pitch": 53, "duration": 8, "velocity": 71}, {"time": 908, "pitch": 57, "duration": 8, "velocity": 66}, {"time": 908, "pitch": 60, "duration": 8, "velocity": 71}, {"time": 914, "pitch": 48, "duration": 5, "velocity": 58}, {"time": 917, "pitch": 57, "duration": 10, "velocity": 69}, {"time": 917, "pitch": 60, "duration": 13, "velocity": 85}, {"time": 926, "pitch": 53, "duration": 15, "velocity": 58}, {"time": 932, "pitch": 41, "duration": 13, "velocity": 59}, {"time": 932, "pitch": 57, "duration": 11, "velocity": 70}, {"time": 932, "pitch": 60, "duration": 11, "velocity": 75}, {"time": 944, "pitch": 57, "duration": 2, "velocity": 88}, {"time": 944, "pitch": 60, "duration": 3, "velocity": 74}, {"time": 956, "pitch": 43, "duration": 21, "velocity": 72}, {"time": 962, "pitch": 50, "duration": 6, "velocity": 69}, {"time": 965, "pitch": 62, "duration": 25, "velocity": 95}, {"time": 971, "pitch": 50, "duration": 9, "velocity": 54}, {"time": 974, "pitch": 59, "duration": 17, "velocity": 82}, {"time": 980, "pitch": 43, "duration": 14, "velocity": 73}, {"time": 980, "pitch": 55, "duration": 10, "velocity": 74}, {"time": 992, "pitch": 59, "duration": 8, "velocity": 97}, {"time": 992, "pitch": 62, "duration": 6, "velocity": 97}, {"time": 1004, "pitch": 36, "duration": 43, "velocity": 85}, {"time": 1004, "pitch": 55, "duration": 7, "velocity": 96}, {"time": 1004, "pitch": 60, "duration": 8, "velocity": 107}, {"time": 1004, "pitch": 64, "duration": 9, "velocity": 95}, {"time": 1010, "pitch": 48, "duration": 7, "velocity": 65}, {"time": 1013, "pitch": 55, "duration": 4, "velocity": 76}, {"time": 1016, "pitch": 64, "duration": 22, "velocity": 97}, {"time": 1022, "pitch": 55, "duration": 17, "velocity": 56}, {"time": 1025, "pitch": 60, "duration": 13, "velocity": 73}, {"time": 1028, "pitch": 48, "duration": 13, "velocity": 61}, {"time": 1040, "pitch": 60, "duration": 7, "velocity": 107}, {"time": 1040, "pitch": 64, "duration": 7, "velocity": 96}, {"time": 1043, "pitch": 48, "duration": 3, "velocity": 52}, {"time": 1046, "pitch": 55, "duration": 3, "velocity": 76}, {"time": 1052, "pitch": 47, "duration": 37, "velocity": 69}, {"time": 1052, "pitch": 52, "duration": 10, "velocity": 88}, {"time": 1052, "pitch": 55, "duration": 11, "velocity": 79}, {"time": 1052, "pitch": 59, "duration": 11, "velocity": 81}, {"time": 1064, "pitch": 59, "duration": 21, "velocity": 97}, {"time": 1070, "pitch": 52, "duration": 16, "velocity": 57}, {"time": 1073, "pitch": 55, "duration": 13, "velocity": 86}, {"time": 1088, "pitch": 59, "duration": 6, "velocity": 112}, {"time": 1091, "pitch": 47, "duration": 1, "velocity": 69}, {"time": 1100, "pitch": 38, "duration": 41, "velocity": 73}, {"time": 1100, "pitch": 57, "duration": 9, "velocity": 89}, {"time": 1100, "pitch": 62, "duration": 10, "velocity": 95}, {"time": 1100, "pitch": 65, "duration": 10, "velocity": 92}, {"time": 1106, "pitch": 50, "duration": 14, "velocity": 56}, {"time": 1112, "pitch": 65, "duration": 22, "velocity": 96}, {"time": 1118, "pitch": 57, "duration": 17, "velocity": 42}, {"time": 1121, "pitch": 62, "duration": 13, "velocity": 78}, {"time": 1124, "pitch": 50, "duration": 13, "velocity": 59}, {"time": 1136, "pitch": 62, "duration": 6, "velocity": 96}, {"time": 1136, "pitch": 65, "duration": 6, "velocity": 95}, {"time": 1142, "pitch": 57, "duration": 2, "velocity": 74}, {"time": 1148, "pitch": 41, "duration": 16, "velocity": 76}, {"time": 1148, "pitch": 53, "duration": 8, "velocity": 78}, {"time": 1148, "pitch": 56, "duration": 9, "velocity": 85}, {"time": 1148, "pitch": 60, "duration": 9, "velocity": 77}, {"time": 1154, "pitch": 48, "duration": 6, "velocity": 50}, {"time": 1160, "pitch": 56, "duration": 6, "velocity": 107}, {"time": 1160, "pitch": 60, "duration": 6, "velocity": 93}, {"time": 1163, "pitch": 48, "duration": 1, "velocity": 79}, {"time": 1166, "pitch": 53, "duration": 2, "velocity": 78}, {"time": 1172, "pitch": 43, "duration": 11, "velocity": 69}, {"time": 1172, "pitch": 55, "duration": 9, "velocity": 86}, {"time": 1172, "pitch": 59, "duration": 9, "velocity": 86}, {"time": 1172, "pitch": 62, "duration": 9, "velocity": 81}, {"time": 1184, "pitch": 59, "duration": 5, "velocity": 90}, {"time": 1184, "pitch": 62, "duration": 5, "velocity": 86}, {"time": 1196, "pitch": 36, "duration": 40, "velocity": 71}, {"time": 1196, "pitch": 55, "duration": 8, "velocity": 89}, {"time": 1196, "pitch": 60, "duration": 7, "velocity": 93}, {"time": 1196, "pitch": 64, "duration": 7, "velocity": 85}, {"time": 1202, "pitch": 48, "duration": 9, "velocity": 76}, {"time": 1208, "pitch": 64, "duration": 21, "velocity": 102}, {"time": 1214, "pitch": 48, "duration": 10, "velocity": 61}, {"time": 1214, "pitch": 55, "duration": 15, "velocity": 58}, {"time": 1220, "pitch": 60, "duration": 7, "velocity": 88}, {"time": 1232, "pitch": 64, "duration": 6, "velocity": 99}, {"time": 1238, "pitch": 55, "duration": 1, "velocity": 44}, {"time": 1244, "pitch": 40, "duration": 37, "velocity": 71}, {"time": 1244, "pitch": 52, "duration": 7, "velocity": 85}, {"time": 1244, "pitch": 55, "duration": 8, "velocity": 89}, {"time": 1244, "pitch": 59, "duration": 8, "velocity": 85}, {"time": 1250, "pitch": 47, "duration": 7, "velocity": 55}, {"time": 1256, "pitch": 59, "duration": 22, "velocity": 96}, {"time": 1262, "pitch": 52, "duration": 16, "velocity": 50}, {"time": 1265, "pitch": 55, "duration": 13, "velocity": 88}, {"time": 1268, "pitch": 47, "duration": 13, "velocity": 60}, {"time": 1280, "pitch": 55, "duration": 4, "velocity": 97}, {"time": 1280, "pitch": 59, "duration": 4, "velocity": 97}, {"time": 1292, "pitch": 39, "duration": 39, "velocity": 97}, {"time": 1292, "pitch": 55, "duration": 8, "velocity": 79}, {"time": 1292, "pitch": 58, "duration": 10, "velocity": 100}, {"time": 1292, "pitch": 63, "duration": 8, "velocity": 92}, {"time": 1298, "pitch": 51, "duration": 15, "velocity": 54}, {"time": 1304, "pitch": 58, "duration": 18, "velocity": 97}, {"time": 1304, "pitch": 63, "duration": 19, "velocity": 117}, {"time": 1310, "pitch": 55, "duration": 10, "velocity": 73}, {"time": 1316, "pitch": 51, "duration": 13, "velocity": 69}, {"time": 1322, "pitch": 55, "duration": 2, "velocity": 48}, {"time": 1325, "pitch": 55, "duration": 7, "velocity": 57}, {"time": 1328, "pitch": 63, "duration": 6, "velocity": 112}, {"time": 1340, "pitch": 38, "duration": 14, "velocity": 70}, {"time": 1340, "pitch": 57, "duration": 8, "velocity": 89}, {"time": 1340, "pitch": 62, "duration": 8, "velocity": 96}, {"time": 1340, "pitch": 66, "duration": 8, "velocity": 97}, {"time": 1346, "pitch": 50, "duration": 7, "velocity": 39}, {"time": 1352, "pitch": 62, "duration": 6, "velocity": 100}, {"time": 1352, "pitch": 66, "duration": 6, "velocity": 112}, {"time": 1358, "pitch": 57, "duration": 1, "velocity": 69}, {"time": 1364, "pitch": 43, "duration": 16, "velocity": 70}, {"time": 1364, "pitch": 55, "duration": 7, "velocity": 93}, {"time": 1364, "pitch": 59, "duration": 8, "velocity": 93}, {"time": 1364, "pitch": 62, "duration": 8, "velocity": 93}, {"time": 1370, "pitch": 50, "duration": 8, "velocity": 47}, {"time": 1376, "pitch": 59, "duration": 8, "velocity": 92}, {"time": 1376, "pitch": 62, "duration": 6, "velocity": 92}, {"time": 1388, "pitch": 36, "duration": 46, "velocity": 72}, {"time": 1388, "pitch": 55, "duration": 7, "velocity": 89}, {"time": 1388, "pitch": 60, "duration": 10, "velocity": 90}, {"time": 1388, "pitch": 64, "duration": 10, "velocity": 82}, {"time": 1394, "pitch": 48, "duration": 7, "velocity": 72}, {"time": 1397, "pitch": 55, "duration": 1, "velocity": 34}, {"time": 1400, "pitch": 55, "duration": 7, "velocity": 99}, {"time": 1400, "pitch": 60, "duration": 7, "velocity": 122}, {"time": 1400, "pitch": 64, "duration": 7, "velocity": 107}, {"time": 1406, "pitch": 48, "duration": 6, "velocity": 95}, {"time": 1409, "pitch": 55, "duration": 4, "velocity": 86}, {"time": 1409, "pitch": 60, "duration": 5, "velocity": 92}, {"time": 1409, "pitch": 64, "duration": 4, "velocity": 83}, {"time": 1412, "pitch": 48, "duration": 4, "velocity": 63}, {"time": 1415, "pitch": 55, "duration": 6, "velocity": 81}, {"time": 1415, "pitch": 60, "duration": 6, "velocity": 100}, {"time": 1415, "pitch": 64, "duration": 6, "velocity": 99}, {"time": 1421, "pitch": 48, "duration": 3, "velocity": 117}, {"time": 1424, "pitch": 55, "duration": 3, "velocity": 100}, {"time": 1424, "pitch": 60, "duration": 4, "velocity": 117}, {"time": 1424, "pitch": 64, "duration": 4, "velocity": 122}, {"time": 1427, "pitch": 48, "duration": 7, "velocity": 112}, {"time": 1430, "pitch": 60, "duration": 4, "velocity": 127}, {"time": 1430, "pitch": 64, "duration": 4, "velocity": 127}, {"time": 1433, "pitch": 55, "duration": 1, "velocity": 77}, {"time": 1436, "pitch": 48, "duration": 7, "velocity": 127}, {"time": 1436, "pitch": 55, "duration": 5, "velocity": 96}, {"time": 1436, "pitch": 60, "duration": 5, "velocity": 117}, {"time": 1436, "pitch": 64, "duration": 4, "velocity": 97}, {"time": 1442, "pitch": 46, "duration": 2, "velocity": 88}, {"time": 1442, "pitch": 53, "duration": 2, "velocity": 88}, {"time": 1442, "pitch": 58, "duration": 2, "velocity": 83}, {"time": 1442, "pitch": 62, "duration": 2, "velocity": 88}, {"time": 1445, "pitch": 46, "duration": 2, "velocity": 112}, {"time": 1445, "pitch": 53, "duration": 2, "velocity": 69}, {"time": 1445, "pitch": 58, "duration": 2, "velocity": 89}, {"time": 1445, "pitch": 62, "duration": 2, "velocity": 77}, {"time": 1448, "pitch": 46, "duration": 18, "velocity": 127}, {"time": 1448, "pitch": 53, "duration": 8, "velocity": 107}, {"time": 1448, "pitch": 58, "duration": 6, "velocity": 127}, {"time": 1448, "pitch": 62, "duration": 8, "velocity": 97}, {"time": 1454, "pitch": 58, "duration": 2, "velocity": 63}, {"time": 1457, "pitch": 53, "duration": 4, "velocity": 96}, {"time": 1457, "pitch": 58, "duration": 4, "velocity": 117}, {"time": 1457, "pitch": 62, "duration": 4, "velocity": 99}, {"time": 1463, "pitch": 58, "duration": 6, "velocity": 117}, {"time": 1463, "pitch": 62, "duration": 6, "velocity": 97}, {"time": 1466, "pitch": 53, "duration": 3, "velocity": 48}, {"time": 1469, "pitch": 46, "duration": 4, "velocity": 99}, {"time": 1472, "pitch": 53, "duration": 4, "velocity": 93}, {"time": 1472, "pitch": 58, "duration": 4, "velocity": 117}, {"time": 1472, "pitch": 62, "duration": 4, "velocity": 99}, {"time": 1475, "pitch": 46, "duration": 7, "velocity": 122}, {"time": 1478, "pitch": 58, "duration": 4, "velocity": 127}, {"time": 1478, "pitch": 62, "duration": 4, "velocity": 107}, {"time": 1484, "pitch": 36, "duration": 19, "velocity": 75}, {"time": 1484, "pitch": 48, "duration": 13, "velocity": 100}, {"time": 1484, "pitch": 55, "duration": 4, "velocity": 97}, {"time": 1484, "pitch": 60, "duration": 7, "velocity": 102}, {"time": 1484, "pitch": 64, "duration": 7, "velocity": 96}, {"time": 1490, "pitch": 55, "duration": 2, "velocity": 90}, {"time": 1493, "pitch": 55, "duration": 1, "velocity": 61}, {"time": 1493, "pitch": 60, "duration": 1, "velocity": 76}, {"time": 1493, "pitch": 64, "duration": 1, "velocity": 70}, {"time": 1496, "pitch": 55, "duration": 7, "velocity": 112}, {"time": 1496, "pitch": 60, "duration": 7, "velocity": 107}, {"time": 1496, "pitch": 64, "duration": 7, "velocity": 97}, {"time": 1502, "pitch": 48, "duration": 1, "velocity": 93}, {"time": 1505, "pitch": 36, "duration": 9, "velocity": 89}, {"time": 1505, "pitch": 55, "duration": 4, "velocity": 122}, {"time": 1505, "pitch": 60, "duration": 4, "velocity": 107}, {"time": 1505, "pitch": 64, "duration": 4, "velocity": 95}, {"time": 1511, "pitch": 55, "duration": 7, "velocity": 97}, {"time": 1511, "pitch": 60, "duration": 7, "velocity": 107}, {"time": 1511, "pitch": 64, "duration": 7, "velocity": 97}, {"time": 1517, "pitch": 36, "duration": 1, "velocity": 86}, {"time": 1517, "pitch": 48, "duration": 1, "velocity": 95}, {"time": 1520, "pitch": 36, "duration": 8, "velocity": 93}, {"time": 1520, "pitch": 48, "duration": 11, "velocity": 107}, {"time": 1520, "pitch": 55, "duration": 4, "velocity": 100}, {"time": 1520, "pitch": 60, "duration": 4, "velocity": 97}, {"time": 1520, "pitch": 64, "duration": 4, "velocity": 96}, {"time": 1526, "pitch": 55, "duration": 1, "velocity": 95}, {"time": 1526, "pitch": 57, "duration": 1, "velocity": 83}, {"time": 1526, "pitch": 60, "duration": 3, "velocity": 127}, {"time": 1526, "pitch": 64, "duration": 3, "velocity": 107}, {"time": 1529, "pitch": 55, "duration": 1, "velocity": 67}, {"time": 1532, "pitch": 36, "duration": 23, "velocity": 71}, {"time": 1532, "pitch": 48, "duration": 18, "velocity": 92}, {"time": 1532, "pitch": 55, "duration": 12, "velocity": 82}, {"time": 1532, "pitch": 60, "duration": 12, "velocity": 81}, {"time": 1532, "pitch": 64, "duration": 4, "velocity": 76}, {"time": 1538, "pitch": 64, "duration": 5, "velocity": 51}, {"time": 1544, "pitch": 55, "duration": 4, "velocity": 39}, {"time": 1544, "pitch": 60, "duration": 4, "velocity": 51}, {"time": 1544, "pitch": 64, "duration": 4, "velocity": 48}, {"time": 1550, "pitch": 48, "duration": 5, "velocity": 45}, {"time": 1550, "pitch": 55, "duration": 4, "velocity": 43}, {"time": 1550, "pitch": 60, "duration": 4, "velocity": 48}, {"time": 1550, "pitch": 64, "duration": 4, "velocity": 45}, {"time": 1556, "pitch": 36, "duration": 4, "velocity": 55}, {"time": 1556, "pitch": 48, "duration": 4, "velocity": 53}, {"time": 1556, "pitch": 55, "duration": 4, "velocity": 53}, {"time": 1556, "pitch": 60, "duration": 4, "velocity": 56}, {"time": 1556, "pitch": 64, "duration": 4, "velocity": 49}, {"time": 1562, "pitch": 36, "duration": 4, "velocity": 50}, {"time": 1562, "pitch": 48, "duration": 4, "velocity": 62}, {"time": 1562, "pitch": 55, "duration": 5, "velocity": 59}, {"time": 1562, "pitch": 60, "duration": 4, "velocity": 58}, {"time": 1562, "pitch": 64, "duration": 5, "velocity": 64}, {"time": 1568, "pitch": 36, "duration": 4, "velocity": 68}, {"time": 1568, "pitch": 48, "duration": 4, "velocity": 89}, {"time": 1568, "pitch": 55, "duration": 5, "velocity": 72}, {"time": 1568, "pitch": 60, "duration": 5, "velocity": 71}, {"time": 1568, "pitch": 64, "duration": 5, "velocity": 68}, {"time": 1574, "pitch": 36, "duration": 7, "velocity": 72}, {"time": 1574, "pitch": 48, "duration": 7, "velocity": 92}, {"time": 1574, "pitch": 55, "duration": 6, "velocity": 83}, {"time": 1574, "pitch": 60, "duration": 6, "velocity": 97}, {"time": 1574, "pitch": 64, "duration": 6, "velocity": 90}, {"time": 1580, "pitch": 36, "duration": 1, "velocity": 76}, {"time": 1580, "pitch": 48, "duration": 1, "velocity": 102}, {"time": 1580, "pitch": 55, "duration": 1, "velocity": 76}, {"time": 1580, "pitch": 60, "duration": 1, "velocity": 86}, {"time": 1580, "pitch": 64, "duration": 1, "velocity": 77}, {"time": 1586, "pitch": 55, "duration": 4, "velocity": 55}, {"time": 1592, "pitch": 55, "duration": 3, "velocity": 92}, {"time": 1592, "pitch": 60, "duration": 10, "velocity": 95}, {"time": 1592, "pitch": 64, "duration": 10, "velocity": 86}, {"time": 1598, "pitch": 55, "duration": 4, "velocity": 55}, {"time": 1601, "pitch": 36, "duration": 11, "velocity": 64}, {"time": 1601, "pitch": 48, "duration": 11, "velocity": 73}, {"time": 1604, "pitch": 55, "duration": 2, "velocity": 51}, {"time": 1607, "pitch": 60, "duration": 6, "velocity": 82}, {"time": 1607, "pitch": 64, "duration": 7, "velocity": 72}, {"time": 1610, "pitch": 55, "duration": 3, "velocity": 40}, {"time": 1613, "pitch": 36, "duration": 9, "velocity": 78}, {"time": 1613, "pitch": 48, "duration": 14, "velocity": 96}, {"time": 1616, "pitch": 60, "duration": 4, "velocity": 102}, {"time": 1616, "pitch": 64, "duration": 4, "velocity": 97}, {"time": 1622, "pitch": 55, "duration": 2, "velocity": 25}, {"time": 1622, "pitch": 60, "duration": 1, "velocity": 96}, {"time": 1622, "pitch": 64, "duration": 1, "velocity": 92}, {"time": 1628, "pitch": 41, "duration": 14, "velocity": 75}, {"time": 1628, "pitch": 53, "duration": 7, "velocity": 97}, {"time": 1628, "pitch": 57, "duration": 7, "velocity": 92}, {"time": 1628, "pitch": 60, "duration": 7, "velocity": 90}, {"time": 1634, "pitch": 48, "duration": 6, "velocity": 49}, {"time": 1640, "pitch": 53, "duration": 4, "velocity": 93}, {"time": 1640, "pitch": 57, "duration": 4, "velocity": 99}, {"time": 1640, "pitch": 60, "duration": 7, "velocity": 97}, {"time": 1646, "pitch": 57, "duration": 1, "velocity": 36}, {"time": 1649, "pitch": 41, "duration": 7, "velocity": 100}, {"time": 1649, "pitch": 53, "duration": 1, "velocity": 72}, {"time": 1649, "pitch": 57, "duration": 1, "velocity": 83}, {"time": 1649, "pitch": 60, "duration": 1, "velocity": 79}, {"time": 1655, "pitch": 53, "duration": 1, "velocity": 70}, {"time": 1655, "pitch": 57, "duration": 1, "velocity": 79}, {"time": 1655, "pitch": 60, "duration": 2, "velocity": 78}, {"time": 1661, "pitch": 41, "duration": 1, "velocity": 93}, {"time": 1664, "pitch": 41, "duration": 4, "velocity": 112}, {"time": 1664, "pitch": 53, "duration": 1, "velocity": 69}, {"time": 1664, "pitch": 57, "duration": 1, "velocity": 79}, {"time": 1664, "pitch": 60, "duration": 1, "velocity": 74}, {"time": 1670, "pitch": 53, "duration": 2, "velocity": 92}, {"time": 1670, "pitch": 57, "duration": 1, "velocity": 88}, {"time": 1670, "pitch": 60, "duration": 1, "velocity": 79}, {"time": 1676, "pitch": 34, "duration": 19, "velocity": 96}, {"time": 1676, "pitch": 46, "duration": 19, "velocity": 107}, {"time": 1676, "pitch": 53, "duration": 4, "velocity": 93}, {"time": 1676, "pitch": 58, "duration": 7, "velocity": 102}, {"time": 1676, "pitch": 62, "duration": 7, "velocity": 92}, {"time": 1682, "pitch": 53, "duration": 3, "velocity": 64}, {"time": 1688, "pitch": 53, "duration": 1, "velocity": 93}, {"time": 1688, "pitch": 58, "duration": 1, "velocity": 102}, {"time": 1688, "pitch": 62, "duration": 1, "velocity": 93}, {"time": 1697, "pitch": 34, "duration": 10, "velocity": 64}, {"time": 1697, "pitch": 46, "duration": 10, "velocity": 82}, {"time": 1697, "pitch": 53, "duration": 1, "velocity": 73}, {"time": 1697, "pitch": 58, "duration": 1, "velocity": 95}, {"time": 1697, "pitch": 62, "duration": 1, "velocity": 81}, {"time": 1703, "pitch": 53, "duration": 1, "velocity": 63}, {"time": 1703, "pitch": 58, "duration": 1, "velocity": 76}, {"time": 1703, "pitch": 62, "duration": 1, "velocity": 67}, {"time": 1709, "pitch": 34, "duration": 3, "velocity": 44}, {"time": 1709, "pitch": 46, "duration": 4, "velocity": 48}, {"time": 1712, "pitch": 53, "duration": 1, "velocity": 40}, {"time": 1712, "pitch": 58, "duration": 1, "velocity": 95}, {"time": 1712, "pitch": 62, "duration": 1, "velocity": 86}, {"time": 1718, "pitch": 58, "duration": 1, "velocity": 97}, {"time": 1724, "pitch": 36, "duration": 37, "velocity": 67}, {"time": 1724, "pitch": 55, "duration": 7, "velocity": 88}, {"time": 1724, "pitch": 60, "duration": 8, "velocity": 89}, {"time": 1724, "pitch": 64, "duration": 10, "velocity": 85}, {"time": 1730, "pitch": 48, "duration": 7, "velocity": 79}, {"time": 1733, "pitch": 55, "duration": 1, "velocity": 65}, {"time": 1736, "pitch": 60, "duration": 4, "velocity": 93}, {"time": 1736, "pitch": 64, "duration": 4, "velocity": 90}, {"time": 1742, "pitch": 48, "duration": 5, "velocity": 74}, {"time": 1745, "pitch": 60, "duration": 2, "velocity": 77}, {"time": 1745, "pitch": 64, "duration": 2, "velocity": 74}, {"time": 1751, "pitch": 60, "duration": 1, "velocity": 68}, {"time": 1751, "pitch": 64, "duration": 1, "velocity": 56}, {"time": 1757, "pitch": 48, "duration": 4, "velocity": 75}, {"time": 1760, "pitch": 55, "duration": 1, "velocity": 82}, {"time": 1760, "pitch": 60, "duration": 1, "velocity": 100}, {"time": 1760, "pitch": 64, "duration": 1, "velocity": 92}, {"time": 1766, "pitch": 60, "duration": 1, "velocity": 83}, {"time": 1766, "pitch": 64, "duration": 1, "velocity": 58}, {"time": 1772, "pitch": 33, "duration": 39, "velocity": 72}, {"time": 1772, "pitch": 57, "duration": 5, "velocity": 65}, {"time": 1772, "pitch": 60, "duration": 6, "velocity": 60}, {"time": 1772, "pitch": 64, "duration": 6, "velocity": 72}, {"time": 1778, "pitch": 45, "duration": 7, "velocity": 71}, {"time": 1784, "pitch": 60, "duration": 1, "velocity": 102}, {"time": 1784, "pitch": 64, "duration": 2, "velocity": 89}, {"time": 1790, "pitch": 45, "duration": 6, "velocity": 79}, {"time": 1793, "pitch": 60, "duration": 9, "velocity": 88}, {"time": 1799, "pitch": 45, "duration": 4, "velocity": 72}, {"time": 1802, "pitch": 57, "duration": 4, "velocity": 76}, {"time": 1805, "pitch": 45, "duration": 3, "velocity": 55}, {"time": 1808, "pitch": 60, "duration": 7, "velocity": 99}, {"time": 1808, "pitch": 64, "duration": 5, "velocity": 93}, {"time": 1811, "pitch": 45, "duration": 2, "velocity": 92}, {"time": 1814, "pitch": 57, "duration": 7, "velocity": 70}, {"time": 1820, "pitch": 38, "duration": 43, "velocity": 73}, {"time": 1826, "pitch": 45, "duration": 7, "velocity": 63}, {"time": 1826, "pitch": 57, "duration": 4, "velocity": 97}, {"time": 1832, "pitch": 50, "duration": 6, "velocity": 86}, {"time": 1832, "pitch": 62, "duration": 6, "velocity": 100}, {"time": 1832, "pitch": 66, "duration": 6, "velocity": 107}, {"time": 1838, "pitch": 45, "duration": 25, "velocity": 40}, {"time": 1838, "pitch": 57, "duration": 8, "velocity": 70}, {"time": 1844, "pitch": 50, "duration": 11, "velocity": 90}, {"time": 1847, "pitch": 62, "duration": 1, "velocity": 99}, {"time": 1847, "pitch": 66, "duration": 1, "velocity": 97}, {"time": 1853, "pitch": 57, "duration": 1, "velocity": 35}, {"time": 1856, "pitch": 62, "duration": 5, "velocity": 93}, {"time": 1856, "pitch": 66, "duration": 5, "velocity": 95}, {"time": 1862, "pitch": 50, "duration": 6, "velocity": 83}, {"time": 1868, "pitch": 41, "duration": 43, "velocity": 78}, {"time": 1868, "pitch": 53, "duration": 5, "velocity": 85}, {"time": 1868, "pitch": 57, "duration": 4, "velocity": 69}, {"time": 1868, "pitch": 60, "duration": 5, "velocity": 69}, {"time": 1874, "pitch": 48, "duration": 8, "velocity": 60}, {"time": 1880, "pitch": 57, "duration": 5, "velocity": 89}, {"time": 1880, "pitch": 60, "duration": 6, "velocity": 93}, {"time": 1886, "pitch": 48, "duration": 11, "velocity": 96}, {"time": 1889, "pitch": 53, "duration": 1, "velocity": 66}, {"time": 1889, "pitch": 57, "duration": 1, "velocity": 82}, {"time": 1889, "pitch": 60, "duration": 1, "velocity": 81}, {"time": 1895, "pitch": 53, "duration": 1, "velocity": 79}, {"time": 1895, "pitch": 57, "duration": 1, "velocity": 89}, {"time": 1895, "pitch": 60, "duration": 1, "velocity": 85}, {"time": 1901, "pitch": 48, "duration": 11, "velocity": 81}, {"time": 1904, "pitch": 53, "duration": 4, "velocity": 89}, {"time": 1904, "pitch": 57, "duration": 4, "velocity": 99}, {"time": 1904, "pitch": 60, "duration": 4, "velocity": 95}, {"time": 1910, "pitch": 57, "duration": 1, "velocity": 97}, {"time": 1910, "pitch": 60, "duration": 1, "velocity": 72}, {"time": 1916, "pitch": 43, "duration": 19, "velocity": 72}, {"time": 1916, "pitch": 55, "duration": 3, "velocity": 86}, {"time": 1916, "pitch": 59, "duration": 3, "velocity": 93}, {"time": 1916, "pitch": 62, "duration": 3, "velocity": 95}, {"time": 1922, "pitch": 50, "duration": 6, "velocity": 107}, {"time": 1925, "pitch": 55, "duration": 1, "velocity": 52}, {"time": 1928, "pitch": 59, "duration": 2, "velocity": 122}, {"time": 1928, "pitch": 62, "duration": 3, "velocity": 112}, {"time": 1931, "pitch": 50, "duration": 8, "velocity": 127}, {"time": 1934, "pitch": 59, "duration": 2, "velocity": 122}, {"time": 1934, "pitch": 62, "duration": 2, "velocity": 107}, {"time": 1937, "pitch": 55, "duration": 2, "velocity": 72}, {"time": 1940, "pitch": 43, "duration": 15, "velocity": 93}, {"time": 1940, "pitch": 50, "duration": 14, "velocity": 122}, {"time": 1940, "pitch": 55, "duration": 18, "velocity": 97}, {"time": 1940, "pitch": 59, "duration": 18, "velocity": 102}, {"time": 1940, "pitch": 62, "duration": 18, "velocity": 99}, {"time": 1964, "pitch": 36, "duration": 18, "velocity": 102}, {"time": 1964, "pitch": 55, "duration": 8, "velocity": 99}, {"time": 1964, "pitch": 60, "duration": 8, "velocity": 96}, {"time": 1964, "pitch": 64, "duration": 9, "velocity": 92}, {"time": 1970, "pitch": 48, "duration": 12, "velocity": 70}, {"time": 1976, "pitch": 55, "duration": 10, "velocity": 112}, {"time": 1976, "pitch": 60, "duration": 10, "velocity": 112}, {"time": 1976, "pitch": 64, "duration": 10, "velocity": 99}, {"time": 1985, "pitch": 36, "duration": 1, "velocity": 64}, {"time": 1985, "pitch": 48, "duration": 1, "velocity": 102}, {"time": 1988, "pitch": 36, "duration": 11, "velocity": 81}, {"time": 1988, "pitch": 48, "duration": 11, "velocity": 96}, {"time": 1988, "pitch": 55, "duration": 2, "velocity": 95}, {"time": 1988, "pitch": 60, "duration": 2, "velocity": 95}, {"time": 1988, "pitch": 64, "duration": 2, "velocity": 88}, {"time": 1994, "pitch": 55, "duration": 9, "velocity": 102}, {"time": 1994, "pitch": 60, "duration": 11, "velocity": 117}, {"time": 1994, "pitch": 64, "duration": 12, "velocity": 97}, {"time": 2000, "pitch": 36, "duration": 8, "velocity": 66}, {"time": 2000, "pitch": 48, "duration": 6, "velocity": 86}, {"time": 2006, "pitch": 55, "duration": 2, "velocity": 102}, {"time": 2012, "pitch": 35, "duration": 21, "velocity": 63}, {"time": 2012, "pitch": 47, "duration": 18, "velocity": 117}, {"time": 2012, "pitch": 52, "duration": 9, "velocity": 95}, {"time": 2012, "pitch": 55, "duration": 9, "velocity": 93}, {"time": 2012, "pitch": 59, "duration": 9, "velocity": 97}, {"time": 2024, "pitch": 52, "duration": 1, "velocity": 112}, {"time": 2024, "pitch": 55, "duration": 1, "velocity": 122}, {"time": 2024, "pitch": 59, "duration": 1, "velocity": 112}, {"time": 2030, "pitch": 47, "duration": 2, "velocity": 67}, {"time": 2033, "pitch": 35, "duration": 1, "velocity": 63}, {"time": 2033, "pitch": 47, "duration": 1, "velocity": 83}, {"time": 2036, "pitch": 35, "duration": 9, "velocity": 81}, {"time": 2036, "pitch": 47, "duration": 9, "velocity": 96}, {"time": 2042, "pitch": 52, "duration": 8, "velocity": 100}, {"time": 2042, "pitch": 55, "duration": 9, "velocity": 99}, {"time": 2042, "pitch": 59, "duration": 9, "velocity": 99}, {"time": 2048, "pitch": 35, "duration": 2, "velocity": 78}, {"time": 2048, "pitch": 47, "duration": 4, "velocity": 97}, {"time": 2054, "pitch": 55, "duration": 1, "velocity": 95}, {"time": 2054, "pitch": 59, "duration": 1, "velocity": 92}, {"time": 2060, "pitch": 38, "duration": 22, "velocity": 76}, {"time": 2060, "pitch": 50, "duration": 23, "velocity": 93}, {"time": 2060, "pitch": 57, "duration": 7, "velocity": 107}, {"time": 2060, "pitch": 62, "duration": 8, "velocity": 102}, {"time": 2060, "pitch": 65, "duration": 8, "velocity": 96}, {"time": 2072, "pitch": 57, "duration": 1, "velocity": 107}, {"time": 2072, "pitch": 62, "duration": 1, "velocity": 117}, {"time": 2072, "pitch": 65, "duration": 1, "velocity": 107}, {"time": 2081, "pitch": 57, "duration": 8, "velocity": 99}, {"time": 2081, "pitch": 62, "duration": 9, "velocity": 102}, {"time": 2081, "pitch": 65, "duration": 9, "velocity": 99}, {"time": 2084, "pitch": 38, "duration": 1, "velocity": 74}, {"time": 2084, "pitch": 50, "duration": 1, "velocity": 95}, {"time": 2090, "pitch": 38, "duration": 8, "velocity": 92}, {"time": 2090, "pitch": 50, "duration": 7, "velocity": 117}, {"time": 2096, "pitch": 62, "duration": 6, "velocity": 127}, {"time": 2096, "pitch": 65, "duration": 6, "velocity": 117}, {"time": 2102, "pitch": 57, "duration": 1, "velocity": 97}, {"time": 2108, "pitch": 29, "duration": 11, "velocity": 112}, {"time": 2108, "pitch": 41, "duration": 11, "velocity": 117}, {"time": 2108, "pitch": 53, "duration": 11, "velocity": 112}, {"time": 2108, "pitch": 60, "duration": 11, "velocity": 85}, {"time": 2108, "pitch": 65, "duration": 11, "velocity": 97}, {"time": 2108, "pitch": 68, "duration": 11, "velocity": 93}, {"time": 2120, "pitch": 36, "duration": 11, "velocity": 127}, {"time": 2120, "pitch": 48, "duration": 10, "velocity": 117}, {"time": 2120, "pitch": 60, "duration": 10, "velocity": 107}, {"time": 2120, "pitch": 64, "duration": 10, "velocity": 122}, {"time": 2120, "pitch": 67, "duration": 10, "velocity": 112}, {"time": 2132, "pitch": 32, "duration": 11, "velocity": 127}, {"time": 2132, "pitch": 44, "duration": 11, "velocity": 127}, {"time": 2132, "pitch": 56, "duration": 11, "velocity": 117}, {"time": 2132, "pitch": 63, "duration": 10, "velocity": 127}, {"time": 2132, "pitch": 68, "duration": 10, "velocity": 117}, {"time": 2144, "pitch": 31, "duration": 11, "velocity": 107}, {"time": 2144, "pitch": 43, "duration": 12, "velocity": 112}, {"time": 2144, "pitch": 55, "duration": 11, "velocity": 99}, {"time": 2144, "pitch": 59, "duration": 11, "velocity": 112}, {"time": 2144, "pitch": 62, "duration": 11, "velocity": 122}, {"time": 2156, "pitch": 36, "duration": 18, "velocity": 96}, {"time": 2156, "pitch": 55, "duration": 7, "velocity": 99}, {"time": 2156, "pitch": 60, "duration": 7, "velocity": 92}, {"time": 2156, "pitch": 61, "duration": 1, "velocity": 78}, {"time": 2156, "pitch": 64, "duration": 8, "velocity": 93}, {"time": 2162, "pitch": 48, "duration": 6, "velocity": 95}, {"time": 2168, "pitch": 55, "duration": 10, "velocity": 122}, {"time": 2168, "pitch": 60, "duration": 11, "velocity": 127}, {"time": 2168, "pitch": 64, "duration": 11, "velocity": 102}, {"time": 2177, "pitch": 36, "duration": 1, "velocity": 63}, {"time": 2177, "pitch": 48, "duration": 1, "velocity": 93}, {"time": 2180, "pitch": 36, "duration": 2, "velocity": 73}, {"time": 2180, "pitch": 48, "duration": 2, "velocity": 93}, {"time": 2180, "pitch": 55, "duration": 1, "velocity": 67}, {"time": 2180, "pitch": 60, "duration": 1, "velocity": 72}, {"time": 2180, "pitch": 64, "duration": 2, "velocity": 74}, {"time": 2186, "pitch": 36, "duration": 10, "velocity": 82}, {"time": 2186, "pitch": 48, "duration": 7, "velocity": 99}, {"time": 2186, "pitch": 55, "duration": 3, "velocity": 97}, {"time": 2186, "pitch": 60, "duration": 4, "velocity": 102}, {"time": 2186, "pitch": 64, "duration": 4, "velocity": 99}, {"time": 2192, "pitch": 60, "duration": 5, "velocity": 127}, {"time": 2192, "pitch": 64, "duration": 5, "velocity": 112}, {"time": 2195, "pitch": 48, "duration": 2, "velocity": 97}, {"time": 2198, "pitch": 55, "duration": 1, "velocity": 99}, {"time": 2198, "pitch": 60, "duration": 1, "velocity": 57}, {"time": 2198, "pitch": 64, "duration": 1, "velocity": 40}, {"time": 2204, "pitch": 40, "duration": 20, "velocity": 78}, {"time": 2204, "pitch": 52, "duration": 20, "velocity": 95}, {"time": 2204, "pitch": 59, "duration": 5, "velocity": 100}, {"time": 2204, "pitch": 64, "duration": 5, "velocity": 97}, {"time": 2204, "pitch": 67, "duration": 5, "velocity": 96}, {"time": 2216, "pitch": 64, "duration": 13, "velocity": 117}, {"time": 2216, "pitch": 67, "duration": 13, "velocity": 102}, {"time": 2222, "pitch": 59, "duration": 5, "velocity": 78}, {"time": 2225, "pitch": 40, "duration": 2, "velocity": 75}, {"time": 2225, "pitch": 52, "duration": 1, "velocity": 88}, {"time": 2228, "pitch": 40, "duration": 1, "velocity": 88}, {"time": 2228, "pitch": 52, "duration": 1, "velocity": 102}, {"time": 2234, "pitch": 40, "duration": 13, "velocity": 93}, {"time": 2234, "pitch": 52, "duration": 8, "velocity": 102}, {"time": 2240, "pitch": 64, "duration": 7, "velocity": 122}, {"time": 2240, "pitch": 67, "duration": 7, "velocity": 117}, {"time": 2243, "pitch": 52, "duration": 2, "velocity": 92}, {"time": 2246, "pitch": 59, "duration": 1, "velocity": 90}, {"time": 2252, "pitch": 39, "duration": 7, "velocity": 127}, {"time": 2252, "pitch": 63, "duration": 7, "velocity": 122}, {"time": 2252, "pitch": 67, "duration": 5, "velocity": 100}, {"time": 2252, "pitch": 70, "duration": 8, "velocity": 122}, {"time": 2258, "pitch": 51, "duration": 2, "velocity": 75}, {"time": 2264, "pitch": 38, "duration": 10, "velocity": 97}, {"time": 2264, "pitch": 62, "duration": 9, "velocity": 127}, {"time": 2276, "pitch": 36, "duration": 4, "velocity": 97}, {"time": 2276, "pitch": 60, "duration": 4, "velocity": 117}, {"time": 2276, "pitch": 64, "duration": 4, "velocity": 100}, {"time": 2276, "pitch": 67, "duration": 4, "velocity": 100}, {"time": 2288, "pitch": 34, "duration": 7, "velocity": 127}, {"time": 2288, "pitch": 58, "duration": 8, "velocity": 127}, {"time": 2288, "pitch": 62, "duration": 9, "velocity": 102}, {"time": 2288, "pitch": 65, "duration": 8, "velocity": 90}, {"time": 2300, "pitch": 29, "duration": 17, "velocity": 85}, {"time": 2300, "pitch": 41, "duration": 17, "velocity": 99}, {"time": 2300, "pitch": 60, "duration": 5, "velocity": 100}, {"time": 2300, "pitch": 65, "duration": 5, "velocity": 102}, {"time": 2300, "pitch": 68, "duration": 5, "velocity": 112}, {"time": 2312, "pitch": 60, "duration": 2, "velocity": 117}, {"time": 2312, "pitch": 65, "duration": 2, "velocity": 127}, {"time": 2312, "pitch": 68, "duration": 2, "velocity": 127}, {"time": 2321, "pitch": 29, "duration": 1, "velocity": 37}, {"time": 2321, "pitch": 41, "duration": 2, "velocity": 93}, {"time": 2324, "pitch": 31, "duration": 9, "velocity": 79}, {"time": 2324, "pitch": 43, "duration": 8, "velocity": 107}, {"time": 2324, "pitch": 62, "duration": 2, "velocity": 97}, {"time": 2324, "pitch": 67, "duration": 2, "velocity": 95}, {"time": 2324, "pitch": 71, "duration": 2, "velocity": 92}, {"time": 2330, "pitch": 62, "duration": 7, "velocity": 112}, {"time": 2330, "pitch": 67, "duration": 8, "velocity": 127}, {"time": 2330, "pitch": 71, "duration": 8, "velocity": 117}, {"time": 2336, "pitch": 31, "duration": 5, "velocity": 92}, {"time": 2336, "pitch": 43, "duration": 6, "velocity": 112}, {"time": 2342, "pitch": 62, "duration": 2, "velocity": 127}, {"time": 2342, "pitch": 67, "duration": 1, "velocity": 122}, {"time": 2342, "pitch": 71, "duration": 1, "velocity": 96}, {"time": 2348, "pitch": 34, "duration": 33, "velocity": 93}, {"time": 2348, "pitch": 46, "duration": 33, "velocity": 96}, {"time": 2348, "pitch": 53, "duration": 14, "velocity": 96}, {"time": 2348, "pitch": 58, "duration": 11, "velocity": 112}, {"time": 2348, "pitch": 62, "duration": 14, "velocity": 95}, {"time": 2366, "pitch": 53, "duration": 11, "velocity": 102}, {"time": 2366, "pitch": 58, "duration": 11, "velocity": 127}, {"time": 2366, "pitch": 62, "duration": 12, "velocity": 102}, {"time": 2381, "pitch": 53, "duration": 11, "velocity": 89}, {"time": 2381, "pitch": 58, "duration": 13, "velocity": 117}, {"time": 2381, "pitch": 62, "duration": 13, "velocity": 95}, {"time": 2384, "pitch": 34, "duration": 5, "velocity": 89}, {"time": 2384, "pitch": 46, "duration": 4, "velocity": 112}, {"time": 2390, "pitch": 34, "duration": 15, "velocity": 100}, {"time": 2390, "pitch": 46, "duration": 13, "velocity": 95}, {"time": 2402, "pitch": 58, "duration": 7, "velocity": 127}, {"time": 2402, "pitch": 62, "duration": 12, "velocity": 117}, {"time": 2408, "pitch": 53, "duration": 6, "velocity": 93}, {"time": 2411, "pitch": 58, "duration": 2, "velocity": 112}, {"time": 2420, "pitch": 33, "duration": 31, "velocity": 85}, {"time": 2420, "pitch": 45, "duration": 33, "velocity": 99}, {"time": 2420, "pitch": 57, "duration": 7, "velocity": 112}, {"time": 2420, "pitch": 60, "duration": 5, "velocity": 127}, {"time": 2420, "pitch": 64, "duration": 6, "velocity": 127}, {"time": 2438, "pitch": 57, "duration": 3, "velocity": 107}, {"time": 2438, "pitch": 60, "duration": 12, "velocity": 117}, {"time": 2438, "pitch": 64, "duration": 12, "velocity": 112}, {"time": 2453, "pitch": 57, "duration": 1, "velocity": 93}, {"time": 2453, "pitch": 60, "duration": 2, "velocity": 112}, {"time": 2453, "pitch": 64, "duration": 2, "velocity": 96}, {"time": 2456, "pitch": 36, "duration": 32, "velocity": 82}, {"time": 2456, "pitch": 48, "duration": 12, "velocity": 107}, {"time": 2462, "pitch": 55, "duration": 4, "velocity": 63}, {"time": 2468, "pitch": 55, "duration": 3, "velocity": 85}, {"time": 2471, "pitch": 48, "duration": 17, "velocity": 81}, {"time": 2474, "pitch": 55, "duration": 5, "velocity": 122}, {"time": 2474, "pitch": 60, "duration": 9, "velocity": 127}, {"time": 2474, "pitch": 64, "duration": 9, "velocity": 117}, {"time": 2480, "pitch": 55, "duration": 2, "velocity": 36}, {"time": 2486, "pitch": 60, "duration": 7, "velocity": 122}, {"time": 2486, "pitch": 64, "duration": 8, "velocity": 107}, {"time": 2489, "pitch": 36, "duration": 1, "velocity": 63}, {"time": 2489, "pitch": 48, "duration": 1, "velocity": 83}, {"time": 2492, "pitch": 36, "duration": 17, "velocity": 81}, {"time": 2492, "pitch": 48, "duration": 16, "velocity": 117}, {"time": 2504, "pitch": 55, "duration": 4, "velocity": 117}, {"time": 2510, "pitch": 36, "duration": 4, "velocity": 92}, {"time": 2510, "pitch": 48, "duration": 4, "velocity": 122}, {"time": 2510, "pitch": 55, "duration": 4, "velocity": 127}, {"time": 2510, "pitch": 60, "duration": 4, "velocity": 127}, {"time": 2510, "pitch": 64, "duration": 4, "velocity": 122}, {"time": 2516, "pitch": 36, "duration": 4, "velocity": 50}, {"time": 2516, "pitch": 48, "duration": 3, "velocity": 92}, {"time": 2516, "pitch": 55, "duration": 2, "velocity": 96}, {"time": 2516, "pitch": 60, "duration": 5, "velocity": 107}, {"time": 2516, "pitch": 64, "duration": 5, "velocity": 96}, {"time": 2522, "pitch": 35, "duration": 6, "velocity": 95}, {"time": 2522, "pitch": 59, "duration": 3, "velocity": 117}, {"time": 2522, "pitch": 64, "duration": 1, "velocity": 35}, {"time": 2528, "pitch": 33, "duration": 28, "velocity": 97}, {"time": 2528, "pitch": 57, "duration": 10, "velocity": 122}, {"time": 2528, "pitch": 60, "duration": 15, "velocity": 122}, {"time": 2528, "pitch": 64, "duration": 14, "velocity": 112}, {"time": 2543, "pitch": 45, "duration": 12, "velocity": 77}, {"time": 2546, "pitch": 57, "duration": 14, "velocity": 122}, {"time": 2546, "pitch": 60, "duration": 14, "velocity": 122}, {"time": 2546, "pitch": 64, "duration": 14, "velocity": 117}, {"time": 2558, "pitch": 33, "duration": 2, "velocity": 69}, {"time": 2558, "pitch": 40, "duration": 4, "velocity": 78}, {"time": 2558, "pitch": 45, "duration": 4, "velocity": 89}, {"time": 2564, "pitch": 31, "duration": 35, "velocity": 73}, {"time": 2564, "pitch": 43, "duration": 13, "velocity": 99}, {"time": 2564, "pitch": 55, "duration": 15, "velocity": 112}, {"time": 2564, "pitch": 59, "duration": 15, "velocity": 102}, {"time": 2564, "pitch": 62, "duration": 15, "velocity": 112}, {"time": 2579, "pitch": 43, "duration": 6, "velocity": 99}, {"time": 2582, "pitch": 55, "duration": 8, "velocity": 112}, {"time": 2582, "pitch": 59, "duration": 10, "velocity": 122}, {"time": 2582, "pitch": 62, "duration": 10, "velocity": 127}, {"time": 2588, "pitch": 43, "duration": 11, "velocity": 85}, {"time": 2594, "pitch": 55, "duration": 6, "velocity": 102}, {"time": 2594, "pitch": 59, "duration": 6, "velocity": 102}, {"time": 2594, "pitch": 62, "duration": 6, "velocity": 100}, {"time": 2600, "pitch": 30, "duration": 14, "velocity": 75}, {"time": 2600, "pitch": 42, "duration": 13, "velocity": 89}, {"time": 2600, "pitch": 54, "duration": 15, "velocity": 127}, {"time": 2600, "pitch": 57, "duration": 15, "velocity": 107}, {"time": 2600, "pitch": 60, "duration": 15, "velocity": 97}, {"time": 2615, "pitch": 30, "duration": 7, "velocity": 54}, {"time": 2615, "pitch": 42, "duration": 5, "velocity": 41}, {"time": 2618, "pitch": 54, "duration": 4, "velocity": 127}, {"time": 2618, "pitch": 57, "duration": 4, "velocity": 107}, {"time": 2618, "pitch": 60, "duration": 3, "velocity": 99}, {"time": 2624, "pitch": 54, "duration": 3, "velocity": 127}, {"time": 2624, "pitch": 57, "duration": 4, "velocity": 100}, {"time": 2624, "pitch": 60, "duration": 4, "velocity": 95}, {"time": 2630, "pitch": 54, "duration": 1, "velocity": 122}, {"time": 2630, "pitch": 57, "duration": 1, "velocity": 83}, {"time": 2636, "pitch": 31, "duration": 17, "velocity": 67}, {"time": 2636, "pitch": 43, "duration": 17, "velocity": 100}, {"time": 2636, "pitch": 55, "duration": 10, "velocity": 107}, {"time": 2636, "pitch": 59, "duration": 10, "velocity": 127}, {"time": 2636, "pitch": 62, "duration": 10, "velocity": 127}, {"time": 2645, "pitch": 55, "duration": 1, "velocity": 99}, {"time": 2645, "pitch": 59, "duration": 1, "velocity": 81}, {"time": 2645, "pitch": 62, "duration": 1, "velocity": 72}, {"time": 2648, "pitch": 38, "duration": 4, "velocity": 31}, {"time": 2654, "pitch": 31, "duration": 8, "velocity": 92}, {"time": 2654, "pitch": 38, "duration": 9, "velocity": 117}, {"time": 2654, "pitch": 43, "duration": 8, "velocity": 112}, {"time": 2654, "pitch": 55, "duration": 3, "velocity": 117}, {"time": 2654, "pitch": 59, "duration": 3, "velocity": 122}, {"time": 2654, "pitch": 62, "duration": 3, "velocity": 122}, {"time": 2660, "pitch": 55, "duration": 4, "velocity": 117}, {"time": 2660, "pitch": 59, "duration": 4, "velocity": 117}, {"time": 2660, "pitch": 62, "duration": 4, "velocity": 117}, {"time": 2666, "pitch": 31, "duration": 4, "velocity": 75}, {"time": 2666, "pitch": 38, "duration": 5, "velocity": 107}, {"time": 2666, "pitch": 43, "duration": 4, "velocity": 100}, {"time": 2666, "pitch": 55, "duration": 4, "velocity": 102}, {"time": 2666, "pitch": 59, "duration": 4, "velocity": 117}, {"time": 2666, "pitch": 62, "duration": 4, "velocity": 102}, {"time": 2672, "pitch": 31, "duration": 49, "velocity": 76}, {"time": 2672, "pitch": 38, "duration": 48, "velocity": 127}, {"time": 2672, "pitch": 43, "duration": 49, "velocity": 117}, {"time": 2672, "pitch": 55, "duration": 49, "velocity": 122}, {"time": 2672, "pitch": 59, "duration": 48, "velocity": 127}, {"time": 2672, "pitch": 62, "duration": 49, "velocity": 127}, {"time": 2720, "pitch": 36, "duration": 18, "velocity": 102}, {"time": 2720, "pitch": 55, "duration": 1, "velocity": 99}, {"time": 2720, "pitch": 60, "duration": 8, "velocity": 96}, {"time": 2720, "pitch": 64, "duration": 9, "velocity": 92}, {"time": 2726, "pitch": 48, "duration": 12, "velocity": 70}, {"time": 2732, "pitch": 55, "duration": 10, "velocity": 112}, {"time": 2732, "pitch": 60, "duration": 10, "velocity": 112}, {"time": 2732, "pitch": 64, "duration": 10, "velocity": 99}, {"time": 2741, "pitch": 36, "duration": 1, "velocity": 64}, {"time": 2741, "pitch": 48, "duration": 1, "velocity": 102}, {"time": 2744, "pitch": 36, "duration": 11, "velocity": 81}, {"time": 2744, "pitch": 48, "duration": 11, "velocity": 96}, {"time": 2744, "pitch": 55, "duration": 2, "velocity": 95}, {"time": 2744, "pitch": 60, "duration": 2, "velocity": 95}, {"time": 2744, "pitch": 64, "duration": 2, "velocity": 88}, {"time": 2750, "pitch": 55, "duration": 9, "velocity": 102}, {"time": 2750, "pitch": 60, "duration": 11, "velocity": 117}, {"time": 2750, "pitch": 64, "duration": 12, "velocity": 97}, {"time": 2756, "pitch": 36, "duration": 8, "velocity": 66}, {"time": 2756, "pitch": 48, "duration": 6, "velocity": 86}, {"time": 2762, "pitch": 55, "duration": 2, "velocity": 102}, {"time": 2768, "pitch": 35, "duration": 21, "velocity": 63}, {"time": 2768, "pitch": 47, "duration": 18, "velocity": 117}, {"time": 2768, "pitch": 52, "duration": 9, "velocity": 95}, {"time": 2768, "pitch": 55, "duration": 9, "velocity": 93}, {"time": 2768, "pitch": 59, "duration": 9, "velocity": 97}, {"time": 2780, "pitch": 52, "duration": 1, "velocity": 112}, {"time": 2780, "pitch": 55, "duration": 1, "velocity": 122}, {"time": 2780, "pitch": 59, "duration": 1, "velocity": 112}, {"time": 2786, "pitch": 47, "duration": 2, "velocity": 67}, {"time": 2789, "pitch": 35, "duration": 1, "velocity": 63}, {"time": 2789, "pitch": 47, "duration": 1, "velocity": 83}, {"time": 2792, "pitch": 35, "duration": 9, "velocity": 81}, {"time": 2792, "pitch": 47, "duration": 9, "velocity": 96}, {"time": 2798, "pitch": 52, "duration": 8, "velocity": 100}, {"time": 2798, "pitch": 55, "duration": 9, "velocity": 99}, {"time": 2798, "pitch": 59, "duration": 9, "velocity": 99}, {"time": 2804, "pitch": 35, "duration": 2, "velocity": 78}, {"time": 2804, "pitch": 47, "duration": 4, "velocity": 97}, {"time": 2810, "pitch": 55, "duration": 1, "velocity": 95}, {"time": 2810, "pitch": 59, "duration": 1, "velocity": 92}, {"time": 2816, "pitch": 38, "duration": 22, "velocity": 76}, {"time": 2816, "pitch": 50, "duration": 23, "velocity": 93}, {"time": 2816, "pitch": 57, "duration": 7, "velocity": 107}, {"time": 2816, "pitch": 62, "duration": 8, "velocity": 102}, {"time": 2816, "pitch": 65, "duration": 8, "velocity": 96}, {"time": 2828, "pitch": 57, "duration": 1, "velocity": 107}, {"time": 2828, "pitch": 62, "duration": 1, "velocity": 117}, {"time": 2828, "pitch": 65, "duration": 1, "velocity": 107}, {"time": 2837, "pitch": 57, "duration": 8, "velocity": 99}, {"time": 2837, "pitch": 62, "duration": 9, "velocity": 102}, {"time": 2837, "pitch": 65, "duration": 9, "velocity": 99}, {"time": 2840, "pitch": 38, "duration": 1, "velocity": 74}, {"time": 2840, "pitch": 50, "duration": 1, "velocity": 95}, {"time": 2846, "pitch": 38, "duration": 8, "velocity": 92}, {"time": 2846, "pitch": 50, "duration": 7, "velocity": 117}, {"time": 2852, "pitch": 62, "duration": 6, "velocity": 127}, {"time": 2852, "pitch": 65, "duration": 6, "velocity": 117}, {"time": 2858, "pitch": 57, "duration": 1, "velocity": 97}, {"time": 2864, "pitch": 29, "duration": 11, "velocity": 112}, {"time": 2864, "pitch": 41, "duration": 11, "velocity": 117}, {"time": 2864, "pitch": 53, "duration": 11, "velocity": 112}, {"time": 2864, "pitch": 60, "duration": 11, "velocity": 85}, {"time": 2864, "pitch": 65, "duration": 11, "velocity": 97}, {"time": 2864, "pitch": 68, "duration": 11, "velocity": 93}, {"time": 2876, "pitch": 36, "duration": 11, "velocity": 127}, {"time": 2876, "pitch": 48, "duration": 10, "velocity": 117}, {"time": 2876, "pitch": 60, "duration": 10, "velocity": 107}, {"time": 2876, "pitch": 64, "duration": 10, "velocity": 122}, {"time": 2876, "pitch": 67, "duration": 10, "velocity": 112}, {"time": 2888, "pitch": 32, "duration": 11, "velocity": 127}, {"time": 2888, "pitch": 44, "duration": 11, "velocity": 127}, {"time": 2888, "pitch": 56, "duration": 11, "velocity": 117}, {"time": 2888, "pitch": 63, "duration": 10, "velocity": 127}, {"time": 2888, "pitch": 68, "duration": 10, "velocity": 117}, {"time": 2900, "pitch": 31, "duration": 11, "velocity": 107}, {"time": 2900, "pitch": 43, "duration": 12, "velocity": 112}, {"time": 2900, "pitch": 55, "duration": 11, "velocity": 99}, {"time": 2900, "pitch": 59, "duration": 11, "velocity": 112}, {"time": 2900, "pitch": 62, "duration": 11, "velocity": 122}, {"time": 2912, "pitch": 36, "duration": 18, "velocity": 96}, {"time": 2912, "pitch": 55, "duration": 7, "velocity": 99}, {"time": 2912, "pitch": 60, "duration": 7, "velocity": 92}, {"time": 2912, "pitch": 61, "duration": 1, "velocity": 78}, {"time": 2912, "pitch": 64, "duration": 8, "velocity": 93}, {"time": 2918, "pitch": 48, "duration": 6, "velocity": 95}, {"time": 2924, "pitch": 55, "duration": 10, "velocity": 122}, {"time": 2924, "pitch": 60, "duration": 11, "velocity": 127}, {"time": 2924, "pitch": 64, "duration": 11, "velocity": 102}, {"time": 2933, "pitch": 36, "duration": 1, "velocity": 63}, {"time": 2933, "pitch": 48, "duration": 1, "velocity": 93}, {"time": 2936, "pitch": 36, "duration": 2, "velocity": 73}, {"time": 2936, "pitch": 48, "duration": 2, "velocity": 93}, {"time": 2936, "pitch": 55, "duration": 1, "velocity": 67}, {"time": 2936, "pitch": 60, "duration": 1, "velocity": 72}, {"time": 2936, "pitch": 64, "duration": 2, "velocity": 74}, {"time": 2942, "pitch": 36, "duration": 10, "velocity": 82}, {"time": 2942, "pitch": 48, "duration": 7, "velocity": 99}, {"time": 2942, "pitch": 55, "duration": 3, "velocity": 97}, {"time": 2942, "pitch": 60, "duration": 4, "velocity": 102}, {"time": 2942, "pitch": 64, "duration": 4, "velocity": 99}, {"time": 2948, "pitch": 60, "duration": 5, "velocity": 127}, {"time": 2948, "pitch": 64, "duration": 5, "velocity": 112}, {"time": 2951, "pitch": 48, "duration": 2, "velocity": 97}, {"time": 2954, "pitch": 55, "duration": 1, "velocity": 99}, {"time": 2954, "pitch": 60, "duration": 1, "velocity": 57}, {"time": 2954, "pitch": 64, "duration": 1, "velocity": 40}, {"time": 2960, "pitch": 40, "duration": 20, "velocity": 78}, {"time": 2960, "pitch": 52, "duration": 20, "velocity": 95}, {"time": 2960, "pitch": 59, "duration": 5, "velocity": 100}, {"time": 2960, "pitch": 64, "duration": 5, "velocity": 97}, {"time": 2960, "pitch": 67, "duration": 5, "velocity": 96}, {"time": 2972, "pitch": 64, "duration": 13, "velocity": 117}, {"time": 2972, "pitch": 67, "duration": 13, "velocity": 102}, {"time": 2978, "pitch": 59, "duration": 5, "velocity": 78}, {"time": 2981, "pitch": 40, "duration": 2, "velocity": 75}, {"time": 2981, "pitch": 52, "duration": 1, "velocity": 88}, {"time": 2984, "pitch": 40, "duration": 1, "velocity": 88}, {"time": 2984, "pitch": 52, "duration": 1, "velocity": 102}, {"time": 2990, "pitch": 40, "duration": 13, "velocity": 93}, {"time": 2990, "pitch": 52, "duration": 8, "velocity": 102}, {"time": 2996, "pitch": 64, "duration": 7, "velocity": 122}, {"time": 2996, "pitch": 67, "duration": 7, "velocity": 117}, {"time": 2999, "pitch": 52, "duration": 2, "velocity": 92}, {"time": 3002, "pitch": 59, "duration": 1, "velocity": 90}, {"time": 3008, "pitch": 39, "duration": 7, "velocity": 127}, {"time": 3008, "pitch": 63, "duration": 7, "velocity": 122}, {"time": 3008, "pitch": 67, "duration": 5, "velocity": 100}, {"time": 3008, "pitch": 70, "duration": 8, "velocity": 122}, {"time": 3014, "pitch": 51, "duration": 2, "velocity": 75}, {"time": 3020, "pitch": 38, "duration": 10, "velocity": 97}, {"time": 3020, "pitch": 62, "duration": 9, "velocity": 127}, {"time": 3032, "pitch": 36, "duration": 4, "velocity": 97}, {"time": 3032, "pitch": 60, "duration": 4, "velocity": 117}, {"time": 3032, "pitch": 64, "duration": 4, "velocity": 100}, {"time": 3032, "pitch": 67, "duration": 4, "velocity": 100}, {"time": 3044, "pitch": 34, "duration": 7, "velocity": 127}, {"time": 3044, "pitch": 58, "duration": 8, "velocity": 127}, {"time": 3044, "pitch": 62, "duration": 9, "velocity": 102}, {"time": 3044, "pitch": 65, "duration": 8, "velocity": 90}, {"time": 3056, "pitch": 29, "duration": 17, "velocity": 85}, {"time": 3056, "pitch": 41, "duration": 17, "velocity": 99}, {"time": 3056, "pitch": 60, "duration": 5, "velocity": 100}, {"time": 3056, "pitch": 65, "duration": 5, "velocity": 102}, {"time": 3056, "pitch": 68, "duration": 5, "velocity": 112}, {"time": 3068, "pitch": 60, "duration": 2, "velocity": 117}, {"time": 3068, "pitch": 65, "duration": 2, "velocity": 127}, {"time": 3068, "pitch": 68, "duration": 2, "velocity": 127}, {"time": 3077, "pitch": 29, "duration": 1, "velocity": 37}, {"time": 3077, "pitch": 41, "duration": 2, "velocity": 93}, {"time": 3080, "pitch": 31, "duration": 9, "velocity": 79}, {"time": 3080, "pitch": 43, "duration": 8, "velocity": 107}, {"time": 3080, "pitch": 62, "duration": 2, "velocity": 97}, {"time": 3080, "pitch": 67, "duration": 2, "velocity": 95}, {"time": 3080, "pitch": 71, "duration": 2, "velocity": 92}, {"time": 3086, "pitch": 62, "duration": 7, "velocity": 112}, {"time": 3086, "pitch": 67, "duration": 8, "velocity": 127}, {"time": 3086, "pitch": 71, "duration": 8, "velocity": 117}, {"time": 3092, "pitch": 31, "duration": 5, "velocity": 92}, {"time": 3092, "pitch": 43, "duration": 6, "velocity": 112}, {"time": 3098, "pitch": 62, "duration": 2, "velocity": 127}, {"time": 3098, "pitch": 67, "duration": 1, "velocity": 122}, {"time": 3098, "pitch": 71, "duration": 1, "velocity": 96}, {"time": 3104, "pitch": 48, "duration": 47, "velocity": 71}, {"time": 3104, "pitch": 64, "duration": 8, "velocity": 96}, {"time": 3104, "pitch": 67, "duration": 8, "velocity": 96}, {"time": 3110, "pitch": 55, "duration": 7, "velocity": 47}, {"time": 3116, "pitch": 64, "duration": 11, "velocity": 90}, {"time": 3116, "pitch": 67, "duration": 12, "velocity": 92}, {"time": 3122, "pitch": 55, "duration": 7, "velocity": 58}, {"time": 3128, "pitch": 69, "duration": 11, "velocity": 76}, {"time": 3134, "pitch": 55, "duration": 8, "velocity": 57}, {"time": 3140, "pitch": 67, "duration": 11, "velocity": 100}, {"time": 3146, "pitch": 55, "duration": 6, "velocity": 40}, {"time": 3152, "pitch": 48, "duration": 44, "velocity": 69}, {"time": 3152, "pitch": 60, "duration": 7, "velocity": 83}, {"time": 3152, "pitch": 64, "duration": 7, "velocity": 77}, {"time": 3152, "pitch": 67, "duration": 7, "velocity": 71}, {"time": 3158, "pitch": 55, "duration": 8, "velocity": 55}, {"time": 3164, "pitch": 64, "duration": 8, "velocity": 85}, {"time": 3164, "pitch": 67, "duration": 8, "velocity": 83}, {"time": 3170, "pitch": 55, "duration": 8, "velocity": 64}, {"time": 3176, "pitch": 60, "duration": 2, "velocity": 39}, {"time": 3176, "pitch": 69, "duration": 10, "velocity": 86}, {"time": 3182, "pitch": 55, "duration": 8, "velocity": 59}, {"time": 3188, "pitch": 64, "duration": 11, "velocity": 70}, {"time": 3188, "pitch": 67, "duration": 8, "velocity": 72}, {"time": 3194, "pitch": 55, "duration": 7, "velocity": 66}, {"time": 3200, "pitch": 48, "duration": 44, "velocity": 92}, {"time": 3200, "pitch": 60, "duration": 8, "velocity": 83}, {"time": 3200, "pitch": 64, "duration": 11, "velocity": 66}, {"time": 3200, "pitch": 67, "duration": 8, "velocity": 77}, {"time": 3206, "pitch": 55, "duration": 7, "velocity": 43}, {"time": 3212, "pitch": 64, "duration": 13, "velocity": 85}, {"time": 3212, "pitch": 67, "duration": 8, "velocity": 75}, {"time": 3218, "pitch": 55, "duration": 10, "velocity": 72}, {"time": 3224, "pitch": 69, "duration": 10, "velocity": 78}, {"time": 3230, "pitch": 55, "duration": 8, "velocity": 60}, {"time": 3236, "pitch": 67, "duration": 11, "velocity": 102}, {"time": 3242, "pitch": 55, "duration": 6, "velocity": 50}, {"time": 3248, "pitch": 48, "duration": 103, "velocity": 73}, {"time": 3248, "pitch": 60, "duration": 103, "velocity": 70}, {"time": 3248, "pitch": 64, "duration": 103, "velocity": 82}, {"time": 3248, "pitch": 67, "duration": 102, "velocity": 81}, {"time": 3254, "pitch": 55, "duration": 95, "velocity": 40}, {"time": 3260, "pitch": 72, "duration": 90, "velocity": 83}], "annotations": [{"time": 248, "annotation": {"number": 64, "value": 127}, "group": "control_change"}, {"time": 284, "annotation": {"number": 64, "value": 0}, "group": "control_change"}, {"time": 290, "annotation": {"number": 64, "value": 127}, "group": "control_change"}, {"time": 331, "annotation": {"number": 64, "value": 0}, "group": "control_change"}, {"time": 336, "annotation": {"number": 64, "value": 127}, "group": "control_change"}, {"time": 380, "annotation": {"number": 64, "value": 0}, "group": "control_change"}, {"time": 385, "annotation": {"number": 64, "value": 127}, "group": "control_change"}, {"time": 428, "annotation": {"number": 64, "value": 0}, "group": "control_change"}, {"time": 432, "annotation": {"number": 64, "value": 127}, "group": "control_change"}, {"time": 476, "annotation": {"number": 64, "value": 0}, "group": "control_change"}, {"time": 485, "annotation": {"number": 64, "value": 127}, "group": "control_change"}, {"time": 522, "annotation": {"number": 64, "value": 0}, "group": "control_change"}, {"time": 527, "annotation": {"number": 64, "value": 127}, "group": "control_change"}, {"time": 548, "annotation": {"number": 64, "value": 0}, "group": "control_change"}, {"time": 558, "annotation": {"number": 64, "value": 127}, "group": "control_change"}, {"time": 572, "annotation": {"number": 64, "value": 0}, "group": "control_change"}, {"time": 582, "annotation": {"number": 64, "value": 127}, "group": "control_change"}, {"time": 618, "annotation": {"number": 64, "value": 0}, "group": "control_change"}, {"time": 622, "annotation": {"number": 64, "value": 127}, "group": "control_change"}, {"time": 666, "annotation": {"number": 64, "value": 0}, "group": "control_change"}, {"time": 668, "annotation": {"number": 64, "value": 127}, "group": "control_change"}, {"time": 714, "annotation": {"number": 64, "value": 0}, "group": "control_change"}, {"time": 716, "annotation": {"number": 64, "value": 127}, "group": "control_change"}, {"time": 762, "annotation": {"number": 64, "value": 0}, "group": "control_change"}, {"time": 765, "annotation": {"number": 64, "value": 127}, "group": "control_change"}, {"time": 810, "annotation": {"number": 64, "value": 0}, "group": "control_change"}, {"time": 812, "annotation": {"number": 64, "value": 127}, "group": "control_change"}, {"time": 858, "annotation": {"number": 64, "value": 0}, "group": "control_change"}, {"time": 860, "annotation": {"number": 64, "value": 127}, "group": "control_change"}, {"time": 906, "annotation": {"number": 64, "value": 0}, "group": "control_change"}, {"time": 908, "annotation": {"number": 64, "value": 127}, "group": "control_change"}, {"time": 954, "annotation": {"number": 64, "value": 0}, "group": "control_change"}, {"time": 957, "annotation": {"number": 64, "value": 127}, "group": "control_change"}, {"time": 1001, "annotation": {"number": 64, "value": 0}, "group": "control_change"}, {"time": 1005, "annotation": {"number": 64, "value": 127}, "group": "control_change"}, {"time": 1051, "annotation": {"number": 64, "value": 0}, "group": "control_change"}, {"time": 1054, "annotation": {"number": 64, "value": 127}, "group": "control_change"}, {"time": 1098, "annotation": {"number": 64, "value": 0}, "group": "control_change"}, {"time": 1101, "annotation": {"number": 64, "value": 127}, "group": "control_change"}, {"time": 1146, "annotation": {"number": 64, "value": 0}, "group": "control_change"}, {"time": 1148, "annotation": {"number": 64, "value": 127}, "group": "control_change"}, {"time": 1169, "annotation": {"number": 64, "value": 0}, "group": "control_change"}, {"time": 1172, "annotation": {"number": 64, "value": 127}, "group": "control_change"}, {"time": 1194, "annotation": {"number": 64, "value": 0}, "group": "control_change"}, {"time": 1196, "annotation": {"number": 64, "value": 127}, "group": "control_change"}, {"time": 1242, "annotation": {"number": 64, "value": 0}, "group": "control_change"}, {"time": 1244, "annotation": {"number": 64, "value": 127}, "group": "control_change"}, {"time": 1290, "annotation": {"number": 64, "value": 0}, "group": "control_change"}, {"time": 1293, "annotation": {"number": 64, "value": 127}, "group": "control_change"}, {"time": 1338, "annotation": {"number": 64, "value": 0}, "group": "control_change"}, {"time": 1340, "annotation": {"number": 64, "value": 127}, "group": "control_change"}, {"time": 1363, "annotation": {"number": 64, "value": 0}, "group": "control_change"}, {"time": 1365, "annotation": {"number": 64, "value": 127}, "group": "control_change"}, {"time": 1385, "annotation": {"number": 64, "value": 0}, "group": "control_change"}, {"time": 1388, "annotation": {"number": 64, "value": 127}, "group": "control_change"}, {"time": 1433, "annotation": {"number": 64, "value": 0}, "group": "control_change"}, {"time": 1436, "annotation": {"number": 64, "value": 127}, "group": "control_change"}, {"time": 1442, "annotation": {"number": 64, "value": 0}, "group": "control_change"}, {"time": 1486, "annotation": {"number": 64, "value": 127}, "group": "control_change"}, {"time": 1529, "annotation": {"number": 64, "value": 0}, "group": "control_change"}, {"time": 1593, "annotation": {"number": 64, "value": 127}, "group": "control_change"}, {"time": 1626, "annotation": {"number": 64, "value": 0}, "group": "control_change"}, {"time": 1629, "annotation": {"number": 64, "value": 127}, "group": "control_change"}, {"time": 1674, "annotation": {"number": 64, "value": 0}, "group": "control_change"}, {"time": 1677, "annotation": {"number": 64, "value": 127}, "group": "control_change"}, {"time": 1721, "annotation": {"number": 64, "value": 0}, "group": "control_change"}, {"time": 1724, "annotation": {"number": 64, "value": 127}, "group": "control_change"}, {"time": 1769, "annotation": {"number": 64, "value": 0}, "group": "control_change"}, {"time": 1772, "annotation": {"number": 64, "value": 127}, "group": "control_change"}, {"time": 1817, "annotation": {"number": 64, "value": 0}, "group": "control_change"}, {"time": 1820, "annotation": {"number": 64, "value": 127}, "group": "control_change"}, {"time": 1840, "annotation": {"number": 64, "value": 0}, "group": "control_change"}, {"time": 1843, "annotation": {"number": 64, "value": 127}, "group": "control_change"}, {"time": 1865, "annotation": {"number": 64, "value": 0}, "group": "control_change"}, {"time": 1868, "annotation": {"number": 64, "value": 127}, "group": "control_change"}, {"time": 1889, "annotation": {"number": 64, "value": 0}, "group": "control_change"}, {"time": 1891, "annotation": {"number": 64, "value": 127}, "group": "control_change"}, {"time": 1913, "annotation": {"number": 64, "value": 0}, "group": "control_change"}, {"time": 1916, "annotation": {"number": 64, "value": 127}, "group": "control_change"}, {"time": 1938, "annotation": {"number": 64, "value": 0}, "group": "control_change"}, {"time": 1940, "annotation": {"number": 64, "value": 127}, "group": "control_change"}, {"time": 1962, "annotation": {"number": 64, "value": 0}, "group": "control_change"}, {"time": 1965, "annotation": {"number": 64, "value": 127}, "group": "control_change"}, {"time": 1985, "annotation": {"number": 64, "value": 0}, "group": "control_change"}, {"time": 1987, "annotation": {"number": 64, "value": 127}, "group": "control_change"}, {"time": 2010, "annotation": {"number": 64, "value": 0}, "group": "control_change"}, {"time": 2013, "annotation": {"number": 64, "value": 127}, "group": "control_change"}, {"time": 2058, "annotation": {"number": 64, "value": 0}, "group": "control_change"}, {"time": 2061, "annotation": {"number": 64, "value": 127}, "group": "control_change"}, {"time": 2082, "annotation": {"number": 64, "value": 0}, "group": "control_change"}, {"time": 2084, "annotation": {"number": 64, "value": 127}, "group": "control_change"}, {"time": 2107, "annotation": {"number": 64, "value": 0}, "group": "control_change"}, {"time": 2156, "annotation": {"number": 64, "value": 127}, "group": "control_change"}, {"time": 2159, "annotation": {"number": 64, "value": 0}, "group": "control_change"}, {"time": 2161, "annotation": {"number": 64, "value": 127}, "group": "control_change"}, {"time": 2176, "annotation": {"number": 64, "value": 0}, "group": "control_change"}, {"time": 2179, "annotation": {"number": 64, "value": 127}, "group": "control_change"}, {"time": 2202, "annotation": {"number": 64, "value": 0}, "group": "control_change"}, {"time": 2204, "annotation": {"number": 64, "value": 127}, "group": "control_change"}, {"time": 2250, "annotation": {"number": 64, "value": 0}, "group": "control_change"}, {"time": 2252, "annotation": {"number": 64, "value": 127}, "group": "control_change"}, {"time": 2262, "annotation": {"number": 64, "value": 0}, "group": "control_change"}, {"time": 2264, "annotation": {"number": 64, "value": 127}, "group": "control_change"}, {"time": 2273, "annotation": {"number": 64, "value": 0}, "group": "control_change"}, {"time": 2275, "annotation": {"number": 64, "value": 127}, "group": "control_change"}, {"time": 2286, "annotation": {"number": 64, "value": 0}, "group": "control_change"}, {"time": 2288, "annotation": {"number": 64, "value": 127}, "group": "control_change"}, {"time": 2297, "annotation": {"number": 64, "value": 0}, "group": "control_change"}, {"time": 2300, "annotation": {"number": 64, "value": 127}, "group": "control_change"}, {"time": 2322, "annotation": {"number": 64, "value": 0}, "group": "control_change"}, {"time": 2324, "annotation": {"number": 64, "value": 127}, "group": "control_change"}, {"time": 2346, "annotation": {"number": 64, "value": 0}, "group": "control_change"}, {"time": 2348, "annotation": {"number": 64, "value": 127}, "group": "control_change"}, {"time": 2380, "annotation": {"number": 64, "value": 0}, "group": "control_change"}, {"time": 2383, "annotation": {"number": 64, "value": 127}, "group": "control_change"}, {"time": 2416, "annotation": {"number": 64, "value": 0}, "group": "control_change"}, {"time": 2419, "annotation": {"number": 64, "value": 127}, "group": "control_change"}, {"time": 2453, "annotation": {"number": 64, "value": 0}, "group": "control_change"}, {"time": 2456, "annotation": {"number": 64, "value": 127}, "group": "control_change"}, {"time": 2486, "annotation": {"number": 64, "value": 0}, "group": "control_change"}, {"time": 2489, "annotation": {"number": 64, "value": 127}, "group": "control_change"}, {"time": 2489, "annotation": {"number": 64, "value": 0}, "group": "control_change"}, {"time": 2492, "annotation": {"number": 64, "value": 127}, "group": "control_change"}, {"time": 2523, "annotation": {"number": 64, "value": 0}, "group": "control_change"}, {"time": 2528, "annotation": {"number": 64, "value": 127}, "group": "control_change"}, {"time": 2559, "annotation": {"number": 64, "value": 0}, "group": "control_change"}, {"time": 2559, "annotation": {"number": 64, "value": 127}, "group": "control_change"}, {"time": 2563, "annotation": {"number": 64, "value": 127}, "group": "control_change"}, {"time": 2564, "annotation": {"number": 64, "value": 127}, "group": "control_change"}, {"time": 2597, "annotation": {"number": 64, "value": 0}, "group": "control_change"}, {"time": 2600, "annotation": {"number": 64, "value": 127}, "group": "control_change"}, {"time": 2633, "annotation": {"number": 64, "value": 0}, "group": "control_change"}, {"time": 2636, "annotation": {"number": 64, "value": 127}, "group": "control_change"}, {"time": 2670, "annotation": {"number": 64, "value": 0}, "group": "control_change"}, {"time": 2721, "annotation": {"number": 64, "value": 127}, "group": "control_change"}, {"time": 2741, "annotation": {"number": 64, "value": 0}, "group": "control_change"}, {"time": 2743, "annotation": {"number": 64, "value": 127}, "group": "control_change"}, {"time": 2766, "annotation": {"number": 64, "value": 0}, "group": "control_change"}, {"time": 2769, "annotation": {"number": 64, "value": 127}, "group": "control_change"}, {"time": 2814, "annotation": {"number": 64, "value": 0}, "group": "control_change"}, {"time": 2817, "annotation": {"number": 64, "value": 127}, "group": "control_change"}, {"time": 2838, "annotation": {"number": 64, "value": 0}, "group": "control_change"}, {"time": 2840, "annotation": {"number": 64, "value": 127}, "group": "control_change"}, {"time": 2863, "annotation": {"number": 64, "value": 0}, "group": "control_change"}, {"time": 2912, "annotation": {"number": 64, "value": 127}, "group": "control_change"}, {"time": 2915, "annotation": {"number": 64, "value": 0}, "group": "control_change"}, {"time": 2917, "annotation": {"number": 64, "value": 127}, "group": "control_change"}, {"time": 2932, "annotation": {"number": 64, "value": 0}, "group": "control_change"}, {"time": 2935, "annotation": {"number": 64, "value": 127}, "group": "control_change"}, {"time": 2958, "annotation": {"number": 64, "value": 0}, "group": "control_change"}, {"time": 2960, "annotation": {"number": 64, "value": 127}, "group": "control_change"}, {"time": 3006, "annotation": {"number": 64, "value": 0}, "group": "control_change"}, {"time": 3008, "annotation": {"number": 64, "value": 127}, "group": "control_change"}, {"time": 3018, "annotation": {"number": 64, "value": 0}, "group": "control_change"}, {"time": 3020, "annotation": {"number": 64, "value": 127}, "group": "control_change"}, {"time": 3029, "annotation": {"number": 64, "value": 0}, "group": "control_change"}, {"time": 3031, "annotation": {"number": 64, "value": 127}, "group": "control_change"}, {"time": 3042, "annotation": {"number": 64, "value": 0}, "group": "control_change"}, {"time": 3044, "annotation": {"number": 64, "value": 127}, "group": "control_change"}, {"time": 3053, "annotation": {"number": 64, "value": 0}, "group": "control_change"}, {"time": 3056, "annotation": {"number": 64, "value": 127}, "group": "control_change"}, {"time": 3078, "annotation": {"number": 64, "value": 0}, "group": "control_change"}, {"time": 3080, "annotation": {"number": 64, "value": 127}, "group": "control_change"}, {"time": 3102, "annotation": {"number": 64, "value": 0}, "group": "control_change"}, {"time": 3105, "annotation": {"number": 64, "value": 127}, "group": "control_change"}, {"time": 3149, "annotation": {"number": 64, "value": 0}, "group": "control_change"}, {"time": 3152, "annotation": {"number": 64, "value": 127}, "group": "control_change"}, {"time": 3174, "annotation": {"number": 64, "value": 0}, "group": "control_change"}, {"time": 3176, "annotation": {"number": 64, "value": 127}, "group": "control_change"}, {"time": 3196, "annotation": {"number": 64, "value": 0}, "group": "control_change"}, {"time": 3200, "annotation": {"number": 64, "value": 127}, "group": "control_change"}, {"time": 3245, "annotation": {"number": 64, "value": 0}, "group": "control_change"}, {"time": 3248, "annotation": {"number": 64, "value": 127}, "group": "control_change"}, {"time": 3370, "annotation": {"number": 64, "value": 0}, "group": "control_change"}, {"time": 3371, "annotation": {"number": 64, "value": 127}, "group": "control_change"}, {"time": 3372, "annotation": {"number": 64, "value": 0}, "group": "control_change"}, {"time": 3374, "annotation": {"number": 64, "value": 127}, "group": "control_change"}, {"time": 3377, "annotation": {"number": 64, "value": 0}, "group": "control_change"}]}]}