{"metadata": {"schema_version": "0.2", "title": "None", "source_filename": "173.mid", "source_format": "midi"}, "resolution": 12, "tempos": [{"time": 0, "qpm": 78.9999657666815}], "time_signatures": [{"time": 0, "numerator": 1, "denominator": 4}], "tracks": [{"program": 4, "is_drum": false, "name": "MELODY", "notes": [{"time": 732, "pitch": 69, "duration": 6, "velocity": 99}, {"time": 738, "pitch": 71, "duration": 6, "velocity": 93}, {"time": 744, "pitch": 78, "duration": 24, "velocity": 112}, {"time": 768, "pitch": 71, "duration": 6, "velocity": 112}, {"time": 774, "pitch": 69, "duration": 30, "velocity": 96}, {"time": 804, "pitch": 66, "duration": 6, "velocity": 107}, {"time": 810, "pitch": 69, "duration": 6, "velocity": 97}, {"time": 816, "pitch": 76, "duration": 24, "velocity": 99}, {"time": 840, "pitch": 69, "duration": 6, "velocity": 95}, {"time": 846, "pitch": 71, "duration": 30, "velocity": 100}, {"time": 876, "pitch": 69, "duration": 6, "velocity": 100}, {"time": 882, "pitch": 71, "duration": 6, "velocity": 100}, {"time": 888, "pitch": 78, "duration": 6, "velocity": 95}, {"time": 894, "pitch": 78, "duration": 6, "velocity": 122}, {"time": 900, "pitch": 78, "duration": 6, "velocity": 117}, {"time": 906, "pitch": 78, "duration": 6, "velocity": 122}, {"time": 912, "pitch": 71, "duration": 6, "velocity": 117}, {"time": 918, "pitch": 69, "duration": 24, "velocity": 99}, {"time": 942, "pitch": 71, "duration": 6, "velocity": 112}, {"time": 948, "pitch": 69, "duration": 6, "velocity": 96}, {"time": 954, "pitch": 66, "duration": 66, "velocity": 99}, {"time": 1020, "pitch": 69, "duration": 6, "velocity": 99}, {"time": 1026, "pitch": 71, "duration": 6, "velocity": 93}, {"time": 1032, "pitch": 78, "duration": 24, "velocity": 112}, {"time": 1056, "pitch": 71, "duration": 6, "velocity": 112}, {"time": 1062, "pitch": 69, "duration": 30, "velocity": 96}, {"time": 1092, "pitch": 66, "duration": 6, "velocity": 107}, {"time": 1098, "pitch": 69, "duration": 6, "velocity": 97}, {"time": 1104, "pitch": 76, "duration": 6, "velocity": 99}, {"time": 1110, "pitch": 76, "duration": 18, "velocity": 122}, {"time": 1128, "pitch": 69, "duration": 6, "velocity": 95}, {"time": 1134, "pitch": 71, "duration": 30, "velocity": 100}, {"time": 1164, "pitch": 69, "duration": 6, "velocity": 100}, {"time": 1170, "pitch": 71, "duration": 6, "velocity": 100}, {"time": 1176, "pitch": 78, "duration": 6, "velocity": 95}, {"time": 1182, "pitch": 78, "duration": 6, "velocity": 122}, {"time": 1188, "pitch": 78, "duration": 6, "velocity": 117}, {"time": 1194, "pitch": 78, "duration": 6, "velocity": 122}, {"time": 1200, "pitch": 71, "duration": 6, "velocity": 117}, {"time": 1206, "pitch": 69, "duration": 12, "velocity": 112}, {"time": 1218, "pitch": 71, "duration": 18, "velocity": 127}, {"time": 1236, "pitch": 74, "duration": 12, "velocity": 127}, {"time": 1248, "pitch": 71, "duration": 54, "velocity": 112}, {"time": 1302, "pitch": 71, "duration": 6, "velocity": 117}, {"time": 1308, "pitch": 73, "duration": 6, "velocity": 127}, {"time": 1314, "pitch": 74, "duration": 6, "velocity": 117}, {"time": 1320, "pitch": 71, "duration": 6, "velocity": 107}, {"time": 1326, "pitch": 74, "duration": 6, "velocity": 122}, {"time": 1332, "pitch": 71, "duration": 6, "velocity": 127}, {"time": 1338, "pitch": 74, "duration": 6, "velocity": 127}, {"time": 1344, "pitch": 71, "duration": 6, "velocity": 117}, {"time": 1350, "pitch": 74, "duration": 6, "velocity": 127}, {"time": 1356, "pitch": 76, "duration": 6, "velocity": 127}, {"time": 1362, "pitch": 76, "duration": 18, "velocity": 127}, {"time": 1380, "pitch": 78, "duration": 6, "velocity": 127}, {"time": 1386, "pitch": 69, "duration": 6, "velocity": 117}, {"time": 1392, "pitch": 66, "duration": 6, "velocity": 127}, {"time": 1398, "pitch": 69, "duration": 6, "velocity": 122}, {"time": 1404, "pitch": 66, "duration": 6, "velocity": 122}, {"time": 1410, "pitch": 69, "duration": 6, "velocity": 117}, {"time": 1416, "pitch": 66, "duration": 6, "velocity": 127}, {"time": 1422, "pitch": 69, "duration": 6, "velocity": 127}, {"time": 1428, "pitch": 71, "duration": 6, "velocity": 112}, {"time": 1434, "pitch": 71, "duration": 18, "velocity": 127}, {"time": 1452, "pitch": 71, "duration": 6, "velocity": 107}, {"time": 1458, "pitch": 74, "duration": 6, "velocity": 127}, {"time": 1464, "pitch": 71, "duration": 6, "velocity": 107}, {"time": 1470, "pitch": 74, "duration": 6, "velocity": 127}, {"time": 1476, "pitch": 71, "duration": 6, "velocity": 117}, {"time": 1482, "pitch": 74, "duration": 6, "velocity": 127}, {"time": 1488, "pitch": 71, "duration": 6, "velocity": 117}, {"time": 1494, "pitch": 74, "duration": 6, "velocity": 127}, {"time": 1500, "pitch": 76, "duration": 6, "velocity": 100}, {"time": 1506, "pitch": 76, "duration": 12, "velocity": 127}, {"time": 1518, "pitch": 69, "duration": 6, "velocity": 112}, {"time": 1524, "pitch": 69, "duration": 6, "velocity": 112}, {"time": 1530, "pitch": 79, "duration": 12, "velocity": 127}, {"time": 1542, "pitch": 78, "duration": 12, "velocity": 127}, {"time": 1554, "pitch": 76, "duration": 6, "velocity": 107}, {"time": 1560, "pitch": 79, "duration": 6, "velocity": 102}, {"time": 1566, "pitch": 78, "duration": 30, "velocity": 127}, {"time": 1596, "pitch": 71, "duration": 6, "velocity": 112}, {"time": 1602, "pitch": 74, "duration": 6, "velocity": 127}, {"time": 1608, "pitch": 71, "duration": 6, "velocity": 112}, {"time": 1614, "pitch": 74, "duration": 6, "velocity": 127}, {"time": 1620, "pitch": 71, "duration": 6, "velocity": 127}, {"time": 1626, "pitch": 74, "duration": 6, "velocity": 127}, {"time": 1632, "pitch": 71, "duration": 6, "velocity": 117}, {"time": 1638, "pitch": 74, "duration": 6, "velocity": 122}, {"time": 1644, "pitch": 76, "duration": 6, "velocity": 127}, {"time": 1650, "pitch": 76, "duration": 18, "velocity": 127}, {"time": 1668, "pitch": 78, "duration": 6, "velocity": 127}, {"time": 1674, "pitch": 69, "duration": 6, "velocity": 117}, {"time": 1680, "pitch": 66, "duration": 6, "velocity": 122}, {"time": 1686, "pitch": 69, "duration": 6, "velocity": 117}, {"time": 1692, "pitch": 66, "duration": 6, "velocity": 127}, {"time": 1698, "pitch": 69, "duration": 6, "velocity": 122}, {"time": 1704, "pitch": 66, "duration": 6, "velocity": 127}, {"time": 1710, "pitch": 69, "duration": 6, "velocity": 127}, {"time": 1716, "pitch": 71, "duration": 6, "velocity": 127}, {"time": 1722, "pitch": 71, "duration": 18, "velocity": 122}, {"time": 1740, "pitch": 71, "duration": 6, "velocity": 112}, {"time": 1746, "pitch": 74, "duration": 6, "velocity": 127}, {"time": 1752, "pitch": 71, "duration": 6, "velocity": 112}, {"time": 1758, "pitch": 74, "duration": 6, "velocity": 127}, {"time": 1764, "pitch": 71, "duration": 6, "velocity": 117}, {"time": 1770, "pitch": 74, "duration": 6, "velocity": 127}, {"time": 1776, "pitch": 71, "duration": 6, "velocity": 112}, {"time": 1782, "pitch": 74, "duration": 12, "velocity": 122}, {"time": 1794, "pitch": 73, "duration": 19, "velocity": 127}, {"time": 1812, "pitch": 74, "duration": 12, "velocity": 117}, {"time": 1824, "pitch": 71, "duration": 60, "velocity": 99}, {"time": 1884, "pitch": 69, "duration": 6, "velocity": 99}, {"time": 1890, "pitch": 71, "duration": 6, "velocity": 93}, {"time": 1896, "pitch": 78, "duration": 24, "velocity": 112}, {"time": 1920, "pitch": 71, "duration": 6, "velocity": 112}, {"time": 1926, "pitch": 69, "duration": 30, "velocity": 96}, {"time": 1956, "pitch": 66, "duration": 6, "velocity": 107}, {"time": 1962, "pitch": 69, "duration": 6, "velocity": 97}, {"time": 1968, "pitch": 76, "duration": 24, "velocity": 99}, {"time": 1992, "pitch": 69, "duration": 6, "velocity": 95}, {"time": 1998, "pitch": 71, "duration": 30, "velocity": 100}, {"time": 2028, "pitch": 69, "duration": 6, "velocity": 100}, {"time": 2034, "pitch": 71, "duration": 6, "velocity": 100}, {"time": 2040, "pitch": 78, "duration": 6, "velocity": 95}, {"time": 2046, "pitch": 78, "duration": 6, "velocity": 122}, {"time": 2052, "pitch": 78, "duration": 6, "velocity": 117}, {"time": 2058, "pitch": 78, "duration": 6, "velocity": 122}, {"time": 2064, "pitch": 71, "duration": 6, "velocity": 117}, {"time": 2070, "pitch": 69, "duration": 12, "velocity": 99}, {"time": 2082, "pitch": 71, "duration": 18, "velocity": 117}, {"time": 2100, "pitch": 74, "duration": 12, "velocity": 127}, {"time": 2112, "pitch": 71, "duration": 48, "velocity": 112}, {"time": 2496, "pitch": 69, "duration": 6, "velocity": 99}, {"time": 2502, "pitch": 71, "duration": 6, "velocity": 93}, {"time": 2508, "pitch": 78, "duration": 24, "velocity": 112}, {"time": 2532, "pitch": 71, "duration": 6, "velocity": 112}, {"time": 2538, "pitch": 69, "duration": 30, "velocity": 96}, {"time": 2568, "pitch": 66, "duration": 6, "velocity": 107}, {"time": 2574, "pitch": 69, "duration": 6, "velocity": 97}, {"time": 2580, "pitch": 76, "duration": 6, "velocity": 99}, {"time": 2586, "pitch": 76, "duration": 18, "velocity": 122}, {"time": 2604, "pitch": 69, "duration": 6, "velocity": 95}, {"time": 2610, "pitch": 71, "duration": 30, "velocity": 100}, {"time": 2640, "pitch": 69, "duration": 6, "velocity": 100}, {"time": 2646, "pitch": 71, "duration": 6, "velocity": 100}, {"time": 2652, "pitch": 78, "duration": 6, "velocity": 95}, {"time": 2658, "pitch": 78, "duration": 6, "velocity": 122}, {"time": 2664, "pitch": 78, "duration": 6, "velocity": 117}, {"time": 2670, "pitch": 78, "duration": 6, "velocity": 122}, {"time": 2676, "pitch": 71, "duration": 6, "velocity": 117}, {"time": 2682, "pitch": 69, "duration": 12, "velocity": 112}, {"time": 2694, "pitch": 71, "duration": 18, "velocity": 127}, {"time": 2712, "pitch": 74, "duration": 12, "velocity": 127}, {"time": 2724, "pitch": 71, "duration": 54, "velocity": 112}, {"time": 2778, "pitch": 71, "duration": 6, "velocity": 117}, {"time": 2784, "pitch": 73, "duration": 6, "velocity": 127}, {"time": 2790, "pitch": 74, "duration": 6, "velocity": 117}, {"time": 2796, "pitch": 71, "duration": 6, "velocity": 107}, {"time": 2802, "pitch": 74, "duration": 6, "velocity": 122}, {"time": 2808, "pitch": 71, "duration": 6, "velocity": 127}, {"time": 2814, "pitch": 74, "duration": 6, "velocity": 127}, {"time": 2820, "pitch": 71, "duration": 6, "velocity": 117}, {"time": 2826, "pitch": 74, "duration": 6, "velocity": 127}, {"time": 2832, "pitch": 76, "duration": 6, "velocity": 127}, {"time": 2838, "pitch": 76, "duration": 18, "velocity": 127}, {"time": 2856, "pitch": 78, "duration": 6, "velocity": 127}, {"time": 2862, "pitch": 69, "duration": 6, "velocity": 117}, {"time": 2868, "pitch": 66, "duration": 6, "velocity": 127}, {"time": 2874, "pitch": 69, "duration": 6, "velocity": 122}, {"time": 2880, "pitch": 66, "duration": 6, "velocity": 122}, {"time": 2886, "pitch": 69, "duration": 6, "velocity": 117}, {"time": 2892, "pitch": 66, "duration": 6, "velocity": 127}, {"time": 2898, "pitch": 69, "duration": 6, "velocity": 127}, {"time": 2904, "pitch": 71, "duration": 6, "velocity": 112}, {"time": 2910, "pitch": 71, "duration": 18, "velocity": 127}, {"time": 2928, "pitch": 71, "duration": 6, "velocity": 107}, {"time": 2934, "pitch": 74, "duration": 6, "velocity": 127}, {"time": 2940, "pitch": 71, "duration": 6, "velocity": 107}, {"time": 2946, "pitch": 74, "duration": 6, "velocity": 127}, {"time": 2952, "pitch": 71, "duration": 6, "velocity": 117}, {"time": 2958, "pitch": 74, "duration": 6, "velocity": 127}, {"time": 2964, "pitch": 71, "duration": 6, "velocity": 117}, {"time": 2970, "pitch": 74, "duration": 6, "velocity": 127}, {"time": 2976, "pitch": 76, "duration": 6, "velocity": 100}, {"time": 2982, "pitch": 76, "duration": 12, "velocity": 127}, {"time": 2994, "pitch": 69, "duration": 6, "velocity": 112}, {"time": 3000, "pitch": 69, "duration": 6, "velocity": 112}, {"time": 3006, "pitch": 79, "duration": 12, "velocity": 127}, {"time": 3018, "pitch": 78, "duration": 12, "velocity": 127}, {"time": 3030, "pitch": 76, "duration": 6, "velocity": 107}, {"time": 3036, "pitch": 79, "duration": 6, "velocity": 102}, {"time": 3042, "pitch": 78, "duration": 30, "velocity": 127}, {"time": 3072, "pitch": 71, "duration": 6, "velocity": 112}, {"time": 3078, "pitch": 74, "duration": 6, "velocity": 127}, {"time": 3084, "pitch": 71, "duration": 6, "velocity": 112}, {"time": 3090, "pitch": 74, "duration": 6, "velocity": 127}, {"time": 3096, "pitch": 71, "duration": 6, "velocity": 127}, {"time": 3102, "pitch": 74, "duration": 6, "velocity": 127}, {"time": 3108, "pitch": 71, "duration": 6, "velocity": 117}, {"time": 3114, "pitch": 74, "duration": 6, "velocity": 122}, {"time": 3120, "pitch": 76, "duration": 6, "velocity": 127}, {"time": 3126, "pitch": 76, "duration": 18, "velocity": 127}, {"time": 3144, "pitch": 78, "duration": 6, "velocity": 127}, {"time": 3150, "pitch": 69, "duration": 6, "velocity": 117}, {"time": 3156, "pitch": 66, "duration": 6, "velocity": 122}, {"time": 3162, "pitch": 69, "duration": 6, "velocity": 117}, {"time": 3168, "pitch": 66, "duration": 6, "velocity": 127}, {"time": 3174, "pitch": 69, "duration": 6, "velocity": 122}, {"time": 3180, "pitch": 66, "duration": 6, "velocity": 127}, {"time": 3186, "pitch": 69, "duration": 6, "velocity": 127}, {"time": 3192, "pitch": 71, "duration": 6, "velocity": 127}, {"time": 3198, "pitch": 71, "duration": 18, "velocity": 122}, {"time": 3216, "pitch": 71, "duration": 6, "velocity": 112}, {"time": 3222, "pitch": 74, "duration": 6, "velocity": 127}, {"time": 3228, "pitch": 71, "duration": 6, "velocity": 112}, {"time": 3234, "pitch": 74, "duration": 6, "velocity": 127}, {"time": 3240, "pitch": 71, "duration": 6, "velocity": 117}, {"time": 3246, "pitch": 74, "duration": 6, "velocity": 127}, {"time": 3252, "pitch": 71, "duration": 6, "velocity": 112}, {"time": 3258, "pitch": 74, "duration": 12, "velocity": 122}, {"time": 3270, "pitch": 73, "duration": 19, "velocity": 127}, {"time": 3288, "pitch": 74, "duration": 12, "velocity": 117}, {"time": 3300, "pitch": 71, "duration": 66, "velocity": 99}, {"time": 3366, "pitch": 74, "duration": 6, "velocity": 117}, {"time": 3372, "pitch": 71, "duration": 6, "velocity": 107}, {"time": 3378, "pitch": 74, "duration": 6, "velocity": 122}, {"time": 3384, "pitch": 71, "duration": 6, "velocity": 127}, {"time": 3390, "pitch": 74, "duration": 6, "velocity": 127}, {"time": 3396, "pitch": 71, "duration": 6, "velocity": 117}, {"time": 3402, "pitch": 74, "duration": 6, "velocity": 127}, {"time": 3408, "pitch": 76, "duration": 6, "velocity": 127}, {"time": 3414, "pitch": 76, "duration": 18, "velocity": 127}, {"time": 3432, "pitch": 78, "duration": 6, "velocity": 127}, {"time": 3438, "pitch": 69, "duration": 6, "velocity": 117}, {"time": 3444, "pitch": 66, "duration": 6, "velocity": 127}, {"time": 3450, "pitch": 69, "duration": 6, "velocity": 122}, {"time": 3456, "pitch": 66, "duration": 6, "velocity": 122}, {"time": 3462, "pitch": 69, "duration": 6, "velocity": 117}, {"time": 3468, "pitch": 66, "duration": 6, "velocity": 127}, {"time": 3474, "pitch": 69, "duration": 6, "velocity": 127}, {"time": 3480, "pitch": 71, "duration": 6, "velocity": 112}, {"time": 3486, "pitch": 71, "duration": 18, "velocity": 127}, {"time": 3504, "pitch": 71, "duration": 6, "velocity": 107}, {"time": 3510, "pitch": 74, "duration": 6, "velocity": 127}, {"time": 3516, "pitch": 71, "duration": 6, "velocity": 107}, {"time": 3522, "pitch": 74, "duration": 6, "velocity": 127}, {"time": 3528, "pitch": 71, "duration": 6, "velocity": 117}, {"time": 3534, "pitch": 74, "duration": 6, "velocity": 127}, {"time": 3540, "pitch": 71, "duration": 6, "velocity": 117}, {"time": 3546, "pitch": 74, "duration": 6, "velocity": 127}, {"time": 3552, "pitch": 76, "duration": 6, "velocity": 100}, {"time": 3558, "pitch": 76, "duration": 12, "velocity": 127}, {"time": 3570, "pitch": 69, "duration": 6, "velocity": 112}, {"time": 3576, "pitch": 69, "duration": 6, "velocity": 112}, {"time": 3582, "pitch": 79, "duration": 12, "velocity": 127}, {"time": 3594, "pitch": 78, "duration": 12, "velocity": 127}, {"time": 3606, "pitch": 76, "duration": 6, "velocity": 107}, {"time": 3612, "pitch": 79, "duration": 6, "velocity": 102}, {"time": 3618, "pitch": 78, "duration": 30, "velocity": 127}, {"time": 3648, "pitch": 71, "duration": 6, "velocity": 112}, {"time": 3654, "pitch": 74, "duration": 6, "velocity": 127}, {"time": 3660, "pitch": 71, "duration": 6, "velocity": 112}, {"time": 3666, "pitch": 74, "duration": 6, "velocity": 127}, {"time": 3672, "pitch": 71, "duration": 6, "velocity": 127}, {"time": 3678, "pitch": 74, "duration": 6, "velocity": 127}, {"time": 3684, "pitch": 71, "duration": 6, "velocity": 117}, {"time": 3690, "pitch": 74, "duration": 6, "velocity": 122}, {"time": 3696, "pitch": 76, "duration": 6, "velocity": 127}, {"time": 3702, "pitch": 76, "duration": 18, "velocity": 127}, {"time": 3720, "pitch": 78, "duration": 6, "velocity": 127}, {"time": 3726, "pitch": 69, "duration": 6, "velocity": 117}, {"time": 3732, "pitch": 66, "duration": 6, "velocity": 122}, {"time": 3738, "pitch": 69, "duration": 6, "velocity": 117}, {"time": 3744, "pitch": 66, "duration": 6, "velocity": 127}, {"time": 3750, "pitch": 69, "duration": 6, "velocity": 122}, {"time": 3756, "pitch": 66, "duration": 6, "velocity": 127}, {"time": 3762, "pitch": 69, "duration": 6, "velocity": 127}, {"time": 3768, "pitch": 71, "duration": 6, "velocity": 127}, {"time": 3774, "pitch": 71, "duration": 18, "velocity": 122}, {"time": 3792, "pitch": 71, "duration": 6, "velocity": 112}, {"time": 3798, "pitch": 74, "duration": 6, "velocity": 127}, {"time": 3804, "pitch": 71, "duration": 6, "velocity": 112}, {"time": 3810, "pitch": 74, "duration": 6, "velocity": 127}, {"time": 3816, "pitch": 71, "duration": 6, "velocity": 117}, {"time": 3822, "pitch": 74, "duration": 6, "velocity": 127}, {"time": 3828, "pitch": 71, "duration": 6, "velocity": 112}, {"time": 3834, "pitch": 74, "duration": 12, "velocity": 122}, {"time": 3846, "pitch": 73, "duration": 19, "velocity": 127}, {"time": 3864, "pitch": 74, "duration": 12, "velocity": 117}, {"time": 3876, "pitch": 71, "duration": 60, "velocity": 99}, {"time": 3936, "pitch": 69, "duration": 6, "velocity": 99}, {"time": 3942, "pitch": 71, "duration": 6, "velocity": 93}, {"time": 3948, "pitch": 78, "duration": 24, "velocity": 112}, {"time": 3972, "pitch": 71, "duration": 6, "velocity": 112}, {"time": 3978, "pitch": 69, "duration": 30, "velocity": 96}, {"time": 4008, "pitch": 66, "duration": 6, "velocity": 107}, {"time": 4014, "pitch": 69, "duration": 6, "velocity": 97}, {"time": 4020, "pitch": 76, "duration": 24, "velocity": 99}, {"time": 4044, "pitch": 69, "duration": 6, "velocity": 95}, {"time": 4050, "pitch": 71, "duration": 30, "velocity": 100}, {"time": 4080, "pitch": 69, "duration": 6, "velocity": 100}, {"time": 4086, "pitch": 71, "duration": 6, "velocity": 100}, {"time": 4092, "pitch": 78, "duration": 6, "velocity": 95}, {"time": 4098, "pitch": 78, "duration": 6, "velocity": 122}, {"time": 4104, "pitch": 78, "duration": 6, "velocity": 117}, {"time": 4110, "pitch": 78, "duration": 6, "velocity": 122}, {"time": 4116, "pitch": 71, "duration": 6, "velocity": 117}, {"time": 4122, "pitch": 69, "duration": 12, "velocity": 99}, {"time": 4134, "pitch": 71, "duration": 18, "velocity": 117}, {"time": 4152, "pitch": 74, "duration": 12, "velocity": 127}, {"time": 4164, "pitch": 71, "duration": 60, "velocity": 112}, {"time": 4224, "pitch": 69, "duration": 6, "velocity": 100}, {"time": 4230, "pitch": 71, "duration": 6, "velocity": 100}, {"time": 4236, "pitch": 78, "duration": 6, "velocity": 95}, {"time": 4242, "pitch": 78, "duration": 6, "velocity": 122}, {"time": 4248, "pitch": 78, "duration": 6, "velocity": 117}, {"time": 4254, "pitch": 78, "duration": 6, "velocity": 122}, {"time": 4260, "pitch": 71, "duration": 6, "velocity": 117}, {"time": 4266, "pitch": 69, "duration": 12, "velocity": 99}, {"time": 4278, "pitch": 71, "duration": 18, "velocity": 117}, {"time": 4296, "pitch": 74, "duration": 12, "velocity": 127}, {"time": 4308, "pitch": 71, "duration": 48, "velocity": 112}]}, {"program": 0, "is_drum": false, "name": "PIANO", "notes": [{"time": 414, "pitch": 35, "duration": 36, "velocity": 81}, {"time": 414, "pitch": 59, "duration": 7, "velocity": 81}, {"time": 414, "pitch": 62, "duration": 7, "velocity": 93}, {"time": 414, "pitch": 66, "duration": 8, "velocity": 96}, {"time": 420, "pitch": 47, "duration": 9, "velocity": 90}, {"time": 426, "pitch": 62, "duration": 5, "velocity": 90}, {"time": 426, "pitch": 66, "duration": 6, "velocity": 99}, {"time": 438, "pitch": 62, "duration": 5, "velocity": 102}, {"time": 438, "pitch": 66, "duration": 6, "velocity": 112}, {"time": 449, "pitch": 33, "duration": 26, "velocity": 71}, {"time": 449, "pitch": 61, "duration": 8, "velocity": 100}, {"time": 450, "pitch": 57, "duration": 8, "velocity": 88}, {"time": 450, "pitch": 64, "duration": 8, "velocity": 86}, {"time": 456, "pitch": 45, "duration": 10, "velocity": 51}, {"time": 462, "pitch": 57, "duration": 9, "velocity": 81}, {"time": 462, "pitch": 61, "duration": 11, "velocity": 92}, {"time": 462, "pitch": 64, "duration": 10, "velocity": 75}, {"time": 468, "pitch": 45, "duration": 9, "velocity": 18}, {"time": 474, "pitch": 61, "duration": 8, "velocity": 122}, {"time": 480, "pitch": 57, "duration": 4, "velocity": 58}, {"time": 486, "pitch": 42, "duration": 27, "velocity": 102}, {"time": 486, "pitch": 57, "duration": 9, "velocity": 81}, {"time": 486, "pitch": 61, "duration": 10, "velocity": 100}, {"time": 486, "pitch": 66, "duration": 8, "velocity": 96}, {"time": 492, "pitch": 54, "duration": 9, "velocity": 39}, {"time": 498, "pitch": 61, "duration": 10, "velocity": 67}, {"time": 498, "pitch": 66, "duration": 10, "velocity": 67}, {"time": 510, "pitch": 61, "duration": 5, "velocity": 107}, {"time": 510, "pitch": 66, "duration": 5, "velocity": 96}, {"time": 522, "pitch": 31, "duration": 2, "velocity": 74}, {"time": 522, "pitch": 62, "duration": 7, "velocity": 90}, {"time": 522, "pitch": 67, "duration": 7, "velocity": 93}, {"time": 522, "pitch": 71, "duration": 7, "velocity": 86}, {"time": 534, "pitch": 62, "duration": 4, "velocity": 64}, {"time": 534, "pitch": 67, "duration": 4, "velocity": 64}, {"time": 534, "pitch": 71, "duration": 4, "velocity": 63}, {"time": 546, "pitch": 67, "duration": 5, "velocity": 112}, {"time": 546, "pitch": 71, "duration": 5, "velocity": 107}, {"time": 552, "pitch": 62, "duration": 1, "velocity": 75}, {"time": 558, "pitch": 35, "duration": 2, "velocity": 71}, {"time": 558, "pitch": 59, "duration": 7, "velocity": 93}, {"time": 558, "pitch": 62, "duration": 7, "velocity": 102}, {"time": 558, "pitch": 66, "duration": 7, "velocity": 100}, {"time": 564, "pitch": 47, "duration": 20, "velocity": 48}, {"time": 570, "pitch": 59, "duration": 3, "velocity": 65}, {"time": 570, "pitch": 62, "duration": 3, "velocity": 75}, {"time": 570, "pitch": 66, "duration": 3, "velocity": 75}, {"time": 576, "pitch": 54, "duration": 7, "velocity": 53}, {"time": 582, "pitch": 66, "duration": 6, "velocity": 127}, {"time": 588, "pitch": 62, "duration": 3, "velocity": 72}, {"time": 591, "pitch": 59, "duration": 2, "velocity": 65}, {"time": 594, "pitch": 45, "duration": 26, "velocity": 83}, {"time": 594, "pitch": 61, "duration": 6, "velocity": 112}, {"time": 600, "pitch": 52, "duration": 10, "velocity": 58}, {"time": 606, "pitch": 64, "duration": 10, "velocity": 93}, {"time": 612, "pitch": 52, "duration": 7, "velocity": 53}, {"time": 618, "pitch": 61, "duration": 7, "velocity": 127}, {"time": 624, "pitch": 57, "duration": 5, "velocity": 89}, {"time": 627, "pitch": 61, "duration": 2, "velocity": 77}, {"time": 630, "pitch": 42, "duration": 29, "velocity": 99}, {"time": 630, "pitch": 57, "duration": 7, "velocity": 92}, {"time": 630, "pitch": 61, "duration": 8, "velocity": 107}, {"time": 630, "pitch": 66, "duration": 7, "velocity": 99}, {"time": 636, "pitch": 54, "duration": 10, "velocity": 79}, {"time": 642, "pitch": 66, "duration": 18, "velocity": 96}, {"time": 648, "pitch": 54, "duration": 7, "velocity": 52}, {"time": 654, "pitch": 61, "duration": 6, "velocity": 127}, {"time": 657, "pitch": 54, "duration": 3, "velocity": 85}, {"time": 660, "pitch": 57, "duration": 3, "velocity": 90}, {"time": 666, "pitch": 43, "duration": 72, "velocity": 83}, {"time": 666, "pitch": 59, "duration": 13, "velocity": 90}, {"time": 666, "pitch": 62, "duration": 13, "velocity": 89}, {"time": 672, "pitch": 50, "duration": 7, "velocity": 48}, {"time": 678, "pitch": 55, "duration": 1, "velocity": 93}, {"time": 684, "pitch": 50, "duration": 54, "velocity": 42}, {"time": 690, "pitch": 55, "duration": 16, "velocity": 69}, {"time": 690, "pitch": 62, "duration": 42, "velocity": 73}, {"time": 690, "pitch": 67, "duration": 41, "velocity": 75}, {"time": 690, "pitch": 71, "duration": 41, "velocity": 72}, {"time": 738, "pitch": 35, "duration": 29, "velocity": 67}, {"time": 744, "pitch": 47, "duration": 10, "velocity": 79}, {"time": 750, "pitch": 66, "duration": 23, "velocity": 90}, {"time": 756, "pitch": 47, "duration": 8, "velocity": 53}, {"time": 762, "pitch": 62, "duration": 12, "velocity": 73}, {"time": 768, "pitch": 59, "duration": 7, "velocity": 44}, {"time": 774, "pitch": 33, "duration": 24, "velocity": 63}, {"time": 780, "pitch": 45, "duration": 10, "velocity": 59}, {"time": 786, "pitch": 61, "duration": 13, "velocity": 99}, {"time": 792, "pitch": 45, "duration": 5, "velocity": 58}, {"time": 798, "pitch": 57, "duration": 10, "velocity": 82}, {"time": 804, "pitch": 61, "duration": 7, "velocity": 50}, {"time": 810, "pitch": 30, "duration": 21, "velocity": 66}, {"time": 816, "pitch": 42, "duration": 9, "velocity": 62}, {"time": 822, "pitch": 61, "duration": 25, "velocity": 79}, {"time": 828, "pitch": 42, "duration": 8, "velocity": 58}, {"time": 834, "pitch": 57, "duration": 13, "velocity": 74}, {"time": 840, "pitch": 54, "duration": 7, "velocity": 55}, {"time": 846, "pitch": 35, "duration": 29, "velocity": 68}, {"time": 852, "pitch": 47, "duration": 8, "velocity": 73}, {"time": 858, "pitch": 62, "duration": 9, "velocity": 72}, {"time": 858, "pitch": 66, "duration": 8, "velocity": 92}, {"time": 864, "pitch": 47, "duration": 9, "velocity": 86}, {"time": 870, "pitch": 61, "duration": 6, "velocity": 95}, {"time": 876, "pitch": 62, "duration": 7, "velocity": 77}, {"time": 882, "pitch": 31, "duration": 25, "velocity": 79}, {"time": 888, "pitch": 43, "duration": 9, "velocity": 88}, {"time": 894, "pitch": 62, "duration": 25, "velocity": 93}, {"time": 900, "pitch": 43, "duration": 9, "velocity": 45}, {"time": 906, "pitch": 59, "duration": 13, "velocity": 82}, {"time": 912, "pitch": 55, "duration": 8, "velocity": 58}, {"time": 918, "pitch": 33, "duration": 25, "velocity": 66}, {"time": 924, "pitch": 45, "duration": 9, "velocity": 92}, {"time": 930, "pitch": 61, "duration": 13, "velocity": 112}, {"time": 936, "pitch": 45, "duration": 17, "velocity": 82}, {"time": 942, "pitch": 57, "duration": 12, "velocity": 85}, {"time": 948, "pitch": 61, "duration": 7, "velocity": 65}, {"time": 954, "pitch": 35, "duration": 35, "velocity": 73}, {"time": 960, "pitch": 47, "duration": 31, "velocity": 83}, {"time": 966, "pitch": 62, "duration": 13, "velocity": 72}, {"time": 972, "pitch": 42, "duration": 14, "velocity": 58}, {"time": 978, "pitch": 61, "duration": 9, "velocity": 97}, {"time": 984, "pitch": 62, "duration": 17, "velocity": 56}, {"time": 990, "pitch": 35, "duration": 29, "velocity": 69}, {"time": 996, "pitch": 47, "duration": 8, "velocity": 77}, {"time": 1002, "pitch": 62, "duration": 14, "velocity": 86}, {"time": 1002, "pitch": 66, "duration": 15, "velocity": 96}, {"time": 1008, "pitch": 47, "duration": 9, "velocity": 79}, {"time": 1014, "pitch": 61, "duration": 7, "velocity": 117}, {"time": 1020, "pitch": 57, "duration": 7, "velocity": 88}, {"time": 1026, "pitch": 31, "duration": 30, "velocity": 77}, {"time": 1026, "pitch": 59, "duration": 9, "velocity": 85}, {"time": 1026, "pitch": 62, "duration": 9, "velocity": 76}, {"time": 1032, "pitch": 43, "duration": 9, "velocity": 78}, {"time": 1038, "pitch": 62, "duration": 13, "velocity": 99}, {"time": 1044, "pitch": 43, "duration": 18, "velocity": 71}, {"time": 1050, "pitch": 59, "duration": 15, "velocity": 99}, {"time": 1056, "pitch": 55, "duration": 8, "velocity": 68}, {"time": 1062, "pitch": 33, "duration": 26, "velocity": 86}, {"time": 1068, "pitch": 45, "duration": 10, "velocity": 92}, {"time": 1074, "pitch": 64, "duration": 24, "velocity": 102}, {"time": 1080, "pitch": 45, "duration": 8, "velocity": 83}, {"time": 1086, "pitch": 61, "duration": 12, "velocity": 112}, {"time": 1092, "pitch": 57, "duration": 7, "velocity": 73}, {"time": 1098, "pitch": 42, "duration": 28, "velocity": 100}, {"time": 1104, "pitch": 54, "duration": 9, "velocity": 75}, {"time": 1110, "pitch": 61, "duration": 11, "velocity": 122}, {"time": 1116, "pitch": 54, "duration": 8, "velocity": 74}, {"time": 1122, "pitch": 66, "duration": 14, "velocity": 112}, {"time": 1128, "pitch": 61, "duration": 9, "velocity": 82}, {"time": 1134, "pitch": 35, "duration": 30, "velocity": 72}, {"time": 1140, "pitch": 47, "duration": 8, "velocity": 69}, {"time": 1146, "pitch": 62, "duration": 11, "velocity": 97}, {"time": 1152, "pitch": 47, "duration": 10, "velocity": 90}, {"time": 1158, "pitch": 61, "duration": 6, "velocity": 117}, {"time": 1164, "pitch": 62, "duration": 7, "velocity": 93}, {"time": 1170, "pitch": 31, "duration": 27, "velocity": 69}, {"time": 1176, "pitch": 43, "duration": 8, "velocity": 72}, {"time": 1182, "pitch": 59, "duration": 11, "velocity": 85}, {"time": 1182, "pitch": 62, "duration": 25, "velocity": 81}, {"time": 1188, "pitch": 43, "duration": 18, "velocity": 75}, {"time": 1194, "pitch": 55, "duration": 13, "velocity": 97}, {"time": 1194, "pitch": 59, "duration": 1, "velocity": 27}, {"time": 1200, "pitch": 59, "duration": 7, "velocity": 89}, {"time": 1206, "pitch": 33, "duration": 29, "velocity": 77}, {"time": 1212, "pitch": 45, "duration": 9, "velocity": 82}, {"time": 1218, "pitch": 61, "duration": 14, "velocity": 100}, {"time": 1218, "pitch": 64, "duration": 25, "velocity": 83}, {"time": 1224, "pitch": 45, "duration": 17, "velocity": 67}, {"time": 1230, "pitch": 57, "duration": 16, "velocity": 95}, {"time": 1236, "pitch": 61, "duration": 7, "velocity": 70}, {"time": 1242, "pitch": 35, "duration": 39, "velocity": 82}, {"time": 1248, "pitch": 47, "duration": 10, "velocity": 88}, {"time": 1254, "pitch": 59, "duration": 14, "velocity": 88}, {"time": 1260, "pitch": 47, "duration": 17, "velocity": 82}, {"time": 1266, "pitch": 61, "duration": 6, "velocity": 112}, {"time": 1272, "pitch": 62, "duration": 7, "velocity": 95}, {"time": 1278, "pitch": 47, "duration": 29, "velocity": 86}, {"time": 1278, "pitch": 59, "duration": 8, "velocity": 88}, {"time": 1284, "pitch": 54, "duration": 9, "velocity": 86}, {"time": 1290, "pitch": 66, "duration": 9, "velocity": 127}, {"time": 1296, "pitch": 54, "duration": 7, "velocity": 86}, {"time": 1302, "pitch": 62, "duration": 6, "velocity": 127}, {"time": 1305, "pitch": 54, "duration": 2, "velocity": 127}, {"time": 1308, "pitch": 61, "duration": 2, "velocity": 127}, {"time": 1314, "pitch": 31, "duration": 27, "velocity": 72}, {"time": 1314, "pitch": 31, "duration": 27, "velocity": 102}, {"time": 1314, "pitch": 43, "duration": 14, "velocity": 96}, {"time": 1314, "pitch": 62, "duration": 5, "velocity": 96}, {"time": 1314, "pitch": 67, "duration": 6, "velocity": 100}, {"time": 1314, "pitch": 71, "duration": 6, "velocity": 93}, {"time": 1326, "pitch": 62, "duration": 3, "velocity": 102}, {"time": 1326, "pitch": 67, "duration": 3, "velocity": 102}, {"time": 1326, "pitch": 71, "duration": 3, "velocity": 102}, {"time": 1332, "pitch": 43, "duration": 9, "velocity": 95}, {"time": 1338, "pitch": 67, "duration": 7, "velocity": 127}, {"time": 1338, "pitch": 71, "duration": 6, "velocity": 117}, {"time": 1344, "pitch": 62, "duration": 3, "velocity": 77}, {"time": 1350, "pitch": 33, "duration": 3, "velocity": 72}, {"time": 1350, "pitch": 33, "duration": 3, "velocity": 112}, {"time": 1350, "pitch": 45, "duration": 4, "velocity": 96}, {"time": 1350, "pitch": 64, "duration": 10, "velocity": 112}, {"time": 1350, "pitch": 69, "duration": 8, "velocity": 117}, {"time": 1350, "pitch": 73, "duration": 8, "velocity": 122}, {"time": 1362, "pitch": 64, "duration": 6, "velocity": 102}, {"time": 1362, "pitch": 69, "duration": 6, "velocity": 122}, {"time": 1362, "pitch": 73, "duration": 6, "velocity": 127}, {"time": 1374, "pitch": 69, "duration": 5, "velocity": 127}, {"time": 1374, "pitch": 73, "duration": 6, "velocity": 127}, {"time": 1386, "pitch": 30, "duration": 3, "velocity": 89}, {"time": 1386, "pitch": 30, "duration": 3, "velocity": 122}, {"time": 1386, "pitch": 42, "duration": 16, "velocity": 83}, {"time": 1386, "pitch": 66, "duration": 9, "velocity": 99}, {"time": 1386, "pitch": 69, "duration": 7, "velocity": 86}, {"time": 1386, "pitch": 73, "duration": 7, "velocity": 122}, {"time": 1398, "pitch": 66, "duration": 2, "velocity": 117}, {"time": 1398, "pitch": 69, "duration": 1, "velocity": 100}, {"time": 1398, "pitch": 73, "duration": 1, "velocity": 102}, {"time": 1404, "pitch": 42, "duration": 8, "velocity": 95}, {"time": 1410, "pitch": 61, "duration": 2, "velocity": 107}, {"time": 1410, "pitch": 66, "duration": 5, "velocity": 122}, {"time": 1410, "pitch": 69, "duration": 6, "velocity": 100}, {"time": 1416, "pitch": 61, "duration": 1, "velocity": 112}, {"time": 1422, "pitch": 35, "duration": 26, "velocity": 75}, {"time": 1422, "pitch": 35, "duration": 26, "velocity": 99}, {"time": 1422, "pitch": 47, "duration": 14, "velocity": 112}, {"time": 1422, "pitch": 59, "duration": 10, "velocity": 97}, {"time": 1422, "pitch": 62, "duration": 9, "velocity": 117}, {"time": 1422, "pitch": 66, "duration": 10, "velocity": 112}, {"time": 1434, "pitch": 59, "duration": 6, "velocity": 112}, {"time": 1434, "pitch": 62, "duration": 6, "velocity": 117}, {"time": 1434, "pitch": 66, "duration": 7, "velocity": 127}, {"time": 1440, "pitch": 47, "duration": 7, "velocity": 99}, {"time": 1446, "pitch": 62, "duration": 5, "velocity": 122}, {"time": 1446, "pitch": 66, "duration": 6, "velocity": 127}, {"time": 1452, "pitch": 59, "duration": 3, "velocity": 112}, {"time": 1458, "pitch": 31, "duration": 25, "velocity": 73}, {"time": 1458, "pitch": 43, "duration": 16, "velocity": 107}, {"time": 1458, "pitch": 55, "duration": 10, "velocity": 117}, {"time": 1458, "pitch": 59, "duration": 11, "velocity": 102}, {"time": 1458, "pitch": 62, "duration": 10, "velocity": 107}, {"time": 1470, "pitch": 55, "duration": 7, "velocity": 107}, {"time": 1470, "pitch": 59, "duration": 7, "velocity": 117}, {"time": 1470, "pitch": 62, "duration": 7, "velocity": 102}, {"time": 1476, "pitch": 43, "duration": 8, "velocity": 89}, {"time": 1482, "pitch": 59, "duration": 6, "velocity": 127}, {"time": 1482, "pitch": 62, "duration": 6, "velocity": 117}, {"time": 1488, "pitch": 55, "duration": 2, "velocity": 93}, {"time": 1494, "pitch": 33, "duration": 27, "velocity": 64}, {"time": 1494, "pitch": 45, "duration": 14, "velocity": 95}, {"time": 1494, "pitch": 57, "duration": 8, "velocity": 117}, {"time": 1494, "pitch": 61, "duration": 6, "velocity": 127}, {"time": 1494, "pitch": 64, "duration": 8, "velocity": 102}, {"time": 1506, "pitch": 57, "duration": 2, "velocity": 99}, {"time": 1506, "pitch": 61, "duration": 2, "velocity": 117}, {"time": 1506, "pitch": 64, "duration": 3, "velocity": 95}, {"time": 1512, "pitch": 45, "duration": 11, "velocity": 96}, {"time": 1518, "pitch": 57, "duration": 1, "velocity": 89}, {"time": 1518, "pitch": 61, "duration": 7, "velocity": 127}, {"time": 1518, "pitch": 64, "duration": 6, "velocity": 117}, {"time": 1524, "pitch": 57, "duration": 2, "velocity": 92}, {"time": 1530, "pitch": 38, "duration": 35, "velocity": 77}, {"time": 1530, "pitch": 50, "duration": 14, "velocity": 112}, {"time": 1530, "pitch": 57, "duration": 10, "velocity": 112}, {"time": 1530, "pitch": 62, "duration": 10, "velocity": 117}, {"time": 1530, "pitch": 66, "duration": 10, "velocity": 127}, {"time": 1542, "pitch": 57, "duration": 8, "velocity": 112}, {"time": 1542, "pitch": 62, "duration": 8, "velocity": 127}, {"time": 1542, "pitch": 66, "duration": 10, "velocity": 127}, {"time": 1548, "pitch": 50, "duration": 9, "velocity": 93}, {"time": 1554, "pitch": 57, "duration": 10, "velocity": 100}, {"time": 1554, "pitch": 62, "duration": 10, "velocity": 127}, {"time": 1554, "pitch": 66, "duration": 10, "velocity": 127}, {"time": 1560, "pitch": 50, "duration": 8, "velocity": 95}, {"time": 1566, "pitch": 38, "duration": 26, "velocity": 99}, {"time": 1566, "pitch": 57, "duration": 9, "velocity": 112}, {"time": 1566, "pitch": 60, "duration": 10, "velocity": 112}, {"time": 1566, "pitch": 62, "duration": 10, "velocity": 127}, {"time": 1566, "pitch": 66, "duration": 10, "velocity": 112}, {"time": 1572, "pitch": 50, "duration": 8, "velocity": 85}, {"time": 1578, "pitch": 57, "duration": 6, "velocity": 127}, {"time": 1578, "pitch": 60, "duration": 6, "velocity": 102}, {"time": 1578, "pitch": 62, "duration": 6, "velocity": 117}, {"time": 1578, "pitch": 66, "duration": 9, "velocity": 122}, {"time": 1584, "pitch": 50, "duration": 8, "velocity": 95}, {"time": 1590, "pitch": 60, "duration": 6, "velocity": 127}, {"time": 1590, "pitch": 62, "duration": 6, "velocity": 127}, {"time": 1590, "pitch": 66, "duration": 6, "velocity": 127}, {"time": 1596, "pitch": 57, "duration": 2, "velocity": 85}, {"time": 1602, "pitch": 31, "duration": 24, "velocity": 76}, {"time": 1602, "pitch": 43, "duration": 14, "velocity": 107}, {"time": 1602, "pitch": 55, "duration": 10, "velocity": 117}, {"time": 1602, "pitch": 59, "duration": 10, "velocity": 107}, {"time": 1602, "pitch": 62, "duration": 10, "velocity": 107}, {"time": 1614, "pitch": 55, "duration": 6, "velocity": 102}, {"time": 1614, "pitch": 59, "duration": 6, "velocity": 100}, {"time": 1614, "pitch": 62, "duration": 6, "velocity": 100}, {"time": 1620, "pitch": 43, "duration": 8, "velocity": 95}, {"time": 1626, "pitch": 59, "duration": 7, "velocity": 127}, {"time": 1626, "pitch": 62, "duration": 6, "velocity": 117}, {"time": 1632, "pitch": 55, "duration": 3, "velocity": 95}, {"time": 1638, "pitch": 33, "duration": 24, "velocity": 73}, {"time": 1638, "pitch": 45, "duration": 14, "velocity": 107}, {"time": 1638, "pitch": 57, "duration": 9, "velocity": 112}, {"time": 1638, "pitch": 61, "duration": 9, "velocity": 127}, {"time": 1638, "pitch": 64, "duration": 7, "velocity": 99}, {"time": 1650, "pitch": 57, "duration": 7, "velocity": 107}, {"time": 1650, "pitch": 61, "duration": 7, "velocity": 127}, {"time": 1650, "pitch": 64, "duration": 7, "velocity": 112}, {"time": 1656, "pitch": 45, "duration": 6, "velocity": 107}, {"time": 1662, "pitch": 61, "duration": 6, "velocity": 127}, {"time": 1662, "pitch": 64, "duration": 6, "velocity": 117}, {"time": 1668, "pitch": 57, "duration": 3, "velocity": 100}, {"time": 1674, "pitch": 30, "duration": 22, "velocity": 66}, {"time": 1674, "pitch": 42, "duration": 15, "velocity": 92}, {"time": 1674, "pitch": 57, "duration": 9, "velocity": 112}, {"time": 1674, "pitch": 61, "duration": 9, "velocity": 127}, {"time": 1674, "pitch": 66, "duration": 9, "velocity": 112}, {"time": 1686, "pitch": 61, "duration": 8, "velocity": 127}, {"time": 1686, "pitch": 66, "duration": 9, "velocity": 127}, {"time": 1692, "pitch": 42, "duration": 7, "velocity": 99}, {"time": 1698, "pitch": 61, "duration": 7, "velocity": 127}, {"time": 1698, "pitch": 66, "duration": 7, "velocity": 127}, {"time": 1704, "pitch": 57, "duration": 4, "velocity": 97}, {"time": 1710, "pitch": 35, "duration": 3, "velocity": 78}, {"time": 1710, "pitch": 59, "duration": 10, "velocity": 117}, {"time": 1710, "pitch": 62, "duration": 10, "velocity": 122}, {"time": 1710, "pitch": 66, "duration": 10, "velocity": 117}, {"time": 1722, "pitch": 59, "duration": 8, "velocity": 117}, {"time": 1722, "pitch": 62, "duration": 10, "velocity": 99}, {"time": 1722, "pitch": 66, "duration": 9, "velocity": 92}, {"time": 1728, "pitch": 54, "duration": 7, "velocity": 81}, {"time": 1731, "pitch": 47, "duration": 6, "velocity": 17}, {"time": 1734, "pitch": 62, "duration": 6, "velocity": 127}, {"time": 1734, "pitch": 66, "duration": 6, "velocity": 127}, {"time": 1737, "pitch": 54, "duration": 1, "velocity": 100}, {"time": 1740, "pitch": 59, "duration": 2, "velocity": 102}, {"time": 1746, "pitch": 31, "duration": 26, "velocity": 95}, {"time": 1746, "pitch": 55, "duration": 7, "velocity": 117}, {"time": 1746, "pitch": 59, "duration": 7, "velocity": 100}, {"time": 1746, "pitch": 62, "duration": 7, "velocity": 102}, {"time": 1752, "pitch": 43, "duration": 8, "velocity": 88}, {"time": 1758, "pitch": 55, "duration": 5, "velocity": 107}, {"time": 1758, "pitch": 59, "duration": 5, "velocity": 107}, {"time": 1758, "pitch": 62, "duration": 5, "velocity": 99}, {"time": 1764, "pitch": 43, "duration": 9, "velocity": 97}, {"time": 1770, "pitch": 59, "duration": 7, "velocity": 127}, {"time": 1770, "pitch": 62, "duration": 6, "velocity": 122}, {"time": 1776, "pitch": 55, "duration": 4, "velocity": 89}, {"time": 1782, "pitch": 33, "duration": 36, "velocity": 82}, {"time": 1782, "pitch": 45, "duration": 15, "velocity": 100}, {"time": 1782, "pitch": 57, "duration": 4, "velocity": 117}, {"time": 1782, "pitch": 61, "duration": 8, "velocity": 127}, {"time": 1782, "pitch": 64, "duration": 8, "velocity": 107}, {"time": 1788, "pitch": 57, "duration": 4, "velocity": 64}, {"time": 1794, "pitch": 57, "duration": 8, "velocity": 117}, {"time": 1794, "pitch": 61, "duration": 9, "velocity": 127}, {"time": 1794, "pitch": 64, "duration": 9, "velocity": 102}, {"time": 1800, "pitch": 45, "duration": 8, "velocity": 95}, {"time": 1806, "pitch": 57, "duration": 6, "velocity": 100}, {"time": 1806, "pitch": 61, "duration": 8, "velocity": 127}, {"time": 1806, "pitch": 64, "duration": 8, "velocity": 99}, {"time": 1812, "pitch": 45, "duration": 5, "velocity": 92}, {"time": 1818, "pitch": 31, "duration": 61, "velocity": 76}, {"time": 1818, "pitch": 43, "duration": 14, "velocity": 93}, {"time": 1818, "pitch": 55, "duration": 10, "velocity": 107}, {"time": 1818, "pitch": 59, "duration": 11, "velocity": 107}, {"time": 1818, "pitch": 62, "duration": 11, "velocity": 102}, {"time": 1830, "pitch": 55, "duration": 9, "velocity": 88}, {"time": 1830, "pitch": 59, "duration": 9, "velocity": 77}, {"time": 1830, "pitch": 62, "duration": 9, "velocity": 76}, {"time": 1836, "pitch": 43, "duration": 8, "velocity": 42}, {"time": 1842, "pitch": 59, "duration": 9, "velocity": 90}, {"time": 1842, "pitch": 62, "duration": 9, "velocity": 93}, {"time": 1848, "pitch": 43, "duration": 9, "velocity": 46}, {"time": 1854, "pitch": 59, "duration": 11, "velocity": 96}, {"time": 1854, "pitch": 62, "duration": 11, "velocity": 99}, {"time": 1860, "pitch": 43, "duration": 7, "velocity": 33}, {"time": 1866, "pitch": 55, "duration": 7, "velocity": 61}, {"time": 1866, "pitch": 59, "duration": 9, "velocity": 63}, {"time": 1866, "pitch": 62, "duration": 9, "velocity": 59}, {"time": 1872, "pitch": 43, "duration": 11, "velocity": 47}, {"time": 1878, "pitch": 59, "duration": 2, "velocity": 92}, {"time": 1878, "pitch": 62, "duration": 3, "velocity": 93}, {"time": 1890, "pitch": 35, "duration": 29, "velocity": 85}, {"time": 1890, "pitch": 59, "duration": 9, "velocity": 90}, {"time": 1890, "pitch": 62, "duration": 8, "velocity": 99}, {"time": 1890, "pitch": 66, "duration": 8, "velocity": 107}, {"time": 1896, "pitch": 47, "duration": 9, "velocity": 63}, {"time": 1902, "pitch": 62, "duration": 7, "velocity": 71}, {"time": 1902, "pitch": 66, "duration": 8, "velocity": 69}, {"time": 1908, "pitch": 47, "duration": 5, "velocity": 54}, {"time": 1914, "pitch": 62, "duration": 6, "velocity": 93}, {"time": 1914, "pitch": 66, "duration": 6, "velocity": 92}, {"time": 1920, "pitch": 59, "duration": 8, "velocity": 71}, {"time": 1926, "pitch": 33, "duration": 30, "velocity": 95}, {"time": 1932, "pitch": 45, "duration": 8, "velocity": 68}, {"time": 1938, "pitch": 57, "duration": 5, "velocity": 67}, {"time": 1938, "pitch": 61, "duration": 10, "velocity": 112}, {"time": 1938, "pitch": 64, "duration": 10, "velocity": 86}, {"time": 1944, "pitch": 45, "duration": 12, "velocity": 58}, {"time": 1950, "pitch": 61, "duration": 13, "velocity": 100}, {"time": 1950, "pitch": 64, "duration": 14, "velocity": 83}, {"time": 1956, "pitch": 57, "duration": 8, "velocity": 73}, {"time": 1962, "pitch": 30, "duration": 26, "velocity": 95}, {"time": 1968, "pitch": 42, "duration": 9, "velocity": 95}, {"time": 1974, "pitch": 61, "duration": 10, "velocity": 122}, {"time": 1980, "pitch": 42, "duration": 10, "velocity": 97}, {"time": 1986, "pitch": 61, "duration": 4, "velocity": 102}, {"time": 1986, "pitch": 66, "duration": 18, "velocity": 117}, {"time": 1992, "pitch": 57, "duration": 9, "velocity": 81}, {"time": 1998, "pitch": 35, "duration": 29, "velocity": 88}, {"time": 2004, "pitch": 47, "duration": 23, "velocity": 81}, {"time": 2010, "pitch": 62, "duration": 6, "velocity": 97}, {"time": 2016, "pitch": 42, "duration": 10, "velocity": 56}, {"time": 2022, "pitch": 66, "duration": 6, "velocity": 122}, {"time": 2028, "pitch": 62, "duration": 1, "velocity": 56}, {"time": 2034, "pitch": 31, "duration": 28, "velocity": 88}, {"time": 2040, "pitch": 43, "duration": 8, "velocity": 73}, {"time": 2046, "pitch": 62, "duration": 26, "velocity": 93}, {"time": 2052, "pitch": 43, "duration": 17, "velocity": 61}, {"time": 2058, "pitch": 55, "duration": 13, "velocity": 89}, {"time": 2064, "pitch": 59, "duration": 7, "velocity": 70}, {"time": 2070, "pitch": 33, "duration": 30, "velocity": 86}, {"time": 2076, "pitch": 45, "duration": 8, "velocity": 75}, {"time": 2082, "pitch": 64, "duration": 25, "velocity": 99}, {"time": 2088, "pitch": 45, "duration": 16, "velocity": 55}, {"time": 2094, "pitch": 61, "duration": 13, "velocity": 93}, {"time": 2100, "pitch": 57, "duration": 8, "velocity": 85}, {"time": 2106, "pitch": 35, "duration": 35, "velocity": 88}, {"time": 2112, "pitch": 47, "duration": 9, "velocity": 89}, {"time": 2118, "pitch": 62, "duration": 7, "velocity": 77}, {"time": 2118, "pitch": 66, "duration": 7, "velocity": 76}, {"time": 2124, "pitch": 47, "duration": 9, "velocity": 96}, {"time": 2130, "pitch": 61, "duration": 10, "velocity": 100}, {"time": 2136, "pitch": 62, "duration": 12, "velocity": 77}, {"time": 2142, "pitch": 35, "duration": 35, "velocity": 83}, {"time": 2148, "pitch": 47, "duration": 8, "velocity": 76}, {"time": 2154, "pitch": 66, "duration": 24, "velocity": 93}, {"time": 2160, "pitch": 47, "duration": 15, "velocity": 76}, {"time": 2166, "pitch": 62, "duration": 12, "velocity": 95}, {"time": 2172, "pitch": 61, "duration": 6, "velocity": 95}, {"time": 2178, "pitch": 43, "duration": 28, "velocity": 69}, {"time": 2178, "pitch": 62, "duration": 9, "velocity": 78}, {"time": 2178, "pitch": 67, "duration": 8, "velocity": 73}, {"time": 2178, "pitch": 71, "duration": 8, "velocity": 73}, {"time": 2184, "pitch": 55, "duration": 10, "velocity": 47}, {"time": 2190, "pitch": 62, "duration": 10, "velocity": 47}, {"time": 2190, "pitch": 67, "duration": 10, "velocity": 58}, {"time": 2190, "pitch": 71, "duration": 10, "velocity": 53}, {"time": 2196, "pitch": 55, "duration": 12, "velocity": 44}, {"time": 2202, "pitch": 67, "duration": 10, "velocity": 81}, {"time": 2202, "pitch": 71, "duration": 6, "velocity": 69}, {"time": 2208, "pitch": 62, "duration": 4, "velocity": 63}, {"time": 2214, "pitch": 45, "duration": 25, "velocity": 66}, {"time": 2214, "pitch": 57, "duration": 17, "velocity": 66}, {"time": 2214, "pitch": 64, "duration": 11, "velocity": 68}, {"time": 2214, "pitch": 69, "duration": 11, "velocity": 66}, {"time": 2214, "pitch": 73, "duration": 11, "velocity": 58}, {"time": 2226, "pitch": 64, "duration": 9, "velocity": 61}, {"time": 2226, "pitch": 69, "duration": 10, "velocity": 55}, {"time": 2226, "pitch": 73, "duration": 10, "velocity": 57}, {"time": 2232, "pitch": 57, "duration": 6, "velocity": 44}, {"time": 2238, "pitch": 64, "duration": 3, "velocity": 75}, {"time": 2238, "pitch": 69, "duration": 2, "velocity": 85}, {"time": 2238, "pitch": 73, "duration": 3, "velocity": 73}, {"time": 2250, "pitch": 42, "duration": 26, "velocity": 100}, {"time": 2250, "pitch": 66, "duration": 10, "velocity": 79}, {"time": 2250, "pitch": 69, "duration": 7, "velocity": 78}, {"time": 2250, "pitch": 73, "duration": 7, "velocity": 86}, {"time": 2256, "pitch": 54, "duration": 9, "velocity": 51}, {"time": 2262, "pitch": 66, "duration": 9, "velocity": 53}, {"time": 2262, "pitch": 69, "duration": 9, "velocity": 53}, {"time": 2262, "pitch": 73, "duration": 9, "velocity": 56}, {"time": 2268, "pitch": 54, "duration": 6, "velocity": 51}, {"time": 2274, "pitch": 69, "duration": 2, "velocity": 90}, {"time": 2274, "pitch": 73, "duration": 2, "velocity": 95}, {"time": 2286, "pitch": 35, "duration": 27, "velocity": 73}, {"time": 2286, "pitch": 59, "duration": 9, "velocity": 72}, {"time": 2286, "pitch": 62, "duration": 8, "velocity": 77}, {"time": 2286, "pitch": 66, "duration": 8, "velocity": 66}, {"time": 2292, "pitch": 47, "duration": 10, "velocity": 40}, {"time": 2298, "pitch": 59, "duration": 7, "velocity": 56}, {"time": 2298, "pitch": 62, "duration": 7, "velocity": 62}, {"time": 2298, "pitch": 66, "duration": 9, "velocity": 56}, {"time": 2304, "pitch": 47, "duration": 8, "velocity": 56}, {"time": 2310, "pitch": 62, "duration": 7, "velocity": 127}, {"time": 2310, "pitch": 66, "duration": 5, "velocity": 127}, {"time": 2316, "pitch": 59, "duration": 4, "velocity": 93}, {"time": 2322, "pitch": 36, "duration": 32, "velocity": 85}, {"time": 2322, "pitch": 48, "duration": 12, "velocity": 102}, {"time": 2322, "pitch": 60, "duration": 5, "velocity": 112}, {"time": 2322, "pitch": 64, "duration": 10, "velocity": 122}, {"time": 2322, "pitch": 67, "duration": 10, "velocity": 127}, {"time": 2328, "pitch": 60, "duration": 3, "velocity": 53}, {"time": 2334, "pitch": 60, "duration": 8, "velocity": 100}, {"time": 2334, "pitch": 64, "duration": 10, "velocity": 100}, {"time": 2334, "pitch": 67, "duration": 10, "velocity": 99}, {"time": 2340, "pitch": 48, "duration": 20, "velocity": 79}, {"time": 2346, "pitch": 64, "duration": 20, "velocity": 127}, {"time": 2346, "pitch": 67, "duration": 20, "velocity": 117}, {"time": 2352, "pitch": 60, "duration": 15, "velocity": 89}, {"time": 2358, "pitch": 36, "duration": 28, "velocity": 95}, {"time": 2364, "pitch": 48, "duration": 11, "velocity": 79}, {"time": 2370, "pitch": 60, "duration": 10, "velocity": 95}, {"time": 2370, "pitch": 64, "duration": 10, "velocity": 112}, {"time": 2370, "pitch": 67, "duration": 10, "velocity": 97}, {"time": 2376, "pitch": 48, "duration": 7, "velocity": 86}, {"time": 2382, "pitch": 60, "duration": 3, "velocity": 92}, {"time": 2382, "pitch": 64, "duration": 3, "velocity": 127}, {"time": 2382, "pitch": 67, "duration": 3, "velocity": 102}, {"time": 2394, "pitch": 30, "duration": 29, "velocity": 93}, {"time": 2394, "pitch": 42, "duration": 14, "velocity": 107}, {"time": 2394, "pitch": 61, "duration": 11, "velocity": 112}, {"time": 2394, "pitch": 66, "duration": 11, "velocity": 127}, {"time": 2394, "pitch": 70, "duration": 10, "velocity": 112}, {"time": 2406, "pitch": 61, "duration": 10, "velocity": 67}, {"time": 2406, "pitch": 66, "duration": 10, "velocity": 74}, {"time": 2406, "pitch": 70, "duration": 10, "velocity": 85}, {"time": 2412, "pitch": 42, "duration": 10, "velocity": 79}, {"time": 2418, "pitch": 61, "duration": 10, "velocity": 122}, {"time": 2418, "pitch": 66, "duration": 10, "velocity": 127}, {"time": 2418, "pitch": 70, "duration": 10, "velocity": 122}, {"time": 2424, "pitch": 30, "duration": 4, "velocity": 48}, {"time": 2424, "pitch": 42, "duration": 4, "velocity": 89}, {"time": 2430, "pitch": 30, "duration": 6, "velocity": 85}, {"time": 2430, "pitch": 42, "duration": 5, "velocity": 95}, {"time": 2430, "pitch": 61, "duration": 5, "velocity": 90}, {"time": 2430, "pitch": 66, "duration": 5, "velocity": 90}, {"time": 2430, "pitch": 70, "duration": 4, "velocity": 85}, {"time": 2436, "pitch": 30, "duration": 4, "velocity": 75}, {"time": 2436, "pitch": 42, "duration": 4, "velocity": 67}, {"time": 2436, "pitch": 61, "duration": 4, "velocity": 75}, {"time": 2436, "pitch": 66, "duration": 4, "velocity": 57}, {"time": 2436, "pitch": 70, "duration": 4, "velocity": 49}, {"time": 2442, "pitch": 30, "duration": 4, "velocity": 83}, {"time": 2442, "pitch": 42, "duration": 3, "velocity": 96}, {"time": 2442, "pitch": 61, "duration": 3, "velocity": 89}, {"time": 2442, "pitch": 66, "duration": 3, "velocity": 93}, {"time": 2442, "pitch": 70, "duration": 3, "velocity": 88}, {"time": 2448, "pitch": 30, "duration": 3, "velocity": 93}, {"time": 2448, "pitch": 42, "duration": 3, "velocity": 112}, {"time": 2448, "pitch": 61, "duration": 3, "velocity": 95}, {"time": 2448, "pitch": 66, "duration": 2, "velocity": 100}, {"time": 2448, "pitch": 70, "duration": 3, "velocity": 95}, {"time": 2454, "pitch": 30, "duration": 2, "velocity": 92}, {"time": 2454, "pitch": 42, "duration": 2, "velocity": 102}, {"time": 2454, "pitch": 61, "duration": 2, "velocity": 102}, {"time": 2454, "pitch": 66, "duration": 1, "velocity": 107}, {"time": 2454, "pitch": 70, "duration": 1, "velocity": 93}, {"time": 2457, "pitch": 30, "duration": 2, "velocity": 90}, {"time": 2457, "pitch": 42, "duration": 1, "velocity": 81}, {"time": 2457, "pitch": 61, "duration": 2, "velocity": 74}, {"time": 2457, "pitch": 66, "duration": 1, "velocity": 78}, {"time": 2457, "pitch": 70, "duration": 1, "velocity": 66}, {"time": 2460, "pitch": 30, "duration": 2, "velocity": 102}, {"time": 2460, "pitch": 42, "duration": 2, "velocity": 88}, {"time": 2460, "pitch": 61, "duration": 2, "velocity": 93}, {"time": 2460, "pitch": 66, "duration": 1, "velocity": 96}, {"time": 2460, "pitch": 70, "duration": 1, "velocity": 86}, {"time": 2463, "pitch": 30, "duration": 1, "velocity": 112}, {"time": 2463, "pitch": 42, "duration": 1, "velocity": 88}, {"time": 2463, "pitch": 61, "duration": 1, "velocity": 102}, {"time": 2463, "pitch": 66, "duration": 1, "velocity": 117}, {"time": 2463, "pitch": 70, "duration": 1, "velocity": 99}, {"time": 2466, "pitch": 30, "duration": 3, "velocity": 117}, {"time": 2466, "pitch": 42, "duration": 3, "velocity": 112}, {"time": 2466, "pitch": 61, "duration": 3, "velocity": 127}, {"time": 2466, "pitch": 66, "duration": 2, "velocity": 127}, {"time": 2466, "pitch": 70, "duration": 3, "velocity": 127}, {"time": 2502, "pitch": 31, "duration": 30, "velocity": 77}, {"time": 2502, "pitch": 59, "duration": 9, "velocity": 85}, {"time": 2502, "pitch": 62, "duration": 9, "velocity": 76}, {"time": 2508, "pitch": 43, "duration": 9, "velocity": 78}, {"time": 2514, "pitch": 62, "duration": 13, "velocity": 99}, {"time": 2520, "pitch": 43, "duration": 18, "velocity": 71}, {"time": 2526, "pitch": 59, "duration": 15, "velocity": 99}, {"time": 2532, "pitch": 55, "duration": 8, "velocity": 68}, {"time": 2538, "pitch": 33, "duration": 26, "velocity": 86}, {"time": 2544, "pitch": 45, "duration": 10, "velocity": 92}, {"time": 2550, "pitch": 64, "duration": 24, "velocity": 102}, {"time": 2556, "pitch": 45, "duration": 8, "velocity": 83}, {"time": 2562, "pitch": 61, "duration": 12, "velocity": 112}, {"time": 2568, "pitch": 57, "duration": 7, "velocity": 73}, {"time": 2574, "pitch": 42, "duration": 28, "velocity": 100}, {"time": 2580, "pitch": 54, "duration": 9, "velocity": 75}, {"time": 2586, "pitch": 61, "duration": 11, "velocity": 122}, {"time": 2592, "pitch": 54, "duration": 8, "velocity": 74}, {"time": 2598, "pitch": 66, "duration": 14, "velocity": 112}, {"time": 2604, "pitch": 61, "duration": 9, "velocity": 82}, {"time": 2610, "pitch": 35, "duration": 30, "velocity": 72}, {"time": 2616, "pitch": 47, "duration": 8, "velocity": 69}, {"time": 2622, "pitch": 62, "duration": 11, "velocity": 97}, {"time": 2628, "pitch": 47, "duration": 10, "velocity": 90}, {"time": 2634, "pitch": 61, "duration": 6, "velocity": 117}, {"time": 2640, "pitch": 62, "duration": 7, "velocity": 93}, {"time": 2646, "pitch": 31, "duration": 27, "velocity": 69}, {"time": 2652, "pitch": 43, "duration": 8, "velocity": 72}, {"time": 2658, "pitch": 59, "duration": 11, "velocity": 85}, {"time": 2658, "pitch": 62, "duration": 25, "velocity": 81}, {"time": 2664, "pitch": 43, "duration": 18, "velocity": 75}, {"time": 2670, "pitch": 55, "duration": 13, "velocity": 97}, {"time": 2670, "pitch": 59, "duration": 1, "velocity": 27}, {"time": 2676, "pitch": 59, "duration": 7, "velocity": 89}, {"time": 2682, "pitch": 33, "duration": 29, "velocity": 77}, {"time": 2688, "pitch": 45, "duration": 9, "velocity": 82}, {"time": 2694, "pitch": 61, "duration": 14, "velocity": 100}, {"time": 2694, "pitch": 64, "duration": 25, "velocity": 83}, {"time": 2700, "pitch": 45, "duration": 17, "velocity": 67}, {"time": 2706, "pitch": 57, "duration": 16, "velocity": 95}, {"time": 2712, "pitch": 61, "duration": 7, "velocity": 70}, {"time": 2718, "pitch": 35, "duration": 39, "velocity": 82}, {"time": 2724, "pitch": 47, "duration": 10, "velocity": 88}, {"time": 2730, "pitch": 59, "duration": 14, "velocity": 88}, {"time": 2736, "pitch": 47, "duration": 17, "velocity": 82}, {"time": 2742, "pitch": 61, "duration": 6, "velocity": 112}, {"time": 2748, "pitch": 62, "duration": 7, "velocity": 95}, {"time": 2754, "pitch": 47, "duration": 29, "velocity": 86}, {"time": 2754, "pitch": 59, "duration": 8, "velocity": 88}, {"time": 2760, "pitch": 54, "duration": 9, "velocity": 86}, {"time": 2766, "pitch": 66, "duration": 9, "velocity": 127}, {"time": 2772, "pitch": 54, "duration": 7, "velocity": 86}, {"time": 2778, "pitch": 62, "duration": 6, "velocity": 127}, {"time": 2781, "pitch": 54, "duration": 2, "velocity": 127}, {"time": 2784, "pitch": 61, "duration": 2, "velocity": 127}, {"time": 2790, "pitch": 31, "duration": 27, "velocity": 72}, {"time": 2790, "pitch": 31, "duration": 27, "velocity": 102}, {"time": 2790, "pitch": 43, "duration": 14, "velocity": 96}, {"time": 2790, "pitch": 62, "duration": 5, "velocity": 96}, {"time": 2790, "pitch": 67, "duration": 6, "velocity": 100}, {"time": 2790, "pitch": 71, "duration": 6, "velocity": 93}, {"time": 2802, "pitch": 62, "duration": 3, "velocity": 102}, {"time": 2802, "pitch": 67, "duration": 3, "velocity": 102}, {"time": 2802, "pitch": 71, "duration": 3, "velocity": 102}, {"time": 2808, "pitch": 43, "duration": 9, "velocity": 95}, {"time": 2814, "pitch": 67, "duration": 7, "velocity": 127}, {"time": 2814, "pitch": 71, "duration": 6, "velocity": 117}, {"time": 2820, "pitch": 62, "duration": 3, "velocity": 77}, {"time": 2826, "pitch": 33, "duration": 3, "velocity": 72}, {"time": 2826, "pitch": 33, "duration": 3, "velocity": 112}, {"time": 2826, "pitch": 45, "duration": 4, "velocity": 96}, {"time": 2826, "pitch": 64, "duration": 10, "velocity": 112}, {"time": 2826, "pitch": 69, "duration": 8, "velocity": 117}, {"time": 2826, "pitch": 73, "duration": 8, "velocity": 122}, {"time": 2838, "pitch": 64, "duration": 6, "velocity": 102}, {"time": 2838, "pitch": 69, "duration": 6, "velocity": 122}, {"time": 2838, "pitch": 73, "duration": 6, "velocity": 127}, {"time": 2850, "pitch": 69, "duration": 5, "velocity": 127}, {"time": 2850, "pitch": 73, "duration": 6, "velocity": 127}, {"time": 2862, "pitch": 30, "duration": 3, "velocity": 89}, {"time": 2862, "pitch": 30, "duration": 3, "velocity": 122}, {"time": 2862, "pitch": 42, "duration": 16, "velocity": 83}, {"time": 2862, "pitch": 66, "duration": 9, "velocity": 99}, {"time": 2862, "pitch": 69, "duration": 7, "velocity": 86}, {"time": 2862, "pitch": 73, "duration": 7, "velocity": 122}, {"time": 2874, "pitch": 66, "duration": 2, "velocity": 117}, {"time": 2874, "pitch": 69, "duration": 1, "velocity": 100}, {"time": 2874, "pitch": 73, "duration": 1, "velocity": 102}, {"time": 2880, "pitch": 42, "duration": 8, "velocity": 95}, {"time": 2886, "pitch": 61, "duration": 2, "velocity": 107}, {"time": 2886, "pitch": 66, "duration": 5, "velocity": 122}, {"time": 2886, "pitch": 69, "duration": 6, "velocity": 100}, {"time": 2892, "pitch": 61, "duration": 1, "velocity": 112}, {"time": 2898, "pitch": 35, "duration": 26, "velocity": 75}, {"time": 2898, "pitch": 35, "duration": 26, "velocity": 99}, {"time": 2898, "pitch": 47, "duration": 14, "velocity": 112}, {"time": 2898, "pitch": 59, "duration": 10, "velocity": 97}, {"time": 2898, "pitch": 62, "duration": 9, "velocity": 117}, {"time": 2898, "pitch": 66, "duration": 10, "velocity": 112}, {"time": 2910, "pitch": 59, "duration": 6, "velocity": 112}, {"time": 2910, "pitch": 62, "duration": 6, "velocity": 117}, {"time": 2910, "pitch": 66, "duration": 7, "velocity": 127}, {"time": 2916, "pitch": 47, "duration": 7, "velocity": 99}, {"time": 2922, "pitch": 62, "duration": 5, "velocity": 122}, {"time": 2922, "pitch": 66, "duration": 6, "velocity": 127}, {"time": 2928, "pitch": 59, "duration": 3, "velocity": 112}, {"time": 2934, "pitch": 31, "duration": 25, "velocity": 73}, {"time": 2934, "pitch": 43, "duration": 16, "velocity": 107}, {"time": 2934, "pitch": 55, "duration": 10, "velocity": 117}, {"time": 2934, "pitch": 59, "duration": 11, "velocity": 102}, {"time": 2934, "pitch": 62, "duration": 10, "velocity": 107}, {"time": 2946, "pitch": 55, "duration": 7, "velocity": 107}, {"time": 2946, "pitch": 59, "duration": 7, "velocity": 117}, {"time": 2946, "pitch": 62, "duration": 7, "velocity": 102}, {"time": 2952, "pitch": 43, "duration": 8, "velocity": 89}, {"time": 2958, "pitch": 59, "duration": 6, "velocity": 127}, {"time": 2958, "pitch": 62, "duration": 6, "velocity": 117}, {"time": 2964, "pitch": 55, "duration": 2, "velocity": 93}, {"time": 2970, "pitch": 33, "duration": 27, "velocity": 64}, {"time": 2970, "pitch": 45, "duration": 14, "velocity": 95}, {"time": 2970, "pitch": 57, "duration": 8, "velocity": 117}, {"time": 2970, "pitch": 61, "duration": 6, "velocity": 127}, {"time": 2970, "pitch": 64, "duration": 8, "velocity": 102}, {"time": 2982, "pitch": 57, "duration": 2, "velocity": 99}, {"time": 2982, "pitch": 61, "duration": 2, "velocity": 117}, {"time": 2982, "pitch": 64, "duration": 3, "velocity": 95}, {"time": 2988, "pitch": 45, "duration": 11, "velocity": 96}, {"time": 2994, "pitch": 57, "duration": 1, "velocity": 89}, {"time": 2994, "pitch": 61, "duration": 7, "velocity": 127}, {"time": 2994, "pitch": 64, "duration": 6, "velocity": 117}, {"time": 3000, "pitch": 57, "duration": 2, "velocity": 92}, {"time": 3006, "pitch": 38, "duration": 35, "velocity": 77}, {"time": 3006, "pitch": 50, "duration": 14, "velocity": 112}, {"time": 3006, "pitch": 57, "duration": 10, "velocity": 112}, {"time": 3006, "pitch": 62, "duration": 10, "velocity": 117}, {"time": 3006, "pitch": 66, "duration": 10, "velocity": 127}, {"time": 3018, "pitch": 57, "duration": 8, "velocity": 112}, {"time": 3018, "pitch": 62, "duration": 8, "velocity": 127}, {"time": 3018, "pitch": 66, "duration": 10, "velocity": 127}, {"time": 3024, "pitch": 50, "duration": 9, "velocity": 93}, {"time": 3030, "pitch": 57, "duration": 10, "velocity": 100}, {"time": 3030, "pitch": 62, "duration": 10, "velocity": 127}, {"time": 3030, "pitch": 66, "duration": 10, "velocity": 127}, {"time": 3036, "pitch": 50, "duration": 8, "velocity": 95}, {"time": 3042, "pitch": 38, "duration": 26, "velocity": 99}, {"time": 3042, "pitch": 57, "duration": 9, "velocity": 112}, {"time": 3042, "pitch": 60, "duration": 10, "velocity": 112}, {"time": 3042, "pitch": 62, "duration": 10, "velocity": 127}, {"time": 3042, "pitch": 66, "duration": 10, "velocity": 112}, {"time": 3048, "pitch": 50, "duration": 8, "velocity": 85}, {"time": 3054, "pitch": 57, "duration": 6, "velocity": 127}, {"time": 3054, "pitch": 60, "duration": 6, "velocity": 102}, {"time": 3054, "pitch": 62, "duration": 6, "velocity": 117}, {"time": 3054, "pitch": 66, "duration": 9, "velocity": 122}, {"time": 3060, "pitch": 50, "duration": 8, "velocity": 95}, {"time": 3066, "pitch": 60, "duration": 6, "velocity": 127}, {"time": 3066, "pitch": 62, "duration": 6, "velocity": 127}, {"time": 3066, "pitch": 66, "duration": 6, "velocity": 127}, {"time": 3072, "pitch": 57, "duration": 2, "velocity": 85}, {"time": 3078, "pitch": 31, "duration": 24, "velocity": 76}, {"time": 3078, "pitch": 43, "duration": 14, "velocity": 107}, {"time": 3078, "pitch": 55, "duration": 10, "velocity": 117}, {"time": 3078, "pitch": 59, "duration": 10, "velocity": 107}, {"time": 3078, "pitch": 62, "duration": 10, "velocity": 107}, {"time": 3090, "pitch": 55, "duration": 6, "velocity": 102}, {"time": 3090, "pitch": 59, "duration": 6, "velocity": 100}, {"time": 3090, "pitch": 62, "duration": 6, "velocity": 100}, {"time": 3096, "pitch": 43, "duration": 8, "velocity": 95}, {"time": 3102, "pitch": 59, "duration": 7, "velocity": 127}, {"time": 3102, "pitch": 62, "duration": 6, "velocity": 117}, {"time": 3108, "pitch": 55, "duration": 3, "velocity": 95}, {"time": 3114, "pitch": 33, "duration": 24, "velocity": 73}, {"time": 3114, "pitch": 45, "duration": 14, "velocity": 107}, {"time": 3114, "pitch": 57, "duration": 9, "velocity": 112}, {"time": 3114, "pitch": 61, "duration": 9, "velocity": 127}, {"time": 3114, "pitch": 64, "duration": 7, "velocity": 99}, {"time": 3126, "pitch": 57, "duration": 7, "velocity": 107}, {"time": 3126, "pitch": 61, "duration": 7, "velocity": 127}, {"time": 3126, "pitch": 64, "duration": 7, "velocity": 112}, {"time": 3132, "pitch": 45, "duration": 6, "velocity": 107}, {"time": 3138, "pitch": 61, "duration": 6, "velocity": 127}, {"time": 3138, "pitch": 64, "duration": 6, "velocity": 117}, {"time": 3144, "pitch": 57, "duration": 3, "velocity": 100}, {"time": 3150, "pitch": 30, "duration": 22, "velocity": 66}, {"time": 3150, "pitch": 42, "duration": 15, "velocity": 92}, {"time": 3150, "pitch": 57, "duration": 9, "velocity": 112}, {"time": 3150, "pitch": 61, "duration": 9, "velocity": 127}, {"time": 3150, "pitch": 66, "duration": 9, "velocity": 112}, {"time": 3162, "pitch": 61, "duration": 8, "velocity": 127}, {"time": 3162, "pitch": 66, "duration": 9, "velocity": 127}, {"time": 3168, "pitch": 42, "duration": 7, "velocity": 99}, {"time": 3174, "pitch": 61, "duration": 7, "velocity": 127}, {"time": 3174, "pitch": 66, "duration": 7, "velocity": 127}, {"time": 3180, "pitch": 57, "duration": 4, "velocity": 97}, {"time": 3186, "pitch": 35, "duration": 3, "velocity": 78}, {"time": 3186, "pitch": 59, "duration": 10, "velocity": 117}, {"time": 3186, "pitch": 62, "duration": 10, "velocity": 122}, {"time": 3186, "pitch": 66, "duration": 10, "velocity": 117}, {"time": 3198, "pitch": 59, "duration": 8, "velocity": 117}, {"time": 3198, "pitch": 62, "duration": 10, "velocity": 99}, {"time": 3198, "pitch": 66, "duration": 9, "velocity": 92}, {"time": 3204, "pitch": 54, "duration": 7, "velocity": 81}, {"time": 3207, "pitch": 47, "duration": 6, "velocity": 17}, {"time": 3210, "pitch": 62, "duration": 6, "velocity": 127}, {"time": 3210, "pitch": 66, "duration": 6, "velocity": 127}, {"time": 3213, "pitch": 54, "duration": 1, "velocity": 100}, {"time": 3216, "pitch": 59, "duration": 2, "velocity": 102}, {"time": 3222, "pitch": 31, "duration": 26, "velocity": 95}, {"time": 3222, "pitch": 55, "duration": 7, "velocity": 117}, {"time": 3222, "pitch": 59, "duration": 7, "velocity": 100}, {"time": 3222, "pitch": 62, "duration": 7, "velocity": 102}, {"time": 3228, "pitch": 43, "duration": 8, "velocity": 88}, {"time": 3234, "pitch": 55, "duration": 5, "velocity": 107}, {"time": 3234, "pitch": 59, "duration": 5, "velocity": 107}, {"time": 3234, "pitch": 62, "duration": 5, "velocity": 99}, {"time": 3240, "pitch": 43, "duration": 9, "velocity": 97}, {"time": 3246, "pitch": 59, "duration": 7, "velocity": 127}, {"time": 3246, "pitch": 62, "duration": 6, "velocity": 122}, {"time": 3252, "pitch": 55, "duration": 4, "velocity": 89}, {"time": 3258, "pitch": 33, "duration": 36, "velocity": 82}, {"time": 3258, "pitch": 45, "duration": 15, "velocity": 100}, {"time": 3258, "pitch": 57, "duration": 4, "velocity": 117}, {"time": 3258, "pitch": 61, "duration": 8, "velocity": 127}, {"time": 3258, "pitch": 64, "duration": 8, "velocity": 107}, {"time": 3264, "pitch": 57, "duration": 4, "velocity": 64}, {"time": 3270, "pitch": 57, "duration": 8, "velocity": 117}, {"time": 3270, "pitch": 61, "duration": 9, "velocity": 127}, {"time": 3270, "pitch": 64, "duration": 9, "velocity": 102}, {"time": 3276, "pitch": 45, "duration": 8, "velocity": 95}, {"time": 3282, "pitch": 57, "duration": 6, "velocity": 100}, {"time": 3282, "pitch": 61, "duration": 8, "velocity": 127}, {"time": 3282, "pitch": 64, "duration": 8, "velocity": 99}, {"time": 3288, "pitch": 45, "duration": 5, "velocity": 92}, {"time": 3294, "pitch": 31, "duration": 61, "velocity": 76}, {"time": 3294, "pitch": 43, "duration": 14, "velocity": 93}, {"time": 3294, "pitch": 55, "duration": 10, "velocity": 107}, {"time": 3294, "pitch": 59, "duration": 11, "velocity": 107}, {"time": 3294, "pitch": 62, "duration": 11, "velocity": 102}, {"time": 3306, "pitch": 55, "duration": 9, "velocity": 88}, {"time": 3306, "pitch": 59, "duration": 9, "velocity": 77}, {"time": 3306, "pitch": 62, "duration": 9, "velocity": 76}, {"time": 3312, "pitch": 43, "duration": 8, "velocity": 42}, {"time": 3318, "pitch": 59, "duration": 9, "velocity": 90}, {"time": 3318, "pitch": 62, "duration": 9, "velocity": 93}, {"time": 3324, "pitch": 43, "duration": 9, "velocity": 46}, {"time": 3330, "pitch": 59, "duration": 11, "velocity": 96}, {"time": 3330, "pitch": 62, "duration": 11, "velocity": 99}, {"time": 3336, "pitch": 43, "duration": 7, "velocity": 33}, {"time": 3342, "pitch": 55, "duration": 7, "velocity": 61}, {"time": 3342, "pitch": 59, "duration": 9, "velocity": 63}, {"time": 3342, "pitch": 62, "duration": 9, "velocity": 59}, {"time": 3348, "pitch": 43, "duration": 11, "velocity": 47}, {"time": 3354, "pitch": 35, "duration": 5, "velocity": 117}, {"time": 3354, "pitch": 59, "duration": 2, "velocity": 92}, {"time": 3354, "pitch": 62, "duration": 3, "velocity": 93}, {"time": 3360, "pitch": 33, "duration": 6, "velocity": 102}, {"time": 3366, "pitch": 31, "duration": 27, "velocity": 72}, {"time": 3366, "pitch": 31, "duration": 27, "velocity": 102}, {"time": 3366, "pitch": 43, "duration": 14, "velocity": 96}, {"time": 3366, "pitch": 62, "duration": 5, "velocity": 96}, {"time": 3366, "pitch": 67, "duration": 6, "velocity": 100}, {"time": 3366, "pitch": 71, "duration": 6, "velocity": 93}, {"time": 3378, "pitch": 62, "duration": 3, "velocity": 102}, {"time": 3378, "pitch": 67, "duration": 3, "velocity": 102}, {"time": 3378, "pitch": 71, "duration": 3, "velocity": 102}, {"time": 3384, "pitch": 43, "duration": 9, "velocity": 95}, {"time": 3390, "pitch": 67, "duration": 7, "velocity": 127}, {"time": 3390, "pitch": 71, "duration": 6, "velocity": 117}, {"time": 3396, "pitch": 62, "duration": 3, "velocity": 77}, {"time": 3402, "pitch": 33, "duration": 3, "velocity": 72}, {"time": 3402, "pitch": 33, "duration": 3, "velocity": 112}, {"time": 3402, "pitch": 45, "duration": 4, "velocity": 96}, {"time": 3402, "pitch": 64, "duration": 10, "velocity": 112}, {"time": 3402, "pitch": 69, "duration": 8, "velocity": 117}, {"time": 3402, "pitch": 73, "duration": 8, "velocity": 122}, {"time": 3414, "pitch": 64, "duration": 6, "velocity": 102}, {"time": 3414, "pitch": 69, "duration": 6, "velocity": 122}, {"time": 3414, "pitch": 73, "duration": 6, "velocity": 127}, {"time": 3426, "pitch": 69, "duration": 5, "velocity": 127}, {"time": 3426, "pitch": 73, "duration": 6, "velocity": 127}, {"time": 3438, "pitch": 30, "duration": 3, "velocity": 89}, {"time": 3438, "pitch": 30, "duration": 3, "velocity": 122}, {"time": 3438, "pitch": 42, "duration": 16, "velocity": 83}, {"time": 3438, "pitch": 66, "duration": 9, "velocity": 99}, {"time": 3438, "pitch": 69, "duration": 7, "velocity": 86}, {"time": 3438, "pitch": 73, "duration": 7, "velocity": 122}, {"time": 3450, "pitch": 66, "duration": 2, "velocity": 117}, {"time": 3450, "pitch": 69, "duration": 1, "velocity": 100}, {"time": 3450, "pitch": 73, "duration": 1, "velocity": 102}, {"time": 3456, "pitch": 42, "duration": 8, "velocity": 95}, {"time": 3462, "pitch": 61, "duration": 2, "velocity": 107}, {"time": 3462, "pitch": 66, "duration": 5, "velocity": 122}, {"time": 3462, "pitch": 69, "duration": 6, "velocity": 100}, {"time": 3468, "pitch": 61, "duration": 1, "velocity": 112}, {"time": 3474, "pitch": 35, "duration": 26, "velocity": 75}, {"time": 3474, "pitch": 35, "duration": 26, "velocity": 99}, {"time": 3474, "pitch": 47, "duration": 14, "velocity": 112}, {"time": 3474, "pitch": 59, "duration": 10, "velocity": 97}, {"time": 3474, "pitch": 62, "duration": 9, "velocity": 117}, {"time": 3474, "pitch": 66, "duration": 10, "velocity": 112}, {"time": 3486, "pitch": 59, "duration": 6, "velocity": 112}, {"time": 3486, "pitch": 62, "duration": 6, "velocity": 117}, {"time": 3486, "pitch": 66, "duration": 7, "velocity": 127}, {"time": 3492, "pitch": 47, "duration": 7, "velocity": 99}, {"time": 3498, "pitch": 62, "duration": 5, "velocity": 122}, {"time": 3498, "pitch": 66, "duration": 6, "velocity": 127}, {"time": 3504, "pitch": 59, "duration": 3, "velocity": 112}, {"time": 3510, "pitch": 31, "duration": 25, "velocity": 73}, {"time": 3510, "pitch": 43, "duration": 16, "velocity": 107}, {"time": 3510, "pitch": 55, "duration": 10, "velocity": 117}, {"time": 3510, "pitch": 59, "duration": 11, "velocity": 102}, {"time": 3510, "pitch": 62, "duration": 10, "velocity": 107}, {"time": 3522, "pitch": 55, "duration": 7, "velocity": 107}, {"time": 3522, "pitch": 59, "duration": 7, "velocity": 117}, {"time": 3522, "pitch": 62, "duration": 7, "velocity": 102}, {"time": 3528, "pitch": 43, "duration": 8, "velocity": 89}, {"time": 3534, "pitch": 59, "duration": 6, "velocity": 127}, {"time": 3534, "pitch": 62, "duration": 6, "velocity": 117}, {"time": 3540, "pitch": 55, "duration": 2, "velocity": 93}, {"time": 3546, "pitch": 33, "duration": 27, "velocity": 64}, {"time": 3546, "pitch": 45, "duration": 14, "velocity": 95}, {"time": 3546, "pitch": 57, "duration": 8, "velocity": 117}, {"time": 3546, "pitch": 61, "duration": 6, "velocity": 127}, {"time": 3546, "pitch": 64, "duration": 8, "velocity": 102}, {"time": 3558, "pitch": 57, "duration": 2, "velocity": 99}, {"time": 3558, "pitch": 61, "duration": 2, "velocity": 117}, {"time": 3558, "pitch": 64, "duration": 3, "velocity": 95}, {"time": 3564, "pitch": 45, "duration": 11, "velocity": 96}, {"time": 3570, "pitch": 57, "duration": 1, "velocity": 89}, {"time": 3570, "pitch": 61, "duration": 7, "velocity": 127}, {"time": 3570, "pitch": 64, "duration": 6, "velocity": 117}, {"time": 3576, "pitch": 57, "duration": 2, "velocity": 92}, {"time": 3582, "pitch": 38, "duration": 35, "velocity": 77}, {"time": 3582, "pitch": 50, "duration": 14, "velocity": 112}, {"time": 3582, "pitch": 57, "duration": 10, "velocity": 112}, {"time": 3582, "pitch": 62, "duration": 10, "velocity": 117}, {"time": 3582, "pitch": 66, "duration": 10, "velocity": 127}, {"time": 3594, "pitch": 57, "duration": 8, "velocity": 112}, {"time": 3594, "pitch": 62, "duration": 8, "velocity": 127}, {"time": 3594, "pitch": 66, "duration": 10, "velocity": 127}, {"time": 3600, "pitch": 50, "duration": 9, "velocity": 93}, {"time": 3606, "pitch": 57, "duration": 10, "velocity": 100}, {"time": 3606, "pitch": 62, "duration": 10, "velocity": 127}, {"time": 3606, "pitch": 66, "duration": 10, "velocity": 127}, {"time": 3612, "pitch": 50, "duration": 8, "velocity": 95}, {"time": 3618, "pitch": 38, "duration": 26, "velocity": 99}, {"time": 3618, "pitch": 57, "duration": 9, "velocity": 112}, {"time": 3618, "pitch": 60, "duration": 10, "velocity": 112}, {"time": 3618, "pitch": 62, "duration": 10, "velocity": 127}, {"time": 3618, "pitch": 66, "duration": 10, "velocity": 112}, {"time": 3624, "pitch": 50, "duration": 8, "velocity": 85}, {"time": 3630, "pitch": 57, "duration": 6, "velocity": 127}, {"time": 3630, "pitch": 60, "duration": 6, "velocity": 102}, {"time": 3630, "pitch": 62, "duration": 6, "velocity": 117}, {"time": 3630, "pitch": 66, "duration": 9, "velocity": 122}, {"time": 3636, "pitch": 50, "duration": 8, "velocity": 95}, {"time": 3642, "pitch": 60, "duration": 6, "velocity": 127}, {"time": 3642, "pitch": 62, "duration": 6, "velocity": 127}, {"time": 3642, "pitch": 66, "duration": 6, "velocity": 127}, {"time": 3648, "pitch": 57, "duration": 2, "velocity": 85}, {"time": 3654, "pitch": 31, "duration": 24, "velocity": 76}, {"time": 3654, "pitch": 43, "duration": 14, "velocity": 107}, {"time": 3654, "pitch": 55, "duration": 10, "velocity": 117}, {"time": 3654, "pitch": 59, "duration": 10, "velocity": 107}, {"time": 3654, "pitch": 62, "duration": 10, "velocity": 107}, {"time": 3666, "pitch": 55, "duration": 6, "velocity": 102}, {"time": 3666, "pitch": 59, "duration": 6, "velocity": 100}, {"time": 3666, "pitch": 62, "duration": 6, "velocity": 100}, {"time": 3672, "pitch": 43, "duration": 8, "velocity": 95}, {"time": 3678, "pitch": 59, "duration": 7, "velocity": 127}, {"time": 3678, "pitch": 62, "duration": 6, "velocity": 117}, {"time": 3684, "pitch": 55, "duration": 3, "velocity": 95}, {"time": 3690, "pitch": 33, "duration": 24, "velocity": 73}, {"time": 3690, "pitch": 45, "duration": 14, "velocity": 107}, {"time": 3690, "pitch": 57, "duration": 9, "velocity": 112}, {"time": 3690, "pitch": 61, "duration": 9, "velocity": 127}, {"time": 3690, "pitch": 64, "duration": 7, "velocity": 99}, {"time": 3702, "pitch": 57, "duration": 7, "velocity": 107}, {"time": 3702, "pitch": 61, "duration": 7, "velocity": 127}, {"time": 3702, "pitch": 64, "duration": 7, "velocity": 112}, {"time": 3708, "pitch": 45, "duration": 6, "velocity": 107}, {"time": 3714, "pitch": 61, "duration": 6, "velocity": 127}, {"time": 3714, "pitch": 64, "duration": 6, "velocity": 117}, {"time": 3720, "pitch": 57, "duration": 3, "velocity": 100}, {"time": 3726, "pitch": 30, "duration": 22, "velocity": 66}, {"time": 3726, "pitch": 42, "duration": 15, "velocity": 92}, {"time": 3726, "pitch": 57, "duration": 9, "velocity": 112}, {"time": 3726, "pitch": 61, "duration": 9, "velocity": 127}, {"time": 3726, "pitch": 66, "duration": 9, "velocity": 112}, {"time": 3738, "pitch": 61, "duration": 8, "velocity": 127}, {"time": 3738, "pitch": 66, "duration": 9, "velocity": 127}, {"time": 3744, "pitch": 42, "duration": 7, "velocity": 99}, {"time": 3750, "pitch": 61, "duration": 7, "velocity": 127}, {"time": 3750, "pitch": 66, "duration": 7, "velocity": 127}, {"time": 3756, "pitch": 57, "duration": 4, "velocity": 97}, {"time": 3762, "pitch": 35, "duration": 3, "velocity": 78}, {"time": 3762, "pitch": 59, "duration": 10, "velocity": 117}, {"time": 3762, "pitch": 62, "duration": 10, "velocity": 122}, {"time": 3762, "pitch": 66, "duration": 10, "velocity": 117}, {"time": 3774, "pitch": 59, "duration": 8, "velocity": 117}, {"time": 3774, "pitch": 62, "duration": 10, "velocity": 99}, {"time": 3774, "pitch": 66, "duration": 9, "velocity": 92}, {"time": 3780, "pitch": 54, "duration": 7, "velocity": 81}, {"time": 3783, "pitch": 47, "duration": 6, "velocity": 17}, {"time": 3786, "pitch": 62, "duration": 6, "velocity": 127}, {"time": 3786, "pitch": 66, "duration": 6, "velocity": 127}, {"time": 3789, "pitch": 54, "duration": 1, "velocity": 100}, {"time": 3792, "pitch": 59, "duration": 2, "velocity": 102}, {"time": 3798, "pitch": 31, "duration": 26, "velocity": 95}, {"time": 3798, "pitch": 55, "duration": 7, "velocity": 117}, {"time": 3798, "pitch": 59, "duration": 7, "velocity": 100}, {"time": 3798, "pitch": 62, "duration": 7, "velocity": 102}, {"time": 3804, "pitch": 43, "duration": 8, "velocity": 88}, {"time": 3810, "pitch": 55, "duration": 5, "velocity": 107}, {"time": 3810, "pitch": 59, "duration": 5, "velocity": 107}, {"time": 3810, "pitch": 62, "duration": 5, "velocity": 99}, {"time": 3816, "pitch": 43, "duration": 9, "velocity": 97}, {"time": 3822, "pitch": 59, "duration": 7, "velocity": 127}, {"time": 3822, "pitch": 62, "duration": 6, "velocity": 122}, {"time": 3828, "pitch": 55, "duration": 4, "velocity": 89}, {"time": 3834, "pitch": 33, "duration": 36, "velocity": 82}, {"time": 3834, "pitch": 45, "duration": 15, "velocity": 100}, {"time": 3834, "pitch": 57, "duration": 4, "velocity": 117}, {"time": 3834, "pitch": 61, "duration": 8, "velocity": 127}, {"time": 3834, "pitch": 64, "duration": 8, "velocity": 107}, {"time": 3840, "pitch": 57, "duration": 4, "velocity": 64}, {"time": 3846, "pitch": 57, "duration": 8, "velocity": 117}, {"time": 3846, "pitch": 61, "duration": 9, "velocity": 127}, {"time": 3846, "pitch": 64, "duration": 9, "velocity": 102}, {"time": 3852, "pitch": 45, "duration": 8, "velocity": 95}, {"time": 3858, "pitch": 57, "duration": 6, "velocity": 100}, {"time": 3858, "pitch": 61, "duration": 8, "velocity": 127}, {"time": 3858, "pitch": 64, "duration": 8, "velocity": 99}, {"time": 3864, "pitch": 45, "duration": 5, "velocity": 92}, {"time": 3870, "pitch": 31, "duration": 61, "velocity": 76}, {"time": 3870, "pitch": 43, "duration": 14, "velocity": 93}, {"time": 3870, "pitch": 55, "duration": 10, "velocity": 107}, {"time": 3870, "pitch": 59, "duration": 11, "velocity": 107}, {"time": 3870, "pitch": 62, "duration": 11, "velocity": 102}, {"time": 3882, "pitch": 55, "duration": 9, "velocity": 88}, {"time": 3882, "pitch": 59, "duration": 9, "velocity": 77}, {"time": 3882, "pitch": 62, "duration": 9, "velocity": 76}, {"time": 3888, "pitch": 43, "duration": 8, "velocity": 42}, {"time": 3894, "pitch": 59, "duration": 9, "velocity": 90}, {"time": 3894, "pitch": 62, "duration": 9, "velocity": 93}, {"time": 3900, "pitch": 43, "duration": 9, "velocity": 46}, {"time": 3906, "pitch": 59, "duration": 11, "velocity": 96}, {"time": 3906, "pitch": 62, "duration": 11, "velocity": 99}, {"time": 3912, "pitch": 43, "duration": 7, "velocity": 33}, {"time": 3918, "pitch": 55, "duration": 7, "velocity": 61}, {"time": 3918, "pitch": 59, "duration": 9, "velocity": 63}, {"time": 3918, "pitch": 62, "duration": 9, "velocity": 59}, {"time": 3924, "pitch": 43, "duration": 11, "velocity": 47}, {"time": 3930, "pitch": 59, "duration": 2, "velocity": 92}, {"time": 3930, "pitch": 62, "duration": 3, "velocity": 93}, {"time": 3942, "pitch": 35, "duration": 29, "velocity": 85}, {"time": 3942, "pitch": 59, "duration": 9, "velocity": 90}, {"time": 3942, "pitch": 62, "duration": 8, "velocity": 99}, {"time": 3942, "pitch": 66, "duration": 8, "velocity": 107}, {"time": 3948, "pitch": 47, "duration": 9, "velocity": 63}, {"time": 3954, "pitch": 62, "duration": 7, "velocity": 71}, {"time": 3954, "pitch": 66, "duration": 8, "velocity": 69}, {"time": 3960, "pitch": 47, "duration": 5, "velocity": 54}, {"time": 3966, "pitch": 62, "duration": 6, "velocity": 93}, {"time": 3966, "pitch": 66, "duration": 6, "velocity": 92}, {"time": 3972, "pitch": 59, "duration": 8, "velocity": 71}, {"time": 3978, "pitch": 33, "duration": 30, "velocity": 95}, {"time": 3984, "pitch": 45, "duration": 8, "velocity": 68}, {"time": 3990, "pitch": 57, "duration": 5, "velocity": 67}, {"time": 3990, "pitch": 61, "duration": 10, "velocity": 112}, {"time": 3990, "pitch": 64, "duration": 10, "velocity": 86}, {"time": 3996, "pitch": 45, "duration": 12, "velocity": 58}, {"time": 4002, "pitch": 61, "duration": 13, "velocity": 100}, {"time": 4002, "pitch": 64, "duration": 14, "velocity": 83}, {"time": 4008, "pitch": 57, "duration": 8, "velocity": 73}, {"time": 4014, "pitch": 30, "duration": 26, "velocity": 95}, {"time": 4020, "pitch": 42, "duration": 9, "velocity": 95}, {"time": 4026, "pitch": 61, "duration": 10, "velocity": 122}, {"time": 4032, "pitch": 42, "duration": 10, "velocity": 97}, {"time": 4038, "pitch": 61, "duration": 4, "velocity": 102}, {"time": 4038, "pitch": 66, "duration": 18, "velocity": 117}, {"time": 4044, "pitch": 57, "duration": 9, "velocity": 81}, {"time": 4050, "pitch": 35, "duration": 29, "velocity": 88}, {"time": 4056, "pitch": 47, "duration": 23, "velocity": 81}, {"time": 4062, "pitch": 62, "duration": 6, "velocity": 97}, {"time": 4068, "pitch": 42, "duration": 10, "velocity": 56}, {"time": 4074, "pitch": 66, "duration": 6, "velocity": 122}, {"time": 4080, "pitch": 62, "duration": 1, "velocity": 56}, {"time": 4086, "pitch": 31, "duration": 28, "velocity": 88}, {"time": 4092, "pitch": 43, "duration": 8, "velocity": 73}, {"time": 4098, "pitch": 62, "duration": 26, "velocity": 93}, {"time": 4104, "pitch": 43, "duration": 17, "velocity": 61}, {"time": 4110, "pitch": 55, "duration": 13, "velocity": 89}, {"time": 4116, "pitch": 59, "duration": 7, "velocity": 70}, {"time": 4122, "pitch": 33, "duration": 30, "velocity": 86}, {"time": 4128, "pitch": 45, "duration": 8, "velocity": 75}, {"time": 4134, "pitch": 64, "duration": 25, "velocity": 99}, {"time": 4140, "pitch": 45, "duration": 16, "velocity": 55}, {"time": 4146, "pitch": 61, "duration": 13, "velocity": 93}, {"time": 4152, "pitch": 57, "duration": 8, "velocity": 85}, {"time": 4158, "pitch": 35, "duration": 35, "velocity": 88}, {"time": 4164, "pitch": 47, "duration": 9, "velocity": 89}, {"time": 4170, "pitch": 62, "duration": 7, "velocity": 77}, {"time": 4170, "pitch": 66, "duration": 7, "velocity": 76}, {"time": 4176, "pitch": 47, "duration": 9, "velocity": 96}, {"time": 4182, "pitch": 61, "duration": 10, "velocity": 100}, {"time": 4188, "pitch": 62, "duration": 12, "velocity": 77}, {"time": 4194, "pitch": 35, "duration": 35, "velocity": 83}, {"time": 4200, "pitch": 47, "duration": 8, "velocity": 76}, {"time": 4206, "pitch": 66, "duration": 24, "velocity": 93}, {"time": 4212, "pitch": 47, "duration": 15, "velocity": 76}, {"time": 4218, "pitch": 62, "duration": 12, "velocity": 95}, {"time": 4224, "pitch": 61, "duration": 6, "velocity": 95}, {"time": 4230, "pitch": 31, "duration": 28, "velocity": 88}, {"time": 4236, "pitch": 43, "duration": 8, "velocity": 73}, {"time": 4242, "pitch": 62, "duration": 26, "velocity": 93}, {"time": 4248, "pitch": 43, "duration": 17, "velocity": 61}, {"time": 4254, "pitch": 55, "duration": 13, "velocity": 89}, {"time": 4260, "pitch": 59, "duration": 7, "velocity": 70}, {"time": 4266, "pitch": 33, "duration": 30, "velocity": 86}, {"time": 4272, "pitch": 45, "duration": 8, "velocity": 75}, {"time": 4278, "pitch": 64, "duration": 25, "velocity": 99}, {"time": 4284, "pitch": 45, "duration": 16, "velocity": 55}, {"time": 4290, "pitch": 61, "duration": 13, "velocity": 93}, {"time": 4296, "pitch": 57, "duration": 8, "velocity": 85}, {"time": 4302, "pitch": 35, "duration": 35, "velocity": 88}, {"time": 4308, "pitch": 47, "duration": 9, "velocity": 89}, {"time": 4314, "pitch": 62, "duration": 7, "velocity": 77}, {"time": 4314, "pitch": 66, "duration": 7, "velocity": 76}, {"time": 4320, "pitch": 47, "duration": 9, "velocity": 96}, {"time": 4326, "pitch": 61, "duration": 10, "velocity": 100}, {"time": 4332, "pitch": 62, "duration": 6, "velocity": 77}, {"time": 4338, "pitch": 35, "duration": 30, "velocity": 78}, {"time": 4344, "pitch": 47, "duration": 8, "velocity": 50}, {"time": 4350, "pitch": 59, "duration": 15, "velocity": 59}, {"time": 4356, "pitch": 47, "duration": 10, "velocity": 40}, {"time": 4362, "pitch": 66, "duration": 10, "velocity": 92}, {"time": 4368, "pitch": 59, "duration": 8, "velocity": 48}, {"time": 4374, "pitch": 31, "duration": 29, "velocity": 70}, {"time": 4380, "pitch": 43, "duration": 10, "velocity": 61}, {"time": 4386, "pitch": 62, "duration": 25, "velocity": 60}, {"time": 4392, "pitch": 43, "duration": 16, "velocity": 38}, {"time": 4398, "pitch": 55, "duration": 12, "velocity": 64}, {"time": 4404, "pitch": 59, "duration": 7, "velocity": 52}, {"time": 4410, "pitch": 33, "duration": 29, "velocity": 73}, {"time": 4416, "pitch": 45, "duration": 8, "velocity": 54}, {"time": 4422, "pitch": 64, "duration": 25, "velocity": 73}, {"time": 4428, "pitch": 45, "duration": 18, "velocity": 43}, {"time": 4434, "pitch": 61, "duration": 13, "velocity": 42}, {"time": 4440, "pitch": 57, "duration": 7, "velocity": 40}, {"time": 4446, "pitch": 35, "duration": 83, "velocity": 55}, {"time": 4452, "pitch": 47, "duration": 77, "velocity": 39}, {"time": 4458, "pitch": 59, "duration": 70, "velocity": 45}], "annotations": [{"time": 415, "annotation": {"number": 64, "value": 127}, "group": "control_change"}, {"time": 446, "annotation": {"number": 64, "value": 0}, "group": "control_change"}, {"time": 449, "annotation": {"number": 64, "value": 127}, "group": "control_change"}, {"time": 484, "annotation": {"number": 64, "value": 0}, "group": "control_change"}, {"time": 486, "annotation": {"number": 64, "value": 127}, "group": "control_change"}, {"time": 519, "annotation": {"number": 64, "value": 0}, "group": "control_change"}, {"time": 521, "annotation": {"number": 64, "value": 127}, "group": "control_change"}, {"time": 522, "annotation": {"number": 64, "value": 127}, "group": "control_change"}, {"time": 557, "annotation": {"number": 64, "value": 0}, "group": "control_change"}, {"time": 558, "annotation": {"number": 64, "value": 127}, "group": "control_change"}, {"time": 593, "annotation": {"number": 64, "value": 0}, "group": "control_change"}, {"time": 594, "annotation": {"number": 64, "value": 127}, "group": "control_change"}, {"time": 629, "annotation": {"number": 64, "value": 0}, "group": "control_change"}, {"time": 630, "annotation": {"number": 64, "value": 127}, "group": "control_change"}, {"time": 664, "annotation": {"number": 64, "value": 0}, "group": "control_change"}, {"time": 666, "annotation": {"number": 64, "value": 127}, "group": "control_change"}, {"time": 749, "annotation": {"number": 64, "value": 127}, "group": "control_change"}, {"time": 753, "annotation": {"number": 64, "value": 0}, "group": "control_change"}, {"time": 754, "annotation": {"number": 64, "value": 127}, "group": "control_change"}, {"time": 771, "annotation": {"number": 64, "value": 0}, "group": "control_change"}, {"time": 774, "annotation": {"number": 64, "value": 127}, "group": "control_change"}, {"time": 807, "annotation": {"number": 64, "value": 0}, "group": "control_change"}, {"time": 810, "annotation": {"number": 64, "value": 127}, "group": "control_change"}, {"time": 843, "annotation": {"number": 64, "value": 0}, "group": "control_change"}, {"time": 846, "annotation": {"number": 64, "value": 127}, "group": "control_change"}, {"time": 879, "annotation": {"number": 64, "value": 0}, "group": "control_change"}, {"time": 882, "annotation": {"number": 64, "value": 127}, "group": "control_change"}, {"time": 915, "annotation": {"number": 64, "value": 0}, "group": "control_change"}, {"time": 918, "annotation": {"number": 64, "value": 127}, "group": "control_change"}, {"time": 951, "annotation": {"number": 64, "value": 0}, "group": "control_change"}, {"time": 954, "annotation": {"number": 64, "value": 127}, "group": "control_change"}, {"time": 987, "annotation": {"number": 64, "value": 0}, "group": "control_change"}, {"time": 990, "annotation": {"number": 64, "value": 127}, "group": "control_change"}, {"time": 1023, "annotation": {"number": 64, "value": 0}, "group": "control_change"}, {"time": 1027, "annotation": {"number": 64, "value": 127}, "group": "control_change"}, {"time": 1059, "annotation": {"number": 64, "value": 0}, "group": "control_change"}, {"time": 1062, "annotation": {"number": 64, "value": 127}, "group": "control_change"}, {"time": 1094, "annotation": {"number": 64, "value": 0}, "group": "control_change"}, {"time": 1098, "annotation": {"number": 64, "value": 127}, "group": "control_change"}, {"time": 1131, "annotation": {"number": 64, "value": 0}, "group": "control_change"}, {"time": 1134, "annotation": {"number": 64, "value": 127}, "group": "control_change"}, {"time": 1166, "annotation": {"number": 64, "value": 0}, "group": "control_change"}, {"time": 1170, "annotation": {"number": 64, "value": 127}, "group": "control_change"}, {"time": 1204, "annotation": {"number": 64, "value": 0}, "group": "control_change"}, {"time": 1214, "annotation": {"number": 64, "value": 127}, "group": "control_change"}, {"time": 1238, "annotation": {"number": 64, "value": 0}, "group": "control_change"}, {"time": 1242, "annotation": {"number": 64, "value": 127}, "group": "control_change"}, {"time": 1274, "annotation": {"number": 64, "value": 0}, "group": "control_change"}, {"time": 1312, "annotation": {"number": 64, "value": 0}, "group": "control_change"}, {"time": 1314, "annotation": {"number": 64, "value": 127}, "group": "control_change"}, {"time": 1348, "annotation": {"number": 64, "value": 0}, "group": "control_change"}, {"time": 1349, "annotation": {"number": 64, "value": 127}, "group": "control_change"}, {"time": 1350, "annotation": {"number": 64, "value": 127}, "group": "control_change"}, {"time": 1383, "annotation": {"number": 64, "value": 0}, "group": "control_change"}, {"time": 1385, "annotation": {"number": 64, "value": 0}, "group": "control_change"}, {"time": 1385, "annotation": {"number": 64, "value": 127}, "group": "control_change"}, {"time": 1387, "annotation": {"number": 64, "value": 127}, "group": "control_change"}, {"time": 1421, "annotation": {"number": 64, "value": 0}, "group": "control_change"}, {"time": 1422, "annotation": {"number": 64, "value": 127}, "group": "control_change"}, {"time": 1423, "annotation": {"number": 64, "value": 127}, "group": "control_change"}, {"time": 1456, "annotation": {"number": 64, "value": 0}, "group": "control_change"}, {"time": 1458, "annotation": {"number": 64, "value": 127}, "group": "control_change"}, {"time": 1492, "annotation": {"number": 64, "value": 0}, "group": "control_change"}, {"time": 1493, "annotation": {"number": 64, "value": 127}, "group": "control_change"}, {"time": 1528, "annotation": {"number": 64, "value": 0}, "group": "control_change"}, {"time": 1530, "annotation": {"number": 64, "value": 127}, "group": "control_change"}, {"time": 1564, "annotation": {"number": 64, "value": 0}, "group": "control_change"}, {"time": 1566, "annotation": {"number": 64, "value": 127}, "group": "control_change"}, {"time": 1600, "annotation": {"number": 64, "value": 0}, "group": "control_change"}, {"time": 1602, "annotation": {"number": 64, "value": 127}, "group": "control_change"}, {"time": 1637, "annotation": {"number": 64, "value": 0}, "group": "control_change"}, {"time": 1638, "annotation": {"number": 64, "value": 127}, "group": "control_change"}, {"time": 1672, "annotation": {"number": 64, "value": 0}, "group": "control_change"}, {"time": 1674, "annotation": {"number": 64, "value": 127}, "group": "control_change"}, {"time": 1708, "annotation": {"number": 64, "value": 0}, "group": "control_change"}, {"time": 1709, "annotation": {"number": 64, "value": 127}, "group": "control_change"}, {"time": 1744, "annotation": {"number": 64, "value": 0}, "group": "control_change"}, {"time": 1746, "annotation": {"number": 64, "value": 127}, "group": "control_change"}, {"time": 1780, "annotation": {"number": 64, "value": 0}, "group": "control_change"}, {"time": 1782, "annotation": {"number": 64, "value": 127}, "group": "control_change"}, {"time": 1818, "annotation": {"number": 64, "value": 127}, "group": "control_change"}, {"time": 1887, "annotation": {"number": 64, "value": 0}, "group": "control_change"}, {"time": 1890, "annotation": {"number": 64, "value": 127}, "group": "control_change"}, {"time": 1935, "annotation": {"number": 64, "value": 0}, "group": "control_change"}, {"time": 1937, "annotation": {"number": 64, "value": 127}, "group": "control_change"}, {"time": 1961, "annotation": {"number": 64, "value": 0}, "group": "control_change"}, {"time": 1962, "annotation": {"number": 64, "value": 127}, "group": "control_change"}, {"time": 1997, "annotation": {"number": 64, "value": 0}, "group": "control_change"}, {"time": 1998, "annotation": {"number": 64, "value": 127}, "group": "control_change"}, {"time": 2032, "annotation": {"number": 64, "value": 0}, "group": "control_change"}, {"time": 2034, "annotation": {"number": 64, "value": 127}, "group": "control_change"}, {"time": 2068, "annotation": {"number": 64, "value": 0}, "group": "control_change"}, {"time": 2070, "annotation": {"number": 64, "value": 127}, "group": "control_change"}, {"time": 2104, "annotation": {"number": 64, "value": 0}, "group": "control_change"}, {"time": 2106, "annotation": {"number": 64, "value": 127}, "group": "control_change"}, {"time": 2140, "annotation": {"number": 64, "value": 0}, "group": "control_change"}, {"time": 2142, "annotation": {"number": 64, "value": 127}, "group": "control_change"}, {"time": 2176, "annotation": {"number": 64, "value": 0}, "group": "control_change"}, {"time": 2177, "annotation": {"number": 64, "value": 127}, "group": "control_change"}, {"time": 2211, "annotation": {"number": 64, "value": 0}, "group": "control_change"}, {"time": 2214, "annotation": {"number": 64, "value": 127}, "group": "control_change"}, {"time": 2246, "annotation": {"number": 64, "value": 0}, "group": "control_change"}, {"time": 2250, "annotation": {"number": 64, "value": 127}, "group": "control_change"}, {"time": 2283, "annotation": {"number": 64, "value": 0}, "group": "control_change"}, {"time": 2286, "annotation": {"number": 64, "value": 127}, "group": "control_change"}, {"time": 2319, "annotation": {"number": 64, "value": 0}, "group": "control_change"}, {"time": 2322, "annotation": {"number": 64, "value": 127}, "group": "control_change"}, {"time": 2357, "annotation": {"number": 64, "value": 0}, "group": "control_change"}, {"time": 2360, "annotation": {"number": 64, "value": 127}, "group": "control_change"}, {"time": 2361, "annotation": {"number": 64, "value": 0}, "group": "control_change"}, {"time": 2363, "annotation": {"number": 64, "value": 127}, "group": "control_change"}, {"time": 2392, "annotation": {"number": 64, "value": 0}, "group": "control_change"}, {"time": 2394, "annotation": {"number": 64, "value": 127}, "group": "control_change"}, {"time": 2428, "annotation": {"number": 64, "value": 0}, "group": "control_change"}, {"time": 2430, "annotation": {"number": 64, "value": 127}, "group": "control_change"}, {"time": 2435, "annotation": {"number": 64, "value": 0}, "group": "control_change"}, {"time": 2438, "annotation": {"number": 64, "value": 127}, "group": "control_change"}, {"time": 2464, "annotation": {"number": 64, "value": 0}, "group": "control_change"}, {"time": 2503, "annotation": {"number": 64, "value": 127}, "group": "control_change"}, {"time": 2535, "annotation": {"number": 64, "value": 0}, "group": "control_change"}, {"time": 2538, "annotation": {"number": 64, "value": 127}, "group": "control_change"}, {"time": 2570, "annotation": {"number": 64, "value": 0}, "group": "control_change"}, {"time": 2574, "annotation": {"number": 64, "value": 127}, "group": "control_change"}, {"time": 2607, "annotation": {"number": 64, "value": 0}, "group": "control_change"}, {"time": 2610, "annotation": {"number": 64, "value": 127}, "group": "control_change"}, {"time": 2642, "annotation": {"number": 64, "value": 0}, "group": "control_change"}, {"time": 2646, "annotation": {"number": 64, "value": 127}, "group": "control_change"}, {"time": 2680, "annotation": {"number": 64, "value": 0}, "group": "control_change"}, {"time": 2690, "annotation": {"number": 64, "value": 127}, "group": "control_change"}, {"time": 2714, "annotation": {"number": 64, "value": 0}, "group": "control_change"}, {"time": 2718, "annotation": {"number": 64, "value": 127}, "group": "control_change"}, {"time": 2750, "annotation": {"number": 64, "value": 0}, "group": "control_change"}, {"time": 2788, "annotation": {"number": 64, "value": 0}, "group": "control_change"}, {"time": 2790, "annotation": {"number": 64, "value": 127}, "group": "control_change"}, {"time": 2824, "annotation": {"number": 64, "value": 0}, "group": "control_change"}, {"time": 2825, "annotation": {"number": 64, "value": 127}, "group": "control_change"}, {"time": 2826, "annotation": {"number": 64, "value": 127}, "group": "control_change"}, {"time": 2859, "annotation": {"number": 64, "value": 0}, "group": "control_change"}, {"time": 2861, "annotation": {"number": 64, "value": 0}, "group": "control_change"}, {"time": 2861, "annotation": {"number": 64, "value": 127}, "group": "control_change"}, {"time": 2863, "annotation": {"number": 64, "value": 127}, "group": "control_change"}, {"time": 2897, "annotation": {"number": 64, "value": 0}, "group": "control_change"}, {"time": 2898, "annotation": {"number": 64, "value": 127}, "group": "control_change"}, {"time": 2899, "annotation": {"number": 64, "value": 127}, "group": "control_change"}, {"time": 2932, "annotation": {"number": 64, "value": 0}, "group": "control_change"}, {"time": 2934, "annotation": {"number": 64, "value": 127}, "group": "control_change"}, {"time": 2968, "annotation": {"number": 64, "value": 0}, "group": "control_change"}, {"time": 2969, "annotation": {"number": 64, "value": 127}, "group": "control_change"}, {"time": 3004, "annotation": {"number": 64, "value": 0}, "group": "control_change"}, {"time": 3006, "annotation": {"number": 64, "value": 127}, "group": "control_change"}, {"time": 3040, "annotation": {"number": 64, "value": 0}, "group": "control_change"}, {"time": 3042, "annotation": {"number": 64, "value": 127}, "group": "control_change"}, {"time": 3076, "annotation": {"number": 64, "value": 0}, "group": "control_change"}, {"time": 3078, "annotation": {"number": 64, "value": 127}, "group": "control_change"}, {"time": 3113, "annotation": {"number": 64, "value": 0}, "group": "control_change"}, {"time": 3114, "annotation": {"number": 64, "value": 127}, "group": "control_change"}, {"time": 3148, "annotation": {"number": 64, "value": 0}, "group": "control_change"}, {"time": 3150, "annotation": {"number": 64, "value": 127}, "group": "control_change"}, {"time": 3184, "annotation": {"number": 64, "value": 0}, "group": "control_change"}, {"time": 3185, "annotation": {"number": 64, "value": 127}, "group": "control_change"}, {"time": 3220, "annotation": {"number": 64, "value": 0}, "group": "control_change"}, {"time": 3222, "annotation": {"number": 64, "value": 127}, "group": "control_change"}, {"time": 3256, "annotation": {"number": 64, "value": 0}, "group": "control_change"}, {"time": 3258, "annotation": {"number": 64, "value": 127}, "group": "control_change"}, {"time": 3294, "annotation": {"number": 64, "value": 127}, "group": "control_change"}, {"time": 3363, "annotation": {"number": 64, "value": 0}, "group": "control_change"}, {"time": 3366, "annotation": {"number": 64, "value": 127}, "group": "control_change"}, {"time": 3400, "annotation": {"number": 64, "value": 0}, "group": "control_change"}, {"time": 3401, "annotation": {"number": 64, "value": 127}, "group": "control_change"}, {"time": 3402, "annotation": {"number": 64, "value": 127}, "group": "control_change"}, {"time": 3435, "annotation": {"number": 64, "value": 0}, "group": "control_change"}, {"time": 3437, "annotation": {"number": 64, "value": 0}, "group": "control_change"}, {"time": 3437, "annotation": {"number": 64, "value": 127}, "group": "control_change"}, {"time": 3439, "annotation": {"number": 64, "value": 127}, "group": "control_change"}, {"time": 3473, "annotation": {"number": 64, "value": 0}, "group": "control_change"}, {"time": 3474, "annotation": {"number": 64, "value": 127}, "group": "control_change"}, {"time": 3475, "annotation": {"number": 64, "value": 127}, "group": "control_change"}, {"time": 3508, "annotation": {"number": 64, "value": 0}, "group": "control_change"}, {"time": 3510, "annotation": {"number": 64, "value": 127}, "group": "control_change"}, {"time": 3544, "annotation": {"number": 64, "value": 0}, "group": "control_change"}, {"time": 3545, "annotation": {"number": 64, "value": 127}, "group": "control_change"}, {"time": 3580, "annotation": {"number": 64, "value": 0}, "group": "control_change"}, {"time": 3582, "annotation": {"number": 64, "value": 127}, "group": "control_change"}, {"time": 3616, "annotation": {"number": 64, "value": 0}, "group": "control_change"}, {"time": 3618, "annotation": {"number": 64, "value": 127}, "group": "control_change"}, {"time": 3652, "annotation": {"number": 64, "value": 0}, "group": "control_change"}, {"time": 3654, "annotation": {"number": 64, "value": 127}, "group": "control_change"}, {"time": 3689, "annotation": {"number": 64, "value": 0}, "group": "control_change"}, {"time": 3690, "annotation": {"number": 64, "value": 127}, "group": "control_change"}, {"time": 3724, "annotation": {"number": 64, "value": 0}, "group": "control_change"}, {"time": 3726, "annotation": {"number": 64, "value": 127}, "group": "control_change"}, {"time": 3760, "annotation": {"number": 64, "value": 0}, "group": "control_change"}, {"time": 3761, "annotation": {"number": 64, "value": 127}, "group": "control_change"}, {"time": 3796, "annotation": {"number": 64, "value": 0}, "group": "control_change"}, {"time": 3798, "annotation": {"number": 64, "value": 127}, "group": "control_change"}, {"time": 3832, "annotation": {"number": 64, "value": 0}, "group": "control_change"}, {"time": 3834, "annotation": {"number": 64, "value": 127}, "group": "control_change"}, {"time": 3870, "annotation": {"number": 64, "value": 127}, "group": "control_change"}, {"time": 3939, "annotation": {"number": 64, "value": 0}, "group": "control_change"}, {"time": 3942, "annotation": {"number": 64, "value": 127}, "group": "control_change"}, {"time": 3987, "annotation": {"number": 64, "value": 0}, "group": "control_change"}, {"time": 3989, "annotation": {"number": 64, "value": 127}, "group": "control_change"}, {"time": 4013, "annotation": {"number": 64, "value": 0}, "group": "control_change"}, {"time": 4014, "annotation": {"number": 64, "value": 127}, "group": "control_change"}, {"time": 4049, "annotation": {"number": 64, "value": 0}, "group": "control_change"}, {"time": 4050, "annotation": {"number": 64, "value": 127}, "group": "control_change"}, {"time": 4084, "annotation": {"number": 64, "value": 0}, "group": "control_change"}, {"time": 4086, "annotation": {"number": 64, "value": 127}, "group": "control_change"}, {"time": 4120, "annotation": {"number": 64, "value": 0}, "group": "control_change"}, {"time": 4122, "annotation": {"number": 64, "value": 127}, "group": "control_change"}, {"time": 4156, "annotation": {"number": 64, "value": 0}, "group": "control_change"}, {"time": 4158, "annotation": {"number": 64, "value": 127}, "group": "control_change"}, {"time": 4192, "annotation": {"number": 64, "value": 0}, "group": "control_change"}, {"time": 4194, "annotation": {"number": 64, "value": 127}, "group": "control_change"}, {"time": 4228, "annotation": {"number": 64, "value": 0}, "group": "control_change"}, {"time": 4229, "annotation": {"number": 64, "value": 127}, "group": "control_change"}, {"time": 4264, "annotation": {"number": 64, "value": 0}, "group": "control_change"}, {"time": 4266, "annotation": {"number": 64, "value": 127}, "group": "control_change"}, {"time": 4300, "annotation": {"number": 64, "value": 0}, "group": "control_change"}, {"time": 4302, "annotation": {"number": 64, "value": 127}, "group": "control_change"}, {"time": 4336, "annotation": {"number": 64, "value": 0}, "group": "control_change"}, {"time": 4338, "annotation": {"number": 64, "value": 127}, "group": "control_change"}, {"time": 4373, "annotation": {"number": 64, "value": 0}, "group": "control_change"}, {"time": 4374, "annotation": {"number": 64, "value": 127}, "group": "control_change"}, {"time": 4409, "annotation": {"number": 64, "value": 0}, "group": "control_change"}, {"time": 4411, "annotation": {"number": 64, "value": 127}, "group": "control_change"}, {"time": 4444, "annotation": {"number": 64, "value": 0}, "group": "control_change"}, {"time": 4448, "annotation": {"number": 64, "value": 127}, "group": "control_change"}, {"time": 4549, "annotation": {"number": 64, "value": 0}, "group": "control_change"}, {"time": 4550, "annotation": {"number": 64, "value": 127}, "group": "control_change"}, {"time": 4558, "annotation": {"number": 64, "value": 0}, "group": "control_change"}]}]}