{"metadata": {"schema_version": "0.2", "title": "None", "source_filename": "174.mid", "source_format": "midi"}, "resolution": 12, "tempos": [{"time": 0, "qpm": 72.99998296667064}], "key_signatures": [{"time": 0, "root": 0, "mode": "major"}], "time_signatures": [{"time": 0, "numerator": 4, "denominator": 4}, {"time": 0, "numerator": 1, "denominator": 4}], "tracks": [{"program": 4, "is_drum": false, "name": "MELODY", "notes": [{"time": 416, "pitch": 61, "duration": 3, "velocity": 122}, {"time": 419, "pitch": 59, "duration": 4, "velocity": 71}, {"time": 422, "pitch": 61, "duration": 3, "velocity": 95}, {"time": 425, "pitch": 61, "duration": 4, "velocity": 96}, {"time": 431, "pitch": 59, "duration": 4, "velocity": 95}, {"time": 434, "pitch": 61, "duration": 2, "velocity": 102}, {"time": 437, "pitch": 61, "duration": 5, "velocity": 107}, {"time": 443, "pitch": 57, "duration": 9, "velocity": 100}, {"time": 452, "pitch": 64, "duration": 2, "velocity": 112}, {"time": 455, "pitch": 64, "duration": 3, "velocity": 95}, {"time": 458, "pitch": 61, "duration": 28, "velocity": 90}, {"time": 512, "pitch": 61, "duration": 3, "velocity": 117}, {"time": 515, "pitch": 59, "duration": 3, "velocity": 67}, {"time": 518, "pitch": 61, "duration": 4, "velocity": 112}, {"time": 524, "pitch": 59, "duration": 2, "velocity": 96}, {"time": 527, "pitch": 61, "duration": 5, "velocity": 107}, {"time": 533, "pitch": 61, "duration": 6, "velocity": 112}, {"time": 542, "pitch": 61, "duration": 5, "velocity": 127}, {"time": 548, "pitch": 59, "duration": 3, "velocity": 107}, {"time": 551, "pitch": 61, "duration": 6, "velocity": 102}, {"time": 560, "pitch": 52, "duration": 30, "velocity": 97}, {"time": 608, "pitch": 66, "duration": 3, "velocity": 117}, {"time": 611, "pitch": 64, "duration": 3, "velocity": 68}, {"time": 614, "pitch": 66, "duration": 4, "velocity": 122}, {"time": 620, "pitch": 64, "duration": 2, "velocity": 100}, {"time": 623, "pitch": 66, "duration": 5, "velocity": 122}, {"time": 629, "pitch": 69, "duration": 4, "velocity": 112}, {"time": 635, "pitch": 69, "duration": 3, "velocity": 117}, {"time": 638, "pitch": 69, "duration": 2, "velocity": 127}, {"time": 641, "pitch": 69, "duration": 4, "velocity": 117}, {"time": 647, "pitch": 61, "duration": 2, "velocity": 92}, {"time": 650, "pitch": 61, "duration": 6, "velocity": 73}, {"time": 656, "pitch": 64, "duration": 9, "velocity": 102}, {"time": 704, "pitch": 59, "duration": 2, "velocity": 93}, {"time": 707, "pitch": 59, "duration": 2, "velocity": 72}, {"time": 710, "pitch": 59, "duration": 4, "velocity": 97}, {"time": 713, "pitch": 61, "duration": 4, "velocity": 112}, {"time": 716, "pitch": 64, "duration": 5, "velocity": 99}, {"time": 722, "pitch": 64, "duration": 8, "velocity": 122}, {"time": 740, "pitch": 59, "duration": 4, "velocity": 99}, {"time": 743, "pitch": 61, "duration": 4, "velocity": 86}, {"time": 746, "pitch": 57, "duration": 36, "velocity": 92}, {"time": 800, "pitch": 61, "duration": 3, "velocity": 122}, {"time": 803, "pitch": 59, "duration": 4, "velocity": 71}, {"time": 806, "pitch": 61, "duration": 9, "velocity": 95}, {"time": 815, "pitch": 59, "duration": 4, "velocity": 95}, {"time": 818, "pitch": 61, "duration": 2, "velocity": 102}, {"time": 824, "pitch": 61, "duration": 2, "velocity": 127}, {"time": 827, "pitch": 61, "duration": 2, "velocity": 99}, {"time": 830, "pitch": 61, "duration": 4, "velocity": 127}, {"time": 836, "pitch": 59, "duration": 3, "velocity": 127}, {"time": 839, "pitch": 57, "duration": 4, "velocity": 97}, {"time": 842, "pitch": 64, "duration": 7, "velocity": 117}, {"time": 848, "pitch": 61, "duration": 29, "velocity": 117}, {"time": 896, "pitch": 61, "duration": 3, "velocity": 117}, {"time": 899, "pitch": 59, "duration": 3, "velocity": 67}, {"time": 902, "pitch": 61, "duration": 4, "velocity": 112}, {"time": 908, "pitch": 59, "duration": 2, "velocity": 96}, {"time": 911, "pitch": 61, "duration": 5, "velocity": 107}, {"time": 917, "pitch": 61, "duration": 6, "velocity": 112}, {"time": 926, "pitch": 61, "duration": 5, "velocity": 127}, {"time": 932, "pitch": 59, "duration": 3, "velocity": 107}, {"time": 935, "pitch": 61, "duration": 6, "velocity": 102}, {"time": 944, "pitch": 52, "duration": 30, "velocity": 97}, {"time": 992, "pitch": 66, "duration": 3, "velocity": 117}, {"time": 995, "pitch": 64, "duration": 3, "velocity": 68}, {"time": 998, "pitch": 66, "duration": 4, "velocity": 122}, {"time": 1004, "pitch": 69, "duration": 2, "velocity": 127}, {"time": 1007, "pitch": 69, "duration": 4, "velocity": 122}, {"time": 1016, "pitch": 69, "duration": 4, "velocity": 117}, {"time": 1022, "pitch": 69, "duration": 4, "velocity": 127}, {"time": 1028, "pitch": 61, "duration": 2, "velocity": 92}, {"time": 1031, "pitch": 61, "duration": 10, "velocity": 73}, {"time": 1040, "pitch": 64, "duration": 22, "velocity": 102}, {"time": 1088, "pitch": 59, "duration": 2, "velocity": 93}, {"time": 1091, "pitch": 59, "duration": 2, "velocity": 72}, {"time": 1094, "pitch": 59, "duration": 4, "velocity": 97}, {"time": 1097, "pitch": 61, "duration": 4, "velocity": 112}, {"time": 1103, "pitch": 61, "duration": 4, "velocity": 112}, {"time": 1109, "pitch": 64, "duration": 3, "velocity": 112}, {"time": 1112, "pitch": 64, "duration": 6, "velocity": 99}, {"time": 1121, "pitch": 61, "duration": 8, "velocity": 117}, {"time": 1130, "pitch": 57, "duration": 32, "velocity": 90}, {"time": 1184, "pitch": 69, "duration": 3, "velocity": 117}, {"time": 1187, "pitch": 66, "duration": 3, "velocity": 97}, {"time": 1190, "pitch": 69, "duration": 3, "velocity": 112}, {"time": 1193, "pitch": 69, "duration": 3, "velocity": 112}, {"time": 1199, "pitch": 69, "duration": 2, "velocity": 112}, {"time": 1202, "pitch": 69, "duration": 4, "velocity": 127}, {"time": 1208, "pitch": 69, "duration": 2, "velocity": 127}, {"time": 1211, "pitch": 69, "duration": 5, "velocity": 122}, {"time": 1220, "pitch": 66, "duration": 6, "velocity": 127}, {"time": 1226, "pitch": 64, "duration": 26, "velocity": 117}, {"time": 1280, "pitch": 69, "duration": 3, "velocity": 112}, {"time": 1283, "pitch": 66, "duration": 3, "velocity": 96}, {"time": 1286, "pitch": 69, "duration": 2, "velocity": 102}, {"time": 1289, "pitch": 69, "duration": 4, "velocity": 122}, {"time": 1295, "pitch": 69, "duration": 4, "velocity": 127}, {"time": 1301, "pitch": 69, "duration": 7, "velocity": 127}, {"time": 1310, "pitch": 69, "duration": 2, "velocity": 112}, {"time": 1313, "pitch": 69, "duration": 4, "velocity": 100}, {"time": 1319, "pitch": 61, "duration": 2, "velocity": 96}, {"time": 1322, "pitch": 61, "duration": 6, "velocity": 112}, {"time": 1328, "pitch": 64, "duration": 23, "velocity": 99}, {"time": 1376, "pitch": 69, "duration": 3, "velocity": 112}, {"time": 1379, "pitch": 66, "duration": 3, "velocity": 92}, {"time": 1382, "pitch": 69, "duration": 3, "velocity": 102}, {"time": 1385, "pitch": 69, "duration": 3, "velocity": 112}, {"time": 1391, "pitch": 69, "duration": 2, "velocity": 100}, {"time": 1394, "pitch": 69, "duration": 3, "velocity": 122}, {"time": 1397, "pitch": 73, "duration": 4, "velocity": 127}, {"time": 1403, "pitch": 73, "duration": 8, "velocity": 127}, {"time": 1412, "pitch": 66, "duration": 6, "velocity": 122}, {"time": 1418, "pitch": 64, "duration": 30, "velocity": 117}, {"time": 1472, "pitch": 59, "duration": 2, "velocity": 107}, {"time": 1475, "pitch": 59, "duration": 2, "velocity": 96}, {"time": 1478, "pitch": 59, "duration": 4, "velocity": 100}, {"time": 1481, "pitch": 61, "duration": 4, "velocity": 117}, {"time": 1487, "pitch": 61, "duration": 3, "velocity": 112}, {"time": 1490, "pitch": 64, "duration": 3, "velocity": 107}, {"time": 1493, "pitch": 64, "duration": 4, "velocity": 112}, {"time": 1502, "pitch": 61, "duration": 5, "velocity": 127}, {"time": 1508, "pitch": 59, "duration": 3, "velocity": 102}, {"time": 1511, "pitch": 61, "duration": 7, "velocity": 107}, {"time": 1517, "pitch": 57, "duration": 39, "velocity": 97}, {"time": 1568, "pitch": 61, "duration": 3, "velocity": 122}, {"time": 1571, "pitch": 59, "duration": 4, "velocity": 71}, {"time": 1574, "pitch": 61, "duration": 3, "velocity": 95}, {"time": 1577, "pitch": 61, "duration": 4, "velocity": 96}, {"time": 1583, "pitch": 61, "duration": 2, "velocity": 122}, {"time": 1586, "pitch": 61, "duration": 4, "velocity": 117}, {"time": 1598, "pitch": 61, "duration": 6, "velocity": 122}, {"time": 1604, "pitch": 57, "duration": 2, "velocity": 93}, {"time": 1607, "pitch": 64, "duration": 4, "velocity": 122}, {"time": 1616, "pitch": 61, "duration": 27, "velocity": 117}, {"time": 1664, "pitch": 61, "duration": 3, "velocity": 117}, {"time": 1667, "pitch": 59, "duration": 3, "velocity": 67}, {"time": 1670, "pitch": 61, "duration": 4, "velocity": 112}, {"time": 1676, "pitch": 59, "duration": 2, "velocity": 96}, {"time": 1679, "pitch": 61, "duration": 5, "velocity": 107}, {"time": 1685, "pitch": 61, "duration": 6, "velocity": 112}, {"time": 1691, "pitch": 52, "duration": 3, "velocity": 97}, {"time": 1694, "pitch": 61, "duration": 5, "velocity": 127}, {"time": 1700, "pitch": 59, "duration": 3, "velocity": 107}, {"time": 1703, "pitch": 61, "duration": 6, "velocity": 102}, {"time": 1712, "pitch": 52, "duration": 30, "velocity": 97}, {"time": 1760, "pitch": 66, "duration": 3, "velocity": 117}, {"time": 1763, "pitch": 64, "duration": 3, "velocity": 68}, {"time": 1766, "pitch": 66, "duration": 4, "velocity": 122}, {"time": 1772, "pitch": 69, "duration": 2, "velocity": 112}, {"time": 1775, "pitch": 69, "duration": 5, "velocity": 107}, {"time": 1784, "pitch": 69, "duration": 2, "velocity": 112}, {"time": 1787, "pitch": 69, "duration": 2, "velocity": 97}, {"time": 1790, "pitch": 69, "duration": 3, "velocity": 122}, {"time": 1793, "pitch": 69, "duration": 2, "velocity": 127}, {"time": 1799, "pitch": 61, "duration": 2, "velocity": 92}, {"time": 1802, "pitch": 61, "duration": 6, "velocity": 73}, {"time": 1808, "pitch": 64, "duration": 36, "velocity": 102}, {"time": 1856, "pitch": 59, "duration": 2, "velocity": 93}, {"time": 1859, "pitch": 59, "duration": 2, "velocity": 72}, {"time": 1862, "pitch": 59, "duration": 4, "velocity": 97}, {"time": 1868, "pitch": 61, "duration": 4, "velocity": 112}, {"time": 1871, "pitch": 64, "duration": 5, "velocity": 112}, {"time": 1880, "pitch": 64, "duration": 3, "velocity": 127}, {"time": 1886, "pitch": 61, "duration": 6, "velocity": 122}, {"time": 1892, "pitch": 59, "duration": 4, "velocity": 99}, {"time": 1895, "pitch": 61, "duration": 4, "velocity": 86}, {"time": 1904, "pitch": 57, "duration": 37, "velocity": 95}, {"time": 2336, "pitch": 69, "duration": 3, "velocity": 117}, {"time": 2339, "pitch": 66, "duration": 3, "velocity": 97}, {"time": 2342, "pitch": 69, "duration": 3, "velocity": 112}, {"time": 2345, "pitch": 69, "duration": 3, "velocity": 112}, {"time": 2351, "pitch": 69, "duration": 2, "velocity": 112}, {"time": 2354, "pitch": 69, "duration": 4, "velocity": 127}, {"time": 2360, "pitch": 69, "duration": 2, "velocity": 127}, {"time": 2363, "pitch": 69, "duration": 5, "velocity": 122}, {"time": 2372, "pitch": 66, "duration": 6, "velocity": 127}, {"time": 2378, "pitch": 64, "duration": 26, "velocity": 117}, {"time": 2432, "pitch": 69, "duration": 3, "velocity": 112}, {"time": 2435, "pitch": 66, "duration": 3, "velocity": 96}, {"time": 2438, "pitch": 69, "duration": 2, "velocity": 102}, {"time": 2441, "pitch": 69, "duration": 4, "velocity": 122}, {"time": 2447, "pitch": 69, "duration": 4, "velocity": 127}, {"time": 2453, "pitch": 69, "duration": 7, "velocity": 127}, {"time": 2462, "pitch": 69, "duration": 2, "velocity": 112}, {"time": 2465, "pitch": 69, "duration": 4, "velocity": 100}, {"time": 2471, "pitch": 61, "duration": 2, "velocity": 96}, {"time": 2474, "pitch": 61, "duration": 6, "velocity": 112}, {"time": 2480, "pitch": 64, "duration": 23, "velocity": 99}, {"time": 2528, "pitch": 69, "duration": 3, "velocity": 112}, {"time": 2531, "pitch": 66, "duration": 3, "velocity": 92}, {"time": 2534, "pitch": 69, "duration": 3, "velocity": 102}, {"time": 2537, "pitch": 69, "duration": 3, "velocity": 112}, {"time": 2543, "pitch": 69, "duration": 2, "velocity": 100}, {"time": 2546, "pitch": 69, "duration": 3, "velocity": 122}, {"time": 2549, "pitch": 73, "duration": 4, "velocity": 127}, {"time": 2555, "pitch": 73, "duration": 8, "velocity": 127}, {"time": 2564, "pitch": 66, "duration": 6, "velocity": 122}, {"time": 2570, "pitch": 64, "duration": 30, "velocity": 117}, {"time": 2624, "pitch": 59, "duration": 2, "velocity": 107}, {"time": 2627, "pitch": 59, "duration": 2, "velocity": 96}, {"time": 2630, "pitch": 59, "duration": 4, "velocity": 100}, {"time": 2633, "pitch": 61, "duration": 4, "velocity": 117}, {"time": 2639, "pitch": 61, "duration": 3, "velocity": 112}, {"time": 2642, "pitch": 64, "duration": 3, "velocity": 107}, {"time": 2645, "pitch": 64, "duration": 4, "velocity": 112}, {"time": 2654, "pitch": 61, "duration": 5, "velocity": 127}, {"time": 2660, "pitch": 59, "duration": 3, "velocity": 102}, {"time": 2663, "pitch": 61, "duration": 7, "velocity": 107}, {"time": 2669, "pitch": 57, "duration": 39, "velocity": 97}, {"time": 2720, "pitch": 61, "duration": 3, "velocity": 122}, {"time": 2723, "pitch": 59, "duration": 4, "velocity": 71}, {"time": 2726, "pitch": 61, "duration": 3, "velocity": 95}, {"time": 2729, "pitch": 61, "duration": 4, "velocity": 96}, {"time": 2735, "pitch": 61, "duration": 2, "velocity": 122}, {"time": 2738, "pitch": 61, "duration": 4, "velocity": 117}, {"time": 2750, "pitch": 61, "duration": 6, "velocity": 122}, {"time": 2756, "pitch": 57, "duration": 2, "velocity": 93}, {"time": 2759, "pitch": 64, "duration": 4, "velocity": 122}, {"time": 2768, "pitch": 61, "duration": 27, "velocity": 117}, {"time": 2816, "pitch": 61, "duration": 3, "velocity": 117}, {"time": 2819, "pitch": 59, "duration": 3, "velocity": 67}, {"time": 2822, "pitch": 61, "duration": 4, "velocity": 112}, {"time": 2828, "pitch": 59, "duration": 2, "velocity": 96}, {"time": 2831, "pitch": 61, "duration": 5, "velocity": 107}, {"time": 2837, "pitch": 61, "duration": 6, "velocity": 112}, {"time": 2843, "pitch": 52, "duration": 3, "velocity": 97}, {"time": 2846, "pitch": 61, "duration": 5, "velocity": 127}, {"time": 2852, "pitch": 59, "duration": 3, "velocity": 107}, {"time": 2855, "pitch": 61, "duration": 6, "velocity": 102}, {"time": 2864, "pitch": 52, "duration": 30, "velocity": 97}, {"time": 2912, "pitch": 66, "duration": 3, "velocity": 117}, {"time": 2915, "pitch": 64, "duration": 3, "velocity": 68}, {"time": 2918, "pitch": 66, "duration": 4, "velocity": 122}, {"time": 2924, "pitch": 69, "duration": 2, "velocity": 112}, {"time": 2927, "pitch": 69, "duration": 5, "velocity": 107}, {"time": 2936, "pitch": 69, "duration": 2, "velocity": 112}, {"time": 2939, "pitch": 69, "duration": 2, "velocity": 97}, {"time": 2942, "pitch": 69, "duration": 3, "velocity": 122}, {"time": 2945, "pitch": 69, "duration": 2, "velocity": 127}, {"time": 2951, "pitch": 61, "duration": 2, "velocity": 92}, {"time": 2954, "pitch": 61, "duration": 6, "velocity": 73}, {"time": 2960, "pitch": 64, "duration": 36, "velocity": 102}, {"time": 3008, "pitch": 59, "duration": 2, "velocity": 93}, {"time": 3011, "pitch": 59, "duration": 2, "velocity": 72}, {"time": 3014, "pitch": 59, "duration": 4, "velocity": 97}, {"time": 3020, "pitch": 61, "duration": 4, "velocity": 112}, {"time": 3023, "pitch": 64, "duration": 5, "velocity": 112}, {"time": 3032, "pitch": 64, "duration": 3, "velocity": 127}, {"time": 3038, "pitch": 61, "duration": 6, "velocity": 122}, {"time": 3044, "pitch": 59, "duration": 4, "velocity": 99}, {"time": 3047, "pitch": 61, "duration": 4, "velocity": 86}, {"time": 3056, "pitch": 57, "duration": 18, "velocity": 95}]}, {"program": 0, "is_drum": false, "name": "PIANO", "notes": [{"time": 26, "pitch": 33, "duration": 48, "velocity": 83}, {"time": 26, "pitch": 45, "duration": 8, "velocity": 83}, {"time": 26, "pitch": 49, "duration": 7, "velocity": 96}, {"time": 32, "pitch": 52, "duration": 7, "velocity": 89}, {"time": 38, "pitch": 45, "duration": 34, "velocity": 23}, {"time": 38, "pitch": 49, "duration": 7, "velocity": 83}, {"time": 44, "pitch": 52, "duration": 8, "velocity": 75}, {"time": 50, "pitch": 49, "duration": 7, "velocity": 68}, {"time": 56, "pitch": 52, "duration": 8, "velocity": 76}, {"time": 62, "pitch": 49, "duration": 7, "velocity": 83}, {"time": 68, "pitch": 52, "duration": 4, "velocity": 82}, {"time": 74, "pitch": 37, "duration": 48, "velocity": 64}, {"time": 74, "pitch": 52, "duration": 7, "velocity": 95}, {"time": 74, "pitch": 56, "duration": 7, "velocity": 102}, {"time": 80, "pitch": 49, "duration": 7, "velocity": 79}, {"time": 86, "pitch": 52, "duration": 6, "velocity": 61}, {"time": 86, "pitch": 56, "duration": 7, "velocity": 76}, {"time": 92, "pitch": 49, "duration": 7, "velocity": 89}, {"time": 98, "pitch": 52, "duration": 8, "velocity": 68}, {"time": 98, "pitch": 56, "duration": 8, "velocity": 78}, {"time": 104, "pitch": 49, "duration": 7, "velocity": 68}, {"time": 110, "pitch": 52, "duration": 7, "velocity": 56}, {"time": 110, "pitch": 56, "duration": 8, "velocity": 88}, {"time": 116, "pitch": 49, "duration": 5, "velocity": 62}, {"time": 122, "pitch": 33, "duration": 49, "velocity": 67}, {"time": 122, "pitch": 49, "duration": 7, "velocity": 99}, {"time": 122, "pitch": 52, "duration": 8, "velocity": 97}, {"time": 128, "pitch": 45, "duration": 26, "velocity": 76}, {"time": 134, "pitch": 49, "duration": 7, "velocity": 72}, {"time": 140, "pitch": 52, "duration": 8, "velocity": 90}, {"time": 146, "pitch": 49, "duration": 8, "velocity": 86}, {"time": 152, "pitch": 52, "duration": 7, "velocity": 76}, {"time": 158, "pitch": 49, "duration": 8, "velocity": 78}, {"time": 164, "pitch": 52, "duration": 3, "velocity": 72}, {"time": 170, "pitch": 37, "duration": 48, "velocity": 89}, {"time": 170, "pitch": 52, "duration": 7, "velocity": 66}, {"time": 170, "pitch": 56, "duration": 7, "velocity": 97}, {"time": 176, "pitch": 49, "duration": 8, "velocity": 64}, {"time": 182, "pitch": 52, "duration": 7, "velocity": 66}, {"time": 182, "pitch": 56, "duration": 8, "velocity": 67}, {"time": 188, "pitch": 49, "duration": 8, "velocity": 63}, {"time": 194, "pitch": 52, "duration": 7, "velocity": 66}, {"time": 194, "pitch": 56, "duration": 7, "velocity": 72}, {"time": 200, "pitch": 49, "duration": 8, "velocity": 59}, {"time": 206, "pitch": 52, "duration": 6, "velocity": 61}, {"time": 206, "pitch": 56, "duration": 7, "velocity": 81}, {"time": 212, "pitch": 49, "duration": 4, "velocity": 63}, {"time": 218, "pitch": 38, "duration": 48, "velocity": 72}, {"time": 218, "pitch": 50, "duration": 8, "velocity": 77}, {"time": 218, "pitch": 54, "duration": 8, "velocity": 96}, {"time": 227, "pitch": 50, "duration": 11, "velocity": 33}, {"time": 230, "pitch": 54, "duration": 7, "velocity": 88}, {"time": 236, "pitch": 45, "duration": 8, "velocity": 72}, {"time": 242, "pitch": 50, "duration": 8, "velocity": 69}, {"time": 242, "pitch": 54, "duration": 7, "velocity": 63}, {"time": 248, "pitch": 45, "duration": 8, "velocity": 59}, {"time": 254, "pitch": 50, "duration": 7, "velocity": 67}, {"time": 254, "pitch": 54, "duration": 7, "velocity": 62}, {"time": 260, "pitch": 45, "duration": 7, "velocity": 78}, {"time": 266, "pitch": 33, "duration": 46, "velocity": 66}, {"time": 266, "pitch": 49, "duration": 5, "velocity": 79}, {"time": 266, "pitch": 52, "duration": 7, "velocity": 85}, {"time": 272, "pitch": 49, "duration": 9, "velocity": 63}, {"time": 278, "pitch": 52, "duration": 8, "velocity": 81}, {"time": 284, "pitch": 49, "duration": 14, "velocity": 73}, {"time": 290, "pitch": 52, "duration": 8, "velocity": 78}, {"time": 296, "pitch": 45, "duration": 8, "velocity": 77}, {"time": 302, "pitch": 49, "duration": 7, "velocity": 92}, {"time": 302, "pitch": 52, "duration": 7, "velocity": 82}, {"time": 308, "pitch": 45, "duration": 7, "velocity": 85}, {"time": 314, "pitch": 38, "duration": 42, "velocity": 64}, {"time": 314, "pitch": 50, "duration": 8, "velocity": 73}, {"time": 314, "pitch": 54, "duration": 8, "velocity": 86}, {"time": 320, "pitch": 45, "duration": 8, "velocity": 58}, {"time": 326, "pitch": 50, "duration": 8, "velocity": 66}, {"time": 326, "pitch": 54, "duration": 7, "velocity": 64}, {"time": 332, "pitch": 45, "duration": 8, "velocity": 51}, {"time": 338, "pitch": 50, "duration": 10, "velocity": 50}, {"time": 338, "pitch": 54, "duration": 10, "velocity": 61}, {"time": 344, "pitch": 45, "duration": 8, "velocity": 61}, {"time": 350, "pitch": 50, "duration": 11, "velocity": 72}, {"time": 350, "pitch": 54, "duration": 6, "velocity": 69}, {"time": 356, "pitch": 45, "duration": 4, "velocity": 66}, {"time": 362, "pitch": 40, "duration": 50, "velocity": 75}, {"time": 362, "pitch": 47, "duration": 49, "velocity": 112}, {"time": 362, "pitch": 52, "duration": 50, "velocity": 74}, {"time": 362, "pitch": 56, "duration": 50, "velocity": 79}, {"time": 410, "pitch": 33, "duration": 36, "velocity": 66}, {"time": 410, "pitch": 45, "duration": 37, "velocity": 92}, {"time": 410, "pitch": 57, "duration": 7, "velocity": 90}, {"time": 410, "pitch": 61, "duration": 7, "velocity": 100}, {"time": 416, "pitch": 52, "duration": 7, "velocity": 74}, {"time": 422, "pitch": 57, "duration": 7, "velocity": 71}, {"time": 422, "pitch": 61, "duration": 8, "velocity": 75}, {"time": 428, "pitch": 52, "duration": 7, "velocity": 71}, {"time": 434, "pitch": 57, "duration": 8, "velocity": 67}, {"time": 434, "pitch": 61, "duration": 8, "velocity": 66}, {"time": 440, "pitch": 52, "duration": 7, "velocity": 63}, {"time": 446, "pitch": 57, "duration": 7, "velocity": 74}, {"time": 446, "pitch": 61, "duration": 7, "velocity": 85}, {"time": 452, "pitch": 52, "duration": 7, "velocity": 75}, {"time": 458, "pitch": 37, "duration": 33, "velocity": 78}, {"time": 458, "pitch": 49, "duration": 32, "velocity": 69}, {"time": 458, "pitch": 56, "duration": 8, "velocity": 89}, {"time": 458, "pitch": 61, "duration": 7, "velocity": 99}, {"time": 464, "pitch": 52, "duration": 7, "velocity": 78}, {"time": 470, "pitch": 56, "duration": 7, "velocity": 60}, {"time": 470, "pitch": 61, "duration": 8, "velocity": 89}, {"time": 476, "pitch": 52, "duration": 7, "velocity": 59}, {"time": 482, "pitch": 56, "duration": 7, "velocity": 61}, {"time": 482, "pitch": 61, "duration": 8, "velocity": 75}, {"time": 488, "pitch": 52, "duration": 6, "velocity": 72}, {"time": 494, "pitch": 56, "duration": 7, "velocity": 88}, {"time": 494, "pitch": 61, "duration": 8, "velocity": 99}, {"time": 500, "pitch": 52, "duration": 6, "velocity": 90}, {"time": 506, "pitch": 33, "duration": 33, "velocity": 63}, {"time": 506, "pitch": 45, "duration": 34, "velocity": 66}, {"time": 506, "pitch": 57, "duration": 7, "velocity": 85}, {"time": 506, "pitch": 61, "duration": 7, "velocity": 95}, {"time": 512, "pitch": 52, "duration": 8, "velocity": 62}, {"time": 518, "pitch": 57, "duration": 7, "velocity": 72}, {"time": 518, "pitch": 61, "duration": 7, "velocity": 77}, {"time": 524, "pitch": 52, "duration": 8, "velocity": 64}, {"time": 530, "pitch": 57, "duration": 8, "velocity": 68}, {"time": 530, "pitch": 61, "duration": 8, "velocity": 81}, {"time": 536, "pitch": 52, "duration": 7, "velocity": 63}, {"time": 542, "pitch": 57, "duration": 6, "velocity": 82}, {"time": 542, "pitch": 61, "duration": 6, "velocity": 96}, {"time": 548, "pitch": 52, "duration": 7, "velocity": 74}, {"time": 554, "pitch": 37, "duration": 37, "velocity": 89}, {"time": 554, "pitch": 49, "duration": 38, "velocity": 88}, {"time": 554, "pitch": 56, "duration": 7, "velocity": 95}, {"time": 554, "pitch": 61, "duration": 7, "velocity": 96}, {"time": 560, "pitch": 52, "duration": 7, "velocity": 67}, {"time": 566, "pitch": 56, "duration": 7, "velocity": 69}, {"time": 566, "pitch": 61, "duration": 7, "velocity": 85}, {"time": 572, "pitch": 52, "duration": 7, "velocity": 53}, {"time": 578, "pitch": 56, "duration": 7, "velocity": 69}, {"time": 578, "pitch": 61, "duration": 8, "velocity": 85}, {"time": 584, "pitch": 52, "duration": 7, "velocity": 61}, {"time": 590, "pitch": 56, "duration": 7, "velocity": 92}, {"time": 590, "pitch": 61, "duration": 6, "velocity": 99}, {"time": 596, "pitch": 52, "duration": 6, "velocity": 89}, {"time": 602, "pitch": 38, "duration": 31, "velocity": 70}, {"time": 602, "pitch": 54, "duration": 7, "velocity": 99}, {"time": 602, "pitch": 57, "duration": 7, "velocity": 95}, {"time": 608, "pitch": 50, "duration": 7, "velocity": 73}, {"time": 614, "pitch": 54, "duration": 7, "velocity": 75}, {"time": 614, "pitch": 57, "duration": 6, "velocity": 82}, {"time": 620, "pitch": 50, "duration": 7, "velocity": 54}, {"time": 626, "pitch": 54, "duration": 7, "velocity": 70}, {"time": 626, "pitch": 57, "duration": 6, "velocity": 74}, {"time": 632, "pitch": 50, "duration": 7, "velocity": 58}, {"time": 638, "pitch": 54, "duration": 7, "velocity": 89}, {"time": 638, "pitch": 57, "duration": 6, "velocity": 92}, {"time": 644, "pitch": 50, "duration": 6, "velocity": 82}, {"time": 650, "pitch": 33, "duration": 38, "velocity": 63}, {"time": 650, "pitch": 45, "duration": 39, "velocity": 78}, {"time": 650, "pitch": 57, "duration": 8, "velocity": 96}, {"time": 650, "pitch": 61, "duration": 8, "velocity": 100}, {"time": 656, "pitch": 52, "duration": 8, "velocity": 75}, {"time": 662, "pitch": 57, "duration": 7, "velocity": 82}, {"time": 662, "pitch": 61, "duration": 8, "velocity": 92}, {"time": 668, "pitch": 52, "duration": 7, "velocity": 56}, {"time": 674, "pitch": 57, "duration": 7, "velocity": 79}, {"time": 674, "pitch": 61, "duration": 8, "velocity": 92}, {"time": 680, "pitch": 52, "duration": 8, "velocity": 58}, {"time": 686, "pitch": 57, "duration": 6, "velocity": 76}, {"time": 686, "pitch": 61, "duration": 6, "velocity": 95}, {"time": 692, "pitch": 52, "duration": 7, "velocity": 79}, {"time": 698, "pitch": 40, "duration": 41, "velocity": 75}, {"time": 698, "pitch": 56, "duration": 7, "velocity": 93}, {"time": 698, "pitch": 59, "duration": 8, "velocity": 88}, {"time": 704, "pitch": 52, "duration": 7, "velocity": 69}, {"time": 710, "pitch": 56, "duration": 7, "velocity": 79}, {"time": 710, "pitch": 59, "duration": 8, "velocity": 79}, {"time": 716, "pitch": 52, "duration": 7, "velocity": 55}, {"time": 722, "pitch": 56, "duration": 8, "velocity": 77}, {"time": 722, "pitch": 59, "duration": 9, "velocity": 79}, {"time": 728, "pitch": 52, "duration": 8, "velocity": 56}, {"time": 734, "pitch": 56, "duration": 8, "velocity": 90}, {"time": 734, "pitch": 59, "duration": 7, "velocity": 90}, {"time": 740, "pitch": 52, "duration": 6, "velocity": 73}, {"time": 746, "pitch": 33, "duration": 46, "velocity": 69}, {"time": 746, "pitch": 57, "duration": 7, "velocity": 86}, {"time": 746, "pitch": 61, "duration": 7, "velocity": 97}, {"time": 752, "pitch": 52, "duration": 8, "velocity": 75}, {"time": 758, "pitch": 45, "duration": 34, "velocity": 49}, {"time": 758, "pitch": 57, "duration": 7, "velocity": 72}, {"time": 758, "pitch": 61, "duration": 7, "velocity": 81}, {"time": 764, "pitch": 52, "duration": 8, "velocity": 56}, {"time": 770, "pitch": 57, "duration": 10, "velocity": 68}, {"time": 770, "pitch": 61, "duration": 10, "velocity": 77}, {"time": 776, "pitch": 52, "duration": 8, "velocity": 59}, {"time": 782, "pitch": 57, "duration": 8, "velocity": 97}, {"time": 782, "pitch": 61, "duration": 8, "velocity": 102}, {"time": 788, "pitch": 52, "duration": 6, "velocity": 77}, {"time": 794, "pitch": 33, "duration": 37, "velocity": 77}, {"time": 794, "pitch": 45, "duration": 16, "velocity": 92}, {"time": 794, "pitch": 57, "duration": 8, "velocity": 96}, {"time": 794, "pitch": 61, "duration": 10, "velocity": 117}, {"time": 800, "pitch": 52, "duration": 8, "velocity": 77}, {"time": 806, "pitch": 57, "duration": 9, "velocity": 99}, {"time": 806, "pitch": 61, "duration": 10, "velocity": 112}, {"time": 812, "pitch": 52, "duration": 8, "velocity": 58}, {"time": 818, "pitch": 57, "duration": 9, "velocity": 95}, {"time": 818, "pitch": 61, "duration": 10, "velocity": 112}, {"time": 824, "pitch": 45, "duration": 9, "velocity": 83}, {"time": 830, "pitch": 57, "duration": 9, "velocity": 95}, {"time": 830, "pitch": 61, "duration": 12, "velocity": 112}, {"time": 836, "pitch": 52, "duration": 10, "velocity": 35}, {"time": 842, "pitch": 37, "duration": 41, "velocity": 97}, {"time": 848, "pitch": 49, "duration": 9, "velocity": 92}, {"time": 854, "pitch": 52, "duration": 26, "velocity": 66}, {"time": 854, "pitch": 56, "duration": 22, "velocity": 117}, {"time": 860, "pitch": 49, "duration": 10, "velocity": 93}, {"time": 866, "pitch": 61, "duration": 18, "velocity": 99}, {"time": 872, "pitch": 49, "duration": 8, "velocity": 81}, {"time": 878, "pitch": 56, "duration": 8, "velocity": 122}, {"time": 884, "pitch": 52, "duration": 20, "velocity": 76}, {"time": 890, "pitch": 33, "duration": 36, "velocity": 73}, {"time": 896, "pitch": 45, "duration": 21, "velocity": 99}, {"time": 902, "pitch": 57, "duration": 8, "velocity": 90}, {"time": 908, "pitch": 40, "duration": 18, "velocity": 47}, {"time": 908, "pitch": 52, "duration": 8, "velocity": 6}, {"time": 914, "pitch": 61, "duration": 18, "velocity": 95}, {"time": 920, "pitch": 45, "duration": 8, "velocity": 65}, {"time": 926, "pitch": 57, "duration": 6, "velocity": 86}, {"time": 932, "pitch": 52, "duration": 7, "velocity": 60}, {"time": 938, "pitch": 37, "duration": 42, "velocity": 90}, {"time": 938, "pitch": 56, "duration": 23, "velocity": 89}, {"time": 938, "pitch": 61, "duration": 19, "velocity": 96}, {"time": 944, "pitch": 49, "duration": 9, "velocity": 102}, {"time": 950, "pitch": 52, "duration": 14, "velocity": 74}, {"time": 956, "pitch": 49, "duration": 7, "velocity": 63}, {"time": 962, "pitch": 56, "duration": 11, "velocity": 82}, {"time": 974, "pitch": 61, "duration": 7, "velocity": 122}, {"time": 977, "pitch": 56, "duration": 5, "velocity": 95}, {"time": 980, "pitch": 52, "duration": 7, "velocity": 79}, {"time": 986, "pitch": 38, "duration": 36, "velocity": 74}, {"time": 986, "pitch": 54, "duration": 11, "velocity": 95}, {"time": 986, "pitch": 57, "duration": 11, "velocity": 92}, {"time": 992, "pitch": 45, "duration": 9, "velocity": 52}, {"time": 998, "pitch": 50, "duration": 25, "velocity": 72}, {"time": 998, "pitch": 54, "duration": 10, "velocity": 66}, {"time": 998, "pitch": 57, "duration": 22, "velocity": 66}, {"time": 1004, "pitch": 45, "duration": 9, "velocity": 38}, {"time": 1010, "pitch": 54, "duration": 10, "velocity": 55}, {"time": 1016, "pitch": 45, "duration": 5, "velocity": 40}, {"time": 1022, "pitch": 54, "duration": 7, "velocity": 107}, {"time": 1022, "pitch": 57, "duration": 6, "velocity": 95}, {"time": 1028, "pitch": 52, "duration": 44, "velocity": 63}, {"time": 1034, "pitch": 33, "duration": 37, "velocity": 81}, {"time": 1034, "pitch": 57, "duration": 10, "velocity": 93}, {"time": 1034, "pitch": 61, "duration": 22, "velocity": 107}, {"time": 1040, "pitch": 45, "duration": 8, "velocity": 67}, {"time": 1046, "pitch": 57, "duration": 10, "velocity": 72}, {"time": 1052, "pitch": 45, "duration": 10, "velocity": 66}, {"time": 1058, "pitch": 61, "duration": 11, "velocity": 93}, {"time": 1064, "pitch": 45, "duration": 11, "velocity": 45}, {"time": 1070, "pitch": 57, "duration": 12, "velocity": 107}, {"time": 1082, "pitch": 40, "duration": 11, "velocity": 76}, {"time": 1082, "pitch": 52, "duration": 13, "velocity": 86}, {"time": 1082, "pitch": 56, "duration": 11, "velocity": 88}, {"time": 1082, "pitch": 59, "duration": 11, "velocity": 79}, {"time": 1088, "pitch": 47, "duration": 4, "velocity": 55}, {"time": 1094, "pitch": 56, "duration": 11, "velocity": 88}, {"time": 1094, "pitch": 59, "duration": 11, "velocity": 77}, {"time": 1106, "pitch": 56, "duration": 13, "velocity": 74}, {"time": 1106, "pitch": 59, "duration": 14, "velocity": 72}, {"time": 1118, "pitch": 52, "duration": 28, "velocity": 92}, {"time": 1124, "pitch": 56, "duration": 6, "velocity": 69}, {"time": 1130, "pitch": 33, "duration": 43, "velocity": 74}, {"time": 1130, "pitch": 57, "duration": 9, "velocity": 88}, {"time": 1136, "pitch": 40, "duration": 37, "velocity": 42}, {"time": 1142, "pitch": 45, "duration": 13, "velocity": 71}, {"time": 1148, "pitch": 52, "duration": 13, "velocity": 72}, {"time": 1154, "pitch": 59, "duration": 10, "velocity": 93}, {"time": 1160, "pitch": 45, "duration": 8, "velocity": 86}, {"time": 1163, "pitch": 52, "duration": 3, "velocity": 20}, {"time": 1166, "pitch": 59, "duration": 6, "velocity": 127}, {"time": 1169, "pitch": 45, "duration": 6, "velocity": 100}, {"time": 1172, "pitch": 52, "duration": 4, "velocity": 102}, {"time": 1178, "pitch": 38, "duration": 43, "velocity": 107}, {"time": 1178, "pitch": 50, "duration": 10, "velocity": 96}, {"time": 1178, "pitch": 54, "duration": 9, "velocity": 127}, {"time": 1178, "pitch": 57, "duration": 11, "velocity": 100}, {"time": 1187, "pitch": 42, "duration": 12, "velocity": 37}, {"time": 1187, "pitch": 45, "duration": 5, "velocity": 28}, {"time": 1190, "pitch": 50, "duration": 11, "velocity": 95}, {"time": 1190, "pitch": 54, "duration": 11, "velocity": 127}, {"time": 1190, "pitch": 57, "duration": 11, "velocity": 97}, {"time": 1190, "pitch": 61, "duration": 4, "velocity": 95}, {"time": 1196, "pitch": 45, "duration": 8, "velocity": 51}, {"time": 1202, "pitch": 50, "duration": 9, "velocity": 97}, {"time": 1202, "pitch": 54, "duration": 9, "velocity": 122}, {"time": 1202, "pitch": 57, "duration": 9, "velocity": 93}, {"time": 1208, "pitch": 45, "duration": 8, "velocity": 85}, {"time": 1214, "pitch": 50, "duration": 10, "velocity": 96}, {"time": 1214, "pitch": 54, "duration": 7, "velocity": 127}, {"time": 1214, "pitch": 57, "duration": 5, "velocity": 99}, {"time": 1220, "pitch": 45, "duration": 1, "velocity": 85}, {"time": 1226, "pitch": 33, "duration": 42, "velocity": 86}, {"time": 1226, "pitch": 52, "duration": 7, "velocity": 99}, {"time": 1226, "pitch": 57, "duration": 7, "velocity": 102}, {"time": 1226, "pitch": 61, "duration": 7, "velocity": 117}, {"time": 1232, "pitch": 45, "duration": 7, "velocity": 82}, {"time": 1238, "pitch": 52, "duration": 4, "velocity": 102}, {"time": 1238, "pitch": 57, "duration": 4, "velocity": 122}, {"time": 1238, "pitch": 61, "duration": 4, "velocity": 127}, {"time": 1244, "pitch": 45, "duration": 10, "velocity": 99}, {"time": 1250, "pitch": 52, "duration": 6, "velocity": 99}, {"time": 1250, "pitch": 57, "duration": 6, "velocity": 117}, {"time": 1250, "pitch": 61, "duration": 7, "velocity": 122}, {"time": 1256, "pitch": 45, "duration": 9, "velocity": 112}, {"time": 1259, "pitch": 52, "duration": 2, "velocity": 107}, {"time": 1259, "pitch": 57, "duration": 2, "velocity": 58}, {"time": 1259, "pitch": 61, "duration": 1, "velocity": 51}, {"time": 1262, "pitch": 52, "duration": 5, "velocity": 95}, {"time": 1262, "pitch": 57, "duration": 5, "velocity": 127}, {"time": 1262, "pitch": 61, "duration": 5, "velocity": 127}, {"time": 1265, "pitch": 45, "duration": 7, "velocity": 86}, {"time": 1268, "pitch": 52, "duration": 4, "velocity": 127}, {"time": 1268, "pitch": 57, "duration": 1, "velocity": 82}, {"time": 1268, "pitch": 61, "duration": 2, "velocity": 67}, {"time": 1274, "pitch": 38, "duration": 38, "velocity": 100}, {"time": 1274, "pitch": 45, "duration": 10, "velocity": 117}, {"time": 1274, "pitch": 50, "duration": 5, "velocity": 112}, {"time": 1274, "pitch": 54, "duration": 4, "velocity": 122}, {"time": 1274, "pitch": 57, "duration": 4, "velocity": 107}, {"time": 1280, "pitch": 42, "duration": 5, "velocity": 37}, {"time": 1280, "pitch": 50, "duration": 2, "velocity": 81}, {"time": 1280, "pitch": 54, "duration": 2, "velocity": 99}, {"time": 1280, "pitch": 57, "duration": 2, "velocity": 69}, {"time": 1283, "pitch": 50, "duration": 2, "velocity": 61}, {"time": 1283, "pitch": 54, "duration": 2, "velocity": 89}, {"time": 1283, "pitch": 57, "duration": 2, "velocity": 77}, {"time": 1286, "pitch": 45, "duration": 10, "velocity": 99}, {"time": 1286, "pitch": 50, "duration": 2, "velocity": 100}, {"time": 1286, "pitch": 54, "duration": 2, "velocity": 127}, {"time": 1286, "pitch": 57, "duration": 2, "velocity": 102}, {"time": 1292, "pitch": 50, "duration": 2, "velocity": 77}, {"time": 1292, "pitch": 54, "duration": 2, "velocity": 92}, {"time": 1292, "pitch": 57, "duration": 2, "velocity": 62}, {"time": 1295, "pitch": 50, "duration": 2, "velocity": 59}, {"time": 1295, "pitch": 54, "duration": 2, "velocity": 92}, {"time": 1295, "pitch": 57, "duration": 2, "velocity": 73}, {"time": 1298, "pitch": 45, "duration": 9, "velocity": 100}, {"time": 1298, "pitch": 50, "duration": 4, "velocity": 90}, {"time": 1298, "pitch": 54, "duration": 5, "velocity": 112}, {"time": 1298, "pitch": 57, "duration": 5, "velocity": 90}, {"time": 1304, "pitch": 50, "duration": 2, "velocity": 56}, {"time": 1304, "pitch": 54, "duration": 2, "velocity": 64}, {"time": 1304, "pitch": 57, "duration": 2, "velocity": 55}, {"time": 1307, "pitch": 54, "duration": 2, "velocity": 89}, {"time": 1307, "pitch": 57, "duration": 1, "velocity": 66}, {"time": 1310, "pitch": 45, "duration": 2, "velocity": 97}, {"time": 1310, "pitch": 50, "duration": 7, "velocity": 86}, {"time": 1310, "pitch": 54, "duration": 4, "velocity": 107}, {"time": 1310, "pitch": 57, "duration": 7, "velocity": 86}, {"time": 1316, "pitch": 54, "duration": 2, "velocity": 122}, {"time": 1322, "pitch": 33, "duration": 38, "velocity": 72}, {"time": 1322, "pitch": 45, "duration": 10, "velocity": 102}, {"time": 1322, "pitch": 52, "duration": 4, "velocity": 96}, {"time": 1322, "pitch": 57, "duration": 4, "velocity": 99}, {"time": 1322, "pitch": 61, "duration": 4, "velocity": 102}, {"time": 1328, "pitch": 52, "duration": 2, "velocity": 78}, {"time": 1328, "pitch": 57, "duration": 2, "velocity": 90}, {"time": 1328, "pitch": 61, "duration": 2, "velocity": 79}, {"time": 1331, "pitch": 52, "duration": 2, "velocity": 55}, {"time": 1331, "pitch": 57, "duration": 2, "velocity": 75}, {"time": 1331, "pitch": 61, "duration": 2, "velocity": 75}, {"time": 1334, "pitch": 45, "duration": 10, "velocity": 122}, {"time": 1334, "pitch": 52, "duration": 3, "velocity": 95}, {"time": 1334, "pitch": 57, "duration": 4, "velocity": 99}, {"time": 1334, "pitch": 61, "duration": 3, "velocity": 100}, {"time": 1340, "pitch": 52, "duration": 2, "velocity": 72}, {"time": 1340, "pitch": 57, "duration": 2, "velocity": 92}, {"time": 1340, "pitch": 61, "duration": 2, "velocity": 86}, {"time": 1343, "pitch": 52, "duration": 2, "velocity": 55}, {"time": 1343, "pitch": 57, "duration": 2, "velocity": 69}, {"time": 1343, "pitch": 61, "duration": 2, "velocity": 68}, {"time": 1346, "pitch": 45, "duration": 10, "velocity": 99}, {"time": 1346, "pitch": 52, "duration": 4, "velocity": 90}, {"time": 1346, "pitch": 57, "duration": 4, "velocity": 99}, {"time": 1346, "pitch": 61, "duration": 4, "velocity": 112}, {"time": 1352, "pitch": 52, "duration": 2, "velocity": 72}, {"time": 1352, "pitch": 57, "duration": 2, "velocity": 89}, {"time": 1352, "pitch": 61, "duration": 2, "velocity": 90}, {"time": 1358, "pitch": 45, "duration": 2, "velocity": 117}, {"time": 1358, "pitch": 52, "duration": 4, "velocity": 95}, {"time": 1358, "pitch": 57, "duration": 4, "velocity": 117}, {"time": 1358, "pitch": 61, "duration": 5, "velocity": 117}, {"time": 1364, "pitch": 52, "duration": 4, "velocity": 99}, {"time": 1370, "pitch": 38, "duration": 15, "velocity": 86}, {"time": 1370, "pitch": 45, "duration": 15, "velocity": 102}, {"time": 1370, "pitch": 50, "duration": 5, "velocity": 117}, {"time": 1370, "pitch": 54, "duration": 7, "velocity": 112}, {"time": 1370, "pitch": 57, "duration": 8, "velocity": 97}, {"time": 1376, "pitch": 50, "duration": 3, "velocity": 69}, {"time": 1382, "pitch": 50, "duration": 6, "velocity": 102}, {"time": 1382, "pitch": 54, "duration": 6, "velocity": 127}, {"time": 1382, "pitch": 57, "duration": 7, "velocity": 96}, {"time": 1388, "pitch": 38, "duration": 5, "velocity": 51}, {"time": 1388, "pitch": 45, "duration": 5, "velocity": 55}, {"time": 1391, "pitch": 50, "duration": 2, "velocity": 71}, {"time": 1391, "pitch": 54, "duration": 2, "velocity": 82}, {"time": 1391, "pitch": 57, "duration": 2, "velocity": 64}, {"time": 1394, "pitch": 38, "duration": 9, "velocity": 76}, {"time": 1394, "pitch": 45, "duration": 9, "velocity": 86}, {"time": 1394, "pitch": 50, "duration": 4, "velocity": 95}, {"time": 1394, "pitch": 54, "duration": 4, "velocity": 122}, {"time": 1394, "pitch": 57, "duration": 4, "velocity": 95}, {"time": 1400, "pitch": 50, "duration": 3, "velocity": 88}, {"time": 1400, "pitch": 54, "duration": 3, "velocity": 90}, {"time": 1400, "pitch": 57, "duration": 3, "velocity": 76}, {"time": 1406, "pitch": 38, "duration": 1, "velocity": 88}, {"time": 1406, "pitch": 45, "duration": 2, "velocity": 99}, {"time": 1406, "pitch": 50, "duration": 7, "velocity": 90}, {"time": 1406, "pitch": 54, "duration": 4, "velocity": 122}, {"time": 1406, "pitch": 57, "duration": 7, "velocity": 92}, {"time": 1412, "pitch": 54, "duration": 2, "velocity": 100}, {"time": 1418, "pitch": 33, "duration": 38, "velocity": 76}, {"time": 1418, "pitch": 45, "duration": 10, "velocity": 100}, {"time": 1418, "pitch": 52, "duration": 5, "velocity": 97}, {"time": 1418, "pitch": 57, "duration": 4, "velocity": 100}, {"time": 1418, "pitch": 61, "duration": 4, "velocity": 107}, {"time": 1424, "pitch": 52, "duration": 2, "velocity": 78}, {"time": 1424, "pitch": 57, "duration": 2, "velocity": 83}, {"time": 1424, "pitch": 61, "duration": 2, "velocity": 90}, {"time": 1427, "pitch": 57, "duration": 2, "velocity": 55}, {"time": 1427, "pitch": 61, "duration": 1, "velocity": 47}, {"time": 1430, "pitch": 45, "duration": 9, "velocity": 107}, {"time": 1430, "pitch": 57, "duration": 3, "velocity": 95}, {"time": 1430, "pitch": 61, "duration": 3, "velocity": 102}, {"time": 1436, "pitch": 57, "duration": 2, "velocity": 92}, {"time": 1436, "pitch": 61, "duration": 3, "velocity": 95}, {"time": 1439, "pitch": 52, "duration": 5, "velocity": 72}, {"time": 1442, "pitch": 45, "duration": 8, "velocity": 90}, {"time": 1442, "pitch": 57, "duration": 5, "velocity": 96}, {"time": 1442, "pitch": 61, "duration": 7, "velocity": 112}, {"time": 1448, "pitch": 52, "duration": 8, "velocity": 85}, {"time": 1454, "pitch": 45, "duration": 2, "velocity": 117}, {"time": 1454, "pitch": 57, "duration": 6, "velocity": 97}, {"time": 1454, "pitch": 61, "duration": 6, "velocity": 112}, {"time": 1460, "pitch": 52, "duration": 4, "velocity": 89}, {"time": 1466, "pitch": 40, "duration": 40, "velocity": 90}, {"time": 1466, "pitch": 47, "duration": 14, "velocity": 99}, {"time": 1466, "pitch": 52, "duration": 9, "velocity": 95}, {"time": 1466, "pitch": 56, "duration": 10, "velocity": 107}, {"time": 1466, "pitch": 59, "duration": 8, "velocity": 100}, {"time": 1472, "pitch": 44, "duration": 32, "velocity": 37}, {"time": 1478, "pitch": 52, "duration": 4, "velocity": 92}, {"time": 1478, "pitch": 56, "duration": 7, "velocity": 127}, {"time": 1478, "pitch": 59, "duration": 8, "velocity": 100}, {"time": 1484, "pitch": 47, "duration": 8, "velocity": 79}, {"time": 1484, "pitch": 52, "duration": 2, "velocity": 35}, {"time": 1487, "pitch": 52, "duration": 2, "velocity": 52}, {"time": 1487, "pitch": 56, "duration": 2, "velocity": 63}, {"time": 1487, "pitch": 59, "duration": 2, "velocity": 59}, {"time": 1490, "pitch": 52, "duration": 9, "velocity": 95}, {"time": 1490, "pitch": 56, "duration": 9, "velocity": 112}, {"time": 1490, "pitch": 59, "duration": 8, "velocity": 99}, {"time": 1496, "pitch": 47, "duration": 6, "velocity": 79}, {"time": 1502, "pitch": 56, "duration": 7, "velocity": 127}, {"time": 1502, "pitch": 59, "duration": 6, "velocity": 102}, {"time": 1505, "pitch": 47, "duration": 2, "velocity": 76}, {"time": 1508, "pitch": 52, "duration": 4, "velocity": 88}, {"time": 1514, "pitch": 33, "duration": 42, "velocity": 69}, {"time": 1514, "pitch": 45, "duration": 10, "velocity": 102}, {"time": 1514, "pitch": 52, "duration": 5, "velocity": 97}, {"time": 1514, "pitch": 57, "duration": 5, "velocity": 117}, {"time": 1514, "pitch": 61, "duration": 5, "velocity": 117}, {"time": 1520, "pitch": 52, "duration": 2, "velocity": 51}, {"time": 1520, "pitch": 57, "duration": 2, "velocity": 70}, {"time": 1520, "pitch": 61, "duration": 2, "velocity": 72}, {"time": 1523, "pitch": 57, "duration": 2, "velocity": 45}, {"time": 1523, "pitch": 61, "duration": 1, "velocity": 32}, {"time": 1526, "pitch": 45, "duration": 10, "velocity": 100}, {"time": 1526, "pitch": 52, "duration": 2, "velocity": 96}, {"time": 1526, "pitch": 57, "duration": 3, "velocity": 100}, {"time": 1526, "pitch": 61, "duration": 3, "velocity": 100}, {"time": 1532, "pitch": 52, "duration": 1, "velocity": 68}, {"time": 1532, "pitch": 57, "duration": 2, "velocity": 78}, {"time": 1532, "pitch": 61, "duration": 1, "velocity": 77}, {"time": 1535, "pitch": 52, "duration": 4, "velocity": 82}, {"time": 1535, "pitch": 57, "duration": 4, "velocity": 102}, {"time": 1535, "pitch": 61, "duration": 4, "velocity": 107}, {"time": 1538, "pitch": 45, "duration": 6, "velocity": 92}, {"time": 1541, "pitch": 57, "duration": 7, "velocity": 99}, {"time": 1541, "pitch": 61, "duration": 7, "velocity": 100}, {"time": 1547, "pitch": 45, "duration": 5, "velocity": 96}, {"time": 1550, "pitch": 57, "duration": 8, "velocity": 97}, {"time": 1550, "pitch": 61, "duration": 9, "velocity": 102}, {"time": 1553, "pitch": 45, "duration": 7, "velocity": 76}, {"time": 1556, "pitch": 52, "duration": 5, "velocity": 74}, {"time": 1562, "pitch": 33, "duration": 35, "velocity": 64}, {"time": 1562, "pitch": 45, "duration": 38, "velocity": 100}, {"time": 1562, "pitch": 57, "duration": 8, "velocity": 99}, {"time": 1562, "pitch": 61, "duration": 8, "velocity": 99}, {"time": 1568, "pitch": 52, "duration": 7, "velocity": 66}, {"time": 1574, "pitch": 57, "duration": 7, "velocity": 83}, {"time": 1574, "pitch": 61, "duration": 8, "velocity": 92}, {"time": 1580, "pitch": 52, "duration": 7, "velocity": 69}, {"time": 1586, "pitch": 57, "duration": 8, "velocity": 81}, {"time": 1586, "pitch": 61, "duration": 8, "velocity": 90}, {"time": 1592, "pitch": 52, "duration": 7, "velocity": 69}, {"time": 1598, "pitch": 57, "duration": 6, "velocity": 79}, {"time": 1598, "pitch": 61, "duration": 7, "velocity": 92}, {"time": 1604, "pitch": 52, "duration": 8, "velocity": 70}, {"time": 1610, "pitch": 37, "duration": 31, "velocity": 69}, {"time": 1610, "pitch": 49, "duration": 30, "velocity": 67}, {"time": 1610, "pitch": 56, "duration": 7, "velocity": 96}, {"time": 1610, "pitch": 61, "duration": 8, "velocity": 99}, {"time": 1616, "pitch": 52, "duration": 8, "velocity": 72}, {"time": 1622, "pitch": 56, "duration": 7, "velocity": 79}, {"time": 1622, "pitch": 61, "duration": 7, "velocity": 88}, {"time": 1628, "pitch": 52, "duration": 7, "velocity": 62}, {"time": 1634, "pitch": 56, "duration": 8, "velocity": 68}, {"time": 1634, "pitch": 61, "duration": 8, "velocity": 81}, {"time": 1640, "pitch": 52, "duration": 7, "velocity": 75}, {"time": 1646, "pitch": 56, "duration": 7, "velocity": 100}, {"time": 1646, "pitch": 61, "duration": 6, "velocity": 102}, {"time": 1652, "pitch": 52, "duration": 7, "velocity": 86}, {"time": 1658, "pitch": 33, "duration": 30, "velocity": 63}, {"time": 1658, "pitch": 45, "duration": 31, "velocity": 81}, {"time": 1658, "pitch": 57, "duration": 8, "velocity": 92}, {"time": 1658, "pitch": 61, "duration": 9, "velocity": 100}, {"time": 1664, "pitch": 52, "duration": 7, "velocity": 69}, {"time": 1670, "pitch": 57, "duration": 8, "velocity": 89}, {"time": 1670, "pitch": 61, "duration": 7, "velocity": 93}, {"time": 1676, "pitch": 52, "duration": 8, "velocity": 59}, {"time": 1682, "pitch": 57, "duration": 8, "velocity": 69}, {"time": 1682, "pitch": 61, "duration": 8, "velocity": 78}, {"time": 1688, "pitch": 52, "duration": 8, "velocity": 57}, {"time": 1694, "pitch": 57, "duration": 6, "velocity": 86}, {"time": 1694, "pitch": 61, "duration": 7, "velocity": 100}, {"time": 1700, "pitch": 52, "duration": 7, "velocity": 73}, {"time": 1706, "pitch": 37, "duration": 34, "velocity": 63}, {"time": 1706, "pitch": 49, "duration": 33, "velocity": 68}, {"time": 1706, "pitch": 56, "duration": 7, "velocity": 93}, {"time": 1706, "pitch": 61, "duration": 8, "velocity": 100}, {"time": 1712, "pitch": 52, "duration": 7, "velocity": 73}, {"time": 1718, "pitch": 56, "duration": 7, "velocity": 83}, {"time": 1718, "pitch": 61, "duration": 8, "velocity": 90}, {"time": 1724, "pitch": 52, "duration": 7, "velocity": 58}, {"time": 1730, "pitch": 56, "duration": 8, "velocity": 72}, {"time": 1730, "pitch": 61, "duration": 9, "velocity": 79}, {"time": 1736, "pitch": 52, "duration": 6, "velocity": 55}, {"time": 1742, "pitch": 56, "duration": 7, "velocity": 77}, {"time": 1742, "pitch": 61, "duration": 6, "velocity": 112}, {"time": 1748, "pitch": 52, "duration": 6, "velocity": 86}, {"time": 1754, "pitch": 38, "duration": 39, "velocity": 61}, {"time": 1754, "pitch": 45, "duration": 41, "velocity": 70}, {"time": 1754, "pitch": 54, "duration": 8, "velocity": 93}, {"time": 1754, "pitch": 57, "duration": 7, "velocity": 90}, {"time": 1760, "pitch": 50, "duration": 7, "velocity": 63}, {"time": 1766, "pitch": 54, "duration": 7, "velocity": 90}, {"time": 1766, "pitch": 57, "duration": 7, "velocity": 86}, {"time": 1772, "pitch": 50, "duration": 7, "velocity": 56}, {"time": 1778, "pitch": 54, "duration": 7, "velocity": 89}, {"time": 1778, "pitch": 57, "duration": 8, "velocity": 89}, {"time": 1784, "pitch": 50, "duration": 8, "velocity": 55}, {"time": 1790, "pitch": 54, "duration": 6, "velocity": 88}, {"time": 1790, "pitch": 57, "duration": 6, "velocity": 89}, {"time": 1796, "pitch": 50, "duration": 7, "velocity": 82}, {"time": 1802, "pitch": 45, "duration": 46, "velocity": 82}, {"time": 1802, "pitch": 57, "duration": 7, "velocity": 90}, {"time": 1802, "pitch": 61, "duration": 8, "velocity": 97}, {"time": 1808, "pitch": 52, "duration": 7, "velocity": 68}, {"time": 1814, "pitch": 57, "duration": 7, "velocity": 77}, {"time": 1814, "pitch": 61, "duration": 8, "velocity": 88}, {"time": 1820, "pitch": 52, "duration": 7, "velocity": 58}, {"time": 1826, "pitch": 57, "duration": 8, "velocity": 74}, {"time": 1826, "pitch": 61, "duration": 9, "velocity": 73}, {"time": 1832, "pitch": 52, "duration": 8, "velocity": 69}, {"time": 1838, "pitch": 57, "duration": 7, "velocity": 92}, {"time": 1838, "pitch": 61, "duration": 7, "velocity": 99}, {"time": 1844, "pitch": 52, "duration": 7, "velocity": 78}, {"time": 1850, "pitch": 40, "duration": 34, "velocity": 72}, {"time": 1850, "pitch": 56, "duration": 7, "velocity": 99}, {"time": 1850, "pitch": 59, "duration": 8, "velocity": 100}, {"time": 1856, "pitch": 52, "duration": 7, "velocity": 73}, {"time": 1862, "pitch": 56, "duration": 7, "velocity": 93}, {"time": 1862, "pitch": 59, "duration": 8, "velocity": 90}, {"time": 1868, "pitch": 52, "duration": 8, "velocity": 57}, {"time": 1874, "pitch": 56, "duration": 8, "velocity": 82}, {"time": 1874, "pitch": 59, "duration": 8, "velocity": 82}, {"time": 1880, "pitch": 52, "duration": 8, "velocity": 63}, {"time": 1886, "pitch": 56, "duration": 7, "velocity": 112}, {"time": 1886, "pitch": 59, "duration": 6, "velocity": 99}, {"time": 1892, "pitch": 52, "duration": 8, "velocity": 68}, {"time": 1898, "pitch": 33, "duration": 38, "velocity": 62}, {"time": 1898, "pitch": 45, "duration": 28, "velocity": 88}, {"time": 1898, "pitch": 57, "duration": 8, "velocity": 90}, {"time": 1898, "pitch": 61, "duration": 8, "velocity": 99}, {"time": 1904, "pitch": 52, "duration": 8, "velocity": 61}, {"time": 1910, "pitch": 57, "duration": 8, "velocity": 74}, {"time": 1910, "pitch": 61, "duration": 9, "velocity": 93}, {"time": 1916, "pitch": 52, "duration": 8, "velocity": 48}, {"time": 1922, "pitch": 57, "duration": 10, "velocity": 79}, {"time": 1922, "pitch": 61, "duration": 10, "velocity": 90}, {"time": 1928, "pitch": 45, "duration": 17, "velocity": 78}, {"time": 1928, "pitch": 52, "duration": 2, "velocity": 31}, {"time": 1934, "pitch": 57, "duration": 6, "velocity": 122}, {"time": 1934, "pitch": 61, "duration": 6, "velocity": 127}, {"time": 1940, "pitch": 52, "duration": 2, "velocity": 99}, {"time": 1946, "pitch": 35, "duration": 28, "velocity": 97}, {"time": 1946, "pitch": 47, "duration": 3, "velocity": 102}, {"time": 1946, "pitch": 50, "duration": 3, "velocity": 107}, {"time": 1946, "pitch": 54, "duration": 4, "velocity": 117}, {"time": 1952, "pitch": 47, "duration": 8, "velocity": 92}, {"time": 1958, "pitch": 59, "duration": 4, "velocity": 99}, {"time": 1958, "pitch": 62, "duration": 4, "velocity": 122}, {"time": 1958, "pitch": 66, "duration": 4, "velocity": 127}, {"time": 1964, "pitch": 47, "duration": 10, "velocity": 86}, {"time": 1970, "pitch": 59, "duration": 6, "velocity": 102}, {"time": 1970, "pitch": 62, "duration": 6, "velocity": 127}, {"time": 1970, "pitch": 66, "duration": 6, "velocity": 127}, {"time": 1976, "pitch": 35, "duration": 11, "velocity": 65}, {"time": 1976, "pitch": 47, "duration": 9, "velocity": 85}, {"time": 1982, "pitch": 59, "duration": 3, "velocity": 112}, {"time": 1982, "pitch": 62, "duration": 6, "velocity": 127}, {"time": 1982, "pitch": 66, "duration": 6, "velocity": 127}, {"time": 1988, "pitch": 59, "duration": 3, "velocity": 107}, {"time": 1994, "pitch": 33, "duration": 15, "velocity": 89}, {"time": 1994, "pitch": 45, "duration": 15, "velocity": 112}, {"time": 1994, "pitch": 57, "duration": 5, "velocity": 112}, {"time": 1994, "pitch": 61, "duration": 6, "velocity": 127}, {"time": 1994, "pitch": 64, "duration": 6, "velocity": 112}, {"time": 2000, "pitch": 57, "duration": 2, "velocity": 86}, {"time": 2006, "pitch": 57, "duration": 6, "velocity": 122}, {"time": 2006, "pitch": 61, "duration": 6, "velocity": 122}, {"time": 2012, "pitch": 33, "duration": 9, "velocity": 54}, {"time": 2012, "pitch": 45, "duration": 10, "velocity": 88}, {"time": 2018, "pitch": 52, "duration": 7, "velocity": 96}, {"time": 2018, "pitch": 57, "duration": 6, "velocity": 122}, {"time": 2018, "pitch": 61, "duration": 7, "velocity": 127}, {"time": 2024, "pitch": 33, "duration": 6, "velocity": 65}, {"time": 2024, "pitch": 45, "duration": 7, "velocity": 100}, {"time": 2030, "pitch": 57, "duration": 7, "velocity": 127}, {"time": 2030, "pitch": 61, "duration": 6, "velocity": 127}, {"time": 2036, "pitch": 52, "duration": 1, "velocity": 90}, {"time": 2042, "pitch": 35, "duration": 39, "velocity": 71}, {"time": 2042, "pitch": 47, "duration": 15, "velocity": 102}, {"time": 2042, "pitch": 59, "duration": 5, "velocity": 112}, {"time": 2042, "pitch": 62, "duration": 8, "velocity": 107}, {"time": 2042, "pitch": 66, "duration": 8, "velocity": 117}, {"time": 2054, "pitch": 59, "duration": 7, "velocity": 112}, {"time": 2054, "pitch": 62, "duration": 7, "velocity": 127}, {"time": 2054, "pitch": 66, "duration": 7, "velocity": 122}, {"time": 2060, "pitch": 47, "duration": 8, "velocity": 97}, {"time": 2066, "pitch": 59, "duration": 6, "velocity": 100}, {"time": 2066, "pitch": 62, "duration": 7, "velocity": 122}, {"time": 2066, "pitch": 66, "duration": 8, "velocity": 122}, {"time": 2072, "pitch": 47, "duration": 8, "velocity": 88}, {"time": 2078, "pitch": 62, "duration": 6, "velocity": 122}, {"time": 2078, "pitch": 66, "duration": 6, "velocity": 127}, {"time": 2084, "pitch": 59, "duration": 4, "velocity": 102}, {"time": 2090, "pitch": 33, "duration": 27, "velocity": 70}, {"time": 2090, "pitch": 45, "duration": 14, "velocity": 107}, {"time": 2090, "pitch": 57, "duration": 6, "velocity": 122}, {"time": 2090, "pitch": 61, "duration": 5, "velocity": 112}, {"time": 2090, "pitch": 64, "duration": 5, "velocity": 95}, {"time": 2102, "pitch": 52, "duration": 2, "velocity": 96}, {"time": 2102, "pitch": 57, "duration": 2, "velocity": 112}, {"time": 2102, "pitch": 61, "duration": 2, "velocity": 122}, {"time": 2108, "pitch": 45, "duration": 8, "velocity": 112}, {"time": 2114, "pitch": 52, "duration": 7, "velocity": 99}, {"time": 2114, "pitch": 57, "duration": 7, "velocity": 127}, {"time": 2114, "pitch": 61, "duration": 7, "velocity": 127}, {"time": 2120, "pitch": 33, "duration": 4, "velocity": 74}, {"time": 2120, "pitch": 45, "duration": 4, "velocity": 99}, {"time": 2126, "pitch": 33, "duration": 5, "velocity": 89}, {"time": 2126, "pitch": 45, "duration": 9, "velocity": 117}, {"time": 2126, "pitch": 52, "duration": 4, "velocity": 112}, {"time": 2126, "pitch": 57, "duration": 4, "velocity": 127}, {"time": 2126, "pitch": 61, "duration": 6, "velocity": 127}, {"time": 2132, "pitch": 52, "duration": 3, "velocity": 127}, {"time": 2138, "pitch": 38, "duration": 41, "velocity": 99}, {"time": 2138, "pitch": 45, "duration": 15, "velocity": 107}, {"time": 2138, "pitch": 50, "duration": 10, "velocity": 117}, {"time": 2138, "pitch": 54, "duration": 10, "velocity": 127}, {"time": 2138, "pitch": 57, "duration": 10, "velocity": 127}, {"time": 2150, "pitch": 50, "duration": 7, "velocity": 100}, {"time": 2150, "pitch": 54, "duration": 7, "velocity": 127}, {"time": 2150, "pitch": 57, "duration": 7, "velocity": 102}, {"time": 2156, "pitch": 45, "duration": 8, "velocity": 67}, {"time": 2159, "pitch": 54, "duration": 1, "velocity": 35}, {"time": 2159, "pitch": 57, "duration": 2, "velocity": 30}, {"time": 2162, "pitch": 50, "duration": 7, "velocity": 97}, {"time": 2162, "pitch": 54, "duration": 8, "velocity": 117}, {"time": 2162, "pitch": 57, "duration": 9, "velocity": 97}, {"time": 2168, "pitch": 45, "duration": 8, "velocity": 72}, {"time": 2174, "pitch": 54, "duration": 6, "velocity": 127}, {"time": 2174, "pitch": 57, "duration": 8, "velocity": 102}, {"time": 2177, "pitch": 45, "duration": 3, "velocity": 72}, {"time": 2180, "pitch": 50, "duration": 5, "velocity": 89}, {"time": 2186, "pitch": 38, "duration": 44, "velocity": 82}, {"time": 2186, "pitch": 45, "duration": 16, "velocity": 100}, {"time": 2186, "pitch": 50, "duration": 3, "velocity": 92}, {"time": 2186, "pitch": 53, "duration": 4, "velocity": 102}, {"time": 2186, "pitch": 57, "duration": 4, "velocity": 100}, {"time": 2198, "pitch": 50, "duration": 16, "velocity": 74}, {"time": 2198, "pitch": 57, "duration": 11, "velocity": 107}, {"time": 2198, "pitch": 62, "duration": 11, "velocity": 117}, {"time": 2198, "pitch": 65, "duration": 11, "velocity": 99}, {"time": 2204, "pitch": 45, "duration": 30, "velocity": 43}, {"time": 2210, "pitch": 57, "duration": 10, "velocity": 96}, {"time": 2210, "pitch": 62, "duration": 11, "velocity": 99}, {"time": 2210, "pitch": 65, "duration": 11, "velocity": 93}, {"time": 2216, "pitch": 50, "duration": 7, "velocity": 52}, {"time": 2222, "pitch": 57, "duration": 4, "velocity": 102}, {"time": 2222, "pitch": 62, "duration": 6, "velocity": 112}, {"time": 2222, "pitch": 65, "duration": 6, "velocity": 102}, {"time": 2225, "pitch": 50, "duration": 3, "velocity": 70}, {"time": 2234, "pitch": 40, "duration": 29, "velocity": 83}, {"time": 2234, "pitch": 52, "duration": 11, "velocity": 117}, {"time": 2234, "pitch": 55, "duration": 11, "velocity": 102}, {"time": 2234, "pitch": 59, "duration": 11, "velocity": 99}, {"time": 2246, "pitch": 52, "duration": 10, "velocity": 99}, {"time": 2246, "pitch": 55, "duration": 11, "velocity": 100}, {"time": 2246, "pitch": 59, "duration": 11, "velocity": 96}, {"time": 2258, "pitch": 52, "duration": 10, "velocity": 72}, {"time": 2258, "pitch": 55, "duration": 10, "velocity": 72}, {"time": 2258, "pitch": 59, "duration": 10, "velocity": 71}, {"time": 2264, "pitch": 40, "duration": 8, "velocity": 64}, {"time": 2270, "pitch": 52, "duration": 4, "velocity": 100}, {"time": 2270, "pitch": 55, "duration": 8, "velocity": 117}, {"time": 2270, "pitch": 59, "duration": 7, "velocity": 107}, {"time": 2276, "pitch": 52, "duration": 4, "velocity": 67}, {"time": 2282, "pitch": 33, "duration": 16, "velocity": 75}, {"time": 2282, "pitch": 45, "duration": 15, "velocity": 102}, {"time": 2282, "pitch": 52, "duration": 10, "velocity": 100}, {"time": 2282, "pitch": 57, "duration": 11, "velocity": 127}, {"time": 2282, "pitch": 61, "duration": 11, "velocity": 122}, {"time": 2294, "pitch": 52, "duration": 7, "velocity": 99}, {"time": 2294, "pitch": 57, "duration": 7, "velocity": 122}, {"time": 2294, "pitch": 61, "duration": 8, "velocity": 127}, {"time": 2300, "pitch": 33, "duration": 8, "velocity": 72}, {"time": 2300, "pitch": 45, "duration": 8, "velocity": 99}, {"time": 2303, "pitch": 52, "duration": 2, "velocity": 77}, {"time": 2303, "pitch": 57, "duration": 2, "velocity": 61}, {"time": 2303, "pitch": 61, "duration": 1, "velocity": 45}, {"time": 2306, "pitch": 52, "duration": 7, "velocity": 102}, {"time": 2306, "pitch": 57, "duration": 7, "velocity": 112}, {"time": 2306, "pitch": 61, "duration": 7, "velocity": 122}, {"time": 2312, "pitch": 33, "duration": 7, "velocity": 70}, {"time": 2312, "pitch": 45, "duration": 7, "velocity": 107}, {"time": 2318, "pitch": 57, "duration": 5, "velocity": 127}, {"time": 2318, "pitch": 61, "duration": 5, "velocity": 127}, {"time": 2324, "pitch": 33, "duration": 7, "velocity": 79}, {"time": 2324, "pitch": 45, "duration": 7, "velocity": 107}, {"time": 2324, "pitch": 52, "duration": 7, "velocity": 97}, {"time": 2324, "pitch": 57, "duration": 7, "velocity": 107}, {"time": 2324, "pitch": 61, "duration": 7, "velocity": 127}, {"time": 2330, "pitch": 38, "duration": 43, "velocity": 107}, {"time": 2330, "pitch": 50, "duration": 10, "velocity": 96}, {"time": 2330, "pitch": 54, "duration": 9, "velocity": 127}, {"time": 2330, "pitch": 57, "duration": 1, "velocity": 100}, {"time": 2339, "pitch": 42, "duration": 12, "velocity": 37}, {"time": 2339, "pitch": 45, "duration": 5, "velocity": 28}, {"time": 2342, "pitch": 50, "duration": 11, "velocity": 95}, {"time": 2342, "pitch": 54, "duration": 11, "velocity": 127}, {"time": 2342, "pitch": 57, "duration": 11, "velocity": 97}, {"time": 2342, "pitch": 61, "duration": 4, "velocity": 95}, {"time": 2348, "pitch": 45, "duration": 8, "velocity": 51}, {"time": 2354, "pitch": 50, "duration": 9, "velocity": 97}, {"time": 2354, "pitch": 54, "duration": 9, "velocity": 122}, {"time": 2354, "pitch": 57, "duration": 9, "velocity": 93}, {"time": 2360, "pitch": 45, "duration": 8, "velocity": 85}, {"time": 2366, "pitch": 50, "duration": 10, "velocity": 96}, {"time": 2366, "pitch": 54, "duration": 7, "velocity": 127}, {"time": 2366, "pitch": 57, "duration": 5, "velocity": 99}, {"time": 2372, "pitch": 45, "duration": 1, "velocity": 85}, {"time": 2378, "pitch": 33, "duration": 42, "velocity": 86}, {"time": 2378, "pitch": 52, "duration": 7, "velocity": 99}, {"time": 2378, "pitch": 57, "duration": 7, "velocity": 102}, {"time": 2378, "pitch": 61, "duration": 7, "velocity": 117}, {"time": 2384, "pitch": 45, "duration": 7, "velocity": 82}, {"time": 2390, "pitch": 52, "duration": 4, "velocity": 102}, {"time": 2390, "pitch": 57, "duration": 4, "velocity": 122}, {"time": 2390, "pitch": 61, "duration": 4, "velocity": 127}, {"time": 2396, "pitch": 45, "duration": 10, "velocity": 99}, {"time": 2402, "pitch": 52, "duration": 6, "velocity": 99}, {"time": 2402, "pitch": 57, "duration": 6, "velocity": 117}, {"time": 2402, "pitch": 61, "duration": 7, "velocity": 122}, {"time": 2408, "pitch": 45, "duration": 9, "velocity": 112}, {"time": 2411, "pitch": 52, "duration": 2, "velocity": 107}, {"time": 2411, "pitch": 57, "duration": 2, "velocity": 58}, {"time": 2411, "pitch": 61, "duration": 1, "velocity": 51}, {"time": 2414, "pitch": 52, "duration": 5, "velocity": 95}, {"time": 2414, "pitch": 57, "duration": 5, "velocity": 127}, {"time": 2414, "pitch": 61, "duration": 5, "velocity": 127}, {"time": 2417, "pitch": 45, "duration": 7, "velocity": 86}, {"time": 2420, "pitch": 52, "duration": 4, "velocity": 127}, {"time": 2420, "pitch": 57, "duration": 1, "velocity": 82}, {"time": 2420, "pitch": 61, "duration": 2, "velocity": 67}, {"time": 2426, "pitch": 38, "duration": 38, "velocity": 100}, {"time": 2426, "pitch": 45, "duration": 10, "velocity": 117}, {"time": 2426, "pitch": 50, "duration": 5, "velocity": 112}, {"time": 2426, "pitch": 54, "duration": 4, "velocity": 122}, {"time": 2426, "pitch": 57, "duration": 4, "velocity": 107}, {"time": 2432, "pitch": 42, "duration": 5, "velocity": 37}, {"time": 2432, "pitch": 50, "duration": 2, "velocity": 81}, {"time": 2432, "pitch": 54, "duration": 2, "velocity": 99}, {"time": 2432, "pitch": 57, "duration": 2, "velocity": 69}, {"time": 2435, "pitch": 50, "duration": 2, "velocity": 61}, {"time": 2435, "pitch": 54, "duration": 2, "velocity": 89}, {"time": 2435, "pitch": 57, "duration": 2, "velocity": 77}, {"time": 2438, "pitch": 45, "duration": 10, "velocity": 99}, {"time": 2438, "pitch": 50, "duration": 2, "velocity": 100}, {"time": 2438, "pitch": 54, "duration": 2, "velocity": 127}, {"time": 2438, "pitch": 57, "duration": 2, "velocity": 102}, {"time": 2444, "pitch": 50, "duration": 2, "velocity": 77}, {"time": 2444, "pitch": 54, "duration": 2, "velocity": 92}, {"time": 2444, "pitch": 57, "duration": 2, "velocity": 62}, {"time": 2447, "pitch": 50, "duration": 2, "velocity": 59}, {"time": 2447, "pitch": 54, "duration": 2, "velocity": 92}, {"time": 2447, "pitch": 57, "duration": 2, "velocity": 73}, {"time": 2450, "pitch": 45, "duration": 9, "velocity": 100}, {"time": 2450, "pitch": 50, "duration": 4, "velocity": 90}, {"time": 2450, "pitch": 54, "duration": 5, "velocity": 112}, {"time": 2450, "pitch": 57, "duration": 5, "velocity": 90}, {"time": 2456, "pitch": 50, "duration": 2, "velocity": 56}, {"time": 2456, "pitch": 54, "duration": 2, "velocity": 64}, {"time": 2456, "pitch": 57, "duration": 2, "velocity": 55}, {"time": 2459, "pitch": 54, "duration": 2, "velocity": 89}, {"time": 2459, "pitch": 57, "duration": 1, "velocity": 66}, {"time": 2462, "pitch": 45, "duration": 2, "velocity": 97}, {"time": 2462, "pitch": 50, "duration": 7, "velocity": 86}, {"time": 2462, "pitch": 54, "duration": 4, "velocity": 107}, {"time": 2462, "pitch": 57, "duration": 7, "velocity": 86}, {"time": 2468, "pitch": 54, "duration": 2, "velocity": 122}, {"time": 2474, "pitch": 33, "duration": 38, "velocity": 72}, {"time": 2474, "pitch": 45, "duration": 10, "velocity": 102}, {"time": 2474, "pitch": 52, "duration": 4, "velocity": 96}, {"time": 2474, "pitch": 57, "duration": 4, "velocity": 99}, {"time": 2474, "pitch": 61, "duration": 4, "velocity": 102}, {"time": 2480, "pitch": 52, "duration": 2, "velocity": 78}, {"time": 2480, "pitch": 57, "duration": 2, "velocity": 90}, {"time": 2480, "pitch": 61, "duration": 2, "velocity": 79}, {"time": 2483, "pitch": 52, "duration": 2, "velocity": 55}, {"time": 2483, "pitch": 57, "duration": 2, "velocity": 75}, {"time": 2483, "pitch": 61, "duration": 2, "velocity": 75}, {"time": 2486, "pitch": 45, "duration": 10, "velocity": 122}, {"time": 2486, "pitch": 52, "duration": 3, "velocity": 95}, {"time": 2486, "pitch": 57, "duration": 4, "velocity": 99}, {"time": 2486, "pitch": 61, "duration": 3, "velocity": 100}, {"time": 2492, "pitch": 52, "duration": 2, "velocity": 72}, {"time": 2492, "pitch": 57, "duration": 2, "velocity": 92}, {"time": 2492, "pitch": 61, "duration": 2, "velocity": 86}, {"time": 2495, "pitch": 52, "duration": 2, "velocity": 55}, {"time": 2495, "pitch": 57, "duration": 2, "velocity": 69}, {"time": 2495, "pitch": 61, "duration": 2, "velocity": 68}, {"time": 2498, "pitch": 45, "duration": 10, "velocity": 99}, {"time": 2498, "pitch": 52, "duration": 4, "velocity": 90}, {"time": 2498, "pitch": 57, "duration": 4, "velocity": 99}, {"time": 2498, "pitch": 61, "duration": 4, "velocity": 112}, {"time": 2504, "pitch": 52, "duration": 2, "velocity": 72}, {"time": 2504, "pitch": 57, "duration": 2, "velocity": 89}, {"time": 2504, "pitch": 61, "duration": 2, "velocity": 90}, {"time": 2510, "pitch": 45, "duration": 2, "velocity": 117}, {"time": 2510, "pitch": 52, "duration": 4, "velocity": 95}, {"time": 2510, "pitch": 57, "duration": 4, "velocity": 117}, {"time": 2510, "pitch": 61, "duration": 5, "velocity": 117}, {"time": 2516, "pitch": 52, "duration": 4, "velocity": 99}, {"time": 2522, "pitch": 38, "duration": 15, "velocity": 86}, {"time": 2522, "pitch": 45, "duration": 15, "velocity": 102}, {"time": 2522, "pitch": 50, "duration": 5, "velocity": 117}, {"time": 2522, "pitch": 54, "duration": 7, "velocity": 112}, {"time": 2522, "pitch": 57, "duration": 8, "velocity": 97}, {"time": 2528, "pitch": 50, "duration": 3, "velocity": 69}, {"time": 2534, "pitch": 50, "duration": 6, "velocity": 102}, {"time": 2534, "pitch": 54, "duration": 6, "velocity": 127}, {"time": 2534, "pitch": 57, "duration": 7, "velocity": 96}, {"time": 2540, "pitch": 38, "duration": 5, "velocity": 51}, {"time": 2540, "pitch": 45, "duration": 5, "velocity": 55}, {"time": 2543, "pitch": 50, "duration": 2, "velocity": 71}, {"time": 2543, "pitch": 54, "duration": 2, "velocity": 82}, {"time": 2543, "pitch": 57, "duration": 2, "velocity": 64}, {"time": 2546, "pitch": 38, "duration": 9, "velocity": 76}, {"time": 2546, "pitch": 45, "duration": 9, "velocity": 86}, {"time": 2546, "pitch": 50, "duration": 4, "velocity": 95}, {"time": 2546, "pitch": 54, "duration": 4, "velocity": 122}, {"time": 2546, "pitch": 57, "duration": 4, "velocity": 95}, {"time": 2552, "pitch": 50, "duration": 3, "velocity": 88}, {"time": 2552, "pitch": 54, "duration": 3, "velocity": 90}, {"time": 2552, "pitch": 57, "duration": 3, "velocity": 76}, {"time": 2558, "pitch": 38, "duration": 1, "velocity": 88}, {"time": 2558, "pitch": 45, "duration": 2, "velocity": 99}, {"time": 2558, "pitch": 50, "duration": 7, "velocity": 90}, {"time": 2558, "pitch": 54, "duration": 4, "velocity": 122}, {"time": 2558, "pitch": 57, "duration": 7, "velocity": 92}, {"time": 2564, "pitch": 54, "duration": 2, "velocity": 100}, {"time": 2570, "pitch": 33, "duration": 38, "velocity": 76}, {"time": 2570, "pitch": 45, "duration": 10, "velocity": 100}, {"time": 2570, "pitch": 52, "duration": 5, "velocity": 97}, {"time": 2570, "pitch": 57, "duration": 4, "velocity": 100}, {"time": 2570, "pitch": 61, "duration": 4, "velocity": 107}, {"time": 2576, "pitch": 52, "duration": 2, "velocity": 78}, {"time": 2576, "pitch": 57, "duration": 2, "velocity": 83}, {"time": 2576, "pitch": 61, "duration": 2, "velocity": 90}, {"time": 2579, "pitch": 57, "duration": 2, "velocity": 55}, {"time": 2579, "pitch": 61, "duration": 1, "velocity": 47}, {"time": 2582, "pitch": 45, "duration": 9, "velocity": 107}, {"time": 2582, "pitch": 57, "duration": 3, "velocity": 95}, {"time": 2582, "pitch": 61, "duration": 3, "velocity": 102}, {"time": 2588, "pitch": 57, "duration": 2, "velocity": 92}, {"time": 2588, "pitch": 61, "duration": 3, "velocity": 95}, {"time": 2591, "pitch": 52, "duration": 5, "velocity": 72}, {"time": 2594, "pitch": 45, "duration": 8, "velocity": 90}, {"time": 2594, "pitch": 57, "duration": 5, "velocity": 96}, {"time": 2594, "pitch": 61, "duration": 7, "velocity": 112}, {"time": 2600, "pitch": 52, "duration": 8, "velocity": 85}, {"time": 2606, "pitch": 45, "duration": 2, "velocity": 117}, {"time": 2606, "pitch": 57, "duration": 6, "velocity": 97}, {"time": 2606, "pitch": 61, "duration": 6, "velocity": 112}, {"time": 2612, "pitch": 52, "duration": 4, "velocity": 89}, {"time": 2618, "pitch": 40, "duration": 40, "velocity": 90}, {"time": 2618, "pitch": 47, "duration": 14, "velocity": 99}, {"time": 2618, "pitch": 52, "duration": 9, "velocity": 95}, {"time": 2618, "pitch": 56, "duration": 10, "velocity": 107}, {"time": 2618, "pitch": 59, "duration": 8, "velocity": 100}, {"time": 2624, "pitch": 44, "duration": 32, "velocity": 37}, {"time": 2630, "pitch": 52, "duration": 4, "velocity": 92}, {"time": 2630, "pitch": 56, "duration": 7, "velocity": 127}, {"time": 2630, "pitch": 59, "duration": 8, "velocity": 100}, {"time": 2636, "pitch": 47, "duration": 8, "velocity": 79}, {"time": 2636, "pitch": 52, "duration": 2, "velocity": 35}, {"time": 2639, "pitch": 52, "duration": 2, "velocity": 52}, {"time": 2639, "pitch": 56, "duration": 2, "velocity": 63}, {"time": 2639, "pitch": 59, "duration": 2, "velocity": 59}, {"time": 2642, "pitch": 52, "duration": 9, "velocity": 95}, {"time": 2642, "pitch": 56, "duration": 9, "velocity": 112}, {"time": 2642, "pitch": 59, "duration": 8, "velocity": 99}, {"time": 2648, "pitch": 47, "duration": 6, "velocity": 79}, {"time": 2654, "pitch": 56, "duration": 7, "velocity": 127}, {"time": 2654, "pitch": 59, "duration": 6, "velocity": 102}, {"time": 2657, "pitch": 47, "duration": 2, "velocity": 76}, {"time": 2660, "pitch": 52, "duration": 4, "velocity": 88}, {"time": 2666, "pitch": 33, "duration": 42, "velocity": 69}, {"time": 2666, "pitch": 45, "duration": 10, "velocity": 102}, {"time": 2666, "pitch": 52, "duration": 5, "velocity": 97}, {"time": 2666, "pitch": 57, "duration": 5, "velocity": 117}, {"time": 2666, "pitch": 61, "duration": 5, "velocity": 117}, {"time": 2672, "pitch": 52, "duration": 2, "velocity": 51}, {"time": 2672, "pitch": 57, "duration": 2, "velocity": 70}, {"time": 2672, "pitch": 61, "duration": 2, "velocity": 72}, {"time": 2675, "pitch": 57, "duration": 2, "velocity": 45}, {"time": 2675, "pitch": 61, "duration": 1, "velocity": 32}, {"time": 2678, "pitch": 45, "duration": 10, "velocity": 100}, {"time": 2678, "pitch": 52, "duration": 2, "velocity": 96}, {"time": 2678, "pitch": 57, "duration": 3, "velocity": 100}, {"time": 2678, "pitch": 61, "duration": 3, "velocity": 100}, {"time": 2684, "pitch": 52, "duration": 1, "velocity": 68}, {"time": 2684, "pitch": 57, "duration": 2, "velocity": 78}, {"time": 2684, "pitch": 61, "duration": 1, "velocity": 77}, {"time": 2687, "pitch": 52, "duration": 4, "velocity": 82}, {"time": 2687, "pitch": 57, "duration": 4, "velocity": 102}, {"time": 2687, "pitch": 61, "duration": 4, "velocity": 107}, {"time": 2690, "pitch": 45, "duration": 6, "velocity": 92}, {"time": 2693, "pitch": 57, "duration": 7, "velocity": 99}, {"time": 2693, "pitch": 61, "duration": 7, "velocity": 100}, {"time": 2699, "pitch": 45, "duration": 5, "velocity": 96}, {"time": 2702, "pitch": 57, "duration": 8, "velocity": 97}, {"time": 2702, "pitch": 61, "duration": 9, "velocity": 102}, {"time": 2705, "pitch": 45, "duration": 7, "velocity": 76}, {"time": 2708, "pitch": 52, "duration": 5, "velocity": 74}, {"time": 2714, "pitch": 33, "duration": 35, "velocity": 64}, {"time": 2714, "pitch": 45, "duration": 38, "velocity": 100}, {"time": 2714, "pitch": 57, "duration": 8, "velocity": 99}, {"time": 2714, "pitch": 61, "duration": 8, "velocity": 99}, {"time": 2720, "pitch": 52, "duration": 7, "velocity": 66}, {"time": 2726, "pitch": 57, "duration": 7, "velocity": 83}, {"time": 2726, "pitch": 61, "duration": 8, "velocity": 92}, {"time": 2732, "pitch": 52, "duration": 7, "velocity": 69}, {"time": 2738, "pitch": 57, "duration": 8, "velocity": 81}, {"time": 2738, "pitch": 61, "duration": 8, "velocity": 90}, {"time": 2744, "pitch": 52, "duration": 7, "velocity": 69}, {"time": 2750, "pitch": 57, "duration": 6, "velocity": 79}, {"time": 2750, "pitch": 61, "duration": 7, "velocity": 92}, {"time": 2756, "pitch": 52, "duration": 8, "velocity": 70}, {"time": 2762, "pitch": 37, "duration": 31, "velocity": 69}, {"time": 2762, "pitch": 49, "duration": 30, "velocity": 67}, {"time": 2762, "pitch": 56, "duration": 7, "velocity": 96}, {"time": 2762, "pitch": 61, "duration": 8, "velocity": 99}, {"time": 2768, "pitch": 52, "duration": 8, "velocity": 72}, {"time": 2774, "pitch": 56, "duration": 7, "velocity": 79}, {"time": 2774, "pitch": 61, "duration": 7, "velocity": 88}, {"time": 2780, "pitch": 52, "duration": 7, "velocity": 62}, {"time": 2786, "pitch": 56, "duration": 8, "velocity": 68}, {"time": 2786, "pitch": 61, "duration": 8, "velocity": 81}, {"time": 2792, "pitch": 52, "duration": 7, "velocity": 75}, {"time": 2798, "pitch": 56, "duration": 7, "velocity": 100}, {"time": 2798, "pitch": 61, "duration": 6, "velocity": 102}, {"time": 2804, "pitch": 52, "duration": 7, "velocity": 86}, {"time": 2810, "pitch": 33, "duration": 30, "velocity": 63}, {"time": 2810, "pitch": 45, "duration": 31, "velocity": 81}, {"time": 2810, "pitch": 57, "duration": 8, "velocity": 92}, {"time": 2810, "pitch": 61, "duration": 9, "velocity": 100}, {"time": 2816, "pitch": 52, "duration": 7, "velocity": 69}, {"time": 2822, "pitch": 57, "duration": 8, "velocity": 89}, {"time": 2822, "pitch": 61, "duration": 7, "velocity": 93}, {"time": 2828, "pitch": 52, "duration": 8, "velocity": 59}, {"time": 2834, "pitch": 57, "duration": 8, "velocity": 69}, {"time": 2834, "pitch": 61, "duration": 8, "velocity": 78}, {"time": 2840, "pitch": 52, "duration": 8, "velocity": 57}, {"time": 2846, "pitch": 57, "duration": 6, "velocity": 86}, {"time": 2846, "pitch": 61, "duration": 7, "velocity": 100}, {"time": 2852, "pitch": 52, "duration": 7, "velocity": 73}, {"time": 2858, "pitch": 37, "duration": 34, "velocity": 63}, {"time": 2858, "pitch": 49, "duration": 33, "velocity": 68}, {"time": 2858, "pitch": 56, "duration": 7, "velocity": 93}, {"time": 2858, "pitch": 61, "duration": 8, "velocity": 100}, {"time": 2864, "pitch": 52, "duration": 7, "velocity": 73}, {"time": 2870, "pitch": 56, "duration": 7, "velocity": 83}, {"time": 2870, "pitch": 61, "duration": 8, "velocity": 90}, {"time": 2876, "pitch": 52, "duration": 7, "velocity": 58}, {"time": 2882, "pitch": 56, "duration": 8, "velocity": 72}, {"time": 2882, "pitch": 61, "duration": 9, "velocity": 79}, {"time": 2888, "pitch": 52, "duration": 6, "velocity": 55}, {"time": 2894, "pitch": 56, "duration": 7, "velocity": 77}, {"time": 2894, "pitch": 61, "duration": 6, "velocity": 112}, {"time": 2900, "pitch": 52, "duration": 6, "velocity": 86}, {"time": 2906, "pitch": 38, "duration": 39, "velocity": 61}, {"time": 2906, "pitch": 45, "duration": 41, "velocity": 70}, {"time": 2906, "pitch": 54, "duration": 8, "velocity": 93}, {"time": 2906, "pitch": 57, "duration": 7, "velocity": 90}, {"time": 2912, "pitch": 50, "duration": 7, "velocity": 63}, {"time": 2918, "pitch": 54, "duration": 7, "velocity": 90}, {"time": 2918, "pitch": 57, "duration": 7, "velocity": 86}, {"time": 2924, "pitch": 50, "duration": 7, "velocity": 56}, {"time": 2930, "pitch": 54, "duration": 7, "velocity": 89}, {"time": 2930, "pitch": 57, "duration": 8, "velocity": 89}, {"time": 2936, "pitch": 50, "duration": 8, "velocity": 55}, {"time": 2942, "pitch": 54, "duration": 6, "velocity": 88}, {"time": 2942, "pitch": 57, "duration": 6, "velocity": 89}, {"time": 2948, "pitch": 50, "duration": 7, "velocity": 82}, {"time": 2954, "pitch": 45, "duration": 46, "velocity": 82}, {"time": 2954, "pitch": 57, "duration": 7, "velocity": 90}, {"time": 2954, "pitch": 61, "duration": 8, "velocity": 97}, {"time": 2960, "pitch": 52, "duration": 7, "velocity": 68}, {"time": 2966, "pitch": 57, "duration": 7, "velocity": 77}, {"time": 2966, "pitch": 61, "duration": 8, "velocity": 88}, {"time": 2972, "pitch": 52, "duration": 7, "velocity": 58}, {"time": 2978, "pitch": 57, "duration": 8, "velocity": 74}, {"time": 2978, "pitch": 61, "duration": 9, "velocity": 73}, {"time": 2984, "pitch": 52, "duration": 8, "velocity": 69}, {"time": 2990, "pitch": 57, "duration": 7, "velocity": 92}, {"time": 2990, "pitch": 61, "duration": 7, "velocity": 99}, {"time": 2996, "pitch": 52, "duration": 6, "velocity": 78}, {"time": 3002, "pitch": 40, "duration": 23, "velocity": 88}, {"time": 3002, "pitch": 52, "duration": 1, "velocity": 83}, {"time": 3002, "pitch": 28, "duration": 22, "velocity": 70}, {"time": 3002, "pitch": 56, "duration": 11, "velocity": 88}, {"time": 3002, "pitch": 59, "duration": 11, "velocity": 82}, {"time": 3015, "pitch": 56, "duration": 9, "velocity": 89}, {"time": 3015, "pitch": 52, "duration": 10, "velocity": 79}, {"time": 3015, "pitch": 59, "duration": 9, "velocity": 77}, {"time": 3026, "pitch": 40, "duration": 20, "velocity": 69}, {"time": 3026, "pitch": 28, "duration": 14, "velocity": 63}, {"time": 3026, "pitch": 52, "duration": 20, "velocity": 75}, {"time": 3026, "pitch": 56, "duration": 20, "velocity": 90}, {"time": 3026, "pitch": 59, "duration": 20, "velocity": 78}, {"time": 3048, "pitch": 52, "duration": 13, "velocity": 75}, {"time": 3049, "pitch": 33, "duration": 8, "velocity": 49}, {"time": 3049, "pitch": 57, "duration": 12, "velocity": 77}, {"time": 3051, "pitch": 61, "duration": 12, "velocity": 93}, {"time": 3052, "pitch": 45, "duration": 6, "velocity": 52}, {"time": 3060, "pitch": 45, "duration": 73, "velocity": 41}, {"time": 3062, "pitch": 49, "duration": 69, "velocity": 34}, {"time": 3065, "pitch": 52, "duration": 66, "velocity": 75}, {"time": 3067, "pitch": 57, "duration": 9, "velocity": 78}, {"time": 3070, "pitch": 61, "duration": 6, "velocity": 86}, {"time": 3073, "pitch": 64, "duration": 3, "velocity": 77}, {"time": 3076, "pitch": 68, "duration": 2, "velocity": 74}, {"time": 3080, "pitch": 69, "duration": 8, "velocity": 57}, {"time": 3083, "pitch": 73, "duration": 7, "velocity": 69}, {"time": 3087, "pitch": 76, "duration": 4, "velocity": 73}, {"time": 3090, "pitch": 80, "duration": 2, "velocity": 76}, {"time": 3094, "pitch": 81, "duration": 7, "velocity": 61}, {"time": 3097, "pitch": 85, "duration": 4, "velocity": 57}, {"time": 3101, "pitch": 88, "duration": 1, "velocity": 59}, {"time": 3105, "pitch": 92, "duration": 6, "velocity": 95}, {"time": 3110, "pitch": 93, "duration": 2, "velocity": 61}, {"time": 3119, "pitch": 93, "duration": 13, "velocity": 38}, {"time": 3119, "pitch": 97, "duration": 12, "velocity": 60}, {"time": 3120, "pitch": 100, "duration": 12, "velocity": 66}, {"time": 3143, "pitch": 33, "duration": 19, "velocity": 56}], "annotations": [{"time": 414, "annotation": {"number": 64, "value": 127}, "group": "control_change"}, {"time": 455, "annotation": {"number": 64, "value": 0}, "group": "control_change"}, {"time": 459, "annotation": {"number": 64, "value": 127}, "group": "control_change"}, {"time": 504, "annotation": {"number": 64, "value": 0}, "group": "control_change"}, {"time": 507, "annotation": {"number": 64, "value": 127}, "group": "control_change"}, {"time": 550, "annotation": {"number": 64, "value": 0}, "group": "control_change"}, {"time": 554, "annotation": {"number": 64, "value": 127}, "group": "control_change"}, {"time": 600, "annotation": {"number": 64, "value": 0}, "group": "control_change"}, {"time": 602, "annotation": {"number": 64, "value": 127}, "group": "control_change"}, {"time": 648, "annotation": {"number": 64, "value": 0}, "group": "control_change"}, {"time": 656, "annotation": {"number": 64, "value": 127}, "group": "control_change"}, {"time": 695, "annotation": {"number": 64, "value": 0}, "group": "control_change"}, {"time": 699, "annotation": {"number": 64, "value": 127}, "group": "control_change"}, {"time": 743, "annotation": {"number": 64, "value": 0}, "group": "control_change"}, {"time": 747, "annotation": {"number": 64, "value": 127}, "group": "control_change"}, {"time": 790, "annotation": {"number": 64, "value": 0}, "group": "control_change"}, {"time": 806, "annotation": {"number": 64, "value": 127}, "group": "control_change"}, {"time": 839, "annotation": {"number": 64, "value": 0}, "group": "control_change"}, {"time": 843, "annotation": {"number": 64, "value": 127}, "group": "control_change"}, {"time": 887, "annotation": {"number": 64, "value": 0}, "group": "control_change"}, {"time": 892, "annotation": {"number": 64, "value": 127}, "group": "control_change"}, {"time": 912, "annotation": {"number": 64, "value": 0}, "group": "control_change"}, {"time": 915, "annotation": {"number": 64, "value": 127}, "group": "control_change"}, {"time": 935, "annotation": {"number": 64, "value": 0}, "group": "control_change"}, {"time": 939, "annotation": {"number": 64, "value": 127}, "group": "control_change"}, {"time": 984, "annotation": {"number": 64, "value": 0}, "group": "control_change"}, {"time": 987, "annotation": {"number": 64, "value": 127}, "group": "control_change"}, {"time": 1032, "annotation": {"number": 64, "value": 0}, "group": "control_change"}, {"time": 1035, "annotation": {"number": 64, "value": 127}, "group": "control_change"}, {"time": 1080, "annotation": {"number": 64, "value": 0}, "group": "control_change"}, {"time": 1084, "annotation": {"number": 64, "value": 127}, "group": "control_change"}, {"time": 1127, "annotation": {"number": 64, "value": 0}, "group": "control_change"}, {"time": 1131, "annotation": {"number": 64, "value": 127}, "group": "control_change"}, {"time": 1175, "annotation": {"number": 64, "value": 0}, "group": "control_change"}, {"time": 1180, "annotation": {"number": 64, "value": 127}, "group": "control_change"}, {"time": 1188, "annotation": {"number": 64, "value": 0}, "group": "control_change"}, {"time": 1191, "annotation": {"number": 64, "value": 127}, "group": "control_change"}, {"time": 1224, "annotation": {"number": 64, "value": 0}, "group": "control_change"}, {"time": 1227, "annotation": {"number": 64, "value": 127}, "group": "control_change"}, {"time": 1272, "annotation": {"number": 64, "value": 0}, "group": "control_change"}, {"time": 1275, "annotation": {"number": 64, "value": 127}, "group": "control_change"}, {"time": 1296, "annotation": {"number": 64, "value": 0}, "group": "control_change"}, {"time": 1299, "annotation": {"number": 64, "value": 127}, "group": "control_change"}, {"time": 1320, "annotation": {"number": 64, "value": 0}, "group": "control_change"}, {"time": 1322, "annotation": {"number": 64, "value": 127}, "group": "control_change"}, {"time": 1332, "annotation": {"number": 64, "value": 0}, "group": "control_change"}, {"time": 1334, "annotation": {"number": 64, "value": 127}, "group": "control_change"}, {"time": 1368, "annotation": {"number": 64, "value": 0}, "group": "control_change"}, {"time": 1371, "annotation": {"number": 64, "value": 127}, "group": "control_change"}, {"time": 1416, "annotation": {"number": 64, "value": 0}, "group": "control_change"}, {"time": 1419, "annotation": {"number": 64, "value": 127}, "group": "control_change"}, {"time": 1440, "annotation": {"number": 64, "value": 0}, "group": "control_change"}, {"time": 1443, "annotation": {"number": 64, "value": 127}, "group": "control_change"}, {"time": 1462, "annotation": {"number": 64, "value": 0}, "group": "control_change"}, {"time": 1466, "annotation": {"number": 64, "value": 127}, "group": "control_change"}, {"time": 1487, "annotation": {"number": 64, "value": 0}, "group": "control_change"}, {"time": 1491, "annotation": {"number": 64, "value": 127}, "group": "control_change"}, {"time": 1511, "annotation": {"number": 64, "value": 0}, "group": "control_change"}, {"time": 1514, "annotation": {"number": 64, "value": 127}, "group": "control_change"}, {"time": 1558, "annotation": {"number": 64, "value": 0}, "group": "control_change"}, {"time": 1562, "annotation": {"number": 64, "value": 127}, "group": "control_change"}, {"time": 1570, "annotation": {"number": 64, "value": 0}, "group": "control_change"}, {"time": 1572, "annotation": {"number": 64, "value": 127}, "group": "control_change"}, {"time": 1608, "annotation": {"number": 64, "value": 0}, "group": "control_change"}, {"time": 1610, "annotation": {"number": 64, "value": 127}, "group": "control_change"}, {"time": 1656, "annotation": {"number": 64, "value": 0}, "group": "control_change"}, {"time": 1659, "annotation": {"number": 64, "value": 127}, "group": "control_change"}, {"time": 1703, "annotation": {"number": 64, "value": 0}, "group": "control_change"}, {"time": 1706, "annotation": {"number": 64, "value": 127}, "group": "control_change"}, {"time": 1752, "annotation": {"number": 64, "value": 0}, "group": "control_change"}, {"time": 1755, "annotation": {"number": 64, "value": 127}, "group": "control_change"}, {"time": 1801, "annotation": {"number": 64, "value": 0}, "group": "control_change"}, {"time": 1805, "annotation": {"number": 64, "value": 127}, "group": "control_change"}, {"time": 1847, "annotation": {"number": 64, "value": 0}, "group": "control_change"}, {"time": 1851, "annotation": {"number": 64, "value": 127}, "group": "control_change"}, {"time": 1895, "annotation": {"number": 64, "value": 0}, "group": "control_change"}, {"time": 1899, "annotation": {"number": 64, "value": 127}, "group": "control_change"}, {"time": 1944, "annotation": {"number": 64, "value": 0}, "group": "control_change"}, {"time": 1947, "annotation": {"number": 64, "value": 127}, "group": "control_change"}, {"time": 1991, "annotation": {"number": 64, "value": 0}, "group": "control_change"}, {"time": 1994, "annotation": {"number": 64, "value": 127}, "group": "control_change"}, {"time": 2016, "annotation": {"number": 64, "value": 0}, "group": "control_change"}, {"time": 2019, "annotation": {"number": 64, "value": 127}, "group": "control_change"}, {"time": 2040, "annotation": {"number": 64, "value": 0}, "group": "control_change"}, {"time": 2044, "annotation": {"number": 64, "value": 127}, "group": "control_change"}, {"time": 2088, "annotation": {"number": 64, "value": 0}, "group": "control_change"}, {"time": 2090, "annotation": {"number": 64, "value": 127}, "group": "control_change"}, {"time": 2136, "annotation": {"number": 64, "value": 0}, "group": "control_change"}, {"time": 2139, "annotation": {"number": 64, "value": 127}, "group": "control_change"}, {"time": 2184, "annotation": {"number": 64, "value": 0}, "group": "control_change"}, {"time": 2186, "annotation": {"number": 64, "value": 127}, "group": "control_change"}, {"time": 2232, "annotation": {"number": 64, "value": 0}, "group": "control_change"}, {"time": 2235, "annotation": {"number": 64, "value": 127}, "group": "control_change"}, {"time": 2280, "annotation": {"number": 64, "value": 0}, "group": "control_change"}, {"time": 2284, "annotation": {"number": 64, "value": 127}, "group": "control_change"}, {"time": 2327, "annotation": {"number": 64, "value": 0}, "group": "control_change"}, {"time": 2332, "annotation": {"number": 64, "value": 127}, "group": "control_change"}, {"time": 2340, "annotation": {"number": 64, "value": 0}, "group": "control_change"}, {"time": 2343, "annotation": {"number": 64, "value": 127}, "group": "control_change"}, {"time": 2376, "annotation": {"number": 64, "value": 0}, "group": "control_change"}, {"time": 2379, "annotation": {"number": 64, "value": 127}, "group": "control_change"}, {"time": 2424, "annotation": {"number": 64, "value": 0}, "group": "control_change"}, {"time": 2427, "annotation": {"number": 64, "value": 127}, "group": "control_change"}, {"time": 2448, "annotation": {"number": 64, "value": 0}, "group": "control_change"}, {"time": 2451, "annotation": {"number": 64, "value": 127}, "group": "control_change"}, {"time": 2472, "annotation": {"number": 64, "value": 0}, "group": "control_change"}, {"time": 2474, "annotation": {"number": 64, "value": 127}, "group": "control_change"}, {"time": 2484, "annotation": {"number": 64, "value": 0}, "group": "control_change"}, {"time": 2486, "annotation": {"number": 64, "value": 127}, "group": "control_change"}, {"time": 2520, "annotation": {"number": 64, "value": 0}, "group": "control_change"}, {"time": 2523, "annotation": {"number": 64, "value": 127}, "group": "control_change"}, {"time": 2568, "annotation": {"number": 64, "value": 0}, "group": "control_change"}, {"time": 2571, "annotation": {"number": 64, "value": 127}, "group": "control_change"}, {"time": 2592, "annotation": {"number": 64, "value": 0}, "group": "control_change"}, {"time": 2595, "annotation": {"number": 64, "value": 127}, "group": "control_change"}, {"time": 2614, "annotation": {"number": 64, "value": 0}, "group": "control_change"}, {"time": 2618, "annotation": {"number": 64, "value": 127}, "group": "control_change"}, {"time": 2639, "annotation": {"number": 64, "value": 0}, "group": "control_change"}, {"time": 2643, "annotation": {"number": 64, "value": 127}, "group": "control_change"}, {"time": 2663, "annotation": {"number": 64, "value": 0}, "group": "control_change"}, {"time": 2666, "annotation": {"number": 64, "value": 127}, "group": "control_change"}, {"time": 2710, "annotation": {"number": 64, "value": 0}, "group": "control_change"}, {"time": 2714, "annotation": {"number": 64, "value": 127}, "group": "control_change"}, {"time": 2722, "annotation": {"number": 64, "value": 0}, "group": "control_change"}, {"time": 2724, "annotation": {"number": 64, "value": 127}, "group": "control_change"}, {"time": 2760, "annotation": {"number": 64, "value": 0}, "group": "control_change"}, {"time": 2762, "annotation": {"number": 64, "value": 127}, "group": "control_change"}, {"time": 2808, "annotation": {"number": 64, "value": 0}, "group": "control_change"}, {"time": 2811, "annotation": {"number": 64, "value": 127}, "group": "control_change"}, {"time": 2855, "annotation": {"number": 64, "value": 0}, "group": "control_change"}, {"time": 2858, "annotation": {"number": 64, "value": 127}, "group": "control_change"}, {"time": 2904, "annotation": {"number": 64, "value": 0}, "group": "control_change"}, {"time": 2907, "annotation": {"number": 64, "value": 127}, "group": "control_change"}, {"time": 2953, "annotation": {"number": 64, "value": 0}, "group": "control_change"}, {"time": 2957, "annotation": {"number": 64, "value": 127}, "group": "control_change"}, {"time": 2999, "annotation": {"number": 64, "value": 0}, "group": "control_change"}, {"time": 3003, "annotation": {"number": 64, "value": 127}, "group": "control_change"}, {"time": 3025, "annotation": {"number": 64, "value": 0}, "group": "control_change"}, {"time": 3052, "annotation": {"number": 64, "value": 127}, "group": "control_change"}, {"time": 3179, "annotation": {"number": 64, "value": 0}, "group": "control_change"}]}]}