{"metadata": {"schema_version": "0.2", "title": "None", "source_filename": "175.mid", "source_format": "midi"}, "resolution": 12, "tempos": [{"time": 0, "qpm": 57.000031350017245}, {"time": 216, "qpm": 53.000022083342536}, {"time": 228, "qpm": 55.99997760000896}, {"time": 276, "qpm": 57.000031350017245}, {"time": 732, "qpm": 57.20000266933346}, {"time": 1128, "qpm": 57.000031350017245}, {"time": 1644, "qpm": 56.800001514666704}, {"time": 1764, "qpm": 57.000031350017245}], "time_signatures": [{"time": 0, "numerator": 1, "denominator": 4}], "tracks": [{"program": 4, "is_drum": false, "name": "MELODY", "notes": [{"time": 227, "pitch": 68, "duration": 1, "velocity": 102}, {"time": 230, "pitch": 68, "duration": 1, "velocity": 64}, {"time": 233, "pitch": 68, "duration": 7, "velocity": 92}, {"time": 239, "pitch": 66, "duration": 2, "velocity": 63}, {"time": 245, "pitch": 66, "duration": 16, "velocity": 90}, {"time": 263, "pitch": 61, "duration": 2, "velocity": 102}, {"time": 266, "pitch": 63, "duration": 2, "velocity": 79}, {"time": 269, "pitch": 64, "duration": 6, "velocity": 93}, {"time": 281, "pitch": 64, "duration": 4, "velocity": 97}, {"time": 287, "pitch": 66, "duration": 4, "velocity": 100}, {"time": 293, "pitch": 63, "duration": 22, "velocity": 85}, {"time": 314, "pitch": 56, "duration": 2, "velocity": 81}, {"time": 317, "pitch": 61, "duration": 5, "velocity": 96}, {"time": 323, "pitch": 63, "duration": 2, "velocity": 92}, {"time": 326, "pitch": 64, "duration": 13, "velocity": 85}, {"time": 338, "pitch": 56, "duration": 3, "velocity": 82}, {"time": 341, "pitch": 61, "duration": 6, "velocity": 99}, {"time": 347, "pitch": 63, "duration": 2, "velocity": 93}, {"time": 350, "pitch": 64, "duration": 12, "velocity": 95}, {"time": 365, "pitch": 68, "duration": 4, "velocity": 117}, {"time": 371, "pitch": 68, "duration": 1, "velocity": 100}, {"time": 374, "pitch": 68, "duration": 4, "velocity": 99}, {"time": 380, "pitch": 66, "duration": 2, "velocity": 102}, {"time": 386, "pitch": 66, "duration": 27, "velocity": 97}, {"time": 419, "pitch": 68, "duration": 1, "velocity": 92}, {"time": 422, "pitch": 68, "duration": 1, "velocity": 92}, {"time": 425, "pitch": 68, "duration": 5, "velocity": 117}, {"time": 431, "pitch": 71, "duration": 2, "velocity": 75}, {"time": 434, "pitch": 71, "duration": 6, "velocity": 96}, {"time": 440, "pitch": 73, "duration": 14, "velocity": 78}, {"time": 455, "pitch": 70, "duration": 3, "velocity": 122}, {"time": 458, "pitch": 71, "duration": 3, "velocity": 85}, {"time": 461, "pitch": 73, "duration": 6, "velocity": 102}, {"time": 467, "pitch": 73, "duration": 1, "velocity": 112}, {"time": 470, "pitch": 73, "duration": 7, "velocity": 112}, {"time": 479, "pitch": 70, "duration": 5, "velocity": 117}, {"time": 485, "pitch": 73, "duration": 6, "velocity": 102}, {"time": 491, "pitch": 71, "duration": 9, "velocity": 97}, {"time": 503, "pitch": 61, "duration": 3, "velocity": 96}, {"time": 506, "pitch": 63, "duration": 2, "velocity": 85}, {"time": 509, "pitch": 64, "duration": 6, "velocity": 97}, {"time": 515, "pitch": 66, "duration": 3, "velocity": 92}, {"time": 518, "pitch": 68, "duration": 11, "velocity": 96}, {"time": 530, "pitch": 66, "duration": 2, "velocity": 97}, {"time": 533, "pitch": 68, "duration": 5, "velocity": 107}, {"time": 539, "pitch": 71, "duration": 6, "velocity": 89}, {"time": 545, "pitch": 75, "duration": 6, "velocity": 112}, {"time": 557, "pitch": 71, "duration": 6, "velocity": 112}, {"time": 563, "pitch": 73, "duration": 23, "velocity": 112}, {"time": 596, "pitch": 71, "duration": 3, "velocity": 83}, {"time": 599, "pitch": 73, "duration": 2, "velocity": 107}, {"time": 602, "pitch": 78, "duration": 3, "velocity": 99}, {"time": 605, "pitch": 75, "duration": 7, "velocity": 112}, {"time": 611, "pitch": 73, "duration": 1, "velocity": 90}, {"time": 614, "pitch": 73, "duration": 3, "velocity": 102}, {"time": 620, "pitch": 71, "duration": 5, "velocity": 95}, {"time": 626, "pitch": 73, "duration": 14, "velocity": 107}, {"time": 644, "pitch": 70, "duration": 1, "velocity": 122}, {"time": 647, "pitch": 70, "duration": 2, "velocity": 107}, {"time": 650, "pitch": 71, "duration": 2, "velocity": 93}, {"time": 653, "pitch": 73, "duration": 7, "velocity": 112}, {"time": 659, "pitch": 73, "duration": 1, "velocity": 97}, {"time": 662, "pitch": 73, "duration": 4, "velocity": 102}, {"time": 668, "pitch": 70, "duration": 5, "velocity": 102}, {"time": 671, "pitch": 73, "duration": 5, "velocity": 112}, {"time": 677, "pitch": 71, "duration": 12, "velocity": 100}, {"time": 692, "pitch": 71, "duration": 3, "velocity": 83}, {"time": 695, "pitch": 73, "duration": 2, "velocity": 117}, {"time": 698, "pitch": 78, "duration": 3, "velocity": 99}, {"time": 701, "pitch": 75, "duration": 5, "velocity": 100}, {"time": 707, "pitch": 73, "duration": 1, "velocity": 93}, {"time": 710, "pitch": 73, "duration": 1, "velocity": 99}, {"time": 713, "pitch": 73, "duration": 4, "velocity": 112}, {"time": 719, "pitch": 66, "duration": 5, "velocity": 112}, {"time": 725, "pitch": 75, "duration": 5, "velocity": 122}, {"time": 731, "pitch": 73, "duration": 2, "velocity": 95}, {"time": 734, "pitch": 73, "duration": 4, "velocity": 112}, {"time": 740, "pitch": 66, "duration": 3, "velocity": 99}, {"time": 746, "pitch": 75, "duration": 26, "velocity": 122}, {"time": 788, "pitch": 71, "duration": 2, "velocity": 93}, {"time": 791, "pitch": 73, "duration": 2, "velocity": 102}, {"time": 794, "pitch": 78, "duration": 2, "velocity": 100}, {"time": 797, "pitch": 75, "duration": 6, "velocity": 102}, {"time": 803, "pitch": 73, "duration": 2, "velocity": 99}, {"time": 806, "pitch": 73, "duration": 3, "velocity": 107}, {"time": 812, "pitch": 71, "duration": 3, "velocity": 89}, {"time": 818, "pitch": 73, "duration": 15, "velocity": 102}, {"time": 836, "pitch": 71, "duration": 2, "velocity": 85}, {"time": 839, "pitch": 70, "duration": 2, "velocity": 102}, {"time": 842, "pitch": 71, "duration": 2, "velocity": 88}, {"time": 845, "pitch": 78, "duration": 6, "velocity": 100}, {"time": 854, "pitch": 78, "duration": 9, "velocity": 117}, {"time": 860, "pitch": 70, "duration": 4, "velocity": 96}, {"time": 866, "pitch": 73, "duration": 5, "velocity": 112}, {"time": 872, "pitch": 71, "duration": 9, "velocity": 92}, {"time": 884, "pitch": 71, "duration": 3, "velocity": 90}, {"time": 887, "pitch": 73, "duration": 2, "velocity": 112}, {"time": 890, "pitch": 78, "duration": 3, "velocity": 102}, {"time": 893, "pitch": 75, "duration": 7, "velocity": 107}, {"time": 899, "pitch": 73, "duration": 2, "velocity": 112}, {"time": 902, "pitch": 73, "duration": 4, "velocity": 112}, {"time": 908, "pitch": 71, "duration": 4, "velocity": 100}, {"time": 914, "pitch": 71, "duration": 5, "velocity": 100}, {"time": 920, "pitch": 70, "duration": 12, "velocity": 117}, {"time": 935, "pitch": 68, "duration": 3, "velocity": 100}, {"time": 938, "pitch": 70, "duration": 5, "velocity": 99}, {"time": 947, "pitch": 71, "duration": 23, "velocity": 99}, {"time": 980, "pitch": 71, "duration": 2, "velocity": 90}, {"time": 983, "pitch": 73, "duration": 2, "velocity": 122}, {"time": 986, "pitch": 78, "duration": 3, "velocity": 117}, {"time": 989, "pitch": 75, "duration": 5, "velocity": 117}, {"time": 995, "pitch": 73, "duration": 1, "velocity": 56}, {"time": 998, "pitch": 73, "duration": 4, "velocity": 127}, {"time": 1004, "pitch": 71, "duration": 4, "velocity": 107}, {"time": 1010, "pitch": 73, "duration": 15, "velocity": 127}, {"time": 1028, "pitch": 70, "duration": 1, "velocity": 117}, {"time": 1031, "pitch": 70, "duration": 2, "velocity": 97}, {"time": 1034, "pitch": 71, "duration": 3, "velocity": 92}, {"time": 1037, "pitch": 73, "duration": 4, "velocity": 127}, {"time": 1043, "pitch": 73, "duration": 1, "velocity": 122}, {"time": 1046, "pitch": 73, "duration": 4, "velocity": 122}, {"time": 1052, "pitch": 70, "duration": 4, "velocity": 127}, {"time": 1058, "pitch": 73, "duration": 6, "velocity": 127}, {"time": 1064, "pitch": 71, "duration": 10, "velocity": 127}, {"time": 1076, "pitch": 71, "duration": 2, "velocity": 93}, {"time": 1079, "pitch": 73, "duration": 2, "velocity": 122}, {"time": 1082, "pitch": 78, "duration": 3, "velocity": 102}, {"time": 1085, "pitch": 75, "duration": 6, "velocity": 107}, {"time": 1091, "pitch": 73, "duration": 1, "velocity": 72}, {"time": 1094, "pitch": 73, "duration": 6, "velocity": 127}, {"time": 1103, "pitch": 66, "duration": 5, "velocity": 117}, {"time": 1109, "pitch": 75, "duration": 5, "velocity": 127}, {"time": 1115, "pitch": 73, "duration": 2, "velocity": 127}, {"time": 1118, "pitch": 66, "duration": 3, "velocity": 112}, {"time": 1127, "pitch": 76, "duration": 8, "velocity": 117}, {"time": 1133, "pitch": 75, "duration": 18, "velocity": 127}, {"time": 1172, "pitch": 71, "duration": 2, "velocity": 92}, {"time": 1175, "pitch": 73, "duration": 2, "velocity": 122}, {"time": 1178, "pitch": 78, "duration": 4, "velocity": 102}, {"time": 1181, "pitch": 75, "duration": 5, "velocity": 127}, {"time": 1187, "pitch": 73, "duration": 1, "velocity": 67}, {"time": 1190, "pitch": 73, "duration": 4, "velocity": 122}, {"time": 1196, "pitch": 71, "duration": 3, "velocity": 99}, {"time": 1202, "pitch": 75, "duration": 7, "velocity": 122}, {"time": 1208, "pitch": 73, "duration": 9, "velocity": 127}, {"time": 1220, "pitch": 70, "duration": 1, "velocity": 127}, {"time": 1223, "pitch": 70, "duration": 2, "velocity": 107}, {"time": 1226, "pitch": 71, "duration": 3, "velocity": 99}, {"time": 1229, "pitch": 78, "duration": 5, "velocity": 127}, {"time": 1235, "pitch": 78, "duration": 1, "velocity": 117}, {"time": 1238, "pitch": 78, "duration": 4, "velocity": 117}, {"time": 1244, "pitch": 70, "duration": 4, "velocity": 107}, {"time": 1250, "pitch": 73, "duration": 5, "velocity": 122}, {"time": 1256, "pitch": 71, "duration": 11, "velocity": 112}, {"time": 1268, "pitch": 71, "duration": 2, "velocity": 97}, {"time": 1271, "pitch": 73, "duration": 2, "velocity": 122}, {"time": 1274, "pitch": 78, "duration": 3, "velocity": 100}, {"time": 1277, "pitch": 75, "duration": 4, "velocity": 117}, {"time": 1283, "pitch": 73, "duration": 1, "velocity": 90}, {"time": 1286, "pitch": 73, "duration": 5, "velocity": 127}, {"time": 1292, "pitch": 71, "duration": 3, "velocity": 117}, {"time": 1301, "pitch": 71, "duration": 6, "velocity": 102}, {"time": 1307, "pitch": 70, "duration": 15, "velocity": 122}, {"time": 1325, "pitch": 68, "duration": 6, "velocity": 117}, {"time": 1331, "pitch": 70, "duration": 5, "velocity": 96}, {"time": 1337, "pitch": 71, "duration": 35, "velocity": 93}, {"time": 1748, "pitch": 73, "duration": 3, "velocity": 83}, {"time": 1751, "pitch": 75, "duration": 2, "velocity": 107}, {"time": 1754, "pitch": 80, "duration": 3, "velocity": 99}, {"time": 1757, "pitch": 77, "duration": 7, "velocity": 112}, {"time": 1763, "pitch": 75, "duration": 1, "velocity": 90}, {"time": 1766, "pitch": 75, "duration": 3, "velocity": 102}, {"time": 1772, "pitch": 73, "duration": 5, "velocity": 95}, {"time": 1778, "pitch": 75, "duration": 14, "velocity": 107}, {"time": 1796, "pitch": 72, "duration": 1, "velocity": 122}, {"time": 1799, "pitch": 72, "duration": 2, "velocity": 107}, {"time": 1802, "pitch": 73, "duration": 2, "velocity": 93}, {"time": 1805, "pitch": 75, "duration": 7, "velocity": 112}, {"time": 1811, "pitch": 75, "duration": 1, "velocity": 97}, {"time": 1814, "pitch": 75, "duration": 4, "velocity": 102}, {"time": 1820, "pitch": 72, "duration": 5, "velocity": 102}, {"time": 1823, "pitch": 75, "duration": 5, "velocity": 112}, {"time": 1829, "pitch": 73, "duration": 12, "velocity": 100}, {"time": 1844, "pitch": 73, "duration": 3, "velocity": 83}, {"time": 1847, "pitch": 75, "duration": 2, "velocity": 117}, {"time": 1850, "pitch": 80, "duration": 3, "velocity": 99}, {"time": 1853, "pitch": 77, "duration": 5, "velocity": 100}, {"time": 1859, "pitch": 75, "duration": 1, "velocity": 93}, {"time": 1862, "pitch": 75, "duration": 1, "velocity": 99}, {"time": 1865, "pitch": 75, "duration": 4, "velocity": 112}, {"time": 1871, "pitch": 68, "duration": 5, "velocity": 112}, {"time": 1877, "pitch": 77, "duration": 5, "velocity": 122}, {"time": 1883, "pitch": 75, "duration": 2, "velocity": 95}, {"time": 1886, "pitch": 75, "duration": 4, "velocity": 112}, {"time": 1892, "pitch": 68, "duration": 3, "velocity": 99}, {"time": 1898, "pitch": 77, "duration": 26, "velocity": 122}, {"time": 1940, "pitch": 73, "duration": 2, "velocity": 93}, {"time": 1943, "pitch": 75, "duration": 2, "velocity": 102}, {"time": 1946, "pitch": 80, "duration": 2, "velocity": 100}, {"time": 1949, "pitch": 77, "duration": 6, "velocity": 102}, {"time": 1955, "pitch": 75, "duration": 2, "velocity": 99}, {"time": 1958, "pitch": 75, "duration": 3, "velocity": 107}, {"time": 1964, "pitch": 73, "duration": 3, "velocity": 89}, {"time": 1970, "pitch": 75, "duration": 15, "velocity": 102}, {"time": 1988, "pitch": 73, "duration": 2, "velocity": 85}, {"time": 1991, "pitch": 72, "duration": 2, "velocity": 102}, {"time": 1994, "pitch": 73, "duration": 2, "velocity": 88}, {"time": 1997, "pitch": 80, "duration": 6, "velocity": 100}, {"time": 2006, "pitch": 80, "duration": 9, "velocity": 117}, {"time": 2012, "pitch": 72, "duration": 4, "velocity": 96}, {"time": 2018, "pitch": 75, "duration": 5, "velocity": 112}, {"time": 2024, "pitch": 73, "duration": 9, "velocity": 92}, {"time": 2036, "pitch": 73, "duration": 3, "velocity": 90}, {"time": 2039, "pitch": 75, "duration": 2, "velocity": 112}, {"time": 2042, "pitch": 80, "duration": 3, "velocity": 102}, {"time": 2045, "pitch": 77, "duration": 7, "velocity": 107}, {"time": 2051, "pitch": 75, "duration": 2, "velocity": 112}, {"time": 2054, "pitch": 75, "duration": 4, "velocity": 112}, {"time": 2060, "pitch": 73, "duration": 4, "velocity": 100}, {"time": 2066, "pitch": 73, "duration": 5, "velocity": 100}, {"time": 2072, "pitch": 72, "duration": 12, "velocity": 117}, {"time": 2087, "pitch": 70, "duration": 3, "velocity": 100}, {"time": 2090, "pitch": 72, "duration": 5, "velocity": 99}, {"time": 2093, "pitch": 75, "duration": 6, "velocity": 117}, {"time": 2099, "pitch": 73, "duration": 8, "velocity": 117}, {"time": 2108, "pitch": 75, "duration": 2, "velocity": 127}, {"time": 2111, "pitch": 73, "duration": 2, "velocity": 127}, {"time": 2114, "pitch": 77, "duration": 17, "velocity": 127}, {"time": 2132, "pitch": 73, "duration": 2, "velocity": 90}, {"time": 2135, "pitch": 75, "duration": 2, "velocity": 122}, {"time": 2138, "pitch": 80, "duration": 3, "velocity": 117}, {"time": 2141, "pitch": 77, "duration": 5, "velocity": 117}, {"time": 2147, "pitch": 75, "duration": 1, "velocity": 56}, {"time": 2150, "pitch": 75, "duration": 4, "velocity": 127}, {"time": 2156, "pitch": 73, "duration": 4, "velocity": 107}, {"time": 2162, "pitch": 75, "duration": 15, "velocity": 127}, {"time": 2180, "pitch": 72, "duration": 1, "velocity": 117}, {"time": 2183, "pitch": 72, "duration": 2, "velocity": 97}, {"time": 2186, "pitch": 73, "duration": 3, "velocity": 92}, {"time": 2189, "pitch": 75, "duration": 4, "velocity": 127}, {"time": 2195, "pitch": 75, "duration": 1, "velocity": 122}, {"time": 2198, "pitch": 75, "duration": 4, "velocity": 122}, {"time": 2204, "pitch": 72, "duration": 4, "velocity": 127}, {"time": 2210, "pitch": 75, "duration": 6, "velocity": 127}, {"time": 2216, "pitch": 73, "duration": 10, "velocity": 127}, {"time": 2228, "pitch": 73, "duration": 2, "velocity": 93}, {"time": 2231, "pitch": 75, "duration": 2, "velocity": 122}, {"time": 2234, "pitch": 80, "duration": 3, "velocity": 102}, {"time": 2237, "pitch": 77, "duration": 6, "velocity": 107}, {"time": 2243, "pitch": 75, "duration": 1, "velocity": 72}, {"time": 2246, "pitch": 75, "duration": 6, "velocity": 127}, {"time": 2255, "pitch": 68, "duration": 5, "velocity": 117}, {"time": 2261, "pitch": 77, "duration": 5, "velocity": 127}, {"time": 2267, "pitch": 75, "duration": 2, "velocity": 127}, {"time": 2270, "pitch": 68, "duration": 3, "velocity": 112}, {"time": 2279, "pitch": 78, "duration": 8, "velocity": 117}, {"time": 2285, "pitch": 77, "duration": 18, "velocity": 127}, {"time": 2324, "pitch": 73, "duration": 2, "velocity": 92}, {"time": 2327, "pitch": 75, "duration": 2, "velocity": 122}, {"time": 2330, "pitch": 80, "duration": 4, "velocity": 102}, {"time": 2333, "pitch": 77, "duration": 5, "velocity": 127}, {"time": 2339, "pitch": 75, "duration": 1, "velocity": 67}, {"time": 2342, "pitch": 75, "duration": 4, "velocity": 122}, {"time": 2348, "pitch": 73, "duration": 3, "velocity": 99}, {"time": 2354, "pitch": 77, "duration": 7, "velocity": 122}, {"time": 2360, "pitch": 75, "duration": 9, "velocity": 127}, {"time": 2372, "pitch": 72, "duration": 1, "velocity": 127}, {"time": 2375, "pitch": 72, "duration": 2, "velocity": 107}, {"time": 2378, "pitch": 73, "duration": 3, "velocity": 99}, {"time": 2381, "pitch": 80, "duration": 5, "velocity": 127}, {"time": 2387, "pitch": 80, "duration": 1, "velocity": 117}, {"time": 2390, "pitch": 80, "duration": 4, "velocity": 117}, {"time": 2396, "pitch": 72, "duration": 4, "velocity": 107}, {"time": 2402, "pitch": 75, "duration": 5, "velocity": 122}, {"time": 2408, "pitch": 73, "duration": 11, "velocity": 112}, {"time": 2420, "pitch": 73, "duration": 2, "velocity": 97}, {"time": 2423, "pitch": 75, "duration": 2, "velocity": 122}, {"time": 2426, "pitch": 80, "duration": 3, "velocity": 100}, {"time": 2429, "pitch": 77, "duration": 4, "velocity": 117}, {"time": 2435, "pitch": 75, "duration": 1, "velocity": 90}, {"time": 2438, "pitch": 75, "duration": 5, "velocity": 127}, {"time": 2444, "pitch": 73, "duration": 3, "velocity": 117}, {"time": 2453, "pitch": 73, "duration": 6, "velocity": 102}, {"time": 2459, "pitch": 72, "duration": 15, "velocity": 122}, {"time": 2477, "pitch": 70, "duration": 6, "velocity": 117}, {"time": 2483, "pitch": 72, "duration": 5, "velocity": 96}, {"time": 2489, "pitch": 73, "duration": 30, "velocity": 93}, {"time": 2516, "pitch": 73, "duration": 3, "velocity": 81}, {"time": 2519, "pitch": 75, "duration": 4, "velocity": 90}, {"time": 2523, "pitch": 80, "duration": 5, "velocity": 97}, {"time": 2527, "pitch": 77, "duration": 7, "velocity": 71}, {"time": 2534, "pitch": 75, "duration": 2, "velocity": 99}, {"time": 2537, "pitch": 75, "duration": 8, "velocity": 99}, {"time": 2549, "pitch": 73, "duration": 7, "velocity": 72}, {"time": 2555, "pitch": 72, "duration": 23, "velocity": 83}, {"time": 2574, "pitch": 70, "duration": 10, "velocity": 88}, {"time": 2584, "pitch": 72, "duration": 7, "velocity": 86}, {"time": 2592, "pitch": 73, "duration": 34, "velocity": 100}]}, {"program": 0, "is_drum": false, "name": "PIANO", "notes": [{"time": 29, "pitch": 59, "duration": 13, "velocity": 40}, {"time": 29, "pitch": 63, "duration": 13, "velocity": 40}, {"time": 29, "pitch": 66, "duration": 13, "velocity": 35}, {"time": 29, "pitch": 71, "duration": 12, "velocity": 39}, {"time": 53, "pitch": 55, "duration": 25, "velocity": 43}, {"time": 77, "pitch": 54, "duration": 12, "velocity": 58}, {"time": 83, "pitch": 63, "duration": 6, "velocity": 54}, {"time": 89, "pitch": 71, "duration": 12, "velocity": 69}, {"time": 101, "pitch": 53, "duration": 6, "velocity": 53}, {"time": 107, "pitch": 68, "duration": 12, "velocity": 63}, {"time": 113, "pitch": 61, "duration": 13, "velocity": 44}, {"time": 125, "pitch": 44, "duration": 23, "velocity": 90}, {"time": 125, "pitch": 56, "duration": 11, "velocity": 85}, {"time": 125, "pitch": 59, "duration": 10, "velocity": 77}, {"time": 125, "pitch": 63, "duration": 10, "velocity": 77}, {"time": 137, "pitch": 56, "duration": 1, "velocity": 44}, {"time": 137, "pitch": 59, "duration": 7, "velocity": 77}, {"time": 137, "pitch": 63, "duration": 7, "velocity": 102}, {"time": 143, "pitch": 56, "duration": 2, "velocity": 67}, {"time": 149, "pitch": 49, "duration": 23, "velocity": 67}, {"time": 149, "pitch": 61, "duration": 10, "velocity": 74}, {"time": 149, "pitch": 66, "duration": 10, "velocity": 81}, {"time": 149, "pitch": 68, "duration": 10, "velocity": 92}, {"time": 161, "pitch": 61, "duration": 12, "velocity": 76}, {"time": 161, "pitch": 66, "duration": 12, "velocity": 96}, {"time": 161, "pitch": 68, "duration": 12, "velocity": 95}, {"time": 173, "pitch": 50, "duration": 20, "velocity": 60}, {"time": 173, "pitch": 54, "duration": 22, "velocity": 69}, {"time": 173, "pitch": 58, "duration": 20, "velocity": 69}, {"time": 173, "pitch": 62, "duration": 11, "velocity": 86}, {"time": 173, "pitch": 66, "duration": 11, "velocity": 97}, {"time": 173, "pitch": 70, "duration": 11, "velocity": 93}, {"time": 185, "pitch": 62, "duration": 10, "velocity": 66}, {"time": 185, "pitch": 66, "duration": 9, "velocity": 67}, {"time": 185, "pitch": 70, "duration": 9, "velocity": 64}, {"time": 197, "pitch": 50, "duration": 24, "velocity": 32}, {"time": 197, "pitch": 54, "duration": 24, "velocity": 40}, {"time": 197, "pitch": 58, "duration": 24, "velocity": 38}, {"time": 197, "pitch": 62, "duration": 24, "velocity": 47}, {"time": 197, "pitch": 66, "duration": 24, "velocity": 59}, {"time": 197, "pitch": 70, "duration": 24, "velocity": 55}, {"time": 218, "pitch": 68, "duration": 21, "velocity": 36}, {"time": 221, "pitch": 52, "duration": 18, "velocity": 27}, {"time": 221, "pitch": 71, "duration": 20, "velocity": 37}, {"time": 221, "pitch": 75, "duration": 19, "velocity": 50}, {"time": 245, "pitch": 54, "duration": 23, "velocity": 38}, {"time": 245, "pitch": 66, "duration": 23, "velocity": 33}, {"time": 245, "pitch": 70, "duration": 23, "velocity": 39}, {"time": 245, "pitch": 73, "duration": 23, "velocity": 33}, {"time": 245, "pitch": 78, "duration": 23, "velocity": 36}, {"time": 268, "pitch": 73, "duration": 13, "velocity": 35}, {"time": 268, "pitch": 68, "duration": 12, "velocity": 39}, {"time": 269, "pitch": 49, "duration": 10, "velocity": 44}, {"time": 269, "pitch": 61, "duration": 11, "velocity": 33}, {"time": 269, "pitch": 64, "duration": 11, "velocity": 44}, {"time": 293, "pitch": 75, "duration": 14, "velocity": 44}, {"time": 293, "pitch": 71, "duration": 14, "velocity": 36}, {"time": 293, "pitch": 59, "duration": 15, "velocity": 37}, {"time": 293, "pitch": 78, "duration": 14, "velocity": 41}, {"time": 293, "pitch": 54, "duration": 16, "velocity": 37}, {"time": 293, "pitch": 47, "duration": 16, "velocity": 26}, {"time": 316, "pitch": 64, "duration": 11, "velocity": 52}, {"time": 316, "pitch": 61, "duration": 11, "velocity": 46}, {"time": 316, "pitch": 45, "duration": 16, "velocity": 59}, {"time": 316, "pitch": 57, "duration": 14, "velocity": 40}, {"time": 322, "pitch": 52, "duration": 9, "velocity": 33}, {"time": 328, "pitch": 64, "duration": 5, "velocity": 59}, {"time": 340, "pitch": 61, "duration": 9, "velocity": 45}, {"time": 340, "pitch": 56, "duration": 10, "velocity": 40}, {"time": 340, "pitch": 63, "duration": 10, "velocity": 55}, {"time": 340, "pitch": 44, "duration": 11, "velocity": 35}, {"time": 352, "pitch": 56, "duration": 6, "velocity": 51}, {"time": 352, "pitch": 63, "duration": 6, "velocity": 60}, {"time": 352, "pitch": 60, "duration": 6, "velocity": 72}, {"time": 365, "pitch": 68, "duration": 6, "velocity": 62}, {"time": 365, "pitch": 59, "duration": 12, "velocity": 52}, {"time": 365, "pitch": 64, "duration": 8, "velocity": 58}, {"time": 365, "pitch": 40, "duration": 12, "velocity": 58}, {"time": 370, "pitch": 52, "duration": 8, "velocity": 40}, {"time": 376, "pitch": 68, "duration": 3, "velocity": 56}, {"time": 376, "pitch": 64, "duration": 3, "velocity": 55}, {"time": 388, "pitch": 42, "duration": 21, "velocity": 57}, {"time": 388, "pitch": 58, "duration": 11, "velocity": 50}, {"time": 388, "pitch": 66, "duration": 9, "velocity": 61}, {"time": 388, "pitch": 61, "duration": 10, "velocity": 52}, {"time": 394, "pitch": 54, "duration": 15, "velocity": 37}, {"time": 400, "pitch": 61, "duration": 7, "velocity": 63}, {"time": 400, "pitch": 66, "duration": 7, "velocity": 66}, {"time": 406, "pitch": 58, "duration": 4, "velocity": 59}, {"time": 412, "pitch": 64, "duration": 10, "velocity": 45}, {"time": 412, "pitch": 68, "duration": 7, "velocity": 51}, {"time": 412, "pitch": 40, "duration": 14, "velocity": 56}, {"time": 412, "pitch": 41, "duration": 1, "velocity": 51}, {"time": 412, "pitch": 59, "duration": 2, "velocity": 40}, {"time": 418, "pitch": 52, "duration": 8, "velocity": 32}, {"time": 424, "pitch": 64, "duration": 2, "velocity": 67}, {"time": 424, "pitch": 68, "duration": 2, "velocity": 78}, {"time": 436, "pitch": 61, "duration": 11, "velocity": 55}, {"time": 436, "pitch": 66, "duration": 8, "velocity": 49}, {"time": 436, "pitch": 42, "duration": 15, "velocity": 60}, {"time": 442, "pitch": 54, "duration": 11, "velocity": 53}, {"time": 448, "pitch": 66, "duration": 6, "velocity": 83}, {"time": 451, "pitch": 61, "duration": 3, "velocity": 56}, {"time": 454, "pitch": 58, "duration": 1, "velocity": 41}, {"time": 460, "pitch": 51, "duration": 13, "velocity": 59}, {"time": 460, "pitch": 63, "duration": 10, "velocity": 56}, {"time": 460, "pitch": 66, "duration": 10, "velocity": 63}, {"time": 460, "pitch": 70, "duration": 8, "velocity": 65}, {"time": 472, "pitch": 70, "duration": 5, "velocity": 69}, {"time": 484, "pitch": 68, "duration": 9, "velocity": 47}, {"time": 484, "pitch": 63, "duration": 10, "velocity": 48}, {"time": 484, "pitch": 56, "duration": 14, "velocity": 41}, {"time": 484, "pitch": 44, "duration": 17, "velocity": 55}, {"time": 484, "pitch": 59, "duration": 9, "velocity": 38}, {"time": 495, "pitch": 63, "duration": 7, "velocity": 82}, {"time": 496, "pitch": 68, "duration": 7, "velocity": 88}, {"time": 502, "pitch": 59, "duration": 1, "velocity": 78}, {"time": 508, "pitch": 49, "duration": 16, "velocity": 64}, {"time": 508, "pitch": 61, "duration": 8, "velocity": 57}, {"time": 508, "pitch": 68, "duration": 8, "velocity": 67}, {"time": 508, "pitch": 64, "duration": 10, "velocity": 69}, {"time": 520, "pitch": 64, "duration": 1, "velocity": 79}, {"time": 520, "pitch": 68, "duration": 1, "velocity": 82}, {"time": 520, "pitch": 61, "duration": 1, "velocity": 75}, {"time": 532, "pitch": 64, "duration": 12, "velocity": 92}, {"time": 532, "pitch": 68, "duration": 12, "velocity": 95}, {"time": 532, "pitch": 59, "duration": 12, "velocity": 81}, {"time": 532, "pitch": 52, "duration": 12, "velocity": 83}, {"time": 544, "pitch": 61, "duration": 10, "velocity": 71}, {"time": 544, "pitch": 65, "duration": 8, "velocity": 79}, {"time": 544, "pitch": 49, "duration": 7, "velocity": 58}, {"time": 544, "pitch": 68, "duration": 8, "velocity": 65}, {"time": 544, "pitch": 56, "duration": 6, "velocity": 59}, {"time": 544, "pitch": 41, "duration": 12, "velocity": 89}, {"time": 544, "pitch": 29, "duration": 12, "velocity": 81}, {"time": 544, "pitch": 53, "duration": 6, "velocity": 50}, {"time": 556, "pitch": 61, "duration": 5, "velocity": 63}, {"time": 556, "pitch": 66, "duration": 5, "velocity": 69}, {"time": 556, "pitch": 70, "duration": 5, "velocity": 55}, {"time": 556, "pitch": 54, "duration": 5, "velocity": 88}, {"time": 556, "pitch": 30, "duration": 5, "velocity": 89}, {"time": 556, "pitch": 42, "duration": 5, "velocity": 89}, {"time": 556, "pitch": 42, "duration": 5, "velocity": 37}, {"time": 562, "pitch": 42, "duration": 4, "velocity": 53}, {"time": 562, "pitch": 42, "duration": 4, "velocity": 54}, {"time": 562, "pitch": 54, "duration": 5, "velocity": 53}, {"time": 562, "pitch": 66, "duration": 5, "velocity": 66}, {"time": 562, "pitch": 30, "duration": 4, "velocity": 55}, {"time": 562, "pitch": 61, "duration": 5, "velocity": 61}, {"time": 562, "pitch": 70, "duration": 5, "velocity": 60}, {"time": 568, "pitch": 42, "duration": 4, "velocity": 77}, {"time": 568, "pitch": 54, "duration": 4, "velocity": 69}, {"time": 568, "pitch": 61, "duration": 4, "velocity": 73}, {"time": 568, "pitch": 30, "duration": 4, "velocity": 72}, {"time": 568, "pitch": 42, "duration": 4, "velocity": 81}, {"time": 568, "pitch": 66, "duration": 4, "velocity": 66}, {"time": 568, "pitch": 70, "duration": 4, "velocity": 69}, {"time": 573, "pitch": 42, "duration": 5, "velocity": 79}, {"time": 573, "pitch": 54, "duration": 5, "velocity": 96}, {"time": 573, "pitch": 61, "duration": 5, "velocity": 73}, {"time": 574, "pitch": 66, "duration": 4, "velocity": 70}, {"time": 574, "pitch": 70, "duration": 4, "velocity": 72}, {"time": 574, "pitch": 42, "duration": 4, "velocity": 89}, {"time": 574, "pitch": 30, "duration": 4, "velocity": 88}, {"time": 580, "pitch": 66, "duration": 4, "velocity": 96}, {"time": 580, "pitch": 42, "duration": 3, "velocity": 92}, {"time": 580, "pitch": 61, "duration": 4, "velocity": 100}, {"time": 580, "pitch": 70, "duration": 4, "velocity": 89}, {"time": 580, "pitch": 54, "duration": 4, "velocity": 95}, {"time": 580, "pitch": 42, "duration": 3, "velocity": 100}, {"time": 580, "pitch": 30, "duration": 3, "velocity": 112}, {"time": 602, "pitch": 64, "duration": 12, "velocity": 29}, {"time": 603, "pitch": 68, "duration": 11, "velocity": 38}, {"time": 604, "pitch": 71, "duration": 11, "velocity": 59}, {"time": 604, "pitch": 75, "duration": 10, "velocity": 97}, {"time": 605, "pitch": 47, "duration": 18, "velocity": 66}, {"time": 605, "pitch": 40, "duration": 18, "velocity": 65}, {"time": 605, "pitch": 52, "duration": 21, "velocity": 66}, {"time": 616, "pitch": 71, "duration": 8, "velocity": 77}, {"time": 616, "pitch": 64, "duration": 2, "velocity": 57}, {"time": 616, "pitch": 68, "duration": 8, "velocity": 86}, {"time": 616, "pitch": 75, "duration": 8, "velocity": 90}, {"time": 622, "pitch": 64, "duration": 2, "velocity": 45}, {"time": 628, "pitch": 42, "duration": 13, "velocity": 74}, {"time": 628, "pitch": 58, "duration": 7, "velocity": 74}, {"time": 628, "pitch": 61, "duration": 8, "velocity": 79}, {"time": 628, "pitch": 66, "duration": 7, "velocity": 61}, {"time": 634, "pitch": 54, "duration": 6, "velocity": 44}, {"time": 640, "pitch": 66, "duration": 6, "velocity": 72}, {"time": 640, "pitch": 61, "duration": 6, "velocity": 92}, {"time": 646, "pitch": 58, "duration": 1, "velocity": 48}, {"time": 652, "pitch": 54, "duration": 8, "velocity": 82}, {"time": 652, "pitch": 58, "duration": 11, "velocity": 73}, {"time": 652, "pitch": 63, "duration": 7, "velocity": 76}, {"time": 652, "pitch": 39, "duration": 14, "velocity": 71}, {"time": 652, "pitch": 51, "duration": 14, "velocity": 67}, {"time": 664, "pitch": 58, "duration": 1, "velocity": 58}, {"time": 664, "pitch": 54, "duration": 1, "velocity": 60}, {"time": 664, "pitch": 63, "duration": 2, "velocity": 64}, {"time": 676, "pitch": 68, "duration": 6, "velocity": 73}, {"time": 676, "pitch": 56, "duration": 9, "velocity": 59}, {"time": 676, "pitch": 63, "duration": 7, "velocity": 66}, {"time": 676, "pitch": 59, "duration": 6, "velocity": 74}, {"time": 676, "pitch": 44, "duration": 14, "velocity": 53}, {"time": 688, "pitch": 59, "duration": 6, "velocity": 81}, {"time": 688, "pitch": 63, "duration": 6, "velocity": 70}, {"time": 688, "pitch": 68, "duration": 6, "velocity": 83}, {"time": 693, "pitch": 56, "duration": 1, "velocity": 77}, {"time": 700, "pitch": 61, "duration": 7, "velocity": 72}, {"time": 700, "pitch": 68, "duration": 8, "velocity": 72}, {"time": 700, "pitch": 64, "duration": 8, "velocity": 75}, {"time": 700, "pitch": 37, "duration": 15, "velocity": 78}, {"time": 706, "pitch": 49, "duration": 11, "velocity": 70}, {"time": 712, "pitch": 64, "duration": 6, "velocity": 83}, {"time": 712, "pitch": 68, "duration": 6, "velocity": 100}, {"time": 718, "pitch": 61, "duration": 1, "velocity": 55}, {"time": 724, "pitch": 42, "duration": 17, "velocity": 81}, {"time": 724, "pitch": 58, "duration": 10, "velocity": 102}, {"time": 724, "pitch": 63, "duration": 10, "velocity": 97}, {"time": 724, "pitch": 54, "duration": 13, "velocity": 55}, {"time": 736, "pitch": 63, "duration": 6, "velocity": 122}, {"time": 736, "pitch": 58, "duration": 4, "velocity": 127}, {"time": 739, "pitch": 54, "duration": 3, "velocity": 93}, {"time": 741, "pitch": 58, "duration": 1, "velocity": 100}, {"time": 748, "pitch": 47, "duration": 13, "velocity": 77}, {"time": 748, "pitch": 66, "duration": 7, "velocity": 112}, {"time": 748, "pitch": 59, "duration": 9, "velocity": 96}, {"time": 748, "pitch": 63, "duration": 10, "velocity": 127}, {"time": 757, "pitch": 66, "duration": 1, "velocity": 25}, {"time": 760, "pitch": 66, "duration": 6, "velocity": 117}, {"time": 760, "pitch": 63, "duration": 6, "velocity": 127}, {"time": 763, "pitch": 47, "duration": 8, "velocity": 77}, {"time": 766, "pitch": 59, "duration": 1, "velocity": 97}, {"time": 772, "pitch": 66, "duration": 7, "velocity": 85}, {"time": 772, "pitch": 61, "duration": 8, "velocity": 72}, {"time": 772, "pitch": 54, "duration": 8, "velocity": 92}, {"time": 772, "pitch": 57, "duration": 8, "velocity": 99}, {"time": 772, "pitch": 42, "duration": 10, "velocity": 78}, {"time": 783, "pitch": 57, "duration": 13, "velocity": 100}, {"time": 783, "pitch": 61, "duration": 13, "velocity": 95}, {"time": 783, "pitch": 53, "duration": 13, "velocity": 82}, {"time": 784, "pitch": 41, "duration": 12, "velocity": 67}, {"time": 797, "pitch": 40, "duration": 15, "velocity": 69}, {"time": 797, "pitch": 52, "duration": 7, "velocity": 71}, {"time": 797, "pitch": 56, "duration": 9, "velocity": 77}, {"time": 797, "pitch": 59, "duration": 6, "velocity": 69}, {"time": 797, "pitch": 64, "duration": 7, "velocity": 70}, {"time": 809, "pitch": 56, "duration": 6, "velocity": 95}, {"time": 809, "pitch": 59, "duration": 11, "velocity": 81}, {"time": 809, "pitch": 64, "duration": 6, "velocity": 85}, {"time": 815, "pitch": 52, "duration": 15, "velocity": 88}, {"time": 821, "pitch": 64, "duration": 6, "velocity": 85}, {"time": 821, "pitch": 56, "duration": 8, "velocity": 60}, {"time": 821, "pitch": 59, "duration": 8, "velocity": 65}, {"time": 821, "pitch": 66, "duration": 13, "velocity": 95}, {"time": 833, "pitch": 56, "duration": 4, "velocity": 73}, {"time": 833, "pitch": 59, "duration": 4, "velocity": 71}, {"time": 833, "pitch": 64, "duration": 5, "velocity": 88}, {"time": 845, "pitch": 42, "duration": 18, "velocity": 67}, {"time": 845, "pitch": 54, "duration": 9, "velocity": 78}, {"time": 845, "pitch": 58, "duration": 10, "velocity": 74}, {"time": 845, "pitch": 61, "duration": 9, "velocity": 76}, {"time": 857, "pitch": 54, "duration": 6, "velocity": 74}, {"time": 857, "pitch": 58, "duration": 6, "velocity": 89}, {"time": 857, "pitch": 61, "duration": 6, "velocity": 83}, {"time": 869, "pitch": 44, "duration": 13, "velocity": 54}, {"time": 869, "pitch": 56, "duration": 8, "velocity": 59}, {"time": 869, "pitch": 59, "duration": 9, "velocity": 62}, {"time": 869, "pitch": 63, "duration": 6, "velocity": 56}, {"time": 881, "pitch": 59, "duration": 5, "velocity": 96}, {"time": 881, "pitch": 63, "duration": 6, "velocity": 107}, {"time": 887, "pitch": 56, "duration": 1, "velocity": 37}, {"time": 893, "pitch": 37, "duration": 15, "velocity": 92}, {"time": 893, "pitch": 52, "duration": 7, "velocity": 85}, {"time": 893, "pitch": 56, "duration": 8, "velocity": 95}, {"time": 899, "pitch": 49, "duration": 11, "velocity": 73}, {"time": 905, "pitch": 56, "duration": 4, "velocity": 89}, {"time": 905, "pitch": 61, "duration": 5, "velocity": 96}, {"time": 917, "pitch": 42, "duration": 13, "velocity": 69}, {"time": 917, "pitch": 54, "duration": 6, "velocity": 85}, {"time": 917, "pitch": 58, "duration": 10, "velocity": 90}, {"time": 917, "pitch": 61, "duration": 6, "velocity": 81}, {"time": 929, "pitch": 58, "duration": 1, "velocity": 102}, {"time": 929, "pitch": 61, "duration": 1, "velocity": 100}, {"time": 941, "pitch": 47, "duration": 20, "velocity": 71}, {"time": 941, "pitch": 59, "duration": 10, "velocity": 77}, {"time": 941, "pitch": 63, "duration": 10, "velocity": 92}, {"time": 941, "pitch": 66, "duration": 9, "velocity": 82}, {"time": 947, "pitch": 54, "duration": 8, "velocity": 53}, {"time": 953, "pitch": 71, "duration": 6, "velocity": 84}, {"time": 956, "pitch": 54, "duration": 1, "velocity": 87}, {"time": 959, "pitch": 63, "duration": 1, "velocity": 107}, {"time": 965, "pitch": 45, "duration": 10, "velocity": 73}, {"time": 965, "pitch": 54, "duration": 8, "velocity": 96}, {"time": 965, "pitch": 57, "duration": 9, "velocity": 117}, {"time": 965, "pitch": 61, "duration": 8, "velocity": 107}, {"time": 977, "pitch": 42, "duration": 9, "velocity": 92}, {"time": 977, "pitch": 54, "duration": 8, "velocity": 95}, {"time": 977, "pitch": 57, "duration": 8, "velocity": 89}, {"time": 977, "pitch": 61, "duration": 8, "velocity": 86}, {"time": 977, "pitch": 66, "duration": 8, "velocity": 81}, {"time": 989, "pitch": 40, "duration": 15, "velocity": 77}, {"time": 989, "pitch": 52, "duration": 10, "velocity": 85}, {"time": 989, "pitch": 56, "duration": 10, "velocity": 95}, {"time": 989, "pitch": 59, "duration": 10, "velocity": 88}, {"time": 995, "pitch": 47, "duration": 8, "velocity": 40}, {"time": 1001, "pitch": 52, "duration": 4, "velocity": 79}, {"time": 1001, "pitch": 56, "duration": 7, "velocity": 93}, {"time": 1001, "pitch": 59, "duration": 8, "velocity": 83}, {"time": 1001, "pitch": 64, "duration": 7, "velocity": 76}, {"time": 1013, "pitch": 52, "duration": 7, "velocity": 85}, {"time": 1013, "pitch": 56, "duration": 10, "velocity": 95}, {"time": 1013, "pitch": 59, "duration": 9, "velocity": 86}, {"time": 1013, "pitch": 64, "duration": 10, "velocity": 85}, {"time": 1025, "pitch": 56, "duration": 2, "velocity": 93}, {"time": 1025, "pitch": 59, "duration": 2, "velocity": 92}, {"time": 1025, "pitch": 63, "duration": 2, "velocity": 92}, {"time": 1037, "pitch": 42, "duration": 20, "velocity": 88}, {"time": 1037, "pitch": 54, "duration": 7, "velocity": 93}, {"time": 1037, "pitch": 58, "duration": 10, "velocity": 112}, {"time": 1037, "pitch": 61, "duration": 6, "velocity": 97}, {"time": 1049, "pitch": 54, "duration": 1, "velocity": 93}, {"time": 1049, "pitch": 58, "duration": 1, "velocity": 122}, {"time": 1049, "pitch": 61, "duration": 2, "velocity": 102}, {"time": 1055, "pitch": 54, "duration": 5, "velocity": 58}, {"time": 1061, "pitch": 44, "duration": 15, "velocity": 93}, {"time": 1061, "pitch": 59, "duration": 1, "velocity": 95}, {"time": 1061, "pitch": 63, "duration": 2, "velocity": 99}, {"time": 1067, "pitch": 56, "duration": 7, "velocity": 58}, {"time": 1073, "pitch": 63, "duration": 6, "velocity": 112}, {"time": 1073, "pitch": 68, "duration": 6, "velocity": 107}, {"time": 1079, "pitch": 59, "duration": 1, "velocity": 61}, {"time": 1085, "pitch": 37, "duration": 13, "velocity": 88}, {"time": 1085, "pitch": 61, "duration": 6, "velocity": 97}, {"time": 1085, "pitch": 64, "duration": 5, "velocity": 92}, {"time": 1085, "pitch": 68, "duration": 6, "velocity": 100}, {"time": 1091, "pitch": 49, "duration": 9, "velocity": 92}, {"time": 1097, "pitch": 64, "duration": 5, "velocity": 92}, {"time": 1097, "pitch": 68, "duration": 5, "velocity": 107}, {"time": 1103, "pitch": 61, "duration": 2, "velocity": 81}, {"time": 1109, "pitch": 42, "duration": 11, "velocity": 97}, {"time": 1109, "pitch": 54, "duration": 10, "velocity": 92}, {"time": 1109, "pitch": 58, "duration": 6, "velocity": 100}, {"time": 1109, "pitch": 61, "duration": 10, "velocity": 86}, {"time": 1109, "pitch": 66, "duration": 6, "velocity": 83}, {"time": 1121, "pitch": 46, "duration": 7, "velocity": 122}, {"time": 1121, "pitch": 54, "duration": 6, "velocity": 86}, {"time": 1121, "pitch": 58, "duration": 6, "velocity": 117}, {"time": 1121, "pitch": 61, "duration": 7, "velocity": 102}, {"time": 1121, "pitch": 66, "duration": 6, "velocity": 90}, {"time": 1133, "pitch": 47, "duration": 20, "velocity": 85}, {"time": 1133, "pitch": 59, "duration": 9, "velocity": 86}, {"time": 1133, "pitch": 63, "duration": 9, "velocity": 117}, {"time": 1133, "pitch": 66, "duration": 9, "velocity": 100}, {"time": 1145, "pitch": 59, "duration": 3, "velocity": 89}, {"time": 1145, "pitch": 63, "duration": 6, "velocity": 127}, {"time": 1145, "pitch": 66, "duration": 5, "velocity": 127}, {"time": 1151, "pitch": 59, "duration": 1, "velocity": 81}, {"time": 1157, "pitch": 42, "duration": 9, "velocity": 97}, {"time": 1157, "pitch": 54, "duration": 8, "velocity": 107}, {"time": 1157, "pitch": 57, "duration": 10, "velocity": 107}, {"time": 1157, "pitch": 61, "duration": 10, "velocity": 107}, {"time": 1169, "pitch": 41, "duration": 12, "velocity": 76}, {"time": 1169, "pitch": 53, "duration": 9, "velocity": 93}, {"time": 1169, "pitch": 57, "duration": 8, "velocity": 102}, {"time": 1169, "pitch": 61, "duration": 8, "velocity": 97}, {"time": 1181, "pitch": 40, "duration": 18, "velocity": 79}, {"time": 1181, "pitch": 52, "duration": 4, "velocity": 83}, {"time": 1181, "pitch": 56, "duration": 5, "velocity": 99}, {"time": 1181, "pitch": 59, "duration": 6, "velocity": 88}, {"time": 1181, "pitch": 63, "duration": 5, "velocity": 92}, {"time": 1187, "pitch": 52, "duration": 7, "velocity": 38}, {"time": 1193, "pitch": 56, "duration": 11, "velocity": 96}, {"time": 1193, "pitch": 59, "duration": 11, "velocity": 89}, {"time": 1193, "pitch": 64, "duration": 10, "velocity": 86}, {"time": 1199, "pitch": 52, "duration": 5, "velocity": 73}, {"time": 1205, "pitch": 52, "duration": 10, "velocity": 90}, {"time": 1205, "pitch": 56, "duration": 10, "velocity": 93}, {"time": 1205, "pitch": 59, "duration": 11, "velocity": 86}, {"time": 1205, "pitch": 64, "duration": 10, "velocity": 86}, {"time": 1217, "pitch": 64, "duration": 8, "velocity": 92}, {"time": 1217, "pitch": 40, "duration": 6, "velocity": 70}, {"time": 1217, "pitch": 52, "duration": 8, "velocity": 81}, {"time": 1217, "pitch": 56, "duration": 9, "velocity": 100}, {"time": 1217, "pitch": 59, "duration": 8, "velocity": 92}, {"time": 1229, "pitch": 42, "duration": 18, "velocity": 89}, {"time": 1229, "pitch": 54, "duration": 5, "velocity": 86}, {"time": 1229, "pitch": 58, "duration": 6, "velocity": 100}, {"time": 1229, "pitch": 61, "duration": 7, "velocity": 95}, {"time": 1235, "pitch": 54, "duration": 11, "velocity": 61}, {"time": 1241, "pitch": 61, "duration": 6, "velocity": 127}, {"time": 1247, "pitch": 58, "duration": 1, "velocity": 35}, {"time": 1253, "pitch": 44, "duration": 16, "velocity": 71}, {"time": 1253, "pitch": 56, "duration": 9, "velocity": 65}, {"time": 1253, "pitch": 59, "duration": 9, "velocity": 75}, {"time": 1253, "pitch": 63, "duration": 9, "velocity": 77}, {"time": 1265, "pitch": 59, "duration": 6, "velocity": 95}, {"time": 1265, "pitch": 63, "duration": 6, "velocity": 107}, {"time": 1271, "pitch": 56, "duration": 1, "velocity": 85}, {"time": 1277, "pitch": 37, "duration": 16, "velocity": 117}, {"time": 1277, "pitch": 61, "duration": 6, "velocity": 102}, {"time": 1277, "pitch": 64, "duration": 6, "velocity": 85}, {"time": 1277, "pitch": 68, "duration": 6, "velocity": 97}, {"time": 1283, "pitch": 49, "duration": 7, "velocity": 82}, {"time": 1289, "pitch": 64, "duration": 5, "velocity": 99}, {"time": 1289, "pitch": 68, "duration": 5, "velocity": 127}, {"time": 1292, "pitch": 49, "duration": 3, "velocity": 95}, {"time": 1295, "pitch": 61, "duration": 1, "velocity": 93}, {"time": 1301, "pitch": 42, "duration": 20, "velocity": 92}, {"time": 1301, "pitch": 54, "duration": 9, "velocity": 97}, {"time": 1301, "pitch": 58, "duration": 19, "velocity": 100}, {"time": 1301, "pitch": 61, "duration": 8, "velocity": 95}, {"time": 1325, "pitch": 35, "duration": 49, "velocity": 63}, {"time": 1325, "pitch": 63, "duration": 7, "velocity": 82}, {"time": 1325, "pitch": 66, "duration": 6, "velocity": 96}, {"time": 1328, "pitch": 47, "duration": 9, "velocity": 53}, {"time": 1331, "pitch": 59, "duration": 6, "velocity": 53}, {"time": 1334, "pitch": 63, "duration": 3, "velocity": 76}, {"time": 1337, "pitch": 66, "duration": 8, "velocity": 93}, {"time": 1340, "pitch": 47, "duration": 5, "velocity": 61}, {"time": 1343, "pitch": 64, "duration": 6, "velocity": 85}, {"time": 1349, "pitch": 47, "duration": 23, "velocity": 49}, {"time": 1349, "pitch": 59, "duration": 24, "velocity": 53}, {"time": 1349, "pitch": 63, "duration": 23, "velocity": 62}, {"time": 1349, "pitch": 66, "duration": 24, "velocity": 35}, {"time": 1373, "pitch": 40, "duration": 19, "velocity": 56}, {"time": 1373, "pitch": 52, "duration": 17, "velocity": 50}, {"time": 1373, "pitch": 59, "duration": 8, "velocity": 71}, {"time": 1373, "pitch": 64, "duration": 7, "velocity": 67}, {"time": 1373, "pitch": 68, "duration": 7, "velocity": 59}, {"time": 1385, "pitch": 64, "duration": 7, "velocity": 77}, {"time": 1385, "pitch": 68, "duration": 7, "velocity": 85}, {"time": 1391, "pitch": 59, "duration": 2, "velocity": 59}, {"time": 1397, "pitch": 59, "duration": 5, "velocity": 59}, {"time": 1397, "pitch": 64, "duration": 6, "velocity": 60}, {"time": 1397, "pitch": 68, "duration": 6, "velocity": 63}, {"time": 1409, "pitch": 64, "duration": 5, "velocity": 69}, {"time": 1409, "pitch": 68, "duration": 5, "velocity": 69}, {"time": 1421, "pitch": 32, "duration": 39, "velocity": 49}, {"time": 1421, "pitch": 44, "duration": 40, "velocity": 60}, {"time": 1421, "pitch": 56, "duration": 6, "velocity": 61}, {"time": 1421, "pitch": 59, "duration": 6, "velocity": 69}, {"time": 1421, "pitch": 63, "duration": 6, "velocity": 50}, {"time": 1433, "pitch": 56, "duration": 4, "velocity": 76}, {"time": 1433, "pitch": 59, "duration": 6, "velocity": 73}, {"time": 1433, "pitch": 63, "duration": 6, "velocity": 72}, {"time": 1445, "pitch": 56, "duration": 6, "velocity": 69}, {"time": 1445, "pitch": 59, "duration": 5, "velocity": 69}, {"time": 1445, "pitch": 63, "duration": 6, "velocity": 66}, {"time": 1457, "pitch": 59, "duration": 5, "velocity": 90}, {"time": 1457, "pitch": 63, "duration": 5, "velocity": 97}, {"time": 1463, "pitch": 56, "duration": 1, "velocity": 72}, {"time": 1469, "pitch": 40, "duration": 37, "velocity": 71}, {"time": 1469, "pitch": 52, "duration": 1, "velocity": 75}, {"time": 1469, "pitch": 56, "duration": 2, "velocity": 71}, {"time": 1469, "pitch": 59, "duration": 2, "velocity": 76}, {"time": 1475, "pitch": 52, "duration": 8, "velocity": 41}, {"time": 1481, "pitch": 59, "duration": 1, "velocity": 83}, {"time": 1481, "pitch": 64, "duration": 1, "velocity": 77}, {"time": 1481, "pitch": 68, "duration": 1, "velocity": 76}, {"time": 1487, "pitch": 52, "duration": 8, "velocity": 52}, {"time": 1493, "pitch": 59, "duration": 3, "velocity": 74}, {"time": 1493, "pitch": 64, "duration": 3, "velocity": 88}, {"time": 1493, "pitch": 68, "duration": 3, "velocity": 86}, {"time": 1499, "pitch": 52, "duration": 6, "velocity": 59}, {"time": 1505, "pitch": 64, "duration": 5, "velocity": 93}, {"time": 1505, "pitch": 68, "duration": 5, "velocity": 97}, {"time": 1511, "pitch": 59, "duration": 1, "velocity": 66}, {"time": 1517, "pitch": 32, "duration": 22, "velocity": 75}, {"time": 1517, "pitch": 56, "duration": 6, "velocity": 58}, {"time": 1517, "pitch": 59, "duration": 6, "velocity": 76}, {"time": 1517, "pitch": 63, "duration": 6, "velocity": 81}, {"time": 1523, "pitch": 44, "duration": 9, "velocity": 67}, {"time": 1529, "pitch": 56, "duration": 6, "velocity": 82}, {"time": 1529, "pitch": 59, "duration": 6, "velocity": 82}, {"time": 1529, "pitch": 63, "duration": 6, "velocity": 86}, {"time": 1535, "pitch": 44, "duration": 5, "velocity": 69}, {"time": 1541, "pitch": 32, "duration": 11, "velocity": 55}, {"time": 1541, "pitch": 44, "duration": 11, "velocity": 64}, {"time": 1541, "pitch": 56, "duration": 4, "velocity": 69}, {"time": 1541, "pitch": 59, "duration": 4, "velocity": 59}, {"time": 1541, "pitch": 63, "duration": 4, "velocity": 63}, {"time": 1547, "pitch": 56, "duration": 2, "velocity": 70}, {"time": 1547, "pitch": 59, "duration": 2, "velocity": 67}, {"time": 1547, "pitch": 63, "duration": 2, "velocity": 62}, {"time": 1550, "pitch": 56, "duration": 1, "velocity": 26}, {"time": 1550, "pitch": 59, "duration": 1, "velocity": 33}, {"time": 1550, "pitch": 63, "duration": 1, "velocity": 25}, {"time": 1553, "pitch": 32, "duration": 7, "velocity": 77}, {"time": 1553, "pitch": 44, "duration": 4, "velocity": 71}, {"time": 1553, "pitch": 56, "duration": 4, "velocity": 66}, {"time": 1553, "pitch": 59, "duration": 4, "velocity": 65}, {"time": 1553, "pitch": 63, "duration": 4, "velocity": 64}, {"time": 1559, "pitch": 44, "duration": 2, "velocity": 64}, {"time": 1559, "pitch": 56, "duration": 1, "velocity": 61}, {"time": 1559, "pitch": 59, "duration": 1, "velocity": 55}, {"time": 1559, "pitch": 63, "duration": 1, "velocity": 60}, {"time": 1565, "pitch": 33, "duration": 11, "velocity": 43}, {"time": 1565, "pitch": 45, "duration": 11, "velocity": 77}, {"time": 1565, "pitch": 57, "duration": 5, "velocity": 81}, {"time": 1565, "pitch": 61, "duration": 10, "velocity": 72}, {"time": 1565, "pitch": 64, "duration": 10, "velocity": 76}, {"time": 1571, "pitch": 57, "duration": 4, "velocity": 62}, {"time": 1577, "pitch": 33, "duration": 22, "velocity": 54}, {"time": 1577, "pitch": 45, "duration": 10, "velocity": 61}, {"time": 1577, "pitch": 57, "duration": 1, "velocity": 64}, {"time": 1577, "pitch": 61, "duration": 8, "velocity": 93}, {"time": 1577, "pitch": 64, "duration": 8, "velocity": 81}, {"time": 1583, "pitch": 57, "duration": 5, "velocity": 68}, {"time": 1589, "pitch": 45, "duration": 13, "velocity": 59}, {"time": 1589, "pitch": 57, "duration": 2, "velocity": 63}, {"time": 1589, "pitch": 61, "duration": 10, "velocity": 69}, {"time": 1589, "pitch": 64, "duration": 6, "velocity": 69}, {"time": 1595, "pitch": 57, "duration": 5, "velocity": 52}, {"time": 1601, "pitch": 33, "duration": 4, "velocity": 72}, {"time": 1601, "pitch": 61, "duration": 7, "velocity": 112}, {"time": 1601, "pitch": 64, "duration": 6, "velocity": 96}, {"time": 1607, "pitch": 57, "duration": 2, "velocity": 88}, {"time": 1613, "pitch": 32, "duration": 18, "velocity": 97}, {"time": 1613, "pitch": 44, "duration": 21, "velocity": 63}, {"time": 1613, "pitch": 56, "duration": 9, "velocity": 90}, {"time": 1613, "pitch": 59, "duration": 6, "velocity": 74}, {"time": 1613, "pitch": 63, "duration": 7, "velocity": 82}, {"time": 1625, "pitch": 59, "duration": 6, "velocity": 90}, {"time": 1625, "pitch": 63, "duration": 7, "velocity": 95}, {"time": 1631, "pitch": 56, "duration": 4, "velocity": 82}, {"time": 1637, "pitch": 32, "duration": 19, "velocity": 55}, {"time": 1637, "pitch": 44, "duration": 15, "velocity": 77}, {"time": 1637, "pitch": 56, "duration": 4, "velocity": 82}, {"time": 1637, "pitch": 59, "duration": 8, "velocity": 73}, {"time": 1637, "pitch": 63, "duration": 8, "velocity": 81}, {"time": 1643, "pitch": 56, "duration": 5, "velocity": 68}, {"time": 1646, "pitch": 59, "duration": 1, "velocity": 25}, {"time": 1649, "pitch": 56, "duration": 5, "velocity": 86}, {"time": 1649, "pitch": 59, "duration": 8, "velocity": 77}, {"time": 1649, "pitch": 63, "duration": 6, "velocity": 92}, {"time": 1655, "pitch": 44, "duration": 1, "velocity": 83}, {"time": 1661, "pitch": 33, "duration": 21, "velocity": 74}, {"time": 1661, "pitch": 45, "duration": 13, "velocity": 66}, {"time": 1661, "pitch": 57, "duration": 11, "velocity": 79}, {"time": 1661, "pitch": 61, "duration": 7, "velocity": 95}, {"time": 1661, "pitch": 64, "duration": 6, "velocity": 81}, {"time": 1673, "pitch": 61, "duration": 7, "velocity": 90}, {"time": 1676, "pitch": 45, "duration": 7, "velocity": 58}, {"time": 1679, "pitch": 57, "duration": 10, "velocity": 72}, {"time": 1685, "pitch": 33, "duration": 14, "velocity": 59}, {"time": 1685, "pitch": 45, "duration": 14, "velocity": 76}, {"time": 1685, "pitch": 61, "duration": 7, "velocity": 97}, {"time": 1685, "pitch": 64, "duration": 7, "velocity": 82}, {"time": 1691, "pitch": 57, "duration": 5, "velocity": 53}, {"time": 1697, "pitch": 61, "duration": 7, "velocity": 117}, {"time": 1697, "pitch": 64, "duration": 6, "velocity": 96}, {"time": 1703, "pitch": 57, "duration": 3, "velocity": 92}, {"time": 1709, "pitch": 32, "duration": 19, "velocity": 88}, {"time": 1709, "pitch": 44, "duration": 22, "velocity": 85}, {"time": 1709, "pitch": 56, "duration": 3, "velocity": 90}, {"time": 1709, "pitch": 59, "duration": 6, "velocity": 89}, {"time": 1709, "pitch": 63, "duration": 7, "velocity": 96}, {"time": 1715, "pitch": 56, "duration": 6, "velocity": 89}, {"time": 1721, "pitch": 59, "duration": 6, "velocity": 73}, {"time": 1721, "pitch": 63, "duration": 7, "velocity": 92}, {"time": 1727, "pitch": 56, "duration": 4, "velocity": 70}, {"time": 1733, "pitch": 32, "duration": 9, "velocity": 72}, {"time": 1733, "pitch": 44, "duration": 10, "velocity": 56}, {"time": 1733, "pitch": 56, "duration": 10, "velocity": 97}, {"time": 1733, "pitch": 60, "duration": 8, "velocity": 107}, {"time": 1733, "pitch": 63, "duration": 8, "velocity": 100}, {"time": 1745, "pitch": 37, "duration": 10, "velocity": 96}, {"time": 1745, "pitch": 56, "duration": 10, "velocity": 90}, {"time": 1745, "pitch": 61, "duration": 8, "velocity": 92}, {"time": 1745, "pitch": 65, "duration": 8, "velocity": 83}, {"time": 1745, "pitch": 59, "duration": 12, "velocity": 93}, {"time": 1754, "pitch": 66, "duration": 12, "velocity": 29}, {"time": 1755, "pitch": 70, "duration": 11, "velocity": 38}, {"time": 1756, "pitch": 73, "duration": 11, "velocity": 59}, {"time": 1756, "pitch": 77, "duration": 10, "velocity": 97}, {"time": 1757, "pitch": 49, "duration": 18, "velocity": 66}, {"time": 1757, "pitch": 42, "duration": 18, "velocity": 65}, {"time": 1757, "pitch": 54, "duration": 21, "velocity": 66}, {"time": 1769, "pitch": 73, "duration": 7, "velocity": 77}, {"time": 1769, "pitch": 66, "duration": 2, "velocity": 57}, {"time": 1769, "pitch": 70, "duration": 7, "velocity": 86}, {"time": 1769, "pitch": 77, "duration": 8, "velocity": 90}, {"time": 1774, "pitch": 66, "duration": 2, "velocity": 45}, {"time": 1781, "pitch": 60, "duration": 6, "velocity": 74}, {"time": 1781, "pitch": 63, "duration": 7, "velocity": 79}, {"time": 1781, "pitch": 68, "duration": 6, "velocity": 61}, {"time": 1781, "pitch": 44, "duration": 12, "velocity": 74}, {"time": 1786, "pitch": 56, "duration": 6, "velocity": 44}, {"time": 1793, "pitch": 68, "duration": 5, "velocity": 72}, {"time": 1793, "pitch": 63, "duration": 5, "velocity": 92}, {"time": 1798, "pitch": 60, "duration": 1, "velocity": 48}, {"time": 1804, "pitch": 56, "duration": 8, "velocity": 82}, {"time": 1804, "pitch": 60, "duration": 11, "velocity": 73}, {"time": 1804, "pitch": 65, "duration": 7, "velocity": 76}, {"time": 1804, "pitch": 41, "duration": 14, "velocity": 71}, {"time": 1804, "pitch": 53, "duration": 14, "velocity": 67}, {"time": 1816, "pitch": 60, "duration": 1, "velocity": 58}, {"time": 1816, "pitch": 56, "duration": 1, "velocity": 60}, {"time": 1816, "pitch": 65, "duration": 2, "velocity": 64}, {"time": 1828, "pitch": 70, "duration": 6, "velocity": 73}, {"time": 1828, "pitch": 58, "duration": 9, "velocity": 59}, {"time": 1828, "pitch": 65, "duration": 7, "velocity": 66}, {"time": 1828, "pitch": 61, "duration": 6, "velocity": 74}, {"time": 1828, "pitch": 46, "duration": 14, "velocity": 53}, {"time": 1840, "pitch": 61, "duration": 6, "velocity": 81}, {"time": 1840, "pitch": 65, "duration": 6, "velocity": 70}, {"time": 1840, "pitch": 70, "duration": 6, "velocity": 83}, {"time": 1845, "pitch": 58, "duration": 1, "velocity": 77}, {"time": 1852, "pitch": 63, "duration": 7, "velocity": 72}, {"time": 1852, "pitch": 70, "duration": 8, "velocity": 72}, {"time": 1852, "pitch": 66, "duration": 8, "velocity": 75}, {"time": 1852, "pitch": 39, "duration": 15, "velocity": 78}, {"time": 1858, "pitch": 51, "duration": 11, "velocity": 70}, {"time": 1864, "pitch": 66, "duration": 6, "velocity": 83}, {"time": 1864, "pitch": 70, "duration": 6, "velocity": 100}, {"time": 1870, "pitch": 63, "duration": 1, "velocity": 55}, {"time": 1876, "pitch": 44, "duration": 17, "velocity": 81}, {"time": 1876, "pitch": 60, "duration": 10, "velocity": 102}, {"time": 1876, "pitch": 65, "duration": 10, "velocity": 97}, {"time": 1876, "pitch": 56, "duration": 13, "velocity": 55}, {"time": 1889, "pitch": 60, "duration": 4, "velocity": 127}, {"time": 1889, "pitch": 65, "duration": 6, "velocity": 122}, {"time": 1892, "pitch": 56, "duration": 3, "velocity": 93}, {"time": 1895, "pitch": 60, "duration": 1, "velocity": 100}, {"time": 1898, "pitch": 46, "duration": 1, "velocity": 25}, {"time": 1901, "pitch": 58, "duration": 9, "velocity": 102}, {"time": 1901, "pitch": 61, "duration": 11, "velocity": 127}, {"time": 1901, "pitch": 65, "duration": 10, "velocity": 92}, {"time": 1901, "pitch": 46, "duration": 11, "velocity": 127}, {"time": 1913, "pitch": 45, "duration": 11, "velocity": 100}, {"time": 1913, "pitch": 57, "duration": 10, "velocity": 96}, {"time": 1913, "pitch": 61, "duration": 8, "velocity": 72}, {"time": 1913, "pitch": 65, "duration": 8, "velocity": 58}, {"time": 1924, "pitch": 61, "duration": 10, "velocity": 122}, {"time": 1924, "pitch": 68, "duration": 10, "velocity": 100}, {"time": 1924, "pitch": 65, "duration": 10, "velocity": 100}, {"time": 1924, "pitch": 53, "duration": 10, "velocity": 70}, {"time": 1925, "pitch": 44, "duration": 10, "velocity": 112}, {"time": 1937, "pitch": 49, "duration": 10, "velocity": 102}, {"time": 1937, "pitch": 56, "duration": 9, "velocity": 117}, {"time": 1937, "pitch": 61, "duration": 9, "velocity": 127}, {"time": 1937, "pitch": 65, "duration": 9, "velocity": 112}, {"time": 1949, "pitch": 42, "duration": 15, "velocity": 69}, {"time": 1949, "pitch": 54, "duration": 7, "velocity": 71}, {"time": 1949, "pitch": 58, "duration": 9, "velocity": 77}, {"time": 1949, "pitch": 61, "duration": 6, "velocity": 69}, {"time": 1949, "pitch": 65, "duration": 7, "velocity": 70}, {"time": 1961, "pitch": 58, "duration": 6, "velocity": 95}, {"time": 1961, "pitch": 61, "duration": 11, "velocity": 81}, {"time": 1961, "pitch": 65, "duration": 6, "velocity": 85}, {"time": 1967, "pitch": 54, "duration": 15, "velocity": 88}, {"time": 1973, "pitch": 58, "duration": 8, "velocity": 60}, {"time": 1973, "pitch": 61, "duration": 8, "velocity": 65}, {"time": 1973, "pitch": 66, "duration": 8, "velocity": 88}, {"time": 1985, "pitch": 66, "duration": 5, "velocity": 88}, {"time": 1985, "pitch": 58, "duration": 4, "velocity": 73}, {"time": 1985, "pitch": 61, "duration": 4, "velocity": 71}, {"time": 1997, "pitch": 44, "duration": 18, "velocity": 67}, {"time": 1997, "pitch": 56, "duration": 9, "velocity": 78}, {"time": 1997, "pitch": 60, "duration": 10, "velocity": 74}, {"time": 1997, "pitch": 63, "duration": 9, "velocity": 76}, {"time": 2009, "pitch": 56, "duration": 6, "velocity": 74}, {"time": 2009, "pitch": 60, "duration": 6, "velocity": 89}, {"time": 2009, "pitch": 63, "duration": 6, "velocity": 83}, {"time": 2021, "pitch": 46, "duration": 13, "velocity": 54}, {"time": 2021, "pitch": 58, "duration": 8, "velocity": 59}, {"time": 2021, "pitch": 61, "duration": 9, "velocity": 62}, {"time": 2021, "pitch": 65, "duration": 6, "velocity": 56}, {"time": 2033, "pitch": 65, "duration": 6, "velocity": 107}, {"time": 2033, "pitch": 61, "duration": 5, "velocity": 96}, {"time": 2039, "pitch": 58, "duration": 1, "velocity": 37}, {"time": 2045, "pitch": 39, "duration": 15, "velocity": 92}, {"time": 2045, "pitch": 54, "duration": 7, "velocity": 85}, {"time": 2045, "pitch": 58, "duration": 8, "velocity": 95}, {"time": 2051, "pitch": 51, "duration": 11, "velocity": 73}, {"time": 2057, "pitch": 58, "duration": 4, "velocity": 89}, {"time": 2057, "pitch": 63, "duration": 5, "velocity": 96}, {"time": 2069, "pitch": 44, "duration": 13, "velocity": 69}, {"time": 2069, "pitch": 56, "duration": 6, "velocity": 85}, {"time": 2069, "pitch": 60, "duration": 10, "velocity": 90}, {"time": 2069, "pitch": 63, "duration": 6, "velocity": 81}, {"time": 2081, "pitch": 60, "duration": 1, "velocity": 102}, {"time": 2081, "pitch": 63, "duration": 1, "velocity": 100}, {"time": 2093, "pitch": 49, "duration": 20, "velocity": 71}, {"time": 2093, "pitch": 61, "duration": 10, "velocity": 77}, {"time": 2093, "pitch": 65, "duration": 10, "velocity": 92}, {"time": 2093, "pitch": 68, "duration": 9, "velocity": 82}, {"time": 2099, "pitch": 56, "duration": 8, "velocity": 53}, {"time": 2105, "pitch": 68, "duration": 6, "velocity": 122}, {"time": 2108, "pitch": 56, "duration": 1, "velocity": 74}, {"time": 2111, "pitch": 65, "duration": 1, "velocity": 107}, {"time": 2117, "pitch": 47, "duration": 10, "velocity": 73}, {"time": 2117, "pitch": 56, "duration": 8, "velocity": 96}, {"time": 2117, "pitch": 59, "duration": 9, "velocity": 117}, {"time": 2117, "pitch": 63, "duration": 8, "velocity": 107}, {"time": 2129, "pitch": 44, "duration": 9, "velocity": 92}, {"time": 2129, "pitch": 56, "duration": 8, "velocity": 95}, {"time": 2129, "pitch": 59, "duration": 8, "velocity": 89}, {"time": 2129, "pitch": 63, "duration": 8, "velocity": 86}, {"time": 2129, "pitch": 68, "duration": 8, "velocity": 81}, {"time": 2141, "pitch": 42, "duration": 15, "velocity": 77}, {"time": 2141, "pitch": 54, "duration": 10, "velocity": 85}, {"time": 2141, "pitch": 58, "duration": 10, "velocity": 95}, {"time": 2141, "pitch": 61, "duration": 10, "velocity": 88}, {"time": 2147, "pitch": 49, "duration": 8, "velocity": 40}, {"time": 2153, "pitch": 66, "duration": 7, "velocity": 76}, {"time": 2153, "pitch": 54, "duration": 4, "velocity": 79}, {"time": 2153, "pitch": 58, "duration": 7, "velocity": 93}, {"time": 2153, "pitch": 61, "duration": 8, "velocity": 83}, {"time": 2165, "pitch": 54, "duration": 7, "velocity": 85}, {"time": 2165, "pitch": 58, "duration": 10, "velocity": 95}, {"time": 2165, "pitch": 61, "duration": 9, "velocity": 86}, {"time": 2165, "pitch": 66, "duration": 10, "velocity": 85}, {"time": 2177, "pitch": 66, "duration": 2, "velocity": 92}, {"time": 2177, "pitch": 58, "duration": 2, "velocity": 93}, {"time": 2177, "pitch": 61, "duration": 2, "velocity": 92}, {"time": 2189, "pitch": 44, "duration": 20, "velocity": 88}, {"time": 2189, "pitch": 56, "duration": 7, "velocity": 93}, {"time": 2189, "pitch": 60, "duration": 10, "velocity": 112}, {"time": 2189, "pitch": 63, "duration": 6, "velocity": 97}, {"time": 2201, "pitch": 56, "duration": 1, "velocity": 93}, {"time": 2201, "pitch": 60, "duration": 1, "velocity": 122}, {"time": 2201, "pitch": 63, "duration": 2, "velocity": 102}, {"time": 2207, "pitch": 56, "duration": 5, "velocity": 58}, {"time": 2213, "pitch": 46, "duration": 15, "velocity": 93}, {"time": 2213, "pitch": 61, "duration": 1, "velocity": 95}, {"time": 2213, "pitch": 65, "duration": 2, "velocity": 99}, {"time": 2219, "pitch": 58, "duration": 7, "velocity": 58}, {"time": 2225, "pitch": 65, "duration": 6, "velocity": 112}, {"time": 2225, "pitch": 70, "duration": 6, "velocity": 107}, {"time": 2231, "pitch": 61, "duration": 1, "velocity": 61}, {"time": 2237, "pitch": 39, "duration": 13, "velocity": 88}, {"time": 2237, "pitch": 63, "duration": 6, "velocity": 97}, {"time": 2237, "pitch": 66, "duration": 5, "velocity": 92}, {"time": 2237, "pitch": 70, "duration": 6, "velocity": 100}, {"time": 2243, "pitch": 51, "duration": 9, "velocity": 92}, {"time": 2249, "pitch": 66, "duration": 5, "velocity": 92}, {"time": 2249, "pitch": 70, "duration": 5, "velocity": 107}, {"time": 2255, "pitch": 63, "duration": 2, "velocity": 81}, {"time": 2261, "pitch": 44, "duration": 11, "velocity": 97}, {"time": 2261, "pitch": 56, "duration": 10, "velocity": 92}, {"time": 2261, "pitch": 60, "duration": 6, "velocity": 100}, {"time": 2261, "pitch": 63, "duration": 10, "velocity": 86}, {"time": 2261, "pitch": 68, "duration": 6, "velocity": 83}, {"time": 2273, "pitch": 48, "duration": 7, "velocity": 96}, {"time": 2273, "pitch": 56, "duration": 6, "velocity": 96}, {"time": 2273, "pitch": 60, "duration": 6, "velocity": 96}, {"time": 2273, "pitch": 63, "duration": 7, "velocity": 96}, {"time": 2273, "pitch": 68, "duration": 6, "velocity": 96}, {"time": 2285, "pitch": 49, "duration": 20, "velocity": 97}, {"time": 2285, "pitch": 61, "duration": 9, "velocity": 97}, {"time": 2285, "pitch": 65, "duration": 9, "velocity": 97}, {"time": 2285, "pitch": 68, "duration": 9, "velocity": 97}, {"time": 2297, "pitch": 61, "duration": 3, "velocity": 89}, {"time": 2297, "pitch": 65, "duration": 6, "velocity": 127}, {"time": 2297, "pitch": 68, "duration": 5, "velocity": 127}, {"time": 2303, "pitch": 61, "duration": 1, "velocity": 81}, {"time": 2309, "pitch": 44, "duration": 9, "velocity": 97}, {"time": 2309, "pitch": 56, "duration": 8, "velocity": 107}, {"time": 2309, "pitch": 59, "duration": 10, "velocity": 107}, {"time": 2309, "pitch": 63, "duration": 10, "velocity": 107}, {"time": 2321, "pitch": 43, "duration": 12, "velocity": 76}, {"time": 2321, "pitch": 55, "duration": 9, "velocity": 93}, {"time": 2321, "pitch": 59, "duration": 8, "velocity": 102}, {"time": 2321, "pitch": 63, "duration": 8, "velocity": 97}, {"time": 2333, "pitch": 42, "duration": 18, "velocity": 79}, {"time": 2333, "pitch": 54, "duration": 4, "velocity": 83}, {"time": 2333, "pitch": 58, "duration": 5, "velocity": 99}, {"time": 2333, "pitch": 61, "duration": 6, "velocity": 88}, {"time": 2333, "pitch": 65, "duration": 5, "velocity": 92}, {"time": 2339, "pitch": 54, "duration": 7, "velocity": 38}, {"time": 2345, "pitch": 58, "duration": 11, "velocity": 96}, {"time": 2345, "pitch": 61, "duration": 11, "velocity": 89}, {"time": 2345, "pitch": 65, "duration": 10, "velocity": 86}, {"time": 2351, "pitch": 54, "duration": 5, "velocity": 73}, {"time": 2357, "pitch": 54, "duration": 10, "velocity": 90}, {"time": 2357, "pitch": 58, "duration": 10, "velocity": 93}, {"time": 2357, "pitch": 61, "duration": 11, "velocity": 86}, {"time": 2357, "pitch": 65, "duration": 10, "velocity": 86}, {"time": 2357, "pitch": 68, "duration": 5, "velocity": 99}, {"time": 2369, "pitch": 42, "duration": 6, "velocity": 70}, {"time": 2369, "pitch": 54, "duration": 8, "velocity": 81}, {"time": 2369, "pitch": 58, "duration": 9, "velocity": 100}, {"time": 2369, "pitch": 61, "duration": 8, "velocity": 92}, {"time": 2369, "pitch": 65, "duration": 8, "velocity": 92}, {"time": 2381, "pitch": 44, "duration": 18, "velocity": 89}, {"time": 2381, "pitch": 56, "duration": 5, "velocity": 86}, {"time": 2381, "pitch": 60, "duration": 6, "velocity": 100}, {"time": 2381, "pitch": 63, "duration": 7, "velocity": 95}, {"time": 2387, "pitch": 56, "duration": 11, "velocity": 61}, {"time": 2393, "pitch": 63, "duration": 6, "velocity": 127}, {"time": 2399, "pitch": 60, "duration": 1, "velocity": 35}, {"time": 2405, "pitch": 46, "duration": 16, "velocity": 71}, {"time": 2405, "pitch": 58, "duration": 9, "velocity": 65}, {"time": 2405, "pitch": 61, "duration": 9, "velocity": 75}, {"time": 2405, "pitch": 65, "duration": 9, "velocity": 77}, {"time": 2417, "pitch": 61, "duration": 6, "velocity": 95}, {"time": 2417, "pitch": 65, "duration": 6, "velocity": 107}, {"time": 2423, "pitch": 58, "duration": 1, "velocity": 85}, {"time": 2429, "pitch": 39, "duration": 16, "velocity": 117}, {"time": 2429, "pitch": 63, "duration": 6, "velocity": 102}, {"time": 2429, "pitch": 66, "duration": 6, "velocity": 85}, {"time": 2429, "pitch": 70, "duration": 6, "velocity": 97}, {"time": 2435, "pitch": 51, "duration": 7, "velocity": 82}, {"time": 2441, "pitch": 66, "duration": 5, "velocity": 99}, {"time": 2441, "pitch": 70, "duration": 5, "velocity": 127}, {"time": 2444, "pitch": 51, "duration": 3, "velocity": 95}, {"time": 2447, "pitch": 63, "duration": 1, "velocity": 93}, {"time": 2453, "pitch": 44, "duration": 20, "velocity": 92}, {"time": 2453, "pitch": 56, "duration": 9, "velocity": 97}, {"time": 2453, "pitch": 60, "duration": 19, "velocity": 100}, {"time": 2453, "pitch": 63, "duration": 8, "velocity": 95}, {"time": 2477, "pitch": 37, "duration": 48, "velocity": 63}, {"time": 2477, "pitch": 65, "duration": 7, "velocity": 82}, {"time": 2477, "pitch": 68, "duration": 6, "velocity": 96}, {"time": 2480, "pitch": 49, "duration": 9, "velocity": 53}, {"time": 2483, "pitch": 61, "duration": 6, "velocity": 53}, {"time": 2486, "pitch": 65, "duration": 3, "velocity": 76}, {"time": 2489, "pitch": 68, "duration": 8, "velocity": 93}, {"time": 2492, "pitch": 49, "duration": 5, "velocity": 61}, {"time": 2495, "pitch": 66, "duration": 6, "velocity": 85}, {"time": 2501, "pitch": 49, "duration": 23, "velocity": 49}, {"time": 2501, "pitch": 61, "duration": 24, "velocity": 53}, {"time": 2501, "pitch": 65, "duration": 23, "velocity": 62}, {"time": 2501, "pitch": 68, "duration": 24, "velocity": 35}, {"time": 2525, "pitch": 61, "duration": 24, "velocity": 37}, {"time": 2525, "pitch": 65, "duration": 24, "velocity": 41}, {"time": 2525, "pitch": 68, "duration": 25, "velocity": 38}, {"time": 2525, "pitch": 56, "duration": 24, "velocity": 45}, {"time": 2525, "pitch": 49, "duration": 25, "velocity": 52}, {"time": 2548, "pitch": 63, "duration": 47, "velocity": 46}, {"time": 2548, "pitch": 56, "duration": 1, "velocity": 64}, {"time": 2548, "pitch": 68, "duration": 2, "velocity": 67}, {"time": 2548, "pitch": 72, "duration": 47, "velocity": 58}, {"time": 2592, "pitch": 61, "duration": 106, "velocity": 42}, {"time": 2592, "pitch": 68, "duration": 3, "velocity": 56}, {"time": 2592, "pitch": 65, "duration": 106, "velocity": 67}, {"time": 2592, "pitch": 49, "duration": 106, "velocity": 56}, {"time": 2694, "pitch": 49, "duration": 4, "velocity": 68}, {"time": 2694, "pitch": 37, "duration": 65, "velocity": 68}], "annotations": [{"time": 26, "annotation": {"number": 64, "value": 127}, "group": "control_change"}, {"time": 35, "annotation": {"number": 64, "value": 127}, "group": "control_change"}, {"time": 41, "annotation": {"number": 64, "value": 127}, "group": "control_change"}, {"time": 52, "annotation": {"number": 64, "value": 0}, "group": "control_change"}, {"time": 53, "annotation": {"number": 64, "value": 127}, "group": "control_change"}, {"time": 57, "annotation": {"number": 64, "value": 0}, "group": "control_change"}, {"time": 60, "annotation": {"number": 64, "value": 127}, "group": "control_change"}, {"time": 76, "annotation": {"number": 64, "value": 0}, "group": "control_change"}, {"time": 99, "annotation": {"number": 64, "value": 0}, "group": "control_change"}, {"time": 100, "annotation": {"number": 64, "value": 127}, "group": "control_change"}, {"time": 122, "annotation": {"number": 64, "value": 0}, "group": "control_change"}, {"time": 124, "annotation": {"number": 64, "value": 127}, "group": "control_change"}, {"time": 171, "annotation": {"number": 64, "value": 0}, "group": "control_change"}, {"time": 171, "annotation": {"number": 64, "value": 127}, "group": "control_change"}, {"time": 195, "annotation": {"number": 64, "value": 0}, "group": "control_change"}, {"time": 195, "annotation": {"number": 64, "value": 127}, "group": "control_change"}, {"time": 218, "annotation": {"number": 64, "value": 0}, "group": "control_change"}, {"time": 221, "annotation": {"number": 64, "value": 127}, "group": "control_change"}, {"time": 245, "annotation": {"number": 64, "value": 127}, "group": "control_change"}, {"time": 246, "annotation": {"number": 64, "value": 0}, "group": "control_change"}, {"time": 266, "annotation": {"number": 64, "value": 0}, "group": "control_change"}, {"time": 268, "annotation": {"number": 64, "value": 127}, "group": "control_change"}, {"time": 292, "annotation": {"number": 64, "value": 0}, "group": "control_change"}, {"time": 293, "annotation": {"number": 64, "value": 127}, "group": "control_change"}, {"time": 315, "annotation": {"number": 64, "value": 0}, "group": "control_change"}, {"time": 317, "annotation": {"number": 64, "value": 127}, "group": "control_change"}, {"time": 340, "annotation": {"number": 64, "value": 0}, "group": "control_change"}, {"time": 343, "annotation": {"number": 64, "value": 127}, "group": "control_change"}, {"time": 352, "annotation": {"number": 64, "value": 0}, "group": "control_change"}, {"time": 355, "annotation": {"number": 64, "value": 127}, "group": "control_change"}, {"time": 364, "annotation": {"number": 64, "value": 0}, "group": "control_change"}, {"time": 366, "annotation": {"number": 64, "value": 127}, "group": "control_change"}, {"time": 388, "annotation": {"number": 64, "value": 0}, "group": "control_change"}, {"time": 389, "annotation": {"number": 64, "value": 127}, "group": "control_change"}, {"time": 412, "annotation": {"number": 64, "value": 0}, "group": "control_change"}, {"time": 421, "annotation": {"number": 64, "value": 127}, "group": "control_change"}, {"time": 436, "annotation": {"number": 64, "value": 0}, "group": "control_change"}, {"time": 441, "annotation": {"number": 64, "value": 127}, "group": "control_change"}, {"time": 461, "annotation": {"number": 64, "value": 0}, "group": "control_change"}, {"time": 465, "annotation": {"number": 64, "value": 127}, "group": "control_change"}, {"time": 484, "annotation": {"number": 64, "value": 0}, "group": "control_change"}, {"time": 486, "annotation": {"number": 64, "value": 127}, "group": "control_change"}, {"time": 509, "annotation": {"number": 64, "value": 0}, "group": "control_change"}, {"time": 512, "annotation": {"number": 64, "value": 127}, "group": "control_change"}, {"time": 531, "annotation": {"number": 64, "value": 0}, "group": "control_change"}, {"time": 534, "annotation": {"number": 64, "value": 127}, "group": "control_change"}, {"time": 543, "annotation": {"number": 64, "value": 0}, "group": "control_change"}, {"time": 573, "annotation": {"number": 64, "value": 127}, "group": "control_change"}, {"time": 580, "annotation": {"number": 64, "value": 0}, "group": "control_change"}, {"time": 628, "annotation": {"number": 64, "value": 127}, "group": "control_change"}, {"time": 653, "annotation": {"number": 64, "value": 0}, "group": "control_change"}, {"time": 655, "annotation": {"number": 64, "value": 127}, "group": "control_change"}, {"time": 700, "annotation": {"number": 64, "value": 0}, "group": "control_change"}, {"time": 702, "annotation": {"number": 64, "value": 127}, "group": "control_change"}, {"time": 723, "annotation": {"number": 64, "value": 0}, "group": "control_change"}, {"time": 725, "annotation": {"number": 64, "value": 127}, "group": "control_change"}, {"time": 747, "annotation": {"number": 64, "value": 0}, "group": "control_change"}, {"time": 749, "annotation": {"number": 64, "value": 127}, "group": "control_change"}, {"time": 771, "annotation": {"number": 64, "value": 0}, "group": "control_change"}, {"time": 772, "annotation": {"number": 64, "value": 127}, "group": "control_change"}, {"time": 785, "annotation": {"number": 64, "value": 0}, "group": "control_change"}, {"time": 787, "annotation": {"number": 64, "value": 127}, "group": "control_change"}, {"time": 796, "annotation": {"number": 64, "value": 0}, "group": "control_change"}, {"time": 797, "annotation": {"number": 64, "value": 127}, "group": "control_change"}, {"time": 818, "annotation": {"number": 64, "value": 0}, "group": "control_change"}, {"time": 820, "annotation": {"number": 64, "value": 127}, "group": "control_change"}, {"time": 843, "annotation": {"number": 64, "value": 0}, "group": "control_change"}, {"time": 845, "annotation": {"number": 64, "value": 127}, "group": "control_change"}, {"time": 867, "annotation": {"number": 64, "value": 0}, "group": "control_change"}, {"time": 869, "annotation": {"number": 64, "value": 127}, "group": "control_change"}, {"time": 891, "annotation": {"number": 64, "value": 0}, "group": "control_change"}, {"time": 893, "annotation": {"number": 64, "value": 127}, "group": "control_change"}, {"time": 915, "annotation": {"number": 64, "value": 0}, "group": "control_change"}, {"time": 917, "annotation": {"number": 64, "value": 127}, "group": "control_change"}, {"time": 939, "annotation": {"number": 64, "value": 0}, "group": "control_change"}, {"time": 941, "annotation": {"number": 64, "value": 127}, "group": "control_change"}, {"time": 963, "annotation": {"number": 64, "value": 0}, "group": "control_change"}, {"time": 965, "annotation": {"number": 64, "value": 127}, "group": "control_change"}, {"time": 976, "annotation": {"number": 64, "value": 0}, "group": "control_change"}, {"time": 977, "annotation": {"number": 64, "value": 127}, "group": "control_change"}, {"time": 988, "annotation": {"number": 64, "value": 0}, "group": "control_change"}, {"time": 993, "annotation": {"number": 64, "value": 127}, "group": "control_change"}, {"time": 1012, "annotation": {"number": 64, "value": 0}, "group": "control_change"}, {"time": 1014, "annotation": {"number": 64, "value": 127}, "group": "control_change"}, {"time": 1035, "annotation": {"number": 64, "value": 0}, "group": "control_change"}, {"time": 1037, "annotation": {"number": 64, "value": 127}, "group": "control_change"}, {"time": 1083, "annotation": {"number": 64, "value": 0}, "group": "control_change"}, {"time": 1085, "annotation": {"number": 64, "value": 127}, "group": "control_change"}, {"time": 1107, "annotation": {"number": 64, "value": 0}, "group": "control_change"}, {"time": 1108, "annotation": {"number": 64, "value": 127}, "group": "control_change"}, {"time": 1121, "annotation": {"number": 64, "value": 0}, "group": "control_change"}, {"time": 1123, "annotation": {"number": 64, "value": 127}, "group": "control_change"}, {"time": 1132, "annotation": {"number": 64, "value": 0}, "group": "control_change"}, {"time": 1134, "annotation": {"number": 64, "value": 127}, "group": "control_change"}, {"time": 1156, "annotation": {"number": 64, "value": 0}, "group": "control_change"}, {"time": 1157, "annotation": {"number": 64, "value": 127}, "group": "control_change"}, {"time": 1168, "annotation": {"number": 64, "value": 0}, "group": "control_change"}, {"time": 1169, "annotation": {"number": 64, "value": 127}, "group": "control_change"}, {"time": 1180, "annotation": {"number": 64, "value": 127}, "group": "control_change"}, {"time": 1180, "annotation": {"number": 64, "value": 0}, "group": "control_change"}, {"time": 1204, "annotation": {"number": 64, "value": 0}, "group": "control_change"}, {"time": 1204, "annotation": {"number": 64, "value": 127}, "group": "control_change"}, {"time": 1230, "annotation": {"number": 64, "value": 0}, "group": "control_change"}, {"time": 1235, "annotation": {"number": 64, "value": 127}, "group": "control_change"}, {"time": 1252, "annotation": {"number": 64, "value": 0}, "group": "control_change"}, {"time": 1261, "annotation": {"number": 64, "value": 127}, "group": "control_change"}, {"time": 1277, "annotation": {"number": 64, "value": 0}, "group": "control_change"}, {"time": 1278, "annotation": {"number": 64, "value": 127}, "group": "control_change"}, {"time": 1300, "annotation": {"number": 64, "value": 0}, "group": "control_change"}, {"time": 1301, "annotation": {"number": 64, "value": 127}, "group": "control_change"}, {"time": 1324, "annotation": {"number": 64, "value": 0}, "group": "control_change"}, {"time": 1324, "annotation": {"number": 64, "value": 127}, "group": "control_change"}, {"time": 1348, "annotation": {"number": 64, "value": 0}, "group": "control_change"}, {"time": 1350, "annotation": {"number": 64, "value": 127}, "group": "control_change"}, {"time": 1372, "annotation": {"number": 64, "value": 0}, "group": "control_change"}, {"time": 1372, "annotation": {"number": 64, "value": 127}, "group": "control_change"}, {"time": 1516, "annotation": {"number": 64, "value": 0}, "group": "control_change"}, {"time": 1517, "annotation": {"number": 64, "value": 127}, "group": "control_change"}, {"time": 1564, "annotation": {"number": 64, "value": 0}, "group": "control_change"}, {"time": 1566, "annotation": {"number": 64, "value": 127}, "group": "control_change"}, {"time": 1611, "annotation": {"number": 64, "value": 0}, "group": "control_change"}, {"time": 1613, "annotation": {"number": 64, "value": 127}, "group": "control_change"}, {"time": 1635, "annotation": {"number": 64, "value": 0}, "group": "control_change"}, {"time": 1636, "annotation": {"number": 64, "value": 127}, "group": "control_change"}, {"time": 1660, "annotation": {"number": 64, "value": 0}, "group": "control_change"}, {"time": 1661, "annotation": {"number": 64, "value": 127}, "group": "control_change"}, {"time": 1684, "annotation": {"number": 64, "value": 0}, "group": "control_change"}, {"time": 1685, "annotation": {"number": 64, "value": 127}, "group": "control_change"}, {"time": 1706, "annotation": {"number": 64, "value": 0}, "group": "control_change"}, {"time": 1709, "annotation": {"number": 64, "value": 127}, "group": "control_change"}, {"time": 1731, "annotation": {"number": 64, "value": 0}, "group": "control_change"}, {"time": 1734, "annotation": {"number": 64, "value": 127}, "group": "control_change"}, {"time": 1745, "annotation": {"number": 64, "value": 0}, "group": "control_change"}, {"time": 1780, "annotation": {"number": 64, "value": 127}, "group": "control_change"}, {"time": 1805, "annotation": {"number": 64, "value": 0}, "group": "control_change"}, {"time": 1807, "annotation": {"number": 64, "value": 127}, "group": "control_change"}, {"time": 1852, "annotation": {"number": 64, "value": 0}, "group": "control_change"}, {"time": 1854, "annotation": {"number": 64, "value": 127}, "group": "control_change"}, {"time": 1875, "annotation": {"number": 64, "value": 0}, "group": "control_change"}, {"time": 1877, "annotation": {"number": 64, "value": 127}, "group": "control_change"}, {"time": 1899, "annotation": {"number": 64, "value": 0}, "group": "control_change"}, {"time": 1949, "annotation": {"number": 64, "value": 127}, "group": "control_change"}, {"time": 1970, "annotation": {"number": 64, "value": 0}, "group": "control_change"}, {"time": 1972, "annotation": {"number": 64, "value": 127}, "group": "control_change"}, {"time": 1995, "annotation": {"number": 64, "value": 0}, "group": "control_change"}, {"time": 1997, "annotation": {"number": 64, "value": 127}, "group": "control_change"}, {"time": 2019, "annotation": {"number": 64, "value": 0}, "group": "control_change"}, {"time": 2021, "annotation": {"number": 64, "value": 127}, "group": "control_change"}, {"time": 2043, "annotation": {"number": 64, "value": 0}, "group": "control_change"}, {"time": 2045, "annotation": {"number": 64, "value": 127}, "group": "control_change"}, {"time": 2067, "annotation": {"number": 64, "value": 0}, "group": "control_change"}, {"time": 2069, "annotation": {"number": 64, "value": 127}, "group": "control_change"}, {"time": 2091, "annotation": {"number": 64, "value": 0}, "group": "control_change"}, {"time": 2093, "annotation": {"number": 64, "value": 127}, "group": "control_change"}, {"time": 2115, "annotation": {"number": 64, "value": 0}, "group": "control_change"}, {"time": 2117, "annotation": {"number": 64, "value": 127}, "group": "control_change"}, {"time": 2128, "annotation": {"number": 64, "value": 0}, "group": "control_change"}, {"time": 2129, "annotation": {"number": 64, "value": 127}, "group": "control_change"}, {"time": 2140, "annotation": {"number": 64, "value": 0}, "group": "control_change"}, {"time": 2145, "annotation": {"number": 64, "value": 127}, "group": "control_change"}, {"time": 2164, "annotation": {"number": 64, "value": 0}, "group": "control_change"}, {"time": 2166, "annotation": {"number": 64, "value": 127}, "group": "control_change"}, {"time": 2187, "annotation": {"number": 64, "value": 0}, "group": "control_change"}, {"time": 2189, "annotation": {"number": 64, "value": 127}, "group": "control_change"}, {"time": 2235, "annotation": {"number": 64, "value": 0}, "group": "control_change"}, {"time": 2237, "annotation": {"number": 64, "value": 127}, "group": "control_change"}, {"time": 2259, "annotation": {"number": 64, "value": 0}, "group": "control_change"}, {"time": 2260, "annotation": {"number": 64, "value": 127}, "group": "control_change"}, {"time": 2273, "annotation": {"number": 64, "value": 0}, "group": "control_change"}, {"time": 2275, "annotation": {"number": 64, "value": 127}, "group": "control_change"}, {"time": 2284, "annotation": {"number": 64, "value": 0}, "group": "control_change"}, {"time": 2286, "annotation": {"number": 64, "value": 127}, "group": "control_change"}, {"time": 2308, "annotation": {"number": 64, "value": 0}, "group": "control_change"}, {"time": 2309, "annotation": {"number": 64, "value": 127}, "group": "control_change"}, {"time": 2320, "annotation": {"number": 64, "value": 0}, "group": "control_change"}, {"time": 2321, "annotation": {"number": 64, "value": 127}, "group": "control_change"}, {"time": 2332, "annotation": {"number": 64, "value": 127}, "group": "control_change"}, {"time": 2332, "annotation": {"number": 64, "value": 0}, "group": "control_change"}, {"time": 2356, "annotation": {"number": 64, "value": 0}, "group": "control_change"}, {"time": 2356, "annotation": {"number": 64, "value": 127}, "group": "control_change"}, {"time": 2382, "annotation": {"number": 64, "value": 0}, "group": "control_change"}, {"time": 2387, "annotation": {"number": 64, "value": 127}, "group": "control_change"}, {"time": 2404, "annotation": {"number": 64, "value": 0}, "group": "control_change"}, {"time": 2413, "annotation": {"number": 64, "value": 127}, "group": "control_change"}, {"time": 2429, "annotation": {"number": 64, "value": 0}, "group": "control_change"}, {"time": 2430, "annotation": {"number": 64, "value": 127}, "group": "control_change"}, {"time": 2452, "annotation": {"number": 64, "value": 0}, "group": "control_change"}, {"time": 2453, "annotation": {"number": 64, "value": 127}, "group": "control_change"}, {"time": 2476, "annotation": {"number": 64, "value": 0}, "group": "control_change"}, {"time": 2476, "annotation": {"number": 64, "value": 127}, "group": "control_change"}, {"time": 2500, "annotation": {"number": 64, "value": 0}, "group": "control_change"}, {"time": 2502, "annotation": {"number": 64, "value": 127}, "group": "control_change"}, {"time": 2524, "annotation": {"number": 64, "value": 0}, "group": "control_change"}, {"time": 2524, "annotation": {"number": 64, "value": 127}, "group": "control_change"}]}]}