{"metadata": {"schema_version": "0.2", "title": "None", "source_filename": "176.mid", "source_format": "midi"}, "resolution": 12, "tempos": [{"time": 0, "qpm": 90.99995298335763}, {"time": 1500, "qpm": 90.5000580708706}, {"time": 1860, "qpm": 90.99995298335763}, {"time": 2616, "qpm": 89.9999550000225}, {"time": 2652, "qpm": 86.00005160003096}, {"time": 2664, "qpm": 84.000084000084}, {"time": 2676, "qpm": 70.00007000007}, {"time": 2688, "qpm": 68.0000725334107}, {"time": 2700, "qpm": 64.0}, {"time": 2712, "qpm": 55.00000458333371}, {"time": 2724, "qpm": 89.9999550000225}, {"time": 2760, "qpm": 90.99995298335763}, {"time": 2796, "qpm": 91.99998773333498}, {"time": 2832, "qpm": 93.000186000372}, {"time": 2904, "qpm": 90.99995298335763}, {"time": 2940, "qpm": 88.00002346667293}, {"time": 2964, "qpm": 84.000084000084}, {"time": 2976, "qpm": 86.00005160003096}, {"time": 3084, "qpm": 87.00002175000543}, {"time": 3096, "qpm": 88.00002346667293}, {"time": 3120, "qpm": 89.9999550000225}, {"time": 3192, "qpm": 90.99995298335763}], "time_signatures": [{"time": 0, "numerator": 1, "denominator": 4}], "tracks": [{"program": 0, "is_drum": false, "name": "MELODY", "notes": [{"time": 657, "pitch": 65, "duration": 6, "velocity": 89}, {"time": 663, "pitch": 70, "duration": 24, "velocity": 96}, {"time": 687, "pitch": 72, "duration": 6, "velocity": 93}, {"time": 693, "pitch": 77, "duration": 6, "velocity": 97}, {"time": 699, "pitch": 74, "duration": 30, "velocity": 85}, {"time": 729, "pitch": 67, "duration": 6, "velocity": 93}, {"time": 735, "pitch": 70, "duration": 18, "velocity": 100}, {"time": 753, "pitch": 72, "duration": 6, "velocity": 107}, {"time": 759, "pitch": 67, "duration": 6, "velocity": 93}, {"time": 765, "pitch": 65, "duration": 6, "velocity": 96}, {"time": 771, "pitch": 65, "duration": 30, "velocity": 90}, {"time": 801, "pitch": 65, "duration": 6, "velocity": 90}, {"time": 807, "pitch": 70, "duration": 24, "velocity": 93}, {"time": 831, "pitch": 72, "duration": 6, "velocity": 100}, {"time": 837, "pitch": 79, "duration": 6, "velocity": 100}, {"time": 843, "pitch": 74, "duration": 13, "velocity": 96}, {"time": 855, "pitch": 72, "duration": 12, "velocity": 95}, {"time": 867, "pitch": 70, "duration": 12, "velocity": 102}, {"time": 879, "pitch": 72, "duration": 66, "velocity": 89}, {"time": 945, "pitch": 65, "duration": 6, "velocity": 93}, {"time": 951, "pitch": 70, "duration": 24, "velocity": 112}, {"time": 975, "pitch": 72, "duration": 6, "velocity": 102}, {"time": 981, "pitch": 77, "duration": 6, "velocity": 102}, {"time": 987, "pitch": 74, "duration": 30, "velocity": 97}, {"time": 1017, "pitch": 67, "duration": 6, "velocity": 92}, {"time": 1023, "pitch": 70, "duration": 20, "velocity": 100}, {"time": 1041, "pitch": 72, "duration": 6, "velocity": 99}, {"time": 1047, "pitch": 67, "duration": 12, "velocity": 95}, {"time": 1059, "pitch": 65, "duration": 30, "velocity": 93}, {"time": 1089, "pitch": 74, "duration": 6, "velocity": 93}, {"time": 1095, "pitch": 77, "duration": 24, "velocity": 97}, {"time": 1119, "pitch": 77, "duration": 12, "velocity": 107}, {"time": 1131, "pitch": 82, "duration": 24, "velocity": 127}, {"time": 1155, "pitch": 70, "duration": 12, "velocity": 117}, {"time": 1167, "pitch": 72, "duration": 24, "velocity": 127}, {"time": 1191, "pitch": 74, "duration": 12, "velocity": 117}, {"time": 1203, "pitch": 72, "duration": 30, "velocity": 102}, {"time": 1233, "pitch": 65, "duration": 6, "velocity": 93}, {"time": 1239, "pitch": 70, "duration": 24, "velocity": 117}, {"time": 1263, "pitch": 72, "duration": 6, "velocity": 97}, {"time": 1269, "pitch": 77, "duration": 6, "velocity": 100}, {"time": 1275, "pitch": 74, "duration": 30, "velocity": 107}, {"time": 1305, "pitch": 67, "duration": 6, "velocity": 99}, {"time": 1311, "pitch": 70, "duration": 18, "velocity": 117}, {"time": 1329, "pitch": 72, "duration": 6, "velocity": 100}, {"time": 1335, "pitch": 67, "duration": 6, "velocity": 82}, {"time": 1341, "pitch": 65, "duration": 6, "velocity": 69}, {"time": 1347, "pitch": 65, "duration": 31, "velocity": 88}, {"time": 1377, "pitch": 74, "duration": 6, "velocity": 88}, {"time": 1383, "pitch": 77, "duration": 12, "velocity": 97}, {"time": 1395, "pitch": 74, "duration": 12, "velocity": 95}, {"time": 1407, "pitch": 72, "duration": 13, "velocity": 93}, {"time": 1419, "pitch": 70, "duration": 16, "velocity": 97}, {"time": 1431, "pitch": 72, "duration": 12, "velocity": 112}, {"time": 1443, "pitch": 74, "duration": 13, "velocity": 107}, {"time": 1455, "pitch": 72, "duration": 18, "velocity": 100}, {"time": 1473, "pitch": 70, "duration": 6, "velocity": 102}, {"time": 1479, "pitch": 72, "duration": 12, "velocity": 100}, {"time": 1491, "pitch": 70, "duration": 81, "velocity": 127}, {"time": 2055, "pitch": 74, "duration": 6, "velocity": 112}, {"time": 2061, "pitch": 77, "duration": 6, "velocity": 117}, {"time": 2067, "pitch": 77, "duration": 12, "velocity": 117}, {"time": 2079, "pitch": 77, "duration": 12, "velocity": 127}, {"time": 2091, "pitch": 77, "duration": 12, "velocity": 112}, {"time": 2103, "pitch": 79, "duration": 12, "velocity": 127}, {"time": 2115, "pitch": 77, "duration": 18, "velocity": 127}, {"time": 2133, "pitch": 74, "duration": 6, "velocity": 122}, {"time": 2139, "pitch": 72, "duration": 8, "velocity": 117}, {"time": 2145, "pitch": 70, "duration": 6, "velocity": 99}, {"time": 2151, "pitch": 70, "duration": 18, "velocity": 107}, {"time": 2169, "pitch": 67, "duration": 6, "velocity": 100}, {"time": 2175, "pitch": 70, "duration": 30, "velocity": 102}, {"time": 2205, "pitch": 77, "duration": 6, "velocity": 117}, {"time": 2211, "pitch": 77, "duration": 24, "velocity": 127}, {"time": 2235, "pitch": 77, "duration": 12, "velocity": 122}, {"time": 2247, "pitch": 79, "duration": 12, "velocity": 117}, {"time": 2259, "pitch": 77, "duration": 18, "velocity": 117}, {"time": 2277, "pitch": 74, "duration": 6, "velocity": 127}, {"time": 2283, "pitch": 72, "duration": 66, "velocity": 102}, {"time": 2349, "pitch": 65, "duration": 6, "velocity": 97}, {"time": 2355, "pitch": 70, "duration": 24, "velocity": 127}, {"time": 2379, "pitch": 72, "duration": 6, "velocity": 112}, {"time": 2385, "pitch": 77, "duration": 12, "velocity": 112}, {"time": 2397, "pitch": 74, "duration": 24, "velocity": 127}, {"time": 2421, "pitch": 67, "duration": 6, "velocity": 90}, {"time": 2427, "pitch": 70, "duration": 18, "velocity": 100}, {"time": 2445, "pitch": 72, "duration": 6, "velocity": 117}, {"time": 2451, "pitch": 67, "duration": 12, "velocity": 100}, {"time": 2463, "pitch": 65, "duration": 30, "velocity": 102}, {"time": 2493, "pitch": 67, "duration": 6, "velocity": 100}, {"time": 2499, "pitch": 70, "duration": 24, "velocity": 122}, {"time": 2523, "pitch": 72, "duration": 6, "velocity": 112}, {"time": 2529, "pitch": 79, "duration": 12, "velocity": 127}, {"time": 2541, "pitch": 74, "duration": 18, "velocity": 127}, {"time": 2559, "pitch": 72, "duration": 6, "velocity": 102}, {"time": 2565, "pitch": 70, "duration": 6, "velocity": 99}, {"time": 2571, "pitch": 72, "duration": 60, "velocity": 122}, {"time": 2631, "pitch": 70, "duration": 12, "velocity": 122}, {"time": 2643, "pitch": 70, "duration": 60, "velocity": 122}, {"time": 2703, "pitch": 74, "duration": 6, "velocity": 127}, {"time": 2709, "pitch": 77, "duration": 6, "velocity": 122}, {"time": 2715, "pitch": 77, "duration": 12, "velocity": 127}, {"time": 2727, "pitch": 77, "duration": 12, "velocity": 112}, {"time": 2739, "pitch": 77, "duration": 12, "velocity": 122}, {"time": 2751, "pitch": 79, "duration": 12, "velocity": 127}, {"time": 2763, "pitch": 77, "duration": 18, "velocity": 127}, {"time": 2781, "pitch": 74, "duration": 6, "velocity": 127}, {"time": 2787, "pitch": 72, "duration": 12, "velocity": 127}, {"time": 2799, "pitch": 70, "duration": 18, "velocity": 127}, {"time": 2817, "pitch": 67, "duration": 6, "velocity": 102}, {"time": 2823, "pitch": 70, "duration": 30, "velocity": 122}, {"time": 2853, "pitch": 74, "duration": 6, "velocity": 99}, {"time": 2859, "pitch": 77, "duration": 24, "velocity": 112}, {"time": 2883, "pitch": 77, "duration": 12, "velocity": 117}, {"time": 2895, "pitch": 79, "duration": 12, "velocity": 122}, {"time": 2907, "pitch": 77, "duration": 18, "velocity": 127}, {"time": 2925, "pitch": 74, "duration": 6, "velocity": 122}, {"time": 2931, "pitch": 72, "duration": 66, "velocity": 117}, {"time": 2997, "pitch": 65, "duration": 6, "velocity": 79}, {"time": 3003, "pitch": 70, "duration": 21, "velocity": 117}, {"time": 3024, "pitch": 72, "duration": 9, "velocity": 102}, {"time": 3033, "pitch": 77, "duration": 6, "velocity": 107}, {"time": 3039, "pitch": 74, "duration": 30, "velocity": 112}, {"time": 3069, "pitch": 67, "duration": 6, "velocity": 97}, {"time": 3075, "pitch": 70, "duration": 18, "velocity": 112}, {"time": 3093, "pitch": 72, "duration": 6, "velocity": 100}, {"time": 3099, "pitch": 67, "duration": 12, "velocity": 96}, {"time": 3111, "pitch": 65, "duration": 30, "velocity": 97}, {"time": 3141, "pitch": 65, "duration": 6, "velocity": 95}, {"time": 3147, "pitch": 70, "duration": 24, "velocity": 122}, {"time": 3171, "pitch": 72, "duration": 6, "velocity": 102}, {"time": 3177, "pitch": 79, "duration": 6, "velocity": 97}, {"time": 3183, "pitch": 74, "duration": 12, "velocity": 97}, {"time": 3195, "pitch": 72, "duration": 12, "velocity": 127}, {"time": 3207, "pitch": 70, "duration": 12, "velocity": 122}, {"time": 3219, "pitch": 72, "duration": 60, "velocity": 107}, {"time": 3279, "pitch": 70, "duration": 18, "velocity": 122}, {"time": 3297, "pitch": 70, "duration": 87, "velocity": 117}]}, {"program": 0, "is_drum": false, "name": "BRIDGE", "notes": [{"time": 3, "pitch": 65, "duration": 12, "velocity": 97}, {"time": 15, "pitch": 70, "duration": 25, "velocity": 107}, {"time": 39, "pitch": 72, "duration": 6, "velocity": 107}, {"time": 45, "pitch": 77, "duration": 6, "velocity": 122}, {"time": 51, "pitch": 74, "duration": 29, "velocity": 127}, {"time": 81, "pitch": 67, "duration": 5, "velocity": 95}, {"time": 87, "pitch": 70, "duration": 18, "velocity": 102}, {"time": 105, "pitch": 72, "duration": 5, "velocity": 102}, {"time": 111, "pitch": 67, "duration": 11, "velocity": 95}, {"time": 123, "pitch": 65, "duration": 24, "velocity": 99}, {"time": 153, "pitch": 65, "duration": 5, "velocity": 95}, {"time": 159, "pitch": 70, "duration": 21, "velocity": 122}, {"time": 183, "pitch": 72, "duration": 6, "velocity": 112}, {"time": 189, "pitch": 79, "duration": 6, "velocity": 100}, {"time": 195, "pitch": 74, "duration": 14, "velocity": 117}, {"time": 207, "pitch": 72, "duration": 18, "velocity": 112}, {"time": 225, "pitch": 70, "duration": 5, "velocity": 97}, {"time": 231, "pitch": 72, "duration": 51, "velocity": 107}, {"time": 291, "pitch": 77, "duration": 11, "velocity": 117}, {"time": 303, "pitch": 82, "duration": 19, "velocity": 127}, {"time": 327, "pitch": 84, "duration": 5, "velocity": 117}, {"time": 333, "pitch": 89, "duration": 6, "velocity": 117}, {"time": 339, "pitch": 86, "duration": 27, "velocity": 122}, {"time": 363, "pitch": 79, "duration": 11, "velocity": 117}, {"time": 375, "pitch": 82, "duration": 19, "velocity": 127}, {"time": 393, "pitch": 84, "duration": 8, "velocity": 112}, {"time": 399, "pitch": 79, "duration": 11, "velocity": 112}, {"time": 411, "pitch": 77, "duration": 28, "velocity": 102}, {"time": 435, "pitch": 86, "duration": 10, "velocity": 122}, {"time": 447, "pitch": 89, "duration": 22, "velocity": 112}, {"time": 471, "pitch": 86, "duration": 11, "velocity": 127}, {"time": 483, "pitch": 84, "duration": 12, "velocity": 127}, {"time": 495, "pitch": 79, "duration": 12, "velocity": 107}, {"time": 507, "pitch": 82, "duration": 9, "velocity": 127}, {"time": 519, "pitch": 82, "duration": 55, "velocity": 127}, {"time": 525, "pitch": 65, "duration": 6, "velocity": 93}, {"time": 531, "pitch": 67, "duration": 7, "velocity": 96}, {"time": 537, "pitch": 72, "duration": 5, "velocity": 96}, {"time": 543, "pitch": 74, "duration": 6, "velocity": 102}, {"time": 549, "pitch": 79, "duration": 5, "velocity": 97}, {"time": 555, "pitch": 77, "duration": 5, "velocity": 89}, {"time": 561, "pitch": 84, "duration": 5, "velocity": 100}, {"time": 567, "pitch": 82, "duration": 7, "velocity": 102}, {"time": 573, "pitch": 79, "duration": 5, "velocity": 99}, {"time": 579, "pitch": 77, "duration": 6, "velocity": 92}, {"time": 585, "pitch": 72, "duration": 5, "velocity": 99}, {"time": 591, "pitch": 74, "duration": 7, "velocity": 92}, {"time": 597, "pitch": 79, "duration": 5, "velocity": 100}, {"time": 603, "pitch": 77, "duration": 6, "velocity": 88}, {"time": 609, "pitch": 84, "duration": 5, "velocity": 96}, {"time": 615, "pitch": 82, "duration": 3, "velocity": 97}, {"time": 627, "pitch": 82, "duration": 36, "velocity": 97}, {"time": 1491, "pitch": 74, "duration": 24, "velocity": 122}, {"time": 1515, "pitch": 74, "duration": 12, "velocity": 122}, {"time": 1527, "pitch": 72, "duration": 17, "velocity": 112}, {"time": 1539, "pitch": 70, "duration": 20, "velocity": 122}, {"time": 1557, "pitch": 67, "duration": 6, "velocity": 96}, {"time": 1563, "pitch": 70, "duration": 30, "velocity": 100}, {"time": 1593, "pitch": 72, "duration": 6, "velocity": 99}, {"time": 1599, "pitch": 72, "duration": 33, "velocity": 112}, {"time": 1629, "pitch": 65, "duration": 7, "velocity": 97}, {"time": 1635, "pitch": 74, "duration": 12, "velocity": 107}, {"time": 1647, "pitch": 77, "duration": 21, "velocity": 107}, {"time": 1665, "pitch": 86, "duration": 6, "velocity": 122}, {"time": 1671, "pitch": 84, "duration": 12, "velocity": 117}, {"time": 1683, "pitch": 82, "duration": 18, "velocity": 122}, {"time": 1701, "pitch": 79, "duration": 6, "velocity": 102}, {"time": 1707, "pitch": 84, "duration": 25, "velocity": 127}, {"time": 1731, "pitch": 84, "duration": 1, "velocity": 127}, {"time": 1737, "pitch": 86, "duration": 7, "velocity": 122}, {"time": 1743, "pitch": 84, "duration": 34, "velocity": 127}, {"time": 1767, "pitch": 65, "duration": 12, "velocity": 97}, {"time": 1779, "pitch": 70, "duration": 25, "velocity": 107}, {"time": 1803, "pitch": 72, "duration": 6, "velocity": 107}, {"time": 1809, "pitch": 77, "duration": 6, "velocity": 122}, {"time": 1815, "pitch": 74, "duration": 25, "velocity": 127}, {"time": 1839, "pitch": 67, "duration": 12, "velocity": 107}, {"time": 1851, "pitch": 70, "duration": 18, "velocity": 112}, {"time": 1869, "pitch": 72, "duration": 6, "velocity": 112}, {"time": 1875, "pitch": 67, "duration": 12, "velocity": 99}, {"time": 1887, "pitch": 65, "duration": 24, "velocity": 102}, {"time": 1911, "pitch": 74, "duration": 12, "velocity": 117}, {"time": 1923, "pitch": 77, "duration": 26, "velocity": 127}, {"time": 1947, "pitch": 74, "duration": 12, "velocity": 102}, {"time": 1959, "pitch": 72, "duration": 15, "velocity": 112}, {"time": 1971, "pitch": 67, "duration": 12, "velocity": 107}, {"time": 1983, "pitch": 70, "duration": 12, "velocity": 117}, {"time": 1995, "pitch": 70, "duration": 43, "velocity": 127}, {"time": 2013, "pitch": 72, "duration": 6, "velocity": 95}, {"time": 2019, "pitch": 74, "duration": 6, "velocity": 100}, {"time": 2025, "pitch": 77, "duration": 7, "velocity": 83}, {"time": 2031, "pitch": 70, "duration": 7, "velocity": 85}, {"time": 2049, "pitch": 60, "duration": 3, "velocity": 99}, {"time": 2052, "pitch": 62, "duration": 3, "velocity": 86}, {"time": 2055, "pitch": 65, "duration": 4, "velocity": 100}, {"time": 2058, "pitch": 65, "duration": 1, "velocity": 95}, {"time": 2061, "pitch": 67, "duration": 4, "velocity": 97}, {"time": 2064, "pitch": 69, "duration": 3, "velocity": 92}, {"time": 2067, "pitch": 70, "duration": 47, "velocity": 127}, {"time": 2283, "pitch": 72, "duration": 11, "velocity": 127}, {"time": 2295, "pitch": 70, "duration": 11, "velocity": 127}, {"time": 2307, "pitch": 67, "duration": 12, "velocity": 107}, {"time": 2319, "pitch": 69, "duration": 11, "velocity": 122}, {"time": 2331, "pitch": 67, "duration": 11, "velocity": 99}, {"time": 2343, "pitch": 65, "duration": 9, "velocity": 107}, {"time": 2355, "pitch": 65, "duration": 18, "velocity": 107}, {"time": 2511, "pitch": 77, "duration": 6, "velocity": 127}, {"time": 2517, "pitch": 72, "duration": 6, "velocity": 107}, {"time": 2523, "pitch": 70, "duration": 9, "velocity": 107}, {"time": 2529, "pitch": 67, "duration": 12, "velocity": 112}, {"time": 2541, "pitch": 70, "duration": 25, "velocity": 99}, {"time": 2661, "pitch": 69, "duration": 5, "velocity": 112}, {"time": 2667, "pitch": 67, "duration": 5, "velocity": 97}, {"time": 2673, "pitch": 66, "duration": 5, "velocity": 76}, {"time": 2679, "pitch": 65, "duration": 5, "velocity": 93}, {"time": 2685, "pitch": 67, "duration": 1, "velocity": 90}, {"time": 2685, "pitch": 67, "duration": 1, "velocity": 100}, {"time": 2691, "pitch": 69, "duration": 1, "velocity": 95}, {"time": 2691, "pitch": 69, "duration": 1, "velocity": 100}, {"time": 2697, "pitch": 70, "duration": 1, "velocity": 112}, {"time": 2697, "pitch": 70, "duration": 1, "velocity": 122}, {"time": 2703, "pitch": 72, "duration": 3, "velocity": 100}, {"time": 2703, "pitch": 74, "duration": 2, "velocity": 122}, {"time": 2709, "pitch": 75, "duration": 6, "velocity": 122}, {"time": 2715, "pitch": 77, "duration": 44, "velocity": 127}, {"time": 2787, "pitch": 79, "duration": 35, "velocity": 96}, {"time": 2822, "pitch": 77, "duration": 24, "velocity": 127}, {"time": 2850, "pitch": 74, "duration": 3, "velocity": 92}, {"time": 2853, "pitch": 77, "duration": 4, "velocity": 96}, {"time": 2856, "pitch": 79, "duration": 3, "velocity": 100}, {"time": 2859, "pitch": 82, "duration": 24, "velocity": 113}, {"time": 2884, "pitch": 79, "duration": 11, "velocity": 93}, {"time": 2895, "pitch": 77, "duration": 22, "velocity": 93}, {"time": 2925, "pitch": 74, "duration": 6, "velocity": 93}, {"time": 2931, "pitch": 72, "duration": 10, "velocity": 96}, {"time": 2943, "pitch": 70, "duration": 11, "velocity": 102}, {"time": 2955, "pitch": 67, "duration": 9, "velocity": 100}, {"time": 2967, "pitch": 65, "duration": 37, "velocity": 107}, {"time": 2967, "pitch": 69, "duration": 37, "velocity": 86}, {"time": 3051, "pitch": 67, "duration": 18, "velocity": 122}, {"time": 3069, "pitch": 65, "duration": 6, "velocity": 97}, {"time": 3075, "pitch": 67, "duration": 33, "velocity": 107}, {"time": 3111, "pitch": 65, "duration": 45, "velocity": 92}, {"time": 3231, "pitch": 74, "duration": 11, "velocity": 112}, {"time": 3243, "pitch": 72, "duration": 12, "velocity": 95}, {"time": 3255, "pitch": 70, "duration": 12, "velocity": 90}, {"time": 3266, "pitch": 72, "duration": 23, "velocity": 77}, {"time": 3279, "pitch": 70, "duration": 19, "velocity": 95}, {"time": 3303, "pitch": 70, "duration": 12, "velocity": 95}, {"time": 3316, "pitch": 65, "duration": 16, "velocity": 92}, {"time": 3332, "pitch": 67, "duration": 20, "velocity": 96}, {"time": 3353, "pitch": 70, "duration": 112, "velocity": 102}]}, {"program": 0, "is_drum": false, "name": "PIANO", "notes": [{"time": 14, "pitch": 46, "duration": 28, "velocity": 73}, {"time": 26, "pitch": 62, "duration": 18, "velocity": 63}, {"time": 26, "pitch": 58, "duration": 19, "velocity": 63}, {"time": 50, "pitch": 43, "duration": 26, "velocity": 68}, {"time": 62, "pitch": 50, "duration": 14, "velocity": 71}, {"time": 62, "pitch": 58, "duration": 13, "velocity": 73}, {"time": 74, "pitch": 62, "duration": 13, "velocity": 74}, {"time": 87, "pitch": 39, "duration": 24, "velocity": 72}, {"time": 87, "pitch": 58, "duration": 13, "velocity": 59}, {"time": 87, "pitch": 63, "duration": 13, "velocity": 59}, {"time": 99, "pitch": 51, "duration": 13, "velocity": 55}, {"time": 111, "pitch": 63, "duration": 11, "velocity": 67}, {"time": 123, "pitch": 41, "duration": 27, "velocity": 68}, {"time": 135, "pitch": 48, "duration": 16, "velocity": 53}, {"time": 147, "pitch": 53, "duration": 7, "velocity": 40}, {"time": 147, "pitch": 60, "duration": 13, "velocity": 61}, {"time": 159, "pitch": 46, "duration": 28, "velocity": 73}, {"time": 171, "pitch": 58, "duration": 18, "velocity": 71}, {"time": 195, "pitch": 43, "duration": 25, "velocity": 68}, {"time": 207, "pitch": 50, "duration": 14, "velocity": 67}, {"time": 219, "pitch": 62, "duration": 13, "velocity": 74}, {"time": 231, "pitch": 39, "duration": 25, "velocity": 93}, {"time": 243, "pitch": 51, "duration": 14, "velocity": 66}, {"time": 255, "pitch": 63, "duration": 13, "velocity": 92}, {"time": 261, "pitch": 58, "duration": 6, "velocity": 57}, {"time": 267, "pitch": 41, "duration": 23, "velocity": 70}, {"time": 273, "pitch": 48, "duration": 17, "velocity": 51}, {"time": 279, "pitch": 53, "duration": 7, "velocity": 77}, {"time": 285, "pitch": 57, "duration": 6, "velocity": 82}, {"time": 291, "pitch": 60, "duration": 1, "velocity": 95}, {"time": 303, "pitch": 46, "duration": 26, "velocity": 97}, {"time": 303, "pitch": 53, "duration": 4, "velocity": 86}, {"time": 303, "pitch": 58, "duration": 12, "velocity": 127}, {"time": 303, "pitch": 62, "duration": 12, "velocity": 99}, {"time": 303, "pitch": 65, "duration": 12, "velocity": 88}, {"time": 315, "pitch": 50, "duration": 13, "velocity": 72}, {"time": 327, "pitch": 58, "duration": 10, "velocity": 122}, {"time": 327, "pitch": 62, "duration": 9, "velocity": 93}, {"time": 339, "pitch": 43, "duration": 24, "velocity": 77}, {"time": 339, "pitch": 55, "duration": 6, "velocity": 96}, {"time": 339, "pitch": 58, "duration": 6, "velocity": 107}, {"time": 339, "pitch": 62, "duration": 7, "velocity": 95}, {"time": 351, "pitch": 50, "duration": 11, "velocity": 46}, {"time": 357, "pitch": 62, "duration": 9, "velocity": 58}, {"time": 363, "pitch": 70, "duration": 4, "velocity": 112}, {"time": 375, "pitch": 39, "duration": 24, "velocity": 100}, {"time": 375, "pitch": 63, "duration": 2, "velocity": 92}, {"time": 375, "pitch": 67, "duration": 1, "velocity": 96}, {"time": 375, "pitch": 70, "duration": 2, "velocity": 117}, {"time": 381, "pitch": 51, "duration": 19, "velocity": 74}, {"time": 387, "pitch": 55, "duration": 16, "velocity": 88}, {"time": 399, "pitch": 63, "duration": 2, "velocity": 95}, {"time": 411, "pitch": 41, "duration": 22, "velocity": 69}, {"time": 411, "pitch": 53, "duration": 8, "velocity": 85}, {"time": 411, "pitch": 57, "duration": 10, "velocity": 85}, {"time": 411, "pitch": 60, "duration": 10, "velocity": 83}, {"time": 423, "pitch": 48, "duration": 11, "velocity": 90}, {"time": 435, "pitch": 60, "duration": 1, "velocity": 100}, {"time": 447, "pitch": 46, "duration": 25, "velocity": 97}, {"time": 447, "pitch": 58, "duration": 24, "velocity": 117}, {"time": 447, "pitch": 62, "duration": 24, "velocity": 88}, {"time": 447, "pitch": 65, "duration": 23, "velocity": 73}, {"time": 459, "pitch": 50, "duration": 13, "velocity": 60}, {"time": 471, "pitch": 53, "duration": 1, "velocity": 71}, {"time": 483, "pitch": 39, "duration": 26, "velocity": 100}, {"time": 483, "pitch": 55, "duration": 16, "velocity": 76}, {"time": 483, "pitch": 58, "duration": 17, "velocity": 97}, {"time": 483, "pitch": 63, "duration": 16, "velocity": 90}, {"time": 495, "pitch": 51, "duration": 13, "velocity": 78}, {"time": 507, "pitch": 63, "duration": 1, "velocity": 107}, {"time": 519, "pitch": 34, "duration": 32, "velocity": 95}, {"time": 519, "pitch": 58, "duration": 22, "velocity": 86}, {"time": 519, "pitch": 62, "duration": 19, "velocity": 69}, {"time": 519, "pitch": 65, "duration": 14, "velocity": 61}, {"time": 531, "pitch": 46, "duration": 130, "velocity": 58}, {"time": 543, "pitch": 62, "duration": 10, "velocity": 72}, {"time": 555, "pitch": 34, "duration": 105, "velocity": 71}, {"time": 555, "pitch": 53, "duration": 106, "velocity": 32}, {"time": 555, "pitch": 58, "duration": 106, "velocity": 54}, {"time": 555, "pitch": 62, "duration": 106, "velocity": 39}, {"time": 555, "pitch": 65, "duration": 104, "velocity": 38}, {"time": 663, "pitch": 46, "duration": 28, "velocity": 70}, {"time": 669, "pitch": 58, "duration": 9, "velocity": 42}, {"time": 675, "pitch": 62, "duration": 13, "velocity": 67}, {"time": 681, "pitch": 58, "duration": 7, "velocity": 48}, {"time": 687, "pitch": 65, "duration": 12, "velocity": 69}, {"time": 693, "pitch": 62, "duration": 6, "velocity": 46}, {"time": 699, "pitch": 43, "duration": 23, "velocity": 58}, {"time": 705, "pitch": 50, "duration": 9, "velocity": 33}, {"time": 711, "pitch": 58, "duration": 14, "velocity": 66}, {"time": 711, "pitch": 62, "duration": 13, "velocity": 76}, {"time": 717, "pitch": 50, "duration": 4, "velocity": 50}, {"time": 723, "pitch": 55, "duration": 15, "velocity": 78}, {"time": 735, "pitch": 39, "duration": 23, "velocity": 72}, {"time": 741, "pitch": 51, "duration": 9, "velocity": 61}, {"time": 747, "pitch": 58, "duration": 25, "velocity": 83}, {"time": 747, "pitch": 63, "duration": 24, "velocity": 82}, {"time": 753, "pitch": 51, "duration": 5, "velocity": 58}, {"time": 759, "pitch": 55, "duration": 12, "velocity": 48}, {"time": 771, "pitch": 41, "duration": 22, "velocity": 64}, {"time": 777, "pitch": 48, "duration": 15, "velocity": 61}, {"time": 783, "pitch": 57, "duration": 1, "velocity": 61}, {"time": 783, "pitch": 60, "duration": 23, "velocity": 69}, {"time": 789, "pitch": 53, "duration": 4, "velocity": 56}, {"time": 807, "pitch": 46, "duration": 24, "velocity": 86}, {"time": 813, "pitch": 58, "duration": 8, "velocity": 60}, {"time": 819, "pitch": 65, "duration": 23, "velocity": 93}, {"time": 825, "pitch": 58, "duration": 4, "velocity": 53}, {"time": 831, "pitch": 62, "duration": 11, "velocity": 59}, {"time": 843, "pitch": 43, "duration": 24, "velocity": 68}, {"time": 849, "pitch": 50, "duration": 9, "velocity": 59}, {"time": 855, "pitch": 58, "duration": 26, "velocity": 83}, {"time": 855, "pitch": 62, "duration": 22, "velocity": 69}, {"time": 861, "pitch": 50, "duration": 4, "velocity": 34}, {"time": 867, "pitch": 55, "duration": 14, "velocity": 58}, {"time": 879, "pitch": 39, "duration": 23, "velocity": 69}, {"time": 885, "pitch": 51, "duration": 9, "velocity": 76}, {"time": 891, "pitch": 63, "duration": 20, "velocity": 93}, {"time": 897, "pitch": 51, "duration": 5, "velocity": 60}, {"time": 903, "pitch": 58, "duration": 9, "velocity": 52}, {"time": 915, "pitch": 41, "duration": 21, "velocity": 57}, {"time": 915, "pitch": 57, "duration": 12, "velocity": 67}, {"time": 915, "pitch": 60, "duration": 11, "velocity": 67}, {"time": 921, "pitch": 48, "duration": 15, "velocity": 50}, {"time": 927, "pitch": 53, "duration": 8, "velocity": 75}, {"time": 933, "pitch": 55, "duration": 7, "velocity": 72}, {"time": 939, "pitch": 57, "duration": 8, "velocity": 56}, {"time": 945, "pitch": 60, "duration": 6, "velocity": 63}, {"time": 951, "pitch": 46, "duration": 24, "velocity": 66}, {"time": 957, "pitch": 58, "duration": 9, "velocity": 67}, {"time": 963, "pitch": 62, "duration": 23, "velocity": 78}, {"time": 969, "pitch": 58, "duration": 4, "velocity": 39}, {"time": 975, "pitch": 65, "duration": 10, "velocity": 60}, {"time": 987, "pitch": 43, "duration": 21, "velocity": 72}, {"time": 993, "pitch": 50, "duration": 14, "velocity": 45}, {"time": 999, "pitch": 62, "duration": 14, "velocity": 86}, {"time": 1005, "pitch": 58, "duration": 16, "velocity": 47}, {"time": 1011, "pitch": 55, "duration": 12, "velocity": 52}, {"time": 1023, "pitch": 39, "duration": 26, "velocity": 58}, {"time": 1023, "pitch": 58, "duration": 12, "velocity": 64}, {"time": 1023, "pitch": 63, "duration": 7, "velocity": 59}, {"time": 1029, "pitch": 51, "duration": 9, "velocity": 81}, {"time": 1035, "pitch": 55, "duration": 26, "velocity": 71}, {"time": 1041, "pitch": 51, "duration": 7, "velocity": 60}, {"time": 1047, "pitch": 63, "duration": 13, "velocity": 93}, {"time": 1053, "pitch": 58, "duration": 7, "velocity": 48}, {"time": 1059, "pitch": 41, "duration": 25, "velocity": 63}, {"time": 1065, "pitch": 48, "duration": 9, "velocity": 63}, {"time": 1071, "pitch": 60, "duration": 24, "velocity": 79}, {"time": 1077, "pitch": 48, "duration": 7, "velocity": 54}, {"time": 1083, "pitch": 57, "duration": 11, "velocity": 63}, {"time": 1089, "pitch": 53, "duration": 5, "velocity": 49}, {"time": 1095, "pitch": 46, "duration": 24, "velocity": 95}, {"time": 1101, "pitch": 58, "duration": 8, "velocity": 66}, {"time": 1107, "pitch": 62, "duration": 13, "velocity": 85}, {"time": 1113, "pitch": 58, "duration": 5, "velocity": 63}, {"time": 1119, "pitch": 65, "duration": 12, "velocity": 82}, {"time": 1125, "pitch": 62, "duration": 5, "velocity": 46}, {"time": 1131, "pitch": 43, "duration": 24, "velocity": 67}, {"time": 1137, "pitch": 50, "duration": 9, "velocity": 61}, {"time": 1143, "pitch": 62, "duration": 23, "velocity": 81}, {"time": 1149, "pitch": 50, "duration": 5, "velocity": 55}, {"time": 1155, "pitch": 58, "duration": 13, "velocity": 72}, {"time": 1167, "pitch": 39, "duration": 23, "velocity": 81}, {"time": 1173, "pitch": 51, "duration": 7, "velocity": 44}, {"time": 1179, "pitch": 63, "duration": 15, "velocity": 88}, {"time": 1185, "pitch": 51, "duration": 6, "velocity": 55}, {"time": 1191, "pitch": 58, "duration": 2, "velocity": 37}, {"time": 1203, "pitch": 41, "duration": 35, "velocity": 62}, {"time": 1203, "pitch": 57, "duration": 9, "velocity": 62}, {"time": 1203, "pitch": 60, "duration": 12, "velocity": 71}, {"time": 1209, "pitch": 48, "duration": 29, "velocity": 81}, {"time": 1215, "pitch": 53, "duration": 16, "velocity": 90}, {"time": 1221, "pitch": 55, "duration": 7, "velocity": 82}, {"time": 1227, "pitch": 57, "duration": 6, "velocity": 88}, {"time": 1233, "pitch": 60, "duration": 6, "velocity": 79}, {"time": 1239, "pitch": 34, "duration": 24, "velocity": 92}, {"time": 1239, "pitch": 53, "duration": 14, "velocity": 74}, {"time": 1239, "pitch": 58, "duration": 14, "velocity": 74}, {"time": 1239, "pitch": 62, "duration": 13, "velocity": 83}, {"time": 1251, "pitch": 46, "duration": 9, "velocity": 83}, {"time": 1263, "pitch": 58, "duration": 7, "velocity": 89}, {"time": 1263, "pitch": 62, "duration": 3, "velocity": 82}, {"time": 1275, "pitch": 31, "duration": 23, "velocity": 65}, {"time": 1275, "pitch": 43, "duration": 25, "velocity": 67}, {"time": 1275, "pitch": 55, "duration": 6, "velocity": 82}, {"time": 1275, "pitch": 58, "duration": 11, "velocity": 93}, {"time": 1275, "pitch": 62, "duration": 10, "velocity": 77}, {"time": 1287, "pitch": 62, "duration": 12, "velocity": 89}, {"time": 1299, "pitch": 58, "duration": 2, "velocity": 66}, {"time": 1311, "pitch": 39, "duration": 25, "velocity": 83}, {"time": 1311, "pitch": 55, "duration": 1, "velocity": 61}, {"time": 1311, "pitch": 58, "duration": 19, "velocity": 93}, {"time": 1311, "pitch": 63, "duration": 15, "velocity": 96}, {"time": 1323, "pitch": 51, "duration": 10, "velocity": 66}, {"time": 1323, "pitch": 55, "duration": 14, "velocity": 58}, {"time": 1335, "pitch": 63, "duration": 2, "velocity": 89}, {"time": 1347, "pitch": 29, "duration": 20, "velocity": 59}, {"time": 1347, "pitch": 41, "duration": 23, "velocity": 64}, {"time": 1347, "pitch": 53, "duration": 1, "velocity": 56}, {"time": 1347, "pitch": 57, "duration": 13, "velocity": 76}, {"time": 1347, "pitch": 60, "duration": 13, "velocity": 76}, {"time": 1359, "pitch": 53, "duration": 14, "velocity": 68}, {"time": 1371, "pitch": 60, "duration": 2, "velocity": 77}, {"time": 1383, "pitch": 34, "duration": 26, "velocity": 66}, {"time": 1383, "pitch": 46, "duration": 22, "velocity": 67}, {"time": 1383, "pitch": 53, "duration": 4, "velocity": 70}, {"time": 1383, "pitch": 58, "duration": 13, "velocity": 78}, {"time": 1383, "pitch": 62, "duration": 14, "velocity": 72}, {"time": 1395, "pitch": 53, "duration": 4, "velocity": 76}, {"time": 1407, "pitch": 62, "duration": 10, "velocity": 93}, {"time": 1419, "pitch": 31, "duration": 21, "velocity": 64}, {"time": 1419, "pitch": 55, "duration": 3, "velocity": 72}, {"time": 1419, "pitch": 58, "duration": 7, "velocity": 74}, {"time": 1419, "pitch": 62, "duration": 8, "velocity": 85}, {"time": 1425, "pitch": 43, "duration": 10, "velocity": 47}, {"time": 1431, "pitch": 62, "duration": 12, "velocity": 89}, {"time": 1437, "pitch": 43, "duration": 5, "velocity": 64}, {"time": 1443, "pitch": 58, "duration": 2, "velocity": 72}, {"time": 1455, "pitch": 39, "duration": 12, "velocity": 64}, {"time": 1455, "pitch": 58, "duration": 12, "velocity": 96}, {"time": 1455, "pitch": 63, "duration": 13, "velocity": 100}, {"time": 1461, "pitch": 51, "duration": 5, "velocity": 63}, {"time": 1467, "pitch": 55, "duration": 5, "velocity": 77}, {"time": 1479, "pitch": 41, "duration": 3, "velocity": 72}, {"time": 1479, "pitch": 53, "duration": 7, "velocity": 89}, {"time": 1479, "pitch": 57, "duration": 5, "velocity": 90}, {"time": 1479, "pitch": 60, "duration": 5, "velocity": 86}, {"time": 1491, "pitch": 34, "duration": 26, "velocity": 86}, {"time": 1491, "pitch": 53, "duration": 9, "velocity": 90}, {"time": 1491, "pitch": 58, "duration": 14, "velocity": 96}, {"time": 1491, "pitch": 62, "duration": 18, "velocity": 86}, {"time": 1497, "pitch": 46, "duration": 8, "velocity": 79}, {"time": 1503, "pitch": 53, "duration": 17, "velocity": 69}, {"time": 1509, "pitch": 46, "duration": 6, "velocity": 70}, {"time": 1515, "pitch": 62, "duration": 10, "velocity": 99}, {"time": 1521, "pitch": 58, "duration": 7, "velocity": 68}, {"time": 1527, "pitch": 31, "duration": 21, "velocity": 72}, {"time": 1527, "pitch": 55, "duration": 10, "velocity": 96}, {"time": 1527, "pitch": 62, "duration": 9, "velocity": 52}, {"time": 1533, "pitch": 43, "duration": 17, "velocity": 79}, {"time": 1539, "pitch": 62, "duration": 13, "velocity": 88}, {"time": 1551, "pitch": 58, "duration": 2, "velocity": 62}, {"time": 1563, "pitch": 39, "duration": 24, "velocity": 85}, {"time": 1563, "pitch": 51, "duration": 1, "velocity": 37}, {"time": 1563, "pitch": 55, "duration": 3, "velocity": 77}, {"time": 1563, "pitch": 58, "duration": 12, "velocity": 97}, {"time": 1563, "pitch": 63, "duration": 13, "velocity": 90}, {"time": 1569, "pitch": 51, "duration": 18, "velocity": 92}, {"time": 1575, "pitch": 55, "duration": 14, "velocity": 66}, {"time": 1587, "pitch": 63, "duration": 2, "velocity": 81}, {"time": 1599, "pitch": 41, "duration": 17, "velocity": 72}, {"time": 1599, "pitch": 53, "duration": 10, "velocity": 82}, {"time": 1599, "pitch": 57, "duration": 7, "velocity": 85}, {"time": 1599, "pitch": 60, "duration": 7, "velocity": 83}, {"time": 1605, "pitch": 48, "duration": 9, "velocity": 61}, {"time": 1611, "pitch": 60, "duration": 12, "velocity": 92}, {"time": 1623, "pitch": 57, "duration": 1, "velocity": 67}, {"time": 1635, "pitch": 34, "duration": 25, "velocity": 90}, {"time": 1635, "pitch": 58, "duration": 11, "velocity": 70}, {"time": 1635, "pitch": 62, "duration": 15, "velocity": 89}, {"time": 1647, "pitch": 46, "duration": 11, "velocity": 79}, {"time": 1659, "pitch": 62, "duration": 9, "velocity": 97}, {"time": 1671, "pitch": 31, "duration": 21, "velocity": 62}, {"time": 1671, "pitch": 55, "duration": 13, "velocity": 72}, {"time": 1671, "pitch": 58, "duration": 13, "velocity": 83}, {"time": 1671, "pitch": 62, "duration": 14, "velocity": 79}, {"time": 1683, "pitch": 43, "duration": 12, "velocity": 77}, {"time": 1689, "pitch": 55, "duration": 9, "velocity": 60}, {"time": 1695, "pitch": 62, "duration": 6, "velocity": 99}, {"time": 1707, "pitch": 39, "duration": 24, "velocity": 81}, {"time": 1707, "pitch": 58, "duration": 20, "velocity": 59}, {"time": 1707, "pitch": 63, "duration": 20, "velocity": 63}, {"time": 1719, "pitch": 51, "duration": 9, "velocity": 59}, {"time": 1731, "pitch": 58, "duration": 2, "velocity": 95}, {"time": 1731, "pitch": 63, "duration": 2, "velocity": 90}, {"time": 1743, "pitch": 29, "duration": 20, "velocity": 69}, {"time": 1743, "pitch": 53, "duration": 9, "velocity": 78}, {"time": 1743, "pitch": 57, "duration": 9, "velocity": 83}, {"time": 1743, "pitch": 60, "duration": 9, "velocity": 82}, {"time": 1755, "pitch": 41, "duration": 11, "velocity": 64}, {"time": 1755, "pitch": 53, "duration": 3, "velocity": 65}, {"time": 1755, "pitch": 57, "duration": 3, "velocity": 71}, {"time": 1755, "pitch": 60, "duration": 10, "velocity": 76}, {"time": 1761, "pitch": 57, "duration": 3, "velocity": 24}, {"time": 1767, "pitch": 57, "duration": 1, "velocity": 75}, {"time": 1767, "pitch": 60, "duration": 2, "velocity": 78}, {"time": 1779, "pitch": 34, "duration": 24, "velocity": 83}, {"time": 1779, "pitch": 58, "duration": 9, "velocity": 78}, {"time": 1779, "pitch": 62, "duration": 6, "velocity": 79}, {"time": 1785, "pitch": 46, "duration": 9, "velocity": 100}, {"time": 1791, "pitch": 62, "duration": 12, "velocity": 100}, {"time": 1797, "pitch": 46, "duration": 3, "velocity": 74}, {"time": 1803, "pitch": 58, "duration": 10, "velocity": 93}, {"time": 1815, "pitch": 31, "duration": 23, "velocity": 69}, {"time": 1815, "pitch": 58, "duration": 13, "velocity": 102}, {"time": 1815, "pitch": 62, "duration": 12, "velocity": 93}, {"time": 1821, "pitch": 43, "duration": 18, "velocity": 81}, {"time": 1827, "pitch": 55, "duration": 14, "velocity": 85}, {"time": 1839, "pitch": 62, "duration": 2, "velocity": 89}, {"time": 1851, "pitch": 39, "duration": 23, "velocity": 88}, {"time": 1851, "pitch": 63, "duration": 10, "velocity": 100}, {"time": 1857, "pitch": 51, "duration": 16, "velocity": 64}, {"time": 1863, "pitch": 58, "duration": 12, "velocity": 82}, {"time": 1875, "pitch": 63, "duration": 2, "velocity": 85}, {"time": 1887, "pitch": 41, "duration": 25, "velocity": 70}, {"time": 1887, "pitch": 53, "duration": 8, "velocity": 72}, {"time": 1887, "pitch": 57, "duration": 10, "velocity": 76}, {"time": 1887, "pitch": 60, "duration": 10, "velocity": 78}, {"time": 1893, "pitch": 48, "duration": 9, "velocity": 58}, {"time": 1899, "pitch": 53, "duration": 11, "velocity": 70}, {"time": 1905, "pitch": 48, "duration": 8, "velocity": 67}, {"time": 1911, "pitch": 57, "duration": 2, "velocity": 78}, {"time": 1911, "pitch": 60, "duration": 2, "velocity": 79}, {"time": 1923, "pitch": 41, "duration": 22, "velocity": 66}, {"time": 1923, "pitch": 53, "duration": 9, "velocity": 86}, {"time": 1923, "pitch": 58, "duration": 13, "velocity": 96}, {"time": 1923, "pitch": 62, "duration": 12, "velocity": 89}, {"time": 1935, "pitch": 53, "duration": 14, "velocity": 67}, {"time": 1947, "pitch": 58, "duration": 2, "velocity": 82}, {"time": 1947, "pitch": 62, "duration": 2, "velocity": 79}, {"time": 1959, "pitch": 39, "duration": 24, "velocity": 85}, {"time": 1959, "pitch": 55, "duration": 8, "velocity": 78}, {"time": 1959, "pitch": 58, "duration": 20, "velocity": 99}, {"time": 1959, "pitch": 63, "duration": 21, "velocity": 95}, {"time": 1965, "pitch": 51, "duration": 9, "velocity": 72}, {"time": 1971, "pitch": 55, "duration": 10, "velocity": 85}, {"time": 1977, "pitch": 51, "duration": 4, "velocity": 39}, {"time": 1983, "pitch": 63, "duration": 2, "velocity": 67}, {"time": 1995, "pitch": 34, "duration": 34, "velocity": 96}, {"time": 1995, "pitch": 53, "duration": 8, "velocity": 75}, {"time": 1995, "pitch": 58, "duration": 10, "velocity": 97}, {"time": 1995, "pitch": 62, "duration": 11, "velocity": 88}, {"time": 2001, "pitch": 46, "duration": 8, "velocity": 92}, {"time": 2007, "pitch": 53, "duration": 32, "velocity": 93}, {"time": 2013, "pitch": 46, "duration": 31, "velocity": 83}, {"time": 2019, "pitch": 60, "duration": 6, "velocity": 107}, {"time": 2025, "pitch": 62, "duration": 27, "velocity": 79}, {"time": 2031, "pitch": 34, "duration": 25, "velocity": 66}, {"time": 2031, "pitch": 58, "duration": 13, "velocity": 96}, {"time": 2043, "pitch": 53, "duration": 14, "velocity": 83}, {"time": 2049, "pitch": 46, "duration": 9, "velocity": 76}, {"time": 2055, "pitch": 62, "duration": 9, "velocity": 100}, {"time": 2067, "pitch": 34, "duration": 21, "velocity": 102}, {"time": 2067, "pitch": 53, "duration": 10, "velocity": 102}, {"time": 2067, "pitch": 58, "duration": 10, "velocity": 127}, {"time": 2067, "pitch": 62, "duration": 10, "velocity": 112}, {"time": 2073, "pitch": 46, "duration": 8, "velocity": 90}, {"time": 2079, "pitch": 58, "duration": 9, "velocity": 127}, {"time": 2079, "pitch": 62, "duration": 9, "velocity": 122}, {"time": 2085, "pitch": 46, "duration": 2, "velocity": 102}, {"time": 2091, "pitch": 58, "duration": 6, "velocity": 127}, {"time": 2091, "pitch": 62, "duration": 6, "velocity": 112}, {"time": 2097, "pitch": 33, "duration": 6, "velocity": 74}, {"time": 2103, "pitch": 31, "duration": 26, "velocity": 93}, {"time": 2103, "pitch": 55, "duration": 8, "velocity": 102}, {"time": 2103, "pitch": 58, "duration": 9, "velocity": 122}, {"time": 2103, "pitch": 62, "duration": 9, "velocity": 100}, {"time": 2109, "pitch": 43, "duration": 9, "velocity": 96}, {"time": 2115, "pitch": 62, "duration": 13, "velocity": 102}, {"time": 2121, "pitch": 43, "duration": 9, "velocity": 85}, {"time": 2127, "pitch": 55, "duration": 4, "velocity": 107}, {"time": 2139, "pitch": 39, "duration": 25, "velocity": 99}, {"time": 2139, "pitch": 51, "duration": 6, "velocity": 99}, {"time": 2139, "pitch": 55, "duration": 5, "velocity": 117}, {"time": 2139, "pitch": 58, "duration": 10, "velocity": 117}, {"time": 2151, "pitch": 51, "duration": 3, "velocity": 79}, {"time": 2151, "pitch": 55, "duration": 3, "velocity": 82}, {"time": 2151, "pitch": 58, "duration": 5, "velocity": 71}, {"time": 2157, "pitch": 46, "duration": 5, "velocity": 79}, {"time": 2163, "pitch": 58, "duration": 2, "velocity": 117}, {"time": 2175, "pitch": 34, "duration": 25, "velocity": 99}, {"time": 2175, "pitch": 53, "duration": 15, "velocity": 90}, {"time": 2175, "pitch": 58, "duration": 10, "velocity": 88}, {"time": 2175, "pitch": 62, "duration": 9, "velocity": 81}, {"time": 2181, "pitch": 46, "duration": 8, "velocity": 89}, {"time": 2187, "pitch": 58, "duration": 12, "velocity": 82}, {"time": 2187, "pitch": 62, "duration": 11, "velocity": 96}, {"time": 2193, "pitch": 46, "duration": 8, "velocity": 89}, {"time": 2199, "pitch": 53, "duration": 8, "velocity": 90}, {"time": 2211, "pitch": 34, "duration": 24, "velocity": 93}, {"time": 2211, "pitch": 53, "duration": 10, "velocity": 96}, {"time": 2211, "pitch": 58, "duration": 10, "velocity": 99}, {"time": 2211, "pitch": 62, "duration": 10, "velocity": 95}, {"time": 2217, "pitch": 46, "duration": 8, "velocity": 92}, {"time": 2223, "pitch": 53, "duration": 1, "velocity": 43}, {"time": 2223, "pitch": 58, "duration": 11, "velocity": 89}, {"time": 2223, "pitch": 62, "duration": 13, "velocity": 90}, {"time": 2229, "pitch": 46, "duration": 4, "velocity": 77}, {"time": 2235, "pitch": 57, "duration": 8, "velocity": 96}, {"time": 2247, "pitch": 31, "duration": 21, "velocity": 72}, {"time": 2247, "pitch": 55, "duration": 11, "velocity": 96}, {"time": 2247, "pitch": 58, "duration": 10, "velocity": 100}, {"time": 2247, "pitch": 62, "duration": 10, "velocity": 92}, {"time": 2253, "pitch": 43, "duration": 7, "velocity": 39}, {"time": 2259, "pitch": 62, "duration": 11, "velocity": 100}, {"time": 2265, "pitch": 43, "duration": 5, "velocity": 73}, {"time": 2271, "pitch": 55, "duration": 2, "velocity": 102}, {"time": 2283, "pitch": 39, "duration": 26, "velocity": 95}, {"time": 2283, "pitch": 51, "duration": 4, "velocity": 97}, {"time": 2283, "pitch": 55, "duration": 16, "velocity": 107}, {"time": 2283, "pitch": 58, "duration": 22, "velocity": 112}, {"time": 2295, "pitch": 51, "duration": 10, "velocity": 82}, {"time": 2301, "pitch": 55, "duration": 1, "velocity": 10}, {"time": 2307, "pitch": 55, "duration": 1, "velocity": 102}, {"time": 2307, "pitch": 58, "duration": 2, "velocity": 100}, {"time": 2319, "pitch": 41, "duration": 24, "velocity": 79}, {"time": 2319, "pitch": 53, "duration": 13, "velocity": 90}, {"time": 2319, "pitch": 57, "duration": 13, "velocity": 79}, {"time": 2319, "pitch": 60, "duration": 14, "velocity": 83}, {"time": 2331, "pitch": 48, "duration": 10, "velocity": 76}, {"time": 2337, "pitch": 53, "duration": 7, "velocity": 67}, {"time": 2343, "pitch": 60, "duration": 2, "velocity": 107}, {"time": 2355, "pitch": 34, "duration": 25, "velocity": 93}, {"time": 2355, "pitch": 53, "duration": 6, "velocity": 86}, {"time": 2355, "pitch": 58, "duration": 13, "velocity": 92}, {"time": 2355, "pitch": 62, "duration": 21, "velocity": 89}, {"time": 2361, "pitch": 46, "duration": 16, "velocity": 79}, {"time": 2367, "pitch": 53, "duration": 13, "velocity": 77}, {"time": 2379, "pitch": 62, "duration": 9, "velocity": 77}, {"time": 2391, "pitch": 31, "duration": 19, "velocity": 68}, {"time": 2391, "pitch": 55, "duration": 14, "velocity": 92}, {"time": 2391, "pitch": 58, "duration": 23, "velocity": 97}, {"time": 2391, "pitch": 62, "duration": 24, "velocity": 82}, {"time": 2403, "pitch": 43, "duration": 10, "velocity": 63}, {"time": 2415, "pitch": 55, "duration": 2, "velocity": 74}, {"time": 2427, "pitch": 39, "duration": 23, "velocity": 96}, {"time": 2427, "pitch": 58, "duration": 14, "velocity": 88}, {"time": 2427, "pitch": 63, "duration": 20, "velocity": 117}, {"time": 2433, "pitch": 51, "duration": 8, "velocity": 73}, {"time": 2439, "pitch": 55, "duration": 15, "velocity": 74}, {"time": 2445, "pitch": 51, "duration": 2, "velocity": 50}, {"time": 2451, "pitch": 63, "duration": 1, "velocity": 83}, {"time": 2463, "pitch": 29, "duration": 20, "velocity": 72}, {"time": 2463, "pitch": 53, "duration": 7, "velocity": 83}, {"time": 2463, "pitch": 57, "duration": 15, "velocity": 89}, {"time": 2463, "pitch": 60, "duration": 21, "velocity": 88}, {"time": 2469, "pitch": 41, "duration": 10, "velocity": 64}, {"time": 2475, "pitch": 53, "duration": 10, "velocity": 79}, {"time": 2481, "pitch": 41, "duration": 4, "velocity": 59}, {"time": 2487, "pitch": 57, "duration": 1, "velocity": 85}, {"time": 2499, "pitch": 34, "duration": 27, "velocity": 92}, {"time": 2499, "pitch": 53, "duration": 8, "velocity": 88}, {"time": 2499, "pitch": 58, "duration": 21, "velocity": 95}, {"time": 2499, "pitch": 62, "duration": 21, "velocity": 88}, {"time": 2505, "pitch": 46, "duration": 10, "velocity": 83}, {"time": 2511, "pitch": 53, "duration": 14, "velocity": 79}, {"time": 2517, "pitch": 46, "duration": 7, "velocity": 58}, {"time": 2523, "pitch": 62, "duration": 9, "velocity": 85}, {"time": 2535, "pitch": 31, "duration": 21, "velocity": 63}, {"time": 2535, "pitch": 55, "duration": 14, "velocity": 90}, {"time": 2535, "pitch": 58, "duration": 14, "velocity": 89}, {"time": 2535, "pitch": 62, "duration": 14, "velocity": 76}, {"time": 2547, "pitch": 43, "duration": 10, "velocity": 89}, {"time": 2559, "pitch": 55, "duration": 3, "velocity": 95}, {"time": 2571, "pitch": 39, "duration": 14, "velocity": 79}, {"time": 2571, "pitch": 46, "duration": 15, "velocity": 78}, {"time": 2571, "pitch": 51, "duration": 12, "velocity": 97}, {"time": 2571, "pitch": 55, "duration": 15, "velocity": 107}, {"time": 2571, "pitch": 58, "duration": 14, "velocity": 100}, {"time": 2595, "pitch": 55, "duration": 4, "velocity": 33}, {"time": 2607, "pitch": 41, "duration": 21, "velocity": 73}, {"time": 2607, "pitch": 53, "duration": 15, "velocity": 92}, {"time": 2607, "pitch": 57, "duration": 15, "velocity": 90}, {"time": 2607, "pitch": 60, "duration": 14, "velocity": 89}, {"time": 2619, "pitch": 48, "duration": 8, "velocity": 70}, {"time": 2631, "pitch": 53, "duration": 1, "velocity": 38}, {"time": 2631, "pitch": 57, "duration": 1, "velocity": 56}, {"time": 2631, "pitch": 60, "duration": 2, "velocity": 48}, {"time": 2643, "pitch": 34, "duration": 34, "velocity": 89}, {"time": 2643, "pitch": 53, "duration": 9, "velocity": 88}, {"time": 2643, "pitch": 58, "duration": 15, "velocity": 93}, {"time": 2643, "pitch": 62, "duration": 19, "velocity": 88}, {"time": 2649, "pitch": 46, "duration": 7, "velocity": 72}, {"time": 2655, "pitch": 53, "duration": 17, "velocity": 67}, {"time": 2661, "pitch": 46, "duration": 21, "velocity": 61}, {"time": 2667, "pitch": 60, "duration": 5, "velocity": 96}, {"time": 2673, "pitch": 62, "duration": 6, "velocity": 43}, {"time": 2679, "pitch": 29, "duration": 6, "velocity": 63}, {"time": 2679, "pitch": 41, "duration": 6, "velocity": 76}, {"time": 2679, "pitch": 53, "duration": 5, "velocity": 78}, {"time": 2679, "pitch": 57, "duration": 5, "velocity": 86}, {"time": 2679, "pitch": 60, "duration": 5, "velocity": 88}, {"time": 2685, "pitch": 29, "duration": 1, "velocity": 52}, {"time": 2685, "pitch": 41, "duration": 1, "velocity": 92}, {"time": 2685, "pitch": 53, "duration": 5, "velocity": 79}, {"time": 2685, "pitch": 57, "duration": 5, "velocity": 85}, {"time": 2685, "pitch": 60, "duration": 5, "velocity": 83}, {"time": 2691, "pitch": 29, "duration": 4, "velocity": 67}, {"time": 2691, "pitch": 41, "duration": 4, "velocity": 90}, {"time": 2691, "pitch": 53, "duration": 5, "velocity": 88}, {"time": 2691, "pitch": 57, "duration": 6, "velocity": 82}, {"time": 2691, "pitch": 60, "duration": 6, "velocity": 83}, {"time": 2697, "pitch": 29, "duration": 4, "velocity": 69}, {"time": 2697, "pitch": 41, "duration": 4, "velocity": 97}, {"time": 2697, "pitch": 53, "duration": 5, "velocity": 89}, {"time": 2697, "pitch": 57, "duration": 5, "velocity": 90}, {"time": 2697, "pitch": 60, "duration": 5, "velocity": 89}, {"time": 2703, "pitch": 29, "duration": 3, "velocity": 79}, {"time": 2703, "pitch": 41, "duration": 3, "velocity": 107}, {"time": 2703, "pitch": 53, "duration": 5, "velocity": 99}, {"time": 2703, "pitch": 57, "duration": 5, "velocity": 99}, {"time": 2703, "pitch": 60, "duration": 5, "velocity": 96}, {"time": 2709, "pitch": 29, "duration": 3, "velocity": 90}, {"time": 2709, "pitch": 41, "duration": 4, "velocity": 112}, {"time": 2709, "pitch": 53, "duration": 6, "velocity": 112}, {"time": 2709, "pitch": 57, "duration": 4, "velocity": 102}, {"time": 2709, "pitch": 60, "duration": 5, "velocity": 117}, {"time": 2715, "pitch": 34, "duration": 24, "velocity": 86}, {"time": 2715, "pitch": 46, "duration": 15, "velocity": 107}, {"time": 2715, "pitch": 53, "duration": 9, "velocity": 97}, {"time": 2715, "pitch": 58, "duration": 13, "velocity": 112}, {"time": 2715, "pitch": 62, "duration": 19, "velocity": 97}, {"time": 2727, "pitch": 53, "duration": 10, "velocity": 70}, {"time": 2733, "pitch": 46, "duration": 5, "velocity": 85}, {"time": 2739, "pitch": 62, "duration": 8, "velocity": 117}, {"time": 2745, "pitch": 58, "duration": 4, "velocity": 107}, {"time": 2751, "pitch": 31, "duration": 21, "velocity": 72}, {"time": 2751, "pitch": 43, "duration": 16, "velocity": 100}, {"time": 2751, "pitch": 55, "duration": 7, "velocity": 107}, {"time": 2751, "pitch": 58, "duration": 12, "velocity": 127}, {"time": 2751, "pitch": 62, "duration": 23, "velocity": 102}, {"time": 2763, "pitch": 55, "duration": 14, "velocity": 89}, {"time": 2769, "pitch": 43, "duration": 4, "velocity": 85}, {"time": 2775, "pitch": 58, "duration": 1, "velocity": 112}, {"time": 2787, "pitch": 39, "duration": 24, "velocity": 89}, {"time": 2787, "pitch": 51, "duration": 14, "velocity": 82}, {"time": 2787, "pitch": 55, "duration": 4, "velocity": 97}, {"time": 2787, "pitch": 58, "duration": 20, "velocity": 127}, {"time": 2787, "pitch": 63, "duration": 20, "velocity": 127}, {"time": 2799, "pitch": 55, "duration": 9, "velocity": 69}, {"time": 2805, "pitch": 51, "duration": 5, "velocity": 88}, {"time": 2811, "pitch": 58, "duration": 2, "velocity": 122}, {"time": 2811, "pitch": 63, "duration": 2, "velocity": 112}, {"time": 2823, "pitch": 34, "duration": 27, "velocity": 112}, {"time": 2823, "pitch": 53, "duration": 7, "velocity": 97}, {"time": 2823, "pitch": 58, "duration": 13, "velocity": 107}, {"time": 2823, "pitch": 62, "duration": 17, "velocity": 96}, {"time": 2829, "pitch": 46, "duration": 8, "velocity": 100}, {"time": 2835, "pitch": 53, "duration": 14, "velocity": 93}, {"time": 2841, "pitch": 46, "duration": 8, "velocity": 76}, {"time": 2847, "pitch": 62, "duration": 9, "velocity": 73}, {"time": 2847, "pitch": 58, "duration": 1, "velocity": 73}, {"time": 2849, "pitch": 62, "duration": 7, "velocity": 92}, {"time": 2853, "pitch": 65, "duration": 4, "velocity": 105}, {"time": 2853, "pitch": 53, "duration": 4, "velocity": 106}, {"time": 2855, "pitch": 70, "duration": 4, "velocity": 121}, {"time": 2859, "pitch": 34, "duration": 21, "velocity": 79}, {"time": 2859, "pitch": 46, "duration": 14, "velocity": 93}, {"time": 2859, "pitch": 53, "duration": 8, "velocity": 99}, {"time": 2859, "pitch": 58, "duration": 20, "velocity": 117}, {"time": 2859, "pitch": 62, "duration": 20, "velocity": 100}, {"time": 2871, "pitch": 53, "duration": 14, "velocity": 72}, {"time": 2877, "pitch": 46, "duration": 3, "velocity": 89}, {"time": 2883, "pitch": 62, "duration": 9, "velocity": 127}, {"time": 2889, "pitch": 58, "duration": 4, "velocity": 112}, {"time": 2895, "pitch": 31, "duration": 21, "velocity": 74}, {"time": 2895, "pitch": 43, "duration": 16, "velocity": 97}, {"time": 2895, "pitch": 55, "duration": 5, "velocity": 112}, {"time": 2895, "pitch": 58, "duration": 13, "velocity": 127}, {"time": 2895, "pitch": 62, "duration": 24, "velocity": 107}, {"time": 2907, "pitch": 55, "duration": 11, "velocity": 85}, {"time": 2913, "pitch": 43, "duration": 5, "velocity": 70}, {"time": 2919, "pitch": 55, "duration": 1, "velocity": 32}, {"time": 2919, "pitch": 58, "duration": 2, "velocity": 102}, {"time": 2931, "pitch": 39, "duration": 24, "velocity": 100}, {"time": 2931, "pitch": 51, "duration": 15, "velocity": 96}, {"time": 2931, "pitch": 55, "duration": 3, "velocity": 92}, {"time": 2931, "pitch": 58, "duration": 20, "velocity": 122}, {"time": 2931, "pitch": 63, "duration": 20, "velocity": 122}, {"time": 2943, "pitch": 55, "duration": 9, "velocity": 66}, {"time": 2949, "pitch": 51, "duration": 5, "velocity": 61}, {"time": 2955, "pitch": 58, "duration": 1, "velocity": 122}, {"time": 2955, "pitch": 63, "duration": 2, "velocity": 122}, {"time": 2967, "pitch": 29, "duration": 38, "velocity": 71}, {"time": 2968, "pitch": 41, "duration": 36, "velocity": 70}, {"time": 2970, "pitch": 53, "duration": 37, "velocity": 75}, {"time": 2971, "pitch": 57, "duration": 35, "velocity": 81}, {"time": 2973, "pitch": 60, "duration": 34, "velocity": 81}, {"time": 3003, "pitch": 34, "duration": 23, "velocity": 58}, {"time": 3003, "pitch": 53, "duration": 4, "velocity": 66}, {"time": 3004, "pitch": 46, "duration": 20, "velocity": 60}, {"time": 3006, "pitch": 58, "duration": 30, "velocity": 67}, {"time": 3008, "pitch": 62, "duration": 27, "velocity": 60}, {"time": 3011, "pitch": 65, "duration": 19, "velocity": 53}, {"time": 3039, "pitch": 31, "duration": 18, "velocity": 42}, {"time": 3040, "pitch": 43, "duration": 28, "velocity": 47}, {"time": 3041, "pitch": 55, "duration": 29, "velocity": 53}, {"time": 3043, "pitch": 58, "duration": 27, "velocity": 60}, {"time": 3045, "pitch": 62, "duration": 26, "velocity": 78}, {"time": 3075, "pitch": 39, "duration": 31, "velocity": 58}, {"time": 3076, "pitch": 51, "duration": 28, "velocity": 66}, {"time": 3076, "pitch": 55, "duration": 33, "velocity": 65}, {"time": 3079, "pitch": 58, "duration": 29, "velocity": 75}, {"time": 3080, "pitch": 63, "duration": 28, "velocity": 83}, {"time": 3110, "pitch": 29, "duration": 20, "velocity": 53}, {"time": 3111, "pitch": 41, "duration": 22, "velocity": 57}, {"time": 3113, "pitch": 53, "duration": 29, "velocity": 67}, {"time": 3115, "pitch": 57, "duration": 23, "velocity": 70}, {"time": 3117, "pitch": 60, "duration": 20, "velocity": 91}, {"time": 3147, "pitch": 34, "duration": 24, "velocity": 61}, {"time": 3147, "pitch": 46, "duration": 28, "velocity": 61}, {"time": 3148, "pitch": 53, "duration": 29, "velocity": 66}, {"time": 3150, "pitch": 58, "duration": 28, "velocity": 75}, {"time": 3154, "pitch": 62, "duration": 24, "velocity": 95}, {"time": 3183, "pitch": 31, "duration": 29, "velocity": 60}, {"time": 3184, "pitch": 43, "duration": 30, "velocity": 65}, {"time": 3186, "pitch": 55, "duration": 28, "velocity": 72}, {"time": 3187, "pitch": 58, "duration": 26, "velocity": 80}, {"time": 3190, "pitch": 62, "duration": 27, "velocity": 79}, {"time": 3219, "pitch": 39, "duration": 28, "velocity": 73}, {"time": 3220, "pitch": 51, "duration": 27, "velocity": 74}, {"time": 3222, "pitch": 58, "duration": 27, "velocity": 81}, {"time": 3225, "pitch": 63, "duration": 23, "velocity": 100}, {"time": 3254, "pitch": 41, "duration": 40, "velocity": 61}, {"time": 3255, "pitch": 48, "duration": 38, "velocity": 65}, {"time": 3257, "pitch": 53, "duration": 37, "velocity": 70}, {"time": 3259, "pitch": 57, "duration": 34, "velocity": 76}, {"time": 3262, "pitch": 60, "duration": 31, "velocity": 94}, {"time": 3296, "pitch": 34, "duration": 122, "velocity": 74}, {"time": 3304, "pitch": 46, "duration": 116, "velocity": 45}, {"time": 3312, "pitch": 53, "duration": 18, "velocity": 58}, {"time": 3320, "pitch": 58, "duration": 12, "velocity": 56}, {"time": 3330, "pitch": 60, "duration": 8, "velocity": 57}, {"time": 3337, "pitch": 62, "duration": 2, "velocity": 66}, {"time": 3345, "pitch": 65, "duration": 16, "velocity": 42}, {"time": 3353, "pitch": 70, "duration": 8, "velocity": 76}, {"time": 3361, "pitch": 74, "duration": 1, "velocity": 74}, {"time": 3369, "pitch": 77, "duration": 2, "velocity": 75}, {"time": 3378, "pitch": 82, "duration": 8, "velocity": 90}, {"time": 3387, "pitch": 86, "duration": 9, "velocity": 67}, {"time": 3387, "pitch": 82, "duration": 1, "velocity": 37}, {"time": 3395, "pitch": 89, "duration": 2, "velocity": 57}, {"time": 3423, "pitch": 34, "duration": 55, "velocity": 32}, {"time": 3424, "pitch": 46, "duration": 53, "velocity": 36}, {"time": 3426, "pitch": 65, "duration": 52, "velocity": 30}, {"time": 3427, "pitch": 70, "duration": 51, "velocity": 49}, {"time": 3429, "pitch": 74, "duration": 49, "velocity": 39}, {"time": 3430, "pitch": 77, "duration": 48, "velocity": 42}], "annotations": [{"time": 84, "annotation": {"number": 64, "value": 0}, "group": "control_change"}, {"time": 86, "annotation": {"number": 64, "value": 127}, "group": "control_change"}, {"time": 120, "annotation": {"number": 64, "value": 0}, "group": "control_change"}, {"time": 123, "annotation": {"number": 64, "value": 127}, "group": "control_change"}, {"time": 157, "annotation": {"number": 64, "value": 0}, "group": "control_change"}, {"time": 159, "annotation": {"number": 64, "value": 127}, "group": "control_change"}, {"time": 192, "annotation": {"number": 64, "value": 0}, "group": "control_change"}, {"time": 195, "annotation": {"number": 64, "value": 127}, "group": "control_change"}, {"time": 228, "annotation": {"number": 64, "value": 0}, "group": "control_change"}, {"time": 231, "annotation": {"number": 64, "value": 127}, "group": "control_change"}, {"time": 264, "annotation": {"number": 64, "value": 0}, "group": "control_change"}, {"time": 268, "annotation": {"number": 64, "value": 127}, "group": "control_change"}, {"time": 300, "annotation": {"number": 64, "value": 0}, "group": "control_change"}, {"time": 304, "annotation": {"number": 64, "value": 127}, "group": "control_change"}, {"time": 336, "annotation": {"number": 64, "value": 0}, "group": "control_change"}, {"time": 338, "annotation": {"number": 64, "value": 127}, "group": "control_change"}, {"time": 408, "annotation": {"number": 64, "value": 0}, "group": "control_change"}, {"time": 411, "annotation": {"number": 64, "value": 127}, "group": "control_change"}, {"time": 444, "annotation": {"number": 64, "value": 0}, "group": "control_change"}, {"time": 447, "annotation": {"number": 64, "value": 127}, "group": "control_change"}, {"time": 480, "annotation": {"number": 64, "value": 0}, "group": "control_change"}, {"time": 483, "annotation": {"number": 64, "value": 127}, "group": "control_change"}, {"time": 516, "annotation": {"number": 64, "value": 0}, "group": "control_change"}, {"time": 519, "annotation": {"number": 64, "value": 127}, "group": "control_change"}, {"time": 552, "annotation": {"number": 64, "value": 0}, "group": "control_change"}, {"time": 556, "annotation": {"number": 64, "value": 127}, "group": "control_change"}, {"time": 590, "annotation": {"number": 64, "value": 0}, "group": "control_change"}, {"time": 663, "annotation": {"number": 64, "value": 127}, "group": "control_change"}, {"time": 698, "annotation": {"number": 64, "value": 0}, "group": "control_change"}, {"time": 701, "annotation": {"number": 64, "value": 127}, "group": "control_change"}, {"time": 732, "annotation": {"number": 64, "value": 0}, "group": "control_change"}, {"time": 736, "annotation": {"number": 64, "value": 127}, "group": "control_change"}, {"time": 768, "annotation": {"number": 64, "value": 0}, "group": "control_change"}, {"time": 772, "annotation": {"number": 64, "value": 127}, "group": "control_change"}, {"time": 805, "annotation": {"number": 64, "value": 0}, "group": "control_change"}, {"time": 809, "annotation": {"number": 64, "value": 127}, "group": "control_change"}, {"time": 839, "annotation": {"number": 64, "value": 0}, "group": "control_change"}, {"time": 843, "annotation": {"number": 64, "value": 127}, "group": "control_change"}, {"time": 875, "annotation": {"number": 64, "value": 0}, "group": "control_change"}, {"time": 879, "annotation": {"number": 64, "value": 127}, "group": "control_change"}, {"time": 912, "annotation": {"number": 64, "value": 0}, "group": "control_change"}, {"time": 915, "annotation": {"number": 64, "value": 127}, "group": "control_change"}, {"time": 947, "annotation": {"number": 64, "value": 0}, "group": "control_change"}, {"time": 951, "annotation": {"number": 64, "value": 127}, "group": "control_change"}, {"time": 983, "annotation": {"number": 64, "value": 0}, "group": "control_change"}, {"time": 987, "annotation": {"number": 64, "value": 127}, "group": "control_change"}, {"time": 1020, "annotation": {"number": 64, "value": 0}, "group": "control_change"}, {"time": 1023, "annotation": {"number": 64, "value": 127}, "group": "control_change"}, {"time": 1055, "annotation": {"number": 64, "value": 0}, "group": "control_change"}, {"time": 1060, "annotation": {"number": 64, "value": 127}, "group": "control_change"}, {"time": 1090, "annotation": {"number": 64, "value": 0}, "group": "control_change"}, {"time": 1095, "annotation": {"number": 64, "value": 127}, "group": "control_change"}, {"time": 1127, "annotation": {"number": 64, "value": 0}, "group": "control_change"}, {"time": 1131, "annotation": {"number": 64, "value": 127}, "group": "control_change"}, {"time": 1163, "annotation": {"number": 64, "value": 0}, "group": "control_change"}, {"time": 1167, "annotation": {"number": 64, "value": 127}, "group": "control_change"}, {"time": 1200, "annotation": {"number": 64, "value": 0}, "group": "control_change"}, {"time": 1204, "annotation": {"number": 64, "value": 127}, "group": "control_change"}, {"time": 1231, "annotation": {"number": 64, "value": 0}, "group": "control_change"}, {"time": 1240, "annotation": {"number": 64, "value": 127}, "group": "control_change"}, {"time": 1272, "annotation": {"number": 64, "value": 0}, "group": "control_change"}, {"time": 1275, "annotation": {"number": 64, "value": 127}, "group": "control_change"}, {"time": 1309, "annotation": {"number": 64, "value": 0}, "group": "control_change"}, {"time": 1311, "annotation": {"number": 64, "value": 127}, "group": "control_change"}, {"time": 1345, "annotation": {"number": 64, "value": 0}, "group": "control_change"}, {"time": 1347, "annotation": {"number": 64, "value": 127}, "group": "control_change"}, {"time": 1380, "annotation": {"number": 64, "value": 0}, "group": "control_change"}, {"time": 1383, "annotation": {"number": 64, "value": 127}, "group": "control_change"}, {"time": 1417, "annotation": {"number": 64, "value": 0}, "group": "control_change"}, {"time": 1420, "annotation": {"number": 64, "value": 127}, "group": "control_change"}, {"time": 1451, "annotation": {"number": 64, "value": 0}, "group": "control_change"}, {"time": 1455, "annotation": {"number": 64, "value": 127}, "group": "control_change"}, {"time": 1475, "annotation": {"number": 64, "value": 0}, "group": "control_change"}, {"time": 1478, "annotation": {"number": 64, "value": 127}, "group": "control_change"}, {"time": 1488, "annotation": {"number": 64, "value": 0}, "group": "control_change"}, {"time": 1491, "annotation": {"number": 64, "value": 127}, "group": "control_change"}, {"time": 1524, "annotation": {"number": 64, "value": 0}, "group": "control_change"}, {"time": 1527, "annotation": {"number": 64, "value": 127}, "group": "control_change"}, {"time": 1560, "annotation": {"number": 64, "value": 0}, "group": "control_change"}, {"time": 1563, "annotation": {"number": 64, "value": 127}, "group": "control_change"}, {"time": 1596, "annotation": {"number": 64, "value": 0}, "group": "control_change"}, {"time": 1599, "annotation": {"number": 64, "value": 127}, "group": "control_change"}, {"time": 1631, "annotation": {"number": 64, "value": 0}, "group": "control_change"}, {"time": 1634, "annotation": {"number": 64, "value": 127}, "group": "control_change"}, {"time": 1668, "annotation": {"number": 64, "value": 0}, "group": "control_change"}, {"time": 1672, "annotation": {"number": 64, "value": 127}, "group": "control_change"}, {"time": 1704, "annotation": {"number": 64, "value": 0}, "group": "control_change"}, {"time": 1705, "annotation": {"number": 64, "value": 127}, "group": "control_change"}, {"time": 1740, "annotation": {"number": 64, "value": 0}, "group": "control_change"}, {"time": 1743, "annotation": {"number": 64, "value": 127}, "group": "control_change"}, {"time": 1776, "annotation": {"number": 64, "value": 0}, "group": "control_change"}, {"time": 1778, "annotation": {"number": 64, "value": 127}, "group": "control_change"}, {"time": 1811, "annotation": {"number": 64, "value": 0}, "group": "control_change"}, {"time": 1814, "annotation": {"number": 64, "value": 127}, "group": "control_change"}, {"time": 1847, "annotation": {"number": 64, "value": 0}, "group": "control_change"}, {"time": 1850, "annotation": {"number": 64, "value": 127}, "group": "control_change"}, {"time": 1883, "annotation": {"number": 64, "value": 0}, "group": "control_change"}, {"time": 1886, "annotation": {"number": 64, "value": 127}, "group": "control_change"}, {"time": 1919, "annotation": {"number": 64, "value": 0}, "group": "control_change"}, {"time": 1922, "annotation": {"number": 64, "value": 127}, "group": "control_change"}, {"time": 1956, "annotation": {"number": 64, "value": 0}, "group": "control_change"}, {"time": 1959, "annotation": {"number": 64, "value": 127}, "group": "control_change"}, {"time": 1992, "annotation": {"number": 64, "value": 0}, "group": "control_change"}, {"time": 1995, "annotation": {"number": 64, "value": 127}, "group": "control_change"}, {"time": 2028, "annotation": {"number": 64, "value": 0}, "group": "control_change"}, {"time": 2033, "annotation": {"number": 64, "value": 127}, "group": "control_change"}, {"time": 2062, "annotation": {"number": 64, "value": 0}, "group": "control_change"}, {"time": 2065, "annotation": {"number": 64, "value": 127}, "group": "control_change"}, {"time": 2099, "annotation": {"number": 64, "value": 0}, "group": "control_change"}, {"time": 2102, "annotation": {"number": 64, "value": 127}, "group": "control_change"}, {"time": 2136, "annotation": {"number": 64, "value": 0}, "group": "control_change"}, {"time": 2139, "annotation": {"number": 64, "value": 127}, "group": "control_change"}, {"time": 2172, "annotation": {"number": 64, "value": 0}, "group": "control_change"}, {"time": 2175, "annotation": {"number": 64, "value": 127}, "group": "control_change"}, {"time": 2207, "annotation": {"number": 64, "value": 0}, "group": "control_change"}, {"time": 2210, "annotation": {"number": 64, "value": 127}, "group": "control_change"}, {"time": 2244, "annotation": {"number": 64, "value": 0}, "group": "control_change"}, {"time": 2247, "annotation": {"number": 64, "value": 127}, "group": "control_change"}, {"time": 2279, "annotation": {"number": 64, "value": 0}, "group": "control_change"}, {"time": 2282, "annotation": {"number": 64, "value": 127}, "group": "control_change"}, {"time": 2319, "annotation": {"number": 64, "value": 0}, "group": "control_change"}, {"time": 2331, "annotation": {"number": 64, "value": 127}, "group": "control_change"}, {"time": 2352, "annotation": {"number": 64, "value": 0}, "group": "control_change"}, {"time": 2355, "annotation": {"number": 64, "value": 127}, "group": "control_change"}, {"time": 2387, "annotation": {"number": 64, "value": 0}, "group": "control_change"}, {"time": 2390, "annotation": {"number": 64, "value": 127}, "group": "control_change"}, {"time": 2424, "annotation": {"number": 64, "value": 0}, "group": "control_change"}, {"time": 2427, "annotation": {"number": 64, "value": 127}, "group": "control_change"}, {"time": 2459, "annotation": {"number": 64, "value": 0}, "group": "control_change"}, {"time": 2463, "annotation": {"number": 64, "value": 127}, "group": "control_change"}, {"time": 2497, "annotation": {"number": 64, "value": 0}, "group": "control_change"}, {"time": 2500, "annotation": {"number": 64, "value": 127}, "group": "control_change"}, {"time": 2533, "annotation": {"number": 64, "value": 0}, "group": "control_change"}, {"time": 2537, "annotation": {"number": 64, "value": 127}, "group": "control_change"}, {"time": 2567, "annotation": {"number": 64, "value": 0}, "group": "control_change"}, {"time": 2570, "annotation": {"number": 64, "value": 127}, "group": "control_change"}, {"time": 2606, "annotation": {"number": 64, "value": 0}, "group": "control_change"}, {"time": 2609, "annotation": {"number": 64, "value": 127}, "group": "control_change"}, {"time": 2639, "annotation": {"number": 64, "value": 0}, "group": "control_change"}, {"time": 2643, "annotation": {"number": 64, "value": 127}, "group": "control_change"}, {"time": 2675, "annotation": {"number": 64, "value": 0}, "group": "control_change"}, {"time": 2678, "annotation": {"number": 64, "value": 127}, "group": "control_change"}, {"time": 2684, "annotation": {"number": 64, "value": 0}, "group": "control_change"}, {"time": 2691, "annotation": {"number": 64, "value": 127}, "group": "control_change"}, {"time": 2694, "annotation": {"number": 64, "value": 0}, "group": "control_change"}, {"time": 2702, "annotation": {"number": 64, "value": 127}, "group": "control_change"}, {"time": 2703, "annotation": {"number": 64, "value": 0}, "group": "control_change"}, {"time": 2714, "annotation": {"number": 64, "value": 127}, "group": "control_change"}, {"time": 2715, "annotation": {"number": 64, "value": 127}, "group": "control_change"}, {"time": 2717, "annotation": {"number": 64, "value": 0}, "group": "control_change"}, {"time": 2749, "annotation": {"number": 64, "value": 0}, "group": "control_change"}, {"time": 2753, "annotation": {"number": 64, "value": 127}, "group": "control_change"}, {"time": 2784, "annotation": {"number": 64, "value": 0}, "group": "control_change"}, {"time": 2787, "annotation": {"number": 64, "value": 127}, "group": "control_change"}, {"time": 2820, "annotation": {"number": 64, "value": 0}, "group": "control_change"}, {"time": 2823, "annotation": {"number": 64, "value": 127}, "group": "control_change"}, {"time": 2855, "annotation": {"number": 64, "value": 0}, "group": "control_change"}, {"time": 2859, "annotation": {"number": 64, "value": 127}, "group": "control_change"}, {"time": 2891, "annotation": {"number": 64, "value": 0}, "group": "control_change"}, {"time": 2895, "annotation": {"number": 64, "value": 127}, "group": "control_change"}, {"time": 2926, "annotation": {"number": 64, "value": 0}, "group": "control_change"}, {"time": 2931, "annotation": {"number": 64, "value": 127}, "group": "control_change"}, {"time": 2965, "annotation": {"number": 64, "value": 0}, "group": "control_change"}, {"time": 3003, "annotation": {"number": 64, "value": 127}, "group": "control_change"}, {"time": 3037, "annotation": {"number": 64, "value": 0}, "group": "control_change"}, {"time": 3050, "annotation": {"number": 64, "value": 127}, "group": "control_change"}, {"time": 3074, "annotation": {"number": 64, "value": 0}, "group": "control_change"}, {"time": 3084, "annotation": {"number": 64, "value": 127}, "group": "control_change"}, {"time": 3107, "annotation": {"number": 64, "value": 0}, "group": "control_change"}, {"time": 3111, "annotation": {"number": 64, "value": 127}, "group": "control_change"}, {"time": 3146, "annotation": {"number": 64, "value": 0}, "group": "control_change"}, {"time": 3158, "annotation": {"number": 64, "value": 127}, "group": "control_change"}, {"time": 3182, "annotation": {"number": 64, "value": 0}, "group": "control_change"}, {"time": 3190, "annotation": {"number": 64, "value": 127}, "group": "control_change"}, {"time": 3216, "annotation": {"number": 64, "value": 0}, "group": "control_change"}, {"time": 3220, "annotation": {"number": 64, "value": 127}, "group": "control_change"}, {"time": 3255, "annotation": {"number": 64, "value": 0}, "group": "control_change"}, {"time": 3277, "annotation": {"number": 64, "value": 127}, "group": "control_change"}, {"time": 3290, "annotation": {"number": 64, "value": 0}, "group": "control_change"}, {"time": 3297, "annotation": {"number": 64, "value": 127}, "group": "control_change"}, {"time": 3503, "annotation": {"number": 64, "value": 0}, "group": "control_change"}, {"time": 3503, "annotation": {"number": 64, "value": 127}, "group": "control_change"}, {"time": 3506, "annotation": {"number": 64, "value": 0}, "group": "control_change"}, {"time": 3507, "annotation": {"number": 64, "value": 127}, "group": "control_change"}, {"time": 3510, "annotation": {"number": 64, "value": 0}, "group": "control_change"}]}]}