{"metadata": {"schema_version": "0.2", "title": "None", "source_filename": "177.mid", "source_format": "midi"}, "resolution": 12, "tempos": [{"time": 0, "qpm": 68.0000725334107}, {"time": 202, "qpm": 53.000022083342536}, {"time": 216, "qpm": 68.0000725334107}, {"time": 2880, "qpm": 64.0}, {"time": 2886, "qpm": 61.95601329576046}, {"time": 2892, "qpm": 60.933501238981194}, {"time": 2898, "qpm": 59.90857950767129}, {"time": 2904, "qpm": 58.87998492672386}, {"time": 2910, "qpm": 57.84894483524621}, {"time": 2916, "qpm": 56.808390978070065}, {"time": 2922, "qpm": 55.755811846437346}, {"time": 2928, "qpm": 54.683904248483664}, {"time": 2934, "qpm": 53.58525548110182}, {"time": 2940, "qpm": 52.43398561211435}, {"time": 2946, "qpm": 51.182093091696984}, {"time": 2952, "qpm": 49.71196061487067}, {"time": 2958, "qpm": 47.71789182353923}, {"time": 2964, "qpm": 45.000011250002814}], "time_signatures": [{"time": 0, "numerator": 4, "denominator": 4}], "tracks": [{"program": 0, "is_drum": false, "name": "MELODY", "notes": [{"time": 216, "pitch": 83, "duration": 3, "velocity": 58}, {"time": 219, "pitch": 83, "duration": 3, "velocity": 75}, {"time": 222, "pitch": 83, "duration": 3, "velocity": 75}, {"time": 225, "pitch": 81, "duration": 3, "velocity": 62}, {"time": 228, "pitch": 81, "duration": 3, "velocity": 70}, {"time": 231, "pitch": 79, "duration": 3, "velocity": 63}, {"time": 234, "pitch": 81, "duration": 3, "velocity": 66}, {"time": 237, "pitch": 83, "duration": 6, "velocity": 63}, {"time": 243, "pitch": 81, "duration": 21, "velocity": 66}, {"time": 264, "pitch": 79, "duration": 3, "velocity": 63}, {"time": 267, "pitch": 79, "duration": 3, "velocity": 62}, {"time": 270, "pitch": 79, "duration": 3, "velocity": 70}, {"time": 273, "pitch": 78, "duration": 3, "velocity": 60}, {"time": 276, "pitch": 78, "duration": 3, "velocity": 72}, {"time": 279, "pitch": 76, "duration": 3, "velocity": 67}, {"time": 282, "pitch": 78, "duration": 3, "velocity": 56}, {"time": 285, "pitch": 79, "duration": 6, "velocity": 64}, {"time": 291, "pitch": 78, "duration": 12, "velocity": 60}, {"time": 303, "pitch": 74, "duration": 3, "velocity": 55}, {"time": 306, "pitch": 76, "duration": 9, "velocity": 78}, {"time": 315, "pitch": 76, "duration": 3, "velocity": 78}, {"time": 318, "pitch": 76, "duration": 3, "velocity": 78}, {"time": 321, "pitch": 79, "duration": 6, "velocity": 88}, {"time": 327, "pitch": 88, "duration": 3, "velocity": 75}, {"time": 330, "pitch": 86, "duration": 6, "velocity": 103}, {"time": 336, "pitch": 86, "duration": 3, "velocity": 103}, {"time": 339, "pitch": 79, "duration": 12, "velocity": 85}, {"time": 351, "pitch": 74, "duration": 3, "velocity": 67}, {"time": 354, "pitch": 76, "duration": 6, "velocity": 67}, {"time": 360, "pitch": 79, "duration": 3, "velocity": 93}, {"time": 363, "pitch": 79, "duration": 3, "velocity": 85}, {"time": 366, "pitch": 79, "duration": 6, "velocity": 73}, {"time": 372, "pitch": 81, "duration": 3, "velocity": 78}, {"time": 375, "pitch": 81, "duration": 33, "velocity": 85}, {"time": 408, "pitch": 83, "duration": 3, "velocity": 58}, {"time": 411, "pitch": 83, "duration": 3, "velocity": 75}, {"time": 414, "pitch": 83, "duration": 3, "velocity": 75}, {"time": 417, "pitch": 81, "duration": 3, "velocity": 62}, {"time": 420, "pitch": 81, "duration": 3, "velocity": 70}, {"time": 423, "pitch": 79, "duration": 3, "velocity": 63}, {"time": 426, "pitch": 81, "duration": 3, "velocity": 66}, {"time": 429, "pitch": 83, "duration": 6, "velocity": 63}, {"time": 435, "pitch": 81, "duration": 21, "velocity": 66}, {"time": 456, "pitch": 79, "duration": 3, "velocity": 63}, {"time": 459, "pitch": 79, "duration": 3, "velocity": 62}, {"time": 462, "pitch": 79, "duration": 3, "velocity": 70}, {"time": 465, "pitch": 78, "duration": 3, "velocity": 60}, {"time": 468, "pitch": 78, "duration": 3, "velocity": 72}, {"time": 471, "pitch": 76, "duration": 3, "velocity": 67}, {"time": 474, "pitch": 78, "duration": 3, "velocity": 56}, {"time": 477, "pitch": 79, "duration": 6, "velocity": 64}, {"time": 483, "pitch": 78, "duration": 12, "velocity": 60}, {"time": 495, "pitch": 74, "duration": 3, "velocity": 55}, {"time": 498, "pitch": 76, "duration": 9, "velocity": 78}, {"time": 507, "pitch": 76, "duration": 3, "velocity": 78}, {"time": 510, "pitch": 76, "duration": 3, "velocity": 78}, {"time": 513, "pitch": 79, "duration": 6, "velocity": 88}, {"time": 519, "pitch": 88, "duration": 3, "velocity": 75}, {"time": 522, "pitch": 86, "duration": 6, "velocity": 82}, {"time": 528, "pitch": 86, "duration": 3, "velocity": 82}, {"time": 531, "pitch": 79, "duration": 12, "velocity": 85}, {"time": 543, "pitch": 74, "duration": 3, "velocity": 67}, {"time": 546, "pitch": 76, "duration": 6, "velocity": 67}, {"time": 552, "pitch": 79, "duration": 3, "velocity": 93}, {"time": 555, "pitch": 79, "duration": 3, "velocity": 85}, {"time": 558, "pitch": 79, "duration": 6, "velocity": 73}, {"time": 564, "pitch": 81, "duration": 3, "velocity": 78}, {"time": 567, "pitch": 81, "duration": 21, "velocity": 85}, {"time": 588, "pitch": 79, "duration": 3, "velocity": 75}, {"time": 591, "pitch": 81, "duration": 3, "velocity": 78}, {"time": 594, "pitch": 81, "duration": 3, "velocity": 76}, {"time": 597, "pitch": 83, "duration": 3, "velocity": 72}, {"time": 600, "pitch": 83, "duration": 3, "velocity": 75}, {"time": 603, "pitch": 83, "duration": 3, "velocity": 69}, {"time": 606, "pitch": 83, "duration": 4, "velocity": 78}, {"time": 609, "pitch": 81, "duration": 4, "velocity": 91}, {"time": 615, "pitch": 79, "duration": 4, "velocity": 66}, {"time": 618, "pitch": 81, "duration": 4, "velocity": 91}, {"time": 621, "pitch": 83, "duration": 5, "velocity": 69}, {"time": 627, "pitch": 81, "duration": 11, "velocity": 72}, {"time": 639, "pitch": 74, "duration": 3, "velocity": 80}, {"time": 642, "pitch": 76, "duration": 5, "velocity": 75}, {"time": 648, "pitch": 79, "duration": 4, "velocity": 72}, {"time": 651, "pitch": 79, "duration": 1, "velocity": 75}, {"time": 654, "pitch": 79, "duration": 6, "velocity": 80}, {"time": 660, "pitch": 76, "duration": 3, "velocity": 73}, {"time": 663, "pitch": 74, "duration": 21, "velocity": 66}, {"time": 684, "pitch": 79, "duration": 3, "velocity": 73}, {"time": 687, "pitch": 81, "duration": 3, "velocity": 73}, {"time": 690, "pitch": 83, "duration": 3, "velocity": 76}, {"time": 693, "pitch": 83, "duration": 3, "velocity": 76}, {"time": 696, "pitch": 83, "duration": 3, "velocity": 76}, {"time": 699, "pitch": 83, "duration": 3, "velocity": 85}, {"time": 702, "pitch": 83, "duration": 3, "velocity": 93}, {"time": 705, "pitch": 88, "duration": 9, "velocity": 81}, {"time": 714, "pitch": 86, "duration": 6, "velocity": 79}, {"time": 720, "pitch": 86, "duration": 3, "velocity": 74}, {"time": 723, "pitch": 83, "duration": 15, "velocity": 66}, {"time": 738, "pitch": 83, "duration": 3, "velocity": 85}, {"time": 741, "pitch": 84, "duration": 3, "velocity": 76}, {"time": 744, "pitch": 84, "duration": 3, "velocity": 85}, {"time": 747, "pitch": 83, "duration": 3, "velocity": 85}, {"time": 750, "pitch": 84, "duration": 3, "velocity": 91}, {"time": 753, "pitch": 86, "duration": 9, "velocity": 95}, {"time": 762, "pitch": 86, "duration": 18, "velocity": 97}, {"time": 780, "pitch": 79, "duration": 3, "velocity": 99}, {"time": 783, "pitch": 81, "duration": 3, "velocity": 80}, {"time": 786, "pitch": 81, "duration": 3, "velocity": 93}, {"time": 789, "pitch": 83, "duration": 3, "velocity": 88}, {"time": 792, "pitch": 83, "duration": 3, "velocity": 82}, {"time": 795, "pitch": 83, "duration": 3, "velocity": 95}, {"time": 798, "pitch": 83, "duration": 12, "velocity": 95}, {"time": 810, "pitch": 81, "duration": 3, "velocity": 88}, {"time": 813, "pitch": 86, "duration": 3, "velocity": 72}, {"time": 816, "pitch": 86, "duration": 3, "velocity": 80}, {"time": 819, "pitch": 86, "duration": 3, "velocity": 85}, {"time": 822, "pitch": 86, "duration": 9, "velocity": 97}, {"time": 831, "pitch": 86, "duration": 3, "velocity": 93}, {"time": 834, "pitch": 91, "duration": 3, "velocity": 78}, {"time": 837, "pitch": 91, "duration": 3, "velocity": 82}, {"time": 840, "pitch": 91, "duration": 3, "velocity": 78}, {"time": 843, "pitch": 91, "duration": 3, "velocity": 85}, {"time": 846, "pitch": 91, "duration": 6, "velocity": 91}, {"time": 852, "pitch": 88, "duration": 3, "velocity": 93}, {"time": 855, "pitch": 91, "duration": 3, "velocity": 76}, {"time": 858, "pitch": 88, "duration": 6, "velocity": 93}, {"time": 864, "pitch": 86, "duration": 15, "velocity": 85}, {"time": 879, "pitch": 79, "duration": 3, "velocity": 76}, {"time": 882, "pitch": 79, "duration": 3, "velocity": 82}, {"time": 885, "pitch": 88, "duration": 3, "velocity": 88}, {"time": 888, "pitch": 88, "duration": 3, "velocity": 78}, {"time": 891, "pitch": 88, "duration": 3, "velocity": 85}, {"time": 894, "pitch": 88, "duration": 6, "velocity": 93}, {"time": 900, "pitch": 86, "duration": 3, "velocity": 75}, {"time": 903, "pitch": 83, "duration": 3, "velocity": 95}, {"time": 906, "pitch": 83, "duration": 6, "velocity": 97}, {"time": 912, "pitch": 81, "duration": 3, "velocity": 66}, {"time": 915, "pitch": 79, "duration": 9, "velocity": 80}, {"time": 924, "pitch": 74, "duration": 3, "velocity": 78}, {"time": 927, "pitch": 74, "duration": 3, "velocity": 88}, {"time": 930, "pitch": 76, "duration": 6, "velocity": 78}, {"time": 936, "pitch": 79, "duration": 3, "velocity": 88}, {"time": 939, "pitch": 79, "duration": 6, "velocity": 82}, {"time": 945, "pitch": 83, "duration": 9, "velocity": 75}, {"time": 954, "pitch": 81, "duration": 24, "velocity": 93}, {"time": 972, "pitch": 79, "duration": 3, "velocity": 99}, {"time": 975, "pitch": 81, "duration": 3, "velocity": 80}, {"time": 978, "pitch": 81, "duration": 3, "velocity": 93}, {"time": 981, "pitch": 83, "duration": 3, "velocity": 88}, {"time": 984, "pitch": 83, "duration": 3, "velocity": 82}, {"time": 987, "pitch": 83, "duration": 3, "velocity": 95}, {"time": 990, "pitch": 83, "duration": 12, "velocity": 95}, {"time": 1002, "pitch": 81, "duration": 3, "velocity": 88}, {"time": 1005, "pitch": 86, "duration": 3, "velocity": 72}, {"time": 1008, "pitch": 86, "duration": 3, "velocity": 80}, {"time": 1011, "pitch": 86, "duration": 3, "velocity": 85}, {"time": 1014, "pitch": 86, "duration": 9, "velocity": 97}, {"time": 1023, "pitch": 86, "duration": 3, "velocity": 93}, {"time": 1026, "pitch": 91, "duration": 3, "velocity": 78}, {"time": 1029, "pitch": 91, "duration": 3, "velocity": 82}, {"time": 1032, "pitch": 91, "duration": 3, "velocity": 78}, {"time": 1035, "pitch": 91, "duration": 3, "velocity": 85}, {"time": 1038, "pitch": 91, "duration": 6, "velocity": 91}, {"time": 1044, "pitch": 88, "duration": 3, "velocity": 93}, {"time": 1047, "pitch": 91, "duration": 3, "velocity": 76}, {"time": 1050, "pitch": 88, "duration": 6, "velocity": 93}, {"time": 1056, "pitch": 86, "duration": 3, "velocity": 85}, {"time": 1059, "pitch": 86, "duration": 3, "velocity": 85}, {"time": 1071, "pitch": 79, "duration": 3, "velocity": 76}, {"time": 1074, "pitch": 79, "duration": 3, "velocity": 82}, {"time": 1077, "pitch": 88, "duration": 3, "velocity": 88}, {"time": 1080, "pitch": 88, "duration": 3, "velocity": 78}, {"time": 1083, "pitch": 88, "duration": 3, "velocity": 85}, {"time": 1086, "pitch": 88, "duration": 6, "velocity": 93}, {"time": 1092, "pitch": 86, "duration": 3, "velocity": 75}, {"time": 1095, "pitch": 83, "duration": 3, "velocity": 95}, {"time": 1098, "pitch": 83, "duration": 6, "velocity": 97}, {"time": 1104, "pitch": 81, "duration": 3, "velocity": 66}, {"time": 1107, "pitch": 79, "duration": 9, "velocity": 80}, {"time": 1119, "pitch": 74, "duration": 3, "velocity": 88}, {"time": 1122, "pitch": 76, "duration": 6, "velocity": 78}, {"time": 1128, "pitch": 79, "duration": 3, "velocity": 88}, {"time": 1131, "pitch": 79, "duration": 6, "velocity": 82}, {"time": 1137, "pitch": 83, "duration": 9, "velocity": 75}, {"time": 1146, "pitch": 81, "duration": 21, "velocity": 93}, {"time": 1164, "pitch": 81, "duration": 3, "velocity": 93}, {"time": 1167, "pitch": 83, "duration": 3, "velocity": 78}, {"time": 1170, "pitch": 81, "duration": 5, "velocity": 80}, {"time": 1176, "pitch": 79, "duration": 2, "velocity": 80}, {"time": 1179, "pitch": 79, "duration": 16, "velocity": 78}, {"time": 1212, "pitch": 67, "duration": 2, "velocity": 78}, {"time": 1215, "pitch": 69, "duration": 2, "velocity": 75}, {"time": 1218, "pitch": 69, "duration": 13, "velocity": 97}, {"time": 1230, "pitch": 71, "duration": 8, "velocity": 76}, {"time": 1260, "pitch": 62, "duration": 6, "velocity": 82}, {"time": 1266, "pitch": 64, "duration": 11, "velocity": 76}, {"time": 1278, "pitch": 72, "duration": 11, "velocity": 85}, {"time": 1290, "pitch": 71, "duration": 14, "velocity": 93}, {"time": 1308, "pitch": 79, "duration": 1, "velocity": 91}, {"time": 1308, "pitch": 91, "duration": 2, "velocity": 88}, {"time": 1311, "pitch": 81, "duration": 1, "velocity": 60}, {"time": 1311, "pitch": 93, "duration": 2, "velocity": 82}, {"time": 1314, "pitch": 81, "duration": 9, "velocity": 88}, {"time": 1314, "pitch": 93, "duration": 10, "velocity": 78}, {"time": 1326, "pitch": 83, "duration": 9, "velocity": 72}, {"time": 1326, "pitch": 95, "duration": 9, "velocity": 85}, {"time": 1338, "pitch": 78, "duration": 9, "velocity": 95}, {"time": 1338, "pitch": 90, "duration": 9, "velocity": 66}, {"time": 1350, "pitch": 74, "duration": 9, "velocity": 58}, {"time": 1350, "pitch": 86, "duration": 9, "velocity": 88}, {"time": 1362, "pitch": 76, "duration": 10, "velocity": 60}, {"time": 1362, "pitch": 88, "duration": 11, "velocity": 70}, {"time": 1374, "pitch": 84, "duration": 4, "velocity": 80}, {"time": 1374, "pitch": 96, "duration": 3, "velocity": 70}, {"time": 1380, "pitch": 81, "duration": 4, "velocity": 85}, {"time": 1380, "pitch": 93, "duration": 5, "velocity": 75}, {"time": 1386, "pitch": 86, "duration": 14, "velocity": 58}, {"time": 1386, "pitch": 91, "duration": 11, "velocity": 58}, {"time": 1389, "pitch": 95, "duration": 15, "velocity": 82}, {"time": 1416, "pitch": 71, "duration": 3, "velocity": 58}, {"time": 1419, "pitch": 71, "duration": 3, "velocity": 75}, {"time": 1422, "pitch": 71, "duration": 3, "velocity": 75}, {"time": 1425, "pitch": 69, "duration": 3, "velocity": 62}, {"time": 1428, "pitch": 69, "duration": 3, "velocity": 70}, {"time": 1431, "pitch": 67, "duration": 3, "velocity": 63}, {"time": 1434, "pitch": 69, "duration": 3, "velocity": 66}, {"time": 1437, "pitch": 71, "duration": 6, "velocity": 63}, {"time": 1443, "pitch": 69, "duration": 21, "velocity": 66}, {"time": 1464, "pitch": 67, "duration": 3, "velocity": 63}, {"time": 1467, "pitch": 67, "duration": 3, "velocity": 62}, {"time": 1470, "pitch": 67, "duration": 3, "velocity": 70}, {"time": 1473, "pitch": 66, "duration": 3, "velocity": 60}, {"time": 1476, "pitch": 66, "duration": 3, "velocity": 72}, {"time": 1479, "pitch": 64, "duration": 3, "velocity": 67}, {"time": 1482, "pitch": 66, "duration": 3, "velocity": 56}, {"time": 1485, "pitch": 67, "duration": 6, "velocity": 64}, {"time": 1491, "pitch": 66, "duration": 12, "velocity": 60}, {"time": 1503, "pitch": 62, "duration": 3, "velocity": 55}, {"time": 1506, "pitch": 64, "duration": 9, "velocity": 78}, {"time": 1515, "pitch": 64, "duration": 3, "velocity": 78}, {"time": 1518, "pitch": 64, "duration": 3, "velocity": 78}, {"time": 1521, "pitch": 67, "duration": 6, "velocity": 88}, {"time": 1527, "pitch": 76, "duration": 3, "velocity": 75}, {"time": 1530, "pitch": 74, "duration": 6, "velocity": 103}, {"time": 1536, "pitch": 74, "duration": 3, "velocity": 103}, {"time": 1539, "pitch": 67, "duration": 12, "velocity": 85}, {"time": 1551, "pitch": 62, "duration": 3, "velocity": 67}, {"time": 1554, "pitch": 64, "duration": 6, "velocity": 67}, {"time": 1560, "pitch": 67, "duration": 3, "velocity": 93}, {"time": 1563, "pitch": 67, "duration": 3, "velocity": 85}, {"time": 1566, "pitch": 67, "duration": 6, "velocity": 73}, {"time": 1572, "pitch": 69, "duration": 3, "velocity": 78}, {"time": 1575, "pitch": 69, "duration": 33, "velocity": 85}, {"time": 1608, "pitch": 71, "duration": 3, "velocity": 58}, {"time": 1611, "pitch": 71, "duration": 3, "velocity": 75}, {"time": 1614, "pitch": 71, "duration": 3, "velocity": 75}, {"time": 1617, "pitch": 69, "duration": 3, "velocity": 62}, {"time": 1620, "pitch": 69, "duration": 3, "velocity": 70}, {"time": 1623, "pitch": 67, "duration": 3, "velocity": 63}, {"time": 1626, "pitch": 69, "duration": 3, "velocity": 66}, {"time": 1629, "pitch": 71, "duration": 6, "velocity": 63}, {"time": 1635, "pitch": 69, "duration": 21, "velocity": 66}, {"time": 1656, "pitch": 67, "duration": 3, "velocity": 63}, {"time": 1659, "pitch": 67, "duration": 3, "velocity": 62}, {"time": 1662, "pitch": 67, "duration": 3, "velocity": 70}, {"time": 1665, "pitch": 66, "duration": 3, "velocity": 60}, {"time": 1668, "pitch": 66, "duration": 3, "velocity": 72}, {"time": 1671, "pitch": 64, "duration": 3, "velocity": 67}, {"time": 1674, "pitch": 66, "duration": 3, "velocity": 56}, {"time": 1677, "pitch": 67, "duration": 6, "velocity": 64}, {"time": 1683, "pitch": 66, "duration": 12, "velocity": 60}, {"time": 1695, "pitch": 62, "duration": 3, "velocity": 55}, {"time": 1698, "pitch": 64, "duration": 9, "velocity": 78}, {"time": 1707, "pitch": 64, "duration": 3, "velocity": 78}, {"time": 1710, "pitch": 64, "duration": 3, "velocity": 78}, {"time": 1713, "pitch": 67, "duration": 6, "velocity": 88}, {"time": 1719, "pitch": 76, "duration": 3, "velocity": 75}, {"time": 1722, "pitch": 74, "duration": 6, "velocity": 82}, {"time": 1728, "pitch": 74, "duration": 3, "velocity": 82}, {"time": 1731, "pitch": 67, "duration": 12, "velocity": 85}, {"time": 1743, "pitch": 62, "duration": 3, "velocity": 67}, {"time": 1746, "pitch": 64, "duration": 6, "velocity": 67}, {"time": 1752, "pitch": 67, "duration": 3, "velocity": 93}, {"time": 1755, "pitch": 67, "duration": 3, "velocity": 85}, {"time": 1758, "pitch": 67, "duration": 6, "velocity": 73}, {"time": 1764, "pitch": 69, "duration": 3, "velocity": 78}, {"time": 1767, "pitch": 69, "duration": 21, "velocity": 85}, {"time": 1788, "pitch": 67, "duration": 3, "velocity": 75}, {"time": 1791, "pitch": 69, "duration": 3, "velocity": 78}, {"time": 1794, "pitch": 69, "duration": 3, "velocity": 76}, {"time": 1797, "pitch": 71, "duration": 3, "velocity": 72}, {"time": 1800, "pitch": 71, "duration": 3, "velocity": 75}, {"time": 1803, "pitch": 71, "duration": 3, "velocity": 69}, {"time": 1806, "pitch": 71, "duration": 4, "velocity": 78}, {"time": 1809, "pitch": 69, "duration": 4, "velocity": 91}, {"time": 1815, "pitch": 67, "duration": 4, "velocity": 66}, {"time": 1818, "pitch": 69, "duration": 4, "velocity": 91}, {"time": 1821, "pitch": 71, "duration": 5, "velocity": 69}, {"time": 1827, "pitch": 69, "duration": 11, "velocity": 72}, {"time": 1839, "pitch": 62, "duration": 3, "velocity": 80}, {"time": 1842, "pitch": 64, "duration": 5, "velocity": 75}, {"time": 1848, "pitch": 67, "duration": 4, "velocity": 72}, {"time": 1851, "pitch": 67, "duration": 1, "velocity": 75}, {"time": 1854, "pitch": 67, "duration": 6, "velocity": 80}, {"time": 1860, "pitch": 64, "duration": 3, "velocity": 73}, {"time": 1863, "pitch": 62, "duration": 21, "velocity": 66}, {"time": 1884, "pitch": 67, "duration": 3, "velocity": 73}, {"time": 1887, "pitch": 69, "duration": 3, "velocity": 73}, {"time": 1890, "pitch": 71, "duration": 3, "velocity": 76}, {"time": 1893, "pitch": 71, "duration": 3, "velocity": 76}, {"time": 1896, "pitch": 71, "duration": 3, "velocity": 76}, {"time": 1899, "pitch": 71, "duration": 3, "velocity": 85}, {"time": 1902, "pitch": 71, "duration": 3, "velocity": 93}, {"time": 1905, "pitch": 76, "duration": 9, "velocity": 81}, {"time": 1914, "pitch": 74, "duration": 6, "velocity": 79}, {"time": 1920, "pitch": 74, "duration": 3, "velocity": 74}, {"time": 1923, "pitch": 71, "duration": 15, "velocity": 66}, {"time": 1938, "pitch": 71, "duration": 3, "velocity": 85}, {"time": 1941, "pitch": 72, "duration": 3, "velocity": 76}, {"time": 1944, "pitch": 72, "duration": 3, "velocity": 85}, {"time": 1947, "pitch": 71, "duration": 3, "velocity": 85}, {"time": 1950, "pitch": 72, "duration": 3, "velocity": 91}, {"time": 1953, "pitch": 74, "duration": 9, "velocity": 95}, {"time": 1962, "pitch": 74, "duration": 18, "velocity": 97}, {"time": 2028, "pitch": 67, "duration": 3, "velocity": 99}, {"time": 2031, "pitch": 69, "duration": 3, "velocity": 80}, {"time": 2034, "pitch": 69, "duration": 3, "velocity": 93}, {"time": 2037, "pitch": 71, "duration": 3, "velocity": 88}, {"time": 2040, "pitch": 71, "duration": 3, "velocity": 82}, {"time": 2043, "pitch": 71, "duration": 3, "velocity": 95}, {"time": 2046, "pitch": 71, "duration": 12, "velocity": 95}, {"time": 2058, "pitch": 69, "duration": 3, "velocity": 88}, {"time": 2061, "pitch": 74, "duration": 3, "velocity": 72}, {"time": 2064, "pitch": 74, "duration": 3, "velocity": 80}, {"time": 2067, "pitch": 74, "duration": 3, "velocity": 85}, {"time": 2070, "pitch": 74, "duration": 9, "velocity": 97}, {"time": 2079, "pitch": 74, "duration": 3, "velocity": 93}, {"time": 2082, "pitch": 79, "duration": 3, "velocity": 78}, {"time": 2085, "pitch": 79, "duration": 3, "velocity": 82}, {"time": 2088, "pitch": 79, "duration": 3, "velocity": 78}, {"time": 2091, "pitch": 79, "duration": 3, "velocity": 85}, {"time": 2094, "pitch": 79, "duration": 6, "velocity": 91}, {"time": 2100, "pitch": 76, "duration": 3, "velocity": 93}, {"time": 2103, "pitch": 79, "duration": 3, "velocity": 76}, {"time": 2106, "pitch": 76, "duration": 6, "velocity": 93}, {"time": 2112, "pitch": 74, "duration": 15, "velocity": 85}, {"time": 2127, "pitch": 67, "duration": 3, "velocity": 76}, {"time": 2130, "pitch": 67, "duration": 3, "velocity": 82}, {"time": 2133, "pitch": 76, "duration": 3, "velocity": 88}, {"time": 2136, "pitch": 76, "duration": 3, "velocity": 78}, {"time": 2139, "pitch": 76, "duration": 3, "velocity": 85}, {"time": 2142, "pitch": 76, "duration": 6, "velocity": 93}, {"time": 2148, "pitch": 74, "duration": 3, "velocity": 75}, {"time": 2151, "pitch": 71, "duration": 3, "velocity": 95}, {"time": 2154, "pitch": 71, "duration": 6, "velocity": 97}, {"time": 2160, "pitch": 69, "duration": 3, "velocity": 66}, {"time": 2163, "pitch": 67, "duration": 9, "velocity": 80}, {"time": 2172, "pitch": 62, "duration": 3, "velocity": 78}, {"time": 2175, "pitch": 62, "duration": 3, "velocity": 88}, {"time": 2178, "pitch": 64, "duration": 6, "velocity": 78}, {"time": 2184, "pitch": 67, "duration": 3, "velocity": 88}, {"time": 2187, "pitch": 67, "duration": 6, "velocity": 82}, {"time": 2193, "pitch": 71, "duration": 9, "velocity": 75}, {"time": 2202, "pitch": 69, "duration": 18, "velocity": 93}, {"time": 2220, "pitch": 67, "duration": 3, "velocity": 99}, {"time": 2223, "pitch": 69, "duration": 3, "velocity": 80}, {"time": 2226, "pitch": 69, "duration": 3, "velocity": 93}, {"time": 2229, "pitch": 71, "duration": 3, "velocity": 88}, {"time": 2232, "pitch": 71, "duration": 3, "velocity": 82}, {"time": 2235, "pitch": 71, "duration": 3, "velocity": 95}, {"time": 2238, "pitch": 71, "duration": 12, "velocity": 95}, {"time": 2250, "pitch": 69, "duration": 3, "velocity": 88}, {"time": 2253, "pitch": 74, "duration": 3, "velocity": 72}, {"time": 2256, "pitch": 74, "duration": 3, "velocity": 80}, {"time": 2259, "pitch": 74, "duration": 3, "velocity": 85}, {"time": 2262, "pitch": 74, "duration": 9, "velocity": 97}, {"time": 2271, "pitch": 74, "duration": 3, "velocity": 93}, {"time": 2274, "pitch": 79, "duration": 3, "velocity": 78}, {"time": 2277, "pitch": 79, "duration": 3, "velocity": 82}, {"time": 2280, "pitch": 79, "duration": 3, "velocity": 78}, {"time": 2283, "pitch": 79, "duration": 3, "velocity": 85}, {"time": 2286, "pitch": 79, "duration": 6, "velocity": 91}, {"time": 2292, "pitch": 76, "duration": 3, "velocity": 93}, {"time": 2295, "pitch": 79, "duration": 3, "velocity": 76}, {"time": 2298, "pitch": 76, "duration": 6, "velocity": 93}, {"time": 2304, "pitch": 74, "duration": 3, "velocity": 85}, {"time": 2307, "pitch": 74, "duration": 3, "velocity": 85}, {"time": 2319, "pitch": 67, "duration": 3, "velocity": 76}, {"time": 2322, "pitch": 67, "duration": 3, "velocity": 82}, {"time": 2325, "pitch": 76, "duration": 3, "velocity": 88}, {"time": 2328, "pitch": 76, "duration": 3, "velocity": 78}, {"time": 2331, "pitch": 76, "duration": 3, "velocity": 85}, {"time": 2334, "pitch": 76, "duration": 6, "velocity": 93}, {"time": 2340, "pitch": 74, "duration": 3, "velocity": 75}, {"time": 2343, "pitch": 71, "duration": 3, "velocity": 95}, {"time": 2346, "pitch": 71, "duration": 6, "velocity": 97}, {"time": 2352, "pitch": 69, "duration": 3, "velocity": 66}, {"time": 2355, "pitch": 67, "duration": 9, "velocity": 80}, {"time": 2367, "pitch": 62, "duration": 3, "velocity": 88}, {"time": 2370, "pitch": 64, "duration": 6, "velocity": 78}, {"time": 2376, "pitch": 67, "duration": 3, "velocity": 88}, {"time": 2379, "pitch": 67, "duration": 6, "velocity": 82}, {"time": 2385, "pitch": 71, "duration": 9, "velocity": 75}, {"time": 2394, "pitch": 69, "duration": 21, "velocity": 93}, {"time": 2412, "pitch": 69, "duration": 3, "velocity": 93}, {"time": 2415, "pitch": 71, "duration": 3, "velocity": 78}, {"time": 2418, "pitch": 69, "duration": 5, "velocity": 80}, {"time": 2424, "pitch": 67, "duration": 2, "velocity": 80}, {"time": 2427, "pitch": 67, "duration": 16, "velocity": 78}, {"time": 2460, "pitch": 67, "duration": 3, "velocity": 99}, {"time": 2463, "pitch": 69, "duration": 3, "velocity": 80}, {"time": 2466, "pitch": 69, "duration": 3, "velocity": 93}, {"time": 2469, "pitch": 71, "duration": 3, "velocity": 88}, {"time": 2472, "pitch": 71, "duration": 3, "velocity": 82}, {"time": 2475, "pitch": 71, "duration": 3, "velocity": 95}, {"time": 2478, "pitch": 71, "duration": 12, "velocity": 95}, {"time": 2490, "pitch": 69, "duration": 3, "velocity": 88}, {"time": 2493, "pitch": 74, "duration": 3, "velocity": 72}, {"time": 2496, "pitch": 74, "duration": 3, "velocity": 80}, {"time": 2499, "pitch": 74, "duration": 3, "velocity": 85}, {"time": 2502, "pitch": 74, "duration": 9, "velocity": 97}, {"time": 2511, "pitch": 74, "duration": 3, "velocity": 93}, {"time": 2514, "pitch": 79, "duration": 3, "velocity": 78}, {"time": 2517, "pitch": 79, "duration": 3, "velocity": 82}, {"time": 2520, "pitch": 79, "duration": 3, "velocity": 78}, {"time": 2523, "pitch": 79, "duration": 3, "velocity": 85}, {"time": 2526, "pitch": 79, "duration": 6, "velocity": 91}, {"time": 2532, "pitch": 76, "duration": 3, "velocity": 93}, {"time": 2535, "pitch": 79, "duration": 3, "velocity": 76}, {"time": 2538, "pitch": 76, "duration": 6, "velocity": 93}, {"time": 2544, "pitch": 74, "duration": 15, "velocity": 85}, {"time": 2559, "pitch": 67, "duration": 3, "velocity": 76}, {"time": 2562, "pitch": 67, "duration": 3, "velocity": 82}, {"time": 2565, "pitch": 76, "duration": 3, "velocity": 88}, {"time": 2568, "pitch": 76, "duration": 3, "velocity": 78}, {"time": 2571, "pitch": 76, "duration": 3, "velocity": 85}, {"time": 2574, "pitch": 76, "duration": 6, "velocity": 93}, {"time": 2580, "pitch": 74, "duration": 3, "velocity": 75}, {"time": 2583, "pitch": 71, "duration": 3, "velocity": 95}, {"time": 2586, "pitch": 71, "duration": 6, "velocity": 97}, {"time": 2592, "pitch": 69, "duration": 3, "velocity": 66}, {"time": 2595, "pitch": 67, "duration": 9, "velocity": 80}, {"time": 2604, "pitch": 62, "duration": 3, "velocity": 78}, {"time": 2607, "pitch": 62, "duration": 3, "velocity": 88}, {"time": 2610, "pitch": 64, "duration": 6, "velocity": 78}, {"time": 2616, "pitch": 67, "duration": 3, "velocity": 88}, {"time": 2619, "pitch": 67, "duration": 6, "velocity": 82}, {"time": 2625, "pitch": 71, "duration": 9, "velocity": 75}, {"time": 2634, "pitch": 69, "duration": 18, "velocity": 93}, {"time": 2652, "pitch": 67, "duration": 3, "velocity": 99}, {"time": 2655, "pitch": 69, "duration": 3, "velocity": 80}, {"time": 2658, "pitch": 69, "duration": 3, "velocity": 93}, {"time": 2661, "pitch": 71, "duration": 3, "velocity": 88}, {"time": 2664, "pitch": 71, "duration": 3, "velocity": 82}, {"time": 2667, "pitch": 71, "duration": 3, "velocity": 95}, {"time": 2670, "pitch": 71, "duration": 12, "velocity": 95}, {"time": 2682, "pitch": 69, "duration": 3, "velocity": 88}, {"time": 2685, "pitch": 74, "duration": 3, "velocity": 72}, {"time": 2688, "pitch": 74, "duration": 3, "velocity": 80}, {"time": 2691, "pitch": 74, "duration": 3, "velocity": 85}, {"time": 2694, "pitch": 74, "duration": 9, "velocity": 97}, {"time": 2703, "pitch": 74, "duration": 3, "velocity": 93}, {"time": 2706, "pitch": 79, "duration": 3, "velocity": 78}, {"time": 2709, "pitch": 79, "duration": 3, "velocity": 82}, {"time": 2712, "pitch": 79, "duration": 3, "velocity": 78}, {"time": 2715, "pitch": 79, "duration": 3, "velocity": 85}, {"time": 2718, "pitch": 79, "duration": 6, "velocity": 91}, {"time": 2724, "pitch": 79, "duration": 3, "velocity": 93}, {"time": 2727, "pitch": 81, "duration": 3, "velocity": 76}, {"time": 2730, "pitch": 83, "duration": 6, "velocity": 93}, {"time": 2736, "pitch": 76, "duration": 3, "velocity": 85}, {"time": 2739, "pitch": 74, "duration": 3, "velocity": 85}, {"time": 2751, "pitch": 67, "duration": 3, "velocity": 76}, {"time": 2754, "pitch": 67, "duration": 3, "velocity": 82}, {"time": 2757, "pitch": 76, "duration": 3, "velocity": 88}, {"time": 2760, "pitch": 76, "duration": 3, "velocity": 78}, {"time": 2763, "pitch": 76, "duration": 3, "velocity": 85}, {"time": 2766, "pitch": 76, "duration": 6, "velocity": 93}, {"time": 2772, "pitch": 74, "duration": 3, "velocity": 75}, {"time": 2775, "pitch": 71, "duration": 3, "velocity": 95}, {"time": 2778, "pitch": 71, "duration": 6, "velocity": 97}, {"time": 2784, "pitch": 69, "duration": 3, "velocity": 66}, {"time": 2787, "pitch": 67, "duration": 9, "velocity": 80}, {"time": 2799, "pitch": 62, "duration": 3, "velocity": 88}, {"time": 2802, "pitch": 64, "duration": 6, "velocity": 78}, {"time": 2808, "pitch": 67, "duration": 3, "velocity": 88}, {"time": 2811, "pitch": 67, "duration": 6, "velocity": 82}, {"time": 2817, "pitch": 71, "duration": 9, "velocity": 75}, {"time": 2826, "pitch": 69, "duration": 21, "velocity": 93}, {"time": 2844, "pitch": 69, "duration": 3, "velocity": 93}, {"time": 2847, "pitch": 71, "duration": 3, "velocity": 78}, {"time": 2850, "pitch": 69, "duration": 5, "velocity": 80}, {"time": 2856, "pitch": 67, "duration": 2, "velocity": 80}, {"time": 2859, "pitch": 67, "duration": 16, "velocity": 78}, {"time": 2892, "pitch": 62, "duration": 1, "velocity": 67}, {"time": 2895, "pitch": 62, "duration": 4, "velocity": 72}, {"time": 2898, "pitch": 64, "duration": 5, "velocity": 73}, {"time": 2904, "pitch": 67, "duration": 3, "velocity": 69}, {"time": 2907, "pitch": 67, "duration": 2, "velocity": 66}, {"time": 2910, "pitch": 67, "duration": 4, "velocity": 64}, {"time": 2913, "pitch": 71, "duration": 4, "velocity": 70}, {"time": 2915, "pitch": 69, "duration": 13, "velocity": 64}, {"time": 2937, "pitch": 69, "duration": 3, "velocity": 62}, {"time": 2940, "pitch": 71, "duration": 4, "velocity": 72}, {"time": 2943, "pitch": 69, "duration": 5, "velocity": 70}, {"time": 2949, "pitch": 67, "duration": 2, "velocity": 69}, {"time": 2952, "pitch": 67, "duration": 14, "velocity": 64}], "annotations": [{"time": 258, "annotation": {"number": 64, "value": 0}, "group": "control_change"}, {"time": 261, "annotation": {"number": 64, "value": 127}, "group": "control_change"}, {"time": 303, "annotation": {"number": 64, "value": 127}, "group": "control_change"}, {"time": 304, "annotation": {"number": 64, "value": 0}, "group": "control_change"}, {"time": 450, "annotation": {"number": 64, "value": 0}, "group": "control_change"}, {"time": 453, "annotation": {"number": 64, "value": 127}, "group": "control_change"}, {"time": 495, "annotation": {"number": 64, "value": 127}, "group": "control_change"}, {"time": 496, "annotation": {"number": 64, "value": 0}, "group": "control_change"}, {"time": 594, "annotation": {"number": 64, "value": 127}, "group": "control_change"}, {"time": 616, "annotation": {"number": 64, "value": 0}, "group": "control_change"}, {"time": 619, "annotation": {"number": 64, "value": 127}, "group": "control_change"}, {"time": 642, "annotation": {"number": 64, "value": 0}, "group": "control_change"}, {"time": 645, "annotation": {"number": 64, "value": 127}, "group": "control_change"}, {"time": 666, "annotation": {"number": 64, "value": 0}, "group": "control_change"}, {"time": 669, "annotation": {"number": 64, "value": 127}, "group": "control_change"}, {"time": 690, "annotation": {"number": 64, "value": 0}, "group": "control_change"}, {"time": 693, "annotation": {"number": 64, "value": 127}, "group": "control_change"}, {"time": 713, "annotation": {"number": 64, "value": 0}, "group": "control_change"}, {"time": 717, "annotation": {"number": 64, "value": 127}, "group": "control_change"}, {"time": 738, "annotation": {"number": 64, "value": 0}, "group": "control_change"}, {"time": 744, "annotation": {"number": 64, "value": 127}, "group": "control_change"}, {"time": 762, "annotation": {"number": 64, "value": 0}, "group": "control_change"}, {"time": 767, "annotation": {"number": 64, "value": 127}, "group": "control_change"}, {"time": 787, "annotation": {"number": 64, "value": 0}, "group": "control_change"}, {"time": 790, "annotation": {"number": 64, "value": 127}, "group": "control_change"}, {"time": 810, "annotation": {"number": 64, "value": 0}, "group": "control_change"}, {"time": 813, "annotation": {"number": 64, "value": 127}, "group": "control_change"}, {"time": 834, "annotation": {"number": 64, "value": 0}, "group": "control_change"}, {"time": 837, "annotation": {"number": 64, "value": 127}, "group": "control_change"}, {"time": 858, "annotation": {"number": 64, "value": 0}, "group": "control_change"}, {"time": 861, "annotation": {"number": 64, "value": 127}, "group": "control_change"}, {"time": 882, "annotation": {"number": 64, "value": 0}, "group": "control_change"}, {"time": 885, "annotation": {"number": 64, "value": 127}, "group": "control_change"}, {"time": 906, "annotation": {"number": 64, "value": 0}, "group": "control_change"}, {"time": 909, "annotation": {"number": 64, "value": 127}, "group": "control_change"}, {"time": 910, "annotation": {"number": 64, "value": 0}, "group": "control_change"}, {"time": 912, "annotation": {"number": 64, "value": 127}, "group": "control_change"}, {"time": 930, "annotation": {"number": 64, "value": 0}, "group": "control_change"}, {"time": 933, "annotation": {"number": 64, "value": 127}, "group": "control_change"}, {"time": 953, "annotation": {"number": 64, "value": 0}, "group": "control_change"}, {"time": 955, "annotation": {"number": 64, "value": 127}, "group": "control_change"}, {"time": 977, "annotation": {"number": 64, "value": 0}, "group": "control_change"}, {"time": 979, "annotation": {"number": 64, "value": 127}, "group": "control_change"}, {"time": 1000, "annotation": {"number": 64, "value": 0}, "group": "control_change"}, {"time": 1004, "annotation": {"number": 64, "value": 127}, "group": "control_change"}, {"time": 1026, "annotation": {"number": 64, "value": 0}, "group": "control_change"}, {"time": 1030, "annotation": {"number": 64, "value": 127}, "group": "control_change"}, {"time": 1050, "annotation": {"number": 64, "value": 0}, "group": "control_change"}, {"time": 1052, "annotation": {"number": 64, "value": 127}, "group": "control_change"}, {"time": 1074, "annotation": {"number": 64, "value": 0}, "group": "control_change"}, {"time": 1076, "annotation": {"number": 64, "value": 127}, "group": "control_change"}, {"time": 1098, "annotation": {"number": 64, "value": 0}, "group": "control_change"}, {"time": 1100, "annotation": {"number": 64, "value": 127}, "group": "control_change"}, {"time": 1119, "annotation": {"number": 64, "value": 0}, "group": "control_change"}, {"time": 1122, "annotation": {"number": 64, "value": 127}, "group": "control_change"}, {"time": 1148, "annotation": {"number": 64, "value": 0}, "group": "control_change"}, {"time": 1150, "annotation": {"number": 64, "value": 127}, "group": "control_change"}, {"time": 1170, "annotation": {"number": 64, "value": 0}, "group": "control_change"}, {"time": 1173, "annotation": {"number": 64, "value": 127}, "group": "control_change"}, {"time": 1193, "annotation": {"number": 64, "value": 0}, "group": "control_change"}, {"time": 1196, "annotation": {"number": 64, "value": 127}, "group": "control_change"}, {"time": 1206, "annotation": {"number": 64, "value": 0}, "group": "control_change"}, {"time": 1458, "annotation": {"number": 64, "value": 0}, "group": "control_change"}, {"time": 1461, "annotation": {"number": 64, "value": 127}, "group": "control_change"}, {"time": 1503, "annotation": {"number": 64, "value": 127}, "group": "control_change"}, {"time": 1504, "annotation": {"number": 64, "value": 0}, "group": "control_change"}, {"time": 1650, "annotation": {"number": 64, "value": 0}, "group": "control_change"}, {"time": 1653, "annotation": {"number": 64, "value": 127}, "group": "control_change"}, {"time": 1695, "annotation": {"number": 64, "value": 127}, "group": "control_change"}, {"time": 1696, "annotation": {"number": 64, "value": 0}, "group": "control_change"}, {"time": 1794, "annotation": {"number": 64, "value": 127}, "group": "control_change"}, {"time": 1816, "annotation": {"number": 64, "value": 0}, "group": "control_change"}, {"time": 1819, "annotation": {"number": 64, "value": 127}, "group": "control_change"}, {"time": 1842, "annotation": {"number": 64, "value": 0}, "group": "control_change"}, {"time": 1845, "annotation": {"number": 64, "value": 127}, "group": "control_change"}, {"time": 1866, "annotation": {"number": 64, "value": 0}, "group": "control_change"}, {"time": 1869, "annotation": {"number": 64, "value": 127}, "group": "control_change"}, {"time": 1890, "annotation": {"number": 64, "value": 0}, "group": "control_change"}, {"time": 1893, "annotation": {"number": 64, "value": 127}, "group": "control_change"}, {"time": 1913, "annotation": {"number": 64, "value": 0}, "group": "control_change"}, {"time": 1917, "annotation": {"number": 64, "value": 127}, "group": "control_change"}, {"time": 1938, "annotation": {"number": 64, "value": 0}, "group": "control_change"}, {"time": 1944, "annotation": {"number": 64, "value": 127}, "group": "control_change"}, {"time": 1962, "annotation": {"number": 64, "value": 0}, "group": "control_change"}, {"time": 1967, "annotation": {"number": 64, "value": 127}, "group": "control_change"}, {"time": 1980, "annotation": {"number": 64, "value": 0}, "group": "control_change"}, {"time": 2035, "annotation": {"number": 64, "value": 0}, "group": "control_change"}, {"time": 2038, "annotation": {"number": 64, "value": 127}, "group": "control_change"}, {"time": 2058, "annotation": {"number": 64, "value": 0}, "group": "control_change"}, {"time": 2061, "annotation": {"number": 64, "value": 127}, "group": "control_change"}, {"time": 2082, "annotation": {"number": 64, "value": 0}, "group": "control_change"}, {"time": 2085, "annotation": {"number": 64, "value": 127}, "group": "control_change"}, {"time": 2106, "annotation": {"number": 64, "value": 0}, "group": "control_change"}, {"time": 2109, "annotation": {"number": 64, "value": 127}, "group": "control_change"}, {"time": 2130, "annotation": {"number": 64, "value": 0}, "group": "control_change"}, {"time": 2133, "annotation": {"number": 64, "value": 127}, "group": "control_change"}, {"time": 2154, "annotation": {"number": 64, "value": 0}, "group": "control_change"}, {"time": 2157, "annotation": {"number": 64, "value": 127}, "group": "control_change"}, {"time": 2158, "annotation": {"number": 64, "value": 0}, "group": "control_change"}, {"time": 2160, "annotation": {"number": 64, "value": 127}, "group": "control_change"}, {"time": 2178, "annotation": {"number": 64, "value": 0}, "group": "control_change"}, {"time": 2181, "annotation": {"number": 64, "value": 127}, "group": "control_change"}, {"time": 2201, "annotation": {"number": 64, "value": 0}, "group": "control_change"}, {"time": 2203, "annotation": {"number": 64, "value": 127}, "group": "control_change"}, {"time": 2225, "annotation": {"number": 64, "value": 0}, "group": "control_change"}, {"time": 2227, "annotation": {"number": 64, "value": 127}, "group": "control_change"}, {"time": 2248, "annotation": {"number": 64, "value": 0}, "group": "control_change"}, {"time": 2252, "annotation": {"number": 64, "value": 127}, "group": "control_change"}, {"time": 2274, "annotation": {"number": 64, "value": 0}, "group": "control_change"}, {"time": 2278, "annotation": {"number": 64, "value": 127}, "group": "control_change"}, {"time": 2298, "annotation": {"number": 64, "value": 0}, "group": "control_change"}, {"time": 2300, "annotation": {"number": 64, "value": 127}, "group": "control_change"}, {"time": 2322, "annotation": {"number": 64, "value": 0}, "group": "control_change"}, {"time": 2324, "annotation": {"number": 64, "value": 127}, "group": "control_change"}, {"time": 2346, "annotation": {"number": 64, "value": 0}, "group": "control_change"}, {"time": 2348, "annotation": {"number": 64, "value": 127}, "group": "control_change"}, {"time": 2367, "annotation": {"number": 64, "value": 0}, "group": "control_change"}, {"time": 2370, "annotation": {"number": 64, "value": 127}, "group": "control_change"}, {"time": 2396, "annotation": {"number": 64, "value": 0}, "group": "control_change"}, {"time": 2398, "annotation": {"number": 64, "value": 127}, "group": "control_change"}, {"time": 2418, "annotation": {"number": 64, "value": 0}, "group": "control_change"}, {"time": 2421, "annotation": {"number": 64, "value": 127}, "group": "control_change"}, {"time": 2442, "annotation": {"number": 64, "value": 0}, "group": "control_change"}, {"time": 2444, "annotation": {"number": 64, "value": 127}, "group": "control_change"}, {"time": 2458, "annotation": {"number": 64, "value": 0}, "group": "control_change"}, {"time": 2467, "annotation": {"number": 64, "value": 0}, "group": "control_change"}, {"time": 2470, "annotation": {"number": 64, "value": 127}, "group": "control_change"}, {"time": 2490, "annotation": {"number": 64, "value": 0}, "group": "control_change"}, {"time": 2493, "annotation": {"number": 64, "value": 127}, "group": "control_change"}, {"time": 2514, "annotation": {"number": 64, "value": 0}, "group": "control_change"}, {"time": 2517, "annotation": {"number": 64, "value": 127}, "group": "control_change"}, {"time": 2538, "annotation": {"number": 64, "value": 0}, "group": "control_change"}, {"time": 2541, "annotation": {"number": 64, "value": 127}, "group": "control_change"}, {"time": 2562, "annotation": {"number": 64, "value": 0}, "group": "control_change"}, {"time": 2565, "annotation": {"number": 64, "value": 127}, "group": "control_change"}, {"time": 2586, "annotation": {"number": 64, "value": 0}, "group": "control_change"}, {"time": 2589, "annotation": {"number": 64, "value": 127}, "group": "control_change"}, {"time": 2590, "annotation": {"number": 64, "value": 0}, "group": "control_change"}, {"time": 2592, "annotation": {"number": 64, "value": 127}, "group": "control_change"}, {"time": 2610, "annotation": {"number": 64, "value": 0}, "group": "control_change"}, {"time": 2613, "annotation": {"number": 64, "value": 127}, "group": "control_change"}, {"time": 2633, "annotation": {"number": 64, "value": 0}, "group": "control_change"}, {"time": 2635, "annotation": {"number": 64, "value": 127}, "group": "control_change"}, {"time": 2657, "annotation": {"number": 64, "value": 0}, "group": "control_change"}, {"time": 2659, "annotation": {"number": 64, "value": 127}, "group": "control_change"}, {"time": 2680, "annotation": {"number": 64, "value": 0}, "group": "control_change"}, {"time": 2684, "annotation": {"number": 64, "value": 127}, "group": "control_change"}, {"time": 2706, "annotation": {"number": 64, "value": 0}, "group": "control_change"}, {"time": 2710, "annotation": {"number": 64, "value": 127}, "group": "control_change"}, {"time": 2730, "annotation": {"number": 64, "value": 0}, "group": "control_change"}, {"time": 2732, "annotation": {"number": 64, "value": 127}, "group": "control_change"}, {"time": 2754, "annotation": {"number": 64, "value": 0}, "group": "control_change"}, {"time": 2756, "annotation": {"number": 64, "value": 127}, "group": "control_change"}, {"time": 2778, "annotation": {"number": 64, "value": 0}, "group": "control_change"}, {"time": 2780, "annotation": {"number": 64, "value": 127}, "group": "control_change"}, {"time": 2799, "annotation": {"number": 64, "value": 0}, "group": "control_change"}, {"time": 2802, "annotation": {"number": 64, "value": 127}, "group": "control_change"}, {"time": 2828, "annotation": {"number": 64, "value": 0}, "group": "control_change"}, {"time": 2830, "annotation": {"number": 64, "value": 127}, "group": "control_change"}, {"time": 2850, "annotation": {"number": 64, "value": 0}, "group": "control_change"}, {"time": 2853, "annotation": {"number": 64, "value": 127}, "group": "control_change"}, {"time": 2874, "annotation": {"number": 64, "value": 0}, "group": "control_change"}, {"time": 2876, "annotation": {"number": 64, "value": 127}, "group": "control_change"}, {"time": 2890, "annotation": {"number": 64, "value": 0}, "group": "control_change"}]}, {"program": 0, "is_drum": false, "name": "BRIDGE", "notes": [{"time": 12, "pitch": 67, "duration": 2, "velocity": 78}, {"time": 15, "pitch": 69, "duration": 2, "velocity": 75}, {"time": 18, "pitch": 69, "duration": 13, "velocity": 97}, {"time": 30, "pitch": 71, "duration": 8, "velocity": 76}, {"time": 60, "pitch": 62, "duration": 6, "velocity": 82}, {"time": 66, "pitch": 64, "duration": 11, "velocity": 76}, {"time": 78, "pitch": 72, "duration": 11, "velocity": 85}, {"time": 90, "pitch": 71, "duration": 14, "velocity": 93}, {"time": 108, "pitch": 79, "duration": 1, "velocity": 91}, {"time": 108, "pitch": 91, "duration": 2, "velocity": 88}, {"time": 111, "pitch": 81, "duration": 1, "velocity": 60}, {"time": 111, "pitch": 93, "duration": 2, "velocity": 82}, {"time": 114, "pitch": 81, "duration": 9, "velocity": 88}, {"time": 114, "pitch": 93, "duration": 10, "velocity": 78}, {"time": 126, "pitch": 83, "duration": 9, "velocity": 72}, {"time": 126, "pitch": 95, "duration": 9, "velocity": 85}, {"time": 138, "pitch": 78, "duration": 9, "velocity": 95}, {"time": 138, "pitch": 90, "duration": 9, "velocity": 66}, {"time": 150, "pitch": 74, "duration": 9, "velocity": 58}, {"time": 150, "pitch": 86, "duration": 9, "velocity": 88}, {"time": 162, "pitch": 76, "duration": 10, "velocity": 60}, {"time": 162, "pitch": 88, "duration": 11, "velocity": 70}, {"time": 174, "pitch": 84, "duration": 4, "velocity": 80}, {"time": 174, "pitch": 96, "duration": 3, "velocity": 70}, {"time": 180, "pitch": 81, "duration": 4, "velocity": 85}, {"time": 180, "pitch": 93, "duration": 5, "velocity": 75}, {"time": 186, "pitch": 86, "duration": 14, "velocity": 58}, {"time": 186, "pitch": 91, "duration": 11, "velocity": 58}, {"time": 189, "pitch": 95, "duration": 15, "velocity": 82}, {"time": 306, "pitch": 64, "duration": 10, "velocity": 56}, {"time": 318, "pitch": 64, "duration": 5, "velocity": 91}, {"time": 324, "pitch": 67, "duration": 3, "velocity": 67}, {"time": 327, "pitch": 76, "duration": 5, "velocity": 76}, {"time": 330, "pitch": 74, "duration": 7, "velocity": 85}, {"time": 390, "pitch": 66, "duration": 3, "velocity": 82}, {"time": 393, "pitch": 67, "duration": 3, "velocity": 62}, {"time": 396, "pitch": 69, "duration": 6, "velocity": 67}, {"time": 486, "pitch": 47, "duration": 4, "velocity": 63}, {"time": 486, "pitch": 59, "duration": 4, "velocity": 76}, {"time": 489, "pitch": 48, "duration": 3, "velocity": 64}, {"time": 489, "pitch": 62, "duration": 4, "velocity": 70}, {"time": 492, "pitch": 50, "duration": 4, "velocity": 76}, {"time": 492, "pitch": 66, "duration": 5, "velocity": 93}, {"time": 954, "pitch": 64, "duration": 1, "velocity": 63}, {"time": 954, "pitch": 76, "duration": 2, "velocity": 78}, {"time": 960, "pitch": 66, "duration": 1, "velocity": 73}, {"time": 960, "pitch": 78, "duration": 2, "velocity": 78}, {"time": 966, "pitch": 67, "duration": 1, "velocity": 63}, {"time": 966, "pitch": 79, "duration": 1, "velocity": 70}, {"time": 972, "pitch": 74, "duration": 1, "velocity": 63}, {"time": 972, "pitch": 86, "duration": 2, "velocity": 67}, {"time": 978, "pitch": 71, "duration": 6, "velocity": 60}, {"time": 978, "pitch": 83, "duration": 7, "velocity": 64}, {"time": 1182, "pitch": 67, "duration": 4, "velocity": 63}, {"time": 1182, "pitch": 76, "duration": 4, "velocity": 76}, {"time": 1185, "pitch": 74, "duration": 3, "velocity": 69}, {"time": 1188, "pitch": 67, "duration": 4, "velocity": 52}, {"time": 1188, "pitch": 72, "duration": 6, "velocity": 72}, {"time": 1194, "pitch": 67, "duration": 13, "velocity": 58}, {"time": 1194, "pitch": 71, "duration": 14, "velocity": 61}, {"time": 1218, "pitch": 55, "duration": 17, "velocity": 66}, {"time": 1221, "pitch": 62, "duration": 1, "velocity": 50}, {"time": 1221, "pitch": 67, "duration": 1, "velocity": 48}, {"time": 1221, "pitch": 71, "duration": 2, "velocity": 52}, {"time": 1224, "pitch": 62, "duration": 2, "velocity": 44}, {"time": 1224, "pitch": 67, "duration": 2, "velocity": 49}, {"time": 1224, "pitch": 71, "duration": 2, "velocity": 46}, {"time": 1227, "pitch": 62, "duration": 2, "velocity": 54}, {"time": 1227, "pitch": 67, "duration": 2, "velocity": 59}, {"time": 1227, "pitch": 71, "duration": 2, "velocity": 50}, {"time": 1230, "pitch": 62, "duration": 5, "velocity": 66}, {"time": 1230, "pitch": 67, "duration": 6, "velocity": 67}, {"time": 1230, "pitch": 71, "duration": 6, "velocity": 67}, {"time": 1242, "pitch": 55, "duration": 15, "velocity": 62}, {"time": 1245, "pitch": 62, "duration": 1, "velocity": 48}, {"time": 1245, "pitch": 66, "duration": 2, "velocity": 63}, {"time": 1245, "pitch": 69, "duration": 1, "velocity": 52}, {"time": 1248, "pitch": 62, "duration": 2, "velocity": 52}, {"time": 1248, "pitch": 66, "duration": 2, "velocity": 57}, {"time": 1248, "pitch": 69, "duration": 2, "velocity": 61}, {"time": 1251, "pitch": 62, "duration": 2, "velocity": 56}, {"time": 1251, "pitch": 66, "duration": 2, "velocity": 64}, {"time": 1251, "pitch": 69, "duration": 2, "velocity": 66}, {"time": 1254, "pitch": 62, "duration": 3, "velocity": 73}, {"time": 1254, "pitch": 66, "duration": 3, "velocity": 76}, {"time": 1254, "pitch": 69, "duration": 3, "velocity": 76}, {"time": 1266, "pitch": 48, "duration": 23, "velocity": 64}, {"time": 1269, "pitch": 64, "duration": 2, "velocity": 48}, {"time": 1269, "pitch": 67, "duration": 2, "velocity": 51}, {"time": 1272, "pitch": 64, "duration": 1, "velocity": 46}, {"time": 1272, "pitch": 67, "duration": 2, "velocity": 51}, {"time": 1272, "pitch": 72, "duration": 2, "velocity": 44}, {"time": 1275, "pitch": 64, "duration": 2, "velocity": 56}, {"time": 1275, "pitch": 67, "duration": 2, "velocity": 64}, {"time": 1275, "pitch": 72, "duration": 2, "velocity": 58}, {"time": 1278, "pitch": 64, "duration": 8, "velocity": 63}, {"time": 1278, "pitch": 67, "duration": 8, "velocity": 64}, {"time": 1278, "pitch": 72, "duration": 12, "velocity": 66}, {"time": 1290, "pitch": 55, "duration": 16, "velocity": 51}, {"time": 1290, "pitch": 62, "duration": 24, "velocity": 52}, {"time": 1290, "pitch": 67, "duration": 24, "velocity": 56}, {"time": 1290, "pitch": 71, "duration": 24, "velocity": 63}, {"time": 1446, "pitch": 69, "duration": 5, "velocity": 85}, {"time": 1452, "pitch": 74, "duration": 7, "velocity": 75}, {"time": 1458, "pitch": 67, "duration": 11, "velocity": 66}, {"time": 1494, "pitch": 59, "duration": 4, "velocity": 47}, {"time": 1494, "pitch": 71, "duration": 4, "velocity": 58}, {"time": 1497, "pitch": 60, "duration": 3, "velocity": 63}, {"time": 1497, "pitch": 72, "duration": 3, "velocity": 69}, {"time": 1500, "pitch": 62, "duration": 6, "velocity": 69}, {"time": 1500, "pitch": 74, "duration": 6, "velocity": 70}, {"time": 1518, "pitch": 64, "duration": 1, "velocity": 78}, {"time": 1518, "pitch": 76, "duration": 2, "velocity": 76}, {"time": 1523, "pitch": 67, "duration": 1, "velocity": 72}, {"time": 1523, "pitch": 79, "duration": 1, "velocity": 80}, {"time": 1527, "pitch": 74, "duration": 1, "velocity": 56}, {"time": 1527, "pitch": 86, "duration": 1, "velocity": 80}, {"time": 1530, "pitch": 74, "duration": 1, "velocity": 70}, {"time": 1530, "pitch": 86, "duration": 2, "velocity": 70}, {"time": 1584, "pitch": 72, "duration": 4, "velocity": 75}, {"time": 1584, "pitch": 84, "duration": 4, "velocity": 75}, {"time": 1590, "pitch": 71, "duration": 6, "velocity": 85}, {"time": 1590, "pitch": 83, "duration": 6, "velocity": 85}, {"time": 1596, "pitch": 74, "duration": 6, "velocity": 73}, {"time": 1596, "pitch": 86, "duration": 6, "velocity": 73}, {"time": 1602, "pitch": 67, "duration": 5, "velocity": 85}, {"time": 1602, "pitch": 79, "duration": 5, "velocity": 85}, {"time": 1795, "pitch": 71, "duration": 15, "velocity": 82}, {"time": 1795, "pitch": 83, "duration": 16, "velocity": 67}, {"time": 1813, "pitch": 74, "duration": 3, "velocity": 78}, {"time": 1813, "pitch": 86, "duration": 3, "velocity": 88}, {"time": 1824, "pitch": 69, "duration": 21, "velocity": 82}, {"time": 1824, "pitch": 81, "duration": 21, "velocity": 78}, {"time": 1842, "pitch": 64, "duration": 9, "velocity": 91}, {"time": 1842, "pitch": 76, "duration": 9, "velocity": 76}, {"time": 1854, "pitch": 72, "duration": 3, "velocity": 60}, {"time": 1854, "pitch": 84, "duration": 3, "velocity": 72}, {"time": 1866, "pitch": 71, "duration": 7, "velocity": 56}, {"time": 1866, "pitch": 83, "duration": 8, "velocity": 61}, {"time": 1968, "pitch": 74, "duration": 6, "velocity": 72}, {"time": 1968, "pitch": 86, "duration": 6, "velocity": 72}, {"time": 1974, "pitch": 79, "duration": 12, "velocity": 72}, {"time": 1974, "pitch": 91, "duration": 12, "velocity": 72}, {"time": 1986, "pitch": 83, "duration": 12, "velocity": 72}, {"time": 1986, "pitch": 95, "duration": 12, "velocity": 72}, {"time": 1998, "pitch": 86, "duration": 12, "velocity": 72}, {"time": 1998, "pitch": 98, "duration": 12, "velocity": 72}, {"time": 2010, "pitch": 84, "duration": 12, "velocity": 72}, {"time": 2010, "pitch": 96, "duration": 12, "velocity": 72}, {"time": 2022, "pitch": 81, "duration": 12, "velocity": 72}, {"time": 2022, "pitch": 93, "duration": 12, "velocity": 72}, {"time": 2034, "pitch": 74, "duration": 12, "velocity": 72}, {"time": 2034, "pitch": 86, "duration": 12, "velocity": 72}, {"time": 2430, "pitch": 76, "duration": 4, "velocity": 76}, {"time": 2433, "pitch": 74, "duration": 3, "velocity": 69}, {"time": 2436, "pitch": 72, "duration": 6, "velocity": 72}, {"time": 2442, "pitch": 71, "duration": 14, "velocity": 61}], "annotations": [{"time": 952, "annotation": {"number": 64, "value": 127}, "group": "control_change"}, {"time": 979, "annotation": {"number": 64, "value": 0}, "group": "control_change"}, {"time": 981, "annotation": {"number": 64, "value": 127}, "group": "control_change"}, {"time": 991, "annotation": {"number": 64, "value": 0}, "group": "control_change"}, {"time": 1219, "annotation": {"number": 64, "value": 127}, "group": "control_change"}, {"time": 1243, "annotation": {"number": 64, "value": 0}, "group": "control_change"}, {"time": 1246, "annotation": {"number": 64, "value": 127}, "group": "control_change"}, {"time": 1266, "annotation": {"number": 64, "value": 0}, "group": "control_change"}, {"time": 1270, "annotation": {"number": 64, "value": 127}, "group": "control_change"}, {"time": 1291, "annotation": {"number": 64, "value": 0}, "group": "control_change"}, {"time": 1296, "annotation": {"number": 64, "value": 127}, "group": "control_change"}, {"time": 1314, "annotation": {"number": 64, "value": 0}, "group": "control_change"}, {"time": 1515, "annotation": {"number": 64, "value": 127}, "group": "control_change"}, {"time": 1581, "annotation": {"number": 64, "value": 127}, "group": "control_change"}, {"time": 1606, "annotation": {"number": 64, "value": 0}, "group": "control_change"}]}, {"program": 0, "is_drum": false, "name": "PIANO", "notes": [{"time": 18, "pitch": 55, "duration": 17, "velocity": 66}, {"time": 21, "pitch": 62, "duration": 1, "velocity": 50}, {"time": 21, "pitch": 67, "duration": 1, "velocity": 48}, {"time": 21, "pitch": 71, "duration": 2, "velocity": 52}, {"time": 24, "pitch": 62, "duration": 2, "velocity": 44}, {"time": 24, "pitch": 67, "duration": 2, "velocity": 49}, {"time": 24, "pitch": 71, "duration": 2, "velocity": 46}, {"time": 27, "pitch": 62, "duration": 2, "velocity": 54}, {"time": 27, "pitch": 67, "duration": 2, "velocity": 59}, {"time": 27, "pitch": 71, "duration": 2, "velocity": 50}, {"time": 30, "pitch": 62, "duration": 5, "velocity": 66}, {"time": 30, "pitch": 67, "duration": 6, "velocity": 67}, {"time": 30, "pitch": 71, "duration": 6, "velocity": 67}, {"time": 42, "pitch": 55, "duration": 15, "velocity": 62}, {"time": 45, "pitch": 62, "duration": 1, "velocity": 48}, {"time": 45, "pitch": 66, "duration": 2, "velocity": 63}, {"time": 45, "pitch": 69, "duration": 1, "velocity": 52}, {"time": 48, "pitch": 62, "duration": 2, "velocity": 52}, {"time": 48, "pitch": 66, "duration": 2, "velocity": 57}, {"time": 48, "pitch": 69, "duration": 2, "velocity": 61}, {"time": 51, "pitch": 62, "duration": 2, "velocity": 56}, {"time": 51, "pitch": 66, "duration": 2, "velocity": 64}, {"time": 51, "pitch": 69, "duration": 2, "velocity": 66}, {"time": 54, "pitch": 62, "duration": 3, "velocity": 73}, {"time": 54, "pitch": 66, "duration": 3, "velocity": 76}, {"time": 54, "pitch": 69, "duration": 3, "velocity": 76}, {"time": 66, "pitch": 48, "duration": 23, "velocity": 64}, {"time": 69, "pitch": 64, "duration": 2, "velocity": 48}, {"time": 69, "pitch": 67, "duration": 2, "velocity": 51}, {"time": 72, "pitch": 64, "duration": 1, "velocity": 46}, {"time": 72, "pitch": 67, "duration": 2, "velocity": 51}, {"time": 72, "pitch": 72, "duration": 2, "velocity": 44}, {"time": 75, "pitch": 64, "duration": 2, "velocity": 56}, {"time": 75, "pitch": 67, "duration": 2, "velocity": 64}, {"time": 75, "pitch": 72, "duration": 2, "velocity": 58}, {"time": 78, "pitch": 64, "duration": 8, "velocity": 63}, {"time": 78, "pitch": 67, "duration": 8, "velocity": 64}, {"time": 78, "pitch": 72, "duration": 12, "velocity": 66}, {"time": 90, "pitch": 55, "duration": 16, "velocity": 51}, {"time": 90, "pitch": 62, "duration": 24, "velocity": 52}, {"time": 90, "pitch": 67, "duration": 24, "velocity": 56}, {"time": 90, "pitch": 71, "duration": 24, "velocity": 63}, {"time": 114, "pitch": 43, "duration": 18, "velocity": 70}, {"time": 114, "pitch": 55, "duration": 17, "velocity": 52}, {"time": 117, "pitch": 62, "duration": 2, "velocity": 58}, {"time": 117, "pitch": 67, "duration": 1, "velocity": 55}, {"time": 117, "pitch": 71, "duration": 2, "velocity": 56}, {"time": 120, "pitch": 62, "duration": 2, "velocity": 54}, {"time": 120, "pitch": 67, "duration": 2, "velocity": 61}, {"time": 120, "pitch": 71, "duration": 2, "velocity": 48}, {"time": 123, "pitch": 62, "duration": 2, "velocity": 67}, {"time": 123, "pitch": 67, "duration": 2, "velocity": 72}, {"time": 123, "pitch": 71, "duration": 2, "velocity": 62}, {"time": 123, "pitch": 74, "duration": 1, "velocity": 54}, {"time": 126, "pitch": 62, "duration": 3, "velocity": 72}, {"time": 126, "pitch": 67, "duration": 3, "velocity": 75}, {"time": 126, "pitch": 71, "duration": 3, "velocity": 67}, {"time": 126, "pitch": 74, "duration": 1, "velocity": 62}, {"time": 132, "pitch": 62, "duration": 7, "velocity": 59}, {"time": 132, "pitch": 67, "duration": 6, "velocity": 69}, {"time": 132, "pitch": 71, "duration": 7, "velocity": 62}, {"time": 138, "pitch": 38, "duration": 19, "velocity": 59}, {"time": 138, "pitch": 50, "duration": 13, "velocity": 58}, {"time": 141, "pitch": 62, "duration": 2, "velocity": 52}, {"time": 141, "pitch": 66, "duration": 2, "velocity": 55}, {"time": 141, "pitch": 69, "duration": 2, "velocity": 55}, {"time": 144, "pitch": 62, "duration": 2, "velocity": 53}, {"time": 144, "pitch": 66, "duration": 2, "velocity": 67}, {"time": 144, "pitch": 69, "duration": 2, "velocity": 51}, {"time": 147, "pitch": 62, "duration": 2, "velocity": 69}, {"time": 147, "pitch": 66, "duration": 2, "velocity": 72}, {"time": 147, "pitch": 69, "duration": 2, "velocity": 69}, {"time": 150, "pitch": 62, "duration": 5, "velocity": 75}, {"time": 150, "pitch": 66, "duration": 6, "velocity": 85}, {"time": 150, "pitch": 69, "duration": 6, "velocity": 76}, {"time": 156, "pitch": 50, "duration": 1, "velocity": 66}, {"time": 162, "pitch": 36, "duration": 19, "velocity": 67}, {"time": 162, "pitch": 48, "duration": 14, "velocity": 62}, {"time": 165, "pitch": 64, "duration": 2, "velocity": 48}, {"time": 165, "pitch": 67, "duration": 2, "velocity": 52}, {"time": 165, "pitch": 72, "duration": 2, "velocity": 45}, {"time": 168, "pitch": 64, "duration": 2, "velocity": 55}, {"time": 168, "pitch": 67, "duration": 2, "velocity": 58}, {"time": 168, "pitch": 72, "duration": 2, "velocity": 55}, {"time": 171, "pitch": 64, "duration": 2, "velocity": 62}, {"time": 171, "pitch": 67, "duration": 2, "velocity": 70}, {"time": 171, "pitch": 72, "duration": 2, "velocity": 56}, {"time": 174, "pitch": 64, "duration": 6, "velocity": 78}, {"time": 174, "pitch": 67, "duration": 6, "velocity": 82}, {"time": 174, "pitch": 72, "duration": 6, "velocity": 78}, {"time": 180, "pitch": 48, "duration": 1, "velocity": 61}, {"time": 186, "pitch": 43, "duration": 14, "velocity": 53}, {"time": 186, "pitch": 55, "duration": 14, "velocity": 57}, {"time": 186, "pitch": 62, "duration": 16, "velocity": 56}, {"time": 186, "pitch": 67, "duration": 14, "velocity": 70}, {"time": 186, "pitch": 71, "duration": 13, "velocity": 62}, {"time": 210, "pitch": 55, "duration": 15, "velocity": 66}, {"time": 210, "pitch": 62, "duration": 15, "velocity": 63}, {"time": 210, "pitch": 67, "duration": 15, "velocity": 62}, {"time": 210, "pitch": 69, "duration": 15, "velocity": 66}, {"time": 210, "pitch": 71, "duration": 14, "velocity": 66}, {"time": 234, "pitch": 54, "duration": 17, "velocity": 64}, {"time": 234, "pitch": 59, "duration": 17, "velocity": 66}, {"time": 234, "pitch": 62, "duration": 18, "velocity": 57}, {"time": 234, "pitch": 66, "duration": 19, "velocity": 62}, {"time": 234, "pitch": 69, "duration": 19, "velocity": 63}, {"time": 258, "pitch": 52, "duration": 14, "velocity": 49}, {"time": 258, "pitch": 59, "duration": 15, "velocity": 57}, {"time": 258, "pitch": 64, "duration": 13, "velocity": 54}, {"time": 258, "pitch": 67, "duration": 13, "velocity": 57}, {"time": 258, "pitch": 71, "duration": 13, "velocity": 57}, {"time": 282, "pitch": 50, "duration": 17, "velocity": 45}, {"time": 282, "pitch": 59, "duration": 17, "velocity": 45}, {"time": 282, "pitch": 62, "duration": 8, "velocity": 48}, {"time": 282, "pitch": 66, "duration": 9, "velocity": 61}, {"time": 282, "pitch": 74, "duration": 9, "velocity": 56}, {"time": 300, "pitch": 78, "duration": 3, "velocity": 69}, {"time": 303, "pitch": 79, "duration": 2, "velocity": 48}, {"time": 306, "pitch": 48, "duration": 16, "velocity": 67}, {"time": 306, "pitch": 76, "duration": 4, "velocity": 70}, {"time": 309, "pitch": 55, "duration": 13, "velocity": 45}, {"time": 312, "pitch": 60, "duration": 9, "velocity": 57}, {"time": 315, "pitch": 62, "duration": 8, "velocity": 58}, {"time": 330, "pitch": 47, "duration": 9, "velocity": 53}, {"time": 330, "pitch": 59, "duration": 9, "velocity": 55}, {"time": 330, "pitch": 62, "duration": 10, "velocity": 54}, {"time": 330, "pitch": 66, "duration": 9, "velocity": 62}, {"time": 330, "pitch": 71, "duration": 10, "velocity": 58}, {"time": 354, "pitch": 45, "duration": 11, "velocity": 66}, {"time": 354, "pitch": 60, "duration": 8, "velocity": 59}, {"time": 354, "pitch": 64, "duration": 8, "velocity": 54}, {"time": 354, "pitch": 67, "duration": 8, "velocity": 69}, {"time": 378, "pitch": 50, "duration": 17, "velocity": 51}, {"time": 378, "pitch": 57, "duration": 18, "velocity": 60}, {"time": 378, "pitch": 60, "duration": 4, "velocity": 58}, {"time": 378, "pitch": 64, "duration": 4, "velocity": 63}, {"time": 378, "pitch": 67, "duration": 6, "velocity": 63}, {"time": 387, "pitch": 62, "duration": 2, "velocity": 56}, {"time": 387, "pitch": 66, "duration": 2, "velocity": 62}, {"time": 387, "pitch": 69, "duration": 2, "velocity": 62}, {"time": 396, "pitch": 72, "duration": 4, "velocity": 52}, {"time": 402, "pitch": 55, "duration": 16, "velocity": 56}, {"time": 402, "pitch": 62, "duration": 4, "velocity": 61}, {"time": 402, "pitch": 71, "duration": 4, "velocity": 70}, {"time": 405, "pitch": 59, "duration": 13, "velocity": 45}, {"time": 408, "pitch": 62, "duration": 4, "velocity": 47}, {"time": 411, "pitch": 69, "duration": 7, "velocity": 60}, {"time": 426, "pitch": 54, "duration": 16, "velocity": 54}, {"time": 426, "pitch": 59, "duration": 15, "velocity": 54}, {"time": 426, "pitch": 62, "duration": 6, "velocity": 54}, {"time": 426, "pitch": 66, "duration": 6, "velocity": 64}, {"time": 426, "pitch": 74, "duration": 8, "velocity": 61}, {"time": 435, "pitch": 62, "duration": 5, "velocity": 46}, {"time": 441, "pitch": 69, "duration": 2, "velocity": 62}, {"time": 450, "pitch": 52, "duration": 19, "velocity": 70}, {"time": 450, "pitch": 62, "duration": 4, "velocity": 54}, {"time": 450, "pitch": 67, "duration": 4, "velocity": 60}, {"time": 453, "pitch": 59, "duration": 13, "velocity": 53}, {"time": 456, "pitch": 62, "duration": 4, "velocity": 46}, {"time": 459, "pitch": 67, "duration": 7, "velocity": 66}, {"time": 465, "pitch": 62, "duration": 3, "velocity": 46}, {"time": 465, "pitch": 69, "duration": 3, "velocity": 63}, {"time": 468, "pitch": 59, "duration": 2, "velocity": 56}, {"time": 474, "pitch": 50, "duration": 19, "velocity": 75}, {"time": 474, "pitch": 62, "duration": 4, "velocity": 60}, {"time": 474, "pitch": 66, "duration": 4, "velocity": 69}, {"time": 474, "pitch": 69, "duration": 4, "velocity": 63}, {"time": 477, "pitch": 59, "duration": 8, "velocity": 57}, {"time": 480, "pitch": 62, "duration": 4, "velocity": 47}, {"time": 483, "pitch": 66, "duration": 7, "velocity": 49}, {"time": 489, "pitch": 67, "duration": 3, "velocity": 73}, {"time": 492, "pitch": 59, "duration": 1, "velocity": 57}, {"time": 498, "pitch": 48, "duration": 16, "velocity": 76}, {"time": 498, "pitch": 60, "duration": 4, "velocity": 47}, {"time": 498, "pitch": 62, "duration": 1, "velocity": 66}, {"time": 498, "pitch": 64, "duration": 5, "velocity": 61}, {"time": 501, "pitch": 55, "duration": 13, "velocity": 55}, {"time": 504, "pitch": 60, "duration": 9, "velocity": 69}, {"time": 507, "pitch": 62, "duration": 2, "velocity": 80}, {"time": 510, "pitch": 64, "duration": 3, "velocity": 62}, {"time": 513, "pitch": 62, "duration": 1, "velocity": 50}, {"time": 513, "pitch": 67, "duration": 1, "velocity": 80}, {"time": 522, "pitch": 47, "duration": 4, "velocity": 72}, {"time": 522, "pitch": 57, "duration": 4, "velocity": 72}, {"time": 522, "pitch": 62, "duration": 4, "velocity": 72}, {"time": 522, "pitch": 66, "duration": 4, "velocity": 66}, {"time": 534, "pitch": 40, "duration": 4, "velocity": 69}, {"time": 534, "pitch": 52, "duration": 3, "velocity": 72}, {"time": 534, "pitch": 55, "duration": 6, "velocity": 73}, {"time": 534, "pitch": 59, "duration": 6, "velocity": 70}, {"time": 534, "pitch": 62, "duration": 5, "velocity": 75}, {"time": 546, "pitch": 45, "duration": 16, "velocity": 69}, {"time": 546, "pitch": 55, "duration": 4, "velocity": 69}, {"time": 546, "pitch": 60, "duration": 4, "velocity": 75}, {"time": 546, "pitch": 64, "duration": 4, "velocity": 76}, {"time": 549, "pitch": 52, "duration": 13, "velocity": 50}, {"time": 552, "pitch": 55, "duration": 2, "velocity": 50}, {"time": 570, "pitch": 38, "duration": 4, "velocity": 58}, {"time": 570, "pitch": 50, "duration": 4, "velocity": 47}, {"time": 570, "pitch": 54, "duration": 4, "velocity": 59}, {"time": 570, "pitch": 57, "duration": 4, "velocity": 60}, {"time": 582, "pitch": 39, "duration": 7, "velocity": 66}, {"time": 582, "pitch": 51, "duration": 7, "velocity": 57}, {"time": 582, "pitch": 54, "duration": 7, "velocity": 62}, {"time": 582, "pitch": 59, "duration": 6, "velocity": 63}, {"time": 594, "pitch": 52, "duration": 17, "velocity": 70}, {"time": 594, "pitch": 71, "duration": 5, "velocity": 72}, {"time": 594, "pitch": 74, "duration": 5, "velocity": 72}, {"time": 594, "pitch": 79, "duration": 5, "velocity": 76}, {"time": 597, "pitch": 59, "duration": 15, "velocity": 37}, {"time": 600, "pitch": 64, "duration": 10, "velocity": 49}, {"time": 603, "pitch": 71, "duration": 2, "velocity": 50}, {"time": 606, "pitch": 71, "duration": 2, "velocity": 63}, {"time": 606, "pitch": 79, "duration": 3, "velocity": 72}, {"time": 609, "pitch": 71, "duration": 1, "velocity": 62}, {"time": 612, "pitch": 78, "duration": 2, "velocity": 77}, {"time": 615, "pitch": 76, "duration": 3, "velocity": 63}, {"time": 618, "pitch": 50, "duration": 16, "velocity": 67}, {"time": 618, "pitch": 69, "duration": 3, "velocity": 55}, {"time": 618, "pitch": 74, "duration": 5, "velocity": 62}, {"time": 624, "pitch": 62, "duration": 6, "velocity": 43}, {"time": 627, "pitch": 66, "duration": 5, "velocity": 73}, {"time": 627, "pitch": 71, "duration": 4, "velocity": 78}, {"time": 633, "pitch": 57, "duration": 2, "velocity": 61}, {"time": 636, "pitch": 66, "duration": 3, "velocity": 88}, {"time": 639, "pitch": 67, "duration": 11, "velocity": 60}, {"time": 642, "pitch": 48, "duration": 10, "velocity": 70}, {"time": 642, "pitch": 62, "duration": 7, "velocity": 72}, {"time": 642, "pitch": 64, "duration": 7, "velocity": 85}, {"time": 645, "pitch": 55, "duration": 7, "velocity": 43}, {"time": 651, "pitch": 60, "duration": 2, "velocity": 36}, {"time": 654, "pitch": 50, "duration": 6, "velocity": 66}, {"time": 654, "pitch": 62, "duration": 5, "velocity": 69}, {"time": 654, "pitch": 66, "duration": 7, "velocity": 76}, {"time": 660, "pitch": 67, "duration": 5, "velocity": 44}, {"time": 666, "pitch": 43, "duration": 11, "velocity": 72}, {"time": 666, "pitch": 62, "duration": 3, "velocity": 64}, {"time": 666, "pitch": 69, "duration": 3, "velocity": 69}, {"time": 669, "pitch": 50, "duration": 8, "velocity": 59}, {"time": 672, "pitch": 55, "duration": 4, "velocity": 57}, {"time": 675, "pitch": 59, "duration": 2, "velocity": 76}, {"time": 675, "pitch": 62, "duration": 2, "velocity": 72}, {"time": 675, "pitch": 67, "duration": 2, "velocity": 75}, {"time": 681, "pitch": 42, "duration": 2, "velocity": 82}, {"time": 681, "pitch": 54, "duration": 1, "velocity": 70}, {"time": 681, "pitch": 57, "duration": 2, "velocity": 88}, {"time": 681, "pitch": 66, "duration": 2, "velocity": 78}, {"time": 684, "pitch": 66, "duration": 3, "velocity": 54}, {"time": 687, "pitch": 62, "duration": 1, "velocity": 39}, {"time": 690, "pitch": 40, "duration": 7, "velocity": 75}, {"time": 690, "pitch": 52, "duration": 5, "velocity": 72}, {"time": 690, "pitch": 59, "duration": 2, "velocity": 73}, {"time": 690, "pitch": 62, "duration": 4, "velocity": 75}, {"time": 690, "pitch": 67, "duration": 5, "velocity": 73}, {"time": 696, "pitch": 59, "duration": 1, "velocity": 27}, {"time": 699, "pitch": 40, "duration": 7, "velocity": 64}, {"time": 699, "pitch": 52, "duration": 7, "velocity": 63}, {"time": 699, "pitch": 59, "duration": 2, "velocity": 69}, {"time": 699, "pitch": 62, "duration": 2, "velocity": 62}, {"time": 699, "pitch": 67, "duration": 4, "velocity": 72}, {"time": 705, "pitch": 59, "duration": 2, "velocity": 55}, {"time": 708, "pitch": 40, "duration": 2, "velocity": 72}, {"time": 708, "pitch": 52, "duration": 1, "velocity": 53}, {"time": 708, "pitch": 62, "duration": 2, "velocity": 60}, {"time": 711, "pitch": 67, "duration": 2, "velocity": 73}, {"time": 714, "pitch": 38, "duration": 7, "velocity": 66}, {"time": 714, "pitch": 50, "duration": 7, "velocity": 75}, {"time": 714, "pitch": 57, "duration": 3, "velocity": 80}, {"time": 714, "pitch": 62, "duration": 4, "velocity": 66}, {"time": 714, "pitch": 66, "duration": 5, "velocity": 66}, {"time": 720, "pitch": 57, "duration": 1, "velocity": 34}, {"time": 723, "pitch": 38, "duration": 4, "velocity": 67}, {"time": 723, "pitch": 50, "duration": 3, "velocity": 58}, {"time": 723, "pitch": 57, "duration": 7, "velocity": 67}, {"time": 723, "pitch": 62, "duration": 6, "velocity": 67}, {"time": 723, "pitch": 66, "duration": 6, "velocity": 66}, {"time": 729, "pitch": 38, "duration": 2, "velocity": 59}, {"time": 729, "pitch": 50, "duration": 2, "velocity": 60}, {"time": 732, "pitch": 57, "duration": 2, "velocity": 69}, {"time": 732, "pitch": 62, "duration": 1, "velocity": 78}, {"time": 732, "pitch": 66, "duration": 2, "velocity": 85}, {"time": 738, "pitch": 36, "duration": 6, "velocity": 76}, {"time": 738, "pitch": 48, "duration": 6, "velocity": 62}, {"time": 738, "pitch": 60, "duration": 5, "velocity": 76}, {"time": 738, "pitch": 64, "duration": 5, "velocity": 76}, {"time": 738, "pitch": 67, "duration": 4, "velocity": 62}, {"time": 744, "pitch": 55, "duration": 2, "velocity": 43}, {"time": 747, "pitch": 48, "duration": 7, "velocity": 62}, {"time": 747, "pitch": 55, "duration": 4, "velocity": 76}, {"time": 747, "pitch": 60, "duration": 6, "velocity": 78}, {"time": 747, "pitch": 64, "duration": 5, "velocity": 63}, {"time": 753, "pitch": 55, "duration": 2, "velocity": 67}, {"time": 756, "pitch": 48, "duration": 1, "velocity": 67}, {"time": 759, "pitch": 57, "duration": 1, "velocity": 36}, {"time": 762, "pitch": 38, "duration": 18, "velocity": 78}, {"time": 762, "pitch": 50, "duration": 4, "velocity": 66}, {"time": 762, "pitch": 57, "duration": 2, "velocity": 69}, {"time": 762, "pitch": 62, "duration": 2, "velocity": 75}, {"time": 762, "pitch": 66, "duration": 3, "velocity": 78}, {"time": 768, "pitch": 50, "duration": 4, "velocity": 44}, {"time": 771, "pitch": 62, "duration": 2, "velocity": 91}, {"time": 771, "pitch": 69, "duration": 2, "velocity": 85}, {"time": 777, "pitch": 62, "duration": 1, "velocity": 72}, {"time": 777, "pitch": 66, "duration": 1, "velocity": 80}, {"time": 777, "pitch": 74, "duration": 2, "velocity": 78}, {"time": 780, "pitch": 50, "duration": 1, "velocity": 80}, {"time": 783, "pitch": 62, "duration": 2, "velocity": 62}, {"time": 786, "pitch": 43, "duration": 19, "velocity": 82}, {"time": 786, "pitch": 55, "duration": 7, "velocity": 82}, {"time": 786, "pitch": 62, "duration": 2, "velocity": 64}, {"time": 786, "pitch": 67, "duration": 3, "velocity": 69}, {"time": 786, "pitch": 71, "duration": 3, "velocity": 75}, {"time": 792, "pitch": 67, "duration": 2, "velocity": 62}, {"time": 795, "pitch": 55, "duration": 6, "velocity": 66}, {"time": 795, "pitch": 62, "duration": 4, "velocity": 73}, {"time": 795, "pitch": 69, "duration": 2, "velocity": 58}, {"time": 798, "pitch": 67, "duration": 1, "velocity": 48}, {"time": 801, "pitch": 62, "duration": 3, "velocity": 82}, {"time": 804, "pitch": 55, "duration": 1, "velocity": 93}, {"time": 804, "pitch": 67, "duration": 2, "velocity": 72}, {"time": 807, "pitch": 62, "duration": 2, "velocity": 72}, {"time": 810, "pitch": 42, "duration": 2, "velocity": 82}, {"time": 810, "pitch": 54, "duration": 3, "velocity": 85}, {"time": 810, "pitch": 62, "duration": 4, "velocity": 70}, {"time": 810, "pitch": 66, "duration": 4, "velocity": 80}, {"time": 810, "pitch": 69, "duration": 4, "velocity": 64}, {"time": 810, "pitch": 74, "duration": 7, "velocity": 62}, {"time": 816, "pitch": 62, "duration": 2, "velocity": 49}, {"time": 819, "pitch": 62, "duration": 6, "velocity": 85}, {"time": 819, "pitch": 66, "duration": 6, "velocity": 76}, {"time": 819, "pitch": 69, "duration": 6, "velocity": 82}, {"time": 825, "pitch": 54, "duration": 1, "velocity": 80}, {"time": 828, "pitch": 62, "duration": 3, "velocity": 91}, {"time": 831, "pitch": 74, "duration": 2, "velocity": 73}, {"time": 834, "pitch": 52, "duration": 20, "velocity": 73}, {"time": 834, "pitch": 59, "duration": 6, "velocity": 80}, {"time": 834, "pitch": 62, "duration": 3, "velocity": 85}, {"time": 834, "pitch": 67, "duration": 5, "velocity": 72}, {"time": 834, "pitch": 74, "duration": 5, "velocity": 47}, {"time": 840, "pitch": 62, "duration": 1, "velocity": 48}, {"time": 843, "pitch": 59, "duration": 6, "velocity": 64}, {"time": 843, "pitch": 62, "duration": 2, "velocity": 80}, {"time": 843, "pitch": 69, "duration": 2, "velocity": 73}, {"time": 849, "pitch": 62, "duration": 2, "velocity": 60}, {"time": 849, "pitch": 66, "duration": 4, "velocity": 81}, {"time": 852, "pitch": 59, "duration": 1, "velocity": 62}, {"time": 855, "pitch": 67, "duration": 2, "velocity": 54}, {"time": 858, "pitch": 50, "duration": 18, "velocity": 78}, {"time": 858, "pitch": 62, "duration": 4, "velocity": 80}, {"time": 858, "pitch": 66, "duration": 4, "velocity": 73}, {"time": 858, "pitch": 69, "duration": 5, "velocity": 70}, {"time": 864, "pitch": 59, "duration": 12, "velocity": 49}, {"time": 867, "pitch": 62, "duration": 4, "velocity": 44}, {"time": 873, "pitch": 66, "duration": 4, "velocity": 83}, {"time": 876, "pitch": 67, "duration": 2, "velocity": 76}, {"time": 879, "pitch": 62, "duration": 2, "velocity": 70}, {"time": 882, "pitch": 48, "duration": 17, "velocity": 73}, {"time": 882, "pitch": 62, "duration": 2, "velocity": 64}, {"time": 882, "pitch": 64, "duration": 6, "velocity": 50}, {"time": 885, "pitch": 55, "duration": 14, "velocity": 58}, {"time": 885, "pitch": 67, "duration": 3, "velocity": 54}, {"time": 888, "pitch": 60, "duration": 6, "velocity": 66}, {"time": 891, "pitch": 62, "duration": 5, "velocity": 88}, {"time": 891, "pitch": 64, "duration": 6, "velocity": 78}, {"time": 891, "pitch": 67, "duration": 6, "velocity": 78}, {"time": 897, "pitch": 60, "duration": 2, "velocity": 72}, {"time": 900, "pitch": 66, "duration": 4, "velocity": 60}, {"time": 903, "pitch": 67, "duration": 2, "velocity": 67}, {"time": 906, "pitch": 47, "duration": 5, "velocity": 70}, {"time": 906, "pitch": 59, "duration": 4, "velocity": 70}, {"time": 906, "pitch": 62, "duration": 5, "velocity": 73}, {"time": 906, "pitch": 66, "duration": 5, "velocity": 73}, {"time": 906, "pitch": 69, "duration": 5, "velocity": 76}, {"time": 918, "pitch": 40, "duration": 4, "velocity": 73}, {"time": 918, "pitch": 52, "duration": 5, "velocity": 72}, {"time": 918, "pitch": 64, "duration": 4, "velocity": 67}, {"time": 918, "pitch": 67, "duration": 4, "velocity": 64}, {"time": 918, "pitch": 71, "duration": 4, "velocity": 73}, {"time": 930, "pitch": 45, "duration": 18, "velocity": 70}, {"time": 930, "pitch": 60, "duration": 8, "velocity": 73}, {"time": 930, "pitch": 64, "duration": 9, "velocity": 69}, {"time": 930, "pitch": 69, "duration": 9, "velocity": 64}, {"time": 936, "pitch": 52, "duration": 11, "velocity": 47}, {"time": 939, "pitch": 57, "duration": 7, "velocity": 56}, {"time": 945, "pitch": 60, "duration": 3, "velocity": 76}, {"time": 945, "pitch": 64, "duration": 4, "velocity": 75}, {"time": 945, "pitch": 69, "duration": 4, "velocity": 76}, {"time": 954, "pitch": 38, "duration": 16, "velocity": 69}, {"time": 954, "pitch": 50, "duration": 4, "velocity": 62}, {"time": 954, "pitch": 62, "duration": 4, "velocity": 69}, {"time": 954, "pitch": 66, "duration": 3, "velocity": 76}, {"time": 954, "pitch": 69, "duration": 4, "velocity": 72}, {"time": 960, "pitch": 50, "duration": 3, "velocity": 45}, {"time": 963, "pitch": 55, "duration": 2, "velocity": 93}, {"time": 963, "pitch": 60, "duration": 2, "velocity": 69}, {"time": 963, "pitch": 64, "duration": 3, "velocity": 73}, {"time": 966, "pitch": 50, "duration": 3, "velocity": 47}, {"time": 969, "pitch": 60, "duration": 1, "velocity": 80}, {"time": 969, "pitch": 67, "duration": 2, "velocity": 80}, {"time": 972, "pitch": 42, "duration": 1, "velocity": 88}, {"time": 978, "pitch": 43, "duration": 13, "velocity": 72}, {"time": 978, "pitch": 55, "duration": 6, "velocity": 78}, {"time": 978, "pitch": 62, "duration": 3, "velocity": 69}, {"time": 978, "pitch": 67, "duration": 4, "velocity": 70}, {"time": 978, "pitch": 71, "duration": 3, "velocity": 75}, {"time": 984, "pitch": 55, "duration": 2, "velocity": 37}, {"time": 984, "pitch": 62, "duration": 2, "velocity": 39}, {"time": 987, "pitch": 62, "duration": 6, "velocity": 75}, {"time": 987, "pitch": 69, "duration": 6, "velocity": 76}, {"time": 993, "pitch": 43, "duration": 2, "velocity": 67}, {"time": 993, "pitch": 55, "duration": 2, "velocity": 91}, {"time": 996, "pitch": 62, "duration": 3, "velocity": 48}, {"time": 996, "pitch": 67, "duration": 2, "velocity": 66}, {"time": 999, "pitch": 69, "duration": 1, "velocity": 48}, {"time": 999, "pitch": 74, "duration": 11, "velocity": 64}, {"time": 1002, "pitch": 42, "duration": 2, "velocity": 78}, {"time": 1002, "pitch": 54, "duration": 2, "velocity": 93}, {"time": 1002, "pitch": 62, "duration": 5, "velocity": 66}, {"time": 1002, "pitch": 66, "duration": 8, "velocity": 70}, {"time": 1002, "pitch": 69, "duration": 6, "velocity": 61}, {"time": 1011, "pitch": 62, "duration": 5, "velocity": 80}, {"time": 1011, "pitch": 66, "duration": 5, "velocity": 75}, {"time": 1011, "pitch": 69, "duration": 8, "velocity": 73}, {"time": 1017, "pitch": 62, "duration": 1, "velocity": 34}, {"time": 1020, "pitch": 42, "duration": 1, "velocity": 93}, {"time": 1020, "pitch": 54, "duration": 1, "velocity": 57}, {"time": 1020, "pitch": 62, "duration": 3, "velocity": 70}, {"time": 1020, "pitch": 66, "duration": 3, "velocity": 69}, {"time": 1020, "pitch": 69, "duration": 4, "velocity": 58}, {"time": 1023, "pitch": 41, "duration": 1, "velocity": 75}, {"time": 1023, "pitch": 53, "duration": 1, "velocity": 61}, {"time": 1026, "pitch": 40, "duration": 18, "velocity": 93}, {"time": 1026, "pitch": 52, "duration": 5, "velocity": 93}, {"time": 1026, "pitch": 62, "duration": 3, "velocity": 62}, {"time": 1026, "pitch": 64, "duration": 3, "velocity": 66}, {"time": 1026, "pitch": 67, "duration": 5, "velocity": 80}, {"time": 1032, "pitch": 52, "duration": 3, "velocity": 62}, {"time": 1032, "pitch": 62, "duration": 1, "velocity": 44}, {"time": 1035, "pitch": 62, "duration": 4, "velocity": 82}, {"time": 1035, "pitch": 67, "duration": 1, "velocity": 55}, {"time": 1035, "pitch": 74, "duration": 4, "velocity": 88}, {"time": 1041, "pitch": 62, "duration": 4, "velocity": 85}, {"time": 1041, "pitch": 69, "duration": 4, "velocity": 70}, {"time": 1044, "pitch": 52, "duration": 2, "velocity": 85}, {"time": 1050, "pitch": 38, "duration": 18, "velocity": 64}, {"time": 1050, "pitch": 62, "duration": 8, "velocity": 69}, {"time": 1050, "pitch": 66, "duration": 6, "velocity": 75}, {"time": 1050, "pitch": 69, "duration": 6, "velocity": 72}, {"time": 1056, "pitch": 50, "duration": 9, "velocity": 51}, {"time": 1059, "pitch": 62, "duration": 4, "velocity": 75}, {"time": 1059, "pitch": 66, "duration": 5, "velocity": 75}, {"time": 1065, "pitch": 64, "duration": 3, "velocity": 73}, {"time": 1065, "pitch": 67, "duration": 3, "velocity": 72}, {"time": 1068, "pitch": 50, "duration": 1, "velocity": 54}, {"time": 1074, "pitch": 36, "duration": 2, "velocity": 70}, {"time": 1074, "pitch": 48, "duration": 2, "velocity": 81}, {"time": 1074, "pitch": 60, "duration": 4, "velocity": 80}, {"time": 1074, "pitch": 64, "duration": 4, "velocity": 78}, {"time": 1074, "pitch": 67, "duration": 4, "velocity": 82}, {"time": 1080, "pitch": 48, "duration": 9, "velocity": 50}, {"time": 1083, "pitch": 60, "duration": 5, "velocity": 82}, {"time": 1083, "pitch": 64, "duration": 5, "velocity": 78}, {"time": 1083, "pitch": 67, "duration": 5, "velocity": 80}, {"time": 1089, "pitch": 60, "duration": 3, "velocity": 85}, {"time": 1089, "pitch": 64, "duration": 2, "velocity": 47}, {"time": 1089, "pitch": 67, "duration": 3, "velocity": 58}, {"time": 1092, "pitch": 48, "duration": 1, "velocity": 78}, {"time": 1098, "pitch": 47, "duration": 4, "velocity": 75}, {"time": 1098, "pitch": 59, "duration": 3, "velocity": 78}, {"time": 1098, "pitch": 62, "duration": 5, "velocity": 78}, {"time": 1098, "pitch": 66, "duration": 5, "velocity": 75}, {"time": 1098, "pitch": 69, "duration": 5, "velocity": 69}, {"time": 1110, "pitch": 40, "duration": 5, "velocity": 70}, {"time": 1110, "pitch": 52, "duration": 6, "velocity": 69}, {"time": 1110, "pitch": 62, "duration": 6, "velocity": 60}, {"time": 1110, "pitch": 67, "duration": 6, "velocity": 67}, {"time": 1110, "pitch": 74, "duration": 6, "velocity": 70}, {"time": 1122, "pitch": 45, "duration": 17, "velocity": 75}, {"time": 1122, "pitch": 64, "duration": 4, "velocity": 73}, {"time": 1122, "pitch": 67, "duration": 4, "velocity": 73}, {"time": 1122, "pitch": 72, "duration": 4, "velocity": 72}, {"time": 1128, "pitch": 52, "duration": 12, "velocity": 51}, {"time": 1131, "pitch": 57, "duration": 7, "velocity": 47}, {"time": 1137, "pitch": 60, "duration": 2, "velocity": 76}, {"time": 1137, "pitch": 64, "duration": 1, "velocity": 69}, {"time": 1137, "pitch": 67, "duration": 6, "velocity": 75}, {"time": 1146, "pitch": 38, "duration": 16, "velocity": 75}, {"time": 1146, "pitch": 50, "duration": 17, "velocity": 62}, {"time": 1146, "pitch": 60, "duration": 6, "velocity": 67}, {"time": 1146, "pitch": 64, "duration": 9, "velocity": 72}, {"time": 1146, "pitch": 69, "duration": 9, "velocity": 73}, {"time": 1158, "pitch": 62, "duration": 4, "velocity": 56}, {"time": 1158, "pitch": 66, "duration": 4, "velocity": 67}, {"time": 1158, "pitch": 69, "duration": 4, "velocity": 57}, {"time": 1170, "pitch": 43, "duration": 29, "velocity": 69}, {"time": 1170, "pitch": 62, "duration": 5, "velocity": 63}, {"time": 1170, "pitch": 67, "duration": 5, "velocity": 60}, {"time": 1170, "pitch": 74, "duration": 5, "velocity": 57}, {"time": 1176, "pitch": 55, "duration": 23, "velocity": 36}, {"time": 1179, "pitch": 62, "duration": 3, "velocity": 54}, {"time": 1179, "pitch": 71, "duration": 5, "velocity": 61}, {"time": 1185, "pitch": 67, "duration": 4, "velocity": 69}, {"time": 1191, "pitch": 62, "duration": 2, "velocity": 34}, {"time": 1194, "pitch": 62, "duration": 4, "velocity": 48}, {"time": 1194, "pitch": 67, "duration": 6, "velocity": 53}, {"time": 1194, "pitch": 71, "duration": 7, "velocity": 55}, {"time": 1314, "pitch": 40, "duration": 20, "velocity": 48}, {"time": 1314, "pitch": 52, "duration": 17, "velocity": 48}, {"time": 1317, "pitch": 64, "duration": 2, "velocity": 34}, {"time": 1317, "pitch": 67, "duration": 1, "velocity": 32}, {"time": 1320, "pitch": 64, "duration": 2, "velocity": 43}, {"time": 1320, "pitch": 67, "duration": 1, "velocity": 43}, {"time": 1320, "pitch": 71, "duration": 2, "velocity": 39}, {"time": 1323, "pitch": 64, "duration": 2, "velocity": 44}, {"time": 1323, "pitch": 67, "duration": 2, "velocity": 48}, {"time": 1323, "pitch": 71, "duration": 2, "velocity": 38}, {"time": 1326, "pitch": 64, "duration": 7, "velocity": 59}, {"time": 1326, "pitch": 67, "duration": 7, "velocity": 62}, {"time": 1326, "pitch": 71, "duration": 13, "velocity": 52}, {"time": 1332, "pitch": 52, "duration": 2, "velocity": 34}, {"time": 1338, "pitch": 38, "duration": 20, "velocity": 49}, {"time": 1338, "pitch": 50, "duration": 14, "velocity": 55}, {"time": 1341, "pitch": 62, "duration": 3, "velocity": 41}, {"time": 1341, "pitch": 66, "duration": 2, "velocity": 49}, {"time": 1341, "pitch": 71, "duration": 9, "velocity": 34}, {"time": 1344, "pitch": 62, "duration": 2, "velocity": 35}, {"time": 1344, "pitch": 66, "duration": 2, "velocity": 47}, {"time": 1347, "pitch": 62, "duration": 2, "velocity": 39}, {"time": 1347, "pitch": 66, "duration": 2, "velocity": 60}, {"time": 1350, "pitch": 62, "duration": 7, "velocity": 60}, {"time": 1350, "pitch": 66, "duration": 7, "velocity": 72}, {"time": 1350, "pitch": 71, "duration": 7, "velocity": 57}, {"time": 1356, "pitch": 50, "duration": 2, "velocity": 53}, {"time": 1362, "pitch": 36, "duration": 18, "velocity": 58}, {"time": 1362, "pitch": 48, "duration": 14, "velocity": 57}, {"time": 1365, "pitch": 60, "duration": 2, "velocity": 43}, {"time": 1365, "pitch": 64, "duration": 1, "velocity": 45}, {"time": 1365, "pitch": 67, "duration": 2, "velocity": 46}, {"time": 1368, "pitch": 60, "duration": 2, "velocity": 45}, {"time": 1368, "pitch": 64, "duration": 1, "velocity": 51}, {"time": 1368, "pitch": 67, "duration": 2, "velocity": 46}, {"time": 1371, "pitch": 60, "duration": 2, "velocity": 44}, {"time": 1371, "pitch": 64, "duration": 2, "velocity": 59}, {"time": 1371, "pitch": 67, "duration": 2, "velocity": 53}, {"time": 1374, "pitch": 60, "duration": 6, "velocity": 66}, {"time": 1374, "pitch": 64, "duration": 6, "velocity": 73}, {"time": 1374, "pitch": 67, "duration": 6, "velocity": 70}, {"time": 1380, "pitch": 38, "duration": 2, "velocity": 52}, {"time": 1380, "pitch": 48, "duration": 2, "velocity": 58}, {"time": 1386, "pitch": 43, "duration": 16, "velocity": 55}, {"time": 1386, "pitch": 62, "duration": 13, "velocity": 59}, {"time": 1386, "pitch": 67, "duration": 16, "velocity": 63}, {"time": 1386, "pitch": 71, "duration": 16, "velocity": 55}, {"time": 1404, "pitch": 50, "duration": 2, "velocity": 32}, {"time": 1404, "pitch": 57, "duration": 2, "velocity": 46}, {"time": 1404, "pitch": 62, "duration": 2, "velocity": 40}, {"time": 1404, "pitch": 66, "duration": 4, "velocity": 57}, {"time": 1410, "pitch": 43, "duration": 17, "velocity": 56}, {"time": 1410, "pitch": 59, "duration": 5, "velocity": 61}, {"time": 1410, "pitch": 62, "duration": 5, "velocity": 61}, {"time": 1410, "pitch": 67, "duration": 5, "velocity": 57}, {"time": 1416, "pitch": 55, "duration": 7, "velocity": 27}, {"time": 1419, "pitch": 59, "duration": 6, "velocity": 46}, {"time": 1422, "pitch": 62, "duration": 5, "velocity": 76}, {"time": 1422, "pitch": 67, "duration": 4, "velocity": 70}, {"time": 1425, "pitch": 55, "duration": 2, "velocity": 49}, {"time": 1428, "pitch": 59, "duration": 2, "velocity": 49}, {"time": 1431, "pitch": 67, "duration": 3, "velocity": 59}, {"time": 1434, "pitch": 42, "duration": 18, "velocity": 58}, {"time": 1434, "pitch": 54, "duration": 5, "velocity": 49}, {"time": 1434, "pitch": 57, "duration": 9, "velocity": 54}, {"time": 1434, "pitch": 62, "duration": 9, "velocity": 54}, {"time": 1434, "pitch": 66, "duration": 7, "velocity": 66}, {"time": 1443, "pitch": 54, "duration": 4, "velocity": 34}, {"time": 1446, "pitch": 57, "duration": 4, "velocity": 59}, {"time": 1446, "pitch": 66, "duration": 5, "velocity": 63}, {"time": 1449, "pitch": 67, "duration": 1, "velocity": 63}, {"time": 1452, "pitch": 69, "duration": 2, "velocity": 66}, {"time": 1458, "pitch": 40, "duration": 17, "velocity": 46}, {"time": 1458, "pitch": 52, "duration": 5, "velocity": 44}, {"time": 1458, "pitch": 59, "duration": 8, "velocity": 50}, {"time": 1458, "pitch": 62, "duration": 8, "velocity": 52}, {"time": 1458, "pitch": 67, "duration": 8, "velocity": 64}, {"time": 1467, "pitch": 52, "duration": 4, "velocity": 24}, {"time": 1470, "pitch": 59, "duration": 5, "velocity": 64}, {"time": 1470, "pitch": 62, "duration": 5, "velocity": 70}, {"time": 1470, "pitch": 67, "duration": 4, "velocity": 72}, {"time": 1473, "pitch": 52, "duration": 2, "velocity": 53}, {"time": 1476, "pitch": 66, "duration": 3, "velocity": 55}, {"time": 1479, "pitch": 67, "duration": 5, "velocity": 60}, {"time": 1482, "pitch": 38, "duration": 19, "velocity": 46}, {"time": 1482, "pitch": 50, "duration": 5, "velocity": 45}, {"time": 1482, "pitch": 57, "duration": 7, "velocity": 53}, {"time": 1482, "pitch": 62, "duration": 7, "velocity": 55}, {"time": 1482, "pitch": 66, "duration": 7, "velocity": 62}, {"time": 1491, "pitch": 50, "duration": 8, "velocity": 39}, {"time": 1494, "pitch": 57, "duration": 4, "velocity": 52}, {"time": 1494, "pitch": 66, "duration": 3, "velocity": 52}, {"time": 1497, "pitch": 67, "duration": 2, "velocity": 62}, {"time": 1500, "pitch": 66, "duration": 1, "velocity": 57}, {"time": 1503, "pitch": 57, "duration": 1, "velocity": 52}, {"time": 1506, "pitch": 36, "duration": 16, "velocity": 57}, {"time": 1506, "pitch": 48, "duration": 6, "velocity": 44}, {"time": 1506, "pitch": 55, "duration": 8, "velocity": 67}, {"time": 1506, "pitch": 60, "duration": 8, "velocity": 64}, {"time": 1506, "pitch": 64, "duration": 7, "velocity": 54}, {"time": 1515, "pitch": 48, "duration": 3, "velocity": 40}, {"time": 1518, "pitch": 55, "duration": 3, "velocity": 69}, {"time": 1518, "pitch": 60, "duration": 3, "velocity": 69}, {"time": 1518, "pitch": 64, "duration": 3, "velocity": 73}, {"time": 1521, "pitch": 48, "duration": 3, "velocity": 50}, {"time": 1524, "pitch": 55, "duration": 2, "velocity": 52}, {"time": 1527, "pitch": 62, "duration": 1, "velocity": 44}, {"time": 1530, "pitch": 47, "duration": 5, "velocity": 66}, {"time": 1530, "pitch": 57, "duration": 6, "velocity": 66}, {"time": 1530, "pitch": 62, "duration": 5, "velocity": 70}, {"time": 1530, "pitch": 66, "duration": 6, "velocity": 78}, {"time": 1542, "pitch": 40, "duration": 6, "velocity": 49}, {"time": 1542, "pitch": 52, "duration": 4, "velocity": 48}, {"time": 1542, "pitch": 55, "duration": 4, "velocity": 48}, {"time": 1542, "pitch": 59, "duration": 4, "velocity": 55}, {"time": 1542, "pitch": 62, "duration": 4, "velocity": 57}, {"time": 1542, "pitch": 67, "duration": 5, "velocity": 43}, {"time": 1548, "pitch": 60, "duration": 2, "velocity": 59}, {"time": 1551, "pitch": 62, "duration": 2, "velocity": 58}, {"time": 1554, "pitch": 45, "duration": 17, "velocity": 72}, {"time": 1554, "pitch": 55, "duration": 6, "velocity": 62}, {"time": 1554, "pitch": 60, "duration": 6, "velocity": 62}, {"time": 1554, "pitch": 64, "duration": 6, "velocity": 69}, {"time": 1560, "pitch": 52, "duration": 6, "velocity": 41}, {"time": 1563, "pitch": 55, "duration": 4, "velocity": 46}, {"time": 1566, "pitch": 60, "duration": 4, "velocity": 76}, {"time": 1566, "pitch": 64, "duration": 4, "velocity": 72}, {"time": 1569, "pitch": 52, "duration": 2, "velocity": 62}, {"time": 1572, "pitch": 55, "duration": 3, "velocity": 58}, {"time": 1575, "pitch": 60, "duration": 2, "velocity": 63}, {"time": 1575, "pitch": 62, "duration": 1, "velocity": 44}, {"time": 1578, "pitch": 38, "duration": 8, "velocity": 61}, {"time": 1578, "pitch": 50, "duration": 6, "velocity": 44}, {"time": 1578, "pitch": 57, "duration": 4, "velocity": 58}, {"time": 1578, "pitch": 60, "duration": 4, "velocity": 61}, {"time": 1578, "pitch": 66, "duration": 5, "velocity": 69}, {"time": 1590, "pitch": 38, "duration": 2, "velocity": 50}, {"time": 1590, "pitch": 50, "duration": 2, "velocity": 46}, {"time": 1590, "pitch": 55, "duration": 1, "velocity": 47}, {"time": 1590, "pitch": 57, "duration": 1, "velocity": 46}, {"time": 1590, "pitch": 66, "duration": 2, "velocity": 60}, {"time": 1593, "pitch": 40, "duration": 3, "velocity": 47}, {"time": 1593, "pitch": 67, "duration": 1, "velocity": 60}, {"time": 1596, "pitch": 42, "duration": 1, "velocity": 56}, {"time": 1596, "pitch": 69, "duration": 1, "velocity": 70}, {"time": 1602, "pitch": 43, "duration": 18, "velocity": 50}, {"time": 1602, "pitch": 55, "duration": 13, "velocity": 48}, {"time": 1602, "pitch": 59, "duration": 8, "velocity": 46}, {"time": 1602, "pitch": 62, "duration": 5, "velocity": 42}, {"time": 1602, "pitch": 67, "duration": 5, "velocity": 54}, {"time": 1608, "pitch": 62, "duration": 1, "velocity": 47}, {"time": 1608, "pitch": 67, "duration": 1, "velocity": 32}, {"time": 1611, "pitch": 59, "duration": 2, "velocity": 51}, {"time": 1611, "pitch": 62, "duration": 2, "velocity": 61}, {"time": 1611, "pitch": 67, "duration": 1, "velocity": 44}, {"time": 1614, "pitch": 59, "duration": 4, "velocity": 72}, {"time": 1614, "pitch": 62, "duration": 4, "velocity": 72}, {"time": 1614, "pitch": 67, "duration": 4, "velocity": 75}, {"time": 1617, "pitch": 55, "duration": 2, "velocity": 53}, {"time": 1620, "pitch": 59, "duration": 2, "velocity": 51}, {"time": 1623, "pitch": 67, "duration": 6, "velocity": 49}, {"time": 1626, "pitch": 42, "duration": 19, "velocity": 56}, {"time": 1626, "pitch": 54, "duration": 2, "velocity": 49}, {"time": 1626, "pitch": 57, "duration": 4, "velocity": 44}, {"time": 1626, "pitch": 62, "duration": 3, "velocity": 44}, {"time": 1626, "pitch": 66, "duration": 3, "velocity": 47}, {"time": 1629, "pitch": 54, "duration": 9, "velocity": 46}, {"time": 1632, "pitch": 57, "duration": 2, "velocity": 45}, {"time": 1632, "pitch": 66, "duration": 1, "velocity": 42}, {"time": 1635, "pitch": 57, "duration": 2, "velocity": 43}, {"time": 1635, "pitch": 62, "duration": 1, "velocity": 50}, {"time": 1635, "pitch": 66, "duration": 2, "velocity": 42}, {"time": 1638, "pitch": 57, "duration": 4, "velocity": 66}, {"time": 1638, "pitch": 62, "duration": 4, "velocity": 69}, {"time": 1638, "pitch": 66, "duration": 4, "velocity": 73}, {"time": 1641, "pitch": 54, "duration": 3, "velocity": 59}, {"time": 1644, "pitch": 57, "duration": 1, "velocity": 46}, {"time": 1644, "pitch": 66, "duration": 4, "velocity": 67}, {"time": 1650, "pitch": 40, "duration": 19, "velocity": 69}, {"time": 1650, "pitch": 59, "duration": 6, "velocity": 57}, {"time": 1650, "pitch": 62, "duration": 7, "velocity": 69}, {"time": 1650, "pitch": 67, "duration": 5, "velocity": 66}, {"time": 1656, "pitch": 52, "duration": 6, "velocity": 33}, {"time": 1659, "pitch": 59, "duration": 3, "velocity": 39}, {"time": 1662, "pitch": 59, "duration": 2, "velocity": 43}, {"time": 1662, "pitch": 62, "duration": 4, "velocity": 75}, {"time": 1662, "pitch": 67, "duration": 3, "velocity": 66}, {"time": 1665, "pitch": 52, "duration": 3, "velocity": 60}, {"time": 1668, "pitch": 59, "duration": 3, "velocity": 60}, {"time": 1671, "pitch": 67, "duration": 3, "velocity": 62}, {"time": 1674, "pitch": 38, "duration": 19, "velocity": 56}, {"time": 1674, "pitch": 50, "duration": 3, "velocity": 33}, {"time": 1674, "pitch": 57, "duration": 9, "velocity": 54}, {"time": 1674, "pitch": 62, "duration": 9, "velocity": 62}, {"time": 1674, "pitch": 66, "duration": 5, "velocity": 69}, {"time": 1683, "pitch": 50, "duration": 7, "velocity": 45}, {"time": 1686, "pitch": 57, "duration": 4, "velocity": 47}, {"time": 1686, "pitch": 66, "duration": 4, "velocity": 53}, {"time": 1689, "pitch": 67, "duration": 3, "velocity": 63}, {"time": 1692, "pitch": 62, "duration": 2, "velocity": 58}, {"time": 1695, "pitch": 57, "duration": 2, "velocity": 61}, {"time": 1698, "pitch": 36, "duration": 16, "velocity": 62}, {"time": 1698, "pitch": 48, "duration": 4, "velocity": 44}, {"time": 1698, "pitch": 60, "duration": 10, "velocity": 69}, {"time": 1698, "pitch": 64, "duration": 7, "velocity": 64}, {"time": 1701, "pitch": 55, "duration": 8, "velocity": 44}, {"time": 1707, "pitch": 48, "duration": 4, "velocity": 53}, {"time": 1710, "pitch": 55, "duration": 3, "velocity": 72}, {"time": 1710, "pitch": 60, "duration": 4, "velocity": 73}, {"time": 1710, "pitch": 64, "duration": 3, "velocity": 76}, {"time": 1713, "pitch": 48, "duration": 3, "velocity": 57}, {"time": 1716, "pitch": 55, "duration": 3, "velocity": 60}, {"time": 1719, "pitch": 62, "duration": 9, "velocity": 61}, {"time": 1722, "pitch": 47, "duration": 5, "velocity": 72}, {"time": 1722, "pitch": 57, "duration": 6, "velocity": 69}, {"time": 1722, "pitch": 66, "duration": 6, "velocity": 75}, {"time": 1734, "pitch": 40, "duration": 6, "velocity": 61}, {"time": 1734, "pitch": 52, "duration": 5, "velocity": 48}, {"time": 1734, "pitch": 55, "duration": 6, "velocity": 54}, {"time": 1734, "pitch": 59, "duration": 5, "velocity": 61}, {"time": 1734, "pitch": 62, "duration": 5, "velocity": 59}, {"time": 1734, "pitch": 67, "duration": 8, "velocity": 44}, {"time": 1746, "pitch": 45, "duration": 8, "velocity": 49}, {"time": 1746, "pitch": 52, "duration": 8, "velocity": 45}, {"time": 1746, "pitch": 55, "duration": 8, "velocity": 46}, {"time": 1746, "pitch": 60, "duration": 8, "velocity": 60}, {"time": 1746, "pitch": 64, "duration": 6, "velocity": 40}, {"time": 1746, "pitch": 67, "duration": 8, "velocity": 50}, {"time": 1764, "pitch": 55, "duration": 3, "velocity": 52}, {"time": 1764, "pitch": 64, "duration": 4, "velocity": 48}, {"time": 1767, "pitch": 62, "duration": 8, "velocity": 45}, {"time": 1770, "pitch": 38, "duration": 10, "velocity": 66}, {"time": 1770, "pitch": 57, "duration": 7, "velocity": 72}, {"time": 1770, "pitch": 66, "duration": 6, "velocity": 75}, {"time": 1776, "pitch": 50, "duration": 3, "velocity": 35}, {"time": 1782, "pitch": 39, "duration": 8, "velocity": 78}, {"time": 1782, "pitch": 62, "duration": 6, "velocity": 73}, {"time": 1782, "pitch": 66, "duration": 7, "velocity": 75}, {"time": 1788, "pitch": 51, "duration": 2, "velocity": 56}, {"time": 1794, "pitch": 40, "duration": 17, "velocity": 63}, {"time": 1794, "pitch": 52, "duration": 5, "velocity": 56}, {"time": 1794, "pitch": 55, "duration": 7, "velocity": 49}, {"time": 1794, "pitch": 59, "duration": 7, "velocity": 57}, {"time": 1794, "pitch": 62, "duration": 8, "velocity": 59}, {"time": 1803, "pitch": 52, "duration": 5, "velocity": 40}, {"time": 1806, "pitch": 55, "duration": 5, "velocity": 63}, {"time": 1806, "pitch": 59, "duration": 5, "velocity": 63}, {"time": 1806, "pitch": 62, "duration": 5, "velocity": 72}, {"time": 1806, "pitch": 67, "duration": 6, "velocity": 64}, {"time": 1812, "pitch": 52, "duration": 2, "velocity": 44}, {"time": 1818, "pitch": 47, "duration": 18, "velocity": 69}, {"time": 1818, "pitch": 62, "duration": 4, "velocity": 63}, {"time": 1818, "pitch": 66, "duration": 5, "velocity": 72}, {"time": 1827, "pitch": 59, "duration": 7, "velocity": 49}, {"time": 1830, "pitch": 62, "duration": 4, "velocity": 61}, {"time": 1833, "pitch": 66, "duration": 2, "velocity": 56}, {"time": 1836, "pitch": 69, "duration": 3, "velocity": 73}, {"time": 1839, "pitch": 62, "duration": 1, "velocity": 42}, {"time": 1842, "pitch": 45, "duration": 10, "velocity": 67}, {"time": 1842, "pitch": 64, "duration": 6, "velocity": 73}, {"time": 1842, "pitch": 67, "duration": 7, "velocity": 62}, {"time": 1842, "pitch": 72, "duration": 10, "velocity": 70}, {"time": 1848, "pitch": 57, "duration": 3, "velocity": 47}, {"time": 1854, "pitch": 50, "duration": 6, "velocity": 66}, {"time": 1854, "pitch": 62, "duration": 4, "velocity": 59}, {"time": 1854, "pitch": 66, "duration": 6, "velocity": 61}, {"time": 1854, "pitch": 69, "duration": 6, "velocity": 66}, {"time": 1860, "pitch": 62, "duration": 3, "velocity": 45}, {"time": 1863, "pitch": 67, "duration": 2, "velocity": 60}, {"time": 1866, "pitch": 43, "duration": 6, "velocity": 70}, {"time": 1866, "pitch": 62, "duration": 6, "velocity": 69}, {"time": 1866, "pitch": 67, "duration": 2, "velocity": 48}, {"time": 1866, "pitch": 71, "duration": 5, "velocity": 69}, {"time": 1869, "pitch": 50, "duration": 3, "velocity": 49}, {"time": 1872, "pitch": 55, "duration": 4, "velocity": 49}, {"time": 1875, "pitch": 57, "duration": 6, "velocity": 49}, {"time": 1875, "pitch": 62, "duration": 4, "velocity": 58}, {"time": 1878, "pitch": 74, "duration": 4, "velocity": 82}, {"time": 1881, "pitch": 62, "duration": 2, "velocity": 82}, {"time": 1884, "pitch": 54, "duration": 2, "velocity": 69}, {"time": 1884, "pitch": 69, "duration": 3, "velocity": 72}, {"time": 1887, "pitch": 62, "duration": 2, "velocity": 61}, {"time": 1890, "pitch": 52, "duration": 18, "velocity": 70}, {"time": 1890, "pitch": 62, "duration": 5, "velocity": 67}, {"time": 1890, "pitch": 67, "duration": 5, "velocity": 69}, {"time": 1890, "pitch": 71, "duration": 4, "velocity": 73}, {"time": 1896, "pitch": 59, "duration": 7, "velocity": 46}, {"time": 1899, "pitch": 62, "duration": 2, "velocity": 52}, {"time": 1902, "pitch": 62, "duration": 3, "velocity": 70}, {"time": 1902, "pitch": 67, "duration": 4, "velocity": 72}, {"time": 1902, "pitch": 71, "duration": 3, "velocity": 72}, {"time": 1905, "pitch": 59, "duration": 3, "velocity": 64}, {"time": 1908, "pitch": 62, "duration": 3, "velocity": 50}, {"time": 1911, "pitch": 71, "duration": 2, "velocity": 63}, {"time": 1914, "pitch": 50, "duration": 19, "velocity": 72}, {"time": 1914, "pitch": 62, "duration": 8, "velocity": 69}, {"time": 1914, "pitch": 66, "duration": 9, "velocity": 70}, {"time": 1914, "pitch": 71, "duration": 7, "velocity": 70}, {"time": 1923, "pitch": 59, "duration": 5, "velocity": 47}, {"time": 1926, "pitch": 62, "duration": 6, "velocity": 67}, {"time": 1926, "pitch": 66, "duration": 6, "velocity": 75}, {"time": 1926, "pitch": 71, "duration": 9, "velocity": 78}, {"time": 1932, "pitch": 59, "duration": 1, "velocity": 63}, {"time": 1935, "pitch": 69, "duration": 2, "velocity": 63}, {"time": 1938, "pitch": 48, "duration": 15, "velocity": 76}, {"time": 1938, "pitch": 64, "duration": 7, "velocity": 72}, {"time": 1938, "pitch": 67, "duration": 9, "velocity": 45}, {"time": 1938, "pitch": 72, "duration": 7, "velocity": 76}, {"time": 1944, "pitch": 60, "duration": 8, "velocity": 48}, {"time": 1950, "pitch": 64, "duration": 7, "velocity": 75}, {"time": 1950, "pitch": 67, "duration": 6, "velocity": 76}, {"time": 1950, "pitch": 72, "duration": 5, "velocity": 78}, {"time": 1956, "pitch": 48, "duration": 1, "velocity": 48}, {"time": 1956, "pitch": 60, "duration": 1, "velocity": 57}, {"time": 1962, "pitch": 38, "duration": 19, "velocity": 62}, {"time": 1962, "pitch": 50, "duration": 4, "velocity": 54}, {"time": 1962, "pitch": 62, "duration": 6, "velocity": 60}, {"time": 1962, "pitch": 66, "duration": 7, "velocity": 73}, {"time": 1962, "pitch": 72, "duration": 6, "velocity": 78}, {"time": 1968, "pitch": 50, "duration": 8, "velocity": 50}, {"time": 1971, "pitch": 66, "duration": 1, "velocity": 46}, {"time": 1974, "pitch": 62, "duration": 5, "velocity": 78}, {"time": 1974, "pitch": 66, "duration": 6, "velocity": 99}, {"time": 1974, "pitch": 72, "duration": 5, "velocity": 76}, {"time": 1980, "pitch": 62, "duration": 4, "velocity": 82}, {"time": 1983, "pitch": 67, "duration": 2, "velocity": 61}, {"time": 1986, "pitch": 38, "duration": 18, "velocity": 78}, {"time": 1986, "pitch": 50, "duration": 2, "velocity": 78}, {"time": 1986, "pitch": 62, "duration": 5, "velocity": 80}, {"time": 1986, "pitch": 66, "duration": 6, "velocity": 93}, {"time": 1986, "pitch": 69, "duration": 6, "velocity": 75}, {"time": 1992, "pitch": 50, "duration": 11, "velocity": 52}, {"time": 1998, "pitch": 62, "duration": 7, "velocity": 61}, {"time": 1998, "pitch": 66, "duration": 6, "velocity": 99}, {"time": 1998, "pitch": 72, "duration": 7, "velocity": 85}, {"time": 2004, "pitch": 42, "duration": 2, "velocity": 70}, {"time": 2007, "pitch": 62, "duration": 1, "velocity": 53}, {"time": 2010, "pitch": 40, "duration": 5, "velocity": 73}, {"time": 2010, "pitch": 52, "duration": 3, "velocity": 75}, {"time": 2010, "pitch": 62, "duration": 4, "velocity": 82}, {"time": 2010, "pitch": 67, "duration": 5, "velocity": 93}, {"time": 2010, "pitch": 71, "duration": 5, "velocity": 95}, {"time": 2016, "pitch": 52, "duration": 1, "velocity": 78}, {"time": 2019, "pitch": 62, "duration": 1, "velocity": 33}, {"time": 2022, "pitch": 42, "duration": 7, "velocity": 80}, {"time": 2022, "pitch": 54, "duration": 3, "velocity": 82}, {"time": 2022, "pitch": 62, "duration": 5, "velocity": 95}, {"time": 2022, "pitch": 66, "duration": 5, "velocity": 103}, {"time": 2022, "pitch": 69, "duration": 6, "velocity": 80}, {"time": 2028, "pitch": 50, "duration": 1, "velocity": 67}, {"time": 2028, "pitch": 54, "duration": 1, "velocity": 101}, {"time": 2031, "pitch": 62, "duration": 1, "velocity": 46}, {"time": 2034, "pitch": 43, "duration": 19, "velocity": 80}, {"time": 2034, "pitch": 57, "duration": 5, "velocity": 69}, {"time": 2034, "pitch": 59, "duration": 5, "velocity": 69}, {"time": 2034, "pitch": 62, "duration": 5, "velocity": 73}, {"time": 2034, "pitch": 67, "duration": 5, "velocity": 70}, {"time": 2037, "pitch": 50, "duration": 17, "velocity": 62}, {"time": 2040, "pitch": 55, "duration": 9, "velocity": 54}, {"time": 2043, "pitch": 57, "duration": 3, "velocity": 57}, {"time": 2046, "pitch": 62, "duration": 5, "velocity": 61}, {"time": 2049, "pitch": 57, "duration": 3, "velocity": 64}, {"time": 2049, "pitch": 67, "duration": 4, "velocity": 78}, {"time": 2052, "pitch": 55, "duration": 2, "velocity": 72}, {"time": 2055, "pitch": 57, "duration": 2, "velocity": 47}, {"time": 2058, "pitch": 42, "duration": 20, "velocity": 78}, {"time": 2058, "pitch": 57, "duration": 5, "velocity": 85}, {"time": 2058, "pitch": 62, "duration": 5, "velocity": 72}, {"time": 2058, "pitch": 66, "duration": 5, "velocity": 73}, {"time": 2061, "pitch": 50, "duration": 15, "velocity": 61}, {"time": 2064, "pitch": 54, "duration": 7, "velocity": 63}, {"time": 2067, "pitch": 57, "duration": 2, "velocity": 64}, {"time": 2070, "pitch": 62, "duration": 1, "velocity": 72}, {"time": 2070, "pitch": 66, "duration": 1, "velocity": 97}, {"time": 2073, "pitch": 54, "duration": 3, "velocity": 75}, {"time": 2076, "pitch": 62, "duration": 2, "velocity": 62}, {"time": 2079, "pitch": 74, "duration": 15, "velocity": 72}, {"time": 2082, "pitch": 40, "duration": 3, "velocity": 75}, {"time": 2082, "pitch": 62, "duration": 10, "velocity": 75}, {"time": 2082, "pitch": 67, "duration": 12, "velocity": 80}, {"time": 2082, "pitch": 71, "duration": 11, "velocity": 76}, {"time": 2085, "pitch": 52, "duration": 3, "velocity": 59}, {"time": 2088, "pitch": 54, "duration": 12, "velocity": 91}, {"time": 2091, "pitch": 55, "duration": 9, "velocity": 67}, {"time": 2094, "pitch": 59, "duration": 6, "velocity": 80}, {"time": 2097, "pitch": 62, "duration": 2, "velocity": 67}, {"time": 2100, "pitch": 67, "duration": 2, "velocity": 70}, {"time": 2103, "pitch": 71, "duration": 2, "velocity": 52}, {"time": 2106, "pitch": 47, "duration": 18, "velocity": 78}, {"time": 2106, "pitch": 62, "duration": 4, "velocity": 80}, {"time": 2106, "pitch": 66, "duration": 4, "velocity": 88}, {"time": 2106, "pitch": 69, "duration": 4, "velocity": 73}, {"time": 2109, "pitch": 59, "duration": 8, "velocity": 51}, {"time": 2112, "pitch": 62, "duration": 2, "velocity": 48}, {"time": 2115, "pitch": 62, "duration": 4, "velocity": 46}, {"time": 2115, "pitch": 66, "duration": 4, "velocity": 97}, {"time": 2121, "pitch": 62, "duration": 2, "velocity": 64}, {"time": 2121, "pitch": 66, "duration": 3, "velocity": 88}, {"time": 2124, "pitch": 59, "duration": 2, "velocity": 48}, {"time": 2127, "pitch": 64, "duration": 9, "velocity": 61}, {"time": 2130, "pitch": 48, "duration": 18, "velocity": 75}, {"time": 2130, "pitch": 62, "duration": 5, "velocity": 80}, {"time": 2130, "pitch": 67, "duration": 6, "velocity": 73}, {"time": 2133, "pitch": 55, "duration": 16, "velocity": 66}, {"time": 2136, "pitch": 60, "duration": 5, "velocity": 63}, {"time": 2139, "pitch": 62, "duration": 5, "velocity": 75}, {"time": 2139, "pitch": 64, "duration": 2, "velocity": 62}, {"time": 2139, "pitch": 67, "duration": 6, "velocity": 78}, {"time": 2142, "pitch": 64, "duration": 3, "velocity": 29}, {"time": 2145, "pitch": 60, "duration": 3, "velocity": 58}, {"time": 2148, "pitch": 62, "duration": 3, "velocity": 54}, {"time": 2151, "pitch": 69, "duration": 8, "velocity": 67}, {"time": 2154, "pitch": 47, "duration": 6, "velocity": 75}, {"time": 2154, "pitch": 62, "duration": 5, "velocity": 80}, {"time": 2154, "pitch": 66, "duration": 5, "velocity": 97}, {"time": 2157, "pitch": 59, "duration": 3, "velocity": 56}, {"time": 2160, "pitch": 62, "duration": 1, "velocity": 37}, {"time": 2163, "pitch": 62, "duration": 2, "velocity": 47}, {"time": 2166, "pitch": 40, "duration": 6, "velocity": 70}, {"time": 2166, "pitch": 52, "duration": 3, "velocity": 70}, {"time": 2166, "pitch": 55, "duration": 6, "velocity": 82}, {"time": 2166, "pitch": 59, "duration": 6, "velocity": 70}, {"time": 2166, "pitch": 64, "duration": 6, "velocity": 75}, {"time": 2172, "pitch": 52, "duration": 2, "velocity": 75}, {"time": 2178, "pitch": 45, "duration": 19, "velocity": 75}, {"time": 2178, "pitch": 55, "duration": 4, "velocity": 78}, {"time": 2178, "pitch": 60, "duration": 5, "velocity": 80}, {"time": 2178, "pitch": 64, "duration": 4, "velocity": 76}, {"time": 2178, "pitch": 67, "duration": 4, "velocity": 69}, {"time": 2181, "pitch": 52, "duration": 12, "velocity": 60}, {"time": 2184, "pitch": 55, "duration": 2, "velocity": 49}, {"time": 2187, "pitch": 55, "duration": 4, "velocity": 48}, {"time": 2187, "pitch": 60, "duration": 5, "velocity": 75}, {"time": 2193, "pitch": 55, "duration": 3, "velocity": 85}, {"time": 2193, "pitch": 60, "duration": 3, "velocity": 66}, {"time": 2193, "pitch": 64, "duration": 3, "velocity": 80}, {"time": 2196, "pitch": 52, "duration": 1, "velocity": 66}, {"time": 2202, "pitch": 38, "duration": 7, "velocity": 82}, {"time": 2202, "pitch": 57, "duration": 4, "velocity": 76}, {"time": 2202, "pitch": 62, "duration": 4, "velocity": 75}, {"time": 2202, "pitch": 66, "duration": 4, "velocity": 85}, {"time": 2205, "pitch": 50, "duration": 2, "velocity": 54}, {"time": 2211, "pitch": 40, "duration": 3, "velocity": 57}, {"time": 2211, "pitch": 62, "duration": 5, "velocity": 76}, {"time": 2211, "pitch": 67, "duration": 5, "velocity": 76}, {"time": 2217, "pitch": 42, "duration": 6, "velocity": 80}, {"time": 2217, "pitch": 62, "duration": 3, "velocity": 80}, {"time": 2217, "pitch": 66, "duration": 3, "velocity": 78}, {"time": 2217, "pitch": 69, "duration": 3, "velocity": 78}, {"time": 2220, "pitch": 54, "duration": 2, "velocity": 91}, {"time": 2226, "pitch": 43, "duration": 17, "velocity": 69}, {"time": 2226, "pitch": 55, "duration": 4, "velocity": 64}, {"time": 2226, "pitch": 57, "duration": 9, "velocity": 73}, {"time": 2226, "pitch": 59, "duration": 5, "velocity": 75}, {"time": 2226, "pitch": 62, "duration": 6, "velocity": 80}, {"time": 2226, "pitch": 67, "duration": 10, "velocity": 75}, {"time": 2232, "pitch": 59, "duration": 4, "velocity": 44}, {"time": 2235, "pitch": 55, "duration": 4, "velocity": 64}, {"time": 2238, "pitch": 57, "duration": 4, "velocity": 73}, {"time": 2238, "pitch": 59, "duration": 4, "velocity": 76}, {"time": 2238, "pitch": 62, "duration": 4, "velocity": 75}, {"time": 2238, "pitch": 67, "duration": 4, "velocity": 72}, {"time": 2241, "pitch": 55, "duration": 2, "velocity": 61}, {"time": 2244, "pitch": 57, "duration": 3, "velocity": 58}, {"time": 2247, "pitch": 67, "duration": 5, "velocity": 66}, {"time": 2250, "pitch": 42, "duration": 18, "velocity": 76}, {"time": 2250, "pitch": 54, "duration": 5, "velocity": 85}, {"time": 2250, "pitch": 57, "duration": 8, "velocity": 76}, {"time": 2250, "pitch": 62, "duration": 10, "velocity": 75}, {"time": 2250, "pitch": 66, "duration": 6, "velocity": 64}, {"time": 2259, "pitch": 54, "duration": 5, "velocity": 52}, {"time": 2262, "pitch": 57, "duration": 5, "velocity": 80}, {"time": 2262, "pitch": 66, "duration": 5, "velocity": 99}, {"time": 2265, "pitch": 54, "duration": 2, "velocity": 55}, {"time": 2268, "pitch": 67, "duration": 1, "velocity": 46}, {"time": 2271, "pitch": 69, "duration": 1, "velocity": 72}, {"time": 2274, "pitch": 40, "duration": 18, "velocity": 72}, {"time": 2274, "pitch": 52, "duration": 6, "velocity": 80}, {"time": 2274, "pitch": 59, "duration": 7, "velocity": 62}, {"time": 2274, "pitch": 62, "duration": 10, "velocity": 73}, {"time": 2274, "pitch": 67, "duration": 8, "velocity": 82}, {"time": 2283, "pitch": 52, "duration": 4, "velocity": 55}, {"time": 2286, "pitch": 59, "duration": 4, "velocity": 73}, {"time": 2286, "pitch": 62, "duration": 4, "velocity": 60}, {"time": 2286, "pitch": 67, "duration": 3, "velocity": 75}, {"time": 2289, "pitch": 52, "duration": 3, "velocity": 58}, {"time": 2292, "pitch": 66, "duration": 4, "velocity": 82}, {"time": 2295, "pitch": 67, "duration": 3, "velocity": 72}, {"time": 2298, "pitch": 38, "duration": 20, "velocity": 76}, {"time": 2298, "pitch": 50, "duration": 3, "velocity": 73}, {"time": 2298, "pitch": 57, "duration": 5, "velocity": 78}, {"time": 2298, "pitch": 62, "duration": 6, "velocity": 64}, {"time": 2298, "pitch": 66, "duration": 5, "velocity": 85}, {"time": 2304, "pitch": 50, "duration": 4, "velocity": 51}, {"time": 2307, "pitch": 57, "duration": 3, "velocity": 73}, {"time": 2307, "pitch": 66, "duration": 3, "velocity": 82}, {"time": 2313, "pitch": 50, "duration": 4, "velocity": 49}, {"time": 2316, "pitch": 66, "duration": 1, "velocity": 88}, {"time": 2319, "pitch": 67, "duration": 2, "velocity": 66}, {"time": 2322, "pitch": 36, "duration": 17, "velocity": 78}, {"time": 2322, "pitch": 48, "duration": 3, "velocity": 55}, {"time": 2322, "pitch": 60, "duration": 7, "velocity": 67}, {"time": 2322, "pitch": 64, "duration": 6, "velocity": 88}, {"time": 2328, "pitch": 48, "duration": 7, "velocity": 56}, {"time": 2334, "pitch": 55, "duration": 4, "velocity": 75}, {"time": 2334, "pitch": 60, "duration": 4, "velocity": 78}, {"time": 2334, "pitch": 64, "duration": 4, "velocity": 82}, {"time": 2337, "pitch": 48, "duration": 3, "velocity": 62}, {"time": 2340, "pitch": 55, "duration": 2, "velocity": 51}, {"time": 2343, "pitch": 62, "duration": 2, "velocity": 59}, {"time": 2346, "pitch": 47, "duration": 5, "velocity": 73}, {"time": 2346, "pitch": 57, "duration": 6, "velocity": 64}, {"time": 2346, "pitch": 62, "duration": 6, "velocity": 67}, {"time": 2346, "pitch": 66, "duration": 5, "velocity": 76}, {"time": 2358, "pitch": 40, "duration": 6, "velocity": 73}, {"time": 2358, "pitch": 52, "duration": 7, "velocity": 69}, {"time": 2358, "pitch": 55, "duration": 8, "velocity": 67}, {"time": 2358, "pitch": 59, "duration": 7, "velocity": 70}, {"time": 2358, "pitch": 62, "duration": 8, "velocity": 72}, {"time": 2358, "pitch": 67, "duration": 10, "velocity": 69}, {"time": 2370, "pitch": 45, "duration": 19, "velocity": 73}, {"time": 2370, "pitch": 55, "duration": 7, "velocity": 72}, {"time": 2370, "pitch": 60, "duration": 7, "velocity": 76}, {"time": 2370, "pitch": 64, "duration": 5, "velocity": 76}, {"time": 2370, "pitch": 67, "duration": 5, "velocity": 52}, {"time": 2376, "pitch": 52, "duration": 10, "velocity": 44}, {"time": 2379, "pitch": 55, "duration": 4, "velocity": 56}, {"time": 2382, "pitch": 60, "duration": 2, "velocity": 73}, {"time": 2385, "pitch": 55, "duration": 4, "velocity": 85}, {"time": 2385, "pitch": 60, "duration": 3, "velocity": 72}, {"time": 2385, "pitch": 64, "duration": 5, "velocity": 80}, {"time": 2388, "pitch": 52, "duration": 1, "velocity": 64}, {"time": 2391, "pitch": 55, "duration": 2, "velocity": 48}, {"time": 2394, "pitch": 38, "duration": 18, "velocity": 67}, {"time": 2394, "pitch": 50, "duration": 5, "velocity": 66}, {"time": 2394, "pitch": 55, "duration": 7, "velocity": 73}, {"time": 2394, "pitch": 60, "duration": 8, "velocity": 78}, {"time": 2394, "pitch": 64, "duration": 7, "velocity": 80}, {"time": 2403, "pitch": 50, "duration": 6, "velocity": 45}, {"time": 2406, "pitch": 55, "duration": 6, "velocity": 75}, {"time": 2406, "pitch": 60, "duration": 6, "velocity": 69}, {"time": 2406, "pitch": 64, "duration": 6, "velocity": 72}, {"time": 2412, "pitch": 50, "duration": 1, "velocity": 59}, {"time": 2418, "pitch": 43, "duration": 36, "velocity": 70}, {"time": 2418, "pitch": 60, "duration": 5, "velocity": 85}, {"time": 2418, "pitch": 67, "duration": 7, "velocity": 73}, {"time": 2421, "pitch": 50, "duration": 26, "velocity": 66}, {"time": 2424, "pitch": 55, "duration": 10, "velocity": 61}, {"time": 2427, "pitch": 57, "duration": 5, "velocity": 82}, {"time": 2427, "pitch": 62, "duration": 5, "velocity": 75}, {"time": 2430, "pitch": 67, "duration": 4, "velocity": 63}, {"time": 2433, "pitch": 60, "duration": 4, "velocity": 78}, {"time": 2433, "pitch": 64, "duration": 5, "velocity": 72}, {"time": 2436, "pitch": 67, "duration": 4, "velocity": 52}, {"time": 2439, "pitch": 55, "duration": 6, "velocity": 44}, {"time": 2442, "pitch": 38, "duration": 4, "velocity": 73}, {"time": 2442, "pitch": 50, "duration": 5, "velocity": 75}, {"time": 2442, "pitch": 55, "duration": 3, "velocity": 82}, {"time": 2442, "pitch": 59, "duration": 4, "velocity": 64}, {"time": 2442, "pitch": 60, "duration": 3, "velocity": 88}, {"time": 2442, "pitch": 62, "duration": 6, "velocity": 69}, {"time": 2442, "pitch": 64, "duration": 4, "velocity": 85}, {"time": 2442, "pitch": 67, "duration": 6, "velocity": 58}, {"time": 2442, "pitch": 67, "duration": 6, "velocity": 67}, {"time": 2454, "pitch": 40, "duration": 3, "velocity": 69}, {"time": 2454, "pitch": 52, "duration": 3, "velocity": 76}, {"time": 2454, "pitch": 55, "duration": 3, "velocity": 56}, {"time": 2454, "pitch": 62, "duration": 2, "velocity": 76}, {"time": 2454, "pitch": 66, "duration": 2, "velocity": 85}, {"time": 2454, "pitch": 69, "duration": 2, "velocity": 80}, {"time": 2460, "pitch": 42, "duration": 1, "velocity": 75}, {"time": 2460, "pitch": 62, "duration": 1, "velocity": 57}, {"time": 2460, "pitch": 66, "duration": 1, "velocity": 76}, {"time": 2460, "pitch": 72, "duration": 4, "velocity": 82}, {"time": 2466, "pitch": 43, "duration": 5, "velocity": 76}, {"time": 2466, "pitch": 62, "duration": 11, "velocity": 82}, {"time": 2466, "pitch": 67, "duration": 12, "velocity": 91}, {"time": 2466, "pitch": 71, "duration": 12, "velocity": 75}, {"time": 2469, "pitch": 50, "duration": 3, "velocity": 73}, {"time": 2472, "pitch": 55, "duration": 4, "velocity": 73}, {"time": 2475, "pitch": 57, "duration": 5, "velocity": 72}, {"time": 2478, "pitch": 59, "duration": 2, "velocity": 73}, {"time": 2481, "pitch": 62, "duration": 2, "velocity": 93}, {"time": 2484, "pitch": 67, "duration": 3, "velocity": 88}, {"time": 2487, "pitch": 71, "duration": 3, "velocity": 91}, {"time": 2490, "pitch": 42, "duration": 20, "velocity": 76}, {"time": 2490, "pitch": 62, "duration": 4, "velocity": 85}, {"time": 2490, "pitch": 66, "duration": 4, "velocity": 103}, {"time": 2490, "pitch": 69, "duration": 5, "velocity": 80}, {"time": 2493, "pitch": 54, "duration": 14, "velocity": 80}, {"time": 2496, "pitch": 62, "duration": 1, "velocity": 63}, {"time": 2499, "pitch": 62, "duration": 4, "velocity": 88}, {"time": 2499, "pitch": 66, "duration": 5, "velocity": 103}, {"time": 2499, "pitch": 74, "duration": 5, "velocity": 80}, {"time": 2505, "pitch": 62, "duration": 3, "velocity": 88}, {"time": 2505, "pitch": 66, "duration": 3, "velocity": 95}, {"time": 2505, "pitch": 71, "duration": 4, "velocity": 91}, {"time": 2505, "pitch": 74, "duration": 1, "velocity": 59}, {"time": 2508, "pitch": 54, "duration": 2, "velocity": 80}, {"time": 2511, "pitch": 62, "duration": 2, "velocity": 60}, {"time": 2514, "pitch": 40, "duration": 20, "velocity": 85}, {"time": 2514, "pitch": 62, "duration": 4, "velocity": 95}, {"time": 2514, "pitch": 67, "duration": 5, "velocity": 97}, {"time": 2514, "pitch": 71, "duration": 4, "velocity": 91}, {"time": 2517, "pitch": 52, "duration": 7, "velocity": 64}, {"time": 2520, "pitch": 62, "duration": 2, "velocity": 59}, {"time": 2523, "pitch": 62, "duration": 4, "velocity": 80}, {"time": 2523, "pitch": 69, "duration": 4, "velocity": 82}, {"time": 2526, "pitch": 52, "duration": 3, "velocity": 62}, {"time": 2529, "pitch": 62, "duration": 3, "velocity": 99}, {"time": 2529, "pitch": 67, "duration": 4, "velocity": 91}, {"time": 2532, "pitch": 52, "duration": 2, "velocity": 55}, {"time": 2535, "pitch": 62, "duration": 3, "velocity": 82}, {"time": 2538, "pitch": 38, "duration": 18, "velocity": 73}, {"time": 2538, "pitch": 50, "duration": 5, "velocity": 85}, {"time": 2538, "pitch": 62, "duration": 3, "velocity": 82}, {"time": 2538, "pitch": 66, "duration": 4, "velocity": 101}, {"time": 2538, "pitch": 69, "duration": 2, "velocity": 64}, {"time": 2538, "pitch": 69, "duration": 2, "velocity": 72}, {"time": 2544, "pitch": 62, "duration": 2, "velocity": 69}, {"time": 2547, "pitch": 62, "duration": 6, "velocity": 78}, {"time": 2547, "pitch": 66, "duration": 6, "velocity": 97}, {"time": 2547, "pitch": 74, "duration": 6, "velocity": 85}, {"time": 2553, "pitch": 50, "duration": 4, "velocity": 78}, {"time": 2556, "pitch": 62, "duration": 3, "velocity": 95}, {"time": 2556, "pitch": 66, "duration": 3, "velocity": 61}, {"time": 2559, "pitch": 67, "duration": 2, "velocity": 67}, {"time": 2562, "pitch": 36, "duration": 15, "velocity": 93}, {"time": 2562, "pitch": 62, "duration": 4, "velocity": 80}, {"time": 2562, "pitch": 67, "duration": 4, "velocity": 66}, {"time": 2562, "pitch": 69, "duration": 3, "velocity": 56}, {"time": 2565, "pitch": 48, "duration": 7, "velocity": 62}, {"time": 2568, "pitch": 62, "duration": 1, "velocity": 50}, {"time": 2571, "pitch": 62, "duration": 6, "velocity": 85}, {"time": 2571, "pitch": 67, "duration": 6, "velocity": 95}, {"time": 2571, "pitch": 71, "duration": 6, "velocity": 80}, {"time": 2577, "pitch": 48, "duration": 2, "velocity": 80}, {"time": 2580, "pitch": 62, "duration": 3, "velocity": 82}, {"time": 2583, "pitch": 71, "duration": 3, "velocity": 72}, {"time": 2586, "pitch": 47, "duration": 5, "velocity": 72}, {"time": 2586, "pitch": 59, "duration": 4, "velocity": 91}, {"time": 2586, "pitch": 62, "duration": 4, "velocity": 82}, {"time": 2586, "pitch": 66, "duration": 5, "velocity": 99}, {"time": 2586, "pitch": 69, "duration": 5, "velocity": 93}, {"time": 2586, "pitch": 71, "duration": 1, "velocity": 75}, {"time": 2592, "pitch": 62, "duration": 2, "velocity": 70}, {"time": 2595, "pitch": 67, "duration": 1, "velocity": 61}, {"time": 2595, "pitch": 71, "duration": 2, "velocity": 85}, {"time": 2598, "pitch": 40, "duration": 8, "velocity": 85}, {"time": 2598, "pitch": 62, "duration": 4, "velocity": 97}, {"time": 2598, "pitch": 67, "duration": 3, "velocity": 93}, {"time": 2598, "pitch": 71, "duration": 3, "velocity": 80}, {"time": 2601, "pitch": 52, "duration": 6, "velocity": 82}, {"time": 2604, "pitch": 57, "duration": 2, "velocity": 75}, {"time": 2607, "pitch": 60, "duration": 1, "velocity": 52}, {"time": 2610, "pitch": 45, "duration": 19, "velocity": 88}, {"time": 2610, "pitch": 60, "duration": 5, "velocity": 88}, {"time": 2610, "pitch": 64, "duration": 6, "velocity": 91}, {"time": 2613, "pitch": 52, "duration": 12, "velocity": 67}, {"time": 2616, "pitch": 57, "duration": 9, "velocity": 85}, {"time": 2619, "pitch": 59, "duration": 4, "velocity": 85}, {"time": 2619, "pitch": 62, "duration": 5, "velocity": 91}, {"time": 2625, "pitch": 60, "duration": 3, "velocity": 101}, {"time": 2625, "pitch": 64, "duration": 4, "velocity": 93}, {"time": 2628, "pitch": 52, "duration": 1, "velocity": 73}, {"time": 2631, "pitch": 55, "duration": 2, "velocity": 70}, {"time": 2634, "pitch": 38, "duration": 10, "velocity": 78}, {"time": 2634, "pitch": 55, "duration": 4, "velocity": 85}, {"time": 2634, "pitch": 60, "duration": 4, "velocity": 97}, {"time": 2634, "pitch": 64, "duration": 4, "velocity": 88}, {"time": 2634, "pitch": 67, "duration": 4, "velocity": 78}, {"time": 2637, "pitch": 50, "duration": 7, "velocity": 75}, {"time": 2640, "pitch": 55, "duration": 3, "velocity": 97}, {"time": 2643, "pitch": 60, "duration": 3, "velocity": 75}, {"time": 2646, "pitch": 40, "duration": 2, "velocity": 101}, {"time": 2646, "pitch": 57, "duration": 2, "velocity": 95}, {"time": 2646, "pitch": 62, "duration": 2, "velocity": 78}, {"time": 2646, "pitch": 66, "duration": 3, "velocity": 88}, {"time": 2652, "pitch": 42, "duration": 2, "velocity": 101}, {"time": 2652, "pitch": 66, "duration": 1, "velocity": 78}, {"time": 2652, "pitch": 69, "duration": 1, "velocity": 60}, {"time": 2652, "pitch": 71, "duration": 1, "velocity": 64}, {"time": 2658, "pitch": 43, "duration": 19, "velocity": 82}, {"time": 2658, "pitch": 59, "duration": 5, "velocity": 85}, {"time": 2658, "pitch": 62, "duration": 5, "velocity": 88}, {"time": 2658, "pitch": 67, "duration": 7, "velocity": 75}, {"time": 2661, "pitch": 50, "duration": 12, "velocity": 61}, {"time": 2664, "pitch": 55, "duration": 9, "velocity": 91}, {"time": 2667, "pitch": 60, "duration": 1, "velocity": 64}, {"time": 2670, "pitch": 60, "duration": 1, "velocity": 70}, {"time": 2673, "pitch": 59, "duration": 2, "velocity": 99}, {"time": 2673, "pitch": 60, "duration": 1, "velocity": 101}, {"time": 2673, "pitch": 67, "duration": 4, "velocity": 85}, {"time": 2676, "pitch": 50, "duration": 2, "velocity": 72}, {"time": 2679, "pitch": 59, "duration": 2, "velocity": 64}, {"time": 2682, "pitch": 42, "duration": 20, "velocity": 80}, {"time": 2682, "pitch": 57, "duration": 5, "velocity": 93}, {"time": 2682, "pitch": 62, "duration": 7, "velocity": 78}, {"time": 2682, "pitch": 66, "duration": 5, "velocity": 95}, {"time": 2685, "pitch": 50, "duration": 17, "velocity": 78}, {"time": 2688, "pitch": 54, "duration": 10, "velocity": 80}, {"time": 2691, "pitch": 57, "duration": 2, "velocity": 91}, {"time": 2694, "pitch": 62, "duration": 4, "velocity": 69}, {"time": 2697, "pitch": 66, "duration": 4, "velocity": 93}, {"time": 2700, "pitch": 54, "duration": 1, "velocity": 78}, {"time": 2700, "pitch": 57, "duration": 4, "velocity": 80}, {"time": 2703, "pitch": 69, "duration": 2, "velocity": 70}, {"time": 2706, "pitch": 40, "duration": 19, "velocity": 72}, {"time": 2706, "pitch": 62, "duration": 4, "velocity": 80}, {"time": 2709, "pitch": 52, "duration": 7, "velocity": 75}, {"time": 2715, "pitch": 59, "duration": 7, "velocity": 99}, {"time": 2715, "pitch": 62, "duration": 7, "velocity": 95}, {"time": 2715, "pitch": 67, "duration": 6, "velocity": 76}, {"time": 2721, "pitch": 52, "duration": 3, "velocity": 75}, {"time": 2724, "pitch": 59, "duration": 3, "velocity": 93}, {"time": 2724, "pitch": 62, "duration": 3, "velocity": 38}, {"time": 2727, "pitch": 67, "duration": 4, "velocity": 67}, {"time": 2730, "pitch": 38, "duration": 19, "velocity": 80}, {"time": 2730, "pitch": 57, "duration": 3, "velocity": 95}, {"time": 2730, "pitch": 62, "duration": 5, "velocity": 91}, {"time": 2730, "pitch": 66, "duration": 4, "velocity": 95}, {"time": 2733, "pitch": 50, "duration": 11, "velocity": 73}, {"time": 2736, "pitch": 57, "duration": 2, "velocity": 72}, {"time": 2739, "pitch": 57, "duration": 3, "velocity": 80}, {"time": 2739, "pitch": 66, "duration": 4, "velocity": 97}, {"time": 2745, "pitch": 57, "duration": 3, "velocity": 95}, {"time": 2745, "pitch": 62, "duration": 1, "velocity": 73}, {"time": 2745, "pitch": 67, "duration": 3, "velocity": 75}, {"time": 2748, "pitch": 50, "duration": 2, "velocity": 54}, {"time": 2748, "pitch": 57, "duration": 2, "velocity": 70}, {"time": 2748, "pitch": 66, "duration": 2, "velocity": 88}, {"time": 2748, "pitch": 67, "duration": 1, "velocity": 44}, {"time": 2754, "pitch": 36, "duration": 15, "velocity": 70}, {"time": 2754, "pitch": 48, "duration": 6, "velocity": 88}, {"time": 2754, "pitch": 55, "duration": 4, "velocity": 93}, {"time": 2754, "pitch": 60, "duration": 6, "velocity": 78}, {"time": 2754, "pitch": 64, "duration": 4, "velocity": 70}, {"time": 2760, "pitch": 48, "duration": 3, "velocity": 38}, {"time": 2760, "pitch": 55, "duration": 1, "velocity": 50}, {"time": 2763, "pitch": 55, "duration": 7, "velocity": 80}, {"time": 2763, "pitch": 60, "duration": 7, "velocity": 80}, {"time": 2763, "pitch": 64, "duration": 5, "velocity": 80}, {"time": 2769, "pitch": 48, "duration": 2, "velocity": 70}, {"time": 2772, "pitch": 55, "duration": 1, "velocity": 85}, {"time": 2772, "pitch": 57, "duration": 1, "velocity": 72}, {"time": 2772, "pitch": 67, "duration": 5, "velocity": 69}, {"time": 2778, "pitch": 47, "duration": 4, "velocity": 78}, {"time": 2778, "pitch": 57, "duration": 5, "velocity": 80}, {"time": 2778, "pitch": 62, "duration": 5, "velocity": 85}, {"time": 2778, "pitch": 66, "duration": 5, "velocity": 97}, {"time": 2784, "pitch": 62, "duration": 1, "velocity": 33}, {"time": 2784, "pitch": 66, "duration": 4, "velocity": 72}, {"time": 2787, "pitch": 67, "duration": 1, "velocity": 60}, {"time": 2790, "pitch": 40, "duration": 6, "velocity": 72}, {"time": 2790, "pitch": 52, "duration": 4, "velocity": 85}, {"time": 2790, "pitch": 59, "duration": 5, "velocity": 93}, {"time": 2790, "pitch": 62, "duration": 6, "velocity": 88}, {"time": 2790, "pitch": 67, "duration": 6, "velocity": 73}, {"time": 2796, "pitch": 52, "duration": 1, "velocity": 70}, {"time": 2799, "pitch": 59, "duration": 2, "velocity": 82}, {"time": 2802, "pitch": 45, "duration": 19, "velocity": 75}, {"time": 2802, "pitch": 60, "duration": 6, "velocity": 93}, {"time": 2802, "pitch": 67, "duration": 6, "velocity": 75}, {"time": 2805, "pitch": 52, "duration": 11, "velocity": 78}, {"time": 2808, "pitch": 57, "duration": 10, "velocity": 82}, {"time": 2811, "pitch": 59, "duration": 2, "velocity": 91}, {"time": 2814, "pitch": 60, "duration": 1, "velocity": 61}, {"time": 2817, "pitch": 64, "duration": 4, "velocity": 97}, {"time": 2820, "pitch": 52, "duration": 1, "velocity": 52}, {"time": 2823, "pitch": 55, "duration": 1, "velocity": 47}, {"time": 2826, "pitch": 38, "duration": 18, "velocity": 73}, {"time": 2826, "pitch": 55, "duration": 7, "velocity": 91}, {"time": 2826, "pitch": 60, "duration": 7, "velocity": 91}, {"time": 2826, "pitch": 64, "duration": 5, "velocity": 82}, {"time": 2826, "pitch": 67, "duration": 6, "velocity": 56}, {"time": 2835, "pitch": 50, "duration": 6, "velocity": 28}, {"time": 2838, "pitch": 55, "duration": 6, "velocity": 95}, {"time": 2838, "pitch": 60, "duration": 6, "velocity": 64}, {"time": 2838, "pitch": 64, "duration": 6, "velocity": 73}, {"time": 2844, "pitch": 50, "duration": 1, "velocity": 85}, {"time": 2850, "pitch": 43, "duration": 39, "velocity": 72}, {"time": 2850, "pitch": 60, "duration": 7, "velocity": 91}, {"time": 2850, "pitch": 64, "duration": 4, "velocity": 91}, {"time": 2850, "pitch": 67, "duration": 5, "velocity": 72}, {"time": 2853, "pitch": 50, "duration": 35, "velocity": 64}, {"time": 2856, "pitch": 55, "duration": 12, "velocity": 82}, {"time": 2859, "pitch": 59, "duration": 5, "velocity": 88}, {"time": 2865, "pitch": 60, "duration": 4, "velocity": 91}, {"time": 2871, "pitch": 55, "duration": 17, "velocity": 45}, {"time": 2872, "pitch": 57, "duration": 18, "velocity": 55}, {"time": 2872, "pitch": 59, "duration": 17, "velocity": 49}, {"time": 2873, "pitch": 62, "duration": 15, "velocity": 45}, {"time": 2874, "pitch": 67, "duration": 15, "velocity": 60}, {"time": 2899, "pitch": 45, "duration": 15, "velocity": 69}, {"time": 2899, "pitch": 60, "duration": 6, "velocity": 59}, {"time": 2899, "pitch": 64, "duration": 7, "velocity": 57}, {"time": 2899, "pitch": 55, "duration": 3, "velocity": 51}, {"time": 2899, "pitch": 67, "duration": 7, "velocity": 48}, {"time": 2902, "pitch": 52, "duration": 12, "velocity": 44}, {"time": 2905, "pitch": 57, "duration": 7, "velocity": 58}, {"time": 2908, "pitch": 60, "duration": 8, "velocity": 72}, {"time": 2912, "pitch": 67, "duration": 8, "velocity": 67}, {"time": 2919, "pitch": 55, "duration": 5, "velocity": 40}, {"time": 2920, "pitch": 60, "duration": 4, "velocity": 54}, {"time": 2920, "pitch": 38, "duration": 28, "velocity": 70}, {"time": 2921, "pitch": 64, "duration": 4, "velocity": 59}, {"time": 2924, "pitch": 50, "duration": 24, "velocity": 48}, {"time": 2926, "pitch": 55, "duration": 2, "velocity": 56}, {"time": 2928, "pitch": 60, "duration": 3, "velocity": 64}, {"time": 2931, "pitch": 62, "duration": 1, "velocity": 48}, {"time": 2933, "pitch": 67, "duration": 2, "velocity": 57}, {"time": 2936, "pitch": 72, "duration": 2, "velocity": 50}, {"time": 2939, "pitch": 74, "duration": 3, "velocity": 58}, {"time": 2942, "pitch": 79, "duration": 6, "velocity": 51}, {"time": 2952, "pitch": 67, "duration": 5, "velocity": 61}, {"time": 2952, "pitch": 43, "duration": 46, "velocity": 67}, {"time": 2952, "pitch": 60, "duration": 5, "velocity": 62}, {"time": 2955, "pitch": 50, "duration": 9, "velocity": 54}, {"time": 2957, "pitch": 55, "duration": 7, "velocity": 73}, {"time": 2959, "pitch": 57, "duration": 2, "velocity": 69}, {"time": 2961, "pitch": 60, "duration": 3, "velocity": 45}, {"time": 2963, "pitch": 67, "duration": 5, "velocity": 59}, {"time": 2968, "pitch": 50, "duration": 5, "velocity": 43}, {"time": 2972, "pitch": 62, "duration": 4, "velocity": 63}, {"time": 2972, "pitch": 55, "duration": 3, "velocity": 50}, {"time": 2979, "pitch": 50, "duration": 18, "velocity": 55}, {"time": 2979, "pitch": 55, "duration": 2, "velocity": 48}, {"time": 2979, "pitch": 60, "duration": 3, "velocity": 55}, {"time": 2990, "pitch": 79, "duration": 2, "velocity": 32}, {"time": 2990, "pitch": 84, "duration": 4, "velocity": 44}, {"time": 2991, "pitch": 91, "duration": 5, "velocity": 44}], "annotations": [{"time": 19, "annotation": {"number": 64, "value": 127}, "group": "control_change"}, {"time": 43, "annotation": {"number": 64, "value": 0}, "group": "control_change"}, {"time": 46, "annotation": {"number": 64, "value": 127}, "group": "control_change"}, {"time": 66, "annotation": {"number": 64, "value": 0}, "group": "control_change"}, {"time": 70, "annotation": {"number": 64, "value": 127}, "group": "control_change"}, {"time": 91, "annotation": {"number": 64, "value": 0}, "group": "control_change"}, {"time": 96, "annotation": {"number": 64, "value": 127}, "group": "control_change"}, {"time": 114, "annotation": {"number": 64, "value": 0}, "group": "control_change"}, {"time": 115, "annotation": {"number": 64, "value": 127}, "group": "control_change"}, {"time": 139, "annotation": {"number": 64, "value": 0}, "group": "control_change"}, {"time": 142, "annotation": {"number": 64, "value": 127}, "group": "control_change"}, {"time": 161, "annotation": {"number": 64, "value": 0}, "group": "control_change"}, {"time": 165, "annotation": {"number": 64, "value": 127}, "group": "control_change"}, {"time": 186, "annotation": {"number": 64, "value": 0}, "group": "control_change"}, {"time": 190, "annotation": {"number": 64, "value": 127}, "group": "control_change"}, {"time": 216, "annotation": {"number": 64, "value": 127}, "group": "control_change"}, {"time": 235, "annotation": {"number": 64, "value": 0}, "group": "control_change"}, {"time": 238, "annotation": {"number": 64, "value": 127}, "group": "control_change"}, {"time": 259, "annotation": {"number": 64, "value": 0}, "group": "control_change"}, {"time": 264, "annotation": {"number": 64, "value": 127}, "group": "control_change"}, {"time": 281, "annotation": {"number": 64, "value": 0}, "group": "control_change"}, {"time": 285, "annotation": {"number": 64, "value": 127}, "group": "control_change"}, {"time": 306, "annotation": {"number": 64, "value": 0}, "group": "control_change"}, {"time": 308, "annotation": {"number": 64, "value": 127}, "group": "control_change"}, {"time": 329, "annotation": {"number": 64, "value": 0}, "group": "control_change"}, {"time": 332, "annotation": {"number": 64, "value": 127}, "group": "control_change"}, {"time": 354, "annotation": {"number": 64, "value": 0}, "group": "control_change"}, {"time": 357, "annotation": {"number": 64, "value": 127}, "group": "control_change"}, {"time": 376, "annotation": {"number": 64, "value": 0}, "group": "control_change"}, {"time": 379, "annotation": {"number": 64, "value": 127}, "group": "control_change"}, {"time": 402, "annotation": {"number": 64, "value": 0}, "group": "control_change"}, {"time": 404, "annotation": {"number": 64, "value": 127}, "group": "control_change"}, {"time": 425, "annotation": {"number": 64, "value": 0}, "group": "control_change"}, {"time": 427, "annotation": {"number": 64, "value": 127}, "group": "control_change"}, {"time": 450, "annotation": {"number": 64, "value": 0}, "group": "control_change"}, {"time": 452, "annotation": {"number": 64, "value": 127}, "group": "control_change"}, {"time": 473, "annotation": {"number": 64, "value": 0}, "group": "control_change"}, {"time": 475, "annotation": {"number": 64, "value": 127}, "group": "control_change"}, {"time": 498, "annotation": {"number": 64, "value": 0}, "group": "control_change"}, {"time": 500, "annotation": {"number": 64, "value": 127}, "group": "control_change"}, {"time": 521, "annotation": {"number": 64, "value": 0}, "group": "control_change"}, {"time": 523, "annotation": {"number": 64, "value": 127}, "group": "control_change"}, {"time": 534, "annotation": {"number": 64, "value": 0}, "group": "control_change"}, {"time": 536, "annotation": {"number": 64, "value": 127}, "group": "control_change"}, {"time": 545, "annotation": {"number": 64, "value": 0}, "group": "control_change"}, {"time": 548, "annotation": {"number": 64, "value": 127}, "group": "control_change"}, {"time": 570, "annotation": {"number": 64, "value": 127}, "group": "control_change"}, {"time": 583, "annotation": {"number": 64, "value": 0}, "group": "control_change"}, {"time": 585, "annotation": {"number": 64, "value": 127}, "group": "control_change"}, {"time": 593, "annotation": {"number": 64, "value": 0}, "group": "control_change"}, {"time": 594, "annotation": {"number": 64, "value": 0}, "group": "control_change"}, {"time": 595, "annotation": {"number": 64, "value": 127}, "group": "control_change"}, {"time": 617, "annotation": {"number": 64, "value": 0}, "group": "control_change"}, {"time": 619, "annotation": {"number": 64, "value": 127}, "group": "control_change"}, {"time": 640, "annotation": {"number": 64, "value": 0}, "group": "control_change"}, {"time": 644, "annotation": {"number": 64, "value": 127}, "group": "control_change"}, {"time": 654, "annotation": {"number": 64, "value": 0}, "group": "control_change"}, {"time": 657, "annotation": {"number": 64, "value": 127}, "group": "control_change"}, {"time": 664, "annotation": {"number": 64, "value": 0}, "group": "control_change"}, {"time": 667, "annotation": {"number": 64, "value": 127}, "group": "control_change"}, {"time": 688, "annotation": {"number": 64, "value": 0}, "group": "control_change"}, {"time": 691, "annotation": {"number": 64, "value": 127}, "group": "control_change"}, {"time": 713, "annotation": {"number": 64, "value": 0}, "group": "control_change"}, {"time": 715, "annotation": {"number": 64, "value": 127}, "group": "control_change"}, {"time": 738, "annotation": {"number": 64, "value": 0}, "group": "control_change"}, {"time": 740, "annotation": {"number": 64, "value": 127}, "group": "control_change"}, {"time": 760, "annotation": {"number": 64, "value": 0}, "group": "control_change"}, {"time": 762, "annotation": {"number": 64, "value": 127}, "group": "control_change"}, {"time": 784, "annotation": {"number": 64, "value": 0}, "group": "control_change"}, {"time": 786, "annotation": {"number": 64, "value": 127}, "group": "control_change"}, {"time": 809, "annotation": {"number": 64, "value": 0}, "group": "control_change"}, {"time": 811, "annotation": {"number": 64, "value": 127}, "group": "control_change"}, {"time": 833, "annotation": {"number": 64, "value": 0}, "group": "control_change"}, {"time": 835, "annotation": {"number": 64, "value": 127}, "group": "control_change"}, {"time": 857, "annotation": {"number": 64, "value": 0}, "group": "control_change"}, {"time": 859, "annotation": {"number": 64, "value": 127}, "group": "control_change"}, {"time": 881, "annotation": {"number": 64, "value": 0}, "group": "control_change"}, {"time": 884, "annotation": {"number": 64, "value": 127}, "group": "control_change"}, {"time": 905, "annotation": {"number": 64, "value": 0}, "group": "control_change"}, {"time": 907, "annotation": {"number": 64, "value": 127}, "group": "control_change"}, {"time": 918, "annotation": {"number": 64, "value": 0}, "group": "control_change"}, {"time": 920, "annotation": {"number": 64, "value": 127}, "group": "control_change"}, {"time": 931, "annotation": {"number": 64, "value": 0}, "group": "control_change"}, {"time": 933, "annotation": {"number": 64, "value": 127}, "group": "control_change"}, {"time": 954, "annotation": {"number": 64, "value": 0}, "group": "control_change"}, {"time": 956, "annotation": {"number": 64, "value": 127}, "group": "control_change"}, {"time": 978, "annotation": {"number": 64, "value": 0}, "group": "control_change"}, {"time": 980, "annotation": {"number": 64, "value": 127}, "group": "control_change"}, {"time": 1001, "annotation": {"number": 64, "value": 0}, "group": "control_change"}, {"time": 1003, "annotation": {"number": 64, "value": 127}, "group": "control_change"}, {"time": 1026, "annotation": {"number": 64, "value": 0}, "group": "control_change"}, {"time": 1027, "annotation": {"number": 64, "value": 127}, "group": "control_change"}, {"time": 1050, "annotation": {"number": 64, "value": 0}, "group": "control_change"}, {"time": 1051, "annotation": {"number": 64, "value": 127}, "group": "control_change"}, {"time": 1073, "annotation": {"number": 64, "value": 0}, "group": "control_change"}, {"time": 1075, "annotation": {"number": 64, "value": 127}, "group": "control_change"}, {"time": 1096, "annotation": {"number": 64, "value": 0}, "group": "control_change"}, {"time": 1099, "annotation": {"number": 64, "value": 127}, "group": "control_change"}, {"time": 1109, "annotation": {"number": 64, "value": 0}, "group": "control_change"}, {"time": 1112, "annotation": {"number": 64, "value": 127}, "group": "control_change"}, {"time": 1122, "annotation": {"number": 64, "value": 0}, "group": "control_change"}, {"time": 1124, "annotation": {"number": 64, "value": 127}, "group": "control_change"}, {"time": 1146, "annotation": {"number": 64, "value": 0}, "group": "control_change"}, {"time": 1148, "annotation": {"number": 64, "value": 127}, "group": "control_change"}, {"time": 1169, "annotation": {"number": 64, "value": 0}, "group": "control_change"}, {"time": 1171, "annotation": {"number": 64, "value": 127}, "group": "control_change"}, {"time": 1210, "annotation": {"number": 64, "value": 0}, "group": "control_change"}, {"time": 1315, "annotation": {"number": 64, "value": 127}, "group": "control_change"}, {"time": 1339, "annotation": {"number": 64, "value": 0}, "group": "control_change"}, {"time": 1342, "annotation": {"number": 64, "value": 127}, "group": "control_change"}, {"time": 1362, "annotation": {"number": 64, "value": 0}, "group": "control_change"}, {"time": 1366, "annotation": {"number": 64, "value": 127}, "group": "control_change"}, {"time": 1386, "annotation": {"number": 64, "value": 0}, "group": "control_change"}, {"time": 1391, "annotation": {"number": 64, "value": 127}, "group": "control_change"}, {"time": 1404, "annotation": {"number": 64, "value": 127}, "group": "control_change"}, {"time": 1411, "annotation": {"number": 64, "value": 0}, "group": "control_change"}, {"time": 1412, "annotation": {"number": 64, "value": 0}, "group": "control_change"}, {"time": 1414, "annotation": {"number": 64, "value": 127}, "group": "control_change"}, {"time": 1433, "annotation": {"number": 64, "value": 0}, "group": "control_change"}, {"time": 1437, "annotation": {"number": 64, "value": 127}, "group": "control_change"}, {"time": 1458, "annotation": {"number": 64, "value": 0}, "group": "control_change"}, {"time": 1462, "annotation": {"number": 64, "value": 127}, "group": "control_change"}, {"time": 1481, "annotation": {"number": 64, "value": 0}, "group": "control_change"}, {"time": 1485, "annotation": {"number": 64, "value": 127}, "group": "control_change"}, {"time": 1505, "annotation": {"number": 64, "value": 0}, "group": "control_change"}, {"time": 1510, "annotation": {"number": 64, "value": 127}, "group": "control_change"}, {"time": 1533, "annotation": {"number": 64, "value": 127}, "group": "control_change"}, {"time": 1542, "annotation": {"number": 64, "value": 0}, "group": "control_change"}, {"time": 1546, "annotation": {"number": 64, "value": 127}, "group": "control_change"}, {"time": 1554, "annotation": {"number": 64, "value": 0}, "group": "control_change"}, {"time": 1558, "annotation": {"number": 64, "value": 127}, "group": "control_change"}, {"time": 1578, "annotation": {"number": 64, "value": 0}, "group": "control_change"}, {"time": 1581, "annotation": {"number": 64, "value": 127}, "group": "control_change"}, {"time": 1601, "annotation": {"number": 64, "value": 0}, "group": "control_change"}, {"time": 1604, "annotation": {"number": 64, "value": 127}, "group": "control_change"}, {"time": 1625, "annotation": {"number": 64, "value": 0}, "group": "control_change"}, {"time": 1629, "annotation": {"number": 64, "value": 127}, "group": "control_change"}, {"time": 1649, "annotation": {"number": 64, "value": 0}, "group": "control_change"}, {"time": 1653, "annotation": {"number": 64, "value": 127}, "group": "control_change"}, {"time": 1664, "annotation": {"number": 64, "value": 0}, "group": "control_change"}, {"time": 1677, "annotation": {"number": 64, "value": 127}, "group": "control_change"}, {"time": 1698, "annotation": {"number": 64, "value": 0}, "group": "control_change"}, {"time": 1702, "annotation": {"number": 64, "value": 127}, "group": "control_change"}, {"time": 1721, "annotation": {"number": 64, "value": 0}, "group": "control_change"}, {"time": 1725, "annotation": {"number": 64, "value": 127}, "group": "control_change"}, {"time": 1734, "annotation": {"number": 64, "value": 0}, "group": "control_change"}, {"time": 1738, "annotation": {"number": 64, "value": 127}, "group": "control_change"}, {"time": 1746, "annotation": {"number": 64, "value": 0}, "group": "control_change"}, {"time": 1747, "annotation": {"number": 64, "value": 127}, "group": "control_change"}, {"time": 1770, "annotation": {"number": 64, "value": 0}, "group": "control_change"}, {"time": 1773, "annotation": {"number": 64, "value": 127}, "group": "control_change"}, {"time": 1782, "annotation": {"number": 64, "value": 0}, "group": "control_change"}, {"time": 1788, "annotation": {"number": 64, "value": 127}, "group": "control_change"}, {"time": 1794, "annotation": {"number": 64, "value": 0}, "group": "control_change"}, {"time": 1799, "annotation": {"number": 64, "value": 127}, "group": "control_change"}, {"time": 1818, "annotation": {"number": 64, "value": 0}, "group": "control_change"}, {"time": 1822, "annotation": {"number": 64, "value": 127}, "group": "control_change"}, {"time": 1836, "annotation": {"number": 64, "value": 0}, "group": "control_change"}, {"time": 1836, "annotation": {"number": 64, "value": 127}, "group": "control_change"}, {"time": 1845, "annotation": {"number": 64, "value": 127}, "group": "control_change"}, {"time": 1854, "annotation": {"number": 64, "value": 0}, "group": "control_change"}, {"time": 1858, "annotation": {"number": 64, "value": 127}, "group": "control_change"}, {"time": 1866, "annotation": {"number": 64, "value": 0}, "group": "control_change"}, {"time": 1870, "annotation": {"number": 64, "value": 127}, "group": "control_change"}, {"time": 1888, "annotation": {"number": 64, "value": 0}, "group": "control_change"}, {"time": 1892, "annotation": {"number": 64, "value": 127}, "group": "control_change"}, {"time": 1918, "annotation": {"number": 64, "value": 127}, "group": "control_change"}, {"time": 1923, "annotation": {"number": 64, "value": 0}, "group": "control_change"}, {"time": 1926, "annotation": {"number": 64, "value": 108}, "group": "control_change"}, {"time": 1938, "annotation": {"number": 64, "value": 0}, "group": "control_change"}, {"time": 1942, "annotation": {"number": 64, "value": 127}, "group": "control_change"}, {"time": 1962, "annotation": {"number": 64, "value": 0}, "group": "control_change"}, {"time": 1966, "annotation": {"number": 64, "value": 127}, "group": "control_change"}, {"time": 1980, "annotation": {"number": 64, "value": 0}, "group": "control_change"}, {"time": 1985, "annotation": {"number": 64, "value": 127}, "group": "control_change"}, {"time": 2010, "annotation": {"number": 64, "value": 0}, "group": "control_change"}, {"time": 2011, "annotation": {"number": 64, "value": 127}, "group": "control_change"}, {"time": 2022, "annotation": {"number": 64, "value": 0}, "group": "control_change"}, {"time": 2023, "annotation": {"number": 64, "value": 127}, "group": "control_change"}, {"time": 2034, "annotation": {"number": 64, "value": 0}, "group": "control_change"}, {"time": 2035, "annotation": {"number": 64, "value": 0}, "group": "control_change"}, {"time": 2036, "annotation": {"number": 64, "value": 127}, "group": "control_change"}, {"time": 2059, "annotation": {"number": 64, "value": 0}, "group": "control_change"}, {"time": 2063, "annotation": {"number": 64, "value": 127}, "group": "control_change"}, {"time": 2082, "annotation": {"number": 64, "value": 0}, "group": "control_change"}, {"time": 2085, "annotation": {"number": 64, "value": 127}, "group": "control_change"}, {"time": 2107, "annotation": {"number": 64, "value": 0}, "group": "control_change"}, {"time": 2110, "annotation": {"number": 64, "value": 127}, "group": "control_change"}, {"time": 2130, "annotation": {"number": 64, "value": 0}, "group": "control_change"}, {"time": 2134, "annotation": {"number": 64, "value": 127}, "group": "control_change"}, {"time": 2155, "annotation": {"number": 64, "value": 0}, "group": "control_change"}, {"time": 2158, "annotation": {"number": 64, "value": 127}, "group": "control_change"}, {"time": 2166, "annotation": {"number": 64, "value": 0}, "group": "control_change"}, {"time": 2170, "annotation": {"number": 64, "value": 127}, "group": "control_change"}, {"time": 2178, "annotation": {"number": 64, "value": 0}, "group": "control_change"}, {"time": 2182, "annotation": {"number": 64, "value": 127}, "group": "control_change"}, {"time": 2201, "annotation": {"number": 64, "value": 0}, "group": "control_change"}, {"time": 2205, "annotation": {"number": 64, "value": 127}, "group": "control_change"}, {"time": 2210, "annotation": {"number": 64, "value": 0}, "group": "control_change"}, {"time": 2212, "annotation": {"number": 64, "value": 127}, "group": "control_change"}, {"time": 2217, "annotation": {"number": 64, "value": 0}, "group": "control_change"}, {"time": 2220, "annotation": {"number": 64, "value": 127}, "group": "control_change"}, {"time": 2227, "annotation": {"number": 64, "value": 0}, "group": "control_change"}, {"time": 2230, "annotation": {"number": 64, "value": 127}, "group": "control_change"}, {"time": 2250, "annotation": {"number": 64, "value": 0}, "group": "control_change"}, {"time": 2254, "annotation": {"number": 64, "value": 127}, "group": "control_change"}, {"time": 2274, "annotation": {"number": 64, "value": 0}, "group": "control_change"}, {"time": 2277, "annotation": {"number": 64, "value": 127}, "group": "control_change"}, {"time": 2298, "annotation": {"number": 64, "value": 0}, "group": "control_change"}, {"time": 2301, "annotation": {"number": 64, "value": 127}, "group": "control_change"}, {"time": 2321, "annotation": {"number": 64, "value": 0}, "group": "control_change"}, {"time": 2324, "annotation": {"number": 64, "value": 127}, "group": "control_change"}, {"time": 2345, "annotation": {"number": 64, "value": 0}, "group": "control_change"}, {"time": 2348, "annotation": {"number": 64, "value": 127}, "group": "control_change"}, {"time": 2355, "annotation": {"number": 64, "value": 0}, "group": "control_change"}, {"time": 2355, "annotation": {"number": 64, "value": 127}, "group": "control_change"}, {"time": 2357, "annotation": {"number": 64, "value": 0}, "group": "control_change"}, {"time": 2361, "annotation": {"number": 64, "value": 127}, "group": "control_change"}, {"time": 2371, "annotation": {"number": 64, "value": 0}, "group": "control_change"}, {"time": 2376, "annotation": {"number": 64, "value": 127}, "group": "control_change"}, {"time": 2394, "annotation": {"number": 64, "value": 0}, "group": "control_change"}, {"time": 2397, "annotation": {"number": 64, "value": 127}, "group": "control_change"}, {"time": 2405, "annotation": {"number": 64, "value": 0}, "group": "control_change"}, {"time": 2408, "annotation": {"number": 64, "value": 127}, "group": "control_change"}, {"time": 2418, "annotation": {"number": 64, "value": 0}, "group": "control_change"}, {"time": 2422, "annotation": {"number": 64, "value": 127}, "group": "control_change"}, {"time": 2442, "annotation": {"number": 64, "value": 127}, "group": "control_change"}, {"time": 2452, "annotation": {"number": 64, "value": 0}, "group": "control_change"}, {"time": 2454, "annotation": {"number": 64, "value": 127}, "group": "control_change"}, {"time": 2465, "annotation": {"number": 64, "value": 0}, "group": "control_change"}, {"time": 2467, "annotation": {"number": 64, "value": 127}, "group": "control_change"}, {"time": 2491, "annotation": {"number": 64, "value": 0}, "group": "control_change"}, {"time": 2493, "annotation": {"number": 64, "value": 127}, "group": "control_change"}, {"time": 2514, "annotation": {"number": 64, "value": 0}, "group": "control_change"}, {"time": 2516, "annotation": {"number": 64, "value": 127}, "group": "control_change"}, {"time": 2539, "annotation": {"number": 64, "value": 0}, "group": "control_change"}, {"time": 2541, "annotation": {"number": 64, "value": 127}, "group": "control_change"}, {"time": 2562, "annotation": {"number": 64, "value": 0}, "group": "control_change"}, {"time": 2564, "annotation": {"number": 64, "value": 127}, "group": "control_change"}, {"time": 2586, "annotation": {"number": 64, "value": 0}, "group": "control_change"}, {"time": 2588, "annotation": {"number": 64, "value": 127}, "group": "control_change"}, {"time": 2598, "annotation": {"number": 64, "value": 0}, "group": "control_change"}, {"time": 2600, "annotation": {"number": 64, "value": 127}, "group": "control_change"}, {"time": 2611, "annotation": {"number": 64, "value": 0}, "group": "control_change"}, {"time": 2613, "annotation": {"number": 64, "value": 127}, "group": "control_change"}, {"time": 2633, "annotation": {"number": 64, "value": 0}, "group": "control_change"}, {"time": 2635, "annotation": {"number": 64, "value": 127}, "group": "control_change"}, {"time": 2645, "annotation": {"number": 64, "value": 0}, "group": "control_change"}, {"time": 2647, "annotation": {"number": 64, "value": 127}, "group": "control_change"}, {"time": 2659, "annotation": {"number": 64, "value": 0}, "group": "control_change"}, {"time": 2661, "annotation": {"number": 64, "value": 127}, "group": "control_change"}, {"time": 2683, "annotation": {"number": 64, "value": 0}, "group": "control_change"}, {"time": 2685, "annotation": {"number": 64, "value": 127}, "group": "control_change"}, {"time": 2706, "annotation": {"number": 64, "value": 0}, "group": "control_change"}, {"time": 2708, "annotation": {"number": 64, "value": 127}, "group": "control_change"}, {"time": 2732, "annotation": {"number": 64, "value": 0}, "group": "control_change"}, {"time": 2734, "annotation": {"number": 64, "value": 127}, "group": "control_change"}, {"time": 2755, "annotation": {"number": 64, "value": 0}, "group": "control_change"}, {"time": 2757, "annotation": {"number": 64, "value": 127}, "group": "control_change"}, {"time": 2778, "annotation": {"number": 64, "value": 0}, "group": "control_change"}, {"time": 2780, "annotation": {"number": 64, "value": 127}, "group": "control_change"}, {"time": 2790, "annotation": {"number": 64, "value": 0}, "group": "control_change"}, {"time": 2792, "annotation": {"number": 64, "value": 127}, "group": "control_change"}, {"time": 2803, "annotation": {"number": 64, "value": 0}, "group": "control_change"}, {"time": 2806, "annotation": {"number": 64, "value": 127}, "group": "control_change"}, {"time": 2827, "annotation": {"number": 64, "value": 0}, "group": "control_change"}, {"time": 2829, "annotation": {"number": 64, "value": 127}, "group": "control_change"}, {"time": 2844, "annotation": {"number": 64, "value": 0}, "group": "control_change"}, {"time": 2850, "annotation": {"number": 64, "value": 0}, "group": "control_change"}, {"time": 2853, "annotation": {"number": 64, "value": 127}, "group": "control_change"}, {"time": 2894, "annotation": {"number": 64, "value": 0}, "group": "control_change"}, {"time": 2899, "annotation": {"number": 64, "value": 127}, "group": "control_change"}, {"time": 2920, "annotation": {"number": 64, "value": 0}, "group": "control_change"}, {"time": 2922, "annotation": {"number": 64, "value": 127}, "group": "control_change"}, {"time": 2956, "annotation": {"number": 64, "value": 0}, "group": "control_change"}, {"time": 2958, "annotation": {"number": 64, "value": 127}, "group": "control_change"}, {"time": 3014, "annotation": {"number": 64, "value": 0}, "group": "control_change"}]}]}