{"metadata": {"schema_version": "0.2", "title": "None", "source_filename": "178.mid", "source_format": "midi"}, "resolution": 12, "tempos": [{"time": 0, "qpm": 71.00011951686785}, {"time": 528, "qpm": 70.00007000007}, {"time": 576, "qpm": 71.00011951686785}, {"time": 660, "qpm": 65.99999340000066}, {"time": 672, "qpm": 71.00011951686785}, {"time": 936, "qpm": 70.00007000007}, {"time": 948, "qpm": 68.0000725334107}, {"time": 960, "qpm": 71.00011951686785}, {"time": 1128, "qpm": 68.0000725334107}, {"time": 1140, "qpm": 71.00011951686785}, {"time": 1308, "qpm": 69.00009660013524}, {"time": 1332, "qpm": 71.00011951686785}, {"time": 1524, "qpm": 70.00007000007}, {"time": 1536, "qpm": 71.00011951686785}, {"time": 1572, "qpm": 70.00007000007}, {"time": 1692, "qpm": 72.00011520018433}, {"time": 1716, "qpm": 71.00011951686785}, {"time": 1908, "qpm": 70.00007000007}, {"time": 1944, "qpm": 71.00011951686785}, {"time": 1968, "qpm": 70.00007000007}, {"time": 2064, "qpm": 72.00011520018433}, {"time": 2136, "qpm": 68.0000725334107}, {"time": 2148, "qpm": 72.00011520018433}, {"time": 2160, "qpm": 70.00007000007}, {"time": 2172, "qpm": 72.00011520018433}, {"time": 2184, "qpm": 70.00007000007}, {"time": 2292, "qpm": 73.00007178340392}, {"time": 2304, "qpm": 70.00007000007}, {"time": 2328, "qpm": 71.00011951686785}, {"time": 2340, "qpm": 72.00011520018433}, {"time": 2388, "qpm": 70.00007000007}, {"time": 2412, "qpm": 71.00011951686785}, {"time": 2424, "qpm": 70.00007000007}, {"time": 2448, "qpm": 72.00011520018433}, {"time": 2484, "qpm": 69.00009660013524}, {"time": 2496, "qpm": 72.00011520018433}, {"time": 2508, "qpm": 68.0000725334107}, {"time": 2520, "qpm": 72.00011520018433}, {"time": 2556, "qpm": 70.00007000007}, {"time": 2568, "qpm": 72.00011520018433}, {"time": 2580, "qpm": 68.0000725334107}, {"time": 2592, "qpm": 72.00011520018433}, {"time": 2604, "qpm": 68.0000725334107}, {"time": 2616, "qpm": 72.00011520018433}, {"time": 2628, "qpm": 70.00007000007}, {"time": 2640, "qpm": 72.00011520018433}, {"time": 2664, "qpm": 69.00009660013524}, {"time": 2688, "qpm": 72.00011520018433}, {"time": 2724, "qpm": 69.00009660013524}, {"time": 2736, "qpm": 72.00011520018433}, {"time": 2748, "qpm": 70.00007000007}, {"time": 2760, "qpm": 72.00011520018433}, {"time": 2772, "qpm": 64.99999458333379}, {"time": 2784, "qpm": 72.00011520018433}, {"time": 2832, "qpm": 70.00007000007}, {"time": 2928, "qpm": 73.00007178340392}, {"time": 2940, "qpm": 72.00011520018433}, {"time": 2952, "qpm": 70.00007000007}, {"time": 2976, "qpm": 73.00007178340392}, {"time": 3000, "qpm": 70.00007000007}, {"time": 3060, "qpm": 75.0}, {"time": 3072, "qpm": 70.00007000007}, {"time": 3156, "qpm": 73.00007178340392}, {"time": 3168, "qpm": 70.00007000007}, {"time": 3192, "qpm": 72.00011520018433}, {"time": 3228, "qpm": 73.00007178340392}, {"time": 3240, "qpm": 71.00011951686785}, {"time": 3264, "qpm": 68.0000725334107}, {"time": 3300, "qpm": 75.99996960001216}, {"time": 3312, "qpm": 69.00009660013524}, {"time": 3324, "qpm": 75.99996960001216}, {"time": 3336, "qpm": 69.00009660013524}, {"time": 3396, "qpm": 73.00007178340392}, {"time": 3456, "qpm": 69.00009660013524}, {"time": 3492, "qpm": 71.00011951686785}, {"time": 3504, "qpm": 67.00002903334591}, {"time": 3516, "qpm": 73.99998273333736}, {"time": 3528, "qpm": 72.00011520018433}, {"time": 3576, "qpm": 67.00002903334591}], "time_signatures": [{"time": 0, "numerator": 4, "denominator": 4}], "tracks": [{"program": 0, "is_drum": false, "name": "MELODY", "notes": [{"time": 525, "pitch": 62, "duration": 6, "velocity": 70}, {"time": 531, "pitch": 64, "duration": 6, "velocity": 64}, {"time": 537, "pitch": 67, "duration": 6, "velocity": 57}, {"time": 543, "pitch": 67, "duration": 6, "velocity": 59}, {"time": 549, "pitch": 67, "duration": 6, "velocity": 72}, {"time": 555, "pitch": 64, "duration": 3, "velocity": 63}, {"time": 558, "pitch": 69, "duration": 15, "velocity": 48}, {"time": 573, "pitch": 64, "duration": 6, "velocity": 66}, {"time": 579, "pitch": 62, "duration": 6, "velocity": 64}, {"time": 585, "pitch": 71, "duration": 6, "velocity": 66}, {"time": 591, "pitch": 71, "duration": 6, "velocity": 64}, {"time": 597, "pitch": 69, "duration": 6, "velocity": 62}, {"time": 603, "pitch": 69, "duration": 3, "velocity": 72}, {"time": 606, "pitch": 67, "duration": 21, "velocity": 56}, {"time": 627, "pitch": 62, "duration": 6, "velocity": 59}, {"time": 633, "pitch": 74, "duration": 6, "velocity": 67}, {"time": 639, "pitch": 74, "duration": 6, "velocity": 91}, {"time": 645, "pitch": 74, "duration": 6, "velocity": 82}, {"time": 651, "pitch": 71, "duration": 6, "velocity": 82}, {"time": 657, "pitch": 76, "duration": 12, "velocity": 76}, {"time": 669, "pitch": 74, "duration": 9, "velocity": 75}, {"time": 678, "pitch": 76, "duration": 3, "velocity": 85}, {"time": 681, "pitch": 74, "duration": 6, "velocity": 88}, {"time": 687, "pitch": 71, "duration": 30, "velocity": 91}, {"time": 717, "pitch": 64, "duration": 6, "velocity": 73}, {"time": 723, "pitch": 67, "duration": 6, "velocity": 69}, {"time": 729, "pitch": 69, "duration": 6, "velocity": 70}, {"time": 735, "pitch": 69, "duration": 6, "velocity": 80}, {"time": 741, "pitch": 67, "duration": 6, "velocity": 76}, {"time": 747, "pitch": 69, "duration": 18, "velocity": 88}, {"time": 765, "pitch": 69, "duration": 6, "velocity": 85}, {"time": 771, "pitch": 67, "duration": 6, "velocity": 53}, {"time": 777, "pitch": 71, "duration": 6, "velocity": 60}, {"time": 783, "pitch": 69, "duration": 6, "velocity": 82}, {"time": 789, "pitch": 67, "duration": 6, "velocity": 69}, {"time": 795, "pitch": 67, "duration": 3, "velocity": 72}, {"time": 798, "pitch": 64, "duration": 21, "velocity": 72}, {"time": 819, "pitch": 62, "duration": 6, "velocity": 88}, {"time": 825, "pitch": 74, "duration": 6, "velocity": 60}, {"time": 831, "pitch": 71, "duration": 24, "velocity": 69}, {"time": 855, "pitch": 71, "duration": 6, "velocity": 69}, {"time": 861, "pitch": 71, "duration": 12, "velocity": 64}, {"time": 873, "pitch": 71, "duration": 6, "velocity": 75}, {"time": 879, "pitch": 69, "duration": 30, "velocity": 80}, {"time": 909, "pitch": 62, "duration": 6, "velocity": 70}, {"time": 915, "pitch": 64, "duration": 6, "velocity": 64}, {"time": 921, "pitch": 67, "duration": 6, "velocity": 57}, {"time": 927, "pitch": 67, "duration": 6, "velocity": 59}, {"time": 933, "pitch": 67, "duration": 6, "velocity": 72}, {"time": 939, "pitch": 64, "duration": 3, "velocity": 63}, {"time": 942, "pitch": 69, "duration": 15, "velocity": 48}, {"time": 957, "pitch": 64, "duration": 6, "velocity": 66}, {"time": 963, "pitch": 62, "duration": 6, "velocity": 64}, {"time": 969, "pitch": 71, "duration": 6, "velocity": 66}, {"time": 975, "pitch": 71, "duration": 6, "velocity": 64}, {"time": 981, "pitch": 69, "duration": 6, "velocity": 62}, {"time": 987, "pitch": 69, "duration": 3, "velocity": 72}, {"time": 990, "pitch": 67, "duration": 21, "velocity": 56}, {"time": 1011, "pitch": 62, "duration": 6, "velocity": 59}, {"time": 1017, "pitch": 74, "duration": 6, "velocity": 67}, {"time": 1023, "pitch": 74, "duration": 6, "velocity": 91}, {"time": 1029, "pitch": 74, "duration": 6, "velocity": 82}, {"time": 1035, "pitch": 71, "duration": 6, "velocity": 82}, {"time": 1041, "pitch": 76, "duration": 12, "velocity": 76}, {"time": 1053, "pitch": 74, "duration": 9, "velocity": 75}, {"time": 1062, "pitch": 76, "duration": 3, "velocity": 85}, {"time": 1065, "pitch": 74, "duration": 6, "velocity": 88}, {"time": 1071, "pitch": 71, "duration": 30, "velocity": 91}, {"time": 1101, "pitch": 64, "duration": 6, "velocity": 73}, {"time": 1107, "pitch": 67, "duration": 6, "velocity": 69}, {"time": 1113, "pitch": 69, "duration": 6, "velocity": 70}, {"time": 1119, "pitch": 69, "duration": 6, "velocity": 80}, {"time": 1125, "pitch": 67, "duration": 6, "velocity": 76}, {"time": 1131, "pitch": 69, "duration": 18, "velocity": 88}, {"time": 1149, "pitch": 69, "duration": 6, "velocity": 85}, {"time": 1155, "pitch": 67, "duration": 6, "velocity": 53}, {"time": 1161, "pitch": 71, "duration": 6, "velocity": 60}, {"time": 1167, "pitch": 69, "duration": 6, "velocity": 82}, {"time": 1173, "pitch": 67, "duration": 6, "velocity": 69}, {"time": 1179, "pitch": 67, "duration": 3, "velocity": 72}, {"time": 1182, "pitch": 64, "duration": 21, "velocity": 72}, {"time": 1203, "pitch": 62, "duration": 6, "velocity": 88}, {"time": 1209, "pitch": 74, "duration": 6, "velocity": 60}, {"time": 1215, "pitch": 71, "duration": 24, "velocity": 69}, {"time": 1239, "pitch": 69, "duration": 6, "velocity": 97}, {"time": 1245, "pitch": 67, "duration": 6, "velocity": 93}, {"time": 1251, "pitch": 64, "duration": 6, "velocity": 88}, {"time": 1257, "pitch": 67, "duration": 36, "velocity": 99}, {"time": 1293, "pitch": 67, "duration": 6, "velocity": 103}, {"time": 1299, "pitch": 69, "duration": 6, "velocity": 99}, {"time": 1305, "pitch": 71, "duration": 36, "velocity": 106}, {"time": 1341, "pitch": 69, "duration": 6, "velocity": 101}, {"time": 1347, "pitch": 67, "duration": 6, "velocity": 95}, {"time": 1353, "pitch": 69, "duration": 6, "velocity": 103}, {"time": 1359, "pitch": 64, "duration": 30, "velocity": 99}, {"time": 1389, "pitch": 67, "duration": 6, "velocity": 91}, {"time": 1395, "pitch": 69, "duration": 6, "velocity": 91}, {"time": 1401, "pitch": 71, "duration": 12, "velocity": 101}, {"time": 1413, "pitch": 71, "duration": 9, "velocity": 99}, {"time": 1422, "pitch": 74, "duration": 3, "velocity": 101}, {"time": 1425, "pitch": 76, "duration": 6, "velocity": 99}, {"time": 1431, "pitch": 76, "duration": 6, "velocity": 101}, {"time": 1437, "pitch": 74, "duration": 6, "velocity": 93}, {"time": 1443, "pitch": 71, "duration": 6, "velocity": 101}, {"time": 1449, "pitch": 74, "duration": 36, "velocity": 109}, {"time": 1485, "pitch": 74, "duration": 6, "velocity": 103}, {"time": 1491, "pitch": 71, "duration": 6, "velocity": 93}, {"time": 1497, "pitch": 76, "duration": 6, "velocity": 109}, {"time": 1503, "pitch": 74, "duration": 6, "velocity": 106}, {"time": 1509, "pitch": 69, "duration": 6, "velocity": 101}, {"time": 1515, "pitch": 71, "duration": 18, "velocity": 101}, {"time": 1533, "pitch": 69, "duration": 6, "velocity": 93}, {"time": 1539, "pitch": 67, "duration": 6, "velocity": 93}, {"time": 1545, "pitch": 71, "duration": 6, "velocity": 91}, {"time": 1551, "pitch": 69, "duration": 6, "velocity": 97}, {"time": 1557, "pitch": 67, "duration": 6, "velocity": 91}, {"time": 1563, "pitch": 64, "duration": 24, "velocity": 95}, {"time": 1587, "pitch": 62, "duration": 6, "velocity": 82}, {"time": 1593, "pitch": 74, "duration": 6, "velocity": 80}, {"time": 1599, "pitch": 71, "duration": 24, "velocity": 88}, {"time": 1623, "pitch": 71, "duration": 6, "velocity": 66}, {"time": 1629, "pitch": 69, "duration": 12, "velocity": 91}, {"time": 1641, "pitch": 69, "duration": 6, "velocity": 88}, {"time": 1647, "pitch": 67, "duration": 42, "velocity": 95}, {"time": 1677, "pitch": 62, "duration": 6, "velocity": 70}, {"time": 1683, "pitch": 64, "duration": 6, "velocity": 64}, {"time": 1689, "pitch": 67, "duration": 6, "velocity": 57}, {"time": 1695, "pitch": 67, "duration": 6, "velocity": 59}, {"time": 1701, "pitch": 67, "duration": 6, "velocity": 72}, {"time": 1707, "pitch": 64, "duration": 3, "velocity": 63}, {"time": 1710, "pitch": 69, "duration": 15, "velocity": 48}, {"time": 1725, "pitch": 64, "duration": 6, "velocity": 66}, {"time": 1731, "pitch": 62, "duration": 6, "velocity": 64}, {"time": 1737, "pitch": 71, "duration": 6, "velocity": 66}, {"time": 1743, "pitch": 71, "duration": 6, "velocity": 64}, {"time": 1749, "pitch": 69, "duration": 6, "velocity": 62}, {"time": 1755, "pitch": 69, "duration": 3, "velocity": 72}, {"time": 1758, "pitch": 67, "duration": 21, "velocity": 56}, {"time": 1779, "pitch": 62, "duration": 6, "velocity": 59}, {"time": 1785, "pitch": 74, "duration": 6, "velocity": 67}, {"time": 1791, "pitch": 74, "duration": 6, "velocity": 91}, {"time": 1797, "pitch": 74, "duration": 6, "velocity": 82}, {"time": 1803, "pitch": 71, "duration": 6, "velocity": 82}, {"time": 1809, "pitch": 76, "duration": 12, "velocity": 76}, {"time": 1821, "pitch": 74, "duration": 9, "velocity": 75}, {"time": 1830, "pitch": 76, "duration": 3, "velocity": 85}, {"time": 1833, "pitch": 74, "duration": 6, "velocity": 88}, {"time": 1839, "pitch": 71, "duration": 30, "velocity": 91}, {"time": 1869, "pitch": 64, "duration": 6, "velocity": 73}, {"time": 1875, "pitch": 67, "duration": 6, "velocity": 69}, {"time": 1881, "pitch": 69, "duration": 6, "velocity": 70}, {"time": 1887, "pitch": 69, "duration": 6, "velocity": 80}, {"time": 1893, "pitch": 67, "duration": 6, "velocity": 76}, {"time": 1899, "pitch": 69, "duration": 18, "velocity": 88}, {"time": 1917, "pitch": 69, "duration": 6, "velocity": 85}, {"time": 1923, "pitch": 67, "duration": 6, "velocity": 53}, {"time": 1929, "pitch": 71, "duration": 6, "velocity": 60}, {"time": 1935, "pitch": 69, "duration": 6, "velocity": 82}, {"time": 1941, "pitch": 67, "duration": 6, "velocity": 69}, {"time": 1947, "pitch": 67, "duration": 3, "velocity": 72}, {"time": 1950, "pitch": 64, "duration": 21, "velocity": 72}, {"time": 1971, "pitch": 62, "duration": 6, "velocity": 88}, {"time": 1977, "pitch": 74, "duration": 6, "velocity": 60}, {"time": 1983, "pitch": 71, "duration": 24, "velocity": 69}, {"time": 2007, "pitch": 69, "duration": 6, "velocity": 97}, {"time": 2013, "pitch": 67, "duration": 6, "velocity": 93}, {"time": 2019, "pitch": 64, "duration": 6, "velocity": 88}, {"time": 2025, "pitch": 67, "duration": 36, "velocity": 99}, {"time": 2445, "pitch": 67, "duration": 6, "velocity": 103}, {"time": 2451, "pitch": 69, "duration": 6, "velocity": 99}, {"time": 2457, "pitch": 71, "duration": 36, "velocity": 106}, {"time": 2493, "pitch": 69, "duration": 6, "velocity": 101}, {"time": 2499, "pitch": 67, "duration": 6, "velocity": 95}, {"time": 2505, "pitch": 69, "duration": 6, "velocity": 103}, {"time": 2511, "pitch": 64, "duration": 30, "velocity": 99}, {"time": 2541, "pitch": 67, "duration": 6, "velocity": 91}, {"time": 2547, "pitch": 69, "duration": 6, "velocity": 91}, {"time": 2553, "pitch": 71, "duration": 12, "velocity": 101}, {"time": 2565, "pitch": 71, "duration": 9, "velocity": 99}, {"time": 2574, "pitch": 74, "duration": 3, "velocity": 101}, {"time": 2577, "pitch": 76, "duration": 6, "velocity": 99}, {"time": 2583, "pitch": 76, "duration": 6, "velocity": 101}, {"time": 2589, "pitch": 74, "duration": 6, "velocity": 93}, {"time": 2595, "pitch": 71, "duration": 6, "velocity": 101}, {"time": 2601, "pitch": 74, "duration": 36, "velocity": 109}, {"time": 2637, "pitch": 74, "duration": 6, "velocity": 103}, {"time": 2643, "pitch": 71, "duration": 6, "velocity": 93}, {"time": 2649, "pitch": 76, "duration": 6, "velocity": 109}, {"time": 2655, "pitch": 74, "duration": 6, "velocity": 106}, {"time": 2661, "pitch": 69, "duration": 6, "velocity": 101}, {"time": 2667, "pitch": 71, "duration": 18, "velocity": 101}, {"time": 2685, "pitch": 69, "duration": 6, "velocity": 93}, {"time": 2691, "pitch": 67, "duration": 6, "velocity": 93}, {"time": 2697, "pitch": 71, "duration": 6, "velocity": 91}, {"time": 2703, "pitch": 69, "duration": 6, "velocity": 97}, {"time": 2709, "pitch": 67, "duration": 6, "velocity": 91}, {"time": 2715, "pitch": 64, "duration": 24, "velocity": 95}, {"time": 2739, "pitch": 62, "duration": 6, "velocity": 82}, {"time": 2745, "pitch": 74, "duration": 6, "velocity": 80}, {"time": 2751, "pitch": 71, "duration": 24, "velocity": 88}, {"time": 2775, "pitch": 71, "duration": 6, "velocity": 66}, {"time": 2781, "pitch": 69, "duration": 12, "velocity": 91}, {"time": 2793, "pitch": 69, "duration": 6, "velocity": 88}, {"time": 2799, "pitch": 67, "duration": 30, "velocity": 95}, {"time": 2829, "pitch": 63, "duration": 8, "velocity": 56}, {"time": 2835, "pitch": 65, "duration": 8, "velocity": 56}, {"time": 2841, "pitch": 68, "duration": 6, "velocity": 57}, {"time": 2847, "pitch": 68, "duration": 6, "velocity": 59}, {"time": 2853, "pitch": 68, "duration": 6, "velocity": 72}, {"time": 2859, "pitch": 65, "duration": 3, "velocity": 63}, {"time": 2862, "pitch": 70, "duration": 15, "velocity": 48}, {"time": 2877, "pitch": 65, "duration": 6, "velocity": 66}, {"time": 2883, "pitch": 63, "duration": 6, "velocity": 64}, {"time": 2889, "pitch": 72, "duration": 6, "velocity": 66}, {"time": 2895, "pitch": 72, "duration": 6, "velocity": 64}, {"time": 2901, "pitch": 70, "duration": 6, "velocity": 62}, {"time": 2907, "pitch": 70, "duration": 3, "velocity": 72}, {"time": 2910, "pitch": 68, "duration": 21, "velocity": 56}, {"time": 2931, "pitch": 63, "duration": 6, "velocity": 59}, {"time": 2937, "pitch": 75, "duration": 6, "velocity": 67}, {"time": 2943, "pitch": 75, "duration": 6, "velocity": 91}, {"time": 2949, "pitch": 75, "duration": 6, "velocity": 82}, {"time": 2955, "pitch": 72, "duration": 6, "velocity": 82}, {"time": 2961, "pitch": 77, "duration": 12, "velocity": 76}, {"time": 2973, "pitch": 75, "duration": 9, "velocity": 75}, {"time": 2982, "pitch": 77, "duration": 3, "velocity": 85}, {"time": 2985, "pitch": 75, "duration": 6, "velocity": 88}, {"time": 2991, "pitch": 72, "duration": 30, "velocity": 91}, {"time": 3021, "pitch": 65, "duration": 6, "velocity": 73}, {"time": 3027, "pitch": 68, "duration": 6, "velocity": 69}, {"time": 3033, "pitch": 70, "duration": 6, "velocity": 70}, {"time": 3039, "pitch": 70, "duration": 6, "velocity": 80}, {"time": 3045, "pitch": 68, "duration": 6, "velocity": 76}, {"time": 3051, "pitch": 70, "duration": 18, "velocity": 88}, {"time": 3069, "pitch": 70, "duration": 6, "velocity": 85}, {"time": 3075, "pitch": 68, "duration": 6, "velocity": 53}, {"time": 3081, "pitch": 72, "duration": 6, "velocity": 60}, {"time": 3087, "pitch": 70, "duration": 6, "velocity": 82}, {"time": 3093, "pitch": 68, "duration": 6, "velocity": 69}, {"time": 3099, "pitch": 68, "duration": 3, "velocity": 72}, {"time": 3102, "pitch": 65, "duration": 21, "velocity": 72}, {"time": 3123, "pitch": 63, "duration": 6, "velocity": 88}, {"time": 3129, "pitch": 75, "duration": 6, "velocity": 60}, {"time": 3135, "pitch": 72, "duration": 24, "velocity": 69}, {"time": 3159, "pitch": 72, "duration": 6, "velocity": 97}, {"time": 3165, "pitch": 72, "duration": 6, "velocity": 93}, {"time": 3171, "pitch": 72, "duration": 6, "velocity": 88}, {"time": 3177, "pitch": 70, "duration": 36, "velocity": 99}, {"time": 3213, "pitch": 63, "duration": 8, "velocity": 56}, {"time": 3219, "pitch": 65, "duration": 8, "velocity": 56}, {"time": 3225, "pitch": 68, "duration": 6, "velocity": 57}, {"time": 3231, "pitch": 68, "duration": 6, "velocity": 59}, {"time": 3237, "pitch": 68, "duration": 6, "velocity": 72}, {"time": 3243, "pitch": 65, "duration": 3, "velocity": 63}, {"time": 3246, "pitch": 70, "duration": 15, "velocity": 48}, {"time": 3261, "pitch": 65, "duration": 6, "velocity": 66}, {"time": 3267, "pitch": 63, "duration": 6, "velocity": 64}, {"time": 3273, "pitch": 72, "duration": 6, "velocity": 66}, {"time": 3279, "pitch": 72, "duration": 6, "velocity": 64}, {"time": 3285, "pitch": 70, "duration": 6, "velocity": 62}, {"time": 3291, "pitch": 70, "duration": 3, "velocity": 72}, {"time": 3294, "pitch": 68, "duration": 21, "velocity": 56}, {"time": 3315, "pitch": 63, "duration": 6, "velocity": 59}, {"time": 3321, "pitch": 75, "duration": 6, "velocity": 67}, {"time": 3327, "pitch": 75, "duration": 6, "velocity": 91}, {"time": 3333, "pitch": 75, "duration": 6, "velocity": 82}, {"time": 3339, "pitch": 72, "duration": 6, "velocity": 82}, {"time": 3345, "pitch": 77, "duration": 12, "velocity": 76}, {"time": 3357, "pitch": 75, "duration": 9, "velocity": 75}, {"time": 3366, "pitch": 77, "duration": 3, "velocity": 85}, {"time": 3369, "pitch": 75, "duration": 6, "velocity": 88}, {"time": 3375, "pitch": 72, "duration": 30, "velocity": 91}, {"time": 3405, "pitch": 65, "duration": 6, "velocity": 73}, {"time": 3411, "pitch": 68, "duration": 6, "velocity": 69}, {"time": 3417, "pitch": 70, "duration": 6, "velocity": 70}, {"time": 3423, "pitch": 70, "duration": 6, "velocity": 80}, {"time": 3429, "pitch": 68, "duration": 6, "velocity": 76}, {"time": 3435, "pitch": 70, "duration": 18, "velocity": 88}, {"time": 3453, "pitch": 70, "duration": 6, "velocity": 85}, {"time": 3459, "pitch": 68, "duration": 6, "velocity": 53}, {"time": 3465, "pitch": 72, "duration": 6, "velocity": 60}, {"time": 3471, "pitch": 70, "duration": 6, "velocity": 82}, {"time": 3477, "pitch": 68, "duration": 6, "velocity": 69}, {"time": 3483, "pitch": 68, "duration": 3, "velocity": 72}, {"time": 3486, "pitch": 65, "duration": 21, "velocity": 72}, {"time": 3507, "pitch": 63, "duration": 6, "velocity": 88}, {"time": 3513, "pitch": 75, "duration": 6, "velocity": 60}, {"time": 3519, "pitch": 72, "duration": 24, "velocity": 69}, {"time": 3543, "pitch": 70, "duration": 6, "velocity": 97}, {"time": 3549, "pitch": 68, "duration": 6, "velocity": 93}, {"time": 3555, "pitch": 65, "duration": 6, "velocity": 88}, {"time": 3561, "pitch": 68, "duration": 36, "velocity": 99}]}, {"program": 0, "is_drum": false, "name": "PIANO", "notes": [{"time": 9, "pitch": 43, "duration": 91, "velocity": 46}, {"time": 9, "pitch": 55, "duration": 21, "velocity": 51}, {"time": 12, "pitch": 67, "duration": 2, "velocity": 41}, {"time": 15, "pitch": 74, "duration": 3, "velocity": 48}, {"time": 18, "pitch": 79, "duration": 9, "velocity": 57}, {"time": 24, "pitch": 67, "duration": 3, "velocity": 42}, {"time": 27, "pitch": 74, "duration": 3, "velocity": 51}, {"time": 30, "pitch": 79, "duration": 7, "velocity": 66}, {"time": 33, "pitch": 55, "duration": 9, "velocity": 48}, {"time": 36, "pitch": 67, "duration": 2, "velocity": 39}, {"time": 39, "pitch": 74, "duration": 4, "velocity": 40}, {"time": 42, "pitch": 79, "duration": 7, "velocity": 63}, {"time": 45, "pitch": 55, "duration": 9, "velocity": 46}, {"time": 48, "pitch": 67, "duration": 4, "velocity": 58}, {"time": 51, "pitch": 74, "duration": 3, "velocity": 63}, {"time": 54, "pitch": 79, "duration": 9, "velocity": 69}, {"time": 57, "pitch": 55, "duration": 10, "velocity": 61}, {"time": 60, "pitch": 67, "duration": 4, "velocity": 42}, {"time": 63, "pitch": 74, "duration": 4, "velocity": 41}, {"time": 66, "pitch": 79, "duration": 7, "velocity": 62}, {"time": 69, "pitch": 55, "duration": 9, "velocity": 47}, {"time": 72, "pitch": 67, "duration": 3, "velocity": 43}, {"time": 75, "pitch": 74, "duration": 3, "velocity": 44}, {"time": 78, "pitch": 79, "duration": 7, "velocity": 63}, {"time": 81, "pitch": 55, "duration": 8, "velocity": 46}, {"time": 84, "pitch": 67, "duration": 3, "velocity": 48}, {"time": 87, "pitch": 74, "duration": 3, "velocity": 57}, {"time": 90, "pitch": 67, "duration": 1, "velocity": 28}, {"time": 90, "pitch": 79, "duration": 7, "velocity": 73}, {"time": 93, "pitch": 55, "duration": 7, "velocity": 91}, {"time": 96, "pitch": 67, "duration": 4, "velocity": 60}, {"time": 99, "pitch": 74, "duration": 3, "velocity": 66}, {"time": 102, "pitch": 79, "duration": 2, "velocity": 76}, {"time": 105, "pitch": 41, "duration": 37, "velocity": 63}, {"time": 105, "pitch": 53, "duration": 22, "velocity": 51}, {"time": 105, "pitch": 57, "duration": 9, "velocity": 59}, {"time": 105, "pitch": 60, "duration": 3, "velocity": 75}, {"time": 105, "pitch": 65, "duration": 4, "velocity": 75}, {"time": 111, "pitch": 60, "duration": 4, "velocity": 53}, {"time": 114, "pitch": 65, "duration": 4, "velocity": 73}, {"time": 117, "pitch": 57, "duration": 3, "velocity": 50}, {"time": 120, "pitch": 60, "duration": 1, "velocity": 40}, {"time": 123, "pitch": 69, "duration": 2, "velocity": 54}, {"time": 126, "pitch": 60, "duration": 2, "velocity": 38}, {"time": 129, "pitch": 65, "duration": 3, "velocity": 58}, {"time": 132, "pitch": 69, "duration": 2, "velocity": 69}, {"time": 135, "pitch": 60, "duration": 3, "velocity": 52}, {"time": 138, "pitch": 65, "duration": 3, "velocity": 60}, {"time": 141, "pitch": 53, "duration": 3, "velocity": 44}, {"time": 141, "pitch": 69, "duration": 2, "velocity": 63}, {"time": 144, "pitch": 60, "duration": 3, "velocity": 51}, {"time": 147, "pitch": 65, "duration": 4, "velocity": 59}, {"time": 150, "pitch": 69, "duration": 3, "velocity": 51}, {"time": 153, "pitch": 43, "duration": 31, "velocity": 59}, {"time": 153, "pitch": 55, "duration": 7, "velocity": 48}, {"time": 153, "pitch": 71, "duration": 4, "velocity": 57}, {"time": 156, "pitch": 62, "duration": 4, "velocity": 49}, {"time": 159, "pitch": 67, "duration": 3, "velocity": 52}, {"time": 162, "pitch": 55, "duration": 14, "velocity": 59}, {"time": 162, "pitch": 71, "duration": 4, "velocity": 72}, {"time": 165, "pitch": 62, "duration": 4, "velocity": 44}, {"time": 168, "pitch": 67, "duration": 3, "velocity": 47}, {"time": 171, "pitch": 71, "duration": 4, "velocity": 73}, {"time": 174, "pitch": 62, "duration": 4, "velocity": 44}, {"time": 177, "pitch": 50, "duration": 18, "velocity": 64}, {"time": 177, "pitch": 67, "duration": 3, "velocity": 61}, {"time": 180, "pitch": 69, "duration": 3, "velocity": 56}, {"time": 183, "pitch": 62, "duration": 4, "velocity": 44}, {"time": 186, "pitch": 67, "duration": 3, "velocity": 61}, {"time": 189, "pitch": 71, "duration": 3, "velocity": 69}, {"time": 192, "pitch": 62, "duration": 3, "velocity": 57}, {"time": 195, "pitch": 55, "duration": 2, "velocity": 53}, {"time": 195, "pitch": 67, "duration": 3, "velocity": 63}, {"time": 198, "pitch": 71, "duration": 2, "velocity": 62}, {"time": 201, "pitch": 53, "duration": 36, "velocity": 63}, {"time": 201, "pitch": 69, "duration": 4, "velocity": 56}, {"time": 204, "pitch": 60, "duration": 4, "velocity": 51}, {"time": 207, "pitch": 65, "duration": 3, "velocity": 57}, {"time": 210, "pitch": 67, "duration": 2, "velocity": 66}, {"time": 213, "pitch": 60, "duration": 3, "velocity": 50}, {"time": 216, "pitch": 65, "duration": 2, "velocity": 52}, {"time": 219, "pitch": 69, "duration": 3, "velocity": 66}, {"time": 222, "pitch": 60, "duration": 3, "velocity": 43}, {"time": 225, "pitch": 67, "duration": 2, "velocity": 56}, {"time": 228, "pitch": 41, "duration": 13, "velocity": 57}, {"time": 228, "pitch": 60, "duration": 2, "velocity": 47}, {"time": 231, "pitch": 65, "duration": 2, "velocity": 58}, {"time": 234, "pitch": 67, "duration": 2, "velocity": 51}, {"time": 237, "pitch": 69, "duration": 2, "velocity": 72}, {"time": 240, "pitch": 53, "duration": 3, "velocity": 39}, {"time": 240, "pitch": 60, "duration": 2, "velocity": 53}, {"time": 243, "pitch": 67, "duration": 3, "velocity": 50}, {"time": 246, "pitch": 69, "duration": 3, "velocity": 66}, {"time": 249, "pitch": 43, "duration": 43, "velocity": 52}, {"time": 249, "pitch": 55, "duration": 35, "velocity": 56}, {"time": 249, "pitch": 71, "duration": 4, "velocity": 67}, {"time": 252, "pitch": 62, "duration": 2, "velocity": 46}, {"time": 255, "pitch": 67, "duration": 3, "velocity": 59}, {"time": 258, "pitch": 69, "duration": 2, "velocity": 66}, {"time": 261, "pitch": 62, "duration": 4, "velocity": 51}, {"time": 264, "pitch": 67, "duration": 3, "velocity": 59}, {"time": 267, "pitch": 71, "duration": 3, "velocity": 72}, {"time": 270, "pitch": 62, "duration": 4, "velocity": 44}, {"time": 273, "pitch": 67, "duration": 4, "velocity": 62}, {"time": 276, "pitch": 74, "duration": 8, "velocity": 72}, {"time": 279, "pitch": 62, "duration": 3, "velocity": 37}, {"time": 282, "pitch": 67, "duration": 3, "velocity": 49}, {"time": 285, "pitch": 71, "duration": 3, "velocity": 72}, {"time": 288, "pitch": 62, "duration": 4, "velocity": 47}, {"time": 291, "pitch": 67, "duration": 4, "velocity": 62}, {"time": 294, "pitch": 69, "duration": 2, "velocity": 59}, {"time": 297, "pitch": 40, "duration": 41, "velocity": 70}, {"time": 297, "pitch": 52, "duration": 20, "velocity": 47}, {"time": 297, "pitch": 71, "duration": 3, "velocity": 61}, {"time": 300, "pitch": 64, "duration": 4, "velocity": 49}, {"time": 303, "pitch": 67, "duration": 3, "velocity": 62}, {"time": 306, "pitch": 71, "duration": 2, "velocity": 52}, {"time": 309, "pitch": 64, "duration": 4, "velocity": 50}, {"time": 312, "pitch": 67, "duration": 3, "velocity": 58}, {"time": 315, "pitch": 71, "duration": 2, "velocity": 44}, {"time": 318, "pitch": 64, "duration": 4, "velocity": 55}, {"time": 321, "pitch": 67, "duration": 3, "velocity": 63}, {"time": 324, "pitch": 71, "duration": 2, "velocity": 61}, {"time": 327, "pitch": 64, "duration": 3, "velocity": 49}, {"time": 330, "pitch": 67, "duration": 3, "velocity": 60}, {"time": 333, "pitch": 52, "duration": 4, "velocity": 61}, {"time": 333, "pitch": 71, "duration": 3, "velocity": 57}, {"time": 336, "pitch": 64, "duration": 3, "velocity": 56}, {"time": 339, "pitch": 67, "duration": 3, "velocity": 67}, {"time": 342, "pitch": 69, "duration": 3, "velocity": 57}, {"time": 345, "pitch": 38, "duration": 43, "velocity": 56}, {"time": 345, "pitch": 50, "duration": 33, "velocity": 62}, {"time": 345, "pitch": 71, "duration": 3, "velocity": 53}, {"time": 348, "pitch": 62, "duration": 5, "velocity": 49}, {"time": 351, "pitch": 66, "duration": 3, "velocity": 66}, {"time": 354, "pitch": 69, "duration": 2, "velocity": 57}, {"time": 357, "pitch": 62, "duration": 4, "velocity": 45}, {"time": 360, "pitch": 66, "duration": 4, "velocity": 59}, {"time": 363, "pitch": 74, "duration": 4, "velocity": 62}, {"time": 366, "pitch": 62, "duration": 4, "velocity": 46}, {"time": 369, "pitch": 66, "duration": 4, "velocity": 60}, {"time": 372, "pitch": 69, "duration": 3, "velocity": 57}, {"time": 375, "pitch": 62, "duration": 5, "velocity": 45}, {"time": 378, "pitch": 66, "duration": 4, "velocity": 61}, {"time": 381, "pitch": 74, "duration": 4, "velocity": 66}, {"time": 384, "pitch": 50, "duration": 3, "velocity": 47}, {"time": 384, "pitch": 62, "duration": 4, "velocity": 54}, {"time": 387, "pitch": 66, "duration": 3, "velocity": 62}, {"time": 390, "pitch": 69, "duration": 3, "velocity": 58}, {"time": 393, "pitch": 40, "duration": 39, "velocity": 64}, {"time": 393, "pitch": 52, "duration": 35, "velocity": 64}, {"time": 393, "pitch": 67, "duration": 2, "velocity": 62}, {"time": 393, "pitch": 71, "duration": 3, "velocity": 63}, {"time": 396, "pitch": 64, "duration": 4, "velocity": 45}, {"time": 399, "pitch": 67, "duration": 4, "velocity": 55}, {"time": 402, "pitch": 71, "duration": 3, "velocity": 62}, {"time": 405, "pitch": 64, "duration": 3, "velocity": 47}, {"time": 408, "pitch": 67, "duration": 3, "velocity": 63}, {"time": 411, "pitch": 71, "duration": 2, "velocity": 63}, {"time": 414, "pitch": 64, "duration": 3, "velocity": 55}, {"time": 417, "pitch": 67, "duration": 2, "velocity": 66}, {"time": 417, "pitch": 74, "duration": 2, "velocity": 56}, {"time": 420, "pitch": 64, "duration": 3, "velocity": 49}, {"time": 423, "pitch": 67, "duration": 4, "velocity": 61}, {"time": 426, "pitch": 76, "duration": 3, "velocity": 56}, {"time": 429, "pitch": 64, "duration": 3, "velocity": 40}, {"time": 432, "pitch": 67, "duration": 3, "velocity": 62}, {"time": 438, "pitch": 64, "duration": 3, "velocity": 52}, {"time": 441, "pitch": 38, "duration": 6, "velocity": 57}, {"time": 441, "pitch": 50, "duration": 6, "velocity": 58}, {"time": 441, "pitch": 74, "duration": 2, "velocity": 67}, {"time": 444, "pitch": 62, "duration": 4, "velocity": 44}, {"time": 447, "pitch": 67, "duration": 2, "velocity": 56}, {"time": 450, "pitch": 69, "duration": 2, "velocity": 46}, {"time": 453, "pitch": 62, "duration": 3, "velocity": 44}, {"time": 456, "pitch": 67, "duration": 2, "velocity": 48}, {"time": 459, "pitch": 74, "duration": 4, "velocity": 51}, {"time": 462, "pitch": 62, "duration": 4, "velocity": 43}, {"time": 465, "pitch": 67, "duration": 3, "velocity": 53}, {"time": 468, "pitch": 69, "duration": 3, "velocity": 32}, {"time": 471, "pitch": 62, "duration": 4, "velocity": 37}, {"time": 474, "pitch": 67, "duration": 3, "velocity": 49}, {"time": 477, "pitch": 69, "duration": 4, "velocity": 47}, {"time": 480, "pitch": 62, "duration": 4, "velocity": 38}, {"time": 483, "pitch": 67, "duration": 3, "velocity": 52}, {"time": 486, "pitch": 69, "duration": 7, "velocity": 45}, {"time": 489, "pitch": 74, "duration": 7, "velocity": 47}, {"time": 537, "pitch": 43, "duration": 18, "velocity": 64}, {"time": 537, "pitch": 59, "duration": 8, "velocity": 63}, {"time": 537, "pitch": 67, "duration": 7, "velocity": 44}, {"time": 537, "pitch": 69, "duration": 3, "velocity": 43}, {"time": 543, "pitch": 55, "duration": 12, "velocity": 46}, {"time": 549, "pitch": 59, "duration": 5, "velocity": 66}, {"time": 555, "pitch": 67, "duration": 7, "velocity": 72}, {"time": 561, "pitch": 45, "duration": 14, "velocity": 55}, {"time": 561, "pitch": 52, "duration": 15, "velocity": 58}, {"time": 561, "pitch": 55, "duration": 12, "velocity": 67}, {"time": 561, "pitch": 60, "duration": 14, "velocity": 63}, {"time": 561, "pitch": 64, "duration": 14, "velocity": 67}, {"time": 585, "pitch": 43, "duration": 12, "velocity": 63}, {"time": 585, "pitch": 59, "duration": 10, "velocity": 60}, {"time": 585, "pitch": 62, "duration": 14, "velocity": 63}, {"time": 585, "pitch": 67, "duration": 20, "velocity": 61}, {"time": 591, "pitch": 50, "duration": 6, "velocity": 35}, {"time": 597, "pitch": 55, "duration": 7, "velocity": 46}, {"time": 603, "pitch": 57, "duration": 24, "velocity": 54}, {"time": 609, "pitch": 59, "duration": 16, "velocity": 44}, {"time": 615, "pitch": 62, "duration": 10, "velocity": 54}, {"time": 621, "pitch": 74, "duration": 4, "velocity": 69}, {"time": 627, "pitch": 69, "duration": 5, "velocity": 59}, {"time": 633, "pitch": 43, "duration": 20, "velocity": 64}, {"time": 633, "pitch": 59, "duration": 7, "velocity": 60}, {"time": 633, "pitch": 62, "duration": 6, "velocity": 62}, {"time": 633, "pitch": 67, "duration": 9, "velocity": 54}, {"time": 639, "pitch": 55, "duration": 8, "velocity": 39}, {"time": 645, "pitch": 57, "duration": 7, "velocity": 75}, {"time": 645, "pitch": 62, "duration": 7, "velocity": 73}, {"time": 645, "pitch": 67, "duration": 3, "velocity": 53}, {"time": 657, "pitch": 40, "duration": 18, "velocity": 69}, {"time": 657, "pitch": 52, "duration": 13, "velocity": 61}, {"time": 657, "pitch": 55, "duration": 9, "velocity": 67}, {"time": 657, "pitch": 59, "duration": 9, "velocity": 73}, {"time": 657, "pitch": 62, "duration": 9, "velocity": 67}, {"time": 669, "pitch": 55, "duration": 3, "velocity": 45}, {"time": 669, "pitch": 59, "duration": 6, "velocity": 61}, {"time": 669, "pitch": 62, "duration": 6, "velocity": 62}, {"time": 675, "pitch": 52, "duration": 5, "velocity": 47}, {"time": 681, "pitch": 43, "duration": 33, "velocity": 60}, {"time": 681, "pitch": 57, "duration": 7, "velocity": 49}, {"time": 681, "pitch": 67, "duration": 14, "velocity": 58}, {"time": 687, "pitch": 50, "duration": 26, "velocity": 44}, {"time": 693, "pitch": 55, "duration": 18, "velocity": 47}, {"time": 699, "pitch": 57, "duration": 5, "velocity": 53}, {"time": 705, "pitch": 62, "duration": 6, "velocity": 75}, {"time": 711, "pitch": 67, "duration": 1, "velocity": 75}, {"time": 717, "pitch": 62, "duration": 4, "velocity": 61}, {"time": 717, "pitch": 69, "duration": 6, "velocity": 70}, {"time": 723, "pitch": 71, "duration": 5, "velocity": 57}, {"time": 729, "pitch": 45, "duration": 18, "velocity": 59}, {"time": 729, "pitch": 64, "duration": 6, "velocity": 60}, {"time": 729, "pitch": 69, "duration": 10, "velocity": 69}, {"time": 735, "pitch": 52, "duration": 12, "velocity": 36}, {"time": 741, "pitch": 57, "duration": 5, "velocity": 49}, {"time": 741, "pitch": 60, "duration": 5, "velocity": 60}, {"time": 741, "pitch": 64, "duration": 5, "velocity": 64}, {"time": 753, "pitch": 45, "duration": 17, "velocity": 40}, {"time": 759, "pitch": 52, "duration": 11, "velocity": 56}, {"time": 765, "pitch": 57, "duration": 3, "velocity": 56}, {"time": 765, "pitch": 60, "duration": 5, "velocity": 76}, {"time": 765, "pitch": 64, "duration": 6, "velocity": 73}, {"time": 777, "pitch": 40, "duration": 40, "velocity": 67}, {"time": 777, "pitch": 55, "duration": 6, "velocity": 60}, {"time": 777, "pitch": 59, "duration": 7, "velocity": 69}, {"time": 783, "pitch": 52, "duration": 28, "velocity": 48}, {"time": 789, "pitch": 59, "duration": 4, "velocity": 53}, {"time": 795, "pitch": 59, "duration": 4, "velocity": 53}, {"time": 795, "pitch": 67, "duration": 4, "velocity": 63}, {"time": 801, "pitch": 59, "duration": 5, "velocity": 60}, {"time": 801, "pitch": 66, "duration": 5, "velocity": 72}, {"time": 807, "pitch": 67, "duration": 6, "velocity": 69}, {"time": 813, "pitch": 52, "duration": 7, "velocity": 45}, {"time": 813, "pitch": 62, "duration": 4, "velocity": 67}, {"time": 819, "pitch": 64, "duration": 3, "velocity": 75}, {"time": 825, "pitch": 43, "duration": 42, "velocity": 70}, {"time": 825, "pitch": 59, "duration": 5, "velocity": 63}, {"time": 825, "pitch": 62, "duration": 5, "velocity": 61}, {"time": 825, "pitch": 67, "duration": 7, "velocity": 69}, {"time": 831, "pitch": 55, "duration": 13, "velocity": 28}, {"time": 837, "pitch": 57, "duration": 3, "velocity": 61}, {"time": 837, "pitch": 62, "duration": 6, "velocity": 61}, {"time": 843, "pitch": 59, "duration": 5, "velocity": 48}, {"time": 843, "pitch": 67, "duration": 3, "velocity": 44}, {"time": 849, "pitch": 59, "duration": 5, "velocity": 64}, {"time": 849, "pitch": 62, "duration": 6, "velocity": 73}, {"time": 849, "pitch": 67, "duration": 5, "velocity": 66}, {"time": 855, "pitch": 55, "duration": 12, "velocity": 35}, {"time": 861, "pitch": 57, "duration": 2, "velocity": 64}, {"time": 861, "pitch": 66, "duration": 5, "velocity": 64}, {"time": 867, "pitch": 59, "duration": 2, "velocity": 64}, {"time": 867, "pitch": 67, "duration": 6, "velocity": 73}, {"time": 873, "pitch": 38, "duration": 5, "velocity": 69}, {"time": 873, "pitch": 57, "duration": 14, "velocity": 69}, {"time": 873, "pitch": 62, "duration": 13, "velocity": 72}, {"time": 873, "pitch": 66, "duration": 14, "velocity": 76}, {"time": 879, "pitch": 50, "duration": 6, "velocity": 48}, {"time": 885, "pitch": 52, "duration": 11, "velocity": 67}, {"time": 891, "pitch": 54, "duration": 5, "velocity": 64}, {"time": 897, "pitch": 62, "duration": 4, "velocity": 56}, {"time": 897, "pitch": 66, "duration": 3, "velocity": 58}, {"time": 897, "pitch": 74, "duration": 3, "velocity": 66}, {"time": 903, "pitch": 62, "duration": 3, "velocity": 53}, {"time": 903, "pitch": 66, "duration": 2, "velocity": 49}, {"time": 903, "pitch": 72, "duration": 4, "velocity": 72}, {"time": 909, "pitch": 38, "duration": 3, "velocity": 49}, {"time": 909, "pitch": 50, "duration": 3, "velocity": 46}, {"time": 909, "pitch": 62, "duration": 4, "velocity": 61}, {"time": 909, "pitch": 71, "duration": 4, "velocity": 55}, {"time": 915, "pitch": 69, "duration": 4, "velocity": 58}, {"time": 921, "pitch": 43, "duration": 24, "velocity": 69}, {"time": 921, "pitch": 62, "duration": 5, "velocity": 60}, {"time": 921, "pitch": 67, "duration": 4, "velocity": 62}, {"time": 921, "pitch": 71, "duration": 4, "velocity": 58}, {"time": 927, "pitch": 55, "duration": 8, "velocity": 39}, {"time": 933, "pitch": 57, "duration": 6, "velocity": 62}, {"time": 933, "pitch": 62, "duration": 5, "velocity": 60}, {"time": 933, "pitch": 67, "duration": 6, "velocity": 61}, {"time": 939, "pitch": 55, "duration": 7, "velocity": 31}, {"time": 945, "pitch": 45, "duration": 12, "velocity": 49}, {"time": 945, "pitch": 57, "duration": 4, "velocity": 57}, {"time": 945, "pitch": 60, "duration": 3, "velocity": 62}, {"time": 945, "pitch": 64, "duration": 4, "velocity": 67}, {"time": 945, "pitch": 67, "duration": 13, "velocity": 54}, {"time": 957, "pitch": 57, "duration": 5, "velocity": 73}, {"time": 957, "pitch": 60, "duration": 5, "velocity": 82}, {"time": 957, "pitch": 64, "duration": 6, "velocity": 78}, {"time": 963, "pitch": 45, "duration": 1, "velocity": 51}, {"time": 969, "pitch": 43, "duration": 43, "velocity": 66}, {"time": 969, "pitch": 59, "duration": 7, "velocity": 75}, {"time": 969, "pitch": 62, "duration": 6, "velocity": 75}, {"time": 969, "pitch": 67, "duration": 7, "velocity": 72}, {"time": 975, "pitch": 55, "duration": 9, "velocity": 24}, {"time": 981, "pitch": 59, "duration": 6, "velocity": 64}, {"time": 981, "pitch": 62, "duration": 7, "velocity": 67}, {"time": 981, "pitch": 67, "duration": 6, "velocity": 47}, {"time": 987, "pitch": 55, "duration": 8, "velocity": 30}, {"time": 993, "pitch": 57, "duration": 7, "velocity": 54}, {"time": 993, "pitch": 59, "duration": 6, "velocity": 60}, {"time": 993, "pitch": 62, "duration": 7, "velocity": 58}, {"time": 993, "pitch": 67, "duration": 6, "velocity": 42}, {"time": 999, "pitch": 55, "duration": 7, "velocity": 32}, {"time": 1005, "pitch": 57, "duration": 6, "velocity": 69}, {"time": 1005, "pitch": 59, "duration": 6, "velocity": 64}, {"time": 1005, "pitch": 62, "duration": 6, "velocity": 73}, {"time": 1005, "pitch": 67, "duration": 8, "velocity": 53}, {"time": 1011, "pitch": 55, "duration": 1, "velocity": 44}, {"time": 1017, "pitch": 43, "duration": 19, "velocity": 61}, {"time": 1017, "pitch": 55, "duration": 13, "velocity": 49}, {"time": 1017, "pitch": 57, "duration": 4, "velocity": 47}, {"time": 1017, "pitch": 59, "duration": 6, "velocity": 66}, {"time": 1017, "pitch": 62, "duration": 6, "velocity": 70}, {"time": 1017, "pitch": 67, "duration": 6, "velocity": 69}, {"time": 1023, "pitch": 57, "duration": 2, "velocity": 32}, {"time": 1029, "pitch": 57, "duration": 4, "velocity": 57}, {"time": 1029, "pitch": 59, "duration": 6, "velocity": 66}, {"time": 1029, "pitch": 62, "duration": 6, "velocity": 76}, {"time": 1029, "pitch": 67, "duration": 6, "velocity": 66}, {"time": 1041, "pitch": 40, "duration": 19, "velocity": 63}, {"time": 1041, "pitch": 52, "duration": 14, "velocity": 59}, {"time": 1041, "pitch": 55, "duration": 9, "velocity": 59}, {"time": 1041, "pitch": 59, "duration": 6, "velocity": 66}, {"time": 1041, "pitch": 62, "duration": 8, "velocity": 62}, {"time": 1041, "pitch": 67, "duration": 9, "velocity": 46}, {"time": 1053, "pitch": 55, "duration": 7, "velocity": 56}, {"time": 1053, "pitch": 59, "duration": 7, "velocity": 63}, {"time": 1053, "pitch": 62, "duration": 7, "velocity": 67}, {"time": 1053, "pitch": 67, "duration": 9, "velocity": 43}, {"time": 1065, "pitch": 43, "duration": 19, "velocity": 66}, {"time": 1065, "pitch": 59, "duration": 7, "velocity": 69}, {"time": 1065, "pitch": 62, "duration": 7, "velocity": 70}, {"time": 1065, "pitch": 67, "duration": 7, "velocity": 44}, {"time": 1071, "pitch": 50, "duration": 7, "velocity": 55}, {"time": 1077, "pitch": 55, "duration": 7, "velocity": 47}, {"time": 1077, "pitch": 57, "duration": 3, "velocity": 64}, {"time": 1077, "pitch": 62, "duration": 5, "velocity": 66}, {"time": 1083, "pitch": 50, "duration": 6, "velocity": 51}, {"time": 1089, "pitch": 43, "duration": 8, "velocity": 44}, {"time": 1089, "pitch": 74, "duration": 4, "velocity": 57}, {"time": 1092, "pitch": 62, "duration": 2, "velocity": 48}, {"time": 1095, "pitch": 50, "duration": 7, "velocity": 58}, {"time": 1095, "pitch": 67, "duration": 3, "velocity": 62}, {"time": 1098, "pitch": 69, "duration": 2, "velocity": 57}, {"time": 1101, "pitch": 55, "duration": 1, "velocity": 70}, {"time": 1101, "pitch": 71, "duration": 2, "velocity": 64}, {"time": 1104, "pitch": 62, "duration": 2, "velocity": 58}, {"time": 1107, "pitch": 42, "duration": 1, "velocity": 49}, {"time": 1107, "pitch": 69, "duration": 2, "velocity": 48}, {"time": 1110, "pitch": 62, "duration": 2, "velocity": 52}, {"time": 1113, "pitch": 45, "duration": 17, "velocity": 64}, {"time": 1113, "pitch": 67, "duration": 4, "velocity": 69}, {"time": 1116, "pitch": 62, "duration": 3, "velocity": 59}, {"time": 1119, "pitch": 52, "duration": 6, "velocity": 59}, {"time": 1125, "pitch": 57, "duration": 6, "velocity": 57}, {"time": 1125, "pitch": 60, "duration": 5, "velocity": 67}, {"time": 1125, "pitch": 64, "duration": 5, "velocity": 62}, {"time": 1125, "pitch": 67, "duration": 5, "velocity": 72}, {"time": 1131, "pitch": 52, "duration": 6, "velocity": 45}, {"time": 1137, "pitch": 45, "duration": 19, "velocity": 52}, {"time": 1137, "pitch": 60, "duration": 6, "velocity": 59}, {"time": 1137, "pitch": 64, "duration": 6, "velocity": 62}, {"time": 1137, "pitch": 67, "duration": 5, "velocity": 55}, {"time": 1143, "pitch": 52, "duration": 9, "velocity": 53}, {"time": 1149, "pitch": 60, "duration": 4, "velocity": 73}, {"time": 1149, "pitch": 64, "duration": 4, "velocity": 75}, {"time": 1149, "pitch": 67, "duration": 4, "velocity": 73}, {"time": 1155, "pitch": 52, "duration": 1, "velocity": 67}, {"time": 1161, "pitch": 40, "duration": 42, "velocity": 72}, {"time": 1161, "pitch": 59, "duration": 7, "velocity": 64}, {"time": 1161, "pitch": 62, "duration": 6, "velocity": 69}, {"time": 1161, "pitch": 67, "duration": 6, "velocity": 61}, {"time": 1167, "pitch": 52, "duration": 8, "velocity": 40}, {"time": 1173, "pitch": 59, "duration": 6, "velocity": 70}, {"time": 1173, "pitch": 62, "duration": 6, "velocity": 76}, {"time": 1173, "pitch": 67, "duration": 5, "velocity": 61}, {"time": 1179, "pitch": 52, "duration": 7, "velocity": 35}, {"time": 1185, "pitch": 59, "duration": 6, "velocity": 61}, {"time": 1185, "pitch": 62, "duration": 5, "velocity": 69}, {"time": 1185, "pitch": 67, "duration": 5, "velocity": 46}, {"time": 1191, "pitch": 52, "duration": 8, "velocity": 25}, {"time": 1197, "pitch": 59, "duration": 5, "velocity": 69}, {"time": 1197, "pitch": 62, "duration": 5, "velocity": 76}, {"time": 1197, "pitch": 67, "duration": 5, "velocity": 58}, {"time": 1209, "pitch": 43, "duration": 17, "velocity": 63}, {"time": 1209, "pitch": 57, "duration": 7, "velocity": 61}, {"time": 1209, "pitch": 59, "duration": 6, "velocity": 63}, {"time": 1209, "pitch": 62, "duration": 6, "velocity": 59}, {"time": 1215, "pitch": 55, "duration": 9, "velocity": 33}, {"time": 1221, "pitch": 57, "duration": 5, "velocity": 67}, {"time": 1227, "pitch": 59, "duration": 5, "velocity": 61}, {"time": 1233, "pitch": 38, "duration": 17, "velocity": 61}, {"time": 1233, "pitch": 50, "duration": 14, "velocity": 46}, {"time": 1233, "pitch": 57, "duration": 9, "velocity": 61}, {"time": 1233, "pitch": 62, "duration": 7, "velocity": 66}, {"time": 1233, "pitch": 66, "duration": 7, "velocity": 72}, {"time": 1245, "pitch": 57, "duration": 6, "velocity": 58}, {"time": 1245, "pitch": 62, "duration": 5, "velocity": 70}, {"time": 1245, "pitch": 66, "duration": 5, "velocity": 67}, {"time": 1251, "pitch": 50, "duration": 5, "velocity": 40}, {"time": 1257, "pitch": 43, "duration": 19, "velocity": 66}, {"time": 1257, "pitch": 60, "duration": 12, "velocity": 70}, {"time": 1257, "pitch": 67, "duration": 14, "velocity": 64}, {"time": 1263, "pitch": 50, "duration": 18, "velocity": 44}, {"time": 1269, "pitch": 55, "duration": 6, "velocity": 60}, {"time": 1275, "pitch": 62, "duration": 5, "velocity": 44}, {"time": 1281, "pitch": 43, "duration": 14, "velocity": 60}, {"time": 1281, "pitch": 57, "duration": 4, "velocity": 69}, {"time": 1281, "pitch": 59, "duration": 8, "velocity": 63}, {"time": 1287, "pitch": 50, "duration": 7, "velocity": 60}, {"time": 1290, "pitch": 59, "duration": 1, "velocity": 30}, {"time": 1293, "pitch": 55, "duration": 2, "velocity": 60}, {"time": 1293, "pitch": 57, "duration": 3, "velocity": 78}, {"time": 1293, "pitch": 62, "duration": 4, "velocity": 72}, {"time": 1305, "pitch": 43, "duration": 20, "velocity": 73}, {"time": 1305, "pitch": 59, "duration": 4, "velocity": 91}, {"time": 1305, "pitch": 67, "duration": 5, "velocity": 73}, {"time": 1308, "pitch": 55, "duration": 9, "velocity": 59}, {"time": 1311, "pitch": 57, "duration": 2, "velocity": 69}, {"time": 1314, "pitch": 59, "duration": 2, "velocity": 66}, {"time": 1317, "pitch": 67, "duration": 5, "velocity": 85}, {"time": 1320, "pitch": 55, "duration": 7, "velocity": 57}, {"time": 1323, "pitch": 60, "duration": 4, "velocity": 51}, {"time": 1326, "pitch": 69, "duration": 8, "velocity": 67}, {"time": 1329, "pitch": 43, "duration": 18, "velocity": 62}, {"time": 1332, "pitch": 50, "duration": 14, "velocity": 51}, {"time": 1335, "pitch": 55, "duration": 6, "velocity": 73}, {"time": 1338, "pitch": 59, "duration": 2, "velocity": 76}, {"time": 1341, "pitch": 59, "duration": 3, "velocity": 88}, {"time": 1341, "pitch": 62, "duration": 4, "velocity": 103}, {"time": 1341, "pitch": 67, "duration": 4, "velocity": 80}, {"time": 1344, "pitch": 55, "duration": 2, "velocity": 70}, {"time": 1347, "pitch": 59, "duration": 2, "velocity": 82}, {"time": 1350, "pitch": 67, "duration": 2, "velocity": 73}, {"time": 1353, "pitch": 40, "duration": 22, "velocity": 75}, {"time": 1353, "pitch": 59, "duration": 5, "velocity": 88}, {"time": 1353, "pitch": 62, "duration": 5, "velocity": 95}, {"time": 1353, "pitch": 67, "duration": 5, "velocity": 78}, {"time": 1359, "pitch": 52, "duration": 7, "velocity": 61}, {"time": 1365, "pitch": 57, "duration": 1, "velocity": 95}, {"time": 1365, "pitch": 66, "duration": 2, "velocity": 106}, {"time": 1371, "pitch": 52, "duration": 4, "velocity": 58}, {"time": 1377, "pitch": 40, "duration": 15, "velocity": 67}, {"time": 1377, "pitch": 71, "duration": 1, "velocity": 78}, {"time": 1377, "pitch": 83, "duration": 1, "velocity": 80}, {"time": 1383, "pitch": 47, "duration": 10, "velocity": 62}, {"time": 1383, "pitch": 69, "duration": 1, "velocity": 78}, {"time": 1383, "pitch": 81, "duration": 1, "velocity": 80}, {"time": 1389, "pitch": 52, "duration": 5, "velocity": 75}, {"time": 1389, "pitch": 67, "duration": 1, "velocity": 82}, {"time": 1389, "pitch": 79, "duration": 1, "velocity": 78}, {"time": 1395, "pitch": 66, "duration": 2, "velocity": 78}, {"time": 1395, "pitch": 78, "duration": 3, "velocity": 85}, {"time": 1401, "pitch": 43, "duration": 18, "velocity": 66}, {"time": 1401, "pitch": 67, "duration": 4, "velocity": 95}, {"time": 1401, "pitch": 79, "duration": 3, "velocity": 80}, {"time": 1407, "pitch": 50, "duration": 16, "velocity": 62}, {"time": 1410, "pitch": 55, "duration": 11, "velocity": 64}, {"time": 1413, "pitch": 59, "duration": 2, "velocity": 93}, {"time": 1416, "pitch": 62, "duration": 2, "velocity": 72}, {"time": 1419, "pitch": 66, "duration": 4, "velocity": 91}, {"time": 1422, "pitch": 59, "duration": 1, "velocity": 56}, {"time": 1422, "pitch": 67, "duration": 1, "velocity": 69}, {"time": 1425, "pitch": 43, "duration": 10, "velocity": 67}, {"time": 1425, "pitch": 59, "duration": 3, "velocity": 80}, {"time": 1425, "pitch": 69, "duration": 3, "velocity": 91}, {"time": 1431, "pitch": 50, "duration": 4, "velocity": 67}, {"time": 1431, "pitch": 59, "duration": 3, "velocity": 80}, {"time": 1431, "pitch": 67, "duration": 3, "velocity": 78}, {"time": 1437, "pitch": 59, "duration": 4, "velocity": 73}, {"time": 1437, "pitch": 66, "duration": 4, "velocity": 106}, {"time": 1443, "pitch": 40, "duration": 2, "velocity": 70}, {"time": 1443, "pitch": 62, "duration": 4, "velocity": 56}, {"time": 1449, "pitch": 38, "duration": 6, "velocity": 73}, {"time": 1449, "pitch": 57, "duration": 10, "velocity": 80}, {"time": 1449, "pitch": 62, "duration": 10, "velocity": 97}, {"time": 1449, "pitch": 66, "duration": 8, "velocity": 97}, {"time": 1455, "pitch": 50, "duration": 7, "velocity": 58}, {"time": 1461, "pitch": 52, "duration": 28, "velocity": 66}, {"time": 1461, "pitch": 57, "duration": 5, "velocity": 64}, {"time": 1461, "pitch": 64, "duration": 5, "velocity": 73}, {"time": 1467, "pitch": 54, "duration": 22, "velocity": 60}, {"time": 1467, "pitch": 62, "duration": 1, "velocity": 75}, {"time": 1467, "pitch": 66, "duration": 2, "velocity": 88}, {"time": 1473, "pitch": 60, "duration": 2, "velocity": 34}, {"time": 1473, "pitch": 62, "duration": 2, "velocity": 40}, {"time": 1473, "pitch": 66, "duration": 1, "velocity": 97}, {"time": 1473, "pitch": 69, "duration": 2, "velocity": 91}, {"time": 1485, "pitch": 62, "duration": 3, "velocity": 50}, {"time": 1485, "pitch": 69, "duration": 1, "velocity": 59}, {"time": 1485, "pitch": 78, "duration": 3, "velocity": 106}, {"time": 1488, "pitch": 69, "duration": 2, "velocity": 58}, {"time": 1491, "pitch": 74, "duration": 4, "velocity": 44}, {"time": 1494, "pitch": 78, "duration": 1, "velocity": 48}, {"time": 1497, "pitch": 43, "duration": 21, "velocity": 66}, {"time": 1497, "pitch": 55, "duration": 14, "velocity": 75}, {"time": 1497, "pitch": 57, "duration": 10, "velocity": 75}, {"time": 1497, "pitch": 59, "duration": 10, "velocity": 75}, {"time": 1497, "pitch": 62, "duration": 10, "velocity": 73}, {"time": 1497, "pitch": 67, "duration": 10, "velocity": 70}, {"time": 1497, "pitch": 81, "duration": 1, "velocity": 88}, {"time": 1509, "pitch": 57, "duration": 5, "velocity": 88}, {"time": 1509, "pitch": 59, "duration": 5, "velocity": 99}, {"time": 1509, "pitch": 62, "duration": 5, "velocity": 97}, {"time": 1509, "pitch": 67, "duration": 5, "velocity": 78}, {"time": 1515, "pitch": 55, "duration": 5, "velocity": 56}, {"time": 1521, "pitch": 47, "duration": 5, "velocity": 80}, {"time": 1521, "pitch": 59, "duration": 5, "velocity": 69}, {"time": 1521, "pitch": 63, "duration": 5, "velocity": 95}, {"time": 1521, "pitch": 66, "duration": 6, "velocity": 99}, {"time": 1533, "pitch": 39, "duration": 5, "velocity": 64}, {"time": 1533, "pitch": 51, "duration": 5, "velocity": 70}, {"time": 1533, "pitch": 63, "duration": 5, "velocity": 82}, {"time": 1533, "pitch": 71, "duration": 6, "velocity": 76}, {"time": 1545, "pitch": 40, "duration": 25, "velocity": 75}, {"time": 1545, "pitch": 52, "duration": 5, "velocity": 75}, {"time": 1545, "pitch": 62, "duration": 10, "velocity": 76}, {"time": 1545, "pitch": 67, "duration": 9, "velocity": 85}, {"time": 1545, "pitch": 71, "duration": 6, "velocity": 70}, {"time": 1551, "pitch": 52, "duration": 7, "velocity": 32}, {"time": 1557, "pitch": 62, "duration": 6, "velocity": 76}, {"time": 1557, "pitch": 67, "duration": 6, "velocity": 91}, {"time": 1557, "pitch": 71, "duration": 6, "velocity": 70}, {"time": 1563, "pitch": 52, "duration": 7, "velocity": 46}, {"time": 1569, "pitch": 44, "duration": 10, "velocity": 63}, {"time": 1569, "pitch": 62, "duration": 10, "velocity": 67}, {"time": 1569, "pitch": 67, "duration": 8, "velocity": 85}, {"time": 1569, "pitch": 71, "duration": 8, "velocity": 62}, {"time": 1578, "pitch": 40, "duration": 9, "velocity": 31}, {"time": 1578, "pitch": 52, "duration": 5, "velocity": 31}, {"time": 1581, "pitch": 62, "duration": 5, "velocity": 75}, {"time": 1581, "pitch": 67, "duration": 6, "velocity": 80}, {"time": 1581, "pitch": 71, "duration": 6, "velocity": 73}, {"time": 1587, "pitch": 52, "duration": 1, "velocity": 47}, {"time": 1593, "pitch": 43, "duration": 17, "velocity": 70}, {"time": 1593, "pitch": 55, "duration": 4, "velocity": 66}, {"time": 1593, "pitch": 57, "duration": 12, "velocity": 69}, {"time": 1593, "pitch": 59, "duration": 12, "velocity": 73}, {"time": 1593, "pitch": 62, "duration": 10, "velocity": 70}, {"time": 1593, "pitch": 67, "duration": 13, "velocity": 69}, {"time": 1605, "pitch": 55, "duration": 5, "velocity": 63}, {"time": 1608, "pitch": 57, "duration": 2, "velocity": 82}, {"time": 1611, "pitch": 59, "duration": 2, "velocity": 73}, {"time": 1614, "pitch": 62, "duration": 2, "velocity": 69}, {"time": 1617, "pitch": 38, "duration": 16, "velocity": 70}, {"time": 1617, "pitch": 50, "duration": 3, "velocity": 78}, {"time": 1617, "pitch": 57, "duration": 4, "velocity": 63}, {"time": 1617, "pitch": 62, "duration": 3, "velocity": 72}, {"time": 1617, "pitch": 66, "duration": 4, "velocity": 88}, {"time": 1623, "pitch": 64, "duration": 2, "velocity": 44}, {"time": 1623, "pitch": 67, "duration": 3, "velocity": 36}, {"time": 1629, "pitch": 50, "duration": 4, "velocity": 52}, {"time": 1629, "pitch": 62, "duration": 1, "velocity": 76}, {"time": 1629, "pitch": 66, "duration": 1, "velocity": 99}, {"time": 1629, "pitch": 69, "duration": 2, "velocity": 82}, {"time": 1635, "pitch": 62, "duration": 1, "velocity": 59}, {"time": 1635, "pitch": 66, "duration": 1, "velocity": 82}, {"time": 1635, "pitch": 72, "duration": 3, "velocity": 82}, {"time": 1641, "pitch": 43, "duration": 42, "velocity": 70}, {"time": 1641, "pitch": 57, "duration": 6, "velocity": 63}, {"time": 1641, "pitch": 59, "duration": 6, "velocity": 70}, {"time": 1641, "pitch": 62, "duration": 6, "velocity": 67}, {"time": 1641, "pitch": 67, "duration": 8, "velocity": 67}, {"time": 1647, "pitch": 50, "duration": 6, "velocity": 56}, {"time": 1653, "pitch": 55, "duration": 5, "velocity": 48}, {"time": 1653, "pitch": 57, "duration": 6, "velocity": 59}, {"time": 1653, "pitch": 62, "duration": 6, "velocity": 66}, {"time": 1659, "pitch": 50, "duration": 25, "velocity": 46}, {"time": 1665, "pitch": 55, "duration": 17, "velocity": 43}, {"time": 1665, "pitch": 59, "duration": 2, "velocity": 62}, {"time": 1665, "pitch": 62, "duration": 2, "velocity": 69}, {"time": 1665, "pitch": 67, "duration": 3, "velocity": 67}, {"time": 1674, "pitch": 79, "duration": 3, "velocity": 49}, {"time": 1674, "pitch": 83, "duration": 6, "velocity": 46}, {"time": 1675, "pitch": 86, "duration": 5, "velocity": 62}, {"time": 1677, "pitch": 91, "duration": 3, "velocity": 64}, {"time": 1689, "pitch": 43, "duration": 19, "velocity": 63}, {"time": 1689, "pitch": 55, "duration": 17, "velocity": 48}, {"time": 1689, "pitch": 57, "duration": 7, "velocity": 60}, {"time": 1689, "pitch": 59, "duration": 7, "velocity": 54}, {"time": 1689, "pitch": 62, "duration": 7, "velocity": 59}, {"time": 1689, "pitch": 67, "duration": 8, "velocity": 56}, {"time": 1701, "pitch": 57, "duration": 6, "velocity": 60}, {"time": 1701, "pitch": 59, "duration": 6, "velocity": 59}, {"time": 1701, "pitch": 62, "duration": 6, "velocity": 67}, {"time": 1701, "pitch": 67, "duration": 6, "velocity": 50}, {"time": 1713, "pitch": 45, "duration": 17, "velocity": 52}, {"time": 1713, "pitch": 52, "duration": 17, "velocity": 66}, {"time": 1713, "pitch": 55, "duration": 9, "velocity": 59}, {"time": 1713, "pitch": 60, "duration": 9, "velocity": 66}, {"time": 1713, "pitch": 64, "duration": 7, "velocity": 62}, {"time": 1725, "pitch": 55, "duration": 5, "velocity": 54}, {"time": 1725, "pitch": 60, "duration": 5, "velocity": 67}, {"time": 1725, "pitch": 64, "duration": 6, "velocity": 64}, {"time": 1737, "pitch": 43, "duration": 43, "velocity": 73}, {"time": 1737, "pitch": 59, "duration": 6, "velocity": 67}, {"time": 1737, "pitch": 62, "duration": 6, "velocity": 63}, {"time": 1737, "pitch": 67, "duration": 5, "velocity": 72}, {"time": 1743, "pitch": 55, "duration": 7, "velocity": 40}, {"time": 1749, "pitch": 57, "duration": 5, "velocity": 49}, {"time": 1749, "pitch": 59, "duration": 5, "velocity": 59}, {"time": 1749, "pitch": 62, "duration": 5, "velocity": 58}, {"time": 1755, "pitch": 55, "duration": 8, "velocity": 36}, {"time": 1761, "pitch": 57, "duration": 6, "velocity": 40}, {"time": 1761, "pitch": 59, "duration": 6, "velocity": 45}, {"time": 1761, "pitch": 62, "duration": 6, "velocity": 52}, {"time": 1761, "pitch": 67, "duration": 8, "velocity": 47}, {"time": 1767, "pitch": 55, "duration": 8, "velocity": 27}, {"time": 1773, "pitch": 57, "duration": 5, "velocity": 62}, {"time": 1773, "pitch": 59, "duration": 5, "velocity": 64}, {"time": 1773, "pitch": 62, "duration": 5, "velocity": 72}, {"time": 1773, "pitch": 67, "duration": 5, "velocity": 60}, {"time": 1779, "pitch": 55, "duration": 3, "velocity": 42}, {"time": 1782, "pitch": 50, "duration": 3, "velocity": 53}, {"time": 1785, "pitch": 43, "duration": 19, "velocity": 73}, {"time": 1785, "pitch": 57, "duration": 6, "velocity": 66}, {"time": 1785, "pitch": 59, "duration": 6, "velocity": 66}, {"time": 1785, "pitch": 62, "duration": 6, "velocity": 75}, {"time": 1785, "pitch": 67, "duration": 6, "velocity": 60}, {"time": 1791, "pitch": 55, "duration": 8, "velocity": 37}, {"time": 1797, "pitch": 57, "duration": 5, "velocity": 60}, {"time": 1797, "pitch": 59, "duration": 5, "velocity": 66}, {"time": 1797, "pitch": 62, "duration": 5, "velocity": 73}, {"time": 1797, "pitch": 67, "duration": 3, "velocity": 46}, {"time": 1803, "pitch": 55, "duration": 1, "velocity": 63}, {"time": 1809, "pitch": 40, "duration": 16, "velocity": 72}, {"time": 1809, "pitch": 55, "duration": 6, "velocity": 60}, {"time": 1809, "pitch": 59, "duration": 6, "velocity": 64}, {"time": 1809, "pitch": 62, "duration": 6, "velocity": 66}, {"time": 1815, "pitch": 52, "duration": 8, "velocity": 37}, {"time": 1821, "pitch": 55, "duration": 5, "velocity": 66}, {"time": 1821, "pitch": 59, "duration": 5, "velocity": 70}, {"time": 1821, "pitch": 62, "duration": 6, "velocity": 72}, {"time": 1827, "pitch": 52, "duration": 6, "velocity": 48}, {"time": 1833, "pitch": 43, "duration": 11, "velocity": 63}, {"time": 1833, "pitch": 57, "duration": 7, "velocity": 60}, {"time": 1833, "pitch": 59, "duration": 7, "velocity": 67}, {"time": 1833, "pitch": 62, "duration": 7, "velocity": 70}, {"time": 1833, "pitch": 67, "duration": 10, "velocity": 64}, {"time": 1839, "pitch": 50, "duration": 6, "velocity": 48}, {"time": 1845, "pitch": 55, "duration": 6, "velocity": 59}, {"time": 1851, "pitch": 57, "duration": 17, "velocity": 63}, {"time": 1857, "pitch": 59, "duration": 10, "velocity": 66}, {"time": 1863, "pitch": 62, "duration": 5, "velocity": 82}, {"time": 1869, "pitch": 67, "duration": 5, "velocity": 57}, {"time": 1875, "pitch": 71, "duration": 5, "velocity": 57}, {"time": 1881, "pitch": 45, "duration": 41, "velocity": 63}, {"time": 1881, "pitch": 64, "duration": 5, "velocity": 63}, {"time": 1881, "pitch": 67, "duration": 5, "velocity": 67}, {"time": 1881, "pitch": 72, "duration": 5, "velocity": 78}, {"time": 1887, "pitch": 52, "duration": 7, "velocity": 39}, {"time": 1893, "pitch": 57, "duration": 14, "velocity": 51}, {"time": 1893, "pitch": 60, "duration": 5, "velocity": 63}, {"time": 1893, "pitch": 64, "duration": 5, "velocity": 57}, {"time": 1893, "pitch": 67, "duration": 5, "velocity": 60}, {"time": 1899, "pitch": 52, "duration": 19, "velocity": 42}, {"time": 1905, "pitch": 60, "duration": 6, "velocity": 59}, {"time": 1905, "pitch": 64, "duration": 7, "velocity": 55}, {"time": 1905, "pitch": 67, "duration": 5, "velocity": 59}, {"time": 1911, "pitch": 57, "duration": 10, "velocity": 35}, {"time": 1917, "pitch": 60, "duration": 4, "velocity": 66}, {"time": 1917, "pitch": 64, "duration": 4, "velocity": 66}, {"time": 1917, "pitch": 67, "duration": 4, "velocity": 72}, {"time": 1923, "pitch": 52, "duration": 3, "velocity": 50}, {"time": 1929, "pitch": 43, "duration": 10, "velocity": 64}, {"time": 1929, "pitch": 59, "duration": 7, "velocity": 69}, {"time": 1929, "pitch": 62, "duration": 7, "velocity": 72}, {"time": 1929, "pitch": 67, "duration": 6, "velocity": 66}, {"time": 1935, "pitch": 50, "duration": 4, "velocity": 44}, {"time": 1941, "pitch": 59, "duration": 7, "velocity": 72}, {"time": 1941, "pitch": 62, "duration": 5, "velocity": 73}, {"time": 1941, "pitch": 67, "duration": 5, "velocity": 70}, {"time": 1953, "pitch": 40, "duration": 18, "velocity": 61}, {"time": 1953, "pitch": 52, "duration": 14, "velocity": 56}, {"time": 1953, "pitch": 59, "duration": 7, "velocity": 67}, {"time": 1953, "pitch": 62, "duration": 7, "velocity": 73}, {"time": 1953, "pitch": 67, "duration": 8, "velocity": 69}, {"time": 1965, "pitch": 59, "duration": 7, "velocity": 73}, {"time": 1965, "pitch": 62, "duration": 6, "velocity": 73}, {"time": 1965, "pitch": 67, "duration": 5, "velocity": 75}, {"time": 1971, "pitch": 52, "duration": 2, "velocity": 64}, {"time": 1977, "pitch": 43, "duration": 17, "velocity": 64}, {"time": 1977, "pitch": 59, "duration": 6, "velocity": 82}, {"time": 1977, "pitch": 62, "duration": 6, "velocity": 76}, {"time": 1977, "pitch": 67, "duration": 6, "velocity": 73}, {"time": 1983, "pitch": 50, "duration": 6, "velocity": 55}, {"time": 1989, "pitch": 55, "duration": 3, "velocity": 53}, {"time": 1989, "pitch": 57, "duration": 6, "velocity": 76}, {"time": 1989, "pitch": 59, "duration": 5, "velocity": 82}, {"time": 1989, "pitch": 62, "duration": 6, "velocity": 72}, {"time": 1989, "pitch": 67, "duration": 4, "velocity": 67}, {"time": 1995, "pitch": 50, "duration": 1, "velocity": 66}, {"time": 2001, "pitch": 38, "duration": 13, "velocity": 72}, {"time": 2001, "pitch": 57, "duration": 6, "velocity": 62}, {"time": 2001, "pitch": 62, "duration": 6, "velocity": 63}, {"time": 2001, "pitch": 66, "duration": 6, "velocity": 73}, {"time": 2007, "pitch": 50, "duration": 8, "velocity": 39}, {"time": 2013, "pitch": 42, "duration": 4, "velocity": 75}, {"time": 2013, "pitch": 57, "duration": 6, "velocity": 75}, {"time": 2013, "pitch": 62, "duration": 6, "velocity": 88}, {"time": 2013, "pitch": 66, "duration": 6, "velocity": 78}, {"time": 2025, "pitch": 43, "duration": 19, "velocity": 69}, {"time": 2025, "pitch": 57, "duration": 6, "velocity": 62}, {"time": 2025, "pitch": 59, "duration": 6, "velocity": 66}, {"time": 2025, "pitch": 62, "duration": 5, "velocity": 60}, {"time": 2025, "pitch": 67, "duration": 6, "velocity": 70}, {"time": 2031, "pitch": 50, "duration": 17, "velocity": 63}, {"time": 2034, "pitch": 55, "duration": 12, "velocity": 75}, {"time": 2037, "pitch": 57, "duration": 2, "velocity": 76}, {"time": 2040, "pitch": 59, "duration": 2, "velocity": 64}, {"time": 2043, "pitch": 62, "duration": 1, "velocity": 75}, {"time": 2046, "pitch": 67, "duration": 2, "velocity": 75}, {"time": 2049, "pitch": 43, "duration": 18, "velocity": 64}, {"time": 2049, "pitch": 69, "duration": 3, "velocity": 51}, {"time": 2052, "pitch": 50, "duration": 15, "velocity": 63}, {"time": 2052, "pitch": 71, "duration": 1, "velocity": 69}, {"time": 2055, "pitch": 74, "duration": 2, "velocity": 67}, {"time": 2058, "pitch": 79, "duration": 2, "velocity": 69}, {"time": 2061, "pitch": 55, "duration": 5, "velocity": 43}, {"time": 2061, "pitch": 81, "duration": 2, "velocity": 70}, {"time": 2064, "pitch": 83, "duration": 3, "velocity": 54}, {"time": 2067, "pitch": 86, "duration": 3, "velocity": 69}, {"time": 2070, "pitch": 83, "duration": 3, "velocity": 64}, {"time": 2073, "pitch": 40, "duration": 41, "velocity": 76}, {"time": 2073, "pitch": 55, "duration": 6, "velocity": 76}, {"time": 2073, "pitch": 59, "duration": 6, "velocity": 80}, {"time": 2073, "pitch": 62, "duration": 6, "velocity": 72}, {"time": 2073, "pitch": 67, "duration": 7, "velocity": 76}, {"time": 2079, "pitch": 52, "duration": 21, "velocity": 43}, {"time": 2085, "pitch": 55, "duration": 6, "velocity": 82}, {"time": 2085, "pitch": 59, "duration": 6, "velocity": 80}, {"time": 2085, "pitch": 62, "duration": 6, "velocity": 78}, {"time": 2085, "pitch": 67, "duration": 10, "velocity": 78}, {"time": 2097, "pitch": 55, "duration": 8, "velocity": 64}, {"time": 2097, "pitch": 59, "duration": 7, "velocity": 67}, {"time": 2097, "pitch": 62, "duration": 6, "velocity": 69}, {"time": 2097, "pitch": 67, "duration": 9, "velocity": 61}, {"time": 2106, "pitch": 52, "duration": 3, "velocity": 48}, {"time": 2109, "pitch": 55, "duration": 4, "velocity": 99}, {"time": 2109, "pitch": 59, "duration": 4, "velocity": 99}, {"time": 2109, "pitch": 62, "duration": 4, "velocity": 91}, {"time": 2109, "pitch": 67, "duration": 5, "velocity": 80}, {"time": 2112, "pitch": 52, "duration": 2, "velocity": 75}, {"time": 2115, "pitch": 55, "duration": 2, "velocity": 61}, {"time": 2118, "pitch": 59, "duration": 2, "velocity": 56}, {"time": 2121, "pitch": 43, "duration": 42, "velocity": 72}, {"time": 2121, "pitch": 57, "duration": 6, "velocity": 91}, {"time": 2121, "pitch": 59, "duration": 6, "velocity": 88}, {"time": 2121, "pitch": 62, "duration": 6, "velocity": 80}, {"time": 2121, "pitch": 67, "duration": 6, "velocity": 78}, {"time": 2127, "pitch": 50, "duration": 29, "velocity": 47}, {"time": 2130, "pitch": 57, "duration": 1, "velocity": 73}, {"time": 2130, "pitch": 59, "duration": 1, "velocity": 75}, {"time": 2130, "pitch": 62, "duration": 2, "velocity": 76}, {"time": 2130, "pitch": 67, "duration": 2, "velocity": 59}, {"time": 2136, "pitch": 55, "duration": 4, "velocity": 49}, {"time": 2139, "pitch": 62, "duration": 1, "velocity": 85}, {"time": 2139, "pitch": 67, "duration": 1, "velocity": 91}, {"time": 2139, "pitch": 74, "duration": 2, "velocity": 73}, {"time": 2145, "pitch": 55, "duration": 3, "velocity": 48}, {"time": 2148, "pitch": 62, "duration": 1, "velocity": 76}, {"time": 2148, "pitch": 67, "duration": 1, "velocity": 76}, {"time": 2148, "pitch": 71, "duration": 2, "velocity": 95}, {"time": 2151, "pitch": 55, "duration": 2, "velocity": 36}, {"time": 2154, "pitch": 62, "duration": 1, "velocity": 72}, {"time": 2154, "pitch": 69, "duration": 1, "velocity": 88}, {"time": 2157, "pitch": 50, "duration": 1, "velocity": 27}, {"time": 2157, "pitch": 55, "duration": 3, "velocity": 67}, {"time": 2160, "pitch": 59, "duration": 2, "velocity": 82}, {"time": 2163, "pitch": 50, "duration": 1, "velocity": 67}, {"time": 2163, "pitch": 62, "duration": 2, "velocity": 66}, {"time": 2166, "pitch": 67, "duration": 1, "velocity": 69}, {"time": 2169, "pitch": 40, "duration": 41, "velocity": 78}, {"time": 2169, "pitch": 55, "duration": 5, "velocity": 91}, {"time": 2169, "pitch": 59, "duration": 6, "velocity": 69}, {"time": 2169, "pitch": 62, "duration": 5, "velocity": 63}, {"time": 2169, "pitch": 67, "duration": 5, "velocity": 46}, {"time": 2175, "pitch": 52, "duration": 7, "velocity": 46}, {"time": 2178, "pitch": 55, "duration": 2, "velocity": 39}, {"time": 2181, "pitch": 55, "duration": 5, "velocity": 78}, {"time": 2181, "pitch": 59, "duration": 5, "velocity": 80}, {"time": 2181, "pitch": 62, "duration": 4, "velocity": 72}, {"time": 2181, "pitch": 67, "duration": 6, "velocity": 78}, {"time": 2187, "pitch": 52, "duration": 4, "velocity": 44}, {"time": 2190, "pitch": 55, "duration": 1, "velocity": 73}, {"time": 2190, "pitch": 59, "duration": 1, "velocity": 75}, {"time": 2190, "pitch": 62, "duration": 1, "velocity": 76}, {"time": 2193, "pitch": 52, "duration": 3, "velocity": 46}, {"time": 2196, "pitch": 55, "duration": 2, "velocity": 93}, {"time": 2196, "pitch": 59, "duration": 1, "velocity": 88}, {"time": 2196, "pitch": 67, "duration": 7, "velocity": 82}, {"time": 2202, "pitch": 52, "duration": 3, "velocity": 62}, {"time": 2205, "pitch": 55, "duration": 3, "velocity": 93}, {"time": 2205, "pitch": 59, "duration": 4, "velocity": 93}, {"time": 2205, "pitch": 62, "duration": 4, "velocity": 85}, {"time": 2205, "pitch": 67, "duration": 3, "velocity": 72}, {"time": 2208, "pitch": 52, "duration": 2, "velocity": 75}, {"time": 2211, "pitch": 55, "duration": 2, "velocity": 78}, {"time": 2214, "pitch": 62, "duration": 1, "velocity": 48}, {"time": 2214, "pitch": 67, "duration": 2, "velocity": 45}, {"time": 2217, "pitch": 38, "duration": 2, "velocity": 85}, {"time": 2217, "pitch": 57, "duration": 5, "velocity": 72}, {"time": 2217, "pitch": 62, "duration": 6, "velocity": 76}, {"time": 2217, "pitch": 66, "duration": 7, "velocity": 85}, {"time": 2223, "pitch": 50, "duration": 13, "velocity": 56}, {"time": 2226, "pitch": 57, "duration": 11, "velocity": 46}, {"time": 2226, "pitch": 59, "duration": 1, "velocity": 47}, {"time": 2229, "pitch": 62, "duration": 4, "velocity": 75}, {"time": 2232, "pitch": 64, "duration": 2, "velocity": 80}, {"time": 2235, "pitch": 66, "duration": 2, "velocity": 78}, {"time": 2238, "pitch": 62, "duration": 3, "velocity": 97}, {"time": 2238, "pitch": 67, "duration": 4, "velocity": 95}, {"time": 2241, "pitch": 50, "duration": 17, "velocity": 63}, {"time": 2244, "pitch": 62, "duration": 1, "velocity": 93}, {"time": 2244, "pitch": 66, "duration": 1, "velocity": 101}, {"time": 2244, "pitch": 69, "duration": 1, "velocity": 88}, {"time": 2250, "pitch": 57, "duration": 3, "velocity": 67}, {"time": 2253, "pitch": 62, "duration": 4, "velocity": 95}, {"time": 2253, "pitch": 66, "duration": 4, "velocity": 101}, {"time": 2253, "pitch": 74, "duration": 4, "velocity": 88}, {"time": 2256, "pitch": 57, "duration": 2, "velocity": 63}, {"time": 2259, "pitch": 62, "duration": 1, "velocity": 78}, {"time": 2265, "pitch": 36, "duration": 18, "velocity": 73}, {"time": 2265, "pitch": 48, "duration": 13, "velocity": 75}, {"time": 2265, "pitch": 55, "duration": 6, "velocity": 80}, {"time": 2265, "pitch": 60, "duration": 6, "velocity": 82}, {"time": 2265, "pitch": 64, "duration": 6, "velocity": 80}, {"time": 2265, "pitch": 67, "duration": 11, "velocity": 66}, {"time": 2277, "pitch": 55, "duration": 4, "velocity": 82}, {"time": 2277, "pitch": 60, "duration": 4, "velocity": 82}, {"time": 2277, "pitch": 64, "duration": 4, "velocity": 82}, {"time": 2283, "pitch": 48, "duration": 1, "velocity": 47}, {"time": 2286, "pitch": 36, "duration": 21, "velocity": 60}, {"time": 2286, "pitch": 48, "duration": 7, "velocity": 85}, {"time": 2286, "pitch": 57, "duration": 4, "velocity": 66}, {"time": 2286, "pitch": 62, "duration": 5, "velocity": 75}, {"time": 2286, "pitch": 66, "duration": 5, "velocity": 80}, {"time": 2292, "pitch": 57, "duration": 5, "velocity": 64}, {"time": 2292, "pitch": 62, "duration": 5, "velocity": 69}, {"time": 2292, "pitch": 66, "duration": 5, "velocity": 69}, {"time": 2298, "pitch": 48, "duration": 5, "velocity": 50}, {"time": 2301, "pitch": 57, "duration": 5, "velocity": 73}, {"time": 2301, "pitch": 62, "duration": 5, "velocity": 85}, {"time": 2301, "pitch": 66, "duration": 5, "velocity": 88}, {"time": 2307, "pitch": 48, "duration": 1, "velocity": 66}, {"time": 2313, "pitch": 47, "duration": 13, "velocity": 76}, {"time": 2313, "pitch": 57, "duration": 6, "velocity": 91}, {"time": 2313, "pitch": 62, "duration": 7, "velocity": 95}, {"time": 2313, "pitch": 66, "duration": 6, "velocity": 80}, {"time": 2319, "pitch": 54, "duration": 6, "velocity": 56}, {"time": 2322, "pitch": 57, "duration": 1, "velocity": 55}, {"time": 2325, "pitch": 57, "duration": 5, "velocity": 91}, {"time": 2325, "pitch": 62, "duration": 5, "velocity": 91}, {"time": 2325, "pitch": 66, "duration": 5, "velocity": 97}, {"time": 2331, "pitch": 39, "duration": 1, "velocity": 85}, {"time": 2331, "pitch": 51, "duration": 1, "velocity": 64}, {"time": 2337, "pitch": 40, "duration": 14, "velocity": 75}, {"time": 2337, "pitch": 52, "duration": 5, "velocity": 70}, {"time": 2337, "pitch": 55, "duration": 7, "velocity": 72}, {"time": 2337, "pitch": 59, "duration": 7, "velocity": 73}, {"time": 2337, "pitch": 64, "duration": 7, "velocity": 78}, {"time": 2346, "pitch": 52, "duration": 3, "velocity": 51}, {"time": 2349, "pitch": 55, "duration": 4, "velocity": 95}, {"time": 2349, "pitch": 59, "duration": 3, "velocity": 97}, {"time": 2349, "pitch": 64, "duration": 4, "velocity": 80}, {"time": 2352, "pitch": 52, "duration": 2, "velocity": 85}, {"time": 2355, "pitch": 43, "duration": 3, "velocity": 56}, {"time": 2358, "pitch": 44, "duration": 2, "velocity": 69}, {"time": 2361, "pitch": 45, "duration": 15, "velocity": 78}, {"time": 2361, "pitch": 55, "duration": 10, "velocity": 76}, {"time": 2361, "pitch": 60, "duration": 7, "velocity": 78}, {"time": 2361, "pitch": 64, "duration": 8, "velocity": 75}, {"time": 2361, "pitch": 67, "duration": 11, "velocity": 67}, {"time": 2373, "pitch": 55, "duration": 7, "velocity": 78}, {"time": 2373, "pitch": 60, "duration": 7, "velocity": 82}, {"time": 2373, "pitch": 64, "duration": 7, "velocity": 78}, {"time": 2373, "pitch": 67, "duration": 4, "velocity": 61}, {"time": 2379, "pitch": 45, "duration": 5, "velocity": 58}, {"time": 2382, "pitch": 62, "duration": 3, "velocity": 59}, {"time": 2385, "pitch": 38, "duration": 16, "velocity": 75}, {"time": 2385, "pitch": 50, "duration": 5, "velocity": 62}, {"time": 2385, "pitch": 55, "duration": 7, "velocity": 73}, {"time": 2385, "pitch": 60, "duration": 8, "velocity": 78}, {"time": 2385, "pitch": 64, "duration": 8, "velocity": 76}, {"time": 2394, "pitch": 50, "duration": 5, "velocity": 57}, {"time": 2397, "pitch": 55, "duration": 5, "velocity": 80}, {"time": 2397, "pitch": 60, "duration": 5, "velocity": 76}, {"time": 2397, "pitch": 64, "duration": 5, "velocity": 73}, {"time": 2397, "pitch": 67, "duration": 5, "velocity": 60}, {"time": 2403, "pitch": 42, "duration": 1, "velocity": 70}, {"time": 2409, "pitch": 43, "duration": 18, "velocity": 64}, {"time": 2409, "pitch": 43, "duration": 18, "velocity": 76}, {"time": 2409, "pitch": 59, "duration": 8, "velocity": 63}, {"time": 2409, "pitch": 60, "duration": 7, "velocity": 80}, {"time": 2409, "pitch": 62, "duration": 6, "velocity": 64}, {"time": 2409, "pitch": 67, "duration": 6, "velocity": 44}, {"time": 2409, "pitch": 67, "duration": 6, "velocity": 76}, {"time": 2409, "pitch": 69, "duration": 3, "velocity": 43}, {"time": 2412, "pitch": 50, "duration": 12, "velocity": 75}, {"time": 2415, "pitch": 55, "duration": 10, "velocity": 46}, {"time": 2415, "pitch": 55, "duration": 10, "velocity": 78}, {"time": 2418, "pitch": 60, "duration": 5, "velocity": 99}, {"time": 2421, "pitch": 59, "duration": 5, "velocity": 66}, {"time": 2424, "pitch": 62, "duration": 4, "velocity": 97}, {"time": 2427, "pitch": 50, "duration": 4, "velocity": 67}, {"time": 2427, "pitch": 55, "duration": 1, "velocity": 36}, {"time": 2427, "pitch": 67, "duration": 7, "velocity": 72}, {"time": 2430, "pitch": 57, "duration": 2, "velocity": 45}, {"time": 2433, "pitch": 43, "duration": 17, "velocity": 67}, {"time": 2433, "pitch": 55, "duration": 16, "velocity": 73}, {"time": 2433, "pitch": 57, "duration": 10, "velocity": 69}, {"time": 2433, "pitch": 59, "duration": 10, "velocity": 73}, {"time": 2433, "pitch": 62, "duration": 10, "velocity": 70}, {"time": 2433, "pitch": 67, "duration": 1, "velocity": 66}, {"time": 2445, "pitch": 57, "duration": 6, "velocity": 56}, {"time": 2445, "pitch": 59, "duration": 6, "velocity": 62}, {"time": 2445, "pitch": 62, "duration": 6, "velocity": 66}, {"time": 2445, "pitch": 67, "duration": 7, "velocity": 56}, {"time": 2451, "pitch": 43, "duration": 2, "velocity": 45}, {"time": 2451, "pitch": 55, "duration": 2, "velocity": 56}, {"time": 2457, "pitch": 43, "duration": 20, "velocity": 73}, {"time": 2457, "pitch": 59, "duration": 4, "velocity": 91}, {"time": 2457, "pitch": 67, "duration": 5, "velocity": 73}, {"time": 2460, "pitch": 55, "duration": 9, "velocity": 59}, {"time": 2463, "pitch": 57, "duration": 2, "velocity": 69}, {"time": 2466, "pitch": 59, "duration": 2, "velocity": 66}, {"time": 2469, "pitch": 67, "duration": 5, "velocity": 85}, {"time": 2472, "pitch": 55, "duration": 7, "velocity": 57}, {"time": 2475, "pitch": 60, "duration": 4, "velocity": 51}, {"time": 2478, "pitch": 69, "duration": 8, "velocity": 67}, {"time": 2481, "pitch": 43, "duration": 18, "velocity": 62}, {"time": 2484, "pitch": 50, "duration": 14, "velocity": 51}, {"time": 2487, "pitch": 55, "duration": 6, "velocity": 73}, {"time": 2490, "pitch": 59, "duration": 2, "velocity": 76}, {"time": 2493, "pitch": 59, "duration": 3, "velocity": 88}, {"time": 2493, "pitch": 62, "duration": 4, "velocity": 103}, {"time": 2493, "pitch": 67, "duration": 4, "velocity": 80}, {"time": 2496, "pitch": 55, "duration": 2, "velocity": 70}, {"time": 2499, "pitch": 59, "duration": 2, "velocity": 82}, {"time": 2502, "pitch": 67, "duration": 2, "velocity": 73}, {"time": 2505, "pitch": 40, "duration": 22, "velocity": 75}, {"time": 2505, "pitch": 59, "duration": 5, "velocity": 88}, {"time": 2505, "pitch": 62, "duration": 5, "velocity": 95}, {"time": 2505, "pitch": 67, "duration": 5, "velocity": 78}, {"time": 2511, "pitch": 52, "duration": 7, "velocity": 61}, {"time": 2517, "pitch": 57, "duration": 1, "velocity": 95}, {"time": 2517, "pitch": 66, "duration": 2, "velocity": 106}, {"time": 2523, "pitch": 52, "duration": 4, "velocity": 58}, {"time": 2529, "pitch": 40, "duration": 15, "velocity": 67}, {"time": 2529, "pitch": 71, "duration": 1, "velocity": 78}, {"time": 2529, "pitch": 83, "duration": 1, "velocity": 80}, {"time": 2535, "pitch": 47, "duration": 10, "velocity": 62}, {"time": 2535, "pitch": 69, "duration": 1, "velocity": 78}, {"time": 2535, "pitch": 81, "duration": 1, "velocity": 80}, {"time": 2541, "pitch": 52, "duration": 5, "velocity": 75}, {"time": 2541, "pitch": 67, "duration": 1, "velocity": 82}, {"time": 2541, "pitch": 79, "duration": 1, "velocity": 78}, {"time": 2547, "pitch": 66, "duration": 2, "velocity": 78}, {"time": 2547, "pitch": 78, "duration": 3, "velocity": 85}, {"time": 2553, "pitch": 43, "duration": 18, "velocity": 66}, {"time": 2553, "pitch": 67, "duration": 4, "velocity": 95}, {"time": 2553, "pitch": 79, "duration": 3, "velocity": 80}, {"time": 2559, "pitch": 50, "duration": 16, "velocity": 62}, {"time": 2562, "pitch": 55, "duration": 11, "velocity": 64}, {"time": 2565, "pitch": 59, "duration": 2, "velocity": 93}, {"time": 2568, "pitch": 62, "duration": 2, "velocity": 72}, {"time": 2571, "pitch": 66, "duration": 4, "velocity": 91}, {"time": 2574, "pitch": 59, "duration": 1, "velocity": 56}, {"time": 2574, "pitch": 67, "duration": 1, "velocity": 69}, {"time": 2577, "pitch": 43, "duration": 10, "velocity": 67}, {"time": 2577, "pitch": 59, "duration": 3, "velocity": 80}, {"time": 2577, "pitch": 69, "duration": 3, "velocity": 91}, {"time": 2583, "pitch": 50, "duration": 4, "velocity": 67}, {"time": 2583, "pitch": 59, "duration": 3, "velocity": 80}, {"time": 2583, "pitch": 67, "duration": 3, "velocity": 78}, {"time": 2589, "pitch": 59, "duration": 4, "velocity": 73}, {"time": 2589, "pitch": 66, "duration": 4, "velocity": 106}, {"time": 2595, "pitch": 40, "duration": 2, "velocity": 70}, {"time": 2595, "pitch": 62, "duration": 4, "velocity": 56}, {"time": 2601, "pitch": 38, "duration": 6, "velocity": 73}, {"time": 2601, "pitch": 57, "duration": 10, "velocity": 80}, {"time": 2601, "pitch": 62, "duration": 10, "velocity": 97}, {"time": 2601, "pitch": 66, "duration": 8, "velocity": 97}, {"time": 2607, "pitch": 50, "duration": 7, "velocity": 58}, {"time": 2613, "pitch": 52, "duration": 28, "velocity": 66}, {"time": 2613, "pitch": 57, "duration": 5, "velocity": 64}, {"time": 2613, "pitch": 64, "duration": 5, "velocity": 73}, {"time": 2619, "pitch": 54, "duration": 22, "velocity": 60}, {"time": 2619, "pitch": 62, "duration": 1, "velocity": 75}, {"time": 2619, "pitch": 66, "duration": 2, "velocity": 88}, {"time": 2625, "pitch": 60, "duration": 2, "velocity": 34}, {"time": 2625, "pitch": 62, "duration": 2, "velocity": 40}, {"time": 2625, "pitch": 66, "duration": 1, "velocity": 97}, {"time": 2625, "pitch": 69, "duration": 2, "velocity": 91}, {"time": 2637, "pitch": 62, "duration": 3, "velocity": 50}, {"time": 2637, "pitch": 69, "duration": 1, "velocity": 59}, {"time": 2637, "pitch": 78, "duration": 3, "velocity": 106}, {"time": 2640, "pitch": 69, "duration": 2, "velocity": 58}, {"time": 2643, "pitch": 74, "duration": 4, "velocity": 44}, {"time": 2646, "pitch": 78, "duration": 1, "velocity": 48}, {"time": 2649, "pitch": 43, "duration": 21, "velocity": 66}, {"time": 2649, "pitch": 55, "duration": 14, "velocity": 75}, {"time": 2649, "pitch": 57, "duration": 10, "velocity": 75}, {"time": 2649, "pitch": 59, "duration": 10, "velocity": 75}, {"time": 2649, "pitch": 62, "duration": 10, "velocity": 73}, {"time": 2649, "pitch": 67, "duration": 10, "velocity": 70}, {"time": 2649, "pitch": 81, "duration": 1, "velocity": 88}, {"time": 2661, "pitch": 57, "duration": 5, "velocity": 88}, {"time": 2661, "pitch": 59, "duration": 5, "velocity": 99}, {"time": 2661, "pitch": 62, "duration": 5, "velocity": 97}, {"time": 2661, "pitch": 67, "duration": 5, "velocity": 78}, {"time": 2667, "pitch": 55, "duration": 5, "velocity": 56}, {"time": 2673, "pitch": 47, "duration": 5, "velocity": 80}, {"time": 2673, "pitch": 59, "duration": 5, "velocity": 69}, {"time": 2673, "pitch": 63, "duration": 5, "velocity": 95}, {"time": 2673, "pitch": 66, "duration": 6, "velocity": 99}, {"time": 2685, "pitch": 39, "duration": 5, "velocity": 64}, {"time": 2685, "pitch": 51, "duration": 5, "velocity": 70}, {"time": 2685, "pitch": 63, "duration": 5, "velocity": 82}, {"time": 2685, "pitch": 71, "duration": 6, "velocity": 76}, {"time": 2697, "pitch": 40, "duration": 25, "velocity": 75}, {"time": 2697, "pitch": 52, "duration": 5, "velocity": 75}, {"time": 2697, "pitch": 62, "duration": 10, "velocity": 76}, {"time": 2697, "pitch": 67, "duration": 9, "velocity": 85}, {"time": 2697, "pitch": 71, "duration": 6, "velocity": 70}, {"time": 2703, "pitch": 52, "duration": 7, "velocity": 32}, {"time": 2709, "pitch": 62, "duration": 6, "velocity": 76}, {"time": 2709, "pitch": 67, "duration": 6, "velocity": 91}, {"time": 2709, "pitch": 71, "duration": 6, "velocity": 70}, {"time": 2715, "pitch": 52, "duration": 7, "velocity": 46}, {"time": 2721, "pitch": 44, "duration": 10, "velocity": 63}, {"time": 2721, "pitch": 62, "duration": 10, "velocity": 67}, {"time": 2721, "pitch": 67, "duration": 8, "velocity": 85}, {"time": 2721, "pitch": 71, "duration": 8, "velocity": 62}, {"time": 2730, "pitch": 40, "duration": 9, "velocity": 31}, {"time": 2730, "pitch": 52, "duration": 5, "velocity": 31}, {"time": 2733, "pitch": 62, "duration": 5, "velocity": 75}, {"time": 2733, "pitch": 67, "duration": 6, "velocity": 80}, {"time": 2733, "pitch": 71, "duration": 6, "velocity": 73}, {"time": 2739, "pitch": 52, "duration": 1, "velocity": 47}, {"time": 2745, "pitch": 43, "duration": 17, "velocity": 70}, {"time": 2745, "pitch": 55, "duration": 4, "velocity": 66}, {"time": 2745, "pitch": 57, "duration": 12, "velocity": 69}, {"time": 2745, "pitch": 59, "duration": 12, "velocity": 73}, {"time": 2745, "pitch": 62, "duration": 10, "velocity": 70}, {"time": 2745, "pitch": 67, "duration": 13, "velocity": 69}, {"time": 2757, "pitch": 55, "duration": 5, "velocity": 63}, {"time": 2760, "pitch": 57, "duration": 2, "velocity": 82}, {"time": 2763, "pitch": 59, "duration": 2, "velocity": 73}, {"time": 2766, "pitch": 62, "duration": 2, "velocity": 69}, {"time": 2769, "pitch": 38, "duration": 16, "velocity": 70}, {"time": 2769, "pitch": 50, "duration": 3, "velocity": 78}, {"time": 2769, "pitch": 57, "duration": 4, "velocity": 63}, {"time": 2769, "pitch": 62, "duration": 3, "velocity": 72}, {"time": 2769, "pitch": 66, "duration": 4, "velocity": 88}, {"time": 2775, "pitch": 64, "duration": 2, "velocity": 44}, {"time": 2775, "pitch": 67, "duration": 3, "velocity": 36}, {"time": 2781, "pitch": 50, "duration": 4, "velocity": 52}, {"time": 2781, "pitch": 62, "duration": 1, "velocity": 76}, {"time": 2781, "pitch": 66, "duration": 1, "velocity": 99}, {"time": 2781, "pitch": 69, "duration": 2, "velocity": 82}, {"time": 2787, "pitch": 62, "duration": 1, "velocity": 59}, {"time": 2787, "pitch": 66, "duration": 1, "velocity": 82}, {"time": 2787, "pitch": 72, "duration": 3, "velocity": 82}, {"time": 2793, "pitch": 43, "duration": 18, "velocity": 82}, {"time": 2793, "pitch": 57, "duration": 6, "velocity": 78}, {"time": 2793, "pitch": 59, "duration": 10, "velocity": 91}, {"time": 2793, "pitch": 62, "duration": 5, "velocity": 75}, {"time": 2793, "pitch": 67, "duration": 15, "velocity": 82}, {"time": 2799, "pitch": 50, "duration": 8, "velocity": 72}, {"time": 2805, "pitch": 55, "duration": 6, "velocity": 97}, {"time": 2811, "pitch": 50, "duration": 1, "velocity": 97}, {"time": 2811, "pitch": 57, "duration": 1, "velocity": 95}, {"time": 2811, "pitch": 59, "duration": 1, "velocity": 103}, {"time": 2811, "pitch": 62, "duration": 1, "velocity": 99}, {"time": 2817, "pitch": 39, "duration": 18, "velocity": 101}, {"time": 2817, "pitch": 51, "duration": 1, "velocity": 91}, {"time": 2817, "pitch": 55, "duration": 3, "velocity": 99}, {"time": 2817, "pitch": 58, "duration": 4, "velocity": 113}, {"time": 2817, "pitch": 63, "duration": 4, "velocity": 109}, {"time": 2820, "pitch": 51, "duration": 9, "velocity": 97}, {"time": 2823, "pitch": 55, "duration": 2, "velocity": 103}, {"time": 2826, "pitch": 55, "duration": 1, "velocity": 28}, {"time": 2826, "pitch": 58, "duration": 1, "velocity": 113}, {"time": 2829, "pitch": 55, "duration": 3, "velocity": 106}, {"time": 2829, "pitch": 58, "duration": 3, "velocity": 109}, {"time": 2829, "pitch": 61, "duration": 1, "velocity": 118}, {"time": 2829, "pitch": 63, "duration": 4, "velocity": 118}, {"time": 2832, "pitch": 51, "duration": 4, "velocity": 109}, {"time": 2835, "pitch": 55, "duration": 4, "velocity": 106}, {"time": 2835, "pitch": 63, "duration": 1, "velocity": 103}, {"time": 2838, "pitch": 63, "duration": 1, "velocity": 106}, {"time": 2841, "pitch": 44, "duration": 19, "velocity": 63}, {"time": 2841, "pitch": 56, "duration": 17, "velocity": 48}, {"time": 2841, "pitch": 58, "duration": 7, "velocity": 60}, {"time": 2841, "pitch": 60, "duration": 7, "velocity": 54}, {"time": 2841, "pitch": 63, "duration": 7, "velocity": 59}, {"time": 2841, "pitch": 68, "duration": 8, "velocity": 56}, {"time": 2853, "pitch": 58, "duration": 6, "velocity": 60}, {"time": 2853, "pitch": 60, "duration": 6, "velocity": 59}, {"time": 2853, "pitch": 63, "duration": 6, "velocity": 67}, {"time": 2853, "pitch": 68, "duration": 6, "velocity": 50}, {"time": 2865, "pitch": 46, "duration": 17, "velocity": 52}, {"time": 2865, "pitch": 53, "duration": 17, "velocity": 66}, {"time": 2865, "pitch": 56, "duration": 9, "velocity": 59}, {"time": 2865, "pitch": 61, "duration": 9, "velocity": 66}, {"time": 2865, "pitch": 65, "duration": 7, "velocity": 62}, {"time": 2877, "pitch": 56, "duration": 5, "velocity": 54}, {"time": 2877, "pitch": 61, "duration": 5, "velocity": 67}, {"time": 2877, "pitch": 65, "duration": 6, "velocity": 64}, {"time": 2889, "pitch": 44, "duration": 43, "velocity": 73}, {"time": 2889, "pitch": 60, "duration": 6, "velocity": 67}, {"time": 2889, "pitch": 63, "duration": 6, "velocity": 63}, {"time": 2889, "pitch": 68, "duration": 5, "velocity": 72}, {"time": 2895, "pitch": 56, "duration": 7, "velocity": 40}, {"time": 2901, "pitch": 58, "duration": 5, "velocity": 49}, {"time": 2901, "pitch": 60, "duration": 5, "velocity": 59}, {"time": 2901, "pitch": 63, "duration": 5, "velocity": 58}, {"time": 2907, "pitch": 56, "duration": 8, "velocity": 36}, {"time": 2913, "pitch": 58, "duration": 6, "velocity": 40}, {"time": 2913, "pitch": 60, "duration": 6, "velocity": 45}, {"time": 2913, "pitch": 63, "duration": 6, "velocity": 52}, {"time": 2913, "pitch": 68, "duration": 8, "velocity": 47}, {"time": 2919, "pitch": 56, "duration": 8, "velocity": 27}, {"time": 2925, "pitch": 58, "duration": 5, "velocity": 62}, {"time": 2925, "pitch": 60, "duration": 5, "velocity": 64}, {"time": 2925, "pitch": 63, "duration": 5, "velocity": 72}, {"time": 2925, "pitch": 68, "duration": 5, "velocity": 60}, {"time": 2931, "pitch": 56, "duration": 3, "velocity": 42}, {"time": 2934, "pitch": 51, "duration": 3, "velocity": 53}, {"time": 2937, "pitch": 44, "duration": 19, "velocity": 73}, {"time": 2937, "pitch": 58, "duration": 6, "velocity": 66}, {"time": 2937, "pitch": 60, "duration": 6, "velocity": 66}, {"time": 2937, "pitch": 63, "duration": 6, "velocity": 75}, {"time": 2937, "pitch": 68, "duration": 6, "velocity": 60}, {"time": 2943, "pitch": 56, "duration": 8, "velocity": 37}, {"time": 2949, "pitch": 58, "duration": 5, "velocity": 60}, {"time": 2949, "pitch": 60, "duration": 5, "velocity": 66}, {"time": 2949, "pitch": 63, "duration": 5, "velocity": 73}, {"time": 2949, "pitch": 68, "duration": 3, "velocity": 46}, {"time": 2955, "pitch": 56, "duration": 1, "velocity": 63}, {"time": 2961, "pitch": 41, "duration": 16, "velocity": 72}, {"time": 2961, "pitch": 56, "duration": 6, "velocity": 60}, {"time": 2961, "pitch": 60, "duration": 6, "velocity": 64}, {"time": 2961, "pitch": 63, "duration": 6, "velocity": 66}, {"time": 2967, "pitch": 53, "duration": 8, "velocity": 37}, {"time": 2973, "pitch": 56, "duration": 5, "velocity": 66}, {"time": 2973, "pitch": 60, "duration": 5, "velocity": 70}, {"time": 2973, "pitch": 63, "duration": 6, "velocity": 72}, {"time": 2979, "pitch": 53, "duration": 6, "velocity": 48}, {"time": 2985, "pitch": 44, "duration": 11, "velocity": 63}, {"time": 2985, "pitch": 58, "duration": 7, "velocity": 60}, {"time": 2985, "pitch": 60, "duration": 7, "velocity": 67}, {"time": 2985, "pitch": 63, "duration": 7, "velocity": 70}, {"time": 2985, "pitch": 68, "duration": 10, "velocity": 64}, {"time": 2991, "pitch": 51, "duration": 6, "velocity": 48}, {"time": 2997, "pitch": 56, "duration": 6, "velocity": 59}, {"time": 3003, "pitch": 58, "duration": 17, "velocity": 63}, {"time": 3009, "pitch": 60, "duration": 10, "velocity": 66}, {"time": 3015, "pitch": 63, "duration": 5, "velocity": 82}, {"time": 3021, "pitch": 68, "duration": 5, "velocity": 57}, {"time": 3027, "pitch": 72, "duration": 5, "velocity": 57}, {"time": 3033, "pitch": 46, "duration": 41, "velocity": 63}, {"time": 3033, "pitch": 65, "duration": 5, "velocity": 63}, {"time": 3033, "pitch": 68, "duration": 5, "velocity": 67}, {"time": 3033, "pitch": 73, "duration": 5, "velocity": 78}, {"time": 3039, "pitch": 53, "duration": 7, "velocity": 39}, {"time": 3045, "pitch": 58, "duration": 14, "velocity": 51}, {"time": 3045, "pitch": 61, "duration": 5, "velocity": 63}, {"time": 3045, "pitch": 65, "duration": 5, "velocity": 57}, {"time": 3045, "pitch": 68, "duration": 5, "velocity": 60}, {"time": 3051, "pitch": 53, "duration": 19, "velocity": 42}, {"time": 3057, "pitch": 61, "duration": 6, "velocity": 59}, {"time": 3057, "pitch": 65, "duration": 7, "velocity": 55}, {"time": 3057, "pitch": 68, "duration": 5, "velocity": 59}, {"time": 3063, "pitch": 58, "duration": 10, "velocity": 35}, {"time": 3069, "pitch": 61, "duration": 4, "velocity": 66}, {"time": 3069, "pitch": 65, "duration": 4, "velocity": 66}, {"time": 3069, "pitch": 68, "duration": 4, "velocity": 72}, {"time": 3075, "pitch": 53, "duration": 3, "velocity": 50}, {"time": 3081, "pitch": 44, "duration": 10, "velocity": 64}, {"time": 3081, "pitch": 60, "duration": 7, "velocity": 69}, {"time": 3081, "pitch": 63, "duration": 7, "velocity": 72}, {"time": 3081, "pitch": 68, "duration": 6, "velocity": 66}, {"time": 3087, "pitch": 51, "duration": 4, "velocity": 44}, {"time": 3093, "pitch": 60, "duration": 7, "velocity": 72}, {"time": 3093, "pitch": 63, "duration": 5, "velocity": 73}, {"time": 3093, "pitch": 68, "duration": 5, "velocity": 70}, {"time": 3105, "pitch": 41, "duration": 18, "velocity": 61}, {"time": 3105, "pitch": 53, "duration": 14, "velocity": 56}, {"time": 3105, "pitch": 60, "duration": 7, "velocity": 67}, {"time": 3105, "pitch": 63, "duration": 7, "velocity": 73}, {"time": 3105, "pitch": 68, "duration": 8, "velocity": 69}, {"time": 3117, "pitch": 60, "duration": 7, "velocity": 73}, {"time": 3117, "pitch": 63, "duration": 6, "velocity": 73}, {"time": 3117, "pitch": 68, "duration": 5, "velocity": 75}, {"time": 3123, "pitch": 53, "duration": 2, "velocity": 64}, {"time": 3129, "pitch": 44, "duration": 17, "velocity": 64}, {"time": 3129, "pitch": 60, "duration": 6, "velocity": 82}, {"time": 3129, "pitch": 63, "duration": 6, "velocity": 76}, {"time": 3129, "pitch": 68, "duration": 6, "velocity": 73}, {"time": 3135, "pitch": 51, "duration": 6, "velocity": 55}, {"time": 3141, "pitch": 56, "duration": 3, "velocity": 53}, {"time": 3141, "pitch": 58, "duration": 6, "velocity": 76}, {"time": 3141, "pitch": 60, "duration": 5, "velocity": 82}, {"time": 3141, "pitch": 63, "duration": 6, "velocity": 72}, {"time": 3141, "pitch": 68, "duration": 4, "velocity": 67}, {"time": 3147, "pitch": 51, "duration": 1, "velocity": 66}, {"time": 3153, "pitch": 44, "duration": 16, "velocity": 61}, {"time": 3153, "pitch": 56, "duration": 14, "velocity": 70}, {"time": 3153, "pitch": 60, "duration": 8, "velocity": 70}, {"time": 3153, "pitch": 63, "duration": 6, "velocity": 76}, {"time": 3153, "pitch": 68, "duration": 9, "velocity": 69}, {"time": 3165, "pitch": 60, "duration": 7, "velocity": 93}, {"time": 3165, "pitch": 63, "duration": 6, "velocity": 99}, {"time": 3165, "pitch": 68, "duration": 6, "velocity": 82}, {"time": 3171, "pitch": 44, "duration": 1, "velocity": 72}, {"time": 3171, "pitch": 56, "duration": 1, "velocity": 63}, {"time": 3177, "pitch": 39, "duration": 22, "velocity": 75}, {"time": 3177, "pitch": 51, "duration": 4, "velocity": 72}, {"time": 3177, "pitch": 58, "duration": 9, "velocity": 78}, {"time": 3177, "pitch": 63, "duration": 6, "velocity": 85}, {"time": 3177, "pitch": 67, "duration": 9, "velocity": 80}, {"time": 3177, "pitch": 70, "duration": 9, "velocity": 69}, {"time": 3183, "pitch": 51, "duration": 7, "velocity": 58}, {"time": 3189, "pitch": 58, "duration": 6, "velocity": 80}, {"time": 3189, "pitch": 63, "duration": 8, "velocity": 99}, {"time": 3189, "pitch": 67, "duration": 6, "velocity": 82}, {"time": 3189, "pitch": 70, "duration": 10, "velocity": 78}, {"time": 3195, "pitch": 51, "duration": 3, "velocity": 78}, {"time": 3201, "pitch": 39, "duration": 2, "velocity": 72}, {"time": 3201, "pitch": 51, "duration": 3, "velocity": 93}, {"time": 3201, "pitch": 58, "duration": 2, "velocity": 91}, {"time": 3201, "pitch": 63, "duration": 5, "velocity": 95}, {"time": 3201, "pitch": 70, "duration": 2, "velocity": 66}, {"time": 3207, "pitch": 41, "duration": 4, "velocity": 72}, {"time": 3207, "pitch": 53, "duration": 5, "velocity": 75}, {"time": 3207, "pitch": 60, "duration": 4, "velocity": 85}, {"time": 3207, "pitch": 65, "duration": 5, "velocity": 93}, {"time": 3213, "pitch": 43, "duration": 7, "velocity": 75}, {"time": 3213, "pitch": 55, "duration": 4, "velocity": 93}, {"time": 3213, "pitch": 63, "duration": 3, "velocity": 88}, {"time": 3213, "pitch": 65, "duration": 1, "velocity": 35}, {"time": 3213, "pitch": 67, "duration": 6, "velocity": 88}, {"time": 3219, "pitch": 55, "duration": 1, "velocity": 38}, {"time": 3219, "pitch": 63, "duration": 1, "velocity": 63}, {"time": 3219, "pitch": 70, "duration": 2, "velocity": 73}, {"time": 3225, "pitch": 44, "duration": 19, "velocity": 63}, {"time": 3225, "pitch": 56, "duration": 17, "velocity": 48}, {"time": 3225, "pitch": 58, "duration": 7, "velocity": 60}, {"time": 3225, "pitch": 60, "duration": 7, "velocity": 54}, {"time": 3225, "pitch": 63, "duration": 7, "velocity": 59}, {"time": 3225, "pitch": 68, "duration": 8, "velocity": 56}, {"time": 3237, "pitch": 58, "duration": 6, "velocity": 60}, {"time": 3237, "pitch": 60, "duration": 6, "velocity": 59}, {"time": 3237, "pitch": 63, "duration": 6, "velocity": 67}, {"time": 3237, "pitch": 68, "duration": 6, "velocity": 50}, {"time": 3249, "pitch": 46, "duration": 17, "velocity": 52}, {"time": 3249, "pitch": 53, "duration": 17, "velocity": 66}, {"time": 3249, "pitch": 56, "duration": 9, "velocity": 59}, {"time": 3249, "pitch": 61, "duration": 9, "velocity": 66}, {"time": 3249, "pitch": 65, "duration": 7, "velocity": 62}, {"time": 3261, "pitch": 56, "duration": 5, "velocity": 54}, {"time": 3261, "pitch": 61, "duration": 5, "velocity": 67}, {"time": 3261, "pitch": 65, "duration": 6, "velocity": 64}, {"time": 3273, "pitch": 44, "duration": 43, "velocity": 73}, {"time": 3273, "pitch": 60, "duration": 6, "velocity": 67}, {"time": 3273, "pitch": 63, "duration": 6, "velocity": 63}, {"time": 3273, "pitch": 68, "duration": 5, "velocity": 72}, {"time": 3279, "pitch": 56, "duration": 7, "velocity": 40}, {"time": 3285, "pitch": 58, "duration": 5, "velocity": 49}, {"time": 3285, "pitch": 60, "duration": 5, "velocity": 59}, {"time": 3285, "pitch": 63, "duration": 5, "velocity": 58}, {"time": 3291, "pitch": 56, "duration": 8, "velocity": 36}, {"time": 3297, "pitch": 58, "duration": 6, "velocity": 40}, {"time": 3297, "pitch": 60, "duration": 6, "velocity": 45}, {"time": 3297, "pitch": 63, "duration": 6, "velocity": 52}, {"time": 3297, "pitch": 68, "duration": 8, "velocity": 47}, {"time": 3303, "pitch": 56, "duration": 8, "velocity": 27}, {"time": 3309, "pitch": 58, "duration": 5, "velocity": 62}, {"time": 3309, "pitch": 60, "duration": 5, "velocity": 64}, {"time": 3309, "pitch": 63, "duration": 5, "velocity": 72}, {"time": 3309, "pitch": 68, "duration": 5, "velocity": 60}, {"time": 3315, "pitch": 56, "duration": 3, "velocity": 42}, {"time": 3318, "pitch": 51, "duration": 3, "velocity": 53}, {"time": 3321, "pitch": 44, "duration": 19, "velocity": 73}, {"time": 3321, "pitch": 58, "duration": 6, "velocity": 66}, {"time": 3321, "pitch": 60, "duration": 6, "velocity": 66}, {"time": 3321, "pitch": 63, "duration": 6, "velocity": 75}, {"time": 3321, "pitch": 68, "duration": 6, "velocity": 60}, {"time": 3327, "pitch": 56, "duration": 8, "velocity": 37}, {"time": 3333, "pitch": 58, "duration": 5, "velocity": 60}, {"time": 3333, "pitch": 60, "duration": 5, "velocity": 66}, {"time": 3333, "pitch": 63, "duration": 5, "velocity": 73}, {"time": 3333, "pitch": 68, "duration": 3, "velocity": 46}, {"time": 3339, "pitch": 56, "duration": 1, "velocity": 63}, {"time": 3345, "pitch": 41, "duration": 16, "velocity": 72}, {"time": 3345, "pitch": 56, "duration": 6, "velocity": 60}, {"time": 3345, "pitch": 60, "duration": 6, "velocity": 64}, {"time": 3345, "pitch": 63, "duration": 6, "velocity": 66}, {"time": 3351, "pitch": 53, "duration": 8, "velocity": 37}, {"time": 3357, "pitch": 56, "duration": 5, "velocity": 66}, {"time": 3357, "pitch": 60, "duration": 5, "velocity": 70}, {"time": 3357, "pitch": 63, "duration": 6, "velocity": 72}, {"time": 3363, "pitch": 53, "duration": 6, "velocity": 48}, {"time": 3369, "pitch": 44, "duration": 11, "velocity": 63}, {"time": 3369, "pitch": 58, "duration": 7, "velocity": 60}, {"time": 3369, "pitch": 60, "duration": 7, "velocity": 67}, {"time": 3369, "pitch": 63, "duration": 7, "velocity": 70}, {"time": 3369, "pitch": 68, "duration": 10, "velocity": 64}, {"time": 3375, "pitch": 51, "duration": 6, "velocity": 48}, {"time": 3381, "pitch": 56, "duration": 6, "velocity": 59}, {"time": 3387, "pitch": 58, "duration": 17, "velocity": 63}, {"time": 3393, "pitch": 60, "duration": 10, "velocity": 66}, {"time": 3399, "pitch": 63, "duration": 5, "velocity": 82}, {"time": 3405, "pitch": 68, "duration": 5, "velocity": 57}, {"time": 3411, "pitch": 72, "duration": 5, "velocity": 57}, {"time": 3417, "pitch": 46, "duration": 41, "velocity": 63}, {"time": 3417, "pitch": 65, "duration": 5, "velocity": 63}, {"time": 3417, "pitch": 68, "duration": 5, "velocity": 67}, {"time": 3417, "pitch": 73, "duration": 5, "velocity": 78}, {"time": 3423, "pitch": 53, "duration": 7, "velocity": 39}, {"time": 3429, "pitch": 58, "duration": 14, "velocity": 51}, {"time": 3429, "pitch": 61, "duration": 5, "velocity": 63}, {"time": 3429, "pitch": 65, "duration": 5, "velocity": 57}, {"time": 3429, "pitch": 68, "duration": 5, "velocity": 60}, {"time": 3435, "pitch": 53, "duration": 19, "velocity": 42}, {"time": 3441, "pitch": 61, "duration": 6, "velocity": 59}, {"time": 3441, "pitch": 65, "duration": 7, "velocity": 55}, {"time": 3441, "pitch": 68, "duration": 5, "velocity": 59}, {"time": 3447, "pitch": 58, "duration": 10, "velocity": 35}, {"time": 3453, "pitch": 61, "duration": 4, "velocity": 66}, {"time": 3453, "pitch": 65, "duration": 4, "velocity": 66}, {"time": 3453, "pitch": 68, "duration": 4, "velocity": 72}, {"time": 3459, "pitch": 53, "duration": 3, "velocity": 50}, {"time": 3465, "pitch": 44, "duration": 10, "velocity": 64}, {"time": 3465, "pitch": 60, "duration": 7, "velocity": 69}, {"time": 3465, "pitch": 63, "duration": 7, "velocity": 72}, {"time": 3465, "pitch": 68, "duration": 6, "velocity": 66}, {"time": 3471, "pitch": 51, "duration": 4, "velocity": 44}, {"time": 3477, "pitch": 60, "duration": 7, "velocity": 72}, {"time": 3477, "pitch": 63, "duration": 5, "velocity": 73}, {"time": 3477, "pitch": 68, "duration": 5, "velocity": 70}, {"time": 3489, "pitch": 41, "duration": 18, "velocity": 61}, {"time": 3489, "pitch": 53, "duration": 14, "velocity": 56}, {"time": 3489, "pitch": 60, "duration": 7, "velocity": 67}, {"time": 3489, "pitch": 63, "duration": 7, "velocity": 73}, {"time": 3489, "pitch": 68, "duration": 8, "velocity": 69}, {"time": 3501, "pitch": 60, "duration": 7, "velocity": 73}, {"time": 3501, "pitch": 63, "duration": 6, "velocity": 73}, {"time": 3501, "pitch": 68, "duration": 5, "velocity": 75}, {"time": 3507, "pitch": 53, "duration": 2, "velocity": 64}, {"time": 3513, "pitch": 44, "duration": 17, "velocity": 64}, {"time": 3513, "pitch": 60, "duration": 6, "velocity": 82}, {"time": 3513, "pitch": 63, "duration": 6, "velocity": 76}, {"time": 3513, "pitch": 68, "duration": 6, "velocity": 73}, {"time": 3519, "pitch": 51, "duration": 6, "velocity": 55}, {"time": 3525, "pitch": 56, "duration": 3, "velocity": 53}, {"time": 3525, "pitch": 58, "duration": 6, "velocity": 76}, {"time": 3525, "pitch": 60, "duration": 5, "velocity": 82}, {"time": 3525, "pitch": 63, "duration": 6, "velocity": 72}, {"time": 3525, "pitch": 68, "duration": 4, "velocity": 67}, {"time": 3531, "pitch": 51, "duration": 1, "velocity": 66}, {"time": 3537, "pitch": 39, "duration": 13, "velocity": 72}, {"time": 3537, "pitch": 58, "duration": 6, "velocity": 62}, {"time": 3537, "pitch": 63, "duration": 6, "velocity": 63}, {"time": 3537, "pitch": 67, "duration": 6, "velocity": 73}, {"time": 3543, "pitch": 51, "duration": 8, "velocity": 39}, {"time": 3549, "pitch": 43, "duration": 4, "velocity": 75}, {"time": 3549, "pitch": 58, "duration": 6, "velocity": 75}, {"time": 3549, "pitch": 63, "duration": 6, "velocity": 88}, {"time": 3549, "pitch": 67, "duration": 6, "velocity": 78}, {"time": 3561, "pitch": 44, "duration": 19, "velocity": 69}, {"time": 3561, "pitch": 58, "duration": 6, "velocity": 62}, {"time": 3561, "pitch": 60, "duration": 6, "velocity": 66}, {"time": 3561, "pitch": 63, "duration": 5, "velocity": 60}, {"time": 3561, "pitch": 68, "duration": 6, "velocity": 70}, {"time": 3567, "pitch": 51, "duration": 17, "velocity": 63}, {"time": 3570, "pitch": 56, "duration": 12, "velocity": 75}, {"time": 3573, "pitch": 58, "duration": 2, "velocity": 76}, {"time": 3576, "pitch": 60, "duration": 2, "velocity": 64}, {"time": 3579, "pitch": 63, "duration": 1, "velocity": 75}, {"time": 3582, "pitch": 68, "duration": 2, "velocity": 75}, {"time": 3585, "pitch": 44, "duration": 18, "velocity": 64}, {"time": 3585, "pitch": 70, "duration": 3, "velocity": 51}, {"time": 3588, "pitch": 51, "duration": 15, "velocity": 63}, {"time": 3588, "pitch": 72, "duration": 1, "velocity": 69}, {"time": 3591, "pitch": 75, "duration": 2, "velocity": 67}, {"time": 3594, "pitch": 80, "duration": 2, "velocity": 69}, {"time": 3597, "pitch": 56, "duration": 5, "velocity": 43}, {"time": 3597, "pitch": 82, "duration": 2, "velocity": 70}, {"time": 3600, "pitch": 84, "duration": 3, "velocity": 54}, {"time": 3603, "pitch": 87, "duration": 3, "velocity": 69}, {"time": 3606, "pitch": 84, "duration": 3, "velocity": 64}], "annotations": [{"time": 8, "annotation": {"number": 64, "value": 127}, "group": "control_change"}, {"time": 103, "annotation": {"number": 64, "value": 0}, "group": "control_change"}, {"time": 105, "annotation": {"number": 64, "value": 127}, "group": "control_change"}, {"time": 152, "annotation": {"number": 64, "value": 0}, "group": "control_change"}, {"time": 155, "annotation": {"number": 64, "value": 127}, "group": "control_change"}, {"time": 202, "annotation": {"number": 64, "value": 0}, "group": "control_change"}, {"time": 204, "annotation": {"number": 64, "value": 127}, "group": "control_change"}, {"time": 249, "annotation": {"number": 64, "value": 0}, "group": "control_change"}, {"time": 251, "annotation": {"number": 64, "value": 127}, "group": "control_change"}, {"time": 297, "annotation": {"number": 64, "value": 0}, "group": "control_change"}, {"time": 299, "annotation": {"number": 64, "value": 127}, "group": "control_change"}, {"time": 301, "annotation": {"number": 64, "value": 0}, "group": "control_change"}, {"time": 302, "annotation": {"number": 64, "value": 127}, "group": "control_change"}, {"time": 345, "annotation": {"number": 64, "value": 0}, "group": "control_change"}, {"time": 348, "annotation": {"number": 64, "value": 127}, "group": "control_change"}, {"time": 349, "annotation": {"number": 64, "value": 0}, "group": "control_change"}, {"time": 351, "annotation": {"number": 64, "value": 127}, "group": "control_change"}, {"time": 373, "annotation": {"number": 64, "value": 0}, "group": "control_change"}, {"time": 386, "annotation": {"number": 64, "value": 127}, "group": "control_change"}, {"time": 394, "annotation": {"number": 64, "value": 0}, "group": "control_change"}, {"time": 397, "annotation": {"number": 64, "value": 127}, "group": "control_change"}, {"time": 398, "annotation": {"number": 64, "value": 0}, "group": "control_change"}, {"time": 399, "annotation": {"number": 64, "value": 127}, "group": "control_change"}, {"time": 439, "annotation": {"number": 64, "value": 0}, "group": "control_change"}, {"time": 442, "annotation": {"number": 64, "value": 127}, "group": "control_change"}, {"time": 507, "annotation": {"number": 64, "value": 0}, "group": "control_change"}, {"time": 539, "annotation": {"number": 64, "value": 127}, "group": "control_change"}, {"time": 560, "annotation": {"number": 64, "value": 0}, "group": "control_change"}, {"time": 566, "annotation": {"number": 64, "value": 127}, "group": "control_change"}, {"time": 584, "annotation": {"number": 64, "value": 0}, "group": "control_change"}, {"time": 590, "annotation": {"number": 64, "value": 127}, "group": "control_change"}, {"time": 632, "annotation": {"number": 64, "value": 0}, "group": "control_change"}, {"time": 634, "annotation": {"number": 64, "value": 127}, "group": "control_change"}, {"time": 651, "annotation": {"number": 64, "value": 0}, "group": "control_change"}, {"time": 662, "annotation": {"number": 64, "value": 127}, "group": "control_change"}, {"time": 680, "annotation": {"number": 64, "value": 0}, "group": "control_change"}, {"time": 681, "annotation": {"number": 64, "value": 127}, "group": "control_change"}, {"time": 729, "annotation": {"number": 64, "value": 0}, "group": "control_change"}, {"time": 734, "annotation": {"number": 64, "value": 127}, "group": "control_change"}, {"time": 758, "annotation": {"number": 64, "value": 0}, "group": "control_change"}, {"time": 765, "annotation": {"number": 64, "value": 124}, "group": "control_change"}, {"time": 777, "annotation": {"number": 64, "value": 0}, "group": "control_change"}, {"time": 782, "annotation": {"number": 64, "value": 127}, "group": "control_change"}, {"time": 824, "annotation": {"number": 64, "value": 0}, "group": "control_change"}, {"time": 827, "annotation": {"number": 64, "value": 127}, "group": "control_change"}, {"time": 857, "annotation": {"number": 64, "value": 0}, "group": "control_change"}, {"time": 857, "annotation": {"number": 64, "value": 127}, "group": "control_change"}, {"time": 925, "annotation": {"number": 64, "value": 127}, "group": "control_change"}, {"time": 957, "annotation": {"number": 64, "value": 0}, "group": "control_change"}, {"time": 960, "annotation": {"number": 64, "value": 127}, "group": "control_change"}, {"time": 969, "annotation": {"number": 64, "value": 0}, "group": "control_change"}, {"time": 974, "annotation": {"number": 64, "value": 127}, "group": "control_change"}, {"time": 978, "annotation": {"number": 64, "value": 0}, "group": "control_change"}, {"time": 979, "annotation": {"number": 64, "value": 127}, "group": "control_change"}, {"time": 1001, "annotation": {"number": 64, "value": 127}, "group": "control_change"}, {"time": 1016, "annotation": {"number": 64, "value": 0}, "group": "control_change"}, {"time": 1017, "annotation": {"number": 64, "value": 0}, "group": "control_change"}, {"time": 1021, "annotation": {"number": 64, "value": 127}, "group": "control_change"}, {"time": 1041, "annotation": {"number": 64, "value": 0}, "group": "control_change"}, {"time": 1046, "annotation": {"number": 64, "value": 127}, "group": "control_change"}, {"time": 1066, "annotation": {"number": 64, "value": 0}, "group": "control_change"}, {"time": 1071, "annotation": {"number": 64, "value": 127}, "group": "control_change"}, {"time": 1113, "annotation": {"number": 64, "value": 0}, "group": "control_change"}, {"time": 1117, "annotation": {"number": 64, "value": 127}, "group": "control_change"}, {"time": 1161, "annotation": {"number": 64, "value": 0}, "group": "control_change"}, {"time": 1166, "annotation": {"number": 64, "value": 127}, "group": "control_change"}, {"time": 1208, "annotation": {"number": 64, "value": 0}, "group": "control_change"}, {"time": 1215, "annotation": {"number": 64, "value": 127}, "group": "control_change"}, {"time": 1234, "annotation": {"number": 64, "value": 0}, "group": "control_change"}, {"time": 1239, "annotation": {"number": 64, "value": 127}, "group": "control_change"}, {"time": 1257, "annotation": {"number": 64, "value": 0}, "group": "control_change"}, {"time": 1263, "annotation": {"number": 64, "value": 127}, "group": "control_change"}, {"time": 1284, "annotation": {"number": 64, "value": 0}, "group": "control_change"}, {"time": 1284, "annotation": {"number": 64, "value": 127}, "group": "control_change"}, {"time": 1285, "annotation": {"number": 64, "value": 0}, "group": "control_change"}, {"time": 1285, "annotation": {"number": 64, "value": 127}, "group": "control_change"}, {"time": 1306, "annotation": {"number": 64, "value": 127}, "group": "control_change"}, {"time": 1354, "annotation": {"number": 64, "value": 0}, "group": "control_change"}, {"time": 1356, "annotation": {"number": 64, "value": 127}, "group": "control_change"}, {"time": 1400, "annotation": {"number": 64, "value": 0}, "group": "control_change"}, {"time": 1402, "annotation": {"number": 64, "value": 127}, "group": "control_change"}, {"time": 1448, "annotation": {"number": 64, "value": 0}, "group": "control_change"}, {"time": 1451, "annotation": {"number": 64, "value": 127}, "group": "control_change"}, {"time": 1483, "annotation": {"number": 64, "value": 0}, "group": "control_change"}, {"time": 1496, "annotation": {"number": 64, "value": 0}, "group": "control_change"}, {"time": 1497, "annotation": {"number": 64, "value": 127}, "group": "control_change"}, {"time": 1498, "annotation": {"number": 64, "value": 127}, "group": "control_change"}, {"time": 1509, "annotation": {"number": 64, "value": 0}, "group": "control_change"}, {"time": 1521, "annotation": {"number": 64, "value": 0}, "group": "control_change"}, {"time": 1523, "annotation": {"number": 64, "value": 127}, "group": "control_change"}, {"time": 1534, "annotation": {"number": 64, "value": 0}, "group": "control_change"}, {"time": 1536, "annotation": {"number": 64, "value": 127}, "group": "control_change"}, {"time": 1545, "annotation": {"number": 64, "value": 0}, "group": "control_change"}, {"time": 1547, "annotation": {"number": 64, "value": 127}, "group": "control_change"}, {"time": 1570, "annotation": {"number": 64, "value": 0}, "group": "control_change"}, {"time": 1572, "annotation": {"number": 64, "value": 127}, "group": "control_change"}, {"time": 1593, "annotation": {"number": 64, "value": 127}, "group": "control_change"}, {"time": 1618, "annotation": {"number": 64, "value": 0}, "group": "control_change"}, {"time": 1620, "annotation": {"number": 64, "value": 127}, "group": "control_change"}, {"time": 1641, "annotation": {"number": 64, "value": 0}, "group": "control_change"}, {"time": 1644, "annotation": {"number": 64, "value": 106}, "group": "control_change"}, {"time": 1689, "annotation": {"number": 64, "value": 0}, "group": "control_change"}, {"time": 1691, "annotation": {"number": 64, "value": 127}, "group": "control_change"}, {"time": 1713, "annotation": {"number": 64, "value": 0}, "group": "control_change"}, {"time": 1716, "annotation": {"number": 64, "value": 127}, "group": "control_change"}, {"time": 1738, "annotation": {"number": 64, "value": 0}, "group": "control_change"}, {"time": 1741, "annotation": {"number": 64, "value": 127}, "group": "control_change"}, {"time": 1785, "annotation": {"number": 64, "value": 0}, "group": "control_change"}, {"time": 1788, "annotation": {"number": 64, "value": 127}, "group": "control_change"}, {"time": 1810, "annotation": {"number": 64, "value": 0}, "group": "control_change"}, {"time": 1813, "annotation": {"number": 64, "value": 127}, "group": "control_change"}, {"time": 1834, "annotation": {"number": 64, "value": 0}, "group": "control_change"}, {"time": 1836, "annotation": {"number": 64, "value": 127}, "group": "control_change"}, {"time": 1882, "annotation": {"number": 64, "value": 0}, "group": "control_change"}, {"time": 1885, "annotation": {"number": 64, "value": 127}, "group": "control_change"}, {"time": 1930, "annotation": {"number": 64, "value": 0}, "group": "control_change"}, {"time": 1933, "annotation": {"number": 64, "value": 127}, "group": "control_change"}, {"time": 1953, "annotation": {"number": 64, "value": 0}, "group": "control_change"}, {"time": 1955, "annotation": {"number": 64, "value": 127}, "group": "control_change"}, {"time": 1977, "annotation": {"number": 64, "value": 0}, "group": "control_change"}, {"time": 1980, "annotation": {"number": 64, "value": 127}, "group": "control_change"}, {"time": 2001, "annotation": {"number": 64, "value": 0}, "group": "control_change"}, {"time": 2004, "annotation": {"number": 64, "value": 127}, "group": "control_change"}, {"time": 2024, "annotation": {"number": 64, "value": 0}, "group": "control_change"}, {"time": 2028, "annotation": {"number": 64, "value": 127}, "group": "control_change"}, {"time": 2072, "annotation": {"number": 64, "value": 127}, "group": "control_change"}, {"time": 2072, "annotation": {"number": 64, "value": 0}, "group": "control_change"}, {"time": 2123, "annotation": {"number": 64, "value": 0}, "group": "control_change"}, {"time": 2126, "annotation": {"number": 64, "value": 127}, "group": "control_change"}, {"time": 2170, "annotation": {"number": 64, "value": 0}, "group": "control_change"}, {"time": 2173, "annotation": {"number": 64, "value": 127}, "group": "control_change"}, {"time": 2216, "annotation": {"number": 64, "value": 0}, "group": "control_change"}, {"time": 2218, "annotation": {"number": 64, "value": 127}, "group": "control_change"}, {"time": 2266, "annotation": {"number": 64, "value": 0}, "group": "control_change"}, {"time": 2268, "annotation": {"number": 64, "value": 121}, "group": "control_change"}, {"time": 2286, "annotation": {"number": 64, "value": 0}, "group": "control_change"}, {"time": 2289, "annotation": {"number": 64, "value": 127}, "group": "control_change"}, {"time": 2313, "annotation": {"number": 64, "value": 0}, "group": "control_change"}, {"time": 2316, "annotation": {"number": 64, "value": 127}, "group": "control_change"}, {"time": 2338, "annotation": {"number": 64, "value": 0}, "group": "control_change"}, {"time": 2341, "annotation": {"number": 64, "value": 127}, "group": "control_change"}, {"time": 2360, "annotation": {"number": 64, "value": 0}, "group": "control_change"}, {"time": 2363, "annotation": {"number": 64, "value": 127}, "group": "control_change"}, {"time": 2386, "annotation": {"number": 64, "value": 0}, "group": "control_change"}, {"time": 2389, "annotation": {"number": 64, "value": 127}, "group": "control_change"}, {"time": 2408, "annotation": {"number": 64, "value": 64}, "group": "control_change"}, {"time": 2408, "annotation": {"number": 64, "value": 60}, "group": "control_change"}, {"time": 2408, "annotation": {"number": 64, "value": 48}, "group": "control_change"}, {"time": 2409, "annotation": {"number": 64, "value": 32}, "group": "control_change"}, {"time": 2409, "annotation": {"number": 64, "value": 16}, "group": "control_change"}, {"time": 2409, "annotation": {"number": 64, "value": 0}, "group": "control_change"}, {"time": 2411, "annotation": {"number": 64, "value": 127}, "group": "control_change"}, {"time": 2412, "annotation": {"number": 64, "value": 127}, "group": "control_change"}, {"time": 2432, "annotation": {"number": 64, "value": 0}, "group": "control_change"}, {"time": 2433, "annotation": {"number": 64, "value": 127}, "group": "control_change"}, {"time": 2457, "annotation": {"number": 64, "value": 0}, "group": "control_change"}, {"time": 2458, "annotation": {"number": 64, "value": 127}, "group": "control_change"}, {"time": 2506, "annotation": {"number": 64, "value": 0}, "group": "control_change"}, {"time": 2508, "annotation": {"number": 64, "value": 127}, "group": "control_change"}, {"time": 2552, "annotation": {"number": 64, "value": 0}, "group": "control_change"}, {"time": 2554, "annotation": {"number": 64, "value": 127}, "group": "control_change"}, {"time": 2600, "annotation": {"number": 64, "value": 0}, "group": "control_change"}, {"time": 2603, "annotation": {"number": 64, "value": 127}, "group": "control_change"}, {"time": 2635, "annotation": {"number": 64, "value": 0}, "group": "control_change"}, {"time": 2648, "annotation": {"number": 64, "value": 0}, "group": "control_change"}, {"time": 2649, "annotation": {"number": 64, "value": 127}, "group": "control_change"}, {"time": 2650, "annotation": {"number": 64, "value": 127}, "group": "control_change"}, {"time": 2661, "annotation": {"number": 64, "value": 0}, "group": "control_change"}, {"time": 2673, "annotation": {"number": 64, "value": 0}, "group": "control_change"}, {"time": 2675, "annotation": {"number": 64, "value": 127}, "group": "control_change"}, {"time": 2686, "annotation": {"number": 64, "value": 0}, "group": "control_change"}, {"time": 2688, "annotation": {"number": 64, "value": 127}, "group": "control_change"}, {"time": 2697, "annotation": {"number": 64, "value": 0}, "group": "control_change"}, {"time": 2699, "annotation": {"number": 64, "value": 127}, "group": "control_change"}, {"time": 2722, "annotation": {"number": 64, "value": 0}, "group": "control_change"}, {"time": 2724, "annotation": {"number": 64, "value": 127}, "group": "control_change"}, {"time": 2745, "annotation": {"number": 64, "value": 127}, "group": "control_change"}, {"time": 2770, "annotation": {"number": 64, "value": 0}, "group": "control_change"}, {"time": 2772, "annotation": {"number": 64, "value": 127}, "group": "control_change"}, {"time": 2793, "annotation": {"number": 64, "value": 0}, "group": "control_change"}, {"time": 2793, "annotation": {"number": 64, "value": 127}, "group": "control_change"}, {"time": 2817, "annotation": {"number": 64, "value": 0}, "group": "control_change"}, {"time": 2819, "annotation": {"number": 64, "value": 127}, "group": "control_change"}, {"time": 2840, "annotation": {"number": 64, "value": 0}, "group": "control_change"}, {"time": 2841, "annotation": {"number": 64, "value": 0}, "group": "control_change"}, {"time": 2843, "annotation": {"number": 64, "value": 127}, "group": "control_change"}, {"time": 2865, "annotation": {"number": 64, "value": 0}, "group": "control_change"}, {"time": 2868, "annotation": {"number": 64, "value": 127}, "group": "control_change"}, {"time": 2890, "annotation": {"number": 64, "value": 0}, "group": "control_change"}, {"time": 2893, "annotation": {"number": 64, "value": 127}, "group": "control_change"}, {"time": 2937, "annotation": {"number": 64, "value": 0}, "group": "control_change"}, {"time": 2940, "annotation": {"number": 64, "value": 127}, "group": "control_change"}, {"time": 2962, "annotation": {"number": 64, "value": 0}, "group": "control_change"}, {"time": 2965, "annotation": {"number": 64, "value": 127}, "group": "control_change"}, {"time": 2986, "annotation": {"number": 64, "value": 0}, "group": "control_change"}, {"time": 2988, "annotation": {"number": 64, "value": 127}, "group": "control_change"}, {"time": 3034, "annotation": {"number": 64, "value": 0}, "group": "control_change"}, {"time": 3037, "annotation": {"number": 64, "value": 127}, "group": "control_change"}, {"time": 3082, "annotation": {"number": 64, "value": 0}, "group": "control_change"}, {"time": 3085, "annotation": {"number": 64, "value": 127}, "group": "control_change"}, {"time": 3105, "annotation": {"number": 64, "value": 0}, "group": "control_change"}, {"time": 3107, "annotation": {"number": 64, "value": 127}, "group": "control_change"}, {"time": 3129, "annotation": {"number": 64, "value": 0}, "group": "control_change"}, {"time": 3132, "annotation": {"number": 64, "value": 127}, "group": "control_change"}, {"time": 3152, "annotation": {"number": 64, "value": 127}, "group": "control_change"}, {"time": 3153, "annotation": {"number": 64, "value": 0}, "group": "control_change"}, {"time": 3177, "annotation": {"number": 64, "value": 0}, "group": "control_change"}, {"time": 3180, "annotation": {"number": 64, "value": 127}, "group": "control_change"}, {"time": 3199, "annotation": {"number": 64, "value": 0}, "group": "control_change"}, {"time": 3199, "annotation": {"number": 64, "value": 127}, "group": "control_change"}, {"time": 3200, "annotation": {"number": 64, "value": 0}, "group": "control_change"}, {"time": 3200, "annotation": {"number": 64, "value": 127}, "group": "control_change"}, {"time": 3202, "annotation": {"number": 64, "value": 127}, "group": "control_change"}, {"time": 3207, "annotation": {"number": 64, "value": 0}, "group": "control_change"}, {"time": 3207, "annotation": {"number": 64, "value": 127}, "group": "control_change"}, {"time": 3210, "annotation": {"number": 64, "value": 127}, "group": "control_change"}, {"time": 3210, "annotation": {"number": 64, "value": 0}, "group": "control_change"}, {"time": 3211, "annotation": {"number": 64, "value": 0}, "group": "control_change"}, {"time": 3212, "annotation": {"number": 64, "value": 127}, "group": "control_change"}, {"time": 3212, "annotation": {"number": 64, "value": 0}, "group": "control_change"}, {"time": 3214, "annotation": {"number": 64, "value": 127}, "group": "control_change"}, {"time": 3224, "annotation": {"number": 64, "value": 0}, "group": "control_change"}, {"time": 3224, "annotation": {"number": 64, "value": 127}, "group": "control_change"}, {"time": 3225, "annotation": {"number": 64, "value": 0}, "group": "control_change"}, {"time": 3227, "annotation": {"number": 64, "value": 127}, "group": "control_change"}, {"time": 3249, "annotation": {"number": 64, "value": 0}, "group": "control_change"}, {"time": 3252, "annotation": {"number": 64, "value": 127}, "group": "control_change"}, {"time": 3274, "annotation": {"number": 64, "value": 0}, "group": "control_change"}, {"time": 3277, "annotation": {"number": 64, "value": 127}, "group": "control_change"}, {"time": 3321, "annotation": {"number": 64, "value": 0}, "group": "control_change"}, {"time": 3324, "annotation": {"number": 64, "value": 127}, "group": "control_change"}, {"time": 3346, "annotation": {"number": 64, "value": 0}, "group": "control_change"}, {"time": 3349, "annotation": {"number": 64, "value": 127}, "group": "control_change"}, {"time": 3370, "annotation": {"number": 64, "value": 0}, "group": "control_change"}, {"time": 3372, "annotation": {"number": 64, "value": 127}, "group": "control_change"}, {"time": 3418, "annotation": {"number": 64, "value": 0}, "group": "control_change"}, {"time": 3421, "annotation": {"number": 64, "value": 127}, "group": "control_change"}, {"time": 3466, "annotation": {"number": 64, "value": 0}, "group": "control_change"}, {"time": 3469, "annotation": {"number": 64, "value": 127}, "group": "control_change"}, {"time": 3489, "annotation": {"number": 64, "value": 0}, "group": "control_change"}, {"time": 3491, "annotation": {"number": 64, "value": 127}, "group": "control_change"}, {"time": 3513, "annotation": {"number": 64, "value": 0}, "group": "control_change"}, {"time": 3516, "annotation": {"number": 64, "value": 127}, "group": "control_change"}, {"time": 3537, "annotation": {"number": 64, "value": 0}, "group": "control_change"}, {"time": 3540, "annotation": {"number": 64, "value": 127}, "group": "control_change"}, {"time": 3560, "annotation": {"number": 64, "value": 0}, "group": "control_change"}, {"time": 3564, "annotation": {"number": 64, "value": 127}, "group": "control_change"}, {"time": 3608, "annotation": {"number": 64, "value": 0}, "group": "control_change"}]}]}