{"metadata": {"schema_version": "0.2", "title": "None", "source_filename": "179.mid", "source_format": "midi"}, "resolution": 12, "tempos": [{"time": 0, "qpm": 123.99999173333389}], "time_signatures": [{"time": 0, "numerator": 4, "denominator": 4}], "tracks": [{"program": 4, "is_drum": false, "name": "MELODY", "notes": [{"time": 222, "pitch": 70, "duration": 12, "velocity": 92}, {"time": 234, "pitch": 73, "duration": 12, "velocity": 98}, {"time": 246, "pitch": 73, "duration": 18, "velocity": 94}, {"time": 264, "pitch": 73, "duration": 6, "velocity": 80}, {"time": 270, "pitch": 73, "duration": 12, "velocity": 91}, {"time": 282, "pitch": 75, "duration": 12, "velocity": 80}, {"time": 294, "pitch": 73, "duration": 6, "velocity": 83}, {"time": 300, "pitch": 70, "duration": 18, "velocity": 83}, {"time": 318, "pitch": 70, "duration": 12, "velocity": 91}, {"time": 330, "pitch": 68, "duration": 12, "velocity": 85}, {"time": 342, "pitch": 66, "duration": 18, "velocity": 66}, {"time": 360, "pitch": 66, "duration": 6, "velocity": 77}, {"time": 366, "pitch": 68, "duration": 12, "velocity": 70}, {"time": 378, "pitch": 63, "duration": 12, "velocity": 70}, {"time": 390, "pitch": 61, "duration": 24, "velocity": 63}, {"time": 414, "pitch": 61, "duration": 12, "velocity": 78}, {"time": 426, "pitch": 63, "duration": 12, "velocity": 78}, {"time": 438, "pitch": 66, "duration": 18, "velocity": 70}, {"time": 456, "pitch": 66, "duration": 6, "velocity": 67}, {"time": 462, "pitch": 66, "duration": 12, "velocity": 83}, {"time": 474, "pitch": 68, "duration": 12, "velocity": 82}, {"time": 486, "pitch": 70, "duration": 12, "velocity": 82}, {"time": 498, "pitch": 70, "duration": 6, "velocity": 86}, {"time": 504, "pitch": 70, "duration": 6, "velocity": 99}, {"time": 510, "pitch": 68, "duration": 12, "velocity": 87}, {"time": 522, "pitch": 70, "duration": 12, "velocity": 78}, {"time": 534, "pitch": 68, "duration": 48, "velocity": 82}, {"time": 606, "pitch": 70, "duration": 12, "velocity": 80}, {"time": 618, "pitch": 73, "duration": 10, "velocity": 86}, {"time": 630, "pitch": 73, "duration": 20, "velocity": 77}, {"time": 654, "pitch": 73, "duration": 12, "velocity": 84}, {"time": 666, "pitch": 75, "duration": 14, "velocity": 77}, {"time": 678, "pitch": 73, "duration": 9, "velocity": 79}, {"time": 684, "pitch": 70, "duration": 14, "velocity": 82}, {"time": 702, "pitch": 70, "duration": 12, "velocity": 81}, {"time": 714, "pitch": 68, "duration": 13, "velocity": 81}, {"time": 726, "pitch": 66, "duration": 3, "velocity": 66}, {"time": 744, "pitch": 66, "duration": 8, "velocity": 77}, {"time": 750, "pitch": 68, "duration": 13, "velocity": 83}, {"time": 762, "pitch": 63, "duration": 12, "velocity": 70}, {"time": 774, "pitch": 61, "duration": 20, "velocity": 76}, {"time": 798, "pitch": 61, "duration": 14, "velocity": 80}, {"time": 810, "pitch": 63, "duration": 13, "velocity": 70}, {"time": 822, "pitch": 66, "duration": 22, "velocity": 77}, {"time": 858, "pitch": 68, "duration": 6, "velocity": 82}, {"time": 870, "pitch": 70, "duration": 7, "velocity": 86}, {"time": 882, "pitch": 70, "duration": 3, "velocity": 81}, {"time": 888, "pitch": 70, "duration": 5, "velocity": 78}, {"time": 894, "pitch": 68, "duration": 10, "velocity": 80}, {"time": 906, "pitch": 66, "duration": 6, "velocity": 67}, {"time": 912, "pitch": 68, "duration": 7, "velocity": 74}, {"time": 918, "pitch": 66, "duration": 26, "velocity": 70}, {"time": 990, "pitch": 70, "duration": 13, "velocity": 80}, {"time": 1002, "pitch": 73, "duration": 14, "velocity": 87}, {"time": 1014, "pitch": 75, "duration": 8, "velocity": 79}, {"time": 1026, "pitch": 75, "duration": 3, "velocity": 80}, {"time": 1032, "pitch": 75, "duration": 3, "velocity": 80}, {"time": 1038, "pitch": 75, "duration": 13, "velocity": 80}, {"time": 1050, "pitch": 73, "duration": 14, "velocity": 83}, {"time": 1062, "pitch": 70, "duration": 20, "velocity": 84}, {"time": 1086, "pitch": 68, "duration": 13, "velocity": 85}, {"time": 1098, "pitch": 70, "duration": 11, "velocity": 84}, {"time": 1110, "pitch": 66, "duration": 3, "velocity": 66}, {"time": 1116, "pitch": 66, "duration": 3, "velocity": 69}, {"time": 1122, "pitch": 66, "duration": 3, "velocity": 65}, {"time": 1128, "pitch": 66, "duration": 3, "velocity": 69}, {"time": 1134, "pitch": 66, "duration": 14, "velocity": 77}, {"time": 1146, "pitch": 68, "duration": 12, "velocity": 81}, {"time": 1158, "pitch": 70, "duration": 15, "velocity": 86}, {"time": 1182, "pitch": 70, "duration": 10, "velocity": 77}, {"time": 1194, "pitch": 73, "duration": 10, "velocity": 82}, {"time": 1206, "pitch": 75, "duration": 3, "velocity": 77}, {"time": 1212, "pitch": 75, "duration": 3, "velocity": 69}, {"time": 1218, "pitch": 75, "duration": 3, "velocity": 65}, {"time": 1224, "pitch": 75, "duration": 3, "velocity": 65}, {"time": 1230, "pitch": 75, "duration": 12, "velocity": 66}, {"time": 1242, "pitch": 73, "duration": 14, "velocity": 77}, {"time": 1254, "pitch": 70, "duration": 3, "velocity": 67}, {"time": 1260, "pitch": 70, "duration": 2, "velocity": 56}, {"time": 1266, "pitch": 70, "duration": 2, "velocity": 48}, {"time": 1272, "pitch": 70, "duration": 2, "velocity": 36}, {"time": 1278, "pitch": 68, "duration": 6, "velocity": 90}, {"time": 1284, "pitch": 66, "duration": 7, "velocity": 66}, {"time": 1290, "pitch": 70, "duration": 13, "velocity": 81}, {"time": 1302, "pitch": 68, "duration": 47, "velocity": 83}, {"time": 1374, "pitch": 70, "duration": 11, "velocity": 83}, {"time": 1386, "pitch": 73, "duration": 10, "velocity": 83}, {"time": 1398, "pitch": 73, "duration": 14, "velocity": 84}, {"time": 1416, "pitch": 73, "duration": 3, "velocity": 88}, {"time": 1422, "pitch": 73, "duration": 13, "velocity": 83}, {"time": 1434, "pitch": 75, "duration": 13, "velocity": 77}, {"time": 1446, "pitch": 73, "duration": 6, "velocity": 77}, {"time": 1452, "pitch": 70, "duration": 13, "velocity": 74}, {"time": 1470, "pitch": 70, "duration": 12, "velocity": 84}, {"time": 1482, "pitch": 68, "duration": 12, "velocity": 76}, {"time": 1494, "pitch": 66, "duration": 14, "velocity": 64}, {"time": 1512, "pitch": 66, "duration": 3, "velocity": 69}, {"time": 1518, "pitch": 66, "duration": 13, "velocity": 70}, {"time": 1530, "pitch": 63, "duration": 12, "velocity": 67}, {"time": 1542, "pitch": 61, "duration": 20, "velocity": 69}, {"time": 1566, "pitch": 61, "duration": 13, "velocity": 73}, {"time": 1578, "pitch": 63, "duration": 13, "velocity": 67}, {"time": 1590, "pitch": 66, "duration": 37, "velocity": 79}, {"time": 1626, "pitch": 68, "duration": 13, "velocity": 86}, {"time": 1638, "pitch": 70, "duration": 7, "velocity": 81}, {"time": 1650, "pitch": 70, "duration": 3, "velocity": 77}, {"time": 1656, "pitch": 70, "duration": 3, "velocity": 78}, {"time": 1662, "pitch": 68, "duration": 11, "velocity": 72}, {"time": 1674, "pitch": 66, "duration": 7, "velocity": 61}, {"time": 1680, "pitch": 68, "duration": 7, "velocity": 64}, {"time": 1686, "pitch": 66, "duration": 51, "velocity": 66}, {"time": 1950, "pitch": 70, "duration": 12, "velocity": 92}, {"time": 1962, "pitch": 73, "duration": 12, "velocity": 98}, {"time": 1974, "pitch": 73, "duration": 18, "velocity": 94}, {"time": 1992, "pitch": 73, "duration": 6, "velocity": 80}, {"time": 1998, "pitch": 73, "duration": 12, "velocity": 91}, {"time": 2010, "pitch": 75, "duration": 12, "velocity": 80}, {"time": 2022, "pitch": 73, "duration": 6, "velocity": 83}, {"time": 2028, "pitch": 70, "duration": 18, "velocity": 83}, {"time": 2046, "pitch": 70, "duration": 12, "velocity": 91}, {"time": 2058, "pitch": 68, "duration": 12, "velocity": 85}, {"time": 2070, "pitch": 66, "duration": 18, "velocity": 66}, {"time": 2088, "pitch": 66, "duration": 6, "velocity": 77}, {"time": 2094, "pitch": 68, "duration": 12, "velocity": 70}, {"time": 2106, "pitch": 63, "duration": 12, "velocity": 70}, {"time": 2118, "pitch": 61, "duration": 24, "velocity": 63}, {"time": 2142, "pitch": 61, "duration": 12, "velocity": 78}, {"time": 2154, "pitch": 63, "duration": 12, "velocity": 78}, {"time": 2166, "pitch": 66, "duration": 18, "velocity": 70}, {"time": 2184, "pitch": 66, "duration": 6, "velocity": 67}, {"time": 2190, "pitch": 66, "duration": 12, "velocity": 83}, {"time": 2202, "pitch": 68, "duration": 12, "velocity": 82}, {"time": 2214, "pitch": 70, "duration": 12, "velocity": 82}, {"time": 2226, "pitch": 70, "duration": 6, "velocity": 86}, {"time": 2232, "pitch": 70, "duration": 6, "velocity": 99}, {"time": 2238, "pitch": 68, "duration": 12, "velocity": 87}, {"time": 2250, "pitch": 70, "duration": 12, "velocity": 78}, {"time": 2262, "pitch": 68, "duration": 48, "velocity": 82}, {"time": 2334, "pitch": 70, "duration": 12, "velocity": 80}, {"time": 2346, "pitch": 73, "duration": 10, "velocity": 86}, {"time": 2358, "pitch": 73, "duration": 20, "velocity": 77}, {"time": 2382, "pitch": 73, "duration": 12, "velocity": 84}, {"time": 2394, "pitch": 75, "duration": 14, "velocity": 77}, {"time": 2406, "pitch": 73, "duration": 9, "velocity": 79}, {"time": 2412, "pitch": 70, "duration": 14, "velocity": 82}, {"time": 2430, "pitch": 70, "duration": 12, "velocity": 81}, {"time": 2442, "pitch": 68, "duration": 13, "velocity": 81}, {"time": 2454, "pitch": 66, "duration": 3, "velocity": 66}, {"time": 2472, "pitch": 66, "duration": 8, "velocity": 77}, {"time": 2478, "pitch": 68, "duration": 13, "velocity": 83}, {"time": 2490, "pitch": 63, "duration": 12, "velocity": 70}, {"time": 2502, "pitch": 61, "duration": 20, "velocity": 76}, {"time": 2526, "pitch": 61, "duration": 14, "velocity": 80}, {"time": 2538, "pitch": 63, "duration": 13, "velocity": 70}, {"time": 2550, "pitch": 66, "duration": 22, "velocity": 77}, {"time": 2586, "pitch": 68, "duration": 6, "velocity": 82}, {"time": 2598, "pitch": 70, "duration": 7, "velocity": 86}, {"time": 2610, "pitch": 70, "duration": 3, "velocity": 81}, {"time": 2616, "pitch": 70, "duration": 5, "velocity": 78}, {"time": 2622, "pitch": 68, "duration": 10, "velocity": 80}, {"time": 2634, "pitch": 66, "duration": 6, "velocity": 67}, {"time": 2640, "pitch": 68, "duration": 7, "velocity": 74}, {"time": 2646, "pitch": 66, "duration": 26, "velocity": 70}, {"time": 2718, "pitch": 70, "duration": 1, "velocity": 80}, {"time": 2730, "pitch": 73, "duration": 14, "velocity": 87}, {"time": 2742, "pitch": 75, "duration": 8, "velocity": 79}, {"time": 2754, "pitch": 75, "duration": 3, "velocity": 80}, {"time": 2760, "pitch": 75, "duration": 3, "velocity": 80}, {"time": 2766, "pitch": 75, "duration": 13, "velocity": 80}, {"time": 2778, "pitch": 73, "duration": 14, "velocity": 83}, {"time": 2790, "pitch": 70, "duration": 20, "velocity": 84}, {"time": 2814, "pitch": 68, "duration": 13, "velocity": 85}, {"time": 2826, "pitch": 70, "duration": 11, "velocity": 84}, {"time": 2838, "pitch": 66, "duration": 3, "velocity": 66}, {"time": 2844, "pitch": 66, "duration": 3, "velocity": 69}, {"time": 2850, "pitch": 66, "duration": 3, "velocity": 65}, {"time": 2856, "pitch": 66, "duration": 3, "velocity": 69}, {"time": 2862, "pitch": 66, "duration": 14, "velocity": 77}, {"time": 2874, "pitch": 68, "duration": 12, "velocity": 81}, {"time": 2886, "pitch": 70, "duration": 15, "velocity": 86}, {"time": 2910, "pitch": 70, "duration": 10, "velocity": 77}, {"time": 2922, "pitch": 73, "duration": 10, "velocity": 82}, {"time": 2934, "pitch": 75, "duration": 3, "velocity": 77}, {"time": 2940, "pitch": 75, "duration": 3, "velocity": 69}, {"time": 2946, "pitch": 75, "duration": 3, "velocity": 65}, {"time": 2952, "pitch": 75, "duration": 3, "velocity": 65}, {"time": 2958, "pitch": 75, "duration": 12, "velocity": 66}, {"time": 2970, "pitch": 73, "duration": 14, "velocity": 77}, {"time": 2982, "pitch": 70, "duration": 3, "velocity": 67}, {"time": 2988, "pitch": 70, "duration": 2, "velocity": 56}, {"time": 2994, "pitch": 70, "duration": 2, "velocity": 48}, {"time": 3000, "pitch": 70, "duration": 2, "velocity": 36}, {"time": 3006, "pitch": 68, "duration": 6, "velocity": 90}, {"time": 3012, "pitch": 66, "duration": 7, "velocity": 66}, {"time": 3018, "pitch": 70, "duration": 13, "velocity": 81}, {"time": 3030, "pitch": 68, "duration": 47, "velocity": 83}, {"time": 3102, "pitch": 70, "duration": 11, "velocity": 83}, {"time": 3114, "pitch": 73, "duration": 10, "velocity": 83}, {"time": 3126, "pitch": 73, "duration": 14, "velocity": 84}, {"time": 3144, "pitch": 73, "duration": 3, "velocity": 88}, {"time": 3150, "pitch": 73, "duration": 13, "velocity": 83}, {"time": 3162, "pitch": 75, "duration": 13, "velocity": 77}, {"time": 3174, "pitch": 73, "duration": 6, "velocity": 77}, {"time": 3180, "pitch": 70, "duration": 13, "velocity": 74}, {"time": 3198, "pitch": 70, "duration": 12, "velocity": 84}, {"time": 3210, "pitch": 68, "duration": 12, "velocity": 76}, {"time": 3222, "pitch": 66, "duration": 14, "velocity": 64}, {"time": 3240, "pitch": 66, "duration": 3, "velocity": 69}, {"time": 3246, "pitch": 66, "duration": 13, "velocity": 70}, {"time": 3258, "pitch": 63, "duration": 12, "velocity": 67}, {"time": 3270, "pitch": 61, "duration": 20, "velocity": 69}, {"time": 3294, "pitch": 61, "duration": 13, "velocity": 73}, {"time": 3306, "pitch": 63, "duration": 13, "velocity": 67}, {"time": 3318, "pitch": 66, "duration": 37, "velocity": 79}, {"time": 3354, "pitch": 68, "duration": 13, "velocity": 86}, {"time": 3366, "pitch": 70, "duration": 7, "velocity": 81}, {"time": 3378, "pitch": 70, "duration": 3, "velocity": 77}, {"time": 3384, "pitch": 70, "duration": 3, "velocity": 78}, {"time": 3390, "pitch": 68, "duration": 11, "velocity": 72}, {"time": 3402, "pitch": 66, "duration": 7, "velocity": 61}, {"time": 3408, "pitch": 68, "duration": 7, "velocity": 64}, {"time": 3414, "pitch": 66, "duration": 48, "velocity": 66}, {"time": 3486, "pitch": 70, "duration": 9, "velocity": 80}, {"time": 3498, "pitch": 73, "duration": 14, "velocity": 87}, {"time": 3510, "pitch": 75, "duration": 8, "velocity": 79}, {"time": 3522, "pitch": 75, "duration": 3, "velocity": 80}, {"time": 3528, "pitch": 75, "duration": 3, "velocity": 80}, {"time": 3534, "pitch": 75, "duration": 13, "velocity": 80}, {"time": 3546, "pitch": 73, "duration": 14, "velocity": 83}, {"time": 3558, "pitch": 70, "duration": 20, "velocity": 84}, {"time": 3582, "pitch": 68, "duration": 13, "velocity": 85}, {"time": 3594, "pitch": 70, "duration": 11, "velocity": 84}, {"time": 3606, "pitch": 66, "duration": 3, "velocity": 66}, {"time": 3612, "pitch": 66, "duration": 3, "velocity": 69}, {"time": 3618, "pitch": 66, "duration": 3, "velocity": 65}, {"time": 3624, "pitch": 66, "duration": 3, "velocity": 69}, {"time": 3630, "pitch": 66, "duration": 14, "velocity": 77}, {"time": 3642, "pitch": 68, "duration": 12, "velocity": 81}, {"time": 3654, "pitch": 70, "duration": 15, "velocity": 86}, {"time": 3678, "pitch": 70, "duration": 10, "velocity": 77}, {"time": 3690, "pitch": 73, "duration": 10, "velocity": 82}, {"time": 3702, "pitch": 75, "duration": 3, "velocity": 77}, {"time": 3708, "pitch": 75, "duration": 3, "velocity": 69}, {"time": 3714, "pitch": 75, "duration": 3, "velocity": 65}, {"time": 3720, "pitch": 75, "duration": 3, "velocity": 65}, {"time": 3726, "pitch": 75, "duration": 12, "velocity": 66}, {"time": 3738, "pitch": 73, "duration": 14, "velocity": 77}, {"time": 3750, "pitch": 70, "duration": 3, "velocity": 67}, {"time": 3756, "pitch": 70, "duration": 2, "velocity": 56}, {"time": 3762, "pitch": 70, "duration": 2, "velocity": 48}, {"time": 3768, "pitch": 70, "duration": 2, "velocity": 36}, {"time": 3774, "pitch": 68, "duration": 6, "velocity": 90}, {"time": 3780, "pitch": 66, "duration": 7, "velocity": 66}, {"time": 3786, "pitch": 70, "duration": 13, "velocity": 81}, {"time": 3798, "pitch": 68, "duration": 47, "velocity": 83}, {"time": 3870, "pitch": 70, "duration": 11, "velocity": 83}, {"time": 3882, "pitch": 73, "duration": 10, "velocity": 83}, {"time": 3894, "pitch": 73, "duration": 14, "velocity": 84}, {"time": 3912, "pitch": 73, "duration": 3, "velocity": 88}, {"time": 3918, "pitch": 73, "duration": 13, "velocity": 83}, {"time": 3930, "pitch": 75, "duration": 13, "velocity": 77}, {"time": 3942, "pitch": 73, "duration": 6, "velocity": 77}, {"time": 3948, "pitch": 70, "duration": 13, "velocity": 74}, {"time": 3966, "pitch": 70, "duration": 12, "velocity": 84}, {"time": 3978, "pitch": 68, "duration": 12, "velocity": 76}, {"time": 3990, "pitch": 66, "duration": 14, "velocity": 64}, {"time": 4008, "pitch": 66, "duration": 3, "velocity": 69}, {"time": 4014, "pitch": 66, "duration": 13, "velocity": 70}, {"time": 4026, "pitch": 63, "duration": 12, "velocity": 67}, {"time": 4038, "pitch": 61, "duration": 20, "velocity": 69}, {"time": 4062, "pitch": 61, "duration": 13, "velocity": 73}, {"time": 4074, "pitch": 63, "duration": 13, "velocity": 67}, {"time": 4086, "pitch": 66, "duration": 37, "velocity": 79}, {"time": 4122, "pitch": 68, "duration": 13, "velocity": 86}, {"time": 4134, "pitch": 70, "duration": 7, "velocity": 81}, {"time": 4146, "pitch": 70, "duration": 3, "velocity": 77}, {"time": 4152, "pitch": 70, "duration": 3, "velocity": 78}, {"time": 4158, "pitch": 68, "duration": 11, "velocity": 72}, {"time": 4170, "pitch": 66, "duration": 7, "velocity": 61}, {"time": 4176, "pitch": 68, "duration": 7, "velocity": 64}, {"time": 4182, "pitch": 66, "duration": 48, "velocity": 66}, {"time": 4254, "pitch": 61, "duration": 15, "velocity": 82}, {"time": 4266, "pitch": 63, "duration": 12, "velocity": 78}, {"time": 4278, "pitch": 61, "duration": 8, "velocity": 74}, {"time": 4278, "pitch": 66, "duration": 9, "velocity": 69}, {"time": 4296, "pitch": 66, "duration": 2, "velocity": 76}, {"time": 4302, "pitch": 66, "duration": 13, "velocity": 78}, {"time": 4314, "pitch": 68, "duration": 13, "velocity": 86}, {"time": 4326, "pitch": 70, "duration": 8, "velocity": 90}, {"time": 4338, "pitch": 70, "duration": 14, "velocity": 84}, {"time": 4350, "pitch": 68, "duration": 7, "velocity": 83}, {"time": 4356, "pitch": 66, "duration": 10, "velocity": 69}, {"time": 4362, "pitch": 68, "duration": 11, "velocity": 59}, {"time": 4374, "pitch": 66, "duration": 69, "velocity": 80}], "annotations": [{"time": 218, "annotation": {"number": 64, "value": 0}, "group": "control_change"}, {"time": 1946, "annotation": {"number": 64, "value": 0}, "group": "control_change"}]}, {"program": 0, "is_drum": false, "name": "PIANO", "notes": [{"time": 54, "pitch": 42, "duration": 13, "velocity": 64}, {"time": 54, "pitch": 54, "duration": 14, "velocity": 63}, {"time": 54, "pitch": 58, "duration": 5, "velocity": 58}, {"time": 54, "pitch": 61, "duration": 4, "velocity": 72}, {"time": 54, "pitch": 66, "duration": 5, "velocity": 66}, {"time": 66, "pitch": 58, "duration": 8, "velocity": 64}, {"time": 66, "pitch": 61, "duration": 8, "velocity": 73}, {"time": 66, "pitch": 66, "duration": 8, "velocity": 69}, {"time": 72, "pitch": 42, "duration": 3, "velocity": 66}, {"time": 72, "pitch": 54, "duration": 3, "velocity": 60}, {"time": 78, "pitch": 42, "duration": 20, "velocity": 67}, {"time": 78, "pitch": 54, "duration": 9, "velocity": 72}, {"time": 78, "pitch": 58, "duration": 14, "velocity": 62}, {"time": 78, "pitch": 61, "duration": 14, "velocity": 69}, {"time": 78, "pitch": 66, "duration": 14, "velocity": 66}, {"time": 90, "pitch": 54, "duration": 7, "velocity": 48}, {"time": 96, "pitch": 58, "duration": 3, "velocity": 66}, {"time": 96, "pitch": 61, "duration": 3, "velocity": 75}, {"time": 96, "pitch": 66, "duration": 4, "velocity": 73}, {"time": 102, "pitch": 42, "duration": 17, "velocity": 72}, {"time": 102, "pitch": 54, "duration": 7, "velocity": 64}, {"time": 102, "pitch": 58, "duration": 14, "velocity": 66}, {"time": 102, "pitch": 61, "duration": 14, "velocity": 73}, {"time": 102, "pitch": 66, "duration": 14, "velocity": 70}, {"time": 114, "pitch": 54, "duration": 6, "velocity": 67}, {"time": 120, "pitch": 58, "duration": 3, "velocity": 64}, {"time": 120, "pitch": 61, "duration": 3, "velocity": 72}, {"time": 120, "pitch": 66, "duration": 3, "velocity": 73}, {"time": 126, "pitch": 42, "duration": 21, "velocity": 75}, {"time": 126, "pitch": 54, "duration": 5, "velocity": 67}, {"time": 126, "pitch": 58, "duration": 3, "velocity": 64}, {"time": 126, "pitch": 61, "duration": 3, "velocity": 73}, {"time": 126, "pitch": 66, "duration": 4, "velocity": 73}, {"time": 132, "pitch": 54, "duration": 5, "velocity": 49}, {"time": 132, "pitch": 58, "duration": 2, "velocity": 44}, {"time": 132, "pitch": 61, "duration": 2, "velocity": 53}, {"time": 132, "pitch": 66, "duration": 3, "velocity": 46}, {"time": 138, "pitch": 58, "duration": 10, "velocity": 67}, {"time": 138, "pitch": 61, "duration": 7, "velocity": 75}, {"time": 138, "pitch": 68, "duration": 8, "velocity": 80}, {"time": 144, "pitch": 54, "duration": 4, "velocity": 72}, {"time": 150, "pitch": 42, "duration": 14, "velocity": 73}, {"time": 150, "pitch": 54, "duration": 7, "velocity": 95}, {"time": 150, "pitch": 58, "duration": 14, "velocity": 69}, {"time": 150, "pitch": 61, "duration": 14, "velocity": 72}, {"time": 150, "pitch": 66, "duration": 13, "velocity": 78}, {"time": 162, "pitch": 54, "duration": 4, "velocity": 57}, {"time": 168, "pitch": 42, "duration": 4, "velocity": 73}, {"time": 168, "pitch": 54, "duration": 3, "velocity": 73}, {"time": 168, "pitch": 58, "duration": 3, "velocity": 69}, {"time": 168, "pitch": 61, "duration": 3, "velocity": 73}, {"time": 168, "pitch": 66, "duration": 3, "velocity": 73}, {"time": 174, "pitch": 42, "duration": 18, "velocity": 66}, {"time": 174, "pitch": 54, "duration": 6, "velocity": 67}, {"time": 174, "pitch": 58, "duration": 14, "velocity": 69}, {"time": 174, "pitch": 61, "duration": 14, "velocity": 76}, {"time": 174, "pitch": 66, "duration": 13, "velocity": 76}, {"time": 186, "pitch": 54, "duration": 5, "velocity": 73}, {"time": 192, "pitch": 58, "duration": 3, "velocity": 63}, {"time": 192, "pitch": 61, "duration": 3, "velocity": 72}, {"time": 192, "pitch": 66, "duration": 3, "velocity": 76}, {"time": 198, "pitch": 42, "duration": 5, "velocity": 73}, {"time": 198, "pitch": 54, "duration": 5, "velocity": 76}, {"time": 198, "pitch": 58, "duration": 5, "velocity": 66}, {"time": 198, "pitch": 61, "duration": 5, "velocity": 76}, {"time": 198, "pitch": 66, "duration": 5, "velocity": 78}, {"time": 210, "pitch": 42, "duration": 3, "velocity": 75}, {"time": 210, "pitch": 54, "duration": 7, "velocity": 91}, {"time": 210, "pitch": 58, "duration": 7, "velocity": 67}, {"time": 210, "pitch": 61, "duration": 7, "velocity": 73}, {"time": 210, "pitch": 66, "duration": 6, "velocity": 72}, {"time": 246, "pitch": 42, "duration": 13, "velocity": 58}, {"time": 246, "pitch": 54, "duration": 15, "velocity": 63}, {"time": 246, "pitch": 58, "duration": 4, "velocity": 61}, {"time": 246, "pitch": 61, "duration": 1, "velocity": 68}, {"time": 246, "pitch": 66, "duration": 5, "velocity": 66}, {"time": 258, "pitch": 58, "duration": 15, "velocity": 64}, {"time": 258, "pitch": 61, "duration": 14, "velocity": 63}, {"time": 258, "pitch": 66, "duration": 14, "velocity": 62}, {"time": 264, "pitch": 42, "duration": 3, "velocity": 58}, {"time": 264, "pitch": 54, "duration": 2, "velocity": 40}, {"time": 270, "pitch": 49, "duration": 8, "velocity": 72}, {"time": 276, "pitch": 58, "duration": 8, "velocity": 55}, {"time": 276, "pitch": 61, "duration": 9, "velocity": 74}, {"time": 276, "pitch": 66, "duration": 16, "velocity": 64}, {"time": 282, "pitch": 49, "duration": 8, "velocity": 64}, {"time": 288, "pitch": 58, "duration": 3, "velocity": 53}, {"time": 288, "pitch": 61, "duration": 5, "velocity": 51}, {"time": 288, "pitch": 66, "duration": 4, "velocity": 24}, {"time": 294, "pitch": 42, "duration": 14, "velocity": 63}, {"time": 294, "pitch": 54, "duration": 15, "velocity": 70}, {"time": 306, "pitch": 58, "duration": 14, "velocity": 63}, {"time": 306, "pitch": 61, "duration": 14, "velocity": 72}, {"time": 306, "pitch": 66, "duration": 13, "velocity": 59}, {"time": 312, "pitch": 42, "duration": 3, "velocity": 68}, {"time": 312, "pitch": 54, "duration": 3, "velocity": 54}, {"time": 318, "pitch": 49, "duration": 7, "velocity": 78}, {"time": 324, "pitch": 58, "duration": 5, "velocity": 58}, {"time": 324, "pitch": 61, "duration": 7, "velocity": 62}, {"time": 324, "pitch": 66, "duration": 6, "velocity": 57}, {"time": 330, "pitch": 49, "duration": 3, "velocity": 76}, {"time": 336, "pitch": 58, "duration": 6, "velocity": 56}, {"time": 336, "pitch": 61, "duration": 10, "velocity": 67}, {"time": 336, "pitch": 66, "duration": 11, "velocity": 51}, {"time": 342, "pitch": 35, "duration": 12, "velocity": 58}, {"time": 342, "pitch": 47, "duration": 15, "velocity": 73}, {"time": 354, "pitch": 59, "duration": 15, "velocity": 69}, {"time": 354, "pitch": 63, "duration": 15, "velocity": 61}, {"time": 354, "pitch": 66, "duration": 15, "velocity": 65}, {"time": 360, "pitch": 35, "duration": 2, "velocity": 52}, {"time": 360, "pitch": 47, "duration": 3, "velocity": 61}, {"time": 366, "pitch": 42, "duration": 8, "velocity": 73}, {"time": 372, "pitch": 59, "duration": 8, "velocity": 50}, {"time": 372, "pitch": 63, "duration": 15, "velocity": 48}, {"time": 372, "pitch": 66, "duration": 9, "velocity": 53}, {"time": 378, "pitch": 42, "duration": 2, "velocity": 62}, {"time": 390, "pitch": 42, "duration": 12, "velocity": 54}, {"time": 390, "pitch": 54, "duration": 14, "velocity": 59}, {"time": 390, "pitch": 58, "duration": 4, "velocity": 60}, {"time": 390, "pitch": 61, "duration": 4, "velocity": 65}, {"time": 390, "pitch": 66, "duration": 4, "velocity": 57}, {"time": 402, "pitch": 58, "duration": 13, "velocity": 55}, {"time": 402, "pitch": 61, "duration": 13, "velocity": 71}, {"time": 402, "pitch": 66, "duration": 13, "velocity": 56}, {"time": 408, "pitch": 42, "duration": 2, "velocity": 42}, {"time": 408, "pitch": 54, "duration": 3, "velocity": 55}, {"time": 414, "pitch": 49, "duration": 6, "velocity": 70}, {"time": 420, "pitch": 58, "duration": 7, "velocity": 62}, {"time": 420, "pitch": 61, "duration": 8, "velocity": 72}, {"time": 420, "pitch": 66, "duration": 8, "velocity": 69}, {"time": 426, "pitch": 41, "duration": 3, "velocity": 67}, {"time": 426, "pitch": 53, "duration": 3, "velocity": 55}, {"time": 438, "pitch": 39, "duration": 14, "velocity": 64}, {"time": 438, "pitch": 51, "duration": 15, "velocity": 62}, {"time": 438, "pitch": 58, "duration": 2, "velocity": 56}, {"time": 438, "pitch": 61, "duration": 2, "velocity": 60}, {"time": 438, "pitch": 66, "duration": 4, "velocity": 52}, {"time": 450, "pitch": 58, "duration": 9, "velocity": 28}, {"time": 450, "pitch": 61, "duration": 12, "velocity": 59}, {"time": 450, "pitch": 66, "duration": 13, "velocity": 58}, {"time": 456, "pitch": 39, "duration": 2, "velocity": 66}, {"time": 456, "pitch": 51, "duration": 2, "velocity": 39}, {"time": 462, "pitch": 46, "duration": 7, "velocity": 70}, {"time": 468, "pitch": 58, "duration": 8, "velocity": 55}, {"time": 468, "pitch": 61, "duration": 8, "velocity": 60}, {"time": 468, "pitch": 66, "duration": 8, "velocity": 49}, {"time": 474, "pitch": 51, "duration": 4, "velocity": 61}, {"time": 480, "pitch": 61, "duration": 4, "velocity": 58}, {"time": 486, "pitch": 44, "duration": 13, "velocity": 52}, {"time": 486, "pitch": 56, "duration": 14, "velocity": 56}, {"time": 486, "pitch": 60, "duration": 3, "velocity": 60}, {"time": 486, "pitch": 63, "duration": 3, "velocity": 60}, {"time": 486, "pitch": 68, "duration": 2, "velocity": 36}, {"time": 498, "pitch": 60, "duration": 14, "velocity": 62}, {"time": 498, "pitch": 63, "duration": 14, "velocity": 64}, {"time": 498, "pitch": 68, "duration": 14, "velocity": 65}, {"time": 504, "pitch": 44, "duration": 3, "velocity": 57}, {"time": 504, "pitch": 56, "duration": 2, "velocity": 40}, {"time": 510, "pitch": 51, "duration": 6, "velocity": 66}, {"time": 516, "pitch": 60, "duration": 9, "velocity": 65}, {"time": 516, "pitch": 63, "duration": 8, "velocity": 64}, {"time": 516, "pitch": 68, "duration": 9, "velocity": 64}, {"time": 522, "pitch": 51, "duration": 1, "velocity": 66}, {"time": 534, "pitch": 37, "duration": 14, "velocity": 61}, {"time": 534, "pitch": 49, "duration": 14, "velocity": 65}, {"time": 534, "pitch": 56, "duration": 3, "velocity": 55}, {"time": 534, "pitch": 61, "duration": 5, "velocity": 55}, {"time": 534, "pitch": 65, "duration": 4, "velocity": 62}, {"time": 546, "pitch": 56, "duration": 14, "velocity": 64}, {"time": 546, "pitch": 61, "duration": 15, "velocity": 66}, {"time": 546, "pitch": 65, "duration": 13, "velocity": 63}, {"time": 552, "pitch": 37, "duration": 2, "velocity": 56}, {"time": 552, "pitch": 49, "duration": 2, "velocity": 64}, {"time": 558, "pitch": 44, "duration": 6, "velocity": 62}, {"time": 564, "pitch": 61, "duration": 12, "velocity": 82}, {"time": 570, "pitch": 44, "duration": 8, "velocity": 55}, {"time": 576, "pitch": 56, "duration": 2, "velocity": 50}, {"time": 582, "pitch": 37, "duration": 3, "velocity": 67}, {"time": 582, "pitch": 49, "duration": 4, "velocity": 63}, {"time": 582, "pitch": 56, "duration": 3, "velocity": 70}, {"time": 582, "pitch": 61, "duration": 2, "velocity": 63}, {"time": 582, "pitch": 65, "duration": 4, "velocity": 67}, {"time": 594, "pitch": 37, "duration": 2, "velocity": 63}, {"time": 594, "pitch": 49, "duration": 3, "velocity": 74}, {"time": 594, "pitch": 56, "duration": 3, "velocity": 69}, {"time": 594, "pitch": 61, "duration": 2, "velocity": 52}, {"time": 594, "pitch": 65, "duration": 3, "velocity": 58}, {"time": 606, "pitch": 39, "duration": 2, "velocity": 54}, {"time": 606, "pitch": 51, "duration": 3, "velocity": 62}, {"time": 606, "pitch": 58, "duration": 2, "velocity": 57}, {"time": 606, "pitch": 61, "duration": 2, "velocity": 74}, {"time": 606, "pitch": 66, "duration": 3, "velocity": 59}, {"time": 618, "pitch": 41, "duration": 1, "velocity": 25}, {"time": 618, "pitch": 53, "duration": 1, "velocity": 73}, {"time": 618, "pitch": 61, "duration": 1, "velocity": 73}, {"time": 618, "pitch": 68, "duration": 2, "velocity": 82}, {"time": 630, "pitch": 54, "duration": 14, "velocity": 56}, {"time": 630, "pitch": 61, "duration": 1, "velocity": 73}, {"time": 630, "pitch": 66, "duration": 2, "velocity": 69}, {"time": 630, "pitch": 70, "duration": 1, "velocity": 74}, {"time": 642, "pitch": 61, "duration": 14, "velocity": 69}, {"time": 642, "pitch": 66, "duration": 13, "velocity": 60}, {"time": 642, "pitch": 70, "duration": 14, "velocity": 77}, {"time": 648, "pitch": 54, "duration": 2, "velocity": 50}, {"time": 654, "pitch": 49, "duration": 7, "velocity": 72}, {"time": 660, "pitch": 61, "duration": 5, "velocity": 61}, {"time": 660, "pitch": 66, "duration": 4, "velocity": 67}, {"time": 660, "pitch": 70, "duration": 2, "velocity": 66}, {"time": 666, "pitch": 49, "duration": 10, "velocity": 59}, {"time": 678, "pitch": 42, "duration": 13, "velocity": 65}, {"time": 678, "pitch": 54, "duration": 14, "velocity": 60}, {"time": 678, "pitch": 58, "duration": 3, "velocity": 51}, {"time": 678, "pitch": 61, "duration": 2, "velocity": 61}, {"time": 678, "pitch": 66, "duration": 2, "velocity": 39}, {"time": 690, "pitch": 58, "duration": 15, "velocity": 57}, {"time": 690, "pitch": 61, "duration": 15, "velocity": 59}, {"time": 690, "pitch": 66, "duration": 15, "velocity": 52}, {"time": 696, "pitch": 42, "duration": 2, "velocity": 44}, {"time": 696, "pitch": 54, "duration": 3, "velocity": 55}, {"time": 702, "pitch": 49, "duration": 7, "velocity": 75}, {"time": 708, "pitch": 58, "duration": 8, "velocity": 55}, {"time": 708, "pitch": 61, "duration": 8, "velocity": 58}, {"time": 708, "pitch": 66, "duration": 8, "velocity": 62}, {"time": 714, "pitch": 54, "duration": 9, "velocity": 69}, {"time": 720, "pitch": 58, "duration": 7, "velocity": 54}, {"time": 720, "pitch": 61, "duration": 11, "velocity": 68}, {"time": 720, "pitch": 66, "duration": 14, "velocity": 49}, {"time": 726, "pitch": 47, "duration": 14, "velocity": 74}, {"time": 738, "pitch": 59, "duration": 15, "velocity": 68}, {"time": 738, "pitch": 63, "duration": 16, "velocity": 59}, {"time": 738, "pitch": 66, "duration": 15, "velocity": 51}, {"time": 744, "pitch": 47, "duration": 4, "velocity": 62}, {"time": 750, "pitch": 54, "duration": 7, "velocity": 55}, {"time": 756, "pitch": 59, "duration": 8, "velocity": 64}, {"time": 756, "pitch": 63, "duration": 12, "velocity": 45}, {"time": 756, "pitch": 66, "duration": 8, "velocity": 51}, {"time": 762, "pitch": 54, "duration": 8, "velocity": 58}, {"time": 768, "pitch": 61, "duration": 10, "velocity": 61}, {"time": 774, "pitch": 42, "duration": 10, "velocity": 53}, {"time": 774, "pitch": 54, "duration": 15, "velocity": 58}, {"time": 774, "pitch": 58, "duration": 3, "velocity": 61}, {"time": 774, "pitch": 66, "duration": 2, "velocity": 49}, {"time": 786, "pitch": 58, "duration": 13, "velocity": 70}, {"time": 786, "pitch": 61, "duration": 12, "velocity": 81}, {"time": 786, "pitch": 66, "duration": 13, "velocity": 56}, {"time": 792, "pitch": 42, "duration": 2, "velocity": 48}, {"time": 792, "pitch": 54, "duration": 2, "velocity": 41}, {"time": 798, "pitch": 49, "duration": 7, "velocity": 66}, {"time": 804, "pitch": 58, "duration": 7, "velocity": 57}, {"time": 804, "pitch": 61, "duration": 8, "velocity": 66}, {"time": 804, "pitch": 66, "duration": 8, "velocity": 77}, {"time": 810, "pitch": 41, "duration": 3, "velocity": 67}, {"time": 810, "pitch": 53, "duration": 3, "velocity": 67}, {"time": 816, "pitch": 65, "duration": 6, "velocity": 59}, {"time": 822, "pitch": 39, "duration": 9, "velocity": 52}, {"time": 822, "pitch": 51, "duration": 14, "velocity": 53}, {"time": 822, "pitch": 58, "duration": 3, "velocity": 42}, {"time": 822, "pitch": 61, "duration": 2, "velocity": 57}, {"time": 822, "pitch": 66, "duration": 4, "velocity": 40}, {"time": 834, "pitch": 58, "duration": 13, "velocity": 55}, {"time": 834, "pitch": 61, "duration": 13, "velocity": 55}, {"time": 834, "pitch": 66, "duration": 14, "velocity": 74}, {"time": 840, "pitch": 39, "duration": 1, "velocity": 64}, {"time": 840, "pitch": 51, "duration": 2, "velocity": 32}, {"time": 846, "pitch": 46, "duration": 7, "velocity": 70}, {"time": 852, "pitch": 58, "duration": 7, "velocity": 61}, {"time": 852, "pitch": 61, "duration": 10, "velocity": 67}, {"time": 852, "pitch": 66, "duration": 10, "velocity": 72}, {"time": 858, "pitch": 46, "duration": 2, "velocity": 71}, {"time": 870, "pitch": 35, "duration": 18, "velocity": 60}, {"time": 870, "pitch": 47, "duration": 12, "velocity": 65}, {"time": 870, "pitch": 59, "duration": 4, "velocity": 59}, {"time": 870, "pitch": 63, "duration": 4, "velocity": 60}, {"time": 870, "pitch": 66, "duration": 3, "velocity": 43}, {"time": 882, "pitch": 59, "duration": 12, "velocity": 66}, {"time": 882, "pitch": 63, "duration": 12, "velocity": 55}, {"time": 882, "pitch": 66, "duration": 12, "velocity": 41}, {"time": 885, "pitch": 47, "duration": 2, "velocity": 52}, {"time": 894, "pitch": 37, "duration": 11, "velocity": 60}, {"time": 894, "pitch": 49, "duration": 7, "velocity": 74}, {"time": 900, "pitch": 56, "duration": 8, "velocity": 67}, {"time": 900, "pitch": 61, "duration": 7, "velocity": 61}, {"time": 900, "pitch": 65, "duration": 9, "velocity": 54}, {"time": 906, "pitch": 49, "duration": 4, "velocity": 59}, {"time": 912, "pitch": 63, "duration": 6, "velocity": 59}, {"time": 918, "pitch": 42, "duration": 11, "velocity": 62}, {"time": 918, "pitch": 54, "duration": 13, "velocity": 61}, {"time": 918, "pitch": 58, "duration": 3, "velocity": 55}, {"time": 918, "pitch": 61, "duration": 3, "velocity": 66}, {"time": 918, "pitch": 66, "duration": 4, "velocity": 65}, {"time": 930, "pitch": 58, "duration": 13, "velocity": 58}, {"time": 930, "pitch": 61, "duration": 13, "velocity": 62}, {"time": 930, "pitch": 66, "duration": 13, "velocity": 61}, {"time": 936, "pitch": 42, "duration": 2, "velocity": 56}, {"time": 936, "pitch": 54, "duration": 2, "velocity": 57}, {"time": 942, "pitch": 49, "duration": 5, "velocity": 75}, {"time": 948, "pitch": 58, "duration": 2, "velocity": 55}, {"time": 948, "pitch": 61, "duration": 2, "velocity": 61}, {"time": 948, "pitch": 66, "duration": 4, "velocity": 61}, {"time": 954, "pitch": 49, "duration": 1, "velocity": 62}, {"time": 960, "pitch": 42, "duration": 3, "velocity": 70}, {"time": 960, "pitch": 54, "duration": 2, "velocity": 64}, {"time": 960, "pitch": 59, "duration": 3, "velocity": 60}, {"time": 960, "pitch": 63, "duration": 2, "velocity": 53}, {"time": 972, "pitch": 42, "duration": 4, "velocity": 60}, {"time": 972, "pitch": 54, "duration": 4, "velocity": 61}, {"time": 972, "pitch": 58, "duration": 12, "velocity": 65}, {"time": 972, "pitch": 61, "duration": 12, "velocity": 69}, {"time": 972, "pitch": 66, "duration": 12, "velocity": 67}, {"time": 984, "pitch": 42, "duration": 2, "velocity": 47}, {"time": 984, "pitch": 54, "duration": 2, "velocity": 57}, {"time": 990, "pitch": 41, "duration": 14, "velocity": 65}, {"time": 990, "pitch": 53, "duration": 7, "velocity": 74}, {"time": 990, "pitch": 58, "duration": 2, "velocity": 48}, {"time": 990, "pitch": 61, "duration": 1, "velocity": 57}, {"time": 990, "pitch": 66, "duration": 7, "velocity": 72}, {"time": 996, "pitch": 65, "duration": 1, "velocity": 22}, {"time": 1002, "pitch": 53, "duration": 1, "velocity": 60}, {"time": 1002, "pitch": 56, "duration": 3, "velocity": 56}, {"time": 1002, "pitch": 65, "duration": 4, "velocity": 55}, {"time": 1008, "pitch": 61, "duration": 4, "velocity": 69}, {"time": 1014, "pitch": 39, "duration": 10, "velocity": 41}, {"time": 1014, "pitch": 51, "duration": 14, "velocity": 39}, {"time": 1014, "pitch": 61, "duration": 3, "velocity": 73}, {"time": 1014, "pitch": 66, "duration": 2, "velocity": 66}, {"time": 1014, "pitch": 70, "duration": 4, "velocity": 70}, {"time": 1026, "pitch": 61, "duration": 14, "velocity": 73}, {"time": 1026, "pitch": 66, "duration": 15, "velocity": 66}, {"time": 1026, "pitch": 70, "duration": 15, "velocity": 78}, {"time": 1032, "pitch": 39, "duration": 3, "velocity": 56}, {"time": 1032, "pitch": 51, "duration": 2, "velocity": 29}, {"time": 1038, "pitch": 46, "duration": 14, "velocity": 67}, {"time": 1044, "pitch": 61, "duration": 7, "velocity": 72}, {"time": 1044, "pitch": 66, "duration": 10, "velocity": 66}, {"time": 1044, "pitch": 70, "duration": 9, "velocity": 78}, {"time": 1050, "pitch": 51, "duration": 4, "velocity": 59}, {"time": 1056, "pitch": 61, "duration": 3, "velocity": 56}, {"time": 1062, "pitch": 46, "duration": 13, "velocity": 62}, {"time": 1062, "pitch": 58, "duration": 14, "velocity": 60}, {"time": 1062, "pitch": 61, "duration": 7, "velocity": 66}, {"time": 1062, "pitch": 65, "duration": 4, "velocity": 68}, {"time": 1062, "pitch": 68, "duration": 6, "velocity": 70}, {"time": 1074, "pitch": 61, "duration": 13, "velocity": 65}, {"time": 1074, "pitch": 65, "duration": 13, "velocity": 68}, {"time": 1074, "pitch": 68, "duration": 13, "velocity": 71}, {"time": 1080, "pitch": 46, "duration": 2, "velocity": 65}, {"time": 1080, "pitch": 58, "duration": 2, "velocity": 42}, {"time": 1086, "pitch": 53, "duration": 7, "velocity": 80}, {"time": 1092, "pitch": 61, "duration": 4, "velocity": 66}, {"time": 1092, "pitch": 65, "duration": 6, "velocity": 68}, {"time": 1092, "pitch": 68, "duration": 7, "velocity": 79}, {"time": 1098, "pitch": 58, "duration": 2, "velocity": 61}, {"time": 1110, "pitch": 47, "duration": 11, "velocity": 75}, {"time": 1110, "pitch": 59, "duration": 11, "velocity": 67}, {"time": 1110, "pitch": 63, "duration": 3, "velocity": 48}, {"time": 1110, "pitch": 66, "duration": 3, "velocity": 62}, {"time": 1110, "pitch": 71, "duration": 4, "velocity": 65}, {"time": 1122, "pitch": 63, "duration": 9, "velocity": 61}, {"time": 1122, "pitch": 66, "duration": 10, "velocity": 57}, {"time": 1122, "pitch": 71, "duration": 15, "velocity": 67}, {"time": 1128, "pitch": 47, "duration": 3, "velocity": 60}, {"time": 1128, "pitch": 59, "duration": 2, "velocity": 39}, {"time": 1134, "pitch": 49, "duration": 8, "velocity": 71}, {"time": 1140, "pitch": 61, "duration": 8, "velocity": 71}, {"time": 1140, "pitch": 65, "duration": 9, "velocity": 73}, {"time": 1140, "pitch": 68, "duration": 11, "velocity": 74}, {"time": 1146, "pitch": 49, "duration": 3, "velocity": 65}, {"time": 1152, "pitch": 61, "duration": 4, "velocity": 44}, {"time": 1158, "pitch": 42, "duration": 12, "velocity": 71}, {"time": 1158, "pitch": 61, "duration": 3, "velocity": 69}, {"time": 1158, "pitch": 66, "duration": 1, "velocity": 59}, {"time": 1158, "pitch": 70, "duration": 3, "velocity": 77}, {"time": 1161, "pitch": 54, "duration": 11, "velocity": 21}, {"time": 1170, "pitch": 61, "duration": 13, "velocity": 71}, {"time": 1170, "pitch": 66, "duration": 13, "velocity": 61}, {"time": 1170, "pitch": 70, "duration": 13, "velocity": 72}, {"time": 1176, "pitch": 42, "duration": 1, "velocity": 60}, {"time": 1176, "pitch": 54, "duration": 2, "velocity": 35}, {"time": 1182, "pitch": 42, "duration": 6, "velocity": 64}, {"time": 1182, "pitch": 54, "duration": 7, "velocity": 65}, {"time": 1188, "pitch": 61, "duration": 15, "velocity": 73}, {"time": 1188, "pitch": 66, "duration": 14, "velocity": 60}, {"time": 1188, "pitch": 70, "duration": 16, "velocity": 80}, {"time": 1194, "pitch": 49, "duration": 1, "velocity": 62}, {"time": 1200, "pitch": 41, "duration": 1, "velocity": 62}, {"time": 1200, "pitch": 53, "duration": 1, "velocity": 48}, {"time": 1206, "pitch": 39, "duration": 13, "velocity": 58}, {"time": 1206, "pitch": 51, "duration": 14, "velocity": 61}, {"time": 1218, "pitch": 61, "duration": 15, "velocity": 69}, {"time": 1218, "pitch": 66, "duration": 15, "velocity": 59}, {"time": 1218, "pitch": 70, "duration": 15, "velocity": 75}, {"time": 1224, "pitch": 39, "duration": 2, "velocity": 59}, {"time": 1224, "pitch": 51, "duration": 2, "velocity": 42}, {"time": 1230, "pitch": 46, "duration": 6, "velocity": 70}, {"time": 1236, "pitch": 61, "duration": 8, "velocity": 63}, {"time": 1236, "pitch": 66, "duration": 8, "velocity": 64}, {"time": 1236, "pitch": 70, "duration": 8, "velocity": 70}, {"time": 1242, "pitch": 46, "duration": 3, "velocity": 72}, {"time": 1242, "pitch": 51, "duration": 2, "velocity": 31}, {"time": 1248, "pitch": 61, "duration": 3, "velocity": 69}, {"time": 1248, "pitch": 66, "duration": 5, "velocity": 62}, {"time": 1248, "pitch": 70, "duration": 4, "velocity": 72}, {"time": 1254, "pitch": 35, "duration": 20, "velocity": 62}, {"time": 1254, "pitch": 47, "duration": 15, "velocity": 61}, {"time": 1266, "pitch": 63, "duration": 13, "velocity": 64}, {"time": 1266, "pitch": 66, "duration": 11, "velocity": 60}, {"time": 1266, "pitch": 71, "duration": 12, "velocity": 75}, {"time": 1272, "pitch": 47, "duration": 2, "velocity": 59}, {"time": 1278, "pitch": 36, "duration": 14, "velocity": 70}, {"time": 1278, "pitch": 48, "duration": 8, "velocity": 70}, {"time": 1284, "pitch": 63, "duration": 8, "velocity": 72}, {"time": 1284, "pitch": 68, "duration": 10, "velocity": 80}, {"time": 1284, "pitch": 72, "duration": 8, "velocity": 80}, {"time": 1290, "pitch": 48, "duration": 4, "velocity": 49}, {"time": 1296, "pitch": 63, "duration": 2, "velocity": 49}, {"time": 1302, "pitch": 37, "duration": 12, "velocity": 59}, {"time": 1302, "pitch": 49, "duration": 13, "velocity": 66}, {"time": 1302, "pitch": 65, "duration": 2, "velocity": 58}, {"time": 1302, "pitch": 68, "duration": 2, "velocity": 69}, {"time": 1302, "pitch": 73, "duration": 3, "velocity": 65}, {"time": 1314, "pitch": 66, "duration": 13, "velocity": 59}, {"time": 1314, "pitch": 68, "duration": 13, "velocity": 77}, {"time": 1314, "pitch": 73, "duration": 13, "velocity": 71}, {"time": 1320, "pitch": 37, "duration": 1, "velocity": 60}, {"time": 1320, "pitch": 49, "duration": 2, "velocity": 52}, {"time": 1326, "pitch": 44, "duration": 6, "velocity": 66}, {"time": 1332, "pitch": 66, "duration": 2, "velocity": 74}, {"time": 1332, "pitch": 68, "duration": 1, "velocity": 80}, {"time": 1332, "pitch": 73, "duration": 2, "velocity": 59}, {"time": 1338, "pitch": 44, "duration": 1, "velocity": 57}, {"time": 1350, "pitch": 37, "duration": 1, "velocity": 75}, {"time": 1350, "pitch": 49, "duration": 1, "velocity": 73}, {"time": 1350, "pitch": 61, "duration": 2, "velocity": 75}, {"time": 1350, "pitch": 65, "duration": 1, "velocity": 67}, {"time": 1350, "pitch": 68, "duration": 2, "velocity": 77}, {"time": 1362, "pitch": 37, "duration": 2, "velocity": 75}, {"time": 1362, "pitch": 49, "duration": 3, "velocity": 75}, {"time": 1362, "pitch": 61, "duration": 1, "velocity": 71}, {"time": 1362, "pitch": 65, "duration": 1, "velocity": 64}, {"time": 1362, "pitch": 68, "duration": 3, "velocity": 82}, {"time": 1374, "pitch": 39, "duration": 12, "velocity": 73}, {"time": 1374, "pitch": 51, "duration": 14, "velocity": 65}, {"time": 1374, "pitch": 61, "duration": 10, "velocity": 66}, {"time": 1374, "pitch": 66, "duration": 13, "velocity": 65}, {"time": 1374, "pitch": 70, "duration": 11, "velocity": 69}, {"time": 1386, "pitch": 41, "duration": 3, "velocity": 77}, {"time": 1386, "pitch": 61, "duration": 4, "velocity": 67}, {"time": 1386, "pitch": 68, "duration": 4, "velocity": 84}, {"time": 1398, "pitch": 42, "duration": 9, "velocity": 51}, {"time": 1398, "pitch": 54, "duration": 13, "velocity": 53}, {"time": 1398, "pitch": 58, "duration": 2, "velocity": 55}, {"time": 1398, "pitch": 61, "duration": 2, "velocity": 47}, {"time": 1398, "pitch": 66, "duration": 3, "velocity": 58}, {"time": 1410, "pitch": 58, "duration": 12, "velocity": 65}, {"time": 1410, "pitch": 61, "duration": 14, "velocity": 64}, {"time": 1410, "pitch": 66, "duration": 12, "velocity": 62}, {"time": 1416, "pitch": 42, "duration": 2, "velocity": 42}, {"time": 1416, "pitch": 54, "duration": 2, "velocity": 36}, {"time": 1422, "pitch": 49, "duration": 6, "velocity": 68}, {"time": 1428, "pitch": 58, "duration": 1, "velocity": 64}, {"time": 1428, "pitch": 61, "duration": 3, "velocity": 76}, {"time": 1428, "pitch": 66, "duration": 2, "velocity": 64}, {"time": 1434, "pitch": 49, "duration": 10, "velocity": 55}, {"time": 1440, "pitch": 58, "duration": 2, "velocity": 61}, {"time": 1440, "pitch": 61, "duration": 4, "velocity": 70}, {"time": 1440, "pitch": 66, "duration": 4, "velocity": 51}, {"time": 1446, "pitch": 42, "duration": 10, "velocity": 45}, {"time": 1446, "pitch": 54, "duration": 13, "velocity": 49}, {"time": 1458, "pitch": 58, "duration": 5, "velocity": 63}, {"time": 1458, "pitch": 61, "duration": 6, "velocity": 70}, {"time": 1458, "pitch": 66, "duration": 8, "velocity": 47}, {"time": 1464, "pitch": 42, "duration": 1, "velocity": 46}, {"time": 1470, "pitch": 49, "duration": 5, "velocity": 70}, {"time": 1476, "pitch": 58, "duration": 3, "velocity": 74}, {"time": 1476, "pitch": 61, "duration": 4, "velocity": 78}, {"time": 1476, "pitch": 66, "duration": 5, "velocity": 75}, {"time": 1482, "pitch": 49, "duration": 1, "velocity": 59}, {"time": 1494, "pitch": 39, "duration": 10, "velocity": 47}, {"time": 1494, "pitch": 51, "duration": 13, "velocity": 44}, {"time": 1494, "pitch": 58, "duration": 3, "velocity": 64}, {"time": 1494, "pitch": 63, "duration": 2, "velocity": 58}, {"time": 1494, "pitch": 66, "duration": 3, "velocity": 49}, {"time": 1506, "pitch": 58, "duration": 9, "velocity": 50}, {"time": 1506, "pitch": 63, "duration": 8, "velocity": 45}, {"time": 1506, "pitch": 66, "duration": 9, "velocity": 47}, {"time": 1518, "pitch": 35, "duration": 12, "velocity": 45}, {"time": 1518, "pitch": 47, "duration": 7, "velocity": 51}, {"time": 1524, "pitch": 59, "duration": 7, "velocity": 61}, {"time": 1524, "pitch": 63, "duration": 9, "velocity": 58}, {"time": 1524, "pitch": 66, "duration": 7, "velocity": 48}, {"time": 1530, "pitch": 47, "duration": 3, "velocity": 57}, {"time": 1536, "pitch": 61, "duration": 2, "velocity": 55}, {"time": 1542, "pitch": 42, "duration": 11, "velocity": 57}, {"time": 1542, "pitch": 58, "duration": 2, "velocity": 47}, {"time": 1542, "pitch": 61, "duration": 2, "velocity": 58}, {"time": 1554, "pitch": 58, "duration": 12, "velocity": 70}, {"time": 1554, "pitch": 61, "duration": 11, "velocity": 72}, {"time": 1554, "pitch": 66, "duration": 12, "velocity": 50}, {"time": 1560, "pitch": 42, "duration": 2, "velocity": 43}, {"time": 1560, "pitch": 54, "duration": 2, "velocity": 47}, {"time": 1566, "pitch": 49, "duration": 6, "velocity": 76}, {"time": 1572, "pitch": 58, "duration": 21, "velocity": 64}, {"time": 1572, "pitch": 61, "duration": 20, "velocity": 62}, {"time": 1572, "pitch": 66, "duration": 18, "velocity": 66}, {"time": 1578, "pitch": 49, "duration": 1, "velocity": 69}, {"time": 1584, "pitch": 41, "duration": 2, "velocity": 66}, {"time": 1584, "pitch": 53, "duration": 1, "velocity": 23}, {"time": 1590, "pitch": 39, "duration": 12, "velocity": 52}, {"time": 1590, "pitch": 51, "duration": 12, "velocity": 53}, {"time": 1602, "pitch": 58, "duration": 14, "velocity": 60}, {"time": 1602, "pitch": 61, "duration": 13, "velocity": 57}, {"time": 1602, "pitch": 66, "duration": 13, "velocity": 50}, {"time": 1608, "pitch": 39, "duration": 3, "velocity": 66}, {"time": 1608, "pitch": 51, "duration": 2, "velocity": 36}, {"time": 1614, "pitch": 46, "duration": 6, "velocity": 71}, {"time": 1620, "pitch": 58, "duration": 6, "velocity": 62}, {"time": 1620, "pitch": 61, "duration": 7, "velocity": 73}, {"time": 1620, "pitch": 66, "duration": 17, "velocity": 64}, {"time": 1626, "pitch": 46, "duration": 1, "velocity": 71}, {"time": 1635, "pitch": 61, "duration": 5, "velocity": 34}, {"time": 1638, "pitch": 35, "duration": 15, "velocity": 61}, {"time": 1638, "pitch": 47, "duration": 14, "velocity": 63}, {"time": 1650, "pitch": 59, "duration": 11, "velocity": 66}, {"time": 1650, "pitch": 63, "duration": 15, "velocity": 64}, {"time": 1650, "pitch": 66, "duration": 16, "velocity": 50}, {"time": 1656, "pitch": 35, "duration": 1, "velocity": 37}, {"time": 1656, "pitch": 47, "duration": 4, "velocity": 65}, {"time": 1662, "pitch": 37, "duration": 11, "velocity": 68}, {"time": 1662, "pitch": 49, "duration": 7, "velocity": 69}, {"time": 1668, "pitch": 56, "duration": 6, "velocity": 72}, {"time": 1668, "pitch": 61, "duration": 11, "velocity": 68}, {"time": 1668, "pitch": 65, "duration": 9, "velocity": 51}, {"time": 1674, "pitch": 49, "duration": 2, "velocity": 58}, {"time": 1686, "pitch": 42, "duration": 10, "velocity": 52}, {"time": 1686, "pitch": 54, "duration": 13, "velocity": 62}, {"time": 1686, "pitch": 58, "duration": 3, "velocity": 57}, {"time": 1686, "pitch": 61, "duration": 2, "velocity": 49}, {"time": 1686, "pitch": 66, "duration": 4, "velocity": 64}, {"time": 1698, "pitch": 58, "duration": 14, "velocity": 55}, {"time": 1698, "pitch": 61, "duration": 12, "velocity": 58}, {"time": 1698, "pitch": 66, "duration": 12, "velocity": 61}, {"time": 1704, "pitch": 54, "duration": 2, "velocity": 60}, {"time": 1710, "pitch": 49, "duration": 4, "velocity": 76}, {"time": 1716, "pitch": 58, "duration": 2, "velocity": 45}, {"time": 1716, "pitch": 61, "duration": 2, "velocity": 60}, {"time": 1716, "pitch": 66, "duration": 4, "velocity": 72}, {"time": 1722, "pitch": 49, "duration": 2, "velocity": 61}, {"time": 1728, "pitch": 54, "duration": 2, "velocity": 36}, {"time": 1728, "pitch": 58, "duration": 5, "velocity": 58}, {"time": 1734, "pitch": 42, "duration": 3, "velocity": 66}, {"time": 1734, "pitch": 54, "duration": 3, "velocity": 68}, {"time": 1734, "pitch": 58, "duration": 2, "velocity": 59}, {"time": 1734, "pitch": 61, "duration": 2, "velocity": 71}, {"time": 1734, "pitch": 66, "duration": 2, "velocity": 66}, {"time": 1746, "pitch": 42, "duration": 2, "velocity": 67}, {"time": 1746, "pitch": 54, "duration": 2, "velocity": 63}, {"time": 1746, "pitch": 58, "duration": 2, "velocity": 57}, {"time": 1746, "pitch": 61, "duration": 2, "velocity": 33}, {"time": 1746, "pitch": 66, "duration": 3, "velocity": 72}, {"time": 1758, "pitch": 42, "duration": 3, "velocity": 62}, {"time": 1758, "pitch": 54, "duration": 3, "velocity": 54}, {"time": 1758, "pitch": 61, "duration": 2, "velocity": 47}, {"time": 1758, "pitch": 68, "duration": 3, "velocity": 73}, {"time": 1770, "pitch": 42, "duration": 2, "velocity": 59}, {"time": 1770, "pitch": 54, "duration": 2, "velocity": 69}, {"time": 1770, "pitch": 70, "duration": 2, "velocity": 67}, {"time": 1974, "pitch": 42, "duration": 13, "velocity": 58}, {"time": 1974, "pitch": 54, "duration": 15, "velocity": 63}, {"time": 1974, "pitch": 58, "duration": 4, "velocity": 61}, {"time": 1974, "pitch": 61, "duration": 1, "velocity": 68}, {"time": 1974, "pitch": 66, "duration": 5, "velocity": 66}, {"time": 1986, "pitch": 58, "duration": 15, "velocity": 64}, {"time": 1986, "pitch": 61, "duration": 14, "velocity": 63}, {"time": 1986, "pitch": 66, "duration": 14, "velocity": 62}, {"time": 1992, "pitch": 42, "duration": 3, "velocity": 58}, {"time": 1992, "pitch": 54, "duration": 2, "velocity": 40}, {"time": 1998, "pitch": 49, "duration": 8, "velocity": 72}, {"time": 2004, "pitch": 58, "duration": 8, "velocity": 55}, {"time": 2004, "pitch": 61, "duration": 9, "velocity": 74}, {"time": 2004, "pitch": 66, "duration": 16, "velocity": 64}, {"time": 2010, "pitch": 49, "duration": 8, "velocity": 64}, {"time": 2016, "pitch": 58, "duration": 3, "velocity": 53}, {"time": 2016, "pitch": 61, "duration": 5, "velocity": 51}, {"time": 2016, "pitch": 66, "duration": 4, "velocity": 24}, {"time": 2022, "pitch": 42, "duration": 14, "velocity": 63}, {"time": 2022, "pitch": 54, "duration": 15, "velocity": 70}, {"time": 2034, "pitch": 58, "duration": 14, "velocity": 63}, {"time": 2034, "pitch": 61, "duration": 14, "velocity": 72}, {"time": 2034, "pitch": 66, "duration": 13, "velocity": 59}, {"time": 2040, "pitch": 42, "duration": 3, "velocity": 68}, {"time": 2040, "pitch": 54, "duration": 3, "velocity": 54}, {"time": 2046, "pitch": 49, "duration": 7, "velocity": 78}, {"time": 2052, "pitch": 58, "duration": 5, "velocity": 58}, {"time": 2052, "pitch": 61, "duration": 7, "velocity": 62}, {"time": 2052, "pitch": 66, "duration": 6, "velocity": 57}, {"time": 2058, "pitch": 49, "duration": 3, "velocity": 76}, {"time": 2064, "pitch": 58, "duration": 6, "velocity": 56}, {"time": 2064, "pitch": 61, "duration": 10, "velocity": 67}, {"time": 2064, "pitch": 66, "duration": 11, "velocity": 51}, {"time": 2070, "pitch": 35, "duration": 12, "velocity": 58}, {"time": 2070, "pitch": 47, "duration": 15, "velocity": 73}, {"time": 2082, "pitch": 59, "duration": 15, "velocity": 69}, {"time": 2082, "pitch": 63, "duration": 15, "velocity": 61}, {"time": 2082, "pitch": 66, "duration": 15, "velocity": 65}, {"time": 2088, "pitch": 35, "duration": 2, "velocity": 52}, {"time": 2088, "pitch": 47, "duration": 3, "velocity": 61}, {"time": 2094, "pitch": 42, "duration": 8, "velocity": 73}, {"time": 2100, "pitch": 59, "duration": 8, "velocity": 50}, {"time": 2100, "pitch": 63, "duration": 15, "velocity": 48}, {"time": 2100, "pitch": 66, "duration": 9, "velocity": 53}, {"time": 2106, "pitch": 42, "duration": 2, "velocity": 62}, {"time": 2118, "pitch": 42, "duration": 12, "velocity": 54}, {"time": 2118, "pitch": 54, "duration": 14, "velocity": 59}, {"time": 2118, "pitch": 58, "duration": 4, "velocity": 60}, {"time": 2118, "pitch": 61, "duration": 4, "velocity": 65}, {"time": 2118, "pitch": 66, "duration": 4, "velocity": 57}, {"time": 2130, "pitch": 58, "duration": 13, "velocity": 55}, {"time": 2130, "pitch": 61, "duration": 13, "velocity": 71}, {"time": 2130, "pitch": 66, "duration": 13, "velocity": 56}, {"time": 2136, "pitch": 42, "duration": 2, "velocity": 42}, {"time": 2136, "pitch": 54, "duration": 3, "velocity": 55}, {"time": 2142, "pitch": 49, "duration": 6, "velocity": 70}, {"time": 2148, "pitch": 58, "duration": 7, "velocity": 62}, {"time": 2148, "pitch": 61, "duration": 8, "velocity": 72}, {"time": 2148, "pitch": 66, "duration": 8, "velocity": 69}, {"time": 2154, "pitch": 41, "duration": 3, "velocity": 67}, {"time": 2154, "pitch": 53, "duration": 3, "velocity": 55}, {"time": 2166, "pitch": 39, "duration": 14, "velocity": 64}, {"time": 2166, "pitch": 51, "duration": 15, "velocity": 62}, {"time": 2166, "pitch": 58, "duration": 2, "velocity": 56}, {"time": 2166, "pitch": 61, "duration": 2, "velocity": 60}, {"time": 2166, "pitch": 66, "duration": 4, "velocity": 52}, {"time": 2178, "pitch": 58, "duration": 9, "velocity": 28}, {"time": 2178, "pitch": 61, "duration": 12, "velocity": 59}, {"time": 2178, "pitch": 66, "duration": 13, "velocity": 58}, {"time": 2184, "pitch": 39, "duration": 2, "velocity": 66}, {"time": 2184, "pitch": 51, "duration": 2, "velocity": 39}, {"time": 2190, "pitch": 46, "duration": 7, "velocity": 70}, {"time": 2196, "pitch": 58, "duration": 8, "velocity": 55}, {"time": 2196, "pitch": 61, "duration": 8, "velocity": 60}, {"time": 2196, "pitch": 66, "duration": 8, "velocity": 49}, {"time": 2202, "pitch": 51, "duration": 4, "velocity": 61}, {"time": 2208, "pitch": 61, "duration": 4, "velocity": 58}, {"time": 2214, "pitch": 44, "duration": 13, "velocity": 52}, {"time": 2214, "pitch": 56, "duration": 14, "velocity": 56}, {"time": 2214, "pitch": 60, "duration": 3, "velocity": 60}, {"time": 2214, "pitch": 63, "duration": 3, "velocity": 60}, {"time": 2214, "pitch": 68, "duration": 2, "velocity": 36}, {"time": 2226, "pitch": 60, "duration": 14, "velocity": 62}, {"time": 2226, "pitch": 63, "duration": 14, "velocity": 64}, {"time": 2226, "pitch": 68, "duration": 14, "velocity": 65}, {"time": 2232, "pitch": 44, "duration": 3, "velocity": 57}, {"time": 2232, "pitch": 56, "duration": 2, "velocity": 40}, {"time": 2238, "pitch": 51, "duration": 6, "velocity": 66}, {"time": 2244, "pitch": 60, "duration": 9, "velocity": 65}, {"time": 2244, "pitch": 63, "duration": 8, "velocity": 64}, {"time": 2244, "pitch": 68, "duration": 9, "velocity": 64}, {"time": 2250, "pitch": 51, "duration": 1, "velocity": 66}, {"time": 2262, "pitch": 37, "duration": 14, "velocity": 61}, {"time": 2262, "pitch": 49, "duration": 14, "velocity": 65}, {"time": 2262, "pitch": 56, "duration": 3, "velocity": 55}, {"time": 2262, "pitch": 61, "duration": 5, "velocity": 55}, {"time": 2262, "pitch": 65, "duration": 4, "velocity": 62}, {"time": 2274, "pitch": 56, "duration": 14, "velocity": 64}, {"time": 2274, "pitch": 61, "duration": 15, "velocity": 66}, {"time": 2274, "pitch": 65, "duration": 13, "velocity": 63}, {"time": 2280, "pitch": 37, "duration": 2, "velocity": 56}, {"time": 2280, "pitch": 49, "duration": 2, "velocity": 64}, {"time": 2286, "pitch": 44, "duration": 6, "velocity": 62}, {"time": 2292, "pitch": 61, "duration": 12, "velocity": 82}, {"time": 2298, "pitch": 44, "duration": 8, "velocity": 55}, {"time": 2304, "pitch": 56, "duration": 2, "velocity": 50}, {"time": 2310, "pitch": 37, "duration": 3, "velocity": 67}, {"time": 2310, "pitch": 49, "duration": 4, "velocity": 63}, {"time": 2310, "pitch": 56, "duration": 3, "velocity": 70}, {"time": 2310, "pitch": 61, "duration": 2, "velocity": 63}, {"time": 2310, "pitch": 65, "duration": 4, "velocity": 67}, {"time": 2322, "pitch": 37, "duration": 2, "velocity": 63}, {"time": 2322, "pitch": 49, "duration": 3, "velocity": 74}, {"time": 2322, "pitch": 56, "duration": 3, "velocity": 69}, {"time": 2322, "pitch": 61, "duration": 2, "velocity": 52}, {"time": 2322, "pitch": 65, "duration": 3, "velocity": 58}, {"time": 2334, "pitch": 39, "duration": 2, "velocity": 54}, {"time": 2334, "pitch": 51, "duration": 3, "velocity": 62}, {"time": 2334, "pitch": 58, "duration": 2, "velocity": 57}, {"time": 2334, "pitch": 61, "duration": 2, "velocity": 74}, {"time": 2334, "pitch": 66, "duration": 3, "velocity": 59}, {"time": 2346, "pitch": 41, "duration": 1, "velocity": 25}, {"time": 2346, "pitch": 53, "duration": 1, "velocity": 73}, {"time": 2346, "pitch": 61, "duration": 1, "velocity": 73}, {"time": 2346, "pitch": 68, "duration": 2, "velocity": 82}, {"time": 2358, "pitch": 42, "duration": 13, "velocity": 47}, {"time": 2358, "pitch": 54, "duration": 14, "velocity": 56}, {"time": 2358, "pitch": 61, "duration": 1, "velocity": 73}, {"time": 2358, "pitch": 66, "duration": 2, "velocity": 69}, {"time": 2358, "pitch": 70, "duration": 1, "velocity": 74}, {"time": 2370, "pitch": 61, "duration": 14, "velocity": 69}, {"time": 2370, "pitch": 66, "duration": 13, "velocity": 60}, {"time": 2370, "pitch": 70, "duration": 14, "velocity": 77}, {"time": 2376, "pitch": 42, "duration": 2, "velocity": 59}, {"time": 2376, "pitch": 54, "duration": 2, "velocity": 50}, {"time": 2382, "pitch": 49, "duration": 7, "velocity": 72}, {"time": 2388, "pitch": 61, "duration": 4, "velocity": 61}, {"time": 2388, "pitch": 66, "duration": 4, "velocity": 67}, {"time": 2388, "pitch": 70, "duration": 2, "velocity": 66}, {"time": 2394, "pitch": 49, "duration": 10, "velocity": 59}, {"time": 2406, "pitch": 42, "duration": 13, "velocity": 65}, {"time": 2406, "pitch": 54, "duration": 14, "velocity": 60}, {"time": 2406, "pitch": 58, "duration": 3, "velocity": 51}, {"time": 2406, "pitch": 61, "duration": 2, "velocity": 61}, {"time": 2406, "pitch": 66, "duration": 2, "velocity": 39}, {"time": 2418, "pitch": 58, "duration": 15, "velocity": 57}, {"time": 2418, "pitch": 61, "duration": 15, "velocity": 59}, {"time": 2418, "pitch": 66, "duration": 15, "velocity": 52}, {"time": 2424, "pitch": 42, "duration": 2, "velocity": 44}, {"time": 2424, "pitch": 54, "duration": 3, "velocity": 55}, {"time": 2430, "pitch": 49, "duration": 7, "velocity": 75}, {"time": 2436, "pitch": 58, "duration": 8, "velocity": 55}, {"time": 2436, "pitch": 61, "duration": 8, "velocity": 58}, {"time": 2436, "pitch": 66, "duration": 8, "velocity": 62}, {"time": 2442, "pitch": 54, "duration": 9, "velocity": 69}, {"time": 2448, "pitch": 58, "duration": 7, "velocity": 54}, {"time": 2448, "pitch": 61, "duration": 11, "velocity": 68}, {"time": 2448, "pitch": 66, "duration": 14, "velocity": 49}, {"time": 2454, "pitch": 47, "duration": 14, "velocity": 74}, {"time": 2466, "pitch": 59, "duration": 15, "velocity": 68}, {"time": 2466, "pitch": 63, "duration": 16, "velocity": 59}, {"time": 2466, "pitch": 66, "duration": 15, "velocity": 51}, {"time": 2472, "pitch": 47, "duration": 4, "velocity": 62}, {"time": 2478, "pitch": 54, "duration": 7, "velocity": 55}, {"time": 2484, "pitch": 59, "duration": 8, "velocity": 64}, {"time": 2484, "pitch": 63, "duration": 12, "velocity": 45}, {"time": 2484, "pitch": 66, "duration": 8, "velocity": 51}, {"time": 2490, "pitch": 54, "duration": 8, "velocity": 58}, {"time": 2496, "pitch": 61, "duration": 10, "velocity": 61}, {"time": 2502, "pitch": 42, "duration": 10, "velocity": 53}, {"time": 2502, "pitch": 54, "duration": 15, "velocity": 58}, {"time": 2502, "pitch": 58, "duration": 3, "velocity": 61}, {"time": 2502, "pitch": 66, "duration": 2, "velocity": 49}, {"time": 2514, "pitch": 58, "duration": 13, "velocity": 70}, {"time": 2514, "pitch": 61, "duration": 12, "velocity": 81}, {"time": 2514, "pitch": 66, "duration": 13, "velocity": 56}, {"time": 2520, "pitch": 42, "duration": 2, "velocity": 48}, {"time": 2520, "pitch": 54, "duration": 2, "velocity": 41}, {"time": 2526, "pitch": 49, "duration": 7, "velocity": 66}, {"time": 2532, "pitch": 58, "duration": 7, "velocity": 57}, {"time": 2532, "pitch": 61, "duration": 8, "velocity": 66}, {"time": 2532, "pitch": 66, "duration": 8, "velocity": 77}, {"time": 2538, "pitch": 41, "duration": 3, "velocity": 67}, {"time": 2538, "pitch": 53, "duration": 3, "velocity": 67}, {"time": 2544, "pitch": 65, "duration": 6, "velocity": 59}, {"time": 2550, "pitch": 39, "duration": 9, "velocity": 52}, {"time": 2550, "pitch": 51, "duration": 14, "velocity": 53}, {"time": 2550, "pitch": 58, "duration": 3, "velocity": 42}, {"time": 2550, "pitch": 61, "duration": 2, "velocity": 57}, {"time": 2550, "pitch": 66, "duration": 4, "velocity": 40}, {"time": 2562, "pitch": 58, "duration": 13, "velocity": 55}, {"time": 2562, "pitch": 61, "duration": 13, "velocity": 55}, {"time": 2562, "pitch": 66, "duration": 14, "velocity": 74}, {"time": 2568, "pitch": 39, "duration": 1, "velocity": 64}, {"time": 2568, "pitch": 51, "duration": 2, "velocity": 32}, {"time": 2574, "pitch": 46, "duration": 7, "velocity": 70}, {"time": 2580, "pitch": 58, "duration": 7, "velocity": 61}, {"time": 2580, "pitch": 61, "duration": 10, "velocity": 67}, {"time": 2580, "pitch": 66, "duration": 10, "velocity": 72}, {"time": 2586, "pitch": 46, "duration": 2, "velocity": 71}, {"time": 2598, "pitch": 35, "duration": 18, "velocity": 60}, {"time": 2598, "pitch": 47, "duration": 12, "velocity": 65}, {"time": 2598, "pitch": 59, "duration": 4, "velocity": 59}, {"time": 2598, "pitch": 63, "duration": 4, "velocity": 60}, {"time": 2598, "pitch": 66, "duration": 3, "velocity": 43}, {"time": 2610, "pitch": 59, "duration": 12, "velocity": 66}, {"time": 2610, "pitch": 63, "duration": 12, "velocity": 55}, {"time": 2610, "pitch": 66, "duration": 12, "velocity": 41}, {"time": 2622, "pitch": 37, "duration": 11, "velocity": 60}, {"time": 2622, "pitch": 49, "duration": 7, "velocity": 74}, {"time": 2628, "pitch": 56, "duration": 8, "velocity": 67}, {"time": 2628, "pitch": 61, "duration": 7, "velocity": 61}, {"time": 2628, "pitch": 65, "duration": 9, "velocity": 54}, {"time": 2634, "pitch": 49, "duration": 4, "velocity": 59}, {"time": 2640, "pitch": 63, "duration": 6, "velocity": 59}, {"time": 2646, "pitch": 42, "duration": 11, "velocity": 62}, {"time": 2646, "pitch": 54, "duration": 13, "velocity": 61}, {"time": 2646, "pitch": 58, "duration": 3, "velocity": 55}, {"time": 2646, "pitch": 61, "duration": 3, "velocity": 66}, {"time": 2646, "pitch": 66, "duration": 4, "velocity": 65}, {"time": 2658, "pitch": 58, "duration": 13, "velocity": 58}, {"time": 2658, "pitch": 61, "duration": 13, "velocity": 62}, {"time": 2658, "pitch": 66, "duration": 13, "velocity": 61}, {"time": 2664, "pitch": 42, "duration": 2, "velocity": 56}, {"time": 2664, "pitch": 54, "duration": 2, "velocity": 57}, {"time": 2670, "pitch": 49, "duration": 5, "velocity": 75}, {"time": 2676, "pitch": 58, "duration": 2, "velocity": 55}, {"time": 2676, "pitch": 61, "duration": 2, "velocity": 61}, {"time": 2676, "pitch": 66, "duration": 4, "velocity": 61}, {"time": 2682, "pitch": 49, "duration": 1, "velocity": 62}, {"time": 2688, "pitch": 42, "duration": 3, "velocity": 70}, {"time": 2688, "pitch": 54, "duration": 2, "velocity": 64}, {"time": 2688, "pitch": 59, "duration": 3, "velocity": 60}, {"time": 2688, "pitch": 63, "duration": 2, "velocity": 53}, {"time": 2700, "pitch": 42, "duration": 4, "velocity": 60}, {"time": 2700, "pitch": 54, "duration": 4, "velocity": 61}, {"time": 2700, "pitch": 58, "duration": 12, "velocity": 65}, {"time": 2700, "pitch": 61, "duration": 12, "velocity": 69}, {"time": 2700, "pitch": 66, "duration": 12, "velocity": 67}, {"time": 2712, "pitch": 42, "duration": 2, "velocity": 47}, {"time": 2712, "pitch": 54, "duration": 2, "velocity": 57}, {"time": 2718, "pitch": 41, "duration": 3, "velocity": 65}, {"time": 2718, "pitch": 53, "duration": 3, "velocity": 74}, {"time": 2718, "pitch": 58, "duration": 3, "velocity": 48}, {"time": 2718, "pitch": 61, "duration": 3, "velocity": 57}, {"time": 2718, "pitch": 66, "duration": 3, "velocity": 72}, {"time": 2724, "pitch": 65, "duration": 1, "velocity": 22}, {"time": 2730, "pitch": 53, "duration": 1, "velocity": 60}, {"time": 2730, "pitch": 56, "duration": 3, "velocity": 56}, {"time": 2730, "pitch": 65, "duration": 4, "velocity": 55}, {"time": 2736, "pitch": 61, "duration": 4, "velocity": 69}, {"time": 2742, "pitch": 39, "duration": 10, "velocity": 41}, {"time": 2742, "pitch": 51, "duration": 14, "velocity": 39}, {"time": 2742, "pitch": 61, "duration": 3, "velocity": 73}, {"time": 2742, "pitch": 66, "duration": 2, "velocity": 66}, {"time": 2742, "pitch": 70, "duration": 4, "velocity": 70}, {"time": 2754, "pitch": 61, "duration": 14, "velocity": 73}, {"time": 2754, "pitch": 66, "duration": 15, "velocity": 66}, {"time": 2754, "pitch": 70, "duration": 15, "velocity": 78}, {"time": 2760, "pitch": 39, "duration": 3, "velocity": 56}, {"time": 2760, "pitch": 51, "duration": 2, "velocity": 29}, {"time": 2766, "pitch": 46, "duration": 14, "velocity": 67}, {"time": 2772, "pitch": 61, "duration": 7, "velocity": 72}, {"time": 2772, "pitch": 66, "duration": 10, "velocity": 66}, {"time": 2772, "pitch": 70, "duration": 9, "velocity": 78}, {"time": 2778, "pitch": 51, "duration": 4, "velocity": 59}, {"time": 2784, "pitch": 61, "duration": 3, "velocity": 56}, {"time": 2790, "pitch": 46, "duration": 13, "velocity": 62}, {"time": 2790, "pitch": 58, "duration": 14, "velocity": 60}, {"time": 2790, "pitch": 61, "duration": 7, "velocity": 66}, {"time": 2790, "pitch": 65, "duration": 4, "velocity": 68}, {"time": 2790, "pitch": 68, "duration": 6, "velocity": 70}, {"time": 2802, "pitch": 61, "duration": 13, "velocity": 65}, {"time": 2802, "pitch": 65, "duration": 13, "velocity": 68}, {"time": 2802, "pitch": 68, "duration": 13, "velocity": 71}, {"time": 2808, "pitch": 46, "duration": 2, "velocity": 65}, {"time": 2808, "pitch": 58, "duration": 2, "velocity": 42}, {"time": 2814, "pitch": 53, "duration": 7, "velocity": 80}, {"time": 2820, "pitch": 61, "duration": 4, "velocity": 66}, {"time": 2820, "pitch": 65, "duration": 6, "velocity": 68}, {"time": 2820, "pitch": 68, "duration": 7, "velocity": 79}, {"time": 2826, "pitch": 58, "duration": 2, "velocity": 61}, {"time": 2838, "pitch": 47, "duration": 11, "velocity": 75}, {"time": 2838, "pitch": 59, "duration": 11, "velocity": 67}, {"time": 2838, "pitch": 63, "duration": 3, "velocity": 48}, {"time": 2838, "pitch": 66, "duration": 3, "velocity": 62}, {"time": 2838, "pitch": 71, "duration": 4, "velocity": 65}, {"time": 2850, "pitch": 63, "duration": 9, "velocity": 61}, {"time": 2850, "pitch": 66, "duration": 10, "velocity": 57}, {"time": 2850, "pitch": 71, "duration": 15, "velocity": 67}, {"time": 2856, "pitch": 47, "duration": 3, "velocity": 60}, {"time": 2856, "pitch": 59, "duration": 2, "velocity": 39}, {"time": 2862, "pitch": 49, "duration": 8, "velocity": 71}, {"time": 2868, "pitch": 61, "duration": 8, "velocity": 71}, {"time": 2868, "pitch": 65, "duration": 9, "velocity": 73}, {"time": 2868, "pitch": 68, "duration": 11, "velocity": 74}, {"time": 2874, "pitch": 49, "duration": 3, "velocity": 65}, {"time": 2880, "pitch": 61, "duration": 4, "velocity": 44}, {"time": 2886, "pitch": 42, "duration": 12, "velocity": 71}, {"time": 2886, "pitch": 61, "duration": 3, "velocity": 69}, {"time": 2886, "pitch": 66, "duration": 1, "velocity": 59}, {"time": 2886, "pitch": 70, "duration": 3, "velocity": 77}, {"time": 2889, "pitch": 54, "duration": 11, "velocity": 21}, {"time": 2898, "pitch": 61, "duration": 13, "velocity": 71}, {"time": 2898, "pitch": 66, "duration": 13, "velocity": 61}, {"time": 2898, "pitch": 70, "duration": 13, "velocity": 72}, {"time": 2904, "pitch": 42, "duration": 1, "velocity": 60}, {"time": 2904, "pitch": 54, "duration": 2, "velocity": 35}, {"time": 2910, "pitch": 42, "duration": 6, "velocity": 64}, {"time": 2910, "pitch": 54, "duration": 7, "velocity": 65}, {"time": 2916, "pitch": 61, "duration": 15, "velocity": 73}, {"time": 2916, "pitch": 66, "duration": 14, "velocity": 60}, {"time": 2916, "pitch": 70, "duration": 16, "velocity": 80}, {"time": 2922, "pitch": 49, "duration": 1, "velocity": 62}, {"time": 2928, "pitch": 41, "duration": 1, "velocity": 62}, {"time": 2928, "pitch": 53, "duration": 1, "velocity": 48}, {"time": 2934, "pitch": 39, "duration": 13, "velocity": 58}, {"time": 2934, "pitch": 51, "duration": 14, "velocity": 61}, {"time": 2946, "pitch": 61, "duration": 15, "velocity": 69}, {"time": 2946, "pitch": 66, "duration": 15, "velocity": 59}, {"time": 2946, "pitch": 70, "duration": 15, "velocity": 75}, {"time": 2952, "pitch": 39, "duration": 2, "velocity": 59}, {"time": 2952, "pitch": 51, "duration": 2, "velocity": 42}, {"time": 2958, "pitch": 46, "duration": 6, "velocity": 70}, {"time": 2964, "pitch": 61, "duration": 8, "velocity": 63}, {"time": 2964, "pitch": 66, "duration": 8, "velocity": 64}, {"time": 2964, "pitch": 70, "duration": 8, "velocity": 70}, {"time": 2970, "pitch": 46, "duration": 3, "velocity": 72}, {"time": 2970, "pitch": 51, "duration": 2, "velocity": 31}, {"time": 2976, "pitch": 61, "duration": 3, "velocity": 69}, {"time": 2976, "pitch": 66, "duration": 5, "velocity": 62}, {"time": 2976, "pitch": 70, "duration": 4, "velocity": 72}, {"time": 2982, "pitch": 35, "duration": 20, "velocity": 62}, {"time": 2982, "pitch": 47, "duration": 15, "velocity": 61}, {"time": 2994, "pitch": 63, "duration": 13, "velocity": 64}, {"time": 2994, "pitch": 66, "duration": 11, "velocity": 60}, {"time": 2994, "pitch": 71, "duration": 12, "velocity": 75}, {"time": 3000, "pitch": 47, "duration": 2, "velocity": 59}, {"time": 3006, "pitch": 36, "duration": 14, "velocity": 70}, {"time": 3006, "pitch": 48, "duration": 8, "velocity": 70}, {"time": 3012, "pitch": 63, "duration": 8, "velocity": 72}, {"time": 3012, "pitch": 68, "duration": 10, "velocity": 80}, {"time": 3012, "pitch": 72, "duration": 8, "velocity": 80}, {"time": 3018, "pitch": 48, "duration": 4, "velocity": 49}, {"time": 3024, "pitch": 63, "duration": 2, "velocity": 49}, {"time": 3030, "pitch": 37, "duration": 12, "velocity": 59}, {"time": 3030, "pitch": 49, "duration": 13, "velocity": 66}, {"time": 3030, "pitch": 65, "duration": 2, "velocity": 58}, {"time": 3030, "pitch": 68, "duration": 2, "velocity": 69}, {"time": 3030, "pitch": 73, "duration": 3, "velocity": 65}, {"time": 3042, "pitch": 66, "duration": 13, "velocity": 59}, {"time": 3042, "pitch": 68, "duration": 13, "velocity": 77}, {"time": 3042, "pitch": 73, "duration": 13, "velocity": 71}, {"time": 3048, "pitch": 37, "duration": 1, "velocity": 60}, {"time": 3048, "pitch": 49, "duration": 2, "velocity": 52}, {"time": 3054, "pitch": 44, "duration": 6, "velocity": 66}, {"time": 3060, "pitch": 66, "duration": 2, "velocity": 74}, {"time": 3060, "pitch": 68, "duration": 1, "velocity": 80}, {"time": 3060, "pitch": 73, "duration": 2, "velocity": 59}, {"time": 3072, "pitch": 44, "duration": 1, "velocity": 57}, {"time": 3078, "pitch": 37, "duration": 1, "velocity": 75}, {"time": 3078, "pitch": 49, "duration": 1, "velocity": 73}, {"time": 3078, "pitch": 61, "duration": 2, "velocity": 75}, {"time": 3078, "pitch": 65, "duration": 1, "velocity": 67}, {"time": 3078, "pitch": 68, "duration": 2, "velocity": 77}, {"time": 3090, "pitch": 37, "duration": 2, "velocity": 75}, {"time": 3090, "pitch": 49, "duration": 3, "velocity": 75}, {"time": 3090, "pitch": 61, "duration": 1, "velocity": 71}, {"time": 3090, "pitch": 65, "duration": 1, "velocity": 64}, {"time": 3090, "pitch": 68, "duration": 3, "velocity": 82}, {"time": 3102, "pitch": 39, "duration": 12, "velocity": 73}, {"time": 3102, "pitch": 51, "duration": 14, "velocity": 65}, {"time": 3102, "pitch": 61, "duration": 10, "velocity": 66}, {"time": 3102, "pitch": 66, "duration": 13, "velocity": 65}, {"time": 3102, "pitch": 70, "duration": 11, "velocity": 69}, {"time": 3114, "pitch": 41, "duration": 3, "velocity": 77}, {"time": 3114, "pitch": 61, "duration": 4, "velocity": 67}, {"time": 3114, "pitch": 68, "duration": 4, "velocity": 84}, {"time": 3126, "pitch": 42, "duration": 9, "velocity": 51}, {"time": 3126, "pitch": 54, "duration": 13, "velocity": 53}, {"time": 3126, "pitch": 58, "duration": 2, "velocity": 55}, {"time": 3126, "pitch": 61, "duration": 2, "velocity": 47}, {"time": 3126, "pitch": 66, "duration": 3, "velocity": 58}, {"time": 3138, "pitch": 58, "duration": 12, "velocity": 65}, {"time": 3138, "pitch": 61, "duration": 14, "velocity": 64}, {"time": 3138, "pitch": 66, "duration": 12, "velocity": 62}, {"time": 3144, "pitch": 42, "duration": 2, "velocity": 42}, {"time": 3144, "pitch": 54, "duration": 2, "velocity": 36}, {"time": 3150, "pitch": 49, "duration": 6, "velocity": 68}, {"time": 3156, "pitch": 58, "duration": 1, "velocity": 64}, {"time": 3156, "pitch": 61, "duration": 3, "velocity": 76}, {"time": 3156, "pitch": 66, "duration": 2, "velocity": 64}, {"time": 3162, "pitch": 49, "duration": 10, "velocity": 55}, {"time": 3168, "pitch": 58, "duration": 2, "velocity": 61}, {"time": 3168, "pitch": 61, "duration": 4, "velocity": 70}, {"time": 3168, "pitch": 66, "duration": 4, "velocity": 51}, {"time": 3174, "pitch": 42, "duration": 10, "velocity": 45}, {"time": 3174, "pitch": 54, "duration": 13, "velocity": 49}, {"time": 3186, "pitch": 58, "duration": 5, "velocity": 63}, {"time": 3186, "pitch": 61, "duration": 6, "velocity": 70}, {"time": 3186, "pitch": 66, "duration": 8, "velocity": 47}, {"time": 3192, "pitch": 42, "duration": 1, "velocity": 46}, {"time": 3198, "pitch": 49, "duration": 5, "velocity": 70}, {"time": 3204, "pitch": 58, "duration": 3, "velocity": 74}, {"time": 3204, "pitch": 61, "duration": 4, "velocity": 78}, {"time": 3204, "pitch": 66, "duration": 5, "velocity": 75}, {"time": 3210, "pitch": 49, "duration": 1, "velocity": 59}, {"time": 3222, "pitch": 39, "duration": 10, "velocity": 47}, {"time": 3222, "pitch": 51, "duration": 13, "velocity": 44}, {"time": 3222, "pitch": 58, "duration": 3, "velocity": 64}, {"time": 3222, "pitch": 63, "duration": 2, "velocity": 58}, {"time": 3222, "pitch": 66, "duration": 3, "velocity": 49}, {"time": 3234, "pitch": 58, "duration": 9, "velocity": 50}, {"time": 3234, "pitch": 63, "duration": 8, "velocity": 45}, {"time": 3234, "pitch": 66, "duration": 9, "velocity": 47}, {"time": 3246, "pitch": 35, "duration": 12, "velocity": 45}, {"time": 3246, "pitch": 47, "duration": 7, "velocity": 51}, {"time": 3252, "pitch": 59, "duration": 7, "velocity": 61}, {"time": 3252, "pitch": 63, "duration": 9, "velocity": 58}, {"time": 3252, "pitch": 66, "duration": 7, "velocity": 48}, {"time": 3258, "pitch": 47, "duration": 3, "velocity": 57}, {"time": 3264, "pitch": 61, "duration": 2, "velocity": 55}, {"time": 3270, "pitch": 42, "duration": 11, "velocity": 57}, {"time": 3270, "pitch": 58, "duration": 2, "velocity": 47}, {"time": 3270, "pitch": 61, "duration": 2, "velocity": 58}, {"time": 3282, "pitch": 58, "duration": 12, "velocity": 70}, {"time": 3282, "pitch": 61, "duration": 11, "velocity": 72}, {"time": 3282, "pitch": 66, "duration": 12, "velocity": 50}, {"time": 3288, "pitch": 42, "duration": 2, "velocity": 43}, {"time": 3288, "pitch": 54, "duration": 2, "velocity": 47}, {"time": 3294, "pitch": 49, "duration": 6, "velocity": 76}, {"time": 3300, "pitch": 58, "duration": 21, "velocity": 64}, {"time": 3300, "pitch": 61, "duration": 20, "velocity": 62}, {"time": 3300, "pitch": 66, "duration": 18, "velocity": 66}, {"time": 3306, "pitch": 49, "duration": 1, "velocity": 69}, {"time": 3312, "pitch": 41, "duration": 2, "velocity": 66}, {"time": 3312, "pitch": 53, "duration": 1, "velocity": 23}, {"time": 3318, "pitch": 39, "duration": 12, "velocity": 52}, {"time": 3318, "pitch": 51, "duration": 12, "velocity": 53}, {"time": 3330, "pitch": 58, "duration": 14, "velocity": 60}, {"time": 3330, "pitch": 61, "duration": 13, "velocity": 57}, {"time": 3330, "pitch": 66, "duration": 13, "velocity": 50}, {"time": 3336, "pitch": 39, "duration": 3, "velocity": 66}, {"time": 3336, "pitch": 51, "duration": 2, "velocity": 36}, {"time": 3342, "pitch": 46, "duration": 6, "velocity": 71}, {"time": 3348, "pitch": 58, "duration": 6, "velocity": 62}, {"time": 3348, "pitch": 61, "duration": 7, "velocity": 73}, {"time": 3348, "pitch": 66, "duration": 17, "velocity": 64}, {"time": 3354, "pitch": 46, "duration": 1, "velocity": 71}, {"time": 3363, "pitch": 61, "duration": 5, "velocity": 34}, {"time": 3366, "pitch": 35, "duration": 15, "velocity": 61}, {"time": 3366, "pitch": 47, "duration": 14, "velocity": 63}, {"time": 3378, "pitch": 59, "duration": 11, "velocity": 66}, {"time": 3378, "pitch": 63, "duration": 15, "velocity": 64}, {"time": 3378, "pitch": 66, "duration": 16, "velocity": 50}, {"time": 3384, "pitch": 35, "duration": 1, "velocity": 37}, {"time": 3384, "pitch": 47, "duration": 4, "velocity": 65}, {"time": 3390, "pitch": 37, "duration": 11, "velocity": 68}, {"time": 3390, "pitch": 49, "duration": 7, "velocity": 69}, {"time": 3396, "pitch": 56, "duration": 6, "velocity": 72}, {"time": 3396, "pitch": 61, "duration": 11, "velocity": 68}, {"time": 3396, "pitch": 65, "duration": 9, "velocity": 51}, {"time": 3402, "pitch": 49, "duration": 2, "velocity": 58}, {"time": 3414, "pitch": 42, "duration": 10, "velocity": 52}, {"time": 3414, "pitch": 54, "duration": 13, "velocity": 62}, {"time": 3414, "pitch": 58, "duration": 3, "velocity": 57}, {"time": 3414, "pitch": 61, "duration": 2, "velocity": 49}, {"time": 3414, "pitch": 66, "duration": 4, "velocity": 64}, {"time": 3426, "pitch": 58, "duration": 14, "velocity": 55}, {"time": 3426, "pitch": 61, "duration": 12, "velocity": 58}, {"time": 3426, "pitch": 66, "duration": 12, "velocity": 61}, {"time": 3432, "pitch": 54, "duration": 2, "velocity": 60}, {"time": 3438, "pitch": 49, "duration": 4, "velocity": 76}, {"time": 3444, "pitch": 58, "duration": 2, "velocity": 45}, {"time": 3444, "pitch": 61, "duration": 2, "velocity": 60}, {"time": 3444, "pitch": 66, "duration": 4, "velocity": 72}, {"time": 3450, "pitch": 49, "duration": 2, "velocity": 61}, {"time": 3456, "pitch": 54, "duration": 2, "velocity": 36}, {"time": 3456, "pitch": 58, "duration": 5, "velocity": 58}, {"time": 3462, "pitch": 42, "duration": 15, "velocity": 67}, {"time": 3462, "pitch": 54, "duration": 15, "velocity": 66}, {"time": 3462, "pitch": 58, "duration": 3, "velocity": 70}, {"time": 3462, "pitch": 61, "duration": 3, "velocity": 76}, {"time": 3462, "pitch": 66, "duration": 4, "velocity": 73}, {"time": 3474, "pitch": 58, "duration": 11, "velocity": 73}, {"time": 3474, "pitch": 61, "duration": 10, "velocity": 73}, {"time": 3474, "pitch": 66, "duration": 11, "velocity": 80}, {"time": 3480, "pitch": 42, "duration": 4, "velocity": 67}, {"time": 3480, "pitch": 54, "duration": 3, "velocity": 80}, {"time": 3486, "pitch": 41, "duration": 1, "velocity": 65}, {"time": 3486, "pitch": 49, "duration": 3, "velocity": 85}, {"time": 3486, "pitch": 53, "duration": 1, "velocity": 74}, {"time": 3486, "pitch": 58, "duration": 2, "velocity": 48}, {"time": 3486, "pitch": 61, "duration": 1, "velocity": 57}, {"time": 3486, "pitch": 66, "duration": 1, "velocity": 72}, {"time": 3492, "pitch": 65, "duration": 1, "velocity": 22}, {"time": 3498, "pitch": 53, "duration": 1, "velocity": 60}, {"time": 3498, "pitch": 56, "duration": 3, "velocity": 56}, {"time": 3498, "pitch": 65, "duration": 4, "velocity": 55}, {"time": 3504, "pitch": 61, "duration": 4, "velocity": 69}, {"time": 3510, "pitch": 39, "duration": 10, "velocity": 41}, {"time": 3510, "pitch": 51, "duration": 14, "velocity": 39}, {"time": 3510, "pitch": 61, "duration": 3, "velocity": 73}, {"time": 3510, "pitch": 66, "duration": 2, "velocity": 66}, {"time": 3510, "pitch": 70, "duration": 4, "velocity": 70}, {"time": 3522, "pitch": 61, "duration": 14, "velocity": 73}, {"time": 3522, "pitch": 66, "duration": 15, "velocity": 66}, {"time": 3522, "pitch": 70, "duration": 15, "velocity": 78}, {"time": 3528, "pitch": 39, "duration": 3, "velocity": 56}, {"time": 3528, "pitch": 51, "duration": 2, "velocity": 29}, {"time": 3534, "pitch": 46, "duration": 14, "velocity": 67}, {"time": 3540, "pitch": 61, "duration": 7, "velocity": 72}, {"time": 3540, "pitch": 66, "duration": 10, "velocity": 66}, {"time": 3540, "pitch": 70, "duration": 9, "velocity": 78}, {"time": 3546, "pitch": 51, "duration": 4, "velocity": 59}, {"time": 3552, "pitch": 61, "duration": 3, "velocity": 56}, {"time": 3558, "pitch": 46, "duration": 13, "velocity": 62}, {"time": 3558, "pitch": 58, "duration": 14, "velocity": 60}, {"time": 3558, "pitch": 61, "duration": 7, "velocity": 66}, {"time": 3558, "pitch": 65, "duration": 4, "velocity": 68}, {"time": 3558, "pitch": 68, "duration": 6, "velocity": 70}, {"time": 3570, "pitch": 61, "duration": 13, "velocity": 65}, {"time": 3570, "pitch": 65, "duration": 13, "velocity": 68}, {"time": 3570, "pitch": 68, "duration": 13, "velocity": 71}, {"time": 3576, "pitch": 46, "duration": 2, "velocity": 65}, {"time": 3576, "pitch": 58, "duration": 2, "velocity": 42}, {"time": 3582, "pitch": 53, "duration": 7, "velocity": 80}, {"time": 3588, "pitch": 61, "duration": 4, "velocity": 66}, {"time": 3588, "pitch": 65, "duration": 6, "velocity": 68}, {"time": 3588, "pitch": 68, "duration": 7, "velocity": 79}, {"time": 3594, "pitch": 58, "duration": 2, "velocity": 61}, {"time": 3606, "pitch": 47, "duration": 11, "velocity": 75}, {"time": 3606, "pitch": 59, "duration": 11, "velocity": 67}, {"time": 3606, "pitch": 63, "duration": 3, "velocity": 48}, {"time": 3606, "pitch": 66, "duration": 3, "velocity": 62}, {"time": 3606, "pitch": 71, "duration": 4, "velocity": 65}, {"time": 3618, "pitch": 63, "duration": 9, "velocity": 61}, {"time": 3618, "pitch": 66, "duration": 10, "velocity": 57}, {"time": 3618, "pitch": 71, "duration": 15, "velocity": 67}, {"time": 3624, "pitch": 47, "duration": 3, "velocity": 60}, {"time": 3624, "pitch": 59, "duration": 2, "velocity": 39}, {"time": 3630, "pitch": 49, "duration": 8, "velocity": 71}, {"time": 3636, "pitch": 61, "duration": 8, "velocity": 71}, {"time": 3636, "pitch": 65, "duration": 9, "velocity": 73}, {"time": 3636, "pitch": 68, "duration": 11, "velocity": 74}, {"time": 3642, "pitch": 49, "duration": 3, "velocity": 65}, {"time": 3648, "pitch": 61, "duration": 4, "velocity": 44}, {"time": 3654, "pitch": 42, "duration": 12, "velocity": 71}, {"time": 3654, "pitch": 61, "duration": 3, "velocity": 69}, {"time": 3654, "pitch": 66, "duration": 1, "velocity": 59}, {"time": 3654, "pitch": 70, "duration": 3, "velocity": 77}, {"time": 3657, "pitch": 54, "duration": 11, "velocity": 21}, {"time": 3666, "pitch": 61, "duration": 13, "velocity": 71}, {"time": 3666, "pitch": 66, "duration": 13, "velocity": 61}, {"time": 3666, "pitch": 70, "duration": 13, "velocity": 72}, {"time": 3672, "pitch": 42, "duration": 1, "velocity": 60}, {"time": 3672, "pitch": 54, "duration": 2, "velocity": 35}, {"time": 3678, "pitch": 42, "duration": 6, "velocity": 64}, {"time": 3678, "pitch": 54, "duration": 7, "velocity": 65}, {"time": 3684, "pitch": 61, "duration": 15, "velocity": 73}, {"time": 3684, "pitch": 66, "duration": 14, "velocity": 60}, {"time": 3684, "pitch": 70, "duration": 16, "velocity": 80}, {"time": 3690, "pitch": 49, "duration": 1, "velocity": 62}, {"time": 3696, "pitch": 41, "duration": 1, "velocity": 62}, {"time": 3696, "pitch": 53, "duration": 1, "velocity": 48}, {"time": 3702, "pitch": 39, "duration": 13, "velocity": 58}, {"time": 3702, "pitch": 51, "duration": 14, "velocity": 61}, {"time": 3714, "pitch": 61, "duration": 15, "velocity": 69}, {"time": 3714, "pitch": 66, "duration": 15, "velocity": 59}, {"time": 3714, "pitch": 70, "duration": 15, "velocity": 75}, {"time": 3720, "pitch": 39, "duration": 2, "velocity": 59}, {"time": 3720, "pitch": 51, "duration": 2, "velocity": 42}, {"time": 3726, "pitch": 46, "duration": 6, "velocity": 70}, {"time": 3732, "pitch": 61, "duration": 8, "velocity": 63}, {"time": 3732, "pitch": 66, "duration": 8, "velocity": 64}, {"time": 3732, "pitch": 70, "duration": 8, "velocity": 70}, {"time": 3738, "pitch": 46, "duration": 3, "velocity": 72}, {"time": 3738, "pitch": 51, "duration": 2, "velocity": 31}, {"time": 3744, "pitch": 61, "duration": 3, "velocity": 69}, {"time": 3744, "pitch": 66, "duration": 5, "velocity": 62}, {"time": 3744, "pitch": 70, "duration": 4, "velocity": 72}, {"time": 3750, "pitch": 35, "duration": 20, "velocity": 62}, {"time": 3750, "pitch": 47, "duration": 15, "velocity": 61}, {"time": 3762, "pitch": 63, "duration": 13, "velocity": 64}, {"time": 3762, "pitch": 66, "duration": 11, "velocity": 60}, {"time": 3762, "pitch": 71, "duration": 12, "velocity": 75}, {"time": 3768, "pitch": 47, "duration": 2, "velocity": 59}, {"time": 3774, "pitch": 36, "duration": 14, "velocity": 70}, {"time": 3774, "pitch": 48, "duration": 8, "velocity": 70}, {"time": 3780, "pitch": 63, "duration": 8, "velocity": 72}, {"time": 3780, "pitch": 68, "duration": 10, "velocity": 80}, {"time": 3780, "pitch": 72, "duration": 8, "velocity": 80}, {"time": 3786, "pitch": 48, "duration": 4, "velocity": 49}, {"time": 3792, "pitch": 63, "duration": 2, "velocity": 49}, {"time": 3798, "pitch": 37, "duration": 12, "velocity": 59}, {"time": 3798, "pitch": 49, "duration": 13, "velocity": 66}, {"time": 3798, "pitch": 65, "duration": 2, "velocity": 58}, {"time": 3798, "pitch": 68, "duration": 2, "velocity": 69}, {"time": 3798, "pitch": 73, "duration": 3, "velocity": 65}, {"time": 3810, "pitch": 66, "duration": 13, "velocity": 59}, {"time": 3810, "pitch": 68, "duration": 13, "velocity": 77}, {"time": 3810, "pitch": 73, "duration": 13, "velocity": 71}, {"time": 3816, "pitch": 37, "duration": 1, "velocity": 60}, {"time": 3816, "pitch": 49, "duration": 2, "velocity": 52}, {"time": 3822, "pitch": 44, "duration": 6, "velocity": 66}, {"time": 3828, "pitch": 66, "duration": 2, "velocity": 74}, {"time": 3828, "pitch": 68, "duration": 1, "velocity": 80}, {"time": 3828, "pitch": 73, "duration": 2, "velocity": 59}, {"time": 3840, "pitch": 44, "duration": 1, "velocity": 57}, {"time": 3846, "pitch": 37, "duration": 1, "velocity": 75}, {"time": 3846, "pitch": 49, "duration": 1, "velocity": 73}, {"time": 3846, "pitch": 61, "duration": 2, "velocity": 75}, {"time": 3846, "pitch": 65, "duration": 1, "velocity": 67}, {"time": 3846, "pitch": 68, "duration": 2, "velocity": 77}, {"time": 3858, "pitch": 37, "duration": 2, "velocity": 75}, {"time": 3858, "pitch": 49, "duration": 3, "velocity": 75}, {"time": 3858, "pitch": 61, "duration": 1, "velocity": 71}, {"time": 3858, "pitch": 65, "duration": 1, "velocity": 64}, {"time": 3858, "pitch": 68, "duration": 3, "velocity": 82}, {"time": 3870, "pitch": 39, "duration": 12, "velocity": 73}, {"time": 3870, "pitch": 51, "duration": 14, "velocity": 65}, {"time": 3870, "pitch": 61, "duration": 10, "velocity": 66}, {"time": 3870, "pitch": 66, "duration": 13, "velocity": 65}, {"time": 3870, "pitch": 70, "duration": 11, "velocity": 69}, {"time": 3882, "pitch": 41, "duration": 3, "velocity": 77}, {"time": 3882, "pitch": 61, "duration": 4, "velocity": 67}, {"time": 3882, "pitch": 68, "duration": 4, "velocity": 84}, {"time": 3894, "pitch": 42, "duration": 9, "velocity": 51}, {"time": 3894, "pitch": 54, "duration": 13, "velocity": 53}, {"time": 3894, "pitch": 58, "duration": 2, "velocity": 55}, {"time": 3894, "pitch": 61, "duration": 2, "velocity": 47}, {"time": 3894, "pitch": 66, "duration": 3, "velocity": 58}, {"time": 3906, "pitch": 58, "duration": 12, "velocity": 65}, {"time": 3906, "pitch": 61, "duration": 14, "velocity": 64}, {"time": 3906, "pitch": 66, "duration": 12, "velocity": 62}, {"time": 3912, "pitch": 42, "duration": 2, "velocity": 42}, {"time": 3912, "pitch": 54, "duration": 2, "velocity": 36}, {"time": 3918, "pitch": 49, "duration": 6, "velocity": 68}, {"time": 3924, "pitch": 58, "duration": 1, "velocity": 64}, {"time": 3924, "pitch": 61, "duration": 3, "velocity": 76}, {"time": 3924, "pitch": 66, "duration": 2, "velocity": 64}, {"time": 3930, "pitch": 49, "duration": 10, "velocity": 55}, {"time": 3936, "pitch": 58, "duration": 2, "velocity": 61}, {"time": 3936, "pitch": 61, "duration": 4, "velocity": 70}, {"time": 3936, "pitch": 66, "duration": 4, "velocity": 51}, {"time": 3942, "pitch": 42, "duration": 10, "velocity": 45}, {"time": 3942, "pitch": 54, "duration": 13, "velocity": 49}, {"time": 3954, "pitch": 58, "duration": 5, "velocity": 63}, {"time": 3954, "pitch": 61, "duration": 6, "velocity": 70}, {"time": 3954, "pitch": 66, "duration": 8, "velocity": 47}, {"time": 3960, "pitch": 42, "duration": 1, "velocity": 46}, {"time": 3966, "pitch": 49, "duration": 5, "velocity": 70}, {"time": 3972, "pitch": 58, "duration": 3, "velocity": 74}, {"time": 3972, "pitch": 61, "duration": 4, "velocity": 78}, {"time": 3972, "pitch": 66, "duration": 5, "velocity": 75}, {"time": 3978, "pitch": 49, "duration": 1, "velocity": 59}, {"time": 3990, "pitch": 39, "duration": 10, "velocity": 47}, {"time": 3990, "pitch": 51, "duration": 13, "velocity": 44}, {"time": 3990, "pitch": 58, "duration": 3, "velocity": 64}, {"time": 3990, "pitch": 63, "duration": 2, "velocity": 58}, {"time": 3990, "pitch": 66, "duration": 3, "velocity": 49}, {"time": 4002, "pitch": 58, "duration": 9, "velocity": 50}, {"time": 4002, "pitch": 63, "duration": 8, "velocity": 45}, {"time": 4002, "pitch": 66, "duration": 9, "velocity": 47}, {"time": 4014, "pitch": 35, "duration": 12, "velocity": 45}, {"time": 4014, "pitch": 47, "duration": 7, "velocity": 51}, {"time": 4020, "pitch": 59, "duration": 7, "velocity": 61}, {"time": 4020, "pitch": 63, "duration": 9, "velocity": 58}, {"time": 4020, "pitch": 66, "duration": 7, "velocity": 48}, {"time": 4026, "pitch": 47, "duration": 3, "velocity": 57}, {"time": 4032, "pitch": 61, "duration": 2, "velocity": 55}, {"time": 4038, "pitch": 42, "duration": 11, "velocity": 57}, {"time": 4038, "pitch": 58, "duration": 2, "velocity": 47}, {"time": 4038, "pitch": 61, "duration": 2, "velocity": 58}, {"time": 4050, "pitch": 58, "duration": 12, "velocity": 70}, {"time": 4050, "pitch": 61, "duration": 11, "velocity": 72}, {"time": 4050, "pitch": 66, "duration": 12, "velocity": 50}, {"time": 4056, "pitch": 42, "duration": 2, "velocity": 43}, {"time": 4056, "pitch": 54, "duration": 2, "velocity": 47}, {"time": 4062, "pitch": 49, "duration": 6, "velocity": 76}, {"time": 4068, "pitch": 58, "duration": 21, "velocity": 64}, {"time": 4068, "pitch": 61, "duration": 20, "velocity": 62}, {"time": 4068, "pitch": 66, "duration": 18, "velocity": 66}, {"time": 4074, "pitch": 49, "duration": 1, "velocity": 69}, {"time": 4080, "pitch": 41, "duration": 2, "velocity": 66}, {"time": 4080, "pitch": 53, "duration": 1, "velocity": 23}, {"time": 4086, "pitch": 39, "duration": 12, "velocity": 52}, {"time": 4086, "pitch": 51, "duration": 12, "velocity": 53}, {"time": 4098, "pitch": 58, "duration": 14, "velocity": 60}, {"time": 4098, "pitch": 61, "duration": 13, "velocity": 57}, {"time": 4098, "pitch": 66, "duration": 13, "velocity": 50}, {"time": 4104, "pitch": 39, "duration": 3, "velocity": 66}, {"time": 4104, "pitch": 51, "duration": 2, "velocity": 36}, {"time": 4110, "pitch": 46, "duration": 6, "velocity": 71}, {"time": 4116, "pitch": 58, "duration": 6, "velocity": 62}, {"time": 4116, "pitch": 61, "duration": 7, "velocity": 73}, {"time": 4116, "pitch": 66, "duration": 17, "velocity": 64}, {"time": 4122, "pitch": 46, "duration": 1, "velocity": 71}, {"time": 4131, "pitch": 61, "duration": 5, "velocity": 34}, {"time": 4134, "pitch": 35, "duration": 15, "velocity": 61}, {"time": 4134, "pitch": 47, "duration": 14, "velocity": 63}, {"time": 4146, "pitch": 59, "duration": 11, "velocity": 66}, {"time": 4146, "pitch": 63, "duration": 15, "velocity": 64}, {"time": 4146, "pitch": 66, "duration": 16, "velocity": 50}, {"time": 4152, "pitch": 35, "duration": 1, "velocity": 37}, {"time": 4152, "pitch": 47, "duration": 4, "velocity": 65}, {"time": 4158, "pitch": 37, "duration": 11, "velocity": 68}, {"time": 4158, "pitch": 49, "duration": 7, "velocity": 69}, {"time": 4164, "pitch": 56, "duration": 6, "velocity": 72}, {"time": 4164, "pitch": 61, "duration": 11, "velocity": 68}, {"time": 4164, "pitch": 65, "duration": 9, "velocity": 51}, {"time": 4170, "pitch": 49, "duration": 2, "velocity": 58}, {"time": 4182, "pitch": 42, "duration": 10, "velocity": 52}, {"time": 4182, "pitch": 54, "duration": 13, "velocity": 62}, {"time": 4182, "pitch": 58, "duration": 3, "velocity": 57}, {"time": 4182, "pitch": 61, "duration": 2, "velocity": 49}, {"time": 4182, "pitch": 66, "duration": 4, "velocity": 64}, {"time": 4194, "pitch": 58, "duration": 14, "velocity": 55}, {"time": 4194, "pitch": 61, "duration": 12, "velocity": 58}, {"time": 4194, "pitch": 66, "duration": 12, "velocity": 61}, {"time": 4200, "pitch": 54, "duration": 2, "velocity": 60}, {"time": 4206, "pitch": 49, "duration": 4, "velocity": 76}, {"time": 4212, "pitch": 58, "duration": 2, "velocity": 45}, {"time": 4212, "pitch": 61, "duration": 2, "velocity": 60}, {"time": 4212, "pitch": 66, "duration": 4, "velocity": 72}, {"time": 4218, "pitch": 49, "duration": 2, "velocity": 61}, {"time": 4224, "pitch": 54, "duration": 2, "velocity": 36}, {"time": 4224, "pitch": 58, "duration": 5, "velocity": 58}, {"time": 4230, "pitch": 42, "duration": 3, "velocity": 66}, {"time": 4230, "pitch": 54, "duration": 3, "velocity": 68}, {"time": 4230, "pitch": 58, "duration": 2, "velocity": 59}, {"time": 4230, "pitch": 61, "duration": 2, "velocity": 71}, {"time": 4230, "pitch": 66, "duration": 2, "velocity": 66}, {"time": 4242, "pitch": 42, "duration": 2, "velocity": 67}, {"time": 4242, "pitch": 54, "duration": 2, "velocity": 63}, {"time": 4242, "pitch": 58, "duration": 2, "velocity": 57}, {"time": 4242, "pitch": 61, "duration": 2, "velocity": 33}, {"time": 4242, "pitch": 66, "duration": 3, "velocity": 72}, {"time": 4254, "pitch": 42, "duration": 3, "velocity": 62}, {"time": 4254, "pitch": 54, "duration": 3, "velocity": 54}, {"time": 4254, "pitch": 61, "duration": 2, "velocity": 47}, {"time": 4254, "pitch": 68, "duration": 3, "velocity": 73}, {"time": 4266, "pitch": 42, "duration": 2, "velocity": 59}, {"time": 4266, "pitch": 54, "duration": 2, "velocity": 69}, {"time": 4266, "pitch": 70, "duration": 2, "velocity": 67}, {"time": 4278, "pitch": 39, "duration": 14, "velocity": 57}, {"time": 4278, "pitch": 51, "duration": 15, "velocity": 60}, {"time": 4278, "pitch": 61, "duration": 3, "velocity": 72}, {"time": 4278, "pitch": 66, "duration": 2, "velocity": 69}, {"time": 4278, "pitch": 70, "duration": 4, "velocity": 78}, {"time": 4290, "pitch": 61, "duration": 15, "velocity": 73}, {"time": 4290, "pitch": 66, "duration": 15, "velocity": 69}, {"time": 4290, "pitch": 70, "duration": 14, "velocity": 79}, {"time": 4296, "pitch": 39, "duration": 3, "velocity": 70}, {"time": 4296, "pitch": 51, "duration": 2, "velocity": 37}, {"time": 4302, "pitch": 46, "duration": 12, "velocity": 74}, {"time": 4308, "pitch": 61, "duration": 6, "velocity": 74}, {"time": 4308, "pitch": 66, "duration": 8, "velocity": 73}, {"time": 4308, "pitch": 70, "duration": 6, "velocity": 64}, {"time": 4314, "pitch": 51, "duration": 3, "velocity": 61}, {"time": 4326, "pitch": 47, "duration": 14, "velocity": 66}, {"time": 4326, "pitch": 59, "duration": 13, "velocity": 60}, {"time": 4326, "pitch": 63, "duration": 5, "velocity": 59}, {"time": 4326, "pitch": 66, "duration": 5, "velocity": 59}, {"time": 4326, "pitch": 71, "duration": 5, "velocity": 69}, {"time": 4338, "pitch": 63, "duration": 11, "velocity": 76}, {"time": 4338, "pitch": 66, "duration": 9, "velocity": 66}, {"time": 4338, "pitch": 71, "duration": 10, "velocity": 78}, {"time": 4344, "pitch": 47, "duration": 5, "velocity": 58}, {"time": 4344, "pitch": 59, "duration": 4, "velocity": 55}, {"time": 4350, "pitch": 49, "duration": 8, "velocity": 78}, {"time": 4356, "pitch": 61, "duration": 3, "velocity": 76}, {"time": 4356, "pitch": 65, "duration": 3, "velocity": 74}, {"time": 4356, "pitch": 68, "duration": 3, "velocity": 82}, {"time": 4362, "pitch": 49, "duration": 2, "velocity": 62}, {"time": 4368, "pitch": 58, "duration": 3, "velocity": 54}, {"time": 4374, "pitch": 42, "duration": 13, "velocity": 69}, {"time": 4374, "pitch": 54, "duration": 13, "velocity": 73}, {"time": 4374, "pitch": 58, "duration": 3, "velocity": 57}, {"time": 4374, "pitch": 61, "duration": 1, "velocity": 74}, {"time": 4374, "pitch": 66, "duration": 3, "velocity": 75}, {"time": 4386, "pitch": 58, "duration": 4, "velocity": 72}, {"time": 4386, "pitch": 61, "duration": 5, "velocity": 85}, {"time": 4386, "pitch": 66, "duration": 5, "velocity": 69}, {"time": 4392, "pitch": 42, "duration": 3, "velocity": 66}, {"time": 4392, "pitch": 54, "duration": 2, "velocity": 58}, {"time": 4398, "pitch": 49, "duration": 6, "velocity": 79}, {"time": 4404, "pitch": 63, "duration": 2, "velocity": 77}, {"time": 4404, "pitch": 66, "duration": 1, "velocity": 73}, {"time": 4404, "pitch": 71, "duration": 3, "velocity": 77}, {"time": 4410, "pitch": 49, "duration": 5, "velocity": 64}, {"time": 4416, "pitch": 61, "duration": 5, "velocity": 70}, {"time": 4416, "pitch": 66, "duration": 6, "velocity": 84}, {"time": 4416, "pitch": 70, "duration": 6, "velocity": 86}, {"time": 4422, "pitch": 66, "duration": 3, "velocity": 78}, {"time": 4422, "pitch": 61, "duration": 3, "velocity": 76}, {"time": 4422, "pitch": 70, "duration": 4, "velocity": 76}, {"time": 4422, "pitch": 42, "duration": 4, "velocity": 82}, {"time": 4423, "pitch": 54, "duration": 3, "velocity": 93}, {"time": 4434, "pitch": 70, "duration": 3, "velocity": 85}, {"time": 4434, "pitch": 66, "duration": 3, "velocity": 97}, {"time": 4434, "pitch": 61, "duration": 3, "velocity": 91}, {"time": 4434, "pitch": 54, "duration": 3, "velocity": 91}, {"time": 4435, "pitch": 42, "duration": 2, "velocity": 95}], "annotations": [{"time": 246, "annotation": {"number": 64, "value": 127}, "group": "control_change"}, {"time": 262, "annotation": {"number": 64, "value": 0}, "group": "control_change"}, {"time": 268, "annotation": {"number": 64, "value": 127}, "group": "control_change"}, {"time": 291, "annotation": {"number": 64, "value": 0}, "group": "control_change"}, {"time": 302, "annotation": {"number": 64, "value": 127}, "group": "control_change"}, {"time": 315, "annotation": {"number": 64, "value": 0}, "group": "control_change"}, {"time": 321, "annotation": {"number": 64, "value": 127}, "group": "control_change"}, {"time": 343, "annotation": {"number": 64, "value": 0}, "group": "control_change"}, {"time": 347, "annotation": {"number": 64, "value": 127}, "group": "control_change"}, {"time": 375, "annotation": {"number": 64, "value": 0}, "group": "control_change"}, {"time": 379, "annotation": {"number": 64, "value": 127}, "group": "control_change"}, {"time": 405, "annotation": {"number": 64, "value": 0}, "group": "control_change"}, {"time": 409, "annotation": {"number": 64, "value": 127}, "group": "control_change"}, {"time": 439, "annotation": {"number": 64, "value": 0}, "group": "control_change"}, {"time": 444, "annotation": {"number": 64, "value": 127}, "group": "control_change"}, {"time": 486, "annotation": {"number": 64, "value": 0}, "group": "control_change"}, {"time": 490, "annotation": {"number": 64, "value": 127}, "group": "control_change"}, {"time": 533, "annotation": {"number": 64, "value": 127}, "group": "control_change"}, {"time": 533, "annotation": {"number": 64, "value": 0}, "group": "control_change"}, {"time": 537, "annotation": {"number": 64, "value": 127}, "group": "control_change"}, {"time": 579, "annotation": {"number": 64, "value": 0}, "group": "control_change"}, {"time": 582, "annotation": {"number": 64, "value": 127}, "group": "control_change"}, {"time": 630, "annotation": {"number": 64, "value": 0}, "group": "control_change"}, {"time": 634, "annotation": {"number": 64, "value": 127}, "group": "control_change"}, {"time": 678, "annotation": {"number": 64, "value": 0}, "group": "control_change"}, {"time": 681, "annotation": {"number": 64, "value": 127}, "group": "control_change"}, {"time": 728, "annotation": {"number": 64, "value": 0}, "group": "control_change"}, {"time": 731, "annotation": {"number": 64, "value": 127}, "group": "control_change"}, {"time": 771, "annotation": {"number": 64, "value": 0}, "group": "control_change"}, {"time": 774, "annotation": {"number": 64, "value": 127}, "group": "control_change"}, {"time": 817, "annotation": {"number": 64, "value": 0}, "group": "control_change"}, {"time": 821, "annotation": {"number": 64, "value": 127}, "group": "control_change"}, {"time": 863, "annotation": {"number": 64, "value": 0}, "group": "control_change"}, {"time": 868, "annotation": {"number": 64, "value": 127}, "group": "control_change"}, {"time": 910, "annotation": {"number": 64, "value": 0}, "group": "control_change"}, {"time": 916, "annotation": {"number": 64, "value": 127}, "group": "control_change"}, {"time": 932, "annotation": {"number": 64, "value": 0}, "group": "control_change"}, {"time": 940, "annotation": {"number": 64, "value": 127}, "group": "control_change"}, {"time": 948, "annotation": {"number": 64, "value": 0}, "group": "control_change"}, {"time": 951, "annotation": {"number": 64, "value": 127}, "group": "control_change"}, {"time": 965, "annotation": {"number": 64, "value": 0}, "group": "control_change"}, {"time": 969, "annotation": {"number": 64, "value": 127}, "group": "control_change"}, {"time": 1013, "annotation": {"number": 64, "value": 0}, "group": "control_change"}, {"time": 1019, "annotation": {"number": 64, "value": 127}, "group": "control_change"}, {"time": 1060, "annotation": {"number": 64, "value": 0}, "group": "control_change"}, {"time": 1064, "annotation": {"number": 64, "value": 127}, "group": "control_change"}, {"time": 1106, "annotation": {"number": 64, "value": 0}, "group": "control_change"}, {"time": 1111, "annotation": {"number": 64, "value": 127}, "group": "control_change"}, {"time": 1157, "annotation": {"number": 64, "value": 0}, "group": "control_change"}, {"time": 1161, "annotation": {"number": 64, "value": 127}, "group": "control_change"}, {"time": 1200, "annotation": {"number": 64, "value": 0}, "group": "control_change"}, {"time": 1205, "annotation": {"number": 64, "value": 127}, "group": "control_change"}, {"time": 1254, "annotation": {"number": 64, "value": 0}, "group": "control_change"}, {"time": 1258, "annotation": {"number": 64, "value": 127}, "group": "control_change"}, {"time": 1277, "annotation": {"number": 64, "value": 0}, "group": "control_change"}, {"time": 1282, "annotation": {"number": 64, "value": 127}, "group": "control_change"}, {"time": 1300, "annotation": {"number": 64, "value": 0}, "group": "control_change"}, {"time": 1304, "annotation": {"number": 64, "value": 127}, "group": "control_change"}, {"time": 1348, "annotation": {"number": 64, "value": 0}, "group": "control_change"}, {"time": 1352, "annotation": {"number": 64, "value": 127}, "group": "control_change"}, {"time": 1379, "annotation": {"number": 64, "value": 0}, "group": "control_change"}, {"time": 1382, "annotation": {"number": 64, "value": 127}, "group": "control_change"}, {"time": 1397, "annotation": {"number": 64, "value": 0}, "group": "control_change"}, {"time": 1400, "annotation": {"number": 64, "value": 127}, "group": "control_change"}, {"time": 1443, "annotation": {"number": 64, "value": 0}, "group": "control_change"}, {"time": 1447, "annotation": {"number": 64, "value": 127}, "group": "control_change"}, {"time": 1489, "annotation": {"number": 64, "value": 0}, "group": "control_change"}, {"time": 1494, "annotation": {"number": 64, "value": 127}, "group": "control_change"}, {"time": 1536, "annotation": {"number": 64, "value": 0}, "group": "control_change"}, {"time": 1541, "annotation": {"number": 64, "value": 127}, "group": "control_change"}, {"time": 1589, "annotation": {"number": 64, "value": 0}, "group": "control_change"}, {"time": 1593, "annotation": {"number": 64, "value": 127}, "group": "control_change"}, {"time": 1635, "annotation": {"number": 64, "value": 0}, "group": "control_change"}, {"time": 1640, "annotation": {"number": 64, "value": 127}, "group": "control_change"}, {"time": 1658, "annotation": {"number": 64, "value": 0}, "group": "control_change"}, {"time": 1661, "annotation": {"number": 64, "value": 127}, "group": "control_change"}, {"time": 1681, "annotation": {"number": 64, "value": 0}, "group": "control_change"}, {"time": 1685, "annotation": {"number": 64, "value": 127}, "group": "control_change"}, {"time": 1726, "annotation": {"number": 64, "value": 0}, "group": "control_change"}, {"time": 1729, "annotation": {"number": 64, "value": 127}, "group": "control_change"}, {"time": 1782, "annotation": {"number": 64, "value": 0}, "group": "control_change"}, {"time": 1786, "annotation": {"number": 64, "value": 127}, "group": "control_change"}, {"time": 1813, "annotation": {"number": 64, "value": 0}, "group": "control_change"}, {"time": 1878, "annotation": {"number": 64, "value": 0}, "group": "control_change"}, {"time": 1971, "annotation": {"number": 64, "value": 16}, "group": "control_change"}, {"time": 1971, "annotation": {"number": 64, "value": 32}, "group": "control_change"}, {"time": 1972, "annotation": {"number": 64, "value": 48}, "group": "control_change"}, {"time": 1972, "annotation": {"number": 64, "value": 60}, "group": "control_change"}, {"time": 1972, "annotation": {"number": 64, "value": 64}, "group": "control_change"}, {"time": 1972, "annotation": {"number": 64, "value": 127}, "group": "control_change"}, {"time": 2018, "annotation": {"number": 64, "value": 80}, "group": "control_change"}, {"time": 2018, "annotation": {"number": 64, "value": 63}, "group": "control_change"}, {"time": 2019, "annotation": {"number": 64, "value": 48}, "group": "control_change"}, {"time": 2019, "annotation": {"number": 64, "value": 32}, "group": "control_change"}, {"time": 2019, "annotation": {"number": 64, "value": 16}, "group": "control_change"}, {"time": 2019, "annotation": {"number": 64, "value": 0}, "group": "control_change"}, {"time": 2021, "annotation": {"number": 64, "value": 16}, "group": "control_change"}, {"time": 2022, "annotation": {"number": 64, "value": 32}, "group": "control_change"}, {"time": 2022, "annotation": {"number": 64, "value": 48}, "group": "control_change"}, {"time": 2022, "annotation": {"number": 64, "value": 60}, "group": "control_change"}, {"time": 2022, "annotation": {"number": 64, "value": 80}, "group": "control_change"}, {"time": 2022, "annotation": {"number": 64, "value": 127}, "group": "control_change"}, {"time": 2066, "annotation": {"number": 64, "value": 64}, "group": "control_change"}, {"time": 2066, "annotation": {"number": 64, "value": 56}, "group": "control_change"}, {"time": 2066, "annotation": {"number": 64, "value": 48}, "group": "control_change"}, {"time": 2066, "annotation": {"number": 64, "value": 32}, "group": "control_change"}, {"time": 2067, "annotation": {"number": 64, "value": 16}, "group": "control_change"}, {"time": 2067, "annotation": {"number": 64, "value": 0}, "group": "control_change"}, {"time": 2069, "annotation": {"number": 64, "value": 16}, "group": "control_change"}, {"time": 2069, "annotation": {"number": 64, "value": 32}, "group": "control_change"}, {"time": 2069, "annotation": {"number": 64, "value": 48}, "group": "control_change"}, {"time": 2070, "annotation": {"number": 64, "value": 60}, "group": "control_change"}, {"time": 2070, "annotation": {"number": 64, "value": 80}, "group": "control_change"}, {"time": 2070, "annotation": {"number": 64, "value": 127}, "group": "control_change"}, {"time": 2091, "annotation": {"number": 64, "value": 64}, "group": "control_change"}, {"time": 2091, "annotation": {"number": 64, "value": 63}, "group": "control_change"}, {"time": 2091, "annotation": {"number": 64, "value": 60}, "group": "control_change"}, {"time": 2092, "annotation": {"number": 64, "value": 56}, "group": "control_change"}, {"time": 2092, "annotation": {"number": 64, "value": 60}, "group": "control_change"}, {"time": 2092, "annotation": {"number": 64, "value": 63}, "group": "control_change"}, {"time": 2092, "annotation": {"number": 64, "value": 64}, "group": "control_change"}, {"time": 2093, "annotation": {"number": 64, "value": 96}, "group": "control_change"}, {"time": 2093, "annotation": {"number": 64, "value": 127}, "group": "control_change"}, {"time": 2114, "annotation": {"number": 64, "value": 96}, "group": "control_change"}, {"time": 2114, "annotation": {"number": 64, "value": 64}, "group": "control_change"}, {"time": 2115, "annotation": {"number": 64, "value": 63}, "group": "control_change"}, {"time": 2115, "annotation": {"number": 64, "value": 56}, "group": "control_change"}, {"time": 2115, "annotation": {"number": 64, "value": 48}, "group": "control_change"}, {"time": 2115, "annotation": {"number": 64, "value": 32}, "group": "control_change"}, {"time": 2115, "annotation": {"number": 64, "value": 16}, "group": "control_change"}, {"time": 2117, "annotation": {"number": 64, "value": 32}, "group": "control_change"}, {"time": 2117, "annotation": {"number": 64, "value": 48}, "group": "control_change"}, {"time": 2117, "annotation": {"number": 64, "value": 60}, "group": "control_change"}, {"time": 2117, "annotation": {"number": 64, "value": 64}, "group": "control_change"}, {"time": 2118, "annotation": {"number": 64, "value": 127}, "group": "control_change"}, {"time": 2165, "annotation": {"number": 64, "value": 63}, "group": "control_change"}, {"time": 2165, "annotation": {"number": 64, "value": 48}, "group": "control_change"}, {"time": 2165, "annotation": {"number": 64, "value": 32}, "group": "control_change"}, {"time": 2165, "annotation": {"number": 64, "value": 16}, "group": "control_change"}, {"time": 2165, "annotation": {"number": 64, "value": 0}, "group": "control_change"}, {"time": 2168, "annotation": {"number": 64, "value": 16}, "group": "control_change"}, {"time": 2168, "annotation": {"number": 64, "value": 32}, "group": "control_change"}, {"time": 2168, "annotation": {"number": 64, "value": 56}, "group": "control_change"}, {"time": 2168, "annotation": {"number": 64, "value": 64}, "group": "control_change"}, {"time": 2168, "annotation": {"number": 64, "value": 127}, "group": "control_change"}, {"time": 2212, "annotation": {"number": 64, "value": 64}, "group": "control_change"}, {"time": 2212, "annotation": {"number": 64, "value": 60}, "group": "control_change"}, {"time": 2212, "annotation": {"number": 64, "value": 56}, "group": "control_change"}, {"time": 2212, "annotation": {"number": 64, "value": 48}, "group": "control_change"}, {"time": 2213, "annotation": {"number": 64, "value": 32}, "group": "control_change"}, {"time": 2214, "annotation": {"number": 64, "value": 48}, "group": "control_change"}, {"time": 2214, "annotation": {"number": 64, "value": 56}, "group": "control_change"}, {"time": 2214, "annotation": {"number": 64, "value": 60}, "group": "control_change"}, {"time": 2214, "annotation": {"number": 64, "value": 64}, "group": "control_change"}, {"time": 2214, "annotation": {"number": 64, "value": 80}, "group": "control_change"}, {"time": 2214, "annotation": {"number": 64, "value": 127}, "group": "control_change"}, {"time": 2235, "annotation": {"number": 64, "value": 96}, "group": "control_change"}, {"time": 2235, "annotation": {"number": 64, "value": 64}, "group": "control_change"}, {"time": 2235, "annotation": {"number": 64, "value": 60}, "group": "control_change"}, {"time": 2235, "annotation": {"number": 64, "value": 48}, "group": "control_change"}, {"time": 2236, "annotation": {"number": 64, "value": 32}, "group": "control_change"}, {"time": 2236, "annotation": {"number": 64, "value": 16}, "group": "control_change"}, {"time": 2236, "annotation": {"number": 64, "value": 0}, "group": "control_change"}, {"time": 2237, "annotation": {"number": 64, "value": 16}, "group": "control_change"}, {"time": 2238, "annotation": {"number": 64, "value": 32}, "group": "control_change"}, {"time": 2238, "annotation": {"number": 64, "value": 48}, "group": "control_change"}, {"time": 2238, "annotation": {"number": 64, "value": 60}, "group": "control_change"}, {"time": 2238, "annotation": {"number": 64, "value": 64}, "group": "control_change"}, {"time": 2238, "annotation": {"number": 64, "value": 96}, "group": "control_change"}, {"time": 2238, "annotation": {"number": 64, "value": 127}, "group": "control_change"}, {"time": 2258, "annotation": {"number": 64, "value": 80}, "group": "control_change"}, {"time": 2258, "annotation": {"number": 64, "value": 63}, "group": "control_change"}, {"time": 2258, "annotation": {"number": 64, "value": 56}, "group": "control_change"}, {"time": 2258, "annotation": {"number": 64, "value": 48}, "group": "control_change"}, {"time": 2258, "annotation": {"number": 64, "value": 32}, "group": "control_change"}, {"time": 2259, "annotation": {"number": 64, "value": 16}, "group": "control_change"}, {"time": 2259, "annotation": {"number": 64, "value": 0}, "group": "control_change"}, {"time": 2260, "annotation": {"number": 64, "value": 16}, "group": "control_change"}, {"time": 2261, "annotation": {"number": 64, "value": 32}, "group": "control_change"}, {"time": 2261, "annotation": {"number": 64, "value": 48}, "group": "control_change"}, {"time": 2261, "annotation": {"number": 64, "value": 56}, "group": "control_change"}, {"time": 2261, "annotation": {"number": 64, "value": 64}, "group": "control_change"}, {"time": 2261, "annotation": {"number": 64, "value": 96}, "group": "control_change"}, {"time": 2261, "annotation": {"number": 64, "value": 127}, "group": "control_change"}, {"time": 2282, "annotation": {"number": 64, "value": 80}, "group": "control_change"}, {"time": 2282, "annotation": {"number": 64, "value": 64}, "group": "control_change"}, {"time": 2282, "annotation": {"number": 64, "value": 60}, "group": "control_change"}, {"time": 2282, "annotation": {"number": 64, "value": 56}, "group": "control_change"}, {"time": 2282, "annotation": {"number": 64, "value": 48}, "group": "control_change"}, {"time": 2283, "annotation": {"number": 64, "value": 32}, "group": "control_change"}, {"time": 2284, "annotation": {"number": 64, "value": 48}, "group": "control_change"}, {"time": 2284, "annotation": {"number": 64, "value": 60}, "group": "control_change"}, {"time": 2284, "annotation": {"number": 64, "value": 63}, "group": "control_change"}, {"time": 2285, "annotation": {"number": 64, "value": 64}, "group": "control_change"}, {"time": 2285, "annotation": {"number": 64, "value": 127}, "group": "control_change"}, {"time": 2306, "annotation": {"number": 64, "value": 96}, "group": "control_change"}, {"time": 2306, "annotation": {"number": 64, "value": 63}, "group": "control_change"}, {"time": 2306, "annotation": {"number": 64, "value": 48}, "group": "control_change"}, {"time": 2306, "annotation": {"number": 64, "value": 32}, "group": "control_change"}, {"time": 2306, "annotation": {"number": 64, "value": 16}, "group": "control_change"}, {"time": 2306, "annotation": {"number": 64, "value": 0}, "group": "control_change"}, {"time": 2309, "annotation": {"number": 64, "value": 16}, "group": "control_change"}, {"time": 2309, "annotation": {"number": 64, "value": 32}, "group": "control_change"}, {"time": 2309, "annotation": {"number": 64, "value": 48}, "group": "control_change"}, {"time": 2310, "annotation": {"number": 64, "value": 60}, "group": "control_change"}, {"time": 2310, "annotation": {"number": 64, "value": 80}, "group": "control_change"}, {"time": 2310, "annotation": {"number": 64, "value": 127}, "group": "control_change"}, {"time": 2314, "annotation": {"number": 64, "value": 64}, "group": "control_change"}, {"time": 2314, "annotation": {"number": 64, "value": 56}, "group": "control_change"}, {"time": 2314, "annotation": {"number": 64, "value": 48}, "group": "control_change"}, {"time": 2314, "annotation": {"number": 64, "value": 32}, "group": "control_change"}, {"time": 2314, "annotation": {"number": 64, "value": 16}, "group": "control_change"}, {"time": 2315, "annotation": {"number": 64, "value": 0}, "group": "control_change"}, {"time": 2320, "annotation": {"number": 64, "value": 16}, "group": "control_change"}, {"time": 2320, "annotation": {"number": 64, "value": 32}, "group": "control_change"}, {"time": 2320, "annotation": {"number": 64, "value": 48}, "group": "control_change"}, {"time": 2320, "annotation": {"number": 64, "value": 56}, "group": "control_change"}, {"time": 2320, "annotation": {"number": 64, "value": 64}, "group": "control_change"}, {"time": 2320, "annotation": {"number": 64, "value": 127}, "group": "control_change"}, {"time": 2330, "annotation": {"number": 64, "value": 64}, "group": "control_change"}, {"time": 2330, "annotation": {"number": 64, "value": 60}, "group": "control_change"}, {"time": 2331, "annotation": {"number": 64, "value": 48}, "group": "control_change"}, {"time": 2331, "annotation": {"number": 64, "value": 32}, "group": "control_change"}, {"time": 2331, "annotation": {"number": 64, "value": 16}, "group": "control_change"}, {"time": 2331, "annotation": {"number": 64, "value": 0}, "group": "control_change"}, {"time": 2333, "annotation": {"number": 64, "value": 16}, "group": "control_change"}, {"time": 2333, "annotation": {"number": 64, "value": 32}, "group": "control_change"}, {"time": 2333, "annotation": {"number": 64, "value": 48}, "group": "control_change"}, {"time": 2333, "annotation": {"number": 64, "value": 63}, "group": "control_change"}, {"time": 2334, "annotation": {"number": 64, "value": 96}, "group": "control_change"}, {"time": 2334, "annotation": {"number": 64, "value": 127}, "group": "control_change"}, {"time": 2342, "annotation": {"number": 64, "value": 64}, "group": "control_change"}, {"time": 2343, "annotation": {"number": 64, "value": 60}, "group": "control_change"}, {"time": 2343, "annotation": {"number": 64, "value": 48}, "group": "control_change"}, {"time": 2343, "annotation": {"number": 64, "value": 32}, "group": "control_change"}, {"time": 2343, "annotation": {"number": 64, "value": 16}, "group": "control_change"}, {"time": 2343, "annotation": {"number": 64, "value": 0}, "group": "control_change"}, {"time": 2345, "annotation": {"number": 64, "value": 16}, "group": "control_change"}, {"time": 2345, "annotation": {"number": 64, "value": 32}, "group": "control_change"}, {"time": 2345, "annotation": {"number": 64, "value": 48}, "group": "control_change"}, {"time": 2345, "annotation": {"number": 64, "value": 60}, "group": "control_change"}, {"time": 2345, "annotation": {"number": 64, "value": 64}, "group": "control_change"}, {"time": 2345, "annotation": {"number": 64, "value": 127}, "group": "control_change"}, {"time": 2355, "annotation": {"number": 64, "value": 96}, "group": "control_change"}, {"time": 2355, "annotation": {"number": 64, "value": 63}, "group": "control_change"}, {"time": 2355, "annotation": {"number": 64, "value": 48}, "group": "control_change"}, {"time": 2355, "annotation": {"number": 64, "value": 32}, "group": "control_change"}, {"time": 2355, "annotation": {"number": 64, "value": 16}, "group": "control_change"}, {"time": 2356, "annotation": {"number": 64, "value": 0}, "group": "control_change"}, {"time": 2357, "annotation": {"number": 64, "value": 16}, "group": "control_change"}, {"time": 2358, "annotation": {"number": 64, "value": 32}, "group": "control_change"}, {"time": 2358, "annotation": {"number": 64, "value": 48}, "group": "control_change"}, {"time": 2358, "annotation": {"number": 64, "value": 60}, "group": "control_change"}, {"time": 2358, "annotation": {"number": 64, "value": 127}, "group": "control_change"}, {"time": 2377, "annotation": {"number": 64, "value": 96}, "group": "control_change"}, {"time": 2377, "annotation": {"number": 64, "value": 64}, "group": "control_change"}, {"time": 2377, "annotation": {"number": 64, "value": 60}, "group": "control_change"}, {"time": 2377, "annotation": {"number": 64, "value": 48}, "group": "control_change"}, {"time": 2377, "annotation": {"number": 64, "value": 32}, "group": "control_change"}, {"time": 2378, "annotation": {"number": 64, "value": 16}, "group": "control_change"}, {"time": 2378, "annotation": {"number": 64, "value": 0}, "group": "control_change"}, {"time": 2381, "annotation": {"number": 64, "value": 16}, "group": "control_change"}, {"time": 2381, "annotation": {"number": 64, "value": 32}, "group": "control_change"}, {"time": 2382, "annotation": {"number": 64, "value": 48}, "group": "control_change"}, {"time": 2382, "annotation": {"number": 64, "value": 60}, "group": "control_change"}, {"time": 2382, "annotation": {"number": 64, "value": 80}, "group": "control_change"}, {"time": 2382, "annotation": {"number": 64, "value": 127}, "group": "control_change"}, {"time": 2391, "annotation": {"number": 64, "value": 80}, "group": "control_change"}, {"time": 2391, "annotation": {"number": 64, "value": 64}, "group": "control_change"}, {"time": 2391, "annotation": {"number": 64, "value": 63}, "group": "control_change"}, {"time": 2391, "annotation": {"number": 64, "value": 60}, "group": "control_change"}, {"time": 2392, "annotation": {"number": 64, "value": 56}, "group": "control_change"}, {"time": 2392, "annotation": {"number": 64, "value": 60}, "group": "control_change"}, {"time": 2393, "annotation": {"number": 64, "value": 64}, "group": "control_change"}, {"time": 2393, "annotation": {"number": 64, "value": 127}, "group": "control_change"}, {"time": 2402, "annotation": {"number": 64, "value": 64}, "group": "control_change"}, {"time": 2402, "annotation": {"number": 64, "value": 60}, "group": "control_change"}, {"time": 2402, "annotation": {"number": 64, "value": 48}, "group": "control_change"}, {"time": 2402, "annotation": {"number": 64, "value": 32}, "group": "control_change"}, {"time": 2403, "annotation": {"number": 64, "value": 16}, "group": "control_change"}, {"time": 2403, "annotation": {"number": 64, "value": 0}, "group": "control_change"}, {"time": 2405, "annotation": {"number": 64, "value": 16}, "group": "control_change"}, {"time": 2405, "annotation": {"number": 64, "value": 32}, "group": "control_change"}, {"time": 2405, "annotation": {"number": 64, "value": 48}, "group": "control_change"}, {"time": 2405, "annotation": {"number": 64, "value": 63}, "group": "control_change"}, {"time": 2406, "annotation": {"number": 64, "value": 96}, "group": "control_change"}, {"time": 2406, "annotation": {"number": 64, "value": 127}, "group": "control_change"}, {"time": 2428, "annotation": {"number": 64, "value": 96}, "group": "control_change"}, {"time": 2428, "annotation": {"number": 64, "value": 64}, "group": "control_change"}, {"time": 2428, "annotation": {"number": 64, "value": 63}, "group": "control_change"}, {"time": 2428, "annotation": {"number": 64, "value": 60}, "group": "control_change"}, {"time": 2428, "annotation": {"number": 64, "value": 48}, "group": "control_change"}, {"time": 2428, "annotation": {"number": 64, "value": 32}, "group": "control_change"}, {"time": 2429, "annotation": {"number": 64, "value": 16}, "group": "control_change"}, {"time": 2430, "annotation": {"number": 64, "value": 32}, "group": "control_change"}, {"time": 2430, "annotation": {"number": 64, "value": 48}, "group": "control_change"}, {"time": 2430, "annotation": {"number": 64, "value": 56}, "group": "control_change"}, {"time": 2430, "annotation": {"number": 64, "value": 64}, "group": "control_change"}, {"time": 2430, "annotation": {"number": 64, "value": 127}, "group": "control_change"}, {"time": 2441, "annotation": {"number": 64, "value": 80}, "group": "control_change"}, {"time": 2441, "annotation": {"number": 64, "value": 64}, "group": "control_change"}, {"time": 2441, "annotation": {"number": 64, "value": 60}, "group": "control_change"}, {"time": 2441, "annotation": {"number": 64, "value": 56}, "group": "control_change"}, {"time": 2441, "annotation": {"number": 64, "value": 48}, "group": "control_change"}, {"time": 2441, "annotation": {"number": 64, "value": 32}, "group": "control_change"}, {"time": 2442, "annotation": {"number": 64, "value": 48}, "group": "control_change"}, {"time": 2442, "annotation": {"number": 64, "value": 60}, "group": "control_change"}, {"time": 2442, "annotation": {"number": 64, "value": 63}, "group": "control_change"}, {"time": 2442, "annotation": {"number": 64, "value": 64}, "group": "control_change"}, {"time": 2443, "annotation": {"number": 64, "value": 127}, "group": "control_change"}, {"time": 2450, "annotation": {"number": 64, "value": 96}, "group": "control_change"}, {"time": 2450, "annotation": {"number": 64, "value": 64}, "group": "control_change"}, {"time": 2450, "annotation": {"number": 64, "value": 63}, "group": "control_change"}, {"time": 2450, "annotation": {"number": 64, "value": 48}, "group": "control_change"}, {"time": 2451, "annotation": {"number": 64, "value": 32}, "group": "control_change"}, {"time": 2451, "annotation": {"number": 64, "value": 16}, "group": "control_change"}, {"time": 2451, "annotation": {"number": 64, "value": 0}, "group": "control_change"}, {"time": 2453, "annotation": {"number": 64, "value": 16}, "group": "control_change"}, {"time": 2454, "annotation": {"number": 64, "value": 32}, "group": "control_change"}, {"time": 2454, "annotation": {"number": 64, "value": 48}, "group": "control_change"}, {"time": 2454, "annotation": {"number": 64, "value": 63}, "group": "control_change"}, {"time": 2454, "annotation": {"number": 64, "value": 80}, "group": "control_change"}, {"time": 2454, "annotation": {"number": 64, "value": 127}, "group": "control_change"}, {"time": 2475, "annotation": {"number": 64, "value": 96}, "group": "control_change"}, {"time": 2475, "annotation": {"number": 64, "value": 64}, "group": "control_change"}, {"time": 2475, "annotation": {"number": 64, "value": 60}, "group": "control_change"}, {"time": 2475, "annotation": {"number": 64, "value": 48}, "group": "control_change"}, {"time": 2476, "annotation": {"number": 64, "value": 32}, "group": "control_change"}, {"time": 2476, "annotation": {"number": 64, "value": 16}, "group": "control_change"}, {"time": 2476, "annotation": {"number": 64, "value": 0}, "group": "control_change"}, {"time": 2477, "annotation": {"number": 64, "value": 16}, "group": "control_change"}, {"time": 2478, "annotation": {"number": 64, "value": 32}, "group": "control_change"}, {"time": 2478, "annotation": {"number": 64, "value": 48}, "group": "control_change"}, {"time": 2478, "annotation": {"number": 64, "value": 60}, "group": "control_change"}, {"time": 2478, "annotation": {"number": 64, "value": 80}, "group": "control_change"}, {"time": 2478, "annotation": {"number": 64, "value": 127}, "group": "control_change"}, {"time": 2499, "annotation": {"number": 64, "value": 80}, "group": "control_change"}, {"time": 2499, "annotation": {"number": 64, "value": 64}, "group": "control_change"}, {"time": 2499, "annotation": {"number": 64, "value": 60}, "group": "control_change"}, {"time": 2499, "annotation": {"number": 64, "value": 48}, "group": "control_change"}, {"time": 2499, "annotation": {"number": 64, "value": 32}, "group": "control_change"}, {"time": 2500, "annotation": {"number": 64, "value": 16}, "group": "control_change"}, {"time": 2501, "annotation": {"number": 64, "value": 32}, "group": "control_change"}, {"time": 2501, "annotation": {"number": 64, "value": 48}, "group": "control_change"}, {"time": 2501, "annotation": {"number": 64, "value": 63}, "group": "control_change"}, {"time": 2501, "annotation": {"number": 64, "value": 96}, "group": "control_change"}, {"time": 2501, "annotation": {"number": 64, "value": 127}, "group": "control_change"}, {"time": 2523, "annotation": {"number": 64, "value": 80}, "group": "control_change"}, {"time": 2523, "annotation": {"number": 64, "value": 64}, "group": "control_change"}, {"time": 2523, "annotation": {"number": 64, "value": 60}, "group": "control_change"}, {"time": 2524, "annotation": {"number": 64, "value": 48}, "group": "control_change"}, {"time": 2524, "annotation": {"number": 64, "value": 32}, "group": "control_change"}, {"time": 2525, "annotation": {"number": 64, "value": 48}, "group": "control_change"}, {"time": 2525, "annotation": {"number": 64, "value": 60}, "group": "control_change"}, {"time": 2525, "annotation": {"number": 64, "value": 64}, "group": "control_change"}, {"time": 2525, "annotation": {"number": 64, "value": 80}, "group": "control_change"}, {"time": 2525, "annotation": {"number": 64, "value": 127}, "group": "control_change"}, {"time": 2547, "annotation": {"number": 64, "value": 80}, "group": "control_change"}, {"time": 2547, "annotation": {"number": 64, "value": 63}, "group": "control_change"}, {"time": 2547, "annotation": {"number": 64, "value": 56}, "group": "control_change"}, {"time": 2547, "annotation": {"number": 64, "value": 48}, "group": "control_change"}, {"time": 2548, "annotation": {"number": 64, "value": 32}, "group": "control_change"}, {"time": 2548, "annotation": {"number": 64, "value": 16}, "group": "control_change"}, {"time": 2548, "annotation": {"number": 64, "value": 0}, "group": "control_change"}, {"time": 2549, "annotation": {"number": 64, "value": 16}, "group": "control_change"}, {"time": 2550, "annotation": {"number": 64, "value": 32}, "group": "control_change"}, {"time": 2550, "annotation": {"number": 64, "value": 48}, "group": "control_change"}, {"time": 2550, "annotation": {"number": 64, "value": 60}, "group": "control_change"}, {"time": 2550, "annotation": {"number": 64, "value": 80}, "group": "control_change"}, {"time": 2550, "annotation": {"number": 64, "value": 127}, "group": "control_change"}, {"time": 2572, "annotation": {"number": 64, "value": 64}, "group": "control_change"}, {"time": 2572, "annotation": {"number": 64, "value": 60}, "group": "control_change"}, {"time": 2572, "annotation": {"number": 64, "value": 48}, "group": "control_change"}, {"time": 2573, "annotation": {"number": 64, "value": 32}, "group": "control_change"}, {"time": 2573, "annotation": {"number": 64, "value": 48}, "group": "control_change"}, {"time": 2573, "annotation": {"number": 64, "value": 60}, "group": "control_change"}, {"time": 2573, "annotation": {"number": 64, "value": 64}, "group": "control_change"}, {"time": 2574, "annotation": {"number": 64, "value": 127}, "group": "control_change"}, {"time": 2595, "annotation": {"number": 64, "value": 6}, "group": "control_change"}, {"time": 2598, "annotation": {"number": 64, "value": 127}, "group": "control_change"}, {"time": 2618, "annotation": {"number": 64, "value": 64}, "group": "control_change"}, {"time": 2618, "annotation": {"number": 64, "value": 60}, "group": "control_change"}, {"time": 2618, "annotation": {"number": 64, "value": 48}, "group": "control_change"}, {"time": 2618, "annotation": {"number": 64, "value": 32}, "group": "control_change"}, {"time": 2619, "annotation": {"number": 64, "value": 16}, "group": "control_change"}, {"time": 2619, "annotation": {"number": 64, "value": 0}, "group": "control_change"}, {"time": 2621, "annotation": {"number": 64, "value": 16}, "group": "control_change"}, {"time": 2621, "annotation": {"number": 64, "value": 32}, "group": "control_change"}, {"time": 2621, "annotation": {"number": 64, "value": 48}, "group": "control_change"}, {"time": 2621, "annotation": {"number": 64, "value": 60}, "group": "control_change"}, {"time": 2621, "annotation": {"number": 64, "value": 64}, "group": "control_change"}, {"time": 2622, "annotation": {"number": 64, "value": 127}, "group": "control_change"}, {"time": 2644, "annotation": {"number": 64, "value": 80}, "group": "control_change"}, {"time": 2644, "annotation": {"number": 64, "value": 64}, "group": "control_change"}, {"time": 2644, "annotation": {"number": 64, "value": 63}, "group": "control_change"}, {"time": 2644, "annotation": {"number": 64, "value": 60}, "group": "control_change"}, {"time": 2644, "annotation": {"number": 64, "value": 56}, "group": "control_change"}, {"time": 2644, "annotation": {"number": 64, "value": 48}, "group": "control_change"}, {"time": 2644, "annotation": {"number": 64, "value": 32}, "group": "control_change"}, {"time": 2646, "annotation": {"number": 64, "value": 48}, "group": "control_change"}, {"time": 2646, "annotation": {"number": 64, "value": 63}, "group": "control_change"}, {"time": 2646, "annotation": {"number": 64, "value": 80}, "group": "control_change"}, {"time": 2646, "annotation": {"number": 64, "value": 127}, "group": "control_change"}, {"time": 2668, "annotation": {"number": 64, "value": 80}, "group": "control_change"}, {"time": 2668, "annotation": {"number": 64, "value": 64}, "group": "control_change"}, {"time": 2668, "annotation": {"number": 64, "value": 63}, "group": "control_change"}, {"time": 2668, "annotation": {"number": 64, "value": 60}, "group": "control_change"}, {"time": 2668, "annotation": {"number": 64, "value": 56}, "group": "control_change"}, {"time": 2668, "annotation": {"number": 64, "value": 48}, "group": "control_change"}, {"time": 2668, "annotation": {"number": 64, "value": 32}, "group": "control_change"}, {"time": 2669, "annotation": {"number": 64, "value": 48}, "group": "control_change"}, {"time": 2670, "annotation": {"number": 64, "value": 56}, "group": "control_change"}, {"time": 2670, "annotation": {"number": 64, "value": 63}, "group": "control_change"}, {"time": 2670, "annotation": {"number": 64, "value": 96}, "group": "control_change"}, {"time": 2670, "annotation": {"number": 64, "value": 127}, "group": "control_change"}, {"time": 2686, "annotation": {"number": 64, "value": 80}, "group": "control_change"}, {"time": 2686, "annotation": {"number": 64, "value": 63}, "group": "control_change"}, {"time": 2686, "annotation": {"number": 64, "value": 56}, "group": "control_change"}, {"time": 2686, "annotation": {"number": 64, "value": 48}, "group": "control_change"}, {"time": 2686, "annotation": {"number": 64, "value": 32}, "group": "control_change"}, {"time": 2687, "annotation": {"number": 64, "value": 16}, "group": "control_change"}, {"time": 2687, "annotation": {"number": 64, "value": 0}, "group": "control_change"}, {"time": 2690, "annotation": {"number": 64, "value": 16}, "group": "control_change"}, {"time": 2691, "annotation": {"number": 64, "value": 32}, "group": "control_change"}, {"time": 2691, "annotation": {"number": 64, "value": 48}, "group": "control_change"}, {"time": 2691, "annotation": {"number": 64, "value": 60}, "group": "control_change"}, {"time": 2691, "annotation": {"number": 64, "value": 63}, "group": "control_change"}, {"time": 2691, "annotation": {"number": 64, "value": 64}, "group": "control_change"}, {"time": 2692, "annotation": {"number": 64, "value": 80}, "group": "control_change"}, {"time": 2692, "annotation": {"number": 64, "value": 127}, "group": "control_change"}, {"time": 2693, "annotation": {"number": 64, "value": 96}, "group": "control_change"}, {"time": 2693, "annotation": {"number": 64, "value": 64}, "group": "control_change"}, {"time": 2694, "annotation": {"number": 64, "value": 63}, "group": "control_change"}, {"time": 2694, "annotation": {"number": 64, "value": 60}, "group": "control_change"}, {"time": 2694, "annotation": {"number": 64, "value": 48}, "group": "control_change"}, {"time": 2694, "annotation": {"number": 64, "value": 32}, "group": "control_change"}, {"time": 2694, "annotation": {"number": 64, "value": 16}, "group": "control_change"}, {"time": 2695, "annotation": {"number": 64, "value": 0}, "group": "control_change"}, {"time": 2699, "annotation": {"number": 64, "value": 16}, "group": "control_change"}, {"time": 2699, "annotation": {"number": 64, "value": 32}, "group": "control_change"}, {"time": 2699, "annotation": {"number": 64, "value": 48}, "group": "control_change"}, {"time": 2700, "annotation": {"number": 64, "value": 63}, "group": "control_change"}, {"time": 2700, "annotation": {"number": 64, "value": 80}, "group": "control_change"}, {"time": 2700, "annotation": {"number": 64, "value": 127}, "group": "control_change"}, {"time": 2720, "annotation": {"number": 64, "value": 14}, "group": "control_change"}, {"time": 2723, "annotation": {"number": 64, "value": 31}, "group": "control_change"}, {"time": 2727, "annotation": {"number": 64, "value": 64}, "group": "control_change"}, {"time": 2727, "annotation": {"number": 64, "value": 63}, "group": "control_change"}, {"time": 2727, "annotation": {"number": 64, "value": 48}, "group": "control_change"}, {"time": 2728, "annotation": {"number": 64, "value": 32}, "group": "control_change"}, {"time": 2728, "annotation": {"number": 64, "value": 16}, "group": "control_change"}, {"time": 2728, "annotation": {"number": 64, "value": 0}, "group": "control_change"}, {"time": 2730, "annotation": {"number": 64, "value": 16}, "group": "control_change"}, {"time": 2730, "annotation": {"number": 64, "value": 32}, "group": "control_change"}, {"time": 2730, "annotation": {"number": 64, "value": 48}, "group": "control_change"}, {"time": 2730, "annotation": {"number": 64, "value": 63}, "group": "control_change"}, {"time": 2731, "annotation": {"number": 64, "value": 80}, "group": "control_change"}, {"time": 2731, "annotation": {"number": 64, "value": 127}, "group": "control_change"}, {"time": 2736, "annotation": {"number": 64, "value": 80}, "group": "control_change"}, {"time": 2736, "annotation": {"number": 64, "value": 64}, "group": "control_change"}, {"time": 2737, "annotation": {"number": 64, "value": 63}, "group": "control_change"}, {"time": 2737, "annotation": {"number": 64, "value": 60}, "group": "control_change"}, {"time": 2737, "annotation": {"number": 64, "value": 48}, "group": "control_change"}, {"time": 2737, "annotation": {"number": 64, "value": 32}, "group": "control_change"}, {"time": 2738, "annotation": {"number": 64, "value": 16}, "group": "control_change"}, {"time": 2738, "annotation": {"number": 64, "value": 0}, "group": "control_change"}, {"time": 2738, "annotation": {"number": 64, "value": 32}, "group": "control_change"}, {"time": 2740, "annotation": {"number": 64, "value": 16}, "group": "control_change"}, {"time": 2740, "annotation": {"number": 64, "value": 0}, "group": "control_change"}, {"time": 2742, "annotation": {"number": 64, "value": 16}, "group": "control_change"}, {"time": 2742, "annotation": {"number": 64, "value": 32}, "group": "control_change"}, {"time": 2742, "annotation": {"number": 64, "value": 48}, "group": "control_change"}, {"time": 2742, "annotation": {"number": 64, "value": 60}, "group": "control_change"}, {"time": 2742, "annotation": {"number": 64, "value": 80}, "group": "control_change"}, {"time": 2742, "annotation": {"number": 64, "value": 127}, "group": "control_change"}, {"time": 2763, "annotation": {"number": 64, "value": 80}, "group": "control_change"}, {"time": 2763, "annotation": {"number": 64, "value": 63}, "group": "control_change"}, {"time": 2763, "annotation": {"number": 64, "value": 48}, "group": "control_change"}, {"time": 2763, "annotation": {"number": 64, "value": 32}, "group": "control_change"}, {"time": 2764, "annotation": {"number": 64, "value": 16}, "group": "control_change"}, {"time": 2764, "annotation": {"number": 64, "value": 0}, "group": "control_change"}, {"time": 2772, "annotation": {"number": 64, "value": 16}, "group": "control_change"}, {"time": 2772, "annotation": {"number": 64, "value": 32}, "group": "control_change"}, {"time": 2772, "annotation": {"number": 64, "value": 48}, "group": "control_change"}, {"time": 2772, "annotation": {"number": 64, "value": 60}, "group": "control_change"}, {"time": 2772, "annotation": {"number": 64, "value": 80}, "group": "control_change"}, {"time": 2772, "annotation": {"number": 64, "value": 127}, "group": "control_change"}, {"time": 2790, "annotation": {"number": 64, "value": 64}, "group": "control_change"}, {"time": 2790, "annotation": {"number": 64, "value": 60}, "group": "control_change"}, {"time": 2790, "annotation": {"number": 64, "value": 48}, "group": "control_change"}, {"time": 2790, "annotation": {"number": 64, "value": 32}, "group": "control_change"}, {"time": 2791, "annotation": {"number": 64, "value": 16}, "group": "control_change"}, {"time": 2791, "annotation": {"number": 64, "value": 0}, "group": "control_change"}, {"time": 2795, "annotation": {"number": 64, "value": 16}, "group": "control_change"}, {"time": 2796, "annotation": {"number": 64, "value": 32}, "group": "control_change"}, {"time": 2796, "annotation": {"number": 64, "value": 56}, "group": "control_change"}, {"time": 2796, "annotation": {"number": 64, "value": 80}, "group": "control_change"}, {"time": 2796, "annotation": {"number": 64, "value": 127}, "group": "control_change"}, {"time": 2799, "annotation": {"number": 64, "value": 64}, "group": "control_change"}, {"time": 2799, "annotation": {"number": 64, "value": 56}, "group": "control_change"}, {"time": 2799, "annotation": {"number": 64, "value": 32}, "group": "control_change"}, {"time": 2799, "annotation": {"number": 64, "value": 16}, "group": "control_change"}, {"time": 2799, "annotation": {"number": 64, "value": 0}, "group": "control_change"}, {"time": 2803, "annotation": {"number": 64, "value": 16}, "group": "control_change"}, {"time": 2803, "annotation": {"number": 64, "value": 32}, "group": "control_change"}, {"time": 2803, "annotation": {"number": 64, "value": 56}, "group": "control_change"}, {"time": 2803, "annotation": {"number": 64, "value": 64}, "group": "control_change"}, {"time": 2803, "annotation": {"number": 64, "value": 127}, "group": "control_change"}, {"time": 2808, "annotation": {"number": 64, "value": 63}, "group": "control_change"}, {"time": 2808, "annotation": {"number": 64, "value": 48}, "group": "control_change"}, {"time": 2808, "annotation": {"number": 64, "value": 32}, "group": "control_change"}, {"time": 2809, "annotation": {"number": 64, "value": 16}, "group": "control_change"}, {"time": 2809, "annotation": {"number": 64, "value": 0}, "group": "control_change"}, {"time": 2814, "annotation": {"number": 64, "value": 16}, "group": "control_change"}, {"time": 2814, "annotation": {"number": 64, "value": 32}, "group": "control_change"}, {"time": 2814, "annotation": {"number": 64, "value": 48}, "group": "control_change"}, {"time": 2814, "annotation": {"number": 64, "value": 60}, "group": "control_change"}, {"time": 2814, "annotation": {"number": 64, "value": 80}, "group": "control_change"}, {"time": 2814, "annotation": {"number": 64, "value": 127}, "group": "control_change"}, {"time": 2839, "annotation": {"number": 64, "value": 64}, "group": "control_change"}, {"time": 2839, "annotation": {"number": 64, "value": 56}, "group": "control_change"}, {"time": 2839, "annotation": {"number": 64, "value": 32}, "group": "control_change"}, {"time": 2840, "annotation": {"number": 64, "value": 16}, "group": "control_change"}, {"time": 2840, "annotation": {"number": 64, "value": 0}, "group": "control_change"}, {"time": 2844, "annotation": {"number": 64, "value": 16}, "group": "control_change"}, {"time": 2844, "annotation": {"number": 64, "value": 32}, "group": "control_change"}, {"time": 2844, "annotation": {"number": 64, "value": 56}, "group": "control_change"}, {"time": 2844, "annotation": {"number": 64, "value": 64}, "group": "control_change"}, {"time": 2844, "annotation": {"number": 64, "value": 127}, "group": "control_change"}, {"time": 2862, "annotation": {"number": 64, "value": 64}, "group": "control_change"}, {"time": 2862, "annotation": {"number": 64, "value": 60}, "group": "control_change"}, {"time": 2862, "annotation": {"number": 64, "value": 48}, "group": "control_change"}, {"time": 2862, "annotation": {"number": 64, "value": 32}, "group": "control_change"}, {"time": 2862, "annotation": {"number": 64, "value": 16}, "group": "control_change"}, {"time": 2862, "annotation": {"number": 64, "value": 0}, "group": "control_change"}, {"time": 2865, "annotation": {"number": 64, "value": 16}, "group": "control_change"}, {"time": 2865, "annotation": {"number": 64, "value": 32}, "group": "control_change"}, {"time": 2865, "annotation": {"number": 64, "value": 48}, "group": "control_change"}, {"time": 2865, "annotation": {"number": 64, "value": 63}, "group": "control_change"}, {"time": 2865, "annotation": {"number": 64, "value": 80}, "group": "control_change"}, {"time": 2866, "annotation": {"number": 64, "value": 127}, "group": "control_change"}, {"time": 2884, "annotation": {"number": 64, "value": 80}, "group": "control_change"}, {"time": 2884, "annotation": {"number": 64, "value": 64}, "group": "control_change"}, {"time": 2884, "annotation": {"number": 64, "value": 63}, "group": "control_change"}, {"time": 2885, "annotation": {"number": 64, "value": 60}, "group": "control_change"}, {"time": 2886, "annotation": {"number": 64, "value": 63}, "group": "control_change"}, {"time": 2886, "annotation": {"number": 64, "value": 64}, "group": "control_change"}, {"time": 2886, "annotation": {"number": 64, "value": 96}, "group": "control_change"}, {"time": 2886, "annotation": {"number": 64, "value": 127}, "group": "control_change"}, {"time": 2931, "annotation": {"number": 64, "value": 96}, "group": "control_change"}, {"time": 2931, "annotation": {"number": 64, "value": 64}, "group": "control_change"}, {"time": 2932, "annotation": {"number": 64, "value": 60}, "group": "control_change"}, {"time": 2932, "annotation": {"number": 64, "value": 48}, "group": "control_change"}, {"time": 2932, "annotation": {"number": 64, "value": 32}, "group": "control_change"}, {"time": 2932, "annotation": {"number": 64, "value": 16}, "group": "control_change"}, {"time": 2933, "annotation": {"number": 64, "value": 0}, "group": "control_change"}, {"time": 2934, "annotation": {"number": 64, "value": 16}, "group": "control_change"}, {"time": 2935, "annotation": {"number": 64, "value": 32}, "group": "control_change"}, {"time": 2935, "annotation": {"number": 64, "value": 48}, "group": "control_change"}, {"time": 2935, "annotation": {"number": 64, "value": 56}, "group": "control_change"}, {"time": 2935, "annotation": {"number": 64, "value": 64}, "group": "control_change"}, {"time": 2935, "annotation": {"number": 64, "value": 96}, "group": "control_change"}, {"time": 2935, "annotation": {"number": 64, "value": 127}, "group": "control_change"}, {"time": 2953, "annotation": {"number": 64, "value": 96}, "group": "control_change"}, {"time": 2954, "annotation": {"number": 64, "value": 64}, "group": "control_change"}, {"time": 2954, "annotation": {"number": 64, "value": 63}, "group": "control_change"}, {"time": 2954, "annotation": {"number": 64, "value": 56}, "group": "control_change"}, {"time": 2954, "annotation": {"number": 64, "value": 48}, "group": "control_change"}, {"time": 2954, "annotation": {"number": 64, "value": 32}, "group": "control_change"}, {"time": 2955, "annotation": {"number": 64, "value": 16}, "group": "control_change"}, {"time": 2956, "annotation": {"number": 64, "value": 32}, "group": "control_change"}, {"time": 2956, "annotation": {"number": 64, "value": 48}, "group": "control_change"}, {"time": 2956, "annotation": {"number": 64, "value": 60}, "group": "control_change"}, {"time": 2956, "annotation": {"number": 64, "value": 63}, "group": "control_change"}, {"time": 2957, "annotation": {"number": 64, "value": 80}, "group": "control_change"}, {"time": 2957, "annotation": {"number": 64, "value": 127}, "group": "control_change"}, {"time": 2980, "annotation": {"number": 64, "value": 80}, "group": "control_change"}, {"time": 2980, "annotation": {"number": 64, "value": 64}, "group": "control_change"}, {"time": 2980, "annotation": {"number": 64, "value": 63}, "group": "control_change"}, {"time": 2981, "annotation": {"number": 64, "value": 64}, "group": "control_change"}, {"time": 2981, "annotation": {"number": 64, "value": 127}, "group": "control_change"}, {"time": 3002, "annotation": {"number": 64, "value": 64}, "group": "control_change"}, {"time": 3002, "annotation": {"number": 64, "value": 63}, "group": "control_change"}, {"time": 3002, "annotation": {"number": 64, "value": 56}, "group": "control_change"}, {"time": 3002, "annotation": {"number": 64, "value": 48}, "group": "control_change"}, {"time": 3002, "annotation": {"number": 64, "value": 32}, "group": "control_change"}, {"time": 3003, "annotation": {"number": 64, "value": 16}, "group": "control_change"}, {"time": 3004, "annotation": {"number": 64, "value": 32}, "group": "control_change"}, {"time": 3004, "annotation": {"number": 64, "value": 48}, "group": "control_change"}, {"time": 3004, "annotation": {"number": 64, "value": 56}, "group": "control_change"}, {"time": 3004, "annotation": {"number": 64, "value": 63}, "group": "control_change"}, {"time": 3004, "annotation": {"number": 64, "value": 80}, "group": "control_change"}, {"time": 3005, "annotation": {"number": 64, "value": 127}, "group": "control_change"}, {"time": 3027, "annotation": {"number": 64, "value": 96}, "group": "control_change"}, {"time": 3028, "annotation": {"number": 64, "value": 64}, "group": "control_change"}, {"time": 3028, "annotation": {"number": 64, "value": 63}, "group": "control_change"}, {"time": 3028, "annotation": {"number": 64, "value": 60}, "group": "control_change"}, {"time": 3028, "annotation": {"number": 64, "value": 56}, "group": "control_change"}, {"time": 3028, "annotation": {"number": 64, "value": 48}, "group": "control_change"}, {"time": 3028, "annotation": {"number": 64, "value": 32}, "group": "control_change"}, {"time": 3030, "annotation": {"number": 64, "value": 48}, "group": "control_change"}, {"time": 3030, "annotation": {"number": 64, "value": 60}, "group": "control_change"}, {"time": 3030, "annotation": {"number": 64, "value": 64}, "group": "control_change"}, {"time": 3030, "annotation": {"number": 64, "value": 80}, "group": "control_change"}, {"time": 3030, "annotation": {"number": 64, "value": 127}, "group": "control_change"}, {"time": 3050, "annotation": {"number": 64, "value": 96}, "group": "control_change"}, {"time": 3050, "annotation": {"number": 64, "value": 64}, "group": "control_change"}, {"time": 3050, "annotation": {"number": 64, "value": 63}, "group": "control_change"}, {"time": 3050, "annotation": {"number": 64, "value": 60}, "group": "control_change"}, {"time": 3050, "annotation": {"number": 64, "value": 56}, "group": "control_change"}, {"time": 3050, "annotation": {"number": 64, "value": 48}, "group": "control_change"}, {"time": 3050, "annotation": {"number": 64, "value": 32}, "group": "control_change"}, {"time": 3052, "annotation": {"number": 64, "value": 48}, "group": "control_change"}, {"time": 3052, "annotation": {"number": 64, "value": 60}, "group": "control_change"}, {"time": 3052, "annotation": {"number": 64, "value": 63}, "group": "control_change"}, {"time": 3052, "annotation": {"number": 64, "value": 64}, "group": "control_change"}, {"time": 3052, "annotation": {"number": 64, "value": 80}, "group": "control_change"}, {"time": 3052, "annotation": {"number": 64, "value": 127}, "group": "control_change"}, {"time": 3072, "annotation": {"number": 64, "value": 63}, "group": "control_change"}, {"time": 3073, "annotation": {"number": 64, "value": 48}, "group": "control_change"}, {"time": 3073, "annotation": {"number": 64, "value": 32}, "group": "control_change"}, {"time": 3073, "annotation": {"number": 64, "value": 16}, "group": "control_change"}, {"time": 3073, "annotation": {"number": 64, "value": 0}, "group": "control_change"}, {"time": 3109, "annotation": {"number": 64, "value": 16}, "group": "control_change"}, {"time": 3109, "annotation": {"number": 64, "value": 32}, "group": "control_change"}, {"time": 3109, "annotation": {"number": 64, "value": 48}, "group": "control_change"}, {"time": 3109, "annotation": {"number": 64, "value": 60}, "group": "control_change"}, {"time": 3109, "annotation": {"number": 64, "value": 64}, "group": "control_change"}, {"time": 3110, "annotation": {"number": 64, "value": 96}, "group": "control_change"}, {"time": 3110, "annotation": {"number": 64, "value": 127}, "group": "control_change"}, {"time": 3122, "annotation": {"number": 64, "value": 64}, "group": "control_change"}, {"time": 3122, "annotation": {"number": 64, "value": 60}, "group": "control_change"}, {"time": 3122, "annotation": {"number": 64, "value": 48}, "group": "control_change"}, {"time": 3122, "annotation": {"number": 64, "value": 32}, "group": "control_change"}, {"time": 3123, "annotation": {"number": 64, "value": 16}, "group": "control_change"}, {"time": 3123, "annotation": {"number": 64, "value": 0}, "group": "control_change"}, {"time": 3149, "annotation": {"number": 64, "value": 16}, "group": "control_change"}, {"time": 3150, "annotation": {"number": 64, "value": 32}, "group": "control_change"}, {"time": 3150, "annotation": {"number": 64, "value": 48}, "group": "control_change"}, {"time": 3150, "annotation": {"number": 64, "value": 60}, "group": "control_change"}, {"time": 3150, "annotation": {"number": 64, "value": 63}, "group": "control_change"}, {"time": 3150, "annotation": {"number": 64, "value": 64}, "group": "control_change"}, {"time": 3150, "annotation": {"number": 64, "value": 127}, "group": "control_change"}, {"time": 3167, "annotation": {"number": 64, "value": 96}, "group": "control_change"}, {"time": 3167, "annotation": {"number": 64, "value": 64}, "group": "control_change"}, {"time": 3167, "annotation": {"number": 64, "value": 63}, "group": "control_change"}, {"time": 3167, "annotation": {"number": 64, "value": 60}, "group": "control_change"}, {"time": 3167, "annotation": {"number": 64, "value": 56}, "group": "control_change"}, {"time": 3167, "annotation": {"number": 64, "value": 48}, "group": "control_change"}, {"time": 3167, "annotation": {"number": 64, "value": 32}, "group": "control_change"}, {"time": 3169, "annotation": {"number": 64, "value": 16}, "group": "control_change"}, {"time": 3170, "annotation": {"number": 64, "value": 0}, "group": "control_change"}, {"time": 3186, "annotation": {"number": 64, "value": 16}, "group": "control_change"}, {"time": 3187, "annotation": {"number": 64, "value": 32}, "group": "control_change"}, {"time": 3187, "annotation": {"number": 64, "value": 48}, "group": "control_change"}, {"time": 3187, "annotation": {"number": 64, "value": 60}, "group": "control_change"}, {"time": 3187, "annotation": {"number": 64, "value": 63}, "group": "control_change"}, {"time": 3187, "annotation": {"number": 64, "value": 64}, "group": "control_change"}, {"time": 3188, "annotation": {"number": 64, "value": 80}, "group": "control_change"}, {"time": 3188, "annotation": {"number": 64, "value": 127}, "group": "control_change"}, {"time": 3218, "annotation": {"number": 64, "value": 64}, "group": "control_change"}, {"time": 3218, "annotation": {"number": 64, "value": 56}, "group": "control_change"}, {"time": 3218, "annotation": {"number": 64, "value": 48}, "group": "control_change"}, {"time": 3218, "annotation": {"number": 64, "value": 32}, "group": "control_change"}, {"time": 3218, "annotation": {"number": 64, "value": 16}, "group": "control_change"}, {"time": 3218, "annotation": {"number": 64, "value": 0}, "group": "control_change"}, {"time": 3223, "annotation": {"number": 64, "value": 16}, "group": "control_change"}, {"time": 3223, "annotation": {"number": 64, "value": 32}, "group": "control_change"}, {"time": 3223, "annotation": {"number": 64, "value": 48}, "group": "control_change"}, {"time": 3223, "annotation": {"number": 64, "value": 56}, "group": "control_change"}, {"time": 3223, "annotation": {"number": 64, "value": 64}, "group": "control_change"}, {"time": 3223, "annotation": {"number": 64, "value": 127}, "group": "control_change"}, {"time": 3243, "annotation": {"number": 64, "value": 80}, "group": "control_change"}, {"time": 3243, "annotation": {"number": 64, "value": 64}, "group": "control_change"}, {"time": 3243, "annotation": {"number": 64, "value": 60}, "group": "control_change"}, {"time": 3243, "annotation": {"number": 64, "value": 48}, "group": "control_change"}, {"time": 3243, "annotation": {"number": 64, "value": 32}, "group": "control_change"}, {"time": 3244, "annotation": {"number": 64, "value": 16}, "group": "control_change"}, {"time": 3245, "annotation": {"number": 64, "value": 32}, "group": "control_change"}, {"time": 3246, "annotation": {"number": 64, "value": 48}, "group": "control_change"}, {"time": 3246, "annotation": {"number": 64, "value": 56}, "group": "control_change"}, {"time": 3246, "annotation": {"number": 64, "value": 63}, "group": "control_change"}, {"time": 3246, "annotation": {"number": 64, "value": 64}, "group": "control_change"}, {"time": 3246, "annotation": {"number": 64, "value": 80}, "group": "control_change"}, {"time": 3247, "annotation": {"number": 64, "value": 127}, "group": "control_change"}, {"time": 3252, "annotation": {"number": 64, "value": 96}, "group": "control_change"}, {"time": 3252, "annotation": {"number": 64, "value": 64}, "group": "control_change"}, {"time": 3252, "annotation": {"number": 64, "value": 63}, "group": "control_change"}, {"time": 3252, "annotation": {"number": 64, "value": 60}, "group": "control_change"}, {"time": 3252, "annotation": {"number": 64, "value": 48}, "group": "control_change"}, {"time": 3253, "annotation": {"number": 64, "value": 32}, "group": "control_change"}, {"time": 3254, "annotation": {"number": 64, "value": 48}, "group": "control_change"}, {"time": 3254, "annotation": {"number": 64, "value": 60}, "group": "control_change"}, {"time": 3254, "annotation": {"number": 64, "value": 63}, "group": "control_change"}, {"time": 3255, "annotation": {"number": 64, "value": 64}, "group": "control_change"}, {"time": 3255, "annotation": {"number": 64, "value": 80}, "group": "control_change"}, {"time": 3255, "annotation": {"number": 64, "value": 127}, "group": "control_change"}, {"time": 3267, "annotation": {"number": 64, "value": 64}, "group": "control_change"}, {"time": 3267, "annotation": {"number": 64, "value": 63}, "group": "control_change"}, {"time": 3267, "annotation": {"number": 64, "value": 56}, "group": "control_change"}, {"time": 3267, "annotation": {"number": 64, "value": 48}, "group": "control_change"}, {"time": 3267, "annotation": {"number": 64, "value": 32}, "group": "control_change"}, {"time": 3267, "annotation": {"number": 64, "value": 16}, "group": "control_change"}, {"time": 3268, "annotation": {"number": 64, "value": 0}, "group": "control_change"}, {"time": 3269, "annotation": {"number": 64, "value": 16}, "group": "control_change"}, {"time": 3270, "annotation": {"number": 64, "value": 32}, "group": "control_change"}, {"time": 3270, "annotation": {"number": 64, "value": 48}, "group": "control_change"}, {"time": 3270, "annotation": {"number": 64, "value": 63}, "group": "control_change"}, {"time": 3270, "annotation": {"number": 64, "value": 64}, "group": "control_change"}, {"time": 3270, "annotation": {"number": 64, "value": 127}, "group": "control_change"}, {"time": 3284, "annotation": {"number": 64, "value": 64}, "group": "control_change"}, {"time": 3284, "annotation": {"number": 64, "value": 63}, "group": "control_change"}, {"time": 3284, "annotation": {"number": 64, "value": 60}, "group": "control_change"}, {"time": 3284, "annotation": {"number": 64, "value": 48}, "group": "control_change"}, {"time": 3284, "annotation": {"number": 64, "value": 32}, "group": "control_change"}, {"time": 3285, "annotation": {"number": 64, "value": 16}, "group": "control_change"}, {"time": 3286, "annotation": {"number": 64, "value": 32}, "group": "control_change"}, {"time": 3287, "annotation": {"number": 64, "value": 48}, "group": "control_change"}, {"time": 3287, "annotation": {"number": 64, "value": 60}, "group": "control_change"}, {"time": 3287, "annotation": {"number": 64, "value": 63}, "group": "control_change"}, {"time": 3287, "annotation": {"number": 64, "value": 64}, "group": "control_change"}, {"time": 3287, "annotation": {"number": 64, "value": 96}, "group": "control_change"}, {"time": 3287, "annotation": {"number": 64, "value": 127}, "group": "control_change"}, {"time": 3315, "annotation": {"number": 64, "value": 80}, "group": "control_change"}, {"time": 3315, "annotation": {"number": 64, "value": 64}, "group": "control_change"}, {"time": 3315, "annotation": {"number": 64, "value": 60}, "group": "control_change"}, {"time": 3315, "annotation": {"number": 64, "value": 48}, "group": "control_change"}, {"time": 3315, "annotation": {"number": 64, "value": 32}, "group": "control_change"}, {"time": 3315, "annotation": {"number": 64, "value": 16}, "group": "control_change"}, {"time": 3316, "annotation": {"number": 64, "value": 0}, "group": "control_change"}, {"time": 3317, "annotation": {"number": 64, "value": 16}, "group": "control_change"}, {"time": 3318, "annotation": {"number": 64, "value": 32}, "group": "control_change"}, {"time": 3318, "annotation": {"number": 64, "value": 48}, "group": "control_change"}, {"time": 3318, "annotation": {"number": 64, "value": 60}, "group": "control_change"}, {"time": 3318, "annotation": {"number": 64, "value": 64}, "group": "control_change"}, {"time": 3318, "annotation": {"number": 64, "value": 80}, "group": "control_change"}, {"time": 3318, "annotation": {"number": 64, "value": 127}, "group": "control_change"}, {"time": 3339, "annotation": {"number": 64, "value": 80}, "group": "control_change"}, {"time": 3339, "annotation": {"number": 64, "value": 64}, "group": "control_change"}, {"time": 3340, "annotation": {"number": 64, "value": 80}, "group": "control_change"}, {"time": 3340, "annotation": {"number": 64, "value": 127}, "group": "control_change"}, {"time": 3363, "annotation": {"number": 64, "value": 96}, "group": "control_change"}, {"time": 3363, "annotation": {"number": 64, "value": 64}, "group": "control_change"}, {"time": 3364, "annotation": {"number": 64, "value": 80}, "group": "control_change"}, {"time": 3364, "annotation": {"number": 64, "value": 127}, "group": "control_change"}, {"time": 3385, "annotation": {"number": 64, "value": 96}, "group": "control_change"}, {"time": 3385, "annotation": {"number": 64, "value": 64}, "group": "control_change"}, {"time": 3385, "annotation": {"number": 64, "value": 63}, "group": "control_change"}, {"time": 3386, "annotation": {"number": 64, "value": 60}, "group": "control_change"}, {"time": 3386, "annotation": {"number": 64, "value": 48}, "group": "control_change"}, {"time": 3386, "annotation": {"number": 64, "value": 32}, "group": "control_change"}, {"time": 3386, "annotation": {"number": 64, "value": 16}, "group": "control_change"}, {"time": 3388, "annotation": {"number": 64, "value": 32}, "group": "control_change"}, {"time": 3388, "annotation": {"number": 64, "value": 48}, "group": "control_change"}, {"time": 3389, "annotation": {"number": 64, "value": 56}, "group": "control_change"}, {"time": 3389, "annotation": {"number": 64, "value": 63}, "group": "control_change"}, {"time": 3389, "annotation": {"number": 64, "value": 64}, "group": "control_change"}, {"time": 3389, "annotation": {"number": 64, "value": 127}, "group": "control_change"}, {"time": 3459, "annotation": {"number": 64, "value": 64}, "group": "control_change"}, {"time": 3460, "annotation": {"number": 64, "value": 63}, "group": "control_change"}, {"time": 3460, "annotation": {"number": 64, "value": 60}, "group": "control_change"}, {"time": 3460, "annotation": {"number": 64, "value": 56}, "group": "control_change"}, {"time": 3460, "annotation": {"number": 64, "value": 48}, "group": "control_change"}, {"time": 3460, "annotation": {"number": 64, "value": 32}, "group": "control_change"}, {"time": 3461, "annotation": {"number": 64, "value": 16}, "group": "control_change"}, {"time": 3461, "annotation": {"number": 64, "value": 0}, "group": "control_change"}, {"time": 3495, "annotation": {"number": 64, "value": 64}, "group": "control_change"}, {"time": 3495, "annotation": {"number": 64, "value": 63}, "group": "control_change"}, {"time": 3495, "annotation": {"number": 64, "value": 48}, "group": "control_change"}, {"time": 3496, "annotation": {"number": 64, "value": 32}, "group": "control_change"}, {"time": 3496, "annotation": {"number": 64, "value": 16}, "group": "control_change"}, {"time": 3496, "annotation": {"number": 64, "value": 0}, "group": "control_change"}, {"time": 3498, "annotation": {"number": 64, "value": 16}, "group": "control_change"}, {"time": 3498, "annotation": {"number": 64, "value": 32}, "group": "control_change"}, {"time": 3498, "annotation": {"number": 64, "value": 48}, "group": "control_change"}, {"time": 3498, "annotation": {"number": 64, "value": 63}, "group": "control_change"}, {"time": 3499, "annotation": {"number": 64, "value": 80}, "group": "control_change"}, {"time": 3499, "annotation": {"number": 64, "value": 127}, "group": "control_change"}, {"time": 3504, "annotation": {"number": 64, "value": 80}, "group": "control_change"}, {"time": 3504, "annotation": {"number": 64, "value": 64}, "group": "control_change"}, {"time": 3505, "annotation": {"number": 64, "value": 63}, "group": "control_change"}, {"time": 3505, "annotation": {"number": 64, "value": 60}, "group": "control_change"}, {"time": 3505, "annotation": {"number": 64, "value": 48}, "group": "control_change"}, {"time": 3505, "annotation": {"number": 64, "value": 32}, "group": "control_change"}, {"time": 3506, "annotation": {"number": 64, "value": 16}, "group": "control_change"}, {"time": 3506, "annotation": {"number": 64, "value": 0}, "group": "control_change"}, {"time": 3506, "annotation": {"number": 64, "value": 32}, "group": "control_change"}, {"time": 3508, "annotation": {"number": 64, "value": 16}, "group": "control_change"}, {"time": 3508, "annotation": {"number": 64, "value": 0}, "group": "control_change"}, {"time": 3510, "annotation": {"number": 64, "value": 16}, "group": "control_change"}, {"time": 3510, "annotation": {"number": 64, "value": 32}, "group": "control_change"}, {"time": 3510, "annotation": {"number": 64, "value": 48}, "group": "control_change"}, {"time": 3510, "annotation": {"number": 64, "value": 60}, "group": "control_change"}, {"time": 3510, "annotation": {"number": 64, "value": 80}, "group": "control_change"}, {"time": 3510, "annotation": {"number": 64, "value": 127}, "group": "control_change"}, {"time": 3531, "annotation": {"number": 64, "value": 80}, "group": "control_change"}, {"time": 3531, "annotation": {"number": 64, "value": 63}, "group": "control_change"}, {"time": 3531, "annotation": {"number": 64, "value": 48}, "group": "control_change"}, {"time": 3531, "annotation": {"number": 64, "value": 32}, "group": "control_change"}, {"time": 3532, "annotation": {"number": 64, "value": 16}, "group": "control_change"}, {"time": 3532, "annotation": {"number": 64, "value": 0}, "group": "control_change"}, {"time": 3540, "annotation": {"number": 64, "value": 16}, "group": "control_change"}, {"time": 3540, "annotation": {"number": 64, "value": 32}, "group": "control_change"}, {"time": 3540, "annotation": {"number": 64, "value": 48}, "group": "control_change"}, {"time": 3540, "annotation": {"number": 64, "value": 60}, "group": "control_change"}, {"time": 3540, "annotation": {"number": 64, "value": 80}, "group": "control_change"}, {"time": 3540, "annotation": {"number": 64, "value": 127}, "group": "control_change"}, {"time": 3558, "annotation": {"number": 64, "value": 64}, "group": "control_change"}, {"time": 3558, "annotation": {"number": 64, "value": 60}, "group": "control_change"}, {"time": 3558, "annotation": {"number": 64, "value": 48}, "group": "control_change"}, {"time": 3558, "annotation": {"number": 64, "value": 32}, "group": "control_change"}, {"time": 3559, "annotation": {"number": 64, "value": 16}, "group": "control_change"}, {"time": 3559, "annotation": {"number": 64, "value": 0}, "group": "control_change"}, {"time": 3563, "annotation": {"number": 64, "value": 16}, "group": "control_change"}, {"time": 3564, "annotation": {"number": 64, "value": 32}, "group": "control_change"}, {"time": 3564, "annotation": {"number": 64, "value": 56}, "group": "control_change"}, {"time": 3564, "annotation": {"number": 64, "value": 80}, "group": "control_change"}, {"time": 3564, "annotation": {"number": 64, "value": 127}, "group": "control_change"}, {"time": 3567, "annotation": {"number": 64, "value": 64}, "group": "control_change"}, {"time": 3567, "annotation": {"number": 64, "value": 56}, "group": "control_change"}, {"time": 3567, "annotation": {"number": 64, "value": 32}, "group": "control_change"}, {"time": 3567, "annotation": {"number": 64, "value": 16}, "group": "control_change"}, {"time": 3567, "annotation": {"number": 64, "value": 0}, "group": "control_change"}, {"time": 3571, "annotation": {"number": 64, "value": 16}, "group": "control_change"}, {"time": 3571, "annotation": {"number": 64, "value": 32}, "group": "control_change"}, {"time": 3571, "annotation": {"number": 64, "value": 56}, "group": "control_change"}, {"time": 3571, "annotation": {"number": 64, "value": 64}, "group": "control_change"}, {"time": 3571, "annotation": {"number": 64, "value": 127}, "group": "control_change"}, {"time": 3576, "annotation": {"number": 64, "value": 63}, "group": "control_change"}, {"time": 3576, "annotation": {"number": 64, "value": 48}, "group": "control_change"}, {"time": 3576, "annotation": {"number": 64, "value": 32}, "group": "control_change"}, {"time": 3577, "annotation": {"number": 64, "value": 16}, "group": "control_change"}, {"time": 3577, "annotation": {"number": 64, "value": 0}, "group": "control_change"}, {"time": 3582, "annotation": {"number": 64, "value": 16}, "group": "control_change"}, {"time": 3582, "annotation": {"number": 64, "value": 32}, "group": "control_change"}, {"time": 3582, "annotation": {"number": 64, "value": 48}, "group": "control_change"}, {"time": 3582, "annotation": {"number": 64, "value": 60}, "group": "control_change"}, {"time": 3582, "annotation": {"number": 64, "value": 80}, "group": "control_change"}, {"time": 3582, "annotation": {"number": 64, "value": 127}, "group": "control_change"}, {"time": 3607, "annotation": {"number": 64, "value": 64}, "group": "control_change"}, {"time": 3607, "annotation": {"number": 64, "value": 56}, "group": "control_change"}, {"time": 3607, "annotation": {"number": 64, "value": 32}, "group": "control_change"}, {"time": 3608, "annotation": {"number": 64, "value": 16}, "group": "control_change"}, {"time": 3608, "annotation": {"number": 64, "value": 0}, "group": "control_change"}, {"time": 3612, "annotation": {"number": 64, "value": 16}, "group": "control_change"}, {"time": 3612, "annotation": {"number": 64, "value": 32}, "group": "control_change"}, {"time": 3612, "annotation": {"number": 64, "value": 56}, "group": "control_change"}, {"time": 3612, "annotation": {"number": 64, "value": 64}, "group": "control_change"}, {"time": 3612, "annotation": {"number": 64, "value": 127}, "group": "control_change"}, {"time": 3630, "annotation": {"number": 64, "value": 64}, "group": "control_change"}, {"time": 3630, "annotation": {"number": 64, "value": 60}, "group": "control_change"}, {"time": 3630, "annotation": {"number": 64, "value": 48}, "group": "control_change"}, {"time": 3630, "annotation": {"number": 64, "value": 32}, "group": "control_change"}, {"time": 3630, "annotation": {"number": 64, "value": 16}, "group": "control_change"}, {"time": 3630, "annotation": {"number": 64, "value": 0}, "group": "control_change"}, {"time": 3633, "annotation": {"number": 64, "value": 16}, "group": "control_change"}, {"time": 3633, "annotation": {"number": 64, "value": 32}, "group": "control_change"}, {"time": 3633, "annotation": {"number": 64, "value": 48}, "group": "control_change"}, {"time": 3633, "annotation": {"number": 64, "value": 63}, "group": "control_change"}, {"time": 3633, "annotation": {"number": 64, "value": 80}, "group": "control_change"}, {"time": 3634, "annotation": {"number": 64, "value": 127}, "group": "control_change"}, {"time": 3654, "annotation": {"number": 64, "value": 0}, "group": "control_change"}, {"time": 3657, "annotation": {"number": 64, "value": 125}, "group": "control_change"}, {"time": 3702, "annotation": {"number": 64, "value": 0}, "group": "control_change"}, {"time": 3705, "annotation": {"number": 64, "value": 121}, "group": "control_change"}, {"time": 3721, "annotation": {"number": 64, "value": 96}, "group": "control_change"}, {"time": 3722, "annotation": {"number": 64, "value": 64}, "group": "control_change"}, {"time": 3722, "annotation": {"number": 64, "value": 63}, "group": "control_change"}, {"time": 3722, "annotation": {"number": 64, "value": 1}, "group": "control_change"}, {"time": 3722, "annotation": {"number": 64, "value": 2}, "group": "control_change"}, {"time": 3723, "annotation": {"number": 64, "value": 2}, "group": "control_change"}, {"time": 3724, "annotation": {"number": 64, "value": 2}, "group": "control_change"}, {"time": 3724, "annotation": {"number": 64, "value": 48}, "group": "control_change"}, {"time": 3724, "annotation": {"number": 64, "value": 60}, "group": "control_change"}, {"time": 3724, "annotation": {"number": 64, "value": 63}, "group": "control_change"}, {"time": 3725, "annotation": {"number": 64, "value": 80}, "group": "control_change"}, {"time": 3725, "annotation": {"number": 64, "value": 127}, "group": "control_change"}, {"time": 3748, "annotation": {"number": 64, "value": 80}, "group": "control_change"}, {"time": 3748, "annotation": {"number": 64, "value": 3}, "group": "control_change"}, {"time": 3748, "annotation": {"number": 64, "value": 0}, "group": "control_change"}, {"time": 3749, "annotation": {"number": 64, "value": 64}, "group": "control_change"}, {"time": 3749, "annotation": {"number": 64, "value": 127}, "group": "control_change"}, {"time": 3770, "annotation": {"number": 64, "value": 2}, "group": "control_change"}, {"time": 3770, "annotation": {"number": 64, "value": 63}, "group": "control_change"}, {"time": 3771, "annotation": {"number": 64, "value": 2}, "group": "control_change"}, {"time": 3772, "annotation": {"number": 64, "value": 2}, "group": "control_change"}, {"time": 3772, "annotation": {"number": 64, "value": 56}, "group": "control_change"}, {"time": 3772, "annotation": {"number": 64, "value": 63}, "group": "control_change"}, {"time": 3772, "annotation": {"number": 64, "value": 80}, "group": "control_change"}, {"time": 3773, "annotation": {"number": 64, "value": 127}, "group": "control_change"}, {"time": 3795, "annotation": {"number": 64, "value": 3}, "group": "control_change"}, {"time": 3796, "annotation": {"number": 64, "value": 4}, "group": "control_change"}, {"time": 3796, "annotation": {"number": 64, "value": 0}, "group": "control_change"}, {"time": 3798, "annotation": {"number": 64, "value": 0}, "group": "control_change"}, {"time": 3798, "annotation": {"number": 64, "value": 127}, "group": "control_change"}, {"time": 3818, "annotation": {"number": 64, "value": 2}, "group": "control_change"}, {"time": 3818, "annotation": {"number": 64, "value": 1}, "group": "control_change"}, {"time": 3818, "annotation": {"number": 64, "value": 0}, "group": "control_change"}, {"time": 3820, "annotation": {"number": 64, "value": 2}, "group": "control_change"}, {"time": 3820, "annotation": {"number": 64, "value": 3}, "group": "control_change"}, {"time": 3820, "annotation": {"number": 64, "value": 80}, "group": "control_change"}, {"time": 3820, "annotation": {"number": 64, "value": 127}, "group": "control_change"}, {"time": 3840, "annotation": {"number": 64, "value": 63}, "group": "control_change"}, {"time": 3841, "annotation": {"number": 64, "value": 48}, "group": "control_change"}, {"time": 3841, "annotation": {"number": 64, "value": 32}, "group": "control_change"}, {"time": 3841, "annotation": {"number": 64, "value": 16}, "group": "control_change"}, {"time": 3841, "annotation": {"number": 64, "value": 0}, "group": "control_change"}, {"time": 3877, "annotation": {"number": 64, "value": 16}, "group": "control_change"}, {"time": 3877, "annotation": {"number": 64, "value": 32}, "group": "control_change"}, {"time": 3877, "annotation": {"number": 64, "value": 48}, "group": "control_change"}, {"time": 3877, "annotation": {"number": 64, "value": 60}, "group": "control_change"}, {"time": 3877, "annotation": {"number": 64, "value": 64}, "group": "control_change"}, {"time": 3878, "annotation": {"number": 64, "value": 96}, "group": "control_change"}, {"time": 3878, "annotation": {"number": 64, "value": 127}, "group": "control_change"}, {"time": 3890, "annotation": {"number": 64, "value": 64}, "group": "control_change"}, {"time": 3890, "annotation": {"number": 64, "value": 60}, "group": "control_change"}, {"time": 3890, "annotation": {"number": 64, "value": 48}, "group": "control_change"}, {"time": 3890, "annotation": {"number": 64, "value": 32}, "group": "control_change"}, {"time": 3891, "annotation": {"number": 64, "value": 16}, "group": "control_change"}, {"time": 3891, "annotation": {"number": 64, "value": 0}, "group": "control_change"}, {"time": 3917, "annotation": {"number": 64, "value": 16}, "group": "control_change"}, {"time": 3918, "annotation": {"number": 64, "value": 32}, "group": "control_change"}, {"time": 3918, "annotation": {"number": 64, "value": 48}, "group": "control_change"}, {"time": 3918, "annotation": {"number": 64, "value": 60}, "group": "control_change"}, {"time": 3918, "annotation": {"number": 64, "value": 63}, "group": "control_change"}, {"time": 3918, "annotation": {"number": 64, "value": 64}, "group": "control_change"}, {"time": 3918, "annotation": {"number": 64, "value": 127}, "group": "control_change"}, {"time": 3935, "annotation": {"number": 64, "value": 96}, "group": "control_change"}, {"time": 3935, "annotation": {"number": 64, "value": 64}, "group": "control_change"}, {"time": 3935, "annotation": {"number": 64, "value": 63}, "group": "control_change"}, {"time": 3935, "annotation": {"number": 64, "value": 60}, "group": "control_change"}, {"time": 3935, "annotation": {"number": 64, "value": 56}, "group": "control_change"}, {"time": 3935, "annotation": {"number": 64, "value": 48}, "group": "control_change"}, {"time": 3935, "annotation": {"number": 64, "value": 32}, "group": "control_change"}, {"time": 3937, "annotation": {"number": 64, "value": 16}, "group": "control_change"}, {"time": 3938, "annotation": {"number": 64, "value": 0}, "group": "control_change"}, {"time": 3954, "annotation": {"number": 64, "value": 16}, "group": "control_change"}, {"time": 3955, "annotation": {"number": 64, "value": 32}, "group": "control_change"}, {"time": 3955, "annotation": {"number": 64, "value": 48}, "group": "control_change"}, {"time": 3955, "annotation": {"number": 64, "value": 60}, "group": "control_change"}, {"time": 3955, "annotation": {"number": 64, "value": 63}, "group": "control_change"}, {"time": 3955, "annotation": {"number": 64, "value": 64}, "group": "control_change"}, {"time": 3956, "annotation": {"number": 64, "value": 80}, "group": "control_change"}, {"time": 3956, "annotation": {"number": 64, "value": 127}, "group": "control_change"}, {"time": 3986, "annotation": {"number": 64, "value": 64}, "group": "control_change"}, {"time": 3986, "annotation": {"number": 64, "value": 56}, "group": "control_change"}, {"time": 3986, "annotation": {"number": 64, "value": 48}, "group": "control_change"}, {"time": 3986, "annotation": {"number": 64, "value": 32}, "group": "control_change"}, {"time": 3986, "annotation": {"number": 64, "value": 16}, "group": "control_change"}, {"time": 3986, "annotation": {"number": 64, "value": 0}, "group": "control_change"}, {"time": 3991, "annotation": {"number": 64, "value": 16}, "group": "control_change"}, {"time": 3991, "annotation": {"number": 64, "value": 32}, "group": "control_change"}, {"time": 3991, "annotation": {"number": 64, "value": 48}, "group": "control_change"}, {"time": 3991, "annotation": {"number": 64, "value": 56}, "group": "control_change"}, {"time": 3991, "annotation": {"number": 64, "value": 64}, "group": "control_change"}, {"time": 3991, "annotation": {"number": 64, "value": 127}, "group": "control_change"}, {"time": 4011, "annotation": {"number": 64, "value": 80}, "group": "control_change"}, {"time": 4011, "annotation": {"number": 64, "value": 64}, "group": "control_change"}, {"time": 4011, "annotation": {"number": 64, "value": 60}, "group": "control_change"}, {"time": 4011, "annotation": {"number": 64, "value": 48}, "group": "control_change"}, {"time": 4011, "annotation": {"number": 64, "value": 32}, "group": "control_change"}, {"time": 4012, "annotation": {"number": 64, "value": 16}, "group": "control_change"}, {"time": 4013, "annotation": {"number": 64, "value": 32}, "group": "control_change"}, {"time": 4014, "annotation": {"number": 64, "value": 48}, "group": "control_change"}, {"time": 4014, "annotation": {"number": 64, "value": 56}, "group": "control_change"}, {"time": 4014, "annotation": {"number": 64, "value": 63}, "group": "control_change"}, {"time": 4014, "annotation": {"number": 64, "value": 64}, "group": "control_change"}, {"time": 4014, "annotation": {"number": 64, "value": 80}, "group": "control_change"}, {"time": 4015, "annotation": {"number": 64, "value": 127}, "group": "control_change"}, {"time": 4020, "annotation": {"number": 64, "value": 96}, "group": "control_change"}, {"time": 4020, "annotation": {"number": 64, "value": 64}, "group": "control_change"}, {"time": 4020, "annotation": {"number": 64, "value": 63}, "group": "control_change"}, {"time": 4020, "annotation": {"number": 64, "value": 60}, "group": "control_change"}, {"time": 4020, "annotation": {"number": 64, "value": 48}, "group": "control_change"}, {"time": 4021, "annotation": {"number": 64, "value": 32}, "group": "control_change"}, {"time": 4022, "annotation": {"number": 64, "value": 48}, "group": "control_change"}, {"time": 4022, "annotation": {"number": 64, "value": 60}, "group": "control_change"}, {"time": 4022, "annotation": {"number": 64, "value": 63}, "group": "control_change"}, {"time": 4023, "annotation": {"number": 64, "value": 64}, "group": "control_change"}, {"time": 4023, "annotation": {"number": 64, "value": 80}, "group": "control_change"}, {"time": 4023, "annotation": {"number": 64, "value": 127}, "group": "control_change"}, {"time": 4035, "annotation": {"number": 64, "value": 64}, "group": "control_change"}, {"time": 4035, "annotation": {"number": 64, "value": 63}, "group": "control_change"}, {"time": 4035, "annotation": {"number": 64, "value": 56}, "group": "control_change"}, {"time": 4035, "annotation": {"number": 64, "value": 48}, "group": "control_change"}, {"time": 4035, "annotation": {"number": 64, "value": 32}, "group": "control_change"}, {"time": 4035, "annotation": {"number": 64, "value": 16}, "group": "control_change"}, {"time": 4036, "annotation": {"number": 64, "value": 0}, "group": "control_change"}, {"time": 4037, "annotation": {"number": 64, "value": 16}, "group": "control_change"}, {"time": 4038, "annotation": {"number": 64, "value": 32}, "group": "control_change"}, {"time": 4038, "annotation": {"number": 64, "value": 48}, "group": "control_change"}, {"time": 4038, "annotation": {"number": 64, "value": 63}, "group": "control_change"}, {"time": 4038, "annotation": {"number": 64, "value": 64}, "group": "control_change"}, {"time": 4038, "annotation": {"number": 64, "value": 127}, "group": "control_change"}, {"time": 4052, "annotation": {"number": 64, "value": 64}, "group": "control_change"}, {"time": 4052, "annotation": {"number": 64, "value": 63}, "group": "control_change"}, {"time": 4052, "annotation": {"number": 64, "value": 60}, "group": "control_change"}, {"time": 4052, "annotation": {"number": 64, "value": 48}, "group": "control_change"}, {"time": 4052, "annotation": {"number": 64, "value": 32}, "group": "control_change"}, {"time": 4053, "annotation": {"number": 64, "value": 16}, "group": "control_change"}, {"time": 4054, "annotation": {"number": 64, "value": 32}, "group": "control_change"}, {"time": 4055, "annotation": {"number": 64, "value": 48}, "group": "control_change"}, {"time": 4055, "annotation": {"number": 64, "value": 60}, "group": "control_change"}, {"time": 4055, "annotation": {"number": 64, "value": 63}, "group": "control_change"}, {"time": 4055, "annotation": {"number": 64, "value": 64}, "group": "control_change"}, {"time": 4055, "annotation": {"number": 64, "value": 96}, "group": "control_change"}, {"time": 4055, "annotation": {"number": 64, "value": 127}, "group": "control_change"}, {"time": 4083, "annotation": {"number": 64, "value": 80}, "group": "control_change"}, {"time": 4083, "annotation": {"number": 64, "value": 64}, "group": "control_change"}, {"time": 4083, "annotation": {"number": 64, "value": 60}, "group": "control_change"}, {"time": 4083, "annotation": {"number": 64, "value": 48}, "group": "control_change"}, {"time": 4083, "annotation": {"number": 64, "value": 32}, "group": "control_change"}, {"time": 4083, "annotation": {"number": 64, "value": 16}, "group": "control_change"}, {"time": 4084, "annotation": {"number": 64, "value": 0}, "group": "control_change"}, {"time": 4085, "annotation": {"number": 64, "value": 16}, "group": "control_change"}, {"time": 4086, "annotation": {"number": 64, "value": 32}, "group": "control_change"}, {"time": 4086, "annotation": {"number": 64, "value": 48}, "group": "control_change"}, {"time": 4086, "annotation": {"number": 64, "value": 60}, "group": "control_change"}, {"time": 4086, "annotation": {"number": 64, "value": 64}, "group": "control_change"}, {"time": 4086, "annotation": {"number": 64, "value": 80}, "group": "control_change"}, {"time": 4086, "annotation": {"number": 64, "value": 127}, "group": "control_change"}, {"time": 4107, "annotation": {"number": 64, "value": 80}, "group": "control_change"}, {"time": 4107, "annotation": {"number": 64, "value": 64}, "group": "control_change"}, {"time": 4108, "annotation": {"number": 64, "value": 80}, "group": "control_change"}, {"time": 4108, "annotation": {"number": 64, "value": 127}, "group": "control_change"}, {"time": 4131, "annotation": {"number": 64, "value": 96}, "group": "control_change"}, {"time": 4131, "annotation": {"number": 64, "value": 64}, "group": "control_change"}, {"time": 4132, "annotation": {"number": 64, "value": 80}, "group": "control_change"}, {"time": 4132, "annotation": {"number": 64, "value": 127}, "group": "control_change"}, {"time": 4153, "annotation": {"number": 64, "value": 96}, "group": "control_change"}, {"time": 4153, "annotation": {"number": 64, "value": 64}, "group": "control_change"}, {"time": 4153, "annotation": {"number": 64, "value": 63}, "group": "control_change"}, {"time": 4154, "annotation": {"number": 64, "value": 60}, "group": "control_change"}, {"time": 4154, "annotation": {"number": 64, "value": 48}, "group": "control_change"}, {"time": 4154, "annotation": {"number": 64, "value": 32}, "group": "control_change"}, {"time": 4154, "annotation": {"number": 64, "value": 16}, "group": "control_change"}, {"time": 4156, "annotation": {"number": 64, "value": 32}, "group": "control_change"}, {"time": 4156, "annotation": {"number": 64, "value": 48}, "group": "control_change"}, {"time": 4157, "annotation": {"number": 64, "value": 56}, "group": "control_change"}, {"time": 4157, "annotation": {"number": 64, "value": 63}, "group": "control_change"}, {"time": 4157, "annotation": {"number": 64, "value": 64}, "group": "control_change"}, {"time": 4157, "annotation": {"number": 64, "value": 127}, "group": "control_change"}, {"time": 4227, "annotation": {"number": 64, "value": 64}, "group": "control_change"}, {"time": 4228, "annotation": {"number": 64, "value": 63}, "group": "control_change"}, {"time": 4228, "annotation": {"number": 64, "value": 60}, "group": "control_change"}, {"time": 4228, "annotation": {"number": 64, "value": 56}, "group": "control_change"}, {"time": 4228, "annotation": {"number": 64, "value": 48}, "group": "control_change"}, {"time": 4228, "annotation": {"number": 64, "value": 32}, "group": "control_change"}, {"time": 4229, "annotation": {"number": 64, "value": 16}, "group": "control_change"}, {"time": 4229, "annotation": {"number": 64, "value": 0}, "group": "control_change"}, {"time": 4234, "annotation": {"number": 64, "value": 127}, "group": "control_change"}, {"time": 4275, "annotation": {"number": 64, "value": 0}, "group": "control_change"}, {"time": 4282, "annotation": {"number": 64, "value": 127}, "group": "control_change"}, {"time": 4324, "annotation": {"number": 64, "value": 0}, "group": "control_change"}, {"time": 4330, "annotation": {"number": 64, "value": 127}, "group": "control_change"}, {"time": 4349, "annotation": {"number": 64, "value": 0}, "group": "control_change"}, {"time": 4355, "annotation": {"number": 64, "value": 127}, "group": "control_change"}, {"time": 4374, "annotation": {"number": 64, "value": 0}, "group": "control_change"}, {"time": 4378, "annotation": {"number": 64, "value": 127}, "group": "control_change"}, {"time": 4422, "annotation": {"number": 64, "value": 0}, "group": "control_change"}, {"time": 4428, "annotation": {"number": 64, "value": 127}, "group": "control_change"}, {"time": 4432, "annotation": {"number": 64, "value": 0}, "group": "control_change"}]}]}