{"metadata": {"schema_version": "0.2", "title": "None", "source_filename": "181.mid", "source_format": "midi"}, "resolution": 12, "tempos": [{"time": 0, "qpm": 68.0000725334107}], "key_signatures": [{"time": 0, "root": 0, "mode": "major"}], "time_signatures": [{"time": 0, "numerator": 4, "denominator": 4}], "tracks": [{"program": 0, "is_drum": false, "name": "MELODY", "notes": [{"time": 249, "pitch": 72, "duration": 3, "velocity": 63}, {"time": 255, "pitch": 72, "duration": 6, "velocity": 70}, {"time": 261, "pitch": 72, "duration": 6, "velocity": 59}, {"time": 267, "pitch": 72, "duration": 6, "velocity": 60}, {"time": 273, "pitch": 76, "duration": 6, "velocity": 67}, {"time": 279, "pitch": 77, "duration": 6, "velocity": 75}, {"time": 285, "pitch": 72, "duration": 12, "velocity": 59}, {"time": 297, "pitch": 70, "duration": 39, "velocity": 60}, {"time": 333, "pitch": 67, "duration": 3, "velocity": 61}, {"time": 336, "pitch": 69, "duration": 3, "velocity": 67}, {"time": 339, "pitch": 70, "duration": 21, "velocity": 67}, {"time": 363, "pitch": 70, "duration": 6, "velocity": 66}, {"time": 369, "pitch": 72, "duration": 6, "velocity": 59}, {"time": 375, "pitch": 67, "duration": 6, "velocity": 56}, {"time": 381, "pitch": 70, "duration": 12, "velocity": 66}, {"time": 393, "pitch": 69, "duration": 48, "velocity": 64}, {"time": 441, "pitch": 69, "duration": 6, "velocity": 63}, {"time": 447, "pitch": 69, "duration": 6, "velocity": 72}, {"time": 453, "pitch": 74, "duration": 6, "velocity": 72}, {"time": 459, "pitch": 74, "duration": 6, "velocity": 70}, {"time": 465, "pitch": 76, "duration": 6, "velocity": 66}, {"time": 471, "pitch": 76, "duration": 6, "velocity": 64}, {"time": 477, "pitch": 77, "duration": 6, "velocity": 62}, {"time": 483, "pitch": 69, "duration": 12, "velocity": 68}, {"time": 495, "pitch": 67, "duration": 30, "velocity": 73}, {"time": 525, "pitch": 65, "duration": 6, "velocity": 53}, {"time": 531, "pitch": 69, "duration": 6, "velocity": 66}, {"time": 537, "pitch": 67, "duration": 6, "velocity": 61}, {"time": 543, "pitch": 67, "duration": 6, "velocity": 60}, {"time": 549, "pitch": 65, "duration": 6, "velocity": 59}, {"time": 555, "pitch": 67, "duration": 18, "velocity": 61}, {"time": 573, "pitch": 65, "duration": 6, "velocity": 58}, {"time": 579, "pitch": 69, "duration": 6, "velocity": 67}, {"time": 585, "pitch": 67, "duration": 6, "velocity": 56}, {"time": 591, "pitch": 67, "duration": 6, "velocity": 67}, {"time": 597, "pitch": 65, "duration": 6, "velocity": 63}, {"time": 603, "pitch": 72, "duration": 30, "velocity": 69}, {"time": 633, "pitch": 72, "duration": 6, "velocity": 63}, {"time": 639, "pitch": 72, "duration": 6, "velocity": 70}, {"time": 645, "pitch": 72, "duration": 6, "velocity": 59}, {"time": 651, "pitch": 72, "duration": 6, "velocity": 60}, {"time": 657, "pitch": 76, "duration": 6, "velocity": 67}, {"time": 663, "pitch": 77, "duration": 6, "velocity": 75}, {"time": 669, "pitch": 72, "duration": 12, "velocity": 59}, {"time": 681, "pitch": 70, "duration": 39, "velocity": 75}, {"time": 717, "pitch": 67, "duration": 3, "velocity": 61}, {"time": 720, "pitch": 69, "duration": 3, "velocity": 67}, {"time": 723, "pitch": 70, "duration": 21, "velocity": 67}, {"time": 747, "pitch": 70, "duration": 6, "velocity": 62}, {"time": 753, "pitch": 72, "duration": 6, "velocity": 59}, {"time": 759, "pitch": 67, "duration": 6, "velocity": 56}, {"time": 765, "pitch": 69, "duration": 60, "velocity": 62}, {"time": 825, "pitch": 69, "duration": 6, "velocity": 68}, {"time": 831, "pitch": 69, "duration": 6, "velocity": 72}, {"time": 837, "pitch": 74, "duration": 6, "velocity": 72}, {"time": 843, "pitch": 74, "duration": 6, "velocity": 70}, {"time": 849, "pitch": 76, "duration": 6, "velocity": 66}, {"time": 855, "pitch": 76, "duration": 6, "velocity": 64}, {"time": 861, "pitch": 77, "duration": 6, "velocity": 62}, {"time": 867, "pitch": 81, "duration": 12, "velocity": 68}, {"time": 879, "pitch": 79, "duration": 12, "velocity": 73}, {"time": 891, "pitch": 74, "duration": 18, "velocity": 73}, {"time": 909, "pitch": 77, "duration": 6, "velocity": 76}, {"time": 915, "pitch": 81, "duration": 12, "velocity": 67}, {"time": 927, "pitch": 79, "duration": 12, "velocity": 60}, {"time": 939, "pitch": 73, "duration": 18, "velocity": 72}, {"time": 957, "pitch": 77, "duration": 6, "velocity": 75}, {"time": 963, "pitch": 79, "duration": 48, "velocity": 67}, {"time": 1011, "pitch": 69, "duration": 6, "velocity": 57}, {"time": 1017, "pitch": 72, "duration": 6, "velocity": 66}, {"time": 1023, "pitch": 76, "duration": 6, "velocity": 78}, {"time": 1029, "pitch": 77, "duration": 6, "velocity": 74}, {"time": 1035, "pitch": 79, "duration": 18, "velocity": 55}, {"time": 1053, "pitch": 81, "duration": 6, "velocity": 64}, {"time": 1059, "pitch": 81, "duration": 18, "velocity": 75}, {"time": 1077, "pitch": 77, "duration": 6, "velocity": 73}, {"time": 1083, "pitch": 79, "duration": 18, "velocity": 73}, {"time": 1101, "pitch": 81, "duration": 6, "velocity": 75}, {"time": 1107, "pitch": 81, "duration": 18, "velocity": 78}, {"time": 1125, "pitch": 84, "duration": 6, "velocity": 67}, {"time": 1131, "pitch": 84, "duration": 6, "velocity": 72}, {"time": 1137, "pitch": 82, "duration": 6, "velocity": 65}, {"time": 1143, "pitch": 81, "duration": 6, "velocity": 71}, {"time": 1149, "pitch": 77, "duration": 6, "velocity": 69}, {"time": 1155, "pitch": 77, "duration": 6, "velocity": 76}, {"time": 1161, "pitch": 79, "duration": 6, "velocity": 73}, {"time": 1167, "pitch": 79, "duration": 3, "velocity": 76}, {"time": 1170, "pitch": 81, "duration": 3, "velocity": 76}, {"time": 1173, "pitch": 82, "duration": 6, "velocity": 76}, {"time": 1179, "pitch": 79, "duration": 13, "velocity": 76}, {"time": 1191, "pitch": 81, "duration": 6, "velocity": 76}, {"time": 1197, "pitch": 79, "duration": 6, "velocity": 76}, {"time": 1203, "pitch": 69, "duration": 6, "velocity": 57}, {"time": 1209, "pitch": 72, "duration": 6, "velocity": 66}, {"time": 1215, "pitch": 76, "duration": 6, "velocity": 78}, {"time": 1221, "pitch": 77, "duration": 6, "velocity": 77}, {"time": 1227, "pitch": 79, "duration": 18, "velocity": 55}, {"time": 1245, "pitch": 81, "duration": 6, "velocity": 64}, {"time": 1251, "pitch": 81, "duration": 18, "velocity": 75}, {"time": 1269, "pitch": 77, "duration": 6, "velocity": 73}, {"time": 1275, "pitch": 79, "duration": 18, "velocity": 73}, {"time": 1293, "pitch": 84, "duration": 6, "velocity": 75}, {"time": 1299, "pitch": 81, "duration": 18, "velocity": 78}, {"time": 1317, "pitch": 84, "duration": 6, "velocity": 67}, {"time": 1323, "pitch": 84, "duration": 6, "velocity": 72}, {"time": 1329, "pitch": 82, "duration": 6, "velocity": 65}, {"time": 1335, "pitch": 81, "duration": 6, "velocity": 71}, {"time": 1341, "pitch": 77, "duration": 6, "velocity": 69}, {"time": 1347, "pitch": 84, "duration": 6, "velocity": 76}, {"time": 1359, "pitch": 82, "duration": 7, "velocity": 64}, {"time": 1371, "pitch": 81, "duration": 6, "velocity": 82}, {"time": 1377, "pitch": 79, "duration": 5, "velocity": 73}, {"time": 1383, "pitch": 77, "duration": 6, "velocity": 72}, {"time": 1389, "pitch": 76, "duration": 7, "velocity": 73}, {"time": 1395, "pitch": 79, "duration": 13, "velocity": 76}, {"time": 1407, "pitch": 77, "duration": 8, "velocity": 73}, {"time": 1593, "pitch": 72, "duration": 6, "velocity": 63}, {"time": 1599, "pitch": 72, "duration": 6, "velocity": 70}, {"time": 1605, "pitch": 72, "duration": 6, "velocity": 59}, {"time": 1611, "pitch": 72, "duration": 6, "velocity": 60}, {"time": 1617, "pitch": 76, "duration": 6, "velocity": 67}, {"time": 1623, "pitch": 77, "duration": 6, "velocity": 75}, {"time": 1629, "pitch": 72, "duration": 12, "velocity": 59}, {"time": 1641, "pitch": 70, "duration": 39, "velocity": 68}, {"time": 1677, "pitch": 67, "duration": 3, "velocity": 61}, {"time": 1680, "pitch": 69, "duration": 3, "velocity": 67}, {"time": 1683, "pitch": 70, "duration": 21, "velocity": 67}, {"time": 1707, "pitch": 70, "duration": 6, "velocity": 62}, {"time": 1713, "pitch": 72, "duration": 6, "velocity": 59}, {"time": 1719, "pitch": 67, "duration": 6, "velocity": 56}, {"time": 1725, "pitch": 69, "duration": 60, "velocity": 62}, {"time": 1785, "pitch": 69, "duration": 6, "velocity": 68}, {"time": 1791, "pitch": 69, "duration": 6, "velocity": 72}, {"time": 1797, "pitch": 74, "duration": 6, "velocity": 72}, {"time": 1803, "pitch": 74, "duration": 6, "velocity": 70}, {"time": 1809, "pitch": 76, "duration": 6, "velocity": 66}, {"time": 1815, "pitch": 76, "duration": 6, "velocity": 64}, {"time": 1821, "pitch": 77, "duration": 6, "velocity": 62}, {"time": 1827, "pitch": 81, "duration": 12, "velocity": 68}, {"time": 1839, "pitch": 79, "duration": 12, "velocity": 73}, {"time": 1851, "pitch": 74, "duration": 18, "velocity": 73}, {"time": 1869, "pitch": 77, "duration": 6, "velocity": 76}, {"time": 1875, "pitch": 81, "duration": 12, "velocity": 67}, {"time": 1887, "pitch": 79, "duration": 12, "velocity": 60}, {"time": 1899, "pitch": 73, "duration": 18, "velocity": 72}, {"time": 1917, "pitch": 77, "duration": 6, "velocity": 75}, {"time": 1923, "pitch": 79, "duration": 48, "velocity": 67}, {"time": 1971, "pitch": 69, "duration": 6, "velocity": 57}, {"time": 1977, "pitch": 72, "duration": 6, "velocity": 66}, {"time": 1983, "pitch": 76, "duration": 6, "velocity": 78}, {"time": 1989, "pitch": 77, "duration": 6, "velocity": 74}, {"time": 1995, "pitch": 79, "duration": 18, "velocity": 55}, {"time": 2013, "pitch": 81, "duration": 6, "velocity": 64}, {"time": 2019, "pitch": 81, "duration": 18, "velocity": 75}, {"time": 2037, "pitch": 77, "duration": 6, "velocity": 73}, {"time": 2043, "pitch": 79, "duration": 18, "velocity": 73}, {"time": 2061, "pitch": 81, "duration": 6, "velocity": 75}, {"time": 2067, "pitch": 81, "duration": 18, "velocity": 78}, {"time": 2085, "pitch": 84, "duration": 6, "velocity": 67}, {"time": 2091, "pitch": 84, "duration": 6, "velocity": 72}, {"time": 2097, "pitch": 82, "duration": 6, "velocity": 65}, {"time": 2103, "pitch": 81, "duration": 6, "velocity": 71}, {"time": 2109, "pitch": 77, "duration": 6, "velocity": 69}, {"time": 2115, "pitch": 77, "duration": 6, "velocity": 76}, {"time": 2121, "pitch": 79, "duration": 6, "velocity": 73}, {"time": 2127, "pitch": 79, "duration": 3, "velocity": 76}, {"time": 2130, "pitch": 81, "duration": 3, "velocity": 76}, {"time": 2133, "pitch": 82, "duration": 6, "velocity": 76}, {"time": 2139, "pitch": 79, "duration": 24, "velocity": 76}, {"time": 2163, "pitch": 69, "duration": 6, "velocity": 57}, {"time": 2169, "pitch": 72, "duration": 6, "velocity": 66}, {"time": 2175, "pitch": 76, "duration": 6, "velocity": 78}, {"time": 2181, "pitch": 77, "duration": 6, "velocity": 77}, {"time": 2187, "pitch": 79, "duration": 18, "velocity": 55}, {"time": 2205, "pitch": 81, "duration": 6, "velocity": 64}, {"time": 2211, "pitch": 81, "duration": 18, "velocity": 75}, {"time": 2229, "pitch": 77, "duration": 6, "velocity": 73}, {"time": 2235, "pitch": 79, "duration": 18, "velocity": 73}, {"time": 2253, "pitch": 84, "duration": 6, "velocity": 75}, {"time": 2259, "pitch": 81, "duration": 18, "velocity": 78}, {"time": 2277, "pitch": 84, "duration": 6, "velocity": 67}, {"time": 2283, "pitch": 84, "duration": 6, "velocity": 72}, {"time": 2289, "pitch": 82, "duration": 6, "velocity": 65}, {"time": 2295, "pitch": 81, "duration": 6, "velocity": 71}, {"time": 2301, "pitch": 77, "duration": 6, "velocity": 69}, {"time": 2307, "pitch": 84, "duration": 6, "velocity": 76}, {"time": 2319, "pitch": 82, "duration": 7, "velocity": 64}, {"time": 2331, "pitch": 81, "duration": 6, "velocity": 82}, {"time": 2337, "pitch": 79, "duration": 5, "velocity": 73}, {"time": 2343, "pitch": 77, "duration": 6, "velocity": 72}, {"time": 2349, "pitch": 76, "duration": 7, "velocity": 73}, {"time": 2355, "pitch": 79, "duration": 13, "velocity": 76}, {"time": 2367, "pitch": 77, "duration": 8, "velocity": 73}, {"time": 2409, "pitch": 77, "duration": 2, "velocity": 56}, {"time": 2412, "pitch": 76, "duration": 3, "velocity": 59}, {"time": 2415, "pitch": 77, "duration": 4, "velocity": 62}, {"time": 2421, "pitch": 77, "duration": 3, "velocity": 50}, {"time": 2424, "pitch": 76, "duration": 3, "velocity": 44}, {"time": 2427, "pitch": 77, "duration": 3, "velocity": 59}, {"time": 2433, "pitch": 77, "duration": 3, "velocity": 55}, {"time": 2436, "pitch": 76, "duration": 4, "velocity": 58}, {"time": 2439, "pitch": 77, "duration": 4, "velocity": 61}, {"time": 2442, "pitch": 79, "duration": 3, "velocity": 57}, {"time": 2445, "pitch": 81, "duration": 6, "velocity": 61}, {"time": 2457, "pitch": 77, "duration": 3, "velocity": 59}, {"time": 2460, "pitch": 76, "duration": 3, "velocity": 59}, {"time": 2463, "pitch": 77, "duration": 3, "velocity": 63}, {"time": 2469, "pitch": 77, "duration": 3, "velocity": 57}, {"time": 2472, "pitch": 76, "duration": 4, "velocity": 57}, {"time": 2475, "pitch": 77, "duration": 4, "velocity": 67}, {"time": 2478, "pitch": 77, "duration": 1, "velocity": 43}, {"time": 2481, "pitch": 77, "duration": 2, "velocity": 64}, {"time": 2484, "pitch": 76, "duration": 4, "velocity": 60}, {"time": 2487, "pitch": 77, "duration": 3, "velocity": 62}, {"time": 2490, "pitch": 79, "duration": 3, "velocity": 61}, {"time": 2493, "pitch": 81, "duration": 6, "velocity": 76}, {"time": 2505, "pitch": 77, "duration": 3, "velocity": 53}, {"time": 2508, "pitch": 76, "duration": 3, "velocity": 54}, {"time": 2511, "pitch": 77, "duration": 4, "velocity": 67}, {"time": 2517, "pitch": 77, "duration": 2, "velocity": 53}, {"time": 2520, "pitch": 76, "duration": 2, "velocity": 49}, {"time": 2523, "pitch": 77, "duration": 3, "velocity": 61}, {"time": 2529, "pitch": 76, "duration": 5, "velocity": 60}, {"time": 2535, "pitch": 74, "duration": 6, "velocity": 64}, {"time": 2541, "pitch": 76, "duration": 5, "velocity": 61}, {"time": 2547, "pitch": 74, "duration": 10, "velocity": 63}, {"time": 2556, "pitch": 72, "duration": 4, "velocity": 57}, {"time": 2601, "pitch": 77, "duration": 3, "velocity": 59}, {"time": 2604, "pitch": 76, "duration": 3, "velocity": 47}, {"time": 2607, "pitch": 77, "duration": 4, "velocity": 62}, {"time": 2613, "pitch": 77, "duration": 3, "velocity": 53}, {"time": 2616, "pitch": 76, "duration": 3, "velocity": 49}, {"time": 2619, "pitch": 77, "duration": 4, "velocity": 61}, {"time": 2625, "pitch": 77, "duration": 3, "velocity": 48}, {"time": 2628, "pitch": 76, "duration": 3, "velocity": 48}, {"time": 2631, "pitch": 77, "duration": 3, "velocity": 55}, {"time": 2634, "pitch": 79, "duration": 3, "velocity": 46}, {"time": 2637, "pitch": 81, "duration": 8, "velocity": 63}, {"time": 2649, "pitch": 77, "duration": 2, "velocity": 58}, {"time": 2652, "pitch": 76, "duration": 3, "velocity": 63}, {"time": 2655, "pitch": 77, "duration": 4, "velocity": 70}, {"time": 2661, "pitch": 77, "duration": 1, "velocity": 58}, {"time": 2664, "pitch": 77, "duration": 2, "velocity": 64}, {"time": 2667, "pitch": 84, "duration": 6, "velocity": 58}, {"time": 2673, "pitch": 84, "duration": 1, "velocity": 69}, {"time": 2676, "pitch": 84, "duration": 1, "velocity": 72}, {"time": 2679, "pitch": 84, "duration": 3, "velocity": 64}, {"time": 2682, "pitch": 77, "duration": 4, "velocity": 57}, {"time": 2685, "pitch": 77, "duration": 1, "velocity": 67}, {"time": 2691, "pitch": 74, "duration": 6, "velocity": 69}, {"time": 2697, "pitch": 76, "duration": 7, "velocity": 69}, {"time": 2703, "pitch": 77, "duration": 6, "velocity": 66}, {"time": 2709, "pitch": 79, "duration": 7, "velocity": 61}, {"time": 2715, "pitch": 81, "duration": 9, "velocity": 67}, {"time": 2727, "pitch": 82, "duration": 7, "velocity": 56}, {"time": 2736, "pitch": 79, "duration": 24, "velocity": 67}, {"time": 2757, "pitch": 77, "duration": 3, "velocity": 55}, {"time": 2760, "pitch": 79, "duration": 1, "velocity": 64}, {"time": 2763, "pitch": 80, "duration": 16, "velocity": 69}, {"time": 2787, "pitch": 70, "duration": 6, "velocity": 57}, {"time": 2793, "pitch": 73, "duration": 6, "velocity": 66}, {"time": 2799, "pitch": 77, "duration": 6, "velocity": 78}, {"time": 2805, "pitch": 78, "duration": 6, "velocity": 74}, {"time": 2811, "pitch": 80, "duration": 18, "velocity": 55}, {"time": 2829, "pitch": 82, "duration": 6, "velocity": 64}, {"time": 2835, "pitch": 82, "duration": 18, "velocity": 75}, {"time": 2853, "pitch": 78, "duration": 6, "velocity": 73}, {"time": 2859, "pitch": 80, "duration": 18, "velocity": 73}, {"time": 2877, "pitch": 82, "duration": 6, "velocity": 75}, {"time": 2883, "pitch": 82, "duration": 18, "velocity": 78}, {"time": 2901, "pitch": 85, "duration": 6, "velocity": 67}, {"time": 2907, "pitch": 85, "duration": 6, "velocity": 72}, {"time": 2913, "pitch": 83, "duration": 6, "velocity": 65}, {"time": 2919, "pitch": 82, "duration": 6, "velocity": 71}, {"time": 2925, "pitch": 78, "duration": 6, "velocity": 69}, {"time": 2931, "pitch": 78, "duration": 6, "velocity": 76}, {"time": 2937, "pitch": 80, "duration": 6, "velocity": 73}, {"time": 2943, "pitch": 80, "duration": 3, "velocity": 76}, {"time": 2946, "pitch": 82, "duration": 3, "velocity": 76}, {"time": 2949, "pitch": 83, "duration": 6, "velocity": 76}, {"time": 2955, "pitch": 80, "duration": 24, "velocity": 76}, {"time": 2979, "pitch": 70, "duration": 6, "velocity": 57}, {"time": 2985, "pitch": 73, "duration": 6, "velocity": 66}, {"time": 2991, "pitch": 77, "duration": 6, "velocity": 78}, {"time": 2997, "pitch": 78, "duration": 6, "velocity": 77}, {"time": 3003, "pitch": 80, "duration": 18, "velocity": 55}, {"time": 3021, "pitch": 82, "duration": 6, "velocity": 64}, {"time": 3027, "pitch": 82, "duration": 18, "velocity": 75}, {"time": 3045, "pitch": 78, "duration": 6, "velocity": 73}, {"time": 3051, "pitch": 80, "duration": 18, "velocity": 73}, {"time": 3069, "pitch": 85, "duration": 6, "velocity": 75}, {"time": 3075, "pitch": 82, "duration": 18, "velocity": 78}, {"time": 3093, "pitch": 85, "duration": 6, "velocity": 67}, {"time": 3099, "pitch": 85, "duration": 6, "velocity": 72}, {"time": 3105, "pitch": 83, "duration": 6, "velocity": 65}, {"time": 3111, "pitch": 82, "duration": 6, "velocity": 71}, {"time": 3117, "pitch": 78, "duration": 6, "velocity": 69}, {"time": 3123, "pitch": 85, "duration": 6, "velocity": 76}, {"time": 3135, "pitch": 83, "duration": 7, "velocity": 64}, {"time": 3147, "pitch": 82, "duration": 6, "velocity": 82}, {"time": 3153, "pitch": 80, "duration": 5, "velocity": 73}, {"time": 3159, "pitch": 78, "duration": 6, "velocity": 72}, {"time": 3219, "pitch": 77, "duration": 7, "velocity": 73}, {"time": 3231, "pitch": 78, "duration": 8, "velocity": 73}], "annotations": [{"time": 250, "annotation": {"number": 64, "value": 127}, "group": "control_change"}, {"time": 287, "annotation": {"number": 64, "value": 0}, "group": "control_change"}, {"time": 291, "annotation": {"number": 64, "value": 127}, "group": "control_change"}, {"time": 325, "annotation": {"number": 64, "value": 0}, "group": "control_change"}, {"time": 339, "annotation": {"number": 64, "value": 127}, "group": "control_change"}, {"time": 363, "annotation": {"number": 64, "value": 0}, "group": "control_change"}, {"time": 366, "annotation": {"number": 64, "value": 127}, "group": "control_change"}, {"time": 387, "annotation": {"number": 64, "value": 0}, "group": "control_change"}, {"time": 391, "annotation": {"number": 64, "value": 127}, "group": "control_change"}, {"time": 424, "annotation": {"number": 64, "value": 0}, "group": "control_change"}, {"time": 427, "annotation": {"number": 64, "value": 127}, "group": "control_change"}, {"time": 435, "annotation": {"number": 64, "value": 0}, "group": "control_change"}, {"time": 438, "annotation": {"number": 64, "value": 127}, "group": "control_change"}, {"time": 460, "annotation": {"number": 64, "value": 0}, "group": "control_change"}, {"time": 463, "annotation": {"number": 64, "value": 127}, "group": "control_change"}, {"time": 485, "annotation": {"number": 64, "value": 0}, "group": "control_change"}, {"time": 488, "annotation": {"number": 64, "value": 127}, "group": "control_change"}, {"time": 532, "annotation": {"number": 64, "value": 0}, "group": "control_change"}, {"time": 536, "annotation": {"number": 64, "value": 127}, "group": "control_change"}, {"time": 580, "annotation": {"number": 64, "value": 0}, "group": "control_change"}, {"time": 583, "annotation": {"number": 64, "value": 127}, "group": "control_change"}, {"time": 606, "annotation": {"number": 64, "value": 0}, "group": "control_change"}, {"time": 609, "annotation": {"number": 64, "value": 127}, "group": "control_change"}, {"time": 630, "annotation": {"number": 64, "value": 0}, "group": "control_change"}, {"time": 633, "annotation": {"number": 64, "value": 127}, "group": "control_change"}, {"time": 676, "annotation": {"number": 64, "value": 0}, "group": "control_change"}, {"time": 680, "annotation": {"number": 64, "value": 127}, "group": "control_change"}, {"time": 724, "annotation": {"number": 64, "value": 0}, "group": "control_change"}, {"time": 729, "annotation": {"number": 64, "value": 127}, "group": "control_change"}, {"time": 772, "annotation": {"number": 64, "value": 0}, "group": "control_change"}, {"time": 775, "annotation": {"number": 64, "value": 127}, "group": "control_change"}, {"time": 820, "annotation": {"number": 64, "value": 0}, "group": "control_change"}, {"time": 825, "annotation": {"number": 64, "value": 127}, "group": "control_change"}, {"time": 844, "annotation": {"number": 64, "value": 0}, "group": "control_change"}, {"time": 849, "annotation": {"number": 64, "value": 127}, "group": "control_change"}, {"time": 867, "annotation": {"number": 64, "value": 0}, "group": "control_change"}, {"time": 872, "annotation": {"number": 64, "value": 127}, "group": "control_change"}, {"time": 915, "annotation": {"number": 64, "value": 0}, "group": "control_change"}, {"time": 920, "annotation": {"number": 64, "value": 127}, "group": "control_change"}, {"time": 940, "annotation": {"number": 64, "value": 0}, "group": "control_change"}, {"time": 945, "annotation": {"number": 64, "value": 127}, "group": "control_change"}, {"time": 964, "annotation": {"number": 64, "value": 0}, "group": "control_change"}, {"time": 969, "annotation": {"number": 64, "value": 127}, "group": "control_change"}, {"time": 1443, "annotation": {"number": 64, "value": 0}, "group": "control_change"}, {"time": 1593, "annotation": {"number": 64, "value": 127}, "group": "control_change"}, {"time": 1636, "annotation": {"number": 64, "value": 0}, "group": "control_change"}, {"time": 1640, "annotation": {"number": 64, "value": 127}, "group": "control_change"}, {"time": 1684, "annotation": {"number": 64, "value": 0}, "group": "control_change"}, {"time": 1689, "annotation": {"number": 64, "value": 127}, "group": "control_change"}, {"time": 1732, "annotation": {"number": 64, "value": 0}, "group": "control_change"}, {"time": 1735, "annotation": {"number": 64, "value": 127}, "group": "control_change"}, {"time": 1780, "annotation": {"number": 64, "value": 0}, "group": "control_change"}, {"time": 1785, "annotation": {"number": 64, "value": 127}, "group": "control_change"}, {"time": 1804, "annotation": {"number": 64, "value": 0}, "group": "control_change"}, {"time": 1809, "annotation": {"number": 64, "value": 127}, "group": "control_change"}, {"time": 1827, "annotation": {"number": 64, "value": 0}, "group": "control_change"}, {"time": 1832, "annotation": {"number": 64, "value": 127}, "group": "control_change"}, {"time": 1875, "annotation": {"number": 64, "value": 0}, "group": "control_change"}, {"time": 1880, "annotation": {"number": 64, "value": 127}, "group": "control_change"}, {"time": 1900, "annotation": {"number": 64, "value": 0}, "group": "control_change"}, {"time": 1905, "annotation": {"number": 64, "value": 127}, "group": "control_change"}, {"time": 1924, "annotation": {"number": 64, "value": 0}, "group": "control_change"}, {"time": 1929, "annotation": {"number": 64, "value": 127}, "group": "control_change"}, {"time": 1971, "annotation": {"number": 64, "value": 0}, "group": "control_change"}, {"time": 1971, "annotation": {"number": 64, "value": 127}, "group": "control_change"}, {"time": 2403, "annotation": {"number": 64, "value": 0}, "group": "control_change"}, {"time": 2515, "annotation": {"number": 64, "value": 127}, "group": "control_change"}, {"time": 2529, "annotation": {"number": 64, "value": 0}, "group": "control_change"}, {"time": 2530, "annotation": {"number": 64, "value": 127}, "group": "control_change"}, {"time": 2595, "annotation": {"number": 64, "value": 0}, "group": "control_change"}, {"time": 2598, "annotation": {"number": 64, "value": 127}, "group": "control_change"}, {"time": 2641, "annotation": {"number": 64, "value": 0}, "group": "control_change"}, {"time": 2643, "annotation": {"number": 64, "value": 127}, "group": "control_change"}, {"time": 2691, "annotation": {"number": 64, "value": 0}, "group": "control_change"}, {"time": 2692, "annotation": {"number": 64, "value": 127}, "group": "control_change"}, {"time": 2758, "annotation": {"number": 64, "value": 127}, "group": "control_change"}, {"time": 2767, "annotation": {"number": 64, "value": 0}, "group": "control_change"}, {"time": 2787, "annotation": {"number": 64, "value": 127}, "group": "control_change"}, {"time": 2788, "annotation": {"number": 64, "value": 0}, "group": "control_change"}]}, {"program": 0, "is_drum": false, "name": "BRIDGE", "notes": [{"time": 411, "pitch": 69, "duration": 6, "velocity": 39}, {"time": 417, "pitch": 72, "duration": 6, "velocity": 39}, {"time": 423, "pitch": 67, "duration": 8, "velocity": 31}, {"time": 429, "pitch": 60, "duration": 6, "velocity": 39}, {"time": 435, "pitch": 69, "duration": 6, "velocity": 39}, {"time": 795, "pitch": 69, "duration": 7, "velocity": 37}, {"time": 801, "pitch": 72, "duration": 5, "velocity": 47}, {"time": 807, "pitch": 79, "duration": 4, "velocity": 46}, {"time": 813, "pitch": 76, "duration": 5, "velocity": 36}, {"time": 819, "pitch": 77, "duration": 4, "velocity": 35}, {"time": 1755, "pitch": 72, "duration": 8, "velocity": 76}, {"time": 1761, "pitch": 77, "duration": 5, "velocity": 78}, {"time": 1767, "pitch": 77, "duration": 7, "velocity": 74}, {"time": 1773, "pitch": 76, "duration": 7, "velocity": 73}, {"time": 1779, "pitch": 77, "duration": 21, "velocity": 73}, {"time": 1900, "pitch": 77, "duration": 6, "velocity": 61}, {"time": 1905, "pitch": 75, "duration": 7, "velocity": 73}, {"time": 1911, "pitch": 73, "duration": 6, "velocity": 88}, {"time": 1917, "pitch": 70, "duration": 7, "velocity": 67}, {"time": 1923, "pitch": 72, "duration": 17, "velocity": 73}, {"time": 2391, "pitch": 50, "duration": 3, "velocity": 70}, {"time": 2391, "pitch": 74, "duration": 2, "velocity": 63}, {"time": 2394, "pitch": 52, "duration": 4, "velocity": 63}, {"time": 2394, "pitch": 76, "duration": 3, "velocity": 66}, {"time": 2397, "pitch": 53, "duration": 4, "velocity": 44}, {"time": 2397, "pitch": 77, "duration": 4, "velocity": 60}, {"time": 2400, "pitch": 55, "duration": 3, "velocity": 64}, {"time": 2400, "pitch": 79, "duration": 3, "velocity": 69}, {"time": 2403, "pitch": 57, "duration": 10, "velocity": 80}, {"time": 2403, "pitch": 81, "duration": 11, "velocity": 70}, {"time": 2571, "pitch": 55, "duration": 6, "velocity": 64}, {"time": 2571, "pitch": 67, "duration": 5, "velocity": 88}, {"time": 2577, "pitch": 57, "duration": 7, "velocity": 66}, {"time": 2577, "pitch": 69, "duration": 5, "velocity": 69}, {"time": 2583, "pitch": 58, "duration": 6, "velocity": 78}, {"time": 2583, "pitch": 70, "duration": 5, "velocity": 97}, {"time": 2589, "pitch": 60, "duration": 6, "velocity": 75}, {"time": 2589, "pitch": 72, "duration": 6, "velocity": 93}, {"time": 2595, "pitch": 62, "duration": 10, "velocity": 69}, {"time": 2595, "pitch": 74, "duration": 10, "velocity": 85}, {"time": 2631, "pitch": 76, "duration": 5, "velocity": 78}, {"time": 2637, "pitch": 77, "duration": 6, "velocity": 72}, {"time": 2643, "pitch": 72, "duration": 11, "velocity": 78}], "annotations": [{"time": 411, "annotation": {"number": 64, "value": 127}, "group": "control_change"}, {"time": 445, "annotation": {"number": 64, "value": 0}, "group": "control_change"}, {"time": 792, "annotation": {"number": 64, "value": 127}, "group": "control_change"}, {"time": 838, "annotation": {"number": 64, "value": 0}, "group": "control_change"}]}, {"program": 0, "is_drum": false, "name": "PIANO", "notes": [{"time": 51, "pitch": 53, "duration": 12, "velocity": 58}, {"time": 51, "pitch": 69, "duration": 6, "velocity": 49}, {"time": 57, "pitch": 60, "duration": 6, "velocity": 41}, {"time": 57, "pitch": 72, "duration": 6, "velocity": 51}, {"time": 63, "pitch": 64, "duration": 7, "velocity": 44}, {"time": 63, "pitch": 76, "duration": 6, "velocity": 51}, {"time": 69, "pitch": 65, "duration": 21, "velocity": 40}, {"time": 69, "pitch": 77, "duration": 13, "velocity": 52}, {"time": 87, "pitch": 79, "duration": 2, "velocity": 62}, {"time": 90, "pitch": 77, "duration": 3, "velocity": 47}, {"time": 93, "pitch": 76, "duration": 2, "velocity": 53}, {"time": 96, "pitch": 72, "duration": 3, "velocity": 55}, {"time": 99, "pitch": 53, "duration": 9, "velocity": 60}, {"time": 99, "pitch": 70, "duration": 6, "velocity": 63}, {"time": 105, "pitch": 62, "duration": 5, "velocity": 53}, {"time": 105, "pitch": 72, "duration": 5, "velocity": 67}, {"time": 111, "pitch": 69, "duration": 9, "velocity": 49}, {"time": 111, "pitch": 74, "duration": 1, "velocity": 42}, {"time": 117, "pitch": 70, "duration": 18, "velocity": 40}, {"time": 117, "pitch": 81, "duration": 11, "velocity": 73}, {"time": 147, "pitch": 53, "duration": 12, "velocity": 69}, {"time": 147, "pitch": 69, "duration": 6, "velocity": 75}, {"time": 153, "pitch": 60, "duration": 6, "velocity": 59}, {"time": 153, "pitch": 72, "duration": 5, "velocity": 58}, {"time": 159, "pitch": 64, "duration": 7, "velocity": 41}, {"time": 159, "pitch": 76, "duration": 6, "velocity": 52}, {"time": 165, "pitch": 65, "duration": 17, "velocity": 52}, {"time": 165, "pitch": 77, "duration": 12, "velocity": 60}, {"time": 183, "pitch": 79, "duration": 3, "velocity": 67}, {"time": 186, "pitch": 77, "duration": 2, "velocity": 58}, {"time": 189, "pitch": 76, "duration": 3, "velocity": 49}, {"time": 192, "pitch": 72, "duration": 4, "velocity": 49}, {"time": 195, "pitch": 53, "duration": 11, "velocity": 69}, {"time": 195, "pitch": 70, "duration": 10, "velocity": 80}, {"time": 201, "pitch": 62, "duration": 6, "velocity": 44}, {"time": 201, "pitch": 72, "duration": 4, "velocity": 64}, {"time": 207, "pitch": 65, "duration": 7, "velocity": 48}, {"time": 207, "pitch": 77, "duration": 7, "velocity": 56}, {"time": 213, "pitch": 67, "duration": 12, "velocity": 59}, {"time": 213, "pitch": 79, "duration": 13, "velocity": 76}, {"time": 243, "pitch": 53, "duration": 40, "velocity": 45}, {"time": 243, "pitch": 60, "duration": 8, "velocity": 46}, {"time": 243, "pitch": 65, "duration": 7, "velocity": 50}, {"time": 243, "pitch": 67, "duration": 7, "velocity": 43}, {"time": 243, "pitch": 69, "duration": 8, "velocity": 46}, {"time": 243, "pitch": 72, "duration": 7, "velocity": 40}, {"time": 255, "pitch": 60, "duration": 6, "velocity": 33}, {"time": 255, "pitch": 65, "duration": 6, "velocity": 40}, {"time": 255, "pitch": 67, "duration": 6, "velocity": 37}, {"time": 255, "pitch": 69, "duration": 7, "velocity": 34}, {"time": 255, "pitch": 72, "duration": 6, "velocity": 35}, {"time": 267, "pitch": 60, "duration": 6, "velocity": 31}, {"time": 267, "pitch": 65, "duration": 6, "velocity": 36}, {"time": 267, "pitch": 69, "duration": 7, "velocity": 29}, {"time": 270, "pitch": 72, "duration": 4, "velocity": 19}, {"time": 279, "pitch": 60, "duration": 4, "velocity": 45}, {"time": 279, "pitch": 65, "duration": 4, "velocity": 50}, {"time": 279, "pitch": 69, "duration": 4, "velocity": 40}, {"time": 279, "pitch": 72, "duration": 4, "velocity": 43}, {"time": 291, "pitch": 53, "duration": 39, "velocity": 54}, {"time": 291, "pitch": 62, "duration": 6, "velocity": 47}, {"time": 291, "pitch": 65, "duration": 6, "velocity": 51}, {"time": 291, "pitch": 70, "duration": 7, "velocity": 52}, {"time": 303, "pitch": 62, "duration": 6, "velocity": 31}, {"time": 303, "pitch": 65, "duration": 6, "velocity": 34}, {"time": 303, "pitch": 70, "duration": 8, "velocity": 36}, {"time": 303, "pitch": 72, "duration": 4, "velocity": 22}, {"time": 315, "pitch": 62, "duration": 6, "velocity": 32}, {"time": 315, "pitch": 65, "duration": 6, "velocity": 39}, {"time": 315, "pitch": 70, "duration": 7, "velocity": 34}, {"time": 315, "pitch": 72, "duration": 5, "velocity": 36}, {"time": 327, "pitch": 62, "duration": 5, "velocity": 48}, {"time": 327, "pitch": 65, "duration": 5, "velocity": 59}, {"time": 327, "pitch": 70, "duration": 6, "velocity": 50}, {"time": 327, "pitch": 72, "duration": 4, "velocity": 23}, {"time": 333, "pitch": 53, "duration": 6, "velocity": 51}, {"time": 339, "pitch": 43, "duration": 16, "velocity": 44}, {"time": 339, "pitch": 55, "duration": 17, "velocity": 43}, {"time": 339, "pitch": 58, "duration": 8, "velocity": 61}, {"time": 339, "pitch": 62, "duration": 6, "velocity": 55}, {"time": 339, "pitch": 65, "duration": 7, "velocity": 49}, {"time": 351, "pitch": 58, "duration": 5, "velocity": 49}, {"time": 351, "pitch": 62, "duration": 4, "velocity": 55}, {"time": 351, "pitch": 65, "duration": 3, "velocity": 47}, {"time": 363, "pitch": 48, "duration": 17, "velocity": 58}, {"time": 363, "pitch": 55, "duration": 7, "velocity": 45}, {"time": 363, "pitch": 60, "duration": 6, "velocity": 57}, {"time": 363, "pitch": 64, "duration": 7, "velocity": 49}, {"time": 363, "pitch": 67, "duration": 7, "velocity": 46}, {"time": 375, "pitch": 55, "duration": 5, "velocity": 45}, {"time": 375, "pitch": 58, "duration": 5, "velocity": 59}, {"time": 375, "pitch": 64, "duration": 5, "velocity": 47}, {"time": 387, "pitch": 41, "duration": 39, "velocity": 46}, {"time": 387, "pitch": 53, "duration": 13, "velocity": 52}, {"time": 387, "pitch": 57, "duration": 7, "velocity": 49}, {"time": 387, "pitch": 60, "duration": 6, "velocity": 59}, {"time": 387, "pitch": 65, "duration": 6, "velocity": 57}, {"time": 399, "pitch": 57, "duration": 5, "velocity": 49}, {"time": 399, "pitch": 60, "duration": 5, "velocity": 61}, {"time": 399, "pitch": 65, "duration": 5, "velocity": 49}, {"time": 405, "pitch": 53, "duration": 9, "velocity": 30}, {"time": 411, "pitch": 57, "duration": 6, "velocity": 44}, {"time": 411, "pitch": 60, "duration": 6, "velocity": 59}, {"time": 411, "pitch": 65, "duration": 6, "velocity": 47}, {"time": 417, "pitch": 53, "duration": 9, "velocity": 33}, {"time": 423, "pitch": 57, "duration": 4, "velocity": 54}, {"time": 423, "pitch": 60, "duration": 4, "velocity": 67}, {"time": 423, "pitch": 65, "duration": 4, "velocity": 59}, {"time": 429, "pitch": 64, "duration": 6, "velocity": 52}, {"time": 435, "pitch": 38, "duration": 39, "velocity": 35}, {"time": 435, "pitch": 50, "duration": 40, "velocity": 45}, {"time": 435, "pitch": 57, "duration": 7, "velocity": 49}, {"time": 435, "pitch": 60, "duration": 7, "velocity": 67}, {"time": 435, "pitch": 65, "duration": 7, "velocity": 66}, {"time": 447, "pitch": 57, "duration": 6, "velocity": 42}, {"time": 447, "pitch": 60, "duration": 5, "velocity": 48}, {"time": 447, "pitch": 65, "duration": 7, "velocity": 45}, {"time": 459, "pitch": 57, "duration": 5, "velocity": 36}, {"time": 459, "pitch": 60, "duration": 5, "velocity": 45}, {"time": 459, "pitch": 65, "duration": 6, "velocity": 40}, {"time": 471, "pitch": 57, "duration": 5, "velocity": 61}, {"time": 471, "pitch": 60, "duration": 5, "velocity": 70}, {"time": 471, "pitch": 65, "duration": 5, "velocity": 61}, {"time": 483, "pitch": 47, "duration": 38, "velocity": 45}, {"time": 483, "pitch": 59, "duration": 37, "velocity": 46}, {"time": 483, "pitch": 62, "duration": 9, "velocity": 41}, {"time": 483, "pitch": 65, "duration": 7, "velocity": 51}, {"time": 483, "pitch": 69, "duration": 6, "velocity": 47}, {"time": 519, "pitch": 67, "duration": 6, "velocity": 59}, {"time": 525, "pitch": 62, "duration": 13, "velocity": 73}, {"time": 531, "pitch": 43, "duration": 40, "velocity": 52}, {"time": 531, "pitch": 58, "duration": 6, "velocity": 54}, {"time": 531, "pitch": 65, "duration": 6, "velocity": 44}, {"time": 543, "pitch": 58, "duration": 7, "velocity": 38}, {"time": 543, "pitch": 62, "duration": 6, "velocity": 44}, {"time": 543, "pitch": 65, "duration": 8, "velocity": 35}, {"time": 555, "pitch": 58, "duration": 7, "velocity": 46}, {"time": 555, "pitch": 62, "duration": 5, "velocity": 45}, {"time": 555, "pitch": 65, "duration": 6, "velocity": 36}, {"time": 567, "pitch": 58, "duration": 4, "velocity": 72}, {"time": 567, "pitch": 62, "duration": 4, "velocity": 69}, {"time": 567, "pitch": 65, "duration": 3, "velocity": 63}, {"time": 579, "pitch": 36, "duration": 18, "velocity": 48}, {"time": 579, "pitch": 48, "duration": 14, "velocity": 41}, {"time": 579, "pitch": 55, "duration": 7, "velocity": 48}, {"time": 579, "pitch": 60, "duration": 6, "velocity": 55}, {"time": 579, "pitch": 64, "duration": 6, "velocity": 54}, {"time": 591, "pitch": 55, "duration": 3, "velocity": 58}, {"time": 591, "pitch": 60, "duration": 4, "velocity": 64}, {"time": 591, "pitch": 64, "duration": 4, "velocity": 62}, {"time": 597, "pitch": 48, "duration": 1, "velocity": 42}, {"time": 603, "pitch": 36, "duration": 16, "velocity": 62}, {"time": 603, "pitch": 48, "duration": 17, "velocity": 48}, {"time": 603, "pitch": 58, "duration": 16, "velocity": 58}, {"time": 603, "pitch": 61, "duration": 16, "velocity": 72}, {"time": 603, "pitch": 65, "duration": 16, "velocity": 61}, {"time": 627, "pitch": 41, "duration": 42, "velocity": 48}, {"time": 627, "pitch": 53, "duration": 26, "velocity": 48}, {"time": 627, "pitch": 60, "duration": 6, "velocity": 55}, {"time": 627, "pitch": 65, "duration": 7, "velocity": 58}, {"time": 627, "pitch": 69, "duration": 6, "velocity": 54}, {"time": 639, "pitch": 60, "duration": 6, "velocity": 46}, {"time": 639, "pitch": 65, "duration": 6, "velocity": 47}, {"time": 639, "pitch": 67, "duration": 6, "velocity": 48}, {"time": 639, "pitch": 69, "duration": 6, "velocity": 46}, {"time": 651, "pitch": 60, "duration": 6, "velocity": 44}, {"time": 651, "pitch": 65, "duration": 6, "velocity": 45}, {"time": 651, "pitch": 67, "duration": 6, "velocity": 48}, {"time": 651, "pitch": 69, "duration": 6, "velocity": 47}, {"time": 657, "pitch": 53, "duration": 7, "velocity": 29}, {"time": 663, "pitch": 60, "duration": 5, "velocity": 58}, {"time": 663, "pitch": 65, "duration": 5, "velocity": 59}, {"time": 663, "pitch": 69, "duration": 5, "velocity": 59}, {"time": 669, "pitch": 53, "duration": 2, "velocity": 52}, {"time": 675, "pitch": 41, "duration": 41, "velocity": 43}, {"time": 675, "pitch": 53, "duration": 27, "velocity": 56}, {"time": 675, "pitch": 62, "duration": 8, "velocity": 56}, {"time": 675, "pitch": 65, "duration": 7, "velocity": 67}, {"time": 675, "pitch": 70, "duration": 8, "velocity": 64}, {"time": 687, "pitch": 62, "duration": 5, "velocity": 39}, {"time": 687, "pitch": 65, "duration": 5, "velocity": 43}, {"time": 687, "pitch": 70, "duration": 6, "velocity": 48}, {"time": 699, "pitch": 62, "duration": 6, "velocity": 35}, {"time": 699, "pitch": 65, "duration": 6, "velocity": 37}, {"time": 699, "pitch": 70, "duration": 7, "velocity": 43}, {"time": 705, "pitch": 53, "duration": 7, "velocity": 23}, {"time": 711, "pitch": 62, "duration": 3, "velocity": 62}, {"time": 711, "pitch": 67, "duration": 4, "velocity": 69}, {"time": 714, "pitch": 53, "duration": 3, "velocity": 45}, {"time": 723, "pitch": 48, "duration": 37, "velocity": 41}, {"time": 723, "pitch": 60, "duration": 8, "velocity": 57}, {"time": 723, "pitch": 65, "duration": 8, "velocity": 61}, {"time": 735, "pitch": 60, "duration": 4, "velocity": 48}, {"time": 735, "pitch": 65, "duration": 3, "velocity": 57}, {"time": 741, "pitch": 55, "duration": 8, "velocity": 44}, {"time": 747, "pitch": 60, "duration": 4, "velocity": 49}, {"time": 747, "pitch": 64, "duration": 4, "velocity": 63}, {"time": 753, "pitch": 62, "duration": 3, "velocity": 47}, {"time": 753, "pitch": 65, "duration": 5, "velocity": 54}, {"time": 759, "pitch": 64, "duration": 1, "velocity": 59}, {"time": 759, "pitch": 67, "duration": 1, "velocity": 60}, {"time": 771, "pitch": 41, "duration": 31, "velocity": 50}, {"time": 771, "pitch": 60, "duration": 5, "velocity": 46}, {"time": 771, "pitch": 65, "duration": 4, "velocity": 47}, {"time": 771, "pitch": 69, "duration": 4, "velocity": 46}, {"time": 777, "pitch": 48, "duration": 6, "velocity": 27}, {"time": 783, "pitch": 53, "duration": 6, "velocity": 36}, {"time": 783, "pitch": 57, "duration": 5, "velocity": 42}, {"time": 783, "pitch": 60, "duration": 5, "velocity": 50}, {"time": 783, "pitch": 65, "duration": 4, "velocity": 53}, {"time": 789, "pitch": 48, "duration": 7, "velocity": 33}, {"time": 795, "pitch": 57, "duration": 4, "velocity": 26}, {"time": 795, "pitch": 60, "duration": 4, "velocity": 39}, {"time": 795, "pitch": 65, "duration": 4, "velocity": 45}, {"time": 801, "pitch": 48, "duration": 6, "velocity": 36}, {"time": 807, "pitch": 40, "duration": 5, "velocity": 61}, {"time": 807, "pitch": 55, "duration": 5, "velocity": 67}, {"time": 807, "pitch": 64, "duration": 5, "velocity": 70}, {"time": 813, "pitch": 67, "duration": 2, "velocity": 63}, {"time": 819, "pitch": 50, "duration": 41, "velocity": 41}, {"time": 819, "pitch": 57, "duration": 7, "velocity": 44}, {"time": 819, "pitch": 60, "duration": 6, "velocity": 53}, {"time": 819, "pitch": 65, "duration": 6, "velocity": 67}, {"time": 825, "pitch": 53, "duration": 5, "velocity": 43}, {"time": 831, "pitch": 69, "duration": 1, "velocity": 67}, {"time": 837, "pitch": 77, "duration": 4, "velocity": 49}, {"time": 843, "pitch": 62, "duration": 7, "velocity": 38}, {"time": 843, "pitch": 67, "duration": 3, "velocity": 49}, {"time": 843, "pitch": 76, "duration": 3, "velocity": 53}, {"time": 855, "pitch": 62, "duration": 3, "velocity": 45}, {"time": 855, "pitch": 65, "duration": 3, "velocity": 62}, {"time": 855, "pitch": 69, "duration": 2, "velocity": 72}, {"time": 867, "pitch": 47, "duration": 42, "velocity": 51}, {"time": 867, "pitch": 62, "duration": 6, "velocity": 53}, {"time": 867, "pitch": 65, "duration": 7, "velocity": 60}, {"time": 867, "pitch": 69, "duration": 6, "velocity": 52}, {"time": 873, "pitch": 59, "duration": 34, "velocity": 33}, {"time": 879, "pitch": 71, "duration": 7, "velocity": 46}, {"time": 885, "pitch": 74, "duration": 6, "velocity": 49}, {"time": 891, "pitch": 83, "duration": 1, "velocity": 51}, {"time": 903, "pitch": 74, "duration": 1, "velocity": 54}, {"time": 903, "pitch": 81, "duration": 1, "velocity": 63}, {"time": 915, "pitch": 43, "duration": 24, "velocity": 46}, {"time": 915, "pitch": 55, "duration": 13, "velocity": 35}, {"time": 915, "pitch": 58, "duration": 7, "velocity": 61}, {"time": 915, "pitch": 62, "duration": 6, "velocity": 50}, {"time": 915, "pitch": 65, "duration": 7, "velocity": 40}, {"time": 927, "pitch": 58, "duration": 7, "velocity": 61}, {"time": 927, "pitch": 62, "duration": 7, "velocity": 64}, {"time": 927, "pitch": 65, "duration": 7, "velocity": 62}, {"time": 933, "pitch": 55, "duration": 8, "velocity": 44}, {"time": 939, "pitch": 46, "duration": 16, "velocity": 61}, {"time": 939, "pitch": 58, "duration": 9, "velocity": 56}, {"time": 939, "pitch": 61, "duration": 7, "velocity": 70}, {"time": 939, "pitch": 65, "duration": 7, "velocity": 59}, {"time": 951, "pitch": 58, "duration": 3, "velocity": 59}, {"time": 951, "pitch": 61, "duration": 3, "velocity": 70}, {"time": 951, "pitch": 65, "duration": 2, "velocity": 60}, {"time": 963, "pitch": 36, "duration": 18, "velocity": 61}, {"time": 963, "pitch": 55, "duration": 7, "velocity": 50}, {"time": 963, "pitch": 58, "duration": 6, "velocity": 66}, {"time": 963, "pitch": 64, "duration": 6, "velocity": 58}, {"time": 969, "pitch": 48, "duration": 7, "velocity": 40}, {"time": 975, "pitch": 55, "duration": 5, "velocity": 56}, {"time": 975, "pitch": 58, "duration": 5, "velocity": 62}, {"time": 975, "pitch": 65, "duration": 5, "velocity": 64}, {"time": 981, "pitch": 48, "duration": 2, "velocity": 48}, {"time": 987, "pitch": 36, "duration": 5, "velocity": 70}, {"time": 987, "pitch": 55, "duration": 3, "velocity": 48}, {"time": 987, "pitch": 60, "duration": 4, "velocity": 66}, {"time": 987, "pitch": 67, "duration": 4, "velocity": 60}, {"time": 993, "pitch": 38, "duration": 6, "velocity": 56}, {"time": 999, "pitch": 40, "duration": 4, "velocity": 63}, {"time": 999, "pitch": 69, "duration": 2, "velocity": 66}, {"time": 1005, "pitch": 70, "duration": 1, "velocity": 64}, {"time": 1011, "pitch": 41, "duration": 17, "velocity": 53}, {"time": 1011, "pitch": 53, "duration": 14, "velocity": 49}, {"time": 1011, "pitch": 57, "duration": 8, "velocity": 61}, {"time": 1011, "pitch": 60, "duration": 7, "velocity": 67}, {"time": 1011, "pitch": 65, "duration": 8, "velocity": 66}, {"time": 1023, "pitch": 57, "duration": 5, "velocity": 63}, {"time": 1023, "pitch": 60, "duration": 6, "velocity": 75}, {"time": 1023, "pitch": 65, "duration": 5, "velocity": 67}, {"time": 1029, "pitch": 53, "duration": 6, "velocity": 57}, {"time": 1035, "pitch": 45, "duration": 16, "velocity": 64}, {"time": 1035, "pitch": 57, "duration": 8, "velocity": 59}, {"time": 1035, "pitch": 61, "duration": 8, "velocity": 72}, {"time": 1035, "pitch": 67, "duration": 10, "velocity": 62}, {"time": 1047, "pitch": 57, "duration": 5, "velocity": 60}, {"time": 1047, "pitch": 61, "duration": 5, "velocity": 67}, {"time": 1047, "pitch": 64, "duration": 6, "velocity": 69}, {"time": 1047, "pitch": 67, "duration": 5, "velocity": 50}, {"time": 1059, "pitch": 50, "duration": 17, "velocity": 61}, {"time": 1059, "pitch": 60, "duration": 5, "velocity": 57}, {"time": 1059, "pitch": 65, "duration": 6, "velocity": 67}, {"time": 1059, "pitch": 69, "duration": 6, "velocity": 70}, {"time": 1065, "pitch": 57, "duration": 10, "velocity": 48}, {"time": 1065, "pitch": 67, "duration": 5, "velocity": 62}, {"time": 1071, "pitch": 62, "duration": 3, "velocity": 51}, {"time": 1071, "pitch": 65, "duration": 3, "velocity": 50}, {"time": 1071, "pitch": 69, "duration": 5, "velocity": 63}, {"time": 1077, "pitch": 72, "duration": 3, "velocity": 73}, {"time": 1083, "pitch": 48, "duration": 7, "velocity": 63}, {"time": 1083, "pitch": 63, "duration": 6, "velocity": 76}, {"time": 1083, "pitch": 67, "duration": 6, "velocity": 72}, {"time": 1089, "pitch": 60, "duration": 2, "velocity": 58}, {"time": 1095, "pitch": 41, "duration": 4, "velocity": 56}, {"time": 1095, "pitch": 53, "duration": 5, "velocity": 50}, {"time": 1095, "pitch": 60, "duration": 5, "velocity": 58}, {"time": 1095, "pitch": 63, "duration": 5, "velocity": 70}, {"time": 1095, "pitch": 69, "duration": 5, "velocity": 63}, {"time": 1107, "pitch": 46, "duration": 17, "velocity": 59}, {"time": 1107, "pitch": 62, "duration": 6, "velocity": 49}, {"time": 1107, "pitch": 65, "duration": 6, "velocity": 60}, {"time": 1107, "pitch": 70, "duration": 6, "velocity": 63}, {"time": 1113, "pitch": 53, "duration": 10, "velocity": 36}, {"time": 1119, "pitch": 58, "duration": 3, "velocity": 49}, {"time": 1119, "pitch": 77, "duration": 4, "velocity": 58}, {"time": 1122, "pitch": 76, "duration": 2, "velocity": 66}, {"time": 1125, "pitch": 72, "duration": 2, "velocity": 48}, {"time": 1128, "pitch": 67, "duration": 2, "velocity": 53}, {"time": 1131, "pitch": 46, "duration": 17, "velocity": 64}, {"time": 1131, "pitch": 58, "duration": 16, "velocity": 63}, {"time": 1131, "pitch": 61, "duration": 9, "velocity": 67}, {"time": 1131, "pitch": 65, "duration": 9, "velocity": 67}, {"time": 1143, "pitch": 61, "duration": 5, "velocity": 70}, {"time": 1143, "pitch": 65, "duration": 4, "velocity": 67}, {"time": 1155, "pitch": 43, "duration": 15, "velocity": 58}, {"time": 1155, "pitch": 55, "duration": 15, "velocity": 52}, {"time": 1155, "pitch": 58, "duration": 8, "velocity": 66}, {"time": 1155, "pitch": 62, "duration": 8, "velocity": 66}, {"time": 1155, "pitch": 65, "duration": 9, "velocity": 44}, {"time": 1167, "pitch": 58, "duration": 5, "velocity": 76}, {"time": 1167, "pitch": 62, "duration": 4, "velocity": 61}, {"time": 1167, "pitch": 65, "duration": 4, "velocity": 66}, {"time": 1173, "pitch": 43, "duration": 1, "velocity": 59}, {"time": 1179, "pitch": 36, "duration": 18, "velocity": 75}, {"time": 1179, "pitch": 48, "duration": 3, "velocity": 61}, {"time": 1179, "pitch": 55, "duration": 5, "velocity": 67}, {"time": 1179, "pitch": 58, "duration": 5, "velocity": 80}, {"time": 1179, "pitch": 64, "duration": 4, "velocity": 75}, {"time": 1185, "pitch": 48, "duration": 7, "velocity": 46}, {"time": 1191, "pitch": 55, "duration": 2, "velocity": 73}, {"time": 1191, "pitch": 58, "duration": 3, "velocity": 88}, {"time": 1191, "pitch": 65, "duration": 3, "velocity": 76}, {"time": 1197, "pitch": 48, "duration": 1, "velocity": 91}, {"time": 1203, "pitch": 41, "duration": 18, "velocity": 62}, {"time": 1203, "pitch": 53, "duration": 5, "velocity": 62}, {"time": 1203, "pitch": 57, "duration": 5, "velocity": 69}, {"time": 1203, "pitch": 60, "duration": 5, "velocity": 75}, {"time": 1203, "pitch": 65, "duration": 5, "velocity": 70}, {"time": 1212, "pitch": 53, "duration": 6, "velocity": 38}, {"time": 1215, "pitch": 60, "duration": 5, "velocity": 80}, {"time": 1215, "pitch": 65, "duration": 5, "velocity": 69}, {"time": 1215, "pitch": 67, "duration": 5, "velocity": 80}, {"time": 1221, "pitch": 53, "duration": 2, "velocity": 64}, {"time": 1227, "pitch": 45, "duration": 11, "velocity": 76}, {"time": 1227, "pitch": 57, "duration": 3, "velocity": 75}, {"time": 1227, "pitch": 61, "duration": 7, "velocity": 80}, {"time": 1227, "pitch": 64, "duration": 5, "velocity": 80}, {"time": 1227, "pitch": 67, "duration": 6, "velocity": 80}, {"time": 1233, "pitch": 57, "duration": 6, "velocity": 40}, {"time": 1239, "pitch": 49, "duration": 6, "velocity": 70}, {"time": 1239, "pitch": 61, "duration": 6, "velocity": 72}, {"time": 1239, "pitch": 64, "duration": 5, "velocity": 78}, {"time": 1239, "pitch": 72, "duration": 7, "velocity": 62}, {"time": 1251, "pitch": 50, "duration": 17, "velocity": 69}, {"time": 1251, "pitch": 57, "duration": 13, "velocity": 73}, {"time": 1251, "pitch": 60, "duration": 9, "velocity": 72}, {"time": 1251, "pitch": 65, "duration": 9, "velocity": 78}, {"time": 1251, "pitch": 69, "duration": 7, "velocity": 70}, {"time": 1263, "pitch": 60, "duration": 3, "velocity": 72}, {"time": 1263, "pitch": 65, "duration": 4, "velocity": 75}, {"time": 1263, "pitch": 69, "duration": 4, "velocity": 72}, {"time": 1266, "pitch": 57, "duration": 2, "velocity": 54}, {"time": 1269, "pitch": 67, "duration": 2, "velocity": 63}, {"time": 1272, "pitch": 69, "duration": 2, "velocity": 78}, {"time": 1275, "pitch": 36, "duration": 5, "velocity": 61}, {"time": 1275, "pitch": 48, "duration": 6, "velocity": 60}, {"time": 1275, "pitch": 60, "duration": 5, "velocity": 70}, {"time": 1275, "pitch": 63, "duration": 5, "velocity": 75}, {"time": 1275, "pitch": 67, "duration": 5, "velocity": 70}, {"time": 1275, "pitch": 70, "duration": 5, "velocity": 73}, {"time": 1287, "pitch": 41, "duration": 4, "velocity": 66}, {"time": 1287, "pitch": 53, "duration": 5, "velocity": 69}, {"time": 1287, "pitch": 60, "duration": 4, "velocity": 63}, {"time": 1287, "pitch": 63, "duration": 4, "velocity": 67}, {"time": 1287, "pitch": 65, "duration": 4, "velocity": 67}, {"time": 1287, "pitch": 69, "duration": 4, "velocity": 60}, {"time": 1296, "pitch": 62, "duration": 5, "velocity": 56}, {"time": 1299, "pitch": 46, "duration": 18, "velocity": 75}, {"time": 1299, "pitch": 65, "duration": 4, "velocity": 72}, {"time": 1299, "pitch": 70, "duration": 4, "velocity": 88}, {"time": 1305, "pitch": 53, "duration": 10, "velocity": 46}, {"time": 1311, "pitch": 58, "duration": 4, "velocity": 58}, {"time": 1311, "pitch": 70, "duration": 3, "velocity": 63}, {"time": 1311, "pitch": 77, "duration": 3, "velocity": 67}, {"time": 1317, "pitch": 76, "duration": 4, "velocity": 57}, {"time": 1323, "pitch": 46, "duration": 16, "velocity": 70}, {"time": 1323, "pitch": 58, "duration": 10, "velocity": 69}, {"time": 1323, "pitch": 61, "duration": 10, "velocity": 73}, {"time": 1323, "pitch": 70, "duration": 7, "velocity": 72}, {"time": 1329, "pitch": 67, "duration": 4, "velocity": 53}, {"time": 1332, "pitch": 53, "duration": 7, "velocity": 1}, {"time": 1335, "pitch": 58, "duration": 3, "velocity": 64}, {"time": 1335, "pitch": 61, "duration": 2, "velocity": 72}, {"time": 1335, "pitch": 65, "duration": 2, "velocity": 78}, {"time": 1347, "pitch": 43, "duration": 15, "velocity": 69}, {"time": 1347, "pitch": 58, "duration": 4, "velocity": 67}, {"time": 1347, "pitch": 62, "duration": 4, "velocity": 72}, {"time": 1347, "pitch": 65, "duration": 4, "velocity": 72}, {"time": 1353, "pitch": 55, "duration": 7, "velocity": 40}, {"time": 1359, "pitch": 57, "duration": 6, "velocity": 75}, {"time": 1359, "pitch": 58, "duration": 5, "velocity": 82}, {"time": 1359, "pitch": 62, "duration": 5, "velocity": 72}, {"time": 1359, "pitch": 65, "duration": 5, "velocity": 78}, {"time": 1365, "pitch": 43, "duration": 1, "velocity": 59}, {"time": 1368, "pitch": 60, "duration": 1, "velocity": 46}, {"time": 1371, "pitch": 36, "duration": 18, "velocity": 70}, {"time": 1371, "pitch": 48, "duration": 3, "velocity": 72}, {"time": 1371, "pitch": 55, "duration": 4, "velocity": 60}, {"time": 1371, "pitch": 58, "duration": 4, "velocity": 80}, {"time": 1371, "pitch": 64, "duration": 4, "velocity": 82}, {"time": 1380, "pitch": 48, "duration": 5, "velocity": 46}, {"time": 1383, "pitch": 55, "duration": 5, "velocity": 57}, {"time": 1383, "pitch": 58, "duration": 5, "velocity": 66}, {"time": 1383, "pitch": 64, "duration": 3, "velocity": 59}, {"time": 1383, "pitch": 65, "duration": 3, "velocity": 58}, {"time": 1389, "pitch": 48, "duration": 2, "velocity": 56}, {"time": 1395, "pitch": 41, "duration": 11, "velocity": 64}, {"time": 1395, "pitch": 60, "duration": 6, "velocity": 67}, {"time": 1395, "pitch": 65, "duration": 7, "velocity": 70}, {"time": 1395, "pitch": 69, "duration": 6, "velocity": 66}, {"time": 1401, "pitch": 48, "duration": 6, "velocity": 52}, {"time": 1407, "pitch": 53, "duration": 8, "velocity": 39}, {"time": 1407, "pitch": 62, "duration": 6, "velocity": 50}, {"time": 1407, "pitch": 70, "duration": 5, "velocity": 85}, {"time": 1413, "pitch": 55, "duration": 6, "velocity": 57}, {"time": 1413, "pitch": 72, "duration": 3, "velocity": 70}, {"time": 1419, "pitch": 60, "duration": 6, "velocity": 67}, {"time": 1419, "pitch": 69, "duration": 8, "velocity": 72}, {"time": 1422, "pitch": 55, "duration": 12, "velocity": 20}, {"time": 1434, "pitch": 72, "duration": 2, "velocity": 55}, {"time": 1437, "pitch": 77, "duration": 2, "velocity": 70}, {"time": 1440, "pitch": 79, "duration": 3, "velocity": 66}, {"time": 1443, "pitch": 53, "duration": 16, "velocity": 56}, {"time": 1443, "pitch": 72, "duration": 7, "velocity": 61}, {"time": 1443, "pitch": 81, "duration": 10, "velocity": 60}, {"time": 1449, "pitch": 60, "duration": 18, "velocity": 43}, {"time": 1455, "pitch": 65, "duration": 6, "velocity": 40}, {"time": 1455, "pitch": 77, "duration": 5, "velocity": 61}, {"time": 1461, "pitch": 81, "duration": 5, "velocity": 58}, {"time": 1467, "pitch": 55, "duration": 16, "velocity": 38}, {"time": 1467, "pitch": 74, "duration": 7, "velocity": 53}, {"time": 1467, "pitch": 82, "duration": 7, "velocity": 69}, {"time": 1473, "pitch": 62, "duration": 11, "velocity": 37}, {"time": 1473, "pitch": 81, "duration": 6, "velocity": 42}, {"time": 1479, "pitch": 67, "duration": 4, "velocity": 35}, {"time": 1479, "pitch": 77, "duration": 5, "velocity": 35}, {"time": 1485, "pitch": 72, "duration": 13, "velocity": 44}, {"time": 1491, "pitch": 57, "duration": 38, "velocity": 39}, {"time": 1491, "pitch": 84, "duration": 6, "velocity": 48}, {"time": 1497, "pitch": 64, "duration": 33, "velocity": 31}, {"time": 1503, "pitch": 69, "duration": 8, "velocity": 37}, {"time": 1503, "pitch": 77, "duration": 18, "velocity": 45}, {"time": 1530, "pitch": 72, "duration": 2, "velocity": 48}, {"time": 1533, "pitch": 77, "duration": 4, "velocity": 49}, {"time": 1536, "pitch": 84, "duration": 4, "velocity": 51}, {"time": 1539, "pitch": 46, "duration": 16, "velocity": 48}, {"time": 1539, "pitch": 82, "duration": 4, "velocity": 60}, {"time": 1545, "pitch": 53, "duration": 10, "velocity": 39}, {"time": 1545, "pitch": 81, "duration": 2, "velocity": 55}, {"time": 1551, "pitch": 58, "duration": 4, "velocity": 47}, {"time": 1551, "pitch": 77, "duration": 3, "velocity": 58}, {"time": 1557, "pitch": 72, "duration": 2, "velocity": 45}, {"time": 1563, "pitch": 46, "duration": 12, "velocity": 46}, {"time": 1563, "pitch": 58, "duration": 12, "velocity": 44}, {"time": 1563, "pitch": 70, "duration": 9, "velocity": 34}, {"time": 1563, "pitch": 73, "duration": 10, "velocity": 49}, {"time": 1581, "pitch": 77, "duration": 6, "velocity": 48}, {"time": 1587, "pitch": 41, "duration": 40, "velocity": 62}, {"time": 1587, "pitch": 53, "duration": 41, "velocity": 57}, {"time": 1587, "pitch": 57, "duration": 8, "velocity": 61}, {"time": 1587, "pitch": 60, "duration": 7, "velocity": 64}, {"time": 1587, "pitch": 65, "duration": 7, "velocity": 67}, {"time": 1599, "pitch": 57, "duration": 6, "velocity": 54}, {"time": 1599, "pitch": 60, "duration": 6, "velocity": 70}, {"time": 1599, "pitch": 65, "duration": 7, "velocity": 57}, {"time": 1611, "pitch": 57, "duration": 6, "velocity": 48}, {"time": 1611, "pitch": 60, "duration": 6, "velocity": 57}, {"time": 1611, "pitch": 65, "duration": 6, "velocity": 48}, {"time": 1623, "pitch": 57, "duration": 4, "velocity": 60}, {"time": 1623, "pitch": 60, "duration": 5, "velocity": 70}, {"time": 1623, "pitch": 65, "duration": 5, "velocity": 64}, {"time": 1635, "pitch": 58, "duration": 9, "velocity": 57}, {"time": 1635, "pitch": 62, "duration": 9, "velocity": 67}, {"time": 1635, "pitch": 65, "duration": 9, "velocity": 47}, {"time": 1641, "pitch": 41, "duration": 23, "velocity": 36}, {"time": 1641, "pitch": 53, "duration": 23, "velocity": 41}, {"time": 1647, "pitch": 58, "duration": 7, "velocity": 59}, {"time": 1647, "pitch": 62, "duration": 7, "velocity": 63}, {"time": 1647, "pitch": 65, "duration": 6, "velocity": 50}, {"time": 1659, "pitch": 58, "duration": 7, "velocity": 63}, {"time": 1659, "pitch": 62, "duration": 6, "velocity": 66}, {"time": 1659, "pitch": 65, "duration": 7, "velocity": 56}, {"time": 1665, "pitch": 48, "duration": 6, "velocity": 37}, {"time": 1671, "pitch": 41, "duration": 9, "velocity": 66}, {"time": 1671, "pitch": 53, "duration": 4, "velocity": 53}, {"time": 1671, "pitch": 58, "duration": 7, "velocity": 72}, {"time": 1671, "pitch": 62, "duration": 7, "velocity": 66}, {"time": 1671, "pitch": 65, "duration": 6, "velocity": 64}, {"time": 1677, "pitch": 53, "duration": 4, "velocity": 44}, {"time": 1683, "pitch": 43, "duration": 23, "velocity": 56}, {"time": 1683, "pitch": 55, "duration": 14, "velocity": 46}, {"time": 1683, "pitch": 58, "duration": 8, "velocity": 63}, {"time": 1683, "pitch": 62, "duration": 8, "velocity": 69}, {"time": 1683, "pitch": 65, "duration": 6, "velocity": 55}, {"time": 1695, "pitch": 58, "duration": 6, "velocity": 64}, {"time": 1695, "pitch": 62, "duration": 7, "velocity": 63}, {"time": 1695, "pitch": 65, "duration": 5, "velocity": 41}, {"time": 1701, "pitch": 55, "duration": 15, "velocity": 46}, {"time": 1707, "pitch": 48, "duration": 17, "velocity": 66}, {"time": 1707, "pitch": 60, "duration": 6, "velocity": 72}, {"time": 1707, "pitch": 64, "duration": 9, "velocity": 62}, {"time": 1707, "pitch": 67, "duration": 9, "velocity": 59}, {"time": 1719, "pitch": 55, "duration": 2, "velocity": 52}, {"time": 1719, "pitch": 60, "duration": 3, "velocity": 69}, {"time": 1719, "pitch": 64, "duration": 3, "velocity": 59}, {"time": 1719, "pitch": 67, "duration": 3, "velocity": 55}, {"time": 1725, "pitch": 60, "duration": 3, "velocity": 64}, {"time": 1728, "pitch": 60, "duration": 8, "velocity": 63}, {"time": 1728, "pitch": 65, "duration": 13, "velocity": 63}, {"time": 1731, "pitch": 41, "duration": 5, "velocity": 63}, {"time": 1731, "pitch": 69, "duration": 11, "velocity": 69}, {"time": 1737, "pitch": 53, "duration": 7, "velocity": 39}, {"time": 1743, "pitch": 55, "duration": 30, "velocity": 60}, {"time": 1749, "pitch": 60, "duration": 5, "velocity": 55}, {"time": 1755, "pitch": 72, "duration": 4, "velocity": 73}, {"time": 1761, "pitch": 60, "duration": 3, "velocity": 61}, {"time": 1761, "pitch": 70, "duration": 2, "velocity": 59}, {"time": 1767, "pitch": 60, "duration": 4, "velocity": 60}, {"time": 1767, "pitch": 69, "duration": 3, "velocity": 78}, {"time": 1773, "pitch": 65, "duration": 1, "velocity": 75}, {"time": 1779, "pitch": 50, "duration": 41, "velocity": 62}, {"time": 1779, "pitch": 60, "duration": 6, "velocity": 66}, {"time": 1779, "pitch": 65, "duration": 6, "velocity": 64}, {"time": 1779, "pitch": 69, "duration": 6, "velocity": 72}, {"time": 1785, "pitch": 57, "duration": 9, "velocity": 46}, {"time": 1791, "pitch": 60, "duration": 6, "velocity": 61}, {"time": 1791, "pitch": 65, "duration": 6, "velocity": 69}, {"time": 1791, "pitch": 69, "duration": 5, "velocity": 66}, {"time": 1797, "pitch": 57, "duration": 7, "velocity": 35}, {"time": 1803, "pitch": 60, "duration": 6, "velocity": 63}, {"time": 1803, "pitch": 65, "duration": 6, "velocity": 66}, {"time": 1803, "pitch": 69, "duration": 6, "velocity": 60}, {"time": 1809, "pitch": 57, "duration": 7, "velocity": 42}, {"time": 1815, "pitch": 60, "duration": 6, "velocity": 69}, {"time": 1815, "pitch": 65, "duration": 5, "velocity": 70}, {"time": 1815, "pitch": 69, "duration": 5, "velocity": 69}, {"time": 1821, "pitch": 57, "duration": 1, "velocity": 64}, {"time": 1827, "pitch": 47, "duration": 42, "velocity": 66}, {"time": 1827, "pitch": 59, "duration": 14, "velocity": 67}, {"time": 1827, "pitch": 62, "duration": 7, "velocity": 70}, {"time": 1827, "pitch": 65, "duration": 6, "velocity": 69}, {"time": 1827, "pitch": 69, "duration": 6, "velocity": 70}, {"time": 1839, "pitch": 62, "duration": 4, "velocity": 44}, {"time": 1839, "pitch": 65, "duration": 4, "velocity": 44}, {"time": 1839, "pitch": 69, "duration": 5, "velocity": 43}, {"time": 1845, "pitch": 59, "duration": 10, "velocity": 40}, {"time": 1851, "pitch": 71, "duration": 4, "velocity": 63}, {"time": 1851, "pitch": 74, "duration": 3, "velocity": 66}, {"time": 1851, "pitch": 77, "duration": 3, "velocity": 66}, {"time": 1860, "pitch": 59, "duration": 7, "velocity": 23}, {"time": 1863, "pitch": 62, "duration": 3, "velocity": 72}, {"time": 1863, "pitch": 65, "duration": 3, "velocity": 85}, {"time": 1866, "pitch": 53, "duration": 2, "velocity": 47}, {"time": 1869, "pitch": 64, "duration": 2, "velocity": 78}, {"time": 1875, "pitch": 46, "duration": 6, "velocity": 51}, {"time": 1875, "pitch": 58, "duration": 9, "velocity": 85}, {"time": 1875, "pitch": 62, "duration": 8, "velocity": 75}, {"time": 1875, "pitch": 65, "duration": 7, "velocity": 73}, {"time": 1887, "pitch": 58, "duration": 7, "velocity": 76}, {"time": 1887, "pitch": 61, "duration": 7, "velocity": 66}, {"time": 1887, "pitch": 65, "duration": 7, "velocity": 64}, {"time": 1899, "pitch": 58, "duration": 9, "velocity": 80}, {"time": 1899, "pitch": 61, "duration": 9, "velocity": 59}, {"time": 1899, "pitch": 65, "duration": 6, "velocity": 72}, {"time": 1908, "pitch": 46, "duration": 5, "velocity": 39}, {"time": 1911, "pitch": 58, "duration": 6, "velocity": 85}, {"time": 1911, "pitch": 61, "duration": 5, "velocity": 88}, {"time": 1911, "pitch": 65, "duration": 4, "velocity": 75}, {"time": 1917, "pitch": 46, "duration": 1, "velocity": 73}, {"time": 1923, "pitch": 36, "duration": 18, "velocity": 66}, {"time": 1923, "pitch": 48, "duration": 3, "velocity": 67}, {"time": 1923, "pitch": 55, "duration": 6, "velocity": 69}, {"time": 1923, "pitch": 60, "duration": 7, "velocity": 75}, {"time": 1923, "pitch": 64, "duration": 7, "velocity": 75}, {"time": 1929, "pitch": 48, "duration": 7, "velocity": 47}, {"time": 1935, "pitch": 55, "duration": 6, "velocity": 85}, {"time": 1935, "pitch": 60, "duration": 6, "velocity": 80}, {"time": 1935, "pitch": 62, "duration": 6, "velocity": 82}, {"time": 1941, "pitch": 48, "duration": 1, "velocity": 66}, {"time": 1944, "pitch": 55, "duration": 2, "velocity": 56}, {"time": 1947, "pitch": 36, "duration": 19, "velocity": 70}, {"time": 1947, "pitch": 48, "duration": 2, "velocity": 78}, {"time": 1947, "pitch": 55, "duration": 4, "velocity": 76}, {"time": 1947, "pitch": 60, "duration": 4, "velocity": 76}, {"time": 1947, "pitch": 64, "duration": 5, "velocity": 80}, {"time": 1953, "pitch": 48, "duration": 2, "velocity": 51}, {"time": 1953, "pitch": 57, "duration": 2, "velocity": 59}, {"time": 1953, "pitch": 60, "duration": 2, "velocity": 69}, {"time": 1953, "pitch": 65, "duration": 2, "velocity": 78}, {"time": 1959, "pitch": 48, "duration": 3, "velocity": 63}, {"time": 1959, "pitch": 60, "duration": 1, "velocity": 85}, {"time": 1959, "pitch": 67, "duration": 2, "velocity": 76}, {"time": 1965, "pitch": 48, "duration": 1, "velocity": 67}, {"time": 1965, "pitch": 62, "duration": 1, "velocity": 61}, {"time": 1965, "pitch": 70, "duration": 1, "velocity": 99}, {"time": 1971, "pitch": 41, "duration": 18, "velocity": 69}, {"time": 1971, "pitch": 53, "duration": 14, "velocity": 75}, {"time": 1971, "pitch": 57, "duration": 9, "velocity": 75}, {"time": 1971, "pitch": 60, "duration": 8, "velocity": 82}, {"time": 1971, "pitch": 65, "duration": 9, "velocity": 75}, {"time": 1983, "pitch": 57, "duration": 6, "velocity": 80}, {"time": 1983, "pitch": 60, "duration": 6, "velocity": 88}, {"time": 1983, "pitch": 65, "duration": 5, "velocity": 82}, {"time": 1989, "pitch": 53, "duration": 2, "velocity": 70}, {"time": 1995, "pitch": 45, "duration": 15, "velocity": 69}, {"time": 1995, "pitch": 52, "duration": 13, "velocity": 59}, {"time": 1995, "pitch": 57, "duration": 7, "velocity": 78}, {"time": 1995, "pitch": 61, "duration": 7, "velocity": 82}, {"time": 1995, "pitch": 64, "duration": 9, "velocity": 80}, {"time": 1995, "pitch": 67, "duration": 10, "velocity": 69}, {"time": 2007, "pitch": 57, "duration": 6, "velocity": 76}, {"time": 2007, "pitch": 61, "duration": 5, "velocity": 82}, {"time": 2007, "pitch": 64, "duration": 5, "velocity": 76}, {"time": 2007, "pitch": 67, "duration": 5, "velocity": 75}, {"time": 2013, "pitch": 45, "duration": 1, "velocity": 60}, {"time": 2013, "pitch": 52, "duration": 1, "velocity": 64}, {"time": 2016, "pitch": 62, "duration": 3, "velocity": 46}, {"time": 2019, "pitch": 38, "duration": 16, "velocity": 75}, {"time": 2019, "pitch": 50, "duration": 5, "velocity": 73}, {"time": 2019, "pitch": 57, "duration": 8, "velocity": 78}, {"time": 2019, "pitch": 60, "duration": 9, "velocity": 72}, {"time": 2019, "pitch": 65, "duration": 7, "velocity": 76}, {"time": 2028, "pitch": 50, "duration": 8, "velocity": 49}, {"time": 2031, "pitch": 57, "duration": 2, "velocity": 80}, {"time": 2034, "pitch": 60, "duration": 2, "velocity": 61}, {"time": 2037, "pitch": 62, "duration": 3, "velocity": 69}, {"time": 2040, "pitch": 64, "duration": 2, "velocity": 66}, {"time": 2043, "pitch": 48, "duration": 7, "velocity": 64}, {"time": 2043, "pitch": 60, "duration": 4, "velocity": 69}, {"time": 2043, "pitch": 63, "duration": 5, "velocity": 75}, {"time": 2043, "pitch": 67, "duration": 5, "velocity": 64}, {"time": 2049, "pitch": 55, "duration": 1, "velocity": 80}, {"time": 2055, "pitch": 41, "duration": 6, "velocity": 73}, {"time": 2055, "pitch": 53, "duration": 4, "velocity": 73}, {"time": 2055, "pitch": 60, "duration": 5, "velocity": 75}, {"time": 2055, "pitch": 63, "duration": 6, "velocity": 88}, {"time": 2055, "pitch": 69, "duration": 6, "velocity": 78}, {"time": 2061, "pitch": 53, "duration": 1, "velocity": 63}, {"time": 2064, "pitch": 69, "duration": 2, "velocity": 61}, {"time": 2067, "pitch": 46, "duration": 19, "velocity": 80}, {"time": 2067, "pitch": 62, "duration": 6, "velocity": 82}, {"time": 2067, "pitch": 65, "duration": 6, "velocity": 82}, {"time": 2067, "pitch": 70, "duration": 6, "velocity": 85}, {"time": 2073, "pitch": 53, "duration": 13, "velocity": 45}, {"time": 2076, "pitch": 62, "duration": 3, "velocity": 60}, {"time": 2076, "pitch": 65, "duration": 3, "velocity": 62}, {"time": 2076, "pitch": 70, "duration": 3, "velocity": 62}, {"time": 2079, "pitch": 58, "duration": 3, "velocity": 49}, {"time": 2082, "pitch": 60, "duration": 2, "velocity": 80}, {"time": 2082, "pitch": 65, "duration": 2, "velocity": 70}, {"time": 2082, "pitch": 69, "duration": 3, "velocity": 80}, {"time": 2085, "pitch": 58, "duration": 2, "velocity": 53}, {"time": 2091, "pitch": 46, "duration": 17, "velocity": 70}, {"time": 2091, "pitch": 58, "duration": 6, "velocity": 72}, {"time": 2091, "pitch": 61, "duration": 9, "velocity": 76}, {"time": 2091, "pitch": 65, "duration": 8, "velocity": 88}, {"time": 2091, "pitch": 70, "duration": 11, "velocity": 76}, {"time": 2097, "pitch": 58, "duration": 9, "velocity": 38}, {"time": 2103, "pitch": 61, "duration": 7, "velocity": 75}, {"time": 2103, "pitch": 65, "duration": 7, "velocity": 80}, {"time": 2103, "pitch": 70, "duration": 8, "velocity": 78}, {"time": 2109, "pitch": 45, "duration": 2, "velocity": 76}, {"time": 2109, "pitch": 57, "duration": 1, "velocity": 42}, {"time": 2115, "pitch": 43, "duration": 15, "velocity": 57}, {"time": 2115, "pitch": 55, "duration": 6, "velocity": 67}, {"time": 2115, "pitch": 62, "duration": 9, "velocity": 67}, {"time": 2115, "pitch": 65, "duration": 9, "velocity": 80}, {"time": 2115, "pitch": 70, "duration": 10, "velocity": 78}, {"time": 2124, "pitch": 55, "duration": 6, "velocity": 29}, {"time": 2127, "pitch": 62, "duration": 5, "velocity": 64}, {"time": 2127, "pitch": 65, "duration": 7, "velocity": 76}, {"time": 2127, "pitch": 70, "duration": 5, "velocity": 72}, {"time": 2133, "pitch": 43, "duration": 1, "velocity": 67}, {"time": 2139, "pitch": 36, "duration": 18, "velocity": 82}, {"time": 2139, "pitch": 48, "duration": 4, "velocity": 66}, {"time": 2139, "pitch": 60, "duration": 5, "velocity": 62}, {"time": 2139, "pitch": 64, "duration": 5, "velocity": 75}, {"time": 2139, "pitch": 67, "duration": 5, "velocity": 75}, {"time": 2139, "pitch": 72, "duration": 5, "velocity": 70}, {"time": 2148, "pitch": 48, "duration": 6, "velocity": 39}, {"time": 2151, "pitch": 60, "duration": 4, "velocity": 75}, {"time": 2151, "pitch": 64, "duration": 4, "velocity": 80}, {"time": 2151, "pitch": 70, "duration": 5, "velocity": 85}, {"time": 2157, "pitch": 48, "duration": 1, "velocity": 60}, {"time": 2157, "pitch": 60, "duration": 1, "velocity": 72}, {"time": 2157, "pitch": 64, "duration": 1, "velocity": 72}, {"time": 2157, "pitch": 70, "duration": 1, "velocity": 46}, {"time": 2157, "pitch": 72, "duration": 2, "velocity": 69}, {"time": 2163, "pitch": 41, "duration": 18, "velocity": 70}, {"time": 2163, "pitch": 53, "duration": 4, "velocity": 64}, {"time": 2163, "pitch": 60, "duration": 5, "velocity": 69}, {"time": 2163, "pitch": 65, "duration": 5, "velocity": 61}, {"time": 2163, "pitch": 72, "duration": 5, "velocity": 75}, {"time": 2172, "pitch": 53, "duration": 4, "velocity": 48}, {"time": 2175, "pitch": 57, "duration": 5, "velocity": 75}, {"time": 2175, "pitch": 60, "duration": 5, "velocity": 80}, {"time": 2175, "pitch": 65, "duration": 5, "velocity": 78}, {"time": 2181, "pitch": 53, "duration": 2, "velocity": 64}, {"time": 2187, "pitch": 45, "duration": 18, "velocity": 70}, {"time": 2187, "pitch": 57, "duration": 3, "velocity": 67}, {"time": 2187, "pitch": 61, "duration": 4, "velocity": 72}, {"time": 2187, "pitch": 64, "duration": 4, "velocity": 75}, {"time": 2193, "pitch": 52, "duration": 12, "velocity": 53}, {"time": 2199, "pitch": 57, "duration": 4, "velocity": 60}, {"time": 2199, "pitch": 64, "duration": 5, "velocity": 64}, {"time": 2199, "pitch": 69, "duration": 4, "velocity": 60}, {"time": 2199, "pitch": 73, "duration": 6, "velocity": 69}, {"time": 2205, "pitch": 57, "duration": 2, "velocity": 41}, {"time": 2205, "pitch": 76, "duration": 1, "velocity": 57}, {"time": 2211, "pitch": 50, "duration": 17, "velocity": 70}, {"time": 2211, "pitch": 69, "duration": 3, "velocity": 67}, {"time": 2211, "pitch": 72, "duration": 5, "velocity": 70}, {"time": 2211, "pitch": 77, "duration": 5, "velocity": 76}, {"time": 2217, "pitch": 57, "duration": 12, "velocity": 58}, {"time": 2217, "pitch": 67, "duration": 2, "velocity": 49}, {"time": 2217, "pitch": 76, "duration": 5, "velocity": 62}, {"time": 2223, "pitch": 62, "duration": 4, "velocity": 54}, {"time": 2223, "pitch": 72, "duration": 1, "velocity": 66}, {"time": 2223, "pitch": 77, "duration": 1, "velocity": 78}, {"time": 2232, "pitch": 72, "duration": 4, "velocity": 55}, {"time": 2235, "pitch": 48, "duration": 12, "velocity": 66}, {"time": 2235, "pitch": 75, "duration": 4, "velocity": 70}, {"time": 2235, "pitch": 82, "duration": 3, "velocity": 70}, {"time": 2241, "pitch": 55, "duration": 7, "velocity": 66}, {"time": 2241, "pitch": 60, "duration": 4, "velocity": 57}, {"time": 2247, "pitch": 53, "duration": 6, "velocity": 78}, {"time": 2247, "pitch": 60, "duration": 4, "velocity": 70}, {"time": 2247, "pitch": 63, "duration": 5, "velocity": 76}, {"time": 2247, "pitch": 69, "duration": 5, "velocity": 73}, {"time": 2253, "pitch": 60, "duration": 1, "velocity": 55}, {"time": 2253, "pitch": 67, "duration": 1, "velocity": 67}, {"time": 2259, "pitch": 46, "duration": 20, "velocity": 73}, {"time": 2259, "pitch": 53, "duration": 19, "velocity": 60}, {"time": 2259, "pitch": 58, "duration": 10, "velocity": 70}, {"time": 2259, "pitch": 62, "duration": 4, "velocity": 69}, {"time": 2259, "pitch": 65, "duration": 4, "velocity": 75}, {"time": 2259, "pitch": 69, "duration": 5, "velocity": 76}, {"time": 2268, "pitch": 60, "duration": 2, "velocity": 62}, {"time": 2268, "pitch": 65, "duration": 4, "velocity": 67}, {"time": 2271, "pitch": 58, "duration": 3, "velocity": 42}, {"time": 2274, "pitch": 62, "duration": 2, "velocity": 73}, {"time": 2274, "pitch": 65, "duration": 4, "velocity": 75}, {"time": 2277, "pitch": 58, "duration": 2, "velocity": 53}, {"time": 2283, "pitch": 46, "duration": 16, "velocity": 69}, {"time": 2283, "pitch": 58, "duration": 16, "velocity": 91}, {"time": 2283, "pitch": 61, "duration": 8, "velocity": 69}, {"time": 2283, "pitch": 65, "duration": 7, "velocity": 73}, {"time": 2283, "pitch": 70, "duration": 9, "velocity": 78}, {"time": 2292, "pitch": 53, "duration": 5, "velocity": 23}, {"time": 2295, "pitch": 61, "duration": 7, "velocity": 70}, {"time": 2295, "pitch": 65, "duration": 7, "velocity": 78}, {"time": 2295, "pitch": 70, "duration": 8, "velocity": 78}, {"time": 2301, "pitch": 45, "duration": 2, "velocity": 72}, {"time": 2301, "pitch": 57, "duration": 2, "velocity": 64}, {"time": 2307, "pitch": 43, "duration": 15, "velocity": 70}, {"time": 2307, "pitch": 55, "duration": 15, "velocity": 64}, {"time": 2307, "pitch": 62, "duration": 8, "velocity": 61}, {"time": 2307, "pitch": 65, "duration": 8, "velocity": 75}, {"time": 2307, "pitch": 67, "duration": 6, "velocity": 64}, {"time": 2307, "pitch": 70, "duration": 10, "velocity": 80}, {"time": 2319, "pitch": 62, "duration": 5, "velocity": 67}, {"time": 2319, "pitch": 65, "duration": 5, "velocity": 80}, {"time": 2319, "pitch": 67, "duration": 4, "velocity": 69}, {"time": 2319, "pitch": 70, "duration": 6, "velocity": 82}, {"time": 2325, "pitch": 43, "duration": 2, "velocity": 66}, {"time": 2325, "pitch": 55, "duration": 1, "velocity": 40}, {"time": 2331, "pitch": 36, "duration": 18, "velocity": 66}, {"time": 2331, "pitch": 48, "duration": 4, "velocity": 66}, {"time": 2331, "pitch": 60, "duration": 7, "velocity": 66}, {"time": 2331, "pitch": 64, "duration": 7, "velocity": 72}, {"time": 2331, "pitch": 67, "duration": 7, "velocity": 66}, {"time": 2331, "pitch": 70, "duration": 7, "velocity": 75}, {"time": 2340, "pitch": 48, "duration": 6, "velocity": 33}, {"time": 2343, "pitch": 60, "duration": 6, "velocity": 76}, {"time": 2343, "pitch": 64, "duration": 6, "velocity": 75}, {"time": 2343, "pitch": 67, "duration": 6, "velocity": 69}, {"time": 2343, "pitch": 70, "duration": 6, "velocity": 62}, {"time": 2349, "pitch": 48, "duration": 1, "velocity": 73}, {"time": 2355, "pitch": 41, "duration": 43, "velocity": 58}, {"time": 2355, "pitch": 53, "duration": 43, "velocity": 61}, {"time": 2355, "pitch": 57, "duration": 5, "velocity": 66}, {"time": 2355, "pitch": 60, "duration": 5, "velocity": 75}, {"time": 2355, "pitch": 65, "duration": 7, "velocity": 69}, {"time": 2364, "pitch": 55, "duration": 3, "velocity": 69}, {"time": 2364, "pitch": 64, "duration": 5, "velocity": 80}, {"time": 2373, "pitch": 60, "duration": 4, "velocity": 70}, {"time": 2373, "pitch": 65, "duration": 5, "velocity": 66}, {"time": 2382, "pitch": 60, "duration": 2, "velocity": 35}, {"time": 2385, "pitch": 65, "duration": 3, "velocity": 58}, {"time": 2388, "pitch": 67, "duration": 2, "velocity": 51}, {"time": 2391, "pitch": 69, "duration": 1, "velocity": 35}, {"time": 2394, "pitch": 70, "duration": 1, "velocity": 44}, {"time": 2397, "pitch": 74, "duration": 3, "velocity": 73}, {"time": 2400, "pitch": 77, "duration": 2, "velocity": 59}, {"time": 2403, "pitch": 58, "duration": 18, "velocity": 60}, {"time": 2403, "pitch": 77, "duration": 7, "velocity": 56}, {"time": 2406, "pitch": 65, "duration": 18, "velocity": 36}, {"time": 2409, "pitch": 70, "duration": 10, "velocity": 48}, {"time": 2412, "pitch": 74, "duration": 3, "velocity": 47}, {"time": 2415, "pitch": 76, "duration": 3, "velocity": 57}, {"time": 2418, "pitch": 77, "duration": 2, "velocity": 52}, {"time": 2424, "pitch": 81, "duration": 6, "velocity": 67}, {"time": 2427, "pitch": 58, "duration": 15, "velocity": 59}, {"time": 2430, "pitch": 65, "duration": 12, "velocity": 41}, {"time": 2433, "pitch": 70, "duration": 8, "velocity": 53}, {"time": 2436, "pitch": 77, "duration": 6, "velocity": 51}, {"time": 2442, "pitch": 76, "duration": 3, "velocity": 61}, {"time": 2445, "pitch": 77, "duration": 3, "velocity": 46}, {"time": 2448, "pitch": 79, "duration": 2, "velocity": 41}, {"time": 2451, "pitch": 59, "duration": 17, "velocity": 61}, {"time": 2451, "pitch": 77, "duration": 7, "velocity": 72}, {"time": 2454, "pitch": 65, "duration": 19, "velocity": 49}, {"time": 2457, "pitch": 71, "duration": 5, "velocity": 55}, {"time": 2460, "pitch": 74, "duration": 7, "velocity": 34}, {"time": 2466, "pitch": 71, "duration": 3, "velocity": 40}, {"time": 2469, "pitch": 76, "duration": 3, "velocity": 42}, {"time": 2472, "pitch": 79, "duration": 3, "velocity": 44}, {"time": 2475, "pitch": 59, "duration": 15, "velocity": 67}, {"time": 2475, "pitch": 77, "duration": 5, "velocity": 55}, {"time": 2478, "pitch": 65, "duration": 14, "velocity": 52}, {"time": 2481, "pitch": 71, "duration": 8, "velocity": 61}, {"time": 2484, "pitch": 74, "duration": 2, "velocity": 54}, {"time": 2487, "pitch": 76, "duration": 2, "velocity": 47}, {"time": 2490, "pitch": 77, "duration": 3, "velocity": 51}, {"time": 2493, "pitch": 77, "duration": 1, "velocity": 73}, {"time": 2499, "pitch": 46, "duration": 19, "velocity": 55}, {"time": 2499, "pitch": 69, "duration": 4, "velocity": 54}, {"time": 2502, "pitch": 58, "duration": 8, "velocity": 42}, {"time": 2505, "pitch": 62, "duration": 3, "velocity": 38}, {"time": 2508, "pitch": 62, "duration": 5, "velocity": 32}, {"time": 2508, "pitch": 65, "duration": 6, "velocity": 64}, {"time": 2514, "pitch": 58, "duration": 5, "velocity": 48}, {"time": 2517, "pitch": 62, "duration": 3, "velocity": 46}, {"time": 2520, "pitch": 69, "duration": 3, "velocity": 61}, {"time": 2523, "pitch": 48, "duration": 17, "velocity": 53}, {"time": 2523, "pitch": 60, "duration": 6, "velocity": 45}, {"time": 2523, "pitch": 64, "duration": 6, "velocity": 55}, {"time": 2523, "pitch": 67, "duration": 6, "velocity": 58}, {"time": 2535, "pitch": 60, "duration": 3, "velocity": 60}, {"time": 2535, "pitch": 65, "duration": 4, "velocity": 64}, {"time": 2538, "pitch": 55, "duration": 2, "velocity": 40}, {"time": 2541, "pitch": 67, "duration": 6, "velocity": 57}, {"time": 2547, "pitch": 41, "duration": 20, "velocity": 58}, {"time": 2547, "pitch": 60, "duration": 3, "velocity": 60}, {"time": 2547, "pitch": 69, "duration": 3, "velocity": 66}, {"time": 2550, "pitch": 48, "duration": 16, "velocity": 42}, {"time": 2553, "pitch": 53, "duration": 8, "velocity": 48}, {"time": 2556, "pitch": 62, "duration": 2, "velocity": 54}, {"time": 2556, "pitch": 70, "duration": 2, "velocity": 72}, {"time": 2562, "pitch": 65, "duration": 2, "velocity": 61}, {"time": 2562, "pitch": 72, "duration": 2, "velocity": 67}, {"time": 2571, "pitch": 41, "duration": 12, "velocity": 49}, {"time": 2571, "pitch": 53, "duration": 7, "velocity": 37}, {"time": 2571, "pitch": 60, "duration": 2, "velocity": 49}, {"time": 2571, "pitch": 70, "duration": 2, "velocity": 61}, {"time": 2574, "pitch": 69, "duration": 2, "velocity": 46}, {"time": 2577, "pitch": 65, "duration": 3, "velocity": 48}, {"time": 2580, "pitch": 60, "duration": 3, "velocity": 49}, {"time": 2583, "pitch": 53, "duration": 2, "velocity": 57}, {"time": 2595, "pitch": 46, "duration": 43, "velocity": 66}, {"time": 2595, "pitch": 58, "duration": 27, "velocity": 66}, {"time": 2595, "pitch": 62, "duration": 9, "velocity": 59}, {"time": 2595, "pitch": 65, "duration": 7, "velocity": 63}, {"time": 2595, "pitch": 69, "duration": 7, "velocity": 62}, {"time": 2607, "pitch": 62, "duration": 6, "velocity": 62}, {"time": 2607, "pitch": 65, "duration": 6, "velocity": 60}, {"time": 2607, "pitch": 69, "duration": 6, "velocity": 66}, {"time": 2619, "pitch": 62, "duration": 6, "velocity": 49}, {"time": 2619, "pitch": 65, "duration": 9, "velocity": 50}, {"time": 2619, "pitch": 69, "duration": 6, "velocity": 50}, {"time": 2628, "pitch": 58, "duration": 10, "velocity": 40}, {"time": 2631, "pitch": 64, "duration": 2, "velocity": 55}, {"time": 2631, "pitch": 67, "duration": 3, "velocity": 64}, {"time": 2634, "pitch": 65, "duration": 2, "velocity": 54}, {"time": 2634, "pitch": 69, "duration": 2, "velocity": 61}, {"time": 2637, "pitch": 65, "duration": 2, "velocity": 43}, {"time": 2637, "pitch": 72, "duration": 3, "velocity": 66}, {"time": 2643, "pitch": 45, "duration": 18, "velocity": 61}, {"time": 2643, "pitch": 57, "duration": 14, "velocity": 58}, {"time": 2643, "pitch": 60, "duration": 7, "velocity": 64}, {"time": 2643, "pitch": 64, "duration": 9, "velocity": 70}, {"time": 2643, "pitch": 67, "duration": 7, "velocity": 64}, {"time": 2655, "pitch": 60, "duration": 6, "velocity": 63}, {"time": 2655, "pitch": 64, "duration": 6, "velocity": 66}, {"time": 2655, "pitch": 67, "duration": 6, "velocity": 61}, {"time": 2661, "pitch": 57, "duration": 2, "velocity": 54}, {"time": 2667, "pitch": 50, "duration": 16, "velocity": 57}, {"time": 2667, "pitch": 57, "duration": 5, "velocity": 62}, {"time": 2667, "pitch": 60, "duration": 7, "velocity": 62}, {"time": 2667, "pitch": 65, "duration": 7, "velocity": 69}, {"time": 2667, "pitch": 69, "duration": 7, "velocity": 64}, {"time": 2676, "pitch": 60, "duration": 4, "velocity": 59}, {"time": 2676, "pitch": 67, "duration": 5, "velocity": 67}, {"time": 2679, "pitch": 57, "duration": 4, "velocity": 38}, {"time": 2682, "pitch": 60, "duration": 1, "velocity": 59}, {"time": 2682, "pitch": 69, "duration": 2, "velocity": 69}, {"time": 2688, "pitch": 69, "duration": 2, "velocity": 53}, {"time": 2691, "pitch": 43, "duration": 20, "velocity": 66}, {"time": 2691, "pitch": 55, "duration": 14, "velocity": 53}, {"time": 2691, "pitch": 62, "duration": 9, "velocity": 60}, {"time": 2691, "pitch": 65, "duration": 7, "velocity": 61}, {"time": 2691, "pitch": 70, "duration": 8, "velocity": 70}, {"time": 2703, "pitch": 62, "duration": 7, "velocity": 61}, {"time": 2703, "pitch": 65, "duration": 7, "velocity": 69}, {"time": 2703, "pitch": 70, "duration": 7, "velocity": 75}, {"time": 2709, "pitch": 55, "duration": 3, "velocity": 42}, {"time": 2715, "pitch": 46, "duration": 16, "velocity": 50}, {"time": 2715, "pitch": 58, "duration": 15, "velocity": 44}, {"time": 2715, "pitch": 61, "duration": 8, "velocity": 59}, {"time": 2715, "pitch": 65, "duration": 7, "velocity": 64}, {"time": 2715, "pitch": 70, "duration": 7, "velocity": 56}, {"time": 2727, "pitch": 61, "duration": 6, "velocity": 64}, {"time": 2727, "pitch": 65, "duration": 6, "velocity": 73}, {"time": 2727, "pitch": 70, "duration": 7, "velocity": 64}, {"time": 2733, "pitch": 46, "duration": 1, "velocity": 70}, {"time": 2739, "pitch": 36, "duration": 3, "velocity": 44}, {"time": 2739, "pitch": 48, "duration": 4, "velocity": 49}, {"time": 2739, "pitch": 60, "duration": 4, "velocity": 47}, {"time": 2739, "pitch": 65, "duration": 4, "velocity": 61}, {"time": 2739, "pitch": 69, "duration": 3, "velocity": 58}, {"time": 2739, "pitch": 72, "duration": 3, "velocity": 55}, {"time": 2745, "pitch": 36, "duration": 4, "velocity": 59}, {"time": 2745, "pitch": 48, "duration": 4, "velocity": 54}, {"time": 2745, "pitch": 60, "duration": 4, "velocity": 51}, {"time": 2745, "pitch": 65, "duration": 4, "velocity": 57}, {"time": 2745, "pitch": 69, "duration": 4, "velocity": 55}, {"time": 2745, "pitch": 72, "duration": 4, "velocity": 45}, {"time": 2751, "pitch": 36, "duration": 3, "velocity": 62}, {"time": 2751, "pitch": 48, "duration": 3, "velocity": 49}, {"time": 2751, "pitch": 60, "duration": 4, "velocity": 61}, {"time": 2751, "pitch": 65, "duration": 4, "velocity": 64}, {"time": 2751, "pitch": 69, "duration": 4, "velocity": 69}, {"time": 2751, "pitch": 72, "duration": 3, "velocity": 50}, {"time": 2757, "pitch": 36, "duration": 2, "velocity": 72}, {"time": 2757, "pitch": 48, "duration": 1, "velocity": 69}, {"time": 2757, "pitch": 60, "duration": 1, "velocity": 48}, {"time": 2757, "pitch": 65, "duration": 1, "velocity": 67}, {"time": 2757, "pitch": 69, "duration": 1, "velocity": 69}, {"time": 2763, "pitch": 37, "duration": 19, "velocity": 56}, {"time": 2763, "pitch": 49, "duration": 16, "velocity": 55}, {"time": 2763, "pitch": 61, "duration": 9, "velocity": 56}, {"time": 2763, "pitch": 65, "duration": 7, "velocity": 61}, {"time": 2763, "pitch": 68, "duration": 8, "velocity": 61}, {"time": 2775, "pitch": 61, "duration": 6, "velocity": 49}, {"time": 2775, "pitch": 65, "duration": 6, "velocity": 58}, {"time": 2775, "pitch": 68, "duration": 6, "velocity": 59}, {"time": 2781, "pitch": 49, "duration": 1, "velocity": 63}, {"time": 2787, "pitch": 42, "duration": 15, "velocity": 47}, {"time": 2787, "pitch": 54, "duration": 16, "velocity": 47}, {"time": 2787, "pitch": 61, "duration": 7, "velocity": 56}, {"time": 2787, "pitch": 66, "duration": 6, "velocity": 56}, {"time": 2787, "pitch": 70, "duration": 7, "velocity": 57}, {"time": 2793, "pitch": 68, "duration": 6, "velocity": 49}, {"time": 2799, "pitch": 70, "duration": 4, "velocity": 48}, {"time": 2811, "pitch": 46, "duration": 15, "velocity": 44}, {"time": 2811, "pitch": 58, "duration": 15, "velocity": 40}, {"time": 2811, "pitch": 62, "duration": 12, "velocity": 50}, {"time": 2811, "pitch": 65, "duration": 13, "velocity": 50}, {"time": 2811, "pitch": 68, "duration": 14, "velocity": 41}, {"time": 2835, "pitch": 51, "duration": 15, "velocity": 58}, {"time": 2835, "pitch": 61, "duration": 3, "velocity": 51}, {"time": 2835, "pitch": 66, "duration": 10, "velocity": 55}, {"time": 2841, "pitch": 58, "duration": 10, "velocity": 43}, {"time": 2847, "pitch": 63, "duration": 3, "velocity": 53}, {"time": 2850, "pitch": 65, "duration": 2, "velocity": 54}, {"time": 2853, "pitch": 66, "duration": 4, "velocity": 57}, {"time": 2856, "pitch": 68, "duration": 6, "velocity": 45}, {"time": 2859, "pitch": 49, "duration": 3, "velocity": 56}, {"time": 2859, "pitch": 61, "duration": 3, "velocity": 49}, {"time": 2859, "pitch": 64, "duration": 4, "velocity": 66}, {"time": 2859, "pitch": 71, "duration": 4, "velocity": 49}, {"time": 2871, "pitch": 42, "duration": 4, "velocity": 59}, {"time": 2871, "pitch": 54, "duration": 4, "velocity": 51}, {"time": 2871, "pitch": 61, "duration": 4, "velocity": 61}, {"time": 2871, "pitch": 64, "duration": 4, "velocity": 63}, {"time": 2871, "pitch": 70, "duration": 4, "velocity": 59}, {"time": 2883, "pitch": 47, "duration": 21, "velocity": 63}, {"time": 2883, "pitch": 63, "duration": 11, "velocity": 54}, {"time": 2883, "pitch": 66, "duration": 13, "velocity": 56}, {"time": 2883, "pitch": 70, "duration": 12, "velocity": 52}, {"time": 2889, "pitch": 54, "duration": 14, "velocity": 52}, {"time": 2895, "pitch": 59, "duration": 8, "velocity": 70}, {"time": 2901, "pitch": 63, "duration": 3, "velocity": 48}, {"time": 2907, "pitch": 47, "duration": 18, "velocity": 66}, {"time": 2907, "pitch": 59, "duration": 17, "velocity": 60}, {"time": 2907, "pitch": 62, "duration": 8, "velocity": 62}, {"time": 2907, "pitch": 66, "duration": 8, "velocity": 69}, {"time": 2907, "pitch": 71, "duration": 14, "velocity": 64}, {"time": 2919, "pitch": 62, "duration": 6, "velocity": 55}, {"time": 2925, "pitch": 66, "duration": 5, "velocity": 62}, {"time": 2931, "pitch": 44, "duration": 14, "velocity": 55}, {"time": 2931, "pitch": 56, "duration": 14, "velocity": 48}, {"time": 2931, "pitch": 63, "duration": 7, "velocity": 56}, {"time": 2931, "pitch": 71, "duration": 10, "velocity": 59}, {"time": 2934, "pitch": 66, "duration": 5, "velocity": 11}, {"time": 2943, "pitch": 63, "duration": 7, "velocity": 70}, {"time": 2943, "pitch": 66, "duration": 7, "velocity": 82}, {"time": 2943, "pitch": 71, "duration": 7, "velocity": 97}, {"time": 2949, "pitch": 44, "duration": 1, "velocity": 78}, {"time": 2949, "pitch": 56, "duration": 1, "velocity": 58}, {"time": 2952, "pitch": 68, "duration": 2, "velocity": 49}, {"time": 2955, "pitch": 37, "duration": 4, "velocity": 85}, {"time": 2955, "pitch": 49, "duration": 4, "velocity": 91}, {"time": 2955, "pitch": 61, "duration": 5, "velocity": 82}, {"time": 2955, "pitch": 65, "duration": 5, "velocity": 85}, {"time": 2955, "pitch": 71, "duration": 5, "velocity": 78}, {"time": 2967, "pitch": 37, "duration": 4, "velocity": 78}, {"time": 2967, "pitch": 49, "duration": 3, "velocity": 85}, {"time": 2967, "pitch": 61, "duration": 3, "velocity": 95}, {"time": 2967, "pitch": 65, "duration": 4, "velocity": 95}, {"time": 2970, "pitch": 39, "duration": 4, "velocity": 99}, {"time": 2970, "pitch": 61, "duration": 1, "velocity": 82}, {"time": 2970, "pitch": 66, "duration": 4, "velocity": 97}, {"time": 2976, "pitch": 41, "duration": 1, "velocity": 85}, {"time": 2976, "pitch": 61, "duration": 2, "velocity": 66}, {"time": 2976, "pitch": 68, "duration": 3, "velocity": 88}, {"time": 2979, "pitch": 42, "duration": 19, "velocity": 99}, {"time": 2979, "pitch": 61, "duration": 6, "velocity": 85}, {"time": 2979, "pitch": 66, "duration": 6, "velocity": 91}, {"time": 2979, "pitch": 70, "duration": 6, "velocity": 78}, {"time": 2988, "pitch": 54, "duration": 4, "velocity": 60}, {"time": 2991, "pitch": 61, "duration": 6, "velocity": 80}, {"time": 2991, "pitch": 66, "duration": 7, "velocity": 80}, {"time": 2991, "pitch": 70, "duration": 7, "velocity": 80}, {"time": 2997, "pitch": 54, "duration": 2, "velocity": 93}, {"time": 3003, "pitch": 46, "duration": 4, "velocity": 63}, {"time": 3003, "pitch": 58, "duration": 3, "velocity": 64}, {"time": 3003, "pitch": 62, "duration": 5, "velocity": 85}, {"time": 3003, "pitch": 65, "duration": 5, "velocity": 91}, {"time": 3003, "pitch": 70, "duration": 6, "velocity": 76}, {"time": 3015, "pitch": 38, "duration": 5, "velocity": 78}, {"time": 3015, "pitch": 50, "duration": 6, "velocity": 76}, {"time": 3015, "pitch": 62, "duration": 5, "velocity": 73}, {"time": 3015, "pitch": 65, "duration": 5, "velocity": 75}, {"time": 3015, "pitch": 68, "duration": 5, "velocity": 75}, {"time": 3027, "pitch": 39, "duration": 13, "velocity": 72}, {"time": 3027, "pitch": 51, "duration": 4, "velocity": 69}, {"time": 3027, "pitch": 61, "duration": 9, "velocity": 75}, {"time": 3027, "pitch": 66, "duration": 10, "velocity": 78}, {"time": 3027, "pitch": 70, "duration": 8, "velocity": 76}, {"time": 3036, "pitch": 51, "duration": 5, "velocity": 52}, {"time": 3039, "pitch": 61, "duration": 2, "velocity": 78}, {"time": 3042, "pitch": 66, "duration": 4, "velocity": 67}, {"time": 3045, "pitch": 68, "duration": 5, "velocity": 75}, {"time": 3048, "pitch": 70, "duration": 2, "velocity": 62}, {"time": 3051, "pitch": 49, "duration": 5, "velocity": 66}, {"time": 3051, "pitch": 56, "duration": 4, "velocity": 69}, {"time": 3051, "pitch": 61, "duration": 4, "velocity": 72}, {"time": 3051, "pitch": 64, "duration": 4, "velocity": 93}, {"time": 3051, "pitch": 68, "duration": 4, "velocity": 59}, {"time": 3051, "pitch": 71, "duration": 4, "velocity": 80}, {"time": 3063, "pitch": 42, "duration": 6, "velocity": 75}, {"time": 3063, "pitch": 54, "duration": 4, "velocity": 85}, {"time": 3063, "pitch": 61, "duration": 6, "velocity": 76}, {"time": 3063, "pitch": 64, "duration": 6, "velocity": 78}, {"time": 3063, "pitch": 66, "duration": 6, "velocity": 73}, {"time": 3063, "pitch": 70, "duration": 6, "velocity": 75}, {"time": 3069, "pitch": 54, "duration": 2, "velocity": 58}, {"time": 3072, "pitch": 68, "duration": 2, "velocity": 45}, {"time": 3075, "pitch": 47, "duration": 21, "velocity": 78}, {"time": 3075, "pitch": 63, "duration": 5, "velocity": 88}, {"time": 3075, "pitch": 66, "duration": 6, "velocity": 80}, {"time": 3075, "pitch": 70, "duration": 6, "velocity": 76}, {"time": 3081, "pitch": 54, "duration": 10, "velocity": 31}, {"time": 3081, "pitch": 59, "duration": 3, "velocity": 53}, {"time": 3084, "pitch": 61, "duration": 3, "velocity": 73}, {"time": 3084, "pitch": 66, "duration": 6, "velocity": 76}, {"time": 3087, "pitch": 59, "duration": 4, "velocity": 45}, {"time": 3090, "pitch": 61, "duration": 5, "velocity": 75}, {"time": 3090, "pitch": 68, "duration": 5, "velocity": 78}, {"time": 3093, "pitch": 59, "duration": 2, "velocity": 72}, {"time": 3099, "pitch": 47, "duration": 15, "velocity": 61}, {"time": 3099, "pitch": 62, "duration": 10, "velocity": 76}, {"time": 3099, "pitch": 66, "duration": 9, "velocity": 75}, {"time": 3105, "pitch": 59, "duration": 8, "velocity": 46}, {"time": 3111, "pitch": 62, "duration": 7, "velocity": 85}, {"time": 3111, "pitch": 66, "duration": 5, "velocity": 88}, {"time": 3117, "pitch": 47, "duration": 5, "velocity": 78}, {"time": 3123, "pitch": 44, "duration": 16, "velocity": 78}, {"time": 3123, "pitch": 56, "duration": 15, "velocity": 75}, {"time": 3123, "pitch": 59, "duration": 9, "velocity": 88}, {"time": 3123, "pitch": 63, "duration": 11, "velocity": 75}, {"time": 3123, "pitch": 66, "duration": 8, "velocity": 62}, {"time": 3135, "pitch": 59, "duration": 6, "velocity": 80}, {"time": 3135, "pitch": 63, "duration": 5, "velocity": 76}, {"time": 3135, "pitch": 66, "duration": 5, "velocity": 73}, {"time": 3141, "pitch": 44, "duration": 1, "velocity": 63}, {"time": 3147, "pitch": 37, "duration": 16, "velocity": 60}, {"time": 3147, "pitch": 49, "duration": 17, "velocity": 60}, {"time": 3147, "pitch": 56, "duration": 16, "velocity": 57}, {"time": 3147, "pitch": 59, "duration": 17, "velocity": 70}, {"time": 3147, "pitch": 65, "duration": 17, "velocity": 67}, {"time": 3183, "pitch": 73, "duration": 2, "velocity": 27}, {"time": 3195, "pitch": 85, "duration": 1, "velocity": 55}, {"time": 3219, "pitch": 47, "duration": 18, "velocity": 64}, {"time": 3219, "pitch": 78, "duration": 9, "velocity": 63}, {"time": 3225, "pitch": 54, "duration": 5, "velocity": 35}, {"time": 3231, "pitch": 59, "duration": 5, "velocity": 51}, {"time": 3231, "pitch": 77, "duration": 5, "velocity": 49}, {"time": 3237, "pitch": 78, "duration": 8, "velocity": 66}, {"time": 3243, "pitch": 46, "duration": 17, "velocity": 47}, {"time": 3243, "pitch": 58, "duration": 16, "velocity": 48}, {"time": 3243, "pitch": 68, "duration": 6, "velocity": 57}, {"time": 3243, "pitch": 73, "duration": 5, "velocity": 56}, {"time": 3261, "pitch": 66, "duration": 2, "velocity": 50}, {"time": 3264, "pitch": 68, "duration": 3, "velocity": 61}, {"time": 3267, "pitch": 44, "duration": 15, "velocity": 58}, {"time": 3267, "pitch": 63, "duration": 4, "velocity": 56}, {"time": 3267, "pitch": 71, "duration": 4, "velocity": 70}, {"time": 3279, "pitch": 56, "duration": 3, "velocity": 53}, {"time": 3279, "pitch": 70, "duration": 2, "velocity": 48}, {"time": 3285, "pitch": 71, "duration": 1, "velocity": 62}, {"time": 3291, "pitch": 49, "duration": 17, "velocity": 49}, {"time": 3291, "pitch": 61, "duration": 14, "velocity": 49}, {"time": 3291, "pitch": 66, "duration": 7, "velocity": 58}, {"time": 3291, "pitch": 73, "duration": 7, "velocity": 60}, {"time": 3304, "pitch": 71, "duration": 3, "velocity": 48}, {"time": 3304, "pitch": 63, "duration": 3, "velocity": 46}, {"time": 3316, "pitch": 58, "duration": 8, "velocity": 38}, {"time": 3317, "pitch": 61, "duration": 3, "velocity": 58}, {"time": 3317, "pitch": 42, "duration": 11, "velocity": 48}, {"time": 3318, "pitch": 65, "duration": 6, "velocity": 64}, {"time": 3323, "pitch": 49, "duration": 5, "velocity": 48}, {"time": 3327, "pitch": 54, "duration": 2, "velocity": 53}, {"time": 3330, "pitch": 66, "duration": 2, "velocity": 56}, {"time": 3332, "pitch": 68, "duration": 3, "velocity": 54}, {"time": 3335, "pitch": 70, "duration": 1, "velocity": 50}, {"time": 3338, "pitch": 73, "duration": 2, "velocity": 62}, {"time": 3341, "pitch": 77, "duration": 3, "velocity": 69}, {"time": 3344, "pitch": 78, "duration": 1, "velocity": 53}, {"time": 3347, "pitch": 82, "duration": 4, "velocity": 44}, {"time": 3351, "pitch": 85, "duration": 3, "velocity": 48}, {"time": 3355, "pitch": 89, "duration": 3, "velocity": 40}, {"time": 3359, "pitch": 90, "duration": 1, "velocity": 31}, {"time": 3363, "pitch": 94, "duration": 2, "velocity": 49}, {"time": 3369, "pitch": 97, "duration": 1, "velocity": 47}], "annotations": [{"time": 52, "annotation": {"number": 64, "value": 127}, "group": "control_change"}, {"time": 100, "annotation": {"number": 64, "value": 0}, "group": "control_change"}, {"time": 104, "annotation": {"number": 64, "value": 127}, "group": "control_change"}, {"time": 146, "annotation": {"number": 64, "value": 0}, "group": "control_change"}, {"time": 153, "annotation": {"number": 64, "value": 127}, "group": "control_change"}, {"time": 195, "annotation": {"number": 64, "value": 0}, "group": "control_change"}, {"time": 199, "annotation": {"number": 64, "value": 127}, "group": "control_change"}, {"time": 243, "annotation": {"number": 64, "value": 0}, "group": "control_change"}, {"time": 244, "annotation": {"number": 64, "value": 127}, "group": "control_change"}, {"time": 291, "annotation": {"number": 64, "value": 0}, "group": "control_change"}, {"time": 294, "annotation": {"number": 64, "value": 127}, "group": "control_change"}, {"time": 339, "annotation": {"number": 64, "value": 0}, "group": "control_change"}, {"time": 339, "annotation": {"number": 64, "value": 127}, "group": "control_change"}, {"time": 363, "annotation": {"number": 64, "value": 0}, "group": "control_change"}, {"time": 366, "annotation": {"number": 64, "value": 127}, "group": "control_change"}, {"time": 388, "annotation": {"number": 64, "value": 0}, "group": "control_change"}, {"time": 391, "annotation": {"number": 64, "value": 127}, "group": "control_change"}, {"time": 435, "annotation": {"number": 64, "value": 0}, "group": "control_change"}, {"time": 439, "annotation": {"number": 64, "value": 127}, "group": "control_change"}, {"time": 482, "annotation": {"number": 64, "value": 0}, "group": "control_change"}, {"time": 485, "annotation": {"number": 64, "value": 127}, "group": "control_change"}, {"time": 531, "annotation": {"number": 64, "value": 0}, "group": "control_change"}, {"time": 532, "annotation": {"number": 64, "value": 127}, "group": "control_change"}, {"time": 535, "annotation": {"number": 64, "value": 127}, "group": "control_change"}, {"time": 578, "annotation": {"number": 64, "value": 0}, "group": "control_change"}, {"time": 579, "annotation": {"number": 64, "value": 127}, "group": "control_change"}, {"time": 603, "annotation": {"number": 64, "value": 0}, "group": "control_change"}, {"time": 607, "annotation": {"number": 64, "value": 127}, "group": "control_change"}, {"time": 627, "annotation": {"number": 64, "value": 0}, "group": "control_change"}, {"time": 631, "annotation": {"number": 64, "value": 127}, "group": "control_change"}, {"time": 675, "annotation": {"number": 64, "value": 0}, "group": "control_change"}, {"time": 679, "annotation": {"number": 64, "value": 127}, "group": "control_change"}, {"time": 724, "annotation": {"number": 64, "value": 0}, "group": "control_change"}, {"time": 726, "annotation": {"number": 64, "value": 127}, "group": "control_change"}, {"time": 771, "annotation": {"number": 64, "value": 0}, "group": "control_change"}, {"time": 774, "annotation": {"number": 64, "value": 127}, "group": "control_change"}, {"time": 807, "annotation": {"number": 64, "value": 0}, "group": "control_change"}, {"time": 810, "annotation": {"number": 64, "value": 127}, "group": "control_change"}, {"time": 819, "annotation": {"number": 64, "value": 0}, "group": "control_change"}, {"time": 822, "annotation": {"number": 64, "value": 127}, "group": "control_change"}, {"time": 867, "annotation": {"number": 64, "value": 0}, "group": "control_change"}, {"time": 870, "annotation": {"number": 64, "value": 127}, "group": "control_change"}, {"time": 915, "annotation": {"number": 64, "value": 0}, "group": "control_change"}, {"time": 918, "annotation": {"number": 64, "value": 127}, "group": "control_change"}, {"time": 939, "annotation": {"number": 64, "value": 0}, "group": "control_change"}, {"time": 943, "annotation": {"number": 64, "value": 127}, "group": "control_change"}, {"time": 964, "annotation": {"number": 64, "value": 0}, "group": "control_change"}, {"time": 968, "annotation": {"number": 64, "value": 127}, "group": "control_change"}, {"time": 987, "annotation": {"number": 64, "value": 0}, "group": "control_change"}, {"time": 990, "annotation": {"number": 64, "value": 127}, "group": "control_change"}, {"time": 1011, "annotation": {"number": 64, "value": 0}, "group": "control_change"}, {"time": 1013, "annotation": {"number": 64, "value": 127}, "group": "control_change"}, {"time": 1035, "annotation": {"number": 64, "value": 0}, "group": "control_change"}, {"time": 1040, "annotation": {"number": 64, "value": 127}, "group": "control_change"}, {"time": 1060, "annotation": {"number": 64, "value": 0}, "group": "control_change"}, {"time": 1062, "annotation": {"number": 64, "value": 117}, "group": "control_change"}, {"time": 1089, "annotation": {"number": 64, "value": 127}, "group": "control_change"}, {"time": 1096, "annotation": {"number": 64, "value": 0}, "group": "control_change"}, {"time": 1100, "annotation": {"number": 64, "value": 127}, "group": "control_change"}, {"time": 1107, "annotation": {"number": 64, "value": 0}, "group": "control_change"}, {"time": 1113, "annotation": {"number": 64, "value": 127}, "group": "control_change"}, {"time": 1120, "annotation": {"number": 64, "value": 0}, "group": "control_change"}, {"time": 1121, "annotation": {"number": 64, "value": 127}, "group": "control_change"}, {"time": 1121, "annotation": {"number": 64, "value": 0}, "group": "control_change"}, {"time": 1122, "annotation": {"number": 64, "value": 127}, "group": "control_change"}, {"time": 1131, "annotation": {"number": 64, "value": 0}, "group": "control_change"}, {"time": 1135, "annotation": {"number": 64, "value": 127}, "group": "control_change"}, {"time": 1156, "annotation": {"number": 64, "value": 0}, "group": "control_change"}, {"time": 1160, "annotation": {"number": 64, "value": 127}, "group": "control_change"}, {"time": 1180, "annotation": {"number": 64, "value": 0}, "group": "control_change"}, {"time": 1183, "annotation": {"number": 64, "value": 127}, "group": "control_change"}, {"time": 1203, "annotation": {"number": 64, "value": 0}, "group": "control_change"}, {"time": 1205, "annotation": {"number": 64, "value": 127}, "group": "control_change"}, {"time": 1228, "annotation": {"number": 64, "value": 0}, "group": "control_change"}, {"time": 1231, "annotation": {"number": 64, "value": 127}, "group": "control_change"}, {"time": 1240, "annotation": {"number": 64, "value": 0}, "group": "control_change"}, {"time": 1242, "annotation": {"number": 64, "value": 127}, "group": "control_change"}, {"time": 1252, "annotation": {"number": 64, "value": 0}, "group": "control_change"}, {"time": 1256, "annotation": {"number": 64, "value": 127}, "group": "control_change"}, {"time": 1275, "annotation": {"number": 64, "value": 0}, "group": "control_change"}, {"time": 1277, "annotation": {"number": 64, "value": 127}, "group": "control_change"}, {"time": 1288, "annotation": {"number": 64, "value": 0}, "group": "control_change"}, {"time": 1291, "annotation": {"number": 64, "value": 127}, "group": "control_change"}, {"time": 1299, "annotation": {"number": 64, "value": 0}, "group": "control_change"}, {"time": 1303, "annotation": {"number": 64, "value": 127}, "group": "control_change"}, {"time": 1323, "annotation": {"number": 64, "value": 0}, "group": "control_change"}, {"time": 1325, "annotation": {"number": 64, "value": 127}, "group": "control_change"}, {"time": 1348, "annotation": {"number": 64, "value": 0}, "group": "control_change"}, {"time": 1351, "annotation": {"number": 64, "value": 127}, "group": "control_change"}, {"time": 1370, "annotation": {"number": 64, "value": 0}, "group": "control_change"}, {"time": 1374, "annotation": {"number": 64, "value": 127}, "group": "control_change"}, {"time": 1397, "annotation": {"number": 64, "value": 0}, "group": "control_change"}, {"time": 1401, "annotation": {"number": 64, "value": 127}, "group": "control_change"}, {"time": 1443, "annotation": {"number": 64, "value": 0}, "group": "control_change"}, {"time": 1445, "annotation": {"number": 64, "value": 127}, "group": "control_change"}, {"time": 1468, "annotation": {"number": 64, "value": 0}, "group": "control_change"}, {"time": 1472, "annotation": {"number": 64, "value": 127}, "group": "control_change"}, {"time": 1491, "annotation": {"number": 64, "value": 0}, "group": "control_change"}, {"time": 1495, "annotation": {"number": 64, "value": 127}, "group": "control_change"}, {"time": 1539, "annotation": {"number": 64, "value": 0}, "group": "control_change"}, {"time": 1543, "annotation": {"number": 64, "value": 127}, "group": "control_change"}, {"time": 1564, "annotation": {"number": 64, "value": 0}, "group": "control_change"}, {"time": 1567, "annotation": {"number": 64, "value": 127}, "group": "control_change"}, {"time": 1587, "annotation": {"number": 64, "value": 0}, "group": "control_change"}, {"time": 1590, "annotation": {"number": 64, "value": 127}, "group": "control_change"}, {"time": 1671, "annotation": {"number": 64, "value": 0}, "group": "control_change"}, {"time": 1675, "annotation": {"number": 64, "value": 127}, "group": "control_change"}, {"time": 1684, "annotation": {"number": 64, "value": 0}, "group": "control_change"}, {"time": 1689, "annotation": {"number": 64, "value": 127}, "group": "control_change"}, {"time": 1708, "annotation": {"number": 64, "value": 0}, "group": "control_change"}, {"time": 1712, "annotation": {"number": 64, "value": 127}, "group": "control_change"}, {"time": 1732, "annotation": {"number": 64, "value": 0}, "group": "control_change"}, {"time": 1736, "annotation": {"number": 64, "value": 127}, "group": "control_change"}, {"time": 1779, "annotation": {"number": 64, "value": 0}, "group": "control_change"}, {"time": 1784, "annotation": {"number": 64, "value": 127}, "group": "control_change"}, {"time": 1832, "annotation": {"number": 64, "value": 127}, "group": "control_change"}, {"time": 1876, "annotation": {"number": 64, "value": 0}, "group": "control_change"}, {"time": 1879, "annotation": {"number": 64, "value": 127}, "group": "control_change"}, {"time": 1923, "annotation": {"number": 64, "value": 0}, "group": "control_change"}, {"time": 1927, "annotation": {"number": 64, "value": 127}, "group": "control_change"}, {"time": 1947, "annotation": {"number": 64, "value": 0}, "group": "control_change"}, {"time": 1950, "annotation": {"number": 64, "value": 127}, "group": "control_change"}, {"time": 1971, "annotation": {"number": 64, "value": 0}, "group": "control_change"}, {"time": 1972, "annotation": {"number": 64, "value": 127}, "group": "control_change"}, {"time": 1995, "annotation": {"number": 64, "value": 0}, "group": "control_change"}, {"time": 1997, "annotation": {"number": 64, "value": 127}, "group": "control_change"}, {"time": 2018, "annotation": {"number": 64, "value": 0}, "group": "control_change"}, {"time": 2020, "annotation": {"number": 64, "value": 127}, "group": "control_change"}, {"time": 2043, "annotation": {"number": 64, "value": 0}, "group": "control_change"}, {"time": 2044, "annotation": {"number": 64, "value": 127}, "group": "control_change"}, {"time": 2056, "annotation": {"number": 64, "value": 0}, "group": "control_change"}, {"time": 2058, "annotation": {"number": 64, "value": 127}, "group": "control_change"}, {"time": 2091, "annotation": {"number": 64, "value": 0}, "group": "control_change"}, {"time": 2093, "annotation": {"number": 64, "value": 127}, "group": "control_change"}, {"time": 2116, "annotation": {"number": 64, "value": 0}, "group": "control_change"}, {"time": 2118, "annotation": {"number": 64, "value": 127}, "group": "control_change"}, {"time": 2139, "annotation": {"number": 64, "value": 0}, "group": "control_change"}, {"time": 2141, "annotation": {"number": 64, "value": 127}, "group": "control_change"}, {"time": 2163, "annotation": {"number": 64, "value": 0}, "group": "control_change"}, {"time": 2165, "annotation": {"number": 64, "value": 127}, "group": "control_change"}, {"time": 2188, "annotation": {"number": 64, "value": 0}, "group": "control_change"}, {"time": 2190, "annotation": {"number": 64, "value": 127}, "group": "control_change"}, {"time": 2212, "annotation": {"number": 64, "value": 0}, "group": "control_change"}, {"time": 2214, "annotation": {"number": 64, "value": 127}, "group": "control_change"}, {"time": 2235, "annotation": {"number": 64, "value": 0}, "group": "control_change"}, {"time": 2236, "annotation": {"number": 64, "value": 127}, "group": "control_change"}, {"time": 2248, "annotation": {"number": 64, "value": 0}, "group": "control_change"}, {"time": 2250, "annotation": {"number": 64, "value": 127}, "group": "control_change"}, {"time": 2260, "annotation": {"number": 64, "value": 0}, "group": "control_change"}, {"time": 2262, "annotation": {"number": 64, "value": 127}, "group": "control_change"}, {"time": 2283, "annotation": {"number": 64, "value": 0}, "group": "control_change"}, {"time": 2285, "annotation": {"number": 64, "value": 127}, "group": "control_change"}, {"time": 2307, "annotation": {"number": 64, "value": 0}, "group": "control_change"}, {"time": 2309, "annotation": {"number": 64, "value": 127}, "group": "control_change"}, {"time": 2331, "annotation": {"number": 64, "value": 0}, "group": "control_change"}, {"time": 2333, "annotation": {"number": 64, "value": 127}, "group": "control_change"}, {"time": 2355, "annotation": {"number": 64, "value": 0}, "group": "control_change"}, {"time": 2356, "annotation": {"number": 64, "value": 127}, "group": "control_change"}, {"time": 2403, "annotation": {"number": 64, "value": 0}, "group": "control_change"}, {"time": 2404, "annotation": {"number": 64, "value": 127}, "group": "control_change"}, {"time": 2452, "annotation": {"number": 64, "value": 0}, "group": "control_change"}, {"time": 2454, "annotation": {"number": 64, "value": 127}, "group": "control_change"}, {"time": 2477, "annotation": {"number": 64, "value": 0}, "group": "control_change"}, {"time": 2479, "annotation": {"number": 64, "value": 127}, "group": "control_change"}, {"time": 2499, "annotation": {"number": 64, "value": 0}, "group": "control_change"}, {"time": 2500, "annotation": {"number": 64, "value": 127}, "group": "control_change"}, {"time": 2524, "annotation": {"number": 64, "value": 0}, "group": "control_change"}, {"time": 2527, "annotation": {"number": 64, "value": 127}, "group": "control_change"}, {"time": 2546, "annotation": {"number": 64, "value": 0}, "group": "control_change"}, {"time": 2549, "annotation": {"number": 64, "value": 127}, "group": "control_change"}, {"time": 2596, "annotation": {"number": 64, "value": 0}, "group": "control_change"}, {"time": 2598, "annotation": {"number": 64, "value": 127}, "group": "control_change"}, {"time": 2644, "annotation": {"number": 64, "value": 0}, "group": "control_change"}, {"time": 2646, "annotation": {"number": 64, "value": 127}, "group": "control_change"}, {"time": 2668, "annotation": {"number": 64, "value": 0}, "group": "control_change"}, {"time": 2671, "annotation": {"number": 64, "value": 127}, "group": "control_change"}, {"time": 2691, "annotation": {"number": 64, "value": 0}, "group": "control_change"}, {"time": 2694, "annotation": {"number": 64, "value": 127}, "group": "control_change"}, {"time": 2716, "annotation": {"number": 64, "value": 127}, "group": "control_change"}, {"time": 2718, "annotation": {"number": 64, "value": 0}, "group": "control_change"}, {"time": 2739, "annotation": {"number": 64, "value": 0}, "group": "control_change"}, {"time": 2742, "annotation": {"number": 64, "value": 127}, "group": "control_change"}, {"time": 2763, "annotation": {"number": 64, "value": 0}, "group": "control_change"}, {"time": 2764, "annotation": {"number": 64, "value": 127}, "group": "control_change"}, {"time": 2787, "annotation": {"number": 64, "value": 0}, "group": "control_change"}, {"time": 2788, "annotation": {"number": 64, "value": 127}, "group": "control_change"}, {"time": 2811, "annotation": {"number": 64, "value": 0}, "group": "control_change"}, {"time": 2814, "annotation": {"number": 64, "value": 127}, "group": "control_change"}, {"time": 2834, "annotation": {"number": 64, "value": 0}, "group": "control_change"}, {"time": 2836, "annotation": {"number": 64, "value": 127}, "group": "control_change"}, {"time": 2858, "annotation": {"number": 64, "value": 0}, "group": "control_change"}, {"time": 2860, "annotation": {"number": 64, "value": 127}, "group": "control_change"}, {"time": 2870, "annotation": {"number": 64, "value": 0}, "group": "control_change"}, {"time": 2872, "annotation": {"number": 64, "value": 127}, "group": "control_change"}, {"time": 2883, "annotation": {"number": 64, "value": 0}, "group": "control_change"}, {"time": 2885, "annotation": {"number": 64, "value": 127}, "group": "control_change"}, {"time": 2907, "annotation": {"number": 64, "value": 0}, "group": "control_change"}, {"time": 2907, "annotation": {"number": 64, "value": 127}, "group": "control_change"}, {"time": 2931, "annotation": {"number": 64, "value": 0}, "group": "control_change"}, {"time": 2933, "annotation": {"number": 64, "value": 127}, "group": "control_change"}, {"time": 2953, "annotation": {"number": 64, "value": 0}, "group": "control_change"}, {"time": 2956, "annotation": {"number": 64, "value": 127}, "group": "control_change"}, {"time": 2966, "annotation": {"number": 64, "value": 0}, "group": "control_change"}, {"time": 2973, "annotation": {"number": 64, "value": 127}, "group": "control_change"}, {"time": 2979, "annotation": {"number": 64, "value": 0}, "group": "control_change"}, {"time": 2981, "annotation": {"number": 64, "value": 127}, "group": "control_change"}, {"time": 3004, "annotation": {"number": 64, "value": 127}, "group": "control_change"}, {"time": 3005, "annotation": {"number": 64, "value": 0}, "group": "control_change"}, {"time": 3015, "annotation": {"number": 64, "value": 0}, "group": "control_change"}, {"time": 3017, "annotation": {"number": 64, "value": 127}, "group": "control_change"}, {"time": 3027, "annotation": {"number": 64, "value": 0}, "group": "control_change"}, {"time": 3032, "annotation": {"number": 64, "value": 127}, "group": "control_change"}, {"time": 3050, "annotation": {"number": 64, "value": 0}, "group": "control_change"}, {"time": 3053, "annotation": {"number": 64, "value": 127}, "group": "control_change"}, {"time": 3063, "annotation": {"number": 64, "value": 0}, "group": "control_change"}, {"time": 3066, "annotation": {"number": 64, "value": 127}, "group": "control_change"}, {"time": 3075, "annotation": {"number": 64, "value": 0}, "group": "control_change"}, {"time": 3077, "annotation": {"number": 64, "value": 127}, "group": "control_change"}, {"time": 3100, "annotation": {"number": 64, "value": 0}, "group": "control_change"}, {"time": 3103, "annotation": {"number": 64, "value": 127}, "group": "control_change"}, {"time": 3124, "annotation": {"number": 64, "value": 0}, "group": "control_change"}, {"time": 3126, "annotation": {"number": 64, "value": 127}, "group": "control_change"}, {"time": 3148, "annotation": {"number": 64, "value": 0}, "group": "control_change"}, {"time": 3151, "annotation": {"number": 64, "value": 127}, "group": "control_change"}, {"time": 3220, "annotation": {"number": 64, "value": 0}, "group": "control_change"}, {"time": 3223, "annotation": {"number": 64, "value": 127}, "group": "control_change"}, {"time": 3243, "annotation": {"number": 64, "value": 0}, "group": "control_change"}, {"time": 3246, "annotation": {"number": 64, "value": 127}, "group": "control_change"}, {"time": 3267, "annotation": {"number": 64, "value": 0}, "group": "control_change"}, {"time": 3269, "annotation": {"number": 64, "value": 127}, "group": "control_change"}, {"time": 3292, "annotation": {"number": 64, "value": 0}, "group": "control_change"}, {"time": 3294, "annotation": {"number": 64, "value": 127}, "group": "control_change"}, {"time": 3318, "annotation": {"number": 64, "value": 0}, "group": "control_change"}, {"time": 3320, "annotation": {"number": 64, "value": 127}, "group": "control_change"}, {"time": 3410, "annotation": {"number": 64, "value": 0}, "group": "control_change"}]}]}