{"metadata": {"schema_version": "0.2", "title": "None", "source_filename": "182.mid", "source_format": "midi"}, "resolution": 12, "tempos": [{"time": 0, "qpm": 60.0}, {"time": 1801, "qpm": 59.50008032510844}, {"time": 1812, "qpm": 60.0}, {"time": 2016, "qpm": 59.250013331253}, {"time": 2161, "qpm": 60.0}, {"time": 2173, "qpm": 60.49997176667984}, {"time": 2544, "qpm": 59.50008032510844}, {"time": 2682, "qpm": 59.70862192500597}, {"time": 2685, "qpm": 60.207777038560074}, {"time": 2689, "qpm": 60.49997176667984}, {"time": 2808, "qpm": 59.50008032510844}, {"time": 3060, "qpm": 59.22971752360551}, {"time": 3063, "qpm": 59.895781340467586}, {"time": 3069, "qpm": 60.99997255001235}, {"time": 3073, "qpm": 60.73519959104966}, {"time": 3076, "qpm": 59.98488380928006}, {"time": 3081, "qpm": 59.4288295194882}, {"time": 3093, "qpm": 59.2867214541847}, {"time": 3105, "qpm": 59.14441686562191}, {"time": 3117, "qpm": 59.002097524567}, {"time": 3129, "qpm": 58.85982630465257}, {"time": 3141, "qpm": 58.71754999065412}, {"time": 3153, "qpm": 58.57521643542473}, {"time": 3165, "qpm": 58.43277455369534}, {"time": 3177, "qpm": 58.29062735287688}, {"time": 3189, "qpm": 58.10957917042765}, {"time": 3208, "qpm": 58.00004253336452}], "key_signatures": [{"time": 0, "root": 0, "mode": "major"}], "time_signatures": [{"time": 0, "numerator": 4, "denominator": 4}, {"time": 0, "numerator": 2, "denominator": 4}], "tracks": [{"program": 0, "is_drum": false, "name": "MELODY", "notes": [{"time": 293, "pitch": 63, "duration": 3, "velocity": 56}, {"time": 296, "pitch": 63, "duration": 3, "velocity": 62}, {"time": 299, "pitch": 72, "duration": 3, "velocity": 70}, {"time": 302, "pitch": 72, "duration": 3, "velocity": 69}, {"time": 305, "pitch": 72, "duration": 3, "velocity": 63}, {"time": 308, "pitch": 70, "duration": 3, "velocity": 66}, {"time": 311, "pitch": 70, "duration": 9, "velocity": 62}, {"time": 320, "pitch": 72, "duration": 3, "velocity": 61}, {"time": 323, "pitch": 63, "duration": 18, "velocity": 55}, {"time": 341, "pitch": 60, "duration": 3, "velocity": 53}, {"time": 344, "pitch": 63, "duration": 3, "velocity": 70}, {"time": 347, "pitch": 70, "duration": 3, "velocity": 61}, {"time": 350, "pitch": 68, "duration": 3, "velocity": 55}, {"time": 353, "pitch": 68, "duration": 3, "velocity": 58}, {"time": 356, "pitch": 68, "duration": 3, "velocity": 59}, {"time": 359, "pitch": 67, "duration": 3, "velocity": 59}, {"time": 362, "pitch": 68, "duration": 6, "velocity": 59}, {"time": 368, "pitch": 67, "duration": 3, "velocity": 43}, {"time": 371, "pitch": 65, "duration": 15, "velocity": 45}, {"time": 386, "pitch": 65, "duration": 3, "velocity": 59}, {"time": 389, "pitch": 68, "duration": 3, "velocity": 69}, {"time": 392, "pitch": 65, "duration": 3, "velocity": 57}, {"time": 395, "pitch": 75, "duration": 6, "velocity": 73}, {"time": 401, "pitch": 73, "duration": 6, "velocity": 80}, {"time": 407, "pitch": 72, "duration": 6, "velocity": 66}, {"time": 413, "pitch": 72, "duration": 3, "velocity": 63}, {"time": 416, "pitch": 73, "duration": 3, "velocity": 59}, {"time": 419, "pitch": 72, "duration": 6, "velocity": 66}, {"time": 425, "pitch": 70, "duration": 12, "velocity": 58}, {"time": 437, "pitch": 70, "duration": 3, "velocity": 59}, {"time": 440, "pitch": 65, "duration": 3, "velocity": 54}, {"time": 443, "pitch": 67, "duration": 3, "velocity": 60}, {"time": 446, "pitch": 67, "duration": 6, "velocity": 60}, {"time": 452, "pitch": 70, "duration": 3, "velocity": 58}, {"time": 455, "pitch": 70, "duration": 3, "velocity": 59}, {"time": 458, "pitch": 65, "duration": 3, "velocity": 54}, {"time": 461, "pitch": 67, "duration": 3, "velocity": 61}, {"time": 464, "pitch": 65, "duration": 3, "velocity": 52}, {"time": 467, "pitch": 63, "duration": 15, "velocity": 49}, {"time": 482, "pitch": 63, "duration": 3, "velocity": 63}, {"time": 485, "pitch": 63, "duration": 3, "velocity": 85}, {"time": 488, "pitch": 63, "duration": 3, "velocity": 82}, {"time": 491, "pitch": 72, "duration": 3, "velocity": 70}, {"time": 494, "pitch": 72, "duration": 3, "velocity": 69}, {"time": 497, "pitch": 72, "duration": 3, "velocity": 63}, {"time": 500, "pitch": 70, "duration": 3, "velocity": 66}, {"time": 503, "pitch": 70, "duration": 9, "velocity": 62}, {"time": 512, "pitch": 72, "duration": 3, "velocity": 61}, {"time": 515, "pitch": 63, "duration": 15, "velocity": 55}, {"time": 530, "pitch": 60, "duration": 3, "velocity": 55}, {"time": 533, "pitch": 63, "duration": 3, "velocity": 53}, {"time": 536, "pitch": 60, "duration": 3, "velocity": 70}, {"time": 539, "pitch": 70, "duration": 6, "velocity": 61}, {"time": 545, "pitch": 68, "duration": 6, "velocity": 55}, {"time": 551, "pitch": 67, "duration": 6, "velocity": 59}, {"time": 557, "pitch": 67, "duration": 3, "velocity": 59}, {"time": 560, "pitch": 68, "duration": 3, "velocity": 43}, {"time": 563, "pitch": 67, "duration": 6, "velocity": 45}, {"time": 569, "pitch": 65, "duration": 9, "velocity": 45}, {"time": 578, "pitch": 65, "duration": 3, "velocity": 59}, {"time": 581, "pitch": 68, "duration": 3, "velocity": 69}, {"time": 584, "pitch": 65, "duration": 3, "velocity": 57}, {"time": 587, "pitch": 75, "duration": 6, "velocity": 73}, {"time": 593, "pitch": 73, "duration": 3, "velocity": 80}, {"time": 596, "pitch": 73, "duration": 3, "velocity": 80}, {"time": 599, "pitch": 72, "duration": 9, "velocity": 66}, {"time": 608, "pitch": 73, "duration": 3, "velocity": 59}, {"time": 611, "pitch": 72, "duration": 6, "velocity": 66}, {"time": 617, "pitch": 70, "duration": 12, "velocity": 58}, {"time": 629, "pitch": 70, "duration": 3, "velocity": 59}, {"time": 632, "pitch": 65, "duration": 3, "velocity": 54}, {"time": 635, "pitch": 67, "duration": 3, "velocity": 60}, {"time": 638, "pitch": 67, "duration": 3, "velocity": 60}, {"time": 641, "pitch": 67, "duration": 3, "velocity": 60}, {"time": 644, "pitch": 70, "duration": 3, "velocity": 58}, {"time": 647, "pitch": 70, "duration": 3, "velocity": 59}, {"time": 650, "pitch": 65, "duration": 3, "velocity": 54}, {"time": 653, "pitch": 67, "duration": 3, "velocity": 61}, {"time": 656, "pitch": 65, "duration": 3, "velocity": 52}, {"time": 659, "pitch": 70, "duration": 3, "velocity": 49}, {"time": 662, "pitch": 68, "duration": 3, "velocity": 49}, {"time": 665, "pitch": 68, "duration": 18, "velocity": 49}, {"time": 701, "pitch": 63, "duration": 4, "velocity": 88}, {"time": 704, "pitch": 65, "duration": 4, "velocity": 72}, {"time": 707, "pitch": 68, "duration": 2, "velocity": 82}, {"time": 710, "pitch": 68, "duration": 2, "velocity": 73}, {"time": 713, "pitch": 68, "duration": 3, "velocity": 88}, {"time": 716, "pitch": 70, "duration": 3, "velocity": 78}, {"time": 719, "pitch": 72, "duration": 5, "velocity": 63}, {"time": 722, "pitch": 72, "duration": 2, "velocity": 97}, {"time": 728, "pitch": 75, "duration": 2, "velocity": 91}, {"time": 731, "pitch": 75, "duration": 13, "velocity": 76}, {"time": 749, "pitch": 72, "duration": 2, "velocity": 93}, {"time": 752, "pitch": 75, "duration": 3, "velocity": 70}, {"time": 755, "pitch": 77, "duration": 2, "velocity": 70}, {"time": 758, "pitch": 77, "duration": 2, "velocity": 75}, {"time": 761, "pitch": 77, "duration": 2, "velocity": 85}, {"time": 764, "pitch": 75, "duration": 2, "velocity": 80}, {"time": 767, "pitch": 77, "duration": 4, "velocity": 95}, {"time": 773, "pitch": 72, "duration": 4, "velocity": 78}, {"time": 776, "pitch": 75, "duration": 1, "velocity": 74}, {"time": 779, "pitch": 72, "duration": 5, "velocity": 91}, {"time": 785, "pitch": 65, "duration": 4, "velocity": 72}, {"time": 791, "pitch": 68, "duration": 6, "velocity": 67}, {"time": 803, "pitch": 70, "duration": 8, "velocity": 74}, {"time": 845, "pitch": 70, "duration": 3, "velocity": 97}, {"time": 848, "pitch": 72, "duration": 3, "velocity": 78}, {"time": 851, "pitch": 75, "duration": 3, "velocity": 63}, {"time": 854, "pitch": 75, "duration": 3, "velocity": 67}, {"time": 857, "pitch": 75, "duration": 3, "velocity": 75}, {"time": 860, "pitch": 72, "duration": 3, "velocity": 78}, {"time": 863, "pitch": 70, "duration": 3, "velocity": 88}, {"time": 866, "pitch": 72, "duration": 6, "velocity": 88}, {"time": 872, "pitch": 67, "duration": 3, "velocity": 78}, {"time": 875, "pitch": 65, "duration": 18, "velocity": 95}, {"time": 893, "pitch": 70, "duration": 3, "velocity": 95}, {"time": 896, "pitch": 65, "duration": 3, "velocity": 64}, {"time": 899, "pitch": 67, "duration": 3, "velocity": 67}, {"time": 902, "pitch": 67, "duration": 6, "velocity": 69}, {"time": 908, "pitch": 70, "duration": 3, "velocity": 69}, {"time": 911, "pitch": 70, "duration": 3, "velocity": 58}, {"time": 914, "pitch": 65, "duration": 3, "velocity": 67}, {"time": 917, "pitch": 67, "duration": 3, "velocity": 75}, {"time": 920, "pitch": 65, "duration": 3, "velocity": 64}, {"time": 923, "pitch": 65, "duration": 6, "velocity": 70}, {"time": 929, "pitch": 63, "duration": 16, "velocity": 70}, {"time": 941, "pitch": 63, "duration": 4, "velocity": 76}, {"time": 944, "pitch": 65, "duration": 2, "velocity": 75}, {"time": 947, "pitch": 68, "duration": 2, "velocity": 72}, {"time": 950, "pitch": 68, "duration": 1, "velocity": 72}, {"time": 953, "pitch": 68, "duration": 2, "velocity": 88}, {"time": 956, "pitch": 70, "duration": 2, "velocity": 78}, {"time": 959, "pitch": 72, "duration": 1, "velocity": 99}, {"time": 962, "pitch": 72, "duration": 5, "velocity": 80}, {"time": 968, "pitch": 75, "duration": 2, "velocity": 88}, {"time": 971, "pitch": 77, "duration": 2, "velocity": 70}, {"time": 977, "pitch": 75, "duration": 9, "velocity": 88}, {"time": 989, "pitch": 72, "duration": 2, "velocity": 80}, {"time": 992, "pitch": 75, "duration": 3, "velocity": 66}, {"time": 995, "pitch": 77, "duration": 2, "velocity": 70}, {"time": 998, "pitch": 77, "duration": 2, "velocity": 72}, {"time": 1001, "pitch": 77, "duration": 2, "velocity": 80}, {"time": 1004, "pitch": 75, "duration": 3, "velocity": 82}, {"time": 1007, "pitch": 77, "duration": 3, "velocity": 91}, {"time": 1013, "pitch": 72, "duration": 3, "velocity": 82}, {"time": 1016, "pitch": 75, "duration": 3, "velocity": 64}, {"time": 1019, "pitch": 72, "duration": 4, "velocity": 80}, {"time": 1025, "pitch": 65, "duration": 7, "velocity": 91}, {"time": 1031, "pitch": 65, "duration": 1, "velocity": 80}, {"time": 1037, "pitch": 68, "duration": 7, "velocity": 80}, {"time": 1043, "pitch": 70, "duration": 31, "velocity": 80}, {"time": 1085, "pitch": 70, "duration": 2, "velocity": 95}, {"time": 1088, "pitch": 72, "duration": 2, "velocity": 78}, {"time": 1091, "pitch": 75, "duration": 2, "velocity": 82}, {"time": 1094, "pitch": 75, "duration": 1, "velocity": 78}, {"time": 1097, "pitch": 75, "duration": 2, "velocity": 75}, {"time": 1100, "pitch": 72, "duration": 2, "velocity": 82}, {"time": 1103, "pitch": 70, "duration": 2, "velocity": 95}, {"time": 1106, "pitch": 72, "duration": 4, "velocity": 85}, {"time": 1112, "pitch": 67, "duration": 3, "velocity": 69}, {"time": 1118, "pitch": 65, "duration": 6, "velocity": 59}, {"time": 1133, "pitch": 63, "duration": 3, "velocity": 85}, {"time": 1136, "pitch": 65, "duration": 2, "velocity": 70}, {"time": 1139, "pitch": 75, "duration": 5, "velocity": 80}, {"time": 1145, "pitch": 72, "duration": 5, "velocity": 93}, {"time": 1151, "pitch": 70, "duration": 1, "velocity": 101}, {"time": 1154, "pitch": 70, "duration": 4, "velocity": 93}, {"time": 1160, "pitch": 72, "duration": 4, "velocity": 73}, {"time": 1163, "pitch": 70, "duration": 4, "velocity": 76}, {"time": 1166, "pitch": 68, "duration": 2, "velocity": 60}, {"time": 1169, "pitch": 65, "duration": 10, "velocity": 62}, {"time": 1181, "pitch": 70, "duration": 6, "velocity": 59}, {"time": 1187, "pitch": 68, "duration": 19, "velocity": 59}, {"time": 1613, "pitch": 63, "duration": 3, "velocity": 56}, {"time": 1616, "pitch": 63, "duration": 3, "velocity": 62}, {"time": 1619, "pitch": 72, "duration": 3, "velocity": 70}, {"time": 1622, "pitch": 72, "duration": 3, "velocity": 69}, {"time": 1625, "pitch": 72, "duration": 3, "velocity": 63}, {"time": 1628, "pitch": 70, "duration": 3, "velocity": 66}, {"time": 1631, "pitch": 70, "duration": 9, "velocity": 62}, {"time": 1640, "pitch": 72, "duration": 3, "velocity": 61}, {"time": 1643, "pitch": 63, "duration": 18, "velocity": 55}, {"time": 1661, "pitch": 60, "duration": 3, "velocity": 53}, {"time": 1664, "pitch": 63, "duration": 3, "velocity": 70}, {"time": 1667, "pitch": 70, "duration": 3, "velocity": 61}, {"time": 1670, "pitch": 68, "duration": 3, "velocity": 55}, {"time": 1673, "pitch": 68, "duration": 3, "velocity": 58}, {"time": 1676, "pitch": 68, "duration": 3, "velocity": 59}, {"time": 1679, "pitch": 67, "duration": 3, "velocity": 59}, {"time": 1682, "pitch": 68, "duration": 6, "velocity": 59}, {"time": 1688, "pitch": 67, "duration": 3, "velocity": 43}, {"time": 1691, "pitch": 65, "duration": 15, "velocity": 45}, {"time": 1706, "pitch": 65, "duration": 3, "velocity": 59}, {"time": 1709, "pitch": 68, "duration": 3, "velocity": 69}, {"time": 1712, "pitch": 65, "duration": 3, "velocity": 57}, {"time": 1715, "pitch": 75, "duration": 6, "velocity": 73}, {"time": 1721, "pitch": 73, "duration": 6, "velocity": 80}, {"time": 1727, "pitch": 72, "duration": 6, "velocity": 66}, {"time": 1733, "pitch": 72, "duration": 3, "velocity": 63}, {"time": 1736, "pitch": 73, "duration": 3, "velocity": 59}, {"time": 1739, "pitch": 72, "duration": 6, "velocity": 66}, {"time": 1745, "pitch": 70, "duration": 12, "velocity": 58}, {"time": 1757, "pitch": 70, "duration": 3, "velocity": 59}, {"time": 1760, "pitch": 65, "duration": 3, "velocity": 54}, {"time": 1763, "pitch": 67, "duration": 3, "velocity": 60}, {"time": 1766, "pitch": 67, "duration": 6, "velocity": 60}, {"time": 1772, "pitch": 70, "duration": 3, "velocity": 58}, {"time": 1775, "pitch": 70, "duration": 3, "velocity": 59}, {"time": 1778, "pitch": 65, "duration": 3, "velocity": 54}, {"time": 1781, "pitch": 67, "duration": 3, "velocity": 61}, {"time": 1784, "pitch": 65, "duration": 3, "velocity": 52}, {"time": 1787, "pitch": 63, "duration": 15, "velocity": 49}, {"time": 1802, "pitch": 63, "duration": 3, "velocity": 63}, {"time": 1805, "pitch": 63, "duration": 3, "velocity": 85}, {"time": 1808, "pitch": 63, "duration": 3, "velocity": 82}, {"time": 1811, "pitch": 72, "duration": 3, "velocity": 70}, {"time": 1814, "pitch": 72, "duration": 3, "velocity": 69}, {"time": 1817, "pitch": 72, "duration": 3, "velocity": 63}, {"time": 1820, "pitch": 70, "duration": 3, "velocity": 66}, {"time": 1823, "pitch": 70, "duration": 9, "velocity": 62}, {"time": 1832, "pitch": 72, "duration": 3, "velocity": 61}, {"time": 1835, "pitch": 63, "duration": 15, "velocity": 55}, {"time": 1850, "pitch": 60, "duration": 3, "velocity": 55}, {"time": 1853, "pitch": 63, "duration": 3, "velocity": 53}, {"time": 1856, "pitch": 60, "duration": 3, "velocity": 70}, {"time": 1859, "pitch": 70, "duration": 6, "velocity": 61}, {"time": 1865, "pitch": 68, "duration": 6, "velocity": 55}, {"time": 1871, "pitch": 67, "duration": 6, "velocity": 59}, {"time": 1877, "pitch": 67, "duration": 3, "velocity": 59}, {"time": 1880, "pitch": 68, "duration": 3, "velocity": 43}, {"time": 1883, "pitch": 67, "duration": 6, "velocity": 45}, {"time": 1889, "pitch": 65, "duration": 9, "velocity": 45}, {"time": 1898, "pitch": 65, "duration": 3, "velocity": 59}, {"time": 1901, "pitch": 68, "duration": 3, "velocity": 69}, {"time": 1904, "pitch": 65, "duration": 3, "velocity": 57}, {"time": 1907, "pitch": 75, "duration": 6, "velocity": 73}, {"time": 1913, "pitch": 73, "duration": 3, "velocity": 80}, {"time": 1916, "pitch": 73, "duration": 3, "velocity": 80}, {"time": 1919, "pitch": 72, "duration": 9, "velocity": 66}, {"time": 1928, "pitch": 73, "duration": 3, "velocity": 59}, {"time": 1931, "pitch": 72, "duration": 6, "velocity": 66}, {"time": 1937, "pitch": 70, "duration": 12, "velocity": 58}, {"time": 1949, "pitch": 70, "duration": 3, "velocity": 59}, {"time": 1952, "pitch": 65, "duration": 3, "velocity": 54}, {"time": 1955, "pitch": 67, "duration": 3, "velocity": 60}, {"time": 1958, "pitch": 67, "duration": 3, "velocity": 60}, {"time": 1961, "pitch": 67, "duration": 3, "velocity": 60}, {"time": 1964, "pitch": 70, "duration": 3, "velocity": 58}, {"time": 1967, "pitch": 70, "duration": 3, "velocity": 59}, {"time": 1970, "pitch": 65, "duration": 3, "velocity": 54}, {"time": 1973, "pitch": 67, "duration": 3, "velocity": 61}, {"time": 1976, "pitch": 65, "duration": 3, "velocity": 52}, {"time": 1979, "pitch": 70, "duration": 3, "velocity": 49}, {"time": 1982, "pitch": 68, "duration": 3, "velocity": 49}, {"time": 1985, "pitch": 68, "duration": 18, "velocity": 49}, {"time": 2021, "pitch": 63, "duration": 4, "velocity": 88}, {"time": 2024, "pitch": 65, "duration": 4, "velocity": 72}, {"time": 2027, "pitch": 68, "duration": 2, "velocity": 82}, {"time": 2030, "pitch": 68, "duration": 2, "velocity": 73}, {"time": 2033, "pitch": 68, "duration": 3, "velocity": 88}, {"time": 2036, "pitch": 70, "duration": 3, "velocity": 78}, {"time": 2039, "pitch": 72, "duration": 5, "velocity": 63}, {"time": 2042, "pitch": 72, "duration": 2, "velocity": 97}, {"time": 2048, "pitch": 75, "duration": 2, "velocity": 91}, {"time": 2051, "pitch": 75, "duration": 13, "velocity": 76}, {"time": 2069, "pitch": 72, "duration": 2, "velocity": 93}, {"time": 2072, "pitch": 75, "duration": 3, "velocity": 70}, {"time": 2075, "pitch": 77, "duration": 2, "velocity": 70}, {"time": 2078, "pitch": 77, "duration": 2, "velocity": 75}, {"time": 2081, "pitch": 77, "duration": 2, "velocity": 85}, {"time": 2084, "pitch": 75, "duration": 2, "velocity": 80}, {"time": 2087, "pitch": 77, "duration": 4, "velocity": 95}, {"time": 2093, "pitch": 72, "duration": 4, "velocity": 78}, {"time": 2096, "pitch": 75, "duration": 1, "velocity": 74}, {"time": 2099, "pitch": 72, "duration": 5, "velocity": 91}, {"time": 2105, "pitch": 65, "duration": 4, "velocity": 72}, {"time": 2111, "pitch": 68, "duration": 6, "velocity": 67}, {"time": 2123, "pitch": 70, "duration": 24, "velocity": 74}, {"time": 2165, "pitch": 70, "duration": 3, "velocity": 97}, {"time": 2168, "pitch": 72, "duration": 3, "velocity": 78}, {"time": 2171, "pitch": 75, "duration": 3, "velocity": 63}, {"time": 2174, "pitch": 75, "duration": 3, "velocity": 67}, {"time": 2177, "pitch": 75, "duration": 3, "velocity": 75}, {"time": 2180, "pitch": 72, "duration": 3, "velocity": 78}, {"time": 2183, "pitch": 70, "duration": 3, "velocity": 88}, {"time": 2186, "pitch": 72, "duration": 6, "velocity": 88}, {"time": 2192, "pitch": 67, "duration": 3, "velocity": 78}, {"time": 2195, "pitch": 65, "duration": 18, "velocity": 95}, {"time": 2213, "pitch": 70, "duration": 3, "velocity": 95}, {"time": 2216, "pitch": 65, "duration": 3, "velocity": 64}, {"time": 2219, "pitch": 67, "duration": 3, "velocity": 67}, {"time": 2222, "pitch": 67, "duration": 6, "velocity": 69}, {"time": 2228, "pitch": 70, "duration": 3, "velocity": 69}, {"time": 2231, "pitch": 70, "duration": 3, "velocity": 58}, {"time": 2234, "pitch": 65, "duration": 3, "velocity": 67}, {"time": 2237, "pitch": 67, "duration": 3, "velocity": 75}, {"time": 2240, "pitch": 65, "duration": 3, "velocity": 64}, {"time": 2243, "pitch": 65, "duration": 6, "velocity": 70}, {"time": 2249, "pitch": 63, "duration": 16, "velocity": 70}, {"time": 2261, "pitch": 63, "duration": 4, "velocity": 76}, {"time": 2264, "pitch": 65, "duration": 2, "velocity": 75}, {"time": 2267, "pitch": 68, "duration": 2, "velocity": 72}, {"time": 2270, "pitch": 68, "duration": 1, "velocity": 72}, {"time": 2273, "pitch": 68, "duration": 2, "velocity": 88}, {"time": 2276, "pitch": 70, "duration": 2, "velocity": 78}, {"time": 2279, "pitch": 72, "duration": 1, "velocity": 99}, {"time": 2282, "pitch": 72, "duration": 5, "velocity": 80}, {"time": 2288, "pitch": 75, "duration": 2, "velocity": 88}, {"time": 2291, "pitch": 77, "duration": 2, "velocity": 70}, {"time": 2297, "pitch": 75, "duration": 9, "velocity": 88}, {"time": 2309, "pitch": 72, "duration": 2, "velocity": 80}, {"time": 2312, "pitch": 75, "duration": 3, "velocity": 66}, {"time": 2315, "pitch": 77, "duration": 2, "velocity": 70}, {"time": 2318, "pitch": 77, "duration": 2, "velocity": 72}, {"time": 2321, "pitch": 77, "duration": 2, "velocity": 80}, {"time": 2324, "pitch": 75, "duration": 3, "velocity": 82}, {"time": 2327, "pitch": 77, "duration": 3, "velocity": 91}, {"time": 2333, "pitch": 72, "duration": 3, "velocity": 82}, {"time": 2336, "pitch": 75, "duration": 3, "velocity": 64}, {"time": 2339, "pitch": 72, "duration": 4, "velocity": 80}, {"time": 2345, "pitch": 65, "duration": 7, "velocity": 91}, {"time": 2351, "pitch": 65, "duration": 1, "velocity": 80}, {"time": 2357, "pitch": 68, "duration": 7, "velocity": 80}, {"time": 2363, "pitch": 70, "duration": 7, "velocity": 80}, {"time": 2406, "pitch": 70, "duration": 2, "velocity": 95}, {"time": 2409, "pitch": 72, "duration": 2, "velocity": 78}, {"time": 2412, "pitch": 75, "duration": 2, "velocity": 82}, {"time": 2415, "pitch": 75, "duration": 2, "velocity": 78}, {"time": 2418, "pitch": 75, "duration": 2, "velocity": 75}, {"time": 2421, "pitch": 72, "duration": 3, "velocity": 82}, {"time": 2424, "pitch": 70, "duration": 2, "velocity": 95}, {"time": 2427, "pitch": 72, "duration": 4, "velocity": 85}, {"time": 2433, "pitch": 67, "duration": 3, "velocity": 69}, {"time": 2439, "pitch": 65, "duration": 6, "velocity": 59}, {"time": 2454, "pitch": 63, "duration": 3, "velocity": 85}, {"time": 2457, "pitch": 65, "duration": 2, "velocity": 70}, {"time": 2460, "pitch": 75, "duration": 5, "velocity": 80}, {"time": 2466, "pitch": 72, "duration": 6, "velocity": 93}, {"time": 2472, "pitch": 70, "duration": 1, "velocity": 101}, {"time": 2475, "pitch": 70, "duration": 4, "velocity": 93}, {"time": 2481, "pitch": 72, "duration": 4, "velocity": 73}, {"time": 2484, "pitch": 70, "duration": 4, "velocity": 76}, {"time": 2487, "pitch": 68, "duration": 3, "velocity": 60}, {"time": 2490, "pitch": 65, "duration": 3, "velocity": 62}, {"time": 2502, "pitch": 70, "duration": 6, "velocity": 59}, {"time": 2508, "pitch": 68, "duration": 6, "velocity": 59}, {"time": 2550, "pitch": 63, "duration": 4, "velocity": 88}, {"time": 2553, "pitch": 65, "duration": 4, "velocity": 72}, {"time": 2556, "pitch": 68, "duration": 2, "velocity": 82}, {"time": 2559, "pitch": 68, "duration": 2, "velocity": 73}, {"time": 2562, "pitch": 68, "duration": 3, "velocity": 88}, {"time": 2565, "pitch": 70, "duration": 3, "velocity": 78}, {"time": 2568, "pitch": 72, "duration": 5, "velocity": 63}, {"time": 2571, "pitch": 72, "duration": 2, "velocity": 97}, {"time": 2577, "pitch": 75, "duration": 2, "velocity": 91}, {"time": 2580, "pitch": 75, "duration": 13, "velocity": 76}, {"time": 2598, "pitch": 72, "duration": 2, "velocity": 93}, {"time": 2601, "pitch": 75, "duration": 3, "velocity": 70}, {"time": 2604, "pitch": 77, "duration": 2, "velocity": 70}, {"time": 2607, "pitch": 77, "duration": 2, "velocity": 75}, {"time": 2610, "pitch": 77, "duration": 2, "velocity": 85}, {"time": 2613, "pitch": 75, "duration": 2, "velocity": 80}, {"time": 2616, "pitch": 77, "duration": 5, "velocity": 95}, {"time": 2622, "pitch": 72, "duration": 4, "velocity": 78}, {"time": 2625, "pitch": 75, "duration": 2, "velocity": 74}, {"time": 2628, "pitch": 72, "duration": 5, "velocity": 91}, {"time": 2634, "pitch": 65, "duration": 4, "velocity": 72}, {"time": 2640, "pitch": 68, "duration": 6, "velocity": 67}, {"time": 2652, "pitch": 70, "duration": 8, "velocity": 74}, {"time": 2694, "pitch": 70, "duration": 3, "velocity": 97}, {"time": 2697, "pitch": 72, "duration": 3, "velocity": 78}, {"time": 2700, "pitch": 75, "duration": 3, "velocity": 63}, {"time": 2703, "pitch": 75, "duration": 3, "velocity": 67}, {"time": 2706, "pitch": 75, "duration": 3, "velocity": 75}, {"time": 2709, "pitch": 72, "duration": 3, "velocity": 78}, {"time": 2712, "pitch": 70, "duration": 3, "velocity": 88}, {"time": 2715, "pitch": 72, "duration": 6, "velocity": 88}, {"time": 2721, "pitch": 67, "duration": 3, "velocity": 78}, {"time": 2724, "pitch": 65, "duration": 18, "velocity": 95}, {"time": 2742, "pitch": 70, "duration": 3, "velocity": 95}, {"time": 2745, "pitch": 65, "duration": 3, "velocity": 64}, {"time": 2748, "pitch": 67, "duration": 3, "velocity": 67}, {"time": 2751, "pitch": 67, "duration": 6, "velocity": 69}, {"time": 2757, "pitch": 70, "duration": 3, "velocity": 69}, {"time": 2760, "pitch": 70, "duration": 3, "velocity": 58}, {"time": 2763, "pitch": 65, "duration": 3, "velocity": 67}, {"time": 2766, "pitch": 67, "duration": 3, "velocity": 75}, {"time": 2769, "pitch": 65, "duration": 3, "velocity": 64}, {"time": 2772, "pitch": 65, "duration": 6, "velocity": 70}, {"time": 2778, "pitch": 63, "duration": 16, "velocity": 70}, {"time": 2790, "pitch": 63, "duration": 4, "velocity": 76}, {"time": 2793, "pitch": 65, "duration": 3, "velocity": 75}, {"time": 2796, "pitch": 68, "duration": 2, "velocity": 72}, {"time": 2799, "pitch": 68, "duration": 2, "velocity": 72}, {"time": 2802, "pitch": 68, "duration": 3, "velocity": 88}, {"time": 2805, "pitch": 70, "duration": 2, "velocity": 78}, {"time": 2808, "pitch": 72, "duration": 2, "velocity": 99}, {"time": 2811, "pitch": 72, "duration": 5, "velocity": 80}, {"time": 2817, "pitch": 75, "duration": 2, "velocity": 88}, {"time": 2820, "pitch": 77, "duration": 2, "velocity": 70}, {"time": 2826, "pitch": 75, "duration": 9, "velocity": 88}, {"time": 2838, "pitch": 72, "duration": 2, "velocity": 80}, {"time": 2841, "pitch": 75, "duration": 3, "velocity": 66}, {"time": 2844, "pitch": 77, "duration": 2, "velocity": 70}, {"time": 2847, "pitch": 77, "duration": 2, "velocity": 72}, {"time": 2850, "pitch": 77, "duration": 2, "velocity": 80}, {"time": 2853, "pitch": 75, "duration": 3, "velocity": 82}, {"time": 2856, "pitch": 77, "duration": 3, "velocity": 91}, {"time": 2862, "pitch": 72, "duration": 3, "velocity": 82}, {"time": 2865, "pitch": 75, "duration": 3, "velocity": 64}, {"time": 2868, "pitch": 72, "duration": 4, "velocity": 80}, {"time": 2874, "pitch": 65, "duration": 7, "velocity": 91}, {"time": 2880, "pitch": 65, "duration": 1, "velocity": 80}, {"time": 2886, "pitch": 68, "duration": 7, "velocity": 80}, {"time": 2892, "pitch": 70, "duration": 7, "velocity": 80}, {"time": 2934, "pitch": 70, "duration": 2, "velocity": 95}, {"time": 2937, "pitch": 72, "duration": 2, "velocity": 78}, {"time": 2940, "pitch": 75, "duration": 2, "velocity": 82}, {"time": 2943, "pitch": 75, "duration": 2, "velocity": 78}, {"time": 2946, "pitch": 75, "duration": 2, "velocity": 75}, {"time": 2949, "pitch": 72, "duration": 3, "velocity": 82}, {"time": 2952, "pitch": 70, "duration": 2, "velocity": 95}, {"time": 2955, "pitch": 72, "duration": 4, "velocity": 85}, {"time": 2961, "pitch": 67, "duration": 3, "velocity": 69}, {"time": 2967, "pitch": 65, "duration": 6, "velocity": 59}, {"time": 2982, "pitch": 63, "duration": 3, "velocity": 85}, {"time": 2985, "pitch": 65, "duration": 2, "velocity": 70}, {"time": 2988, "pitch": 75, "duration": 5, "velocity": 80}, {"time": 2994, "pitch": 72, "duration": 6, "velocity": 93}, {"time": 3000, "pitch": 70, "duration": 1, "velocity": 101}, {"time": 3003, "pitch": 70, "duration": 4, "velocity": 93}, {"time": 3009, "pitch": 72, "duration": 4, "velocity": 73}, {"time": 3012, "pitch": 70, "duration": 4, "velocity": 76}, {"time": 3015, "pitch": 68, "duration": 3, "velocity": 60}, {"time": 3018, "pitch": 65, "duration": 3, "velocity": 62}, {"time": 3030, "pitch": 70, "duration": 6, "velocity": 59}, {"time": 3036, "pitch": 68, "duration": 6, "velocity": 59}, {"time": 3078, "pitch": 63, "duration": 4, "velocity": 73}, {"time": 3081, "pitch": 65, "duration": 2, "velocity": 67}, {"time": 3084, "pitch": 75, "duration": 6, "velocity": 73}, {"time": 3090, "pitch": 72, "duration": 5, "velocity": 80}, {"time": 3096, "pitch": 70, "duration": 5, "velocity": 64}, {"time": 3102, "pitch": 70, "duration": 3, "velocity": 63}, {"time": 3105, "pitch": 72, "duration": 4, "velocity": 69}, {"time": 3109, "pitch": 70, "duration": 8, "velocity": 64}, {"time": 3117, "pitch": 65, "duration": 13, "velocity": 73}, {"time": 3157, "pitch": 70, "duration": 11, "velocity": 69}, {"time": 3169, "pitch": 68, "duration": 14, "velocity": 91}], "annotations": [{"time": 304, "annotation": {"number": 64, "value": 127}, "group": "control_change"}, {"time": 321, "annotation": {"number": 64, "value": 0}, "group": "control_change"}, {"time": 326, "annotation": {"number": 64, "value": 127}, "group": "control_change"}, {"time": 338, "annotation": {"number": 64, "value": 0}, "group": "control_change"}, {"time": 348, "annotation": {"number": 64, "value": 127}, "group": "control_change"}, {"time": 370, "annotation": {"number": 64, "value": 0}, "group": "control_change"}, {"time": 372, "annotation": {"number": 64, "value": 127}, "group": "control_change"}, {"time": 394, "annotation": {"number": 64, "value": 0}, "group": "control_change"}, {"time": 397, "annotation": {"number": 64, "value": 127}, "group": "control_change"}, {"time": 442, "annotation": {"number": 64, "value": 0}, "group": "control_change"}, {"time": 445, "annotation": {"number": 64, "value": 127}, "group": "control_change"}, {"time": 465, "annotation": {"number": 64, "value": 0}, "group": "control_change"}, {"time": 467, "annotation": {"number": 64, "value": 127}, "group": "control_change"}, {"time": 490, "annotation": {"number": 64, "value": 0}, "group": "control_change"}, {"time": 493, "annotation": {"number": 64, "value": 127}, "group": "control_change"}, {"time": 518, "annotation": {"number": 64, "value": 0}, "group": "control_change"}, {"time": 520, "annotation": {"number": 64, "value": 127}, "group": "control_change"}, {"time": 539, "annotation": {"number": 64, "value": 0}, "group": "control_change"}, {"time": 542, "annotation": {"number": 64, "value": 127}, "group": "control_change"}, {"time": 562, "annotation": {"number": 64, "value": 0}, "group": "control_change"}, {"time": 564, "annotation": {"number": 64, "value": 127}, "group": "control_change"}, {"time": 589, "annotation": {"number": 64, "value": 0}, "group": "control_change"}, {"time": 591, "annotation": {"number": 64, "value": 127}, "group": "control_change"}, {"time": 612, "annotation": {"number": 64, "value": 0}, "group": "control_change"}, {"time": 615, "annotation": {"number": 64, "value": 127}, "group": "control_change"}, {"time": 634, "annotation": {"number": 64, "value": 0}, "group": "control_change"}, {"time": 637, "annotation": {"number": 64, "value": 127}, "group": "control_change"}, {"time": 656, "annotation": {"number": 64, "value": 0}, "group": "control_change"}, {"time": 660, "annotation": {"number": 64, "value": 127}, "group": "control_change"}, {"time": 703, "annotation": {"number": 64, "value": 0}, "group": "control_change"}, {"time": 709, "annotation": {"number": 64, "value": 127}, "group": "control_change"}, {"time": 731, "annotation": {"number": 64, "value": 0}, "group": "control_change"}, {"time": 734, "annotation": {"number": 64, "value": 127}, "group": "control_change"}, {"time": 756, "annotation": {"number": 64, "value": 0}, "group": "control_change"}, {"time": 758, "annotation": {"number": 64, "value": 127}, "group": "control_change"}, {"time": 779, "annotation": {"number": 64, "value": 0}, "group": "control_change"}, {"time": 781, "annotation": {"number": 64, "value": 127}, "group": "control_change"}, {"time": 803, "annotation": {"number": 64, "value": 0}, "group": "control_change"}, {"time": 805, "annotation": {"number": 64, "value": 127}, "group": "control_change"}, {"time": 828, "annotation": {"number": 64, "value": 0}, "group": "control_change"}, {"time": 830, "annotation": {"number": 64, "value": 127}, "group": "control_change"}, {"time": 848, "annotation": {"number": 64, "value": 127}, "group": "control_change"}, {"time": 851, "annotation": {"number": 64, "value": 0}, "group": "control_change"}, {"time": 854, "annotation": {"number": 64, "value": 127}, "group": "control_change"}, {"time": 874, "annotation": {"number": 64, "value": 0}, "group": "control_change"}, {"time": 876, "annotation": {"number": 64, "value": 127}, "group": "control_change"}, {"time": 899, "annotation": {"number": 64, "value": 0}, "group": "control_change"}, {"time": 900, "annotation": {"number": 64, "value": 0}, "group": "control_change"}, {"time": 902, "annotation": {"number": 64, "value": 127}, "group": "control_change"}, {"time": 922, "annotation": {"number": 64, "value": 0}, "group": "control_change"}, {"time": 924, "annotation": {"number": 64, "value": 127}, "group": "control_change"}, {"time": 947, "annotation": {"number": 64, "value": 0}, "group": "control_change"}, {"time": 950, "annotation": {"number": 64, "value": 127}, "group": "control_change"}, {"time": 970, "annotation": {"number": 64, "value": 0}, "group": "control_change"}, {"time": 973, "annotation": {"number": 64, "value": 127}, "group": "control_change"}, {"time": 1019, "annotation": {"number": 64, "value": 0}, "group": "control_change"}, {"time": 1022, "annotation": {"number": 64, "value": 127}, "group": "control_change"}, {"time": 1054, "annotation": {"number": 64, "value": 0}, "group": "control_change"}, {"time": 1057, "annotation": {"number": 64, "value": 127}, "group": "control_change"}, {"time": 1107, "annotation": {"number": 64, "value": 0}, "group": "control_change"}, {"time": 1109, "annotation": {"number": 64, "value": 127}, "group": "control_change"}, {"time": 1157, "annotation": {"number": 64, "value": 0}, "group": "control_change"}, {"time": 1160, "annotation": {"number": 64, "value": 127}, "group": "control_change"}, {"time": 1196, "annotation": {"number": 64, "value": 0}, "group": "control_change"}, {"time": 1198, "annotation": {"number": 64, "value": 127}, "group": "control_change"}, {"time": 1211, "annotation": {"number": 64, "value": 0}, "group": "control_change"}, {"time": 1619, "annotation": {"number": 64, "value": 127}, "group": "control_change"}, {"time": 1624, "annotation": {"number": 64, "value": 127}, "group": "control_change"}, {"time": 1641, "annotation": {"number": 64, "value": 0}, "group": "control_change"}, {"time": 1646, "annotation": {"number": 64, "value": 127}, "group": "control_change"}, {"time": 1658, "annotation": {"number": 64, "value": 0}, "group": "control_change"}, {"time": 1668, "annotation": {"number": 64, "value": 127}, "group": "control_change"}, {"time": 1690, "annotation": {"number": 64, "value": 0}, "group": "control_change"}, {"time": 1692, "annotation": {"number": 64, "value": 127}, "group": "control_change"}, {"time": 1714, "annotation": {"number": 64, "value": 0}, "group": "control_change"}, {"time": 1717, "annotation": {"number": 64, "value": 127}, "group": "control_change"}, {"time": 1762, "annotation": {"number": 64, "value": 0}, "group": "control_change"}, {"time": 1765, "annotation": {"number": 64, "value": 127}, "group": "control_change"}, {"time": 1785, "annotation": {"number": 64, "value": 0}, "group": "control_change"}, {"time": 1787, "annotation": {"number": 64, "value": 127}, "group": "control_change"}, {"time": 1810, "annotation": {"number": 64, "value": 0}, "group": "control_change"}, {"time": 1813, "annotation": {"number": 64, "value": 127}, "group": "control_change"}, {"time": 1838, "annotation": {"number": 64, "value": 0}, "group": "control_change"}, {"time": 1840, "annotation": {"number": 64, "value": 127}, "group": "control_change"}, {"time": 1859, "annotation": {"number": 64, "value": 0}, "group": "control_change"}, {"time": 1862, "annotation": {"number": 64, "value": 127}, "group": "control_change"}, {"time": 1882, "annotation": {"number": 64, "value": 0}, "group": "control_change"}, {"time": 1884, "annotation": {"number": 64, "value": 127}, "group": "control_change"}, {"time": 1909, "annotation": {"number": 64, "value": 0}, "group": "control_change"}, {"time": 1911, "annotation": {"number": 64, "value": 127}, "group": "control_change"}, {"time": 1932, "annotation": {"number": 64, "value": 0}, "group": "control_change"}, {"time": 1935, "annotation": {"number": 64, "value": 127}, "group": "control_change"}, {"time": 1954, "annotation": {"number": 64, "value": 0}, "group": "control_change"}, {"time": 1957, "annotation": {"number": 64, "value": 127}, "group": "control_change"}, {"time": 1976, "annotation": {"number": 64, "value": 0}, "group": "control_change"}, {"time": 1980, "annotation": {"number": 64, "value": 127}, "group": "control_change"}, {"time": 2003, "annotation": {"number": 64, "value": 0}, "group": "control_change"}, {"time": 2023, "annotation": {"number": 64, "value": 0}, "group": "control_change"}, {"time": 2029, "annotation": {"number": 64, "value": 127}, "group": "control_change"}, {"time": 2051, "annotation": {"number": 64, "value": 0}, "group": "control_change"}, {"time": 2054, "annotation": {"number": 64, "value": 127}, "group": "control_change"}, {"time": 2076, "annotation": {"number": 64, "value": 0}, "group": "control_change"}, {"time": 2078, "annotation": {"number": 64, "value": 127}, "group": "control_change"}, {"time": 2099, "annotation": {"number": 64, "value": 0}, "group": "control_change"}, {"time": 2101, "annotation": {"number": 64, "value": 127}, "group": "control_change"}, {"time": 2123, "annotation": {"number": 64, "value": 0}, "group": "control_change"}, {"time": 2125, "annotation": {"number": 64, "value": 127}, "group": "control_change"}, {"time": 2148, "annotation": {"number": 64, "value": 0}, "group": "control_change"}, {"time": 2150, "annotation": {"number": 64, "value": 127}, "group": "control_change"}, {"time": 2168, "annotation": {"number": 64, "value": 127}, "group": "control_change"}, {"time": 2171, "annotation": {"number": 64, "value": 0}, "group": "control_change"}, {"time": 2174, "annotation": {"number": 64, "value": 127}, "group": "control_change"}, {"time": 2194, "annotation": {"number": 64, "value": 0}, "group": "control_change"}, {"time": 2196, "annotation": {"number": 64, "value": 127}, "group": "control_change"}, {"time": 2219, "annotation": {"number": 64, "value": 0}, "group": "control_change"}, {"time": 2220, "annotation": {"number": 64, "value": 0}, "group": "control_change"}, {"time": 2222, "annotation": {"number": 64, "value": 127}, "group": "control_change"}, {"time": 2242, "annotation": {"number": 64, "value": 0}, "group": "control_change"}, {"time": 2244, "annotation": {"number": 64, "value": 127}, "group": "control_change"}, {"time": 2267, "annotation": {"number": 64, "value": 0}, "group": "control_change"}, {"time": 2270, "annotation": {"number": 64, "value": 127}, "group": "control_change"}, {"time": 2290, "annotation": {"number": 64, "value": 0}, "group": "control_change"}, {"time": 2293, "annotation": {"number": 64, "value": 127}, "group": "control_change"}, {"time": 2339, "annotation": {"number": 64, "value": 0}, "group": "control_change"}, {"time": 2342, "annotation": {"number": 64, "value": 127}, "group": "control_change"}, {"time": 2374, "annotation": {"number": 64, "value": 0}, "group": "control_change"}, {"time": 2377, "annotation": {"number": 64, "value": 127}, "group": "control_change"}, {"time": 2404, "annotation": {"number": 64, "value": 0}, "group": "control_change"}, {"time": 2428, "annotation": {"number": 64, "value": 0}, "group": "control_change"}, {"time": 2430, "annotation": {"number": 64, "value": 127}, "group": "control_change"}, {"time": 2479, "annotation": {"number": 64, "value": 0}, "group": "control_change"}, {"time": 2481, "annotation": {"number": 64, "value": 127}, "group": "control_change"}, {"time": 2517, "annotation": {"number": 64, "value": 0}, "group": "control_change"}, {"time": 2520, "annotation": {"number": 64, "value": 127}, "group": "control_change"}, {"time": 2532, "annotation": {"number": 64, "value": 0}, "group": "control_change"}, {"time": 2553, "annotation": {"number": 64, "value": 0}, "group": "control_change"}, {"time": 2558, "annotation": {"number": 64, "value": 127}, "group": "control_change"}, {"time": 2580, "annotation": {"number": 64, "value": 0}, "group": "control_change"}, {"time": 2583, "annotation": {"number": 64, "value": 127}, "group": "control_change"}, {"time": 2605, "annotation": {"number": 64, "value": 0}, "group": "control_change"}, {"time": 2607, "annotation": {"number": 64, "value": 127}, "group": "control_change"}, {"time": 2629, "annotation": {"number": 64, "value": 0}, "group": "control_change"}, {"time": 2630, "annotation": {"number": 64, "value": 127}, "group": "control_change"}, {"time": 2652, "annotation": {"number": 64, "value": 0}, "group": "control_change"}, {"time": 2655, "annotation": {"number": 64, "value": 127}, "group": "control_change"}, {"time": 2677, "annotation": {"number": 64, "value": 0}, "group": "control_change"}, {"time": 2679, "annotation": {"number": 64, "value": 127}, "group": "control_change"}, {"time": 2697, "annotation": {"number": 64, "value": 127}, "group": "control_change"}, {"time": 2700, "annotation": {"number": 64, "value": 0}, "group": "control_change"}, {"time": 2703, "annotation": {"number": 64, "value": 127}, "group": "control_change"}, {"time": 2723, "annotation": {"number": 64, "value": 0}, "group": "control_change"}, {"time": 2725, "annotation": {"number": 64, "value": 127}, "group": "control_change"}, {"time": 2748, "annotation": {"number": 64, "value": 0}, "group": "control_change"}, {"time": 2749, "annotation": {"number": 64, "value": 0}, "group": "control_change"}, {"time": 2751, "annotation": {"number": 64, "value": 127}, "group": "control_change"}, {"time": 2771, "annotation": {"number": 64, "value": 0}, "group": "control_change"}, {"time": 2773, "annotation": {"number": 64, "value": 127}, "group": "control_change"}, {"time": 2796, "annotation": {"number": 64, "value": 0}, "group": "control_change"}, {"time": 2799, "annotation": {"number": 64, "value": 127}, "group": "control_change"}, {"time": 2820, "annotation": {"number": 64, "value": 0}, "group": "control_change"}, {"time": 2822, "annotation": {"number": 64, "value": 127}, "group": "control_change"}, {"time": 2868, "annotation": {"number": 64, "value": 0}, "group": "control_change"}, {"time": 2871, "annotation": {"number": 64, "value": 127}, "group": "control_change"}, {"time": 2903, "annotation": {"number": 64, "value": 0}, "group": "control_change"}, {"time": 2906, "annotation": {"number": 64, "value": 127}, "group": "control_change"}, {"time": 2956, "annotation": {"number": 64, "value": 0}, "group": "control_change"}, {"time": 2958, "annotation": {"number": 64, "value": 127}, "group": "control_change"}, {"time": 3007, "annotation": {"number": 64, "value": 0}, "group": "control_change"}, {"time": 3009, "annotation": {"number": 64, "value": 127}, "group": "control_change"}, {"time": 3045, "annotation": {"number": 64, "value": 0}, "group": "control_change"}, {"time": 3048, "annotation": {"number": 64, "value": 127}, "group": "control_change"}, {"time": 3060, "annotation": {"number": 64, "value": 0}, "group": "control_change"}]}, {"program": 0, "is_drum": false, "name": "BRIDGE", "notes": [{"time": 5, "pitch": 63, "duration": 3, "velocity": 59}, {"time": 8, "pitch": 65, "duration": 2, "velocity": 66}, {"time": 11, "pitch": 68, "duration": 11, "velocity": 93}, {"time": 20, "pitch": 70, "duration": 3, "velocity": 78}, {"time": 23, "pitch": 72, "duration": 9, "velocity": 69}, {"time": 32, "pitch": 75, "duration": 2, "velocity": 93}, {"time": 35, "pitch": 75, "duration": 19, "velocity": 93}, {"time": 56, "pitch": 72, "duration": 2, "velocity": 63}, {"time": 58, "pitch": 75, "duration": 2, "velocity": 67}, {"time": 59, "pitch": 77, "duration": 10, "velocity": 80}, {"time": 68, "pitch": 75, "duration": 3, "velocity": 70}, {"time": 71, "pitch": 77, "duration": 9, "velocity": 64}, {"time": 80, "pitch": 75, "duration": 3, "velocity": 70}, {"time": 83, "pitch": 72, "duration": 10, "velocity": 80}, {"time": 107, "pitch": 70, "duration": 20, "velocity": 63}, {"time": 128, "pitch": 63, "duration": 2, "velocity": 51}, {"time": 130, "pitch": 65, "duration": 2, "velocity": 64}, {"time": 131, "pitch": 67, "duration": 16, "velocity": 70}, {"time": 146, "pitch": 63, "duration": 1, "velocity": 67}, {"time": 149, "pitch": 65, "duration": 3, "velocity": 78}, {"time": 152, "pitch": 68, "duration": 1, "velocity": 78}, {"time": 155, "pitch": 75, "duration": 5, "velocity": 103}, {"time": 161, "pitch": 72, "duration": 2, "velocity": 93}, {"time": 164, "pitch": 72, "duration": 8, "velocity": 95}, {"time": 176, "pitch": 70, "duration": 2, "velocity": 80}, {"time": 178, "pitch": 72, "duration": 2, "velocity": 73}, {"time": 179, "pitch": 70, "duration": 5, "velocity": 80}, {"time": 185, "pitch": 68, "duration": 2, "velocity": 76}, {"time": 188, "pitch": 68, "duration": 7, "velocity": 80}, {"time": 203, "pitch": 75, "duration": 6, "velocity": 85}, {"time": 209, "pitch": 72, "duration": 2, "velocity": 91}, {"time": 212, "pitch": 72, "duration": 12, "velocity": 76}, {"time": 224, "pitch": 70, "duration": 2, "velocity": 66}, {"time": 226, "pitch": 72, "duration": 2, "velocity": 91}, {"time": 227, "pitch": 70, "duration": 11, "velocity": 62}, {"time": 244, "pitch": 67, "duration": 2, "velocity": 55}, {"time": 245, "pitch": 68, "duration": 2, "velocity": 69}, {"time": 248, "pitch": 68, "duration": 18, "velocity": 76}, {"time": 266, "pitch": 67, "duration": 6, "velocity": 64}, {"time": 275, "pitch": 68, "duration": 4, "velocity": 56}, {"time": 701, "pitch": 80, "duration": 1, "velocity": 82}, {"time": 701, "pitch": 68, "duration": 1, "velocity": 91}, {"time": 704, "pitch": 70, "duration": 1, "velocity": 56}, {"time": 704, "pitch": 82, "duration": 1, "velocity": 73}, {"time": 707, "pitch": 72, "duration": 14, "velocity": 61}, {"time": 707, "pitch": 84, "duration": 15, "velocity": 78}, {"time": 932, "pitch": 63, "duration": 1, "velocity": 64}, {"time": 932, "pitch": 75, "duration": 2, "velocity": 64}, {"time": 935, "pitch": 63, "duration": 1, "velocity": 59}, {"time": 935, "pitch": 75, "duration": 2, "velocity": 67}, {"time": 938, "pitch": 65, "duration": 1, "velocity": 52}, {"time": 938, "pitch": 77, "duration": 2, "velocity": 70}, {"time": 941, "pitch": 68, "duration": 1, "velocity": 60}, {"time": 941, "pitch": 80, "duration": 2, "velocity": 69}, {"time": 944, "pitch": 70, "duration": 1, "velocity": 47}, {"time": 944, "pitch": 82, "duration": 2, "velocity": 73}, {"time": 947, "pitch": 72, "duration": 4, "velocity": 61}, {"time": 947, "pitch": 84, "duration": 5, "velocity": 58}, {"time": 1229, "pitch": 68, "duration": 2, "velocity": 78}, {"time": 1230, "pitch": 70, "duration": 3, "velocity": 61}, {"time": 1232, "pitch": 72, "duration": 2, "velocity": 58}, {"time": 1234, "pitch": 75, "duration": 2, "velocity": 69}, {"time": 1235, "pitch": 77, "duration": 16, "velocity": 95}, {"time": 1256, "pitch": 75, "duration": 1, "velocity": 63}, {"time": 1257, "pitch": 77, "duration": 2, "velocity": 58}, {"time": 1259, "pitch": 75, "duration": 13, "velocity": 67}, {"time": 1283, "pitch": 65, "duration": 6, "velocity": 85}, {"time": 1283, "pitch": 77, "duration": 6, "velocity": 85}, {"time": 1289, "pitch": 73, "duration": 2, "velocity": 58}, {"time": 1289, "pitch": 85, "duration": 2, "velocity": 58}, {"time": 1292, "pitch": 73, "duration": 5, "velocity": 75}, {"time": 1292, "pitch": 85, "duration": 5, "velocity": 75}, {"time": 1301, "pitch": 72, "duration": 3, "velocity": 88}, {"time": 1301, "pitch": 84, "duration": 3, "velocity": 88}, {"time": 1304, "pitch": 70, "duration": 3, "velocity": 59}, {"time": 1304, "pitch": 82, "duration": 3, "velocity": 59}, {"time": 1307, "pitch": 68, "duration": 9, "velocity": 76}, {"time": 1307, "pitch": 80, "duration": 9, "velocity": 76}, {"time": 1325, "pitch": 68, "duration": 2, "velocity": 80}, {"time": 1326, "pitch": 70, "duration": 2, "velocity": 60}, {"time": 1328, "pitch": 72, "duration": 1, "velocity": 88}, {"time": 1329, "pitch": 73, "duration": 2, "velocity": 85}, {"time": 1330, "pitch": 75, "duration": 2, "velocity": 63}, {"time": 1331, "pitch": 77, "duration": 6, "velocity": 63}, {"time": 1349, "pitch": 77, "duration": 1, "velocity": 69}, {"time": 1349, "pitch": 89, "duration": 1, "velocity": 73}, {"time": 1352, "pitch": 80, "duration": 1, "velocity": 57}, {"time": 1352, "pitch": 92, "duration": 1, "velocity": 64}, {"time": 1355, "pitch": 79, "duration": 8, "velocity": 70}, {"time": 1355, "pitch": 91, "duration": 8, "velocity": 70}, {"time": 1361, "pitch": 77, "duration": 1, "velocity": 69}, {"time": 1361, "pitch": 89, "duration": 1, "velocity": 70}, {"time": 1364, "pitch": 75, "duration": 4, "velocity": 72}, {"time": 1364, "pitch": 87, "duration": 4, "velocity": 58}, {"time": 1376, "pitch": 72, "duration": 1, "velocity": 75}, {"time": 1376, "pitch": 84, "duration": 1, "velocity": 69}, {"time": 1379, "pitch": 70, "duration": 9, "velocity": 70}, {"time": 1379, "pitch": 82, "duration": 9, "velocity": 67}, {"time": 1391, "pitch": 70, "duration": 2, "velocity": 76}, {"time": 1391, "pitch": 82, "duration": 3, "velocity": 75}, {"time": 1396, "pitch": 72, "duration": 2, "velocity": 59}, {"time": 1396, "pitch": 84, "duration": 2, "velocity": 75}, {"time": 1400, "pitch": 73, "duration": 1, "velocity": 55}, {"time": 1400, "pitch": 85, "duration": 2, "velocity": 76}, {"time": 1403, "pitch": 75, "duration": 12, "velocity": 63}, {"time": 1403, "pitch": 87, "duration": 13, "velocity": 70}, {"time": 1415, "pitch": 73, "duration": 6, "velocity": 78}, {"time": 1415, "pitch": 85, "duration": 5, "velocity": 73}, {"time": 1427, "pitch": 72, "duration": 20, "velocity": 72}, {"time": 1427, "pitch": 84, "duration": 21, "velocity": 78}, {"time": 1445, "pitch": 80, "duration": 1, "velocity": 85}, {"time": 1445, "pitch": 92, "duration": 2, "velocity": 82}, {"time": 1451, "pitch": 78, "duration": 11, "velocity": 103}, {"time": 1451, "pitch": 90, "duration": 11, "velocity": 88}, {"time": 1463, "pitch": 77, "duration": 6, "velocity": 76}, {"time": 1463, "pitch": 89, "duration": 6, "velocity": 85}, {"time": 1475, "pitch": 70, "duration": 13, "velocity": 91}, {"time": 1475, "pitch": 82, "duration": 13, "velocity": 75}, {"time": 1494, "pitch": 70, "duration": 1, "velocity": 76}, {"time": 1494, "pitch": 82, "duration": 2, "velocity": 82}, {"time": 1497, "pitch": 84, "duration": 1, "velocity": 78}, {"time": 1497, "pitch": 72, "duration": 1, "velocity": 58}, {"time": 1500, "pitch": 73, "duration": 10, "velocity": 60}, {"time": 1500, "pitch": 85, "duration": 10, "velocity": 80}, {"time": 1535, "pitch": 65, "duration": 5, "velocity": 99}, {"time": 1535, "pitch": 77, "duration": 5, "velocity": 99}, {"time": 1540, "pitch": 73, "duration": 4, "velocity": 80}, {"time": 1540, "pitch": 85, "duration": 4, "velocity": 80}, {"time": 1544, "pitch": 73, "duration": 3, "velocity": 76}, {"time": 1544, "pitch": 85, "duration": 3, "velocity": 76}, {"time": 1547, "pitch": 73, "duration": 4, "velocity": 82}, {"time": 1547, "pitch": 85, "duration": 4, "velocity": 82}, {"time": 1552, "pitch": 72, "duration": 4, "velocity": 82}, {"time": 1552, "pitch": 84, "duration": 4, "velocity": 82}, {"time": 1556, "pitch": 70, "duration": 3, "velocity": 82}, {"time": 1556, "pitch": 82, "duration": 3, "velocity": 82}, {"time": 1559, "pitch": 70, "duration": 5, "velocity": 101}, {"time": 1559, "pitch": 82, "duration": 5, "velocity": 101}, {"time": 1564, "pitch": 72, "duration": 4, "velocity": 78}, {"time": 1564, "pitch": 84, "duration": 4, "velocity": 78}, {"time": 1568, "pitch": 73, "duration": 3, "velocity": 91}, {"time": 1568, "pitch": 85, "duration": 3, "velocity": 91}, {"time": 1571, "pitch": 75, "duration": 48, "velocity": 45}, {"time": 1571, "pitch": 87, "duration": 48, "velocity": 45}, {"time": 2021, "pitch": 80, "duration": 1, "velocity": 82}, {"time": 2021, "pitch": 68, "duration": 1, "velocity": 91}, {"time": 2024, "pitch": 70, "duration": 1, "velocity": 56}, {"time": 2024, "pitch": 82, "duration": 1, "velocity": 73}, {"time": 2027, "pitch": 72, "duration": 14, "velocity": 61}, {"time": 2027, "pitch": 84, "duration": 15, "velocity": 78}, {"time": 2252, "pitch": 63, "duration": 1, "velocity": 64}, {"time": 2252, "pitch": 75, "duration": 2, "velocity": 64}, {"time": 2255, "pitch": 63, "duration": 1, "velocity": 59}, {"time": 2255, "pitch": 75, "duration": 2, "velocity": 67}, {"time": 2258, "pitch": 65, "duration": 1, "velocity": 52}, {"time": 2258, "pitch": 77, "duration": 2, "velocity": 70}, {"time": 2261, "pitch": 68, "duration": 1, "velocity": 60}, {"time": 2261, "pitch": 80, "duration": 2, "velocity": 69}, {"time": 2264, "pitch": 70, "duration": 1, "velocity": 47}, {"time": 2264, "pitch": 82, "duration": 2, "velocity": 73}, {"time": 2267, "pitch": 72, "duration": 4, "velocity": 61}, {"time": 2267, "pitch": 84, "duration": 5, "velocity": 58}, {"time": 2535, "pitch": 73, "duration": 4, "velocity": 95}, {"time": 2538, "pitch": 72, "duration": 4, "velocity": 93}, {"time": 2541, "pitch": 70, "duration": 3, "velocity": 93}, {"time": 2544, "pitch": 68, "duration": 2, "velocity": 72}, {"time": 2546, "pitch": 70, "duration": 2, "velocity": 69}, {"time": 2547, "pitch": 68, "duration": 3, "velocity": 69}, {"time": 2550, "pitch": 67, "duration": 5, "velocity": 88}, {"time": 2553, "pitch": 70, "duration": 3, "velocity": 45}], "annotations": [{"time": 0, "annotation": {"number": 64, "value": 127}, "group": "control_change"}, {"time": 23, "annotation": {"number": 64, "value": 127}, "group": "control_change"}, {"time": 38, "annotation": {"number": 64, "value": 0}, "group": "control_change"}, {"time": 40, "annotation": {"number": 64, "value": 127}, "group": "control_change"}, {"time": 59, "annotation": {"number": 64, "value": 0}, "group": "control_change"}, {"time": 62, "annotation": {"number": 64, "value": 127}, "group": "control_change"}, {"time": 84, "annotation": {"number": 64, "value": 0}, "group": "control_change"}, {"time": 86, "annotation": {"number": 64, "value": 127}, "group": "control_change"}, {"time": 90, "annotation": {"number": 64, "value": 127}, "group": "control_change"}, {"time": 101, "annotation": {"number": 64, "value": 0}, "group": "control_change"}, {"time": 110, "annotation": {"number": 64, "value": 0}, "group": "control_change"}, {"time": 113, "annotation": {"number": 64, "value": 127}, "group": "control_change"}, {"time": 131, "annotation": {"number": 64, "value": 0}, "group": "control_change"}, {"time": 134, "annotation": {"number": 64, "value": 127}, "group": "control_change"}, {"time": 148, "annotation": {"number": 64, "value": 127}, "group": "control_change"}, {"time": 154, "annotation": {"number": 64, "value": 0}, "group": "control_change"}, {"time": 157, "annotation": {"number": 64, "value": 127}, "group": "control_change"}, {"time": 187, "annotation": {"number": 64, "value": 127}, "group": "control_change"}, {"time": 192, "annotation": {"number": 64, "value": 127}, "group": "control_change"}, {"time": 198, "annotation": {"number": 64, "value": 0}, "group": "control_change"}, {"time": 202, "annotation": {"number": 64, "value": 127}, "group": "control_change"}, {"time": 227, "annotation": {"number": 64, "value": 0}, "group": "control_change"}, {"time": 229, "annotation": {"number": 64, "value": 127}, "group": "control_change"}, {"time": 250, "annotation": {"number": 64, "value": 0}, "group": "control_change"}, {"time": 252, "annotation": {"number": 64, "value": 127}, "group": "control_change"}, {"time": 696, "annotation": {"number": 64, "value": 127}, "group": "control_change"}, {"time": 709, "annotation": {"number": 64, "value": 0}, "group": "control_change"}, {"time": 710, "annotation": {"number": 64, "value": 127}, "group": "control_change"}, {"time": 727, "annotation": {"number": 64, "value": 0}, "group": "control_change"}, {"time": 924, "annotation": {"number": 64, "value": 127}, "group": "control_change"}, {"time": 948, "annotation": {"number": 64, "value": 0}, "group": "control_change"}, {"time": 949, "annotation": {"number": 64, "value": 127}, "group": "control_change"}, {"time": 971, "annotation": {"number": 64, "value": 0}, "group": "control_change"}, {"time": 1226, "annotation": {"number": 64, "value": 127}, "group": "control_change"}, {"time": 1254, "annotation": {"number": 64, "value": 127}, "group": "control_change"}, {"time": 1259, "annotation": {"number": 64, "value": 0}, "group": "control_change"}, {"time": 1281, "annotation": {"number": 64, "value": 127}, "group": "control_change"}, {"time": 1282, "annotation": {"number": 64, "value": 0}, "group": "control_change"}, {"time": 1297, "annotation": {"number": 64, "value": 127}, "group": "control_change"}, {"time": 1307, "annotation": {"number": 64, "value": 0}, "group": "control_change"}, {"time": 1324, "annotation": {"number": 64, "value": 127}, "group": "control_change"}, {"time": 1330, "annotation": {"number": 64, "value": 0}, "group": "control_change"}, {"time": 1335, "annotation": {"number": 64, "value": 0}, "group": "control_change"}, {"time": 1342, "annotation": {"number": 64, "value": 127}, "group": "control_change"}, {"time": 1363, "annotation": {"number": 64, "value": 127}, "group": "control_change"}, {"time": 1367, "annotation": {"number": 64, "value": 0}, "group": "control_change"}, {"time": 1373, "annotation": {"number": 64, "value": 127}, "group": "control_change"}, {"time": 1378, "annotation": {"number": 64, "value": 0}, "group": "control_change"}, {"time": 1390, "annotation": {"number": 64, "value": 127}, "group": "control_change"}, {"time": 1404, "annotation": {"number": 64, "value": 0}, "group": "control_change"}, {"time": 1416, "annotation": {"number": 64, "value": 127}, "group": "control_change"}, {"time": 1426, "annotation": {"number": 64, "value": 0}, "group": "control_change"}, {"time": 1428, "annotation": {"number": 64, "value": 0}, "group": "control_change"}, {"time": 1431, "annotation": {"number": 64, "value": 127}, "group": "control_change"}, {"time": 1440, "annotation": {"number": 64, "value": 127}, "group": "control_change"}, {"time": 1452, "annotation": {"number": 64, "value": 0}, "group": "control_change"}, {"time": 1453, "annotation": {"number": 64, "value": 0}, "group": "control_change"}, {"time": 1457, "annotation": {"number": 64, "value": 127}, "group": "control_change"}, {"time": 1464, "annotation": {"number": 64, "value": 127}, "group": "control_change"}, {"time": 1469, "annotation": {"number": 64, "value": 0}, "group": "control_change"}, {"time": 1475, "annotation": {"number": 64, "value": 0}, "group": "control_change"}, {"time": 1477, "annotation": {"number": 64, "value": 127}, "group": "control_change"}, {"time": 1496, "annotation": {"number": 64, "value": 127}, "group": "control_change"}, {"time": 1498, "annotation": {"number": 64, "value": 0}, "group": "control_change"}, {"time": 1522, "annotation": {"number": 64, "value": 0}, "group": "control_change"}, {"time": 1536, "annotation": {"number": 64, "value": 127}, "group": "control_change"}, {"time": 1619, "annotation": {"number": 64, "value": 0}, "group": "control_change"}, {"time": 2016, "annotation": {"number": 64, "value": 127}, "group": "control_change"}, {"time": 2029, "annotation": {"number": 64, "value": 0}, "group": "control_change"}, {"time": 2030, "annotation": {"number": 64, "value": 127}, "group": "control_change"}, {"time": 2047, "annotation": {"number": 64, "value": 0}, "group": "control_change"}, {"time": 2244, "annotation": {"number": 64, "value": 127}, "group": "control_change"}, {"time": 2268, "annotation": {"number": 64, "value": 0}, "group": "control_change"}, {"time": 2269, "annotation": {"number": 64, "value": 127}, "group": "control_change"}, {"time": 2291, "annotation": {"number": 64, "value": 0}, "group": "control_change"}]}, {"program": 0, "is_drum": false, "name": "PIANO", "notes": [{"time": 14, "pitch": 56, "duration": 8, "velocity": 67}, {"time": 26, "pitch": 60, "duration": 8, "velocity": 67}, {"time": 29, "pitch": 63, "duration": 9, "velocity": 67}, {"time": 38, "pitch": 48, "duration": 21, "velocity": 67}, {"time": 44, "pitch": 55, "duration": 9, "velocity": 67}, {"time": 47, "pitch": 60, "duration": 9, "velocity": 67}, {"time": 62, "pitch": 53, "duration": 9, "velocity": 67}, {"time": 74, "pitch": 56, "duration": 9, "velocity": 67}, {"time": 83, "pitch": 49, "duration": 18, "velocity": 66}, {"time": 89, "pitch": 65, "duration": 6, "velocity": 51}, {"time": 92, "pitch": 56, "duration": 13, "velocity": 50}, {"time": 95, "pitch": 61, "duration": 8, "velocity": 54}, {"time": 95, "pitch": 68, "duration": 8, "velocity": 52}, {"time": 107, "pitch": 46, "duration": 18, "velocity": 69}, {"time": 113, "pitch": 53, "duration": 18, "velocity": 44}, {"time": 116, "pitch": 56, "duration": 16, "velocity": 49}, {"time": 131, "pitch": 51, "duration": 15, "velocity": 69}, {"time": 140, "pitch": 55, "duration": 10, "velocity": 46}, {"time": 143, "pitch": 56, "duration": 7, "velocity": 60}, {"time": 155, "pitch": 48, "duration": 7, "velocity": 78}, {"time": 158, "pitch": 55, "duration": 4, "velocity": 62}, {"time": 161, "pitch": 60, "duration": 4, "velocity": 66}, {"time": 164, "pitch": 63, "duration": 10, "velocity": 95}, {"time": 170, "pitch": 67, "duration": 4, "velocity": 76}, {"time": 179, "pitch": 53, "duration": 19, "velocity": 76}, {"time": 182, "pitch": 56, "duration": 14, "velocity": 67}, {"time": 185, "pitch": 60, "duration": 8, "velocity": 63}, {"time": 188, "pitch": 63, "duration": 10, "velocity": 73}, {"time": 194, "pitch": 60, "duration": 5, "velocity": 60}, {"time": 197, "pitch": 56, "duration": 4, "velocity": 63}, {"time": 200, "pitch": 63, "duration": 4, "velocity": 67}, {"time": 203, "pitch": 48, "duration": 21, "velocity": 82}, {"time": 206, "pitch": 51, "duration": 13, "velocity": 60}, {"time": 209, "pitch": 55, "duration": 6, "velocity": 60}, {"time": 212, "pitch": 60, "duration": 12, "velocity": 72}, {"time": 218, "pitch": 55, "duration": 7, "velocity": 40}, {"time": 224, "pitch": 51, "duration": 3, "velocity": 58}, {"time": 227, "pitch": 46, "duration": 7, "velocity": 76}, {"time": 230, "pitch": 53, "duration": 4, "velocity": 66}, {"time": 233, "pitch": 56, "duration": 5, "velocity": 63}, {"time": 236, "pitch": 60, "duration": 3, "velocity": 57}, {"time": 239, "pitch": 51, "duration": 9, "velocity": 75}, {"time": 239, "pitch": 65, "duration": 5, "velocity": 91}, {"time": 242, "pitch": 55, "duration": 6, "velocity": 60}, {"time": 245, "pitch": 58, "duration": 4, "velocity": 59}, {"time": 248, "pitch": 63, "duration": 4, "velocity": 66}, {"time": 251, "pitch": 56, "duration": 22, "velocity": 76}, {"time": 254, "pitch": 58, "duration": 3, "velocity": 73}, {"time": 257, "pitch": 60, "duration": 16, "velocity": 51}, {"time": 260, "pitch": 63, "duration": 19, "velocity": 49}, {"time": 299, "pitch": 44, "duration": 17, "velocity": 64}, {"time": 299, "pitch": 56, "duration": 16, "velocity": 64}, {"time": 299, "pitch": 60, "duration": 8, "velocity": 61}, {"time": 299, "pitch": 63, "duration": 8, "velocity": 63}, {"time": 299, "pitch": 68, "duration": 8, "velocity": 69}, {"time": 311, "pitch": 60, "duration": 5, "velocity": 59}, {"time": 311, "pitch": 63, "duration": 5, "velocity": 66}, {"time": 311, "pitch": 68, "duration": 5, "velocity": 61}, {"time": 323, "pitch": 43, "duration": 16, "velocity": 60}, {"time": 323, "pitch": 55, "duration": 15, "velocity": 59}, {"time": 323, "pitch": 58, "duration": 7, "velocity": 55}, {"time": 323, "pitch": 63, "duration": 7, "velocity": 57}, {"time": 323, "pitch": 67, "duration": 6, "velocity": 54}, {"time": 335, "pitch": 58, "duration": 4, "velocity": 44}, {"time": 335, "pitch": 63, "duration": 4, "velocity": 47}, {"time": 335, "pitch": 67, "duration": 4, "velocity": 46}, {"time": 347, "pitch": 41, "duration": 38, "velocity": 58}, {"time": 347, "pitch": 53, "duration": 30, "velocity": 51}, {"time": 347, "pitch": 56, "duration": 5, "velocity": 55}, {"time": 347, "pitch": 60, "duration": 6, "velocity": 61}, {"time": 347, "pitch": 65, "duration": 6, "velocity": 47}, {"time": 359, "pitch": 56, "duration": 6, "velocity": 37}, {"time": 359, "pitch": 60, "duration": 6, "velocity": 42}, {"time": 359, "pitch": 65, "duration": 6, "velocity": 45}, {"time": 371, "pitch": 56, "duration": 7, "velocity": 35}, {"time": 371, "pitch": 60, "duration": 7, "velocity": 41}, {"time": 371, "pitch": 65, "duration": 7, "velocity": 33}, {"time": 380, "pitch": 53, "duration": 5, "velocity": 24}, {"time": 383, "pitch": 56, "duration": 5, "velocity": 73}, {"time": 383, "pitch": 60, "duration": 5, "velocity": 82}, {"time": 383, "pitch": 65, "duration": 5, "velocity": 78}, {"time": 389, "pitch": 41, "duration": 1, "velocity": 55}, {"time": 389, "pitch": 53, "duration": 1, "velocity": 54}, {"time": 395, "pitch": 37, "duration": 20, "velocity": 62}, {"time": 395, "pitch": 49, "duration": 20, "velocity": 64}, {"time": 395, "pitch": 56, "duration": 7, "velocity": 67}, {"time": 395, "pitch": 61, "duration": 7, "velocity": 69}, {"time": 395, "pitch": 65, "duration": 6, "velocity": 64}, {"time": 407, "pitch": 56, "duration": 6, "velocity": 54}, {"time": 407, "pitch": 61, "duration": 6, "velocity": 53}, {"time": 407, "pitch": 65, "duration": 5, "velocity": 60}, {"time": 419, "pitch": 34, "duration": 16, "velocity": 49}, {"time": 419, "pitch": 46, "duration": 17, "velocity": 47}, {"time": 419, "pitch": 56, "duration": 7, "velocity": 57}, {"time": 419, "pitch": 61, "duration": 6, "velocity": 59}, {"time": 419, "pitch": 65, "duration": 6, "velocity": 56}, {"time": 431, "pitch": 56, "duration": 5, "velocity": 57}, {"time": 431, "pitch": 61, "duration": 4, "velocity": 61}, {"time": 431, "pitch": 65, "duration": 4, "velocity": 59}, {"time": 443, "pitch": 39, "duration": 37, "velocity": 38}, {"time": 443, "pitch": 51, "duration": 28, "velocity": 44}, {"time": 443, "pitch": 55, "duration": 6, "velocity": 46}, {"time": 443, "pitch": 58, "duration": 5, "velocity": 44}, {"time": 443, "pitch": 63, "duration": 5, "velocity": 42}, {"time": 455, "pitch": 55, "duration": 6, "velocity": 43}, {"time": 455, "pitch": 58, "duration": 6, "velocity": 48}, {"time": 455, "pitch": 63, "duration": 4, "velocity": 43}, {"time": 467, "pitch": 55, "duration": 7, "velocity": 40}, {"time": 467, "pitch": 58, "duration": 7, "velocity": 47}, {"time": 467, "pitch": 63, "duration": 5, "velocity": 37}, {"time": 476, "pitch": 51, "duration": 4, "velocity": 55}, {"time": 479, "pitch": 55, "duration": 3, "velocity": 78}, {"time": 479, "pitch": 58, "duration": 4, "velocity": 76}, {"time": 479, "pitch": 63, "duration": 3, "velocity": 75}, {"time": 482, "pitch": 39, "duration": 2, "velocity": 61}, {"time": 482, "pitch": 51, "duration": 1, "velocity": 55}, {"time": 485, "pitch": 55, "duration": 2, "velocity": 54}, {"time": 491, "pitch": 44, "duration": 18, "velocity": 60}, {"time": 491, "pitch": 56, "duration": 14, "velocity": 63}, {"time": 491, "pitch": 58, "duration": 7, "velocity": 70}, {"time": 491, "pitch": 60, "duration": 8, "velocity": 73}, {"time": 491, "pitch": 63, "duration": 7, "velocity": 64}, {"time": 503, "pitch": 58, "duration": 6, "velocity": 54}, {"time": 503, "pitch": 60, "duration": 7, "velocity": 55}, {"time": 503, "pitch": 63, "duration": 6, "velocity": 61}, {"time": 509, "pitch": 56, "duration": 1, "velocity": 40}, {"time": 515, "pitch": 43, "duration": 19, "velocity": 54}, {"time": 515, "pitch": 55, "duration": 14, "velocity": 51}, {"time": 515, "pitch": 58, "duration": 8, "velocity": 58}, {"time": 515, "pitch": 63, "duration": 7, "velocity": 56}, {"time": 515, "pitch": 67, "duration": 8, "velocity": 60}, {"time": 527, "pitch": 58, "duration": 4, "velocity": 53}, {"time": 527, "pitch": 63, "duration": 5, "velocity": 56}, {"time": 527, "pitch": 67, "duration": 4, "velocity": 48}, {"time": 533, "pitch": 55, "duration": 2, "velocity": 40}, {"time": 536, "pitch": 56, "duration": 10, "velocity": 40}, {"time": 539, "pitch": 41, "duration": 17, "velocity": 72}, {"time": 539, "pitch": 60, "duration": 6, "velocity": 73}, {"time": 539, "pitch": 63, "duration": 6, "velocity": 67}, {"time": 542, "pitch": 53, "duration": 11, "velocity": 7}, {"time": 551, "pitch": 56, "duration": 5, "velocity": 48}, {"time": 551, "pitch": 60, "duration": 5, "velocity": 57}, {"time": 551, "pitch": 63, "duration": 4, "velocity": 59}, {"time": 563, "pitch": 56, "duration": 6, "velocity": 34}, {"time": 563, "pitch": 60, "duration": 5, "velocity": 44}, {"time": 563, "pitch": 63, "duration": 4, "velocity": 37}, {"time": 572, "pitch": 41, "duration": 5, "velocity": 44}, {"time": 572, "pitch": 53, "duration": 4, "velocity": 36}, {"time": 575, "pitch": 56, "duration": 3, "velocity": 73}, {"time": 575, "pitch": 60, "duration": 3, "velocity": 82}, {"time": 575, "pitch": 63, "duration": 3, "velocity": 61}, {"time": 578, "pitch": 41, "duration": 2, "velocity": 62}, {"time": 578, "pitch": 53, "duration": 2, "velocity": 53}, {"time": 581, "pitch": 56, "duration": 2, "velocity": 56}, {"time": 584, "pitch": 58, "duration": 2, "velocity": 50}, {"time": 587, "pitch": 37, "duration": 14, "velocity": 51}, {"time": 587, "pitch": 49, "duration": 14, "velocity": 72}, {"time": 587, "pitch": 53, "duration": 7, "velocity": 75}, {"time": 587, "pitch": 56, "duration": 7, "velocity": 64}, {"time": 587, "pitch": 61, "duration": 6, "velocity": 75}, {"time": 599, "pitch": 53, "duration": 7, "velocity": 54}, {"time": 599, "pitch": 56, "duration": 7, "velocity": 64}, {"time": 599, "pitch": 61, "duration": 6, "velocity": 56}, {"time": 605, "pitch": 36, "duration": 2, "velocity": 32}, {"time": 605, "pitch": 48, "duration": 2, "velocity": 43}, {"time": 611, "pitch": 34, "duration": 18, "velocity": 63}, {"time": 611, "pitch": 46, "duration": 14, "velocity": 44}, {"time": 611, "pitch": 53, "duration": 8, "velocity": 51}, {"time": 611, "pitch": 56, "duration": 8, "velocity": 61}, {"time": 611, "pitch": 61, "duration": 6, "velocity": 58}, {"time": 623, "pitch": 53, "duration": 7, "velocity": 67}, {"time": 623, "pitch": 56, "duration": 6, "velocity": 73}, {"time": 623, "pitch": 61, "duration": 6, "velocity": 67}, {"time": 629, "pitch": 46, "duration": 1, "velocity": 53}, {"time": 635, "pitch": 39, "duration": 18, "velocity": 70}, {"time": 635, "pitch": 51, "duration": 14, "velocity": 62}, {"time": 635, "pitch": 55, "duration": 10, "velocity": 69}, {"time": 635, "pitch": 58, "duration": 8, "velocity": 70}, {"time": 635, "pitch": 63, "duration": 9, "velocity": 57}, {"time": 647, "pitch": 55, "duration": 5, "velocity": 69}, {"time": 647, "pitch": 58, "duration": 6, "velocity": 73}, {"time": 647, "pitch": 63, "duration": 5, "velocity": 67}, {"time": 653, "pitch": 51, "duration": 2, "velocity": 42}, {"time": 659, "pitch": 44, "duration": 34, "velocity": 64}, {"time": 659, "pitch": 60, "duration": 4, "velocity": 59}, {"time": 659, "pitch": 63, "duration": 4, "velocity": 64}, {"time": 659, "pitch": 68, "duration": 5, "velocity": 62}, {"time": 671, "pitch": 58, "duration": 3, "velocity": 45}, {"time": 671, "pitch": 60, "duration": 3, "velocity": 48}, {"time": 671, "pitch": 63, "duration": 4, "velocity": 49}, {"time": 671, "pitch": 68, "duration": 5, "velocity": 48}, {"time": 677, "pitch": 56, "duration": 15, "velocity": 38}, {"time": 680, "pitch": 75, "duration": 7, "velocity": 48}, {"time": 681, "pitch": 80, "duration": 3, "velocity": 55}, {"time": 682, "pitch": 84, "duration": 4, "velocity": 45}, {"time": 683, "pitch": 87, "duration": 3, "velocity": 33}, {"time": 695, "pitch": 39, "duration": 2, "velocity": 66}, {"time": 695, "pitch": 51, "duration": 2, "velocity": 52}, {"time": 695, "pitch": 55, "duration": 2, "velocity": 72}, {"time": 695, "pitch": 58, "duration": 2, "velocity": 73}, {"time": 695, "pitch": 63, "duration": 1, "velocity": 62}, {"time": 698, "pitch": 41, "duration": 3, "velocity": 61}, {"time": 698, "pitch": 53, "duration": 2, "velocity": 62}, {"time": 698, "pitch": 56, "duration": 3, "velocity": 67}, {"time": 701, "pitch": 43, "duration": 2, "velocity": 78}, {"time": 701, "pitch": 55, "duration": 2, "velocity": 62}, {"time": 701, "pitch": 58, "duration": 2, "velocity": 73}, {"time": 704, "pitch": 60, "duration": 2, "velocity": 62}, {"time": 707, "pitch": 32, "duration": 17, "velocity": 63}, {"time": 707, "pitch": 44, "duration": 5, "velocity": 76}, {"time": 707, "pitch": 51, "duration": 6, "velocity": 88}, {"time": 707, "pitch": 56, "duration": 7, "velocity": 76}, {"time": 707, "pitch": 60, "duration": 6, "velocity": 78}, {"time": 707, "pitch": 63, "duration": 7, "velocity": 62}, {"time": 716, "pitch": 44, "duration": 5, "velocity": 40}, {"time": 719, "pitch": 51, "duration": 5, "velocity": 76}, {"time": 719, "pitch": 56, "duration": 6, "velocity": 80}, {"time": 719, "pitch": 60, "duration": 6, "velocity": 72}, {"time": 719, "pitch": 63, "duration": 6, "velocity": 66}, {"time": 725, "pitch": 44, "duration": 1, "velocity": 52}, {"time": 731, "pitch": 36, "duration": 17, "velocity": 73}, {"time": 731, "pitch": 48, "duration": 18, "velocity": 66}, {"time": 731, "pitch": 55, "duration": 9, "velocity": 76}, {"time": 731, "pitch": 58, "duration": 8, "velocity": 73}, {"time": 731, "pitch": 63, "duration": 9, "velocity": 75}, {"time": 743, "pitch": 55, "duration": 6, "velocity": 76}, {"time": 743, "pitch": 58, "duration": 6, "velocity": 75}, {"time": 743, "pitch": 63, "duration": 6, "velocity": 75}, {"time": 755, "pitch": 37, "duration": 18, "velocity": 63}, {"time": 755, "pitch": 49, "duration": 15, "velocity": 55}, {"time": 755, "pitch": 56, "duration": 8, "velocity": 72}, {"time": 755, "pitch": 61, "duration": 7, "velocity": 73}, {"time": 755, "pitch": 65, "duration": 9, "velocity": 64}, {"time": 755, "pitch": 68, "duration": 10, "velocity": 62}, {"time": 767, "pitch": 56, "duration": 5, "velocity": 69}, {"time": 767, "pitch": 61, "duration": 6, "velocity": 73}, {"time": 767, "pitch": 65, "duration": 6, "velocity": 67}, {"time": 767, "pitch": 68, "duration": 5, "velocity": 54}, {"time": 773, "pitch": 49, "duration": 1, "velocity": 55}, {"time": 779, "pitch": 41, "duration": 16, "velocity": 49}, {"time": 779, "pitch": 53, "duration": 16, "velocity": 55}, {"time": 779, "pitch": 60, "duration": 7, "velocity": 62}, {"time": 779, "pitch": 63, "duration": 7, "velocity": 63}, {"time": 779, "pitch": 65, "duration": 7, "velocity": 67}, {"time": 779, "pitch": 68, "duration": 8, "velocity": 62}, {"time": 791, "pitch": 60, "duration": 5, "velocity": 63}, {"time": 791, "pitch": 63, "duration": 5, "velocity": 66}, {"time": 791, "pitch": 65, "duration": 5, "velocity": 67}, {"time": 791, "pitch": 68, "duration": 4, "velocity": 59}, {"time": 803, "pitch": 46, "duration": 17, "velocity": 61}, {"time": 803, "pitch": 53, "duration": 17, "velocity": 72}, {"time": 803, "pitch": 58, "duration": 7, "velocity": 64}, {"time": 803, "pitch": 61, "duration": 6, "velocity": 70}, {"time": 803, "pitch": 65, "duration": 6, "velocity": 64}, {"time": 803, "pitch": 68, "duration": 7, "velocity": 63}, {"time": 815, "pitch": 58, "duration": 6, "velocity": 64}, {"time": 815, "pitch": 61, "duration": 6, "velocity": 72}, {"time": 815, "pitch": 65, "duration": 6, "velocity": 66}, {"time": 815, "pitch": 68, "duration": 5, "velocity": 61}, {"time": 827, "pitch": 39, "duration": 18, "velocity": 56}, {"time": 827, "pitch": 51, "duration": 5, "velocity": 53}, {"time": 827, "pitch": 56, "duration": 5, "velocity": 67}, {"time": 827, "pitch": 61, "duration": 7, "velocity": 66}, {"time": 827, "pitch": 65, "duration": 6, "velocity": 61}, {"time": 836, "pitch": 51, "duration": 4, "velocity": 41}, {"time": 839, "pitch": 58, "duration": 4, "velocity": 73}, {"time": 839, "pitch": 63, "duration": 5, "velocity": 78}, {"time": 839, "pitch": 67, "duration": 4, "velocity": 76}, {"time": 845, "pitch": 51, "duration": 1, "velocity": 62}, {"time": 848, "pitch": 60, "duration": 1, "velocity": 19}, {"time": 848, "pitch": 63, "duration": 3, "velocity": 63}, {"time": 851, "pitch": 48, "duration": 18, "velocity": 72}, {"time": 851, "pitch": 55, "duration": 5, "velocity": 64}, {"time": 851, "pitch": 58, "duration": 10, "velocity": 69}, {"time": 851, "pitch": 63, "duration": 10, "velocity": 75}, {"time": 851, "pitch": 67, "duration": 7, "velocity": 70}, {"time": 860, "pitch": 55, "duration": 4, "velocity": 62}, {"time": 863, "pitch": 58, "duration": 3, "velocity": 72}, {"time": 863, "pitch": 63, "duration": 4, "velocity": 76}, {"time": 863, "pitch": 67, "duration": 4, "velocity": 69}, {"time": 866, "pitch": 55, "duration": 2, "velocity": 64}, {"time": 869, "pitch": 65, "duration": 3, "velocity": 69}, {"time": 872, "pitch": 67, "duration": 2, "velocity": 70}, {"time": 875, "pitch": 41, "duration": 18, "velocity": 72}, {"time": 875, "pitch": 60, "duration": 7, "velocity": 67}, {"time": 875, "pitch": 63, "duration": 7, "velocity": 69}, {"time": 875, "pitch": 68, "duration": 7, "velocity": 82}, {"time": 884, "pitch": 53, "duration": 5, "velocity": 36}, {"time": 887, "pitch": 60, "duration": 6, "velocity": 72}, {"time": 887, "pitch": 63, "duration": 6, "velocity": 78}, {"time": 887, "pitch": 68, "duration": 5, "velocity": 76}, {"time": 893, "pitch": 53, "duration": 1, "velocity": 38}, {"time": 899, "pitch": 39, "duration": 18, "velocity": 63}, {"time": 899, "pitch": 58, "duration": 6, "velocity": 64}, {"time": 899, "pitch": 63, "duration": 6, "velocity": 70}, {"time": 899, "pitch": 67, "duration": 6, "velocity": 67}, {"time": 902, "pitch": 46, "duration": 15, "velocity": 46}, {"time": 905, "pitch": 51, "duration": 9, "velocity": 46}, {"time": 908, "pitch": 58, "duration": 2, "velocity": 50}, {"time": 911, "pitch": 65, "duration": 2, "velocity": 48}, {"time": 914, "pitch": 58, "duration": 5, "velocity": 72}, {"time": 914, "pitch": 65, "duration": 5, "velocity": 76}, {"time": 917, "pitch": 51, "duration": 2, "velocity": 58}, {"time": 920, "pitch": 67, "duration": 6, "velocity": 62}, {"time": 923, "pitch": 39, "duration": 20, "velocity": 69}, {"time": 923, "pitch": 58, "duration": 5, "velocity": 61}, {"time": 923, "pitch": 63, "duration": 7, "velocity": 66}, {"time": 929, "pitch": 46, "duration": 13, "velocity": 49}, {"time": 932, "pitch": 51, "duration": 7, "velocity": 62}, {"time": 935, "pitch": 60, "duration": 1, "velocity": 63}, {"time": 935, "pitch": 68, "duration": 3, "velocity": 75}, {"time": 938, "pitch": 58, "duration": 2, "velocity": 61}, {"time": 938, "pitch": 67, "duration": 2, "velocity": 69}, {"time": 941, "pitch": 63, "duration": 1, "velocity": 69}, {"time": 941, "pitch": 68, "duration": 2, "velocity": 69}, {"time": 944, "pitch": 51, "duration": 3, "velocity": 55}, {"time": 944, "pitch": 70, "duration": 3, "velocity": 72}, {"time": 947, "pitch": 44, "duration": 18, "velocity": 75}, {"time": 947, "pitch": 63, "duration": 4, "velocity": 66}, {"time": 947, "pitch": 68, "duration": 3, "velocity": 67}, {"time": 947, "pitch": 72, "duration": 3, "velocity": 70}, {"time": 950, "pitch": 51, "duration": 16, "velocity": 58}, {"time": 953, "pitch": 56, "duration": 9, "velocity": 62}, {"time": 956, "pitch": 58, "duration": 4, "velocity": 78}, {"time": 956, "pitch": 63, "duration": 4, "velocity": 76}, {"time": 962, "pitch": 60, "duration": 3, "velocity": 80}, {"time": 962, "pitch": 65, "duration": 4, "velocity": 76}, {"time": 965, "pitch": 56, "duration": 2, "velocity": 62}, {"time": 968, "pitch": 58, "duration": 2, "velocity": 49}, {"time": 971, "pitch": 48, "duration": 18, "velocity": 70}, {"time": 971, "pitch": 58, "duration": 7, "velocity": 80}, {"time": 971, "pitch": 63, "duration": 7, "velocity": 85}, {"time": 971, "pitch": 67, "duration": 5, "velocity": 72}, {"time": 977, "pitch": 55, "duration": 11, "velocity": 69}, {"time": 980, "pitch": 58, "duration": 2, "velocity": 75}, {"time": 983, "pitch": 63, "duration": 2, "velocity": 70}, {"time": 986, "pitch": 65, "duration": 2, "velocity": 66}, {"time": 989, "pitch": 67, "duration": 5, "velocity": 56}, {"time": 992, "pitch": 70, "duration": 1, "velocity": 59}, {"time": 995, "pitch": 37, "duration": 17, "velocity": 73}, {"time": 995, "pitch": 58, "duration": 3, "velocity": 61}, {"time": 995, "pitch": 61, "duration": 6, "velocity": 78}, {"time": 995, "pitch": 65, "duration": 6, "velocity": 60}, {"time": 1001, "pitch": 49, "duration": 9, "velocity": 56}, {"time": 1004, "pitch": 56, "duration": 2, "velocity": 66}, {"time": 1010, "pitch": 56, "duration": 3, "velocity": 78}, {"time": 1010, "pitch": 61, "duration": 3, "velocity": 88}, {"time": 1010, "pitch": 65, "duration": 4, "velocity": 80}, {"time": 1013, "pitch": 49, "duration": 2, "velocity": 57}, {"time": 1016, "pitch": 65, "duration": 3, "velocity": 52}, {"time": 1019, "pitch": 41, "duration": 5, "velocity": 61}, {"time": 1019, "pitch": 60, "duration": 6, "velocity": 72}, {"time": 1019, "pitch": 65, "duration": 2, "velocity": 51}, {"time": 1019, "pitch": 68, "duration": 11, "velocity": 72}, {"time": 1022, "pitch": 48, "duration": 2, "velocity": 49}, {"time": 1025, "pitch": 53, "duration": 3, "velocity": 66}, {"time": 1028, "pitch": 55, "duration": 4, "velocity": 62}, {"time": 1031, "pitch": 56, "duration": 1, "velocity": 66}, {"time": 1034, "pitch": 60, "duration": 2, "velocity": 62}, {"time": 1037, "pitch": 65, "duration": 3, "velocity": 76}, {"time": 1040, "pitch": 68, "duration": 13, "velocity": 69}, {"time": 1043, "pitch": 46, "duration": 16, "velocity": 59}, {"time": 1043, "pitch": 53, "duration": 16, "velocity": 67}, {"time": 1043, "pitch": 58, "duration": 8, "velocity": 69}, {"time": 1043, "pitch": 61, "duration": 8, "velocity": 72}, {"time": 1043, "pitch": 65, "duration": 8, "velocity": 73}, {"time": 1055, "pitch": 58, "duration": 5, "velocity": 63}, {"time": 1055, "pitch": 61, "duration": 5, "velocity": 70}, {"time": 1055, "pitch": 65, "duration": 5, "velocity": 73}, {"time": 1055, "pitch": 68, "duration": 3, "velocity": 55}, {"time": 1061, "pitch": 63, "duration": 4, "velocity": 48}, {"time": 1064, "pitch": 65, "duration": 2, "velocity": 57}, {"time": 1067, "pitch": 39, "duration": 19, "velocity": 58}, {"time": 1067, "pitch": 51, "duration": 5, "velocity": 58}, {"time": 1067, "pitch": 56, "duration": 5, "velocity": 54}, {"time": 1067, "pitch": 61, "duration": 6, "velocity": 78}, {"time": 1067, "pitch": 67, "duration": 5, "velocity": 67}, {"time": 1076, "pitch": 51, "duration": 6, "velocity": 36}, {"time": 1079, "pitch": 58, "duration": 5, "velocity": 72}, {"time": 1079, "pitch": 63, "duration": 6, "velocity": 78}, {"time": 1079, "pitch": 67, "duration": 5, "velocity": 78}, {"time": 1085, "pitch": 51, "duration": 2, "velocity": 55}, {"time": 1091, "pitch": 48, "duration": 19, "velocity": 72}, {"time": 1091, "pitch": 58, "duration": 9, "velocity": 75}, {"time": 1091, "pitch": 63, "duration": 10, "velocity": 66}, {"time": 1091, "pitch": 67, "duration": 6, "velocity": 67}, {"time": 1100, "pitch": 55, "duration": 5, "velocity": 40}, {"time": 1103, "pitch": 58, "duration": 4, "velocity": 73}, {"time": 1103, "pitch": 63, "duration": 6, "velocity": 82}, {"time": 1103, "pitch": 67, "duration": 6, "velocity": 75}, {"time": 1109, "pitch": 55, "duration": 1, "velocity": 42}, {"time": 1112, "pitch": 65, "duration": 3, "velocity": 57}, {"time": 1112, "pitch": 67, "duration": 2, "velocity": 64}, {"time": 1115, "pitch": 41, "duration": 19, "velocity": 73}, {"time": 1115, "pitch": 60, "duration": 6, "velocity": 66}, {"time": 1115, "pitch": 63, "duration": 6, "velocity": 70}, {"time": 1115, "pitch": 68, "duration": 7, "velocity": 69}, {"time": 1121, "pitch": 48, "duration": 12, "velocity": 37}, {"time": 1124, "pitch": 53, "duration": 3, "velocity": 57}, {"time": 1127, "pitch": 60, "duration": 2, "velocity": 72}, {"time": 1127, "pitch": 63, "duration": 2, "velocity": 76}, {"time": 1127, "pitch": 68, "duration": 3, "velocity": 73}, {"time": 1130, "pitch": 53, "duration": 2, "velocity": 34}, {"time": 1130, "pitch": 58, "duration": 2, "velocity": 69}, {"time": 1130, "pitch": 67, "duration": 3, "velocity": 64}, {"time": 1133, "pitch": 60, "duration": 2, "velocity": 64}, {"time": 1133, "pitch": 68, "duration": 2, "velocity": 75}, {"time": 1136, "pitch": 70, "duration": 2, "velocity": 73}, {"time": 1139, "pitch": 36, "duration": 6, "velocity": 58}, {"time": 1139, "pitch": 48, "duration": 5, "velocity": 58}, {"time": 1139, "pitch": 58, "duration": 6, "velocity": 75}, {"time": 1139, "pitch": 63, "duration": 5, "velocity": 56}, {"time": 1139, "pitch": 67, "duration": 6, "velocity": 57}, {"time": 1148, "pitch": 36, "duration": 8, "velocity": 51}, {"time": 1148, "pitch": 48, "duration": 4, "velocity": 46}, {"time": 1151, "pitch": 58, "duration": 5, "velocity": 82}, {"time": 1151, "pitch": 63, "duration": 5, "velocity": 93}, {"time": 1151, "pitch": 67, "duration": 5, "velocity": 75}, {"time": 1157, "pitch": 48, "duration": 2, "velocity": 58}, {"time": 1163, "pitch": 37, "duration": 10, "velocity": 62}, {"time": 1163, "pitch": 49, "duration": 9, "velocity": 34}, {"time": 1163, "pitch": 53, "duration": 3, "velocity": 52}, {"time": 1163, "pitch": 55, "duration": 3, "velocity": 54}, {"time": 1163, "pitch": 56, "duration": 6, "velocity": 56}, {"time": 1163, "pitch": 63, "duration": 2, "velocity": 36}, {"time": 1181, "pitch": 39, "duration": 3, "velocity": 67}, {"time": 1181, "pitch": 51, "duration": 6, "velocity": 58}, {"time": 1181, "pitch": 55, "duration": 5, "velocity": 67}, {"time": 1181, "pitch": 58, "duration": 5, "velocity": 67}, {"time": 1181, "pitch": 63, "duration": 5, "velocity": 67}, {"time": 1187, "pitch": 44, "duration": 33, "velocity": 73}, {"time": 1187, "pitch": 56, "duration": 4, "velocity": 73}, {"time": 1187, "pitch": 60, "duration": 5, "velocity": 75}, {"time": 1193, "pitch": 51, "duration": 27, "velocity": 40}, {"time": 1196, "pitch": 56, "duration": 10, "velocity": 61}, {"time": 1199, "pitch": 58, "duration": 2, "velocity": 82}, {"time": 1202, "pitch": 60, "duration": 2, "velocity": 46}, {"time": 1205, "pitch": 63, "duration": 3, "velocity": 59}, {"time": 1208, "pitch": 65, "duration": 2, "velocity": 54}, {"time": 1211, "pitch": 56, "duration": 9, "velocity": 40}, {"time": 1211, "pitch": 60, "duration": 8, "velocity": 54}, {"time": 1211, "pitch": 63, "duration": 9, "velocity": 55}, {"time": 1211, "pitch": 68, "duration": 10, "velocity": 44}, {"time": 1235, "pitch": 37, "duration": 20, "velocity": 57}, {"time": 1235, "pitch": 49, "duration": 5, "velocity": 59}, {"time": 1235, "pitch": 53, "duration": 8, "velocity": 61}, {"time": 1235, "pitch": 56, "duration": 8, "velocity": 69}, {"time": 1235, "pitch": 61, "duration": 8, "velocity": 66}, {"time": 1244, "pitch": 49, "duration": 6, "velocity": 33}, {"time": 1247, "pitch": 53, "duration": 6, "velocity": 64}, {"time": 1247, "pitch": 56, "duration": 6, "velocity": 76}, {"time": 1247, "pitch": 61, "duration": 5, "velocity": 72}, {"time": 1253, "pitch": 49, "duration": 2, "velocity": 49}, {"time": 1259, "pitch": 36, "duration": 19, "velocity": 66}, {"time": 1259, "pitch": 48, "duration": 5, "velocity": 59}, {"time": 1259, "pitch": 51, "duration": 10, "velocity": 66}, {"time": 1259, "pitch": 56, "duration": 8, "velocity": 67}, {"time": 1259, "pitch": 60, "duration": 8, "velocity": 72}, {"time": 1259, "pitch": 63, "duration": 10, "velocity": 59}, {"time": 1268, "pitch": 48, "duration": 8, "velocity": 34}, {"time": 1271, "pitch": 51, "duration": 6, "velocity": 67}, {"time": 1271, "pitch": 56, "duration": 6, "velocity": 66}, {"time": 1271, "pitch": 60, "duration": 6, "velocity": 76}, {"time": 1277, "pitch": 48, "duration": 1, "velocity": 45}, {"time": 1283, "pitch": 34, "duration": 18, "velocity": 72}, {"time": 1283, "pitch": 46, "duration": 13, "velocity": 59}, {"time": 1283, "pitch": 53, "duration": 9, "velocity": 67}, {"time": 1283, "pitch": 56, "duration": 9, "velocity": 66}, {"time": 1283, "pitch": 61, "duration": 9, "velocity": 76}, {"time": 1295, "pitch": 53, "duration": 4, "velocity": 67}, {"time": 1295, "pitch": 56, "duration": 6, "velocity": 73}, {"time": 1295, "pitch": 61, "duration": 5, "velocity": 76}, {"time": 1301, "pitch": 46, "duration": 1, "velocity": 48}, {"time": 1307, "pitch": 44, "duration": 17, "velocity": 67}, {"time": 1307, "pitch": 60, "duration": 5, "velocity": 67}, {"time": 1307, "pitch": 63, "duration": 5, "velocity": 62}, {"time": 1307, "pitch": 67, "duration": 5, "velocity": 70}, {"time": 1310, "pitch": 51, "duration": 14, "velocity": 48}, {"time": 1313, "pitch": 55, "duration": 5, "velocity": 58}, {"time": 1316, "pitch": 58, "duration": 2, "velocity": 78}, {"time": 1319, "pitch": 63, "duration": 2, "velocity": 58}, {"time": 1322, "pitch": 68, "duration": 2, "velocity": 85}, {"time": 1331, "pitch": 49, "duration": 17, "velocity": 73}, {"time": 1331, "pitch": 65, "duration": 7, "velocity": 69}, {"time": 1331, "pitch": 68, "duration": 6, "velocity": 66}, {"time": 1331, "pitch": 73, "duration": 6, "velocity": 82}, {"time": 1337, "pitch": 56, "duration": 11, "velocity": 48}, {"time": 1343, "pitch": 61, "duration": 4, "velocity": 59}, {"time": 1343, "pitch": 65, "duration": 6, "velocity": 73}, {"time": 1343, "pitch": 68, "duration": 5, "velocity": 70}, {"time": 1343, "pitch": 73, "duration": 4, "velocity": 82}, {"time": 1355, "pitch": 48, "duration": 13, "velocity": 67}, {"time": 1355, "pitch": 60, "duration": 10, "velocity": 75}, {"time": 1355, "pitch": 63, "duration": 7, "velocity": 70}, {"time": 1355, "pitch": 68, "duration": 7, "velocity": 82}, {"time": 1355, "pitch": 72, "duration": 6, "velocity": 67}, {"time": 1367, "pitch": 63, "duration": 1, "velocity": 70}, {"time": 1367, "pitch": 67, "duration": 1, "velocity": 72}, {"time": 1367, "pitch": 70, "duration": 1, "velocity": 75}, {"time": 1379, "pitch": 46, "duration": 19, "velocity": 64}, {"time": 1379, "pitch": 53, "duration": 13, "velocity": 67}, {"time": 1379, "pitch": 56, "duration": 6, "velocity": 66}, {"time": 1379, "pitch": 61, "duration": 6, "velocity": 55}, {"time": 1379, "pitch": 65, "duration": 6, "velocity": 59}, {"time": 1379, "pitch": 68, "duration": 6, "velocity": 62}, {"time": 1391, "pitch": 56, "duration": 7, "velocity": 67}, {"time": 1391, "pitch": 61, "duration": 7, "velocity": 75}, {"time": 1391, "pitch": 65, "duration": 7, "velocity": 60}, {"time": 1391, "pitch": 68, "duration": 4, "velocity": 47}, {"time": 1397, "pitch": 53, "duration": 1, "velocity": 73}, {"time": 1403, "pitch": 39, "duration": 6, "velocity": 72}, {"time": 1403, "pitch": 51, "duration": 5, "velocity": 64}, {"time": 1403, "pitch": 58, "duration": 6, "velocity": 82}, {"time": 1403, "pitch": 63, "duration": 6, "velocity": 76}, {"time": 1403, "pitch": 67, "duration": 6, "velocity": 76}, {"time": 1415, "pitch": 37, "duration": 6, "velocity": 66}, {"time": 1415, "pitch": 49, "duration": 5, "velocity": 60}, {"time": 1415, "pitch": 56, "duration": 5, "velocity": 72}, {"time": 1415, "pitch": 61, "duration": 5, "velocity": 76}, {"time": 1415, "pitch": 65, "duration": 5, "velocity": 66}, {"time": 1427, "pitch": 36, "duration": 19, "velocity": 72}, {"time": 1427, "pitch": 48, "duration": 5, "velocity": 64}, {"time": 1427, "pitch": 58, "duration": 5, "velocity": 69}, {"time": 1427, "pitch": 63, "duration": 5, "velocity": 72}, {"time": 1427, "pitch": 67, "duration": 5, "velocity": 73}, {"time": 1436, "pitch": 48, "duration": 9, "velocity": 53}, {"time": 1439, "pitch": 58, "duration": 3, "velocity": 69}, {"time": 1442, "pitch": 63, "duration": 2, "velocity": 61}, {"time": 1445, "pitch": 65, "duration": 1, "velocity": 72}, {"time": 1451, "pitch": 42, "duration": 6, "velocity": 69}, {"time": 1451, "pitch": 54, "duration": 6, "velocity": 66}, {"time": 1451, "pitch": 58, "duration": 5, "velocity": 64}, {"time": 1451, "pitch": 61, "duration": 5, "velocity": 64}, {"time": 1451, "pitch": 66, "duration": 5, "velocity": 72}, {"time": 1463, "pitch": 41, "duration": 11, "velocity": 63}, {"time": 1463, "pitch": 53, "duration": 10, "velocity": 57}, {"time": 1463, "pitch": 56, "duration": 6, "velocity": 62}, {"time": 1463, "pitch": 60, "duration": 5, "velocity": 70}, {"time": 1463, "pitch": 65, "duration": 6, "velocity": 62}, {"time": 1475, "pitch": 34, "duration": 19, "velocity": 54}, {"time": 1475, "pitch": 46, "duration": 14, "velocity": 58}, {"time": 1475, "pitch": 58, "duration": 6, "velocity": 58}, {"time": 1475, "pitch": 61, "duration": 6, "velocity": 59}, {"time": 1475, "pitch": 65, "duration": 6, "velocity": 45}, {"time": 1487, "pitch": 58, "duration": 8, "velocity": 67}, {"time": 1487, "pitch": 61, "duration": 8, "velocity": 67}, {"time": 1487, "pitch": 65, "duration": 8, "velocity": 66}, {"time": 1493, "pitch": 46, "duration": 3, "velocity": 44}, {"time": 1496, "pitch": 36, "duration": 4, "velocity": 59}, {"time": 1499, "pitch": 37, "duration": 18, "velocity": 62}, {"time": 1499, "pitch": 49, "duration": 15, "velocity": 58}, {"time": 1499, "pitch": 52, "duration": 9, "velocity": 72}, {"time": 1499, "pitch": 56, "duration": 6, "velocity": 78}, {"time": 1499, "pitch": 61, "duration": 6, "velocity": 58}, {"time": 1511, "pitch": 52, "duration": 6, "velocity": 70}, {"time": 1511, "pitch": 56, "duration": 6, "velocity": 76}, {"time": 1511, "pitch": 61, "duration": 6, "velocity": 63}, {"time": 1517, "pitch": 49, "duration": 2, "velocity": 60}, {"time": 1523, "pitch": 34, "duration": 18, "velocity": 63}, {"time": 1523, "pitch": 46, "duration": 14, "velocity": 61}, {"time": 1523, "pitch": 56, "duration": 10, "velocity": 66}, {"time": 1523, "pitch": 61, "duration": 9, "velocity": 69}, {"time": 1523, "pitch": 65, "duration": 10, "velocity": 62}, {"time": 1535, "pitch": 56, "duration": 7, "velocity": 69}, {"time": 1535, "pitch": 61, "duration": 7, "velocity": 85}, {"time": 1535, "pitch": 65, "duration": 6, "velocity": 76}, {"time": 1541, "pitch": 46, "duration": 1, "velocity": 70}, {"time": 1547, "pitch": 37, "duration": 6, "velocity": 76}, {"time": 1547, "pitch": 49, "duration": 4, "velocity": 64}, {"time": 1547, "pitch": 56, "duration": 6, "velocity": 76}, {"time": 1547, "pitch": 61, "duration": 6, "velocity": 82}, {"time": 1547, "pitch": 65, "duration": 5, "velocity": 75}, {"time": 1553, "pitch": 49, "duration": 2, "velocity": 55}, {"time": 1559, "pitch": 56, "duration": 8, "velocity": 76}, {"time": 1559, "pitch": 61, "duration": 8, "velocity": 82}, {"time": 1559, "pitch": 65, "duration": 7, "velocity": 75}, {"time": 1565, "pitch": 37, "duration": 1, "velocity": 66}, {"time": 1565, "pitch": 49, "duration": 1, "velocity": 59}, {"time": 1568, "pitch": 38, "duration": 1, "velocity": 82}, {"time": 1571, "pitch": 39, "duration": 42, "velocity": 70}, {"time": 1571, "pitch": 51, "duration": 5, "velocity": 82}, {"time": 1571, "pitch": 58, "duration": 9, "velocity": 78}, {"time": 1571, "pitch": 63, "duration": 8, "velocity": 78}, {"time": 1571, "pitch": 67, "duration": 8, "velocity": 76}, {"time": 1580, "pitch": 51, "duration": 5, "velocity": 46}, {"time": 1583, "pitch": 58, "duration": 2, "velocity": 76}, {"time": 1583, "pitch": 63, "duration": 4, "velocity": 73}, {"time": 1583, "pitch": 67, "duration": 4, "velocity": 76}, {"time": 1589, "pitch": 51, "duration": 24, "velocity": 55}, {"time": 1593, "pitch": 75, "duration": 4, "velocity": 45}, {"time": 1594, "pitch": 80, "duration": 11, "velocity": 42}, {"time": 1596, "pitch": 87, "duration": 9, "velocity": 58}, {"time": 1607, "pitch": 85, "duration": 2, "velocity": 54}, {"time": 1610, "pitch": 84, "duration": 2, "velocity": 57}, {"time": 1613, "pitch": 80, "duration": 3, "velocity": 50}, {"time": 1616, "pitch": 75, "duration": 1, "velocity": 53}, {"time": 1619, "pitch": 44, "duration": 17, "velocity": 64}, {"time": 1619, "pitch": 56, "duration": 16, "velocity": 64}, {"time": 1619, "pitch": 60, "duration": 8, "velocity": 61}, {"time": 1619, "pitch": 63, "duration": 8, "velocity": 63}, {"time": 1619, "pitch": 68, "duration": 8, "velocity": 69}, {"time": 1631, "pitch": 60, "duration": 5, "velocity": 59}, {"time": 1631, "pitch": 63, "duration": 5, "velocity": 66}, {"time": 1631, "pitch": 68, "duration": 5, "velocity": 61}, {"time": 1643, "pitch": 43, "duration": 16, "velocity": 60}, {"time": 1643, "pitch": 55, "duration": 15, "velocity": 59}, {"time": 1643, "pitch": 58, "duration": 7, "velocity": 55}, {"time": 1643, "pitch": 63, "duration": 7, "velocity": 57}, {"time": 1643, "pitch": 67, "duration": 6, "velocity": 54}, {"time": 1655, "pitch": 58, "duration": 4, "velocity": 44}, {"time": 1655, "pitch": 63, "duration": 4, "velocity": 47}, {"time": 1655, "pitch": 67, "duration": 4, "velocity": 46}, {"time": 1667, "pitch": 41, "duration": 38, "velocity": 58}, {"time": 1667, "pitch": 53, "duration": 30, "velocity": 51}, {"time": 1667, "pitch": 56, "duration": 5, "velocity": 55}, {"time": 1667, "pitch": 60, "duration": 6, "velocity": 61}, {"time": 1667, "pitch": 65, "duration": 6, "velocity": 47}, {"time": 1679, "pitch": 56, "duration": 6, "velocity": 37}, {"time": 1679, "pitch": 60, "duration": 6, "velocity": 42}, {"time": 1679, "pitch": 65, "duration": 6, "velocity": 45}, {"time": 1691, "pitch": 56, "duration": 7, "velocity": 35}, {"time": 1691, "pitch": 60, "duration": 7, "velocity": 41}, {"time": 1691, "pitch": 65, "duration": 7, "velocity": 33}, {"time": 1700, "pitch": 53, "duration": 5, "velocity": 24}, {"time": 1703, "pitch": 56, "duration": 5, "velocity": 73}, {"time": 1703, "pitch": 60, "duration": 5, "velocity": 82}, {"time": 1703, "pitch": 65, "duration": 5, "velocity": 78}, {"time": 1709, "pitch": 41, "duration": 1, "velocity": 55}, {"time": 1709, "pitch": 53, "duration": 1, "velocity": 54}, {"time": 1715, "pitch": 37, "duration": 20, "velocity": 62}, {"time": 1715, "pitch": 49, "duration": 20, "velocity": 64}, {"time": 1715, "pitch": 56, "duration": 7, "velocity": 67}, {"time": 1715, "pitch": 61, "duration": 7, "velocity": 69}, {"time": 1715, "pitch": 65, "duration": 6, "velocity": 64}, {"time": 1727, "pitch": 56, "duration": 6, "velocity": 54}, {"time": 1727, "pitch": 61, "duration": 6, "velocity": 53}, {"time": 1727, "pitch": 65, "duration": 5, "velocity": 60}, {"time": 1739, "pitch": 34, "duration": 16, "velocity": 49}, {"time": 1739, "pitch": 46, "duration": 17, "velocity": 47}, {"time": 1739, "pitch": 56, "duration": 7, "velocity": 57}, {"time": 1739, "pitch": 61, "duration": 6, "velocity": 59}, {"time": 1739, "pitch": 65, "duration": 6, "velocity": 56}, {"time": 1751, "pitch": 56, "duration": 5, "velocity": 57}, {"time": 1751, "pitch": 61, "duration": 4, "velocity": 61}, {"time": 1751, "pitch": 65, "duration": 4, "velocity": 59}, {"time": 1763, "pitch": 39, "duration": 37, "velocity": 38}, {"time": 1763, "pitch": 51, "duration": 28, "velocity": 44}, {"time": 1763, "pitch": 55, "duration": 6, "velocity": 46}, {"time": 1763, "pitch": 58, "duration": 5, "velocity": 44}, {"time": 1763, "pitch": 63, "duration": 5, "velocity": 42}, {"time": 1775, "pitch": 55, "duration": 6, "velocity": 43}, {"time": 1775, "pitch": 58, "duration": 6, "velocity": 48}, {"time": 1775, "pitch": 63, "duration": 4, "velocity": 43}, {"time": 1787, "pitch": 55, "duration": 7, "velocity": 40}, {"time": 1787, "pitch": 58, "duration": 7, "velocity": 47}, {"time": 1787, "pitch": 63, "duration": 5, "velocity": 37}, {"time": 1796, "pitch": 51, "duration": 4, "velocity": 55}, {"time": 1799, "pitch": 55, "duration": 3, "velocity": 78}, {"time": 1799, "pitch": 58, "duration": 4, "velocity": 76}, {"time": 1799, "pitch": 63, "duration": 3, "velocity": 75}, {"time": 1802, "pitch": 39, "duration": 2, "velocity": 61}, {"time": 1802, "pitch": 51, "duration": 1, "velocity": 55}, {"time": 1805, "pitch": 55, "duration": 2, "velocity": 54}, {"time": 1811, "pitch": 44, "duration": 18, "velocity": 60}, {"time": 1811, "pitch": 56, "duration": 14, "velocity": 63}, {"time": 1811, "pitch": 58, "duration": 7, "velocity": 70}, {"time": 1811, "pitch": 60, "duration": 8, "velocity": 73}, {"time": 1811, "pitch": 63, "duration": 7, "velocity": 64}, {"time": 1823, "pitch": 58, "duration": 6, "velocity": 54}, {"time": 1823, "pitch": 60, "duration": 7, "velocity": 55}, {"time": 1823, "pitch": 63, "duration": 6, "velocity": 61}, {"time": 1829, "pitch": 56, "duration": 1, "velocity": 40}, {"time": 1835, "pitch": 43, "duration": 19, "velocity": 54}, {"time": 1835, "pitch": 55, "duration": 14, "velocity": 51}, {"time": 1835, "pitch": 58, "duration": 8, "velocity": 58}, {"time": 1835, "pitch": 63, "duration": 7, "velocity": 56}, {"time": 1835, "pitch": 67, "duration": 8, "velocity": 60}, {"time": 1847, "pitch": 58, "duration": 4, "velocity": 53}, {"time": 1847, "pitch": 63, "duration": 5, "velocity": 56}, {"time": 1847, "pitch": 67, "duration": 4, "velocity": 48}, {"time": 1853, "pitch": 55, "duration": 2, "velocity": 40}, {"time": 1856, "pitch": 56, "duration": 10, "velocity": 40}, {"time": 1859, "pitch": 41, "duration": 17, "velocity": 72}, {"time": 1859, "pitch": 60, "duration": 6, "velocity": 73}, {"time": 1859, "pitch": 63, "duration": 6, "velocity": 67}, {"time": 1862, "pitch": 53, "duration": 11, "velocity": 7}, {"time": 1871, "pitch": 56, "duration": 5, "velocity": 48}, {"time": 1871, "pitch": 60, "duration": 5, "velocity": 57}, {"time": 1871, "pitch": 63, "duration": 4, "velocity": 59}, {"time": 1883, "pitch": 56, "duration": 6, "velocity": 34}, {"time": 1883, "pitch": 60, "duration": 5, "velocity": 44}, {"time": 1883, "pitch": 63, "duration": 4, "velocity": 37}, {"time": 1892, "pitch": 41, "duration": 5, "velocity": 44}, {"time": 1892, "pitch": 53, "duration": 4, "velocity": 36}, {"time": 1895, "pitch": 56, "duration": 3, "velocity": 73}, {"time": 1895, "pitch": 60, "duration": 3, "velocity": 82}, {"time": 1895, "pitch": 63, "duration": 3, "velocity": 61}, {"time": 1898, "pitch": 41, "duration": 2, "velocity": 62}, {"time": 1898, "pitch": 53, "duration": 2, "velocity": 53}, {"time": 1901, "pitch": 56, "duration": 2, "velocity": 56}, {"time": 1904, "pitch": 58, "duration": 2, "velocity": 50}, {"time": 1907, "pitch": 37, "duration": 14, "velocity": 51}, {"time": 1907, "pitch": 49, "duration": 14, "velocity": 72}, {"time": 1907, "pitch": 53, "duration": 7, "velocity": 75}, {"time": 1907, "pitch": 56, "duration": 7, "velocity": 64}, {"time": 1907, "pitch": 61, "duration": 6, "velocity": 75}, {"time": 1919, "pitch": 53, "duration": 7, "velocity": 54}, {"time": 1919, "pitch": 56, "duration": 7, "velocity": 64}, {"time": 1919, "pitch": 61, "duration": 6, "velocity": 56}, {"time": 1925, "pitch": 36, "duration": 2, "velocity": 32}, {"time": 1925, "pitch": 48, "duration": 2, "velocity": 43}, {"time": 1931, "pitch": 34, "duration": 18, "velocity": 63}, {"time": 1931, "pitch": 46, "duration": 14, "velocity": 44}, {"time": 1931, "pitch": 53, "duration": 8, "velocity": 51}, {"time": 1931, "pitch": 56, "duration": 8, "velocity": 61}, {"time": 1931, "pitch": 61, "duration": 6, "velocity": 58}, {"time": 1943, "pitch": 53, "duration": 7, "velocity": 67}, {"time": 1943, "pitch": 56, "duration": 6, "velocity": 73}, {"time": 1943, "pitch": 61, "duration": 6, "velocity": 67}, {"time": 1949, "pitch": 46, "duration": 1, "velocity": 53}, {"time": 1955, "pitch": 39, "duration": 18, "velocity": 70}, {"time": 1955, "pitch": 51, "duration": 14, "velocity": 62}, {"time": 1955, "pitch": 55, "duration": 10, "velocity": 69}, {"time": 1955, "pitch": 58, "duration": 8, "velocity": 70}, {"time": 1955, "pitch": 63, "duration": 9, "velocity": 57}, {"time": 1967, "pitch": 55, "duration": 5, "velocity": 69}, {"time": 1967, "pitch": 58, "duration": 6, "velocity": 73}, {"time": 1967, "pitch": 63, "duration": 5, "velocity": 67}, {"time": 1973, "pitch": 51, "duration": 2, "velocity": 42}, {"time": 1979, "pitch": 44, "duration": 34, "velocity": 64}, {"time": 1979, "pitch": 60, "duration": 4, "velocity": 59}, {"time": 1979, "pitch": 63, "duration": 4, "velocity": 64}, {"time": 1979, "pitch": 68, "duration": 5, "velocity": 62}, {"time": 1991, "pitch": 58, "duration": 3, "velocity": 45}, {"time": 1991, "pitch": 60, "duration": 3, "velocity": 48}, {"time": 1991, "pitch": 63, "duration": 4, "velocity": 49}, {"time": 1991, "pitch": 68, "duration": 5, "velocity": 48}, {"time": 1997, "pitch": 56, "duration": 15, "velocity": 38}, {"time": 2000, "pitch": 75, "duration": 7, "velocity": 48}, {"time": 2001, "pitch": 80, "duration": 3, "velocity": 55}, {"time": 2002, "pitch": 84, "duration": 4, "velocity": 45}, {"time": 2003, "pitch": 87, "duration": 3, "velocity": 33}, {"time": 2015, "pitch": 39, "duration": 2, "velocity": 66}, {"time": 2015, "pitch": 51, "duration": 2, "velocity": 52}, {"time": 2015, "pitch": 55, "duration": 2, "velocity": 72}, {"time": 2015, "pitch": 58, "duration": 2, "velocity": 73}, {"time": 2015, "pitch": 63, "duration": 1, "velocity": 62}, {"time": 2018, "pitch": 41, "duration": 3, "velocity": 61}, {"time": 2018, "pitch": 53, "duration": 2, "velocity": 62}, {"time": 2018, "pitch": 56, "duration": 3, "velocity": 67}, {"time": 2021, "pitch": 43, "duration": 2, "velocity": 78}, {"time": 2021, "pitch": 55, "duration": 2, "velocity": 62}, {"time": 2021, "pitch": 58, "duration": 2, "velocity": 73}, {"time": 2024, "pitch": 60, "duration": 2, "velocity": 62}, {"time": 2027, "pitch": 32, "duration": 17, "velocity": 63}, {"time": 2027, "pitch": 44, "duration": 5, "velocity": 76}, {"time": 2027, "pitch": 51, "duration": 6, "velocity": 88}, {"time": 2027, "pitch": 56, "duration": 7, "velocity": 76}, {"time": 2027, "pitch": 60, "duration": 6, "velocity": 78}, {"time": 2027, "pitch": 63, "duration": 7, "velocity": 62}, {"time": 2036, "pitch": 44, "duration": 5, "velocity": 40}, {"time": 2039, "pitch": 51, "duration": 5, "velocity": 76}, {"time": 2039, "pitch": 56, "duration": 6, "velocity": 80}, {"time": 2039, "pitch": 60, "duration": 6, "velocity": 72}, {"time": 2039, "pitch": 63, "duration": 6, "velocity": 66}, {"time": 2045, "pitch": 44, "duration": 1, "velocity": 52}, {"time": 2051, "pitch": 36, "duration": 17, "velocity": 73}, {"time": 2051, "pitch": 48, "duration": 18, "velocity": 66}, {"time": 2051, "pitch": 55, "duration": 9, "velocity": 76}, {"time": 2051, "pitch": 58, "duration": 8, "velocity": 73}, {"time": 2051, "pitch": 63, "duration": 9, "velocity": 75}, {"time": 2063, "pitch": 55, "duration": 6, "velocity": 76}, {"time": 2063, "pitch": 58, "duration": 6, "velocity": 75}, {"time": 2063, "pitch": 63, "duration": 6, "velocity": 75}, {"time": 2075, "pitch": 37, "duration": 18, "velocity": 63}, {"time": 2075, "pitch": 49, "duration": 15, "velocity": 55}, {"time": 2075, "pitch": 56, "duration": 8, "velocity": 72}, {"time": 2075, "pitch": 61, "duration": 7, "velocity": 73}, {"time": 2075, "pitch": 65, "duration": 9, "velocity": 64}, {"time": 2075, "pitch": 68, "duration": 10, "velocity": 62}, {"time": 2087, "pitch": 56, "duration": 5, "velocity": 69}, {"time": 2087, "pitch": 61, "duration": 6, "velocity": 73}, {"time": 2087, "pitch": 65, "duration": 6, "velocity": 67}, {"time": 2087, "pitch": 68, "duration": 5, "velocity": 54}, {"time": 2093, "pitch": 49, "duration": 1, "velocity": 55}, {"time": 2099, "pitch": 41, "duration": 16, "velocity": 49}, {"time": 2099, "pitch": 53, "duration": 16, "velocity": 55}, {"time": 2099, "pitch": 60, "duration": 7, "velocity": 62}, {"time": 2099, "pitch": 63, "duration": 7, "velocity": 63}, {"time": 2099, "pitch": 65, "duration": 7, "velocity": 67}, {"time": 2099, "pitch": 68, "duration": 8, "velocity": 62}, {"time": 2111, "pitch": 60, "duration": 5, "velocity": 63}, {"time": 2111, "pitch": 63, "duration": 5, "velocity": 66}, {"time": 2111, "pitch": 65, "duration": 5, "velocity": 67}, {"time": 2111, "pitch": 68, "duration": 4, "velocity": 59}, {"time": 2123, "pitch": 46, "duration": 17, "velocity": 61}, {"time": 2123, "pitch": 53, "duration": 17, "velocity": 72}, {"time": 2123, "pitch": 58, "duration": 7, "velocity": 64}, {"time": 2123, "pitch": 61, "duration": 6, "velocity": 70}, {"time": 2123, "pitch": 65, "duration": 6, "velocity": 64}, {"time": 2123, "pitch": 68, "duration": 7, "velocity": 63}, {"time": 2135, "pitch": 58, "duration": 6, "velocity": 64}, {"time": 2135, "pitch": 61, "duration": 6, "velocity": 72}, {"time": 2135, "pitch": 65, "duration": 6, "velocity": 66}, {"time": 2135, "pitch": 68, "duration": 5, "velocity": 61}, {"time": 2147, "pitch": 39, "duration": 18, "velocity": 56}, {"time": 2147, "pitch": 51, "duration": 5, "velocity": 53}, {"time": 2147, "pitch": 56, "duration": 5, "velocity": 67}, {"time": 2147, "pitch": 61, "duration": 7, "velocity": 66}, {"time": 2147, "pitch": 65, "duration": 6, "velocity": 61}, {"time": 2156, "pitch": 51, "duration": 4, "velocity": 41}, {"time": 2159, "pitch": 58, "duration": 4, "velocity": 73}, {"time": 2159, "pitch": 63, "duration": 5, "velocity": 78}, {"time": 2159, "pitch": 67, "duration": 4, "velocity": 76}, {"time": 2165, "pitch": 51, "duration": 1, "velocity": 62}, {"time": 2168, "pitch": 60, "duration": 1, "velocity": 19}, {"time": 2168, "pitch": 63, "duration": 3, "velocity": 63}, {"time": 2171, "pitch": 48, "duration": 18, "velocity": 72}, {"time": 2171, "pitch": 55, "duration": 5, "velocity": 64}, {"time": 2171, "pitch": 58, "duration": 10, "velocity": 69}, {"time": 2171, "pitch": 63, "duration": 10, "velocity": 75}, {"time": 2171, "pitch": 67, "duration": 7, "velocity": 70}, {"time": 2180, "pitch": 55, "duration": 4, "velocity": 62}, {"time": 2183, "pitch": 58, "duration": 3, "velocity": 72}, {"time": 2183, "pitch": 63, "duration": 4, "velocity": 76}, {"time": 2183, "pitch": 67, "duration": 4, "velocity": 69}, {"time": 2186, "pitch": 55, "duration": 2, "velocity": 64}, {"time": 2189, "pitch": 65, "duration": 3, "velocity": 69}, {"time": 2192, "pitch": 67, "duration": 2, "velocity": 70}, {"time": 2195, "pitch": 41, "duration": 18, "velocity": 72}, {"time": 2195, "pitch": 60, "duration": 7, "velocity": 67}, {"time": 2195, "pitch": 63, "duration": 7, "velocity": 69}, {"time": 2195, "pitch": 68, "duration": 7, "velocity": 82}, {"time": 2204, "pitch": 53, "duration": 5, "velocity": 36}, {"time": 2207, "pitch": 60, "duration": 6, "velocity": 72}, {"time": 2207, "pitch": 63, "duration": 6, "velocity": 78}, {"time": 2207, "pitch": 68, "duration": 5, "velocity": 76}, {"time": 2213, "pitch": 53, "duration": 1, "velocity": 38}, {"time": 2219, "pitch": 39, "duration": 18, "velocity": 63}, {"time": 2219, "pitch": 58, "duration": 6, "velocity": 64}, {"time": 2219, "pitch": 63, "duration": 6, "velocity": 70}, {"time": 2219, "pitch": 67, "duration": 6, "velocity": 67}, {"time": 2222, "pitch": 46, "duration": 15, "velocity": 46}, {"time": 2225, "pitch": 51, "duration": 9, "velocity": 46}, {"time": 2228, "pitch": 58, "duration": 2, "velocity": 50}, {"time": 2231, "pitch": 65, "duration": 2, "velocity": 48}, {"time": 2234, "pitch": 58, "duration": 5, "velocity": 72}, {"time": 2234, "pitch": 65, "duration": 5, "velocity": 76}, {"time": 2237, "pitch": 51, "duration": 2, "velocity": 58}, {"time": 2240, "pitch": 67, "duration": 6, "velocity": 62}, {"time": 2243, "pitch": 39, "duration": 20, "velocity": 69}, {"time": 2243, "pitch": 58, "duration": 5, "velocity": 61}, {"time": 2243, "pitch": 63, "duration": 7, "velocity": 66}, {"time": 2249, "pitch": 46, "duration": 13, "velocity": 49}, {"time": 2252, "pitch": 51, "duration": 7, "velocity": 62}, {"time": 2255, "pitch": 60, "duration": 1, "velocity": 63}, {"time": 2255, "pitch": 68, "duration": 3, "velocity": 75}, {"time": 2258, "pitch": 58, "duration": 2, "velocity": 61}, {"time": 2258, "pitch": 67, "duration": 2, "velocity": 69}, {"time": 2261, "pitch": 63, "duration": 1, "velocity": 69}, {"time": 2261, "pitch": 68, "duration": 2, "velocity": 69}, {"time": 2264, "pitch": 51, "duration": 3, "velocity": 55}, {"time": 2264, "pitch": 70, "duration": 3, "velocity": 72}, {"time": 2267, "pitch": 44, "duration": 18, "velocity": 75}, {"time": 2267, "pitch": 63, "duration": 4, "velocity": 66}, {"time": 2267, "pitch": 68, "duration": 3, "velocity": 67}, {"time": 2267, "pitch": 72, "duration": 3, "velocity": 70}, {"time": 2270, "pitch": 51, "duration": 16, "velocity": 58}, {"time": 2273, "pitch": 56, "duration": 9, "velocity": 62}, {"time": 2276, "pitch": 58, "duration": 4, "velocity": 78}, {"time": 2276, "pitch": 63, "duration": 4, "velocity": 76}, {"time": 2282, "pitch": 60, "duration": 3, "velocity": 80}, {"time": 2282, "pitch": 65, "duration": 4, "velocity": 76}, {"time": 2285, "pitch": 56, "duration": 2, "velocity": 62}, {"time": 2288, "pitch": 58, "duration": 2, "velocity": 49}, {"time": 2291, "pitch": 48, "duration": 18, "velocity": 70}, {"time": 2291, "pitch": 58, "duration": 7, "velocity": 80}, {"time": 2291, "pitch": 63, "duration": 7, "velocity": 85}, {"time": 2291, "pitch": 67, "duration": 5, "velocity": 72}, {"time": 2297, "pitch": 55, "duration": 11, "velocity": 69}, {"time": 2300, "pitch": 58, "duration": 2, "velocity": 75}, {"time": 2303, "pitch": 63, "duration": 2, "velocity": 70}, {"time": 2306, "pitch": 65, "duration": 2, "velocity": 66}, {"time": 2309, "pitch": 67, "duration": 5, "velocity": 56}, {"time": 2312, "pitch": 70, "duration": 1, "velocity": 59}, {"time": 2315, "pitch": 37, "duration": 17, "velocity": 73}, {"time": 2315, "pitch": 58, "duration": 3, "velocity": 61}, {"time": 2315, "pitch": 61, "duration": 6, "velocity": 78}, {"time": 2315, "pitch": 65, "duration": 6, "velocity": 60}, {"time": 2321, "pitch": 49, "duration": 9, "velocity": 56}, {"time": 2324, "pitch": 56, "duration": 2, "velocity": 66}, {"time": 2330, "pitch": 56, "duration": 3, "velocity": 78}, {"time": 2330, "pitch": 61, "duration": 3, "velocity": 88}, {"time": 2330, "pitch": 65, "duration": 4, "velocity": 80}, {"time": 2333, "pitch": 49, "duration": 2, "velocity": 57}, {"time": 2336, "pitch": 65, "duration": 3, "velocity": 52}, {"time": 2339, "pitch": 41, "duration": 5, "velocity": 61}, {"time": 2339, "pitch": 60, "duration": 6, "velocity": 72}, {"time": 2339, "pitch": 65, "duration": 2, "velocity": 51}, {"time": 2339, "pitch": 68, "duration": 11, "velocity": 72}, {"time": 2342, "pitch": 48, "duration": 2, "velocity": 49}, {"time": 2345, "pitch": 53, "duration": 3, "velocity": 66}, {"time": 2348, "pitch": 55, "duration": 4, "velocity": 62}, {"time": 2351, "pitch": 56, "duration": 1, "velocity": 66}, {"time": 2354, "pitch": 60, "duration": 2, "velocity": 62}, {"time": 2357, "pitch": 65, "duration": 3, "velocity": 76}, {"time": 2360, "pitch": 68, "duration": 13, "velocity": 69}, {"time": 2363, "pitch": 46, "duration": 16, "velocity": 59}, {"time": 2363, "pitch": 53, "duration": 16, "velocity": 67}, {"time": 2363, "pitch": 58, "duration": 8, "velocity": 69}, {"time": 2363, "pitch": 61, "duration": 8, "velocity": 72}, {"time": 2363, "pitch": 65, "duration": 8, "velocity": 73}, {"time": 2375, "pitch": 58, "duration": 5, "velocity": 63}, {"time": 2375, "pitch": 61, "duration": 5, "velocity": 70}, {"time": 2375, "pitch": 65, "duration": 5, "velocity": 73}, {"time": 2375, "pitch": 68, "duration": 3, "velocity": 55}, {"time": 2381, "pitch": 63, "duration": 4, "velocity": 48}, {"time": 2384, "pitch": 65, "duration": 2, "velocity": 57}, {"time": 2387, "pitch": 39, "duration": 19, "velocity": 58}, {"time": 2387, "pitch": 51, "duration": 5, "velocity": 58}, {"time": 2387, "pitch": 56, "duration": 5, "velocity": 54}, {"time": 2387, "pitch": 61, "duration": 6, "velocity": 78}, {"time": 2387, "pitch": 67, "duration": 5, "velocity": 67}, {"time": 2396, "pitch": 51, "duration": 6, "velocity": 36}, {"time": 2399, "pitch": 58, "duration": 5, "velocity": 72}, {"time": 2399, "pitch": 63, "duration": 6, "velocity": 78}, {"time": 2399, "pitch": 67, "duration": 5, "velocity": 78}, {"time": 2405, "pitch": 51, "duration": 2, "velocity": 55}, {"time": 2412, "pitch": 48, "duration": 20, "velocity": 72}, {"time": 2412, "pitch": 58, "duration": 9, "velocity": 75}, {"time": 2412, "pitch": 63, "duration": 10, "velocity": 66}, {"time": 2412, "pitch": 67, "duration": 6, "velocity": 67}, {"time": 2421, "pitch": 55, "duration": 6, "velocity": 40}, {"time": 2424, "pitch": 58, "duration": 4, "velocity": 73}, {"time": 2424, "pitch": 63, "duration": 6, "velocity": 82}, {"time": 2424, "pitch": 67, "duration": 6, "velocity": 75}, {"time": 2430, "pitch": 55, "duration": 1, "velocity": 42}, {"time": 2433, "pitch": 65, "duration": 3, "velocity": 57}, {"time": 2433, "pitch": 67, "duration": 2, "velocity": 64}, {"time": 2436, "pitch": 41, "duration": 19, "velocity": 73}, {"time": 2436, "pitch": 60, "duration": 6, "velocity": 66}, {"time": 2436, "pitch": 63, "duration": 6, "velocity": 70}, {"time": 2436, "pitch": 68, "duration": 7, "velocity": 69}, {"time": 2442, "pitch": 48, "duration": 12, "velocity": 37}, {"time": 2445, "pitch": 53, "duration": 4, "velocity": 57}, {"time": 2448, "pitch": 60, "duration": 2, "velocity": 72}, {"time": 2448, "pitch": 63, "duration": 2, "velocity": 76}, {"time": 2448, "pitch": 68, "duration": 3, "velocity": 73}, {"time": 2451, "pitch": 53, "duration": 2, "velocity": 34}, {"time": 2451, "pitch": 58, "duration": 2, "velocity": 69}, {"time": 2451, "pitch": 67, "duration": 3, "velocity": 64}, {"time": 2454, "pitch": 60, "duration": 2, "velocity": 64}, {"time": 2454, "pitch": 68, "duration": 2, "velocity": 75}, {"time": 2457, "pitch": 70, "duration": 2, "velocity": 73}, {"time": 2460, "pitch": 36, "duration": 6, "velocity": 58}, {"time": 2460, "pitch": 48, "duration": 6, "velocity": 58}, {"time": 2460, "pitch": 58, "duration": 6, "velocity": 75}, {"time": 2460, "pitch": 63, "duration": 6, "velocity": 56}, {"time": 2460, "pitch": 67, "duration": 6, "velocity": 57}, {"time": 2469, "pitch": 36, "duration": 8, "velocity": 51}, {"time": 2469, "pitch": 48, "duration": 4, "velocity": 46}, {"time": 2472, "pitch": 58, "duration": 5, "velocity": 82}, {"time": 2472, "pitch": 63, "duration": 5, "velocity": 93}, {"time": 2472, "pitch": 67, "duration": 5, "velocity": 75}, {"time": 2478, "pitch": 48, "duration": 2, "velocity": 58}, {"time": 2484, "pitch": 37, "duration": 10, "velocity": 62}, {"time": 2484, "pitch": 49, "duration": 9, "velocity": 34}, {"time": 2484, "pitch": 53, "duration": 3, "velocity": 52}, {"time": 2484, "pitch": 55, "duration": 3, "velocity": 54}, {"time": 2484, "pitch": 56, "duration": 7, "velocity": 56}, {"time": 2484, "pitch": 63, "duration": 2, "velocity": 36}, {"time": 2502, "pitch": 39, "duration": 3, "velocity": 67}, {"time": 2502, "pitch": 51, "duration": 6, "velocity": 58}, {"time": 2502, "pitch": 55, "duration": 6, "velocity": 67}, {"time": 2502, "pitch": 58, "duration": 5, "velocity": 67}, {"time": 2502, "pitch": 63, "duration": 5, "velocity": 67}, {"time": 2508, "pitch": 44, "duration": 16, "velocity": 61}, {"time": 2508, "pitch": 56, "duration": 4, "velocity": 51}, {"time": 2508, "pitch": 60, "duration": 7, "velocity": 66}, {"time": 2508, "pitch": 63, "duration": 8, "velocity": 72}, {"time": 2508, "pitch": 68, "duration": 10, "velocity": 67}, {"time": 2517, "pitch": 56, "duration": 7, "velocity": 26}, {"time": 2520, "pitch": 60, "duration": 7, "velocity": 70}, {"time": 2520, "pitch": 63, "duration": 7, "velocity": 72}, {"time": 2520, "pitch": 68, "duration": 7, "velocity": 72}, {"time": 2526, "pitch": 44, "duration": 2, "velocity": 78}, {"time": 2532, "pitch": 37, "duration": 7, "velocity": 78}, {"time": 2532, "pitch": 49, "duration": 3, "velocity": 67}, {"time": 2532, "pitch": 56, "duration": 7, "velocity": 93}, {"time": 2532, "pitch": 61, "duration": 7, "velocity": 95}, {"time": 2532, "pitch": 65, "duration": 7, "velocity": 97}, {"time": 2538, "pitch": 49, "duration": 2, "velocity": 73}, {"time": 2541, "pitch": 56, "duration": 2, "velocity": 51}, {"time": 2544, "pitch": 39, "duration": 6, "velocity": 80}, {"time": 2544, "pitch": 51, "duration": 2, "velocity": 82}, {"time": 2544, "pitch": 58, "duration": 5, "velocity": 93}, {"time": 2544, "pitch": 63, "duration": 5, "velocity": 76}, {"time": 2544, "pitch": 67, "duration": 5, "velocity": 69}, {"time": 2547, "pitch": 51, "duration": 2, "velocity": 72}, {"time": 2550, "pitch": 51, "duration": 1, "velocity": 73}, {"time": 2550, "pitch": 58, "duration": 2, "velocity": 75}, {"time": 2553, "pitch": 63, "duration": 2, "velocity": 56}, {"time": 2562, "pitch": 44, "duration": 4, "velocity": 88}, {"time": 2562, "pitch": 56, "duration": 4, "velocity": 97}, {"time": 2562, "pitch": 60, "duration": 4, "velocity": 99}, {"time": 2562, "pitch": 63, "duration": 3, "velocity": 101}, {"time": 2562, "pitch": 68, "duration": 4, "velocity": 76}, {"time": 2571, "pitch": 44, "duration": 3, "velocity": 78}, {"time": 2571, "pitch": 56, "duration": 3, "velocity": 91}, {"time": 2571, "pitch": 60, "duration": 3, "velocity": 101}, {"time": 2571, "pitch": 63, "duration": 3, "velocity": 97}, {"time": 2571, "pitch": 68, "duration": 4, "velocity": 82}, {"time": 2580, "pitch": 36, "duration": 14, "velocity": 85}, {"time": 2580, "pitch": 48, "duration": 5, "velocity": 97}, {"time": 2580, "pitch": 58, "duration": 8, "velocity": 99}, {"time": 2580, "pitch": 63, "duration": 10, "velocity": 95}, {"time": 2580, "pitch": 67, "duration": 7, "velocity": 91}, {"time": 2589, "pitch": 48, "duration": 3, "velocity": 57}, {"time": 2592, "pitch": 58, "duration": 4, "velocity": 93}, {"time": 2592, "pitch": 63, "duration": 4, "velocity": 99}, {"time": 2592, "pitch": 67, "duration": 4, "velocity": 99}, {"time": 2595, "pitch": 36, "duration": 2, "velocity": 76}, {"time": 2595, "pitch": 48, "duration": 2, "velocity": 93}, {"time": 2598, "pitch": 58, "duration": 2, "velocity": 78}, {"time": 2604, "pitch": 37, "duration": 8, "velocity": 73}, {"time": 2604, "pitch": 49, "duration": 5, "velocity": 76}, {"time": 2604, "pitch": 56, "duration": 8, "velocity": 82}, {"time": 2604, "pitch": 61, "duration": 8, "velocity": 85}, {"time": 2604, "pitch": 65, "duration": 8, "velocity": 76}, {"time": 2610, "pitch": 49, "duration": 2, "velocity": 72}, {"time": 2613, "pitch": 56, "duration": 2, "velocity": 62}, {"time": 2613, "pitch": 61, "duration": 1, "velocity": 37}, {"time": 2613, "pitch": 65, "duration": 1, "velocity": 34}, {"time": 2616, "pitch": 39, "duration": 7, "velocity": 82}, {"time": 2616, "pitch": 51, "duration": 4, "velocity": 69}, {"time": 2616, "pitch": 58, "duration": 6, "velocity": 93}, {"time": 2616, "pitch": 63, "duration": 7, "velocity": 78}, {"time": 2616, "pitch": 67, "duration": 6, "velocity": 78}, {"time": 2622, "pitch": 51, "duration": 2, "velocity": 63}, {"time": 2625, "pitch": 65, "duration": 1, "velocity": 44}, {"time": 2628, "pitch": 41, "duration": 6, "velocity": 70}, {"time": 2628, "pitch": 60, "duration": 3, "velocity": 85}, {"time": 2628, "pitch": 65, "duration": 4, "velocity": 75}, {"time": 2628, "pitch": 68, "duration": 4, "velocity": 75}, {"time": 2631, "pitch": 48, "duration": 3, "velocity": 67}, {"time": 2634, "pitch": 53, "duration": 4, "velocity": 43}, {"time": 2637, "pitch": 55, "duration": 7, "velocity": 62}, {"time": 2637, "pitch": 72, "duration": 2, "velocity": 66}, {"time": 2637, "pitch": 80, "duration": 2, "velocity": 67}, {"time": 2640, "pitch": 56, "duration": 5, "velocity": 61}, {"time": 2640, "pitch": 70, "duration": 2, "velocity": 64}, {"time": 2640, "pitch": 79, "duration": 2, "velocity": 73}, {"time": 2643, "pitch": 58, "duration": 4, "velocity": 64}, {"time": 2646, "pitch": 56, "duration": 2, "velocity": 45}, {"time": 2646, "pitch": 72, "duration": 2, "velocity": 82}, {"time": 2646, "pitch": 80, "duration": 2, "velocity": 80}, {"time": 2649, "pitch": 68, "duration": 2, "velocity": 48}, {"time": 2649, "pitch": 75, "duration": 2, "velocity": 49}, {"time": 2649, "pitch": 77, "duration": 1, "velocity": 59}, {"time": 2652, "pitch": 34, "duration": 17, "velocity": 64}, {"time": 2652, "pitch": 36, "duration": 5, "velocity": 72}, {"time": 2652, "pitch": 68, "duration": 5, "velocity": 59}, {"time": 2652, "pitch": 73, "duration": 5, "velocity": 75}, {"time": 2652, "pitch": 77, "duration": 5, "velocity": 78}, {"time": 2658, "pitch": 46, "duration": 8, "velocity": 61}, {"time": 2661, "pitch": 53, "duration": 2, "velocity": 45}, {"time": 2664, "pitch": 53, "duration": 4, "velocity": 91}, {"time": 2664, "pitch": 56, "duration": 4, "velocity": 95}, {"time": 2664, "pitch": 61, "duration": 4, "velocity": 78}, {"time": 2667, "pitch": 46, "duration": 3, "velocity": 78}, {"time": 2670, "pitch": 36, "duration": 4, "velocity": 70}, {"time": 2673, "pitch": 37, "duration": 1, "velocity": 51}, {"time": 2676, "pitch": 39, "duration": 13, "velocity": 80}, {"time": 2676, "pitch": 53, "duration": 6, "velocity": 75}, {"time": 2676, "pitch": 56, "duration": 6, "velocity": 85}, {"time": 2676, "pitch": 61, "duration": 5, "velocity": 75}, {"time": 2682, "pitch": 51, "duration": 8, "velocity": 91}, {"time": 2685, "pitch": 53, "duration": 2, "velocity": 58}, {"time": 2688, "pitch": 55, "duration": 4, "velocity": 103}, {"time": 2688, "pitch": 58, "duration": 4, "velocity": 80}, {"time": 2688, "pitch": 63, "duration": 5, "velocity": 78}, {"time": 2691, "pitch": 39, "duration": 4, "velocity": 73}, {"time": 2694, "pitch": 51, "duration": 1, "velocity": 76}, {"time": 2694, "pitch": 55, "duration": 2, "velocity": 78}, {"time": 2697, "pitch": 63, "duration": 3, "velocity": 63}, {"time": 2700, "pitch": 36, "duration": 15, "velocity": 76}, {"time": 2700, "pitch": 48, "duration": 5, "velocity": 62}, {"time": 2700, "pitch": 58, "duration": 10, "velocity": 85}, {"time": 2700, "pitch": 63, "duration": 11, "velocity": 76}, {"time": 2700, "pitch": 67, "duration": 7, "velocity": 72}, {"time": 2709, "pitch": 48, "duration": 4, "velocity": 57}, {"time": 2712, "pitch": 58, "duration": 7, "velocity": 85}, {"time": 2712, "pitch": 63, "duration": 7, "velocity": 80}, {"time": 2712, "pitch": 67, "duration": 12, "velocity": 78}, {"time": 2715, "pitch": 48, "duration": 3, "velocity": 70}, {"time": 2718, "pitch": 39, "duration": 4, "velocity": 44}, {"time": 2721, "pitch": 40, "duration": 2, "velocity": 25}, {"time": 2724, "pitch": 41, "duration": 17, "velocity": 70}, {"time": 2724, "pitch": 53, "duration": 6, "velocity": 73}, {"time": 2724, "pitch": 56, "duration": 10, "velocity": 73}, {"time": 2724, "pitch": 60, "duration": 10, "velocity": 75}, {"time": 2724, "pitch": 65, "duration": 10, "velocity": 67}, {"time": 2733, "pitch": 53, "duration": 5, "velocity": 49}, {"time": 2736, "pitch": 56, "duration": 4, "velocity": 85}, {"time": 2736, "pitch": 60, "duration": 4, "velocity": 80}, {"time": 2736, "pitch": 65, "duration": 5, "velocity": 80}, {"time": 2739, "pitch": 48, "duration": 3, "velocity": 64}, {"time": 2742, "pitch": 56, "duration": 2, "velocity": 64}, {"time": 2748, "pitch": 39, "duration": 16, "velocity": 69}, {"time": 2748, "pitch": 51, "duration": 5, "velocity": 72}, {"time": 2748, "pitch": 58, "duration": 9, "velocity": 78}, {"time": 2748, "pitch": 63, "duration": 9, "velocity": 69}, {"time": 2748, "pitch": 67, "duration": 7, "velocity": 72}, {"time": 2757, "pitch": 51, "duration": 5, "velocity": 33}, {"time": 2760, "pitch": 58, "duration": 3, "velocity": 73}, {"time": 2760, "pitch": 63, "duration": 4, "velocity": 76}, {"time": 2760, "pitch": 67, "duration": 5, "velocity": 76}, {"time": 2763, "pitch": 51, "duration": 5, "velocity": 51}, {"time": 2766, "pitch": 58, "duration": 4, "velocity": 69}, {"time": 2769, "pitch": 63, "duration": 2, "velocity": 66}, {"time": 2772, "pitch": 39, "duration": 19, "velocity": 72}, {"time": 2772, "pitch": 58, "duration": 6, "velocity": 76}, {"time": 2772, "pitch": 67, "duration": 7, "velocity": 67}, {"time": 2775, "pitch": 46, "duration": 8, "velocity": 69}, {"time": 2778, "pitch": 51, "duration": 3, "velocity": 53}, {"time": 2781, "pitch": 58, "duration": 2, "velocity": 91}, {"time": 2781, "pitch": 67, "duration": 2, "velocity": 91}, {"time": 2784, "pitch": 51, "duration": 4, "velocity": 44}, {"time": 2787, "pitch": 58, "duration": 4, "velocity": 85}, {"time": 2787, "pitch": 65, "duration": 4, "velocity": 85}, {"time": 2790, "pitch": 51, "duration": 2, "velocity": 67}, {"time": 2796, "pitch": 44, "duration": 19, "velocity": 69}, {"time": 2796, "pitch": 60, "duration": 4, "velocity": 82}, {"time": 2796, "pitch": 63, "duration": 4, "velocity": 80}, {"time": 2796, "pitch": 68, "duration": 5, "velocity": 78}, {"time": 2799, "pitch": 51, "duration": 16, "velocity": 64}, {"time": 2802, "pitch": 58, "duration": 2, "velocity": 75}, {"time": 2802, "pitch": 67, "duration": 2, "velocity": 70}, {"time": 2805, "pitch": 60, "duration": 2, "velocity": 76}, {"time": 2805, "pitch": 63, "duration": 2, "velocity": 70}, {"time": 2805, "pitch": 68, "duration": 2, "velocity": 70}, {"time": 2808, "pitch": 56, "duration": 6, "velocity": 67}, {"time": 2811, "pitch": 60, "duration": 2, "velocity": 80}, {"time": 2814, "pitch": 63, "duration": 2, "velocity": 85}, {"time": 2817, "pitch": 68, "duration": 3, "velocity": 72}, {"time": 2820, "pitch": 36, "duration": 2, "velocity": 70}, {"time": 2820, "pitch": 48, "duration": 2, "velocity": 78}, {"time": 2820, "pitch": 58, "duration": 9, "velocity": 82}, {"time": 2820, "pitch": 63, "duration": 9, "velocity": 93}, {"time": 2820, "pitch": 67, "duration": 9, "velocity": 88}, {"time": 2820, "pitch": 68, "duration": 1, "velocity": 62}, {"time": 2826, "pitch": 48, "duration": 12, "velocity": 70}, {"time": 2829, "pitch": 55, "duration": 9, "velocity": 72}, {"time": 2832, "pitch": 58, "duration": 2, "velocity": 93}, {"time": 2835, "pitch": 63, "duration": 2, "velocity": 82}, {"time": 2838, "pitch": 65, "duration": 3, "velocity": 88}, {"time": 2841, "pitch": 67, "duration": 2, "velocity": 93}, {"time": 2844, "pitch": 37, "duration": 20, "velocity": 72}, {"time": 2844, "pitch": 49, "duration": 4, "velocity": 69}, {"time": 2844, "pitch": 56, "duration": 5, "velocity": 82}, {"time": 2844, "pitch": 61, "duration": 6, "velocity": 85}, {"time": 2844, "pitch": 65, "duration": 5, "velocity": 75}, {"time": 2850, "pitch": 49, "duration": 10, "velocity": 41}, {"time": 2853, "pitch": 56, "duration": 3, "velocity": 46}, {"time": 2859, "pitch": 56, "duration": 4, "velocity": 88}, {"time": 2859, "pitch": 61, "duration": 4, "velocity": 91}, {"time": 2859, "pitch": 65, "duration": 4, "velocity": 78}, {"time": 2862, "pitch": 49, "duration": 3, "velocity": 53}, {"time": 2868, "pitch": 41, "duration": 19, "velocity": 75}, {"time": 2868, "pitch": 60, "duration": 7, "velocity": 70}, {"time": 2868, "pitch": 65, "duration": 7, "velocity": 75}, {"time": 2868, "pitch": 68, "duration": 6, "velocity": 67}, {"time": 2874, "pitch": 53, "duration": 7, "velocity": 69}, {"time": 2877, "pitch": 60, "duration": 2, "velocity": 69}, {"time": 2877, "pitch": 67, "duration": 2, "velocity": 73}, {"time": 2880, "pitch": 60, "duration": 3, "velocity": 88}, {"time": 2880, "pitch": 65, "duration": 2, "velocity": 80}, {"time": 2880, "pitch": 68, "duration": 4, "velocity": 69}, {"time": 2886, "pitch": 60, "duration": 2, "velocity": 91}, {"time": 2886, "pitch": 67, "duration": 2, "velocity": 82}, {"time": 2892, "pitch": 46, "duration": 17, "velocity": 67}, {"time": 2892, "pitch": 53, "duration": 5, "velocity": 64}, {"time": 2892, "pitch": 56, "duration": 9, "velocity": 88}, {"time": 2892, "pitch": 61, "duration": 9, "velocity": 78}, {"time": 2892, "pitch": 65, "duration": 9, "velocity": 70}, {"time": 2892, "pitch": 68, "duration": 10, "velocity": 54}, {"time": 2901, "pitch": 53, "duration": 8, "velocity": 62}, {"time": 2904, "pitch": 56, "duration": 2, "velocity": 91}, {"time": 2907, "pitch": 61, "duration": 2, "velocity": 85}, {"time": 2910, "pitch": 63, "duration": 3, "velocity": 85}, {"time": 2913, "pitch": 68, "duration": 3, "velocity": 76}, {"time": 2916, "pitch": 39, "duration": 6, "velocity": 67}, {"time": 2916, "pitch": 67, "duration": 3, "velocity": 101}, {"time": 2919, "pitch": 46, "duration": 3, "velocity": 67}, {"time": 2919, "pitch": 65, "duration": 4, "velocity": 82}, {"time": 2922, "pitch": 51, "duration": 4, "velocity": 61}, {"time": 2922, "pitch": 67, "duration": 2, "velocity": 85}, {"time": 2925, "pitch": 53, "duration": 4, "velocity": 64}, {"time": 2925, "pitch": 68, "duration": 3, "velocity": 85}, {"time": 2928, "pitch": 55, "duration": 2, "velocity": 70}, {"time": 2928, "pitch": 70, "duration": 2, "velocity": 80}, {"time": 2931, "pitch": 72, "duration": 2, "velocity": 88}, {"time": 2934, "pitch": 72, "duration": 1, "velocity": 54}, {"time": 2934, "pitch": 73, "duration": 3, "velocity": 88}, {"time": 2937, "pitch": 75, "duration": 3, "velocity": 69}, {"time": 2940, "pitch": 48, "duration": 18, "velocity": 75}, {"time": 2940, "pitch": 63, "duration": 10, "velocity": 93}, {"time": 2940, "pitch": 67, "duration": 9, "velocity": 72}, {"time": 2940, "pitch": 72, "duration": 9, "velocity": 85}, {"time": 2946, "pitch": 55, "duration": 13, "velocity": 50}, {"time": 2949, "pitch": 60, "duration": 7, "velocity": 72}, {"time": 2952, "pitch": 63, "duration": 3, "velocity": 95}, {"time": 2955, "pitch": 63, "duration": 1, "velocity": 38}, {"time": 2955, "pitch": 67, "duration": 3, "velocity": 85}, {"time": 2958, "pitch": 70, "duration": 3, "velocity": 95}, {"time": 2961, "pitch": 72, "duration": 6, "velocity": 82}, {"time": 2964, "pitch": 41, "duration": 19, "velocity": 70}, {"time": 2964, "pitch": 63, "duration": 4, "velocity": 76}, {"time": 2964, "pitch": 68, "duration": 4, "velocity": 76}, {"time": 2967, "pitch": 48, "duration": 16, "velocity": 67}, {"time": 2970, "pitch": 53, "duration": 4, "velocity": 69}, {"time": 2973, "pitch": 56, "duration": 4, "velocity": 91}, {"time": 2973, "pitch": 60, "duration": 5, "velocity": 85}, {"time": 2976, "pitch": 53, "duration": 4, "velocity": 49}, {"time": 2979, "pitch": 56, "duration": 3, "velocity": 97}, {"time": 2979, "pitch": 63, "duration": 4, "velocity": 93}, {"time": 2982, "pitch": 53, "duration": 2, "velocity": 91}, {"time": 2988, "pitch": 48, "duration": 19, "velocity": 73}, {"time": 2988, "pitch": 58, "duration": 4, "velocity": 88}, {"time": 2988, "pitch": 63, "duration": 4, "velocity": 91}, {"time": 2988, "pitch": 67, "duration": 4, "velocity": 76}, {"time": 2991, "pitch": 55, "duration": 13, "velocity": 62}, {"time": 2994, "pitch": 58, "duration": 2, "velocity": 72}, {"time": 2997, "pitch": 63, "duration": 2, "velocity": 69}, {"time": 3000, "pitch": 58, "duration": 1, "velocity": 57}, {"time": 3000, "pitch": 67, "duration": 3, "velocity": 78}, {"time": 3003, "pitch": 58, "duration": 3, "velocity": 63}, {"time": 3006, "pitch": 55, "duration": 2, "velocity": 66}, {"time": 3006, "pitch": 63, "duration": 3, "velocity": 70}, {"time": 3009, "pitch": 65, "duration": 3, "velocity": 76}, {"time": 3012, "pitch": 37, "duration": 7, "velocity": 73}, {"time": 3012, "pitch": 56, "duration": 6, "velocity": 88}, {"time": 3012, "pitch": 61, "duration": 7, "velocity": 82}, {"time": 3012, "pitch": 65, "duration": 6, "velocity": 76}, {"time": 3015, "pitch": 44, "duration": 5, "velocity": 64}, {"time": 3018, "pitch": 49, "duration": 5, "velocity": 66}, {"time": 3021, "pitch": 56, "duration": 2, "velocity": 78}, {"time": 3024, "pitch": 39, "duration": 6, "velocity": 72}, {"time": 3024, "pitch": 58, "duration": 7, "velocity": 76}, {"time": 3024, "pitch": 63, "duration": 7, "velocity": 75}, {"time": 3024, "pitch": 67, "duration": 7, "velocity": 75}, {"time": 3027, "pitch": 46, "duration": 4, "velocity": 66}, {"time": 3030, "pitch": 51, "duration": 4, "velocity": 76}, {"time": 3033, "pitch": 58, "duration": 1, "velocity": 36}, {"time": 3036, "pitch": 44, "duration": 43, "velocity": 72}, {"time": 3036, "pitch": 63, "duration": 7, "velocity": 91}, {"time": 3036, "pitch": 68, "duration": 6, "velocity": 73}, {"time": 3039, "pitch": 51, "duration": 39, "velocity": 67}, {"time": 3042, "pitch": 56, "duration": 37, "velocity": 76}, {"time": 3045, "pitch": 58, "duration": 2, "velocity": 69}, {"time": 3048, "pitch": 60, "duration": 2, "velocity": 70}, {"time": 3051, "pitch": 63, "duration": 1, "velocity": 78}, {"time": 3054, "pitch": 68, "duration": 3, "velocity": 78}, {"time": 3057, "pitch": 70, "duration": 4, "velocity": 52}, {"time": 3060, "pitch": 72, "duration": 12, "velocity": 54}, {"time": 3072, "pitch": 80, "duration": 12, "velocity": 44}, {"time": 3084, "pitch": 36, "duration": 18, "velocity": 61}, {"time": 3084, "pitch": 48, "duration": 15, "velocity": 58}, {"time": 3084, "pitch": 58, "duration": 6, "velocity": 54}, {"time": 3084, "pitch": 63, "duration": 6, "velocity": 45}, {"time": 3084, "pitch": 67, "duration": 6, "velocity": 61}, {"time": 3096, "pitch": 58, "duration": 6, "velocity": 59}, {"time": 3096, "pitch": 63, "duration": 5, "velocity": 59}, {"time": 3096, "pitch": 67, "duration": 6, "velocity": 57}, {"time": 3102, "pitch": 48, "duration": 6, "velocity": 36}, {"time": 3107, "pitch": 56, "duration": 10, "velocity": 50}, {"time": 3108, "pitch": 61, "duration": 12, "velocity": 58}, {"time": 3108, "pitch": 34, "duration": 33, "velocity": 59}, {"time": 3108, "pitch": 46, "duration": 33, "velocity": 48}, {"time": 3109, "pitch": 65, "duration": 11, "velocity": 67}, {"time": 3131, "pitch": 70, "duration": 2, "velocity": 32}, {"time": 3131, "pitch": 73, "duration": 7, "velocity": 44}, {"time": 3132, "pitch": 77, "duration": 4, "velocity": 48}, {"time": 3134, "pitch": 82, "duration": 6, "velocity": 40}, {"time": 3147, "pitch": 58, "duration": 15, "velocity": 45}, {"time": 3147, "pitch": 63, "duration": 16, "velocity": 47}, {"time": 3148, "pitch": 39, "duration": 14, "velocity": 40}, {"time": 3148, "pitch": 51, "duration": 15, "velocity": 40}, {"time": 3149, "pitch": 67, "duration": 14, "velocity": 53}, {"time": 3170, "pitch": 68, "duration": 5, "velocity": 46}, {"time": 3170, "pitch": 44, "duration": 19, "velocity": 62}, {"time": 3175, "pitch": 51, "duration": 19, "velocity": 47}, {"time": 3175, "pitch": 67, "duration": 6, "velocity": 49}, {"time": 3181, "pitch": 56, "duration": 6, "velocity": 56}, {"time": 3181, "pitch": 68, "duration": 1, "velocity": 56}, {"time": 3187, "pitch": 63, "duration": 7, "velocity": 59}, {"time": 3193, "pitch": 70, "duration": 5, "velocity": 61}, {"time": 3193, "pitch": 43, "duration": 9, "velocity": 59}, {"time": 3198, "pitch": 51, "duration": 8, "velocity": 40}, {"time": 3199, "pitch": 63, "duration": 2, "velocity": 45}, {"time": 3205, "pitch": 68, "duration": 3, "velocity": 67}, {"time": 3205, "pitch": 56, "duration": 2, "velocity": 58}, {"time": 3211, "pitch": 70, "duration": 6, "velocity": 60}, {"time": 3217, "pitch": 61, "duration": 9, "velocity": 52}, {"time": 3217, "pitch": 49, "duration": 21, "velocity": 45}, {"time": 3217, "pitch": 56, "duration": 20, "velocity": 55}, {"time": 3217, "pitch": 68, "duration": 3, "velocity": 50}, {"time": 3217, "pitch": 63, "duration": 5, "velocity": 47}, {"time": 3223, "pitch": 65, "duration": 7, "velocity": 47}, {"time": 3230, "pitch": 61, "duration": 4, "velocity": 51}, {"time": 3230, "pitch": 68, "duration": 7, "velocity": 58}, {"time": 3236, "pitch": 56, "duration": 1, "velocity": 52}, {"time": 3236, "pitch": 61, "duration": 3, "velocity": 52}, {"time": 3236, "pitch": 51, "duration": 33, "velocity": 47}, {"time": 3236, "pitch": 65, "duration": 4, "velocity": 52}, {"time": 3236, "pitch": 39, "duration": 33, "velocity": 37}, {"time": 3237, "pitch": 63, "duration": 2, "velocity": 48}, {"time": 3243, "pitch": 58, "duration": 2, "velocity": 50}, {"time": 3243, "pitch": 67, "duration": 2, "velocity": 49}, {"time": 3244, "pitch": 63, "duration": 1, "velocity": 58}, {"time": 3252, "pitch": 60, "duration": 2, "velocity": 46}, {"time": 3253, "pitch": 63, "duration": 1, "velocity": 60}, {"time": 3253, "pitch": 68, "duration": 1, "velocity": 57}, {"time": 3264, "pitch": 61, "duration": 4, "velocity": 41}, {"time": 3264, "pitch": 70, "duration": 6, "velocity": 48}, {"time": 3279, "pitch": 63, "duration": 8, "velocity": 35}, {"time": 3280, "pitch": 67, "duration": 8, "velocity": 50}, {"time": 3280, "pitch": 32, "duration": 8, "velocity": 57}, {"time": 3281, "pitch": 72, "duration": 8, "velocity": 45}, {"time": 3302, "pitch": 80, "duration": 3, "velocity": 46}, {"time": 3304, "pitch": 84, "duration": 2, "velocity": 36}, {"time": 3305, "pitch": 87, "duration": 3, "velocity": 40}, {"time": 3308, "pitch": 92, "duration": 1, "velocity": 47}], "annotations": [{"time": 0, "annotation": {"number": 64, "value": 127}, "group": "control_change"}, {"time": 23, "annotation": {"number": 64, "value": 127}, "group": "control_change"}, {"time": 38, "annotation": {"number": 64, "value": 0}, "group": "control_change"}, {"time": 40, "annotation": {"number": 64, "value": 127}, "group": "control_change"}, {"time": 59, "annotation": {"number": 64, "value": 0}, "group": "control_change"}, {"time": 62, "annotation": {"number": 64, "value": 127}, "group": "control_change"}, {"time": 84, "annotation": {"number": 64, "value": 0}, "group": "control_change"}, {"time": 86, "annotation": {"number": 64, "value": 127}, "group": "control_change"}, {"time": 90, "annotation": {"number": 64, "value": 127}, "group": "control_change"}, {"time": 101, "annotation": {"number": 64, "value": 0}, "group": "control_change"}, {"time": 110, "annotation": {"number": 64, "value": 0}, "group": "control_change"}, {"time": 113, "annotation": {"number": 64, "value": 127}, "group": "control_change"}, {"time": 131, "annotation": {"number": 64, "value": 0}, "group": "control_change"}, {"time": 134, "annotation": {"number": 64, "value": 127}, "group": "control_change"}, {"time": 148, "annotation": {"number": 64, "value": 127}, "group": "control_change"}, {"time": 154, "annotation": {"number": 64, "value": 0}, "group": "control_change"}, {"time": 157, "annotation": {"number": 64, "value": 127}, "group": "control_change"}, {"time": 187, "annotation": {"number": 64, "value": 127}, "group": "control_change"}, {"time": 192, "annotation": {"number": 64, "value": 127}, "group": "control_change"}, {"time": 198, "annotation": {"number": 64, "value": 0}, "group": "control_change"}, {"time": 202, "annotation": {"number": 64, "value": 127}, "group": "control_change"}, {"time": 227, "annotation": {"number": 64, "value": 0}, "group": "control_change"}, {"time": 229, "annotation": {"number": 64, "value": 127}, "group": "control_change"}, {"time": 250, "annotation": {"number": 64, "value": 0}, "group": "control_change"}, {"time": 252, "annotation": {"number": 64, "value": 127}, "group": "control_change"}, {"time": 299, "annotation": {"number": 64, "value": 0}, "group": "control_change"}, {"time": 302, "annotation": {"number": 64, "value": 127}, "group": "control_change"}, {"time": 323, "annotation": {"number": 64, "value": 0}, "group": "control_change"}, {"time": 327, "annotation": {"number": 64, "value": 127}, "group": "control_change"}, {"time": 347, "annotation": {"number": 64, "value": 0}, "group": "control_change"}, {"time": 351, "annotation": {"number": 64, "value": 127}, "group": "control_change"}, {"time": 396, "annotation": {"number": 64, "value": 0}, "group": "control_change"}, {"time": 399, "annotation": {"number": 64, "value": 127}, "group": "control_change"}, {"time": 420, "annotation": {"number": 64, "value": 0}, "group": "control_change"}, {"time": 422, "annotation": {"number": 64, "value": 127}, "group": "control_change"}, {"time": 444, "annotation": {"number": 64, "value": 0}, "group": "control_change"}, {"time": 448, "annotation": {"number": 64, "value": 127}, "group": "control_change"}, {"time": 492, "annotation": {"number": 64, "value": 0}, "group": "control_change"}, {"time": 495, "annotation": {"number": 64, "value": 127}, "group": "control_change"}, {"time": 515, "annotation": {"number": 64, "value": 0}, "group": "control_change"}, {"time": 519, "annotation": {"number": 64, "value": 127}, "group": "control_change"}, {"time": 540, "annotation": {"number": 64, "value": 0}, "group": "control_change"}, {"time": 543, "annotation": {"number": 64, "value": 127}, "group": "control_change"}, {"time": 588, "annotation": {"number": 64, "value": 0}, "group": "control_change"}, {"time": 592, "annotation": {"number": 64, "value": 127}, "group": "control_change"}, {"time": 612, "annotation": {"number": 64, "value": 0}, "group": "control_change"}, {"time": 615, "annotation": {"number": 64, "value": 127}, "group": "control_change"}, {"time": 636, "annotation": {"number": 64, "value": 0}, "group": "control_change"}, {"time": 639, "annotation": {"number": 64, "value": 127}, "group": "control_change"}, {"time": 659, "annotation": {"number": 64, "value": 0}, "group": "control_change"}, {"time": 659, "annotation": {"number": 64, "value": 127}, "group": "control_change"}, {"time": 696, "annotation": {"number": 64, "value": 127}, "group": "control_change"}, {"time": 699, "annotation": {"number": 64, "value": 0}, "group": "control_change"}, {"time": 707, "annotation": {"number": 64, "value": 0}, "group": "control_change"}, {"time": 709, "annotation": {"number": 64, "value": 127}, "group": "control_change"}, {"time": 731, "annotation": {"number": 64, "value": 0}, "group": "control_change"}, {"time": 735, "annotation": {"number": 64, "value": 127}, "group": "control_change"}, {"time": 755, "annotation": {"number": 64, "value": 0}, "group": "control_change"}, {"time": 756, "annotation": {"number": 64, "value": 127}, "group": "control_change"}, {"time": 780, "annotation": {"number": 64, "value": 0}, "group": "control_change"}, {"time": 783, "annotation": {"number": 64, "value": 127}, "group": "control_change"}, {"time": 802, "annotation": {"number": 64, "value": 0}, "group": "control_change"}, {"time": 805, "annotation": {"number": 64, "value": 127}, "group": "control_change"}, {"time": 827, "annotation": {"number": 64, "value": 0}, "group": "control_change"}, {"time": 831, "annotation": {"number": 64, "value": 127}, "group": "control_change"}, {"time": 851, "annotation": {"number": 64, "value": 0}, "group": "control_change"}, {"time": 852, "annotation": {"number": 64, "value": 127}, "group": "control_change"}, {"time": 875, "annotation": {"number": 64, "value": 0}, "group": "control_change"}, {"time": 877, "annotation": {"number": 64, "value": 127}, "group": "control_change"}, {"time": 899, "annotation": {"number": 64, "value": 0}, "group": "control_change"}, {"time": 899, "annotation": {"number": 64, "value": 127}, "group": "control_change"}, {"time": 924, "annotation": {"number": 64, "value": 0}, "group": "control_change"}, {"time": 926, "annotation": {"number": 64, "value": 127}, "group": "control_change"}, {"time": 947, "annotation": {"number": 64, "value": 0}, "group": "control_change"}, {"time": 949, "annotation": {"number": 64, "value": 127}, "group": "control_change"}, {"time": 971, "annotation": {"number": 64, "value": 0}, "group": "control_change"}, {"time": 974, "annotation": {"number": 64, "value": 127}, "group": "control_change"}, {"time": 996, "annotation": {"number": 64, "value": 0}, "group": "control_change"}, {"time": 998, "annotation": {"number": 64, "value": 127}, "group": "control_change"}, {"time": 1019, "annotation": {"number": 64, "value": 0}, "group": "control_change"}, {"time": 1021, "annotation": {"number": 64, "value": 127}, "group": "control_change"}, {"time": 1043, "annotation": {"number": 64, "value": 0}, "group": "control_change"}, {"time": 1045, "annotation": {"number": 64, "value": 127}, "group": "control_change"}, {"time": 1068, "annotation": {"number": 64, "value": 0}, "group": "control_change"}, {"time": 1070, "annotation": {"number": 64, "value": 127}, "group": "control_change"}, {"time": 1093, "annotation": {"number": 64, "value": 0}, "group": "control_change"}, {"time": 1095, "annotation": {"number": 64, "value": 127}, "group": "control_change"}, {"time": 1115, "annotation": {"number": 64, "value": 0}, "group": "control_change"}, {"time": 1117, "annotation": {"number": 64, "value": 127}, "group": "control_change"}, {"time": 1140, "annotation": {"number": 64, "value": 0}, "group": "control_change"}, {"time": 1141, "annotation": {"number": 64, "value": 127}, "group": "control_change"}, {"time": 1164, "annotation": {"number": 64, "value": 0}, "group": "control_change"}, {"time": 1167, "annotation": {"number": 64, "value": 127}, "group": "control_change"}, {"time": 1187, "annotation": {"number": 64, "value": 0}, "group": "control_change"}, {"time": 1189, "annotation": {"number": 64, "value": 127}, "group": "control_change"}, {"time": 1235, "annotation": {"number": 64, "value": 0}, "group": "control_change"}, {"time": 1236, "annotation": {"number": 64, "value": 127}, "group": "control_change"}, {"time": 1259, "annotation": {"number": 64, "value": 0}, "group": "control_change"}, {"time": 1262, "annotation": {"number": 64, "value": 127}, "group": "control_change"}, {"time": 1284, "annotation": {"number": 64, "value": 0}, "group": "control_change"}, {"time": 1286, "annotation": {"number": 64, "value": 127}, "group": "control_change"}, {"time": 1306, "annotation": {"number": 64, "value": 0}, "group": "control_change"}, {"time": 1308, "annotation": {"number": 64, "value": 127}, "group": "control_change"}, {"time": 1331, "annotation": {"number": 64, "value": 0}, "group": "control_change"}, {"time": 1333, "annotation": {"number": 64, "value": 127}, "group": "control_change"}, {"time": 1354, "annotation": {"number": 64, "value": 0}, "group": "control_change"}, {"time": 1356, "annotation": {"number": 64, "value": 127}, "group": "control_change"}, {"time": 1379, "annotation": {"number": 64, "value": 0}, "group": "control_change"}, {"time": 1381, "annotation": {"number": 64, "value": 127}, "group": "control_change"}, {"time": 1403, "annotation": {"number": 64, "value": 0}, "group": "control_change"}, {"time": 1404, "annotation": {"number": 64, "value": 127}, "group": "control_change"}, {"time": 1415, "annotation": {"number": 64, "value": 0}, "group": "control_change"}, {"time": 1417, "annotation": {"number": 64, "value": 127}, "group": "control_change"}, {"time": 1428, "annotation": {"number": 64, "value": 0}, "group": "control_change"}, {"time": 1430, "annotation": {"number": 64, "value": 127}, "group": "control_change"}, {"time": 1451, "annotation": {"number": 64, "value": 0}, "group": "control_change"}, {"time": 1452, "annotation": {"number": 64, "value": 127}, "group": "control_change"}, {"time": 1463, "annotation": {"number": 64, "value": 0}, "group": "control_change"}, {"time": 1466, "annotation": {"number": 64, "value": 127}, "group": "control_change"}, {"time": 1476, "annotation": {"number": 64, "value": 0}, "group": "control_change"}, {"time": 1478, "annotation": {"number": 64, "value": 127}, "group": "control_change"}, {"time": 1499, "annotation": {"number": 64, "value": 0}, "group": "control_change"}, {"time": 1501, "annotation": {"number": 64, "value": 127}, "group": "control_change"}, {"time": 1523, "annotation": {"number": 64, "value": 0}, "group": "control_change"}, {"time": 1524, "annotation": {"number": 64, "value": 127}, "group": "control_change"}, {"time": 1547, "annotation": {"number": 64, "value": 0}, "group": "control_change"}, {"time": 1549, "annotation": {"number": 64, "value": 127}, "group": "control_change"}, {"time": 1571, "annotation": {"number": 64, "value": 0}, "group": "control_change"}, {"time": 1574, "annotation": {"number": 64, "value": 127}, "group": "control_change"}, {"time": 1619, "annotation": {"number": 64, "value": 0}, "group": "control_change"}, {"time": 1622, "annotation": {"number": 64, "value": 127}, "group": "control_change"}, {"time": 1643, "annotation": {"number": 64, "value": 0}, "group": "control_change"}, {"time": 1647, "annotation": {"number": 64, "value": 127}, "group": "control_change"}, {"time": 1667, "annotation": {"number": 64, "value": 0}, "group": "control_change"}, {"time": 1671, "annotation": {"number": 64, "value": 127}, "group": "control_change"}, {"time": 1716, "annotation": {"number": 64, "value": 0}, "group": "control_change"}, {"time": 1719, "annotation": {"number": 64, "value": 127}, "group": "control_change"}, {"time": 1740, "annotation": {"number": 64, "value": 0}, "group": "control_change"}, {"time": 1742, "annotation": {"number": 64, "value": 127}, "group": "control_change"}, {"time": 1764, "annotation": {"number": 64, "value": 0}, "group": "control_change"}, {"time": 1768, "annotation": {"number": 64, "value": 127}, "group": "control_change"}, {"time": 1812, "annotation": {"number": 64, "value": 0}, "group": "control_change"}, {"time": 1815, "annotation": {"number": 64, "value": 127}, "group": "control_change"}, {"time": 1835, "annotation": {"number": 64, "value": 0}, "group": "control_change"}, {"time": 1839, "annotation": {"number": 64, "value": 127}, "group": "control_change"}, {"time": 1860, "annotation": {"number": 64, "value": 0}, "group": "control_change"}, {"time": 1863, "annotation": {"number": 64, "value": 127}, "group": "control_change"}, {"time": 1908, "annotation": {"number": 64, "value": 0}, "group": "control_change"}, {"time": 1912, "annotation": {"number": 64, "value": 127}, "group": "control_change"}, {"time": 1932, "annotation": {"number": 64, "value": 0}, "group": "control_change"}, {"time": 1935, "annotation": {"number": 64, "value": 127}, "group": "control_change"}, {"time": 1956, "annotation": {"number": 64, "value": 0}, "group": "control_change"}, {"time": 1959, "annotation": {"number": 64, "value": 127}, "group": "control_change"}, {"time": 1979, "annotation": {"number": 64, "value": 0}, "group": "control_change"}, {"time": 1979, "annotation": {"number": 64, "value": 127}, "group": "control_change"}, {"time": 2016, "annotation": {"number": 64, "value": 127}, "group": "control_change"}, {"time": 2019, "annotation": {"number": 64, "value": 0}, "group": "control_change"}, {"time": 2027, "annotation": {"number": 64, "value": 0}, "group": "control_change"}, {"time": 2029, "annotation": {"number": 64, "value": 127}, "group": "control_change"}, {"time": 2051, "annotation": {"number": 64, "value": 0}, "group": "control_change"}, {"time": 2055, "annotation": {"number": 64, "value": 127}, "group": "control_change"}, {"time": 2075, "annotation": {"number": 64, "value": 0}, "group": "control_change"}, {"time": 2076, "annotation": {"number": 64, "value": 127}, "group": "control_change"}, {"time": 2100, "annotation": {"number": 64, "value": 0}, "group": "control_change"}, {"time": 2103, "annotation": {"number": 64, "value": 127}, "group": "control_change"}, {"time": 2122, "annotation": {"number": 64, "value": 0}, "group": "control_change"}, {"time": 2125, "annotation": {"number": 64, "value": 127}, "group": "control_change"}, {"time": 2147, "annotation": {"number": 64, "value": 0}, "group": "control_change"}, {"time": 2151, "annotation": {"number": 64, "value": 127}, "group": "control_change"}, {"time": 2171, "annotation": {"number": 64, "value": 0}, "group": "control_change"}, {"time": 2172, "annotation": {"number": 64, "value": 127}, "group": "control_change"}, {"time": 2195, "annotation": {"number": 64, "value": 0}, "group": "control_change"}, {"time": 2197, "annotation": {"number": 64, "value": 127}, "group": "control_change"}, {"time": 2219, "annotation": {"number": 64, "value": 0}, "group": "control_change"}, {"time": 2219, "annotation": {"number": 64, "value": 127}, "group": "control_change"}, {"time": 2244, "annotation": {"number": 64, "value": 0}, "group": "control_change"}, {"time": 2246, "annotation": {"number": 64, "value": 127}, "group": "control_change"}, {"time": 2267, "annotation": {"number": 64, "value": 0}, "group": "control_change"}, {"time": 2269, "annotation": {"number": 64, "value": 127}, "group": "control_change"}, {"time": 2291, "annotation": {"number": 64, "value": 0}, "group": "control_change"}, {"time": 2294, "annotation": {"number": 64, "value": 127}, "group": "control_change"}, {"time": 2316, "annotation": {"number": 64, "value": 0}, "group": "control_change"}, {"time": 2318, "annotation": {"number": 64, "value": 127}, "group": "control_change"}, {"time": 2339, "annotation": {"number": 64, "value": 0}, "group": "control_change"}, {"time": 2341, "annotation": {"number": 64, "value": 127}, "group": "control_change"}, {"time": 2363, "annotation": {"number": 64, "value": 0}, "group": "control_change"}, {"time": 2365, "annotation": {"number": 64, "value": 127}, "group": "control_change"}, {"time": 2388, "annotation": {"number": 64, "value": 0}, "group": "control_change"}, {"time": 2390, "annotation": {"number": 64, "value": 127}, "group": "control_change"}, {"time": 2410, "annotation": {"number": 64, "value": 0}, "group": "control_change"}, {"time": 2414, "annotation": {"number": 64, "value": 0}, "group": "control_change"}, {"time": 2416, "annotation": {"number": 64, "value": 127}, "group": "control_change"}, {"time": 2436, "annotation": {"number": 64, "value": 0}, "group": "control_change"}, {"time": 2438, "annotation": {"number": 64, "value": 127}, "group": "control_change"}, {"time": 2461, "annotation": {"number": 64, "value": 0}, "group": "control_change"}, {"time": 2463, "annotation": {"number": 64, "value": 127}, "group": "control_change"}, {"time": 2485, "annotation": {"number": 64, "value": 0}, "group": "control_change"}, {"time": 2489, "annotation": {"number": 64, "value": 127}, "group": "control_change"}, {"time": 2508, "annotation": {"number": 64, "value": 0}, "group": "control_change"}, {"time": 2508, "annotation": {"number": 64, "value": 127}, "group": "control_change"}, {"time": 2532, "annotation": {"number": 64, "value": 0}, "group": "control_change"}, {"time": 2534, "annotation": {"number": 64, "value": 127}, "group": "control_change"}, {"time": 2544, "annotation": {"number": 64, "value": 0}, "group": "control_change"}, {"time": 2546, "annotation": {"number": 64, "value": 127}, "group": "control_change"}, {"time": 2556, "annotation": {"number": 64, "value": 0}, "group": "control_change"}, {"time": 2582, "annotation": {"number": 64, "value": 127}, "group": "control_change"}, {"time": 2600, "annotation": {"number": 64, "value": 0}, "group": "control_change"}, {"time": 2605, "annotation": {"number": 64, "value": 127}, "group": "control_change"}, {"time": 2617, "annotation": {"number": 64, "value": 0}, "group": "control_change"}, {"time": 2619, "annotation": {"number": 64, "value": 127}, "group": "control_change"}, {"time": 2627, "annotation": {"number": 64, "value": 0}, "group": "control_change"}, {"time": 2629, "annotation": {"number": 64, "value": 127}, "group": "control_change"}, {"time": 2654, "annotation": {"number": 64, "value": 0}, "group": "control_change"}, {"time": 2656, "annotation": {"number": 64, "value": 127}, "group": "control_change"}, {"time": 2676, "annotation": {"number": 64, "value": 0}, "group": "control_change"}, {"time": 2678, "annotation": {"number": 64, "value": 127}, "group": "control_change"}, {"time": 2700, "annotation": {"number": 64, "value": 0}, "group": "control_change"}, {"time": 2701, "annotation": {"number": 64, "value": 127}, "group": "control_change"}, {"time": 2724, "annotation": {"number": 64, "value": 0}, "group": "control_change"}, {"time": 2725, "annotation": {"number": 64, "value": 127}, "group": "control_change"}, {"time": 2749, "annotation": {"number": 64, "value": 0}, "group": "control_change"}, {"time": 2751, "annotation": {"number": 64, "value": 127}, "group": "control_change"}, {"time": 2796, "annotation": {"number": 64, "value": 0}, "group": "control_change"}, {"time": 2797, "annotation": {"number": 64, "value": 127}, "group": "control_change"}, {"time": 2820, "annotation": {"number": 64, "value": 0}, "group": "control_change"}, {"time": 2822, "annotation": {"number": 64, "value": 127}, "group": "control_change"}, {"time": 2843, "annotation": {"number": 64, "value": 0}, "group": "control_change"}, {"time": 2844, "annotation": {"number": 64, "value": 127}, "group": "control_change"}, {"time": 2869, "annotation": {"number": 64, "value": 0}, "group": "control_change"}, {"time": 2872, "annotation": {"number": 64, "value": 127}, "group": "control_change"}, {"time": 2892, "annotation": {"number": 64, "value": 0}, "group": "control_change"}, {"time": 2894, "annotation": {"number": 64, "value": 127}, "group": "control_change"}, {"time": 2916, "annotation": {"number": 64, "value": 0}, "group": "control_change"}, {"time": 2918, "annotation": {"number": 64, "value": 127}, "group": "control_change"}, {"time": 2940, "annotation": {"number": 64, "value": 0}, "group": "control_change"}, {"time": 2942, "annotation": {"number": 64, "value": 127}, "group": "control_change"}, {"time": 2964, "annotation": {"number": 64, "value": 0}, "group": "control_change"}, {"time": 2967, "annotation": {"number": 64, "value": 127}, "group": "control_change"}, {"time": 2989, "annotation": {"number": 64, "value": 0}, "group": "control_change"}, {"time": 2989, "annotation": {"number": 64, "value": 127}, "group": "control_change"}, {"time": 3012, "annotation": {"number": 64, "value": 0}, "group": "control_change"}, {"time": 3013, "annotation": {"number": 64, "value": 127}, "group": "control_change"}, {"time": 3025, "annotation": {"number": 64, "value": 0}, "group": "control_change"}, {"time": 3027, "annotation": {"number": 64, "value": 127}, "group": "control_change"}, {"time": 3037, "annotation": {"number": 64, "value": 0}, "group": "control_change"}, {"time": 3038, "annotation": {"number": 64, "value": 127}, "group": "control_change"}, {"time": 3085, "annotation": {"number": 64, "value": 127}, "group": "control_change"}, {"time": 3086, "annotation": {"number": 64, "value": 0}, "group": "control_change"}, {"time": 3108, "annotation": {"number": 64, "value": 0}, "group": "control_change"}, {"time": 3108, "annotation": {"number": 64, "value": 127}, "group": "control_change"}, {"time": 3149, "annotation": {"number": 64, "value": 127}, "group": "control_change"}, {"time": 3161, "annotation": {"number": 64, "value": 0}, "group": "control_change"}, {"time": 3171, "annotation": {"number": 64, "value": 0}, "group": "control_change"}, {"time": 3174, "annotation": {"number": 64, "value": 127}, "group": "control_change"}, {"time": 3193, "annotation": {"number": 64, "value": 0}, "group": "control_change"}, {"time": 3195, "annotation": {"number": 64, "value": 127}, "group": "control_change"}, {"time": 3217, "annotation": {"number": 64, "value": 0}, "group": "control_change"}, {"time": 3219, "annotation": {"number": 64, "value": 127}, "group": "control_change"}, {"time": 3236, "annotation": {"number": 64, "value": 0}, "group": "control_change"}, {"time": 3238, "annotation": {"number": 64, "value": 127}, "group": "control_change"}, {"time": 3280, "annotation": {"number": 64, "value": 0}, "group": "control_change"}, {"time": 3282, "annotation": {"number": 64, "value": 127}, "group": "control_change"}, {"time": 3339, "annotation": {"number": 64, "value": 0}, "group": "control_change"}]}]}