{"metadata": {"schema_version": "0.2", "title": "None", "source_filename": "183.mid", "source_format": "midi"}, "resolution": 12, "tempos": [{"time": 0, "qpm": 71.00003550001774}], "key_signatures": [{"time": 0, "root": 0, "mode": "major"}], "time_signatures": [{"time": 0, "numerator": 4, "denominator": 4}], "tracks": [{"program": 0, "is_drum": false, "name": "MELODY", "notes": [{"time": 190, "pitch": 68, "duration": 6, "velocity": 91}, {"time": 196, "pitch": 69, "duration": 15, "velocity": 91}, {"time": 211, "pitch": 64, "duration": 3, "velocity": 67}, {"time": 214, "pitch": 64, "duration": 3, "velocity": 64}, {"time": 217, "pitch": 64, "duration": 3, "velocity": 56}, {"time": 220, "pitch": 69, "duration": 5, "velocity": 85}, {"time": 225, "pitch": 71, "duration": 5, "velocity": 76}, {"time": 230, "pitch": 71, "duration": 5, "velocity": 82}, {"time": 235, "pitch": 69, "duration": 3, "velocity": 75}, {"time": 238, "pitch": 68, "duration": 3, "velocity": 70}, {"time": 241, "pitch": 69, "duration": 15, "velocity": 66}, {"time": 256, "pitch": 64, "duration": 3, "velocity": 44}, {"time": 259, "pitch": 64, "duration": 3, "velocity": 56}, {"time": 262, "pitch": 64, "duration": 6, "velocity": 66}, {"time": 268, "pitch": 69, "duration": 3, "velocity": 64}, {"time": 271, "pitch": 71, "duration": 6, "velocity": 72}, {"time": 277, "pitch": 71, "duration": 6, "velocity": 91}, {"time": 283, "pitch": 69, "duration": 3, "velocity": 75}, {"time": 286, "pitch": 68, "duration": 6, "velocity": 80}, {"time": 292, "pitch": 69, "duration": 18, "velocity": 67}, {"time": 310, "pitch": 64, "duration": 3, "velocity": 67}, {"time": 313, "pitch": 64, "duration": 3, "velocity": 80}, {"time": 316, "pitch": 66, "duration": 6, "velocity": 72}, {"time": 322, "pitch": 69, "duration": 3, "velocity": 76}, {"time": 325, "pitch": 71, "duration": 9, "velocity": 69}, {"time": 334, "pitch": 69, "duration": 3, "velocity": 82}, {"time": 337, "pitch": 73, "duration": 45, "velocity": 72}, {"time": 382, "pitch": 68, "duration": 6, "velocity": 91}, {"time": 388, "pitch": 69, "duration": 15, "velocity": 91}, {"time": 403, "pitch": 64, "duration": 3, "velocity": 67}, {"time": 406, "pitch": 64, "duration": 3, "velocity": 64}, {"time": 409, "pitch": 64, "duration": 3, "velocity": 56}, {"time": 412, "pitch": 69, "duration": 5, "velocity": 85}, {"time": 417, "pitch": 71, "duration": 5, "velocity": 76}, {"time": 422, "pitch": 71, "duration": 5, "velocity": 82}, {"time": 427, "pitch": 69, "duration": 3, "velocity": 75}, {"time": 430, "pitch": 68, "duration": 3, "velocity": 70}, {"time": 433, "pitch": 69, "duration": 15, "velocity": 66}, {"time": 448, "pitch": 64, "duration": 3, "velocity": 44}, {"time": 451, "pitch": 64, "duration": 3, "velocity": 56}, {"time": 454, "pitch": 64, "duration": 6, "velocity": 66}, {"time": 460, "pitch": 69, "duration": 3, "velocity": 64}, {"time": 463, "pitch": 71, "duration": 6, "velocity": 72}, {"time": 469, "pitch": 71, "duration": 6, "velocity": 91}, {"time": 475, "pitch": 69, "duration": 3, "velocity": 75}, {"time": 478, "pitch": 68, "duration": 6, "velocity": 80}, {"time": 484, "pitch": 69, "duration": 18, "velocity": 67}, {"time": 502, "pitch": 64, "duration": 3, "velocity": 67}, {"time": 505, "pitch": 64, "duration": 3, "velocity": 80}, {"time": 508, "pitch": 66, "duration": 6, "velocity": 72}, {"time": 514, "pitch": 69, "duration": 3, "velocity": 76}, {"time": 517, "pitch": 71, "duration": 9, "velocity": 69}, {"time": 526, "pitch": 69, "duration": 6, "velocity": 82}, {"time": 532, "pitch": 68, "duration": 6, "velocity": 93}, {"time": 538, "pitch": 69, "duration": 42, "velocity": 80}, {"time": 580, "pitch": 73, "duration": 15, "velocity": 91}, {"time": 595, "pitch": 73, "duration": 3, "velocity": 97}, {"time": 598, "pitch": 71, "duration": 3, "velocity": 80}, {"time": 601, "pitch": 69, "duration": 3, "velocity": 88}, {"time": 604, "pitch": 71, "duration": 3, "velocity": 78}, {"time": 607, "pitch": 69, "duration": 6, "velocity": 91}, {"time": 613, "pitch": 71, "duration": 6, "velocity": 85}, {"time": 619, "pitch": 73, "duration": 3, "velocity": 97}, {"time": 622, "pitch": 71, "duration": 6, "velocity": 97}, {"time": 628, "pitch": 69, "duration": 3, "velocity": 80}, {"time": 631, "pitch": 66, "duration": 12, "velocity": 80}, {"time": 643, "pitch": 73, "duration": 3, "velocity": 97}, {"time": 646, "pitch": 71, "duration": 3, "velocity": 70}, {"time": 649, "pitch": 69, "duration": 3, "velocity": 85}, {"time": 652, "pitch": 71, "duration": 3, "velocity": 80}, {"time": 655, "pitch": 69, "duration": 6, "velocity": 78}, {"time": 661, "pitch": 71, "duration": 6, "velocity": 88}, {"time": 667, "pitch": 73, "duration": 9, "velocity": 91}, {"time": 676, "pitch": 69, "duration": 3, "velocity": 85}, {"time": 679, "pitch": 66, "duration": 12, "velocity": 82}, {"time": 691, "pitch": 64, "duration": 3, "velocity": 78}, {"time": 694, "pitch": 64, "duration": 3, "velocity": 75}, {"time": 697, "pitch": 64, "duration": 3, "velocity": 70}, {"time": 700, "pitch": 66, "duration": 3, "velocity": 82}, {"time": 703, "pitch": 69, "duration": 6, "velocity": 88}, {"time": 709, "pitch": 71, "duration": 9, "velocity": 93}, {"time": 718, "pitch": 69, "duration": 3, "velocity": 76}, {"time": 721, "pitch": 73, "duration": 27, "velocity": 97}, {"time": 748, "pitch": 73, "duration": 6, "velocity": 95}, {"time": 754, "pitch": 71, "duration": 3, "velocity": 88}, {"time": 757, "pitch": 71, "duration": 6, "velocity": 88}, {"time": 763, "pitch": 69, "duration": 9, "velocity": 88}, {"time": 772, "pitch": 73, "duration": 15, "velocity": 97}, {"time": 787, "pitch": 73, "duration": 3, "velocity": 97}, {"time": 790, "pitch": 71, "duration": 3, "velocity": 75}, {"time": 793, "pitch": 69, "duration": 3, "velocity": 93}, {"time": 796, "pitch": 71, "duration": 3, "velocity": 88}, {"time": 799, "pitch": 69, "duration": 6, "velocity": 101}, {"time": 805, "pitch": 71, "duration": 6, "velocity": 97}, {"time": 811, "pitch": 73, "duration": 9, "velocity": 99}, {"time": 820, "pitch": 66, "duration": 15, "velocity": 97}, {"time": 835, "pitch": 73, "duration": 3, "velocity": 95}, {"time": 838, "pitch": 71, "duration": 3, "velocity": 80}, {"time": 841, "pitch": 69, "duration": 3, "velocity": 91}, {"time": 844, "pitch": 71, "duration": 3, "velocity": 78}, {"time": 847, "pitch": 69, "duration": 6, "velocity": 88}, {"time": 853, "pitch": 71, "duration": 6, "velocity": 97}, {"time": 859, "pitch": 73, "duration": 9, "velocity": 103}, {"time": 868, "pitch": 66, "duration": 18, "velocity": 93}, {"time": 886, "pitch": 64, "duration": 6, "velocity": 91}, {"time": 892, "pitch": 66, "duration": 6, "velocity": 88}, {"time": 898, "pitch": 69, "duration": 3, "velocity": 78}, {"time": 901, "pitch": 71, "duration": 9, "velocity": 69}, {"time": 910, "pitch": 69, "duration": 3, "velocity": 88}, {"time": 913, "pitch": 69, "duration": 51, "velocity": 85}, {"time": 964, "pitch": 73, "duration": 6, "velocity": 109}, {"time": 970, "pitch": 73, "duration": 3, "velocity": 101}, {"time": 973, "pitch": 73, "duration": 6, "velocity": 99}, {"time": 979, "pitch": 73, "duration": 9, "velocity": 103}, {"time": 988, "pitch": 71, "duration": 6, "velocity": 101}, {"time": 994, "pitch": 68, "duration": 3, "velocity": 101}, {"time": 997, "pitch": 68, "duration": 6, "velocity": 101}, {"time": 1003, "pitch": 71, "duration": 9, "velocity": 95}, {"time": 1012, "pitch": 69, "duration": 24, "velocity": 101}, {"time": 1036, "pitch": 68, "duration": 6, "velocity": 99}, {"time": 1042, "pitch": 64, "duration": 3, "velocity": 88}, {"time": 1045, "pitch": 64, "duration": 6, "velocity": 88}, {"time": 1051, "pitch": 68, "duration": 9, "velocity": 97}, {"time": 1060, "pitch": 66, "duration": 24, "velocity": 97}, {"time": 1084, "pitch": 71, "duration": 6, "velocity": 103}, {"time": 1090, "pitch": 71, "duration": 3, "velocity": 95}, {"time": 1093, "pitch": 71, "duration": 6, "velocity": 91}, {"time": 1099, "pitch": 69, "duration": 9, "velocity": 95}, {"time": 1108, "pitch": 64, "duration": 48, "velocity": 97}, {"time": 1156, "pitch": 73, "duration": 6, "velocity": 109}, {"time": 1162, "pitch": 73, "duration": 3, "velocity": 101}, {"time": 1165, "pitch": 73, "duration": 6, "velocity": 99}, {"time": 1171, "pitch": 73, "duration": 9, "velocity": 103}, {"time": 1180, "pitch": 71, "duration": 6, "velocity": 101}, {"time": 1186, "pitch": 68, "duration": 3, "velocity": 101}, {"time": 1189, "pitch": 68, "duration": 6, "velocity": 101}, {"time": 1195, "pitch": 71, "duration": 9, "velocity": 95}, {"time": 1204, "pitch": 69, "duration": 24, "velocity": 101}, {"time": 1228, "pitch": 68, "duration": 6, "velocity": 99}, {"time": 1234, "pitch": 64, "duration": 3, "velocity": 88}, {"time": 1237, "pitch": 64, "duration": 6, "velocity": 88}, {"time": 1243, "pitch": 68, "duration": 9, "velocity": 97}, {"time": 1252, "pitch": 66, "duration": 24, "velocity": 97}, {"time": 1276, "pitch": 71, "duration": 6, "velocity": 103}, {"time": 1282, "pitch": 71, "duration": 3, "velocity": 95}, {"time": 1285, "pitch": 71, "duration": 9, "velocity": 91}, {"time": 1294, "pitch": 69, "duration": 3, "velocity": 95}, {"time": 1297, "pitch": 68, "duration": 3, "velocity": 95}, {"time": 1300, "pitch": 69, "duration": 48, "velocity": 97}, {"time": 1348, "pitch": 73, "duration": 6, "velocity": 109}, {"time": 1354, "pitch": 73, "duration": 3, "velocity": 101}, {"time": 1357, "pitch": 73, "duration": 6, "velocity": 99}, {"time": 1363, "pitch": 73, "duration": 9, "velocity": 103}, {"time": 1372, "pitch": 76, "duration": 6, "velocity": 101}, {"time": 1378, "pitch": 76, "duration": 3, "velocity": 101}, {"time": 1381, "pitch": 76, "duration": 6, "velocity": 101}, {"time": 1387, "pitch": 71, "duration": 9, "velocity": 95}, {"time": 1396, "pitch": 69, "duration": 24, "velocity": 101}, {"time": 1420, "pitch": 68, "duration": 6, "velocity": 99}, {"time": 1426, "pitch": 64, "duration": 3, "velocity": 88}, {"time": 1429, "pitch": 64, "duration": 6, "velocity": 88}, {"time": 1435, "pitch": 68, "duration": 9, "velocity": 97}, {"time": 1444, "pitch": 66, "duration": 24, "velocity": 97}, {"time": 1468, "pitch": 71, "duration": 6, "velocity": 103}, {"time": 1474, "pitch": 71, "duration": 3, "velocity": 95}, {"time": 1477, "pitch": 71, "duration": 9, "velocity": 91}, {"time": 1486, "pitch": 69, "duration": 6, "velocity": 95}, {"time": 1492, "pitch": 64, "duration": 48, "velocity": 97}, {"time": 1540, "pitch": 73, "duration": 6, "velocity": 109}, {"time": 1546, "pitch": 73, "duration": 3, "velocity": 101}, {"time": 1549, "pitch": 73, "duration": 6, "velocity": 99}, {"time": 1555, "pitch": 73, "duration": 9, "velocity": 103}, {"time": 1564, "pitch": 76, "duration": 6, "velocity": 101}, {"time": 1570, "pitch": 76, "duration": 3, "velocity": 101}, {"time": 1573, "pitch": 76, "duration": 6, "velocity": 101}, {"time": 1579, "pitch": 78, "duration": 9, "velocity": 95}, {"time": 1588, "pitch": 78, "duration": 12, "velocity": 101}, {"time": 1600, "pitch": 73, "duration": 6, "velocity": 93}, {"time": 1606, "pitch": 73, "duration": 3, "velocity": 91}, {"time": 1609, "pitch": 71, "duration": 6, "velocity": 99}, {"time": 1615, "pitch": 69, "duration": 9, "velocity": 93}, {"time": 1624, "pitch": 73, "duration": 6, "velocity": 95}, {"time": 1630, "pitch": 73, "duration": 3, "velocity": 85}, {"time": 1633, "pitch": 71, "duration": 6, "velocity": 95}, {"time": 1639, "pitch": 69, "duration": 21, "velocity": 99}, {"time": 1660, "pitch": 71, "duration": 6, "velocity": 103}, {"time": 1666, "pitch": 71, "duration": 3, "velocity": 95}, {"time": 1669, "pitch": 71, "duration": 6, "velocity": 91}, {"time": 1675, "pitch": 73, "duration": 9, "velocity": 97}, {"time": 1684, "pitch": 71, "duration": 9, "velocity": 97}, {"time": 1693, "pitch": 73, "duration": 1, "velocity": 103}, {"time": 1694, "pitch": 71, "duration": 2, "velocity": 103}, {"time": 1696, "pitch": 69, "duration": 36, "velocity": 103}, {"time": 1924, "pitch": 73, "duration": 15, "velocity": 91}, {"time": 1939, "pitch": 73, "duration": 3, "velocity": 97}, {"time": 1942, "pitch": 71, "duration": 3, "velocity": 80}, {"time": 1945, "pitch": 69, "duration": 3, "velocity": 88}, {"time": 1948, "pitch": 71, "duration": 3, "velocity": 78}, {"time": 1951, "pitch": 69, "duration": 6, "velocity": 91}, {"time": 1957, "pitch": 71, "duration": 6, "velocity": 85}, {"time": 1963, "pitch": 73, "duration": 3, "velocity": 97}, {"time": 1966, "pitch": 71, "duration": 6, "velocity": 97}, {"time": 1972, "pitch": 69, "duration": 3, "velocity": 80}, {"time": 1975, "pitch": 66, "duration": 12, "velocity": 80}, {"time": 1987, "pitch": 73, "duration": 3, "velocity": 97}, {"time": 1990, "pitch": 71, "duration": 3, "velocity": 70}, {"time": 1993, "pitch": 69, "duration": 3, "velocity": 85}, {"time": 1996, "pitch": 71, "duration": 3, "velocity": 80}, {"time": 1999, "pitch": 69, "duration": 6, "velocity": 78}, {"time": 2005, "pitch": 71, "duration": 6, "velocity": 88}, {"time": 2011, "pitch": 73, "duration": 9, "velocity": 91}, {"time": 2020, "pitch": 69, "duration": 3, "velocity": 85}, {"time": 2023, "pitch": 66, "duration": 12, "velocity": 82}, {"time": 2035, "pitch": 64, "duration": 3, "velocity": 78}, {"time": 2038, "pitch": 64, "duration": 3, "velocity": 75}, {"time": 2041, "pitch": 64, "duration": 3, "velocity": 70}, {"time": 2044, "pitch": 66, "duration": 3, "velocity": 82}, {"time": 2047, "pitch": 69, "duration": 6, "velocity": 88}, {"time": 2053, "pitch": 71, "duration": 9, "velocity": 93}, {"time": 2062, "pitch": 69, "duration": 3, "velocity": 76}, {"time": 2065, "pitch": 73, "duration": 27, "velocity": 97}, {"time": 2092, "pitch": 73, "duration": 6, "velocity": 95}, {"time": 2098, "pitch": 71, "duration": 3, "velocity": 88}, {"time": 2101, "pitch": 71, "duration": 6, "velocity": 88}, {"time": 2107, "pitch": 69, "duration": 9, "velocity": 88}, {"time": 2116, "pitch": 73, "duration": 15, "velocity": 97}, {"time": 2131, "pitch": 73, "duration": 3, "velocity": 97}, {"time": 2134, "pitch": 71, "duration": 3, "velocity": 75}, {"time": 2137, "pitch": 69, "duration": 3, "velocity": 93}, {"time": 2140, "pitch": 71, "duration": 3, "velocity": 88}, {"time": 2143, "pitch": 69, "duration": 6, "velocity": 101}, {"time": 2149, "pitch": 71, "duration": 6, "velocity": 97}, {"time": 2155, "pitch": 73, "duration": 9, "velocity": 99}, {"time": 2164, "pitch": 66, "duration": 15, "velocity": 97}, {"time": 2179, "pitch": 73, "duration": 3, "velocity": 95}, {"time": 2182, "pitch": 71, "duration": 3, "velocity": 80}, {"time": 2185, "pitch": 69, "duration": 3, "velocity": 91}, {"time": 2188, "pitch": 71, "duration": 3, "velocity": 78}, {"time": 2191, "pitch": 69, "duration": 6, "velocity": 88}, {"time": 2197, "pitch": 71, "duration": 6, "velocity": 97}, {"time": 2203, "pitch": 73, "duration": 9, "velocity": 103}, {"time": 2212, "pitch": 66, "duration": 18, "velocity": 93}, {"time": 2230, "pitch": 64, "duration": 6, "velocity": 91}, {"time": 2236, "pitch": 66, "duration": 6, "velocity": 88}, {"time": 2242, "pitch": 69, "duration": 3, "velocity": 78}, {"time": 2245, "pitch": 71, "duration": 9, "velocity": 69}, {"time": 2254, "pitch": 69, "duration": 3, "velocity": 88}, {"time": 2257, "pitch": 69, "duration": 51, "velocity": 85}, {"time": 2308, "pitch": 73, "duration": 6, "velocity": 109}, {"time": 2314, "pitch": 73, "duration": 3, "velocity": 101}, {"time": 2317, "pitch": 73, "duration": 6, "velocity": 99}, {"time": 2323, "pitch": 73, "duration": 9, "velocity": 103}, {"time": 2332, "pitch": 71, "duration": 6, "velocity": 101}, {"time": 2338, "pitch": 68, "duration": 3, "velocity": 101}, {"time": 2341, "pitch": 68, "duration": 6, "velocity": 101}, {"time": 2347, "pitch": 71, "duration": 9, "velocity": 95}, {"time": 2356, "pitch": 69, "duration": 24, "velocity": 101}, {"time": 2380, "pitch": 68, "duration": 6, "velocity": 99}, {"time": 2386, "pitch": 64, "duration": 3, "velocity": 88}, {"time": 2389, "pitch": 64, "duration": 6, "velocity": 88}, {"time": 2395, "pitch": 68, "duration": 9, "velocity": 97}, {"time": 2404, "pitch": 66, "duration": 24, "velocity": 97}, {"time": 2428, "pitch": 71, "duration": 6, "velocity": 103}, {"time": 2434, "pitch": 71, "duration": 3, "velocity": 95}, {"time": 2437, "pitch": 71, "duration": 6, "velocity": 91}, {"time": 2443, "pitch": 69, "duration": 9, "velocity": 95}, {"time": 2452, "pitch": 64, "duration": 48, "velocity": 97}, {"time": 2500, "pitch": 73, "duration": 6, "velocity": 109}, {"time": 2506, "pitch": 73, "duration": 3, "velocity": 101}, {"time": 2509, "pitch": 73, "duration": 6, "velocity": 99}, {"time": 2515, "pitch": 73, "duration": 9, "velocity": 103}, {"time": 2524, "pitch": 71, "duration": 6, "velocity": 101}, {"time": 2530, "pitch": 68, "duration": 3, "velocity": 101}, {"time": 2533, "pitch": 68, "duration": 6, "velocity": 101}, {"time": 2539, "pitch": 71, "duration": 9, "velocity": 95}, {"time": 2548, "pitch": 69, "duration": 24, "velocity": 101}, {"time": 2572, "pitch": 68, "duration": 6, "velocity": 99}, {"time": 2578, "pitch": 64, "duration": 3, "velocity": 88}, {"time": 2581, "pitch": 64, "duration": 6, "velocity": 88}, {"time": 2587, "pitch": 68, "duration": 9, "velocity": 97}, {"time": 2596, "pitch": 66, "duration": 24, "velocity": 97}, {"time": 2620, "pitch": 71, "duration": 6, "velocity": 103}, {"time": 2626, "pitch": 71, "duration": 3, "velocity": 95}, {"time": 2629, "pitch": 71, "duration": 9, "velocity": 91}, {"time": 2638, "pitch": 69, "duration": 3, "velocity": 95}, {"time": 2641, "pitch": 68, "duration": 3, "velocity": 95}, {"time": 2644, "pitch": 69, "duration": 48, "velocity": 97}, {"time": 2692, "pitch": 73, "duration": 6, "velocity": 109}, {"time": 2698, "pitch": 73, "duration": 3, "velocity": 101}, {"time": 2701, "pitch": 73, "duration": 6, "velocity": 99}, {"time": 2707, "pitch": 73, "duration": 9, "velocity": 103}, {"time": 2716, "pitch": 76, "duration": 6, "velocity": 101}, {"time": 2722, "pitch": 76, "duration": 3, "velocity": 101}, {"time": 2725, "pitch": 76, "duration": 6, "velocity": 101}, {"time": 2731, "pitch": 71, "duration": 9, "velocity": 95}, {"time": 2740, "pitch": 69, "duration": 24, "velocity": 101}, {"time": 2764, "pitch": 68, "duration": 6, "velocity": 99}, {"time": 2770, "pitch": 64, "duration": 3, "velocity": 88}, {"time": 2773, "pitch": 64, "duration": 6, "velocity": 88}, {"time": 2779, "pitch": 68, "duration": 9, "velocity": 97}, {"time": 2788, "pitch": 66, "duration": 24, "velocity": 97}, {"time": 2812, "pitch": 71, "duration": 6, "velocity": 103}, {"time": 2818, "pitch": 71, "duration": 3, "velocity": 95}, {"time": 2821, "pitch": 71, "duration": 9, "velocity": 91}, {"time": 2830, "pitch": 69, "duration": 6, "velocity": 95}, {"time": 2836, "pitch": 64, "duration": 48, "velocity": 97}, {"time": 2884, "pitch": 73, "duration": 6, "velocity": 109}, {"time": 2890, "pitch": 73, "duration": 3, "velocity": 101}, {"time": 2893, "pitch": 73, "duration": 6, "velocity": 99}, {"time": 2899, "pitch": 73, "duration": 9, "velocity": 103}, {"time": 2908, "pitch": 76, "duration": 6, "velocity": 101}, {"time": 2914, "pitch": 76, "duration": 3, "velocity": 101}, {"time": 2917, "pitch": 76, "duration": 6, "velocity": 101}, {"time": 2923, "pitch": 78, "duration": 9, "velocity": 95}, {"time": 2932, "pitch": 78, "duration": 12, "velocity": 101}, {"time": 2944, "pitch": 73, "duration": 6, "velocity": 93}, {"time": 2950, "pitch": 73, "duration": 3, "velocity": 91}, {"time": 2953, "pitch": 71, "duration": 6, "velocity": 99}, {"time": 2959, "pitch": 69, "duration": 9, "velocity": 93}, {"time": 2968, "pitch": 73, "duration": 6, "velocity": 95}, {"time": 2974, "pitch": 73, "duration": 3, "velocity": 85}, {"time": 2977, "pitch": 71, "duration": 6, "velocity": 95}, {"time": 2983, "pitch": 69, "duration": 21, "velocity": 99}, {"time": 3004, "pitch": 71, "duration": 6, "velocity": 103}, {"time": 3010, "pitch": 71, "duration": 3, "velocity": 95}, {"time": 3013, "pitch": 71, "duration": 6, "velocity": 91}, {"time": 3019, "pitch": 73, "duration": 9, "velocity": 97}, {"time": 3028, "pitch": 71, "duration": 9, "velocity": 97}, {"time": 3037, "pitch": 73, "duration": 1, "velocity": 103}, {"time": 3038, "pitch": 71, "duration": 2, "velocity": 103}, {"time": 3040, "pitch": 69, "duration": 36, "velocity": 103}, {"time": 3100, "pitch": 76, "duration": 11, "velocity": 100}, {"time": 3123, "pitch": 81, "duration": 8, "velocity": 100}, {"time": 3137, "pitch": 73, "duration": 3, "velocity": 100}, {"time": 3143, "pitch": 73, "duration": 3, "velocity": 100}, {"time": 3148, "pitch": 71, "duration": 3, "velocity": 100}, {"time": 3151, "pitch": 69, "duration": 8, "velocity": 100}, {"time": 3160, "pitch": 73, "duration": 3, "velocity": 100}, {"time": 3166, "pitch": 73, "duration": 3, "velocity": 100}, {"time": 3172, "pitch": 71, "duration": 3, "velocity": 100}, {"time": 3176, "pitch": 69, "duration": 3, "velocity": 100}, {"time": 3196, "pitch": 71, "duration": 3, "velocity": 100}, {"time": 3203, "pitch": 71, "duration": 3, "velocity": 100}, {"time": 3206, "pitch": 71, "duration": 3, "velocity": 100}, {"time": 3213, "pitch": 73, "duration": 3, "velocity": 100}, {"time": 3218, "pitch": 71, "duration": 3, "velocity": 100}, {"time": 3224, "pitch": 69, "duration": 10, "velocity": 100}], "annotations": [{"time": 187, "annotation": {"number": 64, "value": 0}, "group": "control_change"}]}, {"program": 0, "is_drum": false, "name": "PIANO", "notes": [{"time": 4, "pitch": 69, "duration": 25, "velocity": 85}, {"time": 10, "pitch": 76, "duration": 8, "velocity": 63}, {"time": 28, "pitch": 68, "duration": 23, "velocity": 69}, {"time": 34, "pitch": 76, "duration": 7, "velocity": 63}, {"time": 52, "pitch": 66, "duration": 20, "velocity": 67}, {"time": 58, "pitch": 69, "duration": 13, "velocity": 52}, {"time": 58, "pitch": 76, "duration": 6, "velocity": 51}, {"time": 64, "pitch": 73, "duration": 12, "velocity": 63}, {"time": 76, "pitch": 65, "duration": 22, "velocity": 49}, {"time": 82, "pitch": 69, "duration": 16, "velocity": 47}, {"time": 88, "pitch": 73, "duration": 6, "velocity": 49}, {"time": 100, "pitch": 45, "duration": 16, "velocity": 66}, {"time": 106, "pitch": 52, "duration": 7, "velocity": 62}, {"time": 112, "pitch": 57, "duration": 6, "velocity": 59}, {"time": 118, "pitch": 52, "duration": 6, "velocity": 72}, {"time": 124, "pitch": 44, "duration": 11, "velocity": 67}, {"time": 130, "pitch": 52, "duration": 7, "velocity": 61}, {"time": 136, "pitch": 56, "duration": 6, "velocity": 46}, {"time": 142, "pitch": 52, "duration": 1, "velocity": 67}, {"time": 148, "pitch": 41, "duration": 10, "velocity": 67}, {"time": 154, "pitch": 57, "duration": 6, "velocity": 44}, {"time": 160, "pitch": 61, "duration": 2, "velocity": 67}, {"time": 166, "pitch": 65, "duration": 1, "velocity": 63}, {"time": 196, "pitch": 45, "duration": 16, "velocity": 60}, {"time": 196, "pitch": 57, "duration": 16, "velocity": 73}, {"time": 196, "pitch": 61, "duration": 16, "velocity": 64}, {"time": 196, "pitch": 64, "duration": 16, "velocity": 63}, {"time": 196, "pitch": 69, "duration": 24, "velocity": 70}, {"time": 220, "pitch": 44, "duration": 17, "velocity": 55}, {"time": 220, "pitch": 56, "duration": 17, "velocity": 48}, {"time": 220, "pitch": 59, "duration": 16, "velocity": 59}, {"time": 220, "pitch": 64, "duration": 16, "velocity": 63}, {"time": 220, "pitch": 69, "duration": 1, "velocity": 62}, {"time": 238, "pitch": 68, "duration": 5, "velocity": 49}, {"time": 244, "pitch": 42, "duration": 16, "velocity": 63}, {"time": 244, "pitch": 54, "duration": 16, "velocity": 55}, {"time": 244, "pitch": 61, "duration": 17, "velocity": 61}, {"time": 244, "pitch": 64, "duration": 16, "velocity": 67}, {"time": 244, "pitch": 69, "duration": 16, "velocity": 58}, {"time": 268, "pitch": 53, "duration": 17, "velocity": 61}, {"time": 268, "pitch": 61, "duration": 17, "velocity": 59}, {"time": 268, "pitch": 65, "duration": 16, "velocity": 54}, {"time": 268, "pitch": 69, "duration": 16, "velocity": 66}, {"time": 292, "pitch": 42, "duration": 19, "velocity": 53}, {"time": 292, "pitch": 54, "duration": 18, "velocity": 57}, {"time": 292, "pitch": 61, "duration": 18, "velocity": 64}, {"time": 292, "pitch": 64, "duration": 18, "velocity": 73}, {"time": 292, "pitch": 69, "duration": 17, "velocity": 67}, {"time": 316, "pitch": 38, "duration": 14, "velocity": 67}, {"time": 316, "pitch": 50, "duration": 15, "velocity": 59}, {"time": 316, "pitch": 57, "duration": 13, "velocity": 67}, {"time": 316, "pitch": 62, "duration": 16, "velocity": 72}, {"time": 316, "pitch": 66, "duration": 15, "velocity": 72}, {"time": 316, "pitch": 69, "duration": 14, "velocity": 60}, {"time": 340, "pitch": 45, "duration": 41, "velocity": 70}, {"time": 340, "pitch": 61, "duration": 7, "velocity": 72}, {"time": 340, "pitch": 64, "duration": 7, "velocity": 73}, {"time": 340, "pitch": 69, "duration": 12, "velocity": 73}, {"time": 346, "pitch": 52, "duration": 34, "velocity": 38}, {"time": 352, "pitch": 57, "duration": 28, "velocity": 40}, {"time": 358, "pitch": 59, "duration": 16, "velocity": 35}, {"time": 376, "pitch": 71, "duration": 5, "velocity": 60}, {"time": 388, "pitch": 45, "duration": 19, "velocity": 76}, {"time": 388, "pitch": 61, "duration": 6, "velocity": 66}, {"time": 388, "pitch": 64, "duration": 6, "velocity": 70}, {"time": 388, "pitch": 69, "duration": 7, "velocity": 72}, {"time": 394, "pitch": 57, "duration": 11, "velocity": 33}, {"time": 400, "pitch": 59, "duration": 5, "velocity": 49}, {"time": 400, "pitch": 68, "duration": 5, "velocity": 55}, {"time": 406, "pitch": 69, "duration": 3, "velocity": 52}, {"time": 412, "pitch": 44, "duration": 18, "velocity": 52}, {"time": 412, "pitch": 56, "duration": 17, "velocity": 47}, {"time": 412, "pitch": 59, "duration": 8, "velocity": 57}, {"time": 412, "pitch": 64, "duration": 8, "velocity": 56}, {"time": 412, "pitch": 68, "duration": 7, "velocity": 61}, {"time": 427, "pitch": 66, "duration": 4, "velocity": 46}, {"time": 430, "pitch": 68, "duration": 5, "velocity": 61}, {"time": 436, "pitch": 42, "duration": 14, "velocity": 40}, {"time": 436, "pitch": 54, "duration": 16, "velocity": 42}, {"time": 436, "pitch": 61, "duration": 9, "velocity": 58}, {"time": 436, "pitch": 64, "duration": 12, "velocity": 63}, {"time": 436, "pitch": 69, "duration": 11, "velocity": 72}, {"time": 460, "pitch": 53, "duration": 16, "velocity": 80}, {"time": 460, "pitch": 61, "duration": 17, "velocity": 64}, {"time": 460, "pitch": 65, "duration": 17, "velocity": 61}, {"time": 460, "pitch": 69, "duration": 17, "velocity": 64}, {"time": 484, "pitch": 42, "duration": 18, "velocity": 60}, {"time": 484, "pitch": 54, "duration": 17, "velocity": 62}, {"time": 484, "pitch": 61, "duration": 10, "velocity": 58}, {"time": 484, "pitch": 64, "duration": 10, "velocity": 53}, {"time": 484, "pitch": 69, "duration": 11, "velocity": 64}, {"time": 499, "pitch": 61, "duration": 2, "velocity": 54}, {"time": 502, "pitch": 64, "duration": 2, "velocity": 48}, {"time": 505, "pitch": 69, "duration": 6, "velocity": 69}, {"time": 508, "pitch": 50, "duration": 5, "velocity": 64}, {"time": 508, "pitch": 57, "duration": 6, "velocity": 69}, {"time": 508, "pitch": 62, "duration": 6, "velocity": 73}, {"time": 508, "pitch": 66, "duration": 6, "velocity": 66}, {"time": 532, "pitch": 45, "duration": 44, "velocity": 69}, {"time": 532, "pitch": 61, "duration": 10, "velocity": 62}, {"time": 532, "pitch": 64, "duration": 9, "velocity": 49}, {"time": 532, "pitch": 69, "duration": 10, "velocity": 69}, {"time": 556, "pitch": 71, "duration": 9, "velocity": 37}, {"time": 568, "pitch": 69, "duration": 8, "velocity": 47}, {"time": 580, "pitch": 45, "duration": 17, "velocity": 64}, {"time": 580, "pitch": 57, "duration": 16, "velocity": 64}, {"time": 580, "pitch": 61, "duration": 6, "velocity": 69}, {"time": 580, "pitch": 64, "duration": 6, "velocity": 73}, {"time": 580, "pitch": 69, "duration": 6, "velocity": 69}, {"time": 592, "pitch": 61, "duration": 5, "velocity": 60}, {"time": 592, "pitch": 64, "duration": 5, "velocity": 62}, {"time": 592, "pitch": 69, "duration": 4, "velocity": 61}, {"time": 604, "pitch": 44, "duration": 19, "velocity": 58}, {"time": 604, "pitch": 56, "duration": 14, "velocity": 58}, {"time": 604, "pitch": 59, "duration": 8, "velocity": 70}, {"time": 604, "pitch": 64, "duration": 8, "velocity": 69}, {"time": 604, "pitch": 68, "duration": 8, "velocity": 66}, {"time": 604, "pitch": 71, "duration": 9, "velocity": 60}, {"time": 616, "pitch": 59, "duration": 5, "velocity": 67}, {"time": 616, "pitch": 64, "duration": 6, "velocity": 78}, {"time": 616, "pitch": 68, "duration": 6, "velocity": 51}, {"time": 616, "pitch": 71, "duration": 5, "velocity": 67}, {"time": 622, "pitch": 56, "duration": 2, "velocity": 55}, {"time": 628, "pitch": 42, "duration": 14, "velocity": 67}, {"time": 628, "pitch": 54, "duration": 5, "velocity": 63}, {"time": 628, "pitch": 61, "duration": 8, "velocity": 64}, {"time": 628, "pitch": 64, "duration": 8, "velocity": 72}, {"time": 628, "pitch": 69, "duration": 7, "velocity": 66}, {"time": 637, "pitch": 54, "duration": 6, "velocity": 31}, {"time": 640, "pitch": 61, "duration": 6, "velocity": 67}, {"time": 640, "pitch": 64, "duration": 6, "velocity": 70}, {"time": 640, "pitch": 69, "duration": 5, "velocity": 66}, {"time": 646, "pitch": 42, "duration": 2, "velocity": 54}, {"time": 646, "pitch": 54, "duration": 1, "velocity": 49}, {"time": 652, "pitch": 41, "duration": 19, "velocity": 38}, {"time": 652, "pitch": 53, "duration": 15, "velocity": 66}, {"time": 652, "pitch": 59, "duration": 9, "velocity": 60}, {"time": 652, "pitch": 65, "duration": 8, "velocity": 70}, {"time": 652, "pitch": 68, "duration": 7, "velocity": 66}, {"time": 652, "pitch": 71, "duration": 6, "velocity": 64}, {"time": 664, "pitch": 59, "duration": 7, "velocity": 66}, {"time": 664, "pitch": 65, "duration": 6, "velocity": 78}, {"time": 664, "pitch": 68, "duration": 6, "velocity": 54}, {"time": 664, "pitch": 71, "duration": 4, "velocity": 67}, {"time": 670, "pitch": 53, "duration": 2, "velocity": 58}, {"time": 676, "pitch": 42, "duration": 19, "velocity": 70}, {"time": 676, "pitch": 54, "duration": 5, "velocity": 72}, {"time": 676, "pitch": 57, "duration": 9, "velocity": 85}, {"time": 676, "pitch": 62, "duration": 9, "velocity": 47}, {"time": 676, "pitch": 64, "duration": 4, "velocity": 66}, {"time": 676, "pitch": 66, "duration": 8, "velocity": 42}, {"time": 685, "pitch": 54, "duration": 6, "velocity": 31}, {"time": 688, "pitch": 57, "duration": 6, "velocity": 78}, {"time": 688, "pitch": 62, "duration": 6, "velocity": 80}, {"time": 688, "pitch": 66, "duration": 5, "velocity": 69}, {"time": 694, "pitch": 54, "duration": 1, "velocity": 53}, {"time": 700, "pitch": 38, "duration": 5, "velocity": 69}, {"time": 700, "pitch": 50, "duration": 5, "velocity": 69}, {"time": 700, "pitch": 57, "duration": 6, "velocity": 70}, {"time": 700, "pitch": 62, "duration": 6, "velocity": 75}, {"time": 700, "pitch": 66, "duration": 6, "velocity": 72}, {"time": 700, "pitch": 69, "duration": 7, "velocity": 72}, {"time": 712, "pitch": 59, "duration": 5, "velocity": 60}, {"time": 712, "pitch": 64, "duration": 5, "velocity": 59}, {"time": 712, "pitch": 68, "duration": 4, "velocity": 56}, {"time": 724, "pitch": 45, "duration": 33, "velocity": 72}, {"time": 724, "pitch": 61, "duration": 6, "velocity": 67}, {"time": 724, "pitch": 64, "duration": 6, "velocity": 73}, {"time": 724, "pitch": 69, "duration": 7, "velocity": 73}, {"time": 730, "pitch": 57, "duration": 7, "velocity": 31}, {"time": 736, "pitch": 59, "duration": 6, "velocity": 60}, {"time": 736, "pitch": 68, "duration": 6, "velocity": 64}, {"time": 742, "pitch": 57, "duration": 8, "velocity": 41}, {"time": 748, "pitch": 59, "duration": 5, "velocity": 67}, {"time": 748, "pitch": 64, "duration": 6, "velocity": 67}, {"time": 748, "pitch": 71, "duration": 5, "velocity": 73}, {"time": 754, "pitch": 57, "duration": 2, "velocity": 57}, {"time": 760, "pitch": 61, "duration": 7, "velocity": 78}, {"time": 760, "pitch": 64, "duration": 7, "velocity": 78}, {"time": 760, "pitch": 69, "duration": 10, "velocity": 78}, {"time": 766, "pitch": 40, "duration": 4, "velocity": 69}, {"time": 769, "pitch": 44, "duration": 4, "velocity": 53}, {"time": 772, "pitch": 45, "duration": 5, "velocity": 73}, {"time": 772, "pitch": 61, "duration": 8, "velocity": 72}, {"time": 772, "pitch": 64, "duration": 7, "velocity": 80}, {"time": 772, "pitch": 69, "duration": 7, "velocity": 73}, {"time": 778, "pitch": 45, "duration": 14, "velocity": 72}, {"time": 784, "pitch": 61, "duration": 6, "velocity": 73}, {"time": 784, "pitch": 64, "duration": 6, "velocity": 76}, {"time": 784, "pitch": 69, "duration": 4, "velocity": 73}, {"time": 790, "pitch": 57, "duration": 1, "velocity": 64}, {"time": 796, "pitch": 44, "duration": 17, "velocity": 67}, {"time": 796, "pitch": 56, "duration": 3, "velocity": 73}, {"time": 796, "pitch": 59, "duration": 3, "velocity": 80}, {"time": 796, "pitch": 64, "duration": 4, "velocity": 91}, {"time": 796, "pitch": 68, "duration": 4, "velocity": 72}, {"time": 796, "pitch": 71, "duration": 4, "velocity": 75}, {"time": 805, "pitch": 56, "duration": 4, "velocity": 47}, {"time": 808, "pitch": 68, "duration": 4, "velocity": 75}, {"time": 808, "pitch": 76, "duration": 4, "velocity": 75}, {"time": 814, "pitch": 71, "duration": 5, "velocity": 58}, {"time": 820, "pitch": 42, "duration": 20, "velocity": 64}, {"time": 820, "pitch": 54, "duration": 4, "velocity": 70}, {"time": 820, "pitch": 64, "duration": 5, "velocity": 72}, {"time": 820, "pitch": 69, "duration": 5, "velocity": 75}, {"time": 820, "pitch": 73, "duration": 5, "velocity": 73}, {"time": 832, "pitch": 61, "duration": 5, "velocity": 76}, {"time": 832, "pitch": 64, "duration": 5, "velocity": 76}, {"time": 832, "pitch": 69, "duration": 5, "velocity": 78}, {"time": 838, "pitch": 54, "duration": 1, "velocity": 58}, {"time": 844, "pitch": 40, "duration": 12, "velocity": 70}, {"time": 844, "pitch": 52, "duration": 4, "velocity": 61}, {"time": 844, "pitch": 59, "duration": 8, "velocity": 69}, {"time": 844, "pitch": 65, "duration": 8, "velocity": 72}, {"time": 844, "pitch": 68, "duration": 8, "velocity": 72}, {"time": 853, "pitch": 52, "duration": 3, "velocity": 39}, {"time": 856, "pitch": 59, "duration": 6, "velocity": 88}, {"time": 856, "pitch": 65, "duration": 6, "velocity": 101}, {"time": 856, "pitch": 68, "duration": 6, "velocity": 75}, {"time": 868, "pitch": 42, "duration": 20, "velocity": 66}, {"time": 868, "pitch": 54, "duration": 5, "velocity": 64}, {"time": 868, "pitch": 61, "duration": 8, "velocity": 76}, {"time": 868, "pitch": 64, "duration": 7, "velocity": 73}, {"time": 868, "pitch": 69, "duration": 8, "velocity": 76}, {"time": 880, "pitch": 61, "duration": 3, "velocity": 85}, {"time": 880, "pitch": 64, "duration": 3, "velocity": 82}, {"time": 880, "pitch": 69, "duration": 5, "velocity": 78}, {"time": 886, "pitch": 57, "duration": 3, "velocity": 67}, {"time": 886, "pitch": 62, "duration": 4, "velocity": 67}, {"time": 886, "pitch": 66, "duration": 5, "velocity": 59}, {"time": 886, "pitch": 69, "duration": 1, "velocity": 51}, {"time": 892, "pitch": 59, "duration": 7, "velocity": 82}, {"time": 892, "pitch": 64, "duration": 8, "velocity": 85}, {"time": 892, "pitch": 68, "duration": 7, "velocity": 76}, {"time": 904, "pitch": 40, "duration": 6, "velocity": 66}, {"time": 904, "pitch": 52, "duration": 3, "velocity": 58}, {"time": 904, "pitch": 57, "duration": 6, "velocity": 93}, {"time": 904, "pitch": 62, "duration": 7, "velocity": 76}, {"time": 904, "pitch": 66, "duration": 7, "velocity": 64}, {"time": 904, "pitch": 69, "duration": 6, "velocity": 63}, {"time": 910, "pitch": 52, "duration": 1, "velocity": 54}, {"time": 916, "pitch": 45, "duration": 15, "velocity": 69}, {"time": 916, "pitch": 52, "duration": 16, "velocity": 70}, {"time": 916, "pitch": 57, "duration": 4, "velocity": 64}, {"time": 916, "pitch": 61, "duration": 6, "velocity": 82}, {"time": 916, "pitch": 64, "duration": 7, "velocity": 82}, {"time": 916, "pitch": 69, "duration": 7, "velocity": 76}, {"time": 922, "pitch": 57, "duration": 7, "velocity": 45}, {"time": 928, "pitch": 59, "duration": 6, "velocity": 91}, {"time": 928, "pitch": 64, "duration": 6, "velocity": 93}, {"time": 934, "pitch": 45, "duration": 2, "velocity": 64}, {"time": 934, "pitch": 52, "duration": 1, "velocity": 61}, {"time": 934, "pitch": 57, "duration": 1, "velocity": 64}, {"time": 934, "pitch": 69, "duration": 4, "velocity": 72}, {"time": 940, "pitch": 40, "duration": 7, "velocity": 80}, {"time": 940, "pitch": 52, "duration": 7, "velocity": 67}, {"time": 940, "pitch": 59, "duration": 3, "velocity": 82}, {"time": 940, "pitch": 64, "duration": 4, "velocity": 85}, {"time": 940, "pitch": 68, "duration": 5, "velocity": 75}, {"time": 946, "pitch": 42, "duration": 7, "velocity": 67}, {"time": 946, "pitch": 61, "duration": 3, "velocity": 61}, {"time": 946, "pitch": 64, "duration": 4, "velocity": 60}, {"time": 946, "pitch": 69, "duration": 3, "velocity": 72}, {"time": 952, "pitch": 44, "duration": 6, "velocity": 70}, {"time": 952, "pitch": 64, "duration": 2, "velocity": 80}, {"time": 952, "pitch": 71, "duration": 2, "velocity": 73}, {"time": 958, "pitch": 76, "duration": 1, "velocity": 63}, {"time": 961, "pitch": 74, "duration": 1, "velocity": 62}, {"time": 964, "pitch": 45, "duration": 18, "velocity": 91}, {"time": 964, "pitch": 64, "duration": 5, "velocity": 63}, {"time": 964, "pitch": 69, "duration": 4, "velocity": 72}, {"time": 964, "pitch": 73, "duration": 5, "velocity": 82}, {"time": 970, "pitch": 52, "duration": 13, "velocity": 63}, {"time": 973, "pitch": 57, "duration": 8, "velocity": 73}, {"time": 976, "pitch": 59, "duration": 4, "velocity": 82}, {"time": 979, "pitch": 64, "duration": 3, "velocity": 49}, {"time": 982, "pitch": 69, "duration": 4, "velocity": 73}, {"time": 988, "pitch": 44, "duration": 16, "velocity": 76}, {"time": 988, "pitch": 56, "duration": 5, "velocity": 76}, {"time": 988, "pitch": 59, "duration": 8, "velocity": 93}, {"time": 988, "pitch": 64, "duration": 10, "velocity": 91}, {"time": 988, "pitch": 68, "duration": 7, "velocity": 76}, {"time": 997, "pitch": 56, "duration": 6, "velocity": 51}, {"time": 1000, "pitch": 59, "duration": 4, "velocity": 91}, {"time": 1000, "pitch": 64, "duration": 5, "velocity": 95}, {"time": 1000, "pitch": 68, "duration": 6, "velocity": 95}, {"time": 1006, "pitch": 50, "duration": 3, "velocity": 63}, {"time": 1009, "pitch": 66, "duration": 3, "velocity": 56}, {"time": 1010, "pitch": 68, "duration": 2, "velocity": 66}, {"time": 1012, "pitch": 42, "duration": 18, "velocity": 72}, {"time": 1012, "pitch": 61, "duration": 7, "velocity": 76}, {"time": 1012, "pitch": 64, "duration": 8, "velocity": 80}, {"time": 1012, "pitch": 69, "duration": 7, "velocity": 75}, {"time": 1018, "pitch": 49, "duration": 7, "velocity": 37}, {"time": 1024, "pitch": 54, "duration": 5, "velocity": 59}, {"time": 1024, "pitch": 61, "duration": 6, "velocity": 82}, {"time": 1024, "pitch": 64, "duration": 6, "velocity": 93}, {"time": 1024, "pitch": 69, "duration": 5, "velocity": 80}, {"time": 1030, "pitch": 49, "duration": 7, "velocity": 50}, {"time": 1036, "pitch": 40, "duration": 19, "velocity": 73}, {"time": 1036, "pitch": 59, "duration": 4, "velocity": 88}, {"time": 1036, "pitch": 64, "duration": 5, "velocity": 88}, {"time": 1036, "pitch": 68, "duration": 5, "velocity": 76}, {"time": 1042, "pitch": 49, "duration": 9, "velocity": 58}, {"time": 1042, "pitch": 61, "duration": 1, "velocity": 64}, {"time": 1042, "pitch": 64, "duration": 1, "velocity": 62}, {"time": 1042, "pitch": 69, "duration": 2, "velocity": 72}, {"time": 1045, "pitch": 59, "duration": 2, "velocity": 85}, {"time": 1045, "pitch": 68, "duration": 4, "velocity": 88}, {"time": 1048, "pitch": 52, "duration": 5, "velocity": 47}, {"time": 1051, "pitch": 59, "duration": 4, "velocity": 82}, {"time": 1051, "pitch": 64, "duration": 4, "velocity": 93}, {"time": 1054, "pitch": 49, "duration": 1, "velocity": 66}, {"time": 1060, "pitch": 38, "duration": 19, "velocity": 78}, {"time": 1060, "pitch": 50, "duration": 4, "velocity": 78}, {"time": 1060, "pitch": 57, "duration": 9, "velocity": 97}, {"time": 1060, "pitch": 62, "duration": 9, "velocity": 80}, {"time": 1060, "pitch": 66, "duration": 8, "velocity": 76}, {"time": 1060, "pitch": 69, "duration": 9, "velocity": 59}, {"time": 1066, "pitch": 50, "duration": 7, "velocity": 48}, {"time": 1072, "pitch": 57, "duration": 7, "velocity": 95}, {"time": 1072, "pitch": 62, "duration": 7, "velocity": 101}, {"time": 1072, "pitch": 66, "duration": 7, "velocity": 101}, {"time": 1072, "pitch": 69, "duration": 6, "velocity": 76}, {"time": 1078, "pitch": 50, "duration": 1, "velocity": 88}, {"time": 1084, "pitch": 38, "duration": 17, "velocity": 73}, {"time": 1084, "pitch": 50, "duration": 3, "velocity": 78}, {"time": 1084, "pitch": 57, "duration": 7, "velocity": 88}, {"time": 1084, "pitch": 62, "duration": 6, "velocity": 93}, {"time": 1084, "pitch": 65, "duration": 7, "velocity": 97}, {"time": 1084, "pitch": 69, "duration": 7, "velocity": 80}, {"time": 1090, "pitch": 50, "duration": 8, "velocity": 61}, {"time": 1096, "pitch": 57, "duration": 4, "velocity": 69}, {"time": 1096, "pitch": 59, "duration": 5, "velocity": 70}, {"time": 1102, "pitch": 50, "duration": 5, "velocity": 95}, {"time": 1108, "pitch": 45, "duration": 19, "velocity": 82}, {"time": 1108, "pitch": 61, "duration": 4, "velocity": 91}, {"time": 1108, "pitch": 64, "duration": 4, "velocity": 95}, {"time": 1108, "pitch": 69, "duration": 4, "velocity": 85}, {"time": 1114, "pitch": 52, "duration": 7, "velocity": 61}, {"time": 1114, "pitch": 59, "duration": 2, "velocity": 62}, {"time": 1114, "pitch": 68, "duration": 6, "velocity": 61}, {"time": 1120, "pitch": 57, "duration": 7, "velocity": 66}, {"time": 1120, "pitch": 61, "duration": 1, "velocity": 76}, {"time": 1120, "pitch": 64, "duration": 1, "velocity": 70}, {"time": 1120, "pitch": 69, "duration": 2, "velocity": 70}, {"time": 1126, "pitch": 52, "duration": 5, "velocity": 66}, {"time": 1126, "pitch": 71, "duration": 5, "velocity": 57}, {"time": 1132, "pitch": 45, "duration": 9, "velocity": 70}, {"time": 1132, "pitch": 64, "duration": 2, "velocity": 82}, {"time": 1132, "pitch": 69, "duration": 2, "velocity": 73}, {"time": 1132, "pitch": 73, "duration": 2, "velocity": 73}, {"time": 1135, "pitch": 52, "duration": 6, "velocity": 54}, {"time": 1138, "pitch": 57, "duration": 3, "velocity": 80}, {"time": 1141, "pitch": 59, "duration": 3, "velocity": 78}, {"time": 1144, "pitch": 40, "duration": 4, "velocity": 80}, {"time": 1144, "pitch": 59, "duration": 1, "velocity": 34}, {"time": 1144, "pitch": 61, "duration": 2, "velocity": 70}, {"time": 1147, "pitch": 42, "duration": 4, "velocity": 63}, {"time": 1147, "pitch": 69, "duration": 4, "velocity": 66}, {"time": 1150, "pitch": 44, "duration": 2, "velocity": 60}, {"time": 1150, "pitch": 68, "duration": 3, "velocity": 62}, {"time": 1153, "pitch": 66, "duration": 2, "velocity": 56}, {"time": 1156, "pitch": 45, "duration": 18, "velocity": 76}, {"time": 1156, "pitch": 61, "duration": 8, "velocity": 91}, {"time": 1156, "pitch": 64, "duration": 9, "velocity": 80}, {"time": 1156, "pitch": 69, "duration": 8, "velocity": 76}, {"time": 1162, "pitch": 52, "duration": 14, "velocity": 61}, {"time": 1165, "pitch": 57, "duration": 4, "velocity": 60}, {"time": 1168, "pitch": 61, "duration": 4, "velocity": 97}, {"time": 1168, "pitch": 64, "duration": 4, "velocity": 99}, {"time": 1168, "pitch": 69, "duration": 4, "velocity": 75}, {"time": 1171, "pitch": 57, "duration": 3, "velocity": 70}, {"time": 1174, "pitch": 61, "duration": 2, "velocity": 66}, {"time": 1177, "pitch": 69, "duration": 3, "velocity": 67}, {"time": 1180, "pitch": 44, "duration": 16, "velocity": 75}, {"time": 1180, "pitch": 56, "duration": 5, "velocity": 80}, {"time": 1180, "pitch": 59, "duration": 10, "velocity": 85}, {"time": 1180, "pitch": 64, "duration": 10, "velocity": 88}, {"time": 1180, "pitch": 68, "duration": 7, "velocity": 88}, {"time": 1180, "pitch": 69, "duration": 1, "velocity": 53}, {"time": 1189, "pitch": 56, "duration": 5, "velocity": 56}, {"time": 1192, "pitch": 59, "duration": 4, "velocity": 78}, {"time": 1192, "pitch": 64, "duration": 4, "velocity": 91}, {"time": 1192, "pitch": 68, "duration": 4, "velocity": 93}, {"time": 1195, "pitch": 50, "duration": 2, "velocity": 76}, {"time": 1198, "pitch": 66, "duration": 2, "velocity": 69}, {"time": 1201, "pitch": 66, "duration": 1, "velocity": 43}, {"time": 1201, "pitch": 68, "duration": 2, "velocity": 64}, {"time": 1204, "pitch": 42, "duration": 5, "velocity": 73}, {"time": 1204, "pitch": 61, "duration": 12, "velocity": 82}, {"time": 1204, "pitch": 64, "duration": 12, "velocity": 80}, {"time": 1204, "pitch": 69, "duration": 12, "velocity": 80}, {"time": 1207, "pitch": 49, "duration": 3, "velocity": 69}, {"time": 1210, "pitch": 54, "duration": 4, "velocity": 48}, {"time": 1213, "pitch": 56, "duration": 5, "velocity": 62}, {"time": 1216, "pitch": 57, "duration": 1, "velocity": 70}, {"time": 1219, "pitch": 61, "duration": 2, "velocity": 72}, {"time": 1222, "pitch": 64, "duration": 3, "velocity": 78}, {"time": 1225, "pitch": 69, "duration": 5, "velocity": 69}, {"time": 1228, "pitch": 40, "duration": 19, "velocity": 76}, {"time": 1228, "pitch": 52, "duration": 5, "velocity": 58}, {"time": 1228, "pitch": 59, "duration": 10, "velocity": 78}, {"time": 1228, "pitch": 64, "duration": 10, "velocity": 82}, {"time": 1228, "pitch": 68, "duration": 7, "velocity": 85}, {"time": 1237, "pitch": 52, "duration": 5, "velocity": 58}, {"time": 1240, "pitch": 59, "duration": 6, "velocity": 82}, {"time": 1240, "pitch": 64, "duration": 3, "velocity": 95}, {"time": 1240, "pitch": 68, "duration": 5, "velocity": 95}, {"time": 1246, "pitch": 52, "duration": 2, "velocity": 85}, {"time": 1249, "pitch": 64, "duration": 4, "velocity": 67}, {"time": 1252, "pitch": 38, "duration": 17, "velocity": 73}, {"time": 1252, "pitch": 50, "duration": 5, "velocity": 82}, {"time": 1252, "pitch": 57, "duration": 10, "velocity": 88}, {"time": 1252, "pitch": 62, "duration": 10, "velocity": 80}, {"time": 1252, "pitch": 66, "duration": 7, "velocity": 75}, {"time": 1261, "pitch": 50, "duration": 5, "velocity": 45}, {"time": 1264, "pitch": 57, "duration": 7, "velocity": 75}, {"time": 1264, "pitch": 62, "duration": 7, "velocity": 93}, {"time": 1264, "pitch": 66, "duration": 7, "velocity": 95}, {"time": 1270, "pitch": 50, "duration": 2, "velocity": 69}, {"time": 1276, "pitch": 38, "duration": 15, "velocity": 73}, {"time": 1276, "pitch": 50, "duration": 4, "velocity": 80}, {"time": 1276, "pitch": 57, "duration": 10, "velocity": 78}, {"time": 1276, "pitch": 62, "duration": 10, "velocity": 78}, {"time": 1276, "pitch": 65, "duration": 10, "velocity": 85}, {"time": 1276, "pitch": 69, "duration": 10, "velocity": 80}, {"time": 1285, "pitch": 50, "duration": 7, "velocity": 46}, {"time": 1288, "pitch": 57, "duration": 7, "velocity": 93}, {"time": 1288, "pitch": 62, "duration": 7, "velocity": 103}, {"time": 1288, "pitch": 65, "duration": 7, "velocity": 106}, {"time": 1288, "pitch": 69, "duration": 7, "velocity": 85}, {"time": 1294, "pitch": 38, "duration": 2, "velocity": 67}, {"time": 1300, "pitch": 33, "duration": 19, "velocity": 69}, {"time": 1300, "pitch": 45, "duration": 5, "velocity": 80}, {"time": 1300, "pitch": 61, "duration": 10, "velocity": 95}, {"time": 1300, "pitch": 64, "duration": 10, "velocity": 97}, {"time": 1300, "pitch": 69, "duration": 9, "velocity": 82}, {"time": 1309, "pitch": 45, "duration": 6, "velocity": 44}, {"time": 1312, "pitch": 61, "duration": 7, "velocity": 91}, {"time": 1312, "pitch": 64, "duration": 7, "velocity": 95}, {"time": 1312, "pitch": 69, "duration": 7, "velocity": 82}, {"time": 1318, "pitch": 45, "duration": 2, "velocity": 85}, {"time": 1324, "pitch": 33, "duration": 15, "velocity": 82}, {"time": 1324, "pitch": 45, "duration": 2, "velocity": 85}, {"time": 1324, "pitch": 57, "duration": 5, "velocity": 93}, {"time": 1324, "pitch": 62, "duration": 7, "velocity": 99}, {"time": 1324, "pitch": 66, "duration": 6, "velocity": 97}, {"time": 1330, "pitch": 45, "duration": 4, "velocity": 76}, {"time": 1333, "pitch": 59, "duration": 1, "velocity": 73}, {"time": 1333, "pitch": 61, "duration": 3, "velocity": 91}, {"time": 1333, "pitch": 64, "duration": 4, "velocity": 103}, {"time": 1333, "pitch": 69, "duration": 4, "velocity": 93}, {"time": 1336, "pitch": 45, "duration": 3, "velocity": 85}, {"time": 1339, "pitch": 59, "duration": 3, "velocity": 97}, {"time": 1339, "pitch": 64, "duration": 4, "velocity": 95}, {"time": 1339, "pitch": 68, "duration": 3, "velocity": 82}, {"time": 1342, "pitch": 40, "duration": 5, "velocity": 101}, {"time": 1345, "pitch": 61, "duration": 1, "velocity": 40}, {"time": 1345, "pitch": 64, "duration": 1, "velocity": 60}, {"time": 1348, "pitch": 33, "duration": 16, "velocity": 75}, {"time": 1348, "pitch": 45, "duration": 5, "velocity": 95}, {"time": 1348, "pitch": 61, "duration": 10, "velocity": 95}, {"time": 1348, "pitch": 64, "duration": 10, "velocity": 88}, {"time": 1348, "pitch": 69, "duration": 9, "velocity": 75}, {"time": 1357, "pitch": 45, "duration": 4, "velocity": 85}, {"time": 1360, "pitch": 61, "duration": 4, "velocity": 95}, {"time": 1360, "pitch": 64, "duration": 4, "velocity": 101}, {"time": 1360, "pitch": 69, "duration": 4, "velocity": 82}, {"time": 1363, "pitch": 45, "duration": 2, "velocity": 93}, {"time": 1366, "pitch": 61, "duration": 2, "velocity": 80}, {"time": 1366, "pitch": 64, "duration": 2, "velocity": 66}, {"time": 1369, "pitch": 71, "duration": 8, "velocity": 75}, {"time": 1372, "pitch": 44, "duration": 17, "velocity": 76}, {"time": 1372, "pitch": 56, "duration": 4, "velocity": 91}, {"time": 1372, "pitch": 59, "duration": 5, "velocity": 91}, {"time": 1372, "pitch": 64, "duration": 5, "velocity": 93}, {"time": 1372, "pitch": 68, "duration": 6, "velocity": 88}, {"time": 1381, "pitch": 56, "duration": 4, "velocity": 78}, {"time": 1384, "pitch": 68, "duration": 4, "velocity": 91}, {"time": 1384, "pitch": 71, "duration": 4, "velocity": 99}, {"time": 1384, "pitch": 76, "duration": 5, "velocity": 80}, {"time": 1387, "pitch": 56, "duration": 1, "velocity": 88}, {"time": 1390, "pitch": 43, "duration": 4, "velocity": 40}, {"time": 1390, "pitch": 71, "duration": 3, "velocity": 75}, {"time": 1393, "pitch": 73, "duration": 6, "velocity": 78}, {"time": 1396, "pitch": 42, "duration": 20, "velocity": 80}, {"time": 1396, "pitch": 64, "duration": 5, "velocity": 97}, {"time": 1396, "pitch": 69, "duration": 4, "velocity": 93}, {"time": 1402, "pitch": 49, "duration": 17, "velocity": 72}, {"time": 1405, "pitch": 54, "duration": 4, "velocity": 73}, {"time": 1408, "pitch": 61, "duration": 1, "velocity": 82}, {"time": 1408, "pitch": 69, "duration": 2, "velocity": 72}, {"time": 1411, "pitch": 59, "duration": 2, "velocity": 70}, {"time": 1411, "pitch": 68, "duration": 2, "velocity": 63}, {"time": 1414, "pitch": 61, "duration": 1, "velocity": 70}, {"time": 1414, "pitch": 69, "duration": 2, "velocity": 80}, {"time": 1417, "pitch": 59, "duration": 1, "velocity": 72}, {"time": 1417, "pitch": 68, "duration": 2, "velocity": 61}, {"time": 1420, "pitch": 40, "duration": 18, "velocity": 73}, {"time": 1420, "pitch": 59, "duration": 7, "velocity": 85}, {"time": 1420, "pitch": 64, "duration": 6, "velocity": 93}, {"time": 1426, "pitch": 49, "duration": 12, "velocity": 64}, {"time": 1429, "pitch": 52, "duration": 7, "velocity": 80}, {"time": 1432, "pitch": 57, "duration": 2, "velocity": 85}, {"time": 1435, "pitch": 59, "duration": 1, "velocity": 55}, {"time": 1435, "pitch": 61, "duration": 2, "velocity": 56}, {"time": 1438, "pitch": 64, "duration": 3, "velocity": 73}, {"time": 1441, "pitch": 69, "duration": 7, "velocity": 75}, {"time": 1444, "pitch": 38, "duration": 17, "velocity": 72}, {"time": 1444, "pitch": 57, "duration": 6, "velocity": 93}, {"time": 1444, "pitch": 62, "duration": 7, "velocity": 85}, {"time": 1444, "pitch": 66, "duration": 7, "velocity": 75}, {"time": 1450, "pitch": 45, "duration": 11, "velocity": 66}, {"time": 1453, "pitch": 50, "duration": 3, "velocity": 56}, {"time": 1456, "pitch": 57, "duration": 4, "velocity": 97}, {"time": 1456, "pitch": 62, "duration": 4, "velocity": 103}, {"time": 1456, "pitch": 66, "duration": 4, "velocity": 97}, {"time": 1456, "pitch": 69, "duration": 3, "velocity": 75}, {"time": 1459, "pitch": 50, "duration": 2, "velocity": 67}, {"time": 1462, "pitch": 57, "duration": 4, "velocity": 75}, {"time": 1465, "pitch": 62, "duration": 1, "velocity": 47}, {"time": 1465, "pitch": 69, "duration": 1, "velocity": 56}, {"time": 1468, "pitch": 38, "duration": 14, "velocity": 72}, {"time": 1468, "pitch": 50, "duration": 5, "velocity": 85}, {"time": 1468, "pitch": 57, "duration": 10, "velocity": 97}, {"time": 1468, "pitch": 62, "duration": 9, "velocity": 97}, {"time": 1468, "pitch": 65, "duration": 10, "velocity": 109}, {"time": 1468, "pitch": 69, "duration": 9, "velocity": 85}, {"time": 1477, "pitch": 50, "duration": 5, "velocity": 49}, {"time": 1480, "pitch": 57, "duration": 6, "velocity": 95}, {"time": 1480, "pitch": 62, "duration": 6, "velocity": 101}, {"time": 1480, "pitch": 65, "duration": 6, "velocity": 106}, {"time": 1480, "pitch": 69, "duration": 5, "velocity": 88}, {"time": 1486, "pitch": 38, "duration": 2, "velocity": 78}, {"time": 1486, "pitch": 50, "duration": 1, "velocity": 58}, {"time": 1492, "pitch": 33, "duration": 34, "velocity": 91}, {"time": 1492, "pitch": 45, "duration": 3, "velocity": 85}, {"time": 1492, "pitch": 61, "duration": 8, "velocity": 97}, {"time": 1492, "pitch": 64, "duration": 8, "velocity": 103}, {"time": 1492, "pitch": 69, "duration": 8, "velocity": 93}, {"time": 1498, "pitch": 45, "duration": 2, "velocity": 62}, {"time": 1501, "pitch": 73, "duration": 1, "velocity": 88}, {"time": 1501, "pitch": 81, "duration": 2, "velocity": 75}, {"time": 1504, "pitch": 45, "duration": 3, "velocity": 70}, {"time": 1507, "pitch": 71, "duration": 1, "velocity": 78}, {"time": 1507, "pitch": 80, "duration": 1, "velocity": 93}, {"time": 1510, "pitch": 45, "duration": 4, "velocity": 52}, {"time": 1513, "pitch": 69, "duration": 2, "velocity": 85}, {"time": 1513, "pitch": 76, "duration": 4, "velocity": 88}, {"time": 1519, "pitch": 64, "duration": 2, "velocity": 72}, {"time": 1522, "pitch": 45, "duration": 4, "velocity": 58}, {"time": 1522, "pitch": 69, "duration": 2, "velocity": 82}, {"time": 1525, "pitch": 71, "duration": 2, "velocity": 85}, {"time": 1528, "pitch": 37, "duration": 5, "velocity": 80}, {"time": 1528, "pitch": 64, "duration": 1, "velocity": 59}, {"time": 1528, "pitch": 73, "duration": 3, "velocity": 95}, {"time": 1531, "pitch": 64, "duration": 2, "velocity": 50}, {"time": 1531, "pitch": 69, "duration": 2, "velocity": 70}, {"time": 1534, "pitch": 40, "duration": 5, "velocity": 76}, {"time": 1534, "pitch": 71, "duration": 3, "velocity": 82}, {"time": 1537, "pitch": 73, "duration": 2, "velocity": 85}, {"time": 1540, "pitch": 33, "duration": 2, "velocity": 73}, {"time": 1540, "pitch": 45, "duration": 3, "velocity": 82}, {"time": 1540, "pitch": 64, "duration": 11, "velocity": 85}, {"time": 1540, "pitch": 69, "duration": 10, "velocity": 82}, {"time": 1540, "pitch": 73, "duration": 10, "velocity": 66}, {"time": 1540, "pitch": 76, "duration": 10, "velocity": 82}, {"time": 1549, "pitch": 45, "duration": 10, "velocity": 59}, {"time": 1552, "pitch": 57, "duration": 1, "velocity": 48}, {"time": 1552, "pitch": 64, "duration": 4, "velocity": 91}, {"time": 1552, "pitch": 69, "duration": 5, "velocity": 101}, {"time": 1552, "pitch": 73, "duration": 5, "velocity": 95}, {"time": 1552, "pitch": 76, "duration": 4, "velocity": 85}, {"time": 1555, "pitch": 57, "duration": 2, "velocity": 85}, {"time": 1558, "pitch": 71, "duration": 3, "velocity": 85}, {"time": 1561, "pitch": 76, "duration": 8, "velocity": 78}, {"time": 1564, "pitch": 44, "duration": 16, "velocity": 73}, {"time": 1564, "pitch": 56, "duration": 5, "velocity": 91}, {"time": 1564, "pitch": 64, "duration": 6, "velocity": 95}, {"time": 1564, "pitch": 68, "duration": 6, "velocity": 95}, {"time": 1564, "pitch": 71, "duration": 6, "velocity": 78}, {"time": 1573, "pitch": 56, "duration": 4, "velocity": 67}, {"time": 1576, "pitch": 59, "duration": 4, "velocity": 97}, {"time": 1576, "pitch": 64, "duration": 5, "velocity": 97}, {"time": 1576, "pitch": 68, "duration": 5, "velocity": 99}, {"time": 1579, "pitch": 56, "duration": 1, "velocity": 62}, {"time": 1582, "pitch": 43, "duration": 4, "velocity": 82}, {"time": 1582, "pitch": 66, "duration": 4, "velocity": 85}, {"time": 1585, "pitch": 68, "duration": 2, "velocity": 80}, {"time": 1588, "pitch": 42, "duration": 19, "velocity": 82}, {"time": 1588, "pitch": 61, "duration": 10, "velocity": 93}, {"time": 1588, "pitch": 64, "duration": 10, "velocity": 95}, {"time": 1588, "pitch": 69, "duration": 9, "velocity": 64}, {"time": 1594, "pitch": 49, "duration": 13, "velocity": 52}, {"time": 1597, "pitch": 54, "duration": 4, "velocity": 67}, {"time": 1600, "pitch": 61, "duration": 4, "velocity": 95}, {"time": 1600, "pitch": 64, "duration": 4, "velocity": 101}, {"time": 1600, "pitch": 69, "duration": 4, "velocity": 85}, {"time": 1603, "pitch": 54, "duration": 3, "velocity": 73}, {"time": 1606, "pitch": 61, "duration": 2, "velocity": 85}, {"time": 1606, "pitch": 64, "duration": 1, "velocity": 54}, {"time": 1609, "pitch": 69, "duration": 2, "velocity": 69}, {"time": 1612, "pitch": 40, "duration": 18, "velocity": 76}, {"time": 1612, "pitch": 52, "duration": 5, "velocity": 88}, {"time": 1612, "pitch": 59, "duration": 10, "velocity": 91}, {"time": 1612, "pitch": 64, "duration": 10, "velocity": 85}, {"time": 1612, "pitch": 68, "duration": 9, "velocity": 88}, {"time": 1621, "pitch": 52, "duration": 4, "velocity": 62}, {"time": 1624, "pitch": 59, "duration": 4, "velocity": 95}, {"time": 1624, "pitch": 64, "duration": 4, "velocity": 101}, {"time": 1624, "pitch": 68, "duration": 4, "velocity": 97}, {"time": 1627, "pitch": 52, "duration": 3, "velocity": 72}, {"time": 1630, "pitch": 64, "duration": 3, "velocity": 85}, {"time": 1633, "pitch": 69, "duration": 26, "velocity": 76}, {"time": 1636, "pitch": 38, "duration": 20, "velocity": 75}, {"time": 1636, "pitch": 50, "duration": 4, "velocity": 85}, {"time": 1636, "pitch": 57, "duration": 9, "velocity": 95}, {"time": 1636, "pitch": 62, "duration": 9, "velocity": 85}, {"time": 1636, "pitch": 66, "duration": 9, "velocity": 76}, {"time": 1645, "pitch": 50, "duration": 4, "velocity": 76}, {"time": 1648, "pitch": 57, "duration": 9, "velocity": 103}, {"time": 1648, "pitch": 62, "duration": 10, "velocity": 101}, {"time": 1648, "pitch": 66, "duration": 10, "velocity": 88}, {"time": 1654, "pitch": 50, "duration": 2, "velocity": 78}, {"time": 1660, "pitch": 38, "duration": 17, "velocity": 75}, {"time": 1660, "pitch": 50, "duration": 5, "velocity": 78}, {"time": 1660, "pitch": 57, "duration": 10, "velocity": 91}, {"time": 1660, "pitch": 62, "duration": 10, "velocity": 85}, {"time": 1660, "pitch": 65, "duration": 10, "velocity": 97}, {"time": 1660, "pitch": 69, "duration": 11, "velocity": 72}, {"time": 1669, "pitch": 50, "duration": 8, "velocity": 43}, {"time": 1672, "pitch": 57, "duration": 6, "velocity": 85}, {"time": 1672, "pitch": 62, "duration": 6, "velocity": 88}, {"time": 1672, "pitch": 65, "duration": 6, "velocity": 95}, {"time": 1672, "pitch": 69, "duration": 7, "velocity": 73}, {"time": 1678, "pitch": 40, "duration": 2, "velocity": 101}, {"time": 1684, "pitch": 33, "duration": 38, "velocity": 76}, {"time": 1684, "pitch": 45, "duration": 5, "velocity": 82}, {"time": 1684, "pitch": 61, "duration": 10, "velocity": 97}, {"time": 1684, "pitch": 64, "duration": 10, "velocity": 97}, {"time": 1684, "pitch": 69, "duration": 9, "velocity": 88}, {"time": 1693, "pitch": 45, "duration": 5, "velocity": 47}, {"time": 1696, "pitch": 61, "duration": 6, "velocity": 85}, {"time": 1696, "pitch": 64, "duration": 6, "velocity": 97}, {"time": 1696, "pitch": 69, "duration": 6, "velocity": 78}, {"time": 1702, "pitch": 45, "duration": 8, "velocity": 91}, {"time": 1708, "pitch": 57, "duration": 4, "velocity": 80}, {"time": 1708, "pitch": 62, "duration": 8, "velocity": 93}, {"time": 1708, "pitch": 66, "duration": 7, "velocity": 88}, {"time": 1714, "pitch": 45, "duration": 9, "velocity": 46}, {"time": 1720, "pitch": 61, "duration": 5, "velocity": 91}, {"time": 1720, "pitch": 64, "duration": 5, "velocity": 88}, {"time": 1720, "pitch": 69, "duration": 6, "velocity": 76}, {"time": 1732, "pitch": 69, "duration": 25, "velocity": 85}, {"time": 1732, "pitch": 85, "duration": 6, "velocity": 66}, {"time": 1738, "pitch": 76, "duration": 8, "velocity": 63}, {"time": 1744, "pitch": 88, "duration": 13, "velocity": 69}, {"time": 1756, "pitch": 68, "duration": 23, "velocity": 69}, {"time": 1756, "pitch": 83, "duration": 6, "velocity": 63}, {"time": 1762, "pitch": 76, "duration": 7, "velocity": 63}, {"time": 1768, "pitch": 88, "duration": 12, "velocity": 57}, {"time": 1780, "pitch": 66, "duration": 20, "velocity": 67}, {"time": 1780, "pitch": 81, "duration": 6, "velocity": 63}, {"time": 1786, "pitch": 69, "duration": 13, "velocity": 52}, {"time": 1786, "pitch": 76, "duration": 6, "velocity": 51}, {"time": 1792, "pitch": 73, "duration": 12, "velocity": 63}, {"time": 1792, "pitch": 83, "duration": 9, "velocity": 63}, {"time": 1804, "pitch": 65, "duration": 22, "velocity": 49}, {"time": 1804, "pitch": 77, "duration": 12, "velocity": 58}, {"time": 1810, "pitch": 69, "duration": 16, "velocity": 47}, {"time": 1816, "pitch": 73, "duration": 6, "velocity": 49}, {"time": 1816, "pitch": 76, "duration": 12, "velocity": 58}, {"time": 1828, "pitch": 45, "duration": 16, "velocity": 66}, {"time": 1828, "pitch": 73, "duration": 12, "velocity": 88}, {"time": 1834, "pitch": 52, "duration": 7, "velocity": 62}, {"time": 1840, "pitch": 57, "duration": 6, "velocity": 59}, {"time": 1840, "pitch": 76, "duration": 11, "velocity": 76}, {"time": 1846, "pitch": 52, "duration": 6, "velocity": 72}, {"time": 1852, "pitch": 44, "duration": 11, "velocity": 67}, {"time": 1852, "pitch": 71, "duration": 12, "velocity": 67}, {"time": 1858, "pitch": 52, "duration": 7, "velocity": 61}, {"time": 1864, "pitch": 56, "duration": 6, "velocity": 46}, {"time": 1864, "pitch": 76, "duration": 15, "velocity": 73}, {"time": 1870, "pitch": 52, "duration": 1, "velocity": 67}, {"time": 1876, "pitch": 42, "duration": 10, "velocity": 67}, {"time": 1876, "pitch": 73, "duration": 9, "velocity": 75}, {"time": 1882, "pitch": 50, "duration": 6, "velocity": 44}, {"time": 1888, "pitch": 53, "duration": 2, "velocity": 67}, {"time": 1894, "pitch": 57, "duration": 1, "velocity": 63}, {"time": 1900, "pitch": 40, "duration": 11, "velocity": 54}, {"time": 1900, "pitch": 53, "duration": 14, "velocity": 64}, {"time": 1900, "pitch": 62, "duration": 20, "velocity": 63}, {"time": 1912, "pitch": 57, "duration": 13, "velocity": 45}, {"time": 1924, "pitch": 45, "duration": 17, "velocity": 64}, {"time": 1924, "pitch": 57, "duration": 1, "velocity": 64}, {"time": 1924, "pitch": 61, "duration": 6, "velocity": 69}, {"time": 1924, "pitch": 64, "duration": 6, "velocity": 73}, {"time": 1924, "pitch": 69, "duration": 6, "velocity": 69}, {"time": 1936, "pitch": 61, "duration": 5, "velocity": 60}, {"time": 1936, "pitch": 64, "duration": 5, "velocity": 62}, {"time": 1936, "pitch": 69, "duration": 4, "velocity": 61}, {"time": 1948, "pitch": 44, "duration": 19, "velocity": 58}, {"time": 1948, "pitch": 56, "duration": 14, "velocity": 58}, {"time": 1948, "pitch": 59, "duration": 8, "velocity": 70}, {"time": 1948, "pitch": 64, "duration": 8, "velocity": 69}, {"time": 1948, "pitch": 68, "duration": 8, "velocity": 66}, {"time": 1948, "pitch": 71, "duration": 9, "velocity": 60}, {"time": 1960, "pitch": 59, "duration": 5, "velocity": 67}, {"time": 1960, "pitch": 64, "duration": 6, "velocity": 78}, {"time": 1960, "pitch": 68, "duration": 6, "velocity": 51}, {"time": 1960, "pitch": 71, "duration": 5, "velocity": 67}, {"time": 1966, "pitch": 56, "duration": 2, "velocity": 55}, {"time": 1972, "pitch": 42, "duration": 14, "velocity": 67}, {"time": 1972, "pitch": 54, "duration": 5, "velocity": 63}, {"time": 1972, "pitch": 61, "duration": 8, "velocity": 64}, {"time": 1972, "pitch": 64, "duration": 8, "velocity": 72}, {"time": 1972, "pitch": 69, "duration": 7, "velocity": 66}, {"time": 1981, "pitch": 54, "duration": 6, "velocity": 31}, {"time": 1984, "pitch": 61, "duration": 6, "velocity": 67}, {"time": 1984, "pitch": 64, "duration": 6, "velocity": 70}, {"time": 1984, "pitch": 69, "duration": 5, "velocity": 66}, {"time": 1990, "pitch": 42, "duration": 2, "velocity": 54}, {"time": 1990, "pitch": 54, "duration": 1, "velocity": 49}, {"time": 1996, "pitch": 41, "duration": 19, "velocity": 38}, {"time": 1996, "pitch": 53, "duration": 15, "velocity": 66}, {"time": 1996, "pitch": 59, "duration": 9, "velocity": 60}, {"time": 1996, "pitch": 65, "duration": 8, "velocity": 70}, {"time": 1996, "pitch": 68, "duration": 7, "velocity": 66}, {"time": 1996, "pitch": 71, "duration": 6, "velocity": 64}, {"time": 2008, "pitch": 59, "duration": 7, "velocity": 66}, {"time": 2008, "pitch": 65, "duration": 6, "velocity": 78}, {"time": 2008, "pitch": 68, "duration": 6, "velocity": 54}, {"time": 2008, "pitch": 71, "duration": 4, "velocity": 67}, {"time": 2014, "pitch": 53, "duration": 2, "velocity": 58}, {"time": 2020, "pitch": 42, "duration": 19, "velocity": 70}, {"time": 2020, "pitch": 54, "duration": 5, "velocity": 72}, {"time": 2020, "pitch": 57, "duration": 9, "velocity": 85}, {"time": 2020, "pitch": 62, "duration": 9, "velocity": 47}, {"time": 2020, "pitch": 64, "duration": 4, "velocity": 66}, {"time": 2020, "pitch": 66, "duration": 8, "velocity": 42}, {"time": 2029, "pitch": 54, "duration": 6, "velocity": 31}, {"time": 2032, "pitch": 57, "duration": 6, "velocity": 78}, {"time": 2032, "pitch": 62, "duration": 6, "velocity": 80}, {"time": 2032, "pitch": 66, "duration": 5, "velocity": 69}, {"time": 2038, "pitch": 54, "duration": 1, "velocity": 53}, {"time": 2044, "pitch": 38, "duration": 5, "velocity": 69}, {"time": 2044, "pitch": 50, "duration": 5, "velocity": 69}, {"time": 2044, "pitch": 57, "duration": 6, "velocity": 70}, {"time": 2044, "pitch": 62, "duration": 6, "velocity": 75}, {"time": 2044, "pitch": 66, "duration": 6, "velocity": 72}, {"time": 2044, "pitch": 69, "duration": 7, "velocity": 72}, {"time": 2056, "pitch": 59, "duration": 5, "velocity": 60}, {"time": 2056, "pitch": 64, "duration": 5, "velocity": 59}, {"time": 2056, "pitch": 68, "duration": 4, "velocity": 56}, {"time": 2068, "pitch": 45, "duration": 33, "velocity": 72}, {"time": 2068, "pitch": 61, "duration": 6, "velocity": 67}, {"time": 2068, "pitch": 64, "duration": 6, "velocity": 73}, {"time": 2068, "pitch": 69, "duration": 7, "velocity": 73}, {"time": 2074, "pitch": 57, "duration": 7, "velocity": 31}, {"time": 2080, "pitch": 59, "duration": 6, "velocity": 60}, {"time": 2080, "pitch": 68, "duration": 6, "velocity": 64}, {"time": 2086, "pitch": 57, "duration": 8, "velocity": 41}, {"time": 2092, "pitch": 59, "duration": 5, "velocity": 67}, {"time": 2092, "pitch": 64, "duration": 6, "velocity": 67}, {"time": 2092, "pitch": 71, "duration": 5, "velocity": 73}, {"time": 2098, "pitch": 57, "duration": 2, "velocity": 57}, {"time": 2104, "pitch": 61, "duration": 7, "velocity": 78}, {"time": 2104, "pitch": 64, "duration": 7, "velocity": 78}, {"time": 2104, "pitch": 69, "duration": 10, "velocity": 78}, {"time": 2110, "pitch": 40, "duration": 4, "velocity": 69}, {"time": 2113, "pitch": 44, "duration": 4, "velocity": 53}, {"time": 2116, "pitch": 45, "duration": 5, "velocity": 73}, {"time": 2116, "pitch": 61, "duration": 8, "velocity": 72}, {"time": 2116, "pitch": 64, "duration": 7, "velocity": 80}, {"time": 2116, "pitch": 69, "duration": 7, "velocity": 73}, {"time": 2122, "pitch": 45, "duration": 14, "velocity": 72}, {"time": 2128, "pitch": 61, "duration": 6, "velocity": 73}, {"time": 2128, "pitch": 64, "duration": 6, "velocity": 76}, {"time": 2128, "pitch": 69, "duration": 4, "velocity": 73}, {"time": 2134, "pitch": 57, "duration": 1, "velocity": 64}, {"time": 2140, "pitch": 44, "duration": 17, "velocity": 67}, {"time": 2140, "pitch": 56, "duration": 3, "velocity": 73}, {"time": 2140, "pitch": 59, "duration": 3, "velocity": 80}, {"time": 2140, "pitch": 64, "duration": 4, "velocity": 91}, {"time": 2140, "pitch": 68, "duration": 4, "velocity": 72}, {"time": 2140, "pitch": 71, "duration": 4, "velocity": 75}, {"time": 2149, "pitch": 56, "duration": 4, "velocity": 47}, {"time": 2152, "pitch": 68, "duration": 4, "velocity": 75}, {"time": 2152, "pitch": 76, "duration": 4, "velocity": 75}, {"time": 2158, "pitch": 71, "duration": 5, "velocity": 58}, {"time": 2164, "pitch": 42, "duration": 20, "velocity": 64}, {"time": 2164, "pitch": 54, "duration": 4, "velocity": 70}, {"time": 2164, "pitch": 64, "duration": 5, "velocity": 72}, {"time": 2164, "pitch": 69, "duration": 5, "velocity": 75}, {"time": 2164, "pitch": 73, "duration": 5, "velocity": 73}, {"time": 2176, "pitch": 61, "duration": 5, "velocity": 76}, {"time": 2176, "pitch": 64, "duration": 5, "velocity": 76}, {"time": 2176, "pitch": 69, "duration": 5, "velocity": 78}, {"time": 2182, "pitch": 54, "duration": 1, "velocity": 58}, {"time": 2188, "pitch": 40, "duration": 12, "velocity": 70}, {"time": 2188, "pitch": 52, "duration": 4, "velocity": 61}, {"time": 2188, "pitch": 59, "duration": 8, "velocity": 69}, {"time": 2188, "pitch": 65, "duration": 8, "velocity": 72}, {"time": 2188, "pitch": 68, "duration": 8, "velocity": 72}, {"time": 2197, "pitch": 52, "duration": 3, "velocity": 39}, {"time": 2200, "pitch": 59, "duration": 6, "velocity": 88}, {"time": 2200, "pitch": 65, "duration": 6, "velocity": 101}, {"time": 2200, "pitch": 68, "duration": 6, "velocity": 75}, {"time": 2212, "pitch": 42, "duration": 20, "velocity": 66}, {"time": 2212, "pitch": 54, "duration": 5, "velocity": 64}, {"time": 2212, "pitch": 61, "duration": 8, "velocity": 76}, {"time": 2212, "pitch": 64, "duration": 7, "velocity": 73}, {"time": 2212, "pitch": 69, "duration": 8, "velocity": 76}, {"time": 2224, "pitch": 61, "duration": 3, "velocity": 85}, {"time": 2224, "pitch": 64, "duration": 3, "velocity": 82}, {"time": 2224, "pitch": 69, "duration": 5, "velocity": 78}, {"time": 2230, "pitch": 57, "duration": 3, "velocity": 67}, {"time": 2230, "pitch": 62, "duration": 4, "velocity": 67}, {"time": 2230, "pitch": 66, "duration": 5, "velocity": 59}, {"time": 2230, "pitch": 69, "duration": 1, "velocity": 51}, {"time": 2236, "pitch": 59, "duration": 7, "velocity": 82}, {"time": 2236, "pitch": 64, "duration": 8, "velocity": 85}, {"time": 2236, "pitch": 68, "duration": 7, "velocity": 76}, {"time": 2248, "pitch": 40, "duration": 6, "velocity": 66}, {"time": 2248, "pitch": 52, "duration": 3, "velocity": 58}, {"time": 2248, "pitch": 57, "duration": 6, "velocity": 93}, {"time": 2248, "pitch": 62, "duration": 7, "velocity": 76}, {"time": 2248, "pitch": 66, "duration": 7, "velocity": 64}, {"time": 2248, "pitch": 69, "duration": 6, "velocity": 63}, {"time": 2254, "pitch": 52, "duration": 1, "velocity": 54}, {"time": 2260, "pitch": 45, "duration": 15, "velocity": 69}, {"time": 2260, "pitch": 52, "duration": 16, "velocity": 70}, {"time": 2260, "pitch": 57, "duration": 4, "velocity": 64}, {"time": 2260, "pitch": 61, "duration": 6, "velocity": 82}, {"time": 2260, "pitch": 64, "duration": 7, "velocity": 82}, {"time": 2260, "pitch": 69, "duration": 7, "velocity": 76}, {"time": 2266, "pitch": 57, "duration": 7, "velocity": 45}, {"time": 2272, "pitch": 59, "duration": 6, "velocity": 91}, {"time": 2272, "pitch": 64, "duration": 6, "velocity": 93}, {"time": 2278, "pitch": 45, "duration": 2, "velocity": 64}, {"time": 2278, "pitch": 52, "duration": 1, "velocity": 61}, {"time": 2278, "pitch": 57, "duration": 1, "velocity": 64}, {"time": 2278, "pitch": 69, "duration": 4, "velocity": 72}, {"time": 2284, "pitch": 40, "duration": 7, "velocity": 80}, {"time": 2284, "pitch": 52, "duration": 7, "velocity": 67}, {"time": 2284, "pitch": 59, "duration": 3, "velocity": 82}, {"time": 2284, "pitch": 64, "duration": 4, "velocity": 85}, {"time": 2284, "pitch": 68, "duration": 5, "velocity": 75}, {"time": 2290, "pitch": 42, "duration": 7, "velocity": 67}, {"time": 2290, "pitch": 61, "duration": 3, "velocity": 61}, {"time": 2290, "pitch": 64, "duration": 4, "velocity": 60}, {"time": 2290, "pitch": 69, "duration": 3, "velocity": 72}, {"time": 2296, "pitch": 44, "duration": 6, "velocity": 70}, {"time": 2296, "pitch": 64, "duration": 2, "velocity": 80}, {"time": 2296, "pitch": 71, "duration": 2, "velocity": 73}, {"time": 2302, "pitch": 76, "duration": 1, "velocity": 63}, {"time": 2305, "pitch": 74, "duration": 1, "velocity": 62}, {"time": 2308, "pitch": 45, "duration": 18, "velocity": 91}, {"time": 2308, "pitch": 64, "duration": 5, "velocity": 63}, {"time": 2308, "pitch": 69, "duration": 4, "velocity": 72}, {"time": 2308, "pitch": 73, "duration": 5, "velocity": 82}, {"time": 2314, "pitch": 52, "duration": 13, "velocity": 63}, {"time": 2317, "pitch": 57, "duration": 8, "velocity": 73}, {"time": 2320, "pitch": 59, "duration": 4, "velocity": 82}, {"time": 2323, "pitch": 64, "duration": 3, "velocity": 49}, {"time": 2326, "pitch": 69, "duration": 4, "velocity": 73}, {"time": 2332, "pitch": 44, "duration": 16, "velocity": 76}, {"time": 2332, "pitch": 56, "duration": 5, "velocity": 76}, {"time": 2332, "pitch": 59, "duration": 8, "velocity": 93}, {"time": 2332, "pitch": 64, "duration": 10, "velocity": 91}, {"time": 2332, "pitch": 68, "duration": 7, "velocity": 76}, {"time": 2341, "pitch": 56, "duration": 6, "velocity": 51}, {"time": 2344, "pitch": 59, "duration": 4, "velocity": 91}, {"time": 2344, "pitch": 64, "duration": 5, "velocity": 95}, {"time": 2344, "pitch": 68, "duration": 6, "velocity": 95}, {"time": 2350, "pitch": 50, "duration": 3, "velocity": 63}, {"time": 2353, "pitch": 66, "duration": 3, "velocity": 56}, {"time": 2354, "pitch": 68, "duration": 2, "velocity": 66}, {"time": 2356, "pitch": 42, "duration": 18, "velocity": 72}, {"time": 2356, "pitch": 61, "duration": 7, "velocity": 76}, {"time": 2356, "pitch": 64, "duration": 8, "velocity": 80}, {"time": 2356, "pitch": 69, "duration": 7, "velocity": 75}, {"time": 2362, "pitch": 49, "duration": 7, "velocity": 37}, {"time": 2368, "pitch": 54, "duration": 5, "velocity": 59}, {"time": 2368, "pitch": 61, "duration": 6, "velocity": 82}, {"time": 2368, "pitch": 64, "duration": 6, "velocity": 93}, {"time": 2368, "pitch": 69, "duration": 5, "velocity": 80}, {"time": 2374, "pitch": 49, "duration": 7, "velocity": 50}, {"time": 2380, "pitch": 40, "duration": 19, "velocity": 73}, {"time": 2380, "pitch": 59, "duration": 4, "velocity": 88}, {"time": 2380, "pitch": 64, "duration": 5, "velocity": 88}, {"time": 2380, "pitch": 68, "duration": 5, "velocity": 76}, {"time": 2386, "pitch": 49, "duration": 9, "velocity": 58}, {"time": 2386, "pitch": 61, "duration": 1, "velocity": 64}, {"time": 2386, "pitch": 64, "duration": 1, "velocity": 62}, {"time": 2386, "pitch": 69, "duration": 2, "velocity": 72}, {"time": 2389, "pitch": 59, "duration": 2, "velocity": 85}, {"time": 2389, "pitch": 68, "duration": 4, "velocity": 88}, {"time": 2392, "pitch": 52, "duration": 5, "velocity": 47}, {"time": 2395, "pitch": 59, "duration": 4, "velocity": 82}, {"time": 2395, "pitch": 64, "duration": 4, "velocity": 93}, {"time": 2398, "pitch": 49, "duration": 1, "velocity": 66}, {"time": 2404, "pitch": 38, "duration": 19, "velocity": 78}, {"time": 2404, "pitch": 50, "duration": 4, "velocity": 78}, {"time": 2404, "pitch": 57, "duration": 9, "velocity": 97}, {"time": 2404, "pitch": 62, "duration": 9, "velocity": 80}, {"time": 2404, "pitch": 66, "duration": 8, "velocity": 76}, {"time": 2404, "pitch": 69, "duration": 9, "velocity": 59}, {"time": 2410, "pitch": 50, "duration": 7, "velocity": 48}, {"time": 2416, "pitch": 57, "duration": 7, "velocity": 85}, {"time": 2416, "pitch": 62, "duration": 7, "velocity": 91}, {"time": 2416, "pitch": 66, "duration": 7, "velocity": 91}, {"time": 2416, "pitch": 69, "duration": 6, "velocity": 76}, {"time": 2422, "pitch": 50, "duration": 1, "velocity": 88}, {"time": 2428, "pitch": 38, "duration": 17, "velocity": 73}, {"time": 2428, "pitch": 50, "duration": 3, "velocity": 78}, {"time": 2428, "pitch": 57, "duration": 7, "velocity": 78}, {"time": 2428, "pitch": 62, "duration": 6, "velocity": 83}, {"time": 2428, "pitch": 65, "duration": 7, "velocity": 87}, {"time": 2428, "pitch": 69, "duration": 7, "velocity": 80}, {"time": 2434, "pitch": 50, "duration": 8, "velocity": 61}, {"time": 2440, "pitch": 57, "duration": 4, "velocity": 69}, {"time": 2440, "pitch": 59, "duration": 5, "velocity": 70}, {"time": 2446, "pitch": 50, "duration": 5, "velocity": 95}, {"time": 2452, "pitch": 45, "duration": 19, "velocity": 82}, {"time": 2452, "pitch": 61, "duration": 4, "velocity": 91}, {"time": 2452, "pitch": 64, "duration": 4, "velocity": 95}, {"time": 2452, "pitch": 69, "duration": 4, "velocity": 85}, {"time": 2458, "pitch": 52, "duration": 7, "velocity": 61}, {"time": 2458, "pitch": 59, "duration": 2, "velocity": 62}, {"time": 2458, "pitch": 68, "duration": 6, "velocity": 61}, {"time": 2464, "pitch": 57, "duration": 7, "velocity": 66}, {"time": 2464, "pitch": 61, "duration": 1, "velocity": 76}, {"time": 2464, "pitch": 64, "duration": 1, "velocity": 70}, {"time": 2464, "pitch": 69, "duration": 2, "velocity": 70}, {"time": 2470, "pitch": 52, "duration": 5, "velocity": 66}, {"time": 2470, "pitch": 71, "duration": 5, "velocity": 57}, {"time": 2476, "pitch": 45, "duration": 9, "velocity": 70}, {"time": 2476, "pitch": 64, "duration": 2, "velocity": 82}, {"time": 2476, "pitch": 69, "duration": 2, "velocity": 73}, {"time": 2476, "pitch": 73, "duration": 2, "velocity": 73}, {"time": 2479, "pitch": 52, "duration": 6, "velocity": 54}, {"time": 2482, "pitch": 57, "duration": 3, "velocity": 80}, {"time": 2485, "pitch": 59, "duration": 3, "velocity": 78}, {"time": 2488, "pitch": 40, "duration": 4, "velocity": 80}, {"time": 2488, "pitch": 59, "duration": 1, "velocity": 34}, {"time": 2488, "pitch": 61, "duration": 2, "velocity": 70}, {"time": 2491, "pitch": 42, "duration": 4, "velocity": 63}, {"time": 2491, "pitch": 69, "duration": 4, "velocity": 66}, {"time": 2494, "pitch": 44, "duration": 2, "velocity": 60}, {"time": 2494, "pitch": 68, "duration": 3, "velocity": 62}, {"time": 2497, "pitch": 66, "duration": 2, "velocity": 56}, {"time": 2500, "pitch": 45, "duration": 18, "velocity": 76}, {"time": 2500, "pitch": 61, "duration": 8, "velocity": 91}, {"time": 2500, "pitch": 64, "duration": 9, "velocity": 80}, {"time": 2500, "pitch": 69, "duration": 8, "velocity": 76}, {"time": 2506, "pitch": 52, "duration": 14, "velocity": 61}, {"time": 2509, "pitch": 57, "duration": 4, "velocity": 60}, {"time": 2512, "pitch": 61, "duration": 4, "velocity": 97}, {"time": 2512, "pitch": 64, "duration": 4, "velocity": 99}, {"time": 2512, "pitch": 69, "duration": 4, "velocity": 75}, {"time": 2515, "pitch": 57, "duration": 3, "velocity": 70}, {"time": 2518, "pitch": 61, "duration": 2, "velocity": 66}, {"time": 2521, "pitch": 69, "duration": 3, "velocity": 67}, {"time": 2524, "pitch": 44, "duration": 16, "velocity": 75}, {"time": 2524, "pitch": 56, "duration": 5, "velocity": 80}, {"time": 2524, "pitch": 59, "duration": 10, "velocity": 85}, {"time": 2524, "pitch": 64, "duration": 10, "velocity": 88}, {"time": 2524, "pitch": 68, "duration": 7, "velocity": 88}, {"time": 2524, "pitch": 69, "duration": 1, "velocity": 53}, {"time": 2533, "pitch": 56, "duration": 5, "velocity": 56}, {"time": 2536, "pitch": 59, "duration": 4, "velocity": 78}, {"time": 2536, "pitch": 64, "duration": 4, "velocity": 91}, {"time": 2536, "pitch": 68, "duration": 4, "velocity": 93}, {"time": 2539, "pitch": 50, "duration": 2, "velocity": 76}, {"time": 2542, "pitch": 66, "duration": 2, "velocity": 69}, {"time": 2545, "pitch": 66, "duration": 1, "velocity": 43}, {"time": 2545, "pitch": 68, "duration": 2, "velocity": 64}, {"time": 2548, "pitch": 42, "duration": 5, "velocity": 73}, {"time": 2548, "pitch": 61, "duration": 12, "velocity": 82}, {"time": 2548, "pitch": 64, "duration": 12, "velocity": 80}, {"time": 2548, "pitch": 69, "duration": 12, "velocity": 80}, {"time": 2551, "pitch": 49, "duration": 3, "velocity": 69}, {"time": 2554, "pitch": 54, "duration": 4, "velocity": 48}, {"time": 2557, "pitch": 56, "duration": 5, "velocity": 62}, {"time": 2560, "pitch": 57, "duration": 1, "velocity": 70}, {"time": 2563, "pitch": 61, "duration": 2, "velocity": 72}, {"time": 2566, "pitch": 64, "duration": 3, "velocity": 78}, {"time": 2569, "pitch": 69, "duration": 5, "velocity": 69}, {"time": 2572, "pitch": 40, "duration": 19, "velocity": 76}, {"time": 2572, "pitch": 52, "duration": 5, "velocity": 58}, {"time": 2572, "pitch": 59, "duration": 10, "velocity": 78}, {"time": 2572, "pitch": 64, "duration": 10, "velocity": 82}, {"time": 2572, "pitch": 68, "duration": 7, "velocity": 85}, {"time": 2581, "pitch": 52, "duration": 5, "velocity": 58}, {"time": 2584, "pitch": 59, "duration": 6, "velocity": 82}, {"time": 2584, "pitch": 64, "duration": 3, "velocity": 95}, {"time": 2584, "pitch": 68, "duration": 5, "velocity": 95}, {"time": 2590, "pitch": 52, "duration": 2, "velocity": 85}, {"time": 2593, "pitch": 64, "duration": 4, "velocity": 67}, {"time": 2596, "pitch": 38, "duration": 17, "velocity": 73}, {"time": 2596, "pitch": 50, "duration": 5, "velocity": 82}, {"time": 2596, "pitch": 57, "duration": 10, "velocity": 88}, {"time": 2596, "pitch": 62, "duration": 10, "velocity": 80}, {"time": 2596, "pitch": 66, "duration": 7, "velocity": 75}, {"time": 2605, "pitch": 50, "duration": 5, "velocity": 45}, {"time": 2608, "pitch": 57, "duration": 7, "velocity": 75}, {"time": 2608, "pitch": 62, "duration": 7, "velocity": 93}, {"time": 2608, "pitch": 66, "duration": 7, "velocity": 95}, {"time": 2614, "pitch": 50, "duration": 2, "velocity": 69}, {"time": 2620, "pitch": 38, "duration": 15, "velocity": 73}, {"time": 2620, "pitch": 50, "duration": 4, "velocity": 80}, {"time": 2620, "pitch": 57, "duration": 10, "velocity": 78}, {"time": 2620, "pitch": 62, "duration": 10, "velocity": 78}, {"time": 2620, "pitch": 65, "duration": 10, "velocity": 85}, {"time": 2620, "pitch": 69, "duration": 10, "velocity": 80}, {"time": 2629, "pitch": 50, "duration": 7, "velocity": 46}, {"time": 2632, "pitch": 57, "duration": 7, "velocity": 93}, {"time": 2632, "pitch": 62, "duration": 7, "velocity": 103}, {"time": 2632, "pitch": 65, "duration": 7, "velocity": 106}, {"time": 2632, "pitch": 69, "duration": 7, "velocity": 85}, {"time": 2638, "pitch": 38, "duration": 2, "velocity": 67}, {"time": 2644, "pitch": 33, "duration": 19, "velocity": 69}, {"time": 2644, "pitch": 45, "duration": 5, "velocity": 80}, {"time": 2644, "pitch": 61, "duration": 10, "velocity": 95}, {"time": 2644, "pitch": 64, "duration": 10, "velocity": 97}, {"time": 2644, "pitch": 69, "duration": 9, "velocity": 82}, {"time": 2653, "pitch": 45, "duration": 6, "velocity": 44}, {"time": 2656, "pitch": 61, "duration": 7, "velocity": 91}, {"time": 2656, "pitch": 64, "duration": 7, "velocity": 95}, {"time": 2656, "pitch": 69, "duration": 7, "velocity": 82}, {"time": 2662, "pitch": 45, "duration": 2, "velocity": 85}, {"time": 2668, "pitch": 33, "duration": 15, "velocity": 82}, {"time": 2668, "pitch": 45, "duration": 2, "velocity": 85}, {"time": 2668, "pitch": 57, "duration": 5, "velocity": 93}, {"time": 2668, "pitch": 62, "duration": 7, "velocity": 99}, {"time": 2668, "pitch": 66, "duration": 6, "velocity": 97}, {"time": 2674, "pitch": 45, "duration": 4, "velocity": 76}, {"time": 2677, "pitch": 59, "duration": 1, "velocity": 73}, {"time": 2677, "pitch": 61, "duration": 3, "velocity": 91}, {"time": 2677, "pitch": 64, "duration": 4, "velocity": 103}, {"time": 2677, "pitch": 69, "duration": 4, "velocity": 93}, {"time": 2680, "pitch": 45, "duration": 3, "velocity": 85}, {"time": 2683, "pitch": 59, "duration": 3, "velocity": 97}, {"time": 2683, "pitch": 64, "duration": 4, "velocity": 95}, {"time": 2683, "pitch": 68, "duration": 3, "velocity": 82}, {"time": 2686, "pitch": 40, "duration": 5, "velocity": 101}, {"time": 2689, "pitch": 61, "duration": 1, "velocity": 40}, {"time": 2689, "pitch": 64, "duration": 1, "velocity": 60}, {"time": 2692, "pitch": 33, "duration": 16, "velocity": 75}, {"time": 2692, "pitch": 45, "duration": 5, "velocity": 95}, {"time": 2692, "pitch": 61, "duration": 10, "velocity": 95}, {"time": 2692, "pitch": 64, "duration": 10, "velocity": 88}, {"time": 2692, "pitch": 69, "duration": 9, "velocity": 75}, {"time": 2701, "pitch": 45, "duration": 4, "velocity": 85}, {"time": 2704, "pitch": 61, "duration": 4, "velocity": 95}, {"time": 2704, "pitch": 64, "duration": 4, "velocity": 101}, {"time": 2704, "pitch": 69, "duration": 4, "velocity": 82}, {"time": 2707, "pitch": 45, "duration": 2, "velocity": 93}, {"time": 2710, "pitch": 61, "duration": 2, "velocity": 80}, {"time": 2710, "pitch": 64, "duration": 2, "velocity": 66}, {"time": 2713, "pitch": 71, "duration": 8, "velocity": 75}, {"time": 2716, "pitch": 44, "duration": 17, "velocity": 76}, {"time": 2716, "pitch": 56, "duration": 4, "velocity": 91}, {"time": 2716, "pitch": 59, "duration": 5, "velocity": 91}, {"time": 2716, "pitch": 64, "duration": 5, "velocity": 93}, {"time": 2716, "pitch": 68, "duration": 6, "velocity": 88}, {"time": 2725, "pitch": 56, "duration": 4, "velocity": 78}, {"time": 2728, "pitch": 68, "duration": 4, "velocity": 91}, {"time": 2728, "pitch": 71, "duration": 4, "velocity": 99}, {"time": 2728, "pitch": 76, "duration": 5, "velocity": 80}, {"time": 2731, "pitch": 56, "duration": 1, "velocity": 88}, {"time": 2734, "pitch": 43, "duration": 4, "velocity": 40}, {"time": 2734, "pitch": 71, "duration": 3, "velocity": 75}, {"time": 2737, "pitch": 73, "duration": 6, "velocity": 78}, {"time": 2740, "pitch": 42, "duration": 20, "velocity": 80}, {"time": 2740, "pitch": 64, "duration": 5, "velocity": 97}, {"time": 2740, "pitch": 69, "duration": 4, "velocity": 93}, {"time": 2746, "pitch": 49, "duration": 17, "velocity": 72}, {"time": 2749, "pitch": 54, "duration": 4, "velocity": 73}, {"time": 2752, "pitch": 61, "duration": 1, "velocity": 82}, {"time": 2752, "pitch": 69, "duration": 2, "velocity": 72}, {"time": 2755, "pitch": 59, "duration": 2, "velocity": 70}, {"time": 2755, "pitch": 68, "duration": 2, "velocity": 63}, {"time": 2758, "pitch": 61, "duration": 1, "velocity": 70}, {"time": 2758, "pitch": 69, "duration": 2, "velocity": 80}, {"time": 2761, "pitch": 59, "duration": 1, "velocity": 72}, {"time": 2761, "pitch": 68, "duration": 2, "velocity": 61}, {"time": 2764, "pitch": 40, "duration": 18, "velocity": 73}, {"time": 2764, "pitch": 59, "duration": 7, "velocity": 85}, {"time": 2764, "pitch": 64, "duration": 6, "velocity": 93}, {"time": 2770, "pitch": 49, "duration": 12, "velocity": 64}, {"time": 2773, "pitch": 52, "duration": 7, "velocity": 80}, {"time": 2776, "pitch": 57, "duration": 2, "velocity": 85}, {"time": 2779, "pitch": 59, "duration": 1, "velocity": 55}, {"time": 2779, "pitch": 61, "duration": 2, "velocity": 56}, {"time": 2782, "pitch": 64, "duration": 3, "velocity": 73}, {"time": 2785, "pitch": 69, "duration": 7, "velocity": 75}, {"time": 2788, "pitch": 38, "duration": 17, "velocity": 72}, {"time": 2788, "pitch": 57, "duration": 6, "velocity": 93}, {"time": 2788, "pitch": 62, "duration": 7, "velocity": 85}, {"time": 2788, "pitch": 66, "duration": 7, "velocity": 75}, {"time": 2794, "pitch": 45, "duration": 11, "velocity": 66}, {"time": 2797, "pitch": 50, "duration": 3, "velocity": 56}, {"time": 2800, "pitch": 57, "duration": 4, "velocity": 97}, {"time": 2800, "pitch": 62, "duration": 4, "velocity": 103}, {"time": 2800, "pitch": 66, "duration": 4, "velocity": 97}, {"time": 2800, "pitch": 69, "duration": 3, "velocity": 75}, {"time": 2803, "pitch": 50, "duration": 2, "velocity": 67}, {"time": 2806, "pitch": 57, "duration": 4, "velocity": 75}, {"time": 2809, "pitch": 62, "duration": 1, "velocity": 47}, {"time": 2809, "pitch": 69, "duration": 1, "velocity": 56}, {"time": 2812, "pitch": 38, "duration": 14, "velocity": 72}, {"time": 2812, "pitch": 50, "duration": 5, "velocity": 85}, {"time": 2812, "pitch": 57, "duration": 10, "velocity": 97}, {"time": 2812, "pitch": 62, "duration": 9, "velocity": 97}, {"time": 2812, "pitch": 65, "duration": 10, "velocity": 109}, {"time": 2812, "pitch": 69, "duration": 9, "velocity": 85}, {"time": 2821, "pitch": 50, "duration": 5, "velocity": 49}, {"time": 2824, "pitch": 57, "duration": 6, "velocity": 95}, {"time": 2824, "pitch": 62, "duration": 6, "velocity": 101}, {"time": 2824, "pitch": 65, "duration": 6, "velocity": 106}, {"time": 2824, "pitch": 69, "duration": 5, "velocity": 88}, {"time": 2830, "pitch": 38, "duration": 2, "velocity": 78}, {"time": 2830, "pitch": 50, "duration": 1, "velocity": 58}, {"time": 2836, "pitch": 33, "duration": 34, "velocity": 91}, {"time": 2836, "pitch": 45, "duration": 3, "velocity": 85}, {"time": 2836, "pitch": 61, "duration": 8, "velocity": 97}, {"time": 2836, "pitch": 64, "duration": 8, "velocity": 103}, {"time": 2836, "pitch": 69, "duration": 8, "velocity": 93}, {"time": 2842, "pitch": 45, "duration": 2, "velocity": 62}, {"time": 2845, "pitch": 73, "duration": 1, "velocity": 88}, {"time": 2845, "pitch": 81, "duration": 2, "velocity": 75}, {"time": 2848, "pitch": 45, "duration": 3, "velocity": 70}, {"time": 2851, "pitch": 71, "duration": 1, "velocity": 78}, {"time": 2851, "pitch": 80, "duration": 1, "velocity": 93}, {"time": 2854, "pitch": 45, "duration": 4, "velocity": 52}, {"time": 2857, "pitch": 69, "duration": 2, "velocity": 85}, {"time": 2857, "pitch": 76, "duration": 4, "velocity": 88}, {"time": 2863, "pitch": 64, "duration": 2, "velocity": 72}, {"time": 2866, "pitch": 45, "duration": 4, "velocity": 58}, {"time": 2866, "pitch": 69, "duration": 2, "velocity": 82}, {"time": 2869, "pitch": 71, "duration": 2, "velocity": 85}, {"time": 2872, "pitch": 37, "duration": 5, "velocity": 80}, {"time": 2872, "pitch": 64, "duration": 1, "velocity": 59}, {"time": 2872, "pitch": 73, "duration": 3, "velocity": 95}, {"time": 2875, "pitch": 64, "duration": 2, "velocity": 50}, {"time": 2875, "pitch": 69, "duration": 2, "velocity": 70}, {"time": 2878, "pitch": 40, "duration": 5, "velocity": 76}, {"time": 2878, "pitch": 71, "duration": 3, "velocity": 82}, {"time": 2881, "pitch": 73, "duration": 2, "velocity": 85}, {"time": 2884, "pitch": 33, "duration": 2, "velocity": 73}, {"time": 2884, "pitch": 45, "duration": 3, "velocity": 82}, {"time": 2884, "pitch": 64, "duration": 11, "velocity": 85}, {"time": 2884, "pitch": 69, "duration": 10, "velocity": 82}, {"time": 2884, "pitch": 73, "duration": 10, "velocity": 66}, {"time": 2884, "pitch": 76, "duration": 10, "velocity": 82}, {"time": 2893, "pitch": 45, "duration": 10, "velocity": 59}, {"time": 2896, "pitch": 57, "duration": 1, "velocity": 48}, {"time": 2896, "pitch": 64, "duration": 4, "velocity": 91}, {"time": 2896, "pitch": 69, "duration": 5, "velocity": 101}, {"time": 2896, "pitch": 73, "duration": 5, "velocity": 95}, {"time": 2896, "pitch": 76, "duration": 4, "velocity": 85}, {"time": 2899, "pitch": 57, "duration": 2, "velocity": 85}, {"time": 2902, "pitch": 71, "duration": 3, "velocity": 85}, {"time": 2905, "pitch": 76, "duration": 8, "velocity": 78}, {"time": 2908, "pitch": 44, "duration": 16, "velocity": 73}, {"time": 2908, "pitch": 56, "duration": 5, "velocity": 91}, {"time": 2908, "pitch": 64, "duration": 6, "velocity": 95}, {"time": 2908, "pitch": 68, "duration": 6, "velocity": 95}, {"time": 2908, "pitch": 71, "duration": 6, "velocity": 78}, {"time": 2917, "pitch": 56, "duration": 4, "velocity": 67}, {"time": 2920, "pitch": 59, "duration": 4, "velocity": 97}, {"time": 2920, "pitch": 64, "duration": 5, "velocity": 97}, {"time": 2920, "pitch": 68, "duration": 5, "velocity": 99}, {"time": 2923, "pitch": 56, "duration": 1, "velocity": 62}, {"time": 2926, "pitch": 43, "duration": 4, "velocity": 82}, {"time": 2926, "pitch": 66, "duration": 4, "velocity": 85}, {"time": 2929, "pitch": 68, "duration": 2, "velocity": 80}, {"time": 2932, "pitch": 42, "duration": 19, "velocity": 82}, {"time": 2932, "pitch": 61, "duration": 10, "velocity": 93}, {"time": 2932, "pitch": 64, "duration": 10, "velocity": 95}, {"time": 2932, "pitch": 69, "duration": 9, "velocity": 64}, {"time": 2938, "pitch": 49, "duration": 13, "velocity": 52}, {"time": 2941, "pitch": 54, "duration": 4, "velocity": 67}, {"time": 2944, "pitch": 61, "duration": 4, "velocity": 95}, {"time": 2944, "pitch": 64, "duration": 4, "velocity": 101}, {"time": 2944, "pitch": 69, "duration": 4, "velocity": 85}, {"time": 2947, "pitch": 54, "duration": 3, "velocity": 73}, {"time": 2950, "pitch": 61, "duration": 2, "velocity": 85}, {"time": 2950, "pitch": 64, "duration": 1, "velocity": 54}, {"time": 2953, "pitch": 69, "duration": 2, "velocity": 69}, {"time": 2956, "pitch": 40, "duration": 18, "velocity": 76}, {"time": 2956, "pitch": 52, "duration": 5, "velocity": 88}, {"time": 2956, "pitch": 59, "duration": 10, "velocity": 91}, {"time": 2956, "pitch": 64, "duration": 10, "velocity": 85}, {"time": 2956, "pitch": 68, "duration": 9, "velocity": 88}, {"time": 2965, "pitch": 52, "duration": 4, "velocity": 62}, {"time": 2968, "pitch": 59, "duration": 4, "velocity": 95}, {"time": 2968, "pitch": 64, "duration": 4, "velocity": 101}, {"time": 2968, "pitch": 68, "duration": 4, "velocity": 97}, {"time": 2971, "pitch": 52, "duration": 3, "velocity": 72}, {"time": 2974, "pitch": 64, "duration": 3, "velocity": 85}, {"time": 2977, "pitch": 69, "duration": 26, "velocity": 76}, {"time": 2980, "pitch": 38, "duration": 20, "velocity": 75}, {"time": 2980, "pitch": 50, "duration": 4, "velocity": 85}, {"time": 2980, "pitch": 57, "duration": 9, "velocity": 95}, {"time": 2980, "pitch": 62, "duration": 9, "velocity": 85}, {"time": 2980, "pitch": 66, "duration": 9, "velocity": 76}, {"time": 2989, "pitch": 50, "duration": 4, "velocity": 76}, {"time": 2992, "pitch": 57, "duration": 9, "velocity": 103}, {"time": 2992, "pitch": 62, "duration": 10, "velocity": 101}, {"time": 2992, "pitch": 66, "duration": 10, "velocity": 88}, {"time": 2998, "pitch": 50, "duration": 2, "velocity": 78}, {"time": 3004, "pitch": 38, "duration": 17, "velocity": 75}, {"time": 3004, "pitch": 50, "duration": 5, "velocity": 78}, {"time": 3004, "pitch": 57, "duration": 10, "velocity": 91}, {"time": 3004, "pitch": 62, "duration": 10, "velocity": 85}, {"time": 3004, "pitch": 65, "duration": 10, "velocity": 97}, {"time": 3004, "pitch": 69, "duration": 11, "velocity": 72}, {"time": 3013, "pitch": 50, "duration": 8, "velocity": 43}, {"time": 3016, "pitch": 57, "duration": 6, "velocity": 85}, {"time": 3016, "pitch": 62, "duration": 6, "velocity": 88}, {"time": 3016, "pitch": 65, "duration": 6, "velocity": 95}, {"time": 3016, "pitch": 69, "duration": 7, "velocity": 73}, {"time": 3022, "pitch": 40, "duration": 2, "velocity": 101}, {"time": 3028, "pitch": 33, "duration": 38, "velocity": 76}, {"time": 3028, "pitch": 45, "duration": 5, "velocity": 82}, {"time": 3028, "pitch": 61, "duration": 10, "velocity": 97}, {"time": 3028, "pitch": 64, "duration": 10, "velocity": 97}, {"time": 3028, "pitch": 69, "duration": 9, "velocity": 88}, {"time": 3037, "pitch": 45, "duration": 5, "velocity": 47}, {"time": 3040, "pitch": 61, "duration": 6, "velocity": 85}, {"time": 3040, "pitch": 64, "duration": 6, "velocity": 97}, {"time": 3040, "pitch": 69, "duration": 6, "velocity": 78}, {"time": 3046, "pitch": 45, "duration": 8, "velocity": 91}, {"time": 3052, "pitch": 57, "duration": 4, "velocity": 80}, {"time": 3052, "pitch": 62, "duration": 8, "velocity": 93}, {"time": 3052, "pitch": 66, "duration": 7, "velocity": 88}, {"time": 3058, "pitch": 45, "duration": 9, "velocity": 46}, {"time": 3064, "pitch": 61, "duration": 5, "velocity": 91}, {"time": 3064, "pitch": 64, "duration": 5, "velocity": 88}, {"time": 3064, "pitch": 69, "duration": 6, "velocity": 76}, {"time": 3074, "pitch": 64, "duration": 4, "velocity": 37}, {"time": 3075, "pitch": 69, "duration": 1, "velocity": 38}, {"time": 3076, "pitch": 45, "duration": 14, "velocity": 69}, {"time": 3076, "pitch": 73, "duration": 7, "velocity": 73}, {"time": 3088, "pitch": 64, "duration": 4, "velocity": 55}, {"time": 3088, "pitch": 73, "duration": 5, "velocity": 67}, {"time": 3100, "pitch": 56, "duration": 14, "velocity": 58}, {"time": 3100, "pitch": 64, "duration": 5, "velocity": 61}, {"time": 3100, "pitch": 71, "duration": 6, "velocity": 69}, {"time": 3106, "pitch": 61, "duration": 8, "velocity": 40}, {"time": 3112, "pitch": 76, "duration": 2, "velocity": 73}, {"time": 3124, "pitch": 54, "duration": 18, "velocity": 60}, {"time": 3124, "pitch": 64, "duration": 6, "velocity": 57}, {"time": 3124, "pitch": 69, "duration": 11, "velocity": 64}, {"time": 3130, "pitch": 61, "duration": 16, "velocity": 44}, {"time": 3136, "pitch": 64, "duration": 6, "velocity": 47}, {"time": 3148, "pitch": 52, "duration": 9, "velocity": 61}, {"time": 3148, "pitch": 68, "duration": 3, "velocity": 54}, {"time": 3151, "pitch": 69, "duration": 4, "velocity": 58}, {"time": 3154, "pitch": 61, "duration": 10, "velocity": 56}, {"time": 3154, "pitch": 71, "duration": 2, "velocity": 64}, {"time": 3157, "pitch": 73, "duration": 2, "velocity": 64}, {"time": 3160, "pitch": 64, "duration": 3, "velocity": 60}, {"time": 3160, "pitch": 76, "duration": 3, "velocity": 48}, {"time": 3163, "pitch": 80, "duration": 3, "velocity": 54}, {"time": 3166, "pitch": 81, "duration": 6, "velocity": 62}, {"time": 3172, "pitch": 50, "duration": 16, "velocity": 66}, {"time": 3172, "pitch": 78, "duration": 12, "velocity": 66}, {"time": 3178, "pitch": 57, "duration": 10, "velocity": 43}, {"time": 3184, "pitch": 62, "duration": 4, "velocity": 46}, {"time": 3184, "pitch": 69, "duration": 4, "velocity": 47}, {"time": 3184, "pitch": 74, "duration": 5, "velocity": 57}, {"time": 3196, "pitch": 49, "duration": 10, "velocity": 60}, {"time": 3196, "pitch": 69, "duration": 10, "velocity": 56}, {"time": 3196, "pitch": 76, "duration": 12, "velocity": 56}, {"time": 3218, "pitch": 69, "duration": 8, "velocity": 45}, {"time": 3218, "pitch": 74, "duration": 8, "velocity": 48}, {"time": 3220, "pitch": 50, "duration": 37, "velocity": 38}, {"time": 3220, "pitch": 77, "duration": 9, "velocity": 63}, {"time": 3232, "pitch": 76, "duration": 2, "velocity": 64}, {"time": 3244, "pitch": 64, "duration": 12, "velocity": 43}, {"time": 3245, "pitch": 45, "duration": 12, "velocity": 45}, {"time": 3245, "pitch": 69, "duration": 12, "velocity": 61}, {"time": 3245, "pitch": 57, "duration": 12, "velocity": 37}, {"time": 3246, "pitch": 73, "duration": 12, "velocity": 56}], "annotations": [{"time": 5, "annotation": {"number": 64, "value": 127}, "group": "control_change"}, {"time": 29, "annotation": {"number": 64, "value": 0}, "group": "control_change"}, {"time": 31, "annotation": {"number": 64, "value": 127}, "group": "control_change"}, {"time": 52, "annotation": {"number": 64, "value": 0}, "group": "control_change"}, {"time": 54, "annotation": {"number": 64, "value": 127}, "group": "control_change"}, {"time": 75, "annotation": {"number": 64, "value": 0}, "group": "control_change"}, {"time": 106, "annotation": {"number": 64, "value": 127}, "group": "control_change"}, {"time": 124, "annotation": {"number": 64, "value": 0}, "group": "control_change"}, {"time": 127, "annotation": {"number": 64, "value": 127}, "group": "control_change"}, {"time": 150, "annotation": {"number": 64, "value": 0}, "group": "control_change"}, {"time": 158, "annotation": {"number": 64, "value": 127}, "group": "control_change"}, {"time": 184, "annotation": {"number": 64, "value": 0}, "group": "control_change"}, {"time": 200, "annotation": {"number": 64, "value": 127}, "group": "control_change"}, {"time": 221, "annotation": {"number": 64, "value": 0}, "group": "control_change"}, {"time": 227, "annotation": {"number": 64, "value": 127}, "group": "control_change"}, {"time": 245, "annotation": {"number": 64, "value": 0}, "group": "control_change"}, {"time": 253, "annotation": {"number": 64, "value": 127}, "group": "control_change"}, {"time": 267, "annotation": {"number": 64, "value": 0}, "group": "control_change"}, {"time": 273, "annotation": {"number": 64, "value": 127}, "group": "control_change"}, {"time": 292, "annotation": {"number": 64, "value": 0}, "group": "control_change"}, {"time": 294, "annotation": {"number": 64, "value": 127}, "group": "control_change"}, {"time": 314, "annotation": {"number": 64, "value": 0}, "group": "control_change"}, {"time": 319, "annotation": {"number": 64, "value": 127}, "group": "control_change"}, {"time": 340, "annotation": {"number": 64, "value": 0}, "group": "control_change"}, {"time": 344, "annotation": {"number": 64, "value": 127}, "group": "control_change"}, {"time": 386, "annotation": {"number": 64, "value": 0}, "group": "control_change"}, {"time": 392, "annotation": {"number": 64, "value": 127}, "group": "control_change"}, {"time": 412, "annotation": {"number": 64, "value": 0}, "group": "control_change"}, {"time": 417, "annotation": {"number": 64, "value": 127}, "group": "control_change"}, {"time": 436, "annotation": {"number": 64, "value": 0}, "group": "control_change"}, {"time": 441, "annotation": {"number": 64, "value": 127}, "group": "control_change"}, {"time": 461, "annotation": {"number": 64, "value": 0}, "group": "control_change"}, {"time": 466, "annotation": {"number": 64, "value": 127}, "group": "control_change"}, {"time": 484, "annotation": {"number": 64, "value": 0}, "group": "control_change"}, {"time": 490, "annotation": {"number": 64, "value": 127}, "group": "control_change"}, {"time": 509, "annotation": {"number": 64, "value": 0}, "group": "control_change"}, {"time": 513, "annotation": {"number": 64, "value": 127}, "group": "control_change"}, {"time": 531, "annotation": {"number": 64, "value": 0}, "group": "control_change"}, {"time": 536, "annotation": {"number": 64, "value": 127}, "group": "control_change"}, {"time": 578, "annotation": {"number": 64, "value": 0}, "group": "control_change"}, {"time": 582, "annotation": {"number": 64, "value": 127}, "group": "control_change"}, {"time": 603, "annotation": {"number": 64, "value": 0}, "group": "control_change"}, {"time": 609, "annotation": {"number": 64, "value": 127}, "group": "control_change"}, {"time": 628, "annotation": {"number": 64, "value": 0}, "group": "control_change"}, {"time": 634, "annotation": {"number": 64, "value": 127}, "group": "control_change"}, {"time": 652, "annotation": {"number": 64, "value": 0}, "group": "control_change"}, {"time": 656, "annotation": {"number": 64, "value": 127}, "group": "control_change"}, {"time": 676, "annotation": {"number": 64, "value": 0}, "group": "control_change"}, {"time": 680, "annotation": {"number": 64, "value": 127}, "group": "control_change"}, {"time": 700, "annotation": {"number": 64, "value": 0}, "group": "control_change"}, {"time": 703, "annotation": {"number": 64, "value": 127}, "group": "control_change"}, {"time": 724, "annotation": {"number": 64, "value": 0}, "group": "control_change"}, {"time": 728, "annotation": {"number": 64, "value": 127}, "group": "control_change"}, {"time": 771, "annotation": {"number": 64, "value": 0}, "group": "control_change"}, {"time": 775, "annotation": {"number": 64, "value": 127}, "group": "control_change"}, {"time": 796, "annotation": {"number": 64, "value": 0}, "group": "control_change"}, {"time": 800, "annotation": {"number": 64, "value": 127}, "group": "control_change"}, {"time": 820, "annotation": {"number": 64, "value": 0}, "group": "control_change"}, {"time": 823, "annotation": {"number": 64, "value": 127}, "group": "control_change"}, {"time": 844, "annotation": {"number": 64, "value": 0}, "group": "control_change"}, {"time": 848, "annotation": {"number": 64, "value": 127}, "group": "control_change"}, {"time": 868, "annotation": {"number": 64, "value": 0}, "group": "control_change"}, {"time": 872, "annotation": {"number": 64, "value": 127}, "group": "control_change"}, {"time": 892, "annotation": {"number": 64, "value": 0}, "group": "control_change"}, {"time": 896, "annotation": {"number": 64, "value": 127}, "group": "control_change"}, {"time": 916, "annotation": {"number": 64, "value": 0}, "group": "control_change"}, {"time": 918, "annotation": {"number": 64, "value": 127}, "group": "control_change"}, {"time": 940, "annotation": {"number": 64, "value": 0}, "group": "control_change"}, {"time": 943, "annotation": {"number": 64, "value": 127}, "group": "control_change"}, {"time": 965, "annotation": {"number": 64, "value": 0}, "group": "control_change"}, {"time": 969, "annotation": {"number": 64, "value": 127}, "group": "control_change"}, {"time": 988, "annotation": {"number": 64, "value": 0}, "group": "control_change"}, {"time": 992, "annotation": {"number": 64, "value": 127}, "group": "control_change"}, {"time": 1012, "annotation": {"number": 64, "value": 0}, "group": "control_change"}, {"time": 1016, "annotation": {"number": 64, "value": 127}, "group": "control_change"}, {"time": 1037, "annotation": {"number": 64, "value": 0}, "group": "control_change"}, {"time": 1042, "annotation": {"number": 64, "value": 127}, "group": "control_change"}, {"time": 1060, "annotation": {"number": 64, "value": 0}, "group": "control_change"}, {"time": 1064, "annotation": {"number": 64, "value": 127}, "group": "control_change"}, {"time": 1084, "annotation": {"number": 64, "value": 0}, "group": "control_change"}, {"time": 1088, "annotation": {"number": 64, "value": 127}, "group": "control_change"}, {"time": 1108, "annotation": {"number": 64, "value": 48}, "group": "control_change"}, {"time": 1108, "annotation": {"number": 64, "value": 0}, "group": "control_change"}, {"time": 1111, "annotation": {"number": 64, "value": 117}, "group": "control_change"}, {"time": 1155, "annotation": {"number": 64, "value": 0}, "group": "control_change"}, {"time": 1159, "annotation": {"number": 64, "value": 127}, "group": "control_change"}, {"time": 1181, "annotation": {"number": 64, "value": 0}, "group": "control_change"}, {"time": 1186, "annotation": {"number": 64, "value": 127}, "group": "control_change"}, {"time": 1204, "annotation": {"number": 64, "value": 0}, "group": "control_change"}, {"time": 1208, "annotation": {"number": 64, "value": 127}, "group": "control_change"}, {"time": 1228, "annotation": {"number": 64, "value": 0}, "group": "control_change"}, {"time": 1232, "annotation": {"number": 64, "value": 127}, "group": "control_change"}, {"time": 1252, "annotation": {"number": 64, "value": 0}, "group": "control_change"}, {"time": 1257, "annotation": {"number": 64, "value": 127}, "group": "control_change"}, {"time": 1280, "annotation": {"number": 64, "value": 127}, "group": "control_change"}, {"time": 1300, "annotation": {"number": 64, "value": 0}, "group": "control_change"}, {"time": 1304, "annotation": {"number": 64, "value": 127}, "group": "control_change"}, {"time": 1324, "annotation": {"number": 64, "value": 0}, "group": "control_change"}, {"time": 1326, "annotation": {"number": 64, "value": 127}, "group": "control_change"}, {"time": 1349, "annotation": {"number": 64, "value": 0}, "group": "control_change"}, {"time": 1354, "annotation": {"number": 64, "value": 127}, "group": "control_change"}, {"time": 1372, "annotation": {"number": 64, "value": 0}, "group": "control_change"}, {"time": 1376, "annotation": {"number": 64, "value": 127}, "group": "control_change"}, {"time": 1395, "annotation": {"number": 64, "value": 0}, "group": "control_change"}, {"time": 1398, "annotation": {"number": 64, "value": 127}, "group": "control_change"}, {"time": 1420, "annotation": {"number": 64, "value": 0}, "group": "control_change"}, {"time": 1424, "annotation": {"number": 64, "value": 127}, "group": "control_change"}, {"time": 1444, "annotation": {"number": 64, "value": 0}, "group": "control_change"}, {"time": 1448, "annotation": {"number": 64, "value": 127}, "group": "control_change"}, {"time": 1468, "annotation": {"number": 64, "value": 0}, "group": "control_change"}, {"time": 1472, "annotation": {"number": 64, "value": 127}, "group": "control_change"}, {"time": 1491, "annotation": {"number": 64, "value": 0}, "group": "control_change"}, {"time": 1495, "annotation": {"number": 64, "value": 127}, "group": "control_change"}, {"time": 1540, "annotation": {"number": 64, "value": 0}, "group": "control_change"}, {"time": 1542, "annotation": {"number": 64, "value": 127}, "group": "control_change"}, {"time": 1565, "annotation": {"number": 64, "value": 0}, "group": "control_change"}, {"time": 1568, "annotation": {"number": 64, "value": 127}, "group": "control_change"}, {"time": 1588, "annotation": {"number": 64, "value": 0}, "group": "control_change"}, {"time": 1592, "annotation": {"number": 64, "value": 127}, "group": "control_change"}, {"time": 1614, "annotation": {"number": 64, "value": 0}, "group": "control_change"}, {"time": 1619, "annotation": {"number": 64, "value": 127}, "group": "control_change"}, {"time": 1636, "annotation": {"number": 64, "value": 0}, "group": "control_change"}, {"time": 1640, "annotation": {"number": 64, "value": 127}, "group": "control_change"}, {"time": 1663, "annotation": {"number": 64, "value": 0}, "group": "control_change"}, {"time": 1664, "annotation": {"number": 64, "value": 127}, "group": "control_change"}, {"time": 1686, "annotation": {"number": 64, "value": 0}, "group": "control_change"}, {"time": 1690, "annotation": {"number": 64, "value": 127}, "group": "control_change"}, {"time": 1728, "annotation": {"number": 64, "value": 127}, "group": "control_change"}, {"time": 1729, "annotation": {"number": 64, "value": 0}, "group": "control_change"}, {"time": 1733, "annotation": {"number": 64, "value": 127}, "group": "control_change"}, {"time": 1757, "annotation": {"number": 64, "value": 0}, "group": "control_change"}, {"time": 1759, "annotation": {"number": 64, "value": 127}, "group": "control_change"}, {"time": 1780, "annotation": {"number": 64, "value": 0}, "group": "control_change"}, {"time": 1782, "annotation": {"number": 64, "value": 127}, "group": "control_change"}, {"time": 1803, "annotation": {"number": 64, "value": 0}, "group": "control_change"}, {"time": 1806, "annotation": {"number": 64, "value": 127}, "group": "control_change"}, {"time": 1829, "annotation": {"number": 64, "value": 0}, "group": "control_change"}, {"time": 1834, "annotation": {"number": 64, "value": 127}, "group": "control_change"}, {"time": 1852, "annotation": {"number": 64, "value": 0}, "group": "control_change"}, {"time": 1855, "annotation": {"number": 64, "value": 127}, "group": "control_change"}, {"time": 1878, "annotation": {"number": 64, "value": 0}, "group": "control_change"}, {"time": 1886, "annotation": {"number": 64, "value": 127}, "group": "control_change"}, {"time": 1902, "annotation": {"number": 64, "value": 127}, "group": "control_change"}, {"time": 1912, "annotation": {"number": 64, "value": 0}, "group": "control_change"}, {"time": 1920, "annotation": {"number": 64, "value": 0}, "group": "control_change"}, {"time": 1926, "annotation": {"number": 64, "value": 127}, "group": "control_change"}, {"time": 1947, "annotation": {"number": 64, "value": 0}, "group": "control_change"}, {"time": 1953, "annotation": {"number": 64, "value": 127}, "group": "control_change"}, {"time": 1972, "annotation": {"number": 64, "value": 0}, "group": "control_change"}, {"time": 1978, "annotation": {"number": 64, "value": 127}, "group": "control_change"}, {"time": 1996, "annotation": {"number": 64, "value": 0}, "group": "control_change"}, {"time": 2000, "annotation": {"number": 64, "value": 127}, "group": "control_change"}, {"time": 2020, "annotation": {"number": 64, "value": 0}, "group": "control_change"}, {"time": 2024, "annotation": {"number": 64, "value": 127}, "group": "control_change"}, {"time": 2044, "annotation": {"number": 64, "value": 0}, "group": "control_change"}, {"time": 2047, "annotation": {"number": 64, "value": 127}, "group": "control_change"}, {"time": 2068, "annotation": {"number": 64, "value": 0}, "group": "control_change"}, {"time": 2072, "annotation": {"number": 64, "value": 127}, "group": "control_change"}, {"time": 2115, "annotation": {"number": 64, "value": 0}, "group": "control_change"}, {"time": 2119, "annotation": {"number": 64, "value": 127}, "group": "control_change"}, {"time": 2140, "annotation": {"number": 64, "value": 0}, "group": "control_change"}, {"time": 2144, "annotation": {"number": 64, "value": 127}, "group": "control_change"}, {"time": 2164, "annotation": {"number": 64, "value": 0}, "group": "control_change"}, {"time": 2167, "annotation": {"number": 64, "value": 127}, "group": "control_change"}, {"time": 2188, "annotation": {"number": 64, "value": 0}, "group": "control_change"}, {"time": 2192, "annotation": {"number": 64, "value": 127}, "group": "control_change"}, {"time": 2212, "annotation": {"number": 64, "value": 0}, "group": "control_change"}, {"time": 2216, "annotation": {"number": 64, "value": 127}, "group": "control_change"}, {"time": 2236, "annotation": {"number": 64, "value": 0}, "group": "control_change"}, {"time": 2240, "annotation": {"number": 64, "value": 127}, "group": "control_change"}, {"time": 2260, "annotation": {"number": 64, "value": 0}, "group": "control_change"}, {"time": 2262, "annotation": {"number": 64, "value": 127}, "group": "control_change"}, {"time": 2284, "annotation": {"number": 64, "value": 0}, "group": "control_change"}, {"time": 2287, "annotation": {"number": 64, "value": 127}, "group": "control_change"}, {"time": 2309, "annotation": {"number": 64, "value": 0}, "group": "control_change"}, {"time": 2313, "annotation": {"number": 64, "value": 127}, "group": "control_change"}, {"time": 2332, "annotation": {"number": 64, "value": 0}, "group": "control_change"}, {"time": 2336, "annotation": {"number": 64, "value": 127}, "group": "control_change"}, {"time": 2356, "annotation": {"number": 64, "value": 0}, "group": "control_change"}, {"time": 2360, "annotation": {"number": 64, "value": 127}, "group": "control_change"}, {"time": 2381, "annotation": {"number": 64, "value": 0}, "group": "control_change"}, {"time": 2386, "annotation": {"number": 64, "value": 127}, "group": "control_change"}, {"time": 2404, "annotation": {"number": 64, "value": 0}, "group": "control_change"}, {"time": 2408, "annotation": {"number": 64, "value": 127}, "group": "control_change"}, {"time": 2428, "annotation": {"number": 64, "value": 0}, "group": "control_change"}, {"time": 2432, "annotation": {"number": 64, "value": 127}, "group": "control_change"}, {"time": 2452, "annotation": {"number": 64, "value": 48}, "group": "control_change"}, {"time": 2452, "annotation": {"number": 64, "value": 0}, "group": "control_change"}, {"time": 2455, "annotation": {"number": 64, "value": 117}, "group": "control_change"}, {"time": 2499, "annotation": {"number": 64, "value": 0}, "group": "control_change"}, {"time": 2503, "annotation": {"number": 64, "value": 127}, "group": "control_change"}, {"time": 2525, "annotation": {"number": 64, "value": 0}, "group": "control_change"}, {"time": 2530, "annotation": {"number": 64, "value": 127}, "group": "control_change"}, {"time": 2548, "annotation": {"number": 64, "value": 0}, "group": "control_change"}, {"time": 2552, "annotation": {"number": 64, "value": 127}, "group": "control_change"}, {"time": 2572, "annotation": {"number": 64, "value": 0}, "group": "control_change"}, {"time": 2576, "annotation": {"number": 64, "value": 127}, "group": "control_change"}, {"time": 2596, "annotation": {"number": 64, "value": 0}, "group": "control_change"}, {"time": 2601, "annotation": {"number": 64, "value": 127}, "group": "control_change"}, {"time": 2622, "annotation": {"number": 64, "value": 0}, "group": "control_change"}, {"time": 2624, "annotation": {"number": 64, "value": 127}, "group": "control_change"}, {"time": 2644, "annotation": {"number": 64, "value": 0}, "group": "control_change"}, {"time": 2648, "annotation": {"number": 64, "value": 127}, "group": "control_change"}, {"time": 2668, "annotation": {"number": 64, "value": 0}, "group": "control_change"}, {"time": 2670, "annotation": {"number": 64, "value": 127}, "group": "control_change"}, {"time": 2693, "annotation": {"number": 64, "value": 0}, "group": "control_change"}, {"time": 2698, "annotation": {"number": 64, "value": 127}, "group": "control_change"}, {"time": 2716, "annotation": {"number": 64, "value": 0}, "group": "control_change"}, {"time": 2720, "annotation": {"number": 64, "value": 127}, "group": "control_change"}, {"time": 2739, "annotation": {"number": 64, "value": 0}, "group": "control_change"}, {"time": 2742, "annotation": {"number": 64, "value": 127}, "group": "control_change"}, {"time": 2764, "annotation": {"number": 64, "value": 0}, "group": "control_change"}, {"time": 2768, "annotation": {"number": 64, "value": 127}, "group": "control_change"}, {"time": 2788, "annotation": {"number": 64, "value": 0}, "group": "control_change"}, {"time": 2792, "annotation": {"number": 64, "value": 127}, "group": "control_change"}, {"time": 2812, "annotation": {"number": 64, "value": 0}, "group": "control_change"}, {"time": 2816, "annotation": {"number": 64, "value": 127}, "group": "control_change"}, {"time": 2835, "annotation": {"number": 64, "value": 0}, "group": "control_change"}, {"time": 2839, "annotation": {"number": 64, "value": 127}, "group": "control_change"}, {"time": 2884, "annotation": {"number": 64, "value": 0}, "group": "control_change"}, {"time": 2886, "annotation": {"number": 64, "value": 127}, "group": "control_change"}, {"time": 2909, "annotation": {"number": 64, "value": 0}, "group": "control_change"}, {"time": 2912, "annotation": {"number": 64, "value": 127}, "group": "control_change"}, {"time": 2932, "annotation": {"number": 64, "value": 0}, "group": "control_change"}, {"time": 2936, "annotation": {"number": 64, "value": 127}, "group": "control_change"}, {"time": 2958, "annotation": {"number": 64, "value": 0}, "group": "control_change"}, {"time": 2963, "annotation": {"number": 64, "value": 127}, "group": "control_change"}, {"time": 2980, "annotation": {"number": 64, "value": 0}, "group": "control_change"}, {"time": 2984, "annotation": {"number": 64, "value": 127}, "group": "control_change"}, {"time": 3007, "annotation": {"number": 64, "value": 0}, "group": "control_change"}, {"time": 3008, "annotation": {"number": 64, "value": 127}, "group": "control_change"}, {"time": 3030, "annotation": {"number": 64, "value": 0}, "group": "control_change"}, {"time": 3034, "annotation": {"number": 64, "value": 127}, "group": "control_change"}, {"time": 3072, "annotation": {"number": 64, "value": 127}, "group": "control_change"}, {"time": 3077, "annotation": {"number": 64, "value": 0}, "group": "control_change"}, {"time": 3080, "annotation": {"number": 64, "value": 127}, "group": "control_change"}, {"time": 3100, "annotation": {"number": 64, "value": 0}, "group": "control_change"}, {"time": 3103, "annotation": {"number": 64, "value": 127}, "group": "control_change"}, {"time": 3124, "annotation": {"number": 64, "value": 0}, "group": "control_change"}, {"time": 3128, "annotation": {"number": 64, "value": 127}, "group": "control_change"}, {"time": 3149, "annotation": {"number": 64, "value": 0}, "group": "control_change"}, {"time": 3153, "annotation": {"number": 64, "value": 127}, "group": "control_change"}, {"time": 3173, "annotation": {"number": 64, "value": 0}, "group": "control_change"}, {"time": 3178, "annotation": {"number": 64, "value": 127}, "group": "control_change"}, {"time": 3219, "annotation": {"number": 64, "value": 0}, "group": "control_change"}, {"time": 3223, "annotation": {"number": 64, "value": 127}, "group": "control_change"}, {"time": 3243, "annotation": {"number": 64, "value": 0}, "group": "control_change"}, {"time": 3244, "annotation": {"number": 64, "value": 0}, "group": "control_change"}, {"time": 3248, "annotation": {"number": 64, "value": 127}, "group": "control_change"}, {"time": 3264, "annotation": {"number": 64, "value": 127}, "group": "control_change"}, {"time": 3288, "annotation": {"number": 64, "value": 0}, "group": "control_change"}]}]}