{"metadata": {"schema_version": "0.2", "title": "None", "source_filename": "186.mid", "source_format": "midi"}, "resolution": 12, "tempos": [{"time": 0, "qpm": 60.0}, {"time": 222, "qpm": 59.00006686674245}, {"time": 228, "qpm": 60.0}, {"time": 432, "qpm": 59.00006686674245}, {"time": 480, "qpm": 60.99997255001235}, {"time": 516, "qpm": 60.0}, {"time": 864, "qpm": 59.00006686674245}, {"time": 900, "qpm": 60.0}, {"time": 1032, "qpm": 61.99999586666694}, {"time": 1056, "qpm": 60.0}, {"time": 1068, "qpm": 59.00006686674245}, {"time": 1092, "qpm": 60.0}, {"time": 1776, "qpm": 59.00006686674245}, {"time": 1824, "qpm": 60.0}, {"time": 2700, "qpm": 59.00006686674245}, {"time": 2724, "qpm": 60.0}], "time_signatures": [{"time": 0, "numerator": 4, "denominator": 4}], "tracks": [{"program": 0, "is_drum": false, "name": "MELODY", "notes": [{"time": 237, "pitch": 69, "duration": 3, "velocity": 93}, {"time": 240, "pitch": 71, "duration": 6, "velocity": 82}, {"time": 246, "pitch": 69, "duration": 3, "velocity": 76}, {"time": 249, "pitch": 71, "duration": 12, "velocity": 77}, {"time": 261, "pitch": 67, "duration": 3, "velocity": 91}, {"time": 264, "pitch": 69, "duration": 3, "velocity": 69}, {"time": 267, "pitch": 71, "duration": 3, "velocity": 80}, {"time": 270, "pitch": 72, "duration": 3, "velocity": 88}, {"time": 273, "pitch": 74, "duration": 6, "velocity": 73}, {"time": 279, "pitch": 72, "duration": 3, "velocity": 80}, {"time": 282, "pitch": 72, "duration": 9, "velocity": 85}, {"time": 291, "pitch": 72, "duration": 3, "velocity": 69}, {"time": 294, "pitch": 71, "duration": 9, "velocity": 66}, {"time": 303, "pitch": 69, "duration": 3, "velocity": 66}, {"time": 306, "pitch": 67, "duration": 6, "velocity": 76}, {"time": 312, "pitch": 69, "duration": 18, "velocity": 63}, {"time": 330, "pitch": 62, "duration": 3, "velocity": 82}, {"time": 333, "pitch": 69, "duration": 3, "velocity": 76}, {"time": 336, "pitch": 71, "duration": 6, "velocity": 85}, {"time": 342, "pitch": 69, "duration": 3, "velocity": 80}, {"time": 345, "pitch": 71, "duration": 12, "velocity": 73}, {"time": 357, "pitch": 67, "duration": 6, "velocity": 91}, {"time": 363, "pitch": 76, "duration": 6, "velocity": 69}, {"time": 369, "pitch": 74, "duration": 6, "velocity": 97}, {"time": 375, "pitch": 72, "duration": 3, "velocity": 78}, {"time": 378, "pitch": 72, "duration": 9, "velocity": 88}, {"time": 387, "pitch": 72, "duration": 3, "velocity": 61}, {"time": 390, "pitch": 74, "duration": 3, "velocity": 69}, {"time": 393, "pitch": 71, "duration": 6, "velocity": 67}, {"time": 399, "pitch": 69, "duration": 3, "velocity": 66}, {"time": 402, "pitch": 71, "duration": 9, "velocity": 85}, {"time": 411, "pitch": 69, "duration": 3, "velocity": 93}, {"time": 414, "pitch": 67, "duration": 12, "velocity": 95}, {"time": 426, "pitch": 67, "duration": 3, "velocity": 82}, {"time": 429, "pitch": 79, "duration": 3, "velocity": 70}, {"time": 432, "pitch": 79, "duration": 3, "velocity": 75}, {"time": 435, "pitch": 78, "duration": 3, "velocity": 99}, {"time": 438, "pitch": 79, "duration": 3, "velocity": 70}, {"time": 441, "pitch": 78, "duration": 6, "velocity": 101}, {"time": 447, "pitch": 74, "duration": 3, "velocity": 85}, {"time": 450, "pitch": 74, "duration": 12, "velocity": 95}, {"time": 462, "pitch": 67, "duration": 3, "velocity": 97}, {"time": 465, "pitch": 76, "duration": 6, "velocity": 99}, {"time": 471, "pitch": 74, "duration": 3, "velocity": 85}, {"time": 474, "pitch": 74, "duration": 3, "velocity": 93}, {"time": 477, "pitch": 74, "duration": 6, "velocity": 93}, {"time": 483, "pitch": 74, "duration": 3, "velocity": 97}, {"time": 486, "pitch": 74, "duration": 21, "velocity": 88}, {"time": 507, "pitch": 69, "duration": 3, "velocity": 88}, {"time": 510, "pitch": 71, "duration": 2, "velocity": 66}, {"time": 513, "pitch": 72, "duration": 2, "velocity": 76}, {"time": 516, "pitch": 71, "duration": 2, "velocity": 82}, {"time": 519, "pitch": 72, "duration": 3, "velocity": 76}, {"time": 522, "pitch": 79, "duration": 26, "velocity": 80}, {"time": 549, "pitch": 67, "duration": 4, "velocity": 91}, {"time": 552, "pitch": 69, "duration": 4, "velocity": 82}, {"time": 558, "pitch": 71, "duration": 3, "velocity": 85}, {"time": 561, "pitch": 71, "duration": 9, "velocity": 93}, {"time": 570, "pitch": 72, "duration": 1, "velocity": 70}, {"time": 573, "pitch": 69, "duration": 24, "velocity": 93}, {"time": 573, "pitch": 71, "duration": 1, "velocity": 69}, {"time": 597, "pitch": 71, "duration": 6, "velocity": 85}, {"time": 603, "pitch": 69, "duration": 3, "velocity": 73}, {"time": 606, "pitch": 67, "duration": 15, "velocity": 64}, {"time": 621, "pitch": 69, "duration": 3, "velocity": 93}, {"time": 624, "pitch": 71, "duration": 6, "velocity": 82}, {"time": 630, "pitch": 69, "duration": 3, "velocity": 76}, {"time": 633, "pitch": 71, "duration": 12, "velocity": 77}, {"time": 645, "pitch": 67, "duration": 3, "velocity": 91}, {"time": 648, "pitch": 69, "duration": 3, "velocity": 69}, {"time": 651, "pitch": 71, "duration": 3, "velocity": 80}, {"time": 654, "pitch": 72, "duration": 2, "velocity": 88}, {"time": 657, "pitch": 74, "duration": 6, "velocity": 73}, {"time": 663, "pitch": 72, "duration": 3, "velocity": 80}, {"time": 666, "pitch": 72, "duration": 9, "velocity": 85}, {"time": 675, "pitch": 72, "duration": 3, "velocity": 69}, {"time": 678, "pitch": 71, "duration": 9, "velocity": 66}, {"time": 687, "pitch": 69, "duration": 3, "velocity": 66}, {"time": 690, "pitch": 67, "duration": 6, "velocity": 76}, {"time": 696, "pitch": 69, "duration": 18, "velocity": 63}, {"time": 714, "pitch": 62, "duration": 3, "velocity": 82}, {"time": 717, "pitch": 69, "duration": 3, "velocity": 76}, {"time": 720, "pitch": 71, "duration": 6, "velocity": 85}, {"time": 726, "pitch": 69, "duration": 3, "velocity": 80}, {"time": 729, "pitch": 71, "duration": 12, "velocity": 73}, {"time": 741, "pitch": 67, "duration": 6, "velocity": 91}, {"time": 747, "pitch": 76, "duration": 6, "velocity": 69}, {"time": 753, "pitch": 74, "duration": 6, "velocity": 97}, {"time": 759, "pitch": 72, "duration": 3, "velocity": 78}, {"time": 762, "pitch": 72, "duration": 9, "velocity": 88}, {"time": 771, "pitch": 72, "duration": 3, "velocity": 61}, {"time": 774, "pitch": 74, "duration": 3, "velocity": 69}, {"time": 777, "pitch": 71, "duration": 6, "velocity": 67}, {"time": 783, "pitch": 69, "duration": 3, "velocity": 66}, {"time": 786, "pitch": 71, "duration": 9, "velocity": 85}, {"time": 795, "pitch": 69, "duration": 3, "velocity": 93}, {"time": 798, "pitch": 67, "duration": 12, "velocity": 95}, {"time": 810, "pitch": 67, "duration": 3, "velocity": 82}, {"time": 813, "pitch": 79, "duration": 6, "velocity": 70}, {"time": 819, "pitch": 78, "duration": 3, "velocity": 99}, {"time": 822, "pitch": 78, "duration": 9, "velocity": 101}, {"time": 831, "pitch": 74, "duration": 6, "velocity": 85}, {"time": 837, "pitch": 74, "duration": 3, "velocity": 95}, {"time": 840, "pitch": 71, "duration": 6, "velocity": 95}, {"time": 846, "pitch": 67, "duration": 3, "velocity": 97}, {"time": 849, "pitch": 76, "duration": 6, "velocity": 99}, {"time": 855, "pitch": 74, "duration": 3, "velocity": 85}, {"time": 858, "pitch": 74, "duration": 6, "velocity": 93}, {"time": 864, "pitch": 72, "duration": 3, "velocity": 93}, {"time": 867, "pitch": 74, "duration": 3, "velocity": 97}, {"time": 870, "pitch": 72, "duration": 3, "velocity": 88}, {"time": 873, "pitch": 74, "duration": 18, "velocity": 88}, {"time": 891, "pitch": 69, "duration": 3, "velocity": 88}, {"time": 894, "pitch": 71, "duration": 2, "velocity": 66}, {"time": 897, "pitch": 72, "duration": 2, "velocity": 76}, {"time": 900, "pitch": 71, "duration": 2, "velocity": 82}, {"time": 903, "pitch": 72, "duration": 3, "velocity": 76}, {"time": 906, "pitch": 79, "duration": 24, "velocity": 80}, {"time": 930, "pitch": 76, "duration": 2, "velocity": 101}, {"time": 933, "pitch": 79, "duration": 4, "velocity": 91}, {"time": 939, "pitch": 81, "duration": 4, "velocity": 103}, {"time": 945, "pitch": 81, "duration": 33, "velocity": 99}, {"time": 981, "pitch": 79, "duration": 5, "velocity": 99}, {"time": 987, "pitch": 81, "duration": 4, "velocity": 97}, {"time": 993, "pitch": 83, "duration": 4, "velocity": 103}, {"time": 999, "pitch": 83, "duration": 3, "velocity": 103}, {"time": 1005, "pitch": 83, "duration": 3, "velocity": 106}, {"time": 1011, "pitch": 83, "duration": 2, "velocity": 99}, {"time": 1014, "pitch": 84, "duration": 7, "velocity": 109}, {"time": 1023, "pitch": 83, "duration": 4, "velocity": 99}, {"time": 1026, "pitch": 83, "duration": 1, "velocity": 97}, {"time": 1032, "pitch": 83, "duration": 5, "velocity": 97}, {"time": 1041, "pitch": 81, "duration": 3, "velocity": 106}, {"time": 1044, "pitch": 79, "duration": 6, "velocity": 93}, {"time": 1053, "pitch": 79, "duration": 5, "velocity": 97}, {"time": 1059, "pitch": 76, "duration": 3, "velocity": 106}, {"time": 1062, "pitch": 83, "duration": 17, "velocity": 101}, {"time": 1083, "pitch": 74, "duration": 1, "velocity": 99}, {"time": 1086, "pitch": 74, "duration": 2, "velocity": 95}, {"time": 1089, "pitch": 76, "duration": 3, "velocity": 95}, {"time": 1092, "pitch": 79, "duration": 3, "velocity": 101}, {"time": 1098, "pitch": 79, "duration": 1, "velocity": 80}, {"time": 1101, "pitch": 79, "duration": 4, "velocity": 97}, {"time": 1107, "pitch": 76, "duration": 2, "velocity": 91}, {"time": 1110, "pitch": 74, "duration": 5, "velocity": 97}, {"time": 1113, "pitch": 74, "duration": 2, "velocity": 103}, {"time": 1116, "pitch": 83, "duration": 2, "velocity": 97}, {"time": 1122, "pitch": 83, "duration": 3, "velocity": 93}, {"time": 1125, "pitch": 83, "duration": 1, "velocity": 106}, {"time": 1131, "pitch": 81, "duration": 3, "velocity": 103}, {"time": 1134, "pitch": 79, "duration": 3, "velocity": 101}, {"time": 1143, "pitch": 79, "duration": 1, "velocity": 99}, {"time": 1146, "pitch": 79, "duration": 1, "velocity": 93}, {"time": 1149, "pitch": 79, "duration": 5, "velocity": 99}, {"time": 1155, "pitch": 76, "duration": 2, "velocity": 103}, {"time": 1158, "pitch": 81, "duration": 12, "velocity": 101}, {"time": 1173, "pitch": 79, "duration": 5, "velocity": 101}, {"time": 1179, "pitch": 81, "duration": 4, "velocity": 97}, {"time": 1185, "pitch": 83, "duration": 3, "velocity": 103}, {"time": 1191, "pitch": 83, "duration": 2, "velocity": 106}, {"time": 1194, "pitch": 83, "duration": 2, "velocity": 99}, {"time": 1197, "pitch": 83, "duration": 3, "velocity": 97}, {"time": 1203, "pitch": 83, "duration": 2, "velocity": 91}, {"time": 1206, "pitch": 83, "duration": 3, "velocity": 80}, {"time": 1209, "pitch": 84, "duration": 6, "velocity": 97}, {"time": 1215, "pitch": 83, "duration": 3, "velocity": 95}, {"time": 1218, "pitch": 83, "duration": 5, "velocity": 97}, {"time": 1224, "pitch": 83, "duration": 5, "velocity": 97}, {"time": 1233, "pitch": 81, "duration": 2, "velocity": 101}, {"time": 1236, "pitch": 79, "duration": 6, "velocity": 88}, {"time": 1245, "pitch": 79, "duration": 6, "velocity": 99}, {"time": 1251, "pitch": 81, "duration": 1, "velocity": 99}, {"time": 1254, "pitch": 81, "duration": 13, "velocity": 97}, {"time": 1275, "pitch": 74, "duration": 1, "velocity": 99}, {"time": 1278, "pitch": 74, "duration": 2, "velocity": 97}, {"time": 1281, "pitch": 76, "duration": 3, "velocity": 95}, {"time": 1284, "pitch": 79, "duration": 3, "velocity": 101}, {"time": 1290, "pitch": 79, "duration": 1, "velocity": 60}, {"time": 1293, "pitch": 79, "duration": 4, "velocity": 82}, {"time": 1299, "pitch": 76, "duration": 2, "velocity": 85}, {"time": 1302, "pitch": 74, "duration": 2, "velocity": 97}, {"time": 1305, "pitch": 74, "duration": 3, "velocity": 85}, {"time": 1311, "pitch": 83, "duration": 2, "velocity": 88}, {"time": 1314, "pitch": 83, "duration": 4, "velocity": 85}, {"time": 1317, "pitch": 83, "duration": 1, "velocity": 97}, {"time": 1323, "pitch": 81, "duration": 5, "velocity": 97}, {"time": 1326, "pitch": 79, "duration": 5, "velocity": 97}, {"time": 1335, "pitch": 76, "duration": 5, "velocity": 99}, {"time": 1341, "pitch": 79, "duration": 19, "velocity": 82}, {"time": 1389, "pitch": 69, "duration": 3, "velocity": 93}, {"time": 1392, "pitch": 71, "duration": 3, "velocity": 82}, {"time": 1395, "pitch": 69, "duration": 3, "velocity": 82}, {"time": 1398, "pitch": 71, "duration": 15, "velocity": 77}, {"time": 1413, "pitch": 67, "duration": 3, "velocity": 91}, {"time": 1416, "pitch": 69, "duration": 3, "velocity": 69}, {"time": 1419, "pitch": 71, "duration": 3, "velocity": 80}, {"time": 1422, "pitch": 72, "duration": 3, "velocity": 88}, {"time": 1425, "pitch": 74, "duration": 6, "velocity": 73}, {"time": 1431, "pitch": 72, "duration": 3, "velocity": 80}, {"time": 1434, "pitch": 72, "duration": 6, "velocity": 85}, {"time": 1440, "pitch": 79, "duration": 9, "velocity": 77}, {"time": 1449, "pitch": 72, "duration": 6, "velocity": 85}, {"time": 1455, "pitch": 71, "duration": 3, "velocity": 66}, {"time": 1458, "pitch": 69, "duration": 6, "velocity": 76}, {"time": 1464, "pitch": 71, "duration": 21, "velocity": 63}, {"time": 1485, "pitch": 69, "duration": 3, "velocity": 76}, {"time": 1488, "pitch": 71, "duration": 6, "velocity": 85}, {"time": 1494, "pitch": 69, "duration": 3, "velocity": 80}, {"time": 1497, "pitch": 71, "duration": 12, "velocity": 73}, {"time": 1509, "pitch": 67, "duration": 6, "velocity": 91}, {"time": 1515, "pitch": 76, "duration": 6, "velocity": 69}, {"time": 1521, "pitch": 74, "duration": 6, "velocity": 97}, {"time": 1527, "pitch": 72, "duration": 3, "velocity": 78}, {"time": 1530, "pitch": 72, "duration": 9, "velocity": 88}, {"time": 1539, "pitch": 72, "duration": 3, "velocity": 87}, {"time": 1542, "pitch": 74, "duration": 3, "velocity": 69}, {"time": 1545, "pitch": 71, "duration": 6, "velocity": 67}, {"time": 1551, "pitch": 69, "duration": 3, "velocity": 66}, {"time": 1554, "pitch": 71, "duration": 9, "velocity": 85}, {"time": 1563, "pitch": 69, "duration": 3, "velocity": 83}, {"time": 1566, "pitch": 67, "duration": 12, "velocity": 85}, {"time": 1578, "pitch": 67, "duration": 3, "velocity": 82}, {"time": 1581, "pitch": 79, "duration": 6, "velocity": 70}, {"time": 1587, "pitch": 78, "duration": 3, "velocity": 84}, {"time": 1590, "pitch": 78, "duration": 9, "velocity": 70}, {"time": 1599, "pitch": 76, "duration": 6, "velocity": 85}, {"time": 1605, "pitch": 74, "duration": 3, "velocity": 81}, {"time": 1608, "pitch": 71, "duration": 6, "velocity": 81}, {"time": 1614, "pitch": 67, "duration": 3, "velocity": 83}, {"time": 1617, "pitch": 76, "duration": 6, "velocity": 85}, {"time": 1623, "pitch": 74, "duration": 3, "velocity": 85}, {"time": 1626, "pitch": 74, "duration": 6, "velocity": 93}, {"time": 1632, "pitch": 74, "duration": 3, "velocity": 97}, {"time": 1635, "pitch": 72, "duration": 3, "velocity": 88}, {"time": 1638, "pitch": 74, "duration": 21, "velocity": 88}, {"time": 1659, "pitch": 69, "duration": 3, "velocity": 88}, {"time": 1662, "pitch": 71, "duration": 3, "velocity": 66}, {"time": 1665, "pitch": 72, "duration": 3, "velocity": 76}, {"time": 1668, "pitch": 71, "duration": 3, "velocity": 82}, {"time": 1671, "pitch": 72, "duration": 3, "velocity": 76}, {"time": 1674, "pitch": 79, "duration": 24, "velocity": 80}, {"time": 1698, "pitch": 76, "duration": 3, "velocity": 101}, {"time": 1701, "pitch": 79, "duration": 6, "velocity": 91}, {"time": 1707, "pitch": 81, "duration": 6, "velocity": 103}, {"time": 1713, "pitch": 81, "duration": 36, "velocity": 99}, {"time": 1749, "pitch": 79, "duration": 6, "velocity": 99}, {"time": 1755, "pitch": 81, "duration": 6, "velocity": 97}, {"time": 1761, "pitch": 83, "duration": 6, "velocity": 103}, {"time": 1767, "pitch": 83, "duration": 6, "velocity": 103}, {"time": 1773, "pitch": 83, "duration": 6, "velocity": 106}, {"time": 1779, "pitch": 83, "duration": 3, "velocity": 99}, {"time": 1782, "pitch": 84, "duration": 9, "velocity": 109}, {"time": 1791, "pitch": 83, "duration": 3, "velocity": 99}, {"time": 1794, "pitch": 83, "duration": 6, "velocity": 97}, {"time": 1800, "pitch": 83, "duration": 9, "velocity": 97}, {"time": 1809, "pitch": 81, "duration": 3, "velocity": 106}, {"time": 1812, "pitch": 79, "duration": 9, "velocity": 93}, {"time": 1821, "pitch": 79, "duration": 6, "velocity": 97}, {"time": 1827, "pitch": 76, "duration": 3, "velocity": 106}, {"time": 1830, "pitch": 83, "duration": 21, "velocity": 101}, {"time": 1851, "pitch": 74, "duration": 3, "velocity": 99}, {"time": 1854, "pitch": 74, "duration": 3, "velocity": 95}, {"time": 1857, "pitch": 76, "duration": 3, "velocity": 95}, {"time": 1860, "pitch": 79, "duration": 6, "velocity": 101}, {"time": 1866, "pitch": 79, "duration": 3, "velocity": 80}, {"time": 1869, "pitch": 79, "duration": 6, "velocity": 97}, {"time": 1875, "pitch": 76, "duration": 3, "velocity": 91}, {"time": 1878, "pitch": 74, "duration": 3, "velocity": 97}, {"time": 1881, "pitch": 74, "duration": 3, "velocity": 103}, {"time": 1884, "pitch": 83, "duration": 6, "velocity": 97}, {"time": 1890, "pitch": 83, "duration": 3, "velocity": 93}, {"time": 1893, "pitch": 83, "duration": 6, "velocity": 106}, {"time": 1899, "pitch": 81, "duration": 3, "velocity": 103}, {"time": 1902, "pitch": 79, "duration": 9, "velocity": 101}, {"time": 1911, "pitch": 79, "duration": 3, "velocity": 99}, {"time": 1914, "pitch": 79, "duration": 3, "velocity": 93}, {"time": 1917, "pitch": 79, "duration": 3, "velocity": 99}, {"time": 1920, "pitch": 83, "duration": 9, "velocity": 103}, {"time": 1929, "pitch": 83, "duration": 6, "velocity": 101}, {"time": 1935, "pitch": 81, "duration": 6, "velocity": 101}, {"time": 1941, "pitch": 79, "duration": 6, "velocity": 101}, {"time": 1947, "pitch": 81, "duration": 6, "velocity": 97}, {"time": 1953, "pitch": 83, "duration": 6, "velocity": 103}, {"time": 1959, "pitch": 83, "duration": 3, "velocity": 106}, {"time": 1962, "pitch": 83, "duration": 3, "velocity": 99}, {"time": 1965, "pitch": 83, "duration": 6, "velocity": 97}, {"time": 1971, "pitch": 83, "duration": 3, "velocity": 91}, {"time": 1974, "pitch": 83, "duration": 3, "velocity": 80}, {"time": 1977, "pitch": 84, "duration": 6, "velocity": 97}, {"time": 1983, "pitch": 83, "duration": 3, "velocity": 95}, {"time": 1986, "pitch": 83, "duration": 6, "velocity": 97}, {"time": 1992, "pitch": 83, "duration": 9, "velocity": 97}, {"time": 2001, "pitch": 81, "duration": 3, "velocity": 101}, {"time": 2004, "pitch": 79, "duration": 9, "velocity": 88}, {"time": 2013, "pitch": 79, "duration": 6, "velocity": 99}, {"time": 2019, "pitch": 81, "duration": 3, "velocity": 99}, {"time": 2022, "pitch": 81, "duration": 21, "velocity": 97}, {"time": 2043, "pitch": 74, "duration": 3, "velocity": 99}, {"time": 2046, "pitch": 74, "duration": 3, "velocity": 97}, {"time": 2049, "pitch": 76, "duration": 3, "velocity": 95}, {"time": 2055, "pitch": 79, "duration": 3, "velocity": 101}, {"time": 2058, "pitch": 79, "duration": 3, "velocity": 60}, {"time": 2061, "pitch": 79, "duration": 6, "velocity": 82}, {"time": 2067, "pitch": 76, "duration": 3, "velocity": 85}, {"time": 2070, "pitch": 74, "duration": 3, "velocity": 97}, {"time": 2073, "pitch": 74, "duration": 6, "velocity": 85}, {"time": 2076, "pitch": 83, "duration": 3, "velocity": 88}, {"time": 2082, "pitch": 83, "duration": 3, "velocity": 85}, {"time": 2085, "pitch": 83, "duration": 6, "velocity": 97}, {"time": 2091, "pitch": 81, "duration": 3, "velocity": 97}, {"time": 2094, "pitch": 79, "duration": 9, "velocity": 97}, {"time": 2103, "pitch": 76, "duration": 6, "velocity": 99}, {"time": 2109, "pitch": 79, "duration": 36, "velocity": 82}, {"time": 2349, "pitch": 79, "duration": 6, "velocity": 70}, {"time": 2355, "pitch": 78, "duration": 3, "velocity": 84}, {"time": 2358, "pitch": 78, "duration": 9, "velocity": 70}, {"time": 2367, "pitch": 76, "duration": 6, "velocity": 85}, {"time": 2373, "pitch": 74, "duration": 3, "velocity": 81}, {"time": 2376, "pitch": 71, "duration": 6, "velocity": 81}, {"time": 2382, "pitch": 67, "duration": 3, "velocity": 83}, {"time": 2385, "pitch": 76, "duration": 6, "velocity": 85}, {"time": 2391, "pitch": 74, "duration": 3, "velocity": 85}, {"time": 2394, "pitch": 74, "duration": 6, "velocity": 93}, {"time": 2400, "pitch": 72, "duration": 3, "velocity": 97}, {"time": 2403, "pitch": 74, "duration": 3, "velocity": 88}, {"time": 2406, "pitch": 72, "duration": 3, "velocity": 88}, {"time": 2409, "pitch": 74, "duration": 18, "velocity": 88}, {"time": 2427, "pitch": 69, "duration": 3, "velocity": 88}, {"time": 2430, "pitch": 71, "duration": 3, "velocity": 66}, {"time": 2433, "pitch": 72, "duration": 3, "velocity": 76}, {"time": 2436, "pitch": 71, "duration": 3, "velocity": 82}, {"time": 2439, "pitch": 72, "duration": 3, "velocity": 76}, {"time": 2442, "pitch": 79, "duration": 24, "velocity": 80}, {"time": 2466, "pitch": 76, "duration": 3, "velocity": 101}, {"time": 2469, "pitch": 79, "duration": 6, "velocity": 91}, {"time": 2475, "pitch": 81, "duration": 6, "velocity": 103}, {"time": 2481, "pitch": 81, "duration": 24, "velocity": 99}, {"time": 2505, "pitch": 80, "duration": 12, "velocity": 99}, {"time": 2517, "pitch": 82, "duration": 12, "velocity": 97}, {"time": 2529, "pitch": 84, "duration": 6, "velocity": 103}, {"time": 2535, "pitch": 84, "duration": 6, "velocity": 103}, {"time": 2541, "pitch": 84, "duration": 6, "velocity": 106}, {"time": 2547, "pitch": 84, "duration": 3, "velocity": 99}, {"time": 2550, "pitch": 85, "duration": 9, "velocity": 109}, {"time": 2559, "pitch": 84, "duration": 3, "velocity": 99}, {"time": 2562, "pitch": 84, "duration": 6, "velocity": 97}, {"time": 2568, "pitch": 84, "duration": 9, "velocity": 97}, {"time": 2577, "pitch": 82, "duration": 3, "velocity": 106}, {"time": 2580, "pitch": 80, "duration": 9, "velocity": 93}, {"time": 2589, "pitch": 80, "duration": 6, "velocity": 97}, {"time": 2595, "pitch": 77, "duration": 3, "velocity": 106}, {"time": 2598, "pitch": 84, "duration": 21, "velocity": 101}, {"time": 2619, "pitch": 75, "duration": 3, "velocity": 99}, {"time": 2622, "pitch": 75, "duration": 3, "velocity": 95}, {"time": 2625, "pitch": 77, "duration": 3, "velocity": 95}, {"time": 2628, "pitch": 80, "duration": 6, "velocity": 101}, {"time": 2634, "pitch": 80, "duration": 3, "velocity": 80}, {"time": 2637, "pitch": 80, "duration": 6, "velocity": 97}, {"time": 2643, "pitch": 77, "duration": 3, "velocity": 91}, {"time": 2646, "pitch": 75, "duration": 3, "velocity": 97}, {"time": 2649, "pitch": 75, "duration": 3, "velocity": 103}, {"time": 2652, "pitch": 84, "duration": 6, "velocity": 97}, {"time": 2658, "pitch": 84, "duration": 3, "velocity": 93}, {"time": 2661, "pitch": 84, "duration": 6, "velocity": 106}, {"time": 2667, "pitch": 82, "duration": 3, "velocity": 103}, {"time": 2670, "pitch": 80, "duration": 9, "velocity": 101}, {"time": 2679, "pitch": 80, "duration": 3, "velocity": 99}, {"time": 2682, "pitch": 80, "duration": 3, "velocity": 93}, {"time": 2685, "pitch": 80, "duration": 3, "velocity": 99}, {"time": 2688, "pitch": 84, "duration": 9, "velocity": 103}, {"time": 2697, "pitch": 84, "duration": 6, "velocity": 101}, {"time": 2703, "pitch": 82, "duration": 6, "velocity": 101}, {"time": 2709, "pitch": 80, "duration": 6, "velocity": 101}, {"time": 2715, "pitch": 82, "duration": 6, "velocity": 97}, {"time": 2721, "pitch": 84, "duration": 6, "velocity": 103}, {"time": 2727, "pitch": 84, "duration": 3, "velocity": 106}, {"time": 2730, "pitch": 84, "duration": 3, "velocity": 99}, {"time": 2733, "pitch": 84, "duration": 6, "velocity": 97}, {"time": 2739, "pitch": 84, "duration": 3, "velocity": 91}, {"time": 2742, "pitch": 84, "duration": 3, "velocity": 80}, {"time": 2745, "pitch": 85, "duration": 6, "velocity": 97}, {"time": 2751, "pitch": 84, "duration": 3, "velocity": 95}, {"time": 2754, "pitch": 84, "duration": 6, "velocity": 97}, {"time": 2760, "pitch": 84, "duration": 9, "velocity": 97}, {"time": 2769, "pitch": 82, "duration": 3, "velocity": 101}, {"time": 2772, "pitch": 80, "duration": 9, "velocity": 88}, {"time": 2781, "pitch": 80, "duration": 6, "velocity": 99}, {"time": 2787, "pitch": 82, "duration": 3, "velocity": 99}, {"time": 2790, "pitch": 82, "duration": 21, "velocity": 97}, {"time": 2811, "pitch": 75, "duration": 3, "velocity": 99}, {"time": 2814, "pitch": 75, "duration": 3, "velocity": 97}, {"time": 2817, "pitch": 77, "duration": 6, "velocity": 95}, {"time": 2823, "pitch": 80, "duration": 3, "velocity": 101}, {"time": 2826, "pitch": 80, "duration": 3, "velocity": 60}, {"time": 2829, "pitch": 80, "duration": 6, "velocity": 82}, {"time": 2835, "pitch": 77, "duration": 3, "velocity": 85}, {"time": 2838, "pitch": 75, "duration": 2, "velocity": 97}, {"time": 2841, "pitch": 75, "duration": 3, "velocity": 85}, {"time": 2844, "pitch": 84, "duration": 6, "velocity": 88}, {"time": 2850, "pitch": 84, "duration": 3, "velocity": 85}, {"time": 2853, "pitch": 84, "duration": 6, "velocity": 97}, {"time": 2859, "pitch": 82, "duration": 3, "velocity": 97}, {"time": 2862, "pitch": 80, "duration": 9, "velocity": 97}, {"time": 2871, "pitch": 77, "duration": 6, "velocity": 99}, {"time": 2877, "pitch": 80, "duration": 30, "velocity": 82}, {"time": 2907, "pitch": 75, "duration": 3, "velocity": 80}, {"time": 2910, "pitch": 75, "duration": 3, "velocity": 91}, {"time": 2913, "pitch": 77, "duration": 3, "velocity": 78}, {"time": 2916, "pitch": 80, "duration": 6, "velocity": 82}, {"time": 2922, "pitch": 80, "duration": 3, "velocity": 67}, {"time": 2925, "pitch": 80, "duration": 6, "velocity": 82}, {"time": 2931, "pitch": 77, "duration": 3, "velocity": 69}, {"time": 2934, "pitch": 75, "duration": 8, "velocity": 59}, {"time": 2942, "pitch": 75, "duration": 4, "velocity": 63}, {"time": 2946, "pitch": 84, "duration": 5, "velocity": 78}, {"time": 2951, "pitch": 87, "duration": 6, "velocity": 89}, {"time": 2957, "pitch": 84, "duration": 4, "velocity": 74}, {"time": 2961, "pitch": 82, "duration": 7, "velocity": 71}, {"time": 2968, "pitch": 80, "duration": 5, "velocity": 72}, {"time": 2973, "pitch": 77, "duration": 24, "velocity": 75}, {"time": 2997, "pitch": 80, "duration": 5, "velocity": 90}, {"time": 3002, "pitch": 82, "duration": 12, "velocity": 88}, {"time": 3014, "pitch": 80, "duration": 45, "velocity": 87}], "annotations": [{"time": 225, "annotation": {"number": 64, "value": 127}, "group": "control_change"}, {"time": 247, "annotation": {"number": 64, "value": 0}, "group": "control_change"}, {"time": 249, "annotation": {"number": 64, "value": 127}, "group": "control_change"}, {"time": 272, "annotation": {"number": 64, "value": 0}, "group": "control_change"}, {"time": 274, "annotation": {"number": 64, "value": 127}, "group": "control_change"}, {"time": 294, "annotation": {"number": 64, "value": 0}, "group": "control_change"}, {"time": 298, "annotation": {"number": 64, "value": 127}, "group": "control_change"}, {"time": 321, "annotation": {"number": 64, "value": 0}, "group": "control_change"}, {"time": 324, "annotation": {"number": 64, "value": 127}, "group": "control_change"}, {"time": 343, "annotation": {"number": 64, "value": 0}, "group": "control_change"}, {"time": 346, "annotation": {"number": 64, "value": 127}, "group": "control_change"}, {"time": 368, "annotation": {"number": 64, "value": 0}, "group": "control_change"}, {"time": 370, "annotation": {"number": 64, "value": 127}, "group": "control_change"}, {"time": 390, "annotation": {"number": 64, "value": 0}, "group": "control_change"}, {"time": 392, "annotation": {"number": 64, "value": 127}, "group": "control_change"}, {"time": 414, "annotation": {"number": 64, "value": 0}, "group": "control_change"}, {"time": 416, "annotation": {"number": 64, "value": 127}, "group": "control_change"}, {"time": 440, "annotation": {"number": 64, "value": 0}, "group": "control_change"}, {"time": 442, "annotation": {"number": 64, "value": 127}, "group": "control_change"}, {"time": 465, "annotation": {"number": 64, "value": 0}, "group": "control_change"}, {"time": 469, "annotation": {"number": 64, "value": 127}, "group": "control_change"}, {"time": 489, "annotation": {"number": 64, "value": 0}, "group": "control_change"}, {"time": 492, "annotation": {"number": 64, "value": 127}, "group": "control_change"}, {"time": 514, "annotation": {"number": 64, "value": 0}, "group": "control_change"}, {"time": 517, "annotation": {"number": 64, "value": 127}, "group": "control_change"}, {"time": 560, "annotation": {"number": 64, "value": 0}, "group": "control_change"}, {"time": 564, "annotation": {"number": 64, "value": 127}, "group": "control_change"}, {"time": 584, "annotation": {"number": 64, "value": 0}, "group": "control_change"}, {"time": 588, "annotation": {"number": 64, "value": 127}, "group": "control_change"}, {"time": 594, "annotation": {"number": 64, "value": 0}, "group": "control_change"}, {"time": 597, "annotation": {"number": 64, "value": 127}, "group": "control_change"}, {"time": 608, "annotation": {"number": 64, "value": 0}, "group": "control_change"}, {"time": 612, "annotation": {"number": 64, "value": 127}, "group": "control_change"}, {"time": 632, "annotation": {"number": 64, "value": 0}, "group": "control_change"}, {"time": 636, "annotation": {"number": 64, "value": 127}, "group": "control_change"}, {"time": 656, "annotation": {"number": 64, "value": 0}, "group": "control_change"}, {"time": 660, "annotation": {"number": 64, "value": 127}, "group": "control_change"}, {"time": 679, "annotation": {"number": 64, "value": 0}, "group": "control_change"}, {"time": 683, "annotation": {"number": 64, "value": 127}, "group": "control_change"}, {"time": 704, "annotation": {"number": 64, "value": 0}, "group": "control_change"}, {"time": 708, "annotation": {"number": 64, "value": 127}, "group": "control_change"}, {"time": 728, "annotation": {"number": 64, "value": 0}, "group": "control_change"}, {"time": 732, "annotation": {"number": 64, "value": 127}, "group": "control_change"}, {"time": 751, "annotation": {"number": 64, "value": 0}, "group": "control_change"}, {"time": 755, "annotation": {"number": 64, "value": 127}, "group": "control_change"}, {"time": 776, "annotation": {"number": 64, "value": 0}, "group": "control_change"}, {"time": 779, "annotation": {"number": 64, "value": 127}, "group": "control_change"}, {"time": 801, "annotation": {"number": 64, "value": 0}, "group": "control_change"}, {"time": 804, "annotation": {"number": 64, "value": 127}, "group": "control_change"}, {"time": 824, "annotation": {"number": 64, "value": 0}, "group": "control_change"}, {"time": 827, "annotation": {"number": 64, "value": 127}, "group": "control_change"}, {"time": 849, "annotation": {"number": 64, "value": 0}, "group": "control_change"}, {"time": 852, "annotation": {"number": 64, "value": 127}, "group": "control_change"}, {"time": 873, "annotation": {"number": 64, "value": 0}, "group": "control_change"}, {"time": 876, "annotation": {"number": 64, "value": 127}, "group": "control_change"}, {"time": 896, "annotation": {"number": 64, "value": 0}, "group": "control_change"}, {"time": 900, "annotation": {"number": 64, "value": 127}, "group": "control_change"}, {"time": 920, "annotation": {"number": 64, "value": 0}, "group": "control_change"}, {"time": 923, "annotation": {"number": 64, "value": 127}, "group": "control_change"}, {"time": 944, "annotation": {"number": 64, "value": 0}, "group": "control_change"}, {"time": 948, "annotation": {"number": 64, "value": 127}, "group": "control_change"}, {"time": 969, "annotation": {"number": 64, "value": 0}, "group": "control_change"}, {"time": 973, "annotation": {"number": 64, "value": 127}, "group": "control_change"}, {"time": 991, "annotation": {"number": 64, "value": 0}, "group": "control_change"}, {"time": 994, "annotation": {"number": 64, "value": 127}, "group": "control_change"}, {"time": 1016, "annotation": {"number": 64, "value": 0}, "group": "control_change"}, {"time": 1019, "annotation": {"number": 64, "value": 127}, "group": "control_change"}, {"time": 1039, "annotation": {"number": 64, "value": 0}, "group": "control_change"}, {"time": 1042, "annotation": {"number": 64, "value": 127}, "group": "control_change"}, {"time": 1063, "annotation": {"number": 64, "value": 0}, "group": "control_change"}, {"time": 1067, "annotation": {"number": 64, "value": 127}, "group": "control_change"}, {"time": 1089, "annotation": {"number": 64, "value": 0}, "group": "control_change"}, {"time": 1093, "annotation": {"number": 64, "value": 127}, "group": "control_change"}, {"time": 1113, "annotation": {"number": 64, "value": 0}, "group": "control_change"}, {"time": 1117, "annotation": {"number": 64, "value": 127}, "group": "control_change"}, {"time": 1136, "annotation": {"number": 64, "value": 0}, "group": "control_change"}, {"time": 1139, "annotation": {"number": 64, "value": 127}, "group": "control_change"}, {"time": 1159, "annotation": {"number": 64, "value": 0}, "group": "control_change"}, {"time": 1162, "annotation": {"number": 64, "value": 127}, "group": "control_change"}, {"time": 1184, "annotation": {"number": 64, "value": 0}, "group": "control_change"}, {"time": 1188, "annotation": {"number": 64, "value": 127}, "group": "control_change"}, {"time": 1207, "annotation": {"number": 64, "value": 0}, "group": "control_change"}, {"time": 1211, "annotation": {"number": 64, "value": 127}, "group": "control_change"}, {"time": 1233, "annotation": {"number": 64, "value": 0}, "group": "control_change"}, {"time": 1235, "annotation": {"number": 64, "value": 127}, "group": "control_change"}, {"time": 1255, "annotation": {"number": 64, "value": 0}, "group": "control_change"}, {"time": 1258, "annotation": {"number": 64, "value": 127}, "group": "control_change"}, {"time": 1279, "annotation": {"number": 64, "value": 0}, "group": "control_change"}, {"time": 1286, "annotation": {"number": 64, "value": 127}, "group": "control_change"}, {"time": 1303, "annotation": {"number": 64, "value": 0}, "group": "control_change"}, {"time": 1309, "annotation": {"number": 64, "value": 127}, "group": "control_change"}, {"time": 1329, "annotation": {"number": 64, "value": 0}, "group": "control_change"}, {"time": 1332, "annotation": {"number": 64, "value": 127}, "group": "control_change"}, {"time": 1352, "annotation": {"number": 64, "value": 0}, "group": "control_change"}, {"time": 1356, "annotation": {"number": 64, "value": 127}, "group": "control_change"}, {"time": 1377, "annotation": {"number": 64, "value": 0}, "group": "control_change"}, {"time": 1380, "annotation": {"number": 64, "value": 127}, "group": "control_change"}, {"time": 1400, "annotation": {"number": 64, "value": 0}, "group": "control_change"}, {"time": 1403, "annotation": {"number": 64, "value": 127}, "group": "control_change"}, {"time": 1425, "annotation": {"number": 64, "value": 0}, "group": "control_change"}, {"time": 1428, "annotation": {"number": 64, "value": 127}, "group": "control_change"}, {"time": 1447, "annotation": {"number": 64, "value": 0}, "group": "control_change"}, {"time": 1451, "annotation": {"number": 64, "value": 127}, "group": "control_change"}, {"time": 1474, "annotation": {"number": 64, "value": 0}, "group": "control_change"}, {"time": 1477, "annotation": {"number": 64, "value": 127}, "group": "control_change"}, {"time": 1497, "annotation": {"number": 64, "value": 0}, "group": "control_change"}, {"time": 1500, "annotation": {"number": 64, "value": 127}, "group": "control_change"}, {"time": 1520, "annotation": {"number": 64, "value": 0}, "group": "control_change"}, {"time": 1524, "annotation": {"number": 64, "value": 127}, "group": "control_change"}, {"time": 1545, "annotation": {"number": 64, "value": 0}, "group": "control_change"}, {"time": 1548, "annotation": {"number": 64, "value": 127}, "group": "control_change"}, {"time": 1569, "annotation": {"number": 64, "value": 0}, "group": "control_change"}, {"time": 1571, "annotation": {"number": 64, "value": 127}, "group": "control_change"}, {"time": 1593, "annotation": {"number": 64, "value": 0}, "group": "control_change"}, {"time": 1596, "annotation": {"number": 64, "value": 127}, "group": "control_change"}, {"time": 1617, "annotation": {"number": 64, "value": 0}, "group": "control_change"}, {"time": 1619, "annotation": {"number": 64, "value": 127}, "group": "control_change"}, {"time": 1640, "annotation": {"number": 64, "value": 0}, "group": "control_change"}, {"time": 1643, "annotation": {"number": 64, "value": 127}, "group": "control_change"}, {"time": 1665, "annotation": {"number": 64, "value": 0}, "group": "control_change"}, {"time": 1671, "annotation": {"number": 64, "value": 127}, "group": "control_change"}, {"time": 1689, "annotation": {"number": 64, "value": 0}, "group": "control_change"}, {"time": 1692, "annotation": {"number": 64, "value": 127}, "group": "control_change"}, {"time": 1714, "annotation": {"number": 64, "value": 0}, "group": "control_change"}, {"time": 1718, "annotation": {"number": 64, "value": 127}, "group": "control_change"}, {"time": 1736, "annotation": {"number": 64, "value": 0}, "group": "control_change"}, {"time": 1739, "annotation": {"number": 64, "value": 127}, "group": "control_change"}, {"time": 1760, "annotation": {"number": 64, "value": 0}, "group": "control_change"}, {"time": 1764, "annotation": {"number": 64, "value": 127}, "group": "control_change"}, {"time": 1785, "annotation": {"number": 64, "value": 0}, "group": "control_change"}, {"time": 1788, "annotation": {"number": 64, "value": 127}, "group": "control_change"}, {"time": 1810, "annotation": {"number": 64, "value": 0}, "group": "control_change"}, {"time": 1814, "annotation": {"number": 64, "value": 127}, "group": "control_change"}, {"time": 1828, "annotation": {"number": 64, "value": 0}, "group": "control_change"}, {"time": 1834, "annotation": {"number": 64, "value": 127}, "group": "control_change"}, {"time": 1857, "annotation": {"number": 64, "value": 0}, "group": "control_change"}, {"time": 1861, "annotation": {"number": 64, "value": 127}, "group": "control_change"}, {"time": 1881, "annotation": {"number": 64, "value": 0}, "group": "control_change"}, {"time": 1885, "annotation": {"number": 64, "value": 127}, "group": "control_change"}, {"time": 1905, "annotation": {"number": 64, "value": 0}, "group": "control_change"}, {"time": 1909, "annotation": {"number": 64, "value": 127}, "group": "control_change"}, {"time": 1926, "annotation": {"number": 64, "value": 0}, "group": "control_change"}, {"time": 1933, "annotation": {"number": 64, "value": 127}, "group": "control_change"}, {"time": 1945, "annotation": {"number": 64, "value": 0}, "group": "control_change"}, {"time": 1956, "annotation": {"number": 64, "value": 127}, "group": "control_change"}, {"time": 1976, "annotation": {"number": 64, "value": 0}, "group": "control_change"}, {"time": 1981, "annotation": {"number": 64, "value": 127}, "group": "control_change"}, {"time": 2000, "annotation": {"number": 64, "value": 0}, "group": "control_change"}, {"time": 2003, "annotation": {"number": 64, "value": 127}, "group": "control_change"}, {"time": 2024, "annotation": {"number": 64, "value": 0}, "group": "control_change"}, {"time": 2028, "annotation": {"number": 64, "value": 127}, "group": "control_change"}, {"time": 2049, "annotation": {"number": 64, "value": 0}, "group": "control_change"}, {"time": 2052, "annotation": {"number": 64, "value": 127}, "group": "control_change"}, {"time": 2072, "annotation": {"number": 64, "value": 0}, "group": "control_change"}, {"time": 2076, "annotation": {"number": 64, "value": 127}, "group": "control_change"}, {"time": 2094, "annotation": {"number": 64, "value": 0}, "group": "control_change"}, {"time": 2099, "annotation": {"number": 64, "value": 127}, "group": "control_change"}, {"time": 2120, "annotation": {"number": 64, "value": 0}, "group": "control_change"}, {"time": 2123, "annotation": {"number": 64, "value": 127}, "group": "control_change"}, {"time": 2144, "annotation": {"number": 64, "value": 0}, "group": "control_change"}, {"time": 2147, "annotation": {"number": 64, "value": 127}, "group": "control_change"}, {"time": 2167, "annotation": {"number": 64, "value": 0}, "group": "control_change"}, {"time": 2170, "annotation": {"number": 64, "value": 127}, "group": "control_change"}, {"time": 2192, "annotation": {"number": 64, "value": 0}, "group": "control_change"}, {"time": 2194, "annotation": {"number": 64, "value": 127}, "group": "control_change"}, {"time": 2216, "annotation": {"number": 64, "value": 0}, "group": "control_change"}, {"time": 2219, "annotation": {"number": 64, "value": 127}, "group": "control_change"}, {"time": 2240, "annotation": {"number": 64, "value": 0}, "group": "control_change"}, {"time": 2242, "annotation": {"number": 64, "value": 127}, "group": "control_change"}, {"time": 2264, "annotation": {"number": 64, "value": 0}, "group": "control_change"}, {"time": 2266, "annotation": {"number": 64, "value": 127}, "group": "control_change"}, {"time": 2288, "annotation": {"number": 64, "value": 0}, "group": "control_change"}, {"time": 2291, "annotation": {"number": 64, "value": 127}, "group": "control_change"}, {"time": 2311, "annotation": {"number": 64, "value": 0}, "group": "control_change"}, {"time": 2316, "annotation": {"number": 64, "value": 127}, "group": "control_change"}, {"time": 2335, "annotation": {"number": 64, "value": 0}, "group": "control_change"}, {"time": 2339, "annotation": {"number": 64, "value": 127}, "group": "control_change"}, {"time": 2360, "annotation": {"number": 64, "value": 0}, "group": "control_change"}, {"time": 2364, "annotation": {"number": 64, "value": 127}, "group": "control_change"}, {"time": 2371, "annotation": {"number": 64, "value": 0}, "group": "control_change"}, {"time": 2371, "annotation": {"number": 64, "value": 127}, "group": "control_change"}, {"time": 2384, "annotation": {"number": 64, "value": 0}, "group": "control_change"}, {"time": 2392, "annotation": {"number": 64, "value": 127}, "group": "control_change"}, {"time": 2406, "annotation": {"number": 64, "value": 0}, "group": "control_change"}, {"time": 2412, "annotation": {"number": 64, "value": 127}, "group": "control_change"}, {"time": 2432, "annotation": {"number": 64, "value": 0}, "group": "control_change"}, {"time": 2436, "annotation": {"number": 64, "value": 127}, "group": "control_change"}, {"time": 2457, "annotation": {"number": 64, "value": 0}, "group": "control_change"}, {"time": 2460, "annotation": {"number": 64, "value": 127}, "group": "control_change"}, {"time": 2481, "annotation": {"number": 64, "value": 0}, "group": "control_change"}, {"time": 2484, "annotation": {"number": 64, "value": 127}, "group": "control_change"}, {"time": 2505, "annotation": {"number": 64, "value": 0}, "group": "control_change"}, {"time": 2507, "annotation": {"number": 64, "value": 127}, "group": "control_change"}, {"time": 2517, "annotation": {"number": 64, "value": 0}, "group": "control_change"}, {"time": 2519, "annotation": {"number": 64, "value": 127}, "group": "control_change"}, {"time": 2529, "annotation": {"number": 64, "value": 0}, "group": "control_change"}, {"time": 2532, "annotation": {"number": 64, "value": 127}, "group": "control_change"}, {"time": 2551, "annotation": {"number": 64, "value": 0}, "group": "control_change"}, {"time": 2555, "annotation": {"number": 64, "value": 127}, "group": "control_change"}, {"time": 2575, "annotation": {"number": 64, "value": 0}, "group": "control_change"}, {"time": 2578, "annotation": {"number": 64, "value": 127}, "group": "control_change"}, {"time": 2599, "annotation": {"number": 64, "value": 0}, "group": "control_change"}, {"time": 2602, "annotation": {"number": 64, "value": 127}, "group": "control_change"}, {"time": 2624, "annotation": {"number": 64, "value": 0}, "group": "control_change"}, {"time": 2630, "annotation": {"number": 64, "value": 127}, "group": "control_change"}, {"time": 2647, "annotation": {"number": 64, "value": 0}, "group": "control_change"}, {"time": 2659, "annotation": {"number": 64, "value": 127}, "group": "control_change"}, {"time": 2673, "annotation": {"number": 64, "value": 0}, "group": "control_change"}, {"time": 2678, "annotation": {"number": 64, "value": 127}, "group": "control_change"}, {"time": 2698, "annotation": {"number": 64, "value": 0}, "group": "control_change"}, {"time": 2701, "annotation": {"number": 64, "value": 127}, "group": "control_change"}, {"time": 2721, "annotation": {"number": 64, "value": 0}, "group": "control_change"}, {"time": 2724, "annotation": {"number": 64, "value": 127}, "group": "control_change"}, {"time": 2745, "annotation": {"number": 64, "value": 0}, "group": "control_change"}, {"time": 2748, "annotation": {"number": 64, "value": 127}, "group": "control_change"}, {"time": 2766, "annotation": {"number": 64, "value": 0}, "group": "control_change"}, {"time": 2772, "annotation": {"number": 64, "value": 127}, "group": "control_change"}, {"time": 2791, "annotation": {"number": 64, "value": 0}, "group": "control_change"}, {"time": 2795, "annotation": {"number": 64, "value": 127}, "group": "control_change"}, {"time": 2812, "annotation": {"number": 64, "value": 0}, "group": "control_change"}, {"time": 2822, "annotation": {"number": 64, "value": 127}, "group": "control_change"}, {"time": 2840, "annotation": {"number": 64, "value": 0}, "group": "control_change"}, {"time": 2845, "annotation": {"number": 64, "value": 127}, "group": "control_change"}, {"time": 2864, "annotation": {"number": 64, "value": 0}, "group": "control_change"}, {"time": 2869, "annotation": {"number": 64, "value": 127}, "group": "control_change"}, {"time": 2889, "annotation": {"number": 64, "value": 0}, "group": "control_change"}, {"time": 2891, "annotation": {"number": 64, "value": 127}, "group": "control_change"}, {"time": 2913, "annotation": {"number": 64, "value": 0}, "group": "control_change"}, {"time": 2916, "annotation": {"number": 64, "value": 127}, "group": "control_change"}, {"time": 2935, "annotation": {"number": 64, "value": 0}, "group": "control_change"}, {"time": 2940, "annotation": {"number": 64, "value": 127}, "group": "control_change"}, {"time": 2965, "annotation": {"number": 64, "value": 0}, "group": "control_change"}, {"time": 2968, "annotation": {"number": 64, "value": 127}, "group": "control_change"}, {"time": 2986, "annotation": {"number": 64, "value": 0}, "group": "control_change"}, {"time": 2989, "annotation": {"number": 64, "value": 127}, "group": "control_change"}]}, {"program": 0, "is_drum": false, "name": "BRIDGE", "notes": [{"time": 27, "pitch": 64, "duration": 4, "velocity": 67}, {"time": 30, "pitch": 66, "duration": 3, "velocity": 76}, {"time": 33, "pitch": 67, "duration": 10, "velocity": 91}, {"time": 45, "pitch": 79, "duration": 8, "velocity": 80}, {"time": 54, "pitch": 78, "duration": 2, "velocity": 76}, {"time": 57, "pitch": 78, "duration": 8, "velocity": 85}, {"time": 63, "pitch": 74, "duration": 2, "velocity": 73}, {"time": 66, "pitch": 74, "duration": 4, "velocity": 72}, {"time": 72, "pitch": 71, "duration": 4, "velocity": 72}, {"time": 78, "pitch": 74, "duration": 1, "velocity": 58}, {"time": 78, "pitch": 76, "duration": 14, "velocity": 67}, {"time": 96, "pitch": 79, "duration": 2, "velocity": 78}, {"time": 99, "pitch": 76, "duration": 3, "velocity": 73}, {"time": 102, "pitch": 74, "duration": 16, "velocity": 85}, {"time": 123, "pitch": 69, "duration": 2, "velocity": 69}, {"time": 126, "pitch": 71, "duration": 3, "velocity": 69}, {"time": 129, "pitch": 72, "duration": 2, "velocity": 78}, {"time": 132, "pitch": 71, "duration": 2, "velocity": 75}, {"time": 135, "pitch": 72, "duration": 3, "velocity": 75}, {"time": 138, "pitch": 79, "duration": 6, "velocity": 72}, {"time": 144, "pitch": 79, "duration": 1, "velocity": 91}, {"time": 159, "pitch": 72, "duration": 3, "velocity": 91}, {"time": 162, "pitch": 71, "duration": 8, "velocity": 73}, {"time": 171, "pitch": 67, "duration": 3, "velocity": 95}, {"time": 174, "pitch": 71, "duration": 12, "velocity": 80}, {"time": 183, "pitch": 69, "duration": 12, "velocity": 80}, {"time": 186, "pitch": 69, "duration": 9, "velocity": 80}, {"time": 201, "pitch": 69, "duration": 1, "velocity": 85}, {"time": 202, "pitch": 71, "duration": 5, "velocity": 67}, {"time": 207, "pitch": 74, "duration": 3, "velocity": 76}, {"time": 210, "pitch": 69, "duration": 4, "velocity": 76}, {"time": 210, "pitch": 69, "duration": 4, "velocity": 80}, {"time": 216, "pitch": 67, "duration": 2, "velocity": 85}, {"time": 219, "pitch": 64, "duration": 3, "velocity": 85}, {"time": 222, "pitch": 67, "duration": 1, "velocity": 52}, {"time": 223, "pitch": 69, "duration": 6, "velocity": 69}, {"time": 228, "pitch": 67, "duration": 2, "velocity": 75}, {"time": 231, "pitch": 67, "duration": 13, "velocity": 73}, {"time": 2130, "pitch": 74, "duration": 1, "velocity": 101}, {"time": 2133, "pitch": 74, "duration": 4, "velocity": 88}, {"time": 2136, "pitch": 76, "duration": 2, "velocity": 93}, {"time": 2139, "pitch": 79, "duration": 2, "velocity": 97}, {"time": 2142, "pitch": 81, "duration": 3, "velocity": 95}, {"time": 2145, "pitch": 83, "duration": 14, "velocity": 82}, {"time": 2163, "pitch": 81, "duration": 2, "velocity": 85}, {"time": 2166, "pitch": 79, "duration": 3, "velocity": 91}, {"time": 2169, "pitch": 78, "duration": 5, "velocity": 93}, {"time": 2184, "pitch": 74, "duration": 2, "velocity": 85}, {"time": 2187, "pitch": 71, "duration": 2, "velocity": 91}, {"time": 2190, "pitch": 76, "duration": 15, "velocity": 82}, {"time": 2208, "pitch": 79, "duration": 2, "velocity": 72}, {"time": 2211, "pitch": 76, "duration": 2, "velocity": 64}, {"time": 2214, "pitch": 74, "duration": 11, "velocity": 95}, {"time": 2235, "pitch": 69, "duration": 3, "velocity": 91}, {"time": 2235, "pitch": 81, "duration": 3, "velocity": 91}, {"time": 2238, "pitch": 71, "duration": 3, "velocity": 78}, {"time": 2238, "pitch": 83, "duration": 3, "velocity": 78}, {"time": 2241, "pitch": 72, "duration": 5, "velocity": 93}, {"time": 2241, "pitch": 84, "duration": 5, "velocity": 93}, {"time": 2247, "pitch": 71, "duration": 2, "velocity": 85}, {"time": 2247, "pitch": 83, "duration": 2, "velocity": 85}, {"time": 2250, "pitch": 72, "duration": 6, "velocity": 73}, {"time": 2250, "pitch": 84, "duration": 6, "velocity": 73}, {"time": 2256, "pitch": 74, "duration": 4, "velocity": 80}, {"time": 2256, "pitch": 86, "duration": 4, "velocity": 80}, {"time": 2262, "pitch": 76, "duration": 9, "velocity": 78}, {"time": 2262, "pitch": 88, "duration": 9, "velocity": 78}, {"time": 2271, "pitch": 78, "duration": 3, "velocity": 101}, {"time": 2271, "pitch": 90, "duration": 3, "velocity": 101}, {"time": 2274, "pitch": 79, "duration": 6, "velocity": 97}, {"time": 2274, "pitch": 91, "duration": 6, "velocity": 97}, {"time": 2283, "pitch": 81, "duration": 3, "velocity": 76}, {"time": 2283, "pitch": 93, "duration": 3, "velocity": 76}, {"time": 2286, "pitch": 76, "duration": 10, "velocity": 72}, {"time": 2286, "pitch": 88, "duration": 10, "velocity": 72}, {"time": 2298, "pitch": 74, "duration": 1, "velocity": 66}, {"time": 2298, "pitch": 86, "duration": 1, "velocity": 66}, {"time": 2299, "pitch": 71, "duration": 2, "velocity": 80}, {"time": 2299, "pitch": 83, "duration": 2, "velocity": 80}, {"time": 2301, "pitch": 74, "duration": 9, "velocity": 95}, {"time": 2301, "pitch": 86, "duration": 9, "velocity": 95}, {"time": 2313, "pitch": 69, "duration": 1, "velocity": 72}, {"time": 2313, "pitch": 81, "duration": 1, "velocity": 72}, {"time": 2314, "pitch": 71, "duration": 4, "velocity": 59}, {"time": 2314, "pitch": 83, "duration": 4, "velocity": 59}, {"time": 2319, "pitch": 74, "duration": 2, "velocity": 75}, {"time": 2319, "pitch": 86, "duration": 2, "velocity": 75}, {"time": 2322, "pitch": 69, "duration": 5, "velocity": 97}, {"time": 2322, "pitch": 81, "duration": 5, "velocity": 97}, {"time": 2328, "pitch": 67, "duration": 3, "velocity": 70}, {"time": 2328, "pitch": 79, "duration": 3, "velocity": 70}, {"time": 2331, "pitch": 64, "duration": 2, "velocity": 85}, {"time": 2331, "pitch": 76, "duration": 2, "velocity": 85}, {"time": 2334, "pitch": 67, "duration": 12, "velocity": 80}, {"time": 2334, "pitch": 79, "duration": 12, "velocity": 80}], "annotations": [{"time": 12, "annotation": {"number": 64, "value": 127}, "group": "control_change"}, {"time": 37, "annotation": {"number": 64, "value": 127}, "group": "control_change"}, {"time": 41, "annotation": {"number": 64, "value": 127}, "group": "control_change"}, {"time": 56, "annotation": {"number": 64, "value": 0}, "group": "control_change"}, {"time": 79, "annotation": {"number": 64, "value": 0}, "group": "control_change"}, {"time": 82, "annotation": {"number": 64, "value": 127}, "group": "control_change"}, {"time": 101, "annotation": {"number": 64, "value": 0}, "group": "control_change"}, {"time": 104, "annotation": {"number": 64, "value": 127}, "group": "control_change"}, {"time": 123, "annotation": {"number": 64, "value": 127}, "group": "control_change"}, {"time": 123, "annotation": {"number": 64, "value": 0}, "group": "control_change"}, {"time": 150, "annotation": {"number": 64, "value": 127}, "group": "control_change"}, {"time": 165, "annotation": {"number": 64, "value": 0}, "group": "control_change"}, {"time": 169, "annotation": {"number": 64, "value": 127}, "group": "control_change"}, {"time": 174, "annotation": {"number": 64, "value": 0}, "group": "control_change"}, {"time": 176, "annotation": {"number": 64, "value": 127}, "group": "control_change"}, {"time": 186, "annotation": {"number": 64, "value": 0}, "group": "control_change"}, {"time": 2130, "annotation": {"number": 64, "value": 127}, "group": "control_change"}, {"time": 2163, "annotation": {"number": 64, "value": 127}, "group": "control_change"}, {"time": 2166, "annotation": {"number": 64, "value": 0}, "group": "control_change"}, {"time": 2169, "annotation": {"number": 64, "value": 127}, "group": "control_change"}, {"time": 2177, "annotation": {"number": 64, "value": 0}, "group": "control_change"}, {"time": 2182, "annotation": {"number": 64, "value": 127}, "group": "control_change"}, {"time": 2184, "annotation": {"number": 64, "value": 0}, "group": "control_change"}, {"time": 2215, "annotation": {"number": 64, "value": 0}, "group": "control_change"}, {"time": 2218, "annotation": {"number": 64, "value": 127}, "group": "control_change"}, {"time": 2242, "annotation": {"number": 64, "value": 127}, "group": "control_change"}, {"time": 2247, "annotation": {"number": 64, "value": 0}, "group": "control_change"}, {"time": 2271, "annotation": {"number": 64, "value": 127}, "group": "control_change"}, {"time": 2284, "annotation": {"number": 64, "value": 0}, "group": "control_change"}, {"time": 2325, "annotation": {"number": 64, "value": 0}, "group": "control_change"}]}, {"program": 0, "is_drum": false, "name": "PIANO", "notes": [{"time": 33, "pitch": 40, "duration": 3, "velocity": 67}, {"time": 33, "pitch": 62, "duration": 8, "velocity": 63}, {"time": 33, "pitch": 67, "duration": 9, "velocity": 69}, {"time": 33, "pitch": 71, "duration": 9, "velocity": 67}, {"time": 36, "pitch": 52, "duration": 3, "velocity": 46}, {"time": 39, "pitch": 55, "duration": 10, "velocity": 51}, {"time": 42, "pitch": 59, "duration": 7, "velocity": 72}, {"time": 48, "pitch": 62, "duration": 6, "velocity": 75}, {"time": 57, "pitch": 38, "duration": 17, "velocity": 63}, {"time": 57, "pitch": 50, "duration": 17, "velocity": 58}, {"time": 57, "pitch": 62, "duration": 4, "velocity": 62}, {"time": 57, "pitch": 66, "duration": 3, "velocity": 62}, {"time": 57, "pitch": 69, "duration": 3, "velocity": 72}, {"time": 66, "pitch": 57, "duration": 4, "velocity": 59}, {"time": 66, "pitch": 62, "duration": 1, "velocity": 55}, {"time": 66, "pitch": 66, "duration": 6, "velocity": 64}, {"time": 72, "pitch": 67, "duration": 1, "velocity": 67}, {"time": 81, "pitch": 36, "duration": 14, "velocity": 57}, {"time": 81, "pitch": 48, "duration": 5, "velocity": 49}, {"time": 81, "pitch": 55, "duration": 9, "velocity": 58}, {"time": 81, "pitch": 60, "duration": 7, "velocity": 67}, {"time": 81, "pitch": 64, "duration": 7, "velocity": 63}, {"time": 81, "pitch": 67, "duration": 13, "velocity": 44}, {"time": 90, "pitch": 48, "duration": 7, "velocity": 43}, {"time": 96, "pitch": 55, "duration": 2, "velocity": 75}, {"time": 105, "pitch": 47, "duration": 18, "velocity": 63}, {"time": 105, "pitch": 57, "duration": 4, "velocity": 67}, {"time": 105, "pitch": 62, "duration": 3, "velocity": 72}, {"time": 105, "pitch": 66, "duration": 3, "velocity": 75}, {"time": 114, "pitch": 57, "duration": 7, "velocity": 44}, {"time": 123, "pitch": 67, "duration": 4, "velocity": 75}, {"time": 129, "pitch": 45, "duration": 19, "velocity": 67}, {"time": 129, "pitch": 55, "duration": 2, "velocity": 66}, {"time": 129, "pitch": 60, "duration": 3, "velocity": 70}, {"time": 129, "pitch": 64, "duration": 4, "velocity": 66}, {"time": 129, "pitch": 67, "duration": 5, "velocity": 44}, {"time": 132, "pitch": 52, "duration": 19, "velocity": 56}, {"time": 135, "pitch": 57, "duration": 13, "velocity": 58}, {"time": 138, "pitch": 59, "duration": 5, "velocity": 48}, {"time": 144, "pitch": 60, "duration": 1, "velocity": 70}, {"time": 150, "pitch": 64, "duration": 2, "velocity": 54}, {"time": 153, "pitch": 45, "duration": 19, "velocity": 58}, {"time": 153, "pitch": 72, "duration": 3, "velocity": 72}, {"time": 156, "pitch": 52, "duration": 16, "velocity": 51}, {"time": 159, "pitch": 57, "duration": 11, "velocity": 47}, {"time": 162, "pitch": 64, "duration": 1, "velocity": 64}, {"time": 162, "pitch": 71, "duration": 1, "velocity": 63}, {"time": 168, "pitch": 62, "duration": 1, "velocity": 60}, {"time": 168, "pitch": 69, "duration": 1, "velocity": 47}, {"time": 177, "pitch": 42, "duration": 18, "velocity": 61}, {"time": 177, "pitch": 54, "duration": 17, "velocity": 67}, {"time": 177, "pitch": 57, "duration": 7, "velocity": 66}, {"time": 177, "pitch": 62, "duration": 7, "velocity": 67}, {"time": 177, "pitch": 66, "duration": 6, "velocity": 70}, {"time": 192, "pitch": 57, "duration": 2, "velocity": 40}, {"time": 195, "pitch": 62, "duration": 3, "velocity": 60}, {"time": 198, "pitch": 66, "duration": 1, "velocity": 57}, {"time": 201, "pitch": 40, "duration": 4, "velocity": 64}, {"time": 201, "pitch": 52, "duration": 5, "velocity": 55}, {"time": 201, "pitch": 59, "duration": 5, "velocity": 63}, {"time": 201, "pitch": 62, "duration": 5, "velocity": 67}, {"time": 201, "pitch": 67, "duration": 4, "velocity": 72}, {"time": 213, "pitch": 42, "duration": 6, "velocity": 60}, {"time": 213, "pitch": 54, "duration": 6, "velocity": 56}, {"time": 213, "pitch": 57, "duration": 6, "velocity": 62}, {"time": 213, "pitch": 62, "duration": 8, "velocity": 64}, {"time": 213, "pitch": 66, "duration": 6, "velocity": 61}, {"time": 225, "pitch": 43, "duration": 19, "velocity": 58}, {"time": 225, "pitch": 57, "duration": 9, "velocity": 66}, {"time": 225, "pitch": 59, "duration": 9, "velocity": 64}, {"time": 225, "pitch": 62, "duration": 9, "velocity": 62}, {"time": 225, "pitch": 67, "duration": 10, "velocity": 57}, {"time": 234, "pitch": 55, "duration": 8, "velocity": 40}, {"time": 237, "pitch": 57, "duration": 4, "velocity": 52}, {"time": 240, "pitch": 59, "duration": 2, "velocity": 64}, {"time": 243, "pitch": 62, "duration": 2, "velocity": 53}, {"time": 246, "pitch": 67, "duration": 8, "velocity": 56}, {"time": 249, "pitch": 43, "duration": 20, "velocity": 55}, {"time": 249, "pitch": 57, "duration": 6, "velocity": 48}, {"time": 249, "pitch": 59, "duration": 6, "velocity": 47}, {"time": 249, "pitch": 62, "duration": 6, "velocity": 62}, {"time": 252, "pitch": 50, "duration": 15, "velocity": 29}, {"time": 255, "pitch": 55, "duration": 9, "velocity": 47}, {"time": 258, "pitch": 57, "duration": 4, "velocity": 60}, {"time": 258, "pitch": 62, "duration": 5, "velocity": 67}, {"time": 264, "pitch": 59, "duration": 4, "velocity": 64}, {"time": 264, "pitch": 62, "duration": 4, "velocity": 67}, {"time": 267, "pitch": 55, "duration": 1, "velocity": 44}, {"time": 273, "pitch": 43, "duration": 19, "velocity": 63}, {"time": 273, "pitch": 55, "duration": 3, "velocity": 59}, {"time": 273, "pitch": 60, "duration": 6, "velocity": 70}, {"time": 273, "pitch": 64, "duration": 5, "velocity": 62}, {"time": 276, "pitch": 52, "duration": 17, "velocity": 57}, {"time": 279, "pitch": 55, "duration": 9, "velocity": 56}, {"time": 282, "pitch": 59, "duration": 5, "velocity": 60}, {"time": 288, "pitch": 60, "duration": 4, "velocity": 67}, {"time": 291, "pitch": 55, "duration": 2, "velocity": 44}, {"time": 294, "pitch": 60, "duration": 4, "velocity": 40}, {"time": 294, "pitch": 67, "duration": 8, "velocity": 61}, {"time": 300, "pitch": 38, "duration": 1, "velocity": 52}, {"time": 309, "pitch": 38, "duration": 5, "velocity": 47}, {"time": 309, "pitch": 50, "duration": 3, "velocity": 47}, {"time": 309, "pitch": 57, "duration": 6, "velocity": 54}, {"time": 309, "pitch": 62, "duration": 6, "velocity": 67}, {"time": 309, "pitch": 66, "duration": 5, "velocity": 75}, {"time": 315, "pitch": 50, "duration": 1, "velocity": 43}, {"time": 321, "pitch": 43, "duration": 20, "velocity": 59}, {"time": 321, "pitch": 57, "duration": 5, "velocity": 48}, {"time": 321, "pitch": 59, "duration": 5, "velocity": 53}, {"time": 321, "pitch": 62, "duration": 4, "velocity": 53}, {"time": 321, "pitch": 67, "duration": 5, "velocity": 54}, {"time": 324, "pitch": 50, "duration": 19, "velocity": 42}, {"time": 327, "pitch": 55, "duration": 10, "velocity": 49}, {"time": 330, "pitch": 57, "duration": 2, "velocity": 54}, {"time": 336, "pitch": 59, "duration": 1, "velocity": 66}, {"time": 339, "pitch": 55, "duration": 2, "velocity": 37}, {"time": 342, "pitch": 59, "duration": 2, "velocity": 49}, {"time": 345, "pitch": 43, "duration": 20, "velocity": 55}, {"time": 345, "pitch": 59, "duration": 1, "velocity": 43}, {"time": 345, "pitch": 67, "duration": 2, "velocity": 70}, {"time": 348, "pitch": 50, "duration": 16, "velocity": 59}, {"time": 351, "pitch": 55, "duration": 9, "velocity": 45}, {"time": 354, "pitch": 62, "duration": 1, "velocity": 49}, {"time": 354, "pitch": 71, "duration": 1, "velocity": 63}, {"time": 360, "pitch": 62, "duration": 1, "velocity": 60}, {"time": 360, "pitch": 69, "duration": 1, "velocity": 67}, {"time": 363, "pitch": 55, "duration": 1, "velocity": 40}, {"time": 369, "pitch": 43, "duration": 16, "velocity": 72}, {"time": 369, "pitch": 60, "duration": 3, "velocity": 69}, {"time": 369, "pitch": 64, "duration": 4, "velocity": 61}, {"time": 372, "pitch": 52, "duration": 13, "velocity": 54}, {"time": 375, "pitch": 55, "duration": 4, "velocity": 48}, {"time": 378, "pitch": 60, "duration": 4, "velocity": 63}, {"time": 384, "pitch": 60, "duration": 1, "velocity": 44}, {"time": 384, "pitch": 64, "duration": 2, "velocity": 60}, {"time": 393, "pitch": 38, "duration": 4, "velocity": 54}, {"time": 393, "pitch": 50, "duration": 5, "velocity": 47}, {"time": 393, "pitch": 62, "duration": 5, "velocity": 61}, {"time": 393, "pitch": 66, "duration": 5, "velocity": 72}, {"time": 393, "pitch": 69, "duration": 5, "velocity": 62}, {"time": 405, "pitch": 39, "duration": 6, "velocity": 59}, {"time": 405, "pitch": 51, "duration": 6, "velocity": 56}, {"time": 405, "pitch": 63, "duration": 6, "velocity": 66}, {"time": 405, "pitch": 66, "duration": 6, "velocity": 63}, {"time": 405, "pitch": 71, "duration": 6, "velocity": 47}, {"time": 417, "pitch": 40, "duration": 2, "velocity": 67}, {"time": 417, "pitch": 59, "duration": 6, "velocity": 60}, {"time": 417, "pitch": 64, "duration": 6, "velocity": 59}, {"time": 417, "pitch": 67, "duration": 6, "velocity": 57}, {"time": 420, "pitch": 52, "duration": 3, "velocity": 49}, {"time": 423, "pitch": 54, "duration": 12, "velocity": 55}, {"time": 426, "pitch": 59, "duration": 2, "velocity": 52}, {"time": 429, "pitch": 64, "duration": 4, "velocity": 72}, {"time": 432, "pitch": 66, "duration": 4, "velocity": 66}, {"time": 435, "pitch": 67, "duration": 5, "velocity": 61}, {"time": 441, "pitch": 50, "duration": 18, "velocity": 66}, {"time": 441, "pitch": 62, "duration": 3, "velocity": 66}, {"time": 441, "pitch": 66, "duration": 4, "velocity": 72}, {"time": 441, "pitch": 69, "duration": 3, "velocity": 66}, {"time": 444, "pitch": 57, "duration": 16, "velocity": 48}, {"time": 447, "pitch": 62, "duration": 4, "velocity": 45}, {"time": 450, "pitch": 66, "duration": 6, "velocity": 73}, {"time": 456, "pitch": 69, "duration": 6, "velocity": 75}, {"time": 465, "pitch": 48, "duration": 19, "velocity": 62}, {"time": 465, "pitch": 64, "duration": 5, "velocity": 72}, {"time": 465, "pitch": 67, "duration": 6, "velocity": 66}, {"time": 468, "pitch": 55, "duration": 18, "velocity": 48}, {"time": 471, "pitch": 60, "duration": 9, "velocity": 49}, {"time": 474, "pitch": 62, "duration": 5, "velocity": 63}, {"time": 480, "pitch": 64, "duration": 3, "velocity": 80}, {"time": 483, "pitch": 60, "duration": 1, "velocity": 39}, {"time": 489, "pitch": 47, "duration": 18, "velocity": 58}, {"time": 489, "pitch": 62, "duration": 4, "velocity": 56}, {"time": 489, "pitch": 66, "duration": 4, "velocity": 64}, {"time": 489, "pitch": 69, "duration": 4, "velocity": 46}, {"time": 492, "pitch": 59, "duration": 14, "velocity": 40}, {"time": 495, "pitch": 62, "duration": 4, "velocity": 46}, {"time": 498, "pitch": 69, "duration": 7, "velocity": 64}, {"time": 504, "pitch": 66, "duration": 1, "velocity": 58}, {"time": 513, "pitch": 45, "duration": 22, "velocity": 61}, {"time": 513, "pitch": 60, "duration": 6, "velocity": 60}, {"time": 513, "pitch": 64, "duration": 5, "velocity": 59}, {"time": 513, "pitch": 67, "duration": 6, "velocity": 54}, {"time": 516, "pitch": 52, "duration": 21, "velocity": 31}, {"time": 519, "pitch": 57, "duration": 10, "velocity": 47}, {"time": 522, "pitch": 59, "duration": 4, "velocity": 64}, {"time": 528, "pitch": 60, "duration": 5, "velocity": 70}, {"time": 528, "pitch": 64, "duration": 4, "velocity": 70}, {"time": 528, "pitch": 67, "duration": 1, "velocity": 47}, {"time": 534, "pitch": 57, "duration": 2, "velocity": 30}, {"time": 537, "pitch": 45, "duration": 18, "velocity": 54}, {"time": 540, "pitch": 52, "duration": 12, "velocity": 56}, {"time": 543, "pitch": 57, "duration": 10, "velocity": 46}, {"time": 546, "pitch": 59, "duration": 4, "velocity": 67}, {"time": 549, "pitch": 60, "duration": 2, "velocity": 72}, {"time": 552, "pitch": 59, "duration": 2, "velocity": 75}, {"time": 552, "pitch": 60, "duration": 3, "velocity": 69}, {"time": 552, "pitch": 64, "duration": 3, "velocity": 72}, {"time": 555, "pitch": 52, "duration": 1, "velocity": 51}, {"time": 558, "pitch": 62, "duration": 2, "velocity": 66}, {"time": 561, "pitch": 41, "duration": 19, "velocity": 62}, {"time": 561, "pitch": 53, "duration": 5, "velocity": 64}, {"time": 561, "pitch": 57, "duration": 9, "velocity": 63}, {"time": 561, "pitch": 60, "duration": 8, "velocity": 70}, {"time": 561, "pitch": 65, "duration": 9, "velocity": 69}, {"time": 570, "pitch": 53, "duration": 5, "velocity": 36}, {"time": 573, "pitch": 57, "duration": 7, "velocity": 70}, {"time": 573, "pitch": 60, "duration": 7, "velocity": 76}, {"time": 573, "pitch": 65, "duration": 6, "velocity": 75}, {"time": 579, "pitch": 53, "duration": 1, "velocity": 58}, {"time": 585, "pitch": 42, "duration": 12, "velocity": 73}, {"time": 585, "pitch": 54, "duration": 5, "velocity": 69}, {"time": 585, "pitch": 57, "duration": 4, "velocity": 55}, {"time": 585, "pitch": 62, "duration": 4, "velocity": 70}, {"time": 585, "pitch": 66, "duration": 5, "velocity": 69}, {"time": 594, "pitch": 54, "duration": 2, "velocity": 46}, {"time": 597, "pitch": 62, "duration": 7, "velocity": 49}, {"time": 600, "pitch": 74, "duration": 4, "velocity": 73}, {"time": 603, "pitch": 38, "duration": 1, "velocity": 67}, {"time": 603, "pitch": 50, "duration": 1, "velocity": 59}, {"time": 609, "pitch": 43, "duration": 4, "velocity": 69}, {"time": 609, "pitch": 62, "duration": 12, "velocity": 57}, {"time": 609, "pitch": 67, "duration": 12, "velocity": 66}, {"time": 609, "pitch": 71, "duration": 11, "velocity": 64}, {"time": 612, "pitch": 50, "duration": 2, "velocity": 49}, {"time": 615, "pitch": 55, "duration": 3, "velocity": 52}, {"time": 618, "pitch": 57, "duration": 9, "velocity": 63}, {"time": 621, "pitch": 59, "duration": 5, "velocity": 63}, {"time": 624, "pitch": 62, "duration": 2, "velocity": 60}, {"time": 627, "pitch": 67, "duration": 2, "velocity": 56}, {"time": 630, "pitch": 71, "duration": 2, "velocity": 58}, {"time": 633, "pitch": 55, "duration": 20, "velocity": 56}, {"time": 633, "pitch": 62, "duration": 3, "velocity": 59}, {"time": 633, "pitch": 67, "duration": 4, "velocity": 70}, {"time": 636, "pitch": 59, "duration": 13, "velocity": 55}, {"time": 639, "pitch": 62, "duration": 1, "velocity": 48}, {"time": 642, "pitch": 67, "duration": 4, "velocity": 51}, {"time": 648, "pitch": 71, "duration": 4, "velocity": 60}, {"time": 651, "pitch": 59, "duration": 1, "velocity": 54}, {"time": 654, "pitch": 64, "duration": 1, "velocity": 37}, {"time": 657, "pitch": 55, "duration": 19, "velocity": 50}, {"time": 657, "pitch": 64, "duration": 3, "velocity": 69}, {"time": 657, "pitch": 72, "duration": 4, "velocity": 76}, {"time": 660, "pitch": 60, "duration": 12, "velocity": 59}, {"time": 663, "pitch": 64, "duration": 6, "velocity": 56}, {"time": 666, "pitch": 67, "duration": 10, "velocity": 67}, {"time": 672, "pitch": 64, "duration": 3, "velocity": 67}, {"time": 672, "pitch": 72, "duration": 4, "velocity": 72}, {"time": 675, "pitch": 60, "duration": 1, "velocity": 53}, {"time": 678, "pitch": 64, "duration": 1, "velocity": 47}, {"time": 681, "pitch": 50, "duration": 6, "velocity": 64}, {"time": 681, "pitch": 62, "duration": 3, "velocity": 55}, {"time": 681, "pitch": 66, "duration": 3, "velocity": 56}, {"time": 681, "pitch": 69, "duration": 3, "velocity": 56}, {"time": 684, "pitch": 57, "duration": 3, "velocity": 50}, {"time": 687, "pitch": 62, "duration": 3, "velocity": 48}, {"time": 690, "pitch": 67, "duration": 4, "velocity": 64}, {"time": 696, "pitch": 62, "duration": 2, "velocity": 69}, {"time": 696, "pitch": 69, "duration": 2, "velocity": 82}, {"time": 702, "pitch": 42, "duration": 1, "velocity": 49}, {"time": 705, "pitch": 43, "duration": 20, "velocity": 70}, {"time": 705, "pitch": 60, "duration": 6, "velocity": 56}, {"time": 705, "pitch": 67, "duration": 6, "velocity": 66}, {"time": 708, "pitch": 50, "duration": 19, "velocity": 51}, {"time": 711, "pitch": 55, "duration": 9, "velocity": 55}, {"time": 714, "pitch": 59, "duration": 2, "velocity": 59}, {"time": 717, "pitch": 60, "duration": 2, "velocity": 64}, {"time": 720, "pitch": 59, "duration": 3, "velocity": 60}, {"time": 720, "pitch": 67, "duration": 4, "velocity": 70}, {"time": 723, "pitch": 55, "duration": 3, "velocity": 40}, {"time": 726, "pitch": 59, "duration": 2, "velocity": 49}, {"time": 729, "pitch": 43, "duration": 18, "velocity": 62}, {"time": 729, "pitch": 59, "duration": 4, "velocity": 58}, {"time": 729, "pitch": 62, "duration": 4, "velocity": 69}, {"time": 732, "pitch": 50, "duration": 15, "velocity": 46}, {"time": 735, "pitch": 55, "duration": 5, "velocity": 47}, {"time": 738, "pitch": 57, "duration": 5, "velocity": 63}, {"time": 738, "pitch": 59, "duration": 5, "velocity": 67}, {"time": 738, "pitch": 62, "duration": 5, "velocity": 70}, {"time": 744, "pitch": 55, "duration": 3, "velocity": 50}, {"time": 747, "pitch": 57, "duration": 2, "velocity": 51}, {"time": 750, "pitch": 67, "duration": 4, "velocity": 59}, {"time": 753, "pitch": 43, "duration": 15, "velocity": 51}, {"time": 753, "pitch": 48, "duration": 16, "velocity": 50}, {"time": 753, "pitch": 55, "duration": 4, "velocity": 61}, {"time": 753, "pitch": 60, "duration": 4, "velocity": 64}, {"time": 753, "pitch": 64, "duration": 4, "velocity": 64}, {"time": 759, "pitch": 52, "duration": 9, "velocity": 62}, {"time": 762, "pitch": 55, "duration": 2, "velocity": 59}, {"time": 765, "pitch": 60, "duration": 4, "velocity": 59}, {"time": 768, "pitch": 64, "duration": 3, "velocity": 54}, {"time": 771, "pitch": 55, "duration": 3, "velocity": 59}, {"time": 774, "pitch": 64, "duration": 1, "velocity": 67}, {"time": 777, "pitch": 38, "duration": 6, "velocity": 66}, {"time": 777, "pitch": 57, "duration": 4, "velocity": 53}, {"time": 777, "pitch": 62, "duration": 4, "velocity": 64}, {"time": 777, "pitch": 66, "duration": 4, "velocity": 80}, {"time": 780, "pitch": 50, "duration": 3, "velocity": 49}, {"time": 783, "pitch": 57, "duration": 2, "velocity": 57}, {"time": 789, "pitch": 39, "duration": 8, "velocity": 69}, {"time": 789, "pitch": 63, "duration": 5, "velocity": 57}, {"time": 789, "pitch": 65, "duration": 2, "velocity": 35}, {"time": 795, "pitch": 51, "duration": 2, "velocity": 64}, {"time": 801, "pitch": 40, "duration": 7, "velocity": 67}, {"time": 801, "pitch": 59, "duration": 6, "velocity": 64}, {"time": 801, "pitch": 64, "duration": 7, "velocity": 73}, {"time": 804, "pitch": 52, "duration": 3, "velocity": 53}, {"time": 807, "pitch": 55, "duration": 10, "velocity": 56}, {"time": 810, "pitch": 59, "duration": 4, "velocity": 61}, {"time": 813, "pitch": 64, "duration": 4, "velocity": 64}, {"time": 816, "pitch": 67, "duration": 4, "velocity": 85}, {"time": 825, "pitch": 50, "duration": 19, "velocity": 64}, {"time": 825, "pitch": 62, "duration": 4, "velocity": 67}, {"time": 825, "pitch": 66, "duration": 5, "velocity": 76}, {"time": 825, "pitch": 69, "duration": 4, "velocity": 60}, {"time": 831, "pitch": 62, "duration": 2, "velocity": 46}, {"time": 834, "pitch": 62, "duration": 4, "velocity": 67}, {"time": 834, "pitch": 69, "duration": 5, "velocity": 75}, {"time": 840, "pitch": 62, "duration": 3, "velocity": 70}, {"time": 840, "pitch": 67, "duration": 4, "velocity": 69}, {"time": 843, "pitch": 57, "duration": 1, "velocity": 43}, {"time": 846, "pitch": 66, "duration": 2, "velocity": 57}, {"time": 849, "pitch": 48, "duration": 19, "velocity": 70}, {"time": 849, "pitch": 62, "duration": 6, "velocity": 61}, {"time": 849, "pitch": 64, "duration": 6, "velocity": 75}, {"time": 849, "pitch": 67, "duration": 6, "velocity": 70}, {"time": 852, "pitch": 55, "duration": 17, "velocity": 56}, {"time": 855, "pitch": 60, "duration": 5, "velocity": 44}, {"time": 858, "pitch": 62, "duration": 5, "velocity": 72}, {"time": 864, "pitch": 62, "duration": 1, "velocity": 57}, {"time": 864, "pitch": 64, "duration": 4, "velocity": 76}, {"time": 864, "pitch": 67, "duration": 4, "velocity": 75}, {"time": 867, "pitch": 60, "duration": 1, "velocity": 60}, {"time": 870, "pitch": 62, "duration": 1, "velocity": 45}, {"time": 873, "pitch": 47, "duration": 14, "velocity": 66}, {"time": 873, "pitch": 59, "duration": 6, "velocity": 59}, {"time": 873, "pitch": 62, "duration": 8, "velocity": 63}, {"time": 873, "pitch": 66, "duration": 8, "velocity": 72}, {"time": 873, "pitch": 69, "duration": 8, "velocity": 64}, {"time": 882, "pitch": 59, "duration": 5, "velocity": 42}, {"time": 885, "pitch": 62, "duration": 6, "velocity": 72}, {"time": 885, "pitch": 66, "duration": 6, "velocity": 75}, {"time": 885, "pitch": 69, "duration": 6, "velocity": 70}, {"time": 891, "pitch": 46, "duration": 7, "velocity": 64}, {"time": 897, "pitch": 45, "duration": 42, "velocity": 62}, {"time": 897, "pitch": 57, "duration": 5, "velocity": 63}, {"time": 897, "pitch": 60, "duration": 8, "velocity": 70}, {"time": 897, "pitch": 64, "duration": 9, "velocity": 69}, {"time": 897, "pitch": 67, "duration": 9, "velocity": 64}, {"time": 906, "pitch": 57, "duration": 6, "velocity": 36}, {"time": 909, "pitch": 60, "duration": 7, "velocity": 78}, {"time": 909, "pitch": 64, "duration": 7, "velocity": 69}, {"time": 909, "pitch": 67, "duration": 6, "velocity": 63}, {"time": 915, "pitch": 57, "duration": 8, "velocity": 36}, {"time": 918, "pitch": 59, "duration": 4, "velocity": 64}, {"time": 921, "pitch": 60, "duration": 3, "velocity": 78}, {"time": 921, "pitch": 64, "duration": 4, "velocity": 67}, {"time": 924, "pitch": 59, "duration": 3, "velocity": 61}, {"time": 927, "pitch": 60, "duration": 1, "velocity": 69}, {"time": 930, "pitch": 60, "duration": 6, "velocity": 80}, {"time": 930, "pitch": 67, "duration": 6, "velocity": 88}, {"time": 936, "pitch": 57, "duration": 2, "velocity": 69}, {"time": 939, "pitch": 59, "duration": 2, "velocity": 82}, {"time": 939, "pitch": 67, "duration": 1, "velocity": 70}, {"time": 942, "pitch": 60, "duration": 1, "velocity": 46}, {"time": 942, "pitch": 64, "duration": 1, "velocity": 53}, {"time": 945, "pitch": 38, "duration": 16, "velocity": 73}, {"time": 945, "pitch": 50, "duration": 4, "velocity": 73}, {"time": 945, "pitch": 57, "duration": 5, "velocity": 61}, {"time": 945, "pitch": 60, "duration": 5, "velocity": 78}, {"time": 945, "pitch": 64, "duration": 5, "velocity": 95}, {"time": 951, "pitch": 50, "duration": 4, "velocity": 46}, {"time": 954, "pitch": 57, "duration": 6, "velocity": 93}, {"time": 954, "pitch": 60, "duration": 6, "velocity": 85}, {"time": 954, "pitch": 64, "duration": 6, "velocity": 82}, {"time": 960, "pitch": 50, "duration": 2, "velocity": 54}, {"time": 963, "pitch": 57, "duration": 2, "velocity": 73}, {"time": 966, "pitch": 64, "duration": 1, "velocity": 47}, {"time": 969, "pitch": 38, "duration": 1, "velocity": 67}, {"time": 969, "pitch": 50, "duration": 1, "velocity": 70}, {"time": 969, "pitch": 57, "duration": 1, "velocity": 73}, {"time": 969, "pitch": 60, "duration": 1, "velocity": 53}, {"time": 969, "pitch": 62, "duration": 1, "velocity": 64}, {"time": 969, "pitch": 66, "duration": 1, "velocity": 69}, {"time": 972, "pitch": 38, "duration": 12, "velocity": 73}, {"time": 972, "pitch": 50, "duration": 2, "velocity": 85}, {"time": 972, "pitch": 57, "duration": 5, "velocity": 70}, {"time": 972, "pitch": 60, "duration": 5, "velocity": 63}, {"time": 972, "pitch": 62, "duration": 5, "velocity": 66}, {"time": 972, "pitch": 66, "duration": 5, "velocity": 78}, {"time": 978, "pitch": 50, "duration": 3, "velocity": 72}, {"time": 984, "pitch": 50, "duration": 1, "velocity": 35}, {"time": 984, "pitch": 57, "duration": 3, "velocity": 76}, {"time": 984, "pitch": 60, "duration": 2, "velocity": 55}, {"time": 984, "pitch": 62, "duration": 3, "velocity": 88}, {"time": 984, "pitch": 66, "duration": 3, "velocity": 85}, {"time": 987, "pitch": 42, "duration": 1, "velocity": 72}, {"time": 993, "pitch": 43, "duration": 16, "velocity": 70}, {"time": 993, "pitch": 57, "duration": 5, "velocity": 75}, {"time": 993, "pitch": 59, "duration": 5, "velocity": 76}, {"time": 993, "pitch": 62, "duration": 6, "velocity": 72}, {"time": 993, "pitch": 67, "duration": 6, "velocity": 70}, {"time": 996, "pitch": 50, "duration": 14, "velocity": 69}, {"time": 999, "pitch": 55, "duration": 10, "velocity": 76}, {"time": 1002, "pitch": 57, "duration": 2, "velocity": 78}, {"time": 1005, "pitch": 57, "duration": 1, "velocity": 39}, {"time": 1005, "pitch": 59, "duration": 1, "velocity": 70}, {"time": 1008, "pitch": 59, "duration": 4, "velocity": 66}, {"time": 1008, "pitch": 62, "duration": 4, "velocity": 82}, {"time": 1008, "pitch": 67, "duration": 4, "velocity": 36}, {"time": 1011, "pitch": 45, "duration": 2, "velocity": 61}, {"time": 1017, "pitch": 47, "duration": 18, "velocity": 78}, {"time": 1017, "pitch": 62, "duration": 3, "velocity": 73}, {"time": 1017, "pitch": 66, "duration": 4, "velocity": 95}, {"time": 1017, "pitch": 69, "duration": 3, "velocity": 78}, {"time": 1020, "pitch": 59, "duration": 12, "velocity": 46}, {"time": 1023, "pitch": 62, "duration": 1, "velocity": 57}, {"time": 1026, "pitch": 62, "duration": 4, "velocity": 55}, {"time": 1026, "pitch": 66, "duration": 4, "velocity": 73}, {"time": 1026, "pitch": 74, "duration": 4, "velocity": 82}, {"time": 1032, "pitch": 62, "duration": 4, "velocity": 69}, {"time": 1032, "pitch": 71, "duration": 4, "velocity": 91}, {"time": 1035, "pitch": 59, "duration": 2, "velocity": 75}, {"time": 1038, "pitch": 69, "duration": 1, "velocity": 49}, {"time": 1039, "pitch": 71, "duration": 2, "velocity": 73}, {"time": 1041, "pitch": 52, "duration": 19, "velocity": 70}, {"time": 1041, "pitch": 62, "duration": 2, "velocity": 76}, {"time": 1041, "pitch": 67, "duration": 6, "velocity": 91}, {"time": 1044, "pitch": 59, "duration": 13, "velocity": 69}, {"time": 1047, "pitch": 64, "duration": 11, "velocity": 49}, {"time": 1050, "pitch": 67, "duration": 4, "velocity": 91}, {"time": 1056, "pitch": 69, "duration": 5, "velocity": 93}, {"time": 1059, "pitch": 59, "duration": 4, "velocity": 69}, {"time": 1062, "pitch": 71, "duration": 1, "velocity": 67}, {"time": 1065, "pitch": 50, "duration": 19, "velocity": 58}, {"time": 1065, "pitch": 62, "duration": 3, "velocity": 66}, {"time": 1065, "pitch": 67, "duration": 6, "velocity": 69}, {"time": 1065, "pitch": 71, "duration": 5, "velocity": 75}, {"time": 1068, "pitch": 59, "duration": 16, "velocity": 64}, {"time": 1071, "pitch": 62, "duration": 12, "velocity": 73}, {"time": 1074, "pitch": 67, "duration": 3, "velocity": 73}, {"time": 1077, "pitch": 69, "duration": 2, "velocity": 76}, {"time": 1080, "pitch": 71, "duration": 4, "velocity": 82}, {"time": 1083, "pitch": 74, "duration": 2, "velocity": 49}, {"time": 1086, "pitch": 79, "duration": 2, "velocity": 61}, {"time": 1089, "pitch": 48, "duration": 20, "velocity": 72}, {"time": 1089, "pitch": 67, "duration": 5, "velocity": 61}, {"time": 1089, "pitch": 72, "duration": 5, "velocity": 76}, {"time": 1089, "pitch": 76, "duration": 4, "velocity": 73}, {"time": 1092, "pitch": 55, "duration": 16, "velocity": 64}, {"time": 1095, "pitch": 60, "duration": 9, "velocity": 58}, {"time": 1098, "pitch": 62, "duration": 4, "velocity": 73}, {"time": 1098, "pitch": 67, "duration": 4, "velocity": 82}, {"time": 1104, "pitch": 64, "duration": 4, "velocity": 85}, {"time": 1104, "pitch": 69, "duration": 4, "velocity": 70}, {"time": 1107, "pitch": 60, "duration": 1, "velocity": 66}, {"time": 1110, "pitch": 62, "duration": 1, "velocity": 49}, {"time": 1113, "pitch": 47, "duration": 19, "velocity": 73}, {"time": 1113, "pitch": 62, "duration": 3, "velocity": 67}, {"time": 1113, "pitch": 66, "duration": 4, "velocity": 85}, {"time": 1113, "pitch": 69, "duration": 4, "velocity": 70}, {"time": 1116, "pitch": 59, "duration": 4, "velocity": 59}, {"time": 1119, "pitch": 62, "duration": 4, "velocity": 72}, {"time": 1122, "pitch": 74, "duration": 3, "velocity": 73}, {"time": 1125, "pitch": 59, "duration": 2, "velocity": 43}, {"time": 1128, "pitch": 62, "duration": 4, "velocity": 61}, {"time": 1128, "pitch": 67, "duration": 3, "velocity": 85}, {"time": 1128, "pitch": 71, "duration": 3, "velocity": 82}, {"time": 1131, "pitch": 59, "duration": 1, "velocity": 69}, {"time": 1134, "pitch": 46, "duration": 3, "velocity": 76}, {"time": 1137, "pitch": 45, "duration": 19, "velocity": 80}, {"time": 1137, "pitch": 60, "duration": 5, "velocity": 69}, {"time": 1137, "pitch": 64, "duration": 5, "velocity": 67}, {"time": 1137, "pitch": 67, "duration": 5, "velocity": 54}, {"time": 1140, "pitch": 52, "duration": 12, "velocity": 55}, {"time": 1143, "pitch": 57, "duration": 12, "velocity": 85}, {"time": 1146, "pitch": 59, "duration": 4, "velocity": 85}, {"time": 1146, "pitch": 64, "duration": 1, "velocity": 54}, {"time": 1149, "pitch": 60, "duration": 4, "velocity": 67}, {"time": 1152, "pitch": 64, "duration": 3, "velocity": 88}, {"time": 1155, "pitch": 52, "duration": 1, "velocity": 75}, {"time": 1155, "pitch": 67, "duration": 3, "velocity": 76}, {"time": 1158, "pitch": 55, "duration": 1, "velocity": 33}, {"time": 1161, "pitch": 38, "duration": 7, "velocity": 76}, {"time": 1161, "pitch": 55, "duration": 3, "velocity": 67}, {"time": 1161, "pitch": 60, "duration": 4, "velocity": 70}, {"time": 1161, "pitch": 64, "duration": 4, "velocity": 72}, {"time": 1164, "pitch": 50, "duration": 6, "velocity": 62}, {"time": 1167, "pitch": 55, "duration": 3, "velocity": 93}, {"time": 1170, "pitch": 60, "duration": 2, "velocity": 62}, {"time": 1170, "pitch": 64, "duration": 1, "velocity": 56}, {"time": 1173, "pitch": 38, "duration": 3, "velocity": 72}, {"time": 1173, "pitch": 50, "duration": 1, "velocity": 47}, {"time": 1173, "pitch": 57, "duration": 4, "velocity": 82}, {"time": 1173, "pitch": 62, "duration": 4, "velocity": 75}, {"time": 1173, "pitch": 66, "duration": 4, "velocity": 88}, {"time": 1176, "pitch": 40, "duration": 3, "velocity": 66}, {"time": 1179, "pitch": 42, "duration": 2, "velocity": 82}, {"time": 1182, "pitch": 62, "duration": 1, "velocity": 61}, {"time": 1185, "pitch": 43, "duration": 20, "velocity": 76}, {"time": 1185, "pitch": 57, "duration": 6, "velocity": 91}, {"time": 1185, "pitch": 59, "duration": 6, "velocity": 78}, {"time": 1185, "pitch": 62, "duration": 6, "velocity": 66}, {"time": 1185, "pitch": 67, "duration": 6, "velocity": 64}, {"time": 1188, "pitch": 50, "duration": 17, "velocity": 75}, {"time": 1191, "pitch": 55, "duration": 11, "velocity": 82}, {"time": 1194, "pitch": 57, "duration": 2, "velocity": 76}, {"time": 1197, "pitch": 59, "duration": 2, "velocity": 73}, {"time": 1200, "pitch": 59, "duration": 1, "velocity": 59}, {"time": 1200, "pitch": 62, "duration": 3, "velocity": 85}, {"time": 1203, "pitch": 67, "duration": 1, "velocity": 80}, {"time": 1206, "pitch": 55, "duration": 2, "velocity": 82}, {"time": 1209, "pitch": 47, "duration": 18, "velocity": 70}, {"time": 1209, "pitch": 63, "duration": 9, "velocity": 78}, {"time": 1209, "pitch": 66, "duration": 9, "velocity": 91}, {"time": 1218, "pitch": 59, "duration": 6, "velocity": 49}, {"time": 1224, "pitch": 63, "duration": 4, "velocity": 97}, {"time": 1224, "pitch": 66, "duration": 6, "velocity": 97}, {"time": 1224, "pitch": 71, "duration": 3, "velocity": 80}, {"time": 1227, "pitch": 59, "duration": 1, "velocity": 62}, {"time": 1230, "pitch": 71, "duration": 2, "velocity": 72}, {"time": 1233, "pitch": 52, "duration": 20, "velocity": 69}, {"time": 1233, "pitch": 62, "duration": 4, "velocity": 85}, {"time": 1233, "pitch": 67, "duration": 4, "velocity": 78}, {"time": 1233, "pitch": 71, "duration": 3, "velocity": 66}, {"time": 1236, "pitch": 59, "duration": 12, "velocity": 66}, {"time": 1239, "pitch": 62, "duration": 4, "velocity": 66}, {"time": 1242, "pitch": 67, "duration": 3, "velocity": 66}, {"time": 1248, "pitch": 62, "duration": 3, "velocity": 76}, {"time": 1248, "pitch": 69, "duration": 4, "velocity": 88}, {"time": 1251, "pitch": 59, "duration": 2, "velocity": 73}, {"time": 1254, "pitch": 71, "duration": 1, "velocity": 54}, {"time": 1257, "pitch": 45, "duration": 18, "velocity": 62}, {"time": 1257, "pitch": 57, "duration": 4, "velocity": 66}, {"time": 1257, "pitch": 61, "duration": 9, "velocity": 69}, {"time": 1257, "pitch": 64, "duration": 7, "velocity": 73}, {"time": 1257, "pitch": 69, "duration": 9, "velocity": 69}, {"time": 1266, "pitch": 57, "duration": 7, "velocity": 57}, {"time": 1269, "pitch": 61, "duration": 5, "velocity": 80}, {"time": 1269, "pitch": 67, "duration": 3, "velocity": 80}, {"time": 1272, "pitch": 64, "duration": 4, "velocity": 78}, {"time": 1272, "pitch": 69, "duration": 4, "velocity": 72}, {"time": 1281, "pitch": 45, "duration": 18, "velocity": 76}, {"time": 1281, "pitch": 60, "duration": 6, "velocity": 69}, {"time": 1281, "pitch": 64, "duration": 6, "velocity": 72}, {"time": 1281, "pitch": 69, "duration": 6, "velocity": 64}, {"time": 1284, "pitch": 52, "duration": 16, "velocity": 61}, {"time": 1287, "pitch": 57, "duration": 9, "velocity": 78}, {"time": 1290, "pitch": 60, "duration": 2, "velocity": 76}, {"time": 1293, "pitch": 64, "duration": 5, "velocity": 70}, {"time": 1296, "pitch": 67, "duration": 4, "velocity": 85}, {"time": 1299, "pitch": 57, "duration": 2, "velocity": 66}, {"time": 1302, "pitch": 60, "duration": 2, "velocity": 56}, {"time": 1305, "pitch": 50, "duration": 19, "velocity": 70}, {"time": 1305, "pitch": 64, "duration": 5, "velocity": 67}, {"time": 1305, "pitch": 69, "duration": 6, "velocity": 75}, {"time": 1308, "pitch": 57, "duration": 16, "velocity": 56}, {"time": 1311, "pitch": 62, "duration": 12, "velocity": 62}, {"time": 1314, "pitch": 67, "duration": 3, "velocity": 66}, {"time": 1317, "pitch": 69, "duration": 1, "velocity": 69}, {"time": 1320, "pitch": 72, "duration": 2, "velocity": 72}, {"time": 1323, "pitch": 74, "duration": 2, "velocity": 69}, {"time": 1326, "pitch": 76, "duration": 3, "velocity": 59}, {"time": 1329, "pitch": 43, "duration": 21, "velocity": 69}, {"time": 1329, "pitch": 74, "duration": 4, "velocity": 72}, {"time": 1332, "pitch": 50, "duration": 18, "velocity": 61}, {"time": 1335, "pitch": 55, "duration": 12, "velocity": 64}, {"time": 1338, "pitch": 60, "duration": 3, "velocity": 70}, {"time": 1341, "pitch": 62, "duration": 2, "velocity": 56}, {"time": 1344, "pitch": 64, "duration": 2, "velocity": 75}, {"time": 1347, "pitch": 67, "duration": 2, "velocity": 59}, {"time": 1350, "pitch": 71, "duration": 2, "velocity": 76}, {"time": 1353, "pitch": 40, "duration": 16, "velocity": 66}, {"time": 1353, "pitch": 62, "duration": 4, "velocity": 73}, {"time": 1353, "pitch": 67, "duration": 4, "velocity": 70}, {"time": 1356, "pitch": 52, "duration": 10, "velocity": 60}, {"time": 1359, "pitch": 62, "duration": 1, "velocity": 61}, {"time": 1362, "pitch": 62, "duration": 6, "velocity": 69}, {"time": 1362, "pitch": 67, "duration": 6, "velocity": 76}, {"time": 1362, "pitch": 71, "duration": 6, "velocity": 70}, {"time": 1368, "pitch": 52, "duration": 2, "velocity": 44}, {"time": 1371, "pitch": 62, "duration": 2, "velocity": 82}, {"time": 1371, "pitch": 74, "duration": 2, "velocity": 70}, {"time": 1374, "pitch": 69, "duration": 2, "velocity": 61}, {"time": 1377, "pitch": 43, "duration": 19, "velocity": 58}, {"time": 1377, "pitch": 57, "duration": 9, "velocity": 66}, {"time": 1377, "pitch": 59, "duration": 9, "velocity": 64}, {"time": 1377, "pitch": 62, "duration": 9, "velocity": 62}, {"time": 1377, "pitch": 67, "duration": 10, "velocity": 57}, {"time": 1386, "pitch": 55, "duration": 8, "velocity": 40}, {"time": 1389, "pitch": 57, "duration": 4, "velocity": 52}, {"time": 1392, "pitch": 59, "duration": 2, "velocity": 64}, {"time": 1395, "pitch": 62, "duration": 2, "velocity": 53}, {"time": 1398, "pitch": 67, "duration": 8, "velocity": 56}, {"time": 1401, "pitch": 43, "duration": 20, "velocity": 55}, {"time": 1401, "pitch": 57, "duration": 6, "velocity": 48}, {"time": 1401, "pitch": 59, "duration": 6, "velocity": 47}, {"time": 1401, "pitch": 62, "duration": 6, "velocity": 62}, {"time": 1404, "pitch": 50, "duration": 15, "velocity": 29}, {"time": 1407, "pitch": 55, "duration": 9, "velocity": 47}, {"time": 1410, "pitch": 57, "duration": 4, "velocity": 60}, {"time": 1410, "pitch": 62, "duration": 5, "velocity": 67}, {"time": 1416, "pitch": 59, "duration": 4, "velocity": 64}, {"time": 1416, "pitch": 62, "duration": 4, "velocity": 67}, {"time": 1419, "pitch": 55, "duration": 1, "velocity": 44}, {"time": 1425, "pitch": 43, "duration": 19, "velocity": 63}, {"time": 1425, "pitch": 55, "duration": 3, "velocity": 59}, {"time": 1425, "pitch": 60, "duration": 6, "velocity": 70}, {"time": 1425, "pitch": 64, "duration": 5, "velocity": 62}, {"time": 1428, "pitch": 52, "duration": 17, "velocity": 57}, {"time": 1431, "pitch": 55, "duration": 9, "velocity": 56}, {"time": 1434, "pitch": 59, "duration": 5, "velocity": 60}, {"time": 1440, "pitch": 60, "duration": 4, "velocity": 67}, {"time": 1443, "pitch": 55, "duration": 2, "velocity": 44}, {"time": 1446, "pitch": 60, "duration": 4, "velocity": 40}, {"time": 1446, "pitch": 67, "duration": 8, "velocity": 61}, {"time": 1452, "pitch": 38, "duration": 1, "velocity": 52}, {"time": 1461, "pitch": 38, "duration": 5, "velocity": 47}, {"time": 1461, "pitch": 50, "duration": 3, "velocity": 47}, {"time": 1461, "pitch": 57, "duration": 6, "velocity": 54}, {"time": 1461, "pitch": 62, "duration": 6, "velocity": 67}, {"time": 1461, "pitch": 66, "duration": 5, "velocity": 75}, {"time": 1467, "pitch": 50, "duration": 1, "velocity": 43}, {"time": 1473, "pitch": 43, "duration": 20, "velocity": 59}, {"time": 1473, "pitch": 57, "duration": 5, "velocity": 48}, {"time": 1473, "pitch": 59, "duration": 5, "velocity": 53}, {"time": 1473, "pitch": 62, "duration": 4, "velocity": 53}, {"time": 1473, "pitch": 67, "duration": 5, "velocity": 54}, {"time": 1476, "pitch": 50, "duration": 19, "velocity": 42}, {"time": 1479, "pitch": 55, "duration": 10, "velocity": 49}, {"time": 1482, "pitch": 57, "duration": 2, "velocity": 54}, {"time": 1488, "pitch": 59, "duration": 1, "velocity": 66}, {"time": 1491, "pitch": 55, "duration": 2, "velocity": 37}, {"time": 1494, "pitch": 59, "duration": 2, "velocity": 49}, {"time": 1497, "pitch": 43, "duration": 20, "velocity": 55}, {"time": 1497, "pitch": 59, "duration": 1, "velocity": 43}, {"time": 1497, "pitch": 67, "duration": 2, "velocity": 70}, {"time": 1500, "pitch": 50, "duration": 16, "velocity": 59}, {"time": 1503, "pitch": 55, "duration": 9, "velocity": 45}, {"time": 1506, "pitch": 62, "duration": 1, "velocity": 49}, {"time": 1506, "pitch": 71, "duration": 1, "velocity": 63}, {"time": 1512, "pitch": 62, "duration": 1, "velocity": 60}, {"time": 1512, "pitch": 69, "duration": 1, "velocity": 67}, {"time": 1515, "pitch": 55, "duration": 1, "velocity": 40}, {"time": 1521, "pitch": 43, "duration": 16, "velocity": 72}, {"time": 1521, "pitch": 60, "duration": 3, "velocity": 69}, {"time": 1521, "pitch": 64, "duration": 4, "velocity": 61}, {"time": 1524, "pitch": 52, "duration": 13, "velocity": 54}, {"time": 1527, "pitch": 55, "duration": 4, "velocity": 48}, {"time": 1530, "pitch": 60, "duration": 4, "velocity": 63}, {"time": 1536, "pitch": 60, "duration": 1, "velocity": 44}, {"time": 1536, "pitch": 64, "duration": 2, "velocity": 60}, {"time": 1545, "pitch": 38, "duration": 4, "velocity": 54}, {"time": 1545, "pitch": 50, "duration": 5, "velocity": 47}, {"time": 1545, "pitch": 62, "duration": 5, "velocity": 61}, {"time": 1545, "pitch": 66, "duration": 5, "velocity": 72}, {"time": 1545, "pitch": 69, "duration": 5, "velocity": 62}, {"time": 1557, "pitch": 39, "duration": 6, "velocity": 59}, {"time": 1557, "pitch": 51, "duration": 6, "velocity": 56}, {"time": 1557, "pitch": 63, "duration": 6, "velocity": 66}, {"time": 1557, "pitch": 66, "duration": 6, "velocity": 63}, {"time": 1557, "pitch": 71, "duration": 6, "velocity": 47}, {"time": 1569, "pitch": 40, "duration": 2, "velocity": 67}, {"time": 1569, "pitch": 59, "duration": 6, "velocity": 60}, {"time": 1569, "pitch": 64, "duration": 6, "velocity": 59}, {"time": 1569, "pitch": 67, "duration": 6, "velocity": 57}, {"time": 1572, "pitch": 52, "duration": 3, "velocity": 49}, {"time": 1575, "pitch": 54, "duration": 12, "velocity": 55}, {"time": 1578, "pitch": 59, "duration": 2, "velocity": 52}, {"time": 1581, "pitch": 64, "duration": 4, "velocity": 72}, {"time": 1584, "pitch": 66, "duration": 4, "velocity": 66}, {"time": 1587, "pitch": 67, "duration": 5, "velocity": 61}, {"time": 1593, "pitch": 50, "duration": 18, "velocity": 66}, {"time": 1593, "pitch": 62, "duration": 3, "velocity": 66}, {"time": 1593, "pitch": 66, "duration": 4, "velocity": 72}, {"time": 1593, "pitch": 69, "duration": 3, "velocity": 66}, {"time": 1596, "pitch": 57, "duration": 16, "velocity": 48}, {"time": 1599, "pitch": 62, "duration": 4, "velocity": 45}, {"time": 1602, "pitch": 66, "duration": 6, "velocity": 73}, {"time": 1608, "pitch": 67, "duration": 6, "velocity": 75}, {"time": 1617, "pitch": 48, "duration": 19, "velocity": 62}, {"time": 1617, "pitch": 64, "duration": 5, "velocity": 72}, {"time": 1617, "pitch": 67, "duration": 6, "velocity": 66}, {"time": 1620, "pitch": 55, "duration": 18, "velocity": 48}, {"time": 1623, "pitch": 60, "duration": 9, "velocity": 49}, {"time": 1626, "pitch": 62, "duration": 5, "velocity": 63}, {"time": 1632, "pitch": 64, "duration": 3, "velocity": 80}, {"time": 1635, "pitch": 60, "duration": 1, "velocity": 39}, {"time": 1641, "pitch": 47, "duration": 18, "velocity": 58}, {"time": 1641, "pitch": 62, "duration": 4, "velocity": 56}, {"time": 1641, "pitch": 66, "duration": 4, "velocity": 64}, {"time": 1641, "pitch": 69, "duration": 4, "velocity": 46}, {"time": 1644, "pitch": 59, "duration": 14, "velocity": 40}, {"time": 1647, "pitch": 62, "duration": 4, "velocity": 46}, {"time": 1650, "pitch": 69, "duration": 7, "velocity": 64}, {"time": 1656, "pitch": 66, "duration": 1, "velocity": 58}, {"time": 1665, "pitch": 45, "duration": 22, "velocity": 61}, {"time": 1665, "pitch": 60, "duration": 6, "velocity": 60}, {"time": 1665, "pitch": 64, "duration": 5, "velocity": 59}, {"time": 1665, "pitch": 67, "duration": 6, "velocity": 54}, {"time": 1668, "pitch": 52, "duration": 21, "velocity": 31}, {"time": 1671, "pitch": 57, "duration": 10, "velocity": 47}, {"time": 1674, "pitch": 59, "duration": 4, "velocity": 64}, {"time": 1680, "pitch": 60, "duration": 5, "velocity": 70}, {"time": 1680, "pitch": 64, "duration": 4, "velocity": 70}, {"time": 1680, "pitch": 67, "duration": 1, "velocity": 47}, {"time": 1686, "pitch": 57, "duration": 2, "velocity": 30}, {"time": 1689, "pitch": 45, "duration": 18, "velocity": 54}, {"time": 1692, "pitch": 52, "duration": 12, "velocity": 56}, {"time": 1695, "pitch": 57, "duration": 10, "velocity": 46}, {"time": 1698, "pitch": 59, "duration": 4, "velocity": 67}, {"time": 1701, "pitch": 60, "duration": 2, "velocity": 72}, {"time": 1704, "pitch": 59, "duration": 2, "velocity": 75}, {"time": 1704, "pitch": 60, "duration": 3, "velocity": 69}, {"time": 1704, "pitch": 64, "duration": 3, "velocity": 72}, {"time": 1707, "pitch": 52, "duration": 1, "velocity": 51}, {"time": 1710, "pitch": 62, "duration": 2, "velocity": 66}, {"time": 1713, "pitch": 41, "duration": 19, "velocity": 62}, {"time": 1713, "pitch": 53, "duration": 5, "velocity": 64}, {"time": 1713, "pitch": 57, "duration": 9, "velocity": 63}, {"time": 1713, "pitch": 60, "duration": 8, "velocity": 70}, {"time": 1713, "pitch": 65, "duration": 9, "velocity": 69}, {"time": 1722, "pitch": 53, "duration": 5, "velocity": 36}, {"time": 1725, "pitch": 57, "duration": 7, "velocity": 70}, {"time": 1725, "pitch": 60, "duration": 7, "velocity": 76}, {"time": 1725, "pitch": 65, "duration": 6, "velocity": 75}, {"time": 1731, "pitch": 53, "duration": 1, "velocity": 58}, {"time": 1737, "pitch": 42, "duration": 12, "velocity": 73}, {"time": 1737, "pitch": 54, "duration": 5, "velocity": 69}, {"time": 1737, "pitch": 57, "duration": 4, "velocity": 55}, {"time": 1737, "pitch": 62, "duration": 4, "velocity": 70}, {"time": 1737, "pitch": 66, "duration": 5, "velocity": 69}, {"time": 1746, "pitch": 54, "duration": 2, "velocity": 46}, {"time": 1749, "pitch": 62, "duration": 7, "velocity": 49}, {"time": 1752, "pitch": 74, "duration": 4, "velocity": 73}, {"time": 1755, "pitch": 38, "duration": 1, "velocity": 67}, {"time": 1755, "pitch": 50, "duration": 1, "velocity": 59}, {"time": 1761, "pitch": 43, "duration": 16, "velocity": 70}, {"time": 1761, "pitch": 57, "duration": 5, "velocity": 75}, {"time": 1761, "pitch": 59, "duration": 5, "velocity": 76}, {"time": 1761, "pitch": 62, "duration": 6, "velocity": 72}, {"time": 1761, "pitch": 67, "duration": 6, "velocity": 70}, {"time": 1764, "pitch": 50, "duration": 14, "velocity": 69}, {"time": 1767, "pitch": 55, "duration": 10, "velocity": 76}, {"time": 1770, "pitch": 57, "duration": 2, "velocity": 78}, {"time": 1773, "pitch": 57, "duration": 1, "velocity": 39}, {"time": 1773, "pitch": 59, "duration": 1, "velocity": 70}, {"time": 1776, "pitch": 59, "duration": 4, "velocity": 66}, {"time": 1776, "pitch": 62, "duration": 4, "velocity": 82}, {"time": 1776, "pitch": 67, "duration": 4, "velocity": 36}, {"time": 1779, "pitch": 45, "duration": 2, "velocity": 61}, {"time": 1785, "pitch": 47, "duration": 18, "velocity": 78}, {"time": 1785, "pitch": 62, "duration": 3, "velocity": 73}, {"time": 1785, "pitch": 66, "duration": 4, "velocity": 95}, {"time": 1785, "pitch": 69, "duration": 3, "velocity": 78}, {"time": 1788, "pitch": 59, "duration": 12, "velocity": 46}, {"time": 1791, "pitch": 62, "duration": 1, "velocity": 57}, {"time": 1794, "pitch": 62, "duration": 4, "velocity": 55}, {"time": 1794, "pitch": 66, "duration": 4, "velocity": 73}, {"time": 1794, "pitch": 74, "duration": 4, "velocity": 82}, {"time": 1800, "pitch": 62, "duration": 4, "velocity": 69}, {"time": 1800, "pitch": 71, "duration": 4, "velocity": 91}, {"time": 1803, "pitch": 59, "duration": 2, "velocity": 75}, {"time": 1806, "pitch": 69, "duration": 1, "velocity": 49}, {"time": 1806, "pitch": 71, "duration": 2, "velocity": 73}, {"time": 1809, "pitch": 52, "duration": 19, "velocity": 70}, {"time": 1809, "pitch": 62, "duration": 2, "velocity": 76}, {"time": 1809, "pitch": 67, "duration": 6, "velocity": 91}, {"time": 1812, "pitch": 59, "duration": 13, "velocity": 69}, {"time": 1815, "pitch": 64, "duration": 11, "velocity": 49}, {"time": 1818, "pitch": 67, "duration": 4, "velocity": 91}, {"time": 1824, "pitch": 69, "duration": 5, "velocity": 93}, {"time": 1827, "pitch": 59, "duration": 4, "velocity": 69}, {"time": 1830, "pitch": 71, "duration": 1, "velocity": 67}, {"time": 1833, "pitch": 50, "duration": 19, "velocity": 58}, {"time": 1833, "pitch": 62, "duration": 3, "velocity": 66}, {"time": 1833, "pitch": 67, "duration": 6, "velocity": 69}, {"time": 1833, "pitch": 71, "duration": 5, "velocity": 75}, {"time": 1836, "pitch": 59, "duration": 16, "velocity": 64}, {"time": 1839, "pitch": 62, "duration": 12, "velocity": 73}, {"time": 1842, "pitch": 67, "duration": 3, "velocity": 73}, {"time": 1845, "pitch": 69, "duration": 2, "velocity": 76}, {"time": 1848, "pitch": 71, "duration": 4, "velocity": 82}, {"time": 1851, "pitch": 74, "duration": 2, "velocity": 49}, {"time": 1854, "pitch": 79, "duration": 2, "velocity": 61}, {"time": 1857, "pitch": 48, "duration": 20, "velocity": 72}, {"time": 1857, "pitch": 67, "duration": 5, "velocity": 61}, {"time": 1857, "pitch": 72, "duration": 5, "velocity": 76}, {"time": 1857, "pitch": 76, "duration": 4, "velocity": 73}, {"time": 1860, "pitch": 55, "duration": 16, "velocity": 64}, {"time": 1863, "pitch": 60, "duration": 9, "velocity": 58}, {"time": 1866, "pitch": 62, "duration": 4, "velocity": 73}, {"time": 1866, "pitch": 67, "duration": 4, "velocity": 82}, {"time": 1872, "pitch": 64, "duration": 4, "velocity": 85}, {"time": 1872, "pitch": 69, "duration": 4, "velocity": 70}, {"time": 1875, "pitch": 60, "duration": 1, "velocity": 66}, {"time": 1878, "pitch": 62, "duration": 1, "velocity": 49}, {"time": 1881, "pitch": 47, "duration": 19, "velocity": 73}, {"time": 1881, "pitch": 62, "duration": 3, "velocity": 67}, {"time": 1881, "pitch": 66, "duration": 4, "velocity": 85}, {"time": 1881, "pitch": 69, "duration": 4, "velocity": 70}, {"time": 1884, "pitch": 59, "duration": 4, "velocity": 59}, {"time": 1887, "pitch": 62, "duration": 4, "velocity": 72}, {"time": 1890, "pitch": 74, "duration": 3, "velocity": 73}, {"time": 1893, "pitch": 59, "duration": 2, "velocity": 43}, {"time": 1896, "pitch": 62, "duration": 4, "velocity": 61}, {"time": 1896, "pitch": 67, "duration": 3, "velocity": 85}, {"time": 1896, "pitch": 71, "duration": 3, "velocity": 82}, {"time": 1899, "pitch": 59, "duration": 1, "velocity": 69}, {"time": 1902, "pitch": 46, "duration": 3, "velocity": 76}, {"time": 1905, "pitch": 45, "duration": 19, "velocity": 80}, {"time": 1905, "pitch": 60, "duration": 5, "velocity": 69}, {"time": 1905, "pitch": 64, "duration": 5, "velocity": 67}, {"time": 1905, "pitch": 67, "duration": 5, "velocity": 54}, {"time": 1908, "pitch": 52, "duration": 12, "velocity": 55}, {"time": 1911, "pitch": 57, "duration": 12, "velocity": 85}, {"time": 1914, "pitch": 59, "duration": 4, "velocity": 85}, {"time": 1914, "pitch": 64, "duration": 1, "velocity": 54}, {"time": 1917, "pitch": 60, "duration": 4, "velocity": 67}, {"time": 1920, "pitch": 64, "duration": 3, "velocity": 88}, {"time": 1923, "pitch": 52, "duration": 1, "velocity": 75}, {"time": 1923, "pitch": 67, "duration": 3, "velocity": 76}, {"time": 1926, "pitch": 55, "duration": 1, "velocity": 33}, {"time": 1929, "pitch": 38, "duration": 7, "velocity": 76}, {"time": 1929, "pitch": 55, "duration": 3, "velocity": 67}, {"time": 1929, "pitch": 60, "duration": 4, "velocity": 70}, {"time": 1929, "pitch": 64, "duration": 4, "velocity": 72}, {"time": 1932, "pitch": 50, "duration": 6, "velocity": 62}, {"time": 1935, "pitch": 55, "duration": 3, "velocity": 93}, {"time": 1938, "pitch": 60, "duration": 2, "velocity": 62}, {"time": 1938, "pitch": 64, "duration": 1, "velocity": 56}, {"time": 1941, "pitch": 38, "duration": 3, "velocity": 72}, {"time": 1941, "pitch": 50, "duration": 1, "velocity": 47}, {"time": 1941, "pitch": 57, "duration": 4, "velocity": 82}, {"time": 1941, "pitch": 62, "duration": 4, "velocity": 75}, {"time": 1941, "pitch": 66, "duration": 4, "velocity": 88}, {"time": 1944, "pitch": 40, "duration": 3, "velocity": 66}, {"time": 1947, "pitch": 42, "duration": 2, "velocity": 82}, {"time": 1950, "pitch": 62, "duration": 1, "velocity": 61}, {"time": 1953, "pitch": 43, "duration": 20, "velocity": 76}, {"time": 1953, "pitch": 57, "duration": 6, "velocity": 91}, {"time": 1953, "pitch": 59, "duration": 6, "velocity": 78}, {"time": 1953, "pitch": 62, "duration": 6, "velocity": 66}, {"time": 1953, "pitch": 67, "duration": 6, "velocity": 64}, {"time": 1956, "pitch": 50, "duration": 17, "velocity": 75}, {"time": 1959, "pitch": 55, "duration": 11, "velocity": 82}, {"time": 1962, "pitch": 57, "duration": 2, "velocity": 76}, {"time": 1965, "pitch": 59, "duration": 2, "velocity": 73}, {"time": 1968, "pitch": 59, "duration": 1, "velocity": 59}, {"time": 1968, "pitch": 62, "duration": 3, "velocity": 85}, {"time": 1971, "pitch": 67, "duration": 1, "velocity": 80}, {"time": 1974, "pitch": 55, "duration": 2, "velocity": 82}, {"time": 1977, "pitch": 47, "duration": 18, "velocity": 70}, {"time": 1977, "pitch": 63, "duration": 9, "velocity": 78}, {"time": 1977, "pitch": 66, "duration": 9, "velocity": 91}, {"time": 1986, "pitch": 59, "duration": 6, "velocity": 49}, {"time": 1992, "pitch": 63, "duration": 4, "velocity": 97}, {"time": 1992, "pitch": 66, "duration": 6, "velocity": 97}, {"time": 1992, "pitch": 71, "duration": 3, "velocity": 80}, {"time": 1995, "pitch": 59, "duration": 1, "velocity": 62}, {"time": 1998, "pitch": 71, "duration": 2, "velocity": 72}, {"time": 2001, "pitch": 52, "duration": 20, "velocity": 69}, {"time": 2001, "pitch": 62, "duration": 4, "velocity": 85}, {"time": 2001, "pitch": 67, "duration": 4, "velocity": 78}, {"time": 2001, "pitch": 71, "duration": 3, "velocity": 66}, {"time": 2004, "pitch": 59, "duration": 12, "velocity": 66}, {"time": 2007, "pitch": 62, "duration": 4, "velocity": 66}, {"time": 2010, "pitch": 67, "duration": 3, "velocity": 66}, {"time": 2016, "pitch": 62, "duration": 3, "velocity": 76}, {"time": 2016, "pitch": 69, "duration": 4, "velocity": 88}, {"time": 2019, "pitch": 59, "duration": 2, "velocity": 73}, {"time": 2022, "pitch": 71, "duration": 1, "velocity": 54}, {"time": 2025, "pitch": 45, "duration": 18, "velocity": 62}, {"time": 2025, "pitch": 57, "duration": 4, "velocity": 66}, {"time": 2025, "pitch": 61, "duration": 9, "velocity": 69}, {"time": 2025, "pitch": 64, "duration": 7, "velocity": 73}, {"time": 2025, "pitch": 69, "duration": 9, "velocity": 69}, {"time": 2034, "pitch": 57, "duration": 7, "velocity": 57}, {"time": 2037, "pitch": 61, "duration": 5, "velocity": 80}, {"time": 2037, "pitch": 67, "duration": 3, "velocity": 80}, {"time": 2040, "pitch": 64, "duration": 4, "velocity": 78}, {"time": 2040, "pitch": 69, "duration": 4, "velocity": 72}, {"time": 2049, "pitch": 45, "duration": 18, "velocity": 76}, {"time": 2049, "pitch": 60, "duration": 6, "velocity": 69}, {"time": 2049, "pitch": 64, "duration": 6, "velocity": 72}, {"time": 2049, "pitch": 69, "duration": 6, "velocity": 64}, {"time": 2052, "pitch": 52, "duration": 16, "velocity": 61}, {"time": 2055, "pitch": 57, "duration": 9, "velocity": 78}, {"time": 2058, "pitch": 60, "duration": 2, "velocity": 76}, {"time": 2061, "pitch": 64, "duration": 5, "velocity": 70}, {"time": 2064, "pitch": 67, "duration": 4, "velocity": 85}, {"time": 2067, "pitch": 57, "duration": 2, "velocity": 66}, {"time": 2070, "pitch": 60, "duration": 2, "velocity": 56}, {"time": 2073, "pitch": 50, "duration": 19, "velocity": 70}, {"time": 2073, "pitch": 64, "duration": 5, "velocity": 67}, {"time": 2073, "pitch": 69, "duration": 6, "velocity": 75}, {"time": 2076, "pitch": 57, "duration": 16, "velocity": 56}, {"time": 2079, "pitch": 62, "duration": 12, "velocity": 62}, {"time": 2082, "pitch": 67, "duration": 3, "velocity": 66}, {"time": 2085, "pitch": 69, "duration": 1, "velocity": 69}, {"time": 2088, "pitch": 72, "duration": 2, "velocity": 72}, {"time": 2091, "pitch": 74, "duration": 2, "velocity": 69}, {"time": 2094, "pitch": 76, "duration": 3, "velocity": 59}, {"time": 2097, "pitch": 43, "duration": 21, "velocity": 69}, {"time": 2097, "pitch": 74, "duration": 4, "velocity": 72}, {"time": 2100, "pitch": 50, "duration": 18, "velocity": 61}, {"time": 2103, "pitch": 55, "duration": 12, "velocity": 64}, {"time": 2106, "pitch": 60, "duration": 3, "velocity": 70}, {"time": 2109, "pitch": 62, "duration": 2, "velocity": 56}, {"time": 2112, "pitch": 64, "duration": 2, "velocity": 75}, {"time": 2115, "pitch": 67, "duration": 2, "velocity": 59}, {"time": 2118, "pitch": 71, "duration": 2, "velocity": 76}, {"time": 2121, "pitch": 43, "duration": 5, "velocity": 75}, {"time": 2121, "pitch": 59, "duration": 3, "velocity": 80}, {"time": 2121, "pitch": 62, "duration": 3, "velocity": 82}, {"time": 2121, "pitch": 67, "duration": 3, "velocity": 76}, {"time": 2124, "pitch": 55, "duration": 1, "velocity": 51}, {"time": 2127, "pitch": 59, "duration": 3, "velocity": 54}, {"time": 2130, "pitch": 67, "duration": 3, "velocity": 70}, {"time": 2133, "pitch": 38, "duration": 3, "velocity": 70}, {"time": 2133, "pitch": 50, "duration": 3, "velocity": 66}, {"time": 2133, "pitch": 57, "duration": 4, "velocity": 93}, {"time": 2133, "pitch": 62, "duration": 4, "velocity": 72}, {"time": 2133, "pitch": 66, "duration": 5, "velocity": 76}, {"time": 2139, "pitch": 39, "duration": 2, "velocity": 78}, {"time": 2139, "pitch": 62, "duration": 1, "velocity": 75}, {"time": 2139, "pitch": 66, "duration": 1, "velocity": 78}, {"time": 2145, "pitch": 40, "duration": 19, "velocity": 73}, {"time": 2145, "pitch": 59, "duration": 6, "velocity": 85}, {"time": 2145, "pitch": 62, "duration": 5, "velocity": 91}, {"time": 2145, "pitch": 67, "duration": 6, "velocity": 82}, {"time": 2148, "pitch": 47, "duration": 16, "velocity": 66}, {"time": 2151, "pitch": 52, "duration": 9, "velocity": 78}, {"time": 2154, "pitch": 59, "duration": 2, "velocity": 85}, {"time": 2157, "pitch": 62, "duration": 1, "velocity": 38}, {"time": 2160, "pitch": 57, "duration": 4, "velocity": 82}, {"time": 2160, "pitch": 66, "duration": 4, "velocity": 103}, {"time": 2163, "pitch": 52, "duration": 1, "velocity": 61}, {"time": 2166, "pitch": 67, "duration": 2, "velocity": 75}, {"time": 2169, "pitch": 38, "duration": 3, "velocity": 80}, {"time": 2169, "pitch": 57, "duration": 9, "velocity": 91}, {"time": 2169, "pitch": 62, "duration": 9, "velocity": 95}, {"time": 2169, "pitch": 66, "duration": 9, "velocity": 97}, {"time": 2172, "pitch": 50, "duration": 3, "velocity": 66}, {"time": 2175, "pitch": 52, "duration": 3, "velocity": 62}, {"time": 2178, "pitch": 54, "duration": 9, "velocity": 95}, {"time": 2181, "pitch": 57, "duration": 2, "velocity": 82}, {"time": 2184, "pitch": 62, "duration": 3, "velocity": 93}, {"time": 2187, "pitch": 66, "duration": 3, "velocity": 76}, {"time": 2190, "pitch": 67, "duration": 2, "velocity": 78}, {"time": 2193, "pitch": 48, "duration": 19, "velocity": 67}, {"time": 2193, "pitch": 60, "duration": 3, "velocity": 80}, {"time": 2193, "pitch": 64, "duration": 4, "velocity": 88}, {"time": 2196, "pitch": 55, "duration": 16, "velocity": 67}, {"time": 2199, "pitch": 60, "duration": 9, "velocity": 58}, {"time": 2202, "pitch": 62, "duration": 1, "velocity": 82}, {"time": 2202, "pitch": 67, "duration": 1, "velocity": 91}, {"time": 2208, "pitch": 62, "duration": 3, "velocity": 58}, {"time": 2208, "pitch": 72, "duration": 4, "velocity": 88}, {"time": 2211, "pitch": 60, "duration": 1, "velocity": 61}, {"time": 2214, "pitch": 67, "duration": 2, "velocity": 64}, {"time": 2217, "pitch": 43, "duration": 5, "velocity": 64}, {"time": 2217, "pitch": 62, "duration": 5, "velocity": 88}, {"time": 2217, "pitch": 67, "duration": 5, "velocity": 75}, {"time": 2217, "pitch": 69, "duration": 1, "velocity": 66}, {"time": 2217, "pitch": 71, "duration": 5, "velocity": 88}, {"time": 2220, "pitch": 50, "duration": 3, "velocity": 46}, {"time": 2223, "pitch": 55, "duration": 3, "velocity": 64}, {"time": 2223, "pitch": 62, "duration": 1, "velocity": 59}, {"time": 2223, "pitch": 69, "duration": 2, "velocity": 66}, {"time": 2226, "pitch": 57, "duration": 4, "velocity": 59}, {"time": 2226, "pitch": 62, "duration": 4, "velocity": 66}, {"time": 2226, "pitch": 71, "duration": 3, "velocity": 91}, {"time": 2229, "pitch": 59, "duration": 1, "velocity": 70}, {"time": 2232, "pitch": 62, "duration": 1, "velocity": 69}, {"time": 2232, "pitch": 74, "duration": 2, "velocity": 85}, {"time": 2235, "pitch": 69, "duration": 2, "velocity": 80}, {"time": 2238, "pitch": 71, "duration": 2, "velocity": 85}, {"time": 2241, "pitch": 45, "duration": 5, "velocity": 72}, {"time": 2241, "pitch": 64, "duration": 4, "velocity": 78}, {"time": 2241, "pitch": 72, "duration": 5, "velocity": 75}, {"time": 2244, "pitch": 52, "duration": 3, "velocity": 54}, {"time": 2247, "pitch": 57, "duration": 4, "velocity": 67}, {"time": 2247, "pitch": 64, "duration": 1, "velocity": 66}, {"time": 2247, "pitch": 71, "duration": 2, "velocity": 69}, {"time": 2250, "pitch": 59, "duration": 4, "velocity": 67}, {"time": 2250, "pitch": 64, "duration": 4, "velocity": 88}, {"time": 2250, "pitch": 72, "duration": 4, "velocity": 73}, {"time": 2253, "pitch": 60, "duration": 1, "velocity": 75}, {"time": 2256, "pitch": 64, "duration": 2, "velocity": 85}, {"time": 2259, "pitch": 67, "duration": 1, "velocity": 72}, {"time": 2262, "pitch": 64, "duration": 7, "velocity": 88}, {"time": 2262, "pitch": 72, "duration": 7, "velocity": 76}, {"time": 2265, "pitch": 45, "duration": 16, "velocity": 67}, {"time": 2268, "pitch": 52, "duration": 8, "velocity": 59}, {"time": 2271, "pitch": 57, "duration": 6, "velocity": 91}, {"time": 2277, "pitch": 59, "duration": 2, "velocity": 91}, {"time": 2277, "pitch": 64, "duration": 2, "velocity": 93}, {"time": 2280, "pitch": 60, "duration": 2, "velocity": 95}, {"time": 2283, "pitch": 52, "duration": 1, "velocity": 66}, {"time": 2283, "pitch": 62, "duration": 1, "velocity": 80}, {"time": 2286, "pitch": 64, "duration": 1, "velocity": 88}, {"time": 2289, "pitch": 38, "duration": 18, "velocity": 73}, {"time": 2289, "pitch": 55, "duration": 3, "velocity": 91}, {"time": 2289, "pitch": 60, "duration": 4, "velocity": 88}, {"time": 2289, "pitch": 64, "duration": 3, "velocity": 93}, {"time": 2292, "pitch": 50, "duration": 12, "velocity": 72}, {"time": 2295, "pitch": 55, "duration": 1, "velocity": 78}, {"time": 2298, "pitch": 60, "duration": 4, "velocity": 99}, {"time": 2304, "pitch": 64, "duration": 2, "velocity": 106}, {"time": 2307, "pitch": 50, "duration": 1, "velocity": 69}, {"time": 2310, "pitch": 55, "duration": 1, "velocity": 72}, {"time": 2313, "pitch": 38, "duration": 4, "velocity": 76}, {"time": 2313, "pitch": 55, "duration": 1, "velocity": 93}, {"time": 2313, "pitch": 60, "duration": 3, "velocity": 99}, {"time": 2313, "pitch": 67, "duration": 3, "velocity": 78}, {"time": 2316, "pitch": 50, "duration": 2, "velocity": 85}, {"time": 2319, "pitch": 55, "duration": 2, "velocity": 91}, {"time": 2322, "pitch": 60, "duration": 1, "velocity": 75}, {"time": 2325, "pitch": 57, "duration": 5, "velocity": 82}, {"time": 2325, "pitch": 60, "duration": 5, "velocity": 88}, {"time": 2325, "pitch": 66, "duration": 6, "velocity": 82}, {"time": 2328, "pitch": 39, "duration": 5, "velocity": 109}, {"time": 2331, "pitch": 57, "duration": 1, "velocity": 75}, {"time": 2334, "pitch": 62, "duration": 1, "velocity": 49}, {"time": 2337, "pitch": 40, "duration": 18, "velocity": 76}, {"time": 2337, "pitch": 52, "duration": 4, "velocity": 95}, {"time": 2337, "pitch": 55, "duration": 10, "velocity": 93}, {"time": 2337, "pitch": 59, "duration": 10, "velocity": 99}, {"time": 2337, "pitch": 67, "duration": 9, "velocity": 82}, {"time": 2346, "pitch": 52, "duration": 6, "velocity": 66}, {"time": 2349, "pitch": 55, "duration": 4, "velocity": 95}, {"time": 2349, "pitch": 59, "duration": 4, "velocity": 97}, {"time": 2349, "pitch": 62, "duration": 4, "velocity": 91}, {"time": 2349, "pitch": 67, "duration": 4, "velocity": 76}, {"time": 2352, "pitch": 52, "duration": 5, "velocity": 76}, {"time": 2355, "pitch": 55, "duration": 2, "velocity": 88}, {"time": 2355, "pitch": 67, "duration": 1, "velocity": 45}, {"time": 2358, "pitch": 59, "duration": 2, "velocity": 67}, {"time": 2361, "pitch": 50, "duration": 7, "velocity": 88}, {"time": 2361, "pitch": 57, "duration": 9, "velocity": 75}, {"time": 2361, "pitch": 62, "duration": 9, "velocity": 75}, {"time": 2361, "pitch": 66, "duration": 9, "velocity": 73}, {"time": 2370, "pitch": 50, "duration": 4, "velocity": 72}, {"time": 2373, "pitch": 57, "duration": 4, "velocity": 72}, {"time": 2373, "pitch": 62, "duration": 4, "velocity": 97}, {"time": 2373, "pitch": 66, "duration": 4, "velocity": 97}, {"time": 2376, "pitch": 50, "duration": 4, "velocity": 72}, {"time": 2379, "pitch": 57, "duration": 3, "velocity": 78}, {"time": 2385, "pitch": 48, "duration": 18, "velocity": 85}, {"time": 2385, "pitch": 60, "duration": 5, "velocity": 82}, {"time": 2385, "pitch": 64, "duration": 5, "velocity": 93}, {"time": 2391, "pitch": 55, "duration": 12, "velocity": 48}, {"time": 2394, "pitch": 60, "duration": 4, "velocity": 73}, {"time": 2397, "pitch": 62, "duration": 3, "velocity": 91}, {"time": 2397, "pitch": 67, "duration": 3, "velocity": 99}, {"time": 2400, "pitch": 60, "duration": 2, "velocity": 56}, {"time": 2403, "pitch": 64, "duration": 1, "velocity": 78}, {"time": 2406, "pitch": 62, "duration": 5, "velocity": 76}, {"time": 2406, "pitch": 67, "duration": 5, "velocity": 85}, {"time": 2406, "pitch": 71, "duration": 4, "velocity": 76}, {"time": 2409, "pitch": 43, "duration": 19, "velocity": 70}, {"time": 2412, "pitch": 50, "duration": 16, "velocity": 53}, {"time": 2415, "pitch": 55, "duration": 13, "velocity": 76}, {"time": 2418, "pitch": 62, "duration": 4, "velocity": 95}, {"time": 2421, "pitch": 72, "duration": 2, "velocity": 82}, {"time": 2424, "pitch": 71, "duration": 2, "velocity": 85}, {"time": 2424, "pitch": 72, "duration": 1, "velocity": 49}, {"time": 2427, "pitch": 67, "duration": 2, "velocity": 85}, {"time": 2430, "pitch": 62, "duration": 1, "velocity": 80}, {"time": 2433, "pitch": 45, "duration": 19, "velocity": 70}, {"time": 2433, "pitch": 64, "duration": 4, "velocity": 93}, {"time": 2433, "pitch": 67, "duration": 3, "velocity": 78}, {"time": 2433, "pitch": 72, "duration": 3, "velocity": 75}, {"time": 2436, "pitch": 52, "duration": 19, "velocity": 64}, {"time": 2439, "pitch": 57, "duration": 5, "velocity": 69}, {"time": 2442, "pitch": 60, "duration": 5, "velocity": 82}, {"time": 2442, "pitch": 64, "duration": 7, "velocity": 85}, {"time": 2442, "pitch": 67, "duration": 3, "velocity": 91}, {"time": 2448, "pitch": 57, "duration": 5, "velocity": 66}, {"time": 2451, "pitch": 60, "duration": 1, "velocity": 75}, {"time": 2454, "pitch": 60, "duration": 3, "velocity": 91}, {"time": 2454, "pitch": 69, "duration": 4, "velocity": 76}, {"time": 2457, "pitch": 45, "duration": 19, "velocity": 63}, {"time": 2460, "pitch": 52, "duration": 13, "velocity": 48}, {"time": 2460, "pitch": 64, "duration": 1, "velocity": 50}, {"time": 2463, "pitch": 64, "duration": 1, "velocity": 80}, {"time": 2463, "pitch": 72, "duration": 1, "velocity": 73}, {"time": 2466, "pitch": 62, "duration": 1, "velocity": 91}, {"time": 2466, "pitch": 71, "duration": 4, "velocity": 85}, {"time": 2469, "pitch": 57, "duration": 2, "velocity": 45}, {"time": 2472, "pitch": 64, "duration": 1, "velocity": 91}, {"time": 2472, "pitch": 67, "duration": 1, "velocity": 93}, {"time": 2472, "pitch": 72, "duration": 3, "velocity": 88}, {"time": 2475, "pitch": 52, "duration": 1, "velocity": 63}, {"time": 2475, "pitch": 57, "duration": 1, "velocity": 91}, {"time": 2481, "pitch": 38, "duration": 16, "velocity": 75}, {"time": 2481, "pitch": 50, "duration": 3, "velocity": 66}, {"time": 2481, "pitch": 60, "duration": 4, "velocity": 85}, {"time": 2481, "pitch": 64, "duration": 1, "velocity": 46}, {"time": 2481, "pitch": 69, "duration": 1, "velocity": 56}, {"time": 2484, "pitch": 64, "duration": 2, "velocity": 44}, {"time": 2487, "pitch": 50, "duration": 4, "velocity": 93}, {"time": 2490, "pitch": 60, "duration": 5, "velocity": 95}, {"time": 2490, "pitch": 64, "duration": 6, "velocity": 95}, {"time": 2490, "pitch": 67, "duration": 3, "velocity": 103}, {"time": 2496, "pitch": 50, "duration": 1, "velocity": 66}, {"time": 2499, "pitch": 60, "duration": 2, "velocity": 101}, {"time": 2502, "pitch": 64, "duration": 2, "velocity": 76}, {"time": 2502, "pitch": 67, "duration": 1, "velocity": 69}, {"time": 2505, "pitch": 37, "duration": 7, "velocity": 85}, {"time": 2505, "pitch": 56, "duration": 3, "velocity": 85}, {"time": 2505, "pitch": 61, "duration": 4, "velocity": 93}, {"time": 2505, "pitch": 65, "duration": 3, "velocity": 91}, {"time": 2508, "pitch": 49, "duration": 8, "velocity": 95}, {"time": 2511, "pitch": 56, "duration": 3, "velocity": 97}, {"time": 2514, "pitch": 65, "duration": 2, "velocity": 69}, {"time": 2517, "pitch": 39, "duration": 9, "velocity": 91}, {"time": 2517, "pitch": 58, "duration": 4, "velocity": 76}, {"time": 2517, "pitch": 63, "duration": 4, "velocity": 78}, {"time": 2517, "pitch": 67, "duration": 4, "velocity": 101}, {"time": 2520, "pitch": 51, "duration": 6, "velocity": 95}, {"time": 2523, "pitch": 58, "duration": 3, "velocity": 88}, {"time": 2529, "pitch": 44, "duration": 16, "velocity": 70}, {"time": 2529, "pitch": 58, "duration": 5, "velocity": 75}, {"time": 2529, "pitch": 60, "duration": 5, "velocity": 76}, {"time": 2529, "pitch": 63, "duration": 6, "velocity": 72}, {"time": 2529, "pitch": 68, "duration": 6, "velocity": 70}, {"time": 2532, "pitch": 51, "duration": 14, "velocity": 69}, {"time": 2535, "pitch": 56, "duration": 10, "velocity": 76}, {"time": 2538, "pitch": 58, "duration": 2, "velocity": 78}, {"time": 2541, "pitch": 58, "duration": 1, "velocity": 39}, {"time": 2541, "pitch": 60, "duration": 1, "velocity": 70}, {"time": 2544, "pitch": 60, "duration": 4, "velocity": 66}, {"time": 2544, "pitch": 63, "duration": 4, "velocity": 82}, {"time": 2544, "pitch": 68, "duration": 4, "velocity": 36}, {"time": 2547, "pitch": 46, "duration": 2, "velocity": 61}, {"time": 2553, "pitch": 48, "duration": 18, "velocity": 78}, {"time": 2553, "pitch": 63, "duration": 3, "velocity": 73}, {"time": 2553, "pitch": 67, "duration": 4, "velocity": 95}, {"time": 2553, "pitch": 70, "duration": 3, "velocity": 78}, {"time": 2556, "pitch": 60, "duration": 12, "velocity": 46}, {"time": 2559, "pitch": 63, "duration": 1, "velocity": 57}, {"time": 2562, "pitch": 63, "duration": 4, "velocity": 55}, {"time": 2562, "pitch": 67, "duration": 4, "velocity": 73}, {"time": 2562, "pitch": 75, "duration": 4, "velocity": 82}, {"time": 2568, "pitch": 63, "duration": 4, "velocity": 69}, {"time": 2568, "pitch": 72, "duration": 4, "velocity": 91}, {"time": 2571, "pitch": 60, "duration": 2, "velocity": 75}, {"time": 2574, "pitch": 70, "duration": 1, "velocity": 49}, {"time": 2574, "pitch": 72, "duration": 2, "velocity": 73}, {"time": 2577, "pitch": 53, "duration": 19, "velocity": 70}, {"time": 2577, "pitch": 63, "duration": 2, "velocity": 76}, {"time": 2577, "pitch": 68, "duration": 6, "velocity": 91}, {"time": 2580, "pitch": 60, "duration": 13, "velocity": 69}, {"time": 2583, "pitch": 65, "duration": 11, "velocity": 49}, {"time": 2586, "pitch": 68, "duration": 4, "velocity": 91}, {"time": 2592, "pitch": 70, "duration": 5, "velocity": 93}, {"time": 2595, "pitch": 60, "duration": 4, "velocity": 69}, {"time": 2598, "pitch": 72, "duration": 1, "velocity": 67}, {"time": 2601, "pitch": 51, "duration": 19, "velocity": 58}, {"time": 2601, "pitch": 63, "duration": 3, "velocity": 66}, {"time": 2601, "pitch": 68, "duration": 6, "velocity": 69}, {"time": 2601, "pitch": 72, "duration": 5, "velocity": 75}, {"time": 2604, "pitch": 60, "duration": 16, "velocity": 64}, {"time": 2607, "pitch": 63, "duration": 12, "velocity": 73}, {"time": 2610, "pitch": 68, "duration": 3, "velocity": 73}, {"time": 2613, "pitch": 70, "duration": 2, "velocity": 76}, {"time": 2616, "pitch": 72, "duration": 4, "velocity": 82}, {"time": 2619, "pitch": 75, "duration": 2, "velocity": 49}, {"time": 2622, "pitch": 80, "duration": 2, "velocity": 61}, {"time": 2625, "pitch": 49, "duration": 20, "velocity": 72}, {"time": 2625, "pitch": 68, "duration": 5, "velocity": 61}, {"time": 2625, "pitch": 73, "duration": 5, "velocity": 76}, {"time": 2625, "pitch": 77, "duration": 4, "velocity": 73}, {"time": 2628, "pitch": 56, "duration": 16, "velocity": 64}, {"time": 2631, "pitch": 61, "duration": 9, "velocity": 58}, {"time": 2634, "pitch": 63, "duration": 4, "velocity": 73}, {"time": 2634, "pitch": 68, "duration": 4, "velocity": 82}, {"time": 2640, "pitch": 65, "duration": 4, "velocity": 85}, {"time": 2640, "pitch": 70, "duration": 4, "velocity": 70}, {"time": 2643, "pitch": 61, "duration": 1, "velocity": 66}, {"time": 2646, "pitch": 63, "duration": 1, "velocity": 49}, {"time": 2649, "pitch": 48, "duration": 19, "velocity": 73}, {"time": 2649, "pitch": 63, "duration": 3, "velocity": 67}, {"time": 2649, "pitch": 67, "duration": 4, "velocity": 85}, {"time": 2649, "pitch": 70, "duration": 4, "velocity": 70}, {"time": 2652, "pitch": 60, "duration": 4, "velocity": 59}, {"time": 2655, "pitch": 63, "duration": 4, "velocity": 72}, {"time": 2658, "pitch": 75, "duration": 3, "velocity": 73}, {"time": 2661, "pitch": 60, "duration": 2, "velocity": 43}, {"time": 2664, "pitch": 63, "duration": 4, "velocity": 61}, {"time": 2664, "pitch": 68, "duration": 3, "velocity": 85}, {"time": 2664, "pitch": 72, "duration": 3, "velocity": 82}, {"time": 2667, "pitch": 60, "duration": 1, "velocity": 69}, {"time": 2670, "pitch": 47, "duration": 3, "velocity": 76}, {"time": 2673, "pitch": 46, "duration": 19, "velocity": 80}, {"time": 2673, "pitch": 61, "duration": 5, "velocity": 69}, {"time": 2673, "pitch": 65, "duration": 5, "velocity": 67}, {"time": 2673, "pitch": 68, "duration": 5, "velocity": 54}, {"time": 2676, "pitch": 53, "duration": 12, "velocity": 55}, {"time": 2679, "pitch": 58, "duration": 12, "velocity": 85}, {"time": 2682, "pitch": 60, "duration": 4, "velocity": 85}, {"time": 2682, "pitch": 65, "duration": 1, "velocity": 54}, {"time": 2685, "pitch": 61, "duration": 4, "velocity": 67}, {"time": 2688, "pitch": 65, "duration": 3, "velocity": 88}, {"time": 2691, "pitch": 53, "duration": 1, "velocity": 75}, {"time": 2691, "pitch": 68, "duration": 3, "velocity": 76}, {"time": 2694, "pitch": 56, "duration": 1, "velocity": 33}, {"time": 2697, "pitch": 39, "duration": 7, "velocity": 76}, {"time": 2697, "pitch": 56, "duration": 3, "velocity": 67}, {"time": 2697, "pitch": 61, "duration": 4, "velocity": 70}, {"time": 2697, "pitch": 65, "duration": 4, "velocity": 72}, {"time": 2700, "pitch": 51, "duration": 6, "velocity": 62}, {"time": 2703, "pitch": 56, "duration": 3, "velocity": 93}, {"time": 2706, "pitch": 61, "duration": 2, "velocity": 62}, {"time": 2706, "pitch": 65, "duration": 1, "velocity": 56}, {"time": 2709, "pitch": 39, "duration": 3, "velocity": 72}, {"time": 2709, "pitch": 51, "duration": 1, "velocity": 47}, {"time": 2709, "pitch": 58, "duration": 4, "velocity": 82}, {"time": 2709, "pitch": 63, "duration": 4, "velocity": 75}, {"time": 2709, "pitch": 67, "duration": 4, "velocity": 88}, {"time": 2712, "pitch": 41, "duration": 3, "velocity": 66}, {"time": 2715, "pitch": 43, "duration": 2, "velocity": 82}, {"time": 2718, "pitch": 63, "duration": 1, "velocity": 61}, {"time": 2721, "pitch": 44, "duration": 20, "velocity": 76}, {"time": 2721, "pitch": 58, "duration": 6, "velocity": 91}, {"time": 2721, "pitch": 60, "duration": 6, "velocity": 78}, {"time": 2721, "pitch": 63, "duration": 6, "velocity": 66}, {"time": 2721, "pitch": 68, "duration": 6, "velocity": 64}, {"time": 2724, "pitch": 51, "duration": 17, "velocity": 75}, {"time": 2727, "pitch": 56, "duration": 11, "velocity": 82}, {"time": 2730, "pitch": 58, "duration": 2, "velocity": 76}, {"time": 2733, "pitch": 60, "duration": 2, "velocity": 73}, {"time": 2736, "pitch": 60, "duration": 1, "velocity": 59}, {"time": 2736, "pitch": 63, "duration": 3, "velocity": 85}, {"time": 2739, "pitch": 68, "duration": 1, "velocity": 80}, {"time": 2742, "pitch": 56, "duration": 2, "velocity": 82}, {"time": 2745, "pitch": 48, "duration": 18, "velocity": 70}, {"time": 2745, "pitch": 64, "duration": 9, "velocity": 78}, {"time": 2745, "pitch": 67, "duration": 9, "velocity": 91}, {"time": 2754, "pitch": 60, "duration": 6, "velocity": 49}, {"time": 2760, "pitch": 64, "duration": 4, "velocity": 97}, {"time": 2760, "pitch": 67, "duration": 6, "velocity": 97}, {"time": 2760, "pitch": 72, "duration": 3, "velocity": 80}, {"time": 2763, "pitch": 60, "duration": 1, "velocity": 62}, {"time": 2766, "pitch": 72, "duration": 2, "velocity": 72}, {"time": 2769, "pitch": 53, "duration": 20, "velocity": 69}, {"time": 2769, "pitch": 63, "duration": 4, "velocity": 85}, {"time": 2769, "pitch": 68, "duration": 4, "velocity": 78}, {"time": 2769, "pitch": 72, "duration": 3, "velocity": 66}, {"time": 2772, "pitch": 60, "duration": 12, "velocity": 66}, {"time": 2775, "pitch": 63, "duration": 4, "velocity": 66}, {"time": 2778, "pitch": 68, "duration": 3, "velocity": 66}, {"time": 2784, "pitch": 63, "duration": 3, "velocity": 76}, {"time": 2784, "pitch": 70, "duration": 4, "velocity": 88}, {"time": 2787, "pitch": 60, "duration": 2, "velocity": 73}, {"time": 2790, "pitch": 72, "duration": 1, "velocity": 54}, {"time": 2793, "pitch": 46, "duration": 18, "velocity": 62}, {"time": 2793, "pitch": 58, "duration": 4, "velocity": 66}, {"time": 2793, "pitch": 62, "duration": 9, "velocity": 69}, {"time": 2793, "pitch": 65, "duration": 7, "velocity": 73}, {"time": 2793, "pitch": 70, "duration": 9, "velocity": 69}, {"time": 2802, "pitch": 58, "duration": 7, "velocity": 57}, {"time": 2805, "pitch": 62, "duration": 5, "velocity": 80}, {"time": 2805, "pitch": 68, "duration": 3, "velocity": 80}, {"time": 2808, "pitch": 65, "duration": 4, "velocity": 78}, {"time": 2808, "pitch": 70, "duration": 4, "velocity": 72}, {"time": 2817, "pitch": 46, "duration": 18, "velocity": 76}, {"time": 2817, "pitch": 61, "duration": 6, "velocity": 69}, {"time": 2817, "pitch": 65, "duration": 6, "velocity": 72}, {"time": 2817, "pitch": 70, "duration": 6, "velocity": 64}, {"time": 2820, "pitch": 53, "duration": 16, "velocity": 61}, {"time": 2823, "pitch": 58, "duration": 9, "velocity": 78}, {"time": 2826, "pitch": 61, "duration": 2, "velocity": 76}, {"time": 2829, "pitch": 65, "duration": 5, "velocity": 70}, {"time": 2832, "pitch": 68, "duration": 4, "velocity": 85}, {"time": 2835, "pitch": 58, "duration": 2, "velocity": 66}, {"time": 2838, "pitch": 61, "duration": 2, "velocity": 56}, {"time": 2841, "pitch": 51, "duration": 19, "velocity": 70}, {"time": 2841, "pitch": 65, "duration": 5, "velocity": 67}, {"time": 2841, "pitch": 70, "duration": 6, "velocity": 75}, {"time": 2844, "pitch": 58, "duration": 16, "velocity": 56}, {"time": 2847, "pitch": 63, "duration": 12, "velocity": 62}, {"time": 2850, "pitch": 68, "duration": 3, "velocity": 66}, {"time": 2853, "pitch": 70, "duration": 1, "velocity": 69}, {"time": 2856, "pitch": 73, "duration": 2, "velocity": 72}, {"time": 2859, "pitch": 75, "duration": 2, "velocity": 69}, {"time": 2862, "pitch": 77, "duration": 3, "velocity": 59}, {"time": 2865, "pitch": 44, "duration": 21, "velocity": 69}, {"time": 2865, "pitch": 75, "duration": 4, "velocity": 72}, {"time": 2868, "pitch": 51, "duration": 18, "velocity": 61}, {"time": 2871, "pitch": 56, "duration": 12, "velocity": 64}, {"time": 2874, "pitch": 61, "duration": 3, "velocity": 70}, {"time": 2877, "pitch": 63, "duration": 2, "velocity": 56}, {"time": 2880, "pitch": 65, "duration": 2, "velocity": 75}, {"time": 2883, "pitch": 68, "duration": 2, "velocity": 59}, {"time": 2886, "pitch": 72, "duration": 2, "velocity": 76}, {"time": 2889, "pitch": 44, "duration": 24, "velocity": 59}, {"time": 2889, "pitch": 56, "duration": 13, "velocity": 57}, {"time": 2889, "pitch": 60, "duration": 6, "velocity": 62}, {"time": 2889, "pitch": 63, "duration": 6, "velocity": 69}, {"time": 2889, "pitch": 68, "duration": 9, "velocity": 63}, {"time": 2901, "pitch": 58, "duration": 8, "velocity": 91}, {"time": 2901, "pitch": 63, "duration": 6, "velocity": 95}, {"time": 2901, "pitch": 68, "duration": 2, "velocity": 70}, {"time": 2907, "pitch": 56, "duration": 13, "velocity": 72}, {"time": 2913, "pitch": 49, "duration": 17, "velocity": 64}, {"time": 2913, "pitch": 61, "duration": 6, "velocity": 67}, {"time": 2913, "pitch": 65, "duration": 7, "velocity": 62}, {"time": 2913, "pitch": 68, "duration": 10, "velocity": 35}, {"time": 2925, "pitch": 56, "duration": 6, "velocity": 57}, {"time": 2925, "pitch": 61, "duration": 6, "velocity": 73}, {"time": 2925, "pitch": 65, "duration": 7, "velocity": 67}, {"time": 2937, "pitch": 48, "duration": 7, "velocity": 60}, {"time": 2937, "pitch": 58, "duration": 6, "velocity": 58}, {"time": 2937, "pitch": 63, "duration": 6, "velocity": 67}, {"time": 2937, "pitch": 67, "duration": 6, "velocity": 61}, {"time": 2952, "pitch": 56, "duration": 4, "velocity": 54}, {"time": 2955, "pitch": 63, "duration": 4, "velocity": 75}, {"time": 2961, "pitch": 41, "duration": 18, "velocity": 60}, {"time": 2961, "pitch": 53, "duration": 17, "velocity": 59}, {"time": 2961, "pitch": 56, "duration": 7, "velocity": 56}, {"time": 2961, "pitch": 61, "duration": 8, "velocity": 69}, {"time": 2961, "pitch": 65, "duration": 7, "velocity": 63}, {"time": 2976, "pitch": 56, "duration": 4, "velocity": 56}, {"time": 2979, "pitch": 61, "duration": 3, "velocity": 67}, {"time": 2982, "pitch": 68, "duration": 8, "velocity": 67}, {"time": 2985, "pitch": 39, "duration": 17, "velocity": 63}, {"time": 2985, "pitch": 51, "duration": 18, "velocity": 53}, {"time": 2985, "pitch": 56, "duration": 5, "velocity": 63}, {"time": 2985, "pitch": 61, "duration": 6, "velocity": 67}, {"time": 2985, "pitch": 65, "duration": 6, "velocity": 67}, {"time": 2997, "pitch": 58, "duration": 3, "velocity": 63}, {"time": 2997, "pitch": 63, "duration": 2, "velocity": 70}, {"time": 2997, "pitch": 67, "duration": 4, "velocity": 69}, {"time": 3009, "pitch": 49, "duration": 19, "velocity": 70}, {"time": 3009, "pitch": 63, "duration": 5, "velocity": 66}, {"time": 3009, "pitch": 65, "duration": 6, "velocity": 62}, {"time": 3009, "pitch": 68, "duration": 5, "velocity": 76}, {"time": 3012, "pitch": 56, "duration": 14, "velocity": 58}, {"time": 3015, "pitch": 61, "duration": 12, "velocity": 66}, {"time": 3018, "pitch": 63, "duration": 6, "velocity": 85}, {"time": 3024, "pitch": 68, "duration": 3, "velocity": 85}, {"time": 3030, "pitch": 63, "duration": 2, "velocity": 58}, {"time": 3030, "pitch": 68, "duration": 2, "velocity": 55}, {"time": 3033, "pitch": 48, "duration": 16, "velocity": 59}, {"time": 3033, "pitch": 70, "duration": 7, "velocity": 60}, {"time": 3036, "pitch": 56, "duration": 12, "velocity": 52}, {"time": 3039, "pitch": 60, "duration": 8, "velocity": 53}, {"time": 3042, "pitch": 63, "duration": 3, "velocity": 70}, {"time": 3042, "pitch": 68, "duration": 5, "velocity": 63}, {"time": 3048, "pitch": 70, "duration": 2, "velocity": 59}, {"time": 3051, "pitch": 72, "duration": 2, "velocity": 62}, {"time": 3054, "pitch": 72, "duration": 1, "velocity": 24}, {"time": 3054, "pitch": 75, "duration": 1, "velocity": 63}, {"time": 3057, "pitch": 46, "duration": 17, "velocity": 64}, {"time": 3057, "pitch": 65, "duration": 3, "velocity": 60}, {"time": 3057, "pitch": 73, "duration": 6, "velocity": 75}, {"time": 3060, "pitch": 53, "duration": 13, "velocity": 47}, {"time": 3063, "pitch": 63, "duration": 1, "velocity": 49}, {"time": 3063, "pitch": 72, "duration": 2, "velocity": 61}, {"time": 3066, "pitch": 63, "duration": 2, "velocity": 61}, {"time": 3066, "pitch": 70, "duration": 2, "velocity": 62}, {"time": 3069, "pitch": 58, "duration": 3, "velocity": 37}, {"time": 3072, "pitch": 63, "duration": 2, "velocity": 62}, {"time": 3072, "pitch": 68, "duration": 2, "velocity": 73}, {"time": 3078, "pitch": 61, "duration": 2, "velocity": 48}, {"time": 3081, "pitch": 39, "duration": 12, "velocity": 59}, {"time": 3081, "pitch": 51, "duration": 12, "velocity": 41}, {"time": 3081, "pitch": 65, "duration": 3, "velocity": 58}, {"time": 3081, "pitch": 68, "duration": 5, "velocity": 45}, {"time": 3087, "pitch": 61, "duration": 2, "velocity": 54}, {"time": 3087, "pitch": 70, "duration": 5, "velocity": 72}, {"time": 3093, "pitch": 43, "duration": 6, "velocity": 50}, {"time": 3093, "pitch": 61, "duration": 5, "velocity": 49}, {"time": 3093, "pitch": 67, "duration": 4, "velocity": 70}, {"time": 3105, "pitch": 44, "duration": 34, "velocity": 63}, {"time": 3105, "pitch": 61, "duration": 2, "velocity": 52}, {"time": 3105, "pitch": 63, "duration": 6, "velocity": 69}, {"time": 3105, "pitch": 68, "duration": 7, "velocity": 40}, {"time": 3111, "pitch": 51, "duration": 24, "velocity": 31}, {"time": 3114, "pitch": 56, "duration": 24, "velocity": 56}, {"time": 3117, "pitch": 68, "duration": 3, "velocity": 45}, {"time": 3120, "pitch": 73, "duration": 2, "velocity": 62}, {"time": 3123, "pitch": 75, "duration": 3, "velocity": 53}, {"time": 3129, "pitch": 68, "duration": 8, "velocity": 44}, {"time": 3129, "pitch": 80, "duration": 8, "velocity": 42}], "annotations": [{"time": 33, "annotation": {"number": 64, "value": 127}, "group": "control_change"}, {"time": 57, "annotation": {"number": 64, "value": 0}, "group": "control_change"}, {"time": 59, "annotation": {"number": 64, "value": 127}, "group": "control_change"}, {"time": 81, "annotation": {"number": 64, "value": 0}, "group": "control_change"}, {"time": 83, "annotation": {"number": 64, "value": 127}, "group": "control_change"}, {"time": 104, "annotation": {"number": 64, "value": 0}, "group": "control_change"}, {"time": 106, "annotation": {"number": 64, "value": 127}, "group": "control_change"}, {"time": 129, "annotation": {"number": 64, "value": 0}, "group": "control_change"}, {"time": 131, "annotation": {"number": 64, "value": 127}, "group": "control_change"}, {"time": 177, "annotation": {"number": 64, "value": 0}, "group": "control_change"}, {"time": 177, "annotation": {"number": 64, "value": 127}, "group": "control_change"}, {"time": 201, "annotation": {"number": 64, "value": 0}, "group": "control_change"}, {"time": 203, "annotation": {"number": 64, "value": 127}, "group": "control_change"}, {"time": 213, "annotation": {"number": 64, "value": 0}, "group": "control_change"}, {"time": 216, "annotation": {"number": 64, "value": 127}, "group": "control_change"}, {"time": 224, "annotation": {"number": 64, "value": 0}, "group": "control_change"}, {"time": 225, "annotation": {"number": 64, "value": 127}, "group": "control_change"}, {"time": 272, "annotation": {"number": 64, "value": 0}, "group": "control_change"}, {"time": 275, "annotation": {"number": 64, "value": 127}, "group": "control_change"}, {"time": 308, "annotation": {"number": 64, "value": 0}, "group": "control_change"}, {"time": 310, "annotation": {"number": 64, "value": 127}, "group": "control_change"}, {"time": 321, "annotation": {"number": 64, "value": 0}, "group": "control_change"}, {"time": 324, "annotation": {"number": 64, "value": 127}, "group": "control_change"}, {"time": 369, "annotation": {"number": 64, "value": 0}, "group": "control_change"}, {"time": 371, "annotation": {"number": 64, "value": 127}, "group": "control_change"}, {"time": 393, "annotation": {"number": 64, "value": 0}, "group": "control_change"}, {"time": 393, "annotation": {"number": 64, "value": 127}, "group": "control_change"}, {"time": 405, "annotation": {"number": 64, "value": 0}, "group": "control_change"}, {"time": 407, "annotation": {"number": 64, "value": 127}, "group": "control_change"}, {"time": 417, "annotation": {"number": 64, "value": 0}, "group": "control_change"}, {"time": 419, "annotation": {"number": 64, "value": 127}, "group": "control_change"}, {"time": 442, "annotation": {"number": 64, "value": 0}, "group": "control_change"}, {"time": 444, "annotation": {"number": 64, "value": 127}, "group": "control_change"}, {"time": 466, "annotation": {"number": 64, "value": 0}, "group": "control_change"}, {"time": 468, "annotation": {"number": 64, "value": 127}, "group": "control_change"}, {"time": 490, "annotation": {"number": 64, "value": 0}, "group": "control_change"}, {"time": 492, "annotation": {"number": 64, "value": 127}, "group": "control_change"}, {"time": 512, "annotation": {"number": 64, "value": 0}, "group": "control_change"}, {"time": 514, "annotation": {"number": 64, "value": 127}, "group": "control_change"}, {"time": 561, "annotation": {"number": 64, "value": 0}, "group": "control_change"}, {"time": 562, "annotation": {"number": 64, "value": 127}, "group": "control_change"}, {"time": 584, "annotation": {"number": 64, "value": 0}, "group": "control_change"}, {"time": 587, "annotation": {"number": 64, "value": 127}, "group": "control_change"}, {"time": 609, "annotation": {"number": 64, "value": 0}, "group": "control_change"}, {"time": 612, "annotation": {"number": 64, "value": 127}, "group": "control_change"}, {"time": 656, "annotation": {"number": 64, "value": 0}, "group": "control_change"}, {"time": 659, "annotation": {"number": 64, "value": 127}, "group": "control_change"}, {"time": 682, "annotation": {"number": 64, "value": 0}, "group": "control_change"}, {"time": 684, "annotation": {"number": 64, "value": 127}, "group": "control_change"}, {"time": 706, "annotation": {"number": 64, "value": 0}, "group": "control_change"}, {"time": 709, "annotation": {"number": 64, "value": 127}, "group": "control_change"}, {"time": 753, "annotation": {"number": 64, "value": 0}, "group": "control_change"}, {"time": 756, "annotation": {"number": 64, "value": 127}, "group": "control_change"}, {"time": 777, "annotation": {"number": 64, "value": 0}, "group": "control_change"}, {"time": 780, "annotation": {"number": 64, "value": 127}, "group": "control_change"}, {"time": 789, "annotation": {"number": 64, "value": 0}, "group": "control_change"}, {"time": 792, "annotation": {"number": 64, "value": 127}, "group": "control_change"}, {"time": 802, "annotation": {"number": 64, "value": 0}, "group": "control_change"}, {"time": 804, "annotation": {"number": 64, "value": 127}, "group": "control_change"}, {"time": 826, "annotation": {"number": 64, "value": 0}, "group": "control_change"}, {"time": 827, "annotation": {"number": 64, "value": 127}, "group": "control_change"}, {"time": 849, "annotation": {"number": 64, "value": 0}, "group": "control_change"}, {"time": 851, "annotation": {"number": 64, "value": 127}, "group": "control_change"}, {"time": 873, "annotation": {"number": 64, "value": 0}, "group": "control_change"}, {"time": 875, "annotation": {"number": 64, "value": 127}, "group": "control_change"}, {"time": 897, "annotation": {"number": 64, "value": 0}, "group": "control_change"}, {"time": 899, "annotation": {"number": 64, "value": 127}, "group": "control_change"}, {"time": 945, "annotation": {"number": 64, "value": 0}, "group": "control_change"}, {"time": 947, "annotation": {"number": 64, "value": 127}, "group": "control_change"}, {"time": 969, "annotation": {"number": 64, "value": 0}, "group": "control_change"}, {"time": 975, "annotation": {"number": 64, "value": 127}, "group": "control_change"}, {"time": 993, "annotation": {"number": 64, "value": 0}, "group": "control_change"}, {"time": 994, "annotation": {"number": 64, "value": 127}, "group": "control_change"}, {"time": 1017, "annotation": {"number": 64, "value": 0}, "group": "control_change"}, {"time": 1020, "annotation": {"number": 64, "value": 127}, "group": "control_change"}, {"time": 1041, "annotation": {"number": 64, "value": 0}, "group": "control_change"}, {"time": 1043, "annotation": {"number": 64, "value": 127}, "group": "control_change"}, {"time": 1066, "annotation": {"number": 64, "value": 0}, "group": "control_change"}, {"time": 1068, "annotation": {"number": 64, "value": 127}, "group": "control_change"}, {"time": 1089, "annotation": {"number": 64, "value": 0}, "group": "control_change"}, {"time": 1092, "annotation": {"number": 64, "value": 127}, "group": "control_change"}, {"time": 1113, "annotation": {"number": 64, "value": 0}, "group": "control_change"}, {"time": 1116, "annotation": {"number": 64, "value": 127}, "group": "control_change"}, {"time": 1137, "annotation": {"number": 64, "value": 0}, "group": "control_change"}, {"time": 1139, "annotation": {"number": 64, "value": 127}, "group": "control_change"}, {"time": 1162, "annotation": {"number": 64, "value": 0}, "group": "control_change"}, {"time": 1164, "annotation": {"number": 64, "value": 127}, "group": "control_change"}, {"time": 1173, "annotation": {"number": 64, "value": 0}, "group": "control_change"}, {"time": 1175, "annotation": {"number": 64, "value": 127}, "group": "control_change"}, {"time": 1185, "annotation": {"number": 64, "value": 0}, "group": "control_change"}, {"time": 1188, "annotation": {"number": 64, "value": 127}, "group": "control_change"}, {"time": 1209, "annotation": {"number": 64, "value": 0}, "group": "control_change"}, {"time": 1212, "annotation": {"number": 64, "value": 127}, "group": "control_change"}, {"time": 1233, "annotation": {"number": 64, "value": 0}, "group": "control_change"}, {"time": 1235, "annotation": {"number": 64, "value": 127}, "group": "control_change"}, {"time": 1256, "annotation": {"number": 64, "value": 0}, "group": "control_change"}, {"time": 1257, "annotation": {"number": 64, "value": 127}, "group": "control_change"}, {"time": 1281, "annotation": {"number": 64, "value": 0}, "group": "control_change"}, {"time": 1282, "annotation": {"number": 64, "value": 127}, "group": "control_change"}, {"time": 1306, "annotation": {"number": 64, "value": 0}, "group": "control_change"}, {"time": 1309, "annotation": {"number": 64, "value": 127}, "group": "control_change"}, {"time": 1330, "annotation": {"number": 64, "value": 0}, "group": "control_change"}, {"time": 1332, "annotation": {"number": 64, "value": 127}, "group": "control_change"}, {"time": 1355, "annotation": {"number": 64, "value": 0}, "group": "control_change"}, {"time": 1358, "annotation": {"number": 64, "value": 127}, "group": "control_change"}, {"time": 1377, "annotation": {"number": 64, "value": 0}, "group": "control_change"}, {"time": 1377, "annotation": {"number": 64, "value": 127}, "group": "control_change"}, {"time": 1424, "annotation": {"number": 64, "value": 0}, "group": "control_change"}, {"time": 1427, "annotation": {"number": 64, "value": 127}, "group": "control_change"}, {"time": 1460, "annotation": {"number": 64, "value": 0}, "group": "control_change"}, {"time": 1462, "annotation": {"number": 64, "value": 127}, "group": "control_change"}, {"time": 1473, "annotation": {"number": 64, "value": 0}, "group": "control_change"}, {"time": 1476, "annotation": {"number": 64, "value": 127}, "group": "control_change"}, {"time": 1521, "annotation": {"number": 64, "value": 0}, "group": "control_change"}, {"time": 1523, "annotation": {"number": 64, "value": 127}, "group": "control_change"}, {"time": 1545, "annotation": {"number": 64, "value": 0}, "group": "control_change"}, {"time": 1545, "annotation": {"number": 64, "value": 127}, "group": "control_change"}, {"time": 1557, "annotation": {"number": 64, "value": 0}, "group": "control_change"}, {"time": 1559, "annotation": {"number": 64, "value": 127}, "group": "control_change"}, {"time": 1569, "annotation": {"number": 64, "value": 0}, "group": "control_change"}, {"time": 1571, "annotation": {"number": 64, "value": 127}, "group": "control_change"}, {"time": 1594, "annotation": {"number": 64, "value": 0}, "group": "control_change"}, {"time": 1596, "annotation": {"number": 64, "value": 127}, "group": "control_change"}, {"time": 1618, "annotation": {"number": 64, "value": 0}, "group": "control_change"}, {"time": 1620, "annotation": {"number": 64, "value": 127}, "group": "control_change"}, {"time": 1642, "annotation": {"number": 64, "value": 0}, "group": "control_change"}, {"time": 1644, "annotation": {"number": 64, "value": 127}, "group": "control_change"}, {"time": 1664, "annotation": {"number": 64, "value": 0}, "group": "control_change"}, {"time": 1666, "annotation": {"number": 64, "value": 127}, "group": "control_change"}, {"time": 1713, "annotation": {"number": 64, "value": 0}, "group": "control_change"}, {"time": 1714, "annotation": {"number": 64, "value": 127}, "group": "control_change"}, {"time": 1736, "annotation": {"number": 64, "value": 0}, "group": "control_change"}, {"time": 1739, "annotation": {"number": 64, "value": 127}, "group": "control_change"}, {"time": 1761, "annotation": {"number": 64, "value": 0}, "group": "control_change"}, {"time": 1762, "annotation": {"number": 64, "value": 127}, "group": "control_change"}, {"time": 1785, "annotation": {"number": 64, "value": 0}, "group": "control_change"}, {"time": 1788, "annotation": {"number": 64, "value": 127}, "group": "control_change"}, {"time": 1809, "annotation": {"number": 64, "value": 0}, "group": "control_change"}, {"time": 1811, "annotation": {"number": 64, "value": 127}, "group": "control_change"}, {"time": 1834, "annotation": {"number": 64, "value": 0}, "group": "control_change"}, {"time": 1836, "annotation": {"number": 64, "value": 127}, "group": "control_change"}, {"time": 1857, "annotation": {"number": 64, "value": 0}, "group": "control_change"}, {"time": 1860, "annotation": {"number": 64, "value": 127}, "group": "control_change"}, {"time": 1881, "annotation": {"number": 64, "value": 0}, "group": "control_change"}, {"time": 1884, "annotation": {"number": 64, "value": 127}, "group": "control_change"}, {"time": 1905, "annotation": {"number": 64, "value": 0}, "group": "control_change"}, {"time": 1907, "annotation": {"number": 64, "value": 127}, "group": "control_change"}, {"time": 1930, "annotation": {"number": 64, "value": 0}, "group": "control_change"}, {"time": 1932, "annotation": {"number": 64, "value": 127}, "group": "control_change"}, {"time": 1941, "annotation": {"number": 64, "value": 0}, "group": "control_change"}, {"time": 1943, "annotation": {"number": 64, "value": 127}, "group": "control_change"}, {"time": 1953, "annotation": {"number": 64, "value": 0}, "group": "control_change"}, {"time": 1956, "annotation": {"number": 64, "value": 127}, "group": "control_change"}, {"time": 1977, "annotation": {"number": 64, "value": 0}, "group": "control_change"}, {"time": 1980, "annotation": {"number": 64, "value": 127}, "group": "control_change"}, {"time": 2001, "annotation": {"number": 64, "value": 0}, "group": "control_change"}, {"time": 2003, "annotation": {"number": 64, "value": 127}, "group": "control_change"}, {"time": 2024, "annotation": {"number": 64, "value": 0}, "group": "control_change"}, {"time": 2025, "annotation": {"number": 64, "value": 127}, "group": "control_change"}, {"time": 2049, "annotation": {"number": 64, "value": 0}, "group": "control_change"}, {"time": 2050, "annotation": {"number": 64, "value": 127}, "group": "control_change"}, {"time": 2074, "annotation": {"number": 64, "value": 0}, "group": "control_change"}, {"time": 2077, "annotation": {"number": 64, "value": 127}, "group": "control_change"}, {"time": 2098, "annotation": {"number": 64, "value": 0}, "group": "control_change"}, {"time": 2100, "annotation": {"number": 64, "value": 127}, "group": "control_change"}, {"time": 2121, "annotation": {"number": 64, "value": 0}, "group": "control_change"}, {"time": 2121, "annotation": {"number": 64, "value": 127}, "group": "control_change"}, {"time": 2132, "annotation": {"number": 64, "value": 0}, "group": "control_change"}, {"time": 2134, "annotation": {"number": 64, "value": 127}, "group": "control_change"}, {"time": 2144, "annotation": {"number": 64, "value": 0}, "group": "control_change"}, {"time": 2147, "annotation": {"number": 64, "value": 127}, "group": "control_change"}, {"time": 2169, "annotation": {"number": 64, "value": 0}, "group": "control_change"}, {"time": 2170, "annotation": {"number": 64, "value": 127}, "group": "control_change"}, {"time": 2192, "annotation": {"number": 64, "value": 0}, "group": "control_change"}, {"time": 2194, "annotation": {"number": 64, "value": 127}, "group": "control_change"}, {"time": 2216, "annotation": {"number": 64, "value": 0}, "group": "control_change"}, {"time": 2218, "annotation": {"number": 64, "value": 127}, "group": "control_change"}, {"time": 2240, "annotation": {"number": 64, "value": 0}, "group": "control_change"}, {"time": 2242, "annotation": {"number": 64, "value": 127}, "group": "control_change"}, {"time": 2265, "annotation": {"number": 64, "value": 0}, "group": "control_change"}, {"time": 2268, "annotation": {"number": 64, "value": 127}, "group": "control_change"}, {"time": 2290, "annotation": {"number": 64, "value": 0}, "group": "control_change"}, {"time": 2291, "annotation": {"number": 64, "value": 127}, "group": "control_change"}, {"time": 2312, "annotation": {"number": 64, "value": 0}, "group": "control_change"}, {"time": 2314, "annotation": {"number": 64, "value": 127}, "group": "control_change"}, {"time": 2326, "annotation": {"number": 64, "value": 0}, "group": "control_change"}, {"time": 2330, "annotation": {"number": 64, "value": 127}, "group": "control_change"}, {"time": 2336, "annotation": {"number": 64, "value": 0}, "group": "control_change"}, {"time": 2339, "annotation": {"number": 64, "value": 127}, "group": "control_change"}, {"time": 2362, "annotation": {"number": 64, "value": 0}, "group": "control_change"}, {"time": 2364, "annotation": {"number": 64, "value": 127}, "group": "control_change"}, {"time": 2386, "annotation": {"number": 64, "value": 0}, "group": "control_change"}, {"time": 2388, "annotation": {"number": 64, "value": 127}, "group": "control_change"}, {"time": 2433, "annotation": {"number": 64, "value": 0}, "group": "control_change"}, {"time": 2435, "annotation": {"number": 64, "value": 127}, "group": "control_change"}, {"time": 2481, "annotation": {"number": 64, "value": 0}, "group": "control_change"}, {"time": 2483, "annotation": {"number": 64, "value": 127}, "group": "control_change"}, {"time": 2505, "annotation": {"number": 64, "value": 0}, "group": "control_change"}, {"time": 2506, "annotation": {"number": 64, "value": 127}, "group": "control_change"}, {"time": 2507, "annotation": {"number": 64, "value": 127}, "group": "control_change"}, {"time": 2517, "annotation": {"number": 64, "value": 0}, "group": "control_change"}, {"time": 2520, "annotation": {"number": 64, "value": 127}, "group": "control_change"}, {"time": 2529, "annotation": {"number": 64, "value": 0}, "group": "control_change"}, {"time": 2530, "annotation": {"number": 64, "value": 127}, "group": "control_change"}, {"time": 2553, "annotation": {"number": 64, "value": 0}, "group": "control_change"}, {"time": 2556, "annotation": {"number": 64, "value": 127}, "group": "control_change"}, {"time": 2577, "annotation": {"number": 64, "value": 0}, "group": "control_change"}, {"time": 2579, "annotation": {"number": 64, "value": 127}, "group": "control_change"}, {"time": 2602, "annotation": {"number": 64, "value": 0}, "group": "control_change"}, {"time": 2604, "annotation": {"number": 64, "value": 127}, "group": "control_change"}, {"time": 2625, "annotation": {"number": 64, "value": 0}, "group": "control_change"}, {"time": 2628, "annotation": {"number": 64, "value": 127}, "group": "control_change"}, {"time": 2649, "annotation": {"number": 64, "value": 0}, "group": "control_change"}, {"time": 2652, "annotation": {"number": 64, "value": 127}, "group": "control_change"}, {"time": 2673, "annotation": {"number": 64, "value": 0}, "group": "control_change"}, {"time": 2675, "annotation": {"number": 64, "value": 127}, "group": "control_change"}, {"time": 2698, "annotation": {"number": 64, "value": 0}, "group": "control_change"}, {"time": 2700, "annotation": {"number": 64, "value": 127}, "group": "control_change"}, {"time": 2709, "annotation": {"number": 64, "value": 0}, "group": "control_change"}, {"time": 2711, "annotation": {"number": 64, "value": 127}, "group": "control_change"}, {"time": 2721, "annotation": {"number": 64, "value": 0}, "group": "control_change"}, {"time": 2724, "annotation": {"number": 64, "value": 127}, "group": "control_change"}, {"time": 2745, "annotation": {"number": 64, "value": 0}, "group": "control_change"}, {"time": 2748, "annotation": {"number": 64, "value": 127}, "group": "control_change"}, {"time": 2769, "annotation": {"number": 64, "value": 0}, "group": "control_change"}, {"time": 2771, "annotation": {"number": 64, "value": 127}, "group": "control_change"}, {"time": 2792, "annotation": {"number": 64, "value": 0}, "group": "control_change"}, {"time": 2793, "annotation": {"number": 64, "value": 127}, "group": "control_change"}, {"time": 2817, "annotation": {"number": 64, "value": 0}, "group": "control_change"}, {"time": 2818, "annotation": {"number": 64, "value": 127}, "group": "control_change"}, {"time": 2842, "annotation": {"number": 64, "value": 0}, "group": "control_change"}, {"time": 2845, "annotation": {"number": 64, "value": 127}, "group": "control_change"}, {"time": 2866, "annotation": {"number": 64, "value": 0}, "group": "control_change"}, {"time": 2868, "annotation": {"number": 64, "value": 127}, "group": "control_change"}, {"time": 2889, "annotation": {"number": 64, "value": 0}, "group": "control_change"}, {"time": 2892, "annotation": {"number": 64, "value": 124}, "group": "control_change"}, {"time": 2913, "annotation": {"number": 64, "value": 0}, "group": "control_change"}, {"time": 2915, "annotation": {"number": 64, "value": 127}, "group": "control_change"}, {"time": 2936, "annotation": {"number": 64, "value": 0}, "group": "control_change"}, {"time": 2939, "annotation": {"number": 64, "value": 127}, "group": "control_change"}, {"time": 2961, "annotation": {"number": 64, "value": 0}, "group": "control_change"}, {"time": 2964, "annotation": {"number": 64, "value": 127}, "group": "control_change"}, {"time": 2985, "annotation": {"number": 64, "value": 0}, "group": "control_change"}, {"time": 2988, "annotation": {"number": 64, "value": 127}, "group": "control_change"}, {"time": 3008, "annotation": {"number": 64, "value": 0}, "group": "control_change"}, {"time": 3011, "annotation": {"number": 64, "value": 127}, "group": "control_change"}, {"time": 3033, "annotation": {"number": 64, "value": 0}, "group": "control_change"}, {"time": 3036, "annotation": {"number": 64, "value": 127}, "group": "control_change"}, {"time": 3058, "annotation": {"number": 64, "value": 0}, "group": "control_change"}, {"time": 3060, "annotation": {"number": 64, "value": 127}, "group": "control_change"}, {"time": 3080, "annotation": {"number": 64, "value": 0}, "group": "control_change"}, {"time": 3083, "annotation": {"number": 64, "value": 127}, "group": "control_change"}, {"time": 3104, "annotation": {"number": 64, "value": 0}, "group": "control_change"}, {"time": 3106, "annotation": {"number": 64, "value": 127}, "group": "control_change"}, {"time": 3154, "annotation": {"number": 64, "value": 0}, "group": "control_change"}]}]}